<?xml version="1.0" encoding="UTF-8"?>
<!--Generator: Apple Native CoreSVG 232.5-->
<!DOCTYPE svg
PUBLIC "-//W3C//DTD SVG 1.1//EN"
       "http://www.w3.org/Graphics/SVG/1.1/DTD/svg11.dtd">
<svg version="1.1" xmlns="http://www.w3.org/2000/svg" xmlns:xlink="http://www.w3.org/1999/xlink" width="89.8926" height="89.9902">
 <g>
  <rect height="89.9902" opacity="0" width="89.8926" x="0" y="0"/>
  <path d="M89.8926 15.2344L89.8926 74.8535C89.8926 84.9121 84.8145 89.9902 74.5605 89.9902L15.332 89.9902C5.12695 89.9902 0 84.9609 0 74.8535L0 15.2344C0 5.12695 5.12695 0.0976562 15.332 0.0976562L74.5605 0.0976562C84.8145 0.0976562 89.8926 5.17578 89.8926 15.2344ZM27.1973 44.9707C27.1973 59.3262 34.3262 68.9453 44.9707 68.9453C55.6641 68.9453 62.793 59.3262 62.793 44.9707C62.793 30.6152 55.6641 20.9961 44.9707 20.9961C34.3262 20.9961 27.1973 30.6152 27.1973 44.9707ZM55.0293 44.9707C55.0293 55.4688 50.9766 62.4512 44.9707 62.4512C39.0137 62.4512 34.9121 55.4688 34.9121 44.9707C34.9121 34.4727 39.0137 27.4902 44.9707 27.4902C50.9766 27.4902 55.0293 34.4727 55.0293 44.9707Z" fill="#000000" fill-opacity="0.85"/>
 </g>
</svg>
