<?xml version="1.0" encoding="UTF-8"?>
<!--Generator: Apple Native CoreSVG 232.5-->
<!DOCTYPE svg
PUBLIC "-//W3C//DTD SVG 1.1//EN"
       "http://www.w3.org/Graphics/SVG/1.1/DTD/svg11.dtd">
<svg version="1.1" xmlns="http://www.w3.org/2000/svg" xmlns:xlink="http://www.w3.org/1999/xlink" width="99.6094" height="99.6582">
 <g>
  <rect height="99.6582" opacity="0" width="99.6094" x="0" y="0"/>
  <path d="M99.6094 49.8047C99.6094 77.002 77.0508 99.6094 49.8047 99.6094C22.6074 99.6094 0 77.002 0 49.8047C0 22.5586 22.5586 0 49.7559 0C77.002 0 99.6094 22.5586 99.6094 49.8047ZM20.752 49.8047C20.752 59.9609 23.7793 71.1914 33.8379 71.1914C43.8477 71.1914 46.875 59.9609 46.875 49.8047C46.875 39.6484 43.8477 28.418 33.8379 28.418C23.7793 28.418 20.752 39.6484 20.752 49.8047ZM52.7344 49.8047C52.7344 59.9609 55.7617 71.1914 65.7715 71.1914C75.8301 71.1914 78.8574 59.9609 78.8574 49.8047C78.8574 39.6484 75.8301 28.418 65.7715 28.418C55.7617 28.418 52.7344 39.6484 52.7344 49.8047ZM39.502 49.8047C39.502 58.5449 37.9395 65.1855 33.8379 65.1855C29.7363 65.1855 28.1738 58.5449 28.1738 49.8047C28.1738 41.0156 29.7363 34.4238 33.8379 34.4238C37.9395 34.4238 39.502 41.0156 39.502 49.8047ZM71.4355 49.8047C71.4355 58.5449 69.873 65.1855 65.7715 65.1855C61.6699 65.1855 60.1074 58.5449 60.1074 49.8047C60.1074 41.0156 61.6699 34.4238 65.7715 34.4238C69.873 34.4238 71.4355 41.0156 71.4355 49.8047Z" fill="#000000" fill-opacity="0.85"/>
 </g>
</svg>
