<?xml version="1.0" encoding="UTF-8"?>
<!--Generator: Apple Native CoreSVG 232.5-->
<!DOCTYPE svg
PUBLIC "-//W3C//DTD SVG 1.1//EN"
       "http://www.w3.org/Graphics/SVG/1.1/DTD/svg11.dtd">
<svg version="1.1" xmlns="http://www.w3.org/2000/svg" xmlns:xlink="http://www.w3.org/1999/xlink" width="99.6094" height="99.6582">
 <g>
  <rect height="99.6582" opacity="0" width="99.6094" x="0" y="0"/>
  <path d="M49.8047 99.6094C77.0508 99.6094 99.6094 77.002 99.6094 49.8047C99.6094 22.5586 77.002 0 49.7559 0C22.5586 0 0 22.5586 0 49.8047C0 77.002 22.6074 99.6094 49.8047 99.6094ZM49.8047 91.3086C26.7578 91.3086 8.34961 72.8516 8.34961 49.8047C8.34961 26.7578 26.709 8.30078 49.7559 8.30078C72.8027 8.30078 91.3086 26.7578 91.3086 49.8047C91.3086 72.8516 72.8516 91.3086 49.8047 91.3086Z" fill="#000000" fill-opacity="0.85"/>
  <path d="M37.7441 70.5566C47.4609 70.5566 50.3906 59.6191 50.3906 49.8047C50.3906 39.9902 47.4609 29.0527 37.7441 29.0527C28.0273 29.0527 25.0977 39.9902 25.0977 49.8047C25.0977 59.6191 28.0273 70.5566 37.7441 70.5566ZM37.7441 64.7461C33.7402 64.7461 32.2266 58.252 32.2266 49.8047C32.2266 41.3086 33.7402 34.8145 37.7441 34.8145C41.748 34.8145 43.2617 41.3086 43.2617 49.8047C43.2617 58.252 41.748 64.7461 37.7441 64.7461ZM67.0898 70.0684C68.9941 70.0684 70.6055 68.457 70.6055 66.5039L70.6055 33.3984C70.6055 30.9082 69.043 29.4434 66.5039 29.4434C64.4531 29.4434 62.793 30.5664 61.6699 31.4453L56.2988 35.5957C55.4199 36.2793 54.7363 37.207 54.7363 38.4766C54.7363 39.9902 55.7617 41.0645 57.2754 41.0645C58.0078 41.0645 58.4961 40.8203 58.9844 40.4785L63.4766 36.8652L63.4766 66.5039C63.4766 68.457 65.0879 70.0684 67.0898 70.0684Z" fill="#000000" fill-opacity="0.85"/>
 </g>
</svg>
