<?xml version="1.0" encoding="UTF-8"?>
<!--Generator: Apple Native CoreSVG 232.5-->
<!DOCTYPE svg
PUBLIC "-//W3C//DTD SVG 1.1//EN"
       "http://www.w3.org/Graphics/SVG/1.1/DTD/svg11.dtd">
<svg version="1.1" xmlns="http://www.w3.org/2000/svg" xmlns:xlink="http://www.w3.org/1999/xlink" width="99.6094" height="99.6582">
 <g>
  <rect height="99.6582" opacity="0" width="99.6094" x="0" y="0"/>
  <path d="M99.6094 49.8047C99.6094 77.002 77.0508 99.6094 49.8047 99.6094C22.6074 99.6094 0 77.002 0 49.8047C0 22.5586 22.5586 0 49.7559 0C77.002 0 99.6094 22.5586 99.6094 49.8047ZM24.4141 49.8047C24.4141 59.9609 27.4414 71.1914 37.4512 71.1914C47.5098 71.1914 50.5371 59.9609 50.5371 49.8047C50.5371 39.6484 47.5098 28.418 37.4512 28.418C27.4414 28.418 24.4141 39.6484 24.4141 49.8047ZM62.1582 30.8594L56.5918 35.1562C55.7129 35.8398 54.9805 36.8164 54.9805 38.1348C54.9805 39.6973 56.0547 40.8203 57.6172 40.8203C58.3984 40.8203 58.8867 40.5762 59.375 40.1855L64.0137 36.4746L64.0137 66.9922C64.0137 69.043 65.6738 70.7031 67.7734 70.7031C69.7266 70.7031 71.3867 69.043 71.3867 66.9922L71.3867 32.9102C71.3867 30.3223 69.7754 28.8086 67.1387 28.8086C65.0391 28.8086 63.2812 29.9805 62.1582 30.8594ZM43.1152 49.8047C43.1152 58.5449 41.5527 65.1855 37.4512 65.1855C33.3496 65.1855 31.7871 58.5449 31.7871 49.8047C31.7871 41.0156 33.3496 34.4238 37.4512 34.4238C41.5527 34.4238 43.1152 41.0156 43.1152 49.8047Z" fill="#000000" fill-opacity="0.85"/>
 </g>
</svg>
