<?xml version="1.0" encoding="UTF-8"?>
<!--Generator: Apple Native CoreSVG 232.5-->
<!DOCTYPE svg
PUBLIC "-//W3C//DTD SVG 1.1//EN"
       "http://www.w3.org/Graphics/SVG/1.1/DTD/svg11.dtd">
<svg version="1.1" xmlns="http://www.w3.org/2000/svg" xmlns:xlink="http://www.w3.org/1999/xlink" width="99.6094" height="99.6582">
 <g>
  <rect height="99.6582" opacity="0" width="99.6094" x="0" y="0"/>
  <path d="M49.8047 99.6094C77.0508 99.6094 99.6094 77.002 99.6094 49.8047C99.6094 22.5586 77.002 0 49.7559 0C22.5586 0 0 22.5586 0 49.8047C0 77.002 22.6074 99.6094 49.8047 99.6094ZM49.8047 91.3086C26.7578 91.3086 8.34961 72.8516 8.34961 49.8047C8.34961 26.7578 26.709 8.30078 49.7559 8.30078C72.8027 8.30078 91.3086 26.7578 91.3086 49.8047C91.3086 72.8516 72.8516 91.3086 49.8047 91.3086Z" fill="#000000" fill-opacity="0.85"/>
  <path d="M34.2285 70.5566C43.9453 70.5566 46.8262 59.6191 46.8262 49.8047C46.8262 39.9902 43.9453 29.0527 34.2285 29.0527C24.4629 29.0527 21.582 39.9902 21.582 49.8047C21.582 59.6191 24.4629 70.5566 34.2285 70.5566ZM34.2285 64.7461C30.2246 64.7461 28.7109 58.252 28.7109 49.8047C28.7109 41.3086 30.2246 34.8145 34.2285 34.8145C38.1836 34.8145 39.6973 41.3086 39.6973 49.8047C39.6973 58.252 38.1836 64.7461 34.2285 64.7461ZM64.3555 70.4102C71.3379 70.4102 76.709 66.0156 76.709 58.6914C76.709 52.6367 73.0957 49.6582 68.9941 49.2188L68.9941 49.0723C73.3887 47.9004 75.5859 43.9453 75.5859 39.8438C75.5859 33.1055 70.5078 29.248 64.1602 29.248C59.1309 29.248 54.7363 32.0801 53.3203 36.4258C53.0762 37.3535 52.9785 38.2324 52.9785 39.0625C52.9785 40.6738 54.0527 41.9434 55.957 41.9434C57.6172 41.9434 58.5938 41.3086 59.082 39.5996C59.8633 36.7188 61.4258 34.9121 64.1602 34.9121C67.3828 34.9121 68.8965 37.4023 68.8965 40.625C68.8965 44.1895 66.9434 46.7773 63.2812 46.7773L62.1094 46.7773C60.4492 46.7773 59.4238 47.8027 59.4238 49.4141C59.4238 51.0254 60.498 51.9531 62.1094 51.9531L63.3301 51.9531C67.4805 51.9531 69.7754 54.248 69.7754 58.4961C69.7754 61.8652 67.9688 64.7461 64.3555 64.7461C60.791 64.7461 59.2285 62.3535 58.5938 60.1074C58.1543 58.5449 57.0801 57.7148 55.5176 57.7148C53.6133 57.7148 52.3438 58.8867 52.3438 60.791C52.3438 61.6699 52.4902 62.5488 52.7344 63.3301C54.1016 67.8711 59.082 70.4102 64.3555 70.4102Z" fill="#000000" fill-opacity="0.85"/>
 </g>
</svg>
