<?xml version="1.0" encoding="UTF-8"?>
<!--Generator: Apple Native CoreSVG 232.5-->
<!DOCTYPE svg
PUBLIC "-//W3C//DTD SVG 1.1//EN"
       "http://www.w3.org/Graphics/SVG/1.1/DTD/svg11.dtd">
<svg version="1.1" xmlns="http://www.w3.org/2000/svg" xmlns:xlink="http://www.w3.org/1999/xlink" width="89.8926" height="89.9902">
 <g>
  <rect height="89.9902" opacity="0" width="89.8926" x="0" y="0"/>
  <path d="M15.332 89.9902L74.5605 89.9902C84.8145 89.9902 89.8926 84.9121 89.8926 74.8535L89.8926 15.2344C89.8926 5.17578 84.8145 0.0976562 74.5605 0.0976562L15.332 0.0976562C5.12695 0.0976562 0 5.12695 0 15.2344L0 74.8535C0 84.9609 5.12695 89.9902 15.332 89.9902ZM15.4297 82.1289C10.5469 82.1289 7.86133 79.541 7.86133 74.4629L7.86133 15.625C7.86133 10.5469 10.5469 7.95898 15.4297 7.95898L74.4629 7.95898C79.2969 7.95898 82.0312 10.5469 82.0312 15.625L82.0312 74.4629C82.0312 79.541 79.2969 82.1289 74.4629 82.1289Z" fill="#000000" fill-opacity="0.85"/>
  <path d="M29.4434 65.7227C39.1602 65.7227 42.0898 54.7852 42.0898 44.9707C42.0898 35.1562 39.1602 24.2188 29.4434 24.2188C19.6777 24.2188 16.7969 35.1562 16.7969 44.9707C16.7969 54.7852 19.6777 65.7227 29.4434 65.7227ZM29.4434 59.9121C25.4395 59.9121 23.9258 53.418 23.9258 44.9707C23.9258 36.4746 25.4395 29.9805 29.4434 29.9805C33.4473 29.9805 34.9609 36.4746 34.9609 44.9707C34.9609 53.418 33.4473 59.9121 29.4434 59.9121ZM59.5703 65.5762C66.5527 65.5762 71.9727 61.1816 71.9727 53.8574C71.9727 47.8027 68.3105 44.8242 64.209 44.3848L64.209 44.2383C68.6523 43.0664 70.8008 39.1113 70.8008 35.0098C70.8008 28.2715 65.7227 24.4141 59.375 24.4141C54.3457 24.4141 49.9512 27.2461 48.584 31.5918C48.291 32.5195 48.1934 33.3984 48.1934 34.2285C48.1934 35.8398 49.2676 37.1094 51.1719 37.1094C52.8809 37.1094 53.8086 36.4746 54.2969 34.7656C55.0781 31.8848 56.6406 30.0781 59.375 30.0781C62.5977 30.0781 64.1602 32.5684 64.1602 35.791C64.1602 39.3555 62.1582 41.9434 58.4961 41.9434L57.3242 41.9434C55.6641 41.9434 54.6387 42.9688 54.6387 44.5801C54.6387 46.1914 55.7129 47.1191 57.3242 47.1191L58.5449 47.1191C62.6953 47.1191 64.9902 49.4141 64.9902 53.6621C64.9902 57.0312 63.1836 59.9121 59.5703 59.9121C56.0059 59.9121 54.4434 57.5195 53.8086 55.2734C53.3691 53.7109 52.3438 52.8809 50.7324 52.8809C48.8281 52.8809 47.5586 54.0527 47.5586 55.957C47.5586 56.8359 47.7051 57.7148 47.9492 58.4961C49.3652 63.0371 54.2969 65.5762 59.5703 65.5762Z" fill="#000000" fill-opacity="0.85"/>
 </g>
</svg>
