<?xml version="1.0" encoding="UTF-8"?>
<!--Generator: Apple Native CoreSVG 232.5-->
<!DOCTYPE svg
PUBLIC "-//W3C//DTD SVG 1.1//EN"
       "http://www.w3.org/Graphics/SVG/1.1/DTD/svg11.dtd">
<svg version="1.1" xmlns="http://www.w3.org/2000/svg" xmlns:xlink="http://www.w3.org/1999/xlink" width="89.8926" height="89.9902">
 <g>
  <rect height="89.9902" opacity="0" width="89.8926" x="0" y="0"/>
  <path d="M89.8926 15.2344L89.8926 74.8535C89.8926 84.9121 84.8145 89.9902 74.5605 89.9902L15.332 89.9902C5.12695 89.9902 0 84.9609 0 74.8535L0 15.2344C0 5.12695 5.12695 0.0976562 15.332 0.0976562L74.5605 0.0976562C84.8145 0.0976562 89.8926 5.17578 89.8926 15.2344ZM15.8203 44.9707C15.8203 55.127 18.7988 66.3574 28.9062 66.3574C38.916 66.3574 41.8945 55.127 41.8945 44.9707C41.8945 34.8145 38.916 23.584 28.9062 23.584C18.7988 23.584 15.8203 34.8145 15.8203 44.9707ZM57.4707 28.9062L48.4863 48.4375C47.7051 50.3906 47.3633 51.709 47.3633 53.2715C47.3633 55.7129 49.0723 57.373 51.5137 57.373L62.793 57.373L62.793 62.4023C62.793 65.0391 64.6484 65.9668 66.2598 65.9668C68.2129 65.9668 69.7266 64.7949 69.7266 62.4023L69.7266 57.373L71.5332 57.373C73.4863 57.373 74.4141 56.1035 74.4141 54.3945C74.4141 52.7832 73.5352 51.5137 71.5332 51.5137L69.7266 51.5137L69.7266 29.4434C69.7266 25.9277 67.4316 23.9746 64.1602 23.9746C60.5469 23.9746 58.8867 25.7812 57.4707 28.9062ZM34.5703 44.9707C34.5703 53.7109 33.0078 60.3516 28.9062 60.3516C24.8047 60.3516 23.2422 53.7109 23.2422 44.9707C23.2422 36.1816 24.8047 29.5898 28.9062 29.5898C33.0078 29.5898 34.5703 36.1816 34.5703 44.9707ZM62.9395 51.6602L53.6133 51.6602L53.6133 51.3184L62.7441 30.3223L62.9395 30.3223Z" fill="#000000" fill-opacity="0.85"/>
 </g>
</svg>
