<?xml version="1.0" encoding="UTF-8"?>
<!--Generator: Apple Native CoreSVG 232.5-->
<!DOCTYPE svg
PUBLIC "-//W3C//DTD SVG 1.1//EN"
       "http://www.w3.org/Graphics/SVG/1.1/DTD/svg11.dtd">
<svg version="1.1" xmlns="http://www.w3.org/2000/svg" xmlns:xlink="http://www.w3.org/1999/xlink" width="99.6094" height="99.6582">
 <g>
  <rect height="99.6582" opacity="0" width="99.6094" x="0" y="0"/>
  <path d="M99.6094 49.8047C99.6094 77.002 77.0508 99.6094 49.8047 99.6094C22.6074 99.6094 0 77.002 0 49.8047C0 22.5586 22.5586 0 49.7559 0C77.002 0 99.6094 22.5586 99.6094 49.8047ZM20.9961 49.8047C20.9961 59.9609 24.0234 71.1914 34.0332 71.1914C44.0918 71.1914 47.1191 59.9609 47.1191 49.8047C47.1191 39.6484 44.0918 28.418 34.0332 28.418C24.0234 28.418 20.9961 39.6484 20.9961 49.8047ZM59.082 29.4434C56.4941 29.4434 55.2734 31.2012 55.127 33.7891L54.248 47.5586C54.1992 48.3398 54.1992 49.1211 54.1992 49.8047C54.1992 51.709 55.1758 53.418 57.5195 53.418C58.8867 53.418 59.668 52.8809 60.7422 51.5137C61.8652 49.8535 63.1348 48.6816 65.1855 48.6816C68.8477 48.6816 70.2637 53.125 70.2637 56.8359C70.2637 61.0352 68.7988 65.2832 65.0879 65.2832C62.3047 65.2832 60.6934 63.2812 59.7656 60.5469C59.1797 58.9355 58.0566 58.1543 56.6895 58.1543C54.8828 58.1543 53.6621 59.3262 53.6621 61.1816C53.6621 62.3535 53.9551 63.4766 54.3945 64.4531C56.2012 68.5547 60.6445 71.1914 65.1855 71.1914C73.0469 71.1914 77.3438 64.5996 77.3438 56.6406C77.3438 49.707 74.0234 43.3594 67.5293 43.3594C64.5508 43.3594 61.8164 44.7266 60.5469 47.6562L60.3516 47.6562L61.1328 35.4492L72.9492 35.4492C74.6582 35.4492 75.7812 34.2285 75.7812 32.4219C75.7812 30.7617 74.6094 29.4434 72.9492 29.4434ZM39.6973 49.8047C39.6973 58.5449 38.1348 65.1855 34.0332 65.1855C29.9316 65.1855 28.3691 58.5449 28.3691 49.8047C28.3691 41.0156 29.9316 34.4238 34.0332 34.4238C38.1348 34.4238 39.6973 41.0156 39.6973 49.8047Z" fill="#000000" fill-opacity="0.85"/>
 </g>
</svg>
