<?xml version="1.0" encoding="UTF-8"?>
<!--Generator: Apple Native CoreSVG 232.5-->
<!DOCTYPE svg
PUBLIC "-//W3C//DTD SVG 1.1//EN"
       "http://www.w3.org/Graphics/SVG/1.1/DTD/svg11.dtd">
<svg version="1.1" xmlns="http://www.w3.org/2000/svg" xmlns:xlink="http://www.w3.org/1999/xlink" width="99.6094" height="99.6582">
 <g>
  <rect height="99.6582" opacity="0" width="99.6094" x="0" y="0"/>
  <path d="M49.8047 99.6094C77.0508 99.6094 99.6094 77.002 99.6094 49.8047C99.6094 22.5586 77.002 0 49.7559 0C22.5586 0 0 22.5586 0 49.8047C0 77.002 22.6074 99.6094 49.8047 99.6094ZM49.8047 91.3086C26.7578 91.3086 8.34961 72.8516 8.34961 49.8047C8.34961 26.7578 26.709 8.30078 49.7559 8.30078C72.8027 8.30078 91.3086 26.7578 91.3086 49.8047C91.3086 72.8516 72.8516 91.3086 49.8047 91.3086Z" fill="#000000" fill-opacity="0.85"/>
  <path d="M33.6914 70.5566C43.4082 70.5566 46.3379 59.6191 46.3379 49.8047C46.3379 39.9902 43.4082 29.0527 33.6914 29.0527C23.9258 29.0527 21.0449 39.9902 21.0449 49.8047C21.0449 59.6191 23.9258 70.5566 33.6914 70.5566ZM33.6914 64.7461C29.6875 64.7461 28.1738 58.252 28.1738 49.8047C28.1738 41.3086 29.6875 34.8145 33.6914 34.8145C37.6953 34.8145 39.209 41.3086 39.209 49.8047C39.209 58.252 37.6953 64.7461 33.6914 64.7461ZM64.8438 70.5566C72.3145 70.5566 76.6113 64.3066 76.6113 56.6406C76.6113 50.0488 73.3887 43.7988 66.9434 43.7988C62.9883 43.7988 59.9609 46.4355 58.8867 50.6348L58.6914 50.6348C58.6914 50.4395 58.6914 50.2441 58.6914 50.0977C58.6914 44.6777 59.3262 34.8633 64.7949 34.8633C66.9922 34.8633 68.457 36.4258 69.3359 38.4766C70.0195 39.9902 70.9473 40.6738 72.5098 40.6738C74.4629 40.6738 75.3418 39.3555 75.3418 37.7441C75.3418 37.207 75.2441 36.6211 75.0977 35.9863C74.0723 31.7871 69.8242 29.1504 64.9414 29.1504C54.9316 29.1504 52.002 40.3809 52.002 50.293C52.002 59.5215 54.9805 70.5566 64.8438 70.5566ZM64.7461 64.8438C61.084 64.8438 59.6191 60.2539 59.6191 56.7383C59.6191 53.1738 61.2305 49.1211 64.7461 49.1211C68.3594 49.1211 69.873 53.3203 69.7754 56.9336C69.7754 60.498 68.1641 64.8438 64.7461 64.8438Z" fill="#000000" fill-opacity="0.85"/>
 </g>
</svg>
