<?xml version="1.0" encoding="UTF-8"?>
<!--Generator: Apple Native CoreSVG 232.5-->
<!DOCTYPE svg
PUBLIC "-//W3C//DTD SVG 1.1//EN"
       "http://www.w3.org/Graphics/SVG/1.1/DTD/svg11.dtd">
<svg version="1.1" xmlns="http://www.w3.org/2000/svg" xmlns:xlink="http://www.w3.org/1999/xlink" width="89.8926" height="89.9902">
 <g>
  <rect height="89.9902" opacity="0" width="89.8926" x="0" y="0"/>
  <path d="M15.332 89.9902L74.5605 89.9902C84.8145 89.9902 89.8926 84.9121 89.8926 74.8535L89.8926 15.2344C89.8926 5.17578 84.8145 0.0976562 74.5605 0.0976562L15.332 0.0976562C5.12695 0.0976562 0 5.12695 0 15.2344L0 74.8535C0 84.9609 5.12695 89.9902 15.332 89.9902ZM15.4297 82.1289C10.5469 82.1289 7.86133 79.541 7.86133 74.4629L7.86133 15.625C7.86133 10.5469 10.5469 7.95898 15.4297 7.95898L74.4629 7.95898C79.2969 7.95898 82.0312 10.5469 82.0312 15.625L82.0312 74.4629C82.0312 79.541 79.2969 82.1289 74.4629 82.1289Z" fill="#000000" fill-opacity="0.85"/>
  <path d="M28.9062 65.7227C38.623 65.7227 41.5527 54.7852 41.5527 44.9707C41.5527 35.1562 38.623 24.2188 28.9062 24.2188C19.1895 24.2188 16.2598 35.1562 16.2598 44.9707C16.2598 54.7852 19.1895 65.7227 28.9062 65.7227ZM28.9062 59.9121C24.9023 59.9121 23.3887 53.418 23.3887 44.9707C23.3887 36.4746 24.9023 29.9805 28.9062 29.9805C32.9102 29.9805 34.4238 36.4746 34.4238 44.9707C34.4238 53.418 32.9102 59.9121 28.9062 59.9121ZM60.1074 65.7227C67.5293 65.7227 71.8262 59.4727 71.8262 51.8066C71.8262 45.2148 68.6523 38.9648 62.1582 38.9648C58.2031 38.9648 55.2246 41.6016 54.1016 45.8008L53.9062 45.8008C53.9062 45.6055 53.9062 45.4102 53.9062 45.2637C53.9062 39.8438 54.5898 30.0293 60.0098 30.0293C62.207 30.0293 63.7207 31.5918 64.5508 33.6426C65.2344 35.1562 66.1621 35.8398 67.7246 35.8398C69.7266 35.8398 70.5566 34.5215 70.5566 32.9102C70.5566 32.373 70.459 31.7871 70.3125 31.1523C69.2871 26.9531 65.0391 24.3164 60.1562 24.3164C50.1465 24.3164 47.2168 35.5469 47.2168 45.459C47.2168 54.6875 50.1953 65.7227 60.1074 65.7227ZM60.0098 60.0098C56.2988 60.0098 54.834 55.4199 54.834 51.9043C54.834 48.3398 56.4453 44.2871 59.9609 44.2871C63.5742 44.2871 65.0879 48.4863 64.9902 52.0996C64.9902 55.6641 63.3789 60.0098 60.0098 60.0098Z" fill="#000000" fill-opacity="0.85"/>
 </g>
</svg>
