<?xml version="1.0" encoding="UTF-8"?>
<!--Generator: Apple Native CoreSVG 232.5-->
<!DOCTYPE svg
PUBLIC "-//W3C//DTD SVG 1.1//EN"
       "http://www.w3.org/Graphics/SVG/1.1/DTD/svg11.dtd">
<svg version="1.1" xmlns="http://www.w3.org/2000/svg" xmlns:xlink="http://www.w3.org/1999/xlink" width="99.6094" height="99.6582">
 <g>
  <rect height="99.6582" opacity="0" width="99.6094" x="0" y="0"/>
  <path d="M49.8047 99.6094C77.0508 99.6094 99.6094 77.002 99.6094 49.8047C99.6094 22.5586 77.002 0 49.7559 0C22.5586 0 0 22.5586 0 49.8047C0 77.002 22.6074 99.6094 49.8047 99.6094ZM49.8047 91.3086C26.7578 91.3086 8.34961 72.8516 8.34961 49.8047C8.34961 26.7578 26.709 8.30078 49.7559 8.30078C72.8027 8.30078 91.3086 26.7578 91.3086 49.8047C91.3086 72.8516 72.8516 91.3086 49.8047 91.3086Z" fill="#000000" fill-opacity="0.85"/>
  <path d="M36.1816 70.5566C45.8984 70.5566 48.8281 59.6191 48.8281 49.8047C48.8281 39.9902 45.8984 29.0527 36.1816 29.0527C26.416 29.0527 23.5352 39.9902 23.5352 49.8047C23.5352 59.6191 26.416 70.5566 36.1816 70.5566ZM36.1816 64.7461C32.1777 64.7461 30.6641 58.252 30.6641 49.8047C30.6641 41.3086 32.1777 34.8145 36.1816 34.8145C40.1855 34.8145 41.6992 41.3086 41.6992 49.8047C41.6992 58.252 40.1855 64.7461 36.1816 64.7461ZM59.9609 70.2148C61.7188 70.2148 62.5488 69.4824 63.1836 67.7246L74.3652 37.9395C74.9023 36.4258 75.2441 35.2539 75.2441 33.8379C75.2441 31.5918 73.5352 30.0781 71.3867 30.0781L55.5664 30.0781C53.9062 30.0781 52.7832 31.2988 52.7832 32.959C52.7832 34.6191 53.9062 35.8398 55.5664 35.8398L68.1152 35.8398L68.1152 36.2793L57.3242 64.3066C56.8848 65.3809 56.7383 66.0156 56.7383 67.1875C56.7383 68.6035 57.6172 70.2148 59.9609 70.2148Z" fill="#000000" fill-opacity="0.85"/>
 </g>
</svg>
