<?xml version="1.0" encoding="UTF-8"?>
<!--Generator: Apple Native CoreSVG 232.5-->
<!DOCTYPE svg
PUBLIC "-//W3C//DTD SVG 1.1//EN"
       "http://www.w3.org/Graphics/SVG/1.1/DTD/svg11.dtd">
<svg version="1.1" xmlns="http://www.w3.org/2000/svg" xmlns:xlink="http://www.w3.org/1999/xlink" width="99.6094" height="99.6582">
 <g>
  <rect height="99.6582" opacity="0" width="99.6094" x="0" y="0"/>
  <path d="M99.6094 49.8047C99.6094 77.002 77.0508 99.6094 49.8047 99.6094C22.6074 99.6094 0 77.002 0 49.8047C0 22.5586 22.5586 0 49.7559 0C77.002 0 99.6094 22.5586 99.6094 49.8047ZM21.0938 49.8047C21.0938 59.9609 24.1211 71.1914 34.1309 71.1914C44.1895 71.1914 47.2168 59.9609 47.2168 49.8047C47.2168 39.6484 44.1895 28.418 34.1309 28.418C24.1211 28.418 21.0938 39.6484 21.0938 49.8047ZM52.832 42.8711C52.832 49.6582 56.1035 56.1035 62.7441 56.1035C66.8457 56.1035 69.9707 53.3691 71.0938 49.0723L71.2402 49.0723C71.2402 49.2676 71.2402 49.4629 71.2402 49.6094C71.2402 55.1758 70.6055 65.2344 64.9902 65.2344C62.7441 65.2344 61.2305 63.6719 60.3027 61.5234C59.5703 59.8633 58.5449 59.2285 57.0801 59.2285C54.9316 59.2285 54.0527 60.6445 54.0527 62.3047C54.0527 62.8906 54.1504 63.5254 54.3457 64.1113C55.4199 68.5059 59.8145 71.1426 64.8438 71.1426C75.1465 71.1426 78.1738 59.7168 78.1738 49.4141C78.1738 39.8926 75.0977 28.5156 64.9414 28.5156C57.2754 28.5156 52.832 34.9609 52.832 42.8711ZM39.7949 49.8047C39.7949 58.5449 38.2324 65.1855 34.1309 65.1855C30.0293 65.1855 28.4668 58.5449 28.4668 49.8047C28.4668 41.0156 30.0293 34.4238 34.1309 34.4238C38.2324 34.4238 39.7949 41.0156 39.7949 49.8047ZM70.3125 42.5293C70.3125 46.4355 68.6523 50.5371 65.0391 50.5371C61.3281 50.5371 59.8145 46.2891 59.8145 42.5293C59.8145 38.7695 61.5234 34.4238 65.0391 34.4238C68.7988 34.4238 70.3125 38.7695 70.3125 42.5293Z" fill="#000000" fill-opacity="0.85"/>
 </g>
</svg>
