<?xml version="1.0" encoding="UTF-8"?>
<!--Generator: Apple Native CoreSVG 232.5-->
<!DOCTYPE svg
PUBLIC "-//W3C//DTD SVG 1.1//EN"
       "http://www.w3.org/Graphics/SVG/1.1/DTD/svg11.dtd">
<svg version="1.1" xmlns="http://www.w3.org/2000/svg" xmlns:xlink="http://www.w3.org/1999/xlink" width="89.8926" height="89.9902">
 <g>
  <rect height="89.9902" opacity="0" width="89.8926" x="0" y="0"/>
  <path d="M89.8926 15.2344L89.8926 74.8535C89.8926 84.9121 84.8145 89.9902 74.5605 89.9902L15.332 89.9902C5.12695 89.9902 0 84.9609 0 74.8535L0 15.2344C0 5.12695 5.12695 0.0976562 15.332 0.0976562L74.5605 0.0976562C84.8145 0.0976562 89.8926 5.17578 89.8926 15.2344ZM16.2598 44.9707C16.2598 55.127 19.2871 66.3574 29.2969 66.3574C39.3555 66.3574 42.3828 55.127 42.3828 44.9707C42.3828 34.8145 39.3555 23.584 29.2969 23.584C19.2871 23.584 16.2598 34.8145 16.2598 44.9707ZM47.998 38.0371C47.998 44.8242 51.2695 51.2695 57.9102 51.2695C62.0605 51.2695 65.1367 48.5352 66.2598 44.2383L66.4551 44.2383C66.4551 44.4336 66.4551 44.6289 66.4551 44.7754C66.4551 50.3418 65.7715 60.4004 60.1562 60.4004C57.9102 60.4004 56.3965 58.8379 55.4688 56.6895C54.7363 55.0293 53.7598 54.3945 52.2461 54.3945C50.0977 54.3945 49.2188 55.8105 49.2188 57.4707C49.2188 58.0566 49.3652 58.6914 49.5117 59.2773C50.5859 63.6719 54.9805 66.3086 60.0098 66.3086C70.3125 66.3086 73.3398 54.8828 73.3398 44.5801C73.3398 35.0586 70.3125 23.6816 60.1074 23.6816C52.4414 23.6816 47.998 30.127 47.998 38.0371ZM34.9609 44.9707C34.9609 53.7109 33.3984 60.3516 29.2969 60.3516C25.1953 60.3516 23.6328 53.7109 23.6328 44.9707C23.6328 36.1816 25.1953 29.5898 29.2969 29.5898C33.3984 29.5898 34.9609 36.1816 34.9609 44.9707ZM65.4785 37.6953C65.4785 41.6016 63.8184 45.7031 60.2051 45.7031C56.4941 45.7031 54.9805 41.4551 54.9805 37.6953C54.9805 33.9355 56.6895 29.5898 60.2051 29.5898C63.9648 29.5898 65.4785 33.9355 65.4785 37.6953Z" fill="#000000" fill-opacity="0.85"/>
 </g>
</svg>
