<?xml version="1.0" encoding="UTF-8"?>
<!--Generator: Apple Native CoreSVG 232.5-->
<!DOCTYPE svg
PUBLIC "-//W3C//DTD SVG 1.1//EN"
       "http://www.w3.org/Graphics/SVG/1.1/DTD/svg11.dtd">
<svg version="1.1" xmlns="http://www.w3.org/2000/svg" xmlns:xlink="http://www.w3.org/1999/xlink" width="99.6094" height="99.6582">
 <g>
  <rect height="99.6582" opacity="0" width="99.6094" x="0" y="0"/>
  <path d="M49.8047 99.6094C77.0508 99.6094 99.6094 77.002 99.6094 49.8047C99.6094 22.5586 77.002 0 49.7559 0C22.5586 0 0 22.5586 0 49.8047C0 77.002 22.6074 99.6094 49.8047 99.6094ZM49.8047 91.3086C26.7578 91.3086 8.34961 72.8516 8.34961 49.8047C8.34961 26.7578 26.709 8.30078 49.7559 8.30078C72.8027 8.30078 91.3086 26.7578 91.3086 49.8047C91.3086 72.8516 72.8516 91.3086 49.8047 91.3086Z" fill="#000000" fill-opacity="0.85"/>
  <path d="M52.2949 73.0469C54.7852 73.0469 56.2012 71.3867 56.2012 68.6523L56.2012 30.957C56.2012 28.125 54.6875 26.5625 52.0996 26.5625C50.293 26.5625 49.0234 27.0508 46.9238 28.4668L38.1348 34.4238C37.0605 35.1562 36.6211 35.9375 36.6211 37.1582C36.6211 38.6719 37.8418 40.0879 39.4043 40.0879C40.1367 40.0879 40.6738 39.9414 41.7969 39.209L48.0957 35.0586L48.4375 35.0586L48.4375 68.6523C48.4375 71.3867 49.8535 73.0469 52.2949 73.0469Z" fill="#000000" fill-opacity="0.85"/>
 </g>
</svg>
