<?xml version="1.0" encoding="UTF-8"?>
<!--Generator: Apple Native CoreSVG 232.5-->
<!DOCTYPE svg
PUBLIC "-//W3C//DTD SVG 1.1//EN"
       "http://www.w3.org/Graphics/SVG/1.1/DTD/svg11.dtd">
<svg version="1.1" xmlns="http://www.w3.org/2000/svg" xmlns:xlink="http://www.w3.org/1999/xlink" width="99.6094" height="99.6582">
 <g>
  <rect height="99.6582" opacity="0" width="99.6094" x="0" y="0"/>
  <path d="M99.6094 49.8047C99.6094 77.002 77.0508 99.6094 49.8047 99.6094C22.6074 99.6094 0 77.002 0 49.8047C0 22.5586 22.5586 0 49.7559 0C77.002 0 99.6094 22.5586 99.6094 49.8047ZM46.9727 27.7832L37.8906 33.9355C36.8164 34.7656 36.3281 35.498 36.3281 36.7676C36.3281 38.3301 37.5977 39.7949 39.209 39.7949C39.9902 39.7949 40.5273 39.6973 41.6992 38.916L48.1934 34.6191L48.5352 34.6191L48.5352 69.2383C48.5352 72.0703 50 73.7793 52.5391 73.7793C55.127 73.7793 56.5918 72.0703 56.5918 69.2383L56.5918 30.3711C56.5918 27.4414 55.0293 25.8301 52.3438 25.8301C50.4395 25.8301 49.1211 26.3184 46.9727 27.7832Z" fill="#000000" fill-opacity="0.85"/>
 </g>
</svg>
