<?xml version="1.0" encoding="UTF-8"?>
<!--Generator: Apple Native CoreSVG 232.5-->
<!DOCTYPE svg
PUBLIC "-//W3C//DTD SVG 1.1//EN"
       "http://www.w3.org/Graphics/SVG/1.1/DTD/svg11.dtd">
<svg version="1.1" xmlns="http://www.w3.org/2000/svg" xmlns:xlink="http://www.w3.org/1999/xlink" width="95.4102" height="96.3379">
 <g>
  <rect height="96.3379" opacity="0" width="95.4102" x="0" y="0"/>
  <path d="M0 38.9648C0 60.4492 17.4805 77.9297 38.9648 77.9297C47.4609 77.9297 55.2246 75.1953 61.6211 70.6055L85.6445 94.6777C86.7676 95.8008 88.2324 96.3379 89.7949 96.3379C93.1152 96.3379 95.4102 93.8477 95.4102 90.5762C95.4102 89.0137 94.8242 87.5977 93.7988 86.5723L69.9219 62.5488C74.9512 56.0059 77.9297 47.8516 77.9297 38.9648C77.9297 17.4805 60.4492 0 38.9648 0C17.4805 0 0 17.4805 0 38.9648ZM8.34961 38.9648C8.34961 22.0703 22.0703 8.34961 38.9648 8.34961C55.8594 8.34961 69.5801 22.0703 69.5801 38.9648C69.5801 55.8594 55.8594 69.5801 38.9648 69.5801C22.0703 69.5801 8.34961 55.8594 8.34961 38.9648ZM41.0645 57.1289C43.0664 57.1289 44.4824 56.25 44.4824 54.1016L44.4824 24.1211C44.4824 21.8262 42.9688 20.2637 40.5762 20.2637C38.8672 20.2637 37.8906 20.6543 35.9863 21.9727L29.4434 26.5625C28.125 27.4414 27.7344 28.2227 27.7344 29.4434C27.7344 30.9082 29.0039 32.0801 30.3223 32.0801C31.25 32.0801 31.6895 31.7871 32.5195 31.2012L37.3535 27.7832L37.6953 27.7832L37.6953 53.6133C37.6953 55.8105 39.0625 57.1289 41.0645 57.1289Z" fill="#000000" fill-opacity="0.85"/>
 </g>
</svg>
