<?xml version="1.0" encoding="UTF-8"?>
<!--Generator: Apple Native CoreSVG 232.5-->
<!DOCTYPE svg
PUBLIC "-//W3C//DTD SVG 1.1//EN"
       "http://www.w3.org/Graphics/SVG/1.1/DTD/svg11.dtd">
<svg version="1.1" xmlns="http://www.w3.org/2000/svg" xmlns:xlink="http://www.w3.org/1999/xlink" width="99.6094" height="99.6582">
 <g>
  <rect height="99.6582" opacity="0" width="99.6094" x="0" y="0"/>
  <path d="M49.8047 99.6094C77.0508 99.6094 99.6094 77.002 99.6094 49.8047C99.6094 22.5586 77.002 0 49.7559 0C22.5586 0 0 22.5586 0 49.8047C0 77.002 22.6074 99.6094 49.8047 99.6094ZM49.8047 91.3086C26.7578 91.3086 8.34961 72.8516 8.34961 49.8047C8.34961 26.7578 26.709 8.30078 49.7559 8.30078C72.8027 8.30078 91.3086 26.7578 91.3086 49.8047C91.3086 72.8516 72.8516 91.3086 49.8047 91.3086Z" fill="#000000" fill-opacity="0.85"/>
  <path d="M36.8652 70.0684C38.7695 70.0684 40.3809 68.457 40.3809 66.5039L40.3809 33.3984C40.3809 30.9082 38.8184 29.4434 36.3281 29.4434C34.2773 29.4434 32.6172 30.5664 31.4453 31.4453L26.0742 35.5957C25.2441 36.2793 24.5605 37.207 24.5605 38.4766C24.5605 39.9902 25.5859 41.0645 27.0508 41.0645C27.832 41.0645 28.3203 40.8203 28.8086 40.4785L33.3008 36.8652L33.3008 66.5039C33.3008 68.457 34.9121 70.0684 36.8652 70.0684ZM60.791 70.5566C70.5078 70.5566 73.4375 59.6191 73.4375 49.8047C73.4375 39.9902 70.5078 29.0527 60.791 29.0527C51.0742 29.0527 48.1445 39.9902 48.1445 49.8047C48.1445 59.6191 51.0742 70.5566 60.791 70.5566ZM60.791 64.7461C56.7871 64.7461 55.2734 58.252 55.2734 49.8047C55.2734 41.3086 56.7871 34.8145 60.791 34.8145C64.7949 34.8145 66.3086 41.3086 66.3086 49.8047C66.3086 58.252 64.7949 64.7461 60.791 64.7461Z" fill="#000000" fill-opacity="0.85"/>
 </g>
</svg>
