<?xml version="1.0" encoding="UTF-8"?>
<!--Generator: Apple Native CoreSVG 232.5-->
<!DOCTYPE svg
PUBLIC "-//W3C//DTD SVG 1.1//EN"
       "http://www.w3.org/Graphics/SVG/1.1/DTD/svg11.dtd">
<svg version="1.1" xmlns="http://www.w3.org/2000/svg" xmlns:xlink="http://www.w3.org/1999/xlink" width="99.6094" height="99.6582">
 <g>
  <rect height="99.6582" opacity="0" width="99.6094" x="0" y="0"/>
  <path d="M99.6094 49.8047C99.6094 77.002 77.0508 99.6094 49.8047 99.6094C22.6074 99.6094 0 77.002 0 49.8047C0 22.5586 22.5586 0 49.7559 0C77.002 0 99.6094 22.5586 99.6094 49.8047ZM48.1934 49.8047C48.1934 59.9609 51.2207 71.1914 61.2305 71.1914C71.2402 71.1914 74.2676 59.9609 74.2676 49.8047C74.2676 39.6484 71.2402 28.418 61.2305 28.418C51.2207 28.418 48.1934 39.6484 48.1934 49.8047ZM30.9082 30.8594L25.3906 35.1562C24.5117 35.8398 23.8281 36.8164 23.8281 38.1348C23.8281 39.6973 24.8535 40.8203 26.3672 40.8203C27.1973 40.8203 27.6855 40.5762 28.2227 40.1855L32.8125 36.4746L32.8125 66.9922C32.8125 69.043 34.4727 70.7031 36.5234 70.7031C38.4766 70.7031 40.1855 69.043 40.1855 66.9922L40.1855 32.9102C40.1855 30.3223 38.5254 28.8086 35.9863 28.8086C33.8379 28.8086 32.1289 29.9805 30.9082 30.8594ZM66.8945 49.8047C66.8945 58.5449 65.332 65.1855 61.2305 65.1855C57.1289 65.1855 55.5664 58.5449 55.5664 49.8047C55.5664 41.0156 57.1289 34.4238 61.2305 34.4238C65.332 34.4238 66.8945 41.0156 66.8945 49.8047Z" fill="#000000" fill-opacity="0.85"/>
 </g>
</svg>
