<?xml version="1.0" encoding="UTF-8"?>
<!--Generator: Apple Native CoreSVG 232.5-->
<!DOCTYPE svg
PUBLIC "-//W3C//DTD SVG 1.1//EN"
       "http://www.w3.org/Graphics/SVG/1.1/DTD/svg11.dtd">
<svg version="1.1" xmlns="http://www.w3.org/2000/svg" xmlns:xlink="http://www.w3.org/1999/xlink" width="89.8926" height="73.6816">
 <g>
  <rect height="73.6816" opacity="0" width="89.8926" x="0" y="0"/>
  <path d="M0 69.7266C0 71.875 1.75781 73.6816 3.90625 73.6816C6.10352 73.6816 7.86133 71.875 7.86133 69.7266L7.86133 4.00391C7.86133 1.85547 6.10352 0.0976562 3.90625 0.0976562C1.75781 0.0976562 0 1.85547 0 4.00391ZM82.0312 69.7266C82.0312 71.875 83.8379 73.6816 85.9863 73.6816C88.1348 73.6816 89.8926 71.875 89.8926 69.7266L89.8926 4.00391C89.8926 1.85547 88.1348 0.0976562 85.9863 0.0976562C83.8379 0.0976562 82.0312 1.85547 82.0312 4.00391Z" fill="#000000" fill-opacity="0.85"/>
  <path d="M31.2012 58.0566C33.4473 58.0566 34.8145 56.4941 34.8145 54.248L34.8145 21.5332C34.8145 18.9941 33.2031 17.4805 30.6152 17.4805C28.5645 17.4805 27.0996 18.4082 25.4395 19.6289L19.5801 23.9746C18.6035 24.7559 17.9688 25.5859 17.9688 26.8555C17.9688 28.3691 19.043 29.4922 20.5078 29.4922C21.2402 29.4922 21.7773 29.2969 22.3633 28.8574L27.4902 25L27.5879 25L27.5879 54.248C27.5879 56.4941 28.9551 58.0566 31.2012 58.0566ZM57.3242 58.4473C67.5293 58.4473 71.1426 47.9492 71.1426 37.6953C71.1426 27.5391 67.5293 17.1387 57.3242 17.1387C47.1191 17.1387 43.5547 27.5879 43.5547 37.7441C43.5547 47.998 47.168 58.4473 57.3242 58.4473ZM57.3242 52.5879C53.0273 52.5879 50.8301 46.1914 50.8301 37.7441C50.8301 29.3457 53.0273 22.998 57.3242 22.998C61.6699 22.998 63.8184 29.3945 63.8184 37.7441C63.8184 46.1914 61.6699 52.5879 57.3242 52.5879Z" fill="#000000" fill-opacity="0.85"/>
 </g>
</svg>
