<?xml version="1.0" encoding="UTF-8"?>
<!--Generator: Apple Native CoreSVG 232.5-->
<!DOCTYPE svg
PUBLIC "-//W3C//DTD SVG 1.1//EN"
       "http://www.w3.org/Graphics/SVG/1.1/DTD/svg11.dtd">
<svg version="1.1" xmlns="http://www.w3.org/2000/svg" xmlns:xlink="http://www.w3.org/1999/xlink" width="89.8926" height="89.9902">
 <g>
  <rect height="89.9902" opacity="0" width="89.8926" x="0" y="0"/>
  <path d="M89.8926 15.2344L89.8926 74.8535C89.8926 84.9121 84.8145 89.9902 74.5605 89.9902L15.332 89.9902C5.12695 89.9902 0 84.9609 0 74.8535L0 15.2344C0 5.12695 5.12695 0.0976562 15.332 0.0976562L74.5605 0.0976562C84.8145 0.0976562 89.8926 5.17578 89.8926 15.2344ZM43.3594 44.9707C43.3594 55.127 46.3867 66.3574 56.3965 66.3574C66.4062 66.3574 69.4336 55.127 69.4336 44.9707C69.4336 34.8145 66.4062 23.584 56.3965 23.584C46.3867 23.584 43.3594 34.8145 43.3594 44.9707ZM26.0742 26.0254L20.5566 30.3223C19.6777 31.0059 18.9941 31.9824 18.9941 33.3008C18.9941 34.8633 20.0195 35.9863 21.5332 35.9863C22.3633 35.9863 22.8516 35.7422 23.3887 35.3516L27.9785 31.6406L27.9785 62.1582C27.9785 64.209 29.6387 65.8691 31.6895 65.8691C33.6914 65.8691 35.4004 64.209 35.4004 62.1582L35.4004 28.0762C35.4004 25.4883 33.7402 23.9746 31.1523 23.9746C29.0039 23.9746 27.2949 25.1465 26.0742 26.0254ZM62.0605 44.9707C62.0605 53.7109 60.498 60.3516 56.3965 60.3516C52.2949 60.3516 50.7324 53.7109 50.7324 44.9707C50.7324 36.1816 52.2949 29.5898 56.3965 29.5898C60.498 29.5898 62.0605 36.1816 62.0605 44.9707Z" fill="#000000" fill-opacity="0.85"/>
 </g>
</svg>
