<?xml version="1.0" encoding="UTF-8"?>
<!--Generator: Apple Native CoreSVG 232.5-->
<!DOCTYPE svg
PUBLIC "-//W3C//DTD SVG 1.1//EN"
       "http://www.w3.org/Graphics/SVG/1.1/DTD/svg11.dtd">
<svg version="1.1" xmlns="http://www.w3.org/2000/svg" xmlns:xlink="http://www.w3.org/1999/xlink" width="99.6094" height="99.6582">
 <g>
  <rect height="99.6582" opacity="0" width="99.6094" x="0" y="0"/>
  <path d="M49.8047 99.6094C77.0508 99.6094 99.6094 77.002 99.6094 49.8047C99.6094 22.5586 77.002 0 49.7559 0C22.5586 0 0 22.5586 0 49.8047C0 77.002 22.6074 99.6094 49.8047 99.6094ZM49.8047 91.3086C26.7578 91.3086 8.34961 72.8516 8.34961 49.8047C8.34961 26.7578 26.709 8.30078 49.7559 8.30078C72.8027 8.30078 91.3086 26.7578 91.3086 49.8047C91.3086 72.8516 72.8516 91.3086 49.8047 91.3086Z" fill="#000000" fill-opacity="0.85"/>
  <path d="M40.0391 70.0684C41.9434 70.0684 43.5547 68.457 43.5547 66.5039L43.5547 33.3984C43.5547 30.9082 41.9922 29.4434 39.4531 29.4434C37.4023 29.4434 35.7422 30.5664 34.6191 31.4453L29.248 35.5957C28.3691 36.2793 27.6855 37.207 27.6855 38.4766C27.6855 39.9902 28.7109 41.0645 30.2246 41.0645C30.957 41.0645 31.4453 40.8203 31.9336 40.4785L36.4258 36.8652L36.4258 66.5039C36.4258 68.457 38.0371 70.0684 40.0391 70.0684ZM62.5488 70.0684C64.4531 70.0684 66.0645 68.457 66.0645 66.5039L66.0645 33.3984C66.0645 30.9082 64.502 29.4434 61.9629 29.4434C59.9121 29.4434 58.252 30.5664 57.1289 31.4453L51.7578 35.5957C50.8789 36.2793 50.1953 37.207 50.1953 38.4766C50.1953 39.9902 51.2207 41.0645 52.6855 41.0645C53.4668 41.0645 53.9551 40.8203 54.4434 40.4785L58.9355 36.8652L58.9355 66.5039C58.9355 68.457 60.5469 70.0684 62.5488 70.0684Z" fill="#000000" fill-opacity="0.85"/>
 </g>
</svg>
