<?xml version="1.0" encoding="UTF-8"?>
<!--Generator: Apple Native CoreSVG 232.5-->
<!DOCTYPE svg
PUBLIC "-//W3C//DTD SVG 1.1//EN"
       "http://www.w3.org/Graphics/SVG/1.1/DTD/svg11.dtd">
<svg version="1.1" xmlns="http://www.w3.org/2000/svg" xmlns:xlink="http://www.w3.org/1999/xlink" width="89.8926" height="73.6816">
 <g>
  <rect height="73.6816" opacity="0" width="89.8926" x="0" y="0"/>
  <path d="M0 69.7266C0 71.875 1.75781 73.6816 3.90625 73.6816C6.10352 73.6816 7.86133 71.875 7.86133 69.7266L7.86133 4.00391C7.86133 1.85547 6.10352 0.0976562 3.90625 0.0976562C1.75781 0.0976562 0 1.85547 0 4.00391ZM82.0312 69.7266C82.0312 71.875 83.8379 73.6816 85.9863 73.6816C88.1348 73.6816 89.8926 71.875 89.8926 69.7266L89.8926 4.00391C89.8926 1.85547 88.1348 0.0976562 85.9863 0.0976562C83.8379 0.0976562 82.0312 1.85547 82.0312 4.00391Z" fill="#000000" fill-opacity="0.85"/>
  <path d="M35.7422 58.0566C37.9395 58.0566 39.3555 56.4941 39.3555 54.248L39.3555 21.5332C39.3555 18.9941 37.7441 17.4805 35.1562 17.4805C33.1055 17.4805 31.6406 18.4082 29.9805 19.6289L24.1211 23.9746C23.1445 24.7559 22.5098 25.5859 22.5098 26.8555C22.5098 28.3691 23.584 29.4922 25.0488 29.4922C25.7812 29.4922 26.3184 29.2969 26.9043 28.8574L32.0312 25L32.1289 25L32.1289 54.248C32.1289 56.4941 33.4961 58.0566 35.7422 58.0566ZM60.3516 58.0566C62.5488 58.0566 63.916 56.4941 63.916 54.248L63.916 21.5332C63.916 18.9941 62.3535 17.4805 59.7656 17.4805C57.7148 17.4805 56.25 18.4082 54.5898 19.6289L48.7305 23.9746C47.7539 24.7559 47.1191 25.5859 47.1191 26.8555C47.1191 28.3691 48.1934 29.4922 49.6582 29.4922C50.3906 29.4922 50.9277 29.2969 51.5137 28.8574L56.6406 25L56.7383 25L56.7383 54.248C56.7383 56.4941 58.1055 58.0566 60.3516 58.0566Z" fill="#000000" fill-opacity="0.85"/>
 </g>
</svg>
