<?xml version="1.0" encoding="UTF-8"?>
<!--Generator: Apple Native CoreSVG 232.5-->
<!DOCTYPE svg
PUBLIC "-//W3C//DTD SVG 1.1//EN"
       "http://www.w3.org/Graphics/SVG/1.1/DTD/svg11.dtd">
<svg version="1.1" xmlns="http://www.w3.org/2000/svg" xmlns:xlink="http://www.w3.org/1999/xlink" width="89.8926" height="89.9902">
 <g>
  <rect height="89.9902" opacity="0" width="89.8926" x="0" y="0"/>
  <path d="M89.8926 15.2344L89.8926 74.8535C89.8926 84.9121 84.8145 89.9902 74.5605 89.9902L15.332 89.9902C5.12695 89.9902 0 84.9609 0 74.8535L0 15.2344C0 5.12695 5.12695 0.0976562 15.332 0.0976562L74.5605 0.0976562C84.8145 0.0976562 89.8926 5.17578 89.8926 15.2344ZM29.3945 26.0254L23.877 30.3223C22.9492 31.0059 22.3145 31.9824 22.3145 33.3008C22.3145 34.8633 23.3398 35.9863 24.9023 35.9863C25.6348 35.9863 26.1719 35.7422 26.6602 35.3516L31.2988 31.6406L31.2988 62.1582C31.2988 64.209 32.959 65.8691 35.0098 65.8691C37.0117 65.8691 38.6719 64.209 38.6719 62.1582L38.6719 28.0762C38.6719 25.4883 37.0605 23.9746 34.4238 23.9746C32.3242 23.9746 30.5664 25.1465 29.3945 26.0254ZM52.6367 26.0254L47.1191 30.3223C46.2402 31.0059 45.5078 31.9824 45.5078 33.3008C45.5078 34.8633 46.582 35.9863 48.1445 35.9863C48.877 35.9863 49.4141 35.7422 49.9023 35.3516L54.541 31.6406L54.541 62.1582C54.541 64.209 56.2012 65.8691 58.252 65.8691C60.2539 65.8691 61.9141 64.209 61.9141 62.1582L61.9141 28.0762C61.9141 25.4883 60.3027 23.9746 57.666 23.9746C55.5176 23.9746 53.8086 25.1465 52.6367 26.0254Z" fill="#000000" fill-opacity="0.85"/>
 </g>
</svg>
