<?xml version="1.0" encoding="UTF-8"?>
<!--Generator: Apple Native CoreSVG 232.5-->
<!DOCTYPE svg
PUBLIC "-//W3C//DTD SVG 1.1//EN"
       "http://www.w3.org/Graphics/SVG/1.1/DTD/svg11.dtd">
<svg version="1.1" xmlns="http://www.w3.org/2000/svg" xmlns:xlink="http://www.w3.org/1999/xlink" width="89.8926" height="89.9902">
 <g>
  <rect height="89.9902" opacity="0" width="89.8926" x="0" y="0"/>
  <path d="M15.332 89.9902L74.5605 89.9902C84.8145 89.9902 89.8926 84.9121 89.8926 74.8535L89.8926 15.2344C89.8926 5.17578 84.8145 0.0976562 74.5605 0.0976562L15.332 0.0976562C5.12695 0.0976562 0 5.12695 0 15.2344L0 74.8535C0 84.9609 5.12695 89.9902 15.332 89.9902ZM15.4297 82.1289C10.5469 82.1289 7.86133 79.541 7.86133 74.4629L7.86133 15.625C7.86133 10.5469 10.5469 7.95898 15.4297 7.95898L74.4629 7.95898C79.2969 7.95898 82.0312 10.5469 82.0312 15.625L82.0312 74.4629C82.0312 79.541 79.2969 82.1289 74.4629 82.1289Z" fill="#000000" fill-opacity="0.85"/>
  <path d="M35.2539 65.2344C37.1582 65.2344 38.7695 63.623 38.7695 61.6699L38.7695 28.5645C38.7695 26.0742 37.207 24.6094 34.668 24.6094C32.666 24.6094 30.957 25.7324 29.834 26.6113L24.4629 30.7617C23.584 31.4453 22.9492 32.373 22.9492 33.6426C22.9492 35.1562 23.9258 36.2305 25.4395 36.2305C26.1719 36.2305 26.6602 35.9863 27.1484 35.6445L31.6406 32.0312L31.6406 61.6699C31.6406 63.623 33.252 65.2344 35.2539 65.2344ZM57.7637 65.2344C59.668 65.2344 61.2793 63.623 61.2793 61.6699L61.2793 28.5645C61.2793 26.0742 59.7168 24.6094 57.1777 24.6094C55.127 24.6094 53.4668 25.7324 52.3438 26.6113L46.9727 30.7617C46.0938 31.4453 45.4102 32.373 45.4102 33.6426C45.4102 35.1562 46.4355 36.2305 47.9492 36.2305C48.6816 36.2305 49.1699 35.9863 49.6582 35.6445L54.1504 32.0312L54.1504 61.6699C54.1504 63.623 55.7617 65.2344 57.7637 65.2344Z" fill="#000000" fill-opacity="0.85"/>
 </g>
</svg>
