<?xml version="1.0" encoding="UTF-8"?>
<!--Generator: Apple Native CoreSVG 232.5-->
<!DOCTYPE svg
PUBLIC "-//W3C//DTD SVG 1.1//EN"
       "http://www.w3.org/Graphics/SVG/1.1/DTD/svg11.dtd">
<svg version="1.1" xmlns="http://www.w3.org/2000/svg" xmlns:xlink="http://www.w3.org/1999/xlink" width="89.8926" height="73.6816">
 <g>
  <rect height="73.6816" opacity="0" width="89.8926" x="0" y="0"/>
  <path d="M0 69.7266C0 71.875 1.75781 73.6816 3.90625 73.6816C6.10352 73.6816 7.86133 71.875 7.86133 69.7266L7.86133 4.00391C7.86133 1.85547 6.10352 0.0976562 3.90625 0.0976562C1.75781 0.0976562 0 1.85547 0 4.00391ZM82.0312 69.7266C82.0312 71.875 83.8379 73.6816 85.9863 73.6816C88.1348 73.6816 89.8926 71.875 89.8926 69.7266L89.8926 4.00391C89.8926 1.85547 88.1348 0.0976562 85.9863 0.0976562C83.8379 0.0976562 82.0312 1.85547 82.0312 4.00391Z" fill="#000000" fill-opacity="0.85"/>
  <path d="M32.5684 58.0566C34.8145 58.0566 36.1816 56.4941 36.1816 54.248L36.1816 21.5332C36.1816 18.9941 34.6191 17.4805 32.0312 17.4805C29.9805 17.4805 28.5156 18.4082 26.8555 19.6289L20.9961 23.9746C19.9707 24.7559 19.3848 25.5859 19.3848 26.8555C19.3848 28.3691 20.4102 29.4922 21.9238 29.4922C22.6562 29.4922 23.1445 29.2969 23.7305 28.8574L28.9062 25L28.9551 25L28.9551 54.248C28.9551 56.4941 30.3223 58.0566 32.5684 58.0566ZM48.1934 57.959L67.1875 57.959C68.9941 57.959 70.1172 56.8359 70.1172 55.0293C70.1172 53.2227 68.9941 52.1484 67.1875 52.1484L53.9062 52.1484L53.9062 51.7578L61.6211 43.1641C63.4277 41.1133 64.9414 39.3066 66.0645 37.793C68.0176 35.0098 69.1895 32.373 69.1895 29.0039C69.1895 21.875 63.8672 17.5781 56.9336 17.5781C50.9277 17.5781 45.9473 21.7285 45.0195 26.3672C44.9219 26.9043 44.873 27.3926 44.873 27.832C44.873 29.7363 46.0449 30.9082 47.9004 30.9082C49.5117 30.9082 50.4883 30.0781 51.0742 28.5645C51.9531 25.3906 53.8086 23.291 56.8848 23.291C60.3027 23.291 62.207 25.9277 62.207 29.2969C62.207 31.7871 61.377 33.6426 59.9609 35.6934C59.082 36.9141 57.8613 38.4766 56.2988 40.2832L46.7285 51.0742C45.6543 52.1973 44.7754 53.3203 44.7754 54.9805C44.7754 56.3965 45.5566 57.959 48.1934 57.959Z" fill="#000000" fill-opacity="0.85"/>
 </g>
</svg>
