<?xml version="1.0" encoding="UTF-8"?>
<!--Generator: Apple Native CoreSVG 232.5-->
<!DOCTYPE svg
PUBLIC "-//W3C//DTD SVG 1.1//EN"
       "http://www.w3.org/Graphics/SVG/1.1/DTD/svg11.dtd">
<svg version="1.1" xmlns="http://www.w3.org/2000/svg" xmlns:xlink="http://www.w3.org/1999/xlink" width="89.8926" height="89.9902">
 <g>
  <rect height="89.9902" opacity="0" width="89.8926" x="0" y="0"/>
  <path d="M15.332 89.9902L74.5605 89.9902C84.8145 89.9902 89.8926 84.9121 89.8926 74.8535L89.8926 15.2344C89.8926 5.17578 84.8145 0.0976562 74.5605 0.0976562L15.332 0.0976562C5.12695 0.0976562 0 5.12695 0 15.2344L0 74.8535C0 84.9609 5.12695 89.9902 15.332 89.9902ZM15.4297 82.1289C10.5469 82.1289 7.86133 79.541 7.86133 74.4629L7.86133 15.625C7.86133 10.5469 10.5469 7.95898 15.4297 7.95898L74.4629 7.95898C79.2969 7.95898 82.0312 10.5469 82.0312 15.625L82.0312 74.4629C82.0312 79.541 79.2969 82.1289 74.4629 82.1289Z" fill="#000000" fill-opacity="0.85"/>
  <path d="M31.8359 65.2344C33.7402 65.2344 35.3516 63.623 35.3516 61.6699L35.3516 28.5645C35.3516 26.0742 33.7891 24.6094 31.25 24.6094C29.248 24.6094 27.5879 25.7324 26.416 26.6113L21.0449 30.7617C20.166 31.4453 19.5312 32.373 19.5312 33.6426C19.5312 35.1562 20.5566 36.2305 22.0215 36.2305C22.7539 36.2305 23.2422 35.9863 23.7305 35.6445L28.2227 32.0312L28.2227 61.6699C28.2227 63.623 29.834 65.2344 31.8359 65.2344ZM55.0781 65.5762C62.0605 65.5762 67.4805 61.1816 67.4805 53.8574C67.4805 47.8027 63.8672 44.8242 59.7168 44.3848L59.7168 44.2383C64.1602 43.0664 66.3086 39.1113 66.3086 35.0098C66.3086 28.2715 61.2793 24.4141 54.8828 24.4141C49.8535 24.4141 45.5078 27.2461 44.0918 31.5918C43.7988 32.5195 43.7012 33.3984 43.7012 34.2285C43.7012 35.8398 44.7754 37.1094 46.7285 37.1094C48.3887 37.1094 49.3652 36.4746 49.8047 34.7656C50.5859 31.8848 52.1484 30.0781 54.8828 30.0781C58.1055 30.0781 59.668 32.5684 59.668 35.791C59.668 39.3555 57.666 41.9434 54.0039 41.9434L52.832 41.9434C51.1719 41.9434 50.1465 42.9688 50.1465 44.5801C50.1465 46.1914 51.2207 47.1191 52.832 47.1191L54.0527 47.1191C58.2031 47.1191 60.498 49.4141 60.498 53.6621C60.498 57.0312 58.7402 59.9121 55.0781 59.9121C51.5625 59.9121 49.9512 57.5195 49.3652 55.2734C48.877 53.7109 47.8516 52.8809 46.2891 52.8809C44.3359 52.8809 43.0664 54.0527 43.0664 55.957C43.0664 56.8359 43.2129 57.7148 43.457 58.4961C44.873 63.0371 49.8535 65.5762 55.0781 65.5762Z" fill="#000000" fill-opacity="0.85"/>
 </g>
</svg>
