<?xml version="1.0" encoding="UTF-8"?>
<!--Generator: Apple Native CoreSVG 232.5-->
<!DOCTYPE svg
PUBLIC "-//W3C//DTD SVG 1.1//EN"
       "http://www.w3.org/Graphics/SVG/1.1/DTD/svg11.dtd">
<svg version="1.1" xmlns="http://www.w3.org/2000/svg" xmlns:xlink="http://www.w3.org/1999/xlink" width="99.6094" height="99.6582">
 <g>
  <rect height="99.6582" opacity="0" width="99.6094" x="0" y="0"/>
  <path d="M49.8047 99.6094C77.0508 99.6094 99.6094 77.002 99.6094 49.8047C99.6094 22.5586 77.002 0 49.7559 0C22.5586 0 0 22.5586 0 49.8047C0 77.002 22.6074 99.6094 49.8047 99.6094ZM49.8047 91.3086C26.7578 91.3086 8.34961 72.8516 8.34961 49.8047C8.34961 26.7578 26.709 8.30078 49.7559 8.30078C72.8027 8.30078 91.3086 26.7578 91.3086 49.8047C91.3086 72.8516 72.8516 91.3086 49.8047 91.3086Z" fill="#000000" fill-opacity="0.85"/>
  <path d="M35.4492 70.0684C37.4023 70.0684 39.0137 68.457 39.0137 66.5039L39.0137 33.3984C39.0137 30.9082 37.4512 29.4434 34.9121 29.4434C32.8613 29.4434 31.2012 30.5664 30.0293 31.4453L24.6582 35.5957C23.8281 36.2793 23.1445 37.207 23.1445 38.4766C23.1445 39.9902 24.1699 41.0645 25.6348 41.0645C26.416 41.0645 26.9043 40.8203 27.3926 40.4785L31.8848 36.8652L31.8848 66.5039C31.8848 68.457 33.4961 70.0684 35.4492 70.0684ZM64.5996 70.166C66.4551 70.166 67.9688 69.043 67.9688 66.6992L67.9688 61.8164L69.6777 61.8164C71.582 61.8164 72.4609 60.5957 72.4609 58.9355C72.4609 57.373 71.6309 56.1523 69.6777 56.1523L67.9688 56.1523L67.9688 34.7168C67.9688 31.3477 65.7227 29.4434 62.5488 29.4434C59.1309 29.4434 57.5195 31.2012 56.1035 34.2285L47.4121 53.1738C46.582 55.0781 46.2891 56.3477 46.2891 57.8613C46.2891 60.2051 47.9492 61.8164 50.293 61.8164L61.2305 61.8164L61.2305 66.6992C61.2305 69.2871 63.0859 70.166 64.5996 70.166ZM61.377 56.2988L52.2949 56.2988L52.2949 55.957L61.1816 35.5957L61.377 35.5957Z" fill="#000000" fill-opacity="0.85"/>
 </g>
</svg>
