<?xml version="1.0" encoding="UTF-8"?>
<!--Generator: Apple Native CoreSVG 232.5-->
<!DOCTYPE svg
PUBLIC "-//W3C//DTD SVG 1.1//EN"
       "http://www.w3.org/Graphics/SVG/1.1/DTD/svg11.dtd">
<svg version="1.1" xmlns="http://www.w3.org/2000/svg" xmlns:xlink="http://www.w3.org/1999/xlink" width="99.6094" height="99.6582">
 <g>
  <rect height="99.6582" opacity="0" width="99.6094" x="0" y="0"/>
  <path d="M99.6094 49.8047C99.6094 77.002 77.0508 99.6094 49.8047 99.6094C22.6074 99.6094 0 77.002 0 49.8047C0 22.5586 22.5586 0 49.7559 0C77.002 0 99.6094 22.5586 99.6094 49.8047ZM56.3965 33.7402L47.4609 53.2715C46.582 55.2246 46.2891 56.543 46.2891 58.1055C46.2891 60.5469 47.998 62.207 50.4395 62.207L61.7188 62.207L61.7188 67.2363C61.7188 69.873 63.623 70.8008 65.1855 70.8008C67.1387 70.8008 68.6523 69.6289 68.6523 67.2363L68.6523 62.207L70.459 62.207C72.4121 62.207 73.3398 60.9375 73.3398 59.2285C73.3398 57.6172 72.4609 56.3477 70.459 56.3477L68.6523 56.3477L68.6523 34.2773C68.6523 30.7617 66.3574 28.8086 63.0859 28.8086C59.5215 28.8086 57.8613 30.6152 56.3965 33.7402ZM29.4922 30.8594L24.0234 35.1562C23.0957 35.8398 22.3633 36.8164 22.3633 38.1348C22.3633 39.6973 23.4375 40.8203 24.9512 40.8203C25.7812 40.8203 26.2695 40.5762 26.8066 40.1855L31.3965 36.4746L31.3965 66.9922C31.3965 69.043 33.0566 70.7031 35.1074 70.7031C37.1094 70.7031 38.7695 69.043 38.7695 66.9922L38.7695 32.9102C38.7695 30.3223 37.1582 28.8086 34.5215 28.8086C32.4219 28.8086 30.7129 29.9805 29.4922 30.8594ZM61.8652 56.4941L52.5391 56.4941L52.5391 56.1523L61.6699 35.1562L61.8652 35.1562Z" fill="#000000" fill-opacity="0.85"/>
 </g>
</svg>
