<?xml version="1.0" encoding="UTF-8"?>
<!--Generator: Apple Native CoreSVG 232.5-->
<!DOCTYPE svg
PUBLIC "-//W3C//DTD SVG 1.1//EN"
       "http://www.w3.org/Graphics/SVG/1.1/DTD/svg11.dtd">
<svg version="1.1" xmlns="http://www.w3.org/2000/svg" xmlns:xlink="http://www.w3.org/1999/xlink" width="99.6094" height="99.6582">
 <g>
  <rect height="99.6582" opacity="0" width="99.6094" x="0" y="0"/>
  <path d="M49.8047 99.6094C77.0508 99.6094 99.6094 77.002 99.6094 49.8047C99.6094 22.5586 77.002 0 49.7559 0C22.5586 0 0 22.5586 0 49.8047C0 77.002 22.6074 99.6094 49.8047 99.6094ZM49.8047 91.3086C26.7578 91.3086 8.34961 72.8516 8.34961 49.8047C8.34961 26.7578 26.709 8.30078 49.7559 8.30078C72.8027 8.30078 91.3086 26.7578 91.3086 49.8047C91.3086 72.8516 72.8516 91.3086 49.8047 91.3086Z" fill="#000000" fill-opacity="0.85"/>
  <path d="M36.4746 70.0684C38.3789 70.0684 39.9902 68.457 39.9902 66.5039L39.9902 33.3984C39.9902 30.9082 38.4277 29.4434 35.9375 29.4434C33.8867 29.4434 32.2266 30.5664 31.0547 31.4453L25.6836 35.5957C24.8535 36.2793 24.1699 37.207 24.1699 38.4766C24.1699 39.9902 25.1953 41.0645 26.6602 41.0645C27.4414 41.0645 27.8809 40.8203 28.418 40.4785L32.9102 36.8652L32.9102 66.5039C32.9102 68.457 34.5215 70.0684 36.4746 70.0684ZM59.7168 70.5566C67.2852 70.5566 71.4844 64.1602 71.4844 56.4453C71.4844 49.707 68.2617 43.5547 61.9629 43.5547C59.082 43.5547 56.4453 44.873 55.1758 47.7051L54.9316 47.7051L55.7617 35.8398L67.2363 35.8398C68.8965 35.8398 69.9219 34.668 69.9219 32.959C69.9219 31.3477 68.8477 30.0781 67.2363 30.0781L53.8086 30.0781C51.2207 30.0781 50.0977 31.7383 49.9023 34.2773L49.1211 47.6562C49.0723 48.3887 49.0723 49.1699 49.0723 49.8047C49.0723 51.6602 50 53.3203 52.2461 53.3203C53.5645 53.3203 54.3457 52.7832 55.3711 51.4648C56.4941 49.8535 57.7148 48.6816 59.668 48.6816C63.2812 48.6816 64.6484 53.0273 64.6484 56.6406C64.6484 60.6934 63.2324 64.8438 59.6191 64.8438C56.8848 64.8438 55.3223 62.8906 54.4434 60.2051C53.8574 58.6426 52.7832 57.9102 51.4648 57.9102C49.6582 57.9102 48.5352 59.0332 48.5352 60.8398C48.5352 61.9629 48.8281 63.0371 49.2676 64.0137C50.9277 67.9688 55.2734 70.5566 59.7168 70.5566Z" fill="#000000" fill-opacity="0.85"/>
 </g>
</svg>
