<?xml version="1.0" encoding="UTF-8"?>
<!--Generator: Apple Native CoreSVG 232.5-->
<!DOCTYPE svg
PUBLIC "-//W3C//DTD SVG 1.1//EN"
       "http://www.w3.org/Graphics/SVG/1.1/DTD/svg11.dtd">
<svg version="1.1" xmlns="http://www.w3.org/2000/svg" xmlns:xlink="http://www.w3.org/1999/xlink" width="89.8926" height="89.9902">
 <g>
  <rect height="89.9902" opacity="0" width="89.8926" x="0" y="0"/>
  <path d="M89.8926 15.2344L89.8926 74.8535C89.8926 84.9121 84.8145 89.9902 74.5605 89.9902L15.332 89.9902C5.12695 89.9902 0 84.9609 0 74.8535L0 15.2344C0 5.12695 5.12695 0.0976562 15.332 0.0976562L74.5605 0.0976562C84.8145 0.0976562 89.8926 5.17578 89.8926 15.2344ZM49.2188 24.6094C46.582 24.6094 45.4102 26.3184 45.2148 28.9551L44.3848 42.7246C44.3359 43.5059 44.3359 44.2871 44.3359 44.9707C44.3359 46.875 45.3125 48.584 47.6074 48.584C49.0234 48.584 49.8047 48.0469 50.8789 46.6797C52.002 45.0195 53.2715 43.8477 55.2734 43.8477C58.9844 43.8477 60.4004 48.291 60.4004 52.002C60.4004 56.2012 58.9355 60.4492 55.2246 60.4492C52.3926 60.4492 50.8301 58.4473 49.9023 55.6641C49.3164 54.0527 48.1934 53.3203 46.8262 53.3203C44.9707 53.3203 43.7988 54.4922 43.7988 56.3477C43.7988 57.5195 44.0918 58.6426 44.5312 59.6191C46.2891 63.7207 50.7324 66.3574 55.3223 66.3574C63.1348 66.3574 67.4805 59.7656 67.4805 51.8066C67.4805 44.873 64.1602 38.5254 57.666 38.5254C54.6875 38.5254 51.9531 39.8926 50.6836 42.7734L50.4395 42.7734L51.2695 30.5664L63.0859 30.5664C64.7949 30.5664 65.8691 29.3945 65.8691 27.5879C65.8691 25.9277 64.7461 24.6094 63.0859 24.6094ZM25.6836 26.0254L20.166 30.3223C19.3359 31.0059 18.6035 31.9824 18.6035 33.3008C18.6035 34.8633 19.6777 35.9863 21.1914 35.9863C22.0215 35.9863 22.5098 35.7422 22.998 35.3516L27.6367 31.6406L27.6367 62.1582C27.6367 64.209 29.2969 65.8691 31.2988 65.8691C33.3496 65.8691 35.0098 64.209 35.0098 62.1582L35.0098 28.0762C35.0098 25.4883 33.3984 23.9746 30.7617 23.9746C28.6621 23.9746 26.9043 25.1465 25.6836 26.0254Z" fill="#000000" fill-opacity="0.85"/>
 </g>
</svg>
