<?xml version="1.0" encoding="UTF-8"?>
<!--Generator: Apple Native CoreSVG 232.5-->
<!DOCTYPE svg
PUBLIC "-//W3C//DTD SVG 1.1//EN"
       "http://www.w3.org/Graphics/SVG/1.1/DTD/svg11.dtd">
<svg version="1.1" xmlns="http://www.w3.org/2000/svg" xmlns:xlink="http://www.w3.org/1999/xlink" width="99.6094" height="99.6582">
 <g>
  <rect height="99.6582" opacity="0" width="99.6094" x="0" y="0"/>
  <path d="M99.6094 49.8047C99.6094 77.002 77.0508 99.6094 49.8047 99.6094C22.6074 99.6094 0 77.002 0 49.8047C0 22.5586 22.5586 0 49.7559 0C77.002 0 99.6094 22.5586 99.6094 49.8047ZM47.3145 50.293C47.3145 59.8145 50.3418 71.1914 60.5469 71.1914C68.2129 71.1914 72.6562 64.7461 72.6562 56.8359C72.6562 50.0488 69.3848 43.6035 62.6953 43.6035C58.6426 43.6035 55.5664 46.3379 54.3945 50.6348L54.1992 50.6348C54.1992 50.4395 54.1992 50.2441 54.1992 50.0977C54.1992 44.5312 54.8828 34.4238 60.4492 34.4238C62.793 34.4238 64.2578 36.0352 65.1367 38.1348C65.8203 39.6973 66.7969 40.3809 68.4082 40.3809C70.5078 40.3809 71.3379 39.0137 71.3379 37.3535C71.3379 36.8164 71.2402 36.1816 71.0938 35.5469C70.0684 31.2012 65.6738 28.5156 60.5957 28.5156C50.293 28.5156 47.3145 40.0879 47.3145 50.293ZM29.9316 30.8594L24.4141 35.1562C23.4863 35.8398 22.8027 36.8164 22.8027 38.1348C22.8027 39.6973 23.877 40.8203 25.3906 40.8203C26.1719 40.8203 26.709 40.5762 27.1973 40.1855L31.7871 36.4746L31.7871 66.9922C31.7871 69.043 33.4961 70.7031 35.498 70.7031C37.5488 70.7031 39.209 69.043 39.209 66.9922L39.209 32.9102C39.209 30.3223 37.5977 28.8086 34.9609 28.8086C32.8125 28.8086 31.1035 29.9805 29.9316 30.8594ZM65.5762 57.1777C65.5762 60.8398 63.9648 65.2832 60.4492 65.2832C56.6406 65.2832 55.127 60.5469 55.127 56.9336C55.127 53.2715 56.7871 49.1211 60.4004 49.1211C64.1602 49.1211 65.6738 53.4668 65.5762 57.1777Z" fill="#000000" fill-opacity="0.85"/>
 </g>
</svg>
