<?xml version="1.0" encoding="UTF-8"?>
<!--Generator: Apple Native CoreSVG 232.5-->
<!DOCTYPE svg
PUBLIC "-//W3C//DTD SVG 1.1//EN"
       "http://www.w3.org/Graphics/SVG/1.1/DTD/svg11.dtd">
<svg version="1.1" xmlns="http://www.w3.org/2000/svg" xmlns:xlink="http://www.w3.org/1999/xlink" width="99.6094" height="99.6582">
 <g>
  <rect height="99.6582" opacity="0" width="99.6094" x="0" y="0"/>
  <path d="M49.8047 99.6094C77.0508 99.6094 99.6094 77.002 99.6094 49.8047C99.6094 22.5586 77.002 0 49.7559 0C22.5586 0 0 22.5586 0 49.8047C0 77.002 22.6074 99.6094 49.8047 99.6094ZM49.8047 91.3086C26.7578 91.3086 8.34961 72.8516 8.34961 49.8047C8.34961 26.7578 26.709 8.30078 49.7559 8.30078C72.8027 8.30078 91.3086 26.7578 91.3086 49.8047C91.3086 72.8516 72.8516 91.3086 49.8047 91.3086Z" fill="#000000" fill-opacity="0.85"/>
  <path d="M35.8398 70.0684C37.793 70.0684 39.4043 68.457 39.4043 66.5039L39.4043 33.3984C39.4043 30.9082 37.8418 29.4434 35.3027 29.4434C33.252 29.4434 31.5918 30.5664 30.4688 31.4453L25.0977 35.5957C24.2188 36.2793 23.5352 37.207 23.5352 38.4766C23.5352 39.9902 24.5605 41.0645 26.0254 41.0645C26.8066 41.0645 27.2949 40.8203 27.7832 40.4785L32.2754 36.8652L32.2754 66.5039C32.2754 68.457 33.8867 70.0684 35.8398 70.0684ZM60.1074 70.5566C67.5293 70.5566 71.8262 64.3066 71.8262 56.6406C71.8262 50.0488 68.6523 43.7988 62.1582 43.7988C58.2031 43.7988 55.2246 46.4355 54.1016 50.6348L53.9062 50.6348C53.9062 50.4395 53.9062 50.2441 53.9062 50.0977C53.9062 44.6777 54.5898 34.8633 60.0098 34.8633C62.2559 34.8633 63.7207 36.4258 64.5508 38.4766C65.2344 39.9902 66.1621 40.6738 67.7246 40.6738C69.7266 40.6738 70.5566 39.3555 70.5566 37.7441C70.5566 37.207 70.459 36.6211 70.3125 35.9863C69.2871 31.7871 65.0391 29.1504 60.1562 29.1504C50.1465 29.1504 47.2656 40.3809 47.2656 50.293C47.2656 59.5215 50.1953 70.5566 60.1074 70.5566ZM60.0098 64.8438C56.2988 64.8438 54.834 60.2539 54.834 56.7383C54.834 53.1738 56.4453 49.1211 60.0098 49.1211C63.623 49.1211 65.0879 53.3203 64.9902 56.9336C64.9902 60.498 63.4277 64.8438 60.0098 64.8438Z" fill="#000000" fill-opacity="0.85"/>
 </g>
</svg>
