<?xml version="1.0" encoding="UTF-8"?>
<!--Generator: Apple Native CoreSVG 232.5-->
<!DOCTYPE svg
PUBLIC "-//W3C//DTD SVG 1.1//EN"
       "http://www.w3.org/Graphics/SVG/1.1/DTD/svg11.dtd">
<svg version="1.1" xmlns="http://www.w3.org/2000/svg" xmlns:xlink="http://www.w3.org/1999/xlink" width="89.8926" height="89.9902">
 <g>
  <rect height="89.9902" opacity="0" width="89.8926" x="0" y="0"/>
  <path d="M89.8926 15.2344L89.8926 74.8535C89.8926 84.9121 84.8145 89.9902 74.5605 89.9902L15.332 89.9902C5.12695 89.9902 0 84.9609 0 74.8535L0 15.2344C0 5.12695 5.12695 0.0976562 15.332 0.0976562L74.5605 0.0976562C84.8145 0.0976562 89.8926 5.17578 89.8926 15.2344ZM42.4805 45.459C42.4805 54.9805 45.5078 66.3574 55.7129 66.3574C63.3789 66.3574 67.8223 59.9121 67.8223 52.002C67.8223 45.2148 64.5508 38.7695 57.8613 38.7695C53.8086 38.7695 50.7324 41.5039 49.5605 45.8008L49.3652 45.8008C49.3652 45.6055 49.3652 45.4102 49.3652 45.2637C49.3652 39.6973 50.0488 29.5898 55.6152 29.5898C57.959 29.5898 59.4238 31.2012 60.3027 33.3008C60.9863 34.8633 61.9629 35.5469 63.623 35.5469C65.6738 35.5469 66.5039 34.1797 66.5039 32.5195C66.5039 31.9824 66.4551 31.3477 66.2598 30.7129C65.2344 26.3672 60.8887 23.6816 55.7617 23.6816C45.459 23.6816 42.4805 35.2539 42.4805 45.459ZM25.0977 26.0254L19.5801 30.3223C18.6523 31.0059 17.9688 31.9824 17.9688 33.3008C17.9688 34.8633 19.043 35.9863 20.5566 35.9863C21.3379 35.9863 21.875 35.7422 22.3633 35.3516L26.9531 31.6406L26.9531 62.1582C26.9531 64.209 28.6621 65.8691 30.7129 65.8691C32.7148 65.8691 34.375 64.209 34.375 62.1582L34.375 28.0762C34.375 25.4883 32.7637 23.9746 30.127 23.9746C27.9785 23.9746 26.2695 25.1465 25.0977 26.0254ZM60.791 52.3438C60.791 56.0059 59.1309 60.4492 55.6152 60.4492C51.8555 60.4492 50.293 55.7129 50.293 52.0996C50.293 48.4375 52.002 44.2871 55.6152 44.2871C59.3262 44.2871 60.8887 48.6328 60.791 52.3438Z" fill="#000000" fill-opacity="0.85"/>
 </g>
</svg>
