<?xml version="1.0" encoding="UTF-8"?>
<!--Generator: Apple Native CoreSVG 232.5-->
<!DOCTYPE svg
PUBLIC "-//W3C//DTD SVG 1.1//EN"
       "http://www.w3.org/Graphics/SVG/1.1/DTD/svg11.dtd">
<svg version="1.1" xmlns="http://www.w3.org/2000/svg" xmlns:xlink="http://www.w3.org/1999/xlink" width="99.6094" height="99.6582">
 <g>
  <rect height="99.6582" opacity="0" width="99.6094" x="0" y="0"/>
  <path d="M49.8047 99.6094C77.0508 99.6094 99.6094 77.002 99.6094 49.8047C99.6094 22.5586 77.002 0 49.7559 0C22.5586 0 0 22.5586 0 49.8047C0 77.002 22.6074 99.6094 49.8047 99.6094ZM49.8047 91.3086C26.7578 91.3086 8.34961 72.8516 8.34961 49.8047C8.34961 26.7578 26.709 8.30078 49.7559 8.30078C72.8027 8.30078 91.3086 26.7578 91.3086 49.8047C91.3086 72.8516 72.8516 91.3086 49.8047 91.3086Z" fill="#000000" fill-opacity="0.85"/>
  <path d="M36.5234 70.0684C38.4277 70.0684 40.0391 68.457 40.0391 66.5039L40.0391 33.3984C40.0391 30.9082 38.4766 29.4434 35.9375 29.4434C33.9355 29.4434 32.2754 30.5664 31.1035 31.4453L25.7324 35.5957C24.8535 36.2793 24.2188 37.207 24.2188 38.4766C24.2188 39.9902 25.2441 41.0645 26.709 41.0645C27.4902 41.0645 27.9297 40.8203 28.418 40.4785L32.9102 36.8652L32.9102 66.5039C32.9102 68.457 34.5215 70.0684 36.5234 70.0684ZM60.3027 70.4102C68.0664 70.4102 72.998 65.5762 72.998 58.8867C72.998 53.5645 69.6289 49.707 65.7227 48.8281L65.7227 48.6816C68.9941 47.6562 71.9238 44.4824 71.9238 39.8438C71.9238 33.5449 67.2363 29.248 60.3027 29.248C54.2969 29.248 48.8281 32.959 48.8281 39.7949C48.8281 44.7754 51.9043 47.7051 55.0781 48.6816L55.0781 48.8281C50.8789 49.7559 47.7051 53.6133 47.7051 58.8867C47.7051 66.1133 53.1738 70.4102 60.3027 70.4102ZM60.3516 46.4355C57.2266 46.4355 55.6152 43.4082 55.6152 40.5273C55.6152 37.4023 57.3242 34.4727 60.3516 34.4727C63.5254 34.4727 65.0391 37.4023 65.0391 40.5273C65.0391 43.75 63.4277 46.4355 60.3516 46.4355ZM60.3516 65.1367C56.7871 65.1367 55.0293 61.9629 55.0293 58.3496C55.0293 54.834 56.7871 51.709 60.3516 51.709C63.8184 51.709 65.6738 54.6387 65.6738 58.3496C65.6738 61.9629 63.916 65.1367 60.3516 65.1367Z" fill="#000000" fill-opacity="0.85"/>
 </g>
</svg>
