<?xml version="1.0" encoding="UTF-8"?>
<!--Generator: Apple Native CoreSVG 232.5-->
<!DOCTYPE svg
PUBLIC "-//W3C//DTD SVG 1.1//EN"
       "http://www.w3.org/Graphics/SVG/1.1/DTD/svg11.dtd">
<svg version="1.1" xmlns="http://www.w3.org/2000/svg" xmlns:xlink="http://www.w3.org/1999/xlink" width="99.6094" height="99.6582">
 <g>
  <rect height="99.6582" opacity="0" width="99.6094" x="0" y="0"/>
  <path d="M99.6094 49.8047C99.6094 77.002 77.0508 99.6094 49.8047 99.6094C22.6074 99.6094 0 77.002 0 49.8047C0 22.5586 22.5586 0 49.7559 0C77.002 0 99.6094 22.5586 99.6094 49.8047ZM48.877 39.502C48.877 44.6289 52.0508 47.6562 55.3223 48.6328L55.3223 48.7793C51.0254 49.7559 47.7051 53.7109 47.7051 59.1797C47.7051 66.6504 53.3691 71.0449 60.7422 71.0449C68.75 71.0449 73.8281 66.0645 73.8281 59.1797C73.8281 53.6621 70.3613 49.707 66.3574 48.7793L66.3574 48.6328C69.7266 47.6074 72.7539 44.3359 72.7539 39.5508C72.7539 33.0078 67.8711 28.6133 60.7422 28.6133C54.541 28.6133 48.877 32.4219 48.877 39.502ZM30.5664 30.8594L25.0488 35.1562C24.1699 35.8398 23.4863 36.8164 23.4863 38.1348C23.4863 39.6973 24.5117 40.8203 26.0254 40.8203C26.8555 40.8203 27.2949 40.5762 27.832 40.1855L32.4219 36.4746L32.4219 66.9922C32.4219 69.043 34.082 70.7031 36.1816 70.7031C38.1348 70.7031 39.8438 69.043 39.8438 66.9922L39.8438 32.9102C39.8438 30.3223 38.1836 28.8086 35.5957 28.8086C33.4961 28.8086 31.7871 29.9805 30.5664 30.8594ZM66.2598 58.5938C66.2598 62.3047 64.4531 65.5762 60.791 65.5762C57.1289 65.5762 55.3223 62.3047 55.3223 58.5938C55.3223 54.9805 57.1289 51.7578 60.791 51.7578C64.3555 51.7578 66.2598 54.7852 66.2598 58.5938ZM65.625 40.2344C65.625 43.5547 63.9648 46.3379 60.791 46.3379C57.5684 46.3379 55.9082 43.2129 55.9082 40.2344C55.9082 37.0117 57.666 34.0332 60.791 34.0332C64.0625 34.0332 65.625 37.0117 65.625 40.2344Z" fill="#000000" fill-opacity="0.85"/>
 </g>
</svg>
