<?xml version="1.0" encoding="UTF-8"?>
<!--Generator: Apple Native CoreSVG 232.5-->
<!DOCTYPE svg
PUBLIC "-//W3C//DTD SVG 1.1//EN"
       "http://www.w3.org/Graphics/SVG/1.1/DTD/svg11.dtd">
<svg version="1.1" xmlns="http://www.w3.org/2000/svg" xmlns:xlink="http://www.w3.org/1999/xlink" width="89.8926" height="89.9902">
 <g>
  <rect height="89.9902" opacity="0" width="89.8926" x="0" y="0"/>
  <path d="M15.332 89.9902L74.5605 89.9902C84.8145 89.9902 89.8926 84.9121 89.8926 74.8535L89.8926 15.2344C89.8926 5.17578 84.8145 0.0976562 74.5605 0.0976562L15.332 0.0976562C5.12695 0.0976562 0 5.12695 0 15.2344L0 74.8535C0 84.9609 5.12695 89.9902 15.332 89.9902ZM15.4297 82.1289C10.5469 82.1289 7.86133 79.541 7.86133 74.4629L7.86133 15.625C7.86133 10.5469 10.5469 7.95898 15.4297 7.95898L74.4629 7.95898C79.2969 7.95898 82.0312 10.5469 82.0312 15.625L82.0312 74.4629C82.0312 79.541 79.2969 82.1289 74.4629 82.1289Z" fill="#000000" fill-opacity="0.85"/>
  <path d="M31.7383 65.2344C33.6426 65.2344 35.3027 63.623 35.3027 61.6699L35.3027 28.5645C35.3027 26.0742 33.6914 24.6094 31.2012 24.6094C29.1504 24.6094 27.4902 25.7324 26.3184 26.6113L20.9473 30.7617C20.1172 31.4453 19.4336 32.373 19.4336 33.6426C19.4336 35.1562 20.459 36.2305 21.9238 36.2305C22.7051 36.2305 23.1934 35.9863 23.6816 35.6445L28.1738 32.0312L28.1738 61.6699C28.1738 63.623 29.7852 65.2344 31.7383 65.2344ZM55.5664 65.5762C63.2812 65.5762 68.2129 60.7422 68.2129 54.0527C68.2129 48.7305 64.8438 44.873 60.9375 43.9941L60.9375 43.8477C64.209 42.8223 67.1387 39.6484 67.1387 35.0098C67.1387 28.7109 62.4512 24.4141 55.5664 24.4141C49.5117 24.4141 44.043 28.125 44.043 34.9609C44.043 39.9414 47.168 42.8711 50.293 43.8477L50.293 43.9941C46.0938 44.9219 42.9199 48.7793 42.9199 54.0527C42.9199 61.2793 48.3887 65.5762 55.5664 65.5762ZM55.5664 41.6016C52.4414 41.6016 50.8301 38.5742 50.8301 35.6934C50.8301 32.5684 52.5391 29.6387 55.5664 29.6387C58.7402 29.6387 60.2539 32.5684 60.2539 35.6934C60.2539 38.916 58.6426 41.6016 55.5664 41.6016ZM55.5664 60.3027C52.002 60.3027 50.2441 57.1289 50.2441 53.5156C50.2441 50 52.0508 46.875 55.5664 46.875C59.0332 46.875 60.8887 49.8047 60.8887 53.5156C60.8887 57.1289 59.1309 60.3027 55.5664 60.3027Z" fill="#000000" fill-opacity="0.85"/>
 </g>
</svg>
