<?xml version="1.0" encoding="UTF-8"?>
<!--Generator: Apple Native CoreSVG 232.5-->
<!DOCTYPE svg
PUBLIC "-//W3C//DTD SVG 1.1//EN"
       "http://www.w3.org/Graphics/SVG/1.1/DTD/svg11.dtd">
<svg version="1.1" xmlns="http://www.w3.org/2000/svg" xmlns:xlink="http://www.w3.org/1999/xlink" width="99.6094" height="99.6582">
 <g>
  <rect height="99.6582" opacity="0" width="99.6094" x="0" y="0"/>
  <path d="M49.8047 99.6094C77.0508 99.6094 99.6094 77.002 99.6094 49.8047C99.6094 22.5586 77.002 0 49.7559 0C22.5586 0 0 22.5586 0 49.8047C0 77.002 22.6074 99.6094 49.8047 99.6094ZM49.8047 91.3086C26.7578 91.3086 8.34961 72.8516 8.34961 49.8047C8.34961 26.7578 26.709 8.30078 49.7559 8.30078C72.8027 8.30078 91.3086 26.7578 91.3086 49.8047C91.3086 72.8516 72.8516 91.3086 49.8047 91.3086Z" fill="#000000" fill-opacity="0.85"/>
  <path d="M36.5234 70.0684C38.4766 70.0684 40.0879 68.457 40.0879 66.5039L40.0879 33.3984C40.0879 30.9082 38.5254 29.4434 35.9863 29.4434C33.9355 29.4434 32.2754 30.5664 31.1523 31.4453L25.7812 35.5957C24.9023 36.2793 24.2188 37.207 24.2188 38.4766C24.2188 39.9902 25.2441 41.0645 26.709 41.0645C27.4902 41.0645 27.9785 40.8203 28.4668 40.4785L32.959 36.8652L32.959 66.5039C32.959 68.457 34.5703 70.0684 36.5234 70.0684ZM57.2266 55.9082C61.1816 55.9082 64.1602 53.2715 65.2832 49.0723L65.4785 49.0723C65.4785 49.2676 65.4785 49.4629 65.4785 49.6094C65.4785 55.0293 64.7949 64.7949 59.3262 64.7949C57.1777 64.7949 55.6641 63.2812 54.834 61.1816C54.1016 59.5703 53.125 58.9355 51.6602 58.9355C49.6582 58.9355 48.7793 60.3027 48.7793 61.9141C48.7793 62.5 48.877 63.0859 49.0234 63.6719C50.0977 67.9199 54.3457 70.5078 59.2285 70.5078C69.2383 70.5078 72.1191 59.4238 72.1191 49.4141C72.1191 40.1855 69.1895 29.1504 59.2773 29.1504C51.8555 29.1504 47.5586 35.4004 47.5586 43.0664C47.5586 49.6582 50.7324 55.9082 57.2266 55.9082ZM59.375 50.5371C55.7617 50.5371 54.3457 46.3867 54.3457 42.7734C54.3457 39.1113 55.957 34.8145 59.375 34.8145C63.0859 34.8145 64.5508 39.1113 64.5508 42.7734C64.5508 46.5332 62.9395 50.5371 59.375 50.5371Z" fill="#000000" fill-opacity="0.85"/>
 </g>
</svg>
