<?xml version="1.0" encoding="UTF-8"?>
<!--Generator: Apple Native CoreSVG 232.5-->
<!DOCTYPE svg
PUBLIC "-//W3C//DTD SVG 1.1//EN"
       "http://www.w3.org/Graphics/SVG/1.1/DTD/svg11.dtd">
<svg version="1.1" xmlns="http://www.w3.org/2000/svg" xmlns:xlink="http://www.w3.org/1999/xlink" width="99.6094" height="99.6582">
 <g>
  <rect height="99.6582" opacity="0" width="99.6094" x="0" y="0"/>
  <path d="M49.8047 99.6094C77.0508 99.6094 99.6094 77.002 99.6094 49.8047C99.6094 22.5586 77.002 0 49.7559 0C22.5586 0 0 22.5586 0 49.8047C0 77.002 22.6074 99.6094 49.8047 99.6094ZM49.8047 91.3086C26.7578 91.3086 8.34961 72.8516 8.34961 49.8047C8.34961 26.7578 26.709 8.30078 49.7559 8.30078C72.8027 8.30078 91.3086 26.7578 91.3086 49.8047C91.3086 72.8516 72.8516 91.3086 49.8047 91.3086Z" fill="#000000" fill-opacity="0.85"/>
  <path d="M38.6719 71.9238L63.7695 71.9238C65.6738 71.9238 67.041 70.7031 67.041 68.75C67.041 66.6992 65.6738 65.5273 63.7695 65.5273L45.9473 65.5273L45.9473 65.1855L57.5684 52.832C61.8652 48.1934 64.8926 44.3359 64.8926 38.916C64.8926 31.4941 58.9355 26.5625 49.9023 26.5625C42.9688 26.5625 36.8652 30.7617 35.2539 36.2305C35.0586 36.9629 35.0098 37.5488 35.0098 38.1836C35.0098 40.0879 36.2793 41.3086 38.1836 41.3086C39.8926 41.3086 40.7715 40.2344 41.6504 38.8672C42.9199 35.8887 45.5078 32.7637 50.2441 32.7637C54.8828 32.7637 57.959 35.4492 57.959 39.502C57.959 43.0664 54.9805 46.0449 52.0996 49.0723L36.4746 65.8203C35.6445 66.748 35.2051 67.7246 35.2051 68.75C35.2051 70.7031 36.5234 71.9238 38.6719 71.9238Z" fill="#000000" fill-opacity="0.85"/>
 </g>
</svg>
