<?xml version="1.0" encoding="UTF-8"?>
<!--Generator: Apple Native CoreSVG 232.5-->
<!DOCTYPE svg
PUBLIC "-//W3C//DTD SVG 1.1//EN"
       "http://www.w3.org/Graphics/SVG/1.1/DTD/svg11.dtd">
<svg version="1.1" xmlns="http://www.w3.org/2000/svg" xmlns:xlink="http://www.w3.org/1999/xlink" width="89.8926" height="73.6816">
 <g>
  <rect height="73.6816" opacity="0" width="89.8926" x="0" y="0"/>
  <path d="M0 69.7266C0 71.875 1.75781 73.6816 3.90625 73.6816C6.10352 73.6816 7.86133 71.875 7.86133 69.7266L7.86133 4.00391C7.86133 1.85547 6.10352 0.0976562 3.90625 0.0976562C1.75781 0.0976562 0 1.85547 0 4.00391ZM82.0312 69.7266C82.0312 71.875 83.8379 73.6816 85.9863 73.6816C88.1348 73.6816 89.8926 71.875 89.8926 69.7266L89.8926 4.00391C89.8926 1.85547 88.1348 0.0976562 85.9863 0.0976562C83.8379 0.0976562 82.0312 1.85547 82.0312 4.00391Z" fill="#000000" fill-opacity="0.85"/>
  <path d="M35.1562 59.5215L55.5664 59.5215C57.5195 59.5215 58.7402 58.3008 58.7402 56.3477C58.7402 54.4434 57.5195 53.2715 55.5664 53.2715L41.3086 53.2715L41.3086 52.832L49.5605 43.6523C51.5625 41.4062 53.125 39.4531 54.3457 37.8418C56.4941 34.8633 57.7148 32.0312 57.7148 28.418C57.7148 20.752 52.002 16.1621 44.5312 16.1621C38.2812 16.1621 33.1543 20.3125 31.8848 25.0977C31.7383 25.8301 31.5918 26.5137 31.5918 27.1973C31.5918 29.1992 32.8613 30.4688 34.8633 30.4688C36.5723 30.4688 37.6465 29.5898 38.2812 27.9785C39.209 24.5117 41.2109 22.2656 44.5312 22.2656C48.1934 22.2656 50.2441 25.0977 50.2441 28.7109C50.2441 31.3965 49.3164 33.3984 47.8027 35.5957C46.875 36.9141 45.5566 38.5742 43.8965 40.5273L33.5938 52.1484C32.4707 53.3203 31.4941 54.541 31.4941 56.2988C31.4941 57.8613 32.373 59.5215 35.1562 59.5215Z" fill="#000000" fill-opacity="0.85"/>
 </g>
</svg>
