<?xml version="1.0" encoding="UTF-8"?>
<!--Generator: Apple Native CoreSVG 232.5-->
<!DOCTYPE svg
PUBLIC "-//W3C//DTD SVG 1.1//EN"
       "http://www.w3.org/Graphics/SVG/1.1/DTD/svg11.dtd">
<svg version="1.1" xmlns="http://www.w3.org/2000/svg" xmlns:xlink="http://www.w3.org/1999/xlink" width="99.6094" height="99.6582">
 <g>
  <rect height="99.6582" opacity="0" width="99.6094" x="0" y="0"/>
  <path d="M49.8047 99.6094C77.0508 99.6094 99.6094 77.002 99.6094 49.8047C99.6094 22.5586 77.002 0 49.7559 0C22.5586 0 0 22.5586 0 49.8047C0 77.002 22.6074 99.6094 49.8047 99.6094ZM49.8047 91.3086C26.7578 91.3086 8.34961 72.8516 8.34961 49.8047C8.34961 26.7578 26.709 8.30078 49.7559 8.30078C72.8027 8.30078 91.3086 26.7578 91.3086 49.8047C91.3086 72.8516 72.8516 91.3086 49.8047 91.3086Z" fill="#000000" fill-opacity="0.85"/>
  <path d="M26.9043 69.5312L43.8477 69.5312C45.6055 69.5312 46.6309 68.4082 46.6309 66.6992C46.6309 64.8438 45.5566 63.8184 43.8477 63.8184L32.2754 63.8184L32.2754 63.4277L39.4043 54.3945C44.2871 48.3398 45.8984 44.7266 45.8984 40.4297C45.8984 33.8379 41.4062 29.0527 34.668 29.0527C28.418 29.0527 23.6816 34.2285 23.6816 39.3066C23.6816 41.1133 24.7559 42.3828 26.6113 42.3828C28.2227 42.3828 29.1992 41.6504 29.6875 40.0391C30.6152 36.7676 31.8359 34.7168 34.6191 34.7168C37.5977 34.7168 39.209 37.3047 39.209 40.7715C39.209 44.6777 36.5234 48.6328 33.9355 51.9531L25.4395 62.793C24.5117 63.9648 23.6328 65.1855 23.6328 66.6992C23.6328 68.3594 24.707 69.5312 26.9043 69.5312ZM64.4043 70.5566C74.1211 70.5566 77.002 59.6191 77.002 49.8047C77.002 39.9902 74.1211 29.0527 64.4043 29.0527C54.6387 29.0527 51.7578 39.9902 51.7578 49.8047C51.7578 59.6191 54.6387 70.5566 64.4043 70.5566ZM64.4043 64.7461C60.4004 64.7461 58.8867 58.252 58.8867 49.8047C58.8867 41.3086 60.4004 34.8145 64.4043 34.8145C68.3594 34.8145 69.873 41.3086 69.873 49.8047C69.873 58.252 68.3594 64.7461 64.4043 64.7461Z" fill="#000000" fill-opacity="0.85"/>
 </g>
</svg>
