<?xml version="1.0" encoding="UTF-8"?>
<!--Generator: Apple Native CoreSVG 232.5-->
<!DOCTYPE svg
PUBLIC "-//W3C//DTD SVG 1.1//EN"
       "http://www.w3.org/Graphics/SVG/1.1/DTD/svg11.dtd">
<svg version="1.1" xmlns="http://www.w3.org/2000/svg" xmlns:xlink="http://www.w3.org/1999/xlink" width="99.6094" height="99.6582">
 <g>
  <rect height="99.6582" opacity="0" width="99.6094" x="0" y="0"/>
  <path d="M99.6094 49.8047C99.6094 77.002 77.0508 99.6094 49.8047 99.6094C22.6074 99.6094 0 77.002 0 49.8047C0 22.5586 22.5586 0 49.7559 0C77.002 0 99.6094 22.5586 99.6094 49.8047ZM23.8281 39.0137C23.8281 40.8691 24.9512 42.1875 26.8555 42.1875C28.5156 42.1875 29.541 41.4062 30.127 39.7461C31.0059 36.377 32.2754 34.2773 35.1562 34.2773C38.1836 34.2773 39.8926 36.9141 39.8926 40.5273C39.8926 44.5312 37.0605 48.6328 34.375 52.0508L25.6348 63.1836C24.7559 64.4043 23.7793 65.6738 23.7793 67.2363C23.7793 68.9453 24.9023 70.166 27.1973 70.166L44.6289 70.166C46.4844 70.166 47.5098 68.9941 47.5098 67.2363C47.5098 65.332 46.4355 64.2578 44.6289 64.2578L32.7148 64.2578L32.7148 63.8184L40.0879 54.5898C45.1172 48.291 46.7773 44.5801 46.7773 40.1367C46.7773 33.3496 42.1387 28.418 35.1562 28.418C28.7109 28.418 23.8281 33.7402 23.8281 39.0137ZM52.7832 39.0137C52.7832 40.8691 53.8086 42.1875 55.7617 42.1875C57.4219 42.1875 58.4961 41.4062 58.9844 39.7461C59.9609 36.377 61.1328 34.2773 64.0625 34.2773C67.041 34.2773 68.75 36.9141 68.75 40.5273C68.75 44.5312 65.918 48.6328 63.2812 52.0508L54.541 63.1836C53.6133 64.4043 52.6855 65.6738 52.6855 67.2363C52.6855 68.9453 53.7598 70.166 56.1035 70.166L73.584 70.166C75.3418 70.166 76.416 68.9941 76.416 67.2363C76.416 65.332 75.293 64.2578 73.584 64.2578L61.6211 64.2578L61.6211 63.8184L68.9453 54.5898C73.9746 48.291 75.6348 44.5801 75.6348 40.1367C75.6348 33.3496 70.9961 28.418 64.0625 28.418C57.666 28.418 52.7832 33.7402 52.7832 39.0137Z" fill="#000000" fill-opacity="0.85"/>
 </g>
</svg>
