<?xml version="1.0" encoding="UTF-8"?>
<!--Generator: Apple Native CoreSVG 232.5-->
<!DOCTYPE svg
PUBLIC "-//W3C//DTD SVG 1.1//EN"
       "http://www.w3.org/Graphics/SVG/1.1/DTD/svg11.dtd">
<svg version="1.1" xmlns="http://www.w3.org/2000/svg" xmlns:xlink="http://www.w3.org/1999/xlink" width="89.8926" height="89.9902">
 <g>
  <rect height="89.9902" opacity="0" width="89.8926" x="0" y="0"/>
  <path d="M89.8926 15.2344L89.8926 74.8535C89.8926 84.9121 84.8145 89.9902 74.5605 89.9902L15.332 89.9902C5.12695 89.9902 0 84.9609 0 74.8535L0 15.2344C0 5.12695 5.12695 0.0976562 15.332 0.0976562L74.5605 0.0976562C84.8145 0.0976562 89.8926 5.17578 89.8926 15.2344ZM18.9941 34.1797C18.9941 36.0352 20.1172 37.3535 22.0215 37.3535C23.6816 37.3535 24.7559 36.5723 25.293 34.9121C26.2207 31.543 27.4414 29.4434 30.3223 29.4434C33.3496 29.4434 35.0586 32.0801 35.0586 35.6934C35.0586 39.6973 32.2266 43.7988 29.541 47.2168L20.8008 58.3496C19.9219 59.5703 18.9453 60.8398 18.9453 62.4023C18.9453 64.1113 20.0684 65.332 22.4121 65.332L39.8438 65.332C41.6504 65.332 42.6758 64.1602 42.6758 62.4023C42.6758 60.498 41.6016 59.4238 39.8438 59.4238L27.8809 59.4238L27.8809 58.9844L35.2539 49.7559C40.2832 43.457 41.9434 39.7461 41.9434 35.3027C41.9434 28.5156 37.3047 23.584 30.3223 23.584C23.9258 23.584 18.9941 28.9062 18.9941 34.1797ZM47.9492 34.1797C47.9492 36.0352 48.9746 37.3535 50.9277 37.3535C52.5879 37.3535 53.6621 36.5723 54.1504 34.9121C55.127 31.543 56.3477 29.4434 59.2285 29.4434C62.207 29.4434 63.916 32.0801 63.916 35.6934C63.916 39.6973 61.084 43.7988 58.4473 47.2168L49.7559 58.3496C48.7793 59.5703 47.8516 60.8398 47.8516 62.4023C47.8516 64.1113 48.9258 65.332 51.2695 65.332L68.75 65.332C70.5078 65.332 71.6309 64.1602 71.6309 62.4023C71.6309 60.498 70.459 59.4238 68.75 59.4238L56.7871 59.4238L56.7871 58.9844L64.1113 49.7559C69.1895 43.457 70.8008 39.7461 70.8008 35.3027C70.8008 28.5156 66.2109 23.584 59.2773 23.584C52.832 23.584 47.9492 28.9062 47.9492 34.1797Z" fill="#000000" fill-opacity="0.85"/>
 </g>
</svg>
