<?xml version="1.0" encoding="UTF-8"?>
<!--Generator: Apple Native CoreSVG 232.5-->
<!DOCTYPE svg
PUBLIC "-//W3C//DTD SVG 1.1//EN"
       "http://www.w3.org/Graphics/SVG/1.1/DTD/svg11.dtd">
<svg version="1.1" xmlns="http://www.w3.org/2000/svg" xmlns:xlink="http://www.w3.org/1999/xlink" width="99.6094" height="99.6582">
 <g>
  <rect height="99.6582" opacity="0" width="99.6094" x="0" y="0"/>
  <path d="M49.8047 99.6094C77.0508 99.6094 99.6094 77.002 99.6094 49.8047C99.6094 22.5586 77.002 0 49.7559 0C22.5586 0 0 22.5586 0 49.8047C0 77.002 22.6074 99.6094 49.8047 99.6094ZM49.8047 91.3086C26.7578 91.3086 8.34961 72.8516 8.34961 49.8047C8.34961 26.7578 26.709 8.30078 49.7559 8.30078C72.8027 8.30078 91.3086 26.7578 91.3086 49.8047C91.3086 72.8516 72.8516 91.3086 49.8047 91.3086Z" fill="#000000" fill-opacity="0.85"/>
  <path d="M26.9531 69.5312L43.8965 69.5312C45.6543 69.5312 46.6797 68.4082 46.6797 66.6992C46.6797 64.8438 45.6055 63.8184 43.8965 63.8184L32.3242 63.8184L32.3242 63.4277L39.4531 54.3945C44.3359 48.3398 45.9473 44.7266 45.9473 40.4297C45.9473 33.8379 41.4551 29.0527 34.7168 29.0527C28.4668 29.0527 23.7305 34.2285 23.7305 39.3066C23.7305 41.1133 24.8047 42.3828 26.6602 42.3828C28.2715 42.3828 29.248 41.6504 29.7852 40.0391C30.6641 36.7676 31.8848 34.7168 34.668 34.7168C37.6465 34.7168 39.3066 37.3047 39.3066 40.7715C39.3066 44.6777 36.5723 48.6328 33.9844 51.9531L25.4883 62.793C24.6094 63.9648 23.6816 65.1855 23.6816 66.6992C23.6816 68.3594 24.7559 69.5312 26.9531 69.5312ZM63.8184 70.4102C70.8496 70.4102 76.2207 66.0156 76.2207 58.6914C76.2207 52.6367 72.6074 49.6582 68.457 49.2188L68.457 49.0723C72.9004 47.9004 75.0488 43.9453 75.0488 39.8438C75.0488 33.1055 70.0195 29.248 63.6719 29.248C58.5938 29.248 54.248 32.0801 52.832 36.4258C52.5879 37.3535 52.4902 38.2324 52.4902 39.0625C52.4902 40.6738 53.5156 41.9434 55.4688 41.9434C57.1289 41.9434 58.1055 41.3086 58.5938 39.5996C59.375 36.7188 60.8887 34.9121 63.6719 34.9121C66.8945 34.9121 68.4082 37.4023 68.4082 40.625C68.4082 44.1895 66.4062 46.7773 62.7441 46.7773L61.6211 46.7773C59.9609 46.7773 58.8867 47.8027 58.8867 49.4141C58.8867 51.0254 59.9609 51.9531 61.6211 51.9531L62.8418 51.9531C66.9922 51.9531 69.2871 54.248 69.2871 58.4961C69.2871 61.8652 67.4805 64.7461 63.8672 64.7461C60.3027 64.7461 58.6914 62.3535 58.1055 60.1074C57.6172 58.5449 56.5918 57.7148 55.0293 57.7148C53.125 57.7148 51.8066 58.8867 51.8066 60.791C51.8066 61.6699 51.9531 62.5488 52.1973 63.3301C53.6133 67.8711 58.5938 70.4102 63.8184 70.4102Z" fill="#000000" fill-opacity="0.85"/>
 </g>
</svg>
