<?xml version="1.0" encoding="UTF-8"?>
<!--Generator: Apple Native CoreSVG 232.5-->
<!DOCTYPE svg
PUBLIC "-//W3C//DTD SVG 1.1//EN"
       "http://www.w3.org/Graphics/SVG/1.1/DTD/svg11.dtd">
<svg version="1.1" xmlns="http://www.w3.org/2000/svg" xmlns:xlink="http://www.w3.org/1999/xlink" width="99.6094" height="99.6582">
 <g>
  <rect height="99.6582" opacity="0" width="99.6094" x="0" y="0"/>
  <path d="M49.8047 99.6094C77.0508 99.6094 99.6094 77.002 99.6094 49.8047C99.6094 22.5586 77.002 0 49.7559 0C22.5586 0 0 22.5586 0 49.8047C0 77.002 22.6074 99.6094 49.8047 99.6094ZM49.8047 91.3086C26.7578 91.3086 8.34961 72.8516 8.34961 49.8047C8.34961 26.7578 26.709 8.30078 49.7559 8.30078C72.8027 8.30078 91.3086 26.7578 91.3086 49.8047C91.3086 72.8516 72.8516 91.3086 49.8047 91.3086Z" fill="#000000" fill-opacity="0.85"/>
  <path d="M26.6113 69.5312L43.5547 69.5312C45.2637 69.5312 46.2891 68.4082 46.2891 66.6992C46.2891 64.8438 45.2148 63.8184 43.5547 63.8184L31.9336 63.8184L31.9336 63.4277L39.0625 54.3945C43.9453 48.3398 45.5566 44.7266 45.5566 40.4297C45.5566 33.8379 41.0645 29.0527 34.3262 29.0527C28.0762 29.0527 23.3398 34.2285 23.3398 39.3066C23.3398 41.1133 24.4141 42.3828 26.2695 42.3828C27.8809 42.3828 28.8574 41.6504 29.3945 40.0391C30.3223 36.7676 31.4941 34.7168 34.3262 34.7168C37.2559 34.7168 38.916 37.3047 38.916 40.7715C38.916 44.6777 36.1816 48.6328 33.5938 51.9531L25.0977 62.793C24.2188 63.9648 23.291 65.1855 23.291 66.6992C23.291 68.3594 24.3652 69.5312 26.6113 69.5312ZM64.3066 70.5566C71.7773 70.5566 76.0254 64.3066 76.0254 56.6406C76.0254 50.0488 72.8516 43.7988 66.3574 43.7988C62.4023 43.7988 59.4238 46.4355 58.3008 50.6348L58.1055 50.6348C58.1055 50.4395 58.1055 50.2441 58.1055 50.0977C58.1055 44.6777 58.7891 34.8633 64.209 34.8633C66.4551 34.8633 67.9199 36.4258 68.75 38.4766C69.4336 39.9902 70.4102 40.6738 71.9727 40.6738C73.9258 40.6738 74.7559 39.3555 74.7559 37.7441C74.7559 37.207 74.707 36.6211 74.5605 35.9863C73.4863 31.7871 69.2871 29.1504 64.4043 29.1504C54.3457 29.1504 51.4648 40.3809 51.4648 50.293C51.4648 59.5215 54.3945 70.5566 64.3066 70.5566ZM64.209 64.8438C60.5469 64.8438 59.0332 60.2539 59.0332 56.7383C59.0332 53.1738 60.6934 49.1211 64.209 49.1211C67.8223 49.1211 69.3359 53.3203 69.2383 56.9336C69.2383 60.498 67.627 64.8438 64.209 64.8438Z" fill="#000000" fill-opacity="0.85"/>
 </g>
</svg>
