<?xml version="1.0" encoding="UTF-8"?>
<!--Generator: Apple Native CoreSVG 232.5-->
<!DOCTYPE svg
PUBLIC "-//W3C//DTD SVG 1.1//EN"
       "http://www.w3.org/Graphics/SVG/1.1/DTD/svg11.dtd">
<svg version="1.1" xmlns="http://www.w3.org/2000/svg" xmlns:xlink="http://www.w3.org/1999/xlink" width="99.6094" height="99.6582">
 <g>
  <rect height="99.6582" opacity="0" width="99.6094" x="0" y="0"/>
  <path d="M49.8047 99.6094C77.0508 99.6094 99.6094 77.002 99.6094 49.8047C99.6094 22.5586 77.002 0 49.7559 0C22.5586 0 0 22.5586 0 49.8047C0 77.002 22.6074 99.6094 49.8047 99.6094ZM49.8047 91.3086C26.7578 91.3086 8.34961 72.8516 8.34961 49.8047C8.34961 26.7578 26.709 8.30078 49.7559 8.30078C72.8027 8.30078 91.3086 26.7578 91.3086 49.8047C91.3086 72.8516 72.8516 91.3086 49.8047 91.3086Z" fill="#000000" fill-opacity="0.85"/>
  <path d="M29.0527 69.5312L45.9961 69.5312C47.7539 69.5312 48.7793 68.4082 48.7793 66.6992C48.7793 64.8438 47.7051 63.8184 45.9961 63.8184L34.4238 63.8184L34.4238 63.4277L41.5527 54.3945C46.4355 48.3398 48.0469 44.7266 48.0469 40.4297C48.0469 33.8379 43.5547 29.0527 36.8164 29.0527C30.5664 29.0527 25.8301 34.2285 25.8301 39.3066C25.8301 41.1133 26.9043 42.3828 28.7598 42.3828C30.3711 42.3828 31.3477 41.6504 31.8848 40.0391C32.7637 36.7676 33.9844 34.7168 36.7676 34.7168C39.7461 34.7168 41.4062 37.3047 41.4062 40.7715C41.4062 44.6777 38.6719 48.6328 36.084 51.9531L27.5879 62.793C26.709 63.9648 25.7812 65.1855 25.7812 66.6992C25.7812 68.3594 26.8555 69.5312 29.0527 69.5312ZM60.1562 70.2148C61.9629 70.2148 62.7441 69.4824 63.4277 67.7246L74.5605 37.9395C75.0977 36.4258 75.4883 35.2539 75.4883 33.8379C75.4883 31.5918 73.7793 30.0781 71.582 30.0781L55.8105 30.0781C54.1504 30.0781 52.9785 31.2988 52.9785 32.959C52.9785 34.6191 54.1504 35.8398 55.8105 35.8398L68.3594 35.8398L68.3594 36.2793L57.5684 64.3066C57.1289 65.3809 56.9336 66.0156 56.9336 67.1875C56.9336 68.6035 57.8613 70.2148 60.1562 70.2148Z" fill="#000000" fill-opacity="0.85"/>
 </g>
</svg>
