<?xml version="1.0" encoding="UTF-8"?>
<!--Generator: Apple Native CoreSVG 232.5-->
<!DOCTYPE svg
PUBLIC "-//W3C//DTD SVG 1.1//EN"
       "http://www.w3.org/Graphics/SVG/1.1/DTD/svg11.dtd">
<svg version="1.1" xmlns="http://www.w3.org/2000/svg" xmlns:xlink="http://www.w3.org/1999/xlink" width="89.8926" height="89.9902">
 <g>
  <rect height="89.9902" opacity="0" width="89.8926" x="0" y="0"/>
  <path d="M15.332 89.9902L74.5605 89.9902C84.8145 89.9902 89.8926 84.9121 89.8926 74.8535L89.8926 15.2344C89.8926 5.17578 84.8145 0.0976562 74.5605 0.0976562L15.332 0.0976562C5.12695 0.0976562 0 5.12695 0 15.2344L0 74.8535C0 84.9609 5.12695 89.9902 15.332 89.9902ZM15.4297 82.1289C10.5469 82.1289 7.86133 79.541 7.86133 74.4629L7.86133 15.625C7.86133 10.5469 10.5469 7.95898 15.4297 7.95898L74.4629 7.95898C79.2969 7.95898 82.0312 10.5469 82.0312 15.625L82.0312 74.4629C82.0312 79.541 79.2969 82.1289 74.4629 82.1289Z" fill="#000000" fill-opacity="0.85"/>
  <path d="M21.7285 64.6973L38.6719 64.6973C40.3809 64.6973 41.4551 63.5742 41.4551 61.8652C41.4551 60.0098 40.332 58.9844 38.6719 58.9844L27.0996 58.9844L27.0996 58.5938L34.2285 49.5605C39.1113 43.5059 40.7227 39.8926 40.7227 35.5957C40.7227 29.0039 36.2305 24.2188 29.4922 24.2188C23.2422 24.2188 18.5059 29.3945 18.5059 34.4727C18.5059 36.2793 19.5312 37.5488 21.4355 37.5488C23.0469 37.5488 24.0234 36.8164 24.5117 35.2051C25.4395 31.9336 26.6602 29.8828 29.4434 29.8828C32.373 29.8828 34.0332 32.4707 34.0332 35.9375C34.0332 39.8438 31.3477 43.7988 28.7109 47.1191L20.2637 57.959C19.3359 59.1309 18.457 60.3516 18.457 61.8652C18.457 63.5254 19.4824 64.6973 21.7285 64.6973ZM59.1309 65.5762C66.8945 65.5762 71.8262 60.7422 71.8262 54.0527C71.8262 48.7305 68.457 44.873 64.5508 43.9941L64.5508 43.8477C67.8223 42.8223 70.7031 39.6484 70.7031 35.0098C70.7031 28.7109 66.0156 24.4141 59.1309 24.4141C53.125 24.4141 47.6562 28.125 47.6562 34.9609C47.6562 39.9414 50.7324 42.8711 53.8574 43.8477L53.8574 43.9941C49.707 44.9219 46.5332 48.7793 46.5332 54.0527C46.5332 61.2793 52.002 65.5762 59.1309 65.5762ZM59.1797 41.6016C56.0547 41.6016 54.4434 38.5742 54.4434 35.6934C54.4434 32.5684 56.1523 29.6387 59.1797 29.6387C62.3047 29.6387 63.8672 32.5684 63.8672 35.6934C63.8672 38.916 62.2559 41.6016 59.1797 41.6016ZM59.1797 60.3027C55.6152 60.3027 53.8574 57.1289 53.8574 53.5156C53.8574 50 55.6152 46.875 59.1797 46.875C62.6465 46.875 64.502 49.8047 64.502 53.5156C64.502 57.1289 62.7441 60.3027 59.1797 60.3027Z" fill="#000000" fill-opacity="0.85"/>
 </g>
</svg>
