<?xml version="1.0" encoding="UTF-8"?>
<!--Generator: Apple Native CoreSVG 232.5-->
<!DOCTYPE svg
PUBLIC "-//W3C//DTD SVG 1.1//EN"
       "http://www.w3.org/Graphics/SVG/1.1/DTD/svg11.dtd">
<svg version="1.1" xmlns="http://www.w3.org/2000/svg" xmlns:xlink="http://www.w3.org/1999/xlink" width="99.6094" height="99.6582">
 <g>
  <rect height="99.6582" opacity="0" width="99.6094" x="0" y="0"/>
  <path d="M99.6094 49.8047C99.6094 77.002 77.0508 99.6094 49.8047 99.6094C22.6074 99.6094 0 77.002 0 49.8047C0 22.5586 22.5586 0 49.7559 0C77.002 0 99.6094 22.5586 99.6094 49.8047ZM51.7578 42.8711C51.7578 49.6582 55.0293 56.1035 61.6699 56.1035C65.8203 56.1035 68.8965 53.3691 70.0195 49.0723L70.2148 49.0723C70.2148 49.2676 70.2148 49.4629 70.2148 49.6094C70.2148 55.1758 69.5312 65.2344 63.916 65.2344C61.6699 65.2344 60.1562 63.6719 59.2285 61.5234C58.5449 59.8633 57.5195 59.2285 56.0059 59.2285C53.9062 59.2285 52.9785 60.6445 52.9785 62.3047C52.9785 62.8906 53.125 63.5254 53.2715 64.1113C54.3457 68.5059 58.7402 71.1426 63.7695 71.1426C74.0723 71.1426 77.0996 59.7168 77.0996 49.4141C77.0996 39.8926 74.0723 28.5156 63.8672 28.5156C56.2012 28.5156 51.7578 34.9609 51.7578 42.8711ZM22.9492 38.9648C22.9492 40.8691 23.9746 42.1387 25.9277 42.1387C27.5879 42.1387 28.6621 41.4062 29.1504 39.7461C30.127 36.377 31.2988 34.2773 34.2285 34.2773C37.2559 34.2773 38.9648 36.9141 38.9648 40.4785C38.9648 44.5312 36.1328 48.6328 33.4473 52.002L24.7559 63.1836C23.7793 64.3555 22.8516 65.625 22.8516 67.2363C22.8516 68.9453 23.9258 70.166 26.2695 70.166L43.75 70.166C45.5078 70.166 46.6309 68.9941 46.6309 67.2363C46.6309 65.2832 45.459 64.209 43.75 64.209L31.7871 64.209L31.7871 63.8184L39.1113 54.541C44.1895 48.291 45.8496 44.5801 45.8496 40.1367C45.8496 33.3496 41.2109 28.418 34.2285 28.418C27.832 28.418 22.9492 33.7402 22.9492 38.9648ZM69.2871 42.5293C69.2871 46.4355 67.5781 50.5371 63.9648 50.5371C60.2539 50.5371 58.7402 46.2891 58.7402 42.5293C58.7402 38.7695 60.4492 34.4238 63.9648 34.4238C67.7246 34.4238 69.2871 38.7695 69.2871 42.5293Z" fill="#000000" fill-opacity="0.85"/>
 </g>
</svg>
