<?xml version="1.0" encoding="UTF-8"?>
<!--Generator: Apple Native CoreSVG 232.5-->
<!DOCTYPE svg
PUBLIC "-//W3C//DTD SVG 1.1//EN"
       "http://www.w3.org/Graphics/SVG/1.1/DTD/svg11.dtd">
<svg version="1.1" xmlns="http://www.w3.org/2000/svg" xmlns:xlink="http://www.w3.org/1999/xlink" width="99.6094" height="99.6582">
 <g>
  <rect height="99.6582" opacity="0" width="99.6094" x="0" y="0"/>
  <path d="M49.8047 99.6094C77.0508 99.6094 99.6094 77.002 99.6094 49.8047C99.6094 22.5586 77.002 0 49.7559 0C22.5586 0 0 22.5586 0 49.8047C0 77.002 22.6074 99.6094 49.8047 99.6094ZM49.8047 91.3086C26.7578 91.3086 8.34961 72.8516 8.34961 49.8047C8.34961 26.7578 26.709 8.30078 49.7559 8.30078C72.8027 8.30078 91.3086 26.7578 91.3086 49.8047C91.3086 72.8516 72.8516 91.3086 49.8047 91.3086Z" fill="#000000" fill-opacity="0.85"/>
  <path d="M26.9531 69.5312L43.8965 69.5312C45.6055 69.5312 46.6309 68.4082 46.6309 66.6992C46.6309 64.8438 45.5566 63.8184 43.8965 63.8184L32.2754 63.8184L32.2754 63.4277L39.4043 54.3945C44.3359 48.3398 45.8984 44.7266 45.8984 40.4297C45.8984 33.8379 41.4551 29.0527 34.668 29.0527C28.4668 29.0527 23.7305 34.2285 23.7305 39.3066C23.7305 41.1133 24.7559 42.3828 26.6113 42.3828C28.2227 42.3828 29.248 41.6504 29.7363 40.0391C30.6641 36.7676 31.8359 34.7168 34.668 34.7168C37.5977 34.7168 39.2578 37.3047 39.2578 40.7715C39.2578 44.6777 36.5234 48.6328 33.9355 51.9531L25.4883 62.793C24.5605 63.9648 23.6328 65.1855 23.6328 66.6992C23.6328 68.3594 24.707 69.5312 26.9531 69.5312ZM61.2793 55.9082C65.2832 55.9082 68.2617 53.2715 69.3848 49.0723L69.5801 49.0723C69.5801 49.2676 69.5801 49.4629 69.5801 49.6094C69.5801 55.0293 68.8965 64.7949 63.4277 64.7949C61.2305 64.7949 59.7656 63.2812 58.8867 61.1816C58.2031 59.5703 57.2266 58.9355 55.7617 58.9355C53.7109 58.9355 52.832 60.3027 52.832 61.9141C52.832 62.5 52.9785 63.0859 53.125 63.6719C54.1504 67.9199 58.3984 70.5078 63.2812 70.5078C73.291 70.5078 76.2207 59.4238 76.2207 49.4141C76.2207 40.1855 73.291 29.1504 63.3789 29.1504C55.957 29.1504 51.6602 35.4004 51.6602 43.0664C51.6602 49.6582 54.834 55.9082 61.2793 55.9082ZM63.4766 50.5371C59.8633 50.5371 58.3984 46.3867 58.3984 42.7734C58.3984 39.1113 60.0586 34.8145 63.4766 34.8145C67.1387 34.8145 68.6523 39.1113 68.6523 42.7734C68.6523 46.5332 66.9922 50.5371 63.4766 50.5371Z" fill="#000000" fill-opacity="0.85"/>
 </g>
</svg>
