<?xml version="1.0" encoding="UTF-8"?>
<!--Generator: Apple Native CoreSVG 232.5-->
<!DOCTYPE svg
PUBLIC "-//W3C//DTD SVG 1.1//EN"
       "http://www.w3.org/Graphics/SVG/1.1/DTD/svg11.dtd">
<svg version="1.1" xmlns="http://www.w3.org/2000/svg" xmlns:xlink="http://www.w3.org/1999/xlink" width="89.8926" height="89.9902">
 <g>
  <rect height="89.9902" opacity="0" width="89.8926" x="0" y="0"/>
  <path d="M15.332 89.9902L74.5605 89.9902C84.8145 89.9902 89.8926 84.9121 89.8926 74.8535L89.8926 15.2344C89.8926 5.17578 84.8145 0.0976562 74.5605 0.0976562L15.332 0.0976562C5.12695 0.0976562 0 5.12695 0 15.2344L0 74.8535C0 84.9609 5.12695 89.9902 15.332 89.9902ZM15.4297 82.1289C10.5469 82.1289 7.86133 79.541 7.86133 74.4629L7.86133 15.625C7.86133 10.5469 10.5469 7.95898 15.4297 7.95898L74.4629 7.95898C79.2969 7.95898 82.0312 10.5469 82.0312 15.625L82.0312 74.4629C82.0312 79.541 79.2969 82.1289 74.4629 82.1289Z" fill="#000000" fill-opacity="0.85"/>
  <path d="M22.168 64.6973L39.1113 64.6973C40.8203 64.6973 41.8945 63.5742 41.8945 61.8652C41.8945 60.0098 40.7715 58.9844 39.1113 58.9844L27.5391 58.9844L27.5391 58.5938L34.6191 49.5605C39.5508 43.5059 41.1133 39.8926 41.1133 35.5957C41.1133 29.0039 36.6699 24.2188 29.9316 24.2188C23.6816 24.2188 18.9453 29.3945 18.9453 34.4727C18.9453 36.2793 19.9707 37.5488 21.8262 37.5488C23.4863 37.5488 24.4629 36.8164 24.9512 35.2051C25.8789 31.9336 27.0996 29.8828 29.8828 29.8828C32.8125 29.8828 34.4727 32.4707 34.4727 35.9375C34.4727 39.8438 31.7383 43.7988 29.1504 47.1191L20.7031 57.959C19.7754 59.1309 18.8477 60.3516 18.8477 61.8652C18.8477 63.5254 19.9219 64.6973 22.168 64.6973ZM56.543 51.0742C60.498 51.0742 63.4766 48.4375 64.5996 44.2383L64.7949 44.2383C64.7949 44.4336 64.7949 44.6289 64.7949 44.7754C64.7949 50.1953 64.1113 59.9609 58.6426 59.9609C56.4453 59.9609 54.9805 58.4473 54.1016 56.3477C53.418 54.7363 52.4414 54.1016 50.9766 54.1016C48.9258 54.1016 48.0469 55.4688 48.0469 57.0801C48.0469 57.666 48.1934 58.252 48.3398 58.8379C49.3652 63.0859 53.6133 65.6738 58.4961 65.6738C68.5547 65.6738 71.4355 54.5898 71.4355 44.5801C71.4355 35.3516 68.5059 24.3164 58.5938 24.3164C51.1719 24.3164 46.875 30.5664 46.875 38.2324C46.875 44.8242 50.0488 51.0742 56.543 51.0742ZM58.6914 45.7031C55.0781 45.7031 53.6133 41.5527 53.6133 37.9395C53.6133 34.2773 55.2734 29.9805 58.6914 29.9805C62.3535 29.9805 63.8672 34.2773 63.8672 37.9395C63.8672 41.6992 62.207 45.7031 58.6914 45.7031Z" fill="#000000" fill-opacity="0.85"/>
 </g>
</svg>
