<?xml version="1.0" encoding="UTF-8"?>
<!--Generator: Apple Native CoreSVG 232.5-->
<!DOCTYPE svg
PUBLIC "-//W3C//DTD SVG 1.1//EN"
       "http://www.w3.org/Graphics/SVG/1.1/DTD/svg11.dtd">
<svg version="1.1" xmlns="http://www.w3.org/2000/svg" xmlns:xlink="http://www.w3.org/1999/xlink" width="89.8926" height="89.9902">
 <g>
  <rect height="89.9902" opacity="0" width="89.8926" x="0" y="0"/>
  <path d="M89.8926 15.2344L89.8926 74.8535C89.8926 84.9121 84.8145 89.9902 74.5605 89.9902L15.332 89.9902C5.12695 89.9902 0 84.9609 0 74.8535L0 15.2344C0 5.12695 5.12695 0.0976562 15.332 0.0976562L74.5605 0.0976562C84.8145 0.0976562 89.8926 5.17578 89.8926 15.2344ZM46.9238 38.0371C46.9238 44.8242 50.1953 51.2695 56.8848 51.2695C60.9863 51.2695 64.0625 48.5352 65.1855 44.2383L65.3809 44.2383C65.3809 44.4336 65.3809 44.6289 65.3809 44.7754C65.3809 50.3418 64.6973 60.4004 59.082 60.4004C56.8359 60.4004 55.3223 58.8379 54.3945 56.6895C53.7109 55.0293 52.6855 54.3945 51.1719 54.3945C49.0723 54.3945 48.1445 55.8105 48.1445 57.4707C48.1445 58.0566 48.291 58.6914 48.4375 59.2773C49.5117 63.6719 53.9062 66.3086 58.9355 66.3086C69.2383 66.3086 72.2656 54.8828 72.2656 44.5801C72.2656 35.0586 69.2383 23.6816 59.0332 23.6816C51.3672 23.6816 46.9238 30.127 46.9238 38.0371ZM18.1152 34.1309C18.1152 36.0352 19.1406 37.3047 21.1426 37.3047C22.8027 37.3047 23.8281 36.5723 24.3164 34.9121C25.293 31.543 26.5137 29.4434 29.3945 29.4434C32.4219 29.4434 34.1309 32.0801 34.1309 35.6445C34.1309 39.6973 31.2988 43.7988 28.6133 47.168L19.9219 58.3496C18.9453 59.5215 18.0176 60.791 18.0176 62.4023C18.0176 64.1113 19.0918 65.332 21.4355 65.332L38.916 65.332C40.6738 65.332 41.7969 64.1602 41.7969 62.4023C41.7969 60.4492 40.625 59.375 38.916 59.375L27.002 59.375L27.002 58.9844L34.2773 49.707C39.3555 43.457 41.0156 39.7461 41.0156 35.3027C41.0156 28.5156 36.377 23.584 29.4434 23.584C22.998 23.584 18.1152 28.9062 18.1152 34.1309ZM64.4531 37.6953C64.4531 41.6016 62.7441 45.7031 59.1309 45.7031C55.4199 45.7031 53.9062 41.4551 53.9062 37.6953C53.9062 33.9355 55.6152 29.5898 59.1309 29.5898C62.8906 29.5898 64.4531 33.9355 64.4531 37.6953Z" fill="#000000" fill-opacity="0.85"/>
 </g>
</svg>
