<?xml version="1.0" encoding="UTF-8"?>
<!--Generator: Apple Native CoreSVG 232.5-->
<!DOCTYPE svg
PUBLIC "-//W3C//DTD SVG 1.1//EN"
       "http://www.w3.org/Graphics/SVG/1.1/DTD/svg11.dtd">
<svg version="1.1" xmlns="http://www.w3.org/2000/svg" xmlns:xlink="http://www.w3.org/1999/xlink" width="118.262" height="72.2168">
 <g>
  <rect height="72.2168" opacity="0" width="118.262" x="0" y="0"/>
  <path d="M4.29688 71.0938L44.873 71.0938C47.3145 71.0938 48.877 69.5312 48.877 67.1387C48.877 64.7949 47.3145 63.2324 44.873 63.2324L12.3535 63.2324L12.3535 62.9883L31.3965 44.4336C43.0176 33.1543 46.4844 27.2949 46.4844 19.7754C46.4844 8.59375 36.5234 0.0488281 23.291 0.0488281C12.9395 0.0488281 4.00391 5.66406 1.07422 14.2578C0.488281 15.918 0.244141 17.2852 0.244141 18.5059C0.244141 20.9473 1.66016 22.5586 4.05273 22.5586C6.34766 22.5586 7.32422 21.4844 8.05664 19.043C8.44727 17.5293 8.98438 16.1621 9.76562 14.8926C12.4023 10.5469 17.1875 7.76367 23.291 7.76367C31.2012 7.76367 37.5 13.3301 37.5 20.2637C37.5 25.8789 35.2539 29.6875 25.5859 39.209L2.73438 61.9141C0.683594 63.9648 0 65.1855 0 66.9922C0 69.5312 1.70898 71.0938 4.29688 71.0938ZM66.5527 72.1191C68.9941 72.1191 70.8984 70.166 70.8984 67.7734L70.8984 39.0137L109.57 39.0137L109.57 67.7734C109.57 70.166 111.523 72.1191 113.916 72.1191C116.309 72.1191 118.262 70.166 118.262 67.7734L118.262 4.3457C118.262 1.9043 116.309 0 113.916 0C111.523 0 109.57 1.9043 109.57 4.3457L109.57 31.4453L70.8984 31.4453L70.8984 4.3457C70.8984 1.9043 68.9941 0 66.5527 0C64.1602 0 62.207 1.9043 62.207 4.3457L62.207 67.7734C62.207 70.166 64.1602 72.1191 66.5527 72.1191Z" fill="#000000" fill-opacity="0.85"/>
 </g>
</svg>
