<?xml version="1.0" encoding="UTF-8"?>
<!--Generator: Apple Native CoreSVG 232.5-->
<!DOCTYPE svg
PUBLIC "-//W3C//DTD SVG 1.1//EN"
       "http://www.w3.org/Graphics/SVG/1.1/DTD/svg11.dtd">
<svg version="1.1" xmlns="http://www.w3.org/2000/svg" xmlns:xlink="http://www.w3.org/1999/xlink" width="99.6094" height="99.6582">
 <g>
  <rect height="99.6582" opacity="0" width="99.6094" x="0" y="0"/>
  <path d="M99.6094 49.8047C99.6094 77.002 77.0508 99.6094 49.8047 99.6094C22.6074 99.6094 0 77.002 0 49.8047C0 22.5586 22.5586 0 49.7559 0C77.002 0 99.6094 22.5586 99.6094 49.8047ZM34.6191 35.5957C34.4727 36.3281 34.4238 36.8652 34.4238 37.5977C34.4238 39.5996 35.8398 40.9668 37.8418 40.9668C39.6484 40.9668 40.7227 40.0879 41.3086 38.3301C42.4316 34.5703 45.5566 32.2266 50.2441 32.2266C55.2734 32.2266 58.3984 34.7168 58.3984 38.7695C58.3984 42.9199 54.8828 45.9473 50.0977 45.9473L46.9238 45.9473C45.0684 45.9473 43.75 47.2168 43.75 49.1211C43.75 50.8789 45.0684 52.1973 46.9238 52.1973L50.3418 52.1973C56.0059 52.1973 59.9121 55.3223 59.9121 59.8633C59.9121 64.4043 55.957 67.334 50.0977 67.334C44.6289 67.334 41.6016 64.6973 40.3809 61.2305C39.6973 59.4727 38.6719 58.6426 36.9141 58.6426C34.8633 58.6426 33.3984 60.0586 33.3984 62.1094C33.3984 62.8418 33.4961 63.2812 33.6426 64.0137C35.1562 69.8242 41.6992 73.7793 49.9512 73.7793C60.791 73.7793 67.4805 68.1152 67.4805 60.1562C67.4805 54.248 62.9883 49.5117 56.8848 48.9258L56.8848 48.5352C61.9629 47.8027 65.8691 43.1641 65.8691 37.8906C65.8691 30.8594 59.4238 25.8301 50.3906 25.8301C42.1875 25.8301 35.9863 29.6387 34.6191 35.5957Z" fill="#000000" fill-opacity="0.85"/>
 </g>
</svg>
