<?xml version="1.0" encoding="UTF-8"?>
<!--Generator: Apple Native CoreSVG 232.5-->
<!DOCTYPE svg
PUBLIC "-//W3C//DTD SVG 1.1//EN"
       "http://www.w3.org/Graphics/SVG/1.1/DTD/svg11.dtd">
<svg version="1.1" xmlns="http://www.w3.org/2000/svg" xmlns:xlink="http://www.w3.org/1999/xlink" width="89.8926" height="73.6816">
 <g>
  <rect height="73.6816" opacity="0" width="89.8926" x="0" y="0"/>
  <path d="M0 69.7266C0 71.875 1.75781 73.6816 3.90625 73.6816C6.10352 73.6816 7.86133 71.875 7.86133 69.7266L7.86133 4.00391C7.86133 1.85547 6.10352 0.0976562 3.90625 0.0976562C1.75781 0.0976562 0 1.85547 0 4.00391ZM82.0312 69.7266C82.0312 71.875 83.8379 73.6816 85.9863 73.6816C88.1348 73.6816 89.8926 71.875 89.8926 69.7266L89.8926 4.00391C89.8926 1.85547 88.1348 0.0976562 85.9863 0.0976562C83.8379 0.0976562 82.0312 1.85547 82.0312 4.00391Z" fill="#000000" fill-opacity="0.85"/>
  <path d="M44.7754 59.9609C52.9297 59.9609 59.4727 55.2246 59.4727 47.3633C59.4727 41.0156 55.2246 37.6465 50.1465 37.1582L50.1465 37.0605C55.0781 35.9375 58.0078 31.9336 58.0078 27.1484C58.0078 19.9219 52.0508 15.8691 44.5801 15.8691C38.3789 15.8691 33.0078 19.3359 31.7871 24.3164C31.6406 24.9512 31.543 25.6348 31.543 26.3184C31.543 28.0273 32.4219 29.4922 34.7656 29.4922C36.6211 29.4922 37.6465 28.7109 38.2812 27.002C39.3066 23.6328 41.4551 21.9727 44.6289 21.9727C48.3398 21.9727 50.6836 24.3652 50.6836 28.0762C50.6836 32.1289 47.8516 34.5215 43.7988 34.5215L42.1387 34.5215C40.2832 34.5215 39.1113 35.5957 39.1113 37.3535C39.1113 39.1602 40.332 40.1855 42.1387 40.1855L43.8477 40.1855C48.3887 40.1855 51.6602 42.1387 51.6602 47.0703C51.6602 51.0254 48.877 53.7109 44.8242 53.7109C40.918 53.7109 38.623 51.709 37.6465 48.6816C36.9629 47.1191 35.6934 46.1914 34.1797 46.1914C32.0801 46.1914 30.7617 47.4609 30.7617 49.5605C30.7617 50.2441 30.8594 50.8789 31.0059 51.5137C32.4219 57.1777 38.8184 59.9609 44.7754 59.9609Z" fill="#000000" fill-opacity="0.85"/>
 </g>
</svg>
