<?xml version="1.0" encoding="UTF-8"?>
<!--Generator: Apple Native CoreSVG 232.5-->
<!DOCTYPE svg
PUBLIC "-//W3C//DTD SVG 1.1//EN"
       "http://www.w3.org/Graphics/SVG/1.1/DTD/svg11.dtd">
<svg version="1.1" xmlns="http://www.w3.org/2000/svg" xmlns:xlink="http://www.w3.org/1999/xlink" width="99.6094" height="99.6582">
 <g>
  <rect height="99.6582" opacity="0" width="99.6094" x="0" y="0"/>
  <path d="M99.6094 49.8047C99.6094 77.002 77.0508 99.6094 49.8047 99.6094C22.6074 99.6094 0 77.002 0 49.8047C0 22.5586 22.5586 0 49.7559 0C77.002 0 99.6094 22.5586 99.6094 49.8047ZM52.2461 49.7559C52.2461 59.9121 55.2246 71.1426 65.2832 71.1426C75.3418 71.1426 78.3203 59.9121 78.3203 49.7559C78.3203 39.5996 75.3418 28.3691 65.2832 28.3691C55.2246 28.3691 52.2461 39.5996 52.2461 49.7559ZM22.8027 35.9375C22.5098 36.9141 22.4121 37.8418 22.4121 38.6719C22.4121 40.2832 23.5352 41.6504 25.5371 41.6504C27.2949 41.6504 28.2715 40.9668 28.7598 39.2578C29.541 36.2793 31.1523 34.4238 33.9844 34.4238C37.3047 34.4238 38.8672 36.9629 38.8672 40.2832C38.8672 43.9453 36.8164 46.6309 33.0566 46.6309L31.8848 46.6309C30.127 46.6309 29.1016 47.7051 29.1016 49.3164C29.1016 50.9766 30.1758 52.002 31.8848 52.002L33.1055 52.002C37.4023 52.002 39.7461 54.2969 39.7461 58.7402C39.7461 62.1582 37.9395 65.0879 34.1797 65.0879C30.5176 65.0879 28.9062 62.6465 28.3203 60.4004C27.7832 58.7402 26.709 57.9102 25.0977 57.9102C23.0957 57.9102 21.7773 59.082 21.7773 61.084C21.7773 62.0117 21.9238 62.8906 22.168 63.7207C23.6328 68.4082 28.7109 70.9961 34.1797 70.9961C41.4062 70.9961 46.9727 66.4551 46.9727 58.9355C46.9727 52.6855 43.2129 49.6094 38.9648 49.1699L38.9648 48.9746C43.5547 47.7539 45.752 43.7012 45.752 39.502C45.752 32.5195 40.5273 28.5645 33.9844 28.5645C28.7598 28.5645 24.2676 31.4941 22.8027 35.9375ZM70.9473 49.7559C70.9473 58.4961 69.3848 65.1367 65.2832 65.1367C61.2305 65.1367 59.668 58.4961 59.668 49.7559C59.668 40.9668 61.2305 34.3262 65.2832 34.3262C69.3848 34.3262 70.9473 40.9668 70.9473 49.7559Z" fill="#000000" fill-opacity="0.85"/>
 </g>
</svg>
