<?xml version="1.0" encoding="UTF-8"?>
<!--Generator: Apple Native CoreSVG 232.5-->
<!DOCTYPE svg
PUBLIC "-//W3C//DTD SVG 1.1//EN"
       "http://www.w3.org/Graphics/SVG/1.1/DTD/svg11.dtd">
<svg version="1.1" xmlns="http://www.w3.org/2000/svg" xmlns:xlink="http://www.w3.org/1999/xlink" width="99.6094" height="99.6582">
 <g>
  <rect height="99.6582" opacity="0" width="99.6094" x="0" y="0"/>
  <path d="M49.8047 99.6094C77.0508 99.6094 99.6094 77.002 99.6094 49.8047C99.6094 22.5586 77.002 0 49.7559 0C22.5586 0 0 22.5586 0 49.8047C0 77.002 22.6074 99.6094 49.8047 99.6094ZM49.8047 91.3086C26.7578 91.3086 8.34961 72.8516 8.34961 49.8047C8.34961 26.7578 26.709 8.30078 49.7559 8.30078C72.8027 8.30078 91.3086 26.7578 91.3086 49.8047C91.3086 72.8516 72.8516 91.3086 49.8047 91.3086Z" fill="#000000" fill-opacity="0.85"/>
  <path d="M34.6191 70.3613C41.6016 70.3613 47.0215 65.9668 47.0215 58.6426C47.0215 52.5879 43.3594 49.6094 39.2578 49.1699L39.2578 48.9746C43.7012 47.8027 45.8496 43.8965 45.8496 39.7949C45.8496 33.0566 40.7715 29.1992 34.4238 29.1992C29.3945 29.1992 25 32.0312 23.6328 36.377C23.3398 37.3047 23.2422 38.1836 23.2422 39.0137C23.2422 40.5762 24.3164 41.8945 26.2695 41.8945C27.9297 41.8945 28.8574 41.2109 29.3457 39.5508C30.127 36.6699 31.6895 34.8145 34.4238 34.8145C37.6465 34.8145 39.209 37.3535 39.209 40.5762C39.209 44.1406 37.207 46.7285 33.5449 46.7285L32.373 46.7285C30.7129 46.7285 29.6875 47.7539 29.6875 49.3164C29.6875 50.9277 30.7617 51.9043 32.373 51.9043L33.5938 51.9043C37.7441 51.9043 40.0391 54.1504 40.0391 58.4473C40.0391 61.8164 38.2812 64.6484 34.6191 64.6484C31.0547 64.6484 29.4922 62.2559 28.9062 60.0586C28.418 58.4961 27.3926 57.666 25.7812 57.666C23.877 57.666 22.6074 58.7891 22.6074 60.7422C22.6074 61.6211 22.7539 62.5 22.998 63.2812C24.4141 67.8223 29.3457 70.3613 34.6191 70.3613ZM64.7461 70.5078C74.5117 70.5078 77.3926 59.5703 77.3926 49.7559C77.3926 39.9414 74.5117 29.0039 64.7461 29.0039C55.0293 29.0039 52.1484 39.9414 52.1484 49.7559C52.1484 59.5703 55.0293 70.5078 64.7461 70.5078ZM64.7461 64.6973C60.791 64.6973 59.2773 58.2031 59.2773 49.7559C59.2773 41.2598 60.791 34.7656 64.7461 34.7656C68.75 34.7656 70.2637 41.2598 70.2637 49.7559C70.2637 58.2031 68.75 64.6973 64.7461 64.6973Z" fill="#000000" fill-opacity="0.85"/>
 </g>
</svg>
