<?xml version="1.0" encoding="UTF-8"?>
<!--Generator: Apple Native CoreSVG 232.5-->
<!DOCTYPE svg
PUBLIC "-//W3C//DTD SVG 1.1//EN"
       "http://www.w3.org/Graphics/SVG/1.1/DTD/svg11.dtd">
<svg version="1.1" xmlns="http://www.w3.org/2000/svg" xmlns:xlink="http://www.w3.org/1999/xlink" width="89.8926" height="89.9902">
 <g>
  <rect height="89.9902" opacity="0" width="89.8926" x="0" y="0"/>
  <path d="M15.332 89.9902L74.5605 89.9902C84.8145 89.9902 89.8926 84.9121 89.8926 74.8535L89.8926 15.2344C89.8926 5.17578 84.8145 0.0976562 74.5605 0.0976562L15.332 0.0976562C5.12695 0.0976562 0 5.12695 0 15.2344L0 74.8535C0 84.9609 5.12695 89.9902 15.332 89.9902ZM15.4297 82.1289C10.5469 82.1289 7.86133 79.541 7.86133 74.4629L7.86133 15.625C7.86133 10.5469 10.5469 7.95898 15.4297 7.95898L74.4629 7.95898C79.2969 7.95898 82.0312 10.5469 82.0312 15.625L82.0312 74.4629C82.0312 79.541 79.2969 82.1289 74.4629 82.1289Z" fill="#000000" fill-opacity="0.85"/>
  <path d="M29.834 65.5273C36.8652 65.5273 42.2363 61.1328 42.2363 53.8086C42.2363 47.7539 38.623 44.7754 34.4727 44.3359L34.4727 44.1406C38.916 42.9688 41.0645 39.0625 41.0645 34.9609C41.0645 28.2227 36.0352 24.3652 29.6387 24.3652C24.6094 24.3652 20.2637 27.1973 18.8477 31.543C18.5547 32.4707 18.457 33.3496 18.457 34.1797C18.457 35.7422 19.5312 37.0605 21.4844 37.0605C23.1445 37.0605 24.1211 36.377 24.5605 34.7168C25.3418 31.8359 26.9043 29.9805 29.6387 29.9805C32.8613 29.9805 34.4238 32.5195 34.4238 35.7422C34.4238 39.3066 32.4219 41.8945 28.7598 41.8945L27.5879 41.8945C25.9277 41.8945 24.9023 42.9199 24.9023 44.4824C24.9023 46.0938 25.9766 47.0703 27.5879 47.0703L28.8086 47.0703C32.959 47.0703 35.2539 49.3164 35.2539 53.6133C35.2539 56.9824 33.4961 59.8145 29.834 59.8145C26.3184 59.8145 24.707 57.4219 24.1211 55.2246C23.6328 53.6621 22.6074 52.832 21.0449 52.832C19.0918 52.832 17.8223 53.9551 17.8223 55.9082C17.8223 56.7871 17.9688 57.666 18.2129 58.4473C19.6289 62.9883 24.6094 65.5273 29.834 65.5273ZM60.0098 65.6738C69.7266 65.6738 72.6074 54.7363 72.6074 44.9219C72.6074 35.1074 69.7266 24.1699 60.0098 24.1699C50.2441 24.1699 47.3633 35.1074 47.3633 44.9219C47.3633 54.7363 50.2441 65.6738 60.0098 65.6738ZM60.0098 59.8633C56.0059 59.8633 54.4922 53.3691 54.4922 44.9219C54.4922 36.4258 56.0059 29.9316 60.0098 29.9316C64.0137 29.9316 65.4785 36.4258 65.4785 44.9219C65.4785 53.3691 64.0137 59.8633 60.0098 59.8633Z" fill="#000000" fill-opacity="0.85"/>
 </g>
</svg>
