<?xml version="1.0" encoding="UTF-8"?>
<!--Generator: Apple Native CoreSVG 232.5-->
<!DOCTYPE svg
PUBLIC "-//W3C//DTD SVG 1.1//EN"
       "http://www.w3.org/Graphics/SVG/1.1/DTD/svg11.dtd">
<svg version="1.1" xmlns="http://www.w3.org/2000/svg" xmlns:xlink="http://www.w3.org/1999/xlink" width="89.8926" height="89.9902">
 <g>
  <rect height="89.9902" opacity="0" width="89.8926" x="0" y="0"/>
  <path d="M89.8926 15.2344L89.8926 74.8535C89.8926 84.9121 84.8145 89.9902 74.5605 89.9902L15.332 89.9902C5.12695 89.9902 0 84.9609 0 74.8535L0 15.2344C0 5.12695 5.12695 0.0976562 15.332 0.0976562L74.5605 0.0976562C84.8145 0.0976562 89.8926 5.17578 89.8926 15.2344ZM47.4121 44.9219C47.4121 55.0781 50.3906 66.3086 60.498 66.3086C70.5078 66.3086 73.4863 55.0781 73.4863 44.9219C73.4863 34.7656 70.5078 23.5352 60.498 23.5352C50.3906 23.5352 47.4121 34.7656 47.4121 44.9219ZM17.9688 31.1035C17.6758 32.0801 17.5781 33.0078 17.5781 33.8379C17.5781 35.4492 18.7012 36.8164 20.7031 36.8164C22.4609 36.8164 23.4375 36.1328 23.9258 34.4238C24.707 31.4453 26.3184 29.5898 29.1504 29.5898C32.4707 29.5898 34.0332 32.1289 34.0332 35.4492C34.0332 39.1113 31.9824 41.7969 28.2227 41.7969L27.0508 41.7969C25.293 41.7969 24.2676 42.8711 24.2676 44.4824C24.2676 46.1426 25.3418 47.168 27.0508 47.168L28.2715 47.168C32.5684 47.168 34.9121 49.4629 34.9121 53.9062C34.9121 57.3242 33.1055 60.2539 29.3457 60.2539C25.7324 60.2539 24.0723 57.8125 23.4863 55.5664C22.9492 53.9062 21.875 53.0762 20.2637 53.0762C18.2617 53.0762 16.9434 54.248 16.9434 56.25C16.9434 57.1777 17.0898 58.0566 17.334 58.8867C18.7988 63.5742 23.9258 66.1621 29.3457 66.1621C36.6211 66.1621 42.1387 61.6211 42.1387 54.1016C42.1387 47.8516 38.4277 44.7754 34.1309 44.3359L34.1309 44.1406C38.7207 42.9199 40.918 38.8672 40.918 34.668C40.918 27.6855 35.7422 23.7305 29.1504 23.7305C23.9258 23.7305 19.4336 26.6602 17.9688 31.1035ZM66.1133 44.9219C66.1133 53.6621 64.5996 60.3027 60.498 60.3027C56.3965 60.3027 54.834 53.6621 54.834 44.9219C54.834 36.1328 56.3965 29.4922 60.498 29.4922C64.5996 29.4922 66.1133 36.1328 66.1133 44.9219Z" fill="#000000" fill-opacity="0.85"/>
 </g>
</svg>
