<?xml version="1.0" encoding="UTF-8"?>
<!--Generator: Apple Native CoreSVG 232.5-->
<!DOCTYPE svg
PUBLIC "-//W3C//DTD SVG 1.1//EN"
       "http://www.w3.org/Graphics/SVG/1.1/DTD/svg11.dtd">
<svg version="1.1" xmlns="http://www.w3.org/2000/svg" xmlns:xlink="http://www.w3.org/1999/xlink" width="99.6094" height="99.6582">
 <g>
  <rect height="99.6582" opacity="0" width="99.6094" x="0" y="0"/>
  <path d="M99.6094 49.8047C99.6094 77.002 77.0508 99.6094 49.8047 99.6094C22.6074 99.6094 0 77.002 0 49.8047C0 22.5586 22.5586 0 49.7559 0C77.002 0 99.6094 22.5586 99.6094 49.8047ZM26.6602 35.9863C26.3672 36.9629 26.2695 37.8418 26.2695 38.7207C26.2695 40.3809 27.3438 41.6992 29.3457 41.6992C31.0547 41.6992 32.0801 41.0645 32.5684 39.3066C33.3984 36.3281 34.9609 34.4727 37.793 34.4727C41.1133 34.4727 42.6758 37.0117 42.6758 40.332C42.6758 43.9941 40.6738 46.6797 36.8652 46.6797L35.6934 46.6797C33.9844 46.6797 32.9102 47.7539 32.9102 49.4141C32.9102 51.0742 34.0332 52.0508 35.6934 52.0508L36.9141 52.0508C41.2109 52.0508 43.5547 54.3945 43.5547 58.7402C43.5547 62.207 41.6992 65.1855 37.9883 65.1855C34.3262 65.1855 32.7148 62.7441 32.0801 60.4492C31.5918 58.7891 30.5176 57.959 28.9062 57.959C26.9043 57.959 25.5859 59.1797 25.5859 61.1328C25.5859 62.0605 25.7324 62.9395 25.9766 63.7695C27.4414 68.457 32.5684 71.0449 37.9883 71.0449C45.2148 71.0449 50.7812 66.5039 50.7812 58.9844C50.7812 52.7344 47.0215 49.6582 42.7734 49.2188L42.7734 49.0723C47.3145 47.8516 49.6094 43.75 49.6094 39.5508C49.6094 32.5684 44.3359 28.6133 37.793 28.6133C32.6172 28.6133 28.0762 31.543 26.6602 35.9863ZM62.1094 30.8594L56.5918 35.1562C55.6641 35.8398 54.9805 36.8164 54.9805 38.1348C54.9805 39.6973 56.0547 40.8203 57.5684 40.8203C58.3496 40.8203 58.8867 40.5762 59.375 40.1855L64.0137 36.4746L64.0137 66.9922C64.0137 69.043 65.6738 70.7031 67.7246 70.7031C69.7266 70.7031 71.3867 69.043 71.3867 66.9922L71.3867 32.9102C71.3867 30.3223 69.7754 28.8086 67.1387 28.8086C64.9902 28.8086 63.2812 29.9805 62.1094 30.8594Z" fill="#000000" fill-opacity="0.85"/>
 </g>
</svg>
