<?xml version="1.0" encoding="UTF-8"?>
<!--Generator: Apple Native CoreSVG 232.5-->
<!DOCTYPE svg
PUBLIC "-//W3C//DTD SVG 1.1//EN"
       "http://www.w3.org/Graphics/SVG/1.1/DTD/svg11.dtd">
<svg version="1.1" xmlns="http://www.w3.org/2000/svg" xmlns:xlink="http://www.w3.org/1999/xlink" width="99.6094" height="99.6582">
 <g>
  <rect height="99.6582" opacity="0" width="99.6094" x="0" y="0"/>
  <path d="M49.8047 99.6094C77.0508 99.6094 99.6094 77.002 99.6094 49.8047C99.6094 22.5586 77.002 0 49.7559 0C22.5586 0 0 22.5586 0 49.8047C0 77.002 22.6074 99.6094 49.8047 99.6094ZM49.8047 91.3086C26.7578 91.3086 8.34961 72.8516 8.34961 49.8047C8.34961 26.7578 26.709 8.30078 49.7559 8.30078C72.8027 8.30078 91.3086 26.7578 91.3086 49.8047C91.3086 72.8516 72.8516 91.3086 49.8047 91.3086Z" fill="#000000" fill-opacity="0.85"/>
  <path d="M38.2812 70.4102C45.2637 70.4102 50.6836 66.0156 50.6836 58.6914C50.6836 52.6367 47.0215 49.6582 42.9199 49.2188L42.9199 49.0723C47.3145 47.9004 49.5117 43.9453 49.5117 39.8438C49.5117 33.1055 44.4336 29.248 38.0859 29.248C33.0566 29.248 28.6621 32.0801 27.2949 36.4258C27.002 37.3535 26.9043 38.2324 26.9043 39.0625C26.9043 40.6738 27.9785 41.9434 29.8828 41.9434C31.543 41.9434 32.5195 41.3086 33.0078 39.5996C33.7891 36.7188 35.3516 34.9121 38.0859 34.9121C41.3086 34.9121 42.8223 37.4023 42.8223 40.625C42.8223 44.1895 40.8691 46.7773 37.207 46.7773L36.0352 46.7773C34.375 46.7773 33.3496 47.8027 33.3496 49.4141C33.3496 51.0254 34.4238 51.9531 36.0352 51.9531L37.2559 51.9531C41.4062 51.9531 43.7012 54.248 43.7012 58.4961C43.7012 61.8652 41.8945 64.7461 38.2812 64.7461C34.7168 64.7461 33.1543 62.3535 32.5195 60.1074C32.0801 58.5449 31.0059 57.7148 29.4434 57.7148C27.5391 57.7148 26.2695 58.8867 26.2695 60.791C26.2695 61.6699 26.416 62.5488 26.6602 63.3301C28.0762 67.8711 33.0078 70.4102 38.2812 70.4102ZM67.0898 70.0684C68.9941 70.0684 70.6055 68.457 70.6055 66.5039L70.6055 33.3984C70.6055 30.9082 69.043 29.4434 66.5039 29.4434C64.4531 29.4434 62.793 30.5664 61.6699 31.4453L56.2988 35.5957C55.4199 36.2793 54.7363 37.207 54.7363 38.4766C54.7363 39.9902 55.7617 41.0645 57.2266 41.0645C58.0078 41.0645 58.4961 40.8203 58.9844 40.4785L63.4766 36.8652L63.4766 66.5039C63.4766 68.457 65.0879 70.0684 67.0898 70.0684Z" fill="#000000" fill-opacity="0.85"/>
 </g>
</svg>
