<?xml version="1.0" encoding="UTF-8"?>
<!--Generator: Apple Native CoreSVG 232.5-->
<!DOCTYPE svg
PUBLIC "-//W3C//DTD SVG 1.1//EN"
       "http://www.w3.org/Graphics/SVG/1.1/DTD/svg11.dtd">
<svg version="1.1" xmlns="http://www.w3.org/2000/svg" xmlns:xlink="http://www.w3.org/1999/xlink" width="89.8926" height="89.9902">
 <g>
  <rect height="89.9902" opacity="0" width="89.8926" x="0" y="0"/>
  <path d="M89.8926 15.2344L89.8926 74.8535C89.8926 84.9121 84.8145 89.9902 74.5605 89.9902L15.332 89.9902C5.12695 89.9902 0 84.9609 0 74.8535L0 15.2344C0 5.12695 5.12695 0.0976562 15.332 0.0976562L74.5605 0.0976562C84.8145 0.0976562 89.8926 5.17578 89.8926 15.2344ZM21.8262 31.1523C21.5332 32.1289 21.4355 33.0078 21.4355 33.8867C21.4355 35.5469 22.5098 36.8652 24.5117 36.8652C26.2695 36.8652 27.2461 36.2305 27.7344 34.4727C28.5645 31.4941 30.127 29.6387 32.959 29.6387C36.2793 29.6387 37.8906 32.1777 37.8906 35.498C37.8906 39.1602 35.8398 41.8457 32.0312 41.8457L30.8594 41.8457C29.1504 41.8457 28.0762 42.9199 28.0762 44.5801C28.0762 46.2402 29.1992 47.2168 30.8594 47.2168L32.0801 47.2168C36.377 47.2168 38.7207 49.5605 38.7207 53.9062C38.7207 57.373 36.8652 60.3516 33.1543 60.3516C29.4922 60.3516 27.8809 57.9102 27.2949 55.6152C26.7578 53.9551 25.7324 53.125 24.0723 53.125C22.0703 53.125 20.752 54.3457 20.752 56.2988C20.752 57.2266 20.8984 58.1055 21.1426 58.9355C22.6074 63.623 27.7344 66.2109 33.1543 66.2109C40.3809 66.2109 45.9473 61.6699 45.9473 54.1504C45.9473 47.9004 42.1875 44.8242 37.9395 44.3848L37.9395 44.2383C42.5293 43.0176 44.7754 38.916 44.7754 34.7168C44.7754 27.7344 39.502 23.7793 32.959 23.7793C27.7832 23.7793 23.2422 26.709 21.8262 31.1523ZM57.2754 26.0254L51.7578 30.3223C50.8301 31.0059 50.1465 31.9824 50.1465 33.3008C50.1465 34.8633 51.2207 35.9863 52.7832 35.9863C53.5156 35.9863 54.0527 35.7422 54.541 35.3516L59.1797 31.6406L59.1797 62.1582C59.1797 64.209 60.8398 65.8691 62.8906 65.8691C64.8926 65.8691 66.5527 64.209 66.5527 62.1582L66.5527 28.0762C66.5527 25.4883 64.9414 23.9746 62.3047 23.9746C60.1562 23.9746 58.4473 25.1465 57.2754 26.0254Z" fill="#000000" fill-opacity="0.85"/>
 </g>
</svg>
