<?xml version="1.0" encoding="UTF-8"?>
<!--Generator: Apple Native CoreSVG 232.5-->
<!DOCTYPE svg
PUBLIC "-//W3C//DTD SVG 1.1//EN"
       "http://www.w3.org/Graphics/SVG/1.1/DTD/svg11.dtd">
<svg version="1.1" xmlns="http://www.w3.org/2000/svg" xmlns:xlink="http://www.w3.org/1999/xlink" width="89.8926" height="89.9902">
 <g>
  <rect height="89.9902" opacity="0" width="89.8926" x="0" y="0"/>
  <path d="M15.332 89.9902L74.5605 89.9902C84.8145 89.9902 89.8926 84.9121 89.8926 74.8535L89.8926 15.2344C89.8926 5.17578 84.8145 0.0976562 74.5605 0.0976562L15.332 0.0976562C5.12695 0.0976562 0 5.12695 0 15.2344L0 74.8535C0 84.9609 5.12695 89.9902 15.332 89.9902ZM15.4297 82.1289C10.5469 82.1289 7.86133 79.541 7.86133 74.4629L7.86133 15.625C7.86133 10.5469 10.5469 7.95898 15.4297 7.95898L74.4629 7.95898C79.2969 7.95898 82.0312 10.5469 82.0312 15.625L82.0312 74.4629C82.0312 79.541 79.2969 82.1289 74.4629 82.1289Z" fill="#000000" fill-opacity="0.85"/>
  <path d="M33.4961 65.5762C40.4785 65.5762 45.8984 61.1816 45.8984 53.8574C45.8984 47.8027 42.2363 44.8242 38.1348 44.3848L38.1348 44.2383C42.5781 43.0664 44.7266 39.1113 44.7266 35.0098C44.7266 28.2715 39.6484 24.4141 33.3008 24.4141C28.2715 24.4141 23.877 27.2461 22.5098 31.5918C22.2168 32.5195 22.1191 33.3984 22.1191 34.2285C22.1191 35.8398 23.1934 37.1094 25.0977 37.1094C26.8066 37.1094 27.7344 36.4746 28.2227 34.7656C29.0039 31.8848 30.5664 30.0781 33.3008 30.0781C36.5234 30.0781 38.0859 32.5684 38.0859 35.791C38.0859 39.3555 36.084 41.9434 32.4219 41.9434L31.25 41.9434C29.5898 41.9434 28.5645 42.9688 28.5645 44.5801C28.5645 46.1914 29.6387 47.1191 31.25 47.1191L32.4707 47.1191C36.6211 47.1191 38.916 49.4141 38.916 53.6621C38.916 57.0312 37.1094 59.9121 33.4961 59.9121C29.9316 59.9121 28.3691 57.5195 27.7832 55.2734C27.2949 53.7109 26.2695 52.8809 24.6582 52.8809C22.7539 52.8809 21.4844 54.0527 21.4844 55.957C21.4844 56.8359 21.6309 57.7148 21.875 58.4961C23.291 63.0371 28.2227 65.5762 33.4961 65.5762ZM62.3047 65.2344C64.209 65.2344 65.8203 63.623 65.8203 61.6699L65.8203 28.5645C65.8203 26.0742 64.2578 24.6094 61.7188 24.6094C59.668 24.6094 58.0078 25.7324 56.8848 26.6113L51.5137 30.7617C50.6348 31.4453 49.9512 32.373 49.9512 33.6426C49.9512 35.1562 50.9766 36.2305 52.4902 36.2305C53.2227 36.2305 53.7109 35.9863 54.1992 35.6445L58.6914 32.0312L58.6914 61.6699C58.6914 63.623 60.3027 65.2344 62.3047 65.2344Z" fill="#000000" fill-opacity="0.85"/>
 </g>
</svg>
