<?xml version="1.0" encoding="UTF-8"?>
<!--Generator: Apple Native CoreSVG 232.5-->
<!DOCTYPE svg
PUBLIC "-//W3C//DTD SVG 1.1//EN"
       "http://www.w3.org/Graphics/SVG/1.1/DTD/svg11.dtd">
<svg version="1.1" xmlns="http://www.w3.org/2000/svg" xmlns:xlink="http://www.w3.org/1999/xlink" width="99.6094" height="99.6582">
 <g>
  <rect height="99.6582" opacity="0" width="99.6094" x="0" y="0"/>
  <path d="M99.6094 49.8047C99.6094 77.002 77.0508 99.6094 49.8047 99.6094C22.6074 99.6094 0 77.002 0 49.8047C0 22.5586 22.5586 0 49.7559 0C77.002 0 99.6094 22.5586 99.6094 49.8047ZM23.3887 35.9863C23.1445 36.9629 23.0469 37.8906 23.0469 38.7207C23.0469 40.3809 24.1699 41.6992 26.123 41.6992C27.832 41.6992 28.8574 41.0645 29.3945 39.3066C30.1758 36.3281 31.7871 34.4727 34.5703 34.4727C37.8906 34.4727 39.4531 37.0117 39.4531 40.332C39.4531 43.9941 37.4512 46.6797 33.6914 46.6797L32.4707 46.6797C30.7617 46.6797 29.6875 47.7539 29.6875 49.4141C29.6875 51.0742 30.8105 52.0508 32.4707 52.0508L33.7402 52.0508C37.9883 52.0508 40.3809 54.3945 40.3809 58.7891C40.3809 62.2559 38.5254 65.1855 34.8145 65.1855C31.1523 65.1855 29.541 62.7441 28.8574 60.4492C28.418 58.7891 27.2949 57.959 25.6836 57.959C23.7305 57.959 22.4121 59.1797 22.4121 61.1328C22.4121 62.0605 22.5586 62.9395 22.8027 63.7695C24.2676 68.457 29.3457 71.0449 34.8145 71.0449C41.9922 71.0449 47.5586 66.5527 47.5586 58.9844C47.5586 52.7344 43.7988 49.6582 39.5996 49.2188L39.5996 49.0723C44.1406 47.8516 46.3867 43.75 46.3867 39.5508C46.3867 32.5684 41.1621 28.6133 34.5703 28.6133C29.3945 28.6133 24.8535 31.543 23.3887 35.9863ZM52.832 38.9648C52.832 40.8691 53.9551 42.1875 55.8594 42.1875C57.5195 42.1875 58.5449 41.4062 59.1309 39.7461C60.0098 36.377 61.2793 34.2773 64.1113 34.2773C67.1875 34.2773 68.8965 36.9141 68.8965 40.4785C68.8965 44.5312 66.0645 48.6328 63.3789 52.002L54.6387 63.1836C53.7598 64.4043 52.7832 65.625 52.7832 67.2363C52.7832 68.9453 53.9062 70.166 56.1523 70.166L73.6328 70.166C75.4883 70.166 76.5137 68.9941 76.5137 67.2363C76.5137 65.2832 75.4395 64.209 73.6328 64.209L61.7188 64.209L61.7188 63.8184L69.0918 54.541C74.1211 48.291 75.7812 44.5801 75.7812 40.1367C75.7812 33.3496 71.1426 28.418 64.1602 28.418C57.7148 28.418 52.832 33.7402 52.832 38.9648Z" fill="#000000" fill-opacity="0.85"/>
 </g>
</svg>
