<?xml version="1.0" encoding="UTF-8"?>
<!--Generator: Apple Native CoreSVG 232.5-->
<!DOCTYPE svg
PUBLIC "-//W3C//DTD SVG 1.1//EN"
       "http://www.w3.org/Graphics/SVG/1.1/DTD/svg11.dtd">
<svg version="1.1" xmlns="http://www.w3.org/2000/svg" xmlns:xlink="http://www.w3.org/1999/xlink" width="99.6094" height="99.6582">
 <g>
  <rect height="99.6582" opacity="0" width="99.6094" x="0" y="0"/>
  <path d="M49.8047 99.6094C77.0508 99.6094 99.6094 77.002 99.6094 49.8047C99.6094 22.5586 77.002 0 49.7559 0C22.5586 0 0 22.5586 0 49.8047C0 77.002 22.6074 99.6094 49.8047 99.6094ZM49.8047 91.3086C26.7578 91.3086 8.34961 72.8516 8.34961 49.8047C8.34961 26.7578 26.709 8.30078 49.7559 8.30078C72.8027 8.30078 91.3086 26.7578 91.3086 49.8047C91.3086 72.8516 72.8516 91.3086 49.8047 91.3086Z" fill="#000000" fill-opacity="0.85"/>
  <path d="M35.2051 70.4102C42.1875 70.4102 47.5586 66.0156 47.5586 58.6914C47.5586 52.6367 43.9453 49.6582 39.8438 49.2188L39.8438 49.0723C44.2383 47.9004 46.4355 43.9453 46.4355 39.8438C46.4355 33.1055 41.3574 29.248 35.0098 29.248C29.9805 29.248 25.5859 32.0801 24.1699 36.4258C23.9258 37.3535 23.8281 38.2324 23.8281 39.0625C23.8281 40.6738 24.9023 41.9434 26.8066 41.9434C28.4668 41.9434 29.4434 41.3086 29.9316 39.5996C30.7129 36.7188 32.2754 34.9121 35.0098 34.9121C38.2324 34.9121 39.7461 37.4023 39.7461 40.625C39.7461 44.1895 37.793 46.7773 34.1309 46.7773L32.959 46.7773C31.2988 46.7773 30.2734 47.8027 30.2734 49.4141C30.2734 51.0254 31.3477 51.9531 32.959 51.9531L34.1797 51.9531C38.3301 51.9531 40.625 54.248 40.625 58.4961C40.625 61.8652 38.8184 64.7461 35.2051 64.7461C31.6406 64.7461 30.0781 62.3535 29.4434 60.1074C29.0039 58.5449 27.9297 57.7148 26.3672 57.7148C24.4629 57.7148 23.1934 58.8867 23.1934 60.791C23.1934 61.6699 23.3398 62.5488 23.584 63.3301C24.9512 67.8711 29.9316 70.4102 35.2051 70.4102ZM55.9082 69.5312L72.8516 69.5312C74.6094 69.5312 75.6348 68.4082 75.6348 66.6992C75.6348 64.8438 74.5605 63.8184 72.8516 63.8184L61.2793 63.8184L61.2793 63.4277L68.4082 54.3945C73.291 48.3398 74.9023 44.7266 74.9023 40.4297C74.9023 33.8379 70.4102 29.0527 63.6719 29.0527C57.4219 29.0527 52.6855 34.2285 52.6855 39.3066C52.6855 41.1133 53.7598 42.3828 55.6152 42.3828C57.2266 42.3828 58.2031 41.6504 58.7402 40.0391C59.6191 36.7676 60.8398 34.7168 63.623 34.7168C66.6016 34.7168 68.2617 37.3047 68.2617 40.7715C68.2617 44.6777 65.5273 48.6328 62.9395 51.9531L54.4434 62.793C53.5645 63.9648 52.6367 65.1855 52.6367 66.6992C52.6367 68.3594 53.7109 69.5312 55.9082 69.5312Z" fill="#000000" fill-opacity="0.85"/>
 </g>
</svg>
