<?xml version="1.0" encoding="UTF-8"?>
<!--Generator: Apple Native CoreSVG 232.5-->
<!DOCTYPE svg
PUBLIC "-//W3C//DTD SVG 1.1//EN"
       "http://www.w3.org/Graphics/SVG/1.1/DTD/svg11.dtd">
<svg version="1.1" xmlns="http://www.w3.org/2000/svg" xmlns:xlink="http://www.w3.org/1999/xlink" width="99.6094" height="99.6582">
 <g>
  <rect height="99.6582" opacity="0" width="99.6094" x="0" y="0"/>
  <path d="M99.6094 49.8047C99.6094 77.002 77.0508 99.6094 49.8047 99.6094C22.6074 99.6094 0 77.002 0 49.8047C0 22.5586 22.5586 0 49.7559 0C77.002 0 99.6094 22.5586 99.6094 49.8047ZM23.291 35.9863C22.998 36.9629 22.9004 37.8418 22.9004 38.7207C22.9004 40.3809 23.9746 41.6992 25.9766 41.6992C27.7344 41.6992 28.7109 41.0645 29.1992 39.3066C30.0293 36.3281 31.5918 34.4727 34.4238 34.4727C37.7441 34.4727 39.3066 37.0117 39.3066 40.332C39.3066 43.9941 37.3047 46.6797 33.4961 46.6797L32.3242 46.6797C30.6152 46.6797 29.541 47.7539 29.541 49.4141C29.541 51.0742 30.6641 52.0508 32.3242 52.0508L33.5449 52.0508C37.8418 52.0508 40.1855 54.3945 40.1855 58.7402C40.1855 62.207 38.3301 65.1855 34.6191 65.1855C30.957 65.1855 29.3457 62.7441 28.7109 60.4492C28.2227 58.7891 27.1484 57.959 25.5371 57.959C23.5352 57.959 22.2168 59.1797 22.2168 61.1328C22.2168 62.0605 22.3633 62.9395 22.6074 63.7695C24.0723 68.457 29.1992 71.0449 34.6191 71.0449C41.8457 71.0449 47.4121 66.5039 47.4121 58.9844C47.4121 52.7344 43.6523 49.6582 39.4043 49.2188L39.4043 49.0723C43.9453 47.8516 46.2402 43.75 46.2402 39.5508C46.2402 32.5684 40.9668 28.6133 34.4238 28.6133C29.248 28.6133 24.707 31.543 23.291 35.9863ZM53.7598 35.9863C53.5156 36.9629 53.3691 37.8418 53.3691 38.7207C53.3691 40.3809 54.4922 41.6992 56.4941 41.6992C58.2031 41.6992 59.2285 41.0645 59.7656 39.3066C60.498 36.3281 62.1094 34.4727 64.8926 34.4727C68.2129 34.4727 69.8242 37.0117 69.8242 40.332C69.8242 43.9941 67.7734 46.6797 64.0137 46.6797L62.793 46.6797C61.1328 46.6797 60.0098 47.7539 60.0098 49.4141C60.0098 51.0742 61.1328 52.0508 62.793 52.0508L64.1113 52.0508C68.3594 52.0508 70.7031 54.3945 70.7031 58.7402C70.7031 62.207 68.8965 65.1855 65.1367 65.1855C61.5234 65.1855 59.8633 62.7441 59.2285 60.4492C58.7402 58.7891 57.666 57.959 56.0547 57.959C54.1016 57.959 52.7344 59.1797 52.7344 61.1328C52.7344 62.0605 52.8809 62.9395 53.125 63.7695C54.5898 68.457 59.7168 71.0449 65.1367 71.0449C72.3633 71.0449 77.9297 66.5039 77.9297 58.9844C77.9297 52.7344 74.1699 49.6582 69.9219 49.2188L69.9219 49.0723C74.5117 47.8516 76.709 43.75 76.709 39.5508C76.709 32.5684 71.5332 28.6133 64.8926 28.6133C59.7168 28.6133 55.2246 31.543 53.7598 35.9863Z" fill="#000000" fill-opacity="0.85"/>
 </g>
</svg>
