<?xml version="1.0" encoding="UTF-8"?>
<!--Generator: Apple Native CoreSVG 232.5-->
<!DOCTYPE svg
PUBLIC "-//W3C//DTD SVG 1.1//EN"
       "http://www.w3.org/Graphics/SVG/1.1/DTD/svg11.dtd">
<svg version="1.1" xmlns="http://www.w3.org/2000/svg" xmlns:xlink="http://www.w3.org/1999/xlink" width="89.8926" height="89.9902">
 <g>
  <rect height="89.9902" opacity="0" width="89.8926" x="0" y="0"/>
  <path d="M15.332 89.9902L74.5605 89.9902C84.8145 89.9902 89.8926 84.9121 89.8926 74.8535L89.8926 15.2344C89.8926 5.17578 84.8145 0.0976562 74.5605 0.0976562L15.332 0.0976562C5.12695 0.0976562 0 5.12695 0 15.2344L0 74.8535C0 84.9609 5.12695 89.9902 15.332 89.9902ZM15.4297 82.1289C10.5469 82.1289 7.86133 79.541 7.86133 74.4629L7.86133 15.625C7.86133 10.5469 10.5469 7.95898 15.4297 7.95898L74.4629 7.95898C79.2969 7.95898 82.0312 10.5469 82.0312 15.625L82.0312 74.4629C82.0312 79.541 79.2969 82.1289 74.4629 82.1289Z" fill="#000000" fill-opacity="0.85"/>
  <path d="M30.2734 65.5762C37.2559 65.5762 42.6758 61.1816 42.6758 53.8574C42.6758 47.8027 39.0137 44.8242 34.9121 44.3848L34.9121 44.2383C39.3555 43.0664 41.5039 39.1113 41.5039 35.0098C41.5039 28.2715 36.4258 24.4141 30.0781 24.4141C25.0488 24.4141 20.6543 27.2461 19.2871 31.5918C18.9941 32.5195 18.8965 33.3984 18.8965 34.2285C18.8965 35.8398 19.9707 37.1094 21.875 37.1094C23.584 37.1094 24.5117 36.4746 25 34.7656C25.7812 31.8848 27.3438 30.0781 30.0781 30.0781C33.3008 30.0781 34.8633 32.5684 34.8633 35.791C34.8633 39.3555 32.8613 41.9434 29.1992 41.9434L28.0273 41.9434C26.3672 41.9434 25.3418 42.9688 25.3418 44.5801C25.3418 46.1914 26.416 47.1191 28.0273 47.1191L29.248 47.1191C33.3984 47.1191 35.6934 49.4141 35.6934 53.6621C35.6934 57.0312 33.8867 59.9121 30.2734 59.9121C26.709 59.9121 25.1465 57.5195 24.5605 55.2734C24.0723 53.7109 23.0469 52.8809 21.4355 52.8809C19.5312 52.8809 18.2617 54.0527 18.2617 55.957C18.2617 56.8359 18.4082 57.7148 18.6523 58.4961C20.0684 63.0371 25 65.5762 30.2734 65.5762ZM59.8145 65.5762C66.8457 65.5762 72.2168 61.1816 72.2168 53.8574C72.2168 47.8027 68.6035 44.8242 64.4531 44.3848L64.4531 44.2383C68.8965 43.0664 71.0449 39.1113 71.0449 35.0098C71.0449 28.2715 66.0156 24.4141 59.668 24.4141C54.5898 24.4141 50.2441 27.2461 48.8281 31.5918C48.584 32.5195 48.4863 33.3984 48.4863 34.2285C48.4863 35.8398 49.5117 37.1094 51.4648 37.1094C53.125 37.1094 54.1016 36.4746 54.5898 34.7656C55.3711 31.8848 56.8848 30.0781 59.668 30.0781C62.8906 30.0781 64.4043 32.5684 64.4043 35.791C64.4043 39.3555 62.4023 41.9434 58.7402 41.9434L57.6172 41.9434C55.957 41.9434 54.8828 42.9688 54.8828 44.5801C54.8828 46.1914 55.957 47.1191 57.6172 47.1191L58.8379 47.1191C62.9883 47.1191 65.2832 49.4141 65.2832 53.6621C65.2832 57.0312 63.4766 59.9121 59.8633 59.9121C56.2988 59.9121 54.6875 57.5195 54.1016 55.2734C53.6621 53.7109 52.5879 52.8809 51.0254 52.8809C49.1211 52.8809 47.8027 54.0527 47.8027 55.957C47.8027 56.8359 47.9492 57.7148 48.1934 58.4961C49.6094 63.0371 54.5898 65.5762 59.8145 65.5762Z" fill="#000000" fill-opacity="0.85"/>
 </g>
</svg>
