<?xml version="1.0" encoding="UTF-8"?>
<!--Generator: Apple Native CoreSVG 232.5-->
<!DOCTYPE svg
PUBLIC "-//W3C//DTD SVG 1.1//EN"
       "http://www.w3.org/Graphics/SVG/1.1/DTD/svg11.dtd">
<svg version="1.1" xmlns="http://www.w3.org/2000/svg" xmlns:xlink="http://www.w3.org/1999/xlink" width="99.6094" height="99.6582">
 <g>
  <rect height="99.6582" opacity="0" width="99.6094" x="0" y="0"/>
  <path d="M49.8047 99.6094C77.0508 99.6094 99.6094 77.002 99.6094 49.8047C99.6094 22.5586 77.002 0 49.7559 0C22.5586 0 0 22.5586 0 49.8047C0 77.002 22.6074 99.6094 49.8047 99.6094ZM49.8047 91.3086C26.7578 91.3086 8.34961 72.8516 8.34961 49.8047C8.34961 26.7578 26.709 8.30078 49.7559 8.30078C72.8027 8.30078 91.3086 26.7578 91.3086 49.8047C91.3086 72.8516 72.8516 91.3086 49.8047 91.3086Z" fill="#000000" fill-opacity="0.85"/>
  <path d="M33.9355 70.4102C40.9668 70.4102 46.3379 66.0156 46.3379 58.6914C46.3379 52.6367 42.7246 49.6582 38.5742 49.2188L38.5742 49.0723C43.0176 47.9004 45.166 43.9453 45.166 39.8438C45.166 33.1055 40.1367 29.248 33.7402 29.248C28.7109 29.248 24.3652 32.0801 22.9492 36.4258C22.7051 37.3535 22.5586 38.2324 22.5586 39.0625C22.5586 40.6738 23.6328 41.9434 25.5859 41.9434C27.2461 41.9434 28.2227 41.3086 28.7109 39.5996C29.4434 36.7188 31.0059 34.9121 33.7402 34.9121C36.9629 34.9121 38.5254 37.4023 38.5254 40.625C38.5254 44.1895 36.5234 46.7773 32.8613 46.7773L31.6895 46.7773C30.0293 46.7773 29.0039 47.8027 29.0039 49.4141C29.0039 51.0254 30.0781 51.9531 31.6895 51.9531L32.959 51.9531C37.0605 51.9531 39.3555 54.248 39.3555 58.4961C39.3555 61.8652 37.5977 64.7461 33.9355 64.7461C30.4199 64.7461 28.8086 62.3535 28.2227 60.1074C27.7344 58.5449 26.709 57.7148 25.1465 57.7148C23.1934 57.7148 21.9238 58.8867 21.9238 60.791C21.9238 61.6699 22.0703 62.5488 22.3145 63.3301C23.7305 67.8711 28.7109 70.4102 33.9355 70.4102ZM69.5801 70.166C71.3867 70.166 72.9004 69.043 72.9004 66.6992L72.9004 61.8164L74.6582 61.8164C76.5137 61.8164 77.3926 60.5957 77.3926 58.9355C77.3926 57.373 76.6113 56.1523 74.6582 56.1523L72.9004 56.1523L72.9004 34.7168C72.9004 31.3477 70.7031 29.4434 67.4805 29.4434C64.0625 29.4434 62.4512 31.2012 61.084 34.2285L52.3438 53.1738C51.5137 55.0781 51.2695 56.3477 51.2695 57.8613C51.2695 60.2051 52.8809 61.8164 55.2734 61.8164L66.2109 61.8164L66.2109 66.6992C66.2109 69.2871 68.0176 70.166 69.5801 70.166ZM66.3574 56.2988L57.2754 56.2988L57.2754 55.957L66.1621 35.5957L66.3574 35.5957Z" fill="#000000" fill-opacity="0.85"/>
 </g>
</svg>
