<?xml version="1.0" encoding="UTF-8"?>
<!--Generator: Apple Native CoreSVG 232.5-->
<!DOCTYPE svg
PUBLIC "-//W3C//DTD SVG 1.1//EN"
       "http://www.w3.org/Graphics/SVG/1.1/DTD/svg11.dtd">
<svg version="1.1" xmlns="http://www.w3.org/2000/svg" xmlns:xlink="http://www.w3.org/1999/xlink" width="99.6094" height="99.6582">
 <g>
  <rect height="99.6582" opacity="0" width="99.6094" x="0" y="0"/>
  <path d="M99.6094 49.8047C99.6094 77.002 77.0508 99.6094 49.8047 99.6094C22.6074 99.6094 0 77.002 0 49.8047C0 22.5586 22.5586 0 49.7559 0C77.002 0 99.6094 22.5586 99.6094 49.8047ZM22.1191 35.9863C21.875 36.9629 21.7285 37.8418 21.7285 38.7207C21.7285 40.3809 22.8516 41.6992 24.8535 41.6992C26.5625 41.6992 27.5879 41.0645 28.125 39.3066C28.8574 36.3281 30.4688 34.4727 33.3008 34.4727C36.5723 34.4727 38.1836 37.0117 38.1836 40.332C38.1836 43.9941 36.1328 46.6797 32.373 46.6797L31.1523 46.6797C29.4434 46.6797 28.3691 47.7539 28.3691 49.4141C28.3691 51.0742 29.4922 52.0508 31.1523 52.0508L32.4707 52.0508C36.6699 52.0508 39.0625 54.3945 39.0625 58.7402C39.0625 62.207 37.2559 65.1855 33.4961 65.1855C29.8828 65.1855 28.2227 62.7441 27.5879 60.4492C27.0996 58.7891 26.0254 57.959 24.4141 57.959C22.4121 57.959 21.0938 59.1797 21.0938 61.1328C21.0938 62.0605 21.2402 62.9395 21.4844 63.7695C22.9492 68.457 28.0762 71.0449 33.4961 71.0449C40.7227 71.0449 46.2891 66.5039 46.2891 58.9844C46.2891 52.7344 42.5293 49.6582 38.2812 49.2188L38.2812 49.0723C42.8711 47.8516 45.0684 43.75 45.0684 39.5508C45.0684 32.5684 39.8926 28.6133 33.3008 28.6133C28.0762 28.6133 23.584 31.543 22.1191 35.9863ZM61.4746 33.7402L52.4902 53.2715C51.6113 55.2246 51.3672 56.543 51.3672 58.1055C51.3672 60.5469 53.0273 62.207 55.5176 62.207L66.7969 62.207L66.7969 67.1875C66.7969 69.873 68.6523 70.8008 70.2637 70.8008C72.1191 70.8008 73.7305 69.6289 73.7305 67.1875L73.7305 62.207L75.4883 62.207C77.4414 62.207 78.3203 60.9375 78.3203 59.2285C78.3203 57.6172 77.5391 56.3477 75.4883 56.3477L73.7305 56.3477L73.7305 34.2773C73.7305 30.7617 71.4355 28.8086 68.0664 28.8086C64.5508 28.8086 62.8906 30.6152 61.4746 33.7402ZM66.9434 56.4941L57.5684 56.4941L57.5684 56.1523L66.748 35.1562L66.9434 35.1562Z" fill="#000000" fill-opacity="0.85"/>
 </g>
</svg>
