<?xml version="1.0" encoding="UTF-8"?>
<!--Generator: Apple Native CoreSVG 232.5-->
<!DOCTYPE svg
PUBLIC "-//W3C//DTD SVG 1.1//EN"
       "http://www.w3.org/Graphics/SVG/1.1/DTD/svg11.dtd">
<svg version="1.1" xmlns="http://www.w3.org/2000/svg" xmlns:xlink="http://www.w3.org/1999/xlink" width="99.6094" height="99.6582">
 <g>
  <rect height="99.6582" opacity="0" width="99.6094" x="0" y="0"/>
  <path d="M49.8047 99.6094C77.0508 99.6094 99.6094 77.002 99.6094 49.8047C99.6094 22.5586 77.002 0 49.7559 0C22.5586 0 0 22.5586 0 49.8047C0 77.002 22.6074 99.6094 49.8047 99.6094ZM49.8047 91.3086C26.7578 91.3086 8.34961 72.8516 8.34961 49.8047C8.34961 26.7578 26.709 8.30078 49.7559 8.30078C72.8027 8.30078 91.3086 26.7578 91.3086 49.8047C91.3086 72.8516 72.8516 91.3086 49.8047 91.3086Z" fill="#000000" fill-opacity="0.85"/>
  <path d="M34.9121 70.4102C41.9434 70.4102 47.3145 66.0156 47.3145 58.6914C47.3145 52.6367 43.7012 49.6582 39.5508 49.2188L39.5508 49.0723C43.9941 47.9004 46.1426 43.9453 46.1426 39.8438C46.1426 33.1055 41.1133 29.248 34.7168 29.248C29.6875 29.248 25.3418 32.0801 23.9258 36.4258C23.6816 37.3535 23.5352 38.2324 23.5352 39.0625C23.5352 40.6738 24.6094 41.9434 26.5625 41.9434C28.2227 41.9434 29.1992 41.3086 29.6875 39.5996C30.4199 36.7188 31.9824 34.9121 34.7168 34.9121C37.9395 34.9121 39.502 37.4023 39.502 40.625C39.502 44.1895 37.5 46.7773 33.8379 46.7773L32.666 46.7773C31.0059 46.7773 29.9805 47.8027 29.9805 49.4141C29.9805 51.0254 31.0547 51.9531 32.666 51.9531L33.9355 51.9531C38.0371 51.9531 40.332 54.248 40.332 58.4961C40.332 61.8652 38.5742 64.7461 34.9121 64.7461C31.3965 64.7461 29.7852 62.3535 29.1992 60.1074C28.7109 58.5449 27.6855 57.7148 26.123 57.7148C24.1699 57.7148 22.9004 58.8867 22.9004 60.791C22.9004 61.6699 23.0469 62.5488 23.291 63.3301C24.707 67.8711 29.6875 70.4102 34.9121 70.4102ZM64.5508 70.5566C72.168 70.5566 76.3672 64.1602 76.3672 56.4453C76.3672 49.707 73.0957 43.5547 66.8457 43.5547C63.9648 43.5547 61.2793 44.873 60.0586 47.7051L59.8145 47.7051L60.5957 35.8398L72.0703 35.8398C73.7793 35.8398 74.8047 34.668 74.8047 32.959C74.8047 31.3477 73.7305 30.0781 72.0703 30.0781L58.6914 30.0781C56.1035 30.0781 54.9805 31.7383 54.7852 34.2773L54.0039 47.6562C53.9551 48.3887 53.9062 49.1699 53.9062 49.8047C53.9062 51.6602 54.8828 53.3203 57.1289 53.3203C58.4473 53.3203 59.2285 52.7832 60.2539 51.4648C61.377 49.8535 62.5977 48.6816 64.5508 48.6816C68.1641 48.6816 69.5312 53.0273 69.5312 56.6406C69.5312 60.6934 68.0664 64.8438 64.4531 64.8438C61.7188 64.8438 60.2051 62.8906 59.2773 60.2051C58.7402 58.6426 57.6172 57.9102 56.3477 57.9102C54.541 57.9102 53.418 59.0332 53.418 60.8398C53.418 61.9629 53.7109 63.0371 54.1016 64.0137C55.8105 67.9688 60.1562 70.5566 64.5508 70.5566Z" fill="#000000" fill-opacity="0.85"/>
 </g>
</svg>
