<?xml version="1.0" encoding="UTF-8"?>
<!--Generator: Apple Native CoreSVG 232.5-->
<!DOCTYPE svg
PUBLIC "-//W3C//DTD SVG 1.1//EN"
       "http://www.w3.org/Graphics/SVG/1.1/DTD/svg11.dtd">
<svg version="1.1" xmlns="http://www.w3.org/2000/svg" xmlns:xlink="http://www.w3.org/1999/xlink" width="99.6094" height="99.6582">
 <g>
  <rect height="99.6582" opacity="0" width="99.6094" x="0" y="0"/>
  <path d="M49.8047 99.6094C77.0508 99.6094 99.6094 77.002 99.6094 49.8047C99.6094 22.5586 77.002 0 49.7559 0C22.5586 0 0 22.5586 0 49.8047C0 77.002 22.6074 99.6094 49.8047 99.6094ZM49.8047 91.3086C26.7578 91.3086 8.34961 72.8516 8.34961 49.8047C8.34961 26.7578 26.709 8.30078 49.7559 8.30078C72.8027 8.30078 91.3086 26.7578 91.3086 49.8047C91.3086 72.8516 72.8516 91.3086 49.8047 91.3086Z" fill="#000000" fill-opacity="0.85"/>
  <path d="M34.4238 70.4102C41.4551 70.4102 46.8262 66.0156 46.8262 58.6914C46.8262 52.6367 43.2129 49.6582 39.1113 49.2188L39.1113 49.0723C43.5059 47.9004 45.6543 43.9453 45.6543 39.8438C45.6543 33.1055 40.625 29.248 34.2773 29.248C29.1992 29.248 24.8535 32.0801 23.4375 36.4258C23.1934 37.3535 23.0957 38.2324 23.0957 39.0625C23.0957 40.6738 24.1211 41.9434 26.0742 41.9434C27.7344 41.9434 28.7109 41.3086 29.1992 39.5996C29.9805 36.7188 31.4941 34.9121 34.2773 34.9121C37.5 34.9121 39.0137 37.4023 39.0137 40.625C39.0137 44.1895 37.0117 46.7773 33.3496 46.7773L32.2266 46.7773C30.5664 46.7773 29.4922 47.8027 29.4922 49.4141C29.4922 51.0254 30.6152 51.9531 32.2266 51.9531L33.4473 51.9531C37.5977 51.9531 39.8926 54.248 39.8926 58.4961C39.8926 61.8652 38.0859 64.7461 34.4727 64.7461C30.9082 64.7461 29.2969 62.3535 28.7109 60.1074C28.2715 58.5449 27.1973 57.7148 25.6348 57.7148C23.7305 57.7148 22.4609 58.8867 22.4609 60.791C22.4609 61.6699 22.5586 62.5488 22.8027 63.3301C24.2188 67.8711 29.1992 70.4102 34.4238 70.4102ZM64.8926 70.5566C72.3633 70.5566 76.6113 64.3066 76.6113 56.6406C76.6113 50.0488 73.4375 43.7988 66.9922 43.7988C63.0371 43.7988 60.0098 46.4355 58.8867 50.6348L58.7402 50.6348C58.7402 50.4395 58.7402 50.2441 58.7402 50.0977C58.7402 44.6777 59.375 34.8633 64.8438 34.8633C67.041 34.8633 68.5059 36.4258 69.3848 38.4766C70.0684 39.9902 70.9961 40.6738 72.5586 40.6738C74.5117 40.6738 75.3906 39.3555 75.3906 37.7441C75.3906 37.207 75.293 36.6211 75.1465 35.9863C74.1211 31.7871 69.873 29.1504 64.9902 29.1504C54.9805 29.1504 52.0508 40.3809 52.0508 50.293C52.0508 59.5215 55.0293 70.5566 64.8926 70.5566ZM64.7949 64.8438C61.1328 64.8438 59.668 60.2539 59.668 56.7383C59.668 53.1738 61.2793 49.1211 64.7949 49.1211C68.4082 49.1211 69.9219 53.3203 69.8242 56.9336C69.8242 60.498 68.2129 64.8438 64.7949 64.8438Z" fill="#000000" fill-opacity="0.85"/>
 </g>
</svg>
