<?xml version="1.0" encoding="UTF-8"?>
<!--Generator: Apple Native CoreSVG 232.5-->
<!DOCTYPE svg
PUBLIC "-//W3C//DTD SVG 1.1//EN"
       "http://www.w3.org/Graphics/SVG/1.1/DTD/svg11.dtd">
<svg version="1.1" xmlns="http://www.w3.org/2000/svg" xmlns:xlink="http://www.w3.org/1999/xlink" width="89.8926" height="89.9902">
 <g>
  <rect height="89.9902" opacity="0" width="89.8926" x="0" y="0"/>
  <path d="M15.332 89.9902L74.5605 89.9902C84.8145 89.9902 89.8926 84.9121 89.8926 74.8535L89.8926 15.2344C89.8926 5.17578 84.8145 0.0976562 74.5605 0.0976562L15.332 0.0976562C5.12695 0.0976562 0 5.12695 0 15.2344L0 74.8535C0 84.9609 5.12695 89.9902 15.332 89.9902ZM15.4297 82.1289C10.5469 82.1289 7.86133 79.541 7.86133 74.4629L7.86133 15.625C7.86133 10.5469 10.5469 7.95898 15.4297 7.95898L74.4629 7.95898C79.2969 7.95898 82.0312 10.5469 82.0312 15.625L82.0312 74.4629C82.0312 79.541 79.2969 82.1289 74.4629 82.1289Z" fill="#000000" fill-opacity="0.85"/>
  <path d="M29.6387 65.5762C36.6699 65.5762 42.041 61.1816 42.041 53.8574C42.041 47.8027 38.4277 44.8242 34.3262 44.3848L34.3262 44.2383C38.7207 43.0664 40.8691 39.1113 40.8691 35.0098C40.8691 28.2715 35.8398 24.4141 29.4922 24.4141C24.4141 24.4141 20.0684 27.2461 18.6523 31.5918C18.4082 32.5195 18.3105 33.3984 18.3105 34.2285C18.3105 35.8398 19.3848 37.1094 21.2891 37.1094C22.9492 37.1094 23.9258 36.4746 24.4141 34.7656C25.1953 31.8848 26.709 30.0781 29.4922 30.0781C32.7148 30.0781 34.2285 32.5684 34.2285 35.791C34.2285 39.3555 32.2754 41.9434 28.6133 41.9434L27.4414 41.9434C25.7812 41.9434 24.707 42.9688 24.707 44.5801C24.707 46.1914 25.8301 47.1191 27.4414 47.1191L28.6621 47.1191C32.8125 47.1191 35.1074 49.4141 35.1074 53.6621C35.1074 57.0312 33.3008 59.9121 29.6875 59.9121C26.123 59.9121 24.5117 57.5195 23.9258 55.2734C23.4863 53.7109 22.4121 52.8809 20.8496 52.8809C18.9453 52.8809 17.6758 54.0527 17.6758 55.957C17.6758 56.8359 17.7734 57.7148 18.0664 58.4961C19.4336 63.0371 24.4141 65.5762 29.6387 65.5762ZM60.1562 65.7227C67.5781 65.7227 71.875 59.4727 71.875 51.8066C71.875 45.2148 68.6523 38.9648 62.207 38.9648C58.252 38.9648 55.2246 41.6016 54.1504 45.8008L53.9551 45.8008C53.9551 45.6055 53.9551 45.4102 53.9551 45.2637C53.9551 39.8438 54.5898 30.0293 60.0586 30.0293C62.2559 30.0293 63.7207 31.5918 64.5996 33.6426C65.2832 35.1562 66.2109 35.8398 67.7734 35.8398C69.7266 35.8398 70.6055 34.5215 70.6055 32.9102C70.6055 32.373 70.5078 31.7871 70.3613 31.1523C69.3359 26.9531 65.0879 24.3164 60.2051 24.3164C50.1953 24.3164 47.2656 35.5469 47.2656 45.459C47.2656 54.6875 50.2441 65.7227 60.1562 65.7227ZM60.0586 60.0098C56.3477 60.0098 54.8828 55.4199 54.8828 51.9043C54.8828 48.3398 56.4941 44.2871 60.0098 44.2871C63.623 44.2871 65.1367 48.4863 65.0391 52.0996C65.0391 55.6641 63.4277 60.0098 60.0586 60.0098Z" fill="#000000" fill-opacity="0.85"/>
 </g>
</svg>
