<?xml version="1.0" encoding="UTF-8"?>
<!--Generator: Apple Native CoreSVG 232.5-->
<!DOCTYPE svg
PUBLIC "-//W3C//DTD SVG 1.1//EN"
       "http://www.w3.org/Graphics/SVG/1.1/DTD/svg11.dtd">
<svg version="1.1" xmlns="http://www.w3.org/2000/svg" xmlns:xlink="http://www.w3.org/1999/xlink" width="99.6094" height="99.6582">
 <g>
  <rect height="99.6582" opacity="0" width="99.6094" x="0" y="0"/>
  <path d="M49.8047 99.6094C77.0508 99.6094 99.6094 77.002 99.6094 49.8047C99.6094 22.5586 77.002 0 49.7559 0C22.5586 0 0 22.5586 0 49.8047C0 77.002 22.6074 99.6094 49.8047 99.6094ZM49.8047 91.3086C26.7578 91.3086 8.34961 72.8516 8.34961 49.8047C8.34961 26.7578 26.709 8.30078 49.7559 8.30078C72.8027 8.30078 91.3086 26.7578 91.3086 49.8047C91.3086 72.8516 72.8516 91.3086 49.8047 91.3086Z" fill="#000000" fill-opacity="0.85"/>
  <path d="M36.6211 70.4102C43.6523 70.4102 49.0234 66.0156 49.0234 58.6914C49.0234 52.6367 45.4102 49.6582 41.2598 49.2188L41.2598 49.0723C45.7031 47.9004 47.8516 43.9453 47.8516 39.8438C47.8516 33.1055 42.8223 29.248 36.4258 29.248C31.3965 29.248 27.0508 32.0801 25.6348 36.4258C25.3906 37.3535 25.2441 38.2324 25.2441 39.0625C25.2441 40.6738 26.3184 41.9434 28.2715 41.9434C29.9316 41.9434 30.9082 41.3086 31.3965 39.5996C32.1777 36.7188 33.6914 34.9121 36.4258 34.9121C39.6973 34.9121 41.2109 37.4023 41.2109 40.625C41.2109 44.1895 39.209 46.7773 35.5469 46.7773L34.375 46.7773C32.7637 46.7773 31.6895 47.8027 31.6895 49.4141C31.6895 51.0254 32.7637 51.9531 34.375 51.9531L35.6445 51.9531C39.7949 51.9531 42.0898 54.248 42.0898 58.4961C42.0898 61.8652 40.2832 64.7461 36.6699 64.7461C33.1055 64.7461 31.4941 62.3535 30.9082 60.1074C30.4199 58.5449 29.3945 57.7148 27.832 57.7148C25.9277 57.7148 24.6094 58.8867 24.6094 60.791C24.6094 61.6699 24.7559 62.5488 25 63.3301C26.416 67.8711 31.3965 70.4102 36.6211 70.4102ZM60.498 70.2148C62.2559 70.2148 63.0859 69.4824 63.7207 67.7246L74.9023 37.9395C75.4395 36.4258 75.8301 35.2539 75.8301 33.8379C75.8301 31.5918 74.0723 30.0781 71.9238 30.0781L56.1523 30.0781C54.4434 30.0781 53.3203 31.2988 53.3203 32.959C53.3203 34.6191 54.4434 35.8398 56.1523 35.8398L68.7012 35.8398L68.7012 36.2793L57.8613 64.3066C57.4219 65.3809 57.2754 66.0156 57.2754 67.1875C57.2754 68.6035 58.1543 70.2148 60.498 70.2148Z" fill="#000000" fill-opacity="0.85"/>
 </g>
</svg>
