<?xml version="1.0" encoding="UTF-8"?>
<!--Generator: Apple Native CoreSVG 232.5-->
<!DOCTYPE svg
PUBLIC "-//W3C//DTD SVG 1.1//EN"
       "http://www.w3.org/Graphics/SVG/1.1/DTD/svg11.dtd">
<svg version="1.1" xmlns="http://www.w3.org/2000/svg" xmlns:xlink="http://www.w3.org/1999/xlink" width="89.8926" height="89.9902">
 <g>
  <rect height="89.9902" opacity="0" width="89.8926" x="0" y="0"/>
  <path d="M89.8926 15.2344L89.8926 74.8535C89.8926 84.9121 84.8145 89.9902 74.5605 89.9902L15.332 89.9902C5.12695 89.9902 0 84.9609 0 74.8535L0 15.2344C0 5.12695 5.12695 0.0976562 15.332 0.0976562L74.5605 0.0976562C84.8145 0.0976562 89.8926 5.17578 89.8926 15.2344ZM20.0684 31.1523C19.8242 32.1289 19.6777 33.0078 19.6777 33.8867C19.6777 35.5469 20.8008 36.8652 22.8027 36.8652C24.5117 36.8652 25.5371 36.2305 26.0254 34.4727C26.8555 31.4941 28.3691 29.6387 31.25 29.6387C34.5703 29.6387 36.1328 32.1777 36.1328 35.498C36.1328 39.1602 34.082 41.8457 30.3223 41.8457L29.1504 41.8457C27.4414 41.8457 26.3184 42.9199 26.3184 44.5801C26.3184 46.2402 27.4902 47.2168 29.1504 47.2168L30.3711 47.2168C34.668 47.2168 37.0117 49.5605 37.0117 53.9062C37.0117 57.373 35.1562 60.3516 31.4453 60.3516C27.7832 60.3516 26.123 57.9102 25.5371 55.6152C25.0488 53.9551 23.9746 53.125 22.3145 53.125C20.3613 53.125 19.043 54.3457 19.043 56.2988C19.043 57.2266 19.1406 58.1055 19.4336 58.9355C20.8496 63.623 26.0254 66.2109 31.3965 66.2109C38.6719 66.2109 44.1895 61.6699 44.1895 54.1504C44.1895 47.9004 40.4785 44.8242 36.2305 44.3848L36.2305 44.2383C40.7715 43.0176 43.0176 38.916 43.0176 34.7168C43.0176 27.7344 37.793 23.7793 31.25 23.7793C26.0254 23.7793 21.5332 26.709 20.0684 31.1523ZM51.5625 24.6094C49.8535 24.6094 48.6328 25.8789 48.6328 27.5879C48.6328 29.3457 49.8535 30.6152 51.5625 30.6152L64.502 30.6152L64.502 31.0547L53.3203 59.9121C52.9297 61.0352 52.7344 61.6699 52.7344 62.8906C52.7344 64.3555 53.6133 66.0156 56.0547 66.0156C57.9102 66.0156 58.7402 65.2832 59.4238 63.4277L70.8984 32.7637C71.4844 31.2012 71.875 29.9805 71.875 28.5156C71.875 26.1719 70.0684 24.6094 67.8223 24.6094Z" fill="#000000" fill-opacity="0.85"/>
 </g>
</svg>
