<?xml version="1.0" encoding="UTF-8"?>
<!--Generator: Apple Native CoreSVG 232.5-->
<!DOCTYPE svg
PUBLIC "-//W3C//DTD SVG 1.1//EN"
       "http://www.w3.org/Graphics/SVG/1.1/DTD/svg11.dtd">
<svg version="1.1" xmlns="http://www.w3.org/2000/svg" xmlns:xlink="http://www.w3.org/1999/xlink" width="99.6094" height="99.6582">
 <g>
  <rect height="99.6582" opacity="0" width="99.6094" x="0" y="0"/>
  <path d="M99.6094 49.8047C99.6094 77.002 77.0508 99.6094 49.8047 99.6094C22.6074 99.6094 0 77.002 0 49.8047C0 22.5586 22.5586 0 49.7559 0C77.002 0 99.6094 22.5586 99.6094 49.8047ZM52.002 42.8711C52.002 49.6582 55.2734 56.1035 61.9629 56.1035C66.0156 56.1035 69.0918 53.3691 70.2637 49.0723L70.459 49.0723C70.459 49.2676 70.459 49.4629 70.459 49.6094C70.459 55.1758 69.7754 65.2344 64.1113 65.2344C61.8652 65.2344 60.3516 63.6719 59.4727 61.5234C58.7402 59.8633 57.7637 59.2285 56.25 59.2285C54.1016 59.2285 53.1738 60.6445 53.1738 62.3047C53.1738 62.8906 53.3203 63.5254 53.5156 64.1113C54.5898 68.5059 58.9355 71.1426 64.0137 71.1426C74.3652 71.1426 77.3438 59.7168 77.3438 49.4141C77.3438 39.8926 74.3164 28.5156 64.0625 28.5156C56.3965 28.5156 52.002 34.9609 52.002 42.8711ZM22.6562 35.9863C22.4121 36.9629 22.3145 37.8418 22.3145 38.7207C22.3145 40.3809 23.3887 41.6992 25.3906 41.6992C27.0996 41.6992 28.125 41.0645 28.6133 39.3066C29.4434 36.3281 30.957 34.4727 33.8379 34.4727C37.1582 34.4727 38.7207 37.0117 38.7207 40.332C38.7207 43.9941 36.7188 46.6797 32.9102 46.6797L31.7383 46.6797C30.0293 46.6797 28.9551 47.7539 28.9551 49.4141C28.9551 51.0742 30.0781 52.0508 31.7383 52.0508L32.959 52.0508C37.2559 52.0508 39.5996 54.3945 39.5996 58.7402C39.5996 62.207 37.7441 65.1855 34.0332 65.1855C30.3711 65.1855 28.7109 62.7441 28.125 60.4492C27.6367 58.7891 26.5625 57.959 24.9512 57.959C22.9492 57.959 21.6309 59.1797 21.6309 61.1328C21.6309 62.0605 21.7773 62.9395 22.0215 63.7695C23.4375 68.457 28.6133 71.0449 34.0332 71.0449C41.2598 71.0449 46.7773 66.5039 46.7773 58.9844C46.7773 52.7344 43.0664 49.6582 38.8184 49.2188L38.8184 49.0723C43.3594 47.8516 45.6055 43.75 45.6055 39.5508C45.6055 32.5684 40.3809 28.6133 33.8379 28.6133C28.6133 28.6133 24.1211 31.543 22.6562 35.9863ZM69.4824 42.5293C69.4824 46.4355 67.7734 50.5371 64.1602 50.5371C60.4492 50.5371 58.9844 46.2402 58.9844 42.5293C58.9844 38.7695 60.6934 34.4238 64.1602 34.4238C67.9688 34.4238 69.4824 38.7695 69.4824 42.5293Z" fill="#000000" fill-opacity="0.85"/>
 </g>
</svg>
