<?xml version="1.0" encoding="UTF-8"?>
<!--Generator: Apple Native CoreSVG 232.5-->
<!DOCTYPE svg
PUBLIC "-//W3C//DTD SVG 1.1//EN"
       "http://www.w3.org/Graphics/SVG/1.1/DTD/svg11.dtd">
<svg version="1.1" xmlns="http://www.w3.org/2000/svg" xmlns:xlink="http://www.w3.org/1999/xlink" width="99.6094" height="99.6582">
 <g>
  <rect height="99.6582" opacity="0" width="99.6094" x="0" y="0"/>
  <path d="M49.8047 99.6094C77.0508 99.6094 99.6094 77.002 99.6094 49.8047C99.6094 22.5586 77.002 0 49.7559 0C22.5586 0 0 22.5586 0 49.8047C0 77.002 22.6074 99.6094 49.8047 99.6094ZM49.8047 91.3086C26.7578 91.3086 8.34961 72.8516 8.34961 49.8047C8.34961 26.7578 26.709 8.30078 49.7559 8.30078C72.8027 8.30078 91.3086 26.7578 91.3086 49.8047C91.3086 72.8516 72.8516 91.3086 49.8047 91.3086Z" fill="#000000" fill-opacity="0.85"/>
  <path d="M31.1523 58.8379C31.1523 61.2793 32.7637 62.8906 35.4492 62.8906L53.8086 62.8906L53.8086 68.9453C53.8086 71.5332 55.127 73.0469 57.3242 73.0469C59.668 73.0469 60.9863 71.582 60.9863 68.9453L60.9863 62.8906L64.2578 62.8906C66.4062 62.8906 67.7734 61.5723 67.7734 59.5215C67.7734 57.666 66.4062 56.4453 64.2578 56.4453L60.9863 56.4453L60.9863 45.8984C60.9863 43.2617 59.668 41.7969 57.3242 41.7969C55.127 41.7969 53.8086 43.3105 53.8086 45.8984L53.8086 56.4453L40.2344 56.4453C44.6289 48.2422 48.9258 40.8203 53.4668 32.4707C53.8574 31.6895 54.1504 30.957 54.1504 30.1758C54.1504 28.2715 52.9297 26.6113 50.6836 26.6113C49.1699 26.6113 48.0957 27.3438 47.2168 28.9551C42.041 38.0859 37.207 46.582 31.9824 55.7617C31.3965 56.7383 31.1523 57.8125 31.1523 58.8379Z" fill="#000000" fill-opacity="0.85"/>
 </g>
</svg>
