<?xml version="1.0" encoding="UTF-8"?>
<!--Generator: Apple Native CoreSVG 232.5-->
<!DOCTYPE svg
PUBLIC "-//W3C//DTD SVG 1.1//EN"
       "http://www.w3.org/Graphics/SVG/1.1/DTD/svg11.dtd">
<svg version="1.1" xmlns="http://www.w3.org/2000/svg" xmlns:xlink="http://www.w3.org/1999/xlink" width="89.8926" height="89.9902">
 <g>
  <rect height="89.9902" opacity="0" width="89.8926" x="0" y="0"/>
  <path d="M15.332 89.9902L74.5605 89.9902C84.8145 89.9902 89.8926 84.9121 89.8926 74.8535L89.8926 15.2344C89.8926 5.17578 84.8145 0.0976562 74.5605 0.0976562L15.332 0.0976562C5.12695 0.0976562 0 5.12695 0 15.2344L0 74.8535C0 84.9609 5.12695 89.9902 15.332 89.9902ZM15.4297 82.1289C10.5469 82.1289 7.86133 79.541 7.86133 74.4629L7.86133 15.625C7.86133 10.5469 10.5469 7.95898 15.4297 7.95898L74.4629 7.95898C79.2969 7.95898 82.0312 10.5469 82.0312 15.625L82.0312 74.4629C82.0312 79.541 79.2969 82.1289 74.4629 82.1289Z" fill="#000000" fill-opacity="0.85"/>
  <path d="M26.3672 54.0039C26.3672 56.4453 28.0273 58.0566 30.6641 58.0566L49.0234 58.0566L49.0234 64.1113C49.0234 66.6992 50.3418 68.2129 52.5879 68.2129C54.8828 68.2129 56.2012 66.748 56.2012 64.1113L56.2012 58.0566L59.4727 58.0566C61.6699 58.0566 62.9883 56.7383 62.9883 54.6875C62.9883 52.832 61.6699 51.6113 59.4727 51.6113L56.2012 51.6113L56.2012 41.0645C56.2012 38.4277 54.8828 36.9629 52.5879 36.9629C50.3418 36.9629 49.0234 38.4766 49.0234 41.0645L49.0234 51.6113L35.4492 51.6113C39.8438 43.4082 44.1406 35.9863 48.6816 27.6367C49.0723 26.8555 49.3652 26.123 49.3652 25.3418C49.3652 23.4375 48.1445 21.7773 45.8984 21.7773C44.3848 21.7773 43.3105 22.5098 42.4316 24.1211C37.2559 33.252 32.4219 41.748 27.1973 50.9277C26.6113 51.9043 26.3672 52.9785 26.3672 54.0039Z" fill="#000000" fill-opacity="0.85"/>
 </g>
</svg>
