<?xml version="1.0" encoding="UTF-8"?>
<!--Generator: Apple Native CoreSVG 232.5-->
<!DOCTYPE svg
PUBLIC "-//W3C//DTD SVG 1.1//EN"
       "http://www.w3.org/Graphics/SVG/1.1/DTD/svg11.dtd">
<svg version="1.1" xmlns="http://www.w3.org/2000/svg" xmlns:xlink="http://www.w3.org/1999/xlink" width="99.6094" height="99.6582">
 <g>
  <rect height="99.6582" opacity="0" width="99.6094" x="0" y="0"/>
  <path d="M99.6094 49.8047C99.6094 77.002 77.0508 99.6094 49.8047 99.6094C22.6074 99.6094 0 77.002 0 49.8047C0 22.5586 22.5586 0 49.7559 0C77.002 0 99.6094 22.5586 99.6094 49.8047ZM47.0703 28.418C41.748 37.8418 36.8652 46.4844 31.4453 55.957C30.8594 56.9824 30.6152 58.0566 30.6152 59.1309C30.6152 61.6699 32.2754 63.3301 35.0586 63.3301L54.0039 63.3301L54.0039 68.5059C54.0039 71.1914 55.3711 72.7539 57.6172 72.7539C60.0586 72.7539 61.4258 71.2402 61.4258 68.5059L61.4258 63.3301L64.7949 63.3301C66.9922 63.3301 68.4082 61.9629 68.4082 59.8633C68.4082 57.9102 66.9922 56.6406 64.7949 56.6406L61.4258 56.6406L61.4258 45.8008C61.4258 43.0664 60.0586 41.5527 57.6172 41.5527C55.3711 41.5527 54.0039 43.1152 54.0039 45.8008L54.0039 56.6406L40.0391 56.6406C44.5801 48.1934 48.9258 40.6738 53.6133 32.0801C54.0039 31.25 54.248 30.4688 54.248 29.6875C54.248 27.6855 53.0273 25.9766 50.7324 25.9766C49.1211 25.9766 48.0469 26.7578 47.0703 28.418Z" fill="#000000" fill-opacity="0.85"/>
 </g>
</svg>
