<?xml version="1.0" encoding="UTF-8"?>
<!--Generator: Apple Native CoreSVG 232.5-->
<!DOCTYPE svg
PUBLIC "-//W3C//DTD SVG 1.1//EN"
       "http://www.w3.org/Graphics/SVG/1.1/DTD/svg11.dtd">
<svg version="1.1" xmlns="http://www.w3.org/2000/svg" xmlns:xlink="http://www.w3.org/1999/xlink" width="89.8926" height="89.9902">
 <g>
  <rect height="89.9902" opacity="0" width="89.8926" x="0" y="0"/>
  <path d="M89.8926 15.2344L89.8926 74.8535C89.8926 84.9121 84.8145 89.9902 74.5605 89.9902L15.332 89.9902C5.12695 89.9902 0 84.9609 0 74.8535L0 15.2344C0 5.12695 5.12695 0.0976562 15.332 0.0976562L74.5605 0.0976562C84.8145 0.0976562 89.8926 5.17578 89.8926 15.2344ZM42.2852 23.584C36.9141 33.0078 32.0312 41.6504 26.6113 51.123C26.0254 52.1484 25.7812 53.2227 25.7812 54.2969C25.7812 56.8359 27.4902 58.4961 30.2246 58.4961L49.1699 58.4961L49.1699 63.6719C49.1699 66.3574 50.5371 67.9199 52.832 67.9199C55.2246 67.9199 56.5918 66.4062 56.5918 63.6719L56.5918 58.4961L59.9609 58.4961C62.207 58.4961 63.5742 57.1289 63.5742 55.0293C63.5742 53.0762 62.207 51.8066 59.9609 51.8066L56.5918 51.8066L56.5918 40.9668C56.5918 38.2324 55.2246 36.7188 52.832 36.7188C50.5371 36.7188 49.1699 38.2812 49.1699 40.9668L49.1699 51.8066L35.2051 51.8066C39.7461 43.3594 44.0918 35.8398 48.7793 27.2461C49.1699 26.416 49.4629 25.6348 49.4629 24.8535C49.4629 22.8516 48.1934 21.1426 45.8984 21.1426C44.2871 21.1426 43.2129 21.9238 42.2852 23.584Z" fill="#000000" fill-opacity="0.85"/>
 </g>
</svg>
