<?xml version="1.0" encoding="UTF-8"?>
<!--Generator: Apple Native CoreSVG 232.5-->
<!DOCTYPE svg
PUBLIC "-//W3C//DTD SVG 1.1//EN"
       "http://www.w3.org/Graphics/SVG/1.1/DTD/svg11.dtd">
<svg version="1.1" xmlns="http://www.w3.org/2000/svg" xmlns:xlink="http://www.w3.org/1999/xlink" width="99.6094" height="99.6582">
 <g>
  <rect height="99.6582" opacity="0" width="99.6094" x="0" y="0"/>
  <path d="M49.8047 99.6094C77.0508 99.6094 99.6094 77.002 99.6094 49.8047C99.6094 22.5586 77.002 0 49.7559 0C22.5586 0 0 22.5586 0 49.8047C0 77.002 22.6074 99.6094 49.8047 99.6094ZM49.8047 91.3086C26.7578 91.3086 8.34961 72.8516 8.34961 49.8047C8.34961 26.7578 26.709 8.30078 49.7559 8.30078C72.8027 8.30078 91.3086 26.7578 91.3086 49.8047C91.3086 72.8516 72.8516 91.3086 49.8047 91.3086Z" fill="#000000" fill-opacity="0.85"/>
  <path d="M56.1523 73.0469C58.4473 73.0469 59.7656 71.5332 59.7656 68.9453L59.7656 62.9395L63.5254 62.9395C65.4297 62.9395 66.748 61.6699 66.748 59.7656C66.748 57.8613 65.4785 56.543 63.5254 56.543L59.7656 56.543L59.7656 31.6895C59.7656 28.6133 57.4219 26.5625 53.9551 26.5625C50.5371 26.5625 48.3887 27.7832 46.4355 30.7129C41.4062 38.3301 35.3516 47.3145 31.2988 53.9062C30.3223 55.5176 29.9805 56.6895 29.9805 58.1543C29.9805 61.0352 31.9336 62.9395 35.0586 62.9395L52.5879 62.9395L52.5879 68.9453C52.5879 71.4844 53.9062 73.0469 56.1523 73.0469ZM52.5879 56.543L37.1582 56.543L37.1582 56.25C40.8691 49.8535 47.1191 40.5762 52.2461 32.8613L52.5879 32.8613Z" fill="#000000" fill-opacity="0.85"/>
 </g>
</svg>
