<?xml version="1.0" encoding="UTF-8"?>
<!--Generator: Apple Native CoreSVG 232.5-->
<!DOCTYPE svg
PUBLIC "-//W3C//DTD SVG 1.1//EN"
       "http://www.w3.org/Graphics/SVG/1.1/DTD/svg11.dtd">
<svg version="1.1" xmlns="http://www.w3.org/2000/svg" xmlns:xlink="http://www.w3.org/1999/xlink" width="89.8926" height="89.9902">
 <g>
  <rect height="89.9902" opacity="0" width="89.8926" x="0" y="0"/>
  <path d="M15.332 89.9902L74.5605 89.9902C84.8145 89.9902 89.8926 84.9121 89.8926 74.8535L89.8926 15.2344C89.8926 5.17578 84.8145 0.0976562 74.5605 0.0976562L15.332 0.0976562C5.12695 0.0976562 0 5.12695 0 15.2344L0 74.8535C0 84.9609 5.12695 89.9902 15.332 89.9902ZM15.4297 82.1289C10.5469 82.1289 7.86133 79.541 7.86133 74.4629L7.86133 15.625C7.86133 10.5469 10.5469 7.95898 15.4297 7.95898L74.4629 7.95898C79.2969 7.95898 82.0312 10.5469 82.0312 15.625L82.0312 74.4629C82.0312 79.541 79.2969 82.1289 74.4629 82.1289Z" fill="#000000" fill-opacity="0.85"/>
  <path d="M51.3672 68.2129C53.6621 68.2129 55.0293 66.6992 55.0293 64.1113L55.0293 58.1055L58.7402 58.1055C60.6445 58.1055 61.9629 56.8359 61.9629 54.9316C61.9629 53.0273 60.6934 51.709 58.7402 51.709L55.0293 51.709L55.0293 26.8555C55.0293 23.7793 52.6367 21.7285 49.1699 21.7285C45.752 21.7285 43.6035 22.9492 41.6992 25.8789C36.6211 33.4961 30.5664 42.4805 26.5137 49.0723C25.5371 50.6836 25.1953 51.8555 25.1953 53.3203C25.1953 56.2012 27.1973 58.1055 30.2734 58.1055L47.8027 58.1055L47.8027 64.1113C47.8027 66.6504 49.1699 68.2129 51.3672 68.2129ZM47.8027 51.709L32.373 51.709L32.373 51.416C36.084 45.0195 42.334 35.7422 47.4609 28.0273L47.8027 28.0273Z" fill="#000000" fill-opacity="0.85"/>
 </g>
</svg>
