<?xml version="1.0" encoding="UTF-8"?>
<!--Generator: Apple Native CoreSVG 232.5-->
<!DOCTYPE svg
PUBLIC "-//W3C//DTD SVG 1.1//EN"
       "http://www.w3.org/Graphics/SVG/1.1/DTD/svg11.dtd">
<svg version="1.1" xmlns="http://www.w3.org/2000/svg" xmlns:xlink="http://www.w3.org/1999/xlink" width="99.6094" height="99.6582">
 <g>
  <rect height="99.6582" opacity="0" width="99.6094" x="0" y="0"/>
  <path d="M99.6094 49.8047C99.6094 77.002 77.0508 99.6094 49.8047 99.6094C22.6074 99.6094 0 77.002 0 49.8047C0 22.5586 22.5586 0 49.7559 0C77.002 0 99.6094 22.5586 99.6094 49.8047ZM33.3984 33.7402L24.4141 53.2715C23.5352 55.2246 23.291 56.543 23.291 58.1055C23.291 60.5469 24.9512 62.207 27.4414 62.207L38.623 62.207L38.623 67.2363C38.623 69.873 40.5762 70.8008 42.1875 70.8008C44.043 70.8008 45.6055 69.6289 45.6055 67.2363L45.6055 62.207L47.3633 62.207C49.3652 62.207 50.2441 60.9375 50.2441 59.2285C50.2441 57.6172 49.4141 56.3477 47.3633 56.3477L45.6055 56.3477L45.6055 34.2773C45.6055 30.7617 43.3594 28.8086 39.9902 28.8086C36.4746 28.8086 34.8145 30.6152 33.3984 33.7402ZM61.084 30.8594L55.5176 35.1562C54.6387 35.8398 53.9062 36.8164 53.9062 38.1348C53.9062 39.6973 54.9805 40.8203 56.543 40.8203C57.3242 40.8203 57.8125 40.5762 58.3008 40.1855L62.9395 36.4746L62.9395 66.9922C62.9395 69.043 64.5996 70.7031 66.6992 70.7031C68.6523 70.7031 70.3125 69.043 70.3125 66.9922L70.3125 32.9102C70.3125 30.3223 68.7012 28.8086 66.0645 28.8086C63.9648 28.8086 62.207 29.9805 61.084 30.8594ZM38.7695 56.4941L29.4922 56.4941L29.4922 56.1523L38.623 35.1562L38.7695 35.1562Z" fill="#000000" fill-opacity="0.85"/>
 </g>
</svg>
