<?xml version="1.0" encoding="UTF-8"?>
<!--Generator: Apple Native CoreSVG 232.5-->
<!DOCTYPE svg
PUBLIC "-//W3C//DTD SVG 1.1//EN"
       "http://www.w3.org/Graphics/SVG/1.1/DTD/svg11.dtd">
<svg version="1.1" xmlns="http://www.w3.org/2000/svg" xmlns:xlink="http://www.w3.org/1999/xlink" width="89.8926" height="89.9902">
 <g>
  <rect height="89.9902" opacity="0" width="89.8926" x="0" y="0"/>
  <path d="M89.8926 15.2344L89.8926 74.8535C89.8926 84.9121 84.8145 89.9902 74.5605 89.9902L15.332 89.9902C5.12695 89.9902 0 84.9609 0 74.8535L0 15.2344C0 5.12695 5.12695 0.0976562 15.332 0.0976562L74.5605 0.0976562C84.8145 0.0976562 89.8926 5.17578 89.8926 15.2344ZM28.5645 28.9062L19.5801 48.4375C18.7012 50.3906 18.457 51.709 18.457 53.2715C18.457 55.7129 20.1172 57.373 22.6074 57.373L33.8379 57.373L33.8379 62.4023C33.8379 65.0391 35.7422 65.9668 37.3535 65.9668C39.209 65.9668 40.7715 64.7949 40.7715 62.4023L40.7715 57.373L42.5781 57.373C44.5312 57.373 45.4102 56.1035 45.4102 54.3945C45.4102 52.7832 44.6289 51.5137 42.5781 51.5137L40.7715 51.5137L40.7715 29.4434C40.7715 25.9277 38.5254 23.9746 35.1562 23.9746C31.6406 23.9746 29.9805 25.7812 28.5645 28.9062ZM56.25 26.0254L50.6836 30.3223C49.8047 31.0059 49.0723 31.9824 49.0723 33.3008C49.0723 34.8633 50.1465 35.9863 51.709 35.9863C52.4902 35.9863 52.9785 35.7422 53.4668 35.3516L58.1055 31.6406L58.1055 62.1582C58.1055 64.209 59.7656 65.8691 61.8652 65.8691C63.8184 65.8691 65.4785 64.209 65.4785 62.1582L65.4785 28.0762C65.4785 25.4883 63.8672 23.9746 61.2305 23.9746C59.1309 23.9746 57.373 25.1465 56.25 26.0254ZM33.9844 51.6602L24.6582 51.6602L24.6582 51.3184L33.7891 30.3223L33.9844 30.3223Z" fill="#000000" fill-opacity="0.85"/>
 </g>
</svg>
