<?xml version="1.0" encoding="UTF-8"?>
<!--Generator: Apple Native CoreSVG 232.5-->
<!DOCTYPE svg
PUBLIC "-//W3C//DTD SVG 1.1//EN"
       "http://www.w3.org/Graphics/SVG/1.1/DTD/svg11.dtd">
<svg version="1.1" xmlns="http://www.w3.org/2000/svg" xmlns:xlink="http://www.w3.org/1999/xlink" width="99.6094" height="99.6582">
 <g>
  <rect height="99.6582" opacity="0" width="99.6094" x="0" y="0"/>
  <path d="M49.8047 99.6094C77.0508 99.6094 99.6094 77.002 99.6094 49.8047C99.6094 22.5586 77.002 0 49.7559 0C22.5586 0 0 22.5586 0 49.8047C0 77.002 22.6074 99.6094 49.8047 99.6094ZM49.8047 91.3086C26.7578 91.3086 8.34961 72.8516 8.34961 49.8047C8.34961 26.7578 26.709 8.30078 49.7559 8.30078C72.8027 8.30078 91.3086 26.7578 91.3086 49.8047C91.3086 72.8516 72.8516 91.3086 49.8047 91.3086Z" fill="#000000" fill-opacity="0.85"/>
  <path d="M39.5508 70.166C41.4062 70.166 42.8711 69.043 42.8711 66.6992L42.8711 61.8164L44.6289 61.8164C46.5332 61.8164 47.4121 60.5957 47.4121 58.9355C47.4121 57.373 46.582 56.1523 44.6289 56.1523L42.8711 56.1523L42.8711 34.7168C42.8711 31.3477 40.6738 29.4434 37.5 29.4434C34.0332 29.4434 32.4219 31.2012 31.0547 34.2285L22.3633 53.1738C21.5332 55.0781 21.2402 56.3477 21.2402 57.8613C21.2402 60.2051 22.8516 61.8164 25.2441 61.8164L36.1816 61.8164L36.1816 66.6992C36.1816 69.2871 38.0371 70.166 39.5508 70.166ZM36.3281 56.2988L27.2461 56.2988L27.2461 55.957L36.1328 35.5957L36.3281 35.5957ZM55.5176 69.5312L72.4609 69.5312C74.1699 69.5312 75.2441 68.4082 75.2441 66.6992C75.2441 64.8438 74.1211 63.8184 72.4609 63.8184L60.8887 63.8184L60.8887 63.4277L67.9688 54.3945C72.9004 48.3398 74.5117 44.7266 74.5117 40.4297C74.5117 33.8379 70.0195 29.0527 63.2812 29.0527C57.0312 29.0527 52.2949 34.2285 52.2949 39.3066C52.2949 41.1133 53.3203 42.3828 55.2246 42.3828C56.8359 42.3828 57.8125 41.6504 58.3008 40.0391C59.2285 36.7676 60.4492 34.7168 63.2324 34.7168C66.1621 34.7168 67.8223 37.3047 67.8223 40.7715C67.8223 44.6777 65.0879 48.6328 62.5 51.9531L54.0527 62.793C53.125 63.9648 52.1973 65.1855 52.1973 66.6992C52.1973 68.3594 53.2715 69.5312 55.5176 69.5312Z" fill="#000000" fill-opacity="0.85"/>
 </g>
</svg>
