<?xml version="1.0" encoding="UTF-8"?>
<!--Generator: Apple Native CoreSVG 232.5-->
<!DOCTYPE svg
PUBLIC "-//W3C//DTD SVG 1.1//EN"
       "http://www.w3.org/Graphics/SVG/1.1/DTD/svg11.dtd">
<svg version="1.1" xmlns="http://www.w3.org/2000/svg" xmlns:xlink="http://www.w3.org/1999/xlink" width="99.6094" height="99.6582">
 <g>
  <rect height="99.6582" opacity="0" width="99.6094" x="0" y="0"/>
  <path d="M49.8047 99.6094C77.0508 99.6094 99.6094 77.002 99.6094 49.8047C99.6094 22.5586 77.002 0 49.7559 0C22.5586 0 0 22.5586 0 49.8047C0 77.002 22.6074 99.6094 49.8047 99.6094ZM49.8047 91.3086C26.7578 91.3086 8.34961 72.8516 8.34961 49.8047C8.34961 26.7578 26.709 8.30078 49.7559 8.30078C72.8027 8.30078 91.3086 26.7578 91.3086 49.8047C91.3086 72.8516 72.8516 91.3086 49.8047 91.3086Z" fill="#000000" fill-opacity="0.85"/>
  <path d="M39.2578 70.166C41.0645 70.166 42.5781 69.043 42.5781 66.6992L42.5781 61.8164L44.3359 61.8164C46.1914 61.8164 47.0703 60.5957 47.0703 58.9355C47.0703 57.373 46.2891 56.1523 44.3359 56.1523L42.5781 56.1523L42.5781 34.7168C42.5781 31.3477 40.3809 29.4434 37.1582 29.4434C33.7402 29.4434 32.1289 31.2012 30.7617 34.2285L22.0215 53.1738C21.2402 55.0781 20.9473 56.3477 20.9473 57.8613C20.9473 60.2051 22.5586 61.8164 24.9512 61.8164L35.8887 61.8164L35.8887 66.6992C35.8887 69.2871 37.6953 70.166 39.2578 70.166ZM36.0352 56.2988L26.9531 56.2988L26.9531 55.957L35.8398 35.5957L36.0352 35.5957ZM64.0625 70.4102C71.0938 70.4102 76.4648 66.0156 76.4648 58.6914C76.4648 52.6367 72.8516 49.6582 68.7012 49.2188L68.7012 49.0723C73.1445 47.9004 75.293 43.9453 75.293 39.8438C75.293 33.1055 70.2637 29.248 63.916 29.248C58.8379 29.248 54.4922 32.0801 53.0762 36.4258C52.832 37.3535 52.7344 38.2324 52.7344 39.0625C52.7344 40.6738 53.7598 41.9434 55.7129 41.9434C57.373 41.9434 58.3496 41.3086 58.8379 39.5996C59.6191 36.7188 61.1328 34.9121 63.916 34.9121C67.1387 34.9121 68.6523 37.4023 68.6523 40.625C68.6523 44.1895 66.6504 46.7773 62.9883 46.7773L61.8652 46.7773C60.2051 46.7773 59.1309 47.8027 59.1309 49.4141C59.1309 51.0254 60.2051 51.9531 61.8652 51.9531L63.0859 51.9531C67.2363 51.9531 69.5312 54.248 69.5312 58.4961C69.5312 61.8652 67.7246 64.7461 64.1113 64.7461C60.5469 64.7461 58.9355 62.3535 58.3496 60.1074C57.9102 58.5449 56.8359 57.7148 55.2734 57.7148C53.3691 57.7148 52.0508 58.8867 52.0508 60.791C52.0508 61.6699 52.1973 62.5488 52.4414 63.3301C53.8574 67.8711 58.8379 70.4102 64.0625 70.4102Z" fill="#000000" fill-opacity="0.85"/>
 </g>
</svg>
