<?xml version="1.0" encoding="UTF-8"?>
<!--Generator: Apple Native CoreSVG 232.5-->
<!DOCTYPE svg
PUBLIC "-//W3C//DTD SVG 1.1//EN"
       "http://www.w3.org/Graphics/SVG/1.1/DTD/svg11.dtd">
<svg version="1.1" xmlns="http://www.w3.org/2000/svg" xmlns:xlink="http://www.w3.org/1999/xlink" width="99.6094" height="99.6582">
 <g>
  <rect height="99.6582" opacity="0" width="99.6094" x="0" y="0"/>
  <path d="M99.6094 49.8047C99.6094 77.002 77.0508 99.6094 49.8047 99.6094C22.6074 99.6094 0 77.002 0 49.8047C0 22.5586 22.5586 0 49.7559 0C77.002 0 99.6094 22.5586 99.6094 49.8047ZM53.2715 35.9863C53.0273 36.9629 52.8809 37.8418 52.8809 38.7207C52.8809 40.3809 53.9551 41.6992 56.0059 41.6992C57.7148 41.6992 58.7402 41.0645 59.2285 39.3066C60.0586 36.3281 61.5723 34.4727 64.4531 34.4727C67.7734 34.4727 69.3359 37.0117 69.3359 40.332C69.3359 43.9941 67.2852 46.6797 63.4766 46.6797L62.3535 46.6797C60.6445 46.6797 59.5215 47.7539 59.5215 49.4141C59.5215 51.0742 60.6445 52.0508 62.3535 52.0508L63.5742 52.0508C67.8711 52.0508 70.2148 54.3945 70.2148 58.7402C70.2148 62.207 68.3594 65.1855 64.6484 65.1855C60.9863 65.1855 59.3262 62.7441 58.7402 60.4492C58.2031 58.7891 57.1777 57.959 55.5176 57.959C53.5645 57.959 52.1973 59.1797 52.1973 61.1328C52.1973 62.0605 52.3438 62.9395 52.5879 63.7695C54.0527 68.457 59.2285 71.0449 64.5996 71.0449C71.875 71.0449 77.3926 66.5039 77.3926 58.9844C77.3926 52.7344 73.6816 49.6582 69.3848 49.2188L69.3848 49.0723C73.9746 47.8516 76.2207 43.75 76.2207 39.5508C76.2207 32.5684 70.9961 28.6133 64.4531 28.6133C59.2285 28.6133 54.7363 31.543 53.2715 35.9863ZM30.1758 33.7402L21.1914 53.2715C20.4102 55.2246 20.1172 56.543 20.1172 58.1055C20.1172 60.5469 21.7773 62.207 24.2676 62.207L35.498 62.207L35.498 67.1875C35.498 69.873 37.4023 70.8008 39.0137 70.8008C40.8691 70.8008 42.4316 69.6289 42.4316 67.1875L42.4316 62.207L44.2383 62.207C46.1426 62.207 47.0703 60.9375 47.0703 59.2285C47.0703 57.6172 46.2402 56.3477 44.2383 56.3477L42.4316 56.3477L42.4316 34.2773C42.4316 30.7617 40.1855 28.8086 36.8164 28.8086C33.3008 28.8086 31.5918 30.6152 30.1758 33.7402ZM35.6445 56.4941L26.3184 56.4941L26.3184 56.1523L35.4492 35.1562L35.6445 35.1562Z" fill="#000000" fill-opacity="0.85"/>
 </g>
</svg>
