<?xml version="1.0" encoding="UTF-8"?>
<!--Generator: Apple Native CoreSVG 232.5-->
<!DOCTYPE svg
PUBLIC "-//W3C//DTD SVG 1.1//EN"
       "http://www.w3.org/Graphics/SVG/1.1/DTD/svg11.dtd">
<svg version="1.1" xmlns="http://www.w3.org/2000/svg" xmlns:xlink="http://www.w3.org/1999/xlink" width="89.8926" height="89.9902">
 <g>
  <rect height="89.9902" opacity="0" width="89.8926" x="0" y="0"/>
  <path d="M15.332 89.9902L74.5605 89.9902C84.8145 89.9902 89.8926 84.9121 89.8926 74.8535L89.8926 15.2344C89.8926 5.17578 84.8145 0.0976562 74.5605 0.0976562L15.332 0.0976562C5.12695 0.0976562 0 5.12695 0 15.2344L0 74.8535C0 84.9609 5.12695 89.9902 15.332 89.9902ZM15.4297 82.1289C10.5469 82.1289 7.86133 79.541 7.86133 74.4629L7.86133 15.625C7.86133 10.5469 10.5469 7.95898 15.4297 7.95898L74.4629 7.95898C79.2969 7.95898 82.0312 10.5469 82.0312 15.625L82.0312 74.4629C82.0312 79.541 79.2969 82.1289 74.4629 82.1289Z" fill="#000000" fill-opacity="0.85"/>
  <path d="M34.4727 65.332C36.2793 65.332 37.793 64.209 37.793 61.8652L37.793 56.9824L39.5508 56.9824C41.4062 56.9824 42.334 55.7617 42.334 54.1016C42.334 52.5391 41.5039 51.3184 39.5508 51.3184L37.793 51.3184L37.793 29.8828C37.793 26.5137 35.5957 24.6094 32.4219 24.6094C28.9551 24.6094 27.3438 26.3672 25.9766 29.3945L17.2363 48.3398C16.4551 50.2441 16.1621 51.5137 16.1621 53.0273C16.1621 55.3711 17.7734 56.9824 20.166 56.9824L31.1035 56.9824L31.1035 61.8652C31.1035 64.4531 32.9102 65.332 34.4727 65.332ZM31.25 51.4648L22.168 51.4648L22.168 51.123L31.0547 30.7617L31.25 30.7617ZM59.2773 65.5762C66.3086 65.5762 71.6797 61.1816 71.6797 53.8574C71.6797 47.8027 68.0664 44.8242 63.9648 44.3848L63.9648 44.2383C68.3594 43.0664 70.5078 39.1113 70.5078 35.0098C70.5078 28.2715 65.4785 24.4141 59.1309 24.4141C54.0527 24.4141 49.707 27.2461 48.291 31.5918C48.0469 32.5195 47.9492 33.3984 47.9492 34.2285C47.9492 35.8398 49.0234 37.1094 50.9277 37.1094C52.5879 37.1094 53.5645 36.4746 54.0527 34.7656C54.834 31.8848 56.3477 30.0781 59.1309 30.0781C62.3535 30.0781 63.8672 32.5684 63.8672 35.791C63.8672 39.3555 61.9141 41.9434 58.252 41.9434L57.0801 41.9434C55.4199 41.9434 54.3457 42.9688 54.3457 44.5801C54.3457 46.1914 55.4688 47.1191 57.0801 47.1191L58.3008 47.1191C62.4512 47.1191 64.7461 49.4141 64.7461 53.6621C64.7461 57.0312 62.9395 59.9121 59.3262 59.9121C55.7617 59.9121 54.1504 57.5195 53.5645 55.2734C53.125 53.7109 52.0508 52.8809 50.4883 52.8809C48.584 52.8809 47.3145 54.0527 47.3145 55.957C47.3145 56.8359 47.4121 57.7148 47.7051 58.4961C49.0723 63.0371 54.0527 65.5762 59.2773 65.5762Z" fill="#000000" fill-opacity="0.85"/>
 </g>
</svg>
