<?xml version="1.0" encoding="UTF-8"?>
<!--Generator: Apple Native CoreSVG 232.5-->
<!DOCTYPE svg
PUBLIC "-//W3C//DTD SVG 1.1//EN"
       "http://www.w3.org/Graphics/SVG/1.1/DTD/svg11.dtd">
<svg version="1.1" xmlns="http://www.w3.org/2000/svg" xmlns:xlink="http://www.w3.org/1999/xlink" width="89.8926" height="89.9902">
 <g>
  <rect height="89.9902" opacity="0" width="89.8926" x="0" y="0"/>
  <path d="M89.8926 15.2344L89.8926 74.8535C89.8926 84.9121 84.8145 89.9902 74.5605 89.9902L15.332 89.9902C5.12695 89.9902 0 84.9609 0 74.8535L0 15.2344C0 5.12695 5.12695 0.0976562 15.332 0.0976562L74.5605 0.0976562C84.8145 0.0976562 89.8926 5.17578 89.8926 15.2344ZM48.4375 31.1523C48.1934 32.1289 48.0469 33.0078 48.0469 33.8867C48.0469 35.5469 49.1699 36.8652 51.1719 36.8652C52.8809 36.8652 53.9062 36.2305 54.3945 34.4727C55.2246 31.4941 56.7383 29.6387 59.6191 29.6387C62.9395 29.6387 64.502 32.1777 64.502 35.498C64.502 39.1602 62.5 41.8457 58.6914 41.8457L57.5195 41.8457C55.8105 41.8457 54.6875 42.9199 54.6875 44.5801C54.6875 46.2402 55.8594 47.2168 57.5195 47.2168L58.7402 47.2168C63.0371 47.2168 65.3809 49.5605 65.3809 53.9062C65.3809 57.373 63.5254 60.3516 59.8145 60.3516C56.1523 60.3516 54.4922 57.9102 53.9062 55.6152C53.418 53.9551 52.3438 53.125 50.6836 53.125C48.7305 53.125 47.4121 54.3457 47.4121 56.2988C47.4121 57.2266 47.5098 58.1055 47.8027 58.9355C49.2188 63.623 54.3945 66.2109 59.7656 66.2109C67.041 66.2109 72.5586 61.6699 72.5586 54.1504C72.5586 47.9004 68.8477 44.8242 64.5996 44.3848L64.5996 44.2383C69.1406 43.0176 71.3867 38.916 71.3867 34.7168C71.3867 27.7344 66.1621 23.7793 59.6191 23.7793C54.3945 23.7793 49.9023 26.709 48.4375 31.1523ZM25.3418 28.9062L16.3574 48.4375C15.5762 50.3906 15.2832 51.709 15.2832 53.2715C15.2832 55.7129 16.9434 57.373 19.4336 57.373L30.6641 57.373L30.6641 62.3535C30.6641 65.0391 32.5684 65.9668 34.1797 65.9668C36.0352 65.9668 37.5977 64.7949 37.5977 62.3535L37.5977 57.373L39.4043 57.373C41.3086 57.373 42.2852 56.1035 42.2852 54.3945C42.2852 52.7832 41.4062 51.5137 39.4043 51.5137L37.5977 51.5137L37.5977 29.4434C37.5977 25.9277 35.3516 23.9746 32.0312 23.9746C28.4668 23.9746 26.7578 25.7812 25.3418 28.9062ZM30.8105 51.6602L21.4844 51.6602L21.4844 51.3184L30.6152 30.3223L30.8105 30.3223Z" fill="#000000" fill-opacity="0.85"/>
 </g>
</svg>
