<?xml version="1.0" encoding="UTF-8"?>
<!--Generator: Apple Native CoreSVG 232.5-->
<!DOCTYPE svg
PUBLIC "-//W3C//DTD SVG 1.1//EN"
       "http://www.w3.org/Graphics/SVG/1.1/DTD/svg11.dtd">
<svg version="1.1" xmlns="http://www.w3.org/2000/svg" xmlns:xlink="http://www.w3.org/1999/xlink" width="99.6094" height="99.6582">
 <g>
  <rect height="99.6582" opacity="0" width="99.6094" x="0" y="0"/>
  <path d="M99.6094 49.8047C99.6094 77.002 77.0508 99.6094 49.8047 99.6094C22.6074 99.6094 0 77.002 0 49.8047C0 22.5586 22.5586 0 49.7559 0C77.002 0 99.6094 22.5586 99.6094 49.8047ZM29.5898 33.7402L20.6055 53.2715C19.7266 55.2246 19.4824 56.543 19.4824 58.1055C19.4824 60.5469 21.1426 62.207 23.6328 62.207L34.8633 62.207L34.8633 67.1875C34.8633 69.873 36.7676 70.8008 38.3789 70.8008C40.2832 70.8008 41.8457 69.6289 41.8457 67.1875L41.8457 62.207L43.6035 62.207C45.5566 62.207 46.4844 60.9375 46.4844 59.2285C46.4844 57.6172 45.6543 56.3477 43.6035 56.3477L41.8457 56.3477L41.8457 34.2773C41.8457 30.7617 39.5508 28.8086 36.2305 28.8086C32.666 28.8086 31.0059 30.6152 29.5898 33.7402ZM61.377 33.7402L52.3926 53.2715C51.5625 55.2246 51.2695 56.543 51.2695 58.1055C51.2695 60.5469 52.9785 62.207 55.4199 62.207L66.6992 62.207L66.6992 67.1875C66.6992 69.873 68.5547 70.8008 70.2148 70.8008C72.0703 70.8008 73.6328 69.6289 73.6328 67.1875L73.6328 62.207L75.4395 62.207C77.3438 62.207 78.2715 60.9375 78.2715 59.2285C78.2715 57.6172 77.4414 56.3477 75.4395 56.3477L73.6328 56.3477L73.6328 34.2773C73.6328 30.7617 71.3379 28.8086 68.0176 28.8086C64.4531 28.8086 62.793 30.6152 61.377 33.7402ZM35.0098 56.4941L25.7324 56.4941L25.7324 56.1523L34.8633 35.1562L35.0098 35.1562ZM66.7969 56.4941L57.5195 56.4941L57.5195 56.1523L66.6504 35.1562L66.7969 35.1562Z" fill="#000000" fill-opacity="0.85"/>
 </g>
</svg>
