<?xml version="1.0" encoding="UTF-8"?>
<!--Generator: Apple Native CoreSVG 232.5-->
<!DOCTYPE svg
PUBLIC "-//W3C//DTD SVG 1.1//EN"
       "http://www.w3.org/Graphics/SVG/1.1/DTD/svg11.dtd">
<svg version="1.1" xmlns="http://www.w3.org/2000/svg" xmlns:xlink="http://www.w3.org/1999/xlink" width="89.8926" height="89.9902">
 <g>
  <rect height="89.9902" opacity="0" width="89.8926" x="0" y="0"/>
  <path d="M89.8926 15.2344L89.8926 74.8535C89.8926 84.9121 84.8145 89.9902 74.5605 89.9902L15.332 89.9902C5.12695 89.9902 0 84.9609 0 74.8535L0 15.2344C0 5.12695 5.12695 0.0976562 15.332 0.0976562L74.5605 0.0976562C84.8145 0.0976562 89.8926 5.17578 89.8926 15.2344ZM54.1016 24.6094C51.416 24.6094 50.2441 26.3184 50.0488 28.9551L49.2188 42.7246C49.1699 43.5059 49.1211 44.2871 49.1211 44.9707C49.1211 46.875 50.1465 48.584 52.4902 48.584C53.8574 48.584 54.6387 48.0469 55.7129 46.6797C56.8848 45.0195 58.1055 43.8477 60.1074 43.8477C63.8184 43.8477 65.2344 48.291 65.2344 52.002C65.2344 56.2012 63.7207 60.4492 60.0098 60.4492C57.2266 60.4492 55.6641 58.4473 54.6875 55.6641C54.1504 54.0527 52.9785 53.3203 51.6602 53.3203C49.8047 53.3203 48.6328 54.4922 48.6328 56.3477C48.6328 57.5195 48.9258 58.6426 49.3164 59.6191C51.123 63.7207 55.6152 66.3574 60.1074 66.3574C67.9688 66.3574 72.3145 59.7656 72.3145 51.8066C72.3145 44.873 68.9941 38.5254 62.5 38.5254C59.5215 38.5254 56.7871 39.8926 55.5176 42.7734L55.2734 42.7734L56.1035 30.5664L67.8711 30.5664C69.6289 30.5664 70.7031 29.3945 70.7031 27.5879C70.7031 25.9277 69.5801 24.6094 67.8711 24.6094ZM25.7324 28.9062L16.748 48.4375C15.8691 50.3906 15.5762 51.709 15.5762 53.2715C15.5762 55.7129 17.2852 57.373 19.7266 57.373L30.957 57.373L30.957 62.3535C30.957 65.0391 32.9102 65.9668 34.5215 65.9668C36.377 65.9668 37.9395 64.7949 37.9395 62.3535L37.9395 57.373L39.6973 57.373C41.6992 57.373 42.5781 56.1035 42.5781 54.3945C42.5781 52.7832 41.748 51.5137 39.6973 51.5137L37.9395 51.5137L37.9395 29.4434C37.9395 25.9277 35.6445 23.9746 32.3242 23.9746C28.8086 23.9746 27.1484 25.7812 25.7324 28.9062ZM31.1035 51.6602L21.8262 51.6602L21.8262 51.3184L30.9082 30.3223L31.1035 30.3223Z" fill="#000000" fill-opacity="0.85"/>
 </g>
</svg>
