<?xml version="1.0" encoding="UTF-8"?>
<!--Generator: Apple Native CoreSVG 232.5-->
<!DOCTYPE svg
PUBLIC "-//W3C//DTD SVG 1.1//EN"
       "http://www.w3.org/Graphics/SVG/1.1/DTD/svg11.dtd">
<svg version="1.1" xmlns="http://www.w3.org/2000/svg" xmlns:xlink="http://www.w3.org/1999/xlink" width="99.6094" height="99.6582">
 <g>
  <rect height="99.6582" opacity="0" width="99.6094" x="0" y="0"/>
  <path d="M49.8047 99.6094C77.0508 99.6094 99.6094 77.002 99.6094 49.8047C99.6094 22.5586 77.002 0 49.7559 0C22.5586 0 0 22.5586 0 49.8047C0 77.002 22.6074 99.6094 49.8047 99.6094ZM49.8047 91.3086C26.7578 91.3086 8.34961 72.8516 8.34961 49.8047C8.34961 26.7578 26.709 8.30078 49.7559 8.30078C72.8027 8.30078 91.3086 26.7578 91.3086 49.8047C91.3086 72.8516 72.8516 91.3086 49.8047 91.3086Z" fill="#000000" fill-opacity="0.85"/>
  <path d="M38.623 70.166C40.4785 70.166 41.9922 69.043 41.9922 66.6992L41.9922 61.8164L43.7012 61.8164C45.6055 61.8164 46.4844 60.5957 46.4844 58.9355C46.4844 57.373 45.6543 56.1523 43.7012 56.1523L41.9922 56.1523L41.9922 34.7168C41.9922 31.3477 39.7461 29.4434 36.5723 29.4434C33.1543 29.4434 31.543 31.2012 30.1758 34.2285L21.4355 53.1738C20.6055 55.0781 20.3125 56.3477 20.3125 57.8613C20.3125 60.2051 21.9727 61.8164 24.3164 61.8164L35.2539 61.8164L35.2539 66.6992C35.2539 69.2871 37.1094 70.166 38.623 70.166ZM35.4004 56.2988L26.3184 56.2988L26.3184 55.957L35.2051 35.5957L35.4004 35.5957ZM64.4043 70.5566C71.8262 70.5566 76.123 64.3066 76.123 56.6406C76.123 50.0488 72.9492 43.7988 66.4551 43.7988C62.5 43.7988 59.5215 46.4355 58.3984 50.6348L58.2031 50.6348C58.2031 50.4395 58.2031 50.2441 58.2031 50.0977C58.2031 44.6777 58.8867 34.8633 64.3066 34.8633C66.5527 34.8633 68.0176 36.4258 68.8477 38.4766C69.5312 39.9902 70.459 40.6738 72.0703 40.6738C74.0234 40.6738 74.8535 39.3555 74.8535 37.7441C74.8535 37.207 74.8047 36.6211 74.6094 35.9863C73.584 31.7871 69.3848 29.1504 64.4531 29.1504C54.4434 29.1504 51.5625 40.3809 51.5625 50.293C51.5625 59.5215 54.4922 70.5566 64.4043 70.5566ZM64.3066 64.8438C60.5957 64.8438 59.1309 60.2539 59.1309 56.7383C59.1309 53.1738 60.791 49.1211 64.3066 49.1211C67.9199 49.1211 69.4336 53.3203 69.3359 56.9336C69.3359 60.498 67.7246 64.8438 64.3066 64.8438Z" fill="#000000" fill-opacity="0.85"/>
 </g>
</svg>
