<?xml version="1.0" encoding="UTF-8"?>
<!--Generator: Apple Native CoreSVG 232.5-->
<!DOCTYPE svg
PUBLIC "-//W3C//DTD SVG 1.1//EN"
       "http://www.w3.org/Graphics/SVG/1.1/DTD/svg11.dtd">
<svg version="1.1" xmlns="http://www.w3.org/2000/svg" xmlns:xlink="http://www.w3.org/1999/xlink" width="99.6094" height="99.6582">
 <g>
  <rect height="99.6582" opacity="0" width="99.6094" x="0" y="0"/>
  <path d="M49.8047 99.6094C77.0508 99.6094 99.6094 77.002 99.6094 49.8047C99.6094 22.5586 77.002 0 49.7559 0C22.5586 0 0 22.5586 0 49.8047C0 77.002 22.6074 99.6094 49.8047 99.6094ZM49.8047 91.3086C26.7578 91.3086 8.34961 72.8516 8.34961 49.8047C8.34961 26.7578 26.709 8.30078 49.7559 8.30078C72.8027 8.30078 91.3086 26.7578 91.3086 49.8047C91.3086 72.8516 72.8516 91.3086 49.8047 91.3086Z" fill="#000000" fill-opacity="0.85"/>
  <path d="M41.1133 70.166C42.9199 70.166 44.4336 69.043 44.4336 66.6992L44.4336 61.8164L46.1914 61.8164C48.0469 61.8164 48.9746 60.5957 48.9746 58.9355C48.9746 57.373 48.1445 56.1523 46.1914 56.1523L44.4336 56.1523L44.4336 34.7168C44.4336 31.3477 42.2363 29.4434 39.0137 29.4434C35.5957 29.4434 33.9844 31.2012 32.6172 34.2285L23.877 53.1738C23.0957 55.0781 22.8027 56.3477 22.8027 57.8613C22.8027 60.2051 24.4141 61.8164 26.8066 61.8164L37.7441 61.8164L37.7441 66.6992C37.7441 69.2871 39.5508 70.166 41.1133 70.166ZM37.8906 56.2988L28.8086 56.2988L28.8086 55.957L37.6953 35.5957L37.8906 35.5957ZM59.8145 70.2148C61.6211 70.2148 62.4023 69.4824 63.0859 67.7246L74.2188 37.9395C74.7559 36.4258 75.1465 35.2539 75.1465 33.8379C75.1465 31.5918 73.3887 30.0781 71.2402 30.0781L55.4688 30.0781C53.8086 30.0781 52.6367 31.2988 52.6367 32.959C52.6367 34.6191 53.8086 35.8398 55.4688 35.8398L68.0176 35.8398L68.0176 36.2793L57.1777 64.3066C56.7871 65.3809 56.5918 66.0156 56.5918 67.1875C56.5918 68.6035 57.4707 70.2148 59.8145 70.2148Z" fill="#000000" fill-opacity="0.85"/>
 </g>
</svg>
