<?xml version="1.0" encoding="UTF-8"?>
<!--Generator: Apple Native CoreSVG 232.5-->
<!DOCTYPE svg
PUBLIC "-//W3C//DTD SVG 1.1//EN"
       "http://www.w3.org/Graphics/SVG/1.1/DTD/svg11.dtd">
<svg version="1.1" xmlns="http://www.w3.org/2000/svg" xmlns:xlink="http://www.w3.org/1999/xlink" width="99.6094" height="99.6582">
 <g>
  <rect height="99.6582" opacity="0" width="99.6094" x="0" y="0"/>
  <path d="M99.6094 49.8047C99.6094 77.002 77.0508 99.6094 49.8047 99.6094C22.6074 99.6094 0 77.002 0 49.8047C0 22.5586 22.5586 0 49.7559 0C77.002 0 99.6094 22.5586 99.6094 49.8047ZM55.7129 29.4434C54.0039 29.4434 52.7832 30.7129 52.7832 32.4219C52.7832 34.1797 54.0039 35.4492 55.7129 35.4492L68.6523 35.4492L68.6523 35.8887L57.4707 64.7461C57.0801 65.8691 56.8848 66.5039 56.8848 67.7246C56.8848 69.1895 57.8125 70.8496 60.2051 70.8496C62.1094 70.8496 62.8906 70.1172 63.623 68.2617L75.0977 37.5977C75.6348 36.0352 76.0254 34.8145 76.0254 33.3496C76.0254 31.0059 74.2188 29.4434 71.9727 29.4434ZM32.0801 33.7402L23.1445 53.2715C22.3145 55.2246 22.0215 56.543 22.0215 58.1055C22.0215 60.5469 23.6816 62.207 26.1719 62.207L37.4023 62.207L37.4023 67.1875C37.4023 69.873 39.3066 70.8008 40.918 70.8008C42.7734 70.8008 44.3359 69.6289 44.3359 67.1875L44.3359 62.207L46.1426 62.207C48.0957 62.207 49.0234 60.9375 49.0234 59.2285C49.0234 57.6172 48.1934 56.3477 46.1426 56.3477L44.3359 56.3477L44.3359 34.2773C44.3359 30.7617 42.0898 28.8086 38.7207 28.8086C35.2051 28.8086 33.4961 30.6152 32.0801 33.7402ZM37.5488 56.4941L28.2227 56.4941L28.2227 56.1523L37.3535 35.1562L37.5488 35.1562Z" fill="#000000" fill-opacity="0.85"/>
 </g>
</svg>
