<?xml version="1.0" encoding="UTF-8"?>
<!--Generator: Apple Native CoreSVG 232.5-->
<!DOCTYPE svg
PUBLIC "-//W3C//DTD SVG 1.1//EN"
       "http://www.w3.org/Graphics/SVG/1.1/DTD/svg11.dtd">
<svg version="1.1" xmlns="http://www.w3.org/2000/svg" xmlns:xlink="http://www.w3.org/1999/xlink" width="99.6094" height="99.6582">
 <g>
  <rect height="99.6582" opacity="0" width="99.6094" x="0" y="0"/>
  <path d="M99.6094 49.8047C99.6094 77.002 77.0508 99.6094 49.8047 99.6094C22.6074 99.6094 0 77.002 0 49.8047C0 22.5586 22.5586 0 49.7559 0C77.002 0 99.6094 22.5586 99.6094 49.8047ZM52.6855 39.502C52.6855 44.6289 55.957 47.6562 59.1797 48.6328L59.1797 48.7793C54.834 49.7559 51.5625 53.7109 51.5625 59.1797C51.5625 66.6504 57.2266 71.0449 64.5996 71.0449C72.5586 71.0449 77.6855 66.0645 77.6855 59.1797C77.6855 53.6621 74.1699 49.707 70.166 48.7793L70.166 48.6328C73.5352 47.6074 76.5625 44.3359 76.5625 39.5508C76.5625 33.0078 71.7285 28.6133 64.5996 28.6133C58.3496 28.6133 52.6855 32.4219 52.6855 39.502ZM29.5898 33.7402L20.6055 53.2715C19.7754 55.2246 19.4824 56.543 19.4824 58.1055C19.4824 60.5469 21.1914 62.207 23.6328 62.207L34.9121 62.207L34.9121 67.1875C34.9121 69.873 36.7676 70.8008 38.3789 70.8008C40.2832 70.8008 41.8457 69.6289 41.8457 67.1875L41.8457 62.207L43.6523 62.207C45.5566 62.207 46.4844 60.9375 46.4844 59.2285C46.4844 57.6172 45.6543 56.3477 43.6523 56.3477L41.8457 56.3477L41.8457 34.2773C41.8457 30.7617 39.5508 28.8086 36.2305 28.8086C32.666 28.8086 31.0059 30.6152 29.5898 33.7402ZM70.0684 58.5938C70.0684 62.3047 68.2617 65.5762 64.5996 65.5762C60.9375 65.5762 59.1309 62.3047 59.1309 58.5938C59.1309 54.9805 60.9863 51.7578 64.5996 51.7578C68.1641 51.7578 70.0684 54.7852 70.0684 58.5938ZM35.0586 56.4941L25.7324 56.4941L25.7324 56.1523L34.8633 35.1562L35.0586 35.1562ZM69.4336 40.2344C69.4336 43.5547 67.7734 46.3379 64.5996 46.3379C61.377 46.3379 59.7656 43.2129 59.7656 40.2344C59.7656 37.0117 61.4746 34.0332 64.5996 34.0332C67.8711 34.0332 69.4336 37.0117 69.4336 40.2344Z" fill="#000000" fill-opacity="0.85"/>
 </g>
</svg>
