<?xml version="1.0" encoding="UTF-8"?>
<!--Generator: Apple Native CoreSVG 232.5-->
<!DOCTYPE svg
PUBLIC "-//W3C//DTD SVG 1.1//EN"
       "http://www.w3.org/Graphics/SVG/1.1/DTD/svg11.dtd">
<svg version="1.1" xmlns="http://www.w3.org/2000/svg" xmlns:xlink="http://www.w3.org/1999/xlink" width="99.6094" height="99.6582">
 <g>
  <rect height="99.6582" opacity="0" width="99.6094" x="0" y="0"/>
  <path d="M49.8047 99.6094C77.0508 99.6094 99.6094 77.002 99.6094 49.8047C99.6094 22.5586 77.002 0 49.7559 0C22.5586 0 0 22.5586 0 49.8047C0 77.002 22.6074 99.6094 49.8047 99.6094ZM49.8047 91.3086C26.7578 91.3086 8.34961 72.8516 8.34961 49.8047C8.34961 26.7578 26.709 8.30078 49.7559 8.30078C72.8027 8.30078 91.3086 26.7578 91.3086 49.8047C91.3086 72.8516 72.8516 91.3086 49.8047 91.3086Z" fill="#000000" fill-opacity="0.85"/>
  <path d="M38.6719 70.166C40.4785 70.166 41.9922 69.043 41.9922 66.6992L41.9922 61.8164L43.75 61.8164C45.6055 61.8164 46.4844 60.5957 46.4844 58.9355C46.4844 57.373 45.7031 56.1523 43.75 56.1523L41.9922 56.1523L41.9922 34.7168C41.9922 31.3477 39.7949 29.4434 36.5723 29.4434C33.1543 29.4434 31.543 31.2012 30.1758 34.2285L21.4355 53.1738C20.6055 55.0781 20.3613 56.3477 20.3613 57.8613C20.3613 60.2051 21.9727 61.8164 24.3652 61.8164L35.2539 61.8164L35.2539 66.6992C35.2539 69.2871 37.1094 70.166 38.6719 70.166ZM35.4004 56.2988L26.3672 56.2988L26.3672 55.957L35.2539 35.5957L35.4004 35.5957ZM64.0625 70.4102C71.7773 70.4102 76.709 65.5762 76.709 58.8867C76.709 53.5645 73.3398 49.707 69.4336 48.8281L69.4336 48.6816C72.7051 47.6562 75.6348 44.4824 75.6348 39.8438C75.6348 33.5449 70.9473 29.248 64.0625 29.248C58.0078 29.248 52.5391 32.959 52.5391 39.7949C52.5391 44.7754 55.6641 47.7051 58.7891 48.6816L58.7891 48.8281C54.5898 49.7559 51.416 53.6133 51.416 58.8867C51.416 66.1133 56.8848 70.4102 64.0625 70.4102ZM64.0625 46.4355C60.9375 46.4355 59.3262 43.4082 59.3262 40.5273C59.3262 37.4023 61.0352 34.4727 64.0625 34.4727C67.2363 34.4727 68.75 37.4023 68.75 40.5273C68.75 43.75 67.1387 46.4355 64.0625 46.4355ZM64.0625 65.1367C60.498 65.1367 58.7402 61.9629 58.7402 58.3496C58.7402 54.834 60.5469 51.709 64.0625 51.709C67.5293 51.709 69.3848 54.6387 69.3848 58.3496C69.3848 61.9629 67.627 65.1367 64.0625 65.1367Z" fill="#000000" fill-opacity="0.85"/>
 </g>
</svg>
