<?xml version="1.0" encoding="UTF-8"?>
<!--Generator: Apple Native CoreSVG 232.5-->
<!DOCTYPE svg
PUBLIC "-//W3C//DTD SVG 1.1//EN"
       "http://www.w3.org/Graphics/SVG/1.1/DTD/svg11.dtd">
<svg version="1.1" xmlns="http://www.w3.org/2000/svg" xmlns:xlink="http://www.w3.org/1999/xlink" width="89.8926" height="89.9902">
 <g>
  <rect height="89.9902" opacity="0" width="89.8926" x="0" y="0"/>
  <path d="M15.332 89.9902L74.5605 89.9902C84.8145 89.9902 89.8926 84.9121 89.8926 74.8535L89.8926 15.2344C89.8926 5.17578 84.8145 0.0976562 74.5605 0.0976562L15.332 0.0976562C5.12695 0.0976562 0 5.12695 0 15.2344L0 74.8535C0 84.9609 5.12695 89.9902 15.332 89.9902ZM15.4297 82.1289C10.5469 82.1289 7.86133 79.541 7.86133 74.4629L7.86133 15.625C7.86133 10.5469 10.5469 7.95898 15.4297 7.95898L74.4629 7.95898C79.2969 7.95898 82.0312 10.5469 82.0312 15.625L82.0312 74.4629C82.0312 79.541 79.2969 82.1289 74.4629 82.1289Z" fill="#000000" fill-opacity="0.85"/>
  <path d="M33.8867 65.332C35.6934 65.332 37.207 64.209 37.207 61.8652L37.207 56.9824L38.9648 56.9824C40.8203 56.9824 41.6992 55.7617 41.6992 54.1016C41.6992 52.5391 40.918 51.3184 38.9648 51.3184L37.207 51.3184L37.207 29.8828C37.207 26.5137 35.0098 24.6094 31.7871 24.6094C28.3691 24.6094 26.7578 26.3672 25.3906 29.3945L16.6504 48.3398C15.8691 50.2441 15.5762 51.5137 15.5762 53.0273C15.5762 55.3711 17.1875 56.9824 19.5801 56.9824L30.5176 56.9824L30.5176 61.8652C30.5176 64.4531 32.3242 65.332 33.8867 65.332ZM30.6641 51.4648L21.582 51.4648L21.582 51.123L30.4688 30.7617L30.6641 30.7617ZM59.2773 65.5762C66.9922 65.5762 71.9727 60.7422 71.9727 54.0527C71.9727 48.7305 68.5547 44.873 64.6484 43.9941L64.6484 43.8477C67.9199 42.8223 70.8496 39.6484 70.8496 35.0098C70.8496 28.7109 66.1621 24.4141 59.2773 24.4141C53.2227 24.4141 47.7539 28.125 47.7539 34.9609C47.7539 39.9414 50.8789 42.8711 54.0039 43.8477L54.0039 43.9941C49.8535 44.9219 46.6309 48.7793 46.6309 54.0527C46.6309 61.2793 52.0996 65.5762 59.2773 65.5762ZM59.2773 41.6016C56.1523 41.6016 54.5898 38.5742 54.5898 35.6934C54.5898 32.5684 56.25 29.6387 59.2773 29.6387C62.4512 29.6387 63.9648 32.5684 63.9648 35.6934C63.9648 38.916 62.3535 41.6016 59.2773 41.6016ZM59.2773 60.3027C55.7129 60.3027 53.9551 57.1289 53.9551 53.5156C53.9551 50 55.7617 46.875 59.2773 46.875C62.7441 46.875 64.6484 49.8047 64.6484 53.5156C64.6484 57.1289 62.8906 60.3027 59.2773 60.3027Z" fill="#000000" fill-opacity="0.85"/>
 </g>
</svg>
