<?xml version="1.0" encoding="UTF-8"?>
<!--Generator: Apple Native CoreSVG 232.5-->
<!DOCTYPE svg
PUBLIC "-//W3C//DTD SVG 1.1//EN"
       "http://www.w3.org/Graphics/SVG/1.1/DTD/svg11.dtd">
<svg version="1.1" xmlns="http://www.w3.org/2000/svg" xmlns:xlink="http://www.w3.org/1999/xlink" width="99.6094" height="99.6582">
 <g>
  <rect height="99.6582" opacity="0" width="99.6094" x="0" y="0"/>
  <path d="M49.8047 99.6094C77.0508 99.6094 99.6094 77.002 99.6094 49.8047C99.6094 22.5586 77.002 0 49.7559 0C22.5586 0 0 22.5586 0 49.8047C0 77.002 22.6074 99.6094 49.8047 99.6094ZM49.8047 91.3086C26.7578 91.3086 8.34961 72.8516 8.34961 49.8047C8.34961 26.7578 26.709 8.30078 49.7559 8.30078C72.8027 8.30078 91.3086 26.7578 91.3086 49.8047C91.3086 72.8516 72.8516 91.3086 49.8047 91.3086Z" fill="#000000" fill-opacity="0.85"/>
  <path d="M39.4043 70.166C41.2598 70.166 42.7246 69.043 42.7246 66.6992L42.7246 61.8164L44.4824 61.8164C46.3867 61.8164 47.2656 60.5957 47.2656 58.9355C47.2656 57.373 46.4355 56.1523 44.4824 56.1523L42.7246 56.1523L42.7246 34.7168C42.7246 31.3477 40.5273 29.4434 37.3535 29.4434C33.8867 29.4434 32.2754 31.2012 30.9082 34.2285L22.2168 53.1738C21.3867 55.0781 21.0938 56.3477 21.0938 57.8613C21.0938 60.2051 22.7051 61.8164 25.0977 61.8164L36.0352 61.8164L36.0352 66.6992C36.0352 69.2871 37.8906 70.166 39.4043 70.166ZM36.1816 56.2988L27.0996 56.2988L27.0996 55.957L35.9863 35.5957L36.1816 35.5957ZM61.7188 55.9082C65.7227 55.9082 68.7012 53.2715 69.8242 49.0723L70.0195 49.0723C70.0195 49.2676 70.0195 49.4629 70.0195 49.6094C70.0195 55.0293 69.3359 64.7949 63.8672 64.7949C61.6699 64.7949 60.2051 63.2812 59.3262 61.1816C58.6426 59.5703 57.666 58.9355 56.2012 58.9355C54.1504 58.9355 53.2715 60.3027 53.2715 61.9141C53.2715 62.5 53.418 63.0859 53.5645 63.6719C54.5898 67.9199 58.8379 70.5078 63.7207 70.5078C73.7305 70.5078 76.6602 59.4238 76.6602 49.4141C76.6602 40.1855 73.7305 29.1504 63.8184 29.1504C56.3965 29.1504 52.0996 35.4004 52.0996 43.0664C52.0996 49.6582 55.2734 55.9082 61.7188 55.9082ZM63.916 50.5371C60.3027 50.5371 58.8379 46.3867 58.8379 42.7734C58.8379 39.1113 60.498 34.8145 63.916 34.8145C67.5781 34.8145 69.0918 39.1113 69.0918 42.7734C69.0918 46.5332 67.4316 50.5371 63.916 50.5371Z" fill="#000000" fill-opacity="0.85"/>
 </g>
</svg>
