<?xml version="1.0" encoding="UTF-8"?>
<!--Generator: Apple Native CoreSVG 232.5-->
<!DOCTYPE svg
PUBLIC "-//W3C//DTD SVG 1.1//EN"
       "http://www.w3.org/Graphics/SVG/1.1/DTD/svg11.dtd">
<svg version="1.1" xmlns="http://www.w3.org/2000/svg" xmlns:xlink="http://www.w3.org/1999/xlink" width="99.6094" height="99.6582">
 <g>
  <rect height="99.6582" opacity="0" width="99.6094" x="0" y="0"/>
  <path d="M49.8047 99.6094C77.0508 99.6094 99.6094 77.002 99.6094 49.8047C99.6094 22.5586 77.002 0 49.7559 0C22.5586 0 0 22.5586 0 49.8047C0 77.002 22.6074 99.6094 49.8047 99.6094ZM49.8047 91.3086C26.7578 91.3086 8.34961 72.8516 8.34961 49.8047C8.34961 26.7578 26.709 8.30078 49.7559 8.30078C72.8027 8.30078 91.3086 26.7578 91.3086 49.8047C91.3086 72.8516 72.8516 91.3086 49.8047 91.3086Z" fill="#000000" fill-opacity="0.85"/>
  <path d="M37.2559 70.166C39.1113 70.166 40.625 69.043 40.625 66.6992L40.625 61.8164L42.334 61.8164C44.2383 61.8164 45.1172 60.5957 45.1172 58.9355C45.1172 57.373 44.2871 56.1523 42.334 56.1523L40.625 56.1523L40.625 34.7168C40.625 31.3477 38.3789 29.4434 35.2051 29.4434C31.7871 29.4434 30.1758 31.2012 28.7598 34.2285L20.0684 53.1738C19.2383 55.0781 18.9453 56.3477 18.9453 57.8613C18.9453 60.2051 20.6055 61.8164 22.9492 61.8164L33.8867 61.8164L33.8867 66.6992C33.8867 69.2871 35.7422 70.166 37.2559 70.166ZM34.0332 56.2988L24.9512 56.2988L24.9512 55.957L33.8379 35.5957L34.0332 35.5957ZM52.8809 70.2148C54.7363 70.2148 56.0059 69.2871 56.3965 66.9922L57.959 60.3027L68.9453 60.3027L70.5566 67.041C71.0449 69.5312 72.5098 70.2148 74.2188 70.2148C76.123 70.2148 77.4902 68.75 77.4902 66.8457C77.4902 65.9668 77.3438 65.3809 77.1484 64.5996L68.9453 33.8867C68.1641 30.8105 66.2109 29.4922 63.4277 29.4922C60.5469 29.4922 58.7891 31.0059 58.0566 33.8867L49.8535 64.6484C49.707 65.2344 49.5117 66.2598 49.5117 66.8457C49.5117 68.8477 50.8301 70.2148 52.8809 70.2148ZM59.2285 54.9316L63.1836 37.5977L63.5742 37.5977L67.6758 54.9316Z" fill="#000000" fill-opacity="0.85"/>
 </g>
</svg>
