<?xml version="1.0" encoding="UTF-8"?>
<!--Generator: Apple Native CoreSVG 232.5-->
<!DOCTYPE svg
PUBLIC "-//W3C//DTD SVG 1.1//EN"
       "http://www.w3.org/Graphics/SVG/1.1/DTD/svg11.dtd">
<svg version="1.1" xmlns="http://www.w3.org/2000/svg" xmlns:xlink="http://www.w3.org/1999/xlink" width="122.559" height="72.2168">
 <g>
  <rect height="72.2168" opacity="0" width="122.559" x="0" y="0"/>
  <path d="M38.8184 72.1191C41.2109 72.1191 42.9688 70.2637 42.9688 67.7246L42.9688 56.1035L49.4141 56.1035C51.709 56.1035 53.2715 54.7363 53.2715 52.4414C53.2715 50.293 51.6602 48.7793 49.4141 48.7793L42.9688 48.7793L42.9688 6.83594C42.9688 2.88086 40.0391 0.0488281 35.9375 0.0488281C31.543 0.0488281 29.0039 3.27148 26.709 6.88477L1.80664 45.0684C0.634766 46.9238 0 48.877 0 50.6348C0 53.7598 2.05078 56.1035 5.95703 56.1035L34.668 56.1035L34.668 67.7246C34.668 70.752 36.8164 72.1191 38.8184 72.1191ZM34.7168 48.877L8.1543 48.877L8.1543 48.4375L34.2773 8.74023L34.7168 8.74023ZM67.3828 72.1191C69.9707 72.1191 71.2402 71.1426 72.168 68.4082L78.4668 51.1719L107.275 51.1719L113.574 68.4082C114.502 71.1426 115.771 72.1191 118.311 72.1191C120.898 72.1191 122.559 70.5566 122.559 68.1152C122.559 67.2852 122.412 66.5039 122.021 65.4785L99.1211 4.49219C97.998 1.51367 95.9961 0 92.8711 0C89.8438 0 87.793 1.46484 86.7188 4.44336L63.8184 65.5273C63.4277 66.5527 63.2812 67.334 63.2812 68.1641C63.2812 70.6055 64.8438 72.1191 67.3828 72.1191ZM80.8594 43.75L92.7246 10.8887L92.9688 10.8887L104.834 43.75Z" fill="#000000" fill-opacity="0.85"/>
 </g>
</svg>
