<?xml version="1.0" encoding="UTF-8"?>
<!--Generator: Apple Native CoreSVG 232.5-->
<!DOCTYPE svg
PUBLIC "-//W3C//DTD SVG 1.1//EN"
       "http://www.w3.org/Graphics/SVG/1.1/DTD/svg11.dtd">
<svg version="1.1" xmlns="http://www.w3.org/2000/svg" xmlns:xlink="http://www.w3.org/1999/xlink" width="99.6094" height="99.6582">
 <g>
  <rect height="99.6582" opacity="0" width="99.6094" x="0" y="0"/>
  <path d="M49.8047 99.6094C77.0508 99.6094 99.6094 77.002 99.6094 49.8047C99.6094 22.5586 77.002 0 49.7559 0C22.5586 0 0 22.5586 0 49.8047C0 77.002 22.6074 99.6094 49.8047 99.6094ZM49.8047 91.3086C26.7578 91.3086 8.34961 72.8516 8.34961 49.8047C8.34961 26.7578 26.709 8.30078 49.7559 8.30078C72.8027 8.30078 91.3086 26.7578 91.3086 49.8047C91.3086 72.8516 72.8516 91.3086 49.8047 91.3086Z" fill="#000000" fill-opacity="0.85"/>
  <path d="M36.6211 70.166C38.4766 70.166 39.9414 69.043 39.9414 66.6992L39.9414 61.8164L41.6992 61.8164C43.6035 61.8164 44.4824 60.5957 44.4824 58.9355C44.4824 57.373 43.6523 56.1523 41.6992 56.1523L39.9414 56.1523L39.9414 34.7168C39.9414 31.3477 37.7441 29.4434 34.5703 29.4434C31.1035 29.4434 29.4922 31.2012 28.125 34.2285L19.4336 53.1738C18.6035 55.0781 18.3105 56.3477 18.3105 57.8613C18.3105 60.2051 19.9219 61.8164 22.3145 61.8164L33.252 61.8164L33.252 66.6992C33.252 69.2871 35.0586 70.166 36.6211 70.166ZM33.3984 56.2988L24.3164 56.2988L24.3164 55.957L33.2031 35.5957L33.3984 35.5957ZM54.0527 70.166C56.0059 70.166 57.6172 68.5547 57.6172 66.5527L57.6172 52.4414L69.6777 52.4414L69.6777 66.5527C69.6777 68.5547 71.2891 70.166 73.2422 70.166C75.1465 70.166 76.8066 68.5547 76.8066 66.5527L76.8066 32.959C76.8066 31.0059 75.1465 29.3945 73.2422 29.3945C71.2891 29.3945 69.6777 31.0059 69.6777 32.959L69.6777 46.4844L57.6172 46.4844L57.6172 32.959C57.6172 31.0059 56.0059 29.3945 54.0527 29.3945C52.0996 29.3945 50.4883 31.0059 50.4883 32.959L50.4883 66.5527C50.4883 68.5547 52.0996 70.166 54.0527 70.166Z" fill="#000000" fill-opacity="0.85"/>
 </g>
</svg>
