<?xml version="1.0" encoding="UTF-8"?>
<!--Generator: Apple Native CoreSVG 232.5-->
<!DOCTYPE svg
PUBLIC "-//W3C//DTD SVG 1.1//EN"
       "http://www.w3.org/Graphics/SVG/1.1/DTD/svg11.dtd">
<svg version="1.1" xmlns="http://www.w3.org/2000/svg" xmlns:xlink="http://www.w3.org/1999/xlink" width="122.07" height="97.7051">
 <g>
  <rect height="97.7051" opacity="0" width="122.07" x="0" y="0"/>
  <path d="M12.5488 81.1035L109.521 81.1035C117.334 81.1035 122.07 76.3184 122.07 68.5547L122.07 12.5488C122.07 4.78516 117.334 0 109.521 0L12.5488 0C4.78516 0 0 4.78516 0 12.5488L0 68.5547C0 76.3184 4.78516 81.1035 12.5488 81.1035ZM12.6953 73.2422C9.66797 73.2422 7.86133 71.4355 7.86133 68.457L7.86133 12.6465C7.86133 9.66797 9.66797 7.86133 12.6953 7.86133L109.375 7.86133C112.402 7.86133 114.209 9.66797 114.209 12.6465L114.209 68.457C114.209 71.4355 112.402 73.2422 109.375 73.2422ZM36.4746 97.6562L85.5957 97.6562C87.7441 97.6562 89.5508 95.8984 89.5508 93.7012C89.5508 91.5039 87.7441 89.7461 85.5957 89.7461L36.4746 89.7461C34.3262 89.7461 32.5195 91.5039 32.5195 93.7012C32.5195 95.8984 34.3262 97.6562 36.4746 97.6562Z" fill="#000000" fill-opacity="0.85"/>
  <path d="M47.9004 60.9863C49.707 60.9863 51.2207 59.8145 51.2207 57.4707L51.2207 52.5879L52.9785 52.5879C54.834 52.5879 55.7617 51.3672 55.7617 49.7559C55.7617 48.1445 54.9316 46.9238 52.9785 46.9238L51.2207 46.9238L51.2207 25.4883C51.2207 22.1191 49.0234 20.2637 45.8496 20.2637C42.3828 20.2637 40.7715 22.0215 39.4043 25.0488L30.6641 43.9941C29.8828 45.8496 29.5898 47.1191 29.5898 48.6328C29.5898 50.9766 31.2012 52.5879 33.5938 52.5879L44.5312 52.5879L44.5312 57.4707C44.5312 60.0586 46.3379 60.9863 47.9004 60.9863ZM44.6777 47.0703L35.5957 47.0703L35.5957 46.7773L44.4824 26.416L44.6777 26.416ZM65.2832 61.0352C67.7734 61.0352 68.8965 59.3262 68.8965 57.3242L68.8965 48.584L72.0703 43.6523L80.7129 58.3496C81.6895 60.0586 82.6172 60.9375 84.5215 60.9375C86.4746 60.9375 87.6953 59.5215 87.6953 57.6172C87.6953 56.543 87.5 55.9082 86.8652 54.7852L77.2949 38.8184L85.6934 26.3184C86.2793 25.5371 86.6211 24.8047 86.6211 23.6328C86.6211 22.0215 85.4492 20.4102 83.3984 20.4102C81.543 20.4102 80.8594 21.3867 80.2246 22.4121L69.1895 39.3555L68.8477 39.3555L68.8477 24.0234C68.8477 21.9238 67.627 20.3125 65.2832 20.3125C62.9883 20.3125 61.7188 21.7773 61.7188 24.0234L61.7188 57.3242C61.7188 59.5215 63.0371 61.0352 65.2832 61.0352Z" fill="#000000" fill-opacity="0.85"/>
 </g>
</svg>
