<?xml version="1.0" encoding="UTF-8"?>
<!--Generator: Apple Native CoreSVG 232.5-->
<!DOCTYPE svg
PUBLIC "-//W3C//DTD SVG 1.1//EN"
       "http://www.w3.org/Graphics/SVG/1.1/DTD/svg11.dtd">
<svg version="1.1" xmlns="http://www.w3.org/2000/svg" xmlns:xlink="http://www.w3.org/1999/xlink" width="111.523" height="72.2168">
 <g>
  <rect height="72.2168" opacity="0" width="111.523" x="0" y="0"/>
  <path d="M38.8184 72.1191C41.2109 72.1191 42.9688 70.2637 42.9688 67.7246L42.9688 56.1035L49.4141 56.1035C51.709 56.1035 53.2715 54.7363 53.2715 52.4414C53.2715 50.293 51.6602 48.7793 49.4141 48.7793L42.9688 48.7793L42.9688 6.83594C42.9688 2.88086 40.0391 0.0488281 35.9375 0.0488281C31.543 0.0488281 29.0039 3.27148 26.709 6.88477L1.80664 45.0684C0.634766 46.9238 0 48.877 0 50.6348C0 53.7598 2.05078 56.1035 5.95703 56.1035L34.668 56.1035L34.668 67.7246C34.668 70.752 36.8164 72.1191 38.8184 72.1191ZM34.7168 48.877L8.1543 48.877L8.1543 48.4375L34.2773 8.74023L34.7168 8.74023ZM72.2168 71.0938L107.422 71.0938C109.814 71.0938 111.523 69.4824 111.523 67.2363C111.523 65.0391 109.814 63.5254 107.422 63.5254L76.6113 63.5254L76.6113 4.3457C76.6113 1.9043 74.6582 0 72.2656 0C69.873 0 67.9199 1.9043 67.9199 4.3457L67.9199 66.5527C67.9199 69.8242 70.0195 71.0938 72.2168 71.0938Z" fill="#000000" fill-opacity="0.85"/>
 </g>
</svg>
