<?xml version="1.0" encoding="UTF-8"?>
<!--Generator: Apple Native CoreSVG 232.5-->
<!DOCTYPE svg
PUBLIC "-//W3C//DTD SVG 1.1//EN"
       "http://www.w3.org/Graphics/SVG/1.1/DTD/svg11.dtd">
<svg version="1.1" xmlns="http://www.w3.org/2000/svg" xmlns:xlink="http://www.w3.org/1999/xlink" width="99.6094" height="99.6582">
 <g>
  <rect height="99.6582" opacity="0" width="99.6094" x="0" y="0"/>
  <path d="M49.8047 99.6094C77.0508 99.6094 99.6094 77.002 99.6094 49.8047C99.6094 22.5586 77.002 0 49.7559 0C22.5586 0 0 22.5586 0 49.8047C0 77.002 22.6074 99.6094 49.8047 99.6094ZM49.8047 91.3086C26.7578 91.3086 8.34961 72.8516 8.34961 49.8047C8.34961 26.7578 26.709 8.30078 49.7559 8.30078C72.8027 8.30078 91.3086 26.7578 91.3086 49.8047C91.3086 72.8516 72.8516 91.3086 49.8047 91.3086Z" fill="#000000" fill-opacity="0.85"/>
  <path d="M49.4629 73.0469C59.375 73.0469 66.1621 66.8457 66.1621 57.4219C66.1621 48.7793 59.9609 42.7734 51.0254 42.7734C47.0703 42.7734 42.9688 44.5312 41.2109 46.9727L40.8691 46.9727L42.041 33.6914L61.5234 33.6914C63.1836 33.6914 64.4043 32.4219 64.4043 30.6641C64.4043 28.9062 63.2324 27.6855 61.5234 27.6855L41.3086 27.6855C38.1348 27.6855 36.0352 29.4434 35.8398 32.2754L34.4727 48.5352C34.2773 51.3184 35.9375 53.1738 38.623 53.1738C40.4297 53.1738 41.5039 52.7832 43.457 51.3184C45.8008 49.3164 47.6562 48.584 50.1465 48.584C55.3223 48.584 58.7891 52.1973 58.7891 57.5684C58.7891 62.9395 54.7363 66.9434 49.3164 66.9434C45.3125 66.9434 41.8945 64.9414 40.2832 61.7188C39.4043 60.1562 38.2324 59.375 36.8164 59.375C34.8633 59.375 33.5449 60.7422 33.5449 62.5977C33.5449 63.4277 33.7402 64.209 34.0332 64.9414C35.9863 69.9219 41.6504 73.0469 49.4629 73.0469Z" fill="#000000" fill-opacity="0.85"/>
 </g>
</svg>
