<?xml version="1.0" encoding="UTF-8"?>
<!--Generator: Apple Native CoreSVG 232.5-->
<!DOCTYPE svg
PUBLIC "-//W3C//DTD SVG 1.1//EN"
       "http://www.w3.org/Graphics/SVG/1.1/DTD/svg11.dtd">
<svg version="1.1" xmlns="http://www.w3.org/2000/svg" xmlns:xlink="http://www.w3.org/1999/xlink" width="89.8926" height="73.6816">
 <g>
  <rect height="73.6816" opacity="0" width="89.8926" x="0" y="0"/>
  <path d="M0 69.7266C0 71.875 1.75781 73.6816 3.90625 73.6816C6.10352 73.6816 7.86133 71.875 7.86133 69.7266L7.86133 4.00391C7.86133 1.85547 6.10352 0.0976562 3.90625 0.0976562C1.75781 0.0976562 0 1.85547 0 4.00391ZM82.0312 69.7266C82.0312 71.875 83.8379 73.6816 85.9863 73.6816C88.1348 73.6816 89.8926 71.875 89.8926 69.7266L89.8926 4.00391C89.8926 1.85547 88.1348 0.0976562 85.9863 0.0976562C83.8379 0.0976562 82.0312 1.85547 82.0312 4.00391Z" fill="#000000" fill-opacity="0.85"/>
  <path d="M45.166 60.1074C53.8086 60.1074 59.2285 53.6621 59.2285 45.0195C59.2285 37.5488 54.9805 31.1523 47.6074 31.1523C43.9453 31.1523 40.8691 32.8613 39.3066 35.6934L39.1113 35.6934L40.0879 22.998L54.248 22.998C56.1035 22.998 57.3242 21.7773 57.3242 19.9219C57.3242 18.0176 56.1523 16.748 54.248 16.748L38.1348 16.748C35.2051 16.748 33.8867 18.3105 33.6914 21.2402L32.5195 37.4512C32.3242 39.8926 33.6426 41.748 36.0352 41.748C37.8418 41.748 38.623 41.0645 39.7461 39.7461C41.0645 37.9395 42.9688 36.8164 45.2148 36.8164C49.5605 36.8164 51.7578 40.7715 51.7578 45.2148C51.7578 49.9023 49.3652 53.8574 45.0684 53.8574C41.7969 53.8574 39.5508 51.709 38.4766 48.8281C37.6953 47.2656 36.5723 46.4844 35.1074 46.4844C33.1543 46.4844 31.9336 47.7051 31.9336 49.6582C31.9336 50.293 32.0312 50.9766 32.2266 51.6113C33.5938 56.9336 39.7461 60.1074 45.166 60.1074Z" fill="#000000" fill-opacity="0.85"/>
 </g>
</svg>
