<?xml version="1.0" encoding="UTF-8"?>
<!--Generator: Apple Native CoreSVG 232.5-->
<!DOCTYPE svg
PUBLIC "-//W3C//DTD SVG 1.1//EN"
       "http://www.w3.org/Graphics/SVG/1.1/DTD/svg11.dtd">
<svg version="1.1" xmlns="http://www.w3.org/2000/svg" xmlns:xlink="http://www.w3.org/1999/xlink" width="89.8926" height="89.9902">
 <g>
  <rect height="89.9902" opacity="0" width="89.8926" x="0" y="0"/>
  <path d="M15.332 89.9902L74.5605 89.9902C84.8145 89.9902 89.8926 84.9121 89.8926 74.8535L89.8926 15.2344C89.8926 5.17578 84.8145 0.0976562 74.5605 0.0976562L15.332 0.0976562C5.12695 0.0976562 0 5.12695 0 15.2344L0 74.8535C0 84.9609 5.12695 89.9902 15.332 89.9902ZM15.4297 82.1289C10.5469 82.1289 7.86133 79.541 7.86133 74.4629L7.86133 15.625C7.86133 10.5469 10.5469 7.95898 15.4297 7.95898L74.4629 7.95898C79.2969 7.95898 82.0312 10.5469 82.0312 15.625L82.0312 74.4629C82.0312 79.541 79.2969 82.1289 74.4629 82.1289Z" fill="#000000" fill-opacity="0.85"/>
  <path d="M44.6777 68.2129C54.5898 68.2129 61.4258 62.0117 61.4258 52.5879C61.4258 43.9453 55.1758 37.9395 46.2891 37.9395C42.2852 37.9395 38.1836 39.6973 36.4258 42.1387L36.084 42.1387L37.2559 28.8574L56.7383 28.8574C58.3984 28.8574 59.6191 27.5879 59.6191 25.8301C59.6191 24.0723 58.4473 22.8516 56.7383 22.8516L36.5234 22.8516C33.3496 22.8516 31.25 24.6094 31.0547 27.4414L29.7363 43.7012C29.4922 46.4844 31.1523 48.3398 33.8379 48.3398C35.6445 48.3398 36.7676 47.9492 38.6719 46.4844C41.0156 44.4824 42.8711 43.75 45.3613 43.75C50.5371 43.75 54.0039 47.3633 54.0039 52.7344C54.0039 58.1055 49.9512 62.1094 44.5312 62.1094C40.5273 62.1094 37.1094 60.1074 35.498 56.8848C34.6191 55.3223 33.4473 54.541 32.0312 54.541C30.0781 54.541 28.7598 55.9082 28.7598 57.7637C28.7598 58.5938 28.9551 59.375 29.2969 60.1074C31.2012 65.0879 36.8652 68.2129 44.6777 68.2129Z" fill="#000000" fill-opacity="0.85"/>
 </g>
</svg>
