<?xml version="1.0" encoding="UTF-8"?>
<!--Generator: Apple Native CoreSVG 232.5-->
<!DOCTYPE svg
PUBLIC "-//W3C//DTD SVG 1.1//EN"
       "http://www.w3.org/Graphics/SVG/1.1/DTD/svg11.dtd">
<svg version="1.1" xmlns="http://www.w3.org/2000/svg" xmlns:xlink="http://www.w3.org/1999/xlink" width="99.6094" height="99.6582">
 <g>
  <rect height="99.6582" opacity="0" width="99.6094" x="0" y="0"/>
  <path d="M99.6094 49.8047C99.6094 77.002 77.0508 99.6094 49.8047 99.6094C22.6074 99.6094 0 77.002 0 49.8047C0 22.5586 22.5586 0 49.7559 0C77.002 0 99.6094 22.5586 99.6094 49.8047ZM28.5156 29.541C25.8301 29.541 24.6582 31.2988 24.4629 33.8379L23.6816 47.6074C23.6328 48.3887 23.584 49.1699 23.584 49.8535C23.584 51.8066 24.5605 53.4668 26.9043 53.4668C28.2715 53.4668 29.0527 52.9785 30.127 51.5625C31.2988 49.9023 32.5195 48.7305 34.5703 48.7305C38.2812 48.7305 39.6484 53.1738 39.6484 56.8848C39.6484 61.084 38.1836 65.332 34.4727 65.332C31.6406 65.332 30.0781 63.3301 29.1992 60.5957C28.5645 58.9844 27.4414 58.2031 26.0742 58.2031C24.2188 58.2031 23.0469 59.375 23.0469 61.2305C23.0469 62.4023 23.3398 63.5254 23.7793 64.502C25.5371 68.6035 30.0293 71.2402 34.5703 71.2402C42.4316 71.2402 46.7285 64.6973 46.7285 56.7383C46.7285 49.8047 43.4082 43.4082 36.9141 43.4082C33.9355 43.4082 31.2012 44.7754 29.9316 47.7539L29.6875 47.7539L30.5176 35.498L42.334 35.498C44.0918 35.498 45.166 34.2773 45.166 32.4707C45.166 30.8105 44.043 29.541 42.334 29.541ZM52.3926 49.8535C52.3926 60.0098 55.3711 71.2402 65.3809 71.2402C75.4883 71.2402 78.4668 60.0098 78.4668 49.8535C78.4668 39.6973 75.4883 28.4668 65.3809 28.4668C55.3711 28.4668 52.3926 39.6973 52.3926 49.8535ZM71.0449 49.8535C71.0449 58.6426 69.4824 65.2344 65.3809 65.2344C61.3281 65.2344 59.7656 58.6426 59.7656 49.8535C59.7656 41.1133 61.3281 34.4727 65.3809 34.4727C69.4824 34.4727 71.0449 41.1133 71.0449 49.8535Z" fill="#000000" fill-opacity="0.85"/>
 </g>
</svg>
