<?xml version="1.0" encoding="UTF-8"?>
<!--Generator: Apple Native CoreSVG 232.5-->
<!DOCTYPE svg
PUBLIC "-//W3C//DTD SVG 1.1//EN"
       "http://www.w3.org/Graphics/SVG/1.1/DTD/svg11.dtd">
<svg version="1.1" xmlns="http://www.w3.org/2000/svg" xmlns:xlink="http://www.w3.org/1999/xlink" width="99.6094" height="99.6582">
 <g>
  <rect height="99.6582" opacity="0" width="99.6094" x="0" y="0"/>
  <path d="M49.8047 99.6094C77.0508 99.6094 99.6094 77.002 99.6094 49.8047C99.6094 22.5586 77.002 0 49.7559 0C22.5586 0 0 22.5586 0 49.8047C0 77.002 22.6074 99.6094 49.8047 99.6094ZM49.8047 91.3086C26.7578 91.3086 8.34961 72.8516 8.34961 49.8047C8.34961 26.7578 26.709 8.30078 49.7559 8.30078C72.8027 8.30078 91.3086 26.7578 91.3086 49.8047C91.3086 72.8516 72.8516 91.3086 49.8047 91.3086Z" fill="#000000" fill-opacity="0.85"/>
  <path d="M49.9023 73.0469C59.9121 73.0469 66.8457 66.6016 66.8457 57.5195C66.8457 49.4629 60.791 43.457 52.2461 43.457C48.9258 43.457 45.5078 44.7266 43.8965 46.3867L43.457 46.2402C43.8965 45.4102 44.5801 44.5312 46.0938 42.5781C48.5352 39.3555 51.8066 35.3516 54.1504 32.2754C54.9316 31.2988 55.3223 30.5176 55.3223 29.5898C55.3223 28.125 54.3457 26.6113 52.002 26.6113C50.4395 26.6113 49.5117 27.6367 48.7305 28.6133C45.5078 32.8125 42.5781 36.5723 40.0391 39.9414C35.0098 46.582 32.8613 51.9531 32.8613 57.2266C32.8613 66.6016 39.7461 73.0469 49.9023 73.0469ZM49.9023 66.8945C44.0918 66.8945 39.7461 62.9883 39.7461 57.8125C39.7461 52.7344 44.043 48.9746 49.8535 48.9746C55.7129 48.9746 60.0098 52.7344 60.0098 57.9102C60.0098 62.9883 55.7129 66.8945 49.9023 66.8945Z" fill="#000000" fill-opacity="0.85"/>
 </g>
</svg>
