<?xml version="1.0" encoding="UTF-8"?>
<!--Generator: Apple Native CoreSVG 232.5-->
<!DOCTYPE svg
PUBLIC "-//W3C//DTD SVG 1.1//EN"
       "http://www.w3.org/Graphics/SVG/1.1/DTD/svg11.dtd">
<svg version="1.1" xmlns="http://www.w3.org/2000/svg" xmlns:xlink="http://www.w3.org/1999/xlink" width="89.8926" height="89.9902">
 <g>
  <rect height="89.9902" opacity="0" width="89.8926" x="0" y="0"/>
  <path d="M15.332 89.9902L74.5605 89.9902C84.8145 89.9902 89.8926 84.9121 89.8926 74.8535L89.8926 15.2344C89.8926 5.17578 84.8145 0.0976562 74.5605 0.0976562L15.332 0.0976562C5.12695 0.0976562 0 5.12695 0 15.2344L0 74.8535C0 84.9609 5.12695 89.9902 15.332 89.9902ZM15.4297 82.1289C10.5469 82.1289 7.86133 79.541 7.86133 74.4629L7.86133 15.625C7.86133 10.5469 10.5469 7.95898 15.4297 7.95898L74.4629 7.95898C79.2969 7.95898 82.0312 10.5469 82.0312 15.625L82.0312 74.4629C82.0312 79.541 79.2969 82.1289 74.4629 82.1289Z" fill="#000000" fill-opacity="0.85"/>
  <path d="M45.1172 68.2129C55.127 68.2129 62.0605 61.7676 62.0605 52.6855C62.0605 44.6289 56.0059 38.623 47.4609 38.623C44.1406 38.623 40.7715 39.8926 39.1113 41.5527L38.6719 41.4062C39.1113 40.5762 39.7949 39.6973 41.3086 37.7441C43.75 34.5215 47.0215 30.5176 49.4141 27.4414C50.1465 26.4648 50.5371 25.6836 50.5371 24.7559C50.5371 23.291 49.5605 21.7773 47.2168 21.7773C45.6543 21.7773 44.7266 22.8027 43.9453 23.7793C40.7227 27.9785 37.793 31.7383 35.2539 35.1074C30.2246 41.748 28.0762 47.1191 28.0762 52.3926C28.0762 61.7676 34.9609 68.2129 45.1172 68.2129ZM45.1172 62.0605C39.3066 62.0605 34.9609 58.1543 34.9609 52.9785C34.9609 47.9004 39.2578 44.1406 45.0684 44.1406C50.9277 44.1406 55.2246 47.9004 55.2246 53.0762C55.2246 58.1543 50.9277 62.0605 45.1172 62.0605Z" fill="#000000" fill-opacity="0.85"/>
 </g>
</svg>
