<?xml version="1.0" encoding="UTF-8"?>
<!--Generator: Apple Native CoreSVG 232.5-->
<!DOCTYPE svg
PUBLIC "-//W3C//DTD SVG 1.1//EN"
       "http://www.w3.org/Graphics/SVG/1.1/DTD/svg11.dtd">
<svg version="1.1" xmlns="http://www.w3.org/2000/svg" xmlns:xlink="http://www.w3.org/1999/xlink" width="99.6094" height="99.6582">
 <g>
  <rect height="99.6582" opacity="0" width="99.6094" x="0" y="0"/>
  <path d="M99.6094 49.8047C99.6094 77.002 77.0508 99.6094 49.8047 99.6094C22.6074 99.6094 0 77.002 0 49.8047C0 22.5586 22.5586 0 49.7559 0C77.002 0 99.6094 22.5586 99.6094 49.8047ZM32.1777 50.9277C32.1777 57.8613 33.3984 62.8906 35.5469 66.2598C38.7695 71.6309 44.2871 73.7793 50.1953 73.7793C60.3516 73.7793 67.4805 67.8711 67.4805 57.5684C67.4805 47.998 60.2539 42.627 52.2949 42.627C45.5566 42.627 41.6016 46.0449 39.9902 49.707C39.8926 49.707 39.6973 49.707 39.5996 49.707C39.5996 49.4629 39.5996 49.3164 39.5996 49.1699C39.5996 38.8672 44.2871 32.2754 51.2207 32.2754C54.6875 32.2754 56.6895 33.7891 58.1055 35.5469C59.7168 37.1582 60.7422 38.0371 62.4512 38.0371C64.1602 38.0371 65.4785 36.8164 65.4785 35.0586C65.4785 34.2285 65.332 33.5449 65.0391 32.8125C63.4766 29.1016 57.959 25.8301 51.4648 25.8301C39.5508 25.8301 32.1777 34.1309 32.1777 50.9277ZM59.5703 57.9102C59.5703 63.8184 55.7617 67.7246 49.8535 67.7246C44.2871 67.7246 40.2344 63.5742 40.2344 57.8613C40.2344 52.3438 44.2383 48.3887 49.9023 48.3887C55.6152 48.3887 59.5703 52.2949 59.5703 57.9102Z" fill="#000000" fill-opacity="0.85"/>
 </g>
</svg>
