<?xml version="1.0" encoding="UTF-8"?>
<!--Generator: Apple Native CoreSVG 232.5-->
<!DOCTYPE svg
PUBLIC "-//W3C//DTD SVG 1.1//EN"
       "http://www.w3.org/Graphics/SVG/1.1/DTD/svg11.dtd">
<svg version="1.1" xmlns="http://www.w3.org/2000/svg" xmlns:xlink="http://www.w3.org/1999/xlink" width="99.6094" height="99.6582">
 <g>
  <rect height="99.6582" opacity="0" width="99.6094" x="0" y="0"/>
  <path d="M49.8047 99.6094C77.0508 99.6094 99.6094 77.002 99.6094 49.8047C99.6094 22.5586 77.002 0 49.7559 0C22.5586 0 0 22.5586 0 49.8047C0 77.002 22.6074 99.6094 49.8047 99.6094ZM49.8047 91.3086C26.7578 91.3086 8.34961 72.8516 8.34961 49.8047C8.34961 26.7578 26.709 8.30078 49.7559 8.30078C72.8027 8.30078 91.3086 26.7578 91.3086 49.8047C91.3086 72.8516 72.8516 91.3086 49.8047 91.3086Z" fill="#000000" fill-opacity="0.85"/>
  <path d="M50.1465 73.0469C59.9609 73.0469 66.8945 67.334 66.8945 57.3242C66.8945 48.0469 59.8633 42.8711 52.1484 42.8711C45.6055 42.8711 41.7969 46.1914 40.2344 49.707C40.1367 49.707 39.9414 49.707 39.8438 49.707C39.8438 49.5117 39.8438 49.3652 39.8438 49.2188C39.8438 39.209 44.3848 32.7637 51.123 32.7637C54.4922 32.7637 56.4453 34.2773 57.8125 35.9863C59.375 37.5488 60.3516 38.3789 62.0117 38.3789C63.6719 38.3789 64.9414 37.207 64.9414 35.498C64.9414 34.7168 64.7949 34.0332 64.502 33.3496C62.9883 29.7363 57.666 26.5625 51.3672 26.5625C39.8438 26.5625 32.666 34.6191 32.666 50.8789C32.666 57.6172 33.8867 62.5 35.9375 65.7715C39.0625 70.9473 44.3848 73.0469 50.1465 73.0469ZM49.8047 67.1875C44.3848 67.1875 40.4785 63.1836 40.4785 57.6172C40.4785 52.2461 44.3359 48.4375 49.8535 48.4375C55.4199 48.4375 59.2285 52.1973 59.2285 57.666C59.2285 63.4277 55.5664 67.1875 49.8047 67.1875Z" fill="#000000" fill-opacity="0.85"/>
 </g>
</svg>
