<?xml version="1.0" encoding="UTF-8"?>
<!--Generator: Apple Native CoreSVG 232.5-->
<!DOCTYPE svg
PUBLIC "-//W3C//DTD SVG 1.1//EN"
       "http://www.w3.org/Graphics/SVG/1.1/DTD/svg11.dtd">
<svg version="1.1" xmlns="http://www.w3.org/2000/svg" xmlns:xlink="http://www.w3.org/1999/xlink" width="89.8926" height="73.6816">
 <g>
  <rect height="73.6816" opacity="0" width="89.8926" x="0" y="0"/>
  <path d="M0 69.7266C0 71.875 1.75781 73.6816 3.90625 73.6816C6.10352 73.6816 7.86133 71.875 7.86133 69.7266L7.86133 4.00391C7.86133 1.85547 6.10352 0.0976562 3.90625 0.0976562C1.75781 0.0976562 0 1.85547 0 4.00391ZM82.0312 69.7266C82.0312 71.875 83.8379 73.6816 85.9863 73.6816C88.1348 73.6816 89.8926 71.875 89.8926 69.7266L89.8926 4.00391C89.8926 1.85547 88.1348 0.0976562 85.9863 0.0976562C83.8379 0.0976562 82.0312 1.85547 82.0312 4.00391Z" fill="#000000" fill-opacity="0.85"/>
  <path d="M45.6543 60.0586C53.9062 60.0586 59.6191 53.9062 59.6191 45.1172C59.6191 37.3047 55.127 31.3477 47.9004 31.3477C42.9199 31.3477 39.4043 34.3262 38.0371 38.623L37.8418 38.623C37.8418 34.7656 38.0859 31.9336 38.6719 29.541C39.6484 25.6348 41.6504 21.9727 45.6543 21.9727C48.3887 21.9727 50.2441 23.3887 51.4648 25.8301C52.2949 27.2461 53.3691 28.1738 55.0293 28.1738C57.3242 28.1738 58.2031 26.5625 58.2031 25C58.2031 23.9746 57.959 22.998 57.5195 22.1191C55.7617 18.2617 51.123 15.7227 45.752 15.7227C35.2051 15.7227 31.2988 25.6348 30.8594 35.7422C30.4199 40.2832 30.8594 45.2637 32.0801 49.1211C34.2285 55.4688 38.7207 60.0586 45.6543 60.0586ZM45.5566 53.8086C41.3086 53.8086 38.916 49.4629 38.916 45.2148C38.916 40.8203 41.5039 37.1582 45.6055 37.1582C49.8535 37.1582 52.1484 41.0645 52.1484 45.4102C52.1484 49.707 49.707 53.8086 45.5566 53.8086Z" fill="#000000" fill-opacity="0.85"/>
 </g>
</svg>
