<?xml version="1.0" encoding="UTF-8"?>
<!--Generator: Apple Native CoreSVG 232.5-->
<!DOCTYPE svg
PUBLIC "-//W3C//DTD SVG 1.1//EN"
       "http://www.w3.org/Graphics/SVG/1.1/DTD/svg11.dtd">
<svg version="1.1" xmlns="http://www.w3.org/2000/svg" xmlns:xlink="http://www.w3.org/1999/xlink" width="89.8926" height="89.9902">
 <g>
  <rect height="89.9902" opacity="0" width="89.8926" x="0" y="0"/>
  <path d="M15.332 89.9902L74.5605 89.9902C84.8145 89.9902 89.8926 84.9121 89.8926 74.8535L89.8926 15.2344C89.8926 5.17578 84.8145 0.0976562 74.5605 0.0976562L15.332 0.0976562C5.12695 0.0976562 0 5.12695 0 15.2344L0 74.8535C0 84.9609 5.12695 89.9902 15.332 89.9902ZM15.4297 82.1289C10.5469 82.1289 7.86133 79.541 7.86133 74.4629L7.86133 15.625C7.86133 10.5469 10.5469 7.95898 15.4297 7.95898L74.4629 7.95898C79.2969 7.95898 82.0312 10.5469 82.0312 15.625L82.0312 74.4629C82.0312 79.541 79.2969 82.1289 74.4629 82.1289Z" fill="#000000" fill-opacity="0.85"/>
  <path d="M45.3613 68.2129C55.1758 68.2129 62.1094 62.5 62.1094 52.4902C62.1094 43.2129 55.0781 38.0371 47.3633 38.0371C40.8203 38.0371 37.0605 41.3574 35.4492 44.873C35.3516 44.873 35.1562 44.873 35.0586 44.873C35.0586 44.6777 35.0586 44.5312 35.0586 44.3848C35.0586 34.375 39.6484 27.9297 46.3379 27.9297C49.707 27.9297 51.6602 29.4434 53.0762 31.1523C54.5898 32.7148 55.5664 33.5449 57.2266 33.5449C58.8867 33.5449 60.2051 32.373 60.2051 30.6641C60.2051 29.8828 60.0098 29.1992 59.7168 28.5156C58.2031 24.9023 52.9297 21.7285 46.582 21.7285C35.0586 21.7285 27.8809 29.7852 27.8809 46.0449C27.8809 52.7832 29.1016 57.666 31.1523 60.9375C34.2773 66.1133 39.5996 68.2129 45.3613 68.2129ZM45.0684 62.3535C39.5996 62.3535 35.6934 58.3496 35.6934 52.7832C35.6934 47.4121 39.5508 43.6035 45.0684 43.6035C50.6348 43.6035 54.4434 47.3633 54.4434 52.832C54.4434 58.5938 50.7812 62.3535 45.0684 62.3535Z" fill="#000000" fill-opacity="0.85"/>
 </g>
</svg>
