<?xml version="1.0" encoding="UTF-8"?>
<!--Generator: Apple Native CoreSVG 232.5-->
<!DOCTYPE svg
PUBLIC "-//W3C//DTD SVG 1.1//EN"
       "http://www.w3.org/Graphics/SVG/1.1/DTD/svg11.dtd">
<svg version="1.1" xmlns="http://www.w3.org/2000/svg" xmlns:xlink="http://www.w3.org/1999/xlink" width="89.8926" height="89.9902">
 <g>
  <rect height="89.9902" opacity="0" width="89.8926" x="0" y="0"/>
  <path d="M89.8926 15.2344L89.8926 74.8535C89.8926 84.9121 84.8145 89.9902 74.5605 89.9902L15.332 89.9902C5.12695 89.9902 0 84.9609 0 74.8535L0 15.2344C0 5.12695 5.12695 0.0976562 15.332 0.0976562L74.5605 0.0976562C84.8145 0.0976562 89.8926 5.17578 89.8926 15.2344ZM27.3438 46.0938C27.3438 53.0273 28.5645 58.0566 30.7129 61.4258C33.9355 66.7969 39.4531 68.9453 45.3613 68.9453C55.5176 68.9453 62.6465 63.0371 62.6465 52.7344C62.6465 43.1641 55.4199 37.793 47.4609 37.793C40.7227 37.793 36.8164 41.2109 35.1562 44.873C35.0586 44.873 34.8633 44.873 34.7656 44.873C34.7656 44.6289 34.7656 44.4824 34.7656 44.3359C34.7656 34.0332 39.502 27.4414 46.3867 27.4414C49.8535 27.4414 51.8555 28.9551 53.3203 30.7129C54.8828 32.3242 55.9082 33.2031 57.6172 33.2031C59.3262 33.2031 60.6934 31.9824 60.6934 30.2246C60.6934 29.3945 60.498 28.7109 60.2051 27.9785C58.6426 24.2676 53.1738 20.9961 46.6309 20.9961C34.7168 20.9961 27.3438 29.2969 27.3438 46.0938ZM54.7363 53.0762C54.7363 58.9844 50.9277 62.8906 45.0684 62.8906C39.4531 62.8906 35.4004 58.7402 35.4004 53.0273C35.4004 47.5098 39.4043 43.5547 45.0684 43.5547C50.7812 43.5547 54.7363 47.4609 54.7363 53.0762Z" fill="#000000" fill-opacity="0.85"/>
 </g>
</svg>
