<?xml version="1.0" encoding="UTF-8"?>
<!--Generator: Apple Native CoreSVG 232.5-->
<!DOCTYPE svg
PUBLIC "-//W3C//DTD SVG 1.1//EN"
       "http://www.w3.org/Graphics/SVG/1.1/DTD/svg11.dtd">
<svg version="1.1" xmlns="http://www.w3.org/2000/svg" xmlns:xlink="http://www.w3.org/1999/xlink" width="99.6094" height="99.6582">
 <g>
  <rect height="99.6582" opacity="0" width="99.6094" x="0" y="0"/>
  <path d="M49.8047 99.6094C77.0508 99.6094 99.6094 77.002 99.6094 49.8047C99.6094 22.5586 77.002 0 49.7559 0C22.5586 0 0 22.5586 0 49.8047C0 77.002 22.6074 99.6094 49.8047 99.6094ZM49.8047 91.3086C26.7578 91.3086 8.34961 72.8516 8.34961 49.8047C8.34961 26.7578 26.709 8.30078 49.7559 8.30078C72.8027 8.30078 91.3086 26.7578 91.3086 49.8047C91.3086 72.8516 72.8516 91.3086 49.8047 91.3086Z" fill="#000000" fill-opacity="0.85"/>
  <path d="M43.2129 72.998C44.873 72.998 45.9961 72.2168 47.0215 70.3125L65.2344 36.1816C66.1621 34.4238 66.4062 33.3984 66.4062 32.373C66.4062 29.6875 64.2578 27.6855 61.084 27.6855L37.207 27.6855C35.498 27.6855 34.3262 28.9062 34.3262 30.6641C34.3262 32.4219 35.5469 33.6914 37.207 33.6914L57.959 33.6914L57.959 34.082L39.9902 66.9922C39.502 67.8223 39.3066 68.5059 39.3066 69.4824C39.3066 71.5332 41.0156 72.998 43.2129 72.998Z" fill="#000000" fill-opacity="0.85"/>
 </g>
</svg>
