<?xml version="1.0" encoding="UTF-8"?>
<!--Generator: Apple Native CoreSVG 232.5-->
<!DOCTYPE svg
PUBLIC "-//W3C//DTD SVG 1.1//EN"
       "http://www.w3.org/Graphics/SVG/1.1/DTD/svg11.dtd">
<svg version="1.1" xmlns="http://www.w3.org/2000/svg" xmlns:xlink="http://www.w3.org/1999/xlink" width="89.8926" height="73.6816">
 <g>
  <rect height="73.6816" opacity="0" width="89.8926" x="0" y="0"/>
  <path d="M0 69.7266C0 71.875 1.75781 73.6816 3.90625 73.6816C6.10352 73.6816 7.86133 71.875 7.86133 69.7266L7.86133 4.00391C7.86133 1.85547 6.10352 0.0976562 3.90625 0.0976562C1.75781 0.0976562 0 1.85547 0 4.00391ZM82.0312 69.7266C82.0312 71.875 83.8379 73.6816 85.9863 73.6816C88.1348 73.6816 89.8926 71.875 89.8926 69.7266L89.8926 4.00391C89.8926 1.85547 88.1348 0.0976562 85.9863 0.0976562C83.8379 0.0976562 82.0312 1.85547 82.0312 4.00391Z" fill="#000000" fill-opacity="0.85"/>
  <path d="M39.8926 59.668C41.748 59.668 42.6758 58.8867 43.3594 57.1777L56.9824 25.3418C57.6172 23.877 58.1055 22.4609 58.1055 20.8496C58.1055 18.1641 56.1523 16.7969 53.8086 16.7969L34.7168 16.7969C32.8613 16.7969 31.6406 18.0176 31.6406 19.873C31.6406 21.6797 32.8613 22.9492 34.7168 22.9492L50.3418 22.9492L50.3418 23.3398L36.9629 53.5645C36.5723 54.541 36.2793 55.3711 36.2793 56.4453C36.2793 58.3496 37.793 59.668 39.8926 59.668Z" fill="#000000" fill-opacity="0.85"/>
 </g>
</svg>
