<?xml version="1.0" encoding="UTF-8"?>
<!--Generator: Apple Native CoreSVG 232.5-->
<!DOCTYPE svg
PUBLIC "-//W3C//DTD SVG 1.1//EN"
       "http://www.w3.org/Graphics/SVG/1.1/DTD/svg11.dtd">
<svg version="1.1" xmlns="http://www.w3.org/2000/svg" xmlns:xlink="http://www.w3.org/1999/xlink" width="89.8926" height="73.6816">
 <g>
  <rect height="73.6816" opacity="0" width="89.8926" x="0" y="0"/>
  <path d="M0 69.7266C0 71.875 1.75781 73.6816 3.90625 73.6816C6.10352 73.6816 7.86133 71.875 7.86133 69.7266L7.86133 4.00391C7.86133 1.85547 6.10352 0.0976562 3.90625 0.0976562C1.75781 0.0976562 0 1.85547 0 4.00391ZM82.0312 69.7266C82.0312 71.875 83.8379 73.6816 85.9863 73.6816C88.1348 73.6816 89.8926 71.875 89.8926 69.7266L89.8926 4.00391C89.8926 1.85547 88.1348 0.0976562 85.9863 0.0976562C83.8379 0.0976562 82.0312 1.85547 82.0312 4.00391Z" fill="#000000" fill-opacity="0.85"/>
  <path d="M44.9219 59.9609C52.832 59.9609 59.8633 55.6641 59.8633 47.6074C59.8633 42.041 56.25 37.8418 51.2207 36.7676L51.2207 36.6699C55.4688 35.4004 58.5449 31.8359 58.5449 27.2461C58.5449 20.166 52.5391 15.8691 44.9219 15.8691C37.5 15.8691 31.2988 20.166 31.2988 27.1973C31.2988 31.8359 34.4238 35.4004 38.7695 36.6699L38.7695 36.7676C33.7891 37.793 30.0293 42.041 30.0293 47.5586C30.0293 55.4688 36.8164 59.9609 44.9219 59.9609ZM44.9219 34.2285C41.3086 34.2285 38.9648 31.543 38.9648 27.9785C38.9648 24.2676 41.2598 21.582 44.9707 21.582C48.877 21.582 50.9766 24.4629 50.9766 27.9785C50.9766 31.5918 48.584 34.2285 44.9219 34.2285ZM44.9219 54.1992C40.7715 54.1992 38.0859 51.0742 38.0859 47.0215C38.0859 43.0176 40.7715 39.9902 44.9219 39.9902C49.1699 39.9902 51.8066 42.9199 51.8066 47.0215C51.8066 51.1719 49.1211 54.1992 44.9219 54.1992Z" fill="#000000" fill-opacity="0.85"/>
 </g>
</svg>
