<?xml version="1.0" encoding="UTF-8"?>
<!--Generator: Apple Native CoreSVG 232.5-->
<!DOCTYPE svg
PUBLIC "-//W3C//DTD SVG 1.1//EN"
       "http://www.w3.org/Graphics/SVG/1.1/DTD/svg11.dtd">
<svg version="1.1" xmlns="http://www.w3.org/2000/svg" xmlns:xlink="http://www.w3.org/1999/xlink" width="99.6094" height="99.6582">
 <g>
  <rect height="99.6582" opacity="0" width="99.6094" x="0" y="0"/>
  <path d="M49.8047 99.6094C77.0508 99.6094 99.6094 77.002 99.6094 49.8047C99.6094 22.5586 77.002 0 49.7559 0C22.5586 0 0 22.5586 0 49.8047C0 77.002 22.6074 99.6094 49.8047 99.6094ZM49.8047 91.3086C26.7578 91.3086 8.34961 72.8516 8.34961 49.8047C8.34961 26.7578 26.709 8.30078 49.7559 8.30078C72.8027 8.30078 91.3086 26.7578 91.3086 49.8047C91.3086 72.8516 72.8516 91.3086 49.8047 91.3086Z" fill="#000000" fill-opacity="0.85"/>
  <path d="M32.8125 42.0898C32.8125 50.293 39.0137 56.25 47.5098 56.25C50.7324 56.25 54.1992 55.0781 55.8594 53.3691L56.4453 53.3691C56.0547 54.1016 55.3223 55.127 54.248 56.4453C51.5625 59.8633 48.3398 63.7695 45.4102 67.334C44.6289 68.2617 44.2383 69.1895 44.2383 70.1172C44.2383 71.582 45.5078 72.998 47.4609 72.998C49.3652 72.998 50.0977 71.875 51.4648 70.1172C54.0527 66.9434 57.7148 62.207 60.3516 58.7402C64.8438 52.7344 66.9922 47.7539 66.9922 42.4805C66.9922 33.0078 60.0098 26.5625 49.9023 26.5625C39.7949 26.5625 32.8125 32.959 32.8125 42.0898ZM39.6973 41.7969C39.6973 36.6211 44.0918 32.7637 49.9023 32.7637C55.6641 32.7637 60.0586 36.6699 60.0586 41.7969C60.0586 47.0215 55.7129 50.7812 49.9512 50.7812C44.0918 50.7812 39.6973 46.9727 39.6973 41.7969Z" fill="#000000" fill-opacity="0.85"/>
 </g>
</svg>
