<?xml version="1.0" encoding="UTF-8"?>
<!--Generator: Apple Native CoreSVG 232.5-->
<!DOCTYPE svg
PUBLIC "-//W3C//DTD SVG 1.1//EN"
       "http://www.w3.org/Graphics/SVG/1.1/DTD/svg11.dtd">
<svg version="1.1" xmlns="http://www.w3.org/2000/svg" xmlns:xlink="http://www.w3.org/1999/xlink" width="89.8926" height="89.9902">
 <g>
  <rect height="89.9902" opacity="0" width="89.8926" x="0" y="0"/>
  <path d="M15.332 89.9902L74.5605 89.9902C84.8145 89.9902 89.8926 84.9121 89.8926 74.8535L89.8926 15.2344C89.8926 5.17578 84.8145 0.0976562 74.5605 0.0976562L15.332 0.0976562C5.12695 0.0976562 0 5.12695 0 15.2344L0 74.8535C0 84.9609 5.12695 89.9902 15.332 89.9902ZM15.4297 82.1289C10.5469 82.1289 7.86133 79.541 7.86133 74.4629L7.86133 15.625C7.86133 10.5469 10.5469 7.95898 15.4297 7.95898L74.4629 7.95898C79.2969 7.95898 82.0312 10.5469 82.0312 15.625L82.0312 74.4629C82.0312 79.541 79.2969 82.1289 74.4629 82.1289Z" fill="#000000" fill-opacity="0.85"/>
  <path d="M28.0273 37.2559C28.0273 45.459 34.2285 51.416 42.7246 51.416C45.9473 51.416 49.4141 50.2441 51.0742 48.5352L51.6602 48.5352C51.2695 49.2676 50.5371 50.293 49.5117 51.6113C46.7773 55.0293 43.5547 58.9355 40.6738 62.5C39.8438 63.4277 39.4531 64.3555 39.4531 65.2832C39.4531 66.748 40.7227 68.1641 42.6758 68.1641C44.5801 68.1641 45.3125 67.041 46.7285 65.2832C49.2676 62.1094 52.9785 57.373 55.5664 53.9062C60.0586 47.9004 62.207 42.9199 62.207 37.6465C62.207 28.1738 55.2246 21.7285 45.1172 21.7285C35.0098 21.7285 28.0273 28.125 28.0273 37.2559ZM34.9121 36.9629C34.9121 31.7871 39.3066 27.9297 45.1172 27.9297C50.8789 27.9297 55.2734 31.8359 55.2734 36.9629C55.2734 42.1875 50.9277 45.9473 45.166 45.9473C39.3066 45.9473 34.9121 42.1387 34.9121 36.9629Z" fill="#000000" fill-opacity="0.85"/>
 </g>
</svg>
