<?xml version="1.0" encoding="UTF-8"?>
<!--Generator: Apple Native CoreSVG 232.5-->
<!DOCTYPE svg
PUBLIC "-//W3C//DTD SVG 1.1//EN"
       "http://www.w3.org/Graphics/SVG/1.1/DTD/svg11.dtd">
<svg version="1.1" xmlns="http://www.w3.org/2000/svg" xmlns:xlink="http://www.w3.org/1999/xlink" width="99.6094" height="99.6582">
 <g>
  <rect height="99.6582" opacity="0" width="99.6094" x="0" y="0"/>
  <path d="M99.6094 49.8047C99.6094 77.002 77.0508 99.6094 49.8047 99.6094C22.6074 99.6094 0 77.002 0 49.8047C0 22.5586 22.5586 0 49.7559 0C77.002 0 99.6094 22.5586 99.6094 49.8047ZM32.3242 41.8945C32.3242 51.3672 39.502 56.7383 47.3633 56.7383C54.0527 56.7383 58.0566 53.418 59.668 49.707L60.0098 49.707C60.1074 60.7422 55.4199 67.334 48.4863 67.334C45.0195 67.334 42.6758 65.918 40.625 63.0859C39.7461 61.9141 38.7695 61.084 37.1582 61.084C35.2051 61.084 33.8379 62.4023 33.8379 64.3555C33.8379 64.8926 33.9355 65.4785 34.1309 66.0645C35.3516 69.5801 40.0879 73.7793 48.5352 73.7793C60.7422 73.7793 67.334 65.0879 67.334 48.1934C67.334 33.6914 60.791 25.8301 49.4629 25.8301C39.0625 25.8301 32.3242 32.1289 32.3242 41.8945ZM59.4238 41.6504C59.4238 47.0703 55.3711 51.0254 49.7559 51.0254C44.0918 51.0254 40.1367 47.0703 40.1367 41.5527C40.1367 35.6934 43.9941 31.8359 49.8047 31.8359C55.2734 31.8359 59.4238 35.9863 59.4238 41.6504Z" fill="#000000" fill-opacity="0.85"/>
 </g>
</svg>
