<?xml version="1.0" encoding="UTF-8"?>
<!--Generator: Apple Native CoreSVG 232.5-->
<!DOCTYPE svg
PUBLIC "-//W3C//DTD SVG 1.1//EN"
       "http://www.w3.org/Graphics/SVG/1.1/DTD/svg11.dtd">
<svg version="1.1" xmlns="http://www.w3.org/2000/svg" xmlns:xlink="http://www.w3.org/1999/xlink" width="99.6094" height="99.6582">
 <g>
  <rect height="99.6582" opacity="0" width="99.6094" x="0" y="0"/>
  <path d="M49.8047 99.6094C77.0508 99.6094 99.6094 77.002 99.6094 49.8047C99.6094 22.5586 77.002 0 49.7559 0C22.5586 0 0 22.5586 0 49.8047C0 77.002 22.6074 99.6094 49.8047 99.6094ZM49.8047 91.3086C26.7578 91.3086 8.34961 72.8516 8.34961 49.8047C8.34961 26.7578 26.709 8.30078 49.7559 8.30078C72.8027 8.30078 91.3086 26.7578 91.3086 49.8047C91.3086 72.8516 72.8516 91.3086 49.8047 91.3086Z" fill="#000000" fill-opacity="0.85"/>
  <path d="M48.5352 73.0469C60.3516 73.0469 66.748 64.5996 66.748 48.2422C66.748 34.1797 60.4004 26.5625 49.4141 26.5625C39.3555 26.5625 32.8125 32.666 32.8125 42.1387C32.8125 51.3184 39.7949 56.543 47.4121 56.543C53.9062 56.543 57.7637 53.3203 59.3262 49.707L59.668 49.707C59.7656 60.4492 55.2246 66.8457 48.4863 66.8457C45.1172 66.8457 42.8223 65.4297 40.8203 62.6953C39.9902 61.5723 39.0625 60.7422 37.5 60.7422C35.5957 60.7422 34.2773 62.0117 34.2773 63.916C34.2773 64.4531 34.375 64.9902 34.5703 65.5762C35.7422 68.9453 40.332 73.0469 48.5352 73.0469ZM49.707 51.0254C44.1895 51.0254 40.3809 47.168 40.3809 41.7969C40.3809 36.1328 44.0918 32.373 49.7559 32.373C55.0781 32.373 59.082 36.377 59.082 41.8945C59.082 47.168 55.1758 51.0254 49.707 51.0254Z" fill="#000000" fill-opacity="0.85"/>
 </g>
</svg>
