<?xml version="1.0" encoding="UTF-8"?>
<!--Generator: Apple Native CoreSVG 232.5-->
<!DOCTYPE svg
PUBLIC "-//W3C//DTD SVG 1.1//EN"
       "http://www.w3.org/Graphics/SVG/1.1/DTD/svg11.dtd">
<svg version="1.1" xmlns="http://www.w3.org/2000/svg" xmlns:xlink="http://www.w3.org/1999/xlink" width="89.8926" height="73.6816">
 <g>
  <rect height="73.6816" opacity="0" width="89.8926" x="0" y="0"/>
  <path d="M0 69.7266C0 71.875 1.75781 73.6816 3.90625 73.6816C6.10352 73.6816 7.86133 71.875 7.86133 69.7266L7.86133 4.00391C7.86133 1.85547 6.10352 0.0976562 3.90625 0.0976562C1.75781 0.0976562 0 1.85547 0 4.00391ZM82.0312 69.7266C82.0312 71.875 83.8379 73.6816 85.9863 73.6816C88.1348 73.6816 89.8926 71.875 89.8926 69.7266L89.8926 4.00391C89.8926 1.85547 88.1348 0.0976562 85.9863 0.0976562C83.8379 0.0976562 82.0312 1.85547 82.0312 4.00391Z" fill="#000000" fill-opacity="0.85"/>
  <path d="M44.0918 60.0098C55.8105 60.0098 59.5215 48.6816 59.5215 37.3535C59.5215 26.2207 55.1758 15.6738 44.3359 15.6738C36.0352 15.6738 30.3711 21.9238 30.3711 30.6152C30.3711 38.0859 34.8633 44.4336 42.1875 44.4336C47.3145 44.4336 50.7812 41.2109 52.0508 37.0605L52.1484 37.0605C52.1484 37.2559 52.1484 37.4023 52.1484 37.5977C52.1973 44.4336 50.8789 53.7598 44.3848 53.7598C41.4551 53.7598 39.6973 52.2461 38.4277 49.8535C37.5488 48.3398 36.5723 47.5586 34.8633 47.5586C32.8125 47.5586 31.6895 48.9746 31.6895 50.7812C31.6895 52.3926 32.7637 54.3457 34.0332 55.6641C36.377 58.3984 39.9902 60.0098 44.0918 60.0098ZM44.3848 38.5742C40.0879 38.5742 37.8418 34.5215 37.8418 30.3223C37.8418 26.0254 40.1855 21.9238 44.4336 21.9238C48.6328 21.9238 51.0742 26.1719 51.0742 30.4688C51.0742 34.7656 48.5352 38.5742 44.3848 38.5742Z" fill="#000000" fill-opacity="0.85"/>
 </g>
</svg>
