<?xml version="1.0" encoding="UTF-8"?>
<!--Generator: Apple Native CoreSVG 232.5-->
<!DOCTYPE svg
PUBLIC "-//W3C//DTD SVG 1.1//EN"
       "http://www.w3.org/Graphics/SVG/1.1/DTD/svg11.dtd">
<svg version="1.1" xmlns="http://www.w3.org/2000/svg" xmlns:xlink="http://www.w3.org/1999/xlink" width="89.8926" height="89.9902">
 <g>
  <rect height="89.9902" opacity="0" width="89.8926" x="0" y="0"/>
  <path d="M89.8926 15.2344L89.8926 74.8535C89.8926 84.9121 84.8145 89.9902 74.5605 89.9902L15.332 89.9902C5.12695 89.9902 0 84.9609 0 74.8535L0 15.2344C0 5.12695 5.12695 0.0976562 15.332 0.0976562L74.5605 0.0976562C84.8145 0.0976562 89.8926 5.17578 89.8926 15.2344ZM27.4902 37.0605C27.4902 46.5332 34.668 51.9043 42.5293 51.9043C49.2188 51.9043 53.2227 48.584 54.834 44.873L55.2246 44.873C55.3223 55.9082 50.5859 62.5 43.6523 62.5C40.1855 62.5 37.8906 61.084 35.791 58.252C34.9121 57.0801 33.9355 56.25 32.3242 56.25C30.3711 56.25 29.0039 57.5684 29.0039 59.5215C29.0039 60.0586 29.1016 60.6445 29.2969 61.2305C30.5176 64.7461 35.2539 68.9453 43.75 68.9453C55.9082 68.9453 62.5488 60.2539 62.5488 43.3594C62.5488 28.8574 55.957 20.9961 44.6289 20.9961C34.2285 20.9961 27.4902 27.2949 27.4902 37.0605ZM54.5898 36.8164C54.5898 42.2363 50.5371 46.1914 44.9219 46.1914C39.2578 46.1914 35.3027 42.2363 35.3027 36.7188C35.3027 30.8594 39.1602 27.002 44.9707 27.002C50.4395 27.002 54.5898 31.1523 54.5898 36.8164Z" fill="#000000" fill-opacity="0.85"/>
 </g>
</svg>
