<?xml version="1.0" encoding="UTF-8"?>
<!--Generator: Apple Native CoreSVG 232.5-->
<!DOCTYPE svg
PUBLIC "-//W3C//DTD SVG 1.1//EN"
       "http://www.w3.org/Graphics/SVG/1.1/DTD/svg11.dtd">
<svg version="1.1" xmlns="http://www.w3.org/2000/svg" xmlns:xlink="http://www.w3.org/1999/xlink" width="89.8926" height="89.9902">
 <g>
  <rect height="89.9902" opacity="0" width="89.8926" x="0" y="0"/>
  <path d="M15.332 89.9902L74.5605 89.9902C84.8145 89.9902 89.8926 84.9121 89.8926 74.8535L89.8926 15.2344C89.8926 5.17578 84.8145 0.0976562 74.5605 0.0976562L15.332 0.0976562C5.12695 0.0976562 0 5.12695 0 15.2344L0 74.8535C0 84.9609 5.12695 89.9902 15.332 89.9902ZM15.4297 82.1289C10.5469 82.1289 7.86133 79.541 7.86133 74.4629L7.86133 15.625C7.86133 10.5469 10.5469 7.95898 15.4297 7.95898L74.4629 7.95898C79.2969 7.95898 82.0312 10.5469 82.0312 15.625L82.0312 74.4629C82.0312 79.541 79.2969 82.1289 74.4629 82.1289Z" fill="#000000" fill-opacity="0.85"/>
  <path d="M43.7988 68.2129C55.5664 68.2129 62.0117 59.7656 62.0117 43.4082C62.0117 29.3457 55.6152 21.7285 44.6289 21.7285C34.5703 21.7285 28.0273 27.832 28.0273 37.3047C28.0273 46.4844 35.0098 51.709 42.627 51.709C49.1211 51.709 52.9785 48.4863 54.541 44.873L54.9316 44.873C55.0293 55.6152 50.4395 62.0117 43.7012 62.0117C40.332 62.0117 38.0859 60.5957 36.0352 57.8613C35.2051 56.7383 34.2773 55.9082 32.7148 55.9082C30.8105 55.9082 29.4922 57.1777 29.4922 59.082C29.4922 59.6191 29.5898 60.1562 29.7852 60.7422C30.957 64.1113 35.5469 68.2129 43.7988 68.2129ZM44.9219 46.1914C39.4043 46.1914 35.5957 42.334 35.5957 36.9629C35.5957 31.2988 39.3066 27.5391 44.9707 27.5391C50.293 27.5391 54.2969 31.543 54.2969 37.0605C54.2969 42.334 50.3906 46.1914 44.9219 46.1914Z" fill="#000000" fill-opacity="0.85"/>
 </g>
</svg>
