<?xml version="1.0" encoding="UTF-8"?>
<!--Generator: Apple Native CoreSVG 232.5-->
<!DOCTYPE svg
PUBLIC "-//W3C//DTD SVG 1.1//EN"
       "http://www.w3.org/Graphics/SVG/1.1/DTD/svg11.dtd">
<svg version="1.1" xmlns="http://www.w3.org/2000/svg" xmlns:xlink="http://www.w3.org/1999/xlink" width="99.6094" height="99.6582">
 <g>
  <rect height="99.6582" opacity="0" width="99.6094" x="0" y="0"/>
  <path d="M99.6094 49.8047C99.6094 77.002 77.0508 99.6094 49.8047 99.6094C22.6074 99.6094 0 77.002 0 49.8047C0 22.5586 22.5586 0 49.7559 0C77.002 0 99.6094 22.5586 99.6094 49.8047ZM44.1406 29.2969L30.0293 67.2852C29.5898 68.4082 29.4922 69.1406 29.4922 69.9219C29.4922 71.9727 30.957 73.3887 33.252 73.3887C35.0586 73.3887 36.377 72.5586 37.1582 70.166L40.8203 59.4727L58.7891 59.4727L62.4512 70.166C63.2324 72.5098 64.502 73.3887 66.3574 73.3887C68.6035 73.3887 70.1172 71.9727 70.1172 69.9219C70.1172 69.1406 69.9707 68.4082 69.5801 67.2852L55.4199 29.2969C54.4434 26.6602 52.5391 25.293 49.7559 25.293C47.0215 25.293 45.166 26.6602 44.1406 29.2969ZM56.7383 53.3691L42.8223 53.3691L49.5117 33.9355L50.0488 33.9355Z" fill="#000000" fill-opacity="0.85"/>
 </g>
</svg>
