<?xml version="1.0" encoding="UTF-8"?>
<!--Generator: Apple Native CoreSVG 232.5-->
<!DOCTYPE svg
PUBLIC "-//W3C//DTD SVG 1.1//EN"
       "http://www.w3.org/Graphics/SVG/1.1/DTD/svg11.dtd">
<svg version="1.1" xmlns="http://www.w3.org/2000/svg" xmlns:xlink="http://www.w3.org/1999/xlink" width="99.6094" height="99.6582">
 <g>
  <rect height="99.6582" opacity="0" width="99.6094" x="0" y="0"/>
  <path d="M49.8047 99.6094C77.0508 99.6094 99.6094 77.002 99.6094 49.8047C99.6094 22.5586 77.002 0 49.7559 0C22.5586 0 0 22.5586 0 49.8047C0 77.002 22.6074 99.6094 49.8047 99.6094ZM49.8047 91.3086C26.7578 91.3086 8.34961 72.8516 8.34961 49.8047C8.34961 26.7578 26.709 8.30078 49.7559 8.30078C72.8027 8.30078 91.3086 26.7578 91.3086 49.8047C91.3086 72.8516 72.8516 91.3086 49.8047 91.3086Z" fill="#000000" fill-opacity="0.85"/>
  <path d="M33.6914 72.8027C35.4492 72.8027 36.7188 71.9727 37.4512 69.6777L41.0156 59.2773L58.4961 59.2773L62.0605 69.6777C62.793 71.9238 64.0137 72.8027 65.8203 72.8027C67.9688 72.8027 69.4336 71.3867 69.4336 69.4336C69.4336 68.6523 69.2383 67.9688 68.8965 66.8945L55.1758 30.0293C54.248 27.4902 52.3926 26.1719 49.707 26.1719C47.0703 26.1719 45.2637 27.4902 44.2871 30.0293L30.6152 66.8945C30.2246 67.9688 30.0781 68.6523 30.0781 69.3848C30.0781 71.4355 31.4941 72.8027 33.6914 72.8027ZM42.9688 53.418L49.4629 34.5215L50 34.5215L56.4941 53.418Z" fill="#000000" fill-opacity="0.85"/>
 </g>
</svg>
