<?xml version="1.0" encoding="UTF-8"?>
<!--Generator: Apple Native CoreSVG 232.5-->
<!DOCTYPE svg
PUBLIC "-//W3C//DTD SVG 1.1//EN"
       "http://www.w3.org/Graphics/SVG/1.1/DTD/svg11.dtd">
<svg version="1.1" xmlns="http://www.w3.org/2000/svg" xmlns:xlink="http://www.w3.org/1999/xlink" width="89.8926" height="89.9902">
 <g>
  <rect height="89.9902" opacity="0" width="89.8926" x="0" y="0"/>
  <path d="M15.332 89.9902L74.5605 89.9902C84.8145 89.9902 89.8926 84.9121 89.8926 74.8535L89.8926 15.2344C89.8926 5.17578 84.8145 0.0976562 74.5605 0.0976562L15.332 0.0976562C5.12695 0.0976562 0 5.12695 0 15.2344L0 74.8535C0 84.9609 5.12695 89.9902 15.332 89.9902ZM15.4297 82.1289C10.5469 82.1289 7.86133 79.541 7.86133 74.4629L7.86133 15.625C7.86133 10.5469 10.5469 7.95898 15.4297 7.95898L74.4629 7.95898C79.2969 7.95898 82.0312 10.5469 82.0312 15.625L82.0312 74.4629C82.0312 79.541 79.2969 82.1289 74.4629 82.1289Z" fill="#000000" fill-opacity="0.85"/>
  <path d="M28.9062 67.9688C30.6641 67.9688 31.9336 67.1387 32.666 64.8438L36.2305 54.4434L53.7109 54.4434L57.2754 64.8438C58.0078 67.0898 59.2773 67.9688 61.0352 67.9688C63.1836 67.9688 64.6484 66.5527 64.6484 64.5996C64.6484 63.8184 64.4531 63.1348 64.1113 62.0605L50.4395 25.1953C49.4629 22.6562 47.6074 21.3379 44.9219 21.3379C42.2852 21.3379 40.4785 22.6562 39.502 25.1953L25.8301 62.0605C25.4883 63.1348 25.293 63.8184 25.293 64.5508C25.293 66.6016 26.7578 67.9688 28.9062 67.9688ZM38.1836 48.584L44.7266 29.6875L45.2148 29.6875L51.7578 48.584Z" fill="#000000" fill-opacity="0.85"/>
 </g>
</svg>
