<?xml version="1.0" encoding="UTF-8"?>
<!--Generator: Apple Native CoreSVG 232.5-->
<!DOCTYPE svg
PUBLIC "-//W3C//DTD SVG 1.1//EN"
       "http://www.w3.org/Graphics/SVG/1.1/DTD/svg11.dtd">
<svg version="1.1" xmlns="http://www.w3.org/2000/svg" xmlns:xlink="http://www.w3.org/1999/xlink" width="89.8926" height="89.9902">
 <g>
  <rect height="89.9902" opacity="0" width="89.8926" x="0" y="0"/>
  <path d="M89.8926 15.2344L89.8926 74.8535C89.8926 84.9121 84.8145 89.9902 74.5605 89.9902L15.332 89.9902C5.12695 89.9902 0 84.9609 0 74.8535L0 15.2344C0 5.12695 5.12695 0.0976562 15.332 0.0976562L74.5605 0.0976562C84.8145 0.0976562 89.8926 5.17578 89.8926 15.2344ZM39.3066 24.4629L25.1953 62.4512C24.8047 63.5742 24.6582 64.3066 24.6582 65.0879C24.6582 67.1387 26.1719 68.5547 28.418 68.5547C30.2246 68.5547 31.543 67.7246 32.3242 65.332L35.9863 54.6387L53.9551 54.6387L57.6172 65.332C58.3984 67.6758 59.7168 68.5547 61.5234 68.5547C63.7695 68.5547 65.2832 67.1387 65.2832 65.0879C65.2832 64.3066 65.1367 63.5742 64.7461 62.4512L50.6348 24.4629C49.6094 21.8262 47.7051 20.459 44.9219 20.459C42.1875 20.459 40.332 21.8262 39.3066 24.4629ZM51.9531 48.5352L37.9883 48.5352L44.7266 29.1016L45.2148 29.1016Z" fill="#000000" fill-opacity="0.85"/>
 </g>
</svg>
