<?xml version="1.0" encoding="UTF-8"?>
<!--Generator: Apple Native CoreSVG 232.5-->
<!DOCTYPE svg
PUBLIC "-//W3C//DTD SVG 1.1//EN"
       "http://www.w3.org/Graphics/SVG/1.1/DTD/svg11.dtd">
<svg version="1.1" xmlns="http://www.w3.org/2000/svg" xmlns:xlink="http://www.w3.org/1999/xlink" width="99.6094" height="99.6582">
 <g>
  <rect height="99.6582" opacity="0" width="99.6094" x="0" y="0"/>
  <path d="M49.8047 99.6094C77.0508 99.6094 99.6094 77.002 99.6094 49.8047C99.6094 22.5586 77.002 0 49.7559 0C22.5586 0 0 22.5586 0 49.8047C0 77.002 22.6074 99.6094 49.8047 99.6094ZM49.8047 91.3086C26.7578 91.3086 8.34961 72.8516 8.34961 49.8047C8.34961 26.7578 26.709 8.30078 49.7559 8.30078C72.8027 8.30078 91.3086 26.7578 91.3086 49.8047C91.3086 72.8516 72.8516 91.3086 49.8047 91.3086Z" fill="#000000" fill-opacity="0.85"/>
  <path d="M20.8008 65.7227C22.4121 65.7227 23.291 64.7461 23.5352 63.1836L24.5605 58.252L31.8359 58.252L32.8613 63.2324C33.252 65.0391 34.2285 65.7227 35.6934 65.7227C37.1582 65.7227 38.2812 64.5508 38.2812 63.0859C38.2812 62.793 38.1348 61.7188 38.0371 61.2793L32.4707 37.4023C31.9336 35.0098 30.5176 33.8379 28.125 33.8379C25.8789 33.8379 24.5117 34.9609 23.9258 37.4023L18.457 61.2793C18.3105 61.9141 18.1641 62.5 18.1641 63.0859C18.1641 64.8926 19.3848 65.7227 20.8008 65.7227ZM25.3418 54.0039L28.0273 40.4297L28.2227 40.4297L31.0059 54.0039ZM45.1172 65.2344L52.4414 65.2344C57.666 65.2344 60.2539 61.2793 60.2539 56.4941C60.2539 52.9785 58.1543 49.2188 54.834 48.9746L54.834 48.7793C57.959 48.0469 59.375 44.7754 59.375 41.9922C59.375 37.4023 56.8359 34.3262 52.2461 34.3262L45.1172 34.3262C43.5059 34.3262 42.3828 35.2051 42.3828 37.2559L42.3828 62.3047C42.3828 64.1602 43.3105 65.2344 45.1172 65.2344ZM47.9004 60.9863L47.9004 51.2207L50.5371 51.2207C53.3691 51.2207 54.6875 53.2227 54.6875 56.0547C54.6875 58.8867 53.5156 60.9863 50.6348 60.9863ZM47.9004 47.4121L47.9004 38.5742L50.5859 38.5742C53.1738 38.5742 54.1016 40.2832 54.1016 42.8223C54.1016 45.5566 52.9297 47.4121 50.1953 47.4121ZM72.3633 65.918C78.0273 65.918 81.1523 62.2559 81.1523 56.8359C81.1523 51.8555 78.5156 49.6094 74.9512 47.8516L73.1934 47.0215C70.8984 45.8496 69.3359 44.5801 69.3359 41.9434C69.3359 39.8926 70.2637 38.1836 72.2656 38.1836C74.3164 38.1836 75.1465 39.8438 75.6348 41.8457C75.9277 42.9688 76.9043 43.6523 78.2227 43.6523C79.6387 43.6523 80.5176 42.6758 80.5176 41.3574C80.5176 40.7227 80.3711 40.0391 80.127 39.3555C79.0039 35.9375 76.2207 33.5449 72.2656 33.5449C67.6758 33.5449 63.916 36.6699 63.916 42.4316C63.916 47.3145 66.748 49.6582 70.0195 51.3672L71.7285 52.1973C74.1699 53.4668 75.6836 54.6387 75.6836 57.373C75.6836 59.668 74.5117 61.377 72.3633 61.377C70.3125 61.377 69.3359 59.8145 68.7988 57.7148C68.457 56.3965 67.627 55.7129 66.2109 55.7129C64.7461 55.7129 63.8672 56.7871 63.8672 58.252C63.8672 58.7402 63.9648 59.2773 64.0625 59.7656C65.0879 63.5742 68.0176 65.918 72.3633 65.918Z" fill="#000000" fill-opacity="0.85"/>
 </g>
</svg>
