<?xml version="1.0" encoding="UTF-8"?>
<!--Generator: Apple Native CoreSVG 232.5-->
<!DOCTYPE svg
PUBLIC "-//W3C//DTD SVG 1.1//EN"
       "http://www.w3.org/Graphics/SVG/1.1/DTD/svg11.dtd">
<svg version="1.1" xmlns="http://www.w3.org/2000/svg" xmlns:xlink="http://www.w3.org/1999/xlink" width="139.355" height="95.2637">
 <g>
  <rect height="95.2637" opacity="0" width="139.355" x="0" y="0"/>
  <path d="M0 47.6074C0 63.0859 5.0293 77.2949 13.5254 88.8672C15.0391 90.9668 17.627 91.1621 19.5801 89.5996C21.3379 88.0859 21.582 85.7422 20.166 83.7891C12.7441 73.6816 8.34961 61.1328 8.34961 47.6074C8.34961 34.0332 12.7441 21.5332 20.166 11.3281C21.582 9.47266 21.3867 7.08008 19.5801 5.56641C17.627 4.00391 15.0391 4.24805 13.5254 6.29883C5.0293 17.8711 0 32.1289 0 47.6074ZM139.355 47.6074C139.355 32.1289 134.375 17.8711 125.83 6.29883C124.316 4.24805 121.729 4.00391 119.775 5.56641C117.969 7.08008 117.822 9.47266 119.189 11.3281C126.66 21.5332 131.006 34.0332 131.006 47.6074C131.006 61.1328 126.66 73.6816 119.189 83.7891C117.822 85.7422 118.018 88.0859 119.775 89.5996C121.729 91.1621 124.316 90.9668 125.83 88.8672C134.375 77.2949 139.355 63.0859 139.355 47.6074Z" fill="#000000" fill-opacity="0.85"/>
  <path d="M69.6777 95.2148C95.7031 95.2148 117.334 73.6328 117.334 47.6074C117.334 21.582 95.7031 0 69.6289 0C43.6035 0 22.0703 21.5332 22.0703 47.6074C22.0703 73.6328 43.6523 95.2148 69.6777 95.2148ZM69.6777 86.9141C47.9004 86.9141 30.4199 69.4336 30.4199 47.6074C30.4199 25.7324 47.8516 8.25195 69.6289 8.25195C91.4551 8.25195 108.984 25.7324 109.033 47.6074C109.082 69.3848 91.5527 86.9141 69.6777 86.9141Z" fill="#000000" fill-opacity="0.85"/>
  <path d="M40.6738 63.5254C42.2852 63.5254 43.1641 62.5488 43.4082 60.9863L44.4336 56.0547L51.709 56.0547L52.7344 61.0352C53.125 62.8418 54.1016 63.5254 55.5664 63.5254C57.0312 63.5254 58.1543 62.3535 58.1543 60.8887C58.1543 60.5957 58.0078 59.5215 57.9102 59.082L52.3438 35.2051C51.8066 32.8125 50.3906 31.6406 47.998 31.6406C45.752 31.6406 44.3848 32.7637 43.7988 35.2051L38.3301 59.082C38.1836 59.7168 38.0371 60.3027 38.0371 60.8887C38.0371 62.6953 39.2578 63.5254 40.6738 63.5254ZM45.2148 51.8066L47.9004 38.2324L48.0957 38.2324L50.8789 51.8066ZM64.9902 63.0371L72.3145 63.0371C77.5391 63.0371 80.127 59.082 80.127 54.2969C80.127 50.7812 78.0273 47.0215 74.707 46.7773L74.707 46.582C77.832 45.8496 79.248 42.5781 79.248 39.7949C79.248 35.2051 76.709 32.1289 72.1191 32.1289L64.9902 32.1289C63.3789 32.1289 62.2559 33.0078 62.2559 35.0586L62.2559 60.1074C62.2559 61.9629 63.1836 63.0371 64.9902 63.0371ZM67.7734 58.7891L67.7734 49.0234L70.4102 49.0234C73.2422 49.0234 74.5605 51.0254 74.5605 53.8574C74.5605 56.6895 73.4375 58.7891 70.5078 58.7891ZM67.7734 45.2148L67.7734 36.377L70.459 36.377C73.0469 36.377 73.9746 38.0859 73.9746 40.625C73.9746 43.3594 72.8027 45.2148 70.1172 45.2148ZM92.2363 63.7207C97.9492 63.7207 101.025 60.0586 101.025 54.6387C101.025 49.6582 98.3887 47.4121 94.8242 45.6543L93.0664 44.8242C90.7715 43.6523 89.209 42.3828 89.209 39.7461C89.209 37.6953 90.1855 35.9863 92.1387 35.9863C94.1895 35.9863 95.0195 37.6465 95.5078 39.6484C95.8008 40.7715 96.8262 41.4551 98.0957 41.4551C99.5117 41.4551 100.391 40.4785 100.391 39.1602C100.391 38.5254 100.244 37.8418 100 37.1582C98.877 33.7402 96.0938 31.3477 92.1387 31.3477C87.5488 31.3477 83.7891 34.4727 83.7891 40.2344C83.7891 45.1172 86.6211 47.4609 89.8926 49.1699L91.6016 50C94.043 51.2695 95.5566 52.4414 95.5566 55.1758C95.5566 57.4707 94.3848 59.1797 92.2852 59.1797C90.1855 59.1797 89.209 57.6172 88.7207 55.5176C88.3301 54.1992 87.5 53.5156 86.1328 53.5156C84.6191 53.5156 83.7402 54.5898 83.7402 56.0547C83.7402 56.543 83.8379 57.0801 83.9355 57.5684C84.9609 61.377 87.8906 63.7207 92.2363 63.7207Z" fill="#000000" fill-opacity="0.85"/>
 </g>
</svg>
