<?xml version="1.0" encoding="UTF-8"?>
<!--Generator: Apple Native CoreSVG 232.5-->
<!DOCTYPE svg
PUBLIC "-//W3C//DTD SVG 1.1//EN"
       "http://www.w3.org/Graphics/SVG/1.1/DTD/svg11.dtd">
<svg version="1.1" xmlns="http://www.w3.org/2000/svg" xmlns:xlink="http://www.w3.org/1999/xlink" width="136.133" height="75.1465">
 <g>
  <rect height="75.1465" opacity="0" width="136.133" x="0" y="0"/>
  <path d="M4.19922 74.8047C6.64062 74.8047 8.10547 73.4863 8.64258 71.0449L12.1582 54.9805L30.9082 54.9805L34.5215 71.0938C35.0098 73.5352 36.5723 74.8047 38.9648 74.8047C41.3574 74.8047 43.2617 73.0957 43.2617 70.7031C43.2617 70.3125 43.1641 69.7754 43.0664 69.3848L28.3203 6.49414C27.4414 2.97852 25.293 0.537109 21.5332 0.537109C17.6758 0.537109 15.7227 2.83203 14.8926 6.54297L0.341797 68.5059C0.195312 69.1895 0 70.1172 0 70.7031C0 73.3398 1.75781 74.8047 4.19922 74.8047ZM13.7207 47.4609L21.4355 11.9141L21.4355 11.9141L29.2969 47.4609ZM57.1289 73.7793L72.5098 73.7793C84.1797 73.7793 90.5762 65.6738 90.5762 53.6621C90.5762 45.459 86.7188 37.0117 78.6621 35.7422L78.6621 35.791C84.8633 34.2285 88.2324 26.0742 88.2324 19.5801C88.2324 9.27734 82.3242 1.51367 72.2168 1.51367L57.1289 1.51367C54.3457 1.51367 52.832 3.51562 52.832 6.20117L52.832 69.1406C52.832 71.6797 54.1504 73.7793 57.1289 73.7793ZM61.5234 66.0645L61.5234 40.2832L69.9707 40.2832C77.9297 40.2832 81.5918 45.2637 81.5918 53.1738C81.5918 60.791 78.2227 66.0645 70.5078 66.0645ZM61.5234 32.8613L61.5234 9.27734L70.0684 9.27734C76.709 9.27734 79.4922 13.916 79.4922 20.6055C79.4922 27.8809 76.2695 32.8613 69.043 32.8613ZM117.627 75.1465C129.932 75.1465 136.133 66.4062 136.133 54.7852C136.133 44.0918 131.299 38.9648 121.729 33.9844L118.115 32.0801C112.451 29.0527 108.643 25.7324 108.643 19.043C108.643 13.0371 111.475 8.05664 117.236 8.05664C122.852 8.05664 125.928 12.5977 126.904 18.6035C127.295 21.0449 129.053 22.0703 131.055 22.0703C133.35 22.0703 134.814 20.2637 134.814 17.9688C134.814 11.6699 129.541 0.146484 117.236 0.146484C106.592 0.146484 99.9512 8.64258 99.9512 19.6289C99.9512 29.9805 105.322 35.4492 114.258 40.0879L117.92 41.9922C123.975 45.166 127.49 48.6328 127.49 55.4199C127.49 62.0117 124.268 67.2363 117.773 67.2363C111.67 67.2363 108.301 62.3047 107.373 56.0547C106.885 53.5156 104.98 52.5391 103.223 52.5391C100.83 52.5391 99.4141 54.541 99.4141 57.0312C99.4141 63.8672 104.785 75.1465 117.627 75.1465Z" fill="#000000" fill-opacity="0.85"/>
 </g>
</svg>
