<?xml version="1.0" encoding="UTF-8"?>
<!--Generator: Apple Native CoreSVG 232.5-->
<!DOCTYPE svg
PUBLIC "-//W3C//DTD SVG 1.1//EN"
       "http://www.w3.org/Graphics/SVG/1.1/DTD/svg11.dtd">
<svg version="1.1" xmlns="http://www.w3.org/2000/svg" xmlns:xlink="http://www.w3.org/1999/xlink" width="127.715" height="117.334">
 <g>
  <rect height="117.334" opacity="0" width="127.715" x="0" y="0"/>
  <path d="M23.5253 117.334L53.7988 117.334C60.5371 117.334 64.8828 113.037 64.8828 106.445L64.8828 10.8887C64.8828 4.29688 60.5371 0 53.7988 0L23.5253 0C16.7871 0 12.4414 4.29688 12.4414 10.8887L12.4414 106.445C12.4414 113.037 16.7871 117.334 23.5253 117.334ZM51.5039 38.0859C50.039 38.0859 48.9648 36.9141 48.9648 35.498L48.9648 15.625C48.9648 14.209 50.039 13.0371 51.5039 13.0371C52.9199 13.0371 54.0429 14.209 54.0429 15.625L54.0429 35.498C54.0429 36.9141 52.9199 38.0859 51.5039 38.0859ZM41.1523 38.0859C39.6875 38.0859 38.5156 36.9141 38.5156 35.498L38.5156 15.625C38.5156 14.209 39.6875 13.0371 41.1523 13.0371C42.5195 13.0371 43.6425 14.209 43.6425 15.625L43.6425 35.498C43.6425 36.9141 42.5195 38.0859 41.1523 38.0859ZM51.5039 70.9961C50.039 70.9961 48.9648 69.873 48.9648 68.4082L48.9648 48.5352C48.9648 47.1191 50.039 45.9961 51.5039 45.9961C52.9199 45.9961 54.0429 47.1191 54.0429 48.5352L54.0429 68.4082C54.0429 69.873 52.9199 70.9961 51.5039 70.9961ZM41.1523 70.9961C39.6875 70.9961 38.5156 69.873 38.5156 68.4082L38.5156 48.5352C38.5156 47.1191 39.6875 45.9961 41.1523 45.9961C42.5195 45.9961 43.6425 47.1191 43.6425 48.5352L43.6425 68.4082C43.6425 69.873 42.5195 70.9961 41.1523 70.9961ZM51.5039 104.004C50.039 104.004 48.9648 102.832 48.9648 101.465L48.9648 81.5918C48.9648 80.127 50.039 78.9551 51.5039 78.9551C52.9199 78.9551 54.0429 80.127 54.0429 81.5918L54.0429 101.465C54.0429 102.832 52.9199 104.004 51.5039 104.004ZM41.1523 104.004C39.6875 104.004 38.5156 102.832 38.5156 101.465L38.5156 81.5918C38.5156 80.127 39.6875 78.9551 41.1523 78.9551C42.5195 78.9551 43.6425 80.127 43.6425 81.5918L43.6425 101.465C43.6425 102.832 42.5195 104.004 41.1523 104.004Z" fill="#000000" fill-opacity="0.85"/>
  <path d="M86.416 37.5977C87.4902 37.5977 88.2714 36.6211 88.1738 35.5469L87.9296 31.4941L91.2988 33.7891C92.1289 34.3262 93.3984 34.1309 93.9843 33.2031C94.6191 32.2754 94.1796 31.0059 93.1054 30.5664L89.4433 28.7598L93.2031 26.9043C94.1308 26.416 94.5703 25.2441 94.0332 24.2676C93.5449 23.3887 92.1777 23.0957 91.25 23.7305L87.9296 26.0254L88.2226 21.9727C88.3203 20.8984 87.539 19.9219 86.416 19.9219C85.2441 19.9219 84.4628 20.8008 84.5605 21.9238L84.8046 26.0742L81.3867 23.7305C80.4589 23.1445 79.2871 23.291 78.75 24.2676C78.164 25.2441 78.5546 26.416 79.5312 26.9043L83.1933 28.7598L79.58 30.5176C78.5546 30.957 78.1152 32.1777 78.7011 33.2031C79.1894 34.1309 80.4589 34.3262 81.3867 33.7891L84.8046 31.4941L84.6093 35.5469C84.5605 36.6699 85.2929 37.5977 86.416 37.5977ZM113.076 97.0215C114.199 97.0215 115.029 96.1426 114.932 95.0195L114.687 90.918L118.105 93.2617C118.984 93.8477 120.205 93.6523 120.693 92.7246C121.279 91.6992 120.889 90.5273 119.912 90.0879L116.25 88.2324L119.863 86.377C120.937 85.9863 121.328 84.7656 120.791 83.7402C120.303 82.8125 118.984 82.5684 118.105 83.1543L114.687 85.4492L114.883 81.3965C114.932 80.2734 114.15 79.3945 113.076 79.3945C112.002 79.3945 111.221 80.3223 111.318 81.3965L111.562 85.498L108.144 83.2031C107.363 82.666 106.094 82.8613 105.508 83.7402C104.873 84.668 105.312 85.9863 106.387 86.4258L110 88.2324L106.289 90.0879C105.361 90.5762 104.922 91.6992 105.459 92.7246C105.947 93.6035 107.314 93.8965 108.193 93.2617L111.562 90.9668L111.269 94.9707C111.172 96.0449 111.953 97.0215 113.076 97.0215ZM84.1699 52.7832C97.207 52.7832 103.945 42.1875 115.322 42.1875C117.959 42.1875 120.205 42.7246 122.988 44.2871C124.746 45.2637 126.309 44.5801 127.09 43.457C128.066 42.041 127.969 39.8926 125.82 38.6719C122.598 36.7676 119.082 35.8398 115.322 35.8398C102.09 35.8398 95.3515 46.4844 84.1699 46.4844C81.5332 46.4844 79.2871 45.8984 76.455 44.2871C74.7949 43.3594 73.1835 43.9941 72.3535 45.2637C71.4746 46.6309 71.5722 48.7793 73.623 49.9512C76.8457 51.9531 80.4101 52.7832 84.1699 52.7832ZM84.2187 67.1387C97.207 67.1387 103.994 56.543 115.322 56.543C118.008 56.543 120.254 57.0801 123.037 58.6426C124.746 59.6191 126.357 58.9355 127.139 57.8125C128.066 56.3965 128.018 54.248 125.918 53.0273C122.646 51.123 119.082 50.1953 115.322 50.1953C102.139 50.1953 95.4003 60.8398 84.2187 60.8398C81.5332 60.8398 79.2871 60.2539 76.5039 58.6914C74.8437 57.7148 73.1835 58.3496 72.3535 59.6191C71.4746 60.9863 71.5722 63.1348 73.6718 64.3066C76.8945 66.3086 80.4589 67.1387 84.2187 67.1387ZM84.1699 81.4941C97.207 81.4941 103.945 70.8984 115.322 70.8984C117.959 70.8984 120.205 71.4355 122.988 73.0469C124.746 74.0234 126.309 73.291 127.09 72.168C128.066 70.752 127.969 68.6035 125.82 67.3828C122.598 65.4785 119.082 64.5508 115.322 64.5508C102.09 64.5508 95.3515 75.1953 84.1699 75.1953C81.5332 75.1953 79.2871 74.6094 76.455 73.0469C74.7949 72.0703 73.1835 72.7051 72.3535 73.9746C71.4746 75.3418 71.5722 77.5391 73.623 78.7109C76.8457 80.6641 80.4101 81.4941 84.1699 81.4941Z" fill="#000000" fill-opacity="0.85"/>
 </g>
</svg>
