<?xml version="1.0" encoding="UTF-8"?>
<!--Generator: Apple Native CoreSVG 232.5-->
<!DOCTYPE svg
PUBLIC "-//W3C//DTD SVG 1.1//EN"
       "http://www.w3.org/Graphics/SVG/1.1/DTD/svg11.dtd">
<svg version="1.1" xmlns="http://www.w3.org/2000/svg" xmlns:xlink="http://www.w3.org/1999/xlink" width="116.979" height="114.893">
 <g>
  <rect height="114.893" opacity="0" width="116.979" x="0" y="0"/>
  <path d="M95.1706 10.5323C92.4957 11.5747 90.055 12.944 87.6677 14.2845C87.3127 10.0925 84.6507 7.86133 80.3889 7.86133L36.5901 7.86133C32.0002 7.86133 29.2658 10.4492 29.2658 15.2832L29.2658 90.918C29.2658 95.7031 32.0002 98.3398 36.5901 98.3398L80.3889 98.3398C84.9787 98.3398 87.7131 95.7031 87.7131 90.918L87.7131 48.3428C90.3754 46.9102 92.9185 45.3688 95.5744 44.1756L95.5744 91.3086C95.5744 99.3809 92.1391 104.249 85.3694 105.715L85.3694 110.84C85.3694 113.184 83.8069 114.795 81.4143 114.795C79.0705 114.795 77.508 113.184 77.508 110.84L77.508 106.201L39.4709 106.201L39.4709 110.84C39.4709 113.184 37.9084 114.795 35.5647 114.795C33.2209 114.795 31.6096 113.184 31.6096 110.84L31.6096 105.707C24.858 104.228 21.4045 99.3636 21.4045 91.3086L21.4045 14.8438C21.4045 4.98047 26.6291 0 36.4924 0L80.5354 0C88.8337 0 93.814 3.52539 95.1706 10.5323ZM55.4377 88.3301C55.4377 90.0391 54.0705 91.4062 52.3127 91.4062L38.1037 91.4062C36.3947 91.4062 35.0276 90.0391 35.0276 88.3301C35.0276 86.5723 36.3947 85.2051 38.1037 85.2051L52.3127 85.2051C54.0705 85.2051 55.4377 86.5723 55.4377 88.3301ZM81.9514 88.3301C81.9514 90.0391 80.5842 91.4062 78.8752 91.4062L64.6662 91.4062C62.9084 91.4062 61.5412 90.0391 61.5412 88.3301C61.5412 86.5723 62.9084 85.2051 64.6662 85.2051L78.8752 85.2051C80.5842 85.2051 81.9514 86.5723 81.9514 88.3301ZM55.4377 76.123C55.4377 77.8809 54.0705 79.1992 52.3127 79.1992L38.1037 79.1992C36.3947 79.1992 35.0276 77.8809 35.0276 76.123C35.0276 74.3652 36.3947 73.0469 38.1037 73.0469L52.3127 73.0469C54.0705 73.0469 55.4377 74.3652 55.4377 76.123ZM81.9514 76.123C81.9514 77.8809 80.5842 79.1992 78.8752 79.1992L64.6662 79.1992C62.9084 79.1992 61.5412 77.8809 61.5412 76.123C61.5412 74.3652 62.9084 73.0469 64.6662 73.0469L78.8752 73.0469C80.5842 73.0469 81.9514 74.3652 81.9514 76.123ZM55.4377 63.916C55.4377 65.6738 54.0705 66.9922 52.3127 66.9922L38.1037 66.9922C36.3947 66.9922 35.0276 65.6738 35.0276 63.916C35.0276 62.207 36.3947 60.8398 38.1037 60.8398L52.3127 60.8398C54.0705 60.8398 55.4377 62.207 55.4377 63.916ZM81.9514 63.916C81.9514 65.6738 80.5842 66.9922 78.8752 66.9922L64.6662 66.9922C62.9084 66.9922 61.5412 65.6738 61.5412 63.916C61.5412 62.207 62.9084 60.8398 64.6662 60.8398L78.8752 60.8398C80.5842 60.8398 81.9514 62.207 81.9514 63.916ZM95.5744 37.3276C92.7614 38.3946 90.2077 39.8308 87.7131 41.2379L87.7131 34.8596C90.3767 33.4209 92.9211 31.8714 95.5744 30.6703ZM49.0901 21.3867C49.0901 25.1953 45.9651 28.3203 42.2053 28.3203C38.3967 28.3203 35.3205 25.1953 35.3205 21.3867C35.3205 17.627 38.3967 14.5508 42.2053 14.5508C45.9651 14.5508 49.0901 17.627 49.0901 21.3867ZM95.5744 23.8628C92.7633 24.9342 90.2099 26.3757 87.7131 27.7858L87.7131 21.3409C90.3754 19.9082 92.9185 18.3668 95.5744 17.1736Z" fill="#000000" fill-opacity="0.85"/>
  <path d="M73.4065 25.5859C86.4436 25.5859 93.2307 14.9902 104.608 14.9902C107.244 14.9902 109.442 15.5273 112.274 17.1387C114.031 18.0664 115.594 17.3828 116.375 16.2598C117.303 14.8438 117.254 12.6953 115.106 11.4746C111.834 9.57031 108.319 8.64258 104.608 8.64258C91.3752 8.64258 84.5881 19.2871 73.4065 19.2871C70.7697 19.2871 68.5725 18.7012 65.7404 17.1387C64.0803 16.1621 62.4201 16.7969 61.6389 18.0664C60.76 19.4336 60.8576 21.6309 62.9084 22.7539C66.1311 24.7559 69.6955 25.5859 73.4065 25.5859ZM73.4553 39.1113C86.4436 39.1113 93.2795 28.4668 104.608 28.4668C107.293 28.4668 109.49 29.0039 112.322 30.6152C114.031 31.5918 115.643 30.9082 116.424 29.7363C117.303 28.3691 117.303 26.1719 115.203 24.9512C111.883 23.0469 108.319 22.1191 104.608 22.1191C91.424 22.1191 84.6369 32.8125 73.4553 32.8125C70.7697 32.8125 68.5725 32.1777 65.7893 30.6152C64.1291 29.6387 62.4201 30.3223 61.6389 31.5918C60.76 32.959 60.8576 35.1074 62.9572 36.2793C66.1799 38.2324 69.7444 39.1113 73.4553 39.1113ZM73.4065 52.5879C86.4436 52.5879 93.2307 41.9922 104.608 41.9922C107.244 41.9922 109.442 42.5293 112.274 44.0918C114.031 45.0684 115.594 44.3848 116.375 43.2617C117.303 41.8457 117.254 39.6484 115.106 38.4766C111.834 36.5723 108.319 35.5957 104.608 35.5957C91.3752 35.5957 84.5881 46.2891 73.4065 46.2891C70.7697 46.2891 68.5725 45.7031 65.7404 44.0918C64.0803 43.1641 62.4201 43.7988 61.6389 45.0684C60.76 46.4355 60.8576 48.584 62.9084 49.7559C66.1311 51.709 69.6955 52.5879 73.4065 52.5879Z" fill="#000000" fill-opacity="0.85"/>
 </g>
</svg>
