<?xml version="1.0" encoding="UTF-8"?>
<!--Generator: Apple Native CoreSVG 232.5-->
<!DOCTYPE svg
PUBLIC "-//W3C//DTD SVG 1.1//EN"
       "http://www.w3.org/Graphics/SVG/1.1/DTD/svg11.dtd">
<svg version="1.1" xmlns="http://www.w3.org/2000/svg" xmlns:xlink="http://www.w3.org/1999/xlink" width="116.979" height="114.893">
 <g>
  <rect height="114.893" opacity="0" width="116.979" x="0" y="0"/>
  <path d="M36.4924 106.201L80.5354 106.201C90.4963 106.201 95.5744 101.123 95.5744 91.3086L95.5744 14.8438C95.5744 4.98047 90.3986 0 80.5354 0L36.4924 0C26.6291 0 21.4045 4.98047 21.4045 14.8438L21.4045 91.3086C21.4045 101.123 26.5315 106.201 36.4924 106.201ZM41.1799 27.0508C37.2736 27.0508 34.0998 23.8281 34.0998 19.873C34.0998 16.0156 37.2736 12.8418 41.1799 12.8418C45.0861 12.8418 48.3088 16.0156 48.3088 19.873C48.3088 23.8281 45.0861 27.0508 41.1799 27.0508ZM36.9807 67.9199C35.2229 67.9199 33.8069 66.5527 33.8069 64.7461C33.8069 62.9883 35.2229 61.5723 36.9807 61.5723L51.6291 61.5723C53.4358 61.5723 54.8518 62.9883 54.8518 64.7461C54.8518 66.5527 53.4358 67.9199 51.6291 67.9199ZM36.9807 80.5176C35.2229 80.5176 33.8069 79.1504 33.8069 77.3438C33.8069 75.5371 35.2229 74.1699 36.9807 74.1699L51.6291 74.1699C53.4358 74.1699 54.8518 75.5371 54.8518 77.3438C54.8518 79.1504 53.4358 80.5176 51.6291 80.5176ZM36.9807 93.1152C35.2229 93.1152 33.8069 91.6992 33.8069 89.9414C33.8069 88.1348 35.2229 86.7188 36.9807 86.7188L51.6291 86.7188C53.4358 86.7188 54.8518 88.1348 54.8518 89.9414C54.8518 91.6992 53.4358 93.1152 51.6291 93.1152ZM65.3498 67.9199C63.5432 67.9199 62.1272 66.5527 62.1272 64.7461C62.1272 62.9883 63.5432 61.5723 65.3498 61.5723L79.9983 61.5723C81.7561 61.5723 83.1721 62.9883 83.1721 64.7461C83.1721 66.5527 81.7561 67.9199 79.9983 67.9199ZM65.3498 80.5176C63.5432 80.5176 62.1272 79.1504 62.1272 77.3438C62.1272 75.5371 63.5432 74.1699 65.3498 74.1699L79.9983 74.1699C81.7561 74.1699 83.1721 75.5371 83.1721 77.3438C83.1721 79.1504 81.7561 80.5176 79.9983 80.5176ZM65.3498 93.1152C63.5432 93.1152 62.1272 91.6992 62.1272 89.9414C62.1272 88.1348 63.5432 86.7188 65.3498 86.7188L79.9983 86.7188C81.7561 86.7188 83.1721 88.1348 83.1721 89.9414C83.1721 91.6992 81.7561 93.1152 79.9983 93.1152ZM73.4065 25.4883C69.6955 25.4883 66.1311 24.6582 62.9084 22.6562C60.8576 21.4844 60.76 19.3359 61.6389 17.9688C62.4201 16.6992 64.0803 16.0645 65.7404 16.9922C68.5725 18.6035 70.7697 19.1895 73.4065 19.1895C84.5881 19.1895 91.3752 8.54492 104.608 8.54492C108.319 8.54492 111.834 9.47266 115.106 11.377C117.254 12.5977 117.303 14.7461 116.375 16.1621C115.594 17.2852 114.031 17.9688 112.274 16.9922C109.442 15.4297 107.244 14.8926 104.608 14.8926C93.2307 14.8926 86.4436 25.4883 73.4065 25.4883ZM73.4553 39.1113C69.7444 39.1113 66.1799 38.2324 62.9572 36.2793C60.8576 35.1074 60.76 32.959 61.6389 31.5918C62.4201 30.3223 64.1291 29.6387 65.7893 30.6152C68.5725 32.1777 70.7697 32.8125 73.4553 32.8125C84.6369 32.8125 91.424 22.1191 104.608 22.1191C108.319 22.1191 111.883 23.0469 115.203 24.9512C117.303 26.1719 117.303 28.3691 116.424 29.7363C115.643 30.9082 114.031 31.5918 112.322 30.6152C109.49 29.0039 107.293 28.4668 104.608 28.4668C93.2795 28.4668 86.4436 39.1113 73.4553 39.1113ZM73.4065 52.6855C69.6955 52.6855 66.1311 51.8555 62.9084 49.8535C60.8576 48.6816 60.76 46.5332 61.6389 45.166C62.4201 43.8965 64.0803 43.2617 65.7404 44.1895C68.5725 45.8008 70.7697 46.3867 73.4065 46.3867C84.5881 46.3867 91.3752 35.7422 104.608 35.7422C108.319 35.7422 111.834 36.6699 115.106 38.5742C117.254 39.7949 117.303 41.9434 116.375 43.3594C115.594 44.4824 114.031 45.166 112.274 44.1895C109.442 42.627 107.244 42.0898 104.608 42.0898C93.2307 42.0898 86.4436 52.6855 73.4065 52.6855ZM35.5647 114.795C37.9084 114.795 39.4709 113.184 39.4709 110.84L39.4709 101.27L31.6096 101.27L31.6096 110.84C31.6096 113.184 33.2209 114.795 35.5647 114.795ZM81.4143 114.795C83.8069 114.795 85.3694 113.184 85.3694 110.84L85.3694 101.27L77.508 101.27L77.508 110.84C77.508 113.184 79.0705 114.795 81.4143 114.795Z" fill="#000000" fill-opacity="0.85"/>
 </g>
</svg>
