<?xml version="1.0" encoding="UTF-8"?>
<!--Generator: Apple Native CoreSVG 232.5-->
<!DOCTYPE svg
PUBLIC "-//W3C//DTD SVG 1.1//EN"
       "http://www.w3.org/Graphics/SVG/1.1/DTD/svg11.dtd">
<svg version="1.1" xmlns="http://www.w3.org/2000/svg" xmlns:xlink="http://www.w3.org/1999/xlink" width="116.763" height="113.329">
 <g>
  <rect height="113.329" opacity="0" width="116.763" x="0" y="0"/>
  <path d="M5.67136 100.341L111.042 100.341C113.191 100.341 114.949 98.5346 114.949 96.3862C114.949 94.2377 113.191 92.4799 111.042 92.4799L5.67136 92.4799C3.52292 92.4799 1.76511 94.2377 1.76511 96.3862C1.76511 98.5346 3.52292 100.341 5.67136 100.341Z" fill="#000000" fill-opacity="0.85"/>
  <path d="M12.8003 48.9252L96.4428 71.435C105.818 73.9741 115.339 71.4838 116.658 64.2084C117.732 57.519 110.408 51.4643 101.667 49.7553L71.2475 43.7006C69.1479 43.31 67.9272 42.4799 66.4624 40.3803L40.6323 3.22212C39.8022 2.05025 38.6792 1.269 37.312 0.927199L33.8452 0.0482925C32.6245-0.244676 31.6968 0.829543 32.0385 2.34321L41.4135 42.0405L44.4897 38.4272L18.855 33.3979L27.0581 38.476L7.33152 15.4292C6.35495 14.3061 5.32956 13.9643 3.57175 14.3549L1.71628 14.7456C0.397922 14.9897-0.188015 16.0151 0.0561253 17.187L5.23191 42.4799C5.9155 45.7026 8.60105 47.8022 12.8003 48.9252Z" fill="#000000" fill-opacity="0.85"/>
 </g>
</svg>
