<?xml version="1.0" encoding="UTF-8"?>
<!--Generator: Apple Native CoreSVG 232.5-->
<!DOCTYPE svg
PUBLIC "-//W3C//DTD SVG 1.1//EN"
       "http://www.w3.org/Graphics/SVG/1.1/DTD/svg11.dtd">
<svg version="1.1" xmlns="http://www.w3.org/2000/svg" xmlns:xlink="http://www.w3.org/1999/xlink" width="79.3945" height="97.0215">
 <g>
  <rect height="97.0215" opacity="0" width="79.3945" x="0" y="0"/>
  <path d="M24.6094 96.9727L54.7852 96.9727C71.3867 96.9727 79.3945 88.9648 79.3945 72.3633L79.3945 24.6094C79.3945 8.00781 71.3867 0 54.7852 0L24.6094 0C8.00781 0 0 8.00781 0 24.6094L0 72.3633C0 88.9648 8.00781 96.9727 24.6094 96.9727ZM24.6094 89.1113C12.9395 89.1113 7.86133 84.0332 7.86133 72.3633L7.86133 24.6094C7.86133 12.9395 12.9395 7.86133 24.6094 7.86133L54.7852 7.86133C66.4551 7.86133 71.5332 12.9395 71.5332 24.6094L71.5332 72.3633C71.5332 84.0332 66.4551 89.1113 54.7852 89.1113ZM3.95508 32.5195L75.4395 32.5195L75.4395 27.5879L3.95508 27.5879ZM26.1719 35.8398L53.2227 35.8398C56.5918 35.8398 59.082 33.4473 59.082 30.0293C59.082 26.6113 56.5918 24.2188 53.2227 24.2188L26.1719 24.2188C22.9492 24.2188 20.3125 26.6113 20.3125 30.0293C20.3125 33.4473 22.9492 35.8398 26.1719 35.8398Z" fill="#000000" fill-opacity="0.85"/>
 </g>
</svg>
