<?xml version="1.0" encoding="UTF-8"?>
<!--Generator: Apple Native CoreSVG 232.5-->
<!DOCTYPE svg
PUBLIC "-//W3C//DTD SVG 1.1//EN"
       "http://www.w3.org/Graphics/SVG/1.1/DTD/svg11.dtd">
<svg version="1.1" xmlns="http://www.w3.org/2000/svg" xmlns:xlink="http://www.w3.org/1999/xlink" width="53.9062" height="85.8887">
 <g>
  <rect height="85.8887" opacity="0" width="53.9062" x="0" y="0"/>
  <path d="M20.9961 0.341797C9.7168 0.439453 0 9.7168 0 22.3633C0 35.4492 18.6035 51.123 32.1289 51.1719C41.8945 51.2207 53.9062 41.748 53.9062 29.7363C53.9062 15.2344 35.9863 0.244141 20.9961 0.341797ZM36.7676 44.4336C34.1309 44.4336 33.9844 41.0156 36.6211 36.7676C39.209 32.4219 43.457 29.0527 46.1426 29.0527C48.8281 29.0527 48.9746 32.4219 46.3379 36.7676C43.75 41.0156 39.502 44.4336 36.7676 44.4336ZM23.1934 22.6562C21.6797 24.8047 18.75 25.293 16.5039 23.6816L9.7168 18.8477C7.51953 17.2363 7.08008 14.4043 8.74023 12.2559C10.2051 10.0586 13.1348 9.52148 15.2832 11.084L22.0703 16.0156C24.2188 17.5293 24.707 20.459 23.1934 22.6562ZM18.6523 85.8887C21.6797 85.8887 23.6816 84.3262 23.6816 81.3477L23.6816 54.3945C17.9688 52.5879 12.3047 49.1699 7.51953 44.873L7.51953 81.3477C7.51953 84.3262 9.47266 85.8887 12.5 85.8887Z" fill="#000000" fill-opacity="0.85"/>
 </g>
</svg>
