<?xml version="1.0" encoding="UTF-8"?>
<!--Generator: Apple Native CoreSVG 232.5-->
<!DOCTYPE svg
PUBLIC "-//W3C//DTD SVG 1.1//EN"
       "http://www.w3.org/Graphics/SVG/1.1/DTD/svg11.dtd">
<svg version="1.1" xmlns="http://www.w3.org/2000/svg" xmlns:xlink="http://www.w3.org/1999/xlink" width="99.6094" height="99.6582">
 <g>
  <rect height="99.6582" opacity="0" width="99.6094" x="0" y="0"/>
  <path d="M99.6094 49.8535C99.6094 77.0996 77.0508 99.6582 49.8047 99.6582C22.6074 99.6582 0 77.0996 0 49.8535C0 22.6562 22.5586 0.0488281 49.7559 0.0488281C77.002 0.0488281 99.6094 22.6562 99.6094 49.8535ZM48.291 55.8594L33.7402 72.2656C32.6172 73.5352 33.4961 75.3418 35.0586 75.3418L64.4531 75.3418C66.1133 75.3418 66.8945 73.5352 65.7715 72.2656L51.2695 55.8594C50.5859 55.0781 49.1211 55.0781 48.291 55.8594ZM28.2227 28.6621C24.0234 28.6621 21.1426 31.5918 21.1426 35.6934L21.1426 59.375C21.1426 63.5254 24.0234 66.3574 28.2227 66.3574L33.4961 66.3574L38.0859 61.2305L28.8086 61.2305C27.4902 61.2305 26.5137 60.3027 26.5137 58.9355L26.5137 36.1816C26.5137 34.7656 27.4902 33.7402 28.8086 33.7402L70.752 33.7402C72.1191 33.7402 73.0957 34.7656 73.0957 36.1816L73.0957 58.9355C73.0957 60.3027 72.1191 61.2305 70.752 61.2305L61.5234 61.2305L66.0156 66.3574L71.2891 66.3574C75.4883 66.3574 78.4668 63.5254 78.4668 59.375L78.4668 35.6934C78.4668 31.5918 75.4883 28.6621 71.2891 28.6621Z" fill="#000000" fill-opacity="0.85"/>
 </g>
</svg>
