<?xml version="1.0" encoding="UTF-8"?>
<!--Generator: Apple Native CoreSVG 232.5-->
<!DOCTYPE svg
PUBLIC "-//W3C//DTD SVG 1.1//EN"
       "http://www.w3.org/Graphics/SVG/1.1/DTD/svg11.dtd">
<svg version="1.1" xmlns="http://www.w3.org/2000/svg" xmlns:xlink="http://www.w3.org/1999/xlink" width="42.5814" height="95.2637">
 <g>
  <rect height="95.2637" opacity="0" width="42.5814" x="0" y="0"/>
  <path d="M21.0954 39.5996C31.5934 39.4531 38.1852 33.1055 41.1149 28.5645C42.0915 27.002 42.5797 25.293 42.5797 23.3887L42.5797 16.2109C42.5797 14.3066 42.1403 12.5977 41.1149 11.0352C38.0876 6.49414 31.5934 0 21.0954 0C9.66959 0 0.148103 8.88672 0.00161897 19.7266C-0.144865 30.7129 9.66959 39.6973 21.0954 39.5996ZM33.693 27.5391C32.3747 27.5391 31.3493 26.5137 31.3493 25.1953L31.3493 14.3555C31.3493 13.0371 32.3747 12.0117 33.693 12.0117C35.0114 12.0117 35.9879 13.0371 35.9879 14.3555L35.9879 25.1953C35.9879 26.5137 35.0114 27.5391 33.693 27.5391ZM18.6051 79.0039L18.6051 44.1895C13.4782 43.7988 8.69303 41.8457 4.8356 38.8672L4.8356 79.0039ZM13.82 95.1172C16.7497 95.1172 18.6051 93.6523 18.6051 90.7715L18.6051 83.8867L4.8356 83.8867L4.8356 90.7715C4.8356 93.6523 6.69107 95.1172 9.66959 95.1172Z" fill="#000000" fill-opacity="0.85"/>
 </g>
</svg>
