<?xml version="1.0" encoding="UTF-8"?>
<!--Generator: Apple Native CoreSVG 232.5-->
<!DOCTYPE svg
PUBLIC "-//W3C//DTD SVG 1.1//EN"
       "http://www.w3.org/Graphics/SVG/1.1/DTD/svg11.dtd">
<svg version="1.1" xmlns="http://www.w3.org/2000/svg" xmlns:xlink="http://www.w3.org/1999/xlink" width="73.584" height="96.3386">
 <g>
  <rect height="96.3386" opacity="0" width="73.584" x="0" y="0"/>
  <path d="M36.5723 57.2575L36.5723 86.768C36.5723 89.7953 34.5703 91.3578 31.543 91.3578L27.7344 91.3578C24.707 91.3578 22.7051 89.7953 22.7051 86.768L22.7051 54.5447C26.3163 55.8992 30.6616 56.8662 36.5723 57.2575Z" fill="#000000" fill-opacity="0.85"/>
  <path d="M48.4375 17.6762C49.172 18.5943 50.2221 20.1861 51.2127 22.0998C39.9914 23.8947 31.8359 33.9513 31.8359 43.848C31.8359 46.9116 32.399 49.6147 33.3988 51.9452C26.9968 51.1914 22.9981 49.6211 19.3359 47.559C11.2793 42.9203 4.93164 35.4008 4.93164 24.6098C4.93164 12.1586 13.7207 5.0785 24.5117 4.98085C32.8613 4.88319 42.1875 8.98475 48.4375 17.6762ZM15.1855 16.6019C14.3066 17.5785 14.3555 19.0433 15.3809 19.8734L22.6562 25.9281C23.584 26.7582 25.0977 26.6605 25.9277 25.6351C26.7578 24.6098 26.6602 23.1449 25.5859 22.3148L18.457 16.2601C17.4316 15.4301 15.9668 15.5765 15.1855 16.6019Z" fill="#000000" fill-opacity="0.85"/>
  <path d="M50.8789 58.0082C59.6191 58.0082 68.6035 51.0746 68.6035 40.4789C68.6035 33.3988 63.623 26.4652 54.834 26.4652C44.5312 26.4652 36.5723 35.4008 36.5723 43.848C36.5723 53.3207 43.2617 58.0082 50.8789 58.0082ZM53.2715 50.5863C51.9043 49.4144 52.6855 47.0707 55.4688 43.5062C58.3496 39.9906 60.6445 38.8187 62.1094 40.0883C63.4277 41.2601 62.6953 43.6527 59.9121 47.1195C56.9824 50.5863 54.6875 51.807 53.2715 50.5863Z" fill="#000000" fill-opacity="0.425"/>
 </g>
</svg>
