<?xml version="1.0" encoding="UTF-8"?>
<!--Generator: Apple Native CoreSVG 232.5-->
<!DOCTYPE svg
PUBLIC "-//W3C//DTD SVG 1.1//EN"
       "http://www.w3.org/Graphics/SVG/1.1/DTD/svg11.dtd">
<svg version="1.1" xmlns="http://www.w3.org/2000/svg" xmlns:xlink="http://www.w3.org/1999/xlink" width="99.6094" height="99.6582">
 <g>
  <rect height="99.6582" opacity="0" width="99.6094" x="0" y="0"/>
  <path d="M49.8047 99.6094C77.0508 99.6094 99.6094 77.002 99.6094 49.8047C99.6094 22.5586 77.002 0 49.7559 0C22.5586 0 0 22.5586 0 49.8047C0 77.002 22.6074 99.6094 49.8047 99.6094ZM49.8047 91.3086C26.7578 91.3086 8.34961 72.8516 8.34961 49.8047C8.34961 26.7578 26.709 8.30078 49.7559 8.30078C72.8027 8.30078 91.3086 26.7578 91.3086 49.8047C91.3086 72.8516 72.8516 91.3086 49.8047 91.3086Z" fill="#000000" fill-opacity="0.85"/>
  <path d="M81.543 49.8535C81.543 46.582 77.2461 44.0918 71.9238 44.0918L61.4746 44.0918C60.2051 44.0918 59.8145 43.9453 58.9844 43.0664L41.6016 24.1211C40.9668 23.3887 40.1855 23.0469 39.3066 23.0469L36.2793 23.0469C35.2539 23.0469 34.668 23.9746 35.1074 25L43.7988 44.1895L31.6406 45.6055L27.0996 37.3047C26.6602 36.5234 25.9766 36.1328 24.9023 36.1328L23.7793 36.1328C22.8516 36.1328 22.2168 36.7676 22.2168 37.6953L22.2168 61.9629C22.2168 62.8906 22.8516 63.5254 23.7793 63.5254L24.9023 63.5254C25.9766 63.5254 26.6602 63.1348 27.0996 62.4023L31.6406 54.1016L43.7988 55.4688L35.1074 74.6582C34.668 75.6836 35.2539 76.6113 36.2793 76.6113L39.3066 76.6113C40.1855 76.6113 40.9668 76.2695 41.6016 75.5859L58.9844 56.6406C59.8145 55.7617 60.2051 55.5664 61.4746 55.5664L71.9238 55.5664C77.2461 55.5664 81.543 53.0762 81.543 49.8535Z" fill="#000000" fill-opacity="0.85"/>
 </g>
</svg>
