<?xml version="1.0" encoding="UTF-8"?>
<!--Generator: Apple Native CoreSVG 232.5-->
<!DOCTYPE svg
PUBLIC "-//W3C//DTD SVG 1.1//EN"
       "http://www.w3.org/Graphics/SVG/1.1/DTD/svg11.dtd">
<svg version="1.1" xmlns="http://www.w3.org/2000/svg" xmlns:xlink="http://www.w3.org/1999/xlink" width="73.584" height="96.3386">
 <g>
  <rect height="96.3386" opacity="0" width="73.584" x="0" y="0"/>
  <path d="M50.8301 86.768C50.8301 89.7953 48.877 91.3578 45.8496 91.3578L42.041 91.3578C38.9648 91.3578 36.9629 89.7953 36.9629 86.768L36.9629 57.2581C42.8656 56.8687 47.2166 55.9069 50.8301 54.5592Z" fill="#000000" fill-opacity="0.85"/>
  <path d="M68.6035 24.6098C68.6035 35.4008 62.2559 42.9203 54.248 47.559C50.5762 49.6266 46.566 51.1998 40.1348 51.9514C41.1352 49.6193 41.6992 46.9142 41.6992 43.848C41.6992 33.9575 33.5939 23.9072 22.3547 22.1032C23.3522 20.188 24.4115 18.5949 25.1465 17.6762C31.3965 8.98475 40.6738 4.88319 49.0723 4.98085C59.8145 5.0785 68.6035 12.1586 68.6035 24.6098ZM55.127 16.2601L47.9492 22.3148C46.9238 23.1449 46.8262 24.6098 47.6562 25.6351C48.4863 26.6605 49.9512 26.7582 50.9277 25.9281L58.1543 19.8734C59.1797 19.0433 59.2285 17.5785 58.3984 16.6019C57.6172 15.5765 56.1035 15.4301 55.127 16.2601Z" fill="#000000" fill-opacity="0.85"/>
  <path d="M22.7051 58.0082C30.3223 58.0082 37.0117 53.3207 37.0117 43.848C37.0117 35.4008 29.0527 26.4652 18.7012 26.4652C9.96094 26.4652 4.93164 33.3988 4.93164 40.4789C4.93164 51.0746 13.9648 58.0082 22.7051 58.0082ZM20.3125 50.5863C18.8965 51.807 16.6016 50.5863 13.6719 47.1195C10.8398 43.6527 10.1074 41.2601 11.4746 40.0883C12.9395 38.8187 15.1855 39.9906 18.1152 43.5062C20.8984 47.0707 21.6797 49.4144 20.3125 50.5863Z" fill="#000000" fill-opacity="0.425"/>
 </g>
</svg>
