<?xml version="1.0" encoding="UTF-8"?>
<!--Generator: Apple Native CoreSVG 232.5-->
<!DOCTYPE svg
PUBLIC "-//W3C//DTD SVG 1.1//EN"
       "http://www.w3.org/Graphics/SVG/1.1/DTD/svg11.dtd">
<svg version="1.1" xmlns="http://www.w3.org/2000/svg" xmlns:xlink="http://www.w3.org/1999/xlink" width="65.5762" height="112.939">
 <g>
  <rect height="112.939" opacity="0" width="65.5762" x="0" y="0"/>
  <path d="M47.3145 98.877C49.6094 98.877 51.5137 96.9727 51.5137 94.5801C51.5137 92.2852 49.6094 90.3809 47.3145 90.3809C44.9219 90.3809 43.0664 92.2852 43.0664 94.5801C43.0664 96.9727 44.9219 98.877 47.3145 98.877ZM0 97.8027C0 107.91 5.12695 112.939 15.332 112.939L50.293 112.939C60.4492 112.939 65.5762 107.91 65.5762 97.8027L65.5762 24.4141C65.5762 20.6055 64.7461 18.1152 62.4512 15.332L54.8828 6.10352C51.7578 2.29492 48.5352 0.390625 44.5801 0.390625L20.9961 0.390625C17.041 0.390625 13.8672 2.29492 10.6934 6.10352L3.125 15.332C0.830078 18.1152 0 20.6055 0 24.4141ZM7.86133 97.4121L7.86133 28.5156C9.17969 29.248 10.5957 29.4922 12.3047 29.4922L53.2715 29.4922C55.0293 29.4922 56.4453 29.248 57.7148 28.5156L57.7148 97.4121C57.7148 102.49 55.0293 105.078 50.1465 105.078L15.4297 105.078C10.5469 105.078 7.86133 102.49 7.86133 97.4121ZM10.2539 18.0664L16.4062 10.5469C18.6035 7.95898 19.7754 6.54297 23.0469 6.54297L42.5293 6.54297C45.8496 6.54297 47.0215 7.95898 49.1699 10.5469L55.3223 18.0664C56.3477 19.2871 56.1523 21.6309 53.5156 21.6309L12.0605 21.6309C9.42383 21.6309 9.27734 19.2871 10.2539 18.0664Z" fill="#000000" fill-opacity="0.85"/>
 </g>
</svg>
