<?xml version="1.0" encoding="UTF-8"?>
<!--Generator: Apple Native CoreSVG 232.5-->
<!DOCTYPE svg
PUBLIC "-//W3C//DTD SVG 1.1//EN"
       "http://www.w3.org/Graphics/SVG/1.1/DTD/svg11.dtd">
<svg version="1.1" xmlns="http://www.w3.org/2000/svg" xmlns:xlink="http://www.w3.org/1999/xlink" width="125.58" height="87.3535">
 <g>
  <rect height="87.3535" opacity="0" width="125.58" x="0" y="0"/>
  <path d="M9.5673 87.3535L114.938 87.3535C117.087 87.3535 118.893 85.5469 118.893 83.3984C118.893 81.25 117.087 79.4922 114.938 79.4922L9.5673 79.4922C7.41887 79.4922 5.66105 81.25 5.66105 83.3984C5.66105 85.5469 7.41887 87.3535 9.5673 87.3535Z" fill="#000000" fill-opacity="0.85"/>
  <path d="M27.4384 54.6387L111.179 32.3242C120.554 29.7852 127.585 22.9004 125.046 15.918C122.702 9.57031 113.278 8.00781 104.88 10.8398L75.5341 20.8984C73.4833 21.582 72.0185 21.5332 69.6747 20.4102L28.7568 1.07422C27.4384 0.488281 25.9736 0.341797 24.6552 0.732422L21.2861 1.75781C20.1142 2.14844 19.7236 3.51562 20.7978 4.63867L48.7763 34.3262L49.704 29.6875L24.997 38.1836L34.5673 38.4766L5.95402 28.3203C4.63566 27.8809 3.46379 28.0762 2.19426 29.248L0.778241 30.5664C-0.198321 31.4453-0.247149 32.6172 0.582929 33.4961L17.7216 52.7344C19.9677 55.2734 23.288 55.7617 27.4384 54.6387Z" fill="#000000" fill-opacity="0.85"/>
 </g>
</svg>
