<?xml version="1.0" encoding="UTF-8"?>
<!--Generator: Apple Native CoreSVG 232.5-->
<!DOCTYPE svg
PUBLIC "-//W3C//DTD SVG 1.1//EN"
       "http://www.w3.org/Graphics/SVG/1.1/DTD/svg11.dtd">
<svg version="1.1" xmlns="http://www.w3.org/2000/svg" xmlns:xlink="http://www.w3.org/1999/xlink" width="99.6094" height="99.6582">
 <g>
  <rect height="99.6582" opacity="0" width="99.6094" x="0" y="0"/>
  <path d="M99.6094 49.8535C99.6094 77.0996 77.0508 99.6582 49.8047 99.6582C22.6074 99.6582 0 77.0996 0 49.8535C0 22.6562 22.5586 0.0488281 49.7559 0.0488281C77.002 0.0488281 99.6094 22.6562 99.6094 49.8535ZM48.3398 55.7129L33.7891 72.1191C32.666 73.3398 33.5449 75.1953 35.1074 75.1953L64.502 75.1953C66.1621 75.1953 66.9434 73.3398 65.8203 72.1191L51.3184 55.7129C50.5859 54.8828 49.1699 54.8828 48.3398 55.7129ZM24.1211 49.8535C24.1211 56.6895 26.7578 63.1836 31.6406 67.9688L34.3262 64.9414C30.4199 60.8887 28.2227 55.4199 28.2227 49.8535C28.2227 38.0371 37.9883 28.2227 49.8047 28.2227C61.6699 28.2227 71.4844 38.0371 71.4844 49.8535C71.4844 55.4199 69.2383 60.8887 65.2832 64.9414L67.9688 67.9688C72.8516 63.1836 75.5859 56.6895 75.5859 49.8535C75.5859 35.7422 63.9648 24.1211 49.8047 24.1211C35.6445 24.1211 24.1211 35.7422 24.1211 49.8535ZM31.25 49.8535C31.25 54.6387 33.0078 59.1797 36.3281 62.6465L39.0625 59.5703C36.6699 56.8359 35.4004 53.418 35.4004 49.8535C35.4004 41.8945 41.8945 35.3516 49.8047 35.3516C57.7148 35.3516 64.2578 41.8945 64.2578 49.8535C64.2578 53.418 62.9395 56.8848 60.498 59.5215L63.2812 62.6465C66.6016 59.1309 68.4082 54.6387 68.4082 49.8535C68.4082 39.6484 60.0098 31.25 49.8047 31.25C39.5996 31.25 31.25 39.6484 31.25 49.8535ZM38.3789 49.8535C38.3789 52.6855 39.3555 55.1758 41.1133 57.2754L43.9453 54.0527C43.0176 52.832 42.5293 51.3184 42.5293 49.8535C42.5293 45.8496 45.8008 42.5293 49.8047 42.5293C53.8086 42.5293 57.1289 45.8496 57.1289 49.8535C57.1289 51.3184 56.5918 52.832 55.6641 54.0039L58.4961 57.2266C60.2539 55.1758 61.2793 52.6367 61.2793 49.8535C61.2793 43.6035 56.0547 38.3789 49.8047 38.3789C43.5547 38.3789 38.3789 43.6035 38.3789 49.8535Z" fill="#000000" fill-opacity="0.85"/>
 </g>
</svg>
