<?xml version="1.0" encoding="UTF-8"?>
<!--Generator: Apple Native CoreSVG 232.5-->
<!DOCTYPE svg
PUBLIC "-//W3C//DTD SVG 1.1//EN"
       "http://www.w3.org/Graphics/SVG/1.1/DTD/svg11.dtd">
<svg version="1.1" xmlns="http://www.w3.org/2000/svg" xmlns:xlink="http://www.w3.org/1999/xlink" width="79.3945" height="97.0215">
 <g>
  <rect height="97.0215" opacity="0" width="79.3945" x="0" y="0"/>
  <path d="M24.6094 96.9727L54.7852 96.9727C71.3867 96.9727 79.3945 88.9648 79.3945 72.3633L79.3945 32.5195L58.7402 32.5195C57.8613 34.4727 55.8105 35.8398 53.2227 35.8398L26.1719 35.8398C23.6816 35.8398 21.582 34.4727 20.7031 32.5195L0 32.5195L0 72.3633C0 88.9648 8.00781 96.9727 24.6094 96.9727ZM0 27.5879L20.7031 27.5879C21.582 25.5859 23.6816 24.2188 26.1719 24.2188L53.2227 24.2188C55.8105 24.2188 57.8613 25.5859 58.7402 27.5879L79.3945 27.5879L79.3945 24.6094C79.3945 8.00781 71.3867 0 54.7852 0L24.6094 0C8.00781 0 0 8.00781 0 24.6094Z" fill="#000000" fill-opacity="0.85"/>
 </g>
</svg>
