<?xml version="1.0" encoding="UTF-8"?>
<!--Generator: Apple Native CoreSVG 232.5-->
<!DOCTYPE svg
PUBLIC "-//W3C//DTD SVG 1.1//EN"
       "http://www.w3.org/Graphics/SVG/1.1/DTD/svg11.dtd">
<svg version="1.1" xmlns="http://www.w3.org/2000/svg" xmlns:xlink="http://www.w3.org/1999/xlink" width="100.586" height="86.1816">
 <g>
  <rect height="86.1816" opacity="0" width="100.586" x="0" y="0"/>
  <path d="M30.4199 86.1328L70.166 86.1328C90.8203 86.1328 100.586 76.3184 100.586 55.7129L100.586 33.3496L76.0254 33.3496C75.0977 35.6445 72.9004 37.0605 70.166 37.0605L30.4199 37.0605C27.7344 37.0605 25.4883 35.6445 24.6094 33.3496L0 33.3496L0 55.7129C0 76.3184 9.76562 86.1328 30.4199 86.1328ZM50.293 56.6406C47.7539 56.6895 45.6055 54.541 45.6055 52.0508C45.6055 49.4629 47.7539 47.3633 50.293 47.3633C52.832 47.3633 54.9805 49.4629 54.9805 52.0508C54.9805 54.3945 52.832 56.5918 50.293 56.6406ZM0 28.3691L24.5117 28.3691C25.3418 26.0254 27.5879 24.6094 30.2734 24.6094L70.1172 24.6094C72.8027 24.6094 75.0488 26.0254 75.9277 28.3691L100.391 28.3691L100.391 26.6602C100.391 8.64258 89.4531 0 69.9707 0L30.4199 0C10.9863 0 0 8.64258 0 26.6602Z" fill="#000000" fill-opacity="0.85"/>
 </g>
</svg>
