<?xml version="1.0" encoding="UTF-8"?>
<!--Generator: Apple Native CoreSVG 232.5-->
<!DOCTYPE svg
PUBLIC "-//W3C//DTD SVG 1.1//EN"
       "http://www.w3.org/Graphics/SVG/1.1/DTD/svg11.dtd">
<svg version="1.1" xmlns="http://www.w3.org/2000/svg" xmlns:xlink="http://www.w3.org/1999/xlink" width="42.5814" height="95.2637">
 <g>
  <rect height="95.2637" opacity="0" width="42.5814" x="0" y="0"/>
  <path d="M21.486 39.5996C32.9118 39.6973 42.7262 30.7129 42.5797 19.7266C42.4333 8.88672 32.9118 0 21.486 0C10.9879 0 4.54263 6.49414 1.46646 11.0352C0.441072 12.5977 0.00161897 14.3066 0.00161897 16.2109L0.00161897 23.3887C0.00161897 25.293 0.4899 27.002 1.46646 28.5645C4.44498 33.1055 10.9879 39.4531 21.486 39.5996ZM8.88834 27.5391C7.61881 27.5391 6.59342 26.5137 6.59342 25.1953L6.59342 14.3555C6.59342 13.0371 7.61881 12.0117 8.88834 12.0117C10.2555 12.0117 11.2321 13.0371 11.2321 14.3555L11.2321 25.1953C11.2321 26.5137 10.2555 27.5391 8.88834 27.5391ZM23.9762 79.0039L37.7458 79.0039L37.7458 38.8672C33.8883 41.8457 29.1032 43.7988 23.9762 44.1895ZM28.7614 95.1172L32.9118 95.1172C35.8903 95.1172 37.7458 93.6523 37.7458 90.7715L37.7458 83.8867L23.9762 83.8867L23.9762 90.7715C23.9762 93.6523 25.8805 95.1172 28.7614 95.1172Z" fill="#000000" fill-opacity="0.85"/>
 </g>
</svg>
