<?xml version="1.0" encoding="UTF-8"?>
<!--Generator: Apple Native CoreSVG 232.5-->
<!DOCTYPE svg
PUBLIC "-//W3C//DTD SVG 1.1//EN"
       "http://www.w3.org/Graphics/SVG/1.1/DTD/svg11.dtd">
<svg version="1.1" xmlns="http://www.w3.org/2000/svg" xmlns:xlink="http://www.w3.org/1999/xlink" width="110.547" height="85.2051">
 <g>
  <rect height="85.2051" opacity="0" width="110.547" x="0" y="0"/>
  <path d="M29.5898 85.1562L80.957 85.1562C100.928 85.1562 110.547 75.5859 110.547 55.7129L110.547 29.4434C110.547 9.57031 100.928 0 80.957 0L29.5898 0C9.66797 0 0 9.57031 0 29.4434L0 55.7129C0 75.5859 9.66797 85.1562 29.5898 85.1562ZM29.5898 77.2949C14.5996 77.2949 7.86133 70.6055 7.86133 55.7129L7.86133 29.4434C7.86133 14.5508 14.5996 7.86133 29.5898 7.86133L80.957 7.86133C95.9961 7.86133 102.686 14.5508 102.686 29.4434L102.686 55.7129C102.686 70.6055 95.9961 77.2949 80.957 77.2949ZM3.95508 32.7637L106.592 32.7637L106.592 27.832L3.95508 27.832ZM35.7422 36.1328L74.8535 36.1328C78.2715 36.1328 80.7129 33.7402 80.7129 30.2734C80.7129 26.8555 78.2715 24.4629 74.8535 24.4629L35.7422 24.4629C32.4219 24.4629 29.834 26.8555 29.834 30.2734C29.834 33.7402 32.4219 36.1328 35.7422 36.1328ZM55.2734 52.7832C57.8613 52.7344 60.0098 50.5859 60.0098 48.1445C60.0098 45.5566 57.8613 43.4082 55.2734 43.4082C52.6855 43.4082 50.5859 45.5566 50.5859 48.1445C50.5859 50.6836 52.6855 52.832 55.2734 52.7832Z" fill="#000000" fill-opacity="0.85"/>
 </g>
</svg>
