<?xml version="1.0" encoding="UTF-8"?>
<!--Generator: Apple Native CoreSVG 232.5-->
<!DOCTYPE svg
PUBLIC "-//W3C//DTD SVG 1.1//EN"
       "http://www.w3.org/Graphics/SVG/1.1/DTD/svg11.dtd">
<svg version="1.1" xmlns="http://www.w3.org/2000/svg" xmlns:xlink="http://www.w3.org/1999/xlink" width="99.6094" height="99.6582">
 <g>
  <rect height="99.6582" opacity="0" width="99.6094" x="0" y="0"/>
  <path d="M49.8047 99.6582C77.0508 99.6582 99.6094 77.0996 99.6094 49.8535C99.6094 22.6562 77.002 0.0488281 49.7559 0.0488281C22.5586 0.0488281 0 22.6562 0 49.8535C0 77.0996 22.6074 99.6582 49.8047 99.6582ZM49.8047 89.8926C27.5879 89.8926 9.76562 72.0703 9.76562 49.8047C9.76562 27.4902 27.5391 9.7168 49.7559 9.7168C72.0215 9.7168 89.8438 27.4902 89.8926 49.8047C89.9414 72.0215 72.0703 89.8926 49.8047 89.8926ZM49.8047 85.4492C69.6289 85.4492 85.498 69.5312 85.4492 49.8047C85.4004 29.9316 69.5312 14.1602 49.7559 14.1602C29.9805 14.1602 14.209 29.9805 14.209 49.8047C14.209 69.5801 30.0293 85.4492 49.8047 85.4492ZM50.2441 63.3789C47.4609 63.3789 46.4844 64.8926 44.2383 64.8926C41.8945 64.8926 40.3809 62.8418 38.5254 60.3027C36.4746 57.2754 34.7168 52.6367 34.7168 48.1934C34.7168 41.1621 39.3555 37.3535 43.8965 37.3535C46.2891 37.3535 48.291 38.9648 49.7559 38.9648C51.2207 38.9648 53.4668 37.3047 56.2012 37.3047C57.2754 37.3047 60.9863 37.3535 63.4277 40.8691C63.2324 41.1133 59.5215 43.1641 59.5215 47.8516C59.5215 53.2715 64.2578 55.1758 64.4043 55.2246C64.4043 55.3223 63.6719 57.8613 61.9141 60.4004C60.3516 62.5977 58.6426 64.8438 56.2012 64.8438C53.7109 64.8438 53.125 63.3789 50.2441 63.3789ZM54.9316 34.2773C53.7109 35.791 51.6602 36.9141 50 36.9141C49.7559 36.9141 49.6094 36.8652 49.4629 36.8652C49.4629 36.7676 49.4141 36.4746 49.4141 36.2305C49.4141 34.2773 50.4395 32.4707 51.416 31.25C52.7832 29.6875 54.9316 28.5645 56.7871 28.5156C56.8359 28.7109 56.8359 28.9551 56.8359 29.1992C56.8359 31.1035 56.0547 32.9102 54.9316 34.2773Z" fill="#000000" fill-opacity="0.85"/>
 </g>
</svg>
