<?xml version="1.0" encoding="UTF-8"?>
<!--Generator: Apple Native CoreSVG 232.5-->
<!DOCTYPE svg
PUBLIC "-//W3C//DTD SVG 1.1//EN"
       "http://www.w3.org/Graphics/SVG/1.1/DTD/svg11.dtd">
<svg version="1.1" xmlns="http://www.w3.org/2000/svg" xmlns:xlink="http://www.w3.org/1999/xlink" width="130.566" height="86.2793">
 <g>
  <rect height="86.2793" opacity="0" width="130.566" x="0" y="0"/>
  <path d="M111.719 76.5137C113.281 78.3203 116.016 78.3203 117.871 76.2695C126.025 67.4316 130.566 55.7617 130.566 43.1152C130.566 30.4688 126.025 18.75 117.871 9.96094C116.016 7.91016 113.281 7.86133 111.719 9.7168C110.156 11.4746 110.645 13.7695 112.402 15.7715C118.945 23.0469 122.607 32.6172 122.607 43.1152C122.607 53.6133 118.945 63.1836 112.402 70.459C110.645 72.4609 110.156 74.7559 111.719 76.5137Z" fill="#000000" fill-opacity="0.85"/>
  <path d="M98.0469 62.5977C99.6582 64.4043 102.588 64.4531 104.297 62.2559C108.545 56.9824 111.035 50.293 111.035 43.1152C111.035 35.9375 108.545 29.248 104.297 23.9746C102.588 21.7773 99.6582 21.7773 98.0469 23.6328C96.4844 25.3906 97.1191 27.5879 98.6816 29.6875C101.611 33.3008 103.076 38.0371 103.076 43.1152C103.076 48.1934 101.611 52.8809 98.6816 56.543C97.1191 58.6426 96.4844 60.8398 98.0469 62.5977Z" fill="#000000" fill-opacity="0.85"/>
  <path d="M43.1152 86.2305C66.6504 86.2305 86.2305 66.6504 86.2305 43.1152C86.2305 19.5801 66.6992 0 43.1641 0C19.6289 0 0 19.5801 0 43.1152C0 66.6504 19.5801 86.2305 43.1152 86.2305ZM43.5547 57.7637C40.625 57.7637 39.5996 59.3262 37.2559 59.3262C34.8145 59.3262 33.2031 57.2266 31.2988 54.541C29.1504 51.3672 27.3438 46.5332 27.3438 41.8945C27.3438 34.5215 32.1289 30.5664 36.9141 30.5664C39.4043 30.5664 41.5039 32.2754 43.0664 32.2754C44.5801 32.2754 46.9238 30.5176 49.7559 30.5176C50.8789 30.5176 54.7852 30.5664 57.3242 34.2285C57.0801 34.4727 53.2227 36.6211 53.2227 41.5527C53.2227 47.168 58.1543 49.1699 58.3008 49.2676C58.3008 49.3652 57.5684 52.002 55.7129 54.6387C54.1016 56.9336 52.3438 59.2773 49.7559 59.2773C47.168 59.2773 46.5332 57.7637 43.5547 57.7637ZM48.4375 27.3438C47.168 28.9062 45.0195 30.0781 43.2617 30.0781C43.0664 30.0781 42.9199 30.0293 42.7246 30.0293C42.7246 29.9316 42.6758 29.6387 42.6758 29.3457C42.6758 27.3438 43.75 25.4395 44.7754 24.1699C46.1914 22.5586 48.4375 21.3379 50.3906 21.2891C50.4395 21.4844 50.4395 21.7773 50.4395 22.0215C50.4395 24.0234 49.6094 25.9277 48.4375 27.3438Z" fill="#000000" fill-opacity="0.85"/>
 </g>
</svg>
