<?xml version="1.0" encoding="UTF-8"?>
<!--Generator: Apple Native CoreSVG 232.5-->
<!DOCTYPE svg
PUBLIC "-//W3C//DTD SVG 1.1//EN"
       "http://www.w3.org/Graphics/SVG/1.1/DTD/svg11.dtd">
<svg version="1.1" xmlns="http://www.w3.org/2000/svg" xmlns:xlink="http://www.w3.org/1999/xlink" width="130.566" height="86.2793">
 <g>
  <rect height="86.2793" opacity="0" width="130.566" x="0" y="0"/>
  <path d="M111.719 76.5137C113.281 78.3203 116.016 78.3203 117.871 76.2695C126.025 67.4316 130.566 55.7617 130.566 43.1152C130.566 30.4688 126.025 18.75 117.871 9.96094C116.016 7.91016 113.281 7.86133 111.719 9.7168C110.156 11.4746 110.645 13.7695 112.402 15.7715C118.945 23.0469 122.607 32.6172 122.607 43.1152C122.607 53.6133 118.945 63.1836 112.402 70.459C110.645 72.4609 110.156 74.7559 111.719 76.5137Z" fill="#000000" fill-opacity="0.85"/>
  <path d="M98.0469 62.5977C99.6582 64.4043 102.588 64.4531 104.297 62.2559C108.545 56.9824 111.035 50.293 111.035 43.1152C111.035 35.9375 108.545 29.248 104.297 23.9746C102.588 21.7773 99.6582 21.7773 98.0469 23.6328C96.4844 25.3906 97.1191 27.5879 98.6816 29.6875C101.611 33.3008 103.076 38.0371 103.076 43.1152C103.076 48.1934 101.611 52.8809 98.6816 56.543C97.1191 58.6426 96.4844 60.8398 98.0469 62.5977Z" fill="#000000" fill-opacity="0.85"/>
  <path d="M43.1152 86.2305C66.6504 86.2305 86.2305 66.6504 86.2305 43.1152C86.2305 19.5801 66.6992 0 43.1641 0C19.6289 0 0 19.5801 0 43.1152C0 66.6504 19.5801 86.2305 43.1152 86.2305ZM43.1641 78.418C23.584 78.418 7.86133 62.6953 7.91016 43.1152C7.91016 23.5352 23.6328 7.86133 43.2129 7.86133C62.6953 7.86133 78.3691 23.5352 78.3691 43.1152C78.3691 62.6953 62.7441 78.418 43.1641 78.418ZM43.5059 57.1777C46.4355 57.1777 47.0703 58.6426 49.5605 58.6426C52.0508 58.6426 53.7598 56.3477 55.3223 54.1016C57.1289 51.5137 57.8613 48.9746 57.8613 48.877C57.7148 48.8281 52.9297 46.875 52.9297 41.4062C52.9297 36.6211 56.6895 34.5215 56.8848 34.3262C54.4434 30.7617 50.6348 30.7129 49.5605 30.7129C46.7773 30.7129 44.5312 32.373 43.0664 32.373C41.5527 32.373 39.5508 30.7617 37.0605 30.7617C32.4707 30.7617 27.832 34.6191 27.832 41.748C27.832 46.2402 29.541 50.9766 31.6406 54.0039C33.4961 56.5918 35.1074 58.6914 37.4512 58.6914C39.6973 58.6914 40.7227 57.1777 43.5059 57.1777ZM48.291 27.6367C49.4141 26.2695 50.2441 24.4141 50.2441 22.4609C50.2441 22.2168 50.2441 21.9727 50.1953 21.7773C48.291 21.8262 46.0938 22.998 44.7754 24.5605C43.75 25.7812 42.7246 27.6367 42.7246 29.5898C42.7246 29.834 42.7734 30.127 42.7734 30.2246C42.9199 30.2246 43.0664 30.2734 43.2617 30.2734C44.9707 30.2734 47.0703 29.1504 48.291 27.6367Z" fill="#000000" fill-opacity="0.85"/>
 </g>
</svg>
