<?xml version="1.0" encoding="UTF-8"?>
<!--Generator: Apple Native CoreSVG 232.5-->
<!DOCTYPE svg
PUBLIC "-//W3C//DTD SVG 1.1//EN"
       "http://www.w3.org/Graphics/SVG/1.1/DTD/svg11.dtd">
<svg version="1.1" xmlns="http://www.w3.org/2000/svg" xmlns:xlink="http://www.w3.org/1999/xlink" width="109.961" height="113.33">
 <g>
  <rect height="113.33" opacity="0" width="109.961" x="0" y="0"/>
  <path d="M82.6172 51.9043C89.8438 51.9043 93.7988 48.0469 93.7988 40.918L93.7988 23.9258C93.7988 16.7969 89.8438 12.9395 82.6172 12.9395L45.752 12.9395C38.4766 12.9395 34.5703 16.7969 34.5703 23.9258L34.5703 40.918C34.5703 48.0469 38.4766 51.9043 45.752 51.9043ZM82.6172 100.293C89.8438 100.293 93.7988 96.4355 93.7988 89.3066L93.7988 72.3145C93.7988 65.2344 89.8438 61.3281 82.6172 61.3281L11.1816 61.3281C3.90625 61.3281 0 65.2344 0 72.3145L0 89.3066C0 96.4355 3.90625 100.293 11.1816 100.293Z" fill="#000000" fill-opacity="0.85"/>
  <path d="M106.396 113.184C108.301 113.184 109.961 111.719 109.961 109.814L109.961 3.36914C109.961 1.46484 108.301 0 106.396 0C104.492 0 102.783 1.46484 102.783 3.36914L102.783 109.814C102.783 111.719 104.492 113.184 106.396 113.184Z" fill="#000000" fill-opacity="0.85"/>
 </g>
</svg>
