<?xml version="1.0" encoding="UTF-8"?>
<!--Generator: Apple Native CoreSVG 232.5-->
<!DOCTYPE svg
PUBLIC "-//W3C//DTD SVG 1.1//EN"
       "http://www.w3.org/Graphics/SVG/1.1/DTD/svg11.dtd">
<svg version="1.1" xmlns="http://www.w3.org/2000/svg" xmlns:xlink="http://www.w3.org/1999/xlink" width="113.184" height="110.205">
 <g>
  <rect height="110.205" opacity="0" width="113.184" x="0" y="0"/>
  <path d="M23.9258 110.205L40.918 110.205C48.0469 110.205 51.9043 106.299 51.9043 99.0234L51.9043 27.5879C51.9043 20.3613 48.0469 16.4062 40.918 16.4062L23.9258 16.4062C16.7969 16.4062 12.9395 20.3613 12.9395 27.5879L12.9395 99.0234C12.9395 106.299 16.7969 110.205 23.9258 110.205ZM24.3652 102.832C21.7285 102.832 20.3125 101.416 20.3125 98.877L20.3125 27.7344C20.3125 25.2441 21.7285 23.7793 24.3652 23.7793L40.4785 23.7793C43.1152 23.7793 44.5312 25.2441 44.5312 27.7344L44.5312 98.877C44.5312 101.416 43.1152 102.832 40.4785 102.832ZM72.3633 75.6348L89.3555 75.6348C96.4355 75.6348 100.342 71.7285 100.342 64.4531L100.342 27.5879C100.342 20.3613 96.4355 16.4062 89.3555 16.4062L72.3633 16.4062C65.2344 16.4062 61.3281 20.3613 61.3281 27.5879L61.3281 64.4531C61.3281 71.7285 65.2344 75.6348 72.3633 75.6348ZM72.7539 68.2617C70.166 68.2617 68.7012 66.8457 68.7012 64.3066L68.7012 27.7344C68.7012 25.2441 70.166 23.7793 72.7539 23.7793L88.916 23.7793C91.5039 23.7793 92.9688 25.2441 92.9688 27.7344L92.9688 64.3066C92.9688 66.8457 91.5039 68.2617 88.916 68.2617Z" fill="#000000" fill-opacity="0.85"/>
  <path d="M3.41797 7.27539L109.814 7.27539C111.719 7.27539 113.184 5.61523 113.184 3.71094C113.184 1.80664 111.719 0.0976562 109.814 0.0976562L3.41797 0.0976562C1.46484 0.0976562 0 1.80664 0 3.71094C0 5.61523 1.46484 7.27539 3.41797 7.27539Z" fill="#000000" fill-opacity="0.85"/>
 </g>
</svg>
