<?xml version="1.0" encoding="UTF-8"?>
<!--Generator: Apple Native CoreSVG 232.5-->
<!DOCTYPE svg
PUBLIC "-//W3C//DTD SVG 1.1//EN"
       "http://www.w3.org/Graphics/SVG/1.1/DTD/svg11.dtd">
<svg version="1.1" xmlns="http://www.w3.org/2000/svg" xmlns:xlink="http://www.w3.org/1999/xlink" width="109.961" height="113.33">
 <g>
  <rect height="113.33" opacity="0" width="109.961" x="0" y="0"/>
  <path d="M27.3438 51.9043L64.209 51.9043C71.4844 51.9043 75.3906 48.0469 75.3906 40.918L75.3906 23.9258C75.3906 16.7969 71.4844 12.9395 64.209 12.9395L27.3438 12.9395C20.1172 12.9395 16.1621 16.7969 16.1621 23.9258L16.1621 40.918C16.1621 48.0469 20.1172 51.9043 27.3438 51.9043ZM27.3438 100.293L98.7793 100.293C106.055 100.293 109.961 96.4355 109.961 89.3066L109.961 72.3145C109.961 65.2344 106.055 61.3281 98.7793 61.3281L27.3438 61.3281C20.1172 61.3281 16.1621 65.2344 16.1621 72.3145L16.1621 89.3066C16.1621 96.4355 20.1172 100.293 27.3438 100.293Z" fill="#000000" fill-opacity="0.85"/>
  <path d="M3.56445 113.184C5.51758 113.184 7.17773 111.719 7.17773 109.814L7.17773 3.36914C7.17773 1.46484 5.51758 0 3.56445 0C1.66016 0 0 1.46484 0 3.36914L0 109.814C0 111.719 1.66016 113.184 3.56445 113.184Z" fill="#000000" fill-opacity="0.85"/>
 </g>
</svg>
