<?xml version="1.0" encoding="UTF-8"?>
<!--Generator: Apple Native CoreSVG 232.5-->
<!DOCTYPE svg
PUBLIC "-//W3C//DTD SVG 1.1//EN"
       "http://www.w3.org/Graphics/SVG/1.1/DTD/svg11.dtd">
<svg version="1.1" xmlns="http://www.w3.org/2000/svg" xmlns:xlink="http://www.w3.org/1999/xlink" width="113.184" height="110.205">
 <g>
  <rect height="110.205" opacity="0" width="113.184" x="0" y="0"/>
  <path d="M23.9258 93.8965L40.918 93.8965C48.0469 93.8965 51.9043 89.9902 51.9043 82.7148L51.9043 11.2793C51.9043 4.00391 48.0469 0.0976562 40.918 0.0976562L23.9258 0.0976562C16.7969 0.0976562 12.9395 4.00391 12.9395 11.2793L12.9395 82.7148C12.9395 89.9902 16.7969 93.8965 23.9258 93.8965ZM24.3652 86.5234C21.7285 86.5234 20.3125 85.1074 20.3125 82.5684L20.3125 11.4258C20.3125 8.88672 21.7285 7.4707 24.3652 7.4707L40.4785 7.4707C43.1152 7.4707 44.5312 8.88672 44.5312 11.4258L44.5312 82.5684C44.5312 85.1074 43.1152 86.5234 40.4785 86.5234ZM72.3633 93.8965L89.3555 93.8965C96.4355 93.8965 100.342 89.9902 100.342 82.7148L100.342 45.8496C100.342 38.623 96.4355 34.668 89.3555 34.668L72.3633 34.668C65.2344 34.668 61.3281 38.623 61.3281 45.8496L61.3281 82.7148C61.3281 89.9902 65.2344 93.8965 72.3633 93.8965ZM72.7539 86.5234C70.166 86.5234 68.7012 85.1074 68.7012 82.5684L68.7012 45.9961C68.7012 43.457 70.166 42.041 72.7539 42.041L88.916 42.041C91.5039 42.041 92.9688 43.457 92.9688 45.9961L92.9688 82.5684C92.9688 85.1074 91.5039 86.5234 88.916 86.5234Z" fill="#000000" fill-opacity="0.85"/>
  <path d="M3.41797 110.205L109.814 110.205C111.719 110.205 113.184 108.545 113.184 106.641C113.184 104.736 111.719 103.027 109.814 103.027L3.41797 103.027C1.46484 103.027 0 104.736 0 106.641C0 108.545 1.46484 110.205 3.41797 110.205Z" fill="#000000" fill-opacity="0.85"/>
 </g>
</svg>
