<?xml version="1.0" encoding="UTF-8"?>
<!--Generator: Apple Native CoreSVG 232.5-->
<!DOCTYPE svg
PUBLIC "-//W3C//DTD SVG 1.1//EN"
       "http://www.w3.org/Graphics/SVG/1.1/DTD/svg11.dtd">
<svg version="1.1" xmlns="http://www.w3.org/2000/svg" xmlns:xlink="http://www.w3.org/1999/xlink" width="119.043" height="119.678">
 <g>
  <rect height="119.678" opacity="0" width="119.043" x="0" y="0"/>
  <path d="M39.502 101.123C51.2207 101.123 60.6934 91.6016 60.6934 79.834C60.6934 68.2129 51.1719 58.7402 39.502 58.7402C27.7832 58.7402 18.3105 68.2129 18.3105 79.834C18.3105 91.6016 27.7832 101.123 39.502 101.123ZM77.3438 66.3086C90.7715 66.3086 101.758 55.2734 101.758 41.7969C101.758 28.418 90.7715 17.4805 77.3438 17.4805C63.9648 17.4805 52.9297 28.418 52.9297 41.7969C52.9297 55.2734 63.9648 66.3086 77.3438 66.3086ZM55.7617 16.0645C58.5938 16.0645 60.8398 13.8184 60.8398 11.0352C60.8398 8.20312 58.5938 5.95703 55.7617 5.95703C52.9785 5.95703 50.7324 8.20312 50.7324 11.0352C50.7324 13.8184 52.9785 16.0645 55.7617 16.0645ZM83.3496 10.3027C86.1328 10.3027 88.4277 8.05664 88.4277 5.22461C88.4277 2.39258 86.1328 0.146484 83.3496 0.146484C80.5176 0.146484 78.2715 2.39258 78.2715 5.22461C78.2715 8.05664 80.5176 10.3027 83.3496 10.3027ZM108.203 25.3418C111.035 25.3418 113.281 23.0957 113.281 20.2637C113.281 17.4805 111.035 15.2344 108.203 15.2344C105.371 15.2344 103.125 17.4805 103.125 20.2637C103.125 23.0957 105.371 25.3418 108.203 25.3418ZM113.965 53.0273C116.797 53.0273 119.043 50.7812 119.043 47.998C119.043 45.166 116.797 42.9199 113.965 42.9199C111.182 42.9199 108.887 45.166 108.887 47.998C108.887 50.7812 111.182 53.0273 113.965 53.0273ZM98.9258 77.5879C101.758 77.5879 104.004 75.3418 104.004 72.5586C104.004 69.7266 101.758 67.4805 98.9258 67.4805C96.0938 67.4805 93.8477 69.7266 93.8477 72.5586C93.8477 75.3418 96.0938 77.5879 98.9258 77.5879ZM75 90.1367C77.832 90.1367 80.0781 87.8906 80.0781 85.0586C80.0781 82.2266 77.832 79.9805 75 79.9805C72.168 79.9805 69.9219 82.2266 69.9219 85.0586C69.9219 87.8906 72.168 90.1367 75 90.1367ZM60.498 112.5C63.3301 112.5 65.5762 110.254 65.5762 107.422C65.5762 104.639 63.3301 102.393 60.498 102.393C57.7148 102.393 55.4688 104.639 55.4688 107.422C55.4688 110.254 57.7148 112.5 60.498 112.5ZM34.2285 119.678C37.0605 119.678 39.3066 117.432 39.3066 114.6C39.3066 111.768 37.0605 109.521 34.2285 109.521C31.4453 109.521 29.1992 111.768 29.1992 114.6C29.1992 117.432 31.4453 119.678 34.2285 119.678ZM11.9629 105.811C14.7949 105.811 17.041 103.564 17.041 100.781C17.041 97.9492 14.7949 95.7031 11.9629 95.7031C9.13086 95.7031 6.88477 97.9492 6.88477 100.781C6.88477 103.564 9.13086 105.811 11.9629 105.811ZM5.07812 79.4922C7.91016 79.4922 10.1562 77.2461 10.1562 74.4141C10.1562 71.582 7.91016 69.3359 5.07812 69.3359C2.24609 69.3359 0 71.582 0 74.4141C0 77.2461 2.24609 79.4922 5.07812 79.4922ZM19.6777 56.1523C22.5098 56.1523 24.7559 53.9062 24.7559 51.0742C24.7559 48.2422 22.5098 45.9961 19.6777 45.9961C16.8457 45.9961 14.5996 48.2422 14.5996 51.0742C14.5996 53.9062 16.8457 56.1523 19.6777 56.1523ZM41.6992 40.918C44.5312 40.918 46.7773 38.6719 46.7773 35.8398C46.7773 33.0078 44.5312 30.7617 41.6992 30.7617C38.8672 30.7617 36.6211 33.0078 36.6211 35.8398C36.6211 38.6719 38.8672 40.918 41.6992 40.918Z" fill="#000000" fill-opacity="0.85"/>
 </g>
</svg>
