<?xml version="1.0" encoding="UTF-8"?>
<!--Generator: Apple Native CoreSVG 232.5-->
<!DOCTYPE svg
PUBLIC "-//W3C//DTD SVG 1.1//EN"
       "http://www.w3.org/Graphics/SVG/1.1/DTD/svg11.dtd">
<svg version="1.1" xmlns="http://www.w3.org/2000/svg" xmlns:xlink="http://www.w3.org/1999/xlink" width="99.707" height="89.502">
 <g>
  <rect height="89.502" opacity="0" width="99.707" x="0" y="0"/>
  <path d="M4.58984 89.502L28.125 89.502C32.3242 89.502 35.8398 87.207 37.5 83.3984L69.5312 11.1816C70.3125 9.57031 71.5332 8.83789 73.4863 8.83789L95.1172 8.83789C97.6562 8.83789 99.707 6.83594 99.707 4.39453C99.707 1.95312 97.6562 0 95.1172 0L71.2891 0C66.7969 0 63.8184 1.9043 62.0117 6.00586L29.834 78.2715C29.1016 79.8828 27.832 80.6641 26.0742 80.6641L4.58984 80.6641C2.00195 80.6641 0 82.6172 0 85.1074C0 87.5977 2.00195 89.502 4.58984 89.502ZM63.5254 89.502L95.1172 89.502C97.7051 89.502 99.6582 87.6465 99.6582 85.1562C99.6582 82.666 97.7051 80.7617 95.1172 80.7617L63.5254 80.7617C60.9375 80.7617 58.9355 82.666 58.9355 85.1562C58.9355 87.6465 60.9375 89.502 63.5254 89.502Z" fill="#000000" fill-opacity="0.85"/>
 </g>
</svg>
