<?xml version="1.0" encoding="UTF-8"?>
<!--Generator: Apple Native CoreSVG 232.5-->
<!DOCTYPE svg
PUBLIC "-//W3C//DTD SVG 1.1//EN"
       "http://www.w3.org/Graphics/SVG/1.1/DTD/svg11.dtd">
<svg version="1.1" xmlns="http://www.w3.org/2000/svg" xmlns:xlink="http://www.w3.org/1999/xlink" width="109.131" height="82.1777">
 <g>
  <rect height="82.1777" opacity="0" width="109.131" x="0" y="0"/>
  <path d="M0 78.2715C0 80.4199 1.80664 82.1777 3.90625 82.1777L105.176 82.1777C107.324 82.1777 109.131 80.4199 109.131 78.2715C109.131 76.123 107.324 74.3164 105.176 74.3164L13.4277 74.3164L80.7129 7.03125C82.2266 5.51758 82.2266 2.97852 80.7129 1.46484C79.1992-0.0488281 76.709-0.0488281 75.1465 1.46484L1.12305 75.4883C0.488281 76.1719 0 77.1973 0 78.2715ZM56.9336 78.125L64.7949 78.125C64.7949 61.4258 58.0078 46.2891 47.0703 35.3027L41.4551 40.8203C51.0254 50.3906 56.9336 63.5742 56.9336 78.125Z" fill="#000000" fill-opacity="0.85"/>
 </g>
</svg>
