<?xml version="1.0" encoding="UTF-8"?>
<!--Generator: Apple Native CoreSVG 232.5-->
<!DOCTYPE svg
PUBLIC "-//W3C//DTD SVG 1.1//EN"
       "http://www.w3.org/Graphics/SVG/1.1/DTD/svg11.dtd">
<svg version="1.1" xmlns="http://www.w3.org/2000/svg" xmlns:xlink="http://www.w3.org/1999/xlink" width="81.4019" height="118.604">
 <g>
  <rect height="118.604" opacity="0" width="81.4019" x="0" y="0"/>
  <path d="M40.6766 116.65C54.4949 116.65 66.5555 101.807 66.5555 85.8398C66.5555 83.3496 66.116 81.25 65.2371 79.541C66.6531 79.9316 68.0691 80.2734 69.4363 80.6641C72.8055 81.5918 73.782 82.9102 73.3426 85.8398L69.7781 109.229C69.3387 112.012 71.0476 113.672 73.3426 113.672C75.7351 113.672 76.8094 112.207 77.2 109.766L81.2039 84.4238C82.1316 78.7109 79.7879 75.5859 73.5379 74.1211L51.5164 68.9941L51.4676 68.5059C53.5672 67.4805 54.9832 65.4785 55.618 63.2812L70.6082 61.1328C76.7117 60.3027 79.4461 56.8848 79.4461 50.8789L79.4461 33.9844C79.4461 31.5918 78.0789 30.2246 75.7351 30.2246C73.3914 30.2246 72.0242 31.6406 72.0242 33.9844L72.0242 49.3652C72.0242 52.832 70.1687 53.9551 66.9949 54.3945L55.8133 55.9082C55.2762 54.3945 54.2996 53.0273 52.9812 52.1484L52.9812 51.6602C61.3308 50.1953 65.9695 45.1172 65.9695 37.6953C65.9695 31.4453 63.6258 25.7324 59.8172 21.3379L60.2566 20.9961C64.993 17.5781 65.8719 12.5488 62.7957 7.12891L59.9148 2.39258C58.9871 0.732422 57.9129 0 56.3992 0C54.3484 0 52.8836 1.46484 52.8836 3.36914C52.8836 4.24805 53.0301 4.73633 53.5672 5.71289L56.1062 9.57031C57.6687 12.1094 57.6687 14.3066 55.6668 16.0645C55.3738 16.3086 55.1297 16.5039 54.8367 16.6992C50.784 13.9648 45.9012 12.3535 40.6766 12.3535C35.5496 12.3535 30.7156 13.9648 26.7117 16.6504C26.4187 16.5039 26.1258 16.2598 25.8816 16.0156C23.9285 14.3066 23.8797 12.1094 25.491 9.57031L28.0301 5.71289C28.5672 4.73633 28.7137 4.24805 28.7137 3.36914C28.7137 1.46484 27.2 0 25.198 0C23.6844 0 22.6101 0.732422 21.6824 2.39258L18.8016 7.12891C15.7254 12.5488 16.6043 17.5781 21.3406 20.9961L21.6824 21.2402C17.825 25.6348 15.3836 31.3965 15.3836 37.6953C15.3836 45.1172 20.0711 50.1953 28.4207 51.6602L28.4207 52.1484C27.0535 53.0273 26.1258 54.3945 25.5887 55.9082L14.407 54.3945C11.1844 53.9551 9.37772 52.832 9.37772 49.3652L9.37772 33.9844C9.37772 31.6406 8.01054 30.2246 5.66679 30.2246C3.32304 30.2246 1.95585 31.5918 1.95585 33.9844L1.95585 50.8789C1.95585 56.8848 4.69022 60.3027 10.7937 61.1328L25.784 63.2812C26.4187 65.4785 27.7859 67.4805 29.9344 68.5059L29.9344 68.9941L7.86405 74.1211C1.56522 75.5859-0.729699 78.7109 0.198035 84.4238L4.20194 109.766C4.54374 112.207 5.66679 113.672 8.05936 113.672C10.3543 113.672 12.0633 112.012 11.6238 109.229L8.05936 85.8398C7.57108 82.9102 8.59647 81.5918 11.9656 80.6641C13.3328 80.2734 14.7488 79.9316 16.116 79.541C15.2859 81.25 14.8465 83.3496 14.8465 85.8398C14.8465 101.807 26.907 116.65 40.6766 116.65Z" fill="#000000" fill-opacity="0.85"/>
 </g>
</svg>
