<?xml version="1.0" encoding="UTF-8"?>
<!--Generator: Apple Native CoreSVG 232.5-->
<!DOCTYPE svg
PUBLIC "-//W3C//DTD SVG 1.1//EN"
       "http://www.w3.org/Graphics/SVG/1.1/DTD/svg11.dtd">
<svg version="1.1" xmlns="http://www.w3.org/2000/svg" xmlns:xlink="http://www.w3.org/1999/xlink" width="103.662" height="91.4702">
 <g>
  <rect height="91.4702" opacity="0" width="103.662" x="0" y="0"/>
  <path d="M0 34.7243C0 47.3708 4.58984 59.0896 12.6953 67.8786C14.5508 69.9294 17.2852 69.9294 18.8477 68.1228C20.4102 66.365 19.9219 64.0701 18.1641 62.0681C11.6211 54.7927 7.95898 45.2224 7.95898 34.7243C7.95898 24.2263 11.6211 14.656 18.1641 7.3806C19.9219 5.37865 20.4102 3.08372 18.8477 1.32591C17.2852-0.480728 14.5508-0.480728 12.6953 1.57005C4.58984 10.3591 0 22.0779 0 34.7243ZM84.8145 68.1228C86.377 69.9294 89.1113 69.9294 90.9668 67.8786C99.0723 59.0896 103.662 47.3708 103.662 34.7243C103.662 22.0779 99.0723 10.3591 90.9668 1.57005C89.1113-0.480728 86.377-0.480728 84.8145 1.32591C83.252 3.08372 83.7402 5.37865 85.498 7.3806C92.041 14.656 95.7031 24.2263 95.7031 34.7243C95.7031 45.2224 92.041 54.7927 85.498 62.0681C83.7402 64.0701 83.252 66.365 84.8145 68.1228Z" fill="#000000" fill-opacity="0.85"/>
  <path d="M20.5566 34.7243C20.5566 41.9021 22.998 48.5915 27.2461 53.865C28.9551 56.1111 31.8848 56.0622 33.4961 54.2068C35.0586 52.449 34.4238 50.2517 32.8613 48.1521C29.9316 44.5388 28.5156 39.8025 28.5156 34.7243C28.5156 29.6462 30.0781 25.0564 32.8613 21.2966C34.375 19.1482 35.0586 16.9997 33.4961 15.2419C31.8848 13.3865 28.9551 13.3376 27.2461 15.5837C22.998 20.8572 20.5566 27.5466 20.5566 34.7243ZM70.166 54.2068C71.7773 56.0622 74.707 56.1111 76.416 53.865C80.6641 48.5915 83.1055 41.9021 83.1055 34.7243C83.1055 27.5466 80.6641 20.8572 76.416 15.5837C74.707 13.3376 71.7773 13.3865 70.166 15.2419C68.6035 16.9997 69.2871 19.1482 70.8008 21.2966C73.584 25.0564 75.1465 29.6462 75.1465 34.7243C75.1465 39.8025 73.7305 44.5388 70.8008 48.1521C69.2383 50.2517 68.6035 52.449 70.166 54.2068Z" fill="#000000" fill-opacity="0.85"/>
  <path d="M43.0664 34.7243C43.0664 38.24 45.0684 41.2673 48.0957 42.6345L48.0957 86.531C48.0957 89.0212 49.6094 90.7302 51.8555 90.7302C54.1504 90.7302 55.5664 89.0701 55.5664 86.531L55.5664 42.6345C58.5449 41.2673 60.5957 38.1911 60.5957 34.7243C60.5957 29.8415 56.7383 25.8865 51.8555 25.8865C46.9238 25.8865 43.0664 29.8415 43.0664 34.7243Z" fill="#000000" fill-opacity="0.85"/>
 </g>
</svg>
