<?xml version="1.0" encoding="UTF-8"?>
<!--Generator: Apple Native CoreSVG 232.5-->
<!DOCTYPE svg
PUBLIC "-//W3C//DTD SVG 1.1//EN"
       "http://www.w3.org/Graphics/SVG/1.1/DTD/svg11.dtd">
<svg version="1.1" xmlns="http://www.w3.org/2000/svg" xmlns:xlink="http://www.w3.org/1999/xlink" width="99.6094" height="99.6582">
 <g>
  <rect height="99.6582" opacity="0" width="99.6094" x="0" y="0"/>
  <path d="M49.8047 99.6094C77.0508 99.6094 99.6094 77.002 99.6094 49.8047C99.6094 22.5586 77.002 0 49.7559 0C22.5586 0 0 22.5586 0 49.8047C0 77.002 22.6074 99.6094 49.8047 99.6094ZM49.8047 91.3086C26.7578 91.3086 8.34961 72.8516 8.34961 49.8047C8.34961 26.7578 26.709 8.30078 49.7559 8.30078C72.8027 8.30078 91.3086 26.7578 91.3086 49.8047C91.3086 72.8516 72.8516 91.3086 49.8047 91.3086Z" fill="#000000" fill-opacity="0.85"/>
  <path d="M19.0918 48.3398C19.0918 55.7617 21.7285 62.6953 26.6602 68.0176C27.8809 69.3848 29.834 69.4824 30.957 68.1641C32.0312 66.9922 31.8848 65.3809 30.6641 63.8672C26.8555 59.7656 24.8047 54.2969 24.8047 48.3398C24.8047 42.3828 26.8555 36.9629 30.6641 32.8125C31.8848 31.3477 32.0312 29.6875 31.0059 28.5156C29.834 27.1973 27.8809 27.2461 26.6602 28.6621C21.7773 33.9844 19.0918 40.918 19.0918 48.3398ZM74.7559 48.3398C74.7559 54.2969 72.7051 59.7656 68.8965 63.8672C67.627 65.3809 67.4805 66.9922 68.5547 68.1641C69.6777 69.4824 71.6309 69.3848 72.8516 68.0176C77.7832 62.6953 80.4688 55.7617 80.4688 48.3398C80.4688 40.918 77.7344 33.9844 72.8516 28.6621C71.6309 27.2461 69.6777 27.1973 68.5059 28.5156C67.4805 29.6875 67.627 31.3477 68.8965 32.8125C72.7051 36.9629 74.7559 42.3828 74.7559 48.3398Z" fill="#000000" fill-opacity="0.85"/>
  <path d="M31.0059 48.3398C31.0059 52.5391 32.4707 56.5918 35.0586 59.8145C36.1816 61.3281 38.3301 61.4258 39.502 60.0586C40.5273 58.9355 40.3809 57.4707 39.1602 55.8105C37.5488 53.8086 36.7188 51.2695 36.7188 48.3398C36.7188 45.5566 37.5977 42.9688 39.209 40.8203C40.3809 39.209 40.4785 37.7441 39.502 36.6211C38.2812 35.2539 36.1816 35.3516 35.0586 36.8652C32.4707 40.0879 31.0059 44.1406 31.0059 48.3398ZM62.793 48.3398C62.793 51.2695 61.9629 53.8086 60.3516 55.8105C59.1309 57.4707 58.9844 58.9355 60.0098 60.0586C61.1816 61.4258 63.3301 61.3281 64.4531 59.8145C67.041 56.5918 68.5059 52.5391 68.5059 48.3398C68.5059 44.1406 67.041 40.0879 64.4531 36.8652C63.3301 35.3516 61.2305 35.2539 60.0098 36.6211C59.0332 37.7441 59.1797 39.209 60.3516 40.8203C61.9141 42.9688 62.793 45.5566 62.793 48.3398Z" fill="#000000" fill-opacity="0.85"/>
  <path d="M44.0918 48.3398C44.0918 50.4883 45.3125 52.2949 47.0703 53.2227L47.0703 78.6133C47.0703 80.3223 48.1934 81.543 49.7559 81.543C51.3672 81.543 52.4902 80.3711 52.4902 78.6133L52.4902 53.2227C54.1992 52.2949 55.4199 50.4395 55.4199 48.3398C55.4199 45.166 52.9297 42.6758 49.7559 42.6758C46.6309 42.6758 44.0918 45.166 44.0918 48.3398Z" fill="#000000" fill-opacity="0.85"/>
 </g>
</svg>
