<?xml version="1.0" encoding="UTF-8"?>
<!--Generator: Apple Native CoreSVG 232.5-->
<!DOCTYPE svg
PUBLIC "-//W3C//DTD SVG 1.1//EN"
       "http://www.w3.org/Graphics/SVG/1.1/DTD/svg11.dtd">
<svg version="1.1" xmlns="http://www.w3.org/2000/svg" xmlns:xlink="http://www.w3.org/1999/xlink" width="50.7324" height="108.154">
 <g>
  <rect height="108.154" opacity="0" width="50.7324" x="0" y="0"/>
  <path d="M12.7441 107.861L38.0371 107.861C45.8008 107.861 50.7324 103.076 50.7324 95.7031L50.7324 12.1582C50.7324 4.78516 45.8008 0 38.0371 0L12.7441 0C4.93164 0 0 4.78516 0 12.1582L0 95.7031C0 103.076 4.93164 107.861 12.7441 107.861ZM13.5742 100.732C9.66797 100.732 7.22656 98.3887 7.22656 94.6777L7.22656 13.2324C7.22656 9.47266 9.66797 7.12891 13.5742 7.12891L37.1582 7.12891C41.0645 7.12891 43.5059 9.47266 43.5059 13.2324L43.5059 94.6777C43.5059 98.3887 41.0645 100.732 37.1582 100.732ZM17.4805 44.2871C20.6543 44.2871 23.1934 41.6992 23.1934 38.5742C23.1934 35.4492 20.6543 32.8613 17.4805 32.8613C14.3555 32.8613 11.7676 35.4492 11.7676 38.5742C11.7676 41.6992 14.3555 44.2871 17.4805 44.2871ZM33.3496 44.2871C36.4746 44.2871 39.0625 41.6992 39.0625 38.5742C39.0625 35.4492 36.4746 32.8613 33.3496 32.8613C30.1758 32.8613 27.6367 35.4492 27.6367 38.5742C27.6367 41.6992 30.1758 44.2871 33.3496 44.2871ZM17.4805 59.7656C20.6543 59.7656 23.1934 57.1777 23.1934 54.0527C23.1934 50.8789 20.6543 48.3398 17.4805 48.3398C14.3555 48.3398 11.7676 50.8789 11.7676 54.0527C11.7676 57.1777 14.3555 59.7656 17.4805 59.7656ZM17.4805 75.1953C20.6543 75.1953 23.1934 72.6562 23.1934 69.4824C23.1934 66.3574 20.6543 63.7695 17.4805 63.7695C14.3555 63.7695 11.7676 66.3574 11.7676 69.4824C11.7676 72.6562 14.3555 75.1953 17.4805 75.1953ZM33.3008 75.1953C36.3281 75.1953 38.8184 72.8027 38.8184 69.7266L38.8184 53.7598C38.8184 50.7324 36.3281 48.3398 33.3008 48.3398C30.3223 48.3398 27.9297 50.7324 27.9297 53.7598L27.9297 69.7266C27.9297 72.8027 30.3223 75.1953 33.3008 75.1953Z" fill="#000000" fill-opacity="0.85"/>
 </g>
</svg>
