<?xml version="1.0" encoding="UTF-8"?>
<!--Generator: Apple Native CoreSVG 232.5-->
<!DOCTYPE svg
PUBLIC "-//W3C//DTD SVG 1.1//EN"
       "http://www.w3.org/Graphics/SVG/1.1/DTD/svg11.dtd">
<svg version="1.1" xmlns="http://www.w3.org/2000/svg" xmlns:xlink="http://www.w3.org/1999/xlink" width="123.169" height="92.2242">
 <g>
  <rect height="92.2242" opacity="0" width="123.169" x="0" y="0"/>
  <path d="M0.866699 62.8846C-2.55127 71.2342 5.16357 75.1893 11.8042 70.4041C17.1753 66.449 22.5952 62.4939 27.9663 58.3924L26.0132 57.367C21.1304 64.0076 19.0796 69.8182 19.0796 74.408C19.0796 85.3455 30.2124 90.4725 41.7358 84.7107C44.7632 83.1971 43.689 75.9217 38.0737 78.4119C30.7495 81.6346 26.0132 80.0232 26.0132 74.0662C26.0132 68.4998 30.1147 59.076 39.3433 46.8689C42.2729 43.0115 37.5854 38.0311 33.5327 42.3279C25.7202 50.2381 14.9292 58.1482 5.65186 65.9607L7.1167 67.1814L29.1382 13.5193C30.603 9.90605 24.0112 6.53691 21.9116 11.5662Z" fill="#000000" fill-opacity="0.85"/>
  <path d="M47.4976 73.0896C46.7651 74.5057 48.2788 75.7752 49.4995 75.1404L56.7749 71.3318L51.4526 66.0096ZM53.6987 61.908L60.9741 69.1834L63.855 67.6697L121.375 10.3455C123.767 8.00176 123.767 4.14433 121.375 1.80058C118.982-0.591994 115.125-0.591994 112.781 1.75176L55.2612 59.076Z" fill="#000000" fill-opacity="0.85"/>
 </g>
</svg>
