<?xml version="1.0" encoding="UTF-8"?>
<!--Generator: Apple Native CoreSVG 232.5-->
<!DOCTYPE svg
PUBLIC "-//W3C//DTD SVG 1.1//EN"
       "http://www.w3.org/Graphics/SVG/1.1/DTD/svg11.dtd">
<svg version="1.1" xmlns="http://www.w3.org/2000/svg" xmlns:xlink="http://www.w3.org/1999/xlink" width="97.5098" height="97.2168">
 <g>
  <rect height="97.2168" opacity="0" width="97.5098" x="0" y="0"/>
  <path d="M26.0254 97.2168L71.4355 97.2168C79.7852 97.2168 86.8164 96.4355 91.7969 91.4551C96.7773 86.4746 97.5098 79.4922 97.5098 71.1426L97.5098 26.123C97.5098 17.7734 96.7773 10.8398 91.7969 5.85938C86.8164 0.878906 79.7852 0.0976562 71.4355 0.0976562L25.9277 0.0976562C17.7246 0.0976562 10.6934 0.878906 5.71289 5.85938C0.732422 10.8398 0 17.8223 0 26.0254L0 71.1426C0 79.4922 0.732422 86.4746 5.71289 91.4551C10.6934 96.4355 17.7246 97.2168 26.0254 97.2168ZM24.707 89.3555C19.6777 89.3555 14.4043 88.6719 11.4258 85.6934C8.49609 82.7637 7.86133 77.5391 7.86133 72.5098L7.86133 24.9512C7.86133 19.7754 8.49609 14.5508 11.4258 11.5723C14.4043 8.64258 19.7266 7.95898 24.8535 7.95898L72.8027 7.95898C77.832 7.95898 83.1055 8.64258 86.0352 11.6211C89.0137 14.5508 89.6484 19.7754 89.6484 24.8047L89.6484 72.5098C89.6484 77.5391 89.0137 82.7637 86.0352 85.6934C83.1055 88.6719 77.832 89.3555 72.8027 89.3555Z" fill="#000000" fill-opacity="0.85"/>
  <path d="M26.8066 37.9395C30.7617 38.3789 33.8379 34.0332 33.5938 30.5664C29.6387 30.7129 26.709 34.2285 26.8066 37.9395ZM40.2832 54.834C38.4277 54.0039 37.207 52.7832 36.5234 51.0254C35.791 49.1211 35.8887 47.168 36.5234 45.5078C36.8652 44.3848 37.5977 43.0176 39.502 41.8945C38.0859 39.7949 35.8398 38.7207 33.2031 38.7207C30.2246 38.7207 28.5156 40.2832 27.002 40.2832C25.7324 40.2832 24.3164 38.7695 21.9238 38.7695C19.3359 38.7695 17.2363 39.8438 15.8691 41.6016C14.209 43.6523 13.5254 46.1426 13.5254 48.7305C13.5254 52.9785 15.3809 57.959 18.1641 61.084C19.6777 62.6953 20.8008 63.5254 22.1191 63.5254C24.1211 63.5254 25.1953 62.0605 27.5879 62.0605C28.6621 62.0605 29.541 62.5 30.1758 62.6953C31.1523 63.0371 31.8359 63.4766 32.959 63.4766C34.1797 63.4766 35.1562 62.9883 35.791 62.4023C37.8906 60.3027 39.5996 57.3242 40.2832 54.834ZM53.6621 32.959L48.584 32.959L48.584 38.7207L45.0684 38.7207L45.0684 42.627L48.584 42.627L48.584 56.7871C48.584 61.7188 50.5371 63.4766 55.5176 63.4766C56.5918 63.4766 57.8125 63.3301 58.252 63.2812L58.252 59.1309C58.0078 59.2773 57.1289 59.2773 56.5918 59.2773C54.5898 59.2773 53.6621 58.4473 53.6621 56.2012L53.6621 42.627L58.3496 42.627L58.3496 38.7207L53.6621 38.7207ZM74.9023 63.2812L83.7891 38.7207L78.2715 38.7207L72.3145 58.4473L65.9668 38.7207L60.5957 38.7207L69.6289 63.2812Z" fill="#000000" fill-opacity="0.85"/>
 </g>
</svg>
