<?xml version="1.0" encoding="UTF-8"?>
<!--Generator: Apple Native CoreSVG 232.5-->
<!DOCTYPE svg
PUBLIC "-//W3C//DTD SVG 1.1//EN"
       "http://www.w3.org/Graphics/SVG/1.1/DTD/svg11.dtd">
<svg version="1.1" xmlns="http://www.w3.org/2000/svg" xmlns:xlink="http://www.w3.org/1999/xlink" width="134.863" height="112.256">
 <g>
  <rect height="112.256" opacity="0" width="134.863" x="0" y="0"/>
  <path d="M104.053 21.7773L104.053 22.6074L46.1426 22.6074C32.2266 22.6074 24.1699 30.6152 24.1699 44.3848L24.1699 82.959L22.0215 82.959C11.8164 82.959 6.68945 77.9297 6.68945 67.8223L6.68945 21.7773C6.68945 11.7188 11.8164 6.64062 22.0215 6.64062L88.7207 6.64062C98.9258 6.64062 104.053 11.7188 104.053 21.7773Z" fill="#000000" fill-opacity="0.85"/>
  <path d="M128.174 44.3848L128.174 90.4297C128.174 100.488 123.047 105.566 112.842 105.566L46.1426 105.566C35.9375 105.566 30.8105 100.537 30.8105 90.4297L30.8105 44.3848C30.8105 34.3262 35.9375 29.248 46.1426 29.248L112.842 29.248C123.047 29.248 128.174 34.3262 128.174 44.3848ZM68.6035 63.4766C67.041 63.4766 65.8203 64.6973 65.8203 66.2109C65.8203 67.8223 67.041 69.1406 68.6035 69.1406L84.8633 69.1406C86.4746 69.1406 87.6953 67.8223 87.6953 66.2109C87.6953 64.6973 86.4746 63.4766 84.8633 63.4766ZM47.7539 49.1211L57.959 55.3223L47.7539 61.4746C44.3359 63.5742 47.2656 68.7988 50.9766 66.4062L63.3301 58.6914C65.7715 57.1289 65.625 53.4668 63.3301 51.9531L50.9766 44.2383C47.2656 41.8945 44.2871 47.0703 47.7539 49.1211Z" fill="#000000" fill-opacity="0.85"/>
 </g>
</svg>
