<?xml version="1.0" encoding="UTF-8"?>
<!--Generator: Apple Native CoreSVG 232.5-->
<!DOCTYPE svg
PUBLIC "-//W3C//DTD SVG 1.1//EN"
       "http://www.w3.org/Graphics/SVG/1.1/DTD/svg11.dtd">
<svg version="1.1" xmlns="http://www.w3.org/2000/svg" xmlns:xlink="http://www.w3.org/1999/xlink" width="47.6562" height="107.959">
 <g>
  <rect height="107.959" opacity="0" width="47.6562" x="0" y="0"/>
  <path d="M11.7676 107.861L36.1816 107.861C43.4082 107.861 47.6562 103.613 47.6562 96.3867L47.6562 11.4746C47.6562 4.24805 43.4082 0 36.1816 0L11.7676 0C4.54102 0 0.292969 4.24805 0.292969 11.4746L0.292969 96.3867C0.292969 103.613 4.54102 107.861 11.7676 107.861ZM15.2832 42.1875C11.7676 42.1875 9.0332 39.3555 9.0332 35.9375C9.0332 32.4707 11.7676 29.6875 15.2832 29.6875C18.7012 29.6875 21.4844 32.4707 21.4844 35.9375C21.4844 39.3555 18.7012 42.1875 15.2832 42.1875ZM32.5684 42.1875C29.1016 42.1875 26.3184 39.3555 26.3184 35.9375C26.3184 32.4707 29.1016 29.6875 32.5684 29.6875C36.0352 29.6875 38.8184 32.4707 38.8184 35.9375C38.8184 39.3555 36.0352 42.1875 32.5684 42.1875ZM15.2832 60.2051C11.7676 60.2051 9.0332 57.373 9.0332 53.9551C9.0332 50.4883 11.7676 47.7051 15.2832 47.7051C18.7012 47.7051 21.4844 50.4883 21.4844 53.9551C21.4844 57.373 18.7012 60.2051 15.2832 60.2051ZM15.2832 78.1738C11.7676 78.1738 9.0332 75.4395 9.0332 71.9238C9.0332 68.5059 11.7676 65.6738 15.2832 65.6738C18.7012 65.6738 21.4844 68.5059 21.4844 71.9238C21.4844 75.4395 18.7012 78.1738 15.2832 78.1738ZM32.5195 78.1738C29.248 78.1738 26.6602 75.5859 26.6602 72.2168L26.6602 53.6621C26.6602 50.3418 29.248 47.7051 32.5195 47.7051C35.8398 47.7051 38.5742 50.3418 38.5742 53.6621L38.5742 72.2168C38.5742 75.5859 35.8398 78.1738 32.5195 78.1738Z" fill="#000000" fill-opacity="0.85"/>
 </g>
</svg>
