<?xml version="1.0" encoding="UTF-8"?>
<!--Generator: Apple Native CoreSVG 232.5-->
<!DOCTYPE svg
PUBLIC "-//W3C//DTD SVG 1.1//EN"
       "http://www.w3.org/Graphics/SVG/1.1/DTD/svg11.dtd">
<svg version="1.1" xmlns="http://www.w3.org/2000/svg" xmlns:xlink="http://www.w3.org/1999/xlink" width="97.5098" height="97.2168">
 <g>
  <rect height="97.2168" opacity="0" width="97.5098" x="0" y="0"/>
  <path d="M91.7969 5.85938C96.7773 10.8398 97.5098 17.7734 97.5098 26.123L97.5098 71.1426C97.5098 79.4922 96.7773 86.4746 91.7969 91.4551C86.8164 96.4355 79.7852 97.2168 71.4355 97.2168L26.0254 97.2168C17.7246 97.2168 10.6934 96.4355 5.71289 91.4551C0.732422 86.4746 0 79.4922 0 71.1426L0 26.0254C0 17.8223 0.732422 10.8398 5.71289 5.85938C10.6934 0.878906 17.7246 0.0976562 25.9277 0.0976562L71.4355 0.0976562C79.7852 0.0976562 86.8164 0.878906 91.7969 5.85938ZM26.3184 40.0879C25 40.0879 23.5352 38.5254 21.0938 38.5254C18.4082 38.5254 16.2598 39.5996 14.8438 41.4551C13.1348 43.5547 12.4512 46.0938 12.4512 48.7793C12.4512 53.1738 14.3555 58.3008 17.2363 61.5234C18.7988 63.1836 19.9219 64.0625 21.2891 64.0625C23.3398 64.0625 24.4629 62.5488 26.9531 62.5488C28.0273 62.5488 28.9551 62.9883 29.5898 63.1836C30.6152 63.5254 31.2988 63.9648 32.4707 63.9648C33.7402 63.9648 34.7168 63.4766 35.4004 62.8906C37.5488 60.6934 39.3066 57.666 40.0391 55.0781C38.0859 54.1992 36.8652 52.9785 36.1328 51.1719C35.4004 49.1699 35.498 47.168 36.1328 45.459C36.5234 44.2871 37.2559 42.8711 39.209 41.748C37.7441 39.5508 35.4492 38.4766 32.7148 38.4766C29.6387 38.4766 27.8809 40.0879 26.3184 40.0879ZM48.584 32.5195L48.584 38.4766L44.9707 38.4766L44.9707 42.4805L48.584 42.4805L48.584 57.0801C48.584 62.1582 50.5859 63.9648 55.7129 63.9648C56.8359 63.9648 58.1055 63.8184 58.5449 63.7695L58.5449 59.5215C58.3008 59.668 57.373 59.668 56.8359 59.668C54.7852 59.668 53.8086 58.7891 53.8086 56.4941L53.8086 42.4805L58.6426 42.4805L58.6426 38.4766L53.8086 38.4766L53.8086 32.5195ZM60.9863 38.4766L70.2637 63.7695L75.7324 63.7695L84.8633 38.4766L79.1992 38.4766L73.0469 58.7891L66.5039 38.4766ZM26.123 37.6465C30.2246 38.0859 33.3984 33.6426 33.1055 30.0293C29.0527 30.2246 26.0254 33.8379 26.123 37.6465Z" fill="#000000" fill-opacity="0.85"/>
 </g>
</svg>
