<?xml version="1.0" encoding="UTF-8"?>
<!--Generator: Apple Native CoreSVG 232.5-->
<!DOCTYPE svg
PUBLIC "-//W3C//DTD SVG 1.1//EN"
       "http://www.w3.org/Graphics/SVG/1.1/DTD/svg11.dtd">
<svg version="1.1" xmlns="http://www.w3.org/2000/svg" xmlns:xlink="http://www.w3.org/1999/xlink" width="109.131" height="104.541">
 <g>
  <rect height="104.541" opacity="0" width="109.131" x="0" y="0"/>
  <path d="M72.0703 4.63867L73.6816 9.91211C74.6582 13.1348 76.2207 14.9414 78.9062 16.3574C84.4238 19.4336 87.4023 24.9512 87.4023 32.5195L87.4023 33.252L88.0859 33.252C90.625 33.252 92.2852 34.9609 92.2852 37.7441L92.2852 44.3359C92.2852 47.1191 90.625 48.8281 88.0859 48.8281L87.4023 48.8281L87.4023 72.0215C87.4023 79.5898 84.4238 85.1562 78.9062 88.1836C76.2207 89.5996 74.6582 91.4062 73.6816 94.6777L72.0703 99.9023C71.1426 103.076 69.0918 104.541 65.7227 104.541L43.1641 104.541C39.8926 104.541 37.6953 103.027 36.7676 99.9023L35.2051 94.6777C34.2285 91.4062 32.666 89.5996 29.9805 88.1836C24.4629 85.1562 21.4844 79.5898 21.4844 72.0215L21.4844 62.3535L28.6133 62.3535L28.6133 70.9961C28.6133 78.2227 32.8613 82.6172 39.9902 82.6172L68.8965 82.6172C76.0254 82.6172 80.2734 78.2227 80.2734 70.9961L80.2734 33.5938C80.2734 26.3184 76.0254 21.9238 68.8965 21.9238L39.9902 21.9238C32.8613 21.9238 28.6133 26.3184 28.6133 33.5938L28.6133 42.041L21.4844 42.041L21.4844 32.5195C21.4844 24.8535 24.5117 19.2871 29.9805 16.3574C32.7148 14.9902 34.2773 13.0859 35.2051 9.91211L36.7676 4.63867C37.6953 1.51367 39.8926 0 43.1641 0L65.7227 0C69.043 0 71.2402 1.5625 72.0703 4.63867Z" fill="#000000" fill-opacity="0.85"/>
  <path d="M10.2051 55.6641L41.7969 55.6641L51.123 55.1758L40.4785 64.7461L38.0859 67.1387C37.4512 67.8223 37.0605 68.75 37.0605 69.7754C37.0605 71.7285 38.4766 73.0957 40.3809 73.0957C41.4062 73.0957 42.2852 72.7539 42.9688 72.0703L60.3027 54.7852C61.1328 53.9551 61.5723 53.0273 61.5723 52.1973C61.5723 51.3672 61.1328 50.3418 60.3027 49.5605L42.9688 32.3242C42.2852 31.6406 41.4062 31.25 40.3809 31.25C38.4766 31.25 37.0605 32.6172 37.0605 34.6191C37.0605 35.6445 37.4512 36.5723 38.0859 37.2559L40.4785 39.6484L51.123 49.1699L41.7969 48.6816L10.2051 48.6816C8.00781 48.6816 6.64062 50.3906 6.64062 52.1973C6.64062 54.0039 8.00781 55.6641 10.2051 55.6641Z" fill="#000000" fill-opacity="0.85"/>
 </g>
</svg>
