<?xml version="1.0" encoding="UTF-8"?>
<!--Generator: Apple Native CoreSVG 232.5-->
<!DOCTYPE svg
PUBLIC "-//W3C//DTD SVG 1.1//EN"
       "http://www.w3.org/Graphics/SVG/1.1/DTD/svg11.dtd">
<svg version="1.1" xmlns="http://www.w3.org/2000/svg" xmlns:xlink="http://www.w3.org/1999/xlink" width="84.528" height="121.338">
 <g>
  <rect height="121.338" opacity="0" width="84.528" x="0" y="0"/>
  <path d="M0.00325843 52.2461C-0.0943978 57.373 2.00521 62.0605 6.00912 66.0645L27.1517 87.2559C18.8021 92.8223 15.3841 98.0469 15.3841 104.883C15.3841 114.941 23.4408 121.045 31.9369 121.191C36.8197 121.289 41.263 119.434 44.2415 116.406L78.8607 81.6895C86.9173 73.6328 86.3314 64.0625 77.347 55.127L57.8646 35.6445L64.554 28.9062C67.8744 25.5859 69.8275 21.2891 69.7786 17.041C69.9251 7.4707 62.5521 0.0488281 52.8841 0C47.4642 0 43.265 1.95312 38.6263 6.68945L5.03256 40.1855C1.8099 43.3594 0.0520866 47.6074 0.00325843 52.2461ZM20.1693 36.1816L44.1439 12.207C47.3665 8.98438 49.5638 7.86133 52.8841 7.86133C58.2064 7.86133 62.015 11.6699 62.015 16.9434C62.015 19.1406 60.8919 21.4844 59.0365 23.3887L33.1087 49.2676C32.2786 42.1875 27.5423 37.3535 20.1693 36.1816ZM8.15756 52.9297C8.15756 47.2656 11.6244 43.457 16.8001 43.457C22.1712 43.457 25.8822 47.3633 25.8822 53.2715C25.8822 53.9551 25.8822 56.0059 25.0033 58.3496C23.6361 62.4512 28.6165 64.9414 31.5951 61.8652L52.2982 41.2109L71.8294 60.6445C77.7865 66.6016 78.1771 71.2891 73.3431 76.1719L48.1966 101.318C47.4642 97.2656 45.0716 94.1406 40.14 89.209L13.3333 62.2559C9.37826 58.3008 8.15756 56.0059 8.15756 52.9297ZM23.2454 105.322C23.2454 100.635 25.9798 97.168 32.8646 92.9688L34.6224 94.7266C39.554 99.707 40.9212 101.904 40.9701 105.322C40.9701 109.717 36.9661 113.281 31.9369 113.281C27.3958 113.281 23.2454 110.059 23.2454 105.322Z" fill="#000000" fill-opacity="0.85"/>
 </g>
</svg>
