<?xml version="1.0" encoding="UTF-8"?>
<!--Generator: Apple Native CoreSVG 232.5-->
<!DOCTYPE svg
PUBLIC "-//W3C//DTD SVG 1.1//EN"
       "http://www.w3.org/Graphics/SVG/1.1/DTD/svg11.dtd">
<svg version="1.1" xmlns="http://www.w3.org/2000/svg" xmlns:xlink="http://www.w3.org/1999/xlink" width="62.793" height="103.467">
 <g>
  <rect height="103.467" opacity="0" width="62.793" x="0" y="0"/>
  <path d="M13.2812 103.369L49.5117 103.369C57.4707 103.369 62.793 98.291 62.793 90.6738L62.793 12.6953C62.793 5.07812 57.4707 0 49.5117 0L13.2812 0C5.32227 0 0 5.07812 0 12.6953L0 90.6738C0 98.291 5.32227 103.369 13.2812 103.369ZM14.3066 95.5078C10.1562 95.5078 7.86133 93.3105 7.86133 89.4043L7.86133 13.9648C7.86133 10.0586 10.1562 7.86133 14.3066 7.86133L48.5352 7.86133C52.6367 7.86133 54.9316 10.0586 54.9316 13.9648L54.9316 89.4043C54.9316 93.3105 52.6367 95.5078 48.5352 95.5078Z" fill="#000000" fill-opacity="0.85"/>
  <path d="M16.6504 88.8672L21.2402 88.8672C22.3145 88.8672 23.1445 88.1348 23.1445 87.1094L23.1445 82.373C23.1445 81.3477 22.3145 80.6152 21.2402 80.6152L16.6504 80.6152C15.5762 80.6152 14.8438 81.3477 14.8438 82.373L14.8438 87.1094C14.8438 88.1348 15.5762 88.8672 16.6504 88.8672ZM29.0039 88.8672L33.6426 88.8672C34.7168 88.8672 35.5469 88.1348 35.5469 87.1094L35.5469 82.373C35.5469 81.3477 34.7168 80.6152 33.6426 80.6152L29.0039 80.6152C27.9785 80.6152 27.2461 81.3477 27.2461 82.373L27.2461 87.1094C27.2461 88.1348 27.9785 88.8672 29.0039 88.8672ZM41.4062 88.8672L45.9961 88.8672C47.1191 88.8672 47.9004 88.1348 47.9004 87.1094L47.9004 82.373C47.9004 81.3477 47.1191 80.6152 45.9961 80.6152L41.4062 80.6152C40.3809 80.6152 39.6484 81.3477 39.6484 82.373L39.6484 87.1094C39.6484 88.1348 40.3809 88.8672 41.4062 88.8672ZM16.6504 49.6094L21.2402 49.6094C22.3145 49.6094 23.1445 48.877 23.1445 47.8027L23.1445 43.1152C23.1445 42.041 22.3145 41.3086 21.2402 41.3086L16.6504 41.3086C15.5762 41.3086 14.8438 42.041 14.8438 43.1152L14.8438 47.8027C14.8438 48.877 15.5762 49.6094 16.6504 49.6094ZM29.0039 49.6094L33.6426 49.6094C34.7168 49.6094 35.5469 48.877 35.5469 47.8027L35.5469 43.1152C35.5469 42.041 34.7168 41.3086 33.6426 41.3086L29.0039 41.3086C27.9785 41.3086 27.2461 42.041 27.2461 43.1152L27.2461 47.8027C27.2461 48.877 27.9785 49.6094 29.0039 49.6094ZM16.6504 36.3281L21.2402 36.3281C22.3145 36.3281 23.1445 35.5957 23.1445 34.5703L23.1445 29.834C23.1445 28.7598 22.3145 28.0273 21.2402 28.0273L16.6504 28.0273C15.5762 28.0273 14.8438 28.7598 14.8438 29.834L14.8438 34.5703C14.8438 35.5957 15.5762 36.3281 16.6504 36.3281ZM29.0039 36.3281L33.6426 36.3281C34.7168 36.3281 35.5469 35.5957 35.5469 34.5703L35.5469 29.834C35.5469 28.7598 34.7168 28.0273 33.6426 28.0273L29.0039 28.0273C27.9785 28.0273 27.2461 28.7598 27.2461 29.834L27.2461 34.5703C27.2461 35.5957 27.9785 36.3281 29.0039 36.3281ZM41.4062 36.3281L45.9961 36.3281C47.1191 36.3281 47.9004 35.5957 47.9004 34.5703L47.9004 29.834C47.9004 28.7598 47.1191 28.0273 45.9961 28.0273L41.4062 28.0273C40.3809 28.0273 39.6484 28.7598 39.6484 29.834L39.6484 34.5703C39.6484 35.5957 40.3809 36.3281 41.4062 36.3281ZM16.6504 23.0957L21.2402 23.0957C22.3145 23.0957 23.1445 22.3633 23.1445 21.2891L23.1445 16.6016C23.1445 15.5273 22.3145 14.7949 21.2402 14.7949L16.6504 14.7949C15.5762 14.7949 14.8438 15.5273 14.8438 16.6016L14.8438 21.2891C14.8438 22.3633 15.5762 23.0957 16.6504 23.0957ZM29.0039 23.0957L33.6426 23.0957C34.7168 23.0957 35.5469 22.3633 35.5469 21.2891L35.5469 16.6016C35.5469 15.5273 34.7168 14.7949 33.6426 14.7949L29.0039 14.7949C27.9785 14.7949 27.2461 15.5273 27.2461 16.6016L27.2461 21.2891C27.2461 22.3633 27.9785 23.0957 29.0039 23.0957ZM41.4062 23.0957L45.9961 23.0957C47.1191 23.0957 47.9004 22.3633 47.9004 21.2891L47.9004 16.6016C47.9004 15.5273 47.1191 14.7949 45.9961 14.7949L41.4062 14.7949C40.3809 14.7949 39.6484 15.5273 39.6484 16.6016L39.6484 21.2891C39.6484 22.3633 40.3809 23.0957 41.4062 23.0957Z" fill="#000000" fill-opacity="0.85"/>
 </g>
</svg>
