<?xml version="1.0" encoding="UTF-8"?>
<!--Generator: Apple Native CoreSVG 232.5-->
<!DOCTYPE svg
PUBLIC "-//W3C//DTD SVG 1.1//EN"
       "http://www.w3.org/Graphics/SVG/1.1/DTD/svg11.dtd">
<svg version="1.1" xmlns="http://www.w3.org/2000/svg" xmlns:xlink="http://www.w3.org/1999/xlink" width="103.418" height="62.9395">
 <g>
  <rect height="62.9395" opacity="0" width="103.418" x="0" y="0"/>
  <path d="M12.6953 62.8418L90.6738 62.8418C98.291 62.8418 103.418 57.4707 103.418 49.5117L103.418 13.2812C103.418 5.32227 98.3398 0 90.7227 0L12.7441 0C5.12695 0 0 5.32227 0 13.2812L0 49.5117C0 57.4707 5.07812 62.8418 12.6953 62.8418ZM13.9648 54.9805C10.0586 54.9805 7.86133 52.6367 7.86133 48.5352L7.86133 14.3066C7.86133 10.2051 10.0586 7.86133 13.9648 7.86133L89.4531 7.86133C93.3594 7.86133 95.5566 10.2051 95.5566 14.3066L95.5566 48.5352C95.5566 52.6367 93.3594 54.9805 89.4043 54.9805Z" fill="#000000" fill-opacity="0.85"/>
  <path d="M16.6016 23.1934L21.3379 23.1934C22.3633 23.1934 23.0957 22.4609 23.0957 21.3867L23.0957 16.7969C23.0957 15.6738 22.3633 14.8926 21.3379 14.8926L16.6016 14.8926C15.5762 14.8926 14.8438 15.6738 14.8438 16.7969L14.8438 21.3867C14.8438 22.4609 15.5762 23.1934 16.6016 23.1934ZM29.8828 23.1934L34.5703 23.1934C35.5957 23.1934 36.377 22.4609 36.377 21.3867L36.377 16.7969C36.377 15.6738 35.6445 14.8926 34.5703 14.8926L29.8828 14.8926C28.8086 14.8926 28.0762 15.6738 28.0762 16.7969L28.0762 21.3867C28.0762 22.4609 28.8086 23.1934 29.8828 23.1934ZM43.1152 23.1934L47.8027 23.1934C48.877 23.1934 49.6094 22.4609 49.6094 21.3867L49.6094 16.7969C49.6094 15.6738 48.877 14.8926 47.8027 14.8926L43.1152 14.8926C42.041 14.8926 41.3086 15.6738 41.3086 16.7969L41.3086 21.3867C41.3086 22.4609 42.041 23.1934 43.1152 23.1934ZM56.3477 23.1934L61.084 23.1934C62.1094 23.1934 62.8418 22.4609 62.8418 21.3867L62.8418 16.7969C62.8418 15.6738 62.1094 14.8926 61.084 14.8926L56.3477 14.8926C55.3223 14.8926 54.5898 15.6738 54.5898 16.7969L54.5898 21.3867C54.5898 22.4609 55.3223 23.1934 56.3477 23.1934ZM16.6016 35.5957L21.3379 35.5957C22.3633 35.5957 23.0957 34.8633 23.0957 33.7891L23.0957 29.1992C23.0957 28.0762 22.3633 27.2949 21.3379 27.2949L16.6016 27.2949C15.5762 27.2949 14.8438 28.0762 14.8438 29.1992L14.8438 33.7891C14.8438 34.8633 15.5762 35.5957 16.6016 35.5957ZM29.8828 35.5957L34.5703 35.5957C35.5957 35.5957 36.377 34.8633 36.377 33.7891L36.377 29.1992C36.377 28.0762 35.6445 27.2949 34.5703 27.2949L29.8828 27.2949C28.8086 27.2949 28.0762 28.0762 28.0762 29.1992L28.0762 33.7891C28.0762 34.8633 28.8086 35.5957 29.8828 35.5957ZM43.1641 35.5957L47.8027 35.5957C48.9258 35.5957 49.6582 34.8633 49.6582 33.7891L49.6582 29.1992C49.6582 28.0762 48.9258 27.2949 47.8027 27.2949L43.1641 27.2949C42.041 27.2949 41.3086 28.0762 41.3086 29.1992L41.3086 33.7891C41.3086 34.8633 42.041 35.5957 43.1641 35.5957ZM82.4219 23.1934L87.1094 23.1934C88.1836 23.1934 88.916 22.4609 88.916 21.3867L88.916 16.7969C88.916 15.6738 88.1836 14.8926 87.1582 14.8926L82.4219 14.8926C81.3965 14.8926 80.6641 15.6738 80.6641 16.7969L80.6641 21.3867C80.6641 22.4609 81.3477 23.1934 82.4219 23.1934ZM82.4219 35.5957L87.1582 35.5957C88.1836 35.5957 88.916 34.8633 88.916 33.7891L88.916 29.1992C88.916 28.0762 88.1836 27.2949 87.1582 27.2949L82.4219 27.2949C81.3965 27.2949 80.6641 28.0762 80.6641 29.1992L80.6641 33.7891C80.6641 34.8633 81.3965 35.5957 82.4219 35.5957ZM82.4219 47.9492L87.1094 47.9492C88.1836 47.9492 88.916 47.2168 88.916 46.1914L88.916 41.6016C88.916 40.4785 88.1836 39.6973 87.1582 39.6973L82.4219 39.6973C81.3965 39.6973 80.6641 40.4785 80.6641 41.6016L80.6641 46.1914C80.6641 47.2168 81.3965 47.9492 82.4219 47.9492Z" fill="#000000" fill-opacity="0.85"/>
 </g>
</svg>
