<?xml version="1.0" encoding="UTF-8"?>
<!--Generator: Apple Native CoreSVG 232.5-->
<!DOCTYPE svg
PUBLIC "-//W3C//DTD SVG 1.1//EN"
       "http://www.w3.org/Graphics/SVG/1.1/DTD/svg11.dtd">
<svg version="1.1" xmlns="http://www.w3.org/2000/svg" xmlns:xlink="http://www.w3.org/1999/xlink" width="115.137" height="89.9902">
 <g>
  <rect height="89.9902" opacity="0" width="115.137" x="0" y="0"/>
  <path d="M15.332 89.9902L99.8047 89.9902C110.059 89.9902 115.137 84.9121 115.137 74.8535L115.137 15.2344C115.137 5.17578 110.059 0.0976562 99.8047 0.0976562L15.332 0.0976562C5.12695 0.0976562 0 5.12695 0 15.2344L0 74.8535C0 84.9609 5.12695 89.9902 15.332 89.9902ZM15.4297 82.1289C10.5469 82.1289 7.86133 79.541 7.86133 74.4629L7.86133 15.625C7.86133 10.5469 10.5469 7.95898 15.4297 7.95898L99.707 7.95898C104.541 7.95898 107.275 10.5469 107.275 15.625L107.275 74.4629C107.275 79.541 104.541 82.1289 99.707 82.1289Z" fill="#000000" fill-opacity="0.85"/>
  <path d="M19.9219 26.9043L24.7559 26.9043C26.1719 26.9043 27.2949 25.9277 27.2949 24.5605L27.2949 19.5801C27.2949 18.1641 26.1719 17.2363 24.7559 17.2363L19.9219 17.2363C18.6035 17.2363 17.5781 18.2129 17.5781 19.5801L17.5781 24.5605C17.5781 25.8789 18.6035 26.9043 19.9219 26.9043ZM37.5 26.9043L42.334 26.9043C43.7988 26.9043 44.873 25.9277 44.873 24.5605L44.873 19.5801C44.873 18.1641 43.7988 17.2363 42.334 17.2363L37.5 17.2363C36.1816 17.2363 35.1562 18.2129 35.1562 19.5801L35.1562 24.5605C35.1562 25.8789 36.1816 26.9043 37.5 26.9043ZM55.0781 26.9043L59.9121 26.9043C61.3281 26.9043 62.4023 25.9277 62.4023 24.5605L62.4023 19.5801C62.4023 18.1641 61.3281 17.2363 59.9121 17.2363L55.0781 17.2363C53.7109 17.2363 52.7344 18.2129 52.7344 19.5801L52.7344 24.5605C52.7344 25.8789 53.7109 26.9043 55.0781 26.9043ZM72.6074 26.9043L77.4414 26.9043C78.9062 26.9043 79.9805 25.9277 79.9805 24.5605L79.9805 19.5801C79.9805 18.1641 78.9062 17.2363 77.4414 17.2363L72.6074 17.2363C71.2891 17.2363 70.2637 18.2129 70.2637 19.5801L70.2637 24.5605C70.2637 25.8789 71.2891 26.9043 72.6074 26.9043ZM90.1855 26.9043L95.0195 26.9043C96.4355 26.9043 97.5098 25.9277 97.5098 24.5605L97.5098 19.5801C97.5098 18.1641 96.4355 17.2363 95.0195 17.2363L90.1855 17.2363C88.8184 17.2363 87.8418 18.2129 87.8418 19.5801L87.8418 24.5605C87.8418 25.8789 88.8184 26.9043 90.1855 26.9043ZM19.9219 43.0176L24.7559 43.0176C26.1719 43.0176 27.2949 42.041 27.2949 40.6738L27.2949 35.6934C27.2949 34.2773 26.1719 33.3496 24.7559 33.3496L19.9219 33.3496C18.6035 33.3496 17.5781 34.3262 17.5781 35.6934L17.5781 40.6738C17.5781 41.9922 18.6035 43.0176 19.9219 43.0176ZM37.5 43.0176L42.334 43.0176C43.7988 43.0176 44.873 42.041 44.873 40.6738L44.873 35.6934C44.873 34.2773 43.7988 33.3496 42.334 33.3496L37.5 33.3496C36.1816 33.3496 35.1562 34.3262 35.1562 35.6934L35.1562 40.6738C35.1562 41.9922 36.1816 43.0176 37.5 43.0176ZM55.0781 43.0176L59.9121 43.0176C61.3281 43.0176 62.4023 42.041 62.4023 40.6738L62.4023 35.6934C62.4023 34.2773 61.3281 33.3496 59.9121 33.3496L55.0781 33.3496C53.7109 33.3496 52.7344 34.3262 52.7344 35.6934L52.7344 40.6738C52.7344 41.9922 53.7109 43.0176 55.0781 43.0176ZM72.6074 43.0176L77.4414 43.0176C78.9062 43.0176 79.9805 42.041 79.9805 40.6738L79.9805 35.6934C79.9805 34.2773 78.9062 33.3496 77.4414 33.3496L72.6074 33.3496C71.2891 33.3496 70.2637 34.3262 70.2637 35.6934L70.2637 40.6738C70.2637 41.9922 71.2891 43.0176 72.6074 43.0176ZM19.9219 72.8516L24.7559 72.8516C26.1719 72.8516 27.2949 71.875 27.2949 70.5078L27.2949 65.5273C27.2949 64.1113 26.1719 63.1348 24.7559 63.1348L19.9219 63.1348C18.6035 63.1348 17.5781 64.1602 17.5781 65.5273L17.5781 70.5078C17.5781 71.8262 18.6035 72.8516 19.9219 72.8516ZM37.5 72.8516L42.334 72.8516C43.7988 72.8516 44.873 71.875 44.873 70.5078L44.873 65.5273C44.873 64.1113 43.7988 63.1348 42.334 63.1348L37.5 63.1348C36.1816 63.1348 35.1562 64.1602 35.1562 65.5273L35.1562 70.5078C35.1562 71.8262 36.1816 72.8516 37.5 72.8516ZM55.0781 72.8516L59.9121 72.8516C61.3281 72.8516 62.4023 71.875 62.4023 70.5078L62.4023 65.5273C62.4023 64.1113 61.3281 63.1348 59.9121 63.1348L55.0781 63.1348C53.7109 63.1348 52.7344 64.1602 52.7344 65.5273L52.7344 70.5078C52.7344 71.8262 53.7109 72.8516 55.0781 72.8516ZM72.6074 72.8516L77.4414 72.8516C78.9062 72.8516 79.9805 71.875 79.9805 70.5078L79.9805 65.5273C79.9805 64.1113 78.9062 63.1348 77.4414 63.1348L72.6074 63.1348C71.2891 63.1348 70.2637 64.1602 70.2637 65.5273L70.2637 70.5078C70.2637 71.8262 71.2891 72.8516 72.6074 72.8516ZM90.1855 72.8516L95.0195 72.8516C96.4355 72.8516 97.5098 71.875 97.5098 70.5078L97.5098 65.5273C97.5098 64.1113 96.4355 63.1348 95.0195 63.1348L90.1855 63.1348C88.8184 63.1348 87.8418 64.1602 87.8418 65.5273L87.8418 70.5078C87.8418 71.8262 88.8184 72.8516 90.1855 72.8516Z" fill="#000000" fill-opacity="0.85"/>
 </g>
</svg>
