<?xml version="1.0" encoding="UTF-8"?>
<!--Generator: Apple Native CoreSVG 232.5-->
<!DOCTYPE svg
PUBLIC "-//W3C//DTD SVG 1.1//EN"
       "http://www.w3.org/Graphics/SVG/1.1/DTD/svg11.dtd">
<svg version="1.1" xmlns="http://www.w3.org/2000/svg" xmlns:xlink="http://www.w3.org/1999/xlink" width="81.5918" height="110.107">
 <g>
  <rect height="110.107" opacity="0" width="81.5918" x="0" y="0"/>
  <path d="M13.5254 110.01L68.0664 110.01C76.1719 110.01 81.5918 104.834 81.5918 97.1191L81.5918 12.9395C81.5918 5.22461 76.1719 0 68.0664 0L13.5254 0C5.41992 0 0 5.22461 0 12.9395L0 97.1191C0 104.834 5.41992 110.01 13.5254 110.01ZM14.502 102.148C10.3027 102.148 7.86133 99.8047 7.86133 95.8008L7.86133 14.2578C7.86133 10.2539 10.3027 7.86133 14.502 7.86133L67.0898 7.86133C71.2402 7.86133 73.7305 10.2539 73.7305 14.2578L73.7305 95.8008C73.7305 99.8047 71.2402 102.148 67.0898 102.148Z" fill="#000000" fill-opacity="0.85"/>
  <path d="M18.5547 25.3418L22.8027 25.3418C24.0723 25.3418 25.0977 24.4629 25.0977 23.291L25.0977 18.8477C25.0977 17.627 24.0723 16.748 22.8027 16.748L18.5547 16.748C17.3828 16.748 16.5039 17.6758 16.5039 18.8477L16.5039 23.291C16.5039 24.4141 17.3828 25.3418 18.5547 25.3418ZM31.9824 25.3418L36.2305 25.3418C37.5 25.3418 38.4277 24.4629 38.4277 23.291L38.4277 18.8477C38.4277 17.627 37.5 16.748 36.2305 16.748L31.9824 16.748C30.8105 16.748 29.8828 17.6758 29.8828 18.8477L29.8828 23.291C29.8828 24.4141 30.8105 25.3418 31.9824 25.3418ZM45.3125 25.3418L49.6094 25.3418C50.8789 25.3418 51.8555 24.4629 51.8555 23.291L51.8555 18.8477C51.8555 17.627 50.8789 16.748 49.6094 16.748L45.3125 16.748C44.1406 16.748 43.2617 17.6758 43.2617 18.8477L43.2617 23.291C43.2617 24.4141 44.1406 25.3418 45.3125 25.3418ZM58.6914 25.3418L62.9883 25.3418C64.3066 25.3418 65.1855 24.4629 65.1855 23.291L65.1855 18.8477C65.1855 17.627 64.3066 16.748 62.9883 16.748L58.6914 16.748C57.5195 16.748 56.6406 17.6758 56.6406 18.8477L56.6406 23.291C56.6406 24.4141 57.5195 25.3418 58.6914 25.3418ZM18.5547 38.5254L22.8027 38.5254C24.0723 38.5254 25.0977 37.5977 25.0977 36.377L25.0977 31.9824C25.0977 30.7617 24.0723 29.9316 22.8027 29.9316L18.5547 29.9316C17.3828 29.9316 16.5039 30.8105 16.5039 31.9824L16.5039 36.377C16.5039 37.5977 17.3828 38.5254 18.5547 38.5254ZM31.9824 38.5254L36.2305 38.5254C37.5 38.5254 38.4277 37.5977 38.4277 36.377L38.4277 31.9824C38.4277 30.7617 37.5 29.9316 36.2305 29.9316L31.9824 29.9316C30.8105 29.9316 29.834 30.8105 29.834 31.9824L29.834 36.377C29.834 37.5977 30.8105 38.5254 31.9824 38.5254ZM45.3125 38.5254L49.6094 38.5254C50.8789 38.5254 51.8555 37.5977 51.8555 36.4258L51.8555 31.9824C51.8555 30.7617 50.8789 29.9316 49.6094 29.9316L45.3125 29.9316C44.1406 29.9316 43.2617 30.8105 43.2617 31.9824L43.2617 36.4258C43.2617 37.5977 44.1406 38.5254 45.3125 38.5254ZM58.6914 38.5254L62.9883 38.5254C64.3066 38.5254 65.1855 37.5977 65.1855 36.4258L65.1855 31.9824C65.1855 30.7617 64.3066 29.9316 62.9883 29.9316L58.6914 29.9316C57.5195 29.9316 56.6406 30.8105 56.6406 31.9824L56.6406 36.4258C56.6406 37.5977 57.5195 38.5254 58.6914 38.5254ZM18.5547 51.6602L22.8027 51.6602C24.0723 51.6602 25.0977 50.8301 25.0977 49.6094L25.0977 45.2148C25.0977 43.9941 24.0723 43.0664 22.8027 43.0664L18.5547 43.0664C17.3828 43.0664 16.5039 43.9941 16.5039 45.2148L16.5039 49.6094C16.5039 50.7812 17.3828 51.6602 18.5547 51.6602ZM31.9824 51.6602L36.2305 51.6602C37.5 51.6602 38.4277 50.8301 38.4277 49.6094L38.4277 45.2148C38.4277 43.9941 37.5 43.0664 36.2305 43.0664L31.9824 43.0664C30.8105 43.0664 29.834 43.9941 29.834 45.2148L29.834 49.6094C29.834 50.7812 30.8105 51.6602 31.9824 51.6602ZM18.5547 93.2617L22.8027 93.2617C24.0723 93.2617 25.0977 92.4316 25.0977 91.2109L25.0977 86.7676C25.0977 85.5469 24.0723 84.7168 22.8027 84.7168L18.5547 84.7168C17.3828 84.7168 16.5039 85.5957 16.5039 86.7676L16.5039 91.2109C16.5039 92.3828 17.3828 93.2617 18.5547 93.2617ZM31.9824 93.2617L36.2305 93.2617C37.5 93.2617 38.4277 92.4316 38.4277 91.2109L38.4277 86.7676C38.4277 85.5469 37.5 84.7168 36.2305 84.7168L31.9824 84.7168C30.8105 84.7168 29.834 85.5957 29.834 86.7676L29.834 91.2109C29.834 92.3828 30.8105 93.2617 31.9824 93.2617ZM45.3125 93.2617L49.6582 93.2617C50.8789 93.2617 51.8555 92.4316 51.8555 91.2109L51.8555 86.7676C51.8555 85.5469 50.8789 84.7168 49.6582 84.7168L45.3125 84.7168C44.1406 84.7168 43.2617 85.5957 43.2617 86.7676L43.2617 91.2109C43.2617 92.3828 44.1406 93.2617 45.3125 93.2617ZM58.6914 93.2617L62.9883 93.2617C64.3066 93.2617 65.1855 92.4316 65.1855 91.2109L65.1855 86.7676C65.1855 85.5469 64.3066 84.7168 62.9883 84.7168L58.6914 84.7168C57.5195 84.7168 56.6895 85.5957 56.6895 86.7676L56.6895 91.2109C56.6895 92.3828 57.5195 93.2617 58.6914 93.2617Z" fill="#000000" fill-opacity="0.85"/>
 </g>
</svg>
