<?xml version="1.0" encoding="UTF-8"?>
<!--Generator: Apple Native CoreSVG 232.5-->
<!DOCTYPE svg
PUBLIC "-//W3C//DTD SVG 1.1//EN"
       "http://www.w3.org/Graphics/SVG/1.1/DTD/svg11.dtd">
<svg version="1.1" xmlns="http://www.w3.org/2000/svg" xmlns:xlink="http://www.w3.org/1999/xlink" width="160.303" height="130.811">
 <g>
  <rect height="130.811" opacity="0" width="160.303" x="0" y="0"/>
  <path d="M86.5723 119.531C86.5723 123.145 83.7402 125.928 80.127 125.928C76.5625 125.928 73.7305 123.096 73.7305 119.531C73.7305 116.016 76.6113 113.135 80.127 113.135C83.6914 113.135 86.5723 115.967 86.5723 119.531ZM63.2324 106.104C63.2324 109.717 60.4492 112.5 56.8359 112.5C53.2715 112.5 50.3906 109.668 50.3906 106.104C50.3906 102.588 53.3203 99.6582 56.8359 99.6582C60.4004 99.6582 63.2324 102.539 63.2324 106.104ZM39.9414 92.4316C39.9414 96.0938 37.1094 98.877 33.4961 98.877C29.9316 98.877 27.0996 96.0449 27.0996 92.4316C27.0996 88.9648 30.0293 86.0352 33.4961 86.0352C37.0605 86.0352 39.9414 88.916 39.9414 92.4316ZM39.9414 65.3809C39.9414 68.9941 37.1094 71.7773 33.4961 71.7773C29.9316 71.7773 27.0996 68.9453 27.0996 65.3809C27.0996 61.8652 29.9805 58.9844 33.4961 58.9844C37.0605 58.9844 39.9414 61.8164 39.9414 65.3809ZM133.203 65.3809C133.203 66.4319 132.953 67.4192 132.503 68.2858C130.497 67.1161 128.225 66.5039 125.928 66.5039C124.129 66.5039 122.36 66.8632 120.728 67.5546C120.488 66.8826 120.361 66.1506 120.361 65.3809C120.361 61.8164 123.193 58.9844 126.758 58.9844C130.273 58.9844 133.203 61.8652 133.203 65.3809ZM39.9414 38.2812C39.9414 41.8945 37.1094 44.7266 33.4961 44.7266C29.9316 44.7266 27.0996 41.8457 27.0996 38.2812C27.0996 34.7656 29.9805 31.8848 33.4961 31.8848C37.0605 31.8848 39.9414 34.7168 39.9414 38.2812ZM133.008 38.2812C133.008 41.8945 130.225 44.7266 126.562 44.7266C123.047 44.7266 120.166 41.8457 120.166 38.2812C120.166 34.8145 123.096 31.8848 126.562 31.8848C130.176 31.8848 133.008 34.7168 133.008 38.2812ZM63.2324 24.6582C63.2324 28.2715 60.4492 31.1035 56.8359 31.1035C53.2715 31.1035 50.3906 28.2227 50.3906 24.6582C50.3906 21.1426 53.3203 18.2617 56.8359 18.2617C60.4004 18.2617 63.2324 21.0938 63.2324 24.6582ZM109.863 24.6582C109.863 28.2715 107.08 31.1035 103.467 31.1035C99.9023 31.1035 97.0215 28.2227 97.0215 24.6582C97.0215 21.1426 99.9512 18.2617 103.467 18.2617C107.031 18.2617 109.863 21.0938 109.863 24.6582ZM86.5723 11.2305C86.5723 14.8438 83.7402 17.627 80.127 17.627C76.5625 17.627 73.7305 14.7949 73.7305 11.2305C73.7305 7.71484 76.6602 4.78516 80.127 4.78516C83.6914 4.78516 86.5723 7.66602 86.5723 11.2305Z" fill="#000000" fill-opacity="0.85"/>
  <path d="M88.3301 92.4316C88.3301 97.0215 84.7168 100.684 80.127 100.684C75.6348 100.684 71.9238 96.9727 71.9238 92.4316C71.9238 87.9883 75.6836 84.2285 80.127 84.2285C84.6191 84.2285 88.3301 87.9395 88.3301 92.4316ZM65.0391 78.9551C65.0391 83.5449 61.377 87.1582 56.8359 87.1582C52.2949 87.1582 48.6328 83.4473 48.6328 78.9551C48.6328 74.4629 52.3438 70.7031 56.8359 70.7031C61.3281 70.7031 65.0391 74.4141 65.0391 78.9551ZM111.629 78.1753L107.103 86.2852C106.007 86.846 104.77 87.1582 103.467 87.1582C98.877 87.1582 95.2637 83.5449 95.2637 78.9551C95.2637 74.4141 98.9258 70.7031 103.467 70.7031C107.65 70.7031 111.228 74.0358 111.629 78.1753ZM65.0391 51.8066C65.0391 56.3965 61.4258 60.0098 56.8359 60.0098C52.2949 60.0098 48.6328 56.3477 48.6328 51.8066C48.6328 47.3633 52.3926 43.6035 56.8359 43.6035C61.3281 43.6035 65.0391 47.2656 65.0391 51.8066ZM111.67 51.8066C111.67 56.3965 108.057 60.0098 103.467 60.0098C98.9258 60.0098 95.2637 56.3477 95.2637 51.8066C95.2637 47.3633 99.0234 43.6035 103.467 43.6035C107.959 43.6035 111.67 47.2656 111.67 51.8066ZM88.3301 38.2812C88.3301 42.8711 84.7168 46.5332 80.127 46.5332C75.6348 46.5332 71.9238 42.8223 71.9238 38.2812C71.9238 33.8379 75.6836 30.0781 80.127 30.0781C84.668 30.0781 88.3301 33.7891 88.3301 38.2812Z" fill="#000000" fill-opacity="0.85"/>
  <path d="M89.5508 65.3809C89.5508 70.6055 85.3516 74.7559 80.127 74.7559C74.9512 74.7559 70.752 70.5566 70.752 65.3809C70.752 60.2539 75.0488 56.0059 80.127 56.0059C85.3027 56.0059 89.5508 60.2051 89.5508 65.3809Z" fill="#000000" fill-opacity="0.85"/>
  <path d="M131.543 76.5137L152.734 114.307C153.32 115.381 153.662 116.455 153.662 117.578C153.662 121.289 151.074 124.121 147.021 124.121L104.736 124.121C100.684 124.121 98.1445 121.289 98.1445 117.578C98.1445 116.455 98.4375 115.381 99.0723 114.355L120.215 76.5137C121.436 74.2676 123.682 73.1934 125.928 73.1934C128.076 73.1934 130.273 74.2676 131.543 76.5137ZM121.777 112.549C121.777 114.844 123.633 116.699 125.879 116.699C128.174 116.699 130.029 114.844 130.029 112.549C130.029 110.352 128.174 108.447 125.879 108.447C123.682 108.447 121.777 110.303 121.777 112.549ZM122.559 88.2812L122.949 102.197C122.998 103.857 124.219 105.029 125.928 105.029C127.637 105.029 128.809 103.857 128.857 102.197L129.248 88.2812C129.297 86.2793 127.93 84.9121 125.928 84.9121C123.877 84.9121 122.51 86.2793 122.559 88.2812Z" fill="#000000" fill-opacity="0.85"/>
 </g>
</svg>
