<?xml version="1.0" encoding="UTF-8"?>
<!--Generator: Apple Native CoreSVG 232.5-->
<!DOCTYPE svg
PUBLIC "-//W3C//DTD SVG 1.1//EN"
       "http://www.w3.org/Graphics/SVG/1.1/DTD/svg11.dtd">
<svg version="1.1" xmlns="http://www.w3.org/2000/svg" xmlns:xlink="http://www.w3.org/1999/xlink" width="101.025" height="116.357">
 <g>
  <rect height="116.357" opacity="0" width="101.025" x="0" y="0"/>
  <path d="M50.6348 7.95898C52.8809 7.95898 54.5898 6.29883 54.5898 4.00391C54.5898 1.75781 52.832 0 50.6348 0C48.4375 0 46.6309 1.80664 46.6309 4.00391C46.6309 6.20117 48.3887 7.95898 50.6348 7.95898ZM27.2949 21.4355C29.5898 21.4355 31.2988 19.7266 31.2988 17.4316C31.2988 15.1855 29.541 13.4277 27.2949 13.4277C25.1465 13.4277 23.291 15.2832 23.291 17.4316C23.291 19.6777 25.0488 21.4355 27.2949 21.4355ZM73.9258 21.4355C76.2207 21.4355 77.9297 19.7266 77.9297 17.4316C77.9297 15.1855 76.1719 13.4277 73.9258 13.4277C71.7773 13.4277 69.9219 15.2832 69.9219 17.4316C69.9219 19.6777 71.6797 21.4355 73.9258 21.4355ZM4.00391 35.0586C6.25 35.0586 7.95898 33.3496 7.95898 31.0547C7.95898 28.8574 6.20117 27.0996 4.00391 27.0996C1.80664 27.0996 0 28.9062 0 31.0547C0 33.3008 1.75781 35.0586 4.00391 35.0586ZM97.0703 35.0586C99.3652 35.0586 101.025 33.3496 101.025 31.0547C101.025 28.8086 99.3164 27.0996 97.0703 27.0996C94.873 27.0996 93.0664 28.9062 93.0664 31.0547C93.0664 33.3008 94.8242 35.0586 97.0703 35.0586ZM4.00391 62.1094C6.25 62.1094 7.95898 60.4492 7.95898 58.1543C7.95898 55.9082 6.20117 54.1504 4.00391 54.1504C1.80664 54.1504 0 55.957 0 58.1543C0 60.3516 1.75781 62.1094 4.00391 62.1094ZM97.0703 62.1094C99.3652 62.1094 101.025 60.4492 101.025 58.1543C101.025 55.9082 99.3164 54.1504 97.0703 54.1504C94.873 54.1504 93.0664 56.0059 93.0664 58.1543C93.0664 60.3516 94.8242 62.1094 97.0703 62.1094ZM4.00391 89.209C6.25 89.209 7.95898 87.5 7.95898 85.2051C7.95898 83.0078 6.20117 81.25 4.00391 81.25C1.80664 81.25 0 83.0566 0 85.2051C0 87.4512 1.75781 89.209 4.00391 89.209ZM97.0703 89.209C99.3652 89.209 101.025 87.5488 101.025 85.2051C101.025 83.0078 99.2676 81.25 97.0703 81.25C94.873 81.25 93.0664 83.0566 93.0664 85.2051C93.0664 87.4512 94.8242 89.209 97.0703 89.209ZM27.2949 102.832C29.5898 102.832 31.2988 101.172 31.2988 98.877C31.2988 96.6309 29.541 94.873 27.2949 94.873C25.1465 94.873 23.291 96.6797 23.291 98.877C23.291 101.074 25.0488 102.832 27.2949 102.832ZM73.9258 102.832C76.2207 102.832 77.9297 101.172 77.9297 98.877C77.9297 96.6309 76.1719 94.873 73.9258 94.873C71.7773 94.873 69.9219 96.6797 69.9219 98.877C69.9219 101.074 71.6797 102.832 73.9258 102.832ZM50.6348 116.309C52.8809 116.309 54.5898 114.6 54.5898 112.305C54.5898 110.059 52.832 108.301 50.6348 108.301C48.4375 108.301 46.6309 110.156 46.6309 112.305C46.6309 114.551 48.3887 116.309 50.6348 116.309Z" fill="#000000" fill-opacity="0.85"/>
  <path d="M50.6348 35.0586C52.8809 35.0586 54.5898 33.3496 54.5898 31.0547C54.5898 28.8574 52.832 27.0996 50.6348 27.0996C48.4375 27.0996 46.6309 28.9062 46.6309 31.0547C46.6309 33.3008 48.3887 35.0586 50.6348 35.0586ZM27.2949 48.584C29.5898 48.584 31.2988 46.875 31.2988 44.5801C31.2988 42.334 29.541 40.5762 27.2949 40.5762C25.1465 40.5762 23.291 42.3828 23.291 44.5801C23.291 46.8262 25.0488 48.584 27.2949 48.584ZM73.9258 48.584C76.2207 48.584 77.9297 46.875 77.9297 44.5801C77.9297 42.334 76.1719 40.5762 73.9258 40.5762C71.7773 40.5762 69.9219 42.3828 69.9219 44.5801C69.9219 46.8262 71.6797 48.584 73.9258 48.584ZM27.2949 75.6836C29.5898 75.6836 31.2988 74.0234 31.2988 71.7285C31.2988 69.4824 29.541 67.7246 27.2949 67.7246C25.1465 67.7246 23.291 69.5312 23.291 71.7285C23.291 73.9746 25.0488 75.6836 27.2949 75.6836ZM73.9258 75.6836C76.2207 75.6836 77.9297 74.0234 77.9297 71.7285C77.9297 69.4824 76.1719 67.7246 73.9258 67.7246C71.7773 67.7246 69.9219 69.5312 69.9219 71.7285C69.9219 73.9746 71.6797 75.6836 73.9258 75.6836ZM50.6348 89.209C52.8809 89.209 54.5898 87.5 54.5898 85.2051C54.5898 83.0078 52.832 81.25 50.6348 81.25C48.4375 81.25 46.6309 83.0566 46.6309 85.2051C46.6309 87.4512 48.3887 89.209 50.6348 89.209Z" fill="#000000" fill-opacity="0.85"/>
  <path d="M50.6348 62.1094C52.8809 62.1094 54.5898 60.4492 54.5898 58.1543C54.5898 55.9082 52.832 54.1504 50.6348 54.1504C48.4375 54.1504 46.6309 55.957 46.6309 58.1543C46.6309 60.3516 48.3887 62.1094 50.6348 62.1094Z" fill="#000000" fill-opacity="0.85"/>
 </g>
</svg>
