<?xml version="1.0" encoding="UTF-8"?>
<!--Generator: Apple Native CoreSVG 232.5-->
<!DOCTYPE svg
PUBLIC "-//W3C//DTD SVG 1.1//EN"
       "http://www.w3.org/Graphics/SVG/1.1/DTD/svg11.dtd">
<svg version="1.1" xmlns="http://www.w3.org/2000/svg" xmlns:xlink="http://www.w3.org/1999/xlink" width="93.2129" height="102.783">
 <g>
  <rect height="102.783" opacity="0" width="93.2129" x="0" y="0"/>
  <path d="M93.2129 78.7598C93.2129 92.2363 80.8105 102.734 64.8438 102.734C48.7793 102.734 36.377 92.2363 36.377 78.7598C36.377 68.6837 43.2601 60.2877 53.418 56.6681L53.418 65.2097C47.8313 68.0509 44.2383 72.9855 44.2383 78.7598C44.2383 87.8418 53.2227 94.873 64.8438 94.873C76.4648 94.873 85.3516 87.8418 85.3516 78.7598C85.3516 72.8802 81.6667 67.8711 75.9277 65.0626L75.9277 56.5623C86.199 60.1291 93.2129 68.5884 93.2129 78.7598Z" fill="#000000" fill-opacity="0.85"/>
  <path d="M64.6484 83.4473C67.7246 83.4473 70.2637 81.9824 70.2637 79.9316L70.2637 29.541L59.1309 29.541L59.1309 79.9316C59.1309 81.9824 61.5723 83.4473 64.6484 83.4473ZM64.6484 41.9434C76.2695 41.9434 85.5469 32.5195 85.5469 20.8984C85.5469 9.375 76.1719 0 64.6484 0C53.0762 0 43.6523 9.47266 43.6523 20.8984C43.6523 32.6172 53.0762 41.9434 64.6484 41.9434Z" fill="#000000" fill-opacity="0.85"/>
  <path d="M38.2812 43.3105C38.2812 41.2109 36.6211 39.5508 34.4727 39.5508L20.8984 39.5508L20.8984 33.0566C20.8984 29.5898 17.5293 28.5645 14.9414 30.5176L1.31836 40.8203C-0.439453 42.1387-0.439453 44.6289 1.31836 45.9961L14.9414 56.25C17.627 58.3008 20.8984 57.0801 20.8984 53.7109L20.8984 47.168L34.4727 47.168C36.6211 47.168 38.2812 45.459 38.2812 43.3105Z" fill="#000000" fill-opacity="0.85"/>
 </g>
</svg>
