<?xml version="1.0" encoding="UTF-8"?>
<!--Generator: Apple Native CoreSVG 232.5-->
<!DOCTYPE svg
PUBLIC "-//W3C//DTD SVG 1.1//EN"
       "http://www.w3.org/Graphics/SVG/1.1/DTD/svg11.dtd">
<svg version="1.1" xmlns="http://www.w3.org/2000/svg" xmlns:xlink="http://www.w3.org/1999/xlink" width="138.303" height="87.8418">
 <g>
  <rect height="87.8418" opacity="0" width="138.303" x="0" y="0"/>
  <path d="M20.25 87.8418L118.053 87.8418C132.408 87.8418 139.879 78.6133 138.023 63.2812L132.75 19.2871C131.285 6.83594 124.107 0 112.73 0L25.5723 0C14.1953 0 7.0176 6.83594 5.55275 19.2871L0.279315 63.2812C-1.57615 78.6133 5.89455 87.8418 20.25 87.8418ZM20.25 79.9805C11.4121 79.9805 6.87111 73.6328 8.18947 62.6465L13.3164 20.2148C14.293 12.2559 18.5899 7.86133 25.5723 7.86133L112.73 7.86133C119.713 7.86133 124.01 12.2559 124.938 20.2148L130.064 62.6465C131.432 73.6816 126.891 79.9805 118.053 79.9805Z" fill="#000000" fill-opacity="0.85"/>
  <path d="M37.0469 57.7148C38.8535 57.7148 40.3672 56.8359 40.3672 55.6152L40.3672 41.8457C45.4942 40.4785 49.3028 35.6934 49.3028 30.0781C49.3028 23.3398 43.7852 17.8223 37.0469 17.8223C30.2598 17.8223 24.791 23.3887 24.791 30.0781C24.791 35.7422 28.5996 40.4785 33.7754 41.9434L33.7754 55.6152C33.7754 56.8359 35.2403 57.7148 37.0469 57.7148ZM37.0469 68.0664C46.959 68.0664 53.8926 62.7441 53.8926 55.2246C53.8926 49.9512 50.4746 45.8008 45.1035 43.75L45.1035 50.1465C46.9102 51.3672 47.9844 53.125 47.9844 55.2246C47.9844 59.668 43.4922 62.793 37.0469 62.793C30.6016 62.793 26.0606 59.668 26.0606 55.2246C26.0606 53.0762 27.1836 51.3184 29.0391 50.0977L29.0391 43.75C23.5703 45.752 20.1524 49.9512 20.1524 55.2246C20.1524 62.7441 27.1348 68.0664 37.0469 68.0664ZM65.5625 40.8203C69.5176 40.8203 72.6914 37.6465 72.6914 33.7402C72.6914 29.7852 69.5176 26.6113 65.5625 26.6113C61.6563 26.6113 58.4824 29.7852 58.4824 33.7402C58.4824 37.6465 61.6563 40.8203 65.5625 40.8203ZM86.2168 40.8203C90.1231 40.8203 93.3457 37.6465 93.3457 33.7402C93.3457 29.7852 90.1231 26.6113 86.2168 26.6113C82.2617 26.6113 79.0879 29.7852 79.0879 33.7402C79.0879 37.6465 82.2617 40.8203 86.2168 40.8203ZM106.773 40.8203C110.68 40.8203 113.902 37.6465 113.902 33.7402C113.902 29.7852 110.68 26.6113 106.773 26.6113C102.867 26.6113 99.6445 29.7852 99.6445 33.7402C99.6445 37.6465 102.867 40.8203 106.773 40.8203ZM72.4473 61.377C76.3535 61.377 79.5274 58.2031 79.5274 54.2969C79.5274 50.3418 76.3535 47.168 72.4473 47.168C68.4922 47.168 65.3184 50.3418 65.3184 54.2969C65.3184 58.2031 68.4922 61.377 72.4473 61.377ZM93.0528 61.377C97.0078 61.377 100.182 58.2031 100.182 54.2969C100.182 50.3418 97.0078 47.168 93.0528 47.168C89.1465 47.168 85.9727 50.3418 85.9727 54.2969C85.9727 58.2031 89.1465 61.377 93.0528 61.377ZM113.658 61.377C117.613 61.377 120.787 58.2031 120.787 54.2969C120.787 50.3418 117.613 47.168 113.658 47.168C109.752 47.168 106.578 50.3418 106.578 54.2969C106.578 58.2031 109.752 61.377 113.658 61.377Z" fill="#000000" fill-opacity="0.85"/>
 </g>
</svg>
