<?xml version="1.0" encoding="UTF-8"?>
<!--Generator: Apple Native CoreSVG 232.5-->
<!DOCTYPE svg
PUBLIC "-//W3C//DTD SVG 1.1//EN"
       "http://www.w3.org/Graphics/SVG/1.1/DTD/svg11.dtd">
<svg version="1.1" xmlns="http://www.w3.org/2000/svg" xmlns:xlink="http://www.w3.org/1999/xlink" width="97.6074" height="89.9902">
 <g>
  <rect height="89.9902" opacity="0" width="97.6074" x="0" y="0"/>
  <path d="M22.0215 89.9902L75.5859 89.9902C85.2051 89.9902 90.332 85.0098 90.332 75.4395L90.332 23.291L82.4707 23.291L82.4707 75.8301C82.4707 80.2246 80.0293 82.6172 75.6836 82.6172L21.9238 82.6172C17.5293 82.6172 15.1367 80.2246 15.1367 75.8301L15.1367 23.291L7.27539 23.291L7.27539 75.4395C7.27539 85.0586 12.4023 89.9902 22.0215 89.9902ZM32.7148 46.6309L64.9414 46.6309C66.9922 46.6309 68.457 45.2148 68.457 43.0664L68.457 41.5039C68.457 39.3555 66.9922 37.9883 64.9414 37.9883L32.7148 37.9883C30.6641 37.9883 29.248 39.3555 29.248 41.5039L29.248 43.0664C29.248 45.2148 30.6641 46.6309 32.7148 46.6309ZM9.27734 26.9531L88.3301 26.9531C94.3359 26.9531 97.6074 23.1934 97.6074 17.2363L97.6074 9.81445C97.6074 3.85742 94.3359 0.0976562 88.3301 0.0976562L9.27734 0.0976562C3.56445 0.0976562 0 3.85742 0 9.81445L0 17.2363C0 23.1934 3.27148 26.9531 9.27734 26.9531ZM11.2793 19.5801C8.83789 19.5801 7.86133 18.5547 7.86133 16.1133L7.86133 10.9375C7.86133 8.49609 8.83789 7.4707 11.2793 7.4707L86.377 7.4707C88.8184 7.4707 89.7461 8.49609 89.7461 10.9375L89.7461 16.1133C89.7461 18.5547 88.8184 19.5801 86.377 19.5801Z" fill="#000000" fill-opacity="0.85"/>
 </g>
</svg>
