<?xml version="1.0" encoding="UTF-8"?>
<!--Generator: Apple Native CoreSVG 232.5-->
<!DOCTYPE svg
PUBLIC "-//W3C//DTD SVG 1.1//EN"
       "http://www.w3.org/Graphics/SVG/1.1/DTD/svg11.dtd">
<svg version="1.1" xmlns="http://www.w3.org/2000/svg" xmlns:xlink="http://www.w3.org/1999/xlink" width="99.6094" height="99.6582">
 <g>
  <rect height="99.6582" opacity="0" width="99.6094" x="0" y="0"/>
  <path d="M49.8047 99.6094C77.0508 99.6094 99.6094 77.002 99.6094 49.8047C99.6094 22.5586 77.002 0 49.7559 0C22.5586 0 0 22.5586 0 49.8047C0 77.002 22.6074 99.6094 49.8047 99.6094ZM49.8047 91.3086C26.7578 91.3086 8.34961 72.8516 8.34961 49.8047C8.34961 26.7578 26.709 8.30078 49.7559 8.30078C72.8027 8.30078 91.3086 26.7578 91.3086 49.8047C91.3086 72.8516 72.8516 91.3086 49.8047 91.3086Z" fill="#000000" fill-opacity="0.85"/>
  <path d="M45.2148 70.8008C46.9727 70.8008 48.291 69.4824 48.291 67.7246L48.291 57.666L49.0723 57.666C59.2285 57.666 65.6738 60.2539 70.2148 68.8477C71.1426 70.5078 72.3145 70.8008 73.4375 70.8008C74.8047 70.8008 76.1719 69.5801 76.1719 67.2852C76.1719 47.8516 67.8711 35.8398 49.0723 35.8398L48.291 35.8398L48.291 25.8789C48.291 24.1211 46.9727 22.6562 45.166 22.6562C43.8965 22.6562 43.0664 23.2422 41.6992 24.5117L20.8984 43.8965C19.9219 44.8242 19.5801 45.8496 19.5801 46.7285C19.5801 47.6074 19.9219 48.6328 20.8984 49.5605L41.6992 69.0918C42.9199 70.2148 43.9453 70.8008 45.2148 70.8008Z" fill="#000000" fill-opacity="0.85"/>
 </g>
</svg>
