<?xml version="1.0" encoding="UTF-8"?>
<!--Generator: Apple Native CoreSVG 232.5-->
<!DOCTYPE svg
PUBLIC "-//W3C//DTD SVG 1.1//EN"
       "http://www.w3.org/Graphics/SVG/1.1/DTD/svg11.dtd">
<svg version="1.1" xmlns="http://www.w3.org/2000/svg" xmlns:xlink="http://www.w3.org/1999/xlink" width="175.537" height="114.6">
 <g>
  <rect height="114.6" opacity="0" width="175.537" x="0" y="0"/>
  <path d="M70.4102 53.5156L105.078 53.5156C110.4 53.5156 114.551 49.4141 114.551 44.043L114.551 9.52148C114.551 4.15039 110.4 0 105.078 0L70.4102 0C65.0879 0 61.0352 4.15039 61.0352 9.52148L61.0352 44.043C61.0352 49.4141 65.0879 53.5156 70.4102 53.5156ZM70.4102 46.6309C68.9941 46.6309 67.9199 45.5078 67.9199 44.043L67.9199 9.52148C67.9199 8.00781 68.9941 6.88477 70.4102 6.88477L105.078 6.88477C106.543 6.88477 107.666 8.00781 107.666 9.52148L107.666 44.043C107.666 45.5078 106.543 46.6309 105.078 46.6309ZM9.375 114.551L44.043 114.551C49.3652 114.551 53.5156 110.4 53.5156 105.029L53.5156 70.5566C53.5156 65.1855 49.3652 60.9863 44.043 60.9863L9.375 60.9863C4.05273 60.9863 0 65.1855 0 70.5566L0 105.029C0 110.4 4.05273 114.551 9.375 114.551ZM9.375 107.666C7.95898 107.666 6.88477 106.543 6.88477 105.029L6.88477 70.5566C6.88477 68.9941 7.95898 67.8711 9.375 67.8711L44.043 67.8711C45.5078 67.8711 46.6309 68.9941 46.6309 70.5566L46.6309 105.029C46.6309 106.543 45.5078 107.666 44.043 107.666ZM70.4102 114.551L105.078 114.551C110.4 114.551 114.551 110.4 114.551 105.029L114.551 70.5566C114.551 65.1855 110.4 60.9863 105.078 60.9863L70.4102 60.9863C65.0879 60.9863 61.0352 65.1855 61.0352 70.5566L61.0352 105.029C61.0352 110.4 65.0879 114.551 70.4102 114.551ZM70.4102 107.666C68.9941 107.666 67.9199 106.543 67.9199 105.029L67.9199 70.5566C67.9199 68.9941 68.9941 67.8711 70.4102 67.8711L105.078 67.8711C106.543 67.8711 107.666 68.9941 107.666 70.5566L107.666 105.029C107.666 106.543 106.543 107.666 105.078 107.666ZM131.494 114.551L166.162 114.551C171.484 114.551 175.537 110.4 175.537 105.029L175.537 70.5566C175.537 65.1855 171.484 60.9863 166.162 60.9863L131.494 60.9863C126.172 60.9863 122.021 65.1855 122.021 70.5566L122.021 105.029C122.021 110.4 126.172 114.551 131.494 114.551ZM131.494 107.666C130.029 107.666 128.906 106.543 128.906 105.029L128.906 70.5566C128.906 68.9941 130.029 67.8711 131.494 67.8711L166.162 67.8711C167.578 67.8711 168.652 68.9941 168.652 70.5566L168.652 105.029C168.652 106.543 167.578 107.666 166.162 107.666Z" fill="#000000" fill-opacity="0.85"/>
  <path d="M76.8066 38.623L98.7793 38.623C100.781 38.623 102.051 36.2305 100.928 34.2773L90.1367 16.1133C89.0625 14.3066 86.3281 14.3555 85.3027 16.1621L74.6582 34.2773C73.4863 36.2305 74.7559 38.623 76.8066 38.623ZM37.3047 98.7305L37.3047 76.7578C37.3047 74.7559 34.9121 73.4863 32.9102 74.6094L14.7461 85.4004C12.9395 86.4746 12.9883 89.209 14.7949 90.2344L32.9102 100.928C34.9121 102.051 37.3047 100.781 37.3047 98.7305ZM85.3027 98.3887C86.377 100.195 89.0625 100.244 90.1367 98.4375L100.928 80.2734C102.1 78.3203 100.781 75.9277 98.7793 75.9277L76.8555 75.9277C74.7559 75.9277 73.5352 78.2715 74.6582 80.2734ZM138.281 98.7305C138.281 100.781 140.674 102.051 142.627 100.928L160.742 90.2344C162.549 89.209 162.598 86.4746 160.791 85.4004L142.627 74.6094C140.625 73.4863 138.281 74.7559 138.281 76.7578Z" fill="#000000" fill-opacity="0.85"/>
 </g>
</svg>
