<?xml version="1.0" encoding="UTF-8"?>
<!--Generator: Apple Native CoreSVG 232.5-->
<!DOCTYPE svg
PUBLIC "-//W3C//DTD SVG 1.1//EN"
       "http://www.w3.org/Graphics/SVG/1.1/DTD/svg11.dtd">
<svg version="1.1" xmlns="http://www.w3.org/2000/svg" xmlns:xlink="http://www.w3.org/1999/xlink" width="89.8926" height="89.9902">
 <g>
  <rect height="89.9902" opacity="0" width="89.8926" x="0" y="0"/>
  <path d="M89.8926 15.2344L89.8926 74.8535C89.8926 84.9121 84.8145 89.9902 74.5605 89.9902L15.332 89.9902C5.12695 89.9902 0 84.9609 0 74.8535L0 15.2344C0 5.12695 5.12695 0.0976562 15.332 0.0976562L74.5605 0.0976562C84.8145 0.0976562 89.8926 5.17578 89.8926 15.2344ZM42.0898 20.752L25.293 37.5C24.6094 38.1836 24.3164 39.0625 24.3164 40.1367C24.3164 42.1875 25.8789 43.7988 27.9785 43.7988C29.0527 43.7988 29.9805 43.3594 30.6641 42.6758L36.6211 36.6699L41.6504 30.6152L41.2109 41.3086L41.2109 66.3574C41.2109 68.6035 42.8223 70.166 45.0195 70.166C47.2656 70.166 48.8281 68.6035 48.8281 66.3574L48.8281 41.3086L48.3887 30.5664L53.5156 36.6699L59.4238 42.6758C60.1074 43.4082 61.0352 43.7988 62.1094 43.7988C64.209 43.7988 65.8203 42.1875 65.8203 40.1367C65.8203 39.0625 65.4785 38.1836 64.7461 37.5L47.998 20.752C47.0215 19.7754 46.1914 19.3359 45.0195 19.3359C43.9453 19.3359 43.1152 19.7266 42.0898 20.752Z" fill="#000000" fill-opacity="0.85"/>
 </g>
</svg>
