<?xml version="1.0" encoding="UTF-8"?>
<!--Generator: Apple Native CoreSVG 232.5-->
<!DOCTYPE svg
PUBLIC "-//W3C//DTD SVG 1.1//EN"
       "http://www.w3.org/Graphics/SVG/1.1/DTD/svg11.dtd">
<svg version="1.1" xmlns="http://www.w3.org/2000/svg" xmlns:xlink="http://www.w3.org/1999/xlink" width="97.8516" height="92.627">
 <g>
  <rect height="92.627" opacity="0" width="97.8516" x="0" y="0"/>
  <path d="M0.830078 32.4707C0.830078 53.2715 18.2617 73.7305 45.8008 91.3086C46.8262 91.9434 48.3398 92.627 49.3164 92.627C50.3418 92.627 51.8066 91.9434 52.8809 91.3086C80.4199 73.7305 97.8516 53.2715 97.8516 32.4707C97.8516 15.1855 85.9863 2.97852 70.1172 2.97852C61.084 2.97852 53.7598 7.27539 49.3164 13.8672C44.9707 7.32422 37.5977 2.97852 28.5156 2.97852C12.6953 2.97852 0.830078 15.1855 0.830078 32.4707ZM8.69141 32.4707C8.69141 19.4824 17.0898 10.8398 28.418 10.8398C37.6465 10.8398 42.8711 16.5527 46.0449 21.4355C47.3633 23.3887 48.1934 23.9258 49.3164 23.9258C50.4883 23.9258 51.2207 23.3398 52.6367 21.4355C56.0059 16.6504 61.084 10.8398 70.2148 10.8398C81.5918 10.8398 89.9902 19.4824 89.9902 32.4707C89.9902 50.6348 70.8008 70.2148 50.3418 83.7891C49.8535 84.1309 49.5117 84.375 49.3164 84.375C49.1699 84.375 48.8281 84.1309 48.3398 83.7891C27.8809 70.2148 8.69141 50.6348 8.69141 32.4707Z" fill="#000000" fill-opacity="0.85"/>
  <path d="M52.6855 34.2773C52.6855 32.2754 50.9277 30.6152 48.9258 30.6152C46.9238 30.6152 45.2148 32.2754 45.2148 34.2773L45.2148 51.9531L45.5078 59.9121L41.3574 55.6152L37.0605 51.2695C36.4258 50.5371 35.4004 50.1465 34.4727 50.1465C32.4707 50.1465 31.0547 51.5625 31.0547 53.5156C31.0547 54.6387 31.4941 55.4688 32.2754 56.1523L46.1914 68.9453C47.2168 69.9219 47.998 70.2148 48.9258 70.2148C49.8535 70.2148 50.6348 69.9219 51.6602 68.9453L65.5762 56.1523C66.3574 55.4688 66.7969 54.6387 66.7969 53.5156C66.7969 51.5625 65.332 50.1465 63.3789 50.1465C62.4023 50.1465 61.4746 50.5371 60.791 51.2695L56.4941 55.6152L52.3438 59.9121L52.6855 51.9531Z" fill="#000000" fill-opacity="0.85"/>
 </g>
</svg>
