<?xml version="1.0" encoding="UTF-8"?>
<!--Generator: Apple Native CoreSVG 232.5-->
<!DOCTYPE svg
PUBLIC "-//W3C//DTD SVG 1.1//EN"
       "http://www.w3.org/Graphics/SVG/1.1/DTD/svg11.dtd">
<svg version="1.1" xmlns="http://www.w3.org/2000/svg" xmlns:xlink="http://www.w3.org/1999/xlink" width="89.8926" height="90.0879">
 <g>
  <rect height="90.0879" opacity="0" width="89.8926" x="0" y="0"/>
  <path d="M15.332 89.8926L74.5605 89.8926C84.8145 89.8926 89.8926 84.8145 89.8926 74.7559L89.8926 15.1367C89.8926 5.07812 84.8145 0 74.5605 0L15.332 0C5.12695 0 0 5.0293 0 15.1367L0 74.7559C0 84.8633 5.12695 89.8926 15.332 89.8926ZM15.4297 82.0312C10.5469 82.0312 7.86133 79.4434 7.86133 74.3652L7.86133 15.5273C7.86133 10.498 10.5469 7.86133 15.4297 7.86133L74.4629 7.86133C79.2969 7.86133 82.0312 10.498 82.0312 15.5273L82.0312 74.3652C82.0312 79.4434 79.2969 82.0312 74.4629 82.0312Z" fill="#000000" fill-opacity="0.85"/>
  <path d="M70.2148 50.8301C70.2148 39.1113 61.7188 31.9824 50.3418 31.9824L35.7422 31.9824L29.9805 32.1777L33.8379 29.1016L38.8672 24.2188C39.5508 23.6328 39.9902 22.7051 39.9902 21.7285C39.9902 19.6777 38.4766 18.1641 36.4746 18.1641C35.4492 18.1641 34.668 18.5059 33.9844 19.2383L20.9961 32.373C20.2148 33.2031 19.7266 34.2285 19.7266 35.4004C19.7266 36.5234 20.2148 37.5 20.9961 38.3301L34.0332 51.6602C34.7168 52.3438 35.498 52.6367 36.5234 52.6367C38.4766 52.6367 39.9902 51.123 39.9902 49.1211C39.9902 48.1934 39.6484 47.2168 38.916 46.582L32.8125 40.7227L29.9805 38.623L35.7422 38.8184L50.3418 38.8184C57.5195 38.8184 63.0371 42.9199 63.0371 50.4395C63.0371 58.1543 57.666 62.8906 50.293 62.8906C49.707 62.8906 43.7012 62.8906 43.5059 62.8906C41.4062 62.8906 39.7949 64.1602 39.7949 66.4062C39.7949 68.6523 41.4062 69.873 43.6035 69.873C43.8477 69.873 49.707 69.873 50.293 69.873C61.6699 69.873 70.2148 62.5977 70.2148 50.8301Z" fill="#000000" fill-opacity="0.85"/>
 </g>
</svg>
