<?xml version="1.0" encoding="UTF-8"?>
<!--Generator: Apple Native CoreSVG 232.5-->
<!DOCTYPE svg
PUBLIC "-//W3C//DTD SVG 1.1//EN"
       "http://www.w3.org/Graphics/SVG/1.1/DTD/svg11.dtd">
<svg version="1.1" xmlns="http://www.w3.org/2000/svg" xmlns:xlink="http://www.w3.org/1999/xlink" width="94.5312" height="117.432">
 <g>
  <rect height="117.432" opacity="0" width="94.5312" x="0" y="0"/>
  <path d="M25.8301 22.3145L33.5938 22.3145L33.5938 11.8652C33.5938 9.08203 35.5469 7.27539 38.4766 7.27539L55.957 7.27539C58.8867 7.27539 60.8398 9.08203 60.8398 11.8652L60.8398 22.3145L68.6035 22.3145L68.6035 11.377C68.6035 4.29688 64.0137 0 56.4941 0L37.9395 0C30.4199 0 25.8301 4.29688 25.8301 11.377ZM3.66211 26.2207L90.918 26.2207C92.9199 26.2207 94.5312 24.5117 94.5312 22.5098C94.5312 20.5078 92.9199 18.8477 90.918 18.8477L3.66211 18.8477C1.70898 18.8477 0 20.5078 0 22.5098C0 24.5605 1.70898 26.2207 3.66211 26.2207ZM24.9023 108.74L69.6777 108.74C76.6602 108.74 81.3477 104.199 81.6895 97.2168L85.1074 25.293L77.2461 25.293L73.9746 96.3867C73.877 99.3164 71.7773 101.367 68.8965 101.367L25.5859 101.367C22.8027 101.367 20.7031 99.2676 20.5566 96.3867L17.0898 25.293L9.42383 25.293L12.8906 97.2656C13.2324 104.248 17.8223 108.74 24.9023 108.74Z" fill="#000000" fill-opacity="0.85"/>
  <path d="M47.168 84.9609C48.9746 84.9609 50.2441 83.6426 50.2441 81.8848L50.2441 60.7422L49.9512 51.9531L54.248 57.0801L58.9844 61.8652C59.5215 62.4512 60.2539 62.793 61.1328 62.793C62.8418 62.793 64.1602 61.5234 64.1602 59.8145C64.1602 58.9844 63.8184 58.252 63.2812 57.7148L49.5605 44.043C48.8281 43.2617 48.0957 42.8223 47.168 42.8223C46.2891 42.8223 45.6543 43.2129 44.8242 44.043L31.0547 57.7148C30.5176 58.252 30.2246 58.9844 30.2246 59.8145C30.2246 61.5234 31.4941 62.793 33.2031 62.793C34.082 62.793 34.8145 62.4023 35.3516 61.8652L40.1367 57.0801L44.4336 52.002L44.0918 60.7422L44.0918 81.8848C44.0918 83.6426 45.3613 84.9609 47.168 84.9609Z" fill="#000000" fill-opacity="0.85"/>
 </g>
</svg>
