<?xml version="1.0" encoding="UTF-8"?>
<!--Generator: Apple Native CoreSVG 232.5-->
<!DOCTYPE svg
PUBLIC "-//W3C//DTD SVG 1.1//EN"
       "http://www.w3.org/Graphics/SVG/1.1/DTD/svg11.dtd">
<svg version="1.1" xmlns="http://www.w3.org/2000/svg" xmlns:xlink="http://www.w3.org/1999/xlink" width="60.3027" height="96.1426">
 <g>
  <rect height="96.1426" opacity="0" width="60.3027" x="0" y="0"/>
  <path d="M30.1758 96.1426C31.3477 96.1426 32.4707 95.7031 33.4473 94.7266L58.9844 68.6523C59.8145 67.8223 60.3027 66.5039 60.3027 65.4785C60.3027 62.8418 58.5449 61.1328 56.0059 61.1328C54.7852 61.1328 53.8086 61.5723 53.0273 62.3535L41.9434 73.7793L34.0332 82.9102L34.5215 71.582L34.5215 24.5605L34.0332 13.2324L41.9434 22.3633L53.0273 33.7891C53.8086 34.5703 54.7852 35.0098 56.0059 35.0098C58.5449 35.0098 60.3027 33.3008 60.3027 30.6641C60.3027 29.6387 59.8145 28.3203 58.9844 27.4902L33.4473 1.41602C32.4707 0.439453 31.3477 0 30.1758 0C28.9551 0 27.832 0.439453 26.9043 1.41602L1.36719 27.4902C0.537109 28.3203 0 29.6387 0 30.6641C0 33.3008 1.75781 35.0098 4.29688 35.0098C5.56641 35.0098 6.54297 34.5703 7.27539 33.7891L18.4082 22.3633L26.2695 13.2324L25.8301 24.5605L25.8301 71.582L26.2695 82.9102L18.4082 73.7793L7.27539 62.3535C6.54297 61.5723 5.56641 61.1328 4.29688 61.1328C1.75781 61.1328 0 62.8418 0 65.4785C0 66.5039 0.537109 67.8223 1.36719 68.6523L26.9043 94.7266C27.832 95.7031 28.9551 96.1426 30.1758 96.1426Z" fill="#000000" fill-opacity="0.85"/>
 </g>
</svg>
