<?xml version="1.0" encoding="UTF-8"?>
<!--Generator: Apple Native CoreSVG 232.5-->
<!DOCTYPE svg
PUBLIC "-//W3C//DTD SVG 1.1//EN"
       "http://www.w3.org/Graphics/SVG/1.1/DTD/svg11.dtd">
<svg version="1.1" xmlns="http://www.w3.org/2000/svg" xmlns:xlink="http://www.w3.org/1999/xlink" width="119.922" height="96.2402">
 <g>
  <rect height="96.2402" opacity="0" width="119.922" x="0" y="0"/>
  <path d="M15.332 93.1152L104.59 93.1152C114.746 93.1152 119.922 88.0371 119.922 77.9785L119.922 26.8555C119.922 16.7969 114.746 11.7676 104.59 11.7676L90.625 11.7676C86.7676 11.7676 85.5957 10.9863 83.3984 8.54492L79.4922 4.15039C77.0508 1.46484 74.5605 0 69.5312 0L50.0488 0C45.0195 0 42.5293 1.46484 40.0879 4.15039L36.1816 8.54492C33.9844 10.9375 32.7637 11.7676 28.9551 11.7676L15.332 11.7676C5.12695 11.7676 0 16.7969 0 26.8555L0 77.9785C0 88.0371 5.12695 93.1152 15.332 93.1152ZM15.4297 85.2539C10.6445 85.2539 7.86133 82.666 7.86133 77.5879L7.86133 27.2949C7.86133 22.2168 10.6445 19.6289 15.4297 19.6289L30.9082 19.6289C35.3027 19.6289 37.6953 18.7988 40.1367 16.0645L43.9453 11.7676C46.7285 8.64258 48.1934 7.86133 52.4902 7.86133L67.0898 7.86133C71.3867 7.86133 72.8516 8.64258 75.6348 11.7676L79.4434 16.0645C81.8848 18.7988 84.2773 19.6289 88.6719 19.6289L104.443 19.6289C109.277 19.6289 112.061 22.2168 112.061 27.2949L112.061 77.5879C112.061 82.666 109.277 85.2539 104.443 85.2539Z" fill="#000000" fill-opacity="0.85"/>
  <path d="M27.0996 50.0488C25.9277 51.7578 26.3672 53.8086 28.5645 53.8086L33.5449 53.8086C35.8887 66.9434 46.5332 76.0254 60.0586 76.0254C65.9668 76.0254 71.875 73.9746 76.0254 70.5566C78.2715 68.7988 78.8574 66.3086 77.1484 64.5508C75.4883 62.793 73.3887 63.0859 71.4844 64.4531C68.0664 67.1387 64.6484 68.6035 60.0586 68.6035C50.6348 68.6035 42.7734 62.2559 40.625 53.8086L45.6543 53.8086C47.8516 53.8086 48.3887 51.7578 47.168 50.0488L39.4531 39.4043C38.2324 37.6465 36.0352 37.5 34.668 39.4043ZM42.8711 34.4727C44.4824 36.2305 46.6309 35.9863 48.4863 34.5703C51.9043 31.8359 55.3711 30.4688 59.9609 30.4688C69.3848 30.4688 77.1973 36.8164 79.3457 45.2148L74.0234 45.2148C71.875 45.2148 71.3379 47.3145 72.5586 48.9746L80.2246 59.668C81.4941 61.4258 83.6914 61.5723 85.0586 59.668L92.627 48.9746C93.7988 47.2656 93.3594 45.2148 91.1621 45.2148L86.4258 45.2148C84.082 32.0801 73.4375 22.998 59.9609 22.998C54.0527 22.998 48.0957 25.0977 43.9941 28.5156C41.748 30.2734 41.1621 32.7148 42.8711 34.4727Z" fill="#000000" fill-opacity="0.85"/>
 </g>
</svg>
