<?xml version="1.0" encoding="UTF-8"?>
<!--Generator: Apple Native CoreSVG 232.5-->
<!DOCTYPE svg
PUBLIC "-//W3C//DTD SVG 1.1//EN"
       "http://www.w3.org/Graphics/SVG/1.1/DTD/svg11.dtd">
<svg version="1.1" xmlns="http://www.w3.org/2000/svg" xmlns:xlink="http://www.w3.org/1999/xlink" width="115.137" height="89.8926">
 <g>
  <rect height="89.8926" opacity="0" width="115.137" x="0" y="0"/>
  <path d="M115.137 15.1367L115.137 74.8047C115.137 84.8633 110.059 89.8926 99.8047 89.8926L15.332 89.8926C5.12695 89.8926 0 84.8633 0 74.8047L0 15.1367C0 5.07812 5.12695 0 15.332 0L99.8047 0C110.059 0 115.137 5.07812 115.137 15.1367ZM14.7949 18.6035C14.7949 19.5801 15.2832 20.5566 16.0156 21.2402L31.1523 36.377L39.0137 43.75L31.543 42.9688L23.1445 42.9688C20.7031 42.9688 19.1406 44.4336 19.1406 46.6309C19.1406 48.877 20.6543 50.3418 23.0469 50.3418L46.1914 50.3418C48.7793 50.3418 50.4395 49.1699 50.4395 46.1426L50.4395 23.1445C50.4395 20.752 48.9258 19.0918 46.7285 19.0918C44.4824 19.0918 43.0176 20.6055 43.0176 23.0469L43.0176 31.0059L43.75 38.8672L36.4746 31.1035L21.3867 15.9668C20.6543 15.2344 19.7266 14.7949 18.5059 14.7949C16.2598 14.7949 14.7949 16.3086 14.7949 18.6035Z" fill="#000000" fill-opacity="0.85"/>
 </g>
</svg>
