<?xml version="1.0" encoding="UTF-8"?>
<!--Generator: Apple Native CoreSVG 232.5-->
<!DOCTYPE svg
PUBLIC "-//W3C//DTD SVG 1.1//EN"
       "http://www.w3.org/Graphics/SVG/1.1/DTD/svg11.dtd">
<svg version="1.1" xmlns="http://www.w3.org/2000/svg" xmlns:xlink="http://www.w3.org/1999/xlink" width="89.8926" height="89.9902">
 <g>
  <rect height="89.9902" opacity="0" width="89.8926" x="0" y="0"/>
  <path d="M89.8926 15.2344L89.8926 74.8535C89.8926 84.9121 84.8145 89.9902 74.5605 89.9902L15.332 89.9902C5.12695 89.9902 0 84.9609 0 74.8535L0 15.2344C0 5.12695 5.12695 0.0976562 15.332 0.0976562L74.5605 0.0976562C84.8145 0.0976562 89.8926 5.17578 89.8926 15.2344ZM26.0742 65.0391C24.1211 65.0391 22.7539 66.4551 22.7539 68.3594C22.7539 70.3613 24.1211 71.7773 26.0742 71.7773L63.916 71.7773C65.8691 71.7773 67.2363 70.3613 67.2363 68.3594C67.2363 66.4551 65.8691 65.0391 63.916 65.0391ZM41.5039 18.9453L41.5039 41.9922L42.0898 51.2207L32.9102 40.918L30.0781 37.793C29.4434 37.1094 28.6621 36.8164 27.6367 36.8164C25.6836 36.8164 24.3652 38.1836 24.3652 40.0879C24.3652 40.918 24.7559 41.9922 25.3906 42.627L42.3828 60.0098C43.1152 60.791 43.9941 61.1816 44.9219 61.1816C45.8984 61.1816 46.7285 60.6934 47.4609 60.0098L64.502 42.6758C65.332 41.9434 65.625 41.0645 65.625 40.0879C65.625 38.2812 64.2578 36.8164 62.4023 36.8164C61.4746 36.8164 60.5469 37.1094 59.9121 37.793L56.7871 40.9668L47.7539 51.1719L48.291 41.9922L48.291 18.9453C48.291 16.9434 46.875 15.5273 44.9219 15.5273C42.8711 15.5273 41.5039 16.9434 41.5039 18.9453Z" fill="#000000" fill-opacity="0.85"/>
 </g>
</svg>
