<?xml version="1.0" encoding="UTF-8"?>
<!--Generator: Apple Native CoreSVG 232.5-->
<!DOCTYPE svg
PUBLIC "-//W3C//DTD SVG 1.1//EN"
       "http://www.w3.org/Graphics/SVG/1.1/DTD/svg11.dtd">
<svg version="1.1" xmlns="http://www.w3.org/2000/svg" xmlns:xlink="http://www.w3.org/1999/xlink" width="120.901" height="89.9902">
 <g>
  <rect height="89.9902" opacity="0" width="120.901" x="0" y="0"/>
  <path d="M1.17295 33.9355C2.88194 35.6445 5.17686 35.4492 6.83701 33.8379L11.5245 29.1992L18.7511 21.5332L18.7511 74.8535C18.7511 84.9609 23.9269 89.9902 34.0831 89.9902L73.8292 89.9902C76.6124 89.9902 78.2237 88.5742 78.1749 86.084C78.1261 83.5449 76.6124 82.1289 73.8292 82.1289L34.2296 82.1289C29.3468 82.1289 26.6124 79.541 26.6124 74.4629L26.6124 21.4355L33.8878 29.1992L38.5753 33.8379C40.2355 35.4492 42.5792 35.6445 44.2394 33.9355C45.8995 32.3242 45.8019 29.9316 44.1417 28.2715L27.6866 11.8652C24.5128 8.74023 20.9483 8.74023 17.7745 11.8652L1.31944 28.2715C-0.389548 29.9316-0.438376 32.3242 1.17295 33.9355ZM42.7257 4.00391C42.7745 6.49414 44.2882 7.95898 47.0714 7.95898L86.7198 7.95898C91.6026 7.95898 94.2882 10.5469 94.2882 15.625L94.2882 68.6523L87.0128 60.8398L82.3253 56.25C80.6651 54.6387 78.3702 54.4434 76.6612 56.1035C75.0011 57.7637 75.0987 60.1562 76.7589 61.8164L93.214 78.1738C96.4366 81.3477 99.9522 81.3477 103.175 78.1738L119.581 61.8164C121.29 60.1562 121.339 57.7637 119.728 56.1035C118.067 54.4434 115.724 54.5898 114.064 56.25L109.376 60.8398L102.15 68.5547L102.15 15.2344C102.15 5.12695 97.0226 0.0976562 86.8175 0.0976562L47.0714 0.0976562C44.2882 0.0976562 42.6769 1.51367 42.7257 4.00391Z" fill="#000000" fill-opacity="0.85"/>
 </g>
</svg>
