<?xml version="1.0" encoding="UTF-8"?>
<!--Generator: Apple Native CoreSVG 232.5-->
<!DOCTYPE svg
PUBLIC "-//W3C//DTD SVG 1.1//EN"
       "http://www.w3.org/Graphics/SVG/1.1/DTD/svg11.dtd">
<svg version="1.1" xmlns="http://www.w3.org/2000/svg" xmlns:xlink="http://www.w3.org/1999/xlink" width="115.137" height="89.8926">
 <g>
  <rect height="89.8926" opacity="0" width="115.137" x="0" y="0"/>
  <path d="M15.332 89.8926L99.8047 89.8926C110.059 89.8926 115.137 84.8633 115.137 74.8047L115.137 15.1367C115.137 5.07812 110.059 0 99.8047 0L15.332 0C5.12695 0 0 5.07812 0 15.1367L0 74.8047C0 84.8633 5.12695 89.8926 15.332 89.8926ZM15.4297 82.0312C10.5469 82.0312 7.86133 79.4434 7.86133 74.3652L7.86133 15.5762C7.86133 10.498 10.5469 7.86133 15.4297 7.86133L99.707 7.86133C104.541 7.86133 107.275 10.498 107.275 15.5762L107.275 74.3652C107.275 79.4434 104.541 82.0312 99.707 82.0312Z" fill="#000000" fill-opacity="0.85"/>
  <path d="M17.7246 52.1973C17.7246 54.0527 19.3848 55.7129 21.2891 55.7129C22.1191 55.7129 22.9492 55.3223 23.877 54.3945L44.5312 33.7891L47.998 29.9805L47.5586 41.4062L47.5586 46.1426C47.5586 48.291 48.9258 49.707 50.9766 49.707C53.0273 49.707 54.4434 48.291 54.4434 46.1426L54.4434 22.6074C54.4434 20.5078 52.9785 19.0918 50.8301 19.0918L26.6113 19.0918C24.4629 19.0918 23.0469 20.459 23.0469 22.5098C23.0469 24.5605 24.5605 25.9766 26.6113 25.9766L31.3965 25.9766L43.4082 25.4883L39.6484 28.9551L19.043 49.5605C18.1152 50.4883 17.7246 51.3184 17.7246 52.1973ZM98.0957 37.6953C98.0957 35.8398 96.4844 34.1797 94.5801 34.1797C93.75 34.1797 92.9199 34.5703 91.9434 35.498L71.3379 56.1035L67.8711 59.9121L68.3105 48.4863L68.3105 43.75C68.3105 41.6016 66.9434 40.1855 64.8926 40.1855C62.8418 40.1855 61.4258 41.6016 61.4258 43.75L61.4258 67.2852C61.4258 69.3848 62.8906 70.8496 65.0391 70.8496L89.2578 70.8496C91.3574 70.8496 92.8223 69.4336 92.8223 67.3828C92.8223 65.332 91.2598 63.9648 89.2578 63.9648L84.4727 63.9648L72.4609 64.4043L76.1719 60.9863L96.8262 40.332C97.7539 39.4043 98.0957 38.5742 98.0957 37.6953Z" fill="#000000" fill-opacity="0.85"/>
 </g>
</svg>
