<?xml version="1.0" encoding="UTF-8"?>
<!--Generator: Apple Native CoreSVG 232.5-->
<!DOCTYPE svg
PUBLIC "-//W3C//DTD SVG 1.1//EN"
       "http://www.w3.org/Graphics/SVG/1.1/DTD/svg11.dtd">
<svg version="1.1" xmlns="http://www.w3.org/2000/svg" xmlns:xlink="http://www.w3.org/1999/xlink" width="115.137" height="89.8926">
 <g>
  <rect height="89.8926" opacity="0" width="115.137" x="0" y="0"/>
  <path d="M15.332 89.8926L99.8047 89.8926C110.059 89.8926 115.137 84.8633 115.137 74.8047L115.137 15.1367C115.137 5.07812 110.059 0 99.8047 0L15.332 0C5.12695 0 0 5.07812 0 15.1367L0 74.8047C0 84.8633 5.12695 89.8926 15.332 89.8926ZM15.4297 82.0312C10.5469 82.0312 7.86133 79.4434 7.86133 74.3652L7.86133 15.5762C7.86133 10.498 10.5469 7.86133 15.4297 7.86133L99.707 7.86133C104.541 7.86133 107.275 10.498 107.275 15.5762L107.275 74.3652C107.275 79.4434 104.541 82.0312 99.707 82.0312Z" fill="#000000" fill-opacity="0.85"/>
  <path d="M46.2891 19.5312C44.1406 19.5312 42.7246 20.9961 42.7246 23.3398L42.7246 31.1035L43.457 38.7207L36.4258 31.2012L21.6797 16.4551C20.9961 15.7715 20.1172 15.332 18.9453 15.332C16.748 15.332 15.332 16.7969 15.332 18.9941C15.332 19.9707 15.8203 20.8984 16.5039 21.582L31.25 36.3281L38.8672 43.457L31.6406 42.6758L23.4375 42.6758C21.0938 42.6758 19.5801 44.0918 19.5801 46.2402C19.5801 48.3887 21.0449 49.8047 23.3398 49.8047L45.8008 49.8047C48.291 49.8047 49.9023 48.6816 49.9023 45.752L49.9023 23.4375C49.9023 21.1426 48.4375 19.5312 46.2891 19.5312Z" fill="#000000" fill-opacity="0.85"/>
 </g>
</svg>
