<?xml version="1.0" encoding="UTF-8"?>
<!--Generator: Apple Native CoreSVG 232.5-->
<!DOCTYPE svg
PUBLIC "-//W3C//DTD SVG 1.1//EN"
       "http://www.w3.org/Graphics/SVG/1.1/DTD/svg11.dtd">
<svg version="1.1" xmlns="http://www.w3.org/2000/svg" xmlns:xlink="http://www.w3.org/1999/xlink" width="95.3613" height="113.33">
 <g>
  <rect height="113.33" opacity="0" width="95.3613" x="0" y="0"/>
  <path d="M1.31836 16.8457L14.4043 26.6113C17.041 28.5645 20.3613 27.5391 20.3613 24.0234L20.3613 17.1387L75 17.1387L75 24.0234C75 27.4414 78.2227 28.6621 80.957 26.6113L94.043 16.8457C95.8008 15.4785 95.752 12.9395 94.043 11.6699L80.957 1.95312C78.2227-0.0976562 75 1.12305 75 4.49219L75 11.4746L20.3613 11.4746L20.3613 4.49219C20.3613 1.12305 17.1387-0.0976562 14.4043 1.95312L1.31836 11.6699C-0.439453 12.9883-0.439453 15.4785 1.31836 16.8457Z" fill="#000000" fill-opacity="0.85"/>
  <path d="M82.373 43.5547L82.373 109.57C82.373 111.67 83.9844 113.33 86.0352 113.33C88.1348 113.33 89.7461 111.67 89.7461 109.57L89.7461 43.5547C89.7461 41.5039 88.1348 39.8926 86.0352 39.8926C83.9844 39.8926 82.373 41.5039 82.373 43.5547ZM56.7871 43.5547L56.7871 109.57C56.7871 111.67 58.3984 113.33 60.4492 113.33C62.5488 113.33 64.1602 111.67 64.1602 109.57L64.1602 43.5547C64.1602 41.5039 62.5488 39.8926 60.4492 39.8926C58.3984 39.8926 56.7871 41.5039 56.7871 43.5547ZM31.2012 43.5547L31.2012 109.57C31.2012 111.67 32.8125 113.33 34.9121 113.33C36.9629 113.33 38.5742 111.67 38.5742 109.57L38.5742 43.5547C38.5742 41.5039 36.9629 39.8926 34.9121 39.8926C32.8125 39.8926 31.2012 41.5039 31.2012 43.5547ZM5.61523 43.5547L5.61523 78.2715C5.61523 80.3711 7.22656 82.0312 9.32617 82.0312C11.377 82.0312 12.9883 80.3711 12.9883 78.2715L12.9883 43.5547C12.9883 41.5039 11.377 39.8926 9.32617 39.8926C7.22656 39.8926 5.61523 41.5039 5.61523 43.5547Z" fill="#000000" fill-opacity="0.85"/>
 </g>
</svg>
