<?xml version="1.0" encoding="UTF-8"?>
<!--Generator: Apple Native CoreSVG 232.5-->
<!DOCTYPE svg
PUBLIC "-//W3C//DTD SVG 1.1//EN"
       "http://www.w3.org/Graphics/SVG/1.1/DTD/svg11.dtd">
<svg version="1.1" xmlns="http://www.w3.org/2000/svg" xmlns:xlink="http://www.w3.org/1999/xlink" width="89.8926" height="89.9902">
 <g>
  <rect height="89.9902" opacity="0" width="89.8926" x="0" y="0"/>
  <path d="M89.8926 15.2344L89.8926 74.8535C89.8926 84.9121 84.8145 89.9902 74.5605 89.9902L15.332 89.9902C5.12695 89.9902 0 84.9609 0 74.8535L0 15.2344C0 5.12695 5.12695 0.0976562 15.332 0.0976562L74.5605 0.0976562C84.8145 0.0976562 89.8926 5.17578 89.8926 15.2344ZM18.8477 48.7305L18.8477 66.8457C18.8477 69.9707 20.4102 71.1914 23.1445 71.1914L41.2109 71.1914C43.2617 71.1914 44.873 69.5312 44.873 67.4805C44.873 65.4297 43.2617 63.8184 41.2109 63.8184L38.6719 63.8184L30.7617 64.3066L42.3828 53.2227C43.8965 51.7578 43.9453 49.1699 42.4316 47.6562C40.918 46.0938 38.3789 46.0449 36.8652 47.7051L25.7324 59.4238L26.2207 51.2695L26.2207 48.7305C26.2207 46.6797 24.5605 45.0684 22.5098 45.0684C20.459 45.0684 18.8477 46.6797 18.8477 48.7305ZM48.7793 18.8477C46.7285 18.8477 45.0684 20.5078 45.0684 22.5586C45.0684 24.6094 46.7285 26.2207 48.7793 26.2207L51.3184 26.2207L59.2285 25.7324L47.5586 36.8164C46.0449 38.2812 45.9961 40.8691 47.5098 42.3828C49.0723 43.9453 51.5625 43.9941 53.125 42.334L64.2578 30.6152L63.7695 38.7695L63.7695 41.3086C63.7695 43.3594 65.3809 44.9707 67.4316 44.9707C69.4824 44.9707 71.1426 43.3594 71.1426 41.3086L71.1426 23.1934C71.1426 20.0684 69.5312 18.8477 66.7969 18.8477Z" fill="#000000" fill-opacity="0.85"/>
 </g>
</svg>
