<?xml version="1.0" encoding="UTF-8"?>
<!--Generator: Apple Native CoreSVG 232.5-->
<!DOCTYPE svg
PUBLIC "-//W3C//DTD SVG 1.1//EN"
       "http://www.w3.org/Graphics/SVG/1.1/DTD/svg11.dtd">
<svg version="1.1" xmlns="http://www.w3.org/2000/svg" xmlns:xlink="http://www.w3.org/1999/xlink" width="101.025" height="75.9277">
 <g>
  <rect height="75.9277" opacity="0" width="101.025" x="0" y="0"/>
  <path d="M4.3457 74.0234C6.93359 74.0234 8.74023 72.3145 8.74023 69.8242L8.74023 4.3457C8.74023 1.80664 6.93359 0 4.3457 0C1.80664 0 0 1.80664 0 4.3457L0 69.8242C0 72.3145 1.80664 74.0234 4.3457 74.0234ZM45.8008 74.0234C48.2422 74.0234 50.0977 72.2656 50.0977 69.8242C50.0977 68.7012 49.6582 67.5293 48.9258 66.748L37.9883 55.6152L18.7988 38.1836L17.8223 40.8691L32.373 41.4062L96.7285 41.4062C99.2188 41.4062 101.025 39.5508 101.025 37.0117C101.025 34.4727 99.2188 32.666 96.7285 32.666L32.373 32.666L17.8223 33.2031L18.7988 35.9375L37.9883 18.4082L48.9258 7.32422C49.6582 6.54297 50.0977 5.37109 50.0977 4.19922C50.0977 1.80664 48.2422 0 45.8008 0C44.6777 0 43.6523 0.439453 42.6758 1.36719L10.2051 33.7402C9.22852 34.7168 8.69141 35.8398 8.69141 37.0117C8.69141 38.2324 9.22852 39.3555 10.2051 40.2832L42.6758 72.7051C43.6523 73.6328 44.6777 74.0234 45.8008 74.0234Z" fill="#000000" fill-opacity="0.85"/>
 </g>
</svg>
