<?xml version="1.0" encoding="UTF-8"?>
<!--Generator: Apple Native CoreSVG 232.5-->
<!DOCTYPE svg
PUBLIC "-//W3C//DTD SVG 1.1//EN"
       "http://www.w3.org/Graphics/SVG/1.1/DTD/svg11.dtd">
<svg version="1.1" xmlns="http://www.w3.org/2000/svg" xmlns:xlink="http://www.w3.org/1999/xlink" width="99.6094" height="99.6582">
 <g>
  <rect height="99.6582" opacity="0" width="99.6094" x="0" y="0"/>
  <path d="M99.6094 49.8047C99.6094 77.002 77.0508 99.6094 49.8047 99.6094C22.6074 99.6094 0 77.002 0 49.8047C0 22.5586 22.5586 0 49.7559 0C77.002 0 99.6094 22.5586 99.6094 49.8047ZM68.6035 53.5645L68.6035 56.1035L69.0918 64.2578L57.959 52.5391C56.3965 50.8789 53.9062 50.9277 52.3438 52.4902C50.8301 54.0039 50.8789 56.5918 52.3926 58.0566L64.0625 69.1406L56.1523 68.6523L53.6133 68.6523C51.5625 68.6523 49.9023 70.2637 49.9023 72.3145C49.9023 74.3652 51.5625 76.0254 53.6133 76.0254L71.6309 76.0254C74.3652 76.0254 75.9766 74.8047 75.9766 71.6797L75.9766 53.5645C75.9766 51.5137 74.3164 49.9023 72.2656 49.9023C70.2148 49.9023 68.6035 51.5137 68.6035 53.5645ZM27.9785 23.6816C25.2441 23.6816 23.6816 24.9023 23.6816 28.0273L23.6816 46.1426C23.6816 48.1934 25.293 49.8047 27.3438 49.8047C29.3945 49.8047 31.0547 48.1934 31.0547 46.1426L31.0547 43.6035L30.5176 35.4492L41.6992 47.168C43.2129 48.8281 45.752 48.7793 47.2656 47.2168C48.7793 45.7031 48.7305 43.1152 47.2168 41.6504L35.5957 30.5664L43.5059 31.0547L46.0449 31.0547C48.0957 31.0547 49.707 29.4434 49.707 27.3926C49.707 25.3418 48.0957 23.6816 46.0449 23.6816Z" fill="#000000" fill-opacity="0.85"/>
 </g>
</svg>
