<?xml version="1.0" encoding="UTF-8"?>
<!--Generator: Apple Native CoreSVG 232.5-->
<!DOCTYPE svg
PUBLIC "-//W3C//DTD SVG 1.1//EN"
       "http://www.w3.org/Graphics/SVG/1.1/DTD/svg11.dtd">
<svg version="1.1" xmlns="http://www.w3.org/2000/svg" xmlns:xlink="http://www.w3.org/1999/xlink" width="99.6094" height="99.6582">
 <g>
  <rect height="99.6582" opacity="0" width="99.6094" x="0" y="0"/>
  <path d="M99.6094 49.8535C99.6094 77.0996 77.0508 99.6582 49.8047 99.6582C22.6074 99.6582 0 77.0996 0 49.8535C0 22.6562 22.5586 0.0488281 49.7559 0.0488281C77.002 0.0488281 99.6094 22.6562 99.6094 49.8535ZM46.875 20.5078L26.4648 42.1387C25.293 43.457 24.707 44.4824 24.707 45.8496C24.707 47.7051 26.0254 49.0723 27.9297 49.0723L39.0137 49.0723L39.0137 71.8262C39.0137 75.8301 41.2598 78.125 45.1172 78.125L54.4434 78.125C58.3008 78.125 60.5957 75.8301 60.5957 71.8262L60.5957 49.0723L71.582 49.0723C73.3887 49.0723 74.9023 47.7051 74.9023 45.752C74.9023 44.4336 74.3164 43.6035 72.9492 42.1387L52.7832 20.5078C51.7578 19.4336 50.7324 19.0918 49.8047 19.0918C48.9258 19.0918 47.8516 19.4336 46.875 20.5078Z" fill="#000000" fill-opacity="0.85"/>
 </g>
</svg>
