<?xml version="1.0" encoding="UTF-8"?>
<!--Generator: Apple Native CoreSVG 232.5-->
<!DOCTYPE svg
PUBLIC "-//W3C//DTD SVG 1.1//EN"
       "http://www.w3.org/Graphics/SVG/1.1/DTD/svg11.dtd">
<svg version="1.1" xmlns="http://www.w3.org/2000/svg" xmlns:xlink="http://www.w3.org/1999/xlink" width="89.8926" height="89.9902">
 <g>
  <rect height="89.9902" opacity="0" width="89.8926" x="0" y="0"/>
  <path d="M15.332 89.9902L74.5605 89.9902C84.8145 89.9902 89.8926 84.9121 89.8926 74.8535L89.8926 15.2344C89.8926 5.17578 84.8145 0.0976562 74.5605 0.0976562L15.332 0.0976562C5.12695 0.0976562 0 5.12695 0 15.2344L0 74.8535C0 84.9609 5.12695 89.9902 15.332 89.9902ZM15.4297 82.1289C10.5469 82.1289 7.86133 79.541 7.86133 74.4629L7.86133 15.625C7.86133 10.5469 10.5469 7.95898 15.4297 7.95898L74.4629 7.95898C79.2969 7.95898 82.0312 10.5469 82.0312 15.625L82.0312 74.4629C82.0312 79.541 79.2969 82.1289 74.4629 82.1289Z" fill="#000000" fill-opacity="0.85"/>
  <path d="M45.0684 14.5996C43.9941 14.5996 43.1152 15.0879 42.1875 16.0156L28.0762 30.0781C27.4414 30.7129 27.0508 31.5918 27.0508 32.6172C27.0508 34.6191 28.6133 36.1328 30.6152 36.1328C31.6895 36.1328 32.5684 35.7422 33.252 35.0586L36.8652 31.3477L41.7969 25.4395L41.4062 35.791L41.4062 54.1504L41.7969 64.502L36.8652 58.5938L33.252 54.8828C32.5684 54.1504 31.6895 53.8086 30.6152 53.8086C28.6133 53.8086 27.0508 55.3223 27.0508 57.3242C27.0508 58.3008 27.4414 59.2285 28.0762 59.8633L42.1875 73.9258C43.1152 74.8535 43.9941 75.3418 45.0684 75.3418C46.0938 75.3418 46.9238 74.8535 47.9004 73.9258L62.0605 59.8633C62.6953 59.2285 63.0371 58.3008 63.0371 57.3242C63.0371 55.3223 61.5234 53.8086 59.5215 53.8086C58.4473 53.8086 57.5684 54.1992 56.9336 54.8828L53.2715 58.5938L48.3398 64.4531L48.7305 54.1504L48.7305 35.791L48.3398 25.4883L53.2715 31.3477L56.9336 35.0586C57.5684 35.6934 58.4473 36.1328 59.5215 36.1328C61.5234 36.1328 63.0371 34.6191 63.0371 32.6172C63.0371 31.5918 62.6953 30.7129 62.0605 30.0781L47.9004 16.0156C46.9238 15.0879 46.0938 14.5996 45.0684 14.5996Z" fill="#000000" fill-opacity="0.85"/>
 </g>
</svg>
