<?xml version="1.0" encoding="UTF-8"?>
<!--Generator: Apple Native CoreSVG 232.5-->
<!DOCTYPE svg
PUBLIC "-//W3C//DTD SVG 1.1//EN"
       "http://www.w3.org/Graphics/SVG/1.1/DTD/svg11.dtd">
<svg version="1.1" xmlns="http://www.w3.org/2000/svg" xmlns:xlink="http://www.w3.org/1999/xlink" width="72.1191" height="72.2168">
 <g>
  <rect height="72.2168" opacity="0" width="72.1191" x="0" y="0"/>
  <path d="M72.1191 18.4082C72.1191 15.7227 70.0195 13.7695 67.6758 13.7695C65.2832 13.7695 63.2812 15.8691 63.2812 18.2129L63.2812 36.2305L64.1602 59.0332L56.1035 49.9512L7.61719 1.46484C6.73828 0.585938 5.66406 0.146484 4.54102 0.146484C2.09961 0.146484 0 2.39258 0 4.73633C0 5.76172 0.488281 6.93359 1.36719 7.8125L49.7559 56.25L58.8379 64.2578L35.0098 63.4766L18.0176 63.4766C15.7227 63.4766 13.623 65.4785 13.623 67.8223C13.623 70.166 15.4785 72.2168 18.2129 72.2168L67.334 72.2168C70.2637 72.2168 72.0703 70.3125 72.0703 67.5293Z" fill="#000000" fill-opacity="0.85"/>
 </g>
</svg>
