<?xml version="1.0" encoding="UTF-8"?>
<!--Generator: Apple Native CoreSVG 232.5-->
<!DOCTYPE svg
PUBLIC "-//W3C//DTD SVG 1.1//EN"
       "http://www.w3.org/Graphics/SVG/1.1/DTD/svg11.dtd">
<svg version="1.1" xmlns="http://www.w3.org/2000/svg" xmlns:xlink="http://www.w3.org/1999/xlink" width="131.25" height="95.752">
 <g>
  <rect height="95.752" opacity="0" width="131.25" x="0" y="0"/>
  <path d="M61.8164 34.9609C61.8164 36.377 62.8906 37.5 64.4043 37.6953C87.4023 40.2832 90.7715 43.5059 93.8477 67.2363C94.0918 68.7012 95.2148 69.6777 96.5332 69.6777C97.9004 69.6777 99.0234 68.7012 99.2676 67.2363C102.344 43.5059 105.664 40.2832 128.662 37.6953C130.225 37.5 131.25 36.377 131.25 34.9609C131.25 33.5449 130.225 32.4219 128.662 32.2266C105.713 29.6387 102.344 26.3672 99.2676 2.68555C99.0234 1.26953 97.9492 0.292969 96.5332 0.292969C95.166 0.292969 94.0918 1.26953 93.8477 2.68555C90.5762 26.2207 87.4512 29.1504 64.4043 32.2266C62.8906 32.4219 61.8164 33.5449 61.8164 34.9609ZM57.1777 77.4902C57.1777 78.4668 57.8613 79.2969 58.9355 79.541C71.3867 81.8848 71.6309 81.7383 73.0469 93.457C73.2422 94.5801 74.0234 95.4102 75.0977 95.4102C76.2207 95.4102 77.002 94.6289 77.1973 93.5059C78.7598 81.25 79.2969 81.25 91.2109 79.541C92.334 79.3457 93.0664 78.5156 93.0664 77.4902C93.0664 76.5137 92.3828 75.6348 91.2598 75.4395C79.1504 73.0957 78.8086 73.3887 77.1973 61.4258C77.002 60.3516 76.1719 59.5703 75.0977 59.5703C74.0234 59.5703 73.2422 60.4004 73.0469 61.5234C71.6309 73.2422 71.3379 73.4375 59.1309 75.4395C57.9102 75.6348 57.1777 76.416 57.1777 77.4902Z" fill="#000000" fill-opacity="0.85"/>
  <path d="M0 69.043C0 70.1172 0.537109 71.3867 1.36719 72.2168L22.9004 94.2871C23.8281 95.2637 24.9512 95.752 26.1719 95.752C27.3438 95.752 28.4668 95.2637 29.3945 94.2871L50.9766 72.2168C51.8066 71.3867 52.2949 70.1172 52.2949 69.043C52.2949 66.4551 50.5371 64.7461 47.998 64.7461C46.7285 64.7461 45.752 65.1367 45.0195 65.918L37.9395 73.3887L30.0293 82.4707L30.5176 71.1914L30.5176 24.5605L30.0293 13.2812L37.9395 22.3633L45.0195 29.834C45.752 30.6152 46.7285 31.0059 47.998 31.0059C50.5371 31.0059 52.2949 29.2969 52.2949 26.709C52.2949 25.6348 51.8066 24.3652 50.9766 23.5352L29.3945 1.46484C28.4668 0.488281 27.3438 0 26.1719 0C24.9512 0 23.8281 0.488281 22.9004 1.46484L1.36719 23.5352C0.537109 24.3652 0 25.6348 0 26.709C0 29.2969 1.75781 31.0059 4.29688 31.0059C5.56641 31.0059 6.5918 30.5664 7.27539 29.834L14.4043 22.3633L22.2656 13.2812L21.7773 24.5605L21.7773 71.1914L22.2656 82.4707L14.4043 73.3887L7.27539 65.918C6.5918 65.1855 5.56641 64.7461 4.29688 64.7461C1.75781 64.7461 0 66.4551 0 69.043Z" fill="#000000" fill-opacity="0.85"/>
 </g>
</svg>
