<?xml version="1.0" encoding="UTF-8"?>
<!--Generator: Apple Native CoreSVG 232.5-->
<!DOCTYPE svg
PUBLIC "-//W3C//DTD SVG 1.1//EN"
       "http://www.w3.org/Graphics/SVG/1.1/DTD/svg11.dtd">
<svg version="1.1" xmlns="http://www.w3.org/2000/svg" xmlns:xlink="http://www.w3.org/1999/xlink" width="132.031" height="90.8691">
 <g>
  <rect height="90.8691" opacity="0" width="132.031" x="0" y="0"/>
  <path d="M45.3125 90.8691C47.5098 90.8691 48.8281 89.7949 49.3164 87.8418C54.5898 71.5332 62.9883 65.7715 76.8555 65.7715L78.6133 65.8203L78.6133 84.4727C78.6133 87.7441 81.0059 90.1855 84.3262 90.1855C86.7188 90.1855 88.6719 89.209 91.0156 87.0117L129.59 50.6348C131.445 48.877 132.031 47.0215 132.031 45.4102C132.031 43.75 131.445 41.8945 129.59 40.1367L91.0156 4.10156C88.4277 1.66016 86.8164 0.585938 84.4238 0.585938C81.0059 0.585938 78.6133 3.32031 78.6133 6.5918L78.6133 25.0488L77.1973 25.0488C61.8652 25.0488 48.5352 34.1309 45.5078 52.3926L44.9707 52.3926C41.6016 32.1777 27.7344 25.0488 14.5996 25.0488C14.3555 25.0488 13.5742 25.0488 11.8652 25.0488C5.12695 25.0488 2.44141 27.5879 2.44141 34.8633L2.44141 58.2031C2.44141 63.7207 5.07812 66.0645 11.4258 66.0645C12.8906 66.0645 14.209 66.0645 15.7227 66.0645C29.0527 66.0645 37.8418 74.9512 41.3574 87.793C41.7969 89.7949 43.0664 90.8691 45.3125 90.8691ZM42.7246 76.8555C37.2559 62.9883 27.3438 58.4961 15.1367 58.3984C14.1602 58.3984 13.1348 58.3984 12.207 58.3984C10.9863 58.3984 10.3027 57.666 10.3027 56.25L10.3027 34.8633C10.3027 33.4473 10.9863 32.666 12.3047 32.666C13.2812 32.666 14.0625 32.666 15.0391 32.666C29.7852 32.8613 42.334 43.2617 43.2617 76.8555ZM87.1582 79.6875C86.7188 79.6875 86.4746 79.3945 86.4746 78.9551L86.4746 60.0586C86.4746 58.9355 85.9375 58.4473 84.8145 58.4473L76.6113 58.3984C62.3535 58.3984 52.9297 64.1113 47.9492 76.8555L47.4121 76.8555C48.1934 46.9727 59.082 32.4219 77.4414 32.4219L84.8145 32.4219C85.9375 32.4219 86.4746 31.9336 86.4746 30.8105L86.4746 11.4258C86.4746 11.0352 86.7676 10.7422 87.1582 10.7422C87.5 10.7422 87.7441 10.9375 87.9883 11.1328L122.754 44.4824C123.145 44.8242 123.291 45.1172 123.291 45.4102C123.291 45.7031 123.145 45.9473 122.754 46.3379L87.9883 79.248C87.6953 79.541 87.4023 79.6875 87.1582 79.6875Z" fill="#000000" fill-opacity="0.85"/>
 </g>
</svg>
