<?xml version="1.0" encoding="UTF-8"?>
<!--Generator: Apple Native CoreSVG 232.5-->
<!DOCTYPE svg
PUBLIC "-//W3C//DTD SVG 1.1//EN"
       "http://www.w3.org/Graphics/SVG/1.1/DTD/svg11.dtd">
<svg version="1.1" xmlns="http://www.w3.org/2000/svg" xmlns:xlink="http://www.w3.org/1999/xlink" width="89.8926" height="89.9902">
 <g>
  <rect height="89.9902" opacity="0" width="89.8926" x="0" y="0"/>
  <path d="M15.332 89.9902L74.5605 89.9902C84.8145 89.9902 89.8926 84.9121 89.8926 74.8535L89.8926 15.2344C89.8926 5.17578 84.8145 0.0976562 74.5605 0.0976562L15.332 0.0976562C5.12695 0.0976562 0 5.12695 0 15.2344L0 74.8535C0 84.9609 5.12695 89.9902 15.332 89.9902ZM15.4297 82.1289C10.5469 82.1289 7.86133 79.541 7.86133 74.4629L7.86133 15.625C7.86133 10.5469 10.5469 7.95898 15.4297 7.95898L74.4629 7.95898C79.2969 7.95898 82.0312 10.5469 82.0312 15.625L82.0312 74.4629C82.0312 79.541 79.2969 82.1289 74.4629 82.1289Z" fill="#000000" fill-opacity="0.85"/>
  <path d="M16.5039 45.0195C16.5039 46.9727 17.8711 48.3398 19.7266 48.3398L42.1387 48.3398L51.123 47.7539L41.2109 56.5918L38.0859 59.4727C37.4023 60.0586 37.1094 60.8398 37.1094 61.8164C37.1094 63.6719 38.4766 64.9902 40.332 64.9902C41.1133 64.9902 42.1387 64.5508 42.8223 63.916L59.6191 47.4609C60.3516 46.7773 60.7422 45.9473 60.7422 45.0195C60.7422 44.1406 60.3027 43.2617 59.6191 42.5781L42.7734 25.9766C42.041 25.2441 41.2109 25 40.332 25C38.5742 25 37.1094 26.2695 37.1094 28.125C37.1094 29.0039 37.4023 29.834 38.0859 30.5176L41.1621 33.4961L51.0742 42.2852L42.1387 41.7969L19.7266 41.7969C17.8711 41.7969 16.5039 43.1641 16.5039 45.0195ZM67.6758 66.5527C69.6289 66.5527 70.9961 65.2344 70.9961 63.3301L70.9961 26.6602C70.9961 24.7559 69.6289 23.3887 67.6758 23.3887C65.8203 23.3887 64.4531 24.7559 64.4531 26.6602L64.4531 63.3301C64.4531 65.2344 65.8203 66.5527 67.6758 66.5527Z" fill="#000000" fill-opacity="0.85"/>
 </g>
</svg>
