<?xml version="1.0" encoding="UTF-8"?>
<!--Generator: Apple Native CoreSVG 232.5-->
<!DOCTYPE svg
PUBLIC "-//W3C//DTD SVG 1.1//EN"
       "http://www.w3.org/Graphics/SVG/1.1/DTD/svg11.dtd">
<svg version="1.1" xmlns="http://www.w3.org/2000/svg" xmlns:xlink="http://www.w3.org/1999/xlink" width="99.6094" height="99.6582">
 <g>
  <rect height="99.6582" opacity="0" width="99.6094" x="0" y="0"/>
  <path d="M99.6094 49.8535C99.6094 77.0996 77.0508 99.6582 49.8047 99.6582C22.6074 99.6582 0 77.0996 0 49.8535C0 22.6562 22.5586 0.0488281 49.7559 0.0488281C77.002 0.0488281 99.6094 22.6562 99.6094 49.8535ZM30.9082 69.9219C28.9551 69.9219 27.5391 71.3379 27.5391 73.2422C27.5391 75.2441 28.9551 76.709 30.9082 76.709L68.75 76.709C70.7031 76.709 72.0703 75.2441 72.0703 73.2422C72.0703 71.3379 70.7031 69.9219 68.75 69.9219ZM46.3379 23.8281L46.3379 46.875L46.9238 56.1523L37.7441 45.8496L34.9121 42.7246C34.2773 41.9922 33.4961 41.6992 32.4219 41.6992C30.5176 41.6992 29.1992 43.0664 29.1992 45.0195C29.1992 45.8496 29.5898 46.875 30.2246 47.5098L47.2168 64.8926C47.9492 65.7227 48.8281 66.0645 49.7559 66.0645C50.6836 66.0645 51.5625 65.625 52.2949 64.8926L69.3359 47.6074C70.166 46.8262 70.4102 45.9473 70.4102 44.9707C70.4102 43.1641 69.0918 41.6992 67.2363 41.6992C66.2598 41.6992 65.3809 41.9922 64.6973 42.7246L61.6211 45.8984L52.5879 56.1035L53.125 46.875L53.125 23.8281C53.125 21.875 51.6602 20.4102 49.7559 20.4102C47.7051 20.4102 46.3379 21.875 46.3379 23.8281Z" fill="#000000" fill-opacity="0.85"/>
 </g>
</svg>
