<?xml version="1.0" encoding="UTF-8"?>
<!--Generator: Apple Native CoreSVG 232.5-->
<!DOCTYPE svg
PUBLIC "-//W3C//DTD SVG 1.1//EN"
       "http://www.w3.org/Graphics/SVG/1.1/DTD/svg11.dtd">
<svg version="1.1" xmlns="http://www.w3.org/2000/svg" xmlns:xlink="http://www.w3.org/1999/xlink" width="99.6094" height="99.6582">
 <g>
  <rect height="99.6582" opacity="0" width="99.6094" x="0" y="0"/>
  <path d="M49.8047 99.6094C77.0508 99.6094 99.6094 77.002 99.6094 49.8047C99.6094 22.5586 77.002 0 49.7559 0C22.5586 0 0 22.5586 0 49.8047C0 77.002 22.6074 99.6094 49.8047 99.6094ZM49.8047 91.3086C26.7578 91.3086 8.34961 72.8516 8.34961 49.8047C8.34961 26.7578 26.709 8.30078 49.7559 8.30078C72.8027 8.30078 91.3086 26.7578 91.3086 49.8047C91.3086 72.8516 72.8516 91.3086 49.8047 91.3086Z" fill="#000000" fill-opacity="0.85"/>
  <path d="M54.3457 24.707C42.5781 24.707 35.498 33.1543 35.498 44.5801L35.498 59.1309L35.6445 64.9414L32.6172 61.084L27.7344 56.0059C27.0996 55.3711 26.2207 54.9316 25.1953 54.9316C23.1934 54.9316 21.6309 56.4453 21.6309 58.3984C21.6309 59.4238 21.9727 60.2539 22.7051 60.9375L35.8887 73.877C36.7188 74.707 37.7441 75.1953 38.8672 75.1953C40.0391 75.1953 41.0156 74.707 41.8457 73.877L55.127 60.8887C55.8105 60.2051 56.1523 59.375 56.1523 58.3496C56.1523 56.4453 54.6387 54.9316 52.5879 54.9316C51.6602 54.9316 50.7324 55.2734 50.0977 55.957L44.1895 62.1094L42.0898 64.9414L42.334 59.1309L42.334 44.5801C42.334 37.4023 46.4355 31.8848 53.9551 31.8848C61.6699 31.8848 66.4062 37.2559 66.4062 44.6289C66.4062 45.2148 66.4062 51.2207 66.4062 51.416C66.4062 53.4668 67.627 55.0781 69.873 55.0781C72.168 55.0781 73.3887 53.4668 73.3887 51.3184C73.3887 51.0742 73.3887 45.2148 73.3887 44.6289C73.3887 33.2031 66.0645 24.707 54.3457 24.707Z" fill="#000000" fill-opacity="0.85"/>
 </g>
</svg>
