<?xml version="1.0" encoding="UTF-8"?>
<!--Generator: Apple Native CoreSVG 232.5-->
<!DOCTYPE svg
PUBLIC "-//W3C//DTD SVG 1.1//EN"
       "http://www.w3.org/Graphics/SVG/1.1/DTD/svg11.dtd">
<svg version="1.1" xmlns="http://www.w3.org/2000/svg" xmlns:xlink="http://www.w3.org/1999/xlink" width="89.8926" height="89.9902">
 <g>
  <rect height="89.9902" opacity="0" width="89.8926" x="0" y="0"/>
  <path d="M15.332 89.9902L74.5605 89.9902C84.8145 89.9902 89.8926 84.9121 89.8926 74.8535L89.8926 15.2344C89.8926 5.17578 84.8145 0.0976562 74.5605 0.0976562L15.332 0.0976562C5.12695 0.0976562 0 5.12695 0 15.2344L0 74.8535C0 84.9609 5.12695 89.9902 15.332 89.9902ZM15.4297 82.1289C10.5469 82.1289 7.86133 79.541 7.86133 74.4629L7.86133 15.625C7.86133 10.5469 10.5469 7.95898 15.4297 7.95898L74.4629 7.95898C79.2969 7.95898 82.0312 10.5469 82.0312 15.625L82.0312 74.4629C82.0312 79.541 79.2969 82.1289 74.4629 82.1289Z" fill="#000000" fill-opacity="0.85"/>
  <path d="M66.5039 44.3359C68.4082 44.3359 69.9707 42.7734 69.9707 40.8691C69.9707 38.9648 68.4082 37.4512 66.5039 37.4512L64.1113 37.4512L56.6406 37.9395L69.8242 25.293C71.2402 23.877 71.2891 21.5332 69.873 20.1172C68.457 18.6523 66.1133 18.6523 64.6973 20.166L51.9531 33.3984L52.4414 25.6836L52.4414 23.291C52.4414 21.3867 50.9277 19.873 49.0234 19.873C47.1191 19.873 45.5566 21.3867 45.5566 23.291L45.5566 40.2832C45.5566 43.2129 47.0703 44.3359 49.6094 44.3359ZM40.918 70.0195C42.8223 70.0195 44.3848 68.5059 44.3848 66.6016L44.3848 49.5605C44.3848 46.6797 42.8711 45.5566 40.332 45.5566L23.4375 45.5566C21.5332 45.5566 19.9707 47.0703 19.9707 49.0234C19.9707 50.9277 21.5332 52.4414 23.4375 52.4414L25.8301 52.4414L33.3008 51.9531L20.1172 64.5996C18.7012 65.9668 18.6523 68.3594 20.0684 69.7754C21.4844 71.2402 23.8281 71.2402 25.2441 69.7266L37.9883 56.4941L37.5 64.209L37.5 66.6016C37.5 68.5059 39.0137 70.0195 40.918 70.0195Z" fill="#000000" fill-opacity="0.85"/>
 </g>
</svg>
