<?xml version="1.0" encoding="UTF-8"?>
<!--Generator: Apple Native CoreSVG 232.5-->
<!DOCTYPE svg
PUBLIC "-//W3C//DTD SVG 1.1//EN"
       "http://www.w3.org/Graphics/SVG/1.1/DTD/svg11.dtd">
<svg version="1.1" xmlns="http://www.w3.org/2000/svg" xmlns:xlink="http://www.w3.org/1999/xlink" width="99.6094" height="99.6582">
 <g>
  <rect height="99.6582" opacity="0" width="99.6094" x="0" y="0"/>
  <path d="M49.8047 99.6094C77.0508 99.6094 99.6094 77.002 99.6094 49.8047C99.6094 22.5586 77.002 0 49.7559 0C22.5586 0 0 22.5586 0 49.8047C0 77.002 22.6074 99.6094 49.8047 99.6094ZM49.8047 91.3086C26.7578 91.3086 8.34961 72.8516 8.34961 49.8047C8.34961 26.7578 26.709 8.30078 49.7559 8.30078C72.8027 8.30078 91.3086 26.7578 91.3086 49.8047C91.3086 72.8516 72.8516 91.3086 49.8047 91.3086Z" fill="#000000" fill-opacity="0.85"/>
  <path d="M34.4238 37.6953C32.2754 37.6953 30.8105 39.3066 30.8105 41.6016L30.8105 64.6484C30.8105 67.5293 32.4219 68.6523 34.9121 68.6523L58.0566 68.6523C60.3516 68.6523 61.8164 67.2363 61.8164 65.0879C61.8164 62.9395 60.3027 61.5234 57.959 61.5234L49.0723 61.5234L41.8457 62.3047L49.4629 55.1758L67.4805 37.207C68.1641 36.5234 68.6523 35.5469 68.6523 34.5703C68.6523 32.373 67.1875 30.957 65.0391 30.957C63.8672 30.957 62.9395 31.3965 62.2559 32.0801L44.2871 50.0488L37.2559 57.5684L37.9883 49.9512L37.9883 41.5039C37.9883 39.1602 36.5723 37.6953 34.4238 37.6953Z" fill="#000000" fill-opacity="0.85"/>
 </g>
</svg>
