<?xml version="1.0" encoding="UTF-8"?>
<!--Generator: Apple Native CoreSVG 232.5-->
<!DOCTYPE svg
PUBLIC "-//W3C//DTD SVG 1.1//EN"
       "http://www.w3.org/Graphics/SVG/1.1/DTD/svg11.dtd">
<svg version="1.1" xmlns="http://www.w3.org/2000/svg" xmlns:xlink="http://www.w3.org/1999/xlink" width="99.6094" height="99.6582">
 <g>
  <rect height="99.6582" opacity="0" width="99.6094" x="0" y="0"/>
  <path d="M99.6094 49.8047C99.6094 77.002 77.0508 99.6094 49.8047 99.6094C22.6074 99.6094 0 77.002 0 49.8047C0 22.5586 22.5586 0 49.7559 0C77.002 0 99.6094 22.5586 99.6094 49.8047ZM62.6465 31.543L44.2383 50L36.9629 57.7637L37.6953 49.9023L37.6953 41.2598C37.6953 38.8184 36.2305 37.3047 33.9844 37.3047C31.7871 37.3047 30.2734 38.9648 30.2734 41.3574L30.2734 65.0879C30.2734 68.0664 31.9336 69.2383 34.5215 69.2383L58.3496 69.2383C60.7422 69.2383 62.2559 67.7734 62.2559 65.5273C62.2559 63.3301 60.6934 61.8652 58.252 61.8652L49.1699 61.8652L41.6992 62.6465L49.5605 55.2734L68.0664 36.8652C68.7988 36.1328 69.2871 35.1074 69.2871 34.1309C69.2871 31.8359 67.7734 30.3711 65.5762 30.3711C64.3555 30.3711 63.3789 30.8105 62.6465 31.543Z" fill="#000000" fill-opacity="0.85"/>
 </g>
</svg>
