<?xml version="1.0" encoding="UTF-8"?>
<!--Generator: Apple Native CoreSVG 232.5-->
<!DOCTYPE svg
PUBLIC "-//W3C//DTD SVG 1.1//EN"
       "http://www.w3.org/Graphics/SVG/1.1/DTD/svg11.dtd">
<svg version="1.1" xmlns="http://www.w3.org/2000/svg" xmlns:xlink="http://www.w3.org/1999/xlink" width="99.6094" height="99.6582">
 <g>
  <rect height="99.6582" opacity="0" width="99.6094" x="0" y="0"/>
  <path d="M49.8047 99.6094C77.0508 99.6094 99.6094 77.002 99.6094 49.8047C99.6094 22.5586 77.002 0 49.7559 0C22.5586 0 0 22.5586 0 49.8047C0 77.002 22.6074 99.6094 49.8047 99.6094ZM49.8047 91.3086C26.7578 91.3086 8.34961 72.8516 8.34961 49.8047C8.34961 26.7578 26.709 8.30078 49.7559 8.30078C72.8027 8.30078 91.3086 26.7578 91.3086 49.8047C91.3086 72.8516 72.8516 91.3086 49.8047 91.3086Z" fill="#000000" fill-opacity="0.85"/>
  <path d="M49.8047 19.9219C48.9746 19.9219 47.9004 20.2637 46.9727 21.2891L27.1484 42.2852C26.0254 43.5059 25.4883 44.5801 25.4883 45.8984C25.4883 47.6562 26.7578 48.9746 28.5645 48.9746L39.3555 48.9746L39.3555 71.0449C39.3555 74.9512 41.5039 77.1973 45.2637 77.1973L54.2969 77.1973C58.0566 77.1973 60.2539 74.9512 60.2539 71.0449L60.2539 48.9746L70.9473 48.9746C72.7051 48.9746 74.1211 47.6562 74.1211 45.8008C74.1211 44.5312 73.584 43.6523 72.2656 42.2852L52.6855 21.2891C51.709 20.2637 50.6836 19.9219 49.8047 19.9219Z" fill="#000000" fill-opacity="0.85"/>
 </g>
</svg>
