<?xml version="1.0" encoding="UTF-8"?>
<!--Generator: Apple Native CoreSVG 232.5-->
<!DOCTYPE svg
PUBLIC "-//W3C//DTD SVG 1.1//EN"
       "http://www.w3.org/Graphics/SVG/1.1/DTD/svg11.dtd">
<svg version="1.1" xmlns="http://www.w3.org/2000/svg" xmlns:xlink="http://www.w3.org/1999/xlink" width="77.6855" height="79.7363">
 <g>
  <rect height="79.7363" opacity="0" width="77.6855" x="0" y="0"/>
  <path d="M77.6855 73.8281C77.6855 71.875 76.8066 70.3125 75.7812 68.2617L45.3613 5.56641C43.3105 1.36719 41.4062 0.0488281 38.8184 0.0488281C36.2305 0.0488281 34.375 1.36719 32.3242 5.56641L1.85547 68.2617C0.878906 70.3613 0 71.9238 0 73.877C0 77.4902 2.73438 79.7363 6.98242 79.7363L70.6543 79.6875C74.9023 79.6875 77.6855 77.4414 77.6855 73.8281ZM68.3594 71.3867C68.3594 71.6797 68.1641 71.875 67.7734 71.875L9.86328 71.875C9.47266 71.875 9.32617 71.6797 9.32617 71.3867C9.32617 71.1914 9.42383 70.9961 9.52148 70.8008L38.2812 10.9863C38.4277 10.7422 38.5742 10.5469 38.8184 10.5469C39.1113 10.5469 39.2578 10.7422 39.4043 10.9863L68.1641 70.8008C68.2617 70.9961 68.3594 71.1914 68.3594 71.3867Z" fill="#000000" fill-opacity="0.85"/>
 </g>
</svg>
