<?xml version="1.0" encoding="UTF-8"?>
<!--Generator: Apple Native CoreSVG 232.5-->
<!DOCTYPE svg
PUBLIC "-//W3C//DTD SVG 1.1//EN"
       "http://www.w3.org/Graphics/SVG/1.1/DTD/svg11.dtd">
<svg version="1.1" xmlns="http://www.w3.org/2000/svg" xmlns:xlink="http://www.w3.org/1999/xlink" width="99.6094" height="99.6582">
 <g>
  <rect height="99.6582" opacity="0" width="99.6094" x="0" y="0"/>
  <path d="M99.6094 49.8047C99.6094 77.002 77.0508 99.6094 49.8047 99.6094C22.6074 99.6094 0 77.002 0 49.8047C0 22.5586 22.5586 0 49.7559 0C77.002 0 99.6094 22.5586 99.6094 49.8047ZM50.9766 32.373C50.9766 33.4473 51.4648 34.375 52.0996 35.1074L58.3496 41.3086L64.4531 46.3867L53.8086 45.9473L27.6367 45.9473C25.4395 45.9473 23.8281 47.5098 23.8281 49.7559C23.8281 51.9531 25.4395 53.5156 27.6367 53.5156L53.8086 53.5156L64.4531 53.125L58.3496 58.2031L52.0996 64.4043C51.416 65.0879 50.9766 66.0156 50.9766 67.0898C50.9766 69.1895 52.5391 70.8008 54.6387 70.8008C55.7129 70.8008 56.5918 70.4102 57.2754 69.7266L74.2676 52.6855C75.2441 51.7578 75.6836 50.8789 75.6836 49.7559C75.6836 48.6328 75.293 47.8516 74.2676 46.8262L57.2754 29.7363C56.5918 29.0527 55.7129 28.7109 54.6387 28.7109C52.5391 28.7109 50.9766 30.2734 50.9766 32.373Z" fill="#000000" fill-opacity="0.85"/>
 </g>
</svg>
