<?xml version="1.0" encoding="UTF-8"?>
<!--Generator: Apple Native CoreSVG 232.5-->
<!DOCTYPE svg
PUBLIC "-//W3C//DTD SVG 1.1//EN"
       "http://www.w3.org/Graphics/SVG/1.1/DTD/svg11.dtd">
<svg version="1.1" xmlns="http://www.w3.org/2000/svg" xmlns:xlink="http://www.w3.org/1999/xlink" width="122.021" height="89.6973">
 <g>
  <rect height="89.6973" opacity="0" width="122.021" x="0" y="0"/>
  <path d="M74.3164 89.5996C76.709 89.5996 78.6621 88.623 81.0059 86.4258L119.531 50.0488C121.436 48.291 122.021 46.4355 122.021 44.8242C122.021 43.1641 121.436 41.3086 119.531 39.5508L81.0059 3.51562C78.418 1.07422 76.8066 0 74.4141 0C70.9961 0 68.6035 2.73438 68.6035 6.00586L68.6035 24.9512L36.9141 24.9512C28.4668 24.9512 24.8535 28.4668 24.8535 36.7676L24.8535 46.9727L14.5508 46.9727C6.10352 46.9727 2.49023 50.4395 2.49023 58.7402L2.49023 77.4902C2.49023 85.791 6.10352 89.3066 14.5508 89.3066L43.9941 89.3066C52.4414 89.3066 56.0547 85.791 56.0547 77.4902L56.0547 66.3574L68.6035 66.3574L68.6035 83.8867C68.6035 87.1582 70.9961 89.5996 74.3164 89.5996ZM50.4883 77.9297L30.7617 69.6777C25.9766 67.6758 24.2188 65.5762 23.9746 61.7188C23.9258 60.7422 24.9512 60.5469 25.3906 61.4746C26.8555 64.6973 30.1758 66.3574 35.0586 66.3574L51.123 66.3574L51.123 77.6367C51.123 77.9297 50.7812 78.0762 50.4883 77.9297Z" fill="#000000" fill-opacity="0.85"/>
 </g>
</svg>
