<?xml version="1.0" encoding="UTF-8"?>
<!--Generator: Apple Native CoreSVG 232.5-->
<!DOCTYPE svg
PUBLIC "-//W3C//DTD SVG 1.1//EN"
       "http://www.w3.org/Graphics/SVG/1.1/DTD/svg11.dtd">
<svg version="1.1" xmlns="http://www.w3.org/2000/svg" xmlns:xlink="http://www.w3.org/1999/xlink" width="93.0664" height="93.2129">
 <g>
  <rect height="93.2129" opacity="0" width="93.0664" x="0" y="0"/>
  <path d="M4.49219 39.502C7.08008 39.502 8.93555 37.5488 8.93555 34.9609L8.93555 30.8594L7.95898 13.8184L20.8008 27.3438L35.8398 42.4805C36.6699 43.3594 37.7441 43.75 38.916 43.75C41.6992 43.75 43.75 41.9434 43.75 39.209C43.75 37.8906 43.3105 36.7188 42.4316 35.8398L27.3438 20.8008L13.8184 7.95898L30.9082 8.93555L34.9609 8.93555C37.5488 8.93555 39.5508 7.12891 39.5508 4.49219C39.5508 1.85547 37.5977 0 34.9609 0L7.86133 0C2.88086 0 0 2.88086 0 7.86133L0 34.9609C0 37.5 1.9043 39.502 4.49219 39.502ZM58.0566 93.1641L85.1562 93.1641C90.1367 93.1641 93.0664 90.2832 93.0664 85.3027L93.0664 58.2031C93.0664 55.6641 91.1621 53.6621 88.5254 53.6621C85.9863 53.6621 84.082 55.6152 84.082 58.2031L84.082 62.3047L85.1074 79.3457L72.2168 65.8203L57.2266 50.6836C56.3965 49.8047 55.2734 49.4141 54.1016 49.4141C51.3672 49.4141 49.2676 51.2207 49.2676 53.9551C49.2676 55.2734 49.7559 56.4453 50.6348 57.3242L65.6738 72.3633L79.248 85.2051L62.1582 84.2285L58.0566 84.2285C55.4688 84.2285 53.4668 86.0352 53.4668 88.6719C53.4668 91.3086 55.4688 93.1641 58.0566 93.1641Z" fill="#000000" fill-opacity="0.85"/>
 </g>
</svg>
