<?xml version="1.0" encoding="UTF-8"?>
<!--Generator: Apple Native CoreSVG 232.5-->
<!DOCTYPE svg
PUBLIC "-//W3C//DTD SVG 1.1//EN"
       "http://www.w3.org/Graphics/SVG/1.1/DTD/svg11.dtd">
<svg version="1.1" xmlns="http://www.w3.org/2000/svg" xmlns:xlink="http://www.w3.org/1999/xlink" width="91.0645" height="118.115">
 <g>
  <rect height="118.115" opacity="0" width="91.0645" x="0" y="0"/>
  <path d="M0 58.1543C0 60.6934 1.75781 62.5 4.29688 62.5L86.8164 62.5C89.3066 62.5 91.0645 60.6934 91.0645 58.1543C91.0645 55.6152 89.3066 53.7598 86.8164 53.7598L4.29688 53.7598C1.75781 53.7598 0 55.6152 0 58.1543Z" fill="#000000" fill-opacity="0.85"/>
  <path d="M45.5566 48.7305C48.0957 48.7305 49.9023 46.9727 49.9023 44.3848L49.9023 23.7793L49.6094 13.6719L62.5488 27.4902C63.3789 28.418 64.502 28.7109 65.6738 28.7109C68.1152 28.7109 69.9219 26.8555 69.9219 24.4629C69.9219 23.2422 69.4336 22.2168 68.457 21.1914L48.8281 1.46484C47.9004 0.488281 46.7285 0 45.5566 0C44.3359 0 43.2129 0.488281 42.2852 1.46484L22.6562 21.1914C21.6797 22.2168 21.1914 23.2422 21.1914 24.4629C21.1914 26.8555 22.998 28.7109 25.4395 28.7109C26.6113 28.7109 27.7344 28.418 28.5645 27.4902L41.5039 13.6719L41.1621 23.7793L41.1621 44.3848C41.1621 46.9727 43.0176 48.7305 45.5566 48.7305ZM45.5566 67.5293C43.0176 67.5293 41.1621 69.2871 41.1621 71.875L41.1621 92.5293L41.5039 102.588L28.5645 88.7695C27.7344 87.8906 26.6113 87.5488 25.4395 87.5488C22.998 87.5488 21.1914 89.4043 21.1914 91.7969C21.1914 93.0176 21.6797 94.0918 22.6562 95.1172L42.2852 114.795C43.2129 115.771 44.3359 116.309 45.5566 116.309C46.7285 116.309 47.9004 115.771 48.8281 114.795L68.457 95.1172C69.4336 94.0918 69.9219 93.0176 69.9219 91.7969C69.9219 89.4043 68.1152 87.5488 65.6738 87.5488C64.502 87.5488 63.3789 87.8906 62.5488 88.7695L49.6094 102.588L49.9023 92.5293L49.9023 71.875C49.9023 69.2871 48.0957 67.5293 45.5566 67.5293Z" fill="#000000" fill-opacity="0.85"/>
 </g>
</svg>
