<?xml version="1.0" encoding="UTF-8"?>
<!--Generator: Apple Native CoreSVG 232.5-->
<!DOCTYPE svg
PUBLIC "-//W3C//DTD SVG 1.1//EN"
       "http://www.w3.org/Graphics/SVG/1.1/DTD/svg11.dtd">
<svg version="1.1" xmlns="http://www.w3.org/2000/svg" xmlns:xlink="http://www.w3.org/1999/xlink" width="99.6094" height="99.6582">
 <g>
  <rect height="99.6582" opacity="0" width="99.6094" x="0" y="0"/>
  <path d="M49.8047 99.6094C77.0508 99.6094 99.6094 77.002 99.6094 49.8047C99.6094 22.5586 77.002 0 49.7559 0C22.5586 0 0 22.5586 0 49.8047C0 77.002 22.6074 99.6094 49.8047 99.6094ZM49.8047 91.3086C26.7578 91.3086 8.34961 72.8516 8.34961 49.8047C8.34961 26.7578 26.709 8.30078 49.7559 8.30078C72.8027 8.30078 91.3086 26.7578 91.3086 49.8047C91.3086 72.8516 72.8516 91.3086 49.8047 91.3086Z" fill="#000000" fill-opacity="0.85"/>
  <path d="M70.8496 49.7559C72.7539 49.7559 74.3164 48.2422 74.3164 46.3379L74.3164 29.3457C74.3164 26.416 72.8027 25.293 70.2637 25.293L53.3691 25.293C51.4648 25.293 49.9023 26.8555 49.9023 28.7598C49.9023 30.6641 51.4648 32.1777 53.3691 32.1777L55.7617 32.1777L63.2324 31.6895L52.1973 42.1875C50.7812 43.5547 50.7324 45.9473 52.1484 47.3633C53.6133 48.8281 55.9082 48.877 57.373 47.3145L67.9199 36.2305L67.4316 43.9453L67.4316 46.3379C67.4316 48.2422 68.9453 49.7559 70.8496 49.7559ZM46.1914 74.4141C48.0957 74.4141 49.6094 72.8516 49.6094 70.9473C49.6094 69.043 48.0957 67.5293 46.1914 67.5293L43.7988 67.5293L36.3281 68.0176L47.3145 57.5195C48.7305 56.1523 48.7793 53.7598 47.3633 52.3438C45.9473 50.8789 43.6035 50.8301 42.1875 52.3926L31.5918 63.4766L32.1289 55.7617L32.1289 53.3691C32.1289 51.4648 30.5664 49.9512 28.6621 49.9512C26.7578 49.9512 25.2441 51.4648 25.2441 53.3691L25.2441 70.3613C25.2441 73.291 26.709 74.4141 29.248 74.4141Z" fill="#000000" fill-opacity="0.85"/>
 </g>
</svg>
