<?xml version="1.0" encoding="UTF-8"?>
<!--Generator: Apple Native CoreSVG 232.5-->
<!DOCTYPE svg
PUBLIC "-//W3C//DTD SVG 1.1//EN"
       "http://www.w3.org/Graphics/SVG/1.1/DTD/svg11.dtd">
<svg version="1.1" xmlns="http://www.w3.org/2000/svg" xmlns:xlink="http://www.w3.org/1999/xlink" width="91.6504" height="77.1973">
 <g>
  <rect height="77.1973" opacity="0" width="91.6504" x="0" y="0"/>
  <path d="M4.58984 77.1973C7.12891 77.1973 8.98438 75.4395 8.98438 72.8516C8.98438 71.1426 8.83789 69.5312 8.83789 67.2363C8.83789 49.1211 15.1367 41.748 33.0566 41.748L66.748 41.748L78.7598 41.0156L62.2559 56.0547L51.416 67.0898C50.6836 67.8711 50.2441 69.043 50.2441 70.2148C50.2441 72.6562 52.0996 74.4141 54.541 74.4141C55.6641 74.4141 56.7383 73.9746 57.7148 73.0469L90.1367 40.6738C91.1621 39.6973 91.6504 38.5742 91.6504 37.3535C91.6504 36.1816 91.1621 35.0098 90.1367 34.082L57.8125 1.80664C56.7383 0.732422 55.6641 0.341797 54.541 0.341797C52.0996 0.341797 50.2441 2.09961 50.2441 4.54102C50.2441 5.71289 50.6348 6.83594 51.416 7.61719L62.2559 18.6523L78.7109 33.6914L66.748 33.0078L32.6172 33.0078C9.47266 33.0078 0 43.1641 0 66.7969C0 69.6289 0.0976562 72.0703 0.439453 73.5352C0.830078 75.5371 2.00195 77.1973 4.58984 77.1973Z" fill="#000000" fill-opacity="0.85"/>
 </g>
</svg>
