<?xml version="1.0" encoding="UTF-8"?>
<!--Generator: Apple Native CoreSVG 232.5-->
<!DOCTYPE svg
PUBLIC "-//W3C//DTD SVG 1.1//EN"
       "http://www.w3.org/Graphics/SVG/1.1/DTD/svg11.dtd">
<svg version="1.1" xmlns="http://www.w3.org/2000/svg" xmlns:xlink="http://www.w3.org/1999/xlink" width="89.8926" height="89.9902">
 <g>
  <rect height="89.9902" opacity="0" width="89.8926" x="0" y="0"/>
  <path d="M89.8926 15.2344L89.8926 74.8535C89.8926 84.9121 84.8145 89.9902 74.5605 89.9902L15.332 89.9902C5.12695 89.9902 0 84.9609 0 74.8535L0 15.2344C0 5.12695 5.12695 0.0976562 15.332 0.0976562L74.5605 0.0976562C84.8145 0.0976562 89.8926 5.17578 89.8926 15.2344ZM57.8125 26.709L39.4043 45.166L32.1289 52.9297L32.8613 45.0684L32.8613 36.4258C32.8613 33.9844 31.3965 32.4707 29.1504 32.4707C26.9531 32.4707 25.4883 34.1309 25.4883 36.5234L25.4883 60.2539C25.4883 63.2324 27.0996 64.4043 29.6875 64.4043L53.5156 64.4043C55.9082 64.4043 57.4219 62.9395 57.4219 60.6934C57.4219 58.4961 55.8594 57.0312 53.418 57.0312L44.3359 57.0312L36.8652 57.8125L44.7266 50.4395L63.2324 32.0312C63.9648 31.2988 64.4531 30.2734 64.4531 29.2969C64.4531 27.002 62.9395 25.5371 60.7422 25.5371C59.5215 25.5371 58.5938 25.9766 57.8125 26.709Z" fill="#000000" fill-opacity="0.85"/>
 </g>
</svg>
