<?xml version="1.0" encoding="UTF-8"?>
<!--Generator: Apple Native CoreSVG 232.5-->
<!DOCTYPE svg
PUBLIC "-//W3C//DTD SVG 1.1//EN"
       "http://www.w3.org/Graphics/SVG/1.1/DTD/svg11.dtd">
<svg version="1.1" xmlns="http://www.w3.org/2000/svg" xmlns:xlink="http://www.w3.org/1999/xlink" width="89.8926" height="89.9902">
 <g>
  <rect height="89.9902" opacity="0" width="89.8926" x="0" y="0"/>
  <path d="M15.332 89.9902L74.5605 89.9902C84.8145 89.9902 89.8926 84.9121 89.8926 74.8535L89.8926 15.2344C89.8926 5.17578 84.8145 0.0976562 74.5605 0.0976562L15.332 0.0976562C5.12695 0.0976562 0 5.12695 0 15.2344L0 74.8535C0 84.9609 5.12695 89.9902 15.332 89.9902ZM15.4297 82.1289C10.5469 82.1289 7.86133 79.541 7.86133 74.4629L7.86133 15.625C7.86133 10.5469 10.5469 7.95898 15.4297 7.95898L74.4629 7.95898C79.2969 7.95898 82.0312 10.5469 82.0312 15.625L82.0312 74.4629C82.0312 79.541 79.2969 82.1289 74.4629 82.1289Z" fill="#000000" fill-opacity="0.85"/>
  <path d="M23.877 44.9219C25.7812 44.9219 27.3438 43.4082 27.3438 41.5039L27.3438 39.1113L26.8555 31.3965L37.4023 42.4805C38.8184 44.043 41.1621 43.9941 42.5781 42.5293C43.9941 41.1133 43.9453 38.7207 42.5293 37.3535L31.543 26.8555L39.0137 27.3438L41.4062 27.3438C43.3105 27.3438 44.8242 25.8301 44.8242 23.9258C44.8242 22.0215 43.3105 20.459 41.4062 20.459L24.4629 20.459C21.9238 20.459 20.459 21.582 20.459 24.5117L20.459 41.5039C20.459 43.4082 21.9727 44.9219 23.877 44.9219ZM48.584 69.5801L65.4785 69.5801C68.0176 69.5801 69.5312 68.457 69.5312 65.5273L69.5312 48.5352C69.5312 46.6309 67.9688 45.1172 66.0645 45.1172C64.1602 45.1172 62.6465 46.6309 62.6465 48.5352L62.6465 50.9277L63.1348 58.6426L52.5879 47.5586C51.123 45.9961 48.8281 46.0449 47.3633 47.5098C45.9473 48.9258 45.9961 51.3184 47.4121 52.6855L58.4473 63.1836L50.9766 62.6953L48.584 62.6953C46.6797 62.6953 45.1172 64.209 45.1172 66.1133C45.1172 68.0176 46.6797 69.5801 48.584 69.5801Z" fill="#000000" fill-opacity="0.85"/>
 </g>
</svg>
