<?xml version="1.0" encoding="UTF-8"?>
<!--Generator: Apple Native CoreSVG 232.5-->
<!DOCTYPE svg
PUBLIC "-//W3C//DTD SVG 1.1//EN"
       "http://www.w3.org/Graphics/SVG/1.1/DTD/svg11.dtd">
<svg version="1.1" xmlns="http://www.w3.org/2000/svg" xmlns:xlink="http://www.w3.org/1999/xlink" width="148.633" height="92.8223">
 <g>
  <rect height="92.8223" opacity="0" width="148.633" x="0" y="0"/>
  <path d="M74.3164 92.8223C76.8555 92.8223 78.6621 91.0156 78.6621 88.4766L78.6621 4.24805C78.6621 1.75781 76.8555 0 74.3164 0C71.7773 0 69.9219 1.75781 69.9219 4.24805L69.9219 88.4766C69.9219 91.0156 71.7773 92.8223 74.3164 92.8223Z" fill="#000000" fill-opacity="0.85"/>
  <path d="M61.377 46.3867C61.377 43.8477 59.6191 42.041 57.0801 42.041L23.7793 42.041L14.0625 42.334L30.1758 26.7578C31.0059 25.9766 31.3965 24.8047 31.3965 23.6328C31.3965 21.1914 29.541 19.3848 27.0996 19.3848C25.9277 19.3848 24.8047 19.873 23.8281 20.8496L1.51367 43.1152C0.585938 44.043 0 45.166 0 46.3867C0 47.6074 0.585938 48.7305 1.51367 49.6582L23.8281 71.9238C24.8047 72.9004 25.9277 73.3887 27.0996 73.3887C29.541 73.3887 31.3965 71.582 31.3965 69.1406C31.3965 67.9688 31.0059 66.7969 30.1758 66.0156L14.0625 50.4395L23.7793 50.7812L57.0801 50.7812C59.6191 50.7812 61.377 48.9258 61.377 46.3867ZM87.2559 46.3867C87.2559 48.9258 89.0137 50.7812 91.5527 50.7812L124.805 50.7812L134.57 50.4395L118.457 66.0156C117.627 66.7969 117.236 67.9688 117.236 69.1406C117.236 71.582 119.092 73.3887 121.484 73.3887C122.705 73.3887 123.828 72.9004 124.805 71.9238L147.119 49.6582C148.047 48.7305 148.633 47.6074 148.633 46.3867C148.633 45.166 148.047 44.043 147.119 43.1152L124.805 20.8496C123.828 19.873 122.705 19.3848 121.484 19.3848C119.092 19.3848 117.236 21.1914 117.236 23.6328C117.236 24.8047 117.627 25.9766 118.457 26.7578L134.57 42.334L124.805 42.041L91.5527 42.041C89.0137 42.041 87.2559 43.8477 87.2559 46.3867Z" fill="#000000" fill-opacity="0.85"/>
 </g>
</svg>
