<?xml version="1.0" encoding="UTF-8"?>
<!--Generator: Apple Native CoreSVG 232.5-->
<!DOCTYPE svg
PUBLIC "-//W3C//DTD SVG 1.1//EN"
       "http://www.w3.org/Graphics/SVG/1.1/DTD/svg11.dtd">
<svg version="1.1" xmlns="http://www.w3.org/2000/svg" xmlns:xlink="http://www.w3.org/1999/xlink" width="82.1289" height="104.736">
 <g>
  <rect height="104.736" opacity="0" width="82.1289" x="0" y="0"/>
  <path d="M37.5488 35.8398C37.5488 42.0898 40.5273 45.0684 46.7773 45.0684L82.1289 45.0684L82.1289 89.4043C82.1289 99.5605 77.0996 104.688 66.9922 104.688L15.1367 104.688C5.0293 104.688 0 99.6094 0 89.4043L0 15.332C0 5.17578 5.07812 0 15.1367 0L37.5488 0ZM37.5 57.5195L37.5 74.8047L37.793 82.4707L33.6914 78.3203L29.4434 73.9746C28.7598 73.291 27.7832 72.9004 26.9043 72.9004C24.9512 72.9004 23.584 74.2676 23.584 76.123C23.584 77.1973 24.0234 78.0273 24.7559 78.6621L38.4277 91.2598C39.4043 92.1387 40.1855 92.4805 41.0645 92.4805C41.9434 92.4805 42.7246 92.1387 43.7012 91.2598L57.373 78.6621C58.1055 78.0273 58.5449 77.1973 58.5449 76.123C58.5449 74.2676 57.1289 72.9004 55.2246 72.9004C54.2969 72.9004 53.3691 73.291 52.6855 73.9746L48.4375 78.3203L44.3359 82.4707L44.6777 74.8047L44.6777 57.5195C44.6777 55.6152 43.0176 54.0527 41.0645 54.0527C39.1113 54.0527 37.5 55.6152 37.5 57.5195ZM50.5859 4.63867L77.4902 32.0312C79.834 34.4238 81.25 36.377 81.543 38.3789L46.9238 38.3789C45.1172 38.3789 44.2383 37.5 44.2383 35.7422L44.2383 0.537109C46.2891 0.878906 48.291 2.29492 50.5859 4.63867Z" fill="#000000" fill-opacity="0.85"/>
 </g>
</svg>
