<?xml version="1.0" encoding="UTF-8"?>
<!--Generator: Apple Native CoreSVG 232.5-->
<!DOCTYPE svg
PUBLIC "-//W3C//DTD SVG 1.1//EN"
       "http://www.w3.org/Graphics/SVG/1.1/DTD/svg11.dtd">
<svg version="1.1" xmlns="http://www.w3.org/2000/svg" xmlns:xlink="http://www.w3.org/1999/xlink" width="99.6094" height="99.6582">
 <g>
  <rect height="99.6582" opacity="0" width="99.6094" x="0" y="0"/>
  <path d="M49.8047 99.6094C77.0508 99.6094 99.6094 77.002 99.6094 49.8047C99.6094 22.5586 77.002 0 49.7559 0C22.5586 0 0 22.5586 0 49.8047C0 77.002 22.6074 99.6094 49.8047 99.6094ZM49.8047 91.3086C26.7578 91.3086 8.34961 72.8516 8.34961 49.8047C8.34961 26.7578 26.709 8.30078 49.7559 8.30078C72.8027 8.30078 91.3086 26.7578 91.3086 49.8047C91.3086 72.8516 72.8516 91.3086 49.8047 91.3086Z" fill="#000000" fill-opacity="0.85"/>
  <path d="M24.4629 55.7617C24.4629 67.4805 33.0078 74.8047 44.3848 74.8047C44.9707 74.8047 50.8301 74.8047 51.0742 74.8047C53.2715 74.8047 54.8828 73.584 54.8828 71.3379C54.8828 69.043 53.2715 67.8223 51.1719 67.8223C50.9766 67.8223 44.9707 67.8223 44.3848 67.8223C37.0117 67.8223 31.6406 63.0859 31.6406 55.3711C31.6406 47.8516 37.1582 43.75 44.3359 43.75L58.9355 43.75L64.6973 43.5059L61.8652 45.6543L55.7617 51.5137C55.0293 52.1484 54.6875 53.125 54.6875 54.0039C54.6875 56.0547 56.2012 57.5684 58.1543 57.5684C59.1797 57.5684 59.9609 57.2266 60.6445 56.543L73.6816 43.2617C74.4629 42.4316 75 41.4551 75 40.2832C75 39.1602 74.4629 38.1348 73.6816 37.3047L60.6934 24.1211C60.0098 23.3887 59.2285 23.0957 58.2031 23.0957C56.2012 23.0957 54.6875 24.6094 54.6875 26.6113C54.6875 27.6367 55.127 28.5645 55.8105 29.1504L60.8398 34.0332L64.6973 37.0605L58.9355 36.9141L44.3359 36.9141C32.959 36.9141 24.4629 44.043 24.4629 55.7617Z" fill="#000000" fill-opacity="0.85"/>
 </g>
</svg>
