<?xml version="1.0" encoding="UTF-8"?>
<!--Generator: Apple Native CoreSVG 232.5-->
<!DOCTYPE svg
PUBLIC "-//W3C//DTD SVG 1.1//EN"
       "http://www.w3.org/Graphics/SVG/1.1/DTD/svg11.dtd">
<svg version="1.1" xmlns="http://www.w3.org/2000/svg" xmlns:xlink="http://www.w3.org/1999/xlink" width="91.1133" height="92.8223">
 <g>
  <rect height="92.8223" opacity="0" width="91.1133" x="0" y="0"/>
  <path d="M59.9609 0C41.3086 0 28.418 12.6465 28.418 34.9609L28.418 67.9688L29.1016 83.1055L31.3477 82.2266L21.0449 70.166L7.27539 56.1035C6.54297 55.3223 5.56641 54.8828 4.29688 54.8828C1.75781 54.8828 0 56.6406 0 59.2285C0 60.3027 0.537109 61.5723 1.36719 62.4023L29.541 91.1133C30.4688 92.0898 31.5918 92.5293 32.8125 92.5293C33.9844 92.5293 35.1074 92.0898 36.0352 91.1133L64.209 62.4023C65.0879 61.5723 65.5762 60.3027 65.5762 59.2285C65.5762 56.6406 63.8184 54.8828 61.2793 54.8828C60.0098 54.8828 59.082 55.3223 58.3008 56.1035L44.5801 70.166L34.2285 82.2266L36.4746 83.1055L37.1582 67.9688L37.1582 34.1797C37.1582 17.5293 46.3379 8.74023 59.4727 8.74023C72.6562 8.74023 82.4219 17.5293 82.4219 34.1797L82.4219 45.4102C82.4219 48.0957 84.375 49.8535 86.7676 49.8535C89.1602 49.8535 91.1133 48.0957 91.1133 45.4102L91.1133 34.1797C91.1133 12.3047 78.6621 0 59.9609 0Z" fill="#000000" fill-opacity="0.85"/>
 </g>
</svg>
