<?xml version="1.0" encoding="UTF-8"?>
<!--Generator: Apple Native CoreSVG 232.5-->
<!DOCTYPE svg
PUBLIC "-//W3C//DTD SVG 1.1//EN"
       "http://www.w3.org/Graphics/SVG/1.1/DTD/svg11.dtd">
<svg version="1.1" xmlns="http://www.w3.org/2000/svg" xmlns:xlink="http://www.w3.org/1999/xlink" width="132.666" height="89.5996">
 <g>
  <rect height="89.5996" opacity="0" width="132.666" x="0" y="0"/>
  <path d="M53.418 5.95703L53.418 14.6107L45.5566 21.9639L45.5566 10.791C45.5566 10.4004 45.3125 10.1074 44.873 10.1074C44.5801 10.1074 44.2871 10.3027 44.043 10.498L9.27734 43.8477C8.88672 44.1895 8.74023 44.4824 8.74023 44.7754C8.74023 45.0684 8.88672 45.3125 9.27734 45.7031L44.043 78.6133C44.3359 78.9062 44.6289 79.0527 44.873 79.0527C45.3125 79.0527 45.5566 78.7598 45.5566 78.3203L45.5566 67.7044L53.418 75.1273L53.418 83.8379C53.418 87.1094 51.0254 89.5508 47.7051 89.5508C45.3125 89.5508 43.3594 88.5742 41.0156 86.377L2.44141 50C0.585938 48.2422 0 46.3867 0 44.7754C0 43.1152 0.585938 41.3086 2.44141 39.502L41.0156 3.4668C43.6035 1.02539 45.2148 0 47.6074 0C51.0254 0 53.418 2.68555 53.418 5.95703Z" fill="#000000" fill-opacity="0.85"/>
  <path d="M72.0215 89.5508C75.3418 89.5508 77.7344 87.1094 77.7344 83.8379L77.7344 65.1855L79.1504 65.1855C98.0957 65.1855 110.01 69.9707 118.555 85.9375C120.264 89.0625 122.51 89.5508 124.561 89.5508C127.148 89.5508 129.59 87.207 129.59 83.0078C129.59 46.9238 114.258 24.4141 79.1504 24.4141L77.7344 24.4141L77.7344 5.95703C77.7344 2.68555 75.3418 0 71.9238 0C69.5312 0 67.9199 1.02539 65.332 3.4668L26.8066 39.502C24.9023 41.3086 24.3164 43.1152 24.3164 44.7754C24.3164 46.3867 24.9512 48.2422 26.8066 50L65.332 86.377C67.6758 88.5742 69.6289 89.5508 72.0215 89.5508ZM69.2383 79.0527C68.9453 79.0527 68.6523 78.9062 68.3594 78.6133L33.5938 45.7031C33.2031 45.3125 33.0566 45.0684 33.0566 44.7754C33.0566 44.4824 33.2031 44.1895 33.5938 43.8477L68.3594 10.498C68.6035 10.3027 68.8965 10.1074 69.1895 10.1074C69.6289 10.1074 69.873 10.4004 69.873 10.791L69.873 30.1758C69.873 31.2988 70.4102 31.7871 71.5332 31.7871L78.0762 31.7871C111.572 31.7871 121.68 55.0293 122.656 78.0762C122.656 78.4668 122.51 78.6133 122.266 78.6133C122.07 78.6133 121.973 78.4668 121.826 78.125C116.064 65.8691 101.27 57.8125 78.0762 57.8125L71.5332 57.8125C70.4102 57.8125 69.873 58.3008 69.873 59.4238L69.873 78.3203C69.873 78.7598 69.6289 79.0527 69.2383 79.0527Z" fill="#000000" fill-opacity="0.85"/>
 </g>
</svg>
