<?xml version="1.0" encoding="UTF-8"?>
<!--Generator: Apple Native CoreSVG 232.5-->
<!DOCTYPE svg
PUBLIC "-//W3C//DTD SVG 1.1//EN"
       "http://www.w3.org/Graphics/SVG/1.1/DTD/svg11.dtd">
<svg version="1.1" xmlns="http://www.w3.org/2000/svg" xmlns:xlink="http://www.w3.org/1999/xlink" width="82.1289" height="104.736">
 <g>
  <rect height="104.736" opacity="0" width="82.1289" x="0" y="0"/>
  <path d="M15.1367 104.688L66.9922 104.688C77.0996 104.688 82.1289 99.5605 82.1289 89.4043L82.1289 45.0684C82.1289 38.7695 81.3965 36.0352 77.4902 32.0312L50.5859 4.63867C46.875 0.830078 43.7988 0 38.3301 0L15.1367 0C5.07812 0 0 5.17578 0 15.332L0 89.4043C0 99.6094 5.0293 104.688 15.1367 104.688ZM15.4785 96.8262C10.4492 96.8262 7.86133 94.1406 7.86133 89.2578L7.86133 15.4785C7.86133 10.6445 10.4492 7.86133 15.5273 7.86133L37.2559 7.86133L37.2559 36.2305C37.2559 42.3828 40.332 45.4102 46.4355 45.4102L74.2676 45.4102L74.2676 89.2578C74.2676 94.1406 71.6797 96.8262 66.6016 96.8262ZM47.3145 38.0371C45.3613 38.0371 44.6289 37.2559 44.6289 35.3027L44.6289 9.375L72.7539 38.0371Z" fill="#000000" fill-opacity="0.85"/>
  <path d="M44.7754 54.6387C44.7754 52.6367 43.0664 51.0254 41.0645 51.0254C39.0625 51.0254 37.3535 52.6367 37.3535 54.6387L37.3535 72.3633L37.6465 80.3223L33.4961 76.0254L29.1016 71.5332C28.418 70.8008 27.3926 70.4102 26.4648 70.4102C24.4629 70.4102 23.0469 71.8262 23.0469 73.7793C23.0469 74.9023 23.4863 75.7324 24.2676 76.416L38.3301 89.3555C39.3555 90.2832 40.1367 90.625 41.0645 90.625C41.9922 90.625 42.7734 90.2832 43.7988 89.3555L57.8613 76.416C58.6426 75.7324 59.082 74.9023 59.082 73.7793C59.082 71.8262 57.6172 70.4102 55.6641 70.4102C54.6875 70.4102 53.7109 70.8008 53.0273 71.5332L48.6328 76.0254L44.4824 80.3223L44.7754 72.3633Z" fill="#000000" fill-opacity="0.85"/>
 </g>
</svg>
