<?xml version="1.0" encoding="UTF-8"?>
<!--Generator: Apple Native CoreSVG 232.5-->
<!DOCTYPE svg
PUBLIC "-//W3C//DTD SVG 1.1//EN"
       "http://www.w3.org/Graphics/SVG/1.1/DTD/svg11.dtd">
<svg version="1.1" xmlns="http://www.w3.org/2000/svg" xmlns:xlink="http://www.w3.org/1999/xlink" width="90.6738" height="74.0723">
 <g>
  <rect height="74.0723" opacity="0" width="90.6738" x="0" y="0"/>
  <path d="M0 37.0117C0 38.2324 0.537109 39.3555 1.51367 40.2832L33.9355 72.6562C34.9121 73.584 35.9375 74.0234 37.1094 74.0234C39.502 74.0234 41.4062 72.2656 41.4062 69.8242C41.4062 68.6523 40.9668 67.4805 40.1855 66.748L29.248 55.6152L9.91211 37.9883L8.88672 40.3809L24.6094 41.3574L86.377 41.3574C88.916 41.3574 90.6738 39.5508 90.6738 37.0117C90.6738 34.4727 88.916 32.666 86.377 32.666L24.6094 32.666L8.88672 33.6426L9.91211 36.084L29.248 18.4082L40.1855 7.27539C40.9668 6.49414 41.4062 5.37109 41.4062 4.19922C41.4062 1.75781 39.502 0 37.1094 0C35.9375 0 34.9121 0.390625 33.8379 1.46484L1.51367 33.7402C0.537109 34.668 0 35.791 0 37.0117Z" fill="#000000" fill-opacity="0.85"/>
 </g>
</svg>
