<?xml version="1.0" encoding="UTF-8"?>
<!--Generator: Apple Native CoreSVG 232.5-->
<!DOCTYPE svg
PUBLIC "-//W3C//DTD SVG 1.1//EN"
       "http://www.w3.org/Graphics/SVG/1.1/DTD/svg11.dtd">
<svg version="1.1" xmlns="http://www.w3.org/2000/svg" xmlns:xlink="http://www.w3.org/1999/xlink" width="99.6094" height="99.6582">
 <g>
  <rect height="99.6582" opacity="0" width="99.6094" x="0" y="0"/>
  <path d="M99.6094 49.8535C99.6094 77.0996 77.0508 99.6582 49.8047 99.6582C22.6074 99.6582 0 77.0996 0 49.8535C0 22.6562 22.5586 0.0488281 49.7559 0.0488281C77.002 0.0488281 99.6094 22.6562 99.6094 49.8535ZM42.0898 26.709L20.459 46.875C19.3848 47.9492 19.043 48.9258 19.043 49.8535C19.043 50.7324 19.3848 51.8066 20.459 52.7832L42.0898 73.1934C43.4082 74.3652 44.4336 74.9512 45.8008 74.9512C47.6562 74.9512 49.0234 73.6816 49.0234 71.7773L49.0234 60.6934L71.7773 60.6934C75.7812 60.6934 78.0762 58.3984 78.0762 54.541L78.0762 45.2148C78.0762 41.3574 75.7812 39.0625 71.7773 39.0625L49.0234 39.0625L49.0234 28.125C49.0234 26.3184 47.6562 24.7559 45.7031 24.7559C44.3848 24.7559 43.5547 25.3418 42.0898 26.709Z" fill="#000000" fill-opacity="0.85"/>
 </g>
</svg>
