<?xml version="1.0" encoding="UTF-8"?>
<!--Generator: Apple Native CoreSVG 232.5-->
<!DOCTYPE svg
PUBLIC "-//W3C//DTD SVG 1.1//EN"
       "http://www.w3.org/Graphics/SVG/1.1/DTD/svg11.dtd">
<svg version="1.1" xmlns="http://www.w3.org/2000/svg" xmlns:xlink="http://www.w3.org/1999/xlink" width="99.6094" height="99.6582">
 <g>
  <rect height="99.6582" opacity="0" width="99.6094" x="0" y="0"/>
  <path d="M99.6094 49.8047C99.6094 77.002 77.0508 99.6094 49.8047 99.6094C22.6074 99.6094 0 77.002 0 49.8047C0 22.5586 22.5586 0 49.7559 0C77.002 0 99.6094 22.5586 99.6094 49.8047ZM42.3828 29.7363L25.3906 46.8262C24.3652 47.8516 23.9746 48.6328 23.9746 49.7559C23.9746 50.8789 24.4629 51.7578 25.3906 52.6855L42.3828 69.7266C43.0664 70.4102 43.9453 70.8008 45.0195 70.8008C47.1191 70.8008 48.6816 69.1895 48.6816 67.0898C48.6816 66.0156 48.2422 65.0879 47.5586 64.4043L41.3086 58.2031L35.2051 53.125L45.8984 53.5156L72.0215 53.5156C74.2676 53.5156 75.8301 51.9531 75.8301 49.7559C75.8301 47.5098 74.2188 45.9473 72.0215 45.9473L45.8984 45.9473L35.2539 46.3867L41.3086 41.3086L47.5586 35.1074C48.1934 34.375 48.6816 33.4473 48.6816 32.373C48.6816 30.2734 47.1191 28.7109 45.0195 28.7109C43.9453 28.7109 43.0664 29.0527 42.3828 29.7363Z" fill="#000000" fill-opacity="0.85"/>
 </g>
</svg>
