<?xml version="1.0" encoding="UTF-8"?>
<!--Generator: Apple Native CoreSVG 232.5-->
<!DOCTYPE svg
PUBLIC "-//W3C//DTD SVG 1.1//EN"
       "http://www.w3.org/Graphics/SVG/1.1/DTD/svg11.dtd">
<svg version="1.1" xmlns="http://www.w3.org/2000/svg" xmlns:xlink="http://www.w3.org/1999/xlink" width="99.6094" height="99.6582">
 <g>
  <rect height="99.6582" opacity="0" width="99.6094" x="0" y="0"/>
  <path d="M49.8047 99.6094C77.0508 99.6094 99.6094 77.002 99.6094 49.8047C99.6094 22.5586 77.002 0 49.7559 0C22.5586 0 0 22.5586 0 49.8047C0 77.002 22.6074 99.6094 49.8047 99.6094ZM49.8047 91.3086C26.7578 91.3086 8.34961 72.8516 8.34961 49.8047C8.34961 26.7578 26.709 8.30078 49.7559 8.30078C72.8027 8.30078 91.3086 26.7578 91.3086 49.8047C91.3086 72.8516 72.8516 91.3086 49.8047 91.3086Z" fill="#000000" fill-opacity="0.85"/>
  <path d="M65.0391 61.9141C67.1875 61.9141 68.6523 60.2539 68.6523 58.0078L68.6523 34.9609C68.6523 32.0801 67.041 30.957 64.5508 30.957L41.4062 30.957C39.1113 30.957 37.6465 32.373 37.6465 34.5215C37.6465 36.6699 39.1602 38.0859 41.5039 38.0859L50.3906 38.0859L57.6172 37.3047L50 44.3848L31.9824 62.4023C31.2988 63.0859 30.8105 64.0625 30.8105 65.0391C30.8105 67.2363 32.2754 68.6523 34.4238 68.6523C35.5957 68.6523 36.4746 68.2129 37.207 67.5293L55.1758 49.5605L62.207 42.041L61.4746 49.6582L61.4746 58.1055C61.4746 60.4004 62.8906 61.9141 65.0391 61.9141Z" fill="#000000" fill-opacity="0.85"/>
 </g>
</svg>
