<?xml version="1.0" encoding="UTF-8"?>
<!--Generator: Apple Native CoreSVG 232.5-->
<!DOCTYPE svg
PUBLIC "-//W3C//DTD SVG 1.1//EN"
       "http://www.w3.org/Graphics/SVG/1.1/DTD/svg11.dtd">
<svg version="1.1" xmlns="http://www.w3.org/2000/svg" xmlns:xlink="http://www.w3.org/1999/xlink" width="115.137" height="89.8926">
 <g>
  <rect height="89.8926" opacity="0" width="115.137" x="0" y="0"/>
  <path d="M115.137 15.1367L115.137 74.8047C115.137 84.8633 110.059 89.8926 99.8047 89.8926L15.332 89.8926C5.12695 89.8926 0 84.8633 0 74.8047L0 15.1367C0 5.07812 5.12695 0 15.332 0L99.8047 0C110.059 0 115.137 5.07812 115.137 15.1367ZM92.9688 35.2539L71.7285 56.4941L68.2129 60.4004L68.6523 48.6328L68.6523 43.75C68.6523 41.5039 67.2363 40.0391 65.0879 40.0391C62.9883 40.0391 61.5234 41.5039 61.5234 43.75L61.5234 68.0176C61.5234 70.2148 63.0371 71.7285 65.2832 71.7285L90.2344 71.7285C92.3828 71.7285 93.9453 70.2637 93.9453 68.1152C93.9453 66.0156 92.2852 64.5996 90.2344 64.5996L85.3027 64.5996L72.9492 65.0391L76.7578 61.5234L98.0469 40.2344C99.0234 39.3066 99.3652 38.4277 99.3652 37.5C99.3652 35.5957 97.7051 33.8867 95.7031 33.8867C94.873 33.8867 93.9941 34.2773 92.9688 35.2539ZM25.6348 18.3105C23.4375 18.3105 21.9238 19.7266 21.9238 21.875C21.9238 23.9746 23.5352 25.4395 25.6348 25.4395L30.5664 25.4395L42.9199 24.9512L39.0625 28.5156L17.8223 49.7559C16.8457 50.6836 16.4551 51.5625 16.4551 52.4902C16.4551 54.3945 18.1641 56.1035 20.166 56.1035C20.9961 56.1035 21.875 55.7129 22.8516 54.7363L44.1406 33.4961L47.6562 29.5898L47.2168 41.3574L47.2168 46.2402C47.2168 48.4863 48.6328 49.9512 50.7812 49.9512C52.8809 49.9512 54.3457 48.4863 54.3457 46.2402L54.3457 21.9727C54.3457 19.7754 52.832 18.3105 50.5859 18.3105Z" fill="#000000" fill-opacity="0.85"/>
 </g>
</svg>
