<?xml version="1.0" encoding="UTF-8"?>
<!--Generator: Apple Native CoreSVG 232.5-->
<!DOCTYPE svg
PUBLIC "-//W3C//DTD SVG 1.1//EN"
       "http://www.w3.org/Graphics/SVG/1.1/DTD/svg11.dtd">
<svg version="1.1" xmlns="http://www.w3.org/2000/svg" xmlns:xlink="http://www.w3.org/1999/xlink" width="99.6094" height="99.6582">
 <g>
  <rect height="99.6582" opacity="0" width="99.6094" x="0" y="0"/>
  <path d="M49.8047 99.6094C77.0508 99.6094 99.6094 77.002 99.6094 49.8047C99.6094 22.5586 77.002 0 49.7559 0C22.5586 0 0 22.5586 0 49.8047C0 77.002 22.6074 99.6094 49.8047 99.6094ZM49.8047 91.3086C26.7578 91.3086 8.34961 72.8516 8.34961 49.8047C8.34961 26.7578 26.709 8.30078 49.7559 8.30078C72.8027 8.30078 91.3086 26.7578 91.3086 49.8047C91.3086 72.8516 72.8516 91.3086 49.8047 91.3086Z" fill="#000000" fill-opacity="0.85"/>
  <path d="M71.2891 49.1699C73.1934 49.1699 74.7559 47.6074 74.7559 45.7031C74.7559 43.7988 73.1934 42.2852 71.2891 42.2852L68.8965 42.2852L61.4258 42.7734L74.6094 30.127C76.0254 28.7109 76.0742 26.3672 74.6582 24.9512C73.2422 23.4863 70.8984 23.4863 69.4824 25L56.7383 38.2324L57.2266 30.5176L57.2266 28.125C57.2266 26.2207 55.7129 24.707 53.8086 24.707C51.9043 24.707 50.3418 26.2207 50.3418 28.125L50.3418 45.1172C50.3418 48.0469 51.8555 49.1699 54.3945 49.1699ZM45.7031 74.8535C47.6074 74.8535 49.1211 73.3398 49.1211 71.4355L49.1211 54.3945C49.1211 51.5137 47.6562 50.3906 45.1172 50.3906L28.1738 50.3906C26.2695 50.3906 24.7559 51.9043 24.7559 53.8574C24.7559 55.7617 26.2695 57.2754 28.1738 57.2754L30.6152 57.2754L38.0859 56.7871L24.9023 69.4336C23.4863 70.8008 23.4375 73.1934 24.8535 74.6094C26.2695 76.0742 28.6133 76.0742 30.0293 74.5605L42.7734 61.3281L42.2363 69.043L42.2363 71.4355C42.2363 73.3398 43.7988 74.8535 45.7031 74.8535Z" fill="#000000" fill-opacity="0.85"/>
 </g>
</svg>
