<?xml version="1.0" encoding="UTF-8"?>
<!--Generator: Apple Native CoreSVG 232.5-->
<!DOCTYPE svg
PUBLIC "-//W3C//DTD SVG 1.1//EN"
       "http://www.w3.org/Graphics/SVG/1.1/DTD/svg11.dtd">
<svg version="1.1" xmlns="http://www.w3.org/2000/svg" xmlns:xlink="http://www.w3.org/1999/xlink" width="90.0391" height="90.0879">
 <g>
  <rect height="90.0879" opacity="0" width="90.0391" x="0" y="0"/>
  <path d="M84.3262 5.76172C89.3066 10.7422 90.0391 17.6758 90.0391 26.0254L90.0391 63.9648C90.0391 72.3145 89.3066 79.2969 84.3262 84.2773C79.3457 89.2578 72.3145 90.0391 63.9648 90.0391L26.0254 90.0391C17.7246 90.0391 10.6934 89.2578 5.71289 84.2773C0.732422 79.2969 0 72.3145 0 63.9648L0 25.9277C0 17.7246 0.732422 10.7422 5.71289 5.76172C10.6934 0.78125 17.7246 0 25.9277 0L63.9648 0C72.3145 0 79.3457 0.78125 84.3262 5.76172ZM41.2109 23.1934L41.2109 48.2422L41.6016 58.9355L36.5723 52.8809L30.6152 46.875C29.9316 46.1426 29.0039 45.752 27.9297 45.752C25.8301 45.752 24.2676 47.3145 24.2676 49.4141C24.2676 50.4883 24.5605 51.3672 25.293 52.0508L42.0898 68.75C43.1152 69.7754 43.8965 70.2148 44.9707 70.2148C46.1426 70.2148 46.9727 69.7266 47.9492 68.75L64.7461 52.0508C65.4297 51.3672 65.7715 50.4883 65.7715 49.4141C65.7715 47.3145 64.1602 45.752 62.0605 45.752C60.9863 45.752 60.0586 46.0938 59.375 46.875L53.4668 52.8809L48.3887 58.9844L48.7793 48.2422L48.7793 23.1934C48.7793 20.9473 47.2168 19.3848 44.9707 19.3848C42.7734 19.3848 41.2109 20.9473 41.2109 23.1934Z" fill="#000000" fill-opacity="0.85"/>
 </g>
</svg>
