<?xml version="1.0" encoding="UTF-8"?>
<!--Generator: Apple Native CoreSVG 232.5-->
<!DOCTYPE svg
PUBLIC "-//W3C//DTD SVG 1.1//EN"
       "http://www.w3.org/Graphics/SVG/1.1/DTD/svg11.dtd">
<svg version="1.1" xmlns="http://www.w3.org/2000/svg" xmlns:xlink="http://www.w3.org/1999/xlink" width="82.1777" height="77.6855">
 <g>
  <rect height="77.6855" opacity="0" width="82.1777" x="0" y="0"/>
  <path d="M8.39844 77.6855C10.3516 77.6855 11.9141 76.8555 13.9648 75.8301L76.709 45.4102C80.8594 43.3594 82.1777 41.4551 82.1777 38.8672C82.1777 36.2793 80.8594 34.4238 76.709 32.373L13.9648 1.9043C11.8652 0.878906 10.3027 0.0488281 8.34961 0.0488281C4.73633 0.0488281 2.49023 2.7832 2.49023 7.03125L2.53906 70.7031C2.53906 74.9512 4.78516 77.6855 8.39844 77.6855ZM10.8398 68.4082C10.5469 68.4082 10.3516 68.2129 10.3516 67.8223L10.3516 9.91211C10.3516 9.52148 10.5469 9.32617 10.8398 9.32617C11.0352 9.32617 11.2305 9.42383 11.4258 9.57031L71.2402 38.3301C71.4844 38.4277 71.6797 38.623 71.6797 38.8672C71.6797 39.1113 71.4844 39.3066 71.2402 39.4043L11.4258 68.2129C11.2305 68.3105 11.0352 68.4082 10.8398 68.4082Z" fill="#000000" fill-opacity="0.85"/>
 </g>
</svg>
