<?xml version="1.0" encoding="UTF-8"?>
<!--Generator: Apple Native CoreSVG 232.5-->
<!DOCTYPE svg
PUBLIC "-//W3C//DTD SVG 1.1//EN"
       "http://www.w3.org/Graphics/SVG/1.1/DTD/svg11.dtd">
<svg version="1.1" xmlns="http://www.w3.org/2000/svg" xmlns:xlink="http://www.w3.org/1999/xlink" width="115.137" height="89.8926">
 <g>
  <rect height="89.8926" opacity="0" width="115.137" x="0" y="0"/>
  <path d="M15.332 89.8926L99.8047 89.8926C110.059 89.8926 115.137 84.8633 115.137 74.8047L115.137 15.1367C115.137 5.07812 110.059 0 99.8047 0L15.332 0C5.12695 0 0 5.07812 0 15.1367L0 74.8047C0 84.8633 5.12695 89.8926 15.332 89.8926ZM15.4297 82.0312C10.5469 82.0312 7.86133 79.4434 7.86133 74.3652L7.86133 15.5762C7.86133 10.498 10.5469 7.86133 15.4297 7.86133L99.707 7.86133C104.541 7.86133 107.275 10.498 107.275 15.5762L107.275 74.3652C107.275 79.4434 104.541 82.0312 99.707 82.0312Z" fill="#000000" fill-opacity="0.85"/>
  <path d="M68.8477 70.4102C70.9961 70.4102 72.4121 68.8965 72.4121 66.6016L72.4121 58.7891L71.6797 51.2207L78.7109 58.7402L93.457 73.4375C94.1406 74.1211 95.0195 74.5605 96.2402 74.5605C98.3887 74.5605 99.8047 73.1445 99.8047 70.9473C99.8047 69.9707 99.3164 68.9941 98.6328 68.3105L83.8867 53.5645L76.2695 46.4844L83.4961 47.2656L91.748 47.2656C94.043 47.2656 95.5566 45.8496 95.5566 43.7012C95.5566 41.5527 94.0918 40.1367 91.8457 40.1367L69.3359 40.1367C66.8457 40.1367 65.2832 41.2598 65.2832 44.1406L65.2832 66.5039C65.2832 68.75 66.6992 70.4102 68.8477 70.4102Z" fill="#000000" fill-opacity="0.85"/>
 </g>
</svg>
