<?xml version="1.0" encoding="UTF-8"?>
<!--Generator: Apple Native CoreSVG 232.5-->
<!DOCTYPE svg
PUBLIC "-//W3C//DTD SVG 1.1//EN"
       "http://www.w3.org/Graphics/SVG/1.1/DTD/svg11.dtd">
<svg version="1.1" xmlns="http://www.w3.org/2000/svg" xmlns:xlink="http://www.w3.org/1999/xlink" width="91.6504" height="77.1973">
 <g>
  <rect height="77.1973" opacity="0" width="91.6504" x="0" y="0"/>
  <path d="M87.0605 77.1973C89.6484 77.1973 90.8203 75.5371 91.2598 73.5352C91.5527 72.0703 91.6504 69.6289 91.6504 66.7969C91.6504 43.1641 82.2266 33.0078 59.0332 33.0078L24.9023 33.0078L12.9395 33.6914L29.3945 18.6523L40.2344 7.61719C41.0156 6.83594 41.4062 5.71289 41.4062 4.54102C41.4062 2.09961 39.5508 0.341797 37.1582 0.341797C35.9863 0.341797 34.9121 0.732422 33.8379 1.80664L1.51367 34.082C0.537109 35.0098 0 36.1816 0 37.3535C0 38.5742 0.537109 39.6973 1.51367 40.6738L33.9355 73.0469C34.9609 73.9746 35.9863 74.4141 37.1582 74.4141C39.5508 74.4141 41.4062 72.6562 41.4062 70.2148C41.4062 69.043 41.0156 67.8711 40.2344 67.0898L29.3945 56.0547L12.8906 41.0156L24.9023 41.748L58.5938 41.748C76.5137 41.748 82.8125 49.1211 82.8125 67.2363C82.8125 69.5312 82.7148 71.1426 82.7148 72.8516C82.7148 75.4395 84.5215 77.1973 87.0605 77.1973Z" fill="#000000" fill-opacity="0.85"/>
 </g>
</svg>
