<?xml version="1.0" encoding="UTF-8"?>
<!--Generator: Apple Native CoreSVG 232.5-->
<!DOCTYPE svg
PUBLIC "-//W3C//DTD SVG 1.1//EN"
       "http://www.w3.org/Graphics/SVG/1.1/DTD/svg11.dtd">
<svg version="1.1" xmlns="http://www.w3.org/2000/svg" xmlns:xlink="http://www.w3.org/1999/xlink" width="86.0352" height="76.2207">
 <g>
  <rect height="76.2207" opacity="0" width="86.0352" x="0" y="0"/>
  <path d="M0 37.207C0 39.7461 1.75781 41.5527 4.29688 41.5527L53.6621 41.5527L64.1113 41.2109L48.0469 55.8594L37.2559 66.7969C36.4258 67.627 36.0352 68.7988 36.0352 69.9707C36.0352 72.4121 37.8906 74.1699 40.2832 74.1699C41.5039 74.1699 42.5781 73.7305 43.5547 72.7539L75.9277 40.4785C76.9043 39.5508 77.4414 38.3789 77.4414 37.207C77.4414 35.9863 76.9043 34.8633 75.9277 33.8867L43.5547 1.61133C42.5781 0.634766 41.5039 0.146484 40.2832 0.146484C37.8906 0.146484 36.0352 1.95312 36.0352 4.39453C36.0352 5.56641 36.4258 6.73828 37.2559 7.51953L48.0469 18.5059L64.0625 33.2031L53.6621 32.8125L4.29688 32.8125C1.75781 32.8125 0 34.6191 0 37.207ZM77.2949 70.166C77.2949 72.6562 79.1016 74.3652 81.6895 74.3652C84.2285 74.3652 86.0352 72.6562 86.0352 70.166L86.0352 4.29688C86.0352 1.75781 84.2285 0 81.6895 0C79.1016 0 77.2949 1.75781 77.2949 4.29688Z" fill="#000000" fill-opacity="0.85"/>
 </g>
</svg>
