<?xml version="1.0" encoding="UTF-8"?>
<!--Generator: Apple Native CoreSVG 232.5-->
<!DOCTYPE svg
PUBLIC "-//W3C//DTD SVG 1.1//EN"
       "http://www.w3.org/Graphics/SVG/1.1/DTD/svg11.dtd">
<svg version="1.1" xmlns="http://www.w3.org/2000/svg" xmlns:xlink="http://www.w3.org/1999/xlink" width="76.2207" height="92.2363">
 <g>
  <rect height="92.2363" opacity="0" width="76.2207" x="0" y="0"/>
  <path d="M65.8691 0C43.3105 0 32.666 8.98438 32.666 31.6895L32.666 65.5273L33.0078 78.7598L23.291 68.0664L7.27539 52.0508C6.54297 51.2695 5.37109 50.8789 4.19922 50.8789C1.75781 50.8789 0 52.7344 0 55.127C0 56.2988 0.439453 57.3242 1.36719 58.3008L33.7402 90.7715C34.668 91.748 35.791 92.2363 37.0117 92.2363C38.2324 92.2363 39.3555 91.748 40.2832 90.7715L72.7051 58.3008C73.6328 57.3242 74.0234 56.2988 74.0234 55.127C74.0234 52.7344 72.2656 50.8789 69.8242 50.8789C68.6523 50.8789 67.5293 51.2695 66.748 52.0508L50.7324 68.0664L40.9668 78.8086L41.3574 65.5273L41.3086 32.1289C41.2598 14.4531 48.9746 8.54492 66.3086 8.54492C68.6035 8.54492 70.166 8.64258 71.875 8.64258C74.3652 8.64258 76.2207 7.03125 76.2207 4.49219C76.2207 2.00195 74.4629 0.732422 72.5586 0.341797C71.0449 0.0976562 68.7012 0 65.8691 0Z" fill="#000000" fill-opacity="0.85"/>
 </g>
</svg>
