<?xml version="1.0" encoding="UTF-8"?>
<!--Generator: Apple Native CoreSVG 232.5-->
<!DOCTYPE svg
PUBLIC "-//W3C//DTD SVG 1.1//EN"
       "http://www.w3.org/Graphics/SVG/1.1/DTD/svg11.dtd">
<svg version="1.1" xmlns="http://www.w3.org/2000/svg" xmlns:xlink="http://www.w3.org/1999/xlink" width="91.6504" height="82.0801">
 <g>
  <rect height="82.0801" opacity="0" width="91.6504" x="0" y="0"/>
  <path d="M4.58984 0C2.00195 0 0.830078 1.66016 0.439453 3.61328C0.0976562 5.12695 0 7.51953 0 10.4004C0 34.0332 9.47266 44.1895 32.6172 44.1895L66.748 44.1895L78.7109 43.5059L62.2559 58.4961L51.416 69.5312C50.6348 70.3613 50.2441 71.4844 50.2441 72.6562C50.2441 75.0977 52.0996 76.8555 54.541 76.8555C55.6641 76.8555 56.7383 76.416 57.8125 75.3906L90.1367 43.1152C91.1621 42.1387 91.6504 41.0156 91.6504 39.7949C91.6504 38.623 91.1621 37.4512 90.1367 36.5234L57.7148 4.10156C56.7383 3.17383 55.6641 2.7832 54.541 2.7832C52.0996 2.7832 50.2441 4.54102 50.2441 6.98242C50.2441 8.1543 50.6836 9.27734 51.416 10.0586L62.2559 21.0938L78.7598 36.1816L66.748 35.4492L33.0566 35.4492C15.1367 35.4492 8.83789 28.0762 8.83789 9.96094C8.83789 7.61719 8.98438 6.05469 8.98438 4.29688C8.98438 1.75781 7.12891 0 4.58984 0Z" fill="#000000" fill-opacity="0.85"/>
 </g>
</svg>
