<?xml version="1.0" encoding="UTF-8"?>
<!--Generator: Apple Native CoreSVG 232.5-->
<!DOCTYPE svg
PUBLIC "-//W3C//DTD SVG 1.1//EN"
       "http://www.w3.org/Graphics/SVG/1.1/DTD/svg11.dtd">
<svg version="1.1" xmlns="http://www.w3.org/2000/svg" xmlns:xlink="http://www.w3.org/1999/xlink" width="175.537" height="114.6">
 <g>
  <rect height="114.6" opacity="0" width="175.537" x="0" y="0"/>
  <path d="M114.551 70.5566L114.551 105.029C114.551 110.4 110.4 114.551 105.078 114.551L70.4102 114.551C65.0879 114.551 61.0352 110.4 61.0352 105.029L61.0352 70.5566C61.0352 65.1855 65.0879 60.9863 70.4102 60.9863L105.078 60.9863C110.4 60.9863 114.551 65.1855 114.551 70.5566ZM175.537 70.5566L175.537 105.029C175.537 110.4 171.484 114.551 166.162 114.551L131.494 114.551C126.172 114.551 122.021 110.4 122.021 105.029L122.021 70.5566C122.021 65.1855 126.172 60.9863 131.494 60.9863L166.162 60.9863C171.484 60.9863 175.537 65.1855 175.537 70.5566ZM70.4102 67.8711C68.9941 67.8711 67.9199 68.9941 67.9199 70.5566L67.9199 105.029C67.9199 106.543 68.9941 107.666 70.4102 107.666L105.078 107.666C106.543 107.666 107.666 106.543 107.666 105.029L107.666 70.5566C107.666 68.9941 106.543 67.8711 105.078 67.8711ZM131.494 67.8711C130.029 67.8711 128.906 68.9941 128.906 70.5566L128.906 105.029C128.906 106.543 130.029 107.666 131.494 107.666L166.162 107.666C167.578 107.666 168.652 106.543 168.652 105.029L168.652 70.5566C168.652 68.9941 167.578 67.8711 166.162 67.8711ZM114.551 9.52148L114.551 44.043C114.551 49.4141 110.4 53.5156 105.078 53.5156L70.4102 53.5156C65.0879 53.5156 61.0352 49.4141 61.0352 44.043L61.0352 9.52148C61.0352 4.15039 65.0879 0 70.4102 0L105.078 0C110.4 0 114.551 4.15039 114.551 9.52148ZM70.4102 6.88477C68.9941 6.88477 67.9199 8.00781 67.9199 9.52148L67.9199 44.043C67.9199 45.5078 68.9941 46.6309 70.4102 46.6309L105.078 46.6309C106.543 46.6309 107.666 45.5078 107.666 44.043L107.666 9.52148C107.666 8.00781 106.543 6.88477 105.078 6.88477Z" fill="#000000" fill-opacity="0.85"/>
  <path d="M53.5156 70.5566L53.5156 105.029C53.5156 110.4 49.3652 114.551 44.043 114.551L9.375 114.551C4.05273 114.551 0 110.4 0 105.029L0 70.5566C0 65.1855 4.05273 60.9863 9.375 60.9863L44.043 60.9863C49.3652 60.9863 53.5156 65.1855 53.5156 70.5566ZM32.5684 74.2188L13.8184 85.3027C11.9141 86.4258 11.9629 89.2578 13.8672 90.332L32.5684 101.318C34.5703 102.49 37.0605 101.172 37.0605 99.0723L37.0605 76.416C37.0605 74.3652 34.5703 73.0469 32.5684 74.2188Z" fill="#000000" fill-opacity="0.85"/>
 </g>
</svg>
