<?xml version="1.0" encoding="UTF-8"?>
<!--Generator: Apple Native CoreSVG 232.5-->
<!DOCTYPE svg
PUBLIC "-//W3C//DTD SVG 1.1//EN"
       "http://www.w3.org/Graphics/SVG/1.1/DTD/svg11.dtd">
<svg version="1.1" xmlns="http://www.w3.org/2000/svg" xmlns:xlink="http://www.w3.org/1999/xlink" width="89.8926" height="89.9902">
 <g>
  <rect height="89.9902" opacity="0" width="89.8926" x="0" y="0"/>
  <path d="M15.332 89.9902L74.5605 89.9902C84.8145 89.9902 89.8926 84.9121 89.8926 74.8535L89.8926 15.2344C89.8926 5.17578 84.8145 0.0976562 74.5605 0.0976562L15.332 0.0976562C5.12695 0.0976562 0 5.12695 0 15.2344L0 74.8535C0 84.9609 5.12695 89.9902 15.332 89.9902ZM15.4297 82.1289C10.5469 82.1289 7.86133 79.541 7.86133 74.4629L7.86133 15.625C7.86133 10.5469 10.5469 7.95898 15.4297 7.95898L74.4629 7.95898C79.2969 7.95898 82.0312 10.5469 82.0312 15.625L82.0312 74.4629C82.0312 79.541 79.2969 82.1289 74.4629 82.1289Z" fill="#000000" fill-opacity="0.85"/>
  <path d="M70.1172 44.9219C70.1172 43.8477 69.6777 43.0664 68.7012 42.0898L52.1973 25.4883C51.5625 24.8535 50.6836 24.5117 49.6582 24.5117C47.6562 24.5117 46.1426 26.0254 46.1426 28.0273C46.1426 29.1016 46.582 29.9805 47.2168 30.6641L53.3691 36.7188L59.2285 41.6504L48.9258 41.2598L23.4375 41.2598C21.3379 41.2598 19.8242 42.7734 19.8242 44.9219C19.8242 47.0215 21.3379 48.5352 23.4375 48.5352L48.9258 48.5352L59.2285 48.1934L53.3691 53.125L47.2168 59.1797C46.5332 59.8145 46.1426 60.6934 46.1426 61.7676C46.1426 63.7695 47.6562 65.332 49.6582 65.332C50.6836 65.332 51.5625 64.9414 52.1973 64.3066L68.7012 47.7539C69.6289 46.875 70.1172 45.9961 70.1172 44.9219Z" fill="#000000" fill-opacity="0.85"/>
 </g>
</svg>
