<?xml version="1.0" encoding="UTF-8"?>
<!--Generator: Apple Native CoreSVG 232.5-->
<!DOCTYPE svg
PUBLIC "-//W3C//DTD SVG 1.1//EN"
       "http://www.w3.org/Graphics/SVG/1.1/DTD/svg11.dtd">
<svg version="1.1" xmlns="http://www.w3.org/2000/svg" xmlns:xlink="http://www.w3.org/1999/xlink" width="99.6094" height="99.6582">
 <g>
  <rect height="99.6582" opacity="0" width="99.6094" x="0" y="0"/>
  <path d="M49.8047 99.6094C77.0508 99.6094 99.6094 77.002 99.6094 49.8047C99.6094 22.5586 77.002 0 49.7559 0C22.5586 0 0 22.5586 0 49.8047C0 77.002 22.6074 99.6094 49.8047 99.6094ZM49.8047 91.3086C26.7578 91.3086 8.34961 72.8516 8.34961 49.8047C8.34961 26.7578 26.709 8.30078 49.7559 8.30078C72.8027 8.30078 91.3086 26.7578 91.3086 49.8047C91.3086 72.8516 72.8516 91.3086 49.8047 91.3086Z" fill="#000000" fill-opacity="0.85"/>
  <path d="M34.4238 61.9141C36.5723 61.9141 37.9883 60.4004 37.9883 58.1055L37.9883 49.6582L37.2559 42.041L44.2871 49.5605L62.2559 67.5293C62.9395 68.2129 63.8672 68.6523 65.0391 68.6523C67.1875 68.6523 68.6523 67.2363 68.6523 65.0391C68.6523 64.0625 68.1641 63.0859 67.4805 62.4023L49.4629 44.3848L41.8457 37.3047L49.0723 38.0859L57.959 38.0859C60.3027 38.0859 61.8164 36.6699 61.8164 34.5215C61.8164 32.373 60.3516 30.957 58.0566 30.957L34.9121 30.957C32.4219 30.957 30.8105 32.0801 30.8105 34.9609L30.8105 58.0078C30.8105 60.2539 32.2754 61.9141 34.4238 61.9141Z" fill="#000000" fill-opacity="0.85"/>
 </g>
</svg>
