<?xml version="1.0" encoding="UTF-8"?>
<!--Generator: Apple Native CoreSVG 232.5-->
<!DOCTYPE svg
PUBLIC "-//W3C//DTD SVG 1.1//EN"
       "http://www.w3.org/Graphics/SVG/1.1/DTD/svg11.dtd">
<svg version="1.1" xmlns="http://www.w3.org/2000/svg" xmlns:xlink="http://www.w3.org/1999/xlink" width="99.6094" height="99.6582">
 <g>
  <rect height="99.6582" opacity="0" width="99.6094" x="0" y="0"/>
  <path d="M49.8047 99.6094C77.0508 99.6094 99.6094 77.002 99.6094 49.8047C99.6094 22.5586 77.002 0 49.7559 0C22.5586 0 0 22.5586 0 49.8047C0 77.002 22.6074 99.6094 49.8047 99.6094ZM49.8047 91.3086C26.7578 91.3086 8.34961 72.8516 8.34961 49.8047C8.34961 26.7578 26.709 8.30078 49.7559 8.30078C72.8027 8.30078 91.3086 26.7578 91.3086 49.8047C91.3086 72.8516 72.8516 91.3086 49.8047 91.3086Z" fill="#000000" fill-opacity="0.85"/>
  <path d="M29.248 71.3379C31.1035 71.3379 32.4707 70.0195 32.4707 68.1152L32.4707 31.4453C32.4707 29.541 31.1035 28.2227 29.248 28.2227C27.3438 28.2227 25.9277 29.541 25.9277 31.4453L25.9277 68.1152C25.9277 70.0195 27.3438 71.3379 29.248 71.3379ZM80.4688 49.8535C80.4688 47.9492 79.0527 46.582 77.1973 46.582L54.7852 46.582L45.8496 47.1191L55.7617 38.3301L58.8379 35.3027C59.5215 34.668 59.8145 33.7891 59.8145 32.9102C59.8145 31.0547 58.3984 29.7852 56.5918 29.7852C55.7129 29.7852 54.8828 30.0781 54.1992 30.8105L37.3535 47.3633C36.6211 48.0957 36.2305 48.9258 36.2305 49.8535C36.2305 50.7324 36.5723 51.6113 37.3535 52.2949L54.1504 68.7012C54.7852 69.3359 55.8105 69.7754 56.6406 69.7754C58.4961 69.7754 59.8145 68.5059 59.8145 66.6016C59.8145 65.625 59.5215 64.8438 58.8379 64.2578L55.7129 61.377L45.8008 52.5879L54.7852 53.125L77.1973 53.125C79.0527 53.125 80.4688 51.8066 80.4688 49.8535Z" fill="#000000" fill-opacity="0.85"/>
 </g>
</svg>
