<?xml version="1.0" encoding="UTF-8"?>
<!--Generator: Apple Native CoreSVG 232.5-->
<!DOCTYPE svg
PUBLIC "-//W3C//DTD SVG 1.1//EN"
       "http://www.w3.org/Graphics/SVG/1.1/DTD/svg11.dtd">
<svg version="1.1" xmlns="http://www.w3.org/2000/svg" xmlns:xlink="http://www.w3.org/1999/xlink" width="82.1289" height="77.6855">
 <g>
  <rect height="77.6855" opacity="0" width="82.1289" x="0" y="0"/>
  <path d="M73.7793 0.0488281C71.8262 0.0488281 70.2637 0.878906 68.2129 1.9043L5.46875 32.373C1.31836 34.4238 0 36.2793 0 38.8672C0 41.4551 1.31836 43.3594 5.46875 45.4102L68.2129 75.8301C70.3125 76.8555 71.875 77.6855 73.8281 77.6855C77.4414 77.6855 79.6387 74.9512 79.6387 70.7031L79.6387 7.03125C79.6387 2.7832 77.3926 0.0488281 73.7793 0.0488281ZM71.2891 9.32617C71.582 9.32617 71.7773 9.57031 71.7773 9.91211L71.8262 67.8223C71.8262 68.2129 71.6309 68.4082 71.3379 68.4082C71.1426 68.4082 70.9473 68.3105 70.752 68.2129L10.9375 39.4043C10.6934 39.3066 10.498 39.1113 10.498 38.8672C10.498 38.623 10.6934 38.4277 10.9375 38.3301L70.7031 9.57031C70.8984 9.42383 71.0938 9.32617 71.2891 9.32617Z" fill="#000000" fill-opacity="0.85"/>
 </g>
</svg>
