<?xml version="1.0" encoding="UTF-8"?>
<!--Generator: Apple Native CoreSVG 232.5-->
<!DOCTYPE svg
PUBLIC "-//W3C//DTD SVG 1.1//EN"
       "http://www.w3.org/Graphics/SVG/1.1/DTD/svg11.dtd">
<svg version="1.1" xmlns="http://www.w3.org/2000/svg" xmlns:xlink="http://www.w3.org/1999/xlink" width="99.6094" height="99.6582">
 <g>
  <rect height="99.6582" opacity="0" width="99.6094" x="0" y="0"/>
  <path d="M49.8047 99.6094C77.0508 99.6094 99.6094 77.002 99.6094 49.8047C99.6094 22.5586 77.002 0 49.7559 0C22.5586 0 0 22.5586 0 49.8047C0 77.002 22.6074 99.6094 49.8047 99.6094ZM49.8047 91.3086C26.7578 91.3086 8.34961 72.8516 8.34961 49.8047C8.34961 26.7578 26.709 8.30078 49.7559 8.30078C72.8027 8.30078 91.3086 26.7578 91.3086 49.8047C91.3086 72.8516 72.8516 91.3086 49.8047 91.3086Z" fill="#000000" fill-opacity="0.85"/>
  <path d="M25.4883 70.8008C26.6113 70.8008 27.832 70.5078 28.7109 68.8477C33.3008 60.2539 39.6973 57.666 49.9023 57.666L50.6836 57.666L50.6836 67.7246C50.6836 69.4824 51.9531 70.8008 53.7109 70.8008C55.0293 70.8008 56.0547 70.2148 57.2754 69.0918L78.0273 49.5605C79.0527 48.6328 79.3945 47.6074 79.3945 46.7285C79.3945 45.8496 79.0527 44.8242 78.0273 43.8965L57.2754 24.5117C55.9082 23.2422 55.0781 22.6562 53.7598 22.6562C51.9531 22.6562 50.6836 24.1211 50.6836 25.8789L50.6836 35.8398L49.9023 35.8398C31.1035 35.8398 22.8027 47.8516 22.8027 67.2852C22.8027 69.5801 24.1211 70.8008 25.4883 70.8008Z" fill="#000000" fill-opacity="0.85"/>
 </g>
</svg>
