<?xml version="1.0" encoding="UTF-8"?>
<!--Generator: Apple Native CoreSVG 232.5-->
<!DOCTYPE svg
PUBLIC "-//W3C//DTD SVG 1.1//EN"
       "http://www.w3.org/Graphics/SVG/1.1/DTD/svg11.dtd">
<svg version="1.1" xmlns="http://www.w3.org/2000/svg" xmlns:xlink="http://www.w3.org/1999/xlink" width="86.2793" height="116.846">
 <g>
  <rect height="116.846" opacity="0" width="86.2793" x="0" y="0"/>
  <path d="M0 61.9141C0 85.8887 19.2383 105.127 43.1641 105.127C67.0898 105.127 86.2793 85.8887 86.2793 61.9141C86.2793 37.9883 67.0898 18.7988 43.1641 18.7988C40.1367 18.7988 37.2559 19.1406 34.7168 19.6289L47.7051 6.78711C48.4375 6.00586 48.7793 5.0293 48.7793 4.00391C48.7793 1.75781 47.1191 0 44.9707 0C43.75 0 42.7734 0.390625 42.0898 1.17188L21.9727 21.582C21.1914 22.3633 20.752 23.4375 20.752 24.5117C20.752 25.6348 21.1426 26.6113 21.9727 27.4414L42.0898 47.6562C42.8223 48.3887 43.75 48.7793 44.9219 48.7793C47.1191 48.7793 48.7793 47.1191 48.7793 44.873C48.7793 43.8477 48.4375 42.8711 47.6562 42.0898L33.1055 27.6367C35.9375 26.9531 39.4043 26.6602 43.1641 26.6602C62.7441 26.6602 78.418 42.334 78.418 61.9141C78.418 81.543 62.7441 97.2656 43.1641 97.2656C23.584 97.2656 7.86133 81.543 7.86133 61.9141C7.86133 59.5703 6.39648 57.8613 4.05273 57.8613C1.66016 57.8613 0 59.5703 0 61.9141Z" fill="#000000" fill-opacity="0.85"/>
 </g>
</svg>
