<?xml version="1.0" encoding="UTF-8"?>
<!--Generator: Apple Native CoreSVG 232.5-->
<!DOCTYPE svg
PUBLIC "-//W3C//DTD SVG 1.1//EN"
       "http://www.w3.org/Graphics/SVG/1.1/DTD/svg11.dtd">
<svg version="1.1" xmlns="http://www.w3.org/2000/svg" xmlns:xlink="http://www.w3.org/1999/xlink" width="89.8926" height="89.9902">
 <g>
  <rect height="89.9902" opacity="0" width="89.8926" x="0" y="0"/>
  <path d="M89.8926 15.2344L89.8926 74.8535C89.8926 84.9121 84.8145 89.9902 74.5605 89.9902L15.332 89.9902C5.12695 89.9902 0 84.9609 0 74.8535L0 15.2344C0 5.12695 5.12695 0.0976562 15.332 0.0976562L74.5605 0.0976562C84.8145 0.0976562 89.8926 5.17578 89.8926 15.2344ZM52.9297 37.5C52.1484 37.5 51.1719 37.9395 50.5859 38.4766C49.2188 39.8926 49.2188 41.748 50.5371 43.0664C51.2207 43.7012 52.002 44.043 52.832 44.043L60.3516 43.8965L63.1836 43.7988L61.377 45.3613L38.3301 68.457C36.9629 69.7754 36.9629 71.6797 38.3301 73.0469C39.6484 74.3652 41.6016 74.4141 42.9199 73.0469L66.0156 50.0488L67.6758 48.2422L67.4805 51.0254L67.3828 58.4961C67.3828 59.375 67.6758 60.1562 68.3105 60.8398C69.6289 62.1582 71.582 62.1582 72.9004 60.8398C73.4863 60.3027 73.7793 59.375 73.8281 58.4473L74.0234 40.7227C74.0234 38.7695 72.5098 37.3535 70.6543 37.3535ZM47.0703 16.9434L24.0234 39.9902L22.4609 41.6992L22.6074 39.0137L22.7051 31.543C22.7539 30.6641 22.3633 29.834 21.7285 29.1992C20.3613 27.832 18.457 27.832 17.1387 29.1992C16.5527 29.7852 16.1621 30.7617 16.1621 31.6406L15.9668 49.2676C15.9668 51.1719 17.5781 52.7832 19.3848 52.7344L37.1094 52.5391C38.0371 52.4902 38.916 52.0996 39.4531 51.5137C40.8203 50.1953 40.8203 48.3398 39.502 47.0215C38.8184 46.3379 38.0371 46.0449 37.1582 46.0449L29.7363 46.1426L26.9043 46.2402L28.7109 44.6289L51.709 21.582C53.0273 20.2637 53.0762 18.3105 51.709 16.9434C50.4395 15.625 48.4375 15.625 47.0703 16.9434Z" fill="#000000" fill-opacity="0.85"/>
 </g>
</svg>
