<?xml version="1.0" encoding="UTF-8"?>
<!--Generator: Apple Native CoreSVG 232.5-->
<!DOCTYPE svg
PUBLIC "-//W3C//DTD SVG 1.1//EN"
       "http://www.w3.org/Graphics/SVG/1.1/DTD/svg11.dtd">
<svg version="1.1" xmlns="http://www.w3.org/2000/svg" xmlns:xlink="http://www.w3.org/1999/xlink" width="95.166" height="97.9004">
 <g>
  <rect height="97.9004" opacity="0" width="95.166" x="0" y="0"/>
  <path d="M86.4258 44.2383C89.0137 44.2383 91.0156 42.334 91.0156 39.7461C90.9668 37.1094 89.0137 35.3027 86.4258 35.3027L82.3242 35.3027L65.2344 36.2793L78.7598 23.4375L93.8477 8.39844C94.7266 7.51953 95.166 6.29883 95.166 5.0293C95.166 2.29492 93.1152 0.439453 90.3809 0.439453C89.1602 0.439453 88.0859 0.878906 87.2559 1.75781L72.2656 16.8945L59.375 30.4199L60.3516 13.3789L60.3516 9.27734C60.3516 6.68945 58.4961 4.73633 55.957 4.73633C53.3203 4.73633 51.416 6.73828 51.416 9.27734L51.416 36.3281C51.416 41.3086 54.2969 44.2383 59.2773 44.2383ZM39.5508 93.7988C42.1875 93.7988 44.0918 91.8457 44.0918 89.2578L44.0918 61.6699C44.0918 56.6895 41.2109 53.8086 36.2305 53.8086L8.54492 53.8086C5.95703 53.8086 3.95508 55.6641 3.95508 58.3008C4.00391 60.8887 5.95703 62.6953 8.54492 62.6953L13.1836 62.6953L30.2734 61.7188L16.748 74.5605L1.36719 89.9414C0.488281 90.8203 0 92.041 0 93.3105C0 96.0449 2.05078 97.9004 4.83398 97.9004C6.00586 97.9004 7.12891 97.4609 7.95898 96.582L23.2422 81.1523L36.1328 67.627L35.1562 84.6191L35.1562 89.2578C35.1562 91.8945 37.0117 93.7988 39.5508 93.7988Z" fill="#000000" fill-opacity="0.85"/>
 </g>
</svg>
