<?xml version="1.0" encoding="UTF-8"?>
<!--Generator: Apple Native CoreSVG 232.5-->
<!DOCTYPE svg
PUBLIC "-//W3C//DTD SVG 1.1//EN"
       "http://www.w3.org/Graphics/SVG/1.1/DTD/svg11.dtd">
<svg version="1.1" xmlns="http://www.w3.org/2000/svg" xmlns:xlink="http://www.w3.org/1999/xlink" width="76.2207" height="92.2363">
 <g>
  <rect height="92.2363" opacity="0" width="76.2207" x="0" y="0"/>
  <path d="M65.8691 92.2363C68.7012 92.2363 71.0449 92.1875 72.5586 91.8945C74.4629 91.4551 76.2207 90.2344 76.2207 87.7441C76.2207 85.2051 74.3652 83.5938 71.875 83.5938C70.166 83.5938 68.6035 83.6914 66.3086 83.6914C48.9746 83.6914 41.2598 77.7832 41.3086 60.1074L41.3574 26.709L40.9668 13.4277L50.7324 24.1699L66.748 40.1855C67.5293 40.9668 68.6523 41.3574 69.8242 41.3574C72.2656 41.3574 74.0234 39.502 74.0234 37.1094C74.0234 35.9375 73.6328 34.9121 72.7051 33.9355L40.2832 1.46484C39.3555 0.488281 38.2324 0 37.0117 0C35.791 0 34.668 0.488281 33.7402 1.46484L1.36719 33.9355C0.439453 34.9121 0 35.9375 0 37.1094C0 39.502 1.75781 41.3574 4.19922 41.3574C5.37109 41.3574 6.54297 40.9668 7.27539 40.1855L23.291 24.1699L33.0078 13.4766L32.666 26.709L32.666 60.5469C32.666 83.252 43.3105 92.2363 65.8691 92.2363Z" fill="#000000" fill-opacity="0.85"/>
 </g>
</svg>
