<?xml version="1.0" encoding="UTF-8"?>
<!--Generator: Apple Native CoreSVG 232.5-->
<!DOCTYPE svg
PUBLIC "-//W3C//DTD SVG 1.1//EN"
       "http://www.w3.org/Graphics/SVG/1.1/DTD/svg11.dtd">
<svg version="1.1" xmlns="http://www.w3.org/2000/svg" xmlns:xlink="http://www.w3.org/1999/xlink" width="95.166" height="97.9004">
 <g>
  <rect height="97.9004" opacity="0" width="95.166" x="0" y="0"/>
  <path d="M8.78906 44.2383L35.8887 44.2383C40.8691 44.2383 43.75 41.3086 43.75 36.3281L43.75 9.27734C43.75 6.73828 41.8457 4.73633 39.2578 4.73633C36.6699 4.73633 34.8145 6.68945 34.8145 9.27734L34.8145 13.3789L35.8398 30.4199L22.9492 16.8945L7.95898 1.75781C7.12891 0.878906 6.00586 0.439453 4.83398 0.439453C2.05078 0.439453 0 2.29492 0 5.0293C0 6.29883 0.488281 7.51953 1.36719 8.39844L16.4062 23.4375L29.9316 36.2793L12.8906 35.3027L8.78906 35.3027C6.20117 35.3027 4.19922 37.1094 4.19922 39.7461C4.19922 42.334 6.15234 44.2383 8.78906 44.2383ZM55.6152 93.7988C58.2031 93.7988 60.0586 91.8945 60.0586 89.2578L60.0586 84.6191L59.0332 67.627L71.9238 81.1523L87.2559 96.582C88.0859 97.4609 89.1602 97.9004 90.3809 97.9004C93.1152 97.9004 95.166 96.0449 95.166 93.3105C95.166 92.041 94.7266 90.8203 93.8477 89.9414L78.4668 74.5605L64.8926 61.7188L81.9824 62.6953L86.6211 62.6953C89.209 62.6953 91.2109 60.8887 91.2109 58.3008C91.2109 55.6641 89.2578 53.8086 86.6211 53.8086L58.9844 53.8086C54.0039 53.8086 51.123 56.6895 51.123 61.6699L51.123 89.2578C51.123 91.8457 52.9785 93.7988 55.6152 93.7988Z" fill="#000000" fill-opacity="0.85"/>
 </g>
</svg>
