<?xml version="1.0" encoding="UTF-8"?>
<!--Generator: Apple Native CoreSVG 232.5-->
<!DOCTYPE svg
PUBLIC "-//W3C//DTD SVG 1.1//EN"
       "http://www.w3.org/Graphics/SVG/1.1/DTD/svg11.dtd">
<svg version="1.1" xmlns="http://www.w3.org/2000/svg" xmlns:xlink="http://www.w3.org/1999/xlink" width="89.8926" height="89.9902">
 <g>
  <rect height="89.9902" opacity="0" width="89.8926" x="0" y="0"/>
  <path d="M15.332 89.9902L74.5605 89.9902C84.8145 89.9902 89.8926 84.9121 89.8926 74.8535L89.8926 15.2344C89.8926 5.17578 84.8145 0.0976562 74.5605 0.0976562L15.332 0.0976562C5.12695 0.0976562 0 5.12695 0 15.2344L0 74.8535C0 84.9609 5.12695 89.9902 15.332 89.9902ZM15.4297 82.1289C10.5469 82.1289 7.86133 79.541 7.86133 74.4629L7.86133 15.625C7.86133 10.5469 10.5469 7.95898 15.4297 7.95898L74.4629 7.95898C79.2969 7.95898 82.0312 10.5469 82.0312 15.625L82.0312 74.4629C82.0312 79.541 79.2969 82.1289 74.4629 82.1289Z" fill="#000000" fill-opacity="0.85"/>
  <path d="M60.2539 32.8613C58.1055 32.8613 56.6895 34.3262 56.6895 36.6699L56.6895 45.1172L57.4219 52.7344L50.3906 45.2148L32.4219 27.2461C31.7383 26.5625 30.8105 26.123 29.6387 26.123C27.4902 26.123 26.0742 27.5391 26.0742 29.7363C26.0742 30.7129 26.5137 31.6895 27.1973 32.373L45.2148 50.3418L52.832 57.4707L45.6055 56.6895L36.7188 56.6895C34.375 56.6895 32.8613 58.1055 32.8613 60.2539C32.8613 62.4023 34.3262 63.8184 36.6211 63.8184L59.7656 63.8184C62.2559 63.8184 63.8672 62.6953 63.8672 59.8145L63.8672 36.7676C63.8672 34.4727 62.4023 32.8613 60.2539 32.8613Z" fill="#000000" fill-opacity="0.85"/>
 </g>
</svg>
