<?xml version="1.0" encoding="UTF-8"?>
<!--Generator: Apple Native CoreSVG 232.5-->
<!DOCTYPE svg
PUBLIC "-//W3C//DTD SVG 1.1//EN"
       "http://www.w3.org/Graphics/SVG/1.1/DTD/svg11.dtd">
<svg version="1.1" xmlns="http://www.w3.org/2000/svg" xmlns:xlink="http://www.w3.org/1999/xlink" width="89.8926" height="89.9902">
 <g>
  <rect height="89.9902" opacity="0" width="89.8926" x="0" y="0"/>
  <path d="M15.332 89.9902L74.5605 89.9902C84.8145 89.9902 89.8926 84.9121 89.8926 74.8535L89.8926 15.2344C89.8926 5.17578 84.8145 0.0976562 74.5605 0.0976562L15.332 0.0976562C5.12695 0.0976562 0 5.12695 0 15.2344L0 74.8535C0 84.9609 5.12695 89.9902 15.332 89.9902ZM15.4297 82.1289C10.5469 82.1289 7.86133 79.541 7.86133 74.4629L7.86133 15.625C7.86133 10.5469 10.5469 7.95898 15.4297 7.95898L74.4629 7.95898C79.2969 7.95898 82.0312 10.5469 82.0312 15.625L82.0312 74.4629C82.0312 79.541 79.2969 82.1289 74.4629 82.1289Z" fill="#000000" fill-opacity="0.85"/>
  <path d="M29.6387 57.0801C31.7871 57.0801 33.2031 55.5664 33.2031 53.2715L33.2031 44.8242L32.4707 37.207L39.502 44.7266L57.4707 62.6953C58.2031 63.3789 59.082 63.8184 60.2539 63.8184C62.4023 63.8184 63.8672 62.4023 63.8672 60.2051C63.8672 59.2285 63.3789 58.252 62.6953 57.5684L44.6777 39.5508L37.0605 32.4707L44.2871 33.252L53.1738 33.252C55.5176 33.252 57.0312 31.8359 57.0312 29.6875C57.0312 27.5391 55.5664 26.123 53.2715 26.123L30.127 26.123C27.6367 26.123 26.0742 27.2461 26.0742 30.127L26.0742 53.1738C26.0742 55.4199 27.4902 57.0801 29.6387 57.0801Z" fill="#000000" fill-opacity="0.85"/>
 </g>
</svg>
