<?xml version="1.0" encoding="UTF-8"?>
<!--Generator: Apple Native CoreSVG 232.5-->
<!DOCTYPE svg
PUBLIC "-//W3C//DTD SVG 1.1//EN"
       "http://www.w3.org/Graphics/SVG/1.1/DTD/svg11.dtd">
<svg version="1.1" xmlns="http://www.w3.org/2000/svg" xmlns:xlink="http://www.w3.org/1999/xlink" width="99.6094" height="99.6582">
 <g>
  <rect height="99.6582" opacity="0" width="99.6094" x="0" y="0"/>
  <path d="M49.8047 99.6094C77.0508 99.6094 99.6094 77.002 99.6094 49.8047C99.6094 22.5586 77.002 0 49.7559 0C22.5586 0 0 22.5586 0 49.8047C0 77.002 22.6074 99.6094 49.8047 99.6094ZM49.8047 91.3086C26.7578 91.3086 8.34961 72.8516 8.34961 49.8047C8.34961 26.7578 26.709 8.30078 49.7559 8.30078C72.8027 8.30078 91.3086 26.7578 91.3086 49.8047C91.3086 72.8516 72.8516 91.3086 49.8047 91.3086Z" fill="#000000" fill-opacity="0.85"/>
  <path d="M49.707 78.6133C51.5625 78.6133 52.9785 77.1973 52.9785 75.3418L52.9785 52.9297L52.4414 43.9941L61.0352 53.7598L64.209 56.9824C64.8926 57.666 65.7715 57.959 66.6504 57.959C68.457 57.959 69.7266 56.4941 69.7266 54.7363C69.7266 53.8574 69.4824 53.0273 68.7012 52.2461L52.1484 35.498C51.4648 34.7656 50.5859 34.375 49.707 34.375C48.8281 34.375 47.9492 34.7168 47.2656 35.498L30.7617 52.2949C30.1758 52.9785 29.7852 53.9551 29.7852 54.7363C29.7852 56.5918 31.0547 57.959 32.9102 57.959C33.9355 57.959 34.668 57.666 35.3027 56.9824L38.0859 53.9062L46.9727 43.9453L46.4355 52.9297L46.4355 75.3418C46.4355 77.1973 47.7539 78.6133 49.707 78.6133ZM31.4453 30.6152L68.1152 30.6152C70.0195 30.6152 71.3379 29.248 71.3379 27.3926C71.3379 25.4395 70.0195 24.0723 68.1152 24.0723L31.4453 24.0723C29.541 24.0723 28.1738 25.4395 28.1738 27.3926C28.1738 29.248 29.541 30.6152 31.4453 30.6152Z" fill="#000000" fill-opacity="0.85"/>
 </g>
</svg>
