<?xml version="1.0" encoding="UTF-8"?>
<!--Generator: Apple Native CoreSVG 232.5-->
<!DOCTYPE svg
PUBLIC "-//W3C//DTD SVG 1.1//EN"
       "http://www.w3.org/Graphics/SVG/1.1/DTD/svg11.dtd">
<svg version="1.1" xmlns="http://www.w3.org/2000/svg" xmlns:xlink="http://www.w3.org/1999/xlink" width="99.6094" height="99.6582">
 <g>
  <rect height="99.6582" opacity="0" width="99.6094" x="0" y="0"/>
  <path d="M49.8047 99.6094C77.0508 99.6094 99.6094 77.002 99.6094 49.8047C99.6094 22.5586 77.002 0 49.7559 0C22.5586 0 0 22.5586 0 49.8047C0 77.002 22.6074 99.6094 49.8047 99.6094ZM49.8047 91.3086C26.7578 91.3086 8.34961 72.8516 8.34961 49.8047C8.34961 26.7578 26.709 8.30078 49.7559 8.30078C72.8027 8.30078 91.3086 26.7578 91.3086 49.8047C91.3086 72.8516 72.8516 91.3086 49.8047 91.3086Z" fill="#000000" fill-opacity="0.85"/>
  <path d="M74.8535 49.7559C74.8535 48.6816 74.4629 47.9004 73.4863 46.9238L56.9824 30.3223C56.3477 29.6875 55.4688 29.3457 54.4434 29.3457C52.4414 29.3457 50.9277 30.8594 50.9277 32.8613C50.9277 33.9355 51.3672 34.8145 52.002 35.498L58.1055 41.5527L64.0137 46.4844L53.7109 46.0938L28.2227 46.0938C26.123 46.0938 24.5605 47.6074 24.5605 49.7559C24.5605 51.8555 26.123 53.3691 28.2227 53.3691L53.7109 53.3691L64.0137 53.0273L58.1055 57.959L52.002 64.0137C51.3184 64.6484 50.9277 65.5273 50.9277 66.6016C50.9277 68.6035 52.4414 70.166 54.4434 70.166C55.4688 70.166 56.3477 69.7754 56.9824 69.1406L73.4863 52.5879C74.4141 51.709 74.8535 50.8301 74.8535 49.7559Z" fill="#000000" fill-opacity="0.85"/>
 </g>
</svg>
