<?xml version="1.0" encoding="UTF-8"?>
<!--Generator: Apple Native CoreSVG 232.5-->
<!DOCTYPE svg
PUBLIC "-//W3C//DTD SVG 1.1//EN"
       "http://www.w3.org/Graphics/SVG/1.1/DTD/svg11.dtd">
<svg version="1.1" xmlns="http://www.w3.org/2000/svg" xmlns:xlink="http://www.w3.org/1999/xlink" width="139.258" height="103.076">
 <g>
  <rect height="103.076" opacity="0" width="139.258" x="0" y="0"/>
  <path d="M56.6845 11.9011L25.1953 41.3574C22.0703 44.2871 20.6543 47.9492 20.6543 51.4648C20.6543 54.9316 22.0703 58.5938 25.2441 61.5234L56.7037 91.2286C56.4097 94.1674 54.1206 96.2891 51.0254 96.2891C48.6328 96.2891 46.6797 95.3125 44.3359 93.1152L5.76172 56.7383C4.00391 55.0781 3.32031 53.1738 3.32031 51.5137C3.32031 49.7559 4.00391 47.9004 5.76172 46.2402L44.3359 10.2051C46.9238 7.76367 48.5352 6.73828 50.9277 6.73828C54.0639 6.73828 56.3367 8.99919 56.6845 11.9011Z" fill="#000000" fill-opacity="0.85"/>
  <path d="M75.0488 96.2402C78.3203 96.2402 80.7617 93.7988 80.7617 90.5273L80.7617 71.875L82.1777 71.875C101.074 71.875 113.037 76.6602 121.533 92.627C123.242 95.752 125.488 96.2402 127.539 96.2402C130.176 96.2402 132.568 93.8965 132.568 89.6973C132.568 53.6133 117.285 31.1035 82.1777 31.1035L80.7617 31.1035L80.7617 12.6465C80.7617 9.375 78.3203 6.68945 74.9512 6.68945C72.5098 6.68945 70.8984 7.71484 68.3105 10.1562L29.7852 46.1914C28.0273 47.8516 27.2949 49.707 27.2949 51.4648C27.2949 53.125 28.0273 55.0293 29.7852 56.6895L68.3105 93.0664C70.6543 95.2637 72.6074 96.2402 75.0488 96.2402Z" fill="#000000" fill-opacity="0.85"/>
 </g>
</svg>
