<?xml version="1.0" encoding="UTF-8"?>
<!--Generator: Apple Native CoreSVG 232.5-->
<!DOCTYPE svg
PUBLIC "-//W3C//DTD SVG 1.1//EN"
       "http://www.w3.org/Graphics/SVG/1.1/DTD/svg11.dtd">
<svg version="1.1" xmlns="http://www.w3.org/2000/svg" xmlns:xlink="http://www.w3.org/1999/xlink" width="115.137" height="89.8926">
 <g>
  <rect height="89.8926" opacity="0" width="115.137" x="0" y="0"/>
  <path d="M115.137 15.1367L115.137 74.8047C115.137 84.8633 110.059 89.8926 99.8047 89.8926L15.332 89.8926C5.12695 89.8926 0 84.8633 0 74.8047L0 15.1367C0 5.07812 5.12695 0 15.332 0L99.8047 0C110.059 0 115.137 5.07812 115.137 15.1367ZM23.0469 39.5996C20.6543 39.5996 19.1406 41.0645 19.1406 43.2617C19.1406 45.5078 20.7031 46.9727 23.1445 46.9727L31.543 46.9727L39.0137 46.1914L31.1523 53.5156L16.0156 68.6035C15.2832 69.3359 14.7949 70.3613 14.7949 71.3379C14.7949 73.6328 16.2598 75.0977 18.5059 75.0977C19.7266 75.0977 20.6543 74.6582 21.3867 73.9258L36.4746 58.8379L43.75 51.0742L43.0176 58.8867L43.0176 66.8945C43.0176 69.2871 44.4824 70.8496 46.7285 70.8496C48.9258 70.8496 50.4395 69.1406 50.4395 66.7969L50.4395 43.75C50.4395 40.7715 48.7793 39.5996 46.1914 39.5996Z" fill="#000000" fill-opacity="0.85"/>
 </g>
</svg>
