<?xml version="1.0" encoding="UTF-8"?>
<!--Generator: Apple Native CoreSVG 232.5-->
<!DOCTYPE svg
PUBLIC "-//W3C//DTD SVG 1.1//EN"
       "http://www.w3.org/Graphics/SVG/1.1/DTD/svg11.dtd">
<svg version="1.1" xmlns="http://www.w3.org/2000/svg" xmlns:xlink="http://www.w3.org/1999/xlink" width="89.8926" height="89.9902">
 <g>
  <rect height="89.9902" opacity="0" width="89.8926" x="0" y="0"/>
  <path d="M89.8926 15.2344L89.8926 74.8535C89.8926 84.9121 84.8145 89.9902 74.5605 89.9902L15.332 89.9902C5.12695 89.9902 0 84.9609 0 74.8535L0 15.2344C0 5.12695 5.12695 0.0976562 15.332 0.0976562L74.5605 0.0976562C84.8145 0.0976562 89.8926 5.17578 89.8926 15.2344ZM25.4883 29.2969C25.4883 30.2734 25.9277 31.2988 26.6602 32.0312L45.166 50.4395L53.0273 57.8125L45.5566 57.0312L36.4746 57.0312C34.0332 57.0312 32.4707 58.4961 32.4707 60.6934C32.4707 62.9395 33.9844 64.4043 36.377 64.4043L60.2051 64.4043C62.793 64.4043 64.4531 63.2324 64.4531 60.2539L64.4531 36.5234C64.4531 34.1309 62.9395 32.4707 60.7422 32.4707C58.4961 32.4707 57.0312 33.9844 57.0312 36.4258L57.0312 45.0684L57.7637 52.9297L50.4883 45.166L32.0801 26.709C31.3477 25.9766 30.3711 25.5371 29.1504 25.5371C26.9531 25.5371 25.4883 27.002 25.4883 29.2969Z" fill="#000000" fill-opacity="0.85"/>
 </g>
</svg>
