<?xml version="1.0" encoding="UTF-8"?>
<!--Generator: Apple Native CoreSVG 232.5-->
<!DOCTYPE svg
PUBLIC "-//W3C//DTD SVG 1.1//EN"
       "http://www.w3.org/Graphics/SVG/1.1/DTD/svg11.dtd">
<svg version="1.1" xmlns="http://www.w3.org/2000/svg" xmlns:xlink="http://www.w3.org/1999/xlink" width="89.8926" height="89.9902">
 <g>
  <rect height="89.9902" opacity="0" width="89.8926" x="0" y="0"/>
  <path d="M89.8926 15.2344L89.8926 74.8535C89.8926 84.9121 84.8145 89.9902 74.5605 89.9902L15.332 89.9902C5.12695 89.9902 0 84.9609 0 74.8535L0 15.2344C0 5.12695 5.12695 0.0976562 15.332 0.0976562L74.5605 0.0976562C84.8145 0.0976562 89.8926 5.17578 89.8926 15.2344ZM64.2578 26.0254L64.2578 63.8672C64.2578 65.8203 65.6738 67.1875 67.5781 67.1875C69.6289 67.1875 71.0449 65.8203 71.0449 63.8672L71.0449 26.0254C71.0449 24.0723 69.6289 22.7051 67.5781 22.7051C65.6738 22.7051 64.2578 24.0723 64.2578 26.0254ZM36.0352 27.5391C36.0352 28.4668 36.3281 29.3945 37.0605 30.0293L40.1855 33.1055L50.4395 42.1875L41.2109 41.6504L18.1641 41.6504C16.2109 41.6504 14.7949 43.0664 14.7949 45.0195C14.7949 47.0703 16.2109 48.4375 18.1641 48.4375L41.2109 48.4375L50.4883 47.8516L40.2344 56.9336L37.0605 59.8633C36.3281 60.4492 36.0352 61.2793 36.0352 62.3047C36.0352 64.2578 37.4512 65.5762 39.4043 65.5762C40.1855 65.5762 41.2598 65.1367 41.9434 64.4531L59.2773 47.5586C60.0586 46.8262 60.4492 45.9473 60.4492 45.0195C60.4492 44.043 59.9609 43.2129 59.2773 42.4316L41.8945 25.3906C41.1621 24.6094 40.2832 24.3164 39.4043 24.3164C37.5488 24.3164 36.0352 25.6348 36.0352 27.5391Z" fill="#000000" fill-opacity="0.85"/>
 </g>
</svg>
