<?xml version="1.0" encoding="UTF-8"?>
<!--Generator: Apple Native CoreSVG 232.5-->
<!DOCTYPE svg
PUBLIC "-//W3C//DTD SVG 1.1//EN"
       "http://www.w3.org/Graphics/SVG/1.1/DTD/svg11.dtd">
<svg version="1.1" xmlns="http://www.w3.org/2000/svg" xmlns:xlink="http://www.w3.org/1999/xlink" width="99.6094" height="99.6582">
 <g>
  <rect height="99.6582" opacity="0" width="99.6094" x="0" y="0"/>
  <path d="M49.8047 99.6094C77.0508 99.6094 99.6094 77.002 99.6094 49.8047C99.6094 22.5586 77.002 0 49.7559 0C22.5586 0 0 22.5586 0 49.8047C0 77.002 22.6074 99.6094 49.8047 99.6094ZM49.8047 91.3086C26.7578 91.3086 8.34961 72.8516 8.34961 49.8047C8.34961 26.7578 26.709 8.30078 49.7559 8.30078C72.8027 8.30078 91.3086 26.7578 91.3086 49.8047C91.3086 72.8516 72.8516 91.3086 49.8047 91.3086Z" fill="#000000" fill-opacity="0.85"/>
  <path d="M32.3242 27.002L20.2637 39.3066C19.7266 39.9414 19.2871 40.8691 19.2871 41.5527C19.2871 43.3594 20.6543 44.7266 22.4609 44.7266C23.291 44.7266 24.0723 44.3359 24.6582 43.75L29.6875 38.5254L31.543 36.5234L31.4453 38.916L31.4453 70.5566C31.4453 72.3145 32.8125 73.6328 34.6191 73.6328C36.4746 73.6328 37.793 72.3145 37.793 70.5566L37.793 38.8672L37.6953 36.5234L39.5508 38.5254L44.6289 43.7988C45.2148 44.3848 45.9961 44.7266 46.8262 44.7266C48.6328 44.7266 49.9023 43.4082 49.9023 41.5527C49.9023 40.7715 49.5117 39.8438 48.9746 39.3066L36.9629 27.002C35.791 25.7812 33.7402 25.5859 32.3242 27.002ZM67.2363 72.7051L79.1992 60.4492C79.7852 59.8145 80.2246 58.9355 80.2246 58.1543C80.2246 56.2988 78.9062 55.0293 77.0996 55.0293C76.2207 55.0293 75.3906 55.3711 74.8535 55.957L69.8242 61.1328L67.9688 63.1348L68.0664 60.8398L68.0664 29.1504C68.0664 27.3438 66.6992 26.0254 64.8926 26.0254C63.0859 26.0254 61.7188 27.3438 61.7188 29.1504L61.7188 60.8887L61.8164 63.1836L59.9609 61.1328L54.9316 55.957C54.2969 55.3223 53.5645 55.0293 52.6855 55.0293C50.8301 55.0293 49.6094 56.2988 49.6094 58.1543C49.6094 58.8867 49.9512 59.7656 50.4883 60.4492L62.5 72.7051C63.6719 73.877 65.918 74.0723 67.2363 72.7051Z" fill="#000000" fill-opacity="0.85"/>
 </g>
</svg>
