<?xml version="1.0" encoding="UTF-8"?>
<!--Generator: Apple Native CoreSVG 232.5-->
<!DOCTYPE svg
PUBLIC "-//W3C//DTD SVG 1.1//EN"
       "http://www.w3.org/Graphics/SVG/1.1/DTD/svg11.dtd">
<svg version="1.1" xmlns="http://www.w3.org/2000/svg" xmlns:xlink="http://www.w3.org/1999/xlink" width="96.1914" height="60.4004">
 <g>
  <rect height="60.4004" opacity="0" width="96.1914" x="0" y="0"/>
  <path d="M0 30.1758C0 31.3477 0.488281 32.4707 1.46484 33.3984L27.5391 58.9844C28.3691 59.8145 29.6387 60.3027 30.7129 60.3027C33.3008 60.3027 35.0098 58.5449 35.0098 56.0059C35.0098 54.7363 34.6191 53.8086 33.8379 53.0273L22.3633 41.9434L13.2324 34.0332L24.5605 34.5215L71.582 34.5215L82.9102 34.0332L73.7793 41.9434L62.3535 53.0273C61.5723 53.8086 61.1816 54.7363 61.1816 56.0059C61.1816 58.5449 62.8906 60.3027 65.4785 60.3027C66.5527 60.3027 67.8223 59.8145 68.6523 58.9844L94.7266 33.3984C95.7031 32.4707 96.1914 31.3477 96.1914 30.1758C96.1914 28.9551 95.7031 27.832 94.7266 26.9043L68.6523 1.31836C67.8223 0.488281 66.5527 0 65.4785 0C62.8906 0 61.1816 1.75781 61.1816 4.29688C61.1816 5.56641 61.5723 6.49414 62.3535 7.27539L73.7793 18.4082L82.9102 26.2695L71.582 25.7812L24.5605 25.7812L13.2324 26.2695L22.3633 18.4082L33.8379 7.27539C34.6191 6.49414 35.0098 5.56641 35.0098 4.29688C35.0098 1.75781 33.3008 0 30.7129 0C29.6387 0 28.3691 0.488281 27.5391 1.31836L1.46484 26.9043C0.488281 27.832 0 28.9551 0 30.1758Z" fill="#000000" fill-opacity="0.85"/>
 </g>
</svg>
