<?xml version="1.0" encoding="UTF-8"?>
<!--Generator: Apple Native CoreSVG 232.5-->
<!DOCTYPE svg
PUBLIC "-//W3C//DTD SVG 1.1//EN"
       "http://www.w3.org/Graphics/SVG/1.1/DTD/svg11.dtd">
<svg version="1.1" xmlns="http://www.w3.org/2000/svg" xmlns:xlink="http://www.w3.org/1999/xlink" width="99.6094" height="99.6582">
 <g>
  <rect height="99.6582" opacity="0" width="99.6094" x="0" y="0"/>
  <path d="M49.8047 99.6094C77.0508 99.6094 99.6094 77.002 99.6094 49.8047C99.6094 22.5586 77.002 0 49.7559 0C22.5586 0 0 22.5586 0 49.8047C0 77.002 22.6074 99.6094 49.8047 99.6094ZM49.8047 91.3086C26.7578 91.3086 8.34961 72.8516 8.34961 49.8047C8.34961 26.7578 26.709 8.30078 49.7559 8.30078C72.8027 8.30078 91.3086 26.7578 91.3086 49.8047C91.3086 72.8516 72.8516 91.3086 49.8047 91.3086Z" fill="#000000" fill-opacity="0.85"/>
  <path d="M27.9785 52.0508C27.9785 64.2578 37.6953 74.0234 49.7559 74.0234C61.8164 74.0234 71.5332 64.2578 71.5332 52.1973C71.5332 50.3906 69.9707 48.877 68.1641 48.877C66.3574 48.877 64.7949 50.3906 64.7949 52.1973C64.7949 60.5469 58.1055 67.2852 49.7559 67.2852C41.4062 67.2852 34.7168 60.5957 34.7168 52.1973C34.7168 43.8477 41.4062 37.1582 49.7559 37.1582C50.3906 37.1582 51.0742 37.207 51.5625 37.3047L46.7773 41.9434C46.1914 42.5781 45.8496 43.3105 45.8496 44.2383C45.8496 45.9473 47.2168 47.2656 48.9258 47.2656C49.7559 47.2656 50.5371 46.875 51.0742 46.3867L60.5469 36.9141C61.7676 35.7422 61.6699 33.5449 60.5469 32.373L51.1719 22.8516C50.6348 22.2656 49.8047 21.875 48.9258 21.875C47.168 21.875 45.8496 23.2422 45.8496 25C45.8496 25.8301 46.1914 26.6602 46.7285 27.1973L50.1953 30.7129C49.8047 30.7129 49.2676 30.6152 48.8281 30.6152C37.8418 30.6152 27.9785 40.0391 27.9785 52.0508Z" fill="#000000" fill-opacity="0.85"/>
 </g>
</svg>
