<?xml version="1.0" encoding="UTF-8"?>
<!--Generator: Apple Native CoreSVG 232.5-->
<!DOCTYPE svg
PUBLIC "-//W3C//DTD SVG 1.1//EN"
       "http://www.w3.org/Graphics/SVG/1.1/DTD/svg11.dtd">
<svg version="1.1" xmlns="http://www.w3.org/2000/svg" xmlns:xlink="http://www.w3.org/1999/xlink" width="89.8926" height="89.9902">
 <g>
  <rect height="89.9902" opacity="0" width="89.8926" x="0" y="0"/>
  <path d="M15.332 89.9902L74.5605 89.9902C84.8145 89.9902 89.8926 84.9121 89.8926 74.8535L89.8926 15.2344C89.8926 5.17578 84.8145 0.0976562 74.5605 0.0976562L15.332 0.0976562C5.12695 0.0976562 0 5.12695 0 15.2344L0 74.8535C0 84.9609 5.12695 89.9902 15.332 89.9902ZM15.4297 82.1289C10.5469 82.1289 7.86133 79.541 7.86133 74.4629L7.86133 15.625C7.86133 10.5469 10.5469 7.95898 15.4297 7.95898L74.4629 7.95898C79.2969 7.95898 82.0312 10.5469 82.0312 15.625L82.0312 74.4629C82.0312 79.541 79.2969 82.1289 74.4629 82.1289Z" fill="#000000" fill-opacity="0.85"/>
  <path d="M22.1191 28.0273C20.8008 29.2969 20.8496 31.543 22.1191 32.7637L34.375 44.7754C35.0098 45.3125 35.9375 45.7031 36.6699 45.7031C38.5254 45.7031 39.7949 44.4336 39.7949 42.627C39.7949 41.748 39.4531 40.9668 38.8672 40.3809L33.6914 35.3516L31.6406 33.4473L33.9355 33.5938L65.6738 33.5938C67.4805 33.5938 68.7988 32.1777 68.7988 30.3711C68.7988 28.5645 67.4805 27.2461 65.6738 27.2461L33.9844 27.2461L31.6895 27.2949L33.6914 25.4883L38.8672 20.459C39.4531 19.873 39.7949 19.043 39.7949 18.2129C39.7949 16.3574 38.5254 15.0879 36.6699 15.0879C35.8887 15.0879 34.9609 15.4785 34.375 16.1133ZM67.8223 61.9629C69.1406 60.6445 69.0918 58.6426 67.8223 57.373L55.5176 45.3613C54.9805 44.7754 54.0527 44.3848 53.2227 44.3848C51.3672 44.3848 50.0977 45.6543 50.0977 47.4609C50.0977 48.3398 50.4395 49.1211 51.0254 49.707L56.2988 54.7363L58.3008 56.6406L55.957 56.4941L24.2676 56.4941C22.5098 56.4941 21.1426 57.8125 21.1426 59.668C21.1426 61.4746 22.4609 62.8418 24.2676 62.8418L55.9082 62.8418L58.3008 62.793L56.2988 64.5996L51.0742 69.6289C50.4883 70.2637 50.0977 70.9961 50.0977 71.875C50.0977 73.6816 51.4648 75 53.2227 75C53.9551 75 54.8828 74.6094 55.5176 74.0234Z" fill="#000000" fill-opacity="0.85"/>
 </g>
</svg>
