<?xml version="1.0" encoding="UTF-8"?>
<!--Generator: Apple Native CoreSVG 232.5-->
<!DOCTYPE svg
PUBLIC "-//W3C//DTD SVG 1.1//EN"
       "http://www.w3.org/Graphics/SVG/1.1/DTD/svg11.dtd">
<svg version="1.1" xmlns="http://www.w3.org/2000/svg" xmlns:xlink="http://www.w3.org/1999/xlink" width="99.6094" height="99.6582">
 <g>
  <rect height="99.6582" opacity="0" width="99.6094" x="0" y="0"/>
  <path d="M99.6094 49.8047C99.6094 77.002 77.0508 99.6094 49.8047 99.6094C22.6074 99.6094 0 77.002 0 49.8047C0 22.5586 22.5586 0 49.7559 0C77.002 0 99.6094 22.5586 99.6094 49.8047ZM41.2109 30.3711C38.8184 30.3711 37.3047 31.8359 37.3047 34.082C37.3047 36.2793 38.8672 37.7441 41.3086 37.7441L50.3906 37.7441L57.8613 36.9629L50 44.2871L31.4941 62.7441C30.7617 63.4766 30.2734 64.502 30.2734 65.4785C30.2734 67.7734 31.7871 69.2383 33.9844 69.2383C35.2051 69.2383 36.1328 68.7988 36.9141 68.0664L55.3223 49.6094L62.5977 41.8457L61.8652 49.707L61.8652 58.3496C61.8652 60.7422 63.3301 62.3047 65.5762 62.3047C67.7734 62.3047 69.2871 60.5957 69.2871 58.252L69.2871 34.5215C69.2871 31.543 67.627 30.3711 65.0391 30.3711Z" fill="#000000" fill-opacity="0.85"/>
 </g>
</svg>
