<?xml version="1.0" encoding="UTF-8"?>
<!--Generator: Apple Native CoreSVG 232.5-->
<!DOCTYPE svg
PUBLIC "-//W3C//DTD SVG 1.1//EN"
       "http://www.w3.org/Graphics/SVG/1.1/DTD/svg11.dtd">
<svg version="1.1" xmlns="http://www.w3.org/2000/svg" xmlns:xlink="http://www.w3.org/1999/xlink" width="89.8926" height="89.9902">
 <g>
  <rect height="89.9902" opacity="0" width="89.8926" x="0" y="0"/>
  <path d="M15.332 89.9902L74.5605 89.9902C84.8145 89.9902 89.8926 84.9121 89.8926 74.8535L89.8926 15.2344C89.8926 5.17578 84.8145 0.0976562 74.5605 0.0976562L15.332 0.0976562C5.12695 0.0976562 0 5.12695 0 15.2344L0 74.8535C0 84.9609 5.12695 89.9902 15.332 89.9902ZM15.4297 82.1289C10.5469 82.1289 7.86133 79.541 7.86133 74.4629L7.86133 15.625C7.86133 10.5469 10.5469 7.95898 15.4297 7.95898L74.4629 7.95898C79.2969 7.95898 82.0312 10.5469 82.0312 15.625L82.0312 74.4629C82.0312 79.541 79.2969 82.1289 74.4629 82.1289Z" fill="#000000" fill-opacity="0.85"/>
  <path d="M44.9219 60.6445C45.8496 60.6445 46.6797 60.2051 47.3633 59.5215L63.916 42.7246C64.6973 41.9922 64.9902 41.1621 64.9902 40.2344C64.9902 38.4766 63.6719 37.0605 61.8652 37.0605C60.9863 37.0605 60.1074 37.3535 59.4727 37.9883L56.3965 41.1133L47.6562 50.9766L48.1934 42.0898L48.1934 19.6777C48.1934 17.7734 46.8262 16.4062 44.9219 16.4062C42.9688 16.4062 41.6504 17.7734 41.6504 19.6777L41.6504 42.0898L42.1875 51.0254L33.3008 41.0645L30.5176 37.9883C29.8828 37.3535 29.1504 37.0605 28.1738 37.0605C26.2695 37.0605 25 38.3789 25 40.2344C25 41.0156 25.3906 42.041 25.9766 42.6758L42.4805 59.5215C43.1641 60.2539 44.043 60.6445 44.9219 60.6445ZM26.6602 70.8984L63.3301 70.8984C65.2344 70.8984 66.5527 69.5312 66.5527 67.627C66.5527 65.7715 65.2344 64.4043 63.3301 64.4043L26.6602 64.4043C24.7559 64.4043 23.4375 65.7715 23.4375 67.627C23.4375 69.5312 24.7559 70.8984 26.6602 70.8984Z" fill="#000000" fill-opacity="0.85"/>
 </g>
</svg>
