<?xml version="1.0" encoding="UTF-8"?>
<!--Generator: Apple Native CoreSVG 232.5-->
<!DOCTYPE svg
PUBLIC "-//W3C//DTD SVG 1.1//EN"
       "http://www.w3.org/Graphics/SVG/1.1/DTD/svg11.dtd">
<svg version="1.1" xmlns="http://www.w3.org/2000/svg" xmlns:xlink="http://www.w3.org/1999/xlink" width="99.6094" height="99.6582">
 <g>
  <rect height="99.6582" opacity="0" width="99.6094" x="0" y="0"/>
  <path d="M49.8047 99.6094C77.0508 99.6094 99.6094 77.002 99.6094 49.8047C99.6094 22.5586 77.002 0 49.7559 0C22.5586 0 0 22.5586 0 49.8047C0 77.002 22.6074 99.6094 49.8047 99.6094ZM49.8047 91.3086C26.7578 91.3086 8.34961 72.8516 8.34961 49.8047C8.34961 26.7578 26.709 8.30078 49.7559 8.30078C72.8027 8.30078 91.3086 26.7578 91.3086 49.8047C91.3086 72.8516 72.8516 91.3086 49.8047 91.3086Z" fill="#000000" fill-opacity="0.85"/>
  <path d="M65.0391 37.6953C62.8906 37.6953 61.4746 39.1602 61.4746 41.5039L61.4746 49.9512L62.207 57.5684L55.1758 50.0488L37.207 32.0801C36.4746 31.3965 35.5957 30.957 34.4238 30.957C32.2754 30.957 30.8105 32.373 30.8105 34.5703C30.8105 35.5469 31.2988 36.5234 31.9824 37.207L50 55.1758L57.6172 62.3047L50.3906 61.5234L41.5039 61.5234C39.1602 61.5234 37.6465 62.9395 37.6465 65.0879C37.6465 67.2363 39.1113 68.6523 41.4062 68.6523L64.5508 68.6523C67.041 68.6523 68.6523 67.5293 68.6523 64.6484L68.6523 41.6016C68.6523 39.3066 67.1875 37.6953 65.0391 37.6953Z" fill="#000000" fill-opacity="0.85"/>
 </g>
</svg>
