<?xml version="1.0" encoding="UTF-8"?>
<!--Generator: Apple Native CoreSVG 232.5-->
<!DOCTYPE svg
PUBLIC "-//W3C//DTD SVG 1.1//EN"
       "http://www.w3.org/Graphics/SVG/1.1/DTD/svg11.dtd">
<svg version="1.1" xmlns="http://www.w3.org/2000/svg" xmlns:xlink="http://www.w3.org/1999/xlink" width="99.6094" height="99.6582">
 <g>
  <rect height="99.6582" opacity="0" width="99.6094" x="0" y="0"/>
  <path d="M99.6094 49.8047C99.6094 77.002 77.0508 99.6094 49.8047 99.6094C22.6074 99.6094 0 77.002 0 49.8047C0 22.5586 22.5586 0 49.7559 0C77.002 0 99.6094 22.5586 99.6094 49.8047ZM24.5605 30.8594L24.5605 68.7012C24.5605 70.6543 25.9766 72.0215 27.9785 72.0215C29.9316 72.0215 31.3477 70.6543 31.3477 68.7012L31.3477 30.8594C31.3477 28.9062 29.9316 27.5391 27.9785 27.5391C25.9766 27.5391 24.5605 28.9062 24.5605 30.8594ZM53.7109 30.2246L36.3281 47.2656C35.6445 48.0469 35.1562 48.877 35.1562 49.8535C35.1562 50.7812 35.5469 51.6602 36.3281 52.3926L53.6621 69.2871C54.3457 69.9707 55.3711 70.4102 56.2012 70.4102C58.1543 70.4102 59.5215 69.0918 59.5215 67.1387C59.5215 66.1133 59.2773 65.2832 58.5449 64.6973L55.3711 61.7676L45.1172 52.6855L54.3945 53.2715L77.4414 53.2715C79.3945 53.2715 80.8105 51.9043 80.8105 49.8535C80.8105 47.9004 79.3945 46.4844 77.4414 46.4844L54.3945 46.4844L45.166 47.0215L55.4199 37.9395L58.5449 34.8633C59.2773 34.2285 59.5215 33.3008 59.5215 32.373C59.5215 30.4688 58.0566 29.1504 56.2012 29.1504C55.3223 29.1504 54.4434 29.4434 53.7109 30.2246Z" fill="#000000" fill-opacity="0.85"/>
 </g>
</svg>
