<?xml version="1.0" encoding="UTF-8"?>
<!--Generator: Apple Native CoreSVG 232.5-->
<!DOCTYPE svg
PUBLIC "-//W3C//DTD SVG 1.1//EN"
       "http://www.w3.org/Graphics/SVG/1.1/DTD/svg11.dtd">
<svg version="1.1" xmlns="http://www.w3.org/2000/svg" xmlns:xlink="http://www.w3.org/1999/xlink" width="95.4102" height="96.3379">
 <g>
  <rect height="96.3379" opacity="0" width="95.4102" x="0" y="0"/>
  <path d="M0 38.9648C0 60.4492 17.4805 77.9297 38.9648 77.9297C47.4609 77.9297 55.2246 75.1953 61.6211 70.6055L85.6445 94.6777C86.7676 95.8008 88.2324 96.3379 89.7949 96.3379C93.1152 96.3379 95.4102 93.8477 95.4102 90.5762C95.4102 89.0137 94.8242 87.5977 93.7988 86.5723L69.9219 62.5488C74.9512 56.0059 77.9297 47.8516 77.9297 38.9648C77.9297 17.4805 60.4492 0 38.9648 0C17.4805 0 0 17.4805 0 38.9648ZM8.34961 38.9648C8.34961 22.0703 22.0703 8.34961 38.9648 8.34961C55.8594 8.34961 69.5801 22.0703 69.5801 38.9648C69.5801 55.8594 55.8594 69.5801 38.9648 69.5801C22.0703 69.5801 8.34961 55.8594 8.34961 38.9648ZM21.7773 36.9629C21.7773 39.5996 24.5605 39.9414 25.9766 38.5742L30.0781 34.5215L43.2129 47.6562L38.9648 51.8066C37.4512 53.2715 37.9395 56.0059 40.5762 56.0059L53.2227 56.0059C54.9805 56.0059 55.957 54.8828 55.957 52.8809L55.957 40.8691C55.957 38.2324 53.1738 37.8906 51.7578 39.2578L47.7051 43.2617L34.5703 30.127L38.7695 26.0254C40.2832 24.5605 39.7949 21.8262 37.1582 21.8262L24.5117 21.8262C22.7539 21.8262 21.7773 22.9492 21.7773 24.9512Z" fill="#000000" fill-opacity="0.85"/>
 </g>
</svg>
