<?xml version="1.0" encoding="UTF-8"?>
<!--Generator: Apple Native CoreSVG 232.5-->
<!DOCTYPE svg
PUBLIC "-//W3C//DTD SVG 1.1//EN"
       "http://www.w3.org/Graphics/SVG/1.1/DTD/svg11.dtd">
<svg version="1.1" xmlns="http://www.w3.org/2000/svg" xmlns:xlink="http://www.w3.org/1999/xlink" width="89.8926" height="89.9902">
 <g>
  <rect height="89.9902" opacity="0" width="89.8926" x="0" y="0"/>
  <path d="M15.332 89.9902L74.5605 89.9902C84.8145 89.9902 89.8926 84.9121 89.8926 74.8535L89.8926 15.2344C89.8926 5.17578 84.8145 0.0976562 74.5605 0.0976562L15.332 0.0976562C5.12695 0.0976562 0 5.12695 0 15.2344L0 74.8535C0 84.9609 5.12695 89.9902 15.332 89.9902ZM15.4297 82.1289C10.5469 82.1289 7.86133 79.541 7.86133 74.4629L7.86133 15.625C7.86133 10.5469 10.5469 7.95898 15.4297 7.95898L74.4629 7.95898C79.2969 7.95898 82.0312 10.5469 82.0312 15.625L82.0312 74.4629C82.0312 79.541 79.2969 82.1289 74.4629 82.1289Z" fill="#000000" fill-opacity="0.85"/>
  <path d="M27.5391 22.168L15.4785 34.4727C14.9414 35.1074 14.502 36.0352 14.502 36.7188C14.502 38.5254 15.8691 39.8926 17.6758 39.8926C18.5059 39.8926 19.2871 39.502 19.873 38.916L24.9023 33.6914L26.7578 31.6895L26.6602 34.082L26.6602 65.7227C26.6602 67.4805 28.0273 68.7988 29.834 68.7988C31.6895 68.7988 33.0566 67.4805 33.0566 65.7227L33.0566 34.0332L32.9102 31.6895L34.8145 33.6914L39.8438 38.9648C40.4297 39.5508 41.2109 39.8926 42.041 39.8926C43.8477 39.8926 45.166 38.5742 45.166 36.7188C45.166 35.9375 44.7266 35.0098 44.1895 34.4727L32.1777 22.168C31.0059 20.9473 28.9551 20.752 27.5391 22.168ZM62.4512 67.8711L74.4141 55.6152C75 54.9805 75.4395 54.1016 75.4395 53.3203C75.4395 51.4648 74.1699 50.1953 72.3145 50.1953C71.4355 50.1953 70.6055 50.5371 70.0684 51.123L65.0391 56.2988L63.1836 58.3008L63.2812 56.0059L63.2812 24.3164C63.2812 22.5098 61.9141 21.1914 60.1074 21.1914C58.3008 21.1914 56.9336 22.5098 56.9336 24.3164L56.9336 56.0547L57.0312 58.3496L55.1758 56.2988L50.1465 51.123C49.5117 50.4883 48.7793 50.1953 47.9004 50.1953C46.0449 50.1953 44.8242 51.4648 44.8242 53.3203C44.8242 54.0527 45.166 54.9316 45.752 55.6152L57.7637 67.8711C58.8867 69.043 61.1328 69.2383 62.4512 67.8711Z" fill="#000000" fill-opacity="0.85"/>
 </g>
</svg>
