<?xml version="1.0" encoding="UTF-8"?>
<!--Generator: Apple Native CoreSVG 232.5-->
<!DOCTYPE svg
PUBLIC "-//W3C//DTD SVG 1.1//EN"
       "http://www.w3.org/Graphics/SVG/1.1/DTD/svg11.dtd">
<svg version="1.1" xmlns="http://www.w3.org/2000/svg" xmlns:xlink="http://www.w3.org/1999/xlink" width="99.6094" height="99.9512">
 <g>
  <rect height="99.9512" opacity="0" width="99.6094" x="0" y="0"/>
  <path d="M99.6094 49.8047C99.6094 77.0508 77.0508 99.6094 49.8047 99.6094C22.6074 99.6094 0 77.0508 0 49.8047C0 22.6074 22.5586 0 49.7559 0C77.002 0 99.6094 22.6074 99.6094 49.8047ZM56.3965 25.5371L43.3105 38.3789C42.627 39.0137 42.2852 39.9414 42.2852 41.0156C42.2852 43.0664 43.8965 44.6289 45.9961 44.6289C47.0703 44.6289 47.998 44.1895 48.6816 43.5059L54.3945 37.5488L56.0547 35.2539L55.8105 40.2832L55.8105 54.541C55.8105 61.9629 51.3672 66.8945 44.6777 66.8945C37.5 66.8945 32.666 61.8652 32.666 54.4922L32.666 47.8516C32.666 45.5566 31.2012 43.9941 29.0527 43.9941C26.8555 43.9941 25.3906 45.6055 25.3906 47.9492L25.3906 54.4922C25.3906 66.3086 33.0566 74.2188 44.6777 74.2188C55.7617 74.2188 63.0859 66.3574 63.0859 54.541L63.0859 40.2832L62.8906 35.2051L65.4785 38.5254L70.2637 43.5059C70.8984 44.1895 71.875 44.6289 72.9004 44.6289C74.9512 44.6289 76.6113 43.0664 76.6113 40.9668C76.6113 39.8926 76.2695 39.0137 75.5371 38.3301L62.5977 25.5371C61.6699 24.707 60.5957 24.2188 59.5215 24.2188C58.3984 24.2188 57.3242 24.6582 56.3965 25.5371Z" fill="#000000" fill-opacity="0.85"/>
 </g>
</svg>
