<?xml version="1.0" encoding="UTF-8"?>
<!--Generator: Apple Native CoreSVG 232.5-->
<!DOCTYPE svg
PUBLIC "-//W3C//DTD SVG 1.1//EN"
       "http://www.w3.org/Graphics/SVG/1.1/DTD/svg11.dtd">
<svg version="1.1" xmlns="http://www.w3.org/2000/svg" xmlns:xlink="http://www.w3.org/1999/xlink" width="91.6504" height="82.0801">
 <g>
  <rect height="82.0801" opacity="0" width="91.6504" x="0" y="0"/>
  <path d="M87.0605 0C84.5215 0 82.7148 1.75781 82.7148 4.29688C82.7148 6.05469 82.8125 7.61719 82.8125 9.96094C82.8125 28.0762 76.5137 35.4492 58.5938 35.4492L24.9023 35.4492L12.8906 36.1816L29.3945 21.0938L40.2344 10.0586C41.0156 9.27734 41.4062 8.1543 41.4062 6.98242C41.4062 4.54102 39.5508 2.7832 37.1582 2.7832C35.9863 2.7832 34.9609 3.17383 33.9355 4.10156L1.51367 36.5234C0.537109 37.4512 0 38.623 0 39.7949C0 41.0156 0.537109 42.1387 1.51367 43.1152L33.8379 75.3906C34.9121 76.416 35.9863 76.8555 37.1582 76.8555C39.5508 76.8555 41.4062 75.0977 41.4062 72.6562C41.4062 71.4844 41.0156 70.3613 40.2344 69.5312L29.3945 58.4961L12.9395 43.5059L24.9023 44.1895L59.0332 44.1895C82.2266 44.1895 91.6504 34.0332 91.6504 10.4004C91.6504 7.51953 91.5527 5.12695 91.2598 3.61328C90.8203 1.66016 89.6484 0 87.0605 0Z" fill="#000000" fill-opacity="0.85"/>
 </g>
</svg>
