<?xml version="1.0" encoding="UTF-8"?>
<!--Generator: Apple Native CoreSVG 232.5-->
<!DOCTYPE svg
PUBLIC "-//W3C//DTD SVG 1.1//EN"
       "http://www.w3.org/Graphics/SVG/1.1/DTD/svg11.dtd">
<svg version="1.1" xmlns="http://www.w3.org/2000/svg" xmlns:xlink="http://www.w3.org/1999/xlink" width="89.8926" height="89.9902">
 <g>
  <rect height="89.9902" opacity="0" width="89.8926" x="0" y="0"/>
  <path d="M89.8926 15.2344L89.8926 74.8535C89.8926 84.9121 84.8145 89.9902 74.5605 89.9902L15.332 89.9902C5.12695 89.9902 0 84.9609 0 74.8535L0 15.2344C0 5.12695 5.12695 0.0976562 15.332 0.0976562L74.5605 0.0976562C84.8145 0.0976562 89.8926 5.17578 89.8926 15.2344ZM46.1426 27.5391C46.1426 28.6133 46.6309 29.541 47.2656 30.2734L53.5645 36.4746L59.6191 41.5527L48.9746 41.1133L22.8027 41.1133C20.6055 41.1133 19.043 42.6758 19.043 44.9219C19.043 47.1191 20.6055 48.6816 22.8027 48.6816L48.9746 48.6816L59.6191 48.291L53.5645 53.3691L47.2656 59.5703C46.582 60.2539 46.1426 61.1816 46.1426 62.2559C46.1426 64.3555 47.7051 65.9668 49.8047 65.9668C50.8789 65.9668 51.7578 65.5762 52.4414 64.8926L69.4336 47.8516C70.4102 46.9238 70.8984 46.0449 70.8984 44.9219C70.8984 43.7988 70.459 43.0176 69.4336 41.9922L52.4414 24.9023C51.7578 24.2188 50.8789 23.877 49.8047 23.877C47.7051 23.877 46.1426 25.4395 46.1426 27.5391Z" fill="#000000" fill-opacity="0.85"/>
 </g>
</svg>
