<?xml version="1.0" encoding="UTF-8"?>
<!--Generator: Apple Native CoreSVG 232.5-->
<!DOCTYPE svg
PUBLIC "-//W3C//DTD SVG 1.1//EN"
       "http://www.w3.org/Graphics/SVG/1.1/DTD/svg11.dtd">
<svg version="1.1" xmlns="http://www.w3.org/2000/svg" xmlns:xlink="http://www.w3.org/1999/xlink" width="89.8926" height="89.9902">
 <g>
  <rect height="89.9902" opacity="0" width="89.8926" x="0" y="0"/>
  <path d="M89.8926 15.2344L89.8926 74.8535C89.8926 84.9121 84.8145 89.9902 74.5605 89.9902L15.332 89.9902C5.12695 89.9902 0 84.9609 0 74.8535L0 15.2344C0 5.12695 5.12695 0.0976562 15.332 0.0976562L74.5605 0.0976562C84.8145 0.0976562 89.8926 5.17578 89.8926 15.2344ZM33.9844 19.5801L21.2402 32.5195C20.3613 33.4473 19.9219 34.5215 19.9219 35.6445C19.9219 36.7188 20.3125 37.793 21.2402 38.7207L34.0332 51.8066C34.7168 52.4902 35.5957 52.8809 36.7188 52.8809C38.7207 52.8809 40.332 51.2207 40.332 49.1211C40.332 48.0469 39.8926 47.168 39.1602 46.4355L33.252 40.7227L30.957 39.1113L35.9863 39.3066L50.2441 39.3066C57.666 39.3066 62.5977 43.75 62.5977 50.4395C62.5977 57.666 57.5684 62.4512 50.1953 62.4512L43.5059 62.4512C41.2109 62.4512 39.6973 63.916 39.6973 66.0645C39.6973 68.2617 41.2598 69.7266 43.6035 69.7266L50.1953 69.7266C61.9629 69.7266 69.873 62.1094 69.873 50.4395C69.873 39.3555 62.0117 32.0312 50.2441 32.0312L35.9863 32.0312L30.9082 32.2754L34.2285 29.6387L39.1602 24.8535C39.8926 24.2188 40.332 23.2422 40.332 22.2656C40.332 20.1172 38.7695 18.5059 36.6699 18.5059C35.5469 18.5059 34.7168 18.8477 33.9844 19.5801Z" fill="#000000" fill-opacity="0.85"/>
 </g>
</svg>
