<?xml version="1.0" encoding="UTF-8"?>
<!--Generator: Apple Native CoreSVG 232.5-->
<!DOCTYPE svg
PUBLIC "-//W3C//DTD SVG 1.1//EN"
       "http://www.w3.org/Graphics/SVG/1.1/DTD/svg11.dtd">
<svg version="1.1" xmlns="http://www.w3.org/2000/svg" xmlns:xlink="http://www.w3.org/1999/xlink" width="86.2793" height="116.846">
 <g>
  <rect height="116.846" opacity="0" width="86.2793" x="0" y="0"/>
  <path d="M0 61.9141C0 85.8887 19.2383 105.127 43.1641 105.127C67.0898 105.127 86.2793 85.8887 86.2793 61.9141C86.2793 59.5703 84.6191 57.8613 82.2266 57.8613C79.9316 57.8613 78.418 59.5703 78.418 61.9141C78.418 81.543 62.7441 97.2656 43.1641 97.2656C23.584 97.2656 7.86133 81.543 7.86133 61.9141C7.86133 42.334 23.584 26.6602 43.1641 26.6602C46.875 26.6602 50.3418 26.9531 53.2227 27.6367L38.623 42.0898C37.8906 42.8711 37.5 43.8477 37.5 44.873C37.5 47.1191 39.1602 48.7793 41.3574 48.7793C42.5781 48.7793 43.5059 48.3887 44.1895 47.6562L64.3066 27.4414C65.1855 26.6113 65.5273 25.6348 65.5273 24.5117C65.5273 23.4375 65.0879 22.3633 64.3066 21.582L44.1895 1.17188C43.5059 0.390625 42.5293 0 41.3574 0C39.1602 0 37.5 1.75781 37.5 4.00391C37.5 5.0293 37.8906 6.00586 38.5742 6.78711L51.5625 19.6289C49.0234 19.1406 46.1426 18.7988 43.1641 18.7988C19.2383 18.7988 0 37.9883 0 61.9141Z" fill="#000000" fill-opacity="0.85"/>
 </g>
</svg>
