<?xml version="1.0" encoding="UTF-8"?>
<!--Generator: Apple Native CoreSVG 232.5-->
<!DOCTYPE svg
PUBLIC "-//W3C//DTD SVG 1.1//EN"
       "http://www.w3.org/Graphics/SVG/1.1/DTD/svg11.dtd">
<svg version="1.1" xmlns="http://www.w3.org/2000/svg" xmlns:xlink="http://www.w3.org/1999/xlink" width="72.1191" height="72.2168">
 <g>
  <rect height="72.2168" opacity="0" width="72.1191" x="0" y="0"/>
  <path d="M72.1191 54.0039L72.0703 4.88281C72.0703 2.09961 70.2637 0.146484 67.334 0.146484L18.2129 0.146484C15.4785 0.146484 13.623 2.24609 13.623 4.58984C13.623 6.93359 15.7227 8.93555 18.0176 8.93555L35.0098 8.93555L58.8379 8.1543L49.7559 16.1133L1.36719 64.5996C0.488281 65.4785 0 66.6016 0 67.6758C0 70.0195 2.09961 72.2168 4.54102 72.2168C5.66406 72.2168 6.73828 71.8262 7.61719 70.8984L56.1035 22.4609L64.1602 13.3301L63.2812 36.1328L63.2812 54.1992C63.2812 56.4941 65.2832 58.6426 67.6758 58.6426C70.0195 58.6426 72.1191 56.6406 72.1191 54.0039Z" fill="#000000" fill-opacity="0.85"/>
 </g>
</svg>
