<?xml version="1.0" encoding="UTF-8"?>
<!--Generator: Apple Native CoreSVG 232.5-->
<!DOCTYPE svg
PUBLIC "-//W3C//DTD SVG 1.1//EN"
       "http://www.w3.org/Graphics/SVG/1.1/DTD/svg11.dtd">
<svg version="1.1" xmlns="http://www.w3.org/2000/svg" xmlns:xlink="http://www.w3.org/1999/xlink" width="99.6094" height="99.6582">
 <g>
  <rect height="99.6582" opacity="0" width="99.6094" x="0" y="0"/>
  <path d="M99.6094 49.8047C99.6094 77.002 77.0508 99.6094 49.8047 99.6094C22.6074 99.6094 0 77.002 0 49.8047C0 22.5586 22.5586 0 49.7559 0C77.002 0 99.6094 22.5586 99.6094 49.8047ZM27.5879 50.3906C25.5859 50.3906 23.9746 51.9531 23.9746 54.0039C23.9746 55.957 25.5859 57.5195 27.5879 57.5195L30.0293 57.5195L37.7441 57.0312L24.1699 70.0195C22.7051 71.4844 22.6074 73.9258 24.1211 75.3906C25.5859 76.9043 27.9785 76.9043 29.4434 75.3418L42.5781 61.7188L42.0898 69.6777L42.0898 72.1191C42.0898 74.1211 43.6523 75.6836 45.6055 75.6836C47.6074 75.6836 49.2188 74.1211 49.2188 72.1191L49.2188 54.541C49.2188 51.5625 47.6562 50.3906 45.0195 50.3906ZM70.166 24.2188L57.0312 37.8418L57.5195 29.8828L57.5195 27.4414C57.5195 25.4395 55.957 23.877 54.0039 23.877C52.002 23.877 50.3906 25.4395 50.3906 27.4414L50.3906 44.9707C50.3906 47.998 51.9531 49.1699 54.5898 49.1699L72.0215 49.1699C74.0234 49.1699 75.6348 47.5586 75.6348 45.5566C75.6348 43.6035 74.0234 42.041 72.0215 42.041L69.5801 42.041L61.8652 42.5293L75.4395 29.541C76.9043 28.0273 77.002 25.6348 75.4883 24.1699C74.0234 22.6562 71.6309 22.6562 70.166 24.2188Z" fill="#000000" fill-opacity="0.85"/>
 </g>
</svg>
