<?xml version="1.0" encoding="UTF-8"?>
<!--Generator: Apple Native CoreSVG 232.5-->
<!DOCTYPE svg
PUBLIC "-//W3C//DTD SVG 1.1//EN"
       "http://www.w3.org/Graphics/SVG/1.1/DTD/svg11.dtd">
<svg version="1.1" xmlns="http://www.w3.org/2000/svg" xmlns:xlink="http://www.w3.org/1999/xlink" width="99.6094" height="99.6582">
 <g>
  <rect height="99.6582" opacity="0" width="99.6094" x="0" y="0"/>
  <path d="M99.6094 49.8535C99.6094 77.0996 77.0508 99.6582 49.8047 99.6582C22.6074 99.6582 0 77.0996 0 49.8535C0 22.6562 22.5586 0.0488281 49.7559 0.0488281C77.002 0.0488281 99.6094 22.6562 99.6094 49.8535ZM34.9121 24.3164L14.1113 43.75C13.1348 44.7266 12.8418 45.6055 12.8418 46.582C12.8418 47.4609 13.1348 48.3887 14.1113 49.3652L34.9121 68.8965C36.2305 70.0684 37.1582 70.6543 38.4277 70.6543C40.2832 70.6543 41.5039 69.5312 41.5039 68.3594L41.5039 67.1387L24.9512 51.8555C23.3398 50.3906 22.4609 48.5352 22.4609 46.582C22.4609 44.6289 23.291 42.7246 24.9512 41.2598L41.5039 26.0742L41.5039 24.8535C41.5039 23.6328 40.2832 22.4609 38.3789 22.4609C37.1094 22.4609 36.2793 23.0469 34.9121 24.3164ZM48.1934 24.3164L27.4414 43.75C26.416 44.7754 26.123 45.6055 26.123 46.582C26.123 47.4609 26.416 48.3398 27.4414 49.3652L48.1934 68.8965C49.4629 70.0684 50.5371 70.6543 51.709 70.6543C53.4668 70.6543 54.7852 69.3848 54.7852 67.5293L54.7852 57.5195L55.5664 57.5195C65.7715 57.5195 72.3145 60.1074 76.7578 68.7012C77.6367 70.3125 78.8574 70.6543 80.0293 70.6543C81.4941 70.6543 82.666 69.3848 82.666 67.1387C82.666 47.6562 74.3652 35.6934 55.5664 35.6934L54.7852 35.6934L54.7852 25.6836C54.7852 23.9746 53.4668 22.4609 51.6602 22.4609C50.4395 22.4609 49.5605 23.0469 48.1934 24.3164Z" fill="#000000" fill-opacity="0.85"/>
 </g>
</svg>
