<?xml version="1.0" encoding="UTF-8"?>
<!--Generator: Apple Native CoreSVG 232.5-->
<!DOCTYPE svg
PUBLIC "-//W3C//DTD SVG 1.1//EN"
       "http://www.w3.org/Graphics/SVG/1.1/DTD/svg11.dtd">
<svg version="1.1" xmlns="http://www.w3.org/2000/svg" xmlns:xlink="http://www.w3.org/1999/xlink" width="75.4395" height="104.541">
 <g>
  <rect height="104.541" opacity="0" width="75.4395" x="0" y="0"/>
  <path d="M4.63867 72.0215C4.63867 79.5898 7.61719 85.1562 13.1348 88.1836C15.8203 89.5996 17.3828 91.4062 18.3594 94.6777L19.9219 99.9023C20.8496 103.027 23.0469 104.541 26.3184 104.541L48.877 104.541C52.2461 104.541 54.2969 103.076 55.2246 99.9023L56.8359 94.6777C57.8125 91.4062 59.375 89.5996 62.0605 88.1836C67.5781 85.1562 70.5566 79.5898 70.5566 72.0215L70.5566 32.5195C70.5566 24.9512 67.5781 19.4336 62.0605 16.3574C59.375 14.9414 57.8125 13.1348 56.8359 9.91211L55.2246 4.63867C54.3945 1.5625 52.1973 0 48.877 0L26.3184 0C23.0469 0 20.8496 1.51367 19.9219 4.63867L18.3594 9.91211C17.4316 13.0859 15.8691 14.9902 13.1348 16.3574C7.66602 19.2871 4.63867 24.8535 4.63867 32.5195ZM11.7676 70.9961L11.7676 33.5938C11.7676 26.3184 16.0156 21.9238 23.1445 21.9238L52.0508 21.9238C59.1797 21.9238 63.4277 26.3184 63.4277 33.5938L63.4277 70.9961C63.4277 78.2227 59.1797 82.6172 52.0508 82.6172L23.1445 82.6172C16.0156 82.6172 11.7676 78.2227 11.7676 70.9961ZM69.4824 48.8281L71.2402 48.8281C73.7793 48.8281 75.4395 47.1191 75.4395 44.3359L75.4395 37.7441C75.4395 34.9609 73.7793 33.252 71.2402 33.252L69.4824 33.252Z" fill="#000000" fill-opacity="0.85"/>
  <path d="M37.793 32.3242C36.0352 32.3242 34.8145 33.5938 34.8145 35.3516L34.8145 54.6387L35.0586 62.7441L31.2988 58.2031L26.7578 53.5645C26.2207 53.0762 25.4395 52.6855 24.6094 52.6855C22.9492 52.6855 21.6797 53.9551 21.6797 55.6152C21.6797 56.3965 21.9238 57.1777 22.4609 57.7148L35.4492 70.6055C36.2305 71.3867 36.9629 71.7773 37.793 71.7773C38.6719 71.7773 39.4043 71.3867 40.1855 70.6055L53.0762 57.7148C53.6133 57.1777 53.9551 56.3965 53.9551 55.6152C53.9551 53.9551 52.6855 52.6855 51.0254 52.6855C50.0977 52.6855 49.3652 53.0273 48.877 53.5645L44.3359 58.2031L40.4785 62.793L40.7715 54.6387L40.8203 35.3516C40.8203 33.5938 39.502 32.3242 37.793 32.3242Z" fill="#000000" fill-opacity="0.85"/>
 </g>
</svg>
