<?xml version="1.0" encoding="UTF-8"?>
<!--Generator: Apple Native CoreSVG 232.5-->
<!DOCTYPE svg
PUBLIC "-//W3C//DTD SVG 1.1//EN"
       "http://www.w3.org/Graphics/SVG/1.1/DTD/svg11.dtd">
<svg version="1.1" xmlns="http://www.w3.org/2000/svg" xmlns:xlink="http://www.w3.org/1999/xlink" width="99.6094" height="99.6582">
 <g>
  <rect height="99.6582" opacity="0" width="99.6094" x="0" y="0"/>
  <path d="M99.6094 49.8047C99.6094 77.002 77.0508 99.6094 49.8047 99.6094C22.6074 99.6094 0 77.002 0 49.8047C0 22.5586 22.5586 0 49.7559 0C77.002 0 99.6094 22.5586 99.6094 49.8047ZM54.5898 50.3906C51.9531 50.3906 50.3906 51.5625 50.3906 54.541L50.3906 72.1191C50.3906 74.1211 52.002 75.6836 54.0039 75.6836C55.957 75.6836 57.5195 74.1211 57.5195 72.1191L57.5195 69.6777L57.0312 61.7188L70.166 75.3418C71.6309 76.9043 74.0234 76.9043 75.4883 75.3906C77.002 73.9258 76.9043 71.4844 75.4395 70.0195L61.8652 57.0312L69.5801 57.5195L72.0215 57.5195C74.0234 57.5195 75.6348 55.957 75.6348 54.0039C75.6348 51.9531 74.0234 50.3906 72.0215 50.3906ZM24.1211 24.1699C22.6074 25.6348 22.7051 28.0273 24.1699 29.541L37.7441 42.5293L30.0293 42.041L27.5879 42.041C25.5859 42.041 23.9746 43.6035 23.9746 45.5566C23.9746 47.5586 25.5859 49.1699 27.5879 49.1699L45.0195 49.1699C47.6562 49.1699 49.2188 47.998 49.2188 44.9707L49.2188 27.4414C49.2188 25.4395 47.6074 23.877 45.6055 23.877C43.6523 23.877 42.0898 25.4395 42.0898 27.4414L42.0898 29.8828L42.5781 37.8418L29.4434 24.2188C27.9785 22.6562 25.5859 22.6562 24.1211 24.1699Z" fill="#000000" fill-opacity="0.85"/>
 </g>
</svg>
