<?xml version="1.0" encoding="UTF-8"?>
<!--Generator: Apple Native CoreSVG 232.5-->
<!DOCTYPE svg
PUBLIC "-//W3C//DTD SVG 1.1//EN"
       "http://www.w3.org/Graphics/SVG/1.1/DTD/svg11.dtd">
<svg version="1.1" xmlns="http://www.w3.org/2000/svg" xmlns:xlink="http://www.w3.org/1999/xlink" width="132.471" height="103.467">
 <g>
  <rect height="103.467" opacity="0" width="132.471" x="0" y="0"/>
  <path d="M83.0078 103.369L119.189 103.369C127.148 103.369 132.471 98.291 132.471 90.6738L132.471 12.6953C132.471 5.07812 127.148 0 119.189 0L83.0078 0C75.0488 0 69.6777 5.07812 69.6777 12.6953L69.6777 90.6738C69.6777 98.291 75.0488 103.369 83.0078 103.369ZM83.9844 95.5078C79.8828 95.5078 77.5391 93.3105 77.5391 89.4043L77.5391 13.9648C77.5391 10.0586 79.8828 7.86133 83.9844 7.86133L118.164 7.86133C122.266 7.86133 124.609 10.0586 124.609 13.9648L124.609 89.4043C124.609 93.3105 122.266 95.5078 118.164 95.5078Z" fill="#000000" fill-opacity="0.85"/>
  <path d="M4.3457 91.748C6.88477 91.748 8.69141 89.9902 8.69141 87.4512L8.69141 80.0293C8.69141 61.8652 19.7754 56.0059 33.9844 56.0059L37.207 56.0059L50.7324 55.5664L50.7324 52.832L37.4512 64.9414L32.0801 69.5312C30.957 70.459 30.6641 71.6797 30.6641 72.8516C30.6641 75.2441 32.5195 77.0508 34.9121 77.0508C36.084 77.0508 37.1094 76.6113 38.1836 75.5859L58.8379 54.9805C59.8145 54.0527 60.3516 52.9297 60.3516 51.709C60.3516 50.4883 59.8145 49.3652 58.8379 48.4375L38.0859 27.7344C37.1094 26.7578 36.084 26.3672 34.9121 26.3672C32.5195 26.3672 30.6641 28.125 30.6641 30.5664C30.6641 31.7383 30.957 32.959 32.0801 33.8867L37.4512 38.4766L50.7324 50.5859L50.7324 47.8516L37.207 47.4121L33.9844 47.4121C16.6504 47.4121 0 55.3711 0 80.0293L0 87.4512C0 89.9902 1.80664 91.748 4.3457 91.748Z" fill="#000000" fill-opacity="0.85"/>
 </g>
</svg>
