<?xml version="1.0" encoding="UTF-8"?>
<!--Generator: Apple Native CoreSVG 232.5-->
<!DOCTYPE svg
PUBLIC "-//W3C//DTD SVG 1.1//EN"
       "http://www.w3.org/Graphics/SVG/1.1/DTD/svg11.dtd">
<svg version="1.1" xmlns="http://www.w3.org/2000/svg" xmlns:xlink="http://www.w3.org/1999/xlink" width="89.8926" height="89.9902">
 <g>
  <rect height="89.9902" opacity="0" width="89.8926" x="0" y="0"/>
  <path d="M15.332 89.9902L74.5605 89.9902C84.8145 89.9902 89.8926 84.9121 89.8926 74.8535L89.8926 15.2344C89.8926 5.17578 84.8145 0.0976562 74.5605 0.0976562L15.332 0.0976562C5.12695 0.0976562 0 5.12695 0 15.2344L0 74.8535C0 84.9609 5.12695 89.9902 15.332 89.9902ZM15.4297 82.1289C10.5469 82.1289 7.86133 79.541 7.86133 74.4629L7.86133 15.625C7.86133 10.5469 10.5469 7.95898 15.4297 7.95898L74.4629 7.95898C79.2969 7.95898 82.0312 10.5469 82.0312 15.625L82.0312 74.4629C82.0312 79.541 79.2969 82.1289 74.4629 82.1289Z" fill="#000000" fill-opacity="0.85"/>
  <path d="M66.748 47.2168C66.748 35.2051 56.8848 25.7812 45.8984 25.7812C45.459 25.7812 44.9219 25.8789 44.5801 25.8789L48.0469 22.3633C48.5352 21.8262 48.877 20.9961 48.877 20.166C48.877 18.4082 47.5586 17.041 45.8008 17.041C44.9219 17.041 44.1406 17.4316 43.5547 18.0176L34.1797 27.5391C33.0566 28.7109 33.0078 30.9082 34.1797 32.0801L43.6523 41.5527C44.1895 42.041 45.0195 42.4316 45.8008 42.4316C47.5586 42.4316 48.877 41.1133 48.877 39.4043C48.877 38.4766 48.584 37.7441 47.9492 37.1094L43.2129 32.4707C43.7012 32.373 44.3359 32.3242 44.9707 32.3242C53.3691 32.3242 60.0586 39.0137 60.0586 47.3633C60.0586 55.7617 53.3691 62.4512 44.9707 62.4512C36.6211 62.4512 29.9316 55.7129 29.9316 47.3633C29.9316 45.5566 28.418 44.043 26.5625 44.043C24.7559 44.043 23.2422 45.5566 23.2422 47.3633C23.2422 59.4238 32.9102 69.1895 44.9707 69.1895C57.0312 69.1895 66.748 59.4238 66.748 47.2168Z" fill="#000000" fill-opacity="0.85"/>
 </g>
</svg>
