<?xml version="1.0" encoding="UTF-8"?>
<!--Generator: Apple Native CoreSVG 232.5-->
<!DOCTYPE svg
PUBLIC "-//W3C//DTD SVG 1.1//EN"
       "http://www.w3.org/Graphics/SVG/1.1/DTD/svg11.dtd">
<svg version="1.1" xmlns="http://www.w3.org/2000/svg" xmlns:xlink="http://www.w3.org/1999/xlink" width="92.2852" height="100.928">
 <g>
  <rect height="100.928" opacity="0" width="92.2852" x="0" y="0"/>
  <path d="M92.2852 69.7754C92.2852 51.123 79.6387 38.2324 57.373 38.2324L24.5605 38.2324L9.42383 38.916L10.3027 41.1621L22.3633 30.8594L36.4746 17.0898C37.207 16.3086 37.6465 15.3809 37.6465 14.1113C37.6465 11.5723 35.9375 9.81445 33.3008 9.81445C32.2754 9.81445 31.0059 10.3516 30.1758 11.1816L1.46484 39.3555C0.488281 40.2832 0 41.4062 0 42.627C0 43.7988 0.488281 44.9219 1.46484 45.8496L30.1758 74.0234C31.0059 74.9023 32.2754 75.3906 33.3008 75.3906C35.9375 75.3906 37.6465 73.6328 37.6465 71.0938C37.6465 69.8242 37.207 68.8965 36.4746 68.1152L22.3633 54.3945L10.3027 44.043L9.42383 46.2891L24.5605 46.9727L58.1055 46.9727C74.7559 46.9727 83.5449 56.1523 83.5449 69.2871C83.5449 82.4707 74.7559 92.2363 58.1055 92.2363L46.875 92.2363C44.1895 92.2363 42.4316 94.1895 42.4316 96.582C42.4316 98.9746 44.1895 100.928 46.875 100.928L58.1543 100.928C79.9805 100.928 92.2852 88.4766 92.2852 69.7754Z" fill="#000000" fill-opacity="0.85"/>
 </g>
</svg>
