<?xml version="1.0" encoding="UTF-8"?>
<!--Generator: Apple Native CoreSVG 232.5-->
<!DOCTYPE svg
PUBLIC "-//W3C//DTD SVG 1.1//EN"
       "http://www.w3.org/Graphics/SVG/1.1/DTD/svg11.dtd">
<svg version="1.1" xmlns="http://www.w3.org/2000/svg" xmlns:xlink="http://www.w3.org/1999/xlink" width="99.6094" height="99.6582">
 <g>
  <rect height="99.6582" opacity="0" width="99.6094" x="0" y="0"/>
  <path d="M49.8047 99.6094C77.0508 99.6094 99.6094 77.002 99.6094 49.8047C99.6094 22.5586 77.002 0 49.7559 0C22.5586 0 0 22.5586 0 49.8047C0 77.002 22.6074 99.6094 49.8047 99.6094ZM49.8047 91.3086C26.7578 91.3086 8.34961 72.8516 8.34961 49.8047C8.34961 26.7578 26.709 8.30078 49.7559 8.30078C72.8027 8.30078 91.3086 26.7578 91.3086 49.8047C91.3086 72.8516 72.8516 91.3086 49.8047 91.3086Z" fill="#000000" fill-opacity="0.85"/>
  <path d="M24.707 49.7559C24.707 50.8301 25.1953 51.709 26.0742 52.5879L42.5781 69.1406C43.2129 69.7754 44.0918 70.166 45.1172 70.166C47.1191 70.166 48.6328 68.6035 48.6328 66.6016C48.6328 65.5273 48.2422 64.6484 47.5586 64.0137L41.4551 57.959L35.5469 53.0273L45.8984 53.3691L71.3379 53.3691C73.4863 53.3691 75 51.8555 75 49.7559C75 47.6074 73.4375 46.0938 71.3379 46.0938L45.8984 46.0938L35.5957 46.4844L41.4551 41.5527L47.5586 35.498C48.1934 34.8145 48.6328 33.9355 48.6328 32.8613C48.6328 30.8594 47.1191 29.3457 45.1172 29.3457C44.0918 29.3457 43.2129 29.6875 42.5781 30.3223L26.0742 46.9238C25.0977 47.9004 24.707 48.6816 24.707 49.7559Z" fill="#000000" fill-opacity="0.85"/>
 </g>
</svg>
