<?xml version="1.0" encoding="UTF-8"?>
<!--Generator: Apple Native CoreSVG 232.5-->
<!DOCTYPE svg
PUBLIC "-//W3C//DTD SVG 1.1//EN"
       "http://www.w3.org/Graphics/SVG/1.1/DTD/svg11.dtd">
<svg version="1.1" xmlns="http://www.w3.org/2000/svg" xmlns:xlink="http://www.w3.org/1999/xlink" width="89.8926" height="89.9902">
 <g>
  <rect height="89.9902" opacity="0" width="89.8926" x="0" y="0"/>
  <path d="M89.8926 15.2344L89.8926 74.8535C89.8926 84.9121 84.8145 89.9902 74.5605 89.9902L15.332 89.9902C5.12695 89.9902 0 84.9609 0 74.8535L0 15.2344C0 5.12695 5.12695 0.0976562 15.332 0.0976562L74.5605 0.0976562C84.8145 0.0976562 89.8926 5.17578 89.8926 15.2344ZM36.377 25.5371C33.9844 25.5371 32.4707 27.002 32.4707 29.248C32.4707 31.4453 34.0332 32.9102 36.4746 32.9102L45.5566 32.9102L53.0273 32.1289L45.166 39.4531L26.6602 57.9102C25.9277 58.6426 25.4883 59.668 25.4883 60.6445C25.4883 62.9395 26.9531 64.4043 29.1504 64.4043C30.3711 64.4043 31.3477 63.9648 32.0801 63.2324L50.4883 44.7754L57.7637 37.0117L57.0312 44.873L57.0312 53.5156C57.0312 55.9082 58.4961 57.4707 60.7422 57.4707C62.9395 57.4707 64.4531 55.7617 64.4531 53.418L64.4531 29.6875C64.4531 26.709 62.793 25.5371 60.2051 25.5371Z" fill="#000000" fill-opacity="0.85"/>
 </g>
</svg>
