<?xml version="1.0" encoding="UTF-8"?>
<!--Generator: Apple Native CoreSVG 232.5-->
<!DOCTYPE svg
PUBLIC "-//W3C//DTD SVG 1.1//EN"
       "http://www.w3.org/Graphics/SVG/1.1/DTD/svg11.dtd">
<svg version="1.1" xmlns="http://www.w3.org/2000/svg" xmlns:xlink="http://www.w3.org/1999/xlink" width="103.467" height="89.4043">
 <g>
  <rect height="89.4043" opacity="0" width="103.467" x="0" y="0"/>
  <path d="M57.959 6.5918L95.8984 35.4492C101.514 39.6973 103.467 43.457 103.467 50.4395L103.467 74.3164C103.467 84.5215 98.4375 89.4043 88.1348 89.4043L15.332 89.4043C4.98047 89.4043 0 84.5215 0 74.3164L0 14.7949C0 5.0293 5.0293 0.0488281 14.8926 0.0488281L38.5742 0.0488281C46.5332 0.0488281 51.5137 1.75781 57.959 6.5918ZM22.2168 53.4668C19.6289 53.4668 18.4082 55.5664 19.8242 57.8613L30.4688 75.1953C31.7871 77.3926 34.375 77.4414 35.7422 75.1953L46.2891 57.8613C47.7051 55.5664 46.582 53.4668 43.9453 53.4668ZM15.0391 7.91016C10.498 7.91016 7.86133 10.4492 7.86133 15.1855L7.86133 37.1094C7.86133 41.7969 10.5469 44.3848 15.0391 44.3848L87.8418 44.3848C90.4297 44.3848 90.9668 41.6016 88.9648 40.1367L52.5879 12.3047C48.4375 8.98438 44.8242 7.91016 38.5742 7.91016Z" fill="#000000" fill-opacity="0.85"/>
  <path d="M35.7422 15.4297L46.2891 32.7637C47.7051 35.0586 46.582 37.1582 43.9453 37.1582L22.2168 37.1582C19.6289 37.1582 18.4082 35.0586 19.8242 32.7637L30.4688 15.4297C31.7871 13.2324 34.375 13.1836 35.7422 15.4297Z" fill="#000000" fill-opacity="0.85"/>
 </g>
</svg>
