<?xml version="1.0" encoding="UTF-8"?>
<!--Generator: Apple Native CoreSVG 232.5-->
<!DOCTYPE svg
PUBLIC "-//W3C//DTD SVG 1.1//EN"
       "http://www.w3.org/Graphics/SVG/1.1/DTD/svg11.dtd">
<svg version="1.1" xmlns="http://www.w3.org/2000/svg" xmlns:xlink="http://www.w3.org/1999/xlink" width="109.717" height="89.5996">
 <g>
  <rect height="89.5996" opacity="0" width="109.717" x="0" y="0"/>
  <path d="M62.0117 89.5508C64.4043 89.5508 66.3574 88.5742 68.7012 86.377L107.227 50C109.082 48.2422 109.717 46.3867 109.717 44.7754C109.717 43.1152 109.131 41.3086 107.227 39.502L68.7012 3.4668C66.1133 1.02539 64.502 0 62.1094 0C58.6914 0 56.25 2.68555 56.25 5.95703L56.25 24.4141L54.834 24.4141C19.7266 24.4141 4.44336 46.9238 4.44336 83.0078C4.44336 87.207 6.83594 89.5508 9.47266 89.5508C11.5234 89.5508 13.7695 89.0625 15.4785 85.9375C23.9746 69.9707 35.9375 65.1855 54.834 65.1855L56.25 65.1855L56.25 83.8379C56.25 87.1094 58.6914 89.5508 62.0117 89.5508ZM64.7949 79.0527C64.4043 79.0527 64.1113 78.7598 64.1113 78.3203L64.1113 59.4238C64.1113 58.3008 63.623 57.8125 62.5 57.8125L55.957 57.8125C32.7637 57.8125 17.9688 65.8691 12.207 78.125C12.0605 78.4668 11.9629 78.6133 11.7188 78.6133C11.5234 78.6133 11.377 78.4668 11.377 78.0762C12.3535 55.0293 22.4121 31.7871 55.957 31.7871L62.5 31.7871C63.623 31.7871 64.1113 31.2988 64.1113 30.1758L64.1113 10.791C64.1113 10.4004 64.4043 10.1074 64.8438 10.1074C65.1367 10.1074 65.4297 10.3027 65.6738 10.498L100.439 43.8477C100.781 44.1895 100.928 44.4824 100.928 44.7754C100.928 45.0684 100.83 45.3125 100.439 45.7031L65.625 78.6133C65.3809 78.9062 65.0879 79.0527 64.7949 79.0527Z" fill="#000000" fill-opacity="0.85"/>
 </g>
</svg>
