<?xml version="1.0" encoding="UTF-8"?>
<!--Generator: Apple Native CoreSVG 232.5-->
<!DOCTYPE svg
PUBLIC "-//W3C//DTD SVG 1.1//EN"
       "http://www.w3.org/Graphics/SVG/1.1/DTD/svg11.dtd">
<svg version="1.1" xmlns="http://www.w3.org/2000/svg" xmlns:xlink="http://www.w3.org/1999/xlink" width="89.8926" height="89.9902">
 <g>
  <rect height="89.9902" opacity="0" width="89.8926" x="0" y="0"/>
  <path d="M89.8926 15.2344L89.8926 74.8535C89.8926 84.9121 84.8145 89.9902 74.5605 89.9902L15.332 89.9902C5.12695 89.9902 0 84.9609 0 74.8535L0 15.2344C0 5.12695 5.12695 0.0976562 15.332 0.0976562L74.5605 0.0976562C84.8145 0.0976562 89.8926 5.17578 89.8926 15.2344ZM49.7559 45.5566C47.1191 45.5566 45.6055 46.7285 45.6055 49.707L45.6055 67.2852C45.6055 69.2871 47.168 70.8496 49.1699 70.8496C51.123 70.8496 52.7344 69.2871 52.7344 67.2852L52.7344 64.8438L52.1973 56.8848L65.332 70.5078C66.7969 72.0703 69.1895 72.0703 70.6543 70.5566C72.168 69.0918 72.0703 66.6504 70.6055 65.1855L57.0312 52.1973L64.7461 52.6855L67.1875 52.6855C69.2383 52.6855 70.8008 51.123 70.8008 49.1699C70.8008 47.1191 69.2383 45.5566 67.1875 45.5566ZM19.2871 19.3359C17.7734 20.8008 17.8711 23.1934 19.3359 24.707L32.9102 37.6953L25.1953 37.207L22.7539 37.207C20.752 37.207 19.1406 38.7695 19.1406 40.7227C19.1406 42.7246 20.752 44.3359 22.7539 44.3359L40.1855 44.3359C42.8223 44.3359 44.3848 43.1641 44.3848 40.1367L44.3848 22.6074C44.3848 20.6055 42.7734 19.043 40.7715 19.043C38.8184 19.043 37.2559 20.6055 37.2559 22.6074L37.2559 25.0488L37.7441 33.0078L24.6094 19.3848C23.1445 17.8223 20.752 17.8223 19.2871 19.3359Z" fill="#000000" fill-opacity="0.85"/>
 </g>
</svg>
