<?xml version="1.0" encoding="UTF-8"?>
<!--Generator: Apple Native CoreSVG 232.5-->
<!DOCTYPE svg
PUBLIC "-//W3C//DTD SVG 1.1//EN"
       "http://www.w3.org/Graphics/SVG/1.1/DTD/svg11.dtd">
<svg version="1.1" xmlns="http://www.w3.org/2000/svg" xmlns:xlink="http://www.w3.org/1999/xlink" width="101.025" height="75.9277">
 <g>
  <rect height="75.9277" opacity="0" width="101.025" x="0" y="0"/>
  <path d="M55.1758 74.0234C56.3477 74.0234 57.373 73.6328 58.3496 72.7051L90.8203 40.2832C91.7969 39.3555 92.2852 38.2324 92.2852 37.0117C92.2852 35.8398 91.7969 34.7168 90.8203 33.7402L58.3496 1.36719C57.373 0.439453 56.3477 0 55.1758 0C52.7832 0 50.9277 1.80664 50.9277 4.19922C50.9277 5.37109 51.3184 6.54297 52.0996 7.32422L63.0371 18.4082L82.2266 35.9375L83.2031 33.2031L68.6523 32.666L4.29688 32.666C1.75781 32.666 0 34.4727 0 37.0117C0 39.5508 1.75781 41.4062 4.29688 41.4062L68.6523 41.4062L83.2031 40.8691L82.2266 38.1836L63.0371 55.6152L52.0996 66.748C51.3184 67.5293 50.9277 68.7012 50.9277 69.8242C50.9277 72.2656 52.7832 74.0234 55.1758 74.0234ZM96.6309 74.0234C99.1699 74.0234 101.025 72.3145 101.025 69.8242L101.025 4.3457C101.025 1.80664 99.1699 0 96.6309 0C94.0918 0 92.2852 1.80664 92.2852 4.3457L92.2852 69.8242C92.2852 72.3145 94.0918 74.0234 96.6309 74.0234Z" fill="#000000" fill-opacity="0.85"/>
 </g>
</svg>
