<?xml version="1.0" encoding="UTF-8"?>
<!--Generator: Apple Native CoreSVG 232.5-->
<!DOCTYPE svg
PUBLIC "-//W3C//DTD SVG 1.1//EN"
       "http://www.w3.org/Graphics/SVG/1.1/DTD/svg11.dtd">
<svg version="1.1" xmlns="http://www.w3.org/2000/svg" xmlns:xlink="http://www.w3.org/1999/xlink" width="109.717" height="89.5996">
 <g>
  <rect height="89.5996" opacity="0" width="109.717" x="0" y="0"/>
  <path d="M109.717 44.7754C109.717 43.1152 109.131 41.3086 107.227 39.502L68.7012 3.4668C66.1133 1.02539 64.502 0 62.1094 0C58.6914 0 56.25 2.68555 56.25 5.95703L56.25 24.4141L16.6504 24.4141C8.93555 24.4141 4.44336 28.8086 4.44336 36.377L4.44336 53.2227C4.44336 60.791 8.93555 65.1855 16.6504 65.1855L56.25 65.1855L56.25 83.8379C56.25 87.1094 58.6914 89.5508 62.0117 89.5508C64.4043 89.5508 66.3574 88.5742 68.7012 86.377L107.227 50C109.082 48.2422 109.717 46.3867 109.717 44.7754ZM100.928 44.7754C100.928 45.0684 100.83 45.3125 100.439 45.7031L65.625 78.6133C65.3809 78.9062 65.0879 79.0527 64.7949 79.0527C64.4043 79.0527 64.1113 78.7598 64.1113 78.3203L64.1113 59.4238C64.1113 58.3008 63.623 57.8125 62.5 57.8125L16.748 57.8125C13.623 57.8125 11.8164 56.0059 11.8164 52.832L11.8164 36.7676C11.8164 33.5938 13.623 31.7871 16.748 31.7871L62.5 31.7871C63.623 31.7871 64.1113 31.2988 64.1113 30.1758L64.1113 10.791C64.1113 10.4004 64.4043 10.1074 64.8438 10.1074C65.1367 10.1074 65.4297 10.3027 65.6738 10.498L100.439 43.8477C100.781 44.1895 100.928 44.4824 100.928 44.7754Z" fill="#000000" fill-opacity="0.85"/>
 </g>
</svg>
