<?xml version="1.0" encoding="UTF-8"?>
<!--Generator: Apple Native CoreSVG 232.5-->
<!DOCTYPE svg
PUBLIC "-//W3C//DTD SVG 1.1//EN"
       "http://www.w3.org/Graphics/SVG/1.1/DTD/svg11.dtd">
<svg version="1.1" xmlns="http://www.w3.org/2000/svg" xmlns:xlink="http://www.w3.org/1999/xlink" width="72.1191" height="72.2168">
 <g>
  <rect height="72.2168" opacity="0" width="72.1191" x="0" y="0"/>
  <path d="M0 18.4082L0.0488281 67.5293C0.0488281 70.3125 1.85547 72.2168 4.78516 72.2168L53.9062 72.2168C56.6406 72.2168 58.4961 70.166 58.4961 67.8223C58.4961 65.4785 56.3965 63.4766 54.1016 63.4766L37.1094 63.4766L13.2812 64.2578L22.3633 56.25L70.752 7.8125C71.6309 6.93359 72.1191 5.76172 72.1191 4.73633C72.1191 2.39258 69.9707 0.146484 67.5293 0.146484C66.4551 0.146484 65.3809 0.585938 64.4531 1.46484L16.0156 49.9512L7.95898 59.0332L8.83789 36.2305L8.83789 18.2129C8.83789 15.8691 6.83594 13.7695 4.44336 13.7695C2.05078 13.7695 0 15.7227 0 18.4082Z" fill="#000000" fill-opacity="0.85"/>
 </g>
</svg>
