<?xml version="1.0" encoding="UTF-8"?>
<!--Generator: Apple Native CoreSVG 232.5-->
<!DOCTYPE svg
PUBLIC "-//W3C//DTD SVG 1.1//EN"
       "http://www.w3.org/Graphics/SVG/1.1/DTD/svg11.dtd">
<svg version="1.1" xmlns="http://www.w3.org/2000/svg" xmlns:xlink="http://www.w3.org/1999/xlink" width="90.0141" height="92.8223">
 <g>
  <rect height="92.8223" opacity="0" width="90.0141" x="0" y="0"/>
  <path d="M45.007 92.8223C47.7414 92.8223 49.2551 91.0156 49.2551 87.6465L49.2551 59.6191C49.2551 47.9004 62.2434 30.9082 74.2551 23.2422L78.1613 20.7031C79.5285 19.873 80.2609 18.3594 80.2609 16.8945C80.2609 14.502 78.6008 12.8418 76.1106 12.8418C74.8898 12.8418 73.5715 13.2812 72.3996 14.0625L69.8117 15.7715C57.9465 23.6816 46.5695 38.6719 45.0559 46.2402L44.9094 46.2402C43.3957 38.623 32.0676 23.6816 20.2023 15.7715L17.6145 14.0625C16.3938 13.2812 15.1242 12.8418 13.8547 12.8418C11.3645 12.8418 9.75313 14.6484 9.75313 16.8457C9.75313 18.3105 10.4856 19.873 11.8527 20.7031L15.759 23.2422C27.7219 30.9082 40.759 47.9004 40.759 59.6191L40.759 87.6465C40.759 91.0156 42.2727 92.8223 45.007 92.8223ZM11.4133 29.1992L25.0852 11.4746C27.1848 8.74023 25.8664 6.54297 22.5949 6.39648L3.60079 5.56641C0.866412 5.41992-0.598432 7.22656 0.231646 9.91211L5.84688 28.0273C6.82344 31.25 9.26485 31.9824 11.4133 29.1992ZM78.0148 29.1504C80.0656 31.9824 82.5559 31.3477 83.5813 28.1738L89.7336 10.2051C90.6125 7.56836 89.1965 5.71289 86.5109 5.76172L67.468 6.05469C64.1965 6.10352 62.8293 8.25195 64.8313 11.0352Z" fill="#000000" fill-opacity="0.85"/>
 </g>
</svg>
