<?xml version="1.0" encoding="UTF-8"?>
<!--Generator: Apple Native CoreSVG 232.5-->
<!DOCTYPE svg
PUBLIC "-//W3C//DTD SVG 1.1//EN"
       "http://www.w3.org/Graphics/SVG/1.1/DTD/svg11.dtd">
<svg version="1.1" xmlns="http://www.w3.org/2000/svg" xmlns:xlink="http://www.w3.org/1999/xlink" width="72.1191" height="72.2168">
 <g>
  <rect height="72.2168" opacity="0" width="72.1191" x="0" y="0"/>
  <path d="M0 54.0039C0 56.6406 2.05078 58.6426 4.44336 58.6426C6.83594 58.6426 8.83789 56.4941 8.83789 54.1992L8.83789 36.1328L7.95898 13.3301L16.0156 22.4609L64.4531 70.8984C65.3809 71.8262 66.4551 72.2168 67.5293 72.2168C69.9707 72.2168 72.1191 70.0195 72.1191 67.6758C72.1191 66.6016 71.6309 65.4785 70.752 64.5996L22.3633 16.1133L13.2812 8.1543L37.1094 8.93555L54.1016 8.93555C56.3965 8.93555 58.4961 6.93359 58.4961 4.58984C58.4961 2.24609 56.6406 0.146484 53.9062 0.146484L4.78516 0.146484C1.85547 0.146484 0.0488281 2.09961 0.0488281 4.88281Z" fill="#000000" fill-opacity="0.85"/>
 </g>
</svg>
