<?xml version="1.0" encoding="UTF-8"?>
<!--Generator: Apple Native CoreSVG 232.5-->
<!DOCTYPE svg
PUBLIC "-//W3C//DTD SVG 1.1//EN"
       "http://www.w3.org/Graphics/SVG/1.1/DTD/svg11.dtd">
<svg version="1.1" xmlns="http://www.w3.org/2000/svg" xmlns:xlink="http://www.w3.org/1999/xlink" width="89.8926" height="91.0645">
 <g>
  <rect height="91.0645" opacity="0" width="89.8926" x="0" y="0"/>
  <path d="M15.332 89.8926L74.5605 89.8926C84.8145 89.8926 89.8926 84.8145 89.8926 74.7559L89.8926 15.1367C89.8926 5.07812 84.8145 0 74.5605 0L15.332 0C5.12695 0 0 5.0293 0 15.1367L0 74.7559C0 84.8633 5.12695 89.8926 15.332 89.8926ZM15.4297 82.0312C10.5469 82.0312 7.86133 79.4434 7.86133 74.3652L7.86133 15.5273C7.86133 10.498 10.5469 7.86133 15.4297 7.86133L74.4629 7.86133C79.2969 7.86133 82.0312 10.498 82.0312 15.5273L82.0312 74.3652C82.0312 79.4434 79.2969 82.0312 74.4629 82.0312Z" fill="#000000" fill-opacity="0.85"/>
  <path d="M19.7266 50.8301C19.7266 62.5977 28.2227 69.873 39.5996 69.873C40.1855 69.873 46.0449 69.873 46.2891 69.873C48.4863 69.873 50.0977 68.6523 50.0977 66.4062C50.0977 64.1602 48.4863 62.8906 46.3867 62.8906C46.1914 62.8906 40.1855 62.8906 39.5996 62.8906C32.2266 62.8906 26.9043 58.1543 26.9043 50.4395C26.9043 42.9199 32.373 38.8184 39.5508 38.8184L54.1504 38.8184L59.9121 38.623L57.0801 40.7227L50.9766 46.582C50.2441 47.2168 49.9023 48.1934 49.9023 49.1211C49.9023 51.123 51.416 52.6855 53.3691 52.6855C54.3945 52.6855 55.1758 52.3438 55.8594 51.6602L68.8965 38.3301C69.7266 37.5 70.2148 36.5234 70.2148 35.4004C70.2148 34.2285 69.7266 33.2031 68.8965 32.373L55.9082 19.2383C55.2246 18.5059 54.4434 18.1641 53.418 18.1641C51.416 18.1641 49.9023 19.6777 49.9023 21.7285C49.9023 22.7051 50.3418 23.6328 51.0254 24.2188L56.0547 29.1016L59.9121 32.1777L54.1504 31.9824L39.5508 31.9824C28.1738 31.9824 19.7266 39.1113 19.7266 50.8301Z" fill="#000000" fill-opacity="0.85"/>
 </g>
</svg>
