<?xml version="1.0" encoding="UTF-8"?>
<!--Generator: Apple Native CoreSVG 232.5-->
<!DOCTYPE svg
PUBLIC "-//W3C//DTD SVG 1.1//EN"
       "http://www.w3.org/Graphics/SVG/1.1/DTD/svg11.dtd">
<svg version="1.1" xmlns="http://www.w3.org/2000/svg" xmlns:xlink="http://www.w3.org/1999/xlink" width="115.137" height="89.8926">
 <g>
  <rect height="89.8926" opacity="0" width="115.137" x="0" y="0"/>
  <path d="M115.137 15.1367L115.137 74.8047C115.137 84.8633 110.059 89.8926 99.8047 89.8926L15.332 89.8926C5.12695 89.8926 0 84.8633 0 74.8047L0 15.1367C0 5.07812 5.12695 0 15.332 0L99.8047 0C110.059 0 115.137 5.07812 115.137 15.1367ZM68.9453 39.5996C66.3574 39.5996 64.7461 40.7715 64.7461 43.75L64.7461 66.7969C64.7461 69.1406 66.2109 70.8496 68.4082 70.8496C70.6543 70.8496 72.1191 69.2871 72.1191 66.8945L72.1191 58.8867L71.3867 51.0742L78.6621 58.8379L93.75 73.9258C94.4824 74.6582 95.4102 75.0977 96.6797 75.0977C98.877 75.0977 100.342 73.6328 100.342 71.3379C100.342 70.3613 99.8535 69.3359 99.1211 68.6035L83.9844 53.5156L76.123 46.1914L83.5938 46.9727L92.041 46.9727C94.4336 46.9727 95.9961 45.5078 95.9961 43.2617C95.9961 41.0645 94.4824 39.5996 92.1387 39.5996Z" fill="#000000" fill-opacity="0.85"/>
 </g>
</svg>
