<?xml version="1.0" encoding="UTF-8"?>
<!--Generator: Apple Native CoreSVG 232.5-->
<!DOCTYPE svg
PUBLIC "-//W3C//DTD SVG 1.1//EN"
       "http://www.w3.org/Graphics/SVG/1.1/DTD/svg11.dtd">
<svg version="1.1" xmlns="http://www.w3.org/2000/svg" xmlns:xlink="http://www.w3.org/1999/xlink" width="99.6094" height="99.6582">
 <g>
  <rect height="99.6582" opacity="0" width="99.6094" x="0" y="0"/>
  <path d="M49.8047 99.6094C77.0508 99.6094 99.6094 77.002 99.6094 49.8047C99.6094 22.5586 77.002 0 49.7559 0C22.5586 0 0 22.5586 0 49.8047C0 77.002 22.6074 99.6094 49.8047 99.6094ZM49.8047 91.3086C26.7578 91.3086 8.34961 72.8516 8.34961 49.8047C8.34961 26.7578 26.709 8.30078 49.7559 8.30078C72.8027 8.30078 91.3086 26.7578 91.3086 49.8047C91.3086 72.8516 72.8516 91.3086 49.8047 91.3086Z" fill="#000000" fill-opacity="0.85"/>
  <path d="M28.1738 49.1699L45.1172 49.1699C47.6562 49.1699 49.1211 48.0469 49.1211 45.1172L49.1211 28.125C49.1211 26.2207 47.6074 24.707 45.7031 24.707C43.7988 24.707 42.2363 26.2207 42.2363 28.125L42.2363 30.5176L42.7734 38.2324L30.0293 25C28.6133 23.4863 26.2695 23.4863 24.8535 24.9512C23.4375 26.3672 23.4863 28.7109 24.9023 30.127L38.0859 42.7734L30.6152 42.2852L28.1738 42.2852C26.2695 42.2852 24.7559 43.7988 24.7559 45.7031C24.7559 47.6074 26.2695 49.1699 28.1738 49.1699ZM53.8086 74.8535C55.7129 74.8535 57.2266 73.3398 57.2266 71.4355L57.2266 69.043L56.7383 61.3281L69.4824 74.5605C70.8984 76.0742 73.2422 76.0742 74.6582 74.6094C76.0742 73.1934 76.0254 70.8008 74.6094 69.4336L61.4258 56.7871L68.8965 57.2754L71.2891 57.2754C73.1934 57.2754 74.7559 55.7617 74.7559 53.8574C74.7559 51.9043 73.1934 50.3906 71.2891 50.3906L54.3945 50.3906C51.8555 50.3906 50.3418 51.5137 50.3418 54.3945L50.3418 71.4355C50.3418 73.3398 51.9043 74.8535 53.8086 74.8535Z" fill="#000000" fill-opacity="0.85"/>
 </g>
</svg>
