<?xml version="1.0" encoding="UTF-8"?>
<!--Generator: Apple Native CoreSVG 232.5-->
<!DOCTYPE svg
PUBLIC "-//W3C//DTD SVG 1.1//EN"
       "http://www.w3.org/Graphics/SVG/1.1/DTD/svg11.dtd">
<svg version="1.1" xmlns="http://www.w3.org/2000/svg" xmlns:xlink="http://www.w3.org/1999/xlink" width="91.1133" height="92.8223">
 <g>
  <rect height="92.8223" opacity="0" width="91.1133" x="0" y="0"/>
  <path d="M31.1523 92.8223C49.8535 92.8223 62.6953 80.2246 62.6953 57.9102L62.6953 24.8535L62.0117 9.7168L59.7656 10.5957L70.1172 22.6562L83.8379 36.7188C84.6191 37.5 85.5957 37.9395 86.8164 37.9395C89.3555 37.9395 91.1133 36.1816 91.1133 33.5938C91.1133 32.5195 90.625 31.25 89.7949 30.4199L61.6211 1.70898C60.6934 0.732422 59.5215 0.292969 58.3496 0.292969C57.1289 0.292969 56.0059 0.732422 55.0781 1.70898L26.9043 30.4199C26.0742 31.25 25.5371 32.5195 25.5371 33.5938C25.5371 36.1816 27.3438 37.9395 29.834 37.9395C31.1035 37.9395 32.0801 37.5 32.8613 36.7188L46.582 22.6562L56.9336 10.5957L54.6387 9.7168L54.0039 24.8535L54.0039 58.6426C54.0039 75.293 44.7754 84.1309 31.6406 84.1309C18.5059 84.1309 8.69141 75.293 8.69141 58.6426L8.69141 47.4121C8.69141 44.7266 6.73828 42.9688 4.3457 42.9688C1.95312 42.9688 0 44.7266 0 47.4121L0 58.6914C0 80.5664 12.4512 92.8223 31.1523 92.8223Z" fill="#000000" fill-opacity="0.85"/>
 </g>
</svg>
