<?xml version="1.0" encoding="UTF-8"?>
<!--Generator: Apple Native CoreSVG 232.5-->
<!DOCTYPE svg
PUBLIC "-//W3C//DTD SVG 1.1//EN"
       "http://www.w3.org/Graphics/SVG/1.1/DTD/svg11.dtd">
<svg version="1.1" xmlns="http://www.w3.org/2000/svg" xmlns:xlink="http://www.w3.org/1999/xlink" width="115.137" height="89.8926">
 <g>
  <rect height="89.8926" opacity="0" width="115.137" x="0" y="0"/>
  <path d="M15.332 89.8926L99.8047 89.8926C110.059 89.8926 115.137 84.8633 115.137 74.8047L115.137 15.1367C115.137 5.07812 110.059 0 99.8047 0L15.332 0C5.12695 0 0 5.07812 0 15.1367L0 74.8047C0 84.8633 5.12695 89.8926 15.332 89.8926ZM15.4297 82.0312C10.5469 82.0312 7.86133 79.4434 7.86133 74.3652L7.86133 15.5762C7.86133 10.498 10.5469 7.86133 15.4297 7.86133L99.707 7.86133C104.541 7.86133 107.275 10.498 107.275 15.5762L107.275 74.3652C107.275 79.4434 104.541 82.0312 99.707 82.0312Z" fill="#000000" fill-opacity="0.85"/>
  <path d="M68.8477 19.5312C66.6992 19.5312 65.2832 21.1426 65.2832 23.4375L65.2832 45.752C65.2832 48.6816 66.8457 49.8047 69.3359 49.8047L91.8457 49.8047C94.0918 49.8047 95.5566 48.3887 95.5566 46.2402C95.5566 44.0918 94.043 42.6758 91.748 42.6758L83.4961 42.6758L76.2695 43.457L83.8867 36.3281L98.6328 21.582C99.3164 20.8984 99.8047 19.9707 99.8047 18.9941C99.8047 16.7969 98.3887 15.332 96.2402 15.332C95.0195 15.332 94.1406 15.7715 93.457 16.4551L78.7109 31.2012L71.6797 38.7207L72.4121 31.1035L72.4121 23.3398C72.4121 20.9961 70.9961 19.5312 68.8477 19.5312Z" fill="#000000" fill-opacity="0.85"/>
 </g>
</svg>
