<?xml version="1.0" encoding="UTF-8"?>
<!--Generator: Apple Native CoreSVG 232.5-->
<!DOCTYPE svg
PUBLIC "-//W3C//DTD SVG 1.1//EN"
       "http://www.w3.org/Graphics/SVG/1.1/DTD/svg11.dtd">
<svg version="1.1" xmlns="http://www.w3.org/2000/svg" xmlns:xlink="http://www.w3.org/1999/xlink" width="89.8926" height="89.9902">
 <g>
  <rect height="89.9902" opacity="0" width="89.8926" x="0" y="0"/>
  <path d="M89.8926 15.2344L89.8926 74.8535C89.8926 84.9121 84.8145 89.9902 74.5605 89.9902L15.332 89.9902C5.12695 89.9902 0 84.9609 0 74.8535L0 15.2344C0 5.12695 5.12695 0.0976562 15.332 0.0976562L74.5605 0.0976562C84.8145 0.0976562 89.8926 5.17578 89.8926 15.2344ZM63.7695 48.7305L63.7695 51.2695L64.2578 59.4238L53.125 47.7051C51.5625 46.0449 49.0723 46.0938 47.5098 47.6562C45.9961 49.1699 46.0449 51.7578 47.5586 53.2227L59.2285 64.3066L51.3184 63.8184L48.7793 63.8184C46.7285 63.8184 45.0684 65.4297 45.0684 67.4805C45.0684 69.5312 46.7285 71.1914 48.7793 71.1914L66.7969 71.1914C69.5312 71.1914 71.1426 69.9707 71.1426 66.8457L71.1426 48.7305C71.1426 46.6797 69.4824 45.0684 67.4316 45.0684C65.3809 45.0684 63.7695 46.6797 63.7695 48.7305ZM23.1445 18.8477C20.4102 18.8477 18.8477 20.0684 18.8477 23.1934L18.8477 41.3086C18.8477 43.3594 20.459 44.9707 22.5098 44.9707C24.5605 44.9707 26.2207 43.3594 26.2207 41.3086L26.2207 38.7695L25.7324 30.6152L36.8652 42.334C38.3789 43.9941 40.918 43.9453 42.4316 42.3828C43.9453 40.8691 43.8965 38.2812 42.3828 36.8164L30.7617 25.7324L38.6719 26.2207L41.2109 26.2207C43.2617 26.2207 44.873 24.6094 44.873 22.5586C44.873 20.5078 43.2617 18.8477 41.2109 18.8477Z" fill="#000000" fill-opacity="0.85"/>
 </g>
</svg>
