<?xml version="1.0" encoding="UTF-8"?>
<!--Generator: Apple Native CoreSVG 232.5-->
<!DOCTYPE svg
PUBLIC "-//W3C//DTD SVG 1.1//EN"
       "http://www.w3.org/Graphics/SVG/1.1/DTD/svg11.dtd">
<svg version="1.1" xmlns="http://www.w3.org/2000/svg" xmlns:xlink="http://www.w3.org/1999/xlink" width="133.35" height="102.197">
 <g>
  <rect height="102.197" opacity="0" width="133.35" x="0" y="0"/>
  <path d="M46.8262 56.8848C51.6113 53.9062 51.7578 48.3887 46.8262 45.4102L9.81445 22.7539C5.12695 19.873 0 22.0215 0 27.832L0 74.4141C0 80.3711 5.22461 82.373 9.81445 79.541ZM41.6016 52.1484L8.83789 72.4609C8.25195 72.8027 7.08008 72.8516 7.08008 71.6309L7.08008 30.6641C7.08008 29.3457 8.34961 29.4922 8.83789 29.834L41.5527 50.0977C42.7734 50.8789 42.334 51.709 41.6016 52.1484ZM66.6504 102.197C68.5547 102.197 70.2637 100.684 70.2637 98.7793L70.2637 3.4668C70.2637 1.5625 68.5547 0.0976562 66.6504 0.0976562C64.7461 0.0976562 63.0859 1.5625 63.0859 3.4668L63.0859 98.7793C63.0859 100.684 64.7461 102.197 66.6504 102.197ZM123.486 79.541C128.125 82.373 133.35 80.3711 133.35 74.4141L133.35 27.832C133.35 22.0215 128.223 19.873 123.486 22.7539L86.4746 45.4102C81.5918 48.3887 81.6895 53.9062 86.4746 56.8848ZM124.463 72.4609L91.748 52.1484C90.9668 51.709 90.5762 50.8789 91.748 50.0977L124.463 29.834C125 29.4922 126.221 29.3457 126.221 30.6641L126.221 71.6309C126.221 72.8516 125.098 72.8027 124.463 72.4609Z" fill="#000000" fill-opacity="0.85"/>
 </g>
</svg>
