<?xml version="1.0" encoding="UTF-8"?>
<!--Generator: Apple Native CoreSVG 232.5-->
<!DOCTYPE svg
PUBLIC "-//W3C//DTD SVG 1.1//EN"
       "http://www.w3.org/Graphics/SVG/1.1/DTD/svg11.dtd">
<svg version="1.1" xmlns="http://www.w3.org/2000/svg" xmlns:xlink="http://www.w3.org/1999/xlink" width="91.0645" height="118.115">
 <g>
  <rect height="118.115" opacity="0" width="91.0645" x="0" y="0"/>
  <path d="M0 58.1543C0 60.6934 1.75781 62.5 4.29688 62.5L86.8164 62.5C89.3066 62.5 91.0645 60.6934 91.0645 58.1543C91.0645 55.6152 89.3066 53.7598 86.8164 53.7598L4.29688 53.7598C1.75781 53.7598 0 55.6152 0 58.1543Z" fill="#000000" fill-opacity="0.85"/>
  <path d="M45.5566 0C43.0176 0 41.1621 1.75781 41.1621 4.29688L41.1621 24.9512L41.5039 35.0586L28.5645 21.1914C27.7344 20.3125 26.6113 19.9707 25.4395 19.9707C22.998 19.9707 21.1914 21.8262 21.1914 24.2188C21.1914 25.4395 21.6797 26.5137 22.6562 27.5391L42.2852 47.2168C43.2129 48.1934 44.3359 48.7305 45.5566 48.7305C46.7285 48.7305 47.9004 48.1934 48.8281 47.2168L68.457 27.5391C69.4336 26.5137 69.9219 25.4395 69.9219 24.2188C69.9219 21.8262 68.1152 19.9707 65.6738 19.9707C64.502 19.9707 63.3789 20.3125 62.5488 21.1914L49.6094 35.0586L49.9023 24.9512L49.9023 4.29688C49.9023 1.75781 48.0957 0 45.5566 0ZM45.5566 116.309C48.0957 116.309 49.9023 114.551 49.9023 111.963L49.9023 91.3086L49.6094 81.25L62.5488 95.0684C63.3789 95.9473 64.502 96.2891 65.6738 96.2891C68.1152 96.2891 69.9219 94.4336 69.9219 92.041C69.9219 90.8203 69.4336 89.7461 68.457 88.7207L48.8281 69.043C47.9004 68.0664 46.7285 67.5293 45.5566 67.5293C44.3359 67.5293 43.2129 68.0664 42.2852 69.043L22.6562 88.7207C21.6797 89.7461 21.1914 90.8203 21.1914 92.041C21.1914 94.4336 22.998 96.2891 25.4395 96.2891C26.6113 96.2891 27.7344 95.9473 28.5645 95.0684L41.5039 81.25L41.1621 91.3086L41.1621 111.963C41.1621 114.551 43.0176 116.309 45.5566 116.309Z" fill="#000000" fill-opacity="0.85"/>
 </g>
</svg>
