<?xml version="1.0" encoding="UTF-8"?>
<!--Generator: Apple Native CoreSVG 232.5-->
<!DOCTYPE svg
PUBLIC "-//W3C//DTD SVG 1.1//EN"
       "http://www.w3.org/Graphics/SVG/1.1/DTD/svg11.dtd">
<svg version="1.1" xmlns="http://www.w3.org/2000/svg" xmlns:xlink="http://www.w3.org/1999/xlink" width="89.8926" height="91.0645">
 <g>
  <rect height="91.0645" opacity="0" width="89.8926" x="0" y="0"/>
  <path d="M15.332 89.8926L74.5605 89.8926C84.8145 89.8926 89.8926 84.8145 89.8926 74.7559L89.8926 15.1367C89.8926 5.07812 84.8145 0 74.5605 0L15.332 0C5.12695 0 0 5.0293 0 15.1367L0 74.7559C0 84.8633 5.12695 89.8926 15.332 89.8926ZM15.4297 82.0312C10.5469 82.0312 7.86133 79.4434 7.86133 74.3652L7.86133 15.5273C7.86133 10.498 10.5469 7.86133 15.4297 7.86133L74.4629 7.86133C79.2969 7.86133 82.0312 10.498 82.0312 15.5273L82.0312 74.3652C82.0312 79.4434 79.2969 82.0312 74.4629 82.0312Z" fill="#000000" fill-opacity="0.85"/>
  <path d="M49.5605 19.7754C37.8418 19.7754 30.7129 28.2227 30.7129 39.6484L30.7129 54.1992L30.8594 60.0098L27.832 56.1523L22.9492 51.0742C22.3633 50.4395 21.4355 50 20.4102 50C18.4082 50 16.8457 51.5137 16.8457 53.5156C16.8457 54.541 17.1875 55.3223 17.9199 56.0059L31.1035 68.9941C31.9336 69.7754 32.959 70.2637 34.082 70.2637C35.2539 70.2637 36.2305 69.7754 37.0605 68.9941L50.3418 55.957C51.0254 55.2734 51.3672 54.4922 51.3672 53.4668C51.3672 51.5137 49.8535 50 47.8027 50C46.875 50 45.9473 50.3418 45.3125 51.0254L39.4531 57.1777L37.3047 60.0098L37.5488 54.1992L37.5488 39.6484C37.5488 32.4707 41.6504 26.9531 49.1699 26.9531C56.8848 26.9531 61.6211 32.3242 61.6211 39.6973C61.6211 40.2832 61.6211 46.2891 61.6211 46.4844C61.6211 48.5352 62.8418 50.1953 65.1367 50.1953C67.3828 50.1953 68.6035 48.5352 68.6035 46.3867C68.6035 46.1426 68.6035 40.2832 68.6035 39.6973C68.6035 28.2715 61.2793 19.7754 49.5605 19.7754Z" fill="#000000" fill-opacity="0.85"/>
 </g>
</svg>
