<?xml version="1.0" encoding="UTF-8"?>
<!--Generator: Apple Native CoreSVG 232.5-->
<!DOCTYPE svg
PUBLIC "-//W3C//DTD SVG 1.1//EN"
       "http://www.w3.org/Graphics/SVG/1.1/DTD/svg11.dtd">
<svg version="1.1" xmlns="http://www.w3.org/2000/svg" xmlns:xlink="http://www.w3.org/1999/xlink" width="115.137" height="89.8926">
 <g>
  <rect height="89.8926" opacity="0" width="115.137" x="0" y="0"/>
  <path d="M15.332 89.8926L99.8047 89.8926C110.059 89.8926 115.137 84.8633 115.137 74.8047L115.137 15.1367C115.137 5.07812 110.059 0 99.8047 0L15.332 0C5.12695 0 0 5.07812 0 15.1367L0 74.8047C0 84.8633 5.12695 89.8926 15.332 89.8926ZM15.4297 82.0312C10.5469 82.0312 7.86133 79.4434 7.86133 74.3652L7.86133 15.5762C7.86133 10.498 10.5469 7.86133 15.4297 7.86133L99.707 7.86133C104.541 7.86133 107.275 10.498 107.275 15.5762L107.275 74.3652C107.275 79.4434 104.541 82.0312 99.707 82.0312Z" fill="#000000" fill-opacity="0.85"/>
  <path d="M46.2891 70.4102C48.4375 70.4102 49.9023 68.75 49.9023 66.5039L49.9023 44.1406C49.9023 41.2598 48.291 40.1367 45.8008 40.1367L23.3398 40.1367C21.0449 40.1367 19.5801 41.5527 19.5801 43.7012C19.5801 45.8496 21.0938 47.2656 23.4375 47.2656L31.6406 47.2656L38.8672 46.4844L31.25 53.5645L16.5039 68.3105C15.8203 68.9941 15.332 69.9707 15.332 70.9473C15.332 73.1445 16.748 74.5605 18.9453 74.5605C20.1172 74.5605 20.9961 74.1211 21.6797 73.4375L36.4258 58.7402L43.457 51.2207L42.7246 58.7891L42.7246 66.6016C42.7246 68.8965 44.1406 70.4102 46.2891 70.4102Z" fill="#000000" fill-opacity="0.85"/>
 </g>
</svg>
