<?xml version="1.0" encoding="UTF-8"?>
<!--Generator: Apple Native CoreSVG 232.5-->
<!DOCTYPE svg
PUBLIC "-//W3C//DTD SVG 1.1//EN"
       "http://www.w3.org/Graphics/SVG/1.1/DTD/svg11.dtd">
<svg version="1.1" xmlns="http://www.w3.org/2000/svg" xmlns:xlink="http://www.w3.org/1999/xlink" width="122.754" height="92.8223">
 <g>
  <rect height="92.8223" opacity="0" width="122.754" x="0" y="0"/>
  <path d="M107.324 37.5C116.846 41.5039 122.754 50.3906 122.754 60.6445C122.754 74.0723 111.23 84.8633 96.4844 84.8633L29.248 84.8633C12.5488 84.8633 0 72.8027 0 58.4473C0 46.5332 6.88477 36.6699 17.9199 34.9121C18.1641 21.2402 31.25 12.1094 43.2617 15.625C49.1211 7.08008 58.5449 0 71.7773 0C91.748 0 107.422 15.7227 107.324 37.5ZM42.5293 39.2578L36.1816 48.2422C35.1562 49.6582 35.5957 51.4648 37.4512 51.4648L41.6016 51.4648C43.5547 62.4023 52.4902 70.0195 63.7207 70.0195C68.7012 70.0195 73.6328 68.3105 77.0996 65.4297C79.0039 63.916 79.4922 61.8652 78.0762 60.3027C76.6602 58.8867 74.9023 59.082 73.1934 60.2539C70.4102 62.5 67.5781 63.6719 63.7207 63.6719C55.957 63.6719 49.4141 58.4473 47.6074 51.4648L51.7578 51.4648C53.6133 51.4648 54.1504 49.6582 53.0273 48.2422L46.6309 39.2578C45.5566 37.8418 43.6523 37.6953 42.5293 39.2578ZM50.3418 30.2246C48.4863 31.7383 47.9492 33.7891 49.3652 35.3027C50.7324 36.7188 52.5879 36.5234 54.1504 35.3516C56.9824 33.0566 59.8633 31.9336 63.6719 31.9336C71.5332 31.9336 78.0273 37.207 79.7852 44.1895L75.4395 44.1895C73.584 44.1895 73.0469 45.9473 74.1699 47.4121L80.5664 56.3477C81.6406 57.7637 83.5449 57.9102 84.668 56.3477L91.0156 47.4121C92.041 45.9473 91.6016 44.1895 89.7461 44.1895L85.8398 44.1895C83.8867 33.2031 74.9512 25.5859 63.6719 25.5859C58.7402 25.5859 53.7598 27.3438 50.3418 30.2246Z" fill="#000000" fill-opacity="0.85"/>
 </g>
</svg>
