<?xml version="1.0" encoding="UTF-8"?>
<!--Generator: Apple Native CoreSVG 232.5-->
<!DOCTYPE svg
PUBLIC "-//W3C//DTD SVG 1.1//EN"
       "http://www.w3.org/Graphics/SVG/1.1/DTD/svg11.dtd">
<svg version="1.1" xmlns="http://www.w3.org/2000/svg" xmlns:xlink="http://www.w3.org/1999/xlink" width="89.8926" height="89.9902">
 <g>
  <rect height="89.9902" opacity="0" width="89.8926" x="0" y="0"/>
  <path d="M89.8926 15.2344L89.8926 74.8535C89.8926 84.9121 84.8145 89.9902 74.5605 89.9902L15.332 89.9902C5.12695 89.9902 0 84.9609 0 74.8535L0 15.2344C0 5.12695 5.12695 0.0976562 15.332 0.0976562L74.5605 0.0976562C84.8145 0.0976562 89.8926 5.17578 89.8926 15.2344ZM19.3848 26.0742L19.3848 63.916C19.3848 65.8691 20.8008 67.2363 22.8516 67.2363C24.7559 67.2363 26.1719 65.8691 26.1719 63.916L26.1719 26.0742C26.1719 24.1211 24.7559 22.7051 22.8516 22.7051C20.8008 22.7051 19.3848 24.1211 19.3848 26.0742ZM48.584 25.3906L31.2012 42.4805C30.4688 43.2129 30.0293 44.0918 30.0293 45.0195C30.0293 45.9961 30.3711 46.8262 31.2012 47.5586L48.4863 64.502C49.1699 65.1855 50.2441 65.625 51.0254 65.625C52.9785 65.625 54.3945 64.2578 54.3945 62.3535C54.3945 61.3281 54.1016 60.498 53.3691 59.9121L50.1953 56.9824L39.9414 47.8516L49.2188 48.4863L72.2656 48.4863C74.2188 48.4863 75.6836 47.0703 75.6836 45.0195C75.6836 43.1152 74.2188 41.6992 72.2656 41.6992L49.2188 41.6992L39.9902 42.1875L50.2441 33.1055L53.3691 30.0781C54.1016 29.3945 54.3945 28.5156 54.3945 27.5879C54.3945 25.6836 52.8809 24.3652 51.0254 24.3652C50.1465 24.3652 49.2676 24.6094 48.584 25.3906Z" fill="#000000" fill-opacity="0.85"/>
 </g>
</svg>
