<?xml version="1.0" encoding="UTF-8"?>
<!--Generator: Apple Native CoreSVG 232.5-->
<!DOCTYPE svg
PUBLIC "-//W3C//DTD SVG 1.1//EN"
       "http://www.w3.org/Graphics/SVG/1.1/DTD/svg11.dtd">
<svg version="1.1" xmlns="http://www.w3.org/2000/svg" xmlns:xlink="http://www.w3.org/1999/xlink" width="89.8926" height="89.9902">
 <g>
  <rect height="89.9902" opacity="0" width="89.8926" x="0" y="0"/>
  <path d="M15.332 89.9902L74.5605 89.9902C84.8145 89.9902 89.8926 84.9121 89.8926 74.8535L89.8926 15.2344C89.8926 5.17578 84.8145 0.0976562 74.5605 0.0976562L15.332 0.0976562C5.12695 0.0976562 0 5.12695 0 15.2344L0 74.8535C0 84.9609 5.12695 89.9902 15.332 89.9902ZM15.4297 82.1289C10.5469 82.1289 7.86133 79.541 7.86133 74.4629L7.86133 15.625C7.86133 10.5469 10.5469 7.95898 15.4297 7.95898L74.4629 7.95898C79.2969 7.95898 82.0312 10.5469 82.0312 15.625L82.0312 74.4629C82.0312 79.541 79.2969 82.1289 74.4629 82.1289Z" fill="#000000" fill-opacity="0.85"/>
  <path d="M45.0195 20.1172C42.9199 20.1172 41.3574 21.6309 41.3574 23.7793L41.3574 48.1934L41.748 58.4961L36.8652 52.6367L31.0547 46.7773C30.4199 46.0938 29.541 45.7031 28.4668 45.7031C26.4648 45.7031 24.9512 47.2168 24.9512 49.2188C24.9512 50.2441 25.2441 51.123 25.8789 51.7578L42.1875 67.9688C43.1641 68.9453 43.9941 69.3848 45.0195 69.3848C46.1426 69.3848 46.9727 68.8965 47.9004 67.9688L64.1602 51.7578C64.8438 51.123 65.1855 50.2441 65.1855 49.2188C65.1855 47.2168 63.623 45.7031 61.6211 45.7031C60.5469 45.7031 59.668 46.0449 59.0332 46.7773L53.2715 52.6367L48.291 58.5449L48.6816 48.1934L48.6816 23.7793C48.6816 21.6309 47.168 20.1172 45.0195 20.1172Z" fill="#000000" fill-opacity="0.85"/>
 </g>
</svg>
