<?xml version="1.0" encoding="UTF-8"?>
<!--Generator: Apple Native CoreSVG 232.5-->
<!DOCTYPE svg
PUBLIC "-//W3C//DTD SVG 1.1//EN"
       "http://www.w3.org/Graphics/SVG/1.1/DTD/svg11.dtd">
<svg version="1.1" xmlns="http://www.w3.org/2000/svg" xmlns:xlink="http://www.w3.org/1999/xlink" width="122.754" height="92.8223">
 <g>
  <rect height="92.8223" opacity="0" width="122.754" x="0" y="0"/>
  <path d="M107.324 37.5C116.846 41.5039 122.754 50.3906 122.754 60.6445C122.754 74.0723 111.23 84.8633 96.4844 84.8633L29.248 84.8633C12.5488 84.8633 0 72.8027 0 58.4473C0 46.5332 6.88477 36.6699 17.9199 34.9121C18.1641 21.2402 31.25 12.1094 43.2617 15.625C49.1211 7.08008 58.5449 0 71.7773 0C91.748 0 107.422 15.7227 107.324 37.5ZM60.0586 23.6816L60.0586 28.8574C51.0254 30.2734 43.4082 38.4277 43.4082 48.5352C43.4082 59.9609 52.4414 69.043 63.6719 69.043C74.9512 69.043 83.9844 59.9609 83.9844 48.6816C83.9844 47.0215 82.5195 45.6055 80.8594 45.6055C79.1016 45.6055 77.6855 47.0215 77.6855 48.6816C77.6855 56.4941 71.4844 62.793 63.6719 62.793C55.9082 62.793 49.707 56.4941 49.707 48.6816C49.707 42.1875 54.1016 36.8164 60.0586 35.2051L60.0586 41.1621C60.0586 43.3105 62.4023 44.1895 64.1113 42.7246L73.4375 34.668C75 33.3008 74.9023 31.25 73.4375 29.9805L64.1113 22.0215C62.4023 20.6543 60.0586 21.4844 60.0586 23.6816Z" fill="#000000" fill-opacity="0.85"/>
 </g>
</svg>
