<?xml version="1.0" encoding="UTF-8"?>
<!--Generator: Apple Native CoreSVG 232.5-->
<!DOCTYPE svg
PUBLIC "-//W3C//DTD SVG 1.1//EN"
       "http://www.w3.org/Graphics/SVG/1.1/DTD/svg11.dtd">
<svg version="1.1" xmlns="http://www.w3.org/2000/svg" xmlns:xlink="http://www.w3.org/1999/xlink" width="99.6094" height="99.6582">
 <g>
  <rect height="99.6582" opacity="0" width="99.6094" x="0" y="0"/>
  <path d="M99.6094 49.8047C99.6094 77.002 77.0508 99.6094 49.8047 99.6094C22.6074 99.6094 0 77.002 0 49.8047C0 22.5586 22.5586 0 49.7559 0C77.002 0 99.6094 22.5586 99.6094 49.8047ZM30.2734 34.1309C30.2734 35.1074 30.7617 36.1328 31.4941 36.8652L50 55.2734L57.8613 62.6465L50.3906 61.8652L41.3086 61.8652C38.8672 61.8652 37.3047 63.3301 37.3047 65.5273C37.3047 67.7734 38.8184 69.2383 41.2109 69.2383L65.0391 69.2383C67.627 69.2383 69.2871 68.0664 69.2871 65.0879L69.2871 41.3574C69.2871 38.9648 67.7734 37.3047 65.5762 37.3047C63.3301 37.3047 61.8652 38.8184 61.8652 41.2598L61.8652 49.9023L62.5977 57.7637L55.3223 50L36.9141 31.543C36.1328 30.8105 35.2051 30.3711 33.9844 30.3711C31.7871 30.3711 30.2734 31.8359 30.2734 34.1309Z" fill="#000000" fill-opacity="0.85"/>
 </g>
</svg>
