<?xml version="1.0" encoding="UTF-8"?>
<!--Generator: Apple Native CoreSVG 232.5-->
<!DOCTYPE svg
PUBLIC "-//W3C//DTD SVG 1.1//EN"
       "http://www.w3.org/Graphics/SVG/1.1/DTD/svg11.dtd">
<svg version="1.1" xmlns="http://www.w3.org/2000/svg" xmlns:xlink="http://www.w3.org/1999/xlink" width="114.355" height="123.634">
 <g>
  <rect height="123.634" opacity="0" width="114.355" x="0" y="0"/>
  <path d="M7.37305 106.275L45.9473 106.275C51.709 106.275 54.3457 103.687 54.3457 97.8767L54.3457 39.5271C54.3457 35.2302 51.1719 32.9353 47.7051 32.9353C45.3613 32.9353 43.0664 34.0095 41.5039 36.2556L1.51367 94.654C0.439453 96.2165 0 98.0232 0 99.6833C0 103.248 2.34375 106.275 7.37305 106.275ZM106.982 106.275C112.061 106.275 114.355 103.248 114.355 99.6833C114.355 98.0232 113.916 96.2165 112.842 94.654L72.9004 36.2556C71.2891 34.0095 69.043 32.9353 66.6992 32.9353C63.2324 32.9353 60.0586 35.2302 60.0586 39.5271L60.0586 97.8767C60.0586 103.687 62.6465 106.275 68.457 106.275Z" fill="#000000" fill-opacity="0.85"/>
  <path d="M26.709 21.5583L26.709 15.3083L87.6953 15.3083L87.6953 21.5583C87.6953 25.074 90.4297 25.8552 93.1641 23.9021L105.469 14.9177C107.568 13.3552 107.52 11.6462 105.469 10.1326L93.1641 1.09935C90.4297-0.951429 87.6953-0.121351 87.6953 3.49193L87.6953 9.64427L26.709 9.64427L26.709 3.49193C26.709-0.121351 23.9258-0.951429 21.2402 1.09935L8.88672 10.1326C6.88477 11.6462 6.83594 13.404 8.88672 14.9177L21.2402 23.9021C23.9258 25.904 26.709 25.074 26.709 21.5583Z" fill="#000000" fill-opacity="0.85"/>
 </g>
</svg>
