<?xml version="1.0" encoding="UTF-8"?>
<!--Generator: Apple Native CoreSVG 232.5-->
<!DOCTYPE svg
PUBLIC "-//W3C//DTD SVG 1.1//EN"
       "http://www.w3.org/Graphics/SVG/1.1/DTD/svg11.dtd">
<svg version="1.1" xmlns="http://www.w3.org/2000/svg" xmlns:xlink="http://www.w3.org/1999/xlink" width="128.564" height="91.7848">
 <g>
  <rect height="91.7848" opacity="0" width="128.564" x="0" y="0"/>
  <path d="M15.8691 90.1063L25.6348 77.0203C27.5879 74.3836 26.5625 71.0633 23.0957 71.0633L16.1621 71.0633L16.1621 20.3309L23.0957 20.3309C26.4648 20.3309 27.6855 17.1082 25.6348 14.3738L15.8691 1.33673C14.5508-0.469908 12.0117-0.42108 10.7422 1.33673L0.976562 14.3738C-1.02539 17.1082 0.195312 20.3309 3.51562 20.3309L10.498 20.3309L10.498 71.0633L3.51562 71.0633C0.195312 71.0633-1.02539 74.286 0.976562 77.0203L10.7422 90.1063C12.0605 91.8641 14.5508 91.8641 15.8691 90.1063Z" fill="#000000" fill-opacity="0.85"/>
  <path d="M46.3867 11.0535L124.854 11.0535C126.904 11.0535 128.564 9.4422 128.564 7.34259C128.564 5.29181 126.904 3.68048 124.854 3.68048L46.3867 3.68048C44.2871 3.68048 42.6758 5.29181 42.6758 7.34259C42.6758 9.4422 44.2871 11.0535 46.3867 11.0535ZM46.3867 36.6395L124.854 36.6395C126.904 36.6395 128.564 35.0281 128.564 32.9285C128.564 30.8777 126.904 29.2664 124.854 29.2664L46.3867 29.2664C44.2871 29.2664 42.6758 30.8777 42.6758 32.9285C42.6758 35.0281 44.2871 36.6395 46.3867 36.6395ZM46.3867 62.2254L124.854 62.2254C126.904 62.2254 128.564 60.5652 128.564 58.5145C128.564 56.4637 126.904 54.8524 124.854 54.8524L46.3867 54.8524C44.2871 54.8524 42.6758 56.4637 42.6758 58.5145C42.6758 60.5652 44.2871 62.2254 46.3867 62.2254ZM46.3867 87.7625L93.5547 87.7625C95.6055 87.7625 97.2656 86.1512 97.2656 84.1004C97.2656 82.0496 95.6055 80.3895 93.5547 80.3895L46.3867 80.3895C44.2871 80.3895 42.6758 82.0496 42.6758 84.1004C42.6758 86.1512 44.2871 87.7625 46.3867 87.7625Z" fill="#000000" fill-opacity="0.85"/>
 </g>
</svg>
