<?xml version="1.0" encoding="UTF-8"?>
<!--Generator: Apple Native CoreSVG 232.5-->
<!DOCTYPE svg
PUBLIC "-//W3C//DTD SVG 1.1//EN"
       "http://www.w3.org/Graphics/SVG/1.1/DTD/svg11.dtd">
<svg version="1.1" xmlns="http://www.w3.org/2000/svg" xmlns:xlink="http://www.w3.org/1999/xlink" width="110.755" height="110.804">
 <g>
  <rect height="110.804" opacity="0" width="110.755" x="0" y="0"/>
  <path d="M5.47524 66.1686L44.5866 105.28C51.8131 112.506 58.942 112.555 66.1198 105.426L105.426 66.0709C112.555 58.942 112.506 51.7643 105.28 44.5377L66.2174 5.47524C58.9909-1.75132 51.862-1.84898 44.6842 5.32876L5.32876 44.6354C-1.84898 51.8131-1.75132 58.942 5.47524 66.1686ZM11.1393 60.7487C7.67251 57.2331 7.57485 53.5709 11.1881 49.9577L49.9577 11.1881C53.5709 7.57485 57.2331 7.62368 60.7487 11.1393L99.6159 50.0065C103.083 53.4733 103.18 57.1842 99.567 60.7975L60.7975 99.567C57.1842 103.18 53.4245 103.083 50.0065 99.6647Z" fill="#000000" fill-opacity="0.85"/>
  <path d="M34.235 70.7584C34.235 73.5416 35.6022 75.2018 38.1413 75.153C40.6315 75.1041 42.0475 73.5416 42.0475 70.7584L42.0475 57.1842C42.0475 52.7409 44.1471 50.6901 48.3463 50.6901L61.0905 50.6901L61.0905 58.3561C61.0905 61.5299 64.6549 62.9948 67.3405 60.6999L79.0104 50.5924C81.9401 48.0534 81.9401 45.4655 79.0104 42.9264L67.3405 32.8678C64.6549 30.5241 61.0905 32.0377 61.0905 35.1627L61.0905 42.8288L48.2487 42.8288C38.7272 42.8288 34.235 47.3698 34.235 56.7936Z" fill="#000000" fill-opacity="0.85"/>
 </g>
</svg>
