<?xml version="1.0" encoding="UTF-8"?>
<!--Generator: Apple Native CoreSVG 232.5-->
<!DOCTYPE svg
PUBLIC "-//W3C//DTD SVG 1.1//EN"
       "http://www.w3.org/Graphics/SVG/1.1/DTD/svg11.dtd">
<svg version="1.1" xmlns="http://www.w3.org/2000/svg" xmlns:xlink="http://www.w3.org/1999/xlink" width="89.8926" height="91.1621">
 <g>
  <rect height="91.1621" opacity="0" width="89.8926" x="0" y="0"/>
  <path d="M89.8926 15.1367L89.8926 74.7559C89.8926 84.8145 84.8145 89.8926 74.5605 89.8926L15.332 89.8926C5.12695 89.8926 0 84.8633 0 74.7559L0 15.1367C0 5.0293 5.12695 0 15.332 0L74.5605 0C84.8145 0 89.8926 5.07812 89.8926 15.1367ZM31.8359 38.916L31.8359 53.2227L32.0801 58.252L29.4434 54.9316L24.6582 50C24.0234 49.2676 23.0469 48.8281 22.0703 48.8281C19.9707 48.8281 18.3105 50.4395 18.3105 52.4902C18.3105 53.6133 18.6523 54.4434 19.3848 55.1758L32.3242 67.9199C33.252 68.7988 34.3262 69.2383 35.4492 69.2383C36.5234 69.2383 37.5977 68.8477 38.5254 67.9199L51.6113 55.127C52.2949 54.4434 52.6855 53.5645 52.6855 52.4414C52.6855 50.4395 51.0254 48.8281 48.9258 48.8281C47.8516 48.8281 46.9238 49.2676 46.2402 50L40.5273 55.9082L38.916 58.2031L39.1113 53.2227L39.1113 38.916C39.1113 31.4941 43.5547 26.5625 50.2441 26.5625C57.4707 26.5625 62.2559 31.5918 62.2559 38.9648L62.2559 45.6543C62.2559 47.9492 63.7207 49.4629 65.918 49.4629C68.0664 49.4629 69.5312 47.9004 69.5312 45.5566L69.5312 38.9648C69.5312 27.1973 61.9141 19.2871 50.2441 19.2871C39.209 19.2871 31.8359 27.1484 31.8359 38.916Z" fill="#000000" fill-opacity="0.85"/>
 </g>
</svg>
