<?xml version="1.0" encoding="UTF-8"?>
<!--Generator: Apple Native CoreSVG 232.5-->
<!DOCTYPE svg
PUBLIC "-//W3C//DTD SVG 1.1//EN"
       "http://www.w3.org/Graphics/SVG/1.1/DTD/svg11.dtd">
<svg version="1.1" xmlns="http://www.w3.org/2000/svg" xmlns:xlink="http://www.w3.org/1999/xlink" width="99.6094" height="99.6582">
 <g>
  <rect height="99.6582" opacity="0" width="99.6094" x="0" y="0"/>
  <path d="M49.8047 99.6094C77.0508 99.6094 99.6094 77.002 99.6094 49.8047C99.6094 22.5586 77.002 0 49.7559 0C22.5586 0 0 22.5586 0 49.8047C0 77.002 22.6074 99.6094 49.8047 99.6094ZM49.8047 91.3086C26.7578 91.3086 8.34961 72.8516 8.34961 49.8047C8.34961 26.7578 26.709 8.30078 49.7559 8.30078C72.8027 8.30078 91.3086 26.7578 91.3086 49.8047C91.3086 72.8516 72.8516 91.3086 49.8047 91.3086Z" fill="#000000" fill-opacity="0.85"/>
  <path d="M42.9199 74.9512C54.6875 74.9512 61.8164 66.5039 61.8164 55.0781L61.8164 40.5273L61.6211 34.7168L64.6484 38.623L69.5312 43.6523C70.166 44.2871 71.0449 44.7754 72.0703 44.7754C74.0723 44.7754 75.6348 43.2129 75.6348 41.2598C75.6348 40.2344 75.293 39.4043 74.5605 38.7207L61.377 25.7812C60.5957 24.9512 59.5215 24.4629 58.3984 24.4629C57.2754 24.4629 56.25 24.9512 55.4688 25.7812L42.1387 38.7695C41.4551 39.4531 41.1133 40.2832 41.1133 41.3086C41.1133 43.2129 42.6758 44.7754 44.6777 44.7754C45.6055 44.7754 46.5332 44.3848 47.2168 43.7012L53.0762 37.5977L55.1758 34.7168L54.9805 40.5273L54.9805 55.0781C54.9805 62.2559 50.8301 67.7734 43.3105 67.7734C35.6445 67.7734 30.8594 62.4023 30.8594 55.0293C30.8594 54.4922 30.8594 48.4375 30.8594 48.2422C30.8594 46.1914 29.6387 44.5801 27.3926 44.5801C25.1465 44.5801 23.877 46.1914 23.877 48.3398C23.877 48.584 23.877 54.4922 23.877 55.0293C23.877 66.4551 31.2012 74.9512 42.9199 74.9512Z" fill="#000000" fill-opacity="0.85"/>
 </g>
</svg>
