<?xml version="1.0" encoding="UTF-8"?>
<!--Generator: Apple Native CoreSVG 232.5-->
<!DOCTYPE svg
PUBLIC "-//W3C//DTD SVG 1.1//EN"
       "http://www.w3.org/Graphics/SVG/1.1/DTD/svg11.dtd">
<svg version="1.1" xmlns="http://www.w3.org/2000/svg" xmlns:xlink="http://www.w3.org/1999/xlink" width="97.8516" height="92.627">
 <g>
  <rect height="92.627" opacity="0" width="97.8516" x="0" y="0"/>
  <path d="M0.830078 32.4707C0.830078 53.2715 18.2617 73.7305 45.8008 91.3086C46.8262 91.9434 48.3398 92.627 49.3164 92.627C50.3418 92.627 51.8066 91.9434 52.8809 91.3086C80.4199 73.7305 97.8516 53.2715 97.8516 32.4707C97.8516 15.1855 85.9863 2.97852 70.1172 2.97852C61.084 2.97852 53.7598 7.27539 49.3164 13.8672C44.9707 7.32422 37.5977 2.97852 28.5156 2.97852C12.6953 2.97852 0.830078 15.1855 0.830078 32.4707ZM8.69141 32.4707C8.69141 19.4824 17.0898 10.8398 28.418 10.8398C37.6465 10.8398 42.8711 16.5527 46.0449 21.4355C47.3633 23.3887 48.1934 23.9258 49.3164 23.9258C50.4883 23.9258 51.2207 23.3398 52.6367 21.4355C56.0059 16.6504 61.084 10.8398 70.2148 10.8398C81.5918 10.8398 89.9902 19.4824 89.9902 32.4707C89.9902 50.6348 70.8008 70.2148 50.3418 83.7891C49.8535 84.1309 49.5117 84.375 49.3164 84.375C49.1699 84.375 48.8281 84.1309 48.3398 83.7891C27.8809 70.2148 8.69141 50.6348 8.69141 32.4707Z" fill="#000000" fill-opacity="0.85"/>
  <path d="M52.6855 66.4551L52.6855 48.877L52.3438 40.9668L56.4941 45.2148L60.791 49.6094C61.4746 50.293 62.4023 50.6836 63.3789 50.6836C65.332 50.6836 66.7969 49.3164 66.7969 47.3145C66.7969 46.2402 66.3574 45.4102 65.5762 44.7266L51.6602 31.8848C50.6348 30.957 49.8535 30.6152 48.9258 30.6152C47.998 30.6152 47.2168 30.957 46.1914 31.8848L32.2754 44.7266C31.4941 45.4102 31.0547 46.2402 31.0547 47.3145C31.0547 49.3164 32.4707 50.6836 34.4727 50.6836C35.4004 50.6836 36.4258 50.293 37.0605 49.6094L41.3574 45.2148L45.5078 40.9668L45.2148 48.877L45.2148 66.4551C45.2148 68.457 46.9238 70.1172 48.9258 70.1172C50.9277 70.1172 52.6855 68.457 52.6855 66.4551Z" fill="#000000" fill-opacity="0.85"/>
 </g>
</svg>
