<?xml version="1.0" encoding="UTF-8"?>
<!--Generator: Apple Native CoreSVG 232.5-->
<!DOCTYPE svg
PUBLIC "-//W3C//DTD SVG 1.1//EN"
       "http://www.w3.org/Graphics/SVG/1.1/DTD/svg11.dtd">
<svg version="1.1" xmlns="http://www.w3.org/2000/svg" xmlns:xlink="http://www.w3.org/1999/xlink" width="89.8926" height="89.9902">
 <g>
  <rect height="89.9902" opacity="0" width="89.8926" x="0" y="0"/>
  <path d="M15.332 89.9902L74.5605 89.9902C84.8145 89.9902 89.8926 84.9121 89.8926 74.8535L89.8926 15.2344C89.8926 5.17578 84.8145 0.0976562 74.5605 0.0976562L15.332 0.0976562C5.12695 0.0976562 0 5.12695 0 15.2344L0 74.8535C0 84.9609 5.12695 89.9902 15.332 89.9902ZM15.4297 82.1289C10.5469 82.1289 7.86133 79.541 7.86133 74.4629L7.86133 15.625C7.86133 10.5469 10.5469 7.95898 15.4297 7.95898L74.4629 7.95898C79.2969 7.95898 82.0312 10.5469 82.0312 15.625L82.0312 74.4629C82.0312 79.541 79.2969 82.1289 74.4629 82.1289Z" fill="#000000" fill-opacity="0.85"/>
  <path d="M16.8457 49.1699C16.8457 50.9766 18.4082 52.5391 20.166 52.4902L37.3535 52.2949C38.2324 52.2461 39.1113 51.9043 39.5996 51.3184C40.918 50.0488 40.918 48.2422 39.6484 46.9727C39.0137 46.3379 38.2324 46.0449 37.4023 46.0449L30.1758 46.1426L27.3926 46.2402L29.1504 44.6777L51.5137 22.2656C52.7832 20.9961 52.832 19.0918 51.5137 17.7734C50.293 16.5039 48.3398 16.5039 47.0215 17.7734L24.6582 40.1855L23.0957 41.8457L23.2422 39.209L23.3398 31.9336C23.3887 31.1035 22.998 30.2734 22.4121 29.6875C21.0938 28.3691 19.2383 28.3691 17.9688 29.6875C17.4316 30.2734 17.041 31.2012 17.041 32.0312ZM73.1445 40.8203C73.1445 38.9648 71.6797 37.5977 69.873 37.5977L52.6855 37.7441C51.9043 37.7441 50.9766 38.1348 50.4395 38.6719C49.1211 40.0391 49.1211 41.8457 50.3906 43.1152C51.0254 43.7012 51.8066 44.043 52.5879 44.043L59.9121 43.8965L62.6953 43.7988L60.9375 45.3125L38.5254 67.7734C37.207 69.043 37.207 70.8984 38.5254 72.2168C39.7949 73.4863 41.6992 73.5352 42.9688 72.2168L65.3809 49.8535L67.041 48.0957L66.8457 50.8301L66.748 58.1055C66.748 58.9355 67.041 59.7168 67.627 60.3516C68.8965 61.6211 70.8008 61.6211 72.1191 60.3516C72.6074 59.8145 72.9004 58.9355 72.9492 58.0566Z" fill="#000000" fill-opacity="0.85"/>
 </g>
</svg>
