<?xml version="1.0" encoding="UTF-8"?>
<!--Generator: Apple Native CoreSVG 232.5-->
<!DOCTYPE svg
PUBLIC "-//W3C//DTD SVG 1.1//EN"
       "http://www.w3.org/Graphics/SVG/1.1/DTD/svg11.dtd">
<svg version="1.1" xmlns="http://www.w3.org/2000/svg" xmlns:xlink="http://www.w3.org/1999/xlink" width="97.8516" height="92.627">
 <g>
  <rect height="92.627" opacity="0" width="97.8516" x="0" y="0"/>
  <path d="M97.8516 32.4707C97.8516 53.2715 80.4199 73.7305 52.8809 91.3086C51.8066 91.9434 50.3418 92.627 49.3164 92.627C48.3398 92.627 46.8262 91.9434 45.8008 91.3086C18.2617 73.7305 0.830078 53.2715 0.830078 32.4707C0.830078 15.1855 12.6953 2.97852 28.0273 2.97852C37.5977 2.97852 44.9707 8.30078 49.3164 16.3086C53.7598 8.25195 61.084 2.97852 70.6055 2.97852C85.9863 2.97852 97.8516 15.1855 97.8516 32.4707ZM45.0684 32.3242L45.0684 50.4883L45.3613 58.6914L41.1621 54.2969L36.7188 49.8047C36.0352 49.0723 35.0098 48.6328 34.0332 48.6328C31.9336 48.6328 30.4688 50.0977 30.4688 52.1484C30.4688 53.3203 30.957 54.1504 31.7383 54.8828L46.0938 68.0176C47.168 69.043 47.9492 69.3359 48.9258 69.3359C49.9023 69.3359 50.6836 69.043 51.7578 68.0176L66.1133 54.8828C66.8945 54.1504 67.3828 53.3203 67.3828 52.1484C67.3828 50.0977 65.8203 48.6328 63.8184 48.6328C62.793 48.6328 61.8652 49.0723 61.1328 49.8047L56.6895 54.2969L52.4902 58.6914L52.832 50.4883L52.832 32.3242C52.832 30.2734 51.0254 28.5645 48.9258 28.5645C46.8262 28.5645 45.0684 30.2734 45.0684 32.3242Z" fill="#000000" fill-opacity="0.85"/>
 </g>
</svg>
