<?xml version="1.0" encoding="UTF-8"?>
<!--Generator: Apple Native CoreSVG 232.5-->
<!DOCTYPE svg
PUBLIC "-//W3C//DTD SVG 1.1//EN"
       "http://www.w3.org/Graphics/SVG/1.1/DTD/svg11.dtd">
<svg version="1.1" xmlns="http://www.w3.org/2000/svg" xmlns:xlink="http://www.w3.org/1999/xlink" width="116.162" height="89.9902">
 <g>
  <rect height="89.9902" opacity="0" width="116.162" x="0" y="0"/>
  <path d="M98.584 75.4395C97.168 84.9121 93.3105 89.9902 83.6914 89.9902L32.4219 89.9902C22.8516 89.9902 18.9941 84.9609 17.5781 75.4395L10.5957 28.9551L105.518 28.9551ZM55.2734 39.4531L40.918 52.6367C40.1367 53.3691 39.6484 54.1992 39.6484 55.3711C39.6484 57.4219 41.1133 58.8867 43.2129 58.8867C44.1895 58.8867 45.166 58.4473 45.8984 57.7148L50.3418 53.2227L54.541 48.8281L54.1992 57.0312L54.1992 75.0488C54.1992 77.0996 56.0059 78.8086 58.1055 78.8086C60.2051 78.8086 61.9629 77.0996 61.9629 75.0488L61.9629 57.0312L61.6699 48.8281L65.8691 53.2227L70.3125 57.7148C70.9961 58.4473 71.9727 58.8867 72.998 58.8867C75 58.8867 76.5625 57.4219 76.5625 55.3711C76.5625 54.1992 76.0742 53.3691 75.293 52.6367L60.9375 39.4531C59.8633 38.4766 59.082 38.1348 58.1055 38.1348C57.1289 38.1348 56.3477 38.4766 55.2734 39.4531ZM116.162 8.83789L116.162 13.5742C116.162 19.043 113.379 22.3145 107.861 22.3145L8.30078 22.3145C2.7832 22.3145 0 19.043 0 13.5742L0 8.83789C0 3.36914 3.07617 0.0976562 8.30078 0.0976562L107.861 0.0976562C113.379 0.0976562 116.162 3.36914 116.162 8.83789Z" fill="#000000" fill-opacity="0.85"/>
 </g>
</svg>
