<?xml version="1.0" encoding="UTF-8"?>
<!--Generator: Apple Native CoreSVG 232.5-->
<!DOCTYPE svg
PUBLIC "-//W3C//DTD SVG 1.1//EN"
       "http://www.w3.org/Graphics/SVG/1.1/DTD/svg11.dtd">
<svg version="1.1" xmlns="http://www.w3.org/2000/svg" xmlns:xlink="http://www.w3.org/1999/xlink" width="89.8926" height="89.9902">
 <g>
  <rect height="89.9902" opacity="0" width="89.8926" x="0" y="0"/>
  <path d="M89.8926 15.2344L89.8926 74.8535C89.8926 84.9121 84.8145 89.9902 74.5605 89.9902L15.332 89.9902C5.12695 89.9902 0 84.9609 0 74.8535L0 15.2344C0 5.12695 5.12695 0.0976562 15.332 0.0976562L74.5605 0.0976562C84.8145 0.0976562 89.8926 5.17578 89.8926 15.2344ZM29.6875 25.5371C27.0996 25.5371 25.4883 26.709 25.4883 29.6875L25.4883 53.418C25.4883 55.7617 26.9531 57.4707 29.1504 57.4707C31.3965 57.4707 32.8613 55.9082 32.8613 53.5156L32.8613 44.873L32.1289 37.0117L39.4043 44.7754L57.8125 63.2324C58.5938 63.9648 59.5215 64.4043 60.7422 64.4043C62.9395 64.4043 64.4531 62.9395 64.4531 60.6445C64.4531 59.668 63.9648 58.6426 63.2324 57.9102L44.7266 39.4531L36.8652 32.1289L44.3359 32.9102L53.418 32.9102C55.8594 32.9102 57.4219 31.4453 57.4219 29.248C57.4219 27.002 55.9082 25.5371 53.5156 25.5371Z" fill="#000000" fill-opacity="0.85"/>
 </g>
</svg>
