<?xml version="1.0" encoding="UTF-8"?>
<!--Generator: Apple Native CoreSVG 232.5-->
<!DOCTYPE svg
PUBLIC "-//W3C//DTD SVG 1.1//EN"
       "http://www.w3.org/Graphics/SVG/1.1/DTD/svg11.dtd">
<svg version="1.1" xmlns="http://www.w3.org/2000/svg" xmlns:xlink="http://www.w3.org/1999/xlink" width="124.718" height="104.736">
 <g>
  <rect height="104.736" opacity="0" width="124.718" x="0" y="0"/>
  <path d="M42.5836 89.4043C42.5836 99.6094 47.6617 104.688 57.7203 104.688L109.576 104.688C119.683 104.688 124.713 99.6094 124.713 89.4043L124.713 15.332C124.713 5.17578 119.683 0 109.576 0L57.7203 0C47.6617 0 42.5836 5.17578 42.5836 15.332ZM50.4449 89.2578L50.4449 15.4785C50.4449 10.5957 53.0817 7.86133 58.1598 7.86133L109.185 7.86133C114.263 7.86133 116.851 10.5957 116.851 15.4785L116.851 89.2578C116.851 94.1406 114.263 96.8262 109.185 96.8262L58.1598 96.8262C53.0817 96.8262 50.4449 94.1406 50.4449 89.2578Z" fill="#000000" fill-opacity="0.85"/>
  <path d="M61.3336 77.0996L105.963 77.0996C107.916 77.0996 108.843 75.8301 108.843 74.0234C108.843 68.7012 100.787 54.834 83.6481 54.834C66.5094 54.834 58.4527 68.7012 58.4527 74.0234C58.4527 75.8301 59.4293 77.0996 61.3336 77.0996ZM83.6481 50.8301C90.6305 50.8789 96.1969 44.9707 96.1969 37.1582C96.1969 29.834 90.6305 23.7305 83.6481 23.7305C76.7145 23.7305 71.1481 29.834 71.1481 37.1582C71.1481 44.9707 76.7145 50.7812 83.6481 50.8301Z" fill="#000000" fill-opacity="0.85"/>
  <path d="M1.17736 44.0918C-1.26405 46.8262 0.298453 50.5371 3.96056 50.5371L12.2613 50.5371L12.2613 71.9238C12.2613 74.0723 13.9215 75.7324 16.1188 75.7324C18.2184 75.7324 19.8785 74.0723 19.8785 71.9238L19.8785 50.5371L28.0817 50.5371C31.9391 50.5371 33.2574 46.6797 30.9137 44.0918L18.8043 30.4199C17.193 28.5645 14.8981 28.5645 13.2379 30.4199Z" fill="#000000" fill-opacity="0.85"/>
 </g>
</svg>
