<?xml version="1.0" encoding="UTF-8"?>
<!--Generator: Apple Native CoreSVG 232.5-->
<!DOCTYPE svg
PUBLIC "-//W3C//DTD SVG 1.1//EN"
       "http://www.w3.org/Graphics/SVG/1.1/DTD/svg11.dtd">
<svg version="1.1" xmlns="http://www.w3.org/2000/svg" xmlns:xlink="http://www.w3.org/1999/xlink" width="99.6094" height="99.6582">
 <g>
  <rect height="99.6582" opacity="0" width="99.6094" x="0" y="0"/>
  <path d="M49.8047 99.6094C77.0508 99.6094 99.6094 77.002 99.6094 49.8047C99.6094 22.5586 77.002 0 49.7559 0C22.5586 0 0 22.5586 0 49.8047C0 77.002 22.6074 99.6094 49.8047 99.6094ZM49.8047 91.3086C26.7578 91.3086 8.34961 72.8516 8.34961 49.8047C8.34961 26.7578 26.709 8.30078 49.7559 8.30078C72.8027 8.30078 91.3086 26.7578 91.3086 49.8047C91.3086 72.8516 72.8516 91.3086 49.8047 91.3086Z" fill="#000000" fill-opacity="0.85"/>
  <path d="M38.6719 69.873C40.4297 69.873 41.6504 68.75 41.6504 67.6758L41.6504 66.4062L25.5859 51.6602C24.0234 50.1953 23.1934 48.3887 23.1934 46.4844C23.1934 44.5801 23.9746 42.8223 25.5859 41.3574L41.6504 26.6602L41.6504 25.4395C41.6504 24.2188 40.4297 23.1445 38.623 23.1445C37.4023 23.1445 36.5723 23.6328 35.2539 24.9023L15.0879 43.7988C14.1113 44.7266 13.8184 45.6055 13.8184 46.4844C13.8184 47.3633 14.1113 48.291 15.0879 49.2188L35.2539 68.1641C36.5234 69.3359 37.4512 69.873 38.6719 69.873ZM51.5625 69.873C53.2227 69.873 54.4922 68.6035 54.4922 66.8457L54.4922 57.0801L55.2734 57.0801C65.1855 57.0801 71.582 59.6191 75.8789 67.9688C76.709 69.5312 77.8809 69.873 79.0039 69.873C80.4199 69.873 81.5918 68.6523 81.5918 66.5039C81.5918 47.5586 73.4863 35.9863 55.2734 35.9863L54.4922 35.9863L54.4922 26.2695C54.4922 24.5605 53.2227 23.1445 51.5137 23.1445C50.293 23.1445 49.4629 23.6816 48.1445 24.9023L28.0273 43.7988C27.002 44.7754 26.6602 45.6055 26.6602 46.4844C26.6602 47.3633 27.002 48.2422 28.0273 49.2188L48.1445 68.1641C49.3652 69.3359 50.3906 69.873 51.5625 69.873Z" fill="#000000" fill-opacity="0.85"/>
 </g>
</svg>
