<?xml version="1.0" encoding="UTF-8"?>
<!--Generator: Apple Native CoreSVG 232.5-->
<!DOCTYPE svg
PUBLIC "-//W3C//DTD SVG 1.1//EN"
       "http://www.w3.org/Graphics/SVG/1.1/DTD/svg11.dtd">
<svg version="1.1" xmlns="http://www.w3.org/2000/svg" xmlns:xlink="http://www.w3.org/1999/xlink" width="89.8926" height="89.9902">
 <g>
  <rect height="89.9902" opacity="0" width="89.8926" x="0" y="0"/>
  <path d="M15.332 89.9902L74.5605 89.9902C84.8145 89.9902 89.8926 84.9121 89.8926 74.8535L89.8926 15.2344C89.8926 5.17578 84.8145 0.0976562 74.5605 0.0976562L15.332 0.0976562C5.12695 0.0976562 0 5.12695 0 15.2344L0 74.8535C0 84.9609 5.12695 89.9902 15.332 89.9902ZM15.4297 82.1289C10.5469 82.1289 7.86133 79.541 7.86133 74.4629L7.86133 15.625C7.86133 10.5469 10.5469 7.95898 15.4297 7.95898L74.4629 7.95898C79.2969 7.95898 82.0312 10.5469 82.0312 15.625L82.0312 74.4629C82.0312 79.541 79.2969 82.1289 74.4629 82.1289Z" fill="#000000" fill-opacity="0.85"/>
  <path d="M60.2539 57.0801C62.4023 57.0801 63.8672 55.4199 63.8672 53.1738L63.8672 30.127C63.8672 27.2461 62.2559 26.123 59.7656 26.123L36.6211 26.123C34.3262 26.123 32.8613 27.5391 32.8613 29.6875C32.8613 31.8359 34.375 33.252 36.7188 33.252L45.6055 33.252L52.832 32.4707L45.2148 39.5508L27.1973 57.5684C26.5137 58.252 26.0742 59.2285 26.0742 60.2051C26.0742 62.4023 27.4902 63.8184 29.6387 63.8184C30.8105 63.8184 31.7383 63.3789 32.4219 62.6953L50.3906 44.7266L57.4219 37.207L56.6895 44.8242L56.6895 53.2715C56.6895 55.5664 58.1055 57.0801 60.2539 57.0801Z" fill="#000000" fill-opacity="0.85"/>
 </g>
</svg>
