<?xml version="1.0" encoding="UTF-8"?>
<!--Generator: Apple Native CoreSVG 232.5-->
<!DOCTYPE svg
PUBLIC "-//W3C//DTD SVG 1.1//EN"
       "http://www.w3.org/Graphics/SVG/1.1/DTD/svg11.dtd">
<svg version="1.1" xmlns="http://www.w3.org/2000/svg" xmlns:xlink="http://www.w3.org/1999/xlink" width="90.6738" height="74.0723">
 <g>
  <rect height="74.0723" opacity="0" width="90.6738" x="0" y="0"/>
  <path d="M90.6738 37.0117C90.6738 35.791 90.1855 34.668 89.209 33.7402L56.8359 1.46484C55.7617 0.390625 54.7363 0 53.5645 0C51.1719 0 49.3164 1.75781 49.3164 4.19922C49.3164 5.37109 49.707 6.49414 50.4883 7.27539L61.4258 18.4082L80.8105 36.084L81.7871 33.6426L66.0645 32.666L4.29688 32.666C1.75781 32.666 0 34.4727 0 37.0117C0 39.5508 1.75781 41.3574 4.29688 41.3574L66.0645 41.3574L81.7871 40.3809L80.8105 37.9883L61.4258 55.6152L50.4883 66.748C49.707 67.4805 49.3164 68.6523 49.3164 69.8242C49.3164 72.2656 51.1719 74.0234 53.5645 74.0234C54.7363 74.0234 55.7617 73.584 56.7383 72.6562L89.209 40.2832C90.1855 39.3555 90.6738 38.2324 90.6738 37.0117Z" fill="#000000" fill-opacity="0.85"/>
 </g>
</svg>
