<?xml version="1.0" encoding="UTF-8"?>
<!--Generator: Apple Native CoreSVG 232.5-->
<!DOCTYPE svg
PUBLIC "-//W3C//DTD SVG 1.1//EN"
       "http://www.w3.org/Graphics/SVG/1.1/DTD/svg11.dtd">
<svg version="1.1" xmlns="http://www.w3.org/2000/svg" xmlns:xlink="http://www.w3.org/1999/xlink" width="99.6094" height="99.6582">
 <g>
  <rect height="99.6582" opacity="0" width="99.6094" x="0" y="0"/>
  <path d="M49.8047 99.6094C77.0508 99.6094 99.6094 77.002 99.6094 49.8047C99.6094 22.5586 77.002 0 49.7559 0C22.5586 0 0 22.5586 0 49.8047C0 77.002 22.6074 99.6094 49.8047 99.6094ZM49.8047 91.3086C26.7578 91.3086 8.34961 72.8516 8.34961 49.8047C8.34961 26.7578 26.709 8.30078 49.7559 8.30078C72.8027 8.30078 91.3086 26.7578 91.3086 49.8047C91.3086 72.8516 72.8516 91.3086 49.8047 91.3086Z" fill="#000000" fill-opacity="0.85"/>
  <path d="M75 55.7617C75 44.043 66.5039 36.9141 55.127 36.9141L40.5273 36.9141L34.7656 37.0605L38.623 34.0332L43.6523 29.1504C44.3359 28.5645 44.7754 27.6367 44.7754 26.6113C44.7754 24.6094 43.2617 23.0957 41.2598 23.0957C40.2344 23.0957 39.4531 23.3887 38.7695 24.1211L25.7812 37.3047C25 38.1348 24.4629 39.1602 24.4629 40.2832C24.4629 41.4551 25 42.4316 25.7812 43.2617L38.8184 56.543C39.502 57.2266 40.2832 57.5684 41.3086 57.5684C43.2617 57.5684 44.7754 56.0547 44.7754 54.0039C44.7754 53.125 44.4336 52.1484 43.7012 51.5137L37.5977 45.6543L34.7656 43.5059L40.5273 43.75L55.127 43.75C62.3047 43.75 67.8223 47.8516 67.8223 55.3711C67.8223 63.0859 62.4512 67.8223 55.0781 67.8223C54.4922 67.8223 48.4863 67.8223 48.291 67.8223C46.1914 67.8223 44.5801 69.043 44.5801 71.3379C44.5801 73.584 46.1914 74.8047 48.3887 74.8047C48.6328 74.8047 54.4922 74.8047 55.0781 74.8047C66.4551 74.8047 75 67.4805 75 55.7617Z" fill="#000000" fill-opacity="0.85"/>
 </g>
</svg>
