<?xml version="1.0" encoding="UTF-8"?>
<!--Generator: Apple Native CoreSVG 232.5-->
<!DOCTYPE svg
PUBLIC "-//W3C//DTD SVG 1.1//EN"
       "http://www.w3.org/Graphics/SVG/1.1/DTD/svg11.dtd">
<svg version="1.1" xmlns="http://www.w3.org/2000/svg" xmlns:xlink="http://www.w3.org/1999/xlink" width="99.6094" height="99.6582">
 <g>
  <rect height="99.6582" opacity="0" width="99.6094" x="0" y="0"/>
  <path d="M49.8047 99.6094C77.0508 99.6094 99.6094 77.002 99.6094 49.8047C99.6094 22.5586 77.002 0 49.7559 0C22.5586 0 0 22.5586 0 49.8047C0 77.002 22.6074 99.6094 49.8047 99.6094ZM49.8047 91.3086C26.7578 91.3086 8.34961 72.8516 8.34961 49.8047C8.34961 26.7578 26.709 8.30078 49.7559 8.30078C72.8027 8.30078 91.3086 26.7578 91.3086 49.8047C91.3086 72.8516 72.8516 91.3086 49.8047 91.3086Z" fill="#000000" fill-opacity="0.85"/>
  <path d="M78.5645 49.8047C78.5645 48.9258 78.2227 47.9004 77.2461 46.9238L56.2012 27.3438C54.834 26.0254 53.9551 25.4883 52.6855 25.4883C50.8301 25.4883 49.5117 26.9043 49.5117 28.6621L49.5117 39.3555L27.4414 39.3555C23.584 39.3555 21.3379 41.5039 21.3379 45.3125L21.3379 54.3457C21.3379 58.1055 23.584 60.2539 27.4414 60.2539L49.5117 60.2539L49.5117 71.0449C49.5117 72.8516 50.8301 74.1211 52.5879 74.1211C53.9062 74.1211 54.9805 73.584 56.2012 72.4609L77.2461 52.6367C78.2227 51.6602 78.5645 50.6348 78.5645 49.8047Z" fill="#000000" fill-opacity="0.85"/>
 </g>
</svg>
