<?xml version="1.0" encoding="UTF-8"?>
<!--Generator: Apple Native CoreSVG 232.5-->
<!DOCTYPE svg
PUBLIC "-//W3C//DTD SVG 1.1//EN"
       "http://www.w3.org/Graphics/SVG/1.1/DTD/svg11.dtd">
<svg version="1.1" xmlns="http://www.w3.org/2000/svg" xmlns:xlink="http://www.w3.org/1999/xlink" width="110.742" height="102.295">
 <g>
  <rect height="102.295" opacity="0" width="110.742" x="0" y="0"/>
  <path d="M21.1914 102.295C27.7832 102.295 41.2598 95.6543 51.1719 88.5742C85.2051 89.502 110.742 69.9707 110.742 44.3848C110.742 19.8242 86.1328 0 55.3711 0C24.6094 0 0 19.8242 0 44.3848C0 60.4004 10.2539 74.6094 25.6836 81.7383C23.4863 85.9863 19.3848 91.748 17.1875 94.6289C14.5996 98.0469 16.1621 102.295 21.1914 102.295ZM26.3184 94.1895C25.9277 94.3359 25.7812 94.043 26.0254 93.7012C28.7598 90.332 32.666 85.2539 34.3262 82.1289C35.6934 79.5898 35.3516 77.3438 32.2266 75.8789C16.8945 68.75 8.10547 57.373 8.10547 44.3848C8.10547 24.3652 29.0527 8.05664 55.3711 8.05664C81.7383 8.05664 102.686 24.3652 102.686 44.3848C102.686 64.3555 81.7383 80.6641 55.3711 80.6641C54.3945 80.6641 52.8809 80.6152 50.9277 80.5664C48.877 80.5664 47.3145 81.2012 45.459 82.666C39.4531 87.0117 30.7617 92.3828 26.3184 94.1895Z" fill="#000000" fill-opacity="0.85"/>
  <path d="M55.4199 19.9707C53.3203 19.9707 51.7578 21.5332 51.7578 23.6328L51.7578 48.0957L52.1484 58.3496L47.2656 52.4902L41.4551 46.6797C40.8203 45.9961 39.8926 45.6055 38.8672 45.6055C36.8652 45.6055 35.3516 47.1191 35.3516 49.1211C35.3516 50.0977 35.6445 50.9766 36.2793 51.6113L52.5879 67.8711C53.5645 68.8477 54.3945 69.2383 55.4199 69.2383C56.543 69.2383 57.373 68.7988 58.3008 67.8711L74.5605 51.6113C75.1953 50.9766 75.5859 50.0977 75.5859 49.1211C75.5859 47.1191 74.0234 45.6055 72.0215 45.6055C70.9473 45.6055 70.0684 45.9473 69.4336 46.6797L63.6719 52.4902L58.6914 58.4473L59.082 48.0957L59.082 23.6328C59.082 21.5332 57.5684 19.9707 55.4199 19.9707Z" fill="#000000" fill-opacity="0.85"/>
 </g>
</svg>
