<?xml version="1.0" encoding="UTF-8"?>
<!--Generator: Apple Native CoreSVG 232.5-->
<!DOCTYPE svg
PUBLIC "-//W3C//DTD SVG 1.1//EN"
       "http://www.w3.org/Graphics/SVG/1.1/DTD/svg11.dtd">
<svg version="1.1" xmlns="http://www.w3.org/2000/svg" xmlns:xlink="http://www.w3.org/1999/xlink" width="99.6094" height="99.6582">
 <g>
  <rect height="99.6582" opacity="0" width="99.6094" x="0" y="0"/>
  <path d="M99.6094 49.8047C99.6094 77.002 77.0508 99.6094 49.8047 99.6094C22.6074 99.6094 0 77.002 0 49.8047C0 22.5586 22.5586 0 49.7559 0C77.002 0 99.6094 22.5586 99.6094 49.8047ZM46.0449 27.9785L46.0449 53.0273L46.4844 63.7207L41.4551 57.666L35.498 51.6602C34.8145 50.9277 33.8379 50.5371 32.8125 50.5371C30.7129 50.5371 29.1504 52.0996 29.1504 54.1992C29.1504 55.2734 29.4434 56.1523 30.127 56.8359L46.9238 73.5352C47.9492 74.5605 48.7793 75 49.8535 75C50.9766 75 51.8555 74.5117 52.832 73.5352L69.5801 56.8359C70.2637 56.1523 70.6543 55.2734 70.6543 54.1992C70.6543 52.0996 69.043 50.5371 66.9434 50.5371C65.8691 50.5371 64.9414 50.8789 64.2578 51.6602L58.3496 57.666L53.2227 63.7695L53.6621 53.0273L53.6621 27.9785C53.6621 25.7324 52.0996 24.1699 49.8535 24.1699C47.6562 24.1699 46.0449 25.7324 46.0449 27.9785Z" fill="#000000" fill-opacity="0.85"/>
 </g>
</svg>
