<?xml version="1.0" encoding="UTF-8"?>
<!--Generator: Apple Native CoreSVG 232.5-->
<!DOCTYPE svg
PUBLIC "-//W3C//DTD SVG 1.1//EN"
       "http://www.w3.org/Graphics/SVG/1.1/DTD/svg11.dtd">
<svg version="1.1" xmlns="http://www.w3.org/2000/svg" xmlns:xlink="http://www.w3.org/1999/xlink" width="99.6094" height="99.6582">
 <g>
  <rect height="99.6582" opacity="0" width="99.6094" x="0" y="0"/>
  <path d="M99.6094 49.8535C99.6094 77.0996 77.0508 99.6582 49.8047 99.6582C22.6074 99.6582 0 77.0996 0 49.8535C0 22.6562 22.5586 0.0488281 49.7559 0.0488281C77.002 0.0488281 99.6094 22.6562 99.6094 49.8535ZM45.752 24.2676C45.752 25.1465 46.1426 26.0254 46.6797 26.6113L50.1953 30.2246C49.8047 30.1758 49.2676 30.127 48.8281 30.127C37.5 30.127 27.3438 39.7949 27.3438 52.1484C27.3438 64.7461 37.3535 74.8535 49.8047 74.8535C62.2559 74.8535 72.2656 64.7461 72.2656 52.3438C72.2656 50.4395 70.6543 48.877 68.7988 48.877C66.8945 48.877 65.2832 50.4395 65.2832 52.3438C65.2832 60.9863 58.3984 67.9199 49.8047 67.9199C41.2109 67.9199 34.3262 60.9863 34.3262 52.3438C34.3262 43.75 41.2109 36.8164 49.8047 36.8164C50.4395 36.8164 51.123 36.8652 51.6113 36.9629L46.7285 41.7969C46.1426 42.3828 45.752 43.2129 45.752 44.0918C45.752 45.8984 47.168 47.3145 48.9746 47.3145C49.8047 47.3145 50.6348 46.875 51.1719 46.3379L60.9375 36.5723C62.207 35.3516 62.1094 33.1543 60.9375 31.8848L51.2695 22.0703C50.7324 21.4355 49.8535 21.0449 48.9746 21.0449C47.1191 21.0449 45.752 22.4609 45.752 24.2676Z" fill="#000000" fill-opacity="0.85"/>
 </g>
</svg>
