<?xml version="1.0" encoding="UTF-8"?>
<!--Generator: Apple Native CoreSVG 232.5-->
<!DOCTYPE svg
PUBLIC "-//W3C//DTD SVG 1.1//EN"
       "http://www.w3.org/Graphics/SVG/1.1/DTD/svg11.dtd">
<svg version="1.1" xmlns="http://www.w3.org/2000/svg" xmlns:xlink="http://www.w3.org/1999/xlink" width="110.755" height="110.804">
 <g>
  <rect height="110.804" opacity="0" width="110.755" x="0" y="0"/>
  <path d="M66.2174 5.47524L105.28 44.5377C112.506 51.7643 112.555 58.942 105.426 66.0709L66.1198 105.426C58.942 112.555 51.8131 112.506 44.5866 105.28L5.47524 66.1686C-1.75132 58.942-1.84898 51.8131 5.32876 44.6354L44.6842 5.32876C51.862-1.84898 58.9909-1.75132 66.2174 5.47524ZM61.8717 35.944L61.8717 42.3893L48.0045 42.3893C38.1901 42.3893 33.5514 47.0768 33.5514 56.8424L33.5514 69.6842C33.5514 72.5651 34.9674 74.2741 37.6041 74.2252C40.1432 74.1764 41.6569 72.5651 41.6569 69.6842L41.6569 57.2331C41.6569 52.692 43.8053 50.5436 48.1022 50.5436L61.8717 50.5436L61.8717 57.0377C61.8717 60.3092 65.2409 61.7252 67.8288 59.7233L79.7428 50.4459C82.8678 47.9557 82.8678 44.9772 79.7428 42.487L67.8288 33.2584C65.2409 31.2565 61.8717 32.6725 61.8717 35.944Z" fill="#000000" fill-opacity="0.85"/>
 </g>
</svg>
