<?xml version="1.0" encoding="UTF-8"?>
<!--Generator: Apple Native CoreSVG 232.5-->
<!DOCTYPE svg
PUBLIC "-//W3C//DTD SVG 1.1//EN"
       "http://www.w3.org/Graphics/SVG/1.1/DTD/svg11.dtd">
<svg version="1.1" xmlns="http://www.w3.org/2000/svg" xmlns:xlink="http://www.w3.org/1999/xlink" width="89.8926" height="90.0879">
 <g>
  <rect height="90.0879" opacity="0" width="89.8926" x="0" y="0"/>
  <path d="M15.332 89.8926L74.5605 89.8926C84.8145 89.8926 89.8926 84.8145 89.8926 74.7559L89.8926 15.1367C89.8926 5.07812 84.8145 0 74.5605 0L15.332 0C5.12695 0 0 5.0293 0 15.1367L0 74.7559C0 84.8633 5.12695 89.8926 15.332 89.8926ZM15.4297 82.0312C10.5469 82.0312 7.86133 79.4434 7.86133 74.3652L7.86133 15.5273C7.86133 10.498 10.5469 7.86133 15.4297 7.86133L74.4629 7.86133C79.2969 7.86133 82.0312 10.498 82.0312 15.5273L82.0312 74.3652C82.0312 79.4434 79.2969 82.0312 74.4629 82.0312Z" fill="#000000" fill-opacity="0.85"/>
  <path d="M38.1836 70.0195C49.9023 70.0195 57.0312 61.5723 57.0312 50.1953L57.0312 35.5957L56.8359 29.834L59.8633 33.6914L64.7949 38.7207C65.3809 39.4043 66.2598 39.8438 67.2852 39.8438C69.3359 39.8438 70.8496 38.3301 70.8496 36.3281C70.8496 35.3027 70.5078 34.5215 69.7754 33.8379L56.5918 20.8496C55.8105 20.0195 54.7852 19.5312 53.6133 19.5312C52.4902 19.5312 51.4648 20.0195 50.6836 20.8496L37.3535 33.8867C36.6699 34.5703 36.3281 35.3516 36.3281 36.377C36.3281 38.3301 37.8906 39.8438 39.8926 39.8438C40.8203 39.8438 41.748 39.502 42.4316 38.7695L48.291 32.666L50.3906 29.834L50.1953 35.5957L50.1953 50.1953C50.1953 57.373 46.0449 62.8418 38.5742 62.8418C30.8594 62.8418 26.0742 57.5195 26.0742 50.1465C26.0742 49.5605 26.0742 43.5547 26.0742 43.3594C26.0742 41.2598 24.8535 39.6484 22.6074 39.6484C20.3613 39.6484 19.0918 41.2598 19.0918 43.457C19.0918 43.7012 19.0918 49.5605 19.0918 50.1465C19.0918 61.5234 26.416 70.0195 38.1836 70.0195Z" fill="#000000" fill-opacity="0.85"/>
 </g>
</svg>
