<?xml version="1.0" encoding="UTF-8"?>
<!--Generator: Apple Native CoreSVG 232.5-->
<!DOCTYPE svg
PUBLIC "-//W3C//DTD SVG 1.1//EN"
       "http://www.w3.org/Graphics/SVG/1.1/DTD/svg11.dtd">
<svg version="1.1" xmlns="http://www.w3.org/2000/svg" xmlns:xlink="http://www.w3.org/1999/xlink" width="89.8926" height="89.9902">
 <g>
  <rect height="89.9902" opacity="0" width="89.8926" x="0" y="0"/>
  <path d="M15.332 89.9902L74.5605 89.9902C84.8145 89.9902 89.8926 84.9121 89.8926 74.8535L89.8926 15.2344C89.8926 5.17578 84.8145 0.0976562 74.5605 0.0976562L15.332 0.0976562C5.12695 0.0976562 0 5.12695 0 15.2344L0 74.8535C0 84.9609 5.12695 89.9902 15.332 89.9902ZM15.4297 82.1289C10.5469 82.1289 7.86133 79.541 7.86133 74.4629L7.86133 15.625C7.86133 10.5469 10.5469 7.95898 15.4297 7.95898L74.4629 7.95898C79.2969 7.95898 82.0312 10.5469 82.0312 15.625L82.0312 74.4629C82.0312 79.541 79.2969 82.1289 74.4629 82.1289Z" fill="#000000" fill-opacity="0.85"/>
  <path d="M75.293 45.0195C75.293 43.8965 74.8535 43.0664 73.9258 42.1387L59.8145 28.0273C59.1797 27.3438 58.3008 27.002 57.2754 27.002C55.2734 27.002 53.7598 28.5645 53.7598 30.5664C53.7598 31.5918 54.1504 32.5195 54.834 33.1543L58.5449 36.7676L64.502 41.748L54.1504 41.3574L35.791 41.3574L25.4395 41.748L31.3477 36.7676L35.0586 33.1543C35.7422 32.5195 36.1328 31.5918 36.1328 30.5664C36.1328 28.5645 34.6191 27.002 32.6172 27.002C31.5918 27.002 30.7129 27.3438 30.0781 28.0273L15.9668 42.1387C15.0391 43.0664 14.5996 43.8965 14.5996 45.0195C14.5996 46.0449 15.0391 46.8262 15.9668 47.8027L30.0781 62.0117C30.7129 62.6465 31.5918 62.9883 32.6172 62.9883C34.6191 62.9883 36.1328 61.4258 36.1328 59.4727C36.1328 58.3984 35.6934 57.5195 35.0586 56.8359L31.3477 53.1738L25.4883 48.291L35.791 48.6328L54.1504 48.6328L64.4531 48.291L58.5449 53.1738L54.834 56.8359C54.1992 57.5195 53.7598 58.3984 53.7598 59.4727C53.7598 61.4258 55.2734 62.9883 57.2754 62.9883C58.3008 62.9883 59.1797 62.6465 59.8145 62.0117L73.9258 47.8027C74.8535 46.8262 75.293 46.0449 75.293 45.0195Z" fill="#000000" fill-opacity="0.85"/>
 </g>
</svg>
