<?xml version="1.0" encoding="UTF-8"?>
<!--Generator: Apple Native CoreSVG 232.5-->
<!DOCTYPE svg
PUBLIC "-//W3C//DTD SVG 1.1//EN"
       "http://www.w3.org/Graphics/SVG/1.1/DTD/svg11.dtd">
<svg version="1.1" xmlns="http://www.w3.org/2000/svg" xmlns:xlink="http://www.w3.org/1999/xlink" width="94.2387" height="115.381">
 <g>
  <rect height="115.381" opacity="0" width="94.2387" x="0" y="0"/>
  <path d="M92.7737 89.4043C94.7268 87.5 94.678 84.668 92.7737 82.8125L67.6272 58.2031C66.7483 57.373 65.4787 56.8359 64.3557 56.8359C61.7678 56.8359 60.0588 58.5938 60.0588 61.1328C60.0588 62.4023 60.4494 63.3789 61.2795 64.1602L71.8264 74.3652L80.9084 82.2266L69.6291 81.7383L4.39476 81.7383C1.8557 81.7383 0.00022881 83.5449 0.00022881 86.084C0.00022881 88.6719 1.8557 90.4785 4.39476 90.4785L69.6291 90.4785L80.9084 89.9902L71.8264 97.8516L61.2795 108.008C60.4494 108.838 60.0588 109.814 60.0588 111.084C60.0588 113.623 61.7678 115.381 64.3557 115.381C65.4787 115.381 66.7483 114.844 67.6272 114.014Z" fill="#000000" fill-opacity="0.85"/>
  <path d="M1.46507 26.0254C-0.536881 27.9297-0.439224 30.7617 1.46507 32.5684L26.6116 57.1777C27.4905 58.0566 28.76 58.5938 29.8342 58.5938C32.4221 58.5938 34.1799 56.7871 34.1799 54.248C34.1799 53.0273 33.7405 52.0508 32.9104 51.2207L22.4123 41.0645L13.3303 33.2031L24.6096 33.6914L89.844 33.6914C92.383 33.6914 94.1897 31.8848 94.1897 29.2969C94.1897 26.7578 92.383 24.9512 89.844 24.9512L24.6096 24.9512L13.3303 25.3906L22.4123 17.5781L32.9104 7.37305C33.7405 6.54297 34.1799 5.61523 34.1799 4.3457C34.1799 1.80664 32.4221 0.0488281 29.8342 0.0488281C28.76 0.0488281 27.4905 0.537109 26.6116 1.41602Z" fill="#000000" fill-opacity="0.85"/>
 </g>
</svg>
