<?xml version="1.0" encoding="UTF-8"?>
<!--Generator: Apple Native CoreSVG 232.5-->
<!DOCTYPE svg
PUBLIC "-//W3C//DTD SVG 1.1//EN"
       "http://www.w3.org/Graphics/SVG/1.1/DTD/svg11.dtd">
<svg version="1.1" xmlns="http://www.w3.org/2000/svg" xmlns:xlink="http://www.w3.org/1999/xlink" width="99.6094" height="99.6582">
 <g>
  <rect height="99.6582" opacity="0" width="99.6094" x="0" y="0"/>
  <path d="M49.8047 99.6094C77.0508 99.6094 99.6094 77.002 99.6094 49.8047C99.6094 22.5586 77.002 0 49.7559 0C22.5586 0 0 22.5586 0 49.8047C0 77.002 22.6074 99.6094 49.8047 99.6094ZM49.8047 91.3086C26.7578 91.3086 8.34961 72.8516 8.34961 49.8047C8.34961 26.7578 26.709 8.30078 49.7559 8.30078C72.8027 8.30078 91.3086 26.7578 91.3086 49.8047C91.3086 72.8516 72.8516 91.3086 49.8047 91.3086Z" fill="#000000" fill-opacity="0.85"/>
  <path d="M71.5332 52.0508C71.5332 40.0391 61.6699 30.6152 50.6836 30.6152C50.2441 30.6152 49.707 30.7129 49.3652 30.7129L52.832 27.1973C53.3203 26.6602 53.6621 25.8301 53.6621 25C53.6621 23.2422 52.3438 21.875 50.5859 21.875C49.707 21.875 48.9258 22.2656 48.3398 22.8516L38.9648 32.373C37.8418 33.5449 37.793 35.7422 38.9648 36.9141L48.4375 46.3867C48.9746 46.875 49.8047 47.2656 50.5859 47.2656C52.3438 47.2656 53.6621 45.9473 53.6621 44.2383C53.6621 43.3105 53.3203 42.5781 52.7344 41.9434L47.998 37.3047C48.4863 37.207 49.1211 37.1582 49.7559 37.1582C58.1543 37.1582 64.7949 43.8477 64.7949 52.1973C64.7949 60.5957 58.1543 67.2852 49.7559 67.2852C41.4062 67.2852 34.7168 60.5469 34.7168 52.1973C34.7168 50.3906 33.2031 48.877 31.3477 48.877C29.541 48.877 27.9785 50.3906 27.9785 52.1973C27.9785 64.2578 37.6953 74.0234 49.7559 74.0234C61.8164 74.0234 71.5332 64.2578 71.5332 52.0508Z" fill="#000000" fill-opacity="0.85"/>
 </g>
</svg>
