<?xml version="1.0" encoding="UTF-8"?>
<!--Generator: Apple Native CoreSVG 232.5-->
<!DOCTYPE svg
PUBLIC "-//W3C//DTD SVG 1.1//EN"
       "http://www.w3.org/Graphics/SVG/1.1/DTD/svg11.dtd">
<svg version="1.1" xmlns="http://www.w3.org/2000/svg" xmlns:xlink="http://www.w3.org/1999/xlink" width="89.8926" height="89.9902">
 <g>
  <rect height="89.9902" opacity="0" width="89.8926" x="0" y="0"/>
  <path d="M89.8926 15.2344L89.8926 74.8535C89.8926 84.9121 84.8145 89.9902 74.5605 89.9902L15.332 89.9902C5.12695 89.9902 0 84.9609 0 74.8535L0 15.2344C0 5.12695 5.12695 0.0976562 15.332 0.0976562L74.5605 0.0976562C84.8145 0.0976562 89.8926 5.17578 89.8926 15.2344ZM37.5488 24.9023L20.5566 41.9922C19.5312 43.0176 19.1406 43.7988 19.1406 44.9219C19.1406 46.0449 19.6289 46.9238 20.5566 47.8516L37.5488 64.8926C38.2324 65.5762 39.1602 65.9668 40.1855 65.9668C42.334 65.9668 43.8477 64.3555 43.8477 62.2559C43.8477 61.1816 43.457 60.2539 42.7246 59.5703L36.4746 53.3691L30.3711 48.291L41.0645 48.6816L67.1875 48.6816C69.4336 48.6816 70.9961 47.1191 70.9961 44.9219C70.9961 42.6758 69.3848 41.1133 67.1875 41.1133L41.0645 41.1133L30.4199 41.5527L36.4746 36.4746L42.7246 30.2734C43.4082 29.541 43.8477 28.6133 43.8477 27.5391C43.8477 25.4395 42.334 23.877 40.1855 23.877C39.1602 23.877 38.2324 24.2188 37.5488 24.9023Z" fill="#000000" fill-opacity="0.85"/>
 </g>
</svg>
