<?xml version="1.0" encoding="UTF-8"?>
<!--Generator: Apple Native CoreSVG 232.5-->
<!DOCTYPE svg
PUBLIC "-//W3C//DTD SVG 1.1//EN"
       "http://www.w3.org/Graphics/SVG/1.1/DTD/svg11.dtd">
<svg version="1.1" xmlns="http://www.w3.org/2000/svg" xmlns:xlink="http://www.w3.org/1999/xlink" width="93.0664" height="93.2129">
 <g>
  <rect height="93.2129" opacity="0" width="93.0664" x="0" y="0"/>
  <path d="M88.5254 39.502C91.1621 39.502 93.0664 37.5 93.0664 34.9609L93.0664 7.86133C93.0664 2.88086 90.1367 0 85.1562 0L58.0566 0C55.4688 0 53.4668 1.85547 53.4668 4.49219C53.4668 7.12891 55.4688 8.93555 58.0566 8.93555L62.1582 8.93555L79.248 7.95898L65.6738 20.8008L50.6348 35.8398C49.7559 36.7188 49.2676 37.8906 49.2676 39.209C49.2676 41.9434 51.3672 43.75 54.1016 43.75C55.2734 43.75 56.3965 43.3594 57.2266 42.4805L72.2168 27.3438L85.1074 13.8184L84.082 30.8594L84.082 34.9609C84.082 37.5488 85.9863 39.502 88.5254 39.502ZM34.9609 93.1641C37.5977 93.1641 39.5508 91.3086 39.5508 88.6719C39.5508 86.0352 37.5488 84.2285 34.9609 84.2285L30.9082 84.2285L13.8184 85.2051L27.3438 72.3633L42.4316 57.3242C43.3105 56.4453 43.75 55.2734 43.75 53.9551C43.75 51.2207 41.6992 49.4141 38.916 49.4141C37.7441 49.4141 36.6699 49.8047 35.8398 50.6836L20.8008 65.8203L7.95898 79.3457L8.93555 62.3047L8.93555 58.2031C8.93555 55.6152 7.08008 53.6621 4.49219 53.6621C1.9043 53.6621 0 55.6641 0 58.2031L0 85.3027C0 90.2832 2.88086 93.1641 7.86133 93.1641Z" fill="#000000" fill-opacity="0.85"/>
 </g>
</svg>
