<?xml version="1.0" encoding="UTF-8"?>
<!--Generator: Apple Native CoreSVG 232.5-->
<!DOCTYPE svg
PUBLIC "-//W3C//DTD SVG 1.1//EN"
       "http://www.w3.org/Graphics/SVG/1.1/DTD/svg11.dtd">
<svg version="1.1" xmlns="http://www.w3.org/2000/svg" xmlns:xlink="http://www.w3.org/1999/xlink" width="99.6094" height="99.6582">
 <g>
  <rect height="99.6582" opacity="0" width="99.6094" x="0" y="0"/>
  <path d="M99.6094 49.8047C99.6094 77.002 77.0508 99.6094 49.8047 99.6094C22.6074 99.6094 0 77.002 0 49.8047C0 22.5586 22.5586 0 49.7559 0C77.002 0 99.6094 22.5586 99.6094 49.8047ZM45.6543 28.1738L46.0938 43.75L32.4707 35.0586C31.7383 34.5703 30.8594 34.3262 29.834 34.3262C27.7832 34.3262 25.8301 35.8887 25.8301 38.5254C25.8301 40.1367 26.6113 41.3086 28.2715 42.2363L42.4805 50.0977L28.2715 58.0566C26.6113 58.9844 25.8301 60.0586 25.8301 61.7676C25.8301 64.3555 27.7832 65.9668 29.834 65.9668C30.8594 65.9668 31.7383 65.6738 32.4707 65.1855L46.0938 56.3477L45.6543 71.4355C45.6055 74.1211 47.2168 75.7812 49.9023 75.7812C52.5391 75.7812 54.0039 74.2188 53.9551 71.4355L53.5156 56.3477L67.1387 65.2344C67.8711 65.7227 68.75 66.0156 69.7754 66.0156C71.8262 66.0156 73.7793 64.4043 73.7793 61.8164C73.7793 60.1074 72.998 59.0332 71.3379 58.1055L57.0312 50.0488L71.3379 42.1875C72.998 41.2598 73.7793 40.0879 73.7793 38.4277C73.7793 35.8398 71.8262 34.2285 69.7754 34.2285C68.75 34.2285 67.8711 34.5215 67.1387 35.0098L53.5156 43.75L53.9551 28.1738C54.0039 25.3906 52.5391 23.8281 49.9023 23.8281C47.2168 23.8281 45.6055 25.4883 45.6543 28.1738Z" fill="#000000" fill-opacity="0.85"/>
 </g>
</svg>
