<?xml version="1.0" encoding="UTF-8"?>
<!--Generator: Apple Native CoreSVG 232.5-->
<!DOCTYPE svg
PUBLIC "-//W3C//DTD SVG 1.1//EN"
       "http://www.w3.org/Graphics/SVG/1.1/DTD/svg11.dtd">
<svg version="1.1" xmlns="http://www.w3.org/2000/svg" xmlns:xlink="http://www.w3.org/1999/xlink" width="99.6094" height="99.7559">
 <g>
  <rect height="99.7559" opacity="0" width="99.6094" x="0" y="0"/>
  <path d="M49.8047 99.6094C77.0508 99.6094 99.6094 77.0508 99.6094 49.8047C99.6094 22.6074 77.002 0 49.7559 0C22.5586 0 0 22.6074 0 49.8047C0 77.0508 22.6074 99.6094 49.8047 99.6094ZM49.8047 91.3086C26.7578 91.3086 8.34961 72.8516 8.34961 49.8047C8.34961 26.7578 26.709 8.30078 49.7559 8.30078C72.8027 8.30078 91.3086 26.7578 91.3086 49.8047C91.3086 72.8516 72.8516 91.3086 49.8047 91.3086Z" fill="#000000" fill-opacity="0.85"/>
  <path d="M49.8535 74.9512C52.3926 74.9512 53.8086 73.4375 53.7598 70.8008L53.3203 56.1523L66.5527 64.7461C67.2852 65.1855 68.1152 65.4785 69.0918 65.4785C71.0938 65.4785 72.9492 63.916 72.9492 61.4258C72.9492 59.8145 72.2168 58.7402 70.6055 57.8613L56.7383 50.0977L70.6055 42.3828C72.2168 41.5039 72.9492 40.3809 72.9492 38.8184C72.9492 36.2793 71.0938 34.7168 69.0918 34.7168C68.1152 34.7168 67.2852 35.0098 66.5527 35.498L53.3203 43.9453L53.7598 28.8574C53.8086 26.1719 52.3926 24.6582 49.8535 24.6582C47.2656 24.6582 45.7031 26.2695 45.752 28.8574L46.1914 43.9453L32.959 35.5469C32.2266 35.0586 31.3965 34.8145 30.4199 34.8145C28.418 34.8145 26.5625 36.3281 26.5625 38.8672C26.5625 40.4785 27.2949 41.5527 28.9062 42.4805L42.6758 50.0977L28.9062 57.8125C27.2949 58.6914 26.5625 59.8145 26.5625 61.377C26.5625 63.8672 28.418 65.4297 30.4199 65.4297C31.3965 65.4297 32.2266 65.1367 32.959 64.6973L46.1914 56.1523L45.752 70.8008C45.7031 73.3398 47.2656 74.9512 49.8535 74.9512Z" fill="#000000" fill-opacity="0.85"/>
 </g>
</svg>
