<?xml version="1.0" encoding="UTF-8"?>
<!--Generator: Apple Native CoreSVG 232.5-->
<!DOCTYPE svg
PUBLIC "-//W3C//DTD SVG 1.1//EN"
       "http://www.w3.org/Graphics/SVG/1.1/DTD/svg11.dtd">
<svg version="1.1" xmlns="http://www.w3.org/2000/svg" xmlns:xlink="http://www.w3.org/1999/xlink" width="99.6094" height="99.6582">
 <g>
  <rect height="99.6582" opacity="0" width="99.6094" x="0" y="0"/>
  <path d="M99.6094 49.8047C99.6094 77.002 77.0508 99.6094 49.8047 99.6094C22.6074 99.6094 0 77.002 0 49.8047C0 22.5586 22.5586 0 49.7559 0C77.002 0 99.6094 22.5586 99.6094 49.8047ZM20.3613 49.9023C20.3613 67.9199 32.4219 79.9805 50.4395 79.9805C55.0293 79.9805 59.4727 79.3945 62.3535 78.4668C64.4531 77.7832 65.625 76.4648 65.625 74.7559C65.625 73.0957 64.3555 71.8262 62.6953 71.8262C62.3047 71.8262 61.7188 71.9727 61.1328 72.1191C57.8125 72.9004 55.0781 73.3887 51.3184 73.3887C36.5234 73.3887 27.2949 64.4531 27.2949 50.0488C27.2949 35.7422 36.5723 26.0254 50.293 26.0254C63.7207 26.0254 72.7539 34.4238 72.7539 47.0215C72.7539 54.834 70.2148 59.8145 66.5527 59.8145C64.1602 59.8145 62.9395 58.5449 62.9395 56.1523L62.9395 37.5977C62.9395 35.498 61.6211 34.082 59.5703 34.082C57.7148 34.082 56.4453 35.5957 56.4453 36.8164L56.4453 37.793C54.541 35.6445 51.5137 34.082 48.291 34.082C40.5762 34.082 35.1074 40.6738 35.1074 49.9512C35.1074 59.3262 40.5762 65.9668 48.4375 65.9668C52.1973 65.9668 55.4199 64.209 57.373 61.1328C58.7891 64.1113 61.8652 65.9668 65.8691 65.9668C73.9746 65.9668 79.3457 58.2031 79.3457 46.8262C79.3457 30.6152 67.5293 19.4824 50.3418 19.4824C32.5684 19.4824 20.3613 31.8848 20.3613 49.9023ZM56.7383 49.6582C56.7383 55.5176 53.9062 59.1797 49.6094 59.1797C45.3613 59.1797 42.6758 55.6152 42.6758 49.8047C42.6758 44.043 45.4102 40.4297 49.6582 40.4297C53.9551 40.4297 56.7383 43.9453 56.7383 49.6582Z" fill="#000000" fill-opacity="0.85"/>
 </g>
</svg>
