<?xml version="1.0" encoding="UTF-8"?>
<!--Generator: Apple Native CoreSVG 232.5-->
<!DOCTYPE svg
PUBLIC "-//W3C//DTD SVG 1.1//EN"
       "http://www.w3.org/Graphics/SVG/1.1/DTD/svg11.dtd">
<svg version="1.1" xmlns="http://www.w3.org/2000/svg" xmlns:xlink="http://www.w3.org/1999/xlink" width="99.6094" height="99.6582">
 <g>
  <rect height="99.6582" opacity="0" width="99.6094" x="0" y="0"/>
  <path d="M49.8047 99.6094C77.0508 99.6094 99.6094 77.002 99.6094 49.8047C99.6094 22.5586 77.002 0 49.7559 0C22.5586 0 0 22.5586 0 49.8047C0 77.002 22.6074 99.6094 49.8047 99.6094ZM49.8047 91.3086C26.7578 91.3086 8.34961 72.8516 8.34961 49.8047C8.34961 26.7578 26.709 8.30078 49.7559 8.30078C72.8027 8.30078 91.3086 26.7578 91.3086 49.8047C91.3086 72.8516 72.8516 91.3086 49.8047 91.3086Z" fill="#000000" fill-opacity="0.85"/>
  <path d="M50.3906 79.0527C54.834 79.0527 59.1309 78.5156 61.9141 77.5879C63.9648 76.9531 65.0879 75.6836 65.0879 74.0234C65.0879 72.4121 63.8672 71.1914 62.2559 71.1914C61.8652 71.1914 61.2793 71.3379 60.7422 71.4844C57.5195 72.2168 54.8828 72.7051 51.2207 72.7051C36.8652 72.7051 27.8809 64.0137 27.8809 50.0488C27.8809 36.1328 36.9141 26.709 50.2441 26.709C63.2812 26.709 72.0215 34.8633 72.0215 47.1191C72.0215 54.6875 69.5801 59.5215 66.0156 59.5215C63.6719 59.5215 62.5 58.3008 62.5 55.957L62.5 37.9395C62.5 35.9375 61.2305 34.5703 59.2285 34.5703C57.4219 34.5703 56.2012 36.0352 56.2012 37.207L56.2012 38.1836C54.3945 36.084 51.416 34.5703 48.291 34.5703C40.8203 34.5703 35.498 40.9668 35.498 49.9512C35.498 59.0332 40.8203 65.4785 48.4375 65.4785C52.0996 65.4785 55.2246 63.7695 57.1289 60.791C58.4961 63.6719 61.4746 65.4785 65.332 65.4785C73.1934 65.4785 78.418 57.959 78.418 46.9238C78.418 31.2012 66.9434 20.4102 50.293 20.4102C33.0566 20.4102 21.1914 32.4219 21.1914 49.9023C21.1914 67.3828 32.9102 79.0527 50.3906 79.0527ZM49.5605 58.9355C45.4102 58.9355 42.8223 55.4688 42.8223 49.8047C42.8223 44.1895 45.459 40.6738 49.6094 40.6738C53.8086 40.6738 56.4941 44.0918 56.4941 49.6582C56.4941 55.3711 53.7598 58.9355 49.5605 58.9355Z" fill="#000000" fill-opacity="0.85"/>
 </g>
</svg>
