<?xml version="1.0" encoding="UTF-8"?>
<!--Generator: Apple Native CoreSVG 232.5-->
<!DOCTYPE svg
PUBLIC "-//W3C//DTD SVG 1.1//EN"
       "http://www.w3.org/Graphics/SVG/1.1/DTD/svg11.dtd">
<svg version="1.1" xmlns="http://www.w3.org/2000/svg" xmlns:xlink="http://www.w3.org/1999/xlink" width="101.27" height="107.959">
 <g>
  <rect height="107.959" opacity="0" width="101.27" x="0" y="0"/>
  <path d="M0 56.25C0 88.4277 21.7773 107.959 51.7578 107.959C59.8633 107.959 67.5781 106.836 72.3633 105.273C75.7324 104.199 76.8066 102.441 76.8066 100.635C76.8066 98.8281 75.3906 97.4609 73.584 97.4609C72.998 97.4609 72.2168 97.5586 71.2891 97.8027C65.332 99.2676 60.2051 100.244 53.3203 100.244C26.6113 100.244 8.39844 84.1309 8.39844 56.543C8.39844 30.127 25.5859 11.7188 51.4648 11.7188C74.3652 11.7188 93.5059 25.8301 93.5059 51.1719C93.5059 65.9668 88.5254 75.9277 80.4688 75.9277C75.0977 75.9277 72.0703 72.8027 72.0703 67.4805L72.0703 34.375C72.0703 31.7383 70.6055 30.127 68.1152 30.127C65.6738 30.127 64.1602 31.7383 64.1602 34.375L64.1602 39.9414L63.7207 39.9414C61.2305 33.9355 55.127 30.127 47.8516 30.127C35.2051 30.127 26.3184 40.918 26.3184 56.3965C26.3184 72.0215 35.1562 82.9102 48.0469 82.9102C55.6152 82.9102 61.4746 78.8086 64.3066 71.875L64.7461 71.875C65.6738 78.7598 71.4844 82.959 79.1992 82.959C92.8223 82.959 101.27 69.5801 101.27 50.8301C101.27 22.4609 80.4199 4.05273 51.5625 4.05273C21.2402 4.05273 0 24.8047 0 56.25ZM49.3652 75.1953C40.625 75.1953 35.0586 67.9199 35.0586 56.3477C35.0586 44.9707 40.6738 37.6953 49.4141 37.6953C58.3984 37.6953 64.0625 44.8242 64.0625 56.1523C64.0625 67.7246 58.252 75.1953 49.3652 75.1953Z" fill="#000000" fill-opacity="0.85"/>
 </g>
</svg>
