<?xml version="1.0" encoding="UTF-8"?>
<!--Generator: Apple Native CoreSVG 232.5-->
<!DOCTYPE svg
PUBLIC "-//W3C//DTD SVG 1.1//EN"
       "http://www.w3.org/Graphics/SVG/1.1/DTD/svg11.dtd">
<svg version="1.1" xmlns="http://www.w3.org/2000/svg" xmlns:xlink="http://www.w3.org/1999/xlink" width="109.095" height="99.6582">
 <g>
  <rect height="99.6582" opacity="0" width="109.095" x="0" y="0"/>
  <path d="M59.2839 99.6094C86.4812 99.6094 109.089 77.002 109.089 49.8047C109.089 22.5586 86.4812 0 59.2839 0C32.0378 0 9.47924 22.5098 9.47924 49.7559L17.78 49.7559C17.78 26.709 36.2371 8.34961 59.2839 8.34961C82.3308 8.34961 100.788 26.7578 100.788 49.8047C100.788 72.8516 82.3308 91.4062 59.2839 91.3086C45.3679 91.2598 33.1609 84.5215 25.6902 74.1211C24.1765 72.1191 21.8816 71.4844 19.8308 72.7051C17.8777 73.9258 17.3406 76.6113 19.0007 78.7598C28.2781 91.2109 42.8289 99.6094 59.2839 99.6094ZM3.47339 40.3809C-0.04224 40.3809-0.921146 42.7734 0.983151 45.5078L11.9207 61.0352C13.532 63.2812 15.8757 63.2324 17.4382 61.0352L28.3757 45.459C30.2312 42.7734 29.3523 40.3809 25.8855 40.3809Z" fill="#000000" fill-opacity="0.85"/>
  <path d="M39.3621 59.8633C39.3621 61.2305 40.3386 62.2559 41.7546 62.2559L44.4402 62.2559L41.9988 69.4336C41.8035 70.166 41.7546 70.6543 41.7546 71.0449C41.7546 72.7051 43.0242 73.9258 44.8796 73.9258C46.3933 73.9258 47.4675 73.1934 47.9558 71.5332L50.8855 62.2559L67.5847 62.2559L70.4656 71.582C71.0027 73.2422 71.9304 73.9258 73.5906 73.9258C75.446 73.9258 76.7156 72.7051 76.7156 71.0449C76.7156 70.6543 76.6179 70.166 76.4226 69.4336L73.9812 62.2559L76.7156 62.2559C78.1316 62.2559 79.1082 61.2305 79.1082 59.8633C79.1082 58.4961 78.1316 57.4219 76.7156 57.4219L72.4187 57.4219L71.0515 53.3203L76.7156 53.3203C78.1316 53.3203 79.1082 52.2461 79.1082 50.8789C79.1082 49.5117 78.1316 48.4863 76.7156 48.4863L69.4402 48.4863L62.9949 28.9551C62.4089 27.1973 61.2371 26.123 59.2351 26.123C57.1843 26.123 56.0124 27.1484 55.4265 28.9551L48.9324 48.4863L41.7546 48.4863C40.3386 48.4863 39.3621 49.5117 39.3621 50.8789C39.3621 52.2461 40.3386 53.3203 41.7546 53.3203L47.321 53.3203L46.0027 57.4219L41.7546 57.4219C40.3386 57.4219 39.3621 58.4961 39.3621 59.8633ZM52.3503 57.4219L53.6687 53.3203L64.8015 53.3203L66.1199 57.4219ZM55.1335 48.4863L59.2351 35.4004L63.3367 48.4863Z" fill="#000000" fill-opacity="0.85"/>
 </g>
</svg>
