<?xml version="1.0" encoding="UTF-8"?>
<!--Generator: Apple Native CoreSVG 232.5-->
<!DOCTYPE svg
PUBLIC "-//W3C//DTD SVG 1.1//EN"
       "http://www.w3.org/Graphics/SVG/1.1/DTD/svg11.dtd">
<svg version="1.1" xmlns="http://www.w3.org/2000/svg" xmlns:xlink="http://www.w3.org/1999/xlink" width="99.6094" height="99.6582">
 <g>
  <rect height="99.6582" opacity="0" width="99.6094" x="0" y="0"/>
  <path d="M99.6094 49.8047C99.6094 77.002 77.0508 99.6094 49.8047 99.6094C22.6074 99.6094 0 77.002 0 49.8047C0 22.5586 22.5586 0 49.7559 0C77.002 0 99.6094 22.5586 99.6094 49.8047ZM62.3047 25.5371L62.3047 28.8086C56.3477 29.4922 52.1484 33.5938 52.1484 39.4531C52.1484 44.9219 55.2734 48.3887 60.5469 51.0742L62.3047 51.9531L62.3047 64.8926C59.5215 64.3066 58.1055 62.3047 57.8613 59.2773C57.666 57.5684 56.4941 56.6895 55.127 56.6895C53.3691 56.6895 51.709 58.1543 52.1484 60.791C52.832 65.9668 56.4453 69.6777 62.3047 70.3613L62.3047 73.8281C62.3047 74.9512 63.2812 75.9277 64.4531 75.9277C65.5273 75.9277 66.5039 74.9512 66.5039 73.8281L66.5039 70.4102C72.6074 69.6777 76.709 65.6738 76.709 59.4238C76.709 54.541 74.0723 51.1719 68.1152 47.9492L66.5039 47.0703L66.5039 34.4727C68.7012 35.2539 69.873 37.2559 70.0684 39.8926C70.2148 41.5039 71.5332 42.4805 72.9004 42.4805C74.6094 42.4805 76.2695 41.1621 75.8789 38.3789C75.2441 33.4961 72.0215 29.7363 66.5039 28.8574L66.5039 25.5371C66.5039 24.3652 65.5273 23.3887 64.4531 23.3887C63.2812 23.3887 62.3047 24.3652 62.3047 25.5371ZM31.4941 29.6875L21.7773 68.457C20.9961 71.4355 22.998 72.8516 24.9023 72.8516C26.4648 72.8516 27.8809 72.0215 28.2715 70.166L30.3223 60.6445L41.5039 60.6445L43.6523 70.166C44.043 72.0215 45.4102 72.8516 46.9727 72.8516C48.9258 72.8516 50.6836 71.4355 50 68.457L40.5273 29.6875C39.9902 27.3438 38.3301 25.9766 36.1328 25.9766C33.8379 25.9766 32.0801 27.3926 31.4941 29.6875ZM66.7969 54.3945C69.043 55.7129 70.5566 57.5195 70.5566 59.8633C70.5566 62.4512 69.0918 64.3066 66.5039 64.8926L66.5039 54.1992ZM40.4785 55.5176L31.3965 55.5176L35.6445 35.5957L36.0352 35.5957ZM62.3047 44.7754L61.9141 44.5312C59.9609 43.3105 58.3496 41.8457 58.3496 39.209C58.3496 36.6699 59.8633 34.8633 62.3047 34.3262Z" fill="#000000" fill-opacity="0.85"/>
 </g>
</svg>
