<?xml version="1.0" encoding="UTF-8"?>
<!--Generator: Apple Native CoreSVG 232.5-->
<!DOCTYPE svg
PUBLIC "-//W3C//DTD SVG 1.1//EN"
       "http://www.w3.org/Graphics/SVG/1.1/DTD/svg11.dtd">
<svg version="1.1" xmlns="http://www.w3.org/2000/svg" xmlns:xlink="http://www.w3.org/1999/xlink" width="89.8926" height="89.9902">
 <g>
  <rect height="89.9902" opacity="0" width="89.8926" x="0" y="0"/>
  <path d="M89.8926 15.2344L89.8926 74.8535C89.8926 84.9121 84.8145 89.9902 74.5605 89.9902L15.332 89.9902C5.12695 89.9902 0 84.9609 0 74.8535L0 15.2344C0 5.12695 5.12695 0.0976562 15.332 0.0976562L74.5605 0.0976562C84.8145 0.0976562 89.8926 5.17578 89.8926 15.2344ZM57.4707 20.7031L57.4707 23.9746C51.5137 24.6582 47.3145 28.7598 47.3145 34.6191C47.3145 40.0879 50.4395 43.5547 55.7129 46.2402L57.4707 47.1191L57.4707 60.0586C54.6875 59.4727 53.2715 57.4707 53.0273 54.4434C52.832 52.7344 51.6602 51.8555 50.293 51.8555C48.584 51.8555 46.875 53.3203 47.3145 55.957C47.998 61.1328 51.6113 64.8438 57.4707 65.5273L57.4707 68.9941C57.4707 70.1172 58.4473 71.0938 59.6191 71.0938C60.6934 71.0938 61.6699 70.1172 61.6699 68.9941L61.6699 65.5762C67.8223 64.8438 71.875 60.8398 71.875 54.5898C71.875 49.707 69.2383 46.3379 63.3301 43.1152L61.6699 42.2363L61.6699 29.6387C63.916 30.4199 65.0879 32.4219 65.2832 35.0586C65.4297 36.6699 66.6992 37.6465 68.0664 37.6465C69.7754 37.6465 71.4844 36.3281 71.0938 33.5449C70.459 28.6621 67.1875 24.9023 61.6699 24.0234L61.6699 20.7031C61.6699 19.5312 60.6934 18.5547 59.6191 18.5547C58.4473 18.5547 57.4707 19.5312 57.4707 20.7031ZM26.709 24.8535L16.9434 63.623C16.1621 66.6016 18.2129 68.0176 20.1172 68.0176C21.6309 68.0176 23.0469 67.1875 23.4375 65.332L25.4883 55.8105L36.7188 55.8105L38.8184 65.332C39.209 67.1875 40.5762 68.0176 42.1387 68.0176C44.0918 68.0176 45.8496 66.6016 45.166 63.623L35.7422 24.8535C35.1562 22.5098 33.4961 21.1426 31.2988 21.1426C29.0039 21.1426 27.2949 22.5586 26.709 24.8535ZM62.0117 49.5605C64.209 50.8789 65.7227 52.6855 65.7227 55.0293C65.7227 57.6172 64.2578 59.4727 61.6699 60.0586L61.6699 49.3652ZM35.6445 50.6836L26.5625 50.6836L30.8105 30.7617L31.2012 30.7617ZM57.4707 39.9414L57.0801 39.6973C55.127 38.4766 53.5156 37.0117 53.5156 34.375C53.5156 31.8359 55.0293 30.0293 57.4707 29.4922Z" fill="#000000" fill-opacity="0.85"/>
 </g>
</svg>
