<?xml version="1.0" encoding="UTF-8"?>
<!--Generator: Apple Native CoreSVG 232.5-->
<!DOCTYPE svg
PUBLIC "-//W3C//DTD SVG 1.1//EN"
       "http://www.w3.org/Graphics/SVG/1.1/DTD/svg11.dtd">
<svg version="1.1" xmlns="http://www.w3.org/2000/svg" xmlns:xlink="http://www.w3.org/1999/xlink" width="99.6094" height="99.6582">
 <g>
  <rect height="99.6582" opacity="0" width="99.6094" x="0" y="0"/>
  <path d="M49.8047 99.6094C77.0508 99.6094 99.6094 77.002 99.6094 49.8047C99.6094 22.5586 77.002 0 49.7559 0C22.5586 0 0 22.5586 0 49.8047C0 77.002 22.6074 99.6094 49.8047 99.6094ZM49.8047 91.3086C26.7578 91.3086 8.34961 72.8516 8.34961 49.8047C8.34961 26.7578 26.709 8.30078 49.7559 8.30078C72.8027 8.30078 91.3086 26.7578 91.3086 49.8047C91.3086 72.8516 72.8516 91.3086 49.8047 91.3086Z" fill="#000000" fill-opacity="0.85"/>
  <path d="M25.5859 72.1191C27.0996 72.1191 28.4668 71.3379 28.8574 69.5312L35.9863 35.9863L36.377 35.9863L43.7988 69.5312C44.1895 71.3379 45.5078 72.1191 47.0215 72.1191C48.877 72.1191 50.5859 70.752 49.9023 67.8711L40.7227 30.2734C40.1855 28.0273 38.623 26.709 36.4258 26.709C34.2773 26.709 32.5684 28.0762 32.0312 30.2734L22.5098 67.8711C21.8262 70.752 23.7305 72.1191 25.5859 72.1191ZM28.418 60.3027L44.043 60.3027L44.043 55.3223L28.418 55.3223ZM63.9648 69.873C70.9961 69.873 75.8301 65.8203 75.8301 59.1309C75.8301 54.3945 73.291 51.0254 67.4805 47.998L63.1348 45.7031C60.5957 44.3848 57.959 42.7246 57.959 39.502C57.959 36.4746 60.2539 34.5215 63.623 34.5215C67.2852 34.5215 69.1406 36.8652 69.3848 40.1855C69.5312 41.748 70.752 42.6758 72.1191 42.6758C73.7793 42.6758 75.3906 41.4062 75 38.7207C74.3164 33.3984 70.2637 29.3457 63.623 29.3457C56.8848 29.3457 52.002 33.4473 52.002 39.7461C52.002 45.0684 55.0293 48.4863 60.1562 51.0254L64.3555 53.125C67.1387 54.4922 69.873 56.6406 69.873 59.5703C69.873 62.6465 67.7246 64.6973 63.9648 64.6973C59.7168 64.6973 57.8613 62.5488 57.5195 58.9844C57.3242 57.3242 56.2012 56.4941 54.834 56.4941C53.1738 56.4941 51.6113 57.9102 52.002 60.4492C52.7832 66.0645 57.0801 69.873 63.9648 69.873ZM63.916 75.0977C64.9414 75.0977 65.918 74.1699 65.918 73.0957L65.918 26.2695C65.918 25.1465 64.9414 24.2188 63.916 24.2188C62.793 24.2188 61.8652 25.1465 61.8652 26.2695L61.8652 73.0957C61.8652 74.1699 62.793 75.0977 63.916 75.0977Z" fill="#000000" fill-opacity="0.85"/>
 </g>
</svg>
