<?xml version="1.0" encoding="UTF-8"?>
<!--Generator: Apple Native CoreSVG 232.5-->
<!DOCTYPE svg
PUBLIC "-//W3C//DTD SVG 1.1//EN"
       "http://www.w3.org/Graphics/SVG/1.1/DTD/svg11.dtd">
<svg version="1.1" xmlns="http://www.w3.org/2000/svg" xmlns:xlink="http://www.w3.org/1999/xlink" width="137.061" height="105.713">
 <g>
  <rect height="105.713" opacity="0" width="137.061" x="0" y="0"/>
  <path d="M4.54102 96.6309C6.78711 96.6309 8.1543 95.5566 8.98438 93.1152L17.334 69.9707L52.7344 69.9707L61.0352 93.1152C61.9629 95.5566 63.2324 96.6309 65.5762 96.6309C68.2129 96.6309 70.1172 94.9707 70.1172 92.5781C70.1172 91.8945 70.0195 91.1621 69.5312 89.9414L40.8203 13.1348C39.7461 10.1562 37.8906 8.78906 35.1562 8.78906C32.1289 8.78906 30.2734 10.2051 29.1992 13.1836L0.537109 89.9902C0.0976562 91.1621 0 91.8945 0 92.627C0 94.9707 1.85547 96.6309 4.54102 96.6309ZM20.0684 62.207L34.9121 20.8008L35.2539 20.8008L50 62.207ZM107.617 105.713C109.424 105.713 110.693 104.395 110.693 102.539L110.693 94.3848C125.391 93.457 137.061 85.3027 137.061 71.2891C137.061 59.0332 128.662 52.5879 113.135 48.9258L110.693 48.3887L110.693 18.9453C118.994 19.7754 124.707 24.3652 127.002 31.8848C127.734 34.1309 129.15 35.5469 131.543 35.5469C133.984 35.5469 135.742 33.9355 135.742 31.4941C135.742 30.6152 135.596 29.834 135.4 28.9551C132.812 18.75 122.998 11.8652 110.693 10.9375L110.693 3.17383C110.693 1.31836 109.424 0 107.617 0C105.811 0 104.541 1.31836 104.541 3.17383L104.541 10.9863C90.2832 12.1094 79.834 20.7031 79.834 33.3496C79.834 44.8242 87.5977 52.2461 102.783 55.127L104.541 55.4688L104.541 86.4258C94.3359 85.5469 88.623 80.1758 86.7188 72.9492C85.8887 70.459 84.375 69.2383 82.2266 69.2383C79.834 69.2383 78.0762 70.9961 78.0762 73.4375C78.0762 74.2676 78.2227 75.0977 78.418 75.9766C81.1035 86.8164 91.748 93.457 104.541 94.3359L104.541 102.539C104.541 104.395 105.811 105.713 107.617 105.713ZM104.541 46.8262L103.613 46.6309C92.8711 44.0918 88.623 39.2578 88.623 32.8125C88.623 25.9766 94.5801 20.0195 104.541 18.9941ZM110.693 56.9824L111.768 57.1777C124.365 60.2051 128.271 64.7461 128.271 72.0215C128.271 79.7363 122.754 85.6934 110.693 86.4258Z" fill="#000000" fill-opacity="0.85"/>
 </g>
</svg>
