<?xml version="1.0" encoding="UTF-8"?>
<!--Generator: Apple Native CoreSVG 232.5-->
<!DOCTYPE svg
PUBLIC "-//W3C//DTD SVG 1.1//EN"
       "http://www.w3.org/Graphics/SVG/1.1/DTD/svg11.dtd">
<svg version="1.1" xmlns="http://www.w3.org/2000/svg" xmlns:xlink="http://www.w3.org/1999/xlink" width="108.521" height="108.533">
 <g>
  <rect height="108.533" opacity="0" width="108.521" x="0" y="0"/>
  <path d="M89.7716 103.229L71.106 105.854C68.3228 106.244 66.6626 104.584 67.2485 101.85L70.8443 84.2911ZM18.9444 32.3629C14.976 38.6812 12.7222 46.1809 12.7563 54.2422C12.8052 68.1582 19.5435 80.3653 29.9927 87.836C31.9946 89.3008 32.5806 91.6446 31.3599 93.6465C30.188 95.6485 27.4536 96.1856 25.3052 94.5254C12.9028 85.2481 4.45557 70.6973 4.45557 54.2422C4.45557 44.0118 7.64294 34.4422 13.0653 26.4806ZM104.065 54.2422C104.065 64.5012 100.8 74.0201 95.3349 81.9811L89.5129 76.1559C93.468 69.8286 95.7358 62.3236 95.7642 54.2422C95.8618 31.1953 77.3071 12.7383 54.2603 12.7383C46.2074 12.7383 38.6933 15.0013 32.3584 18.9703L26.4661 13.0748C34.4384 7.63291 44.0242 4.43753 54.2603 4.43753C81.5063 4.43753 104.065 26.9961 104.065 54.2422ZM47.3024 60.7364L45.5688 60.7364L41.9556 71.1367C41.2231 73.3828 40.0024 74.2617 38.2446 74.2617C36.0474 74.2617 34.6313 72.8946 34.6313 70.8438C34.6313 70.1114 34.7778 69.4278 35.1196 68.3535L40.4911 53.9213ZM59.729 31.4883L68.4958 55.1274L57.2751 43.9006L54.5532 35.9805L54.0161 35.9805L52.8246 39.4476L47.7629 34.3832L48.8403 31.4883C49.7681 28.9492 51.6235 27.6309 54.2114 27.6309C56.897 27.6309 58.7524 28.9492 59.729 31.4883Z" fill="#000000" fill-opacity="0.85"/>
  <path d="M96.3989 101.752C97.8638 103.217 100.305 103.168 101.721 101.703C103.186 100.238 103.186 97.8457 101.721 96.3809L12.1704 6.8301C10.7056 5.36526 8.26416 5.31643 6.79932 6.8301C5.33447 8.24612 5.33447 10.6875 6.79932 12.1524Z" fill="#000000" fill-opacity="0.85"/>
 </g>
</svg>
