<?xml version="1.0" encoding="UTF-8"?>
<!--Generator: Apple Native CoreSVG 232.5-->
<!DOCTYPE svg
PUBLIC "-//W3C//DTD SVG 1.1//EN"
       "http://www.w3.org/Graphics/SVG/1.1/DTD/svg11.dtd">
<svg version="1.1" xmlns="http://www.w3.org/2000/svg" xmlns:xlink="http://www.w3.org/1999/xlink" width="144.531" height="98.6816">
 <g>
  <rect height="98.6816" opacity="0" width="144.531" x="0" y="0"/>
  <path d="M50.6836 78.8086C51.1354 80.3708 51.6509 81.8298 52.2418 83.1733L13.5742 93.5059C10.7422 94.2871 8.64258 92.627 8.64258 89.9902C8.64258 88.0371 9.86328 86.5234 11.9141 85.9863L49.912 75.8359ZM48.193 66.8591L13.5742 76.0742C10.6934 76.8555 8.64258 75.1953 8.64258 72.5586C8.64258 70.6543 9.86328 69.0918 11.9141 68.5547L47.392 59.0775C47.5551 61.6591 47.8145 64.2538 48.193 66.8591ZM47.0703 49.3164L47.0741 49.6709L13.5742 58.6914C10.791 59.4238 8.64258 57.7637 8.64258 55.1758C8.64258 53.2227 9.86328 51.709 11.9141 51.123L47.2607 41.6458C47.1244 44.2168 47.0703 46.7733 47.0703 49.3164ZM48.1633 31.9815L13.5742 41.2598C10.6934 41.9922 8.64258 40.332 8.64258 37.7441C8.64258 35.791 9.86328 34.2773 11.9141 33.7402L49.681 23.6516C49.0304 26.4443 48.5302 29.2214 48.1633 31.9815Z" fill="#000000" fill-opacity="0.85"/>
  <path d="M55.8105 49.3164C55.8105 58.4961 56.4453 67.4316 59.0332 76.416C61.9629 86.377 67.4805 89.9414 79.1992 89.9414L81.9824 89.9414C110.547 89.9414 135.889 71.2402 135.889 49.3164C135.889 27.4414 110.547 8.69141 81.9824 8.69141L79.1992 8.69141C67.5293 8.69141 62.0117 12.2559 59.0332 22.2168C56.4453 31.25 55.8105 40.1855 55.8105 49.3164ZM63.7695 49.3164C63.7695 39.209 64.5508 31.7383 66.6504 24.4141C68.3594 18.75 71.8262 16.6504 79.1992 16.6504L81.9824 16.6504C105.908 16.6504 127.93 31.9336 127.93 49.3164C127.93 66.6992 105.908 81.9824 81.9824 81.9824L79.1992 81.9824C71.6797 81.9824 68.3594 79.8828 66.6504 74.2676C64.5508 66.8457 63.7695 59.4727 63.7695 49.3164Z" fill="#000000" fill-opacity="0.85"/>
  <path d="M77.4414 67.627C79.0527 67.627 80.1758 66.8457 80.8594 64.7949L84.082 55.4688L99.7559 55.4688L102.93 64.7949C103.613 66.8457 104.736 67.627 106.348 67.627C108.301 67.627 109.619 66.4062 109.619 64.5508C109.619 63.8672 109.473 63.2324 109.18 62.2559L96.8262 29.1016C95.9961 26.8066 94.2383 25.6348 91.8457 25.6348C89.4531 25.6348 87.8418 26.8066 86.9629 29.1016L74.6582 62.2559C74.2676 63.2324 74.1699 63.8672 74.1699 64.5508C74.1699 66.4062 75.4395 67.627 77.4414 67.627ZM85.8398 50.1465L91.6992 33.2031L92.1387 33.2031L97.9492 50.1465Z" fill="#000000" fill-opacity="0.85"/>
 </g>
</svg>
