<?xml version="1.0" encoding="UTF-8"?>
<!--Generator: Apple Native CoreSVG 232.5-->
<!DOCTYPE svg
PUBLIC "-//W3C//DTD SVG 1.1//EN"
       "http://www.w3.org/Graphics/SVG/1.1/DTD/svg11.dtd">
<svg version="1.1" xmlns="http://www.w3.org/2000/svg" xmlns:xlink="http://www.w3.org/1999/xlink" width="55.7617" height="114.404">
 <g>
  <rect height="114.404" opacity="0" width="55.7617" x="0" y="0"/>
  <path d="M12.7441 114.404L43.0176 114.404C50.8301 114.404 55.7617 109.619 55.7617 102.246L55.7617 12.1094C55.7617 4.73633 50.8301 0 43.0176 0L12.7441 0C4.93164 0 0 4.73633 0 12.1094L0 102.246C0 109.619 4.93164 114.404 12.7441 114.404ZM13.5742 107.275C9.66797 107.275 7.22656 104.932 7.22656 101.221L7.22656 13.1836C7.22656 9.47266 9.66797 7.12891 13.5742 7.12891L42.1875 7.12891C46.0938 7.12891 48.5352 9.47266 48.5352 13.1836L48.5352 101.221C48.5352 104.932 46.0938 107.275 42.1875 107.275ZM30.8594 18.75L41.2598 18.75C42.9688 18.75 44.3359 17.4316 44.3359 15.7227C44.3359 13.9648 42.9688 12.6465 41.2598 12.6465L30.8594 12.6465C29.1504 12.6465 27.7832 13.9648 27.7832 15.7227C27.7832 17.4316 29.1504 18.75 30.8594 18.75ZM15.9668 36.9141C18.6035 36.9141 20.7031 34.8633 20.7031 32.1777C20.7031 29.5898 18.6035 27.4414 15.9668 27.4414C13.3301 27.4414 11.2305 29.5898 11.2305 32.1777C11.2305 34.8633 13.3301 36.9141 15.9668 36.9141ZM27.8809 36.9141C30.5176 36.9141 32.6172 34.8633 32.6172 32.1777C32.6172 29.5898 30.5176 27.4414 27.8809 27.4414C25.2441 27.4414 23.1445 29.5898 23.1445 32.1777C23.1445 34.8633 25.2441 36.9141 27.8809 36.9141ZM39.8438 36.9141C42.4805 36.9141 44.5801 34.8633 44.5801 32.1777C44.5801 29.5898 42.4805 27.4414 39.8438 27.4414C37.207 27.4414 35.1074 29.5898 35.1074 32.1777C35.1074 34.8633 37.207 36.9141 39.8438 36.9141ZM15.9668 50.5859C18.6035 50.5859 20.7031 48.4863 20.7031 45.8496C20.7031 43.2617 18.6035 41.1133 15.9668 41.1133C13.3301 41.1133 11.2305 43.2617 11.2305 45.8496C11.2305 48.4863 13.3301 50.5859 15.9668 50.5859ZM27.8809 50.5859C30.5176 50.5859 32.6172 48.4863 32.6172 45.8496C32.6172 43.2617 30.5176 41.1133 27.8809 41.1133C25.2441 41.1133 23.1445 43.2617 23.1445 45.8496C23.1445 48.4863 25.2441 50.5859 27.8809 50.5859ZM39.8438 50.5859C42.4805 50.5859 44.5801 48.4863 44.5801 45.8496C44.5801 43.2617 42.4805 41.1133 39.8438 41.1133C37.207 41.1133 35.1074 43.2617 35.1074 45.8496C35.1074 48.4863 37.207 50.5859 39.8438 50.5859ZM15.9668 64.209C18.6035 64.209 20.7031 62.1582 20.7031 59.4727C20.7031 56.8848 18.6035 54.7363 15.9668 54.7363C13.3301 54.7363 11.2305 56.8848 11.2305 59.4727C11.2305 62.1582 13.3301 64.209 15.9668 64.209ZM27.8809 64.209C30.5176 64.209 32.6172 62.0605 32.6172 59.4727C32.6172 56.8359 30.5176 54.7363 27.8809 54.7363C25.2441 54.7363 23.1445 56.8359 23.1445 59.4727C23.1445 62.0605 25.2441 64.209 27.8809 64.209ZM39.8438 64.209C42.4805 64.209 44.5801 62.0605 44.5801 59.4727C44.5801 56.8359 42.4805 54.7363 39.8438 54.7363C37.207 54.7363 35.1074 56.8359 35.1074 59.4727C35.1074 62.0605 37.207 64.209 39.8438 64.209ZM14.8926 96.6309C16.9434 96.6309 18.5547 94.9707 18.5547 92.9688L18.5547 75.6836C18.5547 73.6328 16.9434 72.0215 14.8926 72.0215C12.8906 72.0215 11.2305 73.6328 11.2305 75.6836L11.2305 92.9688C11.2305 94.9707 12.8906 96.6309 14.8926 96.6309ZM25.4883 82.4707L30.2246 82.4707C31.8848 82.4707 32.8125 81.4941 32.8125 79.9316L32.8125 76.7578C32.8125 75.1465 31.8848 74.1699 30.2246 74.1699L25.4883 74.1699C23.9258 74.1699 22.9492 75.1465 22.9492 76.7578L22.9492 79.9316C22.9492 81.4941 23.9258 82.4707 25.4883 82.4707ZM25.4883 94.4336L30.2246 94.4336C31.8848 94.4336 32.8125 93.5059 32.8125 91.8945L32.8125 88.7207C32.8125 87.1094 31.8848 86.1816 30.2246 86.1816L25.4883 86.1816C23.9258 86.1816 22.9492 87.1094 22.9492 88.7207L22.9492 91.8945C22.9492 93.5059 23.9258 94.4336 25.4883 94.4336ZM40.918 96.6309C42.9199 96.6309 44.5801 94.9707 44.5801 92.9688L44.5801 75.6836C44.5801 73.6328 42.9199 72.0215 40.918 72.0215C38.8672 72.0215 37.2559 73.6328 37.2559 75.6836L37.2559 92.9688C37.2559 94.9707 38.8672 96.6309 40.918 96.6309Z" fill="#000000" fill-opacity="0.85"/>
 </g>
</svg>
