<?xml version="1.0" encoding="UTF-8"?>
<!--Generator: Apple Native CoreSVG 232.5-->
<!DOCTYPE svg
PUBLIC "-//W3C//DTD SVG 1.1//EN"
       "http://www.w3.org/Graphics/SVG/1.1/DTD/svg11.dtd">
<svg version="1.1" xmlns="http://www.w3.org/2000/svg" xmlns:xlink="http://www.w3.org/1999/xlink" width="55.7617" height="114.404">
 <g>
  <rect height="114.404" opacity="0" width="55.7617" x="0" y="0"/>
  <path d="M12.7441 114.404L43.0176 114.404C50.8301 114.404 55.7617 109.619 55.7617 102.246L55.7617 12.1094C55.7617 4.73633 50.8301 0 43.0176 0L12.7441 0C4.93164 0 0 4.73633 0 12.1094L0 102.246C0 109.619 4.93164 114.404 12.7441 114.404ZM30.957 17.627C29.1992 17.627 27.7832 16.2598 27.7832 14.502C27.7832 12.7441 29.1992 11.3281 30.957 11.3281L41.6992 11.3281C43.457 11.3281 44.8242 12.7441 44.8242 14.502C44.8242 16.2598 43.457 17.627 41.6992 17.627ZM15.5762 36.377C12.8906 36.377 10.6934 34.2285 10.6934 31.4453C10.6934 28.8086 12.8906 26.5625 15.5762 26.5625C18.3105 26.5625 20.5078 28.8086 20.5078 31.4453C20.5078 34.2285 18.3105 36.377 15.5762 36.377ZM27.8809 36.377C25.1465 36.377 22.998 34.2285 22.998 31.4453C22.998 28.8086 25.1465 26.5625 27.8809 26.5625C30.6152 26.5625 32.7637 28.8086 32.7637 31.4453C32.7637 34.2285 30.6152 36.377 27.8809 36.377ZM40.2344 36.377C37.5 36.377 35.3516 34.2285 35.3516 31.4453C35.3516 28.8086 37.5 26.5625 40.2344 26.5625C42.9199 26.5625 45.1172 28.8086 45.1172 31.4453C45.1172 34.2285 42.9199 36.377 40.2344 36.377ZM15.5762 50.4395C12.8906 50.4395 10.6934 48.291 10.6934 45.5566C10.6934 42.9199 12.8906 40.6738 15.5762 40.6738C18.3105 40.6738 20.5078 42.9199 20.5078 45.5566C20.5078 48.291 18.3105 50.4395 15.5762 50.4395ZM27.8809 50.4395C25.1465 50.4395 22.998 48.291 22.998 45.5566C22.998 42.9199 25.1465 40.6738 27.8809 40.6738C30.6152 40.6738 32.7637 42.9199 32.7637 45.5566C32.7637 48.291 30.6152 50.4395 27.8809 50.4395ZM40.2344 50.4395C37.5 50.4395 35.3516 48.291 35.3516 45.5566C35.3516 42.9199 37.5 40.6738 40.2344 40.6738C42.9199 40.6738 45.1172 42.9199 45.1172 45.5566C45.1172 48.291 42.9199 50.4395 40.2344 50.4395ZM15.5762 64.502C12.8906 64.502 10.6934 62.4023 10.6934 59.6191C10.6934 56.9336 12.8906 54.7363 15.5762 54.7363C18.3105 54.7363 20.5078 56.9336 20.5078 59.6191C20.5078 62.4023 18.3105 64.502 15.5762 64.502ZM27.8809 64.502C25.1465 64.502 22.998 62.3047 22.998 59.6191C22.998 56.8848 25.1465 54.7363 27.8809 54.7363C30.6152 54.7363 32.7637 56.8848 32.7637 59.6191C32.7637 62.3047 30.6152 64.502 27.8809 64.502ZM40.2344 64.502C37.5 64.502 35.3516 62.3047 35.3516 59.6191C35.3516 56.8848 37.5 54.7363 40.2344 54.7363C42.9199 54.7363 45.1172 56.8848 45.1172 59.6191C45.1172 62.3047 42.9199 64.502 40.2344 64.502ZM14.502 97.9492C12.4023 97.9492 10.6934 96.2402 10.6934 94.1406L10.6934 76.3184C10.6934 74.2188 12.4023 72.5586 14.502 72.5586C16.6016 72.5586 18.2617 74.2188 18.2617 76.3184L18.2617 94.1406C18.2617 96.2402 16.6016 97.9492 14.502 97.9492ZM25.3906 83.3496C23.7793 83.3496 22.8027 82.3242 22.8027 80.7129L22.8027 77.4414C22.8027 75.7812 23.7793 74.7559 25.3906 74.7559L30.3223 74.7559C32.0312 74.7559 32.959 75.7812 32.959 77.4414L32.959 80.7129C32.959 82.3242 32.0312 83.3496 30.3223 83.3496ZM25.3906 95.6543C23.7793 95.6543 22.8027 94.7266 22.8027 93.0664L22.8027 89.7949C22.8027 88.1348 23.7793 87.1582 25.3906 87.1582L30.3223 87.1582C32.0312 87.1582 32.959 88.1348 32.959 89.7949L32.959 93.0664C32.959 94.7266 32.0312 95.6543 30.3223 95.6543ZM41.3086 97.9492C39.209 97.9492 37.5488 96.2402 37.5488 94.1406L37.5488 76.3184C37.5488 74.2188 39.209 72.5586 41.3086 72.5586C43.4082 72.5586 45.1172 74.2188 45.1172 76.3184L45.1172 94.1406C45.1172 96.2402 43.4082 97.9492 41.3086 97.9492Z" fill="#000000" fill-opacity="0.85"/>
 </g>
</svg>
