<?xml version="1.0" encoding="UTF-8"?>
<!--Generator: Apple Native CoreSVG 232.5-->
<!DOCTYPE svg
PUBLIC "-//W3C//DTD SVG 1.1//EN"
       "http://www.w3.org/Graphics/SVG/1.1/DTD/svg11.dtd">
<svg version="1.1" xmlns="http://www.w3.org/2000/svg" xmlns:xlink="http://www.w3.org/1999/xlink" width="88.669" height="105.121">
 <g>
  <rect height="105.121" opacity="0" width="88.669" x="0" y="0"/>
  <path d="M4.49075 32.5165L8.15286 33.8349C11.9615 35.2509 15.5259 33.4931 16.9419 29.5868L23.8267 10.6903C25.2427 6.78409 23.6314 3.21964 19.8228 1.80362L16.1607 0.485261C12.3521-0.930754 8.83645 0.827058 7.37161 4.78214L0.535671 23.6298C-0.929172 27.536 0.682156 31.1005 4.49075 32.5165ZM68.7974 32.5165L72.5083 33.8349C76.3169 35.2509 79.8325 33.4931 81.2486 29.5868L88.1333 10.6903C89.5982 6.78409 87.938 3.21964 84.1782 1.80362L80.4673 0.485261C76.6587-0.930754 73.1919 0.827058 71.7271 4.78214L64.8423 23.6298C63.4263 27.536 65.0376 31.1493 68.7974 32.5165ZM17.0396 21.0907L71.6782 21.0907L71.6782 13.2294L17.0396 13.2294ZM40.2818 65.0849C41.5025 64.7431 42.8208 64.5478 44.2368 64.5478C45.6529 64.5478 46.9224 64.7431 48.1431 65.0849L48.1431 13.2294L40.2818 13.2294ZM10.2036 104.929L14.1099 104.929C18.1626 104.929 20.897 102.097 20.897 97.9462L20.897 77.8778C20.897 73.6786 18.1626 70.8466 14.1099 70.8466L10.2036 70.8466C6.19973 70.8466 3.46536 73.6786 3.46536 77.8778L3.46536 97.9462C3.46536 102.097 6.19973 104.929 10.2036 104.929ZM74.5103 104.929L78.4165 104.929C82.4693 104.929 85.2036 102.097 85.2036 97.9462L85.2036 77.8778C85.2036 73.6786 82.4693 70.8466 78.4165 70.8466L74.5103 70.8466C70.5064 70.8466 67.772 73.6786 67.772 77.8778L67.772 97.9462C67.772 102.097 70.5064 104.929 74.5103 104.929ZM17.0396 91.8427L27.2447 91.8427L27.2447 87.6435C27.2447 86.2763 27.44 85.0556 27.9282 83.9814L17.0396 83.9814ZM61.1802 91.8427L71.6782 91.8427L71.6782 83.9814L60.5454 83.9814C60.9849 85.0556 61.1802 86.2763 61.1802 87.6435Z" fill="#000000" fill-opacity="0.85"/>
  <path d="M35.9361 104.538L52.4888 104.538C55.1743 104.538 56.4927 103.122 56.4927 100.339L56.4927 87.6435C56.4927 85.4462 55.6626 84.1767 54.0513 83.6884L54.0513 80.3192C54.0513 73.7274 50.0962 69.2353 44.2368 69.2353C38.3775 69.2353 34.3736 73.7274 34.3736 80.3192L34.3736 83.7372C32.8111 84.1767 31.981 85.4462 31.981 87.6435L31.981 100.339C31.981 103.122 33.2993 104.538 35.9361 104.538ZM39.2564 83.4442L39.2564 79.8798C39.2564 76.2665 41.1607 73.9716 44.2368 73.9716C47.2154 73.9716 49.2173 76.2665 49.2173 79.8798L49.2173 83.4442Z" fill="#000000" fill-opacity="0.85"/>
 </g>
</svg>
