<?xml version="1.0" encoding="UTF-8"?>
<!--Generator: Apple Native CoreSVG 232.5-->
<!DOCTYPE svg
PUBLIC "-//W3C//DTD SVG 1.1//EN"
       "http://www.w3.org/Graphics/SVG/1.1/DTD/svg11.dtd">
<svg version="1.1" xmlns="http://www.w3.org/2000/svg" xmlns:xlink="http://www.w3.org/1999/xlink" width="88.669" height="105.121">
 <g>
  <rect height="105.121" opacity="0" width="88.669" x="0" y="0"/>
  <path d="M20.897 77.8778L20.897 83.9814L32.2599 83.9814C31.8543 85.2207 31.6392 86.5505 31.6392 87.9364C31.6392 89.3057 31.8492 90.6183 32.244 91.8427L20.897 91.8427L20.897 97.9462C20.897 102.097 18.1626 104.929 14.1099 104.929L10.2036 104.929C6.19973 104.929 3.46536 102.097 3.46536 97.9462L3.46536 77.8778C3.46536 73.6786 6.19973 70.8466 10.2036 70.8466L14.1099 70.8466C18.1626 70.8466 20.897 73.6786 20.897 77.8778ZM85.2036 77.8778L85.2036 97.9462C85.2036 102.097 82.4693 104.929 78.4165 104.929L74.5103 104.929C70.5064 104.929 67.772 102.097 67.772 97.9462L67.772 91.8427L56.3325 91.8427C56.724 90.6183 56.9322 89.3057 56.9322 87.9364C56.9322 86.5505 56.7189 85.2207 56.3167 83.9814L67.772 83.9814L67.772 77.8778C67.772 73.6786 70.5064 70.8466 74.5103 70.8466L78.4165 70.8466C82.4693 70.8466 85.2036 73.6786 85.2036 77.8778ZM44.3345 29.831C45.7031 29.831 47.0162 29.6182 48.2407 29.2177L48.2407 75.8544C47.0162 75.4539 45.7031 75.2411 44.3345 75.2411C42.9486 75.2411 41.6188 75.4563 40.3794 75.8618L40.3794 29.2102C41.6188 29.6158 42.9486 29.831 44.3345 29.831ZM16.1607 0.485261L19.8228 1.80362C23.6314 3.21964 25.2427 6.78409 23.8267 10.6903L22.9016 13.2294L32.244 13.2294C31.8492 14.4537 31.6392 15.7664 31.6392 17.1357C31.6392 18.5216 31.8543 19.8513 32.2599 21.0907L20.0374 21.0907L16.9419 29.5868C15.5259 33.4931 11.9615 35.2509 8.15286 33.8349L4.49075 32.5165C0.682156 31.1005-0.929172 27.536 0.535671 23.6298L7.37161 4.78214C8.83645 0.827058 12.3521-0.930754 16.1607 0.485261ZM80.4673 0.485261L84.1782 1.80362C87.938 3.21964 89.5982 6.78409 88.1333 10.6903L81.2486 29.5868C79.8325 33.4931 76.3169 35.2509 72.5083 33.8349L68.7974 32.5165C65.0376 31.1493 63.4263 27.536 64.8423 23.6298L65.7698 21.0907L56.3167 21.0907C56.7189 19.8513 56.9322 18.5216 56.9322 17.1357C56.9322 15.7664 56.724 14.4537 56.3325 13.2294L68.6414 13.2294L71.7271 4.78214C73.1919 0.827058 76.6587-0.930754 80.4673 0.485261Z" fill="#000000" fill-opacity="0.85"/>
  <path d="M44.3345 29.831C51.3657 29.831 56.9322 24.2157 56.9322 17.1357C56.9322 10.0556 51.3657 4.48917 44.3345 4.48917C37.2544 4.48917 31.6392 10.0556 31.6392 17.1357C31.6392 24.2157 37.2544 29.831 44.3345 29.831ZM44.3345 23.3857C40.8189 23.3857 38.0357 20.6513 38.0357 17.1357C38.0357 13.6689 40.8189 10.8857 44.3345 10.8857C47.8013 10.8857 50.5357 13.6689 50.5357 17.1357C50.5357 20.6513 47.8013 23.3857 44.3345 23.3857ZM44.3345 100.583C51.3657 100.583 56.9322 95.0165 56.9322 87.9364C56.9322 80.8564 51.3657 75.2411 44.3345 75.2411C37.2544 75.2411 31.6392 80.8564 31.6392 87.9364C31.6392 95.0165 37.2544 100.583 44.3345 100.583ZM44.3345 94.1864C40.8189 94.1864 38.0357 91.4032 38.0357 87.9364C38.0357 84.4208 40.8189 81.6864 44.3345 81.6864C47.8013 81.6864 50.5357 84.4208 50.5357 87.9364C50.5357 91.4032 47.8013 94.1864 44.3345 94.1864Z" fill="#000000" fill-opacity="0.85"/>
 </g>
</svg>
