<?xml version="1.0" encoding="UTF-8"?>
<!--Generator: Apple Native CoreSVG 232.5-->
<!DOCTYPE svg
PUBLIC "-//W3C//DTD SVG 1.1//EN"
       "http://www.w3.org/Graphics/SVG/1.1/DTD/svg11.dtd">
<svg version="1.1" xmlns="http://www.w3.org/2000/svg" xmlns:xlink="http://www.w3.org/1999/xlink" width="88.669" height="105.121">
 <g>
  <rect height="105.121" opacity="0" width="88.669" x="0" y="0"/>
  <path d="M4.49075 32.5165L8.15286 33.8349C11.9615 35.2509 15.5259 33.4931 16.9419 29.5868L23.8267 10.6903C25.2427 6.78409 23.6314 3.21964 19.8228 1.80362L16.1607 0.485261C12.3521-0.930754 8.83645 0.827058 7.37161 4.78214L0.535671 23.6298C-0.929172 27.536 0.682156 31.1005 4.49075 32.5165ZM68.7974 32.5165L72.5083 33.8349C76.3169 35.2509 79.8325 33.4931 81.2486 29.5868L88.1333 10.6903C89.5982 6.78409 87.938 3.21964 84.1782 1.80362L80.4673 0.485261C76.6587-0.930754 73.1919 0.827058 71.7271 4.78214L64.8423 23.6298C63.4263 27.536 65.0376 31.1493 68.7974 32.5165ZM10.2036 104.929L14.1099 104.929C18.1626 104.929 20.897 102.097 20.897 97.9462L20.897 77.8778C20.897 73.6786 18.1626 70.8466 14.1099 70.8466L10.2036 70.8466C6.19973 70.8466 3.46536 73.6786 3.46536 77.8778L3.46536 97.9462C3.46536 102.097 6.19973 104.929 10.2036 104.929ZM74.5103 104.929L78.4165 104.929C82.4693 104.929 85.2036 102.097 85.2036 97.9462L85.2036 77.8778C85.2036 73.6786 82.4693 70.8466 78.4165 70.8466L74.5103 70.8466C70.5064 70.8466 67.772 73.6786 67.772 77.8778L67.772 97.9462C67.772 102.097 70.5064 104.929 74.5103 104.929ZM17.0396 21.0907L71.6782 21.0907L71.6782 13.2294L17.0396 13.2294ZM40.2818 13.2294L40.2818 38.2782C40.8189 38.62 41.2583 38.9618 41.7466 39.4013L44.0904 41.6962L46.8247 38.913C47.2154 38.4735 47.7036 38.1317 48.1431 37.8388L48.1431 13.2294ZM40.2818 91.8427L48.1431 91.8427L48.1431 66.7939C47.6548 66.4521 47.1665 66.0614 46.6782 65.6708L44.3833 63.3759L41.649 66.1591C41.2583 66.5497 40.77 66.9403 40.2818 67.2333ZM17.0396 91.8427L71.6782 91.8427L71.6782 83.9814L17.0396 83.9814Z" fill="#000000" fill-opacity="0.85"/>
  <path d="M33.5923 63.1806C34.7154 64.3036 36.522 64.5478 37.7427 63.3271L44.3833 56.7353L50.5845 62.8876C51.7075 63.9618 53.4654 63.913 54.5884 62.8876C55.6626 61.8622 55.6626 60.0067 54.5884 58.8837L48.3872 52.6825L55.0279 46.0907C56.2486 44.87 56.0044 43.0634 54.8814 41.8915C53.7095 40.7196 51.9029 40.5243 50.6822 41.745L44.0904 48.3368L37.8404 42.1845C36.7173 41.1103 34.9595 41.1103 33.8365 42.1845C32.7622 43.2099 32.7622 45.0165 33.8365 46.1396L40.0376 52.3896L33.4458 58.9814C32.2251 60.2021 32.4204 62.0087 33.5923 63.1806Z" fill="#000000" fill-opacity="0.85"/>
 </g>
</svg>
