<?xml version="1.0" encoding="UTF-8"?>
<!--Generator: Apple Native CoreSVG 232.5-->
<!DOCTYPE svg
PUBLIC "-//W3C//DTD SVG 1.1//EN"
       "http://www.w3.org/Graphics/SVG/1.1/DTD/svg11.dtd">
<svg version="1.1" xmlns="http://www.w3.org/2000/svg" xmlns:xlink="http://www.w3.org/1999/xlink" width="89.8926" height="89.9902">
 <g>
  <rect height="89.9902" opacity="0" width="89.8926" x="0" y="0"/>
  <path d="M15.332 89.9902L74.5605 89.9902C84.8145 89.9902 89.8926 84.9121 89.8926 74.8535L89.8926 15.2344C89.8926 5.17578 84.8145 0.0976562 74.5605 0.0976562L15.332 0.0976562C5.12695 0.0976562 0 5.12695 0 15.2344L0 74.8535C0 84.9609 5.12695 89.9902 15.332 89.9902ZM15.4297 82.1289C10.5469 82.1289 7.86133 79.541 7.86133 74.4629L7.86133 15.625C7.86133 10.5469 10.5469 7.95898 15.4297 7.95898L74.4629 7.95898C79.2969 7.95898 82.0312 10.5469 82.0312 15.625L82.0312 74.4629C82.0312 79.541 79.2969 82.1289 74.4629 82.1289Z" fill="#000000" fill-opacity="0.85"/>
  <path d="M33.3008 66.8457L47.5586 66.8457C57.666 66.8457 64.1602 61.9629 64.1602 54.2969C64.1602 48.3398 60.1562 44.1406 53.6621 43.3594L53.6621 43.0664C58.4961 41.8945 61.4746 38.0859 61.4746 33.2031C61.4746 26.5137 56.0547 22.168 47.6562 22.168L33.3008 22.168C30.6152 22.168 29.0039 23.7793 29.0039 26.5625L29.0039 62.5C29.0039 65.1855 30.6152 66.8457 33.3008 66.8457ZM36.5234 41.1621L36.5234 27.9297L46.0938 27.9297C51.0254 27.9297 54.0039 30.4199 54.0039 34.4238C54.0039 38.7207 50.4395 41.1621 43.8965 41.1621ZM36.5234 61.084L36.5234 46.5332L46.9238 46.5332C52.8809 46.5332 56.3477 49.2676 56.3477 53.9551C56.3477 58.8379 52.5879 61.084 44.4824 61.084Z" fill="#000000" fill-opacity="0.85"/>
 </g>
</svg>
