<?xml version="1.0" encoding="UTF-8"?>
<!--Generator: Apple Native CoreSVG 232.5-->
<!DOCTYPE svg
PUBLIC "-//W3C//DTD SVG 1.1//EN"
       "http://www.w3.org/Graphics/SVG/1.1/DTD/svg11.dtd">
<svg version="1.1" xmlns="http://www.w3.org/2000/svg" xmlns:xlink="http://www.w3.org/1999/xlink" width="89.8926" height="89.9902">
 <g>
  <rect height="89.9902" opacity="0" width="89.8926" x="0" y="0"/>
  <path d="M89.8926 15.2344L89.8926 74.8535C89.8926 84.9121 84.8145 89.9902 74.5605 89.9902L15.332 89.9902C5.12695 89.9902 0 84.9609 0 74.8535L0 15.2344C0 5.12695 5.12695 0.0976562 15.332 0.0976562L74.5605 0.0976562C84.8145 0.0976562 89.8926 5.17578 89.8926 15.2344ZM32.959 21.4844C30.1758 21.4844 28.4668 23.1445 28.4668 26.0254L28.4668 63.0371C28.4668 65.8203 30.1758 67.5293 32.959 67.5293L47.6562 67.5293C58.0566 67.5293 64.7949 62.5 64.7949 54.5898C64.7949 48.4375 60.6445 44.1406 53.9551 43.3105L53.9551 43.0176C58.9355 41.7969 62.0117 37.8906 62.0117 32.8613C62.0117 25.9277 56.3965 21.4844 47.7539 21.4844ZM56.6895 54.248C56.6895 59.2773 52.832 61.5723 44.4336 61.5723L36.2793 61.5723L36.2793 46.6309L46.9727 46.6309C53.125 46.6309 56.6895 49.4141 56.6895 54.248ZM54.248 34.1309C54.248 38.5254 50.5859 41.0645 43.8477 41.0645L36.2793 41.0645L36.2793 27.4414L46.1426 27.4414C51.2207 27.4414 54.248 29.9805 54.248 34.1309Z" fill="#000000" fill-opacity="0.85"/>
 </g>
</svg>
