<?xml version="1.0" encoding="UTF-8"?>
<!--Generator: Apple Native CoreSVG 232.5-->
<!DOCTYPE svg
PUBLIC "-//W3C//DTD SVG 1.1//EN"
       "http://www.w3.org/Graphics/SVG/1.1/DTD/svg11.dtd">
<svg version="1.1" xmlns="http://www.w3.org/2000/svg" xmlns:xlink="http://www.w3.org/1999/xlink" width="106.543" height="80.7129">
 <g>
  <rect height="80.7129" opacity="0" width="106.543" x="0" y="0"/>
  <path d="M60.3027 78.7598C64.1113 78.7598 67.334 75.8301 67.334 70.3613L67.334 10.4004C67.334 4.93164 64.1113 2.00195 60.3027 2.00195C58.3008 2.00195 56.6895 2.63672 54.6875 3.80859L4.93164 33.1055C1.46484 35.1562 0 37.5977 0 40.3809C0 43.1641 1.46484 45.6055 4.93164 47.6562L54.6875 76.9531C56.6895 78.125 58.3008 78.7598 60.3027 78.7598ZM58.1543 69.7266C57.8613 69.7266 57.4707 69.5801 56.9824 69.2871L10.5469 41.748C9.86328 41.3574 9.52148 41.0156 9.52148 40.3809C9.52148 39.6973 9.86328 39.4043 10.5469 39.0137L56.9824 11.4746C57.4707 11.1816 57.8613 11.0352 58.1543 11.0352C58.8867 11.0352 59.5215 11.5234 59.5215 12.5L59.5215 68.2617C59.5215 69.2383 58.8867 69.7266 58.1543 69.7266ZM86.8652 80.7129C89.1602 80.7129 91.0645 78.9551 91.0645 76.6602L91.0645 4.15039C91.0645 1.85547 89.1602 0.0488281 86.8652 0.0488281C84.5703 0.0488281 82.7148 1.85547 82.7148 4.15039L82.7148 76.6602C82.7148 78.9551 84.5703 80.7129 86.8652 80.7129Z" fill="#000000" fill-opacity="0.85"/>
 </g>
</svg>
