<?xml version="1.0" encoding="UTF-8"?>
<!--Generator: Apple Native CoreSVG 232.5-->
<!DOCTYPE svg
PUBLIC "-//W3C//DTD SVG 1.1//EN"
       "http://www.w3.org/Graphics/SVG/1.1/DTD/svg11.dtd">
<svg version="1.1" xmlns="http://www.w3.org/2000/svg" xmlns:xlink="http://www.w3.org/1999/xlink" width="80.326" height="127.49">
 <g>
  <rect height="127.49" opacity="0" width="80.326" x="0" y="0"/>
  <path d="M25.246 122.461L55.08 122.461C72.0722 122.461 80.4706 113.867 80.3241 96.6797C80.1288 77.0508 80.0312 62.793 79.5429 52.0996C78.1269 20.6543 69.289 11.4258 40.1874 11.4258C11.0859 11.4258 2.19915 20.6543 0.783133 52.0996C0.294852 62.793 0.197196 77.0508 0.00188334 96.6797C-0.144601 113.867 8.25384 122.461 25.246 122.461ZM25.246 115.283C12.3066 115.283 7.08196 109.961 7.17962 96.7773C7.37493 77.1484 7.52141 62.9883 8.0097 52.4414C9.2304 24.8047 15.0898 18.6523 40.1874 18.6523C65.2363 18.6523 71.0956 24.8047 72.3652 52.4414C72.8046 62.9883 72.9511 77.1484 73.1464 96.7773C73.2441 109.961 68.0195 115.283 55.08 115.283ZM40.1874 0C30.8124 0 24.2206 6.34766 24.2206 14.9902L31.1054 14.9902C31.1054 10.2539 34.8163 6.88477 40.1874 6.88477C45.5097 6.88477 49.2695 10.2539 49.2695 14.9902L56.1542 14.9902C56.1542 6.34766 49.5136 0 40.1874 0ZM24.123 103.223L56.2519 103.223C60.6464 103.223 63.5273 100.342 63.5273 95.9961L63.5273 71.2402C63.5273 66.8457 60.6464 63.9648 56.2519 63.9648L24.123 63.9648C19.7284 63.9648 16.7988 66.8945 16.7988 71.2402L16.7988 95.9961C16.7988 100.293 19.7284 103.223 24.123 103.223ZM25.2949 96.3867C24.3183 96.3867 23.6835 95.752 23.6835 94.8242L23.6835 72.4121C23.6835 71.4355 24.3183 70.8008 25.2949 70.8008L55.0312 70.8008C56.0077 70.8008 56.6425 71.4355 56.6425 72.4121L56.6425 94.8242C56.6425 95.752 56.0077 96.3867 55.0312 96.3867ZM20.705 83.2031L59.621 83.2031L59.621 77.0508L20.705 77.0508Z" fill="#000000" fill-opacity="0.85"/>
 </g>
</svg>
