<?xml version="1.0" encoding="UTF-8"?>
<!--Generator: Apple Native CoreSVG 232.5-->
<!DOCTYPE svg
PUBLIC "-//W3C//DTD SVG 1.1//EN"
       "http://www.w3.org/Graphics/SVG/1.1/DTD/svg11.dtd">
<svg version="1.1" xmlns="http://www.w3.org/2000/svg" xmlns:xlink="http://www.w3.org/1999/xlink" width="75.4395" height="80.7129">
 <g>
  <rect height="80.7129" opacity="0" width="75.4395" x="0" y="0"/>
  <path d="M4.15039 80.7129C6.49414 80.7129 8.34961 78.9551 8.34961 76.6602L8.34961 4.15039C8.34961 1.85547 6.49414 0.0488281 4.15039 0.0488281C1.85547 0.0488281 0 1.85547 0 4.15039L0 76.6602C0 78.9551 1.85547 80.7129 4.15039 80.7129ZM68.4082 78.7598C72.2656 78.7598 75.4395 75.8301 75.4395 70.3613L75.4395 10.4004C75.4395 4.93164 72.2656 2.00195 68.4082 2.00195C66.4062 2.00195 64.7949 2.63672 62.793 3.80859L13.0371 33.1055C9.57031 35.1562 8.10547 37.5977 8.10547 40.3809C8.10547 43.1641 9.57031 45.6055 13.0371 47.6562L62.793 76.9531C64.7949 78.125 66.4062 78.7598 68.4082 78.7598ZM66.3086 69.7266C65.9668 69.7266 65.5762 69.5801 65.0879 69.2871L18.7012 41.748C18.0176 41.3574 17.627 41.0156 17.627 40.3809C17.627 39.6973 17.9688 39.4043 18.7012 39.0137L65.0879 11.4746C65.5762 11.1816 65.9668 11.0352 66.3086 11.0352C66.9922 11.0352 67.627 11.5234 67.627 12.5L67.627 68.2617C67.627 69.2383 66.9922 69.7266 66.3086 69.7266Z" fill="#000000" fill-opacity="0.85"/>
 </g>
</svg>
