<?xml version="1.0" encoding="UTF-8"?>
<!--Generator: Apple Native CoreSVG 232.5-->
<!DOCTYPE svg
PUBLIC "-//W3C//DTD SVG 1.1//EN"
       "http://www.w3.org/Graphics/SVG/1.1/DTD/svg11.dtd">
<svg version="1.1" xmlns="http://www.w3.org/2000/svg" xmlns:xlink="http://www.w3.org/1999/xlink" width="99.6094" height="99.6582">
 <g>
  <rect height="99.6582" opacity="0" width="99.6094" x="0" y="0"/>
  <path d="M99.6094 49.8535C99.6094 77.0996 77.0508 99.6582 49.8047 99.6582C22.6074 99.6582 0 77.0996 0 49.8535C0 22.6562 22.5586 0.0488281 49.7559 0.0488281C77.002 0.0488281 99.6094 22.6562 99.6094 49.8535ZM41.4551 23.0957C32.7148 24.9023 29.7363 30.6641 29.1504 43.6523C28.9062 49.2188 28.8574 56.6895 28.7109 66.9922C28.6621 76.0254 33.0566 80.5176 41.8945 80.5176L57.6172 80.5176C66.4551 80.5176 70.8496 76.0254 70.8008 66.9922C70.6543 56.6895 70.6055 49.2188 70.3613 43.6523C69.7754 30.6641 66.7969 24.9023 58.0566 23.0957C57.5195 19.0918 54.248 16.2598 49.7559 16.2598C45.2637 16.2598 41.9922 19.0918 41.4551 23.0957ZM61.9141 66.748C61.9141 68.9453 60.5469 70.3613 58.3008 70.3613L41.2598 70.3613C39.0137 70.3613 37.5977 68.9453 37.5977 66.748L37.5977 60.0098L61.9141 60.0098ZM61.9141 53.5645L61.9141 56.8359L37.5977 56.8359L37.5977 53.5645C37.5977 51.416 39.0137 50 41.2598 50L58.3008 50C60.5469 50 61.9141 51.416 61.9141 53.5645ZM53.9551 22.5098C52.6367 22.4121 51.2695 22.3633 49.7559 22.3633C48.2422 22.3633 46.875 22.4121 45.5566 22.5098C46.2891 21.0449 47.8027 20.0684 49.7559 20.0684C51.709 20.0684 53.2227 21.0449 53.9551 22.5098Z" fill="#000000" fill-opacity="0.85"/>
 </g>
</svg>
