<?xml version="1.0" encoding="UTF-8"?>
<!--Generator: Apple Native CoreSVG 232.5-->
<!DOCTYPE svg
PUBLIC "-//W3C//DTD SVG 1.1//EN"
       "http://www.w3.org/Graphics/SVG/1.1/DTD/svg11.dtd">
<svg version="1.1" xmlns="http://www.w3.org/2000/svg" xmlns:xlink="http://www.w3.org/1999/xlink" width="145.605" height="76.8066">
 <g>
  <rect height="76.8066" opacity="0" width="145.605" x="0" y="0"/>
  <path d="M60.3027 76.8066C64.1113 76.8066 67.334 73.877 67.334 68.457L67.334 8.44727C67.334 3.02734 64.1113 0.0976562 60.3027 0.0976562C58.3008 0.0976562 56.6895 0.732422 54.6875 1.9043L4.93164 31.2012C1.46484 33.252 0 35.6445 0 38.4277C0 41.2598 1.46484 43.6523 4.93164 45.7031L54.6875 75C56.6406 76.1719 58.3008 76.8066 60.3027 76.8066ZM127.393 76.8066C131.201 76.8066 134.424 73.877 134.424 68.457L134.424 8.44727C134.424 3.02734 131.201 0.0976562 127.393 0.0976562C125.391 0.0976562 123.779 0.732422 121.777 1.9043L72.0215 31.2012C68.5547 33.252 67.0898 35.6445 67.0898 38.4277C67.0898 41.2598 68.5547 43.6523 72.0215 45.7031L121.777 75C123.73 76.1719 125.391 76.8066 127.393 76.8066Z" fill="#000000" fill-opacity="0.85"/>
 </g>
</svg>
