<?xml version="1.0" encoding="UTF-8"?>
<!--Generator: Apple Native CoreSVG 232.5-->
<!DOCTYPE svg
PUBLIC "-//W3C//DTD SVG 1.1//EN"
       "http://www.w3.org/Graphics/SVG/1.1/DTD/svg11.dtd">
<svg version="1.1" xmlns="http://www.w3.org/2000/svg" xmlns:xlink="http://www.w3.org/1999/xlink" width="145.605" height="76.8066">
 <g>
  <rect height="76.8066" opacity="0" width="145.605" x="0" y="0"/>
  <path d="M60.3027 76.8066C64.1113 76.8066 67.334 73.877 67.334 68.457L67.334 8.44727C67.334 3.02734 64.1113 0.0976562 60.3027 0.0976562C58.3008 0.0976562 56.6895 0.732422 54.6875 1.9043L4.93164 31.2012C1.46484 33.252 0 35.6445 0 38.4277C0 41.2598 1.46484 43.6523 4.93164 45.7031L54.6875 75C56.6406 76.1719 58.3008 76.8066 60.3027 76.8066ZM58.1543 67.7734C57.8125 67.7734 57.4219 67.6758 56.9824 67.3828L10.5469 39.8438C9.86328 39.4531 9.47266 39.1113 9.47266 38.4277C9.47266 37.793 9.86328 37.4512 10.5469 37.0605L56.9824 9.52148C57.4707 9.27734 57.8125 9.13086 58.1543 9.13086C58.8867 9.13086 59.4727 9.57031 59.4727 10.5957L59.4727 66.3086C59.4727 67.334 58.8867 67.7734 58.1543 67.7734ZM127.393 76.8066C131.201 76.8066 134.424 73.877 134.424 68.457L134.424 8.44727C134.424 3.02734 131.201 0.0976562 127.393 0.0976562C125.391 0.0976562 123.779 0.732422 121.777 1.9043L72.0215 31.2012C68.5547 33.252 67.0898 35.6445 67.0898 38.4277C67.0898 41.2598 68.5547 43.6523 72.0215 45.7031L121.777 75C123.73 76.1719 125.391 76.8066 127.393 76.8066ZM125.244 67.7734C124.951 67.7734 124.561 67.6758 124.072 67.3828L77.6367 39.8438C76.9531 39.4531 76.6113 39.1113 76.6113 38.4277C76.6113 37.793 76.9531 37.4512 77.6367 37.0605L124.072 9.52148C124.561 9.27734 124.951 9.13086 125.244 9.13086C125.977 9.13086 126.562 9.57031 126.562 10.5957L126.562 66.3086C126.562 67.334 125.977 67.7734 125.244 67.7734Z" fill="#000000" fill-opacity="0.85"/>
 </g>
</svg>
