<?xml version="1.0" encoding="UTF-8"?>
<!--Generator: Apple Native CoreSVG 232.5-->
<!DOCTYPE svg
PUBLIC "-//W3C//DTD SVG 1.1//EN"
       "http://www.w3.org/Graphics/SVG/1.1/DTD/svg11.dtd">
<svg version="1.1" xmlns="http://www.w3.org/2000/svg" xmlns:xlink="http://www.w3.org/1999/xlink" width="80.326" height="127.49">
 <g>
  <rect height="127.49" opacity="0" width="80.326" x="0" y="0"/>
  <path d="M25.246 122.461L55.08 122.461C72.0722 122.461 80.4706 113.867 80.3241 96.6797C80.1288 77.0508 80.0312 62.793 79.5429 52.0996C78.1269 20.6543 69.289 11.4258 40.1874 11.4258C11.0859 11.4258 2.19915 20.6543 0.783133 52.0996C0.294852 62.793 0.197196 77.0508 0.00188334 96.6797C-0.144601 113.867 8.25384 122.461 25.246 122.461ZM23.83 103.076C19.6308 103.076 16.9452 100.342 16.9452 96.2402L16.9452 71.0449C16.9452 66.8945 19.6308 64.1602 23.83 64.1602L56.5449 64.1602C60.6952 64.1602 63.3808 66.8945 63.3808 71.0449L63.3808 96.2402C63.3808 100.342 60.6952 103.076 56.5449 103.076ZM16.9452 82.959L63.3808 82.959L63.3808 77.1484L16.9452 77.1484ZM40.1874 0C30.8124 0 24.2206 6.34766 24.2206 14.9902L31.1054 14.9902C31.1054 10.2539 34.8163 6.88477 40.1874 6.88477C45.5097 6.88477 49.2695 10.2539 49.2695 14.9902L56.1542 14.9902C56.1542 6.34766 49.5136 0 40.1874 0Z" fill="#000000" fill-opacity="0.85"/>
 </g>
</svg>
