<?xml version="1.0" encoding="UTF-8"?>
<!--Generator: Apple Native CoreSVG 232.5-->
<!DOCTYPE svg
PUBLIC "-//W3C//DTD SVG 1.1//EN"
       "http://www.w3.org/Graphics/SVG/1.1/DTD/svg11.dtd">
<svg version="1.1" xmlns="http://www.w3.org/2000/svg" xmlns:xlink="http://www.w3.org/1999/xlink" width="99.6094" height="99.6582">
 <g>
  <rect height="99.6582" opacity="0" width="99.6094" x="0" y="0"/>
  <path d="M49.8047 99.6094C77.0508 99.6094 99.6094 77.002 99.6094 49.8047C99.6094 22.5586 77.002 0 49.7559 0C22.5586 0 0 22.5586 0 49.8047C0 77.002 22.6074 99.6094 49.8047 99.6094ZM49.8047 91.3086C26.7578 91.3086 8.34961 72.8516 8.34961 49.8047C8.34961 26.7578 26.709 8.30078 49.7559 8.30078C72.8027 8.30078 91.3086 26.7578 91.3086 49.8047C91.3086 72.8516 72.8516 91.3086 49.8047 91.3086Z" fill="#000000" fill-opacity="0.85"/>
  <path d="M35.2539 73.7305L65.1367 73.7305C69.7266 73.7305 72.3633 71.0938 72.3633 65.918L72.3633 39.5508C72.3633 34.3262 69.6777 31.7383 64.3555 31.7383L60.3027 31.7383C60.2051 26.3672 55.5664 21.8262 49.8047 21.8262C44.043 21.8262 39.4043 26.3672 39.3066 31.7383L35.2539 31.7383C29.9316 31.7383 27.2461 34.3262 27.2461 39.5508L27.2461 65.918C27.2461 71.1426 29.9316 73.7305 35.2539 73.7305ZM43.9941 31.7383C44.1406 28.3691 46.3379 26.2695 49.8047 26.2695C53.2715 26.2695 55.4688 28.3691 55.6152 31.7383Z" fill="#000000" fill-opacity="0.85"/>
 </g>
</svg>
