<?xml version="1.0" encoding="UTF-8"?>
<!--Generator: Apple Native CoreSVG 232.5-->
<!DOCTYPE svg
PUBLIC "-//W3C//DTD SVG 1.1//EN"
       "http://www.w3.org/Graphics/SVG/1.1/DTD/svg11.dtd">
<svg version="1.1" xmlns="http://www.w3.org/2000/svg" xmlns:xlink="http://www.w3.org/1999/xlink" width="99.6094" height="99.6582">
 <g>
  <rect height="99.6582" opacity="0" width="99.6094" x="0" y="0"/>
  <path d="M99.6094 49.8535C99.6094 77.0996 77.0508 99.6582 49.8047 99.6582C22.6074 99.6582 0 77.0996 0 49.8535C0 22.6562 22.5586 0.0488281 49.7559 0.0488281C77.002 0.0488281 99.6094 22.6562 99.6094 49.8535ZM38.9648 31.2988L34.8145 31.2988C29.2969 31.2988 26.5137 33.9355 26.5137 39.3555L26.5137 66.5527C26.5137 71.9238 29.2969 74.6094 34.8145 74.6094L65.625 74.6094C70.3613 74.6094 73.0957 71.9238 73.0957 66.5527L73.0957 39.3555C73.0957 33.9844 70.3125 31.2988 64.7949 31.2988L60.6445 31.2988C60.5469 25.7324 55.7617 21.0449 49.8047 21.0449C43.8477 21.0449 39.0625 25.7324 38.9648 31.2988ZM55.7617 31.2988L43.8477 31.2988C43.9941 27.8809 46.2402 25.6836 49.8047 25.6836C53.3691 25.6836 55.6152 27.8809 55.7617 31.2988Z" fill="#000000" fill-opacity="0.85"/>
 </g>
</svg>
