<?xml version="1.0" encoding="UTF-8"?>
<!--Generator: Apple Native CoreSVG 232.5-->
<!DOCTYPE svg
PUBLIC "-//W3C//DTD SVG 1.1//EN"
       "http://www.w3.org/Graphics/SVG/1.1/DTD/svg11.dtd">
<svg version="1.1" xmlns="http://www.w3.org/2000/svg" xmlns:xlink="http://www.w3.org/1999/xlink" width="86.6699" height="98.291">
 <g>
  <rect height="98.291" opacity="0" width="86.6699" x="0" y="0"/>
  <path d="M15.332 98.2422L72.8027 98.2422C81.543 98.2422 86.6699 93.1641 86.6699 83.1055L86.6699 32.5684C86.6699 22.5098 81.4941 17.4316 71.3379 17.4316L15.332 17.4316C5.12695 17.4316 0 22.4609 0 32.5684L0 83.1055C0 93.2129 5.12695 98.2422 15.332 98.2422ZM24.0723 19.3359L31.9336 19.3848C31.9336 12.4023 36.5234 7.42188 43.3105 7.42188C50.0977 7.42188 54.7363 12.4023 54.7363 19.3848L62.5977 19.3359C62.5977 8.54492 54.248 0 43.3105 0C32.373 0 24.0723 8.54492 24.0723 19.3359Z" fill="#000000" fill-opacity="0.85"/>
 </g>
</svg>
