<?xml version="1.0" encoding="UTF-8"?>
<!--Generator: Apple Native CoreSVG 232.5-->
<!DOCTYPE svg
PUBLIC "-//W3C//DTD SVG 1.1//EN"
       "http://www.w3.org/Graphics/SVG/1.1/DTD/svg11.dtd">
<svg version="1.1" xmlns="http://www.w3.org/2000/svg" xmlns:xlink="http://www.w3.org/1999/xlink" width="89.8926" height="89.9902">
 <g>
  <rect height="89.9902" opacity="0" width="89.8926" x="0" y="0"/>
  <path d="M15.332 89.9902L74.5605 89.9902C84.8145 89.9902 89.8926 84.9121 89.8926 74.8535L89.8926 15.2344C89.8926 5.17578 84.8145 0.0976562 74.5605 0.0976562L15.332 0.0976562C5.12695 0.0976562 0 5.12695 0 15.2344L0 74.8535C0 84.9609 5.12695 89.9902 15.332 89.9902ZM15.4297 82.1289C10.5469 82.1289 7.86133 79.541 7.86133 74.4629L7.86133 15.625C7.86133 10.5469 10.5469 7.95898 15.4297 7.95898L74.4629 7.95898C79.2969 7.95898 82.0312 10.5469 82.0312 15.625L82.0312 74.4629C82.0312 79.541 79.2969 82.1289 74.4629 82.1289Z" fill="#000000" fill-opacity="0.85"/>
  <path d="M45.752 73.7793C47.1191 73.7793 48.1445 72.8027 48.1445 71.3867L48.1445 68.1152L48.7793 68.1152C57.8613 68.1152 63.623 63.1348 63.623 55.2246C63.623 49.707 60.3516 45.6055 55.2734 44.0918C58.8867 42.334 61.4258 38.4766 61.4258 34.3262C61.4258 27.5879 56.2988 22.7051 48.7793 22.7051L48.1445 22.7051L48.1445 18.9941C48.1445 17.627 47.1191 16.6504 45.752 16.6504C44.4336 16.6504 43.4082 17.627 43.4082 18.9941L43.4082 22.7051L36.084 22.7051C33.8379 22.7051 32.2266 24.2676 32.2266 26.5625L32.2266 64.3066C32.2266 66.5527 33.7891 68.1152 36.084 68.1152L43.4082 68.1152L43.4082 71.3867C43.4082 72.8027 44.4336 73.7793 45.752 73.7793ZM38.5254 62.4023L38.5254 47.5586L43.4082 47.5586L43.4082 62.3535ZM48.1445 62.3047L48.1445 47.6074C54.2969 47.9492 57.373 50.4395 57.373 54.9805C57.373 59.5703 54.2969 62.0605 48.1445 62.3047ZM38.5254 41.8945L38.5254 28.3691L43.4082 28.3691L43.4082 41.8945ZM48.1445 41.6504L48.1445 28.4668C52.6855 28.8574 55.127 31.0547 55.127 34.8145C55.127 38.623 52.7832 41.0156 48.1445 41.6504Z" fill="#000000" fill-opacity="0.85"/>
 </g>
</svg>
