<?xml version="1.0" encoding="UTF-8"?>
<!--Generator: Apple Native CoreSVG 232.5-->
<!DOCTYPE svg
PUBLIC "-//W3C//DTD SVG 1.1//EN"
       "http://www.w3.org/Graphics/SVG/1.1/DTD/svg11.dtd">
<svg version="1.1" xmlns="http://www.w3.org/2000/svg" xmlns:xlink="http://www.w3.org/1999/xlink" width="99.6094" height="99.6582">
 <g>
  <rect height="99.6582" opacity="0" width="99.6094" x="0" y="0"/>
  <path d="M49.8047 99.6094C77.0508 99.6094 99.6094 77.002 99.6094 49.8047C99.6094 22.5586 77.002 0 49.7559 0C22.5586 0 0 22.5586 0 49.8047C0 77.002 22.6074 99.6094 49.8047 99.6094ZM49.8047 91.3086C26.7578 91.3086 8.34961 72.8516 8.34961 49.8047C8.34961 26.7578 26.709 8.30078 49.7559 8.30078C72.8027 8.30078 91.3086 26.7578 91.3086 49.8047C91.3086 72.8516 72.8516 91.3086 49.8047 91.3086Z" fill="#000000" fill-opacity="0.85"/>
  <path d="M50.5371 78.6133C51.9043 78.6133 52.9297 77.6367 52.9297 76.2207L52.9297 72.9492L53.5645 72.9492C62.6465 72.9492 68.4082 67.9688 68.4082 60.0586C68.4082 54.541 65.1367 50.4395 60.0586 48.9258C63.623 47.168 66.1621 43.3105 66.1621 39.1602C66.1621 32.4219 61.084 27.5391 53.5645 27.5391L52.9297 27.5391L52.9297 23.8281C52.9297 22.4609 51.9043 21.4844 50.5371 21.4844C49.2188 21.4844 48.1934 22.4609 48.1934 23.8281L48.1934 27.5391L40.8691 27.5391C38.623 27.5391 37.0117 29.1016 37.0117 31.3965L37.0117 69.1406C37.0117 71.3867 38.5742 72.9492 40.8691 72.9492L48.1934 72.9492L48.1934 76.2207C48.1934 77.6367 49.2188 78.6133 50.5371 78.6133ZM43.3105 67.2363L43.3105 52.3926L48.1934 52.3926L48.1934 67.1875ZM52.9297 67.1387L52.9297 52.4414C59.082 52.7832 62.1582 55.2734 62.1582 59.8145C62.1582 64.4043 59.082 66.8945 52.9297 67.1387ZM43.2617 46.7285L43.3105 33.2031L48.1934 33.2031L48.1934 46.7285ZM52.9297 46.4844L52.9297 33.3008C57.4707 33.6914 59.9121 35.8887 59.9121 39.6484C59.9121 43.457 57.5684 45.8496 52.9297 46.4844Z" fill="#000000" fill-opacity="0.85"/>
 </g>
</svg>
