<?xml version="1.0" encoding="UTF-8"?>
<!--Generator: Apple Native CoreSVG 232.5-->
<!DOCTYPE svg
PUBLIC "-//W3C//DTD SVG 1.1//EN"
       "http://www.w3.org/Graphics/SVG/1.1/DTD/svg11.dtd">
<svg version="1.1" xmlns="http://www.w3.org/2000/svg" xmlns:xlink="http://www.w3.org/1999/xlink" width="58.7891" height="109.619">
 <g>
  <rect height="109.619" opacity="0" width="58.7891" x="0" y="0"/>
  <path d="M6.05469 98.5352L29.541 98.5352C47.8027 98.5352 58.7891 89.5996 58.7891 74.6582C58.7891 62.8906 50.7324 54.7363 38.8184 53.2715L38.8184 52.8809C47.7051 51.2695 54.3457 42.9688 54.3457 33.6426C54.3457 20.8008 44.3359 12.2559 29.4434 12.2559L6.05469 12.2559C2.39258 12.2559 0 14.6484 0 18.3105L0 92.4805C0 96.1426 2.39258 98.5352 6.05469 98.5352ZM9.32617 20.459L27.2949 20.459C38.3789 20.459 45.0195 25.5371 45.0195 34.6191C45.0195 44.5312 37.5488 49.9512 24.6094 49.9512L9.32617 49.9512ZM9.32617 90.332L9.32617 58.2031L26.9531 58.2031C41.4062 58.2031 49.3164 63.7207 49.3164 74.2676C49.3164 84.7656 41.6504 90.332 28.0762 90.332ZM21.9238 106.396C21.9238 108.154 23.3887 109.619 25.1465 109.619C26.9043 109.619 28.3203 108.154 28.3203 106.396L28.3203 3.56445C28.3203 1.80664 26.9043 0.341797 25.1465 0.341797C23.3887 0.341797 21.9238 1.80664 21.9238 3.56445Z" fill="#000000" fill-opacity="0.85"/>
 </g>
</svg>
