<?xml version="1.0" encoding="UTF-8"?>
<!--Generator: Apple Native CoreSVG 232.5-->
<!DOCTYPE svg
PUBLIC "-//W3C//DTD SVG 1.1//EN"
       "http://www.w3.org/Graphics/SVG/1.1/DTD/svg11.dtd">
<svg version="1.1" xmlns="http://www.w3.org/2000/svg" xmlns:xlink="http://www.w3.org/1999/xlink" width="107.227" height="146.826">
 <g>
  <rect height="146.826" opacity="0" width="107.227" x="0" y="0"/>
  <path d="M30.8594 39.0625C30.8594 57.6615 38.7491 74.193 50.9947 82.4624C47.688 86.7038 43.5105 89.7613 38.7929 91.144L40.1855 96.582C40.625 98.3398 39.7949 100.195 37.4512 100.195L35.0927 100.195C36.0628 107.066 42.8711 108.187 42.8711 117.236C42.8711 126.514 34.6191 127.783 34.6191 137.109C34.6191 138.77 33.2031 140.186 31.4453 140.186C29.7852 140.186 28.4668 138.77 28.4668 137.109C28.4668 123.828 36.7676 123.73 36.7676 117.236C36.7676 111.012 29.6284 110.143 28.8765 100.195L26.3672 100.195C24.1211 100.195 23.1934 98.3398 23.6328 96.582L25.1797 90.5419C14.2898 86.2068 6.64062 72.8122 6.64062 57.0312C6.64062 42.3949 16.2458 30.1481 31.8925 29.6855C31.2003 32.6628 30.8594 35.8074 30.8594 39.0625Z" fill="#000000" fill-opacity="0.85"/>
  <path d="M69.043 81.4453C86.7188 81.4453 100.586 62.5977 100.586 39.0625C100.586 20.5566 87.6465 6.64062 69.043 6.64062C50.3906 6.64062 37.5488 20.5566 37.5488 39.0625C37.5488 62.5977 51.3184 81.4453 69.043 81.4453ZM62.207 78.0762L59.8633 86.8652C59.375 88.8184 60.4492 90.918 62.8906 90.918L75.1465 90.918C77.6367 90.918 78.7598 88.8184 78.1738 86.8652L75.8301 78.0762ZM68.4082 139.502C70.3125 139.502 71.9238 137.891 71.9238 135.986C71.9238 125.293 81.6406 122.803 81.6406 111.963C81.6406 100.83 72.2168 98.7305 72.3145 89.0137L65.3809 89.0625C65.332 102.295 74.7559 104.346 74.7559 111.963C74.7559 119.727 64.9902 120.898 64.9902 135.986C64.9902 137.891 66.5039 139.502 68.4082 139.502Z" fill="#000000" fill-opacity="0.85"/>
 </g>
</svg>
