<?xml version="1.0" encoding="UTF-8"?>
<!--Generator: Apple Native CoreSVG 232.5-->
<!DOCTYPE svg
PUBLIC "-//W3C//DTD SVG 1.1//EN"
       "http://www.w3.org/Graphics/SVG/1.1/DTD/svg11.dtd">
<svg version="1.1" xmlns="http://www.w3.org/2000/svg" xmlns:xlink="http://www.w3.org/1999/xlink" width="93.9453" height="133.545">
 <g>
  <rect height="133.545" opacity="0" width="93.9453" x="0" y="0"/>
  <path d="M31.9142 23.6688C31.3131 26.0016 30.9735 28.4716 30.9191 31.0503C29.4471 30.6628 27.8728 30.4688 26.2207 30.4688C15.0879 30.4688 7.42188 39.3555 7.42188 50.3906C7.42188 65.625 15.5273 77.9785 26.2207 77.9785C33.1061 77.9785 38.9185 72.8568 42.1698 65.1268C43.9276 67.091 45.8531 68.7977 47.9311 70.1753C44.3184 77.3251 38.7536 82.5644 32.1216 84.5129L33.5449 89.9414C34.0332 91.6992 33.1055 93.5547 30.8105 93.5547L28.4512 93.5547C29.4148 100.426 36.1816 101.546 36.1816 110.596C36.1816 119.873 27.9785 121.143 27.9785 130.469C27.9785 132.129 26.5625 133.545 24.8047 133.545C23.0957 133.545 21.8262 132.129 21.8262 130.469C21.8262 117.188 30.0781 117.09 30.0781 110.596C30.0781 104.372 22.939 103.502 22.2281 93.5547L19.7266 93.5547C17.4805 93.5547 16.4551 91.6992 16.9922 89.9414L18.539 83.9013C7.64921 79.5662 0 66.1716 0 50.3906C0 35.0098 10.7422 23.0957 26.2207 23.0957C28.2013 23.0957 30.1043 23.2908 31.9142 23.6688Z" fill="#000000" fill-opacity="0.85"/>
  <path d="M62.3535 74.8047C80.0781 74.8047 93.9453 55.957 93.9453 32.4219C93.9453 13.916 81.0059 0 62.3535 0C43.7012 0 30.8594 13.916 30.8594 32.4219C30.8594 55.957 44.6777 74.8047 62.3535 74.8047ZM62.3535 67.4805C48.7305 67.4805 38.2324 51.5625 38.2324 32.4219C38.2324 18.457 48.1934 7.37305 62.3535 7.37305C76.5137 7.37305 86.5723 18.457 86.5723 32.4219C86.5723 51.5625 75.9277 67.4805 62.3535 67.4805ZM55.5176 71.4355L53.2227 80.2246C52.6367 82.1777 53.7598 84.2773 56.25 84.2773L68.5059 84.2773C70.9961 84.2773 72.0703 82.1777 71.5332 80.2246L69.1895 71.4355ZM61.7676 132.861C63.6719 132.861 65.2832 131.25 65.2832 129.346C65.2832 118.652 75 116.162 75 105.322C75 94.1895 65.5762 92.0898 65.6738 82.373L58.7402 82.4219C58.6914 95.6543 68.1152 97.7051 68.1152 105.322C68.1152 113.086 58.3496 114.258 58.3496 129.346C58.3496 131.25 59.8633 132.861 61.7676 132.861Z" fill="#000000" fill-opacity="0.85"/>
 </g>
</svg>
