<?xml version="1.0" encoding="UTF-8"?>
<!--Generator: Apple Native CoreSVG 232.5-->
<!DOCTYPE svg
PUBLIC "-//W3C//DTD SVG 1.1//EN"
       "http://www.w3.org/Graphics/SVG/1.1/DTD/svg11.dtd">
<svg version="1.1" xmlns="http://www.w3.org/2000/svg" xmlns:xlink="http://www.w3.org/1999/xlink" width="100.305" height="100.381">
 <g>
  <rect height="100.381" opacity="0" width="100.305" x="0" y="0"/>
  <path d="M7.37927 92.9394C17.4379 103.144 31.305 102.754 42.7797 92.1093L51.2269 84.1992C46.9789 85.4199 42.682 84.5898 37.8968 79.8535L20.1234 62.0312C15.3382 57.2949 14.8988 53.3398 16.1195 49.0917L8.20934 57.539C-2.48402 69.0624-2.67933 82.7831 7.37927 92.9394ZM42.4867 74.873C47.3695 79.7558 52.1058 79.9023 57.0863 74.873L74.8597 57.0507C79.9379 52.0214 79.8402 47.3828 74.9574 42.4999L57.8187 25.3613C52.9359 20.4785 48.2972 20.3808 43.2679 25.4589L25.4457 43.2324C20.4652 48.2617 20.5629 52.9492 25.4457 57.832ZM36.6273 53.4374C34.7718 51.582 34.7718 48.7499 36.6273 46.8945C38.4828 45.039 41.3148 45.0878 43.1703 46.9433C44.8793 48.7011 44.9281 51.582 43.1703 53.3398C41.2172 55.2929 38.3851 55.1953 36.6273 53.4374ZM46.9789 43.1347C45.1234 41.2792 45.1234 38.3984 46.8812 36.5917C48.7367 34.7363 51.5687 34.7363 53.4242 36.5917C55.2308 38.3984 55.2797 41.2304 53.3754 43.1347C51.6175 44.8437 48.6879 44.8437 46.9789 43.1347ZM63.7269 53.4374C61.9203 55.1953 59.0394 55.1953 57.184 53.3398C55.475 51.6308 55.475 48.7011 57.184 46.9433C59.0882 45.039 61.9203 45.0878 63.7269 46.8945C65.5824 48.7499 65.5824 51.582 63.7269 53.4374ZM46.8812 63.6913C45.1234 61.9335 45.0257 59.1015 46.9789 57.1972C48.7367 55.3906 51.6175 55.4394 53.3754 57.1972C55.2308 59.0038 55.2797 61.9335 53.4242 63.6913C51.5199 65.5468 48.7367 65.5468 46.8812 63.6913ZM84.2347 51.3378L92.0961 42.7929C102.741 31.2206 103.034 17.5488 92.975 7.39252C82.8675-2.81256 69.0492-2.37311 57.5257 8.22259L49.0297 16.0839C53.2289 14.8632 57.7699 15.8398 62.555 20.6249L80.3285 38.3984C85.1136 43.1347 85.4554 47.0898 84.2347 51.3378Z" fill="#000000" fill-opacity="0.85"/>
 </g>
</svg>
