<?xml version="1.0" encoding="UTF-8"?>
<!--Generator: Apple Native CoreSVG 232.5-->
<!DOCTYPE svg
PUBLIC "-//W3C//DTD SVG 1.1//EN"
       "http://www.w3.org/Graphics/SVG/1.1/DTD/svg11.dtd">
<svg version="1.1" xmlns="http://www.w3.org/2000/svg" xmlns:xlink="http://www.w3.org/1999/xlink" width="128.906" height="80.7129">
 <g>
  <rect height="80.7129" opacity="0" width="128.906" x="0" y="0"/>
  <path d="M14.0137 65.5273C14.0137 66.3086 14.4531 66.6992 15.1855 66.6992L53.3691 66.6992C48.1934 61.4258 45.166 52.0996 45.166 40.2832C45.166 28.5156 48.1934 19.2383 53.2715 14.0137L15.1855 14.0137C14.4531 14.0137 14.0137 14.4043 14.0137 15.1855ZM51.0254 40.2832C51.0254 55.5176 56.2988 65.7227 64.2578 65.7227C72.4609 65.7227 77.9785 55.5176 77.9785 40.2832C77.9785 25.0488 72.4609 14.8926 64.2578 14.8926C56.2988 14.8926 51.0254 25.0488 51.0254 40.2832ZM75.4395 66.6992L113.721 66.6992C114.453 66.6992 114.893 66.3086 114.893 65.5273L114.893 15.1855C114.893 14.4043 114.453 14.0137 113.721 14.0137L75.4883 14.0137C80.7129 19.2383 83.7891 28.5156 83.7891 40.2832C83.7891 52.0996 80.6641 61.4258 75.4395 66.6992Z" fill="#000000" fill-opacity="0.85"/>
  <path d="M0 76.8066C0 79.1504 1.5625 80.7129 3.90625 80.7129L125.049 80.7129C127.393 80.7129 128.906 79.1504 128.906 76.8066L128.906 3.85742C128.906 1.51367 127.393 0 125.049 0L3.90625 0C1.5625 0 0 1.51367 0 3.85742ZM8.93555 68.7988L8.93555 11.9141C8.93555 9.96094 10.0586 8.93555 11.8652 8.93555L117.041 8.93555C118.896 8.93555 119.971 9.96094 119.971 11.9141L119.971 68.7988C119.971 70.7031 118.896 71.7773 117.041 71.7773L11.8652 71.7773C10.0586 71.7773 8.93555 70.7031 8.93555 68.7988Z" fill="#000000" fill-opacity="0.85"/>
 </g>
</svg>
