<?xml version="1.0" encoding="UTF-8"?>
<!--Generator: Apple Native CoreSVG 232.5-->
<!DOCTYPE svg
PUBLIC "-//W3C//DTD SVG 1.1//EN"
       "http://www.w3.org/Graphics/SVG/1.1/DTD/svg11.dtd">
<svg version="1.1" xmlns="http://www.w3.org/2000/svg" xmlns:xlink="http://www.w3.org/1999/xlink" width="99.6094" height="99.6582">
 <g>
  <rect height="99.6582" opacity="0" width="99.6094" x="0" y="0"/>
  <path d="M49.8047 99.6094C77.0508 99.6094 99.6094 77.002 99.6094 49.8047C99.6094 22.5586 77.002 0 49.7559 0C22.5586 0 0 22.5586 0 49.8047C0 77.002 22.6074 99.6094 49.8047 99.6094ZM49.8047 91.3086C26.7578 91.3086 8.34961 72.8516 8.34961 49.8047C8.34961 26.7578 26.709 8.30078 49.7559 8.30078C72.8027 8.30078 91.3086 26.7578 91.3086 49.8047C91.3086 72.8516 72.8516 91.3086 49.8047 91.3086Z" fill="#000000" fill-opacity="0.85"/>
  <path d="M49.6582 60.6445C55.6152 60.6445 60.498 55.7617 60.498 49.8047C60.498 43.7988 55.6152 38.9648 49.6582 38.9648C43.7012 38.9648 38.8184 43.7988 38.8184 49.8047C38.8184 55.7617 43.7012 60.6445 49.6582 60.6445ZM49.6582 54.4922C47.0703 54.4922 44.9707 52.3926 44.9707 49.8047C44.9707 47.168 47.0703 45.1172 49.6582 45.1172C52.2461 45.1172 54.3457 47.168 54.3457 49.8047C54.3457 52.3926 52.2461 54.4922 49.6582 54.4922ZM47.4609 57.7148L41.8945 52.1484L34.7168 59.3262C33.2031 60.8398 33.2031 63.3789 34.7168 64.8926C36.2305 66.4062 38.7207 66.4062 40.2832 64.8926ZM52.0996 41.9922L57.666 47.4609L74.9512 30.1758C76.5137 28.6621 76.5137 26.1719 74.9512 24.6094C73.4375 23.0957 70.9473 23.0957 69.4336 24.6094Z" fill="#000000" fill-opacity="0.85"/>
 </g>
</svg>
