<?xml version="1.0" encoding="UTF-8"?>
<!--Generator: Apple Native CoreSVG 232.5-->
<!DOCTYPE svg
PUBLIC "-//W3C//DTD SVG 1.1//EN"
       "http://www.w3.org/Graphics/SVG/1.1/DTD/svg11.dtd">
<svg version="1.1" xmlns="http://www.w3.org/2000/svg" xmlns:xlink="http://www.w3.org/1999/xlink" width="99.6094" height="99.6582">
 <g>
  <rect height="99.6582" opacity="0" width="99.6094" x="0" y="0"/>
  <path d="M38.623 94.7754L43.4082 95.9473C47.6074 82.959 46.6309 68.3105 39.3066 55.7129C32.0312 43.1641 19.9219 34.9121 6.64062 32.0801L5.27344 36.7676C17.2363 39.3066 28.1738 46.7773 34.8633 58.3008C41.5527 69.873 42.4805 83.0566 38.623 94.7754ZM18.5059 44.5801L22.998 36.3281C23.584 35.2539 23.2422 33.9355 22.168 33.3984C21.0449 32.7637 19.6777 33.0566 19.0918 34.1797L14.6484 42.3828C14.0137 43.5059 14.4043 44.873 15.5273 45.4102C16.6016 46.0449 17.8711 45.7031 18.5059 44.5801ZM27.4414 51.0742L33.9844 44.3848C34.9121 43.457 34.8633 42.0898 33.9844 41.3086C33.1055 40.3809 31.7383 40.2832 30.8105 41.2109L24.2676 47.9004C23.3398 48.7793 23.3887 50.2441 24.3164 51.0254C25.1953 51.9043 26.5137 51.9531 27.4414 51.0742ZM34.375 61.084L42.5293 56.4941C43.7012 55.8594 43.9941 54.4922 43.3594 53.4668C42.7246 52.3926 41.4062 51.9531 40.332 52.5879L32.1777 57.1289C31.0547 57.7637 30.7129 59.1797 31.3965 60.2051C32.0312 61.2793 33.252 61.6699 34.375 61.084ZM38.0371 72.4121L47.1191 70.0684C48.291 69.7266 48.9746 68.5059 48.6816 67.334C48.3398 66.1133 47.2168 65.3809 45.9473 65.7227L36.9141 68.0664C35.6934 68.3594 35.0098 69.5801 35.3027 70.752C35.6445 71.9727 36.8164 72.7051 38.0371 72.4121ZM38.7207 83.8867L48.0469 84.1309C49.3164 84.1797 50.293 83.1543 50.293 81.9336C50.3418 80.7617 49.3652 79.7363 48.1445 79.6875L38.8184 79.4434C37.5488 79.3945 36.5723 80.4199 36.5234 81.6406C36.5234 82.8613 37.5 83.8379 38.7207 83.8867ZM92.8223 67.4316L94.1406 62.6465C82.0801 60.1562 71.1426 52.7344 64.4531 41.2109C57.8125 29.5898 56.8359 16.3574 60.6934 4.6875L55.9082 3.61328C51.709 16.5527 52.7344 31.1035 60.0098 43.75C67.2852 56.3965 79.4434 64.502 92.8223 67.4316ZM60.6934 20.166C61.9629 20.2148 62.8906 19.2871 62.8906 18.0176C62.9395 16.7969 61.9629 15.7715 60.7422 15.7227L51.416 15.4297C50.1465 15.4785 49.1699 16.4551 49.1699 17.7246C49.1211 18.9453 50.0488 19.9219 51.3184 19.9219ZM61.8652 31.2012C63.0859 30.8594 63.7695 29.6875 63.3789 28.5156C63.1348 27.2949 61.9629 26.5625 60.7422 26.9043L51.6602 29.1992C50.3906 29.541 49.8047 30.7617 50.1953 31.9336C50.3906 33.1543 51.5625 33.8379 52.7832 33.4961ZM67.1387 42.2363C68.2617 41.6016 68.5547 40.3809 67.9688 39.209C67.3828 38.1836 66.0645 37.6953 64.9902 38.3789L56.7871 43.0176C55.7129 43.6035 55.4199 44.9707 56.0547 46.0449C56.543 47.0703 57.9102 47.5586 58.9844 46.875ZM75.1953 51.0254C76.123 50.0488 76.0742 48.6816 75.1465 47.8027C74.3164 46.9727 72.9004 46.9238 72.0215 47.8516L65.4297 54.541C64.5508 55.3711 64.5996 56.7871 65.5273 57.6172C66.3574 58.4473 67.7246 58.4961 68.6035 57.6172ZM84.8145 57.2754C85.4492 56.1523 85.0098 54.8828 83.9355 54.1992C82.8613 53.6621 81.4941 54.0039 80.957 55.0781L76.4648 63.2812C75.8301 64.3555 76.2207 65.7227 77.2949 66.3086C78.3203 66.8945 79.7852 66.5527 80.3223 65.4297ZM49.8047 99.6094C77.0508 99.6094 99.6094 77.002 99.6094 49.8047C99.6094 22.5586 77.002 0 49.7559 0C22.5586 0 0 22.5586 0 49.8047C0 77.002 22.6074 99.6094 49.8047 99.6094ZM49.8047 92.9688C26.2207 92.9688 6.64062 73.3887 6.64062 49.8047C6.64062 26.2207 26.1719 6.64062 49.7559 6.64062C73.3398 6.64062 92.9688 26.2207 92.9688 49.8047C92.9688 73.3887 73.3887 92.9688 49.8047 92.9688Z" fill="#000000" fill-opacity="0.85"/>
 </g>
</svg>
