<?xml version="1.0" encoding="UTF-8"?>
<!--Generator: Apple Native CoreSVG 232.5-->
<!DOCTYPE svg
PUBLIC "-//W3C//DTD SVG 1.1//EN"
       "http://www.w3.org/Graphics/SVG/1.1/DTD/svg11.dtd">
<svg version="1.1" xmlns="http://www.w3.org/2000/svg" xmlns:xlink="http://www.w3.org/1999/xlink" width="99.6094" height="99.6582">
 <g>
  <rect height="99.6582" opacity="0" width="99.6094" x="0" y="0"/>
  <path d="M49.8047 99.6094C77.0508 99.6094 99.6094 77.002 99.6094 49.8047C99.6094 22.5586 77.002 0 49.7559 0C22.5586 0 0 22.5586 0 49.8047C0 77.002 22.6074 99.6094 49.8047 99.6094ZM49.8047 91.3086C26.7578 91.3086 8.34961 72.8516 8.34961 49.8047C8.34961 26.7578 26.709 8.30078 49.7559 8.30078C72.8027 8.30078 91.3086 26.7578 91.3086 49.8047C91.3086 72.8516 72.8516 91.3086 49.8047 91.3086Z" fill="#000000" fill-opacity="0.85"/>
  <path d="M23.6328 48.6328C25.8789 45.752 28.4668 43.2129 31.3965 40.9668C31.3477 39.1113 30.1758 35.5469 28.2715 35.0098C25.5371 38.916 23.7305 44.2383 23.6328 48.6328ZM34.3262 38.8672C35.1074 38.3789 35.8887 37.8906 36.7188 37.4512C36.2305 33.1055 36.377 29.541 36.9629 27.0508C34.4238 28.5156 32.1289 30.3711 30.1758 32.5684C32.4219 33.3984 33.7891 36.4746 34.3262 38.8672ZM39.6484 35.9863C40.8691 35.4004 42.1875 34.9121 43.457 34.4238C43.4082 33.9844 43.4082 33.4473 43.4082 32.9102C43.4082 29.1016 45.2637 25.8301 48.291 23.6816C46.1914 23.7305 42.8223 24.4141 40.2344 25.4395C39.6973 27.4902 39.1602 31.0059 39.6484 35.9863ZM46.6797 33.5449C49.9023 32.666 53.3203 32.2754 56.7871 32.2754C61.7676 32.2754 66.748 33.1543 71.1426 34.8633C67.2852 29.3945 61.377 25.3906 54.5898 24.0723C49.4629 25.8301 46.3379 28.8574 46.6797 33.5449ZM23.9258 53.7598C24.8047 59.375 27.5391 64.4531 31.4453 68.3105C28.9551 61.2305 30.9082 52.5879 31.3477 45.1172C28.5156 47.6562 26.0254 50.4883 23.9258 53.7598ZM34.6191 42.5293C34.668 54.1016 29.5898 67.1875 40.2832 73.7793C43.1152 75.1465 46.3867 75.9766 49.8047 75.9766C51.0742 75.9766 52.3438 75.9277 53.6133 75.7324C43.8965 63.6719 39.0137 50.8789 37.207 40.8691C36.3281 41.3574 35.4492 41.9434 34.6191 42.5293ZM40.0391 39.3066C41.6504 49.0234 46.6309 62.4023 57.0312 74.9512C62.8418 73.2422 67.8223 69.5801 71.1914 64.6973C70.2148 52.3926 49.1211 48.4863 44.3359 37.5488C42.8711 37.9883 41.4551 38.623 40.0391 39.3066ZM47.4609 36.5723C51.6113 44.9219 69.1895 48.7793 73.584 60.5957C75.0977 57.2754 75.9766 53.6621 75.9766 49.8047C75.9766 46.1914 75.1953 42.7246 73.7793 39.5508C68.457 36.8164 62.9395 35.4492 56.7871 35.4492C53.6133 35.4492 50.4883 35.8398 47.4609 36.5723Z" fill="#000000" fill-opacity="0.85"/>
 </g>
</svg>
