<?xml version="1.0" encoding="UTF-8"?>
<!--Generator: Apple Native CoreSVG 232.5-->
<!DOCTYPE svg
PUBLIC "-//W3C//DTD SVG 1.1//EN"
       "http://www.w3.org/Graphics/SVG/1.1/DTD/svg11.dtd">
<svg version="1.1" xmlns="http://www.w3.org/2000/svg" xmlns:xlink="http://www.w3.org/1999/xlink" width="99.6094" height="99.5605">
 <g>
  <rect height="99.5605" opacity="0" width="99.6094" x="0" y="0"/>
  <path d="M0.0488281 49.1699C4.3457 43.2617 9.76562 37.793 15.6738 33.3008C15.625 33.1055 15.625 32.8613 15.5762 32.6172C15.3809 29.0527 13.0859 22.1191 8.93555 21.5332C3.61328 29.1504 0.341797 38.2812 0 48.0957C0 48.4863 0 48.8281 0.0488281 49.1699ZM20.8008 29.6875C22.3633 28.6621 23.9746 27.6855 25.5859 26.8066C24.5605 17.9688 24.9512 10.791 26.4648 5.85938C21.0449 8.78906 16.2598 12.6465 12.207 17.2363C17.0898 18.5547 19.8242 24.8047 20.8008 29.6875ZM30.7617 24.2188C33.1543 23.0957 35.6445 22.1191 38.1836 21.2891C38.0859 20.2637 37.9883 19.2871 37.9883 18.2617C37.9883 10.4492 42.1875 3.95508 48.7305 0C48.3887 0 48.1445 0 47.8027 0C42.334 0.195312 37.0117 1.31836 32.1289 3.22266C30.8105 7.56836 29.834 14.502 30.7617 24.2188ZM43.7012 19.6289C49.8047 18.0664 56.2012 17.2363 62.8418 17.2363C72.7539 17.2363 82.6172 19.1895 91.4551 22.8027C84.375 11.9141 73.1934 3.90625 60.1562 1.07422C49.8535 4.05273 43.3594 9.57031 43.6035 18.2617C43.6035 18.7012 43.6523 19.1895 43.7012 19.6289ZM15.5762 40.5762C9.96094 45.5566 4.73633 51.5137 0.683594 58.0078C2.58789 69.1406 8.34961 79.1504 16.5039 86.5723C10.5957 72.7051 14.8438 55.4199 15.5762 40.5762ZM21.3379 36.0352C21.4844 58.3496 11.4258 83.9355 33.0078 96.3379C38.1836 98.3887 43.8965 99.5605 49.8047 99.5605C52.5391 99.5605 55.2246 99.3652 57.8125 98.9258C39.1602 76.1719 29.7852 51.6602 26.4648 32.7148C24.707 33.7402 22.998 34.8145 21.3379 36.0352ZM39.6973 26.6113C36.9141 27.5879 34.1309 28.7109 31.4941 30.0293C34.4727 48.4375 43.8477 73.877 63.916 97.4609C74.5605 94.2871 83.7891 87.5488 90.1855 78.6133C89.4531 54.5898 48.584 47.4121 39.6973 26.6113ZM94.5801 71.3379C97.8027 64.7461 99.6094 57.4707 99.6094 49.7559C99.6094 43.1152 98.291 36.7188 95.8008 30.957C85.4004 25.5371 74.6582 22.8516 62.8418 22.8516C56.7383 22.8516 50.8301 23.584 45.2148 25C52.9785 41.0645 87.3535 48.291 94.5801 71.3379Z" fill="#000000" fill-opacity="0.85"/>
 </g>
</svg>
