<?xml version="1.0" encoding="UTF-8"?>
<!--Generator: Apple Native CoreSVG 232.5-->
<!DOCTYPE svg
PUBLIC "-//W3C//DTD SVG 1.1//EN"
       "http://www.w3.org/Graphics/SVG/1.1/DTD/svg11.dtd">
<svg version="1.1" xmlns="http://www.w3.org/2000/svg" xmlns:xlink="http://www.w3.org/1999/xlink" width="99.6094" height="99.6582">
 <g>
  <rect height="99.6582" opacity="0" width="99.6094" x="0" y="0"/>
  <path d="M99.6094 49.8047C99.6094 77.002 77.0508 99.6094 49.8047 99.6094C22.6074 99.6094 0 77.002 0 49.8047C0 22.5586 22.5586 0 49.7559 0C77.002 0 99.6094 22.5586 99.6094 49.8047ZM31.3477 34.082C27.5879 34.082 24.0723 34.4727 21.5332 36.9141C19.1406 39.4043 18.75 42.8711 18.75 46.582L18.75 53.0273C18.75 56.7383 19.1406 60.2051 21.5332 62.6953C24.0723 65.1367 27.5391 65.4785 31.3477 65.4785L65.1855 65.4785C68.9453 65.4785 72.4121 65.1367 74.8535 62.6953C77.2949 60.2051 77.7344 56.7383 77.7344 53.0273L77.7344 46.582C77.7344 42.8711 77.2949 39.4043 74.8535 36.9141C72.4121 34.4727 68.8965 34.082 65.1855 34.082ZM70.8008 41.0645C71.582 41.8457 72.1191 43.5547 72.1191 45.9473L72.1191 53.6133C72.1191 56.0547 71.582 57.7637 70.8008 58.5449C69.9219 59.4238 68.2129 59.8633 65.8203 59.8633L30.6641 59.8633C28.2227 59.8633 26.5625 59.4238 25.6836 58.5449C24.8535 57.7637 24.5117 56.1035 24.5117 53.6133L24.5117 45.9473C24.5117 43.457 24.8535 41.7969 25.6836 41.0156C26.5625 40.1367 28.2715 39.6973 30.6641 39.6973L65.8203 39.6973C68.1641 39.6973 69.9219 40.1367 70.8008 41.0645ZM30.9082 42.627C29.5898 42.627 28.7109 42.8223 28.1738 43.3105C27.6855 43.8965 27.4414 44.6777 27.4414 46.0449L27.4414 53.4668C27.4414 54.834 27.6855 55.6641 28.1738 56.2012C28.7109 56.7383 29.5898 56.8848 30.9082 56.8848L65.625 56.8848C66.9922 56.8848 67.7734 56.7383 68.3105 56.2012C68.8965 55.6152 69.1406 54.7852 69.1406 53.4668L69.1406 46.0449C69.1406 44.7266 68.8965 43.8965 68.3105 43.3105C67.7734 42.8223 66.9922 42.627 65.625 42.627ZM79.9316 55.7617C81.6895 55.6152 84.1797 53.2715 84.1797 49.8047C84.1797 46.3379 81.6895 43.9941 79.9316 43.8477Z" fill="#000000" fill-opacity="0.85"/>
 </g>
</svg>
