<?xml version="1.0" encoding="UTF-8"?>
<!--Generator: Apple Native CoreSVG 232.5-->
<!DOCTYPE svg
PUBLIC "-//W3C//DTD SVG 1.1//EN"
       "http://www.w3.org/Graphics/SVG/1.1/DTD/svg11.dtd">
<svg version="1.1" xmlns="http://www.w3.org/2000/svg" xmlns:xlink="http://www.w3.org/1999/xlink" width="117.175" height="117.212">
 <g>
  <rect height="117.212" opacity="0" width="117.175" x="0" y="0"/>
  <path d="M90.0954 103.504L16.3758 103.504C6.17069 103.504 1.04373 98.4742 1.04373 88.4156L1.04373 41.1988C1.04373 32.373 4.99102 27.4192 12.8549 26.3398ZM49.2859 19.568L49.2859 26.111L67.9383 26.111L67.9383 19.568C67.9383 15.8571 70.0379 13.611 73.7976 13.611L88.2019 13.611C91.9617 13.611 94.1101 15.8571 94.1101 19.568L94.1101 26.111L100.848 26.111C111.102 26.111 116.18 31.1403 116.18 41.1988L116.18 88.4156C116.18 93.2027 115.03 96.8506 112.705 99.3455L27.1461 13.829C27.7154 13.6844 28.3425 13.611 29.0222 13.611L43.4265 13.611C47.1863 13.611 49.2859 15.8571 49.2859 19.568Z" fill="#000000" fill-opacity="0.85"/>
  <path d="M105.048 110.388C106.561 111.853 108.954 111.902 110.37 110.388C111.835 108.923 111.884 106.531 110.37 105.066L12.1765 6.92151C10.7117 5.45666 8.27029 5.40783 6.80545 6.92151C5.34061 8.33752 5.34061 10.7789 6.80545 12.2438Z" fill="#000000" fill-opacity="0.85"/>
 </g>
</svg>
