<?xml version="1.0" encoding="UTF-8"?>
<!--Generator: Apple Native CoreSVG 232.5-->
<!DOCTYPE svg
PUBLIC "-//W3C//DTD SVG 1.1//EN"
       "http://www.w3.org/Graphics/SVG/1.1/DTD/svg11.dtd">
<svg version="1.1" xmlns="http://www.w3.org/2000/svg" xmlns:xlink="http://www.w3.org/1999/xlink" width="98.599" height="115.819">
 <g>
  <rect height="115.819" opacity="0" width="98.599" x="0" y="0"/>
  <path d="M55.4763 24.9751L63.2399 27.8071L71.1501 5.98092C72.029 3.58834 71.0524 1.34225 68.7575 0.463342C66.4626-0.366736 64.3142 0.707483 63.4353 3.14889ZM56.3064 8.95944C27.7419 3.10006 6.59932 22.2895 0.349324 39.6723C-0.676066 42.4067 0.691121 44.7016 2.69307 45.4829C4.3044 46.0688 5.72042 45.3852 6.98995 44.3598C11.531 40.9907 15.779 39.5747 20.8083 41.4301C24.1774 42.6508 26.1306 44.9458 27.3024 47.2407C28.0349 48.6567 29.4509 48.7055 29.8415 47.143C33.9919 30.8833 43.9528 17.2602 56.3064 8.95944ZM66.1208 7.20162C52.2048 16.6255 40.0466 33.1294 35.8474 50.5122C35.4567 52.1723 36.7263 53.2954 38.6794 52.563C42.5857 50.9516 46.3454 50.4145 49.9099 51.7329C53.4743 53.0024 56.0134 55.8344 58.0153 59.5942C58.9919 61.352 60.6032 61.4008 61.4333 59.8383C69.3923 43.8715 70.7107 23.3149 66.1208 7.20162ZM72.7614 14.9165C76.863 29.1743 75.6911 45.9712 68.5134 61.2544C67.8298 62.6704 68.8552 63.5981 70.3689 62.9145C72.8103 61.8891 75.7399 61.4008 79.0603 62.6215C84.1384 64.477 86.4821 68.3344 87.8005 73.7544C88.0935 75.3657 88.8259 76.8305 90.3396 77.3676C92.3903 78.1001 94.9294 77.2212 95.906 74.438C102.254 57.104 98.445 28.8325 72.7614 14.9165ZM24.4216 110.327C23.6403 112.475 24.7146 114.819 26.863 115.6C28.9626 116.332 31.404 115.161 32.1364 113.11L54.695 51.2446L46.9802 48.4126Z" fill="#000000" fill-opacity="0.85"/>
 </g>
</svg>
