<?xml version="1.0" encoding="UTF-8"?>
<!--Generator: Apple Native CoreSVG 232.5-->
<!DOCTYPE svg
PUBLIC "-//W3C//DTD SVG 1.1//EN"
       "http://www.w3.org/Graphics/SVG/1.1/DTD/svg11.dtd">
<svg version="1.1" xmlns="http://www.w3.org/2000/svg" xmlns:xlink="http://www.w3.org/1999/xlink" width="98.5577" height="115.731">
 <g>
  <rect height="115.731" opacity="0" width="98.5577" x="0" y="0"/>
  <path d="M0.32864 39.5796C-0.647923 42.3628 0.670437 44.6577 2.72122 45.3901C4.28372 45.9761 5.79739 45.2436 7.06692 44.2183C11.5103 40.9468 15.7583 39.4819 20.8365 41.3374C25.9146 43.144 27.9654 46.9038 28.8443 52.1284C29.0884 53.8374 29.6743 55.2046 31.1392 55.7417C32.7017 56.3276 34.02 55.644 35.3384 54.521C38.2681 52.0308 42.2232 50.7612 45.9829 50.9565L24.3521 110.234C23.5708 112.333 24.6939 114.726 26.8423 115.507C28.8931 116.24 31.3345 115.117 32.1157 113.017L53.6978 53.7397C56.6763 56.0347 58.8247 59.5503 59.4595 63.3589C59.8013 64.9702 60.3384 66.3862 61.8521 66.9233C63.3657 67.4604 64.6841 66.728 66.0025 65.6538C70.0552 62.2358 73.9615 60.6733 79.0396 62.48C84.1177 64.3843 86.4615 68.1929 87.731 73.6616C88.1216 75.2241 88.7564 76.7378 90.3189 77.2749C92.3697 78.0073 94.9575 77.1284 95.8853 74.3452C102.526 56.1323 97.9849 25.7612 68.5904 12.7729L71.1294 5.88818C71.9595 3.44677 71.0318 1.24951 68.688 0.370601C66.4419-0.459477 64.2447 0.663569 63.3657 3.05615L60.8755 9.98974C30.0161 1.00537 6.96926 21.269 0.32864 39.5796ZM11.7544 33.9155C20.0552 21.1714 35.6802 13.1147 53.1607 16.0933C45.2993 21.269 37.731 30.3511 32.7993 42.0698C30.8462 38.3101 27.6724 35.7222 23.4732 34.2573C19.5181 32.8413 15.6607 32.6948 11.7544 33.9155ZM38.7075 44.5112C44.274 31.2788 53.649 21.7573 62.145 18.3394C66.5396 26.4448 67.6138 39.7261 63.3657 53.5444C61.022 49.4917 57.0669 46.2202 52.6236 44.5601C48.1802 42.9487 43.0532 42.9487 38.7075 44.5112ZM69.4204 55.3999C73.229 43.2417 73.2779 31.4741 70.5923 22.4409C85.8267 31.4253 92.6138 47.6362 90.7583 62.6753C88.5611 59.2573 85.4849 56.8647 81.6275 55.3999C77.4282 53.8862 73.3267 53.7886 69.4204 55.3999Z" fill="#000000" fill-opacity="0.85"/>
 </g>
</svg>
