<?xml version="1.0" encoding="UTF-8"?>
<!--Generator: Apple Native CoreSVG 232.5-->
<!DOCTYPE svg
PUBLIC "-//W3C//DTD SVG 1.1//EN"
       "http://www.w3.org/Graphics/SVG/1.1/DTD/svg11.dtd">
<svg version="1.1" xmlns="http://www.w3.org/2000/svg" xmlns:xlink="http://www.w3.org/1999/xlink" width="84.1309" height="80.0293">
 <g>
  <rect height="80.0293" opacity="0" width="84.1309" x="0" y="0"/>
  <path d="M35.8887 50.2441C42.7246 53.1738 50.6348 49.8047 53.6133 43.0664L63.4766 20.6055C66.4551 13.8184 63.1836 5.81055 56.3477 2.83203C49.4629-0.0976562 41.5527 3.125 38.5254 10.0586L28.7109 32.5195C25.6836 39.3555 29.0039 47.2656 35.8887 50.2441ZM40.8203 46.2402C36.1328 46.2402 32.4707 42.5293 32.4707 37.8418C32.4707 33.2031 36.1816 29.4434 40.8203 29.4434C45.5566 29.4434 49.2676 33.2031 49.2676 37.8418C49.2676 42.5293 45.5566 46.2402 40.8203 46.2402ZM40.8203 42.7734C43.7012 42.7734 45.752 40.5762 45.752 37.8418C45.752 35.1562 43.7012 32.9102 40.8203 32.9102C38.0371 32.9102 35.9375 35.1562 35.9375 37.8418C35.9375 40.5762 38.0371 42.7734 40.8203 42.7734ZM83.0566 35.8887C80.5176 27.4902 74.2676 23.4863 68.9453 18.9941C68.6523 20.2148 68.3105 21.3379 67.7734 22.5098L57.9102 44.9707C53.8574 54.1992 43.2129 58.4473 33.9844 54.5898C24.9512 50.6348 20.6055 40.4785 24.0723 31.4941C19.5801 36.8652 18.5547 45.0684 21.9238 54.3457C28.0273 71.4844 43.6523 74.707 58.9844 68.7012L68.2129 65.0391C80.7617 60.1074 86.7188 48.4863 83.0566 35.8887Z" fill="#000000" fill-opacity="0.85"/>
  <path d="M17.4805 55.957C15.1855 49.707 14.6484 43.5547 15.9668 37.5C6.78711 39.9902 0 48.3887 0 58.3984C0 70.3613 9.66797 80.0293 21.5332 80.0293C26.9531 80.0293 31.9336 78.0762 35.6934 74.707C27.4414 72.0215 20.9473 65.625 17.4805 55.957Z" fill="#000000" fill-opacity="0.425"/>
  <path d="M40.8203 46.2402C36.1328 46.2402 32.4707 42.5293 32.4707 37.8418C32.4707 33.2031 36.1816 29.4434 40.8203 29.4434C45.5566 29.4434 49.2676 33.2031 49.2676 37.8418C49.2676 42.5293 45.5566 46.2402 40.8203 46.2402ZM40.8203 42.7734C43.7012 42.7734 45.752 40.5762 45.752 37.8418C45.752 35.1562 43.7012 32.9102 40.8203 32.9102C38.0371 32.9102 35.9375 35.1562 35.9375 37.8418C35.9375 40.5762 38.0371 42.7734 40.8203 42.7734Z" fill="#000000" fill-opacity="0.2125"/>
 </g>
</svg>
