<?xml version="1.0" encoding="UTF-8"?>
<!--Generator: Apple Native CoreSVG 232.5-->
<!DOCTYPE svg
PUBLIC "-//W3C//DTD SVG 1.1//EN"
       "http://www.w3.org/Graphics/SVG/1.1/DTD/svg11.dtd">
<svg version="1.1" xmlns="http://www.w3.org/2000/svg" xmlns:xlink="http://www.w3.org/1999/xlink" width="154.346" height="82.8613">
 <g>
  <rect height="82.8613" opacity="0" width="154.346" x="0" y="0"/>
  <path d="M0.244141 37.0605L37.1094 37.0605C37.9883 35.0098 39.9902 33.6914 42.4316 33.6914L111.865 33.6914C114.307 33.6914 116.357 35.0098 117.236 37.0605L154.102 37.0605C151.66 12.6953 133.838 0 102.148 0L52.1973 0C20.5566 0 2.73438 12.6953 0.244141 37.0605ZM102.148 82.7637C135.693 82.7637 153.955 68.5547 154.346 41.9922L117.236 41.9922C116.357 44.043 114.307 45.3613 111.865 45.3613L42.4316 45.3613C39.9902 45.3613 37.9883 44.043 37.1094 41.9922L0 41.9922C0.341797 67.627 19.7754 82.7637 52.1973 82.7637ZM77.1484 61.7188C74.4141 61.7676 72.168 59.4727 72.168 56.7871C72.168 54.0527 74.4141 51.8066 77.1484 51.8066C79.8828 51.8066 82.1289 54.0527 82.1289 56.7871C82.1289 59.3262 79.8828 61.6211 77.1484 61.7188Z" fill="#000000" fill-opacity="0.85"/>
 </g>
</svg>
