<?xml version="1.0" encoding="UTF-8"?>
<!--Generator: Apple Native CoreSVG 232.5-->
<!DOCTYPE svg
PUBLIC "-//W3C//DTD SVG 1.1//EN"
       "http://www.w3.org/Graphics/SVG/1.1/DTD/svg11.dtd">
<svg version="1.1" xmlns="http://www.w3.org/2000/svg" xmlns:xlink="http://www.w3.org/1999/xlink" width="80.1478" height="86.5723">
 <g>
  <rect height="86.5723" opacity="0" width="80.1478" x="0" y="0"/>
  <path d="M62.3151 62.9883C68.7116 62.9883 75.6452 59.1797 77.1588 50.9766L79.7467 36.9629C82.4323 22.3633 71.3971 11.4746 53.6237 5.32227C43.0768 1.66016 32.7741 0 22.3737 0C19.2487 0 18.1745 1.12305 18.1745 3.17383C18.1745 8.20312 20.8112 11.9629 25.8405 12.6953C34.0924 13.9648 40.3424 15.625 46.9342 18.75C49.571 19.9707 50.5963 21.7773 50.1081 24.4629L46.9342 43.6523C45.1276 54.541 52.4518 62.9883 62.3151 62.9883ZM62.3151 55.5176C57.7741 55.5176 54.1608 51.9043 54.1608 47.3633C54.1608 42.8223 57.7741 39.209 62.3151 39.209C66.8561 39.209 70.4694 42.7734 70.4694 47.3633C70.4694 51.9531 66.8561 55.5176 62.3151 55.5176ZM62.3151 52.0508C64.9518 52.0508 67.0026 50 67.0026 47.3633C67.0026 44.7754 64.9518 42.6758 62.3151 42.6758C59.6784 42.6758 57.6276 44.7754 57.6276 47.3633C57.6276 50 59.6784 52.0508 62.3151 52.0508ZM62.3151 67.7246C49.2292 67.7246 40.0006 56.3477 42.2956 42.8711L44.1999 31.3477C33.7506 34.0332 26.1823 38.4766 23.0085 45.2637C25.7917 57.666 30.2838 69.1406 36.5827 80.127C39.6588 81.6895 42.8815 82.2754 47.2272 82.2754C63.9264 82.2754 78.6237 74.1699 79.6491 57.9102C76.2311 63.916 69.7858 67.7246 62.3151 67.7246Z" fill="#000000" fill-opacity="0.85"/>
  <path d="M0.0104077 65.6738C0.0104077 78.125 8.26236 86.4746 20.6647 86.4746C25.5963 86.4746 30.0885 84.8633 32.7741 82.959C26.0358 71.3867 21.2506 58.9844 18.2233 45.8008C8.99478 46.7285 0.0104077 54.2969 0.0104077 65.6738Z" fill="#000000" fill-opacity="0.425"/>
  <path d="M62.3151 55.5176C57.7741 55.5176 54.1608 51.9043 54.1608 47.3633C54.1608 42.8223 57.7741 39.209 62.3151 39.209C66.8561 39.209 70.4694 42.7734 70.4694 47.3633C70.4694 51.9531 66.8561 55.5176 62.3151 55.5176ZM62.3151 52.0508C64.9518 52.0508 67.0026 50 67.0026 47.3633C67.0026 44.7754 64.9518 42.6758 62.3151 42.6758C59.6784 42.6758 57.6276 44.7754 57.6276 47.3633C57.6276 50 59.6784 52.0508 62.3151 52.0508Z" fill="#000000" fill-opacity="0.2125"/>
 </g>
</svg>
