<?xml version="1.0" encoding="UTF-8"?>
<!--Generator: Apple Native CoreSVG 232.5-->
<!DOCTYPE svg
PUBLIC "-//W3C//DTD SVG 1.1//EN"
       "http://www.w3.org/Graphics/SVG/1.1/DTD/svg11.dtd">
<svg version="1.1" xmlns="http://www.w3.org/2000/svg" xmlns:xlink="http://www.w3.org/1999/xlink" width="125" height="89.8926">
 <g>
  <rect height="89.8926" opacity="0" width="125" x="0" y="0"/>
  <path d="M55.3711 89.8926L69.6289 89.8926C83.3496 89.8926 93.2617 88.2324 100.977 84.4727C117.188 76.6602 125 61.377 125 44.9219C125 38.3301 123.73 31.9336 121.191 26.123L3.80859 26.123C1.26953 31.9336 0 38.3301 0 44.9219C0 61.377 7.8125 76.6602 24.0234 84.4727C31.7383 88.2324 41.6504 89.8926 55.3711 89.8926ZM62.5488 62.8418C56.7383 62.8418 52.3438 58.4473 52.3438 52.832L52.3438 38.0859L56.9336 36.084L56.9336 44.2383C58.6914 42.9688 60.498 42.4316 62.5488 42.4316C68.0664 42.4316 72.8027 47.1191 72.8027 52.832C72.8027 58.3008 68.2129 62.8418 62.5488 62.8418ZM62.5488 58.3008C65.5762 58.3008 68.0664 55.7617 68.0664 52.832C68.0664 49.8047 65.5762 47.2168 62.5488 47.2168C59.5215 47.2168 56.9336 49.7559 56.9336 52.832C56.9336 55.7617 59.4727 58.3008 62.5488 58.3008ZM6.39648 21.1914L118.604 21.1914C114.648 14.6484 108.789 9.13086 100.977 5.41992C93.2617 1.61133 83.3496 0 69.6289 0L55.3711 0C41.6504 0 31.7383 1.61133 24.0234 5.41992C16.2109 9.13086 10.3516 14.6484 6.39648 21.1914Z" fill="#000000" fill-opacity="0.85"/>
 </g>
</svg>
