<?xml version="1.0" encoding="UTF-8"?>
<!--Generator: Apple Native CoreSVG 232.5-->
<!DOCTYPE svg
PUBLIC "-//W3C//DTD SVG 1.1//EN"
       "http://www.w3.org/Graphics/SVG/1.1/DTD/svg11.dtd">
<svg version="1.1" xmlns="http://www.w3.org/2000/svg" xmlns:xlink="http://www.w3.org/1999/xlink" width="66.8457" height="94.4824">
 <g>
  <rect height="94.4824" opacity="0" width="66.8457" x="0" y="0"/>
  <path d="M23.291 0C7.91016 0 0 11.3281 0 29.2969L0 40.6738C0 53.4668 3.22266 59.5215 12.3047 64.502L33.0566 75.9277C38.4277 78.8086 40.918 79.7852 44.6777 79.7852C52.4414 79.7852 58.7891 73.3887 58.7891 65.6738C58.7891 60.4004 56.0059 55.5176 50 52.3438L8.74023 30.8105C8.74023 16.5039 13.4277 8.78906 23.7793 8.78906C41.1133 8.78906 56.1035 29.1504 57.8613 52.3438C61.5234 55.957 63.5254 60.5469 63.5254 65.6738C63.5254 74.2188 57.666 81.4941 49.8535 83.7891C50.2441 89.1113 53.5156 94.3848 57.4707 94.3848C62.5977 94.3848 66.8457 76.9043 66.8457 61.084C66.8457 27.4414 47.168 0 23.291 0ZM45.0195 74.5117C40.1855 74.5117 36.1816 70.5078 36.1816 65.625C36.1816 60.7422 40.1855 56.7383 45.0195 56.7383C49.9512 56.7383 53.9551 60.7422 53.9551 65.625C53.9551 70.5078 49.9512 74.5117 45.0195 74.5117ZM45.0195 71.0449C48.0469 71.0449 50.4883 68.6035 50.4883 65.625C50.4883 62.6953 48.0469 60.2051 45.0195 60.2051C42.0898 60.2051 39.6484 62.6953 39.6484 65.625C39.6484 68.6035 42.0898 71.0449 45.0195 71.0449Z" fill="#000000" fill-opacity="0.85"/>
  <path d="M45.0195 74.5117C40.1855 74.5117 36.1816 70.5078 36.1816 65.625C36.1816 60.7422 40.1855 56.7383 45.0195 56.7383C49.9512 56.7383 53.9551 60.7422 53.9551 65.625C53.9551 70.5078 49.9512 74.5117 45.0195 74.5117ZM45.0195 71.0449C48.0469 71.0449 50.4883 68.6035 50.4883 65.625C50.4883 62.6953 48.0469 60.2051 45.0195 60.2051C42.0898 60.2051 39.6484 62.6953 39.6484 65.625C39.6484 68.6035 42.0898 71.0449 45.0195 71.0449Z" fill="#000000" fill-opacity="0.2125"/>
 </g>
</svg>
