<?xml version="1.0" encoding="UTF-8"?>
<!--Generator: Apple Native CoreSVG 232.5-->
<!DOCTYPE svg
PUBLIC "-//W3C//DTD SVG 1.1//EN"
       "http://www.w3.org/Graphics/SVG/1.1/DTD/svg11.dtd">
<svg version="1.1" xmlns="http://www.w3.org/2000/svg" xmlns:xlink="http://www.w3.org/1999/xlink" width="97.5098" height="97.0215">
 <g>
  <rect height="97.0215" opacity="0" width="97.5098" x="0" y="0"/>
  <path d="M29.9316 96.9727L67.4316 96.9727C87.207 96.9727 97.5098 86.7188 97.5098 67.041L97.5098 29.9316C97.5098 10.2539 87.207 0 67.4316 0L29.9316 0C10.2539 0 0 10.2539 0 29.9316L0 67.041C0 86.7188 10.2539 96.9727 29.9316 96.9727ZM48.7305 72.3145C35.5957 72.3145 24.9512 61.7188 24.9512 48.4863C24.9512 39.6484 29.7363 31.8359 37.3047 27.5879L37.3047 48.4863C37.3047 54.834 42.334 59.8145 48.7305 59.8145C55.0293 59.8145 60.2051 54.7363 60.2051 48.4863C60.2051 42.2363 54.9316 36.9141 48.7305 36.9141C46.5332 36.9141 44.2871 37.6465 42.4316 39.0137L42.4316 25.5371C44.2871 24.9512 46.4355 24.7559 48.7305 24.7559C61.6699 24.7559 72.5586 35.3516 72.5586 48.4863C72.5586 61.4746 61.9141 72.3145 48.7305 72.3145ZM48.7305 54.7852C45.3613 54.7852 42.5293 51.9531 42.5293 48.4863C42.5293 45.1172 45.459 42.2852 48.7305 42.2852C52.002 42.2852 54.9805 45.2637 54.9805 48.4863C54.9805 51.8066 52.0996 54.7852 48.7305 54.7852Z" fill="#000000" fill-opacity="0.85"/>
 </g>
</svg>
