<?xml version="1.0" encoding="UTF-8"?>
<!--Generator: Apple Native CoreSVG 232.5-->
<!DOCTYPE svg
PUBLIC "-//W3C//DTD SVG 1.1//EN"
       "http://www.w3.org/Graphics/SVG/1.1/DTD/svg11.dtd">
<svg version="1.1" xmlns="http://www.w3.org/2000/svg" xmlns:xlink="http://www.w3.org/1999/xlink" width="166.26" height="76.3184">
 <g>
  <rect height="76.3184" opacity="0" width="166.26" x="0" y="0"/>
  <path d="M34.1309 47.9492C40.6738 50.7324 48.1934 47.5586 51.0254 41.1133L60.4492 19.7266C63.2812 13.2812 60.1562 5.61523 53.6133 2.7832C47.0703 0.0488281 39.5996 3.07617 36.6699 9.66797L27.2949 31.0547C24.4629 37.5977 27.5879 45.1172 34.1309 47.9492ZM38.8672 44.1406C34.4238 44.1406 30.9082 40.625 30.9082 36.1328C30.9082 31.6895 34.4727 28.125 38.8672 28.125C43.3594 28.125 46.875 31.6895 46.875 36.1328C46.875 40.625 43.3594 44.1406 38.8672 44.1406ZM38.8672 40.8203C41.6016 40.8203 43.5547 38.7695 43.5547 36.1328C43.5547 33.5938 41.6016 31.4453 38.8672 31.4453C36.2305 31.4453 34.2285 33.5938 34.2285 36.1328C34.2285 38.7695 36.2305 40.8203 38.8672 40.8203ZM79.0527 34.2773C76.6602 26.2695 70.7031 22.4609 65.625 18.1641C65.3809 19.3359 65.0391 20.4102 64.5508 21.5332L55.127 42.9199C51.2695 51.6602 41.1133 55.7617 32.3242 52.0996C23.7793 48.291 19.6289 38.623 22.9004 30.0781C18.6523 35.2051 17.6758 43.0176 20.8496 51.8555C26.709 68.1641 41.5527 71.2402 56.1523 65.5273L64.9414 62.0605C76.8555 57.3242 82.5684 46.2402 79.0527 34.2773ZM132.129 47.9492C138.623 45.1172 141.797 37.5977 138.965 31.0547L129.59 9.66797C126.66 3.07617 119.189 0.0488281 112.646 2.7832C106.104 5.61523 102.979 13.2812 105.811 19.7266L115.234 41.1133C118.066 47.5586 125.586 50.7324 132.129 47.9492ZM127.393 44.1406C122.9 44.1406 119.385 40.625 119.385 36.1328C119.385 31.6895 122.9 28.125 127.393 28.125C131.787 28.125 135.352 31.6895 135.352 36.1328C135.352 40.625 131.836 44.1406 127.393 44.1406ZM127.393 40.8203C130.029 40.8203 132.031 38.7695 132.031 36.1328C132.031 33.5938 130.029 31.4453 127.393 31.4453C124.658 31.4453 122.656 33.5938 122.656 36.1328C122.656 38.7695 124.658 40.8203 127.393 40.8203ZM87.1582 34.2773C83.6914 46.2402 89.3555 57.3242 101.318 62.0605L110.107 65.5273C124.707 71.2402 139.551 68.1641 145.361 51.8555C148.584 43.0176 147.607 35.2051 143.359 30.0781C146.631 38.623 142.48 48.291 133.887 52.0996C125.146 55.7617 114.99 51.6602 111.133 42.9199L101.709 21.5332C101.221 20.4102 100.879 19.3359 100.635 18.1641C95.5078 22.4609 89.5996 26.2695 87.1582 34.2773Z" fill="#000000" fill-opacity="0.85"/>
  <path d="M16.6504 53.3691C14.4531 47.4121 13.9648 41.5527 15.1855 35.791C6.49414 38.1836 0 46.1914 0 55.6641C0 67.0898 9.17969 76.3184 20.5078 76.3184C25.6836 76.3184 30.3711 74.4141 33.9844 71.2402C26.123 68.6523 19.9219 62.5488 16.6504 53.3691ZM149.609 53.3691C146.289 62.5488 140.137 68.6523 132.275 71.2402C135.889 74.4141 140.576 76.3184 145.752 76.3184C157.08 76.3184 166.26 67.0898 166.26 55.6641C166.26 46.1914 159.766 38.1836 151.074 35.791C152.295 41.5527 151.758 47.4121 149.609 53.3691Z" fill="#000000" fill-opacity="0.425"/>
  <path d="M38.8672 44.1406C34.4238 44.1406 30.9082 40.625 30.9082 36.1328C30.9082 31.6895 34.4727 28.125 38.8672 28.125C43.3594 28.125 46.875 31.6895 46.875 36.1328C46.875 40.625 43.3594 44.1406 38.8672 44.1406ZM38.8672 40.8203C41.6016 40.8203 43.5547 38.7695 43.5547 36.1328C43.5547 33.5938 41.6016 31.4453 38.8672 31.4453C36.2305 31.4453 34.2285 33.5938 34.2285 36.1328C34.2285 38.7695 36.2305 40.8203 38.8672 40.8203ZM127.393 44.1406C122.9 44.1406 119.385 40.625 119.385 36.1328C119.385 31.6895 122.9 28.125 127.393 28.125C131.787 28.125 135.352 31.6895 135.352 36.1328C135.352 40.625 131.836 44.1406 127.393 44.1406ZM127.393 40.8203C130.029 40.8203 132.031 38.7695 132.031 36.1328C132.031 33.5938 130.029 31.4453 127.393 31.4453C124.658 31.4453 122.656 33.5938 122.656 36.1328C122.656 38.7695 124.658 40.8203 127.393 40.8203Z" fill="#000000" fill-opacity="0.2125"/>
 </g>
</svg>
