<?xml version="1.0" encoding="UTF-8"?>
<!--Generator: Apple Native CoreSVG 232.5-->
<!DOCTYPE svg
PUBLIC "-//W3C//DTD SVG 1.1//EN"
       "http://www.w3.org/Graphics/SVG/1.1/DTD/svg11.dtd">
<svg version="1.1" xmlns="http://www.w3.org/2000/svg" xmlns:xlink="http://www.w3.org/1999/xlink" width="84.1309" height="80.0293">
 <g>
  <rect height="80.0293" opacity="0" width="84.1309" x="0" y="0"/>
  <path d="M48.2422 50.2441C55.127 47.2656 58.3984 39.3555 55.4199 32.5195L45.6055 10.0586C42.5293 3.125 34.668-0.0976562 27.7832 2.83203C20.9473 5.81055 17.6758 13.8184 20.6543 20.6055L30.5176 43.0664C33.4961 49.8047 41.4062 53.1738 48.2422 50.2441ZM43.3105 46.2402C38.5742 46.2402 34.8633 42.5293 34.8633 37.8418C34.8633 33.2031 38.5742 29.4434 43.3105 29.4434C47.9492 29.4434 51.6602 33.2031 51.6602 37.8418C51.6602 42.5293 47.998 46.2402 43.3105 46.2402ZM43.3105 42.7734C46.0938 42.7734 48.1934 40.5762 48.1934 37.8418C48.1934 35.1562 46.0938 32.9102 43.3105 32.9102C40.4297 32.9102 38.3301 35.1562 38.3301 37.8418C38.3301 40.5762 40.4297 42.7734 43.3105 42.7734ZM1.07422 35.8887C-2.58789 48.4863 3.36914 60.1074 15.918 65.0391L25.1465 68.7012C40.4785 74.707 56.0547 71.4844 62.207 54.3457C65.5762 45.0684 64.5508 36.8652 60.0586 31.4941C63.5254 40.4785 59.1309 50.6348 50.1465 54.5898C40.918 58.4473 30.2734 54.1992 26.2207 44.9707L16.3574 22.5098C15.8203 21.3379 15.4297 20.2148 15.1855 18.9941C9.81445 23.4863 3.56445 27.4902 1.07422 35.8887Z" fill="#000000" fill-opacity="0.85"/>
  <path d="M66.6504 55.957C63.1836 65.625 56.6895 72.0215 48.4375 74.707C52.1973 78.0762 57.1289 80.0293 62.5488 80.0293C74.4629 80.0293 84.1309 70.3613 84.1309 58.3984C84.1309 48.3887 77.3438 39.9902 68.1641 37.5C69.4336 43.5547 68.9453 49.707 66.6504 55.957Z" fill="#000000" fill-opacity="0.425"/>
  <path d="M43.3105 46.2402C38.5742 46.2402 34.8633 42.5293 34.8633 37.8418C34.8633 33.2031 38.5742 29.4434 43.3105 29.4434C47.9492 29.4434 51.6602 33.2031 51.6602 37.8418C51.6602 42.5293 47.998 46.2402 43.3105 46.2402ZM43.3105 42.7734C46.0938 42.7734 48.1934 40.5762 48.1934 37.8418C48.1934 35.1562 46.0938 32.9102 43.3105 32.9102C40.4297 32.9102 38.3301 35.1562 38.3301 37.8418C38.3301 40.5762 40.4297 42.7734 43.3105 42.7734Z" fill="#000000" fill-opacity="0.2125"/>
 </g>
</svg>
