<?xml version="1.0" encoding="UTF-8"?>
<!--Generator: Apple Native CoreSVG 232.5-->
<!DOCTYPE svg
PUBLIC "-//W3C//DTD SVG 1.1//EN"
       "http://www.w3.org/Graphics/SVG/1.1/DTD/svg11.dtd">
<svg version="1.1" xmlns="http://www.w3.org/2000/svg" xmlns:xlink="http://www.w3.org/1999/xlink" width="66.8457" height="94.4824">
 <g>
  <rect height="94.4824" opacity="0" width="66.8457" x="0" y="0"/>
  <path d="M43.5547 0C19.6777 0 0 27.4414 0 61.084C0 76.9043 4.24805 94.3848 9.375 94.3848C13.3301 94.3848 16.6016 89.1113 16.9922 83.7891C9.13086 81.4941 3.32031 74.2188 3.32031 65.6738C3.32031 60.5469 5.32227 55.957 8.98438 52.3438C10.7422 29.1504 25.7324 8.78906 43.0176 8.78906C53.3691 8.78906 58.1055 16.5039 58.1055 30.8105L16.8457 52.3438C10.8398 55.5176 8.05664 60.4004 8.05664 65.6738C8.05664 73.3887 14.4043 79.7852 22.1191 79.7852C25.9277 79.7852 28.418 78.8086 33.7891 75.9277L54.541 64.502C63.623 59.5215 66.8457 53.4668 66.8457 40.6738L66.8457 29.2969C66.8457 11.3281 58.9355 0 43.5547 0ZM21.7773 74.5117C16.8457 74.5117 12.8906 70.5078 12.8906 65.625C12.8906 60.7422 16.8457 56.7383 21.7773 56.7383C26.6602 56.7383 30.6641 60.7422 30.6641 65.625C30.6641 70.5078 26.6602 74.5117 21.7773 74.5117ZM21.7773 71.0449C24.7559 71.0449 27.1973 68.6035 27.1973 65.625C27.1973 62.6953 24.7559 60.2051 21.7773 60.2051C18.75 60.2051 16.3574 62.6953 16.3574 65.625C16.3574 68.6035 18.75 71.0449 21.7773 71.0449Z" fill="#000000" fill-opacity="0.85"/>
  <path d="M21.7773 74.5117C16.8457 74.5117 12.8906 70.5078 12.8906 65.625C12.8906 60.7422 16.8457 56.7383 21.7773 56.7383C26.6602 56.7383 30.6641 60.7422 30.6641 65.625C30.6641 70.5078 26.6602 74.5117 21.7773 74.5117ZM21.7773 71.0449C24.7559 71.0449 27.1973 68.6035 27.1973 65.625C27.1973 62.6953 24.7559 60.2051 21.7773 60.2051C18.75 60.2051 16.3574 62.6953 16.3574 65.625C16.3574 68.6035 18.75 71.0449 21.7773 71.0449Z" fill="#000000" fill-opacity="0.2125"/>
 </g>
</svg>
