<?xml version="1.0" encoding="UTF-8"?>
<!--Generator: Apple Native CoreSVG 232.5-->
<!DOCTYPE svg
PUBLIC "-//W3C//DTD SVG 1.1//EN"
       "http://www.w3.org/Graphics/SVG/1.1/DTD/svg11.dtd">
<svg version="1.1" xmlns="http://www.w3.org/2000/svg" xmlns:xlink="http://www.w3.org/1999/xlink" width="133.545" height="89.8926">
 <g>
  <rect height="89.8926" opacity="0" width="133.545" x="0" y="0"/>
  <path d="M41.4551 0.0488281C18.7012 0.0488281 0 26.123 0 58.1543C0 73.2422 4.05273 89.8926 8.93555 89.8926C12.6953 89.8926 15.7715 84.8145 16.1621 79.7852C8.69141 77.5879 3.17383 70.6543 3.17383 62.5C3.17383 57.6172 5.07812 53.2715 8.54492 49.8535C10.2051 27.7344 24.5117 8.34961 40.9668 8.34961C50.8301 8.34961 55.3223 15.7227 55.3223 29.3457L16.0156 49.8535C10.3027 52.832 7.66602 57.5195 7.66602 62.5C7.66602 69.873 13.7207 75.9277 21.0938 75.9277C24.6582 75.9277 27.0508 75.0488 32.1777 72.2656L51.9043 61.4258C60.5469 56.6895 63.623 50.9277 63.623 38.7207L63.623 27.9297C63.623 10.791 56.1035 0.0488281 41.4551 0.0488281ZM20.752 70.9473C16.0645 70.9473 12.2559 67.1387 12.2559 62.5C12.2559 57.8613 16.0645 54.0527 20.752 54.0527C25.3906 54.0527 29.1992 57.8613 29.1992 62.5C29.1992 67.1387 25.3906 70.9473 20.752 70.9473ZM20.752 67.6758C23.584 67.6758 25.8789 65.332 25.8789 62.5C25.8789 59.668 23.584 57.3242 20.752 57.3242C17.8711 57.3242 15.5762 59.668 15.5762 62.5C15.5762 65.332 17.8711 67.6758 20.752 67.6758ZM92.0898 0.0488281C77.4414 0.0488281 69.9219 10.791 69.9219 27.9297L69.9219 38.7207C69.9219 50.9277 72.998 56.6895 81.5918 61.4258L101.367 72.2656C106.494 75.0488 108.887 75.9277 112.451 75.9277C119.824 75.9277 125.879 69.873 125.879 62.5C125.879 57.5195 123.242 52.832 117.48 49.8535L78.2227 29.3457C78.2227 15.7227 82.7148 8.34961 92.5781 8.34961C109.033 8.34961 123.34 27.7344 125 49.8535C128.467 53.2715 130.371 57.6172 130.371 62.5C130.371 70.6543 124.805 77.5879 117.334 79.7852C117.725 84.8145 120.85 89.8926 124.609 89.8926C129.492 89.8926 133.545 73.2422 133.545 58.1543C133.545 26.123 114.844 0.0488281 92.0898 0.0488281ZM112.793 70.9473C108.154 70.9473 104.346 67.1387 104.346 62.5C104.346 57.8613 108.154 54.0527 112.793 54.0527C117.48 54.0527 121.289 57.8613 121.289 62.5C121.289 67.1387 117.48 70.9473 112.793 70.9473ZM112.793 67.6758C115.674 67.6758 117.969 65.332 117.969 62.5C117.969 59.668 115.674 57.3242 112.793 57.3242C109.961 57.3242 107.617 59.668 107.617 62.5C107.617 65.332 109.961 67.6758 112.793 67.6758Z" fill="#000000" fill-opacity="0.85"/>
  <path d="M20.752 70.9473C16.0645 70.9473 12.2559 67.1387 12.2559 62.5C12.2559 57.8613 16.0645 54.0527 20.752 54.0527C25.3906 54.0527 29.1992 57.8613 29.1992 62.5C29.1992 67.1387 25.3906 70.9473 20.752 70.9473ZM20.752 67.6758C23.584 67.6758 25.8789 65.332 25.8789 62.5C25.8789 59.668 23.584 57.3242 20.752 57.3242C17.8711 57.3242 15.5762 59.668 15.5762 62.5C15.5762 65.332 17.8711 67.6758 20.752 67.6758ZM112.793 70.9473C108.154 70.9473 104.346 67.1387 104.346 62.5C104.346 57.8613 108.154 54.0527 112.793 54.0527C117.48 54.0527 121.289 57.8613 121.289 62.5C121.289 67.1387 117.48 70.9473 112.793 70.9473ZM112.793 67.6758C115.674 67.6758 117.969 65.332 117.969 62.5C117.969 59.668 115.674 57.3242 112.793 57.3242C109.961 57.3242 107.617 59.668 107.617 62.5C107.617 65.332 109.961 67.6758 112.793 67.6758Z" fill="#000000" fill-opacity="0.2125"/>
 </g>
</svg>
