<?xml version="1.0" encoding="UTF-8"?>
<!--Generator: Apple Native CoreSVG 232.5-->
<!DOCTYPE svg
PUBLIC "-//W3C//DTD SVG 1.1//EN"
       "http://www.w3.org/Graphics/SVG/1.1/DTD/svg11.dtd">
<svg version="1.1" xmlns="http://www.w3.org/2000/svg" xmlns:xlink="http://www.w3.org/1999/xlink" width="67.169" height="99.0723">
 <g>
  <rect height="99.0723" opacity="0" width="67.169" x="0" y="0"/>
  <path d="M23.3062 75.9277L61.7339 75.9277C63.7359 75.9277 65.2984 74.6582 65.5425 72.5586L67.1539 55.6641C67.3492 53.125 65.6402 51.3184 63.1499 51.3184L23.3062 51.3184C16.5191 51.3184 11.0503 56.8359 11.0503 63.6719C11.0503 70.459 16.5191 75.9277 23.3062 75.9277ZM23.3062 68.2617C25.8941 68.2617 27.9937 66.2598 27.9937 63.6719C27.9937 61.084 25.8941 58.9844 23.3062 58.9844C20.7183 58.9844 18.6675 61.084 18.6675 63.6719C18.6675 66.2598 20.7183 68.2617 23.3062 68.2617ZM51.48 99.0234L56.1187 99.0234L57.8277 82.6172L53.1402 82.6172ZM23.3062 71.7285C18.814 71.7285 15.2007 68.1641 15.2007 63.6719C15.2007 59.1797 18.814 55.5176 23.3062 55.5176C27.8472 55.5176 31.4605 59.1797 31.4605 63.6719C31.4605 68.1641 27.8472 71.7285 23.3062 71.7285ZM43.7164 0C21.0601 0 0.015179 20.2637 0.015179 49.0723C0.015179 68.1152 6.16752 94.3359 16.2749 94.4336C18.814 94.4336 20.6695 91.8945 20.6695 86.1328C20.6695 84.4727 20.5718 82.9102 20.1812 80.3711C12.3199 78.9062 6.31401 71.9727 6.31401 63.6719C6.31401 60.498 7.19291 57.5684 8.70659 54.9805C8.36479 52.832 8.16948 50.4883 8.16948 48.6816C8.16948 26.1719 26.7242 8.1543 43.1792 8.1543C53.2867 8.1543 58.4136 16.0156 57.0464 29.248L51.3335 84.1309C50.7964 89.502 58.8531 89.502 59.3414 84.7656L64.9566 28.9062C66.8121 10.3516 58.9996 0 43.7164 0Z" fill="#000000" fill-opacity="0.85"/>
  <path d="M23.3062 68.2617C25.8941 68.2617 27.9937 66.2598 27.9937 63.6719C27.9937 61.084 25.8941 58.9844 23.3062 58.9844C20.7183 58.9844 18.6675 61.084 18.6675 63.6719C18.6675 66.2598 20.7183 68.2617 23.3062 68.2617ZM23.3062 71.7285C18.814 71.7285 15.2007 68.1641 15.2007 63.6719C15.2007 59.1797 18.814 55.5176 23.3062 55.5176C27.8472 55.5176 31.4605 59.1797 31.4605 63.6719C31.4605 68.1641 27.8472 71.7285 23.3062 71.7285Z" fill="#000000" fill-opacity="0.2125"/>
 </g>
</svg>
