<?xml version="1.0" encoding="UTF-8"?>
<!--Generator: Apple Native CoreSVG 232.5-->
<!DOCTYPE svg
PUBLIC "-//W3C//DTD SVG 1.1//EN"
       "http://www.w3.org/Graphics/SVG/1.1/DTD/svg11.dtd">
<svg version="1.1" xmlns="http://www.w3.org/2000/svg" xmlns:xlink="http://www.w3.org/1999/xlink" width="125" height="89.8926">
 <g>
  <rect height="89.8926" opacity="0" width="125" x="0" y="0"/>
  <path d="M0 44.9219C0 61.377 7.8125 76.6602 24.0234 84.4727C31.7383 88.2324 41.6504 89.8926 55.3711 89.8926L69.6289 89.8926C83.3496 89.8926 93.2617 88.2324 100.977 84.4727C117.188 76.6602 125 61.377 125 44.9219C125 30.2246 117.09 14.9902 100.977 7.22656C93.2617 3.4668 83.3496 1.80664 69.6289 1.80664L55.3711 1.80664C41.6504 1.80664 31.7383 3.4668 24.0234 7.22656C7.86133 14.9902 0 30.2246 0 44.9219ZM7.86133 44.9219C7.86133 29.1016 18.6523 15.5273 35.3027 11.5723C40.625 10.3027 47.168 9.66797 55.3711 9.66797L69.6289 9.66797C82.4219 9.66797 91.0645 11.1328 97.5586 14.3066C109.668 20.166 117.139 31.8359 117.139 44.9219C117.139 65.1855 103.613 79.6875 81.5918 81.4453C78.0273 81.8359 74.0723 82.0312 69.6289 82.0312L55.3711 82.0312C42.5781 82.0312 33.9355 80.5664 27.4414 77.3926C14.9902 71.3867 7.86133 59.6191 7.86133 44.9219ZM9.0332 27.0996L116.016 27.0996L116.016 22.168L9.0332 22.168ZM62.5488 61.9629C68.0176 61.9629 72.5098 57.5195 72.5098 52.2461C72.5098 46.6797 67.9199 42.1387 62.5488 42.1387C60.5469 42.1387 58.7891 42.6758 57.1289 43.8965L57.1289 35.9863L52.6367 37.9395L52.6367 52.2461C52.6367 57.666 56.9336 61.9629 62.5488 61.9629ZM62.5488 57.5195C59.5703 57.5195 57.1289 55.0781 57.1289 52.2461C57.1289 49.2676 59.6191 46.7773 62.5488 46.7773C65.4785 46.7773 67.9199 49.3164 67.9199 52.2461C67.9199 55.0781 65.4785 57.5195 62.5488 57.5195Z" fill="#000000" fill-opacity="0.85"/>
 </g>
</svg>
