<?xml version="1.0" encoding="UTF-8"?>
<!--Generator: Apple Native CoreSVG 232.5-->
<!DOCTYPE svg
PUBLIC "-//W3C//DTD SVG 1.1//EN"
       "http://www.w3.org/Graphics/SVG/1.1/DTD/svg11.dtd">
<svg version="1.1" xmlns="http://www.w3.org/2000/svg" xmlns:xlink="http://www.w3.org/1999/xlink" width="123.73" height="82.4707">
 <g>
  <rect height="82.4707" opacity="0" width="123.73" x="0" y="0"/>
  <path d="M4.15039 82.373L7.08008 82.373C9.57031 82.373 11.2305 80.7617 11.2305 78.2227L11.2305 70.9961C11.7676 71.1426 13.3789 71.2402 14.5508 71.2402L109.18 71.2402C110.352 71.2402 111.963 71.1426 112.5 70.9961L112.5 78.2227C112.5 80.7617 114.16 82.373 116.65 82.373L119.58 82.373C122.119 82.373 123.73 80.7617 123.73 78.2227L123.73 44.7754C123.73 35.4492 118.652 30.4199 109.326 30.4199L14.4043 30.4199C5.07812 30.4199 0 35.4492 0 44.7754L0 78.2227C0 80.7617 1.61133 82.373 4.15039 82.373ZM9.76562 64.1113C8.74023 64.1113 8.10547 63.3789 8.10547 62.207L8.10547 43.6523C8.10547 39.9414 10.5469 37.5488 14.3555 37.5488L109.424 37.5488C113.184 37.5488 115.625 39.9414 115.625 43.6523L115.625 62.207C115.625 63.3789 114.99 64.1113 113.965 64.1113ZM12.6953 31.4453L25.5371 31.4453L25.5371 21.3867C25.5371 16.8457 28.0762 14.3555 32.7148 14.3555L49.8535 14.3555C54.4434 14.3555 56.9824 16.8457 56.9824 21.3867L56.9824 31.4453L66.748 31.4453L66.748 21.3867C66.748 16.8457 69.2871 14.3555 73.877 14.3555L91.0156 14.3555C95.6543 14.3555 98.1934 16.8457 98.1934 21.3867L98.1934 31.4453L111.035 31.4453L111.035 13.6719C111.035 4.63867 106.201 0 97.4121 0L26.3184 0C17.5781 0 12.6953 4.63867 12.6953 13.6719Z" fill="#000000" fill-opacity="0.85"/>
 </g>
</svg>
