<?xml version="1.0" encoding="UTF-8"?>
<!--Generator: Apple Native CoreSVG 232.5-->
<!DOCTYPE svg
PUBLIC "-//W3C//DTD SVG 1.1//EN"
       "http://www.w3.org/Graphics/SVG/1.1/DTD/svg11.dtd">
<svg version="1.1" xmlns="http://www.w3.org/2000/svg" xmlns:xlink="http://www.w3.org/1999/xlink" width="123.73" height="82.4707">
 <g>
  <rect height="82.4707" opacity="0" width="123.73" x="0" y="0"/>
  <path d="M0 78.2227C0 80.7617 1.61133 82.373 4.15039 82.373L7.08008 82.373C9.57031 82.373 11.2305 80.7617 11.2305 78.2227L11.2305 70.9961C11.7676 71.1426 13.3789 71.2402 14.5508 71.2402L109.18 71.2402C110.352 71.2402 111.963 71.1426 112.5 70.9961L112.5 78.2227C112.5 80.7617 114.16 82.373 116.65 82.373L119.58 82.373C122.119 82.373 123.73 80.7617 123.73 78.2227L123.73 49.1211C123.73 39.7949 118.555 34.668 109.229 34.668L14.502 34.668C5.17578 34.668 0 39.7949 0 49.1211Z" fill="#000000" fill-opacity="0.85"/>
  <path d="M11.7188 27.6855L24.1211 27.6855L24.1211 20.6543C24.1211 16.1133 26.6602 13.623 31.2988 13.623L49.5117 13.623C54.1016 13.623 56.6406 16.1133 56.6406 20.6543L56.6406 27.6855L67.7246 27.6855L67.7246 20.6543C67.7246 16.1133 70.2637 13.623 75.1465 13.623L92.2363 13.623C97.1191 13.623 99.6582 16.1133 99.6582 20.6543L99.6582 27.6855L112.109 27.6855L112.109 13.6719C112.109 4.63867 107.227 0 98.4375 0L25.3418 0C16.5527 0 11.7188 4.63867 11.7188 13.6719Z" fill="#000000" fill-opacity="0.85"/>
 </g>
</svg>
