<?xml version="1.0" encoding="UTF-8"?>
<!--Generator: Apple Native CoreSVG 232.5-->
<!DOCTYPE svg
PUBLIC "-//W3C//DTD SVG 1.1//EN"
       "http://www.w3.org/Graphics/SVG/1.1/DTD/svg11.dtd">
<svg version="1.1" xmlns="http://www.w3.org/2000/svg" xmlns:xlink="http://www.w3.org/1999/xlink" width="99.6094" height="99.6582">
 <g>
  <rect height="99.6582" opacity="0" width="99.6094" x="0" y="0"/>
  <path d="M99.6094 49.8047C99.6094 77.002 77.0508 99.6094 49.8047 99.6094C22.6074 99.6094 0 77.002 0 49.8047C0 22.5586 22.5586 0 49.7559 0C77.002 0 99.6094 22.5586 99.6094 49.8047ZM8.34961 49.8047C8.34961 72.8516 26.7578 91.3086 49.8047 91.3086C72.8516 91.3086 91.3086 72.8516 91.3086 49.8047C91.3086 26.7578 72.8027 8.30078 49.7559 8.30078C26.709 8.30078 8.34961 26.7578 8.34961 49.8047Z" fill="#000000" fill-opacity="0.85"/>
  <path d="M49.8047 78.7109C45.2148 78.7109 41.8945 75.4395 41.5527 71.4844L58.0566 71.4844C57.7637 75.4395 54.3945 78.7109 49.8047 78.7109ZM59.4135 67.4316L28.3203 67.4316C25.7812 67.4316 24.3164 66.1133 24.3164 64.209C24.3164 61.4746 27.0996 59.1309 29.3945 56.6406C31.2012 54.7363 31.5918 50.8789 31.8359 47.8027C31.8854 45.1709 32.1005 42.7485 32.5115 40.5574ZM57.666 27.6367C64.7949 30.2734 67.5781 37.4023 67.8223 47.8027C68.0176 50.8789 68.3594 54.7363 70.2148 56.6406C72.6074 59.082 75.293 61.4746 75.293 64.209C75.293 65.0984 74.9734 65.86 74.3754 66.4164L37.9297 29.9708C39.0694 28.9836 40.4052 28.2056 41.9434 27.6367C43.0664 24.1699 45.8496 21.3379 49.8047 21.3379C53.7598 21.3379 56.5918 24.1699 57.666 27.6367Z" fill="#000000" fill-opacity="0.85"/>
  <path d="M71.8262 75C72.6562 75.8301 74.1211 75.8301 74.9512 75C75.8301 74.0723 75.8301 72.7539 74.9512 71.875L27.7344 24.6094C26.8555 23.7305 25.4395 23.7305 24.5605 24.6094C23.6816 25.4395 23.7305 26.9043 24.5605 27.7344Z" fill="#000000" fill-opacity="0.85"/>
 </g>
</svg>
