<?xml version="1.0" encoding="UTF-8"?>
<!--Generator: Apple Native CoreSVG 232.5-->
<!DOCTYPE svg
PUBLIC "-//W3C//DTD SVG 1.1//EN"
       "http://www.w3.org/Graphics/SVG/1.1/DTD/svg11.dtd">
<svg version="1.1" xmlns="http://www.w3.org/2000/svg" xmlns:xlink="http://www.w3.org/1999/xlink" width="99.6094" height="99.6582">
 <g>
  <rect height="99.6582" opacity="0" width="99.6094" x="0" y="0"/>
  <path d="M49.8047 99.6094C77.0508 99.6094 99.6094 77.002 99.6094 49.8047C99.6094 22.5586 77.002 0 49.7559 0C22.5586 0 0 22.5586 0 49.8047C0 77.002 22.6074 99.6094 49.8047 99.6094ZM49.8047 91.3086C26.7578 91.3086 8.34961 72.8516 8.34961 49.8047C8.34961 26.7578 26.709 8.30078 49.7559 8.30078C72.8027 8.30078 91.3086 26.7578 91.3086 49.8047C91.3086 72.8516 72.8516 91.3086 49.8047 91.3086Z" fill="#000000" fill-opacity="0.85"/>
  <path d="M28.3203 67.4316L71.3379 67.4316C73.8281 67.4316 75.293 66.1133 75.293 64.209C75.293 61.4746 72.6074 59.082 70.2148 56.6406C68.3594 54.7363 68.0176 50.8789 67.8223 47.8027C67.5781 37.4023 64.7949 30.2734 57.666 27.6367C56.5918 24.1699 53.7598 21.3379 49.8047 21.3379C45.8496 21.3379 43.0664 24.1699 41.9434 27.6367C34.8145 30.2734 32.0312 37.4023 31.8359 47.8027C31.5918 50.8789 31.2012 54.7363 29.3945 56.6406C27.0996 59.1309 24.3164 61.4746 24.3164 64.209C24.3164 66.1133 25.7812 67.4316 28.3203 67.4316ZM49.8047 78.7109C54.3945 78.7109 57.7637 75.4395 58.0566 71.4844L41.5527 71.4844C41.8945 75.4395 45.2148 78.7109 49.8047 78.7109Z" fill="#000000" fill-opacity="0.85"/>
 </g>
</svg>
