<?xml version="1.0" encoding="UTF-8"?>
<!--Generator: Apple Native CoreSVG 232.5-->
<!DOCTYPE svg
PUBLIC "-//W3C//DTD SVG 1.1//EN"
       "http://www.w3.org/Graphics/SVG/1.1/DTD/svg11.dtd">
<svg version="1.1" xmlns="http://www.w3.org/2000/svg" xmlns:xlink="http://www.w3.org/1999/xlink" width="99.6094" height="99.6582">
 <g>
  <rect height="99.6582" opacity="0" width="99.6094" x="0" y="0"/>
  <path d="M49.8047 99.6094C77.0508 99.6094 99.6094 77.002 99.6094 49.8047C99.6094 22.5586 77.002 0 49.7559 0C22.5586 0 0 22.5586 0 49.8047C0 77.002 22.6074 99.6094 49.8047 99.6094ZM49.8047 91.3086C26.7578 91.3086 8.34961 72.8516 8.34961 49.8047C8.34961 26.7578 26.709 8.30078 49.7559 8.30078C72.8027 8.30078 91.3086 26.7578 91.3086 49.8047C91.3086 72.8516 72.8516 91.3086 49.8047 91.3086Z" fill="#000000" fill-opacity="0.85"/>
  <path d="M28.0762 69.3359C35.6445 69.3359 41.7969 63.1836 41.7969 55.6152C41.7969 48.0469 35.6445 41.8945 28.0762 41.8945C20.5078 41.8945 14.3555 48.0469 14.3555 55.6152C14.3555 63.1836 20.5078 69.3359 28.0762 69.3359ZM28.125 65.332C22.7051 65.332 18.3594 60.9863 18.3594 55.5176C18.3594 50.1465 22.7051 45.8496 28.125 45.8496C33.4961 45.8496 37.8418 50.1465 37.8418 55.5176C37.8418 60.9863 33.4961 65.332 28.125 65.332ZM28.125 58.8867C29.9316 58.8867 31.3477 57.4219 31.3477 55.5664C31.3477 53.7598 29.9316 52.3438 28.125 52.3438C26.2207 52.3438 24.8047 53.7598 24.8047 55.5664C24.8047 57.4219 26.2207 58.8867 28.125 58.8867ZM71.5332 69.3359C79.1504 69.3359 85.2539 63.1836 85.2539 55.6152C85.2539 48.0469 79.1504 41.8945 71.5332 41.8945C63.9648 41.8945 57.8125 48.0469 57.8125 55.6152C57.8125 63.1836 63.9648 69.3359 71.5332 69.3359ZM71.6309 65.332C66.1621 65.332 61.8164 60.9863 61.8164 55.5176C61.8164 50.1465 66.1621 45.8496 71.6309 45.8496C77.002 45.8496 81.3477 50.1465 81.3477 55.5176C81.3477 60.9863 77.002 65.332 71.6309 65.332ZM71.6309 58.8867C73.4375 58.8867 74.8535 57.4219 74.8535 55.5664C74.8535 53.7598 73.4375 52.3438 71.6309 52.3438C69.7266 52.3438 68.3105 53.7598 68.3105 55.5664C68.3105 57.4219 69.7266 58.8867 71.6309 58.8867ZM32.9102 33.8867L42.0898 33.8867C43.1641 33.8867 44.1406 33.0078 44.1406 31.9824C44.1406 30.8594 43.2129 29.9316 42.0898 29.9316L32.9102 29.9316C31.7871 29.9316 30.9082 30.8594 30.9082 31.9824C30.9082 33.0078 31.7871 33.8867 32.9102 33.8867ZM27.4902 53.3691L30.6641 55.6641L41.3086 43.8965L46.3867 53.0762L40.4785 53.0762L40.4785 56.8359L46.875 56.8359C48.877 56.8359 49.8535 56.3477 50.9277 55.1758L63.2812 40.7227L69.1406 55.2246L72.7051 53.6133L61.8652 26.9531C61.3281 25.7324 60.6445 25.293 59.2285 25.293L53.2227 25.293C52.0996 25.293 51.1719 26.1719 51.1719 27.2949C51.1719 28.3203 52.0508 29.248 53.2227 29.248L58.6426 29.248L61.6699 36.6699L43.0176 39.0625L39.4043 32.5195L35.4492 33.4961L39.1113 40.0879ZM45.0684 42.7734L58.6426 40.4785L49.6094 50.8789Z" fill="#000000" fill-opacity="0.85"/>
 </g>
</svg>
