<?xml version="1.0" encoding="UTF-8"?>
<!--Generator: Apple Native CoreSVG 232.5-->
<!DOCTYPE svg
PUBLIC "-//W3C//DTD SVG 1.1//EN"
       "http://www.w3.org/Graphics/SVG/1.1/DTD/svg11.dtd">
<svg version="1.1" xmlns="http://www.w3.org/2000/svg" xmlns:xlink="http://www.w3.org/1999/xlink" width="99.6094" height="99.6582">
 <g>
  <rect height="99.6582" opacity="0" width="99.6094" x="0" y="0"/>
  <path d="M99.6094 49.8535C99.6094 77.0996 77.0508 99.6582 49.8047 99.6582C22.6074 99.6582 0 77.0996 0 49.8535C0 22.6562 22.5586 0.0488281 49.7559 0.0488281C77.002 0.0488281 99.6094 22.6562 99.6094 49.8535ZM53.3691 24.707C52.1973 24.707 51.2695 25.5859 51.2695 26.709C51.2695 27.832 52.1484 28.8086 53.3691 28.8086L58.9844 28.8086L62.0605 36.4258L42.8711 38.916L39.8926 33.5449L41.8945 33.5449C43.0176 33.5449 44.043 32.666 44.043 31.5918C44.043 30.4199 43.0664 29.4922 41.8945 29.4922L32.4219 29.4922C31.2988 29.4922 30.3711 30.3711 30.3711 31.5918C30.3711 32.666 31.2988 33.5449 32.4219 33.5449L35.3027 33.5449L38.8184 39.9414L35.2051 44.1406C32.959 42.6758 30.3223 41.8457 27.4414 41.8457C19.6289 41.8457 13.2812 48.0957 13.2812 55.957C13.2812 63.7695 19.6289 70.1172 27.4414 70.1172C34.8145 70.1172 40.8691 64.4531 41.5527 57.2266L46.8262 57.2266C48.877 57.2266 49.9023 56.7383 51.0254 55.5176L63.7695 40.625L65.0879 43.7988C60.9375 46.2402 58.1055 50.7324 58.1055 55.957C58.1055 63.7695 64.4531 70.1172 72.2656 70.1172C80.0781 70.1172 86.4258 63.7695 86.4258 55.957C86.4258 48.0957 80.0781 41.8457 72.2656 41.8457C71.0938 41.8457 69.873 41.9434 68.7988 42.2852L62.3047 26.3672C61.7676 25.1465 61.0352 24.707 59.5703 24.707ZM32.4707 47.2168L27.832 52.5879C25.5859 52.4414 24.0723 54.0527 24.0723 55.9082C24.0723 57.8613 25.5371 59.3262 27.4902 59.3262C29.3457 59.3262 30.8105 57.8613 30.8105 55.9082C30.8105 55.6641 30.7617 55.3711 30.7617 55.3223L35.5957 49.9512C36.7676 51.6113 37.5 53.6621 37.5 55.8594C37.5 61.5234 33.0078 65.918 27.4902 65.918C21.9238 65.918 17.4316 61.5234 17.4316 55.8594C17.4316 50.3418 21.9238 45.8496 27.4902 45.8496C29.2969 45.8496 31.0059 46.3867 32.4707 47.2168ZM82.373 55.8594C82.373 61.5234 77.8809 65.918 72.3633 65.918C66.748 65.918 62.2559 61.5234 62.2559 55.8594C62.2559 52.4414 64.0137 49.4629 66.6016 47.6562L69.3359 54.3945C69.0918 54.834 68.9453 55.3711 68.9453 55.9082C68.9453 57.8613 70.4102 59.3262 72.3633 59.3262C74.2188 59.3262 75.6836 57.8613 75.6836 55.9082C75.6836 54.248 74.5117 52.9297 72.998 52.5879L70.3613 46.0938C70.9961 45.9473 71.6309 45.8496 72.3633 45.8496C77.8809 45.8496 82.373 50.3418 82.373 55.8594ZM46.3379 53.3203L41.3574 53.3203C40.918 50.9277 39.8438 48.7305 38.3789 46.9238L41.1133 43.8965ZM49.6582 51.0742L44.9707 42.7246L58.9355 40.332Z" fill="#000000" fill-opacity="0.85"/>
 </g>
</svg>
