<?xml version="1.0" encoding="UTF-8"?>
<!--Generator: Apple Native CoreSVG 232.5-->
<!DOCTYPE svg
PUBLIC "-//W3C//DTD SVG 1.1//EN"
       "http://www.w3.org/Graphics/SVG/1.1/DTD/svg11.dtd">
<svg version="1.1" xmlns="http://www.w3.org/2000/svg" xmlns:xlink="http://www.w3.org/1999/xlink" width="158.301" height="98.0957">
 <g>
  <rect height="98.0957" opacity="0" width="158.301" x="0" y="0"/>
  <path d="M31.1035 98.0957C48.2422 98.0957 62.1582 84.1797 62.1582 67.041C62.1582 49.8535 48.291 35.9863 31.1035 35.9863C13.916 35.9863 0 49.8535 0 67.041C0 84.2285 13.916 98.0957 31.1035 98.0957ZM31.1035 90.4297C18.1152 90.4297 7.71484 80.0293 7.71484 67.041C7.71484 54.1016 18.1641 43.6523 31.1035 43.6523C44.043 43.6523 54.4922 54.1016 54.4922 67.041C54.4922 79.9805 44.043 90.4297 31.1035 90.4297ZM127.246 98.0957C144.385 98.0957 158.301 84.1797 158.301 67.041C158.301 49.8535 144.385 35.9863 127.246 35.9863C110.059 35.9863 96.0938 49.8535 96.0938 67.041C96.0938 84.2285 110.059 98.0957 127.246 98.0957ZM127.246 90.4297C114.258 90.4297 103.809 80.0293 103.809 67.041C103.809 54.1016 114.258 43.6523 127.246 43.6523C140.137 43.6523 150.635 54.1992 150.635 67.041C150.635 79.9805 140.137 90.4297 127.246 90.4297ZM83.252 3.80859C83.252 5.9082 84.9609 7.56836 87.0605 7.56836L99.707 7.56836C100.098 7.56836 100.195 7.66602 100.342 7.91016L123.584 68.457L130.664 66.0156L106.348 3.27148C105.469 0.927734 103.857 0 101.025 0L87.0605 0C84.9609 0 83.252 1.70898 83.252 3.80859ZM113.77 33.4473L113.77 26.416L61.9629 34.0332L61.9629 41.0645ZM73.7305 71.4844L73.7305 64.4531L31.5918 64.4531L31.5918 71.4844ZM79.1016 77.4414C84.7656 77.4414 89.3555 72.8516 89.3555 67.2363C89.3555 61.5723 84.7656 57.0312 79.1016 57.0312C73.3887 57.0312 68.8965 61.5234 68.8477 67.2363C68.75 72.8027 73.3398 77.4414 79.1016 77.4414ZM79.1504 70.752C77.1484 70.752 75.5859 69.1406 75.5859 67.2852C75.5859 65.332 77.1484 63.7207 79.1504 63.7207C81.1035 63.7207 82.6172 65.2832 82.6172 67.2852C82.6172 69.1895 81.1035 70.752 79.1504 70.752ZM31.1035 73.3887C34.6191 73.3887 37.5 70.5566 37.5 67.041C37.5 63.4766 34.668 60.6445 31.1035 60.6445C27.5391 60.6445 24.8047 63.4277 24.7559 67.041C24.707 70.5566 27.4902 73.3887 31.1035 73.3887ZM127.246 73.4375C130.811 73.4375 133.594 70.5566 133.594 67.041C133.594 63.4766 130.859 60.6934 127.246 60.6934C123.682 60.6934 120.898 63.4277 120.85 67.041C120.801 70.5566 123.633 73.4375 127.246 73.4375ZM77.4414 59.5703L83.7402 63.1348L114.111 30.5664L105.273 30.2734ZM28.2227 64.5996L34.4727 68.1641L63.5254 38.4766L57.5195 34.1797ZM72.3145 64.1113L78.5645 59.6191L57.0312 18.7988L49.707 20.3613ZM40.5762 17.8223C40.5762 19.9219 42.2852 21.582 44.3848 21.582L63.5742 21.582C65.6738 21.582 67.3828 19.9219 67.3828 17.8223C67.3828 15.7715 65.625 14.0137 63.5742 14.0137L44.3848 14.0137C42.334 14.0137 40.5762 15.7715 40.5762 17.8223Z" fill="#000000" fill-opacity="0.85"/>
 </g>
</svg>
