<?xml version="1.0" encoding="UTF-8"?>
<!--Generator: Apple Native CoreSVG 232.5-->
<!DOCTYPE svg
PUBLIC "-//W3C//DTD SVG 1.1//EN"
       "http://www.w3.org/Graphics/SVG/1.1/DTD/svg11.dtd">
<svg version="1.1" xmlns="http://www.w3.org/2000/svg" xmlns:xlink="http://www.w3.org/1999/xlink" width="99.6094" height="99.6582">
 <g>
  <rect height="99.6582" opacity="0" width="99.6094" x="0" y="0"/>
  <path d="M49.8047 99.6094C77.0508 99.6094 99.6094 77.002 99.6094 49.8047C99.6094 22.5586 77.002 0 49.7559 0C22.5586 0 0 22.5586 0 49.8047C0 77.002 22.6074 99.6094 49.8047 99.6094ZM49.8047 91.3086C26.7578 91.3086 8.34961 72.8516 8.34961 49.8047C8.34961 26.7578 26.709 8.30078 49.7559 8.30078C72.8027 8.30078 91.3086 26.7578 91.3086 49.8047C91.3086 72.8516 72.8516 91.3086 49.8047 91.3086Z" fill="#000000" fill-opacity="0.85"/>
  <path d="M18.3594 60.6934C18.3594 67.5293 24.4141 72.7051 31.9824 72.7051C39.502 72.7051 45.6543 67.5293 45.6543 60.6934L45.6543 54.2969C46.8262 53.8574 48.291 53.5645 49.7559 53.5645C51.3672 53.5645 52.7344 53.7598 53.8574 54.1504L53.8574 60.6934C53.8574 67.5293 60.0098 72.7051 67.4805 72.7051C75.0488 72.7051 81.1523 67.5293 81.1523 60.6934C81.1523 58.8867 80.957 57.2266 79.9805 54.834L69.7266 31.0059C68.3594 27.832 65.3809 25.9277 61.6699 25.9277C56.9336 25.9277 53.8574 28.9551 53.8574 33.4473L53.8574 35.8887C52.6367 35.498 51.2695 35.3027 49.7559 35.3027C48.3398 35.3027 46.9238 35.5469 45.6543 35.9863L45.6543 33.4473C45.6543 28.9551 42.5781 25.9277 37.8418 25.9277C34.1309 25.9277 31.1523 27.832 29.834 31.0059L19.5312 54.834C18.5547 57.2266 18.3594 58.8867 18.3594 60.6934ZM23.3887 60.6934C23.3887 56.4453 26.8555 53.5645 31.9824 53.5645C37.207 53.5645 40.7227 56.4453 40.7227 60.6934C40.7227 64.8438 37.207 67.7734 31.9824 67.7734C26.8555 67.7734 23.3887 64.8438 23.3887 60.6934ZM58.7402 60.6934C58.7402 56.4453 62.3047 53.5645 67.4805 53.5645C72.6074 53.5645 76.123 56.4453 76.123 60.6934C76.123 64.8438 72.6074 67.7734 67.4805 67.7734C62.3047 67.7734 58.7402 64.8438 58.7402 60.6934ZM45.6543 46.9727L45.6543 43.3594C46.875 42.9688 48.3398 42.7246 49.7559 42.7246C51.2695 42.7246 52.6367 42.9199 53.8574 43.2617L53.8574 46.7285C52.7344 46.3867 51.3672 46.1914 49.7559 46.1914C48.291 46.1914 46.8262 46.4355 45.6543 46.9727Z" fill="#000000" fill-opacity="0.85"/>
 </g>
</svg>
