<?xml version="1.0" encoding="UTF-8"?>
<!--Generator: Apple Native CoreSVG 232.5-->
<!DOCTYPE svg
PUBLIC "-//W3C//DTD SVG 1.1//EN"
       "http://www.w3.org/Graphics/SVG/1.1/DTD/svg11.dtd">
<svg version="1.1" xmlns="http://www.w3.org/2000/svg" xmlns:xlink="http://www.w3.org/1999/xlink" width="124.658" height="96.7285">
 <g>
  <rect height="96.7285" opacity="0" width="124.658" x="0" y="0"/>
  <path d="M0 72.9004C0 86.5234 12.207 96.7285 27.1484 96.7285C42.041 96.7285 54.1992 86.5234 54.1992 72.9004L54.1992 18.9453C54.1992 10.0098 48.0957 4.05273 38.7207 4.05273C31.3965 4.05273 25.5371 7.76367 22.8027 14.1113L2.49023 61.377C0.488281 66.0156 0 69.3359 0 72.9004ZM14.5508 52.002L29.4434 17.3828C31.1035 13.4766 34.4238 11.1816 38.4277 11.1816C43.6035 11.1816 46.9238 14.5996 46.9238 19.7266L46.9238 56.8359C42.041 52.002 34.8145 49.0723 27.1484 49.0723C22.8027 49.0723 18.3594 50.1465 14.5508 52.002ZM7.66602 72.9004C7.66602 63.0859 16.1133 56.3965 27.1484 56.3965C38.1348 56.3965 46.875 63.0859 46.875 72.9004C46.875 82.7148 38.1348 89.4043 27.1484 89.4043C16.1133 89.4043 7.66602 82.7148 7.66602 72.9004ZM124.658 72.9004C124.658 69.3359 124.121 66.0156 122.119 61.377L101.855 14.1113C99.0723 7.76367 93.2617 4.05273 85.9375 4.05273C76.5625 4.05273 70.459 10.0098 70.459 18.9453L70.459 72.9004C70.459 86.5234 82.6172 96.7285 97.5098 96.7285C112.402 96.7285 124.658 86.5234 124.658 72.9004ZM110.107 52.002C106.299 50.1465 101.855 49.0723 97.5098 49.0723C89.8438 49.0723 82.5684 52.002 77.6855 56.8359L77.6855 19.7266C77.6855 14.5996 81.0547 11.1816 86.2305 11.1816C90.1855 11.1816 93.5059 13.4766 95.166 17.3828ZM116.943 72.9004C116.943 82.7148 108.496 89.4043 97.5098 89.4043C86.4746 89.4043 77.7832 82.7148 77.7832 72.9004C77.7832 63.0859 86.4746 56.3965 97.5098 56.3965C108.496 56.3965 116.943 63.0859 116.943 72.9004ZM50.9277 61.9141C53.7598 60.1074 57.959 58.9355 62.3535 58.9355C67.7734 58.9355 71.2891 59.7656 74.0723 61.8164L74.0723 54.541C70.8496 53.1738 66.9922 52.5391 62.3535 52.5391C58.3008 52.5391 54.3457 53.3691 50.9277 54.7852ZM50.9277 47.0215C53.7598 45.166 57.959 44.043 62.3535 44.043C67.7734 44.043 71.2891 44.8242 74.0723 46.9238L74.0723 39.6484C70.8496 38.2812 66.9922 37.6465 62.3535 37.6465C58.3008 37.6465 54.3457 38.4766 50.9277 39.8926ZM50.9277 32.0801C53.7598 30.2734 57.959 29.1016 62.3535 29.1016C67.7734 29.1016 71.2891 29.9316 74.0723 31.9824L74.0723 24.7559C70.8496 23.3887 66.9922 22.7051 62.3535 22.7051C58.3008 22.7051 54.3457 23.584 50.9277 25Z" fill="#000000" fill-opacity="0.85"/>
 </g>
</svg>
