<?xml version="1.0" encoding="UTF-8"?>
<!--Generator: Apple Native CoreSVG 232.5-->
<!DOCTYPE svg
PUBLIC "-//W3C//DTD SVG 1.1//EN"
       "http://www.w3.org/Graphics/SVG/1.1/DTD/svg11.dtd">
<svg version="1.1" xmlns="http://www.w3.org/2000/svg" xmlns:xlink="http://www.w3.org/1999/xlink" width="114.746" height="129.789">
 <g>
  <rect height="129.789" opacity="0" width="114.746" x="0" y="0"/>
  <path d="M81.7138 31.3252C74.4385 31.3252 68.8232 35.3291 64.8681 44.6553C50.708 30.4463 28.3447 17.7998 6.03025 16.0908C1.04978 15.749 0.219704 19.6064 0.122048 22.4873C-1.44045 46.9502 17.5537 68.2392 41.9678 71.0224C35.5224 85.3779 26.831 99.0498 14.7705 110.476C12.8174 112.282 13.3545 114.821 14.5752 116.628C20.3369 125.515 38.3545 130.788 50.5127 126.589C53.4424 125.563 53.9306 123.952 53.9306 121.706L53.9306 103.591C67.2607 102.858 88.3545 94.0693 84.8877 66.9697L84.3994 63.5517C94.4092 61.0127 101.196 54.5185 101.196 47.9756C101.196 39.9678 92.3584 31.3252 81.7138 31.3252ZM82.1533 38.3564C89.1357 38.3564 94.165 43.4345 94.165 47.9756C94.165 51.6865 89.2334 55.9834 79.7607 57.3017C78.2959 57.4482 77.2217 58.5224 77.3681 59.8896L78.0029 67.165C80.1025 92.2627 60.6689 95.8271 49.3408 96.3642C47.9248 96.4131 46.8506 97.3896 46.8506 98.8545L46.8506 120.241C46.8506 120.729 46.6553 121.12 46.1181 121.169C36.6455 122.878 26.3428 119.46 21.4599 114.431C21.1181 114.089 20.9717 113.552 21.3623 113.21C34.5459 100.563 43.5303 85.2314 50.2685 69.1181C51.1963 66.872 50.3174 65.0654 48.0224 64.9678C24.7803 64.3818 7.34861 47.292 7.1533 24.1963C7.1533 23.4638 7.29978 23.2685 8.08103 23.3662C28.6865 25.9053 48.1689 37.5752 59.3506 49.1474C61.3525 51.1494 62.7685 52.1748 64.7217 52.1748C67.8955 52.1748 69.4092 50.6123 71.0205 47.3408C73.8525 41.4814 76.3428 38.3564 82.1533 38.3564ZM73.0224 37.0869L79.6142 34.792C72.8271 19.0693 63.501 8.22947 50.8056 0.954081C47.0459-1.19436 43.2373 0.416971 42.2119 4.46971C39.7705 13.3564 38.7939 21.9013 39.9658 30.7881L47.6318 34.4013C45.874 25.5146 46.2158 17.751 48.2666 9.45017C48.4131 8.57127 49.292 8.2783 50.0244 8.71775C59.8877 15.1631 67.2607 24.0498 73.0224 37.0869ZM85.376 49.2451C86.9873 49.2451 88.3545 47.9267 88.3545 46.2666C88.3545 44.6553 86.9873 43.2392 85.376 43.2392C83.667 43.2392 82.3486 44.6553 82.3486 46.2666C82.3486 47.9267 83.667 49.2451 85.376 49.2451ZM93.5303 55.5928L111.353 58.1318C114.673 58.6201 116.235 53.6885 112.866 52.2724L96.7529 45.4365Z" fill="#000000" fill-opacity="0.85"/>
 </g>
</svg>
