<?xml version="1.0" encoding="UTF-8"?>
<!--Generator: Apple Native CoreSVG 232.5-->
<!DOCTYPE svg
PUBLIC "-//W3C//DTD SVG 1.1//EN"
       "http://www.w3.org/Graphics/SVG/1.1/DTD/svg11.dtd">
<svg version="1.1" xmlns="http://www.w3.org/2000/svg" xmlns:xlink="http://www.w3.org/1999/xlink" width="99.6094" height="99.6582">
 <g>
  <rect height="99.6582" opacity="0" width="99.6094" x="0" y="0"/>
  <path d="M49.8047 99.6094C77.0508 99.6094 99.6094 77.002 99.6094 49.8047C99.6094 22.5586 77.002 0 49.7559 0C22.5586 0 0 22.5586 0 49.8047C0 77.002 22.6074 99.6094 49.8047 99.6094ZM49.8047 91.3086C26.7578 91.3086 8.34961 72.8516 8.34961 49.8047C8.34961 26.7578 26.709 8.30078 49.7559 8.30078C72.8027 8.30078 91.3086 26.7578 91.3086 49.8047C91.3086 72.8516 72.8516 91.3086 49.8047 91.3086Z" fill="#000000" fill-opacity="0.85"/>
  <path d="M63.623 33.7891C60.0586 33.7891 57.3242 35.791 55.4199 40.5762C48.5352 33.4961 37.5 27.1484 26.4648 26.3184C24.1699 26.1719 23.877 27.832 23.8281 29.1992C22.998 41.3574 32.6172 51.9043 45.3613 52.7832C41.9434 60.9863 36.377 67.4805 30.9082 72.6074C30.0293 73.3398 30.2734 74.4629 30.8105 75.293C33.6426 79.541 42.334 82.0801 48.1934 80.0781C49.4629 79.5898 49.707 78.9551 49.707 77.9297L49.707 68.8477C56.2012 68.5059 66.3086 64.4043 64.8926 51.0254L64.6484 49.1699C67.5781 48.4375 69.9219 47.0703 71.3379 45.459L78.3691 46.4844C79.9316 46.6797 80.7617 44.2383 79.1016 43.6035L72.8516 40.9668C72.3633 37.3535 68.457 33.7891 63.623 33.7891ZM42.9199 27.6855C47.2656 29.834 51.2207 32.4707 54.5898 35.3027C56.25 33.0566 58.252 31.6406 60.498 31.0059C57.4219 25.4883 53.4668 21.3867 48.4375 18.5059C46.582 17.4316 44.7266 18.2617 44.2383 20.2148C43.5547 22.7051 43.0664 25.1953 42.9199 27.6855ZM64.3555 40.625C64.3555 39.6973 65.1855 38.916 66.0645 38.916C67.041 38.916 67.8223 39.6973 67.8223 40.625C67.8223 41.6016 67.041 42.334 66.0645 42.334C65.1855 42.334 64.3555 41.6016 64.3555 40.625Z" fill="#000000" fill-opacity="0.85"/>
 </g>
</svg>
