<?xml version="1.0" encoding="UTF-8"?>
<!--Generator: Apple Native CoreSVG 232.5-->
<!DOCTYPE svg
PUBLIC "-//W3C//DTD SVG 1.1//EN"
       "http://www.w3.org/Graphics/SVG/1.1/DTD/svg11.dtd">
<svg version="1.1" xmlns="http://www.w3.org/2000/svg" xmlns:xlink="http://www.w3.org/1999/xlink" width="109.095" height="99.6582">
 <g>
  <rect height="99.6582" opacity="0" width="109.095" x="0" y="0"/>
  <path d="M59.2839 99.6094C86.4812 99.6094 109.089 77.002 109.089 49.8047C109.089 22.5586 86.4812 0 59.2839 0C32.0378 0 9.47924 22.5098 9.47924 49.7559L17.78 49.7559C17.78 26.709 36.2371 8.34961 59.2839 8.34961C82.3308 8.34961 100.788 26.7578 100.788 49.8047C100.788 72.8516 82.3308 91.4062 59.2839 91.3086C45.3679 91.2598 33.1609 84.5215 25.6902 74.1211C24.1765 72.1191 21.8816 71.4844 19.8308 72.7051C17.8777 73.9258 17.3406 76.6113 19.0007 78.7598C28.2781 91.2109 42.8289 99.6094 59.2839 99.6094ZM3.47339 40.3809C-0.04224 40.3809-0.921146 42.7734 0.983151 45.5078L11.9207 61.0352C13.532 63.2812 15.8757 63.2324 17.4382 61.0352L28.3757 45.459C30.2312 42.7734 29.3523 40.3809 25.8855 40.3809Z" fill="#000000" fill-opacity="0.85"/>
  <path d="M45.5144 69.4336C45.5144 71.6797 47.0281 73.2422 49.323 73.2422L51.3738 73.2422L51.3738 77.0996C51.3738 78.5156 52.3992 79.4922 53.7664 79.4922C55.1335 79.4922 56.1101 78.5156 56.1101 77.0996L56.1101 73.2422L59.2839 73.2422L59.2839 77.0996C59.2839 78.5156 60.2605 79.4922 61.6277 79.4922C62.9949 79.4922 63.9714 78.5156 63.9714 77.0996L63.9714 73.0957C72.1257 72.2168 76.8621 67.5293 76.8621 60.3516C76.8621 54.834 73.5906 50.7324 68.5124 49.2188C72.1257 47.4609 74.6648 43.6035 74.6648 39.4531C74.6648 33.3984 70.5144 29.0039 63.9714 28.0273L63.9714 24.0723C63.9714 22.6562 62.9949 21.6797 61.6277 21.6797C60.2605 21.6797 59.2839 22.6562 59.2839 24.0723L59.2839 27.832L56.1101 27.832L56.1101 24.0723C56.1101 22.6562 55.1335 21.6797 53.7664 21.6797C52.3992 21.6797 51.3738 22.6562 51.3738 24.0723L51.3738 27.832L49.323 27.832C47.0769 27.832 45.5144 29.3945 45.5144 31.6895ZM51.7644 67.5293L51.7644 52.6855L60.0164 52.6855C66.9499 52.6855 70.6121 55.1758 70.6121 60.1074C70.6121 64.9414 67.0964 67.4316 60.5535 67.4805ZM51.7644 46.9727L51.7644 33.4961L60.114 33.4961C65.3874 33.4961 68.366 35.791 68.366 39.9414C68.366 44.5312 64.948 47.0703 58.698 47.0215Z" fill="#000000" fill-opacity="0.85"/>
 </g>
</svg>
