<?xml version="1.0" encoding="UTF-8"?>
<!--Generator: Apple Native CoreSVG 232.5-->
<!DOCTYPE svg
PUBLIC "-//W3C//DTD SVG 1.1//EN"
       "http://www.w3.org/Graphics/SVG/1.1/DTD/svg11.dtd">
<svg version="1.1" xmlns="http://www.w3.org/2000/svg" xmlns:xlink="http://www.w3.org/1999/xlink" width="58.7891" height="111.963">
 <g>
  <rect height="111.963" opacity="0" width="58.7891" x="0" y="0"/>
  <path d="M6.05469 99.707L29.541 99.707C47.8027 99.707 58.7891 90.7715 58.7891 75.8301C58.7891 64.0625 50.7324 55.9082 38.8184 54.4434L38.8184 54.0527C47.7051 52.4414 54.3457 44.1406 54.3457 34.8145C54.3457 21.9727 44.3359 13.4277 29.4434 13.4277L6.05469 13.4277C2.39258 13.4277 0 15.8203 0 19.4824L0 93.6523C0 97.3145 2.39258 99.707 6.05469 99.707ZM9.32617 51.123L9.32617 21.6309L27.2949 21.6309C38.3789 21.6309 45.0195 26.709 45.0195 35.791C45.0195 45.7031 37.5488 51.123 24.6094 51.123ZM9.32617 91.5039L9.32617 59.375L26.9531 59.375C41.4062 59.375 49.3164 64.8926 49.3164 75.4395C49.3164 85.9375 41.6504 91.5039 28.0762 91.5039ZM18.0176 18.9941L18.0176 4.73633C18.0176 2.97852 16.6016 1.51367 14.8438 1.51367C13.0371 1.51367 11.6211 2.97852 11.6211 4.73633L11.6211 18.9941ZM33.3984 18.9941L33.3984 4.73633C33.3984 2.97852 31.9824 1.51367 30.1758 1.51367C28.418 1.51367 27.002 2.97852 27.002 4.73633L27.002 18.9941ZM18.0176 94.1895L11.6211 94.1895L11.6211 108.789C11.6211 110.547 13.0371 111.963 14.8438 111.963C16.6016 111.963 18.0176 110.547 18.0176 108.789ZM33.3984 94.1895L27.002 94.1895L27.002 108.789C27.002 110.547 28.418 111.963 30.1758 111.963C31.9824 111.963 33.3984 110.547 33.3984 108.789Z" fill="#000000" fill-opacity="0.85"/>
 </g>
</svg>
