<?xml version="1.0" encoding="UTF-8"?>
<!--Generator: Apple Native CoreSVG 232.5-->
<!DOCTYPE svg
PUBLIC "-//W3C//DTD SVG 1.1//EN"
       "http://www.w3.org/Graphics/SVG/1.1/DTD/svg11.dtd">
<svg version="1.1" xmlns="http://www.w3.org/2000/svg" xmlns:xlink="http://www.w3.org/1999/xlink" width="99.6094" height="99.6582">
 <g>
  <rect height="99.6582" opacity="0" width="99.6094" x="0" y="0"/>
  <path d="M49.8047 99.6094C77.0508 99.6094 99.6094 77.002 99.6094 49.8047C99.6094 22.5586 77.002 0 49.7559 0C22.5586 0 0 22.5586 0 49.8047C0 77.002 22.6074 99.6094 49.8047 99.6094ZM49.8047 91.3086C26.7578 91.3086 8.34961 72.8516 8.34961 49.8047C8.34961 26.7578 26.709 8.30078 49.7559 8.30078C72.8027 8.30078 91.3086 26.7578 91.3086 49.8047C91.3086 72.8516 72.8516 91.3086 49.8047 91.3086Z" fill="#000000" fill-opacity="0.85"/>
  <path d="M35.9863 69.4336C35.9863 71.6797 37.5488 73.2422 39.8438 73.2422L41.8945 73.2422L41.8945 77.0996C41.8945 78.5156 42.8711 79.4922 44.2383 79.4922C45.6055 79.4922 46.582 78.5156 46.582 77.0996L46.582 73.2422L49.7559 73.2422L49.7559 77.0996C49.7559 78.5156 50.7812 79.4922 52.0996 79.4922C53.4668 79.4922 54.4922 78.5156 54.4922 77.0996L54.4922 73.0957C62.5977 72.2168 67.334 67.5293 67.334 60.3516C67.334 54.834 64.0625 50.7324 59.0332 49.2188C62.6465 47.4609 65.1367 43.6035 65.1367 39.4531C65.1367 33.3984 60.9863 29.0039 54.4922 28.0273L54.4922 24.0723C54.4922 22.6562 53.4668 21.6797 52.0996 21.6797C50.7812 21.6797 49.7559 22.6562 49.7559 24.0723L49.7559 27.832L46.582 27.832L46.582 24.0723C46.582 22.6562 45.6055 21.6797 44.2383 21.6797C42.8711 21.6797 41.8945 22.6562 41.8945 24.0723L41.8945 27.832L39.8438 27.832C37.5977 27.832 35.9863 29.3945 35.9863 31.6895ZM42.2363 67.5293L42.2363 52.6855L50.4883 52.6855C57.4707 52.6855 61.084 55.1758 61.084 60.1074C61.084 64.9414 57.6172 67.4316 51.0254 67.4805ZM42.2363 46.9727L42.2363 33.4961L50.5859 33.4961C55.8594 33.4961 58.8867 35.791 58.8867 39.9414C58.8867 44.5312 55.4688 47.0703 49.2188 47.0215Z" fill="#000000" fill-opacity="0.85"/>
 </g>
</svg>
