<?xml version="1.0" encoding="UTF-8"?>
<!--Generator: Apple Native CoreSVG 232.5-->
<!DOCTYPE svg
PUBLIC "-//W3C//DTD SVG 1.1//EN"
       "http://www.w3.org/Graphics/SVG/1.1/DTD/svg11.dtd">
<svg version="1.1" xmlns="http://www.w3.org/2000/svg" xmlns:xlink="http://www.w3.org/1999/xlink" width="103.809" height="99.7559">
 <g>
  <rect height="99.7559" opacity="0" width="103.809" x="0" y="0"/>
  <path d="M16.0156 89.6973C16.0156 92.041 16.5527 93.5547 17.7734 94.7754L21.9238 99.0234C23.2422 100.342 25.9766 99.9023 25.9766 97.5098L25.9766 22.3633C25.9766 19.9707 25.4395 18.5059 24.2188 17.2363L20.0684 13.0371C18.75 11.6699 16.0156 12.1094 16.0156 14.502ZM40.6738 89.6973C40.6738 92.041 41.1621 93.5547 42.4316 94.7754L46.582 99.0234C47.9004 100.342 50.5859 99.9023 50.5859 97.5098L50.5859 22.3633C50.5859 19.9707 50.0977 18.5059 48.8281 17.2363L44.6777 13.0371C43.3594 11.6699 40.6738 12.1094 40.6738 14.502ZM65.2832 89.6973C65.2832 92.041 65.8203 93.5547 67.041 94.7754L71.1914 99.0234C72.5098 100.342 75.2441 99.9023 75.2441 97.5098L75.2441 22.3633C75.2441 19.9707 74.707 18.5059 73.4863 17.2363L69.3359 13.0371C68.0176 11.6699 65.2832 12.1094 65.2832 14.502ZM89.9414 89.6973C89.9414 92.041 90.4297 93.5547 91.6992 94.7754L95.8496 99.0234C97.168 100.342 99.8535 99.9023 99.8535 97.5098L99.8535 22.3633C99.8535 19.9707 99.3652 18.5059 98.0957 17.2363L93.9453 13.0371C92.627 11.6699 89.9414 12.1094 89.9414 14.502Z" fill="#000000" fill-opacity="0.85"/>
  <path d="M0.146484 3.90625C0.146484 6.05469 1.95312 7.86133 4.10156 7.86133L99.8535 7.86133C102.002 7.86133 103.809 6.05469 103.809 3.90625C103.809 1.75781 102.002 0 99.8535 0L4.10156 0C1.95312 0 0.146484 1.75781 0.146484 3.90625ZM4.10156 19.1895C5.9082 19.1895 7.42188 17.6758 7.42188 15.8691C7.42188 14.0137 5.9082 12.5488 4.10156 12.5488C2.24609 12.5488 0.732422 14.0137 0.732422 15.8691C0.732422 17.6758 2.24609 19.1895 4.10156 19.1895ZM4.10156 30.5176C5.9082 30.5176 7.42188 28.9551 7.42188 27.1484C7.42188 25.3418 5.9082 23.8281 4.10156 23.8281C2.24609 23.8281 0.732422 25.3418 0.732422 27.1484C0.732422 28.9551 2.24609 30.5176 4.10156 30.5176ZM4.10156 41.7969C5.9082 41.7969 7.42188 40.2832 7.42188 38.4766C7.42188 36.6211 5.9082 35.1562 4.10156 35.1562C2.24609 35.1562 0.732422 36.6211 0.732422 38.4766C0.732422 40.2832 2.24609 41.7969 4.10156 41.7969ZM4.10156 53.125C5.9082 53.125 7.42188 51.5625 7.42188 49.7559C7.42188 47.9492 5.9082 46.4355 4.10156 46.4355C2.24609 46.4355 0.732422 47.9492 0.732422 49.7559C0.732422 51.5625 2.24609 53.125 4.10156 53.125ZM4.10156 64.4043C5.9082 64.4043 7.42188 62.8906 7.42188 61.084C7.42188 59.2285 5.9082 57.7637 4.10156 57.7637C2.24609 57.7637 0.732422 59.2285 0.732422 61.084C0.732422 62.8906 2.24609 64.4043 4.10156 64.4043ZM4.10156 75.7324C5.9082 75.7324 7.42188 74.1699 7.42188 72.3633C7.42188 70.5566 5.9082 69.043 4.10156 69.043C2.24609 69.043 0.732422 70.5566 0.732422 72.3633C0.732422 74.1699 2.24609 75.7324 4.10156 75.7324ZM4.10156 99.707C6.20117 99.707 8.00781 97.9492 8.00781 95.8008L8.00781 84.2773C8.00781 82.1289 6.25 80.3711 4.10156 80.3711C1.95312 80.3711 0.146484 82.1289 0.146484 84.2773L0.146484 95.8008C0.146484 97.9492 1.95312 99.707 4.10156 99.707Z" fill="#000000" fill-opacity="0.85"/>
 </g>
</svg>
