<?xml version="1.0" encoding="UTF-8"?>
<!--Generator: Apple Native CoreSVG 232.5-->
<!DOCTYPE svg
PUBLIC "-//W3C//DTD SVG 1.1//EN"
       "http://www.w3.org/Graphics/SVG/1.1/DTD/svg11.dtd">
<svg version="1.1" xmlns="http://www.w3.org/2000/svg" xmlns:xlink="http://www.w3.org/1999/xlink" width="103.809" height="99.7559">
 <g>
  <rect height="99.7559" opacity="0" width="103.809" x="0" y="0"/>
  <path d="M19.4336 99.707L30.0293 99.707C32.1289 99.707 33.4961 98.3398 33.4961 96.1914L33.4961 15.7715C33.4961 13.623 32.1289 12.2559 30.0293 12.2559L19.4336 12.2559C17.3828 12.2559 16.0156 13.623 16.0156 15.7715L16.0156 96.1914C16.0156 98.3398 17.3828 99.707 19.4336 99.707ZM41.5527 99.707L52.1973 99.707C54.1992 99.707 55.5664 98.3398 55.5664 96.1914L55.5664 15.7715C55.5664 13.623 54.1992 12.2559 52.1973 12.2559L41.5527 12.2559C39.4531 12.2559 38.0859 13.623 38.0859 15.7715L38.0859 96.1914C38.0859 98.3398 39.4531 99.707 41.5527 99.707ZM63.623 99.707L74.2676 99.707C76.3672 99.707 77.7344 98.3398 77.7344 96.1914L77.7344 15.7715C77.7344 13.623 76.3672 12.2559 74.2676 12.2559L63.623 12.2559C61.6211 12.2559 60.2539 13.623 60.2539 15.7715L60.2539 96.1914C60.2539 98.3398 61.6211 99.707 63.623 99.707ZM85.791 99.707L96.3867 99.707C98.4375 99.707 99.8047 98.3398 99.8047 96.1914L99.8047 15.7715C99.8047 13.623 98.4375 12.2559 96.3867 12.2559L85.791 12.2559C83.7402 12.2559 82.3242 13.623 82.3242 15.7715L82.3242 96.1914C82.3242 98.3398 83.7402 99.707 85.791 99.707Z" fill="#000000" fill-opacity="0.85"/>
  <path d="M0.146484 3.90625C0.146484 6.05469 1.95312 7.86133 4.10156 7.86133L99.8535 7.86133C102.002 7.86133 103.809 6.05469 103.809 3.90625C103.809 1.75781 102.002 0 99.8535 0L4.10156 0C1.95312 0 0.146484 1.75781 0.146484 3.90625ZM4.10156 19.1895C5.9082 19.1895 7.42188 17.6758 7.42188 15.8691C7.42188 14.0137 5.9082 12.5488 4.10156 12.5488C2.24609 12.5488 0.732422 14.0137 0.732422 15.8691C0.732422 17.6758 2.24609 19.1895 4.10156 19.1895ZM4.10156 30.5176C5.9082 30.5176 7.42188 28.9551 7.42188 27.1484C7.42188 25.3418 5.9082 23.8281 4.10156 23.8281C2.24609 23.8281 0.732422 25.3418 0.732422 27.1484C0.732422 28.9551 2.24609 30.5176 4.10156 30.5176ZM4.10156 41.7969C5.9082 41.7969 7.42188 40.2832 7.42188 38.4766C7.42188 36.6211 5.9082 35.1562 4.10156 35.1562C2.24609 35.1562 0.732422 36.6211 0.732422 38.4766C0.732422 40.2832 2.24609 41.7969 4.10156 41.7969ZM4.10156 53.125C5.9082 53.125 7.42188 51.5625 7.42188 49.7559C7.42188 47.9492 5.9082 46.4355 4.10156 46.4355C2.24609 46.4355 0.732422 47.9492 0.732422 49.7559C0.732422 51.5625 2.24609 53.125 4.10156 53.125ZM4.10156 64.4043C5.9082 64.4043 7.42188 62.8906 7.42188 61.084C7.42188 59.2285 5.9082 57.7637 4.10156 57.7637C2.24609 57.7637 0.732422 59.2285 0.732422 61.084C0.732422 62.8906 2.24609 64.4043 4.10156 64.4043ZM4.10156 75.7324C5.9082 75.7324 7.42188 74.1699 7.42188 72.3633C7.42188 70.5566 5.9082 69.043 4.10156 69.043C2.24609 69.043 0.732422 70.5566 0.732422 72.3633C0.732422 74.1699 2.24609 75.7324 4.10156 75.7324ZM4.10156 99.707C6.20117 99.707 8.00781 97.9492 8.00781 95.8008L8.00781 84.2773C8.00781 82.1289 6.25 80.3711 4.10156 80.3711C1.95312 80.3711 0.146484 82.1289 0.146484 84.2773L0.146484 95.8008C0.146484 97.9492 1.95312 99.707 4.10156 99.707Z" fill="#000000" fill-opacity="0.85"/>
 </g>
</svg>
