<?xml version="1.0" encoding="UTF-8"?>
<!--Generator: Apple Native CoreSVG 232.5-->
<!DOCTYPE svg
PUBLIC "-//W3C//DTD SVG 1.1//EN"
       "http://www.w3.org/Graphics/SVG/1.1/DTD/svg11.dtd">
<svg version="1.1" xmlns="http://www.w3.org/2000/svg" xmlns:xlink="http://www.w3.org/1999/xlink" width="103.809" height="99.7559">
 <g>
  <rect height="99.7559" opacity="0" width="103.809" x="0" y="0"/>
  <path d="M13.3301 16.5527L13.3301 27.832C13.3301 29.8828 14.7949 31.25 16.8945 31.25L96.3379 31.25C98.5352 31.25 99.8535 29.834 99.8535 27.7832L99.8535 16.5039C99.8535 14.4531 98.4863 13.0371 96.3379 13.0371L16.8945 13.0371C14.7461 13.0371 13.3301 14.502 13.3301 16.5527ZM13.3301 39.3066L13.3301 50.6836C13.3301 52.6855 14.7461 54.0527 16.8945 54.0527L96.3867 54.0527C98.4863 54.0527 99.8535 52.6367 99.8535 50.6836L99.8535 39.2578C99.8535 37.2559 98.4863 35.8887 96.3867 35.8887L16.9434 35.8887C14.7949 35.8887 13.3301 37.2559 13.3301 39.3066ZM13.3301 62.1094L13.3301 73.4375C13.3301 75.4883 14.7461 76.9043 16.8945 76.9043L96.3379 76.9043C98.5352 76.9043 99.8535 75.4883 99.8535 73.4375L99.8535 62.0605C99.8535 60.1074 98.5352 58.7402 96.3379 58.7402L16.8945 58.7402C14.7949 58.7402 13.3301 60.1074 13.3301 62.1094ZM13.3301 84.9121L13.3301 96.2402C13.3301 98.291 14.6973 99.6582 16.8457 99.6582L96.2891 99.6582C98.4375 99.6582 99.8535 98.291 99.8535 96.2402L99.8535 84.9121C99.8535 82.8125 98.4863 81.4941 96.3379 81.4941L16.8945 81.4941C14.6973 81.4941 13.3301 82.8613 13.3301 84.9121Z" fill="#000000" fill-opacity="0.85"/>
  <path d="M0.146484 3.90625C0.146484 6.05469 1.95312 7.86133 4.10156 7.86133L99.8535 7.86133C102.002 7.86133 103.809 6.05469 103.809 3.90625C103.809 1.75781 102.002 0 99.8535 0L4.10156 0C1.95312 0 0.146484 1.75781 0.146484 3.90625ZM4.10156 19.1895C5.9082 19.1895 7.42188 17.6758 7.42188 15.8691C7.42188 14.0137 5.9082 12.5488 4.10156 12.5488C2.24609 12.5488 0.732422 14.0137 0.732422 15.8691C0.732422 17.6758 2.24609 19.1895 4.10156 19.1895ZM4.10156 30.5176C5.9082 30.5176 7.42188 28.9551 7.42188 27.1484C7.42188 25.3418 5.9082 23.8281 4.10156 23.8281C2.24609 23.8281 0.732422 25.3418 0.732422 27.1484C0.732422 28.9551 2.24609 30.5176 4.10156 30.5176ZM4.10156 41.7969C5.9082 41.7969 7.42188 40.2832 7.42188 38.4766C7.42188 36.6211 5.9082 35.1562 4.10156 35.1562C2.24609 35.1562 0.732422 36.6211 0.732422 38.4766C0.732422 40.2832 2.24609 41.7969 4.10156 41.7969ZM4.10156 53.125C5.9082 53.125 7.42188 51.5625 7.42188 49.7559C7.42188 47.9492 5.9082 46.4355 4.10156 46.4355C2.24609 46.4355 0.732422 47.9492 0.732422 49.7559C0.732422 51.5625 2.24609 53.125 4.10156 53.125ZM4.10156 64.4043C5.9082 64.4043 7.42188 62.8906 7.42188 61.084C7.42188 59.2285 5.9082 57.7637 4.10156 57.7637C2.24609 57.7637 0.732422 59.2285 0.732422 61.084C0.732422 62.8906 2.24609 64.4043 4.10156 64.4043ZM4.10156 75.7324C5.9082 75.7324 7.42188 74.1699 7.42188 72.3633C7.42188 70.5566 5.9082 69.043 4.10156 69.043C2.24609 69.043 0.732422 70.5566 0.732422 72.3633C0.732422 74.1699 2.24609 75.7324 4.10156 75.7324ZM4.10156 99.707C6.20117 99.707 8.00781 97.9492 8.00781 95.8008L8.00781 84.2773C8.00781 82.1289 6.25 80.3711 4.10156 80.3711C1.95312 80.3711 0.146484 82.1289 0.146484 84.2773L0.146484 95.8008C0.146484 97.9492 1.95312 99.707 4.10156 99.707Z" fill="#000000" fill-opacity="0.85"/>
 </g>
</svg>
