<?xml version="1.0" encoding="UTF-8"?>
<!--Generator: Apple Native CoreSVG 232.5-->
<!DOCTYPE svg
PUBLIC "-//W3C//DTD SVG 1.1//EN"
       "http://www.w3.org/Graphics/SVG/1.1/DTD/svg11.dtd">
<svg version="1.1" xmlns="http://www.w3.org/2000/svg" xmlns:xlink="http://www.w3.org/1999/xlink" width="130.615" height="102.295">
 <g>
  <rect height="102.295" opacity="0" width="130.615" x="0" y="0"/>
  <path d="M76.6602 102.295L127.734 102.295C129.297 102.295 130.615 101.074 130.615 99.4141C130.615 97.7539 129.297 96.4844 127.734 96.4844L76.6602 96.4844C75.0977 96.4844 73.7793 97.7539 73.7793 99.4141C73.7793 101.074 75.0977 102.295 76.6602 102.295Z" fill="#000000" fill-opacity="0.85"/>
  <path d="M102.197 87.3047C119.775 87.3047 130.615 76.7578 130.615 61.4258L130.615 19.5801C130.615 16.8457 128.809 15.0879 126.074 15.0879C123.34 15.0879 121.582 16.8457 121.582 19.5801L121.582 60.6934C121.582 71.582 114.404 78.9551 102.197 78.9551C89.9902 78.9551 82.8125 71.582 82.8125 60.6934L82.8125 19.5801C82.8125 16.8457 80.957 15.0879 78.2227 15.0879C75.4883 15.0879 73.7793 16.8457 73.7793 19.5801L73.7793 61.4258C73.7793 76.7578 84.6191 87.3047 102.197 87.3047Z" fill="#000000" fill-opacity="0.85"/>
  <path d="M8.25195 86.0352L33.6914 86.0352C48.6328 86.0352 58.0566 78.1738 58.0566 66.1133C58.0566 56.5918 51.1719 49.707 41.2598 49.1699L41.2598 48.7793C49.3652 47.6562 54.8828 41.5527 54.8828 33.7891C54.8828 22.9004 46.5332 16.2109 33.0078 16.2109L8.25195 16.2109C3.02734 16.2109 0 19.2871 0 24.6582L0 77.6367C0 82.959 3.02734 86.0352 8.25195 86.0352ZM16.1133 74.7559L16.1133 55.3711L28.3691 55.3711C36.9141 55.3711 41.6992 58.6914 41.6992 64.9414C41.6992 71.3379 37.1094 74.7559 28.7109 74.7559ZM16.1133 45.2148L16.1133 27.6855L28.125 27.6855C34.9609 27.6855 39.0137 30.8105 39.0137 36.1816C39.0137 41.8457 34.5215 45.2148 26.9043 45.2148Z" fill="#000000" fill-opacity="0.85"/>
 </g>
</svg>
