<?xml version="1.0" encoding="UTF-8"?>
<!--Generator: Apple Native CoreSVG 232.5-->
<!DOCTYPE svg
PUBLIC "-//W3C//DTD SVG 1.1//EN"
       "http://www.w3.org/Graphics/SVG/1.1/DTD/svg11.dtd">
<svg version="1.1" xmlns="http://www.w3.org/2000/svg" xmlns:xlink="http://www.w3.org/1999/xlink" width="58.0566" height="69.873">
 <g>
  <rect height="69.873" opacity="0" width="58.0566" x="0" y="0"/>
  <path d="M8.25195 69.8242L33.6914 69.8242C48.6328 69.8242 58.0566 61.9629 58.0566 49.9023C58.0566 40.3809 51.1719 33.4961 41.2598 32.959L41.2598 32.5684C49.3652 31.4453 54.8828 25.3418 54.8828 17.5781C54.8828 6.68945 46.5332 0 33.0078 0L8.25195 0C3.02734 0 0 3.07617 0 8.44727L0 61.4258C0 66.748 3.02734 69.8242 8.25195 69.8242ZM16.1133 58.5449L16.1133 39.1602L28.3691 39.1602C36.9141 39.1602 41.6992 42.4805 41.6992 48.7305C41.6992 55.127 37.1094 58.5449 28.7109 58.5449ZM16.1133 29.0039L16.1133 11.4746L28.125 11.4746C34.9609 11.4746 39.0137 14.5996 39.0137 19.9707C39.0137 25.6348 34.5215 29.0039 26.9043 29.0039Z" fill="#000000" fill-opacity="0.85"/>
 </g>
</svg>
