<?xml version="1.0" encoding="UTF-8"?>
<!--Generator: Apple Native CoreSVG 232.5-->
<!DOCTYPE svg
PUBLIC "-//W3C//DTD SVG 1.1//EN"
       "http://www.w3.org/Graphics/SVG/1.1/DTD/svg11.dtd">
<svg version="1.1" xmlns="http://www.w3.org/2000/svg" xmlns:xlink="http://www.w3.org/1999/xlink" width="115.527" height="90.7715">
 <g>
  <rect height="90.7715" opacity="0" width="115.527" x="0" y="0"/>
  <path d="M84.375 0.683594C90.8691 1.5625 95.8984 4.83398 98.5352 10.3516C100.195 13.9648 103.467 23.1934 105.225 31.9824L109.375 37.3047C113.867 43.1641 115.527 47.7539 115.527 56.0059L115.527 63.0859L115.527 84.1309C115.527 87.7441 112.744 90.5762 109.082 90.5762L103.32 90.5762C99.6582 90.5762 96.875 87.7441 96.875 84.1309L96.875 75.9507C86.0648 76.6618 70.3255 77.1484 57.7637 77.1484C45.2132 77.1484 29.5195 76.6627 18.7012 75.9527L18.7012 84.1309C18.7012 87.7441 15.8691 90.5762 12.207 90.5762L6.49414 90.5762C2.83203 90.5762 0 87.7441 0 84.1309L0 56.0059C0 47.7539 1.66016 43.1641 6.20117 37.3047L10.3027 31.9824C12.1094 23.1934 15.332 13.9648 17.041 10.3516C19.6289 4.83398 24.707 1.46484 31.2012 0.683594C34.4727 0.292969 45.166 0 57.7637 0C70.4102 0 81.1035 0.244141 84.375 0.683594ZM62.6465 14.8926L42.4805 40.2344C42.0898 40.7227 41.8457 41.1621 41.8457 41.6992C41.8457 42.5781 42.627 43.2617 43.5547 43.2617L56.0547 43.2617L49.3652 61.1328C48.4375 63.4766 51.0254 64.7949 52.5879 62.8906L72.6562 37.5488C73.1445 37.1094 73.3887 36.5723 73.3887 36.084C73.3887 35.2051 72.5586 34.4727 71.6309 34.4727L59.1797 34.4727L65.8203 16.6504C66.6992 14.2578 64.1602 12.9883 62.6465 14.8926Z" fill="#000000" fill-opacity="0.85"/>
 </g>
</svg>
