<?xml version="1.0" encoding="UTF-8"?>
<!--Generator: Apple Native CoreSVG 232.5-->
<!DOCTYPE svg
PUBLIC "-//W3C//DTD SVG 1.1//EN"
       "http://www.w3.org/Graphics/SVG/1.1/DTD/svg11.dtd">
<svg version="1.1" xmlns="http://www.w3.org/2000/svg" xmlns:xlink="http://www.w3.org/1999/xlink" width="99.7559" height="99.7559">
 <g>
  <rect height="99.7559" opacity="0" width="99.7559" x="0" y="0"/>
  <path d="M0 49.8535C0 77.3438 22.3633 99.707 49.8535 99.707C77.3438 99.707 99.7559 77.3438 99.7559 49.8535C99.7559 24.9023 81.2988 4.15039 57.3242 0.585938C58.3008 2.00195 58.9355 3.75977 58.9355 5.66406C58.9355 8.10547 57.959 10.2539 56.3965 11.8652C74.5117 15.0391 88.3789 30.8594 88.3789 49.8535C88.3789 71.0938 71.1426 88.3789 49.8535 88.3789C28.6133 88.3789 11.3281 71.0938 11.3281 49.8535C11.3281 28.6133 28.6133 11.3281 49.8535 11.3281C52.9785 11.3281 55.5176 8.78906 55.5176 5.66406C55.5176 2.53906 52.9785 0 49.8535 0C22.3633 0 0 22.3633 0 49.8535Z" fill="#000000" fill-opacity="0.85"/>
  <path d="M29.7852 52.9297C29.7852 54.1016 30.7129 54.9805 31.8848 54.9805L47.2656 54.9805L39.0625 77.002C37.9883 79.9316 41.1133 81.5918 43.0176 79.1992L67.9688 47.9004C68.4082 47.3145 68.7012 46.6797 68.7012 46.1426C68.7012 44.9707 67.7734 44.0918 66.6016 44.0918L51.2207 44.0918L59.4238 22.0215C60.498 19.0918 57.373 17.4805 55.4688 19.8242L30.5176 51.1719C30.0781 51.7578 29.7852 52.3926 29.7852 52.9297Z" fill="#000000" fill-opacity="0.85"/>
 </g>
</svg>
