<?xml version="1.0" encoding="UTF-8"?>
<!--Generator: Apple Native CoreSVG 232.5-->
<!DOCTYPE svg
PUBLIC "-//W3C//DTD SVG 1.1//EN"
       "http://www.w3.org/Graphics/SVG/1.1/DTD/svg11.dtd">
<svg version="1.1" xmlns="http://www.w3.org/2000/svg" xmlns:xlink="http://www.w3.org/1999/xlink" width="139.355" height="95.2637">
 <g>
  <rect height="95.2637" opacity="0" width="139.355" x="0" y="0"/>
  <path d="M0 47.6074C0 63.0859 5.0293 77.2949 13.5254 88.8672C15.0391 90.9668 17.627 91.1621 19.5801 89.5996C21.3379 88.0859 21.582 85.7422 20.166 83.7891C12.7441 73.6816 8.34961 61.1328 8.34961 47.6074C8.34961 34.0332 12.7441 21.5332 20.166 11.3281C21.582 9.47266 21.3867 7.08008 19.5801 5.56641C17.627 4.00391 15.0391 4.24805 13.5254 6.29883C5.0293 17.8711 0 32.1289 0 47.6074ZM139.355 47.6074C139.355 32.1289 134.375 17.8711 125.83 6.29883C124.316 4.24805 121.729 4.00391 119.775 5.56641C117.969 7.08008 117.822 9.47266 119.189 11.3281C126.66 21.5332 131.006 34.0332 131.006 47.6074C131.006 61.1328 126.66 73.6816 119.189 83.7891C117.822 85.7422 118.018 88.0859 119.775 89.5996C121.729 91.1621 124.316 90.9668 125.83 88.8672C134.375 77.2949 139.355 63.0859 139.355 47.6074Z" fill="#000000" fill-opacity="0.85"/>
  <path d="M69.6777 95.2148C95.7031 95.2148 117.334 73.6328 117.334 47.6074C117.334 21.582 95.7031 0 69.6289 0C43.6035 0 22.0703 21.5332 22.0703 47.6074C22.0703 73.6328 43.6523 95.2148 69.6777 95.2148ZM69.6777 86.9141C47.9004 86.9141 30.4199 69.4336 30.4199 47.6074C30.4199 25.7324 47.8516 8.25195 69.6289 8.25195C91.4551 8.25195 108.984 25.7324 109.033 47.6074C109.082 69.3848 91.5527 86.9141 69.6777 86.9141Z" fill="#000000" fill-opacity="0.85"/>
  <path d="M49.2676 50.7812C49.2676 51.9531 50.2441 52.7832 51.416 52.7832L67.1387 52.7832L58.7402 75.3906C57.6172 78.3691 60.791 79.9805 62.7441 77.5879L88.2324 45.6055C88.7695 45.0195 89.0137 44.3359 89.0137 43.75C89.0137 42.5781 88.0859 41.748 86.8652 41.748L71.1426 41.748L79.541 19.1895C80.6641 16.2109 77.4902 14.5508 75.5371 16.9434L50.0488 48.9258C49.5605 49.5605 49.2676 50.1953 49.2676 50.7812Z" fill="#000000" fill-opacity="0.85"/>
 </g>
</svg>
