<?xml version="1.0" encoding="UTF-8"?>
<!--Generator: Apple Native CoreSVG 232.5-->
<!DOCTYPE svg
PUBLIC "-//W3C//DTD SVG 1.1//EN"
       "http://www.w3.org/Graphics/SVG/1.1/DTD/svg11.dtd">
<svg version="1.1" xmlns="http://www.w3.org/2000/svg" xmlns:xlink="http://www.w3.org/1999/xlink" width="99.6094" height="99.6582">
 <g>
  <rect height="99.6582" opacity="0" width="99.6094" x="0" y="0"/>
  <path d="M49.8047 99.6094C77.0508 99.6094 99.6094 77.002 99.6094 49.8047C99.6094 22.5586 77.002 0 49.7559 0C22.5586 0 0 22.5586 0 49.8047C0 77.002 22.6074 99.6094 49.8047 99.6094ZM49.8047 91.3086C26.7578 91.3086 8.34961 72.8516 8.34961 49.8047C8.34961 26.7578 26.709 8.30078 49.7559 8.30078C72.8027 8.30078 91.3086 26.7578 91.3086 49.8047C91.3086 72.8516 72.8516 91.3086 49.8047 91.3086Z" fill="#000000" fill-opacity="0.85"/>
  <path d="M28.3691 53.1738C28.3691 54.3945 29.3457 55.2734 30.6152 55.2734L47.168 55.2734L38.3301 79.0039C37.1582 82.1289 40.4785 83.8379 42.5293 81.2988L69.2871 47.7051C69.8242 47.1191 70.1172 46.4355 70.1172 45.8008C70.1172 44.5801 69.1406 43.7012 67.8711 43.7012L51.3184 43.7012L60.1562 19.9707C61.3281 16.8457 58.0078 15.1367 55.957 17.627L29.1992 51.2207C28.6621 51.8555 28.3691 52.5391 28.3691 53.1738Z" fill="#000000" fill-opacity="0.85"/>
 </g>
</svg>
