<?xml version="1.0" encoding="UTF-8"?>
<!--Generator: Apple Native CoreSVG 232.5-->
<!DOCTYPE svg
PUBLIC "-//W3C//DTD SVG 1.1//EN"
       "http://www.w3.org/Graphics/SVG/1.1/DTD/svg11.dtd">
<svg version="1.1" xmlns="http://www.w3.org/2000/svg" xmlns:xlink="http://www.w3.org/1999/xlink" width="99.6094" height="99.6582">
 <g>
  <rect height="99.6582" opacity="0" width="99.6094" x="0" y="0"/>
  <path d="M49.8047 99.6094C77.0508 99.6094 99.6094 77.002 99.6094 49.8047C99.6094 22.5586 77.002 0 49.7559 0C22.5586 0 0 22.5586 0 49.8047C0 77.002 22.6074 99.6094 49.8047 99.6094ZM49.8047 91.3086C26.7578 91.3086 8.34961 72.8516 8.34961 49.8047C8.34961 26.7578 26.709 8.30078 49.7559 8.30078C72.8027 8.30078 91.3086 26.7578 91.3086 49.8047C91.3086 72.8516 72.8516 91.3086 49.8047 91.3086Z" fill="#000000" fill-opacity="0.85"/>
  <path d="M22.998 65.9668C22.998 67.6758 24.3164 68.9453 26.0254 68.9453L28.7109 68.9453C30.3711 68.9453 31.6895 67.6758 31.6895 65.9668L31.6895 62.207C36.7188 62.5 43.9941 62.7441 49.8047 62.7441C55.6152 62.7441 62.8418 62.5 67.8711 62.207L67.8711 65.9668C67.8711 67.6758 69.1895 68.9453 70.8984 68.9453L73.584 68.9453C75.2441 68.9453 76.5625 67.6758 76.5625 65.9668L76.5625 52.9297C76.5625 49.1699 75.7812 47.0215 73.6816 44.2871L71.7773 41.8457C70.8984 37.7441 69.4336 33.4473 68.7012 31.7871C67.4805 29.248 65.1367 27.7832 62.1094 27.3438C60.5957 27.1484 55.6152 27.0508 49.8047 27.0508C43.9453 27.0508 39.0137 27.1484 37.4512 27.3438C34.4727 27.7344 32.1289 29.248 30.9082 31.7871C30.127 33.4473 28.6621 37.7441 27.832 41.8457L25.8789 44.2871C23.8281 47.0215 22.998 49.1699 22.998 52.9297ZM41.748 46.6797C41.748 46.3867 41.8457 46.0938 42.0898 45.8008L51.9043 33.252C52.832 32.0312 54.2969 32.8125 53.7598 34.2285L50.7324 42.3828L56.8359 42.3828C57.4219 42.3828 57.8613 42.8223 57.8613 43.4082C57.8613 43.6523 57.666 43.9941 57.5195 44.2383L47.8027 56.7871C46.875 58.0078 45.3125 57.1777 45.8496 55.7617L48.877 47.5586L42.7734 47.5586C42.1875 47.5586 41.748 47.168 41.748 46.6797Z" fill="#000000" fill-opacity="0.85"/>
 </g>
</svg>
