<?xml version="1.0" encoding="UTF-8"?>
<!--Generator: Apple Native CoreSVG 232.5-->
<!DOCTYPE svg
PUBLIC "-//W3C//DTD SVG 1.1//EN"
       "http://www.w3.org/Graphics/SVG/1.1/DTD/svg11.dtd">
<svg version="1.1" xmlns="http://www.w3.org/2000/svg" xmlns:xlink="http://www.w3.org/1999/xlink" width="122.754" height="92.8223">
 <g>
  <rect height="92.8223" opacity="0" width="122.754" x="0" y="0"/>
  <path d="M107.324 37.5C116.846 41.5039 122.754 50.3906 122.754 60.6445C122.754 74.0723 111.23 84.8633 96.4844 84.8633L29.248 84.8633C12.5488 84.8633 0 72.8027 0 58.4473C0 46.5332 6.88477 36.6699 17.9199 34.9121C18.1641 21.2402 31.25 12.1094 43.2617 15.625C49.1211 7.08008 58.5449 0 71.7773 0C91.748 0 107.422 15.7227 107.324 37.5ZM45.752 33.9844L28.8086 55.9082C26.5137 58.8867 29.4922 61.5723 32.373 60.0586L49.0234 51.0254L70.9473 62.7441C71.9727 63.2812 72.8516 63.623 73.6816 63.623C74.8047 63.623 75.9277 63.0371 76.9531 61.7676L93.9941 39.7461C96.0938 36.9629 93.4082 34.082 90.4297 35.6934L73.6816 44.7266L51.7578 32.959C50.7812 32.4707 49.9023 32.0801 48.9746 32.0801C47.9004 32.0801 46.8262 32.666 45.752 33.9844Z" fill="#000000" fill-opacity="0.85"/>
 </g>
</svg>
