<?xml version="1.0" encoding="UTF-8"?>
<!--Generator: Apple Native CoreSVG 232.5-->
<!DOCTYPE svg
PUBLIC "-//W3C//DTD SVG 1.1//EN"
       "http://www.w3.org/Graphics/SVG/1.1/DTD/svg11.dtd">
<svg version="1.1" xmlns="http://www.w3.org/2000/svg" xmlns:xlink="http://www.w3.org/1999/xlink" width="89.8926" height="89.9902">
 <g>
  <rect height="89.9902" opacity="0" width="89.8926" x="0" y="0"/>
  <path d="M15.332 89.9902L74.5605 89.9902C84.8145 89.9902 89.8926 84.9121 89.8926 74.8535L89.8926 15.2344C89.8926 5.17578 84.8145 0.0976562 74.5605 0.0976562L15.332 0.0976562C5.12695 0.0976562 0 5.12695 0 15.2344L0 74.8535C0 84.9609 5.12695 89.9902 15.332 89.9902ZM15.4297 82.1289C10.5469 82.1289 7.86133 79.541 7.86133 74.4629L7.86133 15.625C7.86133 10.5469 10.5469 7.95898 15.4297 7.95898L74.4629 7.95898C79.2969 7.95898 82.0312 10.5469 82.0312 15.625L82.0312 74.4629C82.0312 79.541 79.2969 82.1289 74.4629 82.1289Z" fill="#000000" fill-opacity="0.85"/>
  <path d="M23.584 48.3398C23.584 49.5605 24.6094 50.4395 25.8301 50.4395L42.3828 50.4395L33.5449 74.1699C32.373 77.2949 35.6934 79.0039 37.7441 76.4648L64.5508 42.8711C65.0391 42.2852 65.332 41.6016 65.332 40.9668C65.332 39.7461 64.3555 38.8672 63.0859 38.8672L46.582 38.8672L55.3711 15.1367C56.5918 12.0117 53.2227 10.3027 51.1719 12.793L24.4141 46.3867C23.877 47.0215 23.584 47.7051 23.584 48.3398Z" fill="#000000" fill-opacity="0.85"/>
 </g>
</svg>
