<?xml version="1.0" encoding="UTF-8"?>
<!--Generator: Apple Native CoreSVG 232.5-->
<!DOCTYPE svg
PUBLIC "-//W3C//DTD SVG 1.1//EN"
       "http://www.w3.org/Graphics/SVG/1.1/DTD/svg11.dtd">
<svg version="1.1" xmlns="http://www.w3.org/2000/svg" xmlns:xlink="http://www.w3.org/1999/xlink" width="97.8516" height="92.627">
 <g>
  <rect height="92.627" opacity="0" width="97.8516" x="0" y="0"/>
  <path d="M0.830078 32.4707C0.830078 53.2715 18.2617 73.7305 45.8008 91.3086C46.8262 91.9434 48.3398 92.627 49.3164 92.627C50.3418 92.627 51.8066 91.9434 52.8809 91.3086C80.4199 73.7305 97.8516 53.2715 97.8516 32.4707C97.8516 15.1855 85.9863 2.97852 70.1172 2.97852C61.084 2.97852 53.7598 7.27539 49.3164 13.8672C44.9707 7.32422 37.5977 2.97852 28.5156 2.97852C12.6953 2.97852 0.830078 15.1855 0.830078 32.4707ZM8.69141 32.4707C8.69141 19.4824 17.0898 10.8398 28.418 10.8398C37.6465 10.8398 42.8711 16.5527 46.0449 21.4355C47.3633 23.3887 48.1934 23.9258 49.3164 23.9258C50.4883 23.9258 51.2207 23.3398 52.6367 21.4355C56.0059 16.6504 61.084 10.8398 70.2148 10.8398C81.5918 10.8398 89.9902 19.4824 89.9902 32.4707C89.9902 50.6348 70.8008 70.2148 50.3418 83.7891C49.8535 84.1309 49.5117 84.375 49.3164 84.375C49.1699 84.375 48.8281 84.1309 48.3398 83.7891C27.8809 70.2148 8.69141 50.6348 8.69141 32.4707Z" fill="#000000" fill-opacity="0.85"/>
  <path d="M33.4473 52.5879C33.4473 53.4668 34.1797 54.1016 35.1074 54.1016L47.2168 54.1016L40.7227 71.4355C39.8926 73.7305 42.334 75 43.8477 73.1445L63.3789 48.584C63.7695 48.1445 64.0137 47.6074 64.0137 47.168C64.0137 46.2891 63.2324 45.6055 62.3047 45.6055L50.2441 45.6055L56.6895 28.3203C57.5195 25.9766 55.0781 24.7559 53.6133 26.6113L34.0332 51.1719C33.6914 51.6602 33.4473 52.0996 33.4473 52.5879Z" fill="#000000" fill-opacity="0.85"/>
 </g>
</svg>
