<?xml version="1.0" encoding="UTF-8"?>
<!--Generator: Apple Native CoreSVG 232.5-->
<!DOCTYPE svg
PUBLIC "-//W3C//DTD SVG 1.1//EN"
       "http://www.w3.org/Graphics/SVG/1.1/DTD/svg11.dtd">
<svg version="1.1" xmlns="http://www.w3.org/2000/svg" xmlns:xlink="http://www.w3.org/1999/xlink" width="99.6094" height="99.6582">
 <g>
  <rect height="99.6582" opacity="0" width="99.6094" x="0" y="0"/>
  <path d="M99.6094 49.8535C99.6094 77.0996 77.0508 99.6582 49.8047 99.6582C22.6074 99.6582 0 77.0996 0 49.8535C0 22.6562 22.5586 0.0488281 49.7559 0.0488281C77.002 0.0488281 99.6094 22.6562 99.6094 49.8535ZM28.6133 51.3672C28.0762 51.9531 27.7832 52.6855 27.7832 53.3203C27.7832 54.5898 28.7598 55.5176 30.0781 55.5176L47.168 55.5176L38.0371 79.9805C36.8164 83.2031 40.2832 84.9609 42.3828 82.373L56.4366 64.7374L35.018 43.3188ZM23.877 23.877C22.998 24.8047 22.998 26.2695 23.877 27.0996L72.6074 75.8301C73.4375 76.6602 74.9512 76.6602 75.8301 75.8301C76.709 74.8535 76.709 73.4863 75.8301 72.6074L27.0996 23.877C26.2207 22.998 24.8047 22.998 23.877 23.877ZM51.8289 43.5547L63.7927 55.5065L69.9707 47.7539C70.5078 47.1191 70.8008 46.3867 70.8008 45.752C70.8008 44.4824 69.8242 43.5547 68.5059 43.5547ZM56.2012 16.6992L42.3588 34.0941L51.5281 43.2543L60.5469 19.0918C61.7676 15.8691 58.3008 14.1113 56.2012 16.6992Z" fill="#000000" fill-opacity="0.85"/>
 </g>
</svg>
