<?xml version="1.0" encoding="UTF-8"?>
<!--Generator: Apple Native CoreSVG 232.5-->
<!DOCTYPE svg
PUBLIC "-//W3C//DTD SVG 1.1//EN"
       "http://www.w3.org/Graphics/SVG/1.1/DTD/svg11.dtd">
<svg version="1.1" xmlns="http://www.w3.org/2000/svg" xmlns:xlink="http://www.w3.org/1999/xlink" width="115.527" height="90.7715">
 <g>
  <rect height="90.7715" opacity="0" width="115.527" x="0" y="0"/>
  <path d="M57.7637 77.1484C74.1699 77.1484 95.9961 76.3184 105.225 75.2441C111.865 74.5117 115.527 70.8496 115.527 64.5996L115.527 56.0059C115.527 47.7539 113.867 43.1641 109.375 37.3047L105.225 31.9824C103.467 23.1934 100.195 13.9648 98.5352 10.3516C95.8984 4.83398 90.8691 1.5625 84.375 0.683594C81.1035 0.244141 70.4102 0 57.7637 0C45.166 0 34.4727 0.292969 31.2012 0.683594C24.707 1.46484 19.6289 4.83398 17.041 10.3516C15.332 13.9648 12.1094 23.1934 10.3027 31.9824L6.20117 37.3047C1.66016 43.1641 0 47.7539 0 56.0059L0 64.5996C0 70.8496 3.71094 74.5117 10.3027 75.2441C19.5801 76.3184 41.3574 77.1484 57.7637 77.1484ZM57.7637 70.752C41.1621 70.752 19.873 69.9707 12.0117 68.9941C7.86133 68.5059 6.39648 66.3574 6.39648 62.6465L6.39648 56.0059C6.39648 49.3164 7.4707 46.1914 11.2793 41.2109L16.2598 34.668C17.5781 27.5879 20.752 17.7246 22.8516 13.2324C24.4141 9.86328 27.4902 7.76367 31.9336 7.22656C35.0586 6.83594 44.9707 6.39648 57.7637 6.39648C70.6055 6.39648 80.6641 6.83594 83.4961 7.22656C88.0859 7.8125 91.1133 9.91211 92.7246 13.2324C94.8242 17.7246 97.998 27.5879 99.2676 34.668L104.297 41.2109C108.057 46.1914 109.131 49.3164 109.131 56.0059L109.131 62.6465C109.131 66.3574 107.666 68.5059 103.516 68.9941C95.7031 69.9707 74.3652 70.752 57.7637 70.752ZM8.98438 90.5762L14.6973 90.5762C18.3594 90.5762 21.1914 87.7441 21.1914 84.1309L21.1914 72.5098L2.49023 69.8242L2.49023 84.1309C2.49023 87.7441 5.32227 90.5762 8.98438 90.5762ZM100.83 90.5762L106.592 90.5762C110.254 90.5762 113.037 87.7441 113.037 84.1309L113.037 69.8242L94.3848 72.5098L94.3848 84.1309C94.3848 87.7441 97.168 90.5762 100.83 90.5762Z" fill="#000000" fill-opacity="0.85"/>
  <path d="M42.334 41.5039C42.334 42.3828 43.0664 43.0176 43.9941 43.0176L56.1035 43.0176L49.6094 60.3516C48.7305 62.6465 51.2207 63.916 52.7344 62.0605L72.2168 37.5C72.6562 37.0605 72.9004 36.5234 72.9004 36.084C72.9004 35.2051 72.1191 34.5215 71.1914 34.5215L59.1309 34.5215L65.5762 17.2363C66.4062 14.8926 63.9648 13.6719 62.5 15.5273L42.9199 40.0879C42.5781 40.5762 42.334 41.0156 42.334 41.5039Z" fill="#000000" fill-opacity="0.85"/>
 </g>
</svg>
