<?xml version="1.0" encoding="UTF-8"?>
<!--Generator: Apple Native CoreSVG 232.5-->
<!DOCTYPE svg
PUBLIC "-//W3C//DTD SVG 1.1//EN"
       "http://www.w3.org/Graphics/SVG/1.1/DTD/svg11.dtd">
<svg version="1.1" xmlns="http://www.w3.org/2000/svg" xmlns:xlink="http://www.w3.org/1999/xlink" width="97.8516" height="92.627">
 <g>
  <rect height="92.627" opacity="0" width="97.8516" x="0" y="0"/>
  <path d="M97.8516 32.4707C97.8516 53.2715 80.4199 73.7305 52.8809 91.3086C51.8066 91.9434 50.3418 92.627 49.3164 92.627C48.3398 92.627 46.8262 91.9434 45.8008 91.3086C18.2617 73.7305 0.830078 53.2715 0.830078 32.4707C0.830078 15.1855 12.6953 2.97852 28.0273 2.97852C37.5977 2.97852 44.9707 8.30078 49.3164 16.3086C53.7598 8.25195 61.084 2.97852 70.6055 2.97852C85.9863 2.97852 97.8516 15.1855 97.8516 32.4707ZM53.7598 25.9766L33.5938 51.3184C33.2031 51.8066 32.959 52.2461 32.959 52.7832C32.959 53.6621 33.7402 54.3457 34.668 54.3457L47.168 54.3457L40.4785 72.2168C39.5996 74.5605 42.1387 75.8789 43.7012 73.9746L63.8184 48.6328C64.2578 48.1934 64.502 47.6562 64.502 47.168C64.502 46.2891 63.6719 45.5566 62.7441 45.5566L50.293 45.5566L56.9336 27.7344C57.8125 25.3418 55.2734 24.0723 53.7598 25.9766Z" fill="#000000" fill-opacity="0.85"/>
 </g>
</svg>
