<?xml version="1.0" encoding="UTF-8"?>
<!--Generator: Apple Native CoreSVG 232.5-->
<!DOCTYPE svg
PUBLIC "-//W3C//DTD SVG 1.1//EN"
       "http://www.w3.org/Graphics/SVG/1.1/DTD/svg11.dtd">
<svg version="1.1" xmlns="http://www.w3.org/2000/svg" xmlns:xlink="http://www.w3.org/1999/xlink" width="121.24" height="114.6">
 <g>
  <rect height="114.6" opacity="0" width="121.24" x="0" y="0"/>
  <path d="M112.565 26.6328C110.56 25.6433 108.3 25.0977 105.908 25.0977C102.843 25.0977 99.9875 25.9938 97.5965 27.5488C95.3935 23.9283 91.1218 21.6309 85.0586 21.6309C77.8983 21.6309 70.698 24.9342 64.3425 30.2001C71.2763 37.7049 77.1082 46.6324 80.983 55.4487C85.8627 53.5124 89.72 50.9585 92.5838 48.128C94.1733 50.9053 96.6175 53.1246 99.5628 54.4383C95.2752 57.6646 89.9517 60.3975 83.584 62.3476C85.2451 67.3432 86.1328 72.1569 86.1328 76.5137C86.1328 92.8223 75 104.59 59.2773 104.59C58.7631 104.59 58.2538 104.577 57.7641 104.52C59.702 101.969 60.8398 98.7787 60.8398 95.3125C60.8398 93.8004 60.6218 92.3408 60.2065 90.9668C69.4252 90.4852 75.7324 82.545 75.7324 71.6797C75.7324 69.3194 75.4841 66.8829 74.971 64.4074C70.2338 65.3047 65.0008 65.7715 59.3262 65.7715C53.6798 65.7715 48.4133 65.2886 43.5948 64.3715C43.0748 66.8592 42.8223 69.308 42.8223 71.6797C42.8223 74.7364 43.3214 77.5616 44.2593 80.0427C39.9769 80.3686 36.2118 82.4295 33.6478 85.5208C32.8424 82.7403 32.4219 79.7187 32.4219 76.5137C32.4219 72.1354 33.3228 67.2956 35.0043 62.2744C16.3603 56.5104 5.76172 44.29 5.76172 32.2754C5.76172 25.4737 8.10238 19.8072 12.6327 16.0306C12.8577 21.5032 15.9355 26.2264 20.4258 28.7452C19.6692 30.35 19.2871 32.1713 19.2871 34.1309C19.2871 40.8471 24.5891 50.3204 37.5857 55.4678C41.4796 46.6413 47.3417 37.7022 54.3062 30.1896C50.2681 26.8107 45.8711 24.261 41.3574 22.8623C42.6053 20.645 43.3105 18.0767 43.3105 15.332C43.3105 14.9562 43.2971 14.5837 43.2544 14.2193C48.8432 16.6706 54.2925 20.4913 59.3272 25.1385C68.6123 16.6017 79.2832 10.8398 89.5996 10.8398C102.904 10.8398 110.811 17.5488 112.565 26.6328ZM45.3523 57.7891C49.4371 58.6797 54.088 59.1797 59.3262 59.1797C64.4834 59.1797 69.1086 58.6765 73.2177 57.7868C70.4585 49.5027 65.4818 41.3019 59.3211 34.8163C53.1338 41.3025 48.1283 49.5042 45.3523 57.7891Z" fill="#000000" fill-opacity="0.85"/>
  <path d="M27.9297 24.9023C33.252 24.9023 37.5 20.6543 37.5 15.332C37.5 10.0586 33.252 5.76172 27.9297 5.76172C22.6562 5.76172 18.3594 10.0586 18.3594 15.332C18.3594 20.6543 22.6562 24.9023 27.9297 24.9023ZM105.908 50.0488C111.23 50.0488 115.479 45.752 115.479 40.4785C115.479 35.1562 111.182 30.8594 105.908 30.8594C100.586 30.8594 96.3379 35.1562 96.3379 40.4785C96.3379 45.752 100.586 50.0488 105.908 50.0488ZM45.5078 104.883C50.7812 104.883 55.0781 100.635 55.0781 95.3125C55.0781 89.9902 50.7812 85.7422 45.5078 85.7422C40.1855 85.7422 35.8887 89.9902 35.8887 95.3125C35.8887 100.635 40.1855 104.883 45.5078 104.883Z" fill="#000000" fill-opacity="0.85"/>
 </g>
</svg>
