<?xml version="1.0" encoding="UTF-8"?>
<!--Generator: Apple Native CoreSVG 232.5-->
<!DOCTYPE svg
PUBLIC "-//W3C//DTD SVG 1.1//EN"
       "http://www.w3.org/Graphics/SVG/1.1/DTD/svg11.dtd">
<svg version="1.1" xmlns="http://www.w3.org/2000/svg" xmlns:xlink="http://www.w3.org/1999/xlink" width="108.447" height="90.7715">
 <g>
  <rect height="90.7715" opacity="0" width="108.447" x="0" y="0"/>
  <path d="M0 82.5684C0 86.5723 2.63672 88.1348 5.51758 88.1348C7.17773 88.1348 8.59375 87.1582 10.4492 86.0352C15.8203 82.373 22.4609 80.127 29.248 80.1758C36.2793 80.2246 43.2617 82.8125 48.7305 88.0859C50.8789 90.0391 52.4414 90.6738 54.248 90.6738C56.0059 90.6738 57.6172 90.0391 59.7168 88.0859C65.1855 82.8613 72.168 80.2246 79.248 80.1758C86.0352 80.127 92.627 82.373 97.998 86.0352C99.8535 87.1582 101.27 88.1348 102.979 88.1348C105.811 88.1348 108.447 86.5723 108.447 82.5684L108.447 16.3086C108.447 15.4785 108.398 14.7949 107.861 13.9648C103.516 6.39648 92.4805 0 79.0527 0C68.4082 0 59.1797 4.24805 54.248 10.2539C49.3164 4.24805 40.0391 0 29.4434 0C15.9668 0 4.93164 6.39648 0.585938 13.9648C0.0976562 14.7949 0 15.4785 0 16.3086ZM7.86133 78.418L7.86133 17.4316C11.8164 11.7188 20.4102 7.86133 29.4434 7.86133C38.7207 7.86133 46.8262 11.7676 50.293 17.7246L50.293 79.248C45.3125 75.293 37.5488 72.3145 29.4434 72.3145C20.9473 72.3145 13.0371 74.707 7.86133 78.418ZM58.1543 79.248L58.1543 17.7246C61.6211 11.7676 69.7754 7.86133 79.0527 7.86133C88.0371 7.86133 96.6309 11.7188 100.586 17.4316L100.586 78.418C95.4102 74.707 87.5 72.3145 79.0527 72.3145C70.8984 72.3145 63.1348 75.293 58.1543 79.248Z" fill="#000000" fill-opacity="0.85"/>
 </g>
</svg>
