<?xml version="1.0" encoding="UTF-8"?>
<!--Generator: Apple Native CoreSVG 232.5-->
<!DOCTYPE svg
PUBLIC "-//W3C//DTD SVG 1.1//EN"
       "http://www.w3.org/Graphics/SVG/1.1/DTD/svg11.dtd">
<svg version="1.1" xmlns="http://www.w3.org/2000/svg" xmlns:xlink="http://www.w3.org/1999/xlink" width="120.654" height="111.475">
 <g>
  <rect height="111.475" opacity="0" width="120.654" x="0" y="0"/>
  <path d="M0 96.8262C0 104.346 3.61328 108.057 11.1328 108.057L77.832 108.057C85.3027 108.057 88.9648 104.346 88.9648 96.8262L88.9648 11.2793C88.9648 3.75977 85.3027 0 77.832 0L68.2617 0C60.791 0 57.1289 3.75977 57.1289 11.2793L57.1289 30.6641C56.0547 30.4199 54.7852 30.2246 53.418 30.2246L32.1289 30.2246C30.7129 30.2246 29.4922 30.4199 28.3691 30.6641L28.3691 24.8047C28.3691 17.2852 24.7559 13.5254 17.2852 13.5254L11.1328 13.5254C3.61328 13.5254 0 17.2852 0 24.8047ZM7.37305 96.2402L7.37305 25.3418C7.37305 22.4609 8.88672 20.8984 11.9141 20.8984L16.5039 20.8984C19.5312 20.8984 20.9961 22.4609 20.9961 25.3418L20.9961 100.684L11.9141 100.684C8.88672 100.684 7.37305 99.1211 7.37305 96.2402ZM28.3691 100.684L28.3691 42.041C28.3691 39.1602 29.8828 37.5977 32.9102 37.5977L52.6367 37.5977C55.6641 37.5977 57.1289 39.1602 57.1289 42.041L57.1289 100.684ZM64.502 100.684L64.502 11.8164C64.502 8.93555 66.0156 7.37305 69.043 7.37305L77.0508 7.37305C80.127 7.37305 81.5918 8.93555 81.5918 11.8164L81.5918 96.2402C81.5918 99.1211 80.127 100.684 77.0508 100.684ZM32.8125 47.0703C32.8125 48.7793 34.082 50.0977 35.8887 50.0977L49.7559 50.0977C51.4648 50.0977 52.7832 48.7793 52.7832 47.0703C52.7832 45.4102 51.4648 44.0918 49.7559 44.0918L35.8887 44.0918C34.082 44.0918 32.8125 45.4102 32.8125 47.0703ZM32.8125 91.2109C32.8125 92.9199 34.082 94.2383 35.8887 94.2383L49.7559 94.2383C51.4648 94.2383 52.7832 92.9199 52.7832 91.2109C52.7832 89.5508 51.4648 88.2324 49.7559 88.2324L35.8887 88.2324C34.082 88.2324 32.8125 89.5508 32.8125 91.2109ZM93.3594 98.1934C94.2871 105.615 98.2422 109.082 105.713 108.057L110.791 107.373C118.262 106.348 121.338 102.393 120.508 94.9707L112.109 21.9727C111.23 14.5508 107.227 11.0352 99.7559 12.1094L94.6777 12.793C87.1582 13.8672 84.0332 17.7734 84.9121 25.1953ZM100.586 96.7285L92.334 24.9023C91.9922 22.0215 93.3105 20.4102 96.3379 19.9707L99.8535 19.5312C102.881 19.0918 104.541 20.5566 104.883 23.3887L113.135 95.2148C113.477 98.1445 112.158 99.707 109.18 100.146L105.566 100.635C102.588 101.074 100.928 99.6582 100.586 96.7285Z" fill="#000000" fill-opacity="0.85"/>
 </g>
</svg>
