<?xml version="1.0" encoding="UTF-8"?>
<!--Generator: Apple Native CoreSVG 232.5-->
<!DOCTYPE svg
PUBLIC "-//W3C//DTD SVG 1.1//EN"
       "http://www.w3.org/Graphics/SVG/1.1/DTD/svg11.dtd">
<svg version="1.1" xmlns="http://www.w3.org/2000/svg" xmlns:xlink="http://www.w3.org/1999/xlink" width="99.6094" height="99.6582">
 <g>
  <rect height="99.6582" opacity="0" width="99.6094" x="0" y="0"/>
  <path d="M49.8047 99.6094C77.0508 99.6094 99.6094 77.002 99.6094 49.8047C99.6094 22.5586 77.002 0 49.7559 0C22.5586 0 0 22.5586 0 49.8047C0 77.002 22.6074 99.6094 49.8047 99.6094ZM49.8047 91.3086C26.7578 91.3086 8.34961 72.8516 8.34961 49.8047C8.34961 26.7578 26.709 8.30078 49.7559 8.30078C72.8027 8.30078 91.3086 26.7578 91.3086 49.8047C91.3086 72.8516 72.8516 91.3086 49.8047 91.3086Z" fill="#000000" fill-opacity="0.85"/>
  <path d="M36.377 28.8574C31.2988 28.8574 25.9766 31.2012 23.6816 35.2051C23.3887 35.6934 23.3887 35.9863 23.3887 36.8164L23.3887 69.2383C23.3887 70.2148 24.0723 70.8984 25.1465 70.8984C25.7324 70.8984 26.2695 70.7031 26.709 70.3125C29.4922 67.9199 33.252 66.5527 37.207 66.5527C40.5762 66.5527 43.7988 67.6758 46.4844 69.873C46.7773 70.1172 46.9727 70.2637 47.2656 70.2637C47.7539 70.2637 48.1934 69.8242 48.1934 69.2871L48.1934 35.3027C48.1934 34.7656 48.1445 34.668 47.7051 33.9844C45.459 30.8105 41.1621 28.8574 36.377 28.8574ZM63.1836 28.8574C58.3984 28.8574 54.1504 30.8105 51.8555 33.9844C51.416 34.668 51.416 34.7656 51.416 35.3027L51.416 69.2871C51.416 69.8242 51.8066 70.2637 52.2949 70.2637C52.5879 70.2637 52.832 70.1172 53.0762 69.873C55.7617 67.6758 59.0332 66.5527 62.3535 66.5527C66.3574 66.5527 70.1172 67.9199 72.9004 70.3125C73.3398 70.7031 73.8281 70.8984 74.4141 70.8984C75.4883 70.8984 76.2207 70.2148 76.2207 69.2383L76.2207 36.8164C76.2207 35.9863 76.1719 35.6445 75.8789 35.2051C73.584 31.2012 68.2617 28.8574 63.1836 28.8574Z" fill="#000000" fill-opacity="0.85"/>
 </g>
</svg>
