<?xml version="1.0" encoding="UTF-8"?>
<!--Generator: Apple Native CoreSVG 232.5-->
<!DOCTYPE svg
PUBLIC "-//W3C//DTD SVG 1.1//EN"
       "http://www.w3.org/Graphics/SVG/1.1/DTD/svg11.dtd">
<svg version="1.1" xmlns="http://www.w3.org/2000/svg" xmlns:xlink="http://www.w3.org/1999/xlink" width="99.6094" height="99.6582">
 <g>
  <rect height="99.6582" opacity="0" width="99.6094" x="0" y="0"/>
  <path d="M49.8047 99.6094C77.0508 99.6094 99.6094 77.002 99.6094 49.8047C99.6094 22.5586 77.002 0 49.7559 0C22.5586 0 0 22.5586 0 49.8047C0 77.002 22.6074 99.6094 49.8047 99.6094ZM49.8047 91.3086C26.7578 91.3086 8.34961 72.8516 8.34961 49.8047C8.34961 26.7578 26.709 8.30078 49.7559 8.30078C72.8027 8.30078 91.3086 26.7578 91.3086 49.8047C91.3086 72.8516 72.8516 91.3086 49.8047 91.3086Z" fill="#000000" fill-opacity="0.85"/>
  <path d="M24.9023 73.6816L29.1016 73.6816C30.9082 73.6816 31.8848 72.7051 31.8848 70.9473L31.8848 32.7637C31.8848 31.0059 30.9082 30.0293 29.1016 30.0293L24.9023 30.0293C23.0469 30.0293 22.0215 31.0059 22.0215 32.7637L22.0215 70.9473C22.0215 72.7051 23.0469 73.6816 24.9023 73.6816ZM37.9395 73.6816L47.0703 73.6816C48.9258 73.6816 49.8535 72.7051 49.8535 70.9473L49.8535 40.4785C49.8535 38.7207 48.9258 37.6465 47.0703 37.6465L37.9395 37.6465C36.1816 37.6465 35.1562 38.7207 35.1562 40.4785L35.1562 70.9473C35.1562 72.7051 36.1816 73.6816 37.9395 73.6816ZM40.0879 45.8496C39.209 45.8496 38.6719 45.1172 38.6719 44.3848C38.6719 43.5547 39.2578 42.9199 40.0879 42.9199L45.0195 42.9199C45.8496 42.9199 46.4844 43.5547 46.4844 44.3848C46.4844 45.1172 45.8496 45.8496 45.0195 45.8496ZM40.0879 68.5547C39.2578 68.5547 38.6719 67.9199 38.6719 67.041C38.6719 66.2109 39.209 65.5762 40.0879 65.5762L45.0195 65.5762C45.8496 65.5762 46.4844 66.2109 46.4844 67.041C46.4844 67.9199 45.8496 68.5547 45.0195 68.5547ZM55.957 73.6816L61.4746 73.6816C63.2812 73.6816 64.2578 72.7051 64.2578 70.9473L64.2578 26.5625C64.2578 24.7559 63.2812 23.7793 61.4746 23.7793L55.957 23.7793C54.1016 23.7793 53.1738 24.7559 53.1738 26.5625L53.1738 70.9473C53.1738 72.7051 54.1016 73.6816 55.957 73.6816ZM73.0957 73.6816L76.6602 72.8027C78.418 72.4609 79.1504 71.2891 78.8574 69.5312L71.2402 32.7148C70.8984 30.9082 69.7754 30.0293 68.0176 30.4688L64.4531 31.3477C62.7441 31.7383 61.9141 32.8613 62.2559 34.6191L69.873 71.5332C70.2148 73.2422 71.3867 74.0723 73.0957 73.6816Z" fill="#000000" fill-opacity="0.85"/>
 </g>
</svg>
