<?xml version="1.0" encoding="UTF-8"?>
<!--Generator: Apple Native CoreSVG 232.5-->
<!DOCTYPE svg
PUBLIC "-//W3C//DTD SVG 1.1//EN"
       "http://www.w3.org/Graphics/SVG/1.1/DTD/svg11.dtd">
<svg version="1.1" xmlns="http://www.w3.org/2000/svg" xmlns:xlink="http://www.w3.org/1999/xlink" width="101.611" height="122.177">
 <g>
  <rect height="122.177" opacity="0" width="101.611" x="0" y="0"/>
  <path d="M94.9707 29.1302L94.9707 101.738C94.9707 111.943 89.8926 117.021 79.834 117.021L45.7106 117.021C54.0246 115.857 62.6631 114.131 72.3145 111.454C82.2266 108.622 86.7676 102.275 86.7676 90.8978L86.7676 19.4134C86.7676 17.7568 86.6414 16.1938 86.3832 14.7419C92.0951 16.647 94.9707 21.4508 94.9707 29.1302Z" fill="#000000" fill-opacity="0.85"/>
  <path d="M80.127 19.4134L80.127 90.8978C80.127 99.4427 77.4414 103.105 70.5078 105.058C51.8555 110.185 37.3535 111.699 20.9473 112.578C11.9141 113.115 6.64062 108.72 6.64062 100.224L6.64062 27.5189C6.64062 18.681 11.8652 14.1888 19.7754 13.7006C37.3535 12.6752 51.8555 10.2338 65.5273 7.15759C74.9023 4.96032 80.127 9.69665 80.127 19.4134ZM42.9688 79.0814C38.1348 79.8627 32.8125 80.5951 24.707 81.0345C22.6562 81.2299 21.7773 82.4017 21.7773 83.9642C21.7773 85.5756 22.9492 86.8451 24.707 86.7474C32.959 86.2592 38.4277 85.4779 43.8965 84.599C45.5566 84.306 46.4355 82.9877 46.4355 81.6693C46.4355 80.1556 45.2148 78.6908 42.9688 79.0814ZM61.5723 59.5013C50.3906 61.9916 38.9648 63.9935 24.707 64.9213C22.6562 65.0677 21.7773 66.2884 21.7773 67.8021C21.7773 69.4134 22.9492 70.683 24.707 70.5853C38.9648 69.6576 50.3906 67.6556 62.1094 65.0677C64.4531 64.5795 64.9902 63.4076 64.9902 61.9916C64.9902 60.4291 63.8184 59.0619 61.5723 59.5013ZM61.5723 43.2904C50.3906 45.7806 38.9648 47.7826 24.707 48.7103C22.6562 48.8568 21.7773 50.0775 21.7773 51.5912C21.7773 53.2025 22.9492 54.472 24.707 54.3744C38.9648 53.4467 50.3906 51.4447 62.1094 48.8568C64.4531 48.3685 64.9902 47.1967 64.9902 45.7806C64.9902 44.2181 63.8184 42.8509 61.5723 43.2904ZM61.5723 27.1283C50.3906 29.5697 38.9648 31.5717 24.707 32.4994C22.6562 32.6459 21.7773 33.8666 21.7773 35.4291C21.7773 37.0404 22.9492 38.2611 24.707 38.1634C38.9648 37.2357 50.3906 35.2826 62.1094 32.6459C64.4531 32.1576 64.9902 30.9857 64.9902 29.5697C64.9902 28.0072 63.8184 26.64 61.5723 27.1283Z" fill="#000000" fill-opacity="0.85"/>
 </g>
</svg>
