<?xml version="1.0" encoding="UTF-8"?>
<!--Generator: Apple Native CoreSVG 232.5-->
<!DOCTYPE svg
PUBLIC "-//W3C//DTD SVG 1.1//EN"
       "http://www.w3.org/Graphics/SVG/1.1/DTD/svg11.dtd">
<svg version="1.1" xmlns="http://www.w3.org/2000/svg" xmlns:xlink="http://www.w3.org/1999/xlink" width="101.611" height="122.177">
 <g>
  <rect height="122.177" opacity="0" width="101.611" x="0" y="0"/>
  <path d="M94.9707 29.1302L94.9707 101.738C94.9707 111.943 89.8926 117.021 79.834 117.021L45.7106 117.021C54.0246 115.857 62.6631 114.131 72.3145 111.454C82.2266 108.622 86.7676 102.275 86.7676 90.8978L86.7676 19.4134C86.7676 17.7568 86.6414 16.1938 86.3832 14.7419C92.0951 16.647 94.9707 21.4508 94.9707 29.1302Z" fill="#000000" fill-opacity="0.85"/>
  <path d="M6.64062 100.224C6.64062 108.72 11.9141 113.115 20.9473 112.578C37.3535 111.699 51.8555 110.185 70.5078 105.058C77.4414 103.105 80.127 99.4427 80.127 90.8978L80.127 19.4134C80.127 9.69665 74.9023 4.96032 65.5273 7.15759C51.8555 10.2338 37.3535 12.6752 19.7754 13.7006C11.8652 14.1888 6.64062 18.681 6.64062 27.5189ZM14.502 98.808L14.502 27.3236C14.502 23.222 17.041 21.6107 20.7031 21.4154C37.5 20.5365 51.709 18.0951 65.0879 15.0677C69.6289 14.0424 72.2656 16.3861 72.2656 20.7806L72.2656 90.6049C72.2656 95.097 70.752 97.099 66.9922 98.0756C51.709 102.324 37.5 103.886 21.2891 104.716C17.041 104.911 14.502 102.763 14.502 98.808Z" fill="#000000" fill-opacity="0.85"/>
  <path d="M25.2441 38.7006C39.0625 37.8217 50.1953 35.9174 61.5723 33.3783C63.8184 32.89 64.3555 31.767 64.3555 30.3998C64.3555 28.8861 63.1836 27.5677 61.0352 28.0072C50.1953 30.3998 39.0625 32.3529 25.2441 33.2318C23.291 33.3783 22.4121 34.5502 22.4121 36.0638C22.4121 37.6263 23.584 38.7982 25.2441 38.7006ZM25.2441 54.4232C39.0625 53.5443 50.1953 51.5912 61.5723 49.1009C63.8184 48.6127 64.3555 47.4896 64.3555 46.1224C64.3555 44.6088 63.1836 43.2904 61.0352 43.7299C50.1953 46.1224 39.0625 48.0756 25.2441 48.9545C23.291 49.1009 22.4121 50.2728 22.4121 51.7377C22.4121 53.3002 23.584 54.5209 25.2441 54.4232ZM25.2441 70.1459C39.0625 69.267 50.1953 67.3138 61.5723 64.8236C63.8184 64.3353 64.3555 63.2123 64.3555 61.8451C64.3555 60.3314 63.1836 59.0131 61.0352 59.4525C50.1953 61.8451 39.0625 63.7982 25.2441 64.6771C23.291 64.8236 22.4121 65.9955 22.4121 67.4603C22.4121 69.0228 23.584 70.2435 25.2441 70.1459ZM25.2441 85.8197C33.252 85.3802 38.5742 84.599 43.8477 83.7689C45.459 83.4759 46.3379 82.2064 46.3379 80.9369C46.3379 79.472 45.166 78.056 42.9688 78.4467C38.2812 79.1791 33.1055 79.9115 25.2441 80.3509C23.291 80.4974 22.4121 81.6693 22.4121 83.1342C22.4121 84.6967 23.584 85.9174 25.2441 85.8197Z" fill="#000000" fill-opacity="0.85"/>
 </g>
</svg>
