<?xml version="1.0" encoding="UTF-8"?>
<!--Generator: Apple Native CoreSVG 232.5-->
<!DOCTYPE svg
PUBLIC "-//W3C//DTD SVG 1.1//EN"
       "http://www.w3.org/Graphics/SVG/1.1/DTD/svg11.dtd">
<svg version="1.1" xmlns="http://www.w3.org/2000/svg" xmlns:xlink="http://www.w3.org/1999/xlink" width="143.262" height="105.227">
 <g>
  <rect height="105.227" opacity="0" width="143.262" x="0" y="0"/>
  <path d="M67.3828 18.8001C68.3105 20.1185 68.4082 20.4114 68.4082 21.681L68.4082 74.5448C62.3718 80.6416 61.4903 88.9296 65.4002 95.6827C65.1751 95.5749 64.9533 95.4345 64.7461 95.2649C59.5703 90.8216 52.5391 88.136 44.873 88.136C36.7676 88.136 28.5645 90.8704 22.4609 96.1438C21.5332 96.9739 20.4102 97.3157 19.2871 97.3157C16.8457 97.3157 15.3809 95.9485 15.3809 93.7024L15.3809 24.806C15.3809 22.9993 15.4297 22.3645 15.9668 21.388C20.9961 12.7454 32.1777 7.76493 42.9688 7.76493C53.2227 7.76493 62.5977 11.9153 67.3828 18.8001ZM127.832 93.7024C127.832 95.9485 126.416 97.3157 123.975 97.3157C122.803 97.3157 121.729 96.9739 120.801 96.1438C115.6 91.6856 108.967 89.0421 102.111 88.3542C105.435 83.4985 108.988 78.4157 111.475 75.929C115.137 72.3157 117.725 71.0462 121.729 71.0462C123.939 71.0462 125.981 70.7897 127.832 70.2945ZM127.295 21.388C127.832 22.3157 127.832 22.9993 127.832 24.806L127.832 25.2902C124.787 24.0489 121.614 23.4876 118.652 23.4876C112.793 23.4876 106.836 25.6849 102.393 29.8841C91.5039 40.2845 96.875 51.9544 93.75 54.9817C88.1659 60.6398 80.9014 64.9534 74.8047 69.3233L74.8047 21.681C74.8047 20.4114 74.9023 20.1185 75.8789 18.8001C80.6641 11.9153 89.9902 7.76493 100.293 7.76493C111.084 7.76493 122.217 12.7454 127.295 21.388Z" fill="#000000" fill-opacity="0.85"/>
  <path d="M73.1934 95.0208C77.9297 99.7571 85.0098 99.9524 89.6484 94.386C93.0664 90.2845 101.66 76.3196 109.033 68.9466C113.135 64.845 118.652 64.3567 121.729 64.3567C133.252 64.3567 137.744 55.0794 136.328 48.6829L121.729 52.5403L120.068 46.5833C119.482 44.386 120.41 42.5306 122.9 41.847L133.691 38.9661C133.301 37.9895 132.373 36.5735 131.201 35.3528C124.561 28.6145 113.574 28.4681 107.031 34.7181C97.5098 43.7513 104.785 53.4192 98.4863 59.7181C90.5762 67.5794 79.6387 73.3411 73.8281 78.5169C68.3594 83.3997 68.4082 90.2356 73.1934 95.0208ZM81.2988 90.431C79.3457 90.431 77.7344 88.8196 77.7344 86.8665C77.7344 84.9134 79.3457 83.3509 81.2988 83.3509C83.3008 83.3509 84.8633 84.9134 84.8633 86.8665C84.8633 88.8196 83.3008 90.431 81.2988 90.431Z" fill="#000000" fill-opacity="0.85"/>
 </g>
</svg>
