<?xml version="1.0" encoding="UTF-8"?>
<!--Generator: Apple Native CoreSVG 232.5-->
<!DOCTYPE svg
PUBLIC "-//W3C//DTD SVG 1.1//EN"
       "http://www.w3.org/Graphics/SVG/1.1/DTD/svg11.dtd">
<svg version="1.1" xmlns="http://www.w3.org/2000/svg" xmlns:xlink="http://www.w3.org/1999/xlink" width="99.6094" height="99.6582">
 <g>
  <rect height="99.6582" opacity="0" width="99.6094" x="0" y="0"/>
  <path d="M49.8047 99.6094C77.0508 99.6094 99.6094 77.002 99.6094 49.8047C99.6094 22.5586 77.002 0 49.7559 0C22.5586 0 0 22.5586 0 49.8047C0 77.002 22.6074 99.6094 49.8047 99.6094ZM49.8047 91.3086C26.7578 91.3086 8.34961 72.8516 8.34961 49.8047C8.34961 26.7578 26.709 8.30078 49.7559 8.30078C72.8027 8.30078 91.3086 26.7578 91.3086 49.8047C91.3086 72.8516 72.8516 91.3086 49.8047 91.3086Z" fill="#000000" fill-opacity="0.85"/>
  <path d="M36.9629 75.6348L68.0176 75.6348C69.0918 75.6348 70.0195 74.6582 70.0195 73.584C70.0195 72.7051 69.4336 71.875 68.6523 71.6309C65.6738 70.4102 65.0879 66.6016 67.9688 63.7207C68.9453 62.793 70.0195 61.5234 70.0195 59.1309L70.0195 31.6406C70.0195 26.6113 67.5293 24.0234 62.5 24.0234L37.0117 24.0234C32.0312 24.0234 29.541 26.5625 29.541 31.6406L29.541 68.1152C29.541 73.0957 32.0312 75.6348 36.9629 75.6348ZM37.207 71.582C34.8633 71.582 33.5938 70.2637 33.5938 68.0664C33.5938 66.0156 35.1074 64.6484 37.4023 64.6484L61.9629 64.6484C62.207 64.6484 62.4023 64.5996 62.5977 64.5996C61.6699 66.9922 61.8164 69.4824 62.8906 71.582ZM36.4258 60.5957C35.6445 60.5957 35.0098 60.0098 35.0098 59.1309L35.0098 29.5898C35.0098 28.7598 35.6445 28.125 36.4258 28.125C37.3047 28.125 37.9883 28.7598 37.9883 29.5898L37.9883 59.1309C37.9883 60.0098 37.3047 60.5957 36.4258 60.5957Z" fill="#000000" fill-opacity="0.85"/>
 </g>
</svg>
