<?xml version="1.0" encoding="UTF-8"?>
<!--Generator: Apple Native CoreSVG 232.5-->
<!DOCTYPE svg
PUBLIC "-//W3C//DTD SVG 1.1//EN"
       "http://www.w3.org/Graphics/SVG/1.1/DTD/svg11.dtd">
<svg version="1.1" xmlns="http://www.w3.org/2000/svg" xmlns:xlink="http://www.w3.org/1999/xlink" width="99.6094" height="99.6582">
 <g>
  <rect height="99.6582" opacity="0" width="99.6094" x="0" y="0"/>
  <path d="M99.6094 49.8535C99.6094 77.0996 77.0508 99.6582 49.8047 99.6582C22.6074 99.6582 0 77.0996 0 49.8535C0 22.6562 22.5586 0.0488281 49.7559 0.0488281C77.002 0.0488281 99.6094 22.6562 99.6094 49.8535ZM22.9004 34.8633C22.6074 35.3027 22.6074 35.5957 22.6074 36.4746L22.6074 69.873C22.6074 70.8984 23.3398 71.582 24.4141 71.582C25.0488 71.582 25.5859 71.3867 26.0742 70.9961C28.9062 68.5547 32.8125 67.1387 36.8652 67.1387C40.332 67.1387 43.6523 68.2617 46.4355 70.6055C46.7285 70.8496 46.9238 70.9473 47.2168 70.9473C47.7539 70.9473 48.1934 70.5566 48.1934 69.9707L48.1934 34.9609C48.1934 34.3262 48.1445 34.2285 47.7051 33.5938C45.3613 30.2734 40.918 28.2715 35.9863 28.2715C30.7617 28.2715 25.293 30.6641 22.9004 34.8633ZM51.9531 33.5938C51.5137 34.2285 51.5137 34.3262 51.5137 34.9609L51.5137 69.9707C51.5137 70.5566 51.9043 70.9473 52.4414 70.9473C52.7344 70.9473 52.9785 70.8496 53.2227 70.6055C56.0059 68.2617 59.375 67.1387 62.793 67.1387C66.8945 67.1387 70.8008 68.5547 73.584 70.9961C74.1211 71.3867 74.6094 71.582 75.2441 71.582C76.3184 71.582 77.0996 70.8984 77.0996 69.873L77.0996 36.4746C77.0996 35.5957 77.0508 35.2539 76.7578 34.8633C74.3652 30.6641 68.8965 28.2715 63.6719 28.2715C58.7402 28.2715 54.3457 30.2734 51.9531 33.5938Z" fill="#000000" fill-opacity="0.85"/>
 </g>
</svg>
