<?xml version="1.0" encoding="UTF-8"?>
<!--Generator: Apple Native CoreSVG 232.5-->
<!DOCTYPE svg
PUBLIC "-//W3C//DTD SVG 1.1//EN"
       "http://www.w3.org/Graphics/SVG/1.1/DTD/svg11.dtd">
<svg version="1.1" xmlns="http://www.w3.org/2000/svg" xmlns:xlink="http://www.w3.org/1999/xlink" width="97.3633" height="116.65">
 <g>
  <rect height="116.65" opacity="0" width="97.3633" x="0" y="0"/>
  <path d="M56.1523 116.309C74.1699 116.309 85.2539 109.912 85.2539 98.877L85.2539 75.0488C92.9199 68.3594 97.3633 57.6172 97.3633 45.8496C97.3633 18.3594 79.3945 0 52.6855 0C26.0742 0 8.25195 17.9199 8.25195 44.8242C8.25195 46.3379 8.30078 47.6074 8.44727 48.877L2.49023 59.6191C0.78125 62.5488 0 65.4297 0 68.0664C0 73.0957 3.07617 77.2461 8.30078 78.6133L8.30078 87.9883C8.30078 96.7773 14.5508 101.172 22.5098 100.293L33.0566 99.2188L27.4902 93.2129L27.4902 98.877C27.4902 109.863 38.3789 116.309 56.1523 116.309ZM56.1523 108.447C42.9688 108.447 34.9609 104.248 34.9609 97.5098L34.9609 91.9434C34.9609 91.2598 34.6191 91.0156 34.0332 91.0645L21.4844 92.4805C18.0664 92.8223 16.1621 91.3086 16.1621 87.4023L16.1621 72.8027C16.1621 72.3633 15.8691 72.0703 15.2344 72.0703L12.9883 72.0703C9.81445 72.0703 7.95898 70.459 7.95898 67.9688C7.95898 66.6504 8.39844 65.0879 9.27734 63.5254L16.5527 50.4395C16.2598 48.5352 16.1133 46.6309 16.1133 44.6777C16.1133 22.6074 30.7129 7.86133 52.6855 7.86133C74.7559 7.86133 89.502 22.998 89.502 45.8496C89.502 56.7871 84.9121 66.3574 77.3438 71.1914L77.3926 97.5098C77.3926 104.248 69.3848 108.447 56.1523 108.447Z" fill="#000000" fill-opacity="0.85"/>
  <path d="M23.291 37.3535C23.291 45.8496 29.1992 51.5625 37.9883 51.5625C46.6309 51.6113 52.4414 46.4355 52.4414 38.8184C52.4414 35.6445 51.3184 32.9102 49.3164 31.25C48.4375 30.5176 47.8027 30.1758 46.9727 30.1758C45.6543 30.1758 44.7266 31.1035 44.7266 32.2754C44.7266 33.6426 45.5566 34.1309 46.4355 35.0098C47.3633 35.8887 47.8516 37.1582 47.8516 38.7207C47.8516 43.7012 43.9941 46.9238 38.0371 46.9238C31.9824 46.9238 27.9297 43.1641 27.9297 37.3047C27.9297 33.7891 29.834 30.5664 32.8613 28.8086L30.5664 24.707C26.1719 27.2461 23.291 32.1777 23.291 37.3535ZM29.4434 25.5371C29.4434 31.0059 33.3008 34.7168 38.9648 34.7168C40.2344 34.7168 41.3086 33.6426 41.3086 32.373C41.3086 31.1035 40.2344 30.0781 38.9648 30.0781C36.0352 30.0781 34.082 28.2715 34.082 25.5371C34.082 22.6074 36.4746 20.5078 39.7949 20.5078C41.5527 20.5078 43.4082 21.1426 44.9707 22.3633L47.6562 18.5547C45.4102 16.8457 42.6758 15.8691 39.7949 15.8691C33.8867 15.8691 29.4434 19.9707 29.4434 25.5371ZM41.5039 24.9023C41.4551 26.3184 42.3828 27.3926 43.75 27.3926C45.1172 27.3926 46.0449 26.416 46.0938 25.0488C46.2891 20.9961 49.2188 18.0664 53.3203 18.0664C55.7129 18.0664 57.8613 19.3359 58.7402 21.3379C59.082 22.0215 59.7656 22.0215 60.8398 21.7285C61.3281 21.582 61.9141 21.582 62.5977 21.582C66.6992 21.582 69.873 24.7559 69.873 29.0039C69.873 39.3555 54.7852 37.5488 54.7852 48.6328C54.7852 53.6133 58.7402 57.1289 64.4531 57.1289C64.8438 57.1289 65.2344 57.1289 65.7227 57.1289C66.4551 61.6699 69.3848 64.6973 72.998 64.6973C78.2715 64.6973 81.9336 58.7891 81.9336 50.4883C81.9336 47.3145 81.7383 45.166 81.543 43.1152L76.8555 44.4824C77.002 46.4355 77.2949 48.1445 77.2949 50.4395C77.2949 55.8105 75.3418 60.0586 72.998 60.0586C70.9961 60.0586 69.5801 57.5195 69.5801 53.8574C69.5801 53.2227 69.1406 52.9297 68.5547 52.9297C67.8711 52.9297 67.041 52.9785 66.4551 52.9785C61.8164 52.9785 59.4238 51.4648 59.4238 48.584C59.4238 40.5762 74.5605 42.8223 74.5605 29.0039C74.5605 22.1191 69.5312 16.8945 63.0371 16.8945C62.5 16.8945 61.9629 16.9434 61.4258 17.041C59.4238 14.7949 56.4941 13.4277 53.3203 13.4277C46.6309 13.4277 41.748 18.1641 41.5039 24.9023ZM68.2617 47.1191C68.2617 48.3887 69.1895 49.3164 70.5078 49.4629C78.5156 49.9512 84.0332 45.166 84.0332 37.5488C84.0332 31.0547 79.248 26.123 72.2656 25.4883L71.582 30.2246C76.2207 29.9316 79.3945 32.9102 79.3945 37.5488C79.3945 42.2852 75.9277 45.2148 70.6055 44.8242C69.3359 44.7266 68.2617 45.8496 68.2617 47.1191ZM57.2754 49.6094C55.9082 50.1465 54.1504 50.4395 52.5391 50.4395C48.4375 50.4395 44.5312 48.7305 43.5059 46.3379L39.6484 49.5117C42.1875 52.9297 46.9238 55.0781 52.1973 55.0781C54.3457 55.0781 56.6895 54.6875 58.7891 54.0039ZM49.0234 33.7402L50.5371 38.1836C56.4941 37.207 59.7168 33.5449 59.7168 27.5879C59.7168 26.3672 58.6426 25.293 57.373 25.293C56.1035 25.293 55.0781 26.3184 55.0781 27.5879C55.0781 31.4941 53.2715 33.3008 49.0234 33.7402Z" fill="#000000" fill-opacity="0.85"/>
 </g>
</svg>
