<?xml version="1.0" encoding="UTF-8"?>
<!--Generator: Apple Native CoreSVG 232.5-->
<!DOCTYPE svg
PUBLIC "-//W3C//DTD SVG 1.1//EN"
       "http://www.w3.org/Graphics/SVG/1.1/DTD/svg11.dtd">
<svg version="1.1" xmlns="http://www.w3.org/2000/svg" xmlns:xlink="http://www.w3.org/1999/xlink" width="97.3633" height="116.65">
 <g>
  <rect height="116.65" opacity="0" width="97.3633" x="0" y="0"/>
  <path d="M97.3633 45.8496C97.3633 57.6172 92.9199 68.3594 85.2539 75.0488L85.2539 98.877C85.2539 109.912 74.1699 116.309 56.1523 116.309C39.0625 116.309 28.2715 110.4 27.5391 100.146L27.5879 99.8047L22.5098 100.293C14.5508 101.221 8.30078 96.7773 8.30078 87.9883L8.30078 78.6133C3.07617 77.2461 0 73.0957 0 68.0664C0 65.4297 0.830078 62.5488 2.49023 59.6191L8.44727 48.877C8.30078 47.6074 8.25195 46.3379 8.25195 44.8242C8.25195 17.9199 26.0742 0 52.6855 0C79.3945 0 97.3633 18.3594 97.3633 45.8496ZM59.9609 52.832C59.9609 55.6641 61.9141 57.666 65.2344 57.666L66.0645 57.666C66.8945 62.3047 69.873 65.4785 73.584 65.4785C78.9551 65.4785 82.8125 59.375 82.8125 50.8789C82.8125 50.1953 82.8125 49.4141 82.7637 48.6816C80.7617 49.5605 78.418 49.9512 75.7324 49.8047C74.4141 49.6582 73.4863 48.6328 73.4863 47.4121C73.4863 46.0938 74.6094 44.9707 75.8301 45.0684C81.3477 45.459 84.9121 42.4316 84.9121 37.5C84.9121 33.0078 82.666 29.2969 79.0527 27.1973C77.6855 41.1133 59.9609 43.0176 59.9609 52.832ZM45.4102 20.3125C45.4102 21.7773 44.4336 22.7051 43.0664 22.7051C41.6016 22.7051 40.5762 21.582 40.6738 20.166C40.7227 18.1152 41.3086 16.6992 41.8945 15.3809C41.0156 15.2832 40.2344 15.1855 39.3555 15.1855C33.3496 15.1855 28.7109 18.8965 28.7109 23.7793C28.7109 26.8555 30.9082 29.1992 33.7402 29.1992C35.1074 29.1992 36.2305 30.2734 36.2305 31.5918C36.2305 32.8613 35.0586 33.9844 33.7402 33.9844C29.6387 33.9844 26.4648 32.0312 25 28.9551C23.3398 31.3965 22.4121 34.3262 22.4121 37.2559C22.4121 45.5566 27.7344 51.9043 35.9375 51.9043C41.8945 51.9043 46.0938 47.998 46.0938 42.5293C46.0938 40.625 45.459 39.0137 44.4336 37.9883C43.6035 37.207 43.3105 36.377 43.3105 35.6934C43.3105 34.4727 44.3359 33.5449 45.6055 33.5449C46.1914 33.5449 46.875 33.6914 47.4121 34.2285C47.7051 34.4727 47.998 34.9609 48.0957 35.2539C52.0508 34.7168 54.0039 32.4219 54.0039 28.6621C54.0039 27.3438 55.0781 26.2695 56.3477 26.2695C57.6172 26.2695 58.6914 27.3926 58.6914 28.6621C58.7402 34.4238 55.8105 38.0859 50.3418 39.3066C50.6348 40.3809 50.7324 41.5039 50.7324 42.627C50.7324 47.5586 48.3398 51.5137 44.2383 53.7109C46.5332 54.9316 49.2188 55.5664 52.1484 55.5664C53.418 55.5664 54.834 55.4199 56.2012 55.1758C55.957 54.4434 55.8105 53.7109 55.8105 52.9297C55.8105 40.0879 74.8047 37.8906 74.8047 26.3184C74.8047 20.6543 70.3613 16.1621 64.7949 16.1621C62.793 16.1621 62.207 16.2109 61.6699 16.3574C59.6191 14.0625 56.5918 12.6953 53.7598 12.6953C48.9258 12.6953 45.459 15.7227 45.4102 20.3125Z" fill="#000000" fill-opacity="0.85"/>
 </g>
</svg>
