<?xml version="1.0" encoding="UTF-8"?>
<!--Generator: Apple Native CoreSVG 232.5-->
<!DOCTYPE svg
PUBLIC "-//W3C//DTD SVG 1.1//EN"
       "http://www.w3.org/Graphics/SVG/1.1/DTD/svg11.dtd">
<svg version="1.1" xmlns="http://www.w3.org/2000/svg" xmlns:xlink="http://www.w3.org/1999/xlink" width="97.3633" height="116.65">
 <g>
  <rect height="116.65" opacity="0" width="97.3633" x="0" y="0"/>
  <path d="M56.1523 116.309C74.1699 116.309 85.2539 109.912 85.2539 98.877L85.2539 75.0488C92.9199 68.3594 97.3633 57.6172 97.3633 45.8496C97.3633 18.3594 79.3945 0 52.6855 0C26.0742 0 8.25195 17.9199 8.25195 44.8242C8.25195 46.3379 8.30078 47.6074 8.44727 48.877L2.49023 59.6191C0.78125 62.5488 0 65.4297 0 68.0664C0 73.0957 3.07617 77.2461 8.30078 78.6133L8.30078 87.9883C8.30078 96.7773 14.5508 101.172 22.5098 100.293L33.0566 99.2188L27.4902 93.2129L27.4902 98.877C27.4902 109.863 38.3789 116.309 56.1523 116.309ZM56.1523 108.447C42.9688 108.447 34.9609 104.248 34.9609 97.5098L34.9609 91.9434C34.9609 91.2598 34.6191 91.0156 34.0332 91.0645L21.4844 92.4805C18.0664 92.8223 16.1621 91.3086 16.1621 87.4023L16.1621 72.8027C16.1621 72.3633 15.8691 72.0703 15.2344 72.0703L12.9883 72.0703C9.81445 72.0703 7.95898 70.459 7.95898 67.9688C7.95898 66.6504 8.39844 65.0879 9.27734 63.5254L16.5527 50.4395C16.2598 48.5352 16.1133 46.6309 16.1133 44.6777C16.1133 22.6074 30.7129 7.86133 52.6855 7.86133C74.7559 7.86133 89.502 22.998 89.502 45.8496C89.502 56.7871 84.9121 66.3574 77.3438 71.1914L77.3926 97.5098C77.3926 104.248 69.3848 108.447 56.1523 108.447Z" fill="#000000" fill-opacity="0.85"/>
  <path d="M36.4258 51.4648C42.1875 51.4648 46.2402 47.7051 46.2402 42.3828C46.2402 40.5273 45.6543 39.0137 44.6777 37.9883C43.8477 37.207 43.5547 36.4258 43.5547 35.791C43.5547 34.6191 44.5801 33.6914 45.8496 33.6914C46.3379 33.6914 47.0703 33.7891 47.5586 34.3262C47.8516 34.5703 48.1445 35.1074 48.2422 35.4004C52.0508 34.8633 53.9551 32.6172 53.9551 28.9551C53.9551 27.6855 54.9805 26.6602 56.2012 26.6602C57.4219 26.6602 58.4961 27.7344 58.4961 28.9551C58.5449 34.5703 55.7129 38.0859 50.3906 39.3066C50.6836 40.332 50.7812 41.4062 50.7812 42.4805C50.7812 47.2656 48.3887 51.0742 44.4824 53.2227C46.6797 54.4434 49.3164 55.0293 52.1484 55.0293C53.418 55.0293 54.7363 54.8828 56.0547 54.6387C55.8105 53.9551 55.7129 53.2227 55.7129 52.4902C55.7129 40.0879 74.0723 37.8906 74.0723 26.709C74.0723 21.1914 69.7754 16.8945 64.4043 16.8945C62.4512 16.8945 61.9141 16.9434 61.377 17.0898C59.375 14.7949 56.4453 13.4766 53.7598 13.4766C49.0234 13.4766 45.6543 16.4062 45.6055 20.8984C45.6055 22.2656 44.6289 23.1934 43.3105 23.1934C41.9434 23.1934 40.9668 22.1191 41.0645 20.752C41.0645 18.75 41.6504 17.3828 42.1875 16.1133C41.3574 15.9668 40.5762 15.8691 39.7949 15.8691C33.9355 15.8691 29.4434 19.5312 29.4434 24.2188C29.4434 27.2461 31.543 29.541 34.3262 29.541C35.6445 29.541 36.7188 30.5664 36.7188 31.7871C36.7188 33.0566 35.5957 34.1309 34.3262 34.1309C30.3711 34.1309 27.2461 32.2266 25.8301 29.248C24.2188 31.6406 23.3398 34.4727 23.3398 37.3047C23.3398 45.3125 28.5156 51.4648 36.4258 51.4648ZM72.9492 64.6484C78.125 64.6484 81.8359 58.6914 81.8359 50.4395C81.8359 49.8047 81.8359 49.0723 81.7871 48.3398C79.8828 49.2188 77.5879 49.6094 75 49.4629C73.7305 49.3164 72.8027 48.3398 72.8027 47.1191C72.8027 45.8496 73.877 44.7754 75.0977 44.873C80.4199 45.2148 83.8867 42.2852 83.8867 37.5488C83.8867 33.2031 81.7383 29.541 78.2227 27.5391C76.9043 41.0156 59.7168 42.8223 59.7168 52.3926C59.7168 55.1758 61.6211 57.1289 64.8438 57.1289L65.625 57.1289C66.4551 61.5723 69.3359 64.6484 72.9492 64.6484Z" fill="#000000" fill-opacity="0.85"/>
 </g>
</svg>
