<?xml version="1.0" encoding="UTF-8"?>
<!--Generator: Apple Native CoreSVG 232.5-->
<!DOCTYPE svg
PUBLIC "-//W3C//DTD SVG 1.1//EN"
       "http://www.w3.org/Graphics/SVG/1.1/DTD/svg11.dtd">
<svg version="1.1" xmlns="http://www.w3.org/2000/svg" xmlns:xlink="http://www.w3.org/1999/xlink" width="128.516" height="108.057">
 <g>
  <rect height="108.057" opacity="0" width="128.516" x="0" y="0"/>
  <path d="M27.2461 79.2969C39.1113 79.2969 46.3867 71.3867 46.3867 61.1328C46.3867 57.9102 45.0195 54.248 43.1152 52.3926C40.918 50.293 39.502 49.707 39.502 47.2656C39.502 45.2637 41.0156 43.8965 43.3105 43.8965C44.9707 43.8965 46.0449 44.3848 47.8027 45.8984C49.3164 47.2168 50.6348 48.877 51.5625 50.8301C59.082 49.0723 61.9141 44.4824 61.9141 37.1094C61.9141 34.9609 63.7207 33.1543 65.8691 33.1543C68.0176 33.1543 69.7754 34.9609 69.7754 37.1094C69.8242 47.9004 64.8438 55.4199 53.9062 58.2031C54.0039 59.1797 54.1016 60.2051 54.1016 61.2793C54.1016 70.4102 50.1465 77.7832 43.2617 82.4219C48.1445 85.4492 54.3945 87.1582 60.791 87.1582C62.0117 87.1582 63.3789 87.0605 65.9668 86.9629C65.4297 84.5215 65.1367 82.2266 65.1367 80.0293C65.1367 51.0254 106.25 54.1992 106.25 26.6113C106.25 15.1367 95.1172 7.27539 84.2773 7.27539C83.3008 7.27539 81.9336 7.4707 80.5664 7.76367C76.6602 2.92969 70.4102 0 64.5508 0C54.1992 0 47.3145 6.73828 46.9727 16.0645C46.875 18.5547 45.2148 19.9707 43.0664 19.9707C40.8203 19.9707 39.1113 18.2617 39.209 15.7227C39.3555 12.207 40.0879 8.98438 41.3574 6.15234C39.0625 5.51758 36.7676 5.22461 34.4727 5.22461C22.6562 5.22461 13.8184 12.6953 13.8184 21.8262C13.8184 27.9297 18.3594 32.959 24.9512 32.959C27.0996 32.959 28.8574 34.7656 28.8574 36.8652C28.8574 39.0137 27.0996 40.8203 24.9512 40.8203C16.4062 40.8203 10.1562 36.8652 7.27539 30.6641C2.68555 35.9863 0 43.0176 0 50.293C0 67.041 10.791 79.2969 27.2461 79.2969ZM105.957 108.008C118.164 108.008 124.121 93.1641 124.121 78.7109C124.121 76.5137 124.023 74.4629 123.975 72.5586C119.678 74.7559 114.453 75.7324 108.447 75.3418C106.25 75.1953 104.492 73.6328 104.492 71.4355C104.492 69.2871 106.25 67.334 108.447 67.5293C120.459 68.457 128.516 61.7188 128.516 50.7324C128.516 40.9668 123.242 32.959 114.746 28.9062C108.545 61.0352 73.4375 56.7383 72.3633 78.6133C72.0215 85.9863 77.6367 91.7969 85.6445 91.7969C88.4766 91.7969 89.8926 91.6992 91.1621 91.6504C92.2852 99.9512 97.5098 108.008 105.957 108.008Z" fill="#000000" fill-opacity="0.85"/>
 </g>
</svg>
