<?xml version="1.0" encoding="UTF-8"?>
<!--Generator: Apple Native CoreSVG 232.5-->
<!DOCTYPE svg
PUBLIC "-//W3C//DTD SVG 1.1//EN"
       "http://www.w3.org/Graphics/SVG/1.1/DTD/svg11.dtd">
<svg version="1.1" xmlns="http://www.w3.org/2000/svg" xmlns:xlink="http://www.w3.org/1999/xlink" width="89.8926" height="89.9902">
 <g>
  <rect height="89.9902" opacity="0" width="89.8926" x="0" y="0"/>
  <path d="M15.332 89.9902L74.5605 89.9902C84.8145 89.9902 89.8926 84.9121 89.8926 74.8535L89.8926 15.2344C89.8926 5.17578 84.8145 0.0976562 74.5605 0.0976562L15.332 0.0976562C5.12695 0.0976562 0 5.12695 0 15.2344L0 74.8535C0 84.9609 5.12695 89.9902 15.332 89.9902ZM15.4297 82.1289C10.5469 82.1289 7.86133 79.541 7.86133 74.4629L7.86133 15.625C7.86133 10.5469 10.5469 7.95898 15.4297 7.95898L74.4629 7.95898C79.2969 7.95898 82.0312 10.5469 82.0312 15.625L82.0312 74.4629C82.0312 79.541 79.2969 82.1289 74.4629 82.1289Z" fill="#000000" fill-opacity="0.85"/>
  <path d="M23.4863 67.041C25.3418 67.041 26.6602 65.7227 26.6602 63.8184L26.6602 48.0957L30.5176 48.0957C30.8594 48.0957 31.1523 48.0957 31.543 48.0957L38.0371 64.9902C38.5742 66.4551 39.7461 67.041 41.0156 67.041C43.0664 67.041 45.166 65.4297 44.043 62.6465L37.6953 46.875C41.8457 45.2637 43.9941 40.0879 43.9941 34.9609C43.9941 27.1484 40.1367 22.6562 31.8848 22.6562L23.9746 22.6562C21.582 22.6562 20.2637 24.4629 20.2637 27.0996L20.2637 63.8184C20.2637 65.7227 21.582 67.041 23.4863 67.041ZM26.6602 43.1152L26.6602 27.832L31.2012 27.832C35.498 27.832 37.5 30.6152 37.5 35.2051C37.5 39.8438 35.5957 43.1152 31.25 43.1152ZM60.0586 65.0391C67.0898 65.0391 71.9238 60.9863 71.9238 54.2969C71.9238 49.5605 69.3848 46.1914 63.623 43.1641L59.2773 40.8691C56.7383 39.5508 54.1016 37.8906 54.1016 34.668C54.1016 31.6406 56.3477 29.6875 59.7168 29.6875C63.4277 29.6875 65.2832 32.0312 65.5273 35.3516C65.6738 36.9141 66.8945 37.8418 68.2129 37.8418C69.9219 37.8418 71.5332 36.5723 71.1426 33.8867C70.459 28.5645 66.4062 24.5117 59.7168 24.5117C53.0273 24.5117 48.0957 28.6133 48.0957 34.9121C48.0957 40.2344 51.123 43.6523 56.2988 46.1914L60.498 48.291C63.2812 49.6582 65.9668 51.8066 65.9668 54.7363C65.9668 57.8125 63.8184 59.8633 60.0586 59.8633C55.8105 59.8633 53.9551 57.7148 53.6133 54.1504C53.418 52.4902 52.2949 51.6602 50.9766 51.6602C49.3164 51.6602 47.7051 53.0762 48.0957 55.6152C48.877 61.2305 53.1738 65.0391 60.0586 65.0391ZM60.0098 70.2637C61.084 70.2637 62.0117 69.3359 62.0117 68.2617L62.0117 21.4355C62.0117 20.3125 61.084 19.3848 60.0098 19.3848C58.9355 19.3848 57.959 20.3125 57.959 21.4355L57.959 68.2617C57.959 69.3359 58.9355 70.2637 60.0098 70.2637Z" fill="#000000" fill-opacity="0.85"/>
 </g>
</svg>
