<?xml version="1.0" encoding="UTF-8"?>
<!--Generator: Apple Native CoreSVG 232.5-->
<!DOCTYPE svg
PUBLIC "-//W3C//DTD SVG 1.1//EN"
       "http://www.w3.org/Graphics/SVG/1.1/DTD/svg11.dtd">
<svg version="1.1" xmlns="http://www.w3.org/2000/svg" xmlns:xlink="http://www.w3.org/1999/xlink" width="109.095" height="99.6582">
 <g>
  <rect height="99.6582" opacity="0" width="109.095" x="0" y="0"/>
  <path d="M59.2839 99.6094C86.4812 99.6094 109.089 77.002 109.089 49.8047C109.089 22.5586 86.4812 0 59.2839 0C32.0378 0 9.47924 22.5098 9.47924 49.7559L17.78 49.7559C17.78 26.709 36.2371 8.34961 59.2839 8.34961C82.3308 8.34961 100.788 26.7578 100.788 49.8047C100.788 72.8516 82.3308 91.4062 59.2839 91.3086C45.3679 91.2598 33.1609 84.5215 25.6902 74.1211C24.1765 72.1191 21.8816 71.4844 19.8308 72.7051C17.8777 73.9258 17.3406 76.6113 19.0007 78.7598C28.2781 91.2109 42.8289 99.6094 59.2839 99.6094ZM3.47339 40.3809C-0.04224 40.3809-0.921146 42.7734 0.983151 45.5078L11.9207 61.0352C13.532 63.2812 15.8757 63.2324 17.4382 61.0352L28.3757 45.459C30.2312 42.7734 29.3523 40.3809 25.8855 40.3809Z" fill="#000000" fill-opacity="0.85"/>
  <path d="M37.7507 71.875C39.655 71.875 40.9246 70.5566 40.9246 68.6523L40.9246 52.9297L44.8308 52.9297C45.1726 52.9297 45.4167 52.9297 45.8562 52.9297L52.3015 69.8242C52.8386 71.2891 54.0105 71.875 55.28 71.875C57.3308 71.875 59.4304 70.2637 58.3562 67.4805L52.0085 51.709C56.1101 50.0977 58.3074 44.9219 58.3074 39.7949C58.3074 31.9824 54.4011 27.4902 46.198 27.4902L38.2878 27.4902C35.8953 27.4902 34.5769 29.2969 34.5769 31.9336L34.5769 68.6523C34.5769 70.5566 35.8464 71.875 37.7507 71.875ZM40.9246 47.9492L40.9246 32.666L45.4656 32.666C49.8113 32.666 51.8132 35.4492 51.8132 40.0391C51.8132 44.6777 49.9089 47.9492 45.5144 47.9492ZM74.3718 69.873C81.4031 69.873 86.2371 65.8203 86.2371 59.1309C86.2371 54.3945 83.698 51.0254 77.8874 47.998L73.5417 45.7031C71.0027 44.3848 68.366 42.7246 68.366 39.502C68.366 36.4746 70.6609 34.5215 74.03 34.5215C77.6921 34.5215 79.5476 36.8652 79.7917 40.1855C79.9382 41.748 81.1589 42.6758 82.5261 42.6758C84.1863 42.6758 85.7976 41.4062 85.407 38.7207C84.7234 33.3984 80.6707 29.3457 74.03 29.3457C67.2917 29.3457 62.4089 33.4473 62.4089 39.7461C62.4089 45.0684 65.4363 48.4863 70.5632 51.0254L74.7624 53.125C77.5457 54.4922 80.28 56.6406 80.28 59.5703C80.28 62.6465 78.1316 64.6973 74.3718 64.6973C70.1238 64.6973 68.2683 62.5488 67.9265 58.9844C67.7312 57.3242 66.6082 56.4941 65.241 56.4941C63.5808 56.4941 62.0183 57.9102 62.4089 60.4492C63.1902 66.0645 67.4871 69.873 74.3718 69.873ZM74.323 75.0977C75.3484 75.0977 76.3249 74.1699 76.3249 73.0957L76.3249 26.2695C76.3249 25.1465 75.3484 24.2188 74.323 24.2188C73.1999 24.2188 72.2722 25.1465 72.2722 26.2695L72.2722 73.0957C72.2722 74.1699 73.1999 75.0977 74.323 75.0977Z" fill="#000000" fill-opacity="0.85"/>
 </g>
</svg>
