<?xml version="1.0" encoding="UTF-8"?>
<!--Generator: Apple Native CoreSVG 232.5-->
<!DOCTYPE svg
PUBLIC "-//W3C//DTD SVG 1.1//EN"
       "http://www.w3.org/Graphics/SVG/1.1/DTD/svg11.dtd">
<svg version="1.1" xmlns="http://www.w3.org/2000/svg" xmlns:xlink="http://www.w3.org/1999/xlink" width="99.6094" height="99.6582">
 <g>
  <rect height="99.6582" opacity="0" width="99.6094" x="0" y="0"/>
  <path d="M49.8047 99.6094C77.0508 99.6094 99.6094 77.002 99.6094 49.8047C99.6094 22.5586 77.002 0 49.7559 0C22.5586 0 0 22.5586 0 49.8047C0 77.002 22.6074 99.6094 49.8047 99.6094ZM49.8047 91.3086C26.7578 91.3086 8.34961 72.8516 8.34961 49.8047C8.34961 26.7578 26.709 8.30078 49.7559 8.30078C72.8027 8.30078 91.3086 26.7578 91.3086 49.8047C91.3086 72.8516 72.8516 91.3086 49.8047 91.3086Z" fill="#000000" fill-opacity="0.85"/>
  <path d="M28.2715 71.875C30.127 71.875 31.4453 70.5566 31.4453 68.6523L31.4453 52.9297L35.3027 52.9297C35.6445 52.9297 35.9375 52.9297 36.3281 52.9297L42.8223 69.8242C43.3594 71.2891 44.5312 71.875 45.752 71.875C47.8516 71.875 49.9023 70.2637 48.8281 67.4805L42.4805 51.709C46.6309 50.0977 48.7793 44.9219 48.7793 39.7949C48.7793 31.9824 44.9219 27.4902 36.6699 27.4902L28.7598 27.4902C26.3672 27.4902 25.0488 29.2969 25.0488 31.9336L25.0488 68.6523C25.0488 70.5566 26.3672 71.875 28.2715 71.875ZM31.4453 47.9492L31.4453 32.666L35.9375 32.666C40.2832 32.666 42.2852 35.4492 42.2852 40.0391C42.2852 44.6777 40.3809 47.9492 35.9863 47.9492ZM64.8438 69.873C71.875 69.873 76.709 65.8203 76.709 59.1309C76.709 54.3945 74.1699 51.0254 68.4082 47.998L64.0625 45.7031C61.4746 44.3848 58.8867 42.7246 58.8867 39.502C58.8867 36.4746 61.1328 34.5215 64.502 34.5215C68.2129 34.5215 70.0684 36.8652 70.3125 40.1855C70.459 41.748 71.6797 42.6758 72.998 42.6758C74.6582 42.6758 76.3184 41.4062 75.9277 38.7207C75.2441 33.3984 71.1914 29.3457 64.502 29.3457C57.8125 29.3457 52.8809 33.4473 52.8809 39.7461C52.8809 45.0684 55.9082 48.4863 61.0352 51.0254L65.2832 53.125C68.0664 54.4922 70.752 56.6406 70.752 59.5703C70.752 62.6465 68.6035 64.6973 64.8438 64.6973C60.5957 64.6973 58.7402 62.5488 58.3984 58.9844C58.2031 57.3242 57.0801 56.4941 55.7617 56.4941C54.0527 56.4941 52.4902 57.9102 52.8809 60.4492C53.6621 66.0645 57.959 69.873 64.8438 69.873ZM64.7949 75.0977C65.8691 75.0977 66.7969 74.1699 66.7969 73.0957L66.7969 26.2695C66.7969 25.1465 65.8691 24.2188 64.7949 24.2188C63.6719 24.2188 62.7441 25.1465 62.7441 26.2695L62.7441 73.0957C62.7441 74.1699 63.6719 75.0977 64.7949 75.0977Z" fill="#000000" fill-opacity="0.85"/>
 </g>
</svg>
