<?xml version="1.0" encoding="UTF-8"?>
<!--Generator: Apple Native CoreSVG 232.5-->
<!DOCTYPE svg
PUBLIC "-//W3C//DTD SVG 1.1//EN"
       "http://www.w3.org/Graphics/SVG/1.1/DTD/svg11.dtd">
<svg version="1.1" xmlns="http://www.w3.org/2000/svg" xmlns:xlink="http://www.w3.org/1999/xlink" width="114.209" height="112.549">
 <g>
  <rect height="112.549" opacity="0" width="114.209" x="0" y="0"/>
  <path d="M4.49219 101.709C7.22656 101.709 8.98438 99.9023 8.98438 97.0215L8.98438 64.6973L24.4629 64.6973C24.7559 64.6973 25.1465 64.6973 25.4395 64.6973L44.4336 98.7793C45.6543 100.928 46.8262 101.758 48.9258 101.758C51.5625 101.758 53.4668 99.9512 53.4668 97.5586C53.4668 96.5332 53.2227 95.6055 52.5391 94.3359L34.7656 63.2812C46.1914 60.0586 53.0273 50.8789 53.0273 38.623C53.0273 23.0957 42.1875 13.1836 25.3418 13.1836L4.63867 13.1836C1.75781 13.1836 0 15.0391 0 18.0176L0 97.0215C0 99.9023 1.75781 101.709 4.49219 101.709ZM8.98438 56.6895L8.98438 21.2402L24.1699 21.2402C36.377 21.2402 43.7012 27.7344 43.7012 38.916C43.7012 50.2441 36.6699 56.6895 24.5605 56.6895ZM87.1094 98.5352C101.709 98.5352 114.209 90.332 114.209 75.4395C114.209 63.9648 107.373 57.1289 91.9922 53.1738L83.8379 51.0254C74.4141 48.6816 70.0195 44.4336 70.0195 37.8906C70.0195 30.8105 76.3184 24.707 87.0605 24.707C95.8008 24.707 101.855 29.0527 104.199 37.207C105.127 39.9414 106.494 41.0645 108.74 41.0645C111.328 41.0645 112.988 39.3066 112.988 36.377C112.988 35.6934 112.891 34.9121 112.695 33.9844C110.059 23.1934 99.8047 16.0645 87.0605 16.0645C71.875 16.0645 61.084 25.1953 61.084 38.4277C61.084 49.4629 67.9199 56.3477 82.4707 60.0586L90.625 62.1582C101.27 64.9414 105.322 68.75 105.322 76.0742C105.322 84.8145 98.6328 89.8926 87.207 89.8926C76.9043 89.8926 70.3125 85.3027 68.3105 76.9043C67.4805 74.3164 65.9668 72.998 63.7207 72.998C61.1816 72.998 59.5215 74.9023 59.5215 77.7344C59.5215 78.5156 59.6191 79.248 59.8633 80.0781C62.5977 91.7969 74.1211 98.5352 87.1094 98.5352ZM86.8652 112.549C88.916 112.549 90.5762 110.938 90.5762 108.887L90.5762 6.05469C90.5762 4.00391 88.916 2.34375 86.8652 2.34375C84.8145 2.34375 83.2031 4.00391 83.2031 6.05469L83.2031 108.887C83.2031 110.938 84.8145 112.549 86.8652 112.549Z" fill="#000000" fill-opacity="0.85"/>
 </g>
</svg>
