<?xml version="1.0" encoding="UTF-8"?>
<!--Generator: Apple Native CoreSVG 232.5-->
<!DOCTYPE svg
PUBLIC "-//W3C//DTD SVG 1.1//EN"
       "http://www.w3.org/Graphics/SVG/1.1/DTD/svg11.dtd">
<svg version="1.1" xmlns="http://www.w3.org/2000/svg" xmlns:xlink="http://www.w3.org/1999/xlink" width="99.6094" height="99.6582">
 <g>
  <rect height="99.6582" opacity="0" width="99.6094" x="0" y="0"/>
  <path d="M49.8047 99.6094C77.0508 99.6094 99.6094 77.002 99.6094 49.8047C99.6094 22.5586 77.002 0 49.7559 0C22.5586 0 0 22.5586 0 49.8047C0 77.002 22.6074 99.6094 49.8047 99.6094ZM49.8047 91.3086C26.7578 91.3086 8.34961 72.8516 8.34961 49.8047C8.34961 26.7578 26.709 8.30078 49.7559 8.30078C72.8027 8.30078 91.3086 26.7578 91.3086 49.8047C91.3086 72.8516 72.8516 91.3086 49.8047 91.3086Z" fill="#000000" fill-opacity="0.85"/>
  <path d="M29.6875 71.4844L69.9219 71.4844C75.0488 71.4844 77.6367 68.9941 77.6367 63.916L77.6367 39.5508C77.6367 34.4238 75.0488 31.9336 69.9219 31.9336L29.6875 31.9336C24.5605 31.9336 22.0215 34.4238 22.0215 39.5508L22.0215 63.916C22.0215 68.9941 24.5605 71.4844 29.6875 71.4844ZM45.8984 55.0293C44.1895 55.0293 43.1641 54.0527 43.1641 52.2461L43.1641 50.2441C36.1816 49.7559 29.2969 48.4863 22.0215 45.8496L22.0215 41.5039C31.2012 45.3125 40.0879 46.582 49.8047 46.582C59.5215 46.582 68.4082 45.3125 77.6367 41.5039L77.6367 45.8496C70.3125 48.4863 63.4277 49.7559 56.4453 50.2441L56.4453 52.2461C56.4453 54.0527 55.4199 55.0293 53.7109 55.0293ZM34.9121 34.1309L39.5996 34.1309L39.5996 29.6875C39.5996 28.418 40.4297 27.6367 41.7969 27.6367L57.9102 27.6367C59.2285 27.6367 60.0586 28.418 60.0586 29.6875L60.0586 34.1309L64.6973 34.1309L64.6973 29.4434C64.6973 25.5859 62.1582 23.2422 58.1543 23.2422L41.4551 23.2422C37.4512 23.2422 34.9121 25.5859 34.9121 29.4434Z" fill="#000000" fill-opacity="0.85"/>
 </g>
</svg>
