<?xml version="1.0" encoding="UTF-8"?>
<!--Generator: Apple Native CoreSVG 232.5-->
<!DOCTYPE svg
PUBLIC "-//W3C//DTD SVG 1.1//EN"
       "http://www.w3.org/Graphics/SVG/1.1/DTD/svg11.dtd">
<svg version="1.1" xmlns="http://www.w3.org/2000/svg" xmlns:xlink="http://www.w3.org/1999/xlink" width="153.613" height="125.146">
 <g>
  <rect height="125.146" opacity="0" width="153.613" x="0" y="0"/>
  <path d="M114.023 24.8047L80.1758 24.8047C62.3047 24.8047 52.0508 35.4004 52.0508 52.8809L52.0508 79.2969C52.0508 84.8897 53.1004 89.7777 55.1249 93.8295L43.75 103.955C40.8203 106.543 39.1602 107.812 36.7188 107.812C33.3496 107.812 31.3965 105.42 31.3965 101.66L31.3965 88.916L29.0527 88.916C14.5508 88.916 6.68945 80.9082 6.68945 66.6016L6.68945 29.1504C6.68945 14.8438 14.5508 6.78711 29.0527 6.78711L91.9434 6.78711C104.943 6.78711 112.564 13.2171 114.023 24.8047Z" fill="#000000" fill-opacity="0.85"/>
  <path d="M146.924 52.8809L146.924 79.2969C146.924 93.1152 139.551 100.684 125.488 100.684L124.512 100.684L124.512 112.402C124.512 116.113 122.607 118.506 119.238 118.506C116.846 118.506 115.234 117.188 112.256 114.648L95.9473 100.684L80.1758 100.684C66.1133 100.684 58.7402 93.1641 58.7402 79.2969L58.7402 52.8809C58.7402 39.0137 66.1133 31.4453 80.1758 31.4453L125.488 31.4453C139.551 31.4453 146.924 39.0137 146.924 52.8809ZM98.0957 80.8594C98.0957 83.3496 100.293 85.4004 102.783 85.4004C105.322 85.4004 107.52 83.3984 107.52 80.8594C107.52 78.3203 105.371 76.3184 102.783 76.3184C100.244 76.3184 98.0957 78.3691 98.0957 80.8594ZM98.8281 52.0508L99.4141 68.0176C99.4629 70.2637 100.635 71.4844 102.832 71.4844C104.932 71.4844 106.104 70.3125 106.201 68.0176L106.787 52.0996C106.885 49.707 105.127 47.998 102.783 47.998C100.439 47.998 98.7305 49.6582 98.8281 52.0508Z" fill="#000000" fill-opacity="0.85"/>
 </g>
</svg>
