<?xml version="1.0" encoding="UTF-8"?>
<!--Generator: Apple Native CoreSVG 232.5-->
<!DOCTYPE svg
PUBLIC "-//W3C//DTD SVG 1.1//EN"
       "http://www.w3.org/Graphics/SVG/1.1/DTD/svg11.dtd">
<svg version="1.1" xmlns="http://www.w3.org/2000/svg" xmlns:xlink="http://www.w3.org/1999/xlink" width="103.076" height="99.6582">
 <g>
  <rect height="99.6582" opacity="0" width="103.076" x="0" y="0"/>
  <path d="M87.1582 65.6738C88.6719 77.6855 88.916 77.8809 101.172 79.6387C102.295 79.834 103.076 80.6152 103.076 81.6895C103.076 82.7148 102.295 83.5449 101.221 83.7402C88.7695 86.1328 88.7207 86.0352 87.1582 97.7539C87.0117 98.8281 86.1328 99.6094 85.1074 99.6094C83.9844 99.6094 83.1543 98.7793 83.0566 97.6562C81.5918 85.9375 81.3477 85.7422 69.1406 83.7402C67.9199 83.5449 67.1387 82.7637 67.1387 81.6895C67.1387 80.7129 67.8711 79.8828 68.9453 79.6387C81.3477 77.2949 81.5918 77.4414 83.0566 65.7227C83.1543 64.5996 83.9844 63.7695 85.1074 63.7695C86.1816 63.7695 87.0605 64.5508 87.1582 65.6738Z" fill="#000000" fill-opacity="0.85"/>
  <path d="M33.7402 1.41602C35.4004 10.3027 35.1562 10.0098 44.043 11.7676C44.9219 11.9141 45.5078 12.5488 45.5078 13.3789C45.5078 14.209 44.9219 14.8926 44.043 15.0391C35.1562 16.7969 35.4004 16.5039 33.7402 25.3906C33.5938 26.2695 32.9102 26.8066 32.0801 26.8066C31.25 26.8066 30.5664 26.2695 30.4199 25.3906C28.7598 16.5039 29.0039 16.7969 20.1172 15.0391C19.2383 14.8926 18.6523 14.209 18.6523 13.3789C18.6523 12.5488 19.2383 11.9141 20.1172 11.7676C29.0039 10.0098 28.7598 10.3027 30.4199 1.41602C30.5664 0.537109 31.25 0 32.0801 0C32.9102 0 33.5938 0.537109 33.7402 1.41602Z" fill="#000000" fill-opacity="0.85"/>
  <path d="M45.8008 84.1309C45.8008 91.7969 39.5508 98.0469 31.9824 98.0469C24.3164 98.0469 18.0664 91.7969 18.0664 84.1309C18.0664 76.5625 24.3164 70.3125 31.9824 70.3125C39.5508 70.3125 45.8008 76.5625 45.8008 84.1309Z" fill="#000000" fill-opacity="0.85"/>
  <path d="M25.8301 40.918C25.8301 48.0469 19.9707 53.8574 12.9395 53.8574C5.81055 53.8574 0 48.0469 0 40.918C0 33.8867 5.81055 28.0762 12.9395 28.0762C19.9707 28.0762 25.8301 33.8867 25.8301 40.918Z" fill="#000000" fill-opacity="0.85"/>
  <path d="M101.123 28.5156C101.123 40.022 92.7489 49.5534 81.7472 51.3274C81.9758 50.0913 82.0801 48.813 82.0801 47.5098C82.0801 34.4238 71.4844 23.8281 58.3984 23.8281C57.3539 23.8281 56.3253 23.8956 55.3242 24.0497C57.4004 13.4372 66.7629 5.41992 77.9785 5.41992C90.7715 5.41992 101.123 15.7715 101.123 28.5156Z" fill="#000000" fill-opacity="0.85"/>
  <path d="M58.3984 65.5273C68.3594 65.5273 76.416 57.5195 76.416 47.5098C76.416 37.5488 68.3594 29.4922 58.3984 29.4922C48.4375 29.4922 40.3809 37.5488 40.3809 47.5098C40.3809 57.5195 48.4375 65.5273 58.3984 65.5273Z" fill="#000000" fill-opacity="0.85"/>
 </g>
</svg>
