<?xml version="1.0" encoding="UTF-8"?>
<!--Generator: Apple Native CoreSVG 232.5-->
<!DOCTYPE svg
PUBLIC "-//W3C//DTD SVG 1.1//EN"
       "http://www.w3.org/Graphics/SVG/1.1/DTD/svg11.dtd">
<svg version="1.1" xmlns="http://www.w3.org/2000/svg" xmlns:xlink="http://www.w3.org/1999/xlink" width="99.6094" height="99.6582">
 <g>
  <rect height="99.6582" opacity="0" width="99.6094" x="0" y="0"/>
  <path d="M49.8047 99.6094C77.0508 99.6094 99.6094 77.002 99.6094 49.8047C99.6094 22.5586 77.002 0 49.7559 0C22.5586 0 0 22.5586 0 49.8047C0 77.002 22.6074 99.6094 49.8047 99.6094ZM49.8047 91.3086C26.7578 91.3086 8.34961 72.8516 8.34961 49.8047C8.34961 26.7578 26.709 8.30078 49.7559 8.30078C72.8027 8.30078 91.3086 26.7578 91.3086 49.8047C91.3086 72.8516 72.8516 91.3086 49.8047 91.3086Z" fill="#000000" fill-opacity="0.85"/>
  <path d="M37.5488 77.9785C38.5254 77.9785 39.1602 77.5391 40.2832 76.5137L49.0234 68.6035L65.332 68.6035C72.4121 68.6035 76.3184 64.6484 76.3184 57.5684L76.3184 39.1602C76.3184 32.1777 72.4121 28.1738 65.332 28.1738L34.2773 28.1738C27.1973 28.1738 23.291 32.1289 23.291 39.1602L23.291 57.5684C23.291 64.6484 27.1973 68.6035 34.2773 68.6035L35.4492 68.6035L35.4492 75.5859C35.4492 77.0508 36.2305 77.9785 37.5488 77.9785Z" fill="#000000" fill-opacity="0.85"/>
 </g>
</svg>
