<?xml version="1.0" encoding="UTF-8"?>
<!--Generator: Apple Native CoreSVG 232.5-->
<!DOCTYPE svg
PUBLIC "-//W3C//DTD SVG 1.1//EN"
       "http://www.w3.org/Graphics/SVG/1.1/DTD/svg11.dtd">
<svg version="1.1" xmlns="http://www.w3.org/2000/svg" xmlns:xlink="http://www.w3.org/1999/xlink" width="107.617" height="108.252">
 <g>
  <rect height="108.252" opacity="0" width="107.617" x="0" y="0"/>
  <path d="M53.7109 108.252C55.9082 108.252 57.959 107.324 59.9121 103.955L68.9453 88.8672L85.2539 88.8672C99.8047 88.8672 107.617 80.8105 107.617 66.5039L107.617 29.1016C107.617 14.7949 99.8047 6.73828 85.2539 6.73828L22.3633 6.73828C7.8125 6.73828 0 14.7461 0 29.1016L0 66.5039C0 80.8594 7.8125 88.8672 22.3633 88.8672L38.4766 88.8672L47.5098 103.955C49.4629 107.324 51.5137 108.252 53.7109 108.252ZM53.7109 100.244L45.5566 84.9609C43.9453 81.7871 42.7734 81.0059 39.3066 81.0059L22.3633 81.0059C12.5 81.0059 7.86133 75.9766 7.86133 66.4551L7.86133 29.1016C7.86133 19.5801 12.5 14.5996 22.3633 14.5996L85.2539 14.5996C95.0684 14.5996 99.7559 19.5801 99.7559 29.1016L99.7559 66.4551C99.7559 75.9766 95.0684 81.0059 85.2539 81.0059L68.1152 81.0059C64.6484 81.0059 63.4766 81.7871 61.8652 84.9609Z" fill="#000000" fill-opacity="0.85"/>
 </g>
</svg>
