<?xml version="1.0" encoding="UTF-8"?>
<!--Generator: Apple Native CoreSVG 232.5-->
<!DOCTYPE svg
PUBLIC "-//W3C//DTD SVG 1.1//EN"
       "http://www.w3.org/Graphics/SVG/1.1/DTD/svg11.dtd">
<svg version="1.1" xmlns="http://www.w3.org/2000/svg" xmlns:xlink="http://www.w3.org/1999/xlink" width="99.6094" height="99.6582">
 <g>
  <rect height="99.6582" opacity="0" width="99.6094" x="0" y="0"/>
  <path d="M99.6094 49.8535C99.6094 77.0996 77.0508 99.6582 49.8047 99.6582C22.6074 99.6582 0 77.0996 0 49.8535C0 22.6562 22.5586 0.0488281 49.7559 0.0488281C77.002 0.0488281 99.6094 22.6562 99.6094 49.8535ZM33.7891 27.4902C26.5137 27.4902 22.4609 31.5918 22.4609 38.7695L22.4609 57.7637C22.4609 65.0391 26.5137 69.1406 33.7891 69.1406L35.0098 69.1406L35.0098 76.3184C35.0098 77.832 35.8398 78.8574 37.207 78.8574C38.1836 78.8574 38.8672 78.418 40.0391 77.2949L49.0234 69.1406L65.8203 69.1406C73.0957 69.1406 77.1484 65.0391 77.1484 57.7637L77.1484 38.7695C77.1484 31.5918 73.0957 27.4902 65.8203 27.4902Z" fill="#000000" fill-opacity="0.85"/>
 </g>
</svg>
