<?xml version="1.0" encoding="UTF-8"?>
<!--Generator: Apple Native CoreSVG 232.5-->
<!DOCTYPE svg
PUBLIC "-//W3C//DTD SVG 1.1//EN"
       "http://www.w3.org/Graphics/SVG/1.1/DTD/svg11.dtd">
<svg version="1.1" xmlns="http://www.w3.org/2000/svg" xmlns:xlink="http://www.w3.org/1999/xlink" width="107.617" height="109.033">
 <g>
  <rect height="109.033" opacity="0" width="107.617" x="0" y="0"/>
  <path d="M53.7109 0C51.5137 0 49.4629 0.927734 47.5098 4.29688L38.4766 19.3848L22.3633 19.3848C7.8125 19.3848 0 27.3926 0 41.748L0 79.1504C0 93.5059 7.8125 101.514 22.3633 101.514L85.2539 101.514C99.8047 101.514 107.617 93.457 107.617 79.1504L107.617 41.748C107.617 27.4414 99.8047 19.3848 85.2539 19.3848L68.9453 19.3848L59.9121 4.29688C57.959 0.927734 55.9082 0 53.7109 0ZM53.7109 8.00781L61.8652 23.291C63.4766 26.4648 64.6484 27.2461 68.1152 27.2461L85.2539 27.2461C95.0684 27.2461 99.7559 32.2266 99.7559 41.748L99.7559 79.1016C99.7559 88.623 95.0684 93.6523 85.2539 93.6523L22.3633 93.6523C12.5 93.6523 7.86133 88.623 7.86133 79.1016L7.86133 41.748C7.86133 32.2266 12.5 27.2461 22.3633 27.2461L39.3066 27.2461C42.7734 27.2461 43.9453 26.4648 45.5566 23.291Z" fill="#000000" fill-opacity="0.85"/>
 </g>
</svg>
