<?xml version="1.0" encoding="UTF-8"?>
<!--Generator: Apple Native CoreSVG 232.5-->
<!DOCTYPE svg
PUBLIC "-//W3C//DTD SVG 1.1//EN"
       "http://www.w3.org/Graphics/SVG/1.1/DTD/svg11.dtd">
<svg version="1.1" xmlns="http://www.w3.org/2000/svg" xmlns:xlink="http://www.w3.org/1999/xlink" width="107.617" height="107.275">
 <g>
  <rect height="107.275" opacity="0" width="107.617" x="0" y="0"/>
  <path d="M77.5879 107.275C81.0059 107.275 82.9102 104.834 82.9102 101.074L82.9102 88.3789L85.2539 88.3789C99.8047 88.3789 107.617 80.3711 107.617 66.0156L107.617 28.6133C107.617 14.2578 99.8047 6.25 85.2539 6.25L22.3633 6.25C7.8125 6.25 0 14.3066 0 28.6133L0 66.0156C0 80.3223 7.8125 88.3789 22.3633 88.3789L53.7109 88.3789L70.5566 103.369C73.5352 106.006 75.1953 107.275 77.5879 107.275ZM75.5859 98.3398L59.9609 82.8125C58.1055 80.9082 56.7383 80.5176 54.0039 80.5176L22.3633 80.5176C12.5488 80.5176 7.86133 75.4883 7.86133 65.9668L7.86133 28.6133C7.86133 19.0918 12.5488 14.1113 22.3633 14.1113L85.2539 14.1113C95.1172 14.1113 99.7559 19.0918 99.7559 28.6133L99.7559 65.9668C99.7559 75.4883 95.1172 80.5176 85.2539 80.5176L79.248 80.5176C76.6113 80.5176 75.5859 81.543 75.5859 84.1797Z" fill="#000000" fill-opacity="0.85"/>
 </g>
</svg>
