<?xml version="1.0" encoding="UTF-8"?>
<!--Generator: Apple Native CoreSVG 232.5-->
<!DOCTYPE svg
PUBLIC "-//W3C//DTD SVG 1.1//EN"
       "http://www.w3.org/Graphics/SVG/1.1/DTD/svg11.dtd">
<svg version="1.1" xmlns="http://www.w3.org/2000/svg" xmlns:xlink="http://www.w3.org/1999/xlink" width="99.6094" height="99.6582">
 <g>
  <rect height="99.6582" opacity="0" width="99.6094" x="0" y="0"/>
  <path d="M99.6094 49.8535C99.6094 77.0996 77.0508 99.6582 49.8047 99.6582C22.6074 99.6582 0 77.0996 0 49.8535C0 22.6562 22.5586 0.0488281 49.7559 0.0488281C77.002 0.0488281 99.6094 22.6562 99.6094 49.8535ZM24.1211 27.6367C20.9473 27.6367 18.9941 29.834 18.9941 33.2031L18.9941 77.7344C26.5625 86.1328 37.5 91.3574 49.8047 91.3574C54.0527 91.3574 58.1543 90.7227 62.0117 89.5508L62.0117 33.2031C62.0117 29.834 60.1074 27.6367 56.8848 27.6367ZM65.8203 40.1367L65.8203 88.1836C73.877 84.8633 80.6152 79.0039 85.1074 71.6797L85.1074 45.6055C85.1074 42.2363 83.1543 40.1367 79.9805 40.1367ZM36.9629 74.6582L36.9629 79.834C36.9629 80.5664 36.4258 81.0059 35.791 81.0059L30.4688 81.0059C29.7852 81.0059 29.3457 80.5664 29.3457 79.834L29.3457 74.6582C29.3457 74.0234 29.7852 73.4863 30.4688 73.4863L35.791 73.4863C36.4258 73.4863 36.9629 74.0234 36.9629 74.6582ZM51.6113 74.6582L51.6113 79.834C51.6113 80.5664 51.123 81.0059 50.4395 81.0059L45.1172 81.0059C44.4336 81.0059 43.9941 80.5664 43.9941 79.834L43.9941 74.6582C43.9941 74.0234 44.4336 73.4863 45.1172 73.4863L50.4395 73.4863C51.123 73.4863 51.6113 74.0234 51.6113 74.6582ZM78.6133 71.4844L78.6133 75.9277C78.6133 76.416 78.2227 76.8555 77.7344 76.8555L73.1445 76.8555C72.5586 76.8555 72.168 76.416 72.168 75.9277L72.168 71.4844C72.168 70.9961 72.5586 70.5566 73.1445 70.5566L77.7344 70.5566C78.2227 70.5566 78.6133 70.9961 78.6133 71.4844ZM36.9629 62.3047L36.9629 67.4316C36.9629 68.1152 36.4258 68.6035 35.791 68.6035L30.4688 68.6035C29.7852 68.6035 29.3457 68.1152 29.3457 67.4316L29.3457 62.3047C29.3457 61.6211 29.7852 61.1328 30.4688 61.1328L35.791 61.1328C36.4258 61.1328 36.9629 61.6211 36.9629 62.3047ZM51.6113 62.3047L51.6113 67.4316C51.6113 68.1152 51.123 68.6035 50.4395 68.6035L45.1172 68.6035C44.4336 68.6035 43.9941 68.1152 43.9941 67.4316L43.9941 62.3047C43.9941 61.6211 44.4336 61.1328 45.1172 61.1328L50.4395 61.1328C51.123 61.1328 51.6113 61.6211 51.6113 62.3047ZM78.6133 60.3516L78.6133 64.7461C78.6133 65.2832 78.2227 65.6738 77.7344 65.6738L73.1445 65.6738C72.5586 65.6738 72.168 65.2832 72.168 64.7461L72.168 60.3516C72.168 59.8145 72.5586 59.4238 73.1445 59.4238L77.7344 59.4238C78.2227 59.4238 78.6133 59.8145 78.6133 60.3516ZM36.9629 49.9023L36.9629 55.0781C36.9629 55.7129 36.4258 56.25 35.791 56.25L30.4688 56.25C29.7852 56.25 29.3457 55.7129 29.3457 55.0781L29.3457 49.9023C29.3457 49.2188 29.7852 48.7305 30.4688 48.7305L35.791 48.7305C36.4258 48.7305 36.9629 49.2188 36.9629 49.9023ZM51.6113 49.9023L51.6113 55.0781C51.6113 55.7129 51.123 56.25 50.4395 56.25L45.1172 56.25C44.4336 56.25 43.9941 55.7129 43.9941 55.0781L43.9941 49.9023C43.9941 49.2188 44.4336 48.7305 45.1172 48.7305L50.4395 48.7305C51.123 48.7305 51.6113 49.2188 51.6113 49.9023ZM78.6133 49.1699L78.6133 53.6133C78.6133 54.1504 78.2227 54.541 77.7344 54.541L73.1445 54.541C72.5586 54.541 72.168 54.1504 72.168 53.6133L72.168 49.1699C72.168 48.6816 72.5586 48.2422 73.1445 48.2422L77.7344 48.2422C78.2227 48.2422 78.6133 48.6816 78.6133 49.1699ZM36.9629 37.5977L36.9629 42.7734C36.9629 43.457 36.4258 43.9453 35.791 43.9453L30.4688 43.9453C29.7852 43.9453 29.3457 43.457 29.3457 42.7734L29.3457 37.5977C29.3457 36.9141 29.7852 36.4258 30.4688 36.4258L35.791 36.4258C36.4258 36.4258 36.9629 36.9141 36.9629 37.5977ZM51.6113 37.5977L51.6113 42.7734C51.6113 43.457 51.123 43.9453 50.4395 43.9453L45.1172 43.9453C44.4336 43.9453 43.9941 43.457 43.9941 42.7734L43.9941 37.5977C43.9941 36.9141 44.4336 36.4258 45.1172 36.4258L50.4395 36.4258C51.123 36.4258 51.6113 36.9141 51.6113 37.5977Z" fill="#000000" fill-opacity="0.85"/>
 </g>
</svg>
