<?xml version="1.0" encoding="UTF-8"?>
<!--Generator: Apple Native CoreSVG 232.5-->
<!DOCTYPE svg
PUBLIC "-//W3C//DTD SVG 1.1//EN"
       "http://www.w3.org/Graphics/SVG/1.1/DTD/svg11.dtd">
<svg version="1.1" xmlns="http://www.w3.org/2000/svg" xmlns:xlink="http://www.w3.org/1999/xlink" width="99.6094" height="99.6582">
 <g>
  <rect height="99.6582" opacity="0" width="99.6094" x="0" y="0"/>
  <path d="M49.8047 99.6094C77.0508 99.6094 99.6094 77.002 99.6094 49.8047C99.6094 22.5586 77.002 0 49.7559 0C22.5586 0 0 22.5586 0 49.8047C0 77.002 22.6074 99.6094 49.8047 99.6094ZM49.8047 91.3086C26.7578 91.3086 8.34961 72.8516 8.34961 49.8047C8.34961 26.7578 26.709 8.30078 49.7559 8.30078C72.8027 8.30078 91.3086 26.7578 91.3086 49.8047C91.3086 72.8516 72.8516 91.3086 49.8047 91.3086ZM49.8047 95.459C54.0527 95.459 58.1543 94.873 62.0117 93.6523L62.0117 33.1055C62.0117 29.7852 60.1074 27.5879 56.8848 27.5879L24.1211 27.5879C20.9473 27.5879 18.9941 29.7852 18.9941 33.1055L18.9941 81.8359C26.5625 90.2344 37.5 95.459 49.8047 95.459ZM30.4688 82.4219C29.7852 82.4219 29.3457 81.9336 29.3457 81.25L29.3457 76.0742C29.3457 75.3906 29.7852 74.9023 30.4688 74.9023L35.791 74.9023C36.4258 74.9023 36.9629 75.3906 36.9629 76.0742L36.9629 81.25C36.9629 81.9336 36.4258 82.4219 35.791 82.4219ZM45.1172 82.4219C44.4336 82.4219 43.9941 81.9336 43.9941 81.25L43.9941 76.0742C43.9941 75.3906 44.4336 74.9023 45.1172 74.9023L50.4395 74.9023C51.123 74.9023 51.6113 75.3906 51.6113 76.0742L51.6113 81.25C51.6113 81.9336 51.123 82.4219 50.4395 82.4219ZM30.4688 69.5312C29.7852 69.5312 29.3457 69.043 29.3457 68.3594L29.3457 63.1836C29.3457 62.5488 29.7852 62.0117 30.4688 62.0117L35.791 62.0117C36.4258 62.0117 36.9629 62.5488 36.9629 63.1836L36.9629 68.3594C36.9629 69.043 36.4258 69.5312 35.791 69.5312ZM45.1172 69.5312C44.4336 69.5312 43.9941 69.043 43.9941 68.3594L43.9941 63.1836C43.9941 62.5488 44.4336 62.0117 45.1172 62.0117L50.4395 62.0117C51.123 62.0117 51.6113 62.5488 51.6113 63.1836L51.6113 68.3594C51.6113 69.043 51.123 69.5312 50.4395 69.5312ZM30.4688 56.6406C29.7852 56.6406 29.3457 56.1523 29.3457 55.4688L29.3457 50.3418C29.3457 49.6582 29.7852 49.1211 30.4688 49.1211L35.791 49.1211C36.4258 49.1211 36.9629 49.6582 36.9629 50.3418L36.9629 55.4688C36.9629 56.1523 36.4258 56.6406 35.791 56.6406ZM45.1172 56.6406C44.4336 56.6406 43.9941 56.1523 43.9941 55.4688L43.9941 50.3418C43.9941 49.6582 44.4336 49.1211 45.1172 49.1211L50.4395 49.1211C51.123 49.1211 51.6113 49.6582 51.6113 50.3418L51.6113 55.4688C51.6113 56.1523 51.123 56.6406 50.4395 56.6406ZM30.4688 43.8965C29.7852 43.8965 29.3457 43.3594 29.3457 42.7246L29.3457 37.5488C29.3457 36.8164 29.7852 36.377 30.4688 36.377L35.791 36.377C36.4258 36.377 36.9629 36.8164 36.9629 37.5488L36.9629 42.7246C36.9629 43.3594 36.4258 43.8965 35.791 43.8965ZM45.1172 43.8965C44.4336 43.8965 43.9941 43.3594 43.9941 42.7246L43.9941 37.5488C43.9941 36.8164 44.4336 36.377 45.1172 36.377L50.4395 36.377C51.123 36.377 51.6113 36.8164 51.6113 37.5488L51.6113 42.7246C51.6113 43.3594 51.123 43.8965 50.4395 43.8965ZM65.8203 92.334C73.877 88.9648 80.6152 83.1543 85.1074 75.7812L85.1074 45.5566C85.1074 42.1875 83.1543 40.0391 79.9805 40.0391L65.8203 40.0391ZM73.1445 76.7578C72.5586 76.7578 72.168 76.3672 72.168 75.8789L72.168 71.4355C72.168 70.9473 72.5586 70.459 73.1445 70.459L77.7344 70.459C78.2227 70.459 78.6133 70.9473 78.6133 71.4355L78.6133 75.8789C78.6133 76.3672 78.2227 76.7578 77.7344 76.7578ZM73.1445 65.625C72.5586 65.625 72.168 65.2344 72.168 64.6484L72.168 60.3027C72.168 59.7168 72.5586 59.375 73.1445 59.375L77.7344 59.375C78.2227 59.375 78.6133 59.7168 78.6133 60.3027L78.6133 64.6484C78.6133 65.2344 78.2227 65.625 77.7344 65.625ZM73.1445 54.4922C72.5586 54.4922 72.168 54.1016 72.168 53.5156L72.168 49.1211C72.168 48.584 72.5586 48.1934 73.1445 48.1934L77.7344 48.1934C78.2227 48.1934 78.6133 48.584 78.6133 49.1211L78.6133 53.5156C78.6133 54.1016 78.2227 54.4922 77.7344 54.4922Z" fill="#000000" fill-opacity="0.85"/>
 </g>
</svg>
