<?xml version="1.0" encoding="UTF-8"?>
<!--Generator: Apple Native CoreSVG 232.5-->
<!DOCTYPE svg
PUBLIC "-//W3C//DTD SVG 1.1//EN"
       "http://www.w3.org/Graphics/SVG/1.1/DTD/svg11.dtd">
<svg version="1.1" xmlns="http://www.w3.org/2000/svg" xmlns:xlink="http://www.w3.org/1999/xlink" width="105.029" height="101.807">
 <g>
  <rect height="101.807" opacity="0" width="105.029" x="0" y="0"/>
  <path d="M0 97.8516C0 100 1.75781 101.807 3.90625 101.807L101.074 101.807C103.223 101.807 105.029 100 105.029 97.8516C105.029 95.7031 103.223 93.9453 101.074 93.9453L3.90625 93.9453C1.75781 93.9453 0 95.7031 0 97.8516ZM8.54492 41.9434C8.54492 43.9453 9.66797 45.0684 11.6699 45.0684L24.1699 45.0684C26.1719 45.0684 27.3438 43.9453 27.3438 41.9434L27.3438 40.7715C27.3438 38.8672 26.1719 37.6953 24.1699 37.6953L11.6699 37.6953C9.66797 37.6953 8.54492 38.8672 8.54492 40.7715ZM14.2578 83.6914L21.6309 83.6914L21.6309 42.4316L14.2578 42.4316ZM8.54492 86.5234C8.54492 88.5254 9.66797 89.6484 11.6699 89.6484L24.1699 89.6484C26.1719 89.6484 27.3438 88.5254 27.3438 86.5234L27.3438 85.3516C27.3438 83.4473 26.1719 82.2754 24.1699 82.2754L11.6699 82.2754C9.66797 82.2754 8.54492 83.4473 8.54492 85.3516ZM31.7383 41.9434C31.7383 43.9453 32.9102 45.0684 34.8633 45.0684L47.4121 45.0684C49.3652 45.0684 50.5371 43.9453 50.5371 41.9434L50.5371 40.7715C50.5371 38.8672 49.3652 37.6953 47.4121 37.6953L34.8633 37.6953C32.9102 37.6953 31.7383 38.8672 31.7383 40.7715ZM37.5 83.6914L44.873 83.6914L44.873 42.4316L37.5 42.4316ZM31.7383 86.5234C31.7383 88.5254 32.9102 89.6484 34.8633 89.6484L47.4121 89.6484C49.3652 89.6484 50.5371 88.5254 50.5371 86.5234L50.5371 85.3516C50.5371 83.4473 49.3652 82.2754 47.4121 82.2754L34.8633 82.2754C32.9102 82.2754 31.7383 83.4473 31.7383 85.3516ZM54.9805 41.9434C54.9805 43.9453 56.1523 45.0684 58.1055 45.0684L70.6543 45.0684C72.6074 45.0684 73.7793 43.9453 73.7793 41.9434L73.7793 40.7715C73.7793 38.8672 72.6074 37.6953 70.6543 37.6953L58.1055 37.6953C56.1523 37.6953 54.9805 38.8672 54.9805 40.7715ZM60.7422 83.6914L68.1152 83.6914L68.1152 42.4316L60.7422 42.4316ZM54.9805 86.5234C54.9805 88.5254 56.1523 89.6484 58.1055 89.6484L70.6543 89.6484C72.6074 89.6484 73.7793 88.5254 73.7793 86.5234L73.7793 85.3516C73.7793 83.4473 72.6074 82.2754 70.6543 82.2754L58.1055 82.2754C56.1523 82.2754 54.9805 83.4473 54.9805 85.3516ZM78.2227 41.9434C78.2227 43.9453 79.3457 45.0684 81.3477 45.0684L93.8477 45.0684C95.8496 45.0684 96.9727 43.9453 96.9727 41.9434L96.9727 40.7715C96.9727 38.8672 95.8496 37.6953 93.8477 37.6953L81.3477 37.6953C79.3457 37.6953 78.2227 38.8672 78.2227 40.7715ZM83.9355 83.6914L91.3086 83.6914L91.3086 42.4316L83.9355 42.4316ZM78.2227 86.5234C78.2227 88.5254 79.3457 89.6484 81.3477 89.6484L93.8477 89.6484C95.8496 89.6484 96.9727 88.5254 96.9727 86.5234L96.9727 85.3516C96.9727 83.4473 95.8496 82.2754 93.8477 82.2754L81.3477 82.2754C79.3457 82.2754 78.2227 83.4473 78.2227 85.3516ZM6.44531 33.4473L98.5352 33.4473C101.221 33.4473 102.783 31.4941 102.783 29.4922C102.783 28.0273 102.002 26.7578 100.195 25.7324L58.4961 1.70898C56.543 0.585938 54.4922 0 52.4902 0C50.4883 0 48.4375 0.585938 46.4844 1.70898L4.78516 25.7324C2.97852 26.7578 2.19727 28.0273 2.19727 29.4922C2.19727 31.4941 3.71094 33.4473 6.44531 33.4473Z" fill="#000000" fill-opacity="0.85"/>
 </g>
</svg>
