<?xml version="1.0" encoding="UTF-8"?>
<!--Generator: Apple Native CoreSVG 232.5-->
<!DOCTYPE svg
PUBLIC "-//W3C//DTD SVG 1.1//EN"
       "http://www.w3.org/Graphics/SVG/1.1/DTD/svg11.dtd">
<svg version="1.1" xmlns="http://www.w3.org/2000/svg" xmlns:xlink="http://www.w3.org/1999/xlink" width="114.844" height="104.15">
 <g>
  <rect height="104.15" opacity="0" width="114.844" x="0" y="0"/>
  <path d="M114.844 32.959L114.844 95.2637C114.844 100.684 111.719 104.15 106.787 104.15L69.6777 104.15C74.2906 104.15 77.3228 101.117 77.6944 96.2891L104.199 96.2891C106.104 96.2891 106.982 95.3613 106.982 93.457L106.982 34.7656C106.982 32.8613 106.104 31.9336 104.199 31.9336L77.7344 31.9336L77.7344 24.0723L106.787 24.0723C111.719 24.0723 114.844 27.5391 114.844 32.959ZM97.9492 78.9551L97.9492 86.5723C97.9492 87.5488 97.2656 88.2324 96.2891 88.2324L88.4277 88.2324C87.4023 88.2324 86.8164 87.5488 86.8164 86.5723L86.8164 78.9551C86.8164 77.9785 87.4023 77.2949 88.4277 77.2949L96.2891 77.2949C97.2656 77.2949 97.9492 77.9785 97.9492 78.9551ZM97.9492 60.3027L97.9492 67.9199C97.9492 68.8965 97.2656 69.5801 96.2891 69.5801L88.4277 69.5801C87.4023 69.5801 86.8164 68.8965 86.8164 67.9199L86.8164 60.3027C86.8164 59.3262 87.4023 58.6426 88.4277 58.6426L96.2891 58.6426C97.2656 58.6426 97.9492 59.3262 97.9492 60.3027ZM97.9492 41.6504L97.9492 49.2676C97.9492 50.2441 97.2656 50.9277 96.2891 50.9277L88.4277 50.9277C87.4023 50.9277 86.8164 50.2441 86.8164 49.2676L86.8164 41.6504C86.8164 40.6738 87.4023 39.9902 88.4277 39.9902L96.2891 39.9902C97.2656 39.9902 97.9492 40.6738 97.9492 41.6504Z" fill="#000000" fill-opacity="0.85"/>
  <path d="M0 95.2637C0 100.684 3.125 104.15 8.10547 104.15L69.6777 104.15C74.6094 104.15 77.7344 100.684 77.7344 95.2637L77.7344 8.93555C77.7344 3.51562 74.6094 0.0488281 69.6777 0.0488281L8.10547 0.0488281C3.125 0.0488281 0 3.51562 0 8.93555ZM7.86133 93.457L7.86133 10.7422C7.86133 8.78906 8.74023 7.91016 10.6934 7.91016L67.0898 7.91016C68.9941 7.91016 69.873 8.78906 69.873 10.7422L69.873 93.457C69.873 95.3613 68.9941 96.2891 67.0898 96.2891L10.6934 96.2891C8.74023 96.2891 7.86133 95.3613 7.86133 93.457ZM21.875 100L28.2715 100L28.2715 83.6914C28.2715 82.666 28.8086 82.1289 29.834 82.1289L47.9004 82.1289C48.9746 82.1289 49.4629 82.666 49.4629 83.6914L49.4629 100L55.8594 100L55.8594 81.8848C55.8594 77.6855 54.0039 75.7324 50 75.7324L27.7344 75.7324C23.7305 75.7324 21.875 77.6855 21.875 81.8848ZM22.6562 29.248L32.1777 29.248C33.3496 29.248 34.1797 28.4668 34.1797 27.2461L34.1797 18.0176C34.1797 16.8457 33.3496 16.0156 32.1777 16.0156L22.6562 16.0156C21.4844 16.0156 20.752 16.8457 20.752 18.0176L20.752 27.2461C20.752 28.4668 21.4844 29.248 22.6562 29.248ZM45.5566 29.248L55.0293 29.248C56.2012 29.248 57.0312 28.4668 57.0312 27.2461L57.0312 18.0176C57.0312 16.8457 56.2012 16.0156 55.0293 16.0156L45.5566 16.0156C44.3359 16.0156 43.6035 16.8457 43.6035 18.0176L43.6035 27.2461C43.6035 28.4668 44.3359 29.248 45.5566 29.248ZM22.6562 48.584L32.1777 48.584C33.3496 48.584 34.1797 47.8027 34.1797 46.582L34.1797 37.3535C34.1797 36.1816 33.3496 35.3516 32.1777 35.3516L22.6562 35.3516C21.4844 35.3516 20.752 36.1816 20.752 37.3535L20.752 46.582C20.752 47.8027 21.4844 48.584 22.6562 48.584ZM45.5566 48.584L55.0293 48.584C56.2012 48.584 57.0312 47.8027 57.0312 46.582L57.0312 37.3535C57.0312 36.1816 56.2012 35.3516 55.0293 35.3516L45.5566 35.3516C44.3359 35.3516 43.6035 36.1816 43.6035 37.3535L43.6035 46.582C43.6035 47.8027 44.3359 48.584 45.5566 48.584ZM22.6562 67.9199L32.1777 67.9199C33.3496 67.9199 34.1797 67.0898 34.1797 65.918L34.1797 56.6895C34.1797 55.4688 33.3496 54.6875 32.1777 54.6875L22.6562 54.6875C21.4844 54.6875 20.752 55.4688 20.752 56.6895L20.752 65.918C20.752 67.0898 21.4844 67.9199 22.6562 67.9199ZM45.5566 67.9199L55.0293 67.9199C56.2012 67.9199 57.0312 67.0898 57.0312 65.918L57.0312 56.6895C57.0312 55.4688 56.2012 54.6875 55.0293 54.6875L45.5566 54.6875C44.3359 54.6875 43.6035 55.4688 43.6035 56.6895L43.6035 65.918C43.6035 67.0898 44.3359 67.9199 45.5566 67.9199Z" fill="#000000" fill-opacity="0.85"/>
 </g>
</svg>
