<?xml version="1.0" encoding="UTF-8"?>
<!--Generator: Apple Native CoreSVG 232.5-->
<!DOCTYPE svg
PUBLIC "-//W3C//DTD SVG 1.1//EN"
       "http://www.w3.org/Graphics/SVG/1.1/DTD/svg11.dtd">
<svg version="1.1" xmlns="http://www.w3.org/2000/svg" xmlns:xlink="http://www.w3.org/1999/xlink" width="99.6094" height="99.6582">
 <g>
  <rect height="99.6582" opacity="0" width="99.6094" x="0" y="0"/>
  <path d="M49.8047 99.6094C77.0508 99.6094 99.6094 77.002 99.6094 49.8047C99.6094 22.5586 77.002 0 49.7559 0C22.5586 0 0 22.5586 0 49.8047C0 77.002 22.6074 99.6094 49.8047 99.6094ZM49.8047 91.3086C26.7578 91.3086 8.34961 72.8516 8.34961 49.8047C8.34961 26.7578 26.709 8.30078 49.7559 8.30078C72.8027 8.30078 91.3086 26.7578 91.3086 49.8047C91.3086 72.8516 72.8516 91.3086 49.8047 91.3086Z" fill="#000000" fill-opacity="0.85"/>
  <path d="M23.9746 36.5234C23.9746 37.5977 24.8047 38.623 26.1719 38.623L73.3887 38.623C74.7559 38.623 75.5859 37.5977 75.5859 36.5234C75.5859 35.791 75.1953 35.1074 74.2188 34.5703L52.8809 22.3145C51.8555 21.6797 50.8301 21.3867 49.7559 21.3867C48.6816 21.3867 47.7051 21.6797 46.6797 22.3145L25.293 34.5703C24.3652 35.1074 23.9746 35.791 23.9746 36.5234ZM27.1973 64.8438C27.1973 65.8691 27.832 66.5039 28.9062 66.5039L35.3027 66.5039C36.3281 66.5039 36.9629 65.8691 36.9629 64.8438L36.9629 64.209C36.9629 63.2812 36.3281 62.5488 35.3027 62.5488L34.082 62.5488L34.082 45.5078L35.3027 45.5078C36.3281 45.5078 36.9629 44.9219 36.9629 43.8965L36.9629 43.2617C36.9629 42.2363 36.3281 41.6016 35.3027 41.6016L28.9062 41.6016C27.832 41.6016 27.1973 42.2363 27.1973 43.2617L27.1973 43.8965C27.1973 44.9219 27.832 45.5078 28.9062 45.5078L30.127 45.5078L30.127 62.5488L28.9062 62.5488C27.832 62.5488 27.1973 63.2812 27.1973 64.209ZM39.1113 64.8438C39.1113 65.8691 39.6973 66.5039 40.7227 66.5039L47.168 66.5039C48.2422 66.5039 48.877 65.8691 48.877 64.8438L48.877 64.209C48.877 63.2812 48.1934 62.5488 47.168 62.5488L45.9473 62.5488L45.9473 45.5078L47.168 45.5078C48.2422 45.5078 48.877 44.9219 48.877 43.8965L48.877 43.2617C48.877 42.2363 48.1934 41.6016 47.168 41.6016L40.7227 41.6016C39.6973 41.6016 39.1113 42.2363 39.1113 43.2617L39.1113 43.8965C39.1113 44.9219 39.6973 45.5078 40.7227 45.5078L41.9922 45.5078L41.9922 62.5488L40.7227 62.5488C39.6973 62.5488 39.1113 63.2812 39.1113 64.209ZM50.9766 64.8438C50.9766 65.8691 51.6113 66.5039 52.6855 66.5039L59.082 66.5039C60.0586 66.5039 60.791 65.8691 60.791 64.8438L60.791 64.209C60.791 63.2812 60.0586 62.5488 59.082 62.5488L57.8125 62.5488L57.8125 45.5078L59.082 45.5078C60.0586 45.5078 60.791 44.9219 60.791 43.8965L60.791 43.2617C60.791 42.2363 60.0586 41.6016 59.082 41.6016L52.6855 41.6016C51.6113 41.6016 50.9766 42.2363 50.9766 43.2617L50.9766 43.8965C50.9766 44.9219 51.6113 45.5078 52.6855 45.5078L53.9062 45.5078L53.9062 62.5488L52.6855 62.5488C51.6113 62.5488 50.9766 63.2812 50.9766 64.209ZM62.8418 64.8438C62.8418 65.8691 63.4766 66.5039 64.5508 66.5039L70.9473 66.5039C71.9727 66.5039 72.6562 65.8691 72.6562 64.8438L72.6562 64.209C72.6562 63.2812 71.9238 62.5488 70.9473 62.5488L69.7266 62.5488L69.7266 45.5078L70.9473 45.5078C71.9727 45.5078 72.6562 44.9219 72.6562 43.8965L72.6562 43.2617C72.6562 42.2363 71.9238 41.6016 70.9473 41.6016L64.5508 41.6016C63.4766 41.6016 62.8418 42.2363 62.8418 43.2617L62.8418 43.8965C62.8418 44.9219 63.4766 45.5078 64.5508 45.5078L65.8203 45.5078L65.8203 62.5488L64.5508 62.5488C63.4766 62.5488 62.8418 63.2812 62.8418 64.209ZM22.9004 71.582C22.9004 72.7051 23.8281 73.6328 24.9512 73.6328L74.6094 73.6328C75.7324 73.6328 76.6602 72.7051 76.6602 71.582C76.6602 70.4102 75.7812 69.4824 74.6094 69.4824L24.9512 69.4824C23.8281 69.4824 22.9004 70.4102 22.9004 71.582Z" fill="#000000" fill-opacity="0.85"/>
 </g>
</svg>
