<?xml version="1.0" encoding="UTF-8"?>
<!--Generator: Apple Native CoreSVG 232.5-->
<!DOCTYPE svg
PUBLIC "-//W3C//DTD SVG 1.1//EN"
       "http://www.w3.org/Graphics/SVG/1.1/DTD/svg11.dtd">
<svg version="1.1" xmlns="http://www.w3.org/2000/svg" xmlns:xlink="http://www.w3.org/1999/xlink" width="99.6094" height="99.6582">
 <g>
  <rect height="99.6582" opacity="0" width="99.6094" x="0" y="0"/>
  <path d="M0 49.8047C0 77.002 22.6074 99.6094 49.8047 99.6094C77.0508 99.6094 99.6094 77.002 99.6094 49.8047C99.6094 22.5586 77.002 0 49.7559 0C22.5586 0 0 22.5586 0 49.8047ZM8.34961 49.8047L49.707 49.8047L29.0039 13.8184C35.0586 10.2539 42.1875 8.30078 49.7559 8.30078C57.3242 8.30078 64.4531 10.2539 70.5078 13.8184L49.707 49.8047L91.3086 49.8047C91.3574 65.2832 83.0078 78.7109 70.5566 85.791L49.707 49.8047L29.0039 85.7422C16.6016 78.6133 8.34961 65.2344 8.34961 49.8047Z" fill="#000000" fill-opacity="0.85"/>
 </g>
</svg>
