<?xml version="1.0" encoding="UTF-8"?>
<!--Generator: Apple Native CoreSVG 232.5-->
<!DOCTYPE svg
PUBLIC "-//W3C//DTD SVG 1.1//EN"
       "http://www.w3.org/Graphics/SVG/1.1/DTD/svg11.dtd">
<svg version="1.1" xmlns="http://www.w3.org/2000/svg" xmlns:xlink="http://www.w3.org/1999/xlink" width="126.562" height="119.971">
 <g>
  <rect height="119.971" opacity="0" width="126.562" x="0" y="0"/>
  <path d="M122.217 64.3066C125.146 62.8906 126.562 60.8887 126.562 58.8379C126.562 56.8359 125.146 54.9805 122.217 53.9551L98.4375 45.752L108.643 24.9023C109.131 23.8281 109.375 22.7539 109.375 21.7773C109.375 18.9453 107.227 16.8457 104.395 16.8457C103.418 16.8457 102.393 17.041 101.318 17.5781L79.7363 28.125L68.5059 4.05273C67.2852 1.36719 65.2832 0 63.2812 0C61.2793 0 59.3262 1.36719 58.0566 4.05273L46.875 28.125L25.2441 17.5781C24.1699 17.041 23.1445 16.8457 22.168 16.8457C19.3359 16.8457 17.1875 18.9453 17.1875 21.7773C17.1875 22.7539 17.4316 23.8281 17.9688 24.9023L28.125 45.752L4.3457 53.9551C1.46484 54.9316 0 56.8848 0 58.8867C0 60.8887 1.46484 62.8906 4.3457 64.3066L27.1484 75.2441L14.8438 101.318C14.2578 102.49 14.0137 103.613 14.0137 104.639C14.0137 107.178 15.7227 108.984 18.1152 108.984C19.1406 108.984 20.2637 108.643 21.4355 107.959L50.5859 90.7227L58.5938 115.43C59.4727 118.164 61.377 119.58 63.2812 119.58C65.2344 119.58 67.0898 118.164 67.9688 115.43L76.0254 90.7227L105.127 107.959C106.299 108.643 107.422 108.936 108.447 108.936C110.791 108.936 112.598 107.227 112.598 104.688C112.598 103.662 112.305 102.49 111.719 101.318L99.4141 75.2441ZM116.113 58.9355L116.113 59.2773L91.1133 70.2148C90.1855 70.6055 89.6973 71.2402 89.6973 72.0215C89.6973 72.3145 89.8438 72.7051 90.0391 73.0469L102.881 98.9746L102.637 99.2676L73.877 81.1035C73.4375 80.8594 72.998 80.6641 72.6074 80.6641C71.8262 80.6641 71.1914 81.25 70.9473 82.2266L63.4277 107.52L63.1348 107.52L55.6641 82.2266C55.3711 81.25 54.7363 80.6641 53.9551 80.6641C53.5645 80.6641 53.125 80.8594 52.6855 81.1035L23.9746 99.2676L23.6816 98.9746L36.5234 73.0469C36.7676 72.7051 36.8652 72.3145 36.8652 72.0215C36.8652 71.2402 36.377 70.6055 35.498 70.2148L10.4492 59.2773L10.4492 58.9355L36.4258 50.9277C37.4023 50.6348 37.9395 50 37.9395 49.2188C37.9395 48.8281 37.8418 48.4375 37.5977 48.0469L25.9277 25.7812L26.1719 25.5371L48.6328 37.3535C49.0234 37.5977 49.4141 37.6953 49.8047 37.6953C50.5371 37.6953 51.123 37.2559 51.4648 36.377L63.1348 10.2539L63.4277 10.2539L75.0977 36.377C75.4395 37.2559 76.0254 37.6953 76.7578 37.6953C77.1484 37.6953 77.5391 37.5977 77.9785 37.3535L100.391 25.5371L100.635 25.7812L88.9648 48.0469C88.7207 48.4375 88.623 48.8281 88.623 49.2188C88.623 50 89.1602 50.6348 90.1367 50.9277Z" fill="#000000" fill-opacity="0.85"/>
 </g>
</svg>
