<?xml version="1.0" encoding="UTF-8"?>
<!--Generator: Apple Native CoreSVG 232.5-->
<!DOCTYPE svg
PUBLIC "-//W3C//DTD SVG 1.1//EN"
       "http://www.w3.org/Graphics/SVG/1.1/DTD/svg11.dtd">
<svg version="1.1" xmlns="http://www.w3.org/2000/svg" xmlns:xlink="http://www.w3.org/1999/xlink" width="126.367" height="87.8637">
 <g>
  <rect height="87.8637" opacity="0" width="126.367" x="0" y="0"/>
  <path d="M0 49.4738C0 59.923 1.70898 64.7082 9.47266 68.7121L36.9629 82.8234C47.0703 88.048 54.2969 89.3664 65.625 86.0461L107.91 73.7414C120.947 69.884 126.367 62.1203 126.367 49.4738L126.367 19.0051C126.367 10.1672 120.508 4.16132 111.719 4.16132L14.7461 4.11249C5.95703 4.11249 0 10.0695 0 18.8586ZM7.86133 49.4738L7.86133 19.0051C7.86133 14.757 10.6445 11.9738 14.8926 11.9738L111.621 12.0226C115.771 12.0226 118.506 14.8547 118.506 19.1516L118.506 49.4738C118.506 58.3605 114.844 63.6828 105.664 66.3683L65.625 78.2336C55.4688 81.2609 49.5605 80.382 41.1621 76.134L14.4531 62.5109C9.22852 59.8742 7.86133 56.7004 7.86133 49.4738Z" fill="#000000" fill-opacity="0.85"/>
 </g>
</svg>
