<?xml version="1.0" encoding="UTF-8"?>
<!--Generator: Apple Native CoreSVG 232.5-->
<!DOCTYPE svg
PUBLIC "-//W3C//DTD SVG 1.1//EN"
       "http://www.w3.org/Graphics/SVG/1.1/DTD/svg11.dtd">
<svg version="1.1" xmlns="http://www.w3.org/2000/svg" xmlns:xlink="http://www.w3.org/1999/xlink" width="86.8652" height="104.932">
 <g>
  <rect height="104.932" opacity="0" width="86.8652" x="0" y="0"/>
  <path d="M57.7637 104.883C75.4395 104.883 86.8652 93.5059 86.8652 75.8301L86.8652 51.7578C86.8652 45.0684 84.7656 39.6973 80.6152 35.8887L49.8047 7.51953C43.75 2.00195 37.3535 0 29.7363 0L14.6484 0C5.85938 0 0 5.95703 0 14.7949L0 90.2344C0 99.4141 5.56641 104.883 14.7949 104.883ZM57.6172 97.0215L14.9902 97.0215C9.86328 97.0215 7.86133 95.2637 7.86133 90.0879L7.86133 14.8926C7.86133 10.6934 10.5957 7.86133 14.8438 7.86133L29.541 7.86133C35.5957 7.86133 40.0391 9.32617 44.3848 13.2812L75.1465 41.5527C77.832 43.9941 79.0039 46.9727 79.0039 51.8555L79.0039 75.6836C79.0039 89.3555 71.2402 97.0215 57.6172 97.0215Z" fill="#000000" fill-opacity="0.85"/>
 </g>
</svg>
