<?xml version="1.0" encoding="UTF-8"?>
<!--Generator: Apple Native CoreSVG 232.5-->
<!DOCTYPE svg
PUBLIC "-//W3C//DTD SVG 1.1//EN"
       "http://www.w3.org/Graphics/SVG/1.1/DTD/svg11.dtd">
<svg version="1.1" xmlns="http://www.w3.org/2000/svg" xmlns:xlink="http://www.w3.org/1999/xlink" width="121.484" height="132.666">
 <g>
  <rect height="132.666" opacity="0" width="121.484" x="0" y="0"/>
  <path d="M121.484 32.8125L121.484 99.707C121.484 114.502 112.451 125.684 97.8516 125.684C97.8422 125.684 97.8329 125.684 97.8242 125.682C104.798 119.794 108.838 110.503 108.838 99.707L108.838 32.8125C108.838 21.9974 104.804 12.7173 97.8418 6.83641C97.8449 6.83594 97.8482 6.83594 97.8516 6.83594C112.451 6.83594 121.484 18.0176 121.484 32.8125Z" fill="#000000" fill-opacity="0.85"/>
  <path d="M102.197 32.8125L102.197 99.707C102.197 114.893 92.9199 125.83 78.4668 125.83C63.9648 125.83 54.6875 114.893 54.6875 99.707L54.6875 87.1308L69.1895 74.2188C74.2188 69.7754 74.1699 62.6465 69.1895 58.252L54.6875 45.3347L54.6875 32.8125C54.6875 17.5781 63.9648 6.64062 78.4668 6.64062C92.9199 6.64062 102.197 17.5781 102.197 32.8125Z" fill="#000000" fill-opacity="0.85"/>
  <path d="M64.7949 69.2383C66.8457 67.4316 66.7969 64.9902 64.7949 63.2324L50 50.0977C47.0215 47.4609 42.9688 49.1699 42.9688 53.1738L42.9688 62.1094L16.6016 62.1094C14.209 62.1094 12.4023 63.916 12.4023 66.3086C12.4023 68.6035 14.209 70.459 16.6016 70.459L42.9688 70.459L42.9688 79.2969C42.9688 83.4473 47.168 84.9121 50 82.3242Z" fill="#000000" fill-opacity="0.85"/>
 </g>
</svg>
