<?xml version="1.0" encoding="UTF-8"?>
<!--Generator: Apple Native CoreSVG 232.5-->
<!DOCTYPE svg
PUBLIC "-//W3C//DTD SVG 1.1//EN"
       "http://www.w3.org/Graphics/SVG/1.1/DTD/svg11.dtd">
<svg version="1.1" xmlns="http://www.w3.org/2000/svg" xmlns:xlink="http://www.w3.org/1999/xlink" width="132.52" height="129.443">
 <g>
  <rect height="129.443" opacity="0" width="132.52" x="0" y="0"/>
  <path d="M99.707 115.771L32.8125 115.771C18.0506 115.771 6.93442 106.73 6.88935 92.1851C12.7745 99.1162 22.0307 103.125 32.8125 103.125L99.707 103.125C110.522 103.125 119.801 99.0919 125.682 92.1206C125.667 106.703 114.491 115.771 99.707 115.771Z" fill="#000000" fill-opacity="0.85"/>
  <path d="M125.83 72.7051C125.83 87.207 114.941 96.4355 99.707 96.4355L32.8125 96.4355C17.5781 96.4355 6.68945 87.207 6.68945 72.7051C6.68945 58.2031 17.5781 48.9746 32.8125 48.9746L45.3773 48.9746L58.252 63.4766C62.6465 68.4082 69.7754 68.457 74.2188 63.4766L87.088 48.9746L99.707 48.9746C114.941 48.9746 125.83 58.2031 125.83 72.7051Z" fill="#000000" fill-opacity="0.85"/>
  <path d="M69.2383 59.0332L82.3242 44.2871C84.9121 41.4551 83.4473 37.2559 79.2969 37.2559L70.459 37.2559L70.459 10.8398C70.459 8.49609 68.6035 6.68945 66.3086 6.68945C63.916 6.68945 62.1094 8.49609 62.1094 10.8398L62.1094 37.2559L53.1738 37.2559C49.2188 37.2559 47.5098 41.3086 50.0977 44.2871L63.2324 59.0332C64.9902 61.084 67.4805 61.084 69.2383 59.0332Z" fill="#000000" fill-opacity="0.85"/>
 </g>
</svg>
