<?xml version="1.0" encoding="UTF-8"?>
<!--Generator: Apple Native CoreSVG 232.5-->
<!DOCTYPE svg
PUBLIC "-//W3C//DTD SVG 1.1//EN"
       "http://www.w3.org/Graphics/SVG/1.1/DTD/svg11.dtd">
<svg version="1.1" xmlns="http://www.w3.org/2000/svg" xmlns:xlink="http://www.w3.org/1999/xlink" width="86.8652" height="104.932">
 <g>
  <rect height="104.932" opacity="0" width="86.8652" x="0" y="0"/>
  <path d="M29.0527 104.883L71.9727 104.883C81.25 104.883 86.8164 99.4141 86.8164 90.2344L86.8652 14.7949C86.8652 5.95703 80.9082 0 72.1191 0L57.1289 0C49.4629 0 43.0664 2.00195 37.0605 7.51953L6.20117 35.8887C2.05078 39.6973 0 45.0684 0 51.7578L0 75.8301C0 93.5059 11.377 104.883 29.0527 104.883ZM29.248 97.0215C15.5762 97.0215 7.86133 89.3555 7.86133 75.6836L7.86133 51.8555C7.86133 46.9727 8.98438 43.9941 11.6699 41.5527L42.4805 13.2812C46.8262 9.32617 51.2695 7.86133 57.3242 7.86133L71.9727 7.86133C76.2207 7.86133 79.0039 10.6934 79.0039 14.8926L78.9551 90.0879C78.9551 95.2637 76.9043 97.0215 71.8262 97.0215Z" fill="#000000" fill-opacity="0.85"/>
 </g>
</svg>
