<?xml version="1.0" encoding="UTF-8"?>
<!--Generator: Apple Native CoreSVG 232.5-->
<!DOCTYPE svg
PUBLIC "-//W3C//DTD SVG 1.1//EN"
       "http://www.w3.org/Graphics/SVG/1.1/DTD/svg11.dtd">
<svg version="1.1" xmlns="http://www.w3.org/2000/svg" xmlns:xlink="http://www.w3.org/1999/xlink" width="89.8926" height="89.9902">
 <g>
  <rect height="89.9902" opacity="0" width="89.8926" x="0" y="0"/>
  <path d="M89.8926 15.2344L89.8926 74.8535C89.8926 84.9121 84.8145 89.9902 74.5605 89.9902L15.332 89.9902C5.12695 89.9902 0 84.9609 0 74.8535L0 15.2344C0 5.12695 5.12695 0.0976562 15.332 0.0976562L74.5605 0.0976562C84.8145 0.0976562 89.8926 5.17578 89.8926 15.2344ZM16.4551 45.0195C16.4551 60.6445 29.541 73.7305 45.1172 73.7305C60.8398 73.7305 73.8281 60.6934 73.8281 45.0195C73.8281 29.3945 60.7422 16.3086 45.1172 16.3086C29.4434 16.3086 16.4551 29.3457 16.4551 45.0195ZM66.748 45.0195C66.748 56.7871 56.8848 66.6016 45.1172 66.6016C33.4473 66.6016 23.5352 56.7383 23.5352 45.0195C23.5352 33.252 33.3984 23.4375 45.1172 23.4375C56.8359 23.4375 66.748 33.3008 66.748 45.0195ZM28.7598 45.0195C28.7598 53.8574 36.2793 61.4258 45.1172 61.4258C54.0527 61.4258 61.5234 53.9062 61.5234 45.0195C61.5234 36.1816 54.0039 28.6133 45.1172 28.6133C36.2305 28.6133 28.7598 36.1328 28.7598 45.0195Z" fill="#000000" fill-opacity="0.85"/>
 </g>
</svg>
