<?xml version="1.0" encoding="UTF-8"?>
<!--Generator: Apple Native CoreSVG 232.5-->
<!DOCTYPE svg
PUBLIC "-//W3C//DTD SVG 1.1//EN"
       "http://www.w3.org/Graphics/SVG/1.1/DTD/svg11.dtd">
<svg version="1.1" xmlns="http://www.w3.org/2000/svg" xmlns:xlink="http://www.w3.org/1999/xlink" width="119.189" height="127.783">
 <g>
  <rect height="127.783" opacity="0" width="119.189" x="0" y="0"/>
  <path d="M119.189 71.875L119.189 87.793C119.189 104.346 108.984 114.941 93.0664 114.941L26.123 114.941C10.2051 114.941 0 104.346 0 87.793L1.12861e-07 71.875C0 57.373 10.9375 48.1445 26.123 48.1445L39.8046 48.1445L46.7809 56.0059L26.123 56.0059C15.7227 56.0059 7.86133 62.207 7.86133 71.875C7.86133 81.543 15.7227 87.7441 26.123 87.7441L93.0664 87.7441C103.418 87.7441 111.328 81.543 111.328 71.875C111.328 62.207 103.418 56.0059 93.0664 56.0059L72.3777 56.0059L79.3772 48.1445L93.0664 48.1445C108.252 48.1445 119.189 57.373 119.189 71.875ZM93.0664 95.6055L26.123 95.6055C18.8245 95.6055 12.5073 93.4737 7.93262 89.6308C8.64024 100.3 15.6318 107.08 26.123 107.08L93.0664 107.08C103.558 107.08 110.549 100.3 111.257 89.6308C106.682 93.4737 100.365 95.6055 93.0664 95.6055Z" fill="#000000" fill-opacity="0.85"/>
  <path d="M63.2324 58.7402L76.3184 43.9453C79.3457 40.5762 77.4902 35.5957 72.6074 35.5957L64.5996 35.5957L64.5996 10.0098C64.5996 7.22656 62.4023 5.0293 59.6191 5.0293C56.8359 5.0293 54.6387 7.22656 54.6387 10.0098L54.6387 35.5957L46.5332 35.5957C41.8457 35.5957 39.7461 40.4297 42.8223 43.9453L55.9082 58.7402C58.0078 61.1328 61.084 61.1816 63.2324 58.7402Z" fill="#000000" fill-opacity="0.85"/>
 </g>
</svg>
