<?xml version="1.0" encoding="UTF-8"?>
<!--Generator: Apple Native CoreSVG 232.5-->
<!DOCTYPE svg
PUBLIC "-//W3C//DTD SVG 1.1//EN"
       "http://www.w3.org/Graphics/SVG/1.1/DTD/svg11.dtd">
<svg version="1.1" xmlns="http://www.w3.org/2000/svg" xmlns:xlink="http://www.w3.org/1999/xlink" width="99.6094" height="99.6582">
 <g>
  <rect height="99.6582" opacity="0" width="99.6094" x="0" y="0"/>
  <path d="M99.6094 49.8047C99.6094 77.002 77.0508 99.6094 49.8047 99.6094C22.6074 99.6094 0 77.002 0 49.8047C0 22.5586 22.5586 0 49.7559 0C77.002 0 99.6094 22.5586 99.6094 49.8047ZM28.4668 49.3652C28.4668 64.0625 36.7676 73.4375 49.9023 73.4375C58.7891 73.4375 65.918 69.2383 68.3594 62.4512C68.7012 61.5234 68.7988 60.8398 68.7988 60.1074C68.7988 57.959 67.4316 56.6406 65.2832 56.6406C63.7695 56.6406 62.793 57.4219 61.9629 59.1309C59.8633 64.0625 55.6641 66.748 50 66.748C41.9922 66.748 36.6211 59.7656 36.6211 49.3652C36.6211 38.9648 41.9922 31.9336 50 31.9336C55.6641 31.9336 59.8633 34.6191 61.9629 39.5996C62.793 41.3086 63.7695 42.041 65.2832 42.041C67.4316 42.041 68.7988 40.7227 68.7988 38.5742C68.7988 37.7441 68.7012 37.1582 68.3594 36.2305C65.8691 29.4922 58.7891 25.2441 49.9023 25.2441C36.8164 25.2441 28.4668 34.668 28.4668 49.3652Z" fill="#000000" fill-opacity="0.85"/>
 </g>
</svg>
