<?xml version="1.0" encoding="UTF-8"?>
<!--Generator: Apple Native CoreSVG 232.5-->
<!DOCTYPE svg
PUBLIC "-//W3C//DTD SVG 1.1//EN"
       "http://www.w3.org/Graphics/SVG/1.1/DTD/svg11.dtd">
<svg version="1.1" xmlns="http://www.w3.org/2000/svg" xmlns:xlink="http://www.w3.org/1999/xlink" width="99.6094" height="99.6582">
 <g>
  <rect height="99.6582" opacity="0" width="99.6094" x="0" y="0"/>
  <path d="M49.8047 99.6094C77.0508 99.6094 99.6094 77.002 99.6094 49.8047C99.6094 22.5586 77.002 0 49.7559 0C22.5586 0 0 22.5586 0 49.8047C0 77.002 22.6074 99.6094 49.8047 99.6094ZM49.8047 91.3086C26.7578 91.3086 8.34961 72.8516 8.34961 49.8047C8.34961 26.7578 26.709 8.30078 49.7559 8.30078C72.8027 8.30078 91.3086 26.7578 91.3086 49.8047C91.3086 72.8516 72.8516 91.3086 49.8047 91.3086Z" fill="#000000" fill-opacity="0.85"/>
  <path d="M49.8047 72.7051C58.4473 72.7051 65.332 68.6035 67.6758 62.0117C68.0176 61.1328 68.1152 60.498 68.1152 59.7656C68.1152 57.7148 66.7969 56.4453 64.7461 56.4453C63.2812 56.4453 62.3047 57.1777 61.5234 58.8379C59.5215 63.623 55.4199 66.2598 49.9023 66.2598C42.1387 66.2598 36.9141 59.4727 36.9141 49.3652C36.9141 39.2578 42.1387 32.4219 49.9023 32.4219C55.4199 32.4219 59.5215 35.0586 61.5234 39.8926C62.3047 41.5527 63.2812 42.2363 64.7461 42.2363C66.7969 42.2363 68.1152 40.9668 68.1152 38.916C68.1152 38.1348 68.0176 37.5488 67.6758 36.6699C65.2832 30.127 58.4473 25.9766 49.8047 25.9766C37.1582 25.9766 29.0527 35.1074 29.0527 49.3652C29.0527 63.623 37.1094 72.7051 49.8047 72.7051Z" fill="#000000" fill-opacity="0.85"/>
 </g>
</svg>
