<?xml version="1.0" encoding="UTF-8"?>
<!--Generator: Apple Native CoreSVG 232.5-->
<!DOCTYPE svg
PUBLIC "-//W3C//DTD SVG 1.1//EN"
       "http://www.w3.org/Graphics/SVG/1.1/DTD/svg11.dtd">
<svg version="1.1" xmlns="http://www.w3.org/2000/svg" xmlns:xlink="http://www.w3.org/1999/xlink" width="89.8926" height="89.9902">
 <g>
  <rect height="89.9902" opacity="0" width="89.8926" x="0" y="0"/>
  <path d="M89.8926 15.2344L89.8926 74.8535C89.8926 84.9121 84.8145 89.9902 74.5605 89.9902L15.332 89.9902C5.12695 89.9902 0 84.9609 0 74.8535L0 15.2344C0 5.12695 5.12695 0.0976562 15.332 0.0976562L74.5605 0.0976562C84.8145 0.0976562 89.8926 5.17578 89.8926 15.2344ZM23.6328 44.5312C23.6328 59.2285 31.9336 68.6035 45.0684 68.6035C54.0039 68.6035 61.084 64.4043 63.5254 57.6172C63.8672 56.6895 63.9648 56.0059 63.9648 55.2734C63.9648 53.125 62.5977 51.8066 60.498 51.8066C58.9355 51.8066 57.959 52.5879 57.1289 54.2969C55.0293 59.2285 50.8301 61.9141 45.166 61.9141C37.1582 61.9141 31.7871 54.9316 31.7871 44.5312C31.7871 34.1309 37.1582 27.0996 45.166 27.0996C50.8301 27.0996 55.0293 29.7852 57.1289 34.7656C57.959 36.4746 58.9355 37.207 60.498 37.207C62.5977 37.207 63.9648 35.8887 63.9648 33.7402C63.9648 32.9102 63.8672 32.3242 63.5254 31.3965C61.084 24.6582 53.9551 20.4102 45.0684 20.4102C31.9824 20.4102 23.6328 29.834 23.6328 44.5312Z" fill="#000000" fill-opacity="0.85"/>
 </g>
</svg>
