<?xml version="1.0" encoding="UTF-8"?>
<!--Generator: Apple Native CoreSVG 232.5-->
<!DOCTYPE svg
PUBLIC "-//W3C//DTD SVG 1.1//EN"
       "http://www.w3.org/Graphics/SVG/1.1/DTD/svg11.dtd">
<svg version="1.1" xmlns="http://www.w3.org/2000/svg" xmlns:xlink="http://www.w3.org/1999/xlink" width="79.3457" height="113.916">
 <g>
  <rect height="113.916" opacity="0" width="79.3457" x="0" y="0"/>
  <path d="M11.2793 104.834L36.3281 104.834L36.3281 0L11.2793 0C4.54102 0 0 4.63867 0 11.6699L0 93.1641C0 100.195 4.54102 104.834 11.2793 104.834ZM24.4141 59.375C21.582 59.375 19.2383 57.0801 19.2383 54.248C19.2383 51.3672 21.582 49.0723 24.4141 49.0723C27.2461 49.0723 29.5898 51.3672 29.5898 54.248C29.5898 57.0801 27.2461 59.375 24.4141 59.375ZM68.0664 104.834C74.8047 104.834 79.3457 100.195 79.3457 93.1641L79.3457 11.6699C79.3457 4.63867 74.8047 0 68.0664 0L43.0176 0L43.0176 104.834ZM54.8828 59.375C52.0508 59.375 49.707 57.0801 49.707 54.248C49.707 51.3672 52.0508 49.0723 54.8828 49.0723C57.7148 49.0723 60.0586 51.3672 60.0586 54.248C60.0586 57.0801 57.7148 59.375 54.8828 59.375ZM14.3066 113.867C16.748 113.867 18.3594 112.207 18.3594 109.766L18.3594 99.9512L10.2539 99.9512L10.2539 109.766C10.2539 112.207 11.8652 113.867 14.3066 113.867ZM65.0391 113.867C67.4805 113.867 69.0918 112.207 69.0918 109.766L69.0918 99.9512L60.9863 99.9512L60.9863 109.766C60.9863 112.207 62.5977 113.867 65.0391 113.867Z" fill="#000000" fill-opacity="0.85"/>
 </g>
</svg>
