<?xml version="1.0" encoding="UTF-8"?>
<!--Generator: Apple Native CoreSVG 232.5-->
<!DOCTYPE svg
PUBLIC "-//W3C//DTD SVG 1.1//EN"
       "http://www.w3.org/Graphics/SVG/1.1/DTD/svg11.dtd">
<svg version="1.1" xmlns="http://www.w3.org/2000/svg" xmlns:xlink="http://www.w3.org/1999/xlink" width="79.3457" height="111.963">
 <g>
  <rect height="111.963" opacity="0" width="79.3457" x="0" y="0"/>
  <path d="M11.2793 102.881L68.0664 102.881C74.8047 102.881 79.3457 98.2422 79.3457 91.2109L79.3457 11.6699C79.3457 4.63867 74.8047 0 68.0664 0L11.2793 0C4.54102 0 0 4.63867 0 11.6699L0 91.2109C0 98.2422 4.54102 102.881 11.2793 102.881ZM11.6699 95.0195C9.375 95.0195 7.86133 93.5059 7.86133 91.1621L7.86133 11.7188C7.86133 9.375 9.375 7.86133 11.6699 7.86133L67.6758 7.86133C69.9707 7.86133 71.4844 9.375 71.4844 11.7188L71.4844 91.1621C71.4844 93.5059 69.9707 95.0195 67.6758 95.0195ZM36.4746 98.6816L42.8711 98.6816L42.8711 4.05273L36.4746 4.05273ZM27.002 58.3984C29.834 58.3984 32.1777 56.1035 32.1777 53.2715C32.1777 50.3906 29.834 48.0957 27.002 48.0957C24.1699 48.0957 21.8262 50.3906 21.8262 53.2715C21.8262 56.1035 24.1699 58.3984 27.002 58.3984ZM52.2949 58.3984C55.127 58.3984 57.4707 56.1035 57.4707 53.2715C57.4707 50.3906 55.127 48.0957 52.2949 48.0957C49.4629 48.0957 47.1191 50.3906 47.1191 53.2715C47.1191 56.1035 49.4629 58.3984 52.2949 58.3984ZM14.3066 111.914C16.748 111.914 18.3594 110.254 18.3594 107.812L18.3594 97.998L10.2539 97.998L10.2539 107.812C10.2539 110.254 11.8652 111.914 14.3066 111.914ZM65.0391 111.914C67.4805 111.914 69.0918 110.254 69.0918 107.812L69.0918 97.998L60.9863 97.998L60.9863 107.812C60.9863 110.254 62.5977 111.914 65.0391 111.914Z" fill="#000000" fill-opacity="0.85"/>
 </g>
</svg>
