<?xml version="1.0" encoding="UTF-8"?>
<!--Generator: Apple Native CoreSVG 232.5-->
<!DOCTYPE svg
PUBLIC "-//W3C//DTD SVG 1.1//EN"
       "http://www.w3.org/Graphics/SVG/1.1/DTD/svg11.dtd">
<svg version="1.1" xmlns="http://www.w3.org/2000/svg" xmlns:xlink="http://www.w3.org/1999/xlink" width="120.801" height="34.7168">
 <g>
  <rect height="34.7168" opacity="0" width="120.801" x="0" y="0"/>
  <path d="M0 21.3867L50.7324 21.3867L50.7324 13.2812L0 13.2812ZM48.6816 34.7168L90.5273 34.7168C94.8242 34.7168 96.5332 32.959 96.5332 28.7109L96.5332 5.95703C96.5332 1.70898 94.8242 0 90.5273 0L48.6816 0C44.3848 0 42.6758 1.70898 42.6758 5.95703L42.6758 28.7109C42.6758 32.959 44.3848 34.7168 48.6816 34.7168Z" fill="#000000" fill-opacity="0.85"/>
  <path d="M102.197 27.7344L114.844 27.7344C119.092 27.7344 120.801 25.9766 120.801 21.6797L120.801 12.9883C120.801 8.74023 119.092 6.98242 114.844 6.98242L102.197 6.98242Z" fill="#000000" fill-opacity="0.85"/>
 </g>
</svg>
