<?xml version="1.0" encoding="UTF-8"?>
<!--Generator: Apple Native CoreSVG 232.5-->
<!DOCTYPE svg
PUBLIC "-//W3C//DTD SVG 1.1//EN"
       "http://www.w3.org/Graphics/SVG/1.1/DTD/svg11.dtd">
<svg version="1.1" xmlns="http://www.w3.org/2000/svg" xmlns:xlink="http://www.w3.org/1999/xlink" width="102.881" height="104.932">
 <g>
  <rect height="104.932" opacity="0" width="102.881" x="0" y="0"/>
  <path d="M87.1582 18.1641L99.9023 18.1641C101.709 18.1641 102.881 16.9922 102.881 15.2832L102.881 12.9883C102.881 11.2305 101.709 10.0586 99.9023 10.0586L87.1582 10.0586ZM77.0508 28.2227L79.541 28.2227C81.2988 28.2227 82.4707 27.0508 82.4707 25.293L82.4707 2.97852C82.4707 1.17188 81.2988 0 79.541 0L77.0508 0C75.293 0 74.1211 1.17188 74.1211 2.97852L74.1211 25.293C74.1211 27.0508 75.293 28.2227 77.0508 28.2227ZM50.293 25.5859L69.4336 25.5859L69.4336 2.63672L50.293 2.63672C46.2891 2.63672 44.6777 4.29688 44.6777 8.30078L44.6777 19.9707C44.6777 23.9746 46.2891 25.5859 50.293 25.5859ZM0 33.252C0 45.9961 10.4004 56.3477 23.1445 56.3477L79.7363 56.3477C88.1836 56.3477 95.0195 63.1836 95.0195 71.6309C95.0195 80.0293 88.1348 86.8164 79.7363 86.8164L62.9395 86.8164L62.9395 94.6777L79.7363 94.6777C92.4805 94.6777 102.881 84.375 102.881 71.6309C102.881 58.8867 92.4805 48.4863 79.7363 48.4863L23.1445 48.4863C14.6973 48.4863 7.86133 41.6992 7.86133 33.252C7.86133 24.8535 14.7461 18.0176 23.1445 18.0176L39.9414 18.0176L39.9414 10.1562L23.1445 10.1562C10.4004 10.1562 0 20.5078 0 33.252ZM15.7227 94.7754L15.7227 86.6699L2.97852 86.6699C1.17188 86.6699 0 87.8418 0 89.5996L0 91.8945C0 93.6035 1.17188 94.7754 2.97852 94.7754ZM25.8301 104.883C27.5879 104.883 28.7598 103.711 28.7598 101.904L28.7598 79.5898C28.7598 77.832 27.5879 76.6602 25.8301 76.6602L23.3398 76.6602C21.582 76.6602 20.4102 77.832 20.4102 79.5898L20.4102 101.904C20.4102 103.711 21.582 104.883 23.3398 104.883ZM52.5879 102.246C56.5918 102.246 58.2031 100.586 58.2031 96.582L58.2031 84.9121C58.2031 80.9082 56.5918 79.2969 52.5879 79.2969L33.4473 79.2969L33.4473 102.246Z" fill="#000000" fill-opacity="0.85"/>
 </g>
</svg>
