<?xml version="1.0" encoding="UTF-8"?>
<!--Generator: Apple Native CoreSVG 232.5-->
<!DOCTYPE svg
PUBLIC "-//W3C//DTD SVG 1.1//EN"
       "http://www.w3.org/Graphics/SVG/1.1/DTD/svg11.dtd">
<svg version="1.1" xmlns="http://www.w3.org/2000/svg" xmlns:xlink="http://www.w3.org/1999/xlink" width="101.611" height="119.189">
 <g>
  <rect height="119.189" opacity="0" width="101.611" x="0" y="0"/>
  <path d="M5.61523 93.1152L11.9141 93.1152L11.9141 27.9785C11.9141 24.4629 13.623 22.5098 17.2363 22.0215C25.293 20.8984 37.7441 20.4102 50.7812 20.4102C63.7695 20.4102 76.2207 20.8984 84.375 22.0215C88.0371 22.4609 89.6484 24.1699 89.6484 27.9785L89.6484 93.1152L95.9961 93.1152L95.9961 26.0742C95.9961 20.1172 92.5293 16.6016 86.0352 15.8203C76.5625 14.6484 63.3301 14.0137 50.7812 14.0137C38.2324 14.0137 25 14.6484 15.4785 15.8203C9.0332 16.6016 5.61523 20.1172 5.61523 26.0742ZM0 96.2402C0 98.3887 1.75781 100.195 3.90625 100.195L97.7051 100.195C99.8535 100.195 101.611 98.3887 101.611 96.2402C101.611 94.0918 99.8535 92.334 97.7051 92.334L3.90625 92.334C1.75781 92.334 0 94.0918 0 96.2402ZM19.2871 5.41992C19.2871 7.61719 21.1426 9.7168 23.4375 9.42383C30.7129 8.54492 40.7715 8.1543 50.7812 8.1543C60.791 8.1543 70.8984 8.54492 78.1738 9.42383C80.4199 9.7168 82.2754 7.61719 82.2754 5.41992C82.2754 3.22266 80.5176 1.61133 78.1738 1.31836C70.8008 0.439453 60.6445 0 50.7812 0C40.9668 0 30.8105 0.439453 23.3887 1.31836C21.0938 1.61133 19.2871 3.22266 19.2871 5.41992ZM24.8535 4.15039L24.8535 17.5293L31.25 17.5293L31.25 4.15039ZM70.3613 4.15039L70.3613 17.5293L76.7578 17.5293L76.7578 4.15039ZM50.7812 86.7676C55.2246 86.7676 58.7402 83.4473 58.7402 79.0039C58.7402 74.4629 55.2246 70.9473 50.7812 70.9473C46.2402 70.9473 42.9199 74.4629 42.9199 79.0039C42.9199 83.4473 46.2402 86.7676 50.7812 86.7676ZM17.1387 61.4746C17.1387 62.9395 18.1152 63.916 19.6777 63.916L32.8125 63.916C34.375 63.916 35.3516 62.9395 35.3516 61.4746L35.3516 37.5977C35.3516 32.4707 31.3477 28.5156 26.2695 28.5156C21.0938 28.5156 17.1387 32.4707 17.1387 37.5977ZM40.5273 61.4746C40.5273 62.9395 41.5039 63.916 43.0664 63.916L58.4473 63.916C60.0586 63.916 61.0352 62.9395 61.0352 61.4746L61.0352 36.4746C61.0352 30.3711 56.9336 26.2695 50.7812 26.2695C44.6289 26.2695 40.5273 30.3711 40.5273 36.4746ZM66.1621 61.4746C66.1621 62.9395 67.1875 63.916 68.75 63.916L81.8848 63.916C83.4473 63.916 84.4238 62.9395 84.4238 61.4746L84.4238 37.5977C84.4238 32.4707 80.4199 28.5156 75.3418 28.5156C70.166 28.5156 66.1621 32.4707 66.1621 37.5977ZM16.2598 119.092L18.9941 119.092C20.3125 119.092 21.0938 118.652 21.8262 117.48L35.6934 95.0684L26.3672 95.0684L14.0625 114.844C12.793 116.895 13.9648 119.092 16.2598 119.092ZM80.9082 119.092L83.6426 119.092C85.8887 119.092 87.0605 116.895 85.791 114.844L73.4863 95.0684L64.1602 95.0684L78.0273 117.48C78.7598 118.652 79.541 119.092 80.9082 119.092Z" fill="#000000" fill-opacity="0.85"/>
 </g>
</svg>
