<?xml version="1.0" encoding="UTF-8"?>
<!--Generator: Apple Native CoreSVG 232.5-->
<!DOCTYPE svg
PUBLIC "-//W3C//DTD SVG 1.1//EN"
       "http://www.w3.org/Graphics/SVG/1.1/DTD/svg11.dtd">
<svg version="1.1" xmlns="http://www.w3.org/2000/svg" xmlns:xlink="http://www.w3.org/1999/xlink" width="31.8848" height="111.475">
 <g>
  <rect height="111.475" opacity="0" width="31.8848" x="0" y="0"/>
  <path d="M11.8652 111.426L20.0684 111.426L20.0684 64.5508L11.8652 64.5508ZM6.00586 71.9727L25.8789 71.9727C30.127 71.9727 31.8848 70.2637 31.8848 65.9668L31.8848 28.418C31.8848 24.1699 30.127 22.4121 25.8789 22.4121L6.00586 22.4121C1.70898 22.4121 0 24.1699 0 28.418L0 65.9668C0 70.2637 1.70898 71.9727 6.00586 71.9727Z" fill="#000000" fill-opacity="0.85"/>
  <path d="M6.39648 16.6992L25.4883 16.6992L25.4883 6.00586C25.4883 1.70898 23.6816 0 19.4336 0L12.4512 0C8.1543 0 6.39648 1.70898 6.39648 6.00586Z" fill="#000000" fill-opacity="0.425"/>
 </g>
</svg>
