<?xml version="1.0" encoding="UTF-8"?>
<!--Generator: Apple Native CoreSVG 232.5-->
<!DOCTYPE svg
PUBLIC "-//W3C//DTD SVG 1.1//EN"
       "http://www.w3.org/Graphics/SVG/1.1/DTD/svg11.dtd">
<svg version="1.1" xmlns="http://www.w3.org/2000/svg" xmlns:xlink="http://www.w3.org/1999/xlink" width="138.184" height="89.9902">
 <g>
  <rect height="89.9902" opacity="0" width="138.184" x="0" y="0"/>
  <path d="M128.076 74.8535C128.076 84.9609 122.949 89.9902 112.744 89.9902L46.0449 89.9902C35.8398 89.9902 30.7617 84.9121 30.7617 74.8535L30.7617 55.127L38.623 55.127L38.623 75.293C38.623 79.834 41.0645 82.1289 45.4102 82.1289L113.477 82.1289C117.822 82.1289 120.215 79.834 120.215 75.293L120.215 55.127L128.076 55.127ZM128.076 15.2344L128.076 34.9121L120.215 34.9121L120.215 14.7949C120.215 10.2539 117.822 7.95898 113.477 7.95898L45.4102 7.95898C41.0645 7.95898 38.623 10.2539 38.623 14.7949L38.623 34.9121L30.7617 34.9121L30.7617 15.2344C30.7617 5.17578 35.8398 0.0976562 46.0449 0.0976562L112.744 0.0976562C122.949 0.0976562 128.076 5.12695 128.076 15.2344Z" fill="#000000" fill-opacity="0.85"/>
  <path d="M22.6562 83.5938C22.6562 86.8652 20.0195 89.5508 16.748 89.5508C13.4766 89.5508 10.791 86.8652 10.791 83.5938C10.791 80.3223 13.4766 77.6855 16.748 77.6855C20.0195 77.6855 22.6562 80.3223 22.6562 83.5938Z" fill="#000000" fill-opacity="0.85"/>
  <path d="M22.6562 64.2578C22.6562 67.5293 20.0195 70.166 16.748 70.166C13.4766 70.166 10.791 67.5293 10.791 64.2578C10.791 60.9375 13.4766 58.3008 16.748 58.3008C20.0195 58.3008 22.6562 60.9375 22.6562 64.2578Z" fill="#000000" fill-opacity="0.85"/>
  <path d="M22.6562 25.5371C22.6562 28.8086 20.0195 31.4941 16.748 31.4941C13.4766 31.4941 10.791 28.8086 10.791 25.5371C10.791 22.2656 13.4766 19.6289 16.748 19.6289C20.0195 19.6289 22.6562 22.2656 22.6562 25.5371Z" fill="#000000" fill-opacity="0.85"/>
  <path d="M22.6562 6.15234C22.6562 9.47266 20.0195 12.1094 16.748 12.1094C13.4766 12.1094 10.791 9.47266 10.791 6.15234C10.791 2.88086 13.4766 0.244141 16.748 0.244141C20.0195 0.244141 22.6562 2.88086 22.6562 6.15234Z" fill="#000000" fill-opacity="0.85"/>
  <path d="M16.748 51.6113C19.0918 51.6113 21.1914 50.3906 22.3145 48.4863L128.076 48.4863C129.98 48.4863 131.543 46.9238 131.543 45.0195C131.543 43.1152 129.98 41.6016 128.076 41.6016L22.4121 41.6016C21.2891 39.5996 19.0918 38.3301 16.748 38.3301C13.0859 38.3301 10.0586 41.3086 10.0586 44.9707C10.0586 48.6328 13.0859 51.6113 16.748 51.6113Z" fill="#000000" fill-opacity="0.85"/>
 </g>
</svg>
