<?xml version="1.0" encoding="UTF-8"?>
<!--Generator: Apple Native CoreSVG 232.5-->
<!DOCTYPE svg
PUBLIC "-//W3C//DTD SVG 1.1//EN"
       "http://www.w3.org/Graphics/SVG/1.1/DTD/svg11.dtd">
<svg version="1.1" xmlns="http://www.w3.org/2000/svg" xmlns:xlink="http://www.w3.org/1999/xlink" width="99.6094" height="99.6582">
 <g>
  <rect height="99.6582" opacity="0" width="99.6094" x="0" y="0"/>
  <path d="M49.8047 99.6094C77.0508 99.6094 99.6094 77.002 99.6094 49.8047C99.6094 22.5586 77.002 0 49.7559 0C22.5586 0 0 22.5586 0 49.8047C0 77.002 22.6074 99.6094 49.8047 99.6094ZM49.8047 91.3086C26.7578 91.3086 8.34961 72.8516 8.34961 49.8047C8.34961 26.7578 26.709 8.30078 49.7559 8.30078C72.8027 8.30078 91.3086 26.7578 91.3086 49.8047C91.3086 72.8516 72.8516 91.3086 49.8047 91.3086Z" fill="#000000" fill-opacity="0.85"/>
  <path d="M31.8848 73.9258L67.627 73.9258C73.0957 73.9258 75.8301 71.1914 75.8301 65.8203L75.8301 33.7891C75.8301 28.418 73.0957 25.6836 67.627 25.6836L31.8848 25.6836C26.416 25.6836 23.6816 28.3691 23.6816 33.7891L23.6816 65.8203C23.6816 71.1914 26.416 73.9258 31.8848 73.9258ZM31.543 69.4336C29.3457 69.4336 28.1738 68.3594 28.1738 66.0156L28.1738 41.3086C28.1738 38.916 29.4434 37.6953 31.7871 37.6953L67.7246 37.6953C70.0195 37.6953 71.3379 38.916 71.3379 41.3086L71.3379 66.0156C71.3379 68.3594 70.2148 69.4336 67.9199 69.4336ZM44.4824 47.4609L46.2891 47.4609C47.4121 47.4609 47.8027 47.168 47.8027 46.0449L47.8027 44.2383C47.8027 43.1152 47.4121 42.7246 46.2891 42.7246L44.4824 42.7246C43.3594 42.7246 43.0176 43.1152 43.0176 44.2383L43.0176 46.0449C43.0176 47.168 43.3594 47.4609 44.4824 47.4609ZM53.2227 47.4609L55.0293 47.4609C56.1523 47.4609 56.4941 47.168 56.4941 46.0449L56.4941 44.2383C56.4941 43.1152 56.1523 42.7246 55.0293 42.7246L53.2227 42.7246C52.0996 42.7246 51.7578 43.1152 51.7578 44.2383L51.7578 46.0449C51.7578 47.168 52.0996 47.4609 53.2227 47.4609ZM61.9141 47.4609L63.6719 47.4609C64.7949 47.4609 65.1855 47.168 65.1855 46.0449L65.1855 44.2383C65.1855 43.1152 64.7949 42.7246 63.6719 42.7246L61.9141 42.7246C60.7422 42.7246 60.4004 43.1152 60.4004 44.2383L60.4004 46.0449C60.4004 47.168 60.7422 47.4609 61.9141 47.4609ZM35.8398 56.0059L37.6465 56.0059C38.7695 56.0059 39.1113 55.7129 39.1113 54.5898L39.1113 52.7832C39.1113 51.6602 38.7695 51.2695 37.6465 51.2695L35.8398 51.2695C34.7168 51.2695 34.3262 51.6602 34.3262 52.7832L34.3262 54.5898C34.3262 55.7129 34.7168 56.0059 35.8398 56.0059ZM44.4824 56.0059L46.2891 56.0059C47.4121 56.0059 47.8027 55.7129 47.8027 54.5898L47.8027 52.7832C47.8027 51.6602 47.4121 51.2695 46.2891 51.2695L44.4824 51.2695C43.3594 51.2695 43.0176 51.6602 43.0176 52.7832L43.0176 54.5898C43.0176 55.7129 43.3594 56.0059 44.4824 56.0059ZM53.2227 56.0059L55.0293 56.0059C56.1523 56.0059 56.4941 55.7129 56.4941 54.5898L56.4941 52.7832C56.4941 51.6602 56.1523 51.2695 55.0293 51.2695L53.2227 51.2695C52.0996 51.2695 51.7578 51.6602 51.7578 52.7832L51.7578 54.5898C51.7578 55.7129 52.0996 56.0059 53.2227 56.0059ZM61.9141 56.0059L63.6719 56.0059C64.7949 56.0059 65.1855 55.7129 65.1855 54.5898L65.1855 52.7832C65.1855 51.6602 64.7949 51.2695 63.6719 51.2695L61.9141 51.2695C60.7422 51.2695 60.4004 51.6602 60.4004 52.7832L60.4004 54.5898C60.4004 55.7129 60.7422 56.0059 61.9141 56.0059ZM35.8398 64.5996L37.6465 64.5996C38.7695 64.5996 39.1113 64.2578 39.1113 63.1348L39.1113 61.2793C39.1113 60.2051 38.7695 59.8633 37.6465 59.8633L35.8398 59.8633C34.7168 59.8633 34.3262 60.2051 34.3262 61.2793L34.3262 63.1348C34.3262 64.2578 34.7168 64.5996 35.8398 64.5996ZM44.4824 64.5996L46.2891 64.5996C47.4121 64.5996 47.8027 64.2578 47.8027 63.1348L47.8027 61.2793C47.8027 60.2051 47.4121 59.8633 46.2891 59.8633L44.4824 59.8633C43.3594 59.8633 43.0176 60.2051 43.0176 61.2793L43.0176 63.1348C43.0176 64.2578 43.3594 64.5996 44.4824 64.5996ZM53.2227 64.5996L55.0293 64.5996C56.1523 64.5996 56.4941 64.2578 56.4941 63.1348L56.4941 61.2793C56.4941 60.2051 56.1523 59.8633 55.0293 59.8633L53.2227 59.8633C52.0996 59.8633 51.7578 60.2051 51.7578 61.2793L51.7578 63.1348C51.7578 64.2578 52.0996 64.5996 53.2227 64.5996Z" fill="#000000" fill-opacity="0.85"/>
 </g>
</svg>
