<?xml version="1.0" encoding="UTF-8"?>
<!--Generator: Apple Native CoreSVG 232.5-->
<!DOCTYPE svg
PUBLIC "-//W3C//DTD SVG 1.1//EN"
       "http://www.w3.org/Graphics/SVG/1.1/DTD/svg11.dtd">
<svg version="1.1" xmlns="http://www.w3.org/2000/svg" xmlns:xlink="http://www.w3.org/1999/xlink" width="99.6094" height="99.6582">
 <g>
  <rect height="99.6582" opacity="0" width="99.6094" x="0" y="0"/>
  <path d="M99.6094 49.8535C99.6094 77.0996 77.0508 99.6582 49.8047 99.6582C22.6074 99.6582 0 77.0996 0 49.8535C0 22.6562 22.5586 0.0488281 49.7559 0.0488281C77.002 0.0488281 99.6094 22.6562 99.6094 49.8535ZM31.3965 24.9512C25.7324 24.9512 22.9004 27.7832 22.9004 33.3496L22.9004 66.3574C22.9004 71.9727 25.7324 74.7559 31.3965 74.7559L68.2129 74.7559C73.877 74.7559 76.709 71.9727 76.709 66.3574L76.709 33.3496C76.709 27.7832 73.877 24.9512 68.2129 24.9512ZM72.0703 41.1133L72.0703 66.6016C72.0703 68.9941 70.8984 70.1172 68.5547 70.1172L31.0059 70.1172C28.7598 70.1172 27.5391 68.9941 27.5391 66.6016L27.5391 41.1133C27.5391 38.623 28.8574 37.3535 31.25 37.3535L68.3594 37.3535C70.7031 37.3535 72.0703 38.623 72.0703 41.1133ZM35.4492 60.2539C34.2773 60.2539 33.8867 60.5469 33.8867 61.6699L33.8867 63.5742C33.8867 64.7461 34.2773 65.0879 35.4492 65.0879L37.3047 65.0879C38.4766 65.0879 38.8184 64.7461 38.8184 63.5742L38.8184 61.6699C38.8184 60.5469 38.4766 60.2539 37.3047 60.2539ZM44.3848 60.2539C43.2129 60.2539 42.8711 60.5469 42.8711 61.6699L42.8711 63.5742C42.8711 64.7461 43.2129 65.0879 44.3848 65.0879L46.2402 65.0879C47.4121 65.0879 47.8027 64.7461 47.8027 63.5742L47.8027 61.6699C47.8027 60.5469 47.4121 60.2539 46.2402 60.2539ZM53.3691 60.2539C52.1973 60.2539 51.8555 60.5469 51.8555 61.6699L51.8555 63.5742C51.8555 64.7461 52.1973 65.0879 53.3691 65.0879L55.2246 65.0879C56.3965 65.0879 56.7383 64.7461 56.7383 63.5742L56.7383 61.6699C56.7383 60.5469 56.3965 60.2539 55.2246 60.2539ZM35.4492 51.416C34.2773 51.416 33.8867 51.7578 33.8867 52.9297L33.8867 54.834C33.8867 55.957 34.2773 56.25 35.4492 56.25L37.3047 56.25C38.4766 56.25 38.8184 55.957 38.8184 54.834L38.8184 52.9297C38.8184 51.7578 38.4766 51.416 37.3047 51.416ZM44.3848 51.416C43.2129 51.416 42.8711 51.7578 42.8711 52.9297L42.8711 54.834C42.8711 55.957 43.2129 56.25 44.3848 56.25L46.2402 56.25C47.4121 56.25 47.8027 55.957 47.8027 54.834L47.8027 52.9297C47.8027 51.7578 47.4121 51.416 46.2402 51.416ZM53.3691 51.416C52.1973 51.416 51.8555 51.7578 51.8555 52.9297L51.8555 54.834C51.8555 55.957 52.1973 56.25 53.3691 56.25L55.2246 56.25C56.3965 56.25 56.7383 55.957 56.7383 54.834L56.7383 52.9297C56.7383 51.7578 56.3965 51.416 55.2246 51.416ZM62.3535 51.416C61.1328 51.416 60.791 51.7578 60.791 52.9297L60.791 54.834C60.791 55.957 61.1328 56.25 62.3535 56.25L64.1602 56.25C65.332 56.25 65.7227 55.957 65.7227 54.834L65.7227 52.9297C65.7227 51.7578 65.332 51.416 64.1602 51.416ZM44.3848 42.5781C43.2129 42.5781 42.8711 42.9688 42.8711 44.0918L42.8711 46.0449C42.8711 47.1191 43.2129 47.4609 44.3848 47.4609L46.2402 47.4609C47.4121 47.4609 47.8027 47.1191 47.8027 46.0449L47.8027 44.0918C47.8027 42.9688 47.4121 42.5781 46.2402 42.5781ZM53.3691 42.5781C52.1973 42.5781 51.8555 42.9688 51.8555 44.0918L51.8555 46.0449C51.8555 47.1191 52.1973 47.4609 53.3691 47.4609L55.2246 47.4609C56.3965 47.4609 56.7383 47.1191 56.7383 46.0449L56.7383 44.0918C56.7383 42.9688 56.3965 42.5781 55.2246 42.5781ZM62.3535 42.5781C61.1328 42.5781 60.791 42.9688 60.791 44.0918L60.791 46.0449C60.791 47.1191 61.1328 47.4609 62.3535 47.4609L64.1602 47.4609C65.332 47.4609 65.7227 47.1191 65.7227 46.0449L65.7227 44.0918C65.7227 42.9688 65.332 42.5781 64.1602 42.5781Z" fill="#000000" fill-opacity="0.85"/>
 </g>
</svg>
