<?xml version="1.0" encoding="UTF-8"?>
<!--Generator: Apple Native CoreSVG 232.5-->
<!DOCTYPE svg
PUBLIC "-//W3C//DTD SVG 1.1//EN"
       "http://www.w3.org/Graphics/SVG/1.1/DTD/svg11.dtd">
<svg version="1.1" xmlns="http://www.w3.org/2000/svg" xmlns:xlink="http://www.w3.org/1999/xlink" width="115.137" height="89.8926">
 <g>
  <rect height="89.8926" opacity="0" width="115.137" x="0" y="0"/>
  <path d="M15.332 89.8926L54.2969 89.8926L54.2969 82.0312L15.4297 82.0312C10.5469 82.0312 7.86133 79.4434 7.86133 74.3652L7.86133 48.291L0 48.291L0 74.8047C0 84.8633 5.12695 89.8926 15.332 89.8926ZM60.9863 89.8926L99.8047 89.8926C110.059 89.8926 115.137 84.8633 115.137 74.8047L115.137 48.291L107.275 48.291L107.275 74.3652C107.275 79.4434 104.541 82.0312 99.707 82.0312L60.9863 82.0312ZM107.275 41.6504L115.137 41.6504L115.137 15.1367C115.137 5.07812 110.059 0 99.8047 0L60.9863 0L60.9863 7.86133L99.707 7.86133C104.541 7.86133 107.275 10.498 107.275 15.5762ZM0 41.6504L7.86133 41.6504L7.86133 15.5762C7.86133 10.498 10.5469 7.86133 15.4297 7.86133L54.2969 7.86133L54.2969 0L15.332 0C5.12695 0 0 5.07812 0 15.1367Z" fill="#000000" fill-opacity="0.85"/>
  <path d="M30.4199 44.9707C30.4199 47.998 32.4219 50.0488 35.4492 50.0488L79.834 50.0488C82.8613 50.0488 84.8633 47.998 84.8633 44.9707C84.8633 41.9922 82.8613 39.9414 79.834 39.9414L35.4492 39.9414C32.4219 39.9414 30.4199 41.9922 30.4199 44.9707Z" fill="#000000" fill-opacity="0.85"/>
 </g>
</svg>
