<?xml version="1.0" encoding="UTF-8"?>
<!--Generator: Apple Native CoreSVG 232.5-->
<!DOCTYPE svg
PUBLIC "-//W3C//DTD SVG 1.1//EN"
       "http://www.w3.org/Graphics/SVG/1.1/DTD/svg11.dtd">
<svg version="1.1" xmlns="http://www.w3.org/2000/svg" xmlns:xlink="http://www.w3.org/1999/xlink" width="113.048" height="105.908">
 <g>
  <rect height="105.908" opacity="0" width="113.048" x="0" y="0"/>
  <path d="M27.8863 3.71094C25.4937 9.22852 24.3707 14.7461 24.3707 20.1172C24.3707 37.9395 36.9683 52.5391 56.5972 52.5391C76.2261 52.5391 88.8238 37.9395 88.8238 20.1172C88.8238 14.7461 87.7007 9.22852 85.357 3.71094C84.2828 1.36719 81.4996 1.02539 79.6441 2.92969L68.7066 14.0625L59.3804 2.00195C57.8667 0.0488281 55.3277 0.0488281 53.8628 2.00195L44.5367 14.0625L33.5503 2.92969C31.6949 1.02539 28.9117 1.36719 27.8863 3.71094ZM52.691 102.246C52.691 104.443 54.4 105.908 56.5972 105.908C81.8414 105.908 105.035 90.332 112.652 68.457C113.726 65.4785 112.603 63.5742 109.429 63.5742C84.4781 63.5742 66.5093 78.2227 59.2828 96.7285L60.5523 98.3887L60.5523 47.6074L52.691 47.6074ZM46.0015 83.5938C36.8218 71.6797 22.1246 63.5742 3.6187 63.5742C0.444875 63.5742-0.678172 65.4785 0.396046 68.457C6.93902 87.4023 25.1031 101.66 46.3921 105.029C46.148 104.199 46.0015 103.223 46.0015 102.246Z" fill="#000000" fill-opacity="0.85"/>
 </g>
</svg>
