<?xml version="1.0" encoding="UTF-8"?>
<!--Generator: Apple Native CoreSVG 232.5-->
<!DOCTYPE svg
PUBLIC "-//W3C//DTD SVG 1.1//EN"
       "http://www.w3.org/Graphics/SVG/1.1/DTD/svg11.dtd">
<svg version="1.1" xmlns="http://www.w3.org/2000/svg" xmlns:xlink="http://www.w3.org/1999/xlink" width="107.666" height="102.588">
 <g>
  <rect height="102.588" opacity="0" width="107.666" x="0" y="0"/>
  <path d="M21.1035 45.2227C13.1456 49.7952 7.8125 58.3761 7.8125 68.1641C7.8125 82.9102 19.6777 94.7754 34.375 94.7754C39.2563 94.7754 43.834 93.4524 47.7532 91.1214C49.542 93.1714 51.5954 94.979 53.8495 96.5161C48.3215 100.349 41.6104 102.588 34.375 102.588C15.4297 102.588 0 87.1582 0 68.1641C0 54.5608 7.99617 42.7541 19.5639 37.2423C19.735 40.0149 20.2679 42.6869 21.1035 45.2227ZM68.75 68.1641C68.75 76.9972 65.4236 85.0596 59.9258 91.1313C57.639 89.827 55.5825 88.1727 53.827 86.2348C58.216 81.5389 60.901 75.2358 60.9308 68.304C63.6366 67.7439 66.223 66.8579 68.6316 65.659ZM67.0703 57.682C64.8483 58.9913 62.4073 59.9635 59.8127 60.535C58.6375 56.618 56.5706 53.0879 53.8444 50.1767C55.5966 48.2497 57.6478 46.6016 59.9279 45.3003C63.1317 48.8329 65.5994 53.0367 67.0703 57.682ZM53.8388 39.9122C51.5886 41.4452 49.5388 43.2472 47.7528 45.2896C43.8337 42.9679 39.2562 41.6504 34.375 41.6504C32.311 41.6504 30.3029 41.8854 28.3847 42.3527C27.6407 39.9239 27.2461 37.3428 27.2461 34.668C27.2461 34.6422 27.2461 34.6164 27.25 34.5916C29.547 34.0945 31.9318 33.8379 34.375 33.8379C41.5966 33.8379 48.3073 36.0798 53.8388 39.9122Z" fill="#000000" fill-opacity="0.2125"/>
  <path d="M107.666 68.1641C107.666 87.1582 92.2363 102.588 73.3398 102.588C54.3457 102.588 38.916 87.1582 38.916 68.1641C38.916 67.3186 38.9469 66.4802 39.0434 65.659C41.4496 66.8535 44.0327 67.7372 46.7352 68.2963C46.8007 82.9819 58.6871 94.7754 73.3398 94.7754C88.0371 94.7754 99.8535 82.8613 99.8535 68.1641C99.8535 58.3321 94.4861 49.7539 86.5288 45.1957C87.3588 42.6581 87.8878 39.9848 88.0553 37.2109C99.6396 42.7096 107.666 54.5351 107.666 68.1641ZM80.3661 34.5703C80.371 34.6021 80.3711 34.635 80.3711 34.668C80.3711 37.3367 79.9799 39.9121 79.2414 42.3357C77.3482 41.8798 75.37 41.6504 73.3398 41.6504C61.3134 41.6504 51.1504 49.6279 47.8642 60.5305C45.2594 59.9573 42.8089 58.9827 40.5788 57.6703C45.025 43.8708 58.0235 33.8379 73.3398 33.8379C75.7472 33.8379 78.0983 34.0883 80.3661 34.5703Z" fill="#000000" fill-opacity="0.425"/>
  <path d="M53.8574 69.043C72.8027 69.043 88.1836 53.6621 88.1836 34.668C88.1836 15.7227 72.8027 0.292969 53.8574 0.292969C34.8633 0.292969 19.4336 15.7227 19.4336 34.668C19.4336 53.6621 34.8633 69.043 53.8574 69.043ZM53.8574 61.2305C39.1602 61.2305 27.2461 49.3652 27.2461 34.668C27.2461 20.0195 39.1602 8.10547 53.8574 8.10547C68.457 8.10547 80.3711 20.0195 80.3711 34.668C80.3711 49.3652 68.5059 61.2305 53.8574 61.2305Z" fill="#000000" fill-opacity="0.85"/>
 </g>
</svg>
