<?xml version="1.0" encoding="UTF-8"?>
<!--Generator: Apple Native CoreSVG 232.5-->
<!DOCTYPE svg
PUBLIC "-//W3C//DTD SVG 1.1//EN"
       "http://www.w3.org/Graphics/SVG/1.1/DTD/svg11.dtd">
<svg version="1.1" xmlns="http://www.w3.org/2000/svg" xmlns:xlink="http://www.w3.org/1999/xlink" width="115.137" height="89.8926">
 <g>
  <rect height="89.8926" opacity="0" width="115.137" x="0" y="0"/>
  <path d="M15.332 89.8926L54.2969 89.8926L54.2969 82.0312L15.4297 82.0312C10.5469 82.0312 7.86133 79.4434 7.86133 74.3652L7.86133 48.291L0 48.291L0 74.8047C0 84.8633 5.12695 89.8926 15.332 89.8926ZM60.9863 89.8926L99.8047 89.8926C110.059 89.8926 115.137 84.8633 115.137 74.8047L115.137 48.291L107.275 48.291L107.275 74.3652C107.275 79.4434 104.541 82.0312 99.707 82.0312L60.9863 82.0312ZM107.275 41.6504L115.137 41.6504L115.137 15.1367C115.137 5.07812 110.059 0 99.8047 0L60.9863 0L60.9863 7.86133L99.707 7.86133C104.541 7.86133 107.275 10.498 107.275 15.5762ZM0 41.6504L7.86133 41.6504L7.86133 15.5762C7.86133 10.498 10.5469 7.86133 15.4297 7.86133L54.2969 7.86133L54.2969 0L15.332 0C5.12695 0 0 5.07812 0 15.1367Z" fill="#000000" fill-opacity="0.85"/>
  <path d="M56.6895 55.0293C59.1309 55.0293 60.6445 53.4668 60.6445 51.5625C60.6445 51.3672 60.6445 51.123 60.6445 50.9766C60.6445 48.2422 62.207 46.4844 65.625 44.2383C70.3613 41.1133 73.7305 38.2812 73.7305 32.4219C73.7305 24.3164 66.5039 19.9219 58.2031 19.9219C49.8047 19.9219 44.2871 23.9258 42.9688 28.418C42.7246 29.1992 42.5781 29.9805 42.5781 30.8105C42.5781 33.0078 44.2871 34.1797 45.8984 34.1797C47.5586 34.1797 48.6328 33.3984 49.5117 32.2266L50.3906 31.0547C52.0996 28.2227 54.6387 26.5625 57.9102 26.5625C62.3535 26.5625 65.2344 29.1016 65.2344 32.8125C65.2344 36.1328 63.1836 37.7441 58.8867 40.7227C55.4199 43.1641 52.7832 45.752 52.7832 50.5371C52.7832 50.7324 52.7832 50.9766 52.7832 51.1719C52.7832 53.7109 54.1992 55.0293 56.6895 55.0293ZM56.5918 69.5801C59.4238 69.5801 61.8652 67.334 61.8652 64.502C61.8652 61.6699 59.4727 59.4238 56.5918 59.4238C53.7109 59.4238 51.3184 61.7188 51.3184 64.502C51.3184 67.2852 53.7598 69.5801 56.5918 69.5801Z" fill="#000000" fill-opacity="0.85"/>
 </g>
</svg>
