<?xml version="1.0" encoding="UTF-8"?>
<!--Generator: Apple Native CoreSVG 232.5-->
<!DOCTYPE svg
PUBLIC "-//W3C//DTD SVG 1.1//EN"
       "http://www.w3.org/Graphics/SVG/1.1/DTD/svg11.dtd">
<svg version="1.1" xmlns="http://www.w3.org/2000/svg" xmlns:xlink="http://www.w3.org/1999/xlink" width="119.922" height="96.2402">
 <g>
  <rect height="96.2402" opacity="0" width="119.922" x="0" y="0"/>
  <path d="M15.332 93.1152L104.59 93.1152C114.746 93.1152 119.922 88.0371 119.922 77.9785L119.922 26.8555C119.922 16.7969 114.746 11.7676 104.59 11.7676L90.625 11.7676C86.7676 11.7676 85.5957 10.9863 83.3984 8.54492L79.4922 4.15039C77.0508 1.46484 74.5605 0 69.5312 0L50.0488 0C45.0195 0 42.5293 1.46484 40.0879 4.15039L36.1816 8.54492C33.9844 10.9375 32.7637 11.7676 28.9551 11.7676L15.332 11.7676C5.12695 11.7676 0 16.7969 0 26.8555L0 77.9785C0 88.0371 5.12695 93.1152 15.332 93.1152ZM59.9609 78.7109C45.166 78.7109 33.3008 66.8945 33.3008 52.002C33.3008 37.1582 45.166 25.3418 59.9609 25.3418C74.7559 25.3418 86.5723 37.1582 86.5723 52.002C86.5723 66.8945 74.707 78.7109 59.9609 78.7109ZM59.9609 71.2891C70.6055 71.2891 79.1992 62.7441 79.1992 52.002C79.1992 41.3086 70.6055 32.7148 59.9609 32.7148C49.3164 32.7148 40.6738 41.3086 40.6738 52.002C40.6738 62.7441 49.3652 71.2891 59.9609 71.2891ZM89.8438 34.0332C89.8438 30.7129 92.7734 27.7832 96.1914 27.7832C99.5605 27.7832 102.441 30.7129 102.441 34.0332C102.441 37.5 99.5605 40.2832 96.1914 40.332C92.7734 40.332 89.8438 37.5488 89.8438 34.0332Z" fill="#000000" fill-opacity="0.85"/>
 </g>
</svg>
