<?xml version="1.0" encoding="UTF-8"?>
<!--Generator: Apple Native CoreSVG 232.5-->
<!DOCTYPE svg
PUBLIC "-//W3C//DTD SVG 1.1//EN"
       "http://www.w3.org/Graphics/SVG/1.1/DTD/svg11.dtd">
<svg version="1.1" xmlns="http://www.w3.org/2000/svg" xmlns:xlink="http://www.w3.org/1999/xlink" width="139.844" height="115.674">
 <g>
  <rect height="115.674" opacity="0" width="139.844" x="0" y="0"/>
  <path d="M108.545 21.875L108.545 29.7776C108.171 29.5108 107.788 29.1744 107.373 28.7598L105.176 26.3672C101.367 22.2656 97.2168 20.3613 91.5039 20.3613L72.998 20.3613C67.8223 20.3613 63.623 21.8262 59.4727 26.2207L56.9336 28.8574C55.5176 30.2734 54.4922 30.7129 52.8809 30.7129L46.6309 30.7129C32.7637 30.7129 24.6582 38.7207 24.6582 52.4902L24.6582 86.4258L21.9727 86.4258C11.7676 86.4258 6.64062 81.3477 6.64062 71.2891L6.64062 21.875C6.64062 11.8164 11.7676 6.73828 21.9727 6.73828L93.2129 6.73828C103.418 6.73828 108.545 11.8164 108.545 21.875Z" fill="#000000" fill-opacity="0.85"/>
  <path d="M46.6309 109.033L117.871 109.033C128.076 109.033 133.203 103.955 133.203 93.8965L133.203 52.4902C133.203 42.4316 128.076 37.4023 117.871 37.4023L110.596 37.4023C106.934 37.4023 105.811 36.9629 103.711 34.668L100.195 30.8594C97.7051 28.125 95.3125 27.0508 91.5039 27.0508L72.998 27.0508C69.1895 27.0508 66.8945 28.1738 64.3066 30.8594L60.5469 34.668C58.4473 36.7676 57.5195 37.4023 53.8574 37.4023L46.6309 37.4023C36.4258 37.4023 31.2988 42.4316 31.2988 52.4902L31.2988 93.8965C31.2988 103.955 36.4258 109.033 46.6309 109.033ZM82.2754 94.5801C69.1895 94.5801 58.6426 84.0332 58.6426 70.8984C58.6426 57.8613 69.1895 47.2656 82.2754 47.2656C95.3125 47.2656 105.908 57.8613 105.908 70.8984C105.908 84.0332 95.3125 94.5801 82.2754 94.5801ZM112.305 59.668C109.229 59.668 106.836 57.2266 106.836 54.1992C106.836 51.1719 109.229 48.6816 112.305 48.6816C115.332 48.6816 117.773 51.1719 117.773 54.1992C117.773 57.2266 115.332 59.668 112.305 59.668ZM82.2754 87.1094C91.1621 87.1094 98.4375 79.834 98.4375 70.8984C98.4375 62.0117 91.1621 54.7852 82.2754 54.7852C73.3887 54.7852 66.1133 62.0117 66.1133 70.8984C66.1133 79.834 73.3887 87.1094 82.2754 87.1094Z" fill="#000000" fill-opacity="0.85"/>
 </g>
</svg>
