<?xml version="1.0" encoding="UTF-8"?>
<!--Generator: Apple Native CoreSVG 232.5-->
<!DOCTYPE svg
PUBLIC "-//W3C//DTD SVG 1.1//EN"
       "http://www.w3.org/Graphics/SVG/1.1/DTD/svg11.dtd">
<svg version="1.1" xmlns="http://www.w3.org/2000/svg" xmlns:xlink="http://www.w3.org/1999/xlink" width="99.6094" height="99.6582">
 <g>
  <rect height="99.6582" opacity="0" width="99.6094" x="0" y="0"/>
  <path d="M99.6094 49.8047C99.6094 77.002 77.0508 99.6094 49.8047 99.6094C22.6074 99.6094 0 77.002 0 49.8047C0 22.5586 22.5586 0 49.7559 0C77.002 0 99.6094 22.5586 99.6094 49.8047ZM48.291 25.5859L43.3105 32.0312L37.5488 26.123C36.5234 25.0488 34.9609 25.2441 34.5215 26.5137C33.2031 29.4922 32.5195 32.373 32.5195 35.2539C32.5195 44.0918 38.3789 51.4648 47.6074 52.4414L47.6074 78.9551C47.6074 80.1758 48.584 81.0059 49.7559 81.0059C63.1348 81.0059 75.5371 72.7539 79.6387 61.0352C80.2246 59.4238 79.5898 58.3008 77.832 58.3008C65.4785 58.3008 56.25 65.1367 51.9531 74.0723L51.9531 52.4414C61.1816 51.416 66.9922 44.0918 66.9922 35.2539C66.9922 32.373 66.4062 29.4922 65.1367 26.5137C64.5508 25.2441 62.9883 25.0488 61.9629 26.123L56.25 32.0312L51.3184 25.5859C50.5371 24.4629 49.1211 24.4629 48.291 25.5859ZM19.873 61.0352C23.3887 71.3379 33.3496 78.9551 44.873 80.5176C44.6289 80.0781 44.5312 79.4922 44.5312 78.9551L44.5312 69.4336C39.6973 62.8906 31.7383 58.3008 21.6797 58.3008C19.873 58.3008 19.2871 59.4238 19.873 61.0352Z" fill="#000000" fill-opacity="0.85"/>
 </g>
</svg>
