<?xml version="1.0" encoding="UTF-8"?>
<!--Generator: Apple Native CoreSVG 232.5-->
<!DOCTYPE svg
PUBLIC "-//W3C//DTD SVG 1.1//EN"
       "http://www.w3.org/Graphics/SVG/1.1/DTD/svg11.dtd">
<svg version="1.1" xmlns="http://www.w3.org/2000/svg" xmlns:xlink="http://www.w3.org/1999/xlink" width="115.137" height="89.8926">
 <g>
  <rect height="89.8926" opacity="0" width="115.137" x="0" y="0"/>
  <path d="M15.332 89.8926L54.2969 89.8926L54.2969 82.0312L15.4297 82.0312C10.5469 82.0312 7.86133 79.4434 7.86133 74.3652L7.86133 48.291L0 48.291L0 74.8047C0 84.8633 5.12695 89.8926 15.332 89.8926ZM60.9863 89.8926L99.8047 89.8926C110.059 89.8926 115.137 84.8633 115.137 74.8047L115.137 48.291L107.275 48.291L107.275 74.3652C107.275 79.4434 104.541 82.0312 99.707 82.0312L60.9863 82.0312ZM107.275 41.6504L115.137 41.6504L115.137 15.1367C115.137 5.07812 110.059 0 99.8047 0L60.9863 0L60.9863 7.86133L99.707 7.86133C104.541 7.86133 107.275 10.498 107.275 15.5762ZM0 41.6504L7.86133 41.6504L7.86133 15.5762C7.86133 10.498 10.5469 7.86133 15.4297 7.86133L54.2969 7.86133L54.2969 0L15.332 0C5.12695 0 0 5.07812 0 15.1367Z" fill="#000000" fill-opacity="0.85"/>
  <path d="M57.666 31.5918C61.5234 31.5918 64.5996 28.5156 64.5996 24.6094C64.5996 20.752 61.5234 17.6758 57.666 17.6758C53.7598 17.6758 50.6836 20.752 50.6836 24.6094C50.6836 28.5156 53.7598 31.5918 57.666 31.5918ZM37.3535 51.8555C41.2598 51.8555 44.3359 48.7793 44.3359 44.9219C44.3359 41.0156 41.2598 37.9395 37.3535 37.9395C33.4961 37.9395 30.3711 41.0156 30.3711 44.9219C30.3711 48.7793 33.4961 51.8555 37.3535 51.8555ZM77.9297 51.8555C81.8359 51.8555 84.9121 48.7793 84.9121 44.9219C84.9121 41.0156 81.8359 37.9395 77.9297 37.9395C74.0723 37.9395 70.9961 41.0156 70.9961 44.9219C70.9961 48.7793 74.0723 51.8555 77.9297 51.8555ZM57.666 72.168C61.5234 72.168 64.5996 69.0918 64.5996 65.2344C64.5996 61.3281 61.5234 58.252 57.666 58.252C53.7598 58.252 50.6836 61.3281 50.6836 65.2344C50.6836 69.0918 53.7598 72.168 57.666 72.168Z" fill="#000000" fill-opacity="0.85"/>
  <path d="M57.666 51.8555C61.5234 51.8555 64.5996 48.7793 64.5996 44.9219C64.5996 41.0156 61.5234 37.9395 57.666 37.9395C53.7598 37.9395 50.6836 41.0156 50.6836 44.9219C50.6836 48.7793 53.7598 51.8555 57.666 51.8555Z" fill="#000000" fill-opacity="0.85"/>
 </g>
</svg>
