<?xml version="1.0" encoding="UTF-8"?>
<!--Generator: Apple Native CoreSVG 232.5-->
<!DOCTYPE svg
PUBLIC "-//W3C//DTD SVG 1.1//EN"
       "http://www.w3.org/Graphics/SVG/1.1/DTD/svg11.dtd">
<svg version="1.1" xmlns="http://www.w3.org/2000/svg" xmlns:xlink="http://www.w3.org/1999/xlink" width="95.6055" height="95.6543">
 <g>
  <rect height="95.6543" opacity="0" width="95.6055" x="0" y="0"/>
  <path d="M3.90625 31.1523C6.49414 31.1523 7.86133 29.6875 7.86133 27.1484L7.86133 15.625C7.86133 10.5469 10.5469 7.95898 15.4297 7.95898L27.2461 7.95898C29.834 7.95898 31.25 6.54297 31.25 4.00391C31.25 1.46484 29.834 0.0976562 27.2461 0.0976562L15.332 0.0976562C5.12695 0.0976562 0 5.12695 0 15.1855L0 27.1484C0 29.6875 1.41602 31.1523 3.90625 31.1523ZM91.6504 31.1523C94.2383 31.1523 95.6055 29.6875 95.6055 27.1484L95.6055 15.1855C95.6055 5.12695 90.4785 0.0976562 80.2734 0.0976562L68.3105 0.0976562C65.7715 0.0976562 64.3555 1.46484 64.3555 4.00391C64.3555 6.54297 65.7715 7.95898 68.3105 7.95898L80.127 7.95898C84.9609 7.95898 87.7441 10.5469 87.7441 15.625L87.7441 27.1484C87.7441 29.6875 89.1602 31.1523 91.6504 31.1523ZM15.332 95.6543L27.2461 95.6543C29.834 95.6543 31.25 94.2383 31.25 91.748C31.25 89.209 29.834 87.793 27.2461 87.793L15.4297 87.793C10.5469 87.793 7.86133 85.2051 7.86133 80.127L7.86133 68.6035C7.86133 66.0156 6.44531 64.5996 3.90625 64.5996C1.36719 64.5996 0 66.0156 0 68.6035L0 80.5176C0 90.625 5.12695 95.6543 15.332 95.6543ZM68.3105 95.6543L80.2734 95.6543C90.4785 95.6543 95.6055 90.5762 95.6055 80.5176L95.6055 68.6035C95.6055 66.0156 94.1895 64.5996 91.6504 64.5996C89.1113 64.5996 87.7441 66.0156 87.7441 68.6035L87.7441 80.127C87.7441 85.2051 84.9609 87.793 80.127 87.793L68.3105 87.793C65.7715 87.793 64.3555 89.209 64.3555 91.748C64.3555 94.2383 65.7715 95.6543 68.3105 95.6543Z" fill="#000000" fill-opacity="0.85"/>
  <path d="M26.0254 69.9219L69.6289 69.9219C74.7559 69.9219 77.3926 67.3828 77.3926 62.3047L77.3926 36.5234C77.3926 31.3477 74.7559 28.8086 69.6289 28.8086L63.2812 28.8086C61.377 28.8086 60.791 28.4668 59.668 27.1973L57.666 25C56.4453 23.6328 55.1758 22.9492 52.6855 22.9492L42.8223 22.9492C40.2832 22.9492 39.0137 23.6328 37.793 25L35.791 27.1973C34.668 28.418 34.082 28.8086 32.1777 28.8086L26.0254 28.8086C20.8496 28.8086 18.2617 31.3477 18.2617 36.5234L18.2617 62.3047C18.2617 67.3828 20.8496 69.9219 26.0254 69.9219ZM47.9004 63.8184C39.7461 63.8184 33.2031 57.3242 33.2031 49.1211C33.2031 41.0156 39.7461 34.5215 47.9004 34.5215C55.957 34.5215 62.4512 41.0156 62.4512 49.1211C62.4512 57.4707 55.957 63.8184 47.9004 63.8184ZM47.8516 59.5703C53.5645 59.5703 58.252 54.9805 58.252 49.1211C58.252 43.3594 53.5645 38.7207 47.8516 38.7207C42.0898 38.7207 37.4023 43.3594 37.4023 49.1211C37.4023 54.9805 42.0898 59.5703 47.8516 59.5703ZM67.334 42.1387C65.5273 42.1387 64.0625 40.6738 64.0625 38.8184C64.0625 36.9629 65.5273 35.498 67.334 35.498C69.1406 35.498 70.6543 36.9629 70.6543 38.8184C70.6543 40.6738 69.1406 42.1387 67.334 42.1387Z" fill="#000000" fill-opacity="0.85"/>
 </g>
</svg>
