<?xml version="1.0" encoding="UTF-8"?>
<!--Generator: Apple Native CoreSVG 232.5-->
<!DOCTYPE svg
PUBLIC "-//W3C//DTD SVG 1.1//EN"
       "http://www.w3.org/Graphics/SVG/1.1/DTD/svg11.dtd">
<svg version="1.1" xmlns="http://www.w3.org/2000/svg" xmlns:xlink="http://www.w3.org/1999/xlink" width="119.922" height="127.398">
 <g>
  <rect height="127.398" opacity="0" width="119.922" x="0" y="0"/>
  <path d="M15.332 108.694L104.59 108.694C114.746 108.694 119.922 103.616 119.922 93.5575L119.922 42.4344C119.922 32.3758 114.746 27.3466 104.59 27.3466L90.625 27.3466C86.7676 27.3466 85.5957 26.5653 83.3984 24.1239L79.4922 19.7294C77.0508 17.0438 74.5605 15.579 69.5312 15.579L50.0488 15.579C45.0195 15.579 42.5293 17.0438 40.0879 19.7294L36.1816 24.1239C33.9844 26.5165 32.7637 27.3466 28.9551 27.3466L15.332 27.3466C5.12695 27.3466 0 32.3758 0 42.4344L0 93.5575C0 103.616 5.12695 108.694 15.332 108.694ZM15.4297 100.833C10.6445 100.833 7.86133 98.245 7.86133 93.1669L7.86133 42.8739C7.86133 37.7958 10.6445 35.2079 15.4297 35.2079L30.9082 35.2079C35.3027 35.2079 37.6953 34.3778 40.1367 31.6434L43.9453 27.3466C46.7285 24.2216 48.1934 23.4403 52.4902 23.4403L67.0898 23.4403C71.3867 23.4403 72.8516 24.2216 75.6348 27.3466L79.4434 31.6434C81.8848 34.3778 84.2773 35.2079 88.6719 35.2079L104.443 35.2079C109.277 35.2079 112.061 37.7958 112.061 42.8739L112.061 93.1669C112.061 98.245 109.277 100.833 104.443 100.833ZM59.9609 93.8016C74.707 93.8016 86.5723 81.9852 86.5723 67.0926C86.5723 52.2489 74.7559 40.4325 59.9609 40.4325C45.166 40.4325 33.3008 52.2489 33.3008 67.0926C33.3008 81.9852 45.166 93.8016 59.9609 93.8016ZM59.9609 86.3798C49.3652 86.3798 40.6738 77.8348 40.6738 67.0926C40.6738 56.3993 49.3164 47.8055 59.9609 47.8055C70.6055 47.8055 79.1992 56.3993 79.1992 67.0926C79.1992 77.8348 70.6055 86.3798 59.9609 86.3798ZM88.5742 49.1239C88.5742 52.5419 91.3574 55.2274 94.7266 55.2274C97.9492 55.2274 100.781 52.493 100.781 49.1239C100.781 45.9012 97.9492 43.0692 94.7266 43.0692C91.3574 43.0692 88.5742 45.9012 88.5742 49.1239Z" fill="#000000" fill-opacity="0.85"/>
  <path d="M6.54297 6.93639L20.2637 18.704C21.1426 19.4364 22.0703 20.0223 23.0957 20.0223C24.1699 20.0223 25.0977 19.4364 25.9766 18.704L39.6973 6.93639C43.75 3.51843 38.9648-2.73157 34.4727 1.32116L23.0957 11.7216L11.7676 1.32116C7.22656-2.73157 2.49023 3.51843 6.54297 6.93639Z" fill="#000000" fill-opacity="0.85"/>
 </g>
</svg>
