<?xml version="1.0" encoding="UTF-8"?>
<!--Generator: Apple Native CoreSVG 232.5-->
<!DOCTYPE svg
PUBLIC "-//W3C//DTD SVG 1.1//EN"
       "http://www.w3.org/Graphics/SVG/1.1/DTD/svg11.dtd">
<svg version="1.1" xmlns="http://www.w3.org/2000/svg" xmlns:xlink="http://www.w3.org/1999/xlink" width="107.617" height="107.861">
 <g>
  <rect height="107.861" opacity="0" width="107.617" x="0" y="0"/>
  <path d="M107.617 28.9062L107.617 66.3086C107.617 80.6152 99.8047 88.623 85.2539 88.623L52.2461 88.623L34.6191 104.736C32.3242 106.885 30.9082 107.861 29.0039 107.861C26.2207 107.861 24.6582 105.859 24.6582 102.832L24.6582 88.623L22.3633 88.623C7.8125 88.623 0 80.6641 0 66.3086L0 28.9062C0 14.5508 7.8125 6.54297 22.3633 6.54297L85.2539 6.54297C99.8047 6.54297 107.617 14.5996 107.617 28.9062ZM22.0215 60.4004C20.4102 60.4004 19.0918 61.7188 19.0918 63.3789C19.0918 64.9902 20.4102 66.2598 22.0215 66.2598L30.5664 66.2598C32.1777 66.2598 33.4473 64.9902 33.4473 63.3789C33.4473 61.7188 32.1777 60.4004 30.5664 60.4004ZM40.918 60.4004C39.3066 60.4004 38.0371 61.7188 38.0371 63.3789C38.0371 64.9902 39.3066 66.2598 40.918 66.2598L66.1621 66.2598C67.7734 66.2598 69.0918 64.9902 69.0918 63.3789C69.0918 61.7188 67.7734 60.4004 66.1621 60.4004ZM76.5625 60.4004C74.9512 60.4004 73.6328 61.7188 73.6328 63.3789C73.6328 64.9902 74.9512 66.2598 76.5625 66.2598L85.6934 66.2598C87.3047 66.2598 88.5742 64.9902 88.5742 63.3789C88.5742 61.7188 87.3047 60.4004 85.6934 60.4004ZM22.0215 47.2656C20.4102 47.2656 19.0918 48.584 19.0918 50.1465C19.0918 51.8066 20.4102 53.125 22.0215 53.125L42.7246 53.125C44.3359 53.125 45.6543 51.8066 45.6543 50.1465C45.6543 48.584 44.3359 47.2656 42.7246 47.2656ZM53.125 47.2656C51.5137 47.2656 50.1953 48.584 50.1953 50.1465C50.1953 51.8066 51.5137 53.125 53.125 53.125L85.6934 53.125C87.3047 53.125 88.5742 51.8066 88.5742 50.1465C88.5742 48.584 87.3047 47.2656 85.6934 47.2656Z" fill="#000000" fill-opacity="0.85"/>
 </g>
</svg>
