<?xml version="1.0" encoding="UTF-8"?>
<!--Generator: Apple Native CoreSVG 232.5-->
<!DOCTYPE svg
PUBLIC "-//W3C//DTD SVG 1.1//EN"
       "http://www.w3.org/Graphics/SVG/1.1/DTD/svg11.dtd">
<svg version="1.1" xmlns="http://www.w3.org/2000/svg" xmlns:xlink="http://www.w3.org/1999/xlink" width="107.617" height="107.275">
 <g>
  <rect height="107.275" opacity="0" width="107.617" x="0" y="0"/>
  <path d="M30.0293 107.275C32.4219 107.275 34.082 106.006 37.0605 103.369L53.9062 88.3789L85.2539 88.3789C99.8047 88.3789 107.617 80.3223 107.617 66.0156L107.617 28.6133C107.617 14.3066 99.8047 6.25 85.2539 6.25L22.3633 6.25C7.8125 6.25 0 14.2578 0 28.6133L0 66.0156C0 80.3711 7.8125 88.3789 22.3633 88.3789L24.707 88.3789L24.707 101.074C24.707 104.834 26.6113 107.275 30.0293 107.275ZM32.0312 98.3398L32.0312 84.1797C32.0312 81.543 31.0059 80.5176 28.3691 80.5176L22.3633 80.5176C12.5 80.5176 7.86133 75.4883 7.86133 65.9668L7.86133 28.6133C7.86133 19.0918 12.5 14.1113 22.3633 14.1113L85.2539 14.1113C95.0684 14.1113 99.7559 19.0918 99.7559 28.6133L99.7559 65.9668C99.7559 75.4883 95.0684 80.5176 85.2539 80.5176L53.6133 80.5176C50.8789 80.5176 49.5117 80.9082 47.6562 82.8125Z" fill="#000000" fill-opacity="0.85"/>
  <path d="M22.9492 52.9785L43.0664 52.9785C44.6289 52.9785 45.8984 51.709 45.8984 50.0977C45.8984 48.584 44.6289 47.3145 43.0664 47.3145L22.9492 47.3145C21.3867 47.3145 20.1172 48.584 20.1172 50.0977C20.1172 51.709 21.3867 52.9785 22.9492 52.9785ZM53.1738 52.9785L84.7656 52.9785C86.3281 52.9785 87.5488 51.709 87.5488 50.0977C87.5488 48.584 86.3281 47.3145 84.7656 47.3145L53.1738 47.3145C51.6113 47.3145 50.3418 48.584 50.3418 50.0977C50.3418 51.709 51.6113 52.9785 53.1738 52.9785ZM22.9492 65.7227L31.25 65.7227C32.8125 65.7227 34.0332 64.502 34.0332 62.9395C34.0332 61.3281 32.8125 60.0586 31.25 60.0586L22.9492 60.0586C21.3867 60.0586 20.1172 61.3281 20.1172 62.9395C20.1172 64.502 21.3867 65.7227 22.9492 65.7227ZM41.3086 65.7227L65.7715 65.7227C67.334 65.7227 68.6035 64.502 68.6035 62.9395C68.6035 61.3281 67.334 60.0586 65.7715 60.0586L41.3086 60.0586C39.7461 60.0586 38.5254 61.3281 38.5254 62.9395C38.5254 64.502 39.7461 65.7227 41.3086 65.7227ZM75.8789 65.7227L84.7656 65.7227C86.3281 65.7227 87.5488 64.502 87.5488 62.9395C87.5488 61.3281 86.3281 60.0586 84.7656 60.0586L75.8789 60.0586C74.3164 60.0586 73.0469 61.3281 73.0469 62.9395C73.0469 64.502 74.3164 65.7227 75.8789 65.7227Z" fill="#000000" fill-opacity="0.85"/>
 </g>
</svg>
