<?xml version="1.0" encoding="UTF-8"?>
<!--Generator: Apple Native CoreSVG 232.5-->
<!DOCTYPE svg
PUBLIC "-//W3C//DTD SVG 1.1//EN"
       "http://www.w3.org/Graphics/SVG/1.1/DTD/svg11.dtd">
<svg version="1.1" xmlns="http://www.w3.org/2000/svg" xmlns:xlink="http://www.w3.org/1999/xlink" width="173.193" height="121.826">
 <g>
  <rect height="121.826" opacity="0" width="173.193" x="0" y="0"/>
  <path d="M12.7441 90.3809L20.3613 90.3809C20.0684 88.916 19.8242 87.4023 19.8242 85.791C19.8242 75.293 28.125 67.041 38.5742 67.041C49.0723 67.041 57.3242 75.293 57.3242 85.791C57.3242 87.4023 57.1289 88.916 56.7871 90.3809L118.994 90.3809C118.701 88.916 118.457 87.4023 118.457 85.791C118.457 75.293 126.758 67.041 137.207 67.041C147.705 67.041 155.957 75.293 155.957 85.791C155.957 87.4023 155.762 88.916 155.42 90.3809L161.865 90.3809C168.896 90.3809 173.193 85.9375 173.193 78.7109L173.193 59.082C173.193 52.2461 171.143 46.4355 162.061 43.6035L152.002 40.5273C145.654 32.959 134.57 22.168 114.404 22.168L102.93 22.168C82.8125 22.168 74.8047 24.1211 62.793 31.6406L43.1152 43.9941L21.4355 46.6309C7.95898 48.291 0 56.0547 0 67.6758L0 77.3438C0 85.6445 4.63867 90.3809 12.7441 90.3809ZM38.5742 98.8281C45.8984 98.8281 51.6602 93.0664 51.6602 85.791C51.6602 78.5156 45.8496 72.7051 38.5742 72.7051C31.3477 72.7051 25.5371 78.5156 25.5371 85.791C25.5371 93.0176 31.3477 98.8281 38.5742 98.8281ZM137.207 98.8281C144.482 98.8281 150.293 93.0176 150.293 85.791C150.293 78.5156 144.482 72.7051 137.207 72.7051C130.029 72.7051 124.17 78.5645 124.17 85.791C124.17 93.0176 129.98 98.8281 137.207 98.8281ZM90.6738 67.7734C87.0605 67.7734 84.0332 64.7949 84.0332 61.3281C84.0332 57.8613 86.9629 54.9805 90.6738 54.9805C94.3359 54.9805 97.3145 57.8613 97.3145 61.3281C97.3145 64.7949 94.2871 67.7734 90.6738 67.7734ZM90.6738 45.3613C88.1836 45.3613 86.4258 43.6035 86.3281 41.0156L85.3027 5.37109C85.2051 2.14844 87.3535 0 90.6738 0C93.9941 0 96.1426 2.14844 96.0449 5.37109L94.9707 41.0156C94.873 43.6035 93.1641 45.3613 90.6738 45.3613Z" fill="#000000" fill-opacity="0.85"/>
 </g>
</svg>
