<?xml version="1.0" encoding="UTF-8"?>
<!--Generator: Apple Native CoreSVG 232.5-->
<!DOCTYPE svg
PUBLIC "-//W3C//DTD SVG 1.1//EN"
       "http://www.w3.org/Graphics/SVG/1.1/DTD/svg11.dtd">
<svg version="1.1" xmlns="http://www.w3.org/2000/svg" xmlns:xlink="http://www.w3.org/1999/xlink" width="99.6094" height="99.6582">
 <g>
  <rect height="99.6582" opacity="0" width="99.6094" x="0" y="0"/>
  <path d="M49.8047 99.6094C77.0508 99.6094 99.6094 77.002 99.6094 49.8047C99.6094 22.5586 77.002 0 49.7559 0C22.5586 0 0 22.5586 0 49.8047C0 77.002 22.6074 99.6094 49.8047 99.6094ZM49.8047 91.3086C26.7578 91.3086 8.34961 72.8516 8.34961 49.8047C8.34961 26.7578 26.709 8.30078 49.7559 8.30078C72.8027 8.30078 91.3086 26.7578 91.3086 49.8047C91.3086 72.8516 72.8516 91.3086 49.8047 91.3086Z" fill="#000000" fill-opacity="0.85"/>
  <path d="M22.998 65.9668C22.998 67.6758 24.3164 68.9453 26.0254 68.9453L28.7109 68.9453C30.3711 68.9453 31.6895 67.6758 31.6895 65.9668L31.6895 62.207C36.7188 62.5 43.9941 62.7441 49.8047 62.7441C55.6152 62.7441 62.8418 62.5 67.8711 62.207L67.8711 65.9668C67.8711 67.6758 69.1895 68.9453 70.8984 68.9453L73.584 68.9453C75.2441 68.9453 76.5625 67.6758 76.5625 65.9668L76.5625 52.9297C76.5625 49.1699 75.7812 47.0215 73.6816 44.2871L71.7773 41.8457C70.8984 37.7441 69.4336 33.4473 68.7012 31.7871C67.4805 29.248 65.1367 27.7832 62.1094 27.3438C60.5957 27.1484 55.6152 27.0508 49.8047 27.0508C43.9453 27.0508 39.0137 27.1484 37.4512 27.3438C34.4727 27.7344 32.1289 29.248 30.9082 31.7871C30.127 33.4473 28.6621 37.7441 27.832 41.8457L25.8789 44.2871C23.7793 47.0215 22.998 49.1699 22.998 52.9297ZM33.5938 39.6973C34.1309 37.3535 35.1074 34.375 35.791 33.1543C36.377 32.1289 37.0117 31.6895 38.1836 31.543C39.7461 31.2988 43.3594 31.2012 49.8047 31.2012C56.2012 31.2012 59.8145 31.25 61.4258 31.543C62.5977 31.6895 63.1836 32.1289 63.8184 33.1543C64.502 34.3262 65.4785 37.3535 65.9668 39.6973C66.2109 40.4297 65.8691 40.7715 65.0391 40.7227C61.5723 40.4297 57.373 40.2832 49.8047 40.2832C42.1875 40.2832 38.0371 40.4297 34.5215 40.7227C33.6914 40.7715 33.3984 40.4297 33.5938 39.6973ZM29.834 53.0273C29.834 50.9277 31.4453 49.3652 33.4473 49.3652C35.498 49.3652 37.1094 50.9277 37.1094 53.0273C37.1094 55.0781 35.498 56.5918 33.4473 56.5918C31.4453 56.5918 29.834 55.0781 29.834 53.0273ZM41.2109 53.1738C41.2109 51.6113 42.2852 50.5371 43.8477 50.5371L55.7617 50.5371C57.2754 50.5371 58.3496 51.6113 58.3496 53.1738C58.3496 54.6875 57.2754 55.7617 55.7617 55.7617L43.8477 55.7617C42.2852 55.7617 41.2109 54.6875 41.2109 53.1738ZM62.5 53.0273C62.5 50.9277 64.0625 49.3652 66.1133 49.3652C68.1641 49.3652 69.7754 50.9277 69.7754 53.0273C69.7754 55.0781 68.1641 56.5918 66.1133 56.5918C64.0625 56.5918 62.5 55.0781 62.5 53.0273Z" fill="#000000" fill-opacity="0.85"/>
 </g>
</svg>
