<?xml version="1.0" encoding="UTF-8"?>
<!--Generator: Apple Native CoreSVG 232.5-->
<!DOCTYPE svg
PUBLIC "-//W3C//DTD SVG 1.1//EN"
       "http://www.w3.org/Graphics/SVG/1.1/DTD/svg11.dtd">
<svg version="1.1" xmlns="http://www.w3.org/2000/svg" xmlns:xlink="http://www.w3.org/1999/xlink" width="108.46" height="115.674">
 <g>
  <rect height="115.674" opacity="0" width="108.46" x="0" y="0"/>
  <path d="M6.35418 114.893L6.59832 114.893C21.8327 114.893 23.1022 104.98 31.0612 104.98C38.7761 104.98 40.9245 114.893 54.2546 114.893C67.5358 114.893 69.6843 104.98 77.3991 104.98C85.3581 104.98 86.6276 114.893 101.862 114.893L102.106 114.893C104.01 114.893 105.524 113.379 105.524 111.475C105.524 109.57 104.01 108.008 102.106 108.008L101.862 108.008C96.5886 108.008 93.6589 105.859 89.9479 103.223C86.7741 100.928 82.819 98.0957 77.3991 98.0957C71.8327 98.0957 67.8288 101.123 64.6061 103.467C61.2858 106.055 58.6003 108.008 54.2546 108.008C49.86 108.008 47.1745 106.055 43.8542 103.467C40.6315 101.123 36.6276 98.0957 31.0612 98.0957C25.6413 98.0957 21.6862 100.928 18.5124 103.223C14.8014 105.859 11.8718 108.008 6.59832 108.008L6.35418 108.008C4.44989 108.008 2.93621 109.57 2.93621 111.475C2.93621 113.379 4.44989 114.893 6.35418 114.893ZM18.8054 106.934L25.4948 104.98L8.35614 81.6895C7.28192 80.2734 7.91668 78.5645 9.86981 78.5645L98.5905 78.5645C100.592 78.5645 101.227 80.2734 100.104 81.7383L82.9655 104.932L89.7038 106.885L106.305 84.8633C110.798 79.0039 108.014 72.2656 100.299 72.2656L8.16082 72.2656C0.445979 72.2656-2.33722 79.0039 2.15496 84.8633ZM28.6198 23.2422C28.3268 24.5605 28.9128 25.0488 30.28 24.9512C35.9929 24.5605 42.78 24.2188 54.2057 24.2188C65.6315 24.2188 72.4186 24.5605 78.1315 24.9512C79.4987 25.0488 80.0847 24.5605 79.7917 23.2422C78.9128 19.3848 77.3014 14.4531 76.1296 12.5C75.2018 10.8398 74.0788 10.1562 72.2722 9.86328C69.7331 9.52148 63.9714 9.27734 54.2057 9.27734C44.4401 9.27734 38.6784 9.52148 36.1393 9.86328C34.3327 10.1562 33.2097 10.8398 32.2331 12.5C31.11 14.4531 29.4987 19.3848 28.6198 23.2422ZM28.4245 47.5586C31.7448 47.5586 34.235 45.0684 34.235 41.7969C34.235 38.5254 31.7448 36.0352 28.4245 36.0352C25.153 36.0352 22.6628 38.5254 22.6628 41.7969C22.6628 45.0684 25.153 47.5586 28.4245 47.5586ZM44.7819 46.1914L63.6296 46.1914C66.1198 46.1914 67.8288 44.4824 67.8288 41.9922C67.8288 39.5508 66.071 37.8418 63.6296 37.8418L44.7819 37.8418C42.2917 37.8418 40.5827 39.5508 40.5827 41.9922C40.5827 44.4824 42.2917 46.1914 44.7819 46.1914ZM79.9382 47.5586C83.2585 47.5586 85.7487 45.0684 85.7487 41.7969C85.7487 38.5254 83.2585 36.0352 79.9382 36.0352C76.6667 36.0352 74.1764 38.5254 74.1764 41.7969C74.1764 45.0684 76.6667 47.5586 79.9382 47.5586ZM54.2057 57.959C66.2175 57.959 82.1843 57.373 89.0202 56.5918C94.2936 55.957 97.2722 52.9297 97.2722 48.0469L97.2722 41.6992C97.2722 35.4492 95.9538 31.9336 92.5847 27.5879L89.655 23.877C88.3366 17.3828 85.9929 10.6934 84.7233 8.00781C82.7702 3.85742 78.8639 1.2207 73.7858 0.488281C71.3932 0.195312 63.7272 0 54.2057 0C44.8307 0 37.0671 0.195312 34.6745 0.488281C29.5964 1.12305 25.6901 3.75977 23.6393 8.00781C22.4186 10.6934 20.0261 17.3828 18.7077 23.877L15.8757 27.5879C12.4577 31.9336 11.1882 35.4492 11.1882 41.6992L11.1882 48.0469C11.1882 52.9297 14.1179 55.957 19.3913 56.5918C26.2272 57.373 42.194 57.959 54.2057 57.959ZM54.2057 51.709C42.0964 51.709 26.4714 51.2207 20.8073 50.4883C18.3659 50.1465 17.4382 49.1211 17.4382 46.6309L17.4382 41.6992C17.4382 37.0117 18.1218 34.9121 20.8073 31.3965L24.6159 26.4648C25.4948 21.2891 27.8874 14.0137 29.3522 10.791C30.4264 8.54492 32.4284 7.17773 35.4069 6.83594C37.653 6.5918 44.8796 6.20117 54.2057 6.20117C63.5807 6.20117 70.905 6.5918 72.9069 6.83594C75.9343 7.22656 77.9362 8.54492 79.0593 10.791C80.6218 14.0625 82.9655 21.3867 83.7956 26.4648L87.6042 31.3965C90.2409 34.9121 91.0222 37.0605 91.0222 41.6992L91.0222 46.6309C91.0222 49.1699 90.0456 50.1953 87.5554 50.4883C81.8913 51.1719 66.3151 51.709 54.2057 51.709ZM18.5124 67.041L22.7116 67.041C25.446 67.041 27.5456 64.9902 27.5456 62.3047L27.5456 53.7598L13.7272 51.7578L13.7272 62.3047C13.7272 64.9902 15.8268 67.041 18.5124 67.041ZM85.6999 67.041L89.8991 67.041C92.5847 67.041 94.6843 64.9902 94.6843 62.3047L94.6843 51.7578L80.8659 53.7598L80.9147 62.3047C80.9147 64.9902 82.9655 67.041 85.6999 67.041Z" fill="#000000" fill-opacity="0.85"/>
 </g>
</svg>
