<?xml version="1.0" encoding="UTF-8"?>
<!--Generator: Apple Native CoreSVG 232.5-->
<!DOCTYPE svg
PUBLIC "-//W3C//DTD SVG 1.1//EN"
       "http://www.w3.org/Graphics/SVG/1.1/DTD/svg11.dtd">
<svg version="1.1" xmlns="http://www.w3.org/2000/svg" xmlns:xlink="http://www.w3.org/1999/xlink" width="173.193" height="77.4902">
 <g>
  <rect height="77.4902" opacity="0" width="173.193" x="0" y="0"/>
  <path d="M12.7441 68.2129L20.3613 68.2129C20.0684 66.748 19.8242 65.2344 19.8242 63.623C19.8242 53.125 28.125 44.873 38.5742 44.873C49.0723 44.873 57.3242 53.125 57.3242 63.623C57.3242 65.2344 57.1289 66.748 56.7871 68.2129L118.994 68.2129C118.701 66.748 118.457 65.2344 118.457 63.623C118.457 53.125 126.758 44.873 137.207 44.873C147.705 44.873 155.957 53.125 155.957 63.623C155.957 65.2344 155.762 66.748 155.42 68.2129L161.865 68.2129C168.896 68.2129 173.193 63.7695 173.193 56.543L173.193 36.9141C173.193 30.0781 171.143 24.2676 162.061 21.4355L152.002 18.3594C145.654 10.791 134.57 0 114.404 0L102.93 0C82.8125 0 74.8047 1.95312 62.793 9.47266L43.1152 21.8262L21.4355 24.4629C7.95898 26.123 0 33.8867 0 45.5078L0 55.1758C0 63.4766 4.63867 68.2129 12.7441 68.2129ZM38.5742 76.6602C45.8984 76.6602 51.6602 70.8984 51.6602 63.623C51.6602 56.3477 45.8496 50.5371 38.5742 50.5371C31.3477 50.5371 25.5371 56.3477 25.5371 63.623C25.5371 70.8496 31.3477 76.6602 38.5742 76.6602ZM137.207 76.6602C144.482 76.6602 150.293 70.8496 150.293 63.623C150.293 56.3477 144.482 50.5371 137.207 50.5371C130.029 50.5371 124.17 56.3965 124.17 63.623C124.17 70.8496 129.98 76.6602 137.207 76.6602Z" fill="#000000" fill-opacity="0.85"/>
 </g>
</svg>
