<?xml version="1.0" encoding="UTF-8"?>
<!--Generator: Apple Native CoreSVG 232.5-->
<!DOCTYPE svg
PUBLIC "-//W3C//DTD SVG 1.1//EN"
       "http://www.w3.org/Graphics/SVG/1.1/DTD/svg11.dtd">
<svg version="1.1" xmlns="http://www.w3.org/2000/svg" xmlns:xlink="http://www.w3.org/1999/xlink" width="156.68" height="120.064">
 <g>
  <rect height="120.064" opacity="0" width="156.68" x="0" y="0"/>
  <path d="M34.1017 37.4488L39.2775 40.4273C39.6193 39.3531 40.0588 38.23 40.6935 37.1558C44.7951 30.0757 53.5841 27.6831 60.6642 31.7359C67.6955 35.8863 70.088 44.6265 65.9865 51.7066C65.3517 52.8296 64.6193 53.7573 63.838 54.6363L105.733 78.855C106.123 77.732 106.563 76.6089 107.197 75.4859C111.299 68.4546 120.088 66.062 127.119 70.1636C134.199 74.2163 136.592 83.0542 132.49 90.1343C131.856 91.2085 131.123 92.1851 130.293 93.064L134.639 95.5542C139.424 98.2886 144.063 96.9702 146.846 92.0874L154.561 78.855C157.246 74.2163 158.028 69.48 152.998 64.0113L147.432 58.0054C146.113 50.437 142.842 38.8159 129.219 31.0034L121.504 26.5601C107.881 18.7476 101.778 16.8921 90.7423 17.2827L72.6759 17.9663L57.0509 11.3745C47.2853 7.22415 38.8869 9.32375 34.3459 17.1851L30.5861 23.7281C27.3634 29.2945 28.6818 34.3726 34.1017 37.4488ZM48.2619 53.2202C53.1935 56.0523 59.3459 54.3921 62.1291 49.5093C64.9611 44.6265 63.3009 38.4741 58.4181 35.6421C53.5841 32.8589 47.3341 34.4702 44.5021 39.3531C41.7189 44.2359 43.3791 50.3882 48.2619 53.2202ZM114.766 91.5991C119.649 94.4312 125.801 92.771 128.633 87.8882C131.465 83.0054 129.805 76.8042 124.922 74.021C120.039 71.2378 113.838 72.8491 111.006 77.732C108.223 82.6148 109.883 88.8159 114.766 91.5991Z" fill="#000000" fill-opacity="0.85"/>
  <path d="M0.556798 41.3062C-0.566249 43.2593 0.117345 45.6519 1.92399 46.7261L127.901 119.431C129.658 120.457 132.1 119.822 133.174 118.015C134.248 116.062 133.565 113.621 131.807 112.595L5.83024 39.8902C4.07242 38.8648 1.58219 39.4995 0.556798 41.3062ZM18.8185 22.8491L29.1213 5.07571C30.8302 2.09719 28.4377-0.539527 25.4103 0.0952389L9.68766 2.9761C7.53922 3.36672 6.56266 5.02688 7.34391 7.12649L12.6662 22.1167C13.6916 25.0952 17.1095 25.7788 18.8185 22.8491Z" fill="#000000" fill-opacity="0.85"/>
 </g>
</svg>
