<?xml version="1.0" encoding="UTF-8"?>
<!--Generator: Apple Native CoreSVG 232.5-->
<!DOCTYPE svg
PUBLIC "-//W3C//DTD SVG 1.1//EN"
       "http://www.w3.org/Graphics/SVG/1.1/DTD/svg11.dtd">
<svg version="1.1" xmlns="http://www.w3.org/2000/svg" xmlns:xlink="http://www.w3.org/1999/xlink" width="133.301" height="114.64">
 <g>
  <rect height="114.64" opacity="0" width="133.301" x="0" y="0"/>
  <path d="M133.301 51.8756L133.301 43.7702C131.152 44.7955 128.955 46.0163 126.66 47.4811L108.936 58.6139L89.4531 61.0065C77.2461 62.4713 70.0684 69.5026 70.0684 79.9518L70.0684 88.692C70.0684 96.1139 74.3164 100.411 81.5918 100.411L95.0195 100.411L95.0195 93.2819L81.9824 93.2819C78.8574 93.2819 77.1973 91.3288 77.1973 87.8131L77.1973 79.9518C77.1973 73.4088 81.8848 69.112 90.332 68.0377L111.328 65.4498L130.42 53.6334C131.396 52.9987 132.373 52.4127 133.301 51.8756ZM133.301 100.411L133.301 93.2819L115.576 93.2819L115.576 100.411ZM105.078 110.469C113.525 110.469 120.117 103.829 120.117 95.4303C120.117 86.9342 113.525 80.3424 105.078 80.3424C96.6309 80.3424 90.0391 86.9342 90.0391 95.4303C90.0391 103.829 96.6309 110.469 105.078 110.469ZM105.078 103.34C100.586 103.34 97.168 99.8737 97.168 95.4303C97.168 90.9381 100.586 87.4713 105.078 87.4713C109.521 87.4713 112.988 90.9381 112.988 95.4303C112.988 99.8737 109.521 103.34 105.078 103.34ZM27.3438 110.469C35.791 110.469 42.3828 103.829 42.3828 95.4303C42.3828 86.9342 35.791 80.3424 27.3438 80.3424C18.8965 80.3424 12.3047 86.9342 12.3047 95.4303C12.3047 103.829 18.8965 110.469 27.3438 110.469ZM27.3438 103.34C22.8516 103.34 19.4336 99.8737 19.4336 95.4303C19.4336 90.9381 22.8516 87.4713 27.3438 87.4713C31.8359 87.4713 35.2539 90.9381 35.2539 95.4303C35.2539 99.8737 31.8359 103.34 27.3438 103.34ZM0 38.985L0 46.1139L6.54297 46.1139C18.5059 46.1139 28.1738 51.0455 36.5234 62.6178L47.3145 65.4498C51.3184 66.4752 52.3926 68.8678 52.3926 72.1881L52.3926 88.1549C52.3926 91.3776 50.7812 93.2819 47.998 93.2819L37.1094 93.2819L37.1094 100.411L49.2676 100.411C55.6152 100.411 59.5215 96.4557 59.5215 89.9127L59.5215 72.1881C59.5215 66.0846 57.666 60.86 49.4629 58.2721L40.4297 55.4889C34.7168 48.7018 24.7559 38.985 6.54297 38.985ZM0 93.2819L0 100.411L16.9434 100.411L16.9434 93.2819Z" fill="#000000" fill-opacity="0.85"/>
  <path d="M71.8262 2.90102L69.6777 11.8366L58.5938 0.45961C57.666-0.516952 56.4453 0.166641 56.8848 1.53383L60.8398 13.2038L55.6641 10.9088C54.4922 10.3229 53.6133 11.2506 54.4922 12.4225L57.3242 16.1334L44.043 14.278C42.4805 14.0338 42.0898 15.5963 43.3594 16.3776L55.8594 23.9459L48.3887 26.6803C47.0703 27.1686 47.2656 28.6823 48.6816 28.7799L57.0312 29.4147L45.6543 37.0807C44.5312 37.8131 45.0195 39.5221 46.582 39.1315L60.9863 35.86L61.1328 48.067C61.1328 49.3366 62.4023 49.483 62.9395 48.6041L72.168 33.3209L87.7441 47.3346C88.916 48.36 90.3809 47.2858 89.5996 45.8698L80.3711 28.6334L89.7949 25.8014C90.5762 25.5573 90.5762 24.483 89.7949 24.1901L81.4941 20.7721L87.4512 3.82875C87.8418 2.75453 86.7188 1.77797 85.791 2.7057L76.123 11.8854L73.7305 2.90102C73.4375 1.63149 72.168 1.63149 71.8262 2.90102Z" fill="#000000" fill-opacity="0.85"/>
 </g>
</svg>
