<?xml version="1.0" encoding="UTF-8"?>
<!--Generator: Apple Native CoreSVG 232.5-->
<!DOCTYPE svg
PUBLIC "-//W3C//DTD SVG 1.1//EN"
       "http://www.w3.org/Graphics/SVG/1.1/DTD/svg11.dtd">
<svg version="1.1" xmlns="http://www.w3.org/2000/svg" xmlns:xlink="http://www.w3.org/1999/xlink" width="67.0898" height="133.74">
 <g>
  <rect height="133.74" opacity="0" width="67.0898" x="0" y="0"/>
  <path d="M33.5449 7.32422C42.1875 7.32422 50 10.498 56.0059 15.8691C58.1055 17.6758 60.3027 17.8223 61.7676 16.4062C63.3789 14.7949 63.2812 12.4512 61.5723 10.6445C54.2969 3.36914 44.1895 0 33.5449 0C22.9492 0 12.8418 3.36914 5.56641 10.6445C3.80859 12.4512 3.71094 14.7949 5.37109 16.4062C6.78711 17.8223 8.98438 17.6758 11.084 15.8691C17.0898 10.498 24.9512 7.32422 33.5449 7.32422Z" fill="#000000" fill-opacity="0.85"/>
  <path d="M33.5449 24.4629C37.8418 24.4629 41.6016 25.7812 44.4824 28.1738C46.9727 29.9316 49.0234 29.834 50.3906 28.418C51.9043 26.9531 51.8066 24.8047 50.2441 23.1934C47.2656 20.2148 40.6738 17.1387 33.5449 17.1387C26.4648 17.1387 19.873 20.2148 16.8457 23.1934C15.2832 24.8047 15.1855 26.9531 16.6992 28.418C18.0664 29.834 20.1172 29.9316 22.6074 28.1738C25.5371 25.7812 29.2969 24.4629 33.5449 24.4629Z" fill="#000000" fill-opacity="0.85"/>
  <path d="M33.5449 133.691C52.2949 133.691 60.7422 129.443 60.7422 118.652L60.7422 55.2734C60.7422 44.1406 50.4395 37.5488 33.5449 37.5488C16.6504 37.5488 6.39648 44.1406 6.39648 55.2734L6.39648 118.652C6.39648 129.443 14.7949 133.691 33.5449 133.691ZM10.5469 76.0254L10.5469 65.8691L4.29688 65.8691C1.9043 65.8691 0 67.6758 0 70.0195L0 71.875C0 74.1699 1.9043 76.0254 4.29688 76.0254ZM56.543 76.0254L62.793 76.0254C65.2344 76.0254 67.0898 74.1699 67.0898 71.875L67.0898 70.0195C67.0898 67.6758 65.2344 65.8691 62.793 65.8691L56.543 65.8691ZM33.5449 77.7344C30.127 77.7344 24.4629 78.0273 22.5098 78.0273C19.5312 78.0273 18.1641 76.7578 17.8711 73.584L17.2363 66.5527C16.748 60.7422 20.5566 58.5449 33.5449 58.5449C46.5332 58.5449 50.3906 60.7422 49.9023 66.5527L49.2676 73.584C48.9746 76.7578 47.6562 78.0273 44.5801 78.0273C42.6758 78.0273 37.207 77.7344 33.5449 77.7344ZM33.5449 118.115C20.5566 118.115 16.5039 116.211 17.3828 110.205L17.9199 106.787C18.6523 102.002 22.3633 100.488 33.5449 100.488C44.7754 100.488 48.4375 102.002 49.2188 106.787L49.7559 110.205C50.6836 116.211 46.5332 118.115 33.5449 118.115Z" fill="#000000" fill-opacity="0.85"/>
 </g>
</svg>
