<?xml version="1.0" encoding="UTF-8"?>
<!--Generator: Apple Native CoreSVG 232.5-->
<!DOCTYPE svg
PUBLIC "-//W3C//DTD SVG 1.1//EN"
       "http://www.w3.org/Graphics/SVG/1.1/DTD/svg11.dtd">
<svg version="1.1" xmlns="http://www.w3.org/2000/svg" xmlns:xlink="http://www.w3.org/1999/xlink" width="175.049" height="89.4043">
 <g>
  <rect height="89.4043" opacity="0" width="175.049" x="0" y="0"/>
  <path d="M88.1348 89.4043C98.4375 89.4043 103.467 84.5215 103.467 74.3164L103.467 50.4395C103.467 43.457 101.514 39.6973 95.8984 35.4492L57.959 6.5918C51.5137 1.75781 46.5332 0.0488281 38.5742 0.0488281L14.8926 0.0488281C5.0293 0.0488281 0 5.0293 0 14.7949L0 74.3164C0 84.5215 4.98047 89.4043 15.332 89.4043ZM87.8418 44.3848L15.0391 44.3848C10.5469 44.3848 7.86133 41.7969 7.86133 37.1094L7.86133 15.1855C7.86133 10.4492 10.498 7.91016 15.0391 7.91016L38.5742 7.91016C44.8242 7.91016 48.4375 8.98438 52.5879 12.3047L88.9648 40.1367C90.9668 41.6016 90.4297 44.3848 87.8418 44.3848Z" fill="#000000" fill-opacity="0.85"/>
  <path d="M125.391 71.8262C126.904 71.8262 127.832 71.2891 129.346 69.873L148.291 50.7812L167.188 69.8242C168.652 71.2402 169.58 71.7773 171.094 71.7773C173.193 71.7773 175.049 69.9707 175.049 67.9199C175.049 66.5039 174.561 65.5762 173.291 64.2578L154.102 44.9219L173.291 25.5859C174.561 24.2676 175.049 23.3398 175.049 21.9238C175.049 19.873 173.242 18.1152 171.143 18.1152C169.629 18.1152 168.701 18.6523 167.188 20.0684L148.242 39.1113L129.395 20.0684C127.93 18.6523 126.953 18.1152 125.488 18.1152C123.34 18.1152 121.533 19.873 121.533 21.9727C121.533 23.4375 122.021 24.4141 123.242 25.6836L142.432 44.9219L123.242 64.3066C121.973 65.625 121.484 66.5527 121.484 68.0176C121.484 70.0684 123.291 71.8262 125.391 71.8262Z" fill="#000000" fill-opacity="0.85"/>
 </g>
</svg>
