<?xml version="1.0" encoding="UTF-8"?>
<!--Generator: Apple Native CoreSVG 232.5-->
<!DOCTYPE svg
PUBLIC "-//W3C//DTD SVG 1.1//EN"
       "http://www.w3.org/Graphics/SVG/1.1/DTD/svg11.dtd">
<svg version="1.1" xmlns="http://www.w3.org/2000/svg" xmlns:xlink="http://www.w3.org/1999/xlink" width="173.193" height="79.4434">
 <g>
  <rect height="79.4434" opacity="0" width="173.193" x="0" y="0"/>
  <path d="M12.7441 68.2129L27.6855 68.2129L27.6855 60.3516L13.1836 60.3516C9.7168 60.3516 7.86133 58.2031 7.86133 54.1992L7.86133 45.5078C7.86133 38.1836 13.0371 33.4473 22.4609 32.2754L45.8008 29.3457L66.9922 16.1621C77.7832 9.47266 84.2773 7.86133 102.93 7.86133L114.404 7.86133C127.686 7.86133 138.428 13.3789 147.656 26.2207L159.619 29.3457C164.111 30.4688 165.332 33.1543 165.332 36.9141L165.332 54.6387C165.332 58.2031 163.525 60.3516 160.449 60.3516L148.34 60.3516L148.34 68.2129L161.865 68.2129C168.896 68.2129 173.193 63.7695 173.193 56.5918L173.193 36.9141C173.193 30.0781 171.143 24.2676 162.061 21.4355L152.002 18.3594C145.654 10.791 134.57 0 114.404 0L102.93 0C82.8125 0 74.8047 1.95312 62.793 9.47266L43.1152 21.8262L21.4355 24.4629C7.95898 26.123 0 33.8867 0 45.5078L0 55.1758C0 63.4766 4.63867 68.2129 12.7441 68.2129ZM50.5371 68.2129L125.879 68.2129L125.879 60.3516L50.5371 60.3516ZM38.8184 79.3457C48.1934 79.3457 55.5176 72.0215 55.5176 62.6465C55.5176 53.2715 48.1934 45.9473 38.8184 45.9473C29.4434 45.9473 22.1191 53.2715 22.1191 62.6465C22.1191 72.0215 29.4434 79.3457 38.8184 79.3457ZM38.8184 71.4844C33.8379 71.4844 29.9805 67.627 29.9805 62.6465C29.9805 57.666 33.8379 53.8086 38.8184 53.8086C43.7988 53.8086 47.6562 57.666 47.6562 62.6465C47.6562 67.627 43.7988 71.4844 38.8184 71.4844ZM137.451 79.3457C146.826 79.3457 154.15 72.0215 154.15 62.6465C154.15 53.2715 146.826 45.9473 137.451 45.9473C128.076 45.9473 120.752 53.2715 120.752 62.6465C120.752 72.0215 128.076 79.3457 137.451 79.3457ZM137.451 71.4844C132.471 71.4844 128.613 67.627 128.613 62.6465C128.613 57.666 132.471 53.8086 137.451 53.8086C142.432 53.8086 146.289 57.666 146.289 62.6465C146.289 67.627 142.432 71.4844 137.451 71.4844Z" fill="#000000" fill-opacity="0.85"/>
  <path d="M68.1641 32.8613C68.1641 41.1621 74.2676 46.6797 83.252 46.6797L102.686 46.6797L102.686 51.1719C102.686 53.9062 104.639 54.8828 107.031 53.3203L118.408 45.8496C120.215 44.6777 120.312 42.4316 118.408 41.1133L107.08 33.6914C104.688 32.0801 102.686 33.0078 102.686 35.8398L102.686 40.0879L83.252 40.0879C78.2715 40.0879 75 37.3535 75 33.252C75 28.6621 78.3203 25.5371 83.3008 25.5371L111.768 25.5371C113.818 25.5371 115.234 24.2188 115.234 22.2656C115.234 20.3125 113.818 18.8965 111.719 18.8965L83.3008 18.8965C74.2676 18.8965 68.1641 24.5605 68.1641 32.8613Z" fill="#000000" fill-opacity="0.85"/>
 </g>
</svg>
