<?xml version="1.0" encoding="UTF-8"?>
<!--Generator: Apple Native CoreSVG 232.5-->
<!DOCTYPE svg
PUBLIC "-//W3C//DTD SVG 1.1//EN"
       "http://www.w3.org/Graphics/SVG/1.1/DTD/svg11.dtd">
<svg version="1.1" xmlns="http://www.w3.org/2000/svg" xmlns:xlink="http://www.w3.org/1999/xlink" width="173.193" height="135.205">
 <g>
  <rect height="135.205" opacity="0" width="173.193" x="0" y="0"/>
  <path d="M152.002 46.2402L162.061 49.3164C171.143 52.1484 173.193 57.959 173.193 64.7949L173.193 84.4727C173.193 91.6504 168.896 96.0938 161.865 96.0938L153.218 96.0937C150.991 102.65 144.862 107.227 137.451 107.227C130.041 107.227 123.912 102.65 121.685 96.0937L54.5847 96.0937C52.3579 102.65 46.2288 107.227 38.8184 107.227C31.4079 107.227 25.2788 102.65 23.052 96.0937L12.7441 96.0938C4.63867 96.0938 0 91.3574 0 83.0566L0 73.3887C0 61.7676 7.95898 54.0039 21.4355 52.3438L43.1152 49.707L62.793 37.3535C68.6182 33.7068 73.5018 31.3693 79.2893 29.937L79.5297 38.0566C75.2926 39.3227 71.5208 41.2357 66.9922 44.043L45.8008 57.2266L22.4609 60.1562C13.0371 61.3281 7.86133 66.0645 7.86133 73.3887L7.86133 82.0801C7.86133 86.084 9.7168 88.2324 13.1836 88.2324L22.287 88.2324C23.3561 79.9807 30.2258 73.8281 38.8184 73.8281C47.4109 73.8281 54.2807 79.9807 55.3497 88.2324L120.92 88.2324C121.989 79.9807 128.859 73.8281 137.451 73.8281C146.044 73.8281 152.913 79.9807 153.982 88.2324L160.449 88.2324C163.525 88.2324 165.332 86.084 165.332 82.5195L165.332 64.7949C165.332 61.0352 164.111 58.3496 159.619 57.2266L147.656 54.1016C138.428 41.2598 127.686 35.7422 114.404 35.7422L102.93 35.7422C102.528 35.7422 102.133 35.7429 101.773 35.749L101.995 27.887C102.286 27.8814 102.606 27.8809 102.93 27.8809L114.404 27.8809C134.57 27.8809 145.654 38.6719 152.002 46.2402ZM29.9805 90.5273C29.9805 95.5078 33.8379 99.3652 38.8184 99.3652C43.7988 99.3652 47.6562 95.5078 47.6562 90.5273C47.6562 85.5469 43.7988 81.6895 38.8184 81.6895C33.8379 81.6895 29.9805 85.5469 29.9805 90.5273ZM128.613 90.5273C128.613 95.5078 132.471 99.3652 137.451 99.3652C142.432 99.3652 146.289 95.5078 146.289 90.5273C146.289 85.5469 142.432 81.6895 137.451 81.6895C132.471 81.6895 128.613 85.5469 128.613 90.5273Z" fill="#000000" fill-opacity="0.85"/>
  <path d="M90.625 72.3145C94.0918 72.3145 97.0215 69.4336 97.0215 66.1133C97.0215 62.7441 94.1406 59.9609 90.625 59.9609C87.0605 59.9609 84.1797 62.7441 84.1797 66.1133C84.1797 69.4336 87.1094 72.3145 90.625 72.3145ZM90.625 50.6348C93.0176 50.6348 94.6777 48.9258 94.7754 46.4355L95.8008 11.8652C95.8984 8.74023 93.7988 6.68945 90.625 6.68945C87.4023 6.68945 85.3027 8.74023 85.4004 11.8652L86.4258 46.4355C86.5234 48.9258 88.2324 50.6348 90.625 50.6348Z" fill="#000000" fill-opacity="0.85"/>
 </g>
</svg>
