<?xml version="1.0" encoding="UTF-8"?>
<!--Generator: Apple Native CoreSVG 232.5-->
<!DOCTYPE svg
PUBLIC "-//W3C//DTD SVG 1.1//EN"
       "http://www.w3.org/Graphics/SVG/1.1/DTD/svg11.dtd">
<svg version="1.1" xmlns="http://www.w3.org/2000/svg" xmlns:xlink="http://www.w3.org/1999/xlink" width="139.307" height="126.123">
 <g>
  <rect height="126.123" opacity="0" width="139.307" x="0" y="0"/>
  <path d="M69.6289 126.074C94.2871 126.074 104.785 120.654 104.785 107.373L104.785 22.6074C104.785 8.34961 91.8457 0 69.6289 0C47.4609 0 34.4727 8.34961 34.4727 22.6074L34.4727 107.373C34.4727 120.654 45.0195 126.074 69.6289 126.074ZM69.6289 117.969C50.7812 117.969 42.627 114.795 42.627 106.982L42.627 22.6074C42.627 13.4766 52.5879 8.1543 69.6289 8.1543C86.7188 8.1543 96.6309 13.4766 96.6309 22.6074L96.6309 106.982C96.6309 114.795 88.5254 117.969 69.6289 117.969ZM69.6289 52.4414C74.0234 52.4414 81.3965 52.7832 83.8867 52.7832C87.5488 52.7832 89.1602 51.3672 89.502 47.5586L90.2832 38.3789C90.918 31.3477 85.9863 28.5156 69.6289 28.5156C53.3203 28.5156 48.3887 31.3477 49.0234 38.3789L49.8047 47.5586C50.1465 51.3672 51.709 52.7832 55.4199 52.7832C57.8613 52.7832 65.0391 52.4414 69.6289 52.4414ZM69.6289 104.541C86.084 104.541 91.1133 102.1 90.0879 94.9219L89.4531 90.4785C88.6719 84.6191 83.7891 82.666 69.6289 82.666C55.5176 82.666 50.6348 84.6191 49.8535 90.4785L49.2188 94.9219C48.1934 102.1 53.2227 104.541 69.6289 104.541ZM37.8418 49.2188L37.8418 37.793L30.5176 37.793C27.8809 37.793 25.8789 39.7461 25.8789 42.2852L25.8789 44.6777C25.8789 47.2168 27.8809 49.2188 30.5176 49.2188ZM101.465 49.2188L108.789 49.2188C111.426 49.2188 113.428 47.2168 113.428 44.6777L113.428 42.2852C113.428 39.7461 111.426 37.793 108.789 37.793L101.465 37.793Z" fill="#000000" fill-opacity="0.85"/>
  <path d="M0 38.3789C0 41.0156 2.09961 42.1387 4.39453 40.7227L21.7285 30.1758C23.9746 28.8086 23.9258 26.2207 21.7285 24.9023L4.39453 14.2578C2.09961 12.8418 0 14.0625 0 16.6504Z" fill="#000000" fill-opacity="0.85"/>
 </g>
</svg>
