<?xml version="1.0" encoding="UTF-8"?>
<!--Generator: Apple Native CoreSVG 232.5-->
<!DOCTYPE svg
PUBLIC "-//W3C//DTD SVG 1.1//EN"
       "http://www.w3.org/Graphics/SVG/1.1/DTD/svg11.dtd">
<svg version="1.1" xmlns="http://www.w3.org/2000/svg" xmlns:xlink="http://www.w3.org/1999/xlink" width="158.154" height="97.7051">
 <g>
  <rect height="97.7051" opacity="0" width="158.154" x="0" y="0"/>
  <path d="M0 59.7168C0 62.3535 2.14844 63.4766 4.44336 62.0605L21.7773 51.5137C23.9746 50.1465 23.9258 47.5586 21.7773 46.1914L4.39453 35.5469C2.09961 34.1309 0 35.3516 0 37.9395ZM158.154 59.7168L158.154 37.9395C158.154 35.3516 156.055 34.1797 153.711 35.5469L136.377 46.1914C134.229 47.6074 134.18 50.0977 136.377 51.5137L153.711 62.0605C156.055 63.4277 158.154 62.3535 158.154 59.7168Z" fill="#000000" fill-opacity="0.85"/>
  <path d="M32.7637 26.0742L35.3516 26.0742C37.0117 26.0742 38.2324 24.8535 38.2324 23.1934L38.2324 2.92969C38.2324 1.26953 37.0117 0.0488281 35.3516 0.0488281L32.7637 0.0488281C31.1035 0.0488281 29.8828 1.26953 29.8828 2.92969L29.8828 23.1934C29.8828 24.8535 31.1035 26.0742 32.7637 26.0742ZM32.7637 61.8652L35.3516 61.8652C37.0117 61.8652 38.2324 60.6445 38.2324 58.9844L38.2324 38.7695C38.2324 37.1094 37.0117 35.8887 35.3516 35.8887L32.7637 35.8887C31.1035 35.8887 29.8828 37.1094 29.8828 38.7695L29.8828 58.9844C29.8828 60.6445 31.1035 61.8652 32.7637 61.8652ZM32.7637 97.7051L35.3516 97.7051C37.0117 97.7051 38.2324 96.4844 38.2324 94.873L38.2324 74.5605C38.2324 72.9004 37.0117 71.6797 35.3516 71.6797L32.7637 71.6797C31.1035 71.6797 29.8828 72.9004 29.8828 74.5605L29.8828 94.873C29.8828 96.4844 31.1035 97.7051 32.7637 97.7051ZM122.754 26.0742L125.391 26.0742C127.051 26.0742 128.271 24.8535 128.271 23.1934L128.271 2.92969C128.271 1.26953 127.051 0.0488281 125.391 0.0488281L122.754 0.0488281C121.143 0.0488281 119.922 1.26953 119.922 2.92969L119.922 23.1934C119.922 24.8535 121.143 26.0742 122.754 26.0742ZM122.754 61.8652L125.391 61.8652C127.051 61.8652 128.271 60.6445 128.271 58.9844L128.271 38.7695C128.271 37.1094 127.051 35.8887 125.391 35.8887L122.754 35.8887C121.143 35.8887 119.922 37.1094 119.922 38.7695L119.922 58.9844C119.922 60.6445 121.143 61.8652 122.754 61.8652ZM122.754 97.7051L125.391 97.7051C127.051 97.7051 128.271 96.4844 128.271 94.873L128.271 74.5605C128.271 72.9004 127.051 71.6797 125.391 71.6797L122.754 71.6797C121.143 71.6797 119.922 72.9004 119.922 74.5605L119.922 94.873C119.922 96.4844 121.143 97.7051 122.754 97.7051ZM79.0039 93.1152C96.2891 93.1152 104.053 89.209 104.053 79.248L104.053 39.9414L106.006 39.9414C108.203 39.9414 109.961 38.2324 109.912 36.1328L109.863 34.4238C109.766 32.2754 108.203 30.6152 105.957 30.6152L104.053 30.6152L104.053 20.8496C104.053 10.5957 94.6289 4.54102 79.0527 4.58984C63.5742 4.58984 54.1016 10.5469 54.1016 20.8496L54.1016 30.6152L52.1973 30.6152C49.9512 30.6152 48.3398 32.2754 48.291 34.375L48.2422 36.1328C48.1934 38.2324 49.9512 39.9414 52.1484 39.9414L54.1016 39.9414L54.1016 79.248C54.1016 89.209 61.8164 93.1152 79.0039 93.1152ZM79.0527 86.2305C66.1621 86.1816 61.1328 84.1797 61.1328 79.0527L61.1328 20.8984C61.1328 14.9414 67.334 11.5723 79.0039 11.5723C90.8203 11.5723 97.0703 14.9414 97.0703 20.8496L97.0703 79.0527C97.0703 84.1797 91.9922 86.1816 79.0527 86.2305ZM79.0527 41.7969C82.1289 41.8457 87.3047 42.0898 88.9648 42.1387C91.6016 42.1387 92.9199 41.0156 93.1641 38.1836L93.7012 31.8359C94.1406 26.709 90.7715 24.7559 79.1016 24.707C67.4316 24.707 63.9648 26.709 64.4531 31.8848L65.0391 38.1348C65.2832 41.0156 66.4551 42.1387 69.1895 42.0898C70.8984 42.1387 75.8301 41.8457 79.0527 41.7969ZM79.0527 78.0762C90.6738 78.0273 94.3848 76.3184 93.5547 70.9961L93.1152 67.9199C92.4805 63.623 89.1113 62.3047 79.1016 62.3535C69.043 62.3047 65.6738 63.6719 65.0391 67.9199L64.5996 70.9473C63.7207 76.3672 67.4805 78.0273 79.0527 78.0762Z" fill="#000000" fill-opacity="0.85"/>
 </g>
</svg>
