<?xml version="1.0" encoding="UTF-8"?>
<!--Generator: Apple Native CoreSVG 232.5-->
<!DOCTYPE svg
PUBLIC "-//W3C//DTD SVG 1.1//EN"
       "http://www.w3.org/Graphics/SVG/1.1/DTD/svg11.dtd">
<svg version="1.1" xmlns="http://www.w3.org/2000/svg" xmlns:xlink="http://www.w3.org/1999/xlink" width="94.5312" height="117.041">
 <g>
  <rect height="117.041" opacity="0" width="94.5312" x="0" y="0"/>
  <path d="M47.2656 8.00781C57.7637 8.00781 67.334 11.6699 74.6094 18.2129C76.6113 20.0195 78.9062 20.459 80.6641 18.9453C82.4707 17.334 82.4707 14.6484 80.4199 12.7441C71.6309 4.63867 59.9121 0.0488281 47.2656 0.0488281C34.6191 0.0488281 22.9004 4.63867 14.1113 12.7441C12.0605 14.6484 12.0605 17.334 13.8672 18.9453C15.625 20.459 17.9199 20.0195 19.9219 18.2129C27.1973 11.6699 36.7676 8.00781 47.2656 8.00781Z" fill="#000000" fill-opacity="0.85"/>
  <path d="M47.2656 27.5879C52.3438 27.5879 57.0801 29.0527 60.6934 31.9824C62.793 33.4961 64.9902 34.1797 66.748 32.6172C68.6035 31.0059 68.6523 28.0762 66.4062 26.3184C61.1328 22.0703 54.4434 19.6289 47.2656 19.6289C40.0879 19.6289 33.3984 22.0703 28.125 26.3184C25.8789 28.0762 25.9277 31.0059 27.7832 32.6172C29.541 34.1797 31.6895 33.4961 33.8379 31.9824C37.5977 29.1504 42.1875 27.5879 47.2656 27.5879Z" fill="#000000" fill-opacity="0.85"/>
  <path d="M0 111.377C0 114.502 2.49023 117.041 5.71289 117.041L10.4004 117.041C13.5742 117.041 16.0645 114.502 16.0645 111.377L16.0645 106.104L78.4668 106.104L78.4668 111.377C78.4668 114.502 80.957 117.041 84.1309 117.041L88.8672 117.041C92.041 117.041 94.5312 114.502 94.5312 111.377L94.5312 85.2051C94.5312 78.4668 93.6523 74.3164 89.4043 69.7266L85.5469 65.4785L81.3477 53.7109C79.0039 47.0215 74.4629 44.1406 68.8477 43.5059C66.2109 43.1641 57.4707 42.9688 47.2656 42.9688C37.0605 42.9688 28.3203 43.1641 25.6836 43.5059C20.0684 44.1406 15.5273 47.0215 13.1836 53.7109L8.98438 65.4785L5.12695 69.7266C0.878906 74.3164 0 78.4668 0 85.2051ZM20.3125 65.4785C18.7012 65.4785 18.2617 64.502 18.7988 62.9395L21.2891 55.6152C22.2168 53.0273 23.291 52.3438 25.5859 52.002C28.3691 51.6113 35.9863 51.2695 47.2656 51.2695C58.5449 51.2695 66.1621 51.6113 68.8965 52.002C71.1914 52.3438 72.3145 53.0273 73.2422 55.6152L75.7324 62.9395C76.2695 64.502 75.7812 65.4785 74.1699 65.4785ZM14.7949 90.1855C12.5488 90.1855 11.0352 88.6719 11.0352 86.4746L11.0352 80.2734C11.0352 78.0762 12.5488 76.6113 14.7949 76.6113C17.041 76.6113 18.5059 78.0273 18.5059 80.2734L18.5059 86.4746C18.5059 88.7207 17.041 90.1855 14.7949 90.1855ZM38.2324 88.2812C36.5234 88.2812 35.5469 87.3047 35.5469 85.3516L35.5469 81.3477C35.5469 79.4922 36.5234 78.5156 38.2324 78.5156L56.1523 78.5156C57.9102 78.5156 58.8867 79.4922 58.8867 81.3477L58.8867 85.3516C58.8867 87.3047 57.9102 88.2812 56.1523 88.2812ZM80.127 90.1855C77.9297 90.1855 76.416 88.6719 76.416 86.4746L76.416 80.2734C76.416 78.0762 77.9297 76.6113 80.127 76.6113C82.373 76.6113 83.8867 78.0273 83.8867 80.2734L83.8867 86.4746C83.8867 88.7207 82.373 90.1855 80.127 90.1855Z" fill="#000000" fill-opacity="0.85"/>
 </g>
</svg>
