<?xml version="1.0" encoding="UTF-8"?>
<!--Generator: Apple Native CoreSVG 232.5-->
<!DOCTYPE svg
PUBLIC "-//W3C//DTD SVG 1.1//EN"
       "http://www.w3.org/Graphics/SVG/1.1/DTD/svg11.dtd">
<svg version="1.1" xmlns="http://www.w3.org/2000/svg" xmlns:xlink="http://www.w3.org/1999/xlink" width="173.193" height="90.2832">
 <g>
  <rect height="90.2832" opacity="0" width="173.193" x="0" y="0"/>
  <path d="M152.002 23.7793L162.061 26.8555C171.143 29.6875 173.193 35.498 173.193 42.334L173.193 62.0117C173.193 69.1895 168.896 73.6328 161.865 73.6328L153.218 73.6328C150.991 80.1894 144.862 84.7656 137.451 84.7656C130.041 84.7656 123.912 80.1894 121.685 73.6328L54.5847 73.6328C52.3579 80.1894 46.2288 84.7656 38.8184 84.7656C31.4079 84.7656 25.2788 80.1894 23.052 73.6328L12.7441 73.6328C4.63867 73.6328 0 68.8965 0 60.5957L0 50.9277C0 39.3066 7.95898 31.543 21.4355 29.8828L37.0003 27.9898L42.4812 35.1823L22.4609 37.6953C13.0371 38.8672 7.86133 43.6035 7.86133 50.9277L7.86133 59.6191C7.86133 63.623 9.7168 65.7715 13.1836 65.7715L22.287 65.7715C23.3561 57.5198 30.2258 51.3672 38.8184 51.3672C47.4109 51.3672 54.2807 57.5198 55.3497 65.7715L120.92 65.7715C121.989 57.5198 128.859 51.3672 137.451 51.3672C146.044 51.3672 152.913 57.5198 153.982 65.7715L160.449 65.7715C163.525 65.7715 165.332 63.623 165.332 60.0586L165.332 42.334C165.332 38.5742 164.111 35.8887 159.619 34.7656L147.656 31.6406C138.428 18.7988 127.686 13.2812 114.404 13.2812L102.93 13.2812C84.2773 13.2812 77.7832 14.8926 66.9922 21.582L59.7419 26.0926L54.9502 19.8162L62.793 14.8926C74.8047 7.37305 82.8125 5.41992 102.93 5.41992L114.404 5.41992C134.57 5.41992 145.654 16.2109 152.002 23.7793ZM29.9805 68.0664C29.9805 73.0469 33.8379 76.9043 38.8184 76.9043C43.7988 76.9043 47.6562 73.0469 47.6562 68.0664C47.6562 63.0859 43.7988 59.2285 38.8184 59.2285C33.8379 59.2285 29.9805 63.0859 29.9805 68.0664ZM128.613 68.0664C128.613 73.0469 132.471 76.9043 137.451 76.9043C142.432 76.9043 146.289 73.0469 146.289 68.0664C146.289 63.0859 142.432 59.2285 137.451 59.2285C132.471 59.2285 128.613 63.0859 128.613 68.0664Z" fill="#000000" fill-opacity="0.85"/>
  <path d="M14.4043 13.5742L26.416 13.5742C31.8359 13.5742 33.8867 14.502 36.6211 18.0664L49.7559 35.4004C53.9551 40.918 58.6426 43.3105 65.4785 43.3105L76.1719 43.3105L76.1719 47.5098C76.1719 50.9277 79.1992 51.9531 81.7383 50.293L94.043 42.3828C96.3867 40.8691 96.4355 37.9395 93.9941 36.377L81.7871 28.5156C79.1992 26.8066 76.1719 27.832 76.1719 31.2988L76.1719 35.4492L65.4785 35.4492C60.8887 35.4492 59.0332 34.4238 56.0059 30.5176L42.7734 13.2812C38.6719 7.86133 33.8379 5.71289 26.416 5.71289L14.4043 5.71289C12.2559 5.71289 10.498 7.4707 10.498 9.61914C10.498 11.7676 12.2559 13.5742 14.4043 13.5742Z" fill="#000000" fill-opacity="0.85"/>
 </g>
</svg>
