<?xml version="1.0" encoding="UTF-8"?>
<!--Generator: Apple Native CoreSVG 232.5-->
<!DOCTYPE svg
PUBLIC "-//W3C//DTD SVG 1.1//EN"
       "http://www.w3.org/Graphics/SVG/1.1/DTD/svg11.dtd">
<svg version="1.1" xmlns="http://www.w3.org/2000/svg" xmlns:xlink="http://www.w3.org/1999/xlink" width="179.736" height="77.6855">
 <g>
  <rect height="77.6855" opacity="0" width="179.736" x="0" y="0"/>
  <path d="M145.508 17.7246L151.221 22.3145L164.6 8.64258C165.723 7.4707 167.09 7.03125 168.652 7.03125L176.074 7.03125C178.32 7.03125 179.736 5.61523 179.736 3.51562C179.736 1.41602 178.32 0 176.074 0L169.482 0C165.332 0 161.719 1.17188 158.936 4.05273ZM12.7441 68.3105L20.3613 68.3105C20.0684 66.8457 19.8242 65.332 19.8242 63.7207C19.8242 53.2227 28.125 44.9707 38.5742 44.9707C49.0723 44.9707 57.3242 53.2227 57.3242 63.7207C57.3242 65.332 57.1289 66.8457 56.7871 68.3105L118.994 68.3105C118.701 66.8457 118.457 65.332 118.457 63.7207C118.457 53.2227 126.758 44.9707 137.207 44.9707C147.705 44.9707 155.957 53.2227 155.957 63.7207C155.957 65.332 155.762 66.8457 155.42 68.3105L161.865 68.3105C168.896 68.3105 173.193 63.8672 173.193 56.6406L173.193 37.0117C173.193 30.1758 171.143 24.3652 162.061 21.5332L152.002 18.457C145.654 10.8887 134.57 0.0976562 114.404 0.0976562L102.93 0.0976562C82.8125 0.0976562 74.8047 2.05078 62.793 9.57031L43.1152 21.9238L21.4355 24.5605C7.95898 26.2207 0 33.9844 0 45.6055L0 55.2734C0 63.5742 4.63867 68.3105 12.7441 68.3105ZM38.5742 76.7578C45.8984 76.7578 51.6602 70.9961 51.6602 63.7207C51.6602 56.4453 45.8496 50.6348 38.5742 50.6348C31.3477 50.6348 25.5371 56.4453 25.5371 63.7207C25.5371 70.9473 31.3477 76.7578 38.5742 76.7578ZM137.207 76.7578C144.482 76.7578 150.293 70.9473 150.293 63.7207C150.293 56.4453 144.482 50.6348 137.207 50.6348C130.029 50.6348 124.17 56.4941 124.17 63.7207C124.17 70.9473 129.98 76.7578 137.207 76.7578Z" fill="#000000" fill-opacity="0.85"/>
 </g>
</svg>
