<?xml version="1.0" encoding="UTF-8"?>
<!--Generator: Apple Native CoreSVG 232.5-->
<!DOCTYPE svg
PUBLIC "-//W3C//DTD SVG 1.1//EN"
       "http://www.w3.org/Graphics/SVG/1.1/DTD/svg11.dtd">
<svg version="1.1" xmlns="http://www.w3.org/2000/svg" xmlns:xlink="http://www.w3.org/1999/xlink" width="173.193" height="143.408">
 <g>
  <rect height="143.408" opacity="0" width="173.193" x="0" y="0"/>
  <path d="M152.002 50.3418L162.061 53.418C171.143 56.25 173.193 62.0605 173.193 68.8965L173.193 88.5742C173.193 95.752 168.896 100.195 161.865 100.195L153.218 100.195C150.991 106.752 144.862 111.328 137.451 111.328C130.041 111.328 123.912 106.752 121.685 100.195L54.5847 100.195C52.3579 106.752 46.2288 111.328 38.8184 111.328C31.4079 111.328 25.2788 106.752 23.052 100.195L12.7441 100.195C4.63867 100.195 0 95.459 0 87.1582L0 77.4902C0 65.8691 7.95898 58.1055 21.4355 56.4453L43.1152 53.8086L62.793 41.4551C65.596 39.7003 68.1811 38.2487 70.752 37.0651L70.752 44.043C70.752 44.6759 70.7861 45.2879 70.8651 45.8698C69.6198 46.5533 68.3395 47.3093 66.9922 48.1445L45.8008 61.3281L22.4609 64.2578C13.0371 65.4297 7.86133 70.166 7.86133 77.4902L7.86133 86.1816C7.86133 90.1855 9.7168 92.334 13.1836 92.334L22.287 92.334C23.3561 84.0823 30.2258 77.9297 38.8184 77.9297C47.4109 77.9297 54.2807 84.0823 55.3497 92.334L120.92 92.334C121.989 84.0823 128.859 77.9297 137.451 77.9297C146.044 77.9297 152.913 84.0823 153.982 92.334L160.449 92.334C163.525 92.334 165.332 90.1855 165.332 86.6211L165.332 68.8965C165.332 65.1367 164.111 62.4512 159.619 61.3281L147.656 58.2031C139.41 46.7284 129.955 41.1015 118.555 40.0474L118.555 32.1541C136.121 33.4996 146.105 43.3112 152.002 50.3418ZM29.9805 94.6289C29.9805 99.6094 33.8379 103.467 38.8184 103.467C43.7988 103.467 47.6562 99.6094 47.6562 94.6289C47.6562 89.6484 43.7988 85.791 38.8184 85.791C33.8379 85.791 29.9805 89.6484 29.9805 94.6289ZM128.613 94.6289C128.613 99.6094 132.471 103.467 137.451 103.467C142.432 103.467 146.289 99.6094 146.289 94.6289C146.289 89.6484 142.432 85.791 137.451 85.791C132.471 85.791 128.613 89.6484 128.613 94.6289Z" fill="#000000" fill-opacity="0.85"/>
  <path d="M81.543 21.2891L87.9395 21.2402L87.9395 14.209C87.9395 9.13086 90.4297 6.39648 94.6289 6.39648C98.877 6.39648 101.318 9.13086 101.318 14.209L101.318 21.2402L107.715 21.2891L107.715 14.7461C107.715 5.9082 102.441 0 94.6289 0C86.8652 0 81.543 5.9082 81.543 14.7461ZM82.2754 49.2676L107.031 49.2676C110.352 49.2676 111.914 47.6074 111.914 44.043L111.914 25.0488C111.914 21.4844 110.352 19.8242 107.031 19.8242L82.2754 19.8242C78.9551 19.8242 77.3926 21.4844 77.3926 25.0488L77.3926 44.043C77.3926 47.6074 78.9551 49.2676 82.2754 49.2676Z" fill="#000000" fill-opacity="0.85"/>
 </g>
</svg>
