<?xml version="1.0" encoding="UTF-8"?>
<!--Generator: Apple Native CoreSVG 232.5-->
<!DOCTYPE svg
PUBLIC "-//W3C//DTD SVG 1.1//EN"
       "http://www.w3.org/Graphics/SVG/1.1/DTD/svg11.dtd">
<svg version="1.1" xmlns="http://www.w3.org/2000/svg" xmlns:xlink="http://www.w3.org/1999/xlink" width="111.906" height="99.1699">
 <g>
  <rect height="99.1699" opacity="0" width="111.906" x="0" y="0"/>
  <path d="M14.571 75.3418L14.571 96.0449C14.571 97.7051 13.3503 98.9258 11.739 98.9258L9.1023 98.9258C7.44214 98.9258 6.22144 97.7051 6.22144 96.0449L6.22144 75.3418C6.22144 73.6816 7.44214 72.4609 9.1023 72.4609L11.739 72.4609C13.3503 72.4609 14.571 73.6816 14.571 75.3418ZM105.684 75.3418L105.684 96.0449C105.684 97.6562 104.464 98.877 102.803 98.877L100.216 98.877C98.5554 98.877 97.3347 97.6562 97.3347 96.0449L97.3347 75.3418C97.3347 73.6816 98.5554 72.4609 100.216 72.4609L102.803 72.4609C104.464 72.4609 105.684 73.6816 105.684 75.3418ZM14.571 39.1113L14.571 59.7656C14.571 61.4258 13.3503 62.6465 11.739 62.6465L9.1023 62.6465C7.44214 62.6465 6.22144 61.4258 6.22144 59.7656L6.22144 39.1113C6.22144 37.5 7.44214 36.2793 9.1023 36.2793L11.739 36.2793C13.3503 36.2793 14.571 37.5 14.571 39.1113ZM14.571 2.88086L14.571 23.584C14.571 25.2441 13.3503 26.4648 11.739 26.4648L9.1023 26.4648C7.44214 26.4648 6.22144 25.2441 6.22144 23.584L6.22144 2.88086C6.22144 1.2207 7.44214 0 9.1023 0L11.739 0C13.3503 0 14.571 1.2207 14.571 2.88086ZM105.684 2.88086L105.684 18.8825C103.491 16.6582 100.696 14.5209 97.3347 12.5264L97.3347 2.88086C97.3347 1.2207 98.5554 0 100.216 0L102.803 0C104.464 0 105.684 1.2207 105.684 2.88086Z" fill="#000000" fill-opacity="0.85"/>
  <path d="M52.1199 88.623C67.1101 97.2168 75.8015 97.7539 80.782 89.1602L109.932 38.5742C115.108 29.6875 109.932 19.7266 96.407 11.9629C82.9793 4.24805 71.7976 4.6875 66.6707 13.5742L37.4714 64.1602C32.491 72.7539 37.2273 80.0293 52.1199 88.623ZM77.95 43.9453C75.0691 42.2852 70.5281 40.0879 69.0144 39.1113C66.5242 37.7441 66.1335 36.084 67.3054 33.4961L69.991 27.5879C72.2859 22.6562 76.3875 22.7051 86.739 28.7109C97.1882 34.7168 99.1902 38.2324 96.1628 42.627L92.4031 47.9492C90.6453 50.4395 88.9851 50.7324 86.6414 49.3652C85.1277 48.4863 80.6843 45.5566 77.95 43.9453ZM59.2976 76.2695C48.9949 70.3125 46.5535 66.8945 50.0203 62.5L52.0222 60.0098C54.8054 56.543 58.5164 57.0801 67.4031 62.2559C76.3875 67.3828 78.6824 70.2637 77.0222 74.4629L75.8992 77.4414C73.946 82.6172 69.6492 82.2754 59.2976 76.2695ZM60.4207 31.9824L65.0593 23.9746L60.1277 21.0938C58.2234 19.9707 55.9285 20.5566 54.8543 22.4121L53.9753 23.877C52.9011 25.6836 53.5847 28.0762 55.4402 29.1504ZM97.1394 53.1738L102.071 56.0547C103.975 57.1777 106.368 56.543 107.393 54.7363L108.223 53.2227C109.249 51.3672 108.663 49.0723 106.71 47.9492L101.778 45.1172Z" fill="#000000" fill-opacity="0.85"/>
 </g>
</svg>
