<?xml version="1.0" encoding="UTF-8"?>
<!--Generator: Apple Native CoreSVG 232.5-->
<!DOCTYPE svg
PUBLIC "-//W3C//DTD SVG 1.1//EN"
       "http://www.w3.org/Graphics/SVG/1.1/DTD/svg11.dtd">
<svg version="1.1" xmlns="http://www.w3.org/2000/svg" xmlns:xlink="http://www.w3.org/1999/xlink" width="140.688" height="115.565">
 <g>
  <rect height="115.565" opacity="0" width="140.688" x="0" y="0"/>
  <path d="M24.9092 42.1818L0.543952 90.3752C-0.725579 92.8654 0.202155 95.7951 3.96192 95.7951L10.3584 95.7951C13.2881 95.7951 14.7529 94.3791 15.5342 92.2795L35.3096 42.9631C35.9932 41.3029 35.2119 39.9357 33.5029 39.9357L28.376 39.9357C26.7158 39.9357 25.6904 40.717 24.9092 42.1818ZM115.778 42.1818C114.997 40.717 113.972 39.9357 112.312 39.9357L107.185 39.9357C105.476 39.9357 104.743 41.3029 105.378 42.9631L125.153 92.2795C125.983 94.3791 127.399 95.7951 130.329 95.7951L136.726 95.7951C140.534 95.7951 141.413 92.8654 140.144 90.3752Z" fill="#000000" fill-opacity="0.85"/>
  <path d="M43.1709 51.0685C43.1709 52.7775 44.4893 54.0959 46.1982 54.0959L48.8838 54.0959C50.6416 54.0959 51.96 52.7775 51.96 51.0685L51.96 47.7482L88.6787 47.7482L88.6787 51.0685C88.6787 52.7775 89.9971 54.0959 91.7061 54.0959L94.4404 54.0959C96.1494 54.0959 97.4678 52.7775 97.4678 51.0685L97.4678 35.7365C97.4678 31.8791 96.9307 29.5353 94.5869 26.9474L92.2432 24.4572L89.8506 17.5236C88.5322 13.7638 85.9932 12.2013 82.8193 11.8596C81.2568 11.6642 76.2275 11.5178 70.3193 11.5178C64.3623 11.5178 59.333 11.6642 57.8193 11.8596C54.6455 12.2013 52.1065 13.7638 50.7881 17.5236L48.3467 24.4572L46.0518 26.9474C43.708 29.5353 43.1709 31.8791 43.1709 35.7365ZM54.6455 24.6037C53.5713 24.6037 53.1807 23.7736 53.5225 22.7482L54.9385 18.4513C55.4756 16.8888 56.3057 16.3517 57.7217 16.1564C59.333 15.9611 63.7764 15.7658 70.3193 15.7658C76.8623 15.7658 81.3057 15.9611 82.8682 16.1564C84.2842 16.3517 85.1143 16.8888 85.6514 18.4513L87.1162 22.7482C87.458 23.7736 87.0674 24.6037 85.9443 24.6037ZM51.4717 38.9103C50.0557 38.9103 49.0303 37.8849 49.0303 36.4689L49.0303 32.9045C49.0303 31.4885 50.0557 30.5119 51.4717 30.5119C52.8877 30.5119 53.9131 31.4885 53.9131 32.9045L53.9131 36.4689C53.9131 37.9338 52.8877 38.9103 51.4717 38.9103ZM65.0947 37.8361C63.9717 37.8361 63.2393 37.0549 63.2393 35.8342L63.2393 33.5392C63.2393 32.3185 63.9717 31.5861 65.0947 31.5861L75.4463 31.5861C76.6182 31.5861 77.3506 32.3185 77.3506 33.5392L77.3506 35.8342C77.3506 37.0549 76.6182 37.8361 75.4463 37.8361ZM89.4111 38.9103C88.044 38.9103 86.9697 37.8849 86.9697 36.4689L86.9697 32.9045C86.9697 31.4885 88.044 30.5119 89.4111 30.5119C90.8272 30.5119 91.8525 31.4885 91.8525 32.9045L91.8525 36.4689C91.8525 37.9338 90.8272 38.9103 89.4111 38.9103Z" fill="#000000" fill-opacity="0.85"/>
  <path d="M77.1065 64.2033L74.7139 74.1642L62.3604 61.4689C61.3838 60.3947 59.9678 61.176 60.5049 62.6408L64.8994 75.6779L59.1377 73.09C57.8193 72.5041 56.8428 73.4806 57.8193 74.7502L61.042 78.9494L46.1982 76.8498C44.4893 76.6056 44.0986 78.3146 45.417 79.0959L59.4307 87.5431L50.9834 90.6681C49.5674 91.2053 49.8115 92.8166 51.3252 92.9142L60.7002 93.5978L48.0049 102.192C46.833 102.973 47.2725 104.877 48.9815 104.438L65.0459 100.824L65.1924 114.399C65.1924 115.766 66.5107 115.912 67.0967 114.936L77.4482 97.9435L94.7822 113.569C96.0518 114.692 97.6143 113.52 96.7842 111.957L86.5303 92.7189L96.9795 89.6428C97.9072 89.3498 97.9072 88.2267 97.0772 87.8361L87.751 84.0763L94.3916 65.1799C94.8311 64.008 93.6104 62.9826 92.585 64.008L81.794 74.2131L79.2061 64.2033C78.8154 62.8361 77.3994 62.7873 77.1065 64.2033Z" fill="#000000" fill-opacity="0.85"/>
 </g>
</svg>
