<?xml version="1.0" encoding="UTF-8"?>
<!--Generator: Apple Native CoreSVG 232.5-->
<!DOCTYPE svg
PUBLIC "-//W3C//DTD SVG 1.1//EN"
       "http://www.w3.org/Graphics/SVG/1.1/DTD/svg11.dtd">
<svg version="1.1" xmlns="http://www.w3.org/2000/svg" xmlns:xlink="http://www.w3.org/1999/xlink" width="131.738" height="89.4043">
 <g>
  <rect height="89.4043" opacity="0" width="131.738" x="0" y="0"/>
  <path d="M125.342 77.4414C128.809 77.4414 131.738 74.6094 131.738 71.2891C131.738 67.9199 128.857 65.1367 125.342 65.1367C121.777 65.1367 118.945 67.9199 118.945 71.2891C118.945 74.6094 121.875 77.4414 125.342 77.4414ZM125.342 55.7617C127.734 55.7617 129.395 54.1016 129.492 51.6113L130.518 17.041C130.615 13.916 128.564 11.8164 125.342 11.8164C122.119 11.8164 120.02 13.916 120.117 17.041L121.143 51.6113C121.24 54.1016 122.949 55.7617 125.342 55.7617Z" fill="#000000" fill-opacity="0.85"/>
  <path d="M15.332 89.4043L88.1348 89.4043C98.4863 89.4043 103.467 84.5215 103.467 74.3164L103.467 14.7949C103.467 5.0293 98.4375 0.0488281 88.5742 0.0488281L64.8926 0.0488281C56.9336 0.0488281 51.9531 1.75781 45.5078 6.5918L7.56836 35.4492C1.95312 39.6973 0 43.457 0 50.4395L0 74.3164C0 84.5215 5.0293 89.4043 15.332 89.4043ZM15.625 44.3848C13.0371 44.3848 12.5 41.6016 14.502 40.1367L50.8789 12.3047C55.0293 8.98438 58.6426 7.91016 64.8926 7.91016L88.4277 7.91016C92.9688 7.91016 95.6055 10.4492 95.6055 15.1855L95.6055 37.1094C95.6055 41.7969 92.9199 44.3848 88.4277 44.3848Z" fill="#000000" fill-opacity="0.85"/>
 </g>
</svg>
