<?xml version="1.0" encoding="UTF-8"?>
<!--Generator: Apple Native CoreSVG 232.5-->
<!DOCTYPE svg
PUBLIC "-//W3C//DTD SVG 1.1//EN"
       "http://www.w3.org/Graphics/SVG/1.1/DTD/svg11.dtd">
<svg version="1.1" xmlns="http://www.w3.org/2000/svg" xmlns:xlink="http://www.w3.org/1999/xlink" width="113.086" height="126.123">
 <g>
  <rect height="126.123" opacity="0" width="113.086" x="0" y="0"/>
  <path d="M56.543 126.074C81.2012 126.074 91.6992 120.654 91.6992 107.373L91.6992 22.6074C91.6992 8.34961 78.7598 0 56.543 0C34.375 0 21.3867 8.34961 21.3867 22.6074L21.3867 107.373C21.3867 120.654 31.9336 126.074 56.543 126.074ZM56.543 52.002C51.7578 52.002 44.4336 52.3438 41.8945 52.3438C38.0859 52.3438 36.4746 50.8789 36.084 46.9727L35.3027 37.5C34.6191 30.2246 39.7461 27.2949 56.543 27.2949C73.3887 27.2949 78.5156 30.2246 77.832 37.5L77.002 46.9727C76.6602 50.8789 75 52.3438 71.2402 52.3438C68.6523 52.3438 61.084 52.002 56.543 52.002ZM56.543 105.762C39.5996 105.762 34.4238 103.223 35.498 95.8008L36.1328 91.2109C36.9629 85.2051 41.9922 83.1543 56.543 83.1543C71.1426 83.1543 76.1719 85.2051 77.002 91.2109L77.6367 95.8008C78.7109 103.223 73.5352 105.762 56.543 105.762ZM25.0488 34.0332L1.17188 57.7637C-0.390625 59.375-0.390625 61.9629 1.17188 63.5742C2.7832 65.1367 5.37109 65.1855 6.98242 63.5742L25.0488 45.5078ZM88.0371 34.0332L88.0371 45.5078L106.104 63.5742C107.764 65.1855 110.303 65.1367 111.914 63.5742C113.477 61.9629 113.477 59.375 111.914 57.7637ZM25.0488 70.9473L1.17188 94.6777C-0.390625 96.2402-0.390625 98.877 1.17188 100.488C2.7832 102.051 5.37109 102.1 6.98242 100.488L25.0488 82.4219ZM88.0371 70.9473L88.0371 82.4219L106.104 100.488C107.764 102.1 110.303 102.051 111.914 100.488C113.477 98.877 113.477 96.2402 111.914 94.6777Z" fill="#000000" fill-opacity="0.85"/>
 </g>
</svg>
