<?xml version="1.0" encoding="UTF-8"?>
<!--Generator: Apple Native CoreSVG 232.5-->
<!DOCTYPE svg
PUBLIC "-//W3C//DTD SVG 1.1//EN"
       "http://www.w3.org/Graphics/SVG/1.1/DTD/svg11.dtd">
<svg version="1.1" xmlns="http://www.w3.org/2000/svg" xmlns:xlink="http://www.w3.org/1999/xlink" width="175.049" height="89.4043">
 <g>
  <rect height="89.4043" opacity="0" width="175.049" x="0" y="0"/>
  <path d="M15.332 89.4043L88.1348 89.4043C98.4863 89.4043 103.467 84.5215 103.467 74.3164L103.467 14.7949C103.467 5.0293 98.4375 0.0488281 88.5742 0.0488281L64.8926 0.0488281C56.9336 0.0488281 51.9531 1.75781 45.5078 6.5918L7.56836 35.4492C1.95312 39.6973 0 43.457 0 50.4395L0 74.3164C0 84.5215 5.0293 89.4043 15.332 89.4043ZM15.625 44.3848C13.0371 44.3848 12.5 41.6016 14.502 40.1367L50.8789 12.3047C55.0293 8.98438 58.6426 7.91016 64.8926 7.91016L88.4277 7.91016C92.9688 7.91016 95.6055 10.4492 95.6055 15.1855L95.6055 37.1094C95.6055 41.7969 92.9199 44.3848 88.4277 44.3848Z" fill="#000000" fill-opacity="0.85"/>
  <path d="M125.391 71.8262C126.904 71.8262 127.832 71.2891 129.346 69.873L148.291 50.7812L167.188 69.8242C168.652 71.2402 169.58 71.7773 171.094 71.7773C173.193 71.7773 175.049 69.9707 175.049 67.9199C175.049 66.5039 174.561 65.5762 173.291 64.2578L154.102 44.9219L173.291 25.5859C174.561 24.2676 175.049 23.3398 175.049 21.9238C175.049 19.873 173.242 18.1152 171.143 18.1152C169.629 18.1152 168.701 18.6523 167.188 20.0684L148.242 39.1113L129.395 20.0684C127.93 18.6523 126.953 18.1152 125.488 18.1152C123.34 18.1152 121.533 19.873 121.533 21.9727C121.533 23.4375 122.021 24.4141 123.242 25.6836L142.432 44.9219L123.242 64.3066C121.973 65.625 121.484 66.5527 121.484 68.0176C121.484 70.0684 123.291 71.8262 125.391 71.8262Z" fill="#000000" fill-opacity="0.85"/>
 </g>
</svg>
