<?xml version="1.0" encoding="UTF-8"?>
<!--Generator: Apple Native CoreSVG 232.5-->
<!DOCTYPE svg
PUBLIC "-//W3C//DTD SVG 1.1//EN"
       "http://www.w3.org/Graphics/SVG/1.1/DTD/svg11.dtd">
<svg version="1.1" xmlns="http://www.w3.org/2000/svg" xmlns:xlink="http://www.w3.org/1999/xlink" width="123.808" height="126.611">
 <g>
  <rect height="126.611" opacity="0" width="123.808" x="0" y="0"/>
  <path d="M12.2212 114.307C19.6919 121.826 29.2134 126.562 39.565 126.562C42.0552 126.562 43.7642 124.951 43.7642 122.656C43.7642 120.557 42.104 119.189 39.3208 118.994C31.313 118.506 23.5005 115.186 17.397 109.131C11.3423 103.027 8.02199 95.2637 7.53371 87.207C7.28957 84.082 6.02003 82.8613 3.57863 82.8613C1.67433 82.8613-0.181138 84.2285 0.014175 86.9141C0.648941 97.2656 4.65285 106.836 12.2212 114.307ZM111.586 114.307C119.155 106.836 123.159 97.2656 123.793 86.9141C123.989 84.2285 122.133 82.8613 120.229 82.8613C117.836 82.8613 116.518 84.082 116.274 87.207C115.786 95.2637 112.514 103.027 106.411 109.131C100.307 115.186 92.5435 118.506 84.4868 118.994C81.7525 119.189 80.0923 120.557 80.0923 122.656C80.0923 124.951 81.7525 126.562 84.2915 126.562C94.5943 126.562 104.116 121.826 111.586 114.307Z" fill="#000000" fill-opacity="0.85"/>
  <path d="M24.3306 102.148C29.3599 107.178 36.1958 109.668 40.395 109.668C42.69 109.668 44.2525 108.203 44.2525 106.104C44.2525 104.15 42.8853 102.588 39.8579 102.148C36.0982 101.758 32.5825 100 29.5064 96.9727C26.5767 93.9941 24.8677 90.3809 24.3306 86.2305C23.8911 83.4961 22.8169 82.373 20.4243 82.373C18.2759 82.373 16.5669 84.0332 16.9087 86.6699C17.5435 92.627 20.0825 97.9004 24.3306 102.148ZM99.4771 102.148C103.774 97.9004 106.264 92.627 106.899 86.6699C107.241 84.0332 105.532 82.373 103.383 82.373C100.991 82.373 99.9653 83.4961 99.5259 86.2305C98.94 90.3809 97.231 93.9941 94.3013 96.9727C91.2251 100 87.7095 101.758 83.9497 102.148C80.9224 102.588 79.604 104.15 79.604 106.104C79.5552 108.203 81.1665 109.668 83.4126 109.668C87.6118 109.668 94.4478 107.178 99.4771 102.148Z" fill="#000000" fill-opacity="0.85"/>
  <path d="M61.9282 96.1426C80.6782 96.1426 89.0767 91.8945 89.0767 81.1035L89.0767 17.7246C89.0767 6.5918 78.8228 0 61.9282 0C45.0337 0 34.7798 6.5918 34.7798 17.7246L34.7798 81.1035C34.7798 91.8945 43.1294 96.1426 61.9282 96.1426ZM61.8794 40.1855C58.5103 40.1855 52.7974 40.4785 50.8931 40.4785C47.9146 40.4785 46.4985 39.209 46.2544 36.0352L45.6196 29.0039C45.1314 23.1934 48.94 20.9961 61.8794 20.9961C74.9165 20.9961 78.7251 23.1934 78.2368 29.0039L77.6509 36.0352C77.3579 39.209 75.9907 40.4785 72.9634 40.4785C71.0103 40.4785 65.5415 40.1855 61.8794 40.1855ZM61.8794 80.5664C48.94 80.5664 44.8384 78.6621 45.7661 72.6562L46.3032 69.2383C47.0357 64.4531 50.7466 62.9395 61.8794 62.9395C73.1099 62.9395 76.8208 64.4531 77.6021 69.2383L78.0903 72.6562C79.0669 78.6621 74.9165 80.5664 61.8794 80.5664ZM38.9302 38.4766L38.9302 28.3203L32.6802 28.3203C30.2388 28.3203 28.3833 30.127 28.3833 32.4707L28.3833 34.3262C28.3833 36.6211 30.2388 38.4766 32.6802 38.4766ZM84.9263 38.4766L91.1763 38.4766C93.6177 38.4766 95.4732 36.6211 95.4732 34.3262L95.4732 32.4707C95.4732 30.127 93.6177 28.3203 91.1763 28.3203L84.9263 28.3203Z" fill="#000000" fill-opacity="0.85"/>
 </g>
</svg>
