<?xml version="1.0" encoding="UTF-8"?>
<!--Generator: Apple Native CoreSVG 232.5-->
<!DOCTYPE svg
PUBLIC "-//W3C//DTD SVG 1.1//EN"
       "http://www.w3.org/Graphics/SVG/1.1/DTD/svg11.dtd">
<svg version="1.1" xmlns="http://www.w3.org/2000/svg" xmlns:xlink="http://www.w3.org/1999/xlink" width="155.957" height="90.7715">
 <g>
  <rect height="90.7715" opacity="0" width="155.957" x="0" y="0"/>
  <path d="M78.2669 0.290265C75.1574 0.399816 72.8298 0.534601 71.582 0.683594C66.8238 1.25602 62.8257 3.21775 60.0155 6.40126C59.2764 6.39803 58.5249 6.39648 57.7637 6.39648C44.9707 6.39648 35.0586 6.83594 31.9336 7.22656C27.4902 7.76367 24.4141 9.86328 22.8516 13.2324C20.752 17.7246 17.5781 27.5879 16.2598 34.668L11.2793 41.2109C7.4707 46.1914 6.39648 49.3164 6.39648 56.0059L6.39648 62.6465C6.39648 66.3574 7.86133 68.5059 12.0117 68.9941C17.5252 69.6881 29.7059 70.2604 41.9195 70.5413C42.21 71.0038 42.5418 71.4335 42.9199 71.8249L42.9199 76.9574C35.3593 76.7861 27.6197 76.4928 21.1914 76.1154L21.1914 84.1309C21.1914 87.7441 18.3594 90.5762 14.6973 90.5762L8.98438 90.5762C5.32227 90.5762 2.49023 87.7441 2.49023 84.1309L2.49023 71.7758C0.858093 70.012 0 67.605 0 64.5996L0 56.0059C0 47.7539 1.66016 43.1641 6.20117 37.3047L10.3027 31.9824C12.1094 23.1934 15.332 13.9648 17.041 10.3516C19.6289 4.83398 24.707 1.46484 31.2012 0.683594C34.4727 0.292969 45.166 0 57.7637 0C65.8942 0 73.2174 0.100911 78.2669 0.290265ZM30.4199 56.1035C30.4199 60.5469 27.002 63.9648 22.5586 63.9648C18.1152 63.9648 14.6973 60.5469 14.6973 56.1035C14.6973 51.6113 18.1152 48.2422 22.5586 48.2422C27.002 48.2422 30.4199 51.6113 30.4199 56.1035ZM50.7324 31.9824L50.6675 32.0656C39.2125 32.1766 31.6413 32.5579 25.0977 33.0078C23.2422 33.1055 22.5098 32.4219 22.9004 30.7129C24.1211 25.5371 26.3184 18.7988 27.8809 16.1133C29.1504 13.916 30.5664 12.9395 33.1055 12.5977C36.5811 12.1215 44.2814 11.7847 56.8091 11.7692C55.0519 16.0146 52.2945 24.172 50.7324 31.9824Z" fill="#000000" fill-opacity="0.85"/>
  <path d="M63.3301 30.7129C62.9395 32.4219 63.6719 33.1055 65.4785 33.0078C73.291 32.4707 82.5684 32.0312 98.1934 32.0312C113.77 32.0312 123.047 32.4707 130.859 33.0078C132.715 33.1055 133.398 32.4219 133.008 30.7129C131.836 25.5371 129.639 18.7988 128.076 16.1133C126.807 13.916 125.391 12.9395 122.852 12.5977C119.287 12.1094 111.279 11.7676 98.1934 11.7676C85.0586 11.7676 77.0508 12.1094 73.5352 12.5977C70.9961 12.9395 69.5312 13.916 68.2617 16.1133C66.748 18.7988 64.502 25.5371 63.3301 30.7129ZM62.9883 63.9648C67.4316 63.9648 70.8008 60.5469 70.8008 56.1035C70.8008 51.6113 67.4316 48.2422 62.9883 48.2422C58.4961 48.2422 55.127 51.6113 55.127 56.1035C55.127 60.5469 58.4961 63.9648 62.9883 63.9648ZM85.2539 62.0117L111.084 62.0117C114.453 62.0117 116.748 59.7168 116.748 56.3477C116.748 53.0273 114.453 50.7324 111.084 50.7324L85.2539 50.7324C81.9336 50.7324 79.5898 53.0273 79.5898 56.3477C79.5898 59.7168 81.9336 62.0117 85.2539 62.0117ZM133.398 63.9648C137.842 63.9648 141.26 60.5469 141.26 56.1035C141.26 51.6113 137.842 48.2422 133.398 48.2422C128.906 48.2422 125.537 51.6113 125.537 56.1035C125.537 60.5469 128.906 63.9648 133.398 63.9648ZM98.1934 77.1484C114.6 77.1484 136.377 76.3184 145.654 75.2441C152.246 74.5117 155.957 70.8496 155.957 64.5996L155.957 56.0059C155.957 47.7539 154.297 43.1641 149.756 37.3047L145.654 31.9824C143.848 23.1934 140.625 13.9648 138.916 10.3516C136.328 4.83398 131.25 1.5625 124.756 0.683594C121.484 0.244141 110.791 0 98.1934 0C85.5469 0 74.8535 0.292969 71.582 0.683594C65.0879 1.46484 60.0098 4.83398 57.4219 10.3516C55.7617 13.9648 52.4902 23.1934 50.7324 31.9824L46.582 37.3047C42.041 43.1641 40.3809 47.7539 40.3809 56.0059L40.3809 64.5996C40.3809 70.8496 44.0918 74.5117 50.7324 75.2441C59.9609 76.3184 81.7383 77.1484 98.1934 77.1484ZM98.1934 70.752C81.5918 70.752 60.2539 69.9707 52.4414 68.9941C48.291 68.5059 46.7773 66.3574 46.7773 62.6465L46.7773 56.0059C46.7773 49.3164 47.9004 46.1914 51.6602 41.2109L56.6895 34.668C57.959 27.5879 61.1816 17.7246 63.2324 13.2324C64.8438 9.86328 67.9199 7.76367 72.3633 7.22656C75.4883 6.83594 85.3516 6.39648 98.1934 6.39648C110.986 6.39648 121.094 6.83594 123.926 7.22656C128.516 7.8125 131.543 9.91211 133.105 13.2324C135.254 17.7246 138.379 27.5879 139.697 34.668L144.678 41.2109C148.486 46.1914 149.561 49.3164 149.561 56.0059L149.561 62.6465C149.561 66.3574 148.096 68.5059 143.896 68.9941C136.084 69.9707 114.795 70.752 98.1934 70.752ZM49.3652 90.5762L55.127 90.5762C58.7891 90.5762 61.5723 87.7441 61.5723 84.1309L61.5723 72.5098L42.9199 69.8242L42.9199 84.1309C42.9199 87.7441 45.7031 90.5762 49.3652 90.5762ZM141.26 90.5762L146.973 90.5762C150.635 90.5762 153.467 87.7441 153.467 84.1309L153.467 69.8242L134.766 72.5098L134.766 84.1309C134.766 87.7441 137.598 90.5762 141.26 90.5762Z" fill="#000000" fill-opacity="0.85"/>
 </g>
</svg>
