<?xml version="1.0" encoding="UTF-8"?>
<!--Generator: Apple Native CoreSVG 232.5-->
<!DOCTYPE svg
PUBLIC "-//W3C//DTD SVG 1.1//EN"
       "http://www.w3.org/Graphics/SVG/1.1/DTD/svg11.dtd">
<svg version="1.1" xmlns="http://www.w3.org/2000/svg" xmlns:xlink="http://www.w3.org/1999/xlink" width="139.307" height="126.123">
 <g>
  <rect height="126.123" opacity="0" width="139.307" x="0" y="0"/>
  <path d="M69.6289 126.074C94.2871 126.074 104.785 120.654 104.785 107.373L104.785 22.6074C104.785 8.34961 91.8457 0 69.6289 0C47.4609 0 34.4727 8.34961 34.4727 22.6074L34.4727 107.373C34.4727 120.654 45.0195 126.074 69.6289 126.074ZM69.6289 52.002C64.8926 52.002 57.5195 52.3438 54.9805 52.3438C51.1719 52.3438 49.5605 50.8789 49.1699 46.9727L48.3887 37.5C47.7051 30.2246 52.832 27.2949 69.6289 27.2949C86.4746 27.2949 91.6016 30.2246 90.918 37.5L90.1367 46.9727C89.7461 50.8789 88.0859 52.3438 84.3262 52.3438C81.7383 52.3438 74.1699 52.002 69.6289 52.002ZM69.6289 105.762C52.6855 105.762 47.5098 103.223 48.584 95.8008L49.2188 91.2109C50.0488 85.2051 55.0781 83.1543 69.6289 83.1543C84.2285 83.1543 89.2578 85.2051 90.0879 91.2109L90.7227 95.8008C91.7969 103.223 86.6211 105.762 69.6289 105.762ZM37.8418 49.2188L37.8418 37.793L30.5176 37.793C27.8809 37.793 25.8789 39.7461 25.8789 42.2852L25.8789 44.6777C25.8789 47.2168 27.8809 49.2188 30.5176 49.2188ZM101.465 49.2188L108.789 49.2188C111.426 49.2188 113.428 47.2168 113.428 44.6777L113.428 42.2852C113.428 39.7461 111.426 37.793 108.789 37.793L101.465 37.793Z" fill="#000000" fill-opacity="0.85"/>
  <path d="M0 38.3789C0 41.0156 2.09961 42.1387 4.39453 40.7227L21.7285 30.1758C23.9746 28.8086 23.9258 26.2207 21.7285 24.9023L4.39453 14.2578C2.09961 12.8418 0 14.0625 0 16.6504Z" fill="#000000" fill-opacity="0.85"/>
 </g>
</svg>
