<?xml version="1.0" encoding="UTF-8"?>
<!--Generator: Apple Native CoreSVG 232.5-->
<!DOCTYPE svg
PUBLIC "-//W3C//DTD SVG 1.1//EN"
       "http://www.w3.org/Graphics/SVG/1.1/DTD/svg11.dtd">
<svg version="1.1" xmlns="http://www.w3.org/2000/svg" xmlns:xlink="http://www.w3.org/1999/xlink" width="95.4385" height="126.611">
 <g>
  <rect height="126.611" opacity="0" width="95.4385" x="0" y="0"/>
  <path d="M12.2212 114.307C19.6919 121.826 29.2134 126.562 39.565 126.562C42.0552 126.562 43.7642 124.951 43.7642 122.656C43.7642 120.557 42.104 119.189 39.3208 118.994C31.313 118.506 23.5005 115.186 17.397 109.131C11.3423 103.027 8.02199 95.2637 7.53371 87.207C7.28957 84.082 6.02003 82.8613 3.57863 82.8613C1.67433 82.8613-0.181138 84.2285 0.014175 86.9141C0.648941 97.2656 4.65285 106.836 12.2212 114.307Z" fill="#000000" fill-opacity="0.85"/>
  <path d="M24.3306 102.148C29.3599 107.178 36.1958 109.668 40.395 109.668C42.69 109.668 44.2525 108.203 44.2525 106.104C44.2525 104.15 42.8853 102.588 39.8579 102.148C36.0982 101.758 32.5825 100 29.5064 96.9727C26.5767 93.9941 24.8677 90.3809 24.3306 86.2305C23.8911 83.4961 22.8169 82.373 20.4243 82.373C18.2759 82.373 16.5669 84.0332 16.9087 86.6699C17.5435 92.627 20.0825 97.9004 24.3306 102.148Z" fill="#000000" fill-opacity="0.85"/>
  <path d="M61.9282 96.1426C80.6782 96.1426 89.0278 91.8945 89.0278 81.1035L89.0278 17.7246C89.0278 6.5918 78.7739 0 61.9282 0C44.9849 0 34.731 6.5918 34.731 17.7246L34.731 81.1035C34.731 91.8945 43.1294 96.1426 61.9282 96.1426ZM61.8794 40.1855C58.4614 40.1855 52.7485 40.4785 50.8443 40.4785C47.8169 40.4785 46.4497 39.209 46.1568 36.0352L45.5708 29.0039C45.0825 23.1934 48.8911 20.9961 61.8794 20.9961C74.8677 20.9961 78.6763 23.1934 78.188 29.0039L77.5532 36.0352C77.3091 39.209 75.8931 40.4785 72.9146 40.4785C70.9614 40.4785 65.4927 40.1855 61.8794 40.1855ZM61.8794 80.5664C48.8911 80.5664 44.7407 78.6621 45.7173 72.6562L46.2056 69.2383C46.9868 64.4531 50.6978 62.9395 61.8794 62.9395C73.061 62.9395 76.772 64.4531 77.5044 69.2383L78.0415 72.6562C78.9693 78.6621 74.8677 80.5664 61.8794 80.5664ZM84.8775 38.4766L91.1275 38.4766C93.5689 38.4766 95.4243 36.6211 95.4243 34.3262L95.4243 32.4707C95.4243 30.127 93.5689 28.3203 91.1275 28.3203L84.8775 28.3203ZM38.8814 38.4766L38.8814 28.3203L32.6314 28.3203C30.19 28.3203 28.3345 30.127 28.3345 32.4707L28.3345 34.3262C28.3345 36.6211 30.19 38.4766 32.6314 38.4766Z" fill="#000000" fill-opacity="0.85"/>
 </g>
</svg>
