<?xml version="1.0" encoding="UTF-8"?>
<!--Generator: Apple Native CoreSVG 232.5-->
<!DOCTYPE svg
PUBLIC "-//W3C//DTD SVG 1.1//EN"
       "http://www.w3.org/Graphics/SVG/1.1/DTD/svg11.dtd">
<svg version="1.1" xmlns="http://www.w3.org/2000/svg" xmlns:xlink="http://www.w3.org/1999/xlink" width="115.527" height="90.7715">
 <g>
  <rect height="90.7715" opacity="0" width="115.527" x="0" y="0"/>
  <path d="M0 84.1309C0 87.7441 2.83203 90.5762 6.49414 90.5762L12.207 90.5762C15.8691 90.5762 18.7012 87.7441 18.7012 84.1309L18.7012 77.0508L96.875 77.0508L96.875 84.1309C96.875 87.7441 99.6582 90.5762 103.32 90.5762L109.082 90.5762C112.744 90.5762 115.527 87.7441 115.527 84.1309L115.527 51.5137C115.527 43.3105 114.404 38.3789 109.375 32.8613L104.443 27.5391L99.3164 12.8418C96.5332 4.83398 91.1133 1.46484 84.375 0.683594C81.1035 0.292969 70.4102 0 57.7637 0C45.166 0 34.4727 0.292969 31.2012 0.683594C24.4141 1.46484 18.9941 4.83398 16.2109 12.8418L11.084 27.5391L6.20117 32.8613C1.12305 38.3789 0 43.3105 0 51.5137ZM24.5117 27.7832C22.1191 27.7832 21.3379 26.0742 22.0703 23.9258L25.0977 14.7949C26.2207 11.4258 28.0273 10.3516 30.957 9.96094C34.375 9.47266 43.8477 9.13086 57.7637 9.13086C71.7285 9.13086 81.1523 9.47266 84.5215 9.96094C87.5 10.3516 89.2578 11.4258 90.3809 14.7949L93.457 23.9258C94.1895 26.0742 93.3594 27.7832 91.0156 27.7832ZM17.6758 58.3008C14.6484 58.3008 12.4512 56.1035 12.4512 53.125L12.4512 45.5078C12.4512 42.5293 14.6484 40.3809 17.6758 40.3809C20.6543 40.3809 22.8516 42.4805 22.8516 45.5078L22.8516 53.125C22.8516 56.1523 20.6543 58.3008 17.6758 58.3008ZM46.6797 55.957C44.2871 55.957 42.6758 54.3945 42.6758 51.7578L42.6758 46.8262C42.6758 44.2871 44.2871 42.7246 46.6797 42.7246L68.7012 42.7246C71.1426 42.7246 72.7539 44.2871 72.7539 46.8262L72.7539 51.7578C72.7539 54.3945 71.1426 55.957 68.7012 55.957ZM98.3398 58.3008C95.4102 58.3008 93.1641 56.1035 93.1641 53.125L93.1641 45.5078C93.1641 42.5293 95.4102 40.3809 98.3398 40.3809C101.367 40.3809 103.564 42.4805 103.564 45.5078L103.564 53.125C103.564 56.1523 101.367 58.3008 98.3398 58.3008Z" fill="#000000" fill-opacity="0.85"/>
 </g>
</svg>
