<?xml version="1.0" encoding="UTF-8"?>
<!--Generator: Apple Native CoreSVG 232.5-->
<!DOCTYPE svg
PUBLIC "-//W3C//DTD SVG 1.1//EN"
       "http://www.w3.org/Graphics/SVG/1.1/DTD/svg11.dtd">
<svg version="1.1" xmlns="http://www.w3.org/2000/svg" xmlns:xlink="http://www.w3.org/1999/xlink" width="173.193" height="120.728">
 <g>
  <rect height="120.728" opacity="0" width="173.193" x="0" y="0"/>
  <path d="M12.7441 89.8317L20.3613 89.8317C20.0684 88.3669 19.8242 86.8532 19.8242 85.2419C19.8242 74.7439 28.125 66.4919 38.5742 66.4919C49.0723 66.4919 57.3242 74.7439 57.3242 85.2419C57.3242 86.8532 57.1289 88.3669 56.7871 89.8317L118.994 89.8317C118.701 88.3669 118.457 86.8532 118.457 85.2419C118.457 74.7439 126.758 66.4919 137.207 66.4919C147.705 66.4919 155.957 74.7439 155.957 85.2419C155.957 86.8532 155.762 88.3669 155.42 89.8317L161.865 89.8317C168.896 89.8317 173.193 85.3884 173.193 78.1618L173.193 58.5329C173.193 51.697 171.143 45.8864 162.061 43.0544L152.002 39.9782C145.654 32.4099 134.57 21.6189 114.404 21.6189L102.93 21.6189C82.8125 21.6189 74.8047 23.572 62.793 31.0915L43.1152 43.445L21.4355 46.0817C7.95898 47.7419 0 55.5056 0 67.1267L0 76.7946C0 85.0954 4.63867 89.8317 12.7441 89.8317ZM38.5742 98.279C45.8984 98.279 51.6602 92.5173 51.6602 85.2419C51.6602 77.9665 45.8496 72.156 38.5742 72.156C31.3477 72.156 25.5371 77.9665 25.5371 85.2419C25.5371 92.4685 31.3477 98.279 38.5742 98.279ZM137.207 98.279C144.482 98.279 150.293 92.4685 150.293 85.2419C150.293 77.9665 144.482 72.156 137.207 72.156C130.029 72.156 124.17 78.0153 124.17 85.2419C124.17 92.4685 129.98 98.279 137.207 98.279Z" fill="#000000" fill-opacity="0.85"/>
  <path d="M77.5391 97.3024C74.9023 97.3024 73.7793 99.4509 75.1953 101.746L85.791 119.08C87.1094 121.326 89.7461 121.228 91.0645 119.08L101.709 101.746C103.125 99.4509 101.904 97.3024 99.3164 97.3024Z" fill="#000000" fill-opacity="0.85"/>
 </g>
</svg>
