<?xml version="1.0" encoding="UTF-8"?>
<!--Generator: Apple Native CoreSVG 232.5-->
<!DOCTYPE svg
PUBLIC "-//W3C//DTD SVG 1.1//EN"
       "http://www.w3.org/Graphics/SVG/1.1/DTD/svg11.dtd">
<svg version="1.1" xmlns="http://www.w3.org/2000/svg" xmlns:xlink="http://www.w3.org/1999/xlink" width="113.086" height="126.123">
 <g>
  <rect height="126.123" opacity="0" width="113.086" x="0" y="0"/>
  <path d="M25.0488 34.0332L1.17188 57.7637C-0.390625 59.375-0.390625 61.9629 1.17188 63.5742C2.7832 65.1367 5.37109 65.1855 6.98242 63.5742L25.0488 45.5078ZM56.543 126.074C81.2012 126.074 91.6992 120.654 91.6992 107.373L91.6992 22.6074C91.6992 8.34961 78.7598 0 56.543 0C34.375 0 21.3867 8.34961 21.3867 22.6074L21.3867 107.373C21.3867 120.654 31.9336 126.074 56.543 126.074ZM56.543 117.969C37.6953 117.969 29.541 114.795 29.541 106.982L29.541 22.6074C29.541 13.4766 39.502 8.1543 56.543 8.1543C73.6328 8.1543 83.5449 13.4766 83.5449 22.6074L83.5449 106.982C83.5449 114.795 75.4395 117.969 56.543 117.969ZM56.5918 52.4414C60.9375 52.4414 68.3594 52.7832 70.8008 52.7832C74.5117 52.7832 76.0742 51.3672 76.416 47.5586L77.1973 38.3789C77.832 31.3477 72.9004 28.5156 56.5918 28.5156C40.2344 28.5156 35.3027 31.3477 35.9375 38.3789L36.7188 47.5586C37.0605 51.3672 38.6719 52.7832 42.334 52.7832C44.8242 52.7832 51.9531 52.4414 56.5918 52.4414ZM56.5918 104.541C72.998 104.541 78.0273 102.1 77.002 94.9219L76.3672 90.4785C75.5859 84.6191 70.7031 82.666 56.5918 82.666C42.4316 82.666 37.5488 84.6191 36.7676 90.4785L36.1328 94.9219C35.1074 102.1 40.1367 104.541 56.5918 104.541ZM25.0488 70.9473L1.17188 94.6777C-0.390625 96.2402-0.390625 98.877 1.17188 100.488C2.7832 102.051 5.37109 102.1 6.98242 100.488L25.0488 82.4219Z" fill="#000000" fill-opacity="0.85"/>
 </g>
</svg>
