<?xml version="1.0" encoding="UTF-8"?>
<!--Generator: Apple Native CoreSVG 232.5-->
<!DOCTYPE svg
PUBLIC "-//W3C//DTD SVG 1.1//EN"
       "http://www.w3.org/Graphics/SVG/1.1/DTD/svg11.dtd">
<svg version="1.1" xmlns="http://www.w3.org/2000/svg" xmlns:xlink="http://www.w3.org/1999/xlink" width="140.726" height="73.1934">
 <g>
  <rect height="73.1934" opacity="0" width="140.726" x="0" y="0"/>
  <path d="M4.00563 73.1934L10.3533 73.1934C13.283 73.1934 14.7478 71.7773 15.5779 69.6777L42.531 3.125C43.2146 1.51367 42.4334 0.0976562 40.7244 0.0976562L37.5506 0.0976562C35.8416 0.0976562 34.7674 0.927734 34.0349 2.39258L0.587665 67.7734C-0.779522 70.2637 0.19704 73.1934 4.00563 73.1934ZM130.373 73.1934L136.769 73.1934C140.529 73.1934 141.506 70.2637 140.138 67.7734L106.74 2.39258C105.959 0.927734 104.885 0.0976562 103.176 0.0976562L100.002 0.0976562C98.2927 0.0976562 97.5603 1.51367 98.1951 3.125L125.148 69.6777C125.978 71.7773 127.443 73.1934 130.373 73.1934Z" fill="#000000" fill-opacity="0.85"/>
  <path d="M39.3572 57.0312C39.3572 58.9355 40.8709 60.4492 42.7752 60.4492L45.8513 60.4492C47.8045 60.4492 49.2693 58.9355 49.2693 57.0312L49.2693 53.2715L90.7732 53.2715L90.7732 57.0312C90.7732 58.9355 92.2869 60.4492 94.24 60.4492L97.2674 60.4492C99.2205 60.4492 100.734 58.9355 100.734 57.0312L100.734 39.6973C100.734 35.3516 100.099 32.7148 97.4138 29.7852L94.8259 26.9531L92.0916 19.1406C90.6267 14.8926 87.7459 13.1348 84.1326 12.6953C82.4236 12.5 76.7595 12.3535 70.0213 12.3535C63.3318 12.3535 57.6677 12.5 55.9099 12.6953C52.2966 13.1348 49.4646 14.8926 47.9509 19.1406L45.2654 26.9531L42.6287 29.7852C39.9431 32.7148 39.3572 35.3516 39.3572 39.6973ZM52.3455 27.0996C51.1248 27.0996 50.6853 26.1719 51.0759 25.0488L52.6873 20.2148C53.2732 18.4082 54.2498 17.8223 55.8123 17.627C57.6189 17.3828 62.6482 17.1875 70.0213 17.1875C77.4431 17.1875 82.4236 17.3828 84.2302 17.627C85.7927 17.8223 86.7693 18.4082 87.3552 20.2148L89.0154 25.0488C89.406 26.1719 88.9177 27.0996 87.697 27.0996ZM48.7322 43.3105C47.1209 43.3105 45.949 42.1387 45.949 40.5273L45.949 36.4746C45.949 34.9121 47.1209 33.7402 48.7322 33.7402C50.3435 33.7402 51.5154 34.8633 51.5154 36.4746L51.5154 40.5273C51.5154 42.1387 50.3435 43.3105 48.7322 43.3105ZM64.1131 42.041C62.8435 42.041 62.0134 41.2109 62.0134 39.8438L62.0134 37.207C62.0134 35.8398 62.8435 35.0098 64.1131 35.0098L75.8318 35.0098C77.1502 35.0098 77.9802 35.8398 77.9802 37.207L77.9802 39.8438C77.9802 41.2109 77.1502 42.041 75.8318 42.041ZM91.5545 43.3105C90.0408 43.3105 88.8201 42.0898 88.8201 40.5273L88.8201 36.4746C88.8201 34.9121 90.0408 33.7402 91.5545 33.7402C93.1658 33.7402 94.3377 34.8633 94.3377 36.4746L94.3377 40.5273C94.3377 42.1387 93.1658 43.3105 91.5545 43.3105Z" fill="#000000" fill-opacity="0.85"/>
 </g>
</svg>
