<?xml version="1.0" encoding="UTF-8"?>
<!--Generator: Apple Native CoreSVG 232.5-->
<!DOCTYPE svg
PUBLIC "-//W3C//DTD SVG 1.1//EN"
       "http://www.w3.org/Graphics/SVG/1.1/DTD/svg11.dtd">
<svg version="1.1" xmlns="http://www.w3.org/2000/svg" xmlns:xlink="http://www.w3.org/1999/xlink" width="173.193" height="77.4902">
 <g>
  <rect height="77.4902" opacity="0" width="173.193" x="0" y="0"/>
  <path d="M51.6602 63.623C51.6602 70.8984 45.8984 76.6602 38.5742 76.6602C31.3477 76.6602 25.5371 70.8496 25.5371 63.623C25.5371 56.3477 31.3477 50.5371 38.5742 50.5371C45.8496 50.5371 51.6602 56.3477 51.6602 63.623ZM150.293 63.623C150.293 70.8496 144.482 76.6602 137.207 76.6602C129.98 76.6602 124.17 70.8496 124.17 63.623C124.17 56.3965 130.029 50.5371 137.207 50.5371C144.482 50.5371 150.293 56.3477 150.293 63.623ZM152.002 18.3594L162.061 21.4355C171.143 24.2676 173.193 30.0781 173.193 36.9141L173.193 56.543C173.193 63.7695 168.896 68.2129 161.865 68.2129L155.42 68.2129C155.762 66.748 155.957 65.2344 155.957 63.623C155.957 53.125 147.705 44.873 137.207 44.873C126.758 44.873 118.457 53.125 118.457 63.623C118.457 65.2344 118.701 66.748 118.994 68.2129L56.7871 68.2129C57.1289 66.748 57.3242 65.2344 57.3242 63.623C57.3242 53.125 49.0723 44.873 38.5742 44.873C28.125 44.873 19.8242 53.125 19.8242 63.623C19.8242 65.2344 20.0684 66.748 20.3613 68.2129L12.7441 68.2129C4.63867 68.2129 0 63.4766 0 55.1758L0 45.5078C0 33.8867 7.95898 26.123 21.4355 24.4629L43.1152 21.8262L62.793 9.47266C74.8047 1.95312 82.8125 0 102.93 0L114.404 0C134.57 0 145.654 10.791 152.002 18.3594ZM79.541 17.334C70.2148 17.334 63.916 23.1934 63.916 31.7871C63.916 40.332 70.2148 46.0449 79.4922 46.0449L99.5605 46.0449L99.5605 50.6348C99.5605 53.4668 101.562 54.4922 104.053 52.8809L115.771 45.166C117.627 43.9941 117.725 41.6504 115.771 40.2832L104.102 32.6172C101.611 30.957 99.5605 31.9336 99.5605 34.8633L99.5605 39.209L79.4922 39.209C74.3652 39.209 70.9961 36.377 70.9961 32.1777C70.9961 27.4414 74.4141 24.2188 79.541 24.2188L108.936 24.2188C111.035 24.2188 112.5 22.8516 112.5 20.8496C112.5 18.8477 111.035 17.334 108.887 17.334Z" fill="#000000" fill-opacity="0.85"/>
 </g>
</svg>
