<?xml version="1.0" encoding="UTF-8"?>
<!--Generator: Apple Native CoreSVG 232.5-->
<!DOCTYPE svg
PUBLIC "-//W3C//DTD SVG 1.1//EN"
       "http://www.w3.org/Graphics/SVG/1.1/DTD/svg11.dtd">
<svg version="1.1" xmlns="http://www.w3.org/2000/svg" xmlns:xlink="http://www.w3.org/1999/xlink" width="95.2148" height="119.137">
 <g>
  <rect height="119.137" opacity="0" width="95.2148" x="0" y="0"/>
  <path d="M47.6074 106.956C57.5684 106.956 70.166 106.614 79.1016 106.077L79.1016 112.962C79.1016 115.892 81.3965 118.187 84.375 118.187L89.8926 118.187C92.8711 118.187 95.2148 115.892 95.2148 112.962L95.2148 89.6711C95.2148 82.9328 93.8477 79.1242 90.1367 74.3391L86.7676 70.0422C85.3027 62.8157 82.666 55.2961 81.2988 52.3664C79.1016 47.8254 75 45.091 69.6777 44.4563C67.041 44.1145 57.959 43.8703 47.6074 43.8703C37.2559 43.8703 28.1738 44.1145 25.5371 44.4563C20.2148 45.091 16.0645 47.8254 13.916 52.3664C12.5488 55.2961 9.91211 62.8157 8.44727 70.0422L5.07812 74.3391C1.36719 79.1242 0 82.9328 0 89.6711L0 112.962C0 115.892 2.34375 118.187 5.32227 118.187L10.8398 118.187C13.8184 118.187 16.1133 115.892 16.1133 112.962L16.1133 106.077C25.0488 106.614 37.6465 106.956 47.6074 106.956ZM16.8457 66.7219C17.7734 62.3274 19.7266 56.6145 21.0449 54.3196C22.1191 52.4153 23.291 51.634 25.4395 51.2922C28.4668 50.9016 35.2539 50.6574 47.6074 50.6574C59.9609 50.6574 66.748 50.8039 69.7754 51.2922C71.9238 51.634 73.0469 52.4153 74.1699 54.3196C75.5371 56.5657 77.2949 62.3274 78.3691 66.7219C78.7598 68.1867 78.125 68.7727 76.6113 68.6262C69.9707 68.1867 62.0605 67.7961 47.6074 67.7961C33.1543 67.7961 25.2441 68.1867 18.6035 68.6262C17.0898 68.7727 16.5039 68.1867 16.8457 66.7219ZM18.7988 96.2141C15.1855 96.2141 12.3535 93.3821 12.3535 89.7688C12.3535 86.1067 15.1855 83.3723 18.7988 83.3723C22.4609 83.3723 25.1953 86.1067 25.1953 89.7688C25.1953 93.3821 22.4609 96.2141 18.7988 96.2141ZM37.0605 94.6028C34.3262 94.6028 32.4219 92.6985 32.4219 89.9641C32.4219 87.2297 34.3262 85.3742 37.0605 85.3742L58.1543 85.3742C60.8887 85.3742 62.793 87.2297 62.793 89.9641C62.793 92.6985 60.8887 94.6028 58.1543 94.6028ZM76.416 96.2141C72.7539 96.2141 70.0195 93.3821 70.0195 89.7688C70.0195 86.1067 72.7539 83.3723 76.416 83.3723C80.0293 83.3723 82.8125 86.1067 82.8125 89.7688C82.8125 93.3821 80.0293 96.2141 76.416 96.2141Z" fill="#000000" fill-opacity="0.85"/>
  <path d="M47.4121 25.4621C36.9141 25.4621 27.3926 21.8 20.0684 15.2571C18.0664 13.4992 15.8203 13.011 14.0137 14.5735C12.207 16.136 12.207 18.8703 14.2578 20.7258C23.0957 28.8801 34.7656 33.4211 47.4121 33.4211C60.0586 33.4211 71.7773 28.8801 80.5664 20.7258C82.666 18.8703 82.666 16.136 80.8105 14.5735C79.0527 13.011 76.8066 13.4992 74.7559 15.2571C67.4805 21.8 57.959 25.4621 47.4121 25.4621Z" fill="#000000" fill-opacity="0.85"/>
  <path d="M47.5098 5.88206C42.4316 5.88206 37.8418 4.31956 34.082 1.53636C31.9336 0.0226834 29.7852-0.66091 28.0273 0.90159C26.1719 2.51292 26.123 5.44261 28.3691 7.15159C33.6426 11.3996 40.332 13.841 47.5098 13.841C54.6875 13.841 61.377 11.3996 66.6504 7.15159C68.8965 5.44261 68.8477 2.51292 66.9922 0.90159C65.2344-0.66091 63.0371-0.0261448 60.9375 1.53636C57.3242 4.46604 52.5879 5.88206 47.5098 5.88206Z" fill="#000000" fill-opacity="0.85"/>
 </g>
</svg>
