<?xml version="1.0" encoding="UTF-8"?>
<!--Generator: Apple Native CoreSVG 232.5-->
<!DOCTYPE svg
PUBLIC "-//W3C//DTD SVG 1.1//EN"
       "http://www.w3.org/Graphics/SVG/1.1/DTD/svg11.dtd">
<svg version="1.1" xmlns="http://www.w3.org/2000/svg" xmlns:xlink="http://www.w3.org/1999/xlink" width="168.994" height="104.15">
 <g>
  <rect height="104.15" opacity="0" width="168.994" x="0" y="0"/>
  <path d="M57.7148 14.209L57.379 14.9706C46.6863 15.0613 40.4362 15.3659 37.3535 15.7715C34.7168 16.1133 33.3008 17.1387 31.9824 19.4336C30.3711 22.2656 28.0273 29.248 26.8555 34.5703C26.4648 36.377 27.1484 37.0605 29.0527 36.9629C34.7359 36.5863 41.1873 36.2337 50.624 36.0573L47.6562 39.8926C42.2363 46.9238 40.0879 52.9785 40.0879 62.6953L40.0879 83.367C34.7527 83.1777 29.6912 82.9372 25.3906 82.666L25.3906 90.8203C25.3906 94.4336 22.5586 97.2656 18.9453 97.2656L13.1836 97.2656C9.52148 97.2656 6.68945 94.4336 6.68945 90.8203L6.68945 62.6953C6.68945 54.4434 8.34961 49.8535 12.8906 43.9941L16.9922 38.6719C18.7988 29.8828 22.0215 20.6543 23.7305 17.041C26.3184 11.5234 31.3965 8.1543 37.8906 7.37305C41.0665 6.99384 51.2367 6.70666 63.3595 6.69104C61.038 8.72163 59.1235 11.2413 57.7148 14.209ZM17.9199 60.8398C17.9199 64.8926 20.9961 68.0176 25.0977 68.0176C29.1504 68.0176 32.2754 64.8926 32.2754 60.8398C32.2754 56.7383 29.1504 53.6621 25.0977 53.6621C20.9961 53.6621 17.9199 56.7383 17.9199 60.8398Z" fill="#000000" fill-opacity="0.85"/>
  <path d="M66.8945 34.5703C68.0664 29.248 70.459 22.2656 72.0703 19.4336C73.3887 17.1387 74.8047 16.1133 77.4414 15.7715C81.1035 15.2832 89.4043 14.9414 104.541 14.9414C119.629 14.9414 127.93 15.1855 131.641 15.7715C134.277 16.1621 135.645 17.1387 137.012 19.4336C138.672 22.2168 140.869 29.248 142.139 34.5703C142.627 36.377 141.846 37.0605 139.941 36.9629C131.836 36.4258 122.168 35.9375 104.541 35.9375C86.8652 35.9375 77.1973 36.4258 69.0918 36.9629C67.2363 37.0605 66.5039 36.377 66.8945 34.5703ZM69.3359 70.6543C64.8438 70.6543 61.4746 67.2363 61.4746 62.793C61.4746 58.3008 64.8438 54.9316 69.3359 54.9316C73.7793 54.9316 77.1484 58.3008 77.1484 62.793C77.1484 67.2363 73.7793 70.6543 69.3359 70.6543ZM91.6016 68.7012C88.2812 68.7012 85.9863 66.4062 85.9863 63.0371C85.9863 59.7168 88.2812 57.4219 91.6016 57.4219L117.432 57.4219C120.801 57.4219 123.096 59.7168 123.096 63.0371C123.096 66.4062 120.801 68.7012 117.432 68.7012ZM139.746 70.6543C135.303 70.6543 131.885 67.2363 131.885 62.793C131.885 58.3008 135.303 54.9316 139.746 54.9316C144.189 54.9316 147.607 58.3008 147.607 62.793C147.607 67.2363 144.189 70.6543 139.746 70.6543ZM104.541 83.8379C120.947 83.8379 142.725 83.0078 152.002 81.9336C158.594 81.2012 162.305 77.5391 162.305 71.2891L162.305 62.6953C162.305 54.4434 160.645 49.8535 156.104 43.9941L152.002 38.6719C150.195 29.8828 146.973 20.6543 145.264 17.041C142.676 11.5234 137.598 8.25195 131.104 7.37305C127.832 6.93359 117.139 6.68945 104.541 6.68945C91.8945 6.68945 81.2012 6.98242 77.9297 7.37305C71.4355 8.1543 66.4062 11.5234 63.7695 17.041C62.1094 20.6543 58.8379 29.8828 57.0801 38.6719L52.9297 43.9941C48.4375 49.8535 46.7773 54.4434 46.7773 62.6953L46.7773 71.2891C46.7773 77.5391 50.4395 81.2012 57.0801 81.9336C66.3086 83.0078 88.1348 83.8379 104.541 83.8379ZM53.2227 97.2656L58.9844 97.2656C62.6465 97.2656 65.4297 94.4336 65.4297 90.8203L65.4297 78.6621L46.7773 69.7754L46.7773 90.8203C46.7773 94.4336 49.5605 97.2656 53.2227 97.2656ZM150.098 97.2656L155.811 97.2656C159.473 97.2656 162.305 94.4336 162.305 90.8203L162.305 69.7754L143.604 78.6621L143.604 90.8203C143.604 94.4336 146.436 97.2656 150.098 97.2656Z" fill="#000000" fill-opacity="0.85"/>
 </g>
</svg>
