<?xml version="1.0" encoding="UTF-8"?>
<!--Generator: Apple Native CoreSVG 232.5-->
<!DOCTYPE svg
PUBLIC "-//W3C//DTD SVG 1.1//EN"
       "http://www.w3.org/Graphics/SVG/1.1/DTD/svg11.dtd">
<svg version="1.1" xmlns="http://www.w3.org/2000/svg" xmlns:xlink="http://www.w3.org/1999/xlink" width="98.9574" height="108.057">
 <g>
  <rect height="108.057" opacity="0" width="98.9574" x="0" y="0"/>
  <path d="M17.5451 54.834C17.5451 57.2266 19.4006 59.0332 21.842 59.0332L25.5529 59.0332C27.9455 59.0332 29.7521 57.2266 29.7521 54.834L29.7521 50.2441L80.7287 50.2441L80.7287 54.834C80.7287 57.2266 82.5353 59.0332 84.9279 59.0332L88.6388 59.0332C91.0802 59.0332 92.8869 57.2266 92.8869 54.834L92.8869 33.5449C92.8869 28.2227 92.2521 24.9512 88.883 21.3867L85.6603 17.9199L82.34 8.34961C80.5334 3.125 76.9689 0.976562 72.5744 0.439453C70.4259 0.146484 63.4924 0 55.2404 0C46.9884 0 40.006 0.146484 37.9064 0.439453C33.5119 0.976562 29.8986 3.125 28.1408 8.34961L24.8205 17.9199L21.5978 21.3867C18.2287 24.9512 17.5451 28.2227 17.5451 33.5449ZM33.5607 18.1641C32.047 18.1641 31.5099 16.9922 31.9982 15.5762L33.9513 9.61914C34.6838 7.4707 35.8556 6.73828 37.7599 6.44531C39.9572 6.20117 46.1095 5.95703 55.2404 5.95703C64.3713 5.95703 70.4748 6.20117 72.672 6.44531C74.5763 6.73828 75.7482 7.4707 76.4806 9.61914L78.4826 15.5762C78.9709 16.9922 78.4338 18.1641 76.9201 18.1641ZM29.1174 37.9883C27.1154 37.9883 25.6506 36.5723 25.6506 34.5703L25.6506 29.5898C25.6506 27.6855 27.1154 26.2695 29.1174 26.2695C31.0705 26.2695 32.4865 27.6367 32.4865 29.5898L32.4865 34.5703C32.4865 36.5723 31.0705 37.9883 29.1174 37.9883ZM47.965 36.4746C46.4025 36.4746 45.4259 35.4004 45.4259 33.6914L45.4259 30.5176C45.4259 28.8574 46.4025 27.832 47.965 27.832L62.3693 27.832C63.9318 27.832 65.006 28.8574 65.006 30.5176L65.006 33.6914C65.006 35.4004 63.9318 36.4746 62.3693 36.4746ZM81.6564 37.9883C79.7521 37.9883 78.2873 36.5723 78.2873 34.5703L78.2873 29.5898C78.2873 27.7344 79.7521 26.2695 81.6564 26.2695C83.6584 26.2695 85.0744 27.6367 85.0744 29.5898L85.0744 34.5703C85.0744 36.5723 83.6584 37.9883 81.6564 37.9883ZM42.5451 67.4805L38.8342 64.6973C37.467 63.7207 35.9045 63.2324 34.2443 63.2324L26.3342 63.2324C24.381 63.2324 23.6486 65.5762 25.2111 66.6992L32.6818 72.168C35.0256 73.877 34.7326 76.123 31.9982 77.3438L7.73064 87.8418C-1.64436 91.8457-2.52327 97.998 5.28923 103.76L9.00017 106.494C10.3674 107.52 11.9299 108.008 13.6388 108.008L21.5002 108.008C23.5021 108.008 24.1857 105.664 22.672 104.541L15.2013 99.0234C12.8576 97.3633 13.1506 95.0684 15.8361 93.8965L40.1525 83.3496C49.4787 79.3457 50.3576 73.2422 42.5451 67.4805ZM93.6681 67.5781L89.9572 64.7949C88.59 63.7695 87.0275 63.3301 85.3674 63.3301L77.4572 63.3301C75.5041 63.3301 74.7717 65.625 76.3342 66.7969L83.8049 72.2656C86.0998 73.9258 85.8068 76.2207 83.1213 77.3926L58.8049 87.9395C49.4787 91.9434 48.5998 98.0469 56.4123 103.809L60.1232 106.543C61.4904 107.568 63.0529 108.057 64.7131 108.057L72.6232 108.057C74.5763 108.057 75.3088 105.713 73.7463 104.59L66.2756 99.1211C63.9806 97.4121 64.2736 95.166 66.9592 93.9453L91.2756 83.4473C100.602 79.4434 101.481 73.291 93.6681 67.5781Z" fill="#000000" fill-opacity="0.85"/>
 </g>
</svg>
