<?xml version="1.0" encoding="UTF-8"?>
<!--Generator: Apple Native CoreSVG 232.5-->
<!DOCTYPE svg
PUBLIC "-//W3C//DTD SVG 1.1//EN"
       "http://www.w3.org/Graphics/SVG/1.1/DTD/svg11.dtd">
<svg version="1.1" xmlns="http://www.w3.org/2000/svg" xmlns:xlink="http://www.w3.org/1999/xlink" width="115.527" height="90.7715">
 <g>
  <rect height="90.7715" opacity="0" width="115.527" x="0" y="0"/>
  <path d="M0 66.1133C0 72.5098 3.66211 77.0508 10.4492 77.0508L105.127 77.0508C111.865 77.0508 115.527 72.5098 115.527 66.1133L115.527 51.5137C115.527 43.3105 114.404 38.3789 109.375 32.8613L104.443 27.5391L99.3164 12.8418C96.5332 4.83398 91.1133 1.46484 84.375 0.683594C81.1035 0.292969 70.4102 0 57.7637 0C45.166 0 34.4727 0.292969 31.2012 0.683594C24.4141 1.46484 18.9941 4.83398 16.2109 12.8418L11.084 27.5391L6.20117 32.8613C1.12305 38.3789 0 43.3105 0 51.5137ZM6.39648 64.1602L6.39648 51.5137C6.39648 44.873 7.17773 41.4062 11.2793 36.7676L17.041 30.2246L21.9727 15.7227C23.9746 9.81445 27.3926 7.76367 31.9336 7.22656C35.0586 6.83594 44.9707 6.39648 57.7637 6.39648C70.6055 6.39648 80.4688 6.83594 83.5938 7.22656C88.1348 7.76367 91.5527 9.81445 93.5547 15.7227L98.4863 30.2246L104.297 36.7676C108.35 41.4062 109.131 44.873 109.131 51.5137L109.131 64.1602C109.131 68.0176 107.568 70.6543 103.369 70.6543L12.1582 70.6543C8.00781 70.6543 6.39648 68.0176 6.39648 64.1602ZM26.416 29.3945L89.1113 29.3945C91.3086 29.3945 92.0898 27.7832 91.3574 25.7324L88.4766 17.1875C87.4023 14.0137 85.7422 12.9395 82.9102 12.5488C79.7363 12.1094 70.8984 11.7676 57.7637 11.7676C44.6289 11.7676 35.8398 12.1094 32.6172 12.5488C29.834 12.9395 28.125 14.0137 27.0508 17.1875L24.1699 25.7324C23.4863 27.7832 24.2188 29.3945 26.416 29.3945ZM20.0684 57.666C22.8516 57.666 24.9023 55.6152 24.9023 52.7832L24.9023 45.6055C24.9023 42.7734 22.8516 40.7715 20.0684 40.7715C17.2363 40.7715 15.1855 42.8223 15.1855 45.6055L15.1855 52.7832C15.1855 55.5664 17.2363 57.666 20.0684 57.666ZM47.3145 55.4688L68.0664 55.4688C70.3613 55.4688 71.875 53.9551 71.875 51.5625L71.875 46.8262C71.875 44.4336 70.3613 43.0176 68.0664 43.0176L47.3145 43.0176C45.1172 43.0176 43.6035 44.4336 43.6035 46.8262L43.6035 51.5625C43.6035 53.9551 45.1172 55.4688 47.3145 55.4688ZM95.9473 57.666C98.7793 57.666 100.879 55.6152 100.879 52.7832L100.879 45.6055C100.879 42.7734 98.7793 40.7715 95.9473 40.7715C93.2129 40.7715 91.1133 42.8711 91.1133 45.6055L91.1133 52.7832C91.1133 55.5664 93.2129 57.666 95.9473 57.666ZM8.98438 90.5762L14.6973 90.5762C18.3594 90.5762 21.1914 87.7441 21.1914 84.1309L21.1914 74.1699L2.49023 71.4844L2.49023 84.1309C2.49023 87.7441 5.32227 90.5762 8.98438 90.5762ZM100.83 90.5762L106.592 90.5762C110.254 90.5762 113.037 87.7441 113.037 84.1309L113.037 71.4844L94.3848 74.1699L94.3848 84.1309C94.3848 87.7441 97.168 90.5762 100.83 90.5762Z" fill="#000000" fill-opacity="0.85"/>
 </g>
</svg>
