<?xml version="1.0" encoding="UTF-8"?>
<!--Generator: Apple Native CoreSVG 232.5-->
<!DOCTYPE svg
PUBLIC "-//W3C//DTD SVG 1.1//EN"
       "http://www.w3.org/Graphics/SVG/1.1/DTD/svg11.dtd">
<svg version="1.1" xmlns="http://www.w3.org/2000/svg" xmlns:xlink="http://www.w3.org/1999/xlink" width="140.688" height="117.212">
 <g>
  <rect height="117.212" opacity="0" width="140.688" x="0" y="0"/>
  <path d="M90.6628 92.326L86.5303 93.5426L96.7842 112.781C97.6143 114.343 96.0518 115.515 94.7822 114.392L77.4482 98.7672L67.1455 115.759C66.5107 116.736 65.2412 116.589 65.1924 115.222L65.0459 101.648L48.9815 105.261C47.2725 105.701 46.833 103.797 48.0049 103.015L60.749 94.4215L51.3252 93.7379C49.8115 93.6403 49.5674 92.0289 50.9834 91.4918L59.4307 88.3668L45.417 79.9196C44.0986 79.1383 44.4893 77.4293 46.1982 77.6735L61.042 79.7731L57.8193 75.5738C56.8428 74.3043 57.8193 73.3278 59.1377 73.9137L64.8994 76.5016L60.5049 63.4645C60.338 62.9637 60.3822 62.5429 60.5558 62.2489ZM35.3096 43.7867L15.583 93.1031C14.7041 95.2028 13.2881 96.6188 10.3584 96.6188L3.96192 96.6188C0.202155 96.6188-0.725579 93.6891 0.543952 91.1988L24.9092 43.0055C25.6904 41.5406 26.7158 40.7594 28.376 40.7594L33.5029 40.7594C35.2119 40.7594 35.9443 42.1266 35.3096 43.7867ZM115.778 43.0055L140.144 91.1988C141.413 93.6891 140.534 96.6188 136.726 96.6188L130.378 96.6188C127.448 96.6188 125.983 95.2028 125.153 93.1031L105.427 43.7867C104.743 42.1266 105.476 40.7594 107.185 40.7594L112.312 40.7594C113.972 40.7594 115.046 41.5406 115.778 43.0055ZM51.6173 53.3193C51.1198 54.2825 50.1206 54.9196 48.9326 54.9196L46.1982 54.9196C44.4893 54.9196 43.1709 53.6012 43.1709 51.8922L43.1709 44.8813ZM82.8193 12.6832C85.9932 13.025 88.5322 14.5875 89.8506 18.3473L92.292 25.2809L94.5869 27.7711C96.9307 30.359 97.4678 32.7028 97.4678 36.5602L97.4678 51.8922C97.4678 53.6012 96.1494 54.9196 94.4404 54.9196L91.7549 54.9196C89.9971 54.9196 88.6787 53.6012 88.6787 51.8922L88.6787 48.5719L73.6624 48.5719L48.8993 23.8211L50.7881 18.3473C52.1065 14.5875 54.6455 13.025 57.8193 12.6832C59.3818 12.4879 64.4111 12.3414 70.3193 12.3414C76.2764 12.3414 81.3057 12.4879 82.8193 12.6832ZM86.9697 33.7281L86.9697 37.2926C86.9697 38.7086 88.044 39.734 89.4111 39.734C90.8272 39.734 91.8525 38.7574 91.8525 37.2926L91.8525 33.7281C91.8525 32.3121 90.8272 31.3356 89.4111 31.3356C88.044 31.3356 86.9697 32.3121 86.9697 33.7281ZM65.0947 32.4098C63.9717 32.4098 63.2393 33.1422 63.2393 34.3629L63.2393 36.6578C63.2393 37.8785 63.9717 38.6598 65.0947 38.6598L75.4463 38.6598C76.6182 38.6598 77.3506 37.8785 77.3506 36.6578L77.3506 34.3629C77.3506 33.1422 76.6182 32.4098 75.4463 32.4098ZM57.7217 16.9801C56.3545 17.1754 55.4756 17.7125 54.9385 19.275L53.5225 23.5719C53.1807 24.5973 53.5713 25.4274 54.6455 25.4274L85.9443 25.4274C87.0674 25.4274 87.458 24.5973 87.1162 23.5719L85.6514 19.275C85.1143 17.7125 84.2842 17.1754 82.917 16.9801C81.3057 16.7848 76.8623 16.5895 70.3193 16.5895C63.7764 16.5895 59.333 16.7848 57.7217 16.9801Z" fill="#000000" fill-opacity="0.85"/>
  <path d="M116.804 110.388C118.269 111.853 120.71 111.902 122.126 110.388C123.591 108.923 123.591 106.531 122.126 105.066L23.9326 6.92151C22.4678 5.45666 20.0264 5.40783 18.5615 6.92151C17.0967 8.33752 17.0967 10.7789 18.5615 12.2438Z" fill="#000000" fill-opacity="0.85"/>
 </g>
</svg>
