<?xml version="1.0" encoding="UTF-8"?>
<!--Generator: Apple Native CoreSVG 232.5-->
<!DOCTYPE svg
PUBLIC "-//W3C//DTD SVG 1.1//EN"
       "http://www.w3.org/Graphics/SVG/1.1/DTD/svg11.dtd">
<svg version="1.1" xmlns="http://www.w3.org/2000/svg" xmlns:xlink="http://www.w3.org/1999/xlink" width="133.301" height="118.036">
 <g>
  <rect height="118.036" opacity="0" width="133.301" x="0" y="0"/>
  <path d="M133.301 53.5736L133.301 45.4681C131.152 46.4935 128.955 47.7142 126.66 49.1791L108.936 60.3119L89.4531 62.7045C77.2461 64.1693 70.0684 71.2006 70.0684 81.6498L70.0684 90.39C70.0684 97.8119 74.3164 102.109 81.5918 102.109L95.0195 102.109L95.0195 94.9799L81.9824 94.9799C78.8574 94.9799 77.1973 93.0267 77.1973 89.5111L77.1973 81.6498C77.1973 75.1068 81.8848 70.8099 90.332 69.7357L111.328 67.1478L130.42 55.3314C131.396 54.6967 132.373 54.1107 133.301 53.5736ZM133.301 102.109L133.301 94.9799L115.576 94.9799L115.576 102.109ZM105.078 112.167C113.525 112.167 120.117 105.527 120.117 97.1283C120.117 88.6322 113.525 82.0404 105.078 82.0404C96.6309 82.0404 90.0391 88.6322 90.0391 97.1283C90.0391 105.527 96.6309 112.167 105.078 112.167ZM105.078 105.038C100.586 105.038 97.168 101.572 97.168 97.1283C97.168 92.6361 100.586 89.1693 105.078 89.1693C109.521 89.1693 112.988 92.6361 112.988 97.1283C112.988 101.572 109.521 105.038 105.078 105.038ZM27.3438 112.167C35.791 112.167 42.3828 105.527 42.3828 97.1283C42.3828 88.6322 35.791 82.0404 27.3438 82.0404C18.8965 82.0404 12.3047 88.6322 12.3047 97.1283C12.3047 105.527 18.8965 112.167 27.3438 112.167ZM27.3438 105.038C22.8516 105.038 19.4336 101.572 19.4336 97.1283C19.4336 92.6361 22.8516 89.1693 27.3438 89.1693C31.8359 89.1693 35.2539 92.6361 35.2539 97.1283C35.2539 101.572 31.8359 105.038 27.3438 105.038ZM0 40.683L0 47.8119L6.54297 47.8119C18.5059 47.8119 28.1738 52.7435 36.5234 64.3158L47.3145 67.1478C51.3184 68.1732 52.3926 70.5658 52.3926 73.8861L52.3926 89.8529C52.3926 93.0756 50.7812 94.9799 47.998 94.9799L37.1094 94.9799L37.1094 102.109L49.2676 102.109C55.6152 102.109 59.5215 98.1537 59.5215 91.6107L59.5215 73.8861C59.5215 67.7826 57.666 62.558 49.4629 59.9701L40.4297 57.1869C34.7168 50.3998 24.7559 40.683 6.54297 40.683ZM0 94.9799L0 102.109L16.9434 102.109L16.9434 94.9799Z" fill="#000000" fill-opacity="0.85"/>
  <path d="M69.6777 20.0287C63.5254 29.1107 60.2539 39.7064 60.4004 49.9603C60.5469 51.9623 62.0117 53.3783 63.8184 53.3783C65.7227 53.2806 67.041 51.8158 67.041 49.8138C66.8945 41.0248 69.7266 31.601 75.0977 23.6908C80.5176 15.7318 88.0371 9.57947 96.2891 6.45447C98.1445 5.77087 99.0723 3.86658 98.3887 2.05994C97.7539 0.302124 95.8496-0.430298 93.9453 0.253296C84.375 4.01306 75.7812 10.9955 69.6777 20.0287Z" fill="#000000" fill-opacity="0.85"/>
  <path d="M82.0312 28.4271C77.5391 34.9701 75.1953 42.6849 75.3906 50.0092C75.4883 52.0111 76.9531 53.3295 78.8086 53.3783C80.6152 53.3295 82.0312 51.8646 82.0312 49.765C81.8848 43.9545 83.8379 37.6556 87.5977 32.0404C91.2598 26.6205 96.4355 22.3724 101.904 20.3705C103.809 19.5892 104.639 17.6849 104.004 16.0248C103.271 14.267 101.465 13.4857 99.6094 14.1205C92.8711 16.5619 86.5723 21.6888 82.0312 28.4271Z" fill="#000000" fill-opacity="0.85"/>
  <path d="M94.4336 36.7279C91.6016 40.8783 90.0879 45.8099 90.332 50.0092C90.332 51.8646 91.7969 53.3783 93.6523 53.3295C95.7031 53.3295 97.0703 51.7181 97.0703 49.6185C96.9238 46.7377 97.998 43.3197 99.9512 40.4388C101.953 37.5092 104.736 35.2142 107.324 34.3353C109.326 33.6029 110.352 31.6986 109.619 29.7455C108.887 28.0853 107.031 27.3041 105.225 27.9388C101.123 29.4525 97.1191 32.6752 94.4336 36.7279Z" fill="#000000" fill-opacity="0.85"/>
 </g>
</svg>
