<?xml version="1.0" encoding="UTF-8"?>
<!--Generator: Apple Native CoreSVG 232.5-->
<!DOCTYPE svg
PUBLIC "-//W3C//DTD SVG 1.1//EN"
       "http://www.w3.org/Graphics/SVG/1.1/DTD/svg11.dtd">
<svg version="1.1" xmlns="http://www.w3.org/2000/svg" xmlns:xlink="http://www.w3.org/1999/xlink" width="99.6094" height="99.6582">
 <g>
  <rect height="99.6582" opacity="0" width="99.6094" x="0" y="0"/>
  <path d="M99.6094 49.8535C99.6094 77.0996 77.0508 99.6582 49.8047 99.6582C22.6074 99.6582 0 77.0996 0 49.8535C0 22.6562 22.5586 0.0488281 49.7559 0.0488281C77.002 0.0488281 99.6094 22.6562 99.6094 49.8535ZM37.1094 26.8066C34.0332 27.1973 31.6406 28.7598 30.3711 31.3965C29.541 33.1055 28.0762 37.5 27.1973 41.748L25.1953 44.2871C22.998 47.0703 22.2168 49.3164 22.2168 53.1738L22.2168 66.6016C22.2168 68.3105 23.584 69.6777 25.3418 69.6777L28.125 69.6777C29.834 69.6777 31.2012 68.3105 31.2012 66.6016L31.2012 62.7441C36.377 63.0371 43.8477 63.2324 49.8535 63.2324C55.8594 63.2324 63.2812 63.0371 68.457 62.7441L68.457 66.6016C68.457 68.3105 69.8242 69.6777 71.582 69.6777L74.3652 69.6777C76.0742 69.6777 77.4414 68.3105 77.4414 66.6016L77.4414 53.1738C77.4414 49.3164 76.6602 47.0703 74.4629 44.2871L72.5098 41.748C71.582 37.5 70.1172 33.1055 69.2871 31.3965C68.0664 28.7598 65.6738 27.2461 62.5488 26.8066C60.9863 26.6113 55.8594 26.4648 49.8535 26.4648C43.7988 26.4648 38.7207 26.6113 37.1094 26.8066ZM36.7676 53.2227C36.7676 55.3223 35.1074 56.9824 33.0078 56.9824C30.9082 56.9824 29.248 55.3223 29.248 53.2227C29.248 51.123 30.9082 49.5117 33.0078 49.5117C35.1074 49.5117 36.7676 51.123 36.7676 53.2227ZM70.459 53.2227C70.459 55.3223 68.7988 56.9824 66.6504 56.9824C64.5508 56.9824 62.9395 55.3223 62.9395 53.2227C62.9395 51.123 64.5508 49.5117 66.6504 49.5117C68.7988 49.5117 70.459 51.123 70.459 53.2227ZM58.6914 53.3691C58.6914 54.9805 57.5684 56.1035 56.0059 56.1035L43.7012 56.1035C42.0898 56.1035 40.9668 54.9805 40.9668 53.3691C40.9668 51.8066 42.0898 50.6836 43.7012 50.6836L56.0059 50.6836C57.5684 50.6836 58.6914 51.8066 58.6914 53.3691ZM61.8164 31.1523C63.0371 31.2988 63.623 31.7383 64.3066 32.8125C64.9902 33.9844 66.0156 37.1094 66.5039 39.5508C66.748 40.2832 66.4062 40.625 65.5273 40.5762C61.9629 40.2832 57.666 40.0879 49.8535 40.0879C41.9922 40.0879 37.7441 40.2832 34.1309 40.5762C33.252 40.625 32.959 40.2832 33.1543 39.5508C33.6914 37.1094 34.7168 34.0332 35.4004 32.8125C36.0352 31.7383 36.6699 31.2988 37.8906 31.1523C39.502 30.9082 43.2129 30.8105 49.8535 30.8105C56.4453 30.8105 60.1562 30.8594 61.8164 31.1523Z" fill="#000000" fill-opacity="0.85"/>
 </g>
</svg>
