<?xml version="1.0" encoding="UTF-8"?>
<!--Generator: Apple Native CoreSVG 232.5-->
<!DOCTYPE svg
PUBLIC "-//W3C//DTD SVG 1.1//EN"
       "http://www.w3.org/Graphics/SVG/1.1/DTD/svg11.dtd">
<svg version="1.1" xmlns="http://www.w3.org/2000/svg" xmlns:xlink="http://www.w3.org/1999/xlink" width="117.383" height="92.334">
 <g>
  <rect height="92.334" opacity="0" width="117.383" x="0" y="0"/>
  <path d="M24.6094 92.2363L88.1836 92.2363C104.639 92.2363 117.383 79.7852 117.383 63.8672C117.383 47.8027 104.395 35.6934 86.6211 35.6934C80.127 22.8027 68.2129 14.9414 53.7598 14.9414C34.8145 14.9414 18.75 29.6387 17.041 49.1211C7.27539 51.9043 0.683594 60.1074 0.683594 70.459C0.683594 82.5195 9.42383 92.2363 24.6094 92.2363ZM24.5117 84.375C14.502 84.375 8.54492 78.9551 8.54492 70.7031C8.54492 63.6719 13.0371 58.6426 20.9473 56.543C23.6816 55.8594 24.707 54.5898 24.9023 51.7578C26.0742 35.2051 38.4766 22.8027 53.7598 22.8027C65.4785 22.8027 74.6094 29.3457 80.0781 40.5762C81.2012 42.9688 82.6172 43.7988 85.5957 43.7988C100.879 43.7988 109.521 53.0273 109.521 64.0625C109.521 75.4395 100.391 84.375 88.7207 84.375ZM6.83594 44.4336C10.5957 44.4336 13.623 41.4062 13.623 37.5977C13.623 33.8379 10.5957 30.8105 6.83594 30.8105C3.02734 30.8105 0 33.8379 0 37.5977C0 41.4062 3.02734 44.4336 6.83594 44.4336ZM78.418 12.8418C81.9336 12.8418 84.8145 9.96094 84.8145 6.44531C84.8145 2.92969 81.9336 0 78.418 0C74.9023 0 72.0215 2.92969 72.0215 6.44531C72.0215 9.96094 74.9023 12.8418 78.418 12.8418ZM98.9746 29.7363C104.248 29.7363 108.496 25.4883 108.496 20.1172C108.496 14.7949 104.248 10.5469 98.9746 10.5469C93.6035 10.5469 89.3066 14.7949 89.3066 20.1172C89.3066 25.4883 93.6035 29.7363 98.9746 29.7363Z" fill="#000000" fill-opacity="0.85"/>
  <path d="M42.9688 75.3906C49.3164 75.3906 53.2227 70.8008 53.3691 65.8203C53.418 64.1113 52.3926 62.9395 50.8789 62.9395C49.4141 62.9395 48.6328 63.7695 48.2422 65.4297C47.7051 67.9199 46.2891 70.5566 42.9688 70.5566C38.0859 70.5566 36.5723 65.3809 36.5723 59.7656C36.5723 54.4922 38.1836 49.1699 42.9199 49.1699C46.2402 49.1699 47.5586 51.7578 48.0957 54.248C48.4863 55.9082 49.2676 56.7383 50.7324 56.7383C52.2461 56.7383 53.2715 55.6152 53.2227 53.8574C53.0762 48.877 49.1699 44.3359 42.8223 44.3359C34.8145 44.3359 31.2012 51.2695 31.2012 59.7656C31.2012 68.1152 34.5215 75.3906 42.9688 75.3906ZM66.6016 75.3906C73.6816 75.3906 78.125 69.3359 78.125 59.8633C78.125 50.3418 73.6816 44.3359 66.5527 44.3359C59.4238 44.3359 54.9316 50.3418 54.9316 59.8633C54.9316 69.3359 59.4238 75.3906 66.6016 75.3906ZM66.6016 70.5566C62.6953 70.5566 60.3027 66.6016 60.3027 59.8633C60.3027 53.125 62.6953 49.1699 66.5527 49.1699C70.4102 49.1699 72.8027 53.125 72.8027 59.8633C72.8027 66.6016 70.4102 70.5566 66.6016 70.5566ZM81.3965 77.3438L89.3066 77.3438C90.2832 77.3438 91.0645 76.4648 91.0645 75.4883C91.0645 74.5605 90.2344 73.7305 89.3066 73.7305L85.5469 73.7305L87.1094 72.0703C89.0625 70.166 90.4297 68.3594 90.4297 66.4062C90.4297 63.6719 88.1836 61.6699 85.0586 61.6699C81.7383 61.6699 79.6875 64.1602 79.6875 66.2598C79.6875 67.4805 80.5664 68.2129 81.543 68.2129C82.7148 68.2129 83.252 67.3828 83.5449 66.6992C83.8379 65.7715 84.3262 65.2832 85.1074 65.2832C85.8398 65.2832 86.377 65.8203 86.377 66.5039C86.377 67.627 85.3027 68.8965 84.2285 69.9707L80.4688 73.8281C80.0293 74.2676 79.7363 75 79.7363 75.5859C79.7363 76.5625 80.4688 77.3438 81.3965 77.3438Z" fill="#000000" fill-opacity="0.85"/>
 </g>
</svg>
