<?xml version="1.0" encoding="UTF-8"?>
<!--Generator: Apple Native CoreSVG 232.5-->
<!DOCTYPE svg
PUBLIC "-//W3C//DTD SVG 1.1//EN"
       "http://www.w3.org/Graphics/SVG/1.1/DTD/svg11.dtd">
<svg version="1.1" xmlns="http://www.w3.org/2000/svg" xmlns:xlink="http://www.w3.org/1999/xlink" width="117.383" height="92.334">
 <g>
  <rect height="92.334" opacity="0" width="117.383" x="0" y="0"/>
  <path d="M24.6094 92.2363L88.1836 92.2363C104.639 92.2363 117.383 79.7852 117.383 63.8672C117.383 47.8027 104.395 35.6934 86.6211 35.6934C80.127 22.8027 68.2129 14.9414 53.7598 14.9414C34.8145 14.9414 18.75 29.6387 17.041 49.1211C7.27539 51.9043 0.683594 60.1074 0.683594 70.459C0.683594 82.5195 9.42383 92.2363 24.6094 92.2363ZM24.5117 84.375C14.502 84.375 8.54492 78.9551 8.54492 70.7031C8.54492 63.6719 13.0371 58.6426 20.9473 56.543C23.6816 55.8594 24.707 54.5898 24.9023 51.7578C26.0742 35.2051 38.4766 22.8027 53.7598 22.8027C65.4785 22.8027 74.6094 29.3457 80.0781 40.5762C81.2012 42.9688 82.6172 43.7988 85.5957 43.7988C100.879 43.7988 109.521 53.0273 109.521 64.0625C109.521 75.4395 100.391 84.375 88.7207 84.375ZM6.83594 44.4336C10.5957 44.4336 13.623 41.4062 13.623 37.5977C13.623 33.8379 10.5957 30.8105 6.83594 30.8105C3.02734 30.8105 0 33.8379 0 37.5977C0 41.4062 3.02734 44.4336 6.83594 44.4336ZM78.418 12.8418C81.9336 12.8418 84.8145 9.96094 84.8145 6.44531C84.8145 2.92969 81.9336 0 78.418 0C74.9023 0 72.0215 2.92969 72.0215 6.44531C72.0215 9.96094 74.9023 12.8418 78.418 12.8418ZM98.9746 29.7363C104.248 29.7363 108.496 25.4883 108.496 20.1172C108.496 14.7949 104.248 10.5469 98.9746 10.5469C93.6035 10.5469 89.3066 14.7949 89.3066 20.1172C89.3066 25.4883 93.6035 29.7363 98.9746 29.7363Z" fill="#000000" fill-opacity="0.85"/>
  <path d="M46.1914 75.3906C52.5879 75.3906 56.4453 70.8008 56.6406 65.8203C56.6895 64.1113 55.6641 62.9395 54.1016 62.9395C52.6367 62.9395 51.9043 63.7695 51.5137 65.4297C50.9766 67.9199 49.5117 70.5566 46.1914 70.5566C41.3574 70.5566 39.8438 65.3809 39.8438 59.7656C39.8438 54.4922 41.4551 49.1699 46.1426 49.1699C49.4629 49.1699 50.7812 51.7578 51.3672 54.248C51.7578 55.9082 52.4902 56.7383 53.9551 56.7383C55.5176 56.7383 56.543 55.6152 56.4941 53.8574C56.2988 48.877 52.4414 44.3359 46.0449 44.3359C38.0859 44.3359 34.4727 51.2695 34.4727 59.7656C34.4727 68.1152 37.7441 75.3906 46.1914 75.3906ZM69.8242 75.3906C76.9043 75.3906 81.3965 69.3359 81.3965 59.8633C81.3965 50.3418 76.9043 44.3359 69.8242 44.3359C62.6953 44.3359 58.1543 50.3418 58.1543 59.8633C58.1543 69.3359 62.6953 75.3906 69.8242 75.3906ZM69.8242 70.5566C65.9668 70.5566 63.5742 66.6016 63.5742 59.8633C63.5742 53.125 65.9668 49.1699 69.8242 49.1699C73.6328 49.1699 76.0254 53.125 76.0254 59.8633C76.0254 66.6016 73.6328 70.5566 69.8242 70.5566Z" fill="#000000" fill-opacity="0.85"/>
 </g>
</svg>
