<?xml version="1.0" encoding="UTF-8"?>
<!--Generator: Apple Native CoreSVG 232.5-->
<!DOCTYPE svg
PUBLIC "-//W3C//DTD SVG 1.1//EN"
       "http://www.w3.org/Graphics/SVG/1.1/DTD/svg11.dtd">
<svg version="1.1" xmlns="http://www.w3.org/2000/svg" xmlns:xlink="http://www.w3.org/1999/xlink" width="117.383" height="92.334">
 <g>
  <rect height="92.334" opacity="0" width="117.383" x="0" y="0"/>
  <path d="M86.6211 35.6934C104.395 35.6934 117.383 47.8027 117.383 63.8672C117.383 79.7852 104.639 92.2363 88.1836 92.2363L24.6094 92.2363C9.42383 92.2363 0.683594 82.5195 0.683594 70.459C0.683594 60.1074 7.27539 51.9043 17.041 49.1211C18.75 29.6387 34.8145 14.9414 53.7598 14.9414C68.2129 14.9414 80.127 22.8027 86.6211 35.6934ZM80.7617 66.3574C80.7617 67.627 81.6406 68.4082 82.666 68.4082C83.8867 68.4082 84.4238 67.5293 84.7656 66.8457C85.0586 65.8691 85.5469 65.3809 86.3281 65.3809C87.1094 65.3809 87.6465 65.918 87.6465 66.6504C87.6465 67.7734 86.5234 69.0918 85.4492 70.2148L81.543 74.1699C81.1035 74.6094 80.8105 75.3906 80.8105 75.9766C80.8105 77.002 81.543 77.7832 82.5195 77.7832L90.6738 77.7832C91.6992 77.7832 92.4805 76.9043 92.4805 75.8789C92.4805 74.9512 91.6504 74.0723 90.6738 74.0723L86.8164 74.0723L88.4277 72.3633C90.4297 70.4102 91.8457 68.5547 91.8457 66.5527C91.8457 63.7207 89.502 61.6211 86.2793 61.6211C82.8613 61.6211 80.7617 64.209 80.7617 66.3574ZM29.7852 59.7656C29.7852 68.3594 33.2031 75.8789 41.8945 75.8789C48.4375 75.8789 52.4902 71.1426 52.6367 66.0156C52.6855 64.2578 51.6113 63.0371 50.0488 63.0371C48.5352 63.0371 47.7539 63.8672 47.3145 65.625C46.7773 68.1641 45.3125 70.8496 41.8945 70.8496C36.9141 70.8496 35.3516 65.5273 35.3516 59.7656C35.3516 54.3457 37.0117 48.877 41.8457 48.877C45.2637 48.877 46.6309 51.5137 47.168 54.0527C47.6074 55.8105 48.3887 56.6406 49.9023 56.6406C51.4648 56.6406 52.5391 55.4688 52.4902 53.6621C52.3438 48.5352 48.291 43.8477 41.748 43.8477C33.4961 43.8477 29.7852 51.0254 29.7852 59.7656ZM54.7363 59.8633C54.7363 69.6289 59.375 75.8789 66.748 75.8789C74.0723 75.8789 78.6621 69.6289 78.6621 59.8633C78.6621 50.0488 74.0723 43.8477 66.6992 43.8477C59.375 43.8477 54.7363 50.0488 54.7363 59.8633ZM73.1445 59.8633C73.1445 66.7969 70.7031 70.8496 66.748 70.8496C62.7441 70.8496 60.3027 66.7969 60.3027 59.8633C60.3027 52.9297 62.7441 48.877 66.6992 48.877C70.7031 48.877 73.1445 52.9297 73.1445 59.8633ZM13.623 37.5977C13.623 41.4062 10.5957 44.4336 6.83594 44.4336C3.02734 44.4336 0 41.4062 0 37.5977C0 33.8379 3.02734 30.8105 6.83594 30.8105C10.5957 30.8105 13.623 33.8379 13.623 37.5977ZM108.496 20.1172C108.496 25.4883 104.248 29.7363 98.9746 29.7363C93.6035 29.7363 89.3066 25.4883 89.3066 20.1172C89.3066 14.7949 93.6035 10.5469 98.9746 10.5469C104.248 10.5469 108.496 14.7949 108.496 20.1172ZM84.8145 6.44531C84.8145 9.96094 81.9336 12.8418 78.418 12.8418C74.9023 12.8418 72.0215 9.96094 72.0215 6.44531C72.0215 2.92969 74.9023 0 78.418 0C81.9336 0 84.8145 2.92969 84.8145 6.44531Z" fill="#000000" fill-opacity="0.85"/>
 </g>
</svg>
