<?xml version="1.0" encoding="UTF-8"?>
<!--Generator: Apple Native CoreSVG 232.5-->
<!DOCTYPE svg
PUBLIC "-//W3C//DTD SVG 1.1//EN"
       "http://www.w3.org/Graphics/SVG/1.1/DTD/svg11.dtd">
<svg version="1.1" xmlns="http://www.w3.org/2000/svg" xmlns:xlink="http://www.w3.org/1999/xlink" width="109.611" height="103.467">
 <g>
  <rect height="103.467" opacity="0" width="109.611" x="0" y="0"/>
  <path d="M108.785 82.6172C112.789 68.0176 102.193 61.6699 76.0215 61.6699C63.375 61.6699 50.2403 62.9395 40.1817 65.0391L41.9395 67.4805C44.625 45.6543 37.9356 27.7832 23.2383 20.0684L24.6543 26.0742C30.3672 9.96094 20.211 0 10.8848 0C3.85354 0-2.20114 5.46875 0.777373 17.627L19.1367 92.1387C20.9434 99.4629 25.7774 103.369 33.0039 103.369L89.9864 103.369C100.045 103.369 104.488 98.5352 108.785 82.6172Z" fill="#000000" fill-opacity="0.85"/>
  <path d="M89.1075 46.2402C91.4024 46.2402 92.7207 44.7754 92.7207 42.1875L92.7207 7.76367C92.7207 5.12695 91.3535 3.71094 88.9121 3.71094C87.2032 3.71094 86.0801 4.10156 84.1758 5.51758L75.7774 11.1328C74.8008 11.8164 74.459 12.5488 74.459 13.623C74.459 15.0391 75.5821 16.2598 76.9492 16.2598C77.6328 16.2598 78.1211 16.1621 79.2442 15.332L85.1035 11.4746L85.5918 11.4746L85.5918 42.1875C85.5918 44.7266 86.959 46.2402 89.1075 46.2402Z" fill="#000000" fill-opacity="0.85"/>
 </g>
</svg>
