<?xml version="1.0" encoding="UTF-8"?>
<!--Generator: Apple Native CoreSVG 232.5-->
<!DOCTYPE svg
PUBLIC "-//W3C//DTD SVG 1.1//EN"
       "http://www.w3.org/Graphics/SVG/1.1/DTD/svg11.dtd">
<svg version="1.1" xmlns="http://www.w3.org/2000/svg" xmlns:xlink="http://www.w3.org/1999/xlink" width="109.611" height="103.467">
 <g>
  <rect height="103.467" opacity="0" width="109.611" x="0" y="0"/>
  <path d="M26.2168 55.4199C26.2168 61.8652 20.4551 65.4297 20.4551 69.7266C20.4551 72.2656 21.0899 73.584 22.7012 75.7324C25.045 78.8574 20.6504 81.9824 18.3555 79.0039C16.0606 76.123 15.0352 73.4375 15.0352 70.0684C15.0352 63.4766 20.6992 60.1562 20.6992 55.4199C20.6992 50.6348 15.0352 47.3633 15.0352 40.7227C15.0352 37.4512 16.0606 34.7656 18.3555 31.8359C20.7481 28.8086 25.0938 31.9336 22.75 35.0586C21.0899 37.2559 20.4551 38.623 20.4551 41.0645C20.4551 45.459 26.2168 49.0234 26.2168 55.4199ZM41.8907 55.4199C41.8907 61.8652 36.1289 65.4297 36.1289 69.7266C36.1289 72.2656 36.7637 73.584 38.375 75.7324C40.7188 78.8574 36.3242 81.9824 33.9805 79.0039C31.6856 76.123 30.709 73.4375 30.709 70.0684C30.709 63.4766 36.3731 60.1562 36.3731 55.4199C36.3731 50.6348 30.709 47.3633 30.709 40.7227C30.709 37.4512 31.6856 34.7656 34.0293 31.8359C36.3731 28.8086 40.7188 31.9336 38.4239 35.0586C36.7637 37.2559 36.1289 38.623 36.1289 41.0645C36.1289 45.459 41.8907 49.0234 41.8907 55.4199ZM57.5157 55.4199C57.5157 61.8652 51.7539 65.4297 51.7539 69.7266C51.7539 72.2656 52.3887 73.584 54 75.7324C56.3438 78.8574 51.9981 81.9824 49.6543 79.0039C47.3594 76.123 46.334 73.4375 46.334 70.0684C46.334 63.4766 51.9981 60.1562 51.9981 55.4199C51.9981 50.6348 46.334 47.3633 46.334 40.7227C46.334 37.4512 47.3594 34.7656 49.6543 31.8359C52.0469 28.8086 56.3926 31.9336 54.0489 35.0586C52.3887 37.2559 51.7539 38.623 51.7539 41.0645C51.7539 45.459 57.5157 49.0234 57.5157 55.4199ZM0.826201 82.6172C5.12308 98.5352 9.56644 103.369 19.625 103.369L76.6075 103.369C83.834 103.369 88.668 99.4629 90.4746 92.1387L108.834 17.627C111.813 5.46875 105.758 0 98.7266 0C89.4004 0 79.2442 9.96094 84.9571 26.0742L86.3731 20.0684C71.6758 27.7832 64.9864 45.6543 67.6719 67.4805L69.4297 65.0391C59.3711 62.9395 46.2364 61.6699 33.5899 61.6699C7.46683 61.6699-3.17771 68.0176 0.826201 82.6172Z" fill="#000000" fill-opacity="0.85"/>
 </g>
</svg>
