<?xml version="1.0" encoding="UTF-8"?>
<!--Generator: Apple Native CoreSVG 232.5-->
<!DOCTYPE svg
PUBLIC "-//W3C//DTD SVG 1.1//EN"
       "http://www.w3.org/Graphics/SVG/1.1/DTD/svg11.dtd">
<svg version="1.1" xmlns="http://www.w3.org/2000/svg" xmlns:xlink="http://www.w3.org/1999/xlink" width="109.611" height="103.467">
 <g>
  <rect height="103.467" opacity="0" width="109.611" x="0" y="0"/>
  <path d="M108.785 82.6172C112.789 68.0176 102.193 61.6699 76.0215 61.6699C63.375 61.6699 50.2403 62.9395 40.1817 65.0391L41.9395 67.4805C44.625 45.6543 37.9356 27.7832 23.2383 20.0684L24.6543 26.0742C30.3672 9.96094 20.211 0 10.8848 0C3.85354 0-2.20114 5.46875 0.777373 17.627L19.1367 92.1387C20.9434 99.4629 25.7774 103.369 33.0039 103.369L89.9864 103.369C100.045 103.369 104.488 98.5352 108.785 82.6172Z" fill="#000000" fill-opacity="0.85"/>
  <path d="M86.3242 44.6289C95.211 44.6289 101.217 39.9414 101.217 32.9102C101.217 27.8809 97.4571 23.877 92.2813 23.2422L92.2813 23.2422C96.4805 22.5586 99.8496 18.6523 99.8496 14.1113C99.8496 8.10547 94.3321 3.71094 86.666 3.71094C79.6836 3.71094 74.4102 6.98242 73.1407 12.207C73.043 12.793 72.9942 13.1836 72.9942 13.916C72.9942 15.5762 74.2149 16.7969 76.0215 16.7969C77.584 16.7969 78.5606 16.0645 79.0977 14.502C80.0254 11.2305 82.8086 9.375 86.5684 9.375C90.67 9.375 93.3067 11.4258 93.3067 14.7949C93.3067 18.2617 90.3282 20.8008 86.3731 20.8008L83.6875 20.8008C82.125 20.8008 80.9043 21.9238 80.9043 23.5352C80.9043 25.1465 82.0762 26.3184 83.6875 26.3184L86.666 26.3184C91.4024 26.3184 94.6739 28.8574 94.6739 32.666C94.6739 36.377 91.3535 38.916 86.4219 38.916C82.3692 38.916 79.4395 37.1094 78.3164 33.7891C77.6817 32.2754 76.7539 31.5918 75.2403 31.5918C73.4825 31.5918 72.2129 32.8125 72.2129 34.5703C72.2129 35.2051 72.2617 35.498 72.3594 36.084C73.5313 41.1133 79.293 44.6289 86.3242 44.6289Z" fill="#000000" fill-opacity="0.85"/>
 </g>
</svg>
