<?xml version="1.0" encoding="UTF-8"?>
<!--Generator: Apple Native CoreSVG 232.5-->
<!DOCTYPE svg
PUBLIC "-//W3C//DTD SVG 1.1//EN"
       "http://www.w3.org/Graphics/SVG/1.1/DTD/svg11.dtd">
<svg version="1.1" xmlns="http://www.w3.org/2000/svg" xmlns:xlink="http://www.w3.org/1999/xlink" width="110.524" height="141.26">
 <g>
  <rect height="141.26" opacity="0" width="110.524" x="0" y="0"/>
  <path d="M109.705 82.666C113.709 68.0664 103.065 61.7188 76.9417 61.7188C64.6371 61.7188 52.2347 62.7441 41.5414 64.6484L43.8363 67.4805C45.3988 46.7285 39.3929 29.4434 28.016 21.3379L28.9437 26.0742C33.3871 10.8887 24.0609 0 12.5863 0C3.11362 0-1.96451 6.88477 0.721038 17.6758L19.0804 92.1875C20.8871 99.5117 25.721 103.467 32.8988 103.467L90.9066 103.467C100.965 103.467 105.409 98.584 109.705 82.666ZM102.186 80.6152C98.6214 93.7988 96.3753 95.6055 90.9066 95.6055L32.8988 95.6055C29.6761 95.6055 27.5765 93.7012 26.7464 90.2832L8.24057 15.625C7.06869 10.8398 9.02182 7.86133 12.6351 7.86133C18.2015 7.86133 23.2796 12.9395 21.9124 22.1191C21.4242 25.4395 21.766 26.416 23.6214 27.9297C32.2152 34.3262 37.0492 49.1211 36.6585 67.5293C36.6585 70.5078 38.514 72.3633 41.4925 72.3145C47.0589 71.9238 59.5589 69.5801 76.9417 69.5801C98.3773 69.5801 104.285 72.7539 102.186 80.6152Z" fill="#000000" fill-opacity="0.85"/>
  <path d="M75.1351 137.402C75.1351 140.039 77.2347 141.162 79.5296 139.746L96.8636 129.199C99.1097 127.832 99.0609 125.244 96.8636 123.926L79.5296 113.281C77.2347 111.865 75.1351 113.086 75.1351 115.674Z" fill="#000000" fill-opacity="0.85"/>
  <path d="M49.7933 137.402L49.7933 115.674C49.7933 113.086 47.6937 111.865 45.3988 113.281L28.016 123.926C25.8675 125.244 25.8187 127.832 28.016 129.199L45.3499 139.746C47.6449 141.162 49.7933 140.039 49.7933 137.402Z" fill="#000000" fill-opacity="0.85"/>
 </g>
</svg>
