<?xml version="1.0" encoding="UTF-8"?>
<!--Generator: Apple Native CoreSVG 232.5-->
<!DOCTYPE svg
PUBLIC "-//W3C//DTD SVG 1.1//EN"
       "http://www.w3.org/Graphics/SVG/1.1/DTD/svg11.dtd">
<svg version="1.1" xmlns="http://www.w3.org/2000/svg" xmlns:xlink="http://www.w3.org/1999/xlink" width="138.782" height="103.467">
 <g>
  <rect height="103.467" opacity="0" width="138.782" x="0" y="0"/>
  <path d="M137.946 82.6172C141.95 68.0176 131.305 61.6699 105.182 61.6699C92.5356 61.6699 79.4008 62.9395 69.3422 65.0391L71.1001 67.4805C73.7856 45.6543 67.0962 27.7832 52.3989 20.0684L53.8149 26.0742C59.5278 9.96094 49.3715 0 40.0454 0C33.0141 0 26.9594 5.46875 29.938 17.627L48.2973 92.1387C50.104 99.4629 54.938 103.369 62.1645 103.369L119.147 103.369C129.206 103.369 133.649 98.5352 137.946 82.6172Z" fill="#000000" fill-opacity="0.85"/>
  <path d="M25.4946 47.7539L19.977 26.7578C19.2934 24.2188 16.9008 23.584 15.0454 25.5371L1.0317 40.2832C-0.774938 42.0898-0.140173 44.6289 2.39889 45.3613L21.7837 51.1719C24.4204 51.9531 26.1782 50.293 25.4946 47.7539Z" fill="#000000" fill-opacity="0.85"/>
  <path d="M78.8637 30.3223C79.5473 32.9102 81.8911 33.3984 83.7465 31.4453L97.809 16.7969C99.6157 14.9414 98.9321 12.4512 96.4907 11.7188L76.9594 5.85938C74.4204 5.07812 72.6626 6.78711 73.3462 9.27734Z" fill="#000000" fill-opacity="0.85"/>
 </g>
</svg>
