<?xml version="1.0" encoding="UTF-8"?>
<!--Generator: Apple Native CoreSVG 232.5-->
<!DOCTYPE svg
PUBLIC "-//W3C//DTD SVG 1.1//EN"
       "http://www.w3.org/Graphics/SVG/1.1/DTD/svg11.dtd">
<svg version="1.1" xmlns="http://www.w3.org/2000/svg" xmlns:xlink="http://www.w3.org/1999/xlink" width="110.524" height="103.564">
 <g>
  <rect height="103.564" opacity="0" width="110.524" x="0" y="0"/>
  <path d="M109.705 82.666C113.709 68.0664 103.065 61.7188 76.9417 61.7188C64.6371 61.7188 52.2347 62.7441 41.5414 64.5996L43.8363 67.4805C45.3988 46.7285 39.3929 29.3945 28.016 21.3379L28.9437 26.0742C33.3871 10.8887 24.0609 0 12.5863 0C3.11362 0-1.96451 6.83594 0.721038 17.6758L19.0804 92.1875C20.8871 99.5117 25.721 103.418 32.8988 103.418L90.9066 103.418C100.965 103.418 105.409 98.584 109.705 82.666ZM102.186 80.5664C98.6214 93.7988 96.3753 95.5566 90.9066 95.5566L32.8988 95.5566C29.6761 95.5566 27.5765 93.7012 26.7464 90.2832L8.24057 15.625C7.06869 10.8398 9.02182 7.86133 12.6351 7.86133C18.2015 7.86133 23.2796 12.9395 21.9124 22.1191C21.4242 25.4395 21.766 26.416 23.6214 27.9297C32.2152 34.3262 37.0492 49.1211 36.6585 67.4805C36.6585 70.459 38.514 72.3633 41.4925 72.3145C47.0589 71.9238 59.5589 69.5801 76.9417 69.5801C98.3773 69.5801 104.285 72.7539 102.186 80.5664Z" fill="#000000" fill-opacity="0.85"/>
  <path d="M89.9789 46.2891C92.2738 46.2891 93.5921 44.8242 93.5921 42.2363L93.5921 7.8125C93.5921 5.17578 92.2249 3.75977 89.7835 3.75977C88.0746 3.75977 86.9515 4.15039 84.9984 5.56641L76.6488 11.1816C75.6234 11.8652 75.3304 12.5977 75.3304 13.6719C75.3304 15.0879 76.4535 16.3086 77.8206 16.3086C78.5042 16.3086 78.9925 16.2109 80.1156 15.3809L85.9749 11.5234L86.4632 11.5234L86.4632 42.2363C86.4632 44.7754 87.8304 46.2891 89.9789 46.2891Z" fill="#000000" fill-opacity="0.85"/>
 </g>
</svg>
