<?xml version="1.0" encoding="UTF-8"?>
<!--Generator: Apple Native CoreSVG 232.5-->
<!DOCTYPE svg
PUBLIC "-//W3C//DTD SVG 1.1//EN"
       "http://www.w3.org/Graphics/SVG/1.1/DTD/svg11.dtd">
<svg version="1.1" xmlns="http://www.w3.org/2000/svg" xmlns:xlink="http://www.w3.org/1999/xlink" width="110.524" height="103.564">
 <g>
  <rect height="103.564" opacity="0" width="110.524" x="0" y="0"/>
  <path d="M0.818694 82.666C5.11557 98.584 9.55893 103.418 19.6175 103.418L77.5765 103.418C84.8031 103.418 89.6371 99.5117 91.4437 92.1875L109.803 17.6758C112.489 6.83594 107.41 0 97.889 0C86.4144 0 77.1371 10.8887 81.5804 26.0742L82.5081 21.3379C71.1312 29.3945 65.1253 46.7285 66.6878 67.4805L68.9339 64.5996C58.2894 62.7441 45.8871 61.7188 33.5824 61.7188C7.45932 61.7188-3.18521 68.0664 0.818694 82.666ZM8.33823 80.5664C6.18979 72.7539 12.1468 69.5801 33.5824 69.5801C50.9652 69.5801 63.4652 71.9238 69.0316 72.3145C72.0101 72.3633 73.8656 70.459 73.8167 67.4805C73.4749 49.1211 78.3089 34.3262 86.8539 27.9297C88.7093 26.416 89.0999 25.4395 88.5628 22.1191C87.2445 12.9395 92.3226 7.86133 97.889 7.86133C101.502 7.86133 103.455 10.8398 102.284 15.625L83.7777 90.2832C82.9476 93.7012 80.848 95.5566 77.5765 95.5566L19.6175 95.5566C14.1488 95.5566 11.9027 93.7988 8.33823 80.5664Z" fill="#000000" fill-opacity="0.85"/>
  <path d="M23.4749 44.6777C32.3617 44.6777 38.3675 39.9902 38.3675 32.959C38.3675 27.9297 34.6078 23.9258 29.432 23.291L29.432 23.291C33.6312 22.6074 37.0003 18.7012 37.0003 14.1602C37.0003 8.1543 31.5316 3.75977 23.8167 3.75977C16.8343 3.75977 11.5609 7.03125 10.3402 12.2559C10.1937 12.8418 10.1449 13.2324 10.1449 13.9648C10.1449 15.625 11.3656 16.8457 13.221 16.8457C14.7347 16.8457 15.7113 16.1133 16.2484 14.5508C17.2249 11.2793 20.0081 9.42383 23.7191 9.42383C27.8206 9.42383 30.4574 11.4746 30.4574 14.8438C30.4574 18.3105 27.4789 20.8496 23.5238 20.8496L20.8382 20.8496C19.2757 20.8496 18.055 21.9727 18.055 23.584C18.055 25.1953 19.2269 26.3672 20.8382 26.3672L23.8167 26.3672C28.5531 26.3672 31.8246 28.9062 31.8246 32.7148C31.8246 36.4258 28.5042 38.9648 23.5726 38.9648C19.5199 38.9648 16.639 37.1582 15.4671 33.8379C14.8812 32.3242 13.9046 31.6406 12.4398 31.6406C10.6331 31.6406 9.36362 32.8613 9.36362 34.6191C9.36362 35.2539 9.41244 35.5469 9.55893 36.1328C10.682 41.1621 16.4925 44.6777 23.4749 44.6777Z" fill="#000000" fill-opacity="0.85"/>
 </g>
</svg>
