<?xml version="1.0" encoding="UTF-8"?>
<!--Generator: Apple Native CoreSVG 232.5-->
<!DOCTYPE svg
PUBLIC "-//W3C//DTD SVG 1.1//EN"
       "http://www.w3.org/Graphics/SVG/1.1/DTD/svg11.dtd">
<svg version="1.1" xmlns="http://www.w3.org/2000/svg" xmlns:xlink="http://www.w3.org/1999/xlink" width="109.611" height="141.162">
 <g>
  <rect height="141.162" opacity="0" width="109.611" x="0" y="0"/>
  <path d="M0.826201 82.6172C5.12308 98.5352 9.56644 103.418 19.625 103.418L76.6075 103.418C83.834 103.418 88.668 99.4629 90.4746 92.1387L108.834 17.627C111.813 5.51758 105.758 0 98.7266 0C89.4004 0 79.2442 9.96094 84.9571 26.0742L86.3731 20.1172C71.6758 27.7832 64.9864 45.7031 67.6719 67.4805L69.4297 65.0879C59.3711 62.9395 46.2364 61.6699 33.5899 61.6699C7.46683 61.6699-3.17771 68.0176 0.826201 82.6172Z" fill="#000000" fill-opacity="0.85"/>
  <path d="M60.6895 137.354C60.6895 139.99 62.8379 141.113 65.1328 139.697L82.4668 129.15C84.6641 127.783 84.6153 125.195 82.4668 123.877L65.084 113.232C62.7891 111.816 60.6895 113.037 60.6895 115.625Z" fill="#000000" fill-opacity="0.85"/>
  <path d="M35.3477 137.354L35.3477 115.625C35.3477 113.037 33.2481 111.816 30.9532 113.232L13.6192 123.877C11.4219 125.195 11.3731 127.783 13.6192 129.15L30.9532 139.697C33.2481 141.113 35.3477 139.99 35.3477 137.354Z" fill="#000000" fill-opacity="0.85"/>
 </g>
</svg>
