<?xml version="1.0" encoding="UTF-8"?>
<!--Generator: Apple Native CoreSVG 232.5-->
<!DOCTYPE svg
PUBLIC "-//W3C//DTD SVG 1.1//EN"
       "http://www.w3.org/Graphics/SVG/1.1/DTD/svg11.dtd">
<svg version="1.1" xmlns="http://www.w3.org/2000/svg" xmlns:xlink="http://www.w3.org/1999/xlink" width="110.524" height="135.205">
 <g>
  <rect height="135.205" opacity="0" width="110.524" x="0" y="0"/>
  <path d="M0.818694 82.666C5.11557 98.584 9.55893 103.418 19.6175 103.418L77.5765 103.418C84.8031 103.418 89.6371 99.5117 91.4437 92.1387L109.803 17.627C112.489 6.83594 107.41 1.42109e-14 97.889 1.42109e-14C86.4144 1.42109e-14 77.1371 10.8887 81.5804 26.0254L82.5081 21.3379C71.1312 29.3945 65.1253 46.6797 66.6878 67.4805L68.9339 64.5996C58.2894 62.6953 45.8871 61.7188 33.5824 61.7188C7.45932 61.7188-3.18521 68.0664 0.818694 82.666ZM8.33823 80.5664C6.18979 72.7051 12.1468 69.5801 33.5824 69.5801C50.9652 69.5801 63.4652 71.9238 69.0316 72.3145C72.0101 72.3633 73.8656 70.459 73.8167 67.4805C73.4749 49.1211 78.3089 34.2773 86.8539 27.8809C88.7093 26.3672 89.0999 25.4395 88.5628 22.0703C87.2445 12.9395 92.3226 7.86133 97.889 7.86133C101.502 7.86133 103.455 10.791 102.284 15.5762L83.7777 90.2344C82.9476 93.7012 80.848 95.5566 77.5765 95.5566L19.6175 95.5566C14.1488 95.5566 11.9027 93.7988 8.33823 80.5664Z" fill="#000000" fill-opacity="0.85"/>
  <path d="M26.5023 110.889C23.8656 110.889 22.7914 113.037 24.1585 115.332L34.7054 132.666C36.1214 134.912 38.6605 134.814 39.9789 132.666L50.6234 115.332C52.0394 113.037 50.8187 110.889 48.2308 110.889Z" fill="#000000" fill-opacity="0.85"/>
  <path d="M26.5023 54.2969L48.2308 54.2969C50.8187 54.2969 52.0394 52.1973 50.6234 49.9023L39.9789 32.5684C38.6605 30.3711 36.0726 30.3223 34.7054 32.5684L24.1585 49.9023C22.7425 52.1973 23.8656 54.2969 26.5023 54.2969Z" fill="#000000" fill-opacity="0.85"/>
 </g>
</svg>
