<?xml version="1.0" encoding="UTF-8"?>
<!--Generator: Apple Native CoreSVG 232.5-->
<!DOCTYPE svg
PUBLIC "-//W3C//DTD SVG 1.1//EN"
       "http://www.w3.org/Graphics/SVG/1.1/DTD/svg11.dtd">
<svg version="1.1" xmlns="http://www.w3.org/2000/svg" xmlns:xlink="http://www.w3.org/1999/xlink" width="110.524" height="103.564">
 <g>
  <rect height="103.564" opacity="0" width="110.524" x="0" y="0"/>
  <path d="M0.818694 82.666C5.11557 98.584 9.55893 103.418 19.6175 103.418L77.5765 103.418C84.8031 103.418 89.6371 99.5117 91.4437 92.1875L109.803 17.6758C112.489 6.83594 107.41 0 97.889 0C86.4144 0 77.1371 10.8887 81.5804 26.0742L82.5081 21.3379C71.1312 29.3945 65.1253 46.7285 66.6878 67.4805L68.9339 64.5996C58.2894 62.7441 45.8871 61.7188 33.5824 61.7188C7.45932 61.7188-3.18521 68.0664 0.818694 82.666ZM8.33823 80.5664C6.18979 72.7539 12.1468 69.5801 33.5824 69.5801C50.9652 69.5801 63.4652 71.9238 69.0316 72.3145C72.0101 72.3633 73.8656 70.459 73.8167 67.4805C73.4749 49.1211 78.3089 34.3262 86.8539 27.9297C88.7093 26.416 89.0999 25.4395 88.5628 22.1191C87.2445 12.9395 92.3226 7.86133 97.889 7.86133C101.502 7.86133 103.455 10.8398 102.284 15.625L83.7777 90.2832C82.9476 93.7012 80.848 95.5566 77.5765 95.5566L19.6175 95.5566C14.1488 95.5566 11.9027 93.7988 8.33823 80.5664Z" fill="#000000" fill-opacity="0.85"/>
  <path d="M6.0433 32.4707C6.0433 39.6484 12.5863 46.875 18.641 46.875C24.2074 46.875 26.9906 41.8945 30.3597 33.0566L31.5804 32.8125L31.5804 42.334C31.5804 46.4355 33.7289 48.5352 37.6839 48.5352C44.8128 48.5352 52.0882 42.041 52.0882 35.9375C52.0882 30.3223 47.0589 27.5391 38.221 24.1699L37.9769 22.9492L47.4984 22.9492C51.5999 22.9492 53.6996 20.8496 53.6996 16.8945C53.6996 9.7168 47.2054 2.44141 41.1019 2.44141C35.5355 2.44141 32.7035 7.51953 29.3831 16.4062L28.1136 16.5527L28.1136 7.03125C28.1136 2.97852 26.0628 0.830078 22.1078 0.830078C14.8812 0.830078 7.65463 7.37305 7.65463 13.4277C7.65463 18.9941 12.7328 21.7773 21.6195 25.1465L21.7171 26.416L12.2445 26.416C8.14291 26.416 6.0433 28.5645 6.0433 32.4707ZM24.9886 24.6582C24.9886 21.9727 27.1371 19.7754 29.8714 19.7754C32.557 19.7754 34.7542 21.9727 34.7542 24.6582C34.7542 27.3926 32.557 29.541 29.8714 29.541C27.1859 29.541 24.9886 27.3926 24.9886 24.6582Z" fill="#000000" fill-opacity="0.85"/>
 </g>
</svg>
