<?xml version="1.0" encoding="UTF-8"?>
<!--Generator: Apple Native CoreSVG 232.5-->
<!DOCTYPE svg
PUBLIC "-//W3C//DTD SVG 1.1//EN"
       "http://www.w3.org/Graphics/SVG/1.1/DTD/svg11.dtd">
<svg version="1.1" xmlns="http://www.w3.org/2000/svg" xmlns:xlink="http://www.w3.org/1999/xlink" width="139.661" height="103.467">
 <g>
  <rect height="103.467" opacity="0" width="139.661" x="0" y="0"/>
  <path d="M0.83639 82.6172C5.13326 98.5352 9.57662 103.369 19.6352 103.369L76.6176 103.369C83.8442 103.369 88.6782 99.4629 90.4848 92.1387L108.844 17.627C111.823 5.46875 105.768 0 98.7368 0C89.4106 0 79.2544 9.96094 84.9672 26.0742L86.3833 20.0684C71.686 27.7832 64.9965 45.6543 67.6821 67.4805L69.4399 65.0391C59.3813 62.9395 46.2465 61.6699 33.6001 61.6699C7.47701 61.6699-3.16752 68.0176 0.83639 82.6172Z" fill="#000000" fill-opacity="0.85"/>
  <path d="M114.166 47.7539C113.483 50.293 115.241 51.9531 117.877 51.1719L137.262 45.3613C139.801 44.6289 140.436 42.0898 138.629 40.2832L124.616 25.5371C122.76 23.584 120.368 24.2188 119.684 26.7578Z" fill="#000000" fill-opacity="0.85"/>
  <path d="M60.7973 30.3223L66.3149 9.27734C66.9985 6.78711 65.2407 5.07812 62.7016 5.85938L43.1704 11.7188C40.729 12.4512 40.0454 14.9414 41.852 16.7969L55.9145 31.4453C57.77 33.3984 60.1137 32.9102 60.7973 30.3223Z" fill="#000000" fill-opacity="0.85"/>
 </g>
</svg>
