<?xml version="1.0" encoding="UTF-8"?>
<!--Generator: Apple Native CoreSVG 232.5-->
<!DOCTYPE svg
PUBLIC "-//W3C//DTD SVG 1.1//EN"
       "http://www.w3.org/Graphics/SVG/1.1/DTD/svg11.dtd">
<svg version="1.1" xmlns="http://www.w3.org/2000/svg" xmlns:xlink="http://www.w3.org/1999/xlink" width="110.524" height="135.205">
 <g>
  <rect height="135.205" opacity="0" width="110.524" x="0" y="0"/>
  <path d="M109.705 82.666C113.709 68.0664 103.065 61.7188 76.9417 61.7188C64.6371 61.7188 52.2347 62.6953 41.5414 64.5996L43.8363 67.4805C45.3988 46.6797 39.3929 29.3945 28.016 21.3379L28.9437 26.0254C33.3871 10.8887 24.0609 1.42109e-14 12.5863 1.42109e-14C3.11362 1.42109e-14-1.96451 6.83594 0.721038 17.627L19.0804 92.1387C20.8871 99.5117 25.721 103.418 32.8988 103.418L90.9066 103.418C100.965 103.418 105.409 98.584 109.705 82.666ZM102.186 80.5664C98.6214 93.7988 96.3753 95.5566 90.9066 95.5566L32.8988 95.5566C29.6761 95.5566 27.5765 93.7012 26.7464 90.2344L8.24057 15.5762C7.06869 10.791 9.02182 7.86133 12.6351 7.86133C18.2015 7.86133 23.2796 12.9395 21.9124 22.0703C21.4242 25.4395 21.766 26.3672 23.6214 27.8809C32.2152 34.2773 37.0492 49.1211 36.6585 67.4805C36.6585 70.459 38.514 72.3633 41.4925 72.3145C47.0589 71.9238 59.5589 69.5801 76.9417 69.5801C98.3773 69.5801 104.285 72.7051 102.186 80.5664Z" fill="#000000" fill-opacity="0.85"/>
  <path d="M83.973 110.889L62.2445 110.889C59.6566 110.889 58.4359 113.037 59.8519 115.332L70.4964 132.666C71.8148 134.814 74.3539 134.912 75.7699 132.666L86.3167 115.332C87.6839 113.037 86.6097 110.889 83.973 110.889Z" fill="#000000" fill-opacity="0.85"/>
  <path d="M83.973 54.2969C86.6097 54.2969 87.7328 52.1973 86.3167 49.9023L75.7699 32.5684C74.4027 30.3223 71.8148 30.3711 70.4964 32.5684L59.8519 49.9023C58.4359 52.1973 59.6566 54.2969 62.2445 54.2969Z" fill="#000000" fill-opacity="0.85"/>
 </g>
</svg>
