<?xml version="1.0" encoding="UTF-8"?>
<!--Generator: Apple Native CoreSVG 232.5-->
<!DOCTYPE svg
PUBLIC "-//W3C//DTD SVG 1.1//EN"
       "http://www.w3.org/Graphics/SVG/1.1/DTD/svg11.dtd">
<svg version="1.1" xmlns="http://www.w3.org/2000/svg" xmlns:xlink="http://www.w3.org/1999/xlink" width="109.611" height="103.467">
 <g>
  <rect height="103.467" opacity="0" width="109.611" x="0" y="0"/>
  <path d="M0.826201 82.6172C5.12308 98.5352 9.56644 103.369 19.625 103.369L76.6075 103.369C83.834 103.369 88.668 99.4629 90.4746 92.1387L108.834 17.627C111.813 5.46875 105.758 0 98.7266 0C89.4004 0 79.2442 9.96094 84.9571 26.0742L86.3731 20.0684C71.6758 27.7832 64.9864 45.6543 67.6719 67.4805L69.4297 65.0391C59.3711 62.9395 46.2364 61.6699 33.5899 61.6699C7.46683 61.6699-3.17771 68.0176 0.826201 82.6172Z" fill="#000000" fill-opacity="0.85"/>
  <path d="M27.7793 46.2402C30.1231 46.2402 31.4414 44.7754 31.4414 42.1875L31.4414 7.76367C31.4414 5.12695 30.0742 3.71094 27.6328 3.71094C25.875 3.71094 24.752 4.10156 22.8477 5.51758L14.4981 11.1328C13.4727 11.8164 13.1309 12.5488 13.1309 13.623C13.1309 15.0391 14.3028 16.2598 15.6211 16.2598C16.3047 16.2598 16.8418 16.1621 17.916 15.332L23.8242 11.4746L24.3125 11.4746L24.3125 42.1875C24.3125 44.7266 25.6309 46.2402 27.7793 46.2402Z" fill="#000000" fill-opacity="0.85"/>
 </g>
</svg>
