<?xml version="1.0" encoding="UTF-8"?>
<!--Generator: Apple Native CoreSVG 232.5-->
<!DOCTYPE svg
PUBLIC "-//W3C//DTD SVG 1.1//EN"
       "http://www.w3.org/Graphics/SVG/1.1/DTD/svg11.dtd">
<svg version="1.1" xmlns="http://www.w3.org/2000/svg" xmlns:xlink="http://www.w3.org/1999/xlink" width="139.71" height="103.564">
 <g>
  <rect height="103.564" opacity="0" width="139.71" x="0" y="0"/>
  <path d="M138.873 82.666C142.877 68.0664 132.233 61.7188 106.11 61.7188C93.8051 61.7188 81.4028 62.7441 70.7094 64.5996L73.0044 67.4805C74.5669 46.7285 68.561 29.3945 57.184 21.3379L58.1118 26.0742C62.5063 10.8887 53.229 0 41.7544 0C32.2817 0 27.1547 6.83594 29.8891 17.6758L48.2485 92.1875C50.0551 99.5117 54.8891 103.418 62.0669 103.418L120.075 103.418C130.133 103.418 134.577 98.584 138.873 82.666ZM131.354 80.5664C127.741 93.7988 125.495 95.5566 120.075 95.5566L62.0669 95.5566C58.8442 95.5566 56.7446 93.7012 55.8657 90.2832L37.4087 15.625C36.2368 10.8398 38.1899 7.86133 41.8032 7.86133C47.3696 7.86133 52.4477 12.9395 51.0805 22.1191C50.5922 25.4395 50.934 26.416 52.7895 27.9297C61.3833 34.3262 66.1684 49.1211 65.8266 67.4805C65.8266 70.459 67.6821 72.3633 70.6606 72.3145C76.227 71.9238 88.727 69.5801 106.11 69.5801C127.545 69.5801 133.454 72.7539 131.354 80.5664Z" fill="#000000" fill-opacity="0.85"/>
  <path d="M25.4946 47.8027L19.977 26.8066C19.2934 24.2676 16.9008 23.6328 15.0454 25.5859L1.0317 40.332C-0.774938 42.1387-0.140173 44.6777 2.39889 45.4102L21.7837 51.2207C24.4204 52.002 26.1782 50.3418 25.4946 47.8027Z" fill="#000000" fill-opacity="0.85"/>
  <path d="M78.8637 30.3711C79.5473 32.959 81.8911 33.4473 83.7465 31.4941L97.809 16.8457C99.6157 14.9902 98.9321 12.5 96.4907 11.7676L76.9594 5.9082C74.4204 5.12695 72.6626 6.83594 73.3462 9.32617Z" fill="#000000" fill-opacity="0.85"/>
 </g>
</svg>
