<?xml version="1.0" encoding="UTF-8"?>
<!--Generator: Apple Native CoreSVG 232.5-->
<!DOCTYPE svg
PUBLIC "-//W3C//DTD SVG 1.1//EN"
       "http://www.w3.org/Graphics/SVG/1.1/DTD/svg11.dtd">
<svg version="1.1" xmlns="http://www.w3.org/2000/svg" xmlns:xlink="http://www.w3.org/1999/xlink" width="133.545" height="115.479">
 <g>
  <rect height="115.479" opacity="0" width="133.545" x="0" y="0"/>
  <path d="M24.9512 115.479L31.5918 115.479C37.6953 115.479 41.6504 112.012 41.6504 106.494C41.6504 101.367 38.7207 99.0723 35.2539 98.2422L35.2539 91.0645C35.2539 86.084 35.7422 83.0566 36.8164 80.2246C42.334 82.5195 50.4883 83.9355 57.5684 83.9355C64.1113 83.9355 71.2891 83.2031 76.9531 81.8848C77.6367 84.7656 78.3203 87.4023 78.3203 88.1836C78.3203 94.8242 77.6367 98.1445 77.6367 104.541C77.6367 111.572 81.4453 115.479 88.3301 115.479L94.5801 115.479C100.488 115.479 104.688 111.816 104.688 106.494C104.688 101.367 101.758 99.0723 98.2422 98.2422L98.2422 94.2383C98.2422 70.1172 117.041 77.2949 118.115 43.1152C126.904 41.9434 133.545 35.6445 133.545 30.3711C133.545 24.3164 127.344 16.8457 120.85 13.1348C119.336 6.29883 114.6 1.9043 111.328 1.9043C108.008 1.9043 104.199 6.34766 101.953 12.1582C98.291 15.4297 94.2871 20.6543 91.6992 25.1953L89.0625 29.7852C87.9395 31.8359 86.9141 32.8613 85.1562 32.8613C66.748 32.8613 59.4238 30.127 40.918 30.127C31.0547 30.127 25.0488 33.6914 21.4844 38.4277C19.8242 40.625 17.8223 40.2832 15.7715 39.1602C10.4004 36.5234 7.08008 31.1523 7.08008 24.5117C7.08008 14.4531 15.1367 7.42188 26.5137 7.42188C30.8594 7.42188 35.2539 8.30078 40.3809 10.4004C45.4102 12.4023 47.8516 5.71289 43.2129 3.75977C37.207 1.36719 31.5918 0.341797 26.5137 0.341797C10.8887 0.341797 0 10.3027 0 24.5117C0 34.375 4.88281 42.1875 12.5488 45.8496C15.1367 47.168 16.1133 48.3887 16.0645 51.0254C15.918 54.6875 15.918 57.373 15.918 59.0332C15.918 73.2422 8.88672 77.6855 10.8887 85.2051L17.2363 108.545C18.5547 113.379 21.0938 115.479 24.9512 115.479ZM27.002 108.398C25.3906 108.398 24.3164 107.373 23.6328 104.834L17.7734 83.3496C16.7969 79.7852 22.998 75.5371 22.998 59.0332C22.998 52.3438 23.291 37.207 40.918 37.207C57.4707 37.207 70.8496 39.9414 86.6699 39.9414C89.7949 39.9414 92.9199 37.6953 95.166 33.6914L98.0469 28.5156C100.928 23.3887 103.809 19.0918 106.348 17.2363C109.131 11.084 110.205 9.27734 111.23 9.27734C111.865 9.27734 113.77 11.7188 114.893 16.8457C120.996 20.4102 126.465 26.6602 126.465 30.127C126.465 32.5195 121.68 36.5723 114.746 36.5723L114.111 36.5723C112.158 36.5723 111.084 37.6953 111.084 39.7461L111.084 40.4785C111.084 72.0703 91.1621 62.207 91.1621 94.2383L91.1621 101.074C91.1621 102.295 91.8945 103.027 93.1641 103.027L94.2383 103.027C96.5332 103.027 97.6074 104.004 97.6074 105.713C97.6074 107.52 96.4844 108.398 94.1406 108.398L89.1113 108.398C86.2305 108.398 84.7168 106.885 84.7168 104.004C84.7168 99.3652 85.4004 96.0449 85.4004 88.1836C85.4004 85.4492 82.959 77.9297 82.959 74.2188C82.959 72.7539 83.9355 70.3613 85.0098 67.7246C86.7188 63.5742 80.1758 60.8398 78.3691 65.2344C77.0508 68.5547 75.8789 71.8262 75.8789 74.9023C71.1914 76.0742 64.1602 76.8555 57.5684 76.8555C51.2207 76.8555 44.5312 75.6836 40.332 74.0234C42.2363 71.0938 43.7988 68.3105 44.4336 66.5527C45.8984 62.3535 39.7461 59.5215 37.5488 64.1602C35.8398 68.0176 33.9844 70.8984 31.8848 74.6094C29.3457 79.0039 28.1738 81.9824 28.1738 87.4512L28.1738 101.074C28.1738 102.295 28.9062 103.027 30.127 103.027L31.2012 103.027C33.4961 103.027 34.5703 104.102 34.5703 105.713C34.5703 107.568 33.4473 108.398 31.1523 108.398ZM115.381 28.7598C117.09 28.7598 118.555 27.3926 118.555 25.6348C118.555 23.877 117.09 22.4609 115.381 22.4609C113.623 22.4609 112.207 23.877 112.207 25.6348C112.207 27.3926 113.623 28.7598 115.381 28.7598Z" fill="#000000" fill-opacity="0.85"/>
 </g>
</svg>
