<?xml version="1.0" encoding="UTF-8"?>
<!--Generator: Apple Native CoreSVG 232.5-->
<!DOCTYPE svg
PUBLIC "-//W3C//DTD SVG 1.1//EN"
       "http://www.w3.org/Graphics/SVG/1.1/DTD/svg11.dtd">
<svg version="1.1" xmlns="http://www.w3.org/2000/svg" xmlns:xlink="http://www.w3.org/1999/xlink" width="131.787" height="113.721">
 <g>
  <rect height="113.721" opacity="0" width="131.787" x="0" y="0"/>
  <path d="M26.2695 113.721L31.5918 113.721C36.9629 113.721 39.8926 111.23 39.8926 106.494C39.8926 103.174 37.2559 100.342 32.1777 99.3652L32.1777 87.5488C32.1777 82.6172 33.1543 79.6387 36.2305 74.8047C45.0684 78.0762 50.6348 79.1016 57.5684 79.1016C65.625 79.1016 74.4141 77.832 79.0527 76.416C80.2734 80.5176 81.3965 85.0586 81.3965 89.9414C81.3965 95.752 80.7129 101.611 80.7129 106.25C80.7129 111.23 83.5449 113.721 88.7695 113.721L94.5801 113.721C99.8047 113.721 102.93 110.986 102.93 106.494C102.93 102.686 100.879 100.244 96.4844 99.6094L96.4844 94.2383C96.4844 67.2852 115.918 74.8535 116.406 41.6016C125.391 40.918 131.787 35.1562 131.787 30.8594C131.787 24.5117 125.146 18.0176 117.432 12.5C115.918 6.98242 112.793 2.63672 110.547 2.63672C108.398 2.63672 104.736 6.73828 103.027 12.8418C99.0234 16.7969 95.7031 21.582 93.2617 26.0254L91.4062 29.248C89.6484 32.5684 88.1348 34.6191 86.0352 34.6191C66.3574 34.6191 59.1309 31.8848 40.918 31.8848C32.2754 31.8848 26.8555 34.8145 23.4863 38.8184C21.6309 40.918 20.3613 41.4551 17.334 40.2344C11.3281 37.9883 7.08008 32.0801 7.08008 24.5117C7.08008 14.4043 15.0879 7.42188 26.5137 7.42188C30.8594 7.42188 35.2539 8.30078 40.4297 10.4004C45.4102 12.3535 47.8516 5.71289 43.2129 3.75977C37.207 1.36719 31.5918 0.341797 26.5137 0.341797C10.8887 0.341797 0 10.2539 0 24.5117C0 35.0098 5.51758 43.2617 14.1113 46.582C16.748 47.6562 17.8711 49.5605 17.8223 52.3438C17.6758 55.4199 17.6758 57.5684 17.6758 59.0332C17.6758 75.293 10.6445 77.4902 12.5977 84.7656L18.6523 107.275C19.8242 111.572 22.3633 113.721 26.2695 113.721ZM116.65 27.5391C115.039 27.5391 113.77 26.3184 113.77 24.707C113.77 23.0957 115.039 21.8262 116.65 21.8262C118.213 21.8262 119.482 23.0957 119.482 24.707C119.482 26.3184 118.213 27.5391 116.65 27.5391Z" fill="#000000" fill-opacity="0.85"/>
 </g>
</svg>
