<?xml version="1.0" encoding="UTF-8"?>
<!--Generator: Apple Native CoreSVG 232.5-->
<!DOCTYPE svg
PUBLIC "-//W3C//DTD SVG 1.1//EN"
       "http://www.w3.org/Graphics/SVG/1.1/DTD/svg11.dtd">
<svg version="1.1" xmlns="http://www.w3.org/2000/svg" xmlns:xlink="http://www.w3.org/1999/xlink" width="70.0704" height="109.521">
 <g>
  <rect height="109.521" opacity="0" width="70.0704" x="0" y="0"/>
  <path d="M37.3057 99.2676C53.3702 99.2676 64.9424 91.3086 69.2393 79.3457C69.7764 77.8809 70.0206 76.416 70.0694 74.9023C70.1182 72.3633 68.4092 70.6055 65.7725 70.6055C63.2334 70.6055 61.9639 72.0215 61.1338 74.5605C58.3995 84.2285 49.1709 90.7227 37.3545 90.7227C20.6553 90.7227 9.81547 76.8066 9.81547 54.5898C9.81547 32.7148 20.7041 18.9941 37.3057 18.9941C48.4873 18.9941 57.7647 25.8789 60.4991 35.498C61.378 38.3301 62.5987 39.4531 65.1377 39.4531C67.7745 39.4531 69.4834 37.6953 69.4346 35.1074C69.3858 33.6426 69.1416 32.2754 68.6534 30.9082C64.21 18.5547 51.9541 10.4492 37.3057 10.4492C14.7959 10.4492 0.00101949 27.5879 0.00101949 54.5898C0.00101949 81.9336 14.6983 99.2676 37.3057 99.2676ZM36.5733 109.521C38.3311 109.521 39.7471 108.105 39.7471 106.348L39.7471 3.51562C39.7471 1.75781 38.3311 0.341797 36.5733 0.341797C34.8155 0.341797 33.3995 1.75781 33.3995 3.51562L33.3995 106.348C33.3995 108.105 34.8155 109.521 36.5733 109.521Z" fill="#000000" fill-opacity="0.85"/>
 </g>
</svg>
