<?xml version="1.0" encoding="UTF-8"?>
<!--Generator: Apple Native CoreSVG 232.5-->
<!DOCTYPE svg
PUBLIC "-//W3C//DTD SVG 1.1//EN"
       "http://www.w3.org/Graphics/SVG/1.1/DTD/svg11.dtd">
<svg version="1.1" xmlns="http://www.w3.org/2000/svg" xmlns:xlink="http://www.w3.org/1999/xlink" width="89.8926" height="89.9902">
 <g>
  <rect height="89.9902" opacity="0" width="89.8926" x="0" y="0"/>
  <path d="M15.332 89.9902L74.5605 89.9902C84.8145 89.9902 89.8926 84.9121 89.8926 74.8535L89.8926 15.2344C89.8926 5.17578 84.8145 0.0976562 74.5605 0.0976562L15.332 0.0976562C5.12695 0.0976562 0 5.12695 0 15.2344L0 74.8535C0 84.9609 5.12695 89.9902 15.332 89.9902ZM15.4297 82.1289C10.5469 82.1289 7.86133 79.541 7.86133 74.4629L7.86133 15.625C7.86133 10.5469 10.5469 7.95898 15.4297 7.95898L74.4629 7.95898C79.2969 7.95898 82.0312 10.5469 82.0312 15.625L82.0312 74.4629C82.0312 79.541 79.2969 82.1289 74.4629 82.1289Z" fill="#000000" fill-opacity="0.85"/>
  <path d="M25.3418 45.0684C25.3418 58.3984 31.9336 67.0898 42.334 68.4082L42.334 72.3145C42.334 73.7793 43.4082 74.7559 44.7754 74.7559C46.1426 74.7559 47.168 73.7793 47.168 72.3145L47.168 68.457C54.6387 67.8711 60.0098 63.7695 62.1094 57.9102C62.4023 57.1289 62.5977 56.2988 62.5977 55.4199C62.5977 53.6621 61.4258 52.4414 59.6191 52.4414C57.959 52.4414 56.9824 53.3691 56.4453 55.0293C55.3711 59.0332 51.8555 61.9141 47.168 62.5488L47.168 27.7344C51.5625 28.4668 55.0293 31.4941 56.1035 35.3516C56.6895 37.207 57.5684 37.8906 59.2773 37.8906C61.084 37.8906 62.2559 36.7188 62.2559 34.9121C62.2559 34.082 62.0605 33.252 61.7676 32.4707C59.668 26.6113 54.1016 22.4609 47.168 21.7773L47.168 17.9688C47.168 16.5039 46.1426 15.5762 44.7754 15.5762C43.3594 15.5762 42.334 16.5039 42.334 17.9688L42.334 21.8262C31.9824 23.1445 25.3418 31.9336 25.3418 45.0684ZM31.8848 45.0684C31.8848 35.7422 35.8887 29.248 42.334 27.8809L42.334 62.4023C35.8398 60.9863 31.8848 54.541 31.8848 45.0684Z" fill="#000000" fill-opacity="0.85"/>
 </g>
</svg>
