<?xml version="1.0" encoding="UTF-8"?>
<!--Generator: Apple Native CoreSVG 232.5-->
<!DOCTYPE svg
PUBLIC "-//W3C//DTD SVG 1.1//EN"
       "http://www.w3.org/Graphics/SVG/1.1/DTD/svg11.dtd">
<svg version="1.1" xmlns="http://www.w3.org/2000/svg" xmlns:xlink="http://www.w3.org/1999/xlink" width="109.095" height="99.6582">
 <g>
  <rect height="99.6582" opacity="0" width="109.095" x="0" y="0"/>
  <path d="M59.2839 99.6094C86.4812 99.6094 109.089 77.002 109.089 49.8047C109.089 22.5586 86.4812 0 59.2839 0C32.0378 0 9.47924 22.5098 9.47924 49.7559L17.78 49.7559C17.78 26.709 36.2371 8.34961 59.2839 8.34961C82.3308 8.34961 100.788 26.7578 100.788 49.8047C100.788 72.8516 82.3308 91.4062 59.2839 91.3086C45.3679 91.2598 33.1609 84.5215 25.6902 74.1211C24.1765 72.1191 21.8816 71.4844 19.8308 72.7051C17.8777 73.9258 17.3406 76.6113 19.0007 78.7598C28.2781 91.2109 42.8289 99.6094 59.2839 99.6094ZM3.47339 40.3809C-0.04224 40.3809-0.921146 42.7734 0.983151 45.5078L11.9207 61.0352C13.532 63.2812 15.8757 63.2324 17.4382 61.0352L28.3757 45.459C30.2312 42.7734 29.3523 40.3809 25.8855 40.3809Z" fill="#000000" fill-opacity="0.85"/>
  <path d="M39.6062 49.9023C39.6062 63.2324 46.2468 71.9238 56.6472 73.2422L56.6472 77.1484C56.6472 78.6133 57.6726 79.5898 59.0398 79.5898C60.4558 79.5898 61.4812 78.6133 61.4812 77.1484L61.4812 73.291C68.9519 72.7051 74.323 68.6035 76.4226 62.7441C76.7156 61.9629 76.9109 61.1328 76.9109 60.2539C76.9109 58.4961 75.6902 57.2754 73.8835 57.2754C72.2722 57.2754 71.2957 58.2031 70.7585 59.8633C69.6843 63.8672 66.1199 66.748 61.4812 67.3828L61.4812 32.5684C65.8269 33.3008 69.2937 36.3281 70.4167 40.1855C71.0027 42.041 71.8328 42.7246 73.5417 42.7246C75.3484 42.7246 76.5691 41.5527 76.5203 39.7461C76.5203 38.916 76.3738 38.0859 76.0808 37.3047C73.9812 31.4453 68.366 27.2949 61.4812 26.6113L61.4812 22.8027C61.4812 21.3379 60.4558 20.4102 59.0398 20.4102C57.6726 20.4102 56.6472 21.3379 56.6472 22.8027L56.6472 26.6602C46.2468 27.9785 39.6062 36.7676 39.6062 49.9023ZM46.1492 49.9023C46.1492 40.5762 50.1531 34.082 56.6472 32.7148L56.6472 67.2363C50.1042 65.8203 46.1492 59.375 46.1492 49.9023Z" fill="#000000" fill-opacity="0.85"/>
 </g>
</svg>
