<?xml version="1.0" encoding="UTF-8"?>
<!--Generator: Apple Native CoreSVG 232.5-->
<!DOCTYPE svg
PUBLIC "-//W3C//DTD SVG 1.1//EN"
       "http://www.w3.org/Graphics/SVG/1.1/DTD/svg11.dtd">
<svg version="1.1" xmlns="http://www.w3.org/2000/svg" xmlns:xlink="http://www.w3.org/1999/xlink" width="99.6094" height="99.6582">
 <g>
  <rect height="99.6582" opacity="0" width="99.6094" x="0" y="0"/>
  <path d="M49.8047 99.6094C77.0508 99.6094 99.6094 77.002 99.6094 49.8047C99.6094 22.5586 77.002 0 49.7559 0C22.5586 0 0 22.5586 0 49.8047C0 77.002 22.6074 99.6094 49.8047 99.6094ZM49.8047 91.3086C26.7578 91.3086 8.34961 72.8516 8.34961 49.8047C8.34961 26.7578 26.709 8.30078 49.7559 8.30078C72.8027 8.30078 91.3086 26.7578 91.3086 49.8047C91.3086 72.8516 72.8516 91.3086 49.8047 91.3086Z" fill="#000000" fill-opacity="0.85"/>
  <path d="M30.127 49.9023C30.127 63.2324 36.7188 71.9238 47.1191 73.2422L47.1191 77.1484C47.1191 78.6133 48.1934 79.5898 49.5605 79.5898C50.9277 79.5898 51.9531 78.6133 51.9531 77.1484L51.9531 73.291C59.4238 72.7051 64.7949 68.6035 66.8945 62.7441C67.1875 61.9629 67.3828 61.1328 67.3828 60.2539C67.3828 58.4961 66.2109 57.2754 64.4043 57.2754C62.7441 57.2754 61.7676 58.2031 61.2305 59.8633C60.1562 63.8672 56.6406 66.748 51.9531 67.3828L51.9531 32.5684C56.3477 33.3008 59.7656 36.3281 60.8887 40.1855C61.4746 42.041 62.3047 42.7246 64.0625 42.7246C65.8691 42.7246 67.041 41.5527 67.041 39.7461C67.041 38.916 66.8457 38.0859 66.5527 37.3047C64.4531 31.4453 58.8867 27.2949 51.9531 26.6113L51.9531 22.8027C51.9531 21.3379 50.9277 20.4102 49.5605 20.4102C48.1445 20.4102 47.1191 21.3379 47.1191 22.8027L47.1191 26.6602C36.7676 27.9785 30.127 36.7676 30.127 49.9023ZM36.6699 49.9023C36.6699 40.5762 40.625 34.082 47.1191 32.7148L47.1191 67.2363C40.625 65.8203 36.6699 59.375 36.6699 49.9023Z" fill="#000000" fill-opacity="0.85"/>
 </g>
</svg>
