<?xml version="1.0" encoding="UTF-8"?>
<!--Generator: Apple Native CoreSVG 232.5-->
<!DOCTYPE svg
PUBLIC "-//W3C//DTD SVG 1.1//EN"
       "http://www.w3.org/Graphics/SVG/1.1/DTD/svg11.dtd">
<svg version="1.1" xmlns="http://www.w3.org/2000/svg" xmlns:xlink="http://www.w3.org/1999/xlink" width="109.095" height="99.6582">
 <g>
  <rect height="99.6582" opacity="0" width="109.095" x="0" y="0"/>
  <path d="M59.2839 99.6094C86.4812 99.6094 109.089 77.002 109.089 49.8047C109.089 22.5586 86.4812 0 59.2839 0C32.0378 0 9.47924 22.5098 9.47924 49.7559L17.78 49.7559C17.78 26.709 36.2371 8.34961 59.2839 8.34961C82.3308 8.34961 100.788 26.7578 100.788 49.8047C100.788 72.8516 82.3308 91.4062 59.2839 91.3086C45.3679 91.2598 33.1609 84.5215 25.6902 74.1211C24.1765 72.1191 21.8816 71.4844 19.8308 72.7051C17.8777 73.9258 17.3406 76.6113 19.0007 78.7598C28.2781 91.2109 42.8289 99.6094 59.2839 99.6094ZM3.47339 40.3809C-0.04224 40.3809-0.921146 42.7734 0.983151 45.5078L11.9207 61.0352C13.532 63.2812 15.8757 63.2324 17.4382 61.0352L28.3757 45.459C30.2312 42.7734 29.3523 40.3809 25.8855 40.3809Z" fill="#000000" fill-opacity="0.85"/>
  <path d="M42.9753 49.8047C42.9753 59.9121 48.3953 66.5527 56.7937 67.6758L56.7937 71.3379C56.7937 72.7539 57.8679 73.7305 59.2351 73.7305C60.6023 73.7305 61.6277 72.7539 61.6277 71.3379L61.6277 67.7246C67.8289 66.9922 72.2234 63.4766 73.6882 59.1309C73.7859 58.5938 73.9812 58.0078 73.9812 57.4219C73.9812 55.7129 72.7117 54.541 71.0027 54.541C69.6843 54.541 68.7566 55.3223 68.2195 56.5918C67.0964 59.375 64.8992 61.3281 61.6277 61.9629L61.6277 37.6465C64.8503 38.2812 67.0476 40.2832 68.1218 42.9688C68.7078 44.3848 69.6843 45.1172 71.0515 45.1172C72.7605 45.1172 73.9324 43.9453 73.9324 42.1875C73.9324 41.6016 73.7371 41.0645 73.6394 40.5762C72.1746 36.2305 67.78 32.666 61.6277 31.9336L61.6277 28.3203C61.6277 26.9043 60.6023 25.8789 59.2351 25.8789C57.8679 25.8789 56.7937 26.9043 56.7937 28.3203L56.7937 31.9824C48.3953 33.1055 42.9753 39.7949 42.9753 49.8047ZM49.1765 49.8047C49.1765 43.2129 52.1062 38.916 56.7937 37.7441L56.7937 61.8652C52.1062 60.7422 49.1765 56.4941 49.1765 49.8047Z" fill="#000000" fill-opacity="0.85"/>
 </g>
</svg>
