<?xml version="1.0" encoding="UTF-8"?>
<!--Generator: Apple Native CoreSVG 232.5-->
<!DOCTYPE svg
PUBLIC "-//W3C//DTD SVG 1.1//EN"
       "http://www.w3.org/Graphics/SVG/1.1/DTD/svg11.dtd">
<svg version="1.1" xmlns="http://www.w3.org/2000/svg" xmlns:xlink="http://www.w3.org/1999/xlink" width="99.6094" height="99.6582">
 <g>
  <rect height="99.6582" opacity="0" width="99.6094" x="0" y="0"/>
  <path d="M49.8047 99.6094C77.0508 99.6094 99.6094 77.002 99.6094 49.8047C99.6094 22.5586 77.002 0 49.7559 0C22.5586 0 0 22.5586 0 49.8047C0 77.002 22.6074 99.6094 49.8047 99.6094ZM49.8047 91.3086C26.7578 91.3086 8.34961 72.8516 8.34961 49.8047C8.34961 26.7578 26.709 8.30078 49.7559 8.30078C72.8027 8.30078 91.3086 26.7578 91.3086 49.8047C91.3086 72.8516 72.8516 91.3086 49.8047 91.3086Z" fill="#000000" fill-opacity="0.85"/>
  <path d="M33.4961 49.8047C33.4961 59.9121 38.916 66.5527 47.3145 67.6758L47.3145 71.3379C47.3145 72.7539 48.3398 73.7305 49.707 73.7305C51.123 73.7305 52.1484 72.7539 52.1484 71.3379L52.1484 67.7246C58.3496 66.9922 62.7441 63.4766 64.1602 59.1309C64.3066 58.5938 64.4531 58.0078 64.4531 57.4219C64.4531 55.7129 63.2324 54.541 61.5234 54.541C60.1562 54.541 59.2285 55.3223 58.6914 56.5918C57.5684 59.375 55.3711 61.3281 52.1484 61.9629L52.1484 37.6465C55.3223 38.2812 57.5195 40.2832 58.6426 42.9688C59.2285 44.3848 60.2051 45.1172 61.5723 45.1172C63.2812 45.1172 64.4043 43.9453 64.4043 42.1875C64.4043 41.6016 64.2578 41.0645 64.1113 40.5762C62.6953 36.2305 58.252 32.666 52.1484 31.9336L52.1484 28.3203C52.1484 26.9043 51.123 25.8789 49.707 25.8789C48.3398 25.8789 47.3145 26.9043 47.3145 28.3203L47.3145 31.9824C38.916 33.1055 33.4961 39.7949 33.4961 49.8047ZM39.6973 49.8047C39.6973 43.2129 42.627 38.916 47.3145 37.7441L47.3145 61.8652C42.627 60.7422 39.6973 56.4941 39.6973 49.8047Z" fill="#000000" fill-opacity="0.85"/>
 </g>
</svg>
