<?xml version="1.0" encoding="UTF-8"?>
<!--Generator: Apple Native CoreSVG 232.5-->
<!DOCTYPE svg
PUBLIC "-//W3C//DTD SVG 1.1//EN"
       "http://www.w3.org/Graphics/SVG/1.1/DTD/svg11.dtd">
<svg version="1.1" xmlns="http://www.w3.org/2000/svg" xmlns:xlink="http://www.w3.org/1999/xlink" width="96.9238" height="85.791">
 <g>
  <rect height="85.791" opacity="0" width="96.9238" x="0" y="0"/>
  <path d="M28.125 46.582L68.7988 46.582L68.7988 35.4004C68.7988 26.8066 74.5605 20.459 82.7148 20.459L83.252 20.459L83.252 10.5957C83.252 4.19922 79.1016 0 72.998 0L23.9258 0C17.7734 0 13.623 4.19922 13.623 10.5957L13.623 20.459L14.1602 20.459C22.3633 20.459 28.125 26.8066 28.125 35.4004ZM0 65.0879C0 71.1914 4.05273 75.2441 10.0098 75.2441L86.9141 75.2441C92.8223 75.2441 96.9238 71.1914 96.9238 65.0879L96.9238 35.4004C96.9238 29.3457 92.8223 25.2441 86.9141 25.2441L84.4727 25.2441C78.5645 25.2441 74.4629 29.3457 74.4629 35.4004L74.4629 52.2461L22.4121 52.2461L22.4121 35.4004C22.4121 29.3457 18.3594 25.2441 12.4023 25.2441L10.0098 25.2441C4.05273 25.2441 0 29.3457 0 35.4004ZM17.2363 85.6934L20.3125 85.6934C22.9492 85.6934 24.6582 84.0332 24.6582 81.3965L24.6582 71.0449L12.9395 71.0449L12.9395 81.3965C12.9395 84.0332 14.5996 85.6934 17.2363 85.6934ZM76.6113 85.6934L79.6387 85.6934C82.2754 85.6934 83.9355 84.0332 83.9355 81.3965L83.9355 71.0449L72.2656 71.0449L72.2656 81.3965C72.2656 84.0332 73.9746 85.6934 76.6113 85.6934Z" fill="#000000" fill-opacity="0.85"/>
 </g>
</svg>
