<?xml version="1.0" encoding="UTF-8"?>
<!--Generator: Apple Native CoreSVG 232.5-->
<!DOCTYPE svg
PUBLIC "-//W3C//DTD SVG 1.1//EN"
       "http://www.w3.org/Graphics/SVG/1.1/DTD/svg11.dtd">
<svg version="1.1" xmlns="http://www.w3.org/2000/svg" xmlns:xlink="http://www.w3.org/1999/xlink" width="97.1191" height="85.791">
 <g>
  <rect height="85.791" opacity="0" width="97.1191" x="0" y="0"/>
  <path d="M14.4043 28.7109L22.6074 28.7109L22.6074 12.207C22.6074 9.76562 24.2188 8.20312 26.5625 8.20312L70.5078 8.20312C72.9004 8.20312 74.4629 9.76562 74.4629 12.207L74.4629 28.7109L82.666 28.7109L82.666 12.1582C82.666 4.83398 77.9297 0 70.9473 0L26.1719 0C19.1406 0 14.4043 4.83398 14.4043 12.1582ZM0 64.0625C0 71.0938 4.63867 75.7324 11.5723 75.7324L85.5469 75.7324C92.4316 75.7324 97.1191 71.0938 97.1191 64.0625L97.1191 34.375C97.1191 27.3926 92.4316 22.7051 85.5469 22.7051L79.834 22.7051C72.9004 22.7051 68.2617 27.3926 68.2617 34.375L68.2617 47.1191L28.8574 47.1191L28.8574 34.375C28.8574 27.3926 24.1699 22.7051 17.2852 22.7051L11.5723 22.7051C4.63867 22.7051 0 27.3926 0 34.375ZM8.30078 63.9648L8.30078 34.4727C8.30078 32.3242 9.76562 30.9082 11.9629 30.9082L16.8945 30.9082C19.0918 30.9082 20.5566 32.3242 20.5566 34.4727L20.5566 55.3223L76.5625 55.3223L76.5625 34.4727C76.5625 32.3242 78.0273 30.9082 80.2246 30.9082L85.1562 30.9082C87.3535 30.9082 88.8184 32.3242 88.8184 34.4727L88.8184 63.9648C88.8184 66.1133 87.3535 67.5293 85.1562 67.5293L11.9629 67.5293C9.76562 67.5293 8.30078 66.1133 8.30078 63.9648ZM17.7734 85.6934L20.8008 85.6934C23.4375 85.6934 25.1465 84.0332 25.1465 81.3965L25.1465 71.0449L13.4277 71.0449L13.4277 81.3965C13.4277 84.0332 15.1367 85.6934 17.7734 85.6934ZM76.3184 85.6934L79.2969 85.6934C81.9336 85.6934 83.6426 84.0332 83.6426 81.3965L83.6426 71.0449L71.9727 71.0449L71.9727 81.3965C71.9727 84.0332 73.6816 85.6934 76.3184 85.6934Z" fill="#000000" fill-opacity="0.85"/>
 </g>
</svg>
