<?xml version="1.0" encoding="UTF-8"?>
<!--Generator: Apple Native CoreSVG 232.5-->
<!DOCTYPE svg
PUBLIC "-//W3C//DTD SVG 1.1//EN"
       "http://www.w3.org/Graphics/SVG/1.1/DTD/svg11.dtd">
<svg version="1.1" xmlns="http://www.w3.org/2000/svg" xmlns:xlink="http://www.w3.org/1999/xlink" width="119.971" height="89.9902">
 <g>
  <rect height="89.9902" opacity="0" width="119.971" x="0" y="0"/>
  <path d="M17.7246 89.9902L102.246 89.9902C112.5 89.9902 117.578 84.9121 117.578 74.8535L117.578 60.4492C117.578 57.9102 116.162 56.4941 113.623 56.4941C111.084 56.4941 109.717 57.9102 109.717 60.4492L109.717 74.4629C109.717 79.541 106.934 82.1289 102.148 82.1289L17.8711 82.1289C12.9883 82.1289 10.3027 79.541 10.3027 74.4629L10.3027 60.4492C10.3027 57.9102 8.83789 56.4941 6.34766 56.4941C3.85742 56.4941 2.44141 57.9102 2.44141 60.4492L2.44141 74.8535C2.44141 84.9609 7.56836 89.9902 17.7246 89.9902ZM17.7246 0.0976562C7.56836 0.0976562 2.44141 5.12695 2.44141 15.2344L2.44141 27.1973C2.44141 29.7363 3.85742 31.2012 6.34766 31.2012C8.83789 31.2012 10.3027 29.7363 10.3027 27.1973L10.3027 15.625C10.3027 10.5469 12.9883 7.95898 17.8711 7.95898L102.148 7.95898C106.934 7.95898 109.717 10.5469 109.717 15.625L109.717 27.1973C109.717 29.7363 111.133 31.2012 113.623 31.2012C116.211 31.2012 117.578 29.7363 117.578 27.1973L117.578 15.2344C117.578 5.17578 112.5 0.0976562 102.246 0.0976562ZM6.34766 50.1465C9.86328 50.1465 12.6953 47.2656 12.6953 43.75C12.6953 40.2832 9.86328 37.4512 6.34766 37.4512C2.88086 37.4512 0 40.2832 0 43.75C0 47.2656 2.88086 50.1465 6.34766 50.1465ZM113.623 50.1465C117.09 50.1465 119.971 47.2656 119.971 43.75C119.971 40.2832 117.09 37.4512 113.623 37.4512C110.107 37.4512 107.275 40.2344 107.275 43.75C107.275 47.2656 110.107 50.1465 113.623 50.1465Z" fill="#000000" fill-opacity="0.85"/>
  <path d="M43.9941 67.9688C45.752 67.9688 46.9727 67.1387 47.7051 64.8438L51.2695 54.4434L68.75 54.4434L72.3145 64.8438C73.0469 67.0898 74.3164 67.9688 76.0742 67.9688C78.2227 67.9688 79.6875 66.5527 79.6875 64.5996C79.6875 63.8184 79.541 63.1348 79.1504 62.0605L65.4785 25.1953C64.502 22.6562 62.6465 21.3379 59.9609 21.3379C57.3242 21.3379 55.5176 22.6562 54.5898 25.1953L40.8691 62.0605C40.5273 63.1348 40.332 63.8184 40.332 64.5508C40.332 66.6016 41.7969 67.9688 43.9941 67.9688ZM53.2715 48.584L59.7656 29.6875L60.3027 29.6875L66.7969 48.584Z" fill="#000000" fill-opacity="0.85"/>
 </g>
</svg>
