<?xml version="1.0" encoding="UTF-8"?>
<!--Generator: Apple Native CoreSVG 232.5-->
<!DOCTYPE svg
PUBLIC "-//W3C//DTD SVG 1.1//EN"
       "http://www.w3.org/Graphics/SVG/1.1/DTD/svg11.dtd">
<svg version="1.1" xmlns="http://www.w3.org/2000/svg" xmlns:xlink="http://www.w3.org/1999/xlink" width="99.6094" height="99.6582">
 <g>
  <rect height="99.6582" opacity="0" width="99.6094" x="0" y="0"/>
  <path d="M99.6094 49.8535C99.6094 77.0996 77.0508 99.6582 49.8047 99.6582C22.6074 99.6582 0 77.0996 0 49.8535C0 22.6562 22.5586 0.0488281 49.7559 0.0488281C77.002 0.0488281 99.6094 22.6562 99.6094 49.8535ZM22.4121 28.3203L22.4121 68.8477C22.4121 71.2891 23.9746 72.8516 26.3672 72.8516L74.3164 72.8516C75.8301 72.8516 77.1484 71.582 77.1484 70.0684C77.1484 68.5059 75.8301 67.2363 74.3164 67.2363L28.418 67.2363C28.125 67.2363 28.0273 67.0898 28.0273 66.748L28.0273 56.4941L37.8418 46.6309C38.1348 46.3379 38.3789 46.3379 38.623 46.6309L47.4121 55.6641C48.6328 56.8848 49.9023 57.4707 51.3184 57.4707C52.7832 57.4707 54.1016 56.8359 55.2734 55.6641L64.7461 45.9961L68.3105 49.6582C69.5312 50.9277 71.4355 50.2441 71.9238 48.3398L75.5859 33.8379C76.0254 32.2266 74.5117 30.8105 72.8516 31.25L58.4473 34.8633C56.6406 35.3027 55.8594 37.207 57.1289 38.4277L60.7422 41.9922L51.709 51.123C51.4648 51.4648 51.2695 51.4648 51.0254 51.1719L42.1387 42.041C40.9668 40.8203 39.6973 40.2344 38.2324 40.2344C36.7188 40.2344 35.5469 40.8691 34.375 42.041L28.0273 48.4375L28.0273 28.3203C28.0273 26.8066 26.709 25.4883 25.1953 25.4883C23.6816 25.4883 22.4121 26.8066 22.4121 28.3203Z" fill="#000000" fill-opacity="0.85"/>
 </g>
</svg>
