<?xml version="1.0" encoding="UTF-8"?>
<!--Generator: Apple Native CoreSVG 232.5-->
<!DOCTYPE svg
PUBLIC "-//W3C//DTD SVG 1.1//EN"
       "http://www.w3.org/Graphics/SVG/1.1/DTD/svg11.dtd">
<svg version="1.1" xmlns="http://www.w3.org/2000/svg" xmlns:xlink="http://www.w3.org/1999/xlink" width="98.0957" height="66.3574">
 <g>
  <rect height="66.3574" opacity="0" width="98.0957" x="0" y="0"/>
  <path d="M22.8027 66.3574C33.9355 66.3574 42.6758 60.7422 47.4121 51.416L47.9004 51.416C52.0508 60.791 60.6445 66.3574 72.1191 66.3574C84.082 66.3574 93.2129 61.2305 97.0703 52.0508C97.4609 51.0742 97.7539 50.0488 97.7539 49.2676C97.7539 46.875 96.1426 45.3125 93.7012 45.3125C92.2363 45.3125 91.1621 45.9473 90.2832 47.2656C85.8398 55.0293 80.2734 58.4473 71.7773 58.4473C59.5703 58.4473 51.7578 49.4141 51.7578 35.9863L51.7578 35.3516L92.8711 35.3516C96.1426 35.3516 98.0957 33.3496 98.0957 29.9316C98.0957 12.3535 87.3535 0.0488281 71.6797 0.0488281C61.084 0.0488281 53.2227 5.22461 49.0723 13.916L48.6816 13.916C46.1914 5.22461 37.7441 0.0488281 26.6602 0.0488281C16.1133 0.0488281 6.98242 4.98047 3.61328 12.5C2.83203 13.9648 2.44141 15.4785 2.44141 16.748C2.44141 19.1895 4.10156 20.8008 6.44531 20.8008C8.25195 20.8008 9.47266 20.0684 10.2539 18.457C13.5742 11.1816 18.9453 8.05664 26.8066 8.05664C36.3281 8.05664 42.7246 14.1113 42.7246 22.8516L42.7246 28.2227L23.6328 29.248C8.34961 30.0293 0 36.5723 0 47.4609C0 58.8867 8.93555 66.3574 22.8027 66.3574ZM23.0957 58.5449C14.6973 58.5449 9.22852 53.8574 9.22852 47.3145C9.22852 40.7715 14.6484 36.9629 24.6094 36.377L42.7246 35.3516L42.7246 41.0156C42.7246 50.6836 34.1309 58.5449 23.0957 58.5449ZM51.7578 28.2227C52.4902 16.2598 60.1074 7.95898 70.9961 7.95898C81.7383 7.95898 88.5742 16.0645 88.7695 28.2227Z" fill="#000000" fill-opacity="0.85"/>
 </g>
</svg>
