<?xml version="1.0" encoding="UTF-8"?>
<!--Generator: Apple Native CoreSVG 232.5-->
<!DOCTYPE svg
PUBLIC "-//W3C//DTD SVG 1.1//EN"
       "http://www.w3.org/Graphics/SVG/1.1/DTD/svg11.dtd">
<svg version="1.1" xmlns="http://www.w3.org/2000/svg" xmlns:xlink="http://www.w3.org/1999/xlink" width="82.1289" height="104.639">
 <g>
  <rect height="104.639" opacity="0" width="82.1289" x="0" y="0"/>
  <path d="M14.9902 104.639L78.2227 104.639C80.3711 104.639 82.1289 102.93 82.1289 100.732C82.1289 99.0234 80.957 97.5098 79.3945 96.9727C73.2422 94.5312 71.9727 86.5723 78.0273 80.4688C79.8828 78.6133 82.1289 76.2207 82.1289 71.3379L82.1289 15.332C82.1289 5.17578 77.0996 0 66.9922 0L15.1367 0C5.0293 0 0 5.12695 0 15.332L0 89.5508C0 99.6094 5.07812 104.639 14.9902 104.639ZM7.86133 76.416L7.86133 15.4785C7.86133 10.5957 10.4492 7.86133 15.4785 7.86133L66.6016 7.86133C71.6797 7.86133 74.2676 10.5957 74.2676 15.4785L74.2676 70.2637C74.2676 72.9004 72.7539 74.4141 70.0195 74.4141L15.8203 74.4141C12.6465 74.4141 10.0098 75.0977 7.86133 76.416ZM15.4297 96.7773C10.498 96.7773 7.86133 94.1406 7.86133 89.502C7.86133 85.1074 10.9863 82.2754 15.8691 82.2754L65.9668 82.2754C66.6016 82.2754 67.1875 82.2266 67.6758 82.1289C65.3809 87.207 65.7715 92.5781 68.3594 96.7773ZM13.623 78.6133L20.0195 78.6133L20.0195 5.95703L13.623 5.95703ZM33.3984 61.0352C34.9121 61.0352 35.9863 60.3027 36.6699 58.3496L39.7461 49.3652L54.834 49.3652L57.9102 58.3496C58.5449 60.3027 59.6191 61.0352 61.1816 61.0352C63.0371 61.0352 64.2578 59.8633 64.2578 58.1055C64.2578 57.4707 64.1602 56.8359 63.8184 55.957L52.002 24.0723C51.1719 21.875 49.5605 20.752 47.2656 20.752C44.9707 20.752 43.4082 21.875 42.5781 24.0723L30.7129 55.957C30.4199 56.8359 30.2734 57.4707 30.2734 58.1055C30.2734 59.8633 31.4941 61.0352 33.3984 61.0352ZM41.4062 44.2871L47.0703 27.9785L47.5098 27.9785L53.125 44.2871Z" fill="#000000" fill-opacity="0.85"/>
 </g>
</svg>
