<?xml version="1.0" encoding="UTF-8"?>
<!--Generator: Apple Native CoreSVG 232.5-->
<!DOCTYPE svg
PUBLIC "-//W3C//DTD SVG 1.1//EN"
       "http://www.w3.org/Graphics/SVG/1.1/DTD/svg11.dtd">
<svg version="1.1" xmlns="http://www.w3.org/2000/svg" xmlns:xlink="http://www.w3.org/1999/xlink" width="99.6094" height="99.6582">
 <g>
  <rect height="99.6582" opacity="0" width="99.6094" x="0" y="0"/>
  <path d="M49.8047 99.6094C77.0508 99.6094 99.6094 77.002 99.6094 49.8047C99.6094 22.5586 77.002 0 49.7559 0C22.5586 0 0 22.5586 0 49.8047C0 77.002 22.6074 99.6094 49.8047 99.6094ZM49.8047 91.3086C26.7578 91.3086 8.34961 72.8516 8.34961 49.8047C8.34961 26.7578 26.709 8.30078 49.7559 8.30078C72.8027 8.30078 91.3086 26.7578 91.3086 49.8047C91.3086 72.8516 72.8516 91.3086 49.8047 91.3086Z" fill="#000000" fill-opacity="0.85"/>
  <path d="M23.4863 68.2129C23.4863 70.5078 25 72.0215 27.2949 72.0215L73.8281 72.0215C75.293 72.0215 76.5625 70.8008 76.5625 69.3359C76.5625 67.8711 75.293 66.6504 73.8281 66.6504L28.9551 66.6504C28.8574 66.6504 28.9062 66.6992 28.9062 66.5527L28.9062 28.8574C28.9062 27.3926 27.6367 26.1719 26.1719 26.1719C24.707 26.1719 23.4863 27.3926 23.4863 28.8574ZM27.8809 33.3008L24.0723 37.1582L35.0586 48.3887C36.1816 49.5605 37.3535 50.0977 38.8184 50.0977C40.2344 50.0977 41.4551 49.5605 42.5781 48.3887L51.2207 39.502C51.4648 39.209 51.6602 39.209 51.9043 39.5508L60.6934 48.4375L57.1777 51.9043C55.957 53.0273 56.6895 54.9316 58.4473 55.3711L72.4121 58.8379C74.0234 59.2773 75.4395 57.9102 75.0488 56.3477L71.4844 42.2852C70.9961 40.4785 69.2383 39.8438 68.0176 41.0156L64.5508 44.5801L55.3223 35.2051C54.1992 34.0332 52.9297 33.4473 51.5137 33.4473C50.1465 33.4473 48.9746 34.0332 47.7539 35.2051L39.209 43.8965C38.9648 44.2383 38.7207 44.2383 38.4277 43.8965Z" fill="#000000" fill-opacity="0.85"/>
 </g>
</svg>
