<?xml version="1.0" encoding="UTF-8"?>
<!--Generator: Apple Native CoreSVG 232.5-->
<!DOCTYPE svg
PUBLIC "-//W3C//DTD SVG 1.1//EN"
       "http://www.w3.org/Graphics/SVG/1.1/DTD/svg11.dtd">
<svg version="1.1" xmlns="http://www.w3.org/2000/svg" xmlns:xlink="http://www.w3.org/1999/xlink" width="122.705" height="92.041">
 <g>
  <rect height="92.041" opacity="0" width="122.705" x="0" y="0"/>
  <path d="M97.9492 91.3086L112.5 91.3086C119.238 91.3086 122.705 88.0859 122.705 81.6895L122.705 9.66797C122.705 3.27148 119.238 0 112.5 0L97.9492 0C91.3086 0 87.8418 3.27148 87.8418 9.66797L87.8418 81.6895C87.8418 88.0859 91.3086 91.3086 97.9492 91.3086Z" fill="#000000" fill-opacity="0.85"/>
  <path d="M54.0527 91.3086L68.6035 91.3086C75.3418 91.3086 78.7598 88.0859 78.7598 81.6895L78.7598 23.9258C78.7598 17.5293 75.3418 14.2578 68.6035 14.2578L54.0527 14.2578C47.3633 14.2578 43.8965 17.5293 43.8965 23.9258L43.8965 81.6895C43.8965 88.0859 47.3633 91.3086 54.0527 91.3086Z" fill="#000000" fill-opacity="0.85"/>
  <path d="M10.1562 91.3086L24.6582 91.3086C31.3965 91.3086 34.8633 88.0859 34.8633 81.6895L34.8633 38.1348C34.8633 31.7383 31.3965 28.4668 24.6582 28.4668L10.1562 28.4668C3.4668 28.4668 0 31.7383 0 38.1348L0 81.6895C0 88.0859 3.4668 91.3086 10.1562 91.3086Z" fill="#000000" fill-opacity="0.85"/>
 </g>
</svg>
