<?xml version="1.0" encoding="UTF-8"?>
<!--Generator: Apple Native CoreSVG 232.5-->
<!DOCTYPE svg
PUBLIC "-//W3C//DTD SVG 1.1//EN"
       "http://www.w3.org/Graphics/SVG/1.1/DTD/svg11.dtd">
<svg version="1.1" xmlns="http://www.w3.org/2000/svg" xmlns:xlink="http://www.w3.org/1999/xlink" width="82.1289" height="104.736">
 <g>
  <rect height="104.736" opacity="0" width="82.1289" x="0" y="0"/>
  <path d="M0 89.4043C0 99.6094 5.0293 104.688 15.1367 104.688L66.9922 104.688C77.0996 104.688 82.1289 99.6094 82.1289 89.4043L82.1289 15.332C82.1289 5.17578 77.0996 0 66.9922 0L15.1367 0C5.0293 0 0 5.17578 0 15.332ZM7.86133 89.2578L7.86133 15.4785C7.86133 10.5957 10.4492 7.86133 15.5273 7.86133L66.6016 7.86133C71.6797 7.86133 74.2676 10.5957 74.2676 15.4785L74.2676 89.2578C74.2676 94.1406 71.6797 96.8262 66.6016 96.8262L15.5273 96.8262C10.4492 96.8262 7.86133 94.1406 7.86133 89.2578Z" fill="#000000" fill-opacity="0.85"/>
  <path d="M18.0176 73.6816C16.0156 73.6816 14.8438 74.9512 14.8438 77.002L14.8438 85.1562C14.8438 87.207 16.0156 88.4766 18.0176 88.4766L40.0879 88.4766C41.9922 88.4766 43.2129 87.207 43.2129 85.1562L43.2129 77.002C43.2129 74.9512 41.9922 73.6816 40.0879 73.6816Z" fill="#000000" fill-opacity="0.85"/>
  <path d="M18.0176 54.541C16.0156 54.541 14.8438 55.7617 14.8438 57.7637L14.8438 66.0156C14.8438 68.0664 16.0156 69.2871 18.0176 69.2871L56.1523 69.2871C58.1055 69.2871 59.2773 68.0664 59.2773 66.0156L59.2773 57.7637C59.2773 55.7617 58.1055 54.541 56.1523 54.541Z" fill="#000000" fill-opacity="0.85"/>
  <path d="M18.0176 35.3516C16.0156 35.3516 14.8438 36.6211 14.8438 38.623L14.8438 46.8262C14.8438 48.8281 16.0156 50.0977 18.0176 50.0977L64.209 50.0977C66.1621 50.0977 67.334 48.8281 67.334 46.7773L67.334 38.623C67.334 36.6211 66.1621 35.3516 64.209 35.3516Z" fill="#000000" fill-opacity="0.85"/>
  <path d="M18.0176 16.1621C16.0156 16.1621 14.8438 17.4316 14.8438 19.4824L14.8438 27.6367C14.8438 29.6875 16.0156 30.957 18.0176 30.957L47.9492 30.957C49.9023 30.957 51.0742 29.6875 51.0742 27.6367L51.0742 19.4824C51.0742 17.4316 49.9023 16.1621 47.9492 16.1621Z" fill="#000000" fill-opacity="0.85"/>
 </g>
</svg>
