<?xml version="1.0" encoding="UTF-8"?>
<!--Generator: Apple Native CoreSVG 232.5-->
<!DOCTYPE svg
PUBLIC "-//W3C//DTD SVG 1.1//EN"
       "http://www.w3.org/Graphics/SVG/1.1/DTD/svg11.dtd">
<svg version="1.1" xmlns="http://www.w3.org/2000/svg" xmlns:xlink="http://www.w3.org/1999/xlink" width="104.98" height="90.8691">
 <g>
  <rect height="90.8691" opacity="0" width="104.98" x="0" y="0"/>
  <path d="M102.051 15.1855L94.8242 43.7988C94.1895 46.2891 91.8945 47.3633 90.1367 45.6055L82.1289 37.5488L62.207 57.5684C60.0098 59.7656 57.9102 60.791 55.5664 60.791C53.2715 60.791 51.0742 59.7656 48.9746 57.5684L31.0059 39.1602C30.5664 38.7207 30.127 38.4766 29.6875 38.4766C29.248 38.4766 28.8086 38.7207 28.3691 39.1602L7.86133 60.0469L7.86133 48.1049L23.0957 32.666C25.3418 30.4199 27.3926 29.4434 29.6875 29.4434C31.9824 29.4434 34.1309 30.4688 36.2793 32.666L54.248 51.0742C54.6875 51.5137 55.1758 51.7578 55.5664 51.7578C56.0059 51.7578 56.4941 51.5137 56.9336 51.0742L76.1719 31.5918L68.1152 23.5352C66.3574 21.7773 67.4316 19.5312 69.9219 18.8477L98.4863 11.6699C100.684 11.084 102.637 12.9395 102.051 15.1855Z" fill="#000000" fill-opacity="0.85"/>
  <path d="M0 87.0117C0 89.3555 1.5625 90.8691 3.90625 90.8691L101.025 90.8691C103.174 90.8691 104.98 89.1602 104.98 86.9629C104.98 84.8145 103.174 83.0566 101.025 83.0566L9.22852 83.0566C8.20312 83.0566 7.86133 82.7148 7.86133 81.6895L7.86133 4.49219C7.86133 2.39258 6.10352 0.585938 3.95508 0.585938C1.75781 0.585938 0 2.39258 0 4.49219Z" fill="#000000" fill-opacity="0.85"/>
 </g>
</svg>
