<?xml version="1.0" encoding="UTF-8"?>
<!--Generator: Apple Native CoreSVG 232.5-->
<!DOCTYPE svg
PUBLIC "-//W3C//DTD SVG 1.1//EN"
       "http://www.w3.org/Graphics/SVG/1.1/DTD/svg11.dtd">
<svg version="1.1" xmlns="http://www.w3.org/2000/svg" xmlns:xlink="http://www.w3.org/1999/xlink" width="104.98" height="90.8691">
 <g>
  <rect height="90.8691" opacity="0" width="104.98" x="0" y="0"/>
  <path d="M75.1953 24.7559L100.439 39.8926C102.441 41.1133 102.539 43.7012 100.488 44.9219L75.2441 60.0586C72.998 61.377 70.6543 60.5469 70.6543 58.0566L70.6543 46.582L7.86133 46.582L7.86133 38.2324L70.6543 38.2324L70.6543 26.7578C70.6543 24.3164 72.9492 23.4863 75.1953 24.7559Z" fill="#000000" fill-opacity="0.85"/>
  <path d="M0 87.0117C0 89.3555 1.5625 90.8691 3.90625 90.8691L101.025 90.8691C103.174 90.8691 104.98 89.1602 104.98 86.9629C104.98 84.8145 103.174 83.0566 101.025 83.0566L9.22852 83.0566C8.20312 83.0566 7.86133 82.7148 7.86133 81.6895L7.86133 4.49219C7.86133 2.39258 6.10352 0.585938 3.95508 0.585938C1.75781 0.585938 0 2.39258 0 4.49219Z" fill="#000000" fill-opacity="0.85"/>
 </g>
</svg>
