<?xml version="1.0" encoding="UTF-8"?>
<!--Generator: Apple Native CoreSVG 232.5-->
<!DOCTYPE svg
PUBLIC "-//W3C//DTD SVG 1.1//EN"
       "http://www.w3.org/Graphics/SVG/1.1/DTD/svg11.dtd">
<svg version="1.1" xmlns="http://www.w3.org/2000/svg" xmlns:xlink="http://www.w3.org/1999/xlink" width="104.98" height="90.8691">
 <g>
  <rect height="90.8691" opacity="0" width="104.98" x="0" y="0"/>
  <path d="M62.207 18.3105L82.1289 38.3301L90.1367 30.2734C91.8945 28.5156 94.1895 29.5898 94.8242 32.0801L102.051 60.6934C102.637 62.9395 100.684 64.7949 98.4863 64.209L69.9219 56.9824C67.4316 56.3477 66.3574 54.1016 68.1152 52.3438L76.1719 44.2871L56.9336 24.8047C56.4941 24.3652 56.0059 24.1211 55.5664 24.1211C55.1758 24.1211 54.6875 24.3652 54.248 24.8047L36.2793 43.2129C34.1309 45.4102 31.9824 46.4355 29.6875 46.4355C27.3926 46.4355 25.3418 45.459 23.0957 43.2129L7.86133 27.774L7.86133 15.832L28.3691 36.7188C28.8086 37.1582 29.248 37.4023 29.6875 37.4023C30.127 37.4023 30.5664 37.1582 31.0059 36.7188L48.9746 18.3105C51.0742 16.1133 53.2715 15.0879 55.5664 15.0879C57.9102 15.0879 60.0098 16.1133 62.207 18.3105Z" fill="#000000" fill-opacity="0.85"/>
  <path d="M0 87.0117C0 89.3555 1.5625 90.8691 3.90625 90.8691L101.025 90.8691C103.174 90.8691 104.98 89.1602 104.98 86.9629C104.98 84.8145 103.174 83.0566 101.025 83.0566L9.22852 83.0566C8.20312 83.0566 7.86133 82.7148 7.86133 81.6895L7.86133 4.49219C7.86133 2.39258 6.10352 0.585938 3.95508 0.585938C1.75781 0.585938 0 2.39258 0 4.49219Z" fill="#000000" fill-opacity="0.85"/>
 </g>
</svg>
