<?xml version="1.0" encoding="UTF-8"?>
<!--Generator: Apple Native CoreSVG 232.5-->
<!DOCTYPE svg
PUBLIC "-//W3C//DTD SVG 1.1//EN"
       "http://www.w3.org/Graphics/SVG/1.1/DTD/svg11.dtd">
<svg version="1.1" xmlns="http://www.w3.org/2000/svg" xmlns:xlink="http://www.w3.org/1999/xlink" width="82.1289" height="104.736">
 <g>
  <rect height="104.736" opacity="0" width="82.1289" x="0" y="0"/>
  <path d="M82.1289 15.332L82.1289 89.4043C82.1289 99.6094 77.0996 104.688 66.9922 104.688L15.1367 104.688C5.0293 104.688 0 99.6094 0 89.4043L0 15.332C0 5.17578 5.0293 0 15.1367 0L66.9922 0C77.0996 0 82.1289 5.17578 82.1289 15.332ZM18.0176 73.7305C16.0156 73.7305 14.8438 75 14.8438 77.0508L14.8438 85.2051C14.8438 87.207 16.0156 88.5254 18.0176 88.5254L40.0879 88.5254C41.9922 88.5254 43.2129 87.207 43.2129 85.2051L43.2129 77.0508C43.2129 75 41.9922 73.7305 40.0879 73.7305ZM18.0176 54.5898C16.0156 54.5898 14.8438 55.8105 14.8438 57.8125L14.8438 66.0156C14.8438 68.0664 16.0156 69.2871 18.0176 69.2871L56.1523 69.2871C58.1055 69.2871 59.2773 68.0664 59.2773 66.0156L59.2773 57.8125C59.2773 55.8105 58.1055 54.5898 56.1523 54.5898ZM18.0176 35.3516C16.0156 35.3516 14.8438 36.6211 14.8438 38.6719L14.8438 46.8262C14.8438 48.877 16.0156 50.1465 18.0176 50.1465L64.209 50.1465C66.1621 50.1465 67.334 48.877 67.334 46.8262L67.334 38.6719C67.334 36.6211 66.1621 35.3516 64.209 35.3516ZM18.0176 16.2109C16.0156 16.2109 14.8438 17.4805 14.8438 19.5312L14.8438 27.6855C14.8438 29.6875 16.0156 31.0059 18.0176 31.0059L47.9492 31.0059C49.9023 31.0059 51.0742 29.6875 51.0742 27.6855L51.0742 19.5312C51.0742 17.4805 49.9023 16.2109 47.9492 16.2109Z" fill="#000000" fill-opacity="0.85"/>
 </g>
</svg>
