<?xml version="1.0" encoding="UTF-8"?>
<!--Generator: Apple Native CoreSVG 232.5-->
<!DOCTYPE svg
PUBLIC "-//W3C//DTD SVG 1.1//EN"
       "http://www.w3.org/Graphics/SVG/1.1/DTD/svg11.dtd">
<svg version="1.1" xmlns="http://www.w3.org/2000/svg" xmlns:xlink="http://www.w3.org/1999/xlink" width="59.2773" height="72.2168">
 <g>
  <rect height="72.2168" opacity="0" width="59.2773" x="0" y="0"/>
  <path d="M4.10156 72.1191C6.68945 72.1191 7.95898 71.1426 8.88672 68.4082L15.1855 51.1719L43.9941 51.1719L50.293 68.4082C51.2207 71.1426 52.4902 72.1191 55.0293 72.1191C57.6172 72.1191 59.2773 70.5566 59.2773 68.1152C59.2773 67.2852 59.1309 66.5039 58.7402 65.4785L35.8398 4.49219C34.7168 1.51367 32.7148 0 29.5898 0C26.5625 0 24.5117 1.46484 23.4375 4.44336L0.537109 65.5273C0.146484 66.5527 0 67.334 0 68.1641C0 70.6055 1.5625 72.1191 4.10156 72.1191ZM17.5781 43.75L29.4434 10.8887L29.6875 10.8887L41.5527 43.75Z" fill="#000000" fill-opacity="0.85"/>
 </g>
</svg>
