<?xml version="1.0" encoding="UTF-8"?>
<!--Generator: Apple Native CoreSVG 232.5-->
<!DOCTYPE svg
PUBLIC "-//W3C//DTD SVG 1.1//EN"
       "http://www.w3.org/Graphics/SVG/1.1/DTD/svg11.dtd">
<svg version="1.1" xmlns="http://www.w3.org/2000/svg" xmlns:xlink="http://www.w3.org/1999/xlink" width="124.072" height="92.041">
 <g>
  <rect height="92.041" opacity="0" width="124.072" x="0" y="0"/>
  <path d="M99.3164 91.9434L112.5 91.9434C120.117 91.9434 124.072 88.2812 124.072 81.0547L124.072 10.9375C124.072 3.71094 120.117 0 112.5 0L99.3164 0C91.748 0 87.8418 3.71094 87.8418 10.9375L87.8418 81.0547C87.8418 88.2812 91.748 91.9434 99.3164 91.9434ZM100.635 84.5703C96.9238 84.5703 95.6055 83.3008 95.6055 79.6387L95.6055 12.3535C95.6055 8.69141 96.9238 7.37305 100.635 7.37305L111.23 7.37305C114.99 7.37305 116.309 8.69141 116.309 12.3535L116.309 79.6387C116.309 83.3008 114.99 84.5703 111.23 84.5703Z" fill="#000000" fill-opacity="0.85"/>
  <path d="M55.4199 91.9434L68.6035 91.9434C76.2207 91.9434 80.127 88.2812 80.127 81.0547L80.127 25.1953C80.127 17.9688 76.2207 14.2578 68.6035 14.2578L55.4199 14.2578C47.8027 14.2578 43.8965 17.9688 43.8965 25.1953L43.8965 81.0547C43.8965 88.2812 47.8027 91.9434 55.4199 91.9434ZM56.7383 84.5703C52.9785 84.5703 51.6602 83.3008 51.6602 79.6387L51.6602 26.6113C51.6602 22.9492 52.9785 21.6309 56.7383 21.6309L67.334 21.6309C71.0938 21.6309 72.3633 22.9492 72.3633 26.6113L72.3633 79.6387C72.3633 83.3008 71.0938 84.5703 67.334 84.5703Z" fill="#000000" fill-opacity="0.85"/>
  <path d="M11.5234 91.9434L24.6582 91.9434C32.2754 91.9434 36.2305 88.2812 36.2305 81.0547L36.2305 39.4043C36.2305 32.1777 32.2754 28.4668 24.6582 28.4668L11.5234 28.4668C3.90625 28.4668 0 32.1777 0 39.4043L0 81.0547C0 88.2812 3.90625 91.9434 11.5234 91.9434ZM12.793 84.5703C9.08203 84.5703 7.76367 83.3008 7.76367 79.6387L7.76367 40.8203C7.76367 37.1094 9.08203 35.8398 12.793 35.8398L23.3887 35.8398C27.1484 35.8398 28.4668 37.1094 28.4668 40.8203L28.4668 79.6387C28.4668 83.3008 27.1484 84.5703 23.3887 84.5703Z" fill="#000000" fill-opacity="0.85"/>
 </g>
</svg>
