<?xml version="1.0" encoding="UTF-8"?>
<!--Generator: Apple Native CoreSVG 232.5-->
<!DOCTYPE svg
PUBLIC "-//W3C//DTD SVG 1.1//EN"
       "http://www.w3.org/Graphics/SVG/1.1/DTD/svg11.dtd">
<svg version="1.1" xmlns="http://www.w3.org/2000/svg" xmlns:xlink="http://www.w3.org/1999/xlink" width="104.98" height="90.8691">
 <g>
  <rect height="90.8691" opacity="0" width="104.98" x="0" y="0"/>
  <path d="M104.443 32.0801C104.443 36.8652 100.537 40.7715 95.752 40.7715C93.8458 40.7715 92.0791 40.1516 90.649 39.096L67.4566 52.9043C67.54 53.3551 67.5781 53.8214 67.5781 54.2969C67.5781 59.082 63.7207 62.9883 58.9355 62.9883C54.1504 62.9883 50.2441 59.082 50.2441 54.2969C50.2441 53.073 50.4997 51.9097 50.9632 50.8579L41.6439 42.8671C40.1143 44.238 38.0949 45.0684 35.8887 45.0684C33.4577 45.0684 31.2536 44.0602 29.6764 42.4378L7.86133 55.0587L7.86133 48.3725L27.2384 37.1855C27.21 36.9198 27.1973 36.6498 27.1973 36.377C27.1973 31.5918 31.1035 27.7344 35.8887 27.7344C40.6738 27.7344 44.5801 31.5918 44.5801 36.377C44.5801 36.8989 44.5336 37.4104 44.4366 37.9048L54.7384 46.7318C55.9827 46.0439 57.4147 45.6543 58.9355 45.6543C61.1189 45.6543 63.1091 46.4574 64.6222 47.7913L87.3476 34.2528C87.1568 33.5607 87.0605 32.8312 87.0605 32.0801C87.0605 27.2949 90.9668 23.3887 95.752 23.3887C100.537 23.3887 104.443 27.2949 104.443 32.0801Z" fill="#000000" fill-opacity="0.85"/>
  <path d="M0 87.0117C0 89.3555 1.5625 90.8691 3.90625 90.8691L101.025 90.8691C103.174 90.8691 104.98 89.1602 104.98 86.9629C104.98 84.8145 103.174 83.0566 101.025 83.0566L9.22852 83.0566C8.20312 83.0566 7.86133 82.7148 7.86133 81.6895L7.86133 4.49219C7.86133 2.39258 6.10352 0.585938 3.95508 0.585938C1.75781 0.585938 0 2.39258 0 4.49219Z" fill="#000000" fill-opacity="0.85"/>
 </g>
</svg>
