<?xml version="1.0" encoding="UTF-8"?>
<!--Generator: Apple Native CoreSVG 232.5-->
<!DOCTYPE svg
PUBLIC "-//W3C//DTD SVG 1.1//EN"
       "http://www.w3.org/Graphics/SVG/1.1/DTD/svg11.dtd">
<svg version="1.1" xmlns="http://www.w3.org/2000/svg" xmlns:xlink="http://www.w3.org/1999/xlink" width="70.0195" height="100.635">
 <g>
  <rect height="100.635" opacity="0" width="70.0195" x="0" y="0"/>
  <path d="M32.373 100.488C50.4883 100.488 64.7949 86.1816 64.7949 68.0664C64.7949 49.9023 50.4883 35.6445 32.3242 35.6445C14.209 35.6445 0 49.9023 0 68.0664C0 86.1816 14.2578 100.488 32.373 100.488ZM32.373 92.2363C18.7988 92.2363 8.25195 81.6895 8.25195 68.0664C8.25195 54.4922 18.7988 43.8965 32.3242 43.8965C45.9473 43.8965 56.543 54.4922 56.543 68.0664C56.543 81.6895 45.9961 92.2363 32.373 92.2363ZM56.543 68.0664L64.7949 68.0664L64.7949 13.3789L56.543 13.3789ZM60.6445 18.75C65.8691 18.75 70.0195 14.5508 70.0195 9.375C70.0195 4.19922 65.8691 0 60.6445 0C55.4688 0 51.2695 4.19922 51.2695 9.375C51.2695 14.5508 55.4688 18.75 60.6445 18.75Z" fill="#000000" fill-opacity="0.85"/>
 </g>
</svg>
