<?xml version="1.0" encoding="UTF-8"?>
<!--Generator: Apple Native CoreSVG 232.5-->
<!DOCTYPE svg
PUBLIC "-//W3C//DTD SVG 1.1//EN"
       "http://www.w3.org/Graphics/SVG/1.1/DTD/svg11.dtd">
<svg version="1.1" xmlns="http://www.w3.org/2000/svg" xmlns:xlink="http://www.w3.org/1999/xlink" width="82.1289" height="104.736">
 <g>
  <rect height="104.736" opacity="0" width="82.1289" x="0" y="0"/>
  <path d="M0 89.4043C0 99.6094 5.0293 104.688 15.1367 104.688L66.9922 104.688C77.0996 104.688 82.1289 99.6094 82.1289 89.4043L82.1289 15.332C82.1289 5.17578 77.0996 0 66.9922 0L15.1367 0C5.0293 0 0 5.17578 0 15.332ZM7.86133 89.2578L7.86133 15.4785C7.86133 10.5957 10.4492 7.86133 15.5273 7.86133L66.6016 7.86133C71.6797 7.86133 74.2676 10.5957 74.2676 15.4785L74.2676 89.2578C74.2676 94.1406 71.6797 96.8262 66.6016 96.8262L15.5273 96.8262C10.4492 96.8262 7.86133 94.1406 7.86133 89.2578Z" fill="#000000" fill-opacity="0.85"/>
  <path d="M35.791 75.5371C37.4023 75.5371 38.7695 74.7559 39.6973 73.2422L62.0117 38.1348C62.5977 37.1582 63.2324 36.084 63.2324 35.0098C63.2324 32.8125 61.2793 31.3965 59.2285 31.3965C57.959 31.3965 56.7383 32.1777 55.8594 33.5938L35.5469 66.1133L25.9277 53.6621C24.8047 52.0996 23.6816 51.709 22.3633 51.709C20.2148 51.709 18.6035 53.418 18.6035 55.5664C18.6035 56.6406 18.9941 57.666 19.6777 58.5938L31.5918 73.2422C32.8613 74.8535 34.1309 75.5371 35.791 75.5371Z" fill="#000000" fill-opacity="0.85"/>
 </g>
</svg>
