<?xml version="1.0" encoding="UTF-8"?>
<!--Generator: Apple Native CoreSVG 232.5-->
<!DOCTYPE svg
PUBLIC "-//W3C//DTD SVG 1.1//EN"
       "http://www.w3.org/Graphics/SVG/1.1/DTD/svg11.dtd">
<svg version="1.1" xmlns="http://www.w3.org/2000/svg" xmlns:xlink="http://www.w3.org/1999/xlink" width="107.617" height="107.861">
 <g>
  <rect height="107.861" opacity="0" width="107.617" x="0" y="0"/>
  <path d="M107.617 28.9062L107.617 66.3086C107.617 80.6152 99.8047 88.623 85.2539 88.623L52.2461 88.623L34.6191 104.736C32.3242 106.885 30.9082 107.861 29.0039 107.861C26.2207 107.861 24.6582 105.859 24.6582 102.832L24.6582 88.623L22.3633 88.623C7.8125 88.623 0 80.6641 0 66.3086L0 28.9062C0 14.5508 7.8125 6.54297 22.3633 6.54297L85.2539 6.54297C99.8047 6.54297 107.617 14.5996 107.617 28.9062ZM69.043 28.1738L48.1445 61.6699L38.2324 48.877C37.0605 47.2656 35.9375 46.8262 34.5703 46.8262C32.3242 46.8262 30.6641 48.6328 30.6641 50.8301C30.6641 51.9531 31.0547 53.0273 31.7871 54.0039L44.043 69.043C45.3613 70.752 46.6797 71.4355 48.3887 71.4355C50.0488 71.4355 51.4648 70.6543 52.4414 69.043L75.3906 32.9102C76.0254 31.9336 76.6602 30.7617 76.6602 29.6875C76.6602 27.3926 74.6582 25.9277 72.5098 25.9277C71.1914 25.9277 69.9219 26.709 69.043 28.1738Z" fill="#000000" fill-opacity="0.85"/>
 </g>
</svg>
