<?xml version="1.0" encoding="UTF-8"?>
<!--Generator: Apple Native CoreSVG 232.5-->
<!DOCTYPE svg
PUBLIC "-//W3C//DTD SVG 1.1//EN"
       "http://www.w3.org/Graphics/SVG/1.1/DTD/svg11.dtd">
<svg version="1.1" xmlns="http://www.w3.org/2000/svg" xmlns:xlink="http://www.w3.org/1999/xlink" width="118.018" height="123.682">
 <g>
  <rect height="123.682" opacity="0" width="118.018" x="0" y="0"/>
  <path d="M89.8235 13.9648L28.1941 13.9648C28.3945 9.99647 30.8989 7.71484 35.0586 7.71484L82.959 7.71484C87.1187 7.71484 89.6231 9.99647 89.8235 13.9648Z" fill="#000000" fill-opacity="0.85"/>
  <path d="M99.8116 27.9125C98.2412 27.6628 96.5755 27.5391 94.8242 27.5391L23.1934 27.5391C21.4425 27.5391 19.7772 27.6628 18.2073 27.9123C18.7389 23.2213 21.9132 20.6055 27.0996 20.6055L90.9668 20.6055C96.1533 20.6055 99.2873 23.2214 99.8116 27.9125Z" fill="#000000" fill-opacity="0.85"/>
  <path d="M23.1934 115.82L94.8242 115.82C105.029 115.82 110.156 110.742 110.156 100.684L110.156 50.5371C110.156 40.4785 105.029 35.4004 94.8242 35.4004L23.1934 35.4004C12.9883 35.4004 7.86133 40.4785 7.86133 50.5371L7.86133 100.684C7.86133 110.742 12.9883 115.82 23.1934 115.82ZM23.3398 107.959C18.457 107.959 15.7227 105.322 15.7227 100.244L15.7227 50.9766C15.7227 45.8984 18.457 43.2617 23.3398 43.2617L94.7266 43.2617C99.5117 43.2617 102.295 45.8984 102.295 50.9766L102.295 100.244C102.295 105.322 99.5117 107.959 94.7266 107.959Z" fill="#000000" fill-opacity="0.85"/>
  <path d="M53.7109 98.7793C55.3223 98.7793 56.6895 97.998 57.6172 96.5332L79.9805 61.377C80.5176 60.4492 81.1523 59.375 81.1523 58.252C81.1523 56.1035 79.1992 54.6875 77.1484 54.6875C75.8789 54.6875 74.6582 55.4199 73.7793 56.8848L53.5156 89.4043L43.8965 76.9531C42.7246 75.3906 41.6016 74.9512 40.2832 74.9512C38.1836 74.9512 36.5234 76.6602 36.5234 78.8574C36.5234 79.8828 36.9629 80.957 37.6465 81.8848L49.5117 96.5332C50.7812 98.1445 52.0508 98.7793 53.7109 98.7793Z" fill="#000000" fill-opacity="0.85"/>
 </g>
</svg>
