<?xml version="1.0" encoding="UTF-8"?>
<!--Generator: Apple Native CoreSVG 232.5-->
<!DOCTYPE svg
PUBLIC "-//W3C//DTD SVG 1.1//EN"
       "http://www.w3.org/Graphics/SVG/1.1/DTD/svg11.dtd">
<svg version="1.1" xmlns="http://www.w3.org/2000/svg" xmlns:xlink="http://www.w3.org/1999/xlink" width="99.6094" height="99.6582">
 <g>
  <rect height="99.6582" opacity="0" width="99.6094" x="0" y="0"/>
  <path d="M49.8047 99.6094C77.0508 99.6094 99.6094 77.002 99.6094 49.8047C99.6094 22.5586 77.002 0 49.7559 0C22.5586 0 0 22.5586 0 49.8047C0 77.002 22.6074 99.6094 49.8047 99.6094ZM49.8047 91.3086C26.7578 91.3086 8.34961 72.8516 8.34961 49.8047C8.34961 26.7578 26.709 8.30078 49.7559 8.30078C72.8027 8.30078 91.3086 26.7578 91.3086 49.8047C91.3086 72.8516 72.8516 91.3086 49.8047 91.3086Z" fill="#000000" fill-opacity="0.85"/>
  <path d="M44.4336 72.998C46.0449 72.998 47.4121 72.2168 48.3887 70.7031L70.7031 35.5957C71.2402 34.6191 71.875 33.5449 71.875 32.4707C71.875 30.2734 69.9219 28.8574 67.8711 28.8574C66.6504 28.8574 65.4297 29.6387 64.502 31.0547L44.2383 63.5742L34.6191 51.123C33.4473 49.5605 32.373 49.1699 31.0059 49.1699C28.9062 49.1699 27.2461 50.8789 27.2461 53.0273C27.2461 54.1016 27.6855 55.127 28.3691 56.0547L40.2832 70.7031C41.5039 72.3145 42.8223 72.998 44.4336 72.998Z" fill="#000000" fill-opacity="0.85"/>
 </g>
</svg>
