<?xml version="1.0" encoding="UTF-8"?>
<!--Generator: Apple Native CoreSVG 232.5-->
<!DOCTYPE svg
PUBLIC "-//W3C//DTD SVG 1.1//EN"
       "http://www.w3.org/Graphics/SVG/1.1/DTD/svg11.dtd">
<svg version="1.1" xmlns="http://www.w3.org/2000/svg" xmlns:xlink="http://www.w3.org/1999/xlink" width="115.137" height="89.8926">
 <g>
  <rect height="89.8926" opacity="0" width="115.137" x="0" y="0"/>
  <path d="M15.332 89.8926L99.8047 89.8926C110.059 89.8926 115.137 84.8633 115.137 74.8047L115.137 15.1367C115.137 5.07812 110.059 0 99.8047 0L15.332 0C5.12695 0 0 5.07812 0 15.1367L0 74.8047C0 84.8633 5.12695 89.8926 15.332 89.8926ZM15.4297 82.0312C10.5469 82.0312 7.86133 79.4434 7.86133 74.3652L7.86133 15.5762C7.86133 10.498 10.5469 7.86133 15.4297 7.86133L99.707 7.86133C104.541 7.86133 107.275 10.498 107.275 15.5762L107.275 74.3652C107.275 79.4434 104.541 82.0312 99.707 82.0312Z" fill="#000000" fill-opacity="0.85"/>
  <path d="M52.2949 68.1152C53.9062 68.1152 55.2734 67.334 56.2012 65.8203L78.5645 30.7129C79.1016 29.7363 79.7363 28.6621 79.7363 27.5879C79.7363 25.3906 77.7832 23.9746 75.7324 23.9746C74.4629 23.9746 73.2422 24.7559 72.3633 26.1719L52.0996 58.6914L42.4316 46.2402C41.3086 44.6777 40.1855 44.2871 38.8672 44.2871C36.7188 44.2871 35.1074 45.9961 35.1074 48.1445C35.1074 49.2188 35.498 50.2441 36.2305 51.1719L48.0957 65.8203C49.3652 67.4316 50.6348 68.1152 52.2949 68.1152Z" fill="#000000" fill-opacity="0.85"/>
 </g>
</svg>
