<?xml version="1.0" encoding="UTF-8"?>
<!--Generator: Apple Native CoreSVG 232.5-->
<!DOCTYPE svg
PUBLIC "-//W3C//DTD SVG 1.1//EN"
       "http://www.w3.org/Graphics/SVG/1.1/DTD/svg11.dtd">
<svg version="1.1" xmlns="http://www.w3.org/2000/svg" xmlns:xlink="http://www.w3.org/1999/xlink" width="107.617" height="107.275">
 <g>
  <rect height="107.275" opacity="0" width="107.617" x="0" y="0"/>
  <path d="M30.0293 107.275C32.4219 107.275 34.082 106.006 37.0605 103.369L53.9062 88.3789L85.2539 88.3789C99.8047 88.3789 107.617 80.3223 107.617 66.0156L107.617 28.6133C107.617 14.3066 99.8047 6.25 85.2539 6.25L22.3633 6.25C7.8125 6.25 0 14.2578 0 28.6133L0 66.0156C0 80.3711 7.8125 88.3789 22.3633 88.3789L24.707 88.3789L24.707 101.074C24.707 104.834 26.6113 107.275 30.0293 107.275ZM32.0312 98.3398L32.0312 84.1797C32.0312 81.543 31.0059 80.5176 28.3691 80.5176L22.3633 80.5176C12.5 80.5176 7.86133 75.4883 7.86133 65.9668L7.86133 28.6133C7.86133 19.0918 12.5 14.1113 22.3633 14.1113L85.2539 14.1113C95.0684 14.1113 99.7559 19.0918 99.7559 28.6133L99.7559 65.9668C99.7559 75.4883 95.0684 80.5176 85.2539 80.5176L53.6133 80.5176C50.8789 80.5176 49.5117 80.9082 47.6562 82.8125Z" fill="#000000" fill-opacity="0.85"/>
  <path d="M48.5352 70.5078C50.1465 70.5078 51.5137 69.7266 52.4414 68.2129L74.7559 33.1055C75.3418 32.1777 75.9766 31.0547 75.9766 29.9805C75.9766 27.7832 74.0234 26.3672 71.9727 26.3672C70.7031 26.3672 69.4824 27.1484 68.6035 28.5645L48.291 61.084L38.6719 48.6328C37.5488 47.0703 36.4258 46.6797 35.1074 46.6797C32.959 46.6797 31.3477 48.3887 31.3477 50.5371C31.3477 51.6113 31.7383 52.6367 32.4219 53.5645L44.3359 68.2129C45.6055 69.8242 46.875 70.5078 48.5352 70.5078Z" fill="#000000" fill-opacity="0.85"/>
 </g>
</svg>
