<?xml version="1.0" encoding="UTF-8"?>
<!--Generator: Apple Native CoreSVG 232.5-->
<!DOCTYPE svg
PUBLIC "-//W3C//DTD SVG 1.1//EN"
       "http://www.w3.org/Graphics/SVG/1.1/DTD/svg11.dtd">
<svg version="1.1" xmlns="http://www.w3.org/2000/svg" xmlns:xlink="http://www.w3.org/1999/xlink" width="89.8926" height="89.9902">
 <g>
  <rect height="89.9902" opacity="0" width="89.8926" x="0" y="0"/>
  <path d="M15.332 89.9902L74.5605 89.9902C84.8145 89.9902 89.8926 84.9121 89.8926 74.8535L89.8926 15.2344C89.8926 5.17578 84.8145 0.0976562 74.5605 0.0976562L15.332 0.0976562C5.12695 0.0976562 0 5.12695 0 15.2344L0 74.8535C0 84.9609 5.12695 89.9902 15.332 89.9902ZM15.4297 82.1289C10.5469 82.1289 7.86133 79.541 7.86133 74.4629L7.86133 15.625C7.86133 10.5469 10.5469 7.95898 15.4297 7.95898L74.4629 7.95898C79.2969 7.95898 82.0312 10.5469 82.0312 15.625L82.0312 74.4629C82.0312 79.541 79.2969 82.1289 74.4629 82.1289Z" fill="#000000" fill-opacity="0.85"/>
  <path d="M39.6484 68.1641C41.2598 68.1641 42.627 67.3828 43.6035 65.8691L65.918 30.7617C66.5039 29.7852 67.0898 28.7109 67.0898 27.6367C67.0898 25.4395 65.1367 24.0234 63.1348 24.0234C61.8652 24.0234 60.6445 24.8047 59.7168 26.2207L39.4531 58.7402L29.834 46.2891C28.6621 44.7266 27.5879 44.3359 26.2695 44.3359C24.1211 44.3359 22.4609 46.0449 22.4609 48.1934C22.4609 49.2676 22.9004 50.293 23.584 51.2207L35.498 65.8691C36.7188 67.4805 38.0371 68.1641 39.6484 68.1641Z" fill="#000000" fill-opacity="0.85"/>
 </g>
</svg>
