<?xml version="1.0" encoding="UTF-8"?>
<!--Generator: Apple Native CoreSVG 232.5-->
<!DOCTYPE svg
PUBLIC "-//W3C//DTD SVG 1.1//EN"
       "http://www.w3.org/Graphics/SVG/1.1/DTD/svg11.dtd">
<svg version="1.1" xmlns="http://www.w3.org/2000/svg" xmlns:xlink="http://www.w3.org/1999/xlink" width="110.755" height="110.804">
 <g>
  <rect height="110.804" opacity="0" width="110.755" x="0" y="0"/>
  <path d="M5.47524 66.1686L44.5866 105.28C51.8131 112.506 58.942 112.555 66.1198 105.426L105.426 66.0709C112.555 58.942 112.506 51.7643 105.28 44.5377L66.2174 5.47524C58.9909-1.75132 51.862-1.84898 44.6842 5.32876L5.32876 44.6354C-1.84898 51.8131-1.75132 58.942 5.47524 66.1686ZM11.1393 60.7487C7.67251 57.2331 7.57485 53.5709 11.1881 49.9577L49.9577 11.1881C53.5709 7.57485 57.2331 7.62368 60.7487 11.1393L99.6159 50.0065C103.083 53.4733 103.18 57.1842 99.567 60.7975L60.7975 99.567C57.1842 103.18 53.4245 103.083 50.0065 99.6647Z" fill="#000000" fill-opacity="0.85"/>
  <path d="M50.1041 78.5709C51.7155 78.5709 53.0827 77.7897 54.0104 76.276L76.3737 41.1686C76.9108 40.192 77.5456 39.1178 77.5456 38.0436C77.5456 35.8463 75.5924 34.4303 73.5416 34.4303C72.2721 34.4303 71.0514 35.2116 70.1725 36.6276L49.9088 69.1471L40.2409 56.6959C39.1178 55.1334 37.9948 54.7428 36.6764 54.7428C34.528 54.7428 32.9166 56.4518 32.9166 58.6002C32.9166 59.6745 33.3073 60.6999 34.0397 61.6276L45.9049 76.276C47.1745 77.8874 48.444 78.5709 50.1041 78.5709Z" fill="#000000" fill-opacity="0.85"/>
 </g>
</svg>
