<?xml version="1.0" encoding="UTF-8"?>
<!--Generator: Apple Native CoreSVG 232.5-->
<!DOCTYPE svg
PUBLIC "-//W3C//DTD SVG 1.1//EN"
       "http://www.w3.org/Graphics/SVG/1.1/DTD/svg11.dtd">
<svg version="1.1" xmlns="http://www.w3.org/2000/svg" xmlns:xlink="http://www.w3.org/1999/xlink" width="82.1289" height="104.736">
 <g>
  <rect height="104.736" opacity="0" width="82.1289" x="0" y="0"/>
  <path d="M82.1289 15.332L82.1289 89.4043C82.1289 99.6094 77.0996 104.688 66.9922 104.688L15.1367 104.688C5.0293 104.688 0 99.6094 0 89.4043L0 15.332C0 5.17578 5.0293 0 15.1367 0L66.9922 0C77.0996 0 82.1289 5.17578 82.1289 15.332ZM56.2988 33.0078L35.4004 66.4551L25.4883 53.7109C24.3164 52.0996 23.1934 51.6113 21.8262 51.6113C19.5801 51.6113 17.9199 53.418 17.9199 55.6641C17.9199 56.7383 18.3105 57.8613 19.043 58.8379L31.2988 73.8281C32.6172 75.5371 33.9355 76.2207 35.6445 76.2207C37.3047 76.2207 38.7207 75.4395 39.6973 73.8281L62.6465 37.6953C63.2812 36.7188 63.916 35.5469 63.916 34.4727C63.916 32.2266 61.9141 30.7617 59.7656 30.7617C58.4473 30.7617 57.1777 31.4941 56.2988 33.0078Z" fill="#000000" fill-opacity="0.85"/>
 </g>
</svg>
