<?xml version="1.0" encoding="UTF-8"?>
<!--Generator: Apple Native CoreSVG 232.5-->
<!DOCTYPE svg
PUBLIC "-//W3C//DTD SVG 1.1//EN"
       "http://www.w3.org/Graphics/SVG/1.1/DTD/svg11.dtd">
<svg version="1.1" xmlns="http://www.w3.org/2000/svg" xmlns:xlink="http://www.w3.org/1999/xlink" width="109.473" height="98.7793">
 <g>
  <rect height="98.7793" opacity="0" width="109.473" x="0" y="0"/>
  <path d="M56.6895 81.3965L105.713 81.3965C107.764 81.3965 109.473 79.7852 109.473 77.7344C109.473 75.6348 107.764 74.0234 105.713 74.0234L56.6895 74.0234C54.6387 74.0234 52.9785 75.6348 52.9785 77.7344C52.9785 79.7852 54.6387 81.3965 56.6895 81.3965Z" fill="#000000" fill-opacity="0.85"/>
  <path d="M21.0449 98.7793C32.5195 98.7793 42.0898 89.209 42.0898 77.7344C42.0898 66.1621 32.5195 56.6406 21.0449 56.6406C9.52148 56.6406 0 66.2109 0 77.7344C0 89.209 9.57031 98.7793 21.0449 98.7793ZM21.0449 91.6504C13.4766 91.6504 7.12891 85.2539 7.12891 77.7344C7.12891 70.166 13.5254 63.7695 21.0449 63.7695C28.5645 63.7695 34.9609 70.166 34.9609 77.7344C34.9609 85.2539 28.5645 91.6504 21.0449 91.6504Z" fill="#000000" fill-opacity="0.85"/>
  <path d="M56.6895 24.9512L105.713 24.9512C107.764 24.9512 109.473 23.3398 109.473 21.2402C109.473 19.1895 107.764 17.5781 105.713 17.5781L56.6895 17.5781C54.6387 17.5781 52.9785 19.1895 52.9785 21.2402C52.9785 23.3398 54.6387 24.9512 56.6895 24.9512Z" fill="#000000" fill-opacity="0.85"/>
  <path d="M21.0449 42.2363C32.5195 42.2363 42.0898 32.7148 42.0898 21.2402C42.0898 9.7168 32.5195 0.146484 21.0449 0.146484C9.52148 0.146484 0 9.7168 0 21.2402C0 32.7148 9.57031 42.2363 21.0449 42.2363ZM18.5547 32.5195C17.5293 32.5195 16.8457 31.9824 16.1133 31.1523L10.6445 24.5605C10.1562 24.0234 10.0098 23.4375 10.0098 22.6562C10.0098 21.2402 11.084 20.1172 12.4023 20.1172C13.3301 20.1172 14.0137 20.5078 14.6484 21.3379L18.457 26.1719L27.1484 12.207C27.7344 11.3281 28.4668 10.8398 29.3457 10.8398C30.7129 10.8398 31.8848 11.9141 31.8848 13.1348C31.8848 13.8184 31.6895 14.4043 31.25 15.1367L21.0449 31.1523C20.5078 32.0312 19.6289 32.5195 18.5547 32.5195Z" fill="#000000" fill-opacity="0.85"/>
 </g>
</svg>
