<?xml version="1.0" encoding="UTF-8"?>
<!--Generator: Apple Native CoreSVG 232.5-->
<!DOCTYPE svg
PUBLIC "-//W3C//DTD SVG 1.1//EN"
       "http://www.w3.org/Graphics/SVG/1.1/DTD/svg11.dtd">
<svg version="1.1" xmlns="http://www.w3.org/2000/svg" xmlns:xlink="http://www.w3.org/1999/xlink" width="56.3965" height="84.9121">
 <g>
  <rect height="84.9121" opacity="0" width="56.3965" x="0" y="0"/>
  <path d="M56.3965 80.3711C56.3965 79.1504 55.957 78.0762 55.0781 77.1973L16.4551 39.4043L16.4551 45.4102L55.0781 7.66602C55.957 6.83594 56.3965 5.71289 56.3965 4.49219C56.3965 1.9043 54.4434 0 51.9531 0C50.6348 0 49.6582 0.488281 48.7305 1.31836L10.0098 39.1602C9.13086 40.0391 8.59375 41.1621 8.59375 42.4316C8.59375 43.7012 9.13086 44.7754 10.0586 45.7031L48.7305 83.4961C49.6094 84.4238 50.6348 84.8633 51.9043 84.8633C54.4434 84.8633 56.3965 82.9102 56.3965 80.3711ZM8.74023 80.6152L8.74023 4.3457C8.74023 1.80664 6.93359 0 4.3457 0C1.80664 0 0 1.80664 0 4.3457L0 80.6152C0 83.1055 1.80664 84.8633 4.3457 84.8633C6.93359 84.8633 8.74023 83.1055 8.74023 80.6152Z" fill="#000000" fill-opacity="0.85"/>
 </g>
</svg>
