<?xml version="1.0" encoding="UTF-8"?>
<!--Generator: Apple Native CoreSVG 232.5-->
<!DOCTYPE svg
PUBLIC "-//W3C//DTD SVG 1.1//EN"
       "http://www.w3.org/Graphics/SVG/1.1/DTD/svg11.dtd">
<svg version="1.1" xmlns="http://www.w3.org/2000/svg" xmlns:xlink="http://www.w3.org/1999/xlink" width="60.1562" height="84.8145">
 <g>
  <rect height="84.8145" opacity="0" width="60.1562" x="0" y="0"/>
  <path d="M0 42.3828C0 43.6035 0.439453 44.6777 1.36719 45.6055L40.0879 83.4473C40.918 84.3262 41.9922 84.7656 43.2617 84.7656C45.8008 84.7656 47.7539 82.8613 47.7539 80.3223C47.7539 79.0527 47.2168 77.9785 46.4355 77.1484L10.8887 42.3828L46.4355 7.61719C47.2168 6.78711 47.7539 5.66406 47.7539 4.44336C47.7539 1.9043 45.8008 0 43.2617 0C41.9922 0 40.918 0.439453 40.0879 1.26953L1.36719 39.1602C0.439453 40.0391 0 41.1621 0 42.3828Z" fill="#000000" fill-opacity="0.85"/>
 </g>
</svg>
