<?xml version="1.0" encoding="UTF-8"?>
<!--Generator: Apple Native CoreSVG 232.5-->
<!DOCTYPE svg
PUBLIC "-//W3C//DTD SVG 1.1//EN"
       "http://www.w3.org/Graphics/SVG/1.1/DTD/svg11.dtd">
<svg version="1.1" xmlns="http://www.w3.org/2000/svg" xmlns:xlink="http://www.w3.org/1999/xlink" width="91.4062" height="84.9121">
 <g>
  <rect height="84.9121" opacity="0" width="91.4062" x="0" y="0"/>
  <path d="M48.0957 84.8145C49.3652 84.8145 50.4395 84.3262 51.2695 83.4961L89.9414 45.7031C90.8691 44.7754 91.4062 43.6523 91.4062 42.4316C91.4062 41.1621 90.8691 39.9414 89.9414 39.1602L51.2695 1.31836C50.3906 0.488281 49.3652 0 48.0957 0C45.5566 0 43.6035 1.95312 43.6035 4.49219C43.6035 5.66406 44.1406 6.83594 44.9219 7.66602L83.1055 45.0195L83.1055 39.7949L44.9219 77.1973C44.1406 78.0273 43.6035 79.1504 43.6035 80.3711C43.6035 82.9102 45.5566 84.8145 48.0957 84.8145Z" fill="#000000" fill-opacity="0.85"/>
  <path d="M4.44336 84.8145C5.71289 84.8145 6.78711 84.3262 7.66602 83.4961L46.3379 45.7031C47.2656 44.7754 47.7539 43.6523 47.7539 42.4316C47.7539 41.1621 47.2656 39.9414 46.3379 39.1602L7.61719 1.31836C6.78711 0.488281 5.71289 0 4.44336 0C1.9043 0 0 1.95312 0 4.49219C0 5.66406 0.488281 6.83594 1.26953 7.66602L39.502 45.0195L39.502 39.7949L1.26953 77.1973C0.488281 78.0273 0 79.1504 0 80.3711C0 82.9102 1.9043 84.8145 4.44336 84.8145Z" fill="#000000" fill-opacity="0.85"/>
 </g>
</svg>
