<?xml version="1.0" encoding="UTF-8"?>
<!--Generator: Apple Native CoreSVG 232.5-->
<!DOCTYPE svg
PUBLIC "-//W3C//DTD SVG 1.1//EN"
       "http://www.w3.org/Graphics/SVG/1.1/DTD/svg11.dtd">
<svg version="1.1" xmlns="http://www.w3.org/2000/svg" xmlns:xlink="http://www.w3.org/1999/xlink" width="99.6094" height="99.6582">
 <g>
  <rect height="99.6582" opacity="0" width="99.6094" x="0" y="0"/>
  <path d="M49.8047 99.6094C77.0508 99.6094 99.6094 77.002 99.6094 49.8047C99.6094 22.5586 77.002 0 49.7559 0C22.5586 0 0 22.5586 0 49.8047C0 77.002 22.6074 99.6094 49.8047 99.6094ZM49.8047 91.3086C26.7578 91.3086 8.34961 72.8516 8.34961 49.8047C8.34961 26.7578 26.709 8.30078 49.7559 8.30078C72.8027 8.30078 91.3086 26.7578 91.3086 49.8047C91.3086 72.8516 72.8516 91.3086 49.8047 91.3086Z" fill="#000000" fill-opacity="0.85"/>
  <path d="M25.6836 61.1328C27.1484 62.6953 29.541 62.6953 30.9082 61.2305L49.8047 41.2109L68.7012 61.2305C70.1172 62.6953 72.5098 62.6953 73.9258 61.1328C75.293 59.8145 75.2441 57.5195 73.7793 56.0059L54.6387 35.6445C51.5625 32.4219 48.0469 32.4219 45.0195 35.6445L25.8301 56.0059C24.3652 57.5195 24.3164 59.8145 25.6836 61.1328Z" fill="#000000" fill-opacity="0.85"/>
 </g>
</svg>
