<?xml version="1.0" encoding="UTF-8"?>
<!--Generator: Apple Native CoreSVG 232.5-->
<!DOCTYPE svg
PUBLIC "-//W3C//DTD SVG 1.1//EN"
       "http://www.w3.org/Graphics/SVG/1.1/DTD/svg11.dtd">
<svg version="1.1" xmlns="http://www.w3.org/2000/svg" xmlns:xlink="http://www.w3.org/1999/xlink" width="136.865" height="92.481">
 <g>
  <rect height="92.481" opacity="0" width="136.865" x="0" y="0"/>
  <path d="M55.0781 92.3098C57.666 92.9934 60.0098 91.5774 60.791 88.9895L85.1074 5.63991C85.791 3.29616 84.668 0.952409 82.0801 0.268816C79.541-0.414778 77.3438 0.561784 76.4648 3.58913L52.2949 86.4993C51.5137 89.136 52.3438 91.5774 55.0781 92.3098Z" fill="#000000" fill-opacity="0.85"/>
  <path d="M0 46.2161C0 47.5833 0.585938 48.9016 1.70898 49.8782L34.3262 79.3215C36.377 81.177 39.1113 81.177 40.8203 79.2727C42.5293 77.3196 42.2363 74.5852 40.2832 72.8274L10.9375 46.2161L40.2832 19.6048C42.2363 17.8469 42.5293 15.0637 40.8203 13.1594C39.1113 11.2551 36.377 11.2551 34.3262 13.1106L1.70898 42.5051C0.585938 43.5305 0 44.8489 0 46.2161ZM136.865 46.2161C136.865 44.8489 136.328 43.5305 135.205 42.5051L102.588 13.1106C100.488 11.2551 97.8027 11.2551 96.0938 13.1594C94.3848 15.0637 94.6289 17.8469 96.582 19.6048L125.977 46.2161L96.582 72.8274C94.6289 74.5852 94.3848 77.3196 96.0938 79.2727C97.8027 81.177 100.488 81.177 102.588 79.3215L135.205 49.8782C136.328 48.9016 136.865 47.5833 136.865 46.2161Z" fill="#000000" fill-opacity="0.85"/>
 </g>
</svg>
