<?xml version="1.0" encoding="UTF-8"?>
<!--Generator: Apple Native CoreSVG 232.5-->
<!DOCTYPE svg
PUBLIC "-//W3C//DTD SVG 1.1//EN"
       "http://www.w3.org/Graphics/SVG/1.1/DTD/svg11.dtd">
<svg version="1.1" xmlns="http://www.w3.org/2000/svg" xmlns:xlink="http://www.w3.org/1999/xlink" width="84.8145" height="52.002">
 <g>
  <rect height="52.002" opacity="0" width="84.8145" x="0" y="0"/>
  <path d="M42.4316 52.002C43.6523 52.002 44.873 51.5137 45.7031 50.5859L83.4961 11.8652C84.3262 11.0352 84.8145 9.96094 84.8145 8.74023C84.8145 6.20117 82.9102 4.24805 80.3711 4.24805C79.1504 4.24805 78.0273 4.73633 77.1973 5.51758L39.7949 43.75L45.0195 43.75L7.61719 5.51758C6.83594 4.73633 5.71289 4.24805 4.44336 4.24805C1.9043 4.24805 0 6.20117 0 8.74023C0 9.96094 0.488281 11.0352 1.31836 11.9141L39.1113 50.5859C40.0391 51.5137 41.1621 52.002 42.4316 52.002Z" fill="#000000" fill-opacity="0.85"/>
 </g>
</svg>
