<?xml version="1.0" encoding="UTF-8"?>
<!--Generator: Apple Native CoreSVG 232.5-->
<!DOCTYPE svg
PUBLIC "-//W3C//DTD SVG 1.1//EN"
       "http://www.w3.org/Graphics/SVG/1.1/DTD/svg11.dtd">
<svg version="1.1" xmlns="http://www.w3.org/2000/svg" xmlns:xlink="http://www.w3.org/1999/xlink" width="24.2676" height="87.3535">
 <g>
  <rect height="87.3535" opacity="0" width="24.2676" x="0" y="0"/>
  <path d="M9.22852 83.9355L22.3145 50.6348C23.1934 48.3887 24.2676 45.6543 24.2676 43.5059C24.2676 41.3574 23.1934 38.623 22.3145 36.377L9.22852 3.07617C8.49609 1.17188 6.83594 0 5.0293 0C2.14844 0 0 2.09961 0 4.93164C0 6.34766 0.830078 8.30078 1.26953 9.57031L15.9668 46.9727L15.9668 40.0391L1.26953 77.4414C0.830078 78.7109 0 80.6152 0 82.0801C0 84.9609 2.14844 87.0605 5.0293 87.0605C6.83594 87.0605 8.49609 85.8398 9.22852 83.9355Z" fill="#000000" fill-opacity="0.85"/>
 </g>
</svg>
