<?xml version="1.0" encoding="UTF-8"?>
<!--Generator: Apple Native CoreSVG 232.5-->
<!DOCTYPE svg
PUBLIC "-//W3C//DTD SVG 1.1//EN"
       "http://www.w3.org/Graphics/SVG/1.1/DTD/svg11.dtd">
<svg version="1.1" xmlns="http://www.w3.org/2000/svg" xmlns:xlink="http://www.w3.org/1999/xlink" width="24.2676" height="87.3535">
 <g>
  <rect height="87.3535" opacity="0" width="24.2676" x="0" y="0"/>
  <path d="M15.0391 83.9355C15.7715 85.8398 17.4316 87.0605 19.1895 87.0605C22.0703 87.0605 24.2676 84.9609 24.2676 82.0801C24.2676 80.6152 23.4375 78.7109 22.9492 77.4414L8.25195 40.0391L8.25195 46.9727L22.9492 9.57031C23.4375 8.30078 24.2676 6.34766 24.2676 4.93164C24.2676 2.09961 22.0703 0 19.1895 0C17.4316 0 15.7715 1.17188 15.0391 3.07617L1.95312 36.377C1.07422 38.623 0 41.3574 0 43.5059C0 45.6543 1.07422 48.3887 1.95312 50.6348Z" fill="#000000" fill-opacity="0.85"/>
 </g>
</svg>
