<?xml version="1.0" encoding="UTF-8"?>
<!--Generator: Apple Native CoreSVG 232.5-->
<!DOCTYPE svg
PUBLIC "-//W3C//DTD SVG 1.1//EN"
       "http://www.w3.org/Graphics/SVG/1.1/DTD/svg11.dtd">
<svg version="1.1" xmlns="http://www.w3.org/2000/svg" xmlns:xlink="http://www.w3.org/1999/xlink" width="99.6094" height="99.6582">
 <g>
  <rect height="99.6582" opacity="0" width="99.6094" x="0" y="0"/>
  <path d="M49.8047 99.6094C77.0508 99.6094 99.6094 77.002 99.6094 49.8047C99.6094 22.5586 77.002 0 49.7559 0C22.5586 0 0 22.5586 0 49.8047C0 77.002 22.6074 99.6094 49.8047 99.6094ZM49.8047 91.3086C26.7578 91.3086 8.34961 72.8516 8.34961 49.8047C8.34961 26.7578 26.709 8.30078 49.7559 8.30078C72.8027 8.30078 91.3086 26.7578 91.3086 49.8047C91.3086 72.8516 72.8516 91.3086 49.8047 91.3086Z" fill="#000000" fill-opacity="0.85"/>
  <path d="M59.4238 73.9746C60.9375 72.4609 60.8887 70.1172 59.4727 68.75L39.4043 49.8047L59.4727 30.957C60.9375 29.5898 60.8887 27.1484 59.375 25.7324C58.0078 24.4141 55.7617 24.4629 54.248 25.8789L33.9355 45.0684C31.1523 47.6074 31.1523 52.0996 33.9355 54.6387L54.248 73.8281C55.6152 75.0977 58.1543 75.1953 59.4238 73.9746Z" fill="#000000" fill-opacity="0.85"/>
 </g>
</svg>
