<?xml version="1.0" encoding="UTF-8"?>
<!--Generator: Apple Native CoreSVG 232.5-->
<!DOCTYPE svg
PUBLIC "-//W3C//DTD SVG 1.1//EN"
       "http://www.w3.org/Graphics/SVG/1.1/DTD/svg11.dtd">
<svg version="1.1" xmlns="http://www.w3.org/2000/svg" xmlns:xlink="http://www.w3.org/1999/xlink" width="89.8926" height="89.9902">
 <g>
  <rect height="89.9902" opacity="0" width="89.8926" x="0" y="0"/>
  <path d="M89.8926 15.2344L89.8926 74.8535C89.8926 84.9121 84.8145 89.9902 74.5605 89.9902L15.332 89.9902C5.12695 89.9902 0 84.9609 0 74.8535L0 15.2344C0 5.12695 5.12695 0.0976562 15.332 0.0976562L74.5605 0.0976562C84.8145 0.0976562 89.8926 5.17578 89.8926 15.2344ZM39.9902 30.4199L20.3125 51.416C18.75 52.9785 18.7012 55.3711 20.1172 56.7383C21.6797 58.3496 24.0723 58.3496 25.5371 56.8359L45.0195 36.1816L64.502 56.8359C65.918 58.3496 68.3594 58.3496 69.9219 56.7383C71.3379 55.3711 71.2891 52.9785 69.7266 51.416L50.0488 30.4199C46.8262 27.0996 43.1641 27.0996 39.9902 30.4199Z" fill="#000000" fill-opacity="0.85"/>
 </g>
</svg>
