<?xml version="1.0" encoding="UTF-8"?>
<!--Generator: Apple Native CoreSVG 232.5-->
<!DOCTYPE svg
PUBLIC "-//W3C//DTD SVG 1.1//EN"
       "http://www.w3.org/Graphics/SVG/1.1/DTD/svg11.dtd">
<svg version="1.1" xmlns="http://www.w3.org/2000/svg" xmlns:xlink="http://www.w3.org/1999/xlink" width="87.0605" height="24.7559">
 <g>
  <rect height="24.7559" opacity="0" width="87.0605" x="0" y="0"/>
  <path d="M3.07617 14.9902C1.2207 15.7227 0 17.3828 0 19.1406C0 22.0215 2.09961 24.2188 4.93164 24.2188C6.44531 24.2188 8.34961 23.3887 9.57031 22.9004L46.9727 8.25195L40.0879 8.25195L77.4902 22.9004C78.7109 23.3887 80.6641 24.2188 82.1289 24.2188C84.9609 24.2188 87.0605 22.0215 87.0605 19.1406C87.0605 17.3828 85.8398 15.7227 83.9844 14.9902L50.6836 1.95312C48.4375 1.07422 45.7031 0 43.5547 0C41.3574 0 38.6719 1.07422 36.4258 1.95312Z" fill="#000000" fill-opacity="0.85"/>
 </g>
</svg>
