<?xml version="1.0" encoding="UTF-8"?>
<!--Generator: Apple Native CoreSVG 232.5-->
<!DOCTYPE svg
PUBLIC "-//W3C//DTD SVG 1.1//EN"
       "http://www.w3.org/Graphics/SVG/1.1/DTD/svg11.dtd">
<svg version="1.1" xmlns="http://www.w3.org/2000/svg" xmlns:xlink="http://www.w3.org/1999/xlink" width="60.2539" height="84.8145">
 <g>
  <rect height="84.8145" opacity="0" width="60.2539" x="0" y="0"/>
  <path d="M60.2539 42.3828C60.2539 41.1621 59.7656 40.0391 58.8379 39.1602L20.166 1.26953C19.2871 0.439453 18.2129 0 16.9434 0C14.4531 0 12.5 1.9043 12.5 4.44336C12.5 5.66406 12.9883 6.78711 13.7695 7.61719L49.3164 42.3828L13.7695 77.1484C12.9883 77.9785 12.5 79.0527 12.5 80.3223C12.5 82.8613 14.4531 84.7656 16.9434 84.7656C18.2129 84.7656 19.2871 84.3262 20.166 83.4473L58.8379 45.6055C59.7656 44.6777 60.2539 43.6035 60.2539 42.3828Z" fill="#000000" fill-opacity="0.85"/>
 </g>
</svg>
