<?xml version="1.0" encoding="UTF-8"?>
<!--Generator: Apple Native CoreSVG 232.5-->
<!DOCTYPE svg
PUBLIC "-//W3C//DTD SVG 1.1//EN"
       "http://www.w3.org/Graphics/SVG/1.1/DTD/svg11.dtd">
<svg version="1.1" xmlns="http://www.w3.org/2000/svg" xmlns:xlink="http://www.w3.org/1999/xlink" width="99.6094" height="99.6582">
 <g>
  <rect height="99.6582" opacity="0" width="99.6094" x="0" y="0"/>
  <path d="M49.8047 99.6094C77.0508 99.6094 99.6094 77.002 99.6094 49.8047C99.6094 22.5586 77.002 0 49.7559 0C22.5586 0 0 22.5586 0 49.8047C0 77.002 22.6074 99.6094 49.8047 99.6094ZM49.8047 91.3086C26.7578 91.3086 8.34961 72.8516 8.34961 49.8047C8.34961 26.7578 26.709 8.30078 49.7559 8.30078C72.8027 8.30078 91.3086 26.7578 91.3086 49.8047C91.3086 72.8516 72.8516 91.3086 49.8047 91.3086Z" fill="#000000" fill-opacity="0.85"/>
  <path d="M38.6719 73.9746C39.9414 75.1953 42.4805 75.0977 43.8477 73.8281L64.1602 54.6387C66.9434 52.0996 66.9434 47.6074 64.1602 45.0684L43.8477 25.8789C42.334 24.4629 40.0879 24.4141 38.7207 25.7324C37.1582 27.1484 37.1094 29.5898 38.623 30.957L58.6914 49.8047L38.623 68.75C37.1582 70.1172 37.1582 72.4609 38.6719 73.9746Z" fill="#000000" fill-opacity="0.85"/>
 </g>
</svg>
