<?xml version="1.0" encoding="UTF-8"?>
<!--Generator: Apple Native CoreSVG 232.5-->
<!DOCTYPE svg
PUBLIC "-//W3C//DTD SVG 1.1//EN"
       "http://www.w3.org/Graphics/SVG/1.1/DTD/svg11.dtd">
<svg version="1.1" xmlns="http://www.w3.org/2000/svg" xmlns:xlink="http://www.w3.org/1999/xlink" width="89.8926" height="89.9902">
 <g>
  <rect height="89.9902" opacity="0" width="89.8926" x="0" y="0"/>
  <path d="M89.8926 15.2344L89.8926 74.8535C89.8926 84.9121 84.8145 89.9902 74.5605 89.9902L15.332 89.9902C5.12695 89.9902 0 84.9609 0 74.8535L0 15.2344C0 5.12695 5.12695 0.0976562 15.332 0.0976562L74.5605 0.0976562C84.8145 0.0976562 89.8926 5.17578 89.8926 15.2344ZM49.4629 21.0449L29.1504 40.2344C26.3672 42.7734 26.3672 47.2656 29.1504 49.8047L49.4629 68.9941C50.8301 70.2637 53.3691 70.3613 54.6387 69.1406C56.1523 67.627 56.1035 65.2832 54.6875 63.916L34.6191 44.9707L54.6875 26.123C56.1523 24.7559 56.1035 22.3145 54.5898 20.8984C53.2227 19.5801 50.9766 19.6289 49.4629 21.0449Z" fill="#000000" fill-opacity="0.85"/>
 </g>
</svg>
