<?xml version="1.0" encoding="UTF-8"?>
<!--Generator: Apple Native CoreSVG 232.5-->
<!DOCTYPE svg
PUBLIC "-//W3C//DTD SVG 1.1//EN"
       "http://www.w3.org/Graphics/SVG/1.1/DTD/svg11.dtd">
<svg version="1.1" xmlns="http://www.w3.org/2000/svg" xmlns:xlink="http://www.w3.org/1999/xlink" width="66.9922" height="90.4785">
 <g>
  <rect height="90.4785" opacity="0" width="66.9922" x="0" y="0"/>
  <path d="M33.4961 90.4297C36.2305 90.4297 38.0859 88.4766 38.0859 85.6934L38.0859 52.1973L66.0156 7.17773C66.748 6.05469 66.9922 5.17578 66.9922 4.10156C66.9922 1.75781 65.0391 0 62.4512 0C60.6934 0 59.3262 0.732422 58.3496 2.44141L33.6914 43.75L33.3496 43.75L8.69141 2.44141C7.66602 0.732422 6.29883 0 4.54102 0C2.00195 0 0 1.75781 0 4.10156C0 5.17578 0.292969 6.05469 0.976562 7.17773L28.9551 52.1973L28.9551 85.6934C28.9551 88.4766 30.8105 90.4297 33.4961 90.4297ZM10.0586 53.3203L57.373 53.3203C59.2285 53.3203 60.4492 51.9531 60.4492 50.1465C60.4492 48.3398 59.2285 46.9727 57.373 46.9727L10.0586 46.9727C8.20312 46.9727 6.98242 48.3398 6.98242 50.1465C6.98242 51.9531 8.20312 53.3203 10.0586 53.3203ZM10.0586 70.0684L57.373 70.0684C59.2285 70.0684 60.4492 68.7012 60.4492 66.8945C60.4492 65.0879 59.2773 63.6719 57.373 63.6719L10.0586 63.6719C8.20312 63.6719 6.98242 65.0879 6.98242 66.8945C6.98242 68.6523 8.20312 70.0684 10.0586 70.0684Z" fill="#000000" fill-opacity="0.85"/>
 </g>
</svg>
