<?xml version="1.0" encoding="UTF-8"?>
<!--Generator: Apple Native CoreSVG 232.5-->
<!DOCTYPE svg
PUBLIC "-//W3C//DTD SVG 1.1//EN"
       "http://www.w3.org/Graphics/SVG/1.1/DTD/svg11.dtd">
<svg version="1.1" xmlns="http://www.w3.org/2000/svg" xmlns:xlink="http://www.w3.org/1999/xlink" width="89.8926" height="89.9902">
 <g>
  <rect height="89.9902" opacity="0" width="89.8926" x="0" y="0"/>
  <path d="M15.332 89.9902L74.5605 89.9902C84.8145 89.9902 89.8926 84.9121 89.8926 74.8535L89.8926 15.2344C89.8926 5.17578 84.8145 0.0976562 74.5605 0.0976562L15.332 0.0976562C5.12695 0.0976562 0 5.12695 0 15.2344L0 74.8535C0 84.9609 5.12695 89.9902 15.332 89.9902ZM15.4297 82.1289C10.5469 82.1289 7.86133 79.541 7.86133 74.4629L7.86133 15.625C7.86133 10.5469 10.5469 7.95898 15.4297 7.95898L74.4629 7.95898C79.2969 7.95898 82.0312 10.5469 82.0312 15.625L82.0312 74.4629C82.0312 79.541 79.2969 82.1289 74.4629 82.1289Z" fill="#000000" fill-opacity="0.85"/>
  <path d="M45.0195 69.6777C46.8262 69.6777 48.0957 68.4082 48.0957 66.4551L48.0957 59.375L57.1777 59.375C58.5938 59.375 59.5215 58.3008 59.5215 56.9336C59.5215 55.5664 58.5938 54.541 57.1777 54.541L48.0957 54.541L48.0957 50.7812L57.1777 50.7812C58.5938 50.7812 59.5215 49.7559 59.5215 48.3887C59.5215 46.9727 58.5938 45.9473 57.1777 45.9473L50.3418 45.9473L62.207 26.8555C62.6465 26.1719 62.8418 25.5859 62.8418 24.8535C62.8418 23.2422 61.4746 21.9727 59.7168 21.9727C58.5449 21.9727 57.666 22.4609 56.9824 23.584L45.0195 43.6523L33.0566 23.5352C32.373 22.4121 31.4941 21.9238 30.3223 21.9238C28.5645 21.9238 27.1973 23.1934 27.1973 24.8047C27.1973 25.5371 27.3926 26.123 27.7832 26.8066L39.6973 45.9473L33.0078 45.9473C31.5918 45.9473 30.6641 46.9727 30.6641 48.3887C30.6641 49.7559 31.6406 50.7812 33.0078 50.7812L41.9434 50.7812L41.9434 54.541L33.0078 54.541C31.5918 54.541 30.6641 55.5664 30.6641 56.9336C30.6641 58.3008 31.6406 59.375 33.0078 59.375L41.9434 59.375L41.9434 66.4062C41.9434 68.3594 43.2129 69.6777 45.0195 69.6777Z" fill="#000000" fill-opacity="0.85"/>
 </g>
</svg>
