<?xml version="1.0" encoding="UTF-8"?>
<!--Generator: Apple Native CoreSVG 232.5-->
<!DOCTYPE svg
PUBLIC "-//W3C//DTD SVG 1.1//EN"
       "http://www.w3.org/Graphics/SVG/1.1/DTD/svg11.dtd">
<svg version="1.1" xmlns="http://www.w3.org/2000/svg" xmlns:xlink="http://www.w3.org/1999/xlink" width="96.2891" height="92.7246">
 <g>
  <rect height="92.7246" opacity="0" width="96.2891" x="0" y="0"/>
  <path d="M75.0488 92.7246C86.7188 92.7246 96.2891 83.1055 96.2891 71.4355C96.2891 59.8145 86.7188 50.1953 75.0488 50.1953C63.2812 50.1953 53.7598 59.8145 53.7598 71.4355C53.7598 83.1055 63.2812 92.7246 75.0488 92.7246ZM75.0488 85.0586C67.334 85.0586 61.377 79.1016 61.377 71.4355C61.377 63.8672 67.334 57.666 75.0488 57.666C82.666 57.666 88.6719 63.8672 88.6719 71.4355C88.6719 79.1016 82.666 85.0586 75.0488 85.0586Z" fill="#000000" fill-opacity="0.85"/>
  <path d="M21.2891 92.7246C32.959 92.7246 42.5781 83.1055 42.5781 71.4355C42.5781 59.8145 32.959 50.1953 21.2891 50.1953C9.52148 50.1953 0 59.8145 0 71.4355C0 83.1055 9.52148 92.7246 21.2891 92.7246ZM21.2891 85.0586C13.623 85.0586 7.61719 79.1016 7.61719 71.4355C7.61719 63.8672 13.623 57.666 21.2891 57.666C28.9062 57.666 34.9121 63.8672 34.9121 71.4355C34.9121 79.1016 28.9062 85.0586 21.2891 85.0586Z" fill="#000000" fill-opacity="0.85"/>
  <path d="M75.0488 42.5293C86.7188 42.5293 96.2891 32.9102 96.2891 21.2402C96.2891 9.57031 86.7188 0 75.0488 0C63.2812 0 53.7598 9.57031 53.7598 21.2402C53.7598 32.9102 63.2812 42.5293 75.0488 42.5293ZM75.0488 34.8145C67.334 34.8145 61.377 28.8574 61.377 21.2402C61.377 13.623 67.334 7.4707 75.0488 7.4707C82.666 7.4707 88.6719 13.623 88.6719 21.2402C88.6719 28.8574 82.666 34.8145 75.0488 34.8145Z" fill="#000000" fill-opacity="0.85"/>
  <path d="M21.2891 42.5293C32.959 42.5293 42.5781 32.9102 42.5781 21.2402C42.5781 9.57031 32.959 0 21.2891 0C9.52148 0 0 9.57031 0 21.2402C0 32.9102 9.52148 42.5293 21.2891 42.5293ZM21.2891 34.8145C13.623 34.8145 7.61719 28.8574 7.61719 21.2402C7.61719 13.623 13.623 7.4707 21.2891 7.4707C28.9062 7.4707 34.9121 13.623 34.9121 21.2402C34.9121 28.8574 28.9062 34.8145 21.2891 34.8145Z" fill="#000000" fill-opacity="0.85"/>
 </g>
</svg>
