<?xml version="1.0" encoding="UTF-8"?>
<!--Generator: Apple Native CoreSVG 232.5-->
<!DOCTYPE svg
PUBLIC "-//W3C//DTD SVG 1.1//EN"
       "http://www.w3.org/Graphics/SVG/1.1/DTD/svg11.dtd">
<svg version="1.1" xmlns="http://www.w3.org/2000/svg" xmlns:xlink="http://www.w3.org/1999/xlink" width="99.3652" height="98.9746">
 <g>
  <rect height="98.9746" opacity="0" width="99.3652" x="0" y="0"/>
  <path d="M49.707 8.39844C52.002 8.39844 53.9062 6.49414 53.9062 4.19922C53.9062 1.9043 52.002 0 49.707 0C47.4121 0 45.5078 1.9043 45.5078 4.19922C45.5078 6.49414 47.4121 8.39844 49.707 8.39844ZM63.6719 10.6934C65.9668 10.6934 67.8711 8.78906 67.8711 6.49414C67.8711 4.19922 65.9668 2.29492 63.6719 2.29492C61.377 2.29492 59.4727 4.19922 59.4727 6.49414C59.4727 8.78906 61.377 10.6934 63.6719 10.6934ZM76.3672 17.0898C78.6621 17.0898 80.5664 15.1855 80.5664 12.8906C80.5664 10.5957 78.6621 8.69141 76.3672 8.69141C74.0723 8.69141 72.168 10.5957 72.168 12.8906C72.168 15.1855 74.0723 17.0898 76.3672 17.0898ZM86.377 27.1484C88.6719 27.1484 90.5762 25.2441 90.5762 22.9492C90.5762 20.6543 88.6719 18.75 86.377 18.75C84.082 18.75 82.1777 20.6543 82.1777 22.9492C82.1777 25.2441 84.082 27.1484 86.377 27.1484ZM92.7734 39.6484C95.0684 39.6484 96.9727 37.7441 96.9727 35.4492C96.9727 33.1543 95.0684 31.25 92.7734 31.25C90.4785 31.25 88.5742 33.1543 88.5742 35.4492C88.5742 37.7441 90.4785 39.6484 92.7734 39.6484ZM95.166 53.6621C97.4609 53.6621 99.3652 51.7578 99.3652 49.4629C99.3652 47.168 97.4609 45.2637 95.166 45.2637C92.8711 45.2637 90.9668 47.168 90.9668 49.4629C90.9668 51.7578 92.8711 53.6621 95.166 53.6621ZM92.7734 67.6758C95.0684 67.6758 96.9727 65.7715 96.9727 63.4766C96.9727 61.1816 95.0684 59.2773 92.7734 59.2773C90.4785 59.2773 88.5742 61.1816 88.5742 63.4766C88.5742 65.7715 90.4785 67.6758 92.7734 67.6758ZM86.377 80.2246C88.6719 80.2246 90.5762 78.3203 90.5762 76.0254C90.5762 73.7305 88.6719 71.8262 86.377 71.8262C84.082 71.8262 82.1777 73.7305 82.1777 76.0254C82.1777 78.3203 84.082 80.2246 86.377 80.2246ZM76.3672 90.2344C78.6621 90.2344 80.5664 88.3301 80.5664 86.0352C80.5664 83.7402 78.6621 81.8359 76.3672 81.8359C74.0723 81.8359 72.168 83.7402 72.168 86.0352C72.168 88.3301 74.0723 90.2344 76.3672 90.2344ZM63.6719 96.6309C65.9668 96.6309 67.8711 94.7266 67.8711 92.4316C67.8711 90.1367 65.9668 88.2324 63.6719 88.2324C61.377 88.2324 59.4727 90.1367 59.4727 92.4316C59.4727 94.7266 61.377 96.6309 63.6719 96.6309ZM49.707 98.9258C52.002 98.9258 53.9062 97.0215 53.9062 94.7266C53.9062 92.4316 52.002 90.5273 49.707 90.5273C47.4121 90.5273 45.5078 92.4316 45.5078 94.7266C45.5078 97.0215 47.4121 98.9258 49.707 98.9258ZM35.7422 96.6309C38.0371 96.6309 39.9414 94.7266 39.9414 92.4316C39.9414 90.1367 38.0371 88.2324 35.7422 88.2324C33.3984 88.2324 31.543 90.1367 31.543 92.4316C31.543 94.7266 33.3984 96.6309 35.7422 96.6309ZM23.0469 90.2344C25.3418 90.2344 27.2461 88.3301 27.2461 86.0352C27.2461 83.7402 25.3418 81.8359 23.0469 81.8359C20.7031 81.8359 18.8477 83.7402 18.8477 86.0352C18.8477 88.3301 20.7031 90.2344 23.0469 90.2344ZM12.9883 80.2246C15.2832 80.2246 17.1875 78.3203 17.1875 76.0254C17.1875 73.7305 15.2832 71.8262 12.9883 71.8262C10.6934 71.8262 8.78906 73.7305 8.78906 76.0254C8.78906 78.3203 10.6934 80.2246 12.9883 80.2246ZM6.5918 67.6758C8.88672 67.6758 10.791 65.7715 10.791 63.4766C10.791 61.1816 8.88672 59.2773 6.5918 59.2773C4.29688 59.2773 2.39258 61.1816 2.39258 63.4766C2.39258 65.7715 4.29688 67.6758 6.5918 67.6758ZM4.19922 53.6621C6.49414 53.6621 8.39844 51.7578 8.39844 49.4629C8.39844 47.168 6.49414 45.2637 4.19922 45.2637C1.9043 45.2637 0 47.168 0 49.4629C0 51.7578 1.9043 53.6621 4.19922 53.6621ZM6.5918 39.6484C8.88672 39.6484 10.791 37.7441 10.791 35.4492C10.791 33.1543 8.88672 31.25 6.5918 31.25C4.29688 31.25 2.39258 33.1543 2.39258 35.4492C2.39258 37.7441 4.29688 39.6484 6.5918 39.6484ZM12.9883 27.1484C15.2832 27.1484 17.1875 25.2441 17.1875 22.9492C17.1875 20.6543 15.2832 18.75 12.9883 18.75C10.6934 18.75 8.78906 20.6543 8.78906 22.9492C8.78906 25.2441 10.6934 27.1484 12.9883 27.1484ZM23.0469 17.0898C25.3418 17.0898 27.2461 15.1855 27.2461 12.8906C27.2461 10.5957 25.3418 8.69141 23.0469 8.69141C20.7031 8.69141 18.8477 10.5957 18.8477 12.8906C18.8477 15.1855 20.7031 17.0898 23.0469 17.0898ZM35.7422 10.6934C38.0371 10.6934 39.9414 8.78906 39.9414 6.49414C39.9414 4.19922 38.0371 2.29492 35.7422 2.29492C33.3984 2.29492 31.543 4.19922 31.543 6.49414C31.543 8.78906 33.3984 10.6934 35.7422 10.6934Z" fill="#000000" fill-opacity="0.85"/>
 </g>
</svg>
