<?xml version="1.0" encoding="UTF-8"?>
<!--Generator: Apple Native CoreSVG 232.5-->
<!DOCTYPE svg
PUBLIC "-//W3C//DTD SVG 1.1//EN"
       "http://www.w3.org/Graphics/SVG/1.1/DTD/svg11.dtd">
<svg version="1.1" xmlns="http://www.w3.org/2000/svg" xmlns:xlink="http://www.w3.org/1999/xlink" width="136.816" height="99.6582">
 <g>
  <rect height="99.6582" opacity="0" width="136.816" x="0" y="0"/>
  <path d="M0 49.8047C0 47.7051 1.70898 45.9473 3.75977 45.9473L133.057 45.9473C135.107 45.9473 136.816 47.7051 136.816 49.8047C136.816 51.9043 135.107 53.7109 133.057 53.7109L3.75977 53.7109C1.70898 53.7109 0 51.9043 0 49.8047ZM68.457 99.6094C95.6543 99.6094 118.262 77.002 118.262 49.8047C118.262 22.5586 95.6055 0 68.4082 0C41.1621 0 18.6523 22.5586 18.6523 49.8047C18.6523 77.002 41.2109 99.6094 68.457 99.6094Z" fill="#000000" fill-opacity="0.85"/>
 </g>
</svg>
