<?xml version="1.0" encoding="UTF-8"?>
<!--Generator: Apple Native CoreSVG 232.5-->
<!DOCTYPE svg
PUBLIC "-//W3C//DTD SVG 1.1//EN"
       "http://www.w3.org/Graphics/SVG/1.1/DTD/svg11.dtd">
<svg version="1.1" xmlns="http://www.w3.org/2000/svg" xmlns:xlink="http://www.w3.org/1999/xlink" width="99.6094" height="99.6582">
 <g>
  <rect height="99.6582" opacity="0" width="99.6094" x="0" y="0"/>
  <path d="M49.7559 2.44141L49.7559 6.64062L61.9629 6.64062C58.0078 4.98047 53.9062 3.56445 49.7559 2.44141ZM49.7559 10.1074L49.7559 15.1855L74.9512 15.1855C74.3164 13.3789 73.584 11.6699 72.8027 10.1074ZM49.7559 20.6055L49.7559 25.6348L85.8887 25.6348C85.5469 23.9258 85.1562 22.2168 84.7168 20.6055ZM49.7559 31.0547L49.7559 36.1328L93.5547 36.1328C93.4082 34.4238 93.2129 32.7148 92.9688 31.0547ZM49.7559 41.5527L49.7559 46.582L93.8965 46.582C93.8477 44.9219 93.7988 43.2129 93.7012 41.5527ZM49.7559 52.002L49.7559 57.0801L93.7012 57.0801C93.7988 55.4199 93.8477 53.7109 93.8965 52.002ZM49.7559 62.5L49.7559 67.5781L92.9688 67.5781C93.2129 65.8691 93.4082 64.209 93.5547 62.5ZM49.7559 72.998L49.7559 78.0273L84.7168 78.0273C85.1562 76.416 85.5469 74.707 85.8887 72.998ZM49.7559 84.4238L49.7559 89.502L72.8027 89.502C73.584 87.8906 74.3164 86.2305 74.9512 84.4238ZM49.7559 92.9688L49.7559 97.1191C53.9062 95.9961 58.0078 94.6289 61.9629 92.9688ZM49.8047 99.6094C77.0508 99.6094 99.6094 77.002 99.6094 49.8047C99.6094 22.5586 77.002 0 49.7559 0C22.5586 0 0 22.5586 0 49.8047C0 77.002 22.6074 99.6094 49.8047 99.6094ZM49.8047 91.3086C26.7578 91.3086 8.34961 72.8516 8.34961 49.8047C8.34961 26.7578 26.709 8.30078 49.7559 8.30078C72.8027 8.30078 91.3086 26.7578 91.3086 49.8047C91.3086 72.8516 72.8516 91.3086 49.8047 91.3086Z" fill="#000000" fill-opacity="0.85"/>
 </g>
</svg>
