<?xml version="1.0" encoding="UTF-8"?>
<!--Generator: Apple Native CoreSVG 232.5-->
<!DOCTYPE svg
PUBLIC "-//W3C//DTD SVG 1.1//EN"
       "http://www.w3.org/Graphics/SVG/1.1/DTD/svg11.dtd">
<svg version="1.1" xmlns="http://www.w3.org/2000/svg" xmlns:xlink="http://www.w3.org/1999/xlink" width="99.6094" height="99.6582">
 <g>
  <rect height="99.6582" opacity="0" width="99.6094" x="0" y="0"/>
  <path d="M99.6094 49.8047C99.6094 77.002 77.0508 99.6094 49.8047 99.6094C22.6074 99.6094 0 77.002 0 49.8047C0 22.5586 22.5586 0 49.7559 0C77.002 0 99.6094 22.5586 99.6094 49.8047ZM46.2402 72.4121C46.2402 74.4629 47.7539 75.9766 49.8047 75.9766C51.8555 75.9766 53.3691 74.4629 53.3691 72.4121C53.3691 70.3613 51.8555 68.8477 49.8047 68.8477C47.7539 68.8477 46.2402 70.3613 46.2402 72.4121ZM57.5195 69.3848C57.5195 71.4844 59.0332 72.998 61.084 72.998C63.1836 72.998 64.6484 71.4844 64.6484 69.3848C64.6484 67.334 63.1836 65.8203 61.084 65.8203C59.0332 65.8203 57.5195 67.334 57.5195 69.3848ZM34.9609 69.3848C34.9609 71.4844 36.4746 72.998 38.5254 72.998C40.5762 72.998 42.0898 71.4844 42.0898 69.3848C42.0898 67.334 40.5762 65.8203 38.5254 65.8203C36.4746 65.8203 34.9609 67.334 34.9609 69.3848ZM65.7715 61.1816C65.7715 63.2324 67.2852 64.7461 69.3359 64.7461C71.4355 64.7461 72.9492 63.2324 72.9492 61.1816C72.9492 59.082 71.4355 57.5684 69.3359 57.5684C67.2852 57.5684 65.7715 59.082 65.7715 61.1816ZM26.6602 61.1816C26.6602 63.2324 28.1738 64.7461 30.2734 64.7461C32.3242 64.7461 33.8379 63.2324 33.8379 61.1816C33.8379 59.082 32.3242 57.5684 30.2734 57.5684C28.1738 57.5684 26.6602 59.082 26.6602 61.1816ZM68.7988 49.8535C68.7988 51.9043 70.3125 53.418 72.3633 53.418C74.4141 53.418 75.9277 51.9043 75.9277 49.8535C75.9277 47.8027 74.4141 46.2891 72.3633 46.2891C70.3125 46.2891 68.7988 47.8027 68.7988 49.8535ZM23.6816 49.8535C23.6816 51.9043 25.1953 53.418 27.2461 53.418C29.2969 53.418 30.8105 51.9043 30.8105 49.8535C30.8105 47.8027 29.2969 46.2891 27.2461 46.2891C25.1953 46.2891 23.6816 47.8027 23.6816 49.8535ZM65.7715 38.5742C65.7715 40.625 67.2852 42.1387 69.3359 42.1387C71.4355 42.1387 72.9492 40.625 72.9492 38.5742C72.9492 36.5234 71.4355 35.0098 69.3359 35.0098C67.2852 35.0098 65.7715 36.5234 65.7715 38.5742ZM26.6602 38.5742C26.6602 40.625 28.1738 42.1387 30.2734 42.1387C32.3242 42.1387 33.8379 40.625 33.8379 38.5742C33.8379 36.5234 32.3242 35.0098 30.2734 35.0098C28.1738 35.0098 26.6602 36.5234 26.6602 38.5742ZM57.5195 30.3223C57.5195 32.373 59.0332 33.8867 61.084 33.8867C63.1836 33.8867 64.6484 32.373 64.6484 30.3223C64.6484 28.2227 63.1836 26.709 61.084 26.709C59.0332 26.709 57.5195 28.2227 57.5195 30.3223ZM34.9609 30.3223C34.9609 32.373 36.4746 33.8867 38.5254 33.8867C40.5762 33.8867 42.0898 32.373 42.0898 30.3223C42.0898 28.2227 40.5762 26.709 38.5254 26.709C36.4746 26.709 34.9609 28.2227 34.9609 30.3223ZM46.2402 27.2949C46.2402 29.3457 47.7539 30.8594 49.8047 30.8594C51.8555 30.8594 53.3691 29.3457 53.3691 27.2949C53.3691 25.2441 51.8555 23.7305 49.8047 23.7305C47.7539 23.7305 46.2402 25.2441 46.2402 27.2949Z" fill="#000000" fill-opacity="0.85"/>
 </g>
</svg>
