<?xml version="1.0" encoding="UTF-8"?>
<!--Generator: Apple Native CoreSVG 232.5-->
<!DOCTYPE svg
PUBLIC "-//W3C//DTD SVG 1.1//EN"
       "http://www.w3.org/Graphics/SVG/1.1/DTD/svg11.dtd">
<svg version="1.1" xmlns="http://www.w3.org/2000/svg" xmlns:xlink="http://www.w3.org/1999/xlink" width="115.137" height="89.8926">
 <g>
  <rect height="89.8926" opacity="0" width="115.137" x="0" y="0"/>
  <path d="M15.332 89.8926L99.8047 89.8926C110.059 89.8926 115.137 84.8633 115.137 74.8047L115.137 15.1367C115.137 5.07812 110.059 0 99.8047 0L15.332 0C5.12695 0 0 5.07812 0 15.1367L0 74.8047C0 84.8633 5.12695 89.8926 15.332 89.8926ZM15.4297 82.0312C10.5469 82.0312 7.86133 79.4434 7.86133 74.3652L7.86133 15.5762C7.86133 10.498 10.5469 7.86133 15.4297 7.86133L99.707 7.86133C104.541 7.86133 107.275 10.498 107.275 15.5762L107.275 74.3652C107.275 79.4434 104.541 82.0312 99.707 82.0312Z" fill="#000000" fill-opacity="0.85"/>
  <path d="M57.373 72.168C72.3633 72.168 84.5215 60.0098 84.5215 44.9707C84.5215 29.9805 72.3633 17.8223 57.373 17.8223C42.334 17.8223 30.1758 29.9805 30.1758 44.9707C30.1758 60.0098 42.334 72.168 57.373 72.168ZM57.373 65.8691C45.752 65.8691 36.4746 56.5918 36.4746 44.9707C36.4746 33.3496 45.752 24.1211 57.373 24.1211C68.9941 24.1211 78.2227 33.3496 78.2227 44.9707C78.2227 56.5918 68.9941 65.8691 57.373 65.8691ZM38.0371 57.1289L68.7012 26.4648L63.1348 21.6797L35.9863 48.8281ZM51.9043 68.5547L78.9551 41.5039L76.8555 33.3008L46.3867 63.7207Z" fill="#000000" fill-opacity="0.85"/>
 </g>
</svg>
