<?xml version="1.0" encoding="UTF-8"?>
<!--Generator: Apple Native CoreSVG 232.5-->
<!DOCTYPE svg
PUBLIC "-//W3C//DTD SVG 1.1//EN"
       "http://www.w3.org/Graphics/SVG/1.1/DTD/svg11.dtd">
<svg version="1.1" xmlns="http://www.w3.org/2000/svg" xmlns:xlink="http://www.w3.org/1999/xlink" width="127.979" height="56.8848">
 <g>
  <rect height="56.8848" opacity="0" width="127.979" x="0" y="0"/>
  <path d="M99.6094 56.8359C115.186 56.8359 127.979 44.043 127.979 28.418C127.979 12.8418 115.186 0 99.6094 0C83.9355 0 71.1914 12.8418 71.1914 28.418C71.1914 44.043 83.9355 56.8359 99.6094 56.8359ZM99.6094 48.9746C88.2812 48.9746 79.0527 39.7949 79.0527 28.418C79.0527 17.0898 88.2812 7.86133 99.6094 7.86133C110.84 7.86133 120.117 17.1875 120.117 28.418C120.117 39.6973 110.84 48.9746 99.6094 48.9746Z" fill="#000000" fill-opacity="0.85"/>
  <path d="M28.418 56.8359C43.9941 56.8359 56.7871 44.043 56.7871 28.418C56.7871 12.8418 43.9941 0 28.418 0C12.6953 0 0 12.8418 0 28.418C0 44.043 12.6953 56.8359 28.418 56.8359Z" fill="#000000" fill-opacity="0.85"/>
 </g>
</svg>
