<?xml version="1.0" encoding="UTF-8"?>
<!--Generator: Apple Native CoreSVG 232.5-->
<!DOCTYPE svg
PUBLIC "-//W3C//DTD SVG 1.1//EN"
       "http://www.w3.org/Graphics/SVG/1.1/DTD/svg11.dtd">
<svg version="1.1" xmlns="http://www.w3.org/2000/svg" xmlns:xlink="http://www.w3.org/1999/xlink" width="99.6094" height="99.6582">
 <g>
  <rect height="99.6582" opacity="0" width="99.6094" x="0" y="0"/>
  <path d="M49.8047 99.6094C77.0508 99.6094 99.6094 77.002 99.6094 49.8047C99.6094 22.5586 77.002 0 49.7559 0C22.5586 0 0 22.5586 0 49.8047C0 77.002 22.6074 99.6094 49.8047 99.6094ZM49.8047 91.3086C26.7578 91.3086 8.34961 72.8516 8.34961 49.8047C8.34961 26.7578 26.709 8.30078 49.7559 8.30078C72.8027 8.30078 91.3086 26.7578 91.3086 49.8047C91.3086 72.8516 72.8516 91.3086 49.8047 91.3086Z" fill="#000000" fill-opacity="0.85"/>
  <path d="M49.7559 76.0254C64.0137 76.0254 75.9277 64.1113 75.9277 49.8535C75.9277 35.6445 63.9648 23.6816 49.7559 23.6816C35.498 23.6816 23.6328 35.5957 23.6328 49.8535C23.6328 64.0625 35.5469 76.0254 49.7559 76.0254ZM49.7559 68.4082C39.6973 68.4082 31.25 59.9609 31.25 49.8535C31.25 39.6973 39.5996 31.2988 49.7559 31.2988C59.8633 31.2988 68.2617 39.7461 68.2617 49.8535C68.2617 60.0098 59.9121 68.4082 49.7559 68.4082Z" fill="#000000" fill-opacity="0.85"/>
 </g>
</svg>
