<?xml version="1.0" encoding="UTF-8"?>
<!--Generator: Apple Native CoreSVG 232.5-->
<!DOCTYPE svg
PUBLIC "-//W3C//DTD SVG 1.1//EN"
       "http://www.w3.org/Graphics/SVG/1.1/DTD/svg11.dtd">
<svg version="1.1" xmlns="http://www.w3.org/2000/svg" xmlns:xlink="http://www.w3.org/1999/xlink" width="115.137" height="89.9902">
 <g>
  <rect height="89.9902" opacity="0" width="115.137" x="0" y="0"/>
  <path d="M15.332 89.9902L99.8047 89.9902C110.059 89.9902 115.137 84.9121 115.137 74.8535L115.137 15.2344C115.137 5.17578 110.059 0.0976562 99.8047 0.0976562L15.332 0.0976562C5.12695 0.0976562 0 5.12695 0 15.2344L0 74.8535C0 84.9609 5.12695 89.9902 15.332 89.9902ZM15.4297 82.1289C10.5469 82.1289 7.86133 79.541 7.86133 74.4629L7.86133 15.625C7.86133 10.5469 10.5469 7.95898 15.4297 7.95898L99.707 7.95898C104.541 7.95898 107.275 10.5469 107.275 15.625L107.275 74.4629C107.275 79.541 104.541 82.1289 99.707 82.1289Z" fill="#000000" fill-opacity="0.85"/>
  <path d="M57.5684 69.2383C70.8984 69.2383 81.8359 58.3984 81.8359 44.9707C81.8359 31.6406 70.8984 20.8008 57.5684 20.8008C44.2383 20.8008 33.3496 31.6406 33.3496 44.9707C33.3496 58.3984 44.2383 69.2383 57.5684 69.2383Z" fill="#000000" fill-opacity="0.85"/>
 </g>
</svg>
