<?xml version="1.0" encoding="UTF-8"?>
<!--Generator: Apple Native CoreSVG 232.5-->
<!DOCTYPE svg
PUBLIC "-//W3C//DTD SVG 1.1//EN"
       "http://www.w3.org/Graphics/SVG/1.1/DTD/svg11.dtd">
<svg version="1.1" xmlns="http://www.w3.org/2000/svg" xmlns:xlink="http://www.w3.org/1999/xlink" width="115.137" height="89.8926">
 <g>
  <rect height="89.8926" opacity="0" width="115.137" x="0" y="0"/>
  <path d="M115.137 15.1367L115.137 74.8047C115.137 84.8633 110.059 89.8926 99.8047 89.8926L15.332 89.8926C5.12695 89.8926 0 84.8633 0 74.8047L0 15.1367C0 5.07812 5.12695 0 15.332 0L99.8047 0C110.059 0 115.137 5.07812 115.137 15.1367ZM81.1523 7.86133L68.6938 20.3199C66.1885 19.1362 63.4618 18.3512 60.5928 18.0303L70.7885 7.86133L44.1406 7.86133L7.86133 44.1406L7.86133 70.8008L30.3942 48.2679C30.7178 51.1254 31.5016 53.8394 32.68 56.3328L9.37083 79.6015C10.6401 81.2158 12.6887 82.0312 15.4297 82.0312L33.9844 82.0312L46.2411 69.7745C48.7633 70.9311 51.5032 71.6918 54.3819 71.9962L44.3756 82.0312L70.9926 82.0312L107.275 45.7058L107.275 19.0918L84.3535 42.0137C84.053 39.1639 83.3037 36.4486 82.1659 33.9447L105.75 10.3202C104.473 8.69229 102.421 7.86133 99.707 7.86133ZM81.4406 82.0312L99.707 82.0312C104.541 82.0312 107.275 79.4434 107.275 74.3652L107.275 56.1559ZM15.4297 7.86133C10.5469 7.86133 7.86133 10.498 7.86133 15.5762L7.86133 33.7357L33.698 7.86133Z" fill="#000000" fill-opacity="0.85"/>
  <path d="M57.373 72.168C72.3633 72.168 84.5215 60.0098 84.5215 44.9707C84.5215 29.9805 72.3633 17.8223 57.373 17.8223C42.334 17.8223 30.1758 29.9805 30.1758 44.9707C30.1758 60.0098 42.334 72.168 57.373 72.168ZM57.373 65.8691C45.752 65.8691 36.4746 56.5918 36.4746 44.9707C36.4746 33.3496 45.752 24.1211 57.373 24.1211C68.9941 24.1211 78.2227 33.3496 78.2227 44.9707C78.2227 56.5918 68.9941 65.8691 57.373 65.8691Z" fill="#000000" fill-opacity="0.85"/>
 </g>
</svg>
