<?xml version="1.0" encoding="UTF-8"?>
<!--Generator: Apple Native CoreSVG 232.5-->
<!DOCTYPE svg
PUBLIC "-//W3C//DTD SVG 1.1//EN"
       "http://www.w3.org/Graphics/SVG/1.1/DTD/svg11.dtd">
<svg version="1.1" xmlns="http://www.w3.org/2000/svg" xmlns:xlink="http://www.w3.org/1999/xlink" width="108.582" height="108.594">
 <g>
  <rect height="108.594" opacity="0" width="108.582" x="0" y="0"/>
  <path d="M19.0021 32.476C15.0869 38.7764 12.8601 46.2461 12.8601 54.2726C12.8601 77.3195 31.2683 95.7765 54.3152 95.7765C62.344 95.7765 69.8254 93.527 76.1364 89.5792L82.0398 95.4793C74.0794 100.894 64.5204 104.077 54.3152 104.077C27.0691 104.077 4.51053 81.4698 4.51053 54.2726C4.51053 44.0568 7.67501 34.5001 13.0673 26.5444ZM104.12 54.2726C104.12 64.5162 100.913 74.1088 95.4567 82.084L89.5641 76.1914C93.5457 69.8645 95.8191 62.3505 95.8191 54.2726C95.8191 31.2257 77.2644 12.7687 54.2664 12.7687C46.191 12.7687 38.6911 15.0347 32.3812 19.0084L26.4729 13.1002C34.434 7.66146 44.0149 4.46789 54.2664 4.46789C81.4637 4.46789 104.12 27.0265 104.12 54.2726Z" fill="#000000" fill-opacity="0.85"/>
  <path d="M96.3562 101.782C97.8211 103.247 100.262 103.198 101.678 101.734C103.143 100.22 103.143 97.8761 101.678 96.4113L12.1277 6.81164C10.6629 5.3468 8.27029 5.3468 6.75662 6.81164C5.34061 8.22766 5.34061 10.7179 6.75662 12.1339Z" fill="#000000" fill-opacity="0.85"/>
 </g>
</svg>
