<?xml version="1.0" encoding="UTF-8"?>
<!--Generator: Apple Native CoreSVG 232.5-->
<!DOCTYPE svg
PUBLIC "-//W3C//DTD SVG 1.1//EN"
       "http://www.w3.org/Graphics/SVG/1.1/DTD/svg11.dtd">
<svg version="1.1" xmlns="http://www.w3.org/2000/svg" xmlns:xlink="http://www.w3.org/1999/xlink" width="89.8926" height="89.9902">
 <g>
  <rect height="89.9902" opacity="0" width="89.8926" x="0" y="0"/>
  <path d="M89.8926 15.2344L89.8926 74.8535C89.8926 84.9121 84.8145 89.9902 74.5605 89.9902L15.332 89.9902C5.12695 89.9902 0 84.9609 0 74.8535L0 15.2344C0 5.12695 5.12695 0.0976562 15.332 0.0976562L74.5605 0.0976562C84.8145 0.0976562 89.8926 5.17578 89.8926 15.2344ZM58.6914 25.7324L44.9707 39.3555L31.3477 25.7812C30.5664 25.0488 29.6875 24.6582 28.5645 24.6582C26.3184 24.6582 24.5605 26.3672 24.5605 28.6621C24.5605 29.7363 24.9512 30.7129 25.7324 31.4941L39.2578 45.0195L25.7324 58.5938C24.9512 59.3262 24.5605 60.3516 24.5605 61.4258C24.5605 63.6719 26.3184 65.4785 28.5645 65.4785C29.6875 65.4785 30.7129 65.0879 31.4941 64.3066L44.9707 50.7324L58.4961 64.3066C59.2285 65.0879 60.3027 65.4785 61.377 65.4785C63.6719 65.4785 65.4785 63.6719 65.4785 61.4258C65.4785 60.3027 65.0879 59.2773 64.3066 58.5449L50.7324 45.0195L64.3555 31.4453C65.1855 30.5664 65.5273 29.6875 65.5273 28.5645C65.5273 26.3184 63.7207 24.5605 61.4746 24.5605C60.4492 24.5605 59.5215 24.9023 58.6914 25.7324Z" fill="#000000" fill-opacity="0.85"/>
 </g>
</svg>
