<?xml version="1.0" encoding="UTF-8"?>
<!--Generator: Apple Native CoreSVG 232.5-->
<!DOCTYPE svg
PUBLIC "-//W3C//DTD SVG 1.1//EN"
       "http://www.w3.org/Graphics/SVG/1.1/DTD/svg11.dtd">
<svg version="1.1" xmlns="http://www.w3.org/2000/svg" xmlns:xlink="http://www.w3.org/1999/xlink" width="82.1289" height="135.303">
 <g>
  <rect height="135.303" opacity="0" width="82.1289" x="0" y="0"/>
  <path d="M82.1289 34.5703L82.1289 108.643C82.1289 118.896 77.0996 123.975 66.9922 123.975L15.1367 123.975C5.0293 123.975 0 118.896 0 108.643L0 34.5703C0 24.3164 5.0293 19.2383 15.1367 19.2383L15.7897 19.2383C15.7436 19.6501 15.7227 20.0744 15.7227 20.5078L15.7227 25.6348C15.7227 31.7871 20.0195 36.1328 25.9766 36.1328L56.1523 36.1328C62.1094 36.1328 66.4062 31.7871 66.4062 25.6348L66.4062 20.5078C66.4062 20.0744 66.3853 19.6501 66.3392 19.2383L66.9922 19.2383C77.0996 19.2383 82.1289 24.3164 82.1289 34.5703Z" fill="#000000" fill-opacity="0.85"/>
  <path d="M25.9766 30.4688L56.1523 30.4688C58.9844 30.4688 60.6934 28.6621 60.6934 25.6348L60.6934 20.5078C60.6934 17.4805 58.9844 15.6738 56.1523 15.6738L51.6602 15.6738C51.3184 10.1562 46.7285 5.66406 41.0645 5.66406C35.4004 5.66406 30.8105 10.1562 30.4688 15.6738L25.9766 15.6738C23.1445 15.6738 21.4355 17.4805 21.4355 20.5078L21.4355 25.6348C21.4355 28.6621 23.1445 30.4688 25.9766 30.4688ZM41.0645 20.3125C38.7207 20.3125 36.8164 18.3594 36.8164 16.0645C36.8164 13.6719 38.7207 11.7676 41.0645 11.7676C43.4082 11.7676 45.3125 13.6719 45.3125 16.0645C45.3125 18.3594 43.4082 20.3125 41.0645 20.3125Z" fill="#000000" fill-opacity="0.85"/>
 </g>
</svg>
