<?xml version="1.0" encoding="UTF-8"?>
<!--Generator: Apple Native CoreSVG 232.5-->
<!DOCTYPE svg
PUBLIC "-//W3C//DTD SVG 1.1//EN"
       "http://www.w3.org/Graphics/SVG/1.1/DTD/svg11.dtd">
<svg version="1.1" xmlns="http://www.w3.org/2000/svg" xmlns:xlink="http://www.w3.org/1999/xlink" width="99.6094" height="99.6582">
 <g>
  <rect height="99.6582" opacity="0" width="99.6094" x="0" y="0"/>
  <path d="M49.8047 99.6094C77.0508 99.6094 99.6094 77.002 99.6094 49.8047C99.6094 22.5586 77.002 0 49.7559 0C22.5586 0 0 22.5586 0 49.8047C0 77.002 22.6074 99.6094 49.8047 99.6094ZM49.8047 91.3086C26.7578 91.3086 8.34961 72.8516 8.34961 49.8047C8.34961 26.7578 26.709 8.30078 49.7559 8.30078C72.8027 8.30078 91.3086 26.7578 91.3086 49.8047C91.3086 72.8516 72.8516 91.3086 49.8047 91.3086Z" fill="#000000" fill-opacity="0.85"/>
  <path d="M24.2676 55.0781L49.7559 55.0781C51.6602 55.0781 53.1738 53.6133 53.1738 51.6602L53.1738 18.75C53.1738 16.8457 51.6602 15.3809 49.7559 15.3809C47.8516 15.3809 46.3867 16.8457 46.3867 18.75L46.3867 48.291L24.2676 48.291C22.3145 48.291 20.8496 49.7559 20.8496 51.6602C20.8496 53.6133 22.3145 55.0781 24.2676 55.0781Z" fill="#000000" fill-opacity="0.85"/>
 </g>
</svg>
