<?xml version="1.0" encoding="UTF-8"?>
<!--Generator: Apple Native CoreSVG 232.5-->
<!DOCTYPE svg
PUBLIC "-//W3C//DTD SVG 1.1//EN"
       "http://www.w3.org/Graphics/SVG/1.1/DTD/svg11.dtd">
<svg version="1.1" xmlns="http://www.w3.org/2000/svg" xmlns:xlink="http://www.w3.org/1999/xlink" width="99.6094" height="99.6582">
 <g>
  <rect height="99.6582" opacity="0" width="99.6094" x="0" y="0"/>
  <path d="M49.8047 99.6094C77.0508 99.6094 99.6094 77.002 99.6094 49.8047C99.6094 22.5586 77.002 0 49.7559 0C22.5586 0 0 22.5586 0 49.8047C0 77.002 22.6074 99.6094 49.8047 99.6094ZM49.8047 91.3086C26.7578 91.3086 8.34961 72.8516 8.34961 49.8047C8.34961 26.7578 26.709 8.30078 49.7559 8.30078C72.8027 8.30078 91.3086 26.7578 91.3086 49.8047C91.3086 72.8516 72.8516 91.3086 49.8047 91.3086Z" fill="#000000" fill-opacity="0.85"/>
  <path d="M36.4746 53.125C35.1074 53.125 34.082 52.1484 34.082 50.7812C34.082 49.4141 35.1074 48.4375 36.4746 48.4375L47.4121 48.4375L47.4121 33.5449C47.4121 32.2266 48.4375 31.2012 49.7559 31.2012C51.123 31.2012 52.1973 32.2266 52.1973 33.5449L52.1973 50.7812C52.1973 52.0996 51.0742 53.125 49.7559 53.125ZM49.8047 76.0254C64.1113 76.0254 76.0254 64.1113 76.0254 49.8047C76.0254 35.498 64.1113 23.584 49.7559 23.584C35.4492 23.584 23.584 35.498 23.584 49.8047C23.584 64.1113 35.498 76.0254 49.8047 76.0254Z" fill="#000000" fill-opacity="0.85"/>
 </g>
</svg>
