<?xml version="1.0" encoding="UTF-8"?>
<!--Generator: Apple Native CoreSVG 232.5-->
<!DOCTYPE svg
PUBLIC "-//W3C//DTD SVG 1.1//EN"
       "http://www.w3.org/Graphics/SVG/1.1/DTD/svg11.dtd">
<svg version="1.1" xmlns="http://www.w3.org/2000/svg" xmlns:xlink="http://www.w3.org/1999/xlink" width="99.6094" height="99.6582">
 <g>
  <rect height="99.6582" opacity="0" width="99.6094" x="0" y="0"/>
  <path d="M99.6094 49.8535C99.6094 77.0996 77.0508 99.6582 49.8047 99.6582C22.6074 99.6582 0 77.0996 0 49.8535C0 22.6562 22.5586 0.0488281 49.7559 0.0488281C77.002 0.0488281 99.6094 22.6562 99.6094 49.8535ZM37.1582 66.1133C36.377 66.1133 36.084 66.3086 35.8398 66.8457L32.4707 74.5605C32.2266 75.1953 32.4707 75.6348 33.1543 75.6348L37.5 75.6348L34.1309 83.8379C33.8867 84.4727 34.6191 84.8633 35.1074 84.375L46.2891 73.0469C46.8262 72.4121 46.582 71.7285 45.8496 71.7285L40.7227 71.7285L43.1641 67.1387C43.457 66.5527 43.2129 66.1133 42.627 66.1133ZM22.5586 45.3125C18.7988 46.6309 16.1133 49.9512 16.1133 54.1992C16.1133 59.5215 20.1172 63.3789 26.0742 63.3789L51.0742 63.3789C57.8613 63.3789 63.0371 58.252 63.0371 51.6113C63.0371 45.1172 57.8125 40.1367 50.7812 39.9902C48.0957 34.9609 43.3105 31.7871 37.5 31.7871C29.8828 31.7871 23.4375 37.7441 22.5586 45.3125ZM70.1172 50.4395C69.3359 51.3184 69.2383 52.8809 70.1172 53.7109L73.7305 57.2754C74.6582 58.2031 76.0742 58.0566 76.9531 57.2266C77.7832 56.3477 77.832 54.834 76.9531 53.9551L73.4375 50.4395C72.5586 49.6094 71.0449 49.6094 70.1172 50.4395ZM50.1465 33.3984C51.2207 34.375 52.0508 35.4492 52.8809 36.6699C60.1074 37.5977 65.6738 42.8223 66.4062 49.8535C69.6289 47.5586 71.582 43.9941 71.582 40.0879C71.582 33.4961 66.3574 28.3203 59.7656 28.3203C55.8105 28.3203 52.1973 30.3223 50.1465 33.3984ZM76.709 37.7441C75.5371 37.7441 74.4629 38.7695 74.4629 40.0879C74.4629 41.3086 75.5371 42.334 76.709 42.334L81.6895 42.334C83.0078 42.334 84.0332 41.3086 84.0332 40.0879C84.0332 38.7695 83.0078 37.7441 81.6895 37.7441ZM42.627 22.9004C41.7969 23.7305 41.7969 25.2441 42.627 26.1719L46.1914 29.7852C47.1191 30.6641 48.6328 30.5664 49.5117 29.7363C50.293 28.8574 50.3906 27.3926 49.5117 26.5137L45.8984 22.9492C44.9707 22.0703 43.5547 22.1191 42.627 22.9004ZM73.7305 22.9492L70.1172 26.5137C69.2383 27.3438 69.3359 28.8574 70.1172 29.7363C70.9961 30.5664 72.5586 30.6641 73.4375 29.7852L76.9531 26.1719C77.832 25.293 77.7832 23.7793 76.9531 22.9492C76.0742 22.1191 74.6582 22.0215 73.7305 22.9492ZM57.4707 18.1152L57.4707 23.1445C57.4707 24.3652 58.5449 25.4395 59.7656 25.4395C61.084 25.4395 62.1094 24.3652 62.1094 23.1445L62.1094 18.1152C62.1094 16.8457 61.084 15.8203 59.7656 15.8203C58.5449 15.8203 57.4707 16.8457 57.4707 18.1152Z" fill="#000000" fill-opacity="0.85"/>
 </g>
</svg>
