<?xml version="1.0" encoding="UTF-8"?>
<!--Generator: Apple Native CoreSVG 232.5-->
<!DOCTYPE svg
PUBLIC "-//W3C//DTD SVG 1.1//EN"
       "http://www.w3.org/Graphics/SVG/1.1/DTD/svg11.dtd">
<svg version="1.1" xmlns="http://www.w3.org/2000/svg" xmlns:xlink="http://www.w3.org/1999/xlink" width="99.6094" height="99.6582">
 <g>
  <rect height="99.6582" opacity="0" width="99.6094" x="0" y="0"/>
  <path d="M49.8047 99.6094C77.0508 99.6094 99.6094 77.002 99.6094 49.8047C99.6094 22.5586 77.002 0 49.7559 0C22.5586 0 0 22.5586 0 49.8047C0 77.002 22.6074 99.6094 49.8047 99.6094ZM49.8047 91.3086C26.7578 91.3086 8.34961 72.8516 8.34961 49.8047C8.34961 26.7578 26.709 8.30078 49.7559 8.30078C72.8027 8.30078 91.3086 26.7578 91.3086 49.8047C91.3086 72.8516 72.8516 91.3086 49.8047 91.3086Z" fill="#000000" fill-opacity="0.85"/>
  <path d="M28.7598 61.5723L52.9785 61.5723C59.5703 61.5723 64.5996 56.543 64.5996 50.0977C64.5996 43.7988 59.5215 39.0137 52.7832 38.8672C50.1465 33.9355 45.459 30.9082 39.8438 30.9082C32.4219 30.9082 26.1719 36.6699 25.3906 44.043C21.6797 45.3125 19.0918 48.5352 19.0918 52.6855C19.0918 57.8125 22.998 61.5723 28.7598 61.5723ZM30.6641 71.9238L33.4473 67.1387C33.9844 66.3086 33.6914 65.2344 32.7637 64.7461C31.9336 64.209 30.8594 64.5508 30.4199 65.3809L27.6367 70.166C27.1484 70.9961 27.3926 72.1191 28.2715 72.5586C29.1016 73.0469 30.2246 72.7539 30.6641 71.9238ZM36.9141 77.0996L39.502 72.6074C39.9902 71.7773 39.7461 70.6543 38.8184 70.166C37.9395 69.7266 36.9141 69.9707 36.377 70.8496L33.7402 75.3418C33.252 76.2207 33.5938 77.2949 34.5215 77.7832C35.3027 78.2715 36.4258 77.9297 36.9141 77.0996ZM46.4355 71.9238L49.2188 67.1875C49.7559 66.3086 49.4141 65.2832 48.5352 64.7461C47.6562 64.2578 46.582 64.502 46.0938 65.332L43.3594 70.1172C42.9199 70.9473 43.1152 72.0703 44.043 72.5586C44.9219 72.998 45.9473 72.7051 46.4355 71.9238ZM52.6367 77.1484L55.2734 72.6074C55.7129 71.7773 55.4688 70.6055 54.5898 70.166C53.7109 69.7266 52.6855 70.0195 52.1484 70.8496L49.5117 75.3418C49.0234 76.2207 49.3652 77.2949 50.2441 77.7832C51.0742 78.2715 52.1484 77.9297 52.6367 77.1484ZM80.6641 37.6465C80.6641 36.7676 80.2734 36.1816 79.541 36.1816C78.4668 36.1816 76.6602 37.5488 73.5352 37.5488C67.8223 37.5488 64.209 34.2285 64.209 28.9551C64.209 25.9277 65.918 23.7305 65.918 22.4609C65.918 21.7773 65.332 21.2891 64.4531 21.3379C59.8145 21.5332 54.0527 27.002 53.2715 33.7402C53.8086 34.3262 54.248 34.9609 54.7363 35.5957C61.9629 36.4746 67.2852 41.8457 67.9688 48.7793C75.8301 47.9492 80.6641 41.748 80.6641 37.6465Z" fill="#000000" fill-opacity="0.85"/>
 </g>
</svg>
