<?xml version="1.0" encoding="UTF-8"?>
<!--Generator: Apple Native CoreSVG 232.5-->
<!DOCTYPE svg
PUBLIC "-//W3C//DTD SVG 1.1//EN"
       "http://www.w3.org/Graphics/SVG/1.1/DTD/svg11.dtd">
<svg version="1.1" xmlns="http://www.w3.org/2000/svg" xmlns:xlink="http://www.w3.org/1999/xlink" width="151.172" height="105.518">
 <g>
  <rect height="105.518" opacity="0" width="151.172" x="0" y="0"/>
  <path d="M128.906 74.7559L136.475 82.2754C138.037 83.8379 138.037 86.4258 136.475 87.9395C134.912 89.502 132.324 89.5996 130.811 87.9883L123.193 80.4688C121.631 78.9062 121.631 76.3184 123.193 74.7559C124.756 73.2422 127.344 73.2422 128.906 74.7559ZM124.756 52.1484C124.756 60.8522 120.059 68.5493 113.095 72.7978C111.728 58.5921 100.321 47.8974 85.3516 46.3867C83.7901 43.9218 82.0019 41.6735 80.0054 39.6839C84.2447 32.6678 91.9449 27.9297 100.635 27.9297C113.818 27.9297 124.756 38.916 124.756 52.1484ZM151.172 52.1484C151.172 54.3945 149.365 56.2012 147.168 56.2012L136.572 56.2012C134.424 56.2012 132.52 54.3945 132.52 52.1484C132.52 50 134.424 48.0957 136.572 48.0957L147.168 48.0957C149.365 48.0957 151.172 50 151.172 52.1484ZM136.475 16.3574C138.037 17.9199 138.037 20.5566 136.475 22.1191L128.955 29.5898C127.344 31.2012 124.756 31.1523 123.193 29.5898C121.631 28.0273 121.631 25.4395 123.193 23.9258L130.811 16.3574C132.324 14.7949 134.912 14.7949 136.475 16.3574ZM70.5566 16.3574L78.0762 23.9258C79.5898 25.3906 79.5898 28.0762 78.0273 29.5898C76.4648 31.1523 73.877 31.1523 72.3145 29.5898L64.8438 22.0703C63.2812 20.5566 63.3301 17.9199 64.8926 16.3574C66.4551 14.7949 69.043 14.8438 70.5566 16.3574ZM104.688 5.51758L104.688 16.1621C104.688 18.3105 102.832 20.166 100.635 20.166C98.4375 20.166 96.582 18.3105 96.582 16.1621L96.582 5.51758C96.582 3.36914 98.4375 1.46484 100.635 1.46484C102.832 1.46484 104.688 3.36914 104.688 5.51758Z" fill="#000000" fill-opacity="0.85"/>
  <path d="M30.0293 99.8047L82.8613 99.8047C96.7773 99.8047 107.568 89.2578 107.568 75.6836C107.568 62.207 96.582 52.002 81.9824 51.9043C76.3672 41.2109 66.2598 34.668 54.1992 34.668C38.2812 34.668 24.8047 47.0215 23.291 63.0859C15.1855 65.5273 9.66797 72.4609 9.66797 81.25C9.66797 92.0898 17.8223 99.8047 30.0293 99.8047Z" fill="#000000" fill-opacity="0.85"/>
 </g>
</svg>
