<?xml version="1.0" encoding="UTF-8"?>
<!--Generator: Apple Native CoreSVG 232.5-->
<!DOCTYPE svg
PUBLIC "-//W3C//DTD SVG 1.1//EN"
       "http://www.w3.org/Graphics/SVG/1.1/DTD/svg11.dtd">
<svg version="1.1" xmlns="http://www.w3.org/2000/svg" xmlns:xlink="http://www.w3.org/1999/xlink" width="116.455" height="111.865">
 <g>
  <rect height="111.865" opacity="0" width="116.455" x="0" y="0"/>
  <path d="M92.9688 101.855L29.4434 101.855C27.7344 101.855 26.3672 103.174 26.3672 104.932C26.3672 106.689 27.7344 108.057 29.4434 108.057L92.9688 108.057C94.6777 108.057 96.0449 106.689 96.0449 104.932C96.0449 103.174 94.6777 101.855 92.9688 101.855Z" fill="#000000" fill-opacity="0.85"/>
  <path d="M92.9688 85.3027L29.4434 85.3027C27.7344 85.3027 26.3672 86.6211 26.3672 88.3789C26.3672 90.1367 27.7344 91.4551 29.4434 91.4551L92.9688 91.4551C94.6777 91.4551 96.0449 90.1367 96.0449 88.3789C96.0449 86.6211 94.6777 85.3027 92.9688 85.3027Z" fill="#000000" fill-opacity="0.85"/>
  <path d="M27.9297 73.9746L88.5254 73.9746C104.541 73.9746 116.455 61.8164 116.455 46.7773C116.455 31.2012 103.76 19.8242 87.207 19.8242C81.1035 7.76367 69.7754 0 55.6641 0C37.3047 0 22.168 14.4043 20.5566 32.5195C11.7188 35.1074 4.98047 42.7734 4.98047 53.0762C4.98047 64.6484 13.3789 73.9746 27.9297 73.9746Z" fill="#000000" fill-opacity="0.85"/>
 </g>
</svg>
