<?xml version="1.0" encoding="UTF-8"?>
<!--Generator: Apple Native CoreSVG 232.5-->
<!DOCTYPE svg
PUBLIC "-//W3C//DTD SVG 1.1//EN"
       "http://www.w3.org/Graphics/SVG/1.1/DTD/svg11.dtd">
<svg version="1.1" xmlns="http://www.w3.org/2000/svg" xmlns:xlink="http://www.w3.org/1999/xlink" width="99.6094" height="99.6582">
 <g>
  <rect height="99.6582" opacity="0" width="99.6094" x="0" y="0"/>
  <path d="M99.6094 49.8535C99.6094 77.0996 77.0508 99.6582 49.8047 99.6582C22.6074 99.6582 0 77.0996 0 49.8535C0 22.6562 22.5586 0.0488281 49.7559 0.0488281C77.002 0.0488281 99.6094 22.6562 99.6094 49.8535ZM43.2129 69.9707L39.5996 76.123C38.9648 77.2461 39.3066 78.6621 40.4785 79.2969C41.5527 79.9316 42.9199 79.4922 43.5547 78.4668L47.1191 72.2656C47.8027 71.1426 47.4609 69.7266 46.2891 69.0918C45.2148 68.457 43.7988 68.8965 43.2129 69.9707ZM64.502 69.9707L60.9375 76.123C60.2539 77.2461 60.6445 78.6621 61.7676 79.2969C62.8418 79.9316 64.2578 79.4922 64.8438 78.4668L68.5059 72.2656C69.0918 71.1426 68.75 69.7266 67.5781 69.0918C66.5039 68.457 65.0879 68.8965 64.502 69.9707ZM34.7656 62.5L31.2012 68.6523C30.5664 69.7266 30.9082 71.1914 32.0801 71.8262C33.1543 72.4609 34.5703 72.0703 35.1562 70.9473L38.7207 64.7949C39.4043 63.7207 39.0137 62.3047 37.8906 61.6211C36.8164 61.0352 35.4004 61.377 34.7656 62.5ZM56.1035 62.4512L52.5391 68.6035C51.8555 69.6777 52.1973 71.1426 53.3691 71.7773C54.4434 72.4121 55.8594 72.0215 56.4453 70.8984L60.0098 64.7461C60.6934 63.6719 60.3516 62.2559 59.1797 61.5723C58.1055 60.9863 56.6895 61.3281 56.1035 62.4512ZM29.9805 36.1328C25.6348 37.4023 22.3145 41.2109 22.3145 46.2891C22.3145 51.9531 26.4648 56.5918 33.6426 56.5918L63.623 56.5918C71.4355 56.5918 77.4414 50.6348 77.4414 43.1641C77.4414 35.4492 71.1426 29.8828 62.9883 29.8828C59.9121 23.9258 54.3457 20.0195 47.3633 20.0195C38.3301 20.0195 30.8105 27.1484 29.9805 36.1328Z" fill="#000000" fill-opacity="0.85"/>
 </g>
</svg>
