<?xml version="1.0" encoding="UTF-8"?>
<!--Generator: Apple Native CoreSVG 232.5-->
<!DOCTYPE svg
PUBLIC "-//W3C//DTD SVG 1.1//EN"
       "http://www.w3.org/Graphics/SVG/1.1/DTD/svg11.dtd">
<svg version="1.1" xmlns="http://www.w3.org/2000/svg" xmlns:xlink="http://www.w3.org/1999/xlink" width="116.455" height="115.283">
 <g>
  <rect height="115.283" opacity="0" width="116.455" x="0" y="0"/>
  <path d="M85.4004 93.457L88.6719 87.6953C89.5508 86.2305 89.1113 84.4727 87.6465 83.5938C86.1816 82.7637 84.4727 83.3008 83.5938 84.7168L80.2734 90.625C79.4922 91.9922 79.834 93.7012 81.3477 94.5801C82.8125 95.4102 84.5703 94.873 85.4004 93.457ZM76.7578 108.008C79.6387 108.008 82.0312 105.566 82.0312 102.637C82.0312 99.8047 79.6387 97.3633 76.7578 97.3633C73.8281 97.3633 71.4355 99.8047 71.4355 102.637C71.4355 105.566 73.8281 108.008 76.7578 108.008Z" fill="#000000" fill-opacity="0.85"/>
  <path d="M55.5176 100.732L63.1348 87.5488C63.9648 86.0352 63.5254 84.3262 62.1094 83.4961C60.5957 82.6172 58.8867 83.1055 58.0566 84.6191L50.3906 97.9004C49.5605 99.3164 50 101.025 51.5137 101.855C52.9297 102.686 54.7363 102.197 55.5176 100.732ZM46.875 115.283C49.7559 115.283 52.1973 112.842 52.1973 109.912C52.1973 107.08 49.8047 104.688 46.875 104.688C43.9941 104.688 41.6016 107.08 41.6016 109.912C41.6016 112.842 43.9941 115.283 46.875 115.283Z" fill="#000000" fill-opacity="0.85"/>
  <path d="M34.2285 93.2617L37.5 87.5C38.3789 86.0352 37.9395 84.2773 36.4746 83.3984C35.0098 82.5684 33.3008 83.1055 32.4219 84.5215L29.1016 90.4297C28.3203 91.7969 28.6621 93.5059 30.1758 94.3848C31.6406 95.2148 33.3984 94.7266 34.2285 93.2617ZM25.5859 107.812C28.4668 107.812 30.8594 105.371 30.8594 102.441C30.8594 99.6094 28.4668 97.2168 25.5859 97.2168C22.6562 97.2168 20.2637 99.6094 20.2637 102.441C20.2637 105.371 22.6562 107.812 25.5859 107.812Z" fill="#000000" fill-opacity="0.85"/>
  <path d="M27.9297 75.6836L88.5254 75.6836C104.541 75.6836 116.455 63.5254 116.455 48.4863C116.455 32.9102 103.76 21.5332 87.207 21.5332C81.1035 9.47266 69.7754 1.70898 55.6641 1.70898C37.3047 1.70898 22.168 16.1133 20.5566 34.2285C11.7188 36.8164 4.98047 44.4824 4.98047 54.7852C4.98047 66.3574 13.3789 75.6836 27.9297 75.6836ZM27.832 67.8711C17.8223 67.8711 12.793 62.2559 12.793 55.0293C12.793 49.1699 16.2109 43.8965 24.5117 41.6992C27.1973 40.9668 28.1738 39.6973 28.418 36.9629C29.541 20.9961 41.5039 9.52148 55.6641 9.52148C66.6504 9.52148 75.293 15.5762 80.5664 26.3672C81.6895 28.7598 83.1543 29.5898 86.0352 29.5898C100.488 29.5898 108.643 38.2812 108.643 48.6816C108.643 59.3262 100.146 67.8711 89.0137 67.8711Z" fill="#000000" fill-opacity="0.85"/>
 </g>
</svg>
