<?xml version="1.0" encoding="UTF-8"?>
<!--Generator: Apple Native CoreSVG 232.5-->
<!DOCTYPE svg
PUBLIC "-//W3C//DTD SVG 1.1//EN"
       "http://www.w3.org/Graphics/SVG/1.1/DTD/svg11.dtd">
<svg version="1.1" xmlns="http://www.w3.org/2000/svg" xmlns:xlink="http://www.w3.org/1999/xlink" width="136.279" height="122.926">
 <g>
  <rect height="122.926" opacity="0" width="136.279" x="0" y="0"/>
  <path d="M86.8164 106.263C88.2812 107.142 88.7695 108.851 87.8906 110.315L81.543 121.351C80.7129 122.815 78.9551 123.304 77.4902 122.474C75.9766 121.595 75.5859 119.886 76.416 118.519L82.8125 107.386C83.6914 105.921 85.3516 105.433 86.8164 106.263Z" fill="#000000" fill-opacity="0.85"/>
  <path d="M71.582 92.542C72.998 93.3721 73.4863 95.0811 72.6074 96.5948L66.2598 107.581C65.4297 109.046 63.6719 109.534 62.207 108.753C60.6934 107.874 60.3027 106.165 61.1328 104.749L67.5293 93.6651C68.4082 92.1514 70.0684 91.6631 71.582 92.542Z" fill="#000000" fill-opacity="0.85"/>
  <path d="M47.998 106.312C49.4629 107.19 49.9512 108.899 49.0234 110.364L42.6758 121.399C41.8457 122.864 40.0879 123.353 38.6719 122.522C37.1582 121.644 36.7188 119.935 37.5488 118.567L43.9453 107.435C44.873 105.97 46.5332 105.481 47.998 106.312Z" fill="#000000" fill-opacity="0.85"/>
  <path d="M32.7148 92.5909C34.1797 93.4209 34.668 95.1299 33.7891 96.6436L27.3926 107.63C26.5625 109.095 24.8047 109.583 23.3887 108.802C21.875 107.923 21.4355 106.214 22.2656 104.798L28.6621 93.7139C29.5898 92.2002 31.25 91.712 32.7148 92.5909Z" fill="#000000" fill-opacity="0.85"/>
  <path d="M105.225 4.21195C105.225 6.79984 101.758 11.5362 101.758 17.9815C101.758 29.212 108.984 36.0967 121.094 36.0967C127.979 36.0967 131.494 32.9717 133.887 32.9717C135.449 32.9717 136.279 34.3877 136.279 36.292C136.279 43.6023 128.466 56.813 112.293 59.0224C111.691 43.8331 99.995 32.3399 84.375 30.7256C82.9198 28.4418 81.2806 26.3546 79.4719 24.493C82.1954 11.2024 93.5053 2.11165 102.246 1.77054C104.15 1.72172 105.225 2.69828 105.225 4.21195Z" fill="#000000" fill-opacity="0.85"/>
  <path d="M28.8574 84.2901L81.7383 84.2901C95.5566 84.2901 106.299 73.8409 106.299 60.3155C106.299 46.8389 95.3613 36.6827 80.7617 36.585C75.0488 25.6963 64.8926 19.3487 53.0762 19.3487C37.207 19.3487 23.7305 31.7022 22.2656 47.7178C13.9648 50.208 8.64258 57.2393 8.64258 65.833C8.64258 76.7705 16.8945 84.2901 28.8574 84.2901Z" fill="#000000" fill-opacity="0.85"/>
 </g>
</svg>
