<?xml version="1.0" encoding="UTF-8"?>
<!--Generator: Apple Native CoreSVG 232.5-->
<!DOCTYPE svg
PUBLIC "-//W3C//DTD SVG 1.1//EN"
       "http://www.w3.org/Graphics/SVG/1.1/DTD/svg11.dtd">
<svg version="1.1" xmlns="http://www.w3.org/2000/svg" xmlns:xlink="http://www.w3.org/1999/xlink" width="151.172" height="103.271">
 <g>
  <rect height="103.271" opacity="0" width="151.172" x="0" y="0"/>
  <path d="M128.955 73.291L136.475 80.8105C138.037 82.4219 138.037 85.0098 136.475 86.5234C134.912 88.0859 132.324 88.1836 130.762 86.5723L123.193 79.0527C121.631 77.4902 121.631 74.8535 123.193 73.291C124.756 71.7773 127.344 71.7773 128.955 73.291ZM124.756 50.6836C124.756 61.4324 117.624 70.646 107.887 73.7637C107.86 71.2355 107.435 68.832 106.666 66.5972C113.057 64.1723 117.578 57.9676 117.578 50.6836C117.578 41.3086 110.01 33.6914 100.635 33.6914C91.4454 33.6914 83.945 41.0099 83.6704 50.1336C83.1847 50.0744 82.6833 50.0556 82.1777 50.0488C80.8766 47.6134 79.3425 45.3908 77.5961 43.4228C80.7072 33.6384 89.9184 26.4648 100.635 26.4648C113.867 26.4648 124.756 37.4023 124.756 50.6836ZM151.172 50.6836C151.172 52.9297 149.365 54.7852 147.168 54.7852L136.572 54.7852C134.424 54.7852 132.52 52.9297 132.52 50.6836C132.52 48.5352 134.424 46.6309 136.572 46.6309L147.168 46.6309C149.365 46.6309 151.172 48.5352 151.172 50.6836ZM136.475 14.8438C138.037 16.4551 138.037 19.0918 136.475 20.6543L129.004 28.1738C127.344 29.7852 124.756 29.6875 123.193 28.1738C121.631 26.5625 121.631 23.9746 123.193 22.4609L130.762 14.8438C132.324 13.2812 134.912 13.3301 136.475 14.8438ZM70.5078 14.8438L78.0762 22.4609C79.5898 23.9258 79.5898 26.6113 78.0273 28.1738C76.4648 29.6875 73.8281 29.7363 72.2656 28.1738L64.7949 20.6055C63.2324 19.0918 63.2812 16.4551 64.8438 14.8438C66.4062 13.3301 68.9941 13.3301 70.5078 14.8438ZM104.736 4.05273L104.736 14.6973C104.736 16.8457 102.832 18.7012 100.635 18.7012C98.4375 18.7012 96.582 16.8457 96.582 14.6973L96.582 4.05273C96.582 1.9043 98.4375 0 100.635 0C102.832 0 104.736 1.9043 104.736 4.05273Z" fill="#000000" fill-opacity="0.85"/>
  <path d="M29.9805 98.6816L82.8125 98.6816C96.9727 98.6816 107.91 88.0371 107.91 74.2188C107.91 60.5469 96.8262 50.2441 82.1777 50.0488C76.4648 39.3555 66.2598 32.7637 54.1992 32.7637C38.0371 32.7637 24.5117 45.2637 22.9004 61.3281C14.7461 63.8672 9.27734 70.8984 9.27734 79.7852C9.27734 90.8203 17.5293 98.6816 29.9805 98.6816ZM29.7852 90.8203C21.4844 90.8203 17.1387 86.084 17.1387 79.9805C17.1387 74.8535 20.1172 70.2637 27.2949 68.3594C29.6875 67.7246 30.5176 66.6504 30.7129 64.1602C31.8848 50.4883 42.041 40.625 54.1992 40.625C63.6719 40.625 70.9961 45.8496 75.5859 54.9805C76.6113 57.0801 77.832 57.7637 80.3223 57.7637C92.9199 57.7637 100.049 65.3809 100.049 74.4629C100.049 83.5449 92.627 90.8203 82.959 90.8203Z" fill="#000000" fill-opacity="0.85"/>
 </g>
</svg>
