<?xml version="1.0" encoding="UTF-8"?>
<!--Generator: Apple Native CoreSVG 232.5-->
<!DOCTYPE svg
PUBLIC "-//W3C//DTD SVG 1.1//EN"
       "http://www.w3.org/Graphics/SVG/1.1/DTD/svg11.dtd">
<svg version="1.1" xmlns="http://www.w3.org/2000/svg" xmlns:xlink="http://www.w3.org/1999/xlink" width="112.988" height="101.123">
 <g>
  <rect height="101.123" opacity="0" width="112.988" x="0" y="0"/>
  <path d="M112.988 46.1426C112.988 47.9004 111.523 49.3652 109.766 49.3652C100.478 49.3652 92.5536 55.068 89.2326 63.1383C87.8257 61.422 86.1482 59.9191 84.2461 58.6741C88.929 49.3366 98.5696 42.9688 109.766 42.9688C111.523 42.9688 112.988 44.3848 112.988 46.1426Z" fill="#000000" fill-opacity="0.85"/>
  <path d="M112.988 35.498C112.988 37.2559 111.523 38.6719 109.766 38.6719C97.0068 38.6719 85.9343 45.9717 80.4988 56.6256C78.574 55.7443 76.4826 55.1068 74.2648 54.7417C80.5071 41.4178 94.0031 32.2754 109.766 32.2754C111.523 32.2754 112.988 33.7402 112.988 35.498Z" fill="#000000" fill-opacity="0.85"/>
  <path d="M112.988 24.8047C112.988 26.5625 111.523 27.9785 109.766 27.9785C91.8829 27.9785 76.5332 38.811 69.8402 54.2405C68.6329 52.0239 67.2193 49.9929 65.6176 48.1845C73.966 32.3417 90.562 21.582 109.766 21.582C111.523 21.582 112.988 23.0469 112.988 24.8047Z" fill="#000000" fill-opacity="0.85"/>
  <path d="M112.988 14.1113C112.988 15.8691 111.523 17.334 109.766 17.334C89.4588 17.334 71.7506 28.5123 62.4659 45.0462C60.8326 43.619 59.0574 42.3913 57.1661 41.3769C67.585 23.1524 87.2117 10.9375 109.766 10.9375C111.523 10.9375 112.988 12.3535 112.988 14.1113Z" fill="#000000" fill-opacity="0.85"/>
  <path d="M112.988 3.4668C112.988 5.22461 111.523 6.64062 109.766 6.64062C85.5311 6.64062 64.4137 19.9329 53.2941 39.6276C51.2182 38.8687 49.0381 38.3416 46.7727 38.0788C58.7252 15.5389 82.4068 0.244141 109.766 0.244141C111.523 0.244141 112.988 1.66016 112.988 3.4668Z" fill="#000000" fill-opacity="0.85"/>
  <path d="M19.9219 101.123L70.3125 101.123C83.8867 101.123 94.4336 90.8203 94.4336 77.6367C94.4336 64.502 83.8379 54.5898 69.873 54.2969C64.3555 44.1406 54.541 37.8418 43.0664 37.8418C27.5391 37.8418 14.5996 49.8047 12.9883 65.1855C5.27344 67.627 0 74.4141 0 82.9102C0 93.5547 8.00781 101.123 19.9219 101.123ZM19.7754 93.2617C11.9141 93.2617 7.86133 88.8184 7.86133 83.0566C7.86133 78.2715 10.6445 74.0234 17.4805 72.2168C19.7754 71.582 20.7031 70.459 20.8984 68.0664C21.9727 55.0293 31.4941 45.752 43.0664 45.752C52.002 45.752 58.9355 50.6836 63.2324 59.3262C64.3066 61.3281 65.5273 62.1094 67.9688 62.1094C79.9316 62.1094 86.5723 69.2383 86.5723 77.832C86.5723 86.4258 79.6387 93.2617 70.459 93.2617Z" fill="#000000" fill-opacity="0.85"/>
 </g>
</svg>
