<?xml version="1.0" encoding="UTF-8"?>
<!--Generator: Apple Native CoreSVG 232.5-->
<!DOCTYPE svg
PUBLIC "-//W3C//DTD SVG 1.1//EN"
       "http://www.w3.org/Graphics/SVG/1.1/DTD/svg11.dtd">
<svg version="1.1" xmlns="http://www.w3.org/2000/svg" xmlns:xlink="http://www.w3.org/1999/xlink" width="99.6094" height="99.6582">
 <g>
  <rect height="99.6582" opacity="0" width="99.6094" x="0" y="0"/>
  <path d="M49.8047 99.6094C77.0508 99.6094 99.6094 77.002 99.6094 49.8047C99.6094 22.5586 77.002 0 49.7559 0C22.5586 0 0 22.5586 0 49.8047C0 77.002 22.6074 99.6094 49.8047 99.6094ZM49.8047 91.3086C26.7578 91.3086 8.34961 72.8516 8.34961 49.8047C8.34961 26.7578 26.709 8.30078 49.7559 8.30078C72.8027 8.30078 91.3086 26.7578 91.3086 49.8047C91.3086 72.8516 72.8516 91.3086 49.8047 91.3086Z" fill="#000000" fill-opacity="0.85"/>
  <path d="M34.082 56.3477L63.1836 56.3477C70.752 56.3477 76.5625 50.4883 76.5625 43.3105C76.5625 35.8398 70.459 30.3711 62.5488 30.3711C59.5703 24.6094 54.1504 20.8496 47.4121 20.8496C38.623 20.8496 31.3477 27.7832 30.5176 36.5234C26.3184 37.7441 23.0957 41.4062 23.0957 46.3379C23.0957 51.8555 27.0996 56.3477 34.082 56.3477ZM33.4961 70.2148L36.9629 64.209C37.5488 63.1836 37.207 61.7676 36.1328 61.1816C35.0586 60.5469 33.7402 60.9375 33.1055 62.0117L29.6387 67.9688C29.0039 69.043 29.3457 70.459 30.4688 71.0449C31.543 71.6797 32.8613 71.2891 33.4961 70.2148ZM40.3809 77.7344L48.2422 64.209C48.8281 63.1348 48.4863 61.7676 47.3633 61.1816C46.3379 60.5469 45.0195 60.8887 44.3848 62.0117L36.5234 75.5371C35.9375 76.5625 36.2793 77.9785 37.4023 78.5645C38.4277 79.1992 39.7461 78.8086 40.3809 77.7344ZM55.957 70.2148L59.4238 64.209C60.0586 63.1836 59.7168 61.7676 58.5938 61.1816C57.5684 60.5469 56.2012 60.9375 55.6152 62.0117L52.0996 67.9688C51.5137 69.043 51.8555 70.459 52.9785 71.0449C54.0039 71.6797 55.3223 71.2891 55.957 70.2148ZM62.8418 77.7344L70.7031 64.209C71.3379 63.1348 70.9473 61.7676 69.873 61.1816C68.7988 60.5469 67.4805 60.8887 66.8457 62.0117L59.0332 75.5371C58.3984 76.5625 58.7402 77.9785 59.8633 78.5645C60.8887 79.1992 62.2559 78.8086 62.8418 77.7344Z" fill="#000000" fill-opacity="0.85"/>
 </g>
</svg>
