<?xml version="1.0" encoding="UTF-8"?>
<!--Generator: Apple Native CoreSVG 232.5-->
<!DOCTYPE svg
PUBLIC "-//W3C//DTD SVG 1.1//EN"
       "http://www.w3.org/Graphics/SVG/1.1/DTD/svg11.dtd">
<svg version="1.1" xmlns="http://www.w3.org/2000/svg" xmlns:xlink="http://www.w3.org/1999/xlink" width="116.455" height="121.533">
 <g>
  <rect height="121.533" opacity="0" width="116.455" x="0" y="0"/>
  <path d="M74.2188 121.533C75.0977 121.533 75.7324 120.654 75.6836 119.775L75.3418 115.137L79.248 117.773C79.9316 118.213 81.0547 118.018 81.543 117.285C81.9824 116.553 81.7383 115.43 80.7617 114.99L76.5625 112.988L80.8105 110.889C81.7383 110.449 81.9336 109.375 81.5918 108.643C81.1523 107.861 79.9316 107.715 79.248 108.154L75.3418 110.889L75.7324 106.152C75.8301 105.225 75.0977 104.443 74.2188 104.443C73.1934 104.443 72.6074 105.225 72.6562 106.152L72.9492 110.889L68.9941 108.154C68.3105 107.715 67.2852 107.812 66.7969 108.643C66.3574 109.375 66.5527 110.4 67.4805 110.889L71.6797 112.988L67.4805 115.039C66.5527 115.479 66.3086 116.504 66.748 117.285C67.1875 118.115 68.3105 118.262 68.9941 117.773L72.9492 115.137L72.7051 119.775C72.6562 120.654 73.1934 121.533 74.2188 121.533Z" fill="#000000" fill-opacity="0.85"/>
  <path d="M47.168 121.533C48.0469 121.533 48.6816 120.654 48.6328 119.775L48.3398 115.137L52.1973 117.773C52.8809 118.213 54.0039 118.018 54.4922 117.285C54.9316 116.553 54.6875 115.43 53.7109 114.99L49.5117 112.988L53.7598 110.889C54.6875 110.449 54.8828 109.375 54.541 108.643C54.1016 107.861 52.8809 107.715 52.1973 108.154L48.3398 110.889L48.6816 106.152C48.7793 105.225 48.0469 104.443 47.168 104.443C46.1426 104.443 45.5566 105.225 45.6055 106.152L45.8984 110.889L41.9434 108.154C41.2598 107.715 40.2344 107.812 39.7461 108.643C39.3066 109.375 39.502 110.4 40.4297 110.889L44.6289 112.988L40.4297 115.039C39.502 115.479 39.2578 116.504 39.6973 117.285C40.1367 118.115 41.2598 118.262 41.9434 117.773L45.8984 115.137L45.6543 119.775C45.6055 120.654 46.1426 121.533 47.168 121.533Z" fill="#000000" fill-opacity="0.85"/>
  <path d="M20.1172 121.533C20.9961 121.533 21.6309 120.654 21.582 119.775L21.2891 115.137L25.1465 117.773C25.8789 118.213 26.9531 118.018 27.4414 117.285C27.8809 116.553 27.6367 115.43 26.6602 114.99L22.5098 112.988L26.709 110.889C27.6367 110.449 27.832 109.375 27.4902 108.643C27.0508 107.861 25.8789 107.715 25.1465 108.154L21.2891 110.889L21.6309 106.152C21.7285 105.225 20.9961 104.443 20.1172 104.443C19.0918 104.443 18.5059 105.225 18.5547 106.152L18.8477 110.889L14.9414 108.154C14.209 107.715 13.1836 107.812 12.6953 108.643C12.2559 109.375 12.4512 110.4 13.3789 110.889L17.5781 112.988L13.3789 115.039C12.4512 115.479 12.207 116.504 12.6465 117.285C13.0859 118.115 14.209 118.262 14.9414 117.773L18.8477 115.137L18.6035 119.775C18.5547 120.654 19.0918 121.533 20.1172 121.533Z" fill="#000000" fill-opacity="0.85"/>
  <path d="M84.8145 103.174C85.6934 103.174 86.3281 102.344 86.2793 101.465L85.9375 96.7773L89.8438 99.4141C90.5273 99.9023 91.6504 99.707 92.1387 98.9746C92.5781 98.2422 92.334 97.1191 91.3574 96.6797L87.1582 94.6289L91.4062 92.5293C92.334 92.0898 92.5293 91.0645 92.1875 90.2832C91.748 89.502 90.5273 89.3555 89.8438 89.8438L85.9375 92.5293L86.3281 87.8418C86.4258 86.9141 85.6934 86.1328 84.8145 86.1328C83.7891 86.1328 83.2031 86.9141 83.252 87.8418L83.5449 92.5293L79.5898 89.8438C78.9062 89.3555 77.8809 89.4531 77.3926 90.2832C76.9531 91.0645 77.1484 92.0898 78.0762 92.5293L82.2754 94.6289L78.0762 96.6797C77.1484 97.1191 76.9043 98.1934 77.3438 98.9746C77.7832 99.7559 78.9062 99.9023 79.5898 99.4629L83.5449 96.8262L83.3008 101.465C83.252 102.344 83.7891 103.174 84.8145 103.174Z" fill="#000000" fill-opacity="0.85"/>
  <path d="M57.7637 103.174C58.6426 103.174 59.2773 102.344 59.2285 101.465L58.9355 96.7773L62.793 99.4141C63.4766 99.9023 64.5996 99.707 65.0879 98.9746C65.5273 98.2422 65.2832 97.1191 64.3066 96.6797L60.1074 94.6289L64.3555 92.5293C65.2832 92.0898 65.4785 91.0645 65.1367 90.2832C64.6973 89.502 63.4766 89.3555 62.793 89.8438L58.9355 92.5293L59.2773 87.8418C59.375 86.9141 58.6426 86.1328 57.7637 86.1328C56.7383 86.1328 56.1523 86.9141 56.2012 87.8418L56.4941 92.5293L52.5391 89.8438C51.8555 89.3555 50.8301 89.4531 50.3418 90.2832C49.9023 91.0645 50.0977 92.0898 51.0254 92.5293L55.2246 94.6289L51.0254 96.6797C50.0977 97.1191 49.8535 98.1934 50.293 98.9746C50.7324 99.7559 51.8555 99.9023 52.5391 99.4629L56.4941 96.8262L56.25 101.465C56.2012 102.344 56.7383 103.174 57.7637 103.174Z" fill="#000000" fill-opacity="0.85"/>
  <path d="M30.7129 103.174C31.5918 103.174 32.2266 102.344 32.1777 101.465L31.8848 96.7773L35.7422 99.4141C36.4258 99.9023 37.5488 99.707 38.0371 98.9746C38.4766 98.2422 38.2324 97.1191 37.2559 96.6797L33.1055 94.6289L37.3047 92.5293C38.2324 92.0898 38.4277 91.0645 38.0859 90.2832C37.6465 89.502 36.4258 89.3555 35.7422 89.8438L31.8848 92.5293L32.2266 87.8418C32.3242 86.9141 31.5918 86.1328 30.7129 86.1328C29.6875 86.1328 29.1016 86.9141 29.1504 87.8418L29.4434 92.5293L25.5371 89.8438C24.8047 89.3555 23.7793 89.4531 23.291 90.2832C22.8516 91.0645 23.0469 92.0898 23.9746 92.5293L28.1738 94.6289L23.9746 96.6797C23.0469 97.1191 22.8027 98.1934 23.2422 98.9746C23.6816 99.7559 24.8047 99.9023 25.5371 99.4629L29.4434 96.8262L29.1992 101.465C29.1504 102.344 29.6875 103.174 30.7129 103.174Z" fill="#000000" fill-opacity="0.85"/>
  <path d="M27.9297 78.8086L88.5254 78.8086C104.541 78.8086 116.455 66.6504 116.455 51.6113C116.455 36.0352 103.76 24.6582 87.207 24.6582C81.1035 12.5977 69.7754 4.83398 55.6641 4.83398C37.3047 4.83398 22.168 19.2383 20.5566 37.3535C11.7188 39.9414 4.98047 47.6074 4.98047 57.9102C4.98047 69.4824 13.3789 78.8086 27.9297 78.8086Z" fill="#000000" fill-opacity="0.85"/>
 </g>
</svg>
