<?xml version="1.0" encoding="UTF-8"?>
<!--Generator: Apple Native CoreSVG 232.5-->
<!DOCTYPE svg
PUBLIC "-//W3C//DTD SVG 1.1//EN"
       "http://www.w3.org/Graphics/SVG/1.1/DTD/svg11.dtd">
<svg version="1.1" xmlns="http://www.w3.org/2000/svg" xmlns:xlink="http://www.w3.org/1999/xlink" width="99.6094" height="99.6582">
 <g>
  <rect height="99.6582" opacity="0" width="99.6094" x="0" y="0"/>
  <path d="M49.8047 99.6094C77.0508 99.6094 99.6094 77.002 99.6094 49.8047C99.6094 22.5586 77.002 0 49.7559 0C22.5586 0 0 22.5586 0 49.8047C0 77.002 22.6074 99.6094 49.8047 99.6094ZM49.8047 91.3086C26.7578 91.3086 8.34961 72.8516 8.34961 49.8047C8.34961 26.7578 26.709 8.30078 49.7559 8.30078C72.8027 8.30078 91.3086 26.7578 91.3086 49.8047C91.3086 72.8516 72.8516 91.3086 49.8047 91.3086Z" fill="#000000" fill-opacity="0.85"/>
  <path d="M26.8066 63.5742L51.0254 63.5742C57.6172 63.5742 62.6465 58.5449 62.6465 52.0996C62.6465 45.8008 57.5684 40.9668 50.7812 40.8203C48.1445 35.9375 43.5059 32.9102 37.8906 32.9102C30.4688 32.9102 24.2188 38.6719 23.3887 46.0449C19.7266 47.2656 17.1387 50.5371 17.1387 54.6875C17.1387 59.7656 20.9961 63.5742 26.8066 63.5742ZM46.3379 30.9082C47.2168 31.7871 48.6816 31.6895 49.5117 30.9082C50.293 30.0781 50.3906 28.6133 49.5117 27.7832L45.9961 24.3164C45.1172 23.4863 43.75 23.4863 42.8711 24.3164C42.041 25.0977 42.041 26.5137 42.8711 27.3926ZM59.4727 26.709C60.7422 26.709 61.7188 25.7324 61.7188 24.5117L61.7188 19.5801C61.7188 18.4082 60.7422 17.3828 59.4727 17.3828C58.3008 17.3828 57.2754 18.4082 57.2754 19.5801L57.2754 24.5117C57.2754 25.7324 58.3008 26.709 59.4727 26.709ZM69.5312 30.8594C70.3613 31.6895 71.875 31.7871 72.7539 30.9082L76.1719 27.3926C77.002 26.5625 76.9531 25.0977 76.1719 24.3164C75.293 23.4863 73.9258 23.4375 73.0469 24.3164L69.5312 27.7832C68.6523 28.6133 68.75 30.0293 69.5312 30.8594ZM75.9277 43.1152L80.7617 43.1152C82.0312 43.1152 83.0078 42.1387 83.0078 40.918C83.0078 39.6484 82.0312 38.7207 80.7617 38.7207L75.9277 38.7207C74.7559 38.7207 73.7305 39.6484 73.7305 40.918C73.7305 42.1387 74.7559 43.1152 75.9277 43.1152ZM73.0469 57.6172C73.9258 58.4961 75.293 58.3984 76.1719 57.5684C76.9531 56.6895 77.002 55.2246 76.1719 54.4434L72.7539 51.0254C71.875 50.1953 70.4102 50.1953 69.5312 51.0254C68.75 51.8555 68.6523 53.3203 69.5312 54.1504ZM70.9473 40.918C70.9473 34.5215 65.8691 29.541 59.4727 29.541C55.6152 29.541 52.1484 31.4941 50.1465 34.4727C51.1719 35.4004 52.002 36.4258 52.7832 37.6465C59.8145 38.5742 65.1855 43.6523 65.918 50.3906C69.043 48.1934 70.9473 44.7754 70.9473 40.918ZM28.7109 73.9258L31.4941 69.1406C32.0312 68.2617 31.7383 67.2363 30.8105 66.6992C29.9805 66.2109 28.9062 66.5527 28.418 67.3828L25.6348 72.168C25.1953 72.9492 25.4395 74.1211 26.3184 74.5117C27.1484 75.0488 28.2227 74.7559 28.7109 73.9258ZM34.9609 79.1016L37.5488 74.5605C37.9883 73.7793 37.793 72.6562 36.8652 72.168C35.9863 71.6797 34.9609 71.9727 34.4238 72.8516L31.7871 77.3438C31.2988 78.1738 31.6406 79.2969 32.5195 79.7363C33.3496 80.2734 34.4727 79.9316 34.9609 79.1016ZM44.4824 73.9258L47.2656 69.1406C47.7539 68.3105 47.4121 67.2363 46.582 66.748C45.7031 66.2109 44.6289 66.5039 44.1406 67.334L41.4062 72.1191C40.9668 72.9492 41.1621 74.0723 42.041 74.5605C42.9688 75 43.9941 74.707 44.4824 73.9258ZM50.6836 79.1016L53.3203 74.6094C53.7598 73.7793 53.4668 72.6074 52.5879 72.168C51.7578 71.7285 50.7324 71.9727 50.1953 72.8516L47.5586 77.3438C47.0215 78.2227 47.3633 79.2969 48.291 79.7852C49.1211 80.2734 50.1953 79.9316 50.6836 79.1016Z" fill="#000000" fill-opacity="0.85"/>
 </g>
</svg>
