<?xml version="1.0" encoding="UTF-8"?>
<!--Generator: Apple Native CoreSVG 232.5-->
<!DOCTYPE svg
PUBLIC "-//W3C//DTD SVG 1.1//EN"
       "http://www.w3.org/Graphics/SVG/1.1/DTD/svg11.dtd">
<svg version="1.1" xmlns="http://www.w3.org/2000/svg" xmlns:xlink="http://www.w3.org/1999/xlink" width="134.18" height="91.748">
 <g>
  <rect height="91.748" opacity="0" width="134.18" x="0" y="0"/>
  <path d="M102.637 5.61523C102.637 8.20312 99.2188 12.8906 99.2188 19.3848C99.2188 30.5664 106.396 37.5 118.506 37.5C125.391 37.5 128.955 34.375 131.348 34.375C132.91 34.375 133.74 35.7422 133.74 37.6465C133.74 45.0011 125.928 58.2149 109.755 60.4254C109.173 45.2591 97.4238 33.7447 81.8359 32.1289C80.3817 29.8364 78.7436 27.7444 76.9361 25.8807C79.6633 12.5879 90.963 3.46599 99.6582 3.125C101.611 3.07617 102.637 4.10156 102.637 5.61523Z" fill="#000000" fill-opacity="0.85"/>
  <path d="M26.3184 85.6934L79.1504 85.6934C93.0176 85.6934 103.76 75.1953 103.76 61.6699C103.76 48.2422 92.8223 38.0859 78.2227 37.9883C72.5098 27.0508 62.3047 20.7031 50.5371 20.7031C34.6191 20.7031 21.1914 33.0566 19.6777 49.1211C11.377 51.6113 6.05469 58.6426 6.05469 67.2363C6.05469 78.1738 14.3066 85.6934 26.3184 85.6934Z" fill="#000000" fill-opacity="0.85"/>
 </g>
</svg>
