<?xml version="1.0" encoding="UTF-8"?>
<!--Generator: Apple Native CoreSVG 232.5-->
<!DOCTYPE svg
PUBLIC "-//W3C//DTD SVG 1.1//EN"
       "http://www.w3.org/Graphics/SVG/1.1/DTD/svg11.dtd">
<svg version="1.1" xmlns="http://www.w3.org/2000/svg" xmlns:xlink="http://www.w3.org/1999/xlink" width="151.172" height="142.206">
 <g>
  <rect height="142.206" opacity="0" width="151.172" x="0" y="0"/>
  <path d="M65.6738 109.946L61.2155 118.393L70.8984 118.393C72.3145 118.393 72.6562 119.712 71.6309 120.737L50.9766 141.635C50.5371 142.172 50 142.319 49.5605 142.124C49.0723 141.928 48.9258 141.44 49.2188 140.756L55.4917 125.669L47.3145 125.669C46.0938 125.669 45.5566 124.936 46.0449 123.764L52.2949 109.555C52.7344 108.579 53.1738 108.09 54.541 108.09L64.7461 108.09C65.8203 108.09 66.2598 108.872 65.6738 109.946Z" fill="#000000" fill-opacity="0.85"/>
  <path d="M128.955 75.6197L136.426 83.1392C137.988 84.7017 137.988 87.2896 136.426 88.8521C134.863 90.4146 132.324 90.4146 130.762 88.8521L123.193 81.2838C121.631 79.7213 121.68 77.1822 123.193 75.6197C124.707 74.0572 127.344 74.0084 128.955 75.6197ZM124.951 53.0611C124.951 61.7541 120.375 69.3752 113.484 73.6249C112.112 59.2981 100.701 48.5625 85.6445 47.0064C84.0504 44.4934 82.2353 42.2214 80.2206 40.224C84.4812 33.3811 92.0753 28.8424 100.732 28.8424C114.111 28.8424 124.951 39.6822 124.951 53.0611ZM151.172 53.0611C151.172 55.3072 149.365 57.1139 147.168 57.1139L136.572 57.1139C134.424 57.1139 132.52 55.3072 132.52 53.0611C132.52 50.815 134.424 49.0084 136.572 49.0084L147.168 49.0084C149.365 49.0084 151.172 50.815 151.172 53.0611ZM136.426 17.3189C137.988 18.8814 137.988 21.4693 136.426 23.0318L128.955 30.5025C127.344 32.1139 124.707 32.065 123.193 30.5025C121.68 28.94 121.631 26.401 123.193 24.8385L130.762 17.3189C132.324 15.7076 134.863 15.7564 136.426 17.3189ZM70.5566 17.2701L78.0762 24.8385C79.6387 26.401 79.5898 28.94 78.0762 30.5025C76.5625 32.065 73.9258 32.1139 72.3145 30.5025L64.8926 23.0318C63.2812 21.4205 63.3301 18.8326 64.8926 17.2701C66.4551 15.7076 68.9941 15.7076 70.5566 17.2701ZM104.688 6.47908L104.688 17.026C104.688 19.2232 102.881 21.0787 100.635 21.0787C98.3887 21.0787 96.582 19.2232 96.582 17.026L96.582 6.47908C96.582 4.28182 98.3887 2.42635 100.635 2.42635C102.881 2.42635 104.688 4.28182 104.688 6.47908Z" fill="#000000" fill-opacity="0.85"/>
  <path d="M30.1758 100.571L83.0078 100.571C96.8262 100.571 107.568 90.0728 107.568 76.5474C107.568 63.1197 96.6309 52.9635 82.0312 52.8658C76.3184 41.9283 66.1621 35.6295 54.3457 35.6295C38.4766 35.6295 25 47.9342 23.5352 63.9986C15.2344 66.4889 9.91211 73.5201 9.91211 82.1139C9.91211 93.0514 18.1641 100.571 30.1758 100.571Z" fill="#000000" fill-opacity="0.85"/>
 </g>
</svg>
