<?xml version="1.0" encoding="UTF-8"?>
<!--Generator: Apple Native CoreSVG 232.5-->
<!DOCTYPE svg
PUBLIC "-//W3C//DTD SVG 1.1//EN"
       "http://www.w3.org/Graphics/SVG/1.1/DTD/svg11.dtd">
<svg version="1.1" xmlns="http://www.w3.org/2000/svg" xmlns:xlink="http://www.w3.org/1999/xlink" width="99.6094" height="99.6582">
 <g>
  <rect height="99.6582" opacity="0" width="99.6094" x="0" y="0"/>
  <path d="M99.6094 49.8535C99.6094 77.0996 77.0508 99.6582 49.8047 99.6582C22.6074 99.6582 0 77.0996 0 49.8535C0 22.6562 22.5586 0.0488281 49.7559 0.0488281C77.002 0.0488281 99.6094 22.6562 99.6094 49.8535ZM50.1953 73.6328L47.5098 78.2715C46.9727 79.1504 47.3145 80.2734 48.2422 80.8105C49.1211 81.2988 50.2441 80.957 50.7324 80.127L53.4668 75.4395C53.9062 74.6094 53.6133 73.3887 52.6855 72.9492C51.8555 72.4609 50.7812 72.8027 50.1953 73.6328ZM33.9355 73.6328L31.25 78.2715C30.7129 79.1504 31.1035 80.2734 31.9824 80.8105C32.8613 81.2988 34.0332 80.957 34.5215 80.0781L37.1582 75.4395C37.6465 74.6094 37.4512 73.4375 36.4746 72.9492C35.5469 72.4609 34.5215 72.7539 33.9355 73.6328ZM27.7344 68.0176L24.9023 72.9004C24.4141 73.7793 24.707 74.9512 25.5859 75.3906C26.4648 75.8789 27.5879 75.5859 28.0762 74.7559L30.9082 69.8242C31.4941 68.9453 31.2012 67.8223 30.2246 67.334C29.3457 66.7969 28.2715 67.1387 27.7344 68.0176ZM43.9453 67.9199L41.1621 72.8516C40.7227 73.7305 40.918 74.9023 41.7969 75.3906C42.7734 75.8301 43.8477 75.5859 44.3359 74.707L47.2168 69.873C47.7051 68.9453 47.3633 67.8711 46.4844 67.334C45.6055 66.8457 44.4824 67.0898 43.9453 67.9199ZM22.5586 45.9961C18.7988 47.3145 16.1133 50.6348 16.1133 54.9316C16.1133 60.2051 20.1172 64.0625 26.0742 64.0625L51.0742 64.0625C57.8613 64.0625 63.0371 58.8867 63.0371 52.2461C63.0371 45.8008 57.8125 40.8203 50.7812 40.6738C48.0957 35.6445 43.3105 32.4707 37.5 32.4707C29.8828 32.4707 23.4375 38.4277 22.5586 45.9961ZM70.1172 51.123C69.3359 52.002 69.2383 53.5156 70.1172 54.4434L73.7305 58.0078C74.6582 58.8379 76.0742 58.7402 76.9531 57.959C77.7832 56.9824 77.832 55.4688 76.9531 54.6387L73.4375 51.123C72.5586 50.293 71.0449 50.293 70.1172 51.123ZM50.1465 34.082C51.2207 35.0586 52.0508 36.1328 52.8809 37.4023C60.1074 38.2812 65.6738 43.5547 66.4062 50.5371C69.6289 48.2422 71.582 44.6777 71.582 40.7227C71.582 34.1797 66.3574 29.0039 59.7656 29.0039C55.8105 29.0039 52.1973 31.0059 50.1465 34.082ZM76.709 38.4277C75.5371 38.4277 74.4629 39.4043 74.4629 40.7227C74.4629 41.9922 75.5371 43.0176 76.709 43.0176L81.6895 43.0176C83.0078 43.0176 84.0332 41.9922 84.0332 40.7227C84.0332 39.4043 83.0078 38.4277 81.6895 38.4277ZM42.627 23.6328C41.7969 24.4141 41.7969 25.9277 42.627 26.8555L46.1914 30.4688C47.1191 31.3477 48.6328 31.25 49.5117 30.4199C50.293 29.541 50.3906 28.0273 49.5117 27.1973L45.8984 23.6328C44.9707 22.7539 43.5547 22.7539 42.627 23.6328ZM73.7305 23.6328L70.1172 27.1973C69.2383 28.0273 69.3359 29.541 70.1172 30.4199C70.9961 31.25 72.5586 31.3477 73.4375 30.4688L76.9531 26.8555C77.832 25.9277 77.7832 24.4141 76.9531 23.6328C76.0742 22.7539 74.6582 22.7051 73.7305 23.6328ZM57.4707 18.7988L57.4707 23.8281C57.4707 25.0488 58.5449 26.0742 59.7656 26.0742C61.084 26.0742 62.1094 25.0488 62.1094 23.8281L62.1094 18.7988C62.1094 17.5293 61.084 16.5039 59.7656 16.5039C58.5449 16.5039 57.4707 17.5293 57.4707 18.7988Z" fill="#000000" fill-opacity="0.85"/>
 </g>
</svg>
