<?xml version="1.0" encoding="UTF-8"?>
<!--Generator: Apple Native CoreSVG 232.5-->
<!DOCTYPE svg
PUBLIC "-//W3C//DTD SVG 1.1//EN"
       "http://www.w3.org/Graphics/SVG/1.1/DTD/svg11.dtd">
<svg version="1.1" xmlns="http://www.w3.org/2000/svg" xmlns:xlink="http://www.w3.org/1999/xlink" width="99.6094" height="99.6582">
 <g>
  <rect height="99.6582" opacity="0" width="99.6094" x="0" y="0"/>
  <path d="M49.8047 99.6094C77.0508 99.6094 99.6094 77.002 99.6094 49.8047C99.6094 22.5586 77.002 0 49.7559 0C22.5586 0 0 22.5586 0 49.8047C0 77.002 22.6074 99.6094 49.8047 99.6094ZM49.8047 91.3086C26.7578 91.3086 8.34961 72.8516 8.34961 49.8047C8.34961 26.7578 26.709 8.30078 49.7559 8.30078C72.8027 8.30078 91.3086 26.7578 91.3086 49.8047C91.3086 72.8516 72.8516 91.3086 49.8047 91.3086Z" fill="#000000" fill-opacity="0.85"/>
  <path d="M26.123 70.2148L51.709 70.2148C58.6914 70.2148 63.9648 64.9902 63.9648 58.1543C63.9648 51.5137 58.6426 46.4355 51.4648 46.2891C48.6816 41.1133 43.7988 37.8906 37.8418 37.8906C29.9805 37.8906 23.3887 43.9941 22.5586 51.7578C18.6523 53.0273 15.8691 56.4941 15.8691 60.8398C15.8691 66.2598 20.0195 70.2148 26.123 70.2148ZM46.7773 35.791C47.6562 36.7188 49.2188 36.6211 50.1465 35.7422C50.9277 34.8633 50.9766 33.3496 50.1465 32.4707L46.3867 28.8086C45.459 27.9297 43.9941 27.9297 43.1152 28.8086C42.2852 29.6387 42.2852 31.1523 43.1152 32.0801ZM60.6934 31.3477C62.0117 31.3477 63.0371 30.2734 63.0371 29.0039L63.0371 23.8281C63.0371 22.5098 62.0117 21.4844 60.6934 21.4844C59.4238 21.4844 58.3008 22.5098 58.3008 23.8281L58.3008 29.0039C58.3008 30.2734 59.4238 31.3477 60.6934 31.3477ZM71.2891 35.7422C72.168 36.6211 73.7793 36.7188 74.6582 35.791L78.3203 32.0801C79.1504 31.1523 79.1504 29.6387 78.3203 28.8086C77.3926 27.9297 75.8789 27.8809 74.9512 28.8086L71.2891 32.4707C70.4102 33.3496 70.459 34.8633 71.2891 35.7422ZM78.0762 48.6816L83.1543 48.6816C84.4727 48.6816 85.498 47.6074 85.498 46.3379C85.498 45.0195 84.4727 44.043 83.1543 44.043L78.0762 44.043C76.7578 44.043 75.6836 45.0195 75.6836 46.3379C75.6836 47.6074 76.7578 48.6816 78.0762 48.6816ZM74.9512 63.9648C75.8789 64.9414 77.3926 64.7949 78.3203 63.916C79.1504 62.9883 79.1992 61.4746 78.3203 60.6445L74.6582 57.0312C73.7305 56.1035 72.2168 56.1035 71.2891 57.0312C70.459 57.9102 70.4102 59.375 71.2891 60.3027ZM72.7539 46.3379C72.7539 39.5996 67.3828 34.3262 60.6934 34.3262C56.543 34.3262 52.8809 36.377 50.7812 39.5508C51.8555 40.5273 52.7832 41.6016 53.5645 42.8711C60.9863 43.8477 66.6992 49.2188 67.4316 56.3477C70.752 54.0039 72.7539 50.3906 72.7539 46.3379Z" fill="#000000" fill-opacity="0.85"/>
 </g>
</svg>
