<?xml version="1.0" encoding="UTF-8"?>
<!--Generator: Apple Native CoreSVG 232.5-->
<!DOCTYPE svg
PUBLIC "-//W3C//DTD SVG 1.1//EN"
       "http://www.w3.org/Graphics/SVG/1.1/DTD/svg11.dtd">
<svg version="1.1" xmlns="http://www.w3.org/2000/svg" xmlns:xlink="http://www.w3.org/1999/xlink" width="99.6094" height="99.6582">
 <g>
  <rect height="99.6582" opacity="0" width="99.6094" x="0" y="0"/>
  <path d="M49.8047 99.6094C77.0508 99.6094 99.6094 77.002 99.6094 49.8047C99.6094 22.5586 77.002 0 49.7559 0C22.5586 0 0 22.5586 0 49.8047C0 77.002 22.6074 99.6094 49.8047 99.6094ZM49.8047 91.3086C26.7578 91.3086 8.34961 72.8516 8.34961 49.8047C8.34961 26.7578 26.709 8.30078 49.7559 8.30078C72.8027 8.30078 91.3086 26.7578 91.3086 49.8047C91.3086 72.8516 72.8516 91.3086 49.8047 91.3086Z" fill="#000000" fill-opacity="0.85"/>
  <path d="M34.082 54.6387L63.1836 54.6387C70.752 54.6387 76.5625 48.7793 76.5625 41.5527C76.5625 34.082 70.459 28.6621 62.5488 28.6621C59.5703 22.9004 54.1504 19.0918 47.4121 19.0918C38.623 19.0918 31.3477 26.0742 30.5176 34.7656C26.3184 35.9863 23.0957 39.6484 23.0957 44.6289C23.0957 50.1465 27.0996 54.6387 34.082 54.6387ZM41.6016 68.457C41.2109 69.1895 41.5527 69.7754 42.3828 69.7754L47.4609 69.7754L43.5059 79.4434C43.3105 79.8828 43.4082 80.2734 43.7012 80.4199C43.9941 80.5176 44.3359 80.4199 44.6777 80.0781L57.8125 66.6504C58.4473 65.9668 58.2031 65.0879 57.2754 65.0879L51.3184 65.0879L54.1992 59.5703C54.4922 58.9355 54.2969 58.3496 53.5645 58.3496L47.0703 58.3496C46.2402 58.3496 45.8496 58.6426 45.5566 59.2773Z" fill="#000000" fill-opacity="0.85"/>
 </g>
</svg>
