<?xml version="1.0" encoding="UTF-8"?>
<!--Generator: Apple Native CoreSVG 232.5-->
<!DOCTYPE svg
PUBLIC "-//W3C//DTD SVG 1.1//EN"
       "http://www.w3.org/Graphics/SVG/1.1/DTD/svg11.dtd">
<svg version="1.1" xmlns="http://www.w3.org/2000/svg" xmlns:xlink="http://www.w3.org/1999/xlink" width="116.455" height="112.578">
 <g>
  <rect height="112.578" opacity="0" width="116.455" x="0" y="0"/>
  <path d="M77.3926 111.098L91.8457 86.0985C92.6758 84.6336 92.2363 82.8758 90.7715 82.1434C89.3555 81.3621 87.6465 81.7039 86.8164 83.2176L72.4609 108.12C71.582 109.585 72.0215 111.294 73.4375 112.173C74.8047 113.003 76.6113 112.514 77.3926 111.098Z" fill="#000000" fill-opacity="0.85"/>
  <path d="M58.1055 111.05L72.4121 86.1961C73.291 84.6336 72.8516 82.9735 71.3867 82.1434C69.873 81.2645 68.2129 81.7039 67.334 83.2664L52.9785 108.218C52.1973 109.585 52.5391 111.294 54.0527 112.173C55.5176 113.003 57.2754 112.514 58.1055 111.05Z" fill="#000000" fill-opacity="0.85"/>
  <path d="M38.6719 111.05L52.9785 86.1961C53.8574 84.6336 53.418 82.9735 51.9531 82.1434C50.4395 81.2645 48.7793 81.7039 47.9004 83.2664L33.5449 108.218C32.7637 109.585 33.1055 111.294 34.6191 112.173C36.084 113.003 37.8418 112.514 38.6719 111.05Z" fill="#000000" fill-opacity="0.85"/>
  <path d="M19.1895 111.05L33.5449 86.1961C34.4238 84.6336 33.9355 82.9735 32.4707 82.1434C31.0059 81.2645 29.3457 81.7039 28.4668 83.2664L14.0625 108.218C13.2812 109.585 13.6719 111.294 15.1367 112.173C16.6016 113.003 18.3594 112.514 19.1895 111.05Z" fill="#000000" fill-opacity="0.85"/>
  <path d="M27.9297 74.3309L88.5254 74.3309C104.541 74.3309 116.455 62.1727 116.455 47.1336C116.455 31.5575 103.76 20.1805 87.207 20.1805C81.1035 8.11995 69.7754 0.356283 55.6641 0.356283C37.3047 0.356283 22.168 14.7606 20.5566 32.8758C11.7188 35.4637 4.98047 43.1297 4.98047 53.4325C4.98047 65.0047 13.3789 74.3309 27.9297 74.3309Z" fill="#000000" fill-opacity="0.85"/>
 </g>
</svg>
