<?xml version="1.0" encoding="UTF-8"?>
<!--Generator: Apple Native CoreSVG 232.5-->
<!DOCTYPE svg
PUBLIC "-//W3C//DTD SVG 1.1//EN"
       "http://www.w3.org/Graphics/SVG/1.1/DTD/svg11.dtd">
<svg version="1.1" xmlns="http://www.w3.org/2000/svg" xmlns:xlink="http://www.w3.org/1999/xlink" width="116.455" height="122.577">
 <g>
  <rect height="122.577" opacity="0" width="116.455" x="0" y="0"/>
  <path d="M72.4609 97.4459L61.377 97.4459L61.2793 99.6431L67.2363 88.2174C67.8223 87.1431 67.3828 86.3131 66.3086 86.3131L55.7129 86.3131C54.2969 86.3131 53.8086 86.8014 53.3691 87.8267L46.7285 102.963C46.1914 104.184 46.7285 104.917 47.998 104.917L57.0312 104.917L57.666 102.036L49.8047 121.128C49.5605 121.762 49.707 122.299 50.1465 122.495C50.5859 122.69 51.123 122.544 51.6602 122.006L73.2422 99.8873C74.2676 98.8131 73.877 97.4459 72.4609 97.4459Z" fill="#000000" fill-opacity="0.85"/>
  <path d="M27.9297 79.3306L88.5254 79.3306C104.541 79.3306 116.455 67.1724 116.455 52.1334C116.455 36.5572 103.76 25.1803 87.207 25.1803C81.1035 13.1197 69.7754 5.35604 55.6641 5.35604C37.3047 5.35604 22.168 19.7603 20.5566 37.8756C11.7188 40.4635 4.98047 48.1295 4.98047 58.4322C4.98047 70.0045 13.3789 79.3306 27.9297 79.3306ZM27.832 71.5181C17.8223 71.5181 12.793 65.9029 12.793 58.6764C12.793 52.817 16.2109 47.5435 24.5117 45.3463C27.1973 44.6139 28.1738 43.3443 28.418 40.6099C29.541 24.6431 41.5039 13.1685 55.6641 13.1685C66.6504 13.1685 75.293 19.2232 80.5664 30.0142C81.6895 32.4068 83.1543 33.2369 86.0352 33.2369C100.488 33.2369 108.643 41.9283 108.643 52.3287C108.643 62.9732 100.146 71.5181 89.0137 71.5181Z" fill="#000000" fill-opacity="0.85"/>
 </g>
</svg>
