<?xml version="1.0" encoding="UTF-8"?>
<!--Generator: Apple Native CoreSVG 232.5-->
<!DOCTYPE svg
PUBLIC "-//W3C//DTD SVG 1.1//EN"
       "http://www.w3.org/Graphics/SVG/1.1/DTD/svg11.dtd">
<svg version="1.1" xmlns="http://www.w3.org/2000/svg" xmlns:xlink="http://www.w3.org/1999/xlink" width="151.172" height="137.549">
 <g>
  <rect height="137.549" opacity="0" width="151.172" x="0" y="0"/>
  <path d="M89.0625 120.361C90.5273 121.191 91.0156 122.949 90.1367 124.414L83.7402 135.449C82.959 136.865 81.1523 137.354 79.7363 136.572C78.2227 135.693 77.7832 133.984 78.6133 132.568L85.0098 121.484C85.9375 119.971 87.5977 119.482 89.0625 120.361Z" fill="#000000" fill-opacity="0.85"/>
  <path d="M73.7793 106.592C75.2441 107.471 75.7324 109.18 74.8535 110.693L68.5059 121.68C67.6758 123.145 65.918 123.633 64.4531 122.803C62.9395 121.973 62.5488 120.215 63.3789 118.848L69.7754 107.715C70.6543 106.25 72.3145 105.762 73.7793 106.592Z" fill="#000000" fill-opacity="0.85"/>
  <path d="M50.2441 120.41C51.6602 121.24 52.1484 122.998 51.2695 124.463L44.9219 135.498C44.0918 136.914 42.334 137.402 40.8691 136.621C39.4043 135.742 38.9648 134.033 39.7949 132.617L46.1914 121.533C47.0703 120.02 48.7305 119.531 50.2441 120.41Z" fill="#000000" fill-opacity="0.85"/>
  <path d="M34.9609 106.641C36.4258 107.52 36.8652 109.229 35.9863 110.742L29.6387 121.729C28.8086 123.193 27.0508 123.682 25.5859 122.852C24.1211 122.021 23.6816 120.264 24.5117 118.896L30.9082 107.764C31.7871 106.299 33.4473 105.811 34.9609 106.641Z" fill="#000000" fill-opacity="0.85"/>
  <path d="M128.906 73.291L136.475 80.8105C138.037 82.373 138.037 84.9609 136.475 86.4746C134.912 88.0371 132.324 88.0859 130.811 86.5234L123.193 79.0039C121.631 77.4414 121.631 74.8535 123.193 73.291C124.756 71.7773 127.344 71.7773 128.906 73.291ZM124.756 50.6836C124.756 59.3555 120.058 67.0627 113.094 71.3218C111.726 57.0773 100.32 46.3866 85.3516 44.9219C83.788 42.4536 81.997 40.2025 79.9973 38.2107C84.235 31.1878 91.9394 26.4648 100.635 26.4648C113.818 26.4648 124.756 37.4023 124.756 50.6836ZM151.172 50.6836C151.172 52.9297 149.365 54.7363 147.168 54.7363L136.572 54.7363C134.424 54.7363 132.52 52.9297 132.52 50.6836C132.52 48.4863 134.424 46.6309 136.572 46.6309L147.168 46.6309C149.365 46.6309 151.172 48.4863 151.172 50.6836ZM136.475 14.8926C138.037 16.4551 138.037 19.0918 136.475 20.6543L128.955 28.125C127.344 29.7363 124.756 29.6875 123.193 28.125C121.631 26.5625 121.631 23.9746 123.193 22.4609L130.811 14.8926C132.324 13.2812 134.912 13.3301 136.475 14.8926ZM70.5566 14.8926L78.0762 22.4609C79.5898 23.9258 79.5898 26.6113 78.0273 28.125C76.4648 29.6875 73.877 29.6875 72.3145 28.125L64.8438 20.6055C63.2812 19.0918 63.3301 16.4551 64.8926 14.8926C66.4551 13.3301 69.043 13.3301 70.5566 14.8926ZM104.688 4.05273L104.688 14.6484C104.688 16.8457 102.832 18.6523 100.635 18.6523C98.4375 18.6523 96.582 16.8457 96.582 14.6484L96.582 4.05273C96.582 1.9043 98.4375-1.42109e-14 100.635-1.42109e-14C102.832-1.42109e-14 104.688 1.9043 104.688 4.05273Z" fill="#000000" fill-opacity="0.85"/>
  <path d="M30.0293 98.3398L82.8613 98.3398C96.7773 98.3398 107.568 87.793 107.568 74.2187C107.568 60.7422 96.582 50.5371 81.9824 50.4395C76.3672 39.7461 66.2598 33.2031 54.1992 33.2031C38.2812 33.2031 24.8047 45.5566 23.291 61.6211C15.1855 64.0625 9.66797 70.9961 9.66797 79.7852C9.66797 90.625 17.8223 98.3398 30.0293 98.3398Z" fill="#000000" fill-opacity="0.85"/>
 </g>
</svg>
