<?xml version="1.0" encoding="UTF-8"?>
<!--Generator: Apple Native CoreSVG 232.5-->
<!DOCTYPE svg
PUBLIC "-//W3C//DTD SVG 1.1//EN"
       "http://www.w3.org/Graphics/SVG/1.1/DTD/svg11.dtd">
<svg version="1.1" xmlns="http://www.w3.org/2000/svg" xmlns:xlink="http://www.w3.org/1999/xlink" width="99.6094" height="99.6582">
 <g>
  <rect height="99.6582" opacity="0" width="99.6094" x="0" y="0"/>
  <path d="M49.8047 99.6094C77.0508 99.6094 99.6094 77.002 99.6094 49.8047C99.6094 22.5586 77.002 0 49.7559 0C22.5586 0 0 22.5586 0 49.8047C0 77.002 22.6074 99.6094 49.8047 99.6094ZM49.8047 91.3086C26.7578 91.3086 8.34961 72.8516 8.34961 49.8047C8.34961 26.7578 26.709 8.30078 49.7559 8.30078C72.8027 8.30078 91.3086 26.7578 91.3086 49.8047C91.3086 72.8516 72.8516 91.3086 49.8047 91.3086Z" fill="#000000" fill-opacity="0.85"/>
  <path d="M27.7344 69.8242L53.3691 69.8242C60.3027 69.8242 65.625 64.5996 65.625 57.7637C65.625 51.0742 60.3027 46.0449 53.0762 45.8496C50.3418 40.6738 45.4102 37.5 39.502 37.5C31.6406 37.5 25.0488 43.6035 24.1699 51.3184C20.2637 52.6367 17.5293 56.1035 17.5293 60.4492C17.5293 65.8691 21.6797 69.8242 27.7344 69.8242ZM82.373 44.7754C82.373 43.7988 81.9824 43.1641 81.2012 43.1641C80.0293 43.1641 78.2227 44.6777 74.9023 44.6777C68.8965 44.6777 65.0879 41.1133 65.0879 35.5957C65.0879 32.373 66.8457 30.0293 66.8457 28.7598C66.8457 28.0273 66.2598 27.5391 65.332 27.5391C60.498 27.7832 54.3945 33.4961 53.6133 40.625C54.1504 41.2109 54.6387 41.8945 55.127 42.5781C62.6953 43.5059 68.3594 49.1211 68.9941 56.3965C77.3438 55.6152 82.373 48.9746 82.373 44.7754Z" fill="#000000" fill-opacity="0.85"/>
 </g>
</svg>
