<?xml version="1.0" encoding="UTF-8"?>
<!--Generator: Apple Native CoreSVG 232.5-->
<!DOCTYPE svg
PUBLIC "-//W3C//DTD SVG 1.1//EN"
       "http://www.w3.org/Graphics/SVG/1.1/DTD/svg11.dtd">
<svg version="1.1" xmlns="http://www.w3.org/2000/svg" xmlns:xlink="http://www.w3.org/1999/xlink" width="135.059" height="128.534">
 <g>
  <rect height="128.534" opacity="0" width="135.059" x="0" y="0"/>
  <path d="M63.2324 96.274L58.7741 104.721L68.457 104.721C69.873 104.721 70.2148 106.04 69.1895 107.065L48.5352 127.963C48.0957 128.501 47.5586 128.647 47.1191 128.452C46.6309 128.256 46.4844 127.768 46.7773 127.085L53.0503 111.997L44.873 111.997C43.6523 111.997 43.1152 111.264 43.6035 110.092L49.8535 95.8834C50.293 94.9068 50.7324 94.4185 52.0996 94.4185L62.3047 94.4185C63.3789 94.4185 63.8184 95.1998 63.2324 96.274Z" fill="#000000" fill-opacity="0.85"/>
  <path d="M103.955 6.86971C103.955 9.4576 100.537 14.1451 100.537 20.6392C100.537 31.8209 107.764 38.7545 119.873 38.7545C126.709 38.7545 130.273 35.6295 132.666 35.6295C134.229 35.6295 135.059 36.9967 135.059 38.901C135.059 46.2555 127.246 59.4692 111.074 61.6798C110.493 46.5136 98.7897 34.9992 83.1543 33.3834C81.7 31.0909 80.0619 28.9989 78.2545 27.1352C80.9817 13.8424 92.2814 4.72046 100.977 4.37948C102.93 4.33065 103.955 5.35604 103.955 6.86971Z" fill="#000000" fill-opacity="0.85"/>
  <path d="M27.6367 86.9478L80.4688 86.9478C94.3359 86.9478 105.078 76.4498 105.078 62.9244C105.078 49.4967 94.1406 39.3404 79.541 39.2428C73.8281 28.3053 63.6719 22.0064 51.8555 22.0064C35.9863 22.0064 22.5098 34.3111 21.0449 50.3756C12.6953 52.8658 7.37305 59.8971 7.37305 68.4908C7.37305 79.4283 15.625 86.9478 27.6367 86.9478Z" fill="#000000" fill-opacity="0.85"/>
 </g>
</svg>
