<?xml version="1.0" encoding="UTF-8"?>
<!--Generator: Apple Native CoreSVG 232.5-->
<!DOCTYPE svg
PUBLIC "-//W3C//DTD SVG 1.1//EN"
       "http://www.w3.org/Graphics/SVG/1.1/DTD/svg11.dtd">
<svg version="1.1" xmlns="http://www.w3.org/2000/svg" xmlns:xlink="http://www.w3.org/1999/xlink" width="99.6094" height="99.6582">
 <g>
  <rect height="99.6582" opacity="0" width="99.6094" x="0" y="0"/>
  <path d="M49.8047 99.6094C77.0508 99.6094 99.6094 77.002 99.6094 49.8047C99.6094 22.5586 77.002 0 49.7559 0C22.5586 0 0 22.5586 0 49.8047C0 77.002 22.6074 99.6094 49.8047 99.6094ZM49.8047 91.3086C26.7578 91.3086 8.34961 72.8516 8.34961 49.8047C8.34961 26.7578 26.709 8.30078 49.7559 8.30078C72.8027 8.30078 91.3086 26.7578 91.3086 49.8047C91.3086 72.8516 72.8516 91.3086 49.8047 91.3086Z" fill="#000000" fill-opacity="0.85"/>
  <path d="M28.7598 61.5723L52.9785 61.5723C59.5703 61.5723 64.5996 56.543 64.5996 50.0977C64.5996 43.7988 59.5215 39.0137 52.7832 38.8672C50.1465 33.9355 45.459 30.9082 39.8438 30.9082C32.4219 30.9082 26.1719 36.6699 25.3906 44.043C21.6797 45.3125 19.0918 48.5352 19.0918 52.6855C19.0918 57.8125 22.998 61.5723 28.7598 61.5723ZM80.6641 37.6465C80.6641 36.7676 80.2734 36.1816 79.541 36.1816C78.4668 36.1816 76.6602 37.5488 73.5352 37.5488C67.8223 37.5488 64.209 34.2285 64.209 28.9551C64.209 25.9277 65.918 23.7305 65.918 22.4609C65.918 21.7773 65.332 21.2891 64.4531 21.3379C59.8145 21.5332 54.0527 27.002 53.2715 33.7402C53.8086 34.3262 54.248 34.9609 54.7363 35.5957C61.9629 36.4746 67.2852 41.8457 67.9688 48.7793C75.8301 47.9492 80.6641 41.748 80.6641 37.6465ZM35.0098 72.4121C34.7168 72.998 35.0098 73.4863 35.6445 73.4863L39.8438 73.4863L36.5723 81.3965C36.3281 82.0312 37.0605 82.4219 37.5977 81.8848L48.3887 70.8984C48.877 70.3613 48.6328 69.6289 47.9004 69.6289L42.9688 69.6289L45.3125 65.1855C45.6055 64.6484 45.4102 64.1602 44.7754 64.1602L39.502 64.1602C38.8184 64.1602 38.4766 64.4043 38.2324 64.9414Z" fill="#000000" fill-opacity="0.85"/>
 </g>
</svg>
