<?xml version="1.0" encoding="UTF-8"?>
<!--Generator: Apple Native CoreSVG 232.5-->
<!DOCTYPE svg
PUBLIC "-//W3C//DTD SVG 1.1//EN"
       "http://www.w3.org/Graphics/SVG/1.1/DTD/svg11.dtd">
<svg version="1.1" xmlns="http://www.w3.org/2000/svg" xmlns:xlink="http://www.w3.org/1999/xlink" width="99.6094" height="99.6582">
 <g>
  <rect height="99.6582" opacity="0" width="99.6094" x="0" y="0"/>
  <path d="M99.6094 49.8535C99.6094 77.0996 77.0508 99.6582 49.8047 99.6582C22.6074 99.6582 0 77.0996 0 49.8535C0 22.6562 22.5586 0.0488281 49.7559 0.0488281C77.002 0.0488281 99.6094 22.6562 99.6094 49.8535ZM52.2461 71.582L49.5117 76.1719C49.0234 77.0996 49.3652 78.2227 50.293 78.7109C51.123 79.1992 52.2461 78.9062 52.7344 78.0273L55.4688 73.3887C55.9082 72.5098 55.6641 71.3379 54.7363 70.8496C53.8574 70.4102 52.7832 70.7031 52.2461 71.582ZM35.9863 71.5332L33.252 76.1719C32.7637 77.0996 33.1055 78.2227 34.082 78.7109C34.8633 79.1992 36.0352 78.8574 36.5234 78.0273L39.209 73.3887C39.6973 72.5098 39.4531 71.3379 38.4766 70.8496C37.5977 70.4102 36.5234 70.7031 35.9863 71.5332ZM29.834 65.918L26.9531 70.8496C26.4648 71.6797 26.709 72.8516 27.6367 73.291C28.4668 73.8281 29.6387 73.4863 30.0781 72.7051L32.959 67.7734C33.4961 66.8457 33.2031 65.8203 32.2266 65.2344C31.4453 64.7461 30.2734 65.0391 29.834 65.918ZM45.9961 65.8691L43.1641 70.8008C42.7246 71.6309 42.9199 72.8516 43.8965 73.291C44.7754 73.8281 45.8496 73.4863 46.3379 72.6562L49.2188 67.7734C49.7559 66.8457 49.4141 65.8203 48.4863 65.2344C47.6074 64.7461 46.4844 65.0391 45.9961 65.8691ZM24.6094 43.8965C20.8008 45.2148 18.1641 48.5352 18.1641 52.832C18.1641 58.1055 22.168 62.0117 28.125 62.0117L53.0762 62.0117C59.8633 62.0117 65.0391 56.8359 65.0391 50.1953C65.0391 43.7012 59.8145 38.7207 52.8809 38.5742C50.1465 33.5449 45.3125 30.3711 39.5508 30.3711C31.8848 30.3711 25.4395 36.377 24.6094 43.8965ZM53.3691 33.3008C53.9062 33.8867 54.3945 34.5703 54.8828 35.2051C62.3535 36.1816 67.8223 41.6504 68.5059 48.7793C76.6113 47.998 81.5918 41.5527 81.5918 37.3535C81.5918 36.4258 81.2012 35.791 80.4688 35.791C79.3457 35.791 77.4902 37.2559 74.2676 37.2559C68.3594 37.2559 64.6484 33.7891 64.6484 28.3691C64.6484 25.2441 66.4062 22.998 66.4062 21.7285C66.4062 20.9473 65.8203 20.5078 64.8926 20.5078C60.1562 20.752 54.1992 26.3184 53.3691 33.3008Z" fill="#000000" fill-opacity="0.85"/>
 </g>
</svg>
