<?xml version="1.0" encoding="UTF-8"?>
<!--Generator: Apple Native CoreSVG 232.5-->
<!DOCTYPE svg
PUBLIC "-//W3C//DTD SVG 1.1//EN"
       "http://www.w3.org/Graphics/SVG/1.1/DTD/svg11.dtd">
<svg version="1.1" xmlns="http://www.w3.org/2000/svg" xmlns:xlink="http://www.w3.org/1999/xlink" width="135.274" height="128.827">
 <g>
  <rect height="128.827" opacity="0" width="135.274" x="0" y="0"/>
  <path d="M62.852 96.567L58.3679 105.063L68.0766 105.063C69.4438 105.063 69.7856 106.381 68.809 107.407L48.1547 128.256C47.6664 128.794 47.1293 128.94 46.6899 128.745C46.2504 128.598 46.1039 128.061 46.3969 127.426L52.649 112.29L44.4926 112.29C43.2231 112.29 42.7348 111.557 43.2231 110.385L49.4731 96.1764C49.9125 95.2486 50.352 94.7115 51.6703 94.7115L61.8754 94.7115C62.9496 94.7115 63.3891 95.4928 62.852 96.567Z" fill="#000000" fill-opacity="0.85"/>
  <path d="M102.598 8.38338C102.598 11.1178 100.889 14.1451 100.889 19.6627C100.889 31.0885 107.481 37.9244 119.932 37.9244C125.108 37.9244 127.5 36.6549 130.43 36.6549C134.239 36.6549 136.338 40.1705 134.727 44.0767C131.135 53.5109 121.156 62.6632 105.558 62.9891C105.535 60.409 105.102 57.9569 104.309 55.6815C104.418 55.697 104.533 55.6978 104.649 55.6978C115.538 55.6978 124.18 50.1803 127.549 43.8326L127.207 43.4908C124.961 44.2232 121.739 44.8092 118.272 44.8092C104.063 44.8092 93.8578 35.2877 93.8578 21.1275C93.8578 17.3678 94.5902 14.0963 95.4203 11.7037L94.8832 11.3619C88.4867 14.8287 82.8227 22.2017 82.8227 32.065C82.8227 34.7169 83.153 37.2187 83.782 39.5275C82.5118 39.3156 81.1931 39.2119 79.8441 39.1939C78.6622 36.9816 77.288 34.9468 75.7349 33.1227C75.6977 32.8271 75.6938 32.5199 75.6938 32.2115C75.6938 18.2955 84.4828 7.26033 94.8344 3.84237C99.1313 2.37752 102.598 4.37948 102.598 8.38338Z" fill="#000000" fill-opacity="0.85"/>
  <path d="M27.6469 87.8267L80.4789 87.8267C94.5902 87.8267 105.577 77.1334 105.577 63.3639C105.577 49.692 94.4926 39.3892 79.8441 39.1939C74.1313 28.5006 63.9262 21.9576 51.8656 21.9576C35.7035 21.9576 22.1781 34.4088 20.5668 50.4732C12.4613 53.0123 6.94376 60.0435 6.94376 68.9303C6.94376 79.9166 15.2445 87.8267 27.6469 87.8267ZM27.4516 80.0142C19.1508 80.0142 14.7563 75.2291 14.7563 69.1256C14.7563 63.9498 17.7836 59.3599 24.9613 57.4556C27.3051 56.8697 28.184 55.7955 28.3793 53.3053C29.5024 39.6334 39.6586 29.7701 51.8656 29.7701C61.3383 29.7701 68.7113 34.9947 73.2524 44.0767C74.3266 46.1764 75.4984 46.9088 77.9887 46.9088C90.6352 46.9088 97.7152 54.526 97.7152 63.608C97.7152 72.69 90.2934 80.0142 80.6254 80.0142Z" fill="#000000" fill-opacity="0.85"/>
 </g>
</svg>
