<?xml version="1.0" encoding="UTF-8"?>
<!--Generator: Apple Native CoreSVG 232.5-->
<!DOCTYPE svg
PUBLIC "-//W3C//DTD SVG 1.1//EN"
       "http://www.w3.org/Graphics/SVG/1.1/DTD/svg11.dtd">
<svg version="1.1" xmlns="http://www.w3.org/2000/svg" xmlns:xlink="http://www.w3.org/1999/xlink" width="99.6094" height="99.6582">
 <g>
  <rect height="99.6582" opacity="0" width="99.6094" x="0" y="0"/>
  <path d="M49.8047 99.6094C77.0508 99.6094 99.6094 77.002 99.6094 49.8047C99.6094 22.5586 77.002 0 49.7559 0C22.5586 0 0 22.5586 0 49.8047C0 77.002 22.6074 99.6094 49.8047 99.6094ZM49.8047 91.3086C26.7578 91.3086 8.34961 72.8516 8.34961 49.8047C8.34961 26.7578 26.709 8.30078 49.7559 8.30078C72.8027 8.30078 91.3086 26.7578 91.3086 49.8047C91.3086 72.8516 72.8516 91.3086 49.8047 91.3086Z" fill="#000000" fill-opacity="0.85"/>
  <path d="M26.8066 62.9395L51.0254 62.9395C57.6172 62.9395 62.6465 57.9102 62.6465 51.4648C62.6465 45.2148 57.5684 40.3809 50.7812 40.2344C48.1445 35.3516 43.5059 32.2754 37.8906 32.2754C30.4688 32.2754 24.2188 38.0371 23.3887 45.4102C19.7266 46.6797 17.1387 49.9023 17.1387 54.0527C17.1387 59.1797 20.9961 62.9395 26.8066 62.9395ZM46.3379 30.2734C47.2168 31.2012 48.6816 31.1035 49.5117 30.2734C50.293 29.4434 50.3906 27.9785 49.5117 27.1484L45.9961 23.6816C45.1172 22.8516 43.75 22.8516 42.8711 23.6816C42.041 24.4629 42.041 25.9277 42.8711 26.8066ZM59.4727 26.0742C60.7422 26.0742 61.7188 25.0977 61.7188 23.877L61.7188 18.9941C61.7188 17.7734 60.7422 16.7969 59.4727 16.7969C58.3008 16.7969 57.2754 17.7734 57.2754 18.9941L57.2754 23.877C57.2754 25.0977 58.3008 26.0742 59.4727 26.0742ZM69.5312 30.2246C70.3613 31.1035 71.875 31.2012 72.7539 30.2734L76.1719 26.8066C77.002 25.9277 76.9531 24.4629 76.1719 23.6816C75.293 22.8516 73.9258 22.8027 73.0469 23.6816L69.5312 27.1484C68.6523 27.9785 68.75 29.4434 69.5312 30.2246ZM75.9277 42.4805L80.7617 42.4805C82.0312 42.4805 83.0078 41.5039 83.0078 40.2832C83.0078 39.0137 82.0312 38.0859 80.7617 38.0859L75.9277 38.0859C74.7559 38.0859 73.7305 39.0137 73.7305 40.2832C73.7305 41.5039 74.7559 42.4805 75.9277 42.4805ZM73.0469 56.9824C73.9258 57.8613 75.293 57.7637 76.1719 56.9336C76.9531 56.0547 77.002 54.5898 76.1719 53.8086L72.7539 50.3906C71.875 49.5605 70.4102 49.5605 69.5312 50.3906C68.75 51.2207 68.6523 52.6855 69.5312 53.5645ZM70.9473 40.2832C70.9473 33.9355 65.8691 28.9062 59.4727 28.9062C55.6152 28.9062 52.1484 30.8594 50.1465 33.8379C51.1719 34.8145 52.002 35.8398 52.7832 37.0605C59.8145 37.9395 65.1855 43.0176 65.918 49.8047C69.043 47.5586 70.9473 44.1406 70.9473 40.2832ZM33.0078 73.7793C32.7637 74.3652 33.0078 74.8535 33.6914 74.8535L37.8906 74.8535L34.6191 82.7637C34.375 83.3984 35.1074 83.7891 35.5957 83.252L46.3867 72.2656C46.9238 71.7285 46.6797 70.9961 45.9473 70.9961L41.0156 70.9961L43.3594 66.5527C43.6523 66.0156 43.4082 65.5273 42.8223 65.5273L37.5488 65.5273C36.8164 65.5273 36.5234 65.7715 36.2793 66.3086Z" fill="#000000" fill-opacity="0.85"/>
 </g>
</svg>
