<?xml version="1.0" encoding="UTF-8"?>
<!--Generator: Apple Native CoreSVG 232.5-->
<!DOCTYPE svg
PUBLIC "-//W3C//DTD SVG 1.1//EN"
       "http://www.w3.org/Graphics/SVG/1.1/DTD/svg11.dtd">
<svg version="1.1" xmlns="http://www.w3.org/2000/svg" xmlns:xlink="http://www.w3.org/1999/xlink" width="99.6094" height="99.6582">
 <g>
  <rect height="99.6582" opacity="0" width="99.6094" x="0" y="0"/>
  <path d="M49.8047 99.6094C77.0508 99.6094 99.6094 77.002 99.6094 49.8047C99.6094 22.5586 77.002 0 49.7559 0C22.5586 0 0 22.5586 0 49.8047C0 77.002 22.6074 99.6094 49.8047 99.6094ZM49.8047 91.3086C26.7578 91.3086 8.34961 72.8516 8.34961 49.8047C8.34961 26.7578 26.709 8.30078 49.7559 8.30078C72.8027 8.30078 91.3086 26.7578 91.3086 49.8047C91.3086 72.8516 72.8516 91.3086 49.8047 91.3086Z" fill="#000000" fill-opacity="0.85"/>
  <path d="M35.2051 54.4922L64.2578 54.4922C71.875 54.4922 77.6367 48.6328 77.6367 41.4551C77.6367 33.9355 71.5332 28.5156 63.623 28.5156C60.6934 22.7539 55.2734 18.9941 48.5352 18.9941C39.6973 18.9941 32.4707 25.9277 31.6406 34.6191C27.4414 35.8887 24.2188 39.502 24.2188 44.4824C24.2188 50 28.2227 54.4922 35.2051 54.4922ZM38.1348 67.041L40.8691 62.3535C41.4062 61.3281 41.1133 59.9121 39.9902 59.2773C38.9648 58.6914 37.5977 59.1309 37.0117 60.1562L34.2773 64.8438C33.7402 65.8203 34.0332 67.2852 35.1074 67.8711C36.1816 68.5059 37.5488 68.0664 38.1348 67.041ZM51.5137 67.041L54.248 62.3535C54.834 61.3281 54.541 59.9121 53.418 59.2773C52.3926 58.6914 50.9766 59.1309 50.4395 60.1562L47.7051 64.8438C47.1191 65.8203 47.4121 67.2852 48.5352 67.8711C49.5605 68.5059 50.9766 68.0664 51.5137 67.041ZM64.8926 67.041L67.627 62.3535C68.1641 61.3281 67.8711 59.9121 66.7969 59.2773C65.7227 58.6914 64.3555 59.1309 63.7695 60.1562L61.0352 64.8438C60.498 65.8203 60.791 67.2852 61.8652 67.8711C62.9395 68.5059 64.3066 68.0664 64.8926 67.041ZM32.2754 78.7598C32.9102 78.7598 33.4473 78.2227 33.3984 77.4902L33.252 75.5859L34.8145 76.6602C35.3516 77.002 36.1328 76.7578 36.4746 76.3184C36.8164 75.7812 36.7676 74.9023 35.9863 74.5117L34.2773 73.7793L35.9863 72.9004C36.6699 72.5586 36.8164 71.8262 36.5723 71.2891C36.2305 70.6543 35.3516 70.5566 34.8145 70.8984L33.252 71.9238L33.3984 70.0684C33.4473 69.2871 32.9102 68.75 32.2754 68.75C31.4941 68.75 31.0059 69.3359 31.0547 70.0684L31.1523 71.9238L29.5898 70.8984C29.1016 70.5566 28.2715 70.6055 27.9297 71.2402C27.6855 71.6797 27.6855 72.6074 28.4668 72.9492L30.0781 73.7793L28.4668 74.5117C27.6855 74.9023 27.5391 75.6836 27.8809 76.2207C28.2227 76.9043 29.0527 77.002 29.5898 76.6602L31.1523 75.5859L31.1035 77.4902C31.1035 78.1738 31.4941 78.7598 32.2754 78.7598ZM45.6543 78.7598C46.2891 78.7598 46.8262 78.2227 46.7773 77.4902L46.6797 75.5859L48.1934 76.6602C48.7305 77.002 49.5605 76.7578 49.8535 76.3184C50.2441 75.7812 50.1465 74.9023 49.3652 74.5117L47.7051 73.7793L49.3652 72.9004C50.0977 72.5586 50.1953 71.8262 49.9512 71.2891C49.6582 70.6543 48.7305 70.5566 48.1934 70.8984L46.6797 71.9238L46.7773 70.0684C46.8262 69.2871 46.2891 68.75 45.6543 68.75C44.9219 68.75 44.3848 69.3359 44.4336 70.0684L44.5801 71.9238L42.9688 70.8984C42.4805 70.5566 41.6992 70.6055 41.3574 71.2402C41.0645 71.6797 41.1133 72.6074 41.8457 72.9492L43.5059 73.7793L41.8457 74.5117C41.1133 74.9023 40.9668 75.6836 41.2598 76.2207C41.6016 76.9043 42.4316 77.002 42.9688 76.6602L44.5801 75.5859L44.4824 77.4902C44.4824 78.1738 44.9219 78.7598 45.6543 78.7598ZM59.0332 78.7598C59.668 78.7598 60.2051 78.2227 60.1562 77.4902L60.0586 75.5859L61.5723 76.6602C62.1094 77.002 62.8906 76.7578 63.2324 76.3184C63.623 75.7812 63.5254 74.9023 62.7441 74.5117L61.0352 73.7793L62.7441 72.9004C63.4277 72.5586 63.5742 71.8262 63.3301 71.2891C62.9883 70.6543 62.1094 70.5566 61.5723 70.8984L60.0586 71.9238L60.1562 70.0684C60.2051 69.2871 59.668 68.75 59.0332 68.75C58.252 68.75 57.7637 69.3359 57.8125 70.0684L57.9102 71.9238L56.3477 70.8984C55.8594 70.5566 55.0293 70.6055 54.6875 71.2402C54.4434 71.6797 54.4434 72.6074 55.2246 72.9492L56.8359 73.7793L55.2246 74.5117C54.4434 74.9023 54.2969 75.6836 54.6387 76.2207C54.9805 76.9043 55.8105 77.002 56.3477 76.6602L57.9102 75.5859L57.8613 77.4902C57.8613 78.1738 58.252 78.7598 59.0332 78.7598Z" fill="#000000" fill-opacity="0.85"/>
 </g>
</svg>
