<?xml version="1.0" encoding="UTF-8"?>
<!--Generator: Apple Native CoreSVG 232.5-->
<!DOCTYPE svg
PUBLIC "-//W3C//DTD SVG 1.1//EN"
       "http://www.w3.org/Graphics/SVG/1.1/DTD/svg11.dtd">
<svg version="1.1" xmlns="http://www.w3.org/2000/svg" xmlns:xlink="http://www.w3.org/1999/xlink" width="99.6094" height="99.6582">
 <g>
  <rect height="99.6582" opacity="0" width="99.6094" x="0" y="0"/>
  <path d="M99.6094 49.8535C99.6094 77.0996 77.0508 99.6582 49.8047 99.6582C22.6074 99.6582 0 77.0996 0 49.8535C0 22.6562 22.5586 0.0488281 49.7559 0.0488281C77.002 0.0488281 99.6094 22.6562 99.6094 49.8535ZM44.1895 62.4512L36.084 76.3672C35.498 77.4902 35.8398 78.9062 37.0117 79.541C38.0859 80.1758 39.4531 79.7363 40.0879 78.6621L48.1934 64.7461C48.7793 63.623 48.4375 62.2559 47.2656 61.5723C46.2402 60.9863 44.873 61.2793 44.1895 62.4512ZM67.3828 62.4512L59.3262 76.3672C58.6914 77.4902 59.0332 78.9062 60.2051 79.541C61.2305 80.1758 62.6465 79.7363 63.2812 78.6621L71.3867 64.7461C72.0215 63.623 71.6309 62.2559 70.5078 61.5723C69.3848 60.9863 68.0176 61.2793 67.3828 62.4512ZM32.5684 62.4512L29.0039 68.6035C28.3203 69.6777 28.7109 71.1426 29.834 71.7285C30.957 72.4121 32.3242 72.0215 33.0078 70.8984L36.5723 64.7461C37.1582 63.6719 36.8164 62.2559 35.6934 61.5723C34.5703 60.9863 33.2031 61.3281 32.5684 62.4512ZM55.8105 62.4512L52.1973 68.6035C51.5625 69.6777 51.9043 71.1426 53.0762 71.7285C54.1504 72.4121 55.5176 72.0215 56.1523 70.8984L59.7168 64.7461C60.4004 63.6719 60.0586 62.2559 58.8867 61.5723C57.8125 60.9863 56.3965 61.3281 55.8105 62.4512ZM29.9316 36.1328C25.5859 37.4023 22.2656 41.2109 22.2656 46.2891C22.2656 51.9531 26.416 56.5918 33.5938 56.5918L63.5742 56.5918C71.3867 56.5918 77.3926 50.5859 77.3926 43.1641C77.3926 35.4492 71.0938 29.834 62.9395 29.834C59.8633 23.9258 54.2969 19.9707 47.3145 19.9707C38.2812 19.9707 30.7617 27.1484 29.9316 36.1328Z" fill="#000000" fill-opacity="0.85"/>
 </g>
</svg>
