<?xml version="1.0" encoding="UTF-8"?>
<!--Generator: Apple Native CoreSVG 232.5-->
<!DOCTYPE svg
PUBLIC "-//W3C//DTD SVG 1.1//EN"
       "http://www.w3.org/Graphics/SVG/1.1/DTD/svg11.dtd">
<svg version="1.1" xmlns="http://www.w3.org/2000/svg" xmlns:xlink="http://www.w3.org/1999/xlink" width="99.6094" height="99.6582">
 <g>
  <rect height="99.6582" opacity="0" width="99.6094" x="0" y="0"/>
  <path d="M49.8047 99.6094C77.0508 99.6094 99.6094 77.002 99.6094 49.8047C99.6094 22.5586 77.002 0 49.7559 0C22.5586 0 0 22.5586 0 49.8047C0 77.002 22.6074 99.6094 49.8047 99.6094ZM49.8047 91.3086C26.7578 91.3086 8.34961 72.8516 8.34961 49.8047C8.34961 26.7578 26.709 8.30078 49.7559 8.30078C72.8027 8.30078 91.3086 26.7578 91.3086 49.8047C91.3086 72.8516 72.8516 91.3086 49.8047 91.3086Z" fill="#000000" fill-opacity="0.85"/>
  <path d="M34.4727 54.6387L63.5742 54.6387C71.1426 54.6387 76.9531 48.7793 76.9531 41.6016C76.9531 34.082 70.8496 28.6621 62.9395 28.6621C59.9609 22.9004 54.541 19.1406 47.8027 19.1406C39.0137 19.1406 31.7383 26.0742 30.9082 34.7656C26.709 36.0352 23.4863 39.6484 23.4863 44.6289C23.4863 50.1465 27.4902 54.6387 34.4727 54.6387ZM41.2109 75.4395L48.6816 62.5C49.3652 61.377 48.9746 60.0586 47.8516 59.4238C46.7773 58.8379 45.5078 59.1797 44.873 60.3027L37.3535 73.1934C36.7188 74.2676 37.0605 75.6348 38.1836 76.2695C39.2578 76.8555 40.5762 76.5137 41.2109 75.4395ZM63.3789 75.4395L70.8984 62.5C71.582 61.377 71.1914 60.0586 70.0684 59.4238C68.9941 58.8379 67.7246 59.1797 67.041 60.3027L59.5703 73.1934C58.9355 74.2676 59.2773 75.6348 60.4004 76.2695C61.4746 76.8555 62.793 76.5137 63.3789 75.4395ZM52.2949 75.4395L59.7656 62.5C60.4492 61.377 60.0586 60.0586 58.9355 59.4238C57.8613 58.8379 56.5918 59.1797 55.9082 60.3027L48.4375 73.1934C47.8027 74.2676 48.1445 75.6348 49.2676 76.2695C50.3418 76.8555 51.6602 76.5137 52.2949 75.4395ZM30.0781 75.4395L37.5488 62.5C38.2324 61.377 37.8418 60.0586 36.7188 59.4238C35.6934 58.8379 34.375 59.1797 33.7402 60.3027L26.2207 73.1934C25.5859 74.2676 25.9277 75.6348 27.0508 76.2695C28.125 76.8555 29.4434 76.5137 30.0781 75.4395Z" fill="#000000" fill-opacity="0.85"/>
 </g>
</svg>
