<?xml version="1.0" encoding="UTF-8"?>
<!--Generator: Apple Native CoreSVG 232.5-->
<!DOCTYPE svg
PUBLIC "-//W3C//DTD SVG 1.1//EN"
       "http://www.w3.org/Graphics/SVG/1.1/DTD/svg11.dtd">
<svg version="1.1" xmlns="http://www.w3.org/2000/svg" xmlns:xlink="http://www.w3.org/1999/xlink" width="134.005" height="86.5081">
 <g>
  <rect height="86.5081" opacity="0" width="134.005" x="0" y="0"/>
  <path d="M101.329 4.99724C101.329 7.73161 99.6195 10.759 99.6195 16.2765C99.6195 27.7023 106.211 34.5383 118.663 34.5383C123.838 34.5383 126.231 33.2687 129.161 33.2687C132.969 33.2687 135.069 36.7843 133.457 40.7394C129.866 50.1257 119.886 59.2771 104.288 59.603C104.266 57.0418 103.839 54.6069 103.058 52.345C103.161 52.3598 103.27 52.3605 103.379 52.3605C114.268 52.3605 122.911 46.7941 126.28 40.4465L125.938 40.1047C123.692 40.8371 120.469 41.423 117.002 41.423C102.793 41.423 92.5883 31.9015 92.5883 17.7414C92.5883 13.9816 93.3207 10.7101 94.1508 8.36638L93.6137 7.97575C87.2172 11.4914 81.5531 18.8156 81.5531 28.6789C81.5531 31.3288 81.883 33.8307 82.5109 36.1411C81.2413 35.9294 79.923 35.8258 78.5746 35.8078C77.3927 33.5954 76.0184 31.5607 74.4654 29.7365C74.4282 29.4409 74.4242 29.1338 74.4242 28.8254C74.4242 14.9093 83.2133 3.87419 93.5649 0.505051C97.8617-1.00862 101.329 0.993332 101.329 4.99724Z" fill="#000000" fill-opacity="0.85"/>
  <path d="M26.3774 84.4406L79.2094 84.4406C93.3207 84.4406 104.307 73.7472 104.307 59.9777C104.307 46.3058 93.2231 36.0031 78.5746 35.8078C72.8617 25.1144 62.6566 18.5715 50.5961 18.5715C34.434 18.5715 20.9086 31.0226 19.2973 47.0871C11.1918 49.6261 5.67423 56.6574 5.67423 65.5441C5.67423 76.5304 13.975 84.4406 26.3774 84.4406ZM26.182 76.6281C17.8813 76.6281 13.4867 71.8429 13.4867 65.7394C13.4867 60.5636 16.5141 56.0226 23.6918 54.0695C26.0356 53.4836 26.9145 52.4093 27.1098 49.9191C28.2328 36.2472 38.3891 26.384 50.5961 26.384C60.0688 26.384 67.4418 31.6086 71.9828 40.6906C73.057 42.7902 74.2289 43.5226 76.7191 43.5226C89.3656 43.5226 96.4457 51.1398 96.4457 60.2218C96.4457 69.3039 89.0238 76.6281 79.3559 76.6281Z" fill="#000000" fill-opacity="0.85"/>
 </g>
</svg>
