<?xml version="1.0" encoding="UTF-8"?>
<!--Generator: Apple Native CoreSVG 232.5-->
<!DOCTYPE svg
PUBLIC "-//W3C//DTD SVG 1.1//EN"
       "http://www.w3.org/Graphics/SVG/1.1/DTD/svg11.dtd">
<svg version="1.1" xmlns="http://www.w3.org/2000/svg" xmlns:xlink="http://www.w3.org/1999/xlink" width="99.6094" height="99.6582">
 <g>
  <rect height="99.6582" opacity="0" width="99.6094" x="0" y="0"/>
  <path d="M49.8047 99.6094C77.0508 99.6094 99.6094 77.002 99.6094 49.8047C99.6094 22.5586 77.002 0 49.7559 0C22.5586 0 0 22.5586 0 49.8047C0 77.002 22.6074 99.6094 49.8047 99.6094ZM49.8047 91.3086C26.7578 91.3086 8.34961 72.8516 8.34961 49.8047C8.34961 26.7578 26.709 8.30078 49.7559 8.30078C72.8027 8.30078 91.3086 26.7578 91.3086 49.8047C91.3086 72.8516 72.8516 91.3086 49.8047 91.3086Z" fill="#000000" fill-opacity="0.85"/>
  <path d="M34.082 56.8359L63.1836 56.8359C70.752 56.8359 76.5625 50.9766 76.5625 43.7988C76.5625 36.3281 70.459 30.8594 62.5488 30.8594C59.5703 25.0977 54.1504 21.3379 47.4121 21.3379C38.623 21.3379 31.3477 28.2715 30.5176 37.0117C26.3184 38.2324 23.0957 41.8945 23.0957 46.8262C23.0957 52.3438 27.0996 56.8359 34.082 56.8359ZM32.5195 75.5371C33.3008 75.5371 33.8379 74.8047 33.7891 74.0234L33.6426 71.0938L36.0352 72.7539C36.6699 73.1934 37.5977 72.9492 37.9883 72.3633C38.4766 71.7773 38.2324 70.752 37.3535 70.3613L34.7656 69.0918L37.3535 67.7246C38.1836 67.2852 38.3789 66.5039 38.0371 65.8203C37.6953 65.1367 36.6699 64.9902 36.0352 65.3809L33.6426 67.0898L33.7891 64.1602C33.8379 63.2812 33.3008 62.6465 32.5195 62.6465C31.6406 62.6465 31.0547 63.2812 31.1035 64.1113L31.2988 67.0898L28.8086 65.3809C28.2227 64.9902 27.2949 65.0879 26.9531 65.8203C26.5625 66.4062 26.709 67.2852 27.5391 67.7734L30.127 69.0918L27.5391 70.3613C26.6602 70.752 26.5625 71.6797 26.8555 72.3145C27.1973 73.0469 28.1738 73.1934 28.8086 72.7539L31.2988 71.0938L31.1523 74.0234C31.1035 74.8047 31.6406 75.5371 32.5195 75.5371ZM48.6328 75.5371C49.4141 75.5371 49.9512 74.8047 49.9023 74.0234L49.7559 71.0938L52.1484 72.7539C52.7344 73.1934 53.7109 72.9492 54.1016 72.3633C54.5898 71.7773 54.3457 70.752 53.4668 70.3613L50.8789 69.0918L53.4668 67.7246C54.2969 67.2852 54.4922 66.5039 54.1504 65.8203C53.8086 65.1367 52.7832 64.9902 52.1484 65.3809L49.7559 67.0898L49.9023 64.1602C49.9512 63.2812 49.4141 62.6465 48.6328 62.6465C47.7539 62.6465 47.168 63.2812 47.2168 64.1113L47.4121 67.0898L44.9219 65.3809C44.3359 64.9902 43.4082 65.0879 43.0664 65.8203C42.6758 66.4062 42.8223 67.2852 43.6523 67.7734L46.2402 69.0918L43.6523 70.3613C42.7734 70.752 42.6758 71.6797 42.9688 72.3145C43.3105 73.0469 44.2871 73.1934 44.9219 72.7539L47.4121 71.0938L47.2656 74.0234C47.2168 74.8047 47.7539 75.5371 48.6328 75.5371ZM64.6973 75.5371C65.5273 75.5371 66.0645 74.8047 66.0156 74.0234L65.8691 71.0938L68.2617 72.7539C68.8477 73.1934 69.8242 72.9492 70.2148 72.3633C70.6543 71.7773 70.459 70.752 69.5801 70.3613L66.9922 69.0918L69.5801 67.7246C70.4102 67.2852 70.6055 66.5039 70.2637 65.8203C69.873 65.1367 68.8965 64.9902 68.2617 65.3809L65.8691 67.0898L66.0156 64.1602C66.0645 63.2812 65.5273 62.6465 64.6973 62.6465C63.8672 62.6465 63.2812 63.2812 63.3301 64.1113L63.5254 67.0898L61.0352 65.3809C60.4492 64.9902 59.5215 65.0879 59.1309 65.8203C58.7891 66.4062 58.8867 67.2852 59.7656 67.7734L62.3535 69.0918L59.7656 70.3613C58.8867 70.752 58.7891 71.6797 59.082 72.3145C59.4238 73.0469 60.4004 73.1934 61.0352 72.7539L63.5254 71.0938L63.3789 74.0234C63.3301 74.8047 63.8672 75.5371 64.6973 75.5371Z" fill="#000000" fill-opacity="0.85"/>
 </g>
</svg>
