<?xml version="1.0" encoding="UTF-8"?>
<!--Generator: Apple Native CoreSVG 232.5-->
<!DOCTYPE svg
PUBLIC "-//W3C//DTD SVG 1.1//EN"
       "http://www.w3.org/Graphics/SVG/1.1/DTD/svg11.dtd">
<svg version="1.1" xmlns="http://www.w3.org/2000/svg" xmlns:xlink="http://www.w3.org/1999/xlink" width="116.455" height="112.578">
 <g>
  <rect height="112.578" opacity="0" width="116.455" x="0" y="0"/>
  <path d="M79.3945 111.05L93.8477 86.0496C94.6777 84.5848 94.2383 82.9246 92.8223 82.0946C91.4551 81.2157 89.6973 81.6551 88.8184 83.1688L74.4629 108.071C73.6328 109.536 74.0723 111.245 75.4883 112.124C76.9043 112.954 78.5645 112.514 79.3945 111.05Z" fill="#000000" fill-opacity="0.85"/>
  <path d="M68.0664 97.1336L74.4141 86.0985C75.293 84.6336 74.8047 82.9246 73.3398 82.0457C71.875 81.2157 70.2148 81.6551 69.3359 83.1688L62.9395 94.3016C62.1094 95.6688 62.5 97.3778 64.0137 98.2567C65.4785 99.0868 67.2363 98.5496 68.0664 97.1336Z" fill="#000000" fill-opacity="0.85"/>
  <path d="M40.5762 111.098L54.9805 86.0985C55.8105 84.6336 55.4199 82.9735 54.0039 82.1434C52.5879 81.2645 50.7812 81.7039 49.9512 83.2176L35.6445 108.12C34.8145 109.585 35.2051 111.294 36.6699 112.173C38.0859 113.003 39.7461 112.514 40.5762 111.098Z" fill="#000000" fill-opacity="0.85"/>
  <path d="M29.1992 97.1825L35.5469 86.1473C36.4746 84.6825 35.9863 82.9735 34.5215 82.0946C33.0566 81.2645 31.3965 81.7039 30.4688 83.2176L24.0723 94.3504C23.2422 95.7176 23.6816 97.4266 25.1953 98.3055C26.6113 99.1356 28.3691 98.5985 29.1992 97.1825Z" fill="#000000" fill-opacity="0.85"/>
  <path d="M27.9297 74.3309L88.5254 74.3309C104.541 74.3309 116.455 62.1727 116.455 47.1336C116.455 31.5575 103.76 20.1805 87.207 20.1805C81.1035 8.11995 69.7754 0.356283 55.6641 0.356283C37.3047 0.356283 22.168 14.7606 20.5566 32.8758C11.7188 35.4637 4.98047 43.1297 4.98047 53.4325C4.98047 65.0047 13.3789 74.3309 27.9297 74.3309Z" fill="#000000" fill-opacity="0.85"/>
 </g>
</svg>
