<?xml version="1.0" encoding="UTF-8"?>
<!--Generator: Apple Native CoreSVG 232.5-->
<!DOCTYPE svg
PUBLIC "-//W3C//DTD SVG 1.1//EN"
       "http://www.w3.org/Graphics/SVG/1.1/DTD/svg11.dtd">
<svg version="1.1" xmlns="http://www.w3.org/2000/svg" xmlns:xlink="http://www.w3.org/1999/xlink" width="99.6094" height="99.6582">
 <g>
  <rect height="99.6582" opacity="0" width="99.6094" x="0" y="0"/>
  <path d="M49.8047 99.6094C77.0508 99.6094 99.6094 77.002 99.6094 49.8047C99.6094 22.5586 77.002 0 49.7559 0C22.5586 0 0 22.5586 0 49.8047C0 77.002 22.6074 99.6094 49.8047 99.6094ZM49.8047 91.3086C26.7578 91.3086 8.34961 72.8516 8.34961 49.8047C8.34961 26.7578 26.709 8.30078 49.7559 8.30078C72.8027 8.30078 91.3086 26.7578 91.3086 49.8047C91.3086 72.8516 72.8516 91.3086 49.8047 91.3086Z" fill="#000000" fill-opacity="0.85"/>
  <path d="M34.082 56.3477L63.1836 56.3477C70.752 56.3477 76.5625 50.4883 76.5625 43.3105C76.5625 35.8398 70.459 30.3711 62.5488 30.3711C59.5703 24.6094 54.1504 20.8496 47.4121 20.8496C38.623 20.8496 31.3477 27.7832 30.5176 36.5234C26.3184 37.7441 23.0957 41.4062 23.0957 46.3379C23.0957 51.8555 27.0996 56.3477 34.082 56.3477ZM35.5469 70.2637L39.0137 64.2578C39.6484 63.2324 39.3066 61.8164 38.1836 61.2305C37.1582 60.5957 35.791 60.9863 35.2051 62.0605L31.7383 68.0176C31.1035 69.0918 31.4453 70.5078 32.5684 71.0938C33.5938 71.7285 34.9609 71.3379 35.5469 70.2637ZM43.7012 77.4902L47.168 71.5332C47.8027 70.459 47.4609 69.0918 46.3379 68.457C45.3125 67.8711 43.9453 68.2617 43.3594 69.2871L39.8438 75.293C39.2578 76.3672 39.5996 77.7344 40.7227 78.3691C41.748 78.9551 43.0664 78.5645 43.7012 77.4902ZM56.2012 70.2148L59.668 64.209C60.3027 63.1836 59.9609 61.7676 58.8379 61.1816C57.8125 60.5469 56.4453 60.9375 55.8594 62.0117L52.3926 67.9688C51.7578 69.043 52.0996 70.459 53.2227 71.0449C54.248 71.6797 55.6152 71.2891 56.2012 70.2148ZM64.3555 77.4902L67.8711 71.5332C68.457 70.459 68.1152 69.0918 66.9922 68.457C65.9668 67.8711 64.5996 68.2617 64.0137 69.2871L60.5469 75.293C59.9121 76.3672 60.2539 77.7344 61.377 78.3691C62.4023 78.9551 63.7695 78.5645 64.3555 77.4902Z" fill="#000000" fill-opacity="0.85"/>
 </g>
</svg>
