<?xml version="1.0" encoding="UTF-8"?>
<!--Generator: Apple Native CoreSVG 232.5-->
<!DOCTYPE svg
PUBLIC "-//W3C//DTD SVG 1.1//EN"
       "http://www.w3.org/Graphics/SVG/1.1/DTD/svg11.dtd">
<svg version="1.1" xmlns="http://www.w3.org/2000/svg" xmlns:xlink="http://www.w3.org/1999/xlink" width="116.455" height="128.076">
 <g>
  <rect height="128.076" opacity="0" width="116.455" x="0" y="0"/>
  <path d="M76.3672 120.801C77.2461 120.801 77.8809 119.971 77.832 119.043L77.4902 114.404L81.3965 117.041C82.0801 117.529 83.1543 117.334 83.6426 116.602C84.1309 115.869 83.8379 114.746 82.9102 114.307L78.7109 112.256L82.959 110.156C83.8379 109.717 84.082 108.643 83.6914 107.91C83.252 107.129 82.0801 106.982 81.3965 107.471L77.4902 110.156L77.8809 105.469C77.9785 104.492 77.2461 103.711 76.3672 103.711C75.3418 103.711 74.707 104.492 74.7559 105.469L75.0977 110.156L71.1426 107.471C70.459 106.982 69.4336 107.08 68.9453 107.91C68.5059 108.643 68.7012 109.717 69.6289 110.156L73.8281 112.256L69.6289 114.307C68.7012 114.746 68.457 115.82 68.8965 116.602C69.3359 117.383 70.459 117.529 71.1426 117.041L75.0977 114.453L74.8047 119.043C74.7559 119.971 75.3418 120.801 76.3672 120.801Z" fill="#000000" fill-opacity="0.85"/>
  <path d="M48.4863 128.076C49.4141 128.076 50 127.246 49.9512 126.367L49.6582 121.729L53.5156 124.316C54.248 124.805 55.3223 124.609 55.8105 123.877C56.2988 123.145 56.0059 122.021 55.0781 121.582L50.8789 119.58L55.127 117.48C56.0059 117.041 56.25 115.967 55.8594 115.186C55.4199 114.404 54.248 114.258 53.5156 114.746L49.6582 117.48L50 112.744C50.0977 111.816 49.4141 111.035 48.4863 111.035C47.4609 111.035 46.875 111.816 46.9238 112.744L47.2168 117.48L43.3105 114.746C42.5781 114.258 41.5527 114.355 41.0645 115.186C40.625 115.967 40.8203 116.992 41.748 117.48L45.9961 119.58L41.748 121.631C40.8203 122.07 40.5762 123.096 41.0156 123.877C41.4551 124.707 42.5781 124.854 43.3105 124.365L47.2168 121.729L46.9727 126.367C46.9238 127.246 47.4609 128.076 48.4863 128.076Z" fill="#000000" fill-opacity="0.85"/>
  <path d="M25.1953 120.605C26.0742 120.605 26.709 119.775 26.6602 118.896L26.3184 114.209L30.2246 116.846C30.9082 117.334 32.0312 117.139 32.4707 116.406C32.959 115.674 32.666 114.551 31.7383 114.111L27.5391 112.061L31.7871 109.961C32.666 109.521 32.9102 108.496 32.5195 107.715C32.1289 106.934 30.9082 106.787 30.2246 107.275L26.3184 109.961L26.709 105.273C26.8066 104.346 26.0742 103.564 25.1953 103.564C24.1699 103.564 23.5352 104.346 23.584 105.273L23.9258 109.961L19.9707 107.275C19.2871 106.787 18.2617 106.885 17.7734 107.715C17.334 108.496 17.5293 109.521 18.457 109.961L22.6562 112.061L18.457 114.111C17.5293 114.551 17.2852 115.625 17.7246 116.406C18.1641 117.236 19.2871 117.383 19.9707 116.895L23.9258 114.258L23.6328 118.896C23.584 119.775 24.1699 120.605 25.1953 120.605Z" fill="#000000" fill-opacity="0.85"/>
  <path d="M85.4004 99.8535L88.6719 94.0918C89.5508 92.627 89.1113 90.8691 87.6465 89.9902C86.1816 89.1602 84.4727 89.6973 83.5938 91.1133L80.2734 97.0215C79.4922 98.3887 79.834 100.098 81.3477 100.977C82.8125 101.807 84.5703 101.27 85.4004 99.8535Z" fill="#000000" fill-opacity="0.85"/>
  <path d="M55.5176 107.129L63.1348 93.9453C63.9648 92.4316 63.5254 90.7227 62.1094 89.8926C60.5957 89.0137 58.8867 89.502 58.0566 91.0156L50.3906 104.297C49.5605 105.713 50 107.422 51.5137 108.252C52.9297 109.082 54.7363 108.594 55.5176 107.129Z" fill="#000000" fill-opacity="0.85"/>
  <path d="M34.2285 99.6582L37.5 93.8965C38.3789 92.4316 37.9395 90.6738 36.4746 89.7949C35.0098 88.9648 33.3008 89.502 32.4219 90.918L29.1016 96.8262C28.3203 98.1934 28.6621 99.9023 30.1758 100.781C31.6406 101.611 33.3984 101.123 34.2285 99.6582Z" fill="#000000" fill-opacity="0.85"/>
  <path d="M27.9297 82.0801L88.5254 82.0801C104.541 82.0801 116.455 69.9219 116.455 54.8828C116.455 39.3066 103.76 27.9297 87.207 27.9297C81.1035 15.8691 69.7754 8.10547 55.6641 8.10547C37.3047 8.10547 22.168 22.5098 20.5566 40.625C11.7188 43.2129 4.98047 50.8789 4.98047 61.1816C4.98047 72.7539 13.3789 82.0801 27.9297 82.0801Z" fill="#000000" fill-opacity="0.85"/>
 </g>
</svg>
