<?xml version="1.0" encoding="UTF-8"?>
<!--Generator: Apple Native CoreSVG 232.5-->
<!DOCTYPE svg
PUBLIC "-//W3C//DTD SVG 1.1//EN"
       "http://www.w3.org/Graphics/SVG/1.1/DTD/svg11.dtd">
<svg version="1.1" xmlns="http://www.w3.org/2000/svg" xmlns:xlink="http://www.w3.org/1999/xlink" width="109.095" height="99.6582">
 <g>
  <rect height="99.6582" opacity="0" width="109.095" x="0" y="0"/>
  <path d="M59.2839 99.6094C86.4812 99.6094 109.089 77.002 109.089 49.8047C109.089 22.5586 86.4812 0 59.2839 0C32.0378 0 9.47924 22.5098 9.47924 49.7559L17.78 49.7559C17.78 26.709 36.2371 8.34961 59.2839 8.34961C82.3308 8.34961 100.788 26.7578 100.788 49.8047C100.788 72.8516 82.3308 91.4062 59.2839 91.3086C45.3679 91.2598 33.1609 84.5215 25.6902 74.1211C24.1765 72.1191 21.8816 71.4844 19.8308 72.7051C17.8777 73.9258 17.3406 76.6113 19.0007 78.7598C28.2781 91.2109 42.8289 99.6094 59.2839 99.6094ZM3.47339 40.3809C-0.04224 40.3809-0.921146 42.7734 0.983151 45.5078L11.9207 61.0352C13.532 63.2812 15.8757 63.2324 17.4382 61.0352L28.3757 45.459C30.2312 42.7734 29.3523 40.3809 25.8855 40.3809Z" fill="#000000" fill-opacity="0.85"/>
  <path d="M39.3621 50.2441C39.3621 58.7891 42.0476 65.4297 46.7351 69.4824L44.9285 76.5625C44.8308 76.9531 44.782 77.2949 44.782 77.6367C44.782 79.1016 45.7585 80.0781 47.1257 80.0781C48.3464 80.0781 49.2742 79.4922 49.616 78.1738L51.1296 72.168C52.448 72.7539 53.9128 73.1934 55.4265 73.4375L54.5964 76.6113C54.4988 77.002 54.4499 77.2949 54.4499 77.6367C54.4499 79.1016 55.3777 80.0781 56.7937 80.0781C58.0144 80.0781 58.9421 79.4922 59.2839 78.1738L60.407 73.7305C68.3171 73.3398 73.9812 69.2383 76.1785 63.1348C76.4714 62.3535 76.6667 61.4746 76.6667 60.6445C76.6667 58.8867 75.446 57.5684 73.6394 57.5684C71.9792 57.5684 71.0027 58.7402 70.5144 60.2051C69.3914 64.0625 66.2175 66.9434 61.9207 67.5781L69.2937 38.7207C69.7332 39.1602 70.1238 39.8926 70.3679 40.7715C70.905 41.9434 71.5886 43.1152 73.2976 43.1152C75.1042 43.1152 76.2761 41.9434 76.2761 40.0879C76.2761 39.3066 76.1296 38.4766 75.8367 37.6953C74.8601 35.1074 73.2976 32.8613 71.2468 31.1035L72.8093 24.8535C72.907 24.4629 73.0046 24.1211 73.0046 23.7793C73.0046 22.3633 72.0281 21.3867 70.6121 21.3867C69.4402 21.3867 68.4636 21.9727 68.1218 23.291L66.8035 28.418C65.5339 27.832 64.0691 27.4414 62.5554 27.1484L63.1414 24.8535C63.239 24.5117 63.3367 24.1211 63.3367 23.7793C63.3367 22.3633 62.4089 21.3867 60.9441 21.3867C59.7234 21.3867 58.7957 21.9727 58.5027 23.291L57.5749 26.9531C46.491 27.7344 39.3621 36.6699 39.3621 50.2441ZM45.905 50.2441C45.905 41.1621 49.7136 34.8145 55.9636 33.252L48.7371 61.7188C46.9304 58.7891 45.905 54.9316 45.905 50.2441ZM52.6433 66.1133L61.0906 32.959C62.6531 33.1543 64.0691 33.6914 65.3386 34.4238L56.8914 67.7246C55.2312 67.4805 53.864 66.9434 52.6433 66.1133Z" fill="#000000" fill-opacity="0.85"/>
 </g>
</svg>
