<?xml version="1.0" encoding="UTF-8"?>
<!--Generator: Apple Native CoreSVG 232.5-->
<!DOCTYPE svg
PUBLIC "-//W3C//DTD SVG 1.1//EN"
       "http://www.w3.org/Graphics/SVG/1.1/DTD/svg11.dtd">
<svg version="1.1" xmlns="http://www.w3.org/2000/svg" xmlns:xlink="http://www.w3.org/1999/xlink" width="89.8926" height="89.9902">
 <g>
  <rect height="89.9902" opacity="0" width="89.8926" x="0" y="0"/>
  <path d="M15.332 89.9902L74.5605 89.9902C84.8145 89.9902 89.8926 84.9121 89.8926 74.8535L89.8926 15.2344C89.8926 5.17578 84.8145 0.0976562 74.5605 0.0976562L15.332 0.0976562C5.12695 0.0976562 0 5.12695 0 15.2344L0 74.8535C0 84.9609 5.12695 89.9902 15.332 89.9902ZM15.4297 82.1289C10.5469 82.1289 7.86133 79.541 7.86133 74.4629L7.86133 15.625C7.86133 10.5469 10.5469 7.95898 15.4297 7.95898L74.4629 7.95898C79.2969 7.95898 82.0312 10.5469 82.0312 15.625L82.0312 74.4629C82.0312 79.541 79.2969 82.1289 74.4629 82.1289Z" fill="#000000" fill-opacity="0.85"/>
  <path d="M25.0977 45.4102C25.0977 53.9551 27.7832 60.5957 32.4707 64.6484L30.6641 71.7285C30.5664 72.1191 30.5176 72.4609 30.5176 72.8027C30.5176 74.2676 31.4453 75.2441 32.8613 75.2441C34.082 75.2441 35.0098 74.6582 35.3027 73.3398L36.8164 67.334C38.1836 67.9199 39.5996 68.3594 41.1133 68.6035L40.332 71.7773C40.2344 72.168 40.1855 72.4609 40.1855 72.8027C40.1855 74.2676 41.0645 75.2441 42.5293 75.2441C43.75 75.2441 44.6777 74.6582 44.9707 73.3398L46.1426 68.8965C54.0039 68.5059 59.7168 64.4043 61.8652 58.3008C62.1582 57.5195 62.3535 56.6406 62.3535 55.8105C62.3535 54.0527 61.1816 52.7344 59.3262 52.7344C57.666 52.7344 56.6895 53.9062 56.2012 55.3711C55.127 59.2285 51.9531 62.1094 47.6562 62.7441L55.0293 33.8867C55.4688 34.3262 55.8594 35.0586 56.1035 35.9375C56.5918 37.1094 57.3242 38.2812 59.0332 38.2812C60.8398 38.2812 62.0117 37.1094 62.0117 35.2539C62.0117 34.4727 61.8164 33.6426 61.5234 32.8613C60.5957 30.2734 58.9844 28.0273 56.9336 26.2695L58.4961 20.0195C58.6426 19.6289 58.6914 19.2871 58.6914 18.9453C58.6914 17.5293 57.7637 16.5527 56.3477 16.5527C55.127 16.5527 54.1992 17.1387 53.8574 18.457L52.5391 23.584C51.2207 22.998 49.8047 22.6074 48.291 22.3145L48.877 20.0195C48.9746 19.6777 49.0234 19.2871 49.0234 18.9453C49.0234 17.5293 48.0957 16.5527 46.6797 16.5527C45.459 16.5527 44.5312 17.1387 44.1895 18.457L43.2617 22.1191C32.2266 22.9004 25.0977 31.8359 25.0977 45.4102ZM31.6406 45.4102C31.6406 36.3281 35.4004 29.9805 41.6504 28.418L34.4238 56.8848C32.6172 53.9551 31.6406 50.0977 31.6406 45.4102ZM38.3301 61.2793L46.8262 28.125C48.3398 28.3203 49.7559 28.8574 51.0254 29.5898L42.5781 62.8906C40.9668 62.6465 39.5996 62.1094 38.3301 61.2793Z" fill="#000000" fill-opacity="0.85"/>
 </g>
</svg>
