<?xml version="1.0" encoding="UTF-8"?>
<!--Generator: Apple Native CoreSVG 232.5-->
<!DOCTYPE svg
PUBLIC "-//W3C//DTD SVG 1.1//EN"
       "http://www.w3.org/Graphics/SVG/1.1/DTD/svg11.dtd">
<svg version="1.1" xmlns="http://www.w3.org/2000/svg" xmlns:xlink="http://www.w3.org/1999/xlink" width="99.6094" height="99.6582">
 <g>
  <rect height="99.6582" opacity="0" width="99.6094" x="0" y="0"/>
  <path d="M49.8047 99.6094C77.0508 99.6094 99.6094 77.002 99.6094 49.8047C99.6094 22.5586 77.002 0 49.7559 0C22.5586 0 0 22.5586 0 49.8047C0 77.002 22.6074 99.6094 49.8047 99.6094ZM49.8047 91.3086C26.7578 91.3086 8.34961 72.8516 8.34961 49.8047C8.34961 26.7578 26.709 8.30078 49.7559 8.30078C72.8027 8.30078 91.3086 26.7578 91.3086 49.8047C91.3086 72.8516 72.8516 91.3086 49.8047 91.3086Z" fill="#000000" fill-opacity="0.85"/>
  <path d="M29.8828 50.2441C29.8828 58.7891 32.5684 65.4297 37.2559 69.4824L35.4492 76.5625C35.3516 76.9531 35.3027 77.2949 35.3027 77.6367C35.3027 79.1016 36.2305 80.0781 37.6465 80.0781C38.8672 80.0781 39.7461 79.4922 40.0879 78.1738L41.6016 72.168C42.9688 72.7539 44.3848 73.1934 45.8984 73.4375L45.1172 76.6113C44.9707 77.002 44.9219 77.2949 44.9219 77.6367C44.9219 79.1016 45.8496 80.0781 47.3145 80.0781C48.4863 80.0781 49.4141 79.4922 49.7559 78.1738L50.8789 73.7305C58.7891 73.3398 64.502 69.2383 66.6504 63.1348C66.9434 62.3535 67.1387 61.4746 67.1387 60.6445C67.1387 58.8867 65.9668 57.5684 64.1113 57.5684C62.4512 57.5684 61.4746 58.7402 60.9863 60.2051C59.9121 64.0625 56.7383 66.9434 52.4414 67.5781L59.8145 38.7207C60.2539 39.1602 60.6445 39.8926 60.8887 40.7715C61.377 41.9434 62.1094 43.1152 63.8184 43.1152C65.625 43.1152 66.7969 41.9434 66.7969 40.0879C66.7969 39.3066 66.6016 38.4766 66.3086 37.6953C65.3809 35.1074 63.7695 32.8613 61.7188 31.1035L63.2812 24.8535C63.4277 24.4629 63.4766 24.1211 63.4766 23.7793C63.4766 22.3633 62.5488 21.3867 61.084 21.3867C59.9121 21.3867 58.9844 21.9727 58.6426 23.291L57.2754 28.418C56.0059 27.832 54.5898 27.4414 53.0762 27.1484L53.6133 24.8535C53.7598 24.5117 53.8086 24.1211 53.8086 23.7793C53.8086 22.3633 52.8809 21.3867 51.416 21.3867C50.2441 21.3867 49.3164 21.9727 48.9746 23.291L48.0469 26.9531C37.0117 27.7344 29.8828 36.6699 29.8828 50.2441ZM36.4258 50.2441C36.4258 41.1621 40.1855 34.8145 46.4355 33.252L39.209 61.7188C37.4023 58.7891 36.4258 54.9316 36.4258 50.2441ZM43.1152 66.1133L51.6113 32.959C53.125 33.1543 54.541 33.6914 55.8105 34.4238L47.3633 67.7246C45.752 67.4805 44.3848 66.9434 43.1152 66.1133Z" fill="#000000" fill-opacity="0.85"/>
 </g>
</svg>
