<?xml version="1.0" encoding="UTF-8"?>
<!--Generator: Apple Native CoreSVG 232.5-->
<!DOCTYPE svg
PUBLIC "-//W3C//DTD SVG 1.1//EN"
       "http://www.w3.org/Graphics/SVG/1.1/DTD/svg11.dtd">
<svg version="1.1" xmlns="http://www.w3.org/2000/svg" xmlns:xlink="http://www.w3.org/1999/xlink" width="89.8926" height="89.9902">
 <g>
  <rect height="89.9902" opacity="0" width="89.8926" x="0" y="0"/>
  <path d="M89.8926 15.2344L89.8926 74.8535C89.8926 84.9121 84.8145 89.9902 74.5605 89.9902L15.332 89.9902C5.12695 89.9902 0 84.9609 0 74.8535L0 15.2344C0 5.12695 5.12695 0.0976562 15.332 0.0976562L74.5605 0.0976562C84.8145 0.0976562 89.8926 5.17578 89.8926 15.2344ZM54.1016 17.627L52.7832 22.9004C51.416 22.3145 49.9512 21.9238 48.3887 21.582L48.9746 19.2383C49.0723 18.8965 49.1699 18.5059 49.1699 18.1152C49.1699 16.6504 48.1934 15.6738 46.7285 15.6738C45.459 15.6738 44.4824 16.2598 44.1406 17.627L43.1641 21.3867C31.7871 22.2168 24.4629 31.4453 24.4629 45.459C24.4629 54.248 27.1973 61.1328 32.0312 65.2832L30.1758 72.6074C30.0781 72.998 30.0293 73.3398 30.0293 73.7305C30.0293 75.2441 31.0059 76.2207 32.4707 76.2207C33.7402 76.2207 34.7168 75.6348 35.0098 74.2676L36.5723 68.0664C37.9395 68.7012 39.4043 69.1406 40.9668 69.3848L40.1855 72.6562C40.0879 73.0469 40.0391 73.3398 40.0391 73.7305C40.0391 75.2441 40.918 76.2207 42.4316 76.2207C43.7012 76.2207 44.6777 75.6348 44.9707 74.2676L46.1914 69.6777C54.2969 69.2871 60.2051 65.0391 62.4023 58.7402C62.6953 57.959 62.8906 57.0312 62.8906 56.2012C62.8906 54.3457 61.7188 52.9785 59.7656 52.9785C58.0566 52.9785 57.0312 54.1992 56.543 55.7129C55.4199 59.668 52.1484 62.6465 47.7539 63.3301L55.3223 33.5938C55.7617 34.0332 56.2012 34.7656 56.4453 35.6445C56.9336 36.8652 57.7148 38.0859 59.4727 38.0859C61.3281 38.0859 62.5488 36.8652 62.5488 34.9609C62.5488 34.1309 62.3535 33.3008 62.0605 32.4707C61.084 29.7852 59.4238 27.4902 57.3242 25.6836L58.9355 19.2383C59.082 18.8477 59.1309 18.5059 59.1309 18.1152C59.1309 16.6504 58.1543 15.6738 56.6895 15.6738C55.4199 15.6738 54.4922 16.2598 54.1016 17.627ZM51.1719 29.1504L42.4805 63.4766C40.8203 63.2324 39.4531 62.6465 38.1348 61.8164L46.875 27.6367C48.4375 27.832 49.9023 28.3691 51.1719 29.1504ZM34.082 57.2266C32.2266 54.248 31.25 50.2441 31.25 45.459C31.25 36.084 35.1074 29.541 41.5039 27.9297Z" fill="#000000" fill-opacity="0.85"/>
 </g>
</svg>
