<?xml version="1.0" encoding="UTF-8"?>
<!--Generator: Apple Native CoreSVG 232.5-->
<!DOCTYPE svg
PUBLIC "-//W3C//DTD SVG 1.1//EN"
       "http://www.w3.org/Graphics/SVG/1.1/DTD/svg11.dtd">
<svg version="1.1" xmlns="http://www.w3.org/2000/svg" xmlns:xlink="http://www.w3.org/1999/xlink" width="112.109" height="120.288">
 <g>
  <rect height="120.288" opacity="0" width="112.109" x="0" y="0"/>
  <path d="M5.22461 97.1313L27.1973 119.153C28.7109 120.667 31.2988 120.667 32.8125 119.153C34.3262 117.59 34.2773 115.1 32.8125 113.586L18.457 99.1821L91.1133 26.5259L105.469 40.8813C106.982 42.395 109.424 42.4438 110.938 40.9302C112.5 39.4165 112.5 36.9263 110.938 35.3638L88.9648 13.3911C81.9336 6.35986 72.8516 6.40869 65.7715 13.5376L5.37109 73.938C-1.70898 81.0181-1.80664 90.1001 5.22461 97.1313ZM85.3027 30.8228L80.7129 35.5591L96.1914 50.9888C97.5098 52.356 99.6094 52.356 100.83 51.0376C102.148 49.7681 102.197 47.6685 100.879 46.3501ZM75.6348 40.4907L71.0449 45.2271L86.5234 60.6567C87.8418 61.9751 89.9414 61.9751 91.1621 60.7056C92.4316 59.436 92.4805 57.3364 91.2109 56.0669ZM66.0156 50.1587L61.4258 54.895L76.8555 70.3735C78.1738 71.6431 80.2734 71.6431 81.4941 70.4224C82.8125 69.104 82.8613 67.0044 81.543 65.7349ZM56.3965 59.8267L51.7578 64.4653L67.2363 79.9927C68.5547 81.311 70.6543 81.311 71.875 79.9927C73.1445 78.7231 73.1934 76.5747 71.9238 75.354ZM46.7285 69.4946L42.0898 74.1333L57.5684 89.7095C58.8379 90.979 60.9375 90.979 62.207 89.7095C63.4766 88.3911 63.5254 86.2915 62.2559 85.022ZM37.0605 79.1626L32.4219 83.8013L47.9004 99.3774C49.2188 100.647 51.3184 100.647 52.5391 99.3774C53.8086 98.0591 53.8574 95.9595 52.5879 94.6899ZM27.3926 88.8306L22.7539 93.4692L38.2324 109.045C39.502 110.315 41.6016 110.315 42.8711 109.045C44.1406 107.727 44.1895 105.627 42.9199 104.358Z" fill="#000000" fill-opacity="0.85"/>
 </g>
</svg>
