<?xml version="1.0" encoding="UTF-8"?>
<!--Generator: Apple Native CoreSVG 232.5-->
<!DOCTYPE svg
PUBLIC "-//W3C//DTD SVG 1.1//EN"
       "http://www.w3.org/Graphics/SVG/1.1/DTD/svg11.dtd">
<svg version="1.1" xmlns="http://www.w3.org/2000/svg" xmlns:xlink="http://www.w3.org/1999/xlink" width="89.8926" height="89.9902">
 <g>
  <rect height="89.9902" opacity="0" width="89.8926" x="0" y="0"/>
  <path d="M89.8926 15.2344L89.8926 74.8535C89.8926 84.9121 84.8145 89.9902 74.5605 89.9902L15.332 89.9902C5.12695 89.9902 0 84.9609 0 74.8535L0 15.2344C0 5.12695 5.12695 0.0976562 15.332 0.0976562L74.5605 0.0976562C84.8145 0.0976562 89.8926 5.17578 89.8926 15.2344ZM49.1699 29.7363L49.1699 33.5449L40.0879 33.5449L40.0879 29.7363C40.0879 23.877 35.2539 19.043 29.3945 19.043C23.4375 19.043 18.7012 23.8281 18.7012 29.7363C18.7012 35.6445 23.4375 40.3809 29.3945 40.3809L33.1543 40.3809L33.1543 49.6094L29.3945 49.6094C23.4375 49.6094 18.7012 54.3457 18.7012 60.2051C18.7012 66.1621 23.4375 70.9473 29.3945 70.9473C35.2539 70.9473 40.0879 66.1133 40.0879 60.2051L40.0879 56.3965L49.1699 56.3965L49.1699 60.2051C49.1699 66.1133 53.9551 70.9473 59.8633 70.9473C65.7715 70.9473 70.5566 66.1621 70.5566 60.2051C70.5566 54.3457 65.7715 49.6094 59.8633 49.6094L56.0547 49.6094L56.0547 40.3809L59.8633 40.3809C65.7715 40.3809 70.5566 35.6445 70.5566 29.7363C70.5566 23.8281 65.7715 19.043 59.8633 19.043C53.9551 19.043 49.1699 23.877 49.1699 29.7363ZM33.1543 60.1562C33.1543 62.3047 31.4453 64.0137 29.3945 64.0137C27.2461 64.0137 25.5371 62.3047 25.5371 60.1562C25.5371 58.1055 27.2949 56.2988 29.3945 56.2988L33.1543 56.2988ZM63.7207 60.1562C63.7207 62.3047 61.9629 64.0137 59.8633 64.0137C57.7637 64.0137 56.0547 62.3047 56.0547 60.1562L56.0547 56.2988L59.8633 56.2988C61.9141 56.2988 63.7207 58.1055 63.7207 60.1562ZM49.1699 49.6582L40.0879 49.6582L40.0879 40.332L49.1699 40.332ZM33.1543 29.7363L33.1543 33.5938L29.3945 33.5938C27.2461 33.5938 25.5371 31.8848 25.5371 29.7363C25.5371 27.6855 27.2949 25.8789 29.3945 25.8789C31.4453 25.8789 33.1543 27.6855 33.1543 29.7363ZM63.7207 29.7363C63.7207 31.8848 61.9629 33.5938 59.8633 33.5938L56.0547 33.5938L56.0547 29.7363C56.0547 27.6855 57.7637 25.8789 59.8633 25.8789C61.9141 25.8789 63.7207 27.6855 63.7207 29.7363Z" fill="#000000" fill-opacity="0.85"/>
 </g>
</svg>
