<?xml version="1.0" encoding="UTF-8"?>
<!--Generator: Apple Native CoreSVG 232.5-->
<!DOCTYPE svg
PUBLIC "-//W3C//DTD SVG 1.1//EN"
       "http://www.w3.org/Graphics/SVG/1.1/DTD/svg11.dtd">
<svg version="1.1" xmlns="http://www.w3.org/2000/svg" xmlns:xlink="http://www.w3.org/1999/xlink" width="89.8926" height="89.9902">
 <g>
  <rect height="89.9902" opacity="0" width="89.8926" x="0" y="0"/>
  <path d="M15.332 89.9902L74.5605 89.9902C84.8145 89.9902 89.8926 84.9121 89.8926 74.8535L89.8926 15.2344C89.8926 5.17578 84.8145 0.0976562 74.5605 0.0976562L15.332 0.0976562C5.12695 0.0976562 0 5.12695 0 15.2344L0 74.8535C0 84.9609 5.12695 89.9902 15.332 89.9902ZM15.4297 82.1289C10.5469 82.1289 7.86133 79.541 7.86133 74.4629L7.86133 15.625C7.86133 10.5469 10.5469 7.95898 15.4297 7.95898L74.4629 7.95898C79.2969 7.95898 82.0312 10.5469 82.0312 15.625L82.0312 74.4629C82.0312 79.541 79.2969 82.1289 74.4629 82.1289Z" fill="#000000" fill-opacity="0.85"/>
  <path d="M33.4961 40.4785L33.4961 49.5117L29.834 49.5117C24.0723 49.5117 19.4824 54.1016 19.4824 59.7656C19.4824 65.5273 24.0723 70.166 29.834 70.166C35.498 70.166 40.1855 65.4785 40.1855 59.7656L40.1855 56.0547L49.0723 56.0547L49.0723 59.7656C49.0723 65.4785 53.7109 70.166 59.4238 70.166C65.1367 70.166 69.7754 65.5273 69.7754 59.7656C69.7754 54.1016 65.1367 49.5117 59.4238 49.5117L55.7129 49.5117L55.7129 40.4785L59.4238 40.4785C65.1367 40.4785 69.7754 35.8887 69.7754 30.1758C69.7754 24.4629 65.1367 19.8242 59.4238 19.8242C53.7109 19.8242 49.0723 24.5117 49.0723 30.1758L49.0723 33.8867L40.1855 33.8867L40.1855 30.1758C40.1855 24.5117 35.498 19.8242 29.834 19.8242C24.0723 19.8242 19.4824 24.4629 19.4824 30.1758C19.4824 35.8887 24.0723 40.4785 29.834 40.4785ZM40.1855 49.5605L40.1855 40.4297L49.0723 40.4297L49.0723 49.5605ZM29.834 33.9355C27.7344 33.9355 26.0742 32.2754 26.0742 30.1758C26.0742 28.1738 27.7832 26.416 29.834 26.416C31.8359 26.416 33.4961 28.1738 33.4961 30.1758L33.4961 33.9355ZM59.4238 33.9355L55.7129 33.9355L55.7129 30.1758C55.7129 28.1738 57.4219 26.416 59.4238 26.416C61.4258 26.416 63.1836 28.1738 63.1836 30.1758C63.1836 32.2754 61.4746 33.9355 59.4238 33.9355ZM29.834 55.957L33.4961 55.957L33.4961 59.7168C33.4961 61.8164 31.8359 63.4766 29.834 63.4766C27.7344 63.4766 26.0742 61.8164 26.0742 59.7168C26.0742 57.7148 27.7832 55.957 29.834 55.957ZM59.4238 55.957C61.4258 55.957 63.1836 57.7148 63.1836 59.7168C63.1836 61.8164 61.4746 63.4766 59.4238 63.4766C57.4219 63.4766 55.7129 61.8164 55.7129 59.7168L55.7129 55.957Z" fill="#000000" fill-opacity="0.85"/>
 </g>
</svg>
