<?xml version="1.0" encoding="UTF-8"?>
<!--Generator: Apple Native CoreSVG 232.5-->
<!DOCTYPE svg
PUBLIC "-//W3C//DTD SVG 1.1//EN"
       "http://www.w3.org/Graphics/SVG/1.1/DTD/svg11.dtd">
<svg version="1.1" xmlns="http://www.w3.org/2000/svg" xmlns:xlink="http://www.w3.org/1999/xlink" width="92.2363" height="92.334">
 <g>
  <rect height="92.334" opacity="0" width="92.2363" x="0" y="0"/>
  <path d="M27.2461 34.7656L27.2461 57.5684L17.4316 57.5684C7.8125 57.5684 0 65.1367 0 74.8047C0 84.4727 7.8125 92.2852 17.4316 92.2852C27.0508 92.2852 34.8633 84.4727 34.8633 74.8047L34.8633 65.0391L57.373 65.0391L57.373 74.8047C57.373 84.4727 65.1855 92.2852 74.8047 92.2852C84.4238 92.2852 92.2363 84.4727 92.2363 74.8047C92.2363 65.1367 84.4238 57.5684 74.8047 57.5684L64.9902 57.5684L64.9902 34.7656L74.8047 34.7656C84.4238 34.7656 92.2363 27.1973 92.2363 17.5293C92.2363 7.86133 84.4238 0 74.8047 0C65.1855 0 57.373 7.86133 57.373 17.5293L57.373 27.2949L34.8633 27.2949L34.8633 17.5293C34.8633 7.86133 27.0508 0 17.4316 0C7.8125 0 0 7.86133 0 17.5293C0 27.1973 7.8125 34.7656 17.4316 34.7656ZM17.4316 27.3926C12.0605 27.3926 7.61719 22.9492 7.61719 17.5293C7.61719 12.1094 12.0605 7.61719 17.4316 7.61719C22.8027 7.61719 27.2461 12.1094 27.2461 17.5293L27.2461 27.3926ZM74.8047 27.3926L64.9902 27.3926L64.9902 17.5293C64.9902 12.1094 69.4336 7.61719 74.8047 7.61719C80.1758 7.61719 84.6191 12.1094 84.6191 17.5293C84.6191 22.9492 80.1758 27.3926 74.8047 27.3926ZM34.8633 57.666L34.8633 34.668L57.373 34.668L57.373 57.666ZM17.4316 64.8926L27.2461 64.8926L27.2461 74.7559C27.2461 80.1758 22.8027 84.6191 17.4316 84.6191C12.0605 84.6191 7.61719 80.1758 7.61719 74.7559C7.61719 69.3359 12.0605 64.8926 17.4316 64.8926ZM74.8047 64.8926C80.1758 64.8926 84.6191 69.3359 84.6191 74.7559C84.6191 80.1758 80.1758 84.6191 74.8047 84.6191C69.4336 84.6191 64.9902 80.1758 64.9902 74.7559L64.9902 64.8926Z" fill="#000000" fill-opacity="0.85"/>
 </g>
</svg>
