<?xml version="1.0" encoding="UTF-8"?>
<!--Generator: Apple Native CoreSVG 232.5-->
<!DOCTYPE svg
PUBLIC "-//W3C//DTD SVG 1.1//EN"
       "http://www.w3.org/Graphics/SVG/1.1/DTD/svg11.dtd">
<svg version="1.1" xmlns="http://www.w3.org/2000/svg" xmlns:xlink="http://www.w3.org/1999/xlink" width="84.8145" height="91.8457">
 <g>
  <rect height="91.8457" opacity="0" width="84.8145" x="0" y="0"/>
  <path d="M1.31836 40.0879C0.488281 40.9668 0 42.041 0 43.2617C0 45.8008 1.9043 47.7539 4.44336 47.7539C5.71289 47.7539 6.83594 47.2168 7.61719 46.4355L45.0195 8.25195L39.7949 8.25195L77.1973 46.4355C78.0273 47.2168 79.1504 47.7539 80.3711 47.7539C82.9102 47.7539 84.8145 45.8008 84.8145 43.2617C84.8145 42.041 84.3262 40.9668 83.4961 40.0879L45.7031 1.41602C44.873 0.488281 43.6523 0 42.4316 0C41.1621 0 40.0391 0.488281 39.1113 1.41602Z" fill="#000000" fill-opacity="0.85"/>
 </g>
</svg>
