<?xml version="1.0" encoding="UTF-8"?>
<!--Generator: Apple Native CoreSVG 232.5-->
<!DOCTYPE svg
PUBLIC "-//W3C//DTD SVG 1.1//EN"
       "http://www.w3.org/Graphics/SVG/1.1/DTD/svg11.dtd">
<svg version="1.1" xmlns="http://www.w3.org/2000/svg" xmlns:xlink="http://www.w3.org/1999/xlink" width="98.2422" height="98.291">
 <g>
  <rect height="98.291" opacity="0" width="98.2422" x="0" y="0"/>
  <path d="M0 65.332C0 67.6758 1.5625 69.2871 3.90625 69.2871L8.93555 69.2871L8.93555 85.498C8.93555 87.8418 10.498 89.3555 12.8418 89.3555L29.0039 89.3555L29.0039 94.3848C29.0039 96.7285 30.6152 98.291 32.959 98.291C35.3027 98.291 36.8652 96.7285 36.8652 94.3848L36.8652 89.3555L45.2148 89.3555L45.2148 94.3848C45.2148 96.7285 46.7773 98.291 49.1211 98.291C51.4648 98.291 53.0762 96.7285 53.0762 94.3848L53.0762 89.3555L61.377 89.3555L61.377 94.3848C61.377 96.7285 62.9395 98.291 65.2832 98.291C67.6758 98.291 69.2383 96.7285 69.2383 94.3848L69.2383 89.3555L85.4004 89.3555C87.7441 89.3555 89.3066 87.8418 89.3066 85.498L89.3066 69.2383L94.3359 69.2383C96.6797 69.2383 98.2422 67.627 98.2422 65.2832C98.2422 62.9395 96.6797 61.377 94.3359 61.377L89.3066 61.377L89.3066 53.0273L94.3359 53.0273C96.6797 53.0273 98.2422 51.4648 98.2422 49.1211C98.2422 46.7773 96.6797 45.166 94.3359 45.166L89.3066 45.166L89.3066 36.8652L94.3359 36.8652C96.6797 36.8652 98.2422 35.2539 98.2422 32.9102C98.2422 30.5664 96.6797 29.0039 94.3359 29.0039L89.3066 29.0039L89.3066 12.8906C89.3066 10.5469 87.7441 8.98438 85.4004 8.98438L69.2383 8.98438L69.2383 4.00391C69.2383 1.66016 67.6758 0.0488281 65.2832 0.0488281C62.9395 0.0488281 61.377 1.66016 61.377 4.00391L61.377 8.98438L53.0762 8.98438L53.0762 4.00391C53.0762 1.66016 51.4648 0.0488281 49.1211 0.0488281C46.7773 0.0488281 45.2148 1.66016 45.2148 4.00391L45.2148 8.98438L36.8652 8.98438L36.8652 4.00391C36.8652 1.66016 35.3027 0.0488281 32.959 0.0488281C30.6152 0.0488281 29.0039 1.66016 29.0039 4.00391L29.0039 8.98438L12.8418 8.98438C10.498 8.98438 8.93555 10.5469 8.93555 12.8906L8.93555 29.0527L3.90625 29.0527C1.5625 29.0527 0 30.6152 0 32.959C0 35.3027 1.5625 36.9141 3.90625 36.9141L8.93555 36.9141L8.93555 45.2148L3.90625 45.2148C1.5625 45.2148 0 46.8262 0 49.1699C0 51.5137 1.5625 53.0762 3.90625 53.0762L8.93555 53.0762L8.93555 61.4258L3.90625 61.4258C1.5625 61.4258 0 62.9883 0 65.332ZM16.7969 80.0781L16.7969 18.3105C16.7969 17.2363 17.1875 16.8457 18.2129 16.8457L80.0293 16.8457C81.0547 16.8457 81.4453 17.2363 81.4453 18.3105L81.4453 80.0781C81.4453 81.1523 81.0547 81.4941 80.0293 81.4941L18.2129 81.4941C17.1875 81.4941 16.7969 81.1523 16.7969 80.0781ZM31.0059 71.0449L67.334 71.0449C69.8242 71.0449 70.9961 69.873 70.9961 67.2852L70.9961 31.0547C70.9961 28.5156 69.8242 27.3438 67.334 27.3438L31.0059 27.3438C28.5156 27.3438 27.2949 28.5156 27.2949 31.0547L27.2949 67.2852C27.2949 69.873 28.5156 71.0449 31.0059 71.0449ZM33.6914 63.4766L33.6914 34.9121C33.6914 34.1797 34.1797 33.7402 34.8633 33.7402L63.4277 33.7402C64.1602 33.7402 64.5996 34.1797 64.5996 34.9121L64.5996 63.4766C64.5996 64.1602 64.1602 64.6484 63.4277 64.6484L34.8633 64.6484C34.1797 64.6484 33.6914 64.1602 33.6914 63.4766Z" fill="#000000" fill-opacity="0.85"/>
 </g>
</svg>
