<?xml version="1.0" encoding="UTF-8"?>
<!--Generator: Apple Native CoreSVG 232.5-->
<!DOCTYPE svg
PUBLIC "-//W3C//DTD SVG 1.1//EN"
       "http://www.w3.org/Graphics/SVG/1.1/DTD/svg11.dtd">
<svg version="1.1" xmlns="http://www.w3.org/2000/svg" xmlns:xlink="http://www.w3.org/1999/xlink" width="114.746" height="83.4473">
 <g>
  <rect height="83.4473" opacity="0" width="114.746" x="0" y="0"/>
  <path d="M21.9238 66.3574L33.8867 66.3574C36.7676 66.3574 38.6719 64.4043 38.6719 61.6699L38.6719 52.6367C38.6719 49.8535 36.7676 47.9492 33.8867 47.9492L21.9238 47.9492C19.043 47.9492 17.1387 49.8535 17.1387 52.6367L17.1387 61.6699C17.1387 64.4043 19.043 66.3574 21.9238 66.3574ZM3.95508 30.5664L110.84 30.5664L110.84 19.4824L3.95508 19.4824ZM15.332 83.4473L99.4141 83.4473C109.668 83.4473 114.746 78.418 114.746 68.3594L114.746 15.1855C114.746 5.12695 109.668 0.0488281 99.4141 0.0488281L15.332 0.0488281C5.12695 0.0488281 0 5.12695 0 15.1855L0 68.3594C0 78.418 5.12695 83.4473 15.332 83.4473ZM15.4297 75.5859C10.5469 75.5859 7.86133 72.998 7.86133 67.9199L7.86133 15.625C7.86133 10.5469 10.5469 7.91016 15.4297 7.91016L99.3164 7.91016C104.102 7.91016 106.885 10.5469 106.885 15.625L106.885 67.9199C106.885 72.998 104.102 75.5859 99.3164 75.5859Z" fill="#000000" fill-opacity="0.85"/>
 </g>
</svg>
