<?xml version="1.0" encoding="UTF-8"?>
<!--Generator: Apple Native CoreSVG 232.5-->
<!DOCTYPE svg
PUBLIC "-//W3C//DTD SVG 1.1//EN"
       "http://www.w3.org/Graphics/SVG/1.1/DTD/svg11.dtd">
<svg version="1.1" xmlns="http://www.w3.org/2000/svg" xmlns:xlink="http://www.w3.org/1999/xlink" width="114.746" height="83.4473">
 <g>
  <rect height="83.4473" opacity="0" width="114.746" x="0" y="0"/>
  <path d="M19.9707 68.3105C17.0898 68.3105 15.1855 66.3574 15.1855 63.623L15.1855 54.5898C15.1855 51.8066 17.0898 49.9023 19.9707 49.9023L31.9336 49.9023C34.8145 49.9023 36.7188 51.8066 36.7188 54.5898L36.7188 63.623C36.7188 66.3574 34.8145 68.3105 31.9336 68.3105ZM0 30.8105L0 19.7266L114.746 19.7266L114.746 30.8105ZM15.332 83.4473L99.4141 83.4473C109.668 83.4473 114.746 78.418 114.746 68.3594L114.746 15.1855C114.746 5.12695 109.668 0.0488281 99.4141 0.0488281L15.332 0.0488281C5.12695 0.0488281 0 5.12695 0 15.1855L0 68.3594C0 78.418 5.12695 83.4473 15.332 83.4473Z" fill="#000000" fill-opacity="0.85"/>
 </g>
</svg>
