<?xml version="1.0" encoding="UTF-8"?>
<!--Generator: Apple Native CoreSVG 232.5-->
<!DOCTYPE svg
PUBLIC "-//W3C//DTD SVG 1.1//EN"
       "http://www.w3.org/Graphics/SVG/1.1/DTD/svg11.dtd">
<svg version="1.1" xmlns="http://www.w3.org/2000/svg" xmlns:xlink="http://www.w3.org/1999/xlink" width="146.045" height="106.396">
 <g>
  <rect height="106.396" opacity="0" width="146.045" x="0" y="0"/>
  <path d="M130.371 26.6602L130.371 58.3859C129.142 58.17 127.853 58.0566 126.514 58.0566C125.122 58.0566 123.783 58.1797 122.51 58.4153L122.51 42.041L23.4863 42.041L23.4863 79.3945C23.4863 84.4727 26.2207 87.0605 31.1035 87.0605L70.6543 87.0605L70.6543 94.9219L30.957 94.9219C20.8008 94.9219 15.625 89.8926 15.625 79.834L15.625 26.6602C15.625 16.6016 20.8008 11.5234 30.957 11.5234L115.039 11.5234C125.293 11.5234 130.371 16.6016 130.371 26.6602ZM31.1035 19.3848C26.2207 19.3848 23.4863 22.0215 23.4863 27.0996L23.4863 30.957L122.51 30.957L122.51 27.0996C122.51 22.0215 119.775 19.3848 114.941 19.3848Z" fill="#000000" fill-opacity="0.85"/>
  <path d="M126.562 99.7559C133.936 99.7559 139.355 95.3125 139.355 89.2578C139.355 84.6191 136.133 81.0547 131.689 80.6152L131.689 82.3242C135.645 81.1523 137.988 78.0762 137.988 74.1211C137.988 68.6523 133.154 64.6973 126.514 64.6973C121.484 64.6973 117.334 66.9922 115.625 70.6543C115.186 71.582 114.941 72.6074 114.941 73.584C114.941 75.293 116.113 76.4648 117.822 76.4648C119.336 76.4648 120.215 75.7812 120.654 74.3164C121.484 71.875 123.438 70.5078 126.367 70.5078C129.688 70.5078 131.689 72.1191 131.689 74.6582C131.689 77.2949 129.541 78.9551 126.172 78.9551L123.73 78.9551C122.07 78.9551 120.898 80.1758 120.898 81.7871C120.898 83.3984 122.07 84.5703 123.73 84.5703L126.221 84.5703C130.518 84.5703 132.861 86.2305 132.861 89.2578C132.861 92.041 130.371 93.8965 126.611 93.8965C123.242 93.8965 120.898 92.4805 120.117 90.0879C119.678 88.623 118.701 87.9395 117.236 87.9395C115.479 87.9395 114.209 89.1602 114.209 90.918C114.209 91.8457 114.453 92.8711 114.941 93.75C116.992 97.5586 121.143 99.7559 126.562 99.7559Z" fill="#000000" fill-opacity="0.85"/>
  <path d="M91.0645 99.2676L109.424 99.2676C111.133 99.2676 112.402 98.0469 112.402 96.3867C112.402 94.6289 111.133 93.3594 109.424 93.3594L97.8027 93.3594L97.8027 93.1152L104.199 86.7676C109.619 81.4453 111.328 78.5156 111.328 74.8047C111.328 69.043 106.348 64.6973 99.6582 64.6973C94.4336 64.6973 89.9902 67.6758 88.5254 71.9727C88.2812 72.7051 88.0859 73.4375 88.0859 74.2676C88.0859 76.0254 89.3066 77.1973 90.9668 77.1973C92.4805 77.1973 93.4082 76.4648 93.8477 74.8047C93.9453 74.4141 94.043 74.0723 94.1895 73.7305C95.166 71.6797 97.168 70.5078 99.6582 70.5078C102.588 70.5078 104.98 72.6074 104.98 75.0488C104.98 77.2461 104.004 78.7598 99.8535 82.8613L89.502 93.1641C88.3789 94.2383 87.9395 95.166 87.9395 96.2891C87.9395 98.0469 89.209 99.2676 91.0645 99.2676Z" fill="#000000" fill-opacity="0.85"/>
  <path d="M80.4199 99.707C82.373 99.707 83.6426 98.4375 83.6426 96.5332L83.6426 68.2617C83.6426 66.2598 82.2754 64.8926 80.1758 64.8926C79.1016 64.8926 78.3203 65.1855 77.0996 66.0156L69.7266 70.8008C68.5547 71.5332 68.0176 72.4609 68.0176 73.584C68.0176 75.1465 69.2383 76.2695 70.8496 76.2695C71.4844 76.2695 72.0703 76.0742 72.7051 75.6348L77.0508 72.9004L77.3438 72.9004L77.3438 96.5332C77.3438 98.4375 78.6133 99.707 80.4199 99.707Z" fill="#000000" fill-opacity="0.85"/>
 </g>
</svg>
