<?xml version="1.0" encoding="UTF-8"?>
<!--Generator: Apple Native CoreSVG 232.5-->
<!DOCTYPE svg
PUBLIC "-//W3C//DTD SVG 1.1//EN"
       "http://www.w3.org/Graphics/SVG/1.1/DTD/svg11.dtd">
<svg version="1.1" xmlns="http://www.w3.org/2000/svg" xmlns:xlink="http://www.w3.org/1999/xlink" width="66.9434" height="117.041">
 <g>
  <rect height="117.041" opacity="0" width="66.9434" x="0" y="0"/>
  <path d="M58.3008 8.64258L58.3008 13.7695C58.3008 19.1895 55.127 22.4121 49.8047 22.4121L49.2187 22.4121L49.2187 29.4922L51.1719 29.4922C60.6934 29.4922 66.9434 35.791 66.9434 45.5078L66.9434 100.879C66.9434 110.596 60.6934 116.895 51.1719 116.895L15.7715 116.895C6.25 116.895 0 110.596 0 100.879L0 45.5078C0 35.791 6.25 29.4922 15.7715 29.4922L17.7246 29.4922L17.7246 22.4121L17.0898 22.4121C11.8164 22.4121 8.64258 19.1895 8.64258 13.7695L8.64258 8.64258C8.64258 3.22266 11.8164 0 17.0898 0L49.8047 0C55.127 0 58.3008 3.22266 58.3008 8.64258ZM29.8828 54.4434C27.7344 54.4434 26.416 55.8105 26.416 57.9102L26.416 66.1621L18.1152 66.1621C16.0645 66.1621 14.6484 67.4805 14.6484 69.6289L14.6484 76.7578C14.6484 78.9062 16.0645 80.2246 18.1152 80.2246L26.416 80.2246L26.416 88.4766C26.416 90.5762 27.7344 91.9922 29.8828 91.9922L37.0117 91.9922C39.1602 91.9922 40.4785 90.5762 40.4785 88.4766L40.4785 80.2246L48.7793 80.2246C50.7812 80.2246 52.2949 78.9062 52.2949 76.7578L52.2949 69.6289C52.2949 67.4805 50.7812 66.1621 48.7793 66.1621L40.4785 66.1621L40.4785 57.9102C40.4785 55.8105 39.1602 54.4434 37.0117 54.4434Z" fill="#000000" fill-opacity="0.85"/>
 </g>
</svg>
