<?xml version="1.0" encoding="UTF-8"?>
<!--Generator: Apple Native CoreSVG 232.5-->
<!DOCTYPE svg
PUBLIC "-//W3C//DTD SVG 1.1//EN"
       "http://www.w3.org/Graphics/SVG/1.1/DTD/svg11.dtd">
<svg version="1.1" xmlns="http://www.w3.org/2000/svg" xmlns:xlink="http://www.w3.org/1999/xlink" width="99.6094" height="99.6582">
 <g>
  <rect height="99.6582" opacity="0" width="99.6094" x="0" y="0"/>
  <path d="M99.6094 49.8535C99.6094 77.0996 77.0508 99.6582 49.8047 99.6582C22.6074 99.6582 0 77.0996 0 49.8535C0 22.6562 22.5586 0.0488281 49.7559 0.0488281C77.002 0.0488281 99.6094 22.6562 99.6094 49.8535ZM44.4336 22.0215C41.3574 22.0215 39.2578 24.1211 39.2578 27.2949L39.2578 39.2578L27.1484 39.2578C24.0723 39.2578 21.9727 41.4062 21.9727 44.4824L21.9727 55.127C21.9727 58.2031 24.1211 60.3027 27.1484 60.3027L39.2578 60.3027L39.2578 72.3633C39.2578 75.5371 41.3574 77.5879 44.4336 77.5879L55.0781 77.5879C58.2031 77.5879 60.2539 75.5371 60.2539 72.3633L60.2539 60.3027L72.3633 60.3027C75.4883 60.3027 77.5879 58.2031 77.5879 55.127L77.5879 44.4824C77.5879 41.4062 75.4883 39.2578 72.3633 39.2578L60.2539 39.2578L60.2539 27.2949C60.2539 24.1211 58.2031 22.0215 55.0781 22.0215Z" fill="#000000" fill-opacity="0.85"/>
 </g>
</svg>
