<?xml version="1.0" encoding="UTF-8"?>
<!--Generator: Apple Native CoreSVG 232.5-->
<!DOCTYPE svg
PUBLIC "-//W3C//DTD SVG 1.1//EN"
       "http://www.w3.org/Graphics/SVG/1.1/DTD/svg11.dtd">
<svg version="1.1" xmlns="http://www.w3.org/2000/svg" xmlns:xlink="http://www.w3.org/1999/xlink" width="99.6094" height="99.6582">
 <g>
  <rect height="99.6582" opacity="0" width="99.6094" x="0" y="0"/>
  <path d="M99.6094 49.8535C99.6094 77.0996 77.0508 99.6582 49.8047 99.6582C22.6074 99.6582 0 77.0996 0 49.8535C0 22.6562 22.5586 0.0488281 49.7559 0.0488281C77.002 0.0488281 99.6094 22.6562 99.6094 49.8535ZM41.2109 22.5586C37.0605 22.5586 34.4238 24.9512 34.4238 28.9551L34.4238 31.543L29.0527 31.543C23.7793 31.543 21.1426 34.1309 21.1426 39.4043L21.1426 64.4531C21.1426 69.7754 23.7793 72.3145 29.0527 72.3145L70.5566 72.3145C75.8301 72.3145 78.5156 69.7754 78.5156 64.4531L78.5156 39.4043C78.5156 34.1309 75.8301 31.543 70.5566 31.543L65.1855 31.543L65.1855 28.9551C65.1855 24.9512 62.5488 22.5586 58.3984 22.5586ZM54.2969 42.1875L54.2969 47.3633L59.4727 47.3633C60.8398 47.3633 61.7188 48.2422 61.7188 49.5605L61.7188 54.1504C61.7188 55.5176 60.8398 56.3965 59.4727 56.3965L54.2969 56.3965L54.2969 61.5723C54.2969 62.8906 53.418 63.7695 52.0508 63.7695L47.5586 63.7695C46.2402 63.7695 45.3125 62.8906 45.3125 61.5723L45.3125 56.3965L40.1367 56.3965C38.7695 56.3965 37.8906 55.5176 37.8906 54.1504L37.8906 49.5605C37.8906 48.2422 38.7695 47.3633 40.1367 47.3633L45.3125 47.3633L45.3125 42.1875C45.3125 40.8691 46.2402 39.9902 47.5586 39.9902L52.0508 39.9902C53.418 39.9902 54.2969 40.8691 54.2969 42.1875ZM60.3516 29.1992L60.3516 31.543L39.3066 31.543L39.3066 29.1992C39.3066 27.8809 40.1367 27.0996 41.5527 27.0996L58.1543 27.0996C59.5215 27.0996 60.3516 27.8809 60.3516 29.1992Z" fill="#000000" fill-opacity="0.85"/>
 </g>
</svg>
