<?xml version="1.0" encoding="UTF-8"?>
<!--Generator: Apple Native CoreSVG 232.5-->
<!DOCTYPE svg
PUBLIC "-//W3C//DTD SVG 1.1//EN"
       "http://www.w3.org/Graphics/SVG/1.1/DTD/svg11.dtd">
<svg version="1.1" xmlns="http://www.w3.org/2000/svg" xmlns:xlink="http://www.w3.org/1999/xlink" width="101.465" height="101.514">
 <g>
  <rect height="101.514" opacity="0" width="101.465" x="0" y="0"/>
  <path d="M0 60.4492C0 66.0645 3.85742 69.8242 9.52148 69.8242L31.5918 69.8242L31.5918 91.9434C31.5918 97.6074 35.3516 101.416 40.9668 101.416L60.498 101.416C66.1133 101.416 69.873 97.6074 69.873 91.9434L69.873 69.8242L91.9922 69.8242C97.6562 69.8242 101.465 66.0645 101.465 60.4492L101.465 40.918C101.465 35.3027 97.6562 31.543 91.9922 31.543L69.873 31.543L69.873 9.47266C69.873 3.80859 66.1133 0 60.498 0L40.9668 0C35.3516 0 31.5918 3.80859 31.5918 9.47266L31.5918 31.543L9.47266 31.543C3.80859 31.543 0 35.3027 0 40.918Z" fill="#000000" fill-opacity="0.85"/>
 </g>
</svg>
