<?xml version="1.0" encoding="UTF-8"?>
<!--Generator: Apple Native CoreSVG 232.5-->
<!DOCTYPE svg
PUBLIC "-//W3C//DTD SVG 1.1//EN"
       "http://www.w3.org/Graphics/SVG/1.1/DTD/svg11.dtd">
<svg version="1.1" xmlns="http://www.w3.org/2000/svg" xmlns:xlink="http://www.w3.org/1999/xlink" width="99.6094" height="99.6582">
 <g>
  <rect height="99.6582" opacity="0" width="99.6094" x="0" y="0"/>
  <path d="M49.8047 99.6094C77.0508 99.6094 99.6094 77.002 99.6094 49.8047C99.6094 22.5586 77.002 0 49.7559 0C22.5586 0 0 22.5586 0 49.8047C0 77.002 22.6074 99.6094 49.8047 99.6094ZM49.8047 91.3086C26.7578 91.3086 8.34961 72.8516 8.34961 49.8047C8.34961 26.7578 26.709 8.30078 49.7559 8.30078C72.8027 8.30078 91.3086 26.7578 91.3086 49.8047C91.3086 72.8516 72.8516 91.3086 49.8047 91.3086Z" fill="#000000" fill-opacity="0.85"/>
  <path d="M29.9805 49.8535C29.9805 64.3066 37.8418 73.291 49.7559 73.291C58.3984 73.291 64.5508 68.9941 66.7969 62.5C67.0898 61.7676 67.2363 60.9863 67.2852 60.1562C67.2852 58.3984 66.0645 57.2266 64.2578 57.2266C62.5977 57.2266 61.6699 58.1055 61.1328 59.7656C59.9121 63.9648 56.0547 66.9434 51.123 67.3828L51.123 60.3027C51.123 55.6152 54.0039 52.3438 58.1543 52.3438C59.1309 52.3438 59.8145 52.5391 60.4004 52.5391C61.8164 52.5391 62.793 51.6602 62.793 50.3906C62.793 48.6328 60.9863 47.4609 58.3496 47.4609C55.4199 47.4609 52.5879 48.9746 51.0742 51.8555L51.0742 49.8047C51.0742 48.2422 50.0488 47.3145 48.6816 47.3145C47.2656 47.3145 46.2891 48.3398 46.2891 49.8047L46.2891 66.9434C40.1855 65.2344 36.5234 58.8867 36.5234 49.8047C36.5234 39.209 41.6992 32.3242 49.707 32.3242C55.0293 32.3242 59.2773 35.5957 60.791 40.1367C61.3281 41.6504 62.1582 42.6758 63.916 42.6758C65.7715 42.6758 66.8945 41.5039 66.8945 39.6973C66.8945 38.8672 66.748 37.9883 66.4551 37.207C64.209 30.8105 57.5684 26.416 49.7559 26.416C37.8418 26.416 29.9805 35.5469 29.9805 49.8535Z" fill="#000000" fill-opacity="0.85"/>
 </g>
</svg>
