<?xml version="1.0" encoding="UTF-8"?>
<!--Generator: Apple Native CoreSVG 232.5-->
<!DOCTYPE svg
PUBLIC "-//W3C//DTD SVG 1.1//EN"
       "http://www.w3.org/Graphics/SVG/1.1/DTD/svg11.dtd">
<svg version="1.1" xmlns="http://www.w3.org/2000/svg" xmlns:xlink="http://www.w3.org/1999/xlink" width="89.8926" height="89.9902">
 <g>
  <rect height="89.9902" opacity="0" width="89.8926" x="0" y="0"/>
  <path d="M15.332 89.9902L74.5605 89.9902C84.8145 89.9902 89.8926 84.9121 89.8926 74.8535L89.8926 15.2344C89.8926 5.17578 84.8145 0.0976562 74.5605 0.0976562L15.332 0.0976562C5.12695 0.0976562 0 5.12695 0 15.2344L0 74.8535C0 84.9609 5.12695 89.9902 15.332 89.9902ZM15.4297 82.1289C10.5469 82.1289 7.86133 79.541 7.86133 74.4629L7.86133 15.625C7.86133 10.5469 10.5469 7.95898 15.4297 7.95898L74.4629 7.95898C79.2969 7.95898 82.0312 10.5469 82.0312 15.625L82.0312 74.4629C82.0312 79.541 79.2969 82.1289 74.4629 82.1289Z" fill="#000000" fill-opacity="0.85"/>
  <path d="M25.1953 45.0195C25.1953 59.4727 33.0566 68.457 45.0195 68.457C53.6621 68.457 59.7656 64.1602 62.0605 57.666C62.3047 56.9336 62.4512 56.1523 62.5 55.3223C62.5 53.5645 61.2793 52.3926 59.4727 52.3926C57.8125 52.3926 56.8848 53.2715 56.3477 54.9316C55.1758 59.1309 51.3184 62.1094 46.3379 62.5488L46.3379 55.4688C46.3379 50.7812 49.2188 47.5098 53.3691 47.5098C54.3457 47.5098 55.0293 47.7051 55.6152 47.7051C57.0312 47.7051 58.0078 46.8262 58.0078 45.5566C58.0078 43.7988 56.2012 42.627 53.5645 42.627C50.6348 42.627 47.8027 44.1406 46.2891 47.0215L46.2891 44.9707C46.2891 43.4082 45.3125 42.4805 43.8965 42.4805C42.4805 42.4805 41.5039 43.5059 41.5039 44.9707L41.5039 62.1094C35.4004 60.4004 31.7383 54.0527 31.7383 44.9707C31.7383 34.375 36.9141 27.4902 44.9707 27.4902C50.2441 27.4902 54.4922 30.7617 56.0059 35.3027C56.543 36.8164 57.373 37.8418 59.1309 37.8418C60.9863 37.8418 62.1094 36.6699 62.1094 34.8633C62.1094 34.0332 61.9629 33.1543 61.6699 32.373C59.4238 25.9766 52.7832 21.582 45.0195 21.582C33.0566 21.582 25.1953 30.7129 25.1953 45.0195Z" fill="#000000" fill-opacity="0.85"/>
 </g>
</svg>
