<?xml version="1.0" encoding="UTF-8"?>
<!--Generator: Apple Native CoreSVG 232.5-->
<!DOCTYPE svg
PUBLIC "-//W3C//DTD SVG 1.1//EN"
       "http://www.w3.org/Graphics/SVG/1.1/DTD/svg11.dtd">
<svg version="1.1" xmlns="http://www.w3.org/2000/svg" xmlns:xlink="http://www.w3.org/1999/xlink" width="89.8926" height="89.9902">
 <g>
  <rect height="89.9902" opacity="0" width="89.8926" x="0" y="0"/>
  <path d="M89.8926 15.2344L89.8926 74.8535C89.8926 84.9121 84.8145 89.9902 74.5605 89.9902L15.332 89.9902C5.12695 89.9902 0 84.9609 0 74.8535L0 15.2344C0 5.12695 5.12695 0.0976562 15.332 0.0976562L74.5605 0.0976562C84.8145 0.0976562 89.8926 5.17578 89.8926 15.2344ZM24.5605 45.0195C24.5605 59.9609 32.666 69.2383 45.0195 69.2383C53.9062 69.2383 60.2051 64.7949 62.5977 58.1055C62.8418 57.3242 62.9883 56.543 63.0371 55.6641C63.0371 53.8574 61.8164 52.6367 59.9121 52.6367C58.2031 52.6367 57.2266 53.5156 56.6895 55.2734C55.4688 59.5703 51.5137 62.6465 46.3867 63.0859L46.3867 55.8105C46.3867 50.9766 49.3652 47.6074 53.6133 47.6074C54.6387 47.6074 55.3223 47.8027 55.9082 47.8027C57.373 47.8027 58.3984 46.875 58.3984 45.5566C58.3984 43.75 56.543 42.5293 53.8086 42.5293C50.7812 42.5293 47.9004 44.0918 46.3379 47.0703L46.3379 44.9707C46.3379 43.3594 45.3125 42.3828 43.8477 42.3828C42.3828 42.3828 41.3574 43.457 41.3574 44.9707L41.3574 62.6465C35.1074 60.8398 31.3477 54.3457 31.3477 44.9707C31.3477 34.0332 36.6699 26.9531 44.9707 26.9531C50.3906 26.9531 54.7363 30.3223 56.3477 34.9609C56.8848 36.5234 57.7637 37.5977 59.5703 37.5977C61.4746 37.5977 62.6465 36.377 62.6465 34.5215C62.6465 33.6426 62.5 32.7637 62.207 31.9336C59.8633 25.3418 53.0273 20.8008 45.0195 20.8008C32.666 20.8008 24.5605 30.2734 24.5605 45.0195Z" fill="#000000" fill-opacity="0.85"/>
 </g>
</svg>
