<?xml version="1.0" encoding="UTF-8"?>
<!--Generator: Apple Native CoreSVG 232.5-->
<!DOCTYPE svg
PUBLIC "-//W3C//DTD SVG 1.1//EN"
       "http://www.w3.org/Graphics/SVG/1.1/DTD/svg11.dtd">
<svg version="1.1" xmlns="http://www.w3.org/2000/svg" xmlns:xlink="http://www.w3.org/1999/xlink" width="126.855" height="94.7754">
 <g>
  <rect height="94.7754" opacity="0" width="126.855" x="0" y="0"/>
  <path d="M95.6055 54.0527C110.205 57.4707 119.287 63.0371 119.287 68.8965C119.287 78.418 94.9707 87.207 63.4277 87.207C31.8848 87.207 7.56836 78.418 7.56836 68.8965C7.56836 63.0859 16.4062 57.6172 30.7129 54.1016L27.002 47.168C10.1562 51.6113 0 59.375 0 68.8965C0 84.2285 26.3672 94.7754 63.4277 94.7754C100.537 94.7754 126.855 84.2285 126.855 68.8965C126.855 59.1309 116.113 51.1719 98.584 46.8262ZM100 20.166L100 30.3711C100 51.4648 86.5234 65.8203 65.6738 65.8203L61.1328 65.8203C40.2344 65.8203 26.8555 51.5625 26.8555 30.3711L26.8555 20.166L18.9941 20.166L18.9941 30.3711C18.9941 55.8105 35.9375 73.6816 61.1328 73.6816L65.6738 73.6816C90.8691 73.6816 107.861 55.7617 107.861 30.3711L107.861 20.166ZM63.4277 40.2832C89.8926 40.2832 107.861 32.1289 107.861 20.166C107.861 8.1543 89.9414 0 63.4277 0C36.9141 0 18.9941 8.1543 18.9941 20.166C18.9941 32.1289 36.9629 40.2832 63.4277 40.2832ZM63.4277 32.4219C42.3828 32.4219 26.8555 27.0996 26.8555 20.166C26.8555 13.2324 42.3828 7.86133 63.4277 7.86133C84.4727 7.86133 100 13.2324 100 20.166C100 27.0996 84.4727 32.4219 63.4277 32.4219ZM102.393 51.4648L106.396 51.4648C117.627 51.4648 124.365 45.5566 124.365 35.7422C124.365 26.0254 117.578 20.0684 106.396 20.0684L103.125 20.0684L103.125 27.9297L106.396 27.9297C112.744 27.9297 116.504 30.8594 116.504 35.7422C116.504 40.625 112.744 43.6035 106.396 43.6035L102.393 43.6035Z" fill="#000000" fill-opacity="0.85"/>
 </g>
</svg>
