<?xml version="1.0" encoding="UTF-8"?>
<!--Generator: Apple Native CoreSVG 232.5-->
<!DOCTYPE svg
PUBLIC "-//W3C//DTD SVG 1.1//EN"
       "http://www.w3.org/Graphics/SVG/1.1/DTD/svg11.dtd">
<svg version="1.1" xmlns="http://www.w3.org/2000/svg" xmlns:xlink="http://www.w3.org/1999/xlink" width="89.8926" height="89.9902">
 <g>
  <rect height="89.9902" opacity="0" width="89.8926" x="0" y="0"/>
  <path d="M89.8926 15.2344L89.8926 74.8535C89.8926 84.9121 84.8145 89.9902 74.5605 89.9902L15.332 89.9902C5.12695 89.9902 0 84.9609 0 74.8535L0 15.2344C0 5.12695 5.12695 0.0976562 15.332 0.0976562L74.5605 0.0976562C84.8145 0.0976562 89.8926 5.17578 89.8926 15.2344ZM24.1699 29.3945L24.1699 35.6445C24.1699 39.2578 23.291 40.1367 20.8008 40.7715C16.5527 41.8945 16.5527 48.1445 20.8008 49.2676C23.291 49.9512 24.1699 50.8301 24.1699 54.4434L24.1699 60.6934C24.1699 68.5547 28.2227 72.4609 35.0098 72.4609C38.0371 72.4609 39.7461 71.0449 39.7461 68.9941C39.7461 66.9434 38.2324 65.625 36.2305 65.625C32.8125 65.625 31.543 64.1602 31.543 60.0098L31.543 53.125C31.543 49.2414 29.4628 46.2702 25.9619 45.0037C29.4628 43.7689 31.543 40.7976 31.543 36.9141L31.543 30.0781C31.543 25.9277 32.8125 24.4141 36.2305 24.4141C38.2324 24.4141 39.7461 23.1445 39.7461 21.0938C39.7461 19.043 38.0371 17.5781 35.0098 17.5781C28.2227 17.5781 24.1699 21.5332 24.1699 29.3945ZM50.293 21.0938C50.293 23.1445 51.8066 24.4141 53.8086 24.4141C57.2266 24.4141 58.4961 25.9277 58.4961 30.0781L58.4961 36.9141C58.4961 40.7976 60.5762 43.7689 64.0771 45.0037C60.5762 46.2702 58.4961 49.2414 58.4961 53.125L58.4961 60.0098C58.4961 64.1602 57.2266 65.625 53.8086 65.625C51.8066 65.625 50.293 66.9434 50.293 68.9941C50.293 71.0449 52.002 72.4609 55.0293 72.4609C61.8164 72.4609 65.8691 68.5547 65.8691 60.6934L65.8691 54.4434C65.8691 50.8301 66.748 49.9512 69.2383 49.2676C73.4863 48.1934 73.4863 41.8457 69.2383 40.7715C66.748 40.1367 65.8691 39.2578 65.8691 35.6445L65.8691 29.3945C65.8691 21.5332 61.8164 17.5781 55.0293 17.5781C52.002 17.5781 50.293 19.043 50.293 21.0938Z" fill="#000000" fill-opacity="0.85"/>
 </g>
</svg>
