<?xml version="1.0" encoding="UTF-8"?>
<!--Generator: Apple Native CoreSVG 232.5-->
<!DOCTYPE svg
PUBLIC "-//W3C//DTD SVG 1.1//EN"
       "http://www.w3.org/Graphics/SVG/1.1/DTD/svg11.dtd">
<svg version="1.1" xmlns="http://www.w3.org/2000/svg" xmlns:xlink="http://www.w3.org/1999/xlink" width="90.918" height="100.928">
 <g>
  <rect height="100.928" opacity="0" width="90.918" x="0" y="0"/>
  <path d="M0 50.4395C0 53.2715 1.61133 55.2734 4.98047 55.8105C11.0352 56.7383 13.4277 59.8145 13.4277 67.6758L13.4277 81.3965C13.4277 94.6777 19.4824 100.928 32.666 100.928C33.4473 100.928 34.2773 100.781 34.8633 100.586C36.377 99.9512 37.207 98.7305 37.207 97.1191C37.207 95.2148 36.377 94.2383 34.668 93.7988C34.1797 93.7012 33.6914 93.6035 33.1055 93.5547C24.9023 92.9688 21.9238 89.4531 21.9238 80.4199L21.9238 64.209C21.9238 55.957 17.5781 51.3672 9.96094 50.6348C9.81445 50.6348 9.81445 50.4395 9.96094 50.4395C17.5781 49.707 21.9238 45.1172 21.9238 36.8652L21.9238 20.6055C21.9238 11.5234 24.9023 8.10547 33.1055 7.51953C33.8867 7.4707 34.5703 7.37305 35.0586 7.17773C36.4746 6.68945 37.207 5.61523 37.207 3.90625C37.207 2.19727 36.3281 1.02539 34.668 0.439453C33.9355 0.195312 33.1543 0.0976562 32.1777 0.0976562C19.4336 0.0976562 13.4277 6.44531 13.4277 19.6289L13.4277 33.3984C13.4277 41.1621 11.0352 44.2871 4.98047 45.2148C1.61133 45.752 0 47.6562 0 50.4395ZM90.918 50.4395C90.918 47.6562 89.2578 45.752 85.8887 45.2148C79.8828 44.2871 77.4414 41.1621 77.4414 33.3984L77.4414 19.6289C77.4414 6.44531 71.4355 0.0976562 58.6914 0.0976562C57.7148 0.0976562 56.9824 0.195312 56.25 0.439453C54.4922 1.02539 53.6621 2.19727 53.6621 3.90625C53.6621 5.61523 54.4922 6.64062 55.8594 7.17773C56.3477 7.37305 56.9824 7.4707 57.7637 7.51953C65.918 7.91016 68.9941 11.5234 68.9941 20.6055L68.9941 36.8652C68.9941 45.166 73.3398 50.4395 80.9082 50.4395C81.0547 50.4395 81.0547 50.6348 80.9082 50.6348C73.3398 50.6348 68.9941 55.9082 68.9941 64.209L68.9941 80.4199C68.9941 89.4531 65.9668 92.9688 57.7637 93.5547C57.1777 93.6035 56.7383 93.7012 56.25 93.7988C54.541 94.1406 53.6621 95.2148 53.6621 97.1191C53.6621 98.8281 54.5898 100.098 56.0547 100.586C56.6406 100.781 57.4219 100.928 58.2031 100.928C71.3867 100.928 77.4414 94.6777 77.4414 81.3965L77.4414 67.6758C77.4414 59.8145 79.8828 56.7383 85.8887 55.8105C89.2578 55.2734 90.918 53.2715 90.918 50.4395Z" fill="#000000" fill-opacity="0.85"/>
 </g>
</svg>
