<?xml version="1.0" encoding="UTF-8"?>
<!--Generator: Apple Native CoreSVG 232.5-->
<!DOCTYPE svg
PUBLIC "-//W3C//DTD SVG 1.1//EN"
       "http://www.w3.org/Graphics/SVG/1.1/DTD/svg11.dtd">
<svg version="1.1" xmlns="http://www.w3.org/2000/svg" xmlns:xlink="http://www.w3.org/1999/xlink" width="89.8926" height="89.9902">
 <g>
  <rect height="89.9902" opacity="0" width="89.8926" x="0" y="0"/>
  <path d="M15.332 89.9902L74.5605 89.9902C84.8145 89.9902 89.8926 84.9121 89.8926 74.8535L89.8926 15.2344C89.8926 5.17578 84.8145 0.0976562 74.5605 0.0976562L15.332 0.0976562C5.12695 0.0976562 0 5.12695 0 15.2344L0 74.8535C0 84.9609 5.12695 89.9902 15.332 89.9902ZM15.4297 82.1289C10.5469 82.1289 7.86133 79.541 7.86133 74.4629L7.86133 15.625C7.86133 10.5469 10.5469 7.95898 15.4297 7.95898L74.4629 7.95898C79.2969 7.95898 82.0312 10.5469 82.0312 15.625L82.0312 74.4629C82.0312 79.541 79.2969 82.1289 74.4629 82.1289Z" fill="#000000" fill-opacity="0.85"/>
  <path d="M35.3027 71.6309C38.2324 71.6309 39.8438 70.2637 39.8438 68.2617C39.8438 66.3086 38.4277 65.0391 36.4746 65.0391C33.1543 65.0391 31.9336 63.623 31.9336 59.5703L31.9336 52.8809C31.9336 48.5352 29.248 45.3613 24.8047 44.5312L24.8047 45.459C29.248 44.6777 31.9336 41.5039 31.9336 37.1582L31.9336 30.5176C31.9336 26.4648 33.1543 25 36.4746 25C38.4277 25 39.8438 23.7793 39.8438 21.8262C39.8438 19.8242 38.2324 18.4082 35.3027 18.4082C28.7109 18.4082 24.8047 22.2656 24.8047 29.834L24.8047 35.9375C24.8047 39.4531 23.9746 40.2832 21.4844 40.918C17.3828 41.9922 17.4316 48.0469 21.4844 49.1211C23.9746 49.8047 24.8047 50.6348 24.8047 54.1504L24.8047 60.2539C24.8047 67.8223 28.7109 71.6309 35.3027 71.6309ZM54.7363 71.6309C61.2793 71.6309 65.2344 67.8223 65.2344 60.2539L65.2344 54.1504C65.2344 50.6348 66.0645 49.8047 68.5059 49.1211C72.6074 48.0957 72.6074 41.9434 68.5059 40.918C66.0645 40.2832 65.2344 39.4531 65.2344 35.9375L65.2344 29.834C65.2344 22.2656 61.2793 18.4082 54.7363 18.4082C51.8066 18.4082 50.1465 19.8242 50.1465 21.8262C50.1465 23.7793 51.6113 25 53.5645 25C56.8359 25 58.1055 26.4648 58.1055 30.5176L58.1055 37.1582C58.1055 41.5039 60.791 44.6777 65.1855 45.459L65.1855 44.5312C60.791 45.3613 58.1055 48.5352 58.1055 52.8809L58.1055 59.5703C58.1055 63.623 56.8359 65.0391 53.5645 65.0391C51.6113 65.0391 50.1465 66.3086 50.1465 68.2617C50.1465 70.2637 51.8066 71.6309 54.7363 71.6309Z" fill="#000000" fill-opacity="0.85"/>
 </g>
</svg>
