<?xml version="1.0" encoding="UTF-8"?>
<!--Generator: Apple Native CoreSVG 232.5-->
<!DOCTYPE svg
PUBLIC "-//W3C//DTD SVG 1.1//EN"
       "http://www.w3.org/Graphics/SVG/1.1/DTD/svg11.dtd">
<svg version="1.1" xmlns="http://www.w3.org/2000/svg" xmlns:xlink="http://www.w3.org/1999/xlink" width="123.096" height="107.08">
 <g>
  <rect height="107.08" opacity="0" width="123.096" x="0" y="0"/>
  <path d="M13.9648 4.44336L18.0664 4.44336L18.0664 12.3047L13.9648 12.3047C12.6953 14.502 10.2539 15.9668 7.56836 15.9668C3.41797 15.9668 0 12.5488 0 8.34961C0 4.19922 3.41797 0.78125 7.56836 0.78125C10.2539 0.78125 12.6953 2.29492 13.9648 4.44336ZM123.096 8.34961C123.096 12.5488 119.678 15.9668 115.527 15.9668C112.842 15.9668 110.4 14.502 109.131 12.3047L105.029 12.3047L105.029 4.44336L109.131 4.44336C110.4 2.29492 112.842 0.78125 115.527 0.78125C119.678 0.78125 123.096 4.19922 123.096 8.34961ZM89.5996 12.3047L33.4961 12.3047L33.4961 4.44336L89.5996 4.44336Z" fill="#000000" fill-opacity="0.85"/>
  <path d="M21.5332 103.369L30.0293 103.369C32.0312 103.369 33.4961 101.904 33.4961 99.8535L33.4961 3.56445C33.4961 1.51367 32.0312 0 30.0293 0L21.5332 0C19.5312 0 18.0664 1.51367 18.0664 3.56445L18.0664 99.8535C18.0664 101.904 19.5312 103.369 21.5332 103.369ZM93.0664 103.369L101.562 103.369C103.564 103.369 105.029 101.904 105.029 99.8535L105.029 3.56445C105.029 1.51367 103.564 0 101.562 0L93.0664 0C91.0645 0 89.5996 1.51367 89.5996 3.56445L89.5996 99.8535C89.5996 101.904 91.0645 103.369 93.0664 103.369Z" fill="#000000" fill-opacity="0.85"/>
 </g>
</svg>
