<?xml version="1.0" encoding="UTF-8"?>
<!--Generator: Apple Native CoreSVG 232.5-->
<!DOCTYPE svg
PUBLIC "-//W3C//DTD SVG 1.1//EN"
       "http://www.w3.org/Graphics/SVG/1.1/DTD/svg11.dtd">
<svg version="1.1" xmlns="http://www.w3.org/2000/svg" xmlns:xlink="http://www.w3.org/1999/xlink" width="112.158" height="136.865">
 <g>
  <rect height="136.865" opacity="0" width="112.158" x="0" y="0"/>
  <path d="M70.6754 18.8477L35.498 18.8477C30.9082 18.8477 28.1738 21.4355 28.1738 26.2695L28.1738 101.904C28.1738 106.689 30.9082 109.326 35.498 109.326L79.2969 109.326C83.8867 109.326 86.6211 106.689 86.6211 101.904L86.6211 65.8819C86.889 65.9142 87.1693 65.918 87.4512 65.918C89.9328 65.918 92.2905 65.6243 94.4824 65.0459L94.4824 102.295C94.4824 110.367 91.0471 115.235 84.2773 116.701L84.2773 121.826C84.2773 124.17 82.7148 125.781 80.3223 125.781C77.9785 125.781 76.416 124.17 76.416 121.826L76.416 117.187L38.3789 117.187L38.3789 121.826C38.3789 124.17 36.8164 125.781 34.4727 125.781C32.1289 125.781 30.5176 124.17 30.5176 121.826L30.5176 116.693C23.766 115.215 20.3125 110.35 20.3125 102.295L20.3125 25.8301C20.3125 15.9668 25.5371 10.9863 35.4004 10.9863L75.2399 10.9863C73.6699 13.5558 72.102 16.2394 70.6754 18.8477ZM54.3457 99.3164C54.3457 101.025 52.9785 102.393 51.2207 102.393L37.0117 102.393C35.3027 102.393 33.9355 101.025 33.9355 99.3164C33.9355 97.5586 35.3027 96.1914 37.0117 96.1914L51.2207 96.1914C52.9785 96.1914 54.3457 97.5586 54.3457 99.3164ZM80.8594 99.3164C80.8594 101.025 79.4922 102.393 77.7832 102.393L63.5742 102.393C61.8164 102.393 60.4492 101.025 60.4492 99.3164C60.4492 97.5586 61.8164 96.1914 63.5742 96.1914L77.7832 96.1914C79.4922 96.1914 80.8594 97.5586 80.8594 99.3164ZM54.3457 87.1094C54.3457 88.8672 52.9785 90.1855 51.2207 90.1855L37.0117 90.1855C35.3027 90.1855 33.9355 88.8672 33.9355 87.1094C33.9355 85.3516 35.3027 84.0332 37.0117 84.0332L51.2207 84.0332C52.9785 84.0332 54.3457 85.3516 54.3457 87.1094ZM80.8594 87.1094C80.8594 88.8672 79.4922 90.1855 77.7832 90.1855L63.5742 90.1855C61.8164 90.1855 60.4492 88.8672 60.4492 87.1094C60.4492 85.3516 61.8164 84.0332 63.5742 84.0332L77.7832 84.0332C79.4922 84.0332 80.8594 85.3516 80.8594 87.1094ZM54.3457 74.9023C54.3457 76.6602 52.9785 77.9785 51.2207 77.9785L37.0117 77.9785C35.3027 77.9785 33.9355 76.6602 33.9355 74.9023C33.9355 73.1934 35.3027 71.8262 37.0117 71.8262L51.2207 71.8262C52.9785 71.8262 54.3457 73.1934 54.3457 74.9023ZM80.8594 74.9023C80.8594 76.6602 79.4922 77.9785 77.7832 77.9785L63.5742 77.9785C61.8164 77.9785 60.4492 76.6602 60.4492 74.9023C60.4492 73.1934 61.8164 71.8262 63.5742 71.8262L77.7832 71.8262C79.4922 71.8262 80.8594 73.1934 80.8594 74.9023ZM47.998 32.373C47.998 36.1816 44.873 39.3066 41.1133 39.3066C37.3047 39.3066 34.2285 36.1816 34.2285 32.373C34.2285 28.6133 37.3047 25.5371 41.1133 25.5371C44.873 25.5371 47.998 28.6133 47.998 32.373Z" fill="#000000" fill-opacity="0.85"/>
  <path d="M87.4512 59.2285C98.2422 59.2285 105.518 52.2461 105.518 41.748C105.518 36.5234 103.32 31.9824 101.758 28.4668C98.877 22.3145 94.2383 14.5996 90.1855 8.39844C89.3555 7.22656 88.5254 6.68945 87.4512 6.68945C86.4258 6.68945 85.5469 7.22656 84.7656 8.39844C80.7129 14.5996 76.0254 22.3145 73.1445 28.4668C71.6309 31.9824 69.4336 36.5234 69.4336 41.748C69.4336 52.2461 76.6602 59.2285 87.4512 59.2285Z" fill="#000000" fill-opacity="0.85"/>
 </g>
</svg>
