<?xml version="1.0" encoding="UTF-8"?>
<!--Generator: Apple Native CoreSVG 232.5-->
<!DOCTYPE svg
PUBLIC "-//W3C//DTD SVG 1.1//EN"
       "http://www.w3.org/Graphics/SVG/1.1/DTD/svg11.dtd">
<svg version="1.1" xmlns="http://www.w3.org/2000/svg" xmlns:xlink="http://www.w3.org/1999/xlink" width="108.301" height="89.9902">
 <g>
  <rect height="89.9902" opacity="0" width="108.301" x="0" y="0"/>
  <path d="M105.811 15.2344L105.811 74.8535C105.811 84.9609 100.684 89.9902 90.4785 89.9902L48.0957 89.9414C42.3828 89.9414 37.5 88.1836 33.4473 83.9844L4.63867 54.248C1.41602 50.9766 0 47.998 0 44.9707C0 41.8945 1.46484 38.9648 4.63867 35.6934L33.3984 5.81055C37.4023 1.5625 42.334 0.0976562 48.0469 0.0976562L90.4785 0.0976562C100.684 0.0976562 105.811 5.12695 105.811 15.2344ZM75.5859 25.7812L61.8652 39.4043L48.2422 25.8301C47.4609 25.0977 46.582 24.6582 45.459 24.6582C43.2129 24.6582 41.4062 26.416 41.4062 28.6621C41.4062 29.7363 41.8457 30.7129 42.5781 31.4941L56.1523 45.0684L42.5781 58.5938C41.8457 59.375 41.4062 60.3516 41.4062 61.4258C41.4062 63.7207 43.2129 65.5273 45.459 65.5273C46.582 65.5273 47.6074 65.0879 48.3887 64.3555L61.8652 50.7324L75.3906 64.3555C76.123 65.0879 77.1484 65.5273 78.2715 65.5273C80.5664 65.5273 82.3242 63.7207 82.3242 61.4258C82.3242 60.3027 81.9824 59.3262 81.1523 58.5449L67.627 45.0684L81.2012 31.4453C82.0801 30.5664 82.373 29.6875 82.373 28.5645C82.373 26.3672 80.6152 24.5605 78.3691 24.5605C77.2949 24.5605 76.416 24.9512 75.5859 25.7812Z" fill="#000000" fill-opacity="0.85"/>
 </g>
</svg>
