<?xml version="1.0" encoding="UTF-8"?>
<!--Generator: Apple Native CoreSVG 232.5-->
<!DOCTYPE svg
PUBLIC "-//W3C//DTD SVG 1.1//EN"
       "http://www.w3.org/Graphics/SVG/1.1/DTD/svg11.dtd">
<svg version="1.1" xmlns="http://www.w3.org/2000/svg" xmlns:xlink="http://www.w3.org/1999/xlink" width="108.301" height="89.9902">
 <g>
  <rect height="89.9902" opacity="0" width="108.301" x="0" y="0"/>
  <path d="M90.4785 89.9902C100.684 89.9902 105.811 84.9609 105.811 74.8535L105.811 15.2344C105.811 5.12695 100.684 0.0976562 90.4785 0.0976562L48.0469 0.0976562C42.334 0.0976562 37.4023 1.5625 33.3984 5.81055L4.63867 35.6934C1.46484 38.9648 0 41.8945 0 44.9707C0 47.998 1.41602 50.9766 4.63867 54.248L33.4473 83.9844C37.5 88.1836 42.3828 89.9414 48.0957 89.9414ZM90.3809 82.1289L47.9492 82.1289C44.2383 82.1289 41.9434 81.25 39.3555 78.6133L10.7422 49.0723C9.08203 47.3633 8.59375 46.1914 8.59375 44.9707C8.59375 43.7012 9.13086 42.5293 10.7422 40.8203L39.3066 11.1816C41.8457 8.59375 44.2383 7.95898 47.9004 7.95898L90.3809 7.95898C95.2637 7.95898 97.9492 10.5469 97.9492 15.625L97.9492 74.4629C97.9492 79.541 95.2637 82.1289 90.3809 82.1289Z" fill="#000000" fill-opacity="0.85"/>
  <path d="M45.2148 65.6738C46.2891 65.6738 47.2656 65.2344 47.998 64.4531L61.8652 50.5371L75.7324 64.4531C76.4648 65.1855 77.4414 65.6738 78.5645 65.6738C80.7129 65.6738 82.4707 63.8672 82.4707 61.7188C82.4707 60.5957 82.0312 59.668 81.2988 58.9355L67.4316 45.0684L81.3477 31.1035C82.1289 30.2734 82.5195 29.4434 82.5195 28.3691C82.5195 26.1719 80.7617 24.4629 78.6133 24.4629C77.5879 24.4629 76.709 24.8047 75.8789 25.6348L61.8652 39.5996L47.9004 25.6836C47.168 24.9023 46.2891 24.5605 45.2148 24.5605C43.0664 24.5605 41.3086 26.2207 41.3086 28.418C41.3086 29.4922 41.6992 30.4199 42.4805 31.1523L56.3477 45.0684L42.4805 58.9844C41.6992 59.668 41.3086 60.6445 41.3086 61.7188C41.3086 63.8672 43.0664 65.6738 45.2148 65.6738Z" fill="#000000" fill-opacity="0.85"/>
 </g>
</svg>
