<?xml version="1.0" encoding="UTF-8"?>
<!--Generator: Apple Native CoreSVG 232.5-->
<!DOCTYPE svg
PUBLIC "-//W3C//DTD SVG 1.1//EN"
       "http://www.w3.org/Graphics/SVG/1.1/DTD/svg11.dtd">
<svg version="1.1" xmlns="http://www.w3.org/2000/svg" xmlns:xlink="http://www.w3.org/1999/xlink" width="108.301" height="89.9902">
 <g>
  <rect height="89.9902" opacity="0" width="108.301" x="0" y="0"/>
  <path d="M17.8223 89.9902L60.2051 89.9414C65.918 89.9414 70.8496 88.1836 74.8535 83.9844L103.662 54.248C106.885 50.9766 108.301 47.998 108.301 44.9707C108.301 41.8945 106.885 38.9648 103.662 35.6934L74.9023 5.81055C70.8984 1.5625 65.9668 0.0976562 60.2539 0.0976562L17.8223 0.0976562C7.66602 0.0976562 2.49023 5.12695 2.49023 15.2344L2.49023 74.8535C2.49023 84.9609 7.66602 89.9902 17.8223 89.9902ZM17.9688 82.1289C13.0859 82.1289 10.3516 79.541 10.3516 74.4629L10.3516 15.625C10.3516 10.5469 13.0859 7.95898 17.9688 7.95898L60.4004 7.95898C64.0625 7.95898 66.5039 8.59375 68.9941 11.1816L97.5586 40.8203C99.1699 42.5293 99.7559 43.7012 99.7559 44.9707C99.7559 46.1914 99.2188 47.3633 97.5586 49.0723L68.9453 78.6133C66.4062 81.25 64.0625 82.1289 60.3516 82.1289Z" fill="#000000" fill-opacity="0.85"/>
  <path d="M29.834 65.6738C30.957 65.6738 31.9336 65.2344 32.666 64.4531L46.4844 50.5371L60.4004 64.4531C61.1328 65.1855 62.0605 65.6738 63.1836 65.6738C65.3809 65.6738 67.0898 63.8672 67.0898 61.7188C67.0898 60.5957 66.6992 59.668 65.918 58.9355L52.0508 45.0684L65.9668 31.1035C66.7969 30.2734 67.1387 29.4434 67.1387 28.3691C67.1387 26.1719 65.4297 24.4629 63.2324 24.4629C62.207 24.4629 61.377 24.8047 60.5469 25.6348L46.4844 39.5996L32.5684 25.6836C31.8359 24.9023 30.957 24.5605 29.834 24.5605C27.6855 24.5605 25.9277 26.2207 25.9277 28.418C25.9277 29.4922 26.3672 30.4199 27.0996 31.1523L40.9668 45.0684L27.0996 58.9844C26.3672 59.668 25.9277 60.6445 25.9277 61.7188C25.9277 63.8672 27.6855 65.6738 29.834 65.6738Z" fill="#000000" fill-opacity="0.85"/>
 </g>
</svg>
