<?xml version="1.0" encoding="UTF-8"?>
<!--Generator: Apple Native CoreSVG 232.5-->
<!DOCTYPE svg
PUBLIC "-//W3C//DTD SVG 1.1//EN"
       "http://www.w3.org/Graphics/SVG/1.1/DTD/svg11.dtd">
<svg version="1.1" xmlns="http://www.w3.org/2000/svg" xmlns:xlink="http://www.w3.org/1999/xlink" width="100.391" height="118.701">
 <g>
  <rect height="118.701" opacity="0" width="100.391" x="0" y="0"/>
  <path d="M4.00391 118.311L96.2891 118.311C98.584 118.311 100.391 116.504 100.391 114.258C100.391 111.963 98.584 110.205 96.2891 110.205L4.00391 110.205C1.75781 110.205 0 111.963 0 114.258C0 116.504 1.75781 118.311 4.00391 118.311Z" fill="#000000" fill-opacity="0.85"/>
  <path d="M36.0352 60.8887L64.2578 60.8887C73.3887 60.8887 78.8086 55.3223 78.8086 46.1914L78.8086 14.6973C78.8086 6.05469 73.4863 0 64.2578 0L36.0352 0C27.002 0 21.4844 5.61523 21.4844 14.6973L21.4844 46.1914C21.4844 55.3223 27.002 60.8887 36.0352 60.8887ZM36.8652 53.0273C31.25 53.0273 28.9551 50.4883 28.9551 45.2637L28.9551 15.7227C28.9551 10.4004 31.25 7.86133 36.8652 7.86133L63.4277 7.86133C69.043 7.86133 71.3867 10.4004 71.3867 15.7227L71.3867 45.2637C71.3867 50.4883 69.043 53.0273 63.4277 53.0273ZM32.0801 83.6914L68.2129 83.6914C72.0703 83.6914 74.8047 81.0547 74.8047 77.3438C74.8047 75.7812 73.877 73.7793 72.5586 72.2656L61.8652 59.6191L52.3438 59.6191L64.7461 74.5605C65.2344 75.1953 64.8438 75.8301 64.1602 75.8301L36.1816 75.8301C35.4492 75.8301 35.0586 75.1953 35.5957 74.5605L47.998 59.6191L38.4277 59.6191L27.7832 72.2656C26.416 73.8281 25.5371 75.8301 25.5371 77.3438C25.5371 81.0547 28.2227 83.6914 32.0801 83.6914Z" fill="#000000" fill-opacity="0.85"/>
 </g>
</svg>
