<?xml version="1.0" encoding="UTF-8"?>
<!--Generator: Apple Native CoreSVG 232.5-->
<!DOCTYPE svg
PUBLIC "-//W3C//DTD SVG 1.1//EN"
       "http://www.w3.org/Graphics/SVG/1.1/DTD/svg11.dtd">
<svg version="1.1" xmlns="http://www.w3.org/2000/svg" xmlns:xlink="http://www.w3.org/1999/xlink" width="110.755" height="110.804">
 <g>
  <rect height="110.804" opacity="0" width="110.755" x="0" y="0"/>
  <path d="M5.47524 66.1686L44.5866 105.28C51.8131 112.506 58.942 112.555 66.1198 105.426L105.426 66.0709C112.555 58.942 112.506 51.7643 105.28 44.5377L66.2174 5.47524C58.9909-1.75132 51.862-1.84898 44.6842 5.32876L5.32876 44.6354C-1.84898 51.8131-1.75132 58.942 5.47524 66.1686ZM102.253 55.3776C102.253 57.1842 101.374 59.0397 99.567 60.7975L60.7975 99.567C57.1842 103.18 53.4245 103.083 50.0065 99.6647L11.1393 60.7487C9.38149 58.9909 8.50259 57.1842 8.50259 55.3776Z" fill="#000000" fill-opacity="0.85"/>
 </g>
</svg>
