<?xml version="1.0" encoding="UTF-8"?>
<!--Generator: Apple Native CoreSVG 232.5-->
<!DOCTYPE svg
PUBLIC "-//W3C//DTD SVG 1.1//EN"
       "http://www.w3.org/Graphics/SVG/1.1/DTD/svg11.dtd">
<svg version="1.1" xmlns="http://www.w3.org/2000/svg" xmlns:xlink="http://www.w3.org/1999/xlink" width="103.32" height="102.393">
 <g>
  <rect height="102.393" opacity="0" width="103.32" x="0" y="0"/>
  <path d="M79.6387 15.2344L79.6387 22.7051L71.7773 22.7051L71.7773 15.6738C71.7773 10.5957 69.043 7.95898 64.209 7.95898L15.4297 7.95898C10.5469 7.95898 7.86133 10.5957 7.86133 15.6738L7.86133 64.209C7.86133 69.2871 10.5469 71.9238 15.4297 71.9238L23.6816 71.9238L23.6816 79.7852L15.332 79.7852C5.07812 79.7852 0 74.707 0 64.6484L0 15.2344C0 5.17578 5.07812 0.0976562 15.332 0.0976562L64.3555 0.0976562C74.5117 0.0976562 79.6387 5.17578 79.6387 15.2344Z" fill="#000000" fill-opacity="0.85"/>
  <path d="M39.0137 102.393L88.0371 102.393C98.1934 102.393 103.32 97.3145 103.32 87.2559L103.32 37.8418C103.32 27.7832 98.1934 22.7051 88.0371 22.7051L39.0137 22.7051C28.7598 22.7051 23.6816 27.7344 23.6816 37.8418L23.6816 87.2559C23.6816 97.3145 28.7598 102.393 39.0137 102.393ZM39.1113 94.5312C34.2773 94.5312 31.543 91.8945 31.543 86.8164L31.543 38.2812C31.543 33.2031 34.2773 30.5664 39.1113 30.5664L87.8906 30.5664C92.7246 30.5664 95.459 33.2031 95.459 38.2812L95.459 86.8164C95.459 91.8945 92.7246 94.5312 87.8906 94.5312Z" fill="#000000" fill-opacity="0.85"/>
  <path d="M44.4336 50.3906C48.1934 50.4395 51.3184 47.3145 51.3184 43.457C51.3184 39.5996 48.1934 36.5723 44.4336 36.5723C40.625 36.5723 37.5 39.5996 37.5 43.457C37.5 47.3145 40.625 50.3418 44.4336 50.3906ZM82.666 50.3906C86.4258 50.4395 89.5508 47.3145 89.5508 43.457C89.5508 39.5996 86.4258 36.5723 82.666 36.5723C78.8574 36.5723 75.6836 39.5996 75.6836 43.457C75.6836 47.3145 78.8574 50.3418 82.666 50.3906ZM63.5254 69.5312C67.2852 69.5312 70.4102 66.4062 70.4102 62.5488C70.4102 58.7891 67.2852 55.7129 63.5254 55.7129C59.7168 55.7129 56.6406 58.7891 56.6406 62.5488C56.6406 66.4062 59.7168 69.5312 63.5254 69.5312ZM44.4336 88.6719C48.1934 88.6719 51.3184 85.5469 51.3184 81.7383C51.3184 77.9297 48.1934 74.8535 44.4336 74.8535C40.625 74.8535 37.5488 77.9297 37.5488 81.7383C37.5488 85.5469 40.625 88.6719 44.4336 88.6719ZM82.666 88.6719C86.4258 88.6719 89.5508 85.5469 89.5508 81.7383C89.5508 77.9297 86.4258 74.8535 82.666 74.8535C78.8574 74.8535 75.7324 77.9297 75.7324 81.7383C75.7324 85.5469 78.8574 88.6719 82.666 88.6719Z" fill="#000000" fill-opacity="0.85"/>
 </g>
</svg>
