<?xml version="1.0" encoding="UTF-8"?>
<!--Generator: Apple Native CoreSVG 232.5-->
<!DOCTYPE svg
PUBLIC "-//W3C//DTD SVG 1.1//EN"
       "http://www.w3.org/Graphics/SVG/1.1/DTD/svg11.dtd">
<svg version="1.1" xmlns="http://www.w3.org/2000/svg" xmlns:xlink="http://www.w3.org/1999/xlink" width="109.521" height="98.7793">
 <g>
  <rect height="98.7793" opacity="0" width="109.521" x="0" y="0"/>
  <path d="M62.0117 49.3652C62.0117 78.9551 71.4844 98.7305 85.7422 98.7305C100 98.7305 109.521 78.9551 109.521 49.3652C109.521 19.7266 100 0 85.7422 0C71.4844 0 62.0117 19.7266 62.0117 49.3652ZM69.873 49.3652C69.873 24.4629 76.2695 7.86133 85.7422 7.86133C95.2148 7.86133 101.66 24.4629 101.66 49.3652C101.66 74.2188 95.2148 90.8691 85.7422 90.8691C76.2695 90.8691 69.873 74.2188 69.873 49.3652ZM37.3047 49.3652C37.3047 80.0781 45.8496 98.7305 66.3086 98.7305L85.7422 98.7305L85.7422 90.8691L66.3086 90.8691C50.7812 90.8691 45.166 75.1953 45.166 49.3652C45.166 23.5352 50.7812 7.86133 66.3086 7.86133L85.7422 7.86133L85.7422 0L66.3086 0C45.8496 0 37.3047 18.6035 37.3047 49.3652ZM60.498 20.8008L69.6289 20.8008L69.6289 14.4043L60.498 14.4043C58.7402 14.4043 57.2754 15.8691 57.2754 17.627C57.2754 19.3848 58.7402 20.8008 60.498 20.8008ZM57.1777 35.791L66.3086 35.791L66.3086 29.3945L57.1777 29.3945C55.4199 29.3945 53.9551 30.8105 53.9551 32.5684C53.9551 34.3262 55.4199 35.791 57.1777 35.791ZM55.9082 51.9531L65.0391 51.9531L65.0391 45.5566L55.9082 45.5566C54.1504 45.5566 52.7344 47.0215 52.7344 48.7793C52.7344 50.5371 54.1504 51.9531 55.9082 51.9531ZM57.1777 68.1641L66.3086 68.1641L66.3086 61.7676L57.1777 61.7676C55.4199 61.7676 53.9551 63.2324 53.9551 64.9902C53.9551 66.748 55.4199 68.1641 57.1777 68.1641ZM60.498 83.1543L69.6289 83.1543L69.6289 76.7578L60.498 76.7578C58.7402 76.7578 57.2754 78.1738 57.2754 79.9316C57.2754 81.6895 58.7402 83.1543 60.498 83.1543Z" fill="#000000" fill-opacity="0.85"/>
  <path d="M14.7461 88.1836C16.9922 88.1836 19.1895 86.2793 18.1152 83.3496C15.0879 74.4141 13.4277 64.3066 13.4277 53.8086C13.4277 43.3105 15.0879 33.2031 18.1152 24.2676L11.1328 21.875C7.86133 31.5918 6.05469 42.5293 6.05469 53.8086C6.05469 65.0879 7.91016 76.0254 11.1328 85.7422C11.7188 87.5488 13.2812 88.1836 14.7461 88.1836ZM2.34375 25.9277L23.3398 33.5449C26.5137 34.7168 28.8574 31.5918 27.9785 28.9551L22.2656 11.8652C21.5332 9.57031 19.1895 8.74023 17.0898 10.0098L1.70898 19.4824C-0.683594 20.9961-0.634766 24.8047 2.34375 25.9277Z" fill="#000000" fill-opacity="0.85"/>
 </g>
</svg>
