<?xml version="1.0" encoding="UTF-8"?>
<!--Generator: Apple Native CoreSVG 232.5-->
<!DOCTYPE svg
PUBLIC "-//W3C//DTD SVG 1.1//EN"
       "http://www.w3.org/Graphics/SVG/1.1/DTD/svg11.dtd">
<svg version="1.1" xmlns="http://www.w3.org/2000/svg" xmlns:xlink="http://www.w3.org/1999/xlink" width="108.252" height="98.7793">
 <g>
  <rect height="98.7793" opacity="0" width="108.252" x="0" y="0"/>
  <path d="M63.2324 49.3652C63.2324 78.2227 72.3633 97.4609 85.7422 97.4609C99.1211 97.4609 108.252 78.2227 108.252 49.3652C108.252 20.5078 99.1211 1.2207 85.7422 1.2207C72.3633 1.2207 63.2324 20.5078 63.2324 49.3652ZM37.3047 49.3652C37.3047 80.0781 45.8496 98.7305 66.3086 98.7305L71.8262 98.7305C67.7246 95.1172 64.3066 89.8438 61.8164 83.1543L55.2246 83.1543C53.4668 83.1543 52.002 81.6895 52.002 79.9316C52.002 78.1738 53.4668 76.7578 55.2246 76.7578L59.7656 76.7578C58.9844 73.9258 58.3984 70.8984 57.959 68.1641L51.9043 68.1641C50.1465 68.1641 48.6816 66.748 48.6816 64.9902C48.6816 63.2324 50.1465 61.7676 51.9043 61.7676L57.1777 61.7676C56.8359 58.5938 56.6406 54.9805 56.5918 51.9531L50.6348 51.9531C48.877 51.9531 47.4609 50.5371 47.4609 48.7793C47.4609 47.0215 48.877 45.5566 50.6348 45.5566L56.6406 45.5566C56.6895 42.334 56.8848 38.9648 57.2754 35.791L51.9043 35.791C50.1465 35.791 48.6816 34.3262 48.6816 32.5684C48.6816 30.8105 50.1465 29.3945 51.9043 29.3945L58.1543 29.3945C58.6426 26.3672 59.2773 23.5352 60.1074 20.8008L55.2246 20.8008C53.4668 20.8008 52.002 19.3848 52.002 17.627C52.002 15.8691 53.4668 14.4043 55.2246 14.4043L62.2559 14.4043C64.6973 8.25195 67.9688 3.36914 71.8262 0L66.3086 0C45.8496 0 37.3047 18.6035 37.3047 49.3652Z" fill="#000000" fill-opacity="0.85"/>
  <path d="M15.1367 9.17969C13.6719 9.17969 12.1582 9.86328 11.5723 11.5723C8.00781 21.5332 6.05469 32.2266 6.05469 43.8477C6.05469 55.4199 7.95898 66.1621 11.5723 76.123L18.5059 73.6328C15.1367 64.4531 13.4277 54.5898 13.4277 43.8477C13.4277 33.0566 15.1367 23.2422 18.5059 14.0625C19.6289 11.084 17.4316 9.17969 15.1367 9.17969ZM2.34375 72.0215C-0.634766 73.0957-0.683594 76.9531 1.70898 78.418L17.0898 87.9395C19.1895 89.209 21.5332 88.3301 22.2656 86.0352L27.9785 68.9941C28.8574 66.3574 26.5137 63.2324 23.3398 64.3555Z" fill="#000000" fill-opacity="0.85"/>
 </g>
</svg>
