<?xml version="1.0" encoding="UTF-8"?>
<!--Generator: Apple Native CoreSVG 232.5-->
<!DOCTYPE svg
PUBLIC "-//W3C//DTD SVG 1.1//EN"
       "http://www.w3.org/Graphics/SVG/1.1/DTD/svg11.dtd">
<svg version="1.1" xmlns="http://www.w3.org/2000/svg" xmlns:xlink="http://www.w3.org/1999/xlink" width="127.051" height="98.7793">
 <g>
  <rect height="98.7793" opacity="0" width="127.051" x="0" y="0"/>
  <path d="M31.5918 14.4043L24.5605 14.4043C22.8027 14.4043 21.3867 15.8691 21.3867 17.627C21.3867 19.3848 22.8027 20.8008 24.5605 20.8008L29.4434 20.8008C28.6621 23.5352 28.0273 26.3672 27.5391 29.3945L21.2402 29.3945C19.4824 29.3945 18.0664 30.8105 18.0664 32.5684C18.0664 34.3262 19.4824 35.791 21.2402 35.791L26.6113 35.791C26.2695 38.9648 26.0254 42.334 25.9766 45.5566L20.0195 45.5566C18.2617 45.5566 16.7969 47.0215 16.7969 48.7793C16.7969 50.5371 18.2617 51.9531 20.0195 51.9531L25.9277 51.9531C25.9766 54.9805 26.2207 58.5938 26.5137 61.7676L21.2402 61.7676C19.4824 61.7676 18.0664 63.2324 18.0664 64.9902C18.0664 66.748 19.4824 68.1641 21.2402 68.1641L27.3438 68.1641C27.7832 70.8984 28.3691 73.9258 29.1016 76.7578L24.5605 76.7578C22.8027 76.7578 21.3867 78.1738 21.3867 79.9316C21.3867 81.6895 22.8027 83.1543 24.5605 83.1543L31.1523 83.1543C33.6914 89.8438 37.0605 95.1172 41.2109 98.7305L35.6445 98.7305C15.2344 98.7305 6.64062 80.0781 6.64062 49.3652C6.64062 18.6035 15.2344 0 35.6445 0L41.2109 0C37.3047 3.36914 34.082 8.25195 31.5918 14.4043ZM76.0906 30.2455L63.5742 41.3574C58.5938 45.7031 58.5449 52.9297 63.5742 57.3242L76.0969 68.4371C72.9789 86.3925 65.275 97.4609 55.127 97.4609C41.748 97.4609 32.6172 78.2227 32.6172 49.3652C32.6172 20.5078 41.748 1.2207 55.127 1.2207C65.2675 1.2207 72.9675 12.3009 76.0906 30.2455Z" fill="#000000" fill-opacity="0.85"/>
  <path d="M68.0176 52.3438L82.7637 65.4297C85.5957 68.0176 89.7949 66.5527 89.7949 62.4023L89.7949 53.5645L116.211 53.5645C118.555 53.5645 120.361 51.709 120.361 49.4141C120.361 47.0215 118.555 45.2148 116.211 45.2148L89.7949 45.2148L89.7949 36.2793C89.7949 32.2754 85.7422 30.5664 82.7637 33.2031L68.0176 46.3379C65.9668 48.0957 65.9668 50.5371 68.0176 52.3438Z" fill="#000000" fill-opacity="0.85"/>
 </g>
</svg>
