<?xml version="1.0" encoding="UTF-8"?>
<!--Generator: Apple Native CoreSVG 232.5-->
<!DOCTYPE svg
PUBLIC "-//W3C//DTD SVG 1.1//EN"
       "http://www.w3.org/Graphics/SVG/1.1/DTD/svg11.dtd">
<svg version="1.1" xmlns="http://www.w3.org/2000/svg" xmlns:xlink="http://www.w3.org/1999/xlink" width="98.7305" height="109.665">
 <g>
  <rect height="109.665" opacity="0" width="98.7305" x="0" y="0"/>
  <path d="M49.3652 47.5326C78.9551 47.5326 98.7305 38.06 98.7305 23.8022C98.7305 9.54436 78.9551 0.0228793 49.3652 0.0228793C19.7266 0.0228793 0 9.54436 0 23.8022C0 38.06 19.7266 47.5326 49.3652 47.5326ZM49.3652 39.6713C24.4629 39.6713 7.86133 33.2748 7.86133 23.8022C7.86133 14.3295 24.4629 7.88421 49.3652 7.88421C74.2676 7.88421 90.8691 14.3295 90.8691 23.8022C90.8691 33.2748 74.2676 39.6713 49.3652 39.6713ZM49.3652 72.2397C80.0781 72.2397 98.7305 63.6948 98.7305 43.2358L98.7305 23.8022L90.8691 23.8022L90.8691 43.2358C90.8691 58.7631 75.1953 64.3783 49.3652 64.3783C23.5352 64.3783 7.86133 58.7631 7.86133 43.2358L7.86133 23.8022L0 23.8022L0 43.2358C0 63.6948 18.6035 72.2397 49.3652 72.2397ZM20.8008 49.0463L20.8008 39.9155L14.4043 39.9155L14.4043 49.0463C14.4043 50.8041 15.8691 52.269 17.627 52.269C19.3848 52.269 20.8008 50.8041 20.8008 49.0463ZM35.791 52.3666L35.791 43.2358L29.3945 43.2358L29.3945 52.3666C29.3945 54.1244 30.8105 55.5893 32.5684 55.5893C34.3262 55.5893 35.791 54.1244 35.791 52.3666ZM51.9531 53.6362L51.9531 44.5053L45.5566 44.5053L45.5566 53.6362C45.5566 55.394 47.0215 56.81 48.7793 56.81C50.5371 56.81 51.9531 55.394 51.9531 53.6362ZM68.1641 52.3666L68.1641 43.2358L61.7676 43.2358L61.7676 52.3666C61.7676 54.1244 63.2324 55.5893 64.9902 55.5893C66.748 55.5893 68.1641 54.1244 68.1641 52.3666ZM83.1543 49.0463L83.1543 39.9155L76.7578 39.9155L76.7578 49.0463C76.7578 50.8041 78.1738 52.269 79.9316 52.269C81.6895 52.269 83.1543 50.8041 83.1543 49.0463Z" fill="#000000" fill-opacity="0.85"/>
  <path d="M88.1836 94.7983C88.1836 92.5522 86.2793 90.3549 83.3496 91.4291C74.4141 94.4565 64.3066 96.1166 53.8086 96.1166C43.3105 96.1166 33.2031 94.4565 24.3164 91.4291L21.875 98.4116C31.5918 101.683 42.5293 103.49 53.8086 103.49C65.0879 103.49 76.0254 101.634 85.7422 98.4116C87.5488 97.8256 88.1836 96.2631 88.1836 94.7983ZM26.0254 107.298L33.3984 86.2045C34.5215 83.0307 31.3965 80.6869 28.7598 81.6147L11.8164 87.5229C9.47266 88.3041 8.64258 90.6479 9.96094 92.7475L19.6289 107.982C21.1426 110.374 24.9512 110.277 26.0254 107.298Z" fill="#000000" fill-opacity="0.85"/>
 </g>
</svg>
