<?xml version="1.0" encoding="UTF-8"?>
<!--Generator: Apple Native CoreSVG 232.5-->
<!DOCTYPE svg
PUBLIC "-//W3C//DTD SVG 1.1//EN"
       "http://www.w3.org/Graphics/SVG/1.1/DTD/svg11.dtd">
<svg version="1.1" xmlns="http://www.w3.org/2000/svg" xmlns:xlink="http://www.w3.org/1999/xlink" width="98.7305" height="108.395">
 <g>
  <rect height="108.395" opacity="0" width="98.7305" x="0" y="0"/>
  <path d="M49.3652 45.0424C78.2227 45.0424 97.4609 35.9116 97.4609 22.5326C97.4609 9.15374 78.2227 0.0228793 49.3652 0.0228793C20.5078 0.0228793 1.26953 9.15374 1.26953 22.5326C1.26953 35.9116 20.5078 45.0424 49.3652 45.0424ZM49.3652 71.019C80.0781 71.019 98.7305 62.4252 98.7305 42.0151L98.7305 36.4487C95.1172 40.5991 89.8438 43.9682 83.1543 46.4584L83.1543 53.0991C83.1543 54.8569 81.6895 56.2729 79.9316 56.2729C78.1738 56.2729 76.7578 54.8569 76.7578 53.0991L76.7578 48.558C73.9258 49.2905 70.8984 49.8764 68.1641 50.3158L68.1641 56.4194C68.1641 58.1772 66.748 59.5932 64.9902 59.5932C63.2324 59.5932 61.7676 58.1772 61.7676 56.4194L61.7676 51.1459C58.5938 51.4389 54.9805 51.683 51.9531 51.7319L51.9531 57.6401C51.9531 59.3979 50.5371 60.8627 48.7793 60.8627C47.0215 60.8627 45.5566 59.3979 45.5566 57.6401L45.5566 51.683C42.334 51.6342 38.9648 51.3901 35.791 51.0483L35.791 56.4194C35.791 58.1772 34.3262 59.5932 32.5684 59.5932C30.8105 59.5932 29.3945 58.1772 29.3945 56.4194L29.3945 50.1205C26.3672 49.6323 23.5352 48.9975 20.8008 48.2162L20.8008 53.0991C20.8008 54.8569 19.3848 56.2729 17.627 56.2729C15.8691 56.2729 14.4043 54.8569 14.4043 53.0991L14.4043 46.019C8.25195 43.5776 3.36914 40.3549 0 36.4487L0 42.0151C0 62.4252 18.6035 71.019 49.3652 71.019Z" fill="#000000" fill-opacity="0.85"/>
  <path d="M88.4766 93.1381C88.4766 90.892 86.5723 88.6459 83.5938 89.769C74.4141 93.1381 64.5996 94.8471 53.8086 94.8471C43.0664 94.8471 33.2031 93.1381 24.0234 89.769L21.5332 96.7026C31.4941 100.365 42.2363 102.22 53.8086 102.22C65.4297 102.22 76.123 100.316 86.084 96.7026C87.793 96.1166 88.4766 94.603 88.4766 93.1381ZM25.7812 106.029L33.1543 84.935C34.2773 81.7612 31.1523 79.4174 28.5156 80.3451L11.5234 86.3022C9.22852 87.0834 8.39844 89.3783 9.66797 91.478L19.3359 106.712C20.8496 109.105 24.707 109.007 25.7812 106.029Z" fill="#000000" fill-opacity="0.85"/>
 </g>
</svg>
