<?xml version="1.0" encoding="UTF-8"?>
<!--Generator: Apple Native CoreSVG 232.5-->
<!DOCTYPE svg
PUBLIC "-//W3C//DTD SVG 1.1//EN"
       "http://www.w3.org/Graphics/SVG/1.1/DTD/svg11.dtd">
<svg version="1.1" xmlns="http://www.w3.org/2000/svg" xmlns:xlink="http://www.w3.org/1999/xlink" width="127.051" height="98.7793">
 <g>
  <rect height="98.7793" opacity="0" width="127.051" x="0" y="0"/>
  <path d="M6.64062 49.3652C6.64062 18.6035 15.2344 0 35.6445 0L55.127 1.69291e-08C65.846 0 73.8604 11.1495 77.1757 29.2822L70.2365 35.4427C68.3005 18.4598 62.6956 7.86133 55.127 7.86133C45.6543 7.86133 39.209 24.4629 39.209 49.3652C39.209 74.2188 45.6543 90.8691 55.127 90.8691C62.7001 90.8691 68.307 80.227 70.2402 63.2397L77.1803 69.3985C73.8688 87.5417 65.8516 98.7305 55.127 98.7305L35.6445 98.7305C15.2344 98.7305 6.64062 80.0781 6.64062 49.3652ZM41.2995 7.86133L35.6445 7.86133C20.1172 7.86133 14.502 23.5352 14.502 49.3652C14.502 75.1953 20.1172 90.8691 35.6445 90.8691L41.3081 90.8691C39.6994 88.7121 38.2602 86.1395 37.0297 83.1543L29.834 83.1543C28.0762 83.1543 26.6602 81.6895 26.6602 79.9316C26.6602 78.1738 28.0762 76.7578 29.834 76.7578L34.7726 76.7578C33.9824 74.1268 33.3335 71.2547 32.8365 68.1641L26.5625 68.1641C24.8047 68.1641 23.3398 66.748 23.3398 64.9902C23.3398 63.2324 24.8047 61.7676 26.5625 61.7676L31.9788 61.7676C31.6359 58.6778 31.4392 55.4005 31.4003 51.9531L25.293 51.9531C23.5352 51.9531 22.1191 50.5371 22.1191 48.7793C22.1191 47.0215 23.5352 45.5566 25.293 45.5566L31.425 45.5566C31.4997 42.1231 31.7283 38.86 32.1044 35.791L26.5625 35.791C24.8047 35.791 23.3398 34.3262 23.3398 32.5684C23.3398 30.8105 24.8047 29.3945 26.5625 29.3945L33.0191 29.3945C33.5741 26.3183 34.2688 23.4484 35.0902 20.8008L29.834 20.8008C28.0762 20.8008 26.6602 19.3848 26.6602 17.627C26.6602 15.8691 28.0762 14.4043 29.834 14.4043L37.5286 14.4043C38.6397 11.9087 39.9056 9.72819 41.2995 7.86133Z" fill="#000000" fill-opacity="0.85"/>
  <path d="M68.0176 52.3438L82.7637 65.4297C85.5957 68.0176 89.7949 66.5527 89.7949 62.4023L89.7949 53.5645L116.211 53.5645C118.555 53.5645 120.361 51.709 120.361 49.4141C120.361 47.0215 118.555 45.2148 116.211 45.2148L89.7949 45.2148L89.7949 36.2793C89.7949 32.2754 85.7422 30.5664 82.7637 33.2031L68.0176 46.3379C65.9668 48.0957 65.9668 50.5371 68.0176 52.3438Z" fill="#000000" fill-opacity="0.85"/>
 </g>
</svg>
