<?xml version="1.0" encoding="UTF-8"?>
<!--Generator: Apple Native CoreSVG 232.5-->
<!DOCTYPE svg
PUBLIC "-//W3C//DTD SVG 1.1//EN"
       "http://www.w3.org/Graphics/SVG/1.1/DTD/svg11.dtd">
<svg version="1.1" xmlns="http://www.w3.org/2000/svg" xmlns:xlink="http://www.w3.org/1999/xlink" width="98.7305" height="108.35">
 <g>
  <rect height="108.35" opacity="0" width="98.7305" x="0" y="0"/>
  <path d="M49.3652 45.0195C78.2227 45.0195 97.4609 35.8887 97.4609 22.5098C97.4609 9.13086 78.2227 0 49.3652 0C20.5078 0 1.26953 9.13086 1.26953 22.5098C1.26953 35.8887 20.5078 45.0195 49.3652 45.0195ZM49.3652 70.9961C80.0781 70.9961 98.7305 62.4023 98.7305 41.9922L98.7305 36.4258C95.1172 40.5762 89.8438 43.9453 83.1543 46.4355L83.1543 53.0762C83.1543 54.834 81.6895 56.25 79.9316 56.25C78.1738 56.25 76.7578 54.834 76.7578 53.0762L76.7578 48.5352C73.9258 49.2676 70.8984 49.8535 68.1641 50.293L68.1641 56.3965C68.1641 58.1543 66.748 59.5703 64.9902 59.5703C63.2324 59.5703 61.7676 58.1543 61.7676 56.3965L61.7676 51.123C58.5938 51.416 54.9805 51.6602 51.9531 51.709L51.9531 57.6172C51.9531 59.375 50.5371 60.8398 48.7793 60.8398C47.0215 60.8398 45.5566 59.375 45.5566 57.6172L45.5566 51.6602C42.334 51.6113 38.9648 51.3672 35.791 51.0254L35.791 56.3965C35.791 58.1543 34.3262 59.5703 32.5684 59.5703C30.8105 59.5703 29.3945 58.1543 29.3945 56.3965L29.3945 50.0977C26.3672 49.6094 23.5352 48.9746 20.8008 48.1934L20.8008 53.0762C20.8008 54.834 19.3848 56.25 17.627 56.25C15.8691 56.25 14.4043 54.834 14.4043 53.0762L14.4043 45.9961C8.25195 43.5547 3.36914 40.332 0 36.4258L0 41.9922C0 62.4023 18.6035 70.9961 49.3652 70.9961Z" fill="#000000" fill-opacity="0.85"/>
  <path d="M9.17969 93.1152C9.17969 94.5801 9.86328 96.0938 11.5723 96.6797C21.5332 100.293 32.2266 102.197 43.8477 102.197C55.4199 102.197 66.1621 100.342 76.123 96.6797L73.6328 89.7461C64.4531 93.1152 54.5898 94.8242 43.8477 94.8242C33.0566 94.8242 23.2422 93.1152 14.0625 89.7461C11.084 88.623 9.17969 90.8691 9.17969 93.1152ZM71.875 105.859C72.9492 108.838 76.7578 108.936 78.2715 106.592L87.9395 91.3086C89.2578 89.209 88.4277 86.9141 86.1328 86.1328L69.1406 80.1758C66.5039 79.2969 63.3789 81.5918 64.502 84.8145Z" fill="#000000" fill-opacity="0.85"/>
 </g>
</svg>
