<?xml version="1.0" encoding="UTF-8"?>
<!--Generator: Apple Native CoreSVG 232.5-->
<!DOCTYPE svg
PUBLIC "-//W3C//DTD SVG 1.1//EN"
       "http://www.w3.org/Graphics/SVG/1.1/DTD/svg11.dtd">
<svg version="1.1" xmlns="http://www.w3.org/2000/svg" xmlns:xlink="http://www.w3.org/1999/xlink" width="97.168" height="32.0801">
 <g>
  <rect height="32.0801" opacity="0" width="97.168" x="0" y="0"/>
  <path d="M0 4.19922C0 6.49414 1.85547 8.34961 4.15039 8.34961L92.9688 8.34961C95.2637 8.34961 97.168 6.49414 97.168 4.19922C97.168 1.9043 95.2637 0 92.9688 0L4.15039 0C1.85547 0 0 1.9043 0 4.19922ZM0 27.832C0 30.127 1.85547 32.0312 4.15039 32.0312L21.3867 32.0312C23.6816 32.0312 25.5371 30.127 25.5371 27.832C25.5371 25.5371 23.6816 23.6816 21.3867 23.6816L4.15039 23.6816C1.85547 23.6816 0 25.5371 0 27.832ZM35.791 27.832C35.791 30.127 37.6953 32.0312 39.9902 32.0312L57.1289 32.0312C59.4238 32.0312 61.2793 30.127 61.2793 27.832C61.2793 25.5371 59.4238 23.6816 57.1289 23.6816L39.9902 23.6816C37.6953 23.6816 35.791 25.5371 35.791 27.832ZM71.5332 27.832C71.5332 30.127 73.3887 32.0312 75.6836 32.0312L92.5781 32.0312C94.873 32.0312 96.7773 30.127 96.7773 27.832C96.7773 25.5371 94.873 23.6816 92.5781 23.6816L75.6836 23.6816C73.3887 23.6816 71.5332 25.5371 71.5332 27.832Z" fill="#000000" fill-opacity="0.85"/>
 </g>
</svg>
