<?xml version="1.0" encoding="UTF-8"?>
<!--Generator: Apple Native CoreSVG 232.5-->
<!DOCTYPE svg
PUBLIC "-//W3C//DTD SVG 1.1//EN"
       "http://www.w3.org/Graphics/SVG/1.1/DTD/svg11.dtd">
<svg version="1.1" xmlns="http://www.w3.org/2000/svg" xmlns:xlink="http://www.w3.org/1999/xlink" width="157.178" height="101.807">
 <g>
  <rect height="101.807" opacity="0" width="157.178" x="0" y="0"/>
  <path d="M116.406 14.6484L116.406 26.6602L108.545 26.6602L108.545 14.7949C108.545 12.5977 107.178 11.2793 105.029 11.2793L11.377 11.2793C9.22852 11.2793 7.86133 12.5977 7.86133 14.7949L7.86133 73.0957C7.86133 75.2441 9.22852 76.6113 11.377 76.6113L66.4094 76.6113C66.4314 83.0324 68.8453 86.8405 73.6328 88.3056L73.6328 93.8965L73.9258 93.8965C76.0742 93.8965 77.832 95.6543 77.832 97.8516C77.832 100.049 76.0742 101.807 73.9258 101.807L42.4805 101.807C40.332 101.807 38.5254 100.049 38.5254 97.8516C38.5254 95.6543 40.332 93.8965 42.4805 93.8965L42.7734 93.8965L42.7734 84.4727L11.2305 84.4727C4.24805 84.4727 0 80.2246 0 73.1934L0 14.6484C0 7.61719 4.24805 3.41797 11.2305 3.41797L105.127 3.41797C112.158 3.41797 116.406 7.61719 116.406 14.6484Z" fill="#000000" fill-opacity="0.85"/>
  <path d="M66.4062 76.5137C66.4062 85.0586 70.6055 89.0137 78.9551 89.0137L144.678 89.0137C153.027 89.0137 157.178 85.0586 157.178 76.5137L157.178 39.209C157.178 30.6641 153.027 26.6602 144.678 26.6602L78.9551 26.6602C70.6055 26.6602 66.4062 30.6641 66.4062 39.209ZM74.2676 76.3672L74.2676 39.3555C74.2676 35.8887 75.7324 34.5215 79.1016 34.5215L144.531 34.5215C147.852 34.5215 149.316 35.8887 149.316 39.3555L149.316 76.3672C149.316 79.7852 147.852 81.1523 144.531 81.1523L79.1016 81.1523C75.7324 81.1523 74.2676 79.7852 74.2676 76.3672ZM98.877 96.0938L124.756 96.0938L124.756 84.375L98.877 84.375ZM98.584 101.807L125 101.807C127.197 101.807 128.955 100.049 128.955 97.8516C128.955 95.6543 127.197 93.8965 125 93.8965L98.584 93.8965C96.4355 93.8965 94.6289 95.6543 94.6289 97.8516C94.6289 100.049 96.4355 101.807 98.584 101.807Z" fill="#000000" fill-opacity="0.85"/>
 </g>
</svg>
