<?xml version="1.0" encoding="UTF-8"?>
<!--Generator: Apple Native CoreSVG 232.5-->
<!DOCTYPE svg
PUBLIC "-//W3C//DTD SVG 1.1//EN"
       "http://www.w3.org/Graphics/SVG/1.1/DTD/svg11.dtd">
<svg version="1.1" xmlns="http://www.w3.org/2000/svg" xmlns:xlink="http://www.w3.org/1999/xlink" width="118.75" height="102.686">
 <g>
  <rect height="102.686" opacity="0" width="118.75" x="0" y="0"/>
  <path d="M12.6953 86.9629L3.41797 86.9629C1.46484 86.9629 0 85.2539 0 83.3496C0 81.4453 1.46484 79.7852 3.41797 79.7852L12.6953 79.7852ZM118.75 83.3496C118.75 85.2539 117.236 86.9629 115.332 86.9629L106.055 86.9629L106.055 79.7852L115.332 79.7852C117.236 79.7852 118.75 81.4453 118.75 83.3496ZM29.9805 22.8516L3.41797 22.8516C1.46484 22.8516 0 21.1914 0 19.2871C0 17.3828 1.46484 15.6738 3.41797 15.6738L29.9805 15.6738ZM116.895 19.2871C116.895 21.1914 115.381 22.8516 113.477 22.8516L88.7695 22.8516L88.7695 15.6738L113.477 15.6738C115.381 15.6738 116.895 17.3828 116.895 19.2871Z" fill="#000000" fill-opacity="0.85"/>
  <path d="M41.1621 38.5254L77.5879 38.5254C84.8633 38.5254 88.7695 34.668 88.7695 27.5391L88.7695 10.9863C88.7695 3.85742 84.8633 0 77.5879 0L41.1621 0C33.8867 0 29.9805 3.85742 29.9805 10.9863L29.9805 27.5391C29.9805 34.668 33.8867 38.5254 41.1621 38.5254ZM41.3086 31.1523C38.7695 31.1523 37.3535 29.7363 37.3535 27.1484L37.3535 11.4258C37.3535 8.78906 38.7695 7.37305 41.3086 7.37305L77.4414 7.37305C79.9805 7.37305 81.3965 8.78906 81.3965 11.4258L81.3965 27.1484C81.3965 29.7363 79.9805 31.1523 77.4414 31.1523ZM23.877 102.637L94.873 102.637C102.148 102.637 106.055 98.7305 106.055 91.6504L106.055 75.0977C106.055 67.9688 102.148 64.0625 94.873 64.0625L23.877 64.0625C16.6016 64.0625 12.6953 67.9688 12.6953 75.0977L12.6953 91.6504C12.6953 98.7305 16.6016 102.637 23.877 102.637ZM24.0234 95.2637C21.4844 95.2637 20.0684 93.7988 20.0684 91.2109L20.0684 75.4883C20.0684 72.9004 21.4844 71.4355 24.0234 71.4355L94.7266 71.4355C97.2656 71.4355 98.6816 72.9004 98.6816 75.4883L98.6816 91.2109C98.6816 93.7988 97.2656 95.2637 94.7266 95.2637Z" fill="#000000" fill-opacity="0.85"/>
 </g>
</svg>
