<?xml version="1.0" encoding="UTF-8"?>
<!--Generator: Apple Native CoreSVG 232.5-->
<!DOCTYPE svg
PUBLIC "-//W3C//DTD SVG 1.1//EN"
       "http://www.w3.org/Graphics/SVG/1.1/DTD/svg11.dtd">
<svg version="1.1" xmlns="http://www.w3.org/2000/svg" xmlns:xlink="http://www.w3.org/1999/xlink" width="125.098" height="113.232">
 <g>
  <rect height="113.232" opacity="0" width="125.098" x="0" y="0"/>
  <path d="M3.56445 113.184C5.51758 113.184 7.17773 111.719 7.17773 109.814L7.17773 3.36914C7.17773 1.46484 5.51758 0 3.56445 0C1.66016 0 0 1.46484 0 3.36914L0 109.814C0 111.719 1.66016 113.184 3.56445 113.184ZM74.5117 113.184C76.416 113.184 78.0762 111.719 78.0762 109.814L78.0762 3.36914C78.0762 1.46484 76.416 0 74.5117 0C72.6074 0 70.8984 1.46484 70.8984 3.36914L70.8984 109.814C70.8984 111.719 72.6074 113.184 74.5117 113.184Z" fill="#000000" fill-opacity="0.85"/>
  <path d="M26.1719 103.516L43.1641 103.516C50.293 103.516 54.1504 99.5605 54.1504 92.2852L54.1504 20.8984C54.1504 13.623 50.293 9.7168 43.1641 9.7168L26.1719 9.7168C19.0918 9.7168 15.1855 13.623 15.1855 20.8984L15.1855 92.2852C15.1855 99.5605 19.0918 103.516 26.1719 103.516ZM26.6113 96.1426C23.9746 96.1426 22.5586 94.6777 22.5586 92.1875L22.5586 20.9961C22.5586 18.5059 23.9746 17.0898 26.6113 17.0898L42.7734 17.0898C45.3613 17.0898 46.7773 18.5059 46.7773 20.9961L46.7773 92.1875C46.7773 94.6777 45.3613 96.1426 42.7734 96.1426ZM97.1191 86.1816L114.111 86.1816C121.24 86.1816 125.098 82.2754 125.098 75L125.098 38.1836C125.098 30.9082 121.24 27.002 114.111 27.002L97.1191 27.002C89.9902 27.002 86.1328 30.9082 86.1328 38.1836L86.1328 75C86.1328 82.2754 89.9902 86.1816 97.1191 86.1816ZM97.5098 78.8086C94.9219 78.8086 93.5059 77.3926 93.5059 74.9023L93.5059 38.3301C93.5059 35.791 94.9219 34.375 97.5098 34.375L113.672 34.375C116.309 34.375 117.725 35.791 117.725 38.3301L117.725 74.9023C117.725 77.3926 116.309 78.8086 113.672 78.8086Z" fill="#000000" fill-opacity="0.85"/>
 </g>
</svg>
