<?xml version="1.0" encoding="UTF-8"?>
<!--Generator: Apple Native CoreSVG 232.5-->
<!DOCTYPE svg
PUBLIC "-//W3C//DTD SVG 1.1//EN"
       "http://www.w3.org/Graphics/SVG/1.1/DTD/svg11.dtd">
<svg version="1.1" xmlns="http://www.w3.org/2000/svg" xmlns:xlink="http://www.w3.org/1999/xlink" width="99.6094" height="99.6582">
 <g>
  <rect height="99.6582" opacity="0" width="99.6094" x="0" y="0"/>
  <path d="M49.8047 99.6094C77.0508 99.6094 99.6094 77.002 99.6094 49.8047C99.6094 22.5586 77.002 0 49.7559 0C22.5586 0 0 22.5586 0 49.8047C0 77.002 22.6074 99.6094 49.8047 99.6094ZM49.8047 91.3086C26.7578 91.3086 8.34961 72.8516 8.34961 49.8047C8.34961 26.7578 26.709 8.30078 49.7559 8.30078C72.8027 8.30078 91.3086 26.7578 91.3086 49.8047C91.3086 72.8516 72.8516 91.3086 49.8047 91.3086Z" fill="#000000" fill-opacity="0.85"/>
  <path d="M49.6582 37.6465C53.1738 37.6465 55.6641 35.3027 55.6641 32.2754C55.6641 28.8086 53.2227 26.416 49.6582 26.416C46.3867 26.416 43.8477 28.8574 43.8477 32.2754C43.8477 35.3027 46.3867 37.6465 49.6582 37.6465ZM30.7617 53.9551L68.7988 53.9551C71.5332 53.9551 73.3887 52.4902 73.3887 49.9023C73.3887 47.2656 71.6309 45.8008 68.7988 45.8008L30.7617 45.8008C27.8809 45.8008 26.123 47.2656 26.123 49.9023C26.123 52.4902 27.9785 53.9551 30.7617 53.9551ZM49.6582 73.291C53.1738 73.291 55.6641 70.8984 55.6641 67.8711C55.6641 64.4531 53.2227 62.0605 49.6582 62.0605C46.3867 62.0605 43.8477 64.4531 43.8477 67.8711C43.8477 70.8984 46.3867 73.291 49.6582 73.291Z" fill="#000000" fill-opacity="0.85"/>
 </g>
</svg>
