<?xml version="1.0" encoding="UTF-8"?>
<!--Generator: Apple Native CoreSVG 232.5-->
<!DOCTYPE svg
PUBLIC "-//W3C//DTD SVG 1.1//EN"
       "http://www.w3.org/Graphics/SVG/1.1/DTD/svg11.dtd">
<svg version="1.1" xmlns="http://www.w3.org/2000/svg" xmlns:xlink="http://www.w3.org/1999/xlink" width="80.5664" height="72.2168">
 <g>
  <rect height="72.2168" opacity="0" width="80.5664" x="0" y="0"/>
  <path d="M40.2832 14.7949C44.2871 14.7949 47.5098 11.5234 47.5098 7.61719C47.5098 3.61328 44.2871 0.390625 40.2832 0.390625C36.3281 0.390625 33.1055 3.61328 33.1055 7.61719C33.1055 11.5234 36.3281 14.7949 40.2832 14.7949ZM40.2832 72.2168C44.2871 72.2168 47.5098 68.9941 47.5098 64.9902C47.5098 61.0352 44.2871 57.8125 40.2832 57.8125C36.3281 57.8125 33.1055 61.0352 33.1055 64.9902C33.1055 68.9941 36.3281 72.2168 40.2832 72.2168ZM4.3457 40.5273L76.2207 40.5273C78.5645 40.5273 80.5664 38.5254 80.5664 36.1328C80.5664 33.7402 78.5645 31.7871 76.2207 31.7871L4.3457 31.7871C2.00195 31.7871 0 33.7402 0 36.1328C0 38.5254 2.00195 40.5273 4.3457 40.5273Z" fill="#000000" fill-opacity="0.85"/>
 </g>
</svg>
