<?xml version="1.0" encoding="UTF-8"?>
<!--Generator: Apple Native CoreSVG 232.5-->
<!DOCTYPE svg
PUBLIC "-//W3C//DTD SVG 1.1//EN"
       "http://www.w3.org/Graphics/SVG/1.1/DTD/svg11.dtd">
<svg version="1.1" xmlns="http://www.w3.org/2000/svg" xmlns:xlink="http://www.w3.org/1999/xlink" width="89.8926" height="89.9902">
 <g>
  <rect height="89.9902" opacity="0" width="89.8926" x="0" y="0"/>
  <path d="M89.8926 15.2344L89.8926 74.8535C89.8926 84.9121 84.8145 89.9902 74.5605 89.9902L15.332 89.9902C5.12695 89.9902 0 84.9609 0 74.8535L0 15.2344C0 5.12695 5.12695 0.0976562 15.332 0.0976562L74.5605 0.0976562C84.8145 0.0976562 89.8926 5.17578 89.8926 15.2344ZM38.8672 63.623C38.8672 66.748 41.5039 69.2383 44.873 69.2383C48.5352 69.2383 51.0742 66.748 51.0742 63.623C51.0742 60.0586 48.584 57.5684 44.873 57.5684C41.5039 57.5684 38.8672 60.0586 38.8672 63.623ZM25.3906 40.8203C22.4609 40.8203 20.6055 42.334 20.6055 45.0684C20.6055 47.7539 22.5586 49.2676 25.3906 49.2676L64.5996 49.2676C67.4316 49.2676 69.3359 47.7539 69.3359 45.0684C69.3359 42.334 67.5293 40.8203 64.5996 40.8203ZM38.8672 26.9043C38.8672 30.0293 41.5039 32.4707 44.873 32.4707C48.5352 32.4707 51.0742 30.0293 51.0742 26.9043C51.0742 23.291 48.584 20.8008 44.873 20.8008C41.5039 20.8008 38.8672 23.3398 38.8672 26.9043Z" fill="#000000" fill-opacity="0.85"/>
 </g>
</svg>
