<?xml version="1.0" encoding="UTF-8"?>
<!--Generator: Apple Native CoreSVG 232.5-->
<!DOCTYPE svg
PUBLIC "-//W3C//DTD SVG 1.1//EN"
       "http://www.w3.org/Graphics/SVG/1.1/DTD/svg11.dtd">
<svg version="1.1" xmlns="http://www.w3.org/2000/svg" xmlns:xlink="http://www.w3.org/1999/xlink" width="82.1289" height="104.736">
 <g>
  <rect height="104.736" opacity="0" width="82.1289" x="0" y="0"/>
  <path d="M28.7109 49.4141C22.5586 49.4141 17.5781 44.7266 17.5781 36.6699C17.5781 32.4219 18.9453 28.4668 21.7773 25.3906C24.6094 22.3633 28.6621 20.3613 31.9336 20.3613C33.3496 20.3613 34.1309 21.1914 34.1309 22.2656C34.1309 23.3398 33.5449 23.9258 31.6895 24.3652C29.4922 24.8047 27.5879 25.7324 26.0254 27.0996C24.2676 28.5156 23.0957 30.2734 22.7051 32.1289L23.7305 32.1289C25.293 30.1758 27.4902 29.3457 30.1758 29.3457C35.498 29.3457 39.1113 33.252 39.1113 39.1602C39.1113 45.2148 34.8633 49.4141 28.7109 49.4141ZM54.248 49.3652C47.998 49.3652 43.0176 44.6777 43.0176 36.6211C43.0176 32.373 44.4336 28.418 47.3145 25.3418C49.9512 22.4609 54.1992 20.3125 57.4707 20.3125C58.8867 20.3125 59.668 21.1426 59.668 22.2168C59.668 23.291 59.0332 23.877 57.1777 24.3164C54.9805 24.8047 52.9297 25.6836 51.3672 27.1484C49.7559 28.5645 48.584 30.2734 48.1934 32.0801L49.2188 32.0801C50.7812 30.127 52.9785 29.2969 55.6641 29.2969C60.9863 29.2969 64.6484 33.2031 64.6484 39.1113C64.6484 45.166 60.3516 49.3652 54.248 49.3652ZM21.9238 68.457C20.0684 68.457 18.7012 67.041 18.7012 65.2832C18.7012 63.5742 20.0684 62.2559 21.9238 62.2559L60.3516 62.2559C62.1582 62.2559 63.4766 63.5742 63.4766 65.2832C63.4766 67.041 62.1582 68.457 60.3516 68.457ZM21.9238 83.5938C20.0684 83.5938 18.7012 82.2754 18.7012 80.5664C18.7012 78.7598 20.0684 77.3438 21.9238 77.3438L40.0391 77.3438C41.8945 77.3438 43.2129 78.7598 43.2129 80.5664C43.2129 82.2754 41.8945 83.5938 40.0391 83.5938ZM0 89.4043C0 99.6094 5.0293 104.688 15.1367 104.688L66.9922 104.688C77.0996 104.688 82.1289 99.6094 82.1289 89.4043L82.1289 15.332C82.1289 5.17578 77.0996 0 66.9922 0L15.1367 0C5.0293 0 0 5.17578 0 15.332Z" fill="#000000" fill-opacity="0.85"/>
 </g>
</svg>
