<?xml version="1.0" encoding="UTF-8"?>
<!--Generator: Apple Native CoreSVG 232.5-->
<!DOCTYPE svg
PUBLIC "-//W3C//DTD SVG 1.1//EN"
       "http://www.w3.org/Graphics/SVG/1.1/DTD/svg11.dtd">
<svg version="1.1" xmlns="http://www.w3.org/2000/svg" xmlns:xlink="http://www.w3.org/1999/xlink" width="82.1289" height="104.736">
 <g>
  <rect height="104.736" opacity="0" width="82.1289" x="0" y="0"/>
  <path d="M21.4844 39.4043C20.0195 39.4043 18.8477 38.1836 18.8477 36.7676C18.8477 35.3516 20.0195 34.1797 21.4844 34.1797L28.2715 34.1797L32.373 17.2363C33.0566 14.4531 36.7188 14.502 37.3535 17.2852L41.8945 39.502L46.6309 24.1699C47.5098 21.4844 51.0254 21.4355 51.709 24.0723L54.2969 34.1797L60.6445 34.1797C62.1582 34.1797 63.2812 35.3027 63.2812 36.7676C63.2812 38.1836 62.1094 39.4043 60.6445 39.4043L52.7344 39.4043C51.2207 39.4043 50.1953 38.5254 49.9023 37.0605L49.0234 33.5449L44.1895 50.1953C43.3105 52.9297 39.6484 52.9297 39.0625 50.1465L34.7656 29.3945L32.8125 37.207C32.4707 38.5254 31.4941 39.4043 29.9805 39.4043ZM21.875 68.5547C20.0684 68.5547 18.7012 67.1387 18.7012 65.3809C18.7012 63.6719 20.0684 62.3535 21.875 62.3535L60.3516 62.3535C62.1582 62.3535 63.4766 63.6719 63.4766 65.3809C63.4766 67.1387 62.1582 68.5547 60.3516 68.5547ZM21.875 83.6426C20.0684 83.6426 18.7012 82.3242 18.7012 80.6152C18.7012 78.8574 20.0684 77.4414 21.875 77.4414L40.0391 77.4414C41.8945 77.4414 43.1641 78.8574 43.1641 80.6152C43.1641 82.3242 41.8945 83.6426 40.0391 83.6426ZM0 89.4043C0 99.6094 5.0293 104.688 15.1367 104.688L66.9922 104.688C77.0996 104.688 82.1289 99.6094 82.1289 89.4043L82.1289 15.332C82.1289 5.17578 77.0996 0 66.9922 0L15.1367 0C5.0293 0 0 5.17578 0 15.332Z" fill="#000000" fill-opacity="0.85"/>
 </g>
</svg>
