<?xml version="1.0" encoding="UTF-8"?>
<!--Generator: Apple Native CoreSVG 232.5-->
<!DOCTYPE svg
PUBLIC "-//W3C//DTD SVG 1.1//EN"
       "http://www.w3.org/Graphics/SVG/1.1/DTD/svg11.dtd">
<svg version="1.1" xmlns="http://www.w3.org/2000/svg" xmlns:xlink="http://www.w3.org/1999/xlink" width="113.135" height="135.986">
 <g>
  <rect height="135.986" opacity="0" width="113.135" x="0" y="0"/>
  <path d="M106.494 21.8262L106.494 89.6484C106.494 99.8047 101.465 104.98 91.3574 104.98L89.502 104.98L89.502 75.4395C89.502 68.8477 88.5742 64.0137 82.9102 58.2031L56.8359 31.6406C50.5859 25.2441 46.3379 24.2188 39.502 24.2188L30.3223 24.2188L30.3223 21.8262C30.3223 11.6211 35.3516 6.49414 45.459 6.49414L91.3574 6.49414C101.465 6.49414 106.494 11.6211 106.494 21.8262ZM56.4941 16.4551C54.3457 16.4551 53.3691 17.8223 53.3691 19.3359L53.3691 20.3613C53.3691 21.8262 54.3457 23.2422 56.4941 23.2422L80.3223 23.2422C82.4219 23.2422 83.4473 21.8262 83.4473 20.3613L83.4473 19.3359C83.4473 17.8223 82.4219 16.4551 80.3223 16.4551Z" fill="#000000" fill-opacity="0.85"/>
  <path d="M6.64062 114.014C6.64062 124.219 11.7188 129.346 21.7773 129.346L67.6758 129.346C77.7832 129.346 82.8125 124.17 82.8125 114.014L82.8125 75.4395L48.7305 75.4395C42.4316 75.4395 39.502 72.4609 39.502 66.2109L39.502 30.8594L21.7773 30.8594C11.7188 30.8594 6.64062 35.9863 6.64062 46.1914ZM48.6816 68.75L81.9824 68.75C81.4453 66.8457 80.3223 65.0879 78.1738 62.8418L52.0996 36.2793C49.9023 34.082 48.0469 32.6172 46.1914 32.0801L46.1914 66.2598C46.1914 67.9199 47.0215 68.75 48.6816 68.75Z" fill="#000000" fill-opacity="0.85"/>
 </g>
</svg>
