<?xml version="1.0" encoding="UTF-8"?>
<!--Generator: Apple Native CoreSVG 232.5-->
<!DOCTYPE svg
PUBLIC "-//W3C//DTD SVG 1.1//EN"
       "http://www.w3.org/Graphics/SVG/1.1/DTD/svg11.dtd">
<svg version="1.1" xmlns="http://www.w3.org/2000/svg" xmlns:xlink="http://www.w3.org/1999/xlink" width="82.1289" height="104.736">
 <g>
  <rect height="104.736" opacity="0" width="82.1289" x="0" y="0"/>
  <path d="M15.1367 104.688L66.9922 104.688C77.0996 104.688 82.1289 99.5605 82.1289 89.4043L82.1289 45.0684L46.7773 45.0684C40.5273 45.0684 37.5488 42.0898 37.5488 35.8398L37.5488 0L15.1367 0C5.07812 0 0 5.17578 0 15.332L0 89.4043C0 99.6094 5.0293 104.688 15.1367 104.688ZM46.9238 38.3789L81.543 38.3789C81.25 36.377 79.834 34.4238 77.4902 32.0312L50.5859 4.63867C48.291 2.29492 46.2891 0.878906 44.2383 0.537109L44.2383 35.7422C44.2383 37.5 45.1172 38.3789 46.9238 38.3789Z" fill="#000000" fill-opacity="0.85"/>
 </g>
</svg>
