<?xml version="1.0" encoding="UTF-8"?>
<!--Generator: Apple Native CoreSVG 232.5-->
<!DOCTYPE svg
PUBLIC "-//W3C//DTD SVG 1.1//EN"
       "http://www.w3.org/Graphics/SVG/1.1/DTD/svg11.dtd">
<svg version="1.1" xmlns="http://www.w3.org/2000/svg" xmlns:xlink="http://www.w3.org/1999/xlink" width="95.6055" height="95.6543">
 <g>
  <rect height="95.6543" opacity="0" width="95.6055" x="0" y="0"/>
  <path d="M3.90625 31.1523C6.49414 31.1523 7.86133 29.6875 7.86133 27.1484L7.86133 15.625C7.86133 10.5469 10.5469 7.95898 15.4297 7.95898L27.2461 7.95898C29.834 7.95898 31.25 6.54297 31.25 4.00391C31.25 1.46484 29.834 0.0976562 27.2461 0.0976562L15.332 0.0976562C5.12695 0.0976562 0 5.12695 0 15.1855L0 27.1484C0 29.6875 1.41602 31.1523 3.90625 31.1523ZM91.6504 31.1523C94.2383 31.1523 95.6055 29.6875 95.6055 27.1484L95.6055 15.1855C95.6055 5.12695 90.4785 0.0976562 80.2734 0.0976562L68.3105 0.0976562C65.7715 0.0976562 64.3555 1.46484 64.3555 4.00391C64.3555 6.54297 65.7715 7.95898 68.3105 7.95898L80.127 7.95898C84.9609 7.95898 87.7441 10.5469 87.7441 15.625L87.7441 27.1484C87.7441 29.6875 89.1602 31.1523 91.6504 31.1523ZM15.332 95.6543L27.2461 95.6543C29.834 95.6543 31.25 94.2383 31.25 91.748C31.25 89.209 29.834 87.793 27.2461 87.793L15.4297 87.793C10.5469 87.793 7.86133 85.2051 7.86133 80.127L7.86133 68.6035C7.86133 66.0156 6.44531 64.5996 3.90625 64.5996C1.36719 64.5996 0 66.0156 0 68.6035L0 80.5176C0 90.625 5.12695 95.6543 15.332 95.6543ZM68.3105 95.6543L80.2734 95.6543C90.4785 95.6543 95.6055 90.5762 95.6055 80.5176L95.6055 68.6035C95.6055 66.0156 94.1895 64.5996 91.6504 64.5996C89.1113 64.5996 87.7441 66.0156 87.7441 68.6035L87.7441 80.127C87.7441 85.2051 84.9609 87.793 80.127 87.793L68.3105 87.793C65.7715 87.793 64.3555 89.209 64.3555 91.748C64.3555 94.2383 65.7715 95.6543 68.3105 95.6543Z" fill="#000000" fill-opacity="0.85"/>
  <path d="M34.1309 78.0273L63.623 78.0273C69.7754 78.0273 72.8027 74.8535 72.8027 68.7012L72.8027 46.0449L50 46.0449C46.3867 46.0449 44.3359 43.9453 44.3359 40.332L44.3359 17.5781L34.1309 17.5781C28.0762 17.5781 24.9512 20.752 24.9512 26.8555L24.9512 68.7012C24.9512 74.9023 28.0762 78.0273 34.1309 78.0273ZM51.3672 40.625L72.5098 40.625C72.2656 39.4531 71.4355 38.1836 70.0195 36.7676L53.5645 20.3125C52.1484 18.8965 50.9766 18.0664 49.7559 17.8711L49.7559 39.0625C49.7559 40.0879 50.293 40.625 51.3672 40.625Z" fill="#000000" fill-opacity="0.85"/>
 </g>
</svg>
