<?xml version="1.0" encoding="UTF-8"?>
<!--Generator: Apple Native CoreSVG 232.5-->
<!DOCTYPE svg
PUBLIC "-//W3C//DTD SVG 1.1//EN"
       "http://www.w3.org/Graphics/SVG/1.1/DTD/svg11.dtd">
<svg version="1.1" xmlns="http://www.w3.org/2000/svg" xmlns:xlink="http://www.w3.org/1999/xlink" width="82.1289" height="104.736">
 <g>
  <rect height="104.736" opacity="0" width="82.1289" x="0" y="0"/>
  <path d="M22.5586 28.2715L59.6191 28.2715C61.3281 28.2715 62.5977 26.9531 62.5977 25.2441C62.5977 23.584 61.3281 22.2656 59.6191 22.2656L22.5586 22.2656C20.8008 22.2656 19.5312 23.584 19.5312 25.2441C19.5312 26.9531 20.8008 28.2715 22.5586 28.2715ZM22.5586 45.3125L59.6191 45.3125C61.3281 45.3125 62.5977 43.9941 62.5977 42.2852C62.5977 40.625 61.3281 39.3066 59.6191 39.3066L22.5586 39.3066C20.8008 39.3066 19.5312 40.625 19.5312 42.2852C19.5312 43.9941 20.8008 45.3125 22.5586 45.3125ZM22.5586 62.3535L40.0879 62.3535C41.8457 62.3535 43.1152 61.084 43.1152 59.4238C43.1152 57.666 41.8457 56.3477 40.0879 56.3477L22.5586 56.3477C20.8008 56.3477 19.5312 57.666 19.5312 59.4238C19.5312 61.084 20.8008 62.3535 22.5586 62.3535ZM0 89.4043C0 99.6094 5.0293 104.688 15.1367 104.688L66.9922 104.688C77.0996 104.688 82.1289 99.6094 82.1289 89.4043L82.1289 15.332C82.1289 5.17578 77.0996 0 66.9922 0L15.1367 0C5.0293 0 0 5.17578 0 15.332ZM7.86133 89.2578L7.86133 15.4785C7.86133 10.5957 10.4492 7.86133 15.5273 7.86133L66.6016 7.86133C71.6797 7.86133 74.2676 10.5957 74.2676 15.4785L74.2676 89.2578C74.2676 94.1406 71.6797 96.8262 66.6016 96.8262L15.5273 96.8262C10.4492 96.8262 7.86133 94.1406 7.86133 89.2578Z" fill="#000000" fill-opacity="0.85"/>
 </g>
</svg>
