<?xml version="1.0" encoding="UTF-8"?>
<!--Generator: Apple Native CoreSVG 232.5-->
<!DOCTYPE svg
PUBLIC "-//W3C//DTD SVG 1.1//EN"
       "http://www.w3.org/Graphics/SVG/1.1/DTD/svg11.dtd">
<svg version="1.1" xmlns="http://www.w3.org/2000/svg" xmlns:xlink="http://www.w3.org/1999/xlink" width="99.8535" height="122.998">
 <g>
  <rect height="122.998" opacity="0" width="99.8535" x="0" y="0"/>
  <path d="M99.8535 15.332L99.8535 83.1543C99.8535 93.3105 94.7754 98.4863 84.7168 98.4863L76.1719 98.4863L76.1719 69.3848C76.1719 63.1348 75.4395 60.4004 71.5332 56.3965L44.6289 29.0039C40.918 25.1953 37.8418 24.3652 32.373 24.3652L23.6816 24.3652L23.6816 15.332C23.6816 5.12695 28.7109 0 38.8184 0L84.7168 0C94.7754 0 99.8535 5.12695 99.8535 15.332ZM49.8535 9.96094C47.7051 9.96094 46.7285 11.3281 46.7285 12.8418L46.7285 13.8672C46.7285 15.332 47.7051 16.748 49.8535 16.748L73.6816 16.748C75.7812 16.748 76.8066 15.332 76.8066 13.8672L76.8066 12.8418C76.8066 11.3281 75.7812 9.96094 73.6816 9.96094Z" fill="#000000" fill-opacity="0.85"/>
  <path d="M0 107.52C0 117.725 5.0293 122.852 15.1367 122.852L61.0352 122.852C71.1426 122.852 76.1719 117.676 76.1719 107.52L76.1719 69.3848C76.1719 63.1348 75.4395 60.4004 71.5332 56.3965L44.6289 29.0039C40.918 25.1953 37.8418 24.3652 32.373 24.3652L15.1367 24.3652C5.07812 24.3652 0 29.4922 0 39.6973ZM7.86133 107.373L7.86133 39.7949C7.86133 35.0098 10.4492 32.2266 15.5273 32.2266L31.543 32.2266L31.543 60.5469C31.543 66.6992 34.668 69.7754 40.7227 69.7754L68.3105 69.7754L68.3105 107.373C68.3105 112.256 65.6738 114.99 60.6445 114.99L15.4785 114.99C10.4492 114.99 7.86133 112.256 7.86133 107.373ZM41.6504 62.4023C39.6973 62.4023 38.916 61.6211 38.916 59.668L38.916 34.0332L66.7969 62.4023Z" fill="#000000" fill-opacity="0.85"/>
 </g>
</svg>
