<?xml version="1.0" encoding="UTF-8"?>
<!--Generator: Apple Native CoreSVG 232.5-->
<!DOCTYPE svg
PUBLIC "-//W3C//DTD SVG 1.1//EN"
       "http://www.w3.org/Graphics/SVG/1.1/DTD/svg11.dtd">
<svg version="1.1" xmlns="http://www.w3.org/2000/svg" xmlns:xlink="http://www.w3.org/1999/xlink" width="82.1289" height="104.736">
 <g>
  <rect height="104.736" opacity="0" width="82.1289" x="0" y="0"/>
  <path d="M0 89.4043C0 99.6094 5.0293 104.688 15.1367 104.688L66.9922 104.688C77.0996 104.688 82.1289 99.6094 82.1289 89.4043L82.1289 15.332C82.1289 5.17578 77.0996 0 66.9922 0L15.1367 0C5.0293 0 0 5.17578 0 15.332ZM7.86133 89.2578L7.86133 15.4785C7.86133 10.5957 10.4492 7.86133 15.5273 7.86133L66.6016 7.86133C71.6797 7.86133 74.2676 10.5957 74.2676 15.4785L74.2676 89.2578C74.2676 94.1406 71.6797 96.8262 66.6016 96.8262L15.5273 96.8262C10.4492 96.8262 7.86133 94.1406 7.86133 89.2578Z" fill="#000000" fill-opacity="0.85"/>
  <path d="M22.4609 67.9688L59.7656 67.9688C61.5234 67.9688 62.793 66.6016 62.793 64.8926C62.793 63.2324 61.5234 61.9629 59.7656 61.9629L22.4609 61.9629C20.7031 61.9629 19.3848 63.2324 19.3848 64.8926C19.3848 66.6016 20.7031 67.9688 22.4609 67.9688ZM22.4609 82.6172L40.0879 82.6172C41.8457 82.6172 43.1152 81.3477 43.1152 79.6875C43.1152 77.9785 41.8457 76.6113 40.0879 76.6113L22.4609 76.6113C20.7031 76.6113 19.3848 77.9785 19.3848 79.6875C19.3848 81.3477 20.7031 82.6172 22.4609 82.6172Z" fill="#000000" fill-opacity="0.85"/>
  <path d="M22.0703 39.6973L30.3223 39.6973C31.7871 39.6973 32.7148 38.8672 33.0566 37.5977L34.9609 29.9316L39.1602 50.1465C39.6973 52.832 43.2617 52.832 44.0918 50.1953L48.7793 34.0332L49.6582 37.4512C49.9512 38.8672 50.9277 39.6973 52.3926 39.6973L60.0586 39.6973C61.4746 39.6973 62.5977 38.5254 62.5977 37.1582C62.5977 35.7422 61.5234 34.668 60.0586 34.668L53.9062 34.668L51.3672 24.8535C50.7324 22.3145 47.3145 22.3633 46.4844 24.9512L41.8945 39.8438L37.4512 18.2617C36.8652 15.5762 33.3008 15.5273 32.666 18.2129L28.6621 34.668L22.0703 34.668C20.6543 34.668 19.5312 35.791 19.5312 37.1582C19.5312 38.5254 20.6543 39.6973 22.0703 39.6973Z" fill="#000000" fill-opacity="0.85"/>
 </g>
</svg>
