<?xml version="1.0" encoding="UTF-8"?>
<!--Generator: Apple Native CoreSVG 232.5-->
<!DOCTYPE svg
PUBLIC "-//W3C//DTD SVG 1.1//EN"
       "http://www.w3.org/Graphics/SVG/1.1/DTD/svg11.dtd">
<svg version="1.1" xmlns="http://www.w3.org/2000/svg" xmlns:xlink="http://www.w3.org/1999/xlink" width="99.6094" height="99.6582">
 <g>
  <rect height="99.6582" opacity="0" width="99.6094" x="0" y="0"/>
  <path d="M49.8047 99.6094C77.0508 99.6094 99.6094 77.002 99.6094 49.8047C99.6094 22.5586 77.002 0 49.7559 0C22.5586 0 0 22.5586 0 49.8047C0 77.002 22.6074 99.6094 49.8047 99.6094ZM49.8047 91.3086C26.7578 91.3086 8.34961 72.8516 8.34961 49.8047C8.34961 26.7578 26.709 8.30078 49.7559 8.30078C72.8027 8.30078 91.3086 26.7578 91.3086 49.8047C91.3086 72.8516 72.8516 91.3086 49.8047 91.3086Z" fill="#000000" fill-opacity="0.85"/>
  <path d="M38.1836 76.0742L63.6719 76.0742C69.0918 76.0742 71.7773 73.291 71.7773 67.8223L71.7773 46.8262L52.4414 46.8262C49.0723 46.8262 47.4609 45.2637 47.4609 41.8945L47.4609 22.2168L38.1836 22.2168C32.8125 22.2168 30.0781 25 30.0781 30.4688L30.0781 67.8223C30.0781 73.3398 32.8125 76.0742 38.1836 76.0742ZM52.832 42.8711L71.4844 42.8711C71.3379 41.7969 70.5566 40.7227 69.2871 39.4531L54.834 24.707C53.6133 23.4375 52.4902 22.6562 51.416 22.5098L51.416 41.4551C51.416 42.3828 51.9043 42.8711 52.832 42.8711Z" fill="#000000" fill-opacity="0.85"/>
 </g>
</svg>
