<?xml version="1.0" encoding="UTF-8"?>
<!--Generator: Apple Native CoreSVG 232.5-->
<!DOCTYPE svg
PUBLIC "-//W3C//DTD SVG 1.1//EN"
       "http://www.w3.org/Graphics/SVG/1.1/DTD/svg11.dtd">
<svg version="1.1" xmlns="http://www.w3.org/2000/svg" xmlns:xlink="http://www.w3.org/1999/xlink" width="82.1289" height="104.736">
 <g>
  <rect height="104.736" opacity="0" width="82.1289" x="0" y="0"/>
  <path d="M21.9727 27.5879C20.166 27.5879 18.8477 26.1719 18.8477 24.4141C18.8477 22.7051 20.166 21.3867 21.9727 21.3867L60.2051 21.3867C61.9629 21.3867 63.2812 22.7051 63.2812 24.4141C63.2812 26.1719 61.9629 27.5879 60.2051 27.5879ZM21.9727 45.166C20.166 45.166 18.8477 43.75 18.8477 41.9922C18.8477 40.2832 20.166 38.9648 21.9727 38.9648L60.2051 38.9648C61.9629 38.9648 63.2812 40.2832 63.2812 41.9922C63.2812 43.75 61.9629 45.166 60.2051 45.166ZM21.9727 62.7441C20.166 62.7441 18.8477 61.377 18.8477 59.668C18.8477 57.9102 20.166 56.543 21.9727 56.543L40.0391 56.543C41.8945 56.543 43.1641 57.9102 43.1641 59.668C43.1641 61.377 41.8945 62.7441 40.0391 62.7441ZM0 89.4043C0 99.6094 5.0293 104.688 15.1367 104.688L66.9922 104.688C77.0996 104.688 82.1289 99.6094 82.1289 89.4043L82.1289 15.332C82.1289 5.17578 77.0996 0 66.9922 0L15.1367 0C5.0293 0 0 5.17578 0 15.332Z" fill="#000000" fill-opacity="0.85"/>
 </g>
</svg>
