<?xml version="1.0" encoding="UTF-8"?>
<!--Generator: Apple Native CoreSVG 232.5-->
<!DOCTYPE svg
PUBLIC "-//W3C//DTD SVG 1.1//EN"
       "http://www.w3.org/Graphics/SVG/1.1/DTD/svg11.dtd">
<svg version="1.1" xmlns="http://www.w3.org/2000/svg" xmlns:xlink="http://www.w3.org/1999/xlink" width="82.1289" height="104.736">
 <g>
  <rect height="104.736" opacity="0" width="82.1289" x="0" y="0"/>
  <path d="M29.1016 49.5117C35.0586 49.5117 39.1602 45.4102 39.1602 39.5508C39.1602 33.8379 35.6445 30.0293 30.4688 30.0293C27.8809 30.0293 25.7324 30.8594 24.2188 32.7637L23.2422 32.7637C23.6328 30.957 24.7559 29.248 26.4648 27.832C27.9785 26.5137 29.834 25.6348 31.9824 25.1953C33.7891 24.7559 34.3262 24.2188 34.3262 23.1445C34.3262 22.1191 33.5938 21.3379 32.2266 21.3379C29.0527 21.3379 25.0977 23.291 22.3633 26.2207C19.6289 29.1992 18.2617 33.0078 18.2617 37.1582C18.2617 44.9707 23.0957 49.5117 29.1016 49.5117ZM53.8574 49.4629C59.7656 49.4629 63.916 45.3613 63.916 39.502C63.916 33.7891 60.4004 29.9805 55.2246 29.9805C52.5879 29.9805 50.4883 30.8105 48.9746 32.7148L47.9492 32.7148C48.3398 30.957 49.4629 29.2969 51.0254 27.8809C52.5879 26.4648 54.541 25.6348 56.6895 25.1465C58.4961 24.707 59.082 24.1699 59.082 23.0957C59.082 22.0703 58.3496 21.2891 56.9824 21.2891C53.8086 21.2891 49.707 23.3398 47.1191 26.1719C44.3359 29.1504 42.9688 32.959 42.9688 37.1094C42.9688 44.9219 47.8027 49.4629 53.8574 49.4629ZM22.4609 67.9688L59.7656 67.9688C61.5234 67.9688 62.793 66.6016 62.793 64.8926C62.793 63.2324 61.5234 61.9629 59.7656 61.9629L22.4609 61.9629C20.7031 61.9629 19.3848 63.2324 19.3848 64.8926C19.3848 66.6016 20.7031 67.9688 22.4609 67.9688ZM22.4609 82.6172L40.0879 82.6172C41.8457 82.6172 43.1152 81.3477 43.1152 79.6875C43.1152 77.9785 41.8457 76.6113 40.0879 76.6113L22.4609 76.6113C20.7031 76.6113 19.3848 77.9785 19.3848 79.6875C19.3848 81.3477 20.7031 82.6172 22.4609 82.6172ZM0 89.4043C0 99.6094 5.0293 104.688 15.1367 104.688L66.9922 104.688C77.0996 104.688 82.1289 99.6094 82.1289 89.4043L82.1289 15.332C82.1289 5.17578 77.0996 0 66.9922 0L15.1367 0C5.0293 0 0 5.17578 0 15.332ZM7.86133 89.2578L7.86133 15.4785C7.86133 10.5957 10.4492 7.86133 15.5273 7.86133L66.6016 7.86133C71.6797 7.86133 74.2676 10.5957 74.2676 15.4785L74.2676 89.2578C74.2676 94.1406 71.6797 96.8262 66.6016 96.8262L15.5273 96.8262C10.4492 96.8262 7.86133 94.1406 7.86133 89.2578Z" fill="#000000" fill-opacity="0.85"/>
 </g>
</svg>
