<?xml version="1.0" encoding="UTF-8"?>
<!--Generator: Apple Native CoreSVG 232.5-->
<!DOCTYPE svg
PUBLIC "-//W3C//DTD SVG 1.1//EN"
       "http://www.w3.org/Graphics/SVG/1.1/DTD/svg11.dtd">
<svg version="1.1" xmlns="http://www.w3.org/2000/svg" xmlns:xlink="http://www.w3.org/1999/xlink" width="82.1289" height="104.736">
 <g>
  <rect height="104.736" opacity="0" width="82.1289" x="0" y="0"/>
  <path d="M15.1367 104.688L66.9922 104.688C77.0996 104.688 82.1289 99.5605 82.1289 89.4043L82.1289 45.0684C82.1289 38.7695 81.3965 36.0352 77.4902 32.0312L50.5859 4.63867C46.875 0.830078 43.7988 0 38.3301 0L15.1367 0C5.07812 0 0 5.17578 0 15.332L0 89.4043C0 99.6094 5.0293 104.688 15.1367 104.688ZM15.4785 96.8262C10.4492 96.8262 7.86133 94.1406 7.86133 89.2578L7.86133 15.4785C7.86133 10.6445 10.4492 7.86133 15.5273 7.86133L37.2559 7.86133L37.2559 36.2305C37.2559 42.3828 40.332 45.4102 46.4355 45.4102L74.2676 45.4102L74.2676 89.2578C74.2676 94.1406 71.6797 96.8262 66.6016 96.8262ZM47.3145 38.0371C45.3613 38.0371 44.6289 37.2559 44.6289 35.3027L44.6289 9.375L72.7539 38.0371Z" fill="#000000" fill-opacity="0.85"/>
  <path d="M59.0332 58.8867L21.9727 58.8867C20.2148 58.8867 18.8965 60.2051 18.8965 61.8652C18.8965 63.5742 20.2148 64.8926 21.9727 64.8926L59.0332 64.8926C60.7422 64.8926 62.0117 63.5742 62.0117 61.8652C62.0117 60.2051 60.7422 58.8867 59.0332 58.8867ZM59.0332 75.9277L21.9727 75.9277C20.2148 75.9277 18.8965 77.2949 18.8965 79.0039C18.8965 80.6641 20.2148 81.9336 21.9727 81.9336L59.0332 81.9336C60.7422 81.9336 62.0117 80.6641 62.0117 79.0039C62.0117 77.2949 60.7422 75.9277 59.0332 75.9277Z" fill="#000000" fill-opacity="0.85"/>
 </g>
</svg>
