<?xml version="1.0" encoding="UTF-8"?>
<!--Generator: Apple Native CoreSVG 232.5-->
<!DOCTYPE svg
PUBLIC "-//W3C//DTD SVG 1.1//EN"
       "http://www.w3.org/Graphics/SVG/1.1/DTD/svg11.dtd">
<svg version="1.1" xmlns="http://www.w3.org/2000/svg" xmlns:xlink="http://www.w3.org/1999/xlink" width="113.135" height="135.986">
 <g>
  <rect height="135.986" opacity="0" width="113.135" x="0" y="0"/>
  <path d="M71.4844 35.3516C71.4844 40.4297 74.4141 43.3105 79.4922 43.3105L106.494 43.3105L106.494 89.6484C106.494 99.8047 101.465 104.98 91.3574 104.98L89.502 104.98L89.502 75.4395C89.5508 68.4082 87.4023 62.793 82.9102 58.2031L56.8359 31.6406C51.8555 26.5137 46.4355 24.2188 38.8184 24.2188L30.3223 24.2188L30.3223 21.4355C30.3223 11.8652 35.4004 6.49414 45.459 6.49414L71.4844 6.49414ZM82.2266 11.5234L102.881 32.5684C104.639 34.2773 105.664 35.6445 105.957 37.207L80.4199 37.207C78.4668 37.207 77.6855 36.377 77.6855 34.375L77.6367 8.49609C79.1504 8.69141 80.5664 9.76562 82.2266 11.5234Z" fill="#000000" fill-opacity="0.85"/>
  <path d="M48.6816 68.75L81.9824 68.75C81.4453 66.8457 80.3223 65.0879 78.1738 62.8418L52.0996 36.2793C49.9023 34.082 48.0469 32.6172 46.1914 32.0801L46.1914 66.2598C46.1914 67.9199 47.0215 68.75 48.6816 68.75ZM21.7773 129.346L67.6758 129.346C77.7832 129.346 82.8125 124.17 82.8125 114.014L82.8125 75.4395L48.7305 75.4395C42.4316 75.4395 39.502 72.4609 39.502 66.2109L39.502 30.8594L21.7773 30.8594C11.7188 30.8594 6.64062 35.9863 6.64062 46.1914L6.64062 114.014C6.64062 124.219 11.7188 129.346 21.7773 129.346Z" fill="#000000" fill-opacity="0.85"/>
 </g>
</svg>
