<?xml version="1.0" encoding="UTF-8"?>
<!--Generator: Apple Native CoreSVG 232.5-->
<!DOCTYPE svg
PUBLIC "-//W3C//DTD SVG 1.1//EN"
       "http://www.w3.org/Graphics/SVG/1.1/DTD/svg11.dtd">
<svg version="1.1" xmlns="http://www.w3.org/2000/svg" xmlns:xlink="http://www.w3.org/1999/xlink" width="82.1289" height="104.736">
 <g>
  <rect height="104.736" opacity="0" width="82.1289" x="0" y="0"/>
  <path d="M0 89.4043C0 99.6094 5.0293 104.688 15.1367 104.688L66.9922 104.688C77.0996 104.688 82.1289 99.6094 82.1289 89.4043L82.1289 15.332C82.1289 5.17578 77.0996 0 66.9922 0L15.1367 0C5.0293 0 0 5.17578 0 15.332ZM7.86133 89.2578L7.86133 15.4785C7.86133 10.5957 10.4492 7.86133 15.5273 7.86133L66.6016 7.86133C71.6797 7.86133 74.2676 10.5957 74.2676 15.4785L74.2676 89.2578C74.2676 94.1406 71.6797 96.8262 66.6016 96.8262L15.5273 96.8262C10.4492 96.8262 7.86133 94.1406 7.86133 89.2578Z" fill="#000000" fill-opacity="0.85"/>
  <path d="M22.4609 67.9688L59.7656 67.9688C61.5234 67.9688 62.793 66.6016 62.793 64.8926C62.793 63.2324 61.5234 61.9629 59.7656 61.9629L22.4609 61.9629C20.7031 61.9629 19.3848 63.2324 19.3848 64.8926C19.3848 66.6016 20.7031 67.9688 22.4609 67.9688ZM22.4609 82.6172L40.0879 82.6172C41.8457 82.6172 43.1152 81.3477 43.1152 79.6875C43.1152 77.9785 41.8457 76.6113 40.0879 76.6113L22.4609 76.6113C20.7031 76.6113 19.3848 77.9785 19.3848 79.6875C19.3848 81.3477 20.7031 82.6172 22.4609 82.6172Z" fill="#000000" fill-opacity="0.85"/>
  <path d="M39.9414 43.7012C41.9922 43.7012 43.3105 42.3828 43.3105 40.7227C43.3105 40.5273 43.3105 40.3809 43.3105 40.1855C43.3105 38.1348 44.4824 36.8652 47.168 35.0586C50.9766 32.5684 53.7598 30.127 53.7598 25.3906C53.7598 18.7988 47.8516 15.1855 41.1621 15.1855C35.3516 15.1855 29.6875 18.0664 28.6133 22.5098C28.4668 23.0469 28.418 23.584 28.418 24.1699C28.418 26.0254 29.9316 27.0508 31.2988 27.0508C32.7637 27.0508 33.5938 26.416 34.3262 25.3906L35.0098 24.5117C36.2793 22.2168 38.2324 20.8984 40.8691 20.8984C44.4336 20.8984 46.582 22.8027 46.582 25.6836C46.582 28.1738 45.0195 29.4434 41.6016 31.7871C38.7695 33.7891 36.6211 35.9375 36.6211 39.8926C36.6211 40.0391 36.6211 40.2344 36.6211 40.4297C36.6211 42.5781 37.8418 43.7012 39.9414 43.7012ZM39.8926 55.3223C42.1875 55.3223 44.2871 53.418 44.2871 51.0742C44.2871 48.6328 42.2852 46.7285 39.8926 46.7285C37.4023 46.7285 35.4004 48.6816 35.4004 51.0742C35.4004 53.3691 37.4512 55.3223 39.8926 55.3223Z" fill="#000000" fill-opacity="0.85"/>
 </g>
</svg>
