<?xml version="1.0" encoding="UTF-8"?>
<!--Generator: Apple Native CoreSVG 232.5-->
<!DOCTYPE svg
PUBLIC "-//W3C//DTD SVG 1.1//EN"
       "http://www.w3.org/Graphics/SVG/1.1/DTD/svg11.dtd">
<svg version="1.1" xmlns="http://www.w3.org/2000/svg" xmlns:xlink="http://www.w3.org/1999/xlink" width="115.137" height="89.8926">
 <g>
  <rect height="89.8926" opacity="0" width="115.137" x="0" y="0"/>
  <path d="M15.332 89.8926L99.8047 89.8926C110.059 89.8926 115.137 84.8633 115.137 74.8047L115.137 15.1367C115.137 5.07812 110.059 0 99.8047 0L15.332 0C5.12695 0 0 5.07812 0 15.1367L0 74.8047C0 84.8633 5.12695 89.8926 15.332 89.8926ZM15.4297 82.0312C10.5469 82.0312 7.86133 79.4434 7.86133 74.3652L7.86133 15.5762C7.86133 10.498 10.5469 7.86133 15.4297 7.86133L99.707 7.86133C104.541 7.86133 107.275 10.498 107.275 15.5762L107.275 74.3652C107.275 79.4434 104.541 82.0312 99.707 82.0312Z" fill="#000000" fill-opacity="0.85"/>
  <path d="M20.9961 70.0684C20.9961 72.6074 22.7539 74.2676 25.3418 74.2676L89.9414 74.2676C92.5293 74.2676 94.2871 72.6074 94.2871 70.0684L94.2871 62.7441C94.2871 60.1562 92.5293 58.4961 89.9414 58.4961L25.3418 58.4961C22.7539 58.4961 20.9961 60.1562 20.9961 62.7441ZM57.6172 15.918C55.5176 15.918 53.7109 17.6758 53.7109 19.7266L53.7109 33.8867L54.0527 42.0898L49.8535 37.6953L43.5059 31.3477C42.7246 30.6152 41.748 30.1758 40.7715 30.1758C38.7207 30.1758 37.2559 31.5918 37.2559 33.6426C37.2559 34.7656 37.6953 35.5957 38.5254 36.3281L54.7852 51.5137C55.8105 52.4414 56.5918 52.7832 57.6172 52.7832C58.5938 52.7832 59.4238 52.4414 60.4492 51.5137L76.6602 36.3281C77.5391 35.5957 77.9785 34.7656 77.9785 33.6426C77.9785 31.5918 76.4648 30.1758 74.3652 30.1758C73.3887 30.1758 72.4609 30.6152 71.7285 31.3477L65.3809 37.6953L61.1816 42.0898L61.4746 33.8867L61.4746 19.7266C61.4746 17.6758 59.7168 15.918 57.6172 15.918Z" fill="#000000" fill-opacity="0.85"/>
 </g>
</svg>
