<?xml version="1.0" encoding="UTF-8"?>
<!--Generator: Apple Native CoreSVG 232.5-->
<!DOCTYPE svg
PUBLIC "-//W3C//DTD SVG 1.1//EN"
       "http://www.w3.org/Graphics/SVG/1.1/DTD/svg11.dtd">
<svg version="1.1" xmlns="http://www.w3.org/2000/svg" xmlns:xlink="http://www.w3.org/1999/xlink" width="135.352" height="113.037">
 <g>
  <rect height="113.037" opacity="0" width="135.352" x="0" y="0"/>
  <path d="M10.2051 112.842L20.166 112.842C26.416 112.842 30.5176 108.35 30.5176 103.564C30.5176 100.781 29.3457 97.9004 26.5625 96.4844C35.791 92.7734 41.5527 86.4746 43.4082 77.3438C50.5859 81.543 61.377 82.1777 72.6074 81.0059C72.4609 87.7441 71.4355 97.3633 71.4355 101.709C71.4355 109.082 75.2441 113.037 82.4219 113.037L90.7715 113.037C98.0957 113.037 102.002 108.35 102.002 102.686C102.002 98.7793 100.293 94.5312 94.4336 92.1875C94.7754 87.4512 96.9727 76.9043 98.4375 72.5586C100.879 65.4785 105.811 59.4238 105.811 49.4629C105.811 45.1172 106.641 42.7734 107.471 40.8691C110.742 42.8223 113.721 43.75 117.188 43.75C126.123 43.75 135.352 34.4238 135.352 24.6582C135.352 19.2871 128.027 16.0156 123.975 13.4277C119.141 10.0586 115.869 5.61523 110.693 3.32031L109.229 10.2051C112.891 12.0605 115.527 15.7715 119.824 18.6035C124.414 21.6797 127.783 21.9727 127.783 25.4883C127.783 30.5176 122.363 36.1328 117.188 36.1328C114.307 36.1328 112.012 35.2539 108.008 32.4707C106.152 31.2012 104.248 31.4453 103.125 33.2031C99.4141 38.623 98.2422 42.9688 98.2422 49.4629C98.2422 56.6406 94.1406 61.2793 91.1133 70.4102C89.502 75.4883 86.7676 88.1836 86.7676 93.9453C86.7676 95.3613 87.2559 96.582 89.0137 97.2168C93.7012 98.5352 94.3848 100.732 94.3848 102.246C94.3848 104.248 93.1152 105.225 90.7715 105.225L82.666 105.225C80.2246 105.225 79.1016 103.955 79.1016 101.367C79.1016 91.9922 80.8594 79.2969 80.8594 74.7559C80.8594 72.5586 78.8574 71.3867 76.5137 72.168C63.0859 76.6602 49.2676 73.6816 41.6016 67.5781C39.4531 65.8203 36.9629 67.1387 36.9629 69.4824C36.9629 82.2754 30.8594 88.4766 17.1387 91.9922C14.3066 92.7734 14.3066 97.0215 17.1387 97.5098C20.9473 98.0957 22.9004 99.8535 22.9004 102.246C22.9004 104.15 21.4355 105.225 19.2871 105.225L11.1328 105.225C8.98438 105.225 7.56836 103.662 7.56836 101.367L7.56836 92.041C7.56836 88.3301 9.0332 86.1328 15.6738 80.8594C20.752 76.8066 22.168 71.2891 22.168 59.668C22.168 53.6133 22.9004 46.7285 25.4883 43.3105L18.457 35.4004C16.2109 32.8613 19.5801 30.1758 21.7285 32.666L28.4668 40.4785C29.3457 39.7949 30.6152 39.4043 32.3242 39.3066L73.7305 35.8398C92.041 29.6875 91.2109 21.7773 96.9727 15.7715L92.4316 9.7168C82.4219 18.7988 84.5215 23.9258 72.168 28.3203L34.0332 31.543C32.666 31.6406 31.3965 31.7871 30.2246 31.9336L26.6602 27.6855C19.1895 18.8477 4.88281 29.5898 13.0859 39.3555L16.8457 43.8477C15.3809 48.291 14.5508 53.6133 14.5508 59.668C14.5508 70.0195 13.7695 72.7051 11.0352 74.9023C3.22266 81.0547 0 85.6445 0 92.041L0 102.197C0 108.447 4.24805 112.842 10.2051 112.842ZM100.635 22.4121C108.594 22.4121 112.646 9.0332 112.646 5.22461C112.646 1.85547 110.889 0.0488281 107.373 0.0488281L93.9453 0.0488281C90.4297 0.0488281 88.623 1.85547 88.623 5.22461C88.623 9.0332 92.7246 22.4121 100.635 22.4121ZM100.635 15.8203C98.1445 15.8203 96.1426 10.498 95.6055 7.51953C95.5078 7.03125 95.8496 6.64062 96.3379 6.64062L104.98 6.64062C105.469 6.64062 105.811 7.03125 105.713 7.51953C105.176 10.498 103.125 15.8203 100.635 15.8203ZM113.281 25.4395C115.283 25.4395 116.895 23.7793 116.895 21.7285C116.895 19.6777 115.283 18.1152 113.281 18.1152C111.23 18.1152 109.619 19.6777 109.619 21.7285C109.619 23.7793 111.23 25.4395 113.281 25.4395Z" fill="#000000" fill-opacity="0.85"/>
 </g>
</svg>
