<?xml version="1.0" encoding="UTF-8"?>
<!--Generator: Apple Native CoreSVG 232.5-->
<!DOCTYPE svg
PUBLIC "-//W3C//DTD SVG 1.1//EN"
       "http://www.w3.org/Graphics/SVG/1.1/DTD/svg11.dtd">
<svg version="1.1" xmlns="http://www.w3.org/2000/svg" xmlns:xlink="http://www.w3.org/1999/xlink" width="132.324" height="111.963">
 <g>
  <rect height="111.963" opacity="0" width="132.324" x="0" y="0"/>
  <path d="M8.69141 110.84L18.6523 110.84C24.2676 110.84 27.4902 107.275 27.4902 103.076C27.4902 98.6816 25.1953 96.8262 20.5078 96.3379C18.3105 96.0938 18.3594 93.457 20.2148 93.2129C32.1289 91.3086 39.3555 85.1074 40.7715 74.4629C48.0469 79.6387 60.3027 80.4199 72.6074 78.8574C72.5586 85.9863 71.4844 95.8008 71.4844 100.879C71.4844 106.836 75.293 110.84 81.1035 110.84L89.3066 110.84C94.873 110.84 98.0957 107.275 98.0957 103.223C98.0957 98.9746 96.0938 97.1191 90.7715 96.3379C89.6484 96.1426 89.0625 95.4102 89.3066 94.2871C90.2344 89.2578 93.0664 78.8086 94.6777 74.0234C98.0469 64.0137 102.783 57.5684 102.783 47.2168C102.783 42.3828 104.102 39.502 105.225 38.2324C109.082 40.5762 111.914 41.748 115.674 41.748C124.023 41.748 132.324 33.252 132.324 24.3652C132.324 19.6777 128.418 19.4824 123.486 16.3574C119.189 13.5254 116.748 9.86328 112.939 7.8125C111.621 14.1602 106.787 24.1211 98.2422 24.1211C93.0176 24.1211 89.209 20.3613 86.7676 16.0645C82.9102 21.3379 81.3477 25.7324 70.9961 29.3457L29.1992 32.6172C28.125 32.666 27.1973 33.0078 26.5625 33.252L22.9004 28.8574C16.9434 21.7773 7.66602 30.127 13.5742 36.9141L17.627 41.6016C15.625 46.3379 14.5508 52.0508 14.5508 59.1797C14.5508 69.9707 13.7207 72.9492 10.498 75.5859C2.83203 81.6406 0 85.6445 0 92.4316L0 101.709C0 107.08 3.61328 110.84 8.69141 110.84ZM115.43 24.9023C113.623 24.9023 112.305 23.5352 112.305 21.8262C112.305 20.0684 113.623 18.7988 115.43 18.7988C117.139 18.7988 118.457 20.0684 118.457 21.8262C118.457 23.5352 117.139 24.9023 115.43 24.9023ZM98.2422 19.6777C105.225 19.6777 108.838 7.86133 108.838 4.54102C108.838 1.5625 107.275 0 104.199 0L92.334 0C89.2578 0 87.6465 1.5625 87.6465 4.54102C87.6465 7.86133 91.2598 19.6777 98.2422 19.6777Z" fill="#000000" fill-opacity="0.85"/>
 </g>
</svg>
