<?xml version="1.0" encoding="UTF-8"?>
<!--Generator: Apple Native CoreSVG 232.5-->
<!DOCTYPE svg
PUBLIC "-//W3C//DTD SVG 1.1//EN"
       "http://www.w3.org/Graphics/SVG/1.1/DTD/svg11.dtd">
<svg version="1.1" xmlns="http://www.w3.org/2000/svg" xmlns:xlink="http://www.w3.org/1999/xlink" width="61.4746" height="110.596">
 <g>
  <rect height="110.596" opacity="0" width="61.4746" x="0" y="0"/>
  <path d="M31.0059 98.8281C47.5098 98.8281 61.4746 90.2344 61.4746 74.5605C61.4746 62.5 53.7598 55.3223 36.5234 51.1719L27.2461 48.9746C16.3574 46.3867 11.3281 41.8457 11.3281 34.7168C11.3281 27.0508 18.6035 20.459 30.957 20.459C41.0645 20.459 47.998 25.1953 50.6836 33.9355C51.4648 36.4746 53.125 37.793 55.5664 37.793C58.4473 37.793 60.0586 35.9375 60.0586 33.1055C60.0586 32.3242 59.9609 31.4941 59.7168 30.6152C56.7871 19.3359 45.3613 11.8164 30.957 11.8164C13.9648 11.8164 1.80664 21.3867 1.80664 35.3027C1.80664 46.8262 9.42383 54.0527 25.7812 58.0078L35.0586 60.2051C47.2168 63.1348 51.9531 67.334 51.9531 75.2441C51.9531 84.668 44.2383 90.1855 31.1035 90.1855C19.3848 90.1855 11.7188 85.2539 9.375 76.123C8.54492 73.5352 6.93359 72.2168 4.49219 72.2168C1.66016 72.2168 0 74.1211 0 77.002C0 77.7344 0.0976562 78.5645 0.341797 79.4434C3.41797 91.6992 16.3574 98.8281 31.0059 98.8281ZM30.7617 110.596C32.8125 110.596 34.4727 108.936 34.4727 106.885L34.4727 4.05273C34.4727 2.00195 32.8125 0.390625 30.7617 0.390625C28.7109 0.390625 27.0996 2.00195 27.0996 4.05273L27.0996 106.885C27.0996 108.936 28.7109 110.596 30.7617 110.596Z" fill="#000000" fill-opacity="0.85"/>
 </g>
</svg>
