<?xml version="1.0" encoding="UTF-8"?>
<!--Generator: Apple Native CoreSVG 232.5-->
<!DOCTYPE svg
PUBLIC "-//W3C//DTD SVG 1.1//EN"
       "http://www.w3.org/Graphics/SVG/1.1/DTD/svg11.dtd">
<svg version="1.1" xmlns="http://www.w3.org/2000/svg" xmlns:xlink="http://www.w3.org/1999/xlink" width="99.6094" height="99.6582">
 <g>
  <rect height="99.6582" opacity="0" width="99.6094" x="0" y="0"/>
  <path d="M49.8047 99.6094C77.0508 99.6094 99.6094 77.002 99.6094 49.8047C99.6094 22.5586 77.002 0 49.7559 0C22.5586 0 0 22.5586 0 49.8047C0 77.002 22.6074 99.6094 49.8047 99.6094ZM49.8047 91.3086C26.7578 91.3086 8.34961 72.8516 8.34961 49.8047C8.34961 26.7578 26.709 8.30078 49.7559 8.30078C72.8027 8.30078 91.3086 26.7578 91.3086 49.8047C91.3086 72.8516 72.8516 91.3086 49.8047 91.3086Z" fill="#000000" fill-opacity="0.85"/>
  <path d="M49.7559 77.6855C51.0742 77.6855 52.0508 76.7578 52.0508 75.3906L52.0508 71.9727C59.6191 71.2402 65.5273 66.8457 65.5273 59.4727C65.5273 52.832 61.2305 48.8281 52.7344 47.3145L52.0508 47.168L52.0508 33.5449C55.5664 34.1797 58.0078 36.2793 58.9844 39.5508C59.4727 41.0156 60.4004 41.9434 61.9629 41.9434C63.623 41.9434 64.8438 40.7715 64.8438 39.0625C64.8438 38.5742 64.6973 38.0859 64.5996 37.5488C63.3301 32.2754 58.3008 28.6621 52.0508 27.9297L52.0508 24.5605C52.0508 23.1934 51.0742 22.2656 49.7559 22.2656C48.4375 22.2656 47.4609 23.1934 47.4609 24.5605L47.4609 27.9297C40.0391 28.7598 34.7656 33.3984 34.7656 40.0391C34.7656 46.2402 38.9648 49.9512 47.1191 51.8555L47.4609 51.9531L47.4609 66.4062C43.0664 65.7715 40.4785 63.3301 39.6973 60.0586C39.1113 58.3984 38.1348 57.6172 36.6699 57.6172C35.0098 57.6172 33.8379 58.7891 33.8379 60.498C33.8379 61.0352 33.9355 61.5234 34.082 62.0117C35.4492 67.627 40.918 71.2402 47.4609 71.875L47.4609 75.3906C47.4609 76.7578 48.4375 77.6855 49.7559 77.6855ZM47.4609 45.9473L47.1191 45.8496C42.7246 44.5801 40.7715 42.627 40.7715 39.7461C40.7715 36.7676 43.3105 34.2773 47.4609 33.5449ZM52.0508 53.125L53.125 53.3691C57.8613 54.6875 59.4727 56.6895 59.4727 59.8145C59.4727 63.2324 57.0312 65.8203 52.0508 66.4062Z" fill="#000000" fill-opacity="0.85"/>
 </g>
</svg>
