<?xml version="1.0" encoding="UTF-8"?>
<!--Generator: Apple Native CoreSVG 232.5-->
<!DOCTYPE svg
PUBLIC "-//W3C//DTD SVG 1.1//EN"
       "http://www.w3.org/Graphics/SVG/1.1/DTD/svg11.dtd">
<svg version="1.1" xmlns="http://www.w3.org/2000/svg" xmlns:xlink="http://www.w3.org/1999/xlink" width="89.8926" height="89.9902">
 <g>
  <rect height="89.9902" opacity="0" width="89.8926" x="0" y="0"/>
  <path d="M89.8926 15.2344L89.8926 74.8535C89.8926 84.9121 84.8145 89.9902 74.5605 89.9902L15.332 89.9902C5.12695 89.9902 0 84.9609 0 74.8535L0 15.2344C0 5.12695 5.12695 0.0976562 15.332 0.0976562L74.5605 0.0976562C84.8145 0.0976562 89.8926 5.17578 89.8926 15.2344ZM31.9824 65.7715C30.5664 65.7715 29.541 66.8457 29.541 68.2129C29.541 69.5801 30.6152 70.6543 31.9824 70.6543L56.543 70.6543C57.9102 70.6543 58.9844 69.5801 58.9844 68.2129C58.9844 66.7969 57.959 65.7715 56.543 65.7715ZM51.123 20.2148L51.123 22.5586L41.9434 22.5586C40.5273 22.5586 39.5996 23.6328 39.5996 25C39.5996 26.3672 40.5762 27.3926 41.9434 27.3926L51.123 27.3926L51.123 35.4004C48.9258 32.7148 45.4102 31.1035 41.3086 31.1035C33.0566 31.1035 26.9531 37.5 26.9531 46.7773C26.9531 56.0059 33.1055 62.4512 41.3574 62.4512C45.459 62.4512 49.0723 60.8398 51.3672 57.959L51.3672 59.9609C51.3672 61.8164 52.6367 63.0371 54.4434 63.0371C56.2012 63.0371 57.4219 61.8164 57.4219 59.9609L57.4219 27.3926L60.6445 27.3926C62.0117 27.3926 63.0371 26.3672 63.0371 25C63.0371 23.6328 62.0605 22.5586 60.6445 22.5586L57.4219 22.5586L57.4219 20.2148C57.4219 18.2129 56.1523 16.9922 54.2969 16.9922C52.3926 16.9922 51.123 18.2129 51.123 20.2148ZM51.2695 46.8262C51.2695 52.5391 47.5586 56.6895 42.3828 56.6895C37.0605 56.6895 33.4473 52.7832 33.4473 46.8262C33.4473 40.8691 37.0605 36.9629 42.3828 36.9629C47.5586 36.9629 51.2695 41.1133 51.2695 46.8262Z" fill="#000000" fill-opacity="0.85"/>
 </g>
</svg>
