<?xml version="1.0" encoding="UTF-8"?>
<!--Generator: Apple Native CoreSVG 232.5-->
<!DOCTYPE svg
PUBLIC "-//W3C//DTD SVG 1.1//EN"
       "http://www.w3.org/Graphics/SVG/1.1/DTD/svg11.dtd">
<svg version="1.1" xmlns="http://www.w3.org/2000/svg" xmlns:xlink="http://www.w3.org/1999/xlink" width="109.095" height="99.6582">
 <g>
  <rect height="99.6582" opacity="0" width="109.095" x="0" y="0"/>
  <path d="M59.2839 99.6094C86.4812 99.6094 109.089 77.002 109.089 49.8047C109.089 22.5586 86.4812 0 59.2839 0C32.0378 0 9.47924 22.5098 9.47924 49.7559L17.78 49.7559C17.78 26.709 36.2371 8.34961 59.2839 8.34961C82.3308 8.34961 100.788 26.7578 100.788 49.8047C100.788 72.8516 82.3308 91.4062 59.2839 91.3086C45.3679 91.2598 33.1609 84.5215 25.6902 74.1211C24.1765 72.1191 21.8816 71.4844 19.8308 72.7051C17.8777 73.9258 17.3406 76.6113 19.0007 78.7598C28.2781 91.2109 42.8289 99.6094 59.2839 99.6094ZM3.47339 40.3809C-0.04224 40.3809-0.921146 42.7734 0.983151 45.5078L11.9207 61.0352C13.532 63.2812 15.8757 63.2324 17.4382 61.0352L28.3757 45.459C30.2312 42.7734 29.3523 40.3809 25.8855 40.3809Z" fill="#000000" fill-opacity="0.85"/>
  <path d="M41.8035 51.5625C41.8035 60.498 47.7605 66.748 55.7195 66.748C59.7722 66.748 63.2878 65.1855 65.4851 62.4023L65.4851 64.3555C65.4851 66.1133 66.7058 67.334 68.4148 67.334C70.1726 67.334 71.3445 66.1133 71.3445 64.3555L71.3445 32.7637L74.4695 32.7637C75.7878 32.7637 76.7156 31.7871 76.7156 30.4688C76.7156 29.1504 75.8367 28.125 74.4695 28.125L71.3445 28.125L71.3445 25.8301C71.3445 23.9258 70.0749 22.7051 68.2683 22.7051C66.4617 22.7051 65.241 23.9258 65.241 25.8301L65.241 28.125L56.3542 28.125C54.9871 28.125 54.0593 29.1504 54.0593 30.4688C54.0593 31.7871 55.0359 32.7637 56.3542 32.7637L65.241 32.7637L65.241 40.5762C63.0925 37.9395 59.6746 36.377 55.6707 36.377C47.7117 36.377 41.8035 42.5781 41.8035 51.5625ZM48.0535 51.6113C48.0535 45.8496 51.6179 42.041 56.7449 42.041C61.7253 42.041 65.3386 46.0938 65.3386 51.6113C65.3386 57.1777 61.7253 61.1816 56.7449 61.1816C51.6179 61.1816 48.0535 57.4219 48.0535 51.6113ZM44.3425 72.3145C44.3425 73.6328 45.3679 74.707 46.6374 74.707L70.4656 74.707C71.8328 74.707 72.8582 73.6328 72.8582 72.3145C72.8582 70.9473 71.8816 69.9707 70.4656 69.9707L46.6374 69.9707C45.3191 69.9707 44.3425 70.9961 44.3425 72.3145Z" fill="#000000" fill-opacity="0.85"/>
 </g>
</svg>
