<?xml version="1.0" encoding="UTF-8"?>
<!--Generator: Apple Native CoreSVG 232.5-->
<!DOCTYPE svg
PUBLIC "-//W3C//DTD SVG 1.1//EN"
       "http://www.w3.org/Graphics/SVG/1.1/DTD/svg11.dtd">
<svg version="1.1" xmlns="http://www.w3.org/2000/svg" xmlns:xlink="http://www.w3.org/1999/xlink" width="65.5273" height="98.291">
 <g>
  <rect height="98.291" opacity="0" width="65.5273" x="0" y="0"/>
  <path d="M25.7812 81.4941C35.4004 81.4941 42.627 77.002 46.1426 69.8242L46.3867 69.8242L46.3867 78.2227C46.3867 80.8594 48.1445 82.5684 50.6836 82.5684C53.1738 82.5684 54.8828 80.8594 54.8828 78.2227L54.8828 4.54102C54.8828 1.70898 53.0762 0 50.4395 0C47.8027 0 45.9473 1.70898 45.9473 4.54102L45.9473 36.4746L45.752 36.4746C42.5781 29.3457 35.4004 24.8535 25.7812 24.8535C11.9141 24.8535 0 35.5469 0 53.1738C0 70.8008 11.9141 81.4941 25.7812 81.4941ZM27.7832 73.5352C17.2363 73.5352 9.22852 65.7227 9.22852 53.1738C9.22852 40.6738 17.2363 32.8613 27.7832 32.8613C37.9883 32.8613 46.0449 41.1621 46.0449 53.1738C46.0449 65.1855 37.9883 73.5352 27.7832 73.5352ZM23.8281 12.6465C23.8281 14.3555 25.1953 15.7715 26.9043 15.7715L62.4512 15.7715C64.1113 15.7715 65.5273 14.3555 65.5273 12.6465C65.5273 10.9863 64.1113 9.57031 62.4512 9.57031L26.9043 9.57031C25.1953 9.57031 23.8281 10.9863 23.8281 12.6465ZM4.73633 91.8945C4.73633 93.6523 6.15234 95.1172 7.91016 95.1172L54.6387 95.1172C56.3965 95.1172 57.8125 93.6523 57.8125 91.8945C57.8125 90.1855 56.3965 88.7207 54.6387 88.7207L7.91016 88.7207C6.15234 88.7207 4.73633 90.1855 4.73633 91.8945Z" fill="#000000" fill-opacity="0.85"/>
 </g>
</svg>
