<?xml version="1.0" encoding="UTF-8"?>
<!--Generator: Apple Native CoreSVG 232.5-->
<!DOCTYPE svg
PUBLIC "-//W3C//DTD SVG 1.1//EN"
       "http://www.w3.org/Graphics/SVG/1.1/DTD/svg11.dtd">
<svg version="1.1" xmlns="http://www.w3.org/2000/svg" xmlns:xlink="http://www.w3.org/1999/xlink" width="89.8926" height="89.9902">
 <g>
  <rect height="89.9902" opacity="0" width="89.8926" x="0" y="0"/>
  <path d="M15.332 89.9902L74.5605 89.9902C84.8145 89.9902 89.8926 84.9121 89.8926 74.8535L89.8926 15.2344C89.8926 5.17578 84.8145 0.0976562 74.5605 0.0976562L15.332 0.0976562C5.12695 0.0976562 0 5.12695 0 15.2344L0 74.8535C0 84.9609 5.12695 89.9902 15.332 89.9902ZM15.4297 82.1289C10.5469 82.1289 7.86133 79.541 7.86133 74.4629L7.86133 15.625C7.86133 10.5469 10.5469 7.95898 15.4297 7.95898L74.4629 7.95898C79.2969 7.95898 82.0312 10.5469 82.0312 15.625L82.0312 74.4629C82.0312 79.541 79.2969 82.1289 74.4629 82.1289Z" fill="#000000" fill-opacity="0.85"/>
  <path d="M27.5391 46.7285C27.5391 55.6641 33.4961 61.9141 41.4551 61.9141C45.459 61.9141 48.9746 60.3516 51.1719 57.5684L51.1719 59.5215C51.1719 61.2793 52.3926 62.5 54.1504 62.5C55.8594 62.5 57.0312 61.2793 57.0312 59.5215L57.0312 27.9297L60.1562 27.9297C61.4746 27.9297 62.4512 26.9531 62.4512 25.6348C62.4512 24.3164 61.5234 23.291 60.1562 23.291L57.0312 23.291L57.0312 20.9961C57.0312 19.0918 55.8105 17.8711 54.0039 17.8711C52.1484 17.8711 50.9277 19.0918 50.9277 20.9961L50.9277 23.291L42.041 23.291C40.6738 23.291 39.7949 24.3164 39.7949 25.6348C39.7949 26.9531 40.7227 27.9297 42.041 27.9297L50.9277 27.9297L50.9277 35.7422C48.8281 33.1055 45.4102 31.543 41.4062 31.543C33.4473 31.543 27.5391 37.7441 27.5391 46.7285ZM33.7891 46.7773C33.7891 41.0156 37.3047 37.207 42.4805 37.207C47.4609 37.207 51.0742 41.2598 51.0742 46.7773C51.0742 52.3438 47.4609 56.3477 42.4805 56.3477C37.3047 56.3477 33.7891 52.5879 33.7891 46.7773ZM30.0293 67.4805C30.0293 68.7988 31.0547 69.873 32.373 69.873L56.2012 69.873C57.5195 69.873 58.5449 68.7988 58.5449 67.4805C58.5449 66.1133 57.5684 65.1367 56.2012 65.1367L32.373 65.1367C31.0059 65.1367 30.0293 66.1621 30.0293 67.4805Z" fill="#000000" fill-opacity="0.85"/>
 </g>
</svg>
