<?xml version="1.0" encoding="UTF-8"?>
<!--Generator: Apple Native CoreSVG 232.5-->
<!DOCTYPE svg
PUBLIC "-//W3C//DTD SVG 1.1//EN"
       "http://www.w3.org/Graphics/SVG/1.1/DTD/svg11.dtd">
<svg version="1.1" xmlns="http://www.w3.org/2000/svg" xmlns:xlink="http://www.w3.org/1999/xlink" width="119.385" height="103.662">
 <g>
  <rect height="103.662" opacity="0" width="119.385" x="0" y="0"/>
  <path d="M115.43 103.613C117.627 103.613 119.385 101.855 119.385 99.707L119.385 9.96094C119.385 4.00391 115.283 0 109.131 0L10.2051 0C4.10156 0 0 4.00391 0 9.96094L0 99.707C0 101.855 1.75781 103.613 3.90625 103.613C6.10352 103.613 7.86133 101.855 7.86133 99.707L7.86133 10.4492C7.86133 8.88672 8.88672 7.86133 10.3516 7.86133L109.033 7.86133C110.498 7.86133 111.523 8.88672 111.523 10.4492L111.523 99.707C111.523 101.855 113.281 103.613 115.43 103.613Z" fill="#000000" fill-opacity="0.85"/>
  <path d="M104.15 101.904C105.078 101.904 105.811 101.123 105.811 100.244L105.811 15.1855C105.811 14.2578 105.078 13.5254 104.15 13.5254L64.1602 13.5254C63.2812 13.5254 62.5488 14.2578 62.5488 15.1855L62.5488 100.244C62.5488 101.123 63.2812 101.904 64.1602 101.904ZM94.7754 65.3809C93.3594 65.3809 92.3828 64.4043 92.3828 62.9883L92.3828 54.4434C92.3828 53.0273 93.3594 52.0996 94.7754 52.0996C96.1426 52.0996 97.1191 53.0273 97.1191 54.4434L97.1191 62.9883C97.1191 64.4043 96.1426 65.3809 94.7754 65.3809ZM55.1758 101.904C56.1035 101.904 56.8359 101.123 56.8359 100.244L56.8359 15.1855C56.8359 14.2578 56.1035 13.5254 55.1758 13.5254L15.2344 13.5254C14.3066 13.5254 13.5742 14.2578 13.5742 15.1855L13.5742 100.244C13.5742 101.123 14.3066 101.904 15.2344 101.904Z" fill="#000000" fill-opacity="0.85"/>
 </g>
</svg>
