<?xml version="1.0" encoding="UTF-8"?>
<!--Generator: Apple Native CoreSVG 232.5-->
<!DOCTYPE svg
PUBLIC "-//W3C//DTD SVG 1.1//EN"
       "http://www.w3.org/Graphics/SVG/1.1/DTD/svg11.dtd">
<svg version="1.1" xmlns="http://www.w3.org/2000/svg" xmlns:xlink="http://www.w3.org/1999/xlink" width="74.4141" height="103.662">
 <g>
  <rect height="103.662" opacity="0" width="74.4141" x="0" y="0"/>
  <path d="M3.90625 103.613C6.10352 103.613 7.86133 101.855 7.86133 99.707L7.86133 10.4492C7.86133 8.88672 8.88672 7.86133 10.3516 7.86133L64.0625 7.86133C65.5273 7.86133 66.5527 8.88672 66.5527 10.4492L66.5527 99.707C66.5527 101.855 68.3105 103.613 70.5078 103.613C72.6562 103.613 74.4141 101.855 74.4141 99.707L74.4141 9.96094C74.4141 4.00391 70.3613 0 64.209 0L10.2051 0C4.10156 0 0 4.00391 0 9.96094L0 99.707C0 101.855 1.75781 103.613 3.90625 103.613Z" fill="#000000" fill-opacity="0.85"/>
  <path d="M15.2344 101.904L59.2285 101.904C60.1074 101.904 60.8398 101.123 60.8398 100.244L60.8398 15.1855C60.8398 14.2578 60.1074 13.5254 59.2285 13.5254L15.2344 13.5254C14.3066 13.5254 13.5742 14.2578 13.5742 15.1855L13.5742 100.244C13.5742 101.123 14.3066 101.904 15.2344 101.904ZM49.2188 62.6465C47.0703 62.6465 45.3125 60.8887 45.3125 58.7402C45.3125 56.543 47.0703 54.834 49.2188 54.834C51.416 54.834 53.125 56.543 53.125 58.7402C53.125 60.8887 51.416 62.6465 49.2188 62.6465Z" fill="#000000" fill-opacity="0.85"/>
 </g>
</svg>
