<?xml version="1.0" encoding="UTF-8"?>
<!--Generator: Apple Native CoreSVG 232.5-->
<!DOCTYPE svg
PUBLIC "-//W3C//DTD SVG 1.1//EN"
       "http://www.w3.org/Graphics/SVG/1.1/DTD/svg11.dtd">
<svg version="1.1" xmlns="http://www.w3.org/2000/svg" xmlns:xlink="http://www.w3.org/1999/xlink" width="74.4141" height="103.662">
 <g>
  <rect height="103.662" opacity="0" width="74.4141" x="0" y="0"/>
  <path d="M0 99.707C0 101.855 1.75781 103.613 3.90625 103.613C6.10352 103.613 7.86133 101.855 7.86133 99.707L7.86133 10.4492C7.86133 8.88672 8.88672 7.86133 10.3516 7.86133L64.0625 7.86133C65.5273 7.86133 66.5527 8.88672 66.5527 10.4492L66.5527 99.707C66.5527 101.855 68.3105 103.613 70.5078 103.613C72.6562 103.613 74.4141 101.855 74.4141 99.707L74.4141 9.96094C74.4141 4.00391 70.3613 0 64.209 0L10.2051 0C4.10156 0 0 4.00391 0 9.96094Z" fill="#000000" fill-opacity="0.85"/>
  <path d="M13.5742 100.83C13.5742 101.758 14.3555 102.246 15.2832 101.855L30.6152 95.0684C31.8359 94.5312 32.3242 94.1406 32.3242 92.8711L32.3242 22.5098C32.3242 21.2891 31.8359 20.8496 30.6641 20.3613L15.2832 13.5254C14.3555 13.1348 13.5742 13.623 13.5742 14.5996Z" fill="#000000" fill-opacity="0.85"/>
 </g>
</svg>
