<?xml version="1.0" encoding="UTF-8"?>
<!--Generator: Apple Native CoreSVG 232.5-->
<!DOCTYPE svg
PUBLIC "-//W3C//DTD SVG 1.1//EN"
       "http://www.w3.org/Graphics/SVG/1.1/DTD/svg11.dtd">
<svg version="1.1" xmlns="http://www.w3.org/2000/svg" xmlns:xlink="http://www.w3.org/1999/xlink" width="73.7305" height="74.2676">
 <g>
  <rect height="74.2676" opacity="0" width="73.7305" x="0" y="0"/>
  <path d="M0.732422 3.90625C0.732422 6.05469 2.53906 7.86133 4.6875 7.86133C38.4277 7.86133 65.8691 35.3027 65.8691 69.043C65.8691 71.1914 67.6758 72.998 69.8242 72.998C71.9727 72.998 73.7305 71.1914 73.7305 69.043C73.7305 31.0059 42.7246 0 4.6875 0C2.53906 0 0.732422 1.75781 0.732422 3.90625Z" fill="#000000" fill-opacity="0.85"/>
  <path d="M0.732422 24.5605C0.732422 26.709 2.53906 28.4668 4.6875 28.4668C27.0996 28.4668 45.2637 46.6309 45.2637 69.043C45.2637 71.1914 47.0215 72.998 49.1699 72.998C51.3184 72.998 53.125 71.1914 53.125 69.043C53.125 42.334 31.3965 20.6055 4.6875 20.6055C2.53906 20.6055 0.732422 22.4121 0.732422 24.5605Z" fill="#000000" fill-opacity="0.85"/>
  <path d="M0.732422 43.9453C0.732422 46.0938 2.53906 47.8516 4.6875 47.8516C16.3574 47.8516 25.8789 57.373 25.8789 69.043C25.8789 71.1914 27.6367 72.998 29.7852 72.998C31.9336 72.998 33.7402 71.1914 33.7402 69.043C33.7402 53.0273 20.6543 39.9902 4.6875 39.9902C2.53906 39.9902 0.732422 41.7969 0.732422 43.9453Z" fill="#000000" fill-opacity="0.85"/>
  <path d="M6.98242 73.7305C10.791 73.7305 13.8672 70.6055 13.8672 66.8457C13.8672 62.9883 10.8398 59.9121 6.98242 59.9121C3.17383 59.9121 0 63.1348 0 66.9922C0 70.6055 3.27148 73.7305 6.98242 73.7305Z" fill="#000000" fill-opacity="0.85"/>
 </g>
</svg>
