<?xml version="1.0" encoding="UTF-8"?>
<!--Generator: Apple Native CoreSVG 232.5-->
<!DOCTYPE svg
PUBLIC "-//W3C//DTD SVG 1.1//EN"
       "http://www.w3.org/Graphics/SVG/1.1/DTD/svg11.dtd">
<svg version="1.1" xmlns="http://www.w3.org/2000/svg" xmlns:xlink="http://www.w3.org/1999/xlink" width="116.406" height="101.807">
 <g>
  <rect height="101.807" opacity="0" width="116.406" x="0" y="0"/>
  <path d="M11.2305 84.4727L105.127 84.4727C112.158 84.4727 116.406 80.2246 116.406 73.1934L116.406 14.6484C116.406 7.61719 112.158 3.41797 105.127 3.41797L11.2305 3.41797C4.24805 3.41797 0 7.61719 0 14.6484L0 73.1934C0 80.2246 4.24805 84.4727 11.2305 84.4727ZM11.377 76.6113C9.22852 76.6113 7.86133 75.2441 7.86133 73.0957L7.86133 14.7949C7.86133 12.5977 9.22852 11.2793 11.377 11.2793L105.029 11.2793C107.178 11.2793 108.545 12.5977 108.545 14.7949L108.545 73.0957C108.545 75.2441 107.178 76.6113 105.029 76.6113ZM42.7734 96.0938L73.6328 96.0938L73.6328 83.8379L42.7734 83.8379ZM42.4805 101.807L73.9258 101.807C76.0742 101.807 77.832 100.049 77.832 97.8516C77.832 95.6543 76.0742 93.8965 73.9258 93.8965L42.4805 93.8965C40.332 93.8965 38.5254 95.6543 38.5254 97.8516C38.5254 100.049 40.332 101.807 42.4805 101.807Z" fill="#000000" fill-opacity="0.85"/>
  <path d="M58.2031 63.8672C69.2383 63.8672 78.1738 54.9316 78.1738 43.9453C78.1738 32.9102 69.2383 23.9258 58.2031 23.9258C47.2168 23.9258 38.2324 32.9102 38.2324 43.9453C38.2324 54.9316 47.2168 63.8672 58.2031 63.8672ZM58.2031 59.375C49.6094 59.375 42.9199 52.6367 42.9199 43.9453C42.9199 35.2051 49.6094 28.418 58.2031 28.418C66.7969 28.418 73.5352 35.2051 73.5352 43.9453C73.5352 52.6367 66.8457 59.375 58.2031 59.375ZM58.2031 18.8477C57.0312 18.8477 56.1035 19.8242 56.1035 20.9473L56.1035 32.8613C56.1035 34.082 57.0312 34.9609 58.2031 34.9609C59.375 34.9609 60.2539 34.0332 60.2539 32.8613L60.2539 20.9473C60.2539 19.8242 59.4238 18.8477 58.2031 18.8477ZM69.2383 45.9961L81.1523 45.9961C82.2754 45.9961 83.252 45.0684 83.252 43.9453C83.252 42.7246 82.2754 41.8457 81.1523 41.8457L69.2383 41.8457C68.1152 41.8457 67.1387 42.6758 67.1387 43.9453C67.1387 45.0684 68.1152 45.9961 69.2383 45.9961ZM58.2031 68.9453C59.375 68.9453 60.3027 68.0176 60.3027 66.7969L60.3027 54.9316C60.3027 53.7598 59.4238 52.832 58.2031 52.832C57.0801 52.832 56.1523 53.7598 56.1523 54.9316L56.1523 66.7969C56.1523 68.0664 57.0801 68.9453 58.2031 68.9453ZM35.3027 45.9961L47.2168 45.9961C48.3398 45.9961 49.2676 45.0684 49.2676 43.9453C49.2676 42.6758 48.3398 41.8457 47.2168 41.8457L35.3027 41.8457C34.1309 41.8457 33.2031 42.7246 33.2031 43.9453C33.2031 45.0684 34.082 45.9961 35.3027 45.9961ZM58.252 47.168C60.0586 47.168 61.4746 45.7031 61.4746 43.8965C61.4746 42.0898 60.0586 40.625 58.252 40.625C56.3965 40.625 54.9316 42.0898 54.9316 43.8965C54.9316 45.7031 56.3965 47.168 58.252 47.168Z" fill="#000000" fill-opacity="0.85"/>
 </g>
</svg>
