<?xml version="1.0" encoding="UTF-8"?>
<!--Generator: Apple Native CoreSVG 232.5-->
<!DOCTYPE svg
PUBLIC "-//W3C//DTD SVG 1.1//EN"
       "http://www.w3.org/Graphics/SVG/1.1/DTD/svg11.dtd">
<svg version="1.1" xmlns="http://www.w3.org/2000/svg" xmlns:xlink="http://www.w3.org/1999/xlink" width="145.67" height="120.894">
 <g>
  <rect height="120.894" opacity="0" width="145.67" x="0" y="0"/>
  <path d="M108.284 55.0026L108.229 56.072C108.164 56.1024 108.102 56.1381 108.04 56.1744C105.608 54.6908 102.794 54.2159 99.9196 54.7027C99.773 31.7938 81.4734 13.4987 58.4306 13.4987C35.3349 13.4987 17.0244 31.9557 17.0244 55.0026C17.0244 78.0494 35.4326 96.5065 58.4794 96.5065C63.7607 96.5065 68.8024 95.5332 73.4165 93.7149L78.7426 100.367C72.5448 103.229 65.6726 104.807 58.4794 104.807C31.2334 104.807 8.67476 82.2487 8.67476 55.0026C8.67476 27.7565 31.1845 5.19787 58.4794 5.19787C85.7255 5.19787 108.284 27.7565 108.284 55.0026Z" fill="#000000" fill-opacity="0.85"/>
  <path d="M73.5185 54.9537C73.5185 63.2545 66.7314 69.9928 58.5283 69.9928C50.2763 69.9928 43.4892 63.2545 43.4892 54.9537C43.4892 46.7506 50.2763 40.0123 58.5283 40.0123C66.7314 40.0123 73.5185 46.7506 73.5185 54.9537Z" fill="#000000" fill-opacity="0.85"/>
  <path d="M121.712 112.327C137.483 106.614 142.61 93.6256 136.556 76.7311L134.065 69.7487C131.819 63.401 127.278 60.6178 123.811 61.8385C123.03 62.1803 122.786 62.7174 123.03 63.4987L124.153 66.5748C124.69 68.0397 124.153 69.0162 123.323 69.358C122.347 69.651 121.37 69.2115 120.833 67.7467L120.052 65.6959C118.733 61.985 115.462 60.4225 112.19 61.5944C110.726 62.1315 110.237 62.9615 110.726 64.2311L112.288 68.4303C112.825 69.8463 112.337 70.8717 111.507 71.1647C110.481 71.5065 109.505 71.067 108.968 69.651L107.552 65.7447C106.038 61.4967 102.815 60.4225 99.6904 61.5455C98.3232 62.0826 97.8349 63.0104 98.2744 64.1822L101.204 72.4342C101.741 73.9479 101.253 74.8756 100.423 75.2174C99.4951 75.5592 98.4697 75.1197 97.9326 73.6061L87.9716 46.1647C86.9462 43.4303 84.5537 42.3072 82.3076 43.1373C79.8662 44.0651 78.7919 46.4088 79.7685 49.0944L94.4658 89.3776C94.8076 90.3541 94.3681 91.1354 93.7334 91.3307C93.1474 91.5748 92.5126 91.3795 91.6826 90.5494L81.8193 79.9049C80.3056 78.2936 78.7919 77.9518 77.1806 78.5377C74.6904 79.4654 73.7626 81.7604 74.4951 83.8112C74.7392 84.5924 75.1787 85.276 75.6181 85.7643L87.8251 101.096C98.2255 114.036 110.14 116.575 121.712 112.327Z" fill="#000000" fill-opacity="0.85"/>
 </g>
</svg>
