<?xml version="1.0" encoding="UTF-8"?>
<!--Generator: Apple Native CoreSVG 232.5-->
<!DOCTYPE svg
PUBLIC "-//W3C//DTD SVG 1.1//EN"
       "http://www.w3.org/Graphics/SVG/1.1/DTD/svg11.dtd">
<svg version="1.1" xmlns="http://www.w3.org/2000/svg" xmlns:xlink="http://www.w3.org/1999/xlink" width="79.541" height="95.728">
 <g>
  <rect height="95.728" opacity="0" width="79.541" x="0" y="0"/>
  <path d="M55.2246 94.4216C56.7383 96.0818 59.375 96.2771 61.2305 94.324C72.8516 82.1658 79.541 65.8572 79.541 48.0349C79.541 30.2126 72.9492 13.7576 61.2305 1.69702C59.375-0.2561 56.7383-0.0607879 55.2246 1.59937C53.7109 3.30835 54.0527 5.70093 55.8105 7.5564C66.0156 18.0544 71.582 32.3611 71.582 48.0349C71.582 63.7087 65.918 77.8689 55.8105 88.4646C54.0527 90.3201 53.7109 92.7615 55.2246 94.4216Z" fill="#000000" fill-opacity="0.85"/>
  <path d="M41.1133 81.4334C42.6758 83.24 45.4102 83.24 47.3145 81.1892C55.4199 72.4001 59.9609 60.6814 59.9609 48.0349C59.9609 35.3884 55.4688 23.6209 47.3145 14.8806C45.4102 12.781 42.6758 12.781 41.1133 14.6365C39.5508 16.3943 40.0391 18.6892 41.7969 20.6912C48.3887 27.9177 52.002 37.488 52.002 48.0349C52.002 58.533 48.3398 68.1033 41.7969 75.3787C40.0391 77.3806 39.5508 79.6267 41.1133 81.4334Z" fill="#000000" fill-opacity="0.85"/>
  <path d="M27.4414 67.5173C29.0527 69.324 31.9824 69.3728 33.6914 67.1755C37.9395 61.9021 40.4297 55.2126 40.4297 48.0349C40.4297 40.8572 37.9395 34.1189 33.6914 28.8943C31.9824 26.6482 29.0527 26.697 27.4414 28.5525C25.8789 30.3103 26.5625 32.4587 28.0762 34.6072C30.957 38.2693 32.4707 42.9568 32.4707 48.0349C32.4707 53.113 31.0059 57.8005 28.0762 61.4626C26.5137 63.5623 25.8789 65.7595 27.4414 67.5173Z" fill="#000000" fill-opacity="0.85"/>
  <path d="M0 47.9373C0 52.6736 4.10156 56.6775 8.93555 56.6775C13.7695 56.6775 17.7734 52.6736 17.7734 47.8396C17.7734 42.9568 13.8672 38.9529 8.93555 38.9529C4.05273 38.9529 0 43.0544 0 47.9373Z" fill="#000000" fill-opacity="0.85"/>
 </g>
</svg>
