<?xml version="1.0" encoding="UTF-8"?>
<!--Generator: Apple Native CoreSVG 232.5-->
<!DOCTYPE svg
PUBLIC "-//W3C//DTD SVG 1.1//EN"
       "http://www.w3.org/Graphics/SVG/1.1/DTD/svg11.dtd">
<svg version="1.1" xmlns="http://www.w3.org/2000/svg" xmlns:xlink="http://www.w3.org/1999/xlink" width="106.738" height="106.787">
 <g>
  <rect height="106.787" opacity="0" width="106.738" x="0" y="0"/>
  <path d="M72.6074 84.1797C72.6074 78.9062 71.9727 77.1973 68.6035 73.8281L59.1309 64.3066C55.7129 60.9375 51.0254 60.9375 47.6074 64.3066L38.1348 73.8281C34.7656 77.1973 34.1797 78.9062 34.1797 84.1797L34.1797 96.4844C34.1797 102.734 37.793 106.689 43.3594 106.689L63.4277 106.689C68.9941 106.689 72.6074 102.734 72.6074 96.4844ZM65.625 84.1797L65.625 96.2891C65.625 98.4863 64.3066 99.7559 62.0605 99.7559L44.6777 99.7559C42.4316 99.7559 41.1621 98.4863 41.1621 96.2891L41.1621 84.1797C41.1621 81.6406 41.4551 80.3711 43.1152 78.7598L52.2949 69.5801C53.0273 68.7988 53.7598 68.8477 54.4922 69.5801L63.6719 78.7598C65.2832 80.3711 65.625 81.6406 65.625 84.1797Z" fill="#000000" fill-opacity="0.85"/>
  <path d="M84.2285 34.1797C78.9062 34.1797 77.1973 34.7656 73.8281 38.1348L64.3555 47.6074C60.9375 51.0254 60.9375 55.7129 64.3555 59.1309L73.8281 68.6035C77.1973 71.9727 78.9062 72.6074 84.2285 72.6074L96.4844 72.6074C102.734 72.6074 106.738 68.9941 106.738 63.4277L106.738 43.3105C106.738 37.793 102.734 34.1797 96.4844 34.1797Z" fill="#000000" fill-opacity="0.85"/>
  <path d="M22.5098 72.5586C27.832 72.5586 29.541 71.9727 32.9102 68.6035L42.3828 59.1309C45.8008 55.7129 45.8008 51.0254 42.3828 47.6074L32.9102 38.1348C29.541 34.7656 27.832 34.1309 22.5098 34.1309L10.2539 34.1309C4.00391 34.1309 0 37.7441 0 43.3105L0 63.4277C0 68.9453 4.00391 72.5586 10.2539 72.5586ZM22.5098 65.5762L10.4492 65.5762C8.20312 65.5762 6.93359 64.3066 6.93359 62.0605L6.93359 44.6777C6.93359 42.4316 8.20312 41.1133 10.4492 41.1133L22.5098 41.1133C25.0488 41.1133 26.3184 41.4551 27.9785 43.1152L37.1582 52.2461C37.8906 53.0273 37.8418 53.7598 37.1094 54.4922L27.9785 63.623C26.3184 65.2832 25.0488 65.5762 22.5098 65.5762Z" fill="#000000" fill-opacity="0.85"/>
  <path d="M34.1797 22.5586C34.1797 27.832 34.8145 29.541 38.1836 32.9102L47.6562 42.3828C51.0742 45.8008 55.7617 45.8008 59.1797 42.3828L68.6523 32.9102C72.0215 29.541 72.6074 27.832 72.6074 22.5586L72.6074 10.2539C72.6074 4.00391 68.9941 0 63.4277 0L43.3594 0C37.793 0 34.1797 4.00391 34.1797 10.2539ZM41.1621 22.5586L41.1621 10.4492C41.1621 8.25195 42.4805 6.93359 44.7266 6.93359L62.1094 6.93359C64.3555 6.93359 65.625 8.25195 65.625 10.4492L65.625 22.5586C65.625 25.0488 65.332 26.3184 63.6719 27.9785L54.4922 37.1582C53.7598 37.8906 53.0273 37.8906 52.2949 37.1582L43.1641 27.9785C41.5039 26.3184 41.1621 25.0488 41.1621 22.5586Z" fill="#000000" fill-opacity="0.85"/>
 </g>
</svg>
