<?xml version="1.0" encoding="UTF-8"?>
<!--Generator: Apple Native CoreSVG 232.5-->
<!DOCTYPE svg
PUBLIC "-//W3C//DTD SVG 1.1//EN"
       "http://www.w3.org/Graphics/SVG/1.1/DTD/svg11.dtd">
<svg version="1.1" xmlns="http://www.w3.org/2000/svg" xmlns:xlink="http://www.w3.org/1999/xlink" width="106.738" height="106.787">
 <g>
  <rect height="106.787" opacity="0" width="106.738" x="0" y="0"/>
  <path d="M22.5098 72.5586C27.832 72.5586 29.541 71.9727 32.9102 68.6035L42.3828 59.1309C45.8008 55.7129 45.8008 51.0254 42.3828 47.6074L32.9102 38.1348C29.541 34.7656 27.832 34.1309 22.5098 34.1309L10.2539 34.1309C4.00391 34.1309 0 37.7441 0 43.3105L0 63.4277C0 68.9453 4.00391 72.5586 10.2539 72.5586ZM34.1797 22.5586C34.1797 27.832 34.8145 29.541 38.1836 32.9102L47.6562 42.3828C51.0742 45.8008 55.7617 45.8008 59.1797 42.3828L68.6523 32.9102C72.0215 29.541 72.6074 27.832 72.6074 22.5586L72.6074 10.2539C72.6074 4.00391 68.9941 0 63.4277 0L43.3594 0C37.793 0 34.1797 4.00391 34.1797 10.2539ZM84.2285 34.1797C78.9062 34.1797 77.1973 34.7656 73.8281 38.1348L64.3555 47.6074C60.9375 51.0254 60.9375 55.7129 64.3555 59.1309L73.8281 68.6035C77.1973 71.9727 78.9062 72.6074 84.2285 72.6074L96.4844 72.6074C102.734 72.6074 106.738 68.9941 106.738 63.4277L106.738 43.3105C106.738 37.793 102.734 34.1797 96.4844 34.1797ZM72.6074 84.1797C72.6074 78.9062 71.9727 77.1973 68.6035 73.8281L59.1309 64.3066C55.7129 60.9375 51.0254 60.9375 47.6074 64.3066L38.1348 73.8281C34.7656 77.1973 34.1797 78.9062 34.1797 84.1797L34.1797 96.4844C34.1797 102.734 37.793 106.689 43.3594 106.689L63.4277 106.689C68.9941 106.689 72.6074 102.734 72.6074 96.4844Z" fill="#000000" fill-opacity="0.85"/>
 </g>
</svg>
