<?xml version="1.0" encoding="UTF-8"?>
<!--Generator: Apple Native CoreSVG 232.5-->
<!DOCTYPE svg
PUBLIC "-//W3C//DTD SVG 1.1//EN"
       "http://www.w3.org/Graphics/SVG/1.1/DTD/svg11.dtd">
<svg version="1.1" xmlns="http://www.w3.org/2000/svg" xmlns:xlink="http://www.w3.org/1999/xlink" width="102.344" height="93.3105">
 <g>
  <rect height="93.3105" opacity="0" width="102.344" x="0" y="0"/>
  <path d="M13.3301 92.7734L89.0137 92.7734C97.3145 92.7734 102.344 87.0117 102.344 79.541C102.344 77.2461 101.66 74.8535 100.439 72.7051L62.5488 6.68945C60.0098 2.24609 55.6641 0 51.1719 0C46.6797 0 42.2852 2.24609 39.7949 6.68945L1.9043 72.7051C0.585938 74.9023 0 77.2461 0 79.541C0 87.0117 5.0293 92.7734 13.3301 92.7734ZM13.3789 85.1074C9.96094 85.1074 7.91016 82.4707 7.91016 79.4922C7.91016 78.5645 8.10547 77.3926 8.64258 76.3672L46.4844 10.4004C47.5098 8.59375 49.3652 7.8125 51.1719 7.8125C52.9785 7.8125 54.7852 8.59375 55.8105 10.4004L93.6523 76.416C94.1895 77.4414 94.4336 78.5645 94.4336 79.4922C94.4336 82.4707 92.2852 85.1074 88.916 85.1074Z" fill="#000000" fill-opacity="0.85"/>
  <path d="M51.2207 73.9258C59.4238 73.9258 64.8926 68.6035 64.8926 60.6445C64.8926 56.6895 63.2812 53.1738 62.0605 50.5371C59.8633 45.8008 56.2988 39.9902 53.2715 35.2539C52.6367 34.375 52.002 33.9355 51.2207 33.9355C50.3906 33.9355 49.7559 34.375 49.1699 35.2539C46.0938 39.9902 42.5293 45.8008 40.332 50.5371C39.1113 53.1738 37.5 56.6895 37.5 60.6445C37.5 68.6035 42.9688 73.9258 51.2207 73.9258Z" fill="#000000" fill-opacity="0.85"/>
 </g>
</svg>
