<?xml version="1.0" encoding="UTF-8"?>
<!--Generator: Apple Native CoreSVG 232.5-->
<!DOCTYPE svg
PUBLIC "-//W3C//DTD SVG 1.1//EN"
       "http://www.w3.org/Graphics/SVG/1.1/DTD/svg11.dtd">
<svg version="1.1" xmlns="http://www.w3.org/2000/svg" xmlns:xlink="http://www.w3.org/1999/xlink" width="102.344" height="93.3105">
 <g>
  <rect height="93.3105" opacity="0" width="102.344" x="0" y="0"/>
  <path d="M62.5488 6.68945L100.439 72.7051C101.66 74.8535 102.344 77.2461 102.344 79.541C102.344 87.0117 97.3145 92.7734 89.0137 92.7734L13.3301 92.7734C5.0293 92.7734 0 87.0117 0 79.541C0 77.2461 0.585938 74.9023 1.9043 72.7051L39.7949 6.68945C42.2852 2.24609 46.6797 0 51.1719 0C55.6641 0 60.0098 2.24609 62.5488 6.68945ZM49.0723 34.668C45.9473 39.5508 42.2363 45.5566 39.9902 50.4395C38.7207 53.125 37.0117 56.7871 37.0117 60.8398C37.0117 69.043 42.7246 74.5605 51.1719 74.5605C59.668 74.5605 65.332 69.043 65.332 60.8398C65.332 56.7871 63.623 53.125 62.3535 50.4395C60.1562 45.5566 56.4453 39.5508 53.2715 34.668C52.6855 33.7402 52.0508 33.3008 51.1719 33.3008C50.3418 33.3008 49.6582 33.7402 49.0723 34.668Z" fill="#000000" fill-opacity="0.85"/>
 </g>
</svg>
