<?xml version="1.0" encoding="UTF-8"?>
<!--Generator: Apple Native CoreSVG 232.5-->
<!DOCTYPE svg
PUBLIC "-//W3C//DTD SVG 1.1//EN"
       "http://www.w3.org/Graphics/SVG/1.1/DTD/svg11.dtd">
<svg version="1.1" xmlns="http://www.w3.org/2000/svg" xmlns:xlink="http://www.w3.org/1999/xlink" width="67.6758" height="98.9746">
 <g>
  <rect height="98.9746" opacity="0" width="67.6758" x="0" y="0"/>
  <path d="M34.4727 92.0898C58.2031 92.0898 62.9395 69.7266 61.9141 58.6914C57.5684 61.7188 52.8809 66.9434 44.043 66.9434C30.8594 66.9434 26.8066 56.8359 12.9883 56.8359C11.0352 56.8359 9.0332 57.0801 6.68945 57.7148C3.75977 72.6562 10.6934 92.0898 34.4727 92.0898ZM33.8379 98.877C54.1504 98.877 67.6758 85.6445 67.6758 65.8203C67.6758 56.0547 63.8672 46.3379 60.9863 39.8438C55.7617 28.0762 47.5586 15.1367 40.4297 4.10156C38.7207 1.51367 36.7188 0 33.8379 0C30.957 0 28.9551 1.51367 27.2461 4.10156C20.1172 15.1367 11.9141 28.0762 6.68945 39.8438C3.85742 46.3379 0 56.0547 0 65.8203C0 85.6445 13.5254 98.877 33.8379 98.877ZM33.8379 90.8691C18.3105 90.8691 8.00781 80.8594 8.00781 65.8203C8.00781 57.8125 11.084 50.0488 13.8184 43.7012C19.2871 30.8594 26.5137 20.3125 33.3496 10.0098C33.6914 9.52148 34.082 9.52148 34.375 10.0098C41.1621 20.3125 48.4375 30.8594 53.8086 43.6523C56.5918 50.0488 59.7168 57.8125 59.7168 65.8203C59.7168 80.8594 49.3652 90.8691 33.8379 90.8691Z" fill="#000000" fill-opacity="0.85"/>
 </g>
</svg>
