<?xml version="1.0" encoding="UTF-8"?>
<!--Generator: Apple Native CoreSVG 232.5-->
<!DOCTYPE svg
PUBLIC "-//W3C//DTD SVG 1.1//EN"
       "http://www.w3.org/Graphics/SVG/1.1/DTD/svg11.dtd">
<svg version="1.1" xmlns="http://www.w3.org/2000/svg" xmlns:xlink="http://www.w3.org/1999/xlink" width="107.324" height="79.248">
 <g>
  <rect height="79.248" opacity="0" width="107.324" x="0" y="0"/>
  <path d="M15.332 79.248L92.041 79.248C102.246 79.248 107.324 74.1699 107.324 64.1113L107.324 15.2344C107.324 5.17578 102.246 0.0976562 92.041 0.0976562L15.332 0.0976562C5.12695 0.0976562 0 5.17578 0 15.2344L0 64.1113C0 74.1699 5.12695 79.248 15.332 79.248ZM15.4297 71.3867C10.5469 71.3867 7.86133 68.75 7.86133 63.6719L7.86133 15.6738C7.86133 10.5957 10.5469 7.95898 15.4297 7.95898L91.8945 7.95898C96.7285 7.95898 99.4629 10.5957 99.4629 15.6738L99.4629 63.6719C99.4629 68.75 96.7285 71.3867 91.8945 71.3867Z" fill="#000000" fill-opacity="0.85"/>
  <path d="M35.4004 61.1816C44.2871 61.1816 50.1953 55.4199 50.1953 46.875C50.1953 42.5293 48.4375 38.8184 47.1191 35.8887C44.7754 30.8594 40.9668 24.5605 37.6465 19.4336C36.9629 18.4082 36.2793 18.0176 35.4004 18.0176C34.5215 18.0176 33.8379 18.4082 33.1543 19.4336C29.8828 24.5605 26.0742 30.8594 23.6816 35.8887C22.3633 38.8184 20.5566 42.5293 20.5566 46.875C20.5566 55.4199 26.5625 61.1816 35.4004 61.1816ZM65.8691 30.2246C68.9941 30.2246 71.582 27.6367 71.582 24.5117C71.582 21.3867 68.9941 18.7988 65.8691 18.7988C62.6953 18.7988 60.1562 21.3867 60.1562 24.5117C60.1562 27.6367 62.6953 30.2246 65.8691 30.2246ZM82.666 30.2246C85.791 30.2246 88.3789 27.6367 88.3789 24.5117C88.3789 21.3867 85.791 18.7988 82.666 18.7988C79.541 18.7988 76.9531 21.3867 76.9531 24.5117C76.9531 27.6367 79.541 30.2246 82.666 30.2246ZM65.8691 45.3125C68.9941 45.3125 71.582 42.7246 71.582 39.5996C71.582 36.4746 68.9941 33.8867 65.8691 33.8867C62.6953 33.8867 60.1562 36.4746 60.1562 39.5996C60.1562 42.7246 62.6953 45.3125 65.8691 45.3125ZM82.666 45.3125C85.791 45.3125 88.3789 42.7246 88.3789 39.5996C88.3789 36.4746 85.791 33.8867 82.666 33.8867C79.541 33.8867 76.9531 36.4746 76.9531 39.5996C76.9531 42.7246 79.541 45.3125 82.666 45.3125ZM65.8691 60.4004C68.9941 60.4004 71.582 57.8125 71.582 54.6875C71.582 51.5625 68.9941 48.9746 65.8691 48.9746C62.6953 48.9746 60.1562 51.5625 60.1562 54.6875C60.1562 57.8125 62.6953 60.4004 65.8691 60.4004ZM82.666 60.4004C85.791 60.4004 88.3789 57.8125 88.3789 54.6875C88.3789 51.5625 85.791 48.9746 82.666 48.9746C79.541 48.9746 76.9531 51.5625 76.9531 54.6875C76.9531 57.8125 79.541 60.4004 82.666 60.4004Z" fill="#000000" fill-opacity="0.85"/>
 </g>
</svg>
