<?xml version="1.0" encoding="UTF-8"?>
<!--Generator: Apple Native CoreSVG 232.5-->
<!DOCTYPE svg
PUBLIC "-//W3C//DTD SVG 1.1//EN"
       "http://www.w3.org/Graphics/SVG/1.1/DTD/svg11.dtd">
<svg version="1.1" xmlns="http://www.w3.org/2000/svg" xmlns:xlink="http://www.w3.org/1999/xlink" width="99.6094" height="99.6582">
 <g>
  <rect height="99.6582" opacity="0" width="99.6094" x="0" y="0"/>
  <path d="M99.6094 49.8047C99.6094 77.002 77.0508 99.6094 49.8047 99.6094C22.6074 99.6094 0 77.002 0 49.8047C0 22.5586 22.5586 0 49.7559 0C77.002 0 99.6094 22.5586 99.6094 49.8047ZM47.2168 25.7324C43.3105 31.6406 38.8672 39.0625 36.084 44.9707C34.6191 48.3398 32.4707 52.7832 32.4707 57.7637C32.4707 67.7734 39.502 74.4629 49.8047 74.4629C60.1074 74.4629 67.1387 67.7734 67.1387 57.7637C67.1387 52.7832 64.9902 48.3398 63.5254 44.9707C60.791 39.0625 56.2988 31.6406 52.3926 25.7324C51.6602 24.5605 50.8301 24.0234 49.8047 24.0234C48.7793 24.0234 47.998 24.5605 47.2168 25.7324Z" fill="#000000" fill-opacity="0.85"/>
 </g>
</svg>
