<?xml version="1.0" encoding="UTF-8"?>
<!--Generator: Apple Native CoreSVG 232.5-->
<!DOCTYPE svg
PUBLIC "-//W3C//DTD SVG 1.1//EN"
       "http://www.w3.org/Graphics/SVG/1.1/DTD/svg11.dtd">
<svg version="1.1" xmlns="http://www.w3.org/2000/svg" xmlns:xlink="http://www.w3.org/1999/xlink" width="99.6094" height="99.6582">
 <g>
  <rect height="99.6582" opacity="0" width="99.6094" x="0" y="0"/>
  <path d="M49.8047 99.6094C77.0508 99.6094 99.6094 77.002 99.6094 49.8047C99.6094 22.5586 77.002 0 49.7559 0C22.5586 0 0 22.5586 0 49.8047C0 77.002 22.6074 99.6094 49.8047 99.6094ZM49.8047 91.3086C26.7578 91.3086 8.34961 72.8516 8.34961 49.8047C8.34961 26.7578 26.709 8.30078 49.7559 8.30078C72.8027 8.30078 91.3086 26.7578 91.3086 49.8047C91.3086 72.8516 72.8516 91.3086 49.8047 91.3086Z" fill="#000000" fill-opacity="0.85"/>
  <path d="M65.8203 22.9492L33.3984 22.9492C29.8828 22.9492 27.5391 25.3906 27.5391 29.0527L27.5391 35.9375L71.6797 35.9375L71.6797 29.0527C71.6797 25.3906 69.3359 22.9492 65.8203 22.9492ZM36.7188 32.9102C35.4492 32.9102 34.4238 31.8359 34.4238 30.5664C34.4238 29.248 35.4492 28.2227 36.7188 28.2227C37.9883 28.2227 39.0137 29.248 39.0137 30.5664C39.0137 31.8359 37.9883 32.9102 36.7188 32.9102ZM43.457 32.9102C42.1387 32.9102 41.1621 31.8359 41.1621 30.5664C41.1621 29.248 42.1387 28.2227 43.457 28.2227C44.7266 28.2227 45.752 29.248 45.752 30.5664C45.752 31.8359 44.7266 32.9102 43.457 32.9102ZM57.666 31.9824C56.8359 31.9824 56.25 31.3965 56.25 30.5664C56.25 29.7363 56.8359 29.1504 57.666 29.1504L63.9648 29.1504C64.7949 29.1504 65.3809 29.7363 65.3809 30.5664C65.3809 31.3965 64.7949 31.9824 63.9648 31.9824ZM33.3984 76.416L65.8203 76.416C69.3359 76.416 71.6797 74.0234 71.6797 70.3613L71.6797 39.4043L27.5391 39.4043L27.5391 70.3613C27.5391 74.0234 29.8828 76.416 33.3984 76.416ZM39.6973 69.043C37.5977 69.043 36.1328 67.627 36.1328 65.5273L36.1328 48.1934C36.1328 46.0938 37.5977 44.6289 39.6973 44.6289L59.5215 44.6289C61.6211 44.6289 63.0859 46.0938 63.0859 48.1934L63.0859 65.5273C63.0859 67.627 61.6211 69.043 59.5215 69.043ZM40.1367 66.0645L59.082 66.0645C59.7168 66.0645 60.0586 65.6738 60.0586 65.0879L60.0586 48.6328C60.0586 48.0469 59.7168 47.6074 59.082 47.6074L40.1367 47.6074C39.502 47.6074 39.1602 48.0469 39.1602 48.6328L39.1602 65.0879C39.1602 65.6738 39.502 66.0645 40.1367 66.0645Z" fill="#000000" fill-opacity="0.85"/>
 </g>
</svg>
