<?xml version="1.0" encoding="UTF-8"?>
<!--Generator: Apple Native CoreSVG 232.5-->
<!DOCTYPE svg
PUBLIC "-//W3C//DTD SVG 1.1//EN"
       "http://www.w3.org/Graphics/SVG/1.1/DTD/svg11.dtd">
<svg version="1.1" xmlns="http://www.w3.org/2000/svg" xmlns:xlink="http://www.w3.org/1999/xlink" width="89.8926" height="89.9902">
 <g>
  <rect height="89.9902" opacity="0" width="89.8926" x="0" y="0"/>
  <path d="M15.332 89.9902L74.5605 89.9902C84.8145 89.9902 89.8926 84.9121 89.8926 74.8535L89.8926 15.2344C89.8926 5.17578 84.8145 0.0976562 74.5605 0.0976562L15.332 0.0976562C5.12695 0.0976562 0 5.12695 0 15.2344L0 74.8535C0 84.9609 5.12695 89.9902 15.332 89.9902ZM15.4297 82.1289C10.5469 82.1289 7.86133 79.541 7.86133 74.4629L7.86133 15.625C7.86133 10.5469 10.5469 7.95898 15.4297 7.95898L74.4629 7.95898C79.2969 7.95898 82.0312 10.5469 82.0312 15.625L82.0312 74.4629C82.0312 79.541 79.2969 82.1289 74.4629 82.1289Z" fill="#000000" fill-opacity="0.85"/>
  <path d="M33.7402 66.748L56.8359 66.748C58.7402 66.748 60.0586 65.5273 60.0586 63.5742C60.0586 61.5723 58.7402 60.3516 56.8359 60.3516L37.6953 60.3516L37.6953 47.2168L55.5664 47.2168C57.4707 47.2168 58.7891 46.1426 58.7891 44.2383C58.7891 42.2363 57.4707 41.1133 55.5664 41.1133L37.6953 41.1133L37.6953 28.6621L56.8359 28.6621C58.7402 28.6621 60.0586 27.3926 60.0586 25.4395C60.0586 23.4375 58.7402 22.2656 56.8359 22.2656L33.7402 22.2656C31.2012 22.2656 29.9316 24.0234 29.9316 26.6602L29.9316 62.3535C29.9316 64.9902 31.2012 66.748 33.7402 66.748Z" fill="#000000" fill-opacity="0.85"/>
 </g>
</svg>
