<?xml version="1.0" encoding="UTF-8"?>
<!--Generator: Apple Native CoreSVG 232.5-->
<!DOCTYPE svg
PUBLIC "-//W3C//DTD SVG 1.1//EN"
       "http://www.w3.org/Graphics/SVG/1.1/DTD/svg11.dtd">
<svg version="1.1" xmlns="http://www.w3.org/2000/svg" xmlns:xlink="http://www.w3.org/1999/xlink" width="78.7109" height="113.525">
 <g>
  <rect height="113.525" opacity="0" width="78.7109" x="0" y="0"/>
  <path d="M3.71094 82.0312C3.71094 95.5078 12.1094 104.102 25.2441 104.102C35.0586 104.102 42.3828 99.8047 47.0215 91.5039L51.416 83.6426C61.7188 64.7949 78.7109 62.3535 78.7109 38.1348C78.7109 15.2832 63.916 0 41.748 0C19.043 0 3.71094 15.3809 3.71094 38.3301ZM11.084 81.543L11.084 38.3301C11.084 19.7266 23.3398 7.37305 41.748 7.37305C59.5215 7.37305 71.3379 19.7266 71.3379 38.1348C71.3379 58.3984 55.4688 61.9141 44.8242 80.3223L40.5762 87.5977C37.1094 93.6523 32.2754 96.5332 25.5859 96.5332C16.5527 96.5332 11.084 90.8691 11.084 81.543ZM21.4844 63.1836C23.4863 63.1836 25.1953 61.4746 25.1953 59.4727L25.1953 38.0371C25.1953 28.6621 31.7383 22.4609 41.6992 22.4609C51.1719 22.4609 57.2754 28.6133 57.2754 38.0371C57.2754 40.0391 58.9355 41.748 60.9375 41.748C62.9395 41.748 64.6484 40.0391 64.6484 38.0371C64.6484 24.3164 55.4688 15.0879 41.6992 15.0879C27.4414 15.0879 17.8223 24.3164 17.8223 38.0371L17.8223 59.4727C17.8223 61.4746 19.4824 63.1836 21.4844 63.1836ZM21.0938 48.6816L37.5977 48.6816C40.918 48.6816 43.0176 50.6836 43.0176 53.6133C43.0176 55.127 42.2363 57.1777 41.0645 58.5938L35.2051 65.9668C34.5703 66.7969 34.2285 67.6758 34.2285 68.6035C34.2285 70.6055 35.9375 72.2656 37.9395 72.2656C39.0625 72.2656 40.1367 71.6797 40.9668 70.6543L47.3145 62.5977C49.3164 60.0586 50.6348 56.3477 50.6348 53.3203C50.6348 46.1426 45.4102 41.3086 37.5 41.3086L21.0938 41.3086Z" fill="#000000" fill-opacity="0.85"/>
 </g>
</svg>
