<?xml version="1.0" encoding="UTF-8"?>
<!--Generator: Apple Native CoreSVG 232.5-->
<!DOCTYPE svg
PUBLIC "-//W3C//DTD SVG 1.1//EN"
       "http://www.w3.org/Graphics/SVG/1.1/DTD/svg11.dtd">
<svg version="1.1" xmlns="http://www.w3.org/2000/svg" xmlns:xlink="http://www.w3.org/1999/xlink" width="78.7109" height="113.525">
 <g>
  <rect height="113.525" opacity="0" width="78.7109" x="0" y="0"/>
  <path d="M78.7109 38.1348C78.7109 62.3535 61.7188 64.7949 51.416 83.6426L47.0215 91.5039C42.3828 99.8047 35.0586 104.102 25.2441 104.102C12.1094 104.102 3.71094 95.5078 3.71094 82.0312L3.71094 38.3301C3.71094 15.3809 19.043 0 41.748 0C63.916 0 78.7109 15.2832 78.7109 38.1348ZM16.8457 36.5723L16.8457 60.9375C16.8457 62.9395 18.5059 64.6484 20.5078 64.6484C22.5098 64.6484 24.2188 62.9395 24.2188 60.9375L24.2188 50.1465L39.0625 50.1465C42.3828 50.1465 44.4824 52.1484 44.4824 55.0781C44.4824 56.5918 43.7012 58.6426 42.5293 60.0586L36.6699 67.4316C36.0352 68.2617 35.6934 69.1406 35.6934 70.0684C35.6934 72.0703 37.4023 73.7305 39.4043 73.7305C40.5273 73.7305 41.6016 73.1445 42.4316 72.1191L48.7793 64.0625C50.7812 61.5234 52.0996 57.8125 52.0996 54.7852C52.0996 47.6074 46.875 42.7734 38.9648 42.7734L24.2188 42.7734L24.2188 36.5723C24.2188 27.1973 30.7617 20.9961 41.6992 20.9961C52.1484 20.9961 58.252 27.1484 58.252 36.5723C58.252 38.5742 59.9121 40.2832 61.9141 40.2832C63.916 40.2832 65.625 38.5742 65.625 36.5723C65.625 22.8516 56.4453 13.623 41.6992 13.623C26.4648 13.623 16.8457 22.8516 16.8457 36.5723Z" fill="#000000" fill-opacity="0.85"/>
 </g>
</svg>
