<?xml version="1.0" encoding="UTF-8"?>
<!--Generator: Apple Native CoreSVG 232.5-->
<!DOCTYPE svg
PUBLIC "-//W3C//DTD SVG 1.1//EN"
       "http://www.w3.org/Graphics/SVG/1.1/DTD/svg11.dtd">
<svg version="1.1" xmlns="http://www.w3.org/2000/svg" xmlns:xlink="http://www.w3.org/1999/xlink" width="116.504" height="77.4902">
 <g>
  <rect height="77.4902" opacity="0" width="116.504" x="0" y="0"/>
  <path d="M30.127 77.4902L86.377 77.4902C106.689 77.4902 116.504 67.9199 116.504 48.1445L116.504 29.541C116.504 9.66797 106.885 0.0488281 86.9141 0.0488281L29.5898 0.0488281C9.66797 0.0488281 0 9.66797 0 29.541L0 48.1445C0 67.9199 9.81445 77.4902 30.127 77.4902ZM30.127 69.6289C14.7949 69.6289 7.86133 62.9883 7.86133 48.1445L7.86133 29.541C7.86133 14.5996 14.5996 7.91016 29.5898 7.91016L86.9141 7.91016C101.953 7.91016 108.643 14.5996 108.643 29.541L108.643 48.1445C108.643 62.9883 101.758 69.6289 86.377 69.6289ZM3.95508 32.8125L112.549 32.8125L112.549 27.8809L3.95508 27.8809ZM58.252 50.9766C60.8398 50.9766 62.9883 48.8281 62.9883 46.2402C62.9883 43.6523 60.8398 41.5527 58.252 41.5527C55.6641 41.5527 53.5645 43.6523 53.5645 46.2402C53.5645 48.8281 55.6641 50.9766 58.252 50.9766Z" fill="#000000" fill-opacity="0.85"/>
 </g>
</svg>
