<?xml version="1.0" encoding="UTF-8"?>
<!--Generator: Apple Native CoreSVG 232.5-->
<!DOCTYPE svg
PUBLIC "-//W3C//DTD SVG 1.1//EN"
       "http://www.w3.org/Graphics/SVG/1.1/DTD/svg11.dtd">
<svg version="1.1" xmlns="http://www.w3.org/2000/svg" xmlns:xlink="http://www.w3.org/1999/xlink" width="132.812" height="88.4277">
 <g>
  <rect height="88.4277" opacity="0" width="132.812" x="0" y="0"/>
  <path d="M37.9883 88.4277L43.0664 88.4277C47.0703 88.4277 49.4141 86.1328 49.4141 82.1777L49.4141 56.6895C49.4141 50.8301 50.8789 47.8516 55.6641 43.6523C60.791 39.1602 64.0625 32.8613 64.0625 25.5859C64.0625 12.5977 53.5645 2.09961 40.5273 2.09961C27.4902 2.09961 16.9922 12.5977 16.9922 25.5859C16.9922 32.8613 20.2637 39.1602 25.3418 43.6523C30.1758 47.8516 31.6406 50.8301 31.6406 56.6895L31.6406 82.1777C31.6406 86.1328 33.9844 88.4277 37.9883 88.4277ZM45.8008 31.4453C44.4336 31.4453 43.3105 30.3223 43.3105 28.9062L43.3105 19.6289C43.3105 18.3105 44.4336 17.1875 45.8008 17.1875C47.168 17.1875 48.291 18.3105 48.291 19.6289L48.291 28.9062C48.291 30.3223 47.168 31.4453 45.8008 31.4453ZM91.1133 88.4277L96.1914 88.4277C100.195 88.4277 102.539 86.1328 102.539 82.1777L102.539 56.6895C102.539 50.9277 104.053 47.998 108.252 44.1406C96.8262 41.9922 88.1348 31.9336 88.1348 19.9219C88.1348 12.8906 91.1133 6.54297 95.8496 2.09961C94.1406 2.09961 93.8477 2.09961 93.6523 2.09961C80.6152 2.09961 70.1172 12.5977 70.1172 25.5859C70.1172 32.8613 73.3887 39.1602 78.5156 43.6523C83.3008 47.8516 84.7656 50.8301 84.7656 56.6895L84.7656 82.1777C84.7656 86.1328 87.1094 88.4277 91.1133 88.4277Z" fill="#000000" fill-opacity="0.85"/>
  <path d="M0 19.9219C0 29.5898 6.83594 37.6465 15.918 39.502C13.623 35.4004 12.2559 30.6641 12.2559 25.5859C12.2559 15.1367 18.0176 5.95703 26.5137 1.12305C24.4629 0.390625 22.2656 0 20.0195 0C8.93555 0 0 8.93555 0 19.9219ZM112.842 39.8926C123.828 39.8926 132.812 30.957 132.812 19.9219C132.812 8.93555 123.828 0 112.842 0C101.807 0 92.8711 8.93555 92.8711 19.9219C92.8711 30.957 101.807 39.8926 112.842 39.8926ZM122.705 28.3203C120.166 28.3203 118.213 24.6582 118.213 19.9219C118.213 15.2832 120.166 11.5723 122.705 11.5723C125.146 11.5723 127.1 15.2832 127.1 19.9219C127.1 24.6582 125.146 28.3203 122.705 28.3203Z" fill="#000000" fill-opacity="0.425"/>
 </g>
</svg>
