<?xml version="1.0" encoding="UTF-8"?>
<!--Generator: Apple Native CoreSVG 232.5-->
<!DOCTYPE svg
PUBLIC "-//W3C//DTD SVG 1.1//EN"
       "http://www.w3.org/Graphics/SVG/1.1/DTD/svg11.dtd">
<svg version="1.1" xmlns="http://www.w3.org/2000/svg" xmlns:xlink="http://www.w3.org/1999/xlink" width="99.6094" height="99.6582">
 <g>
  <rect height="99.6582" opacity="0" width="99.6094" x="0" y="0"/>
  <path d="M99.6094 49.8047C99.6094 77.002 77.0508 99.6094 49.8047 99.6094C22.6074 99.6094 0 77.002 0 49.8047C0 22.5586 22.5586 0 49.7559 0C77.002 0 99.6094 22.5586 99.6094 49.8047ZM30.127 58.0078C27.002 58.0078 25.1953 59.668 25.1953 62.7441L25.1953 65.918C25.1953 68.9941 27.002 70.6543 30.127 70.6543L69.4824 70.6543C72.6074 70.6543 74.4141 68.9941 74.4141 65.918L74.4141 62.7441C74.4141 59.668 72.6074 58.0078 69.4824 58.0078ZM46.6309 24.3652L26.8066 46.1914C26.0254 46.9727 25.6348 47.8516 25.6836 48.7305C25.8301 50.5859 26.8066 51.6602 28.9062 51.6602L70.6543 51.6602C72.7051 51.6602 73.9258 50.5859 73.9258 48.7305C73.9258 47.8516 73.4863 47.0215 72.7539 46.1914L52.9785 24.3652C52.1484 23.3398 51.0742 22.7539 49.8047 22.7539C48.5352 22.7539 47.4121 23.4863 46.6309 24.3652Z" fill="#000000" fill-opacity="0.85"/>
 </g>
</svg>
