<?xml version="1.0" encoding="UTF-8"?>
<!--Generator: Apple Native CoreSVG 232.5-->
<!DOCTYPE svg
PUBLIC "-//W3C//DTD SVG 1.1//EN"
       "http://www.w3.org/Graphics/SVG/1.1/DTD/svg11.dtd">
<svg version="1.1" xmlns="http://www.w3.org/2000/svg" xmlns:xlink="http://www.w3.org/1999/xlink" width="99.6094" height="99.6582">
 <g>
  <rect height="99.6582" opacity="0" width="99.6094" x="0" y="0"/>
  <path d="M49.8047 99.6094C77.0508 99.6094 99.6094 77.002 99.6094 49.8047C99.6094 22.5586 77.002 0 49.7559 0C22.5586 0 0 22.5586 0 49.8047C0 77.002 22.6074 99.6094 49.8047 99.6094ZM49.8047 91.3086C26.7578 91.3086 8.34961 72.8516 8.34961 49.8047C8.34961 26.7578 26.709 8.30078 49.7559 8.30078C72.8027 8.30078 91.3086 26.7578 91.3086 49.8047C91.3086 72.8516 72.8516 91.3086 49.8047 91.3086Z" fill="#000000" fill-opacity="0.85"/>
  <path d="M30.6641 69.9219L68.8477 69.9219C71.875 69.9219 73.6328 68.3105 73.6328 65.332L73.6328 62.2559C73.6328 59.2773 71.875 57.666 68.8477 57.666L30.6641 57.666C27.6367 57.666 25.8789 59.2773 25.8789 62.2559L25.8789 65.332C25.8789 68.3105 27.6367 69.9219 30.6641 69.9219ZM29.4922 51.5137L69.9707 51.5137C71.9727 51.5137 73.1445 50.4883 73.1445 48.6816C73.1445 47.8516 72.7051 47.0215 72.0215 46.2402L52.832 25.0488C52.002 24.0723 50.9766 23.4863 49.7559 23.4863C48.5352 23.4863 47.4609 24.1699 46.6797 25.0488L27.4414 46.2402C26.709 46.9727 26.3184 47.8516 26.3672 48.6816C26.5137 50.4883 27.4414 51.5137 29.4922 51.5137Z" fill="#000000" fill-opacity="0.85"/>
 </g>
</svg>
