<?xml version="1.0" encoding="UTF-8"?>
<!--Generator: Apple Native CoreSVG 232.5-->
<!DOCTYPE svg
PUBLIC "-//W3C//DTD SVG 1.1//EN"
       "http://www.w3.org/Graphics/SVG/1.1/DTD/svg11.dtd">
<svg version="1.1" xmlns="http://www.w3.org/2000/svg" xmlns:xlink="http://www.w3.org/1999/xlink" width="94.043" height="91.3574">
 <g>
  <rect height="91.3574" opacity="0" width="94.043" x="0" y="0"/>
  <path d="M8.1543 55.7617L85.9863 55.7617C90.4785 55.7617 92.8223 53.4668 92.9199 49.5605C92.9688 47.7051 92.041 45.8008 90.5273 44.1406L53.8574 3.85742C52.0508 1.9043 49.8047 0.439453 47.0703 0.439453C44.2871 0.439453 42.1875 1.80664 40.2344 3.85742L3.61328 44.1406C2.09961 45.8008 1.2207 47.7051 1.2207 49.5605C1.2207 53.4668 3.66211 55.7617 8.1543 55.7617ZM13.3301 48.3887C12.4023 48.3887 11.9629 47.9492 11.9629 47.2656C11.9629 46.9238 12.1094 46.582 12.3535 46.3379L45.459 10.3516C45.9961 9.81445 46.3867 9.42383 47.0703 9.42383C47.7539 9.42383 48.1934 9.81445 48.6816 10.3516L81.7383 46.3379C82.0312 46.6309 82.1777 46.9238 82.1777 47.2656C82.1777 47.9492 81.6895 48.3887 80.8105 48.3887ZM10.498 91.3574L83.5449 91.3574C90.2832 91.3574 94.043 87.8418 94.043 81.25L94.043 75.6348C94.043 69.043 90.2832 65.5273 83.5449 65.5273L10.498 65.5273C3.75977 65.5273 0 68.9941 0 75.6348L0 81.25C0 87.8906 3.75977 91.3574 10.498 91.3574ZM11.1328 84.1797C8.98438 84.1797 7.86133 82.9102 7.86133 80.7617L7.86133 76.123C7.86133 73.9746 8.98438 72.7051 11.1328 72.7051L82.9102 72.7051C85.1074 72.7051 86.1816 73.9746 86.1816 76.123L86.1816 80.7617C86.1816 82.9102 85.1074 84.1797 82.9102 84.1797Z" fill="#000000" fill-opacity="0.85"/>
 </g>
</svg>
