<?xml version="1.0" encoding="UTF-8"?>
<!--Generator: Apple Native CoreSVG 232.5-->
<!DOCTYPE svg
PUBLIC "-//W3C//DTD SVG 1.1//EN"
       "http://www.w3.org/Graphics/SVG/1.1/DTD/svg11.dtd">
<svg version="1.1" xmlns="http://www.w3.org/2000/svg" xmlns:xlink="http://www.w3.org/1999/xlink" width="99.6094" height="99.6582">
 <g>
  <rect height="99.6582" opacity="0" width="99.6094" x="0" y="0"/>
  <path d="M99.6094 49.8047C99.6094 77.002 77.0508 99.6094 49.8047 99.6094C22.6074 99.6094 0 77.002 0 49.8047C0 22.5586 22.5586 0 49.7559 0C77.002 0 99.6094 22.5586 99.6094 49.8047ZM66.0156 49.7559C66.0156 53.8086 69.2871 57.0801 73.3398 57.0801C77.2949 57.0801 80.6152 53.8086 80.6152 49.7559C80.6152 45.7031 77.2949 42.4316 73.3398 42.4316C69.2871 42.4316 66.0156 45.7031 66.0156 49.7559ZM42.4805 49.7559C42.4805 53.8086 45.752 57.0801 49.8047 57.0801C53.8574 57.0801 57.1289 53.8086 57.1289 49.7559C57.1289 45.7031 53.8574 42.4316 49.8047 42.4316C45.752 42.4316 42.4805 45.7031 42.4805 49.7559ZM18.9941 49.7559C18.9941 53.8086 22.3145 57.0801 26.3184 57.0801C30.3223 57.0801 33.5938 53.8086 33.5938 49.7559C33.5938 45.7031 30.2734 42.4316 26.3184 42.4316C22.3145 42.4316 18.9941 45.7031 18.9941 49.7559Z" fill="#000000" fill-opacity="0.85"/>
 </g>
</svg>
