<?xml version="1.0" encoding="UTF-8"?>
<!--Generator: Apple Native CoreSVG 232.5-->
<!DOCTYPE svg
PUBLIC "-//W3C//DTD SVG 1.1//EN"
       "http://www.w3.org/Graphics/SVG/1.1/DTD/svg11.dtd">
<svg version="1.1" xmlns="http://www.w3.org/2000/svg" xmlns:xlink="http://www.w3.org/1999/xlink" width="105.762" height="68.4082">
 <g>
  <rect height="68.4082" opacity="0" width="105.762" x="0" y="0"/>
  <path d="M105.762 14.0137L105.762 54.2969C105.762 63.5254 100.684 68.4082 91.4551 68.4082L14.2578 68.4082C5.07812 68.4082 0 63.5254 0 54.2969L0 14.0137C0 4.83398 5.07812 0 14.2578 0L91.4551 0C100.684 0 105.762 4.83398 105.762 14.0137ZM69.1406 34.1309C69.1406 38.1836 72.4121 41.4551 76.4648 41.4551C80.4199 41.4551 83.7891 38.1836 83.7891 34.1309C83.7891 30.0781 80.4199 26.8066 76.4648 26.8066C72.4121 26.8066 69.1406 30.0781 69.1406 34.1309ZM45.6055 34.1309C45.6055 38.1836 48.877 41.4551 52.9297 41.4551C56.9824 41.4551 60.2539 38.1836 60.2539 34.1309C60.2539 30.0781 56.9824 26.8066 52.9297 26.8066C48.877 26.8066 45.6055 30.0781 45.6055 34.1309ZM22.1191 34.1309C22.1191 38.1836 25.4395 41.4551 29.4434 41.4551C33.4473 41.4551 36.7188 38.1836 36.7188 34.1309C36.7188 30.0781 33.3984 26.8066 29.4434 26.8066C25.4395 26.8066 22.1191 30.0781 22.1191 34.1309Z" fill="#000000" fill-opacity="0.85"/>
 </g>
</svg>
