<?xml version="1.0" encoding="UTF-8"?>
<!--Generator: Apple Native CoreSVG 232.5-->
<!DOCTYPE svg
PUBLIC "-//W3C//DTD SVG 1.1//EN"
       "http://www.w3.org/Graphics/SVG/1.1/DTD/svg11.dtd">
<svg version="1.1" xmlns="http://www.w3.org/2000/svg" xmlns:xlink="http://www.w3.org/1999/xlink" width="107.617" height="107.861">
 <g>
  <rect height="107.861" opacity="0" width="107.617" x="0" y="0"/>
  <path d="M107.617 28.9062L107.617 66.3086C107.617 80.6152 99.8047 88.623 85.2539 88.623L52.2461 88.623L34.6191 104.736C32.3242 106.885 30.9082 107.861 29.0039 107.861C26.2207 107.861 24.6582 105.859 24.6582 102.832L24.6582 88.623L22.3633 88.623C7.8125 88.623 0 80.6641 0 66.3086L0 28.9062C0 14.5508 7.8125 6.54297 22.3633 6.54297L85.2539 6.54297C99.8047 6.54297 107.617 14.5996 107.617 28.9062ZM46.9238 68.4082C46.9238 72.2168 50 75.293 53.8574 75.293C57.7148 75.293 60.791 72.2168 60.791 68.4082C60.791 64.5508 57.7148 61.4746 53.8574 61.4746C50 61.4746 46.9238 64.5508 46.9238 68.4082ZM46.9238 47.6074C46.9238 51.4648 50 54.541 53.8574 54.541C57.7148 54.541 60.791 51.4648 60.791 47.6074C60.791 43.75 57.7148 40.6738 53.8574 40.6738C50 40.6738 46.9238 43.75 46.9238 47.6074ZM46.9238 26.8066C46.9238 30.6152 50 33.7402 53.8574 33.7402C57.7148 33.7402 60.791 30.6152 60.791 26.8066C60.791 22.998 57.7148 19.873 53.8574 19.873C50 19.873 46.9238 22.998 46.9238 26.8066Z" fill="#000000" fill-opacity="0.85"/>
 </g>
</svg>
