<?xml version="1.0" encoding="UTF-8"?>
<!--Generator: Apple Native CoreSVG 232.5-->
<!DOCTYPE svg
PUBLIC "-//W3C//DTD SVG 1.1//EN"
       "http://www.w3.org/Graphics/SVG/1.1/DTD/svg11.dtd">
<svg version="1.1" xmlns="http://www.w3.org/2000/svg" xmlns:xlink="http://www.w3.org/1999/xlink" width="110.742" height="102.295">
 <g>
  <rect height="102.295" opacity="0" width="110.742" x="0" y="0"/>
  <path d="M21.1914 102.295C27.7832 102.295 41.2598 95.6543 51.1719 88.5742C85.2051 89.502 110.742 69.9707 110.742 44.3848C110.742 19.8242 86.1328 0 55.3711 0C24.6094 0 0 19.8242 0 44.3848C0 60.4004 10.2539 74.6094 25.6836 81.7383C23.4863 85.9863 19.3848 91.748 17.1875 94.6289C14.5996 98.0469 16.1621 102.295 21.1914 102.295ZM26.3184 94.1895C25.9277 94.3359 25.7812 94.043 26.0254 93.7012C28.7598 90.332 32.666 85.2539 34.3262 82.1289C35.6934 79.5898 35.3516 77.3438 32.2266 75.8789C16.8945 68.75 8.10547 57.373 8.10547 44.3848C8.10547 24.3652 29.0527 8.05664 55.3711 8.05664C81.7383 8.05664 102.686 24.3652 102.686 44.3848C102.686 64.3555 81.7383 80.6641 55.3711 80.6641C54.3945 80.6641 52.8809 80.6152 50.9277 80.5664C48.877 80.5664 47.3145 81.2012 45.459 82.666C39.4531 87.0117 30.7617 92.3828 26.3184 94.1895Z" fill="#000000" fill-opacity="0.85"/>
  <path d="M78.1738 51.9043C82.0801 51.9043 85.2539 48.7305 85.2539 44.8242C85.2539 40.918 82.0801 37.7441 78.1738 37.7441C74.2676 37.7441 71.0938 40.918 71.0938 44.8242C71.0938 48.7305 74.2676 51.9043 78.1738 51.9043Z" fill="#000000" fill-opacity="0.85"/>
  <path d="M55.3711 51.9043C59.2773 51.9043 62.4512 48.7305 62.4512 44.8242C62.4512 40.918 59.2773 37.7441 55.3711 37.7441C51.4648 37.7441 48.291 40.918 48.291 44.8242C48.291 48.7305 51.4648 51.9043 55.3711 51.9043Z" fill="#000000" fill-opacity="0.85"/>
  <path d="M32.6172 51.9043C36.4746 51.9043 39.6484 48.7305 39.6484 44.8242C39.6484 40.918 36.4258 37.7441 32.6172 37.7441C28.7109 37.7441 25.5371 40.918 25.5371 44.8242C25.5371 48.7305 28.7109 51.9043 32.6172 51.9043Z" fill="#000000" fill-opacity="0.85"/>
 </g>
</svg>
