<?xml version="1.0" encoding="UTF-8"?>
<!--Generator: Apple Native CoreSVG 232.5-->
<!DOCTYPE svg
PUBLIC "-//W3C//DTD SVG 1.1//EN"
       "http://www.w3.org/Graphics/SVG/1.1/DTD/svg11.dtd">
<svg version="1.1" xmlns="http://www.w3.org/2000/svg" xmlns:xlink="http://www.w3.org/1999/xlink" width="107.617" height="107.275">
 <g>
  <rect height="107.275" opacity="0" width="107.617" x="0" y="0"/>
  <path d="M30.0293 107.275C32.4219 107.275 34.082 106.006 37.0605 103.369L53.9062 88.3789L85.2539 88.3789C99.8047 88.3789 107.617 80.3223 107.617 66.0156L107.617 28.6133C107.617 14.3066 99.8047 6.25 85.2539 6.25L22.3633 6.25C7.8125 6.25 0 14.2578 0 28.6133L0 66.0156C0 80.3711 7.8125 88.3789 22.3633 88.3789L24.707 88.3789L24.707 101.074C24.707 104.834 26.6113 107.275 30.0293 107.275ZM32.0312 98.3398L32.0312 84.1797C32.0312 81.543 31.0059 80.5176 28.3691 80.5176L22.3633 80.5176C12.5 80.5176 7.86133 75.4883 7.86133 65.9668L7.86133 28.6133C7.86133 19.0918 12.5 14.1113 22.3633 14.1113L85.2539 14.1113C95.0684 14.1113 99.7559 19.0918 99.7559 28.6133L99.7559 65.9668C99.7559 75.4883 95.0684 80.5176 85.2539 80.5176L53.6133 80.5176C50.8789 80.5176 49.5117 80.9082 47.6562 82.8125Z" fill="#000000" fill-opacity="0.85"/>
  <path d="M77.7344 54.2969C81.5918 54.2969 84.7168 51.1719 84.7168 47.3145C84.7168 43.457 81.5918 40.332 77.7344 40.332C73.877 40.332 70.752 43.457 70.752 47.3145C70.752 51.1719 73.877 54.2969 77.7344 54.2969Z" fill="#000000" fill-opacity="0.85"/>
  <path d="M53.8574 54.2969C57.666 54.2969 60.8398 51.1719 60.8398 47.3145C60.8398 43.457 57.666 40.332 53.8574 40.332C50 40.332 46.8262 43.457 46.8262 47.3145C46.8262 51.1719 50 54.2969 53.8574 54.2969Z" fill="#000000" fill-opacity="0.85"/>
  <path d="M29.9316 54.2969C33.7891 54.2969 36.9141 51.1719 36.9141 47.3145C36.9141 43.457 33.7891 40.332 29.9316 40.332C26.0742 40.332 22.9492 43.457 22.9492 47.3145C22.9492 51.1719 26.0742 54.2969 29.9316 54.2969Z" fill="#000000" fill-opacity="0.85"/>
 </g>
</svg>
