<?xml version="1.0" encoding="UTF-8"?>
<!--Generator: Apple Native CoreSVG 232.5-->
<!DOCTYPE svg
PUBLIC "-//W3C//DTD SVG 1.1//EN"
       "http://www.w3.org/Graphics/SVG/1.1/DTD/svg11.dtd">
<svg version="1.1" xmlns="http://www.w3.org/2000/svg" xmlns:xlink="http://www.w3.org/1999/xlink" width="107.617" height="107.861">
 <g>
  <rect height="107.861" opacity="0" width="107.617" x="0" y="0"/>
  <path d="M107.617 28.9062L107.617 66.3086C107.617 80.6152 99.8047 88.623 85.2539 88.623L52.2461 88.623L34.6191 104.736C32.3242 106.885 30.9082 107.861 29.0039 107.861C26.2207 107.861 24.6582 105.859 24.6582 102.832L24.6582 88.623L22.3633 88.623C7.8125 88.623 0 80.6641 0 66.3086L0 28.9062C0 14.5508 7.8125 6.54297 22.3633 6.54297L85.2539 6.54297C99.8047 6.54297 107.617 14.5996 107.617 28.9062ZM71.2891 47.5586C71.2891 51.5625 74.5117 54.7852 78.5156 54.7852C82.5195 54.7852 85.7422 51.5625 85.7422 47.5586C85.7422 43.5547 82.5195 40.332 78.5156 40.332C74.5117 40.332 71.2891 43.5547 71.2891 47.5586ZM46.582 47.5586C46.582 51.5625 49.8535 54.7852 53.8574 54.7852C57.8125 54.7852 61.084 51.5625 61.084 47.5586C61.084 43.5547 57.8125 40.332 53.8574 40.332C49.8535 40.332 46.582 43.5547 46.582 47.5586ZM21.9238 47.5586C21.9238 51.5625 25.1953 54.7852 29.1504 54.7852C33.1543 54.7852 36.377 51.5625 36.377 47.5586C36.377 43.5547 33.1543 40.332 29.1504 40.332C25.1953 40.332 21.9238 43.5547 21.9238 47.5586Z" fill="#000000" fill-opacity="0.85"/>
 </g>
</svg>
