<?xml version="1.0" encoding="UTF-8"?>
<!--Generator: Apple Native CoreSVG 232.5-->
<!DOCTYPE svg
PUBLIC "-//W3C//DTD SVG 1.1//EN"
       "http://www.w3.org/Graphics/SVG/1.1/DTD/svg11.dtd">
<svg version="1.1" xmlns="http://www.w3.org/2000/svg" xmlns:xlink="http://www.w3.org/1999/xlink" width="140.674" height="88.916">
 <g>
  <rect height="88.916" opacity="0" width="140.674" x="0" y="0"/>
  <path d="M53.0762 88.8672L100.635 88.8672C107.08 88.8672 110.938 85.2051 110.938 78.8086L110.938 69.9219C110.938 69.6777 111.084 69.5801 111.279 69.5801L117.09 69.5801C117.334 69.5801 117.432 69.6777 117.432 69.9219L117.432 75.3906C117.432 80.9082 121.094 84.2773 127.051 84.2773L131.104 84.2773C137.012 84.2773 140.674 80.957 140.674 75.3906L140.674 40.1367C140.674 34.5703 137.012 31.25 131.104 31.25L127.051 31.25C121.094 31.25 117.432 34.6191 117.432 40.1367L117.432 44.6777C117.432 44.873 117.334 45.0195 117.09 45.0195L111.279 45.0195C111.084 45.0195 110.938 44.873 110.938 44.6777L110.938 36.377C110.938 30.3223 107.178 26.6602 100.928 26.6602L97.0703 26.6602L88.8672 17.7246C86.9629 15.625 85.0098 14.7949 82.6172 14.7949L44.6777 14.7949C42.2363 14.7949 40.2832 15.7227 38.3789 17.7246L30.1758 26.6602L24.8047 26.6602C18.6523 26.6602 14.8438 30.3223 14.8438 36.377L14.8438 67.1875C14.8438 73.291 18.6035 76.9531 24.8047 76.9531L38.5742 76.9531L46.8262 85.9375C48.7305 87.9883 50.4883 88.8672 53.0762 88.8672ZM54.1016 81.0059C53.125 81.0059 52.832 80.8594 52.1973 80.2246L41.9922 69.0918L24.8535 69.0918C23.4863 69.0918 22.7051 68.3105 22.7051 66.8457L22.7051 36.7676C22.7051 35.3027 23.4863 34.5215 24.8535 34.5215L33.6914 34.5215L43.7988 23.5352C44.4336 22.8027 44.7754 22.6562 45.6055 22.6562L81.6406 22.6562C82.5195 22.6562 82.9102 22.8027 83.4961 23.5352L93.6523 34.5215L100.879 34.5215C102.246 34.5215 103.076 35.3516 103.076 36.7676L103.076 50.7812C103.076 52.0996 103.857 52.8809 105.127 52.8809L123.291 52.8809C124.561 52.8809 125.342 52.0996 125.342 50.7812L125.342 40.4785C125.342 39.5996 125.928 39.1113 127.148 39.1113L131.055 39.1113C132.227 39.1113 132.812 39.6484 132.812 40.4785L132.812 75C132.812 75.8789 132.227 76.416 131.055 76.416L127.148 76.416C125.928 76.416 125.342 75.9277 125.342 75L125.342 63.7695C125.342 62.4512 124.561 61.6699 123.291 61.6699L105.127 61.6699C103.857 61.6699 103.076 62.4512 103.076 63.7695L103.076 78.5156C103.076 80.127 102.246 81.0059 100.586 81.0059ZM3.90625 71.1426C6.10352 71.1426 7.86133 69.2871 7.86133 67.1875L7.86133 55.7617L18.2617 55.7617L18.2617 47.9004L7.86133 47.9004L7.86133 36.4258C7.86133 34.2773 6.05469 32.5195 3.90625 32.5195C1.75781 32.5195 0 34.3262 0 36.4258L0 67.1875C0 69.3359 1.80664 71.1426 3.90625 71.1426ZM63.4766 19.7266L71.3867 19.7266L71.3867 7.86133L86.7188 7.86133C88.8672 7.86133 90.625 6.00586 90.625 3.90625C90.625 1.75781 88.8672 0 86.7188 0L48.0469 0C45.8984 0 44.1406 1.80664 44.1406 3.95508C44.1406 6.10352 45.9473 7.86133 48.0469 7.86133L63.4766 7.86133Z" fill="#000000" fill-opacity="0.85"/>
 </g>
</svg>
