<?xml version="1.0" encoding="UTF-8"?>
<!--Generator: Apple Native CoreSVG 232.5-->
<!DOCTYPE svg
PUBLIC "-//W3C//DTD SVG 1.1//EN"
       "http://www.w3.org/Graphics/SVG/1.1/DTD/svg11.dtd">
<svg version="1.1" xmlns="http://www.w3.org/2000/svg" xmlns:xlink="http://www.w3.org/1999/xlink" width="97.6074" height="102.588">
 <g>
  <rect height="102.588" opacity="0" width="97.6074" x="0" y="0"/>
  <path d="M83.0566 15.1367L83.0566 66.2109L59.5249 66.2109C56.7897 63.4642 52.9935 61.7676 48.7793 61.7676C40.4297 61.7676 33.6914 68.5059 33.6914 76.8555C33.6914 85.2051 40.4297 91.9434 48.7793 91.9434C53.0174 91.9434 56.8328 90.2274 59.5693 87.4512L83.0534 87.4512C83.0223 97.3486 77.9441 102.393 67.7734 102.393L29.834 102.393C19.6289 102.393 14.502 97.3633 14.502 87.3535L14.502 15.1367C14.502 5.0293 19.6289 0 29.834 0L67.7734 0C77.9785 0 83.0566 5.07812 83.0566 15.1367ZM27.0996 48.4863C27.0996 51.9043 29.7852 54.6387 33.2031 54.6387C36.5723 54.6387 39.3066 51.9043 39.3066 48.4863C39.3066 45.1172 36.5723 42.3828 33.2031 42.3828C29.7852 42.3828 27.0996 45.1172 27.0996 48.4863ZM42.7246 48.4863C42.7246 51.9043 45.4102 54.6387 48.7793 54.6387C52.2461 54.6387 54.9316 51.9043 54.9316 48.4863C54.9316 45.1172 52.2461 42.3828 48.7793 42.3828C45.4102 42.3828 42.7246 45.1172 42.7246 48.4863ZM58.3496 48.4863C58.3496 51.9043 61.0352 54.6387 64.4531 54.6387C67.8711 54.6387 70.5078 51.9043 70.5078 48.4863C70.5078 45.1172 67.8711 42.3828 64.4531 42.3828C61.0352 42.3828 58.3496 45.1172 58.3496 48.4863ZM27.0996 33.4473C27.0996 36.8164 29.7852 39.5508 33.2031 39.5508C36.5723 39.5508 39.3066 36.8164 39.3066 33.4473C39.3066 30.0293 36.5723 27.2949 33.2031 27.2949C29.7852 27.2949 27.0996 30.0293 27.0996 33.4473ZM42.7246 33.4473C42.7246 36.8164 45.4102 39.5508 48.7793 39.5508C52.2461 39.5508 54.9316 36.8164 54.9316 33.4473C54.9316 30.0293 52.2461 27.2949 48.7793 27.2949C45.4102 27.2949 42.7246 30.0293 42.7246 33.4473ZM58.3496 33.4473C58.3496 36.8164 61.0352 39.5508 64.4531 39.5508C67.8711 39.5508 70.5078 36.8164 70.5078 33.4473C70.5078 30.0293 67.8711 27.2949 64.4531 27.2949C61.0352 27.2949 58.3496 30.0293 58.3496 33.4473ZM27.0996 18.457C27.0996 21.7773 29.7852 24.5117 33.2031 24.5117C36.5723 24.5117 39.3066 21.7773 39.3066 18.457C39.3066 15.0391 36.5723 12.3047 33.2031 12.3047C29.7852 12.3047 27.0996 15.0391 27.0996 18.457ZM42.7246 18.457C42.7246 21.7773 45.4102 24.5117 48.7793 24.5117C52.2461 24.5117 54.9316 21.7773 54.9316 18.457C54.9316 15.0391 52.2461 12.3047 48.7793 12.3047C45.4102 12.3047 42.7246 15.0391 42.7246 18.457ZM58.3496 18.457C58.3496 21.7773 61.0352 24.5117 64.4531 24.5117C67.8711 24.5117 70.5078 21.7773 70.5078 18.457C70.5078 15.0391 67.8711 12.3047 64.4531 12.3047C61.0352 12.3047 58.3496 15.0391 58.3496 18.457Z" fill="#000000" fill-opacity="0.85"/>
  <path d="M48.7793 82.7637L86.9629 82.7637C90.2344 82.7637 92.8711 80.0781 92.8711 76.8555C92.8711 73.584 90.2344 70.9473 86.9629 70.9473L48.7793 70.9473C45.5566 70.9473 42.8711 73.584 42.8711 76.8555C42.8711 80.0781 45.5566 82.7637 48.7793 82.7637Z" fill="#000000" fill-opacity="0.85"/>
 </g>
</svg>
