<?xml version="1.0" encoding="UTF-8"?>
<!--Generator: Apple Native CoreSVG 232.5-->
<!DOCTYPE svg
PUBLIC "-//W3C//DTD SVG 1.1//EN"
       "http://www.w3.org/Graphics/SVG/1.1/DTD/svg11.dtd">
<svg version="1.1" xmlns="http://www.w3.org/2000/svg" xmlns:xlink="http://www.w3.org/1999/xlink" width="99.6094" height="99.6582">
 <g>
  <rect height="99.6582" opacity="0" width="99.6094" x="0" y="0"/>
  <path d="M49.8047 99.6094C77.0508 99.6094 99.6094 77.002 99.6094 49.8047C99.6094 22.5586 77.002 0 49.7559 0C22.5586 0 0 22.5586 0 49.8047C0 77.002 22.6074 99.6094 49.8047 99.6094ZM49.8047 91.3086C26.7578 91.3086 8.34961 72.8516 8.34961 49.8047C8.34961 26.7578 26.709 8.30078 49.7559 8.30078C72.8027 8.30078 91.3086 26.7578 91.3086 49.8047C91.3086 72.8516 72.8516 91.3086 49.8047 91.3086Z" fill="#000000" fill-opacity="0.85"/>
  <path d="M49.7559 52.3926C50.5371 52.3926 51.2695 52.0996 52.002 51.416L76.0742 30.2246C74.707 29.3945 73.2422 29.0527 71.2891 29.0527L28.2715 29.0527C26.2207 29.0527 24.8047 29.3945 23.4863 30.2246L47.5098 51.416C48.2422 52.0996 49.0234 52.3926 49.7559 52.3926ZM21.3379 66.6016L39.0137 48.8281L21.2402 33.1543C20.9961 33.6426 20.7031 34.9121 20.7031 36.4746L20.7031 63.1348C20.7031 64.5996 20.9473 65.6738 21.3379 66.6016ZM27.5391 70.5566L71.9727 70.5566C73.6816 70.5566 75 70.1172 75.9277 69.5312L57.666 51.3184L54.248 54.3945C52.832 55.6152 51.2695 56.2012 49.7559 56.2012C48.2422 56.2012 46.6797 55.6152 45.3125 54.3945L41.8457 51.3184L23.584 69.5312C24.5117 70.1172 25.8301 70.5566 27.5391 70.5566ZM78.2227 66.5527C78.5645 65.6738 78.7598 64.5996 78.7598 63.1348L78.7598 36.4746C78.7598 34.9121 78.5156 33.6914 78.2715 33.1543L60.4492 48.8281Z" fill="#000000" fill-opacity="0.85"/>
 </g>
</svg>
