<?xml version="1.0" encoding="UTF-8"?>
<!--Generator: Apple Native CoreSVG 232.5-->
<!DOCTYPE svg
PUBLIC "-//W3C//DTD SVG 1.1//EN"
       "http://www.w3.org/Graphics/SVG/1.1/DTD/svg11.dtd">
<svg version="1.1" xmlns="http://www.w3.org/2000/svg" xmlns:xlink="http://www.w3.org/1999/xlink" width="99.6094" height="99.6582">
 <g>
  <rect height="99.6582" opacity="0" width="99.6094" x="0" y="0"/>
  <path d="M99.6094 49.8535C99.6094 77.0996 77.0508 99.6582 49.8047 99.6582C22.6074 99.6582 0 77.0996 0 49.8535C0 22.6562 22.5586 0.0488281 49.7559 0.0488281C77.002 0.0488281 99.6094 22.6562 99.6094 49.8535ZM54.4434 54.5898C52.9785 55.8594 51.3672 56.4941 49.8047 56.4941C48.2422 56.4941 46.6309 55.8594 45.2148 54.5898L41.6504 51.416L22.8027 70.2148C23.7793 70.8496 25.1465 71.2402 26.9043 71.2402L72.7051 71.2402C74.4629 71.2402 75.8301 70.8008 76.8066 70.2148L57.959 51.416ZM19.8242 36.1328L19.8242 63.5742C19.8242 65.1367 20.0684 66.2109 20.5078 67.1875L38.7207 48.877L20.4102 32.7148C20.166 33.252 19.8242 34.5215 19.8242 36.1328ZM60.8398 48.877L79.1504 67.1875C79.541 66.2109 79.7363 65.0879 79.7363 63.5742L79.7363 36.1328C79.7363 34.5215 79.4434 33.252 79.1992 32.7637ZM27.6367 28.4668C25.5371 28.4668 24.0723 28.8086 22.7051 29.6387L47.5098 51.5137C48.2422 52.1973 49.0723 52.4902 49.8047 52.4902C50.5859 52.4902 51.3672 52.1973 52.0996 51.5137L76.9531 29.6875C75.5371 28.8574 74.0234 28.4668 72.0215 28.4668Z" fill="#000000" fill-opacity="0.85"/>
 </g>
</svg>
