<?xml version="1.0" encoding="UTF-8"?>
<!--Generator: Apple Native CoreSVG 232.5-->
<!DOCTYPE svg
PUBLIC "-//W3C//DTD SVG 1.1//EN"
       "http://www.w3.org/Graphics/SVG/1.1/DTD/svg11.dtd">
<svg version="1.1" xmlns="http://www.w3.org/2000/svg" xmlns:xlink="http://www.w3.org/1999/xlink" width="99.6094" height="99.6582">
 <g>
  <rect height="99.6582" opacity="0" width="99.6094" x="0" y="0"/>
  <path d="M49.8047 99.6094C77.0508 99.6094 99.6094 77.002 99.6094 49.8047C99.6094 22.5586 77.002 0 49.7559 0C22.5586 0 0 22.5586 0 49.8047C0 77.002 22.6074 99.6094 49.8047 99.6094ZM49.8047 91.3086C26.7578 91.3086 8.34961 72.8516 8.34961 49.8047C8.34961 26.7578 26.709 8.30078 49.7559 8.30078C72.8027 8.30078 91.3086 26.7578 91.3086 49.8047C91.3086 72.8516 72.8516 91.3086 49.8047 91.3086Z" fill="#000000" fill-opacity="0.85"/>
  <path d="M31.3477 62.5977L68.1152 62.5977C70.6055 62.5977 72.3145 61.377 72.3145 58.9355C72.3145 56.4453 70.7031 55.1758 68.1152 55.1758L31.3477 55.1758C28.7109 55.1758 27.0996 56.4453 27.0996 58.9355C27.0996 61.377 28.8086 62.5977 31.3477 62.5977ZM31.3477 44.5801L68.1152 44.5801C70.6055 44.5801 72.3145 43.3594 72.3145 40.8691C72.3145 38.3789 70.7031 37.1094 68.1152 37.1094L31.3477 37.1094C28.7109 37.1094 27.0996 38.3789 27.0996 40.8691C27.0996 43.3594 28.8086 44.5801 31.3477 44.5801Z" fill="#000000" fill-opacity="0.85"/>
 </g>
</svg>
