<?xml version="1.0" encoding="UTF-8"?>
<!--Generator: Apple Native CoreSVG 232.5-->
<!DOCTYPE svg
PUBLIC "-//W3C//DTD SVG 1.1//EN"
       "http://www.w3.org/Graphics/SVG/1.1/DTD/svg11.dtd">
<svg version="1.1" xmlns="http://www.w3.org/2000/svg" xmlns:xlink="http://www.w3.org/1999/xlink" width="67.9688" height="39.6973">
 <g>
  <rect height="39.6973" opacity="0" width="67.9688" x="0" y="0"/>
  <path d="M4.3457 8.83789L63.623 8.83789C65.9668 8.83789 67.9688 6.83594 67.9688 4.44336C67.9688 2.05078 65.9668 0.0976562 63.623 0.0976562L4.3457 0.0976562C2.00195 0.0976562 0 2.05078 0 4.44336C0 6.83594 2.00195 8.83789 4.3457 8.83789ZM4.3457 39.6973L63.623 39.6973C65.9668 39.6973 67.9688 37.7441 67.9688 35.3516C67.9688 32.959 65.9668 30.957 63.623 30.957L4.3457 30.957C2.00195 30.957 0 32.959 0 35.3516C0 37.7441 2.00195 39.6973 4.3457 39.6973Z" fill="#000000" fill-opacity="0.85"/>
 </g>
</svg>
