<?xml version="1.0" encoding="UTF-8"?>
<!--Generator: Apple Native CoreSVG 232.5-->
<!DOCTYPE svg
PUBLIC "-//W3C//DTD SVG 1.1//EN"
       "http://www.w3.org/Graphics/SVG/1.1/DTD/svg11.dtd">
<svg version="1.1" xmlns="http://www.w3.org/2000/svg" xmlns:xlink="http://www.w3.org/1999/xlink" width="97.4223" height="98.244">
 <g>
  <rect height="98.244" opacity="0" width="97.4223" x="0" y="0"/>
  <path d="M5.66914 72.8769L24.5656 91.7245C31.9387 99.0488 40.1906 99.3417 47.1242 92.4081L94.1945 45.289C98.5402 40.9921 98.4914 34.791 94.048 30.3476L67.0461 3.39447C62.6027-1.04889 56.4504-1.14655 52.1047 3.19916L5.03438 50.2695C-1.89922 57.2519-1.65508 65.5038 5.66914 72.8769ZM11.2355 67.3105C7.47578 63.5019 7.28047 59.1562 10.8449 55.5429L57.3293 9.05853C58.5988 7.789 60.3566 7.789 61.5773 9.0097L88.4328 35.8652C89.6535 37.0859 89.6047 38.7949 88.384 40.0156L41.8508 86.5488C38.2863 90.162 33.9406 89.9667 30.132 86.1581ZM12.798 47.8769L49.5168 84.6445L54.3996 79.7617L17.7785 43.1406Z" fill="#000000" fill-opacity="0.85"/>
 </g>
</svg>
