<?xml version="1.0" encoding="UTF-8"?>
<!--Generator: Apple Native CoreSVG 232.5-->
<!DOCTYPE svg
PUBLIC "-//W3C//DTD SVG 1.1//EN"
       "http://www.w3.org/Graphics/SVG/1.1/DTD/svg11.dtd">
<svg version="1.1" xmlns="http://www.w3.org/2000/svg" xmlns:xlink="http://www.w3.org/1999/xlink" width="139.665" height="111.573">
 <g>
  <rect height="111.573" opacity="0" width="139.665" x="0" y="0"/>
  <path d="M94.1243 97.3639C94.1243 99.5123 92.3176 101.27 90.1692 101.27L61.0188 101.27L68.8801 93.4088L90.1692 93.4088C92.3176 93.4088 94.1243 95.2154 94.1243 97.3639Z" fill="#000000" fill-opacity="0.85"/>
  <path d="M132.943 97.3639C132.943 99.5123 131.185 101.27 129.036 101.27L104.769 101.27C102.62 101.27 100.814 99.5123 100.814 97.3639C100.814 95.2154 102.62 93.4088 104.769 93.4088L129.036 93.4088C131.185 93.4088 132.943 95.2154 132.943 97.3639Z" fill="#000000" fill-opacity="0.85"/>
  <path d="M12.3371 79.5416L31.2825 98.3892C38.6067 105.713 46.8586 106.006 53.8411 99.0728L100.863 51.9537C105.208 47.6568 105.159 41.4557 100.716 37.0123L73.7629 10.0592C69.3196 5.61581 63.1184 5.51815 58.7727 9.86385L11.7024 56.9342C4.76878 63.9166 5.06175 72.1685 12.3371 79.5416ZM17.9036 73.9752C14.1438 70.1666 13.9973 65.8209 17.5129 62.2076L64.0461 15.7232C65.2668 14.4537 67.0246 14.4537 68.2453 15.6744L95.1008 42.5299C96.3215 43.7506 96.2727 45.4596 95.052 46.6803L48.5188 93.2135C44.9543 96.8267 40.6086 96.6314 36.8489 92.8228ZM19.4661 54.5416L56.1848 91.3092L61.0676 86.4264L24.4465 49.8053Z" fill="#000000" fill-opacity="0.85"/>
 </g>
</svg>
