<?xml version="1.0" encoding="UTF-8"?>
<!--Generator: Apple Native CoreSVG 232.5-->
<!DOCTYPE svg
PUBLIC "-//W3C//DTD SVG 1.1//EN"
       "http://www.w3.org/Graphics/SVG/1.1/DTD/svg11.dtd">
<svg version="1.1" xmlns="http://www.w3.org/2000/svg" xmlns:xlink="http://www.w3.org/1999/xlink" width="99.5605" height="99.5692">
 <g>
  <rect height="99.5692" opacity="0" width="99.5605" x="0" y="0"/>
  <path d="M49.7559 99.5649C77.002 99.5649 99.5605 76.9575 99.5605 49.7602C99.5605 22.5141 77.2949 0.639093 50.9766 0.00432718C48.1445-0.0933291 45.9961 1.46917 45.9961 3.95941C45.9961 6.2055 47.5586 8.1098 50.3906 8.20745C73.291 8.93987 91.2109 26.7133 91.2598 49.7602C91.3086 72.8071 72.8027 91.2641 49.7559 91.2641C25.7324 91.2641 8.30078 71.8305 8.30078 49.6137C8.30078 46.7817 6.29883 45.2192 4.05273 45.2192C1.5625 45.2192 0 47.3188 0 50.1996C0.0488281 76.8598 22.5586 99.5649 49.7559 99.5649Z" fill="#000000" fill-opacity="0.85"/>
  <path d="M46.1914 51.6157C48.6816 51.6157 50.4883 49.7602 50.4883 47.3188C50.4883 46.1957 50 45.0239 49.1211 44.145L23.6328 18.7055L14.2578 10.3559C19.6777 11.0395 26.5137 10.9907 28.9062 10.9907C31.1035 10.9907 32.8613 9.18401 32.8613 6.98675C32.8613 4.78948 31.1035 3.03167 28.9062 3.03167L6.98242 3.03167C3.75977 3.03167 2.00195 4.74066 2.00195 7.96331L2.00195 29.8871C2.00195 32.0844 3.80859 33.8422 5.95703 33.8422C8.10547 33.8422 9.86328 32.0844 9.86328 29.8871C9.86328 27.5922 9.86328 20.268 9.375 15.2387L17.627 24.6625L43.1152 50.1996C44.043 51.1274 45.0684 51.6157 46.1914 51.6157Z" fill="#000000" fill-opacity="0.85"/>
 </g>
</svg>
