<?xml version="1.0" encoding="UTF-8"?>
<!--Generator: Apple Native CoreSVG 232.5-->
<!DOCTYPE svg
PUBLIC "-//W3C//DTD SVG 1.1//EN"
       "http://www.w3.org/Graphics/SVG/1.1/DTD/svg11.dtd">
<svg version="1.1" xmlns="http://www.w3.org/2000/svg" xmlns:xlink="http://www.w3.org/1999/xlink" width="89.8926" height="89.9902">
 <g>
  <rect height="89.9902" opacity="0" width="89.8926" x="0" y="0"/>
  <path d="M15.332 89.9902L74.5605 89.9902C84.8145 89.9902 89.8926 84.9121 89.8926 74.8535L89.8926 15.2344C89.8926 5.17578 84.8145 0.0976562 74.5605 0.0976562L15.332 0.0976562C5.12695 0.0976562 0 5.12695 0 15.2344L0 74.8535C0 84.9609 5.12695 89.9902 15.332 89.9902ZM15.4297 82.1289C10.5469 82.1289 7.86133 79.541 7.86133 74.4629L7.86133 15.625C7.86133 10.5469 10.5469 7.95898 15.4297 7.95898L74.4629 7.95898C79.2969 7.95898 82.0312 10.5469 82.0312 15.625L82.0312 74.4629C82.0312 79.541 79.2969 82.1289 74.4629 82.1289Z" fill="#000000" fill-opacity="0.85"/>
  <path d="M23.4863 64.6484L38.1836 64.6484C39.9902 64.6484 41.2598 63.623 41.2598 61.8164C41.2598 59.8633 39.7949 58.9355 38.1836 58.9355L27.0508 58.9355L27.0508 47.3633L37.7441 47.3633C39.3066 47.3633 40.4297 46.4844 40.4297 44.6777C40.4297 42.8223 39.3555 41.9434 37.7441 41.9434L27.0508 41.9434L27.0508 31.0059L38.1836 31.0059C39.7949 31.0059 41.2598 30.0781 41.2598 28.0762C41.2598 26.3184 39.9414 25.2441 38.1836 25.2441L23.4863 25.2441C21.2891 25.2441 20.1172 26.709 20.1172 28.8086L20.1172 61.084C20.1172 63.0859 21.2402 64.6484 23.4863 64.6484ZM49.9512 64.6484L67.9199 64.6484C69.6289 64.6484 70.752 63.4277 70.752 61.7676C70.752 60.1074 69.6289 58.9355 67.9199 58.9355L54.248 58.9355L54.248 58.4473L69.2871 31.3965C69.6777 30.6641 70.0684 29.8828 70.0684 28.6621C70.0684 26.3184 68.4082 25.2441 66.5527 25.2441L49.5605 25.2441C47.8027 25.2441 46.5332 26.416 46.5332 28.125C46.5332 29.834 47.8027 31.0059 49.5605 31.0059L62.5488 31.0059L62.5488 31.2012L47.2168 58.5938C46.875 59.2285 46.4844 60.3516 46.4844 61.4258C46.4844 63.4277 47.9492 64.6484 49.9512 64.6484Z" fill="#000000" fill-opacity="0.85"/>
 </g>
</svg>
