<?xml version="1.0" encoding="UTF-8"?>
<!--Generator: Apple Native CoreSVG 232.5-->
<!DOCTYPE svg
PUBLIC "-//W3C//DTD SVG 1.1//EN"
       "http://www.w3.org/Graphics/SVG/1.1/DTD/svg11.dtd">
<svg version="1.1" xmlns="http://www.w3.org/2000/svg" xmlns:xlink="http://www.w3.org/1999/xlink" width="84.1309" height="89.209">
 <g>
  <rect height="89.209" opacity="0" width="84.1309" x="0" y="0"/>
  <path d="M49.8047 89.1602C65.2832 89.1602 78.5156 82.4707 83.3984 68.8477C83.8867 67.5781 84.082 66.2598 84.082 65.2344C84.082 62.6953 82.4707 61.0352 79.9316 61.0352C77.6855 61.0352 76.2695 62.3047 75.2441 64.9414C71.4355 75.6348 61.8164 80.5176 49.8535 80.5176C32.5195 80.5176 20.166 66.5039 20.166 44.4336C20.166 22.7051 32.5195 8.69141 49.8047 8.69141C61.7188 8.69141 71.2891 15.0391 75.1465 25.6836C76.123 28.2715 77.6367 29.5898 79.9316 29.5898C82.4219 29.5898 84.1309 27.8809 84.1309 25.3418C84.1309 24.3164 83.9355 22.998 83.3984 21.7285C78.7109 8.74023 66.5527 0 49.8047 0C26.709 0 10.6934 17.3828 10.6934 44.4336C10.6934 71.7773 26.6113 89.1602 49.8047 89.1602ZM3.125 39.0137L55.9082 39.0137C57.7637 39.0137 59.082 37.5977 59.082 35.8398C59.082 33.9355 57.7637 32.6172 55.9082 32.6172L3.125 32.6172C1.31836 32.6172 0 33.9355 0 35.8398C0 37.5977 1.36719 39.0137 3.125 39.0137ZM3.125 56.543L55.9082 56.543C57.7637 56.543 59.082 55.127 59.082 53.3691C59.082 51.4648 57.7637 50.1465 55.9082 50.1465L3.125 50.1465C1.36719 50.1465 0 51.4648 0 53.3691C0 55.127 1.31836 56.543 3.125 56.543Z" fill="#000000" fill-opacity="0.85"/>
 </g>
</svg>
