<?xml version="1.0" encoding="UTF-8"?>
<!--Generator: Apple Native CoreSVG 232.5-->
<!DOCTYPE svg
PUBLIC "-//W3C//DTD SVG 1.1//EN"
       "http://www.w3.org/Graphics/SVG/1.1/DTD/svg11.dtd">
<svg version="1.1" xmlns="http://www.w3.org/2000/svg" xmlns:xlink="http://www.w3.org/1999/xlink" width="109.095" height="99.6582">
 <g>
  <rect height="99.6582" opacity="0" width="109.095" x="0" y="0"/>
  <path d="M59.2839 99.6094C86.4812 99.6094 109.089 77.002 109.089 49.8047C109.089 22.5586 86.4812 0 59.2839 0C32.0378 0 9.47924 22.5098 9.47924 49.7559L17.78 49.7559C17.78 26.709 36.2371 8.34961 59.2839 8.34961C82.3308 8.34961 100.788 26.7578 100.788 49.8047C100.788 72.8516 82.3308 91.4062 59.2839 91.3086C45.3679 91.2598 33.1609 84.5215 25.6902 74.1211C24.1765 72.1191 21.8816 71.4844 19.8308 72.7051C17.8777 73.9258 17.3406 76.6113 19.0007 78.7598C28.2781 91.2109 42.8289 99.6094 59.2839 99.6094ZM3.47339 40.3809C-0.04224 40.3809-0.921146 42.7734 0.983151 45.5078L11.9207 61.0352C13.532 63.2812 15.8757 63.2324 17.4382 61.0352L28.3757 45.459C30.2312 42.7734 29.3523 40.3809 25.8855 40.3809Z" fill="#000000" fill-opacity="0.85"/>
  <path d="M38.7761 69.4824L53.4734 69.4824C55.28 69.4824 56.5007 68.457 56.5007 66.6504C56.5007 64.6973 55.0359 63.7695 53.4734 63.7695L42.2917 63.7695L42.2917 52.1973L53.0339 52.1973C54.5964 52.1973 55.7195 51.3184 55.7195 49.5117C55.7195 47.6562 54.6453 46.7773 53.0339 46.7773L42.2917 46.7773L42.2917 35.8398L53.4734 35.8398C55.0359 35.8398 56.5007 34.9121 56.5007 32.9102C56.5007 31.1523 55.2312 30.0781 53.4734 30.0781L38.7761 30.0781C36.5789 30.0781 35.407 31.543 35.407 33.6426L35.407 65.918C35.407 67.9199 36.53 69.4824 38.7761 69.4824ZM65.1921 69.4824L83.2097 69.4824C84.8699 69.4824 85.9929 68.2617 85.9929 66.6016C85.9929 64.9414 84.8699 63.7695 83.2097 63.7695L69.489 63.7695L69.489 63.2812L84.5281 36.2305C84.9187 35.498 85.3582 34.7168 85.3582 33.4961C85.3582 31.1523 83.698 30.0781 81.8425 30.0781L64.8503 30.0781C63.0437 30.0781 61.823 31.25 61.823 32.959C61.823 34.668 63.0437 35.8398 64.8503 35.8398L77.7898 35.8398L77.7898 36.0352L62.4578 63.4277C62.1648 64.0625 61.7742 65.1855 61.7742 66.2598C61.7742 68.2617 63.1902 69.4824 65.1921 69.4824Z" fill="#000000" fill-opacity="0.85"/>
 </g>
</svg>
