<?xml version="1.0" encoding="UTF-8"?>
<!--Generator: Apple Native CoreSVG 232.5-->
<!DOCTYPE svg
PUBLIC "-//W3C//DTD SVG 1.1//EN"
       "http://www.w3.org/Graphics/SVG/1.1/DTD/svg11.dtd">
<svg version="1.1" xmlns="http://www.w3.org/2000/svg" xmlns:xlink="http://www.w3.org/1999/xlink" width="109.033" height="82.5684">
 <g>
  <rect height="82.5684" opacity="0" width="109.033" x="0" y="0"/>
  <path d="M4.88281 82.4707L39.7949 82.4707C42.4805 82.4707 44.3359 80.7617 44.3359 78.125C44.3359 75.4883 42.3828 73.7305 39.7949 73.7305L9.91211 73.7305L9.91211 44.5312L38.3301 44.5312C41.0645 44.5312 42.627 42.6758 42.627 40.3809C42.627 37.8418 40.8691 36.1328 38.3301 36.1328L9.91211 36.1328L9.91211 8.74023L39.7949 8.74023C42.3828 8.74023 44.3359 7.08008 44.3359 4.39453C44.3359 1.70898 42.4805 0 39.7949 0L4.88281 0C2.19727 0 0 1.75781 0 5.22461L0 77.2949C0 80.7617 2.19727 82.4707 4.88281 82.4707ZM62.0117 82.4707L104.688 82.4707C107.324 82.4707 109.033 80.8105 109.033 78.125C109.033 75.4395 107.324 73.6816 104.688 73.6816L68.6035 73.6816L68.6035 73.2422L106.494 9.375C107.227 8.1543 107.959 6.83594 107.959 5.07812C107.959 1.95312 105.859 0 102.686 0L61.8652 0C59.2285 0 57.373 1.85547 57.373 4.39453C57.373 6.98242 59.2285 8.78906 61.8652 8.78906L96.3867 8.78906L96.3867 9.13086L58.252 73.0957C57.373 74.5605 56.8848 75.7812 56.8848 77.4902C56.8848 80.4688 58.9355 82.4707 62.0117 82.4707Z" fill="#000000" fill-opacity="0.85"/>
 </g>
</svg>
