<?xml version="1.0" encoding="UTF-8"?>
<!--Generator: Apple Native CoreSVG 232.5-->
<!DOCTYPE svg
PUBLIC "-//W3C//DTD SVG 1.1//EN"
       "http://www.w3.org/Graphics/SVG/1.1/DTD/svg11.dtd">
<svg version="1.1" xmlns="http://www.w3.org/2000/svg" xmlns:xlink="http://www.w3.org/1999/xlink" width="99.6094" height="99.6582">
 <g>
  <rect height="99.6582" opacity="0" width="99.6094" x="0" y="0"/>
  <path d="M49.8047 99.6094C77.0508 99.6094 99.6094 77.002 99.6094 49.8047C99.6094 22.5586 77.002 0 49.7559 0C22.5586 0 0 22.5586 0 49.8047C0 77.002 22.6074 99.6094 49.8047 99.6094ZM49.8047 91.3086C26.7578 91.3086 8.34961 72.8516 8.34961 49.8047C8.34961 26.7578 26.709 8.30078 49.7559 8.30078C72.8027 8.30078 91.3086 26.7578 91.3086 49.8047C91.3086 72.8516 72.8516 91.3086 49.8047 91.3086Z" fill="#000000" fill-opacity="0.85"/>
  <path d="M50.7812 73.3887C59.082 73.3887 65.6738 69.873 68.2129 62.7441C68.5059 61.9629 68.7012 61.1328 68.7012 60.2539C68.7012 58.4961 67.4805 57.2754 65.7227 57.2754C64.0625 57.2754 63.0859 58.2031 62.5488 59.8633C61.1816 64.8438 56.3965 67.5293 50.9766 67.5293C42.5293 67.5293 37.9395 59.4238 37.9395 49.9023C37.9395 40.3809 42.627 32.373 50.9766 32.373C56.0059 32.373 60.6934 35.1562 62.207 40.1855C62.793 42.041 63.623 42.7246 65.332 42.7246C67.1875 42.7246 68.3594 41.5527 68.3594 39.7461C68.3594 38.916 68.1641 38.0859 67.8711 37.3047C65.4785 30.7129 58.7402 26.5137 50.7812 26.5137C39.0137 26.5137 31.3965 35.9863 31.3965 49.9023C31.3965 63.3789 38.3789 73.3887 50.7812 73.3887ZM27.5391 47.2168L51.9043 47.2168C53.2715 47.2168 54.2969 46.1426 54.2969 44.8242C54.2969 43.3594 53.2715 42.3828 51.9043 42.3828L27.5391 42.3828C26.1719 42.3828 25.1465 43.3594 25.1465 44.8242C25.1465 46.1426 26.1719 47.2168 27.5391 47.2168ZM27.5391 57.1289L51.9043 57.1289C53.2715 57.1289 54.2969 56.0547 54.2969 54.6875C54.2969 53.2715 53.2715 52.2949 51.9043 52.2949L27.5391 52.2949C26.1719 52.2949 25.1465 53.2715 25.1465 54.6875C25.1465 56.0547 26.1719 57.1289 27.5391 57.1289Z" fill="#000000" fill-opacity="0.85"/>
 </g>
</svg>
