<?xml version="1.0" encoding="UTF-8"?>
<!--Generator: Apple Native CoreSVG 232.5-->
<!DOCTYPE svg
PUBLIC "-//W3C//DTD SVG 1.1//EN"
       "http://www.w3.org/Graphics/SVG/1.1/DTD/svg11.dtd">
<svg version="1.1" xmlns="http://www.w3.org/2000/svg" xmlns:xlink="http://www.w3.org/1999/xlink" width="99.6094" height="99.6582">
 <g>
  <rect height="99.6582" opacity="0" width="99.6094" x="0" y="0"/>
  <path d="M49.8047 99.6094C77.0508 99.6094 99.6094 77.002 99.6094 49.8047C99.6094 22.5586 77.002 0 49.7559 0C22.5586 0 0 22.5586 0 49.8047C0 77.002 22.6074 99.6094 49.8047 99.6094ZM49.8047 91.3086C26.7578 91.3086 8.34961 72.8516 8.34961 49.8047C8.34961 26.7578 26.709 8.30078 49.7559 8.30078C72.8027 8.30078 91.3086 26.7578 91.3086 49.8047C91.3086 72.8516 72.8516 91.3086 49.8047 91.3086Z" fill="#000000" fill-opacity="0.85"/>
  <path d="M28.2715 69.4824L42.9688 69.4824C44.7754 69.4824 46.0449 68.457 46.0449 66.6504C46.0449 64.6973 44.5312 63.7695 42.9688 63.7695L31.8359 63.7695L31.8359 52.1973L42.5293 52.1973C44.0918 52.1973 45.2148 51.3184 45.2148 49.5117C45.2148 47.6562 44.1406 46.7773 42.5293 46.7773L31.8359 46.7773L31.8359 35.8398L42.9688 35.8398C44.5312 35.8398 46.0449 34.9121 46.0449 32.9102C46.0449 31.1523 44.7266 30.0781 42.9688 30.0781L28.2715 30.0781C26.0742 30.0781 24.9023 31.543 24.9023 33.6426L24.9023 65.918C24.9023 67.9199 26.0254 69.4824 28.2715 69.4824ZM54.7363 69.4824L72.7051 69.4824C74.3652 69.4824 75.5371 68.2617 75.5371 66.6016C75.5371 64.9414 74.3652 63.7695 72.7051 63.7695L59.0332 63.7695L59.0332 63.2812L74.0723 36.2305C74.4629 35.498 74.8535 34.7168 74.8535 33.4961C74.8535 31.1523 73.1934 30.0781 71.3379 30.0781L54.3457 30.0781C52.5879 30.0781 51.3184 31.25 51.3184 32.959C51.3184 34.668 52.5879 35.8398 54.3457 35.8398L67.334 35.8398L67.334 36.0352L52.002 63.4277C51.6602 64.0625 51.2695 65.1855 51.2695 66.2598C51.2695 68.2617 52.7344 69.4824 54.7363 69.4824Z" fill="#000000" fill-opacity="0.85"/>
 </g>
</svg>
