<?xml version="1.0" encoding="UTF-8"?>
<!--Generator: Apple Native CoreSVG 232.5-->
<!DOCTYPE svg
PUBLIC "-//W3C//DTD SVG 1.1//EN"
       "http://www.w3.org/Graphics/SVG/1.1/DTD/svg11.dtd">
<svg version="1.1" xmlns="http://www.w3.org/2000/svg" xmlns:xlink="http://www.w3.org/1999/xlink" width="109.095" height="99.6582">
 <g>
  <rect height="99.6582" opacity="0" width="109.095" x="0" y="0"/>
  <path d="M59.2839 99.6094C86.4812 99.6094 109.089 77.002 109.089 49.8047C109.089 22.5586 86.4812 0 59.2839 0C32.0378 0 9.47924 22.5098 9.47924 49.7559L17.78 49.7559C17.78 26.709 36.2371 8.34961 59.2839 8.34961C82.3308 8.34961 100.788 26.7578 100.788 49.8047C100.788 72.8516 82.3308 91.4062 59.2839 91.3086C45.3679 91.2598 33.1609 84.5215 25.6902 74.1211C24.1765 72.1191 21.8816 71.4844 19.8308 72.7051C17.8777 73.9258 17.3406 76.6113 19.0007 78.7598C28.2781 91.2109 42.8289 99.6094 59.2839 99.6094ZM3.47339 40.3809C-0.04224 40.3809-0.921146 42.7734 0.983151 45.5078L11.9207 61.0352C13.532 63.2812 15.8757 63.2324 17.4382 61.0352L28.3757 45.459C30.2312 42.7734 29.3523 40.3809 25.8855 40.3809Z" fill="#000000" fill-opacity="0.85"/>
  <path d="M60.3093 73.3887C68.6101 73.3887 75.1531 69.873 77.741 62.7441C77.9851 61.9629 78.1804 61.1328 78.1804 60.2539C78.1804 58.4961 77.0085 57.2754 75.2019 57.2754C73.5417 57.2754 72.5652 58.2031 72.0281 59.8633C70.6609 64.8438 65.9246 67.5293 60.5046 67.5293C52.0085 67.5293 47.4675 59.4238 47.4675 49.9023C47.4675 40.3809 52.155 32.373 60.5046 32.373C65.5339 32.373 70.2214 35.1562 71.6863 40.1855C72.2722 42.041 73.1511 42.7246 74.8601 42.7246C76.6667 42.7246 77.8874 41.5527 77.8386 39.7461C77.8386 38.916 77.6433 38.0859 77.3992 37.3047C75.0066 30.7129 68.2683 26.5137 60.3093 26.5137C48.5417 26.5137 40.9246 35.9863 40.9246 49.9023C40.9246 63.3789 47.8582 73.3887 60.3093 73.3887ZM37.0671 47.2168L61.4324 47.2168C62.7996 47.2168 63.7761 46.1426 63.7761 44.8242C63.7761 43.3594 62.7996 42.3828 61.4324 42.3828L37.0671 42.3828C35.6511 42.3828 34.6746 43.3594 34.6746 44.8242C34.6746 46.1426 35.6511 47.2168 37.0671 47.2168ZM37.0671 57.1289L61.4324 57.1289C62.7996 57.1289 63.7761 56.0547 63.7761 54.6875C63.7761 53.2715 62.7996 52.2949 61.4324 52.2949L37.0671 52.2949C35.6511 52.2949 34.6746 53.2715 34.6746 54.6875C34.6746 56.0547 35.6511 57.1289 37.0671 57.1289Z" fill="#000000" fill-opacity="0.85"/>
 </g>
</svg>
