<?xml version="1.0" encoding="UTF-8"?>
<!--Generator: Apple Native CoreSVG 232.5-->
<!DOCTYPE svg
PUBLIC "-//W3C//DTD SVG 1.1//EN"
       "http://www.w3.org/Graphics/SVG/1.1/DTD/svg11.dtd">
<svg version="1.1" xmlns="http://www.w3.org/2000/svg" xmlns:xlink="http://www.w3.org/1999/xlink" width="154.029" height="108.936">
 <g>
  <rect height="108.936" opacity="0" width="154.029" x="0" y="0"/>
  <path d="M76.7214 105.273L76.7214 12.4023C76.7214 4.39453 72.3269 0 64.3191 0L20.032 0C11.9753 0 7.72729 4.39453 7.72729 12.4023L7.72729 105.273L15.5398 105.273L15.5886 12.5C15.5886 9.47266 17.0535 7.86133 20.1785 7.86133L64.1726 7.86133C67.1999 7.86133 68.8113 9.42383 68.8113 12.5L68.8113 105.273ZM0.0124417 104.932C0.0124417 107.129 1.72143 108.936 3.86986 108.936L80.4812 108.936C82.6296 108.936 84.3874 107.129 84.3874 104.932C84.3874 102.832 82.6296 101.074 80.4812 101.074L3.86986 101.074C1.77025 101.074 0.0124417 102.783 0.0124417 104.932ZM26.5749 53.7598L57.7761 53.7598C61.0476 53.7598 63.2937 51.8066 63.2937 48.8281L63.2937 19.2383C63.2937 16.2598 60.9988 14.209 57.7761 14.209L26.5749 14.209C23.3523 14.209 21.155 16.2598 21.155 19.2383L21.155 48.8281C21.155 51.8066 23.3523 53.7598 26.5749 53.7598ZM90.7351 32.1289L96.2527 32.1289L96.3015 21.2402C96.3015 19.7266 95.032 18.457 93.5183 18.457C91.9558 18.457 90.7351 19.7266 90.7351 21.2402ZM109.143 32.1289L109.143 21.2402C109.143 19.7266 107.923 18.457 106.311 18.457C104.846 18.457 103.577 19.7266 103.577 21.2402L103.577 32.1289ZM74.4753 64.3066L77.2097 64.3066C79.4558 64.3066 80.823 65.5762 80.823 68.0176L80.823 84.1797C80.823 91.1133 85.0222 95.3125 91.9558 95.3125C98.8894 95.3125 103.04 91.1133 103.04 84.1797L103.04 58.9355C103.04 54.1016 106.653 52.7344 108.948 50.9766C112.464 48.3398 114.319 44.6777 114.319 40.332L114.319 33.0078C114.319 31.8359 113.684 31.1523 112.61 31.1523L86.5847 31.1523C85.5105 31.1523 84.8269 31.8359 84.8269 33.0078L84.8269 40.332C84.8269 44.6777 86.7312 48.3398 90.2468 50.9766C92.5417 52.7344 96.155 54.1016 96.155 58.9355L96.155 84.1797C96.155 86.8164 94.5437 88.4277 91.9558 88.4277C89.3191 88.4277 87.7566 86.8164 87.7566 84.1797L87.7566 68.0176C87.7566 61.2793 83.7527 57.4219 77.2097 57.4219L74.4753 57.4219Z" fill="#000000" fill-opacity="0.85"/>
  <path d="M152.6 52.6855L127.503 37.793C125.598 36.6699 123.059 37.5977 123.059 39.6484L123.059 70.4102C123.059 72.5098 125.452 73.4863 127.503 72.2656L152.6 57.4707C154.553 56.3477 154.456 53.7598 152.6 52.6855Z" fill="#000000" fill-opacity="0.85"/>
 </g>
</svg>
