<?xml version="1.0" encoding="UTF-8"?>
<!--Generator: Apple Native CoreSVG 232.5-->
<!DOCTYPE svg
PUBLIC "-//W3C//DTD SVG 1.1//EN"
       "http://www.w3.org/Graphics/SVG/1.1/DTD/svg11.dtd">
<svg version="1.1" xmlns="http://www.w3.org/2000/svg" xmlns:xlink="http://www.w3.org/1999/xlink" width="145.044" height="108.936">
 <g>
  <rect height="108.936" opacity="0" width="145.044" x="0" y="0"/>
  <path d="M107.385 105.273L107.385 12.4023C107.385 4.39453 102.991 0 95.032 0L55.6765 0C47.6199 0 43.3718 4.39453 43.3718 12.4023L43.3718 105.273ZM57.2878 50.9766C53.7234 50.9766 51.6238 49.0234 51.6238 45.752L51.6238 13.5254C51.6238 10.2539 53.7234 8.25195 57.2878 8.25195L93.4206 8.25195C96.9851 8.25195 99.1824 10.2539 99.1824 13.5254L99.1824 45.752C99.1824 49.0234 96.9851 50.9766 93.4206 50.9766ZM35.657 104.932C35.657 107.129 37.4148 108.936 39.5144 108.936L111.194 108.936C113.294 108.936 115.1 107.129 115.1 104.932C115.1 102.832 113.294 101.074 111.194 101.074L39.5144 101.074C37.4636 101.074 35.657 102.783 35.657 104.932ZM121.399 32.1289L126.966 32.1289L126.966 21.2402C126.966 19.7266 125.696 18.457 124.231 18.457C122.62 18.457 121.399 19.7266 121.399 21.2402ZM139.807 32.1289L139.807 21.2402C139.807 19.7266 138.587 18.457 137.024 18.457C135.51 18.457 134.241 19.7266 134.241 21.2402L134.29 32.1289ZM105.188 64.3066L107.874 64.3066C110.12 64.3066 111.536 65.5762 111.536 68.0176L111.536 84.1797C111.536 91.1133 115.735 95.3125 122.669 95.3125C129.553 95.3125 133.704 91.1133 133.704 84.1797L133.704 58.9355C133.704 54.1016 137.317 52.7344 139.612 50.9766C143.128 48.3398 145.032 44.6777 145.032 40.332L145.032 33.0078C145.032 31.8359 144.348 31.1523 143.274 31.1523L117.249 31.1523C116.175 31.1523 115.491 31.8359 115.491 33.0078L115.491 40.332C115.491 44.6777 117.395 48.3398 120.911 50.9766C123.206 52.7344 126.819 54.1016 126.819 58.9355L126.819 84.1797C126.819 86.8164 125.257 88.4277 122.669 88.4277C119.983 88.4277 118.421 86.8164 118.421 84.1797L118.421 68.0176C118.421 61.2793 114.417 57.4219 107.874 57.4219L105.188 57.4219Z" fill="#000000" fill-opacity="0.85"/>
  <path d="M1.42846 52.0996C-0.427011 53.1738-0.524668 55.7617 1.42846 56.8848L26.5261 71.6797C28.5769 72.9004 30.9695 71.9238 30.9695 69.8242L30.9695 39.0625C30.9695 37.0117 28.4304 36.084 26.5261 37.207Z" fill="#000000" fill-opacity="0.85"/>
 </g>
</svg>
