<?xml version="1.0" encoding="UTF-8"?>
<!--Generator: Apple Native CoreSVG 232.5-->
<!DOCTYPE svg
PUBLIC "-//W3C//DTD SVG 1.1//EN"
       "http://www.w3.org/Graphics/SVG/1.1/DTD/svg11.dtd">
<svg version="1.1" xmlns="http://www.w3.org/2000/svg" xmlns:xlink="http://www.w3.org/1999/xlink" width="148.462" height="133.008">
 <g>
  <rect height="133.008" opacity="0" width="148.462" x="0" y="0"/>
  <path d="M35.5103 57.3522L35.5103 57.7882C35.5103 61.0597 37.6099 63.0128 41.1743 63.0128L41.1787 63.0128L91.272 113.037L91.272 113.11L91.3459 113.11L97.9237 119.679C97.205 120.474 96.1832 120.972 95.0806 120.972L23.4009 120.972C21.3013 120.972 19.5435 119.165 19.5435 116.968C19.5435 114.819 21.3501 113.11 23.4009 113.11L27.3071 113.11L27.3071 49.1604ZM123.694 33.2765L123.694 43.1886L127.161 43.1886C128.235 43.1886 128.918 43.8722 128.918 45.0441L128.918 52.3683C128.918 56.714 127.014 60.3761 123.499 63.0128C121.204 64.7706 117.59 66.1378 117.59 70.9718L117.59 96.2159C117.59 101.295 115.389 104.907 111.479 106.467L105.345 100.336C105.715 100.422 106.121 100.464 106.555 100.464C109.143 100.464 110.706 98.8527 110.706 96.2159L110.706 70.9718C110.706 66.1378 107.092 64.7706 104.797 63.0128C101.331 60.3761 99.4263 56.714 99.4263 52.3683L99.4263 45.0441C99.4263 43.8722 100.061 43.1886 101.184 43.1886L105.334 43.1886L105.334 33.2765C105.334 31.7628 106.506 30.4933 108.118 30.4933C109.583 30.4933 110.852 31.7628 110.852 33.2765L110.852 43.1886L118.172 43.1886L118.127 33.2765C118.127 31.7628 119.397 30.4933 120.911 30.4933C122.473 30.4933 123.694 31.7628 123.694 33.2765ZM68.0049 63.0128L77.356 63.0128C80.8716 63.0128 83.0688 61.0597 83.0688 57.7882L83.0688 25.5616C83.0688 22.2902 80.8716 20.2882 77.356 20.2882L41.1743 20.2882C37.6099 20.2882 35.5103 22.2902 35.5103 25.5616L35.5103 30.5332L27.415 22.4417C28.075 15.6995 32.256 12.0363 39.6118 12.0363L78.9185 12.0363C86.8774 12.0363 91.272 16.4308 91.272 24.4386L91.272 69.4581L91.7603 69.4581C98.3521 69.4581 102.307 73.3156 102.307 80.0538L102.307 96.2159C102.307 96.6496 102.349 97.0555 102.436 97.428L95.4224 90.4176L95.4224 80.0538C95.4224 77.6124 94.0063 76.3429 91.7603 76.3429L91.272 76.3429L91.272 86.2691Z" fill="#000000" fill-opacity="0.85"/>
  <path d="M112.512 126.245C114.026 127.71 116.418 127.71 117.834 126.245C119.299 124.732 119.348 122.339 117.834 120.874L12.1216 15.2589C10.6567 13.7941 8.26416 13.7941 6.75049 15.2589C5.33447 16.6749 5.33447 19.1652 6.75049 20.5812Z" fill="#000000" fill-opacity="0.85"/>
 </g>
</svg>
