<?xml version="1.0" encoding="UTF-8"?>
<!--Generator: Apple Native CoreSVG 232.5-->
<!DOCTYPE svg
PUBLIC "-//W3C//DTD SVG 1.1//EN"
       "http://www.w3.org/Graphics/SVG/1.1/DTD/svg11.dtd">
<svg version="1.1" xmlns="http://www.w3.org/2000/svg" xmlns:xlink="http://www.w3.org/1999/xlink" width="83.4473" height="124.268">
 <g>
  <rect height="124.268" opacity="0" width="83.4473" x="0" y="0"/>
  <path d="M41.748 71.6309C62.5977 71.6309 79.0527 55.2246 79.0527 35.498C79.0527 25.1953 74.5117 15.7227 68.0176 9.57031C65.2832 6.98242 62.207 5.81055 58.1055 5.81055L25.3418 5.81055C21.2891 5.81055 18.2129 6.98242 15.4785 9.57031C8.93555 15.7227 4.44336 25.1953 4.44336 35.498C4.44336 55.2246 20.8496 71.6309 41.748 71.6309ZM41.748 64.502C23.877 64.502 11.5234 52.1973 11.5234 35.498C11.5234 26.8555 14.7949 19.9219 20.3125 14.7949C22.0703 13.1836 22.6074 12.9395 25.3418 12.9395L58.1055 12.9395C60.8398 12.9395 61.4258 13.1836 63.1348 14.7949C68.6523 19.9219 71.9727 26.8555 71.9727 35.498C71.9727 52.1973 59.6191 64.502 41.748 64.502ZM24.7559 124.268L58.6426 124.268C72.6562 124.268 83.4473 113.33 83.4473 99.4629C83.4473 85.5957 72.6562 74.6582 58.6426 74.6582L24.7559 74.6582C10.791 74.6582 0 85.5957 0 99.4629C0 113.33 10.791 124.268 24.7559 124.268ZM24.7559 117.139C14.7461 117.139 7.03125 109.473 7.03125 99.4629C7.03125 89.4531 14.7461 81.7871 24.7559 81.7871L58.6426 81.7871C68.7012 81.7871 76.416 89.4531 76.416 99.4629C76.416 109.473 68.7012 117.139 58.6426 117.139Z" fill="#000000" fill-opacity="0.85"/>
  <path d="M32.3242 27.0996C35.4492 27.0996 37.9395 24.6094 37.9395 21.4844C37.9395 18.3594 35.4492 15.8691 32.3242 15.8691C29.1992 15.8691 26.709 18.3594 26.709 21.4844C26.709 24.6094 29.1992 27.0996 32.3242 27.0996ZM51.1719 27.0996C54.248 27.0996 56.7383 24.6094 56.7383 21.4844C56.7383 18.3594 54.248 15.8691 51.1719 15.8691C48.0469 15.8691 45.5566 18.3594 45.5566 21.4844C45.5566 24.6094 48.0469 27.0996 51.1719 27.0996ZM22.9004 43.5059C27.3438 43.5059 30.957 39.9414 30.957 35.4492C30.957 31.0059 27.3438 27.4414 22.9004 27.4414C18.457 27.4414 14.8438 31.0059 14.8438 35.4492C14.8438 39.9414 18.457 43.5059 22.9004 43.5059ZM41.748 43.5059C46.1914 43.5059 49.7559 39.9414 49.7559 35.4492C49.7559 31.0059 46.1914 27.4414 41.748 27.4414C37.2559 27.4414 33.6914 31.0059 33.6914 35.4492C33.6914 39.9414 37.2559 43.5059 41.748 43.5059ZM60.5469 43.5059C65.0391 43.5059 68.6035 39.9414 68.6035 35.4492C68.6035 31.0059 65.0391 27.4414 60.5469 27.4414C56.1035 27.4414 52.5391 31.0059 52.5391 35.4492C52.5391 39.9414 56.1035 43.5059 60.5469 43.5059ZM32.3242 59.7656C36.7676 59.7656 40.332 56.2012 40.332 51.709C40.332 47.2656 36.7676 43.7012 32.3242 43.7012C27.8809 43.7012 24.2676 47.2656 24.2676 51.709C24.2676 56.2012 27.8809 59.7656 32.3242 59.7656ZM51.1719 59.7656C55.6152 59.7656 59.1797 56.2012 59.1797 51.709C59.1797 47.2656 55.6152 43.7012 51.1719 43.7012C46.6797 43.7012 43.1152 47.2656 43.1152 51.709C43.1152 56.2012 46.6797 59.7656 51.1719 59.7656ZM24.707 112.5C31.9336 112.5 37.793 106.689 37.793 99.4629C37.793 92.2363 31.9336 86.377 24.707 86.377C17.4805 86.377 11.6699 92.2363 11.6699 99.4629C11.6699 106.689 17.4805 112.5 24.707 112.5ZM58.6914 112.5C65.9668 112.5 71.7773 106.689 71.7773 99.4629C71.7773 92.2363 65.9668 86.377 58.6914 86.377C51.4648 86.377 45.6543 92.2363 45.6543 99.4629C45.6543 106.689 51.4648 112.5 58.6914 112.5Z" fill="#000000" fill-opacity="0.85"/>
 </g>
</svg>
