<?xml version="1.0" encoding="UTF-8"?>
<!--Generator: Apple Native CoreSVG 232.5-->
<!DOCTYPE svg
PUBLIC "-//W3C//DTD SVG 1.1//EN"
       "http://www.w3.org/Graphics/SVG/1.1/DTD/svg11.dtd">
<svg version="1.1" xmlns="http://www.w3.org/2000/svg" xmlns:xlink="http://www.w3.org/1999/xlink" width="83.4473" height="124.463">
 <g>
  <rect height="124.463" opacity="0" width="83.4473" x="0" y="0"/>
  <path d="M41.7969 71.9727C61.4258 71.9727 77.7344 55.6152 77.7344 35.9863C77.7344 16.3574 61.377 0 41.6992 0C22.0703 0 5.81055 16.3574 5.81055 35.9863C5.81055 55.6152 22.168 71.9727 41.7969 71.9727ZM41.7969 64.8438C25.6836 64.8438 12.9883 52.0996 12.9883 35.9863C12.9883 19.9219 25.6836 7.12891 41.6992 7.12891C57.8125 7.12891 70.6055 19.9219 70.6055 35.9863C70.6055 52.0996 57.8613 64.8438 41.7969 64.8438ZM24.7559 124.365L58.6426 124.365C72.6562 124.365 83.4473 113.428 83.4473 99.5605C83.4473 85.6934 72.6562 74.7559 58.6426 74.7559L24.7559 74.7559C10.791 74.7559 0 85.6934 0 99.5605C0 113.428 10.791 124.365 24.7559 124.365ZM24.7559 117.236C14.7461 117.236 7.03125 109.57 7.03125 99.5605C7.03125 89.5508 14.7461 81.8848 24.7559 81.8848L58.6426 81.8848C68.7012 81.8848 76.416 89.5508 76.416 99.5605C76.416 109.57 68.7012 117.236 58.6426 117.236Z" fill="#000000" fill-opacity="0.85"/>
  <path d="M29.248 33.3984C33.6914 33.3984 37.2559 29.834 37.2559 25.3906C37.2559 20.8984 33.6914 17.334 29.248 17.334C24.7559 17.334 21.1914 20.8984 21.1914 25.3906C21.1914 29.834 24.7559 33.3984 29.248 33.3984ZM54.1992 33.3984C58.6914 33.3984 62.2559 29.834 62.2559 25.3906C62.2559 20.8984 58.6914 17.334 54.1992 17.334C49.7559 17.334 46.1914 20.8984 46.1914 25.3906C46.1914 29.834 49.7559 33.3984 54.1992 33.3984ZM24.707 49.8047C27.832 49.8047 30.3223 47.3145 30.3223 44.1895C30.3223 41.0645 27.832 38.5742 24.707 38.5742C21.582 38.5742 19.0918 41.0645 19.0918 44.1895C19.0918 47.3145 21.582 49.8047 24.707 49.8047ZM58.7402 49.8047C61.8652 49.8047 64.3555 47.3145 64.3555 44.1895C64.3555 41.0645 61.8652 38.5742 58.7402 38.5742C55.6152 38.5742 53.125 41.0645 53.125 44.1895C53.125 47.3145 55.6152 49.8047 58.7402 49.8047ZM41.6992 61.5234C46.1914 61.5234 49.7559 57.959 49.7559 53.4668C49.7559 49.0234 46.1914 45.459 41.6992 45.459C37.2559 45.459 33.6914 49.0234 33.6914 53.4668C33.6914 57.959 37.2559 61.5234 41.6992 61.5234ZM24.707 112.598C31.9336 112.598 37.793 106.787 37.793 99.5605C37.793 92.334 31.9336 86.4746 24.707 86.4746C17.4805 86.4746 11.6699 92.334 11.6699 99.5605C11.6699 106.787 17.4805 112.598 24.707 112.598ZM58.6914 112.598C65.9668 112.598 71.7773 106.787 71.7773 99.5605C71.7773 92.334 65.9668 86.4746 58.6914 86.4746C51.4648 86.4746 45.6543 92.334 45.6543 99.5605C45.6543 106.787 51.4648 112.598 58.6914 112.598Z" fill="#000000" fill-opacity="0.85"/>
 </g>
</svg>
