<?xml version="1.0" encoding="UTF-8"?>
<!--Generator: Apple Native CoreSVG 232.5-->
<!DOCTYPE svg
PUBLIC "-//W3C//DTD SVG 1.1//EN"
       "http://www.w3.org/Graphics/SVG/1.1/DTD/svg11.dtd">
<svg version="1.1" xmlns="http://www.w3.org/2000/svg" xmlns:xlink="http://www.w3.org/1999/xlink" width="107.617" height="107.861">
 <g>
  <rect height="107.861" opacity="0" width="107.617" x="0" y="0"/>
  <path d="M107.617 28.9062L107.617 66.3086C107.617 80.6152 99.8047 88.623 85.2539 88.623L52.2461 88.623L34.6191 104.736C32.3242 106.885 30.9082 107.861 29.0039 107.861C26.2207 107.861 24.6582 105.859 24.6582 102.832L24.6582 88.623L22.3633 88.623C7.8125 88.623 0 80.6641 0 66.3086L0 28.9062C0 14.5508 7.8125 6.54297 22.3633 6.54297L85.2539 6.54297C99.8047 6.54297 107.617 14.5996 107.617 28.9062ZM48.3887 67.7734C48.3887 70.7031 50.9277 72.998 53.8574 72.998C56.7383 72.998 59.2773 70.752 59.2773 67.7734C59.2773 64.8438 56.7871 62.5488 53.8574 62.5488C50.8789 62.5488 48.3887 64.8926 48.3887 67.7734ZM49.2188 26.0742L49.8535 52.6367C49.9023 55.2246 51.3184 56.6406 53.8574 56.6406C56.25 56.6406 57.666 55.2734 57.7148 52.6367L58.4473 26.123C58.4961 23.5352 56.4941 21.582 53.8086 21.582C51.0742 21.582 49.1699 23.4863 49.2188 26.0742Z" fill="#000000" fill-opacity="0.85"/>
 </g>
</svg>
