<?xml version="1.0" encoding="UTF-8"?>
<!--Generator: Apple Native CoreSVG 232.5-->
<!DOCTYPE svg
PUBLIC "-//W3C//DTD SVG 1.1//EN"
       "http://www.w3.org/Graphics/SVG/1.1/DTD/svg11.dtd">
<svg version="1.1" xmlns="http://www.w3.org/2000/svg" xmlns:xlink="http://www.w3.org/1999/xlink" width="99.3164" height="97.2168">
 <g>
  <rect height="97.2168" opacity="0" width="99.3164" x="0" y="0"/>
  <path d="M0 48.7305C0 59.9121 4.24805 68.7988 8.74023 75.7812C11.1816 79.5898 12.5977 83.3008 12.5977 86.1328L12.5977 93.3105C12.5977 95.3125 14.3066 97.0703 16.3574 97.0703C18.4082 97.0703 20.166 95.3125 20.166 93.3105L20.166 90.5762L26.2695 90.5762L26.2695 93.3105C26.2695 95.3125 28.0273 97.0703 30.0781 97.0703C32.1289 97.0703 33.8379 95.3125 33.8379 93.3105L33.8379 90.5762L39.3555 90.5762L39.3555 93.3105C39.3555 95.3125 41.1621 97.0703 43.2129 97.0703C45.2637 97.0703 46.9727 95.3125 46.9727 93.3105L46.9727 90.5762L52.2949 90.5762L52.2949 93.3105C52.2949 95.3125 54.0527 97.0703 56.0547 97.0703C58.1055 97.0703 59.9121 95.3125 59.9121 93.3105L59.9121 90.5762L65.4297 90.5762L65.4297 93.3105C65.4297 95.3125 67.1387 97.0703 69.1895 97.0703C71.2402 97.0703 72.998 95.3125 72.998 93.3105L72.998 90.5762L79.1016 90.5762L79.1016 93.3105C79.1016 95.3125 80.8594 97.0703 82.9102 97.0703C84.9609 97.0703 86.7188 95.3125 86.7188 93.3105L86.7188 86.1816C86.7188 83.5449 88.2812 79.6387 91.0156 75.0977C95.2148 68.2617 99.3164 59.5703 99.3164 48.7305C99.3164 36.3281 94.5312 25.8789 87.9395 17.5293C85.2539 14.0137 85.1074 13.0859 85.1074 10.791L85.1074 3.80859C85.1074 1.75781 83.3008 0 81.25 0C79.1992 0 77.4902 1.75781 77.4902 3.80859L77.4902 11.3281C77.4902 16.8457 78.3203 17.6758 81.4941 21.7773C87.0117 28.9062 91.4551 37.6953 91.4551 48.7305C91.4551 62.207 84.5703 71.875 74.4629 77.6855L24.8047 77.6855C14.7461 71.875 7.86133 62.207 7.86133 48.7305C7.86133 37.6953 12.3047 28.9062 17.7734 21.7773C20.9961 17.6758 21.8262 16.8457 21.8262 11.3281L21.8262 3.80859C21.8262 1.75781 20.0684 0 18.0664 0C16.0156 0 14.209 1.75781 14.209 3.80859L14.209 10.791C14.209 13.0859 14.0625 14.0137 11.3281 17.5293C4.78516 25.8789 0 36.3281 0 48.7305Z" fill="#000000" fill-opacity="0.85"/>
  <path d="M49.707 48.7305C52.0508 48.7305 53.3691 47.3633 53.4668 44.8242L54.1504 26.9043C54.248 24.2188 52.2461 22.3633 49.6582 22.3633C47.0215 22.3633 45.1172 24.1699 45.2148 26.8555L45.8496 44.8242C45.9473 47.3145 47.2656 48.7305 49.707 48.7305ZM49.6582 64.3066C52.4902 64.3066 54.9316 62.0605 54.9316 59.2285C54.9316 56.3965 52.5391 54.1504 49.6582 54.1504C46.7773 54.1504 44.3848 56.4453 44.3848 59.2285C44.3848 62.0117 46.8262 64.3066 49.6582 64.3066Z" fill="#000000" fill-opacity="0.85"/>
 </g>
</svg>
