<?xml version="1.0" encoding="UTF-8"?>
<!--Generator: Apple Native CoreSVG 232.5-->
<!DOCTYPE svg
PUBLIC "-//W3C//DTD SVG 1.1//EN"
       "http://www.w3.org/Graphics/SVG/1.1/DTD/svg11.dtd">
<svg version="1.1" xmlns="http://www.w3.org/2000/svg" xmlns:xlink="http://www.w3.org/1999/xlink" width="119.447" height="99.6582">
 <g>
  <rect height="99.6582" opacity="0" width="119.447" x="0" y="0"/>
  <path d="M0.983151 49.9512C-0.921146 52.6367-0.04224 55.0293 3.47339 55.0293L10.2117 55.0293C12.8484 79.8828 34.2839 99.6094 59.7234 99.6094C74.616 99.6094 88.0925 92.8223 97.2722 82.2754C99.0789 80.1758 98.8347 77.5391 96.9304 76.1719C95.0261 74.8047 92.6824 75.293 91.1199 77.0996C83.5515 85.8398 72.321 91.3086 59.7234 91.3086C38.4343 91.3086 21.1003 75.5371 18.6101 55.0293L25.8855 55.0293C29.3523 55.0293 30.2312 52.6367 28.3757 50L17.4382 34.4238C15.8757 32.1777 13.532 32.1289 11.9207 34.4238ZM22.2234 17.334C20.3679 19.4336 20.6121 22.0215 22.5652 23.3887C24.4695 24.7559 26.7644 24.3164 28.3757 22.5098C35.9929 13.8184 47.2234 8.30078 59.7234 8.30078C80.9636 8.30078 98.2976 24.0723 100.837 44.6289L93.5613 44.6289C90.0945 44.6289 89.2156 46.9727 91.071 49.6582L102.009 65.2344C103.571 67.4805 105.915 67.5293 107.526 65.2344L118.415 49.707C120.368 46.9727 119.44 44.6289 115.925 44.6289L109.235 44.6289C106.55 19.7754 85.1628 0 59.7234 0C44.8308 0 31.4031 6.73828 22.2234 17.334Z" fill="#000000" fill-opacity="0.85"/>
  <path d="M59.6746 58.5938C62.0183 58.5938 63.3855 57.2754 63.4343 54.7363L64.1179 28.9551C64.1667 26.4648 62.2136 24.6094 59.6257 24.6094C56.989 24.6094 55.1335 26.416 55.1824 28.9062L55.866 54.7363C55.9148 57.2266 57.2332 58.5938 59.6746 58.5938ZM59.6746 74.4629C62.5066 74.4629 64.948 72.2168 64.948 69.3848C64.948 66.5527 62.5554 64.3066 59.6746 64.3066C56.7937 64.3066 54.4011 66.6016 54.4011 69.3848C54.4011 72.168 56.8425 74.4629 59.6746 74.4629Z" fill="#000000" fill-opacity="0.85"/>
 </g>
</svg>
