<?xml version="1.0" encoding="UTF-8"?>
<!--Generator: Apple Native CoreSVG 232.5-->
<!DOCTYPE svg
PUBLIC "-//W3C//DTD SVG 1.1//EN"
       "http://www.w3.org/Graphics/SVG/1.1/DTD/svg11.dtd">
<svg version="1.1" xmlns="http://www.w3.org/2000/svg" xmlns:xlink="http://www.w3.org/1999/xlink" width="78.8574" height="93.5059">
 <g>
  <rect height="93.5059" opacity="0" width="78.8574" x="0" y="0"/>
  <path d="M50 66.7969C53.3691 66.7969 54.9316 64.4531 54.9316 61.3281C54.9316 60.791 54.9316 60.2051 54.9316 59.668C55.0293 53.2227 57.373 50.5371 65.1855 45.166C73.5352 39.502 78.8574 32.959 78.8574 23.5352C78.8574 8.88672 66.9434 0.488281 52.1484 0.488281C41.1133 0.488281 31.3965 5.71289 27.2461 15.1367C26.2207 17.4316 25.7812 19.6777 25.7812 21.5332C25.7812 24.3164 27.3926 26.2695 30.3711 26.2695C32.8613 26.2695 34.5703 24.8047 35.2539 22.4121C37.793 13.1348 43.8965 9.61914 51.8066 9.61914C61.3281 9.61914 68.75 14.9902 68.75 23.4863C68.75 30.4688 64.4043 34.375 58.1543 38.7695C50.4883 44.0918 44.873 49.8047 44.873 58.3984C44.873 59.4238 44.873 60.4492 44.873 61.4746C44.873 64.5996 46.582 66.7969 50 66.7969ZM50 93.5059C53.8574 93.5059 56.9336 90.3809 56.9336 86.5723C56.9336 82.7148 53.8574 79.6387 50 79.6387C46.1914 79.6387 43.0664 82.7148 43.0664 86.5723C43.0664 90.3809 46.1914 93.5059 50 93.5059Z" fill="#000000" fill-opacity="0.85"/>
  <path d="M6.98242 66.6016C9.57031 66.6016 11.3281 64.8926 11.377 62.2559L11.8164 5.37109C11.8164 5.37109 11.8164 5.37109 11.8164 5.37109C11.8164 2.58789 9.57031 0.683594 6.93359 0.683594C4.29688 0.683594 2.05078 2.58789 2.05078 5.37109C2.05078 5.37109 2.05078 5.37109 2.05078 5.37109L2.58789 62.2559C2.63672 64.8926 4.39453 66.6016 6.98242 66.6016ZM6.93359 93.5059C10.791 93.5059 13.8672 90.3809 13.8672 86.5723C13.8672 82.7148 10.791 79.6387 6.93359 79.6387C3.125 79.6387 0 82.7148 0 86.5723C0 90.3809 3.125 93.5059 6.93359 93.5059Z" fill="#000000" fill-opacity="0.85"/>
 </g>
</svg>
