<?xml version="1.0" encoding="UTF-8"?>
<!--Generator: Apple Native CoreSVG 232.5-->
<!DOCTYPE svg
PUBLIC "-//W3C//DTD SVG 1.1//EN"
       "http://www.w3.org/Graphics/SVG/1.1/DTD/svg11.dtd">
<svg version="1.1" xmlns="http://www.w3.org/2000/svg" xmlns:xlink="http://www.w3.org/1999/xlink" width="89.8926" height="89.9902">
 <g>
  <rect height="89.9902" opacity="0" width="89.8926" x="0" y="0"/>
  <path d="M89.8926 15.2344L89.8926 74.8535C89.8926 84.9121 84.8145 89.9902 74.5605 89.9902L15.332 89.9902C5.12695 89.9902 0 84.9609 0 74.8535L0 15.2344C0 5.12695 5.12695 0.0976562 15.332 0.0976562L74.5605 0.0976562C84.8145 0.0976562 89.8926 5.17578 89.8926 15.2344ZM39.502 65.1855C39.502 68.0664 42.041 70.4102 44.9707 70.4102C47.9004 70.4102 50.4395 68.1152 50.4395 65.1855C50.4395 62.2559 47.9492 59.9121 44.9707 59.9121C41.9922 59.9121 39.502 62.3047 39.502 65.1855ZM40.332 23.4375L41.0156 50.0488C41.0645 52.6367 42.4316 54.0527 44.9707 54.0527C47.4121 54.0527 48.8281 52.6855 48.877 50.0488L49.5605 23.4863C49.6094 20.8984 47.6074 18.9941 44.9219 18.9941C42.1875 18.9941 40.2832 20.8496 40.332 23.4375Z" fill="#000000" fill-opacity="0.85"/>
 </g>
</svg>
