<?xml version="1.0" encoding="UTF-8"?>
<!--Generator: Apple Native CoreSVG 232.5-->
<!DOCTYPE svg
PUBLIC "-//W3C//DTD SVG 1.1//EN"
       "http://www.w3.org/Graphics/SVG/1.1/DTD/svg11.dtd">
<svg version="1.1" xmlns="http://www.w3.org/2000/svg" xmlns:xlink="http://www.w3.org/1999/xlink" width="81.8359" height="98.584">
 <g>
  <rect height="98.584" opacity="0" width="81.8359" x="0" y="0"/>
  <path d="M43.9941 2.19727C49.6582 4.15039 67.9199 10.791 73.6328 13.1348C77.7344 14.8438 79.8828 16.4551 79.8828 21.4844L79.8828 58.3008C79.8828 75.8301 70.9473 83.1055 43.1641 97.6562C41.9434 98.291 40.7227 98.584 39.9414 98.584C39.1602 98.584 37.9883 98.3398 36.7188 97.6562C9.42383 82.2754 0 75.8301 0 58.3008L0 21.4844C0 16.4551 2.19727 14.7949 6.25 13.1348C11.9629 10.8398 30.2246 4.05273 35.9375 2.19727C37.207 1.80664 38.5742 1.51367 39.9414 1.51367C41.3086 1.51367 42.6758 1.75781 43.9941 2.19727ZM34.4727 68.457C34.4727 71.3379 37.0117 73.6816 39.9414 73.6816C42.8711 73.6816 45.4102 71.3867 45.4102 68.457C45.4102 65.5273 42.9199 63.1836 39.9414 63.1836C36.9629 63.1836 34.4727 65.5762 34.4727 68.457ZM35.3027 26.709L35.9863 53.3203C36.0352 55.9082 37.4023 57.3242 39.9414 57.3242C42.3828 57.3242 43.7988 55.957 43.8477 53.3203L44.5312 26.7578C44.5801 24.1699 42.5781 22.2656 39.8926 22.2656C37.1582 22.2656 35.2539 24.1211 35.3027 26.709Z" fill="#000000" fill-opacity="0.85"/>
 </g>
</svg>
