<?xml version="1.0" encoding="UTF-8"?>
<!--Generator: Apple Native CoreSVG 232.5-->
<!DOCTYPE svg
PUBLIC "-//W3C//DTD SVG 1.1//EN"
       "http://www.w3.org/Graphics/SVG/1.1/DTD/svg11.dtd">
<svg version="1.1" xmlns="http://www.w3.org/2000/svg" xmlns:xlink="http://www.w3.org/1999/xlink" width="49.9512" height="93.5059">
 <g>
  <rect height="93.5059" opacity="0" width="49.9512" x="0" y="0"/>
  <path d="M43.0176 66.6016C45.6055 66.6016 47.3633 64.8926 47.4121 62.2559L47.8516 5.37109C47.8516 5.37109 47.8516 5.37109 47.8516 5.37109C47.8516 2.58789 45.6055 0.683594 42.9688 0.683594C40.3809 0.683594 38.0859 2.58789 38.0859 5.37109C38.0859 5.37109 38.0859 5.37109 38.0859 5.37109L38.623 62.2559C38.6719 64.8926 40.4785 66.6016 43.0176 66.6016ZM42.9688 93.5059C46.875 93.5059 49.9512 90.3809 49.9512 86.5723C49.9512 82.7148 46.875 79.6387 42.9688 79.6387C39.1602 79.6387 36.0352 82.7148 36.0352 86.5723C36.0352 90.3809 39.1602 93.5059 42.9688 93.5059Z" fill="#000000" fill-opacity="0.85"/>
  <path d="M6.98242 66.6016C9.57031 66.6016 11.3281 64.8926 11.377 62.2559L11.8164 5.37109C11.8164 5.37109 11.8164 5.37109 11.8164 5.37109C11.8164 2.58789 9.57031 0.683594 6.93359 0.683594C4.29688 0.683594 2.05078 2.58789 2.05078 5.37109C2.05078 5.37109 2.05078 5.37109 2.05078 5.37109L2.58789 62.2559C2.63672 64.8926 4.39453 66.6016 6.98242 66.6016ZM6.93359 93.5059C10.791 93.5059 13.8672 90.3809 13.8672 86.5723C13.8672 82.7148 10.791 79.6387 6.93359 79.6387C3.125 79.6387 0 82.7148 0 86.5723C0 90.3809 3.125 93.5059 6.93359 93.5059Z" fill="#000000" fill-opacity="0.85"/>
 </g>
</svg>
