<?xml version="1.0" encoding="UTF-8"?>
<!--Generator: Apple Native CoreSVG 232.5-->
<!DOCTYPE svg
PUBLIC "-//W3C//DTD SVG 1.1//EN"
       "http://www.w3.org/Graphics/SVG/1.1/DTD/svg11.dtd">
<svg version="1.1" xmlns="http://www.w3.org/2000/svg" xmlns:xlink="http://www.w3.org/1999/xlink" width="100.342" height="107.666">
 <g>
  <rect height="107.666" opacity="0" width="100.342" x="0" y="0"/>
  <path d="M17.2852 32.7148L83.0566 32.7148C87.1582 32.7148 90.9668 33.6426 94.1406 35.2539L83.7402 10.1562C81.0547 3.51562 75.293 0 67.7734 0L32.5684 0C25 0 19.2871 3.51562 16.6016 10.1562L6.15234 35.2539C9.375 33.6426 13.1836 32.7148 17.2852 32.7148ZM17.2852 73.0469L83.0566 73.0469C93.3105 73.0469 100.342 66.0645 100.342 55.9082C100.342 45.752 93.3105 38.6719 83.0566 38.6719L17.2852 38.6719C7.03125 38.6719 0 45.752 0 55.9082C0 66.0645 7.03125 73.0469 17.2852 73.0469ZM76.7578 55.9082C76.7578 52.9297 79.3457 50.293 82.373 50.293C85.4004 50.293 88.0371 52.9297 88.0371 55.9082C88.0371 59.0332 85.4004 61.4746 82.373 61.5234C79.3457 61.5234 76.7578 59.082 76.7578 55.9082ZM46.2402 95.9473L54.1016 95.9473L54.1016 69.4336L46.2402 69.4336ZM9.57031 99.8535L90.7715 99.8535C92.9199 99.8535 94.6777 98.0469 94.6777 95.8984C94.6777 93.75 92.9199 91.9922 90.7715 91.9922L9.57031 91.9922C7.42188 91.9922 5.66406 93.75 5.66406 95.8984C5.66406 98.0469 7.42188 99.8535 9.57031 99.8535ZM50.1465 107.324C56.3965 107.324 61.5234 102.197 61.5234 95.9961C61.5234 89.7461 56.3965 84.6191 50.1465 84.6191C43.9453 84.6191 38.8184 89.7461 38.8184 95.9961C38.8184 102.197 43.9453 107.324 50.1465 107.324Z" fill="#000000" fill-opacity="0.85"/>
 </g>
</svg>
