<?xml version="1.0" encoding="UTF-8"?>
<!--Generator: Apple Native CoreSVG 232.5-->
<!DOCTYPE svg
PUBLIC "-//W3C//DTD SVG 1.1//EN"
       "http://www.w3.org/Graphics/SVG/1.1/DTD/svg11.dtd">
<svg version="1.1" xmlns="http://www.w3.org/2000/svg" xmlns:xlink="http://www.w3.org/1999/xlink" width="132.373" height="83.0566">
 <g>
  <rect height="83.0566" opacity="0" width="132.373" x="0" y="0"/>
  <path d="M66.2109 83.0566C105.322 83.0566 132.373 51.416 132.373 41.5527C132.373 31.6406 105.273 0.0488281 66.2109 0.0488281C27.5879 0.0488281 0 31.6406 0 41.5527C0 51.416 27.5879 83.0566 66.2109 83.0566ZM66.2109 68.75C50.9766 68.75 38.8672 56.3965 38.8672 41.5527C38.8672 26.3184 50.9766 14.3555 66.2109 14.3555C81.2988 14.3555 93.5059 26.3184 93.5059 41.5527C93.5059 56.3965 81.2988 68.75 66.2109 68.75ZM66.2109 51.3672C71.6309 51.3672 76.123 46.9238 76.123 41.5527C76.123 36.1328 71.6309 31.6895 66.2109 31.6895C60.7422 31.6895 56.25 36.1328 56.25 41.5527C56.25 46.9238 60.7422 51.3672 66.2109 51.3672Z" fill="#000000" fill-opacity="0.85"/>
 </g>
</svg>
