<?xml version="1.0" encoding="UTF-8"?>
<!--Generator: Apple Native CoreSVG 232.5-->
<!DOCTYPE svg
PUBLIC "-//W3C//DTD SVG 1.1//EN"
       "http://www.w3.org/Graphics/SVG/1.1/DTD/svg11.dtd">
<svg version="1.1" xmlns="http://www.w3.org/2000/svg" xmlns:xlink="http://www.w3.org/1999/xlink" width="99.6094" height="99.6582">
 <g>
  <rect height="99.6582" opacity="0" width="99.6094" x="0" y="0"/>
  <path d="M99.6094 49.8535C99.6094 77.0996 77.0508 99.6582 49.8047 99.6582C22.6074 99.6582 0 77.0996 0 49.8535C0 22.6562 22.5586 0.0488281 49.7559 0.0488281C77.002 0.0488281 99.6094 22.6562 99.6094 49.8535ZM16.8945 49.9023C16.8945 54.7852 30.6152 70.5078 49.8047 70.5078C69.1895 70.5078 82.666 54.7852 82.666 49.9023C82.666 44.9707 69.1406 29.2969 49.8047 29.2969C30.4688 29.2969 16.8945 44.9707 16.8945 49.9023ZM63.3301 49.9023C63.3301 57.2266 57.2754 63.3789 49.8047 63.3789C42.2852 63.3789 36.2793 57.2266 36.2793 49.9023C36.2305 42.3828 42.2852 36.4258 49.8047 36.4258C57.2754 36.4258 63.3301 42.3828 63.3301 49.9023ZM43.8477 49.9023C43.8477 53.0273 46.6309 55.8594 49.8535 55.8594C53.0273 55.8594 55.7617 53.0273 55.7617 49.9023C55.7617 46.7285 53.0273 43.9453 49.8535 43.9453C46.6309 43.9453 43.8477 46.7285 43.8477 49.9023Z" fill="#000000" fill-opacity="0.85"/>
 </g>
</svg>
