<?xml version="1.0" encoding="UTF-8"?>
<!--Generator: Apple Native CoreSVG 232.5-->
<!DOCTYPE svg
PUBLIC "-//W3C//DTD SVG 1.1//EN"
       "http://www.w3.org/Graphics/SVG/1.1/DTD/svg11.dtd">
<svg version="1.1" xmlns="http://www.w3.org/2000/svg" xmlns:xlink="http://www.w3.org/1999/xlink" width="101.927" height="103.564">
 <g>
  <rect height="103.564" opacity="0" width="101.927" x="0" y="0"/>
  <path d="M64.9526 44.6777L20.6655 88.916C18.9565 90.6738 16.7104 91.2109 15.0503 89.4043C13.2437 87.4512 13.6343 85.5957 15.5386 83.6426L59.6792 39.3066L55.48 35.1562L16.0269 74.6094C0.938966 89.6973 8.21436 87.3535 0.0112312 98.9258L4.40576 103.564C15.5874 95.4102 14.0737 103.418 29.4058 88.1348L69.0054 48.7793ZM76.5737 53.5156L77.9409 52.002C80.3335 49.5117 80.48 46.582 77.8921 44.043L76.4272 42.627C83.8979 35.9375 92.1987 35.0098 97.3257 29.7852C104.601 22.4609 102.257 12.207 97.1304 7.08008C92.0522 1.9043 81.896-0.292969 74.4253 6.88477C69.1519 11.9629 68.2729 20.3125 61.5835 27.7832L60.1675 26.3184C57.6772 23.7793 54.6987 23.877 52.2085 26.2695L50.7437 27.6367C47.7163 30.5176 48.3022 33.0566 50.8413 35.6445L68.5659 53.3691C71.1538 55.957 73.7417 56.4941 76.5737 53.5156Z" fill="#000000" fill-opacity="0.85"/>
 </g>
</svg>
