<?xml version="1.0" encoding="UTF-8"?>
<!--Generator: Apple Native CoreSVG 232.5-->
<!DOCTYPE svg
PUBLIC "-//W3C//DTD SVG 1.1//EN"
       "http://www.w3.org/Graphics/SVG/1.1/DTD/svg11.dtd">
<svg version="1.1" xmlns="http://www.w3.org/2000/svg" xmlns:xlink="http://www.w3.org/1999/xlink" width="154.053" height="111.573">
 <g>
  <rect height="111.573" opacity="0" width="154.053" x="0" y="0"/>
  <path d="M42.2942 33.731C41.5065 33.6382 40.7045 33.5939 39.8926 33.5939C27.5879 33.5939 17.627 43.5548 17.627 55.8107C17.627 68.1154 27.5879 78.0275 39.8926 78.0275C52.0996 78.0275 62.0605 68.0665 62.0605 55.8107C62.0605 54.9708 62.0134 54.1413 61.9117 53.3278L69.8072 61.215C67.2856 75.4812 54.8469 86.2794 39.8926 86.2794C24.187 86.2794 11.2401 74.438 9.571 59.1798L3.66211 59.1798C1.26953 59.1798 0 57.9103 0 55.4689L0 53.4669C0 51.0255 1.26953 49.8048 3.66211 49.8048L9.97609 49.8048C12.4147 37.6366 22.1355 28.0643 34.4148 25.8598ZM144.079 49.8048L150.439 49.8048C152.832 49.8048 154.053 51.0255 154.053 53.4669L154.053 55.4689C154.053 57.9103 152.832 59.1798 150.439 59.1798L144.482 59.1798C143.066 72.194 133.471 82.7217 120.954 85.5154L113.416 77.9848C113.691 78.0221 113.974 78.0275 114.258 78.0275C126.514 78.0275 136.426 68.1154 136.426 55.8107C136.426 43.5548 126.514 33.5939 114.258 33.5939C102.002 33.5939 91.9922 43.6036 91.9922 55.8107C91.9922 56.0857 91.9972 56.3596 92.0336 56.6255L83.0464 47.6477C83.6301 47.7862 84.2036 47.9546 84.7531 48.157C88.1286 35.0439 100.067 25.3419 114.258 25.3419C128.999 25.3419 141.295 35.8718 144.079 49.8048Z" fill="#000000" fill-opacity="0.85"/>
  <path d="M121.484 104.785C122.949 106.25 125.391 106.25 126.807 104.785C128.271 103.32 128.271 100.928 126.807 99.463L34.1797 6.88489C32.7148 5.42004 30.3223 5.42004 28.8086 6.88489C27.3926 8.3009 27.3926 10.7911 28.8086 12.2072Z" fill="#000000" fill-opacity="0.85"/>
 </g>
</svg>
