<?xml version="1.0" encoding="UTF-8"?>
<!--Generator: Apple Native CoreSVG 232.5-->
<!DOCTYPE svg
PUBLIC "-//W3C//DTD SVG 1.1//EN"
       "http://www.w3.org/Graphics/SVG/1.1/DTD/svg11.dtd">
<svg version="1.1" xmlns="http://www.w3.org/2000/svg" xmlns:xlink="http://www.w3.org/1999/xlink" width="114.16" height="89.0137">
 <g>
  <rect height="89.0137" opacity="0" width="114.16" x="0" y="0"/>
  <path d="M26.7578 89.0137C41.6016 89.0137 53.4668 70.9473 53.4668 44.4824C53.4668 17.9688 41.6016 0 26.7578 0C11.8652 0 0 17.9688 0 44.4824C0 70.9473 11.8652 89.0137 26.7578 89.0137ZM26.7578 82.1289C16.0645 82.1777 7.03125 66.8457 7.03125 44.4824C7.03125 22.2656 16.0645 6.98242 26.7578 6.88477C37.5488 6.83594 46.582 22.1191 46.582 44.4824C46.582 66.6992 37.5488 82.0312 26.7578 82.1289ZM16.2109 61.7188C24.3652 61.7188 29.7852 56.0547 29.7852 47.4609C29.7852 39.0137 24.3652 33.3008 16.2109 33.3008C8.00781 33.3008 2.58789 39.0137 2.58789 47.4609C2.58789 56.0547 8.00781 61.7188 16.2109 61.7188ZM12.3535 45.8008C10.5957 45.5566 9.52148 43.457 9.91211 41.3086C10.3516 39.209 12.0117 37.6465 13.6719 37.9883C15.4297 38.3301 16.5039 40.332 16.0645 42.4316C15.6738 44.5801 14.0625 46.0938 12.3535 45.8008ZM87.4023 89.0137C102.295 89.0137 114.16 70.9473 114.16 44.4824C114.16 17.9688 102.295 0 87.4023 0C72.5586 0 60.6934 17.9688 60.6934 44.4824C60.6934 70.9473 72.5586 89.0137 87.4023 89.0137ZM87.4023 82.0801C76.6602 82.0801 67.5781 66.7969 67.5781 44.4824C67.5781 22.2656 76.6113 6.98242 87.4023 6.93359C98.0957 6.93359 107.178 22.2168 107.178 44.4824C107.178 66.748 98.0957 82.0312 87.4023 82.0801ZM76.8066 61.7188C84.9609 61.7188 90.4785 56.0547 90.4785 47.4609C90.4785 39.0137 84.9609 33.3008 76.8066 33.3008C68.6523 33.3008 63.1836 39.0137 63.1836 47.4609C63.1836 56.0547 68.6523 61.7188 76.8066 61.7188ZM72.9492 45.8008C71.2402 45.5078 70.1172 43.457 70.5566 41.3086C70.9961 39.209 72.6074 37.6465 74.3164 37.9883C76.0742 38.2812 77.0996 40.332 76.6602 42.4316C76.2695 44.5801 74.6582 46.0938 72.9492 45.8008Z" fill="#000000" fill-opacity="0.85"/>
 </g>
</svg>
