<?xml version="1.0" encoding="UTF-8"?>
<!--Generator: Apple Native CoreSVG 232.5-->
<!DOCTYPE svg
PUBLIC "-//W3C//DTD SVG 1.1//EN"
       "http://www.w3.org/Graphics/SVG/1.1/DTD/svg11.dtd">
<svg version="1.1" xmlns="http://www.w3.org/2000/svg" xmlns:xlink="http://www.w3.org/1999/xlink" width="99.6094" height="99.6582">
 <g>
  <rect height="99.6582" opacity="0" width="99.6094" x="0" y="0"/>
  <path d="M99.6094 49.8535C99.6094 77.0996 77.0508 99.6582 49.8047 99.6582C22.6074 99.6582 0 77.0996 0 49.8535C0 22.6562 22.5586 0.0488281 49.7559 0.0488281C77.002 0.0488281 99.6094 22.6562 99.6094 49.8535ZM38.6719 26.416C36.084 26.416 34.7168 28.3203 34.7168 31.0059L34.7168 68.3594C34.7168 71.0938 36.084 72.9492 38.7207 72.9492C41.3574 72.9492 42.7734 71.1914 42.7734 68.3594L42.7734 52.832L60.9375 52.832C62.8906 52.832 64.3066 51.7578 64.3066 49.707C64.3066 47.6562 62.8906 46.5332 60.9375 46.5332L42.7734 46.5332L42.7734 33.0566L62.8906 33.0566C64.8438 33.0566 66.2598 31.7383 66.2598 29.7852C66.2598 27.6855 64.8438 26.416 62.8906 26.416Z" fill="#000000" fill-opacity="0.85"/>
 </g>
</svg>
