<?xml version="1.0" encoding="UTF-8"?>
<!--Generator: Apple Native CoreSVG 232.5-->
<!DOCTYPE svg
PUBLIC "-//W3C//DTD SVG 1.1//EN"
       "http://www.w3.org/Graphics/SVG/1.1/DTD/svg11.dtd">
<svg version="1.1" xmlns="http://www.w3.org/2000/svg" xmlns:xlink="http://www.w3.org/1999/xlink" width="99.6094" height="99.6582">
 <g>
  <rect height="99.6582" opacity="0" width="99.6094" x="0" y="0"/>
  <path d="M49.8047 99.6094C77.0508 99.6094 99.6094 77.002 99.6094 49.8047C99.6094 22.5586 77.002 0 49.7559 0C22.5586 0 0 22.5586 0 49.8047C0 77.002 22.6074 99.6094 49.8047 99.6094ZM49.8047 91.3086C26.7578 91.3086 8.34961 72.8516 8.34961 49.8047C8.34961 26.7578 26.709 8.30078 49.7559 8.30078C72.8027 8.30078 91.3086 26.7578 91.3086 49.8047C91.3086 72.8516 72.8516 91.3086 49.8047 91.3086Z" fill="#000000" fill-opacity="0.85"/>
  <path d="M29.2969 73.4375C29.2969 76.123 32.1289 77.4902 37.5488 77.4902C45.3125 77.4902 50.1465 72.9492 51.3184 64.502L53.1738 51.123L66.1133 51.123C68.2129 51.123 69.7266 49.6582 69.7266 47.7051C69.7266 45.6543 68.1641 44.1895 66.0645 44.1895L54.1992 44.1895L55.2734 36.2305C55.957 31.1035 57.9102 29.0039 61.6699 29.0039C64.6973 29.0039 65.625 29.3457 67.041 29.3457C68.9941 29.3457 70.3125 28.0273 70.3125 26.123C70.3125 23.4375 67.3828 22.0703 62.0605 22.0703C54.2969 22.0703 49.4629 26.6602 48.3398 35.0098L47.0703 44.1895L35.9375 44.1895C33.9355 44.1895 32.373 45.6543 32.373 47.7051C32.373 49.6582 33.9355 51.123 35.9863 51.123L46.0938 51.123L44.3848 63.3301C43.7012 68.4082 41.748 70.5078 37.9395 70.5078C35.0098 70.5078 34.1309 70.1172 32.5684 70.1172C30.6152 70.1172 29.2969 71.4844 29.2969 73.4375Z" fill="#000000" fill-opacity="0.85"/>
 </g>
</svg>
