<?xml version="1.0" encoding="UTF-8"?>
<!--Generator: Apple Native CoreSVG 232.5-->
<!DOCTYPE svg
PUBLIC "-//W3C//DTD SVG 1.1//EN"
       "http://www.w3.org/Graphics/SVG/1.1/DTD/svg11.dtd">
<svg version="1.1" xmlns="http://www.w3.org/2000/svg" xmlns:xlink="http://www.w3.org/1999/xlink" width="89.8926" height="89.9902">
 <g>
  <rect height="89.9902" opacity="0" width="89.8926" x="0" y="0"/>
  <path d="M89.8926 15.2344L89.8926 74.8535C89.8926 84.9121 84.8145 89.9902 74.5605 89.9902L15.332 89.9902C5.12695 89.9902 0 84.9609 0 74.8535L0 15.2344C0 5.12695 5.12695 0.0976562 15.332 0.0976562L74.5605 0.0976562C84.8145 0.0976562 89.8926 5.17578 89.8926 15.2344ZM33.8379 21.5332C31.25 21.5332 29.8828 23.3887 29.8828 26.123L29.8828 63.4766C29.8828 66.1621 31.25 68.0664 33.8867 68.0664C36.5234 68.0664 37.9883 66.2598 37.9883 63.4766L37.9883 47.9004L56.1035 47.9004C58.0566 47.9004 59.4727 46.875 59.4727 44.8242C59.4727 42.7734 58.0566 41.6016 56.1035 41.6016L37.9883 41.6016L37.9883 28.1738L58.0566 28.1738C60.0098 28.1738 61.4258 26.8555 61.4258 24.8535C61.4258 22.7539 60.0098 21.5332 58.0566 21.5332Z" fill="#000000" fill-opacity="0.85"/>
 </g>
</svg>
