<?xml version="1.0" encoding="UTF-8"?>
<!--Generator: Apple Native CoreSVG 232.5-->
<!DOCTYPE svg
PUBLIC "-//W3C//DTD SVG 1.1//EN"
       "http://www.w3.org/Graphics/SVG/1.1/DTD/svg11.dtd">
<svg version="1.1" xmlns="http://www.w3.org/2000/svg" xmlns:xlink="http://www.w3.org/1999/xlink" width="149.268" height="75.0488">
 <g>
  <rect height="75.0488" opacity="0" width="149.268" x="0" y="0"/>
  <path d="M25.0488 22.6562L25.0488 23.3398L15.9668 23.3398C10.7422 23.3398 7.86133 26.6602 7.86133 32.0801C7.86133 42.2861 14.8764 49.8562 25.4583 50.8173C25.9859 53.689 27.2079 56.3578 29.035 58.7891L28.5645 58.7891C11.4258 58.7891 0 47.8027 0 32.0801C0 21.7285 5.85938 15.4785 15.9668 15.4785L26.726 15.4785C25.605 17.6484 25.0488 20.047 25.0488 22.6562ZM149.268 32.0801C149.268 47.8027 137.842 58.7891 120.752 58.7891L120.233 58.7891C122.06 56.3578 123.282 53.689 123.809 50.8173C134.391 49.8562 141.406 42.2861 141.406 32.0801C141.406 26.6602 138.525 23.3398 133.301 23.3398L124.219 23.3398L124.219 22.6562C124.219 20.047 123.663 17.6484 122.542 15.4785L133.301 15.4785C143.457 15.4785 149.268 21.7285 149.268 32.0801Z" fill="#000000" fill-opacity="0.85"/>
  <path d="M124.219 22.6562L124.219 47.0703C124.219 63.623 103.613 74.9023 74.6582 74.9023C45.6543 74.9023 25.0488 63.623 25.0488 47.0703L25.0488 22.6562C25.0488 8.00781 42.5781 0 74.6582 0C106.689 0 124.219 8.00781 124.219 22.6562ZM52.2461 41.6992C50 41.6992 48.1934 43.5547 48.1934 45.8008C48.1934 48.0469 50 49.8535 52.2461 49.8535L97.0703 49.8535C99.3652 49.8535 101.172 48.0469 101.172 45.8008C101.172 43.5547 99.3652 41.6992 97.0703 41.6992ZM52.2461 22.9004C50 22.9004 48.1934 24.7559 48.1934 26.9531C48.1934 29.1992 50 31.0547 52.2461 31.0547L97.0703 31.0547C99.3652 31.0547 101.172 29.1992 101.172 26.9531C101.172 24.7559 99.3652 22.9004 97.0703 22.9004Z" fill="#000000" fill-opacity="0.85"/>
 </g>
</svg>
