<?xml version="1.0" encoding="UTF-8"?>
<!--Generator: Apple Native CoreSVG 232.5-->
<!DOCTYPE svg
PUBLIC "-//W3C//DTD SVG 1.1//EN"
       "http://www.w3.org/Graphics/SVG/1.1/DTD/svg11.dtd">
<svg version="1.1" xmlns="http://www.w3.org/2000/svg" xmlns:xlink="http://www.w3.org/1999/xlink" width="99.6094" height="99.6582">
 <g>
  <rect height="99.6582" opacity="0" width="99.6094" x="0" y="0"/>
  <path d="M8.34961 49.8047C8.34961 45.3613 9.0332 41.0645 10.3027 37.1094L2.63672 33.8867C0.976562 38.916 0 44.2383 0 49.8047C0 55.3223 0.976562 60.6934 2.68555 65.7227L10.3027 62.5C9.0332 58.5449 8.34961 54.248 8.34961 49.8047ZM30.8105 12.793L27.6855 5.27344C18.0176 10.1074 10.0586 18.0664 5.22461 27.7344L12.8418 30.9082C16.748 23.1445 23.0957 16.7969 30.8105 12.793ZM49.7559 8.30078C54.1992 8.30078 58.4961 8.98438 62.5488 10.3027L65.6738 2.68555C60.6445 0.976562 55.2734 0 49.7559 0C44.2383 0 38.8184 0.976562 33.7891 2.68555L37.0117 10.3027C41.0156 8.98438 45.3125 8.30078 49.7559 8.30078ZM86.7676 30.8594L94.3359 27.7344C89.4531 18.0664 81.4941 10.1074 71.8262 5.22461L68.7012 12.793C76.416 16.748 82.8125 23.0957 86.7676 30.8594ZM91.3086 49.8047C91.3086 54.248 90.625 58.5449 89.3555 62.5488L96.9238 65.7715C98.6328 60.7422 99.6094 55.3223 99.6094 49.8047C99.6094 44.2383 98.6328 38.8672 96.9238 33.8379L89.3066 37.0605C90.625 41.0645 91.3086 45.3613 91.3086 49.8047ZM68.7012 86.7676L71.8262 94.3848C81.543 89.502 89.502 81.543 94.2871 71.875L86.8164 68.75C82.8613 76.5137 76.4648 82.8125 68.7012 86.7676ZM49.8047 91.3086C45.3125 91.3086 41.0156 90.625 37.0117 89.3066L33.8379 96.9238C38.8672 98.6328 44.2871 99.6094 49.8047 99.6094C55.3223 99.6094 60.6934 98.6328 65.6738 96.9727L62.5 89.3555C58.4961 90.625 54.248 91.3086 49.8047 91.3086ZM12.8418 68.75L5.27344 71.875C10.1562 81.543 18.0176 89.502 27.6855 94.3359L30.8105 86.7188C23.0957 82.7637 16.748 76.4648 12.8418 68.75Z" fill="#000000" fill-opacity="0.85"/>
  <path d="M49.7559 74.2676C59.9609 74.2676 66.7969 67.4805 66.7969 64.2578C66.7969 63.1348 65.6738 62.5977 64.6484 63.0859C61.084 64.9902 56.8359 67.1875 49.7559 67.1875C42.6758 67.1875 38.4277 64.9902 34.9121 63.0859C33.8379 62.5977 32.7148 63.1348 32.7148 64.2578C32.7148 67.4805 39.5508 74.2676 49.7559 74.2676ZM35.3027 45.5078C38.3789 45.5078 41.1133 42.7246 41.1133 38.8184C41.1133 34.8633 38.4277 32.0801 35.3027 32.0801C32.2266 32.0801 29.541 34.8633 29.541 38.8184C29.541 42.7246 32.2266 45.5078 35.3027 45.5078ZM64.2578 45.5078C67.334 45.5078 70.0684 42.7246 70.0684 38.8184C70.0684 34.8633 67.3828 32.0801 64.2578 32.0801C61.1816 32.0801 58.4961 34.8633 58.4961 38.8184C58.4961 42.7246 61.1816 45.5078 64.2578 45.5078Z" fill="#000000" fill-opacity="0.85"/>
 </g>
</svg>
