<?xml version="1.0" encoding="UTF-8"?>
<!--Generator: Apple Native CoreSVG 232.5-->
<!DOCTYPE svg
PUBLIC "-//W3C//DTD SVG 1.1//EN"
       "http://www.w3.org/Graphics/SVG/1.1/DTD/svg11.dtd">
<svg version="1.1" xmlns="http://www.w3.org/2000/svg" xmlns:xlink="http://www.w3.org/1999/xlink" width="95.6055" height="95.6543">
 <g>
  <rect height="95.6543" opacity="0" width="95.6055" x="0" y="0"/>
  <path d="M3.90625 31.1523C6.49414 31.1523 7.86133 29.6875 7.86133 27.1484L7.86133 15.625C7.86133 10.5469 10.5469 7.95898 15.4297 7.95898L27.2461 7.95898C29.834 7.95898 31.25 6.54297 31.25 4.00391C31.25 1.46484 29.834 0.0976562 27.2461 0.0976562L15.332 0.0976562C5.12695 0.0976562 0 5.12695 0 15.1855L0 27.1484C0 29.6875 1.41602 31.1523 3.90625 31.1523ZM91.6504 31.1523C94.2383 31.1523 95.6055 29.6875 95.6055 27.1484L95.6055 15.1855C95.6055 5.12695 90.4785 0.0976562 80.2734 0.0976562L68.3105 0.0976562C65.7715 0.0976562 64.3555 1.46484 64.3555 4.00391C64.3555 6.54297 65.7715 7.95898 68.3105 7.95898L80.127 7.95898C84.9609 7.95898 87.7441 10.5469 87.7441 15.625L87.7441 27.1484C87.7441 29.6875 89.1602 31.1523 91.6504 31.1523ZM15.332 95.6543L27.2461 95.6543C29.834 95.6543 31.25 94.2383 31.25 91.748C31.25 89.209 29.834 87.793 27.2461 87.793L15.4297 87.793C10.5469 87.793 7.86133 85.2051 7.86133 80.127L7.86133 68.6035C7.86133 66.0156 6.44531 64.5996 3.90625 64.5996C1.36719 64.5996 0 66.0156 0 68.6035L0 80.5176C0 90.625 5.12695 95.6543 15.332 95.6543ZM68.3105 95.6543L80.2734 95.6543C90.4785 95.6543 95.6055 90.5762 95.6055 80.5176L95.6055 68.6035C95.6055 66.0156 94.1895 64.5996 91.6504 64.5996C89.1113 64.5996 87.7441 66.0156 87.7441 68.6035L87.7441 80.127C87.7441 85.2051 84.9609 87.793 80.127 87.793L68.3105 87.793C65.7715 87.793 64.3555 89.209 64.3555 91.748C64.3555 94.2383 65.7715 95.6543 68.3105 95.6543Z" fill="#000000" fill-opacity="0.85"/>
  <path d="M29.1992 44.5801C31.4941 44.5801 33.1543 42.9688 33.1543 40.625L33.1543 33.9844C33.1543 31.6406 31.4941 30.0293 29.1992 30.0293C26.9043 30.0293 25.293 31.6406 25.293 33.9844L25.293 40.625C25.293 42.9688 26.9043 44.5801 29.1992 44.5801ZM43.8965 56.1035C43.9941 56.1035 44.1406 56.1035 44.2871 56.1035C49.2188 56.1035 51.9043 53.418 51.9043 48.4863L51.9043 33.1055C51.9043 31.2012 50.6348 29.9805 48.7793 29.9805C46.8262 29.9805 45.5566 31.2012 45.5566 33.1055L45.5566 48.9258C45.5566 49.4141 45.2637 49.6582 44.8242 49.6582L43.1152 49.6582C41.3574 49.6582 39.9902 51.0254 39.9902 52.7832C39.9902 54.8828 41.4062 56.1035 43.8965 56.1035ZM66.2598 44.5801C68.5059 44.5801 70.1172 42.9688 70.1172 40.625L70.1172 33.9844C70.1172 31.6406 68.5059 30.0293 66.2598 30.0293C63.916 30.0293 62.3047 31.6406 62.3047 33.9844L62.3047 40.625C62.3047 42.9688 63.916 44.5801 66.2598 44.5801ZM47.5098 72.5098C53.418 72.5098 59.375 69.9707 63.623 65.7227C64.209 65.1855 64.502 64.3555 64.502 63.3789C64.502 61.5234 63.1348 60.2051 61.3281 60.2051C60.4004 60.2051 59.7168 60.5469 58.7891 61.5234C56.1035 64.3066 51.8555 66.2109 47.5098 66.2109C43.4082 66.2109 39.1113 64.4043 36.2793 61.5234C35.498 60.791 34.8633 60.2051 33.6914 60.2051C31.8848 60.2051 30.5176 61.5234 30.5176 63.3789C30.5176 64.209 30.8105 64.9902 31.4453 65.6738C35.4004 70.166 41.6016 72.5098 47.5098 72.5098Z" fill="#000000" fill-opacity="0.85"/>
 </g>
</svg>
