<?xml version="1.0" encoding="UTF-8"?>
<!--Generator: Apple Native CoreSVG 232.5-->
<!DOCTYPE svg
PUBLIC "-//W3C//DTD SVG 1.1//EN"
       "http://www.w3.org/Graphics/SVG/1.1/DTD/svg11.dtd">
<svg version="1.1" xmlns="http://www.w3.org/2000/svg" xmlns:xlink="http://www.w3.org/1999/xlink" width="77.9785" height="113.721">
 <g>
  <rect height="113.721" opacity="0" width="77.9785" x="0" y="0"/>
  <path d="M38.9648 77.9785C60.498 77.9785 77.9785 60.498 77.9785 39.0137C77.9785 17.5293 60.4492 0 38.9648 0C17.4805 0 0 17.5293 0 39.0137C0 60.498 17.4316 77.9785 38.9648 77.9785ZM39.0137 70.8496C21.3867 70.8496 7.22656 56.5918 7.22656 38.9648C7.22656 21.3867 21.3867 7.17773 39.0137 7.17773C56.6406 7.17773 70.8008 21.3867 70.8008 38.9648C70.8008 56.5918 56.6406 70.8496 39.0137 70.8496ZM35.1074 76.6113L35.1074 110.498L42.9688 110.498L42.9688 76.6113ZM17.041 113.721L60.9375 113.721C62.7441 113.721 63.916 112.402 63.916 110.498C63.916 106.836 60.9375 104.248 56.2988 104.248L21.6309 104.248C16.9922 104.248 14.0137 106.836 14.0137 110.498C14.0137 112.402 15.1855 113.721 17.041 113.721Z" fill="#000000" fill-opacity="0.85"/>
  <path d="M27.002 63.0371C32.6172 63.0371 35.5957 58.3008 38.8184 49.6582C39.5996 49.707 40.2344 49.707 40.918 49.5117L40.918 58.252C40.918 62.5488 43.1152 64.8926 47.3145 64.8926C55.127 64.8926 62.8906 57.9102 62.8906 51.3184C62.8906 45.6543 58.2031 42.7246 49.7559 39.5996C49.8047 38.8184 49.7559 38.1348 49.707 37.3047L58.0078 37.3047C62.3047 37.3047 64.6484 35.1074 64.6484 30.8594C64.6484 23.1445 57.7148 15.3809 51.0742 15.3809C45.6055 15.3809 42.5781 19.9219 39.502 28.2227C38.7695 28.2227 37.8906 28.2227 37.1582 28.418L37.1582 20.2148C37.1582 15.918 34.9609 13.5254 30.7617 13.5254C22.9492 13.5254 15.1367 20.5566 15.1367 27.1484C15.1367 32.7637 19.8242 35.6934 28.3203 38.8672C28.3203 39.5996 28.3691 40.4785 28.5156 41.1133L20.0684 41.1133C15.7227 41.1133 13.3789 43.3105 13.3789 47.5098C13.3789 55.3223 20.3613 63.0371 27.002 63.0371ZM39.0137 44.6289C35.9863 44.6289 33.5938 42.2363 33.5938 39.2578C33.5938 36.1816 35.9863 33.7891 39.0137 33.7891C42.041 33.7891 44.4336 36.1816 44.4336 39.2578C44.4336 42.2363 42.041 44.6289 39.0137 44.6289Z" fill="#000000" fill-opacity="0.85"/>
 </g>
</svg>
