<?xml version="1.0" encoding="UTF-8"?>
<!--Generator: Apple Native CoreSVG 232.5-->
<!DOCTYPE svg
PUBLIC "-//W3C//DTD SVG 1.1//EN"
       "http://www.w3.org/Graphics/SVG/1.1/DTD/svg11.dtd">
<svg version="1.1" xmlns="http://www.w3.org/2000/svg" xmlns:xlink="http://www.w3.org/1999/xlink" width="98.877" height="113.721">
 <g>
  <rect height="113.721" opacity="0" width="98.877" x="0" y="0"/>
  <path d="M98.877 49.4629C98.877 75.4883 78.8574 96.7285 53.3691 98.7305L53.3691 104.248L70.752 104.248C75.3906 104.248 78.3691 106.836 78.3691 110.498C78.3691 112.402 77.1973 113.721 75.3418 113.721L23.5352 113.721C21.7285 113.721 20.5566 112.402 20.5566 110.498C20.5566 106.836 23.5352 104.248 28.1738 104.248L45.5078 104.248L45.5078 98.7305C20.0195 96.7773 0 75.4883 0 49.4629C0 22.1191 22.1191 0 49.4629 0C76.7578 0 98.877 22.168 98.877 49.4629ZM17.6758 33.6914C17.6758 41.1621 23.9258 45.0684 35.1562 49.3164C35.1562 50.2441 35.2539 51.3672 35.4492 52.2949L24.2188 52.2949C18.457 52.2949 15.332 55.1758 15.332 60.8398C15.332 71.1426 24.6094 81.4941 33.3984 81.4941C40.918 81.4941 44.873 75.1953 49.2188 63.7207C50.2441 63.7695 51.0742 63.7207 52.002 63.5742L52.002 74.9512C52.002 80.7617 54.8828 83.8867 60.5469 83.8867C70.8008 83.8867 81.2012 74.5605 81.2012 65.8203C81.2012 58.3008 75 54.4434 63.7695 50.1953C63.8184 49.1699 63.7695 48.2422 63.6719 47.168L74.6582 47.168C80.4199 47.168 83.5938 44.2871 83.5938 38.623C83.5938 28.3691 74.2676 17.9688 65.5273 17.9688C58.1055 17.9688 54.1992 24.0723 50 35.1074C49.1211 35.1074 47.9492 35.1074 46.9238 35.3516L46.9238 24.5117C46.9238 18.75 44.043 15.625 38.3789 15.625C28.0762 15.625 17.6758 24.9023 17.6758 33.6914ZM56.5918 49.7559C56.5918 53.7109 53.418 56.8848 49.4629 56.8848C45.459 56.8848 42.2852 53.7109 42.2852 49.7559C42.2852 45.752 45.459 42.5781 49.4629 42.5781C53.418 42.5781 56.5918 45.752 56.5918 49.7559Z" fill="#000000" fill-opacity="0.85"/>
 </g>
</svg>
