<?xml version="1.0" encoding="UTF-8"?>
<!--Generator: Apple Native CoreSVG 232.5-->
<!DOCTYPE svg
PUBLIC "-//W3C//DTD SVG 1.1//EN"
       "http://www.w3.org/Graphics/SVG/1.1/DTD/svg11.dtd">
<svg version="1.1" xmlns="http://www.w3.org/2000/svg" xmlns:xlink="http://www.w3.org/1999/xlink" width="104.346" height="104.443">
 <g>
  <rect height="104.443" opacity="0" width="104.346" x="0" y="0"/>
  <path d="M0 69.2383C0 84.9609 14.209 100.879 27.6367 100.879C39.7949 100.879 45.8008 89.8438 53.1738 70.3613C53.5645 70.3613 54.0039 70.3125 54.3945 70.2637C54.9805 70.2148 55.5176 70.166 56.0547 70.0195L56.0547 90.7715C56.0547 99.707 60.5957 104.395 69.1895 104.395C84.9121 104.395 100.879 90.1855 100.879 76.7578C100.879 64.5996 89.7949 58.5938 70.3125 51.2207C70.3125 50.8301 70.2637 50.3906 70.2148 50C70.166 49.4141 70.1172 48.877 69.9707 48.291L90.7715 48.291C99.6582 48.291 104.346 43.75 104.346 35.1562C104.346 19.4336 90.1367 3.4668 76.709 3.4668C64.5508 3.4668 58.5449 14.5508 51.1719 34.0332C50.7812 34.0332 50.3418 34.082 49.9512 34.1309C49.3652 34.1797 48.8281 34.2285 48.291 34.375L48.291 13.623C48.291 4.6875 43.75 0 35.1562 0C19.4336 0 3.4668 14.209 3.4668 27.6367C3.4668 39.7949 14.5508 45.8008 33.9844 53.1738C34.0332 53.6133 34.0332 54.1016 34.082 54.4922C34.1309 55.0293 34.2773 55.5664 34.3262 56.1035L13.5742 56.1035C4.6875 56.1035 0 60.5957 0 69.2383ZM40.8691 52.1973C40.8691 45.9473 45.8984 40.8691 52.1484 40.8691C58.3984 40.8691 63.4766 45.9473 63.4766 52.1973C63.4766 58.4473 58.3984 63.5254 52.1484 63.5254C45.9473 63.5254 40.8691 58.4473 40.8691 52.1973ZM45.459 52.1973C45.459 55.9082 48.3887 58.8379 52.1484 58.8379C55.8594 58.8379 58.7891 55.9082 58.7891 52.1973C58.7891 48.4863 55.8105 45.5078 52.1484 45.5078C48.3887 45.5078 45.459 48.4375 45.459 52.1973Z" fill="#000000" fill-opacity="0.85"/>
 </g>
</svg>
