<?xml version="1.0" encoding="UTF-8"?>
<!--Generator: Apple Native CoreSVG 232.5-->
<!DOCTYPE svg
PUBLIC "-//W3C//DTD SVG 1.1//EN"
       "http://www.w3.org/Graphics/SVG/1.1/DTD/svg11.dtd">
<svg version="1.1" xmlns="http://www.w3.org/2000/svg" xmlns:xlink="http://www.w3.org/1999/xlink" width="109.058" height="108.57">
 <g>
  <rect height="108.57" opacity="0" width="109.058" x="0" y="0"/>
  <path d="M88.4477 101.361C83.3324 104.541 77.4134 106.507 71.5699 106.507C62.9762 106.507 58.3864 101.77 58.3864 92.8838L58.3864 71.2829ZM56.4099 69.3054C49.695 90.7918 42.6768 102.991 29.9684 102.991C16.2477 102.991 2.33167 86.8779 2.33167 71.3017C2.33167 62.708 7.06799 58.0693 15.9547 58.0693L43.5914 58.0693L43.5914 57.3857C19.5192 50.2568 5.84729 43.1279 5.84729 29.7002C5.84729 26.7149 6.61008 23.7203 8.00068 20.8698ZM106.775 37.2197C106.775 45.8135 102.039 50.4033 93.152 50.4033L65.3688 50.4033L65.3688 51.1357C89.441 58.2158 103.259 65.3447 103.259 78.8213C103.259 81.7016 102.549 84.5927 101.249 87.3554L52.7994 38.879C59.4607 17.569 66.5148 5.53026 79.1383 5.53026C92.859 5.53026 106.775 21.6924 106.775 37.2197ZM50.7203 15.6865L50.7203 36.7988L20.9529 7.01511C25.9958 3.92989 31.8026 2.03261 37.5367 2.01464C46.0817 2.01464 50.7203 6.79979 50.7203 15.6865Z" fill="#000000" fill-opacity="0.85"/>
  <path d="M96.9606 101.77C98.4254 103.235 100.818 103.187 102.283 101.722C103.699 100.257 103.748 97.8642 102.283 96.3994L12.6832 6.84862C11.2184 5.38378 8.82581 5.33495 7.31213 6.84862C5.89612 8.26464 5.89612 10.706 7.31213 12.1709Z" fill="#000000" fill-opacity="0.85"/>
 </g>
</svg>
