<?xml version="1.0" encoding="UTF-8"?>
<!--Generator: Apple Native CoreSVG 232.5-->
<!DOCTYPE svg
PUBLIC "-//W3C//DTD SVG 1.1//EN"
       "http://www.w3.org/Graphics/SVG/1.1/DTD/svg11.dtd">
<svg version="1.1" xmlns="http://www.w3.org/2000/svg" xmlns:xlink="http://www.w3.org/1999/xlink" width="110.303" height="106.787">
 <g>
  <rect height="106.787" opacity="0" width="110.303" x="0" y="0"/>
  <path d="M90.9668 15.3809L90.9668 17.9688L83.3984 17.9688L83.3984 14.8438C83.3984 10.7422 81.3477 8.74023 77.2461 8.74023L33.0566 8.74023C29.0039 8.74023 26.9043 10.7422 26.9043 14.8438L26.9043 17.9688L19.3359 17.9688L19.3359 15.3809C19.3359 5.85938 24.5605 1.61133 33.1543 1.61133L77.1484 1.61133C86.2305 1.61133 90.9668 5.85938 90.9668 15.3809Z" fill="#000000" fill-opacity="0.85"/>
  <path d="M110.303 32.2754L110.303 77.9785C110.303 87.5 105.273 92.2852 95.8008 92.2852L90.625 92.2852L90.625 84.9121L95.8984 84.9121C100.195 84.9121 102.441 82.666 102.441 78.3691L102.441 31.8848C102.441 27.5879 100.195 25.3418 95.8984 25.3418L14.4531 25.3418C10.1074 25.3418 7.91016 27.5879 7.91016 31.8848L7.91016 78.3691C7.91016 82.666 10.1074 84.9121 14.4531 84.9121L19.6777 84.9121L19.6777 92.2852L14.5508 92.2852C5.0293 92.2852 0 87.5 0 77.9785L0 32.2754C0 22.8027 5.51758 17.9688 14.5508 17.9688L95.8008 17.9688C105.273 17.9688 110.303 22.8027 110.303 32.2754Z" fill="#000000" fill-opacity="0.85"/>
  <path d="M35.5469 52.4414L35.5469 56.9336C35.5469 58.3008 34.7168 59.1309 33.3496 59.1309L28.8574 59.1309C27.5391 59.1309 26.709 58.3008 26.709 56.9336L26.709 52.4414C26.709 51.0742 27.5391 50.2441 28.8574 50.2441L33.3496 50.2441C34.7168 50.2441 35.5469 51.0742 35.5469 52.4414ZM51.5625 52.4414L51.5625 56.9336C51.5625 58.3008 50.7324 59.1309 49.3652 59.1309L44.9219 59.1309C43.5547 59.1309 42.7246 58.3008 42.7246 56.9336L42.7246 52.4414C42.7246 51.0742 43.5547 50.2441 44.9219 50.2441L49.3652 50.2441C50.7324 50.2441 51.5625 51.0742 51.5625 52.4414ZM67.5781 52.4414L67.5781 56.9336C67.5781 58.3008 66.748 59.1309 65.4297 59.1309L60.9375 59.1309C59.5703 59.1309 58.7402 58.3008 58.7402 56.9336L58.7402 52.4414C58.7402 51.0742 59.5703 50.2441 60.9375 50.2441L65.4297 50.2441C66.748 50.2441 67.5781 51.0742 67.5781 52.4414ZM83.6426 52.4414L83.6426 56.9336C83.6426 58.3008 82.8125 59.1309 81.4453 59.1309L76.9531 59.1309C75.6348 59.1309 74.8047 58.3008 74.8047 56.9336L74.8047 52.4414C74.8047 51.0742 75.6348 50.2441 76.9531 50.2441L81.4453 50.2441C82.8125 50.2441 83.6426 51.0742 83.6426 52.4414ZM35.5469 36.0352L35.5469 40.4785C35.5469 41.8457 34.7168 42.6758 33.3496 42.6758L28.8574 42.6758C27.5391 42.6758 26.709 41.8457 26.709 40.4785L26.709 36.0352C26.709 34.668 27.5391 33.8379 28.8574 33.8379L33.3496 33.8379C34.7168 33.8379 35.5469 34.668 35.5469 36.0352ZM51.5625 36.0352L51.5625 40.4785C51.5625 41.8457 50.7324 42.6758 49.3652 42.6758L44.9219 42.6758C43.5547 42.6758 42.7246 41.8457 42.7246 40.4785L42.7246 36.0352C42.7246 34.668 43.5547 33.8379 44.9219 33.8379L49.3652 33.8379C50.7324 33.8379 51.5625 34.668 51.5625 36.0352ZM67.5781 36.0352L67.5781 40.4785C67.5781 41.8457 66.748 42.6758 65.4297 42.6758L60.9375 42.6758C59.5703 42.6758 58.7402 41.8457 58.7402 40.4785L58.7402 36.0352C58.7402 34.668 59.5703 33.8379 60.9375 33.8379L65.4297 33.8379C66.748 33.8379 67.5781 34.668 67.5781 36.0352ZM83.6426 36.0352L83.6426 40.4785C83.6426 41.8457 82.8125 42.6758 81.4453 42.6758L76.9531 42.6758C75.6348 42.6758 74.8047 41.8457 74.8047 40.4785L74.8047 36.0352C74.8047 34.668 75.6348 33.8379 76.9531 33.8379L81.4453 33.8379C82.8125 33.8379 83.6426 34.668 83.6426 36.0352Z" fill="#000000" fill-opacity="0.85"/>
  <path d="M29.0039 106.787L81.2988 106.787C87.5 106.787 90.625 103.955 90.625 97.4609L90.625 76.9043C90.625 70.459 87.5 67.5781 81.2988 67.5781L29.0039 67.5781C23.0957 67.5781 19.6777 70.459 19.6777 76.9043L19.6777 97.4609C19.6777 103.955 22.8027 106.787 29.0039 106.787ZM31.4453 99.4141C28.8574 99.4141 27.5391 98.1445 27.5391 95.5078L27.5391 78.8086C27.5391 76.2207 28.8574 74.9512 31.4453 74.9512L78.9062 74.9512C81.543 74.9512 82.7637 76.2207 82.7637 78.8086L82.7637 95.5078C82.7637 98.1445 81.543 99.4141 78.9062 99.4141ZM34.8145 87.1094C34.8145 89.209 36.4258 90.8691 38.5254 90.8691L71.8262 90.8691C73.877 90.8691 75.4883 89.209 75.4883 87.1094C75.4883 85.1074 73.877 83.4473 71.8262 83.4473L38.5254 83.4473C36.4258 83.4473 34.8145 85.1074 34.8145 87.1094Z" fill="#000000" fill-opacity="0.85"/>
 </g>
</svg>
