<?xml version="1.0" encoding="UTF-8"?>
<!--Generator: Apple Native CoreSVG 232.5-->
<!DOCTYPE svg
PUBLIC "-//W3C//DTD SVG 1.1//EN"
       "http://www.w3.org/Graphics/SVG/1.1/DTD/svg11.dtd">
<svg version="1.1" xmlns="http://www.w3.org/2000/svg" xmlns:xlink="http://www.w3.org/1999/xlink" width="103.069" height="121.533">
 <g>
  <rect height="121.533" opacity="0" width="103.069" x="0" y="0"/>
  <path d="M51.5345 121.533C64.8646 121.533 66.9642 111.621 74.7279 111.621C82.638 111.621 83.9075 121.533 99.1419 121.533L99.3861 121.533C101.29 121.533 102.853 119.971 102.853 118.066C102.853 116.162 101.29 114.648 99.3861 114.648L99.1419 114.648C93.9173 114.648 90.9388 112.451 87.2767 109.863C84.1029 107.568 80.1478 104.736 74.7279 104.736C69.1126 104.736 65.1087 107.715 61.9349 110.107C58.5657 112.646 55.929 114.648 51.5345 114.648C47.14 114.648 44.5032 112.646 41.1341 110.107C37.9603 107.715 33.9564 104.736 28.3411 104.736C22.9212 104.736 18.9661 107.568 15.7923 109.863C12.1302 112.451 9.20051 114.648 3.92707 114.648L3.68293 114.648C1.77863 114.648 0.216133 116.162 0.216133 118.066C0.216133 119.971 1.77863 121.533 3.68293 121.533L3.92707 121.533C19.1614 121.533 20.431 111.621 28.3411 111.621C36.1048 111.621 38.2044 121.533 51.5345 121.533ZM2.21809 78.125L20.138 109.766L26.0462 105.811L8.37043 75.0977C6.27082 71.3867 7.1009 69.6777 9.78645 68.457L45.3333 52.1484C47.6771 51.0742 49.2884 50.293 51.5345 50.293C53.7806 50.293 55.3919 51.0742 57.7845 52.1484L93.2825 68.457C95.9681 69.6777 96.7982 71.3867 94.6986 75.0977L77.0228 105.811L83.2728 109.277L100.851 78.125C105.001 70.8008 103.292 65.4785 96.0169 62.207L60.5189 45.8984C58.4681 44.9707 55.5872 43.4082 51.5345 43.4082C47.5306 43.4082 44.6497 44.9707 42.5501 45.8984L7.05207 62.207C-0.174492 65.4785-1.88348 70.8008 2.21809 78.125ZM11.9837 61.377L19.4056 57.9102L24.6302 21.2891C24.9232 19.3848 26.0462 18.2617 27.804 18.2617L75.3626 18.2617C77.2181 18.2617 78.39 19.1895 78.6341 20.752L83.7611 58.1543L91.1829 61.377L85.5677 20.3125C84.7864 14.5996 81.0267 11.377 75.3626 11.377L27.804 11.377C22.2864 11.377 18.5755 14.9902 17.6478 21.2891ZM31.4173 36.0352L46.554 36.0352C48.0189 36.0352 48.9954 35.2051 48.9954 34.0332L48.9954 26.2207C48.9954 25.0488 48.0189 24.2188 46.554 24.2188L31.4173 24.2188C30.2454 24.2188 29.4642 25.0488 29.4642 26.2207L29.4642 34.0332C29.4642 35.2051 30.2454 36.0352 31.4173 36.0352ZM56.0267 36.0352L71.2122 36.0352C72.6771 36.0352 73.6536 35.2051 73.6536 34.0332L73.6536 26.2207C73.6536 25.0488 72.6771 24.2188 71.2122 24.2188L56.0267 24.2188C54.9036 24.2188 54.1224 25.0488 54.1224 26.2207L54.1224 34.0332C54.1224 35.2051 54.9036 36.0352 56.0267 36.0352ZM30.2943 16.748L37.179 16.748L37.179 8.69141C37.179 7.61719 37.765 7.03125 38.7904 7.03125L64.3275 7.03125C65.3529 7.03125 65.9388 7.61719 65.9388 8.69141L65.9388 16.748L72.8236 16.748L72.8236 8.20312C72.8236 3.36914 69.6497 0.146484 64.8157 0.146484L38.3021 0.146484C33.4681 0.146484 30.2943 3.36914 30.2943 8.20312Z" fill="#000000" fill-opacity="0.85"/>
 </g>
</svg>
