<?xml version="1.0" encoding="UTF-8"?>
<!--Generator: Apple Native CoreSVG 232.5-->
<!DOCTYPE svg
PUBLIC "-//W3C//DTD SVG 1.1//EN"
       "http://www.w3.org/Graphics/SVG/1.1/DTD/svg11.dtd">
<svg version="1.1" xmlns="http://www.w3.org/2000/svg" xmlns:xlink="http://www.w3.org/1999/xlink" width="103.069" height="121.533">
 <g>
  <rect height="121.533" opacity="0" width="103.069" x="0" y="0"/>
  <path d="M51.5345 121.533C64.8646 121.533 66.9642 111.621 74.7279 111.621C82.638 111.621 83.9075 121.533 99.1419 121.533L99.3861 121.533C101.29 121.533 102.853 119.971 102.853 118.066C102.853 116.162 101.29 114.648 99.3861 114.648L99.1419 114.648C93.9173 114.648 90.9388 112.451 87.2767 109.863C84.1029 107.568 80.1478 104.736 74.7279 104.736C69.1126 104.736 65.1087 107.715 61.9349 110.107C58.5657 112.646 55.929 114.648 51.5345 114.648C47.14 114.648 44.5032 112.646 41.1341 110.107C37.9603 107.715 33.9564 104.736 28.3411 104.736C22.9212 104.736 18.9661 107.568 15.7923 109.863C12.1302 112.451 9.20051 114.648 3.92707 114.648L3.68293 114.648C1.77863 114.648 0.216133 116.162 0.216133 118.066C0.216133 119.971 1.77863 121.533 3.68293 121.533L3.92707 121.533C19.1614 121.533 20.431 111.621 28.3411 111.621C36.1048 111.621 38.2044 121.533 51.5345 121.533ZM51.5345 108.936C53.7806 108.936 54.9036 108.301 58.5169 105.518C61.6907 103.174 67.2571 99.0234 74.7279 99.0234C79.1224 99.0234 82.7357 100.244 86.9349 102.783L100.851 78.125C105.001 70.8496 103.292 65.5273 96.0169 62.207L60.5189 45.8984C58.4681 44.9707 55.5872 43.4082 51.5345 43.4082C47.5306 43.4082 44.6497 44.9707 42.5501 45.8984L7.05207 62.207C-0.174492 65.5273-1.88348 70.8496 2.21809 78.125L16.1341 102.783C20.3333 100.244 23.9466 99.0234 28.3411 99.0234C35.8118 99.0234 41.3782 103.174 44.5521 105.518C48.1654 108.301 49.2884 108.936 51.5345 108.936ZM51.5345 36.7676C55.929 36.7676 58.7611 37.7441 63.3021 39.8438L88.888 51.6113L84.6888 20.459C83.9564 15.1367 80.6361 11.377 75.3626 11.377L27.804 11.377C22.5306 11.377 19.3568 15.1367 18.4779 21.4355L14.2786 51.5625L39.7669 39.8438C44.3079 37.7441 47.14 36.7676 51.5345 36.7676ZM30.0013 31.5918C28.8294 31.5918 28.0482 30.7617 28.0482 29.5898L28.0482 21.7773C28.0482 20.6055 28.8294 19.7754 30.0013 19.7754L45.138 19.7754C46.6029 19.7754 47.5794 20.6055 47.5794 21.7773L47.5794 29.5898C47.5794 30.7617 46.6029 31.5918 45.138 31.5918ZM57.4427 31.5918C56.3196 31.5918 55.5384 30.7617 55.5384 29.5898L55.5384 21.7773C55.5384 20.6055 56.3196 19.7754 57.4427 19.7754L72.6282 19.7754C74.0931 19.7754 75.0696 20.6055 75.0696 21.7773L75.0696 29.5898C75.0696 30.7617 74.0931 31.5918 72.6282 31.5918ZM31.2708 12.8418L71.847 12.8418L71.847 8.69141C71.847 3.95508 69.0638 1.12305 64.3275 1.12305L38.7904 1.12305C34.054 1.12305 31.2708 3.95508 31.2708 8.69141Z" fill="#000000" fill-opacity="0.85"/>
 </g>
</svg>
