<?xml version="1.0" encoding="UTF-8"?>
<!--Generator: Apple Native CoreSVG 232.5-->
<!DOCTYPE svg
PUBLIC "-//W3C//DTD SVG 1.1//EN"
       "http://www.w3.org/Graphics/SVG/1.1/DTD/svg11.dtd">
<svg version="1.1" xmlns="http://www.w3.org/2000/svg" xmlns:xlink="http://www.w3.org/1999/xlink" width="108.96" height="112.354">
 <g>
  <rect height="112.354" opacity="0" width="108.96" x="0" y="0"/>
  <path d="M52.8931 21.2402C58.8013 21.2402 63.5864 16.4062 63.5864 10.6445C63.5864 4.73633 58.8013 0 52.8931 0C47.0337 0 42.2974 4.73633 42.2974 10.6445C42.2974 16.4062 47.0337 21.2402 52.8931 21.2402ZM14.9048 100.635C12.2681 103.271 12.854 106.494 14.8071 108.252C16.5649 109.814 19.5923 110.156 22.0337 107.715L40.6372 89.1113C41.0278 88.7207 41.1743 88.5742 41.5161 87.9395L50.6958 70.7031C52.0142 68.1641 55.6274 68.0664 57.8735 69.7266L78.6743 85.498L78.6743 106.982C78.6743 110.303 80.7251 112.354 83.7524 112.354C86.7798 112.354 88.8306 110.303 88.8306 106.982L88.8306 83.0566C88.8306 81.5918 88.2446 80.3223 86.9263 79.1504L63.4888 59.0332L63.4888 37.1582C63.4888 35.9375 64.3188 34.9609 65.7837 34.7168L104.651 28.8086C107.385 28.3691 109.29 25.7324 108.85 22.998C108.459 20.2637 105.872 18.3594 103.137 18.7988L25.6958 30.5176L25.6958 14.9902L15.6372 14.9902L15.6372 36.4258C15.6372 39.5996 18.2251 41.8457 21.4478 41.3574L38.1958 38.8184C39.7095 38.5742 40.8325 39.5508 40.8325 41.0645L40.8325 60.8398L32.7759 82.7637ZM16.9067 20.5078C22.6685 20.5078 29.0649 17.8223 32.8247 13.5742C34.0942 12.1582 34.0942 10.3027 32.8247 8.83789C29.0649 4.58984 22.6685 1.9043 16.9067 1.9043C11.1938 1.9043 4.79736 4.58984 0.98877 8.83789C-0.32959 10.3027-0.32959 12.1582 0.98877 13.623C4.79736 17.8223 11.1938 20.5078 16.9067 20.5078Z" fill="#000000" fill-opacity="0.85"/>
 </g>
</svg>
