<?xml version="1.0" encoding="UTF-8"?>
<!--Generator: Apple Native CoreSVG 232.5-->
<!DOCTYPE svg
PUBLIC "-//W3C//DTD SVG 1.1//EN"
       "http://www.w3.org/Graphics/SVG/1.1/DTD/svg11.dtd">
<svg version="1.1" xmlns="http://www.w3.org/2000/svg" xmlns:xlink="http://www.w3.org/1999/xlink" width="84.3262" height="106.396">
 <g>
  <rect height="106.396" opacity="0" width="84.3262" x="0" y="0"/>
  <path d="M32.7148 98.4863C34.6191 97.9492 35.791 97.3633 36.5723 95.8984L47.3145 76.5625C47.5098 76.2207 47.6562 76.0742 48.0957 76.0742L74.3652 76.0742L74.3652 100.83C74.3652 103.662 76.6113 105.811 79.2969 105.811C82.1289 105.811 84.3262 103.662 84.3262 100.83L84.3262 71.6797C84.3262 68.4082 82.5684 66.4551 79.1504 66.1621L57.0312 64.1602L57.0312 36.377C57.0312 30.957 53.2227 26.4648 46.5332 26.4648L44.1895 26.4648C40.2344 26.4648 37.207 27.1484 33.3008 30.0781L16.8945 42.3828C14.0625 44.4336 14.2578 48.584 17.1387 50.4883L37.207 63.8184L37.207 65.0879L28.4668 89.3066L3.66211 96.1426C1.02539 96.875-0.537109 99.5605 0.195312 102.197C0.976562 104.98 3.4668 106.396 6.29883 105.664ZM28.4668 46.0938L35.8887 40.5273C36.4746 40.1367 37.207 40.4297 37.207 41.1621L37.207 51.9043ZM46.5332 21.3379C52.3438 21.3379 57.1289 16.5527 57.1289 10.5957C57.1289 4.78516 52.3438 0 46.5332 0C40.5762 0 35.791 4.78516 35.791 10.5957C35.791 16.5527 40.5762 21.3379 46.5332 21.3379Z" fill="#000000" fill-opacity="0.85"/>
 </g>
</svg>
