<?xml version="1.0" encoding="UTF-8"?>
<!--Generator: Apple Native CoreSVG 232.5-->
<!DOCTYPE svg
PUBLIC "-//W3C//DTD SVG 1.1//EN"
       "http://www.w3.org/Graphics/SVG/1.1/DTD/svg11.dtd">
<svg version="1.1" xmlns="http://www.w3.org/2000/svg" xmlns:xlink="http://www.w3.org/1999/xlink" width="96.8262" height="122.51">
 <g>
  <rect height="122.51" opacity="0" width="96.8262" x="0" y="0"/>
  <path d="M57.4219 21.3379C63.2812 21.3379 68.0664 16.6016 68.0664 10.5957C68.0664 4.73633 63.2812 0 57.4219 0C51.5137 0 46.7285 4.73633 46.7285 10.5957C46.7285 16.6016 51.5137 21.3379 57.4219 21.3379ZM9.91211 80.127L42.0898 80.127C46.582 80.127 48.5352 75.1465 45.9961 72.0703L35.9375 59.7168L64.7461 57.8125L91.7969 57.8125C94.5312 57.8125 96.8262 55.6152 96.8262 52.8809C96.8262 50.1953 94.5312 47.9004 91.7969 47.9004L41.748 47.9004L53.5645 36.0352C54.1016 35.5469 54.7852 35.2051 55.5176 35.3027L90.9668 39.8926C93.8477 40.2344 96.4844 38.0371 96.4844 35.0098C96.4844 32.5684 94.6777 30.4199 92.1875 30.127L17.9688 20.752C16.4062 20.5566 14.9902 21.0938 13.8672 22.1191L1.46484 34.5215C-0.488281 36.4746-0.439453 39.4531 1.46484 41.4551C3.22266 43.3105 6.44531 43.5059 8.44727 41.4551L19.1406 30.8105L30.7129 32.2754C31.7871 32.373 32.2266 33.5449 31.4453 34.3262L20.5078 45.1172C16.2598 49.3164 16.0156 56.1035 20.5078 60.5957L30.0781 70.2637L9.91211 70.2637C7.17773 70.2637 4.98047 72.4609 4.98047 75.1953C4.98047 77.8809 7.17773 80.127 9.91211 80.127ZM57.959 122.51C59.4727 122.51 60.6445 121.338 60.6445 119.824L60.6445 68.9453C60.6445 67.4316 59.4727 66.2598 57.959 66.2598C56.4453 66.2598 55.2246 67.4316 55.2246 68.9453L55.2246 119.824C55.2246 121.338 56.4453 122.51 57.959 122.51Z" fill="#000000" fill-opacity="0.85"/>
 </g>
</svg>
