<?xml version="1.0" encoding="UTF-8"?>
<!--Generator: Apple Native CoreSVG 232.5-->
<!DOCTYPE svg
PUBLIC "-//W3C//DTD SVG 1.1//EN"
       "http://www.w3.org/Graphics/SVG/1.1/DTD/svg11.dtd">
<svg version="1.1" xmlns="http://www.w3.org/2000/svg" xmlns:xlink="http://www.w3.org/1999/xlink" width="65.8074" height="109.912">
 <g>
  <rect height="109.912" opacity="0" width="65.8074" x="0" y="0"/>
  <path d="M8.17224 105.371L22.8695 87.8906C24.2855 86.1816 24.5297 85.791 25.1156 83.9844L26.1898 80.6641L18.3285 70.8008L15.9359 81.8359L1.43395 99.0234C-3.15589 104.541 4.41247 109.912 8.17224 105.371ZM43.9144 103.906C46.9418 110.01 55.9261 106.25 52.6547 99.6094L42.6937 79.4434C41.9125 77.9297 40.8871 76.2695 39.9593 74.9512L33.6605 66.0156L34.1 64.6973C35.7601 59.6191 36.3949 56.5918 36.7855 51.5625L37.7621 37.4512C38.2504 30.7617 34.2953 25.6836 27.4105 25.6836C22.2836 25.6836 18.7679 28.2715 14.0316 32.9102L6.56091 40.2832C4.1195 42.6758 3.33825 44.6289 3.09411 47.8027L2.2152 59.3262C1.97106 62.2559 3.58239 64.3066 6.26794 64.4043C9.00231 64.5996 10.6625 62.9883 10.9066 59.8633L12.0297 47.2168L15.5941 43.9941C16.9125 42.8223 18.5726 43.6035 18.5238 44.9219L17.7425 55.6152C17.3031 61.0352 18.5726 63.623 22.2836 68.2617L32.1957 80.6641C33.1722 81.9336 33.2699 82.4219 33.7093 83.2031ZM60.9066 44.7266L49.6273 44.7266L42.5472 36.8652L41.7172 48.6328L44.5492 51.4648C46.1117 53.0273 47.4789 53.5156 50.4086 53.5156L60.9066 53.5156C63.8363 53.5156 65.7894 51.8555 65.7894 49.1211C65.7894 46.4844 63.7875 44.7266 60.9066 44.7266ZM32.8793 21.2891C38.7386 21.2891 43.475 16.5039 43.475 10.6445C43.475 4.73633 38.7386 0 32.8793 0C26.9711 0 22.2347 4.73633 22.2347 10.6445C22.2347 16.5039 26.9711 21.2891 32.8793 21.2891Z" fill="#000000" fill-opacity="0.85"/>
 </g>
</svg>
