<?xml version="1.0" encoding="UTF-8"?>
<!--Generator: Apple Native CoreSVG 232.5-->
<!DOCTYPE svg
PUBLIC "-//W3C//DTD SVG 1.1//EN"
       "http://www.w3.org/Graphics/SVG/1.1/DTD/svg11.dtd">
<svg version="1.1" xmlns="http://www.w3.org/2000/svg" xmlns:xlink="http://www.w3.org/1999/xlink" width="127.734" height="111.279">
 <g>
  <rect height="111.279" opacity="0" width="127.734" x="0" y="0"/>
  <path d="M64.502 21.3379C70.4102 21.3379 75.1465 16.6016 75.1465 10.6934C75.1465 4.78516 70.4102 0 64.502 0C58.5938 0 53.8086 4.78516 53.8086 10.6934C53.8086 16.6016 58.5938 21.3379 64.502 21.3379ZM106.641 36.4258C109.375 36.4258 111.621 34.2285 111.621 31.3965C111.621 28.6621 109.375 26.4648 106.641 26.4648L54.1992 26.4648C49.4141 26.4648 45.2637 29.0039 43.0664 33.3496L20.9473 77.6367L8.44727 65.1367C6.49414 63.1836 3.32031 63.2324 1.41602 65.1367C-0.488281 67.0898-0.439453 70.2148 1.41602 72.168L19.043 89.8438C21.1426 91.8945 24.4141 91.6016 26.123 89.1113L40.5762 68.0176C41.3574 66.7969 43.0664 66.6016 44.1895 67.4316L61.9629 81.0547L61.9629 105.859C61.9629 108.594 64.1602 110.791 66.9434 110.791C69.7266 110.791 71.9238 108.594 71.9238 105.859L71.9238 78.5645C71.9238 77.2461 71.3867 75.9766 70.459 75.0488L53.1738 57.7637L62.4512 39.1602C63.3789 37.3535 64.9902 36.4258 66.8457 36.4258ZM74.3652 58.7402L94.2383 58.7402C96.9727 58.7402 99.1699 56.4453 99.1699 53.8086C99.1699 51.0254 96.9727 48.7793 94.2383 48.7793L76.416 48.7793L68.7012 41.1133L67.4805 41.1133C66.9922 41.1133 66.6992 41.3086 66.4551 41.748L62.6953 49.1211L70.8984 57.2754C71.875 58.2031 73.0957 58.7402 74.3652 58.7402ZM102.832 48.1934C102.832 52.9297 108.447 56.8359 115.283 56.8359C122.168 56.8359 127.734 52.9297 127.734 48.1934C127.734 43.3594 122.168 39.502 115.283 39.502C108.447 39.502 102.832 43.3594 102.832 48.1934Z" fill="#000000" fill-opacity="0.85"/>
 </g>
</svg>
