<?xml version="1.0" encoding="UTF-8"?>
<!--Generator: Apple Native CoreSVG 232.5-->
<!DOCTYPE svg
PUBLIC "-//W3C//DTD SVG 1.1//EN"
       "http://www.w3.org/Graphics/SVG/1.1/DTD/svg11.dtd">
<svg version="1.1" xmlns="http://www.w3.org/2000/svg" xmlns:xlink="http://www.w3.org/1999/xlink" width="116.699" height="117.041">
 <g>
  <rect height="117.041" opacity="0" width="116.699" x="0" y="0"/>
  <path d="M49.0723 22.3633C54.9316 22.3633 59.668 17.627 59.668 11.7188C59.668 5.85938 54.9316 1.12305 49.0723 1.12305C43.1152 1.12305 38.3789 5.85938 38.3789 11.7188C38.3789 17.627 43.1152 22.3633 49.0723 22.3633ZM52.2949 68.2129L79.1504 76.5137L104.834 88.1836C111.475 91.1621 115.381 81.8359 109.131 78.9551L64.8926 58.9844L64.8926 35.2539C64.8926 33.3008 65.3809 33.0566 66.7969 32.5195L80.127 27.0996C81.7871 26.416 81.9336 26.0254 82.7637 25.0488L96.7773 8.78906C98.6328 6.64062 98.291 3.4668 96.1914 1.70898C94.0918-0.0976562 90.8691 0.195312 89.1113 2.29492L75.7324 17.8711L14.1602 43.0176C12.4023 43.7012 11.2793 44.4336 10.5469 45.166L35.6445 45.166L43.2129 42.1387C44.7266 41.5527 45.2637 42.0898 45.2637 43.0176L45.2637 58.5449C45.2637 63.6719 47.6074 66.7969 52.2949 68.2129ZM47.8516 110.791C46.7285 114.648 49.8047 117.041 52.7832 117.041C54.834 117.041 56.9336 115.918 57.5684 113.428L64.7461 87.4512C64.8438 86.9629 64.8926 86.4746 64.8926 86.084L64.8926 76.9043L53.2227 73.3398L54.7363 85.791ZM2.73438 55.4688L40.4297 55.4688L40.4297 50.0488L2.73438 50.0488C1.17188 50.0488 0 51.2207 0 52.7344C0 54.248 1.17188 55.4688 2.73438 55.4688ZM114.014 55.4688C115.527 55.4688 116.699 54.248 116.699 52.7344C116.699 51.2207 115.527 50.0488 114.014 50.0488L69.7754 50.0488L69.7754 53.7109L69.7754 55.4688Z" fill="#000000" fill-opacity="0.85"/>
 </g>
</svg>
