<?xml version="1.0" encoding="UTF-8"?>
<!--Generator: Apple Native CoreSVG 232.5-->
<!DOCTYPE svg
PUBLIC "-//W3C//DTD SVG 1.1//EN"
       "http://www.w3.org/Graphics/SVG/1.1/DTD/svg11.dtd">
<svg version="1.1" xmlns="http://www.w3.org/2000/svg" xmlns:xlink="http://www.w3.org/1999/xlink" width="104.405" height="113.037">
 <g>
  <rect height="113.037" opacity="0" width="104.405" x="0" y="0"/>
  <path d="M48.8821 21.2891C54.7415 21.2891 59.4778 16.5527 59.4778 10.5957C59.4778 4.73633 54.7415 0 48.8821 0C42.9251 0 38.1888 4.73633 38.1888 10.5957C38.1888 16.5527 42.9251 21.2891 48.8821 21.2891ZM3.91143 110.889C5.7669 112.695 8.84307 113.037 10.9915 110.889L32.3782 89.5508C33.6966 88.2812 33.9407 87.2559 33.7942 85.3516L32.5735 71.582C32.4759 70.7031 33.306 70.3125 33.8919 70.8496L49.2239 84.0332L57.1829 108.789C58.1107 111.67 61.0403 112.793 63.5306 112.061C66.3626 111.23 67.681 108.398 66.8021 105.713L58.5501 79.6387C58.306 78.9062 57.8665 78.0762 57.2806 77.5391L40.7767 61.2305L51.3724 40.0391C51.8118 39.1602 52.886 38.9648 53.6185 39.6973L65.4837 51.6602C66.0208 52.1973 66.8021 52.6367 67.5833 52.8809L91.3626 60.0098C93.3157 60.5957 96.5872 59.8145 97.6126 56.543C98.3939 53.9062 96.8802 51.0254 94.1946 50.2441L71.6849 43.6035L58.8431 30.6152C55.9134 27.6855 52.5442 26.416 48.5403 26.416L14.556 26.416C12.6028 26.416 10.8939 27.4902 10.0638 29.1992L0.542291 48.1445C-0.678412 50.5859 0.200494 53.6621 2.78838 54.8828C5.37628 56.1035 8.30596 55.1758 9.57549 52.5879L17.6321 36.5234L27.6907 36.5234C28.8138 36.5234 29.4974 37.5977 28.9603 38.6719L21.5872 53.4668C18.9505 58.6914 18.2181 64.7949 19.6829 70.5566L23.1985 84.375L3.81378 103.662C1.86065 105.566 1.90948 108.887 3.91143 110.889ZM92.7786 88.6719C99.2239 88.6719 104.4 83.4473 104.4 77.0508C104.4 70.6543 99.2239 65.4785 92.7786 65.4785C86.3821 65.4785 81.2064 70.6543 81.2064 77.0508C81.2064 83.4473 86.3821 88.6719 92.7786 88.6719Z" fill="#000000" fill-opacity="0.85"/>
 </g>
</svg>
