<?xml version="1.0" encoding="UTF-8"?>
<!--Generator: Apple Native CoreSVG 232.5-->
<!DOCTYPE svg
PUBLIC "-//W3C//DTD SVG 1.1//EN"
       "http://www.w3.org/Graphics/SVG/1.1/DTD/svg11.dtd">
<svg version="1.1" xmlns="http://www.w3.org/2000/svg" xmlns:xlink="http://www.w3.org/1999/xlink" width="69.0897" height="131.689">
 <g>
  <rect height="131.689" opacity="0" width="69.0897" x="0" y="0"/>
  <path d="M54.247 34.4727C60.1064 34.4727 64.8427 29.6875 64.8427 23.7305C64.8427 17.9199 60.1064 13.1348 54.247 13.1348C48.2899 13.1348 43.5048 17.9199 43.5048 23.7305C43.5048 29.6875 48.2899 34.4727 54.247 34.4727ZM29.6376 131.152C32.3232 131.152 34.5692 128.955 34.5692 126.221L34.5692 101.855L45.995 85.0098C46.4345 84.3262 47.411 84.5215 47.5087 85.4004L49.2665 100.439C49.3642 101.27 49.5107 101.709 49.9013 102.637L59.5204 127.979C60.6923 131.055 63.5243 131.689 65.8192 130.859C68.1142 129.98 69.872 127.637 68.7001 124.512L59.2274 99.3164L59.2274 52.832C59.2274 47.6074 57.0302 42.1875 52.0009 40.1367L48.9247 38.8672C43.2607 36.5234 37.9384 37.207 33.1532 40.625L21.581 48.9746L8.64151 43.5059L34.3251 7.91016L42.87 7.91016C45.0673 7.91016 46.8739 6.10352 46.8739 3.95508C46.8739 1.70898 45.0673-1.42109e-14 42.87-1.42109e-14L34.7646-1.42109e-14C33.8857-1.42109e-14 33.0067 0.390625 32.4696 1.12305L1.02432 44.6777C-0.684661 47.0215-0.294036 50.4395 2.48917 51.6113L20.2626 59.2285C21.0439 59.5215 21.581 59.5703 22.704 59.5703L34.4716 59.5703C36.3271 59.5703 36.9618 60.791 36.9618 62.1582L36.9618 75.6836L25.1942 97.998C24.7548 98.8281 24.6571 99.4629 24.6571 100.391L24.6571 126.221C24.6571 128.955 26.8544 131.152 29.6376 131.152Z" fill="#000000" fill-opacity="0.85"/>
 </g>
</svg>
