<?xml version="1.0" encoding="UTF-8"?>
<!--Generator: Apple Native CoreSVG 232.5-->
<!DOCTYPE svg
PUBLIC "-//W3C//DTD SVG 1.1//EN"
       "http://www.w3.org/Graphics/SVG/1.1/DTD/svg11.dtd">
<svg version="1.1" xmlns="http://www.w3.org/2000/svg" xmlns:xlink="http://www.w3.org/1999/xlink" width="104.753" height="99.7559">
 <g>
  <rect height="99.7559" opacity="0" width="104.753" x="0" y="0"/>
  <path d="M29.8911 21.3379C35.7993 21.3379 40.5356 16.5527 40.5356 10.5957C40.5356 4.73633 35.7993 0 29.8911 0C24.0317 0 19.1977 4.73633 19.1977 10.5957C19.1977 16.5527 24.0317 21.3379 29.8911 21.3379ZM102.108 89.4043L69.9302 72.0215L51.3266 59.082C49.9595 58.1543 48.6411 56.9336 47.5669 55.5664C49.4712 54.3945 50.2524 52.2461 49.7153 50.1465L46.0532 35.3027C44.7348 30.0781 39.9985 26.4648 34.6274 26.4648L23.0063 26.4648C19.4419 26.4648 16.9516 27.3438 14.6567 29.6387L1.4243 42.8711C-0.187029 44.4824-0.43117 46.9727 0.691877 48.9258L9.96922 65.1855L9.96922 93.7988C9.96922 96.4844 12.2153 98.7793 14.9497 98.7793C17.6841 98.7793 19.9302 96.4844 19.9302 93.7988L19.9302 69.2383L48.397 71.2891L65.6333 81.0547L97.4204 98.1445C100.35 99.707 103.182 98.2422 104.208 96.1914C105.428 93.75 104.5 90.6738 102.108 89.4043ZM11.2388 47.2656L19.8325 38.623L26.522 55.8594L21.2485 58.8867L17.8794 58.8867Z" fill="#000000" fill-opacity="0.85"/>
 </g>
</svg>
