<?xml version="1.0" encoding="UTF-8"?>
<!--Generator: Apple Native CoreSVG 232.5-->
<!DOCTYPE svg
PUBLIC "-//W3C//DTD SVG 1.1//EN"
       "http://www.w3.org/Graphics/SVG/1.1/DTD/svg11.dtd">
<svg version="1.1" xmlns="http://www.w3.org/2000/svg" xmlns:xlink="http://www.w3.org/1999/xlink" width="85.4004" height="118.799">
 <g>
  <rect height="118.799" opacity="0" width="85.4004" x="0" y="0"/>
  <path d="M20.5078 36.8652C26.3672 36.8652 31.1035 32.1289 31.1035 26.1719C31.1035 20.3125 26.3672 15.5762 20.5078 15.5762C14.5996 15.5762 9.81445 20.3125 9.81445 26.1719C9.81445 32.1289 14.5996 36.8652 20.5078 36.8652ZM47.1191 87.9883L62.2559 67.1875L71.8262 84.668C75.0488 99.6582 75.4395 111.133 75.4395 112.891C75.4395 115.918 77.6855 118.164 80.4199 118.164C83.252 118.164 85.4004 115.918 85.4004 113.037C85.4004 112.549 85.1562 99.4629 81.5918 81.8848L81.3965 81.0059C77.2949 60.8398 64.4531 23.5352 31.2988 1.51367C29.6387 0.488281 28.1738 0 26.4648 0L4.98047 0C2.24609 0 0 2.24609 0 4.98047C0 7.86133 2.24609 10.1074 4.98047 10.1074L26.0742 10.1074C31.2988 13.7207 35.8398 17.627 39.9902 21.8262C40.5762 22.3633 40.625 23.2422 40.2344 23.877L23.3398 52.7344C21.2891 56.3477 23.7793 60.3027 27.6855 60.3027L50.7324 60.3027L38.623 82.5684L38.1348 83.4473L23.2422 110.693C21.875 113.135 22.7539 116.26 25.1953 117.529C27.4902 118.75 30.6152 118.213 32.0801 115.527ZM36.377 50.293L40.1367 43.8965C40.7227 42.7734 41.8945 43.0176 42.3828 43.75L46.7773 50.293Z" fill="#000000" fill-opacity="0.85"/>
 </g>
</svg>
