<?xml version="1.0" encoding="UTF-8"?>
<!--Generator: Apple Native CoreSVG 232.5-->
<!DOCTYPE svg
PUBLIC "-//W3C//DTD SVG 1.1//EN"
       "http://www.w3.org/Graphics/SVG/1.1/DTD/svg11.dtd">
<svg version="1.1" xmlns="http://www.w3.org/2000/svg" xmlns:xlink="http://www.w3.org/1999/xlink" width="132.56" height="99.0723">
 <g>
  <rect height="99.0723" opacity="0" width="132.56" x="0" y="0"/>
  <path d="M99.9712 26.5137C107.247 26.5137 113.106 20.4102 113.106 13.3301C113.106 5.95703 107.247 0 99.9712 0C92.5494 0 86.69 5.95703 86.69 13.3301C86.69 20.6055 92.5494 26.5137 99.9712 26.5137ZM21.2603 96.3867C23.7994 99.0234 28.1451 98.8281 31.2701 95.6055L52.2662 73.9258C52.9498 73.1934 53.438 72.998 54.5611 73.4375L70.9673 79.6387C81.4654 83.6914 91.4263 80.2246 96.0162 71.8262L106.563 52.6367C110.665 45.166 109.395 37.4512 102.266 33.6426C95.3814 29.8828 88.2037 32.7148 84.0533 40.3809L70.3814 65.332L58.7115 61.084C52.9498 58.9844 48.1158 59.668 43.5259 64.4531L21.6998 87.0117C18.6724 90.1367 18.9654 94.043 21.2603 96.3867Z" fill="#000000" fill-opacity="0.85"/>
  <path d="M24.3853 19.4824C24.3853 21.5332 25.9478 23.1445 27.9986 23.1445L47.1392 23.1445L47.1392 30.7617C47.1392 34.1797 50.606 35.6934 53.1939 33.3984L65.8404 22.168C67.5494 20.5566 67.5494 18.5547 65.8404 16.9922L53.1939 5.76172C50.7037 3.56445 47.1392 4.78516 47.1392 8.39844L47.1392 15.9668L27.9986 15.9668C25.9478 15.9668 24.3853 17.5293 24.3853 19.4824ZM14.8638 25.0977C12.9107 25.0977 11.3482 26.709 11.3482 28.7109L11.3482 47.8027L3.77984 47.8516C0.117728 47.9004-1.10298 51.4648 1.09429 53.8574L12.3736 66.5527C13.9361 68.3105 15.9869 68.2617 17.5494 66.5527L28.731 53.8574C31.0259 51.3184 29.5611 47.8027 26.0943 47.8027L18.4771 47.8027L18.4771 28.7109C18.4771 26.709 16.8658 25.0977 14.8638 25.0977Z" fill="#000000" fill-opacity="0.85"/>
 </g>
</svg>
