<?xml version="1.0" encoding="UTF-8"?>
<!--Generator: Apple Native CoreSVG 232.5-->
<!DOCTYPE svg
PUBLIC "-//W3C//DTD SVG 1.1//EN"
       "http://www.w3.org/Graphics/SVG/1.1/DTD/svg11.dtd">
<svg version="1.1" xmlns="http://www.w3.org/2000/svg" xmlns:xlink="http://www.w3.org/1999/xlink" width="157.647" height="101.611">
 <g>
  <rect height="101.611" opacity="0" width="157.647" x="0" y="0"/>
  <path d="M130.63 27.7832C137.954 27.7832 143.814 21.6797 143.814 14.5996C143.814 7.22656 137.954 1.26953 130.63 1.26953C123.257 1.26953 117.349 7.22656 117.349 14.5996C117.349 21.875 123.257 27.7832 130.63 27.7832ZM51.9681 97.6562C54.5072 100.293 58.8529 100.098 61.929 96.875L82.974 75.1953C83.6576 74.4629 84.1458 74.2676 85.2201 74.707L101.626 80.9082C112.173 84.9609 122.085 81.4941 126.724 73.0957L137.271 53.9062C141.372 46.4355 140.054 38.7207 132.974 34.9121C126.04 31.1523 118.911 33.9844 114.761 41.6504L101.04 66.6016L89.4193 62.3535C83.6087 60.2539 78.8236 60.9375 74.2337 65.7227L52.4076 88.2812C49.3802 91.4062 49.6732 95.3125 51.9681 97.6562Z" fill="#000000" fill-opacity="0.85"/>
  <path d="M0.845051 16.9922L14.1263 33.9355C14.7122 34.7168 15.64 34.8633 16.4701 34.375C19.6439 32.7148 24.1849 31.5918 27.7493 31.5918C31.3626 31.5918 35.9036 32.7148 38.9798 34.375C39.9076 34.8633 40.8353 34.7168 41.3724 33.9355L54.7025 16.9922C56.0208 15.2832 55.7767 13.5742 54.2142 12.3047C48.7943 8.1543 38.5404 4.98047 27.7493 4.98047C17.0072 4.98047 6.75325 8.1543 1.38216 12.3047C-0.277996 13.5742-0.42448 15.2832 0.845051 16.9922ZM14.6146 43.8477C13.1009 41.8457 12.4661 39.9902 12.4661 37.9883C12.4661 33.3984 16.1771 32.2266 16.1771 29.541C16.1771 26.8066 12.4661 25.6836 12.4661 20.9473C12.4661 18.9941 13.1009 17.1387 14.6146 15.1855C16.3236 13.1348 19.3997 15.332 17.7396 17.4805C16.6654 18.9941 16.3724 19.8242 16.3724 20.9473C16.3724 24.2676 20.0345 25.1953 20.0345 29.541C20.0345 33.8379 16.3724 34.8145 16.3724 37.9883C16.3724 39.2578 16.6654 39.9902 17.7396 41.5527C19.3509 43.6523 16.3236 45.8984 14.6146 43.8477ZM26.0892 43.8477C24.6732 41.8457 23.9896 39.9902 23.9896 37.9883C23.9896 33.3984 27.7005 32.2266 27.7005 29.541C27.7005 26.8066 23.9896 25.6836 23.9896 20.9473C23.9896 18.9941 24.6243 17.1387 26.0892 15.1855C27.7982 13.1348 30.9232 15.332 29.3118 17.4805C28.1888 18.9941 27.8958 19.8242 27.8958 20.9473C27.8958 24.2676 31.6068 25.1953 31.6068 29.541C31.6068 33.8379 27.8958 34.8145 27.8958 37.9883C27.8958 39.2578 28.1888 39.9902 29.263 41.5527C30.8743 43.6523 27.7982 45.8984 26.0892 43.8477ZM37.7103 43.8477C36.1966 41.8457 35.513 39.9902 35.513 37.9883C35.513 33.3984 39.2728 32.2266 39.2728 29.541C39.2728 26.8066 35.513 25.6836 35.513 20.9473C35.513 18.9941 36.1478 17.1387 37.7591 15.1855C39.4193 13.1348 42.4466 15.332 40.8353 17.4805C39.7611 18.9941 39.4193 19.8242 39.4193 20.9473C39.4193 24.2676 43.1302 25.1953 43.1302 29.541C43.1302 33.8379 39.4193 34.8145 39.4193 37.9883C39.4193 39.2578 39.7611 39.9902 40.7865 41.5527C42.4466 43.6523 39.3704 45.8984 37.7103 43.8477ZM80.1908 0C78.2376 0 76.6263 1.5625 76.6263 3.61328L76.6263 22.6074L68.7161 22.6074C65.054 22.6074 63.7845 26.2695 66.0306 28.7598L77.6029 41.8457C79.1654 43.6035 81.265 43.6035 82.8763 41.8457L94.4486 28.7598C96.7923 26.1719 95.2298 22.6074 91.763 22.6074L83.804 22.6074L83.804 3.61328C83.804 1.5625 82.2415 0 80.1908 0Z" fill="#000000" fill-opacity="0.85"/>
 </g>
</svg>
