<?xml version="1.0" encoding="UTF-8"?>
<!--Generator: Apple Native CoreSVG 232.5-->
<!DOCTYPE svg
PUBLIC "-//W3C//DTD SVG 1.1//EN"
       "http://www.w3.org/Graphics/SVG/1.1/DTD/svg11.dtd">
<svg version="1.1" xmlns="http://www.w3.org/2000/svg" xmlns:xlink="http://www.w3.org/1999/xlink" width="104.579" height="89.4043">
 <g>
  <rect height="89.4043" opacity="0" width="104.579" x="0" y="0"/>
  <path d="M52.5338 21.3379C58.3932 21.3379 63.1783 16.5527 63.1783 10.5957C63.1783 4.73633 58.3932 0 52.5338 0C46.5768 0 41.8404 4.73633 41.8404 10.5957C41.8404 16.5527 46.5768 21.3379 52.5338 21.3379ZM7.12363 66.5039L31.6353 68.5547C36.0299 68.9453 36.9576 69.2383 41.1568 70.4102L71.0396 78.8086L97.8951 88.623C100.239 89.4531 103.413 88.623 104.34 85.6445C105.122 83.0566 103.95 80.2246 101.362 79.2969L74.5553 69.5312C74.1158 69.3848 73.2369 69.043 72.8951 68.8965L52.0455 61.377C54.8287 56.0547 58.5885 47.5098 59.565 38.2324C59.6627 37.1582 60.3463 36.6211 61.3228 36.6211L97.1627 36.6211C99.9459 36.6211 102.094 34.375 102.094 31.6406C102.094 28.8574 99.9459 26.6602 97.1627 26.6602L57.856 26.6602C51.2643 26.6602 50.6783 26.6113 43.5006 24.6582L6.34238 14.3555C3.65683 13.623 0.971281 15.1855 0.190031 17.8223C-0.54239 20.5078 1.02011 23.2422 3.65683 23.9746L38.3248 33.5449C39.2037 33.7891 39.7896 34.4727 39.692 35.498C38.5689 44.2383 34.3209 52.6855 32.0748 56.543L12.4947 56.543L12.4947 36.6211C12.4947 33.8867 10.151 31.6406 7.46542 31.6406C4.73105 31.6406 2.48495 33.8867 2.48495 36.6211L2.48495 61.4746C2.48495 64.4043 3.80331 66.1621 7.12363 66.5039Z" fill="#000000" fill-opacity="0.85"/>
 </g>
</svg>
