<?xml version="1.0" encoding="UTF-8"?>
<!--Generator: Apple Native CoreSVG 232.5-->
<!DOCTYPE svg
PUBLIC "-//W3C//DTD SVG 1.1//EN"
       "http://www.w3.org/Graphics/SVG/1.1/DTD/svg11.dtd">
<svg version="1.1" xmlns="http://www.w3.org/2000/svg" xmlns:xlink="http://www.w3.org/1999/xlink" width="94.2459" height="115.967">
 <g>
  <rect height="115.967" opacity="0" width="94.2459" x="0" y="0"/>
  <path d="M10.746 21.3379C16.5565 21.3379 21.3417 16.5527 21.3417 10.5957C21.3417 4.73633 16.5565 0 10.746 0C4.78896 0 0.00380071 4.73633 0.00380071 10.5957C0.00380071 16.5527 4.78896 21.3379 10.746 21.3379ZM5.13075 61.084L25.3456 61.084L26.5663 62.3047C29.0077 64.7461 32.328 65.9668 35.5507 65.9668C38.2362 65.9668 40.8241 65.1367 43.119 63.4277L67.5331 45.166L91.8007 30.5664C94.1444 29.1992 94.9257 26.1719 93.6073 23.8281C92.1425 21.4844 89.1151 20.752 86.7714 22.168L40.5311 49.8535L27.6893 36.9629C27.3476 36.6699 27.5429 36.2305 27.9823 36.2305L39.7499 36.2305C42.4843 36.2305 44.7304 34.0332 44.7304 31.2988L44.7304 9.7168C44.7304 6.93359 42.4843 4.73633 39.7499 4.73633C37.0155 4.73633 34.8183 6.93359 34.8183 9.7168L34.8183 26.416L10.0136 26.416C4.64247 26.416 0.199113 30.8105 0.199113 36.2305L0.199113 56.1523C0.199113 58.7891 2.34755 61.084 5.13075 61.084ZM9.67177 51.416L9.67177 46.7285C9.67177 46.0449 10.453 45.7031 10.9413 46.1914L16.1659 51.416ZM36.2831 115.479C38.8222 115.967 41.6542 114.307 42.1913 111.572L47.1229 86.8164C47.2694 86.1816 47.2694 85.6934 47.1718 85.0098L46.244 66.9922C42.8749 69.5312 39.164 70.6543 35.5507 70.6543C35.1112 70.6543 34.6229 70.6543 34.1347 70.6055L37.162 85.8398L32.4257 109.619C31.8886 112.305 33.6464 114.941 36.2831 115.479ZM42.2401 17.0898C46.3417 17.0898 49.7108 13.8184 49.7108 9.7168C49.7108 5.56641 46.3417 2.29492 42.2401 2.29492C38.1874 2.29492 34.8183 5.56641 34.8183 9.7168C34.8183 13.8184 38.1874 17.0898 42.2401 17.0898Z" fill="#000000" fill-opacity="0.85"/>
 </g>
</svg>
