<?xml version="1.0" encoding="UTF-8"?>
<!--Generator: Apple Native CoreSVG 232.5-->
<!DOCTYPE svg
PUBLIC "-//W3C//DTD SVG 1.1//EN"
       "http://www.w3.org/Graphics/SVG/1.1/DTD/svg11.dtd">
<svg version="1.1" xmlns="http://www.w3.org/2000/svg" xmlns:xlink="http://www.w3.org/1999/xlink" width="80.7617" height="118.994">
 <g>
  <rect height="118.994" opacity="0" width="80.7617" x="0" y="0"/>
  <path d="M39.0625 24.2188C44.9219 24.2188 49.707 19.4824 49.707 13.4766C49.707 7.66602 44.9219 2.88086 39.0625 2.88086C33.1055 2.88086 28.3691 7.66602 28.3691 13.4766C28.3691 19.4824 33.1055 24.2188 39.0625 24.2188ZM4.98047 117.773C7.12891 118.896 10.2539 118.457 11.7188 115.82L24.0234 93.6523L31.2988 77.2949C31.4453 76.9531 31.9336 76.8066 32.2266 77.0996L51.7578 91.2598L51.7578 113.379C51.7578 116.162 53.9551 118.359 56.6895 118.359C59.4727 118.359 61.6211 116.162 61.6211 113.379L61.6211 89.0625C61.6211 87.6465 61.2305 86.1816 60.1074 85.1562L39.7461 65.918L41.6504 50.4395C41.6992 49.8535 42.4805 49.8047 42.6758 50.293L47.2168 61.084C47.998 62.9883 49.7559 64.1113 51.7578 64.1113L72.7051 64.1113C75.4395 64.1113 77.6367 61.9141 77.6367 59.1797C77.6367 56.4453 75.4395 54.248 72.7051 54.248L54.9805 54.248L47.9492 37.6953C46.0938 33.3984 43.3594 30.957 37.1094 29.248L34.2773 28.4668C27.4902 26.5625 22.8516 26.2695 17.3828 28.6621L9.86328 31.8848L9.86328 13.5742C9.86328 10.8887 7.61719 8.69141 4.93164 8.69141C2.19727 8.69141 0 10.8887 0 13.5742L0 39.9902C0 43.5059 3.66211 45.4102 6.88477 43.9941L20.8496 37.8906C21.4844 37.6465 22.0703 38.0371 21.9727 38.7207L14.9414 89.6973L3.02734 111.084C1.75781 113.379 2.58789 116.553 4.98047 117.773ZM69.3848 46.7285L74.8047 46.7285L74.8047 2.68555C74.8047 1.17188 73.584 0 72.0703 0C70.5566 0 69.3848 1.17188 69.3848 2.68555ZM65.332 49.5605L78.8086 49.5605C80.4199 49.5605 81.1035 48.1934 80.5664 46.7285C79.3457 43.0664 75.9766 40.5273 72.0703 40.5273C68.1641 40.5273 64.7949 43.0664 63.5742 46.7285C63.0371 48.1934 63.7207 49.5605 65.332 49.5605Z" fill="#000000" fill-opacity="0.85"/>
 </g>
</svg>
