<?xml version="1.0" encoding="UTF-8"?>
<!--Generator: Apple Native CoreSVG 232.5-->
<!DOCTYPE svg
PUBLIC "-//W3C//DTD SVG 1.1//EN"
       "http://www.w3.org/Graphics/SVG/1.1/DTD/svg11.dtd">
<svg version="1.1" xmlns="http://www.w3.org/2000/svg" xmlns:xlink="http://www.w3.org/1999/xlink" width="108.447" height="93.5059">
 <g>
  <rect height="93.5059" opacity="0" width="108.447" x="0" y="0"/>
  <path d="M62.0117 21.3379C67.8711 21.3379 72.6562 16.6016 72.6562 10.6445C72.6562 4.78516 67.8711 0 62.0117 0C56.0547 0 51.3184 4.78516 51.3184 10.6445C51.3184 16.6016 56.0547 21.3379 62.0117 21.3379ZM69.6777 54.9805C72.5586 54.9805 74.8535 52.7344 74.8535 49.8535C74.8535 46.9727 72.5586 44.7266 69.6777 44.7266L51.7578 44.7266L51.7578 26.3672C51.7578 20.2637 46.6309 16.3574 40.9668 17.5293L10.791 23.7793C-0.146484 26.0254-3.125 38.9648 4.78516 45.9473L23.584 62.4512L23.584 88.3301C23.584 91.1133 25.9277 93.457 28.7109 93.457C31.4941 93.457 33.8379 91.1133 33.8379 88.3301L33.8379 60.498C33.8379 58.6914 33.4473 57.7148 32.3242 56.4941L17.8711 41.9434C17.041 41.1133 17.4805 39.9902 18.457 39.7949L38.7695 36.0352C40.7715 35.6445 41.5039 36.3281 41.5039 38.0859L41.5039 49.8535C41.5039 52.7344 43.8477 54.9805 46.6309 54.9805ZM97.2656 74.3652L104.395 74.3652C106.836 74.3652 108.447 72.7539 108.447 70.3125L108.447 26.4648C108.447 24.1699 106.836 22.5586 104.492 22.5586L97.0703 22.5586C79.6387 22.5586 69.0918 27.0996 58.0078 39.9902L65.1855 39.9902C65.3809 39.9902 65.5273 39.9902 65.7227 39.9902C74.4629 31.3965 83.4473 28.1738 97.0703 28.1738L102.783 28.1738L102.783 68.6523L97.2656 68.6523C95.459 68.6523 94.0918 67.7734 93.3105 66.2598L88.8672 57.373C88.0859 55.9082 86.6699 55.5664 85.498 55.957C84.0332 56.4453 82.9102 58.0078 83.8379 59.9121L88.2812 68.8477C89.9902 72.2168 93.4082 74.3652 97.2656 74.3652ZM38.5742 71.6309C43.2617 68.2617 47.0215 64.0625 50.3906 59.7168L46.6309 59.7168C45.5566 59.7168 44.4824 59.5215 43.457 59.1309C41.9434 60.9863 40.332 62.6465 38.5742 64.2578ZM3.125 79.4922L11.5234 79.4922C14.1113 79.4922 16.5527 79.3457 18.8477 79.0039L18.8477 73.3398C16.6016 73.6816 14.1113 73.877 11.5234 73.877L3.125 73.877C1.51367 73.877 0.244141 75.0488 0.244141 76.709C0.244141 78.1738 1.51367 79.4922 3.125 79.4922Z" fill="#000000" fill-opacity="0.85"/>
 </g>
</svg>
