<?xml version="1.0" encoding="UTF-8"?>
<!--Generator: Apple Native CoreSVG 232.5-->
<!DOCTYPE svg
PUBLIC "-//W3C//DTD SVG 1.1//EN"
       "http://www.w3.org/Graphics/SVG/1.1/DTD/svg11.dtd">
<svg version="1.1" xmlns="http://www.w3.org/2000/svg" xmlns:xlink="http://www.w3.org/1999/xlink" width="93.6365" height="99.4629">
 <g>
  <rect height="99.4629" opacity="0" width="93.6365" x="0" y="0"/>
  <path d="M80.4852 26.709C87.8095 26.709 93.62 20.6055 93.62 13.5254C93.62 6.15234 87.8095 0.195312 80.4852 0.195312C73.1122 0.195312 67.204 6.15234 67.204 13.5254C67.204 20.8008 73.1122 26.709 80.4852 26.709ZM1.82313 96.582C4.31337 99.2188 8.65907 99.0234 11.7841 95.8008L32.7802 74.1211C33.4638 73.3887 34.0009 73.1934 35.0751 73.6328L51.4813 79.834C62.0282 83.8867 71.9403 80.4199 76.579 72.0215L87.1259 52.832C91.2274 45.3613 89.9091 37.6465 82.7802 33.8379C75.8954 30.0781 68.7665 32.9102 64.5673 40.5762L50.8954 65.5273L39.2255 61.2793C33.4638 59.1797 28.6786 59.8633 24.0888 64.6484L2.26258 87.207C-0.813588 90.332-0.520619 94.2383 1.82313 96.582Z" fill="#000000" fill-opacity="0.85"/>
  <path d="M17.497 0C15.1532 0 13.2977 1.80664 13.2977 4.15039L13.2977 26.6113L4.36219 26.6113C0.358287 26.6113-1.39953 30.6641 1.28602 33.6426L14.4208 48.4375C16.1786 50.4395 18.5712 50.4883 20.4266 48.4375L33.5126 33.6426C36.0516 30.8105 34.6356 26.6113 30.4852 26.6113L21.5985 26.6113L21.5985 4.15039C21.5985 1.80664 19.7919 0 17.497 0Z" fill="#000000" fill-opacity="0.85"/>
 </g>
</svg>
