<?xml version="1.0" encoding="UTF-8"?>
<!--Generator: Apple Native CoreSVG 232.5-->
<!DOCTYPE svg
PUBLIC "-//W3C//DTD SVG 1.1//EN"
       "http://www.w3.org/Graphics/SVG/1.1/DTD/svg11.dtd">
<svg version="1.1" xmlns="http://www.w3.org/2000/svg" xmlns:xlink="http://www.w3.org/1999/xlink" width="81.7689" height="107.764">
 <g>
  <rect height="107.764" opacity="0" width="81.7689" x="0" y="0"/>
  <path d="M51.0407 21.2891C56.9489 21.2891 61.6852 16.5527 61.6852 10.6445C61.6852 4.73633 56.9489 0 51.0407 0C45.1325 0 40.3962 4.73633 40.3962 10.6445C40.3962 16.5527 45.1325 21.2891 51.0407 21.2891ZM34.3415 63.7695L53.0427 74.2676L40.9821 84.6191C38.3942 86.8164 38.443 89.6973 40.0055 91.4551C41.6169 93.2617 44.4977 93.7012 47.1833 91.4062L64.029 77.0508C66.3239 75.0977 65.9821 70.8984 63.1989 69.0918L44.8884 57.0801L48.5016 44.4336C48.9899 42.627 51.0895 42.3828 52.1637 43.9453L57.5348 51.8066C58.8044 53.6133 61.0993 54.3457 63.1989 53.3691L78.6774 46.4844C81.4118 45.2637 82.4372 42.8711 81.2653 40.3809C80.0446 37.9395 77.7009 37.207 74.9665 38.4277L62.7106 43.8477L54.2634 32.1777C49.8688 26.123 44.4001 23.6328 35.4157 24.3164L18.277 25.5371C15.5427 25.7324 13.6872 27.4902 13.2966 30.3223L11.0016 47.7051C10.5622 50.7324 12.0759 52.832 14.7614 53.125C17.4958 53.3691 19.2536 51.8066 19.6442 48.7793L21.7438 34.5703L28.6286 34.082C30.1423 33.9355 31.6559 35.0098 31.1188 36.9141L27.1149 50.8789C24.7712 59.1309 30.1423 61.377 34.3415 63.7695ZM1.67547 105.957C3.48211 107.471 6.26531 107.666 8.75554 105.273L24.5759 89.5996C25.8942 88.2812 26.1872 87.9883 27.0173 85.9375L33.6579 68.75L32.0466 67.8711C28.3356 65.8691 25.7477 63.8184 23.9899 61.6211L18.1794 82.1777L1.77312 98.5352C-0.814769 101.074-0.326488 104.199 1.67547 105.957Z" fill="#000000" fill-opacity="0.85"/>
 </g>
</svg>
