<?xml version="1.0" encoding="UTF-8"?>
<!--Generator: Apple Native CoreSVG 232.5-->
<!DOCTYPE svg
PUBLIC "-//W3C//DTD SVG 1.1//EN"
       "http://www.w3.org/Graphics/SVG/1.1/DTD/svg11.dtd">
<svg version="1.1" xmlns="http://www.w3.org/2000/svg" xmlns:xlink="http://www.w3.org/1999/xlink" width="94.464" height="92.692">
 <g>
  <rect height="92.692" opacity="0" width="94.464" x="0" y="0"/>
  <path d="M19.1802 24.2025C25.0884 24.2025 29.8248 19.4661 29.8248 13.5579C29.8248 7.69856 25.0884 2.91341 19.1802 2.91341C13.272 2.91341 8.5357 7.69856 8.5357 13.5579C8.5357 19.4661 13.272 24.2025 19.1802 24.2025ZM0.137258 44.7103L2.96929 62.1908C4.09234 68.6361 12.8814 67.3177 11.856 60.9212L9.36577 45.8333L19.2779 41.9759C20.7916 41.39 22.1099 41.5853 22.7447 43.0013L31.8755 61.0677C34.6099 66.4876 36.856 68.1478 39.1021 69.7591L68.5455 91.39C73.7212 95.1986 79.9224 87.679 74.1119 83.3822L51.2115 66.5853C50.0884 65.7552 50.1861 64.2415 51.4068 63.5579L66.983 54.5736L87.3931 64.3392C93.2525 67.0736 97.8912 58.9193 91.0552 55.6478L69.2779 45.2962C66.5923 44.0267 64.1021 44.4173 61.9537 45.6868L51.6998 51.6927C50.3326 52.474 49.356 52.0833 48.8677 51.0579L40.6158 34.2611C39.8345 32.6986 40.0298 31.1849 41.7388 30.3548L49.2584 26.9368C51.7486 25.765 52.6763 24.9349 53.3599 22.5423L58.1451 5.98958C59.9029-0.260421 51.5044-2.55534 49.6978 3.69466L45.0591 19.9056L3.45757 38.2161C0.625539 39.4368-0.399851 41.5853 0.137258 44.7103Z" fill="#000000" fill-opacity="0.85"/>
 </g>
</svg>
