<?xml version="1.0" encoding="UTF-8"?>
<!--Generator: Apple Native CoreSVG 232.5-->
<!DOCTYPE svg
PUBLIC "-//W3C//DTD SVG 1.1//EN"
       "http://www.w3.org/Graphics/SVG/1.1/DTD/svg11.dtd">
<svg version="1.1" xmlns="http://www.w3.org/2000/svg" xmlns:xlink="http://www.w3.org/1999/xlink" width="117.676" height="116.526">
 <g>
  <rect height="116.526" opacity="0" width="117.676" x="0" y="0"/>
  <path d="M12.7441 6.87152L20.752 6.87152C20.4102 5.06488 20.6055 3.16059 21.2891 1.4516L12.7441 1.4516C11.2305 1.4516 10.0098 2.6723 10.0098 4.18598C10.0098 5.69965 11.2305 6.87152 12.7441 6.87152ZM43.2617 6.87152L88.2812 6.87152L91.3574 2.33051C91.5527 2.08637 91.748 1.74457 91.9434 1.4516L39.6484 1.4516C39.8438 1.74457 40.0391 2.08637 40.2344 2.37934ZM110.84 6.87152L114.99 6.87152C116.504 6.87152 117.676 5.69965 117.676 4.18598C117.676 2.6723 116.504 1.4516 114.99 1.4516L110.303 1.4516C110.986 3.16059 111.182 5.01605 110.84 6.87152ZM66.1133 33.1899C72.0215 33.1899 76.8066 28.4536 76.8066 22.5454C76.8066 16.6371 72.0215 11.852 66.1133 11.852C60.2051 11.852 55.4688 16.6371 55.4688 22.5454C55.4688 28.4536 60.2051 33.1899 66.1133 33.1899ZM40.2344 76.5004C46.1426 83.5805 55.6641 82.6039 60.4492 75.4262L105.469 8.0434C107.031 5.65082 106.396 2.52582 104.053 0.963319C101.758-0.599181 98.584-0.013243 96.9727 2.37934L76.6113 32.9946C74.3164 36.5102 70.3125 38.3657 66.1133 38.3657C61.6699 38.3657 57.1289 36.2661 54.248 31.9692L34.6191 2.37934C33.0566-0.013243 29.9316-0.599181 27.5391 0.963319C25.1953 2.52582 24.5605 5.65082 26.123 8.0434L50.1953 44.1274C51.3184 45.7875 51.3672 48.0336 50.1953 49.7426L43.5059 59.85L28.8574 47.1547C26.8066 45.2993 23.6328 45.2016 21.3867 47.4477L1.51367 67.4184C-0.488281 69.4692-0.488281 72.5454 1.51367 74.5473C3.71094 76.6469 6.73828 76.4028 8.59375 74.5473L25 58.2387ZM52.2461 114.245C53.8086 111.901 53.2227 108.922 50.8301 107.311L32.959 95.3481L42.8223 84.4594C40.5762 83.3852 38.5254 81.725 36.6211 79.5278L33.1055 75.4262L21.0938 93.4926C19.5312 95.7875 20.1172 98.9614 22.4609 100.573L45.3125 115.661C47.6562 117.272 50.7812 116.539 52.2461 114.245Z" fill="#000000" fill-opacity="0.85"/>
 </g>
</svg>
