<?xml version="1.0" encoding="UTF-8"?>
<!--Generator: Apple Native CoreSVG 232.5-->
<!DOCTYPE svg
PUBLIC "-//W3C//DTD SVG 1.1//EN"
       "http://www.w3.org/Graphics/SVG/1.1/DTD/svg11.dtd">
<svg version="1.1" xmlns="http://www.w3.org/2000/svg" xmlns:xlink="http://www.w3.org/1999/xlink" width="91.8457" height="126.904">
 <g>
  <rect height="126.904" opacity="0" width="91.8457" x="0" y="0"/>
  <path d="M36.9141 21.3379C42.7246 21.3379 47.5586 16.5039 47.5586 10.6934C47.5586 4.83398 42.7246 0 36.9141 0C31.0547 0 26.2207 4.83398 26.2207 10.6934C26.2207 16.5039 31.0547 21.3379 36.9141 21.3379ZM43.2129 101.465C45.1172 101.953 48.3398 101.27 49.2676 98.1445L56.3477 74.6582C57.0801 72.1191 55.957 69.5312 53.2715 68.6035L34.082 61.9629L36.4746 45.6055C36.5723 44.6289 37.8418 44.3848 38.2812 45.3125L42.3828 53.2715C43.3105 55.0781 44.9219 55.957 46.7773 55.957L66.4062 55.957C69.0918 55.957 71.3379 53.8574 71.3379 51.0742C71.3379 48.4375 69.0918 46.1914 66.4062 46.1914L49.8047 46.1914L43.4082 33.5449C41.3574 29.4434 37.6953 26.5625 33.1055 25.6836L30.3711 25.1465C25.3418 24.1699 21.2891 25.2441 18.1641 27.1973L2.29492 37.0605C0.927734 37.9883 0 39.5508 0 41.3086L0 60.8887C0 63.5742 2.24609 65.8691 4.93164 65.8691C7.61719 65.8691 9.86328 63.5742 9.86328 60.8887L9.86328 43.9453L16.6992 39.6973C17.334 39.3555 18.0664 39.7461 17.9199 40.4785L15.6738 58.5938C14.7949 65.5273 17.0898 70.2637 25.0488 72.1191L45.4102 76.9043L39.8926 95.4102C39.1602 97.9492 40.1367 100.586 43.2129 101.465ZM7.17773 119.141C8.93555 120.312 12.1094 120.312 13.916 117.676L28.3691 96.1426C29.0527 95.1172 29.3945 94.3359 29.5898 93.1152L31.6406 78.7109L23.9746 76.9043C22.8027 76.6602 21.7773 76.2695 20.8008 75.9277L19.7754 91.4062L5.81055 112.305C4.29688 114.551 4.83398 117.627 7.17773 119.141ZM26.6113 126.807L42.334 126.807C43.8477 126.807 45.1172 125.537 45.1172 124.023L45.1172 114.6L58.1055 114.6C59.5703 114.6 60.791 113.428 60.791 111.865L60.791 102.393L73.877 102.393C75.3906 102.393 76.5625 101.221 76.5625 99.707L76.5625 90.2344L89.0625 90.2344C90.5762 90.2344 91.8457 89.0137 91.8457 87.5C91.8457 86.0352 90.5762 84.7656 89.0625 84.7656L73.877 84.7656C72.3633 84.7656 71.1914 86.0352 71.1914 87.5L71.1914 96.9727L58.1055 96.9727C56.543 96.9727 55.4199 98.2422 55.4199 99.707L55.4199 109.18L42.334 109.18C40.8691 109.18 39.6973 110.352 39.6973 111.865L39.6973 121.387L26.6113 121.387C25.0488 121.387 23.9258 122.559 23.9258 124.023C23.9258 125.537 25.0488 126.807 26.6113 126.807Z" fill="#000000" fill-opacity="0.85"/>
 </g>
</svg>
