<?xml version="1.0" encoding="UTF-8"?>
<!--Generator: Apple Native CoreSVG 232.5-->
<!DOCTYPE svg
PUBLIC "-//W3C//DTD SVG 1.1//EN"
       "http://www.w3.org/Graphics/SVG/1.1/DTD/svg11.dtd">
<svg version="1.1" xmlns="http://www.w3.org/2000/svg" xmlns:xlink="http://www.w3.org/1999/xlink" width="112.126" height="103.662">
 <g>
  <rect height="103.662" opacity="0" width="112.126" x="0" y="0"/>
  <path d="M83.0163 21.2891C88.8268 21.2891 93.5631 16.5527 93.5631 10.5957C93.5631 4.73633 88.8268 0 83.0163 0C77.0592 0 72.3229 4.73633 72.3229 10.5957C72.3229 16.5527 77.0592 21.2891 83.0163 21.2891ZM58.2604 100.244L68.1725 100.244L68.1725 68.5547C68.1725 67.5781 67.8795 66.4551 67.196 65.5762L56.3561 50.9766L70.1256 37.1582C71.0534 36.1816 72.4206 36.1816 73.3483 37.1582L86.4342 50.3418C87.3131 51.3184 88.6803 51.709 89.9499 51.709C91.2194 51.709 92.4889 51.2207 93.4167 50.3418L108.065 35.6934C109.09 34.668 109.53 33.3984 109.53 32.1777C109.53 27.832 104.159 25.4883 100.985 28.6621L89.9499 39.6973L71.2975 21.1914C68.9049 18.8477 66.5124 17.5293 62.7038 17.5293L41.9518 17.5293C40.1452 17.5293 38.8756 18.0176 37.5573 19.2871L23.3483 33.4961C20.1256 36.7188 22.5182 42.041 26.8151 42.041C28.0358 42.041 29.3053 41.5039 30.2819 40.5273L43.4167 27.4414L52.1081 27.4414C52.8405 27.4414 53.1335 28.125 52.5475 28.6621L41.9518 39.3066C37.5573 43.7012 37.5085 49.9023 41.9518 54.3457L58.2604 70.6055ZM36.0924 54.4434L29.2077 63.6719L4.94009 63.6719C2.25455 63.6719 0.00845293 65.8203 0.00845293 68.6035C0.00845293 71.3379 2.25455 73.4863 4.94009 73.4863L31.6491 73.4863C33.0651 73.4863 34.3346 72.9492 35.4577 71.8262L44.1491 63.1836L38.6315 57.7148C37.6061 56.6406 36.776 55.6152 36.0924 54.4434ZM104.11 87.7441C104.11 89.2578 105.331 90.4785 106.747 90.4785C108.26 90.4785 109.53 89.2578 109.53 87.7441L109.53 32.1777L104.11 32.1777ZM3.23111 36.6211C1.71744 36.6211 0.496734 37.8418 0.496734 39.2578C0.496734 40.7715 1.71744 42.041 3.23111 42.041L26.8151 42.041L26.8151 36.6211ZM99.0319 103.564C104.012 103.564 106.991 102.344 110.458 100.684C111.923 100.049 112.46 98.4863 111.923 97.2656C111.532 95.8984 109.921 94.9707 108.163 95.8496C105.38 97.2656 103.182 98.1445 99.0319 98.1445L13.6315 98.1445C12.1667 98.1445 10.8971 99.3164 10.8971 100.781C10.8971 102.246 12.1178 103.564 13.6315 103.564Z" fill="#000000" fill-opacity="0.85"/>
 </g>
</svg>
