<?xml version="1.0" encoding="UTF-8"?>
<!--Generator: Apple Native CoreSVG 232.5-->
<!DOCTYPE svg
PUBLIC "-//W3C//DTD SVG 1.1//EN"
       "http://www.w3.org/Graphics/SVG/1.1/DTD/svg11.dtd">
<svg version="1.1" xmlns="http://www.w3.org/2000/svg" xmlns:xlink="http://www.w3.org/1999/xlink" width="93.6049" height="99.7559">
 <g>
  <rect height="99.7559" opacity="0" width="93.6049" x="0" y="0"/>
  <path d="M80.4206 27.3438C87.7448 27.3438 93.6042 21.2402 93.6042 14.1602C93.6042 6.78711 87.7448 0.78125 80.4206 0.78125C73.0476 0.78125 67.1394 6.78711 67.1394 14.1602C67.1394 21.3867 73.0476 27.3438 80.4206 27.3438ZM71.9245 77.9297C74.0729 76.2207 76.1237 73.3398 78.0769 69.7266L87.0612 53.418C91.2116 45.8984 89.8444 38.2324 82.7644 34.4238C75.8796 30.6152 68.7507 33.5449 64.5515 41.1621L55.2741 57.9102ZM1.75849 97.1191C4.29755 99.8047 8.64326 99.5605 11.7683 96.3867L32.7644 74.707C33.4968 73.9746 33.9362 73.7793 35.0104 74.2188L52.7351 80.9082C56.5925 82.373 60.7917 82.0801 63.8679 81.4941L51.6608 66.4062L39.2097 61.8652C33.4479 59.7656 28.6628 60.4492 24.0241 65.2344L2.19794 87.793C-0.780571 90.918-0.53643 94.8242 1.75849 97.1191ZM82.4714 97.7051C84.4733 96.1426 84.6198 93.7012 82.7155 91.4062L71.9245 77.9297C69.4343 79.6875 66.6999 80.9082 63.8679 81.4941L76.319 96.7773C78.1257 98.9746 80.4206 99.4141 82.4714 97.7051Z" fill="#000000" fill-opacity="0.85"/>
  <path d="M24.8542 49.5605C38.6726 49.5605 49.4147 38.1836 49.4147 24.9512C49.4147 11.1328 38.6726 0 24.8542 0C11.0847 0 0.000679102 11.1328 0.000679102 24.9512C0.000679102 38.1836 11.0847 49.5605 24.8542 49.5605Z" fill="#000000" fill-opacity="0.85"/>
 </g>
</svg>
