<?xml version="1.0" encoding="UTF-8"?>
<!--Generator: Apple Native CoreSVG 232.5-->
<!DOCTYPE svg
PUBLIC "-//W3C//DTD SVG 1.1//EN"
       "http://www.w3.org/Graphics/SVG/1.1/DTD/svg11.dtd">
<svg version="1.1" xmlns="http://www.w3.org/2000/svg" xmlns:xlink="http://www.w3.org/1999/xlink" width="94.728" height="114.893">
 <g>
  <rect height="114.893" opacity="0" width="94.728" x="0" y="0"/>
  <path d="M47.4128 24.4141C53.321 24.4141 58.0574 19.6777 58.0574 13.7695C58.0574 7.86133 53.321 3.07617 47.4128 3.07617C41.5046 3.07617 36.7195 7.86133 36.7195 13.7695C36.7195 19.6777 41.5046 24.4141 47.4128 24.4141ZM88.0866 33.5938C86.0847 31.5918 83.0085 31.6406 81.0066 33.5938L69.0925 45.4102L57.1784 33.3984C54.8347 31.0059 51.1238 29.541 47.4128 29.541L15.3327 29.541C13.1355 29.541 11.3288 30.8594 10.5476 33.0078L2.88157 56.0547C1.7097 59.6191 3.76048 62.0605 6.25071 62.6465C8.54563 63.2812 11.28 62.3047 12.3542 59.1797L18.946 39.5508L29.5417 39.5508C30.5183 39.5508 31.2019 40.4297 30.8601 41.4062L24.3659 60.9375C22.2175 67.2852 24.1706 73.3887 31.2995 76.5137L52.1491 85.6445L59.1804 110.303C60.0593 113.379 62.8913 114.307 65.2839 113.672C67.7253 113.037 69.7273 110.791 68.7995 107.52L61.0847 80.5664C60.6452 79.1504 59.9616 78.125 58.3015 77.3926L42.0417 70.2148L50.6843 44.1895C51.0749 43.1152 52.3445 42.7246 53.1745 43.5547L65.5281 56.0547C67.4812 58.0078 70.7038 58.0078 72.657 56.0547L88.0866 40.6738C90.0886 38.623 90.0886 35.5957 88.0866 33.5938ZM26.0261 78.9551L23.5847 92.8223L2.5886 104.541C-0.389913 106.201-0.536398 109.326 0.83079 111.523C2.10032 113.574 4.73704 114.844 7.52024 113.281L30.6159 100.488C32.032 99.6582 32.5202 98.7305 33.0085 97.2168L37.3542 84.2773L29.3952 80.8105C28.1745 80.2734 27.0515 79.6387 26.0261 78.9551ZM92.0417 24.4141C93.7019 23.584 94.7273 21.9727 94.7273 20.2148L94.7273 4.88281C94.7273 2.19727 92.6765 0 89.9421 0L79.1023 0C76.4167 0 74.2683 2.19727 74.2683 4.88281L74.2683 20.2148C74.2683 21.9727 75.2937 23.584 77.0027 24.4141L84.5222 28.2715ZM81.8366 37.0605L87.2566 37.0605L87.2566 23.0469L81.8366 23.0469Z" fill="#000000" fill-opacity="0.85"/>
 </g>
</svg>
