<?xml version="1.0" encoding="UTF-8"?>
<!--Generator: Apple Native CoreSVG 232.5-->
<!DOCTYPE svg
PUBLIC "-//W3C//DTD SVG 1.1//EN"
       "http://www.w3.org/Graphics/SVG/1.1/DTD/svg11.dtd">
<svg version="1.1" xmlns="http://www.w3.org/2000/svg" xmlns:xlink="http://www.w3.org/1999/xlink" width="115.576" height="91.4551">
 <g>
  <rect height="91.4551" opacity="0" width="115.576" x="0" y="0"/>
  <path d="M60.4492 33.9355C66.3574 33.9355 71.1426 29.1992 71.1426 23.291C71.1426 17.3828 66.3574 12.5977 60.4492 12.5977C54.541 12.5977 49.8047 17.3828 49.8047 23.291C49.8047 29.1992 54.541 33.9355 60.4492 33.9355ZM37.207 57.2754C48.1934 58.6426 49.6582 64.9902 57.7637 64.9902C58.0566 64.9902 58.252 64.9902 58.5449 64.9414L63.3301 51.5137C63.8672 49.9512 64.7461 49.3652 66.4062 49.3652L109.814 49.3652C112.646 49.3652 115.039 46.9727 115.039 44.0918C115.039 41.3086 112.646 38.916 109.814 38.916L28.0273 38.916L21.2402 16.748C20.4102 13.916 17.5293 12.3535 14.8438 13.1836C12.1094 14.0625 10.5957 16.9922 11.377 19.5801L18.9941 45.0195C19.7266 47.4121 21.582 49.3652 24.1211 49.3652L38.0859 49.3652C39.1113 49.3652 39.7949 50.1953 39.4531 51.2207ZM31.4453 15.2832C35.6445 15.2832 39.0625 11.8652 39.0625 7.66602C39.0625 3.4668 35.6445 0 31.4453 0C27.2461 0 23.8281 3.4668 23.8281 7.66602C23.8281 11.8652 27.2461 15.2832 31.4453 15.2832ZM2.73438 77.8809L7.66602 77.8809C20.7031 77.8809 23.6816 69.873 32.7148 69.873C41.748 69.873 44.7266 77.8809 57.7637 77.8809C70.8496 77.8809 73.7793 69.873 82.8613 69.873C91.8945 69.873 94.8242 77.8809 107.91 77.8809L112.842 77.8809C114.355 77.8809 115.576 76.709 115.576 75.1953C115.576 73.6816 114.355 72.4609 112.842 72.4609L107.91 72.4609C98.5352 72.4609 95.3613 64.4531 82.8613 64.4531C70.3125 64.4531 67.1387 72.4609 57.7637 72.4609C48.3887 72.4609 45.2637 64.4531 32.7148 64.4531C20.2148 64.4531 17.041 72.4609 7.66602 72.4609L2.73438 72.4609C1.17188 72.4609 0 73.6816 0 75.1953C0 76.709 1.17188 77.8809 2.73438 77.8809ZM4.00391 91.4551C5.61523 91.4551 6.88477 90.1855 6.88477 88.5742C6.88477 87.0117 5.61523 85.7422 4.00391 85.7422C2.44141 85.7422 1.17188 87.0117 1.17188 88.5742C1.17188 90.1855 2.44141 91.4551 4.00391 91.4551ZM13.1836 89.7949C14.7461 89.7949 16.0156 88.5254 16.0156 86.9629C16.0156 85.3516 14.7461 84.082 13.1836 84.082C11.5723 84.082 10.3027 85.3516 10.3027 86.9629C10.3027 88.5254 11.5723 89.7949 13.1836 89.7949ZM21.7285 85.7422C23.3398 85.7422 24.6094 84.5215 24.6094 82.9102C24.6094 81.2988 23.3398 80.0781 21.7285 80.0781C20.166 80.0781 18.8965 81.2988 18.8965 82.9102C18.8965 84.5215 20.166 85.7422 21.7285 85.7422ZM30.957 83.5938C32.5684 83.5938 33.8379 82.3242 33.8379 80.7129C33.8379 79.1504 32.5684 77.8809 30.957 77.8809C29.3945 77.8809 28.125 79.1504 28.125 80.7129C28.125 82.3242 29.3945 83.5938 30.957 83.5938ZM40.1855 85.7422C41.7969 85.7422 43.0176 84.5215 43.0176 82.9102C43.0176 81.2988 41.7969 80.0781 40.1855 80.0781C38.5742 80.0781 37.3535 81.2988 37.3535 82.9102C37.3535 84.5215 38.5742 85.7422 40.1855 85.7422ZM48.8281 89.7949C50.4395 89.7949 51.709 88.5254 51.709 86.9629C51.709 85.3516 50.4395 84.082 48.8281 84.082C47.2656 84.082 45.9961 85.3516 45.9961 86.9629C45.9961 88.5254 47.2656 89.7949 48.8281 89.7949ZM57.8613 91.4551C59.4238 91.4551 60.6934 90.1855 60.6934 88.5742C60.6934 87.0117 59.4238 85.7422 57.8613 85.7422C56.25 85.7422 54.9805 87.0117 54.9805 88.5742C54.9805 90.1855 56.25 91.4551 57.8613 91.4551ZM66.8457 89.7949C68.457 89.7949 69.6777 88.5254 69.6777 86.9629C69.6777 85.3516 68.457 84.082 66.8457 84.082C65.2344 84.082 64.0137 85.3516 64.0137 86.9629C64.0137 88.5254 65.2344 89.7949 66.8457 89.7949ZM75.4883 85.7422C77.0996 85.7422 78.3691 84.5215 78.3691 82.9102C78.3691 81.2988 77.0996 80.0781 75.4883 80.0781C73.9258 80.0781 72.6562 81.2988 72.6562 82.9102C72.6562 84.5215 73.9258 85.7422 75.4883 85.7422ZM84.7168 83.5938C86.3281 83.5938 87.5488 82.3242 87.5488 80.7129C87.5488 79.1504 86.3281 77.8809 84.7168 77.8809C83.1055 77.8809 81.8848 79.1504 81.8848 80.7129C81.8848 82.3242 83.1055 83.5938 84.7168 83.5938ZM93.9453 85.7422C95.5566 85.7422 96.7773 84.5215 96.7773 82.9102C96.7773 81.2988 95.5566 80.0781 93.9453 80.0781C92.334 80.0781 91.1133 81.2988 91.1133 82.9102C91.1133 84.5215 92.334 85.7422 93.9453 85.7422ZM102.539 89.7949C104.15 89.7949 105.371 88.5254 105.371 86.9629C105.371 85.3516 104.15 84.082 102.539 84.082C100.928 84.082 99.707 85.3516 99.707 86.9629C99.707 88.5254 100.928 89.7949 102.539 89.7949ZM111.621 91.4551C113.232 91.4551 114.502 90.1855 114.502 88.5742C114.502 87.0117 113.232 85.7422 111.621 85.7422C110.059 85.7422 108.789 87.0117 108.789 88.5742C108.789 90.1855 110.059 91.4551 111.621 91.4551Z" fill="#000000" fill-opacity="0.85"/>
 </g>
</svg>
