<?xml version="1.0" encoding="UTF-8"?>
<!--Generator: Apple Native CoreSVG 232.5-->
<!DOCTYPE svg
PUBLIC "-//W3C//DTD SVG 1.1//EN"
       "http://www.w3.org/Graphics/SVG/1.1/DTD/svg11.dtd">
<svg version="1.1" xmlns="http://www.w3.org/2000/svg" xmlns:xlink="http://www.w3.org/1999/xlink" width="93.6165" height="99.0723">
 <g>
  <rect height="99.0723" opacity="0" width="93.6165" x="0" y="0"/>
  <path d="M80.4752 26.5137C87.7994 26.5137 93.61 20.4102 93.61 13.3301C93.61 5.95703 87.7994 0 80.4752 0C73.1022 0 67.194 5.95703 67.194 13.3301C67.194 20.6055 73.1022 26.5137 80.4752 26.5137ZM1.81312 96.3867C4.30335 99.0234 8.64905 98.8281 11.7741 95.6055L32.7701 73.9258C33.4537 73.1934 33.9909 72.998 35.0651 73.4375L51.4713 79.6387C62.0182 83.6914 71.9303 80.2246 76.569 71.8262L87.1159 52.6367C91.2174 45.166 89.8991 37.4512 82.7701 33.6426C75.8854 29.8828 68.7565 32.7148 64.5573 40.3809L50.8854 65.332L39.2155 61.084C33.4537 58.9844 28.6686 59.668 24.0787 64.4531L2.25257 87.0117C-0.823603 90.1367-0.530634 94.043 1.81312 96.3867Z" fill="#000000" fill-opacity="0.85"/>
 </g>
</svg>
