<?xml version="1.0" encoding="UTF-8"?>
<!--Generator: Apple Native CoreSVG 232.5-->
<!DOCTYPE svg
PUBLIC "-//W3C//DTD SVG 1.1//EN"
       "http://www.w3.org/Graphics/SVG/1.1/DTD/svg11.dtd">
<svg version="1.1" xmlns="http://www.w3.org/2000/svg" xmlns:xlink="http://www.w3.org/1999/xlink" width="102.908" height="114.893">
 <g>
  <rect height="114.893" opacity="0" width="102.908" x="0" y="0"/>
  <path d="M54.7499 37.0117L62.2626 48.0632C60.2952 48.1017 58.3224 48.8953 56.8983 50.4883C55.8809 51.5797 55.1858 52.8745 54.86 54.2373C52.9073 51.4961 50.8834 48.6396 49.3788 46.5332C48.8905 45.8496 48.0116 46.1426 48.0116 46.9238C48.0116 52.0508 48.2557 62.8906 49.0858 68.2617C50.0624 74.3652 57.1425 103.955 57.4843 105.273C58.3632 108.35 56.4589 111.182 53.3339 111.182C51.0389 111.182 49.4764 109.912 48.6464 106.885C46.9862 100.879 42.0546 80.4199 40.3944 75.4883C39.2714 71.9727 38.4901 70.6055 36.4882 70.6055C34.4862 70.6055 33.705 71.9727 32.5819 75.4883C30.9706 80.4199 25.9901 100.879 24.33 106.885C23.4999 109.912 21.9374 111.182 19.6425 111.182C16.5175 111.182 14.6132 108.35 15.4921 105.273C15.8339 103.955 22.9628 74.3652 23.9393 68.2617C24.7694 62.8906 24.9647 52.0996 24.9647 46.9727C24.9647 46.1426 24.037 45.8984 23.5975 46.5332C19.9354 51.709 13.246 61.2305 11.9276 62.793C10.4628 64.4531 8.16785 64.7461 6.21473 63.6719C3.7245 62.3535 3.13856 59.668 4.16395 57.8125C4.6034 57.0801 5.09168 56.3477 5.57996 55.6152L18.2264 37.0117C22.2792 31.1035 27.2108 28.4668 36.4882 28.4668C45.7655 28.4668 50.746 31.1035 54.7499 37.0117ZM47.035 12.8418C47.035 18.7012 42.3475 23.3398 36.4882 23.3398C30.6288 23.3398 25.9901 18.7012 25.9901 12.8418C25.9901 6.98242 30.6288 2.29492 36.4882 2.29492C42.3475 2.29492 47.035 6.98242 47.035 12.8418Z" fill="#000000" fill-opacity="0.85"/>
  <path d="M77.5526 57.0801C81.8495 57.0801 85.4139 53.5645 85.4139 49.2676C85.4139 44.9707 81.8495 41.4551 77.5526 41.4551C73.2557 41.4551 69.7401 44.9707 69.7401 49.2676C69.7401 53.5645 73.2557 57.0801 77.5526 57.0801ZM66.7128 111.182C68.5682 111.182 70.1307 110.107 70.7167 107.666C71.7421 104.004 74.7206 91.4062 75.6972 88.3301C76.3807 86.3281 76.5272 86.1816 77.0643 86.1816C77.6014 86.1816 77.7479 86.3281 78.4315 88.3301C79.3593 91.4062 82.3866 104.004 83.412 107.666C83.9979 110.107 85.5604 111.182 87.4159 111.182C90.1991 111.182 91.8104 108.594 91.1268 106.055C90.8827 105.225 86.6347 87.1094 85.9511 83.3008C85.6093 80.957 85.4139 76.8555 85.4139 75.1465C85.4139 74.3652 86.2929 74.1211 86.7323 74.7559L92.9823 83.7891C94.3007 85.6934 96.4491 85.7422 97.8651 84.7168C99.1347 83.8379 99.7694 82.0312 98.5487 80.1758L90.4921 67.6758C87.66 63.3789 83.2655 61.6699 78.7733 61.6699L77.0643 61.6699C73.7929 61.6699 72.3768 60.6445 70.1796 58.3008L65.0038 52.7832C63.6854 51.416 61.0975 51.3672 59.6327 53.0762C58.3143 54.4434 57.8749 56.4453 58.9979 58.1543C59.535 58.9844 64.0272 64.0137 67.5429 68.4082C68.3241 69.3848 68.7636 70.3125 68.7636 71.7285C68.7636 74.1699 68.6659 80.2734 68.1776 83.3008C67.494 87.1094 63.246 105.225 63.0018 106.055C62.3182 108.594 63.9296 111.182 66.7128 111.182Z" fill="#000000" fill-opacity="0.85"/>
 </g>
</svg>
