<?xml version="1.0" encoding="UTF-8"?>
<!--Generator: Apple Native CoreSVG 232.5-->
<!DOCTYPE svg
PUBLIC "-//W3C//DTD SVG 1.1//EN"
       "http://www.w3.org/Graphics/SVG/1.1/DTD/svg11.dtd">
<svg version="1.1" xmlns="http://www.w3.org/2000/svg" xmlns:xlink="http://www.w3.org/1999/xlink" width="51.3261" height="108.865">
 <g>
  <rect height="108.865" opacity="0" width="51.3261" x="0" y="0"/>
  <path d="M0.00387648 4.60333L0.931611 21.742C1.0781 24.867 2.2988 26.6736 4.49606 28.285L15.0918 36.0486C16.4101 36.9764 17.1425 37.66 17.1425 39.9549L17.1425 103.676C17.1425 106.312 19.291 108.412 21.9277 108.412C24.5644 108.412 26.664 106.312 26.664 103.676L26.664 69.3982C26.664 68.5193 27.4453 67.7381 28.3242 67.7381C29.2031 67.7381 29.9355 68.5193 29.9355 69.3982L29.9355 103.676C29.9355 106.312 32.084 108.412 34.7207 108.412C37.3574 108.412 39.457 106.312 39.457 103.676L39.457 47.0838C39.457 46.2049 40.1894 45.5213 41.0683 45.5213C41.9472 45.5213 42.6308 46.2049 42.6308 47.0838L42.6308 65.8826C42.6308 68.324 44.584 70.2283 46.9765 70.2283C49.3691 70.2283 51.3222 68.324 51.3222 65.8826L51.3222 44.8865C51.3222 34.0955 43.4121 26.9178 31.8886 26.9178L21.7324 26.9178C18.8027 26.9178 16.9961 26.3318 14.6523 24.6717L9.57419 21.0584L8.64645 4.16387C8.5488 1.77129 6.49802-0.181831 4.10544 0.0134818C1.66403 0.208794-0.0937798 2.21075 0.00387648 4.60333ZM28.3242 21.449C34.2324 21.449 38.9687 16.7127 38.9687 10.8045C38.9687 4.89629 34.2324 0.159966 28.3242 0.159966C22.416 0.159966 17.6797 4.89629 17.6797 10.8045C17.6797 16.7127 22.416 21.449 28.3242 21.449Z" fill="#000000" fill-opacity="0.85"/>
 </g>
</svg>
