<?xml version="1.0" encoding="UTF-8"?>
<!--Generator: Apple Native CoreSVG 232.5-->
<!DOCTYPE svg
PUBLIC "-//W3C//DTD SVG 1.1//EN"
       "http://www.w3.org/Graphics/SVG/1.1/DTD/svg11.dtd">
<svg version="1.1" xmlns="http://www.w3.org/2000/svg" xmlns:xlink="http://www.w3.org/1999/xlink" width="115.576" height="87.0605">
 <g>
  <rect height="87.0605" opacity="0" width="115.576" x="0" y="0"/>
  <path d="M57.7637 60.6445C66.4062 60.6445 68.8477 55.3223 76.5137 53.3691L42.6758 18.1641C40.4785 15.918 37.2559 15.5762 34.6191 17.4805L15.4785 31.1035C12.1582 33.3984 12.5 36.9141 14.4043 38.9648C15.9668 40.7227 18.8477 41.4551 21.582 39.502L37.1094 28.5156L45.8984 37.5488C46.875 38.5742 47.168 40.1367 45.6543 41.1621L27.5879 53.0273C29.6875 52.832 31.9336 52.7344 34.5215 52.832C45.6055 53.3203 47.6562 60.6445 57.7637 60.6445ZM2.73438 73.5352L7.66602 73.5352C20.7031 73.5352 23.6816 65.5273 32.7148 65.5273C41.748 65.5273 44.7266 73.5352 57.7637 73.5352C70.8496 73.5352 73.7793 65.5273 82.8613 65.5273C91.8945 65.5273 94.8242 73.5352 107.91 73.5352L112.842 73.5352C114.355 73.5352 115.576 72.3633 115.576 70.8496C115.576 69.3359 114.355 68.1152 112.842 68.1152L107.91 68.1152C98.5352 68.1152 95.3613 60.1074 82.8613 60.1074C70.3125 60.1074 67.1387 68.1152 57.7637 68.1152C48.3887 68.1152 45.2637 60.1074 32.7148 60.1074C20.2148 60.1074 17.041 68.1152 7.66602 68.1152L2.73438 68.1152C1.17188 68.1152 0 69.3359 0 70.8496C0 72.3633 1.17188 73.5352 2.73438 73.5352ZM2.73438 87.0117L7.66602 87.0117C20.7031 87.0117 23.6816 78.9551 32.7148 78.9551C41.748 78.9551 44.7266 87.0117 57.7637 87.0117C70.8496 87.0117 73.7793 78.9551 82.8613 78.9551C91.8945 78.9551 94.8242 87.0117 107.91 87.0117L112.842 87.0117C114.355 87.0117 115.576 85.791 115.576 84.2773C115.576 82.7637 114.355 81.543 112.842 81.543L107.91 81.543C98.5352 81.543 95.3613 73.5352 82.8613 73.5352C70.3125 73.5352 67.1387 81.543 57.7637 81.543C48.3887 81.543 45.2637 73.5352 32.7148 73.5352C20.2148 73.5352 17.041 81.543 7.66602 81.543L2.73438 81.543C1.17188 81.543 0 82.7637 0 84.2773C0 85.791 1.17188 87.0117 2.73438 87.0117ZM41.9434 2.73438C41.9434 4.24805 43.1641 5.46875 44.6777 5.46875C49.0723 5.46875 51.7578 6.25 54.541 9.32617C55.6152 10.498 56.6895 10.9863 57.7637 10.9863C58.8867 10.9863 59.9609 10.498 61.0352 9.32617C63.8184 6.25 66.5039 5.46875 70.8984 5.46875C72.4121 5.46875 73.6328 4.24805 73.6328 2.73438C73.6328 1.2207 72.4121 0 70.8496 0C65.4297 0 61.8164 1.31836 57.7637 4.98047C53.7598 1.31836 50.1465 0 44.6777 0C43.1641 0 41.9434 1.2207 41.9434 2.73438ZM77.2461 40.8691C83.1543 40.8691 87.9395 36.084 87.9395 30.1758C87.9395 24.3164 83.1543 19.5312 77.2461 19.5312C71.3379 19.5312 66.6016 24.3164 66.6016 30.1758C66.6016 36.084 71.3379 40.8691 77.2461 40.8691Z" fill="#000000" fill-opacity="0.85"/>
 </g>
</svg>
