<?xml version="1.0" encoding="UTF-8"?>
<!--Generator: Apple Native CoreSVG 232.5-->
<!DOCTYPE svg
PUBLIC "-//W3C//DTD SVG 1.1//EN"
       "http://www.w3.org/Graphics/SVG/1.1/DTD/svg11.dtd">
<svg version="1.1" xmlns="http://www.w3.org/2000/svg" xmlns:xlink="http://www.w3.org/1999/xlink" width="99.6094" height="99.6582">
 <g>
  <rect height="99.6582" opacity="0" width="99.6094" x="0" y="0"/>
  <path d="M49.8047 99.6094C77.0508 99.6094 99.6094 77.002 99.6094 49.8047C99.6094 22.5586 77.002 0 49.7559 0C22.5586 0 0 22.5586 0 49.8047C0 77.002 22.6074 99.6094 49.8047 99.6094ZM49.8047 91.3086C26.7578 91.3086 8.34961 72.8516 8.34961 49.8047C8.34961 26.7578 26.709 8.30078 49.7559 8.30078C72.8027 8.30078 91.3086 26.7578 91.3086 49.8047C91.3086 72.8516 72.8516 91.3086 49.8047 91.3086Z" fill="#000000" fill-opacity="0.85"/>
  <path d="M49.7559 41.0645C52.1484 41.0645 53.9551 41.1621 55.0293 41.3574C56.3477 41.6016 56.9336 42.334 56.9824 43.7012C57.0312 45.5078 56.9824 51.9043 56.543 54.7852C56.0059 57.666 52.7344 71.5332 52.5391 72.0703C52.0508 73.6816 53.0762 75.0977 54.6875 75.0977C55.9082 75.0977 56.7383 74.4141 57.1289 72.998C57.8613 70.166 60.1562 60.5469 60.9375 58.3008C61.5234 56.543 61.8652 56.1523 62.5977 56.1523C63.3301 56.1523 63.7207 56.5918 64.2578 58.3008C65.0391 60.4492 67.4316 70.1172 68.0664 72.998C68.457 74.4629 69.2383 75.0977 70.5078 75.0977C72.0703 75.0977 73.0469 73.6328 72.6074 72.1191C72.4609 71.5332 69.1406 57.666 68.6523 54.7852C68.2129 51.9043 68.2617 45.5078 68.2617 43.6035C68.2617 42.3828 68.7988 41.5039 69.7754 41.3086C70.8984 40.9668 79.6387 40.1367 80.9082 39.6484C81.9824 39.3066 82.666 38.4277 82.666 37.3535C82.666 36.0352 81.6406 34.9609 80.5176 34.9609C80.127 34.9609 79.7363 35.1074 79.3457 35.1562C75.6836 35.8398 68.0664 36.377 62.5977 36.6699C58.1055 36.8164 53.0273 36.9141 49.9023 36.9141C46.6797 36.9141 41.5039 36.8164 36.8652 36.6699C31.4941 36.4258 23.7793 35.8887 20.0684 35.1562C19.7754 35.1074 19.3848 34.9609 18.9941 34.9609C17.8223 34.9609 16.8945 36.0352 16.8945 37.3535C16.8945 38.5254 17.5781 39.502 18.6523 39.6484C19.9219 39.9902 28.6133 41.0645 29.6875 41.3086C30.6641 41.5039 31.2988 42.3828 31.2988 43.6035C31.2988 45.5078 31.2988 51.9043 30.8105 54.7852C30.2734 57.666 27.002 71.5332 26.8066 72.0703C26.3672 73.6328 27.3926 75.0977 28.9551 75.0977C30.2246 75.0977 30.957 74.4629 31.4453 72.998C32.1777 70.166 34.4727 60.5469 35.3027 58.3008C35.8398 56.5918 36.1816 56.1523 36.8652 56.1523C37.6953 56.1523 38.0859 56.5918 38.623 58.252C39.3066 60.4492 41.7969 70.1172 42.4316 72.998C42.7246 74.4141 43.5059 75.0977 44.7754 75.0977C46.3867 75.0977 47.4121 73.6816 46.9238 72.1191C46.7773 71.5332 43.457 57.666 42.9688 54.7852C42.5293 51.9043 42.5293 45.5078 42.5781 43.7012C42.627 42.334 43.1641 41.6016 44.4824 41.3574C45.8008 41.1133 47.9004 40.9668 49.7559 41.0645ZM36.8652 34.4238C39.7461 34.4238 42.041 32.1777 42.041 29.2969C42.041 26.4648 39.7949 24.1699 36.8652 24.1699C34.0332 24.1699 31.7383 26.4648 31.7383 29.2969C31.7383 32.1777 34.0332 34.4238 36.8652 34.4238ZM62.5977 34.4238C65.4297 34.4238 67.7734 32.1289 67.7734 29.2969C67.7734 26.4648 65.4297 24.1699 62.5977 24.1699C59.7168 24.1699 57.4707 26.4648 57.4707 29.2969C57.4707 32.1777 59.7656 34.4238 62.5977 34.4238Z" fill="#000000" fill-opacity="0.85"/>
 </g>
</svg>
