<?xml version="1.0" encoding="UTF-8"?>
<!--Generator: Apple Native CoreSVG 232.5-->
<!DOCTYPE svg
PUBLIC "-//W3C//DTD SVG 1.1//EN"
       "http://www.w3.org/Graphics/SVG/1.1/DTD/svg11.dtd">
<svg version="1.1" xmlns="http://www.w3.org/2000/svg" xmlns:xlink="http://www.w3.org/1999/xlink" width="93.6365" height="99.5117">
 <g>
  <rect height="99.5117" opacity="0" width="93.6365" x="0" y="0"/>
  <path d="M80.4852 26.7334C87.8095 26.7334 93.62 20.6299 93.62 13.5498C93.62 6.17676 87.8095 0.219727 80.4852 0.219727C73.1122 0.219727 67.204 6.17676 67.204 13.5498C67.204 20.8252 73.1122 26.7334 80.4852 26.7334ZM1.82313 96.6064C4.31337 99.2432 8.65907 99.0479 11.7841 95.8252L32.7802 74.1455C33.4638 73.4131 34.0009 73.2178 35.0751 73.6572L51.4813 79.8584C62.0282 83.9111 71.9403 80.4443 76.579 72.0459L87.1259 52.8564C91.2274 45.3857 89.9091 37.6709 82.7802 33.8623C75.8954 30.1025 68.7665 32.9346 64.5673 40.6006L50.8954 65.5518L39.2255 61.3037C33.4638 59.2041 28.6786 59.8877 24.0888 64.6729L2.26258 87.2314C-0.813588 90.3564-0.520619 94.2627 1.82313 96.6064Z" fill="#000000" fill-opacity="0.85"/>
  <path d="M17.497 49.9756C19.7919 49.9756 21.5985 48.1689 21.5985 45.8252L21.5985 23.3154L30.4852 23.3154C34.6356 23.3154 36.0516 19.165 33.5126 16.333L20.4266 1.53809C18.5712-0.512695 16.1786-0.512695 14.4208 1.53809L1.28602 16.333C-1.39953 19.3115 0.358287 23.3154 4.36219 23.3154L13.2977 23.3154L13.2977 45.8252C13.2977 48.1689 15.1532 49.9756 17.497 49.9756Z" fill="#000000" fill-opacity="0.85"/>
 </g>
</svg>
