<?xml version="1.0" encoding="UTF-8"?>
<!--Generator: Apple Native CoreSVG 232.5-->
<!DOCTYPE svg
PUBLIC "-//W3C//DTD SVG 1.1//EN"
       "http://www.w3.org/Graphics/SVG/1.1/DTD/svg11.dtd">
<svg version="1.1" xmlns="http://www.w3.org/2000/svg" xmlns:xlink="http://www.w3.org/1999/xlink" width="118.604" height="99.0723">
 <g>
  <rect height="99.0723" opacity="0" width="118.604" x="0" y="0"/>
  <path d="M27.2461 21.3379C33.1055 21.3379 37.8906 16.5527 37.8906 10.5957C37.8906 4.73633 33.1055 0 27.2461 0C21.3867 0 16.5527 4.73633 16.5527 10.5957C16.5527 16.5527 21.3867 21.3379 27.2461 21.3379ZM16.5039 84.4238C20.166 83.1055 23.1445 81.3477 26.6602 79.9805L27.4414 72.8516C27.5391 72.3145 28.2715 72.2168 28.4668 72.6562L31.4453 78.6133C33.0078 78.2715 34.7168 78.0762 36.7676 78.0762C39.1602 78.0762 41.0645 78.418 42.7246 79.0527L37.793 65.7715L37.793 36.377C37.793 30.957 33.9844 26.4648 27.2949 26.4648L25 26.4648C20.9961 26.4648 16.5039 27.002 12.4512 30.957L1.36719 41.9922C-0.439453 43.7988-0.439453 46.9238 1.36719 48.6816L16.5039 63.623ZM16.5039 50.4883L11.4258 45.3613L14.9902 41.748C15.5762 41.1621 16.5039 41.5039 16.5039 42.3828ZM7.37305 70.752L110.742 7.32422C112.061 6.49414 112.402 4.88281 111.523 3.51562C110.742 2.19727 109.131 1.85547 107.812 2.68555L4.49219 66.0645C3.17383 66.8945 2.7832 68.5547 3.66211 69.873C4.44336 71.1914 6.05469 71.582 7.37305 70.752ZM5.76172 99.0234L10.7422 99.0234C23.7793 99.0234 26.7578 90.9668 35.791 90.9668C44.8242 90.9668 47.8027 99.0234 60.8398 99.0234C73.877 99.0234 76.8555 90.9668 85.8887 90.9668C94.9219 90.9668 97.9004 99.0234 110.938 99.0234L115.918 99.0234C117.432 99.0234 118.604 97.8516 118.604 96.3379C118.604 94.8242 117.432 93.6035 115.918 93.6035L110.938 93.6035C101.562 93.6035 98.3887 85.5469 85.8887 85.5469C73.3887 85.5469 70.2148 93.6035 60.8398 93.6035C51.4648 93.6035 48.291 85.5469 35.791 85.5469C23.2422 85.5469 20.1172 93.6035 10.7422 93.6035L5.76172 93.6035C4.24805 93.6035 3.02734 94.8242 3.02734 96.3379C3.02734 97.8516 4.24805 99.0234 5.76172 99.0234Z" fill="#000000" fill-opacity="0.85"/>
 </g>
</svg>
