<?xml version="1.0" encoding="UTF-8"?>
<!--Generator: Apple Native CoreSVG 232.5-->
<!DOCTYPE svg
PUBLIC "-//W3C//DTD SVG 1.1//EN"
       "http://www.w3.org/Graphics/SVG/1.1/DTD/svg11.dtd">
<svg version="1.1" xmlns="http://www.w3.org/2000/svg" xmlns:xlink="http://www.w3.org/1999/xlink" width="99.6094" height="99.6582">
 <g>
  <rect height="99.6582" opacity="0" width="99.6094" x="0" y="0"/>
  <path d="M49.8047 99.6094C77.0508 99.6094 99.6094 77.002 99.6094 49.8047C99.6094 22.5586 77.002 0 49.7559 0C22.5586 0 0 22.5586 0 49.8047C0 77.002 22.6074 99.6094 49.8047 99.6094ZM49.8047 91.3086C26.7578 91.3086 8.34961 72.8516 8.34961 49.8047C8.34961 26.7578 26.709 8.30078 49.7559 8.30078C72.8027 8.30078 91.3086 26.7578 91.3086 49.8047C91.3086 72.8516 72.8516 91.3086 49.8047 91.3086Z" fill="#000000" fill-opacity="0.85"/>
  <path d="M45.3125 82.9102C47.168 82.9102 48.4863 81.7383 48.4863 79.4922L48.4863 59.4727C48.4863 58.4473 48.9258 57.8613 49.7559 57.8613C50.4883 57.8613 50.9277 58.3984 50.9277 59.4727L50.9277 79.4922C50.9277 81.7383 52.3438 82.9102 54.248 82.9102C56.1035 82.9102 57.373 81.7383 57.373 79.4922L57.373 44.5801C57.373 43.7988 57.8613 43.2617 58.4961 43.2617C59.1309 43.2617 59.5215 43.75 59.5215 44.5801L59.5215 58.8379C59.5215 60.8398 60.791 61.9629 62.5488 61.9629C64.209 61.9629 65.3809 60.8398 65.3809 58.8379L65.3809 45.3613C65.3809 36.6211 60.4492 34.2285 49.8047 34.2285L45.7031 34.2285C43.7012 34.2285 42.7734 33.8379 41.2598 32.8125L37.0117 29.7852L36.377 20.0684C36.2305 18.0176 34.9609 16.9922 33.252 17.0898C31.543 17.2363 30.4199 18.3594 30.5664 20.459L31.1523 30.1758C31.2988 32.2754 32.2754 33.5449 33.6426 34.5215L40.6738 39.7461C41.6504 40.4297 42.041 41.2109 42.041 42.334L42.041 79.4922C42.041 81.7383 43.4082 82.9102 45.3125 82.9102ZM49.8047 31.3477C53.3203 31.3477 56.2012 28.418 56.2012 25.0977C56.2012 21.5332 53.3203 18.7012 49.8047 18.7012C46.2402 18.7012 43.5059 21.5332 43.5059 25.0977C43.5059 28.418 46.2402 31.3477 49.8047 31.3477Z" fill="#000000" fill-opacity="0.85"/>
 </g>
</svg>
