<?xml version="1.0" encoding="UTF-8"?>
<!--Generator: Apple Native CoreSVG 232.5-->
<!DOCTYPE svg
PUBLIC "-//W3C//DTD SVG 1.1//EN"
       "http://www.w3.org/Graphics/SVG/1.1/DTD/svg11.dtd">
<svg version="1.1" xmlns="http://www.w3.org/2000/svg" xmlns:xlink="http://www.w3.org/1999/xlink" width="117.432" height="114.6">
 <g>
  <rect height="114.6" opacity="0" width="117.432" x="0" y="0"/>
  <path d="M88.8672 56.3477C94.7754 56.3477 99.5117 51.6113 99.5117 45.7031C99.5117 39.7949 94.7754 35.0098 88.8672 35.0098C82.9102 35.0098 78.1738 39.7949 78.1738 45.7031C78.1738 51.6113 82.9102 56.3477 88.8672 56.3477ZM54.9316 94.6289L74.1699 94.6289L94.1406 74.6582C95.1172 73.6816 96.7285 73.6816 97.6562 74.6582L105.859 82.8125L97.3633 91.3574C93.0176 95.752 99.6094 102.393 104.004 97.998L115.869 86.1816C117.822 84.2285 117.773 81.3477 115.869 79.4434L102.051 65.6738C99.3652 62.9883 95.8496 61.4746 92.0898 61.4746L56.1523 61.4746L56.1523 70.9961L68.1152 70.9961C68.9941 70.9961 69.3848 71.875 68.7988 72.5098L54.9316 86.3281ZM6.78711 94.6289L57.8125 94.6289L57.8125 5.07812C57.8125 1.46484 52.5391-0.0976562 50.2441 4.05273L3.4668 88.2324C1.61133 91.6504 3.4668 94.6289 6.78711 94.6289ZM10.3027 89.209C9.7168 89.209 9.52148 88.6719 9.7168 88.3301L51.2207 13.5254C51.5625 12.9395 52.3926 13.0859 52.3926 13.7207L52.3926 89.209ZM2.73438 114.6L7.66602 114.6C20.752 114.6 23.6816 106.543 32.7637 106.543C41.7969 106.543 44.7266 114.6 57.8125 114.6C70.8496 114.6 73.8281 106.543 82.8613 106.543C91.8945 106.543 94.873 114.6 107.91 114.6L112.891 114.6C114.404 114.6 115.576 113.428 115.576 111.914C115.576 110.4 114.404 109.18 112.891 109.18L107.91 109.18C98.5352 109.18 95.3613 101.123 82.8613 101.123C70.3613 101.123 67.1875 109.18 57.8125 109.18C48.4375 109.18 45.2637 101.123 32.7637 101.123C20.2148 101.123 17.0898 109.18 7.66602 109.18L2.73438 109.18C1.2207 109.18 0 110.4 0 111.914C0 113.428 1.2207 114.6 2.73438 114.6Z" fill="#000000" fill-opacity="0.85"/>
 </g>
</svg>
