<?xml version="1.0" encoding="UTF-8"?>
<!--Generator: Apple Native CoreSVG 232.5-->
<!DOCTYPE svg
PUBLIC "-//W3C//DTD SVG 1.1//EN"
       "http://www.w3.org/Graphics/SVG/1.1/DTD/svg11.dtd">
<svg version="1.1" xmlns="http://www.w3.org/2000/svg" xmlns:xlink="http://www.w3.org/1999/xlink" width="120.561" height="109.033">
 <g>
  <rect height="109.033" opacity="0" width="120.561" x="0" y="0"/>
  <path d="M32.8392 22.2656C38.4056 22.2656 42.9466 17.7246 42.9466 12.1582C42.9466 6.5918 38.4056 2.09961 32.8392 2.09961C27.2728 2.09961 22.7806 6.5918 22.7806 12.1582C22.7806 17.7246 27.2728 22.2656 32.8392 22.2656ZM91.7748 20.166C97.3412 20.166 101.882 15.625 101.882 10.0586C101.882 4.54102 97.3412 0 91.7748 0C86.2084 0 81.7162 4.54102 81.7162 10.0586C81.7162 15.625 86.2084 20.166 91.7748 20.166ZM4.71422 34.668L15.017 35.498C15.7005 35.5469 16.1888 36.0352 16.1888 36.8164L16.1888 55.5176C16.1888 59.2773 17.4095 62.9395 19.7045 65.8203L31.765 81.3477L25.6127 101.807C24.7826 104.492 26.3451 107.373 28.933 108.105C31.5209 108.838 34.3529 107.617 35.2318 104.688L42.1166 81.6895C42.263 81.25 42.3119 80.9082 42.3119 80.4688L60.9642 104.053C62.6732 106.201 65.8959 106.641 67.9466 104.932C70.1439 103.076 70.5345 100.049 68.8255 97.8516L35.5248 55.7129L37.0384 40.7715C37.1849 39.6973 38.1615 39.1602 39.0892 39.5996L50.6615 45.4102C51.4427 45.8496 52.8587 46.1426 53.9818 46.1426L71.8041 46.1426C72.9759 46.1426 74.1966 45.7031 75.0267 44.9707L83.474 37.7441C84.3041 37.0117 85.3295 37.3535 85.7201 38.3301L90.4564 51.5137L70.4857 56.9824C68.4837 57.5195 66.9212 59.2773 66.7259 61.377L64.4798 84.375C64.1869 87.6465 67.0677 89.8438 69.5091 89.8438C72.0482 89.8438 74.2455 87.9883 74.4896 85.3516L76.3939 66.2109L90.4076 64.0625L83.7181 77.5391C82.9857 79.0039 82.5951 80.6152 83.181 82.1289L92.4095 105.127C93.5326 107.91 96.5599 108.887 98.9525 107.91C101.492 106.885 102.761 103.955 101.736 101.367L93.5326 80.9082L104.861 64.7949C107.742 60.791 108.767 55.6152 107.888 50.7812L106.13 41.1133C105.886 39.7949 106.911 38.9648 108.132 39.3555L113.943 41.3086C117.898 42.6758 120.876 40.2344 120.535 36.2793L118.191 13.0371C117.947 10.1562 115.359 8.20312 112.722 8.49609C110.036 8.78906 107.937 11.2305 108.181 14.0625L109.744 29.3945L95.8763 24.7559C90.2123 22.8516 84.2064 23.877 79.5189 27.9297L69.9974 36.1328L54.5677 36.1328L39.6752 28.7109C37.4291 27.5391 35.2318 26.9531 32.7416 26.7578L11.892 25.1953L16.7259 10.5957C17.6537 7.91016 16.1888 5.07812 13.6009 4.19922C10.9642 3.32031 8.08336 4.73633 7.25328 7.37305L0.270858 28.0273C-0.754533 31.1523 1.44273 34.4238 4.71422 34.668Z" fill="#000000" fill-opacity="0.85"/>
 </g>
</svg>
