<?xml version="1.0" encoding="UTF-8"?>
<!--Generator: Apple Native CoreSVG 232.5-->
<!DOCTYPE svg
PUBLIC "-//W3C//DTD SVG 1.1//EN"
       "http://www.w3.org/Graphics/SVG/1.1/DTD/svg11.dtd">
<svg version="1.1" xmlns="http://www.w3.org/2000/svg" xmlns:xlink="http://www.w3.org/1999/xlink" width="134.57" height="104.736">
 <g>
  <rect height="104.736" opacity="0" width="134.57" x="0" y="0"/>
  <path d="M50.4395 14.9902C54.5898 14.9902 57.9102 11.7188 57.9102 7.51953C57.9102 3.36914 54.5898 0 50.4395 0C46.2891 0 42.9199 3.36914 42.9199 7.51953C42.9199 11.7188 46.2891 14.9902 50.4395 14.9902ZM4.93164 81.543L31.6406 81.543C33.1055 81.543 33.7402 81.3965 34.8145 81.1523L61.8652 74.6094C62.3047 74.5117 62.6953 74.9023 62.6465 75.3418L60.8398 90.0879L50.2441 82.5195C47.998 80.9082 44.873 81.4453 43.3105 83.6914C41.6504 85.9375 42.1387 89.0625 44.3848 90.6738L60.7422 102.197C64.3555 104.736 68.75 103.906 69.6777 100.195L83.1543 46.1426C83.3496 45.5078 83.9844 45.1172 84.6191 45.2637L128.662 54.0039C132.422 54.7852 134.57 51.9531 134.57 49.1699C134.57 47.0215 133.35 44.8242 130.615 44.2871L87.207 35.5469C74.3164 33.0078 66.3086 31.7871 57.1289 31.7871L44.873 31.7871L44.873 19.2871C44.873 16.4551 42.627 14.3066 39.8926 14.3066C37.0605 14.3066 34.8633 16.4551 34.8633 19.2871L34.8633 36.7188C34.8633 39.4531 37.0605 41.6992 39.8926 41.6992L60.498 41.6992C61.4258 41.6992 62.0605 42.5293 61.8164 43.4082L57.8125 58.8379C57.1777 61.3281 55.4688 63.2324 53.0273 64.1113L31.543 71.582L4.93164 71.582C2.14844 71.582 0 73.8281 0 76.6113C0 79.3945 2.14844 81.543 4.93164 81.543ZM78.2715 28.8574C84.1309 28.8574 88.916 24.0723 88.916 18.1152C88.916 12.2559 84.1309 7.51953 78.2715 7.51953C72.3145 7.51953 67.5781 12.2559 67.5781 18.1152C67.5781 24.0723 72.3145 28.8574 78.2715 28.8574Z" fill="#000000" fill-opacity="0.85"/>
 </g>
</svg>
