<?xml version="1.0" encoding="UTF-8"?>
<!--Generator: Apple Native CoreSVG 232.5-->
<!DOCTYPE svg
PUBLIC "-//W3C//DTD SVG 1.1//EN"
       "http://www.w3.org/Graphics/SVG/1.1/DTD/svg11.dtd">
<svg version="1.1" xmlns="http://www.w3.org/2000/svg" xmlns:xlink="http://www.w3.org/1999/xlink" width="95.7031" height="127.018">
 <g>
  <rect height="127.018" opacity="0" width="95.7031" x="0" y="0"/>
  <path d="M85.1074 47.2248C90.9668 47.2248 95.7031 42.4396 95.7031 36.4826C95.7031 30.6232 90.9668 25.8869 85.1074 25.8869C79.1504 25.8869 74.3652 30.6232 74.3652 36.4826C74.3652 42.4396 79.1504 47.2248 85.1074 47.2248ZM41.4062 85.506L59.5215 98.7385L48.9746 119.783C47.7539 122.176 48.7305 125.252 51.2207 126.522C53.4668 127.596 56.4941 126.961 57.8125 124.276L70.166 99.5685C71.2402 97.3713 70.8496 95.174 69.1406 93.5139L59.8145 84.7736L75.6836 84.7736C78.5645 84.7736 80.6641 82.5275 80.6641 79.7932L80.6641 59.9201C80.6641 51.7658 74.0723 45.0764 65.8203 45.0764L47.5098 45.0764L50.6836 33.9435C51.416 31.3557 50 28.6213 47.3145 27.84C44.6777 27.0588 41.9434 28.6213 41.2109 31.2092L36.2793 48.592C35.3516 51.9123 37.3047 54.9396 40.8203 54.9396L58.6426 54.9396C58.8379 54.9396 58.9844 55.2326 58.7891 55.3791L43.2617 63.2404C34.5215 67.6349 33.4473 79.6467 41.4062 85.506ZM60.2051 75.0568L70.0684 70.3693C70.5078 70.174 71.0449 70.467 71.0449 70.9553L71.0449 75.0568ZM34.1797 84.6271L29.9316 97.1271L5.07812 97.1271C2.24609 97.1271 0 99.3732 0 102.108C0 104.94 2.24609 107.186 5.07812 107.186L33.4961 107.186C35.3516 107.186 37.207 106.112 38.0371 104.305L43.7012 92.9767L38.623 89.3146C36.8164 87.9474 35.3027 86.3361 34.1797 84.6271ZM43.9453 21.9807L47.9492 21.9807C50.8789 18.4162 54.248 12.4103 54.248 8.40643C54.248 3.47479 50.8301 0.0568245 45.9961 0.0568245C41.0645 0.0568245 37.5977 3.47479 37.5977 8.40643C37.5977 12.8498 40.9668 18.8068 43.9453 21.9807ZM43.1641 73.2502L48.6816 73.2502L48.6816 20.174L43.1641 20.174Z" fill="#000000" fill-opacity="0.85"/>
 </g>
</svg>
