<?xml version="1.0" encoding="UTF-8"?>
<!--Generator: Apple Native CoreSVG 232.5-->
<!DOCTYPE svg
PUBLIC "-//W3C//DTD SVG 1.1//EN"
       "http://www.w3.org/Graphics/SVG/1.1/DTD/svg11.dtd">
<svg version="1.1" xmlns="http://www.w3.org/2000/svg" xmlns:xlink="http://www.w3.org/1999/xlink" width="85.5957" height="120.068">
 <g>
  <rect height="120.068" opacity="0" width="85.5957" x="0" y="0"/>
  <path d="M42.3828 21.3867C48.2422 21.3867 53.0273 16.5527 53.0273 10.6934C53.0273 4.83398 48.2422 0 42.3828 0C36.5234 0 31.6895 4.83398 31.6895 10.6934C31.6895 16.5527 36.5234 21.3867 42.3828 21.3867ZM3.95508 58.7402C6.49414 59.1797 9.22852 57.959 9.86328 54.9805L14.0137 36.4258L21.3867 36.4258C22.3145 36.4258 22.998 37.207 22.7539 38.1348L17.8223 57.1289C15.7715 64.8438 20.8496 72.4609 30.5664 70.0195L48.4863 65.5762L45.0195 82.8613C44.4824 85.498 46.2402 88.1836 48.877 88.7695C51.1719 89.2578 54.1504 87.793 54.7852 84.8633L59.7656 59.9121C60.498 56.2988 57.4219 53.5645 54.3945 53.8574L38.4766 55.4199L43.1641 37.6465C43.3594 36.9141 44.1406 36.4258 44.873 36.7188L63.1348 43.6523C66.4551 44.9219 69.8242 43.0176 69.8242 39.5508L69.8242 16.5039C69.8242 13.7695 67.627 11.5234 64.7949 11.5234C62.0605 11.5234 59.8145 13.7695 59.8145 16.5039L59.8145 31.7383L50.4883 28.125C47.4609 27.002 44.1406 26.416 40.8203 26.416L9.96094 26.416C7.61719 26.416 5.61523 28.0762 5.12695 30.3223L0.146484 52.7832C-0.488281 55.5176 1.2207 58.252 3.95508 58.7402ZM26.4648 118.701C28.7598 119.189 31.7871 117.627 32.3242 114.795L37.3047 89.8438C37.4023 89.4043 37.4023 88.8672 37.4023 88.4277L37.4023 73.2422L31.6895 74.6094C29.4922 75.1953 27.4414 75.3418 25.5371 75.1953L27.3926 88.623L22.5586 112.744C22.0215 115.479 23.7305 118.164 26.4648 118.701ZM45.5078 108.887L77.9297 108.887C79.4434 108.887 80.6641 107.666 80.6641 106.152C80.6641 104.639 79.4434 103.467 77.9297 103.467L45.5078 103.467C43.9941 103.467 42.7734 104.639 42.7734 106.152C42.7734 107.666 43.9941 108.887 45.5078 108.887ZM40.4785 119.873L82.8613 119.873C84.375 119.873 85.5957 118.652 85.5957 117.139C85.5957 115.625 84.375 114.453 82.8613 114.453L40.4785 114.453C38.9648 114.453 37.793 115.625 37.793 117.139C37.793 118.652 38.9648 119.873 40.4785 119.873Z" fill="#000000" fill-opacity="0.85"/>
 </g>
</svg>
