<?xml version="1.0" encoding="UTF-8"?>
<!--Generator: Apple Native CoreSVG 232.5-->
<!DOCTYPE svg
PUBLIC "-//W3C//DTD SVG 1.1//EN"
       "http://www.w3.org/Graphics/SVG/1.1/DTD/svg11.dtd">
<svg version="1.1" xmlns="http://www.w3.org/2000/svg" xmlns:xlink="http://www.w3.org/1999/xlink" width="72.0944" height="123.877">
 <g>
  <rect height="123.877" opacity="0" width="72.0944" x="0" y="0"/>
  <path d="M40.2953 21.3379C46.1546 21.3379 50.891 16.5527 50.891 10.5957C50.891 4.73633 46.1546 0 40.2953 0C34.3382 0 29.5531 4.73633 29.5531 10.5957C29.5531 16.5527 34.3382 21.3379 40.2953 21.3379ZM51.7211 49.8535C53.723 51.9531 57.5804 51.8066 59.3382 49.0234L71.2035 29.9805C74.8656 24.1211 66.2718 19.4336 62.9027 24.8047L54.3089 38.6719L47.5707 31.8848C41.0765 25.4395 33.9964 24.1211 24.1332 25.2441L6.75035 27.1973C4.50426 27.4414 2.74644 29.248 2.5023 31.3965L0.0608962 50.5859C-0.720354 56.7383 8.84996 58.3496 9.68004 51.7578L11.6332 36.4258L20.7152 35.4004C21.9847 35.3027 22.8636 36.1328 22.6683 37.5488L20.3734 56.3477C19.2503 65.2344 24.3773 70.3613 33.1664 69.7266L51.1351 68.457L45.764 88.0371C43.9574 94.6289 53.4789 96.9238 55.1878 90.5273L62.2679 64.4531C63.1468 61.1328 60.9007 58.3008 57.1898 58.3008L38.6351 58.3008L40.9789 42.2852C41.223 40.7227 42.639 40.6738 43.5179 41.6504ZM25.2074 73.4375L24.0355 90.8203L14.8558 113.77C13.2445 117.871 16.1742 120.703 19.2015 120.703C21.1058 120.703 23.0101 119.678 23.9867 117.236L33.3617 93.7012C33.4593 93.3594 33.6058 92.9688 33.6546 92.627L36.389 74.2676L33.5082 74.4629C30.432 74.6582 27.6 74.2676 25.2074 73.4375Z" fill="#000000" fill-opacity="0.85"/>
 </g>
</svg>
