<?xml version="1.0" encoding="UTF-8"?>
<!--Generator: Apple Native CoreSVG 232.5-->
<!DOCTYPE svg
PUBLIC "-//W3C//DTD SVG 1.1//EN"
       "http://www.w3.org/Graphics/SVG/1.1/DTD/svg11.dtd">
<svg version="1.1" xmlns="http://www.w3.org/2000/svg" xmlns:xlink="http://www.w3.org/1999/xlink" width="106.36" height="123.576">
 <g>
  <rect height="123.576" opacity="0" width="106.36" x="0" y="0"/>
  <path d="M80.6946 49.117C86.6028 49.117 91.388 44.3318 91.388 38.4236C91.388 32.5154 86.6028 27.7303 80.6946 27.7303C74.7864 27.7303 70.0501 32.5154 70.0501 38.4236C70.0501 44.3318 74.7864 49.117 80.6946 49.117ZM53.2044 3.12091C48.6146-1.51777 43.1458-1.27362 36.0169 5.80645C32.0618 9.85919 29.9622 18.0135 28.6927 23.824L21.4661 31.0994C19.22 33.3455 19.7083 36.4217 21.7103 38.4236L36.1146 52.7791C37.0423 53.6092 38.2142 54.1463 39.5814 54.1463L49.347 54.1463C49.6888 54.1463 49.8353 54.6834 49.5423 54.8299L39.386 59.908C30.7435 64.1561 28.7415 75.6307 37.5306 82.1248L55.597 95.3084L45.0989 116.305C43.8782 118.746 44.8548 121.773 47.2474 122.945C49.4935 124.068 52.5208 123.385 53.888 120.748L65.9974 96.5291C66.9739 94.5272 67.1692 92.0858 64.972 89.8885L50.4212 75.3865L69.3665 65.9627C70.2942 65.4744 71.3196 65.6697 71.9544 66.3533L97.9798 92.3299C99.9329 94.283 103.156 94.1854 104.913 92.3299C106.818 90.3768 106.867 87.3006 104.913 85.3475L66.5345 46.9686C64.8255 45.2596 63.0189 44.283 60.6263 44.283L41.6321 44.283L28.7903 31.4412L32.5989 27.6326C38.4095 26.4119 46.6126 24.3123 50.5189 20.3084C57.6966 13.2283 57.9407 7.71075 53.2044 3.12091ZM49.4446 6.97833C51.9837 9.46856 51.1536 11.9588 46.7103 16.4998C43.9271 19.2342 38.7025 20.5037 34.7474 21.6756C35.8216 17.6229 37.14 12.4959 39.9232 9.66388C44.4153 5.17169 46.8079 4.43927 49.4446 6.97833ZM4.96222 103.658L29.7181 103.658C31.8177 103.658 33.5267 102.144 34.4056 100.338L39.7278 89.742L34.6497 85.9822C32.8431 84.6639 31.3782 83.1502 30.2064 81.5389L26.1048 93.7459L4.96222 93.7459C2.27667 93.7459 0.0305755 95.992 0.0305755 98.6775C0.0305755 101.51 2.27667 103.658 4.96222 103.658Z" fill="#000000" fill-opacity="0.85"/>
 </g>
</svg>
