<?xml version="1.0" encoding="UTF-8"?>
<!--Generator: Apple Native CoreSVG 232.5-->
<!DOCTYPE svg
PUBLIC "-//W3C//DTD SVG 1.1//EN"
       "http://www.w3.org/Graphics/SVG/1.1/DTD/svg11.dtd">
<svg version="1.1" xmlns="http://www.w3.org/2000/svg" xmlns:xlink="http://www.w3.org/1999/xlink" width="95.3613" height="116.162">
 <g>
  <rect height="116.162" opacity="0" width="95.3613" x="0" y="0"/>
  <path d="M47.2656 37.1094C53.1738 37.1094 57.959 32.3242 57.959 26.416C57.959 20.5078 53.1738 15.7715 47.2656 15.7715C41.3574 15.7715 36.6211 20.5078 36.6211 26.416C36.6211 32.3242 41.3574 37.1094 47.2656 37.1094ZM90.4297 116.162C93.1641 116.162 95.3613 113.916 95.3613 111.23L95.3613 86.4746C95.3613 84.7168 94.4336 83.3984 93.1641 82.3242L73.9746 66.5039L70.166 45.8984C69.8242 43.7988 70.0684 41.748 71.0938 39.6973L87.2559 7.42188C88.4766 4.98047 87.4512 2.00195 85.0098 0.78125C82.5684-0.439453 79.5898 0.537109 78.3691 2.92969L62.5 34.7656C61.377 37.0117 59.7656 38.4766 57.373 39.4531L29.3945 51.0742L18.1152 42.041C17.2852 41.4062 16.3086 41.1621 15.4785 41.1621L15.4785 27.7344L10.0586 27.7344L10.0586 45.7031C10.0586 47.3633 10.5469 48.7793 11.8164 49.8047L25.5859 60.7422C27.2949 62.0605 29.1504 61.9629 31.2988 61.084L46.582 54.6875C48.7305 53.7598 49.8047 54.9805 50.0488 56.4453L57.6172 98.1934L36.6211 106.592C34.1309 107.568 32.8613 110.449 33.8379 113.037C35.0098 115.918 37.8418 116.699 40.2832 115.723L65.0391 105.859C67.1875 104.98 68.3105 102.881 68.1641 100.635L66.748 81.3965C66.6016 79.248 68.9453 78.0273 70.6055 79.1504L85.498 89.1113L85.498 111.23C85.498 113.916 87.6465 116.162 90.4297 116.162ZM12.793 1.75781C5.61523 1.75781 0 7.42188 0 14.6484C0 21.1914 5.56641 28.418 12.793 30.8594C20.0195 28.418 25.5371 21.1914 25.5371 14.6484C25.5371 7.42188 19.9219 1.75781 12.793 1.75781ZM12.793 7.17773C16.8945 7.17773 20.1172 10.498 20.1172 14.7949C20.1172 18.9941 17.041 23.5352 12.793 25C8.54492 23.5352 5.41992 18.9941 5.41992 14.7949C5.41992 10.498 8.64258 7.17773 12.793 7.17773Z" fill="#000000" fill-opacity="0.85"/>
 </g>
</svg>
