<?xml version="1.0" encoding="UTF-8"?>
<!--Generator: Apple Native CoreSVG 232.5-->
<!DOCTYPE svg
PUBLIC "-//W3C//DTD SVG 1.1//EN"
       "http://www.w3.org/Graphics/SVG/1.1/DTD/svg11.dtd">
<svg version="1.1" xmlns="http://www.w3.org/2000/svg" xmlns:xlink="http://www.w3.org/1999/xlink" width="65.7227" height="132.764">
 <g>
  <rect height="132.764" opacity="0" width="65.7227" x="0" y="0"/>
  <path d="M32.8613 36.0352C38.623 36.0352 43.3105 31.3477 43.3105 25.4883C43.3105 19.6777 38.623 15.0391 32.8613 15.0391C27.002 15.0391 22.3145 19.6777 22.3145 25.4883C22.3145 31.3477 27.002 36.0352 32.8613 36.0352ZM25.7812 132.764C28.3203 132.764 30.5176 130.566 30.5176 128.027L30.5176 102.441L32.8613 83.4473L35.1562 102.441L35.1562 128.027C35.1562 130.566 37.3535 132.764 39.8926 132.764C42.4805 132.764 44.6289 130.566 44.6289 128.027L44.6289 59.9121C44.6289 59.3262 45.4102 59.2285 45.6543 59.7168C51.6113 70.752 55.127 80.6152 56.543 84.9121C57.4219 87.3047 60.1074 88.6719 62.5488 87.8418C64.502 87.207 65.7227 85.3516 65.7227 83.3984C65.7227 82.9102 65.625 82.373 65.4785 81.8848C65.1855 80.8594 56.9824 56.4941 46.8262 44.9707C44.6777 42.5293 41.5039 41.0645 38.0859 41.0645L27.5879 41.0645C24.1699 41.0645 20.9961 42.5293 18.8965 44.9707C8.69141 56.4941 0.537109 80.8594 0.244141 81.8848C0.0488281 82.373 0 82.959 0 83.4473C0 85.3516 1.2207 87.207 3.17383 87.8418C5.61523 88.6719 8.25195 87.3047 9.13086 84.9121C10.5957 80.6152 14.0625 70.752 20.0684 59.7168C20.3125 59.2285 21.0938 59.3262 21.0938 59.9121L21.0938 128.027C21.0938 130.566 23.2422 132.764 25.7812 132.764ZM32.8613 5.41992C50.3906 5.41992 60.3027 21.582 60.3027 49.4629L60.3027 83.4473L65.7227 83.4473L65.7227 49.4629C65.7227 18.0664 53.9062 0 32.8613 0C11.8652 0 0.0488281 18.0664 0.0488281 49.4629L0.0488281 83.4961L5.46875 83.4961L5.46875 49.4629C5.46875 21.582 15.332 5.41992 32.8613 5.41992Z" fill="#000000" fill-opacity="0.85"/>
 </g>
</svg>
