<?xml version="1.0" encoding="UTF-8"?>
<!--Generator: Apple Native CoreSVG 232.5-->
<!DOCTYPE svg
PUBLIC "-//W3C//DTD SVG 1.1//EN"
       "http://www.w3.org/Graphics/SVG/1.1/DTD/svg11.dtd">
<svg version="1.1" xmlns="http://www.w3.org/2000/svg" xmlns:xlink="http://www.w3.org/1999/xlink" width="142.09" height="99.2676">
 <g>
  <rect height="99.2676" opacity="0" width="142.09" x="0" y="0"/>
  <path d="M54.8828 53.8086C57.1777 53.8086 59.082 51.9043 59.082 49.6094C59.082 47.3145 57.1777 45.4102 54.8828 45.4102C52.5879 45.4102 50.6836 47.3145 50.6836 49.6094C50.6836 51.9043 52.5879 53.8086 54.8828 53.8086ZM71.0449 53.8086C73.3398 53.8086 75.2441 51.9043 75.2441 49.6094C75.2441 47.3145 73.3398 45.4102 71.0449 45.4102C68.75 45.4102 66.8457 47.3145 66.8457 49.6094C66.8457 51.9043 68.75 53.8086 71.0449 53.8086ZM87.1582 53.8086C89.4531 53.8086 91.3574 51.9043 91.3574 49.6094C91.3574 47.3145 89.4531 45.4102 87.1582 45.4102C84.8633 45.4102 82.959 47.3145 82.959 49.6094C82.959 51.9043 84.8633 53.8086 87.1582 53.8086Z" fill="#000000" fill-opacity="0.85"/>
  <path d="M0 59.7168C0 61.8652 1.75781 63.623 3.90625 63.623C6.10352 63.623 7.86133 61.8652 7.86133 59.7168L7.86133 42.627C7.86133 41.8457 8.49609 41.2109 9.27734 41.2109C10.1074 41.2109 10.7422 41.8457 10.7422 42.627L10.7422 94.2871C10.7422 96.6797 12.6465 98.584 15.0391 98.584C17.4805 98.584 19.3848 96.6797 19.3848 94.2871L19.3848 62.8418C19.3848 62.0605 20.0684 61.377 20.8496 61.377C21.6797 61.377 22.3633 62.0605 22.3633 62.8418L22.3633 94.2871C22.3633 96.6797 24.2676 98.584 26.6602 98.584C29.0527 98.584 31.0059 96.6797 31.0059 94.2871L31.0059 42.627C31.0059 41.8457 31.6406 41.2109 32.4219 41.2109C33.2031 41.2109 33.8867 41.8457 33.8867 42.627L33.8867 59.7168C33.8867 61.8652 35.5957 63.623 37.793 63.623C39.9902 63.623 41.6992 61.8652 41.6992 59.7168L41.6992 40.625C41.6992 30.8105 34.5703 24.3652 24.0723 24.3652L17.6758 24.3652C7.17773 24.3652 0 30.8105 0 40.625ZM20.8496 19.2871C26.2207 19.2871 30.5176 14.9902 30.5176 9.61914C30.5176 4.29688 26.2207 0 20.8496 0C15.5273 0 11.2305 4.29688 11.2305 9.61914C11.2305 14.9902 15.5273 19.2871 20.8496 19.2871ZM100.342 59.7168C100.342 61.8652 102.1 63.623 104.248 63.623C106.445 63.623 108.203 61.8652 108.203 59.7168L108.203 42.627C108.203 41.8457 108.838 41.2109 109.668 41.2109C110.449 41.2109 111.084 41.8457 111.084 42.627L111.084 94.2871C111.084 96.6797 112.988 98.584 115.381 98.584C117.822 98.584 119.727 96.6797 119.727 94.2871L119.727 62.8418C119.727 62.0605 120.41 61.377 121.191 61.377C122.021 61.377 122.705 62.0605 122.705 62.8418L122.705 94.2871C122.705 96.6797 124.609 98.584 127.002 98.584C129.395 98.584 131.348 96.6797 131.348 94.2871L131.348 42.627C131.348 41.8457 131.982 41.2109 132.764 41.2109C133.545 41.2109 134.229 41.8457 134.229 42.627L134.229 59.7168C134.229 61.8652 135.938 63.623 138.135 63.623C140.332 63.623 142.09 61.8652 142.09 59.7168L142.09 40.625C142.09 30.8105 134.912 24.3652 124.414 24.3652L118.018 24.3652C107.52 24.3652 100.342 30.8105 100.342 40.625ZM121.191 19.2871C126.562 19.2871 130.859 14.9902 130.859 9.61914C130.859 4.29688 126.562 0 121.191 0C115.869 0 111.572 4.29688 111.572 9.61914C111.572 14.9902 115.869 19.2871 121.191 19.2871Z" fill="#000000" fill-opacity="0.85"/>
 </g>
</svg>
