<?xml version="1.0" encoding="UTF-8"?>
<!--Generator: Apple Native CoreSVG 232.5-->
<!DOCTYPE svg
PUBLIC "-//W3C//DTD SVG 1.1//EN"
       "http://www.w3.org/Graphics/SVG/1.1/DTD/svg11.dtd">
<svg version="1.1" xmlns="http://www.w3.org/2000/svg" xmlns:xlink="http://www.w3.org/1999/xlink" width="70.459" height="123.256">
 <g>
  <rect height="123.256" opacity="0" width="70.459" x="0" y="0"/>
  <path d="M30.1758 49.0546C35.9863 49.0546 40.7227 44.3183 40.7227 38.3613C40.7227 32.5019 35.9863 27.7655 30.1758 27.7655C24.2188 27.7655 19.4824 32.5019 19.4824 38.3613C19.4824 44.3183 24.2188 49.0546 30.1758 49.0546ZM4.98047 123.225L30.1758 123.225C33.2031 123.225 34.6191 121.76 35.1074 119.074L39.4043 95.539L59.3262 95.539L55.4199 117.219C54.834 120.685 57.1289 122.98 59.668 123.225C62.1094 123.469 64.7949 122.297 65.3809 119.074L70.2637 91.8769C70.8984 88.0683 68.7012 85.7734 65.9668 85.4804L48.2422 83.5273L49.7559 66.7304C49.8047 65.9003 50.4883 65.3632 51.2695 65.3632L65.4297 65.3632C68.1641 65.3632 70.459 63.0195 70.459 60.2851L70.459 32.5995C70.459 30.5488 69.1895 28.6933 67.2852 27.9609C65.4297 27.1796 63.2812 27.5214 61.8164 28.9863L34.2285 56.6718C31.7871 59.1132 30.2246 62.1894 29.8828 65.9491L25.5371 113.166L4.98047 113.166C2.19727 113.166 0 115.363 0 118.146C0 120.93 2.19727 123.225 4.98047 123.225ZM60.4004 44.7577L60.4004 55.207L49.8535 55.207ZM50.293 29.9628L61.6211 40.0702L64.2578 37.1405L53.0762 26.9843ZM22.3145 9.455L48.0957 32.6972C49.6582 34.1132 51.709 33.9179 53.2227 32.3554L55.8105 29.7187C57.373 28.1562 57.0801 25.9589 55.5664 24.5429L29.6387 1.20305C28.0762-0.212966 25.8789-0.0664817 24.4629 1.49602L22.0215 4.32805C20.6543 5.89055 20.7031 7.99016 22.3145 9.455Z" fill="#000000" fill-opacity="0.85"/>
 </g>
</svg>
