<?xml version="1.0" encoding="UTF-8"?>
<!--Generator: Apple Native CoreSVG 232.5-->
<!DOCTYPE svg
PUBLIC "-//W3C//DTD SVG 1.1//EN"
       "http://www.w3.org/Graphics/SVG/1.1/DTD/svg11.dtd">
<svg version="1.1" xmlns="http://www.w3.org/2000/svg" xmlns:xlink="http://www.w3.org/1999/xlink" width="132.23" height="120.264">
 <g>
  <rect height="120.264" opacity="0" width="132.23" x="0" y="0"/>
  <path d="M40.5777 26.5137C47.9507 26.5137 53.8101 20.459 53.8101 13.3301C53.8101 6.00586 47.9507 0 40.5777 0C33.2046 0 27.4429 6.00586 27.4429 13.3301C27.4429 20.6055 33.2046 26.5137 40.5777 26.5137ZM15.1382 75.9277L53.0288 33.9355C49.3179 32.5684 45.2163 31.9336 40.5777 31.9336C23.5366 31.9336 13.4292 40.1855 13.4292 53.9551C13.4292 57.2266 13.6245 61.6699 14.1128 66.2598ZM66.0659 75.9766L67.0913 66.2598C67.5796 61.6699 67.7749 57.2266 67.7749 53.9551C67.7749 47.168 65.3824 41.6504 60.6949 37.8906L30.7144 71.3867C33.9859 70.8008 37.3062 70.6543 40.5777 70.6543C49.0249 70.6543 57.4722 71.7285 66.0659 75.9766ZM25.9781 119.922C29.4937 119.434 31.7886 116.943 31.3491 112.598L28.9566 90.5762L52.2476 90.5762L49.855 112.598C49.4156 116.943 51.7105 119.434 55.1773 119.922C58.7906 120.312 61.5738 118.066 62.0132 113.818L65.0406 84.7656C57.3257 80.3223 48.7808 78.6133 40.5777 78.6133C32.4234 78.6133 23.8784 80.3223 16.1636 84.7656L19.1909 113.818C19.6304 118.066 22.4136 120.312 25.9781 119.922ZM60.6949 37.8418L72.023 25.293C73.9761 23.0469 73.8296 20.6543 71.9253 19.043C70.1675 17.4805 67.8726 17.4805 65.773 19.7754L53.0288 33.9355C55.8609 34.9609 58.3999 36.377 60.6949 37.8418ZM1.12454 91.6016C2.88235 93.4082 5.27493 93.3594 7.32571 91.2598C10.0601 88.6719 12.7945 86.4746 16.1636 84.7656L15.1382 75.9277C10.1089 78.2715 5.71438 81.6406 1.56399 85.5469C-0.389133 87.4023-0.486789 89.8438 1.12454 91.6016ZM80.0796 91.6016C81.6909 89.8926 81.5933 87.4512 79.689 85.5957C75.4898 81.6406 71.0952 78.3203 66.0659 75.9766L65.0406 84.7656C68.4097 86.4746 71.1441 88.6719 73.8784 91.2598C75.9292 93.3594 78.3218 93.4082 80.0796 91.6016Z" fill="#000000" fill-opacity="0.85"/>
  <path d="M107.668 59.8145C121.437 59.8145 132.228 48.4375 132.228 35.2051C132.228 21.3867 121.437 10.2539 107.668 10.2539C93.8491 10.2539 82.814 21.3867 82.814 35.2051C82.814 48.4375 93.8491 59.8145 107.668 59.8145ZM107.668 53.418C97.6089 53.418 89.2105 45.1172 89.2105 35.2051C89.2105 24.9023 97.3648 16.6504 107.668 16.6504C117.824 16.6504 125.832 24.8047 125.832 35.2051C125.832 45.2637 117.628 53.418 107.668 53.418ZM89.6011 12.6465C88.3804 11.4258 86.3784 11.4258 85.1577 12.6465C83.8882 13.8672 83.8882 15.8691 85.1577 17.1875L125.441 57.4707C126.662 58.6914 128.712 58.6914 129.933 57.4707C131.203 56.25 131.203 54.1992 129.933 52.9297ZM85.1577 52.9297C83.8882 54.1992 83.8882 56.25 85.1577 57.4707C86.3784 58.6914 88.3804 58.6914 89.6011 57.4707L129.933 17.1875C131.203 15.8691 131.203 13.8672 129.933 12.6465C128.712 11.4258 126.662 11.4258 125.441 12.6465Z" fill="#000000" fill-opacity="0.85"/>
 </g>
</svg>
