<?xml version="1.0" encoding="UTF-8"?>
<!--Generator: Apple Native CoreSVG 232.5-->
<!DOCTYPE svg
PUBLIC "-//W3C//DTD SVG 1.1//EN"
       "http://www.w3.org/Graphics/SVG/1.1/DTD/svg11.dtd">
<svg version="1.1" xmlns="http://www.w3.org/2000/svg" xmlns:xlink="http://www.w3.org/1999/xlink" width="130.42" height="117.236">
 <g>
  <rect height="117.236" opacity="0" width="130.42" x="0" y="0"/>
  <path d="M109.57 28.2715C114.941 28.2715 119.189 23.9258 119.189 18.6035C119.189 13.2324 114.941 8.98438 109.57 8.98438C104.248 8.98438 99.9023 13.2324 99.9023 18.6035C99.9023 23.9258 104.248 28.2715 109.57 28.2715ZM103.76 107.568C106.201 107.568 108.057 105.664 108.057 103.271L108.057 71.8262C108.057 71.0449 108.789 70.3613 109.57 70.3613C110.352 70.3613 111.035 71.0449 111.035 71.8262L111.035 103.271C111.035 105.664 112.988 107.568 115.381 107.568C117.773 107.568 119.678 105.664 119.678 103.271L119.678 51.6113C119.678 50.7812 120.312 50.1953 121.143 50.1953C121.924 50.1953 122.559 50.7812 122.559 51.6113L122.559 68.6523C122.559 70.8984 124.316 72.6562 126.514 72.6562C128.662 72.6562 130.42 70.8984 130.42 68.6523L130.42 49.6094C130.42 39.8438 123.242 33.3496 112.793 33.3496L106.348 33.3496C95.8496 33.3496 88.6719 39.8438 88.6719 49.6094L88.6719 68.6523C88.6719 70.8984 90.4297 72.6562 92.627 72.6562C94.8242 72.6562 96.582 70.8984 96.582 68.6523L96.582 51.6113C96.582 50.7812 97.2168 50.1953 97.998 50.1953C98.7793 50.1953 99.4629 50.7812 99.4629 51.6113L99.4629 103.271C99.4629 105.664 101.367 107.568 103.76 107.568Z" fill="#000000" fill-opacity="0.85"/>
  <path d="M69.2871 117.188C71.4844 117.188 73.2422 115.576 73.2422 113.379L73.2422 3.80859C73.2422 1.61133 71.4844 0 69.2871 0C67.0898 0 65.3809 1.61133 65.3809 3.80859L65.3809 113.379C65.3809 115.576 67.0898 117.188 69.2871 117.188Z" fill="#000000" fill-opacity="0.85"/>
  <path d="M26.4648 28.2715C31.7871 28.2715 36.084 23.9258 36.084 18.6035C36.084 13.2324 31.7871 8.98438 26.4648 8.98438C21.0938 8.98438 16.7969 13.2324 16.7969 18.6035C16.7969 23.9258 21.0938 28.2715 26.4648 28.2715ZM20.6543 107.568C23.0469 107.568 24.9512 105.664 24.9512 103.271L24.9512 85.1562C24.9512 84.3262 25.6348 83.6914 26.4648 83.6914C27.2461 83.6914 27.9297 84.3262 27.9297 85.1562L27.9297 103.271C27.9297 105.664 29.7852 107.568 32.2266 107.568C34.6191 107.568 36.5234 105.664 36.5234 103.271L36.5234 85.1562L42.4805 85.1562C44.9219 85.1562 45.9473 83.1055 45.2148 80.7617L36.2793 52.1973C35.6445 50.0977 38.4766 49.2676 39.1113 51.416L44.6777 69.2383C46.3867 74.707 54.3457 72.5586 52.6367 66.9922L47.4609 50.4883C44.0918 39.6484 40.5273 33.3008 27.9297 33.3008L24.9512 33.3008C12.3535 33.3008 8.74023 39.6484 5.37109 50.4883L0.244141 66.9922C-1.46484 72.5586 6.44531 74.707 8.20312 69.2383L13.7695 51.416C14.4043 49.2676 17.2363 50.0977 16.5527 52.1973L7.66602 80.7617C6.93359 83.1055 7.95898 85.1562 10.3516 85.1562L16.3086 85.1562L16.3086 103.271C16.3086 105.664 18.2617 107.568 20.6543 107.568Z" fill="#000000" fill-opacity="0.85"/>
 </g>
</svg>
