<?xml version="1.0" encoding="UTF-8"?>
<!--Generator: Apple Native CoreSVG 232.5-->
<!DOCTYPE svg
PUBLIC "-//W3C//DTD SVG 1.1//EN"
       "http://www.w3.org/Graphics/SVG/1.1/DTD/svg11.dtd">
<svg version="1.1" xmlns="http://www.w3.org/2000/svg" xmlns:xlink="http://www.w3.org/1999/xlink" width="125.146" height="92.627">
 <g>
  <rect height="92.627" opacity="0" width="125.146" x="0" y="0"/>
  <path d="M82.5684 21.3379C88.4766 21.3379 93.2617 16.5527 93.2617 10.6445C93.2617 4.73633 88.4766 0 82.5684 0C76.6602 0 71.9238 4.73633 71.9238 10.6445C71.9238 16.5527 76.6602 21.3379 82.5684 21.3379ZM46.6797 91.4062C48.584 92.4805 51.8066 92.041 53.2227 89.209L65.4785 64.8438C66.4062 62.9395 66.1133 60.6934 64.5508 59.1797L49.8047 44.3848L68.4082 35.0586C69.3359 34.5703 70.3613 34.8145 71.0449 35.498L80.6152 45.1172L80.6152 65.0879C80.6152 67.7734 82.8613 69.9707 85.5469 69.9707C88.2324 69.9707 90.4297 67.7734 90.4297 65.0879L90.4297 43.1152C90.4297 41.7969 90.1367 40.625 89.0137 39.5996L66.9434 17.627C64.4531 15.1367 61.1816 13.8184 57.666 13.8184L38.916 13.8184C34.0332 13.8184 32.6172 19.1406 35.5957 22.0703L41.4551 27.8809L39.0625 28.8574C30.1758 32.5195 27.5879 44.1895 35.9863 50.293L54.8828 64.1602L44.5312 84.8633C43.3105 87.2559 44.2871 90.1367 46.6797 91.4062ZM4.88281 72.4609L29.3457 72.4609C31.2988 72.4609 32.8613 71.2402 33.6426 69.7266L39.209 58.5449L33.2031 54.1016C31.8359 53.125 30.6641 52.002 29.7363 50.8301L25.7812 62.6465L4.88281 62.6465C2.19727 62.6465 0 64.8438 0 67.5781C0 70.2637 2.19727 72.4609 4.88281 72.4609ZM107.812 89.7949L122.51 89.7949C123.926 89.7949 125.146 88.5742 125.146 87.1094L125.146 84.668C125.146 83.1543 123.926 81.9336 122.51 81.9336L106.25 81.9336L58.8379 34.5703L54.0039 37.3535L105.42 88.7695C106.299 89.6484 106.885 89.7949 107.812 89.7949Z" fill="#000000" fill-opacity="0.85"/>
 </g>
</svg>
