<?xml version="1.0" encoding="UTF-8"?>
<!--Generator: Apple Native CoreSVG 232.5-->
<!DOCTYPE svg
PUBLIC "-//W3C//DTD SVG 1.1//EN"
       "http://www.w3.org/Graphics/SVG/1.1/DTD/svg11.dtd">
<svg version="1.1" xmlns="http://www.w3.org/2000/svg" xmlns:xlink="http://www.w3.org/1999/xlink" width="83.0078" height="116.162">
 <g>
  <rect height="116.162" opacity="0" width="83.0078" x="0" y="0"/>
  <path d="M38.0371 21.3379C43.8477 21.3379 48.6816 16.5527 48.6816 10.6934C48.6816 4.83398 43.8477 0 38.0371 0C32.1777 0 27.3438 4.83398 27.3438 10.6934C27.3438 16.5527 32.1777 21.3379 38.0371 21.3379ZM5.07812 35.6934L20.9473 35.6934C21.6797 35.6934 22.3145 36.2793 22.2168 37.0117L20.7031 57.6172C20.166 64.9902 24.4629 69.5801 30.7129 70.8496L51.123 75.1465L55.5176 97.0215C56.1035 100 59.1309 101.416 61.377 100.977C64.1113 100.439 65.8691 97.7539 65.332 95.0195L60.3516 69.873C59.9609 67.9199 58.3008 66.5527 56.4453 65.918L40.6738 60.9863L42.041 41.9434C42.1875 40.4785 43.5547 39.9414 44.6777 40.8691L52.1484 47.0703C53.0762 47.8027 54.1504 48.2422 55.3711 48.2422L78.0273 48.2422C80.8105 48.2422 83.0078 45.9961 83.0078 43.2129C83.0078 40.4297 80.8105 38.2324 78.0273 38.2324L57.1777 38.2324L46.2891 29.1504C43.5547 26.9043 41.0645 25.6348 37.1582 25.6348L11.8652 25.6348L17.4805 6.98242C18.2617 4.29688 16.748 1.46484 14.1113 0.683594C11.4258-0.0976562 8.54492 1.41602 7.76367 4.10156L0.292969 29.1992C-0.683594 32.5195 0.878906 35.6934 5.07812 35.6934ZM26.3184 115.723C28.7109 116.455 31.6895 115.381 32.6172 112.402L40.0879 87.4512C40.2832 86.7676 40.332 86.0352 40.332 85.2539L40.332 77.6855L29.7852 75.4395C29.541 75.3906 29.3457 75.3906 29.1504 75.3418L30.2246 85.2539L22.9492 109.521C22.168 112.109 23.6816 114.941 26.3184 115.723Z" fill="#000000" fill-opacity="0.85"/>
 </g>
</svg>
