<?xml version="1.0" encoding="UTF-8"?>
<!--Generator: Apple Native CoreSVG 232.5-->
<!DOCTYPE svg
PUBLIC "-//W3C//DTD SVG 1.1//EN"
       "http://www.w3.org/Graphics/SVG/1.1/DTD/svg11.dtd">
<svg version="1.1" xmlns="http://www.w3.org/2000/svg" xmlns:xlink="http://www.w3.org/1999/xlink" width="99.6094" height="99.6582">
 <g>
  <rect height="99.6582" opacity="0" width="99.6094" x="0" y="0"/>
  <path d="M99.6094 49.8047C99.6094 77.002 77.0508 99.6094 49.8047 99.6094C22.6074 99.6094 0 77.002 0 49.8047C0 22.5586 22.5586 0 49.7559 0C77.002 0 99.6094 22.5586 99.6094 49.8047ZM33.0078 15.0391C31.2988 15.1855 30.2734 16.3574 30.4199 18.2617L31.1035 28.5156C31.2012 30.4199 31.9336 31.6895 33.5449 32.8613L40.8691 38.3301C41.9434 39.1113 42.4316 39.9902 42.4316 41.2598L42.4316 80.2734C42.4316 82.373 43.6035 83.5938 45.6055 83.5938C47.5586 83.5938 48.6816 82.4219 48.6816 80.2734L48.6816 58.3008C48.6816 57.3242 49.2188 56.6895 50.0977 56.6895C50.9766 56.6895 51.5137 57.373 51.5137 58.3008L51.5137 80.2734C51.5137 82.373 52.7344 83.5938 54.7363 83.5938C56.7383 83.5938 57.8125 82.4219 57.8125 80.2734L57.8125 43.6523C57.8125 42.627 58.3496 41.9922 59.2285 41.9922C60.0586 41.9922 60.6445 42.6758 60.6445 43.6523L60.6445 58.5938C60.6445 60.498 61.7676 61.6699 63.5254 61.6699C65.2344 61.6699 66.3086 60.498 66.3086 58.5938L66.3086 44.4336C66.3086 35.4492 61.2793 33.0078 50.3906 33.0078L46.2402 33.0078C43.9941 33.0078 42.9199 32.5684 41.3086 31.4453L36.7188 28.2227L35.9863 17.8711C35.8887 15.9668 34.7656 14.8926 33.0078 15.0391ZM43.9941 23.4863C43.9941 26.9531 46.9238 29.834 50.3906 29.834C53.8574 29.834 56.8359 26.9043 56.8359 23.4863C56.8359 19.9219 53.9551 17.041 50.3906 17.041C46.8262 17.041 43.9941 19.9219 43.9941 23.4863Z" fill="#000000" fill-opacity="0.85"/>
 </g>
</svg>
