<?xml version="1.0" encoding="UTF-8"?>
<!--Generator: Apple Native CoreSVG 232.5-->
<!DOCTYPE svg
PUBLIC "-//W3C//DTD SVG 1.1//EN"
       "http://www.w3.org/Graphics/SVG/1.1/DTD/svg11.dtd">
<svg version="1.1" xmlns="http://www.w3.org/2000/svg" xmlns:xlink="http://www.w3.org/1999/xlink" width="115.576" height="71.4355">
 <g>
  <rect height="71.4355" opacity="0" width="115.576" x="0" y="0"/>
  <path d="M77.2461 25.1953C83.1543 25.1953 87.9395 20.459 87.9395 14.5508C87.9395 8.64258 83.1543 3.85742 77.2461 3.85742C71.3379 3.85742 66.6016 8.64258 66.6016 14.5508C66.6016 20.459 71.3379 25.1953 77.2461 25.1953ZM57.7637 44.9707C66.4062 44.9707 68.8477 39.6484 76.5137 37.6953L42.6758 2.49023C40.4785 0.244141 37.2559-0.0488281 34.6191 1.80664L15.4785 15.4297C12.1582 17.7734 12.5 21.2402 14.4043 23.291C15.9668 25.0488 18.8477 25.7812 21.582 23.8281L37.1094 12.8418L45.8984 21.875C46.875 22.9004 47.168 24.4629 45.6543 25.4883L27.5879 37.3535C29.6875 37.1582 31.9336 37.1094 34.5215 37.207C45.6055 37.6953 47.6562 44.9707 57.7637 44.9707ZM2.73438 57.8613L7.66602 57.8613C20.7031 57.8613 23.6816 49.8535 32.7148 49.8535C41.748 49.8535 44.7266 57.8613 57.7637 57.8613C70.8496 57.8613 73.7793 49.8535 82.8613 49.8535C91.8945 49.8535 94.8242 57.8613 107.91 57.8613L112.842 57.8613C114.355 57.8613 115.576 56.6895 115.576 55.1758C115.576 53.6621 114.355 52.4414 112.842 52.4414L107.91 52.4414C98.5352 52.4414 95.3613 44.4336 82.8613 44.4336C70.3125 44.4336 67.1387 52.4414 57.7637 52.4414C48.3887 52.4414 45.2637 44.4336 32.7148 44.4336C20.2148 44.4336 17.041 52.4414 7.66602 52.4414L2.73438 52.4414C1.17188 52.4414 0 53.6621 0 55.1758C0 56.6895 1.17188 57.8613 2.73438 57.8613ZM4.00391 71.4355C5.61523 71.4355 6.88477 70.166 6.88477 68.6035C6.88477 66.9922 5.61523 65.7227 4.00391 65.7227C2.44141 65.7227 1.17188 66.9922 1.17188 68.6035C1.17188 70.166 2.44141 71.4355 4.00391 71.4355ZM13.1836 69.7754C14.7461 69.7754 16.0156 68.5547 16.0156 66.9434C16.0156 65.332 14.7461 64.1113 13.1836 64.1113C11.5723 64.1113 10.3027 65.332 10.3027 66.9434C10.3027 68.5547 11.5723 69.7754 13.1836 69.7754ZM21.7285 65.7715C23.3398 65.7715 24.6094 64.502 24.6094 62.8906C24.6094 61.3281 23.3398 60.0586 21.7285 60.0586C20.166 60.0586 18.8965 61.3281 18.8965 62.8906C18.8965 64.502 20.166 65.7715 21.7285 65.7715ZM30.957 63.5742C32.5684 63.5742 33.8379 62.3047 33.8379 60.7422C33.8379 59.1309 32.5684 57.8613 30.957 57.8613C29.3945 57.8613 28.125 59.1309 28.125 60.7422C28.125 62.3047 29.3945 63.5742 30.957 63.5742ZM40.1855 65.7715C41.7969 65.7715 43.0176 64.502 43.0176 62.8906C43.0176 61.3281 41.7969 60.0586 40.1855 60.0586C38.5742 60.0586 37.3535 61.3281 37.3535 62.8906C37.3535 64.502 38.5742 65.7715 40.1855 65.7715ZM48.8281 69.7754C50.4395 69.7754 51.709 68.5547 51.709 66.9434C51.709 65.332 50.4395 64.1113 48.8281 64.1113C47.2656 64.1113 45.9961 65.332 45.9961 66.9434C45.9961 68.5547 47.2656 69.7754 48.8281 69.7754ZM57.8613 71.4355C59.4238 71.4355 60.6934 70.166 60.6934 68.6035C60.6934 66.9922 59.4238 65.7227 57.8613 65.7227C56.25 65.7227 54.9805 66.9922 54.9805 68.6035C54.9805 70.166 56.25 71.4355 57.8613 71.4355ZM66.8457 69.7754C68.457 69.7754 69.6777 68.5547 69.6777 66.9434C69.6777 65.332 68.457 64.1113 66.8457 64.1113C65.2344 64.1113 64.0137 65.332 64.0137 66.9434C64.0137 68.5547 65.2344 69.7754 66.8457 69.7754ZM75.4883 65.7715C77.0996 65.7715 78.3691 64.502 78.3691 62.8906C78.3691 61.3281 77.0996 60.0586 75.4883 60.0586C73.9258 60.0586 72.6562 61.3281 72.6562 62.8906C72.6562 64.502 73.9258 65.7715 75.4883 65.7715ZM84.7168 63.5742C86.3281 63.5742 87.5488 62.3047 87.5488 60.7422C87.5488 59.1309 86.3281 57.8613 84.7168 57.8613C83.1055 57.8613 81.8848 59.1309 81.8848 60.7422C81.8848 62.3047 83.1055 63.5742 84.7168 63.5742ZM93.9453 65.7715C95.5566 65.7715 96.7773 64.502 96.7773 62.8906C96.7773 61.3281 95.5566 60.0586 93.9453 60.0586C92.334 60.0586 91.1133 61.3281 91.1133 62.8906C91.1133 64.502 92.334 65.7715 93.9453 65.7715ZM102.539 69.7754C104.15 69.7754 105.371 68.5547 105.371 66.9434C105.371 65.332 104.15 64.1113 102.539 64.1113C100.928 64.1113 99.707 65.332 99.707 66.9434C99.707 68.5547 100.928 69.7754 102.539 69.7754ZM111.621 71.4355C113.232 71.4355 114.502 70.166 114.502 68.6035C114.502 66.9922 113.232 65.7227 111.621 65.7227C110.059 65.7227 108.789 66.9922 108.789 68.6035C108.789 70.166 110.059 71.4355 111.621 71.4355Z" fill="#000000" fill-opacity="0.85"/>
 </g>
</svg>
