<?xml version="1.0" encoding="UTF-8"?>
<!--Generator: Apple Native CoreSVG 232.5-->
<!DOCTYPE svg
PUBLIC "-//W3C//DTD SVG 1.1//EN"
       "http://www.w3.org/Graphics/SVG/1.1/DTD/svg11.dtd">
<svg version="1.1" xmlns="http://www.w3.org/2000/svg" xmlns:xlink="http://www.w3.org/1999/xlink" width="99.6094" height="99.6582">
 <g>
  <rect height="99.6582" opacity="0" width="99.6094" x="0" y="0"/>
  <path d="M49.8047 99.6094C77.0508 99.6094 99.6094 77.002 99.6094 49.8047C99.6094 22.5586 77.002 0 49.7559 0C22.5586 0 0 22.5586 0 49.8047C0 77.002 22.6074 99.6094 49.8047 99.6094ZM49.8047 91.3086C26.7578 91.3086 8.34961 72.8516 8.34961 49.8047C8.34961 26.7578 26.709 8.30078 49.7559 8.30078C72.8027 8.30078 91.3086 26.7578 91.3086 49.8047C91.3086 72.8516 72.8516 91.3086 49.8047 91.3086Z" fill="#000000" fill-opacity="0.85"/>
  <path d="M57.9102 28.7109C61.4258 28.7109 64.2578 25.8789 64.2578 22.3633C64.2578 18.8965 61.4258 16.0156 57.9102 16.0156C54.3945 16.0156 51.5625 18.8965 51.5625 22.3633C51.5625 25.8789 54.3945 28.7109 57.9102 28.7109ZM47.998 54.0527L59.082 60.3027L51.9531 66.4551C50.3906 67.8223 50.3906 69.5312 51.3184 70.6055C52.3438 71.6797 54.0527 71.9238 55.6641 70.5566L65.6738 61.9629C67.041 60.8398 66.7969 58.3496 65.1855 57.2266L54.248 50.0977L56.3965 42.5293C56.6895 41.4551 57.959 41.2598 58.5938 42.2363L61.8164 46.9238C62.5488 47.998 63.9648 48.4375 65.1855 47.8516L74.4141 43.75C76.0742 43.0176 76.6602 41.6016 75.9277 40.0879C75.2441 38.623 73.8281 38.2324 72.2168 38.9648L64.8438 42.1875L59.8633 35.2051C57.2266 31.5918 53.9551 30.127 48.6328 30.4688L38.3789 31.25C36.7676 31.3477 35.6445 32.4707 35.4004 34.082L34.082 44.4824C33.8379 46.2891 34.668 47.5098 36.3281 47.7051C37.9395 47.8516 38.9648 46.9238 39.209 45.1172L40.4785 36.6699L44.5801 36.3281C45.5078 36.2793 46.3379 36.9141 46.0449 38.0371L43.7012 46.3867C42.2852 51.2695 45.459 52.6367 47.998 54.0527ZM28.4668 79.248C29.541 80.127 31.2012 80.2734 32.7148 78.8086L42.1387 69.4824C42.9199 68.7012 43.1152 68.5059 43.6035 67.2852L47.5586 57.0312L46.6309 56.4941C44.3848 55.3223 42.8223 54.0527 41.7969 52.7832L38.3301 65.0391L28.5645 74.8047C27.002 76.3184 27.2949 78.1738 28.4668 79.248Z" fill="#000000" fill-opacity="0.85"/>
 </g>
</svg>
