<?xml version="1.0" encoding="UTF-8"?>
<!--Generator: Apple Native CoreSVG 232.5-->
<!DOCTYPE svg
PUBLIC "-//W3C//DTD SVG 1.1//EN"
       "http://www.w3.org/Graphics/SVG/1.1/DTD/svg11.dtd">
<svg version="1.1" xmlns="http://www.w3.org/2000/svg" xmlns:xlink="http://www.w3.org/1999/xlink" width="77.2265" height="114.6">
 <g>
  <rect height="114.6" opacity="0" width="77.2265" x="0" y="0"/>
  <path d="M65.8594 21.3379C71.7187 21.3379 76.5039 16.5527 76.5039 10.5957C76.5039 4.73633 71.7187 0 65.8594 0C59.9023 0 55.1172 4.73633 55.1172 10.5957C55.1172 16.5527 59.9023 21.3379 65.8594 21.3379ZM41.3965 96.7285C44.1797 96.7285 46.5234 94.4336 46.5234 91.6992L46.5234 66.1133C46.5234 64.8926 46.084 63.8184 45.3515 62.9395L33.7793 48.7305C33.0469 47.8027 33.291 46.8262 34.1699 46.3379L48.2812 39.0137C49.3066 38.4766 50.332 38.8672 50.5273 40.0879L51.748 48.7305C51.9922 50.6348 53.0664 51.9531 55.1172 52.9297L68.9844 59.9121C72.7929 61.8164 75.7715 60.2539 76.6992 57.8613C77.6269 55.6152 76.8945 52.6855 73.8183 51.123L61.3672 44.7754L59.3652 30.0293C58.291 22.168 49.5996 17.334 41.2988 21.6797L22.9883 31.25C14.541 35.6445 13.4179 45.2637 19.6679 51.5625L36.4648 68.2617L36.4648 91.6992C36.4648 94.4336 38.7109 96.7285 41.3965 96.7285ZM2.28514 65.1367C4.18943 68.5547 7.75389 69.5801 11.2695 68.7988L21.8164 66.4551C23.2812 66.1621 24.209 65.0879 24.209 63.5254C24.209 62.0117 23.1347 60.9375 21.7187 60.6934L3.70115 57.5684C0.673807 57.0312-0.888693 59.4727 0.527323 61.9629ZM10.8301 65.625L24.0137 104.785L29.3847 102.93L16.3476 63.9648ZM41.25 114.355C52.1387 114.355 60.5859 105.762 60.5859 95.0684C60.5859 87.6953 56.4844 81.3477 50.4297 78.0762L50.4297 85.4004C53.0176 87.793 54.5312 91.2598 54.5312 95.0684C54.5312 102.393 48.623 108.301 41.25 108.301C34.1211 108.301 28.0664 102.246 28.0664 95.0684C28.0664 91.2109 29.7754 87.6465 32.4609 85.2051L32.4609 77.9785C26.3086 81.1035 22.0117 87.5977 22.0117 95.0684C22.0117 105.762 30.7031 114.355 41.25 114.355ZM53.0664 103.467L58.5351 105.322L70.8887 67.9199C71.3769 66.4551 70.5957 64.7949 69.1797 64.3555C67.5683 63.8672 66.1523 64.6973 65.6152 66.1621ZM14.4433 110.205C12.4414 111.523 13.0273 114.502 15.3711 114.502L67.1777 114.502C69.4726 114.502 70.0586 111.426 68.1543 110.205L56.6797 102.686L46.3281 109.863L36.2695 109.863L25.8203 102.686Z" fill="#000000" fill-opacity="0.85"/>
 </g>
</svg>
