<?xml version="1.0" encoding="UTF-8"?>
<!--Generator: Apple Native CoreSVG 232.5-->
<!DOCTYPE svg
PUBLIC "-//W3C//DTD SVG 1.1//EN"
       "http://www.w3.org/Graphics/SVG/1.1/DTD/svg11.dtd">
<svg version="1.1" xmlns="http://www.w3.org/2000/svg" xmlns:xlink="http://www.w3.org/1999/xlink" width="99.6094" height="99.6582">
 <g>
  <rect height="99.6582" opacity="0" width="99.6094" x="0" y="0"/>
  <path d="M99.6094 49.8047C99.6094 77.002 77.0508 99.6094 49.8047 99.6094C22.6074 99.6094 0 77.002 0 49.8047C0 22.5586 22.5586 0 49.7559 0C77.002 0 99.6094 22.5586 99.6094 49.8047ZM49.8047 36.3281C48.1445 36.3281 46.6309 35.9863 45.2148 35.3027C43.2129 35.5469 41.4551 36.0352 39.4531 36.7676L30.8594 40.3809C28.9062 41.1621 28.2715 42.8223 28.7598 44.1895C29.1504 45.6543 30.6641 46.7285 32.7637 45.8496L40.7227 42.627C41.6016 42.2852 42.334 42.7246 42.334 43.6035C42.334 46.4355 42.4805 52.7832 42.0898 55.3223C41.5039 58.7402 37.4512 73.9746 37.207 75.4395C36.6699 79.248 42.1875 80.6641 43.2129 76.6113L47.9004 58.6426C48.1934 57.5684 48.877 57.0312 49.8047 57.0312C50.7324 57.0312 51.416 57.5684 51.709 58.6426L56.3965 76.6113C57.4219 80.6641 62.9395 79.248 62.4023 75.4395C62.1582 73.9746 58.1055 58.7402 57.5684 55.3223C57.1289 52.7832 57.3242 46.4355 57.3242 43.6035C57.3242 42.7246 58.0078 42.2852 58.8867 42.627L66.8945 45.8496C68.9941 46.7285 70.5078 45.6543 70.8984 44.1895C71.3379 42.8223 70.752 41.1621 68.75 40.3809L60.1562 36.7676C58.1543 36.0352 56.3965 35.5469 54.3945 35.3027C53.0273 35.9863 51.4648 36.3281 49.8047 36.3281ZM42.9688 25.7812C42.9688 29.541 46.0938 32.6172 49.8535 32.6172C53.6621 32.6172 56.6895 29.541 56.6895 25.7812C56.6895 21.9238 53.6621 18.8477 49.8535 18.8477C46.0938 18.8477 42.9688 21.9238 42.9688 25.7812Z" fill="#000000" fill-opacity="0.85"/>
 </g>
</svg>
