<?xml version="1.0" encoding="UTF-8"?>
<!--Generator: Apple Native CoreSVG 232.5-->
<!DOCTYPE svg
PUBLIC "-//W3C//DTD SVG 1.1//EN"
       "http://www.w3.org/Graphics/SVG/1.1/DTD/svg11.dtd">
<svg version="1.1" xmlns="http://www.w3.org/2000/svg" xmlns:xlink="http://www.w3.org/1999/xlink" width="102.448" height="123.877">
 <g>
  <rect height="123.877" opacity="0" width="102.448" x="0" y="0"/>
  <path d="M46.2923 33.6426C52.1517 33.6426 56.9368 28.9062 56.9368 22.998C56.9368 17.1387 52.1517 12.3535 46.2923 12.3535C40.3841 12.3535 35.6477 17.1387 35.6477 22.998C35.6477 28.9062 40.3841 33.6426 46.2923 33.6426ZM20.511 107.812L43.3138 107.812C45.2181 107.812 47.1224 106.934 48.0989 105.078L58.4993 85.9375C58.8411 85.2051 59.8177 85.2539 60.0618 85.9863L65.5306 100.635L45.804 113.77C43.5091 115.332 42.9231 118.457 44.4368 120.85C45.9505 123.193 49.1243 123.828 51.4681 122.217L73.8802 107.373C76.1263 105.859 77.2005 103.467 76.5657 100.83L62.8938 46.4844C62.4056 44.6777 62.8938 43.7012 64.261 43.0176L99.6126 25.3418C102.152 24.0723 103.128 20.9473 101.908 18.457C100.638 15.918 97.6106 14.8438 95.0227 16.1621L21.5852 52.9297L9.8665 41.2109C9.28056 40.625 8.64579 40.1367 8.01103 39.6973L19.388 19.7266L14.6517 17.041L0.63798 41.5527C-0.485067 43.5547-0.0944416 45.7031 1.56571 47.3633L16.8977 62.7441C18.2649 64.0625 20.7063 64.7949 23.2454 63.5254L40.6282 54.7852C41.8489 54.1992 42.972 54.7363 43.2161 55.7617L48.4407 76.7578L40.0911 97.5586L20.511 97.5586C17.6302 97.5586 15.3841 99.8047 15.3841 102.686C15.3841 105.469 17.6302 107.812 20.511 107.812ZM20.8528 21.2891C26.761 21.2891 31.4974 16.5527 31.4974 10.6445C31.4974 4.73633 26.761 0 20.8528 0C14.9446 0 10.2083 4.73633 10.2083 10.6445C10.2083 16.5527 14.9446 21.2891 20.8528 21.2891ZM20.8528 15.8691C17.8255 15.8691 15.6282 13.623 15.6282 10.6445C15.6282 7.66602 17.8255 5.41992 20.8528 5.41992C23.8313 5.41992 26.0774 7.66602 26.0774 10.6445C26.0774 13.623 23.8313 15.8691 20.8528 15.8691Z" fill="#000000" fill-opacity="0.85"/>
 </g>
</svg>
