<?xml version="1.0" encoding="UTF-8"?>
<!--Generator: Apple Native CoreSVG 232.5-->
<!DOCTYPE svg
PUBLIC "-//W3C//DTD SVG 1.1//EN"
       "http://www.w3.org/Graphics/SVG/1.1/DTD/svg11.dtd">
<svg version="1.1" xmlns="http://www.w3.org/2000/svg" xmlns:xlink="http://www.w3.org/1999/xlink" width="102.246" height="137.744">
 <g>
  <rect height="137.744" opacity="0" width="102.246" x="0" y="0"/>
  <path d="M91.6504 46.7285C97.5098 46.7285 102.246 41.9922 102.246 36.084C102.246 30.2246 97.5098 25.4883 91.6504 25.4883C85.7422 25.4883 80.957 30.2246 80.957 36.084C80.957 41.9922 85.7422 46.7285 91.6504 46.7285ZM5.0293 60.1074L29.3457 60.1074L44.2871 73.6816C44.9219 74.2188 44.5801 75.1465 43.75 75.1465L26.709 75.1465C25.2441 75.1465 23.7793 75.4883 22.7539 76.5137L4.63867 94.6777C2.68555 96.6797 2.63672 99.7559 4.63867 101.758C6.5918 103.711 9.76562 103.711 11.7188 101.758L27.9785 85.498L47.8516 88.7695C54.1992 89.7949 60.6934 87.8418 65.2832 83.1543L76.5137 71.9727C77.4414 71.0449 78.7598 71.582 78.7598 72.8516L78.7598 80.5664L65.2344 94.0918C63.2812 96.0449 63.3301 99.2188 65.2344 101.172C66.2109 102.148 67.4805 102.637 68.8477 102.637C70.1172 102.637 71.3867 102.148 72.3633 101.172L87.3535 86.1816C88.2812 85.2539 88.8184 83.8867 88.8184 82.6172L88.8184 60.3027C88.8184 57.0801 87.793 54.4434 85.8887 52.5879L56.2012 22.998L56.2012 37.1582L68.9941 49.9512C69.9219 50.8789 69.873 51.9043 68.9941 52.7344L55.7129 66.0645L34.1309 50.9277C33.2031 50.293 32.4707 50.0488 31.1035 50.0488L5.0293 50.0488C2.24609 50.0488 0 52.2949 0 55.0781C0 57.8125 2.24609 60.1074 5.0293 60.1074ZM58.7891 110.303C66.0156 110.303 71.5332 104.639 71.4844 97.4121L66.0645 97.4121C66.1133 101.709 62.9883 104.883 58.7891 104.883C54.6387 104.883 51.4648 102.344 51.4648 97.6074L51.4648 2.68555C51.4648 1.2207 50.2441 0 48.7793 0C47.3145 0 46.0449 1.2207 46.0449 2.68555L46.0449 97.6074C46.0449 105.469 51.6113 110.303 58.7891 110.303ZM68.75 137.695C70.3125 137.695 71.4844 136.475 71.4844 134.961L71.4844 74.9023L66.0645 74.9023L66.0645 134.961C66.0645 136.475 67.2363 137.695 68.75 137.695Z" fill="#000000" fill-opacity="0.85"/>
 </g>
</svg>
