<?xml version="1.0" encoding="UTF-8"?>
<!--Generator: Apple Native CoreSVG 232.5-->
<!DOCTYPE svg
PUBLIC "-//W3C//DTD SVG 1.1//EN"
       "http://www.w3.org/Graphics/SVG/1.1/DTD/svg11.dtd">
<svg version="1.1" xmlns="http://www.w3.org/2000/svg" xmlns:xlink="http://www.w3.org/1999/xlink" width="106.104" height="121.338">
 <g>
  <rect height="121.338" opacity="0" width="106.104" x="0" y="0"/>
  <path d="M80.127 21.9727C85.9375 21.9727 90.7715 17.1875 90.7715 11.3281C90.7715 5.46875 85.9375 0.634766 80.127 0.634766C74.2676 0.634766 69.4336 5.46875 69.4336 11.3281C69.4336 17.1875 74.2676 21.9727 80.127 21.9727ZM61.1816 90.4785C64.0137 90.4785 66.1621 88.2324 66.1621 85.498L66.1621 61.9629C66.1621 60.5957 65.7227 59.2773 64.7949 58.4473L51.8555 45.5566L63.3789 33.9844C64.1113 33.252 65.332 33.252 66.0645 33.9844L74.1211 42.0898C75 43.0176 76.3184 43.5059 77.5879 43.5059L101.123 43.5059C103.906 43.5059 106.104 41.3086 106.104 38.4766C106.104 35.7422 103.906 33.4961 101.123 33.4961L79.6387 33.4961L62.1582 15.918C59.9609 13.6719 56.7383 12.4023 53.6133 12.4023L35.2051 12.4023C30.2246 12.4023 28.7598 17.8711 31.8848 20.9961L40.0879 29.1504L33.4961 35.5957C29.3457 39.6973 29.3457 46.6797 33.4961 50.7324L42.1875 59.3262L42.1875 86.6699C42.1875 89.4043 44.3359 91.6504 47.168 91.6504C49.9023 91.6504 52.1484 89.4043 52.1484 86.6699L52.1484 60.0098L56.2012 64.0137L56.2012 85.498C56.2012 88.2324 58.4473 90.4785 61.1816 90.4785ZM2.73438 34.7168L50.0488 34.7168L50.0488 29.2969L2.73438 29.2969C1.2207 29.2969 0 30.5176 0 32.0312C0 33.4961 1.2207 34.7168 2.73438 34.7168ZM103.271 88.0859C104.736 88.0859 106.006 86.8164 106.006 85.3516L106.006 38.623L100.586 38.623L100.586 85.3516C100.586 86.8164 101.807 88.0859 103.271 88.0859ZM79.9316 121.338C81.4453 121.338 82.666 120.117 82.666 118.604C82.666 117.09 81.4453 115.918 79.9316 115.918C76.5625 115.918 75.6348 115.332 72.8027 112.549L20.8008 60.498C19.6777 59.4238 17.9688 59.4238 16.9434 60.498C15.8691 61.5234 15.8691 63.2324 16.9434 64.3066L69.7266 117.09C72.8027 120.166 76.1719 121.338 79.9316 121.338ZM92.5781 118.701C94.0918 118.701 95.2637 117.48 95.2637 115.967C95.2637 114.453 94.0918 113.281 92.5781 113.281C89.209 113.281 88.2324 112.695 85.4004 109.912L33.3984 57.9102C32.2754 56.7871 30.6152 56.7871 29.541 57.8613C28.5156 58.9355 28.5156 60.5957 29.541 61.6699L82.3242 114.453C85.4004 117.529 88.7695 118.701 92.5781 118.701Z" fill="#000000" fill-opacity="0.85"/>
 </g>
</svg>
