<?xml version="1.0" encoding="UTF-8"?>
<!--Generator: Apple Native CoreSVG 232.5-->
<!DOCTYPE svg
PUBLIC "-//W3C//DTD SVG 1.1//EN"
       "http://www.w3.org/Graphics/SVG/1.1/DTD/svg11.dtd">
<svg version="1.1" xmlns="http://www.w3.org/2000/svg" xmlns:xlink="http://www.w3.org/1999/xlink" width="115.967" height="109.912">
 <g>
  <rect height="109.912" opacity="0" width="115.967" x="0" y="0"/>
  <path d="M20.5078 18.0664L48.6816 18.0664C50.3906 18.0664 51.7578 16.6504 51.7578 14.8926C51.7578 13.1348 50.3906 11.6699 48.6816 11.6699L20.5078 11.6699C18.75 11.6699 17.4316 13.1348 17.4316 14.8926C17.4316 16.6504 18.75 18.0664 20.5078 18.0664ZM3.02734 42.5293L36.4746 42.5293C38.2324 42.5293 39.5508 41.1133 39.5508 39.3555C39.5508 37.5977 38.2324 36.1328 36.4746 36.1328L3.02734 36.1328C1.31836 36.1328 0 37.6465 0 39.3555C0 41.0645 1.31836 42.5293 3.02734 42.5293ZM17.627 66.9922L36.2305 66.9922C37.9395 66.9922 39.2578 65.5762 39.2578 63.8184C39.2578 62.0605 37.9395 60.5957 36.2305 60.5957L17.627 60.5957C15.8691 60.5957 14.5508 62.0605 14.5508 63.8184C14.5508 65.5762 15.8691 66.9922 17.627 66.9922ZM4.78516 91.1621L30.2734 91.1621C31.9824 91.1621 33.3008 89.7461 33.3008 87.9883C33.3008 86.2305 31.9824 84.7656 30.2734 84.7656L4.78516 84.7656C3.07617 84.7656 1.75781 86.2305 1.75781 87.9883C1.75781 89.7461 3.07617 91.1621 4.78516 91.1621Z" fill="#000000" fill-opacity="0.85"/>
  <path d="M58.3984 105.371L73.0469 87.8906C74.5117 86.1816 74.707 85.791 75.293 83.9844L76.3672 80.6641L68.5059 70.8008L66.1133 81.8359L51.6602 99.0234C47.0703 104.541 54.5898 109.912 58.3984 105.371ZM94.0918 103.906C97.1191 110.01 106.152 106.25 102.881 99.6094L92.9199 79.4434C92.1387 77.9297 91.0645 76.2695 90.1367 74.9512L83.8379 66.0156L84.2773 64.6973C85.9375 59.6191 86.6211 56.5918 86.9629 51.5625L87.9395 37.4512C88.4277 30.7617 84.4727 25.6836 77.6367 25.6836C72.4609 25.6836 68.9941 28.2715 64.209 32.9102L56.7871 40.2832C54.3457 42.6758 53.5645 44.6289 53.3203 47.8027L52.3926 59.3262C52.1484 62.2559 53.7598 64.3066 56.4941 64.4043C59.2285 64.5996 60.8887 62.9883 61.1328 59.8633L62.207 47.2168L65.7715 43.9941C67.0898 42.8223 68.7988 43.6035 68.7012 44.9219L67.9199 55.6152C67.4805 61.0352 68.75 63.623 72.4609 68.2617L82.373 80.6641C83.3496 81.9336 83.4961 82.4219 83.8867 83.2031ZM111.084 44.7266L99.8535 44.7266L92.7246 36.8652L91.8945 48.6328L94.7266 51.4648C96.2891 53.0273 97.7051 53.5156 100.586 53.5156L111.084 53.5156C114.062 53.5156 115.967 51.8555 115.967 49.1211C115.967 46.4844 114.014 44.7266 111.084 44.7266ZM83.0566 21.2891C88.9648 21.2891 93.7012 16.5039 93.7012 10.6445C93.7012 4.73633 88.9648 0 83.0566 0C77.1484 0 72.4121 4.73633 72.4121 10.6445C72.4121 16.5039 77.1484 21.2891 83.0566 21.2891Z" fill="#000000" fill-opacity="0.85"/>
 </g>
</svg>
