<?xml version="1.0" encoding="UTF-8"?>
<!--Generator: Apple Native CoreSVG 232.5-->
<!DOCTYPE svg
PUBLIC "-//W3C//DTD SVG 1.1//EN"
       "http://www.w3.org/Graphics/SVG/1.1/DTD/svg11.dtd">
<svg version="1.1" xmlns="http://www.w3.org/2000/svg" xmlns:xlink="http://www.w3.org/1999/xlink" width="115.576" height="83.1543">
 <g>
  <rect height="83.1543" opacity="0" width="115.576" x="0" y="0"/>
  <path d="M57.4219 21.3867C63.3301 21.3867 68.1152 16.6016 68.1152 10.6934C68.1152 4.78516 63.3301 0 57.4219 0C51.5137 0 46.7773 4.78516 46.7773 10.6934C46.7773 16.6016 51.5137 21.3867 57.4219 21.3867ZM5.0293 14.0625L40.918 33.3008C42.0898 33.9355 42.7734 35.1562 42.3828 36.4746L38.916 49.1211C47.998 50.9766 51.0742 56.543 57.7637 56.543C59.6191 56.543 61.1816 56.0547 62.6953 55.3223L67.4316 37.8418C67.9199 36.0352 68.4082 35.0586 70.2637 34.1309L107.861 14.0625C110.547 12.5977 111.572 9.22852 110.205 6.54297C108.643 3.85742 105.371 2.7832 102.637 4.24805L65.332 24.0234C59.4727 27.1484 53.9062 27.5391 46.875 23.7793L10.2539 4.24805C7.51953 2.7832 4.15039 3.85742 2.73438 6.54297C1.26953 9.22852 2.34375 12.5977 5.0293 14.0625ZM2.73438 69.4336L7.66602 69.4336C20.7031 69.4336 23.6816 61.377 32.7148 61.377C41.748 61.377 44.7266 69.4336 57.7637 69.4336C70.8496 69.4336 73.7793 61.377 82.8613 61.377C91.8945 61.377 94.8242 69.4336 107.91 69.4336L112.842 69.4336C114.355 69.4336 115.576 68.2617 115.576 66.748C115.576 65.2344 114.355 64.0137 112.842 64.0137L107.91 64.0137C98.5352 64.0137 95.3613 55.957 82.8613 55.957C70.3125 55.957 67.1387 64.0137 57.7637 64.0137C48.3887 64.0137 45.2637 55.957 32.7148 55.957C20.2148 55.957 17.041 64.0137 7.66602 64.0137L2.73438 64.0137C1.17188 64.0137 0 65.2344 0 66.748C0 68.2617 1.17188 69.4336 2.73438 69.4336ZM4.00391 83.0078C5.61523 83.0078 6.88477 81.7383 6.88477 80.127C6.88477 78.5645 5.61523 77.2949 4.00391 77.2949C2.44141 77.2949 1.17188 78.5645 1.17188 80.127C1.17188 81.7383 2.44141 83.0078 4.00391 83.0078ZM13.1836 81.3477C14.7461 81.3477 16.0156 80.0781 16.0156 78.5156C16.0156 76.9043 14.7461 75.6348 13.1836 75.6348C11.5723 75.6348 10.3027 76.9043 10.3027 78.5156C10.3027 80.0781 11.5723 81.3477 13.1836 81.3477ZM21.7285 77.2949C23.3398 77.2949 24.6094 76.0742 24.6094 74.4629C24.6094 72.8516 23.3398 71.6309 21.7285 71.6309C20.166 71.6309 18.8965 72.8516 18.8965 74.4629C18.8965 76.0742 20.166 77.2949 21.7285 77.2949ZM30.957 75.1465C32.5684 75.1465 33.8379 73.877 33.8379 72.2656C33.8379 70.7031 32.5684 69.4336 30.957 69.4336C29.3945 69.4336 28.125 70.7031 28.125 72.2656C28.125 73.877 29.3945 75.1465 30.957 75.1465ZM40.1855 77.2949C41.7969 77.2949 43.0176 76.0742 43.0176 74.4629C43.0176 72.8516 41.7969 71.6309 40.1855 71.6309C38.5742 71.6309 37.3535 72.8516 37.3535 74.4629C37.3535 76.0742 38.5742 77.2949 40.1855 77.2949ZM48.8281 81.3477C50.4395 81.3477 51.709 80.0781 51.709 78.5156C51.709 76.9043 50.4395 75.6348 48.8281 75.6348C47.2656 75.6348 45.9961 76.9043 45.9961 78.5156C45.9961 80.0781 47.2656 81.3477 48.8281 81.3477ZM57.8613 83.0078C59.4238 83.0078 60.6934 81.7383 60.6934 80.127C60.6934 78.5645 59.4238 77.2949 57.8613 77.2949C56.25 77.2949 54.9805 78.5645 54.9805 80.127C54.9805 81.7383 56.25 83.0078 57.8613 83.0078ZM66.8457 81.3477C68.457 81.3477 69.6777 80.0781 69.6777 78.5156C69.6777 76.9043 68.457 75.6348 66.8457 75.6348C65.2344 75.6348 64.0137 76.9043 64.0137 78.5156C64.0137 80.0781 65.2344 81.3477 66.8457 81.3477ZM75.4883 77.2949C77.0996 77.2949 78.3691 76.0742 78.3691 74.4629C78.3691 72.8516 77.0996 71.6309 75.4883 71.6309C73.9258 71.6309 72.6562 72.8516 72.6562 74.4629C72.6562 76.0742 73.9258 77.2949 75.4883 77.2949ZM84.7168 75.1465C86.3281 75.1465 87.5488 73.877 87.5488 72.2656C87.5488 70.7031 86.3281 69.4336 84.7168 69.4336C83.1055 69.4336 81.8848 70.7031 81.8848 72.2656C81.8848 73.877 83.1055 75.1465 84.7168 75.1465ZM93.9453 77.2949C95.5566 77.2949 96.7773 76.0742 96.7773 74.4629C96.7773 72.8516 95.5566 71.6309 93.9453 71.6309C92.334 71.6309 91.1133 72.8516 91.1133 74.4629C91.1133 76.0742 92.334 77.2949 93.9453 77.2949ZM102.539 81.3477C104.15 81.3477 105.371 80.0781 105.371 78.5156C105.371 76.9043 104.15 75.6348 102.539 75.6348C100.928 75.6348 99.707 76.9043 99.707 78.5156C99.707 80.0781 100.928 81.3477 102.539 81.3477ZM111.621 83.0078C113.232 83.0078 114.502 81.7383 114.502 80.127C114.502 78.5645 113.232 77.2949 111.621 77.2949C110.059 77.2949 108.789 78.5645 108.789 80.127C108.789 81.7383 110.059 83.0078 111.621 83.0078Z" fill="#000000" fill-opacity="0.85"/>
 </g>
</svg>
