<?xml version="1.0" encoding="UTF-8"?>
<!--Generator: Apple Native CoreSVG 232.5-->
<!DOCTYPE svg
PUBLIC "-//W3C//DTD SVG 1.1//EN"
       "http://www.w3.org/Graphics/SVG/1.1/DTD/svg11.dtd">
<svg version="1.1" xmlns="http://www.w3.org/2000/svg" xmlns:xlink="http://www.w3.org/1999/xlink" width="111.084" height="107.08">
 <g>
  <rect height="107.08" opacity="0" width="111.084" x="0" y="0"/>
  <path d="M61.7676 21.3379C67.627 21.3379 72.4121 16.5039 72.4121 10.6445C72.4121 4.78516 67.627 0 61.7676 0C55.9082 0 51.0742 4.78516 51.0742 10.6445C51.0742 16.5039 55.9082 21.3379 61.7676 21.3379ZM75.4883 105.957C77.5879 105.127 79.1992 102.979 78.3691 100L70.9961 74.2676C70.6055 73.0469 69.9219 72.0703 68.75 71.3867L53.3691 62.3535L60.6934 40.625C61.2305 38.9648 62.9883 38.7695 64.209 39.9902L75.0977 50.8301C76.0742 51.7578 77.2461 52.2949 78.5156 52.2949C79.834 52.2949 81.0547 51.8555 82.0312 50.8301L96.7285 36.084C98.584 34.1309 98.7305 31.1523 96.7285 29.1992C94.8242 27.2949 91.748 27.2461 89.7949 29.1992L78.5156 40.4785L69.0918 30.7129C64.7461 26.2207 60.1074 25.293 51.0742 25.293L4.93164 25.293C2.24609 25.293 0 27.4902 0 30.2246C0 32.9102 2.24609 35.1074 4.93164 35.1074L39.209 35.1074C40.625 35.1074 41.9434 36.2793 41.2598 38.2324L35.5469 55.3711C33.5449 61.4258 36.377 67.9199 42.2363 70.459L62.1094 79.1992L68.9453 102.539C69.9219 106.006 73.0469 106.836 75.4883 105.957ZM13.1836 104.248C14.4531 106.104 16.9434 107.08 19.6777 105.615L41.6016 93.457C42.6758 92.8711 43.457 91.8945 43.8965 90.625L48.0957 78.1738L40.3809 74.8047C39.4531 74.3652 38.5742 73.9258 37.6953 73.3398L35.0098 85.8398L14.9414 97.0703C11.8164 98.877 11.7188 102.148 13.1836 104.248ZM80.957 63.2812L111.084 63.2812L111.084 57.8613L80.957 57.8613C79.4434 57.8613 78.2715 59.0332 78.2715 60.5469C78.2715 62.0605 79.4434 63.2812 80.957 63.2812ZM6.73828 27.1973L11.6699 27.1973L11.6699 20.3125L6.73828 20.3125ZM9.22852 1.70898C4.10156 1.70898 0 5.81055 0 10.9863C0 15.6738 4.10156 21.2891 9.22852 22.4609C14.3555 21.2891 18.4082 15.6738 18.4082 10.9863C18.4082 5.81055 14.3555 1.70898 9.22852 1.70898Z" fill="#000000" fill-opacity="0.85"/>
 </g>
</svg>
