<?xml version="1.0" encoding="UTF-8"?>
<!--Generator: Apple Native CoreSVG 232.5-->
<!DOCTYPE svg
PUBLIC "-//W3C//DTD SVG 1.1//EN"
       "http://www.w3.org/Graphics/SVG/1.1/DTD/svg11.dtd">
<svg version="1.1" xmlns="http://www.w3.org/2000/svg" xmlns:xlink="http://www.w3.org/1999/xlink" width="107.053" height="117.041">
 <g>
  <rect height="117.041" opacity="0" width="107.053" x="0" y="0"/>
  <path d="M72.6674 21.2402C78.5756 21.2402 83.3119 16.5039 83.3119 10.6445C83.3119 4.73633 78.5756 0 72.6674 0C66.7592 0 62.0228 4.73633 62.0228 10.6445C62.0228 16.5039 66.7592 21.2402 72.6674 21.2402ZM19.7377 71.875L47.8627 71.875L73.8392 75.5371C83.556 76.9043 90.5873 72.6562 90.5873 63.3789L90.5873 45.8008C90.5873 44.9219 91.515 44.5801 92.1009 45.166L96.9349 50.0488L96.9349 66.748C96.9349 69.5801 99.3275 71.875 102.013 71.875C104.796 71.875 107.042 69.5801 107.042 66.748L107.042 47.9004C107.042 46.582 106.554 45.2637 105.529 44.2871L93.224 32.0312C89.5619 28.4668 84.8744 26.3672 79.6498 26.3672L31.4564 26.3672C28.722 26.3672 26.3783 28.7109 26.3783 31.4453C26.3783 34.2773 28.6244 36.5234 31.4564 36.5234L68.517 36.5234C69.9818 36.5234 71.056 37.6465 71.056 39.0625L71.056 61.7188L19.7377 61.7188C16.8568 61.7188 14.6107 63.9648 14.6107 66.748C14.6107 69.5801 16.9545 71.875 19.7377 71.875ZM82.0424 115.088C83.9955 117.041 87.1693 117.041 89.1224 115.088C91.1244 113.135 91.0756 109.961 89.1224 107.959L72.9603 91.6016L78.722 80.4199C77.0131 80.5664 75.1088 80.4199 73.1556 80.1758L66.1732 79.1992L61.9252 90.918C61.2416 92.7246 61.681 94.7266 63.1459 96.1914ZM4.99157 50.293C11.3392 56.5918 18.4681 55.9082 21.1537 53.2715C23.7416 50.5371 23.9369 43.9453 17.6869 37.5977C11.2416 31.2012 4.60095 31.3965 1.9154 34.1309C-0.770146 36.8164-1.35608 43.8477 4.99157 50.293Z" fill="#000000" fill-opacity="0.85"/>
 </g>
</svg>
