<?xml version="1.0" encoding="UTF-8"?>
<!--Generator: Apple Native CoreSVG 232.5-->
<!DOCTYPE svg
PUBLIC "-//W3C//DTD SVG 1.1//EN"
       "http://www.w3.org/Graphics/SVG/1.1/DTD/svg11.dtd">
<svg version="1.1" xmlns="http://www.w3.org/2000/svg" xmlns:xlink="http://www.w3.org/1999/xlink" width="123.828" height="96.2402">
 <g>
  <rect height="96.2402" opacity="0" width="123.828" x="0" y="0"/>
  <path d="M82.4219 21.3379C88.3301 21.3379 93.1152 16.5527 93.1152 10.6445C93.1152 4.73633 88.3301 0 82.4219 0C76.5137 0 71.7773 4.73633 71.7773 10.6445C71.7773 16.5527 76.5137 21.3379 82.4219 21.3379ZM48.1445 95.6543C50.3418 96.4355 53.0762 95.8984 54.4922 93.0176L66.9922 68.0176C67.9688 66.1133 67.7246 63.8672 66.0645 62.2559L50.9766 47.1191L70.0684 37.5977C70.9473 37.1094 71.9727 37.3535 72.6562 38.0371L84.0332 49.3164C84.9121 50.1953 86.1816 50.7812 87.5 50.7812L110.059 50.7812C112.793 50.7812 115.039 48.584 115.039 45.752C115.039 43.0176 112.793 40.7715 110.059 40.7715L89.5508 40.7715L68.5059 19.6777C66.0156 17.1875 62.5977 15.7715 59.0332 15.7715L17.4805 15.7715C14.7461 15.7715 12.5 18.0176 12.5 20.752C12.5 23.5352 14.7461 25.7812 17.4805 25.7812L48.8281 25.7812C49.3652 25.7812 49.5605 26.6113 49.0723 26.8555L39.7461 31.4941C34.8145 33.9355 32.3242 38.5742 32.3242 43.2617C32.3242 47.3145 34.1309 51.3184 37.8418 54.0039L56.1523 67.334L45.5566 88.5742C43.8965 91.9434 45.6543 94.6777 48.1445 95.6543ZM4.98047 75.7812L29.9805 75.7812C31.9336 75.7812 33.6426 74.6582 34.5215 73.0469L40.1855 61.5723L35.1074 57.8125C33.3008 56.4941 31.7383 54.8828 30.5664 53.2227L26.4648 65.7715L4.98047 65.7715C2.24609 65.7715 0 68.0176 0 70.752C0 73.4863 2.24609 75.7812 4.98047 75.7812ZM112.402 2.49023C105.762 2.49023 100.977 7.22656 100.977 13.8672C100.977 23.3887 109.521 34.2773 110.4 35.2051L114.355 35.2051C115.283 34.2773 123.828 23.3887 123.828 13.8672C123.828 7.22656 119.043 2.49023 112.402 2.49023ZM112.402 7.91016C115.918 7.91016 118.408 10.4492 118.408 13.8672C118.408 18.6035 114.795 24.9512 112.402 28.8086C110.01 24.9512 106.396 18.6035 106.396 13.8672C106.396 10.4492 108.887 7.91016 112.402 7.91016ZM109.668 45.752L115.039 45.752L115.039 33.252L109.668 33.252Z" fill="#000000" fill-opacity="0.85"/>
 </g>
</svg>
