<?xml version="1.0" encoding="UTF-8"?>
<!--Generator: Apple Native CoreSVG 232.5-->
<!DOCTYPE svg
PUBLIC "-//W3C//DTD SVG 1.1//EN"
       "http://www.w3.org/Graphics/SVG/1.1/DTD/svg11.dtd">
<svg version="1.1" xmlns="http://www.w3.org/2000/svg" xmlns:xlink="http://www.w3.org/1999/xlink" width="97.0831" height="112.256">
 <g>
  <rect height="112.256" opacity="0" width="97.0831" x="0" y="0"/>
  <path d="M63.483 21.3379C69.3912 21.3379 74.1275 16.6016 74.1275 10.6934C74.1275 4.78516 69.3912 0 63.483 0C57.5259 0 52.7896 4.78516 52.7896 10.6934C52.7896 16.6016 57.5259 21.3379 63.483 21.3379ZM14.5572 56.7871C17.5357 58.1543 20.2213 56.8359 21.3931 54.4922L30.3287 36.6699L41.022 36.6699C42.1451 36.6699 42.9263 37.7441 42.3404 38.7695L32.9654 57.373C29.4986 64.2578 33.7467 72.9004 42.8287 72.3633L68.0728 70.8008L58.7467 91.5039C57.5748 94.1406 58.6978 97.3633 61.3345 98.3398C64.2642 99.4629 66.8033 98.584 68.0728 95.752L81.0611 67.2363C82.4771 64.1602 80.4752 59.9121 76.5201 59.9121L53.6197 59.9121L63.7759 39.6484C64.1666 38.7695 65.2408 38.5254 65.9244 39.2578L77.8873 50.6836C80.2799 52.9785 84.5279 52.5879 86.1881 49.3164L96.4908 28.6133C97.7603 26.0254 96.9791 22.9004 94.2447 21.6309C91.6568 20.4102 88.5806 21.4844 87.3111 24.0234L80.0845 38.2812L74.2252 32.373C70.2701 28.418 66.0709 26.3672 59.6256 26.3672L27.1549 26.3672C25.2017 26.3672 23.4439 27.4902 22.6138 29.1992L12.1646 49.9512C10.8951 52.4902 11.8717 55.4688 14.5572 56.7871ZM0.543525 106.934C2.15485 110.303 5.71931 110.352 7.37946 109.619L33.1607 98.3887C34.2349 97.9004 35.1627 97.0703 35.6998 95.9473L45.1236 76.9531L43.1217 77.0996C39.0201 77.3438 35.4556 76.1719 32.8189 74.1699L27.0084 89.7461L3.22907 100C0.543525 101.172-0.823662 104.199 0.543525 106.934ZM85.7486 111.768C91.7545 111.768 96.4908 107.08 96.4908 101.074C96.4908 95.166 91.7545 90.4297 85.7486 90.4297C79.8404 90.4297 75.1529 95.166 75.1529 101.074C75.1529 107.08 79.8404 111.768 85.7486 111.768Z" fill="#000000" fill-opacity="0.85"/>
 </g>
</svg>
