<?xml version="1.0" encoding="UTF-8"?>
<!--Generator: Apple Native CoreSVG 232.5-->
<!DOCTYPE svg
PUBLIC "-//W3C//DTD SVG 1.1//EN"
       "http://www.w3.org/Graphics/SVG/1.1/DTD/svg11.dtd">
<svg version="1.1" xmlns="http://www.w3.org/2000/svg" xmlns:xlink="http://www.w3.org/1999/xlink" width="99.0113" height="112.354">
 <g>
  <rect height="112.354" opacity="0" width="99.0113" x="0" y="0"/>
  <path d="M78.1922 21.2891C84.0516 21.2891 88.7879 16.5527 88.7879 10.5957C88.7879 4.73633 84.0516 0 78.1922 0C72.2352 0 67.4988 4.73633 67.4988 10.5957C67.4988 16.5527 72.2352 21.2891 78.1922 21.2891ZM40.4481 62.4512L65.3016 81.3965L57.5867 105.225C56.4637 108.643 58.6121 111.084 61.2 111.719C63.4949 112.256 66.1805 111.279 67.2059 108.057L75.8484 81.3477C76.4832 79.3945 76.1414 77.2949 74.7742 75.9766L58.075 59.2773L77.2645 40.0391C78.0945 39.209 79.3641 39.209 80.1941 40.0391L86.8348 46.6309L77.7527 55.7129C75.7508 57.7637 75.7996 60.9375 77.7527 62.8906C79.6082 64.6973 82.8797 64.8926 84.8816 62.8906L97.5281 50.2441C99.5301 48.2422 99.4813 45.1172 97.5281 43.1152L85.3211 30.8105C82.3914 27.8809 78.8758 26.416 74.6766 26.416L16.034 26.416C13.2996 26.416 11.0047 28.6621 11.0047 31.4453C11.0047 34.2285 13.2996 36.5234 16.034 36.5234L49.7254 36.5234C51.4344 36.5234 52.2156 38.2812 50.9949 39.502L41.2293 49.2676C36.8348 53.6621 37.4695 60.2051 40.4481 62.4512ZM38.9832 67.2363L36.5418 82.0801L13.1531 82.0801C10.2723 82.0801 8.02618 84.3262 8.02618 87.1582C8.02618 89.9414 10.2723 92.1875 13.1531 92.1875L40.5945 92.1875C43.2313 92.1875 44.9891 90.8691 45.6727 88.5254L49.6277 75.3906ZM11.0047 53.418C17.0106 53.418 21.991 48.4863 21.991 42.4316C21.991 36.4258 17.0106 31.4453 11.0047 31.4453C4.95001 31.4453 0.0183671 36.4258 0.0183671 42.4316C0.0183671 48.4863 4.95001 53.418 11.0047 53.418Z" fill="#000000" fill-opacity="0.85"/>
 </g>
</svg>
