<?xml version="1.0" encoding="UTF-8"?>
<!--Generator: Apple Native CoreSVG 232.5-->
<!DOCTYPE svg
PUBLIC "-//W3C//DTD SVG 1.1//EN"
       "http://www.w3.org/Graphics/SVG/1.1/DTD/svg11.dtd">
<svg version="1.1" xmlns="http://www.w3.org/2000/svg" xmlns:xlink="http://www.w3.org/1999/xlink" width="92.8223" height="121.924">
 <g>
  <rect height="121.924" opacity="0" width="92.8223" x="0" y="0"/>
  <path d="M65.8203 21.3379C71.7285 21.3379 76.5137 16.5527 76.5137 10.6445C76.5137 4.73633 71.7285 0 65.8203 0C59.9121 0 55.1758 4.73633 55.1758 10.6445C55.1758 16.5527 59.9121 21.3379 65.8203 21.3379ZM31.9824 59.9609L50.1953 78.2715L50.1953 106.934L60.2051 106.934L60.2051 76.8066C60.2051 75.3418 59.8633 73.9746 58.8867 72.7051L46.6309 57.1289L57.0801 41.1133C57.7637 40.0879 59.2285 40.0879 59.7656 41.2598L63.2324 48.2422C64.1113 49.9023 65.8203 51.0254 67.7246 51.0254L87.8418 51.0254C90.5762 51.0254 92.8223 48.7793 92.8223 45.9961C92.8223 43.2617 90.5762 41.0156 87.8418 41.0156L70.8008 41.0156L65.5273 30.3223C63.4277 26.123 59.1309 23.4375 54.3457 23.4375L27.5879 23.4375C25.9277 23.4375 24.3164 24.2676 23.3887 25.6836L13.3789 40.7715C11.8652 43.0176 12.5 46.1426 14.7949 47.6562C17.041 49.2188 20.166 48.584 21.7285 46.2402L30.2734 33.4473L38.5254 33.4473C39.1602 33.4473 39.5508 34.0332 39.1602 34.668L30.7129 47.3633C28.0762 51.2695 28.6133 56.5918 31.9824 59.9609ZM1.75781 67.334L21.4355 84.5703C24.5605 87.3535 28.0273 85.8887 29.541 83.4961L37.1094 71.8262L28.8086 63.5254C28.7109 63.3789 28.6133 63.2812 28.4668 63.1348L23.5352 73.0469L8.30078 59.7656C6.25 58.0078 3.07617 58.1543 1.26953 60.2539C-0.585938 62.3535-0.390625 65.5273 1.75781 67.334ZM26.6113 110.693L60.6934 110.693C66.1133 110.693 70.5566 109.57 74.0234 106.592C75.4395 105.42 75.3906 103.906 74.707 102.881C73.9258 101.709 72.168 101.123 70.5566 102.344C67.9688 104.395 65.2344 105.273 60.6934 105.273L26.6113 105.273C22.0215 105.273 19.3359 104.395 16.6992 102.344C15.2344 101.221 13.6719 101.611 12.8418 102.588C11.8652 103.613 11.7188 105.273 13.2324 106.592C16.6992 109.57 21.1426 110.693 26.6113 110.693ZM26.6113 121.924C28.9062 121.924 30.8594 120.02 30.8594 117.725C30.8594 115.43 28.9062 113.477 26.6113 113.477C24.3164 113.477 22.3633 115.43 22.3633 117.725C22.3633 120.02 24.3164 121.924 26.6113 121.924ZM60.6934 121.924C62.9883 121.924 64.8926 120.02 64.8926 117.725C64.8926 115.43 62.9883 113.477 60.6934 113.477C58.3984 113.477 56.4453 115.43 56.4453 117.725C56.4453 120.02 58.3984 121.924 60.6934 121.924Z" fill="#000000" fill-opacity="0.85"/>
 </g>
</svg>
