<?xml version="1.0" encoding="UTF-8"?>
<!--Generator: Apple Native CoreSVG 232.5-->
<!DOCTYPE svg
PUBLIC "-//W3C//DTD SVG 1.1//EN"
       "http://www.w3.org/Graphics/SVG/1.1/DTD/svg11.dtd">
<svg version="1.1" xmlns="http://www.w3.org/2000/svg" xmlns:xlink="http://www.w3.org/1999/xlink" width="91.5527" height="117.139">
 <g>
  <rect height="117.139" opacity="0" width="91.5527" x="0" y="0"/>
  <path d="M34.6191 42.6758C40.5273 42.6758 45.3125 37.8906 45.3125 31.9824C45.3125 26.0742 40.5273 21.3379 34.6191 21.3379C28.7109 21.3379 23.9746 26.0742 23.9746 31.9824C23.9746 37.8906 28.7109 42.6758 34.6191 42.6758ZM8.64258 106.836L37.9883 114.209C42.1387 115.234 44.9219 112.207 44.3848 108.35L41.6504 89.6484L64.8926 89.6484L83.0566 108.057C84.9609 109.961 88.1348 109.961 90.0391 108.057C92.0898 106.152 91.9922 102.93 90.0391 100.977L70.8496 81.6895C69.5312 80.3711 68.9941 79.9805 66.7969 79.7363L45.752 77.6367L40.4297 61.5723C40.0391 60.4492 40.918 59.3262 42.1387 59.5703L80.6152 67.2363C83.1055 67.7246 85.8887 66.4062 86.377 63.4277C86.8164 60.7422 85.2539 58.1543 82.5684 57.6172L29.3945 47.0215C24.707 46.0938 22.2168 45.4102 20.1172 43.3594L9.86328 33.2031L9.86328 10.498C9.86328 7.76367 7.66602 5.56641 4.98047 5.56641C2.14844 5.56641 0 7.76367 0 10.498L0 34.4238C0 36.4746 0.244141 37.6465 1.70898 39.1113L13.1348 50.4883C15.4785 52.8809 15.7715 53.7109 16.6016 56.1035L32.0312 102.49L11.0352 97.2168C8.39844 96.5332 5.71289 98.1934 5.12695 100.879C4.54102 103.467 6.05469 106.152 8.64258 106.836ZM19.1406 12.207C22.4609 12.207 25.2441 9.52148 25.2441 6.10352C25.2441 2.73438 22.4609 0 19.1406 0C15.6738 0 13.0859 2.73438 13.0859 6.10352C13.0859 9.52148 15.6738 12.207 19.1406 12.207Z" fill="#000000" fill-opacity="0.85"/>
 </g>
</svg>
