<?xml version="1.0" encoding="UTF-8"?>
<!--Generator: Apple Native CoreSVG 232.5-->
<!DOCTYPE svg
PUBLIC "-//W3C//DTD SVG 1.1//EN"
       "http://www.w3.org/Graphics/SVG/1.1/DTD/svg11.dtd">
<svg version="1.1" xmlns="http://www.w3.org/2000/svg" xmlns:xlink="http://www.w3.org/1999/xlink" width="91.4062" height="87.3535">
 <g>
  <rect height="87.3535" opacity="0" width="91.4062" x="0" y="0"/>
  <path d="M30.127 21.3379C36.084 21.3379 40.8203 16.5527 40.8203 10.6445C40.8203 4.73633 36.084 0 30.127 0C24.2188 0 19.4824 4.73633 19.4824 10.6445C19.4824 16.5527 24.2188 21.3379 30.127 21.3379ZM4.29688 58.4473C2.14844 66.5039 7.27539 71.6309 13.5742 71.6309C15.5762 71.6309 17.6758 71.1426 19.7266 70.0195L46.2402 55.9082L75.5859 70.6055C79.1504 72.3633 82.0312 70.9473 83.1543 68.6523C84.2285 66.4062 83.5449 63.3301 80.127 61.6211L49.4141 46.1914C47.4121 45.166 45.2148 45.0684 43.1152 45.9961L23.291 54.5898L27.2949 40.625C28.0273 38.2324 30.2246 36.4746 32.7637 36.4746L72.2656 36.4746C75.0488 36.4746 77.2949 34.2285 77.2949 31.4453C77.2949 28.7109 75.0488 26.416 72.2656 26.416L29.1016 26.416C19.3359 26.416 11.377 32.0312 9.13086 40.4785ZM2.73438 87.2559L88.6719 87.2559C90.1855 87.2559 91.4062 86.084 91.4062 84.5703C91.4062 83.0566 90.1855 81.8359 88.6719 81.8359L2.73438 81.8359C1.17188 81.8359 0 83.0566 0 84.5703C0 86.084 1.17188 87.2559 2.73438 87.2559Z" fill="#000000" fill-opacity="0.85"/>
 </g>
</svg>
