<?xml version="1.0" encoding="UTF-8"?>
<!--Generator: Apple Native CoreSVG 232.5-->
<!DOCTYPE svg
PUBLIC "-//W3C//DTD SVG 1.1//EN"
       "http://www.w3.org/Graphics/SVG/1.1/DTD/svg11.dtd">
<svg version="1.1" xmlns="http://www.w3.org/2000/svg" xmlns:xlink="http://www.w3.org/1999/xlink" width="133.457" height="83.252">
 <g>
  <rect height="83.252" opacity="0" width="133.457" x="0" y="0"/>
  <path d="M10.7225 60.791C16.5819 60.791 21.367 56.0547 21.367 50.1465C21.367 44.2383 16.5819 39.4531 10.7225 39.4531C4.8143 39.4531 0.029147 44.2383 0.029147 50.1465C0.029147 56.0547 4.8143 60.791 10.7225 60.791ZM22.3436 64.209C20.4393 69.0918 22.2948 74.1211 26.3475 76.9531C32.9393 81.543 39.0916 83.252 48.9061 83.252L64.4823 83.252C76.494 83.252 79.7166 73.8281 75.6151 65.918L63.0663 41.6992L63.0663 5.07812C63.0663 2.19727 60.8202 0 57.8905 0C55.0584 0 52.91 2.19727 52.91 5.07812L52.91 42.9199C52.91 43.6035 52.9588 44.1406 53.1053 44.6289L60.1854 64.8926L51.0057 64.8926C45.0975 64.8926 41.6795 63.2324 37.0409 60.4492C35.8202 59.7168 35.4784 58.5938 36.0155 57.1777L47.3924 28.0762C48.4178 25.4883 47.0995 22.4609 44.4627 21.4844C41.7284 20.459 38.8963 21.7285 37.8709 24.4141ZM82.3045 75.3418L100.371 69.4336L129.228 64.209C132.012 63.7207 133.867 61.1816 133.379 58.3008C132.842 55.5176 130.205 53.7109 127.422 54.1992L97.2459 59.668L79.8143 62.8418L80.2049 63.5254C82.5487 67.4316 82.9393 71.7285 82.3045 75.3418Z" fill="#000000" fill-opacity="0.85"/>
 </g>
</svg>
