<?xml version="1.0" encoding="UTF-8"?>
<!--Generator: Apple Native CoreSVG 232.5-->
<!DOCTYPE svg
PUBLIC "-//W3C//DTD SVG 1.1//EN"
       "http://www.w3.org/Graphics/SVG/1.1/DTD/svg11.dtd">
<svg version="1.1" xmlns="http://www.w3.org/2000/svg" xmlns:xlink="http://www.w3.org/1999/xlink" width="121.973" height="89.7949">
 <g>
  <rect height="89.7949" opacity="0" width="121.973" x="0" y="0"/>
  <path d="M72.2656 21.2402C78.125 21.2402 82.9102 16.4551 82.9102 10.5957C82.9102 4.78516 78.125 0 72.2656 0C66.4062 0 61.6211 4.78516 61.6211 10.5957C61.6211 16.4551 66.4062 21.2402 72.2656 21.2402ZM54.8828 81.543C53.6621 88.1348 63.5254 89.6973 64.7461 83.0078L69.7754 55.5664C70.2637 53.0273 68.6035 50.2441 65.6738 49.8535L49.1699 47.5098L59.375 37.3047C60.3516 36.2793 61.8164 36.2793 62.793 37.3047L91.2598 65.7715C93.1641 67.627 96.3379 67.8223 98.291 65.7715C100.195 63.7207 100.244 60.6934 98.291 58.7402L60.5469 20.9961C58.252 18.7012 55.127 17.334 51.7578 17.334L29.9316 17.334C28.6133 17.334 27.3438 17.8711 26.416 18.7988L11.4746 33.7891C9.52148 35.7422 9.52148 38.8672 11.4746 40.8203C13.4277 42.7734 16.5039 42.7734 18.457 40.8203L32.0312 27.2949L40.7715 27.2949C41.6992 27.2949 42.0898 28.125 41.4551 28.7598L27.9785 42.1875C21.5332 48.6816 24.9512 59.7168 35.2539 59.7168L58.8379 59.7168ZM26.6113 62.1094L25.293 77.1973L4.98047 77.1973C2.24609 77.1973 0 79.4434 0 82.1777C0 84.9121 2.24609 87.1582 4.98047 87.1582L29.9316 87.1582C32.4219 87.1582 34.4238 85.2539 34.8633 82.7637L38.1836 64.4531L35.2539 64.4531C31.8359 64.4531 28.9062 63.5742 26.6113 62.1094ZM100.977 87.1582L115.918 87.1582C119.287 87.1582 121.973 84.4238 121.973 81.0547C121.973 77.7344 119.287 75 115.918 75L100.977 75C97.5586 75 94.8242 77.7344 94.8242 81.0547C94.8242 84.4238 97.5586 87.1582 100.977 87.1582ZM111.182 78.0762L115.674 78.0762L115.674 73.2422C115.674 69.1895 112.598 66.0645 108.594 66.0645L103.467 66.0645C102.197 66.0645 101.172 67.0898 101.172 68.3594C101.172 69.6289 102.197 70.6055 103.467 70.6055L108.594 70.6055C110.107 70.6055 111.182 71.7285 111.182 73.2422Z" fill="#000000" fill-opacity="0.85"/>
 </g>
</svg>
