<?xml version="1.0" encoding="UTF-8"?>
<!--Generator: Apple Native CoreSVG 232.5-->
<!DOCTYPE svg
PUBLIC "-//W3C//DTD SVG 1.1//EN"
       "http://www.w3.org/Graphics/SVG/1.1/DTD/svg11.dtd">
<svg version="1.1" xmlns="http://www.w3.org/2000/svg" xmlns:xlink="http://www.w3.org/1999/xlink" width="81.2139" height="120.264">
 <g>
  <rect height="120.264" opacity="0" width="81.2139" x="0" y="0"/>
  <path d="M40.5825 26.5137C47.9556 26.5137 53.815 20.459 53.815 13.3301C53.815 6.00586 47.9556 0 40.5825 0C33.2095 0 27.4478 6.00586 27.4478 13.3301C27.4478 20.6055 33.2095 26.5137 40.5825 26.5137ZM15.1431 75.9277L53.0337 33.9355C49.3228 32.5684 45.2212 31.9336 40.5825 31.9336C23.5415 31.9336 13.4341 40.1855 13.4341 53.9551C13.4341 57.2266 13.6294 61.6699 14.1177 66.2598ZM66.0708 75.9766L67.0962 66.2598C67.5845 61.6699 67.7798 57.2266 67.7798 53.9551C67.7798 47.168 65.3872 41.6504 60.6997 37.8906L30.7193 71.3867C33.9907 70.8008 37.311 70.6543 40.5825 70.6543C49.0298 70.6543 57.4771 71.7285 66.0708 75.9766ZM25.9829 119.922C29.4985 119.434 31.7935 116.943 31.354 112.598L28.9614 90.5762L52.2525 90.5762L49.8599 112.598C49.4204 116.943 51.7153 119.434 55.1821 119.922C58.7954 120.312 61.5786 118.066 62.0181 113.818L65.0454 84.7656C57.3306 80.3223 48.7857 78.6133 40.5825 78.6133C32.4282 78.6133 23.8833 80.3223 16.1685 84.7656L19.1958 113.818C19.6353 118.066 22.4185 120.312 25.9829 119.922ZM60.6997 37.8418L72.0278 25.293C73.981 23.0469 73.8345 20.6543 71.9302 19.043C70.1724 17.4805 67.8775 17.4805 65.7778 19.7754L53.0337 33.9355C55.8657 34.9609 58.4048 36.377 60.6997 37.8418ZM1.12941 91.6016C2.88722 93.4082 5.2798 93.3594 7.33058 91.2598C10.065 88.6719 12.7993 86.4746 16.1685 84.7656L15.1431 75.9277C10.1138 78.2715 5.71925 81.6406 1.56886 85.5469C-0.384263 87.4023-0.481919 89.8438 1.12941 91.6016ZM80.0845 91.6016C81.6958 89.8926 81.5982 87.4512 79.6939 85.5957C75.4946 81.6406 71.1001 78.3203 66.0708 75.9766L65.0454 84.7656C68.4146 86.4746 71.1489 88.6719 73.8833 91.2598C75.9341 93.3594 78.3267 93.4082 80.0845 91.6016Z" fill="#000000" fill-opacity="0.85"/>
 </g>
</svg>
