<?xml version="1.0" encoding="UTF-8"?>
<!--Generator: Apple Native CoreSVG 232.5-->
<!DOCTYPE svg
PUBLIC "-//W3C//DTD SVG 1.1//EN"
       "http://www.w3.org/Graphics/SVG/1.1/DTD/svg11.dtd">
<svg version="1.1" xmlns="http://www.w3.org/2000/svg" xmlns:xlink="http://www.w3.org/1999/xlink" width="95.1172" height="110.205">
 <g>
  <rect height="110.205" opacity="0" width="95.1172" x="0" y="0"/>
  <path d="M0 104.248C0 106.494 1.85547 108.301 4.05273 108.301C6.29883 108.301 8.1543 106.494 8.1543 104.248L8.1543 4.05273C8.1543 1.80664 6.29883 0 4.05273 0C1.85547 0 0 1.80664 0 4.05273Z" fill="#000000" fill-opacity="0.85"/>
  <path d="M86.9141 105.518L72.2656 88.0371C70.8008 86.3281 70.6055 85.9375 70.0195 84.1309L68.9453 80.8105L76.8066 70.9473L79.1504 81.9824L93.6523 99.1699C98.2422 104.688 90.7227 110.059 86.9141 105.518ZM51.1719 104.053C48.1934 110.156 39.1602 106.396 42.4316 99.7559L52.3926 79.5898C53.1738 78.0762 54.248 76.416 55.1758 75.0977L61.4746 66.1621L61.0352 64.8438C59.3262 59.7656 58.6914 56.7383 58.3496 51.709L57.373 37.5977C56.8848 30.9082 60.8398 25.8301 67.6758 25.8301C72.8516 25.8301 76.3184 28.418 81.0547 33.0566L88.5254 40.4297C90.9668 42.8223 91.748 44.7754 91.9922 47.9492L92.9199 59.4727C93.1641 62.4023 91.5527 64.4531 88.8184 64.5508C86.084 64.7461 84.4238 63.1348 84.1797 60.0098L83.1055 47.3633L79.4922 44.1406C78.2227 42.9688 76.5137 43.75 76.6113 45.0684L77.3926 55.7617C77.832 61.1816 76.5625 63.7695 72.8027 68.4082L62.9395 80.8105C61.9141 82.0801 61.8164 82.5684 61.377 83.3496ZM34.2285 44.873L45.459 44.873L52.5879 37.0117L53.418 48.7793L50.5859 51.6113C49.0234 53.1738 47.6074 53.6621 44.7266 53.6621L34.2285 53.6621C31.25 53.6621 29.3457 52.002 29.3457 49.2676C29.3457 46.6309 31.2988 44.873 34.2285 44.873ZM62.2559 21.4355C56.3477 21.4355 51.6113 16.6504 51.6113 10.791C51.6113 4.88281 56.3477 0.146484 62.2559 0.146484C68.1641 0.146484 72.9004 4.88281 72.9004 10.791C72.9004 16.6504 68.1641 21.4355 62.2559 21.4355Z" fill="#000000" fill-opacity="0.85"/>
 </g>
</svg>
