<?xml version="1.0" encoding="UTF-8"?>
<!--Generator: Apple Native CoreSVG 232.5-->
<!DOCTYPE svg
PUBLIC "-//W3C//DTD SVG 1.1//EN"
       "http://www.w3.org/Graphics/SVG/1.1/DTD/svg11.dtd">
<svg version="1.1" xmlns="http://www.w3.org/2000/svg" xmlns:xlink="http://www.w3.org/1999/xlink" width="103.65" height="90.4785">
 <g>
  <rect height="90.4785" opacity="0" width="103.65" x="0" y="0"/>
  <path d="M1.62969 41.2109L17.9871 57.6172C20.2332 59.8633 23.8953 59.9121 26.0926 57.1777L36.3953 44.4824C37.0789 43.7012 38.1531 44.1406 38.1531 45.1172L38.1531 66.748L19.6961 64.6973C13.3484 63.9648 11.2977 73.291 17.4012 75.293L38.3484 82.2266C37.323 86.5723 41.0828 90.2832 45.3797 88.8672L51.825 86.7676L58.2703 88.8672C62.5672 90.2832 66.327 86.5723 65.3016 82.2266L86.2977 75.293C92.4012 73.291 90.3016 63.9648 83.9539 64.6973L65.4969 66.748L65.4969 45.1172C65.4969 44.1406 66.6199 43.7012 67.2547 44.4824L77.5574 57.1777C79.7547 59.9121 83.4168 59.8633 85.6629 57.6172L102.02 41.2109C104.169 39.0137 104.218 35.6445 102.02 33.4961C99.9207 31.3965 96.4539 31.3965 94.3055 33.4961L82.2449 45.6055L69.9402 30.5176C67.8895 28.0273 64.8133 26.4648 61.5418 26.4648L42.157 26.4648C38.8367 26.4648 35.8094 28.0273 33.7098 30.5176L21.4051 45.6055L9.34453 33.4961C7.1961 31.3965 3.7293 31.3965 1.62969 33.4961C-0.567576 35.6445-0.518747 39.0137 1.62969 41.2109ZM51.825 21.3379C57.6844 21.3379 62.4207 16.5527 62.4207 10.5957C62.4207 4.73633 57.6844 0 51.825 0C45.868 0 41.0828 4.73633 41.0828 10.5957C41.0828 16.5527 45.868 21.3379 51.825 21.3379Z" fill="#000000" fill-opacity="0.85"/>
 </g>
</svg>
