<?xml version="1.0" encoding="UTF-8"?>
<!--Generator: Apple Native CoreSVG 232.5-->
<!DOCTYPE svg
PUBLIC "-//W3C//DTD SVG 1.1//EN"
       "http://www.w3.org/Graphics/SVG/1.1/DTD/svg11.dtd">
<svg version="1.1" xmlns="http://www.w3.org/2000/svg" xmlns:xlink="http://www.w3.org/1999/xlink" width="119.482" height="109.229">
 <g>
  <rect height="109.229" opacity="0" width="119.482" x="0" y="0"/>
  <path d="M59.4727 21.3379C65.2832 21.3379 70.1172 16.5039 70.1172 10.6445C70.1172 4.83398 65.2832 0 59.4727 0C53.6133 0 48.7793 4.83398 48.7793 10.6445C48.7793 16.5039 53.6133 21.3379 59.4727 21.3379ZM43.7988 84.8145C45.752 86.7676 48.8281 86.7676 50.7812 84.8145L70.8984 64.6973C73.6816 61.9629 71.875 56.8359 67.7246 56.4453L45.1172 54.0039C43.2129 53.8086 42.9688 52.6367 43.7988 51.416L51.8066 39.3066C52.6367 38.1348 54.1504 37.8418 55.2734 38.623L69.5312 48.0469C70.2637 48.5352 71.1914 48.9258 72.2168 48.9258L94.6289 48.9258C97.3145 48.9258 99.5605 46.6797 99.5605 43.9941C99.5605 41.2109 97.3145 38.9648 94.6289 38.9648L73.6328 38.9648L30.127 9.96094C29.3457 9.42383 28.418 9.08203 27.3926 9.08203L4.93164 9.08203C2.24609 9.08203 0 11.377 0 14.1113C0 16.7969 2.24609 19.043 4.93164 19.043L25.9277 19.043L33.9355 24.3652C35.1074 25.1465 35.4492 26.6602 34.6191 27.832L23.0469 45.2148C17.6758 53.2715 22.3633 64.0137 32.7148 64.5996L55.8105 65.8203L43.7988 77.832C41.7969 79.7852 41.7969 82.8613 43.7988 84.8145ZM25.1953 67.334L25.1953 84.082L11.377 100.049C9.61914 102.148 9.81445 105.42 11.9629 107.227C14.4043 109.18 17.4316 108.496 19.043 106.641L33.9355 89.209C34.7656 88.2324 35.0098 87.1582 35.1562 86.1328L37.9395 69.5312L32.5195 69.2871C29.7852 69.1406 27.2949 68.457 25.1953 67.334ZM94.6289 30.2734C94.6289 33.6914 100.244 36.4746 107.08 36.4746C113.916 36.4746 119.482 33.6914 119.482 30.2734C119.482 26.8555 113.916 24.0234 107.08 24.0234C100.244 24.0234 94.6289 26.8555 94.6289 30.2734Z" fill="#000000" fill-opacity="0.85"/>
 </g>
</svg>
