<?xml version="1.0" encoding="UTF-8"?>
<!--Generator: Apple Native CoreSVG 232.5-->
<!DOCTYPE svg
PUBLIC "-//W3C//DTD SVG 1.1//EN"
       "http://www.w3.org/Graphics/SVG/1.1/DTD/svg11.dtd">
<svg version="1.1" xmlns="http://www.w3.org/2000/svg" xmlns:xlink="http://www.w3.org/1999/xlink" width="118.018" height="123.682">
 <g>
  <rect height="123.682" opacity="0" width="118.018" x="0" y="0"/>
  <path d="M89.8235 13.9648L28.1941 13.9648C28.3945 9.99647 30.8989 7.71484 35.0586 7.71484L82.959 7.71484C87.1187 7.71484 89.6231 9.99647 89.8235 13.9648Z" fill="#000000" fill-opacity="0.85"/>
  <path d="M99.8116 27.9125C98.2412 27.6628 96.5755 27.5391 94.8242 27.5391L23.1934 27.5391C21.4425 27.5391 19.7772 27.6628 18.2073 27.9123C18.7389 23.2213 21.9132 20.6055 27.0996 20.6055L90.9668 20.6055C96.1533 20.6055 99.2873 23.2214 99.8116 27.9125Z" fill="#000000" fill-opacity="0.85"/>
  <path d="M16.5039 115.674L101.562 115.674C106.982 115.674 110.4 112.256 110.4 106.982L110.4 44.1406C110.4 38.8672 106.982 35.4004 101.562 35.4004L16.5039 35.4004C11.0352 35.4004 7.61719 38.8672 7.61719 44.1406L7.61719 106.982C7.61719 112.256 11.0352 115.674 16.5039 115.674ZM16.3574 51.6602C15.0391 51.6602 14.209 50.7812 14.209 49.6582L14.209 44.7266C14.209 43.3594 15.0879 42.4316 16.5039 42.4316L22.0215 42.4316C23.2422 42.4316 24.0234 43.3105 24.0234 44.5801L24.0234 49.6582C24.0234 50.7812 23.2422 51.6602 22.0215 51.6602ZM16.3574 66.0645C15.0391 66.0645 14.209 65.1367 14.209 64.1113L14.209 59.0332C14.209 57.8613 15.0391 56.9336 16.3574 56.9336L22.0215 56.9336C23.2422 56.9336 24.0234 57.8613 24.0234 59.0332L24.0234 64.1113C24.0234 65.1367 23.2422 66.0645 22.0215 66.0645ZM16.3574 80.1758C15.0391 80.1758 14.209 79.1992 14.209 78.0273L14.209 73.1934C14.209 71.8262 15.0391 70.9473 16.3574 70.9473L22.0215 70.9473C23.2422 70.9473 24.0234 71.8262 24.0234 73.1934L24.0234 78.0273C24.0234 79.1992 23.2422 80.1758 22.0215 80.1758ZM16.3574 94.1895C15.0391 94.1895 14.209 93.2617 14.209 92.1875L14.209 87.207C14.209 85.9375 15.0391 85.1074 16.3574 85.1074L22.0215 85.1074C23.2422 85.1074 24.0234 85.9375 24.0234 87.207L24.0234 92.1875C24.0234 93.2617 23.2422 94.1895 22.0215 94.1895ZM16.5039 108.643C15.0879 108.643 14.209 107.715 14.209 106.396L14.209 101.514C14.209 100.244 15.0391 99.4141 16.3574 99.4141L22.0215 99.4141C23.2422 99.4141 24.0234 100.244 24.0234 101.514L24.0234 106.592C24.0234 107.764 23.2422 108.643 22.0215 108.643ZM32.2754 72.0215C31.0547 72.0215 30.2734 71.3379 30.2734 70.0195L30.2734 44.4336C30.2734 43.1641 31.0547 42.4316 32.2754 42.4316L85.791 42.4316C86.9629 42.4316 87.7441 43.1641 87.7441 44.4336L87.7441 70.0195C87.7441 71.3379 86.9629 72.0215 85.791 72.0215ZM32.2754 108.643C31.0547 108.643 30.2734 107.861 30.2734 106.641L30.2734 81.2012C30.2734 79.9316 31.0547 79.1992 32.2754 79.1992L85.791 79.1992C86.9629 79.1992 87.7441 79.9316 87.7441 81.2012L87.7441 106.641C87.7441 107.861 86.9629 108.643 85.791 108.643ZM96.0449 51.6602C94.8242 51.6602 93.9941 50.7812 93.9941 49.6582L93.9941 44.5801C93.9941 43.3105 94.8242 42.4316 96.0449 42.4316L101.514 42.4316C102.93 42.4316 103.809 43.3594 103.809 44.7266L103.809 49.6582C103.809 50.7812 102.979 51.6602 101.66 51.6602ZM96.0449 66.0645C94.8242 66.0645 93.9941 65.1367 93.9941 64.1113L93.9941 59.0332C93.9941 57.8613 94.8242 56.9336 96.0449 56.9336L101.66 56.9336C102.979 56.9336 103.809 57.8613 103.809 59.0332L103.809 64.1113C103.809 65.1367 102.979 66.0645 101.66 66.0645ZM96.0449 80.1758C94.8242 80.1758 93.9941 79.1992 93.9941 78.0273L93.9941 73.1934C93.9941 71.8262 94.8242 70.9473 96.0449 70.9473L101.66 70.9473C102.979 70.9473 103.809 71.8262 103.809 73.1934L103.809 78.0273C103.809 79.1992 102.979 80.1758 101.66 80.1758ZM96.0449 94.1895C94.8242 94.1895 93.9941 93.2617 93.9941 92.1875L93.9941 87.207C93.9941 85.9375 94.8242 85.1074 96.0449 85.1074L101.66 85.1074C102.979 85.1074 103.809 85.9375 103.809 87.207L103.809 92.1875C103.809 93.2617 102.979 94.1895 101.66 94.1895ZM96.0449 108.643C94.8242 108.643 93.9941 107.764 93.9941 106.592L93.9941 101.514C93.9941 100.244 94.8242 99.4141 96.0449 99.4141L101.66 99.4141C102.979 99.4141 103.809 100.244 103.809 101.514L103.809 106.396C103.809 107.715 102.93 108.643 101.514 108.643Z" fill="#000000" fill-opacity="0.85"/>
 </g>
</svg>
