<?xml version="1.0" encoding="UTF-8"?>
<!--Generator: Apple Native CoreSVG 232.5-->
<!DOCTYPE svg
PUBLIC "-//W3C//DTD SVG 1.1//EN"
       "http://www.w3.org/Graphics/SVG/1.1/DTD/svg11.dtd">
<svg version="1.1" xmlns="http://www.w3.org/2000/svg" xmlns:xlink="http://www.w3.org/1999/xlink" width="99.6094" height="99.6582">
 <g>
  <rect height="99.6582" opacity="0" width="99.6094" x="0" y="0"/>
  <path d="M49.8047 99.6094C77.0508 99.6094 99.6094 77.002 99.6094 49.8047C99.6094 22.5586 77.002 0 49.7559 0C22.5586 0 0 22.5586 0 49.8047C0 77.002 22.6074 99.6094 49.8047 99.6094ZM49.8047 91.3086C26.7578 91.3086 8.34961 72.8516 8.34961 49.8047C8.34961 26.7578 26.709 8.30078 49.7559 8.30078C72.8027 8.30078 91.3086 26.7578 91.3086 49.8047C91.3086 72.8516 72.8516 91.3086 49.8047 91.3086Z" fill="#000000" fill-opacity="0.85"/>
  <path d="M26.8066 71.582L72.8516 71.582C75.7324 71.582 77.6367 69.7266 77.6367 66.8945L77.6367 32.8613C77.6367 29.9805 75.7324 28.1738 72.8516 28.1738L26.8066 28.1738C23.877 28.1738 22.0215 29.9805 22.0215 32.8613L22.0215 66.8945C22.0215 69.7266 23.877 71.582 26.8066 71.582ZM27.3438 67.5781C26.3672 67.5781 25.8301 66.9434 25.8301 66.0156L25.8301 62.793C25.8301 61.9141 26.3672 61.377 27.2949 61.377L31.0059 61.377C31.8359 61.377 32.373 61.9141 32.373 62.793L32.373 66.1133C32.373 66.9434 31.8359 67.5781 31.0059 67.5781ZM27.2949 57.6172C26.3672 57.6172 25.8301 56.9824 25.8301 56.25L25.8301 52.9785C25.8301 52.0508 26.3672 51.5137 27.2949 51.5137L31.0059 51.5137C31.8359 51.5137 32.373 52.0508 32.373 52.9785L32.373 56.25C32.373 56.9824 31.8359 57.6172 31.0059 57.6172ZM27.2949 47.9004C26.3672 47.9004 25.8301 47.2656 25.8301 46.5332L25.8301 43.2129C25.8301 42.334 26.3672 41.748 27.2949 41.748L31.0059 41.748C31.8359 41.748 32.373 42.334 32.373 43.2129L32.373 46.5332C32.373 47.2656 31.8359 47.9004 31.0059 47.9004ZM27.2949 38.2324C26.3672 38.2324 25.8301 37.5977 25.8301 36.8652L25.8301 33.5938C25.8301 32.7637 26.3672 32.1289 27.2949 32.1289L31.0059 32.1289C31.8359 32.1289 32.373 32.7637 32.373 33.5938L32.373 36.8652C32.373 37.5977 31.8359 38.2324 31.0059 38.2324ZM68.6035 67.5781C67.8223 67.5781 67.2852 66.9434 67.2852 66.1133L67.2852 62.793C67.2852 61.9141 67.8223 61.377 68.6035 61.377L72.3633 61.377C73.291 61.377 73.8281 61.9141 73.8281 62.793L73.8281 66.0156C73.8281 66.9434 73.291 67.5781 72.3145 67.5781ZM68.6035 57.6172C67.8223 57.6172 67.2852 56.9824 67.2852 56.25L67.2852 52.9785C67.2852 52.0508 67.8223 51.5137 68.6035 51.5137L72.3633 51.5137C73.291 51.5137 73.8281 52.0508 73.8281 52.9785L73.8281 56.25C73.8281 56.9824 73.291 57.6172 72.3633 57.6172ZM68.6035 47.9004C67.8223 47.9004 67.2852 47.2656 67.2852 46.5332L67.2852 43.2129C67.2852 42.334 67.8223 41.748 68.6035 41.748L72.3633 41.748C73.291 41.748 73.8281 42.334 73.8281 43.2129L73.8281 46.5332C73.8281 47.2656 73.291 47.9004 72.3633 47.9004ZM68.6035 38.2324C67.8223 38.2324 67.2852 37.5977 67.2852 36.8652L67.2852 33.5938C67.2852 32.7637 67.8223 32.1289 68.6035 32.1289L72.3633 32.1289C73.291 32.1289 73.8281 32.7637 73.8281 33.5938L73.8281 36.8652C73.8281 37.5977 73.291 38.2324 72.3633 38.2324ZM38.3789 47.8516C37.4512 47.8516 36.9629 47.2168 36.9629 46.4844L36.9629 33.5938C36.9629 32.7637 37.4512 32.1289 38.3789 32.1289L61.3281 32.1289C62.1094 32.1289 62.6465 32.7637 62.6465 33.5938L62.6465 46.4844C62.6465 47.2168 62.1094 47.8516 61.3281 47.8516ZM38.3789 67.5781C37.4512 67.5781 36.9629 66.9434 36.9629 66.2109L36.9629 53.2715C36.9629 52.4902 37.4512 51.8066 38.3789 51.8066L61.3281 51.8066C62.1094 51.8066 62.6465 52.4902 62.6465 53.2715L62.6465 66.2109C62.6465 66.9434 62.1094 67.5781 61.3281 67.5781Z" fill="#000000" fill-opacity="0.85"/>
 </g>
</svg>
