<?xml version="1.0" encoding="UTF-8"?>
<!--Generator: Apple Native CoreSVG 232.5-->
<!DOCTYPE svg
PUBLIC "-//W3C//DTD SVG 1.1//EN"
       "http://www.w3.org/Graphics/SVG/1.1/DTD/svg11.dtd">
<svg version="1.1" xmlns="http://www.w3.org/2000/svg" xmlns:xlink="http://www.w3.org/1999/xlink" width="111.621" height="98.1934">
 <g>
  <rect height="98.1934" opacity="0" width="111.621" x="0" y="0"/>
  <path d="M5.17578 21.1914L106.445 21.1914C109.521 21.1914 111.621 19.0918 111.621 15.9668L111.621 5.12695C111.621 2.09961 109.521 0 106.445 0L5.17578 0C2.09961 0 0 2.09961 0 5.12695L0 15.9668C0 19.0918 2.09961 21.1914 5.17578 21.1914ZM11.2305 93.8477L100.391 93.8477L100.391 26.8555L11.2305 26.8555ZM27.3926 90.0879L27.3926 42.8711C27.3926 38.623 30.0293 36.0352 34.2285 36.0352L77.3926 36.0352C81.5918 36.0352 84.2285 38.623 84.2285 42.8711L84.2285 90.0879L78.0762 90.0879L78.0762 44.6289C78.0762 43.0664 77.1484 42.1387 75.6348 42.1387L35.9863 42.1387C34.4727 42.1387 33.5449 43.0664 33.5449 44.6289L33.5449 90.0879ZM55.2734 85.1074C47.8027 85.1074 42.8223 80.8105 42.8223 74.2188C42.8223 68.5059 45.5078 66.4062 45.5078 62.4023C45.5078 61.8164 45.459 60.9863 45.459 60.5957C45.459 60.0098 45.8496 59.6191 46.4355 59.6191C47.8516 59.6191 49.6094 60.8398 50.4883 62.5977C50.6348 58.7402 48.877 55.957 46.875 53.3691C45.752 51.9043 46.6309 50.6348 48.7793 50.6348C57.2266 50.6348 69.3359 56.5918 69.3359 70.8984C69.3359 79.4434 63.7695 85.1074 55.2734 85.1074ZM55.7617 80.6152C59.5215 80.6152 61.3281 77.8809 61.3281 74.707C61.3281 70.7031 58.4473 67.4316 55.8594 66.4551C56.3477 69.3359 55.8105 71.5332 54.9316 72.8516C54.4922 71.7773 53.9551 70.9473 53.125 70.3613C52.7832 72.3633 50.7812 73.3398 50.7812 76.123C50.7812 78.8574 52.7832 80.6152 55.7617 80.6152ZM4.10156 97.9492L107.52 97.9492C109.668 97.9492 111.475 96.1426 111.475 93.9941C111.475 91.8457 109.668 90.0879 107.52 90.0879L4.10156 90.0879C1.95312 90.0879 0.146484 91.8457 0.146484 93.9941C0.146484 96.1426 1.95312 97.9492 4.10156 97.9492Z" fill="#000000" fill-opacity="0.85"/>
 </g>
</svg>
