<?xml version="1.0" encoding="UTF-8"?>
<!--Generator: Apple Native CoreSVG 232.5-->
<!DOCTYPE svg
PUBLIC "-//W3C//DTD SVG 1.1//EN"
       "http://www.w3.org/Graphics/SVG/1.1/DTD/svg11.dtd">
<svg version="1.1" xmlns="http://www.w3.org/2000/svg" xmlns:xlink="http://www.w3.org/1999/xlink" width="111.621" height="98.0957">
 <g>
  <rect height="98.0957" opacity="0" width="111.621" x="0" y="0"/>
  <path d="M5.17578 26.5625L106.445 26.5625C109.521 26.5625 111.621 24.4629 111.621 21.3379L111.621 5.12695C111.621 2.09961 109.521 0 106.445 0L5.17578 0C2.09961 0 0 2.09961 0 5.12695L0 21.3379C0 24.4629 2.09961 26.5625 5.17578 26.5625ZM9.13086 18.7012C8.39844 18.7012 7.86133 18.1641 7.86133 17.3828L7.86133 9.17969C7.86133 8.39844 8.39844 7.86133 9.13086 7.86133L102.49 7.86133C103.223 7.86133 103.76 8.39844 103.76 9.17969L103.76 17.3828C103.76 18.1641 103.223 18.7012 102.49 18.7012ZM11.2305 93.9941L19.0918 93.9941L19.0918 22.5586L11.2305 22.5586ZM92.5293 93.9941L100.391 93.9941L100.391 22.5586L92.5293 22.5586ZM27.3926 93.9941L33.5449 93.9941L33.5449 42.6758C33.5449 41.1133 34.4727 40.1855 35.9863 40.1855L75.6348 40.1855C77.1484 40.1855 78.0762 41.1133 78.0762 42.6758L78.0762 93.9941L84.2285 93.9941L84.2285 40.918C84.2285 36.6699 81.5918 34.082 77.3926 34.082L34.2285 34.082C30.0293 34.082 27.3926 36.6699 27.3926 40.918ZM4.10156 97.9492L107.52 97.9492C109.668 97.9492 111.475 96.1426 111.475 93.9941C111.475 91.8457 109.668 90.0879 107.52 90.0879L4.10156 90.0879C1.95312 90.0879 0.146484 91.8457 0.146484 93.9941C0.146484 96.1426 1.95312 97.9492 4.10156 97.9492ZM55.0293 86.3281C64.5996 86.3281 70.8496 79.9316 70.8496 70.3125C70.8496 54.248 57.1777 47.5586 47.7539 47.5586C45.3125 47.5586 44.2871 48.9746 45.5566 50.6836C47.8027 53.5156 49.8047 56.6406 49.6582 60.9863C48.584 58.9844 46.6797 57.6172 45.1172 57.6172C44.3848 57.6172 43.9941 58.0566 43.9941 58.7402C43.9941 59.1797 43.9941 60.1074 43.9941 60.791C43.9941 65.2832 41.0156 67.627 41.0156 74.0723C41.0156 81.4941 46.6309 86.3281 55.0293 86.3281ZM55.5176 81.2988C52.1973 81.2988 49.9512 79.2969 49.9512 76.2207C49.9512 73.0957 52.1973 71.9727 52.5879 69.7266C53.5156 70.3613 54.1504 71.2891 54.5898 72.5098C55.6152 71.0449 56.25 68.5547 55.6641 65.2832C58.5938 66.3574 61.8652 70.0684 61.8652 74.6094C61.8652 78.1738 59.8145 81.2988 55.5176 81.2988Z" fill="#000000" fill-opacity="0.85"/>
 </g>
</svg>
