<?xml version="1.0" encoding="UTF-8"?>
<!--Generator: Apple Native CoreSVG 232.5-->
<!DOCTYPE svg
PUBLIC "-//W3C//DTD SVG 1.1//EN"
       "http://www.w3.org/Graphics/SVG/1.1/DTD/svg11.dtd">
<svg version="1.1" xmlns="http://www.w3.org/2000/svg" xmlns:xlink="http://www.w3.org/1999/xlink" width="127.832" height="121.338">
 <g>
  <rect height="121.338" opacity="0" width="127.832" x="0" y="0"/>
  <path d="M104.492 43.4082C105.42 43.4082 106.055 42.7734 106.201 41.9434C108.398 30.3711 108.301 31.0547 119.287 28.9062C120.117 28.7598 120.752 28.1738 120.752 27.1484C120.752 26.2207 120.068 25.6348 119.287 25.4395C108.252 23.1934 108.398 23.7793 106.201 12.4023C106.055 11.5723 105.42 10.9375 104.492 10.9375C103.467 10.9375 102.881 11.5234 102.734 12.4023C100.488 23.877 100.146 23.3398 89.7461 25.4395C88.916 25.6348 88.2812 26.2207 88.2812 27.1484C88.2812 28.1738 88.8672 28.7598 89.7461 28.9062C100.146 30.957 100.488 30.4199 102.734 41.9434C102.881 42.8223 103.467 43.4082 104.492 43.4082ZM54.0039 121.338C54.7852 121.338 55.2734 120.801 55.4199 120.068C57.3242 111.035 57.3242 111.035 66.2598 109.229C66.9922 109.082 67.5293 108.594 67.5293 107.764C67.5293 106.982 66.9922 106.445 66.2598 106.348C57.3242 104.492 57.3242 104.492 55.4199 95.5078C55.2734 94.7754 54.7852 94.2383 54.0039 94.2383C53.1738 94.2383 52.6855 94.7754 52.5391 95.5078C50.6836 104.492 50.6836 104.492 41.748 106.348C40.9668 106.445 40.4297 106.982 40.4297 107.764C40.4297 108.594 40.9668 109.082 41.748 109.229C50.6836 111.035 50.6836 111.084 52.5391 120.068C52.6855 120.801 53.1738 121.338 54.0039 121.338ZM28.6133 105.469C29.2969 105.469 29.6875 105.078 29.7852 104.443C31.2988 97.0703 31.2988 97.0703 38.623 95.6055C39.2578 95.459 39.6973 95.1172 39.6973 94.3848C39.6973 93.7012 39.2578 93.2617 38.623 93.1641C31.2988 91.6992 31.2988 91.6992 29.7852 84.3262C29.6875 83.6914 29.2969 83.3008 28.6133 83.3008C27.8809 83.3008 27.4902 83.6914 27.3926 84.3262C25.8789 91.6992 25.8789 91.6992 18.5547 93.1641C17.9199 93.2617 17.4805 93.7012 17.4805 94.3848C17.4805 95.1172 17.9199 95.459 18.5547 95.6055C25.8789 97.0703 25.8789 97.0703 27.3926 104.443C27.4902 105.078 27.8809 105.469 28.6133 105.469Z" fill="#000000" fill-opacity="0.85"/>
  <path d="M100.146 101.318C101.709 101.318 102.979 100.098 102.979 98.5352L102.979 91.0156L106.934 94.9219C108.057 96.0449 109.766 96.0938 110.84 94.9219C112.061 93.8477 112.061 92.1387 110.84 90.9668L106.982 87.0605L114.453 87.0605C116.016 87.0605 117.285 85.791 117.285 84.2285C117.285 82.666 116.016 81.4453 114.453 81.4453L106.934 81.4453L110.889 77.4902C112.012 76.3672 112.012 74.6582 110.889 73.5352C109.766 72.4121 108.057 72.3633 106.934 73.5352L102.979 77.4414L102.979 69.9707C102.979 68.4082 101.709 67.1387 100.146 67.1387C98.584 67.1387 97.3633 68.4082 97.3633 69.9707L97.3633 77.4414L93.457 73.5352C92.334 72.4121 90.5762 72.4121 89.4531 73.5352C88.2812 74.6582 88.2812 76.3672 89.4043 77.4902L93.3594 81.4453L85.8398 81.4453C84.3262 81.4453 83.1055 82.666 83.1055 84.2285C83.1055 85.791 84.3262 87.0605 85.8398 87.0605L93.3594 87.0605L89.4531 90.9668C88.2812 92.1387 88.2812 93.8477 89.4531 94.9219C90.5762 96.0938 92.2852 96.0938 93.457 94.9219L97.3633 91.0156L97.3633 98.5352C97.3633 100.098 98.584 101.318 100.146 101.318ZM100.195 64.0625C102.246 64.0625 103.857 62.4023 103.857 60.3027C103.857 58.252 102.246 56.5918 100.195 56.5918C98.0957 56.5918 96.4844 58.252 96.4844 60.3027C96.4844 62.4023 98.0957 64.0625 100.195 64.0625ZM116.406 71.3867C118.311 71.3867 119.873 69.873 119.873 67.9199C119.873 66.0156 118.311 64.502 116.406 64.502C114.502 64.502 112.988 66.0156 112.988 67.9199C112.988 69.873 114.502 71.3867 116.406 71.3867ZM124.121 87.9395C126.172 87.9395 127.832 86.2793 127.832 84.2285C127.832 82.1777 126.172 80.5664 124.121 80.5664C122.021 80.5664 120.41 82.1777 120.41 84.2285C120.41 86.2793 122.021 87.9395 124.121 87.9395ZM116.406 104.004C118.311 104.004 119.873 102.441 119.873 100.586C119.873 98.6328 118.311 97.1191 116.406 97.1191C114.502 97.1191 112.988 98.6328 112.988 100.586C112.988 102.441 114.502 104.004 116.406 104.004ZM100.195 111.865C102.246 111.865 103.857 110.254 103.857 108.203C103.857 106.104 102.246 104.443 100.195 104.443C98.0957 104.443 96.4844 106.104 96.4844 108.203C96.4844 110.254 98.0957 111.865 100.195 111.865ZM83.9355 103.955C85.8398 103.955 87.3535 102.441 87.3535 100.586C87.3535 98.6328 85.8398 97.1191 83.9355 97.1191C82.0312 97.1191 80.4688 98.6328 80.4688 100.586C80.4688 102.441 82.0312 103.955 83.9355 103.955ZM76.2207 87.9395C78.3203 87.9395 79.9805 86.2793 79.9316 84.2285C79.9805 82.1777 78.3203 80.5664 76.2207 80.5664C74.1699 80.5664 72.5586 82.1777 72.5586 84.2285C72.5586 86.2793 74.1699 87.9395 76.2207 87.9395ZM83.9355 71.3867C85.8398 71.3867 87.3535 69.873 87.3535 67.9199C87.3535 66.0156 85.8398 64.502 83.9355 64.502C82.0312 64.502 80.4688 66.0156 80.4688 67.9199C80.4688 69.873 82.0312 71.3867 83.9355 71.3867Z" fill="#000000" fill-opacity="0.85"/>
  <path d="M38.5254 53.5645C40.1367 53.5645 41.4551 52.3438 41.4551 50.6836L41.4062 45.2148L45.3125 49.1211C46.3867 50.293 48.291 50.293 49.4629 49.1211C50.5371 47.998 50.5859 46.0938 49.4629 44.9707L45.5078 41.1621L50.9766 41.1621C52.5879 41.1621 53.9062 39.8438 53.9062 38.2324C53.9062 36.6211 52.5879 35.3516 50.9766 35.3516L45.5078 35.3516L49.4141 31.543C50.5859 30.3711 50.5371 28.5156 49.4141 27.3438C48.2422 26.2695 46.3867 26.1719 45.2148 27.3438L41.4551 31.2012L41.4062 25.8301C41.4062 24.1211 40.1855 22.9004 38.4766 22.9004C36.9141 22.9004 35.5957 24.1211 35.5957 25.8301L35.6445 31.2012L31.7871 27.3438C30.6152 26.2207 28.8086 26.2207 27.5879 27.3438C26.5137 28.4668 26.4648 30.4199 27.5879 31.543L31.543 35.3516L26.0742 35.3516C24.4629 35.3516 23.1445 36.6211 23.1445 38.2324C23.1445 39.8438 24.4629 41.1621 26.0742 41.1621L31.543 41.1621L27.6367 44.9707C26.4648 46.1426 26.5137 47.9492 27.6367 49.1211C28.7598 50.2441 30.6152 50.3418 31.7871 49.1211L35.5957 45.2148L35.6445 50.6836C35.6445 52.3438 36.8652 53.5645 38.5254 53.5645ZM38.5742 17.1387C40.332 17.1387 41.748 15.6738 41.748 13.916L41.748 3.22266C41.748 1.46484 40.332 0.0488281 38.5742 0.0488281C36.8164 0.0488281 35.3516 1.46484 35.3516 3.22266L35.3516 13.916C35.3516 15.6738 36.8164 17.1387 38.5742 17.1387ZM49.2676 19.9707C50.8301 20.8984 52.7344 20.3613 53.6621 18.7988L59.0332 9.61914C59.9121 8.05664 59.3262 6.10352 57.8613 5.22461C56.2988 4.29688 54.3945 4.83398 53.4668 6.39648L48.0957 15.625C47.2168 17.1387 47.8027 19.1406 49.2676 19.9707ZM57.1289 27.832C58.0566 29.3945 60.0098 29.834 61.5234 29.0039L70.752 23.6816C72.2656 22.8516 72.8027 20.8496 71.9238 19.3359C71.0449 17.7734 69.0918 17.2852 67.5781 18.1641L58.3008 23.4863C56.8359 24.3164 56.25 26.3672 57.1289 27.832ZM60.0098 38.5742C60.0098 40.3809 61.4746 41.748 63.1836 41.748L73.877 41.7969C75.6348 41.7969 77.1484 40.332 77.1484 38.623C77.1484 36.8164 75.6348 35.4004 73.9258 35.4004L63.1836 35.3516C61.4746 35.3516 60.0098 36.8652 60.0098 38.5742ZM57.1289 49.2676C56.25 50.8789 56.8848 52.7832 58.3008 53.6621L67.5293 59.0332C69.0918 59.9121 71.0449 59.3262 71.9238 57.9102C72.8027 56.2988 72.2168 54.3945 70.752 53.5156L61.5234 48.0957C60.0586 47.2656 57.959 47.8027 57.1289 49.2676ZM49.2676 57.1289C47.7539 58.1055 47.2656 60.0586 48.0957 61.5234L53.418 70.752C54.2969 72.2656 56.3477 72.8516 57.8613 71.9727C59.375 71.0938 59.8145 69.1406 58.9844 67.627L53.6621 58.3008C52.7832 56.8848 50.7812 56.25 49.2676 57.1289ZM38.5742 60.0586C36.8164 60.0586 35.3516 61.4746 35.3516 63.2324L35.3516 73.9258C35.3516 75.6836 36.8164 77.0996 38.5742 77.0996C40.332 77.0996 41.748 75.6836 41.748 73.9258L41.748 63.2324C41.748 61.4746 40.332 60.0586 38.5742 60.0586ZM27.832 57.1777C26.2695 56.25 24.3652 56.8359 23.4863 58.3496L18.1152 67.5781C17.1875 69.1406 17.7734 71.0938 19.2871 71.9238C20.8496 72.8516 22.7539 72.3145 23.6328 70.752L29.0039 61.5723C29.9316 60.0098 29.3457 58.0078 27.832 57.1777ZM19.9707 49.3164C19.0918 47.8027 17.0898 47.3145 15.625 48.1445L6.34766 53.4668C4.83398 54.3457 4.3457 56.3477 5.17578 57.8613C6.10352 59.375 8.05664 59.8633 9.57031 59.0332L18.7988 53.7109C20.3125 52.832 20.8496 50.8301 19.9707 49.3164ZM17.1387 38.623C17.1387 36.7676 15.625 35.4004 13.916 35.4004L3.27148 35.3516C1.46484 35.3516 0 36.8652 0 38.5742C0 40.3809 1.46484 41.748 3.22266 41.748L13.916 41.7969C15.625 41.7969 17.1387 40.332 17.1387 38.623ZM19.9707 27.8809C20.8496 26.2695 20.2637 24.3652 18.7988 23.5352L9.61914 18.1641C8.05664 17.2363 6.10352 17.8223 5.17578 19.2871C4.3457 20.8984 4.88281 22.8027 6.34766 23.6328L15.625 29.0527C17.041 29.8828 19.1406 29.3945 19.9707 27.8809ZM27.832 20.0195C29.3945 19.0918 29.8828 17.0898 29.0039 15.6738L23.6816 6.39648C22.8516 4.88281 20.8008 4.29688 19.2871 5.17578C17.7246 6.10352 17.2852 8.05664 18.1641 9.57031L23.4863 18.8477C24.3164 20.3125 26.3672 20.8984 27.832 20.0195Z" fill="#000000" fill-opacity="0.85"/>
 </g>
</svg>
