<?xml version="1.0" encoding="UTF-8"?>
<!--Generator: Apple Native CoreSVG 232.5-->
<!DOCTYPE svg
PUBLIC "-//W3C//DTD SVG 1.1//EN"
       "http://www.w3.org/Graphics/SVG/1.1/DTD/svg11.dtd">
<svg version="1.1" xmlns="http://www.w3.org/2000/svg" xmlns:xlink="http://www.w3.org/1999/xlink" width="81.1523" height="101.221">
 <g>
  <rect height="101.221" opacity="0" width="81.1523" x="0" y="0"/>
  <path d="M40.5762 101.221C41.3574 101.221 42.627 100.928 43.8477 100.244C71.6309 84.668 81.1523 78.0762 81.1523 60.2539L81.1523 22.9004C81.1523 17.7734 78.9551 16.1621 74.8047 14.4043C69.043 12.0117 50.4395 5.32227 44.6777 3.32031C43.3594 2.88086 41.9434 2.58789 40.5762 2.58789C39.209 2.58789 37.793 2.97852 36.5234 3.32031C30.7617 4.98047 12.1094 12.0605 6.34766 14.4043C2.24609 16.1133 0 17.7734 0 22.9004L0 60.2539C0 78.0762 9.57031 84.6191 37.3047 100.244C38.5742 100.928 39.7949 101.221 40.5762 101.221ZM40.5762 92.3828C39.7949 92.3828 39.0137 92.0898 37.5488 91.2109C14.9902 77.5391 7.76367 73.5352 7.76367 58.4473L7.76367 24.4141C7.76367 22.7539 8.05664 22.1191 9.42383 21.582C16.8457 18.6523 31.25 13.8184 38.623 10.8887C39.4043 10.5469 40.0391 10.4492 40.5762 10.4492C41.1133 10.4492 41.748 10.5957 42.5293 10.8887C49.9023 13.8184 64.209 18.9941 71.7773 21.582C73.0957 22.0703 73.3887 22.7539 73.3887 24.4141L73.3887 58.4473C73.3887 73.5352 66.1621 77.4902 43.6035 91.2109C42.1875 92.0898 41.3574 92.3828 40.5762 92.3828Z" fill="#000000" fill-opacity="0.85"/>
  <path d="M45.1172 29.0039L45.1172 34.1797L21.1914 34.1797C19.4336 34.1797 17.9688 35.6445 17.9688 37.4023C17.9688 39.1602 19.4336 40.5762 21.1914 40.5762L45.1172 40.5762L45.1172 45.752C45.1172 47.9004 47.168 48.584 48.7793 47.5098L60.9375 39.3066C62.3047 38.3789 62.2559 36.5234 60.791 35.498L48.7305 27.3438C47.168 26.2695 45.1172 26.9043 45.1172 29.0039ZM18.9941 64.2578L31.1523 72.4609C32.7148 73.4863 34.8145 72.8027 34.8145 70.7031L34.8145 65.5273L58.7402 65.5273C60.498 65.5273 61.9141 64.1113 61.9141 62.3535C61.9141 60.5957 60.498 59.1309 58.7402 59.1309L34.8145 59.1309L34.8145 53.9062C34.8145 51.8555 32.7148 51.2207 31.2012 52.2461L19.0918 60.4004C17.627 61.4258 17.627 63.2812 18.9941 64.2578Z" fill="#000000" fill-opacity="0.85"/>
 </g>
</svg>
