<?xml version="1.0" encoding="UTF-8"?>
<!--Generator: Apple Native CoreSVG 232.5-->
<!DOCTYPE svg
PUBLIC "-//W3C//DTD SVG 1.1//EN"
       "http://www.w3.org/Graphics/SVG/1.1/DTD/svg11.dtd">
<svg version="1.1" xmlns="http://www.w3.org/2000/svg" xmlns:xlink="http://www.w3.org/1999/xlink" width="79.8828" height="98.584">
 <g>
  <rect height="98.584" opacity="0" width="79.8828" x="0" y="0"/>
  <path d="M43.9941 2.19727C49.6582 4.15039 67.9199 10.791 73.6328 13.1348C77.7344 14.8438 79.8828 16.4551 79.8828 21.4844L79.8828 58.3008C79.8828 75.8301 70.9473 83.1055 43.1641 97.6562C41.9434 98.291 40.7227 98.584 39.9414 98.584C39.1602 98.584 37.9883 98.3398 36.7188 97.6562C9.42383 82.2754 0 75.8301 0 58.3008L0 21.4844C0 16.4551 2.19727 14.7949 6.25 13.1348C11.9629 10.8398 30.2246 4.05273 35.9375 2.19727C37.207 1.80664 38.5742 1.51367 39.9414 1.51367C41.3086 1.51367 42.6758 1.75781 43.9941 2.19727ZM30.2734 50.9766L17.8223 59.4238C16.3086 60.4492 16.3086 62.4023 17.7246 63.3789L30.2246 71.875C31.8359 72.9004 34.0332 72.2168 34.0332 70.0195L34.0332 64.6973L58.6914 64.6973C60.498 64.6973 61.9629 63.2324 61.9629 61.4258C61.9629 59.6191 60.498 58.1055 58.6914 58.1055L34.0332 58.1055L34.0332 52.7344C34.0332 50.5859 31.8359 49.9512 30.2734 50.9766ZM44.6289 27.0508L44.6289 32.373L19.9707 32.373C18.1641 32.373 16.6504 33.8867 16.6504 35.6934C16.6504 37.5 18.1641 38.9648 19.9707 38.9648L44.6289 38.9648L44.6289 44.2871C44.6289 46.5332 46.7773 47.2168 48.4375 46.1426L60.9375 37.6465C62.3535 36.7188 62.3047 34.7656 60.791 33.7402L48.3887 25.293C46.7773 24.2188 44.6289 24.8535 44.6289 27.0508Z" fill="#000000" fill-opacity="0.85"/>
 </g>
</svg>
