<?xml version="1.0" encoding="UTF-8"?>
<!--Generator: Apple Native CoreSVG 232.5-->
<!DOCTYPE svg
PUBLIC "-//W3C//DTD SVG 1.1//EN"
       "http://www.w3.org/Graphics/SVG/1.1/DTD/svg11.dtd">
<svg version="1.1" xmlns="http://www.w3.org/2000/svg" xmlns:xlink="http://www.w3.org/1999/xlink" width="135.742" height="106.979">
 <g>
  <rect height="106.979" opacity="0" width="135.742" x="0" y="0"/>
  <path d="M0.146484 83.3969C0.292969 85.4965 1.66016 86.5707 3.75977 86.5219C15.4785 86.3266 25.3418 80.809 33.9844 70.7992C43.0664 79.8324 53.5645 85.3012 64.5996 87.7914L62.8906 101.805C62.4512 105.467 64.4531 107.567 68.7012 106.834C80.8105 104.979 94.4824 96.0434 101.611 85.7406C119.385 80.1742 135.742 69.0902 135.742 55.6137C135.742 42.6742 120.605 31.932 103.564 26.1215C97.5098 5.32072 69.9707-4.29842 50.5371 6.49259C48.4375 7.56681 48.1934 9.2758 49.9023 11.5707C54.3945 17.4789 55.8594 20.9945 56.7383 25.7797C48.5352 28.807 40.918 33.5922 33.9844 40.5258C25.3418 30.4672 15.4785 24.9496 3.75977 24.7543C1.66016 24.7055 0.292969 25.7797 0.146484 27.8793C-0.878906 38.1332 3.85742 49.1195 11.1816 55.6137C3.85742 62.1567-0.878906 73.1918 0.146484 83.3969ZM109.668 58.5922C106.885 58.5922 104.541 56.2485 104.541 53.4652C104.541 50.682 106.885 48.3383 109.668 48.3383C112.5 48.3383 114.844 50.682 114.844 53.4652C114.844 56.2485 112.5 58.5922 109.668 58.5922Z" fill="#000000" fill-opacity="0.85"/>
 </g>
</svg>
