<?xml version="1.0" encoding="UTF-8"?>
<!--Generator: Apple Native CoreSVG 232.5-->
<!DOCTYPE svg
PUBLIC "-//W3C//DTD SVG 1.1//EN"
       "http://www.w3.org/Graphics/SVG/1.1/DTD/svg11.dtd">
<svg version="1.1" xmlns="http://www.w3.org/2000/svg" xmlns:xlink="http://www.w3.org/1999/xlink" width="137.695" height="108.906">
 <g>
  <rect height="108.906" opacity="0" width="137.695" x="0" y="0"/>
  <path d="M57.0801 28.696L64.0625 27.28C63.2812 22.153 62.0117 17.9538 58.3984 12.4851C57.959 11.8015 58.0566 11.1179 58.6426 10.9226C74.1699 5.6003 94.2383 13.1687 98.5352 29.2331L105.859 28.3542C100.684 5.94209 71.3379-4.65361 51.0254 6.57686C48.584 7.89522 48.0957 10.4831 50.0977 13.1198C55.0293 19.614 56.1035 22.9343 57.0801 28.696ZM80.3223 91.4401C102.881 91.4401 137.695 76.6452 137.695 56.5769C137.695 36.5573 102.881 21.7624 80.3223 21.7624C64.4043 21.7624 48.1934 27.28 35.0098 40.073C26.416 30.3562 16.4062 24.9362 4.73633 24.7409C2.29492 24.6921 0.341797 26.2546 0.146484 28.7448C-0.878906 38.9011 3.71094 49.8874 10.7422 56.5769C3.71094 63.3151-0.878906 74.3503 0.146484 84.4577C0.341797 86.948 2.29492 88.5105 4.73633 88.4616C16.4062 88.2663 26.416 82.8464 35.0098 73.1784C48.1934 85.9226 64.4043 91.4401 80.3223 91.4401ZM80.3223 83.5788C64.6484 83.5788 49.707 78.0612 37.4512 64.3894C35.8398 62.5827 33.5938 62.6315 31.9824 64.5847C24.8535 73.4226 17.9199 78.6472 9.42383 80.112C8.59375 80.2585 7.91016 79.5749 8.05664 78.696C8.88672 71.0788 13.3789 64.0476 18.9941 59.6042C21.5332 57.4558 21.582 55.7468 18.9453 53.5495C13.3789 49.1062 8.88672 42.1237 8.05664 34.5065C7.91016 33.6765 8.59375 32.944 9.42383 33.0905C17.9199 34.5554 24.8535 39.78 31.9824 48.6179C33.5938 50.6198 35.8398 50.6687 37.4023 48.862C49.707 35.1413 64.6484 29.6237 80.3223 29.6237C101.123 29.6237 129.98 43.1491 129.98 56.5769C129.98 70.0534 101.123 83.5788 80.3223 83.5788ZM110.645 59.5554C113.477 59.5554 115.82 57.2116 115.82 54.4284C115.82 51.6452 113.477 49.3015 110.645 49.3015C107.861 49.3015 105.518 51.6452 105.518 54.4284C105.518 57.2116 107.861 59.5554 110.645 59.5554ZM64.9414 85.8737L62.8906 102.671C62.4023 106.772 65.0391 109.555 69.8242 108.774C82.2754 106.821 96.4355 97.5437 103.613 86.8991L93.5547 88.1198C87.4023 93.4421 80.7617 98.2761 72.8027 100.473C71.7773 100.717 71.0938 100.522 71.2402 99.155L72.4609 86.9968Z" fill="#000000" fill-opacity="0.85"/>
 </g>
</svg>
