<?xml version="1.0" encoding="UTF-8"?>
<!--Generator: Apple Native CoreSVG 232.5-->
<!DOCTYPE svg
PUBLIC "-//W3C//DTD SVG 1.1//EN"
       "http://www.w3.org/Graphics/SVG/1.1/DTD/svg11.dtd">
<svg version="1.1" xmlns="http://www.w3.org/2000/svg" xmlns:xlink="http://www.w3.org/1999/xlink" width="89.8926" height="89.9902">
 <g>
  <rect height="89.9902" opacity="0" width="89.8926" x="0" y="0"/>
  <path d="M15.332 89.9902L74.5605 89.9902C84.8145 89.9902 89.8926 84.9121 89.8926 74.8535L89.8926 15.2344C89.8926 5.17578 84.8145 0.0976562 74.5605 0.0976562L15.332 0.0976562C5.12695 0.0976562 0 5.12695 0 15.2344L0 74.8535C0 84.9609 5.12695 89.9902 15.332 89.9902ZM15.4297 82.1289C10.5469 82.1289 7.86133 79.541 7.86133 74.4629L7.86133 15.625C7.86133 10.5469 10.5469 7.95898 15.4297 7.95898L74.4629 7.95898C79.2969 7.95898 82.0312 10.5469 82.0312 15.625L82.0312 74.4629C82.0312 79.541 79.2969 82.1289 74.4629 82.1289Z" fill="#000000" fill-opacity="0.85"/>
  <path d="M26.416 71.2402C27.7344 71.2402 28.6621 70.2148 28.6621 68.9941L28.6621 54.5898C29.541 54.1992 31.4941 53.6133 34.4727 53.6133C43.1641 53.6133 48.6328 57.9102 57.0801 57.9102C60.791 57.9102 62.3535 57.5195 64.1602 56.6406C66.2109 55.7129 67.1387 54.2969 67.1387 52.0996L67.1387 28.0273C67.1387 26.6113 66.4062 25.5859 64.4043 25.5859C62.9883 25.5859 60.8398 26.6113 56.8359 26.6113C48.584 26.6113 43.0176 22.2656 34.2285 22.2656C30.4688 22.2656 28.9062 22.7051 27.1484 23.4863C25.1465 24.3652 24.1699 25.9277 24.1699 28.0273L24.1699 68.9941C24.1699 70.166 25.1953 71.2402 26.416 71.2402Z" fill="#000000" fill-opacity="0.85"/>
 </g>
</svg>
