<?xml version="1.0" encoding="UTF-8"?>
<!--Generator: Apple Native CoreSVG 232.5-->
<!DOCTYPE svg
PUBLIC "-//W3C//DTD SVG 1.1//EN"
       "http://www.w3.org/Graphics/SVG/1.1/DTD/svg11.dtd">
<svg version="1.1" xmlns="http://www.w3.org/2000/svg" xmlns:xlink="http://www.w3.org/1999/xlink" width="99.6094" height="99.6582">
 <g>
  <rect height="99.6582" opacity="0" width="99.6094" x="0" y="0"/>
  <path d="M99.6094 49.8535C99.6094 77.0996 77.0508 99.6582 49.8047 99.6582C22.6074 99.6582 0 77.0996 0 49.8535C0 22.6562 22.5586 0.0488281 49.7559 0.0488281C77.002 0.0488281 99.6094 22.6562 99.6094 49.8535ZM28.2715 74.5605C28.2715 75.8301 29.3945 76.9043 30.6641 76.9043C32.0312 76.9043 32.9102 75.8789 32.9102 74.5605L32.9102 59.7168C33.8867 59.3262 35.8398 58.7402 38.9648 58.7402C44.5609 58.7402 48.8739 60.4638 53.4511 61.7519L28.2715 36.5723ZM23.877 23.877C22.998 24.8047 22.998 26.2695 23.877 27.0996L72.6074 75.8301C73.4375 76.6602 74.9512 76.6602 75.8301 75.8301C76.709 74.8535 76.709 73.4863 75.8301 72.6074L27.0996 23.877C26.2207 22.998 24.8047 22.998 23.877 23.877ZM34.852 26.5948L69.9911 61.6987C71.8077 60.686 72.6562 59.2681 72.6562 57.1289L72.6562 32.373C72.6562 30.8594 71.875 29.7852 69.8242 29.7852C68.3594 29.7852 66.1621 30.8594 62.0117 30.8594C53.4668 30.8594 47.7539 26.3672 38.7207 26.3672C37.0816 26.3672 35.8534 26.4427 34.852 26.5948Z" fill="#000000" fill-opacity="0.85"/>
 </g>
</svg>
