<?xml version="1.0" encoding="UTF-8"?>
<!--Generator: Apple Native CoreSVG 232.5-->
<!DOCTYPE svg
PUBLIC "-//W3C//DTD SVG 1.1//EN"
       "http://www.w3.org/Graphics/SVG/1.1/DTD/svg11.dtd">
<svg version="1.1" xmlns="http://www.w3.org/2000/svg" xmlns:xlink="http://www.w3.org/1999/xlink" width="99.6094" height="99.6582">
 <g>
  <rect height="99.6582" opacity="0" width="99.6094" x="0" y="0"/>
  <path d="M49.8047 99.6094C77.0508 99.6094 99.6094 77.002 99.6094 49.8047C99.6094 22.5586 77.002 0 49.7559 0C22.5586 0 0 22.5586 0 49.8047C0 77.002 22.6074 99.6094 49.8047 99.6094ZM49.8047 91.3086C26.7578 91.3086 8.34961 72.8516 8.34961 49.8047C8.34961 26.7578 26.709 8.30078 49.7559 8.30078C72.8027 8.30078 91.3086 26.7578 91.3086 49.8047C91.3086 72.8516 72.8516 91.3086 49.8047 91.3086Z" fill="#000000" fill-opacity="0.85"/>
  <path d="M31.2012 76.0742C32.5195 76.0742 33.3984 75.0488 33.3984 73.8281L33.3984 59.4238C34.3262 59.0332 36.2305 58.4473 39.2578 58.4473C47.9492 58.4473 53.418 62.7441 61.8652 62.7441C65.5762 62.7441 67.0898 62.3535 68.9453 61.4746C70.9961 60.5469 71.9238 59.1309 71.9238 56.9336L71.9238 32.8613C71.9238 31.4453 71.1914 30.4199 69.1895 30.4199C67.7734 30.4199 65.625 31.4453 61.6211 31.4453C53.3203 31.4453 47.8027 27.0996 39.0137 27.0996C35.2051 27.0996 33.6914 27.5391 31.9336 28.3203C29.9316 29.1992 28.9062 30.7617 28.9062 32.8613L28.9062 73.8281C28.9062 75 29.9805 76.0742 31.2012 76.0742Z" fill="#000000" fill-opacity="0.85"/>
 </g>
</svg>
