<?xml version="1.0" encoding="UTF-8"?>
<!--Generator: Apple Native CoreSVG 232.5-->
<!DOCTYPE svg
PUBLIC "-//W3C//DTD SVG 1.1//EN"
       "http://www.w3.org/Graphics/SVG/1.1/DTD/svg11.dtd">
<svg version="1.1" xmlns="http://www.w3.org/2000/svg" xmlns:xlink="http://www.w3.org/1999/xlink" width="89.8926" height="89.9902">
 <g>
  <rect height="89.9902" opacity="0" width="89.8926" x="0" y="0"/>
  <path d="M89.8926 15.2344L89.8926 74.8535C89.8926 84.9121 84.8145 89.9902 74.5605 89.9902L15.332 89.9902C5.12695 89.9902 0 84.9609 0 74.8535L0 15.2344C0 5.12695 5.12695 0.0976562 15.332 0.0976562L74.5605 0.0976562C84.8145 0.0976562 89.8926 5.17578 89.8926 15.2344ZM26.5625 22.7539C24.5117 23.6816 23.4863 25.293 23.4863 27.4414L23.4863 69.6777C23.4863 70.8984 24.6094 72.0215 25.8301 72.0215C27.1973 72.0215 28.125 70.9473 28.125 69.6777L28.125 54.834C29.0527 54.4434 31.0547 53.8574 34.1309 53.8574C43.0664 53.8574 48.7305 58.252 57.4219 58.252C61.2793 58.252 62.8906 57.8613 64.7461 56.9824C66.8457 56.0059 67.8223 54.541 67.8223 52.2461L67.8223 27.4414C67.8223 25.9766 67.041 24.9023 64.9902 24.9023C63.5254 24.9023 61.3281 25.9766 57.1777 25.9766C48.6816 25.9766 42.9199 21.4844 33.8867 21.4844C29.9805 21.4844 28.3691 21.9238 26.5625 22.7539Z" fill="#000000" fill-opacity="0.85"/>
 </g>
</svg>
