<?xml version="1.0" encoding="UTF-8"?>
<!--Generator: Apple Native CoreSVG 232.5-->
<!DOCTYPE svg
PUBLIC "-//W3C//DTD SVG 1.1//EN"
       "http://www.w3.org/Graphics/SVG/1.1/DTD/svg11.dtd">
<svg version="1.1" xmlns="http://www.w3.org/2000/svg" xmlns:xlink="http://www.w3.org/1999/xlink" width="81.3477" height="114.502">
 <g>
  <rect height="114.502" opacity="0" width="81.3477" x="0" y="0"/>
  <path d="M38.3789 105.615C64.1602 105.615 81.3477 88.1836 81.3477 61.9141C81.3477 18.2129 44.1406 0 18.3105 0C13.7207 0 10.791 1.61133 10.791 4.73633C10.791 5.95703 11.3281 7.22656 12.3535 8.39844C18.1641 15.332 23.9746 23.584 24.0723 33.2031C24.0723 35.4004 23.8281 37.3535 22.2656 40.0879L24.707 39.5996C22.5098 32.4219 16.6016 27.3438 11.4258 27.3438C9.42383 27.3438 8.05664 28.8086 8.05664 31.0059C8.05664 32.2754 8.39844 35.2539 8.39844 37.4023C8.39844 48.3398 0 54.7363 0 72.3633C0 92.334 15.2832 105.615 38.3789 105.615ZM38.8672 98.7793C19.7266 98.7793 6.88477 88.1348 6.88477 72.3633C6.88477 56.3477 15.5273 50.9277 15.5273 38.2324C15.5273 36.3281 15.1367 34.6191 14.6973 33.1543L13.5742 35.1074C17.5781 37.5 20.3125 41.8457 21.875 48.5352C22.0703 49.5605 22.6562 50.0488 23.3887 50.0488C27.3438 50.0488 30.1758 40.2344 30.1758 34.0332C30.1758 22.8027 25.3418 12.1582 17.4805 4.88281L16.1621 6.44531C51.2695 7.17773 74.1699 30.4688 74.1699 61.6699C74.1699 83.8379 60.0098 98.7793 38.8672 98.7793ZM39.502 91.8945C51.123 91.8945 56.7871 83.3496 56.7871 73.6816C56.7871 64.1602 51.2207 53.5156 40.5273 48.4863C40.0879 48.3398 39.7949 48.584 39.8438 49.0234C40.6738 57.0312 39.4531 64.4531 36.8652 67.9688C35.6445 65.1367 34.1797 62.6953 31.9336 60.6934C31.5918 60.4004 31.2988 60.5469 31.2012 60.9863C30.4199 66.5039 24.3164 69.5801 24.3164 78.1738C24.3164 86.377 30.3711 91.8945 39.502 91.8945Z" fill="#000000" fill-opacity="0.85"/>
 </g>
</svg>
