<?xml version="1.0" encoding="UTF-8"?>
<!--Generator: Apple Native CoreSVG 232.5-->
<!DOCTYPE svg
PUBLIC "-//W3C//DTD SVG 1.1//EN"
       "http://www.w3.org/Graphics/SVG/1.1/DTD/svg11.dtd">
<svg version="1.1" xmlns="http://www.w3.org/2000/svg" xmlns:xlink="http://www.w3.org/1999/xlink" width="99.6094" height="99.6582">
 <g>
  <rect height="99.6582" opacity="0" width="99.6094" x="0" y="0"/>
  <path d="M49.8047 99.6094C77.0508 99.6094 99.6094 77.002 99.6094 49.8047C99.6094 22.5586 77.002 0 49.7559 0C22.5586 0 0 22.5586 0 49.8047C0 77.002 22.6074 99.6094 49.8047 99.6094ZM49.8047 91.3086C26.7578 91.3086 8.34961 72.8516 8.34961 49.8047C8.34961 26.7578 26.709 8.30078 49.7559 8.30078C72.8027 8.30078 91.3086 26.7578 91.3086 49.8047C91.3086 72.8516 72.8516 91.3086 49.8047 91.3086Z" fill="#000000" fill-opacity="0.85"/>
  <path d="M50 80.0293C64.0137 80.0293 73.3398 70.5078 73.3398 56.25C73.3398 32.4707 53.125 22.5586 39.1113 22.5586C36.6211 22.5586 35.0586 23.5352 35.0586 25.1953C35.0586 25.8789 35.3516 26.5137 35.8887 27.1973C38.9648 30.9082 42.1875 35.4004 42.2363 40.625C42.2363 41.8945 42.0898 42.9199 41.2598 44.3848L42.5781 44.1406C41.3574 40.2344 38.1836 37.4512 35.3516 37.4512C34.2773 37.4512 33.5449 38.2812 33.5449 39.4531C33.5449 40.0879 33.7402 41.748 33.7402 42.9688C33.7402 48.877 29.1992 52.3926 29.1992 61.9141C29.1992 72.7539 37.4512 80.0293 50 80.0293ZM50.6348 72.5586C45.7031 72.5586 42.334 69.5312 42.334 65.0391C42.334 60.4004 45.7031 58.7402 46.1426 55.7617C46.1426 55.4688 46.3379 55.4199 46.5332 55.6152C47.7539 56.6406 48.4863 58.0078 49.2188 59.5215C50.6348 57.6172 51.2695 53.6133 50.8301 49.3164C50.7812 48.9746 50.9277 48.9258 51.1719 48.9746C57.0312 51.709 59.9609 57.5195 59.9609 62.6465C59.9609 67.8711 56.9336 72.5586 50.6348 72.5586Z" fill="#000000" fill-opacity="0.85"/>
 </g>
</svg>
