<?xml version="1.0" encoding="UTF-8"?>
<!--Generator: Apple Native CoreSVG 232.5-->
<!DOCTYPE svg
PUBLIC "-//W3C//DTD SVG 1.1//EN"
       "http://www.w3.org/Graphics/SVG/1.1/DTD/svg11.dtd">
<svg version="1.1" xmlns="http://www.w3.org/2000/svg" xmlns:xlink="http://www.w3.org/1999/xlink" width="93.3594" height="102.49">
 <g>
  <rect height="102.49" opacity="0" width="93.3594" x="0" y="0"/>
  <path d="M13.3301 102.393L80.0293 102.393C88.3301 102.393 93.3594 96.6309 93.3594 89.1602C93.3594 86.6699 92.1387 83.3496 89.8438 80.0293L63.4277 42.1387L57.1777 46.4844L84.5215 85.6934C85.4004 87.0117 85.4492 88.1836 85.4492 89.1113C85.4492 92.0898 83.3496 94.7266 79.9805 94.7266L13.3789 94.7266C9.96094 94.7266 7.91016 92.0898 7.91016 89.1113C7.91016 88.1836 7.95898 87.0117 8.83789 85.6934L36.1328 46.4844L29.9316 42.1387L3.07617 80.6152C1.02539 83.5449 0 86.6699 0 89.1602C0 96.6309 5.0293 102.393 13.3301 102.393ZM28.3203 46.4844L36.1328 46.4844L36.1328 4.10156L28.3203 4.10156ZM65.0391 46.4844L65.0391 4.10156L57.1777 4.10156L57.1777 46.4844ZM27.9785 8.20312L65.332 8.20312C67.7734 8.20312 69.4824 6.29883 69.4824 4.05273C69.4824 1.80664 67.7734 0 65.332 0L27.9785 0C25.5371 0 23.877 1.80664 23.877 4.05273C23.877 6.29883 25.5371 8.20312 27.9785 8.20312ZM32.0312 20.8496L45.0195 20.8496C46.6309 20.8496 47.8516 19.6289 47.8516 17.9688C47.8516 16.4551 46.5332 15.1367 44.9707 15.1367L32.0312 15.1367ZM32.0801 34.8145L45.0684 34.8145C46.6797 34.8145 47.9004 33.5449 47.9004 31.8848C47.9004 30.3711 46.582 29.1016 45.0195 29.1016L32.0801 29.1016ZM32.0801 48.7305L45.0684 48.7305C46.6797 48.7305 47.9004 47.5098 47.9004 45.8496C47.9004 44.3359 46.6309 43.0176 45.0684 43.0176L32.0801 43.0176Z" fill="#000000" fill-opacity="0.85"/>
 </g>
</svg>
