<?xml version="1.0" encoding="UTF-8"?>
<!--Generator: Apple Native CoreSVG 232.5-->
<!DOCTYPE svg
PUBLIC "-//W3C//DTD SVG 1.1//EN"
       "http://www.w3.org/Graphics/SVG/1.1/DTD/svg11.dtd">
<svg version="1.1" xmlns="http://www.w3.org/2000/svg" xmlns:xlink="http://www.w3.org/1999/xlink" width="99.6094" height="99.6582">
 <g>
  <rect height="99.6582" opacity="0" width="99.6094" x="0" y="0"/>
  <path d="M99.6094 49.8535C99.6094 77.0996 77.0508 99.6582 49.8047 99.6582C22.6074 99.6582 0 77.0996 0 49.8535C0 22.6562 22.5586 0.0488281 49.7559 0.0488281C77.002 0.0488281 99.6094 22.6562 99.6094 49.8535ZM36.377 26.9043L36.377 29.4434C36.377 31.9336 37.2559 33.7402 38.623 35.8398L40.1855 38.2812C41.3086 39.9902 41.9922 42.041 41.9922 45.1172L41.9922 76.8555C41.9922 80.3711 43.7988 82.2266 47.168 82.2266L52.3926 82.2266C55.8105 82.2266 57.666 80.3711 57.666 76.8555L57.666 45.1172C57.666 42.041 58.3008 39.9902 59.4238 38.2812L60.9863 35.8398C62.3535 33.7402 63.2324 31.9336 63.2324 29.4434L63.2324 26.9043ZM54.6387 47.7051L54.6387 55.957C54.6387 58.6914 52.5391 60.791 49.8047 60.791C47.0703 60.791 44.9707 58.6914 44.9707 55.957L44.9707 47.7051C44.9707 45.1172 47.0703 42.8711 49.8047 42.8711C52.5391 42.8711 54.6387 45.1172 54.6387 47.7051ZM46.7285 47.7051C46.7285 49.4629 48.0957 50.8301 49.8047 50.8301C51.5625 50.8301 52.8809 49.4629 52.8809 47.7051C52.8809 45.9961 51.6602 44.6289 49.8047 44.6289C48.0469 44.6289 46.7285 45.9961 46.7285 47.7051ZM41.6504 17.4805C38.1348 17.4805 36.377 19.2871 36.377 22.8516L36.377 23.8281L63.2324 23.8281L63.2324 22.8516C63.2324 19.2871 61.4746 17.4805 57.9102 17.4805Z" fill="#000000" fill-opacity="0.85"/>
 </g>
</svg>
