<?xml version="1.0" encoding="UTF-8"?>
<!--Generator: Apple Native CoreSVG 232.5-->
<!DOCTYPE svg
PUBLIC "-//W3C//DTD SVG 1.1//EN"
       "http://www.w3.org/Graphics/SVG/1.1/DTD/svg11.dtd">
<svg version="1.1" xmlns="http://www.w3.org/2000/svg" xmlns:xlink="http://www.w3.org/1999/xlink" width="47.9004" height="115.479">
 <g>
  <rect height="115.479" opacity="0" width="47.9004" x="0" y="0"/>
  <path d="M0 11.2793L47.9004 11.2793L47.9004 9.61914C47.9004 3.125 44.7266 0 38.4766 0L9.375 0C3.125 0 0 3.125 0 9.61914ZM19.3848 115.43L28.5156 115.43C34.668 115.43 37.9395 112.158 37.9395 105.811L37.9395 49.1699C37.9395 43.75 39.1602 40.0879 41.1133 37.0605L43.8965 32.7148C46.2891 28.9551 47.9004 25.7324 47.9004 21.3867L47.9004 16.9434L0 16.9434L0 21.3867C0 25.7324 1.61133 28.9551 4.00391 32.7148L6.78711 37.0605C8.74023 40.0879 9.96094 43.75 9.96094 49.1699L9.96094 105.811C9.96094 112.158 13.2324 115.43 19.3848 115.43ZM15.332 53.8086C15.332 49.0234 19.0918 45.2148 23.9746 45.2148C28.8086 45.2148 32.5684 49.0234 32.5684 53.8086L32.5684 68.5547C32.5684 73.3887 28.8086 77.1484 23.9746 77.1484C19.0918 77.1484 15.332 73.3887 15.332 68.5547ZM23.9746 74.1211C27.1973 74.1211 29.541 71.7773 29.541 68.5547C29.541 65.5273 27.0508 63.0371 23.9746 63.0371C20.8496 63.0371 18.3594 65.5273 18.3594 68.5547C18.3594 71.7773 20.752 74.1211 23.9746 74.1211Z" fill="#000000" fill-opacity="0.85"/>
 </g>
</svg>
