<?xml version="1.0" encoding="UTF-8"?>
<!--Generator: Apple Native CoreSVG 232.5-->
<!DOCTYPE svg
PUBLIC "-//W3C//DTD SVG 1.1//EN"
       "http://www.w3.org/Graphics/SVG/1.1/DTD/svg11.dtd">
<svg version="1.1" xmlns="http://www.w3.org/2000/svg" xmlns:xlink="http://www.w3.org/1999/xlink" width="99.6094" height="99.6582">
 <g>
  <rect height="99.6582" opacity="0" width="99.6094" x="0" y="0"/>
  <path d="M99.6094 49.8047C99.6094 77.002 77.0508 99.6094 49.8047 99.6094C22.6074 99.6094 0 77.002 0 49.8047C0 22.5586 22.5586 0 49.7559 0C77.002 0 99.6094 22.5586 99.6094 49.8047ZM8.34961 49.8047C8.34961 72.8516 26.7578 91.3086 49.8047 91.3086C72.8516 91.3086 91.3086 72.8516 91.3086 49.8047C91.3086 26.7578 72.8027 8.30078 49.7559 8.30078C26.709 8.30078 8.34961 26.7578 8.34961 49.8047Z" fill="#000000" fill-opacity="0.85"/>
  <path d="M57.4219 65.442L57.4219 75.9766C57.4219 79.3945 55.6152 81.2012 52.2949 81.2012L47.2656 81.2012C43.9941 81.2012 42.2363 79.3945 42.2363 75.9766L42.2363 50.2722ZM62.8418 30.0293C62.8418 32.373 61.9629 34.1797 60.6445 36.2305L59.1309 38.5742C58.0566 40.2344 57.4219 42.2363 57.4219 45.2148L57.4219 49.4629L36.7676 28.8086L36.7676 27.5391L62.8418 27.5391ZM62.8418 23.6328L62.8418 24.5605L36.7676 24.5605L36.7676 23.6328C36.7676 20.166 38.4766 18.4082 41.8945 18.4082L57.666 18.4082C61.1328 18.4082 62.8418 20.166 62.8418 23.6328Z" fill="#000000" fill-opacity="0.85"/>
  <path d="M71.8262 75C72.6562 75.8301 74.1211 75.8301 74.9512 75C75.8301 74.0723 75.8301 72.7539 74.9512 71.875L27.7344 24.6094C26.8555 23.7305 25.4395 23.7305 24.5605 24.6094C23.6816 25.4395 23.7305 26.9043 24.5605 27.7344Z" fill="#000000" fill-opacity="0.85"/>
 </g>
</svg>
