<?xml version="1.0" encoding="UTF-8"?>
<!--Generator: Apple Native CoreSVG 232.5-->
<!DOCTYPE svg
PUBLIC "-//W3C//DTD SVG 1.1//EN"
       "http://www.w3.org/Graphics/SVG/1.1/DTD/svg11.dtd">
<svg version="1.1" xmlns="http://www.w3.org/2000/svg" xmlns:xlink="http://www.w3.org/1999/xlink" width="93.3594" height="102.49">
 <g>
  <rect height="102.49" opacity="0" width="93.3594" x="0" y="0"/>
  <path d="M69.4824 4.05273C69.4824 6.29883 67.7734 8.20312 65.332 8.20312L65.0391 8.20313L65.0391 44.4336L89.8438 80.0293C92.1387 83.3496 93.3594 86.6699 93.3594 89.1602C93.3594 96.6309 88.3301 102.393 80.0293 102.393L13.3301 102.393C5.0293 102.393 0 96.6309 0 89.1602C0 86.6699 1.02539 83.5938 3.07617 80.6641L28.3203 44.4336L28.3203 8.20313L27.9785 8.20312C25.5371 8.20312 23.877 6.29883 23.877 4.05273C23.877 1.80664 25.5371 0 27.9785 0L65.332 0C67.7734 0 69.4824 1.80664 69.4824 4.05273ZM36.1328 43.0176L36.1328 48.7305L45.0684 48.7305C46.6797 48.7305 47.9004 47.5098 47.9004 45.8496C47.9004 44.3359 46.6309 43.0176 45.0684 43.0176ZM36.1328 29.1016L36.1328 34.8145L45.0684 34.8145C46.6797 34.8145 47.9004 33.5449 47.9004 31.8848C47.9004 30.3711 46.582 29.1016 45.0195 29.1016ZM36.1328 15.1367L36.1328 20.8496L45.0195 20.8496C46.6309 20.8496 47.8516 19.6289 47.8516 17.9688C47.8516 16.4551 46.5332 15.1367 44.9707 15.1367Z" fill="#000000" fill-opacity="0.85"/>
 </g>
</svg>
