<?xml version="1.0" encoding="UTF-8"?>
<!--Generator: Apple Native CoreSVG 232.5-->
<!DOCTYPE svg
PUBLIC "-//W3C//DTD SVG 1.1//EN"
       "http://www.w3.org/Graphics/SVG/1.1/DTD/svg11.dtd">
<svg version="1.1" xmlns="http://www.w3.org/2000/svg" xmlns:xlink="http://www.w3.org/1999/xlink" width="99.6094" height="99.6582">
 <g>
  <rect height="99.6582" opacity="0" width="99.6094" x="0" y="0"/>
  <path d="M49.8047 99.6094C77.0508 99.6094 99.6094 77.002 99.6094 49.8047C99.6094 22.5586 77.002 0 49.7559 0C22.5586 0 0 22.5586 0 49.8047C0 77.002 22.6074 99.6094 49.8047 99.6094ZM49.8047 91.3086C26.7578 91.3086 8.34961 72.8516 8.34961 49.8047C8.34961 26.7578 26.709 8.30078 49.7559 8.30078C72.8027 8.30078 91.3086 26.7578 91.3086 49.8047C91.3086 72.8516 72.8516 91.3086 49.8047 91.3086Z" fill="#000000" fill-opacity="0.85"/>
  <path d="M36.7676 24.5605L62.8418 24.5605L62.8418 23.6328C62.8418 20.166 61.1328 18.4082 57.666 18.4082L41.8945 18.4082C38.4766 18.4082 36.7676 20.166 36.7676 23.6328ZM47.2656 81.2012L52.2949 81.2012C55.6152 81.2012 57.4219 79.3945 57.4219 75.9766L57.4219 45.2148C57.4219 42.2363 58.0566 40.2344 59.1309 38.5742L60.6445 36.2305C61.9629 34.1797 62.8418 32.373 62.8418 30.0293L62.8418 27.5391L36.7676 27.5391L36.7676 30.0293C36.7676 32.373 37.6465 34.1797 38.9648 36.2305L40.4785 38.5742C41.5527 40.2344 42.2363 42.2363 42.2363 45.2148L42.2363 75.9766C42.2363 79.3945 43.9941 81.2012 47.2656 81.2012ZM45.1172 47.7051C45.1172 45.0684 47.168 43.0176 49.8047 43.0176C52.4414 43.0176 54.4922 45.0684 54.4922 47.7051L54.4922 55.7129C54.4922 58.3008 52.4414 60.4004 49.8047 60.4004C47.168 60.4004 45.1172 58.3008 45.1172 55.7129ZM49.8047 58.6914C51.6113 58.6914 52.7832 57.373 52.7832 55.7129C52.7832 54.0527 51.5137 52.6855 49.8047 52.6855C48.1445 52.6855 46.8262 54.0527 46.8262 55.7129C46.8262 57.373 48.0957 58.6914 49.8047 58.6914Z" fill="#000000" fill-opacity="0.85"/>
 </g>
</svg>
