<?xml version="1.0" encoding="UTF-8"?>
<!--Generator: Apple Native CoreSVG 232.5-->
<!DOCTYPE svg
PUBLIC "-//W3C//DTD SVG 1.1//EN"
       "http://www.w3.org/Graphics/SVG/1.1/DTD/svg11.dtd">
<svg version="1.1" xmlns="http://www.w3.org/2000/svg" xmlns:xlink="http://www.w3.org/1999/xlink" width="99.6094" height="99.6582">
 <g>
  <rect height="99.6582" opacity="0" width="99.6094" x="0" y="0"/>
  <path d="M99.6094 49.8535C99.6094 77.0996 77.0508 99.6582 49.8047 99.6582C22.6074 99.6582 0 77.0996 0 49.8535C0 22.6562 22.5586 0.0488281 49.7559 0.0488281C77.002 0.0488281 99.6094 22.6562 99.6094 49.8535ZM41.9922 76.8555C41.9922 80.3711 43.7988 82.2266 47.168 82.2266L52.3926 82.2266C55.8105 82.2266 57.666 80.3711 57.666 76.8555L57.666 65.9668L41.9922 50.293ZM23.877 23.877C22.998 24.8047 22.998 26.2695 23.877 27.0996L72.6074 75.8301C73.4375 76.6602 74.9512 76.6602 75.8301 75.8301C76.709 74.8535 76.709 73.4863 75.8301 72.6074L27.0996 23.877C26.2207 22.998 24.8047 22.998 23.877 23.877ZM36.377 26.9043L36.377 28.1182L57.666 49.386L57.666 45.1172C57.666 42.041 58.3008 39.9902 59.4238 38.2812L60.9863 35.8398C62.3535 33.7402 63.2324 31.9336 63.2324 29.4434L63.2324 26.9043ZM41.6504 17.4805C38.1348 17.4805 36.377 19.2871 36.377 22.8516L36.377 23.8281L63.2324 23.8281L63.2324 22.8516C63.2324 19.2871 61.4746 17.4805 57.9102 17.4805Z" fill="#000000" fill-opacity="0.85"/>
 </g>
</svg>
