<?xml version="1.0" encoding="UTF-8"?>
<!--Generator: Apple Native CoreSVG 232.5-->
<!DOCTYPE svg
PUBLIC "-//W3C//DTD SVG 1.1//EN"
       "http://www.w3.org/Graphics/SVG/1.1/DTD/svg11.dtd">
<svg version="1.1" xmlns="http://www.w3.org/2000/svg" xmlns:xlink="http://www.w3.org/1999/xlink" width="91.04" height="115.479">
 <g>
  <rect height="115.479" opacity="0" width="91.04" x="0" y="0"/>
  <path d="M36.9019 65.1164L36.9019 68.5547C36.9019 73.3887 40.7104 77.1484 45.5444 77.1484C46.5742 77.1484 47.5574 76.9778 48.4626 76.6536L59.5093 87.6778L59.5093 105.811C59.5093 112.158 56.2378 115.43 50.0854 115.43L40.9546 115.43C34.8022 115.43 31.5796 112.158 31.5796 105.811L31.5796 59.8049ZM69.4702 21.3867C69.4702 25.7324 67.8589 28.9551 65.4663 32.7148L62.6831 37.0605C60.73 40.0879 59.5093 43.75 59.5093 49.1699L59.5093 60.9277L54.187 55.6127L54.187 53.8086C54.187 49.0234 50.3784 45.2148 45.5444 45.2148C44.9897 45.2148 44.4485 45.265 43.9271 45.3667L21.6637 23.1335C21.6008 22.5711 21.5698 21.9897 21.5698 21.3867L21.5698 16.9434L69.4702 16.9434ZM69.4702 9.61914L69.4702 11.2793L21.5698 11.2793L21.5698 9.61914C21.5698 3.125 24.7437 0 30.9937 0L60.0952 0C66.3452 0 69.4702 3.125 69.4702 9.61914Z" fill="#000000" fill-opacity="0.85"/>
  <path d="M6.97021 27.1484L78.894 98.9746C80.3589 100.488 82.8003 100.488 84.2163 98.9746C85.6812 97.5098 85.6812 95.166 84.2163 93.7012L12.3413 21.8262C10.8765 20.3613 8.43506 20.3613 6.97021 21.8262C5.5542 23.2422 5.5542 25.7324 6.97021 27.1484Z" fill="#000000" fill-opacity="0.85"/>
 </g>
</svg>
