<?xml version="1.0" encoding="UTF-8"?>
<!--Generator: Apple Native CoreSVG 232.5-->
<!DOCTYPE svg
PUBLIC "-//W3C//DTD SVG 1.1//EN"
       "http://www.w3.org/Graphics/SVG/1.1/DTD/svg11.dtd">
<svg version="1.1" xmlns="http://www.w3.org/2000/svg" xmlns:xlink="http://www.w3.org/1999/xlink" width="93.5547" height="108.74">
 <g>
  <rect height="108.74" opacity="0" width="93.5547" x="0" y="0"/>
  <path d="M8.39844 63.9648C8.39844 85.5957 24.3164 108.74 56.0059 108.74C69.6777 108.74 80.127 102.295 80.127 94.1895C80.127 90.3809 77.4414 87.5 72.3145 86.9141C70.9961 86.7188 69.6777 87.2559 69.4336 88.8672C68.6035 95.6055 63.9648 100.391 57.7148 100.391C53.2715 100.391 50.5371 97.7539 50.5371 94.3359C50.5371 82.8613 84.5703 80.3711 84.5703 58.7402C84.5703 48.0957 77.0508 40.7227 67.041 40.7227C57.7148 40.7227 50.3906 45.9473 47.0703 53.9551C47.7539 41.9434 40.332 35.3516 31.2012 35.3516C16.3574 35.3516 8.39844 48.4863 8.39844 63.9648ZM15.7715 63.9648C15.7715 50.6348 21.4355 42.7246 30.6641 42.7246C38.5742 42.7246 43.1641 49.8047 43.457 58.7891C43.5547 62.207 47.7539 62.3047 48.9258 59.9609C52.9785 52.0508 59.9609 48.0957 66.8945 48.0957C72.9492 48.0957 77.1973 52.3438 77.1973 59.2285C77.1973 75.293 43.3105 77.3926 43.3105 94.3359C43.3105 96.6309 44.1895 98.7793 45.7031 100.439C25.5859 96.5332 15.7715 80.9082 15.7715 63.9648ZM20.2148 10.2051C35.8398 10.2051 50.7324 33.252 74.2676 33.252C86.5234 33.252 93.5547 25.5859 93.5547 15.7227C93.5547 12.4512 92.7246 8.83789 90.9668 5.46875C88.8184 1.31836 82.4219 4.05273 84.8145 8.64258C86.1816 11.2793 86.9141 13.9648 86.9141 16.3574C86.9141 22.4121 82.5684 26.3672 74.2676 26.3672C54.4434 26.3672 39.5508 3.32031 20.2148 3.32031C7.56836 3.32031 0 11.6699 0 21.4355C0 24.6094 0.732422 27.832 2.39258 31.0059C4.54102 35.1074 10.8398 32.2754 8.54492 27.832C7.27539 25.3906 6.68945 22.998 6.68945 20.8496C6.68945 14.7461 11.4746 10.2051 20.2148 10.2051ZM43.9941 54.248L47.0703 55.1758L50.8301 52.7344C52.9785 38.623 62.8418 30.0293 62.8418 16.8457C62.8418 8.30078 56.9336 1.36719 49.1211 1.36719C42.2363 1.36719 36.6699 6.54297 36.4746 13.5742L42.8711 15.4297C42.9688 11.1328 45.4102 8.25195 49.1211 8.25195C53.125 8.25195 55.957 11.7188 55.957 16.8457C55.957 27.3926 45.3125 36.5234 43.9941 54.248Z" fill="#000000" fill-opacity="0.85"/>
 </g>
</svg>
