<?xml version="1.0" encoding="UTF-8"?>
<!--Generator: Apple Native CoreSVG 232.5-->
<!DOCTYPE svg
PUBLIC "-//W3C//DTD SVG 1.1//EN"
       "http://www.w3.org/Graphics/SVG/1.1/DTD/svg11.dtd">
<svg version="1.1" xmlns="http://www.w3.org/2000/svg" xmlns:xlink="http://www.w3.org/1999/xlink" width="71.6797" height="89.3066">
 <g>
  <rect height="89.3066" opacity="0" width="71.6797" x="0" y="0"/>
  <path d="M12.9883 89.2578C26.709 89.2578 34.1797 82.0312 36.5723 66.9922L43.7012 22.4609C45.3125 12.5977 50.2441 8.20312 59.4238 8.20312C62.793 8.20312 65.625 8.93555 67.7246 9.13086C69.1406 9.17969 70.166 8.78906 70.8496 8.00781C71.3867 7.51953 71.6797 6.73828 71.6797 5.81055C71.6797 3.66211 70.166 2.19727 67.7734 1.31836C65.6738 0.537109 62.4023 0 58.8379 0C45.1172 0 37.1094 7.37305 34.7656 21.8262L27.6855 65.9668C25.9766 76.5137 21.5332 80.957 12.207 80.957C10.4492 80.957 8.78906 80.6641 7.86133 80.4688C6.49414 80.1758 5.17578 79.9316 3.90625 79.9316C1.41602 79.9316 0 81.4453 0 83.4961C0 85.6445 1.31836 87.1582 3.75977 87.9883C6.05469 88.8184 9.13086 89.2578 12.9883 89.2578ZM11.6699 45.8984L61.5723 45.8984C63.8184 45.8984 65.2344 44.5801 65.2344 42.4316C65.2344 40.1855 63.8184 38.7695 61.5723 38.7695L11.6699 38.7695C9.375 38.7695 7.95898 40.1855 7.95898 42.4316C7.95898 44.5312 9.375 45.8984 11.6699 45.8984Z" fill="#000000" fill-opacity="0.85"/>
 </g>
</svg>
