<?xml version="1.0" encoding="UTF-8"?>
<!--Generator: Apple Native CoreSVG 232.5-->
<!DOCTYPE svg
PUBLIC "-//W3C//DTD SVG 1.1//EN"
       "http://www.w3.org/Graphics/SVG/1.1/DTD/svg11.dtd">
<svg version="1.1" xmlns="http://www.w3.org/2000/svg" xmlns:xlink="http://www.w3.org/1999/xlink" width="89.8926" height="89.9902">
 <g>
  <rect height="89.9902" opacity="0" width="89.8926" x="0" y="0"/>
  <path d="M15.332 89.9902L74.5605 89.9902C84.8145 89.9902 89.8926 84.9121 89.8926 74.8535L89.8926 15.2344C89.8926 5.17578 84.8145 0.0976562 74.5605 0.0976562L15.332 0.0976562C5.12695 0.0976562 0 5.12695 0 15.2344L0 74.8535C0 84.9609 5.12695 89.9902 15.332 89.9902ZM15.4297 82.1289C10.5469 82.1289 7.86133 79.541 7.86133 74.4629L7.86133 15.625C7.86133 10.5469 10.5469 7.95898 15.4297 7.95898L74.4629 7.95898C79.2969 7.95898 82.0312 10.5469 82.0312 15.625L82.0312 74.4629C82.0312 79.541 79.2969 82.1289 74.4629 82.1289Z" fill="#000000" fill-opacity="0.85"/>
  <path d="M33.3496 68.457C40.7715 68.457 44.873 64.5996 46.1914 56.4941L47.8027 46.3867L58.0566 46.3867C59.7168 46.3867 60.7422 45.3613 60.7422 43.8477C60.7422 42.2363 59.7168 41.1621 58.0566 41.1621L48.6328 41.1621L49.8047 33.7402C50.5859 29.0039 52.5879 27.002 56.8848 27.002C58.3496 27.002 58.9355 27.1484 59.7168 27.2949C60.1562 27.3926 60.5469 27.4414 61.1328 27.4414C62.8906 27.4414 63.916 26.3184 63.916 24.8535C63.916 23.4863 63.1348 22.4121 61.4746 21.8262C60.3027 21.3867 58.6426 21.1914 56.5918 21.1914C49.1699 21.1914 45.0684 25.0977 43.75 33.2031L42.4805 41.1621L32.666 41.1621C31.0547 41.1621 30.0293 42.2363 30.0293 43.8477C30.0293 45.3613 31.0547 46.3867 32.666 46.3867L41.6992 46.3867L40.1855 55.7129C39.3555 60.6445 37.3535 62.6953 33.0566 62.6953C31.5918 62.6953 31.0059 62.5 30.2246 62.3535C29.7852 62.2559 29.3945 62.207 28.8086 62.207C27.0508 62.207 26.0254 63.3301 26.0254 64.7949C26.0254 66.2109 26.8066 67.2363 28.4668 67.8223C29.6387 68.3105 31.25 68.457 33.3496 68.457Z" fill="#000000" fill-opacity="0.85"/>
 </g>
</svg>
