<?xml version="1.0" encoding="UTF-8"?>
<!--Generator: Apple Native CoreSVG 232.5-->
<!DOCTYPE svg
PUBLIC "-//W3C//DTD SVG 1.1//EN"
       "http://www.w3.org/Graphics/SVG/1.1/DTD/svg11.dtd">
<svg version="1.1" xmlns="http://www.w3.org/2000/svg" xmlns:xlink="http://www.w3.org/1999/xlink" width="79.1016" height="72.6074">
 <g>
  <rect height="72.6074" opacity="0" width="79.1016" x="0" y="0"/>
  <path d="M12.0605 72.6074C14.502 72.6074 16.1621 70.8984 16.1621 68.3105L16.1621 27.4902L24.2188 27.4902C26.3672 27.4902 27.7832 26.123 27.7832 24.0234C27.7832 21.9727 26.3184 20.5566 24.2188 20.5566L16.1621 20.5566L16.1621 14.8926C16.1621 9.52148 18.1152 7.22656 22.7539 7.22656C24.1211 7.22656 25.1465 7.12891 25.8301 6.88477C27.2949 6.34766 27.9785 5.46875 27.9785 4.00391C27.9785 1.51367 25.5859 0.0976562 21.1914 0.0976562C12.5488 0.0976562 7.95898 5.12695 7.95898 14.5508L7.95898 20.5566L3.56445 20.5566C1.46484 20.5566 0 21.9727 0 24.0234C0 26.123 1.41602 27.4902 3.56445 27.4902L7.95898 27.4902L7.95898 68.3105C7.95898 70.8984 9.61914 72.6074 12.0605 72.6074ZM40.0879 72.6074C42.4805 72.6074 44.2383 70.8008 44.2383 68.2617L44.2383 41.4062C44.2383 32.2754 49.7559 26.2207 58.252 26.2207C66.3574 26.2207 70.8984 31.0547 70.8984 39.6484L70.8984 68.2617C70.8984 70.8496 72.6074 72.6074 75 72.6074C77.3926 72.6074 79.1016 70.8008 79.1016 68.2617L79.1016 38.4766C79.1016 26.3672 71.9727 18.8477 60.4004 18.8477C52.5391 18.8477 45.9961 23.2422 43.7988 29.834L43.7988 29.834L43.7988 23.0469C43.7988 20.6055 42.1387 18.8477 39.8926 18.8477C37.6465 18.8477 35.9863 20.6055 35.9863 23.0469L35.9863 68.2617C35.9863 70.8008 37.6953 72.6074 40.0879 72.6074Z" fill="#000000" fill-opacity="0.85"/>
 </g>
</svg>
