<?xml version="1.0" encoding="UTF-8"?>
<!--Generator: Apple Native CoreSVG 232.5-->
<!DOCTYPE svg
PUBLIC "-//W3C//DTD SVG 1.1//EN"
       "http://www.w3.org/Graphics/SVG/1.1/DTD/svg11.dtd">
<svg version="1.1" xmlns="http://www.w3.org/2000/svg" xmlns:xlink="http://www.w3.org/1999/xlink" width="110.889" height="89.9902">
 <g>
  <rect height="89.9902" opacity="0" width="110.889" x="0" y="0"/>
  <path d="M0 74.2188C0 84.3262 5.12695 89.3555 15.332 89.3555L97.0215 89.3555C105.762 89.3555 110.889 84.2773 110.889 74.2188L110.889 34.1797L0 34.1797ZM0 27.7832L110.889 27.7832L110.889 24.0723C110.889 14.0137 105.713 8.93555 95.5566 8.93555L48.6816 8.93555C45.3613 8.93555 43.3594 8.1543 40.918 6.05469L37.9395 3.61328C34.7168 0.878906 32.2266 0 27.3926 0L13.4766 0C4.93164 0 0 4.88281 0 14.6973Z" fill="#000000" fill-opacity="0.85"/>
 </g>
</svg>
