<?xml version="1.0" encoding="UTF-8"?>
<!--Generator: Apple Native CoreSVG 232.5-->
<!DOCTYPE svg
PUBLIC "-//W3C//DTD SVG 1.1//EN"
       "http://www.w3.org/Graphics/SVG/1.1/DTD/svg11.dtd">
<svg version="1.1" xmlns="http://www.w3.org/2000/svg" xmlns:xlink="http://www.w3.org/1999/xlink" width="99.6094" height="99.6582">
 <g>
  <rect height="99.6582" opacity="0" width="99.6094" x="0" y="0"/>
  <path d="M99.6094 49.8535C99.6094 77.0996 77.0508 99.6582 49.8047 99.6582C22.6074 99.6582 0 77.0996 0 49.8535C0 22.6562 22.5586 0.0488281 49.7559 0.0488281C77.002 0.0488281 99.6094 22.6562 99.6094 49.8535ZM21.6797 44.1406L21.6797 65.1855C21.6797 70.166 24.2676 72.7051 29.3945 72.7051L71.0938 72.7051C75.4883 72.7051 78.0273 70.166 78.0273 65.1855L78.0273 44.1406ZM28.3691 26.1719C24.1211 26.1719 21.6797 28.6133 21.6797 33.4961L21.6797 40.0391L78.0273 40.0391L78.0273 38.1836C78.0273 33.1543 75.4395 30.6152 70.3125 30.6152L46.3867 30.6152C44.6289 30.6152 43.75 30.127 42.5293 29.1504L40.9668 27.9297C39.3066 26.6113 38.0859 26.1719 35.791 26.1719Z" fill="#000000" fill-opacity="0.85"/>
 </g>
</svg>
