<?xml version="1.0" encoding="UTF-8"?>
<!--Generator: Apple Native CoreSVG 232.5-->
<!DOCTYPE svg
PUBLIC "-//W3C//DTD SVG 1.1//EN"
       "http://www.w3.org/Graphics/SVG/1.1/DTD/svg11.dtd">
<svg version="1.1" xmlns="http://www.w3.org/2000/svg" xmlns:xlink="http://www.w3.org/1999/xlink" width="110.889" height="89.9902">
 <g>
  <rect height="89.9902" opacity="0" width="110.889" x="0" y="0"/>
  <path d="M15.332 89.3555L97.0215 89.3555C105.762 89.3555 110.889 84.2773 110.889 74.2188L110.889 24.0723C110.889 14.0137 105.713 8.93555 95.5566 8.93555L48.6816 8.93555C45.3613 8.93555 43.3594 8.1543 40.918 6.05469L37.9395 3.61328C34.7168 0.878906 32.2266 0 27.3926 0L13.4766 0C4.93164 0 0 4.88281 0 14.6973L0 74.2188C0 84.3262 5.12695 89.3555 15.332 89.3555ZM15.4297 81.4941C10.5469 81.4941 7.86133 78.9062 7.86133 73.8281L7.86133 15.1367C7.86133 10.3027 10.4004 7.8125 15.0879 7.8125L25.3906 7.8125C28.6133 7.8125 30.5664 8.64258 33.0566 10.7422L36.0352 13.2324C39.209 15.8691 41.7969 16.7969 46.6309 16.7969L95.4102 16.7969C100.244 16.7969 103.027 19.4336 103.027 24.5117L103.027 73.877C103.027 78.9062 100.244 81.4941 95.4102 81.4941ZM4.78516 34.668L106.055 34.668L106.055 27.2949L4.78516 27.2949Z" fill="#000000" fill-opacity="0.85"/>
 </g>
</svg>
