<?xml version="1.0" encoding="UTF-8"?>
<!--Generator: Apple Native CoreSVG 232.5-->
<!DOCTYPE svg
PUBLIC "-//W3C//DTD SVG 1.1//EN"
       "http://www.w3.org/Graphics/SVG/1.1/DTD/svg11.dtd">
<svg version="1.1" xmlns="http://www.w3.org/2000/svg" xmlns:xlink="http://www.w3.org/1999/xlink" width="99.6094" height="99.6582">
 <g>
  <rect height="99.6582" opacity="0" width="99.6094" x="0" y="0"/>
  <path d="M49.8047 99.6094C77.0508 99.6094 99.6094 77.002 99.6094 49.8047C99.6094 22.5586 77.002 0 49.7559 0C22.5586 0 0 22.5586 0 49.8047C0 77.002 22.6074 99.6094 49.8047 99.6094ZM49.8047 91.3086C26.7578 91.3086 8.34961 72.8516 8.34961 49.8047C8.34961 26.7578 26.709 8.30078 49.7559 8.30078C72.8027 8.30078 91.3086 26.7578 91.3086 49.8047C91.3086 72.8516 72.8516 91.3086 49.8047 91.3086Z" fill="#000000" fill-opacity="0.85"/>
  <path d="M30.1758 73.877C34.7656 75.2441 39.8438 75.3418 44.9707 74.3164L25.2441 54.6387C24.2188 59.7168 24.3652 64.8438 25.7324 69.4336C26.5625 72.168 27.3926 72.998 30.1758 73.877ZM63.9648 63.9648C68.1152 59.8633 71.0449 55.127 72.8516 50.0977L49.4629 26.7578C44.4824 28.5156 39.6973 31.4941 35.5957 35.6445C31.4453 39.7461 28.5156 44.5312 26.709 49.5117L50.0488 72.8516C55.0781 71.0938 59.8145 68.1152 63.9648 63.9648ZM46.3867 60.0586C45.8496 60.498 45.166 60.4492 44.6289 60.0098L39.502 54.9316C39.0625 54.4922 39.0625 53.7598 39.502 53.2227C40.0391 52.7832 40.7715 52.7832 41.2109 53.2227L42.9199 54.9316L44.6777 53.1738L42.9688 51.5137C42.4805 51.0742 42.4805 50.2441 42.9688 49.8047C43.4082 49.2676 44.1895 49.2676 44.6777 49.7559L46.3867 51.5137L48.0957 49.707L46.4355 47.998C45.9473 47.5586 45.8984 46.7773 46.4355 46.3867C46.875 45.8496 47.6074 45.8496 48.0469 46.3379L49.8047 48.0957L51.6113 46.2891L49.8535 44.5801C49.3652 44.1406 49.3652 43.3594 49.8535 42.8711C50.3906 42.4316 51.123 42.4316 51.5137 42.8711L53.2227 44.5801L55.0293 42.8711L53.2715 41.1621C52.8809 40.6738 52.832 39.8926 53.2715 39.4043C53.8086 39.0137 54.4922 38.9648 54.9805 39.4043L60.1562 44.5312C60.5957 45.0195 60.5469 45.8008 60.1562 46.2891C59.668 46.7285 58.9355 46.7285 58.3984 46.2402L56.6895 44.5312L54.9316 46.2891L56.6895 48.0469C57.1289 48.4375 57.1289 49.2188 56.6895 49.707C56.2012 50.1953 55.4688 50.1465 54.9805 49.6582L53.2227 47.9492L51.4648 49.707L53.2227 51.4648C53.6621 51.9043 53.7109 52.7344 53.2227 53.125C52.7832 53.6621 52.002 53.6133 51.5625 53.125L49.8047 51.4648L47.998 53.1738L49.7559 54.8828C50.293 55.3711 50.293 56.1523 49.7559 56.5918C49.3164 57.0801 48.584 57.1289 48.0469 56.5918L46.3867 54.8828L44.6289 56.5918L46.3867 58.3984C46.7773 58.8379 46.7773 59.5703 46.3867 60.0586ZM73.8281 30.1758C72.9492 27.4414 72.1191 26.6113 69.3848 25.7324C64.7949 24.3652 59.7168 24.2676 54.5898 25.293L74.2676 44.9707C75.3418 39.8438 75.1953 34.7656 73.8281 30.1758Z" fill="#000000" fill-opacity="0.85"/>
 </g>
</svg>
