<?xml version="1.0" encoding="UTF-8"?>
<!--Generator: Apple Native CoreSVG 232.5-->
<!DOCTYPE svg
PUBLIC "-//W3C//DTD SVG 1.1//EN"
       "http://www.w3.org/Graphics/SVG/1.1/DTD/svg11.dtd">
<svg version="1.1" xmlns="http://www.w3.org/2000/svg" xmlns:xlink="http://www.w3.org/1999/xlink" width="67.0898" height="120.459">
 <g>
  <rect height="120.459" opacity="0" width="67.0898" x="0" y="0"/>
  <path d="M16.748 113.232C20.8496 113.232 23.3887 110.938 23.3398 106.934L22.3633 52.0996C22.3633 50.3906 23.0957 49.1211 24.6094 48.4375C31.0547 45.6055 33.8379 42.627 33.4961 34.082L32.1289 4.10156C32.0312 1.95312 30.7617 0.732422 28.7598 0.732422C26.8555 0.732422 25.6836 2.00195 25.6836 4.19922L26.0254 33.3496C26.0254 35.0586 24.9512 36.1328 23.3398 36.1328C21.6797 36.1328 20.5078 35.1074 20.5078 33.4961L20.0195 3.32031C19.9707 1.2207 18.75 0 16.748 0C14.7461 0 13.5742 1.2207 13.5254 3.32031L13.0371 33.4961C13.0371 35.1074 11.8652 36.1328 10.2051 36.1328C8.59375 36.1328 7.4707 35.0586 7.4707 33.3496L7.8125 4.19922C7.8125 2.00195 6.68945 0.732422 4.73633 0.732422C2.73438 0.732422 1.46484 1.95312 1.36719 4.10156L0.0488281 34.082C-0.341797 42.627 2.44141 45.6055 8.88672 48.4375C10.4004 49.1211 11.1328 50.3906 11.1328 52.0996L10.2051 106.934C10.1562 110.938 12.6465 113.232 16.748 113.232ZM54.9316 70.6543L53.9062 106.689C53.7598 110.938 56.3477 113.232 60.4004 113.232C64.5508 113.232 67.0898 111.133 67.0898 107.227L67.0898 3.66211C67.0898 1.17188 65.3809 0 63.623 0C61.7676 0 60.5469 0.976562 58.9844 3.27148C51.123 14.3066 45.9473 34.9609 45.9473 54.4922L45.9473 56.8848C45.9473 60.2539 47.168 62.7441 49.6094 64.3555L52.4902 66.3086C54.248 67.5293 55.0293 68.8965 54.9316 70.6543Z" fill="#000000" fill-opacity="0.85"/>
 </g>
</svg>
