<?xml version="1.0" encoding="UTF-8"?>
<!--Generator: Apple Native CoreSVG 232.5-->
<!DOCTYPE svg
PUBLIC "-//W3C//DTD SVG 1.1//EN"
       "http://www.w3.org/Graphics/SVG/1.1/DTD/svg11.dtd">
<svg version="1.1" xmlns="http://www.w3.org/2000/svg" xmlns:xlink="http://www.w3.org/1999/xlink" width="99.6094" height="99.6582">
 <g>
  <rect height="99.6582" opacity="0" width="99.6094" x="0" y="0"/>
  <path d="M49.8047 99.6094C77.0508 99.6094 99.6094 77.002 99.6094 49.8047C99.6094 22.5586 77.002 0 49.7559 0C22.5586 0 0 22.5586 0 49.8047C0 77.002 22.6074 99.6094 49.8047 99.6094ZM49.8047 91.3086C26.7578 91.3086 8.34961 72.8516 8.34961 49.8047C8.34961 26.7578 26.709 8.30078 49.7559 8.30078C72.8027 8.30078 91.3086 26.7578 91.3086 49.8047C91.3086 72.8516 72.8516 91.3086 49.8047 91.3086Z" fill="#000000" fill-opacity="0.85"/>
  <path d="M39.4531 81.7871C41.748 81.7871 43.2129 80.5176 43.1641 78.2715L42.627 47.3145C42.627 46.3379 43.0176 45.6055 43.8965 45.2148C47.5098 43.6523 49.1699 41.9922 48.877 37.1094L48.0957 20.2148C48.0469 18.9941 47.3633 18.2617 46.2402 18.2617C45.166 18.2617 44.4824 19.043 44.4824 20.2637L44.7266 36.7676C44.7266 37.6953 44.043 38.3301 43.1641 38.3301C42.1875 38.3301 41.5039 37.6953 41.5039 36.8164L41.3086 19.8242C41.3086 18.6035 40.5273 17.9199 39.4531 17.9199C38.3301 17.9199 37.5977 18.6035 37.5977 19.8242L37.3047 36.8164C37.3047 37.6953 36.6699 38.3301 35.7422 38.3301C34.8633 38.3301 34.1797 37.6953 34.1797 36.7676L34.4238 20.2637C34.4238 19.043 33.7402 18.2617 32.666 18.2617C31.543 18.2617 30.8105 18.9941 30.7617 20.2148L30.0293 37.1094C29.834 41.9922 31.3965 43.6523 35.0586 45.2148C35.8887 45.6055 36.2793 46.3379 36.2793 47.3145L35.7422 78.2715C35.6934 80.5176 37.1582 81.7871 39.4531 81.7871ZM58.5938 58.3496L57.959 78.125C57.8613 80.5176 59.375 81.7871 61.6211 81.7871C64.0137 81.7871 65.4297 80.6152 65.4297 78.418L65.4297 19.9707C65.4297 18.5547 64.4043 17.9199 63.4766 17.9199C62.4023 17.9199 61.7188 18.5059 60.8398 19.7754C56.3965 25.9766 53.4668 37.6465 53.4668 48.6328L53.4668 50.4883C53.4668 52.4414 54.1992 53.7598 55.5664 54.7363L57.1777 55.8594C58.1543 56.543 58.5938 57.2754 58.5938 58.3496Z" fill="#000000" fill-opacity="0.85"/>
 </g>
</svg>
