<?xml version="1.0" encoding="UTF-8"?>
<!--Generator: Apple Native CoreSVG 232.5-->
<!DOCTYPE svg
PUBLIC "-//W3C//DTD SVG 1.1//EN"
       "http://www.w3.org/Graphics/SVG/1.1/DTD/svg11.dtd">
<svg version="1.1" xmlns="http://www.w3.org/2000/svg" xmlns:xlink="http://www.w3.org/1999/xlink" width="106.641" height="80.7129">
 <g>
  <rect height="80.7129" opacity="0" width="106.641" x="0" y="0"/>
  <path d="M19.7266 80.7129C22.0215 80.7129 23.9258 78.9551 23.9258 76.6602L23.9258 4.15039C23.9258 1.85547 22.0215 0.0488281 19.7266 0.0488281C17.4316 0.0488281 15.5762 1.85547 15.5762 4.15039L15.5762 76.6602C15.5762 78.9551 17.4316 80.7129 19.7266 80.7129ZM46.2891 78.7598C48.291 78.7598 49.9512 78.125 51.9531 76.9531L101.709 47.6562C105.127 45.6055 106.641 43.1641 106.641 40.3809C106.641 37.5977 105.176 35.1562 101.709 33.1055L51.9531 3.80859C49.9512 2.63672 48.291 2.00195 46.2891 2.00195C42.4805 2.00195 39.2578 4.93164 39.2578 10.4004L39.2578 70.3613C39.2578 75.8301 42.4805 78.7598 46.2891 78.7598ZM48.4375 69.7266C47.7539 69.7266 47.1191 69.2383 47.1191 68.2617L47.1191 12.5C47.1191 11.5234 47.7539 11.0352 48.4375 11.0352C48.7793 11.0352 49.1699 11.1816 49.6582 11.4746L96.0449 39.0137C96.7285 39.4043 97.1191 39.6973 97.1191 40.3809C97.1191 41.0156 96.7285 41.3574 96.0449 41.748L49.6582 69.2871C49.1699 69.5801 48.7793 69.7266 48.4375 69.7266Z" fill="#000000" fill-opacity="0.85"/>
 </g>
</svg>
