<?xml version="1.0" encoding="UTF-8"?>
<!--Generator: Apple Native CoreSVG 232.5-->
<!DOCTYPE svg
PUBLIC "-//W3C//DTD SVG 1.1//EN"
       "http://www.w3.org/Graphics/SVG/1.1/DTD/svg11.dtd">
<svg version="1.1" xmlns="http://www.w3.org/2000/svg" xmlns:xlink="http://www.w3.org/1999/xlink" width="99.6094" height="99.6582">
 <g>
  <rect height="99.6582" opacity="0" width="99.6094" x="0" y="0"/>
  <path d="M49.8047 99.6094C77.0508 99.6094 99.6094 77.002 99.6094 49.8047C99.6094 22.5586 77.002 0 49.7559 0C22.5586 0 0 22.5586 0 49.8047C0 77.002 22.6074 99.6094 49.8047 99.6094ZM49.8047 91.3086C26.7578 91.3086 8.34961 72.8516 8.34961 49.8047C8.34961 26.7578 26.709 8.30078 49.7559 8.30078C72.8027 8.30078 91.3086 26.7578 91.3086 49.8047C91.3086 72.8516 72.8516 91.3086 49.8047 91.3086Z" fill="#000000" fill-opacity="0.85"/>
  <path d="M56.4941 67.7734C57.4219 67.7734 58.2031 67.4805 59.1309 66.9434L82.4219 53.2227C83.9844 52.2949 84.7168 51.123 84.7168 49.8535C84.7168 48.584 83.9844 47.4121 82.4219 46.4844L59.1309 32.7637C58.2031 32.2266 57.4219 31.9336 56.4941 31.9336C54.7363 31.9336 53.2227 33.3008 53.2227 35.791L53.2227 63.916C53.2227 66.4062 54.7363 67.7734 56.4941 67.7734ZM25.1465 67.7734C26.0742 67.7734 26.9043 67.4805 27.7832 66.9434L51.0742 53.2227C52.6855 52.2949 53.3691 51.123 53.3691 49.8535C53.3691 48.584 52.6855 47.4121 51.0742 46.4844L27.7832 32.7637C26.9043 32.2266 26.0742 31.9336 25.1465 31.9336C23.3887 31.9336 21.9238 33.3008 21.9238 35.791L21.9238 63.916C21.9238 66.4062 23.3887 67.7734 25.1465 67.7734Z" fill="#000000" fill-opacity="0.85"/>
 </g>
</svg>
