<?xml version="1.0" encoding="UTF-8"?>
<!--Generator: Apple Native CoreSVG 232.5-->
<!DOCTYPE svg
PUBLIC "-//W3C//DTD SVG 1.1//EN"
       "http://www.w3.org/Graphics/SVG/1.1/DTD/svg11.dtd">
<svg version="1.1" xmlns="http://www.w3.org/2000/svg" xmlns:xlink="http://www.w3.org/1999/xlink" width="121.24" height="79.541">
 <g>
  <rect height="79.541" opacity="0" width="121.24" x="0" y="0"/>
  <path d="M32.1777 79.541C36.4746 79.541 38.6719 77.2949 38.6719 72.998L38.6719 6.49414C38.6719 2.24609 36.4746 0 32.1777 0L21.0938 0C16.7969 0 14.5508 2.05078 14.5508 6.49414L14.5508 72.998C14.5508 77.2949 16.7969 79.541 21.0938 79.541ZM60.9375 78.0762C62.9395 78.0762 64.5996 77.4414 66.5527 76.2695L116.309 47.0215C119.775 44.9707 121.24 42.5293 121.24 39.7461C121.24 36.9141 119.775 34.5215 116.309 32.4707L66.5527 3.17383C64.5508 2.00195 62.9395 1.36719 60.9375 1.36719C57.1289 1.36719 53.9062 4.29688 53.9062 9.76562L53.9062 69.7266C53.9062 75.1953 57.1289 78.0762 60.9375 78.0762Z" fill="#000000" fill-opacity="0.85"/>
 </g>
</svg>
