<?xml version="1.0" encoding="UTF-8"?>
<!--Generator: Apple Native CoreSVG 232.5-->
<!DOCTYPE svg
PUBLIC "-//W3C//DTD SVG 1.1//EN"
       "http://www.w3.org/Graphics/SVG/1.1/DTD/svg11.dtd">
<svg version="1.1" xmlns="http://www.w3.org/2000/svg" xmlns:xlink="http://www.w3.org/1999/xlink" width="142.529" height="80.7129">
 <g>
  <rect height="80.7129" opacity="0" width="142.529" x="0" y="0"/>
  <path d="M138.379 80.7129C140.674 80.7129 142.529 78.9551 142.529 76.6602L142.529 4.15039C142.529 1.85547 140.674 0.0488281 138.379 0.0488281C136.084 0.0488281 134.18 1.85547 134.18 4.15039L134.18 76.6602C134.18 78.9551 136.084 80.7129 138.379 80.7129ZM7.03125 78.7598C9.0332 78.7598 10.6445 78.125 12.6465 76.9531L62.4023 47.6562C65.8691 45.6055 67.334 43.1641 67.334 40.3809C67.334 37.5977 65.8691 35.1562 62.4023 33.1055L12.6465 3.80859C10.6445 2.63672 9.0332 2.00195 7.03125 2.00195C3.17383 2.00195 0 4.93164 0 10.4004L0 70.3613C0 75.8301 3.17383 78.7598 7.03125 78.7598ZM9.17969 69.7266C8.44727 69.7266 7.8125 69.2383 7.8125 68.2617L7.8125 12.5C7.8125 11.5234 8.44727 11.0352 9.17969 11.0352C9.47266 11.0352 9.86328 11.1816 10.3516 11.4746L56.7871 39.0137C57.4707 39.4043 57.8125 39.6973 57.8125 40.3809C57.8125 41.0156 57.4219 41.3574 56.7871 41.748L10.3516 69.2871C9.86328 69.5801 9.47266 69.7266 9.17969 69.7266ZM74.1211 78.7598C76.123 78.7598 77.7832 78.125 79.7363 76.9531L129.492 47.6562C132.959 45.6055 134.424 43.1641 134.424 40.3809C134.424 37.5977 132.959 35.1562 129.492 33.1055L79.7363 3.80859C77.7344 2.63672 76.123 2.00195 74.1211 2.00195C70.3125 2.00195 67.0898 4.93164 67.0898 10.4004L67.0898 70.3613C67.0898 75.8301 70.3125 78.7598 74.1211 78.7598ZM76.2695 69.7266C75.5371 69.7266 74.9512 69.2383 74.9512 68.2617L74.9512 12.5C74.9512 11.5234 75.5371 11.0352 76.2695 11.0352C76.5625 11.0352 76.9531 11.1816 77.4414 11.4746L123.877 39.0137C124.561 39.4043 124.902 39.6973 124.902 40.3809C124.902 41.0156 124.561 41.3574 123.877 41.748L77.4414 69.2871C76.9531 69.5801 76.5625 69.7266 76.2695 69.7266Z" fill="#000000" fill-opacity="0.85"/>
 </g>
</svg>
