<?xml version="1.0" encoding="UTF-8"?>
<!--Generator: Apple Native CoreSVG 232.5-->
<!DOCTYPE svg
PUBLIC "-//W3C//DTD SVG 1.1//EN"
       "http://www.w3.org/Graphics/SVG/1.1/DTD/svg11.dtd">
<svg version="1.1" xmlns="http://www.w3.org/2000/svg" xmlns:xlink="http://www.w3.org/1999/xlink" width="122.313" height="96.5332">
 <g>
  <rect height="96.5332" opacity="0" width="122.313" x="0" y="0"/>
  <path d="M51.3908 58.8867C65.4045 58.8867 76.2932 47.8027 76.2932 32.1777C76.2932 24.8047 74.1936 18.1641 70.3362 12.9883L61.01 22.3633C63.3537 25.2441 64.7209 28.9551 64.7209 32.959C64.7209 41.5527 58.7151 47.7539 50.9026 47.7539C44.6037 47.7539 39.6233 43.6035 39.6233 38.8184C39.6233 37.207 40.9416 36.1816 42.3576 36.1816C43.4807 36.1816 44.5061 36.8652 44.8967 38.3789C45.5315 40.6738 47.4846 42.4316 50.6096 42.4316C55.6389 42.4316 58.7639 38.8672 58.7639 33.3496C58.7639 26.709 53.1487 21.5332 45.9221 21.5332C37.0354 21.5332 29.6135 29.1504 29.6135 38.8184C29.6135 50.0488 38.7932 58.8867 51.3908 58.8867ZM45.8244 15.4297C49.5842 15.4785 53.5393 16.5039 56.7619 18.5059L66.5276 8.78906C61.3029 3.90625 54.1252 0.78125 45.8244 0.244141ZM31.469 20.8496C34.008 18.7012 36.9377 17.0898 40.1604 16.2109L40.1604 0.0976562C31.9084 0.488281 24.4377 3.125 18.1877 7.4707ZM0.707245 35.8887L23.8029 35.8887C24.1447 32.0312 25.6096 28.1738 27.758 25.0488L13.7444 10.9863C7.00607 17.1875 2.31857 25.7812 0.707245 35.8887ZM0.0236511 44.1406C0.0236511 55.5664 3.14865 65.625 8.81271 73.877L28.6858 53.9551C25.9514 50.3418 24.2424 46.0938 23.7053 41.5527L0.0724792 41.5527C0.0236511 42.4805 0.0236511 43.3105 0.0236511 44.1406ZM12.2795 78.418C20.5315 87.7441 32.4944 93.9941 47.0451 95.8984L47.0451 64.5996C41.3811 63.8672 36.4006 61.5234 32.5432 58.0566ZM52.758 96.4355C54.0276 96.5332 55.3947 96.5332 56.7131 96.5332C70.7756 96.5332 83.3733 92.5293 93.8225 85.4004L68.383 60.1074C64.1838 62.8906 58.9104 64.6973 52.758 64.9414ZM98.3147 82.1289C110.229 72.5098 118.627 58.5449 122.143 43.1641C123.071 39.3066 120.043 36.9629 116.967 36.9629L82.0061 36.9629C81.469 43.5059 78.4416 50.9766 72.7287 56.543Z" fill="#000000" fill-opacity="0.85"/>
 </g>
</svg>
