<?xml version="1.0" encoding="UTF-8"?>
<!--Generator: Apple Native CoreSVG 232.5-->
<!DOCTYPE svg
PUBLIC "-//W3C//DTD SVG 1.1//EN"
       "http://www.w3.org/Graphics/SVG/1.1/DTD/svg11.dtd">
<svg version="1.1" xmlns="http://www.w3.org/2000/svg" xmlns:xlink="http://www.w3.org/1999/xlink" width="122.312" height="96.5332">
 <g>
  <rect height="96.5332" opacity="0" width="122.312" x="0" y="0"/>
  <path d="M56.9079 96.5332C90.1598 96.5332 115.306 73.7793 122.142 43.1641C122.972 39.5996 120.677 36.9629 116.966 36.9629L72.3376 36.9629L72.3376 44.4824L117.894 44.4824L114.867 41.8457C108.226 69.7266 85.6188 89.0625 56.9079 89.0625C27.318 89.0625 7.445 70.6055 7.445 44.1895C7.445 22.8516 22.5817 7.51953 42.6012 7.51953C58.0798 7.51953 69.1149 17.5781 69.1149 31.7383C69.1149 43.457 61.7419 51.9531 51.3903 51.9531C42.6501 51.9531 36.5954 46.1914 36.5954 38.8184C36.5954 32.959 40.4528 28.5156 45.9216 28.5156C50.3161 28.5156 52.904 31.1523 52.904 34.6191C52.904 37.3047 51.3415 39.1602 48.9977 39.1602C47.0934 39.1602 46.4587 38.2324 45.9216 37.3047C45.4333 36.4258 44.7009 35.8887 43.4313 35.8887C41.9177 35.8887 40.3552 37.1094 40.3552 39.3555C40.3552 42.5293 43.236 46.6797 48.9489 46.6797C55.3454 46.6797 60.4235 41.8945 60.4235 34.6191C60.4235 27.002 54.0759 20.9961 45.9216 20.9961C36.7419 20.9961 29.0759 28.8574 29.0759 38.8184C29.0759 50.3418 38.4997 59.4238 51.3903 59.4238C69.7009 59.4238 76.5856 43.0664 76.5856 31.7383C76.5856 13.3301 62.3278 0.0488281 42.6012 0.0488281C18.3337 0.0488281 0.0231218 18.5547 0.0231218 44.1895C0.0231218 74.8535 22.9235 96.5332 56.9079 96.5332ZM66.1852 9.13086L48.6559 26.709L52.6598 30.7129L70.1891 13.1836ZM40.2087 1.66016L40.2087 27.002L45.8239 27.002L45.8239 1.66016ZM15.5016 12.8418L34.0075 31.3965L37.9626 27.3438L19.5055 8.78906ZM5.63836 41.5527L32.7868 41.5527L32.7868 35.8887L5.63836 35.8887ZM15.6969 74.9512L38.1579 52.5391L34.154 48.5352L11.7419 70.9473ZM47.0446 92.1387L52.7087 92.1387L52.7087 56.9336L47.0446 56.9336ZM90.5016 82.3242L94.4567 78.2715L65.3063 49.0723L61.3024 53.0762Z" fill="#000000" fill-opacity="0.85"/>
 </g>
</svg>
