<?xml version="1.0" encoding="UTF-8"?>
<!--Generator: Apple Native CoreSVG 232.5-->
<!DOCTYPE svg
PUBLIC "-//W3C//DTD SVG 1.1//EN"
       "http://www.w3.org/Graphics/SVG/1.1/DTD/svg11.dtd">
<svg version="1.1" xmlns="http://www.w3.org/2000/svg" xmlns:xlink="http://www.w3.org/1999/xlink" width="109.095" height="99.6582">
 <g>
  <rect height="99.6582" opacity="0" width="109.095" x="0" y="0"/>
  <path d="M59.2839 99.6094C86.4812 99.6094 109.089 77.002 109.089 49.8047C109.089 22.5586 86.4812 0 59.2839 0C32.0378 0 9.47924 22.5098 9.47924 49.7559L17.78 49.7559C17.78 26.709 36.2371 8.34961 59.2839 8.34961C82.3308 8.34961 100.788 26.7578 100.788 49.8047C100.788 72.8516 82.3308 91.4062 59.2839 91.3086C45.3679 91.2598 33.1609 84.5215 25.6902 74.1211C24.1765 72.1191 21.8816 71.4844 19.8308 72.7051C17.8777 73.9258 17.3406 76.6113 19.0007 78.7598C28.2781 91.2109 42.8289 99.6094 59.2839 99.6094ZM3.47339 40.3809C-0.04224 40.3809-0.921146 42.7734 0.983151 45.5078L11.9207 61.0352C13.532 63.2812 15.8757 63.2324 17.4382 61.0352L28.3757 45.459C30.2312 42.7734 29.3523 40.3809 25.8855 40.3809Z" fill="#000000" fill-opacity="0.85"/>
  <path d="M50.6902 74.2676C52.5945 74.2676 53.864 72.9492 53.864 71.0938L53.864 65.9668L63.9226 65.9668C65.3386 65.9668 66.2664 64.8926 66.2664 63.5254C66.2664 62.1582 65.3386 61.1328 63.9226 61.1328L53.864 61.1328L53.864 53.1738L70.1726 53.1738C71.8816 53.1738 73.1511 52.002 73.1511 50.2441C73.1511 48.4863 71.8816 47.3633 70.1726 47.3633L53.864 47.3633L53.864 33.5449L71.9792 33.5449C73.6882 33.5449 74.9578 32.373 74.9578 30.6152C74.9578 28.8086 73.6882 27.6367 71.9792 27.6367L50.6414 27.6367C48.7371 27.6367 47.5164 28.9062 47.5164 30.9082L47.5164 61.1328L43.6101 61.1328C42.1453 61.1328 41.2175 62.1582 41.2175 63.5254C41.2175 64.8926 42.1453 65.9668 43.6101 65.9668L47.5164 65.9668L47.5164 71.1426C47.5164 73.0469 48.8347 74.2676 50.6902 74.2676Z" fill="#000000" fill-opacity="0.85"/>
 </g>
</svg>
