<?xml version="1.0" encoding="UTF-8"?>
<!--Generator: Apple Native CoreSVG 232.5-->
<!DOCTYPE svg
PUBLIC "-//W3C//DTD SVG 1.1//EN"
       "http://www.w3.org/Graphics/SVG/1.1/DTD/svg11.dtd">
<svg version="1.1" xmlns="http://www.w3.org/2000/svg" xmlns:xlink="http://www.w3.org/1999/xlink" width="89.8926" height="89.9902">
 <g>
  <rect height="89.9902" opacity="0" width="89.8926" x="0" y="0"/>
  <path d="M89.8926 15.2344L89.8926 74.8535C89.8926 84.9121 84.8145 89.9902 74.5605 89.9902L15.332 89.9902C5.12695 89.9902 0 84.9609 0 74.8535L0 15.2344C0 5.12695 5.12695 0.0976562 15.332 0.0976562L74.5605 0.0976562C84.8145 0.0976562 89.8926 5.17578 89.8926 15.2344ZM36.084 22.1191C34.082 22.1191 32.8125 23.4375 32.8125 25.4883L32.8125 56.6406L28.7598 56.6406C27.2949 56.6406 26.3672 57.7148 26.3672 59.1309C26.3672 60.5469 27.2949 61.6699 28.7598 61.6699L32.8125 61.6699L32.8125 66.9922C32.8125 68.9453 34.2285 70.2148 36.1328 70.2148C38.0859 70.2148 39.4043 68.8477 39.4043 66.9434L39.4043 61.6699L49.7559 61.6699C51.2207 61.6699 52.2461 60.5469 52.2461 59.1309C52.2461 57.7148 51.2207 56.6406 49.7559 56.6406L39.4043 56.6406L39.4043 48.4863L56.2012 48.4863C58.0078 48.4863 59.3262 47.2656 59.3262 45.459C59.3262 43.6035 58.0078 42.4316 56.2012 42.4316L39.4043 42.4316L39.4043 28.2227L58.0566 28.2227C59.8145 28.2227 61.1816 27.002 61.1816 25.1953C61.1816 23.291 59.8145 22.1191 58.0566 22.1191Z" fill="#000000" fill-opacity="0.85"/>
 </g>
</svg>
