<?xml version="1.0" encoding="UTF-8"?>
<!--Generator: Apple Native CoreSVG 232.5-->
<!DOCTYPE svg
PUBLIC "-//W3C//DTD SVG 1.1//EN"
       "http://www.w3.org/Graphics/SVG/1.1/DTD/svg11.dtd">
<svg version="1.1" xmlns="http://www.w3.org/2000/svg" xmlns:xlink="http://www.w3.org/1999/xlink" width="63.1836" height="91.0645">
 <g>
  <rect height="91.0645" opacity="0" width="63.1836" x="0" y="0"/>
  <path d="M17.041 91.0645C19.7754 91.0645 21.7285 89.0137 21.7285 86.2793L21.7285 49.2676L55.3223 49.2676C57.8125 49.2676 59.668 47.6562 59.668 45.1172C59.668 42.5781 57.8125 40.9668 55.3223 40.9668L21.7285 40.9668L21.7285 10.6934L58.8379 10.6934C61.377 10.6934 63.1836 9.08203 63.1836 6.49414C63.1836 3.95508 61.377 2.29492 58.8379 2.29492L17.041 2.29492C14.1602 2.29492 12.3535 4.19922 12.3535 7.12891L12.3535 86.2793C12.3535 89.0625 14.2578 91.0645 17.041 91.0645ZM0 71.2891C0 72.998 1.41602 74.4629 3.17383 74.4629L42.9688 74.4629C44.7266 74.4629 46.1914 72.998 46.1914 71.2891C46.1914 69.5312 44.7266 68.0664 42.9688 68.0664L3.17383 68.0664C1.41602 68.0664 0 69.5312 0 71.2891Z" fill="#000000" fill-opacity="0.85"/>
 </g>
</svg>
