<?xml version="1.0" encoding="UTF-8"?>
<!--Generator: Apple Native CoreSVG 232.5-->
<!DOCTYPE svg
PUBLIC "-//W3C//DTD SVG 1.1//EN"
       "http://www.w3.org/Graphics/SVG/1.1/DTD/svg11.dtd">
<svg version="1.1" xmlns="http://www.w3.org/2000/svg" xmlns:xlink="http://www.w3.org/1999/xlink" width="150.83" height="98.0957">
 <g>
  <rect height="98.0957" opacity="0" width="150.83" x="0" y="0"/>
  <path d="M0 54.6387C0 80.7129 24.5117 98.0957 61.5723 98.0957C98.6816 98.0957 123.193 80.7129 123.193 54.6387C123.193 43.7012 97.8516 34.8145 61.5723 34.8145C25.3418 34.8145 0 43.7012 0 54.6387ZM7.86133 54.6387C7.86133 49.3652 33.4473 42.1875 61.5723 42.1875C89.6973 42.1875 115.332 49.3652 115.332 54.6387C115.332 59.7168 91.3086 66.9434 61.5723 66.9434C31.8359 66.9434 7.86133 59.7168 7.86133 54.6387ZM112.891 49.3164L145.117 29.5898C158.594 21.3867 146.094 1.61133 129.688 13.3789L92.041 40.4785ZM33.2031 67.627L85.791 67.8223C85.8398 57.666 77.4902 51.0254 67.8711 51.0254C61.5234 51.0254 55.957 53.8574 52.6855 58.252C50.9766 57.666 49.4141 57.4219 47.5098 57.4219C40.3809 57.4219 34.4727 61.8652 33.2031 67.627Z" fill="#000000" fill-opacity="0.85"/>
 </g>
</svg>
