<?xml version="1.0" encoding="UTF-8"?>
<!--Generator: Apple Native CoreSVG 232.5-->
<!DOCTYPE svg
PUBLIC "-//W3C//DTD SVG 1.1//EN"
       "http://www.w3.org/Graphics/SVG/1.1/DTD/svg11.dtd">
<svg version="1.1" xmlns="http://www.w3.org/2000/svg" xmlns:xlink="http://www.w3.org/1999/xlink" width="151.822" height="98.0957">
 <g>
  <rect height="98.0957" opacity="0" width="151.822" x="0" y="0"/>
  <path d="M0.00751072 54.6387C0.00751072 80.7129 24.5192 98.0957 61.5798 98.0957C98.6892 98.0957 123.201 80.7129 123.201 54.6387C123.201 43.7012 97.8591 34.8145 61.5798 34.8145C25.3493 34.8145 0.00751072 43.7012 0.00751072 54.6387ZM7.86884 54.6387C7.86884 49.3652 33.4548 42.1875 61.5798 42.1875C89.7048 42.1875 115.34 49.3652 115.34 54.6387C115.34 59.7168 91.3161 66.4551 61.5798 66.4551C31.8434 66.4551 7.86884 59.7168 7.86884 54.6387ZM9.38251 64.4531C19.0017 70.166 39.8513 74.3164 61.5798 74.3164C83.3571 74.3164 104.207 70.166 113.826 64.4531C109.773 79.9805 89.0212 90.2344 61.5798 90.2344C34.1872 90.2344 13.4352 79.9805 9.38251 64.4531ZM112.996 50.3906L145.613 30.4199C160.261 21.5332 146.638 0.0488281 129.109 12.5977L90.0954 40.6738L98.3474 42.8711L134.724 18.0664C141.853 13.1348 146.345 20.7031 140.779 24.1699L106.111 45.6543ZM33.2106 67.627L85.7985 67.8223C85.8474 57.666 77.4977 51.0254 67.8786 51.0254C61.5309 51.0254 55.9645 53.8574 52.6931 58.252C50.9841 57.666 49.4216 57.4219 47.5173 57.4219C40.3884 57.4219 34.4802 61.8652 33.2106 67.627Z" fill="#000000" fill-opacity="0.85"/>
 </g>
</svg>
