<?xml version="1.0" encoding="UTF-8"?>
<!--Generator: Apple Native CoreSVG 232.5-->
<!DOCTYPE svg
PUBLIC "-//W3C//DTD SVG 1.1//EN"
       "http://www.w3.org/Graphics/SVG/1.1/DTD/svg11.dtd">
<svg version="1.1" xmlns="http://www.w3.org/2000/svg" xmlns:xlink="http://www.w3.org/1999/xlink" width="137.183" height="133.008">
 <g>
  <rect height="133.008" opacity="0" width="137.183" x="0" y="0"/>
  <path d="M35.5103 57.3522L35.5103 57.7882C35.5103 61.0597 37.6099 63.0128 41.1743 63.0128L41.1787 63.0128L91.272 113.037L91.272 113.11L91.3459 113.11L97.9237 119.679C97.205 120.474 96.1832 120.972 95.0806 120.972L23.4009 120.972C21.3013 120.972 19.5435 119.165 19.5435 116.968C19.5435 114.819 21.3501 113.11 23.4009 113.11L27.3071 113.11L27.3071 49.1604ZM108.704 18.1398L115.442 28.9796C116.809 31.2257 117.59 33.4718 117.59 36.4015L117.59 96.2159C117.59 101.295 115.389 104.907 111.479 106.467L105.345 100.336C105.715 100.422 106.121 100.464 106.555 100.464C109.143 100.464 110.706 98.8527 110.706 96.2159L110.706 60.4738L102.502 50.9523C100.305 48.3644 100.061 45.63 102.112 42.7491L108.508 33.8136C109.094 32.9347 109.143 31.9093 108.606 31.0304L102.893 21.7531C100.403 17.7491 106.262 14.1847 108.704 18.1398ZM68.0049 63.0128L77.356 63.0128C80.8716 63.0128 83.0688 61.0597 83.0688 57.7882L83.0688 25.5616C83.0688 22.2902 80.8716 20.2882 77.356 20.2882L41.1743 20.2882C37.6099 20.2882 35.5103 22.2902 35.5103 25.5616L35.5103 30.5332L27.415 22.4417C28.075 15.6995 32.256 12.0363 39.6118 12.0363L78.9185 12.0363C86.8774 12.0363 91.272 16.4308 91.272 24.4386L91.272 69.4581L91.7603 69.4581C98.3521 69.4581 102.307 73.3156 102.307 80.0538L102.307 96.2159C102.307 96.6496 102.349 97.0555 102.436 97.428L95.4224 90.4176L95.4224 80.0538C95.4224 77.6124 94.0063 76.3429 91.7603 76.3429L91.272 76.3429L91.272 86.2691Z" fill="#000000" fill-opacity="0.85"/>
  <path d="M112.512 126.245C114.026 127.71 116.418 127.71 117.834 126.245C119.299 124.732 119.348 122.339 117.834 120.874L12.1216 15.2589C10.6567 13.7941 8.26416 13.7941 6.75049 15.2589C5.33447 16.6749 5.33447 19.1652 6.75049 20.5812Z" fill="#000000" fill-opacity="0.85"/>
 </g>
</svg>
