<?xml version="1.0" encoding="UTF-8"?>
<!--Generator: Apple Native CoreSVG 232.5-->
<!DOCTYPE svg
PUBLIC "-//W3C//DTD SVG 1.1//EN"
       "http://www.w3.org/Graphics/SVG/1.1/DTD/svg11.dtd">
<svg version="1.1" xmlns="http://www.w3.org/2000/svg" xmlns:xlink="http://www.w3.org/1999/xlink" width="142.114" height="133.008">
 <g>
  <rect height="133.008" opacity="0" width="142.114" x="0" y="0"/>
  <path d="M35.1196 56.9621L35.1196 113.11L88.3889 113.11L88.3873 110.156L99.2181 120.972L23.4009 120.972C21.2524 120.972 19.5435 119.165 19.5435 116.968C19.5435 114.819 21.3013 113.11 23.4009 113.11L27.2583 113.11L27.2583 49.1117ZM88.3733 83.3717L88.3423 24.5363C88.3423 21.4601 86.731 19.8976 83.7524 19.8976L39.7095 19.8976C36.5845 19.8976 35.1196 21.5089 35.1196 24.5363L35.1196 30.1427L27.372 22.3987C28.0524 15.6838 32.2718 12.0363 39.6118 12.0363L83.8501 12.0363C91.8579 12.0363 96.2524 16.4308 96.2524 24.4386L96.2524 69.4581L96.7407 69.4581C103.284 69.4581 107.288 73.3156 107.288 80.0538L107.288 96.2159C107.288 98.8527 108.85 100.464 111.536 100.464C114.124 100.464 115.686 98.8527 115.686 96.2159L115.686 60.4738L107.483 50.9523C105.286 48.3644 104.993 45.63 107.092 42.7491L113.489 33.8136C114.075 32.9347 114.124 31.9093 113.586 31.0304L107.874 21.7531C105.383 17.7491 111.194 14.1847 113.684 18.1398L120.374 28.9796C121.79 31.2257 122.571 33.4718 122.571 36.4015L122.571 96.2159C122.571 102.876 118.742 107.013 112.33 107.318L100.403 95.3958L100.403 80.0538C100.403 77.6124 98.9868 76.3429 96.7407 76.3429L96.2524 76.3429L96.2524 91.2473ZM82.8247 31.2745L82.8247 60.8644C82.8247 63.8429 80.5786 65.796 77.356 65.796L70.7894 65.796L40.686 35.7066L40.686 31.2745C40.686 28.296 42.8833 26.2452 46.106 26.2452L77.356 26.2452C80.5786 26.2452 82.8247 28.296 82.8247 31.2745ZM43.4213 65.2523C42.3572 64.765 41.5519 63.9684 41.1013 62.9355Z" fill="#000000" fill-opacity="0.85"/>
  <path d="M112.512 126.245C114.026 127.71 116.418 127.71 117.834 126.245C119.299 124.732 119.348 122.339 117.834 120.874L12.1216 15.2589C10.6567 13.7941 8.26416 13.7941 6.75049 15.2589C5.33447 16.6749 5.33447 19.1652 6.75049 20.5812Z" fill="#000000" fill-opacity="0.85"/>
 </g>
</svg>
