<?xml version="1.0" encoding="UTF-8"?>
<!--Generator: Apple Native CoreSVG 232.5-->
<!DOCTYPE svg
PUBLIC "-//W3C//DTD SVG 1.1//EN"
       "http://www.w3.org/Graphics/SVG/1.1/DTD/svg11.dtd">
<svg version="1.1" xmlns="http://www.w3.org/2000/svg" xmlns:xlink="http://www.w3.org/1999/xlink" width="141.431" height="108.936">
 <g>
  <rect height="108.936" opacity="0" width="141.431" x="0" y="0"/>
  <path d="M71.741 105.273L71.741 12.4023C71.741 4.39453 67.3464 0 59.3874 0L20.032 0C11.9753 0 7.72729 4.39453 7.72729 12.4023L7.72729 105.273ZM21.6433 50.9766C18.0788 50.9766 15.9304 49.0234 15.9304 45.752L15.9304 13.5254C15.9304 10.2539 18.0788 8.25195 21.6433 8.25195L57.7761 8.25195C61.3406 8.25195 63.5378 10.2539 63.5378 13.5254L63.5378 45.752C63.5378 49.0234 61.3406 50.9766 57.7761 50.9766ZM0.0124417 104.932C0.0124417 107.129 1.72143 108.936 3.86986 108.936L75.5007 108.936C77.6492 108.936 79.4558 107.129 79.4558 104.932C79.4558 102.832 77.6492 101.074 75.5007 101.074L3.86986 101.074C1.77025 101.074 0.0124417 102.783 0.0124417 104.932ZM67.9812 64.3066L72.2292 64.3066C74.4753 64.3066 75.8913 65.5762 75.8913 68.0176L75.8913 84.1797C75.8913 91.1133 80.0906 95.3125 87.0242 95.3125C93.9089 95.3125 98.0593 91.1133 98.0593 84.1797L98.0593 24.3652C98.0593 21.4355 97.2781 19.1895 95.8621 16.9434L89.1726 6.10352C86.6824 2.14844 80.8718 5.71289 83.3621 9.7168L89.0749 18.9941C89.6121 19.873 89.5632 20.8984 88.9773 21.7773L82.5808 30.7129C80.4812 33.5938 80.7742 36.3281 82.9714 38.916L91.1746 48.4375L91.1746 84.1797C91.1746 86.8164 89.6121 88.4277 87.0242 88.4277C84.3386 88.4277 82.7761 86.8164 82.7761 84.1797L82.7761 68.0176C82.7761 61.2793 78.7722 57.4219 72.2292 57.4219L67.9812 57.4219Z" fill="#000000" fill-opacity="0.85"/>
  <path d="M140.003 52.0996L114.905 37.207C113.001 36.084 110.462 37.0117 110.462 39.0625L110.462 69.8242C110.462 71.9238 112.854 72.9004 114.905 71.6797L140.003 56.8848C141.956 55.7617 141.858 53.1738 140.003 52.0996Z" fill="#000000" fill-opacity="0.85"/>
 </g>
</svg>
