<?xml version="1.0" encoding="UTF-8"?>
<!--Generator: Apple Native CoreSVG 232.5-->
<!DOCTYPE svg
PUBLIC "-//W3C//DTD SVG 1.1//EN"
       "http://www.w3.org/Graphics/SVG/1.1/DTD/svg11.dtd">
<svg version="1.1" xmlns="http://www.w3.org/2000/svg" xmlns:xlink="http://www.w3.org/1999/xlink" width="138.697" height="108.936">
 <g>
  <rect height="108.936" opacity="0" width="138.697" x="0" y="0"/>
  <path d="M112.366 105.273L112.366 12.4023C112.366 4.39453 107.971 0 99.9636 0L55.6765 0C47.6199 0 43.3718 4.39453 43.3718 12.4023L43.3718 105.273L51.2331 105.273L51.2331 12.5C51.2331 9.47266 52.698 7.86133 55.823 7.86133L99.866 7.86133C102.844 7.86133 104.456 9.42383 104.456 12.5L104.456 105.273ZM35.657 104.932C35.657 107.129 37.366 108.936 39.5144 108.936L116.126 108.936C118.274 108.936 120.081 107.129 120.081 104.932C120.081 102.832 118.274 101.074 116.126 101.074L39.5144 101.074C37.4148 101.074 35.657 102.783 35.657 104.932ZM62.2195 53.7598L93.4695 53.7598C96.6921 53.7598 98.9382 51.8066 98.9382 48.8281L98.9382 19.2383C98.9382 16.2598 96.6433 14.209 93.4695 14.209L62.2195 14.209C58.9968 14.209 56.7996 16.2598 56.7996 19.2383L56.7996 48.8281C56.7996 51.8066 58.9968 53.7598 62.2195 53.7598ZM108.606 64.3066L112.854 64.3066C115.1 64.3066 116.516 65.5762 116.516 68.0176L116.516 84.1797C116.516 91.1133 120.667 95.3125 127.6 95.3125C134.534 95.3125 138.684 91.1133 138.684 84.1797L138.684 24.3652C138.684 21.4355 137.903 19.1895 136.487 16.9434L129.798 6.10352C127.307 2.14844 121.497 5.71289 123.938 9.7168L129.7 18.9941C130.237 19.873 130.188 20.8984 129.602 21.7773L123.206 30.7129C121.106 33.5938 121.399 36.3281 123.596 38.916L131.8 48.4375L131.8 84.1797C131.8 86.8164 130.188 88.4277 127.6 88.4277C124.964 88.4277 123.401 86.8164 123.401 84.1797L123.401 68.0176C123.401 61.2793 119.397 57.4219 112.854 57.4219L108.606 57.4219Z" fill="#000000" fill-opacity="0.85"/>
  <path d="M1.42846 52.0996C-0.427011 53.1738-0.524668 55.7617 1.42846 56.8848L26.5261 71.6797C28.5769 72.9004 30.9695 71.9238 30.9695 69.8242L30.9695 39.0625C30.9695 37.0117 28.4304 36.084 26.5261 37.207Z" fill="#000000" fill-opacity="0.85"/>
 </g>
</svg>
