<?xml version="1.0" encoding="UTF-8"?>
<!--Generator: Apple Native CoreSVG 232.5-->
<!DOCTYPE svg
PUBLIC "-//W3C//DTD SVG 1.1//EN"
       "http://www.w3.org/Graphics/SVG/1.1/DTD/svg11.dtd">
<svg version="1.1" xmlns="http://www.w3.org/2000/svg" xmlns:xlink="http://www.w3.org/1999/xlink" width="130.322" height="72.2168">
 <g>
  <rect height="72.2168" opacity="0" width="130.322" x="0" y="0"/>
  <path d="M64.9414 72.2168C66.6016 72.2168 67.7734 71.2891 67.7734 69.6289C67.7734 68.8965 67.627 68.5059 67.0898 67.4805C61.1328 58.252 57.7148 47.6562 57.7148 36.1816C57.7148 25.0977 60.9375 14.0137 67.0898 4.73633C67.627 3.71094 67.7734 3.32031 67.7734 2.58789C67.7734 1.02539 66.6016 0 64.9414 0C63.3301 0 62.0605 0.732422 60.498 2.88086C53.125 12.207 49.4629 23.8281 49.4629 36.1328C49.4629 48.4375 53.0273 59.7168 60.498 69.3359C62.0605 71.4844 63.3301 72.2168 64.9414 72.2168ZM75.1953 59.2773C76.7578 59.2773 77.8809 58.7402 79.1016 56.9824L89.7949 41.748L89.9902 41.748L100.928 57.2266C102.148 58.9355 103.32 59.2773 104.492 59.2773C106.836 59.2773 108.35 57.6172 108.35 55.6152C108.35 54.6875 108.105 53.8086 107.471 52.9785L94.9707 35.9863L107.471 19.2383C108.057 18.4082 108.398 17.5293 108.398 16.5039C108.398 14.4043 106.641 12.9395 104.639 12.9395C102.881 12.9395 101.904 13.8184 100.977 15.2344L90.6738 30.3223L90.4297 30.3223L80.0781 15.1855C79.1016 13.7695 77.9785 12.9395 76.123 12.9395C73.8281 12.9395 72.1191 14.7461 72.1191 16.6992C72.1191 18.1152 72.5586 18.9941 73.1934 19.8242L85.1074 35.7422L72.4609 53.1738C71.7773 54.1016 71.6309 54.9316 71.6309 55.9082C71.6309 57.8125 73.2422 59.2773 75.1953 59.2773ZM114.844 72.2168C116.455 72.2168 117.725 71.4844 119.287 69.3359C126.758 59.7168 130.322 48.4375 130.322 36.1328C130.322 23.8281 126.66 12.207 119.287 2.88086C117.725 0.732422 116.455 0 114.844 0C113.184 0 112.012 1.02539 112.012 2.58789C112.012 3.32031 112.158 3.71094 112.695 4.73633C118.848 14.0137 122.07 25.0977 122.07 36.1816C122.07 47.6562 118.652 58.252 112.695 67.4805C112.158 68.5059 112.012 68.8965 112.012 69.6289C112.012 71.1914 113.184 72.2168 114.844 72.2168Z" fill="#000000" fill-opacity="0.85"/>
  <path d="M6.5918 72.1191C16.1621 72.1191 20.5566 68.0176 22.9004 57.0312L28.4668 30.3223L37.3047 30.3223C40.1367 30.3223 41.9434 28.8086 41.9434 26.3672C41.9434 24.2676 40.5762 22.9492 38.3301 22.9492L30.0293 22.9492L31.3965 16.3086C32.7148 10.1074 34.668 7.56836 40.0391 7.56836C40.8691 7.56836 41.6504 7.51953 42.1875 7.4707C44.5801 7.22656 45.7031 6.10352 45.7031 4.00391C45.7031 1.26953 43.4082 0.0488281 38.7207 0.0488281C29.3945 0.0488281 24.6094 4.6875 22.4121 15.1367L20.8008 22.9492L14.7461 22.9492C11.8652 22.9492 10.0586 24.4629 10.0586 26.9043C10.0586 29.0039 11.4258 30.3223 13.7207 30.3223L19.2383 30.3223L13.8672 55.8594C12.5 62.2559 10.498 64.5996 5.27344 64.5996C4.58984 64.5996 3.90625 64.6484 3.4668 64.6973C1.2207 64.9902 0 66.2109 0 68.2617C0 70.8984 2.24609 72.1191 6.5918 72.1191Z" fill="#000000" fill-opacity="0.85"/>
 </g>
</svg>
