<?xml version="1.0" encoding="UTF-8"?>
<!--Generator: Apple Native CoreSVG 232.5-->
<!DOCTYPE svg
PUBLIC "-//W3C//DTD SVG 1.1//EN"
       "http://www.w3.org/Graphics/SVG/1.1/DTD/svg11.dtd">
<svg version="1.1" xmlns="http://www.w3.org/2000/svg" xmlns:xlink="http://www.w3.org/1999/xlink" width="89.8926" height="89.9902">
 <g>
  <rect height="89.9902" opacity="0" width="89.8926" x="0" y="0"/>
  <path d="M89.8926 15.2344L89.8926 74.8535C89.8926 84.9121 84.8145 89.9902 74.5605 89.9902L15.332 89.9902C5.12695 89.9902 0 84.9609 0 74.8535L0 15.2344C0 5.12695 5.12695 0.0976562 15.332 0.0976562L74.5605 0.0976562C84.8145 0.0976562 89.8926 5.17578 89.8926 15.2344ZM23.4375 44.5312C23.4375 59.4238 31.8848 68.8477 45.2148 68.8477C57.666 68.8477 64.9902 61.5723 64.9902 51.123L64.9902 47.4121C64.9902 44.6289 63.3789 43.0176 60.6934 43.0176L47.6074 43.0176C45.752 43.0176 44.6289 44.2383 44.6289 45.9473C44.6289 47.5098 45.752 48.877 47.6074 48.877L56.9336 48.877L56.9336 52.1973C56.9336 58.1543 52.9785 62.1582 45.3125 62.1582C37.1094 62.1582 31.6406 55.127 31.6406 44.5312C31.6406 33.9844 37.0605 26.9043 45.166 26.9043C50.9277 26.9043 55.1758 29.6387 57.2754 34.668C58.1055 36.377 59.082 37.1582 60.6445 37.1582C62.793 37.1582 64.1602 35.791 64.1602 33.6426C64.1602 32.7637 64.0137 32.1289 63.6719 31.2988C61.2305 24.9023 54.541 20.166 45.0195 20.166C31.8848 20.166 23.4375 29.6875 23.4375 44.5312Z" fill="#000000" fill-opacity="0.85"/>
 </g>
</svg>
