<?xml version="1.0" encoding="UTF-8"?>
<!--Generator: Apple Native CoreSVG 232.5-->
<!DOCTYPE svg
PUBLIC "-//W3C//DTD SVG 1.1//EN"
       "http://www.w3.org/Graphics/SVG/1.1/DTD/svg11.dtd">
<svg version="1.1" xmlns="http://www.w3.org/2000/svg" xmlns:xlink="http://www.w3.org/1999/xlink" width="89.8926" height="89.9902">
 <g>
  <rect height="89.9902" opacity="0" width="89.8926" x="0" y="0"/>
  <path d="M15.332 89.9902L74.5605 89.9902C84.8145 89.9902 89.8926 84.9121 89.8926 74.8535L89.8926 15.2344C89.8926 5.17578 84.8145 0.0976562 74.5605 0.0976562L15.332 0.0976562C5.12695 0.0976562 0 5.12695 0 15.2344L0 74.8535C0 84.9609 5.12695 89.9902 15.332 89.9902ZM15.4297 82.1289C10.5469 82.1289 7.86133 79.541 7.86133 74.4629L7.86133 15.625C7.86133 10.5469 10.5469 7.95898 15.4297 7.95898L74.4629 7.95898C79.2969 7.95898 82.0312 10.5469 82.0312 15.625L82.0312 74.4629C82.0312 79.541 79.2969 82.1289 74.4629 82.1289Z" fill="#000000" fill-opacity="0.85"/>
  <path d="M45.166 67.8711C57.0801 67.8711 64.1602 60.8887 64.1602 50.8301L64.1602 47.2656C64.1602 44.6289 62.5977 43.0664 60.0586 43.0664L47.5098 43.0664C45.7031 43.0664 44.6289 44.2383 44.6289 45.8984C44.6289 47.3633 45.7031 48.6816 47.5098 48.6816L56.3965 48.6816L56.3965 51.8555C56.3965 57.6172 52.6367 61.4258 45.2637 61.4258C37.4023 61.4258 32.1777 54.7363 32.1777 44.5312C32.1777 34.4238 37.3535 27.5879 45.1172 27.5879C50.6348 27.5879 54.7363 30.2246 56.7383 35.0586C57.5684 36.7188 58.4961 37.4023 60.0098 37.4023C62.0117 37.4023 63.3301 36.1328 63.3301 34.082C63.3301 33.252 63.2324 32.6172 62.8906 31.8359C60.5957 25.6836 54.1016 21.1426 45.0195 21.1426C32.373 21.1426 24.2676 30.2734 24.2676 44.5312C24.2676 58.8379 32.373 67.8711 45.166 67.8711Z" fill="#000000" fill-opacity="0.85"/>
 </g>
</svg>
