<?xml version="1.0" encoding="UTF-8"?>
<!--Generator: Apple Native CoreSVG 232.5-->
<!DOCTYPE svg
PUBLIC "-//W3C//DTD SVG 1.1//EN"
       "http://www.w3.org/Graphics/SVG/1.1/DTD/svg11.dtd">
<svg version="1.1" xmlns="http://www.w3.org/2000/svg" xmlns:xlink="http://www.w3.org/1999/xlink" width="140.967" height="88.5254">
 <g>
  <rect height="88.5254" opacity="0" width="140.967" x="0" y="0"/>
  <path d="M0 69.6777C0 81.1035 7.42188 88.5254 18.6035 88.5254C24.2676 88.5254 29.8828 86.084 33.9844 81.0059L42.8223 70.3125C44.0918 68.7988 45.5566 68.0664 47.0215 68.0664L93.9453 68.0664C95.4102 68.0664 96.875 68.7988 98.1445 70.3125L106.982 81.0059C111.084 86.084 116.699 88.5254 122.363 88.5254C133.545 88.5254 140.967 81.1035 140.967 69.6777C140.967 64.7949 139.844 59.1797 137.939 52.8809C134.961 42.8711 129.736 29.248 124.756 18.7012C120.557 9.91211 118.408 5.9082 108.057 3.56445C98.877 1.46484 86.1328 0.0488281 70.5078 0.0488281C54.8828 0.0488281 42.0898 1.46484 32.9102 3.56445C22.5586 5.9082 20.4102 9.91211 16.2109 18.7012C11.2305 29.248 6.00586 42.8711 3.02734 52.8809C1.12305 59.1797 0 64.7949 0 69.6777ZM7.4707 69.9707C7.4707 66.8945 8.1543 63.1836 9.7168 57.8613C12.9883 46.6309 18.6523 32.0801 23.584 21.2891C25.9766 16.0645 27.2949 12.8906 33.6426 11.4258C42.4805 9.32617 55.0781 7.91016 70.5078 7.91016C85.8887 7.91016 98.4863 9.32617 107.324 11.4258C113.672 12.8906 114.941 16.0645 117.383 21.2891C122.412 32.0801 127.832 46.6797 131.25 57.8613C132.861 63.1836 133.496 66.8945 133.496 69.9707C133.496 76.709 128.76 80.957 122.461 80.957C118.75 80.957 115.137 79.0039 112.305 75.5371L103.125 64.4531C100.781 61.6211 98.8281 60.2051 94.2871 60.2051L46.6797 60.2051C42.1387 60.2051 40.1855 61.6211 37.8418 64.4531L28.6621 75.5371C25.8301 79.0039 22.2168 80.957 18.5059 80.957C12.207 80.957 7.4707 76.709 7.4707 69.9707Z" fill="#000000" fill-opacity="0.85"/>
  <path d="M30.957 34.4727C30.957 37.0117 32.4707 38.5742 35.0098 38.5742L43.7988 38.5742L43.7988 47.1191C43.7988 49.6094 45.2148 51.1719 47.6562 51.1719C50.0488 51.1719 51.5137 49.6094 51.5137 47.1191L51.5137 38.5742L59.7656 38.5742C62.5 38.5742 64.1113 37.0117 64.1113 34.4727C64.1113 32.0312 62.5 30.5176 59.7656 30.5176L51.5137 30.5176L51.5137 21.9727C51.5137 19.4824 50.0488 17.9688 47.6562 17.9688C45.2148 17.9688 43.7988 19.4824 43.7988 21.9727L43.7988 30.5176L35.0098 30.5176C32.4707 30.5176 30.957 32.0312 30.957 34.4727ZM100.83 33.9844C104.785 33.9844 107.959 30.8105 107.959 26.9043C107.959 22.9492 104.785 19.7754 100.83 19.7754C96.9238 19.7754 93.7012 22.9492 93.7012 26.9043C93.7012 30.8105 96.9238 33.9844 100.83 33.9844ZM86.4746 48.4375C90.3809 48.4375 93.6035 45.2637 93.6035 41.3574C93.6035 37.4023 90.3809 34.2285 86.4746 34.2285C82.5684 34.2285 79.3457 37.4023 79.3457 41.3574C79.3457 45.2637 82.5684 48.4375 86.4746 48.4375Z" fill="#000000" fill-opacity="0.85"/>
 </g>
</svg>
