<?xml version="1.0" encoding="UTF-8"?>
<!--Generator: Apple Native CoreSVG 232.5-->
<!DOCTYPE svg
PUBLIC "-//W3C//DTD SVG 1.1//EN"
       "http://www.w3.org/Graphics/SVG/1.1/DTD/svg11.dtd">
<svg version="1.1" xmlns="http://www.w3.org/2000/svg" xmlns:xlink="http://www.w3.org/1999/xlink" width="140.967" height="88.5254">
 <g>
  <rect height="88.5254" opacity="0" width="140.967" x="0" y="0"/>
  <path d="M29.7363 34.4727C29.7363 31.9336 31.2988 30.3711 33.9355 30.3711L42.9688 30.3711L42.9688 21.582C42.9688 18.9941 44.4336 17.4316 46.9727 17.4316C49.4629 17.4316 50.9766 18.9941 50.9766 21.582L50.9766 30.3711L59.4238 30.3711C62.2559 30.3711 63.9648 31.9336 63.9648 34.4727C63.9648 37.1094 62.2559 38.7207 59.4238 38.7207L50.9766 38.7207L50.9766 47.5098C50.9766 50.0977 49.4629 51.709 46.9727 51.709C44.4336 51.709 42.9688 50.0977 42.9688 47.5098L42.9688 38.7207L33.9355 38.7207C31.2988 38.7207 29.7363 37.1094 29.7363 34.4727ZM101.807 33.9844C97.8027 33.9844 94.4336 30.7129 94.4336 26.6602C94.4336 22.5586 97.8027 19.2871 101.807 19.2871C105.908 19.2871 109.18 22.5586 109.18 26.6602C109.18 30.7129 105.908 33.9844 101.807 33.9844ZM87.0117 48.877C83.0078 48.877 79.6387 45.6055 79.6387 41.5527C79.6387 37.5 83.0078 34.1797 87.0117 34.1797C91.0645 34.1797 94.3848 37.5 94.3848 41.5527C94.3848 45.6055 91.0645 48.877 87.0117 48.877ZM18.6035 88.5254C25.293 88.5254 29.8828 86.084 33.9844 81.0059L42.8223 70.3125C44.0918 68.7988 45.5566 68.0664 47.0215 68.0664L93.9453 68.0664C95.4102 68.0664 96.875 68.7988 98.1445 70.3125L106.982 81.0059C111.084 86.084 115.674 88.5254 122.363 88.5254C133.545 88.5254 140.967 81.1035 140.967 69.6777C140.967 64.7949 139.844 59.1797 137.939 52.8809C134.961 42.8711 129.736 29.248 124.756 18.7012C120.557 9.91211 118.408 5.9082 108.057 3.56445C98.877 1.46484 86.1328 0.0488281 70.5078 0.0488281C54.8828 0.0488281 42.0898 1.46484 32.9102 3.56445C22.5586 5.9082 20.4102 9.91211 16.2109 18.7012C11.2305 29.248 6.00586 42.8711 3.02734 52.8809C1.12305 59.1797 0 64.7949 0 69.6777C0 81.1035 7.42188 88.5254 18.6035 88.5254Z" fill="#000000" fill-opacity="0.85"/>
 </g>
</svg>
