<?xml version="1.0" encoding="UTF-8"?>
<!--Generator: Apple Native CoreSVG 232.5-->
<!DOCTYPE svg
PUBLIC "-//W3C//DTD SVG 1.1//EN"
       "http://www.w3.org/Graphics/SVG/1.1/DTD/svg11.dtd">
<svg version="1.1" xmlns="http://www.w3.org/2000/svg" xmlns:xlink="http://www.w3.org/1999/xlink" width="99.6094" height="99.6582">
 <g>
  <rect height="99.6582" opacity="0" width="99.6094" x="0" y="0"/>
  <path d="M49.8047 99.6094C77.0508 99.6094 99.6094 77.002 99.6094 49.8047C99.6094 22.5586 77.002 0 49.7559 0C22.5586 0 0 22.5586 0 49.8047C0 77.002 22.6074 99.6094 49.8047 99.6094ZM49.8047 91.3086C26.7578 91.3086 8.34961 72.8516 8.34961 49.8047C8.34961 26.7578 26.709 8.30078 49.7559 8.30078C72.8027 8.30078 91.3086 26.7578 91.3086 49.8047C91.3086 72.8516 72.8516 91.3086 49.8047 91.3086Z" fill="#000000" fill-opacity="0.85"/>
  <path d="M23.3398 42.2852C25.6348 42.2852 27.5391 40.3809 27.5391 38.0859C27.5391 35.7422 25.6348 33.8379 23.3398 33.8379C21.0449 33.8379 19.1406 35.7422 19.1406 38.0859C19.1406 40.3809 21.0449 42.2852 23.3398 42.2852ZM34.2773 30.1758C36.5723 30.1758 38.4766 28.2715 38.4766 25.9766C38.4766 23.6816 36.5723 21.7773 34.2773 21.7773C31.9824 21.7773 30.0781 23.6816 30.0781 25.9766C30.0781 28.2715 31.9824 30.1758 34.2773 30.1758ZM49.7559 25.5371C52.0508 25.5371 53.9551 23.6328 53.9551 21.3379C53.9551 19.043 52.0508 17.1387 49.7559 17.1387C47.4609 17.1387 45.5566 19.043 45.5566 21.3379C45.5566 23.6328 47.4609 25.5371 49.7559 25.5371ZM65.2344 30.1758C67.5293 30.1758 69.4336 28.2715 69.4336 25.9766C69.4336 23.6816 67.5293 21.7773 65.2344 21.7773C62.9395 21.7773 61.0352 23.6816 61.0352 25.9766C61.0352 28.2715 62.9395 30.1758 65.2344 30.1758ZM76.1719 42.2852C78.4668 42.2852 80.3711 40.3809 80.3711 38.0859C80.3711 35.7422 78.4668 33.8379 76.1719 33.8379C73.877 33.8379 71.9727 35.7422 71.9727 38.0859C71.9727 40.3809 73.877 42.2852 76.1719 42.2852ZM49.7559 80.3223C54.1016 80.3223 57.5684 76.8555 57.5684 72.7051C57.5684 69.9219 56.5918 68.0664 53.8086 65.5273L34.7168 48.291C33.6914 47.3145 32.5195 47.2656 31.6406 47.8516C30.8105 48.3887 30.4688 49.5605 31.0059 50.8301L41.748 73.9746C43.3594 77.5879 45.5078 80.3223 49.7559 80.3223Z" fill="#000000" fill-opacity="0.85"/>
 </g>
</svg>
