<?xml version="1.0" encoding="UTF-8"?>
<!--Generator: Apple Native CoreSVG 232.5-->
<!DOCTYPE svg
PUBLIC "-//W3C//DTD SVG 1.1//EN"
       "http://www.w3.org/Graphics/SVG/1.1/DTD/svg11.dtd">
<svg version="1.1" xmlns="http://www.w3.org/2000/svg" xmlns:xlink="http://www.w3.org/1999/xlink" width="131.055" height="86.2793">
 <g>
  <rect height="86.2793" opacity="0" width="131.055" x="0" y="0"/>
  <path d="M120.947 75.8789C124.414 75.8789 127.344 73.0469 127.344 69.7266C127.344 66.3574 124.463 63.5742 120.947 63.5742C117.383 63.5742 114.502 66.3574 114.502 69.7266C114.502 73.0469 117.432 75.8789 120.947 75.8789ZM120.947 54.1992C123.34 54.1992 125 52.5391 125.098 50.0488L126.123 15.4785C126.221 12.3535 124.121 10.2539 120.947 10.2539C117.725 10.2539 115.625 12.3535 115.723 15.4785L116.748 50.0488C116.846 52.5391 118.555 54.1992 120.947 54.1992Z" fill="#000000" fill-opacity="0.85"/>
  <path d="M0 49.8047C0 62.5977 4.98047 74.3652 13.0859 83.2031C15.2344 85.5957 18.9941 86.1816 21.875 83.3008L28.7598 76.4648C30.2734 74.9512 30.2734 72.4121 28.7598 70.8984C27.2461 69.3848 24.707 69.3848 23.1934 70.8984L17.8223 76.2695C11.8652 69.0918 8.34961 59.9609 8.34961 49.8047C8.34961 26.8066 26.709 8.30078 49.7559 8.30078C72.7539 8.30078 91.1621 26.8066 91.1621 49.8047C91.1621 59.9609 87.5977 69.0918 81.6406 76.2695L76.2695 70.8984C74.8047 69.3848 72.2656 69.3848 70.7031 70.8984C69.2383 72.4121 69.1895 74.9512 70.7031 76.4648L77.6367 83.3008C80.5176 86.1816 84.2773 85.5957 86.4258 83.2031C94.5312 74.3652 99.5117 62.5977 99.5117 49.8047C99.5117 22.6074 76.9531 0 49.7559 0C22.5098 0 0 22.6074 0 49.8047ZM16.0645 45.8984L4.15039 45.8984L4.15039 53.7598L16.0645 53.7598C18.2129 53.7598 20.0195 51.9531 20.0195 49.8047C20.0195 47.6562 18.2129 45.8984 16.0645 45.8984ZM28.6133 23.1934L20.166 14.7461L14.5996 20.3125L23.0469 28.7598C24.5605 30.2734 27.0996 30.2734 28.6133 28.7598C30.127 27.1973 30.127 24.707 28.6133 23.1934ZM53.6621 16.0645L53.6621 4.15039L45.8008 4.15039L45.8008 16.0645C45.8008 18.2129 47.6074 20.0195 49.7559 20.0195C51.9043 20.0195 53.6621 18.2129 53.6621 16.0645ZM70.8496 23.1934C69.3359 24.707 69.3848 27.1973 70.8496 28.7598C72.4121 30.2734 74.9512 30.2734 76.416 28.7598L84.8633 20.3125L79.2969 14.7461Z" fill="#000000" fill-opacity="0.85"/>
  <path d="M41.6016 49.8535C41.6016 54.3945 44.873 57.666 49.4141 57.666C50.2441 57.666 51.8066 57.373 52.7832 57.2266L81.1035 52.0996C82.4707 51.8555 83.1543 50.8789 83.1543 49.8535C83.1543 48.8281 82.4707 47.9004 81.1035 47.6074L52.7832 42.5293C51.8066 42.334 50.2441 42.0898 49.4141 42.0898C44.873 42.0898 41.6016 45.3613 41.6016 49.8535Z" fill="#000000" fill-opacity="0.85"/>
 </g>
</svg>
