<?xml version="1.0" encoding="UTF-8"?>
<!--Generator: Apple Native CoreSVG 232.5-->
<!DOCTYPE svg
PUBLIC "-//W3C//DTD SVG 1.1//EN"
       "http://www.w3.org/Graphics/SVG/1.1/DTD/svg11.dtd">
<svg version="1.1" xmlns="http://www.w3.org/2000/svg" xmlns:xlink="http://www.w3.org/1999/xlink" width="99.6094" height="99.6582">
 <g>
  <rect height="99.6582" opacity="0" width="99.6094" x="0" y="0"/>
  <path d="M49.8047 99.6094C77.0508 99.6094 99.6094 77.002 99.6094 49.8047C99.6094 22.5586 77.002 0 49.7559 0C22.5586 0 0 22.5586 0 49.8047C0 77.002 22.6074 99.6094 49.8047 99.6094ZM49.8047 91.3086C26.7578 91.3086 8.34961 72.8516 8.34961 49.8047C8.34961 26.7578 26.709 8.30078 49.7559 8.30078C72.8027 8.30078 91.3086 26.7578 91.3086 49.8047C91.3086 72.8516 72.8516 91.3086 49.8047 91.3086Z" fill="#000000" fill-opacity="0.85"/>
  <path d="M57.6172 57.3242C60.8398 54.1016 60.8398 49.5117 57.6172 46.2891C57.0312 45.7031 55.7617 44.7754 54.9805 44.2383L31.2988 27.7832C30.127 27.002 28.9551 27.2461 28.2227 27.9297C27.5391 28.6621 27.2949 29.7852 28.125 30.957L44.5801 54.6387C45.1172 55.4199 46.0449 56.7383 46.6309 57.3242C49.8535 60.498 54.4434 60.498 57.6172 57.3242ZM30.0293 73.6328C32.3242 73.6328 34.2285 71.7285 34.2285 69.4336C34.2285 67.1387 32.3242 65.2344 30.0293 65.2344C27.7344 65.2344 25.8301 67.1387 25.8301 69.4336C25.8301 71.7285 27.7344 73.6328 30.0293 73.6328ZM21.7773 54.0039C24.0723 54.0039 25.9766 52.0996 25.9766 49.8047C25.9766 47.5098 24.0723 45.6055 21.7773 45.6055C19.4824 45.6055 17.5781 47.5098 17.5781 49.8047C17.5781 52.0996 19.4824 54.0039 21.7773 54.0039ZM49.7559 25.9766C52.0508 25.9766 53.9551 24.0723 53.9551 21.7773C53.9551 19.4824 52.0508 17.5781 49.7559 17.5781C47.4609 17.5781 45.5566 19.4824 45.5566 21.7773C45.5566 24.0723 47.4609 25.9766 49.7559 25.9766ZM69.5801 34.375C71.875 34.375 73.7793 32.4707 73.7793 30.1758C73.7793 27.832 71.875 25.9766 69.5801 25.9766C67.2852 25.9766 65.3809 27.832 65.3809 30.1758C65.3809 32.4707 67.2852 34.375 69.5801 34.375ZM77.832 54.0039C80.127 54.0039 82.0312 52.0996 82.0312 49.8047C82.0312 47.5098 80.127 45.6055 77.832 45.6055C75.5371 45.6055 73.6328 47.5098 73.6328 49.8047C73.6328 52.0996 75.5371 54.0039 77.832 54.0039ZM69.5801 73.6328C71.875 73.6328 73.7793 71.7285 73.7793 69.4336C73.7793 67.1387 71.875 65.2344 69.5801 65.2344C67.2852 65.2344 65.3809 67.1387 65.3809 69.4336C65.3809 71.7285 67.2852 73.6328 69.5801 73.6328Z" fill="#000000" fill-opacity="0.85"/>
 </g>
</svg>
