<?xml version="1.0" encoding="UTF-8"?>
<!--Generator: Apple Native CoreSVG 232.5-->
<!DOCTYPE svg
PUBLIC "-//W3C//DTD SVG 1.1//EN"
       "http://www.w3.org/Graphics/SVG/1.1/DTD/svg11.dtd">
<svg version="1.1" xmlns="http://www.w3.org/2000/svg" xmlns:xlink="http://www.w3.org/1999/xlink" width="99.6094" height="99.6582">
 <g>
  <rect height="99.6582" opacity="0" width="99.6094" x="0" y="0"/>
  <path d="M49.8047 99.6094C77.0508 99.6094 99.6094 77.002 99.6094 49.8047C99.6094 22.5586 77.002 0 49.7559 0C22.5586 0 0 22.5586 0 49.8047C0 77.002 22.6074 99.6094 49.8047 99.6094ZM49.8047 91.3086C26.7578 91.3086 8.34961 72.8516 8.34961 49.8047C8.34961 26.7578 26.709 8.30078 49.7559 8.30078C72.8027 8.30078 91.3086 26.7578 91.3086 49.8047C91.3086 72.8516 72.8516 91.3086 49.8047 91.3086Z" fill="#000000" fill-opacity="0.85"/>
  <path d="M42.0898 42.1387C38.916 45.3125 38.916 49.9512 42.0898 53.125C42.6758 53.7109 43.9453 54.6387 44.7266 55.2246L68.4082 71.6309C69.5801 72.4609 70.752 72.2168 71.4844 71.5332C72.168 70.8008 72.4121 69.6289 71.582 68.457L55.1758 44.7754C54.5898 43.9941 53.7109 42.7246 53.0762 42.1387C49.9023 38.916 45.3125 38.916 42.0898 42.1387ZM29.9316 73.6328C32.2266 73.6328 34.1309 71.7285 34.1309 69.4336C34.1309 67.1387 32.2266 65.2344 29.9316 65.2344C27.6367 65.2344 25.7324 67.1387 25.7324 69.4336C25.7324 71.7285 27.6367 73.6328 29.9316 73.6328ZM21.6797 54.0039C23.9746 54.0039 25.8789 52.0996 25.8789 49.8047C25.8789 47.5098 23.9746 45.6055 21.6797 45.6055C19.3848 45.6055 17.4805 47.5098 17.4805 49.8047C17.4805 52.0996 19.3848 54.0039 21.6797 54.0039ZM29.9316 34.375C32.2266 34.375 34.1309 32.4707 34.1309 30.1758C34.1309 27.832 32.2266 25.9766 29.9316 25.9766C27.6367 25.9766 25.7324 27.832 25.7324 30.1758C25.7324 32.4707 27.6367 34.375 29.9316 34.375ZM49.7559 25.9766C52.0508 25.9766 53.9551 24.0723 53.9551 21.7773C53.9551 19.4824 52.0508 17.5781 49.7559 17.5781C47.4609 17.5781 45.5566 19.4824 45.5566 21.7773C45.5566 24.0723 47.4609 25.9766 49.7559 25.9766ZM69.5801 34.375C71.875 34.375 73.7793 32.4707 73.7793 30.1758C73.7793 27.832 71.875 25.9766 69.5801 25.9766C67.2852 25.9766 65.3809 27.832 65.3809 30.1758C65.3809 32.4707 67.2852 34.375 69.5801 34.375ZM77.7344 54.0039C80.0293 54.0039 81.9336 52.0996 81.9336 49.8047C81.9336 47.5098 80.0293 45.6055 77.7344 45.6055C75.4395 45.6055 73.5352 47.5098 73.5352 49.8047C73.5352 52.0996 75.4395 54.0039 77.7344 54.0039Z" fill="#000000" fill-opacity="0.85"/>
 </g>
</svg>
