<?xml version="1.0" encoding="UTF-8"?>
<!--Generator: Apple Native CoreSVG 232.5-->
<!DOCTYPE svg
PUBLIC "-//W3C//DTD SVG 1.1//EN"
       "http://www.w3.org/Graphics/SVG/1.1/DTD/svg11.dtd">
<svg version="1.1" xmlns="http://www.w3.org/2000/svg" xmlns:xlink="http://www.w3.org/1999/xlink" width="124.474" height="110.779">
 <g>
  <rect height="110.779" opacity="0" width="124.474" x="0" y="0"/>
  <path d="M112.017 62.0543C112.017 34.857 89.4589 12.2496 62.2616 12.2496C35.0155 12.2496 12.5057 34.857 12.5057 62.0543C12.5057 74.8473 17.4862 86.6148 25.5917 95.4527C27.7401 97.8453 31.4999 98.4313 34.3807 95.5504L41.2655 88.7145C42.7792 87.2008 42.7792 84.6617 41.2655 83.148C39.7518 81.6344 37.2128 81.6344 35.6991 83.148L30.328 88.5191C24.371 81.3414 20.8554 72.2105 20.8554 62.0543C20.8554 39.0563 39.2147 20.5504 62.2616 20.5504C85.2597 20.5504 103.668 39.0563 103.668 62.0543C103.668 72.2105 100.103 81.3414 94.1464 88.5191L88.7753 83.148C87.3104 81.6344 84.7714 81.6344 83.2089 83.148C81.744 84.6617 81.6952 87.2008 83.2089 88.7145L90.1425 95.5504C93.0233 98.4313 96.7831 97.8453 98.9315 95.4527C107.037 86.6148 112.017 74.8473 112.017 62.0543ZM95.9042 58.148C93.7557 58.148 91.9979 59.9059 91.9979 62.0543C91.9979 64.2027 93.7557 66.0094 95.9042 66.0094L107.818 66.0094L107.818 58.148ZM66.1679 28.3141L66.1679 16.4L58.3065 16.4L58.3065 28.3141C58.3065 30.4625 60.1132 32.2691 62.2616 32.2691C64.41 32.2691 66.1679 30.4625 66.1679 28.3141ZM41.119 35.443L32.6718 26.9957L27.1054 32.5621L35.5526 41.0094C37.0663 42.523 39.6054 42.523 41.119 41.0094C42.6327 39.4469 42.6327 36.9566 41.119 35.443ZM28.4237 58.148L16.5097 58.148L16.5097 66.0094L28.4237 66.0094C30.5722 66.0094 32.3788 64.2027 32.3788 62.0543C32.3788 59.9059 30.5722 58.148 28.4237 58.148Z" fill="#000000" fill-opacity="0.85"/>
  <path d="M56.0116 68.3043C59.2343 71.4781 63.8241 71.4781 67.0468 68.3043C67.6327 67.6695 68.5604 66.4 69.0975 65.6188L85.5526 41.9371C86.3339 40.7652 86.1386 39.6422 85.455 38.8609C84.6737 38.1773 83.5507 37.9332 82.3788 38.7633L58.6972 55.2184C57.9159 55.7555 56.5975 56.6832 56.0116 57.2691C52.8378 60.4918 52.8378 65.0816 56.0116 68.3043Z" fill="#000000" fill-opacity="0.85"/>
  <path d="M109.674 0.823829C108.062-0.7875 106.012 0.140235 105.572 2.09336L102.105 19.232C101.617 21.3805 103.033 22.8453 105.279 22.357L122.369 18.8902C124.371 18.4508 125.25 16.4488 123.639 14.7887Z" fill="#000000" fill-opacity="0.85"/>
 </g>
</svg>
