<?xml version="1.0" encoding="UTF-8"?>
<!--Generator: Apple Native CoreSVG 232.5-->
<!DOCTYPE svg
PUBLIC "-//W3C//DTD SVG 1.1//EN"
       "http://www.w3.org/Graphics/SVG/1.1/DTD/svg11.dtd">
<svg version="1.1" xmlns="http://www.w3.org/2000/svg" xmlns:xlink="http://www.w3.org/1999/xlink" width="99.6094" height="99.6582">
 <g>
  <rect height="99.6582" opacity="0" width="99.6094" x="0" y="0"/>
  <path d="M49.8047 99.6094C77.0508 99.6094 99.6094 77.002 99.6094 49.8047C99.6094 22.5586 77.002 0 49.7559 0C22.5586 0 0 22.5586 0 49.8047C0 77.002 22.6074 99.6094 49.8047 99.6094ZM49.8047 91.3086C26.7578 91.3086 8.34961 72.8516 8.34961 49.8047C8.34961 26.7578 26.709 8.30078 49.7559 8.30078C72.8027 8.30078 91.3086 26.7578 91.3086 49.8047C91.3086 72.8516 72.8516 91.3086 49.8047 91.3086Z" fill="#000000" fill-opacity="0.85"/>
  <path d="M49.7559 77.1973C50.3906 77.1973 50.9277 77.0996 51.5625 77.0996L52.9297 79.6875C53.3691 80.5664 54.248 81.0547 55.2734 80.9082C56.2012 80.7129 56.8848 79.9805 57.0312 79.0039L57.4707 76.0254C58.5938 75.7324 59.7656 75.293 60.8398 74.8535L62.9883 76.7578C63.6719 77.4902 64.5996 77.5879 65.625 77.0996C66.4062 76.6602 66.748 75.7812 66.6016 74.7559L65.9668 71.8262C67.0898 71.0449 67.9688 70.2637 68.7012 69.5801L71.4355 70.6543C72.4121 71.0938 73.291 70.8496 74.0234 70.0195C74.6582 69.2871 74.707 68.2617 74.1699 67.4805L72.6074 64.9414C73.291 63.916 73.877 62.8906 74.3652 61.8164L77.3438 62.0117C78.3203 62.0117 79.1992 61.4746 79.4922 60.5469C79.834 59.5703 79.4922 58.6426 78.7109 58.0566L76.416 56.25C76.6602 55.127 76.9531 53.9062 77.0508 52.6367L79.834 51.8066C80.8594 51.4648 81.3965 50.6836 81.3965 49.707C81.3965 48.7305 80.8105 47.9492 79.834 47.6074L77.0508 46.7285C76.9531 45.5078 76.6602 44.3359 76.416 43.2129L78.7109 41.3574C79.541 40.7227 79.834 39.7949 79.4922 38.916C79.1992 37.9395 78.2715 37.4023 77.2949 37.4512L74.3652 37.5977C73.7793 36.4258 73.1934 35.3516 72.6074 34.4727L74.1699 31.9336C74.707 31.1523 74.6094 30.127 73.9746 29.3945C73.291 28.6621 72.4121 28.3691 71.4844 28.7598L68.7012 29.834C67.9199 29.0527 66.9922 28.3203 65.9668 27.5879L66.6016 24.707C66.748 23.6328 66.4062 22.7539 65.625 22.3145C64.6973 21.8262 63.6719 21.9238 62.9883 22.6562L60.8398 24.5117C59.7656 24.0723 58.6426 23.6816 57.4707 23.3887L57.0312 20.4102C56.8848 19.4336 56.2012 18.7012 55.2734 18.5547C54.2969 18.4082 53.3691 18.8965 52.9297 19.6777L51.5625 22.3633C50.9277 22.3145 50.4395 22.2656 49.7559 22.2656C49.1699 22.2656 48.5352 22.3145 47.998 22.3633L46.5332 19.6777C46.1426 18.7988 45.2148 18.4082 44.2383 18.5547C43.3105 18.7012 42.627 19.4336 42.4316 20.4102L42.0898 23.3398C40.8691 23.6816 39.7949 24.1211 38.6719 24.5117L36.5234 22.7051C35.8398 21.9727 34.8145 21.8262 33.9355 22.3145C33.1543 22.7539 32.7148 23.6328 32.8613 24.707L33.4961 27.5879C32.5195 28.3203 31.543 29.0527 30.7617 29.834L28.0273 28.7598C27.0996 28.3691 26.1719 28.6621 25.5371 29.3945C24.9023 30.0781 24.7559 31.1035 25.293 31.8848L26.9043 34.4727C26.2207 35.498 25.6348 36.5723 25.1465 37.5977L22.2168 37.4512C21.2402 37.4023 20.3613 37.9395 20.0684 38.916C19.6777 39.7949 19.9707 40.6738 20.752 41.3574L23.0957 43.2129C22.7539 44.4824 22.6074 45.6055 22.4609 46.7285L19.6777 47.6074C18.7012 47.9492 18.1152 48.7305 18.1152 49.707C18.1152 50.6836 18.7012 51.4648 19.6777 51.8066L22.4609 52.6855C22.6074 53.7598 22.7539 54.9805 23.0957 56.25L20.752 58.0566C19.9707 58.6426 19.6777 59.6191 20.0195 60.5469C20.3613 61.4746 21.1914 62.0117 22.168 62.0117L25.1465 61.8164C25.6348 62.8906 26.2207 63.8672 26.8555 64.9414L25.293 67.4805C24.7559 68.3105 24.9023 69.3359 25.4883 70.0195C26.1719 70.8496 27.1484 71.0938 28.0762 70.6543L30.7617 69.5801C31.4941 70.2637 32.4219 71.0449 33.4961 71.8262L32.8613 74.707C32.7148 75.7324 33.1055 76.6602 33.9355 77.0996C34.8145 77.5879 35.8398 77.4902 36.5234 76.7578L38.6719 74.8535C39.7949 75.293 40.918 75.7324 42.0898 76.0742L42.4316 78.9551C42.627 79.9805 43.3105 80.7129 44.2871 80.9082C45.2637 81.0547 46.1426 80.5664 46.5332 79.6875L47.998 77.0996C48.5352 77.0996 49.1699 77.1973 49.7559 77.1973ZM49.7559 71.7773C37.5488 71.7773 27.9785 62.0605 27.9785 49.7559C27.9785 37.4023 37.5488 27.6855 49.7559 27.6855C61.9629 27.6855 71.5332 37.4023 71.5332 49.7559C71.5332 62.0605 61.9629 71.7773 49.7559 71.7773ZM49.6582 57.666C53.0273 57.666 55.7129 55.6641 57.1289 52.1484L75.3418 52.1484L75.3418 47.3145L57.1289 47.3145C55.7129 43.8965 53.0273 41.9922 49.6582 41.9922C49.2676 41.9922 48.7793 41.9922 48.0957 42.1387L38.916 26.5137L34.668 28.9062L43.9453 44.7266C42.5781 46.2891 41.8945 47.9492 41.8945 49.8535C41.8945 51.6113 42.5781 53.3203 43.9453 54.834L34.3262 70.459L38.5742 73.0469L48.0957 57.4707C48.7793 57.666 49.3164 57.666 49.6582 57.666ZM46.9727 49.8047C46.9727 48.3398 48.2422 47.1191 49.707 47.1191C51.3184 47.1191 52.5879 48.291 52.5879 49.8047C52.5879 51.2695 51.3184 52.5391 49.707 52.5391C48.2422 52.5391 46.9727 51.2695 46.9727 49.8047Z" fill="#000000" fill-opacity="0.85"/>
 </g>
</svg>
