<?xml version="1.0" encoding="UTF-8"?>
<!--Generator: Apple Native CoreSVG 232.5-->
<!DOCTYPE svg
PUBLIC "-//W3C//DTD SVG 1.1//EN"
       "http://www.w3.org/Graphics/SVG/1.1/DTD/svg11.dtd">
<svg version="1.1" xmlns="http://www.w3.org/2000/svg" xmlns:xlink="http://www.w3.org/1999/xlink" width="104.492" height="104.443">
 <g>
  <rect height="104.443" opacity="0" width="104.492" x="0" y="0"/>
  <path d="M47.3145 104.395L57.1777 104.395C60.9375 104.395 63.8184 102.1 64.6973 98.4863L66.7969 89.3555L68.3594 88.8184L76.3184 93.7012C79.4922 95.7031 83.1543 95.2148 85.8398 92.5293L92.6758 85.7422C95.3613 83.0566 95.8496 79.3457 93.8477 76.2207L88.8672 68.3105L89.4531 66.8457L98.584 64.6973C102.148 63.8184 104.492 60.8887 104.492 57.1777L104.492 47.5098C104.492 43.7988 102.197 40.8691 98.584 39.9902L89.5508 37.793L88.916 36.2305L93.8965 28.3203C95.8984 25.1953 95.4102 21.5332 92.7246 18.7988L85.8887 11.9629C83.252 9.32617 79.5898 8.83789 76.416 10.791L68.457 15.6738L66.7969 15.0391L64.6973 5.9082C63.8184 2.29492 60.9375 0 57.1777 0L47.3145 0C43.5547 0 40.6738 2.29492 39.7949 5.9082L37.6465 15.0391L35.9863 15.6738L28.0762 10.791C24.9023 8.83789 21.1914 9.32617 18.5547 11.9629L11.7676 18.7988C9.08203 21.5332 8.54492 25.1953 10.5957 28.3203L15.5273 36.2305L14.9414 37.793L5.9082 39.9902C2.29492 40.8691 0 43.7988 0 47.5098L0 57.1777C0 60.8887 2.34375 63.8184 5.9082 64.6973L15.0391 66.8457L15.5762 68.3105L10.6445 76.2207C8.59375 79.3457 9.13086 83.0566 11.8164 85.7422L18.6035 92.5293C21.2891 95.2148 25 95.7031 28.1738 93.7012L36.084 88.8184L37.6465 89.3555L39.7949 98.4863C40.6738 102.1 43.5547 104.395 47.3145 104.395ZM48.0957 96.7773C47.2656 96.7773 46.8262 96.4355 46.6797 95.6543L43.75 83.5449C40.7715 82.8125 37.9883 81.6406 35.8887 80.3223L25.2441 86.8652C24.6582 87.3047 24.0234 87.207 23.4375 86.6211L17.6758 80.8594C17.1387 80.3223 17.0898 79.7363 17.4805 79.0527L24.0234 68.5059C22.9004 66.4551 21.6309 63.6719 20.8496 60.6934L8.74023 57.8125C7.95898 57.666 7.61719 57.2266 7.61719 56.3965L7.61719 48.2422C7.61719 47.3633 7.91016 46.9727 8.74023 46.8262L20.8008 43.8965C21.582 40.7227 23.0469 37.8418 23.9258 36.0352L17.4316 25.4883C16.9922 24.7559 17.041 24.1699 17.5781 23.584L23.3887 17.9199C23.9746 17.334 24.5117 17.2363 25.2441 17.6758L35.791 24.0723C37.8906 22.9004 40.8691 21.6797 43.7988 20.8496L46.6797 8.74023C46.8262 7.95898 47.2656 7.61719 48.0957 7.61719L56.3965 7.61719C57.2266 7.61719 57.666 7.95898 57.7637 8.74023L60.7422 20.9473C63.7695 21.7285 66.4062 22.9492 68.6035 24.1211L79.1992 17.6758C79.9805 17.2363 80.4688 17.334 81.1035 17.9199L86.8652 23.584C87.4512 24.1699 87.4512 24.7559 87.0117 25.4883L80.5176 36.0352C81.4453 37.8418 82.8613 40.7227 83.6426 43.8965L95.752 46.8262C96.5332 46.9727 96.875 47.3633 96.875 48.2422L96.875 56.3965C96.875 57.2266 96.4844 57.666 95.752 57.8125L83.5938 60.6934C82.8125 63.6719 81.5918 66.4551 80.4199 68.5059L86.9629 79.0527C87.3535 79.7363 87.3535 80.3223 86.7676 80.8594L81.0547 86.6211C80.4199 87.207 79.834 87.3047 79.1992 86.8652L68.5547 80.3223C66.4551 81.6406 63.7207 82.8125 60.7422 83.5449L57.7637 95.6543C57.666 96.4355 57.2266 96.7773 56.3965 96.7773ZM52.2461 70.8496C62.4512 70.8496 70.8496 62.4512 70.8496 52.1973C70.8496 42.041 62.4512 33.6426 52.2461 33.6426C42.041 33.6426 33.5938 42.041 33.5938 52.1973C33.5938 62.4023 41.9922 70.8496 52.2461 70.8496ZM52.2461 63.2812C46.1914 63.2812 41.2109 58.3008 41.2109 52.1973C41.2109 46.1914 46.1914 41.2109 52.2461 41.2109C58.2031 41.2109 63.1836 46.1914 63.1836 52.1973C63.1836 58.252 58.2031 63.2812 52.2461 63.2812Z" fill="#000000" fill-opacity="0.85"/>
 </g>
</svg>
