<?xml version="1.0" encoding="UTF-8"?>
<!--Generator: Apple Native CoreSVG 232.5-->
<!DOCTYPE svg
PUBLIC "-//W3C//DTD SVG 1.1//EN"
       "http://www.w3.org/Graphics/SVG/1.1/DTD/svg11.dtd">
<svg version="1.1" xmlns="http://www.w3.org/2000/svg" xmlns:xlink="http://www.w3.org/1999/xlink" width="99.6094" height="99.6582">
 <g>
  <rect height="99.6582" opacity="0" width="99.6094" x="0" y="0"/>
  <path d="M49.8047 99.6094C77.0508 99.6094 99.6094 77.002 99.6094 49.8047C99.6094 22.5586 77.002 0 49.7559 0C22.5586 0 0 22.5586 0 49.8047C0 77.002 22.6074 99.6094 49.8047 99.6094ZM49.8047 91.3086C26.7578 91.3086 8.34961 72.8516 8.34961 49.8047C8.34961 26.7578 26.709 8.30078 49.7559 8.30078C72.8027 8.30078 91.3086 26.7578 91.3086 49.8047C91.3086 72.8516 72.8516 91.3086 49.8047 91.3086Z" fill="#000000" fill-opacity="0.85"/>
  <path d="M47.2168 78.418L52.2949 78.418C53.7109 78.418 54.7363 77.5391 55.0293 76.123L56.4941 70.1172C57.5195 69.7754 58.5938 69.3359 59.4727 68.8965L64.7461 72.1191C65.918 72.9492 67.2852 72.8027 68.2617 71.8262L71.7285 68.3105C72.7539 67.334 72.9004 65.918 72.0703 64.6973L68.8965 59.4727C69.3359 58.5449 69.7266 57.5684 70.0684 56.543L76.123 55.1758C77.5391 54.834 78.3691 53.8086 78.3691 52.3438L78.3691 47.4121C78.3691 45.9961 77.5391 44.9707 76.123 44.6777L70.1172 43.2129C69.7266 42.0898 69.2871 41.1133 68.9453 40.2344L72.168 34.9609C72.9004 33.7891 72.8516 32.4707 71.8262 31.3965L68.2617 27.9297C67.2852 27.002 66.0645 26.8066 64.7949 27.4902L59.4727 30.7617C58.5938 30.3711 57.5684 29.9316 56.4941 29.5898L55.0293 23.4863C54.7363 22.0703 53.7109 21.2402 52.2949 21.2402L47.2168 21.2402C45.8008 21.2402 44.7754 22.0703 44.4824 23.4863L43.0176 29.541C41.9922 29.8828 40.918 30.2734 39.9902 30.7617L34.7168 27.4902C33.4961 26.8066 32.2754 26.9531 31.25 27.9297L27.6855 31.3965C26.6602 32.4707 26.6113 33.7891 27.3438 34.9609L30.5664 40.2344C30.2246 41.1133 29.7852 42.0898 29.3945 43.2129L23.3887 44.6777C21.9727 44.9707 21.1914 45.9961 21.1914 47.4121L21.1914 52.3438C21.1914 53.8086 21.9727 54.834 23.3887 55.1758L29.4434 56.543C29.7852 57.5684 30.1758 58.5449 30.6152 59.4727L27.4414 64.6973C26.6113 65.918 26.7578 67.334 27.7832 68.3105L31.25 71.8262C32.2754 72.8027 33.6426 72.9492 34.7656 72.1191L40.0391 68.8965C40.918 69.3359 41.9922 69.7754 43.0176 70.1172L44.4824 76.123C44.7754 77.5391 45.8008 78.418 47.2168 78.418ZM49.7559 59.4727C44.4336 59.4727 40.0879 55.0781 40.0879 49.7559C40.0879 44.4824 44.4336 40.1855 49.7559 40.1855C55.0781 40.1855 59.4238 44.4824 59.4238 49.7559C59.4238 55.0781 55.0781 59.4727 49.7559 59.4727Z" fill="#000000" fill-opacity="0.85"/>
 </g>
</svg>
