<?xml version="1.0" encoding="UTF-8"?>
<!--Generator: Apple Native CoreSVG 232.5-->
<!DOCTYPE svg
PUBLIC "-//W3C//DTD SVG 1.1//EN"
       "http://www.w3.org/Graphics/SVG/1.1/DTD/svg11.dtd">
<svg version="1.1" xmlns="http://www.w3.org/2000/svg" xmlns:xlink="http://www.w3.org/1999/xlink" width="99.6094" height="99.6582">
 <g>
  <rect height="99.6582" opacity="0" width="99.6094" x="0" y="0"/>
  <path d="M99.6094 49.8535C99.6094 77.0996 77.0508 99.6582 49.8047 99.6582C22.6074 99.6582 0 77.0996 0 49.8535C0 22.6562 22.5586 0.0488281 49.7559 0.0488281C77.002 0.0488281 99.6094 22.6562 99.6094 49.8535ZM44.0918 17.6758C43.1641 17.8223 42.4316 18.6035 42.2363 19.5312L41.8945 22.6074C40.625 22.9492 39.5508 23.4375 38.3789 23.8281L36.1816 21.9238C35.4492 21.1914 34.375 20.9961 33.4961 21.5332C32.666 22.0215 32.2266 22.9004 32.373 24.0234L33.0078 27.002C32.0312 27.7344 31.0059 28.5156 30.2246 29.2969L27.3926 28.1738C26.416 27.7832 25.4883 28.0273 24.8047 28.8574C24.1699 29.541 24.0234 30.6152 24.5605 31.4453L26.2207 34.082C25.5371 35.1562 24.9512 36.2793 24.4141 37.2559L21.3867 37.1582C20.4102 37.1094 19.4824 37.6465 19.1895 38.6719C18.7988 39.5508 19.0918 40.4785 19.873 41.2109L22.3145 43.1152C21.9727 44.4336 21.8262 45.5566 21.6309 46.7285L18.7988 47.6074C17.7734 47.998 17.1875 48.7793 17.1875 49.8047C17.1875 50.8301 17.7734 51.5625 18.7988 51.9531L21.6309 52.832C21.8262 54.0039 21.9727 55.2246 22.3145 56.4941L19.873 58.3984C19.0918 59.0332 18.7988 60.0098 19.1406 60.9863C19.4824 61.9141 20.3613 62.5 21.3379 62.5L24.4141 62.3047C24.9512 63.4277 25.5371 64.4043 26.1719 65.5273L24.5605 68.1152C24.0234 68.9941 24.1699 70.0684 24.7559 70.7031C25.4883 71.6309 26.4648 71.875 27.4414 71.4355L30.2246 70.3125C30.957 70.9961 31.9336 71.8262 33.0078 72.6074L32.373 75.5859C32.2266 76.6602 32.6172 77.5391 33.4961 78.0762C34.375 78.5645 35.4492 78.4668 36.1816 77.6855L38.3789 75.7324C39.5508 76.1719 40.6738 76.6602 41.8945 76.9531L42.2363 79.9805C42.4316 81.0547 43.1641 81.7871 44.1406 81.9336C45.166 82.1289 46.0938 81.6406 46.4844 80.7129L47.998 78.0762C48.5352 78.0762 49.2188 78.125 49.8047 78.125C50.4395 78.125 51.0254 78.0762 51.6602 78.0762L53.0762 80.7129C53.5156 81.6406 54.4434 82.1289 55.5176 81.9336C56.4453 81.7871 57.1777 81.0547 57.3242 80.0293L57.7637 76.9531C58.9355 76.6113 60.1074 76.1719 61.2305 75.7324L63.4277 77.6855C64.1602 78.4668 65.1367 78.5645 66.1621 78.0762C66.9922 77.5879 67.334 76.709 67.1875 75.5859L66.5039 72.6074C67.6758 71.8262 68.6035 70.9961 69.3359 70.3125L72.168 71.4355C73.1934 71.875 74.0723 71.6309 74.8535 70.7031C75.4883 70.0195 75.5371 68.9453 75 68.1152L73.3887 65.5273C74.0723 64.4531 74.6582 63.4277 75.1953 62.3047L78.2715 62.5C79.248 62.5 80.127 61.9141 80.4688 60.9863C80.8105 59.9609 80.4688 58.9844 79.6875 58.3984L77.2949 56.4941C77.5391 55.3711 77.832 54.1504 77.9785 52.832L80.8105 51.9531C81.8848 51.5625 82.4219 50.8301 82.4219 49.8047C82.4219 48.7793 81.8359 47.998 80.8105 47.6562L77.9785 46.7285C77.832 45.459 77.5391 44.2871 77.2949 43.1152L79.6875 41.2109C80.5176 40.5273 80.8105 39.5996 80.4688 38.6719C80.127 37.6465 79.1992 37.1094 78.2227 37.1582L75.1953 37.2559C74.5605 36.0352 73.9746 35.0098 73.3887 34.082L75 31.4941C75.5371 30.6641 75.4395 29.5898 74.8047 28.8574C74.0723 28.0762 73.1934 27.7832 72.2168 28.1738L69.3359 29.2969C68.5547 28.5156 67.5781 27.7344 66.5039 27.002L67.1875 24.0234C67.334 22.9004 66.9922 22.0215 66.1621 21.5332C65.2344 20.9961 64.1602 21.1426 63.4277 21.9238L61.2305 23.8281C60.1074 23.3887 58.9844 22.9492 57.7637 22.6074L57.3242 19.5312C57.1777 18.6035 56.4453 17.8223 55.5176 17.6758C54.4922 17.4805 53.5156 18.0176 53.0762 18.8477L51.6602 21.582C51.0254 21.5332 50.4883 21.4844 49.8047 21.4844C49.2188 21.4844 48.5352 21.5332 47.998 21.582L46.4844 18.8477C46.0938 17.9199 45.1172 17.4805 44.0918 17.6758ZM49.8047 72.5098C46.3867 72.5098 43.2129 71.7773 40.332 70.5078L48.0957 57.8125C48.7793 57.959 49.3652 58.0078 49.707 58.0078C53.1738 58.0078 55.957 55.957 57.4219 52.3438L72.0703 52.3438C70.8984 63.8184 61.5723 72.5098 49.8047 72.5098ZM43.7988 44.6777C42.3828 46.2402 41.6992 47.998 41.6992 49.9023C41.6992 51.7578 42.3828 53.5156 43.7988 55.0781L35.9863 67.7734C30.7129 63.6719 27.3926 57.2266 27.3926 49.8535C27.3926 42.334 30.8105 35.791 36.1816 31.6406ZM52.7344 49.8535C52.7344 51.416 51.416 52.7344 49.7559 52.7344C48.2422 52.7344 46.9238 51.416 46.9238 49.8535C46.9238 48.3887 48.2422 47.168 49.7559 47.168C51.416 47.168 52.7344 48.3398 52.7344 49.8535ZM72.0703 47.3145L57.4219 47.3145C55.957 43.7988 53.1738 41.7969 49.707 41.7969C49.3164 41.7969 48.7793 41.8457 48.0957 41.9922L40.5273 29.0527C43.3594 27.7832 46.4844 27.0996 49.8047 27.0996C61.5723 27.0996 70.8984 35.791 72.0703 47.3145Z" fill="#000000" fill-opacity="0.85"/>
 </g>
</svg>
