<?xml version="1.0" encoding="UTF-8"?>
<!--Generator: Apple Native CoreSVG 232.5-->
<!DOCTYPE svg
PUBLIC "-//W3C//DTD SVG 1.1//EN"
       "http://www.w3.org/Graphics/SVG/1.1/DTD/svg11.dtd">
<svg version="1.1" xmlns="http://www.w3.org/2000/svg" xmlns:xlink="http://www.w3.org/1999/xlink" width="133.984" height="106.201">
 <g>
  <rect height="106.201" opacity="0" width="133.984" x="0" y="0"/>
  <path d="M34.8145 76.709L41.9434 76.709C45.0195 76.709 47.4121 74.8535 48.0957 71.9238L49.4629 65.7227C49.6094 65.6738 49.8047 65.5762 49.9512 65.5273L55.4688 68.8477C57.959 70.3125 61.0352 70.0195 63.1348 67.9199L68.1152 62.8906C70.3125 60.6934 70.6055 57.666 69.043 55.1758L65.6738 49.8535C65.7227 49.6582 65.8203 49.5117 65.8691 49.3164L71.9727 47.8516C74.8535 47.168 76.7578 44.7266 76.7578 41.6504L76.7578 35.0098C76.7578 31.9824 74.9023 29.541 71.9727 28.8086L65.8691 27.3438C65.8203 27.1484 65.7227 27.002 65.6738 26.8066L69.043 21.4844C70.6055 18.9941 70.3125 16.0156 68.1152 13.7695L63.1348 8.78906C61.0352 6.68945 57.959 6.34766 55.4688 7.86133L49.9512 11.1328C49.7559 11.084 49.6094 11.0352 49.4141 10.9863L48.0957 4.73633C47.4609 1.85547 45.0195 0 41.9434 0L34.8145 0C31.7383 0 29.3457 1.85547 28.6621 4.73633L27.2949 10.9863C27.0996 11.0352 26.9531 11.084 26.7578 11.1328L21.2891 7.86133C18.7988 6.34766 15.7227 6.68945 13.623 8.78906L8.64258 13.7695C6.44531 16.0156 6.20117 19.043 7.71484 21.4844L11.084 26.8066C11.0352 27.002 10.9375 27.1484 10.8887 27.3438L4.73633 28.8086C1.85547 29.541 0 31.9824 0 35.0098L0 41.6504C0 44.7266 1.85547 47.168 4.73633 47.8516L10.8887 49.3164C10.9375 49.5117 11.0352 49.6582 11.084 49.8535L7.71484 55.1758C6.15234 57.666 6.44531 60.6934 8.64258 62.8906L13.623 67.9199C15.7227 70.0195 18.75 70.3125 21.2402 68.8477L26.8066 65.5273C26.9531 65.5762 27.1484 65.6738 27.2949 65.7227L28.6621 71.9238C29.3457 74.8535 31.7383 76.709 34.8145 76.709ZM35.7422 69.873C35.2539 69.873 35.0098 69.6289 34.8633 69.1406L32.7637 60.4004C30.4199 59.8633 28.2715 58.7891 26.5625 57.8613L18.9453 62.5C18.457 62.793 18.1152 62.7441 17.7734 62.4023L14.0625 58.7402C13.7207 58.3984 13.6719 58.1055 13.9648 57.6172L18.5547 50.0488C17.9688 48.584 16.6992 46.3867 16.1133 43.8477L7.51953 41.7969C7.03125 41.6992 6.78711 41.4062 6.78711 40.918L6.78711 35.7422C6.78711 35.2539 7.03125 35.0098 7.51953 34.9121L16.1133 32.8613C16.6992 30.2734 17.9688 28.125 18.5547 26.6113L13.9648 19.043C13.6719 18.6035 13.7207 18.3105 14.0625 17.9199L17.7734 14.3066C18.1152 13.9648 18.457 13.916 18.9453 14.1602L26.5625 18.7988C28.2715 17.8711 30.4199 16.7969 32.7637 16.2598L34.8633 7.56836C35.0098 7.08008 35.2539 6.83594 35.7422 6.83594L41.0156 6.83594C41.5039 6.83594 41.748 7.08008 41.8945 7.56836L43.9941 16.2598C46.3379 16.7969 48.4863 17.8711 50.1953 18.7988L57.8125 14.1602C58.252 13.916 58.6426 13.9648 58.9844 14.3066L62.6953 17.9199C63.0371 18.3105 63.0859 18.6035 62.793 19.043L58.2031 26.6113C58.7891 28.125 60.0586 30.2734 60.6445 32.8613L69.2383 34.9121C69.7266 35.0098 69.9707 35.2539 69.9707 35.7422L69.9707 40.918C69.9707 41.4062 69.7266 41.6992 69.2383 41.7969L60.6445 43.8477C60.0586 46.3867 58.7891 48.584 58.2031 50.0488L62.793 57.6172C63.0859 58.1055 63.0371 58.3984 62.6953 58.7402L58.9844 62.4023C58.6426 62.7441 58.252 62.793 57.8125 62.5L50.1953 57.8613C48.4863 58.7891 46.3379 59.8633 43.9941 60.4004L41.8945 69.1406C41.748 69.6289 41.5039 69.873 41.0156 69.873ZM38.3789 53.1738C46.4355 53.1738 53.0762 46.4844 53.0762 38.3301C53.0762 30.2734 46.4355 23.6328 38.3789 23.6328C30.1758 23.6328 23.584 30.2734 23.584 38.3301C23.584 46.4355 30.1758 53.1738 38.3789 53.1738ZM38.3789 45.9473C34.2285 45.9473 30.7617 42.5781 30.7617 38.3301C30.7617 34.2285 34.2285 30.8105 38.3789 30.8105C42.4805 30.8105 45.8496 34.2285 45.8496 38.3301C45.8496 42.5293 42.4805 45.9473 38.3789 45.9473ZM98.877 106.152L104.492 106.152C107.275 106.152 109.619 104.541 110.059 102.002L110.986 97.0703C111.23 97.0215 111.377 96.9727 111.523 96.9238L115.674 99.5117C117.92 100.928 120.703 100.635 122.656 98.584L126.611 94.6289C128.564 92.627 128.955 89.8438 127.441 87.5977L124.805 83.5938C124.854 83.3984 124.902 83.3008 125 83.1055L129.834 82.0801C132.324 81.543 133.984 79.2969 133.984 76.5137L133.984 71.0449C133.984 68.3105 132.324 66.0156 129.834 65.4785L125 64.502C124.902 64.3066 124.854 64.1602 124.805 63.9648L127.441 59.9609C128.955 57.7148 128.564 54.9805 126.611 52.9785L122.656 48.9746C120.703 46.9727 117.92 46.6309 115.674 48.0469L111.523 50.6348C111.377 50.5859 111.23 50.5371 110.986 50.4883L110.059 45.6055C109.619 43.0176 107.275 41.4062 104.492 41.4062L98.877 41.4062C96.0938 41.4062 93.75 43.0176 93.2617 45.6055L92.334 50.4883C92.1387 50.5371 91.9922 50.5859 91.7969 50.6348L87.6465 48.0469C85.4004 46.6309 82.666 46.9727 80.7129 48.9746L76.7578 52.9785C74.8047 54.9805 74.4141 57.7148 75.8789 59.9609L78.5156 63.9648C78.4668 64.1602 78.418 64.3066 78.3691 64.502L73.5352 65.4785C70.9961 66.0156 69.3359 68.3105 69.3359 71.0449L69.3359 76.5137C69.3359 79.2969 70.9961 81.543 73.5352 82.0801L78.3691 83.1055C78.418 83.3008 78.4668 83.3984 78.5156 83.5938L75.8789 87.5977C74.4141 89.8438 74.8047 92.627 76.7578 94.6289L80.7129 98.584C82.666 100.635 85.4004 100.928 87.6465 99.5117L91.7969 96.9238C91.9922 96.9727 92.1387 97.0215 92.334 97.0703L93.2617 102.002C93.75 104.541 96.0938 106.152 98.877 106.152ZM100.146 99.6582C99.5605 99.6582 99.2676 99.3652 99.1211 98.877L97.4121 91.8457C95.459 91.4062 93.7012 90.7227 91.8457 89.502L85.6934 93.3594C85.3027 93.6035 84.8145 93.5547 84.4238 93.2129L82.2266 90.918C81.7871 90.4785 81.7383 90.0879 82.0312 89.6484L85.7422 83.6426C85.3516 82.4707 84.0332 80.3711 83.5449 77.9785L76.5625 76.3672C76.0742 76.2695 75.7812 75.8789 75.7812 75.3906L75.7812 72.168C75.7812 71.6797 76.0742 71.2891 76.5625 71.1914L83.5449 69.5801C84.0332 67.1875 85.3516 65.1367 85.7422 63.916L82.0312 57.9102C81.7383 57.5195 81.7871 57.0801 82.2266 56.6406L84.4238 54.3945C84.8145 54.0039 85.3027 53.9551 85.6934 54.248L91.8457 58.0566C93.7012 56.8848 95.459 56.1523 97.4121 55.7129L99.1211 48.6816C99.2676 48.1934 99.5605 47.9004 100.146 47.9004L103.174 47.9004C103.76 47.9004 104.053 48.1934 104.199 48.6816L105.908 55.7129C107.861 56.1523 109.619 56.8848 111.475 58.0566L117.627 54.248C118.066 53.9551 118.506 54.0039 118.896 54.3945L121.143 56.6406C121.533 57.0801 121.582 57.5195 121.338 57.9102L117.578 63.916C118.018 65.1367 119.287 67.1875 119.775 69.5801L126.758 71.1914C127.246 71.2891 127.539 71.6797 127.539 72.168L127.539 75.3906C127.539 75.8789 127.246 76.2695 126.758 76.3672L119.775 77.9785C119.287 80.3711 118.018 82.4707 117.578 83.6426L121.338 89.6484C121.582 90.0879 121.533 90.4785 121.143 90.918L118.896 93.2129C118.506 93.5547 118.066 93.6035 117.627 93.3594L111.475 89.502C109.619 90.7227 107.861 91.4062 105.908 91.8457L104.199 98.877C104.053 99.3652 103.76 99.6582 103.174 99.6582ZM101.66 85.2539C107.91 85.2539 113.086 80.0781 113.086 73.7793C113.086 67.5293 107.91 62.4023 101.66 62.4023C95.3125 62.4023 90.1855 67.5293 90.1855 73.7793C90.1855 80.0293 95.3125 85.2539 101.66 85.2539ZM101.66 79.1016C98.7305 79.1016 96.3867 76.709 96.3867 73.7793C96.3867 70.8984 98.7305 68.6035 101.66 68.6035C104.443 68.6035 106.836 70.8984 106.836 73.7793C106.836 76.6602 104.443 79.1016 101.66 79.1016Z" fill="#000000" fill-opacity="0.85"/>
 </g>
</svg>
