<?xml version="1.0" encoding="UTF-8"?>
<!--Generator: Apple Native CoreSVG 232.5-->
<!DOCTYPE svg
PUBLIC "-//W3C//DTD SVG 1.1//EN"
       "http://www.w3.org/Graphics/SVG/1.1/DTD/svg11.dtd">
<svg version="1.1" xmlns="http://www.w3.org/2000/svg" xmlns:xlink="http://www.w3.org/1999/xlink" width="119.447" height="99.6582">
 <g>
  <rect height="99.6582" opacity="0" width="119.447" x="0" y="0"/>
  <path d="M0.983151 49.9512C-0.921146 52.6367-0.04224 55.0293 3.47339 55.0293L10.2117 55.0293C12.8484 79.8828 34.2839 99.6094 59.7234 99.6094C74.616 99.6094 88.0925 92.8223 97.2722 82.2754C99.0789 80.1758 98.8347 77.5391 96.9304 76.1719C95.0261 74.8047 92.6824 75.293 91.1199 77.0996C83.5515 85.8398 72.321 91.3086 59.7234 91.3086C38.4343 91.3086 21.1003 75.5371 18.6101 55.0293L25.8855 55.0293C29.3523 55.0293 30.2312 52.6367 28.3757 50L17.4382 34.4238C15.8757 32.1777 13.532 32.1289 11.9207 34.4238ZM22.2234 17.334C20.3679 19.4336 20.6121 22.0215 22.5652 23.3887C24.4695 24.7559 26.7644 24.3164 28.3757 22.5098C35.9929 13.8184 47.2234 8.30078 59.7234 8.30078C80.9636 8.30078 98.2976 24.0723 100.837 44.6289L93.5613 44.6289C90.0945 44.6289 89.2156 46.9727 91.071 49.6582L102.009 65.2344C103.571 67.4805 105.915 67.5293 107.526 65.2344L118.415 49.707C120.368 46.9727 119.44 44.6289 115.925 44.6289L109.235 44.6289C106.55 19.7754 85.1628 0 59.7234 0C44.8308 0 31.4031 6.73828 22.2234 17.334Z" fill="#000000" fill-opacity="0.85"/>
  <path d="M57.6726 74.1211L61.7253 74.1211C63.1414 74.1211 64.3132 73.2422 64.6062 71.7285L65.7292 67.1387C66.4128 66.9434 67.1453 66.6016 67.8289 66.2598L71.8328 68.75C73.1023 69.5312 74.4207 69.5312 75.5437 68.3594L78.3269 65.5762C79.3035 64.5508 79.4499 63.1836 78.6199 61.8164L76.2273 57.7637C76.6179 57.1289 76.7644 56.4941 77.0085 55.9082L81.6472 54.7852C83.1121 54.3945 84.0398 53.3203 84.0398 51.8066L84.0398 47.8027C84.0398 46.3867 83.0632 45.3613 81.6472 45.0195L77.1062 43.8965C76.7644 43.0664 76.5203 42.5293 76.2761 41.9434L78.8152 37.7441C79.5476 36.5723 79.4011 35.0586 78.4246 34.1309L75.5437 31.3477C74.5183 30.2734 73.1023 30.0781 71.9304 30.8105L67.8289 33.3984C67.0476 32.959 66.4128 32.8125 65.7292 32.5684L64.6062 27.8809C64.3132 26.4648 63.1414 25.5371 61.7253 25.5371L57.6726 25.5371C56.2078 25.5371 55.0359 26.5137 54.7429 27.8809L53.6687 32.5195C52.8874 32.8125 52.2039 32.959 51.5203 33.3984L47.4187 30.8105C46.3445 30.127 44.8308 30.2734 43.8054 31.3477L41.071 34.1309C40.0457 35.1074 39.8015 36.5723 40.5339 37.7441L43.1218 41.9434C42.8777 42.5293 42.5847 43.1641 42.3406 43.8965L37.7019 45.0195C36.2859 45.3613 35.3582 46.4355 35.3582 47.8027L35.3582 51.8066C35.3582 53.3203 36.2859 54.3945 37.7019 54.7852L42.3406 55.9082C42.6335 56.4941 42.8777 57.1289 43.1707 57.7637L40.7781 61.8652C39.9968 63.1836 40.0945 64.5996 41.071 65.5762L43.8054 68.3594C44.8308 69.5312 46.2468 69.5312 47.5164 68.75L51.6179 66.2598C52.3992 66.6992 53.0828 66.9434 53.6687 67.1387L54.7429 71.7285C55.0359 73.1445 56.2078 74.1211 57.6726 74.1211ZM59.7234 57.6172C55.3289 57.6172 51.9109 54.1504 51.9109 49.8535C51.9109 45.5566 55.3289 41.9922 59.7234 41.9434C63.9714 41.8945 67.5359 45.5566 67.5359 49.8535C67.5359 54.1504 63.9714 57.6172 59.7234 57.6172Z" fill="#000000" fill-opacity="0.85"/>
 </g>
</svg>
