<?xml version="1.0" encoding="UTF-8"?>
<!--Generator: Apple Native CoreSVG 232.5-->
<!DOCTYPE svg
PUBLIC "-//W3C//DTD SVG 1.1//EN"
       "http://www.w3.org/Graphics/SVG/1.1/DTD/svg11.dtd">
<svg version="1.1" xmlns="http://www.w3.org/2000/svg" xmlns:xlink="http://www.w3.org/1999/xlink" width="134.766" height="107.08">
 <g>
  <rect height="107.08" opacity="0" width="134.766" x="0" y="0"/>
  <path d="M35.2051 77.0508L41.8457 77.0508C43.8965 77.0508 45.2148 75.8789 45.7031 74.0234L47.6562 65.9668C49.0234 65.4785 50.3418 64.9902 51.5137 64.3066L58.5938 68.7012C60.2051 69.6777 62.1094 69.5312 63.4766 68.1641L68.1641 63.4277C69.4824 62.0605 69.7266 60.1074 68.7012 58.4473L64.3555 51.5137C64.9414 50.293 65.5273 49.0234 65.918 47.7051L73.9746 45.752C75.9277 45.3125 77.0508 43.9453 77.0508 41.9434L77.0508 35.3516C77.0508 33.3984 75.9277 31.9824 73.9746 31.543L66.0156 29.541C65.5273 28.0762 64.9414 26.8066 64.4531 25.7324L68.7012 18.6523C69.6777 16.9434 69.6777 15.1367 68.2617 13.7695L63.4766 9.08203C62.1094 7.8125 60.3027 7.4707 58.6914 8.44727L51.5137 12.8906C50.3906 12.2559 49.0723 11.7188 47.6562 11.2793L45.7031 3.07617C45.2148 1.2207 43.8965 0.0488281 41.8457 0.0488281L35.2051 0.0488281C33.1543 0.0488281 31.7871 1.2207 31.3477 3.07617L29.3945 11.1816C28.0273 11.6699 26.6602 12.1582 25.4883 12.8418L18.3594 8.44727C16.748 7.4707 14.9414 7.76367 13.5742 9.08203L8.78906 13.7695C7.37305 15.1367 7.37305 16.9434 8.34961 18.6523L12.5977 25.7324C12.1094 26.8066 11.5234 28.0762 11.0352 29.541L3.02734 31.543C1.12305 31.9824 0 33.3984 0 35.3516L0 41.9434C0 43.9453 1.12305 45.3125 3.02734 45.752L11.1328 47.7051C11.5234 49.0234 12.1094 50.293 12.6953 51.5137L8.34961 58.4473C7.32422 60.1074 7.56836 62.0605 8.88672 63.4277L13.5742 68.1641C14.9414 69.5312 16.8457 69.6777 18.457 68.7012L25.5371 64.3066C26.709 64.9902 28.0273 65.4785 29.3945 65.9668L31.3477 74.0234C31.7871 75.8789 33.1543 77.0508 35.2051 77.0508ZM38.5254 50.8301C31.7871 50.8301 26.2207 45.2637 26.2207 38.4766C26.2207 31.7871 31.7871 26.2695 38.5254 26.2695C45.2637 26.2695 50.8301 31.7871 50.8301 38.4766C50.8301 45.2637 45.2637 50.8301 38.5254 50.8301ZM98.9258 107.08L104.492 107.08C106.299 107.08 107.52 106.055 107.861 104.492L109.473 97.5098C110.742 97.0215 111.865 96.6309 112.891 96.0449L118.994 99.8535C120.361 100.732 121.973 100.635 123.193 99.4141L127.1 95.459C128.32 94.2383 128.516 92.5293 127.588 91.1621L123.828 85.1074C124.365 84.082 124.805 82.959 125.195 81.8359L132.227 80.1758C133.838 79.834 134.766 78.6133 134.766 76.8555L134.766 71.3379C134.766 69.5801 133.838 68.3594 132.227 67.9688L125.244 66.3086C124.805 65.0391 124.365 63.916 123.877 62.9883L127.588 56.8359C128.516 55.3711 128.467 53.8574 127.197 52.6367L123.193 48.7305C121.973 47.6074 120.41 47.3145 119.043 48.1445L112.891 52.002C111.914 51.5137 110.742 50.9766 109.473 50.6348L107.861 43.5059C107.52 41.9434 106.299 40.8691 104.492 40.8691L98.9258 40.8691C97.168 40.8691 95.9473 41.9434 95.5566 43.5059L93.8965 50.5371C92.7246 50.9766 91.5039 51.3672 90.4785 51.9531L84.3262 48.1445C83.0078 47.3633 81.4453 47.5586 80.2246 48.7305L76.2695 52.6367C75 53.8574 74.9512 55.3711 75.8301 56.8359L79.4922 62.9883C79.0527 63.916 78.6133 65.0391 78.1738 66.3086L71.2402 67.9688C69.5801 68.3594 68.6035 69.5801 68.6035 71.3379L68.6035 76.8555C68.6035 78.6133 69.5801 79.834 71.2402 80.1758L78.2715 81.8359C78.6133 82.959 79.0527 84.082 79.5898 85.1074L75.8301 91.1621C74.9023 92.5293 75.1465 94.2383 76.3184 95.459L80.2246 99.4141C81.4453 100.635 83.0566 100.732 84.4238 99.8535L90.5273 96.0449C91.5527 96.6309 92.7246 97.0215 93.8965 97.5098L95.5566 104.492C95.9473 106.055 97.168 107.08 98.9258 107.08ZM101.709 83.7402C96.3379 83.7402 91.9434 79.3457 91.9434 73.9258C91.9434 68.6035 96.3379 64.209 101.709 64.209C107.08 64.209 111.475 68.6035 111.475 73.9258C111.475 79.3457 107.08 83.7402 101.709 83.7402Z" fill="#000000" fill-opacity="0.85"/>
 </g>
</svg>
