<?xml version="1.0" encoding="UTF-8"?>
<!--Generator: Apple Native CoreSVG 232.5-->
<!DOCTYPE svg
PUBLIC "-//W3C//DTD SVG 1.1//EN"
       "http://www.w3.org/Graphics/SVG/1.1/DTD/svg11.dtd">
<svg version="1.1" xmlns="http://www.w3.org/2000/svg" xmlns:xlink="http://www.w3.org/1999/xlink" width="93.8965" height="107.861">
 <g>
  <rect height="107.861" opacity="0" width="93.8965" x="0" y="0"/>
  <path d="M21.2891 102.344L72.6074 102.344C81.7871 102.344 86.8652 97.5098 86.8652 88.2812L86.8652 58.3008L87.207 58.3008C91.5039 57.373 93.8965 53.9062 93.8965 48.9258L93.8965 36.084C93.8965 30.127 90.5762 26.3672 84.6191 26.3672L74.7559 26.3672C77.3438 23.7793 78.8574 20.2637 78.8574 16.2109C78.8574 6.73828 71.3867 0 61.9141 0C55.0781 0 49.4141 3.75977 46.9238 10.3027C44.4336 3.75977 38.8184 0 31.9336 0C22.5098 0 14.9902 6.73828 14.9902 16.2109C14.9902 20.2637 16.5039 23.7793 19.1406 26.3672L9.27734 26.3672C3.56445 26.3672 0 30.127 0 36.084L0 48.9258C0 53.9062 2.34375 57.373 6.64062 58.3008L6.98242 58.3008L6.98242 88.2812C6.98242 97.5098 12.0605 102.344 21.2891 102.344ZM42.5781 95.0195L21.1914 95.0195C17.1387 95.0195 14.8438 92.7246 14.8438 88.6719L14.8438 58.6426L42.5781 58.6426ZM51.2695 95.0195L51.2695 58.6426L79.0039 58.6426L79.0039 88.6719C79.0039 92.7246 76.709 95.0195 72.6562 95.0195ZM42.5781 51.2695L11.2793 51.2695C8.83789 51.2695 7.86133 50.2441 7.86133 47.8027L7.86133 37.1582C7.86133 34.7168 8.83789 33.7402 11.2793 33.7402L42.5781 33.7402ZM51.2695 51.2695L51.2695 33.7402L82.666 33.7402C85.1074 33.7402 86.0352 34.7168 86.0352 37.1582L86.0352 47.8027C86.0352 50.2441 85.1074 51.2695 82.666 51.2695ZM42.9199 26.3672L35.3027 26.3672C27.6367 26.3672 23.1445 22.0215 23.1445 16.6504C23.1445 11.2793 27.0508 8.1543 32.4219 8.1543C38.2324 8.1543 42.9199 12.5488 42.9199 19.7754ZM50.9277 26.3672L50.9277 19.7754C50.9277 12.5488 55.6152 8.1543 61.4258 8.1543C66.7969 8.1543 70.7031 11.2793 70.7031 16.6504C70.7031 22.0215 66.2598 26.3672 58.5449 26.3672Z" fill="#000000" fill-opacity="0.85"/>
 </g>
</svg>
