<?xml version="1.0" encoding="UTF-8"?>
<!--Generator: Apple Native CoreSVG 232.5-->
<!DOCTYPE svg
PUBLIC "-//W3C//DTD SVG 1.1//EN"
       "http://www.w3.org/Graphics/SVG/1.1/DTD/svg11.dtd">
<svg version="1.1" xmlns="http://www.w3.org/2000/svg" xmlns:xlink="http://www.w3.org/1999/xlink" width="99.6094" height="99.6582">
 <g>
  <rect height="99.6582" opacity="0" width="99.6094" x="0" y="0"/>
  <path d="M99.6094 49.8535C99.6094 77.0996 77.0508 99.6582 49.8047 99.6582C22.6074 99.6582 0 77.0996 0 49.8535C0 22.6562 22.5586 0.0488281 49.7559 0.0488281C77.002 0.0488281 99.6094 22.6562 99.6094 49.8535ZM29.248 52.2949L29.248 68.457C29.248 72.6562 31.7383 74.8535 35.8887 74.8535L47.7539 74.8535L47.7539 52.2949ZM51.8555 52.2949L51.8555 74.8535L63.7207 74.8535C67.8711 74.8535 70.3613 72.6562 70.3613 68.457L70.3613 52.2949ZM49.8047 27.5879C48.4863 24.1699 45.6055 22.2168 42.0898 22.2168C37.2559 22.2168 33.4473 25.6836 33.4473 30.5664C33.4473 32.7148 34.2773 34.668 35.7422 36.0352L29.9316 36.0352C27.2949 36.0352 25.6836 37.1582 25.6836 39.7949L25.6836 45.8496C25.6836 48.584 27.1973 49.6094 29.9316 49.6094L47.7539 49.6094L47.7539 36.0352L43.8477 36.0352C39.8926 36.0352 37.5488 33.5938 37.5488 30.7617C37.5488 28.0273 39.5996 26.3672 42.334 26.3672C45.3613 26.3672 47.7539 28.7109 47.7539 32.4219L47.7539 36.0352L51.8555 36.0352L51.8555 32.4219C51.8555 28.7109 54.248 26.3672 57.3242 26.3672C60.0586 26.3672 62.0605 28.0273 62.0605 30.7617C62.0605 33.5938 59.7168 36.0352 55.7617 36.0352L51.8555 36.0352L51.8555 49.6094L69.7266 49.6094C72.4609 49.6094 73.9258 48.584 73.9258 45.8496L73.9258 39.7949C73.9258 37.1582 72.4609 36.0352 69.7266 36.0352L63.8672 36.0352C65.3809 34.668 66.1621 32.7148 66.1621 30.5664C66.1621 25.6836 62.3535 22.2168 57.5684 22.2168C54.0527 22.2168 51.123 24.1699 49.8047 27.5879Z" fill="#000000" fill-opacity="0.85"/>
 </g>
</svg>
