<?xml version="1.0" encoding="UTF-8"?>
<!--Generator: Apple Native CoreSVG 232.5-->
<!DOCTYPE svg
PUBLIC "-//W3C//DTD SVG 1.1//EN"
       "http://www.w3.org/Graphics/SVG/1.1/DTD/svg11.dtd">
<svg version="1.1" xmlns="http://www.w3.org/2000/svg" xmlns:xlink="http://www.w3.org/1999/xlink" width="114.746" height="83.4473">
 <g>
  <rect height="83.4473" opacity="0" width="114.746" x="0" y="0"/>
  <path d="M2.97852 40.918L2.97852 46.2891L49.707 46.2891C46.8262 52.2461 37.4512 61.0352 30.6641 61.7676C28.1738 62.0117 26.7578 63.5742 26.7578 65.918C26.7578 68.0664 28.4668 70.0684 31.25 69.6777C38.7695 68.5059 50.8301 59.7656 54.0527 49.707L54.3945 49.707L54.3945 82.373L60.3027 82.373L60.3027 49.707L60.6934 49.707C63.916 59.7656 75.9766 68.5059 83.4961 69.6777C86.2793 70.0684 87.9883 68.0664 87.9883 65.918C87.9883 63.5742 86.5723 62.0117 84.0332 61.7676C77.2949 61.0352 67.8711 52.2461 65.0391 46.2891L111.279 46.2891L111.279 40.918L76.9043 40.918C83.1055 38.1348 87.4023 33.0566 87.4023 26.9043C87.4023 19.7754 82.1777 14.5508 75.1465 14.5508C69.043 14.5508 63.5254 18.4082 60.3027 24.6582L60.3027 0.878906L54.3945 0.878906L54.3945 24.6582C51.2207 18.4082 45.7031 14.5508 39.5508 14.5508C32.5684 14.5508 27.2949 19.7754 27.2949 26.9043C27.2949 33.0566 31.6406 38.1348 37.793 40.918ZM52.0508 40.1855C42.4316 40.1855 34.1797 33.5938 34.1797 27.4414C34.1797 23.7305 36.4258 21.4844 39.9414 21.4844C47.168 21.4844 53.5156 29.541 53.5156 38.8184L53.5156 40.1855ZM62.6465 40.1855L61.1816 40.1855L61.1816 38.8184C61.1816 29.541 67.5293 21.4844 74.7559 21.4844C78.3203 21.4844 80.5176 23.7305 80.5176 27.4414C80.5176 33.5938 72.3145 40.1855 62.6465 40.1855ZM15.332 83.4473L99.4141 83.4473C109.668 83.4473 114.746 78.418 114.746 68.3594L114.746 15.1855C114.746 5.12695 109.668 0.0488281 99.4141 0.0488281L15.332 0.0488281C5.12695 0.0488281 0 5.12695 0 15.1855L0 68.3594C0 78.418 5.12695 83.4473 15.332 83.4473ZM15.4297 75.5859C10.5469 75.5859 7.86133 72.998 7.86133 67.9199L7.86133 15.625C7.86133 10.5469 10.5469 7.91016 15.4297 7.91016L99.3164 7.91016C104.102 7.91016 106.885 10.5469 106.885 15.625L106.885 67.9199C106.885 72.998 104.102 75.5859 99.3164 75.5859Z" fill="#000000" fill-opacity="0.85"/>
 </g>
</svg>
