<?xml version="1.0" encoding="UTF-8"?>
<!--Generator: Apple Native CoreSVG 232.5-->
<!DOCTYPE svg
PUBLIC "-//W3C//DTD SVG 1.1//EN"
       "http://www.w3.org/Graphics/SVG/1.1/DTD/svg11.dtd">
<svg version="1.1" xmlns="http://www.w3.org/2000/svg" xmlns:xlink="http://www.w3.org/1999/xlink" width="99.6094" height="99.6582">
 <g>
  <rect height="99.6582" opacity="0" width="99.6094" x="0" y="0"/>
  <path d="M11.2305 71.3379L16.6992 60.8887C18.0664 58.3008 19.5312 56.6406 21.0938 56.6406C22.6074 56.6406 24.2188 58.2031 26.5625 61.2305C31.0547 67.041 34.1309 70.0195 37.2559 70.0195C40.2832 70.0195 43.7988 65.7227 43.7988 62.793C43.7988 60.6445 40.8691 58.6426 40.8691 57.5684C40.8691 57.0801 41.3086 56.7871 42.1387 56.7871C49.2676 56.7871 55.4688 50.9277 55.4688 46.1914C55.4688 41.748 50.6348 38.3789 50.6348 36.8652C50.6348 36.5723 50.8789 36.3281 51.1719 36.3281C51.6113 36.3281 52.1973 36.8164 53.3203 37.6953C58.7891 42.041 61.5234 39.5996 62.0117 36.8652C62.207 35.791 62.793 34.7168 65.4785 33.3496C70.5566 30.7129 75.7324 26.123 75.7324 22.3145C75.7324 17.3828 69.0918 15.2832 69.0918 14.1113C69.0918 13.3789 70.7031 12.6953 73.7793 11.8164L72.5586 7.03125C67.4316 8.34961 63.5742 10.8398 63.5742 13.8184C63.5742 17.7246 70.8008 19.9707 70.8008 22.3145C70.8008 24.5605 66.6504 27.0996 63.5742 28.7598C58.3496 31.7383 58.7402 33.1055 58.0566 34.6191C56.8359 36.8164 54.4434 32.2754 50.3906 32.2754C47.9492 32.2754 46.0938 33.8379 46.0938 36.2793C46.0938 40.0391 50.5371 43.5547 50.5371 46.1914C50.5371 49.3164 46.9238 52.3438 40.7227 52.3438C37.3047 52.3438 35.4492 53.8574 35.4492 56.4941C35.4492 59.082 38.6719 61.5234 38.6719 62.793C38.6719 63.7207 37.9395 64.6484 37.3535 64.6484C36.3281 64.6484 34.082 62.793 30.4688 58.2031C27.2949 54.0527 24.3652 51.709 21.3867 51.709C17.1875 51.709 14.5508 55.1758 13.0371 57.959L8.25195 66.748ZM71.5332 91.4551L75.4883 88.4277C73.291 85.498 70.5078 81.25 64.6973 81.25C61.1328 81.25 60.4004 82.4219 57.959 82.4219C56.4941 82.4219 55.7129 81.1523 55.0781 78.4668C54.4922 76.123 54.248 74.4141 55.7617 73.7793C57.5195 73.0957 63.4277 72.4121 65.4297 66.1621C66.8457 61.9141 68.1641 60.2539 70.5078 60.2539C74.707 60.2539 74.0234 64.6973 79.0527 64.6973C81.25 64.6973 82.4219 63.7695 83.9844 63.7695C86.1328 63.7695 87.5977 65.8691 87.9883 70.9961L92.9199 69.043C92.0898 62.5977 89.0137 58.8379 84.668 58.8379C83.5449 58.8379 82.0801 59.0332 80.7617 59.4727C79.1504 60.0098 78.9062 59.9121 77.6367 58.4473C75.6348 56.1523 73.877 55.3223 71.0938 55.3223C66.1621 55.3223 62.9883 57.7148 60.6445 64.7461C60.0586 66.6504 59.2285 67.2852 55.8594 68.5547L53.8086 69.2871C49.9512 70.752 48.8281 73.584 50.1953 79.541C51.416 84.7656 53.9551 87.4023 57.5195 87.4023C60.6934 87.4023 62.5977 86.2793 64.6973 86.2793C67.7734 86.1816 69.2383 88.2324 71.5332 91.4551ZM61.5723 46.8262C64.7461 46.8262 66.1621 43.9941 69.7266 42.9199C72.0703 42.2363 73.3398 39.8438 73.3398 37.793C73.3398 36.1328 72.5098 34.7168 70.7031 34.7168C68.7988 34.7168 67.041 36.1816 65.8691 38.6719C65.2344 40.0879 64.1602 40.7715 61.5723 41.5039C59.5215 42.1387 58.7891 42.8711 58.7891 44.4336C58.7891 46.0938 60.1074 46.8262 61.5723 46.8262ZM47.4121 69.3848C50.1953 69.3848 52.9297 66.1621 52.9297 63.2812C52.9297 59.7168 51.4648 58.0566 49.7559 58.0566C47.9004 58.0566 46.7285 60.2539 46.7285 63.5742C46.7285 65.4785 45.0684 65.5273 45.0684 67.4316C45.0684 68.6035 45.9961 69.3848 47.4121 69.3848ZM38.8672 78.3203C41.0156 78.3203 42.334 77.1973 42.334 75.4395C42.334 74.0723 41.3086 73.1934 39.8438 73.1934C33.9355 73.1934 33.6914 69.873 30.8594 69.873C29.2969 69.873 28.2227 70.8008 28.2227 72.168C28.2227 73.2422 29.2969 74.0723 30.7617 74.0723C33.8867 74.0723 32.4219 78.3203 38.8672 78.3203ZM49.8047 99.6094C77.0508 99.6094 99.6094 77.002 99.6094 49.8047C99.6094 22.5586 77.002 0 49.7559 0C22.5586 0 0 22.5586 0 49.8047C0 77.002 22.6074 99.6094 49.8047 99.6094ZM49.8047 92.9688C26.2207 92.9688 6.64062 73.3887 6.64062 49.8047C6.64062 26.2207 26.1719 6.64062 49.7559 6.64062C73.3398 6.64062 92.9688 26.2207 92.9688 49.8047C92.9688 73.3887 73.3887 92.9688 49.8047 92.9688Z" fill="#000000" fill-opacity="0.85"/>
 </g>
</svg>
