<?xml version="1.0" encoding="UTF-8"?>
<!--Generator: Apple Native CoreSVG 232.5-->
<!DOCTYPE svg
PUBLIC "-//W3C//DTD SVG 1.1//EN"
       "http://www.w3.org/Graphics/SVG/1.1/DTD/svg11.dtd">
<svg version="1.1" xmlns="http://www.w3.org/2000/svg" xmlns:xlink="http://www.w3.org/1999/xlink" width="99.6094" height="99.6582">
 <g>
  <rect height="99.6582" opacity="0" width="99.6094" x="0" y="0"/>
  <path d="M51.7578 86.7188C58.0078 86.7188 75.0977 64.2578 75.0977 55.8594C75.0977 51.123 64.5508 41.8945 59.0332 41.8945C56.6406 41.8945 52.7832 45.3125 50 45.3125C47.2168 45.3125 40.9668 39.8438 40.9668 37.4512C40.9668 36.084 42.1387 35.3027 43.5059 35.3027C45.8984 35.3027 49.6582 39.3066 53.4668 39.3066C56.6406 39.3066 58.3496 37.1094 58.3496 33.9355C58.3496 32.2754 57.4219 30.6152 56.0547 28.4668C61.084 26.0254 71.1426 20.752 74.4141 14.0137C70.752 8.34961 61.0352 4.63867 49.707 4.63867C32.959 4.63867 16.4551 14.502 14.9902 24.0723C14.4531 29.1992 18.3594 34.8145 25.1953 40.7715L32.3242 46.9727C34.5703 48.9746 35.8887 49.9023 35.8887 51.1719C35.8887 53.2715 33.5449 54.7363 33.5449 57.4219C33.5449 59.8633 34.7168 61.9629 37.2559 63.8184C45.166 69.7754 47.0703 70.6055 47.0703 72.4121C47.1191 75.6348 45.2148 78.0762 45.2148 81.0547C45.2148 83.7402 48.6816 86.7188 51.7578 86.7188ZM49.8047 99.6094C77.0508 99.6094 99.6094 77.002 99.6094 49.8047C99.6094 22.5586 77.002 0 49.7559 0C22.5586 0 0 22.5586 0 49.8047C0 77.002 22.6074 99.6094 49.8047 99.6094ZM49.8047 92.9688C26.2207 92.9688 6.64062 73.3887 6.64062 49.8047C6.64062 26.2207 26.1719 6.64062 49.7559 6.64062C73.3398 6.64062 92.9688 26.2207 92.9688 49.8047C92.9688 73.3887 73.3887 92.9688 49.8047 92.9688Z" fill="#000000" fill-opacity="0.85"/>
 </g>
</svg>
