<?xml version="1.0" encoding="UTF-8"?>
<!--Generator: Apple Native CoreSVG 232.5-->
<!DOCTYPE svg
PUBLIC "-//W3C//DTD SVG 1.1//EN"
       "http://www.w3.org/Graphics/SVG/1.1/DTD/svg11.dtd">
<svg version="1.1" xmlns="http://www.w3.org/2000/svg" xmlns:xlink="http://www.w3.org/1999/xlink" width="99.6094" height="99.6582">
 <g>
  <rect height="99.6582" opacity="0" width="99.6094" x="0" y="0"/>
  <path d="M51.8555 87.3535C61.1328 87.3535 68.9453 73.1934 70.9473 69.873C73.4863 65.7227 72.3145 61.5723 72.3145 59.1309C72.3145 57.6172 77.4902 53.8574 77.4902 49.4141C77.4902 44.9219 67.4805 41.2109 67.4805 39.4043C67.4805 38.2324 68.457 36.8164 69.4336 36.8164C71.3379 36.8164 76.6113 43.6035 79.834 43.6035C81.7871 43.6035 82.373 41.8945 83.1543 41.8945C84.4727 41.8945 85.498 56.3965 92.2363 59.375L94.2871 54.8828C88.0859 53.2715 90.3809 36.5723 83.6914 36.5723C81.543 36.5723 80.2246 38.4766 79.3945 38.4766C78.8574 38.4766 77.5879 37.4023 74.707 35.0586C73.291 33.9355 71.8262 32.4219 69.1895 32.4219C65.9668 32.4219 62.8418 36.084 62.8418 39.4531C62.8418 44.7754 72.5586 47.5586 72.5586 49.4141C72.5586 50.5371 72.1191 51.416 70.3125 53.4668C68.3105 55.7129 67.3828 57.2266 67.3828 59.1309C67.3828 59.9609 67.4805 60.7422 67.5293 61.4746C67.7734 64.7461 67.627 65.9668 66.6992 67.5293C64.4531 70.9961 58.0566 82.4219 51.8555 82.4219C46.3379 82.4219 46.8262 74.5117 46.8262 67.1875C46.8262 60.0586 41.1621 54.6875 33.6426 54.6875C27.832 54.6875 25.0488 51.8555 25.0488 46.3867C25.0488 38.7695 33.0566 33.7891 40.6738 33.7891C45.8008 33.7891 49.8535 36.377 53.8574 36.377C57.1289 36.377 59.4238 31.4941 59.4238 27.8809C59.4238 23.3398 49.8047 18.3105 46.875 18.3105C44.4824 18.3105 43.457 19.7266 43.2617 22.8027L44.2383 22.7051L42.6758 21.4844C40.625 19.9707 39.0137 19.0918 37.1582 19.0918C32.4707 19.0918 32.2754 25.3906 29.7852 25.3906C29.1504 25.3906 28.7109 24.9512 28.7109 24.2676C28.7109 22.1191 33.9355 17.7246 33.9844 11.6699L34.0332 7.71484L29.3945 7.71484L29.3945 12.1094C29.3945 17.9688 24.1699 20.1172 24.1699 24.7559C24.1699 27.5879 26.1719 29.4434 29.248 29.4434C35.0586 29.4434 35.1562 23.291 37.5 23.291C39.3555 23.3398 41.5039 26.5625 45.2148 26.5625C47.4609 26.5625 48.5352 25 48.4375 22.2656L47.0703 22.7051C50.0488 23.7793 54.7852 26.123 54.7852 28.3203C54.7852 29.5898 54.248 31.4453 53.2227 31.4453C51.123 31.4453 45.6055 28.8574 40.6738 28.8574C30.3711 28.8574 20.1172 36.0352 20.1172 46.3867C20.1172 54.6387 25 59.6191 33.6426 59.6191C38.3789 59.6191 41.8945 62.793 41.8945 67.1875C41.8945 74.4141 41.0645 87.3535 51.8555 87.3535ZM65.0391 20.0684C66.1133 20.0684 67.0898 21.0938 68.8965 21.0938C70.0195 21.0938 70.8496 20.0684 70.8496 18.75C70.8496 16.3574 68.1641 14.5508 64.6484 14.5508C60.498 14.5508 58.1055 15.918 58.1055 18.3105C58.1055 19.873 59.2773 20.9961 60.8398 20.9961C62.4512 20.9961 63.1836 20.0684 65.0391 20.0684ZM49.8047 99.6094C77.0508 99.6094 99.6094 77.002 99.6094 49.8047C99.6094 22.5586 77.002 0 49.7559 0C22.5586 0 0 22.5586 0 49.8047C0 77.002 22.6074 99.6094 49.8047 99.6094ZM49.8047 92.9688C26.2207 92.9688 6.64062 73.3887 6.64062 49.8047C6.64062 26.2207 26.1719 6.64062 49.7559 6.64062C73.3398 6.64062 92.9688 26.2207 92.9688 49.8047C92.9688 73.3887 73.3887 92.9688 49.8047 92.9688Z" fill="#000000" fill-opacity="0.85"/>
 </g>
</svg>
