<?xml version="1.0" encoding="UTF-8"?>
<!--Generator: Apple Native CoreSVG 232.5-->
<!DOCTYPE svg
PUBLIC "-//W3C//DTD SVG 1.1//EN"
       "http://www.w3.org/Graphics/SVG/1.1/DTD/svg11.dtd">
<svg version="1.1" xmlns="http://www.w3.org/2000/svg" xmlns:xlink="http://www.w3.org/1999/xlink" width="99.6094" height="99.6582">
 <g>
  <rect height="99.6582" opacity="0" width="99.6094" x="0" y="0"/>
  <path d="M10.8398 74.8047C18.2617 73.6328 22.4609 70.8984 22.4609 63.3789C22.4609 58.1055 27.1973 57.7148 27.1973 52.2461C27.1973 49.8047 24.8535 47.8516 20.752 44.4824L17.5293 41.8945C17.1387 41.6016 16.8945 41.1133 16.8945 40.6738C16.8945 39.7461 17.7246 38.916 18.6035 38.916C19.2871 38.916 19.9219 39.5508 22.0703 41.4062C25.5371 44.3359 27.3438 45.9473 29.5898 45.9473C31.9336 45.9473 32.666 44.5801 33.8867 44.5801C34.6191 44.5801 35.1074 45.0195 35.498 46.0938L37.4512 51.4648C39.502 57.4219 43.3105 56.8848 43.9941 61.1328C46.0449 75.1465 48.4863 80.8105 54.248 80.8105C59.9609 80.8105 61.8164 75.5859 61.8164 66.9922C61.8164 60.3027 69.7754 53.3203 72.7051 53.3203C76.3184 53.3203 77.7344 67.7734 92.9688 68.0176L92.9688 63.0859C78.6621 62.8906 82.0312 48.3887 72.7051 48.3887C67.041 48.3887 56.8848 58.0566 56.8848 66.9922C56.8848 73.584 56.2988 75.8789 54.248 75.8789C51.709 75.8789 50.3906 70.8984 48.8281 60.3516C47.7051 53.125 44.0918 55.0293 42.2363 50.1465L39.502 43.1641C38.4277 40.2832 36.4746 39.209 34.375 39.209C32.1289 39.209 30.3223 40.8691 29.4922 40.8691C28.8086 40.8691 26.416 38.7207 25.0977 37.5488C22.9004 35.5957 20.8496 33.9844 18.6035 33.9844C15.0391 33.9844 11.9629 37.4512 11.9629 40.5762C11.9629 45.4102 22.2656 49.7559 22.2656 52.7832C22.2656 56.4941 17.5293 56.0059 17.5293 63.2324C17.5293 69.043 14.3555 69.1406 9.86328 69.9707ZM12.5488 21.6309C13.1348 26.2207 16.1621 29.834 20.0195 29.834C23.0469 29.834 25.6348 27.832 26.3672 24.8047C26.709 23.5352 27.0508 22.998 28.0273 22.4121C30.127 21.2402 31.1035 19.9219 31.1035 17.627C31.1035 15.2344 29.3457 12.793 26.4648 9.76562L22.9492 13.1348C25.1465 15.5273 26.1719 16.2109 26.1719 17.4316C26.1719 19.0918 23.0957 18.8965 22.4121 22.4121C22.0703 24.1211 20.9473 24.9023 19.9707 24.9023C18.9941 24.9023 17.2363 23.7305 17.334 20.9473ZM49.8047 99.6094C77.0508 99.6094 99.6094 77.002 99.6094 49.8047C99.6094 22.5586 77.002 0 49.7559 0C22.5586 0 0 22.5586 0 49.8047C0 77.002 22.6074 99.6094 49.8047 99.6094ZM49.8047 92.9688C26.2207 92.9688 6.64062 73.3887 6.64062 49.8047C6.64062 26.2207 26.1719 6.64062 49.7559 6.64062C73.3398 6.64062 92.9688 26.2207 92.9688 49.8047C92.9688 73.3887 73.3887 92.9688 49.8047 92.9688Z" fill="#000000" fill-opacity="0.85"/>
 </g>
</svg>
