<?xml version="1.0" encoding="UTF-8"?>
<!--Generator: Apple Native CoreSVG 232.5-->
<!DOCTYPE svg
PUBLIC "-//W3C//DTD SVG 1.1//EN"
       "http://www.w3.org/Graphics/SVG/1.1/DTD/svg11.dtd">
<svg version="1.1" xmlns="http://www.w3.org/2000/svg" xmlns:xlink="http://www.w3.org/1999/xlink" width="99.6094" height="99.6582">
 <g>
  <rect height="99.6582" opacity="0" width="99.6094" x="0" y="0"/>
  <path d="M51.8555 88.8672C58.8867 88.8672 76.5625 65.5273 76.5625 56.543C76.5625 51.123 65.332 41.4062 59.2773 41.4062C56.4941 41.4062 52.5391 44.8242 50.0977 44.8242C47.8516 44.8242 41.4062 39.6973 41.4062 37.8418C41.4062 37.1094 42.5781 36.1816 43.5059 36.1816C44.9219 36.1816 49.9512 40.7227 52.7832 40.7227C56.8848 40.7227 59.5703 38.0371 59.5703 33.7891C59.5703 32.3242 58.9844 30.9082 57.7148 29.1016C63.1348 26.3672 72.9004 20.9961 75.9277 14.3066L71.5332 12.0117C68.9453 18.1641 58.0566 23.291 52.4414 26.2207C51.3672 26.7578 50.7812 27.9785 51.7578 29.3457C53.7598 32.1289 54.6387 33.3496 54.6387 34.4238C54.6387 35.2051 54.0527 35.791 53.2227 35.791C51.6113 35.791 46.2891 31.25 43.5059 31.25C40.2344 31.25 36.4746 34.7168 36.4746 37.8418C36.4746 42.334 45.5078 49.7559 50.0977 49.7559C52.832 49.7559 57.7148 46.2891 59.2773 46.2891C62.5 46.2891 71.6309 53.9551 71.6309 56.543C71.6309 62.3047 55.957 83.9355 51.709 83.9355C50.5859 83.9355 49.1699 82.8613 49.1699 81.9336C49.1699 81.3965 49.3164 81.0059 49.8535 79.2969C50.3418 77.7344 51.0742 75.5859 51.0254 73.2422C50.9766 70.0684 48.3887 67.8223 42.6758 63.7695C41.6504 63.0371 40.5762 62.3047 39.502 61.4746C37.9395 60.3027 37.3047 59.2773 37.3047 58.1055C37.3047 57.4707 37.4512 56.7871 37.9395 55.2734C38.3789 53.7109 38.6719 52.4902 38.6719 51.6113C38.6719 49.4141 37.5488 47.9492 35.2051 45.9473C34.8633 45.7031 34.6191 45.459 34.3262 45.2148L26.5137 38.2324C16.748 29.4922 16.7969 24.4629 20.752 17.9688L15.9668 16.9922C11.9141 23.584 11.377 31.4941 23.2422 41.9434L31.0059 48.7793C32.8125 50.3906 33.7402 51.0254 33.7402 51.7578C33.7402 52.832 32.373 55.127 32.373 58.1055C32.373 60.8887 33.7402 63.3789 36.5234 65.4297C42.2363 69.7266 46.0938 72.0703 46.0938 73.3398C46.1426 76.3184 44.2383 78.7598 44.2383 82.1289C44.2383 85.498 48.291 88.8672 51.8555 88.8672ZM49.8047 99.6094C77.0508 99.6094 99.6094 77.002 99.6094 49.8047C99.6094 22.5586 77.002 0 49.7559 0C22.5586 0 0 22.5586 0 49.8047C0 77.002 22.6074 99.6094 49.8047 99.6094ZM49.8047 92.9688C26.2207 92.9688 6.64062 73.3887 6.64062 49.8047C6.64062 26.2207 26.1719 6.64062 49.7559 6.64062C73.3398 6.64062 92.9688 26.2207 92.9688 49.8047C92.9688 73.3887 73.3887 92.9688 49.8047 92.9688Z" fill="#000000" fill-opacity="0.85"/>
 </g>
</svg>
