<?xml version="1.0" encoding="UTF-8"?>
<!--Generator: Apple Native CoreSVG 232.5-->
<!DOCTYPE svg
PUBLIC "-//W3C//DTD SVG 1.1//EN"
       "http://www.w3.org/Graphics/SVG/1.1/DTD/svg11.dtd">
<svg version="1.1" xmlns="http://www.w3.org/2000/svg" xmlns:xlink="http://www.w3.org/1999/xlink" width="99.6094" height="99.6582">
 <g>
  <rect height="99.6582" opacity="0" width="99.6094" x="0" y="0"/>
  <path d="M49.8047 96.875C63.3789 96.875 74.4629 76.8066 74.4629 49.9023C74.4629 22.8516 63.4277 2.7832 49.8047 2.7832C36.1816 2.7832 25.1465 22.8516 25.1465 49.9023C25.1465 76.8066 36.2305 96.875 49.8047 96.875ZM49.8047 8.69141C59.375 8.69141 67.9199 27.7344 67.9199 49.9023C67.9199 71.6797 59.375 90.918 49.8047 90.918C40.2344 90.918 31.6895 71.6797 31.6895 49.9023C31.6895 27.7344 40.2344 8.69141 49.8047 8.69141ZM46.6309 3.4668L46.6309 95.9473L53.0273 95.9473L53.0273 3.4668ZM49.8047 68.1641C34.7656 68.1641 21.4355 72.1191 14.5996 78.418L19.5312 82.4707C25.9766 77.3438 36.4746 74.5605 49.8047 74.5605C63.1348 74.5605 73.6328 77.3438 80.0781 82.4707L85.0098 78.418C78.1738 72.1191 64.8438 68.1641 49.8047 68.1641ZM94.873 46.582L4.73633 46.582L4.73633 52.9785L94.873 52.9785ZM49.8047 31.6895C64.8438 31.6895 78.1738 27.7344 85.0098 21.4355L80.0781 17.3828C73.6328 22.4609 63.1348 25.293 49.8047 25.293C36.4746 25.293 25.9766 22.4609 19.5312 17.3828L14.5996 21.4355C21.4355 27.7344 34.7656 31.6895 49.8047 31.6895ZM49.8047 99.6094C77.0508 99.6094 99.6094 77.002 99.6094 49.8047C99.6094 22.5586 77.002 0 49.7559 0C22.5586 0 0 22.5586 0 49.8047C0 77.002 22.6074 99.6094 49.8047 99.6094ZM49.8047 92.9688C26.2207 92.9688 6.64062 73.3887 6.64062 49.8047C6.64062 26.2207 26.1719 6.64062 49.7559 6.64062C73.3398 6.64062 92.9688 26.2207 92.9688 49.8047C92.9688 73.3887 73.3887 92.9688 49.8047 92.9688Z" fill="#000000" fill-opacity="0.85"/>
 </g>
</svg>
