<?xml version="1.0" encoding="UTF-8"?>
<!--Generator: Apple Native CoreSVG 232.5-->
<!DOCTYPE svg
PUBLIC "-//W3C//DTD SVG 1.1//EN"
       "http://www.w3.org/Graphics/SVG/1.1/DTD/svg11.dtd">
<svg version="1.1" xmlns="http://www.w3.org/2000/svg" xmlns:xlink="http://www.w3.org/1999/xlink" width="99.6094" height="99.6582">
 <g>
  <rect height="99.6582" opacity="0" width="99.6094" x="0" y="0"/>
  <path d="M51.8555 86.8652C60.8398 86.8652 68.5059 72.9492 70.5078 69.6289C72.998 65.625 71.8262 61.6211 71.8262 59.1309C71.8262 57.373 77.002 53.6621 77.002 49.4141C77.002 45.1172 66.9922 41.6992 66.9922 39.2578C66.9922 37.6953 68.1641 36.3281 69.4336 36.3281C71.582 36.3281 76.8555 43.1152 79.834 43.1152C81.7871 43.1152 81.9336 41.4062 83.0078 41.4062C85.498 41.4062 85.8887 55.4199 93.5547 58.7402C95.6543 56.2988 96.9238 53.5156 96.9238 49.8047C96.9238 24.3652 75.7812 2.63672 49.7559 2.68555C35.2539 2.73438 29.8828 8.30078 29.8828 13.1836C29.8828 19.5801 24.6582 21.0449 24.6582 24.9023C24.6582 27.3438 26.3672 28.9551 29.0039 28.9551C34.668 28.9551 34.6191 22.8027 37.5 22.8027C39.6484 22.8516 41.6504 26.0742 45.2148 26.0742C46.8262 26.0742 47.6074 25.0488 47.7051 23.584C47.8027 22.9492 48.0957 22.6562 48.6816 22.6562C51.8066 22.6562 55.2734 26.1719 55.2734 28.3203C55.2734 30.3711 54.4922 31.9336 53.2227 31.9336C51.0254 31.9336 45.5566 29.3457 40.6738 29.3457C29.7363 29.3457 20.6055 37.1094 20.6055 46.3867C20.6055 54.4434 25.3418 59.1309 33.6426 59.1309C38.6719 59.1309 42.3828 62.5488 42.3828 67.1875C42.3828 74.4141 41.6016 86.8652 51.8555 86.8652ZM64.1602 20.3613C62.3535 20.3613 61.6211 21.2891 60.0586 21.2891C58.5449 21.2891 57.4219 20.2148 57.4219 18.7012C57.4219 16.3574 59.7656 15.0391 63.7695 15.0391C67.1875 15.0391 69.7754 16.7969 69.7754 19.0918C69.7754 20.3613 68.9453 21.3867 67.8711 21.3867C66.1133 21.3867 65.1855 20.3613 64.1602 20.3613ZM49.8047 99.6094C77.0508 99.6094 99.6094 77.002 99.6094 49.8047C99.6094 22.5586 77.002 0 49.7559 0C22.5586 0 0 22.5586 0 49.8047C0 77.002 22.6074 99.6094 49.8047 99.6094ZM49.8047 92.9688C26.2207 92.9688 6.64062 73.3887 6.64062 49.8047C6.64062 26.2207 26.1719 6.64062 49.7559 6.64062C73.3398 6.64062 92.9688 26.2207 92.9688 49.8047C92.9688 73.3887 73.3887 92.9688 49.8047 92.9688Z" fill="#000000" fill-opacity="0.85"/>
 </g>
</svg>
