<?xml version="1.0" encoding="UTF-8"?>
<!--Generator: Apple Native CoreSVG 232.5-->
<!DOCTYPE svg
PUBLIC "-//W3C//DTD SVG 1.1//EN"
       "http://www.w3.org/Graphics/SVG/1.1/DTD/svg11.dtd">
<svg version="1.1" xmlns="http://www.w3.org/2000/svg" xmlns:xlink="http://www.w3.org/1999/xlink" width="99.6094" height="99.6582">
 <g>
  <rect height="99.6582" opacity="0" width="99.6094" x="0" y="0"/>
  <path d="M11.1816 71.3379C18.5547 65.7715 18.3105 56.3965 21.0938 56.3965C22.6074 56.3965 24.1211 57.7148 26.7578 61.084C31.25 66.8945 34.2285 69.7754 37.2559 69.7754C40.0879 69.7754 43.5547 65.625 43.5547 62.3047C43.5547 60.7422 40.625 58.7402 40.625 57.5684C40.625 56.8848 41.3086 56.543 42.2852 56.543C49.1699 56.543 55.2246 50.7812 55.2246 46.1914C55.2246 42.9199 49.9023 39.8926 49.9023 37.793C49.9023 36.9141 50.6348 36.3281 51.5137 36.3281C52.0996 36.3281 52.7832 36.5723 53.6621 37.207C58.9844 41.4062 61.4746 39.209 61.9629 36.5234C62.1582 35.4004 62.793 34.2285 65.5762 32.8613C71.3867 29.7852 75.4883 25.5859 75.4883 22.3145C75.4883 18.6523 68.8477 15.5273 68.8477 14.1113C68.8477 13.3301 70.0684 12.6465 73.291 11.6699C68.2617 7.08008 60.2539 3.71094 49.7559 3.71094C22.168 4.78516 4.24805 24.5117 4.10156 49.8047C4.05273 57.7148 6.54297 65.5762 11.1816 71.3379ZM71.582 91.0645C81.1523 84.9609 88.1836 77.5391 92.6758 68.9453C91.8457 62.6953 88.8672 59.082 84.668 59.082C83.5449 59.082 82.1289 59.2773 80.8594 59.7168C79.1504 60.2539 78.8086 60.1562 77.4414 58.5938C75.4883 56.3477 73.7793 55.5664 71.0938 55.5664C66.0156 55.5664 63.0859 58.2031 60.8887 64.7949C60.2539 66.7969 59.375 67.4805 55.957 68.7988L53.9062 69.5312C50.0977 70.9961 49.1211 73.7305 50.4395 79.4922C51.6113 84.5703 54.0527 87.1582 57.5195 87.1582C60.6445 87.1582 62.5488 86.0352 64.6973 86.0352C67.8223 85.9375 69.3848 87.9883 71.582 91.0645ZM61.5723 46.8262C64.7461 46.8262 66.1621 43.9941 69.7266 42.9199C72.0703 42.2363 73.3398 39.8438 73.3398 37.793C73.3398 36.1328 72.5098 34.7168 70.7031 34.7168C68.7988 34.7168 67.041 36.1816 65.8691 38.6719C65.2344 40.0879 64.1602 40.7715 61.5723 41.5039C59.5215 42.1387 58.7891 42.8711 58.7891 44.4336C58.7891 46.0938 60.1074 46.8262 61.5723 46.8262ZM47.4121 69.3848C50.1953 69.3848 52.9297 66.1621 52.9297 63.2812C52.9297 59.7168 51.4648 58.0566 49.7559 58.0566C47.9004 58.0566 46.7285 60.2539 46.7285 63.5742C46.7285 65.4785 45.0684 65.5273 45.0684 67.4316C45.0684 68.6035 45.9961 69.3848 47.4121 69.3848ZM38.8672 78.3203C41.0156 78.3203 42.334 77.1973 42.334 75.4395C42.334 74.0723 41.3086 73.1934 39.8438 73.1934C33.9355 73.1934 33.6914 69.873 30.8594 69.873C29.2969 69.873 28.2227 70.8008 28.2227 72.168C28.2227 73.2422 29.2969 74.0723 30.7617 74.0723C33.8867 74.0723 32.4219 78.3203 38.8672 78.3203ZM49.8047 99.6094C77.0508 99.6094 99.6094 77.002 99.6094 49.8047C99.6094 22.5586 77.002 0 49.7559 0C22.5586 0 0 22.5586 0 49.8047C0 77.002 22.6074 99.6094 49.8047 99.6094ZM49.8047 92.9688C26.2207 92.9688 6.64062 73.3887 6.64062 49.8047C6.64062 26.2207 26.1719 6.64062 49.7559 6.64062C73.3398 6.64062 92.9688 26.2207 92.9688 49.8047C92.9688 73.3887 73.3887 92.9688 49.8047 92.9688Z" fill="#000000" fill-opacity="0.85"/>
 </g>
</svg>
