<?xml version="1.0" encoding="UTF-8"?>
<!--Generator: Apple Native CoreSVG 232.5-->
<!DOCTYPE svg
PUBLIC "-//W3C//DTD SVG 1.1//EN"
       "http://www.w3.org/Graphics/SVG/1.1/DTD/svg11.dtd">
<svg version="1.1" xmlns="http://www.w3.org/2000/svg" xmlns:xlink="http://www.w3.org/1999/xlink" width="99.6094" height="118.594">
 <g>
  <rect height="118.594" opacity="0" width="99.6094" x="0" y="0"/>
  <path d="M0 59.2726C0 86.5187 22.6074 109.077 49.8047 109.077C77.0508 109.077 99.6094 86.5187 99.6094 59.2726C99.6094 35.2491 82.0801 14.8878 59.2285 10.3956L59.2285 3.46203C59.2285-0.00477119 56.8359-0.932506 54.1992 0.971791L38.623 11.8605C36.377 13.423 36.3281 15.7667 38.623 17.378L54.1504 28.3155C56.8359 30.2687 59.2285 29.3409 59.2285 25.8253L59.2285 18.8917C77.6855 23.0909 91.2598 39.4972 91.2598 59.2726C91.2598 82.3194 72.8516 100.776 49.8047 100.776C26.7578 100.776 8.25195 82.3194 8.30078 59.2726C8.34961 45.4054 15.0879 33.1495 25.4883 25.7277C27.4902 24.214 28.125 21.9191 26.9043 19.8683C25.6836 17.8663 22.998 17.3292 20.8496 18.9894C8.30078 28.1202 0 42.8663 0 59.2726Z" fill="#000000" fill-opacity="0.85"/>
  <path d="M37.0117 79.3409C39.1602 79.3409 40.4297 77.8273 40.4297 75.7277L40.4297 44.8683C40.4297 42.4757 38.916 41.0597 36.5234 41.0597C34.5703 41.0597 33.1543 41.9386 31.6406 43.1105L26.123 47.212C25.1465 47.8956 24.5605 48.7257 24.5605 49.8976C24.5605 51.3136 25.5859 52.3878 26.9531 52.3878C27.6855 52.3878 28.1738 52.1925 28.7109 51.753L33.5449 48.1398L33.6426 48.1398L33.6426 75.7277C33.6426 77.8273 34.9121 79.3409 37.0117 79.3409ZM61.0352 79.6339C68.6523 79.6339 73.3887 74.0187 73.3887 66.4015C73.3887 59.8585 69.6777 54.2433 63.2324 54.2433C60.0098 54.2433 57.2754 55.7569 55.957 58.2472L55.7617 58.2472L56.6406 47.1144L69.043 47.1144C70.6543 47.1144 71.7285 46.0402 71.7285 44.38C71.7285 42.7198 70.7031 41.6456 69.043 41.6456L54.8828 41.6456C52.3438 41.6456 51.1719 42.964 51.0254 45.5519L49.9512 59.7609C49.8047 61.9581 50.9277 63.5694 53.0762 63.5694C54.6387 63.5694 55.3223 62.9347 56.2988 61.7628C57.4707 60.2003 59.1309 59.2237 61.084 59.2237C64.9414 59.2237 66.8457 62.6905 66.8457 66.5968C66.8457 70.7472 64.7461 74.214 61.0352 74.214C58.1055 74.214 56.1523 72.3097 55.1758 69.7706C54.541 68.4034 53.5645 67.671 52.2461 67.671C50.5371 67.671 49.4629 68.7941 49.4629 70.503C49.4629 71.089 49.5605 71.6749 49.707 72.212C50.9277 76.8995 56.2988 79.6339 61.0352 79.6339Z" fill="#000000" fill-opacity="0.85"/>
 </g>
</svg>
