<?xml version="1.0" encoding="UTF-8"?>
<!--Generator: Apple Native CoreSVG 232.5-->
<!DOCTYPE svg
PUBLIC "-//W3C//DTD SVG 1.1//EN"
       "http://www.w3.org/Graphics/SVG/1.1/DTD/svg11.dtd">
<svg version="1.1" xmlns="http://www.w3.org/2000/svg" xmlns:xlink="http://www.w3.org/1999/xlink" width="99.6094" height="118.594">
 <g>
  <rect height="118.594" opacity="0" width="99.6094" x="0" y="0"/>
  <path d="M0 59.2726C0 86.5187 22.6074 109.077 49.8047 109.077C77.0508 109.077 99.6094 86.5187 99.6094 59.2726C99.6094 35.2491 82.0801 14.8878 59.2285 10.3956L59.2285 3.46203C59.2285-0.00477119 56.8359-0.932506 54.1992 0.971791L38.623 11.8605C36.377 13.423 36.3281 15.7667 38.623 17.378L54.1504 28.3155C56.8359 30.2687 59.2285 29.3409 59.2285 25.8253L59.2285 18.8917C77.6855 23.0909 91.2598 39.4972 91.2598 59.2726C91.2598 82.3194 72.8516 100.776 49.8047 100.776C26.7578 100.776 8.25195 82.3194 8.30078 59.2726C8.34961 45.4054 15.0879 33.1495 25.4883 25.7277C27.4902 24.214 28.125 21.9191 26.9043 19.8683C25.6836 17.8663 22.998 17.3292 20.8496 18.9894C8.30078 28.1202 0 42.8663 0 59.2726Z" fill="#000000" fill-opacity="0.85"/>
  <path d="M30.9082 63.423L69.2383 63.423C71.9727 63.423 73.8281 61.9581 73.8281 59.3702C73.8281 56.7335 72.0703 55.2198 69.2383 55.2198L30.9082 55.2198C28.0762 55.2198 26.2695 56.7335 26.2695 59.3702C26.2695 61.9581 28.1738 63.423 30.9082 63.423Z" fill="#000000" fill-opacity="0.85"/>
 </g>
</svg>
