<?xml version="1.0" encoding="UTF-8"?>
<!--Generator: Apple Native CoreSVG 232.5-->
<!DOCTYPE svg
PUBLIC "-//W3C//DTD SVG 1.1//EN"
       "http://www.w3.org/Graphics/SVG/1.1/DTD/svg11.dtd">
<svg version="1.1" xmlns="http://www.w3.org/2000/svg" xmlns:xlink="http://www.w3.org/1999/xlink" width="99.6094" height="118.594">
 <g>
  <rect height="118.594" opacity="0" width="99.6094" x="0" y="0"/>
  <path d="M0 59.2726C0 86.5187 22.6074 109.077 49.8047 109.077C77.0508 109.077 99.6094 86.5187 99.6094 59.2726C99.6094 35.2491 82.0801 14.8878 59.2285 10.3956L59.2285 3.46203C59.2285-0.00477119 56.8359-0.932506 54.1992 0.971791L38.623 11.8605C36.377 13.423 36.3281 15.7667 38.623 17.378L54.1504 28.3155C56.8359 30.2687 59.2285 29.3409 59.2285 25.8253L59.2285 18.8917C77.6855 23.0909 91.2598 39.4972 91.2598 59.2726C91.2598 82.3194 72.8516 100.776 49.8047 100.776C26.7578 100.776 8.25195 82.3194 8.30078 59.2726C8.34961 45.4054 15.0879 33.1495 25.4883 25.7277C27.4902 24.214 28.125 21.9191 26.9043 19.8683C25.6836 17.8663 22.998 17.3292 20.8496 18.9894C8.30078 28.1202 0 42.8663 0 59.2726Z" fill="#000000" fill-opacity="0.85"/>
  <path d="M37.0117 79.3409C39.1602 79.3409 40.4297 77.8273 40.4297 75.7277L40.4297 44.8683C40.4297 42.4757 38.916 41.0597 36.5234 41.0597C34.5703 41.0597 33.1543 41.9386 31.6406 43.1105L26.123 47.212C25.1465 47.8956 24.5605 48.7257 24.5605 49.8976C24.5605 51.3136 25.5859 52.3878 26.9531 52.3878C27.6855 52.3878 28.125 52.1925 28.7109 51.753L33.5449 48.1398L33.6426 48.1398L33.6426 75.7277C33.6426 77.8273 34.9121 79.3409 37.0117 79.3409ZM61.6699 79.6339C71.2891 79.6339 74.6582 69.7706 74.6582 60.1515C74.6582 50.5323 71.2891 40.7179 61.6699 40.7179C52.002 40.7179 48.6816 50.5812 48.6816 60.1515C48.6816 69.8194 52.0996 79.6339 61.6699 79.6339ZM61.6699 74.1163C57.6172 74.1163 55.5664 68.1105 55.5664 60.1515C55.5664 52.2413 57.6172 46.2843 61.6699 46.2843C65.7715 46.2843 67.7734 52.2902 67.7734 60.1515C67.7734 68.1105 65.7715 74.1163 61.6699 74.1163Z" fill="#000000" fill-opacity="0.85"/>
 </g>
</svg>
