<?xml version="1.0" encoding="UTF-8"?>
<!--Generator: Apple Native CoreSVG 232.5-->
<!DOCTYPE svg
PUBLIC "-//W3C//DTD SVG 1.1//EN"
       "http://www.w3.org/Graphics/SVG/1.1/DTD/svg11.dtd">
<svg version="1.1" xmlns="http://www.w3.org/2000/svg" xmlns:xlink="http://www.w3.org/1999/xlink" width="99.6094" height="118.562">
 <g>
  <rect height="118.562" opacity="0" width="99.6094" x="0" y="0"/>
  <path d="M0 59.2568C0 86.5029 22.6074 109.061 49.8047 109.061C77.0508 109.061 99.6094 86.5029 99.6094 59.2568C99.6094 42.8505 91.3086 28.1044 78.7598 18.9736C76.6113 17.3134 73.9258 17.8505 72.7051 19.8525C71.4844 21.9033 72.1191 24.1982 74.1211 25.7119C84.5215 33.1337 91.2598 45.3896 91.3086 59.2568C91.3574 82.3037 72.8516 100.761 49.8047 100.761C26.7578 100.761 8.34961 82.3037 8.34961 59.2568C8.34961 39.4814 21.9238 23.0751 40.3809 18.8759L40.3809 25.8583C40.3809 29.3251 42.7734 30.2529 45.459 28.3486L61.0352 17.4111C63.2324 15.8974 63.2812 13.5537 61.0352 11.9423L45.5078 1.00483C42.7734-0.948293 40.3809-0.0205587 40.3809 3.49507L40.3809 10.3798C17.5293 14.872 0 35.2333 0 59.2568Z" fill="#000000" fill-opacity="0.85"/>
  <path d="M33.8867 79.6181C44.1895 79.6181 47.4121 69.6572 47.4121 59.7451C47.4121 49.9794 43.6035 40.7021 34.082 40.7021C26.8555 40.7021 21.8262 46.2197 21.8262 53.788C21.8262 60.3798 25.7812 65.9462 32.2266 65.9462C36.7188 65.9462 39.8438 63.163 40.918 59.5009L40.9668 59.5009C40.9668 59.5986 40.9668 59.7939 40.9668 59.9404C41.0156 65.9462 39.8438 74.1494 34.1309 74.1494C31.5918 74.1494 30.0781 72.831 28.9062 70.7314C28.1738 69.3642 27.3438 68.6806 25.8301 68.6806C23.9746 68.6806 22.998 69.9501 22.998 71.5126C22.998 72.9775 23.9258 74.6376 25.0977 75.8095C27.0996 78.2021 30.3223 79.6181 33.8867 79.6181ZM34.1309 60.7705C30.4199 60.7705 28.418 57.2548 28.418 53.5439C28.418 49.833 30.4688 46.2197 34.2285 46.2197C37.8906 46.2197 40.0879 49.8818 40.0879 53.6904C40.0879 57.499 37.793 60.7705 34.1309 60.7705ZM66.2598 79.6181C75.8789 79.6181 79.248 69.7548 79.248 60.1357C79.248 50.5166 75.8789 40.7021 66.2598 40.7021C56.6406 40.7021 53.2715 50.5654 53.2715 60.1357C53.2715 69.8525 56.6895 79.6181 66.2598 79.6181ZM66.2598 74.1005C62.207 74.1005 60.1074 68.0947 60.1074 60.1357C60.1074 52.2255 62.207 46.2685 66.2598 46.2685C70.3125 46.2685 72.4121 52.2255 72.4121 60.1357C72.4121 68.0947 70.3613 74.1005 66.2598 74.1005Z" fill="#000000" fill-opacity="0.85"/>
 </g>
</svg>
