<?xml version="1.0" encoding="UTF-8"?>
<!--Generator: Apple Native CoreSVG 232.5-->
<!DOCTYPE svg
PUBLIC "-//W3C//DTD SVG 1.1//EN"
       "http://www.w3.org/Graphics/SVG/1.1/DTD/svg11.dtd">
<svg version="1.1" xmlns="http://www.w3.org/2000/svg" xmlns:xlink="http://www.w3.org/1999/xlink" width="99.6094" height="118.562">
 <g>
  <rect height="118.562" opacity="0" width="99.6094" x="0" y="0"/>
  <path d="M0 59.2568C0 86.5029 22.6074 109.061 49.8047 109.061C77.0508 109.061 99.6094 86.5029 99.6094 59.2568C99.6094 42.8505 91.3086 28.1044 78.7598 18.9736C76.6113 17.3134 73.9258 17.8505 72.7051 19.8525C71.4844 21.9033 72.1191 24.1982 74.1211 25.7119C84.5215 33.1337 91.2598 45.3896 91.3086 59.2568C91.3574 82.3037 72.8516 100.761 49.8047 100.761C26.7578 100.761 8.34961 82.3037 8.34961 59.2568C8.34961 39.4814 21.9238 23.0751 40.3809 18.8759L40.3809 25.8583C40.3809 29.3251 42.7734 30.2529 45.459 28.3486L61.0352 17.4111C63.2324 15.8974 63.2812 13.5537 61.0352 11.9423L45.5078 1.00483C42.7734-0.948293 40.3809-0.0205587 40.3809 3.49507L40.3809 10.3798C17.5293 14.872 0 35.2333 0 59.2568Z" fill="#000000" fill-opacity="0.85"/>
  <path d="M29.3945 79.3251C30.957 79.3251 31.7871 78.5927 32.4219 77.1279L44.3848 49.1982C44.9219 47.9287 45.3613 46.6591 45.3613 45.2919C45.3613 42.8505 43.6523 41.6787 41.6016 41.6787L24.8535 41.6787C23.2422 41.6787 22.1191 42.8017 22.1191 44.413C22.1191 46.0244 23.2422 47.0986 24.8535 47.0986L38.623 47.0986L38.623 47.3916L26.8066 73.9541C26.4648 74.833 26.2207 75.5654 26.2207 76.4931C26.2207 78.2021 27.5391 79.3251 29.3945 79.3251ZM62.7441 79.7158C70.3613 79.7158 75.0977 74.0517 75.0977 66.4345C75.0977 59.8916 71.3867 54.2763 64.9902 54.2763C61.6699 54.2763 58.9844 55.7412 57.6172 58.2802L57.4219 58.2802L58.3008 47.1474L70.752 47.1474C72.3633 47.1474 73.4375 46.0732 73.4375 44.413C73.4375 42.7529 72.4121 41.6787 70.752 41.6787L56.5918 41.6787C54.0527 41.6787 52.8809 42.997 52.6855 45.5849L51.6602 59.7939C51.4648 61.9423 52.6367 63.5537 54.7852 63.5537C56.3477 63.5537 57.0312 62.9677 58.0078 61.7958C59.1797 60.2333 60.8398 59.2568 62.8418 59.2568C66.6016 59.2568 68.6035 62.7236 68.6035 66.581C68.6035 70.7802 66.4551 74.1982 62.7441 74.1982C59.8145 74.1982 57.8613 72.3427 56.9336 69.8037C56.25 68.4365 55.2734 67.7529 54.0039 67.7529C52.2461 67.7529 51.1719 68.8271 51.1719 70.5849C51.1719 71.122 51.2695 71.708 51.416 72.2939C52.6367 76.9326 58.0566 79.7158 62.7441 79.7158Z" fill="#000000" fill-opacity="0.85"/>
 </g>
</svg>
