<?xml version="1.0" encoding="UTF-8"?>
<!--Generator: Apple Native CoreSVG 232.5-->
<!DOCTYPE svg
PUBLIC "-//W3C//DTD SVG 1.1//EN"
       "http://www.w3.org/Graphics/SVG/1.1/DTD/svg11.dtd">
<svg version="1.1" xmlns="http://www.w3.org/2000/svg" xmlns:xlink="http://www.w3.org/1999/xlink" width="99.6094" height="118.562">
 <g>
  <rect height="118.562" opacity="0" width="99.6094" x="0" y="0"/>
  <path d="M0 59.2568C0 86.5029 22.6074 109.061 49.8047 109.061C77.0508 109.061 99.6094 86.5029 99.6094 59.2568C99.6094 42.8505 91.3086 28.1044 78.7598 18.9736C76.6113 17.3134 73.9258 17.8505 72.7051 19.8525C71.4844 21.9033 72.1191 24.1982 74.1211 25.7119C84.5215 33.1337 91.2598 45.3896 91.3086 59.2568C91.3574 82.3037 72.8516 100.761 49.8047 100.761C26.7578 100.761 8.34961 82.3037 8.34961 59.2568C8.34961 39.4814 21.9238 23.0751 40.3809 18.8759L40.3809 25.8583C40.3809 29.3251 42.7734 30.2529 45.459 28.3486L61.0352 17.4111C63.2324 15.8974 63.2812 13.5537 61.0352 11.9423L45.5078 1.00483C42.7734-0.948293 40.3809-0.0205587 40.3809 3.49507L40.3809 10.3798C17.5293 14.872 0 35.2333 0 59.2568Z" fill="#000000" fill-opacity="0.85"/>
  <path d="M27.1973 59.2568C27.1973 61.6494 28.8574 63.2607 31.3477 63.2607L45.7031 63.2607L45.7031 77.665C45.7031 80.1064 47.3633 81.8154 49.7559 81.8154C52.1973 81.8154 53.9062 80.1552 53.9062 77.665L53.9062 63.2607L68.3105 63.2607C70.752 63.2607 72.4609 61.6494 72.4609 59.2568C72.4609 56.8154 70.752 55.1064 68.3105 55.1064L53.9062 55.1064L53.9062 40.7509C53.9062 38.2607 52.1973 36.5517 49.7559 36.5517C47.3633 36.5517 45.7031 38.2607 45.7031 40.7509L45.7031 55.1064L31.3477 55.1064C28.8574 55.1064 27.1973 56.8154 27.1973 59.2568Z" fill="#000000" fill-opacity="0.85"/>
 </g>
</svg>
