<?xml version="1.0" encoding="UTF-8"?>
<!--Generator: Apple Native CoreSVG 232.5-->
<!DOCTYPE svg
PUBLIC "-//W3C//DTD SVG 1.1//EN"
       "http://www.w3.org/Graphics/SVG/1.1/DTD/svg11.dtd">
<svg version="1.1" xmlns="http://www.w3.org/2000/svg" xmlns:xlink="http://www.w3.org/1999/xlink" width="99.6094" height="118.562">
 <g>
  <rect height="118.562" opacity="0" width="99.6094" x="0" y="0"/>
  <path d="M0 59.2568C0 86.5029 22.6074 109.061 49.8047 109.061C77.0508 109.061 99.6094 86.5029 99.6094 59.2568C99.6094 42.8505 91.3086 28.1044 78.7598 18.9736C76.6113 17.3134 73.9258 17.8505 72.7051 19.8525C71.4844 21.9033 72.1191 24.1982 74.1211 25.7119C84.5215 33.1337 91.2598 45.3896 91.3086 59.2568C91.3574 82.3037 72.8516 100.761 49.8047 100.761C26.7578 100.761 8.34961 82.3037 8.34961 59.2568C8.34961 39.4814 21.9238 23.0751 40.3809 18.8759L40.3809 25.8583C40.3809 29.3251 42.7734 30.2529 45.459 28.3486L61.0352 17.4111C63.2324 15.8974 63.2812 13.5537 61.0352 11.9423L45.5078 1.00483C42.7734-0.948293 40.3809-0.0205587 40.3809 3.49507L40.3809 10.3798C17.5293 14.872 0 35.2333 0 59.2568Z" fill="#000000" fill-opacity="0.85"/>
  <path d="M36.7676 79.3251C38.916 79.3251 40.1855 77.8115 40.1855 75.7119L40.1855 44.8525C40.1855 42.4599 38.6719 41.0439 36.2793 41.0439C34.3262 41.0439 32.9102 41.9228 31.3965 43.0947L25.8789 47.1962C24.9023 47.8798 24.3164 48.7099 24.3164 49.8818C24.3164 51.2978 25.3418 52.372 26.709 52.372C27.4414 52.372 27.9297 52.1767 28.4668 51.7373L33.3008 48.124L33.3984 48.124L33.3984 75.7119C33.3984 77.8115 34.668 79.3251 36.7676 79.3251ZM61.4258 79.6181C71.0449 79.6181 74.4141 69.7548 74.4141 60.1357C74.4141 50.5166 71.0449 40.7021 61.4258 40.7021C51.7578 40.7021 48.4375 50.5654 48.4375 60.1357C48.4375 69.8037 51.8555 79.6181 61.4258 79.6181ZM61.4258 74.1005C57.373 74.1005 55.3223 68.0947 55.3223 60.1357C55.3223 52.2255 57.373 46.2685 61.4258 46.2685C65.5273 46.2685 67.5293 52.2744 67.5293 60.1357C67.5293 68.0947 65.5273 74.1005 61.4258 74.1005Z" fill="#000000" fill-opacity="0.85"/>
 </g>
</svg>
