<?xml version="1.0" encoding="UTF-8"?>
<!--Generator: Apple Native CoreSVG 232.5-->
<!DOCTYPE svg
PUBLIC "-//W3C//DTD SVG 1.1//EN"
       "http://www.w3.org/Graphics/SVG/1.1/DTD/svg11.dtd">
<svg version="1.1" xmlns="http://www.w3.org/2000/svg" xmlns:xlink="http://www.w3.org/1999/xlink" width="99.6094" height="118.562">
 <g>
  <rect height="118.562" opacity="0" width="99.6094" x="0" y="0"/>
  <path d="M0 59.2568C0 86.5029 22.6074 109.061 49.8047 109.061C77.0508 109.061 99.6094 86.5029 99.6094 59.2568C99.6094 42.8505 91.3086 28.1044 78.7598 18.9736C76.6113 17.3134 73.9258 17.8505 72.7051 19.8525C71.4844 21.9033 72.1191 24.1982 74.1211 25.7119C84.5215 33.1337 91.2598 45.3896 91.3086 59.2568C91.3574 82.3037 72.8516 100.761 49.8047 100.761C26.7578 100.761 8.34961 82.3037 8.34961 59.2568C8.34961 39.4814 21.9238 23.0751 40.3809 18.8759L40.3809 25.8583C40.3809 29.3251 42.7734 30.2529 45.459 28.3486L61.0352 17.4111C63.2324 15.8974 63.2812 13.5537 61.0352 11.9423L45.5078 1.00483C42.7734-0.948293 40.3809-0.0205587 40.3809 3.49507L40.3809 10.3798C17.5293 14.872 0 35.2333 0 59.2568Z" fill="#000000" fill-opacity="0.85"/>
  <path d="M49.9512 79.7158C57.5684 79.7158 62.3047 74.0517 62.3047 66.4345C62.3047 59.8916 58.5938 54.2763 52.1484 54.2763C48.9258 54.2763 46.1914 55.79 44.873 58.2802L44.6777 58.2802L45.5078 47.1474L57.959 47.1474C59.5703 47.1474 60.6445 46.0732 60.6445 44.413C60.6445 42.7529 59.6191 41.6787 57.959 41.6787L43.7988 41.6787C41.2598 41.6787 40.0879 43.0458 39.8926 45.5849L38.8672 59.8427C38.7207 61.9912 39.8438 63.6025 41.9922 63.6025C43.5547 63.6025 44.2383 62.9677 45.2148 61.8447C46.3867 60.2333 48.0469 59.2568 50 59.2568C53.8574 59.2568 55.7617 62.7236 55.7617 66.6298C55.7617 70.7802 53.6621 74.247 49.9023 74.247C47.0215 74.247 45.0195 72.3427 44.0918 69.8037C43.457 68.4365 42.4805 67.7529 41.1621 67.7529C39.4531 67.7529 38.3789 68.8271 38.3789 70.5361C38.3789 71.122 38.4766 71.708 38.623 72.2451C39.8438 76.9326 45.2148 79.7158 49.9512 79.7158Z" fill="#000000" fill-opacity="0.85"/>
 </g>
</svg>
