<?xml version="1.0" encoding="UTF-8"?>
<!--Generator: Apple Native CoreSVG 232.5-->
<!DOCTYPE svg
PUBLIC "-//W3C//DTD SVG 1.1//EN"
       "http://www.w3.org/Graphics/SVG/1.1/DTD/svg11.dtd">
<svg version="1.1" xmlns="http://www.w3.org/2000/svg" xmlns:xlink="http://www.w3.org/1999/xlink" width="99.6094" height="118.562">
 <g>
  <rect height="118.562" opacity="0" width="99.6094" x="0" y="0"/>
  <path d="M0 59.2568C0 86.5029 22.6074 109.061 49.8047 109.061C77.0508 109.061 99.6094 86.5029 99.6094 59.2568C99.6094 42.8505 91.3086 28.1044 78.7598 18.9736C76.6113 17.3134 73.9258 17.8505 72.7051 19.8525C71.4844 21.9033 72.1191 24.1982 74.1211 25.7119C84.5215 33.1337 91.2598 45.3896 91.3086 59.2568C91.3574 82.3037 72.8516 100.761 49.8047 100.761C26.7578 100.761 8.34961 82.3037 8.34961 59.2568C8.34961 39.4814 21.9238 23.0751 40.3809 18.8759L40.3809 25.8583C40.3809 29.3251 42.7734 30.2529 45.459 28.3486L61.0352 17.4111C63.2324 15.8974 63.2812 13.5537 61.0352 11.9423L45.5078 1.00483C42.7734-0.948293 40.3809-0.0205587 40.3809 3.49507L40.3809 10.3798C17.5293 14.872 0 35.2333 0 59.2568Z" fill="#000000" fill-opacity="0.85"/>
  <path d="M36.7676 79.3251C38.916 79.3251 40.1855 77.8115 40.1855 75.7119L40.1855 44.8525C40.1855 42.4599 38.6719 41.0439 36.2793 41.0439C34.3262 41.0439 32.9102 41.9228 31.3965 43.0947L25.8789 47.1962C24.9023 47.8798 24.3164 48.7099 24.3164 49.8818C24.3164 51.2978 25.3418 52.372 26.709 52.372C27.4414 52.372 27.9297 52.1767 28.4668 51.7373L33.3008 48.124L33.3984 48.124L33.3984 75.7119C33.3984 77.8115 34.668 79.3251 36.7676 79.3251ZM60.791 79.6181C68.4082 79.6181 73.1445 74.0029 73.1445 66.3857C73.1445 59.8427 69.4824 54.2275 62.9883 54.2275C59.7656 54.2275 57.0312 55.7412 55.7129 58.2314L55.5176 58.2314L56.3965 47.0986L68.7988 47.0986C70.4102 47.0986 71.4844 46.0244 71.4844 44.3642C71.4844 42.7041 70.459 41.6298 68.7988 41.6298L54.6387 41.6298C52.0996 41.6298 50.9277 42.9482 50.7812 45.5361L49.707 59.7451C49.5605 61.9423 50.6836 63.5537 52.832 63.5537C54.3945 63.5537 55.0781 62.9189 56.0547 61.747C57.2266 60.1845 58.8867 59.208 60.8398 59.208C64.6973 59.208 66.6016 62.6748 66.6016 66.581C66.6016 70.7314 64.502 74.1982 60.791 74.1982C57.8613 74.1982 55.9082 72.2939 54.9316 69.7548C54.2969 68.3876 53.3203 67.6552 52.002 67.6552C50.293 67.6552 49.2188 68.7783 49.2188 70.4873C49.2188 71.0732 49.3164 71.6591 49.4629 72.1962C50.6836 76.8837 56.0547 79.6181 60.791 79.6181Z" fill="#000000" fill-opacity="0.85"/>
 </g>
</svg>
