<?xml version="1.0" encoding="UTF-8"?>
<!--Generator: Apple Native CoreSVG 232.5-->
<!DOCTYPE svg
PUBLIC "-//W3C//DTD SVG 1.1//EN"
       "http://www.w3.org/Graphics/SVG/1.1/DTD/svg11.dtd">
<svg version="1.1" xmlns="http://www.w3.org/2000/svg" xmlns:xlink="http://www.w3.org/1999/xlink" width="99.6094" height="99.6582">
 <g>
  <rect height="99.6582" opacity="0" width="99.6094" x="0" y="0"/>
  <path d="M99.6094 49.8535C99.6094 77.0996 77.0508 99.6582 49.8047 99.6582C22.6074 99.6582 0 77.0996 0 49.8535C0 22.6562 22.5586 0.0488281 49.7559 0.0488281C77.002 0.0488281 99.6094 22.6562 99.6094 49.8535ZM30.0781 69.8242C29.0527 70.2637 28.418 71.2402 28.418 72.6074L28.418 77.6855C28.418 79.541 29.541 80.7129 31.4453 80.7129L32.0312 80.7129C33.8867 80.7129 35.1074 79.541 35.1074 77.6855L35.1074 72.6074C35.1074 71.2891 34.4238 70.3125 33.4473 69.873L33.4473 68.1152C32.1289 67.3828 31.0547 66.5039 30.0781 65.5273ZM57.4219 57.9102C54.6387 59.1797 52.0996 59.8145 49.7559 59.7656C47.4121 59.8145 44.873 59.1797 42.0898 57.9102L33.4473 53.9062L33.4473 68.1152C37.3535 70.5078 42.9688 71.875 49.7559 71.875C63.7207 71.875 72.5586 65.918 72.5586 58.8867L72.5586 50.9277ZM26.9531 58.8867C26.9531 60.9375 28.0762 63.3789 30.0781 65.5273L30.0781 52.3926L26.9531 50.9277ZM43.457 27.5391L20.3613 38.0859C18.8477 38.7695 18.1152 40.0391 18.1152 41.1621C18.1152 42.3828 18.8477 43.5547 20.3613 44.2383L29.9805 48.6328L44.8242 41.748C44.7266 41.6016 44.6777 41.3574 44.6777 41.1621C44.6777 39.5508 47.3145 38.4766 49.8535 38.4766C52.4414 38.4766 54.9805 39.5508 54.9805 41.1621C54.9805 42.8223 52.4414 43.9941 49.8535 43.9941C49.0723 43.9941 48.291 43.8965 47.6074 43.7012L33.5449 50.293L43.457 54.8828C45.8984 55.957 47.8027 56.4453 49.7559 56.3965C51.709 56.4453 53.6621 55.957 56.0547 54.8828L79.1992 44.2383C80.7129 43.5547 81.3965 42.3828 81.3965 41.1621C81.3965 40.0391 80.7129 38.7695 79.1992 38.0859L56.0547 27.5391C53.6621 26.4648 51.709 25.9277 49.7559 25.9766C47.8027 25.9277 45.8984 26.4648 43.457 27.5391Z" fill="#000000" fill-opacity="0.85"/>
 </g>
</svg>
