<?xml version="1.0" encoding="UTF-8"?>
<!--Generator: Apple Native CoreSVG 232.5-->
<!DOCTYPE svg
PUBLIC "-//W3C//DTD SVG 1.1//EN"
       "http://www.w3.org/Graphics/SVG/1.1/DTD/svg11.dtd">
<svg version="1.1" xmlns="http://www.w3.org/2000/svg" xmlns:xlink="http://www.w3.org/1999/xlink" width="131.006" height="141.455">
 <g>
  <rect height="141.455" opacity="0" width="131.006" x="0" y="0"/>
  <path d="M126.367 48.5352L78.5645 26.6602C73.584 24.4141 69.5312 23.3398 65.4785 23.4375C61.4746 23.3398 57.4219 24.4141 52.3926 26.6602L4.63867 48.5352C1.51367 49.9512 0 52.4414 0 54.9316C0 57.4219 1.51367 59.8633 4.63867 61.3281L24.7559 70.5078L55.6641 56.0059C55.3711 55.6641 55.2734 55.2734 55.2734 54.9316C55.2734 51.8555 60.4492 49.5117 65.6738 49.5117C70.9473 49.5117 76.0254 51.8555 76.0254 54.9316C76.0254 58.1055 70.9473 60.498 65.6738 60.498C64.0625 60.498 62.4512 60.2539 61.0352 59.8633L31.543 73.6816L52.3926 83.252C57.4219 85.5469 61.4746 86.5234 65.4785 86.4746C69.5312 86.5234 73.584 85.5469 78.5645 83.252L126.367 61.3281C129.492 59.8633 131.006 57.4219 131.006 54.9316C131.006 52.4414 129.492 49.9512 126.367 48.5352ZM31.3477 80.9082L31.3477 110.596C39.5508 115.576 51.2695 118.604 65.4785 118.604C94.2871 118.604 112.842 106.25 112.842 91.6504L112.842 74.8535L81.3477 89.2578C75.6348 91.8945 70.459 93.2129 65.4785 93.1641C60.5469 93.2129 55.3223 91.8945 49.6094 89.2578ZM18.1641 74.8535L18.1641 91.6504C18.1641 95.8984 20.6055 101.172 25 105.664L25 78.0273ZM25 121.924L31.3477 121.924L31.3477 110.596C28.9062 109.131 26.7578 107.471 25 105.664ZM21.1426 122.266L21.1426 135.107C21.1426 138.965 23.6328 141.455 27.4902 141.455L28.8086 141.455C32.666 141.455 35.1562 138.965 35.1562 135.107L35.1562 122.266C35.1562 118.408 32.666 115.918 28.8086 115.918L27.4902 115.918C23.6328 115.918 21.1426 118.408 21.1426 122.266Z" fill="#000000" fill-opacity="0.85"/>
 </g>
</svg>
