<?xml version="1.0" encoding="UTF-8"?>
<!--Generator: Apple Native CoreSVG 232.5-->
<!DOCTYPE svg
PUBLIC "-//W3C//DTD SVG 1.1//EN"
       "http://www.w3.org/Graphics/SVG/1.1/DTD/svg11.dtd">
<svg version="1.1" xmlns="http://www.w3.org/2000/svg" xmlns:xlink="http://www.w3.org/1999/xlink" width="89.8926" height="89.9902">
 <g>
  <rect height="89.9902" opacity="0" width="89.8926" x="0" y="0"/>
  <path d="M15.332 89.9902L74.5605 89.9902C84.8145 89.9902 89.8926 84.9121 89.8926 74.8535L89.8926 15.2344C89.8926 5.17578 84.8145 0.0976562 74.5605 0.0976562L15.332 0.0976562C5.12695 0.0976562 0 5.12695 0 15.2344L0 74.8535C0 84.9609 5.12695 89.9902 15.332 89.9902ZM15.4297 82.1289C10.5469 82.1289 7.86133 79.541 7.86133 74.4629L7.86133 15.625C7.86133 10.5469 10.5469 7.95898 15.4297 7.95898L74.4629 7.95898C79.2969 7.95898 82.0312 10.5469 82.0312 15.625L82.0312 74.4629C82.0312 79.541 79.2969 82.1289 74.4629 82.1289Z" fill="#000000" fill-opacity="0.85"/>
  <path d="M32.3242 64.9414C33.3008 64.9414 33.9844 64.7461 34.7168 64.4043L63.8184 49.2676C65.8203 48.1934 66.6992 46.9727 66.6992 44.9707C66.6992 43.1152 65.7227 41.748 63.8184 40.6738L34.7168 25C33.9355 24.6094 33.3008 24.4141 32.2266 24.4141C29.9805 24.4141 28.2715 26.0742 28.2715 28.2715C28.2715 30.0781 29.1504 31.25 31.1523 32.2266L55.9082 44.6777L55.9082 44.9707L31.1523 57.1289C29.1016 58.1055 28.2715 59.1797 28.2715 61.0352C28.2715 63.2812 30.0293 64.9414 32.3242 64.9414Z" fill="#000000" fill-opacity="0.85"/>
 </g>
</svg>
