<?xml version="1.0" encoding="UTF-8"?>
<!--Generator: Apple Native CoreSVG 232.5-->
<!DOCTYPE svg
PUBLIC "-//W3C//DTD SVG 1.1//EN"
       "http://www.w3.org/Graphics/SVG/1.1/DTD/svg11.dtd">
<svg version="1.1" xmlns="http://www.w3.org/2000/svg" xmlns:xlink="http://www.w3.org/1999/xlink" width="99.6094" height="99.6582">
 <g>
  <rect height="99.6582" opacity="0" width="99.6094" x="0" y="0"/>
  <path d="M49.8047 99.6094C77.0508 99.6094 99.6094 77.002 99.6094 49.8047C99.6094 22.5586 77.002 0 49.7559 0C22.5586 0 0 22.5586 0 49.8047C0 77.002 22.6074 99.6094 49.8047 99.6094ZM49.8047 91.3086C26.7578 91.3086 8.34961 72.8516 8.34961 49.8047C8.34961 26.7578 26.709 8.30078 49.7559 8.30078C72.8027 8.30078 91.3086 26.7578 91.3086 49.8047C91.3086 72.8516 72.8516 91.3086 49.8047 91.3086Z" fill="#000000" fill-opacity="0.85"/>
  <path d="M37.1094 69.7754C38.0859 69.7754 38.7695 69.5801 39.4531 69.2383L68.5547 54.1016C70.6055 53.0273 71.4844 51.8066 71.4844 49.8047C71.4844 47.9492 70.5078 46.582 68.5547 45.5078L39.4531 29.834C38.7207 29.4434 38.0859 29.248 37.0117 29.248C34.7656 29.248 33.0566 30.9082 33.0566 33.1055C33.0566 34.9121 33.9355 36.084 35.9375 37.0605L60.6445 49.5117L60.6445 49.8047L35.9375 61.9629C33.8867 62.9395 33.0566 64.0137 33.0566 65.8691C33.0566 68.1152 34.8145 69.7754 37.1094 69.7754Z" fill="#000000" fill-opacity="0.85"/>
 </g>
</svg>
