<?xml version="1.0" encoding="UTF-8"?>
<!--Generator: Apple Native CoreSVG 232.5-->
<!DOCTYPE svg
PUBLIC "-//W3C//DTD SVG 1.1//EN"
       "http://www.w3.org/Graphics/SVG/1.1/DTD/svg11.dtd">
<svg version="1.1" xmlns="http://www.w3.org/2000/svg" xmlns:xlink="http://www.w3.org/1999/xlink" width="67.2852" height="64.8926">
 <g>
  <rect height="64.8926" opacity="0" width="67.2852" x="0" y="0"/>
  <path d="M4.15039 64.8926C5.51758 64.8926 6.44531 64.4531 7.42188 63.9648L62.3047 39.3066C65.1367 37.9883 67.2852 35.8398 67.2852 32.7148C67.2852 29.6387 65.1367 27.3926 62.3047 26.123L7.42188 0.878906C6.49414 0.390625 5.61523 0.0488281 4.3457 0.0488281C1.75781 0.0488281 0 1.80664 0 4.39453C0 6.64062 1.17188 7.91016 3.22266 8.88672L55.7617 32.0801L55.7617 32.6172L3.22266 56.0059C1.17188 56.9824 0 58.252 0 60.498C0 63.1836 1.70898 64.8926 4.15039 64.8926Z" fill="#000000" fill-opacity="0.85"/>
 </g>
</svg>
