<?xml version="1.0" encoding="UTF-8"?>
<!--Generator: Apple Native CoreSVG 232.5-->
<!DOCTYPE svg
PUBLIC "-//W3C//DTD SVG 1.1//EN"
       "http://www.w3.org/Graphics/SVG/1.1/DTD/svg11.dtd">
<svg version="1.1" xmlns="http://www.w3.org/2000/svg" xmlns:xlink="http://www.w3.org/1999/xlink" width="81.1523" height="109.771">
 <g>
  <rect height="109.771" opacity="0" width="81.1523" x="0" y="0"/>
  <path d="M9.61914 99.6364L65.1367 109.451C75.0977 111.209 81.1523 105.642 81.1523 94.8025L81.1523 34.4021C81.1523 24.4411 76.0254 20.8279 66.1133 19.07L12.2559 9.59739C4.83398 8.27903 0 12.3318 0 19.6072L0 88.5525C0 94.8025 3.22266 98.5134 9.61914 99.6364ZM11.5234 91.8728C9.0332 91.4333 7.86133 90.0173 7.86133 87.4294L7.86133 20.9255C7.86133 18.3376 9.61914 17.0193 12.5 17.4587L65.7227 26.8337C70.6543 27.7126 73.291 29.7634 73.291 34.3044L73.291 93.9236C73.291 99.49 70.0684 102.273 64.7949 101.297ZM68.9453 25.1247L76.8066 25.1247L76.8066 13.6989C76.8066 3.39621 69.9219-1.4866 58.3496 0.564183L7.32422 9.54856L10.2539 16.3845L61.1328 7.93723C66.0156 7.10715 68.9453 9.15793 68.9453 13.406ZM14.3555 40.2126C14.3555 44.3142 20.752 44.3142 20.752 40.4568L20.752 33.9138C20.752 32.5954 21.5332 32.0095 23.0469 32.2536L29.4922 33.4255C33.6426 34.1579 34.4727 27.9079 30.7617 27.2243L20.3125 25.3689C16.6016 24.7341 14.3555 26.3454 14.3555 29.9099ZM60.4004 48.1716C60.4004 52.2732 66.7969 52.6638 66.7969 48.1716L66.7969 40.0173C66.7969 35.4763 64.5996 33.1814 59.1797 32.2048L54.1016 31.3259C49.6582 30.5447 48.584 36.7458 53.0273 37.5271L57.0801 38.2595C59.9609 38.7478 60.4004 40.5056 60.4004 41.9704ZM20.752 71.3161C20.752 67.2146 14.3555 66.8239 14.3555 71.3161L14.3555 79.4704C14.3555 84.0114 16.5527 86.3064 21.9727 87.2829L27.0508 88.1618C31.4941 88.9431 32.5684 82.6931 28.125 81.9607L24.0723 81.2282C21.1914 80.74 20.752 78.9822 20.752 77.5173ZM66.7969 79.2751C66.7969 75.1736 60.4004 75.1736 60.4004 79.031L60.4004 85.5739C60.4004 86.8923 59.6191 87.4782 58.1055 87.2341L51.6602 86.0622C47.5098 85.3298 46.6797 91.5798 50.3906 92.2634L60.8398 94.1189C64.5508 94.7536 66.7969 93.1423 66.7969 89.5779Z" fill="#000000" fill-opacity="0.85"/>
 </g>
</svg>
