<?xml version="1.0" encoding="UTF-8"?>
<!--Generator: Apple Native CoreSVG 232.5-->
<!DOCTYPE svg
PUBLIC "-//W3C//DTD SVG 1.1//EN"
       "http://www.w3.org/Graphics/SVG/1.1/DTD/svg11.dtd">
<svg version="1.1" xmlns="http://www.w3.org/2000/svg" xmlns:xlink="http://www.w3.org/1999/xlink" width="94.4336" height="92.8223">
 <g>
  <rect height="92.8223" opacity="0" width="94.4336" x="0" y="0"/>
  <path d="M29.1992 92.5293C31.4453 92.5293 32.8613 91.0645 32.8613 88.6719L32.8613 3.90625C32.8613 1.51367 31.4453 0 29.1992 0C26.8555 0 25.4883 1.51367 25.4883 3.90625L25.4883 88.6719C25.4883 91.0645 26.8555 92.5293 29.1992 92.5293ZM64.9902 92.5293C67.2363 92.5293 68.6523 91.0645 68.6523 88.6719L68.6523 3.90625C68.6523 1.51367 67.2363 0 64.9902 0C62.6465 0 61.2793 1.51367 61.2793 3.90625L61.2793 88.6719C61.2793 91.0645 62.6465 92.5293 64.9902 92.5293ZM3.90625 67.4805L90.5273 67.4805C92.9688 67.4805 94.4336 66.0645 94.4336 63.7695C94.4336 61.4746 92.9688 60.1074 90.5273 60.1074L3.90625 60.1074C1.46484 60.1074 0 61.4746 0 63.7695C0 66.0645 1.46484 67.4805 3.90625 67.4805ZM3.90625 32.6172L90.5273 32.6172C92.9688 32.6172 94.4336 31.2012 94.4336 28.9551C94.4336 26.6602 92.9688 25.2441 90.5273 25.2441L3.90625 25.2441C1.46484 25.2441 0 26.6602 0 28.9551C0 31.2012 1.46484 32.6172 3.90625 32.6172Z" fill="#000000" fill-opacity="0.85"/>
 </g>
</svg>
