<?xml version="1.0" encoding="UTF-8"?>
<!--Generator: Apple Native CoreSVG 232.5-->
<!DOCTYPE svg
PUBLIC "-//W3C//DTD SVG 1.1//EN"
       "http://www.w3.org/Graphics/SVG/1.1/DTD/svg11.dtd">
<svg version="1.1" xmlns="http://www.w3.org/2000/svg" xmlns:xlink="http://www.w3.org/1999/xlink" width="109.095" height="99.6582">
 <g>
  <rect height="99.6582" opacity="0" width="109.095" x="0" y="0"/>
  <path d="M59.2839 99.6094C86.4812 99.6094 109.089 77.002 109.089 49.8047C109.089 22.5586 86.4812 0 59.2839 0C32.0378 0 9.47924 22.5098 9.47924 49.7559L17.78 49.7559C17.78 26.709 36.2371 8.34961 59.2839 8.34961C82.3308 8.34961 100.788 26.7578 100.788 49.8047C100.788 72.8516 82.3308 91.4062 59.2839 91.3086C45.3679 91.2598 33.1609 84.5215 25.6902 74.1211C24.1765 72.1191 21.8816 71.4844 19.8308 72.7051C17.8777 73.9258 17.3406 76.6113 19.0007 78.7598C28.2781 91.2109 42.8289 99.6094 59.2839 99.6094ZM3.47339 40.3809C-0.04224 40.3809-0.921146 42.7734 0.983151 45.5078L11.9207 61.0352C13.532 63.2812 15.8757 63.2324 17.4382 61.0352L28.3757 45.459C30.2312 42.7734 29.3523 40.3809 25.8855 40.3809Z" fill="#000000" fill-opacity="0.85"/>
  <path d="M59.9675 79.0039C61.3835 79.0039 62.4089 78.0273 62.4089 76.5625L62.4089 73.291C72.4675 72.4609 78.0339 65.332 78.0339 54.248L78.0339 51.8066C78.0339 49.707 76.7644 48.4863 74.7624 48.4863L62.4089 48.4863L62.4089 32.5684C66.7058 33.252 70.0749 36.1816 71.198 40.0391C71.7839 41.9434 72.6628 42.627 74.323 42.627C76.1296 42.627 77.3503 41.4062 77.3503 39.6484C77.3503 38.7695 77.155 38.0371 76.8621 37.2559C74.8113 31.3965 69.2937 27.2949 62.4089 26.5625L62.4089 23.3887C62.4089 21.9238 61.3835 20.9961 59.9675 20.9961C58.6003 20.9961 57.5749 21.9238 57.5749 23.3887L57.5749 26.6602C47.1746 27.9297 40.4851 36.7188 40.4851 49.8535C40.4851 63.2812 47.0769 71.9727 57.5749 73.2422L57.5749 76.5625C57.5749 78.0273 58.6003 79.0039 59.9675 79.0039ZM57.5749 67.1875C51.0808 65.8203 47.0281 59.375 47.0281 49.8535C47.0281 40.4785 51.0808 34.0332 57.5749 32.666ZM62.4089 67.3828L62.4089 54.248L71.7351 54.248L71.7351 55.3223C71.7351 61.9141 68.2683 66.5039 62.4089 67.3828Z" fill="#000000" fill-opacity="0.85"/>
 </g>
</svg>
