<?xml version="1.0" encoding="UTF-8"?>
<!--Generator: Apple Native CoreSVG 232.5-->
<!DOCTYPE svg
PUBLIC "-//W3C//DTD SVG 1.1//EN"
       "http://www.w3.org/Graphics/SVG/1.1/DTD/svg11.dtd">
<svg version="1.1" xmlns="http://www.w3.org/2000/svg" xmlns:xlink="http://www.w3.org/1999/xlink" width="70.6543" height="109.619">
 <g>
  <rect height="109.619" opacity="0" width="70.6543" x="0" y="0"/>
  <path d="M37.3047 99.3652C58.8379 99.3652 70.6543 85.5957 70.6543 63.2812L70.6543 58.4961C70.6543 55.4199 68.7988 53.5156 65.8203 53.5156L38.916 53.5156L38.916 61.7188L61.3281 61.7188L61.3281 65.332C61.3281 80.7129 52.2949 90.8203 37.3535 90.8203C20.6543 90.8203 9.81445 76.8066 9.81445 54.6387C9.81445 32.7637 20.6543 19.043 37.3047 19.043C48.3887 19.043 57.6172 25.7324 60.2539 35.2539C61.1328 38.0859 62.3535 39.209 64.8926 39.209C67.5293 39.209 69.2383 37.4512 69.1895 34.8633C69.1895 33.4473 68.9453 32.0312 68.457 30.6641C64.1602 18.6523 52.002 10.498 37.3047 10.498C14.7949 10.498 0 27.6367 0 54.6387C0 81.9824 14.6973 99.3652 37.3047 99.3652ZM36.8652 109.619C38.6719 109.619 40.0391 108.301 40.0391 106.396L40.0391 3.56445C40.0391 1.70898 38.6719 0.390625 36.8652 0.390625C35.0586 0.390625 33.6914 1.70898 33.6914 3.56445L33.6914 106.396C33.6914 108.301 35.0586 109.619 36.8652 109.619Z" fill="#000000" fill-opacity="0.85"/>
 </g>
</svg>
