<?xml version="1.0" encoding="UTF-8"?>
<!--Generator: Apple Native CoreSVG 232.5-->
<!DOCTYPE svg
PUBLIC "-//W3C//DTD SVG 1.1//EN"
       "http://www.w3.org/Graphics/SVG/1.1/DTD/svg11.dtd">
<svg version="1.1" xmlns="http://www.w3.org/2000/svg" xmlns:xlink="http://www.w3.org/1999/xlink" width="99.6094" height="99.6582">
 <g>
  <rect height="99.6582" opacity="0" width="99.6094" x="0" y="0"/>
  <path d="M99.6094 49.8047C99.6094 77.002 77.0508 99.6094 49.8047 99.6094C22.6074 99.6094 0 77.002 0 49.8047C0 22.5586 22.5586 0 49.7559 0C77.002 0 99.6094 22.5586 99.6094 49.8047ZM48.0469 22.5586L48.0469 25.9277C37.3535 27.2461 30.4199 36.2793 30.4199 49.8535C30.4199 63.7207 37.2559 72.7051 48.0469 73.9746L48.0469 77.3926C48.0469 78.9062 49.1211 79.9316 50.5371 79.9316C51.9531 79.9316 53.0273 78.9062 53.0273 77.3926L53.0273 74.0234C63.4766 73.1934 69.1895 65.8203 69.1895 54.3945L69.1895 51.8555C69.1895 49.707 67.8711 48.4375 65.8203 48.4375L53.0273 48.4375L53.0273 32.0312C57.4707 32.7637 60.9863 35.7422 62.0605 39.6973C62.7441 41.6992 63.5742 42.3828 65.3809 42.3828C67.2363 42.3828 68.457 41.1133 68.457 39.3066C68.457 38.4277 68.2617 37.6465 68.0176 36.8164C65.8203 30.8105 60.1562 26.5625 53.0273 25.8301L53.0273 22.5586C53.0273 21.0449 51.9531 20.0684 50.5371 20.0684C49.0723 20.0684 48.0469 21.0449 48.0469 22.5586ZM62.6465 55.5176C62.6465 62.3047 59.082 66.9922 53.0273 67.9199L53.0273 54.3945L62.6465 54.3945ZM48.0469 67.7246C41.3574 66.3086 37.207 59.668 37.207 49.8535C37.207 40.1855 41.3574 33.5449 48.0469 32.1289Z" fill="#000000" fill-opacity="0.85"/>
 </g>
</svg>
