<?xml version="1.0" encoding="UTF-8"?>
<!--Generator: Apple Native CoreSVG 232.5-->
<!DOCTYPE svg
PUBLIC "-//W3C//DTD SVG 1.1//EN"
       "http://www.w3.org/Graphics/SVG/1.1/DTD/svg11.dtd">
<svg version="1.1" xmlns="http://www.w3.org/2000/svg" xmlns:xlink="http://www.w3.org/1999/xlink" width="99.6094" height="99.6582">
 <g>
  <rect height="99.6582" opacity="0" width="99.6094" x="0" y="0"/>
  <path d="M49.8047 99.6094C77.0508 99.6094 99.6094 77.002 99.6094 49.8047C99.6094 22.5586 77.002 0 49.7559 0C22.5586 0 0 22.5586 0 49.8047C0 77.002 22.6074 99.6094 49.8047 99.6094ZM49.8047 91.3086C26.7578 91.3086 8.34961 72.8516 8.34961 49.8047C8.34961 26.7578 26.709 8.30078 49.7559 8.30078C72.8027 8.30078 91.3086 26.7578 91.3086 49.8047C91.3086 72.8516 72.8516 91.3086 49.8047 91.3086Z" fill="#000000" fill-opacity="0.85"/>
  <path d="M50.4883 79.0039C51.8555 79.0039 52.8809 78.0273 52.8809 76.5625L52.8809 73.291C62.9883 72.4609 68.5059 65.332 68.5059 54.248L68.5059 51.8066C68.5059 49.707 67.2363 48.4863 65.2832 48.4863L52.8809 48.4863L52.8809 32.5684C57.1777 33.252 60.5957 36.1816 61.6699 40.0391C62.3047 41.9434 63.1348 42.627 64.8438 42.627C66.6504 42.627 67.8223 41.4062 67.8223 39.6484C67.8223 38.7695 67.627 38.0371 67.3828 37.2559C65.2832 31.3965 59.7656 27.2949 52.8809 26.5625L52.8809 23.3887C52.8809 21.9238 51.8555 20.9961 50.4883 20.9961C49.0723 20.9961 48.0469 21.9238 48.0469 23.3887L48.0469 26.6602C37.6953 27.9297 31.0059 36.7188 31.0059 49.8535C31.0059 63.2812 37.5977 71.9727 48.0469 73.2422L48.0469 76.5625C48.0469 78.0273 49.1211 79.0039 50.4883 79.0039ZM48.0469 67.1875C41.5527 65.8203 37.5488 59.375 37.5488 49.8535C37.5488 40.4785 41.5527 34.0332 48.0469 32.666ZM52.8809 67.3828L52.8809 54.248L62.207 54.248L62.207 55.3223C62.207 61.9141 58.7402 66.5039 52.8809 67.3828Z" fill="#000000" fill-opacity="0.85"/>
 </g>
</svg>
