<?xml version="1.0" encoding="UTF-8"?>
<!--Generator: Apple Native CoreSVG 232.5-->
<!DOCTYPE svg
PUBLIC "-//W3C//DTD SVG 1.1//EN"
       "http://www.w3.org/Graphics/SVG/1.1/DTD/svg11.dtd">
<svg version="1.1" xmlns="http://www.w3.org/2000/svg" xmlns:xlink="http://www.w3.org/1999/xlink" width="135.596" height="97.5098">
 <g>
  <rect height="97.5098" opacity="0" width="135.596" x="0" y="0"/>
  <path d="M35.3516 34.6191L43.2129 34.6191L43.2129 20.459C43.2129 12.6465 49.2676 7.91016 58.7402 7.91016L76.8555 7.91016C86.377 7.91016 92.4316 12.6465 92.4316 20.459L92.4316 34.6191L100.293 34.6191L100.293 20.459C100.293 7.86133 91.2109 0.0488281 76.8555 0.0488281L58.7402 0.0488281C44.4336 0.0488281 35.3516 7.86133 35.3516 20.459ZM16.3086 97.5098L119.287 97.5098C129.297 97.5098 135.596 91.3086 135.596 81.4453L135.596 53.6621C135.596 39.1113 125.439 29.1016 110.742 29.1016L24.8535 29.1016C10.1562 29.1016 0 39.1113 0 53.6621L0 81.4453C0 91.3086 6.29883 97.5098 16.3086 97.5098ZM16.4062 89.6484C11.1328 89.6484 7.86133 86.3281 7.86133 81.0547L7.86133 54.0527C7.86133 43.8965 14.7949 36.9629 24.9512 36.9629L110.645 36.9629C120.801 36.9629 127.734 43.8965 127.734 54.0527L127.734 81.0547C127.734 86.3281 124.463 89.6484 119.189 89.6484ZM28.6621 94.1895L35.0586 94.1895L35.0586 32.373L28.6621 32.373ZM43.457 94.1895L49.8535 94.1895L49.8535 32.373L43.457 32.373ZM85.791 94.1895L92.1875 94.1895L92.1875 32.373L85.791 32.373ZM100.586 94.1895L106.982 94.1895L106.982 32.373L100.586 32.373ZM46.582 62.1582L88.916 62.1582L88.916 55.7617L46.582 55.7617Z" fill="#000000" fill-opacity="0.85"/>
 </g>
</svg>
