<?xml version="1.0" encoding="UTF-8"?>
<!--Generator: Apple Native CoreSVG 232.5-->
<!DOCTYPE svg
PUBLIC "-//W3C//DTD SVG 1.1//EN"
       "http://www.w3.org/Graphics/SVG/1.1/DTD/svg11.dtd">
<svg version="1.1" xmlns="http://www.w3.org/2000/svg" xmlns:xlink="http://www.w3.org/1999/xlink" width="99.6094" height="99.6582">
 <g>
  <rect height="99.6582" opacity="0" width="99.6094" x="0" y="0"/>
  <path d="M99.6094 49.8047C99.6094 77.002 77.0508 99.6094 49.8047 99.6094C22.6074 99.6094 0 77.002 0 49.8047C0 22.5586 22.5586 0 49.7559 0C77.002 0 99.6094 22.5586 99.6094 49.8047ZM61.5234 30.3223L61.5234 45.459L37.9883 45.459L37.9883 30.3223C37.9883 27.4414 36.5234 25.7812 33.8867 25.7812C31.3965 25.7812 29.9316 27.4902 29.9316 30.3223L29.9316 68.3594C29.9316 71.1914 31.3965 72.9004 33.8867 72.9004C36.5234 72.9004 37.9883 71.2402 37.9883 68.3594L37.9883 51.8066L61.5234 51.8066L61.5234 68.3594C61.5234 71.1914 63.0371 72.9004 65.5273 72.9004C68.1641 72.9004 69.6289 71.2402 69.6289 68.3594L69.6289 30.3223C69.6289 27.4414 68.1641 25.7812 65.5273 25.7812C63.0371 25.7812 61.5234 27.4902 61.5234 30.3223Z" fill="#000000" fill-opacity="0.85"/>
 </g>
</svg>
