<?xml version="1.0" encoding="UTF-8"?>
<!--Generator: Apple Native CoreSVG 232.5-->
<!DOCTYPE svg
PUBLIC "-//W3C//DTD SVG 1.1//EN"
       "http://www.w3.org/Graphics/SVG/1.1/DTD/svg11.dtd">
<svg version="1.1" xmlns="http://www.w3.org/2000/svg" xmlns:xlink="http://www.w3.org/1999/xlink" width="116.65" height="115.479">
 <g>
  <rect height="115.479" opacity="0" width="116.65" x="0" y="0"/>
  <path d="M110.01 44.3848L110.01 93.7988C110.01 103.857 104.883 108.936 94.6777 108.936L45.6543 108.936C35.498 108.936 30.3223 103.857 30.3223 93.7988L30.3223 92.9687L70.9961 92.9688C84.8633 92.9688 92.9688 84.9609 92.9688 71.1914L92.9687 29.248L94.6777 29.248C104.883 29.248 110.01 34.2773 110.01 44.3848Z" fill="#000000" fill-opacity="0.85"/>
  <path d="M86.3281 21.7773L86.3281 71.1914C86.3281 81.25 81.2012 86.3281 70.9961 86.3281L21.9727 86.3281C11.8164 86.3281 6.64062 81.25 6.64062 71.1914L6.64062 21.7773C6.64062 11.7188 11.8164 6.64062 21.9727 6.64062L70.9961 6.64063C81.2012 6.64062 86.3281 11.7188 86.3281 21.7773ZM58.2031 27.002L58.2031 42.1875L34.668 42.1875L34.668 27.002C34.668 24.1211 33.2031 22.5098 30.6152 22.5098C28.0762 22.5098 26.6113 24.1699 26.6113 27.002L26.6113 65.0391C26.6113 67.9199 28.0762 69.5801 30.6152 69.5801C33.2031 69.5801 34.668 67.9688 34.668 65.0391L34.668 48.4863L58.2031 48.4863L58.2031 65.0391C58.2031 67.9199 59.7168 69.5801 62.207 69.5801C64.8438 69.5801 66.3086 67.9688 66.3086 65.0391L66.3086 27.002C66.3086 24.1211 64.8438 22.5098 62.207 22.5098C59.7168 22.5098 58.2031 24.1699 58.2031 27.002Z" fill="#000000" fill-opacity="0.85"/>
 </g>
</svg>
