<?xml version="1.0" encoding="UTF-8"?>
<!--Generator: Apple Native CoreSVG 232.5-->
<!DOCTYPE svg
PUBLIC "-//W3C//DTD SVG 1.1//EN"
       "http://www.w3.org/Graphics/SVG/1.1/DTD/svg11.dtd">
<svg version="1.1" xmlns="http://www.w3.org/2000/svg" xmlns:xlink="http://www.w3.org/1999/xlink" width="119.668" height="114.367">
 <g>
  <rect height="114.367" opacity="0" width="119.668" x="0" y="0"/>
  <path d="M2.97359 101.739L11.4697 110.284C15.7666 114.63 20.6982 114.337 25.3369 109.21L78.8037 50.2742L73.9697 45.3914L20.8935 103.79C19.1357 105.792 17.4755 106.28 15.1318 103.936L9.27242 98.1258C6.92867 95.8308 7.46578 94.1219 9.46773 92.3152L66.8408 38.3113L61.958 33.4773L3.99898 87.9207C-0.932658 92.5105-1.32328 97.3933 2.97359 101.739ZM35.0537 10.7722C32.9541 12.823 32.8076 15.7039 33.9795 17.657C35.1513 19.4637 37.4462 20.6355 40.6689 19.8055C47.9931 18.0965 55.6103 17.8035 62.7392 22.491L59.8095 29.7664C58.1005 33.9168 58.9795 36.8465 61.665 39.5808L73.1396 51.1531C75.581 53.5945 77.6318 53.6922 80.4638 53.2039L85.7861 52.2273L89.1064 55.5965L88.9111 58.3797C88.7158 60.8699 89.3505 62.7742 91.792 65.1668L95.6005 68.8777C97.9931 71.2703 101.069 71.4168 103.413 69.073L117.964 54.4734C120.308 52.1297 120.21 49.1512 117.817 46.7586L113.96 42.95C111.567 40.5574 109.712 39.7762 107.319 39.9715L104.438 40.2156L101.216 37.0418L102.436 31.4265C103.071 28.5945 102.29 26.3972 99.3603 23.4676L88.374 12.5301C71.6748-4.0715 49.5068-3.68088 35.0537 10.7722ZM42.5244 12.6277C54.6826 3.741 71.1377 5.25467 82.2705 16.3875L94.4287 28.448C95.6005 29.6199 95.7959 30.5476 95.4541 32.2566L93.8427 39.6785L101.362 47.1004L106.294 46.8074C107.563 46.7586 107.954 46.8562 108.931 47.8328L111.811 50.7137L99.6045 62.9207L96.7236 60.0398C95.747 59.0633 95.6005 58.6726 95.6494 57.3543L95.9912 52.4715L88.5205 45.0496L80.9033 46.3191C79.292 46.6609 78.5595 46.5144 77.3388 45.3426L67.3291 35.3328C66.0595 34.1609 65.913 33.3308 66.6943 31.4754L71.0888 21.0262C63.2763 13.7508 53.1201 10.6258 42.9638 13.6043C42.1826 13.7996 41.8896 13.1648 42.5244 12.6277Z" fill="#000000" fill-opacity="0.85"/>
 </g>
</svg>
