<?xml version="1.0" encoding="UTF-8"?>
<!--Generator: Apple Native CoreSVG 232.5-->
<!DOCTYPE svg
PUBLIC "-//W3C//DTD SVG 1.1//EN"
       "http://www.w3.org/Graphics/SVG/1.1/DTD/svg11.dtd">
<svg version="1.1" xmlns="http://www.w3.org/2000/svg" xmlns:xlink="http://www.w3.org/1999/xlink" width="99.6094" height="99.6582">
 <g>
  <rect height="99.6582" opacity="0" width="99.6094" x="0" y="0"/>
  <path d="M99.6094 49.8535C99.6094 77.0996 77.0508 99.6582 49.8047 99.6582C22.6074 99.6582 0 77.0996 0 49.8535C0 22.6562 22.5586 0.0488281 49.7559 0.0488281C77.002 0.0488281 99.6094 22.6562 99.6094 49.8535ZM23.0469 64.9902C20.4102 67.334 20.166 69.9219 22.5098 72.2656L26.7578 76.5137C29.1016 78.8574 31.7871 78.6621 34.082 76.0742L57.9102 48.9258L50.1953 41.3086ZM39.9414 24.0723C38.7207 25.3418 38.916 26.6602 39.6973 27.5879C40.332 28.125 41.3086 28.4668 42.1875 28.0762C47.168 26.6113 51.5625 26.3672 55.2734 28.5645L53.3203 33.7891C52.4902 36.0352 52.8809 37.5977 54.2969 39.0137L60.0098 44.6777C61.084 45.8008 62.2559 45.9961 63.916 45.7031L68.0176 44.873L69.9219 46.8262L69.6289 49.8047C69.4824 50.9277 69.6777 51.6602 70.6543 52.5879L72.5586 54.3457C73.6328 55.3711 74.8535 55.4688 75.9766 54.4434L83.6914 46.7773C84.7168 45.8008 84.668 44.4824 83.5938 43.3594L81.6895 41.5039C80.6641 40.4785 80.127 40.332 78.9551 40.4297L75.9766 40.7227L74.0234 38.8672L74.9023 35.2539C75.3418 33.4473 74.707 31.5918 72.7539 29.7363L67.627 24.6094C60.498 17.5293 47.2656 16.748 39.9414 24.0723Z" fill="#000000" fill-opacity="0.85"/>
 </g>
</svg>
