<?xml version="1.0" encoding="UTF-8"?>
<!--Generator: Apple Native CoreSVG 232.5-->
<!DOCTYPE svg
PUBLIC "-//W3C//DTD SVG 1.1//EN"
       "http://www.w3.org/Graphics/SVG/1.1/DTD/svg11.dtd">
<svg version="1.1" xmlns="http://www.w3.org/2000/svg" xmlns:xlink="http://www.w3.org/1999/xlink" width="99.6094" height="99.6582">
 <g>
  <rect height="99.6582" opacity="0" width="99.6094" x="0" y="0"/>
  <path d="M49.8047 99.6094C77.0508 99.6094 99.6094 77.002 99.6094 49.8047C99.6094 22.5586 77.002 0 49.7559 0C22.5586 0 0 22.5586 0 49.8047C0 77.002 22.6074 99.6094 49.8047 99.6094ZM49.8047 91.3086C26.7578 91.3086 8.34961 72.8516 8.34961 49.8047C8.34961 26.7578 26.709 8.30078 49.7559 8.30078C72.8027 8.30078 91.3086 26.7578 91.3086 49.8047C91.3086 72.8516 72.8516 91.3086 49.8047 91.3086Z" fill="#000000" fill-opacity="0.85"/>
  <path d="M28.2715 74.7559C30.4688 76.9531 32.959 76.7578 35.1074 74.3164L57.5684 48.7793L50.3906 41.6016L24.8047 63.916C22.2656 66.1133 22.1191 68.5547 24.3164 70.752ZM71.3379 53.9062C72.3633 54.8828 73.4863 54.9805 74.5117 54.0039L81.7871 46.7773C82.7637 45.8496 82.7148 44.6289 81.7383 43.6035L79.9316 41.8457C78.9551 40.8691 78.418 40.7227 77.3438 40.8203L74.5605 41.1133L72.7051 39.3555L73.5352 35.9375C73.9746 34.2773 73.3398 32.5684 71.582 30.7617L66.6992 25.9766C59.9609 19.2871 47.5586 18.5547 40.7227 25.4395C39.502 26.6113 39.6973 27.832 40.4297 28.7109C41.0645 29.248 41.9434 29.541 42.7734 29.1992C47.4609 27.832 51.5625 27.5879 55.0781 29.6875L53.2227 34.5703C52.4414 36.6699 52.832 38.1348 54.1504 39.4531L59.5215 44.8242C60.5469 45.8496 61.6211 46.0938 63.1836 45.8008L67.041 44.9707L68.8965 46.875L68.6035 49.6094C68.5059 50.6836 68.6035 51.3672 69.5312 52.2461Z" fill="#000000" fill-opacity="0.85"/>
 </g>
</svg>
