<?xml version="1.0" encoding="UTF-8"?>
<!--Generator: Apple Native CoreSVG 232.5-->
<!DOCTYPE svg
PUBLIC "-//W3C//DTD SVG 1.1//EN"
       "http://www.w3.org/Graphics/SVG/1.1/DTD/svg11.dtd">
<svg version="1.1" xmlns="http://www.w3.org/2000/svg" xmlns:xlink="http://www.w3.org/1999/xlink" width="131.745" height="124.594">
 <g>
  <rect height="124.594" opacity="0" width="131.745" x="0" y="0"/>
  <path d="M3.76322 32.2432L17.8745 35.2706C19.5835 35.6612 20.6089 37.2237 20.2671 38.8838C19.9742 40.5928 18.2652 41.5694 16.6538 41.2764L2.49368 38.2979C0.882356 37.9561-0.191862 36.3936 0.0522783 34.7823C0.296419 33.0245 1.95658 31.8526 3.76322 32.2432ZM15.7261 10.4659L25.98 20.671C27.2007 21.8917 27.1519 23.796 25.98 25.0167C24.8081 26.2374 22.8062 26.2374 21.5855 25.0167L11.3804 14.8116C10.1109 13.5421 10.1597 11.6866 11.3804 10.4659C12.6011 9.24518 14.4566 9.19635 15.7261 10.4659ZM39.2124 2.45807L42.2398 16.5694C42.6304 18.1319 41.4585 19.8409 39.7984 20.1827C38.0894 20.5733 36.5269 19.4014 36.1363 17.7901L33.1089 3.7276C32.7183 2.01861 33.8902 0.407286 35.5503 0.0654889C37.1617-0.276308 38.8218 0.749083 39.2124 2.45807Z" fill="#000000" fill-opacity="0.85"/>
  <path d="M112.943 32.878C113.968 33.9034 114.896 35.2217 115.628 36.8331L126.664 59.9776C135.013 77.5557 133.06 92.6436 120.902 104.802C114.808 110.895 107.839 114.446 100.607 115.3C103.327 113.711 105.936 111.662 108.402 109.196C110.814 106.784 112.825 104.252 114.415 101.6C114.927 101.181 115.427 100.707 115.921 100.212C125.589 90.544 128.519 78.7276 120.951 62.712L109.623 38.7862C108.548 36.4424 106.888 35.6124 105.082 36.4424C103.373 37.2237 102.64 38.9815 103.421 41.1788L104.694 44.518L103.128 41.2276C102.347 39.6163 101.468 38.2979 100.443 37.2725C99.8471 36.6846 99.211 36.196 98.5452 35.8158C98.9358 34.7339 99.5615 33.7594 100.394 32.9268C103.959 29.4112 109.281 29.2159 112.943 32.878ZM73.8316 23.3077L87.882 37.3829C86.0974 39.1378 85.2689 41.5744 85.6206 44.3252L69.5835 28.2881C68.1187 26.8233 66.1167 26.7745 64.7007 28.1905C64.125 28.7662 63.7834 29.4468 63.6866 30.1507L61.2827 27.751C60.5652 27.0247 59.8131 26.4286 59.0388 25.9669C59.415 24.9306 60.0353 23.9692 60.8433 23.1612C64.7007 19.3038 69.7788 19.3038 73.8316 23.3077ZM48.3433 27.5557C46.9273 28.9717 46.146 30.7296 46.0972 32.585C45.6412 32.2347 45.1796 31.9255 44.7138 31.6633C45.1397 30.5845 45.8148 29.5606 46.732 28.6299C47.4644 27.8975 48.244 27.3175 49.0583 26.898Z" fill="#000000" fill-opacity="0.85"/>
  <path d="M108.402 109.196C120.511 97.087 122.513 81.9503 114.164 64.421L103.128 41.2276C102.347 39.6163 101.468 38.2979 100.443 37.2725C96.732 33.6104 91.4585 33.8057 87.8941 37.3702C85.5015 39.7139 84.8179 43.2784 86.3804 47.1846L89.6031 54.9483C89.7007 55.1436 89.7007 55.3389 89.5542 55.4854C89.4077 55.6807 89.1636 55.6319 89.0171 55.4366L61.2827 27.751C57.2788 23.6983 52.2007 23.6983 48.3433 27.5557C46.9273 28.9717 46.146 30.7296 46.0972 32.585C42.0933 29.5088 37.6499 29.6065 34.232 33.0733C30.9117 36.3936 30.7652 40.9835 33.6949 44.8897C31.937 44.8897 30.2281 45.671 28.9585 46.9405C25.3941 50.5049 25.5406 55.3878 29.3492 59.2452L33.1577 63.0538C31.3023 63.0049 29.3492 63.8838 27.8843 65.3975C24.3199 68.962 24.4663 74.0889 28.3726 77.9463L58.0113 107.634C74.1734 123.796 93.8023 123.796 108.402 109.196ZM103.421 104.607C91.2144 116.814 75.9312 116.423 62.0152 102.507L33.4019 73.8936C31.937 72.4288 31.8394 70.4756 33.2554 69.0108C34.6714 67.5948 36.771 67.5948 38.2359 69.0596L55.8628 86.7354C57.1324 88.0049 59.0367 87.8096 60.1597 86.6866C61.3316 85.5147 61.5269 83.6104 60.2574 82.3409L33.8413 55.9249C32.3765 54.46 32.2788 52.5069 33.7437 51.0909C35.1597 49.6749 37.2105 49.6749 38.6753 51.1397L63.2847 75.7491C64.5542 77.0186 66.4585 76.8721 67.5816 75.7003C68.7535 74.5284 68.9488 72.6241 67.6792 71.3546L38.773 42.4483C37.3081 40.9835 37.2593 38.9327 38.6753 37.5167C40.0913 36.1006 42.1421 36.1983 43.607 37.6631L72.5132 66.5694C73.7339 67.7413 75.6382 67.6924 76.8101 66.5206C77.982 65.2999 78.1285 63.3956 76.9077 62.1749L52.2495 37.5167C50.7847 36.0518 50.7847 34.0499 52.2007 32.6338C53.6167 31.169 55.6187 31.2178 57.0835 32.7315L91.0679 66.7159C92.7769 68.4249 94.8277 68.4249 96.2437 66.96C97.5132 65.7393 98.0015 64.128 97.0249 61.6378L90.9214 45.5733C90.1402 43.4249 90.8726 41.6182 92.5327 40.837C94.3882 40.0069 96.0484 40.8858 97.1226 43.1807L108.451 67.1553C116.019 83.1221 113.089 94.9385 103.421 104.607Z" fill="#000000" fill-opacity="0.85"/>
 </g>
</svg>
