<?xml version="1.0" encoding="UTF-8"?>
<!--Generator: Apple Native CoreSVG 232.5-->
<!DOCTYPE svg
PUBLIC "-//W3C//DTD SVG 1.1//EN"
       "http://www.w3.org/Graphics/SVG/1.1/DTD/svg11.dtd">
<svg version="1.1" xmlns="http://www.w3.org/2000/svg" xmlns:xlink="http://www.w3.org/1999/xlink" width="93.9034" height="95.4006">
 <g>
  <rect height="95.4006" opacity="0" width="93.9034" x="0" y="0"/>
  <path d="M83.0601 84.6388C95.2183 72.4806 97.1714 57.3927 88.8218 39.8146L77.8355 16.67C77.0542 15.0587 76.1265 13.7404 75.1011 12.715C71.439 9.05285 66.1167 9.24817 62.6011 12.7638C60.2085 15.1564 59.4761 18.7208 61.0386 22.5782L64.3101 30.3907C64.4077 30.5861 64.4077 30.7814 64.2613 30.9279C64.066 31.0743 63.8706 31.0255 63.6753 30.879L35.9898 3.19348C31.9859-0.859256 26.9077-0.859256 23.0503 2.99817C21.6343 4.36535 20.8531 6.17199 20.8042 8.02746C16.8003 4.95129 12.357 5.04895 8.939 8.46692C5.56986 11.8361 5.4722 16.4259 8.35306 20.3322C6.59525 20.3322 4.93509 21.1134 3.66556 22.3829C0.101106 25.9474 0.198763 30.8302 4.00736 34.6388L7.86478 38.4962C5.96048 38.4474 4.05618 39.3263 2.59134 40.7911C-1.02194 44.4044-0.826628 49.5314 3.03079 53.3888L32.7183 83.0763C48.8804 99.2384 68.4605 99.2384 83.0601 84.6388ZM78.1285 80.0489C65.9214 92.256 50.5894 91.8654 36.7222 77.9493L8.10892 49.3361C6.59525 47.8712 6.54642 45.8693 7.96243 44.4532C9.37845 43.0372 11.4292 43.0372 12.8941 44.5021L30.5699 62.129C31.8394 63.3986 33.6949 63.2521 34.8179 62.129C36.0386 60.9572 36.1851 59.0529 34.9156 57.7833L8.54837 31.3673C7.08353 29.9025 6.98587 27.9493 8.40189 26.5333C9.8179 25.0685 11.9175 25.0685 13.3824 26.5333L37.9917 51.1915C39.2613 52.4611 41.1656 52.2657 42.2886 51.1427C43.4605 49.9708 43.6558 48.0665 42.3863 46.797L13.48 17.8907C12.0152 16.4259 11.9175 14.3751 13.3824 12.9591C14.7495 11.5431 16.8492 11.5919 18.314 13.0568L47.2202 41.963C48.3921 43.1837 50.2964 43.1349 51.4683 41.963C52.689 40.7423 52.7867 38.7892 51.6148 37.6173L26.9566 12.9591C25.4917 11.4943 25.4429 9.49231 26.8589 8.02746C28.3238 6.61145 30.3257 6.66028 31.7906 8.12512L65.7749 42.1095C67.4839 43.8673 69.5347 43.8185 70.9507 42.4025C72.1714 41.1818 72.7085 39.5704 71.732 37.0314L65.6285 21.0157C64.7984 18.8185 65.5796 17.0607 67.2398 16.2794C69.0952 15.4493 70.7554 16.3282 71.8296 18.6232L83.1577 42.5489C90.7261 58.5646 87.7476 70.381 78.1285 80.0489Z" fill="#000000" fill-opacity="0.85"/>
 </g>
</svg>
