<?xml version="1.0" encoding="UTF-8"?>
<!--Generator: Apple Native CoreSVG 232.5-->
<!DOCTYPE svg
PUBLIC "-//W3C//DTD SVG 1.1//EN"
       "http://www.w3.org/Graphics/SVG/1.1/DTD/svg11.dtd">
<svg version="1.1" xmlns="http://www.w3.org/2000/svg" xmlns:xlink="http://www.w3.org/1999/xlink" width="96.1914" height="100.056">
 <g>
  <rect height="100.056" opacity="0" width="96.1914" x="0" y="0"/>
  <path d="M96.1914 31.2045C96.1914 16.7514 87.1094 4.64203 75.0488 4.64203L66.4551 4.64203C75.2441 11.0385 79.1504 20.7065 78.9551 31.6928C78.8086 43.8998 74.0723 52.6401 69.8242 57.9135L76.8555 57.9135C87.7441 57.9135 96.1914 46.1948 96.1914 31.2045ZM72.4121 31.5463C72.7051 13.7241 58.252 0.247498 35.5469 0.0521854L28.9551 0.00335723C22.6074-0.0454709 17.9199 0.44281 15.2832 1.17523C11.4746 2.10297 7.8125 4.39789 7.8125 9.03656C7.8125 10.892 8.30078 12.308 8.88672 13.3334C9.27734 13.9194 9.22852 14.4565 8.59375 14.7006C5.61523 15.9213 3.07617 18.8022 3.07617 22.6108C3.07617 24.8569 3.71094 26.7612 4.83398 28.1284C5.37109 28.8608 5.27344 29.4955 4.39453 30.0327C2.19727 31.3022 0.634766 34.0366 0.634766 37.2104C0.634766 39.5053 1.36719 41.8979 2.63672 43.0698C3.4668 43.7534 3.32031 44.2416 2.49023 44.9741C0.976562 46.2436 0 48.4409 0 51.2241C0 55.9116 3.66211 59.769 8.49609 59.769L25.6836 59.769C30.0293 59.769 32.9102 62.0151 32.9102 65.6284C32.9102 72.1225 24.8047 84.0854 24.8047 92.6791C24.8047 97.269 27.6855 99.9057 31.543 99.9057C35.0098 99.9057 36.7188 97.5131 38.5742 93.851C45.8496 79.7397 55.5176 68.3139 62.8906 58.4995C69.1406 50.1987 72.2168 43.0698 72.4121 31.5463Z" fill="#000000" fill-opacity="0.85"/>
 </g>
</svg>
