<?xml version="1.0" encoding="UTF-8"?>
<!--Generator: Apple Native CoreSVG 232.5-->
<!DOCTYPE svg
PUBLIC "-//W3C//DTD SVG 1.1//EN"
       "http://www.w3.org/Graphics/SVG/1.1/DTD/svg11.dtd">
<svg version="1.1" xmlns="http://www.w3.org/2000/svg" xmlns:xlink="http://www.w3.org/1999/xlink" width="84.2285" height="124.951">
 <g>
  <rect height="124.951" opacity="0" width="84.2285" x="0" y="0"/>
  <path d="M31.25 13.916C35.1074 13.916 38.1836 10.8398 38.1836 6.98242C38.1836 3.125 35.1074 0 31.25 0C27.3438 0 24.2676 3.125 24.2676 6.98242C24.2676 10.8398 27.3438 13.916 31.25 13.916ZM7.12891 35.5469C10.9863 35.5469 14.0625 32.4707 14.0625 28.6133C14.0625 24.707 10.9863 21.6309 7.12891 21.6309C3.22266 21.6309 0.146484 24.707 0.146484 28.6133C0.146484 32.4707 3.22266 35.5469 7.12891 35.5469ZM55.6641 35.5469C59.5215 35.5469 62.6465 32.4707 62.6465 28.6133C62.6465 24.707 59.5215 21.6309 55.6641 21.6309C51.8066 21.6309 48.6816 24.707 48.6816 28.6133C48.6816 32.4707 51.8066 35.5469 55.6641 35.5469ZM77.2949 35.5469C81.1523 35.5469 84.2285 32.4707 84.2285 28.6133C84.2285 24.707 81.1523 21.6309 77.2949 21.6309C73.4375 21.6309 70.3125 24.707 70.3125 28.6133C70.3125 32.4707 73.4375 35.5469 77.2949 35.5469ZM77.2949 13.916C81.1523 13.916 84.2285 10.8398 84.2285 6.98242C84.2285 3.125 81.1523 0 77.2949 0C73.4375 0 70.3125 3.125 70.3125 6.98242C70.3125 10.8398 73.4375 13.916 77.2949 13.916Z" fill="#000000" fill-opacity="0.85"/>
  <path d="M45.6055 124.805C66.2598 124.805 80.127 110.938 80.127 88.0859L80.127 77.4414C80.127 66.1621 74.8047 59.5703 65.7227 59.4727C64.5996 55.9082 61.6211 53.7109 57.5684 53.7109C56.0547 53.7109 54.6387 53.9551 53.2715 54.4434C52.0508 50.5371 48.8281 48.0957 44.5312 48.0957C43.4082 48.0957 42.2363 48.2422 41.1133 48.6328L41.1133 32.373C41.1133 26.1719 37.0117 22.0703 31.25 22.0703C25.3906 22.0703 21.2891 26.1719 21.2891 32.373L21.2891 73.0957C21.2891 73.3398 21.1914 73.5352 20.8984 73.5352C20.752 73.5352 20.6055 73.3887 20.5078 73.1934L17.2363 65.3809C15.625 61.5723 12.7441 59.5215 9.27734 59.5215C4.54102 59.5215 0.390625 62.5488 0.390625 67.9199C0.341797 69.3848 0.683594 71.3379 1.26953 73.0469L9.86328 97.2168C16.3574 115.527 28.3691 124.805 45.6055 124.805ZM45.8496 118.066C32.2266 118.066 21.7773 111.768 15.8203 95.1172L7.17773 70.9961C6.93359 70.2637 6.78711 69.6289 6.78711 68.7988C6.78711 67.0898 8.00781 65.6738 10.0098 65.6738C11.6699 65.6738 12.6465 66.6504 13.3301 68.3105L19.9707 83.1543C21.0938 85.5957 22.5586 86.377 24.3164 86.377C26.3672 86.377 27.7832 84.7656 27.7832 82.5195L27.7832 31.9336C27.7832 29.834 29.1992 28.3691 31.25 28.3691C33.252 28.3691 34.6191 29.834 34.6191 31.9336L34.6191 68.0664C34.6191 69.7266 36.0352 71.0449 37.7441 71.0449C39.4043 71.0449 40.8203 69.7266 40.8203 68.0664L40.8203 55.0293C41.6504 54.6387 42.7734 54.3945 43.7012 54.3945C46.1426 54.3945 47.6074 56.0059 47.6074 58.5449L47.6074 69.9219C47.6074 71.6797 49.1211 72.9004 50.7812 72.9004C52.3926 72.9004 53.8086 71.6797 53.8086 69.9219L53.8086 60.6934C54.6387 60.2539 55.7617 60.0098 56.7383 60.0098C59.1797 60.0098 60.6445 61.6211 60.6445 64.1602L60.6445 71.7773C60.6445 73.584 62.1094 74.8047 63.7695 74.8047C65.3809 74.8047 66.8457 73.584 66.8457 71.7773L66.8457 66.1621C71.1914 66.1621 73.6816 70.6543 73.6816 78.418L73.6816 87.3047C73.6816 106.934 63.1348 118.066 45.8496 118.066Z" fill="#000000" fill-opacity="0.85"/>
 </g>
</svg>
