<?xml version="1.0" encoding="UTF-8"?>
<!--Generator: Apple Native CoreSVG 232.5-->
<!DOCTYPE svg
PUBLIC "-//W3C//DTD SVG 1.1//EN"
       "http://www.w3.org/Graphics/SVG/1.1/DTD/svg11.dtd">
<svg version="1.1" xmlns="http://www.w3.org/2000/svg" xmlns:xlink="http://www.w3.org/1999/xlink" width="105.615" height="81.3965">
 <g>
  <rect height="81.3965" opacity="0" width="105.615" x="0" y="0"/>
  <path d="M105.615 46.6309C105.615 30.2734 97.0703 16.5039 76.2207 9.42383L51.416 1.17188C50.5859 0.830078 49.6582 0.585938 48.4863 0.585938C45.5566 0.585938 43.1641 2.88086 43.1641 6.39648C43.1641 8.69141 44.2871 10.4004 46.9238 11.5234L64.6973 19.0918C66.1621 19.6777 66.6504 20.4102 66.6504 21.2402C66.6504 22.168 65.8691 23.0469 64.502 23.0469L7.51953 23.0469C3.71094 23.0469 1.2207 25.4395 1.2207 28.8574C1.2207 32.0801 3.71094 34.5703 7.51953 34.5703L46.4355 34.5703C48.4863 34.5703 49.5117 35.5957 49.5117 36.9629C49.5117 38.1836 48.4863 39.2578 46.4355 39.2578L34.8145 39.2578C33.1055 39.2578 32.1777 40.2344 32.1777 42.2363C32.1777 46.6309 35.0098 50.1465 40.918 50.1465L46.4355 50.1465C48.4863 50.1465 49.5117 51.1719 49.5117 52.5391C49.5117 53.7598 48.4863 54.834 46.4355 54.834L40.4785 54.834C38.7207 54.834 37.8906 55.7617 37.8906 57.8125C37.8906 62.4023 41.3574 65.7715 46.6797 65.7715L49.5117 65.7715C51.6113 65.7715 52.5879 66.8457 52.5879 68.1641C52.5879 69.3848 51.6113 70.459 49.5117 70.459L45.166 70.459C44.0918 70.459 43.5059 71.0938 43.5059 72.168C43.5059 77.0508 49.0234 81.3965 58.0566 81.3965L67.8223 81.3965C91.6992 81.3965 105.615 68.8965 105.615 46.6309Z" fill="#000000" fill-opacity="0.85"/>
 </g>
</svg>
