<?xml version="1.0" encoding="UTF-8"?>
<!--Generator: Apple Native CoreSVG 232.5-->
<!DOCTYPE svg
PUBLIC "-//W3C//DTD SVG 1.1//EN"
       "http://www.w3.org/Graphics/SVG/1.1/DTD/svg11.dtd">
<svg version="1.1" xmlns="http://www.w3.org/2000/svg" xmlns:xlink="http://www.w3.org/1999/xlink" width="139.355" height="95.2637">
 <g>
  <rect height="95.2637" opacity="0" width="139.355" x="0" y="0"/>
  <path d="M0 47.6074C0 63.0859 5.0293 77.2949 13.5254 88.8672C15.0391 90.9668 17.627 91.1621 19.5801 89.5996C21.3379 88.0859 21.582 85.7422 20.166 83.7891C12.7441 73.6816 8.34961 61.1328 8.34961 47.6074C8.34961 34.0332 12.7441 21.5332 20.166 11.3281C21.582 9.47266 21.3867 7.08008 19.5801 5.56641C17.627 4.00391 15.0391 4.24805 13.5254 6.29883C5.0293 17.8711 0 32.1289 0 47.6074ZM139.355 47.6074C139.355 32.1289 134.375 17.8711 125.83 6.29883C124.316 4.24805 121.729 4.00391 119.775 5.56641C117.969 7.08008 117.822 9.47266 119.189 11.3281C126.66 21.5332 131.006 34.0332 131.006 47.6074C131.006 61.1328 126.66 73.6816 119.189 83.7891C117.822 85.7422 118.018 88.0859 119.775 89.5996C121.729 91.1621 124.316 90.9668 125.83 88.8672C134.375 77.2949 139.355 63.0859 139.355 47.6074Z" fill="#000000" fill-opacity="0.85"/>
  <path d="M69.6777 95.2148C95.7031 95.2148 117.334 73.6328 117.334 47.6074C117.334 21.582 95.7031 0 69.6289 0C43.6035 0 22.0703 21.5332 22.0703 47.6074C22.0703 73.6328 43.6523 95.2148 69.6777 95.2148ZM69.6777 86.9141C47.9004 86.9141 30.4199 69.4336 30.4199 47.6074C30.4199 25.7324 47.8516 8.25195 69.6289 8.25195C91.4551 8.25195 108.984 25.7324 109.033 47.6074C109.082 69.3848 91.5527 86.9141 69.6777 86.9141Z" fill="#000000" fill-opacity="0.85"/>
  <path d="M50.8789 57.2754C50.8789 69.1895 58.5938 76.4648 69.5801 76.4648C77.8809 76.4648 83.5938 73.1445 87.3535 65.2832C89.4531 61.2793 91.0156 56.3965 92.6758 50.8301C93.4082 48.5352 94.4336 45.752 94.4336 44.5312C94.4336 43.0176 93.3105 41.9922 91.6992 41.9922C89.9414 41.9922 88.916 43.0664 87.6465 45.5566L83.8379 53.6133C83.5449 54.4434 83.1055 54.7852 82.666 54.7852C82.0801 54.7852 81.7871 54.3945 81.7871 53.5645L81.7871 25.0488C81.7871 23.4375 80.4199 22.0703 78.8086 22.0703C77.1484 22.0703 75.8301 23.4375 75.8301 25.0488L75.8301 45.2637C75.0977 45.0684 74.3164 44.7754 73.5352 44.6289L73.5352 21.0938C73.5352 19.4336 72.2168 18.1152 70.5566 18.1152C68.8965 18.1152 67.5781 19.4336 67.5781 21.0938L67.5781 44.3359C66.748 44.4824 65.918 44.4824 65.1855 44.6289L65.1855 23.4375C65.1855 21.7773 63.7695 20.459 62.1582 20.459C60.498 20.459 59.1797 21.7773 59.1797 23.4375L59.1797 46.582C58.3008 46.9238 57.6172 47.4121 56.8848 47.8516L56.8848 31.9336C56.8848 30.2734 55.5176 28.9062 53.9062 28.9062C52.2461 28.9062 50.8789 30.2734 50.8789 31.9336Z" fill="#000000" fill-opacity="0.85"/>
 </g>
</svg>
