<?xml version="1.0" encoding="UTF-8"?>
<!--Generator: Apple Native CoreSVG 232.5-->
<!DOCTYPE svg
PUBLIC "-//W3C//DTD SVG 1.1//EN"
       "http://www.w3.org/Graphics/SVG/1.1/DTD/svg11.dtd">
<svg version="1.1" xmlns="http://www.w3.org/2000/svg" xmlns:xlink="http://www.w3.org/1999/xlink" width="99.4629" height="109.033">
 <g>
  <rect height="109.033" opacity="0" width="99.4629" x="0" y="0"/>
  <path d="M0 71.9238C0 87.6953 10.3027 100.977 22.7539 100.977L38.3301 100.977C44.5312 104.248 52.0508 106.152 60.4492 106.152L66.9922 106.152C72.8516 106.152 77.9297 105.811 81.2988 104.98C87.8418 103.369 91.9434 98.8281 91.9434 93.0664C91.9434 91.8457 91.748 90.7715 91.4551 89.6973C94.6777 87.2559 96.4844 83.6914 96.4844 79.7852C96.4844 77.8809 96.0938 75.9766 95.4102 74.4629C97.6074 72.2168 98.8281 68.9453 98.8281 65.5273C98.8281 63.3301 98.291 60.9863 97.3633 59.2773C98.6816 57.373 99.4629 54.6875 99.4629 51.8555C99.4629 44.8242 93.9453 39.2578 86.9141 39.2578L69.0918 39.2578C68.0176 39.2578 67.334 38.7695 67.334 37.8418C67.334 32.7637 75.3418 20.8496 75.3418 11.2793C75.3418 4.6875 70.752 0 64.4531 0C59.8145 0 56.6895 2.39258 53.6133 8.25195C47.9004 19.2383 41.0645 29.1016 29.9316 42.6758L20.9961 42.6758C9.375 42.6758 0 55.8105 0 71.9238ZM27.4902 71.6797C27.4902 61.4746 29.7852 54.9805 36.1328 46.4355C43.2129 36.9629 53.0273 25.6348 60.1074 11.5723C61.8652 8.00781 63.0371 7.22656 64.7461 7.22656C66.748 7.22656 68.1152 8.64258 68.1152 11.2793C68.1152 18.8965 60.1074 30.4199 60.1074 37.8418C60.1074 43.2129 64.502 46.4844 70.1172 46.4844L86.9141 46.4844C89.9414 46.4844 92.2363 48.7793 92.2363 51.8555C92.2363 54.1016 91.5039 55.5176 89.6973 57.373C88.8184 58.1543 88.7207 59.1309 89.4531 60.0586C90.9668 62.3047 91.6016 63.6719 91.6016 65.5273C91.6016 67.7246 90.5762 69.6289 88.4277 71.2402C87.2559 72.168 86.7676 73.3887 87.4512 74.8535C88.6719 77.0508 89.2578 78.0762 89.2578 79.7852C89.2578 82.2754 87.6465 84.1797 84.2285 85.9375C83.1543 86.5723 82.9102 87.4512 83.3496 88.4766C84.5215 91.4062 84.668 91.8457 84.668 93.0664C84.668 95.3125 83.0078 97.1191 79.5898 97.998C76.8066 98.6816 72.3633 98.9746 67.041 98.9746L60.9863 98.9746C40.8691 98.9746 27.4902 87.5488 27.4902 71.6797ZM7.22656 71.9238C7.22656 59.7656 13.7695 49.9023 20.9961 49.9023C22.4121 49.9023 23.8281 49.9023 25.2441 49.9023C21.7773 56.4453 20.2637 63.2812 20.2637 71.5332C20.2637 80.2734 23.3887 87.8906 29.0039 93.7012C26.9043 93.7012 24.8535 93.7012 22.7539 93.7012C14.502 93.7012 7.22656 83.7402 7.22656 71.9238Z" fill="#000000" fill-opacity="0.85"/>
 </g>
</svg>
