<?xml version="1.0" encoding="UTF-8"?>
<!--Generator: Apple Native CoreSVG 232.5-->
<!DOCTYPE svg
PUBLIC "-//W3C//DTD SVG 1.1//EN"
       "http://www.w3.org/Graphics/SVG/1.1/DTD/svg11.dtd">
<svg version="1.1" xmlns="http://www.w3.org/2000/svg" xmlns:xlink="http://www.w3.org/1999/xlink" width="99.6094" height="99.6582">
 <g>
  <rect height="99.6582" opacity="0" width="99.6094" x="0" y="0"/>
  <path d="M49.8047 99.6094C77.0508 99.6094 99.6094 77.002 99.6094 49.8047C99.6094 22.5586 77.002 0 49.7559 0C22.5586 0 0 22.5586 0 49.8047C0 77.002 22.6074 99.6094 49.8047 99.6094ZM49.8047 91.3086C26.7578 91.3086 8.34961 72.8516 8.34961 49.8047C8.34961 26.7578 26.709 8.30078 49.7559 8.30078C72.8027 8.30078 91.3086 26.7578 91.3086 49.8047C91.3086 72.8516 72.8516 91.3086 49.8047 91.3086Z" fill="#000000" fill-opacity="0.85"/>
  <path d="M30.2734 58.4961C30.2734 70.8984 38.3301 78.5156 49.8047 78.5156C58.4473 78.5156 64.3555 75.0488 68.3105 66.9434C70.459 62.7441 72.1191 57.666 73.877 51.8555C74.6094 49.4629 75.6348 46.5332 75.6348 45.2148C75.6348 43.6523 74.4629 42.5781 72.8516 42.5781C70.9961 42.5781 69.9219 43.7012 68.6035 46.3379L64.6484 54.6875C64.2578 55.5664 63.8672 55.9082 63.4277 55.9082C62.8418 55.9082 62.5 55.5176 62.5 54.6387L62.5 24.9023C62.5 23.2422 61.084 21.8262 59.4238 21.8262C57.666 21.8262 56.2988 23.2422 56.2988 24.9023L56.2988 45.9961C55.5176 45.8008 54.7363 45.5078 53.9062 45.3613L53.9062 20.8008C53.9062 19.0918 52.5391 17.6758 50.7812 17.6758C49.0723 17.6758 47.7051 19.0918 47.7051 20.8008L47.7051 45.0195C46.8262 45.166 45.9961 45.2148 45.2148 45.3613L45.2148 23.2422C45.2148 21.4844 43.75 20.1172 42.041 20.1172C40.332 20.1172 38.916 21.4844 38.916 23.2422L38.916 47.3633C38.0371 47.7539 37.3047 48.2422 36.5723 48.6816L36.5723 32.0801C36.5723 30.3711 35.1074 28.9551 33.4473 28.9551C31.6895 28.9551 30.2734 30.3711 30.2734 32.0801Z" fill="#000000" fill-opacity="0.85"/>
 </g>
</svg>
