<?xml version="1.0" encoding="UTF-8"?>
<!--Generator: Apple Native CoreSVG 232.5-->
<!DOCTYPE svg
PUBLIC "-//W3C//DTD SVG 1.1//EN"
       "http://www.w3.org/Graphics/SVG/1.1/DTD/svg11.dtd">
<svg version="1.1" xmlns="http://www.w3.org/2000/svg" xmlns:xlink="http://www.w3.org/1999/xlink" width="92.9433" height="124.17">
 <g>
  <rect height="124.17" opacity="0" width="92.9433" x="0" y="0"/>
  <path d="M24.4502 0C10.9736 0 0.0361069 10.9375 0.0361069 24.4141C0.0361069 30.2246 2.08689 35.5957 5.45603 39.7949C6.28611 40.8203 7.26267 41.2109 8.1904 41.2109C10.583 41.2109 12.6338 38.3789 10.583 35.9375C7.94626 32.8125 6.43259 28.8086 6.43259 24.4141C6.43259 14.4531 14.4892 6.39648 24.4502 6.39648C34.4111 6.39648 42.4189 14.4531 42.4189 24.4141C42.4189 24.707 42.4189 25 42.4189 25.4395C42.4677 27.6367 43.9814 28.6133 45.5439 28.6133C47.0576 28.6133 48.6201 27.5391 48.7666 25.8301C48.8154 25.4883 48.8154 25.0488 48.8154 24.4141C48.8154 10.9375 37.9267 0 24.4502 0Z" fill="#000000" fill-opacity="0.85"/>
  <path d="M70.1533 107.275C89.5381 100.244 97.8388 82.4707 90.0263 60.9863L86.3642 50.9766C82.5068 40.3809 75.2802 36.0352 66.6865 39.0137C64.4404 36.0352 60.876 35.0098 57.0674 36.377C55.6513 36.9141 54.4306 37.6465 53.3076 38.5254C50.7685 35.3027 46.9111 34.1309 42.9072 35.5469C41.833 35.9375 40.8076 36.5234 39.831 37.207L34.2646 21.9727C32.165 16.1621 26.9404 13.7207 21.5205 15.6738C16.0517 17.6758 13.5615 22.9004 15.6611 28.7109L29.626 66.9922C29.6748 67.2363 29.626 67.4316 29.4306 67.5293C29.2353 67.627 29.04 67.5293 28.8935 67.3828L23.1806 61.1328C20.3486 58.1055 16.9795 57.1777 13.708 58.3496C9.21579 60.0098 6.33494 64.2578 8.1904 69.2871C8.67869 70.7031 9.65525 72.4121 10.7783 73.8281L27.0869 93.6035C39.4892 108.545 53.9424 113.184 70.1533 107.275ZM68.1025 100.879C55.2607 105.566 43.2978 103.174 32.0185 89.5508L15.6123 69.873C15.124 69.2871 14.7822 68.75 14.4892 67.9199C13.9033 66.3574 14.5869 64.5508 16.4424 63.8672C18.0049 63.3301 19.2744 63.916 20.4951 65.2344L31.8232 76.9043C33.6787 78.8574 35.3388 79.0527 36.999 78.4668C38.9033 77.7832 39.6845 75.7324 38.9521 73.6328L21.6181 26.0742C20.9345 24.1211 21.7646 22.2656 23.6689 21.582C25.5732 20.8984 27.331 21.8262 28.0146 23.7793L40.417 57.7148C40.9541 59.3262 42.7607 60.0586 44.372 59.4727C45.9345 58.8867 46.8135 57.1777 46.2275 55.6152L41.7842 43.3594C42.4189 42.7246 43.3955 42.0898 44.2744 41.748C46.5693 40.918 48.5224 41.9434 49.3525 44.3359L53.2588 55.0293C53.8935 56.6895 55.7002 57.3242 57.2627 56.7383C58.7763 56.2012 59.7041 54.5898 59.0693 52.8809L55.9443 44.1895C56.5791 43.5547 57.5556 42.9199 58.4345 42.5781C60.7295 41.748 62.6338 42.7734 63.5127 45.166L66.1494 52.2949C66.7353 54.0039 68.542 54.6387 70.1045 54.0527C71.6181 53.5156 72.5947 51.8555 71.9599 50.1953L70.0556 44.9219C74.1084 43.457 77.9658 46.7773 80.6513 54.1016L83.6787 62.4512C90.417 80.9082 84.3135 94.9707 68.1025 100.879Z" fill="#000000" fill-opacity="0.85"/>
 </g>
</svg>
