<?xml version="1.0" encoding="UTF-8"?>
<!--Generator: Apple Native CoreSVG 232.5-->
<!DOCTYPE svg
PUBLIC "-//W3C//DTD SVG 1.1//EN"
       "http://www.w3.org/Graphics/SVG/1.1/DTD/svg11.dtd">
<svg version="1.1" xmlns="http://www.w3.org/2000/svg" xmlns:xlink="http://www.w3.org/1999/xlink" width="134.657" height="126.357">
 <g>
  <rect height="126.357" opacity="0" width="134.657" x="0" y="0"/>
  <path d="M3.75438 33.1246L17.8657 36.1519C19.5747 36.5425 20.6001 38.105 20.2583 39.7652C19.9653 41.4742 18.2563 42.4507 16.645 42.1578L2.48484 39.1793C0.873517 38.8375-0.200702 37.275 0.0434386 35.6636C0.287579 33.9058 1.94774 32.7339 3.75438 33.1246ZM15.7173 11.3472L25.9712 21.5523C27.1919 22.773 27.143 24.6773 25.9712 25.898C24.7993 27.1187 22.7973 27.1187 21.5766 25.898L11.3716 15.6929C10.102 14.4234 10.1509 12.5679 11.3716 11.3472C12.5923 10.1265 14.4477 10.0777 15.7173 11.3472ZM39.2036 3.33942L42.2309 17.4507C42.6216 19.0132 41.4497 20.7222 39.7895 21.064C38.0805 21.4547 36.518 20.2828 36.1274 18.6714L33.1001 4.60895C32.7095 2.89996 33.8813 1.28864 35.5415 0.946839C37.1528 0.605042 38.813 1.63043 39.2036 3.33942Z" fill="#000000" fill-opacity="0.85"/>
  <path d="M114.741 37.3726C116.401 38.9839 118.842 43.9644 120.795 47.773C125.825 57.0992 129.877 65.2535 132.368 72.9683C137.006 86.7379 134.809 98.1636 123.823 109.199C118.125 114.876 111.502 118.357 104.609 119.351C106.898 117.789 109.095 115.962 111.176 113.886C124.018 100.996 126.655 87.0308 121.381 71.1129C118.745 62.8121 114.448 54.0718 109.37 44.6968C108.562 43.132 107.737 41.5035 106.9 39.9426C107.148 39.0593 107.622 38.2899 108.344 37.5679C110.346 35.6148 112.885 35.5172 114.741 37.3726ZM74.1157 28.6324L83.2704 37.7994C82.7556 39.5072 82.6266 41.4487 82.9048 43.7203L84.2231 46.6988L66.4388 28.9145C66.5165 28.8162 66.6032 28.7231 66.6938 28.6324C68.6958 26.6304 72.0649 26.6304 74.1157 28.6324Z" fill="#000000" fill-opacity="0.85"/>
  <path d="M58.5884 108.613C73.8227 123.798 92.8169 122.822 106.489 109.199C117.475 98.1636 119.672 86.7379 115.034 72.9683C112.543 65.2535 108.442 57.0992 103.461 47.773C101.459 43.9644 99.0669 38.9839 97.4067 37.3726C95.5513 35.5172 92.9634 35.6148 91.0102 37.5679C88.813 39.7652 88.9106 42.4019 90.5708 47.2847L95.8442 62.1773C96.479 63.7398 96.3813 64.7164 95.7954 65.3023C95.1118 65.9859 94.1841 66.0836 92.9145 64.8629L56.7817 28.6324C54.7309 26.6304 51.3618 26.6304 49.3598 28.6324C47.3091 30.6832 47.3091 34.0035 49.3598 36.0543L75.2388 61.9332C73.9692 62.5191 72.6509 63.3004 71.3325 64.1793L41.3032 34.15C39.3013 32.0992 35.9321 32.0992 33.8813 34.15C31.8794 36.2007 31.8794 39.5211 33.8813 41.5718L63.52 71.2105C62.5434 72.3824 61.6157 73.6519 60.7368 74.8726L33.5884 47.7242C31.5376 45.6734 28.2173 45.6734 26.1665 47.7242C24.1645 49.775 24.1645 53.0953 26.1665 55.1461L55.6587 84.6382C55.0727 86.2984 54.6821 87.9586 54.3403 89.5211L33.8325 69.0132C31.8305 66.9625 28.4614 66.9625 26.4106 69.0132C24.4087 71.064 24.4087 74.3355 26.4106 76.3863Z" fill="#000000" fill-opacity="0.85"/>
 </g>
</svg>
