<?xml version="1.0" encoding="UTF-8"?>
<!--Generator: Apple Native CoreSVG 232.5-->
<!DOCTYPE svg
PUBLIC "-//W3C//DTD SVG 1.1//EN"
       "http://www.w3.org/Graphics/SVG/1.1/DTD/svg11.dtd">
<svg version="1.1" xmlns="http://www.w3.org/2000/svg" xmlns:xlink="http://www.w3.org/1999/xlink" width="89.8926" height="89.9902">
 <g>
  <rect height="89.9902" opacity="0" width="89.8926" x="0" y="0"/>
  <path d="M89.8926 15.2344L89.8926 74.8535C89.8926 84.9121 84.8145 89.9902 74.5605 89.9902L15.332 89.9902C5.12695 89.9902 0 84.9609 0 74.8535L0 15.2344C0 5.12695 5.12695 0.0976562 15.332 0.0976562L74.5605 0.0976562C84.8145 0.0976562 89.8926 5.17578 89.8926 15.2344ZM42.2363 15.625L42.2363 40.625C41.3574 40.7227 40.5273 40.8203 39.6973 40.9668L39.6973 18.1152C39.6973 16.3574 38.1836 14.9414 36.4258 14.9414C34.668 14.9414 33.2031 16.3574 33.2031 18.1152L33.2031 43.0664C32.2754 43.457 31.543 43.9453 30.8105 44.3848L30.8105 27.2949C30.8105 25.5371 29.2969 24.0234 27.5879 24.0234C25.7324 24.0234 24.2676 25.5371 24.2676 27.2949L24.2676 54.4922C24.2676 67.2363 32.5684 75.0977 44.4336 75.0977C53.3203 75.0977 59.4238 71.5332 63.4766 63.2324C65.7227 58.8867 67.4316 53.7109 69.2383 47.7051C70.0195 45.2148 71.1426 42.1387 71.1426 40.7715C71.1426 39.1602 69.9219 38.0371 68.2129 38.0371C66.2598 38.0371 65.1855 39.209 63.8184 41.9922L59.7168 50.5859C59.375 51.5137 58.9355 51.8066 58.4961 51.8066C57.8613 51.8066 57.5195 51.416 57.5195 50.5371L57.5195 19.873C57.5195 18.1152 56.0547 16.6504 54.3457 16.6504C52.5391 16.6504 51.123 18.1152 51.123 19.873L51.123 41.6504C50.3418 41.4551 49.5117 41.1621 48.6816 40.918L48.6816 15.625C48.6816 13.916 47.2656 12.4023 45.459 12.4023C43.6523 12.4023 42.2363 13.916 42.2363 15.625Z" fill="#000000" fill-opacity="0.85"/>
 </g>
</svg>
