<?xml version="1.0" encoding="UTF-8"?>
<!--Generator: Apple Native CoreSVG 232.5-->
<!DOCTYPE svg
PUBLIC "-//W3C//DTD SVG 1.1//EN"
       "http://www.w3.org/Graphics/SVG/1.1/DTD/svg11.dtd">
<svg version="1.1" xmlns="http://www.w3.org/2000/svg" xmlns:xlink="http://www.w3.org/1999/xlink" width="99.6094" height="99.6582">
 <g>
  <rect height="99.6582" opacity="0" width="99.6094" x="0" y="0"/>
  <path d="M99.6094 49.8535C99.6094 77.0996 77.0508 99.6582 49.8047 99.6582C22.6074 99.6582 0 77.0996 0 49.8535C0 22.6562 22.5586 0.0488281 49.7559 0.0488281C77.002 0.0488281 99.6094 22.6562 99.6094 49.8535ZM54.7363 54.8828L54.7363 56.543C54.7363 58.3496 53.7109 59.375 51.9043 59.375L47.3145 59.375C45.5078 59.375 44.4824 58.3496 44.4824 56.543L44.4824 54.8828C37.4512 53.6621 30.9082 49.7559 26.709 42.0898C26.2207 42.9199 25.8789 43.8965 25.7324 45.0684L23.584 63.8184C22.8516 70.4102 25.7324 73.9746 31.8848 73.9746L67.334 73.9746C73.4863 73.9746 76.3672 70.4102 75.6348 63.8184L73.4863 45.0684C73.3398 43.8965 72.998 42.9199 72.5098 42.0898C68.2617 49.7559 61.7676 53.6621 54.7363 54.8828ZM33.6914 35.498L33.6914 38.1348L33.3008 38.1348C31.8359 38.1348 30.5176 38.4277 29.4922 39.0137C33.7402 47.6562 41.2109 50.9766 49.6094 50.9766C58.0078 50.9766 65.4785 47.6562 69.6777 39.0137C68.7012 38.4277 67.4316 38.1348 65.918 38.1348L65.5273 38.1348L65.5273 35.498C65.5273 26.7578 58.5938 20.1172 49.6094 20.1172C40.625 20.1172 33.6914 26.7578 33.6914 35.498ZM61.2305 35.498L61.2305 38.1348L37.9883 38.1348L37.9883 35.498C37.9883 29.1504 43.0176 24.3652 49.6094 24.3652C56.2012 24.3652 61.2305 29.1504 61.2305 35.498Z" fill="#000000" fill-opacity="0.85"/>
 </g>
</svg>
