<?xml version="1.0" encoding="UTF-8"?>
<!--Generator: Apple Native CoreSVG 232.5-->
<!DOCTYPE svg
PUBLIC "-//W3C//DTD SVG 1.1//EN"
       "http://www.w3.org/Graphics/SVG/1.1/DTD/svg11.dtd">
<svg version="1.1" xmlns="http://www.w3.org/2000/svg" xmlns:xlink="http://www.w3.org/1999/xlink" width="99.6094" height="99.6582">
 <g>
  <rect height="99.6582" opacity="0" width="99.6094" x="0" y="0"/>
  <path d="M49.8047 99.6094C77.0508 99.6094 99.6094 77.002 99.6094 49.8047C99.6094 22.5586 77.002 0 49.7559 0C22.5586 0 0 22.5586 0 49.8047C0 77.002 22.6074 99.6094 49.8047 99.6094ZM49.8047 91.3086C26.7578 91.3086 8.34961 72.8516 8.34961 49.8047C8.34961 26.7578 26.709 8.30078 49.7559 8.30078C72.8027 8.30078 91.3086 26.7578 91.3086 49.8047C91.3086 72.8516 72.8516 91.3086 49.8047 91.3086Z" fill="#000000" fill-opacity="0.85"/>
  <path d="M77.2461 41.6016C77.2461 33.7402 72.4609 27.1973 65.918 27.1973L61.1328 27.1973C65.9668 30.6641 68.0176 35.8398 67.9199 41.8945C67.8223 48.5352 65.2344 53.1738 63.0371 56.0547L66.8457 56.0547C72.7539 56.0547 77.2461 49.707 77.2461 41.6016ZM64.4043 41.8457C64.5508 32.1289 56.7871 24.9023 44.4824 24.7559L40.8691 24.707C37.5 24.6582 34.9609 24.9512 33.5449 25.293C31.4453 25.8301 29.3945 27.0508 29.3945 29.5898C29.3945 30.5176 29.6875 31.3965 29.9805 31.8848C30.1758 32.2266 30.127 32.5195 29.834 32.666C28.2715 33.252 26.8066 34.8633 26.8066 36.8652C26.8066 38.1348 27.1973 39.209 27.832 39.8926C28.125 40.2832 28.0762 40.6738 27.6367 40.9668C26.3672 41.6992 25.5371 43.1152 25.5371 44.873C25.5371 46.0449 25.9277 47.4121 26.6113 48.0469C27.0508 48.4375 27.002 48.6328 26.5137 49.0234C25.7324 49.7559 25.2441 50.9766 25.2441 52.3926C25.2441 55.0293 27.1973 57.1289 29.7852 57.1289L39.0625 57.1289C41.5039 57.1289 43.0176 58.3008 43.0176 60.3027C43.0176 63.8184 38.623 70.3125 38.623 74.9023C38.623 77.3438 40.2344 78.8086 42.2852 78.8086C44.1895 78.8086 45.1172 77.5391 46.0449 75.5371C50.0488 67.9199 55.2734 61.7188 59.2773 56.2988C62.5977 51.9043 64.3066 48.0469 64.4043 41.8457Z" fill="#000000" fill-opacity="0.85"/>
 </g>
</svg>
