<?xml version="1.0" encoding="UTF-8"?>
<!--Generator: Apple Native CoreSVG 232.5-->
<!DOCTYPE svg
PUBLIC "-//W3C//DTD SVG 1.1//EN"
       "http://www.w3.org/Graphics/SVG/1.1/DTD/svg11.dtd">
<svg version="1.1" xmlns="http://www.w3.org/2000/svg" xmlns:xlink="http://www.w3.org/1999/xlink" width="99.4629" height="106.396">
 <g>
  <rect height="106.396" opacity="0" width="99.4629" x="0" y="0"/>
  <path d="M99.4629 34.2773C99.4629 18.457 89.1602 5.22461 76.709 5.22461L61.1328 5.22461C54.9316 1.95312 47.4121 0 39.0137 0L32.4707 0C26.6113 0 21.5332 0.341797 18.1641 1.2207C11.6211 2.7832 7.51953 7.37305 7.51953 13.1348C7.51953 14.3066 7.71484 15.4297 8.00781 16.4551C4.78516 18.9453 2.97852 22.4609 2.97852 26.416C2.97852 28.3203 3.32031 30.1758 4.05273 31.7383C1.85547 33.9844 0.585938 37.2559 0.585938 40.6738C0.585938 42.8711 1.17188 45.2148 2.09961 46.9238C0.78125 48.8281 0 51.5137 0 54.2969C0 61.377 5.51758 66.9434 12.5488 66.9434L30.3711 66.9434C31.4453 66.9434 32.1289 67.4316 32.1289 68.3594C32.1289 73.4375 24.1211 85.3516 24.1211 94.9219C24.1211 101.514 28.7109 106.201 35.0098 106.201C39.6484 106.201 42.7734 103.809 45.8008 97.9492C51.5625 86.9141 58.3984 77.0996 69.5312 63.5254L78.4668 63.5254C90.0879 63.5254 99.4629 50.3906 99.4629 34.2773ZM71.9727 34.5215C71.9727 44.7266 69.6777 51.2207 63.3301 59.7656C56.25 69.1895 46.3867 80.5664 39.3555 94.6289C37.5488 98.1445 36.4258 98.9746 34.7168 98.9746C32.7148 98.9746 31.3477 97.5586 31.3477 94.9219C31.3477 87.2559 39.3555 75.7324 39.3555 68.3594C39.3555 62.9883 34.9609 59.7168 29.3457 59.7168L12.5488 59.7168C9.52148 59.7168 7.22656 57.4219 7.22656 54.2969C7.22656 52.0508 7.91016 50.6348 9.76562 48.8281C10.6445 48.0469 10.7422 47.0215 10.0098 46.1426C8.49609 43.8965 7.8125 42.5293 7.8125 40.6738C7.8125 38.4277 8.88672 36.5723 11.0352 34.9121C12.207 34.0332 12.6953 32.8125 11.9629 31.3477C10.791 29.1504 10.2051 28.125 10.2051 26.416C10.2051 23.9258 11.8164 21.9727 15.2344 20.2148C16.3086 19.6289 16.5527 18.75 16.0645 17.6758C14.9414 14.7949 14.7949 14.3555 14.7949 13.1348C14.7949 10.8887 16.4062 9.08203 19.8242 8.20312C22.6074 7.4707 27.0508 7.17773 32.4219 7.17773L38.4766 7.17773C58.5938 7.22656 71.9727 18.6523 71.9727 34.5215ZM92.2363 34.2773C92.2363 46.3867 85.6934 56.2988 78.4668 56.2988C77.0508 56.2988 75.6348 56.2988 74.2188 56.2988C77.6855 49.707 79.1992 42.8711 79.1992 34.668C79.1992 25.9277 76.0742 18.3105 70.459 12.5C72.5098 12.5 74.6094 12.5 76.709 12.5C84.9609 12.5 92.2363 22.4121 92.2363 34.2773Z" fill="#000000" fill-opacity="0.85"/>
 </g>
</svg>
