<?xml version="1.0" encoding="UTF-8"?>
<!--Generator: Apple Native CoreSVG 232.5-->
<!DOCTYPE svg
PUBLIC "-//W3C//DTD SVG 1.1//EN"
       "http://www.w3.org/Graphics/SVG/1.1/DTD/svg11.dtd">
<svg version="1.1" xmlns="http://www.w3.org/2000/svg" xmlns:xlink="http://www.w3.org/1999/xlink" width="82.0991" height="91.0418">
 <g>
  <rect height="91.0418" opacity="0" width="82.0991" x="0" y="0"/>
  <path d="M60.1169 88.6605C80.0388 81.434 86.6794 64.8813 78.9157 43.5434L75.7419 34.7543C72.8122 26.6977 67.1482 23.182 62.7536 24.7445C61.7771 25.1352 61.4353 25.8676 61.7771 26.7953L63.1931 30.7016C63.8767 32.557 63.2419 33.7777 62.1189 34.2172C60.947 34.6078 59.6775 34.0707 58.9939 32.2152L58.0661 29.6762C56.3571 24.891 52.1579 22.8891 48.0564 24.4027C46.2009 25.0863 45.6638 26.1605 46.2497 27.723L48.154 33.0453C48.8376 34.9008 48.2028 36.1215 47.1286 36.5609C45.9079 37.0004 44.6384 36.4145 44.0036 34.559L42.197 29.6762C40.2439 24.3051 36.24 22.9379 32.236 24.4027C30.4782 25.0375 29.8435 26.2094 30.4294 27.723L34.1892 38.1234C34.8728 39.9789 34.2868 41.1996 33.1638 41.6391C31.9919 42.0785 30.7224 41.4926 30.0388 39.6371L17.3435 4.82266C16.1228 1.40469 13.0954 0.0375002 10.2146 1.06289C7.13839 2.18594 5.82003 5.16445 7.04074 8.58242L25.5954 59.559C26.0837 60.8285 25.4978 61.7563 24.7165 62.0492C23.9353 62.3422 23.154 62.098 22.1286 61.0238L9.5798 47.5473C7.72433 45.5941 5.82003 45.1059 3.76925 45.8871C0.595424 47.0102-0.62528 49.891 0.302455 52.5277C0.69308 53.5531 1.23019 54.3344 1.7673 54.9691L17.2458 74.4516C30.3318 90.8578 45.4685 93.9828 60.1169 88.6605Z" fill="#000000" fill-opacity="0.85"/>
 </g>
</svg>
