<?xml version="1.0" encoding="UTF-8"?>
<!--Generator: Apple Native CoreSVG 232.5-->
<!DOCTYPE svg
PUBLIC "-//W3C//DTD SVG 1.1//EN"
       "http://www.w3.org/Graphics/SVG/1.1/DTD/svg11.dtd">
<svg version="1.1" xmlns="http://www.w3.org/2000/svg" xmlns:xlink="http://www.w3.org/1999/xlink" width="132.868" height="106.117">
 <g>
  <rect height="106.117" opacity="0" width="132.868" x="0" y="0"/>
  <path d="M43.1676 40.632C43.1676 42.4386 41.7028 43.9035 39.8961 43.9035L13.6754 43.9035C11.82 43.9035 10.3551 42.4386 10.3551 40.632C10.3551 38.7765 11.82 37.3117 13.6754 37.3117L39.8961 37.3117C41.7028 37.3117 43.1676 38.7765 43.1676 40.632Z" fill="#000000" fill-opacity="0.85"/>
  <path d="M48.0587 25.5441L13.6754 25.5441C11.82 25.5441 10.3551 24.0792 10.3551 22.2726C10.3551 20.466 11.82 18.9523 13.6754 18.9523L45.6588 18.9523Z" fill="#000000" fill-opacity="0.85"/>
  <path d="M52.1032 0.739405C48.7522 1.95567 46.3098 4.30757 45.0451 7.23355L13.6754 7.23355C11.82 7.23355 10.3551 5.71987 10.3551 3.91323C10.3551 2.10659 11.82 0.641749 13.6754 0.641749L52.4191 0.641749Z" fill="#000000" fill-opacity="0.85"/>
  <path d="M104.252 94.6359C124.173 87.3605 130.814 70.8078 123.05 49.5187L119.877 40.6808C116.898 32.6242 111.283 29.1085 106.888 30.7199C105.863 31.0617 105.521 31.7941 105.863 32.7218L107.279 36.6281C107.963 38.4835 107.377 39.7531 106.254 40.1437C105.082 40.5832 103.812 39.9972 103.129 38.1417L102.201 35.6027C100.443 30.8664 96.2926 28.8644 92.1911 30.3292C90.3356 31.0128 89.7497 32.0871 90.3356 33.6496L92.2887 38.9718C92.9235 40.8273 92.3375 42.048 91.2633 42.4875C90.0426 42.9269 88.7731 42.341 88.0895 40.4855L86.3317 35.6027C84.3786 30.2804 80.3747 28.8644 76.3708 30.3292C74.6129 30.964 73.9782 32.1359 74.5153 33.6496L78.3239 44.05C79.0075 45.9054 78.3727 47.175 77.2985 47.5656C76.0778 48.005 74.8083 47.4191 74.1247 45.5636L61.4782 10.7492C60.2575 7.38003 57.2301 5.96401 54.3493 6.9894C51.2731 8.11245 49.9547 11.091 51.1754 14.5089L69.7301 65.4855C70.1696 66.755 69.6325 67.7316 68.8512 68.0246C68.07 68.2687 67.2399 68.0246 66.2633 66.9992L53.7145 53.5226C51.8102 51.5207 49.9059 51.0812 47.8551 51.8136C44.7301 52.9367 43.5094 55.8175 44.4372 58.4542C44.8278 59.4796 45.3649 60.2609 45.8532 60.9445L61.3805 80.3781C74.4665 96.7843 89.6032 99.9582 104.252 94.6359Z" fill="#000000" fill-opacity="0.85"/>
 </g>
</svg>
