<?xml version="1.0" encoding="UTF-8"?>
<!--Generator: Apple Native CoreSVG 232.5-->
<!DOCTYPE svg
PUBLIC "-//W3C//DTD SVG 1.1//EN"
       "http://www.w3.org/Graphics/SVG/1.1/DTD/svg11.dtd">
<svg version="1.1" xmlns="http://www.w3.org/2000/svg" xmlns:xlink="http://www.w3.org/1999/xlink" width="100.872" height="103.857">
 <g>
  <rect height="103.857" opacity="0" width="100.872" x="0" y="0"/>
  <path d="M19.9671 36.377L27.8284 36.377L27.8284 29.3945C27.8284 17.1875 37.6428 7.86133 50.4358 7.86133C63.2288 7.86133 73.0432 17.1875 73.0432 29.3945L73.0432 36.377L80.9046 36.377L80.9046 29.3945C80.9046 12.7441 67.721 0 50.4358 0C33.1995 0 19.9671 12.7441 19.9671 29.3945ZM50.4358 59.668C66.7444 59.668 81.1975 53.2227 89.4983 36.4258C87.3499 35.1562 84.7132 34.5703 81.637 34.5703L19.2346 34.5703C16.1585 34.5703 13.5218 35.1562 11.3733 36.4258C19.7229 53.2227 34.1272 59.668 50.4358 59.668ZM100.631 84.1797L96.4319 48.0469C96.1389 45.6543 95.553 43.75 94.5764 42.0898C86.3733 56.9336 73.7757 64.4043 60.2014 66.748L60.2014 70.2148C60.2014 73.5352 58.2483 75.3906 54.928 75.3906L45.9436 75.3906C42.6233 75.3906 40.6702 73.5352 40.6702 70.2148L40.6702 66.748C27.096 64.4043 14.4983 56.9824 6.29519 42.1387C5.36746 43.75 4.78152 45.6543 4.48855 48.0469L0.240506 84.1797C-1.27317 96.875 4.43972 103.809 16.305 103.809L84.5667 103.809C96.4807 103.809 102.145 96.875 100.631 84.1797Z" fill="#000000" fill-opacity="0.85"/>
 </g>
</svg>
