<?xml version="1.0" encoding="UTF-8"?>
<!--Generator: Apple Native CoreSVG 232.5-->
<!DOCTYPE svg
PUBLIC "-//W3C//DTD SVG 1.1//EN"
       "http://www.w3.org/Graphics/SVG/1.1/DTD/svg11.dtd">
<svg version="1.1" xmlns="http://www.w3.org/2000/svg" xmlns:xlink="http://www.w3.org/1999/xlink" width="118.066" height="138.818">
 <g>
  <rect height="138.818" opacity="0" width="118.066" x="0" y="0"/>
  <path d="M16.4795 103.271C18.4814 112.793 18.2373 112.988 28.2471 114.99C28.9307 115.137 29.3701 115.479 29.3701 116.211C29.3701 116.943 28.9307 117.285 28.2471 117.48C18.2373 119.385 18.2861 119.58 16.4795 129.15C16.3818 129.834 15.9912 130.273 15.3076 130.273C14.624 130.273 14.2334 129.834 14.0869 129.15C12.2803 119.58 12.4268 119.434 2.36816 117.48C1.68457 117.285 1.24512 116.943 1.24512 116.211C1.24512 115.479 1.68457 115.137 2.36816 114.99C12.4268 112.988 12.085 112.793 14.0869 103.271C14.2334 102.588 14.624 102.148 15.3076 102.148C15.9912 102.148 16.3818 102.588 16.4795 103.271ZM76.001 3.17383C77.417 14.6484 78.0518 14.5996 89.8682 16.8457C90.6006 16.9922 91.1377 17.4805 91.1377 18.2617C91.1377 19.0918 90.6006 19.5801 89.6729 19.6777C77.9541 21.6309 77.417 21.9238 76.001 33.3984C75.9521 34.2773 75.3662 34.8145 74.5361 34.8145C73.8037 34.8145 73.2178 34.2773 73.1689 33.4961C71.6064 21.9727 71.2646 22.0215 59.3018 19.6777C58.5693 19.5801 58.0322 19.043 58.0322 18.2617C58.0322 17.4805 58.5693 16.9434 59.3018 16.8457C71.2646 15.1367 71.6553 14.7949 73.1689 3.125C73.2178 2.29492 73.8037 1.75781 74.5361 1.75781C75.3662 1.75781 75.9521 2.29492 76.001 3.17383ZM42.9932 0.976562C44.5557 8.1543 44.3115 8.20312 51.6846 9.66797C52.3193 9.81445 52.71 10.2051 52.71 10.8398C52.71 11.4258 52.3193 11.8164 51.6846 11.9629C44.3115 13.3301 44.3115 13.3789 42.9932 20.7031C42.8467 21.3379 42.4561 21.6309 41.8701 21.6309C41.2842 21.6309 40.8447 21.2891 40.7471 20.7031C39.3799 13.3789 39.4287 13.4277 32.0557 11.9629C31.3721 11.8164 31.0303 11.377 31.0303 10.8398C31.0303 10.2539 31.3721 9.81445 32.0557 9.66797C39.4287 8.20312 39.1846 8.1543 40.7471 0.976562C40.8447 0.390625 41.2842 0 41.8701 0C42.5049 0 42.8467 0.341797 42.9932 0.976562Z" fill="#000000" fill-opacity="0.85"/>
  <path d="M96.7529 43.6035C98.4131 45.2148 100.854 50.1953 102.808 54.0039C107.837 63.3301 111.89 71.4844 114.38 79.1992C119.019 92.9688 116.821 104.395 105.835 115.43C100.131 121.113 93.51 124.595 86.6154 125.585C88.9066 124.023 91.1052 122.194 93.1885 120.117C106.03 107.227 108.667 93.2617 103.394 77.3438C100.757 69.043 96.46 60.3027 91.3818 50.9277C90.5717 49.3581 89.7499 47.7243 88.9162 46.1591C89.1654 45.2819 89.6384 44.5169 90.3564 43.7988C92.3584 41.8457 94.8975 41.748 96.7529 43.6035ZM56.1279 34.8633L65.276 44.0237C64.7578 45.735 64.6401 47.6691 64.9658 49.9023L66.2354 52.9297L48.451 35.1454C48.5287 35.0471 48.6154 34.954 48.7061 34.8633C50.708 32.8613 54.0771 32.8613 56.1279 34.8633Z" fill="#000000" fill-opacity="0.85"/>
  <path d="M40.6006 114.844C55.835 130.029 74.8291 129.053 88.501 115.43C99.4873 104.395 101.685 92.9688 97.0459 79.1992C94.5557 71.4844 90.4541 63.3301 85.4736 54.0039C83.5205 50.1953 81.0791 45.2148 79.4189 43.6035C77.5635 41.748 74.9756 41.8457 73.0225 43.7988C70.8252 45.9961 70.9229 48.6328 72.583 53.5156L77.8564 68.4082C78.4912 69.9707 78.3936 70.9473 77.8076 71.5332C77.124 72.2168 76.1963 72.3145 74.9756 71.0938L38.7939 34.8633C36.7432 32.8613 33.374 32.8613 31.3721 34.8633C29.3213 36.9141 29.3213 40.2344 31.3721 42.2852L57.251 68.1641C55.9814 68.75 54.6631 69.5312 53.3447 70.4102L23.3154 40.3809C21.3135 38.3301 17.9443 38.3301 15.8936 40.3809C13.8916 42.4316 13.8916 45.752 15.8936 47.8027L45.5322 77.4414C44.5557 78.6133 43.6279 79.8828 42.749 81.1035L15.6006 53.9551C13.5498 51.9043 10.2295 51.9043 8.17871 53.9551C6.17676 56.0059 6.17676 59.3262 8.17871 61.377L37.7197 90.8691C37.085 92.5293 36.6943 94.1895 36.3525 95.752L15.8447 75.2441C13.8428 73.1934 10.4736 73.1934 8.42285 75.2441C6.4209 77.2949 6.4209 80.5664 8.42285 82.6172Z" fill="#000000" fill-opacity="0.85"/>
 </g>
</svg>
