<?xml version="1.0" encoding="UTF-8"?>
<!--Generator: Apple Native CoreSVG 232.5-->
<!DOCTYPE svg
PUBLIC "-//W3C//DTD SVG 1.1//EN"
       "http://www.w3.org/Graphics/SVG/1.1/DTD/svg11.dtd">
<svg version="1.1" xmlns="http://www.w3.org/2000/svg" xmlns:xlink="http://www.w3.org/1999/xlink" width="79.7456" height="102.783">
 <g>
  <rect height="102.783" opacity="0" width="79.7456" x="0" y="0"/>
  <path d="M45.2195 102.734C65.8738 102.734 79.7409 88.8672 79.7409 66.0156L79.7409 55.3223C79.7409 44.0918 74.4187 37.5 65.3366 37.4023C64.2136 33.7891 61.2351 31.6406 57.1823 31.6406C55.7175 31.6406 54.3015 31.8848 52.8855 32.373C51.6648 28.418 48.4421 26.0254 44.1941 26.0254C43.071 26.0254 41.8991 26.1719 40.7273 26.5137L40.7273 10.2539C40.7273 4.10156 36.6257 0 30.864 0C25.0534 0 20.9031 4.10156 20.9031 10.2539L20.9031 50.9766C20.9031 51.2695 20.8054 51.416 20.5613 51.416C20.3659 51.416 20.2195 51.3184 20.1218 51.0742L16.8991 43.3105C15.239 39.502 12.407 37.4512 8.94016 37.4512C4.155 37.4512 0.00461404 40.4785 0.00461404 45.8008C-0.0442141 47.3145 0.297583 49.2676 0.88352 50.9277L9.47727 75.0977C15.9714 93.4082 28.032 102.734 45.2195 102.734ZM45.4636 95.9961C31.8406 95.9961 21.3913 89.6973 15.4343 72.998L6.79172 48.9258C6.54758 48.1934 6.4011 47.5586 6.4011 46.6797C6.4011 45.0195 7.67063 43.5547 9.62375 43.5547C11.2839 43.5547 12.2605 44.5312 12.9441 46.1914L19.6335 61.0352C20.7077 63.5254 22.1726 64.3066 23.9304 64.3066C25.9812 64.3066 27.3972 62.6465 27.3972 60.4492L27.3972 9.81445C27.3972 7.76367 28.862 6.29883 30.864 6.29883C32.8659 6.29883 34.2331 7.76367 34.2331 9.81445L34.2331 45.9473C34.2331 47.6562 35.698 48.9746 37.3581 48.9746C39.0671 48.9746 40.4343 47.6562 40.4343 45.9473L40.4343 32.959C41.2644 32.5684 42.3874 32.2754 43.364 32.2754C45.8054 32.2754 47.2702 33.8867 47.2702 36.4746L47.2702 47.8027C47.2702 49.6094 48.7351 50.8301 50.3952 50.8301C52.0066 50.8301 53.4714 49.6094 53.4714 47.8027L53.4714 38.5742C54.3015 38.1836 55.4245 37.9395 56.3523 37.9395C58.7937 37.9395 60.2585 39.502 60.2585 42.0898L60.2585 49.707C60.2585 51.4648 61.7722 52.6855 63.4323 52.6855C64.9948 52.6855 66.4597 51.4648 66.4597 49.707L66.4597 44.0918C70.8054 44.0918 73.2956 48.5352 73.2956 56.2988L73.2956 65.2344C73.2956 84.8633 62.7488 95.9961 45.4636 95.9961Z" fill="#000000" fill-opacity="0.85"/>
 </g>
</svg>
