<?xml version="1.0" encoding="UTF-8"?>
<!--Generator: Apple Native CoreSVG 232.5-->
<!DOCTYPE svg
PUBLIC "-//W3C//DTD SVG 1.1//EN"
       "http://www.w3.org/Graphics/SVG/1.1/DTD/svg11.dtd">
<svg version="1.1" xmlns="http://www.w3.org/2000/svg" xmlns:xlink="http://www.w3.org/1999/xlink" width="116.65" height="115.674">
 <g>
  <rect height="115.674" opacity="0" width="116.65" x="0" y="0"/>
  <path d="M86.3281 21.875L86.3281 22.7051L45.6543 22.7051C31.7871 22.7051 23.6816 30.6641 23.6816 44.4824L23.6816 86.4258L21.9727 86.4258C11.7676 86.4258 6.64062 81.3477 6.64062 71.2891L6.64062 21.875C6.64062 11.8164 11.7676 6.73828 21.9727 6.73828L70.9961 6.73828C81.1523 6.73828 86.3281 11.8164 86.3281 21.875Z" fill="#000000" fill-opacity="0.85"/>
  <path d="M110.01 44.4824L110.01 93.8965C110.01 103.955 104.834 109.033 94.6777 109.033L45.6543 109.033C35.4492 109.033 30.3223 103.955 30.3223 93.8965L30.3223 44.4824C30.3223 34.375 35.4492 29.3457 45.6543 29.3457L94.6777 29.3457C104.834 29.3457 110.01 34.4238 110.01 44.4824ZM67.627 43.1641L67.627 65.332C66.8457 65.3809 66.0645 65.4785 65.332 65.625L65.332 45.4102C65.332 43.7988 64.0137 42.5293 62.5 42.5293C60.9375 42.5293 59.6191 43.7988 59.6191 45.4102L59.6191 67.4805C58.7402 67.7734 58.1543 68.2129 57.4707 68.6035L57.4707 53.4668C57.4707 51.9531 56.1523 50.6348 54.6875 50.6348C52.9785 50.6348 51.7578 51.9531 51.7578 53.4668L51.7578 77.5879C51.7578 88.916 59.0332 95.8496 69.5801 95.8496C77.4414 95.8496 82.8613 92.7246 86.377 85.3516C88.4277 81.4941 89.8926 76.8555 91.5039 71.582C92.1875 69.3848 93.1641 66.6504 93.1641 65.4297C93.1641 63.9648 92.0898 62.9883 90.5762 62.9883C88.8672 62.9883 87.9883 64.0625 86.7188 66.5039L83.0566 74.0723C82.7637 74.8535 82.4219 75.1953 82.0312 75.1953C81.3965 75.1953 81.1523 74.8047 81.1523 74.0234L81.1523 46.875C81.1523 45.3613 79.834 44.0918 78.3203 44.0918C76.709 44.0918 75.4395 45.3613 75.4395 46.875L75.4395 66.2109C74.8047 66.0156 74.0234 65.8203 73.3398 65.5762L73.3398 43.1641C73.3398 41.6016 72.0215 40.332 70.5078 40.332C68.8477 40.332 67.627 41.6016 67.627 43.1641Z" fill="#000000" fill-opacity="0.85"/>
 </g>
</svg>
