<?xml version="1.0" encoding="UTF-8"?>
<!--Generator: Apple Native CoreSVG 232.5-->
<!DOCTYPE svg
PUBLIC "-//W3C//DTD SVG 1.1//EN"
       "http://www.w3.org/Graphics/SVG/1.1/DTD/svg11.dtd">
<svg version="1.1" xmlns="http://www.w3.org/2000/svg" xmlns:xlink="http://www.w3.org/1999/xlink" width="109.033" height="84.0436">
 <g>
  <rect height="84.0436" opacity="0" width="109.033" x="0" y="0"/>
  <path d="M0 47.515C0 69.1947 14.5508 83.7454 38.5254 83.7454L49.707 83.7454C61.5234 83.7454 68.457 78.1302 68.5547 68.6087C72.3633 67.4369 74.6094 64.3119 74.6094 60.0638C74.6094 58.5013 74.3164 56.9876 73.877 55.5716C77.9785 54.2533 80.5176 50.8353 80.5176 46.3919C80.5176 45.2201 80.3711 43.9994 79.9805 42.7787L97.0215 42.7787C103.564 42.7787 107.812 38.4818 107.812 32.3783C107.812 26.2747 103.564 21.9779 97.0215 21.9779L54.2969 21.9779C54.0527 21.9779 53.8574 21.8802 53.8574 21.5872C53.8574 21.3919 53.9551 21.1966 54.1992 21.1478L62.4023 17.7298C66.4062 16.0208 68.5059 13.0423 68.5059 9.38021C68.5059 4.39975 65.332 0.00521393 59.7168 0.00521393C58.1543-0.0436142 56.1035 0.249355 54.3457 0.932948L28.9551 9.96615C9.7168 16.8021 0 29.3997 0 47.515ZM7.03125 47.8079C7.03125 33.4525 13.6719 22.4662 31.1523 16.2162L56.4941 7.13412C57.2266 6.84115 57.9102 6.7435 58.7891 6.7435C60.5957 6.7435 62.1094 8.06185 62.1094 10.1126C62.1094 11.8704 61.084 12.847 59.3262 13.6283L43.7012 20.5619C41.1621 21.7337 40.332 23.3451 40.332 25.1517C40.332 27.3001 42.041 28.8138 44.3359 28.8138L97.5098 28.8138C99.707 28.8138 101.221 30.2787 101.221 32.3783C101.221 34.5267 99.707 35.9427 97.5098 35.9427L59.5703 35.9427C57.8125 35.9427 56.3965 37.4564 56.3965 39.263C56.3965 40.972 57.8125 42.4857 59.5703 42.4857L73.2422 42.4857C73.6328 43.3158 73.9258 44.5365 73.9258 45.513C73.9258 48.0521 72.2168 49.6634 69.5312 49.6634L57.666 49.6634C55.7617 49.6634 54.4434 51.1771 54.4434 52.8861C54.4434 54.5951 55.7617 56.1087 57.666 56.1087L67.334 56.1087C67.7246 56.9876 67.9688 58.2083 67.9688 59.1849C67.9688 61.7728 66.3086 63.2865 63.6719 63.2865L55.6641 63.2865C53.8086 63.2865 52.4902 64.8978 52.4902 66.6068C52.4902 68.3158 53.8086 69.7806 55.6641 69.7806L61.5234 69.7806C61.5234 74.3704 56.8359 76.9583 48.6816 76.9583L39.3555 76.9583C18.7012 76.9583 7.03125 65.9232 7.03125 47.8079Z" fill="#000000" fill-opacity="0.85"/>
 </g>
</svg>
