<?xml version="1.0" encoding="UTF-8"?>
<!--Generator: Apple Native CoreSVG 232.5-->
<!DOCTYPE svg
PUBLIC "-//W3C//DTD SVG 1.1//EN"
       "http://www.w3.org/Graphics/SVG/1.1/DTD/svg11.dtd">
<svg version="1.1" xmlns="http://www.w3.org/2000/svg" xmlns:xlink="http://www.w3.org/1999/xlink" width="85.2928" height="95.3562">
 <g>
  <rect height="95.3562" opacity="0" width="85.2928" x="0" y="0"/>
  <path d="M62.5439 92.8685C81.9286 85.8373 90.1806 68.0638 82.3681 46.5795L78.7548 36.5697C74.8974 25.974 67.622 21.6283 59.0771 24.6068C56.7822 21.6283 53.2665 20.6029 49.4579 21.9701C48.0419 22.5072 46.8212 23.2396 45.6494 24.1185C43.1591 20.8959 39.3017 19.724 35.2978 21.14C34.2236 21.5306 33.1982 22.1166 32.2216 22.8002L26.6552 7.56578C24.5556 1.75523 19.2822-0.686171 13.8622 1.26695C8.39349 3.26891 5.95209 8.49352 8.0517 14.3041L21.9677 52.5853C22.0654 52.8295 22.0165 53.0248 21.7724 53.1224C21.6259 53.2201 21.4306 53.1224 21.2841 52.9759L15.5712 46.7259C12.7392 43.6986 9.32123 42.7709 6.04974 43.9427C1.60638 45.6029-1.27448 49.8509 0.580993 54.8802C1.02045 56.2963 1.99701 58.0052 3.12006 59.4213L19.4775 79.1966C31.831 94.138 46.3329 98.7767 62.5439 92.8685ZM60.4443 86.472C47.6513 91.1595 35.6396 88.767 24.3603 75.1439L8.00287 55.4662C7.51459 54.8802 7.17279 54.3431 6.87982 53.513C6.29388 51.9505 6.97748 50.1439 8.83295 49.4603C10.3954 48.9232 11.6161 49.5091 12.8857 50.8275L24.2138 62.4974C26.0693 64.4505 27.7294 64.6459 29.3408 64.0599C31.2939 63.3763 32.0751 61.3255 31.2939 59.2259L14.0087 11.6673C13.2763 9.71422 14.1552 7.85875 16.0107 7.17516C17.915 6.49156 19.6728 7.4193 20.4052 9.37242L32.7587 43.308C33.3447 44.9193 35.1513 45.6517 36.7626 45.0658C38.3251 44.4798 39.1552 42.7709 38.6181 41.2084L34.1259 28.9525C34.8095 28.3177 35.7372 27.683 36.665 27.3412C38.9599 26.5111 40.8642 27.5365 41.7431 29.9291L45.6494 40.6224C46.2353 42.2826 48.0419 42.9173 49.6044 42.3314C51.1181 41.7943 52.0947 40.183 51.4599 38.474L48.2861 29.7826C48.9697 29.1478 49.8974 28.513 50.8251 28.1713C53.1201 27.3412 55.0244 28.3666 55.9033 30.7591L58.4911 37.888C59.1259 39.597 60.9326 40.2318 62.4951 39.6459C64.0087 39.1088 64.9365 37.4486 64.3505 35.7884L62.3974 30.515C66.499 29.0502 70.3564 32.3705 72.9931 39.6947L76.0693 48.0443C82.7587 66.5013 76.704 80.5638 60.4443 86.472Z" fill="#000000" fill-opacity="0.85"/>
 </g>
</svg>
