<?xml version="1.0" encoding="UTF-8"?>
<!--Generator: Apple Native CoreSVG 232.5-->
<!DOCTYPE svg
PUBLIC "-//W3C//DTD SVG 1.1//EN"
       "http://www.w3.org/Graphics/SVG/1.1/DTD/svg11.dtd">
<svg version="1.1" xmlns="http://www.w3.org/2000/svg" xmlns:xlink="http://www.w3.org/1999/xlink" width="135.788" height="108.714">
 <g>
  <rect height="108.714" opacity="0" width="135.788" x="0" y="0"/>
  <path d="M46.8133 8.53196L13.6946 8.53196C11.8391 8.53196 10.3743 7.01829 10.3743 5.21165C10.3743 3.40501 11.8391 1.94017 13.6946 1.94017L54.7103 1.94017C51.2782 3.36307 48.5758 5.67486 46.8133 8.53196Z" fill="#000000" fill-opacity="0.85"/>
  <path d="M45.5794 23.2781L46.8748 26.8425L13.6946 26.8425C11.8391 26.8425 10.3743 25.3777 10.3743 23.571C10.3743 21.7644 11.8391 20.2507 13.6946 20.2507L44.7528 20.2507C44.9273 21.2499 45.207 22.2619 45.5794 23.2781Z" fill="#000000" fill-opacity="0.85"/>
  <path d="M43.1868 41.9304C43.1868 43.737 41.722 45.2019 39.9153 45.2019L13.6946 45.2019C11.8391 45.2019 10.3743 43.737 10.3743 41.9304C10.3743 40.0749 11.8391 38.6101 13.6946 38.6101L39.9153 38.6101C41.722 38.6101 43.1868 40.0749 43.1868 41.9304Z" fill="#000000" fill-opacity="0.85"/>
  <path d="M106.322 99.5476C125.755 92.5163 134.007 74.7429 126.195 53.2585L122.532 43.2488C118.675 32.6531 111.449 28.3074 102.855 31.2859C100.609 28.3074 97.0442 27.282 93.2356 28.6492C91.8196 29.1863 90.5989 29.9187 89.4759 30.7976C86.9368 27.5749 83.0794 26.4031 79.0755 27.8191C78.0501 28.2097 76.9759 28.7956 76.0481 29.4792L70.4817 14.2449C68.3333 8.43431 63.1087 5.9929 57.6887 7.94603C52.22 9.94798 49.7298 15.1726 51.8782 20.9831L65.7942 59.2644C65.8919 59.5085 65.843 59.7038 65.5989 59.8015C65.4036 59.8992 65.2571 59.8015 65.1106 59.655L59.3489 53.405C56.5169 50.3777 53.1477 49.4499 49.8762 50.6218C45.4329 52.282 42.5032 56.53 44.3587 61.5593C44.847 62.9753 45.8235 64.6843 46.9466 66.1003L63.304 85.8757C75.6575 100.817 90.1595 105.456 106.322 99.5476ZM104.271 93.1511C91.429 97.8386 79.4661 95.446 68.1868 81.823L51.8294 62.1452C51.2923 61.5593 50.9505 61.0222 50.6575 60.1921C50.1204 58.6296 50.804 56.823 52.6595 56.1394C54.1731 55.6023 55.4427 56.1882 56.6634 57.5066L67.9915 69.1765C69.847 71.1296 71.5071 71.3249 73.1673 70.739C75.0716 70.0554 75.9016 68.0046 75.1204 65.905L57.8352 18.3464C57.1028 16.3933 57.9329 14.5378 59.8372 13.8542C61.7415 13.1706 63.4993 14.0984 64.2317 16.0515L76.5852 49.987C77.1712 51.5984 78.9778 52.3308 80.5403 51.7449C82.1028 51.1589 82.9817 49.4499 82.3958 47.8874L77.9524 35.6316C78.5872 34.9968 79.5637 34.362 80.4427 34.0202C82.7864 33.1902 84.6907 34.2156 85.5696 36.6081L89.427 47.3015C90.0618 48.9617 91.8684 49.5964 93.4309 49.0105C94.9446 48.4734 95.8723 46.862 95.2864 45.1531L92.1126 36.4617C92.7473 35.8269 93.7239 35.1921 94.6028 34.8503C96.8977 34.0202 98.8509 35.0456 99.7298 37.4382L102.318 44.5671C102.952 46.2761 104.759 46.9109 106.322 46.3249C107.786 45.7878 108.763 44.1277 108.128 42.4675L106.224 37.1941C110.325 35.7292 114.183 39.0495 116.82 46.3738L119.847 54.7234C126.585 73.1804 120.482 87.2429 104.271 93.1511Z" fill="#000000" fill-opacity="0.85"/>
 </g>
</svg>
