<?xml version="1.0" encoding="UTF-8"?>
<!--Generator: Apple Native CoreSVG 232.5-->
<!DOCTYPE svg
PUBLIC "-//W3C//DTD SVG 1.1//EN"
       "http://www.w3.org/Graphics/SVG/1.1/DTD/svg11.dtd">
<svg version="1.1" xmlns="http://www.w3.org/2000/svg" xmlns:xlink="http://www.w3.org/1999/xlink" width="85.2051" height="107.861">
 <g>
  <rect height="107.861" opacity="0" width="85.2051" x="0" y="0"/>
  <path d="M7.37305 70.1172C7.37305 91.6504 21.4844 104.395 40.8691 104.395C56.3965 104.395 66.0156 97.9004 72.4121 84.8633C76.1719 77.6367 79.0527 68.9453 82.1289 58.8867C83.3984 54.7852 85.2051 49.5605 85.2051 47.2168C85.2051 44.5801 83.3008 42.8223 80.5176 42.8223C77.4414 42.8223 75.5859 44.7754 73.3398 49.4141L66.5527 63.6719C65.8691 65.2344 65.0879 65.8203 64.3066 65.8203C63.2812 65.8203 62.5977 65.2344 62.5977 63.5254L62.5977 12.3047C62.5977 9.42383 60.2539 7.08008 57.373 7.08008C54.4922 7.08008 52.1484 9.42383 52.1484 12.3047L52.1484 48.9258C50.8301 48.4375 49.3652 48.0469 47.8027 47.7539L47.8027 5.27344C47.8027 2.39258 45.459 0 42.5781 0C39.6973 0 37.3047 2.39258 37.3047 5.27344L37.3047 47.2168C35.791 47.3145 34.2285 47.5586 32.7148 47.8027L32.7148 9.42383C32.7148 6.54297 30.3711 4.19922 27.4902 4.19922C24.6094 4.19922 22.2656 6.54297 22.2656 9.42383L22.2656 51.123C20.6543 51.9043 19.1895 52.7344 17.8711 53.6133L17.8711 24.6094C17.8711 21.7285 15.5273 19.3848 12.6465 19.3848C9.76562 19.3848 7.37305 21.7285 7.37305 24.6094Z" fill="#000000" fill-opacity="0.85"/>
 </g>
</svg>
