<?xml version="1.0" encoding="UTF-8"?>
<!--Generator: Apple Native CoreSVG 232.5-->
<!DOCTYPE svg
PUBLIC "-//W3C//DTD SVG 1.1//EN"
       "http://www.w3.org/Graphics/SVG/1.1/DTD/svg11.dtd">
<svg version="1.1" xmlns="http://www.w3.org/2000/svg" xmlns:xlink="http://www.w3.org/1999/xlink" width="87.3535" height="111.182">
 <g>
  <rect height="111.182" opacity="0" width="87.3535" x="0" y="0"/>
  <path d="M42.1387 106.299C59.2773 106.299 71.3867 97.0215 77.8809 78.7109L86.4746 54.541C87.0605 52.8809 87.3535 51.2695 87.3535 49.8047C87.3535 44.6289 83.4473 41.0156 78.4668 41.0156C75.0977 41.0156 72.0703 43.0176 70.4102 46.875L67.2363 54.6875C67.1387 54.8828 66.9922 55.0293 66.7969 55.0293C66.5527 55.0293 66.4551 54.834 66.4551 54.5898L66.4551 15.4297C66.4551 9.7168 62.8906 6.10352 57.4219 6.10352C55.4199 6.10352 53.6133 6.83594 52.2461 8.10547C51.6113 3.07617 48.3887 0 43.5547 0C38.8184 0 35.498 3.17383 34.7656 8.00781C33.5449 6.78711 31.7871 6.10352 30.0293 6.10352C24.9512 6.10352 21.582 9.66797 21.582 15.0879L21.582 20.5078C20.2637 19.1406 18.2617 18.4082 16.2109 18.4082C11.1328 18.4082 7.61719 22.1191 7.61719 27.6367L7.61719 69.5801C7.61719 92.4316 21.4844 106.299 42.1387 106.299ZM41.8945 99.5605C24.6094 99.5605 14.0625 88.4277 14.0625 68.7988L14.0625 28.3203C14.0625 26.2207 15.3809 24.8047 17.4316 24.8047C19.4336 24.8047 20.8984 26.2207 20.8984 28.3203L20.8984 53.2715C20.8984 55.0781 22.3633 56.2988 23.9258 56.2988C25.5859 56.2988 27.0996 55.0781 27.0996 53.2715L27.0996 15.9668C27.0996 13.8672 28.418 12.4023 30.4199 12.4023C32.4707 12.4023 33.8867 13.8672 33.8867 15.9668L33.8867 50.7812C33.8867 52.5879 35.3516 53.8086 36.9629 53.8086C38.623 53.8086 40.0879 52.5879 40.0879 50.7812L40.0879 9.91211C40.0879 7.8125 41.5039 6.29883 43.5547 6.29883C45.5078 6.29883 46.9238 7.8125 46.9238 9.91211L46.9238 50.7812C46.9238 52.4902 48.291 53.8086 50 53.8086C51.6602 53.8086 53.125 52.4902 53.125 50.7812L53.125 15.9668C53.125 13.8672 54.541 12.4023 56.543 12.4023C58.5449 12.4023 59.9609 13.8672 59.9609 15.9668L59.9609 64.0137C59.9609 66.4551 61.377 67.8711 63.4277 67.8711C65.1855 67.8711 66.6504 67.0898 67.7734 64.6484L74.8047 48.9746C75.7324 46.875 77.5391 46.1426 79.248 46.7773C81.1523 47.4609 81.7383 49.2676 80.8594 51.6602L71.9238 76.6113C65.9668 93.2617 55.5176 99.5605 41.8945 99.5605Z" fill="#000000" fill-opacity="0.85"/>
 </g>
</svg>
