<?xml version="1.0" encoding="UTF-8"?>
<!--Generator: Apple Native CoreSVG 232.5-->
<!DOCTYPE svg
PUBLIC "-//W3C//DTD SVG 1.1//EN"
       "http://www.w3.org/Graphics/SVG/1.1/DTD/svg11.dtd">
<svg version="1.1" xmlns="http://www.w3.org/2000/svg" xmlns:xlink="http://www.w3.org/1999/xlink" width="96.2402" height="102.783">
 <g>
  <rect height="102.783" opacity="0" width="96.2402" x="0" y="0"/>
  <path d="M0 68.7012C0 83.1543 9.0332 95.2637 21.1426 95.2637L29.7363 95.2637C20.9473 88.8672 17.334 79.1992 17.334 68.2129C17.3828 56.0059 22.1191 47.2656 26.3184 41.9922L19.3359 41.9922C8.44727 41.9922 0 53.7109 0 68.7012ZM24.0723 68.3105C24.0723 86.1328 37.9883 99.9023 60.6934 99.9023L67.334 99.9023C73.6328 99.9023 78.3203 99.4629 80.957 98.7305C84.7656 97.8027 88.4277 95.459 88.4277 90.8691C88.4277 88.9648 87.9395 87.5977 87.3535 86.5723C86.9629 85.9375 87.0605 85.4492 87.6465 85.2051C90.6738 83.9355 93.1641 81.1035 93.1641 77.2461C93.1641 75.0488 92.5293 73.0957 91.4551 71.7773C90.918 71.0449 90.9668 70.3613 91.8945 69.873C94.043 68.6035 95.6055 65.8691 95.6055 62.6953C95.6055 60.4004 94.873 58.0078 93.6035 56.8359C92.8223 56.1523 92.9688 55.6641 93.75 54.9316C95.2637 53.6621 96.2402 51.4648 96.2402 48.6816C96.2402 43.9941 92.5781 40.1367 87.7441 40.1367L70.5566 40.1367C66.2109 40.1367 63.3301 37.8906 63.3301 34.2773C63.3301 27.7832 71.4844 15.7715 71.4844 7.17773C71.4844 2.63672 68.5547 0 64.7461 0C61.2305 0 59.5215 2.39258 57.666 6.05469C50.3906 20.166 40.7227 31.5918 33.3496 41.3574C27.0996 49.6582 24.0723 56.8359 24.0723 68.3105Z" fill="#000000" fill-opacity="0.85"/>
 </g>
</svg>
