<?xml version="1.0" encoding="UTF-8"?>
<!--Generator: Apple Native CoreSVG 232.5-->
<!DOCTYPE svg
PUBLIC "-//W3C//DTD SVG 1.1//EN"
       "http://www.w3.org/Graphics/SVG/1.1/DTD/svg11.dtd">
<svg version="1.1" xmlns="http://www.w3.org/2000/svg" xmlns:xlink="http://www.w3.org/1999/xlink" width="99.6094" height="99.6582">
 <g>
  <rect height="99.6582" opacity="0" width="99.6094" x="0" y="0"/>
  <path d="M99.6094 49.8047C99.6094 77.002 77.0508 99.6094 49.8047 99.6094C22.6074 99.6094 0 77.002 0 49.8047C0 22.5586 22.5586 0 49.7559 0C77.002 0 99.6094 22.5586 99.6094 49.8047ZM47.5586 19.9707L47.5586 44.9707C46.6797 45.0684 45.8496 45.166 45.0195 45.3125L45.0195 22.4609C45.0195 20.7031 43.5059 19.2871 41.748 19.2871C39.9902 19.2871 38.5254 20.7031 38.5254 22.4609L38.5254 47.4121C37.5977 47.8027 36.8652 48.291 36.1328 48.7305L36.1328 31.6406C36.1328 29.8828 34.6191 28.3691 32.9102 28.3691C31.0547 28.3691 29.5898 29.8828 29.5898 31.6406L29.5898 58.8379C29.5898 71.582 37.8906 79.4434 49.7559 79.4434C58.6426 79.4434 64.7461 75.8789 68.7988 67.5781C71.0449 63.2324 72.7539 58.0566 74.5605 52.0508C75.3418 49.5605 76.416 46.4844 76.416 45.1172C76.416 43.5059 75.1953 42.3828 73.5352 42.3828C71.582 42.3828 70.5078 43.5547 69.1406 46.3379L65.0391 54.9316C64.6484 55.8594 64.2578 56.1523 63.8184 56.1523C63.1836 56.1523 62.8418 55.7617 62.8418 54.8828L62.8418 24.2188C62.8418 22.4609 61.377 20.9961 59.668 20.9961C57.8613 20.9961 56.4453 22.4609 56.4453 24.2188L56.4453 45.9961C55.6641 45.8008 54.834 45.5078 54.0039 45.2637L54.0039 19.9707C54.0039 18.2617 52.5879 16.748 50.7812 16.748C48.9746 16.748 47.5586 18.2617 47.5586 19.9707Z" fill="#000000" fill-opacity="0.85"/>
 </g>
</svg>
