<?xml version="1.0" encoding="UTF-8"?>
<!--Generator: Apple Native CoreSVG 232.5-->
<!DOCTYPE svg
PUBLIC "-//W3C//DTD SVG 1.1//EN"
       "http://www.w3.org/Graphics/SVG/1.1/DTD/svg11.dtd">
<svg version="1.1" xmlns="http://www.w3.org/2000/svg" xmlns:xlink="http://www.w3.org/1999/xlink" width="99.6094" height="99.6582">
 <g>
  <rect height="99.6582" opacity="0" width="99.6094" x="0" y="0"/>
  <path d="M49.8047 99.6094C77.0508 99.6094 99.6094 77.002 99.6094 49.8047C99.6094 22.5586 77.002 0 49.7559 0C22.5586 0 0 22.5586 0 49.8047C0 77.002 22.6074 99.6094 49.8047 99.6094ZM49.8047 91.3086C26.7578 91.3086 8.34961 72.8516 8.34961 49.8047C8.34961 26.7578 26.709 8.30078 49.7559 8.30078C72.8027 8.30078 91.3086 26.7578 91.3086 49.8047C91.3086 72.8516 72.8516 91.3086 49.8047 91.3086Z" fill="#000000" fill-opacity="0.85"/>
  <path d="M21.8262 57.666C21.8262 65.5762 26.6113 72.1191 33.1543 72.1191L37.9395 72.1191C33.1055 68.6523 31.0547 63.4277 31.1523 57.4219C31.25 50.7812 33.7891 46.1426 36.0352 43.2617L32.2266 43.2617C26.2695 43.2617 21.8262 49.6094 21.8262 57.666ZM34.668 57.4707C34.5215 67.1387 42.2852 74.4629 54.5898 74.5117L58.2031 74.5605C61.5723 74.6094 64.1113 74.3652 65.5273 74.0234C67.627 73.4375 69.6777 72.2656 69.6777 69.7266C69.6777 68.7988 69.3848 67.9199 69.0918 67.4316C68.8965 67.0898 68.8965 66.7969 69.2383 66.6504C70.8008 66.0645 72.2168 64.4531 72.2168 62.4023C72.2168 61.1816 71.875 60.1074 71.2402 59.4238C70.9473 59.0332 70.9961 58.5938 71.4355 58.3496C72.7051 57.6172 73.4863 56.2012 73.4863 54.4434C73.4863 53.2715 73.1445 51.9043 72.4121 51.2695C72.0215 50.8789 72.0703 50.6836 72.5586 50.293C73.3398 49.5605 73.8281 48.3398 73.8281 46.9238C73.8281 44.2871 71.875 42.1875 69.2871 42.1875L60.0098 42.1875C57.5684 42.1875 56.0547 41.0156 56.0547 39.0137C56.0547 35.498 60.4492 29.0039 60.4492 24.3652C60.4492 21.9238 58.8379 20.5078 56.7871 20.5078C54.8828 20.5078 53.9551 21.7773 52.9785 23.7793C49.0234 31.3965 43.75 37.5977 39.7949 42.9688C36.4258 47.4121 34.7656 51.2695 34.668 57.4707Z" fill="#000000" fill-opacity="0.85"/>
 </g>
</svg>
