<?xml version="1.0" encoding="UTF-8"?>
<!--Generator: Apple Native CoreSVG 232.5-->
<!DOCTYPE svg
PUBLIC "-//W3C//DTD SVG 1.1//EN"
       "http://www.w3.org/Graphics/SVG/1.1/DTD/svg11.dtd">
<svg version="1.1" xmlns="http://www.w3.org/2000/svg" xmlns:xlink="http://www.w3.org/1999/xlink" width="151.221" height="115.283">
 <g>
  <rect height="115.283" opacity="0" width="151.221" x="0" y="0"/>
  <path d="M104.15 104.541C114.209 104.541 117.725 99.3652 117.725 93.6523C117.725 83.1543 108.643 77.4414 90.4785 77.4414C86.377 77.4414 84.0332 77.6855 82.2266 77.9297L78.6621 69.3359C71.2891 51.6113 59.5215 45.5566 47.5098 45.5566C45.5566 45.5566 43.3105 45.6055 41.3086 46.0449C38.916 46.582 37.9883 47.8516 37.9883 49.4629C37.9883 51.3184 39.3555 52.5391 41.3574 52.4902C43.457 52.3926 44.7754 52.1484 47.168 52.1484C58.252 52.1484 66.1133 58.1543 73.1934 74.1699L77.8809 85.0586C81.5918 84.2773 85.1074 83.6914 90.6738 83.6914C100.586 83.6914 110.498 86.3281 110.498 93.0664C110.498 95.6543 108.203 97.4121 104.15 97.4121C99.3652 97.4121 95.9473 96.1914 91.6992 96.1914C85.5469 96.1914 81.7383 97.168 79.0039 97.168C76.7578 97.168 74.3164 96.8262 71.8262 94.8242L50 76.416C34.375 77.0996 22.9492 72.998 16.3086 63.4277C11.3281 64.0137 7.71484 62.1094 7.71484 58.0078C7.71484 54.2969 10.9863 51.709 16.3574 52.002C21.3867 35.498 32.373 27.832 47.5586 27.832C63.4766 27.832 79.8828 40.6738 91.8457 47.4121C95.0684 49.3652 98.6328 50 101.074 50C106.396 50 110.645 46.6309 114.453 39.7949L81.9336 19.7754C78.4668 17.6758 73.584 13.916 73.584 12.5977C73.584 9.7168 80.3223 7.56836 85.2539 7.56836C92.9688 7.56836 99.4141 12.2559 105.371 19.3848L120.361 37.3047C134.131 36.6699 144.58 47.2168 144.58 60.6934C144.58 69.3359 140.527 71.9727 130.273 71.9727C123.877 71.9727 116.846 69.3848 110.742 65.5273C101.465 67.8711 91.748 72.3633 84.0332 78.2227L89.5508 81.4453C97.0703 77.0996 104.785 73.877 109.473 72.168C115.332 76.0742 123.779 78.418 130.029 78.3691C143.213 78.2715 151.221 74.1699 151.221 60.6445C151.221 44.043 138.574 31.543 123.73 31.3965L113.135 16.9922C104.98 6.10352 96.2891 0 85.1562 0C76.5137 0 64.7461 4.78516 64.7461 11.5723C64.7461 17.2363 71.1914 21.2891 77.4902 25.2441C84.8145 29.834 94.6777 35.5469 103.857 40.8691C102.637 41.9922 101.709 42.4805 100.488 42.4805C98.9746 42.4805 96.9727 41.748 94.3848 40.2344C74.6582 29.1016 62.8418 20.0684 47.6562 20.0684C29.4922 20.0684 16.4062 29.3945 10.2051 47.2656C4.15039 48.5352 0 52.4902 0 58.5938C0 66.1621 6.15234 70.0684 12.4512 70.4102C17.0898 77.9785 30.0293 84.668 46.6797 83.3008L68.0176 100.928C70.8496 103.271 73.9258 104.541 78.8086 104.541C82.9102 104.541 86.1328 103.174 91.9434 103.174C97.2168 103.174 99.9023 104.541 104.15 104.541ZM44.4824 109.814C54.7852 109.814 64.0137 107.178 71.3379 99.0234L65.2832 94.9219C60.8887 100.391 53.4668 103.174 44.2383 103.174C37.4023 103.174 33.0078 100.732 33.0078 96.8262C33.0078 94.873 34.2773 93.3594 37.1094 93.3594C39.8926 93.3594 42.9688 94.1406 46.3379 94.1406C52.0996 94.1406 55.6152 93.5059 59.375 89.6484L54.1016 85.0098C51.5625 87.5 49.8535 87.9883 47.5586 87.9883C44.3359 87.9395 41.2109 86.9141 37.5 86.9141C30.7129 86.9141 25.9766 90.8691 25.9766 96.7773C25.9766 105.127 33.3496 109.814 44.4824 109.814ZM127.002 57.6172C129.443 57.6172 131.445 55.6152 131.445 53.2227C131.445 50.8301 129.443 48.8281 127.002 48.8281C124.609 48.8281 122.607 50.8301 122.607 53.2227C122.607 55.6152 124.609 57.6172 127.002 57.6172Z" fill="#000000" fill-opacity="0.85"/>
 </g>
</svg>
