<?xml version="1.0" encoding="UTF-8"?>
<!--Generator: Apple Native CoreSVG 232.5-->
<!DOCTYPE svg
PUBLIC "-//W3C//DTD SVG 1.1//EN"
       "http://www.w3.org/Graphics/SVG/1.1/DTD/svg11.dtd">
<svg version="1.1" xmlns="http://www.w3.org/2000/svg" xmlns:xlink="http://www.w3.org/1999/xlink" width="144.336" height="98.6816">
 <g>
  <rect height="98.6816" opacity="0" width="144.336" x="0" y="0"/>
  <path d="M48.9919 72.5944C49.3967 74.6602 49.898 76.7323 50.4883 78.8086C50.6436 79.3455 50.8064 79.8702 50.9911 80.3601L12.6465 80.3223C10.5469 80.3223 8.74023 78.6133 8.74023 76.5137C8.74023 74.3652 10.5469 72.5586 12.6465 72.5586ZM47.4546 62.207L12.6465 62.207C10.5469 62.207 8.74023 60.498 8.74023 58.3984C8.74023 56.25 10.5469 54.4434 12.6465 54.4434L46.9661 54.4434C47.0378 57.0174 47.1915 59.606 47.4546 62.207ZM46.9683 44.1256L12.6465 44.0918C10.5957 44.0918 8.74023 42.334 8.74023 40.1855C8.74023 38.0859 10.5469 36.2793 12.6465 36.2793L47.4676 36.2793C47.1989 38.9109 47.0418 41.5264 46.9683 44.1256ZM50.4883 19.7266C49.8991 21.819 49.3987 23.903 48.9945 25.9766L12.6465 25.9766C10.5469 25.9766 8.74023 24.2676 8.74023 22.0703C8.74023 19.9707 10.5469 18.1641 12.6465 18.1641L51.0032 18.1641Z" fill="#000000" fill-opacity="0.85"/>
  <path d="M55.6152 49.3164C55.6152 58.4961 56.3477 67.3828 58.8867 76.416C61.7676 86.2793 67.334 89.7949 79.0039 89.7949L81.7383 89.7949C110.254 89.7949 135.596 71.1914 135.596 49.3164C135.596 27.4414 110.254 8.74023 81.7383 8.74023L79.0039 8.74023C67.3828 8.74023 61.8164 12.3047 58.8867 22.168C56.3477 31.25 55.6152 40.1367 55.6152 49.3164ZM63.4766 49.3164C63.4766 39.0625 64.2578 31.6406 66.3574 24.3652C68.0664 18.6523 71.582 16.5039 79.0039 16.5039L81.7383 16.5039C105.762 16.5039 127.783 31.8848 127.783 49.3164C127.783 66.6992 105.762 82.0312 81.7383 82.0312L79.0039 82.0312C71.4355 82.0312 68.0664 79.9316 66.3574 74.2676C64.2578 66.9434 63.4766 59.5703 63.4766 49.3164Z" fill="#000000" fill-opacity="0.85"/>
 </g>
</svg>
