<?xml version="1.0" encoding="UTF-8"?>
<!--Generator: Apple Native CoreSVG 232.5-->
<!DOCTYPE svg
PUBLIC "-//W3C//DTD SVG 1.1//EN"
       "http://www.w3.org/Graphics/SVG/1.1/DTD/svg11.dtd">
<svg version="1.1" xmlns="http://www.w3.org/2000/svg" xmlns:xlink="http://www.w3.org/1999/xlink" width="99.4141" height="103.564">
 <g>
  <rect height="103.564" opacity="0" width="99.4141" x="0" y="0"/>
  <path d="M0 53.4668C0 68.1641 4.24805 84.375 11.4258 96.9727C12.6465 99.0723 14.9414 99.6582 17.1387 98.4375C19.1895 97.3145 19.7754 95.0195 18.5059 92.7246C11.9629 80.8105 8.30078 66.6016 8.30078 53.4668C8.30078 26.3672 24.8535 8.30078 49.707 8.30078C74.5117 8.30078 91.1133 26.3672 91.1133 53.4668C91.1133 66.6016 87.4023 80.8105 80.8594 92.7246C79.5898 95.0195 80.1758 97.3145 82.2266 98.4375C84.4238 99.6582 86.7676 99.0723 87.9395 96.9727C95.1172 84.375 99.4141 68.1641 99.4141 53.4668C99.4141 21.3379 79.5898 0 49.707 0C19.7754 0 0 21.3379 0 53.4668ZM15.2832 95.752C16.8945 101.367 21.6797 103.955 27.3438 102.344C32.959 100.732 35.5957 95.8496 33.9355 90.2344L26.9531 66.4062C25.3418 60.8398 20.5566 58.2031 14.8926 59.8145C9.27734 61.4746 6.64062 66.3086 8.30078 71.9727ZM84.082 95.752L91.0645 71.9727C92.7246 66.2598 90.1367 61.4746 84.4727 59.8145C78.8086 58.2031 74.0723 60.8398 72.4121 66.4062L65.4297 90.2344C63.7695 95.8984 66.4062 100.732 72.0215 102.344C77.7344 103.955 82.4707 101.367 84.082 95.752Z" fill="#000000" fill-opacity="0.85"/>
 </g>
</svg>
