<?xml version="1.0" encoding="UTF-8"?>
<!--Generator: Apple Native CoreSVG 232.5-->
<!DOCTYPE svg
PUBLIC "-//W3C//DTD SVG 1.1//EN"
       "http://www.w3.org/Graphics/SVG/1.1/DTD/svg11.dtd">
<svg version="1.1" xmlns="http://www.w3.org/2000/svg" xmlns:xlink="http://www.w3.org/1999/xlink" width="99.6094" height="99.6582">
 <g>
  <rect height="99.6582" opacity="0" width="99.6094" x="0" y="0"/>
  <path d="M49.8047 99.6094C77.0508 99.6094 99.6094 77.002 99.6094 49.8047C99.6094 22.5586 77.002 0 49.7559 0C22.5586 0 0 22.5586 0 49.8047C0 77.002 22.6074 99.6094 49.8047 99.6094ZM49.8047 91.3086C26.7578 91.3086 8.34961 72.8516 8.34961 49.8047C8.34961 26.7578 26.709 8.30078 49.7559 8.30078C72.8027 8.30078 91.3086 26.7578 91.3086 49.8047C91.3086 72.8516 72.8516 91.3086 49.8047 91.3086Z" fill="#000000" fill-opacity="0.85"/>
  <path d="M23.3887 49.707C23.3887 58.8867 25.5859 65.9668 29.3457 72.4609C30.3223 74.0723 32.1777 74.5605 33.8867 73.6328C35.4492 72.8027 35.9375 70.8496 35.0586 69.0918C31.8359 63.1836 29.9805 57.666 29.9805 49.707C29.9805 36.6211 37.8906 27.9785 49.8047 27.9785C61.7676 27.9785 69.7754 36.6699 69.7754 49.707C69.7754 57.6172 67.9199 63.2324 64.5996 69.0918C63.6719 70.8008 64.209 72.7539 65.7715 73.6328C67.4316 74.5605 69.3359 74.0723 70.3125 72.4609C74.1211 65.7715 76.3672 58.7402 76.3672 49.707C76.3672 32.7637 65.6738 21.3867 49.8047 21.3867C33.9844 21.3867 23.3887 32.7148 23.3887 49.707ZM32.0312 71.3867C32.959 74.6094 35.8398 76.2207 39.0137 75.1953C42.2852 74.3164 43.8477 71.4844 42.8711 68.2617L39.3555 56.2012C38.3789 52.9297 35.5957 51.3672 32.373 52.3438C29.1504 53.2227 27.5391 56.0547 28.5156 59.2285ZM67.5781 71.3867L71.0938 59.2285C72.0703 56.0059 70.5078 53.2227 67.2363 52.3438C64.0625 51.3672 61.2793 52.9297 60.3027 56.2012L56.7383 68.3105C55.8105 71.582 57.3242 74.3164 60.5957 75.1953C63.8184 76.1719 66.6504 74.6094 67.5781 71.3867Z" fill="#000000" fill-opacity="0.85"/>
 </g>
</svg>
