<?xml version="1.0" encoding="UTF-8"?>
<!--Generator: Apple Native CoreSVG 232.5-->
<!DOCTYPE svg
PUBLIC "-//W3C//DTD SVG 1.1//EN"
       "http://www.w3.org/Graphics/SVG/1.1/DTD/svg11.dtd">
<svg version="1.1" xmlns="http://www.w3.org/2000/svg" xmlns:xlink="http://www.w3.org/1999/xlink" width="99.6094" height="99.6582">
 <g>
  <rect height="99.6582" opacity="0" width="99.6094" x="0" y="0"/>
  <path d="M99.6094 49.8047C99.6094 77.002 77.0508 99.6094 49.8047 99.6094C22.6074 99.6094 0 77.002 0 49.8047C0 22.5586 22.5586 0 49.7559 0C77.002 0 99.6094 22.5586 99.6094 49.8047ZM8.34961 49.8047C8.34961 72.8516 26.7578 91.3086 49.8047 91.3086C72.8516 91.3086 91.3086 72.8516 91.3086 49.8047C91.3086 26.7578 72.8027 8.30078 49.7559 8.30078C26.709 8.30078 8.34961 26.7578 8.34961 49.8047Z" fill="#000000" fill-opacity="0.85"/>
  <path d="M60.2501 68.2674C57.5328 70.5284 54.7692 72.5168 52.2461 74.1699C51.5137 74.707 50.5371 75.3418 49.9023 75.3418C49.2676 75.3418 48.2422 74.6582 47.3633 74.1699C37.3535 67.8223 23.8281 56.0059 23.8281 43.1641C23.8281 39.797 24.7323 36.7931 26.3364 34.3887ZM75.7812 43.1641C75.7812 49.3094 72.6615 55.1865 68.3072 60.3482L36.3351 28.3761C36.903 28.3039 37.4884 28.2715 38.0859 28.2715C43.3105 28.2715 47.3633 31.25 49.8047 35.6934C52.2461 31.25 56.3477 28.2715 61.5234 28.2715C69.8242 28.2715 75.7812 34.5215 75.7812 43.1641Z" fill="#000000" fill-opacity="0.85"/>
  <path d="M71.8262 75C72.6562 75.8301 74.1211 75.8301 74.9512 75C75.8301 74.0723 75.8301 72.7539 74.9512 71.875L27.7344 24.6094C26.8555 23.7305 25.4395 23.7305 24.5605 24.6094C23.6816 25.4395 23.7305 26.9043 24.5605 27.7344Z" fill="#000000" fill-opacity="0.85"/>
 </g>
</svg>
