<?xml version="1.0" encoding="UTF-8"?>
<!--Generator: Apple Native CoreSVG 232.5-->
<!DOCTYPE svg
PUBLIC "-//W3C//DTD SVG 1.1//EN"
       "http://www.w3.org/Graphics/SVG/1.1/DTD/svg11.dtd">
<svg version="1.1" xmlns="http://www.w3.org/2000/svg" xmlns:xlink="http://www.w3.org/1999/xlink" width="89.8926" height="89.9902">
 <g>
  <rect height="89.9902" opacity="0" width="89.8926" x="0" y="0"/>
  <path d="M89.8926 15.2344L89.8926 74.8535C89.8926 84.9121 84.8145 89.9902 74.5605 89.9902L15.332 89.9902C5.12695 89.9902 0 84.9609 0 74.8535L0 15.2344C0 5.12695 5.12695 0.0976562 15.332 0.0976562L74.5605 0.0976562C84.8145 0.0976562 89.8926 5.17578 89.8926 15.2344ZM44.9707 30.3711C42.4316 25.7812 38.2812 22.7051 32.8613 22.7051C24.3164 22.7051 18.1641 29.1504 18.1641 38.0859C18.1641 51.2695 32.1289 63.4766 42.4316 70.0195C43.3105 70.5566 44.4336 71.2402 45.0684 71.2402C45.752 71.2402 46.6797 70.6055 47.4609 70.0195C57.7148 63.3301 71.7773 51.2695 71.7773 38.0859C71.7773 29.1504 65.5762 22.7051 57.0801 22.7051C51.709 22.7051 47.5098 25.7812 44.9707 30.3711Z" fill="#000000" fill-opacity="0.85"/>
 </g>
</svg>
