<?xml version="1.0" encoding="UTF-8"?>
<!--Generator: Apple Native CoreSVG 232.5-->
<!DOCTYPE svg
PUBLIC "-//W3C//DTD SVG 1.1//EN"
       "http://www.w3.org/Graphics/SVG/1.1/DTD/svg11.dtd">
<svg version="1.1" xmlns="http://www.w3.org/2000/svg" xmlns:xlink="http://www.w3.org/1999/xlink" width="115.137" height="89.8926">
 <g>
  <rect height="89.8926" opacity="0" width="115.137" x="0" y="0"/>
  <path d="M15.332 89.8926L99.8047 89.8926C110.059 89.8926 115.137 84.8633 115.137 74.8047L115.137 15.1367C115.137 5.07812 110.059 0 99.8047 0L15.332 0C5.12695 0 0 5.07812 0 15.1367L0 74.8047C0 84.8633 5.12695 89.8926 15.332 89.8926ZM15.4297 82.0312C10.5469 82.0312 7.86133 79.4434 7.86133 74.3652L7.86133 15.5762C7.86133 10.498 10.5469 7.86133 15.4297 7.86133L99.707 7.86133C104.541 7.86133 107.275 10.498 107.275 15.5762L107.275 74.3652C107.275 79.4434 104.541 82.0312 99.707 82.0312Z" fill="#000000" fill-opacity="0.85"/>
  <path d="M45.9473 23.3887C37.6465 23.3887 31.6895 29.6387 31.6895 38.2812C31.6895 51.123 45.2148 62.9395 55.2246 69.2871C56.0547 69.7754 57.1289 70.459 57.7637 70.459C58.3496 70.459 59.3262 69.8242 60.0586 69.2871C70.0195 62.793 83.6426 51.123 83.6426 38.2812C83.6426 29.6387 77.6367 23.3887 69.3848 23.3887C64.209 23.3887 60.0586 26.3672 57.666 30.8105C55.2246 26.3672 51.1719 23.3887 45.9473 23.3887Z" fill="#000000" fill-opacity="0.85"/>
 </g>
</svg>
