<?xml version="1.0" encoding="UTF-8"?>
<!--Generator: Apple Native CoreSVG 232.5-->
<!DOCTYPE svg
PUBLIC "-//W3C//DTD SVG 1.1//EN"
       "http://www.w3.org/Graphics/SVG/1.1/DTD/svg11.dtd">
<svg version="1.1" xmlns="http://www.w3.org/2000/svg" xmlns:xlink="http://www.w3.org/1999/xlink" width="117.554" height="111.865">
 <g>
  <rect height="111.865" opacity="0" width="117.554" x="0" y="0"/>
  <path d="M19.681 33.0777C18.6735 35.7485 18.1274 38.7779 18.1274 42.0898C18.1274 60.2539 37.3169 79.834 57.7759 93.4082C58.2642 93.75 58.606 93.9941 58.7524 93.9941C58.9478 93.9941 59.2896 93.75 59.7778 93.4082C63.7732 90.7573 67.7201 87.8774 71.4787 84.8181L77.092 90.4252C72.5878 94.023 67.6412 97.5292 62.3169 100.928C61.2427 101.562 59.7778 102.246 58.7524 102.246C57.7759 102.246 56.2622 101.562 55.2368 100.928C27.6978 83.3496 10.2661 62.8906 10.2661 42.0898C10.2661 36.4922 11.5104 31.4272 13.7465 27.1498ZM107.288 42.0898C107.288 54.1953 101.384 66.185 90.9865 77.5539L85.2362 71.8068C93.7406 62.2837 99.4263 51.977 99.4263 42.0898C99.4263 29.1016 91.0278 20.459 79.6509 20.459C70.52 20.459 65.4419 26.2695 62.0728 31.0547C60.6567 32.959 59.9243 33.5449 58.7524 33.5449C57.6294 33.5449 56.7993 33.0078 55.481 31.0547C52.3071 26.1719 47.0825 20.459 37.854 20.459C36.5922 20.459 35.3668 20.5662 34.1922 20.7911L27.8465 14.4489C30.936 13.2336 34.3408 12.5977 37.9517 12.5977C47.0337 12.5977 54.4067 16.9434 58.7524 23.4863C63.1958 16.8945 70.52 12.5977 79.5532 12.5977C95.4224 12.5977 107.288 24.8047 107.288 42.0898Z" fill="#000000" fill-opacity="0.85"/>
  <path d="M94.8853 100.146C96.3501 101.66 98.7915 101.66 100.208 100.146C101.672 98.6816 101.672 96.3379 100.208 94.8242L12.1216 6.78711C10.6567 5.32227 8.26416 5.32227 6.75049 6.78711C5.33447 8.20312 5.33447 10.6934 6.75049 12.1094Z" fill="#000000" fill-opacity="0.85"/>
 </g>
</svg>
