<?xml version="1.0" encoding="UTF-8"?>
<!--Generator: Apple Native CoreSVG 232.5-->
<!DOCTYPE svg
PUBLIC "-//W3C//DTD SVG 1.1//EN"
       "http://www.w3.org/Graphics/SVG/1.1/DTD/svg11.dtd">
<svg version="1.1" xmlns="http://www.w3.org/2000/svg" xmlns:xlink="http://www.w3.org/1999/xlink" width="89.8926" height="89.9902">
 <g>
  <rect height="89.9902" opacity="0" width="89.8926" x="0" y="0"/>
  <path d="M15.332 89.9902L74.5605 89.9902C84.8145 89.9902 89.8926 84.9121 89.8926 74.8535L89.8926 15.2344C89.8926 5.17578 84.8145 0.0976562 74.5605 0.0976562L15.332 0.0976562C5.12695 0.0976562 0 5.12695 0 15.2344L0 74.8535C0 84.9609 5.12695 89.9902 15.332 89.9902ZM15.4297 82.1289C10.5469 82.1289 7.86133 79.541 7.86133 74.4629L7.86133 15.625C7.86133 10.5469 10.5469 7.95898 15.4297 7.95898L74.4629 7.95898C79.2969 7.95898 82.0312 10.5469 82.0312 15.625L82.0312 74.4629C82.0312 79.541 79.2969 82.1289 74.4629 82.1289Z" fill="#000000" fill-opacity="0.85"/>
  <path d="M24.5605 16.1621C20.5566 16.1621 17.5781 19.2871 17.5781 23.584C17.5781 29.9316 24.4141 35.498 29.248 38.8672C29.7363 39.209 30.2246 39.4531 30.5176 39.4531C30.8594 39.4531 31.25 39.1602 31.6895 38.8672C36.6211 35.8398 43.3105 29.9316 43.3105 23.584C43.3105 19.2871 40.332 16.1621 36.2305 16.1621C33.7402 16.1621 31.6406 17.6758 30.4688 19.9219C29.248 17.6758 27.2461 16.1621 24.5605 16.1621ZM20.6543 54.7363L68.75 54.7363C70.459 54.7363 71.7773 53.418 71.7773 51.709C71.7773 50.0488 70.459 48.7305 68.75 48.7305L20.6543 48.7305C18.8965 48.7305 17.5781 50.0488 17.5781 51.709C17.5781 53.418 18.8965 54.7363 20.6543 54.7363ZM20.6543 71.4355L55.9082 71.4355C57.6172 71.4355 58.9355 70.1172 58.9355 68.457C58.9355 66.748 57.6172 65.4297 55.9082 65.4297L20.6543 65.4297C18.8965 65.4297 17.5781 66.748 17.5781 68.457C17.5781 70.1172 18.8965 71.4355 20.6543 71.4355Z" fill="#000000" fill-opacity="0.85"/>
 </g>
</svg>
