<?xml version="1.0" encoding="UTF-8"?>
<!--Generator: Apple Native CoreSVG 232.5-->
<!DOCTYPE svg
PUBLIC "-//W3C//DTD SVG 1.1//EN"
       "http://www.w3.org/Graphics/SVG/1.1/DTD/svg11.dtd">
<svg version="1.1" xmlns="http://www.w3.org/2000/svg" xmlns:xlink="http://www.w3.org/1999/xlink" width="78.7109" height="113.525">
 <g>
  <rect height="113.525" opacity="0" width="78.7109" x="0" y="0"/>
  <path d="M3.71094 82.0312C3.71094 95.5078 12.1094 104.102 25.2441 104.102C35.0586 104.102 42.3828 99.8047 47.0215 91.5039L51.416 83.6426C61.7188 64.7949 78.7109 62.3535 78.7109 38.1348C78.7109 15.2832 63.916 0 41.748 0C19.043 0 3.71094 15.3809 3.71094 38.3301ZM11.084 81.543L11.084 38.3301C11.084 19.7266 23.3398 7.37305 41.748 7.37305C59.5215 7.37305 71.3379 19.7266 71.3379 38.1348C71.3379 58.3984 55.4688 61.9141 44.8242 80.3223L40.5762 87.5977C37.1094 93.6523 32.2754 96.5332 25.5859 96.5332C16.5527 96.5332 11.084 90.8691 11.084 81.543Z" fill="#000000" fill-opacity="0.85"/>
  <path d="M18.75 67.8223C18.75 72.9004 22.5586 76.2695 28.2715 76.2695C35.6445 76.2207 40.6738 69.9707 40.6738 62.1094C40.6738 48.0469 26.123 45.7031 26.123 35.791C26.123 28.125 32.373 22.4609 41.6992 22.4609C51.1719 22.4609 57.2754 28.6133 57.2754 38.0371C57.2754 40.0391 58.9355 41.748 60.9375 41.748C62.9395 41.748 64.6484 40.0391 64.6484 38.0371C64.6484 24.3164 55.4688 15.0879 41.6992 15.0879C27.9785 15.0879 18.75 23.7305 18.75 35.791C18.75 46.3867 28.7598 49.8535 28.7598 54.5898C28.7598 59.8633 18.75 58.6914 18.75 67.8223Z" fill="#000000" fill-opacity="0.85"/>
 </g>
</svg>
