<?xml version="1.0" encoding="UTF-8"?>
<!--Generator: Apple Native CoreSVG 232.5-->
<!DOCTYPE svg
PUBLIC "-//W3C//DTD SVG 1.1//EN"
       "http://www.w3.org/Graphics/SVG/1.1/DTD/svg11.dtd">
<svg version="1.1" xmlns="http://www.w3.org/2000/svg" xmlns:xlink="http://www.w3.org/1999/xlink" width="75" height="113.525">
 <g>
  <rect height="113.525" opacity="0" width="75" x="0" y="0"/>
  <path d="M75 38.1348C75 62.3535 57.959 64.7949 47.6562 83.6426L43.2617 91.5039C38.6719 99.8047 31.3477 104.102 21.5332 104.102C8.39844 104.102 0 95.5078 0 82.0312L0 38.3301C0 15.3809 15.2832 0 38.0371 0C60.2051 0 75 15.2832 75 38.1348ZM14.2578 35.498C14.2578 46.3867 24.6582 49.9512 24.6582 54.834C24.6582 60.2539 14.2578 59.082 14.2578 68.5059C14.2578 73.7305 18.2617 77.2461 24.1699 77.2461C31.7871 77.1973 36.9141 70.7031 36.9141 62.5977C36.9141 48.0469 21.9238 45.7031 21.9238 35.498C21.9238 27.5879 28.3203 21.7773 37.9395 21.7773C47.7051 21.7773 54.0039 28.125 54.0039 37.793C54.0039 39.8926 55.7617 41.6504 57.8125 41.6504C59.9121 41.6504 61.6699 39.8926 61.6699 37.793C61.6699 23.6328 52.1484 14.1113 37.9395 14.1113C23.7793 14.1113 14.2578 23.0469 14.2578 35.498Z" fill="#000000" fill-opacity="0.85"/>
 </g>
</svg>
