<?xml version="1.0" encoding="UTF-8"?>
<!--Generator: Apple Native CoreSVG 232.5-->
<!DOCTYPE svg
PUBLIC "-//W3C//DTD SVG 1.1//EN"
       "http://www.w3.org/Graphics/SVG/1.1/DTD/svg11.dtd">
<svg version="1.1" xmlns="http://www.w3.org/2000/svg" xmlns:xlink="http://www.w3.org/1999/xlink" width="127.715" height="117.334">
 <g>
  <rect height="117.334" opacity="0" width="127.715" x="0" y="0"/>
  <path d="M23.5253 117.334L53.7988 117.334C60.5371 117.334 64.8828 113.037 64.8828 106.445L64.8828 10.8887C64.8828 4.29688 60.5371 0 53.7988 0L23.5253 0C16.7871 0 12.4414 4.29688 12.4414 10.8887L12.4414 106.445C12.4414 113.037 16.7871 117.334 23.5253 117.334ZM23.6718 109.473C21.5722 109.473 20.3027 108.154 20.3027 106.006L20.3027 11.3281C20.3027 9.17969 21.5722 7.86133 23.6718 7.86133L53.6523 7.86133C55.7519 7.86133 57.0214 9.17969 57.0214 11.3281L57.0214 106.006C57.0214 108.154 55.7519 109.473 53.6523 109.473ZM49.6484 38.7207C51.0156 38.7207 52.0898 37.5977 52.0898 36.2305L52.0898 16.9434C52.0898 15.5762 51.0156 14.4531 49.6484 14.4531C48.2324 14.4531 47.1582 15.5762 47.1582 16.9434L47.1582 36.2305C47.1582 37.5977 48.2324 38.7207 49.6484 38.7207ZM39.5898 38.7207C40.9082 38.7207 42.0312 37.5977 42.0312 36.2305L42.0312 16.9434C42.0312 15.5762 40.9082 14.4531 39.5898 14.4531C38.1738 14.4531 37.0507 15.5762 37.0507 16.9434L37.0507 36.2305C37.0507 37.5977 38.1738 38.7207 39.5898 38.7207ZM49.6484 70.6055C51.0156 70.6055 52.0898 69.5312 52.0898 68.1152L52.0898 48.8281C52.0898 47.4609 51.0156 46.3867 49.6484 46.3867C48.2324 46.3867 47.1582 47.4609 47.1582 48.8281L47.1582 68.1152C47.1582 69.5312 48.2324 70.6055 49.6484 70.6055ZM39.5898 70.6055C40.9082 70.6055 42.0312 69.5312 42.0312 68.1152L42.0312 48.8281C42.0312 47.4609 40.9082 46.3867 39.5898 46.3867C38.1738 46.3867 37.0507 47.4609 37.0507 48.8281L37.0507 68.1152C37.0507 69.5312 38.1738 70.6055 39.5898 70.6055ZM49.6484 102.588C51.0156 102.588 52.0898 101.465 52.0898 100.146L52.0898 80.8594C52.0898 79.4434 51.0156 78.3691 49.6484 78.3691C48.2324 78.3691 47.1582 79.4434 47.1582 80.8594L47.1582 100.146C47.1582 101.465 48.2324 102.588 49.6484 102.588ZM39.5898 102.588C40.9082 102.588 42.0312 101.465 42.0312 100.146L42.0312 80.8594C42.0312 79.4434 40.9082 78.3691 39.5898 78.3691C38.1738 78.3691 37.0507 79.4434 37.0507 80.8594L37.0507 100.146C37.0507 101.465 38.1738 102.588 39.5898 102.588Z" fill="#000000" fill-opacity="0.85"/>
  <path d="M84.1699 52.7832C97.207 52.7832 103.945 42.1875 115.322 42.1875C117.959 42.1875 120.205 42.7246 122.988 44.2871C124.746 45.2637 126.309 44.5801 127.09 43.457C128.066 42.041 127.969 39.8926 125.82 38.6719C122.598 36.7676 119.082 35.8398 115.322 35.8398C102.09 35.8398 95.3515 46.4844 84.1699 46.4844C81.5332 46.4844 79.2871 45.8984 76.455 44.2871C74.7949 43.3594 73.1835 43.9941 72.3535 45.2637C71.4746 46.6309 71.5722 48.7793 73.623 49.9512C76.8457 51.9531 80.4101 52.7832 84.1699 52.7832ZM84.2187 67.1387C97.207 67.1387 103.994 56.543 115.322 56.543C118.008 56.543 120.254 57.0801 123.037 58.6426C124.746 59.6191 126.357 58.9355 127.139 57.8125C128.066 56.3965 128.018 54.248 125.918 53.0273C122.646 51.123 119.082 50.1953 115.322 50.1953C102.139 50.1953 95.4003 60.8398 84.2187 60.8398C81.5332 60.8398 79.2871 60.2539 76.5039 58.6914C74.8437 57.7148 73.1835 58.3496 72.3535 59.6191C71.4746 60.9863 71.5722 63.1348 73.6718 64.3066C76.8945 66.3086 80.4589 67.1387 84.2187 67.1387ZM84.1699 81.4941C97.207 81.4941 103.945 70.8984 115.322 70.8984C117.959 70.8984 120.205 71.4355 122.988 73.0469C124.746 74.0234 126.309 73.291 127.09 72.168C128.066 70.752 127.969 68.6035 125.82 67.3828C122.598 65.4785 119.082 64.5508 115.322 64.5508C102.09 64.5508 95.3515 75.1953 84.1699 75.1953C81.5332 75.1953 79.2871 74.6094 76.455 73.0469C74.7949 72.0703 73.1835 72.7051 72.3535 73.9746C71.4746 75.3418 71.5722 77.5391 73.623 78.7109C76.8457 80.6641 80.4101 81.4941 84.1699 81.4941Z" fill="#000000" fill-opacity="0.85"/>
 </g>
</svg>
