<?xml version="1.0" encoding="UTF-8"?>
<!--Generator: Apple Native CoreSVG 232.5-->
<!DOCTYPE svg
PUBLIC "-//W3C//DTD SVG 1.1//EN"
       "http://www.w3.org/Graphics/SVG/1.1/DTD/svg11.dtd">
<svg version="1.1" xmlns="http://www.w3.org/2000/svg" xmlns:xlink="http://www.w3.org/1999/xlink" width="131.738" height="126.709">
 <g>
  <rect height="126.709" opacity="0" width="131.738" x="0" y="0"/>
  <path d="M73.6666 13.931C63.6618 15.3411 56.0165 18.7041 50.2307 24.1886C49.0041 19.8911 45.0192 16.748 40.332 16.748C34.668 16.748 30.0781 21.3379 30.0781 27.002C30.0781 32.6172 34.668 37.2559 40.332 37.2559C40.8976 37.2559 41.453 37.2096 41.9906 37.1087C41.2784 39.1578 40.7424 41.4031 40.3919 43.8507C40.3724 43.8477 40.3522 43.8477 40.332 43.8477C30.0781 43.8477 21.7285 52.1973 21.7285 62.5C21.7285 72.6371 29.8119 80.8362 39.8438 81.0789L39.8438 88.7207C39.8438 89.6974 39.866 90.6544 39.9547 91.5527L17.9199 91.5527C10.5469 91.5527 6.68945 87.6465 6.68945 80.2246L6.68945 17.4805C6.68945 10.0586 10.5469 6.15234 17.9199 6.15234L62.793 6.15234C68.8817 6.15234 72.5729 8.81622 73.6666 13.931ZM39.8438 70.239C35.7281 69.9956 32.5195 66.5831 32.5195 62.4023C32.5195 58.2216 35.7281 54.8091 39.8438 54.5656ZM45.5566 27.002C45.5566 29.834 43.2129 32.2266 40.332 32.2266C37.4512 32.2266 35.1562 29.834 35.1562 27.002C35.1562 24.1211 37.4512 21.8262 40.332 21.8262C43.2129 21.8262 45.5566 24.1211 45.5566 27.002Z" fill="#000000" fill-opacity="0.85"/>
  <path d="M40.3919 43.8507C40.0287 46.2255 39.8438 48.7948 39.8438 51.5625L39.8438 54.5656C35.7281 54.8091 32.5195 58.2216 32.5195 62.4023C32.5195 66.5831 35.7281 69.9956 39.8438 70.239L39.8438 81.0789C29.8119 80.8362 21.7285 72.6371 21.7285 62.5C21.7285 52.1973 30.0781 43.8477 40.332 43.8477C40.3522 43.8477 40.3724 43.8477 40.3919 43.8507ZM50.2307 24.1886C49.0702 25.2837 47.9862 26.4659 46.9727 27.7344C44.8861 30.3713 43.1871 33.4604 41.9906 37.1087C41.453 37.2096 40.8976 37.2559 40.332 37.2559C34.668 37.2559 30.0781 32.6172 30.0781 27.002C30.0781 21.3379 34.668 16.748 40.332 16.748C45.0192 16.748 49.0041 19.8911 50.2307 24.1886ZM35.1562 27.002C35.1562 29.834 37.4512 32.2266 40.332 32.2266C43.2129 32.2266 45.5566 29.834 45.5566 27.002C45.5566 24.1211 43.2129 21.8262 40.332 21.8262C37.4512 21.8262 35.1562 24.1211 35.1562 27.002Z" fill="#000000" fill-opacity="0.2125"/>
  <path d="M85.791 120.068C112.695 120.068 125.049 110.498 125.049 88.7207L125.049 51.5625C125.049 42.3828 122.852 36.1816 119.385 31.7871C118.213 30.3223 116.357 30.2246 114.893 31.3965C110.254 35.498 97.998 39.0137 85.791 39.0137C73.584 39.0137 61.3281 35.498 56.6895 31.3965C55.2246 30.2246 53.3203 30.3223 52.1484 31.7871C48.7305 36.1816 46.4844 42.3828 46.4844 51.5625L46.4844 88.7207C46.4844 110.498 58.8867 120.068 85.791 120.068Z" fill="#000000" fill-opacity="0.425"/>
  <path d="M85.791 32.3242C98.291 32.3242 108.35 29.5898 108.35 26.0742C108.35 22.4609 98.291 19.7754 85.791 19.7754C73.2422 19.7754 63.1836 22.4609 63.1836 26.0742C63.1836 29.5898 73.2422 32.3242 85.791 32.3242Z" fill="#000000" fill-opacity="0.85"/>
 </g>
</svg>
