<?xml version="1.0" encoding="UTF-8"?>
<!--Generator: Apple Native CoreSVG 232.5-->
<!DOCTYPE svg
PUBLIC "-//W3C//DTD SVG 1.1//EN"
       "http://www.w3.org/Graphics/SVG/1.1/DTD/svg11.dtd">
<svg version="1.1" xmlns="http://www.w3.org/2000/svg" xmlns:xlink="http://www.w3.org/1999/xlink" width="131.836" height="126.904">
 <g>
  <rect height="126.904" opacity="0" width="131.836" x="0" y="0"/>
  <path d="M73.6328 18.4082L73.6328 33.3008L66.0645 33.3008C57.7148 33.3008 50.293 34.4238 44.6289 40.0879C42.6599 42.0569 41.2514 44.2325 40.2616 46.5859C40.2369 46.5821 40.2112 46.582 40.1855 46.582C30.0293 46.582 21.8262 54.7852 21.8262 64.9414C21.8262 74.2903 28.8443 82.0101 37.9395 83.1016L37.9395 95.459L18.6523 95.459C10.7422 95.459 6.64062 91.3086 6.64062 83.3496L6.64062 18.4082C6.64062 10.498 10.7422 6.34766 18.6523 6.34766L61.6211 6.34766C69.5312 6.34766 73.6328 10.498 73.6328 18.4082ZM37.9395 61.4258L37.9395 72.4017C34.7045 71.4883 32.373 68.539 32.373 64.9902C32.373 61.4474 34.7504 58.448 38.0356 57.5578C37.9652 58.8197 37.9395 60.1111 37.9395 61.4258ZM30.3711 28.6133C30.3711 34.0332 34.7656 38.3789 40.1367 38.3789C45.5078 38.3789 49.9023 34.0332 49.9023 28.6133C49.9023 23.2422 45.5566 18.8477 40.1367 18.8477C34.7656 18.8477 30.3711 23.2422 30.3711 28.6133ZM45.0195 28.5645C45.0195 31.2988 42.9199 33.4473 40.1367 33.4473C37.4023 33.4473 35.2539 31.2988 35.2539 28.5645C35.2539 25.7324 37.4023 23.6328 40.1367 23.6328C42.8711 23.6328 45.0195 25.8301 45.0195 28.5645Z" fill="#000000" fill-opacity="0.85"/>
  <path d="M66.1621 120.264L103.711 120.264C110.547 120.264 116.406 119.629 120.508 115.527C124.609 111.328 125.195 105.615 125.195 98.7305L125.195 61.5234C125.195 54.6387 124.609 48.877 120.508 44.7754C116.357 40.6738 110.547 39.9902 103.711 39.9902L66.0645 39.9902C59.2773 39.9902 53.4668 40.6738 49.3652 44.7754C45.2637 48.9258 44.6289 54.6387 44.6289 61.4258L44.6289 98.7305C44.6289 105.615 45.2637 111.377 49.3652 115.527C53.4668 119.629 59.2773 120.264 66.1621 120.264ZM66.2598 71.0449C66.1621 67.9688 68.7012 64.9414 72.0215 64.7461C72.2656 67.7734 69.6777 71.4355 66.2598 71.0449ZM77.7344 85.4492C77.1484 87.5977 75.7324 90.0879 73.877 91.9434C73.3398 92.4316 72.5098 92.8223 71.4844 92.8223C70.5566 92.8223 69.9707 92.4805 69.0918 92.1875C68.6035 92.041 67.8711 91.6504 66.9434 91.6504C64.8926 91.6504 63.9648 92.8711 62.3047 92.8711C61.1328 92.8711 60.2051 92.1875 58.9355 90.7715C56.543 88.1348 54.9316 83.9355 54.9316 80.2734C54.9316 78.0273 55.5176 75.9766 56.9336 74.2188C58.1055 72.7051 59.9121 71.8262 62.1094 71.8262C64.1113 71.8262 65.332 73.0469 66.4062 73.0469C67.6758 73.0469 69.1406 71.7773 71.7285 71.7773C73.9746 71.7773 75.8789 72.6562 77.0996 74.4629C75.4395 75.3906 74.8535 76.5625 74.5117 77.5391C73.9746 78.9062 73.877 80.5664 74.5117 82.2266C75.1465 83.7402 76.123 84.7656 77.7344 85.4492ZM89.1113 66.7969L89.1113 71.7773L93.1152 71.7773L93.1152 75.0488L89.1113 75.0488L89.1113 86.6211C89.1113 88.5254 89.9414 89.3066 91.6504 89.3066C92.041 89.3066 92.8223 89.3066 93.0664 89.1602L93.0664 92.6758C92.6758 92.7246 91.6504 92.8223 90.7227 92.8223C86.4258 92.8223 84.7656 91.3086 84.7656 87.1582L84.7656 75.0488L81.8848 75.0488L81.8848 71.7773L84.7656 71.7773L84.7656 66.7969ZM107.275 92.6758L102.734 92.6758L95.0684 71.7773L99.6094 71.7773L105.029 88.5254L110.107 71.7773L114.795 71.7773Z" fill="#000000" fill-opacity="0.85"/>
 </g>
</svg>
