<?xml version="1.0" encoding="UTF-8"?>
<!--Generator: Apple Native CoreSVG 232.5-->
<!DOCTYPE svg
PUBLIC "-//W3C//DTD SVG 1.1//EN"
       "http://www.w3.org/Graphics/SVG/1.1/DTD/svg11.dtd">
<svg version="1.1" xmlns="http://www.w3.org/2000/svg" xmlns:xlink="http://www.w3.org/1999/xlink" width="125.049" height="126.123">
 <g>
  <rect height="126.123" opacity="0" width="125.049" x="0" y="0"/>
  <path d="M69.8714 16.1133L61.6692 16.1133C60.6631 14.7434 58.9762 14.0137 56.6406 14.0137L20.2148 14.0137C16.2109 14.0137 14.0625 16.2109 14.0625 20.1172L14.0625 74.8535C14.0625 78.7598 16.2109 80.8594 20.2148 80.8594L40.0391 80.8594L40.0391 88.2812L19.8242 88.2812C11.1328 88.2812 6.64062 83.7891 6.64062 75L6.64062 19.9219C6.64062 11.1328 11.1816 6.5918 19.8242 6.5918L57.0312 6.5918C64.3594 6.5918 68.7023 9.81997 69.8714 16.1133ZM40.0391 41.7309L40.0391 52.0387C39.5253 51.9166 38.9853 51.8555 38.4277 51.8555C34.4727 51.8555 31.3965 54.9316 31.3965 58.8379C31.3965 62.6465 34.4238 65.7227 38.4277 65.7227C38.9866 65.7227 39.5265 65.6627 40.0391 65.5435L40.0391 75.7993C39.5107 75.8545 38.9725 75.8789 38.4277 75.8789C28.8574 75.8789 21.2402 68.2617 21.2402 58.7402C21.2402 49.3164 28.9062 41.6504 38.4277 41.6504C38.9722 41.6504 39.5104 41.6752 40.0391 41.7309ZM45.1222 21.616C43.9578 22.8167 42.9887 24.2123 42.2255 25.7894C41.3863 24.6046 40.0129 23.8281 38.4277 23.8281C35.791 23.8281 33.7402 25.9766 33.7402 28.5645C33.7402 31.1523 35.791 33.2031 38.4277 33.2031C39.0783 33.2031 39.6933 33.0783 40.25 32.8503C40.103 33.921 40.0391 35.0536 40.0391 36.2305L40.0391 38.0391C39.5186 38.1378 38.9791 38.1836 38.4277 38.1836C33.1055 38.1836 28.8086 33.8379 28.8086 28.5645C28.8086 23.2422 33.1055 18.8965 38.4277 18.8965C41.0495 18.8965 43.4037 19.9319 45.1222 21.616Z" fill="#000000" fill-opacity="0.85"/>
  <path d="M46.7285 36.2305L46.7285 106.055C46.7285 114.893 51.123 119.434 59.9121 119.434L105.127 119.434C113.965 119.434 118.408 114.893 118.408 106.055L118.408 36.2305C118.408 27.3438 113.965 22.8027 105.127 22.8027L59.9121 22.8027C51.0742 22.8027 46.7285 27.3438 46.7285 36.2305ZM54.541 36.2793C54.541 32.5684 56.4453 30.6641 60.2051 30.6641L104.834 30.6641C108.643 30.6641 110.547 32.5684 110.547 36.2793L110.547 105.957C110.547 109.668 108.594 111.572 104.834 111.572L60.2051 111.572C56.4453 111.572 54.541 109.668 54.541 105.957ZM82.5195 59.1797C88.4766 59.1797 93.3105 54.3945 93.3105 48.4375C93.3105 42.5293 88.5254 37.8418 82.5195 37.8418C76.6113 37.8418 71.8262 42.4805 71.8262 48.4375C71.8262 54.4434 76.6113 59.1797 82.5195 59.1797ZM82.5195 53.7109C79.6387 53.7109 77.3438 51.3672 77.3438 48.4375C77.3438 45.5078 79.5898 43.2129 82.5195 43.2129C85.4004 43.2129 87.7441 45.6055 87.7441 48.4375C87.7441 51.3672 85.4492 53.7109 82.5195 53.7109ZM82.5195 104.492C93.1641 104.492 101.709 95.9961 101.709 85.3027C101.709 74.6582 93.1641 66.1621 82.5195 66.1621C71.9238 66.1621 63.3789 74.707 63.3789 85.3027C63.3789 95.9473 71.9238 104.492 82.5195 104.492ZM82.5195 93.1641C78.1738 93.1641 74.6582 89.7461 74.6582 85.3027C74.6582 80.8105 78.125 77.3438 82.5195 77.3438C87.0117 77.3438 90.4297 80.8105 90.4297 85.3027C90.4297 89.7461 87.0117 93.1641 82.5195 93.1641Z" fill="#000000" fill-opacity="0.85"/>
 </g>
</svg>
