<?xml version="1.0" encoding="UTF-8"?>
<!--Generator: Apple Native CoreSVG 232.5-->
<!DOCTYPE svg
PUBLIC "-//W3C//DTD SVG 1.1//EN"
       "http://www.w3.org/Graphics/SVG/1.1/DTD/svg11.dtd">
<svg version="1.1" xmlns="http://www.w3.org/2000/svg" xmlns:xlink="http://www.w3.org/1999/xlink" width="74.8535" height="101.123">
 <g>
  <rect height="101.123" opacity="0" width="74.8535" x="0" y="0"/>
  <path d="M0 13.8672L0 87.207C0 96.4355 4.58984 101.074 13.7207 101.074L61.1816 101.074C70.3125 101.074 74.8535 96.4355 74.8535 87.207L74.8535 13.8672C74.8535 4.63867 70.3125 0 61.1816 0L13.7207 0C4.58984 0 0 4.63867 0 13.8672ZM37.4512 86.9141C26.0742 86.9141 16.8945 77.832 16.8945 66.4062C16.8945 54.9316 26.0742 45.8008 37.4512 45.8496C48.8281 45.8984 58.0078 54.9316 58.0078 66.4062C58.0078 77.832 48.8281 86.9141 37.4512 86.9141ZM37.4512 36.9629C31.1035 36.9629 26.0254 31.8848 26.0254 25.5371C26.0254 19.1406 31.1035 14.1113 37.4512 14.1602C43.75 14.209 48.8281 19.1895 48.877 25.5371C48.9746 31.8848 43.75 36.9629 37.4512 36.9629ZM37.4512 75.0977C42.334 75.0977 46.1426 71.1914 46.1426 66.4062C46.1426 61.4258 42.334 57.6172 37.4512 57.6172C32.5195 57.6172 28.7598 61.4258 28.7598 66.4062C28.7598 71.1914 32.666 75.0977 37.4512 75.0977ZM37.4512 31.3477C40.6738 31.3477 43.2617 28.7109 43.2617 25.5371C43.2617 22.3145 40.625 19.7266 37.4512 19.7266C34.1797 19.7266 31.6406 22.168 31.6406 25.5371C31.6406 28.7109 34.1797 31.3477 37.4512 31.3477Z" fill="#000000" fill-opacity="0.85"/>
  <path d="M37.4512 86.9141C26.0742 86.9141 16.8945 77.832 16.8945 66.4062C16.8945 54.9316 26.0742 45.8008 37.4512 45.8496C48.8281 45.8984 58.0078 54.9316 58.0078 66.4062C58.0078 77.832 48.8281 86.9141 37.4512 86.9141ZM37.4512 36.9629C31.1035 36.9629 26.0254 31.8848 26.0254 25.5371C26.0254 19.1406 31.1035 14.1113 37.4512 14.1602C43.75 14.209 48.8281 19.1895 48.877 25.5371C48.9746 31.8848 43.75 36.9629 37.4512 36.9629ZM37.4512 75.0977C42.334 75.0977 46.1426 71.1914 46.1426 66.4062C46.1426 61.4258 42.334 57.6172 37.4512 57.6172C32.5195 57.6172 28.7598 61.4258 28.7598 66.4062C28.7598 71.1914 32.666 75.0977 37.4512 75.0977ZM37.4512 31.3477C40.6738 31.3477 43.2617 28.7109 43.2617 25.5371C43.2617 22.3145 40.625 19.7266 37.4512 19.7266C34.1797 19.7266 31.6406 22.168 31.6406 25.5371C31.6406 28.7109 34.1797 31.3477 37.4512 31.3477Z" fill="#000000" fill-opacity="0.2125"/>
 </g>
</svg>
