<?xml version="1.0" encoding="UTF-8"?>
<!--Generator: Apple Native CoreSVG 232.5-->
<!DOCTYPE svg
PUBLIC "-//W3C//DTD SVG 1.1//EN"
       "http://www.w3.org/Graphics/SVG/1.1/DTD/svg11.dtd">
<svg version="1.1" xmlns="http://www.w3.org/2000/svg" xmlns:xlink="http://www.w3.org/1999/xlink" width="145.654" height="65.0879">
 <g>
  <rect height="65.0879" opacity="0" width="145.654" x="0" y="0"/>
  <path d="M15.0879 56.8848L130.518 56.8848C140.527 56.8848 145.654 51.8066 145.654 41.9922L145.654 14.8926C145.654 5.07812 140.527 0 130.518 0L15.0879 0C5.17578 0 0 5.07812 0 14.8926L0 41.9922C0 51.8066 5.17578 56.8848 15.0879 56.8848ZM15.0879 49.0234C10.6445 49.0234 7.86133 46.2891 7.86133 41.9922L7.86133 14.8926C7.86133 10.5957 10.6445 7.86133 15.0879 7.86133L130.518 7.86133C134.961 7.86133 137.793 10.5957 137.793 14.8926L137.793 41.9922C137.793 46.2891 134.961 49.0234 130.518 49.0234ZM29.0527 38.9648C34.9121 38.9648 39.6484 34.2285 39.6484 28.3691C39.6484 22.4609 34.9121 17.7246 29.0527 17.7246C23.1445 17.7246 18.4082 22.4609 18.4082 28.3691C18.4082 34.2285 23.1445 38.9648 29.0527 38.9648ZM53.2227 39.0137L92.3828 39.0137C94.8242 39.0137 96.3867 37.4512 96.3867 35.0586L96.3867 21.875C96.3867 19.4824 94.8242 17.8711 92.3828 17.8711L53.2227 17.8711C50.8301 17.8711 49.2188 19.4824 49.2188 21.875L49.2188 35.0586C49.2188 37.4512 50.8301 39.0137 53.2227 39.0137ZM116.602 38.9648C122.461 38.9648 127.197 34.2285 127.197 28.3691C127.197 22.4609 122.461 17.7246 116.602 17.7246C110.742 17.7246 106.006 22.4609 106.006 28.3691C106.006 34.2285 110.742 38.9648 116.602 38.9648ZM36.1816 53.8574L10.8398 53.8574L10.8398 61.0352C10.8398 63.4277 12.4512 65.0391 14.8438 65.0391L32.1777 65.0391C34.6191 65.0391 36.1816 63.4277 36.1816 61.0352ZM109.473 53.8574L109.473 61.0352C109.473 63.4277 111.035 65.0391 113.477 65.0391L130.762 65.0391C133.203 65.0391 134.814 63.4277 134.814 61.0352L134.814 53.8574Z" fill="#000000" fill-opacity="0.85"/>
 </g>
</svg>
