<?xml version="1.0" encoding="UTF-8"?>
<!--Generator: Apple Native CoreSVG 232.5-->
<!DOCTYPE svg
PUBLIC "-//W3C//DTD SVG 1.1//EN"
       "http://www.w3.org/Graphics/SVG/1.1/DTD/svg11.dtd">
<svg version="1.1" xmlns="http://www.w3.org/2000/svg" xmlns:xlink="http://www.w3.org/1999/xlink" width="140.918" height="119.775">
 <g>
  <rect height="119.775" opacity="0" width="140.918" x="0" y="0"/>
  <path d="M22.3145 16.8945C28.9062 21.875 36.084 24.4629 50.3906 24.4629C51.4537 24.4629 52.4761 24.448 53.4467 24.4134C49.784 26.9938 46.6137 30.1616 43.6523 33.8867C36.084 42.8223 31.4453 55.127 31.4453 68.1152C31.4453 74.2202 32.433 80.1935 34.3246 85.8128C28.6189 84.6137 24.7829 82.4388 20.9961 78.9062C11.9629 70.6055 6.64062 58.6426 6.64062 45.9473C6.64062 35.498 10.2539 25.7812 17.1387 17.8223C18.7988 15.7715 20.5078 15.5762 22.3145 16.8945Z" fill="#000000" fill-opacity="0.425"/>
  <path d="M71.3379 12.6465C71.3379 15.8691 62.6953 18.3594 50.3906 18.3594C38.1836 18.3594 29.541 15.8691 29.541 12.6465C29.541 9.42383 38.1836 6.98242 50.3906 6.98242C62.6953 6.98242 71.3379 9.42383 71.3379 12.6465Z" fill="#000000" fill-opacity="0.85"/>
  <path d="M86.1816 113.086C103.906 113.086 111.426 110.84 118.506 104.248C128.418 95.166 134.277 82.0312 134.277 68.1152C134.277 56.8359 130.469 46.0449 122.754 37.207C120.947 34.9609 119.043 34.8145 117.09 36.1816C109.863 41.6504 101.514 44.4336 86.1816 44.4336C70.8496 44.4336 62.5 41.6504 55.2734 36.1816C53.3203 34.8145 51.4648 34.9609 49.6582 37.207C41.8945 46.0449 38.1348 56.8359 38.1348 68.1152C38.1348 82.0312 43.9453 95.166 53.9062 104.248C60.9863 110.84 68.457 113.086 86.1816 113.086Z" fill="#000000" fill-opacity="0.425"/>
  <path d="M86.1816 37.7441C99.7559 37.7441 109.277 35.0098 109.277 31.4941C109.277 27.9785 99.7559 25.293 86.1816 25.293C72.6074 25.293 63.0859 27.9785 63.0859 31.4941C63.0859 35.0098 72.6074 37.7441 86.1816 37.7441Z" fill="#000000" fill-opacity="0.85"/>
 </g>
</svg>
