<?xml version="1.0" encoding="UTF-8"?>
<!--Generator: Apple Native CoreSVG 232.5-->
<!DOCTYPE svg
PUBLIC "-//W3C//DTD SVG 1.1//EN"
       "http://www.w3.org/Graphics/SVG/1.1/DTD/svg11.dtd">
<svg version="1.1" xmlns="http://www.w3.org/2000/svg" xmlns:xlink="http://www.w3.org/1999/xlink" width="130.713" height="126.709">
 <g>
  <rect height="126.709" opacity="0" width="130.713" x="0" y="0"/>
  <path d="M15.9668 16.6992C20.166 20.459 31.2988 23.6328 42.334 23.6328C44.8624 23.6328 47.4015 23.4628 49.8607 23.151C48.3949 24.4487 47.0782 25.8836 45.8984 27.4414C45.0753 28.5056 44.3273 29.6165 43.6799 30.7953C43.2374 30.8073 42.787 30.8105 42.334 30.8105C30.957 30.8105 21.2402 28.7598 16.1621 24.8047C14.5508 27.9297 13.8672 31.543 13.8672 35.4492L13.8672 67.9688C13.8672 82.214 21.0028 89.1074 38.8632 89.8656C38.8771 92.4429 39.0813 94.8517 39.4657 97.1021C17.0715 96.4516 6.68945 87.7674 6.68945 68.7012L6.68945 35.0098C6.68945 26.709 8.74023 21.0449 11.8652 17.0898C12.9395 15.7227 14.6484 15.625 15.9668 16.6992Z" fill="#000000" fill-opacity="0.425"/>
  <path d="M62.8418 11.9141C62.8418 15.1367 53.7109 17.5781 42.334 17.5781C31.0059 17.5781 21.875 15.1367 21.875 11.9141C21.875 8.64258 31.0059 6.20117 42.334 6.20117C53.7109 6.20117 62.8418 8.64258 62.8418 11.9141Z" fill="#000000" fill-opacity="0.85"/>
  <path d="M84.7656 120.068C111.67 120.068 124.023 110.498 124.023 88.7207L124.023 51.5625C124.023 42.3828 121.826 36.1816 118.359 31.7871C117.188 30.3223 115.332 30.2246 113.867 31.3965C109.229 35.498 96.9727 39.0137 84.7656 39.0137C72.5586 39.0137 60.3027 35.498 55.6641 31.3965C54.1992 30.2246 52.2949 30.3223 51.123 31.7871C47.7051 36.1816 45.5078 42.3828 45.5078 51.5625L45.5078 88.7207C45.5078 110.498 57.8613 120.068 84.7656 120.068ZM84.7656 112.207C62.1582 112.207 53.3203 104.639 53.3203 87.9395L53.3203 52.002C53.3203 47.7051 54.0527 43.7012 55.9082 40.2344C61.7188 44.7754 72.6562 46.875 84.7656 46.875C96.875 46.875 107.812 44.7754 113.623 40.2344C115.479 43.7012 116.162 47.7051 116.162 52.002L116.162 87.9395C116.162 104.639 107.324 112.207 84.7656 112.207Z" fill="#000000" fill-opacity="0.425"/>
  <path d="M84.7656 32.3242C97.2656 32.3242 107.373 29.5898 107.373 26.0742C107.373 22.4609 97.2656 19.7754 84.7656 19.7754C72.2168 19.7754 62.1582 22.4609 62.1582 26.0742C62.1582 29.5898 72.2168 32.3242 84.7656 32.3242Z" fill="#000000" fill-opacity="0.85"/>
 </g>
</svg>
