<?xml version="1.0" encoding="UTF-8"?>
<!--Generator: Apple Native CoreSVG 232.5-->
<!DOCTYPE svg
PUBLIC "-//W3C//DTD SVG 1.1//EN"
       "http://www.w3.org/Graphics/SVG/1.1/DTD/svg11.dtd">
<svg version="1.1" xmlns="http://www.w3.org/2000/svg" xmlns:xlink="http://www.w3.org/1999/xlink" width="131.494" height="126.904">
 <g>
  <rect height="126.904" opacity="0" width="131.494" x="0" y="0"/>
  <path d="M72.7539 17.1875C75.6913 20.848 77.6668 25.9724 77.9412 33.3008L70.7121 33.3008C70.4971 30.2502 69.7935 27.4181 68.457 24.9023C63.4277 28.8086 54.0039 30.8594 42.2852 30.8594C30.6152 30.8594 21.1914 28.8086 16.1133 24.9023C14.502 28.0273 13.8184 31.6406 13.8184 35.5469L13.8184 68.0664C13.8184 81.7269 20.3523 88.8535 37.5977 89.8861L37.5977 97.1447C16.1872 96.0509 6.64062 87.0916 6.64062 68.7988L6.64062 35.1074C6.64062 26.8066 8.69141 21.1426 11.8164 17.1875C12.8906 15.8203 14.5996 15.7227 15.918 16.7969C20.1172 20.5566 31.25 23.7305 42.2852 23.7305C53.3691 23.7305 64.4531 20.5566 68.7012 16.7969C70.0195 15.7227 71.7285 15.8203 72.7539 17.1875Z" fill="#000000" fill-opacity="0.425"/>
  <path d="M62.793 12.0117C62.793 15.1855 54.0527 17.6758 42.2852 17.6758C30.5664 17.6758 21.8262 15.1855 21.8262 12.0117C21.8262 8.74023 30.5664 6.34766 42.2852 6.34766C54.0527 6.34766 62.793 8.74023 62.793 12.0117Z" fill="#000000" fill-opacity="0.85"/>
  <path d="M65.7715 120.264L103.32 120.264C110.205 120.264 116.016 119.629 120.117 115.479C124.268 111.377 124.854 105.615 124.854 98.7305L124.854 61.5234C124.854 54.6387 124.268 48.877 120.117 44.7754C116.016 40.625 110.205 39.9902 103.32 39.9902L65.6738 39.9902C58.9355 39.9902 53.125 40.6738 48.9746 44.7754C44.873 48.877 44.2871 54.6387 44.2871 61.4258L44.2871 98.7305C44.2871 105.615 44.873 111.377 48.9746 115.479C53.125 119.629 58.8867 120.264 65.7715 120.264ZM65.918 71.0449C65.7715 67.9688 68.3594 64.9414 71.6797 64.7461C71.9238 67.7734 69.2871 71.4355 65.918 71.0449ZM66.6016 91.6504C64.5508 91.6504 63.623 92.8711 61.9141 92.8711C60.7422 92.8711 59.8633 92.1875 58.5938 90.7715C56.1523 88.1348 54.5898 83.9355 54.5898 80.2734C54.5898 78.0273 55.127 75.9766 56.5918 74.2188C57.7637 72.7051 59.5703 71.8262 61.7676 71.8262C63.7695 71.8262 64.9902 73.0469 66.0645 73.0469C67.334 73.0469 68.75 71.7773 71.3867 71.7773C73.584 71.7773 75.5371 72.6562 76.709 74.4629C75.0977 75.3906 74.5117 76.5625 74.1699 77.5391C73.6328 78.9062 73.5352 80.5664 74.1699 82.2266C74.8047 83.7402 75.7812 84.7656 77.3926 85.4492C76.7578 87.5977 75.3418 90.0879 73.5352 91.9434C72.9492 92.4316 72.168 92.8223 71.1426 92.8223C70.166 92.8223 69.6289 92.4805 68.75 92.1875C68.2129 92.041 67.4805 91.6504 66.6016 91.6504ZM90.3809 92.8223C86.084 92.8223 84.4238 91.3086 84.4238 87.1582L84.4238 75.0488L81.4941 75.0488L81.4941 71.7773L84.4238 71.7773L84.4238 66.7969L88.7695 66.7969L88.7695 71.7773L92.7246 71.7773L92.7246 75.0488L88.7695 75.0488L88.7695 86.6211C88.7695 88.5254 89.5996 89.3066 91.2598 89.3066C91.6992 89.3066 92.4805 89.3066 92.7246 89.1602L92.7246 92.6758C92.334 92.7246 91.2598 92.8223 90.3809 92.8223ZM102.393 92.6758L94.7266 71.7773L99.2188 71.7773L104.639 88.5254L109.766 71.7773L114.453 71.7773L106.934 92.6758Z" fill="#000000" fill-opacity="0.85"/>
 </g>
</svg>
