<?xml version="1.0" encoding="UTF-8"?>
<!--Generator: Apple Native CoreSVG 232.5-->
<!DOCTYPE svg
PUBLIC "-//W3C//DTD SVG 1.1//EN"
       "http://www.w3.org/Graphics/SVG/1.1/DTD/svg11.dtd">
<svg version="1.1" xmlns="http://www.w3.org/2000/svg" xmlns:xlink="http://www.w3.org/1999/xlink" width="116.553" height="110.815">
 <g>
  <rect height="110.815" opacity="0" width="116.553" x="0" y="0"/>
  <path d="M14.0625 91.7603C14.0625 98.5962 18.1152 102.551 25.0977 102.551L91.5527 102.551C98.4863 102.551 102.539 98.5962 102.539 91.7603L102.539 37.2192L95.6055 36.731L95.6055 90.7349C95.6055 93.9087 93.8965 95.6665 90.8203 95.6665L25.8301 95.6665C22.7051 95.6665 20.9961 93.9087 20.9961 90.7349L20.9961 36.7798L14.0625 37.2192ZM0 48.0591C0 50.0122 1.41602 51.3306 3.56445 51.3306C4.44336 51.3306 5.12695 51.0376 5.76172 50.5493L56.5918 7.92236C57.6172 6.99463 58.9355 6.9458 60.0098 7.92236L110.84 50.5493C111.426 51.0376 112.109 51.3306 113.037 51.3306C115.137 51.3306 116.553 50.0122 116.553 48.0591C116.553 46.7896 116.064 45.9106 114.99 45.0317L64.1602 2.30713C60.5469-0.769043 56.1035-0.769043 52.4414 2.30713L1.5625 45.0317C0.488281 45.9106 0 46.7896 0 48.0591ZM90.2832 26.1841L102.539 36.5356L102.539 13.9771C102.539 11.8286 101.172 10.4614 99.0234 10.4614L93.7988 10.4614C91.6992 10.4614 90.2832 11.8286 90.2832 13.9771Z" fill="#000000" fill-opacity="0.85"/>
  <path d="M30.127 80.3833C30.127 84.2896 32.6172 86.6333 36.9141 86.6333L79.7363 86.6333C83.9844 86.6333 86.5234 84.2896 86.5234 80.3833L86.5234 42.395L61.4746 21.3989C59.5215 19.8364 57.0801 19.8364 55.1758 21.3989L30.127 42.395ZM37.0605 77.4048L37.0605 45.7642L56.7383 29.2114C57.6172 28.479 58.9844 28.4302 59.8633 29.2114L79.5898 45.7642L79.5898 77.4048C79.5898 78.9185 78.7598 79.7485 77.2461 79.7485L39.3555 79.7485C37.8906 79.7485 37.0605 78.9185 37.0605 77.4048Z" fill="#000000" fill-opacity="0.85"/>
  <path d="M46.1426 66.0767C46.1426 68.9087 47.998 70.6665 50.9766 70.6665L65.625 70.6665C68.6523 70.6665 70.459 68.9087 70.459 66.0767L70.459 50.2075L61.084 42.3462C59.375 40.9302 57.2266 40.9302 55.5664 42.3462L46.1426 50.2075ZM52.9297 62.854L52.9297 53.3813L57.1289 49.8169C57.8613 49.231 58.7891 49.231 59.4727 49.8169L63.6719 53.3813L63.6719 62.854C63.6719 63.5864 63.3301 63.9771 62.5488 63.9771L54.0527 63.9771C53.3203 63.9771 52.9297 63.5864 52.9297 62.854Z" fill="#000000" fill-opacity="0.85"/>
 </g>
</svg>
