<?xml version="1.0" encoding="UTF-8"?>
<!--Generator: Apple Native CoreSVG 232.5-->
<!DOCTYPE svg
PUBLIC "-//W3C//DTD SVG 1.1//EN"
       "http://www.w3.org/Graphics/SVG/1.1/DTD/svg11.dtd">
<svg version="1.1" xmlns="http://www.w3.org/2000/svg" xmlns:xlink="http://www.w3.org/1999/xlink" width="130.713" height="126.709">
 <g>
  <rect height="126.709" opacity="0" width="130.713" x="0" y="0"/>
  <path d="M15.9668 16.6992C20.2637 20.2637 31.25 23.6328 42.2852 23.6328C44.8513 23.6328 47.4202 23.4467 49.9029 23.1129C48.4205 24.4209 47.0896 25.8685 45.8984 27.4414C41.0645 33.6914 38.8184 41.5527 38.8184 51.5625L38.8184 88.7207C38.8184 91.6874 39.0241 94.472 39.4596 97.0543C17.0395 96.4137 6.68945 87.7324 6.68945 68.7012L6.68945 35.0098C6.68945 26.709 8.64258 20.9961 11.8164 17.0898C12.9395 15.7715 14.5996 15.625 15.9668 16.6992Z" fill="#000000" fill-opacity="0.425"/>
  <path d="M62.793 11.9141C62.793 15.0879 54.0527 17.5781 42.2852 17.5781C30.5664 17.5781 21.7773 15.0879 21.7773 11.9141C21.7773 8.64258 30.5664 6.25 42.2852 6.25C54.0527 6.25 62.793 8.64258 62.793 11.9141Z" fill="#000000" fill-opacity="0.85"/>
  <path d="M84.7656 120.068C111.67 120.068 124.023 110.498 124.023 88.7207L124.023 51.5625C124.023 42.3828 121.826 36.1816 118.359 31.7871C117.188 30.3223 115.332 30.2246 113.867 31.3965C109.229 35.498 96.9727 39.0137 84.7656 39.0137C72.5098 39.0137 60.3027 35.498 55.6152 31.3965C54.1504 30.2246 52.2949 30.3223 51.123 31.7871C47.6562 36.1816 45.459 42.3828 45.459 51.5625L45.459 88.7207C45.459 110.498 57.8125 120.068 84.7656 120.068Z" fill="#000000" fill-opacity="0.425"/>
  <path d="M84.7656 32.3242C97.2656 32.3242 107.324 29.5898 107.324 26.0742C107.324 22.4609 97.2656 19.7754 84.7656 19.7754C72.2168 19.7754 62.1582 22.4609 62.1582 26.0742C62.1582 29.5898 72.2168 32.3242 84.7656 32.3242Z" fill="#000000" fill-opacity="0.85"/>
 </g>
</svg>
