<?xml version="1.0" encoding="UTF-8"?>
<!--Generator: Apple Native CoreSVG 232.5-->
<!DOCTYPE svg
PUBLIC "-//W3C//DTD SVG 1.1//EN"
       "http://www.w3.org/Graphics/SVG/1.1/DTD/svg11.dtd">
<svg version="1.1" xmlns="http://www.w3.org/2000/svg" xmlns:xlink="http://www.w3.org/1999/xlink" width="96.1426" height="88.4277">
 <g>
  <rect height="88.4277" opacity="0" width="96.1426" x="0" y="0"/>
  <path d="M48.0957 88.4277C65.8203 88.4277 73.291 86.1816 80.3711 79.5898C90.332 70.5078 96.1426 57.373 96.1426 43.4082C96.1426 32.1289 92.3828 21.3867 85.3516 13.5254C83.4473 11.084 80.2246 10.6445 77.4902 12.3535C71.4844 16.748 63.4277 19.7266 48.0957 19.7266C32.7148 19.7266 24.6582 16.748 18.7012 12.3535C15.9668 10.6445 12.6953 11.084 10.791 13.5254C3.80859 21.3867 0 32.1289 0 43.4082C0 57.373 5.81055 70.5078 15.7715 79.5898C22.8516 86.1816 30.3223 88.4277 48.0957 88.4277ZM48.0957 80.5664C32.5684 80.5664 26.6602 79.0039 21.0938 73.8281C12.6465 66.0645 7.86133 55.0781 7.86133 43.4082C7.86133 34.1309 10.8887 25.2441 17.2363 18.0664L13.6719 18.9941C21.5332 25.0488 33.9844 27.5879 48.0957 27.5879C62.1582 27.5879 74.6094 25.0488 82.4707 18.9941L78.9062 18.0664C85.2539 25.2441 88.2812 34.1309 88.2812 43.4082C88.2812 55.0781 83.4961 66.0645 75.0488 73.8281C69.5312 79.0039 63.5742 80.5664 48.0957 80.5664Z" fill="#000000" fill-opacity="0.425"/>
  <path d="M48.0957 13.0859C61.6699 13.0859 71.1426 10.3516 71.1426 6.83594C71.1426 3.27148 61.6699 0.634766 48.0957 0.634766C34.4727 0.634766 25 3.27148 25 6.83594C25 10.3516 34.4727 13.0859 48.0957 13.0859Z" fill="#000000" fill-opacity="0.85"/>
 </g>
</svg>
