<?xml version="1.0" encoding="UTF-8"?>
<!--Generator: Apple Native CoreSVG 232.5-->
<!DOCTYPE svg
PUBLIC "-//W3C//DTD SVG 1.1//EN"
       "http://www.w3.org/Graphics/SVG/1.1/DTD/svg11.dtd">
<svg version="1.1" xmlns="http://www.w3.org/2000/svg" xmlns:xlink="http://www.w3.org/1999/xlink" width="176.172" height="91.1665">
 <g>
  <rect height="91.1665" opacity="0" width="176.172" x="0" y="0"/>
  <path d="M132.275 23.4885C133.301 25.2951 135.742 25.9299 137.598 24.8557L168.115 7.27757C169.971 6.25218 170.654 3.81077 169.531 1.90647C168.506 0.0998329 166.016-0.534933 164.209 0.490458L133.643 18.0686C131.836 19.094 131.152 21.5842 132.275 23.4885ZM133.105 45.5588C133.105 47.7073 134.863 49.4651 137.012 49.4651L172.217 49.4651C174.365 49.4651 176.172 47.7073 176.172 45.5588C176.172 43.4104 174.365 41.6037 172.217 41.6037L137.012 41.6037C134.863 41.6037 133.105 43.4104 133.105 45.5588ZM132.275 67.6291C131.152 69.5334 131.836 71.926 133.643 73.0491L164.209 90.6272C166.016 91.7014 168.506 91.0178 169.531 89.2112C170.654 87.3069 169.971 84.9143 168.115 83.7912L137.598 66.2131C135.742 65.1389 133.301 65.8225 132.275 67.6291Z" fill="#000000" fill-opacity="0.85"/>
  <path d="M3.90625 61.135L47.2168 61.135C52.6855 61.135 58.7891 62.0139 64.9902 63.8205C77.8809 67.5315 90.0391 75.2463 101.709 87.2092C108.643 94.6799 119.531 90.8713 119.531 80.5686L119.531 10.5491C119.531 0.246317 108.643-3.56228 101.709 3.90843C84.5703 21.6819 64.6484 29.9826 47.2168 29.9826L3.90625 29.9826L3.90625 37.844L47.2168 37.844C66.6504 37.844 88.5254 28.7619 107.08 9.62132C109.668 6.9846 111.67 7.52171 111.67 10.5491L111.67 80.5686C111.67 83.5959 109.668 84.0842 107.08 81.4475C88.5254 62.3557 66.6504 53.2737 47.2168 53.2737L3.90625 53.2737ZM3.90625 66.8967C6.10352 66.8967 7.86133 65.0901 7.86133 62.9416L7.86133 28.0783C7.86133 25.9299 6.10352 24.1721 3.90625 24.1721C1.75781 24.1721 0 25.9299 0 28.0783L0 62.9416C0 65.0901 1.75781 66.8967 3.90625 66.8967ZM13.623 68.7522C13.623 76.6623 20.1172 83.1076 28.0273 83.1076L55.7129 83.1076C63.623 83.1076 70.1172 76.6623 70.1172 68.7522C70.1172 60.842 63.623 54.3479 55.7129 54.3479L28.0273 54.3479C20.1172 54.3479 13.623 60.842 13.623 68.7522ZM21.4844 68.7522C21.4844 65.1877 24.4629 62.2092 28.0273 62.2092L55.7129 62.2092C59.2773 62.2092 62.2559 65.1877 62.2559 68.7522C62.2559 72.3166 59.2773 75.1975 55.7129 75.1975L28.0273 75.1975C24.4629 75.1975 21.4844 72.3166 21.4844 68.7522Z" fill="#000000" fill-opacity="0.85"/>
 </g>
</svg>
