<?xml version="1.0" encoding="UTF-8"?>
<!--Generator: Apple Native CoreSVG 232.5-->
<!DOCTYPE svg
PUBLIC "-//W3C//DTD SVG 1.1//EN"
       "http://www.w3.org/Graphics/SVG/1.1/DTD/svg11.dtd">
<svg version="1.1" xmlns="http://www.w3.org/2000/svg" xmlns:xlink="http://www.w3.org/1999/xlink" width="99.6094" height="99.6582">
 <g>
  <rect height="99.6582" opacity="0" width="99.6094" x="0" y="0"/>
  <path d="M99.6094 49.8535C99.6094 77.0996 77.0508 99.6582 49.8047 99.6582C22.6074 99.6582 0 77.0996 0 49.8535C0 22.6562 22.5586 0.0488281 49.7559 0.0488281C77.002 0.0488281 99.6094 22.6562 99.6094 49.8535ZM65.2832 25.5859C64.502 25.8789 64.1113 26.6113 64.1113 27.4414L64.1113 45.8496L44.7754 35.7422C43.0664 34.8633 41.6992 34.8633 39.9902 35.7422L19.7266 46.3867C17.7734 47.3633 19.043 50.3418 21.5332 49.1211L41.6504 38.8184C42.0898 38.623 42.5781 38.623 43.0664 38.8184L62.9395 48.9746C63.3789 49.1699 63.7207 49.3164 64.1113 49.3652L64.1113 68.457L60.2539 68.457C60.3516 68.1152 60.4004 67.7734 60.4004 67.334L60.4004 50.7324C60.0586 50.5859 59.7168 50.3906 59.375 50.2441L42.334 41.4551L25.293 50.2441C24.9512 50.3906 24.6582 50.5859 24.3164 50.7324L24.3164 67.334C24.3164 67.7734 24.3652 68.1152 24.4629 68.457L20.6543 68.457C19.7754 68.457 19.043 69.1895 19.043 70.1172C19.043 71.0449 19.7754 71.7773 20.6543 71.7773L74.0234 71.7773C74.9512 71.7773 75.6836 71.0449 75.6836 70.1172C75.6836 69.1895 74.9512 68.457 74.0234 68.457L67.4316 68.457L67.4316 37.5977C67.627 37.5488 67.8711 37.5488 68.1641 37.5488C71.5332 37.5488 73.6816 39.209 77.0508 39.209C78.5156 39.209 79.1016 39.0625 79.834 38.6719C80.6641 38.3301 81.0547 37.7441 81.0547 36.8164L81.0547 27.4414C81.0547 26.8066 80.7129 26.3672 79.9316 26.3672C79.248 26.3672 78.5156 26.8066 76.9043 26.8066C73.7305 26.8066 71.5332 25.0977 68.0664 25.0977C66.6016 25.0977 66.0156 25.293 65.2832 25.5859ZM48.5352 55.0781L48.5352 68.457L36.1328 68.457L36.1328 55.0781C36.1328 54.1016 36.7676 53.5156 37.6953 53.5156L47.0215 53.5156C47.9492 53.5156 48.5352 54.1016 48.5352 55.0781Z" fill="#000000" fill-opacity="0.85"/>
 </g>
</svg>
