<?xml version="1.0" encoding="UTF-8"?>
<!--Generator: Apple Native CoreSVG 232.5-->
<!DOCTYPE svg
PUBLIC "-//W3C//DTD SVG 1.1//EN"
       "http://www.w3.org/Graphics/SVG/1.1/DTD/svg11.dtd">
<svg version="1.1" xmlns="http://www.w3.org/2000/svg" xmlns:xlink="http://www.w3.org/1999/xlink" width="213.05" height="98.3887">
 <g>
  <rect height="98.3887" opacity="0" width="213.05" x="0" y="0"/>
  <path d="M46.7836 81.25C46.7836 85.3698 47.8818 88.925 49.8717 91.6992L26.7152 91.6992C19.9281 91.6992 16.0219 87.9395 16.0219 81.25L16.0219 65.5762L46.7836 65.5762Z" fill="#000000" fill-opacity="0.85"/>
  <path d="M41.4125 46.9727C41.1051 47.2158 40.817 47.4656 40.553 47.7228C40.4633 47.8014 40.3806 47.8822 40.3105 47.9667C40.12 48.1444 39.9492 48.3282 39.7961 48.5167C39.7063 48.6075 39.6274 48.7013 39.5595 48.798C39.3976 48.9844 39.2532 49.1755 39.1274 49.371C39.0569 49.4545 38.9981 49.5409 38.9459 49.6287C38.7586 49.9048 38.5933 50.186 38.4447 50.4704C38.4404 50.4782 38.4363 50.4861 38.4336 50.4942C38.2883 50.7715 38.16 51.052 38.0514 51.3354C38.0081 51.4311 37.9713 51.5278 37.9458 51.626C37.8652 51.8225 37.801 52.0212 37.7514 52.2214C37.712 52.3308 37.6826 52.4413 37.6632 52.5526C37.6082 52.7467 37.567 52.9421 37.5408 53.1382C37.5125 53.2435 37.4956 53.3494 37.4852 53.4555C37.4461 53.7063 37.4211 53.9576 37.4106 54.2088C37.3985 54.3122 37.394 54.4157 37.3989 54.5187C37.3871 54.745 37.3893 54.9707 37.4023 55.1956C37.403 55.3296 37.4116 55.4632 37.4328 55.5953C37.439 55.752 37.4562 55.9076 37.4822 56.0619C37.4937 56.2117 37.5169 56.3599 37.5515 56.5061C37.5706 56.6394 37.5971 56.7715 37.6325 56.9017C37.6576 57.0645 37.6967 57.2245 37.7454 57.382C37.7667 57.465 37.7901 57.5475 37.8202 57.6281C37.9363 58.0585 38.0901 58.4788 38.2756 58.8867L10.6996 58.8867C6.54923 58.8867 5.42618 54.1992 8.16055 52.2461L39.557 30.3223C41.1195 29.248 42.9262 28.7109 45.0258 28.7109L64.6434 28.7109Z" fill="#000000" fill-opacity="0.85"/>
  <path d="M197.028 65.5762L197.028 81.25C197.028 87.9395 193.073 91.6992 186.334 91.6992L163.189 91.6992C165.176 88.925 166.266 85.3698 166.266 81.25L166.266 65.5762Z" fill="#000000" fill-opacity="0.85"/>
  <path d="M173.444 30.3223L204.889 52.2461C207.623 54.1992 206.5 58.8867 202.35 58.8867L174.77 58.8867C174.966 58.4545 175.127 58.0085 175.248 57.5522C175.267 57.503 175.281 57.4526 175.294 57.402C175.345 57.2384 175.385 57.0723 175.411 56.9033C175.445 56.7798 175.47 56.6545 175.489 56.5281C175.524 56.3783 175.548 56.2265 175.559 56.0731C175.585 55.924 175.602 55.7737 175.608 55.6224C175.63 55.4864 175.639 55.3489 175.639 55.211C175.652 55.0041 175.654 54.7965 175.643 54.5884C175.65 54.4844 175.646 54.3799 175.636 54.2755C175.625 54.0098 175.599 53.744 175.558 53.4788C175.548 53.3738 175.531 53.2689 175.503 53.1648C175.477 52.9685 175.436 52.773 175.381 52.5787C175.362 52.4675 175.332 52.3571 175.293 52.2478C175.244 52.0492 175.18 51.8521 175.1 51.6572C175.075 51.5581 175.037 51.4604 174.993 51.3639C174.89 51.092 174.767 50.8229 174.627 50.5571C174.62 50.5382 174.611 50.5198 174.601 50.5015C174.453 50.2183 174.288 49.9382 174.101 49.6633C174.049 49.577 173.992 49.4921 173.922 49.4101C173.796 49.2143 173.651 49.023 173.488 48.8364C173.42 48.7405 173.342 48.6474 173.253 48.5575C173.099 48.3695 172.929 48.1865 172.738 48.0095C172.668 47.9255 172.586 47.8452 172.496 47.7673C172.232 47.5114 171.944 47.2631 171.637 47.0215L171.575 46.9727L148.35 28.7109L168.024 28.7109C170.075 28.7109 171.881 29.248 173.444 30.3223Z" fill="#000000" fill-opacity="0.85"/>
  <path d="M157.868 62.9883C158.451 63.4487 159.038 63.8435 159.625 64.1604L159.625 81.25C159.625 87.9395 155.719 91.6992 148.932 91.6992L64.0688 91.6992C57.3793 91.6992 53.4242 87.9395 53.4242 81.25L53.4242 64.15C54.0113 63.8359 54.5983 63.4445 55.182 62.9883L106.598 22.8027ZM97.1742 58.9844C95.2211 58.9844 93.8051 60.3516 93.8051 62.3535L93.8051 84.082L119.245 84.082L119.245 62.3535C119.245 60.3516 117.926 58.9844 115.875 58.9844Z" fill="#000000" fill-opacity="0.85"/>
  <path d="M51.0805 57.7637L104.352 16.0156C105.768 14.8926 107.33 14.8926 108.746 16.0156L161.969 57.7637C166.657 61.4746 171.442 55.2734 167.536 52.2461L112.653 9.13086C108.551 5.85938 104.45 5.85938 100.348 9.13086L45.5141 52.2461C41.6078 55.2734 46.393 61.4746 51.0805 57.7637Z" fill="#000000" fill-opacity="0.85"/>
 </g>
</svg>
