<?xml version="1.0" encoding="UTF-8"?>
<!--Generator: Apple Native CoreSVG 232.5-->
<!DOCTYPE svg
PUBLIC "-//W3C//DTD SVG 1.1//EN"
       "http://www.w3.org/Graphics/SVG/1.1/DTD/svg11.dtd">
<svg version="1.1" xmlns="http://www.w3.org/2000/svg" xmlns:xlink="http://www.w3.org/1999/xlink" width="99.6094" height="99.6582">
 <g>
  <rect height="99.6582" opacity="0" width="99.6094" x="0" y="0"/>
  <path d="M49.8047 99.6094C77.0508 99.6094 99.6094 77.002 99.6094 49.8047C99.6094 22.5586 77.002 0 49.7559 0C22.5586 0 0 22.5586 0 49.8047C0 77.002 22.6074 99.6094 49.8047 99.6094ZM49.8047 91.3086C26.7578 91.3086 8.34961 72.8516 8.34961 49.8047C8.34961 26.7578 26.709 8.30078 49.7559 8.30078C72.8027 8.30078 91.3086 26.7578 91.3086 49.8047C91.3086 72.8516 72.8516 91.3086 49.8047 91.3086Z" fill="#000000" fill-opacity="0.85"/>
  <path d="M31.0059 54.541C31.0059 55.957 31.9824 56.9824 33.3496 56.9824L36.6211 56.9824C35.6445 58.3496 35.2051 60.0098 35.2051 61.4258C35.2051 68.9453 41.8945 73.291 49.9023 73.291C55.2246 73.291 60.0586 71.2402 62.5977 67.041C63.3301 65.9668 63.7207 64.7949 63.7695 63.5742C63.8184 61.8652 62.7441 60.5957 60.8398 60.5957C59.668 60.5957 58.6914 61.084 58.0078 62.6953C56.7383 65.918 53.418 67.5293 49.7559 67.5293C45.2148 67.5293 41.3086 65.4297 41.3086 61.1816C41.3086 59.668 42.041 58.0078 43.5059 56.9824L66.0645 56.9824C67.4316 56.9824 68.4082 55.957 68.4082 54.541C68.4082 53.2227 67.4316 52.1484 66.0645 52.1484L33.3496 52.1484C31.9824 52.1484 31.0059 53.2227 31.0059 54.541ZM31.1035 44.7754C31.1035 46.0938 32.0801 47.168 33.4473 47.168L66.1621 47.168C67.5293 47.168 68.5059 46.0938 68.5059 44.7754C68.5059 43.3594 67.5293 42.3828 66.1621 42.3828L62.8906 42.3828C63.8672 40.9668 64.3066 39.3066 64.3066 37.8906C64.3066 30.3711 57.6172 26.0254 49.6094 26.0254C44.2871 26.0254 39.502 28.0762 36.9141 32.3242C36.1816 33.3984 35.791 34.5215 35.7422 35.791C35.6934 37.4512 36.7676 38.7207 38.6719 38.7207C39.8438 38.7207 40.8203 38.2324 41.5039 36.6211C42.8223 33.3984 46.0938 31.7871 49.7559 31.7871C54.2969 31.7871 58.2031 33.9355 58.2031 38.1348C58.2031 39.6484 57.4707 41.3086 56.0059 42.3828L33.4473 42.3828C32.0801 42.3828 31.1035 43.3594 31.1035 44.7754Z" fill="#000000" fill-opacity="0.85"/>
 </g>
</svg>
