<?xml version="1.0" encoding="UTF-8"?>
<!--Generator: Apple Native CoreSVG 232.5-->
<!DOCTYPE svg
PUBLIC "-//W3C//DTD SVG 1.1//EN"
       "http://www.w3.org/Graphics/SVG/1.1/DTD/svg11.dtd">
<svg version="1.1" xmlns="http://www.w3.org/2000/svg" xmlns:xlink="http://www.w3.org/1999/xlink" width="109.095" height="99.6582">
 <g>
  <rect height="99.6582" opacity="0" width="109.095" x="0" y="0"/>
  <path d="M59.2839 99.6094C86.4812 99.6094 109.089 77.002 109.089 49.8047C109.089 22.5586 86.4812 0 59.2839 0C32.0378 0 9.47924 22.5098 9.47924 49.7559L17.78 49.7559C17.78 26.709 36.2371 8.34961 59.2839 8.34961C82.3308 8.34961 100.788 26.7578 100.788 49.8047C100.788 72.8516 82.3308 91.4062 59.2839 91.3086C45.3679 91.2598 33.1609 84.5215 25.6902 74.1211C24.1765 72.1191 21.8816 71.4844 19.8308 72.7051C17.8777 73.9258 17.3406 76.6113 19.0007 78.7598C28.2781 91.2109 42.8289 99.6094 59.2839 99.6094ZM3.47339 40.3809C-0.04224 40.3809-0.921146 42.7734 0.983151 45.5078L11.9207 61.0352C13.532 63.2812 15.8757 63.2324 17.4382 61.0352L28.3757 45.459C30.2312 42.7734 29.3523 40.3809 25.8855 40.3809Z" fill="#000000" fill-opacity="0.85"/>
  <path d="M40.4851 54.541C40.4851 55.957 41.4617 56.9824 42.8777 56.9824L46.1003 56.9824C45.1726 58.3496 44.7332 60.0098 44.7332 61.4258C44.7332 68.9453 51.4226 73.291 59.4304 73.291C64.7039 73.291 69.5867 71.2402 72.1257 67.041C72.8093 65.9668 73.2488 64.7949 73.2488 63.5742C73.2976 61.8652 72.2722 60.5957 70.3679 60.5957C69.1472 60.5957 68.2195 61.084 67.5359 62.6953C66.2664 65.918 62.8972 67.5293 59.2839 67.5293C54.7429 67.5293 50.8367 65.4297 50.8367 61.1816C50.8367 59.668 51.5691 58.0078 53.0339 56.9824L75.5437 56.9824C76.9597 56.9824 77.9363 55.957 77.9363 54.541C77.9363 53.2227 76.9597 52.1484 75.5437 52.1484L42.8777 52.1484C41.4617 52.1484 40.4851 53.2227 40.4851 54.541ZM40.5828 44.7754C40.5828 46.0938 41.5593 47.168 42.9753 47.168L75.6414 47.168C77.0574 47.168 78.0339 46.0938 78.0339 44.7754C78.0339 43.3594 77.0574 42.3828 75.6414 42.3828L72.4187 42.3828C73.3464 40.9668 73.8347 39.3066 73.8347 37.8906C73.8347 30.3711 67.1453 26.0254 59.0886 26.0254C53.8152 26.0254 49.03 28.0762 46.4421 32.3242C45.7097 33.3984 45.2703 34.5215 45.2703 35.791C45.2214 37.4512 46.2468 38.7207 48.1511 38.7207C49.3718 38.7207 50.2996 38.2324 51.032 36.6211C52.3503 33.3984 55.6218 31.7871 59.2351 31.7871C63.7761 31.7871 67.6824 33.9355 67.6824 38.1348C67.6824 39.6484 66.9988 41.3086 65.5339 42.3828L42.9753 42.3828C41.5593 42.3828 40.5828 43.3594 40.5828 44.7754Z" fill="#000000" fill-opacity="0.85"/>
 </g>
</svg>
