<?xml version="1.0" encoding="UTF-8"?>
<!--Generator: Apple Native CoreSVG 232.5-->
<!DOCTYPE svg
PUBLIC "-//W3C//DTD SVG 1.1//EN"
       "http://www.w3.org/Graphics/SVG/1.1/DTD/svg11.dtd">
<svg version="1.1" xmlns="http://www.w3.org/2000/svg" xmlns:xlink="http://www.w3.org/1999/xlink" width="68.1152" height="90.0879">
 <g>
  <rect height="90.0879" opacity="0" width="68.1152" x="0" y="0"/>
  <path d="M33.6426 0C23.6328 0 14.502 3.90625 9.81445 12.3047C8.64258 14.0625 7.95898 15.7715 7.91016 17.8223C7.91016 20.166 9.375 21.9238 12.0605 21.9238C13.8184 21.9238 15.2344 21.1914 16.2598 18.7988C19.0918 11.8164 26.0742 8.20312 33.9355 8.20312C43.7988 8.20312 52.0508 13.1348 52.0508 22.2656C52.0508 26.3672 49.8535 31.0059 44.9707 33.1055L55.3223 33.1055C59.0332 30.1758 61.0352 25.9766 61.0352 21.6797C61.0352 7.8125 48.5352 0 33.6426 0ZM3.125 38.3789L64.9414 38.3789C66.7969 38.3789 68.1152 36.9629 68.1152 35.2051C68.1152 33.3496 66.7969 32.0312 64.9414 32.0312L3.125 32.0312C1.36719 32.0312 0 33.3496 0 35.2051C0 36.9629 1.36719 38.3789 3.125 38.3789ZM3.125 55.4199L64.9414 55.4199C66.7969 55.4199 68.1152 54.0039 68.1152 52.2461C68.1152 50.3906 66.7969 49.0723 64.9414 49.0723L3.125 49.0723C1.36719 49.0723 0 50.3906 0 52.2461C0 54.0039 1.36719 55.4199 3.125 55.4199ZM34.1309 90.0391C46.9238 90.0391 56.25 84.668 60.5957 76.1719C61.7188 74.4141 62.5 72.7539 62.5 70.6055C62.5 68.2129 60.791 66.5527 58.3984 66.5527C55.957 66.5527 54.7363 67.8223 53.8574 69.7266C50.7324 77.7832 43.9453 81.8359 33.8867 81.8359C22.0703 81.8359 14.5508 75.3418 14.5508 67.627C14.5508 62.207 17.4316 57.0801 24.6582 54.1992L13.623 54.1992C8.54492 57.2266 5.51758 62.3535 5.51758 68.0176C5.51758 80.2246 16.6016 90.0391 34.1309 90.0391Z" fill="#000000" fill-opacity="0.85"/>
 </g>
</svg>
