<?xml version="1.0" encoding="UTF-8"?>
<!--Generator: Apple Native CoreSVG 232.5-->
<!DOCTYPE svg
PUBLIC "-//W3C//DTD SVG 1.1//EN"
       "http://www.w3.org/Graphics/SVG/1.1/DTD/svg11.dtd">
<svg version="1.1" xmlns="http://www.w3.org/2000/svg" xmlns:xlink="http://www.w3.org/1999/xlink" width="89.8926" height="89.9902">
 <g>
  <rect height="89.9902" opacity="0" width="89.8926" x="0" y="0"/>
  <path d="M15.332 89.9902L74.5605 89.9902C84.8145 89.9902 89.8926 84.9121 89.8926 74.8535L89.8926 15.2344C89.8926 5.17578 84.8145 0.0976562 74.5605 0.0976562L15.332 0.0976562C5.12695 0.0976562 0 5.12695 0 15.2344L0 74.8535C0 84.9609 5.12695 89.9902 15.332 89.9902ZM15.4297 82.1289C10.5469 82.1289 7.86133 79.541 7.86133 74.4629L7.86133 15.625C7.86133 10.5469 10.5469 7.95898 15.4297 7.95898L74.4629 7.95898C79.2969 7.95898 82.0312 10.5469 82.0312 15.625L82.0312 74.4629C82.0312 79.541 79.2969 82.1289 74.4629 82.1289Z" fill="#000000" fill-opacity="0.85"/>
  <path d="M26.2207 49.707C26.2207 51.123 27.1973 52.1484 28.6133 52.1484L31.8359 52.1484C30.9082 53.5156 30.4199 55.1758 30.4199 56.5918C30.4199 64.1113 37.1094 68.457 45.1172 68.457C50.4395 68.457 55.2734 66.4062 57.8125 62.207C58.5449 61.1328 58.9355 59.9609 58.9844 58.7402C59.0332 57.0312 57.959 55.7617 56.1035 55.7617C54.8828 55.7617 53.9551 56.25 53.2227 57.8613C51.9531 61.084 48.6328 62.6953 45.0195 62.6953C40.4297 62.6953 36.5723 60.5957 36.5723 56.3477C36.5723 54.834 37.2559 53.1738 38.7207 52.1484L61.2793 52.1484C62.6465 52.1484 63.623 51.123 63.623 49.707C63.623 48.3887 62.6465 47.3145 61.2793 47.3145L28.6133 47.3145C27.1973 47.3145 26.2207 48.3887 26.2207 49.707ZM26.3184 39.9414C26.3184 41.2598 27.2949 42.334 28.7109 42.334L61.377 42.334C62.7441 42.334 63.7207 41.2598 63.7207 39.9414C63.7207 38.5254 62.7441 37.5488 61.377 37.5488L58.1055 37.5488C59.082 36.1328 59.5215 34.4727 59.5215 33.0566C59.5215 25.5371 52.832 21.1914 44.8242 21.1914C39.502 21.1914 34.7168 23.2422 32.1289 27.4902C31.4453 28.5645 31.0059 29.6875 30.957 30.957C30.957 32.6172 31.9824 33.8867 33.8867 33.8867C35.0586 33.8867 36.0352 33.3984 36.7188 31.7871C38.0371 28.5645 41.3086 26.9531 44.9707 26.9531C49.5117 26.9531 53.418 29.1016 53.418 33.3008C53.418 34.8145 52.6855 36.4746 51.2207 37.5488L28.7109 37.5488C27.2949 37.5488 26.3184 38.5254 26.3184 39.9414Z" fill="#000000" fill-opacity="0.85"/>
 </g>
</svg>
