<?xml version="1.0" encoding="UTF-8"?>
<!--Generator: Apple Native CoreSVG 232.5-->
<!DOCTYPE svg
PUBLIC "-//W3C//DTD SVG 1.1//EN"
       "http://www.w3.org/Graphics/SVG/1.1/DTD/svg11.dtd">
<svg version="1.1" xmlns="http://www.w3.org/2000/svg" xmlns:xlink="http://www.w3.org/1999/xlink" width="89.7949" height="95.0684">
 <g>
  <rect height="95.0684" opacity="0" width="89.7949" x="0" y="0"/>
  <path d="M16.6016 22.9004L73.1445 22.9004C69.5801 17.4316 65.5273 11.8164 61.3281 6.15234C58.2031 2.05078 56.3477 0 51.0742 0L38.7207 0C33.4473 0 31.5918 2.05078 28.4668 6.15234C24.2188 11.8164 20.2148 17.4316 16.6016 22.9004ZM44.9219 50.0977C50.7812 50.0977 55.6152 53.8086 57.3242 59.1309L89.5996 59.1309C88.4766 50.9277 84.3262 41.3086 78.3203 31.0547L11.4258 31.0547C5.46875 41.3086 1.31836 50.9277 0.146484 59.1309L32.4707 59.1309C34.1797 53.8086 39.0625 50.0977 44.9219 50.0977ZM44.9219 69.043C48.2422 69.043 50.7812 66.5039 50.7812 63.1348C50.7812 59.8633 48.2422 57.2266 44.9219 57.2266C41.6016 57.2266 39.0137 59.8633 39.0137 63.1348C39.0137 66.5039 41.6016 69.043 44.9219 69.043ZM33.0566 94.9707L56.6895 94.9707C77.2949 94.9707 88.4277 84.7656 89.7949 67.2852L57.3242 67.2852C55.6641 72.4609 50.8301 76.1719 44.9219 76.1719C39.0625 76.1719 34.1309 72.4609 32.4707 67.2852L0 67.2852C1.31836 84.7656 12.4512 94.9707 33.0566 94.9707Z" fill="#000000" fill-opacity="0.85"/>
 </g>
</svg>
