<?xml version="1.0" encoding="UTF-8"?>
<!--Generator: Apple Native CoreSVG 232.5-->
<!DOCTYPE svg
PUBLIC "-//W3C//DTD SVG 1.1//EN"
       "http://www.w3.org/Graphics/SVG/1.1/DTD/svg11.dtd">
<svg version="1.1" xmlns="http://www.w3.org/2000/svg" xmlns:xlink="http://www.w3.org/1999/xlink" width="118.359" height="105.42">
 <g>
  <rect height="105.42" opacity="0" width="118.359" x="0" y="0"/>
  <path d="M62.793 78.0759C51.3809 83.5306 41.2194 92.041 26.4648 92.041C20.2148 92.041 14.502 90.5273 8.98438 87.3047C6.29883 85.791 6.20117 83.1055 7.37305 81.3477C8.34961 79.834 10.3516 79.0527 12.4023 80.2246C17.3828 83.1055 21.6309 84.1797 26.4648 84.1797C41.1155 84.1797 51.2819 74.4379 64.2429 69.1317C63.3719 71.9599 62.793 74.9745 62.793 78.0759Z" fill="#000000" fill-opacity="0.85"/>
  <path d="M74.4375 47.9964C57.4871 51.0092 46.0102 65.8691 26.5137 65.8691C20.2637 65.8691 14.5508 64.3066 9.0332 61.1328C6.34766 59.5703 6.25 56.9336 7.42188 55.1758C8.39844 53.6621 10.4004 52.8809 12.4512 54.0527C17.4316 56.8848 21.6797 58.0078 26.5137 58.0078C46.1895 58.0078 57.7772 40.4372 78.9015 39.6314Z" fill="#000000" fill-opacity="0.85"/>
  <path d="M97.9004 18.0664C100.635 19.6777 100.732 22.3145 99.5117 24.0723C98.4863 25.5371 96.5332 26.3184 94.4824 25.1465C89.502 22.3145 85.2051 21.2402 80.4199 21.2402C59.9609 21.2402 48.1934 39.6484 26.4648 39.6484C20.2148 39.6484 14.502 38.1348 8.98438 34.9609C6.29883 33.3984 6.20117 30.7617 7.37305 29.0039C8.34961 27.4902 10.3516 26.709 12.4023 27.8809C17.3828 30.7129 21.6309 31.7871 26.4648 31.7871C46.6309 31.7871 58.3008 13.3789 80.4199 13.3789C86.6699 13.3789 92.3828 14.8926 97.9004 18.0664Z" fill="#000000" fill-opacity="0.85"/>
  <path d="M90.5762 98.7305C102.344 98.7305 111.719 89.5508 111.719 78.0762C111.719 71.7285 108.545 65.5273 105.859 60.498L94.9707 40.2344C93.7988 38.0371 92.7246 37.1094 90.5762 37.1094C88.3789 37.1094 87.3535 38.0371 86.1816 40.2344L75.3418 60.498C72.6562 65.5273 69.4824 71.7285 69.4824 78.0762C69.4824 89.5508 78.8574 98.7305 90.5762 98.7305ZM90.5762 92.2852C82.4219 92.2852 75.9277 86.0352 75.9277 78.0762C75.9277 73.2422 78.418 68.5547 81.0547 63.5254L90.1367 46.6797C90.3809 46.1914 90.8691 46.1914 91.1133 46.6797L100.049 63.5254C102.734 68.5547 105.273 73.2422 105.273 78.0762C105.273 86.0352 98.7305 92.2852 90.5762 92.2852Z" fill="#000000" fill-opacity="0.85"/>
 </g>
</svg>
