<?xml version="1.0" encoding="UTF-8"?>
<!--Generator: Apple Native CoreSVG 232.5-->
<!DOCTYPE svg
PUBLIC "-//W3C//DTD SVG 1.1//EN"
       "http://www.w3.org/Graphics/SVG/1.1/DTD/svg11.dtd">
<svg version="1.1" xmlns="http://www.w3.org/2000/svg" xmlns:xlink="http://www.w3.org/1999/xlink" width="99.6094" height="99.6582">
 <g>
  <rect height="99.6582" opacity="0" width="99.6094" x="0" y="0"/>
  <path d="M49.8047 99.6094C77.0508 99.6094 99.6094 77.002 99.6094 49.8047C99.6094 22.5586 77.002 0 49.7559 0C22.5586 0 0 22.5586 0 49.8047C0 77.002 22.6074 99.6094 49.8047 99.6094ZM49.8047 91.3086C26.7578 91.3086 8.34961 72.8516 8.34961 49.8047C8.34961 26.7578 26.709 8.30078 49.7559 8.30078C72.8027 8.30078 91.3086 26.7578 91.3086 49.8047C91.3086 72.8516 72.8516 91.3086 49.8047 91.3086Z" fill="#000000" fill-opacity="0.85"/>
  <path d="M32.3242 67.7246L69.4336 67.7246C75.2441 67.7246 79.7852 63.0859 79.7852 57.4219C79.7852 52.5391 76.5137 48.4863 72.168 47.4121C72.2168 46.9238 72.2168 46.4355 72.2168 45.9961C72.2168 36.084 64.3555 28.0273 54.1992 28.0273C48.2422 28.0273 42.9688 30.8594 39.6973 35.3516C39.0625 35.2051 38.3301 35.1074 37.7441 35.1074C32.7148 35.1074 28.4668 38.7695 27.7344 43.7988C23.1934 45.6055 19.8242 50.0488 19.8242 55.3711C19.8242 63.4277 25.2441 67.7246 32.3242 67.7246Z" fill="#000000" fill-opacity="0.85"/>
 </g>
</svg>
