<?xml version="1.0" encoding="UTF-8"?>
<!--Generator: Apple Native CoreSVG 232.5-->
<!DOCTYPE svg
PUBLIC "-//W3C//DTD SVG 1.1//EN"
       "http://www.w3.org/Graphics/SVG/1.1/DTD/svg11.dtd">
<svg version="1.1" xmlns="http://www.w3.org/2000/svg" xmlns:xlink="http://www.w3.org/1999/xlink" width="99.6094" height="99.6582">
 <g>
  <rect height="99.6582" opacity="0" width="99.6094" x="0" y="0"/>
  <path d="M99.6094 49.8535C99.6094 77.0996 77.0508 99.6582 49.8047 99.6582C22.6074 99.6582 0 77.0996 0 49.8535C0 22.6562 22.5586 0.0488281 49.7559 0.0488281C77.002 0.0488281 99.6094 22.6562 99.6094 49.8535ZM39.4531 35.0098C38.7695 34.8633 38.0371 34.8145 37.4512 34.8145C32.2266 34.8145 27.832 38.5742 27.0996 43.7012C22.4121 45.6543 18.9453 50.1465 18.9453 55.7129C18.9453 64.0137 24.5117 68.4082 31.8359 68.4082L70.0684 68.4082C76.0742 68.4082 80.7617 63.6719 80.7617 57.7637C80.7617 52.7344 77.3926 48.584 72.9004 47.5098C72.9492 46.9727 72.9492 46.4355 72.9492 45.9961C72.9492 35.791 64.8438 27.4414 54.3945 27.4414C48.2422 27.4414 42.8223 30.4199 39.4531 35.0098Z" fill="#000000" fill-opacity="0.85"/>
 </g>
</svg>
