<?xml version="1.0" encoding="UTF-8"?>
<!--Generator: Apple Native CoreSVG 232.5-->
<!DOCTYPE svg
PUBLIC "-//W3C//DTD SVG 1.1//EN"
       "http://www.w3.org/Graphics/SVG/1.1/DTD/svg11.dtd">
<svg version="1.1" xmlns="http://www.w3.org/2000/svg" xmlns:xlink="http://www.w3.org/1999/xlink" width="122.754" height="117.041">
 <g>
  <rect height="117.041" opacity="0" width="122.754" x="0" y="0"/>
  <path d="M26.5137 88.0371L56.8359 88.0371L56.8359 58.1055C56.8359 55.5176 59.082 53.3203 61.7188 53.3203C64.3555 53.3203 66.5527 55.5176 66.5527 58.1055L66.5527 88.0371L99.2676 88.0371C113.33 88.0371 122.754 79.248 122.754 67.6758C122.754 58.1055 116.846 49.3164 107.324 45.3613C107.422 23.584 91.748 7.86133 71.7773 7.86133C58.5449 7.86133 49.1211 14.9414 43.2617 23.4863C32.1777 20.5078 18.1641 29.1016 17.9199 42.8223C6.88477 44.5801 0 54.2969 0 65.5762C0 78.0273 10.498 88.0371 26.5137 88.0371Z" fill="#000000" fill-opacity="0.85"/>
  <path d="M61.7188 117.041C62.6953 117.041 63.5254 116.699 64.502 115.723L81.0059 99.8047C81.7383 99.0723 82.1777 98.291 82.1777 97.2168C82.1777 95.2637 80.6152 93.7988 78.6133 93.7988C77.6855 93.7988 76.6602 94.1895 75.9766 94.9707L68.5547 102.881L65.2832 106.299L65.5762 99.0234L65.5762 87.9883C65.5762 85.9375 63.8184 84.1797 61.7188 84.1797C59.6191 84.1797 57.8125 85.9375 57.8125 87.9883L57.8125 99.0234L58.1055 106.348L54.834 102.881L47.4121 94.9707C46.7285 94.1895 45.6543 93.7988 44.7266 93.7988C42.6758 93.7988 41.2109 95.2637 41.2109 97.2168C41.2109 98.291 41.6504 99.0723 42.3828 99.8047L58.8867 115.723C59.8633 116.699 60.6934 117.041 61.7188 117.041Z" fill="#000000" fill-opacity="0.85"/>
 </g>
</svg>
