<?xml version="1.0" encoding="UTF-8"?>
<!--Generator: Apple Native CoreSVG 232.5-->
<!DOCTYPE svg
PUBLIC "-//W3C//DTD SVG 1.1//EN"
       "http://www.w3.org/Graphics/SVG/1.1/DTD/svg11.dtd">
<svg version="1.1" xmlns="http://www.w3.org/2000/svg" xmlns:xlink="http://www.w3.org/1999/xlink" width="122.754" height="124.854">
 <g>
  <rect height="124.854" opacity="0" width="122.754" x="0" y="0"/>
  <path d="M107.324 49.2676C116.846 53.125 122.754 61.2305 122.754 71.0938C122.754 82.9102 113.77 91.9434 98.7793 91.9434L74.9023 91.9434L74.9023 84.082L98.7305 84.082C109.424 84.082 114.893 78.6133 114.893 71.0938C114.893 62.6465 109.18 57.0801 100.293 55.127C99.707 55.0293 99.4629 54.6387 99.5117 54.0039C99.707 51.709 99.8535 49.0723 99.707 46.875C98.877 32.3242 87.793 19.6289 71.7773 19.6289C59.1309 19.6289 51.8555 26.6113 47.1191 35.0586C46.8262 35.5957 46.4844 35.6934 45.8984 35.498C35.8398 32.5684 25.0488 36.7188 25.0488 51.709C25.0488 52.3438 24.8047 52.7344 24.1211 52.7344C13.7695 52.7344 7.86133 59.668 7.86133 68.9941C7.86133 77.3926 13.916 84.082 25.4883 84.082L48.291 84.082L48.291 91.9434L25.5371 91.9434C9.52148 91.9434 0 81.6895 0 68.9941C0 57.4707 6.88477 48.4375 17.9199 46.7285C18.1641 33.0078 32.1777 24.4141 43.2617 27.3926C49.1211 18.8477 58.5449 11.7676 71.7773 11.7676C91.748 11.7676 107.422 27.4902 107.324 49.2676Z" fill="#000000" fill-opacity="0.85"/>
  <path d="M61.6211 115.43C63.7207 115.43 65.4785 113.721 65.4785 111.67L65.4785 67.3828L65.1855 58.3496L68.457 61.8164L75.8789 69.1895C76.6113 69.9219 77.5879 70.3613 78.5156 70.3613C80.5176 70.3613 82.0801 68.9453 82.0801 66.9434C82.0801 65.918 81.6895 65.0391 80.9082 64.3555L64.4043 48.9258C63.3789 47.998 62.5977 47.6562 61.6211 47.6562C60.5957 47.6562 59.8145 47.998 58.7891 48.9258L42.2852 64.3555C41.4551 65.0391 41.1133 65.918 41.1133 66.9434C41.1133 68.9453 42.5781 70.3613 44.6289 70.3613C45.5566 70.3613 46.582 69.9219 47.3145 69.1895L54.7363 61.8164L58.0078 58.3496L57.7148 67.3828L57.7148 111.67C57.7148 113.721 59.5215 115.43 61.6211 115.43Z" fill="#000000" fill-opacity="0.85"/>
 </g>
</svg>
