<?xml version="1.0" encoding="UTF-8"?>
<!--Generator: Apple Native CoreSVG 232.5-->
<!DOCTYPE svg
PUBLIC "-//W3C//DTD SVG 1.1//EN"
       "http://www.w3.org/Graphics/SVG/1.1/DTD/svg11.dtd">
<svg version="1.1" xmlns="http://www.w3.org/2000/svg" xmlns:xlink="http://www.w3.org/1999/xlink" width="122.754" height="135.889">
 <g>
  <rect height="135.889" opacity="0" width="122.754" x="0" y="0"/>
  <path d="M107.324 54.7852C116.846 58.6426 122.754 66.748 122.754 76.6113C122.754 88.4277 113.77 97.4609 98.7793 97.4609L74.9023 97.4609L74.9023 89.5996L98.7305 89.5996C109.424 89.5996 114.893 84.1309 114.893 76.6113C114.893 68.1641 109.18 62.5977 100.293 60.6445C99.707 60.5469 99.4629 60.1562 99.5117 59.5215C99.707 57.2266 99.8535 54.5898 99.707 52.3926C98.877 37.8418 87.793 25.1465 71.7773 25.1465C59.1309 25.1465 51.8555 32.1289 47.1191 40.5762C46.8262 41.1133 46.4844 41.2109 45.8984 41.0156C35.8398 38.0859 25.0488 42.2363 25.0488 57.2266C25.0488 57.8613 24.8047 58.252 24.1211 58.252C13.7695 58.252 7.86133 65.1855 7.86133 74.5117C7.86133 82.9102 13.916 89.5996 25.4883 89.5996L48.291 89.5996L48.291 97.4609L25.5371 97.4609C9.52148 97.4609 0 87.207 0 74.5117C0 62.9883 6.88477 53.9551 17.9199 52.2461C18.1641 38.5254 32.1777 29.9316 43.2617 32.9102C49.1211 24.3652 58.5449 17.2852 71.7773 17.2852C91.748 17.2852 107.422 33.0078 107.324 54.7852Z" fill="#000000" fill-opacity="0.85"/>
  <path d="M61.6211 126.465C62.5977 126.465 63.3789 126.074 64.4043 125.146L80.9082 109.717C81.6895 109.033 82.0801 108.203 82.0801 107.129C82.0801 105.176 80.5176 103.711 78.5156 103.711C77.5879 103.711 76.6113 104.15 75.8789 104.883L68.457 112.305L65.1855 115.723L65.4785 108.447L65.4785 66.5527C65.4785 64.502 63.7207 62.7441 61.6211 62.7441C59.5215 62.7441 57.7148 64.502 57.7148 66.5527L57.7148 108.447L58.0078 115.771L54.7363 112.305L47.3145 104.883C46.582 104.15 45.5566 103.711 44.6289 103.711C42.5781 103.711 41.1133 105.176 41.1133 107.129C41.1133 108.203 41.4551 109.033 42.2852 109.717L58.7891 125.146C59.8145 126.074 60.5957 126.465 61.6211 126.465Z" fill="#000000" fill-opacity="0.85"/>
 </g>
</svg>
