<?xml version="1.0" encoding="UTF-8"?>
<!--Generator: Apple Native CoreSVG 232.5-->
<!DOCTYPE svg
PUBLIC "-//W3C//DTD SVG 1.1//EN"
       "http://www.w3.org/Graphics/SVG/1.1/DTD/svg11.dtd">
<svg version="1.1" xmlns="http://www.w3.org/2000/svg" xmlns:xlink="http://www.w3.org/1999/xlink" width="122.754" height="115.283">
 <g>
  <rect height="115.283" opacity="0" width="122.754" x="0" y="0"/>
  <path d="M26.254 43.4267C25.4794 45.5981 25.0488 48.1746 25.0488 51.1719C25.0488 51.8066 24.8047 52.1484 24.1211 52.1484C13.7695 52.1484 7.86133 59.9121 7.86133 69.6777C7.86133 79.6387 16.9434 88.2324 29.248 88.2324L71.1135 88.2324L78.9842 96.0937L29.248 96.0938C12.5488 96.0938 0 84.0332 0 69.6777C0 57.7637 6.88477 47.9004 17.9199 46.1426C17.978 42.8923 18.7618 39.8987 20.1024 37.2824ZM107.324 48.7305C116.846 52.7344 122.754 61.6211 122.754 71.875C122.754 82.7097 115.251 91.8278 104.602 94.9366L97.8348 88.1734C107.573 87.5895 114.893 80.5579 114.893 71.875C114.893 63.0371 109.18 56.543 100.293 54.5898C99.707 54.4434 99.4629 54.1016 99.5117 53.4668C99.707 51.1719 99.8535 48.5352 99.707 46.2891C98.877 31.7871 87.793 19.0918 71.7773 19.0918C59.1309 19.0918 51.8555 26.0254 47.1191 34.4727C46.8262 35.0098 46.4844 35.1562 45.8984 34.9609C45.2964 34.7642 44.6914 34.5953 44.0858 34.4566L35.8674 26.2432C38.2945 25.9457 40.8007 26.1352 43.2617 26.8555C49.1211 18.3105 58.5449 11.2305 71.7773 11.2305C91.748 11.2305 107.422 26.9531 107.324 48.7305Z" fill="#000000" fill-opacity="0.85"/>
  <path d="M99.4141 108.496C100.928 109.961 103.271 109.961 104.736 108.496C106.201 107.031 106.25 104.639 104.736 103.174L23.291 21.7285C21.7773 20.2148 19.3359 20.3125 17.9199 21.7285C16.5039 23.1445 16.5527 25.6836 17.9199 27.0508Z" fill="#000000" fill-opacity="0.85"/>
 </g>
</svg>
