<?xml version="1.0" encoding="UTF-8"?>
<!--Generator: Apple Native CoreSVG 232.5-->
<!DOCTYPE svg
PUBLIC "-//W3C//DTD SVG 1.1//EN"
       "http://www.w3.org/Graphics/SVG/1.1/DTD/svg11.dtd">
<svg version="1.1" xmlns="http://www.w3.org/2000/svg" xmlns:xlink="http://www.w3.org/1999/xlink" width="109.095" height="99.6582">
 <g>
  <rect height="99.6582" opacity="0" width="109.095" x="0" y="0"/>
  <path d="M59.2839 99.6094C86.4812 99.6094 109.089 77.002 109.089 49.8047C109.089 22.5586 86.4812 0 59.2839 0C32.0378 0 9.47924 22.5098 9.47924 49.7559L17.78 49.7559C17.78 26.709 36.2371 8.34961 59.2839 8.34961C82.3308 8.34961 100.788 26.7578 100.788 49.8047C100.788 72.8516 82.3308 91.4062 59.2839 91.3086C45.3679 91.2598 33.1609 84.5215 25.6902 74.1211C24.1765 72.1191 21.8816 71.4844 19.8308 72.7051C17.8777 73.9258 17.3406 76.6113 19.0007 78.7598C28.2781 91.2109 42.8289 99.6094 59.2839 99.6094ZM3.47339 40.3809C-0.04224 40.3809-0.921146 42.7734 0.983151 45.5078L11.9207 61.0352C13.532 63.2812 15.8757 63.2324 17.4382 61.0352L28.3757 45.459C30.2312 42.7734 29.3523 40.3809 25.8855 40.3809Z" fill="#000000" fill-opacity="0.85"/>
  <path d="M65.241 74.2676C66.8523 74.2676 68.1707 73.1934 68.1707 71.4355C68.1707 70.4102 67.6335 69.5801 66.9011 68.8965L52.448 55.4199L53.7175 55.4199C63.3367 55.4199 68.073 50.0488 69.0984 43.8965L73.6882 43.8965C75.0554 43.8965 76.032 42.8223 76.032 41.5039C76.032 40.0879 75.0554 39.0625 73.6882 39.0625L69.1472 39.0625C68.8054 36.5234 67.8777 34.2773 66.2664 32.5195L73.4441 32.5195C74.8113 32.5195 75.8367 31.3965 75.8367 30.0781C75.8367 28.6621 74.8113 27.6855 73.4441 27.6855L63.1414 27.6855C61.6277 27.6855 60.0164 27.6855 58.5027 27.6855L45.3679 27.6855C43.7566 27.6855 42.4871 28.9062 42.4871 30.5664C42.4871 32.1289 43.7566 33.4961 45.3679 33.4961L54.157 33.4961C58.5027 33.4961 61.4812 35.5469 62.4089 39.0625L45.2703 39.0625C43.9519 39.0625 42.9265 40.0879 42.9265 41.5039C42.9265 42.8223 43.9519 43.8965 45.2703 43.8965L62.5066 43.8965C61.6277 47.7051 58.4539 49.6094 53.4734 49.6094L46.3445 49.6094C44.3425 49.6094 42.8777 50.8789 42.8777 52.9297C42.8777 54.5898 43.6589 55.3711 44.6355 56.2988L62.3601 72.9492C63.4343 73.9746 64.2156 74.2676 65.241 74.2676Z" fill="#000000" fill-opacity="0.85"/>
 </g>
</svg>
