<?xml version="1.0" encoding="UTF-8"?>
<!--Generator: Apple Native CoreSVG 232.5-->
<!DOCTYPE svg
PUBLIC "-//W3C//DTD SVG 1.1//EN"
       "http://www.w3.org/Graphics/SVG/1.1/DTD/svg11.dtd">
<svg version="1.1" xmlns="http://www.w3.org/2000/svg" xmlns:xlink="http://www.w3.org/1999/xlink" width="89.8926" height="89.9902">
 <g>
  <rect height="89.9902" opacity="0" width="89.8926" x="0" y="0"/>
  <path d="M15.332 89.9902L74.5605 89.9902C84.8145 89.9902 89.8926 84.9121 89.8926 74.8535L89.8926 15.2344C89.8926 5.17578 84.8145 0.0976562 74.5605 0.0976562L15.332 0.0976562C5.12695 0.0976562 0 5.12695 0 15.2344L0 74.8535C0 84.9609 5.12695 89.9902 15.332 89.9902ZM15.4297 82.1289C10.5469 82.1289 7.86133 79.541 7.86133 74.4629L7.86133 15.625C7.86133 10.5469 10.5469 7.95898 15.4297 7.95898L74.4629 7.95898C79.2969 7.95898 82.0312 10.5469 82.0312 15.625L82.0312 74.4629C82.0312 79.541 79.2969 82.1289 74.4629 82.1289Z" fill="#000000" fill-opacity="0.85"/>
  <path d="M50.9277 69.4336C52.5391 69.4336 53.9062 68.3594 53.9062 66.6016C53.9062 65.5762 53.3203 64.7461 52.5879 64.0625L38.1836 50.5859L39.4531 50.5859C49.0723 50.5859 53.8086 45.2148 54.834 39.0625L59.375 39.0625C60.791 39.0625 61.7676 37.9883 61.7676 36.6699C61.7676 35.2539 60.791 34.2285 59.375 34.2285L54.8828 34.2285C54.541 31.6895 53.6133 29.4434 52.002 27.6855L59.1309 27.6855C60.5469 27.6855 61.5234 26.5625 61.5234 25.2441C61.5234 23.8281 60.5469 22.8516 59.1309 22.8516L48.877 22.8516C47.3145 22.8516 45.752 22.8516 44.1895 22.8516L31.0547 22.8516C29.4922 22.8516 28.1738 24.0723 28.1738 25.7324C28.1738 27.2949 29.4922 28.6621 31.0547 28.6621L39.8438 28.6621C44.1895 28.6621 47.2168 30.7129 48.1445 34.2285L31.0059 34.2285C29.6387 34.2285 28.6133 35.2539 28.6133 36.6699C28.6133 37.9883 29.6387 39.0625 31.0059 39.0625L48.2422 39.0625C47.3633 42.8711 44.1406 44.7754 39.209 44.7754L32.0801 44.7754C30.0781 44.7754 28.6133 46.0449 28.6133 48.0957C28.6133 49.7559 29.3945 50.5371 30.3711 51.4648L48.0469 68.1152C49.1211 69.1406 49.9023 69.4336 50.9277 69.4336Z" fill="#000000" fill-opacity="0.85"/>
 </g>
</svg>
