<?xml version="1.0" encoding="UTF-8"?>
<!--Generator: Apple Native CoreSVG 232.5-->
<!DOCTYPE svg
PUBLIC "-//W3C//DTD SVG 1.1//EN"
       "http://www.w3.org/Graphics/SVG/1.1/DTD/svg11.dtd">
<svg version="1.1" xmlns="http://www.w3.org/2000/svg" xmlns:xlink="http://www.w3.org/1999/xlink" width="60.0098" height="91.0491">
 <g>
  <rect height="91.0491" opacity="0" width="60.0098" x="0" y="0"/>
  <path d="M4.15039 10.588L20.5566 10.588C32.6172 10.588 40.0391 16.6916 40.0391 27.9708C40.0391 39.3966 32.7637 45.256 20.166 45.256L6.25 45.256C2.63672 45.256 0.830078 47.6974 0.830078 50.2853C0.830078 51.8478 1.41602 53.4103 2.73438 54.631L39.7461 89.5431C44.4336 93.9376 50.4883 87.7365 45.8984 83.4396L14.1602 53.6544L20.459 53.6544C40.918 53.6544 49.6582 40.715 49.6582 27.6779C49.6582 19.6701 46.8262 12.9806 41.2109 8.63491L56.7871 8.63491C58.5449 8.63491 60.0098 7.2189 60.0098 5.46108C60.0098 3.65444 58.5449 2.23843 56.7871 2.23843L4.15039 2.23843C1.85547 2.23843 0 4.14272 0 6.43765C0 8.68374 1.85547 10.588 4.15039 10.588ZM3.90625 31.2423L56.7871 31.2423C58.5449 31.2423 60.0098 29.8263 60.0098 28.0197C60.0098 26.2619 58.5449 24.8458 56.7871 24.8458L3.90625 24.8458C2.14844 24.8458 0.683594 26.2619 0.683594 28.0197C0.683594 29.8263 2.14844 31.2423 3.90625 31.2423Z" fill="#000000" fill-opacity="0.85"/>
 </g>
</svg>
