<?xml version="1.0" encoding="UTF-8"?>
<!--Generator: Apple Native CoreSVG 232.5-->
<!DOCTYPE svg
PUBLIC "-//W3C//DTD SVG 1.1//EN"
       "http://www.w3.org/Graphics/SVG/1.1/DTD/svg11.dtd">
<svg version="1.1" xmlns="http://www.w3.org/2000/svg" xmlns:xlink="http://www.w3.org/1999/xlink" width="99.6094" height="99.6582">
 <g>
  <rect height="99.6582" opacity="0" width="99.6094" x="0" y="0"/>
  <path d="M49.8047 99.6094C77.0508 99.6094 99.6094 77.002 99.6094 49.8047C99.6094 22.5586 77.002 0 49.7559 0C22.5586 0 0 22.5586 0 49.8047C0 77.002 22.6074 99.6094 49.8047 99.6094ZM49.8047 91.3086C26.7578 91.3086 8.34961 72.8516 8.34961 49.8047C8.34961 26.7578 26.709 8.30078 49.7559 8.30078C72.8027 8.30078 91.3086 26.7578 91.3086 49.8047C91.3086 72.8516 72.8516 91.3086 49.8047 91.3086Z" fill="#000000" fill-opacity="0.85"/>
  <path d="M16.8945 49.8047C16.8945 59.082 22.7539 65.2344 31.4941 65.2344C36.1328 65.2344 40.0391 63.2812 44.2871 59.2285L49.8047 53.9551L55.3711 59.2285C59.7168 63.3789 63.5742 65.2344 68.1152 65.2344C76.9043 65.2344 82.7637 59.082 82.7637 49.8047C82.7637 40.5273 76.9043 34.3262 68.1152 34.3262C63.5254 34.3262 59.668 36.1816 55.3711 40.332L49.8047 45.6543L44.2871 40.332C40.0879 36.3281 36.1816 34.3262 31.4941 34.3262C22.7539 34.3262 16.8945 40.5273 16.8945 49.8047ZM22.9492 49.8047C22.9492 44.0918 26.3184 40.332 31.4941 40.332C34.2773 40.332 36.7188 41.6016 40.0391 44.7266L45.5078 49.8047L40.0391 54.8828C36.8164 57.9102 34.3262 59.2285 31.4941 59.2285C26.3184 59.2285 22.9492 55.5176 22.9492 49.8047ZM54.1504 49.8047L59.5703 44.7266C62.8906 41.6016 65.3809 40.332 68.1152 40.332C73.291 40.332 76.709 44.0918 76.709 49.8047C76.709 55.5176 73.291 59.2285 68.1152 59.2285C65.2832 59.2285 62.793 57.9102 59.5703 54.8828Z" fill="#000000" fill-opacity="0.85"/>
 </g>
</svg>
