<?xml version="1.0" encoding="UTF-8"?>
<!--Generator: Apple Native CoreSVG 232.5-->
<!DOCTYPE svg
PUBLIC "-//W3C//DTD SVG 1.1//EN"
       "http://www.w3.org/Graphics/SVG/1.1/DTD/svg11.dtd">
<svg version="1.1" xmlns="http://www.w3.org/2000/svg" xmlns:xlink="http://www.w3.org/1999/xlink" width="99.6094" height="99.6582">
 <g>
  <rect height="99.6582" opacity="0" width="99.6094" x="0" y="0"/>
  <path d="M99.6094 49.8047C99.6094 77.002 77.0508 99.6094 49.8047 99.6094C22.6074 99.6094 0 77.002 0 49.8047C0 22.5586 22.5586 0 49.7559 0C77.002 0 99.6094 22.5586 99.6094 49.8047ZM55.5664 40.0391L49.8535 45.5078L44.1895 40.0391C39.8438 35.8887 35.791 33.8379 30.957 33.8379C21.9727 33.8379 15.918 40.2344 15.918 49.8047C15.918 59.3262 21.9727 65.7227 30.957 65.7227C35.7422 65.7227 39.7949 63.7207 44.1895 59.5215L49.8535 54.1016L55.5664 59.5215C60.0586 63.8184 64.0625 65.7227 68.75 65.7227C77.7832 65.7227 83.8379 59.3262 83.8379 49.8047C83.8379 40.2344 77.7832 33.8379 68.75 33.8379C64.0137 33.8379 60.0098 35.7422 55.5664 40.0391ZM39.7461 44.5801L45.4102 49.8047L39.7461 55.0293C36.4258 58.1543 33.8867 59.5215 30.957 59.5215C25.6348 59.5215 22.168 55.7129 22.168 49.8047C22.168 43.8965 25.6348 40.0391 30.957 40.0391C33.8379 40.0391 36.3281 41.3574 39.7461 44.5801ZM77.5879 49.8047C77.5879 55.7129 74.0723 59.5215 68.75 59.5215C65.8203 59.5215 63.2812 58.1543 59.9609 55.0293L54.3457 49.8047L59.9609 44.5801C63.3789 41.3574 65.918 40.0391 68.75 40.0391C74.0723 40.0391 77.5879 43.8965 77.5879 49.8047Z" fill="#000000" fill-opacity="0.85"/>
 </g>
</svg>
