<?xml version="1.0" encoding="UTF-8"?>
<!--Generator: Apple Native CoreSVG 232.5-->
<!DOCTYPE svg
PUBLIC "-//W3C//DTD SVG 1.1//EN"
       "http://www.w3.org/Graphics/SVG/1.1/DTD/svg11.dtd">
<svg version="1.1" xmlns="http://www.w3.org/2000/svg" xmlns:xlink="http://www.w3.org/1999/xlink" width="89.8926" height="89.9902">
 <g>
  <rect height="89.9902" opacity="0" width="89.8926" x="0" y="0"/>
  <path d="M15.332 89.9902L74.5605 89.9902C84.8145 89.9902 89.8926 84.9121 89.8926 74.8535L89.8926 15.2344C89.8926 5.17578 84.8145 0.0976562 74.5605 0.0976562L15.332 0.0976562C5.12695 0.0976562 0 5.12695 0 15.2344L0 74.8535C0 84.9609 5.12695 89.9902 15.332 89.9902ZM15.4297 82.1289C10.5469 82.1289 7.86133 79.541 7.86133 74.4629L7.86133 15.625C7.86133 10.5469 10.5469 7.95898 15.4297 7.95898L74.4629 7.95898C79.2969 7.95898 82.0312 10.5469 82.0312 15.625L82.0312 74.4629C82.0312 79.541 79.2969 82.1289 74.4629 82.1289Z" fill="#000000" fill-opacity="0.85"/>
  <path d="M36.4746 72.3145L56.3477 72.3145C58.3496 72.3145 59.9121 70.8496 59.9121 68.8477C59.9121 66.9434 58.3496 65.4297 56.3477 65.4297L50.293 65.4297L50.293 40.5762C50.293 37.9395 48.9746 36.1816 46.4844 36.1816L37.3047 36.1816C35.3027 36.1816 33.7402 37.6953 33.7402 39.5996C33.7402 41.6016 35.3027 43.0664 37.3047 43.0664L42.5293 43.0664L42.5293 65.4297L36.4746 65.4297C34.4727 65.4297 32.9102 66.9434 32.9102 68.8477C32.9102 70.8496 34.4727 72.3145 36.4746 72.3145ZM44.5801 28.0762C48.1445 28.0762 50.9277 25.2441 50.9277 21.6797C50.9277 18.1152 48.1445 15.2832 44.5801 15.2832C41.0645 15.2832 38.2324 18.1152 38.2324 21.6797C38.2324 25.2441 41.0645 28.0762 44.5801 28.0762Z" fill="#000000" fill-opacity="0.85"/>
 </g>
</svg>
