<?xml version="1.0" encoding="UTF-8"?>
<!--Generator: Apple Native CoreSVG 232.5-->
<!DOCTYPE svg
PUBLIC "-//W3C//DTD SVG 1.1//EN"
       "http://www.w3.org/Graphics/SVG/1.1/DTD/svg11.dtd">
<svg version="1.1" xmlns="http://www.w3.org/2000/svg" xmlns:xlink="http://www.w3.org/1999/xlink" width="39.502" height="81.6895">
 <g>
  <rect height="81.6895" opacity="0" width="39.502" x="0" y="0"/>
  <path d="M0 71.6309C0 74.0234 1.70898 75.6348 4.29688 75.6348L35.2051 75.6348C37.793 75.6348 39.502 74.0234 39.502 71.6309C39.502 69.2871 37.793 67.6758 35.2051 67.6758L25.3906 67.6758L25.3906 30.4199C25.3906 27.7832 23.6816 26.0254 21.1426 26.0254L5.66406 26.0254C3.125 26.0254 1.36719 27.5879 1.36719 29.9316C1.36719 32.373 3.125 33.9844 5.66406 33.9844L16.3574 33.9844L16.3574 67.6758L4.29688 67.6758C1.70898 67.6758 0 69.2871 0 71.6309ZM12.1094 7.08008C12.1094 10.9863 15.2344 14.1113 19.1406 14.1113C23.0957 14.1113 26.123 10.9863 26.123 7.08008C26.123 3.125 23.0957 0 19.1406 0C15.2344 0 12.1094 3.125 12.1094 7.08008Z" fill="#000000" fill-opacity="0.85"/>
 </g>
</svg>
