<?xml version="1.0" encoding="UTF-8"?>
<!--Generator: Apple Native CoreSVG 232.5-->
<!DOCTYPE svg
PUBLIC "-//W3C//DTD SVG 1.1//EN"
       "http://www.w3.org/Graphics/SVG/1.1/DTD/svg11.dtd">
<svg version="1.1" xmlns="http://www.w3.org/2000/svg" xmlns:xlink="http://www.w3.org/1999/xlink" width="107.617" height="107.275">
 <g>
  <rect height="107.275" opacity="0" width="107.617" x="0" y="0"/>
  <path d="M30.0293 107.275C32.4219 107.275 34.082 106.006 37.0605 103.369L53.9062 88.3789L85.2539 88.3789C99.8047 88.3789 107.617 80.3223 107.617 66.0156L107.617 28.6133C107.617 14.3066 99.8047 6.25 85.2539 6.25L22.3633 6.25C7.8125 6.25 0 14.2578 0 28.6133L0 66.0156C0 80.3711 7.8125 88.3789 22.3633 88.3789L24.707 88.3789L24.707 101.074C24.707 104.834 26.6113 107.275 30.0293 107.275ZM32.0312 98.3398L32.0312 84.1797C32.0312 81.543 31.0059 80.5176 28.3691 80.5176L22.3633 80.5176C12.5 80.5176 7.86133 75.4883 7.86133 65.9668L7.86133 28.6133C7.86133 19.0918 12.5 14.1113 22.3633 14.1113L85.2539 14.1113C95.0684 14.1113 99.7559 19.0918 99.7559 28.6133L99.7559 65.9668C99.7559 75.4883 95.0684 80.5176 85.2539 80.5176L53.6133 80.5176C50.8789 80.5176 49.5117 80.9082 47.6562 82.8125Z" fill="#000000" fill-opacity="0.85"/>
  <path d="M45.9473 72.6562L64.3555 72.6562C66.2109 72.6562 67.6758 71.3379 67.6758 69.4824C67.6758 67.6758 66.2109 66.3086 64.3555 66.3086L58.7402 66.3086L58.7402 43.2617C58.7402 40.8203 57.5195 39.209 55.2246 39.209L46.7285 39.209C44.873 39.209 43.4082 40.625 43.4082 42.3828C43.4082 44.2383 44.873 45.5566 46.7285 45.5566L51.5625 45.5566L51.5625 66.3086L45.9473 66.3086C44.0918 66.3086 42.6758 67.6758 42.6758 69.4824C42.6758 71.3379 44.0918 72.6562 45.9473 72.6562ZM53.4668 31.6895C56.7871 31.6895 59.375 29.0527 59.375 25.7812C59.375 22.4609 56.7871 19.873 53.4668 19.873C50.1953 19.873 47.5586 22.4609 47.5586 25.7812C47.5586 29.0527 50.1953 31.6895 53.4668 31.6895Z" fill="#000000" fill-opacity="0.85"/>
 </g>
</svg>
