<?xml version="1.0" encoding="UTF-8"?>
<!--Generator: Apple Native CoreSVG 232.5-->
<!DOCTYPE svg
PUBLIC "-//W3C//DTD SVG 1.1//EN"
       "http://www.w3.org/Graphics/SVG/1.1/DTD/svg11.dtd">
<svg version="1.1" xmlns="http://www.w3.org/2000/svg" xmlns:xlink="http://www.w3.org/1999/xlink" width="107.617" height="107.861">
 <g>
  <rect height="107.861" opacity="0" width="107.617" x="0" y="0"/>
  <path d="M107.617 28.9062L107.617 66.3086C107.617 80.6152 99.8047 88.623 85.2539 88.623L52.2461 88.623L34.6191 104.736C32.3242 106.885 30.9082 107.861 29.0039 107.861C26.2207 107.861 24.6582 105.859 24.6582 102.832L24.6582 88.623L22.3633 88.623C7.8125 88.623 0 80.6641 0 66.3086L0 28.9062C0 14.5508 7.8125 6.54297 22.3633 6.54297L85.2539 6.54297C99.8047 6.54297 107.617 14.5996 107.617 28.9062ZM46.4844 39.2578C44.5801 39.2578 43.0664 40.7227 43.0664 42.5293C43.0664 44.4824 44.5801 45.8496 46.4844 45.8496L51.4648 45.8496L51.4648 67.1387L45.7031 67.1387C43.75 67.1387 42.2852 68.6035 42.2852 70.4102C42.2852 72.3633 43.75 73.7793 45.7031 73.7793L64.6484 73.7793C66.6016 73.7793 68.0664 72.3633 68.0664 70.4102C68.0664 68.6035 66.6016 67.1387 64.6484 67.1387L58.8867 67.1387L58.8867 43.457C58.8867 40.9668 57.6172 39.2578 55.2734 39.2578ZM47.3145 25.3906C47.3145 28.8086 50.0488 31.543 53.418 31.543C56.8359 31.543 59.5215 28.8086 59.5215 25.3906C59.5215 21.9727 56.8359 19.2383 53.418 19.2383C50.0488 19.2383 47.3145 21.9727 47.3145 25.3906Z" fill="#000000" fill-opacity="0.85"/>
 </g>
</svg>
