<?xml version="1.0" encoding="UTF-8"?>
<!--Generator: Apple Native CoreSVG 232.5-->
<!DOCTYPE svg
PUBLIC "-//W3C//DTD SVG 1.1//EN"
       "http://www.w3.org/Graphics/SVG/1.1/DTD/svg11.dtd">
<svg version="1.1" xmlns="http://www.w3.org/2000/svg" xmlns:xlink="http://www.w3.org/1999/xlink" width="99.6094" height="99.6582">
 <g>
  <rect height="99.6582" opacity="0" width="99.6094" x="0" y="0"/>
  <path d="M49.8047 99.6094C77.0508 99.6094 99.6094 77.002 99.6094 49.8047C99.6094 22.5586 77.002 0 49.7559 0C22.5586 0 0 22.5586 0 49.8047C0 77.002 22.6074 99.6094 49.8047 99.6094ZM49.8047 91.3086C26.7578 91.3086 8.34961 72.8516 8.34961 49.8047C8.34961 26.7578 26.709 8.30078 49.7559 8.30078C72.8027 8.30078 91.3086 26.7578 91.3086 49.8047C91.3086 72.8516 72.8516 91.3086 49.8047 91.3086Z" fill="#000000" fill-opacity="0.85"/>
  <path d="M41.2598 77.1484L61.1328 77.1484C63.1348 77.1484 64.6973 75.6836 64.6973 73.6816C64.6973 71.7773 63.1348 70.2637 61.1328 70.2637L55.0781 70.2637L55.0781 45.4102C55.0781 42.7734 53.7598 41.0156 51.2695 41.0156L42.0898 41.0156C40.0879 41.0156 38.5254 42.5293 38.5254 44.4336C38.5254 46.4355 40.0879 47.9004 42.0898 47.9004L47.3145 47.9004L47.3145 70.2637L41.2598 70.2637C39.2578 70.2637 37.6953 71.7773 37.6953 73.6816C37.6953 75.6836 39.2578 77.1484 41.2598 77.1484ZM49.3652 32.9102C52.9297 32.9102 55.7129 30.0781 55.7129 26.5137C55.7129 22.9492 52.9297 20.1172 49.3652 20.1172C45.8496 20.1172 43.0176 22.9492 43.0176 26.5137C43.0176 30.0781 45.8496 32.9102 49.3652 32.9102Z" fill="#000000" fill-opacity="0.85"/>
 </g>
</svg>
