<?xml version="1.0" encoding="UTF-8"?>
<!--Generator: Apple Native CoreSVG 232.5-->
<!DOCTYPE svg
PUBLIC "-//W3C//DTD SVG 1.1//EN"
       "http://www.w3.org/Graphics/SVG/1.1/DTD/svg11.dtd">
<svg version="1.1" xmlns="http://www.w3.org/2000/svg" xmlns:xlink="http://www.w3.org/1999/xlink" width="112.354" height="81.7871">
 <g>
  <rect height="81.7871" opacity="0" width="112.354" x="0" y="0"/>
  <path d="M41.7969 67.7734L41.7969 57.373C41.7969 55.8594 43.0176 54.5898 44.6289 54.5898C46.1426 54.5898 47.4121 55.8594 47.4121 57.373L47.4121 67.7734C47.4121 69.3359 46.1426 70.6055 44.6289 70.6055C43.0176 70.6055 41.7969 69.3359 41.7969 67.7734ZM53.3203 67.7734L53.3203 57.373C53.3203 55.8594 54.5898 54.5898 56.2012 54.5898C57.7148 54.5898 58.9844 55.8594 58.9844 57.373L58.9844 67.7734C58.9844 69.3359 57.7148 70.6055 56.2012 70.6055C54.5898 70.6055 53.3203 69.3359 53.3203 67.7734ZM64.8926 67.7734L64.8926 57.373C64.8926 55.8594 66.1621 54.5898 67.7246 54.5898C69.2871 54.5898 70.5566 55.8594 70.5566 57.373L70.5566 67.7734C70.5566 69.3359 69.2871 70.6055 67.7246 70.6055C66.1621 70.6055 64.8926 69.3359 64.8926 67.7734ZM76.4648 67.7734L76.4648 57.373C76.4648 55.8594 77.6855 54.5898 79.2969 54.5898C80.8594 54.5898 82.0801 55.8594 82.0801 57.373L82.0801 67.7734C82.0801 69.3359 80.8594 70.6055 79.2969 70.6055C77.6855 70.6055 76.4648 69.3359 76.4648 67.7734ZM88.0859 67.7734L88.0859 57.373C88.0859 55.8594 89.3066 54.5898 90.918 54.5898C92.4316 54.5898 93.6523 55.8594 93.6523 57.373L93.6523 67.7734C93.6523 69.3359 92.4316 70.6055 90.918 70.6055C89.3066 70.6055 88.0859 69.3359 88.0859 67.7734ZM19.3359 81.7871L93.0176 81.7871C104.443 81.7871 112.354 73.9258 112.354 62.5977C112.354 51.2695 104.443 43.3594 93.0176 43.3594L19.3359 43.3594C7.91016 43.3594 0 51.2695 0 62.5977C0 73.9258 7.91016 81.7871 19.3359 81.7871ZM19.3359 36.6699L93.0176 36.6699C97.6074 36.6699 101.807 37.6953 105.42 39.5508L93.75 11.377C90.7227 4.00391 84.3262 0.0488281 75.8789 0.0488281L36.4746 0.0488281C28.0273 0.0488281 21.6309 4.00391 18.6035 11.377L6.88477 39.5508C10.5469 37.6953 14.7461 36.6699 19.3359 36.6699Z" fill="#000000" fill-opacity="0.85"/>
 </g>
</svg>
