<?xml version="1.0" encoding="UTF-8"?>
<!--Generator: Apple Native CoreSVG 232.5-->
<!DOCTYPE svg
PUBLIC "-//W3C//DTD SVG 1.1//EN"
       "http://www.w3.org/Graphics/SVG/1.1/DTD/svg11.dtd">
<svg version="1.1" xmlns="http://www.w3.org/2000/svg" xmlns:xlink="http://www.w3.org/1999/xlink" width="81.5918" height="110.107">
 <g>
  <rect height="110.107" opacity="0" width="81.5918" x="0" y="0"/>
  <path d="M7.86133 95.8008L7.86133 14.2578C7.86133 10.2539 10.3027 7.86133 14.502 7.86133L67.0898 7.86133C71.2402 7.86133 73.7305 10.2539 73.7305 14.2578L73.7305 95.8008C73.7305 99.8047 71.2402 102.148 67.0898 102.148L14.502 102.148C10.3027 102.148 7.86133 99.8047 7.86133 95.8008Z" fill="#000000" fill-opacity="0.2125"/>
  <path d="M0 97.1191C0 104.834 5.41992 110.01 13.5254 110.01L68.0664 110.01C76.1719 110.01 81.5918 104.834 81.5918 97.1191L81.5918 12.9395C81.5918 5.22461 76.1719 0 68.0664 0L13.5254 0C5.41992 0 0 5.22461 0 12.9395ZM7.86133 95.8008L7.86133 14.2578C7.86133 10.2539 10.3027 7.86133 14.502 7.86133L67.0898 7.86133C71.2402 7.86133 73.7305 10.2539 73.7305 14.2578L73.7305 95.8008C73.7305 99.8047 71.2402 102.148 67.0898 102.148L14.502 102.148C10.3027 102.148 7.86133 99.8047 7.86133 95.8008ZM26.9531 98.4375L54.6387 98.4375C56.0059 98.4375 56.9336 97.5098 56.9336 96.1426C56.9336 94.7754 56.0059 93.8965 54.6387 93.8965L26.9531 93.8965C25.6348 93.8965 24.707 94.7754 24.707 96.1426C24.707 97.5098 25.6348 98.4375 26.9531 98.4375Z" fill="#000000" fill-opacity="0.85"/>
 </g>
</svg>
