<?xml version="1.0" encoding="UTF-8"?>
<!--Generator: Apple Native CoreSVG 232.5-->
<!DOCTYPE svg
PUBLIC "-//W3C//DTD SVG 1.1//EN"
       "http://www.w3.org/Graphics/SVG/1.1/DTD/svg11.dtd">
<svg version="1.1" xmlns="http://www.w3.org/2000/svg" xmlns:xlink="http://www.w3.org/1999/xlink" width="147.021" height="103.369">
 <g>
  <rect height="103.369" opacity="0" width="147.021" x="0" y="0"/>
  <path d="M131.104 21.9238L131.104 23.1078C131.01 23.0964 130.91 23.0957 130.811 23.0957L123.242 23.0957L123.242 22.3145C123.242 17.2363 120.459 14.6484 115.625 14.6484L31.3965 14.6484C26.5137 14.6484 23.7793 17.2363 23.7793 22.3145L23.7793 81.1523C23.7793 86.2305 26.5137 88.8184 31.3965 88.8184L92.4374 88.8184C92.6133 91.8331 93.4802 94.4893 94.9152 96.6797L31.25 96.6797C21.0938 96.6797 15.918 91.6504 15.918 81.543L15.918 21.9238C15.918 11.8164 21.0938 6.78711 31.25 6.78711L115.771 6.78711C125.977 6.78711 131.104 11.8652 131.104 21.9238ZM92.3828 85.0586L54.6387 85.0586C53.3203 85.0586 52.3438 84.1797 52.3438 82.8125C52.3438 81.4453 53.3203 80.5176 54.6387 80.5176L92.3828 80.5176Z" fill="#000000" fill-opacity="0.85"/>
  <path d="M108.594 96.6797L130.811 96.6797C136.865 96.6797 140.332 93.3594 140.332 87.5488L140.332 38.916C140.332 33.1055 136.865 29.7363 130.811 29.7363L108.594 29.7363C102.539 29.7363 99.0234 33.1055 99.0234 38.916L99.0234 87.5488C99.0234 93.3594 102.539 96.6797 108.594 96.6797ZM108.691 90.2832C106.543 90.2832 105.42 89.1602 105.42 86.9141L105.42 39.5508C105.42 37.3047 106.543 36.1328 108.691 36.1328L130.713 36.1328C132.861 36.1328 133.936 37.3047 133.936 39.5508L133.936 86.9141C133.936 89.1602 132.861 90.2832 130.713 90.2832ZM113.037 87.793L126.27 87.793C127.246 87.793 128.027 87.1094 128.027 86.084C128.027 85.1562 127.246 84.4238 126.27 84.4238L113.037 84.4238C112.061 84.4238 111.377 85.1562 111.377 86.084C111.377 87.1582 111.963 87.793 113.037 87.793ZM115.771 43.1152L123.438 43.1152C124.707 43.1152 125.732 42.1387 125.732 40.8203C125.732 39.5996 124.707 38.623 123.438 38.623L115.771 38.623C114.502 38.623 113.525 39.5996 113.525 40.8203C113.525 42.1387 114.502 43.1152 115.771 43.1152Z" fill="#000000" fill-opacity="0.85"/>
 </g>
</svg>
