<?xml version="1.0" encoding="UTF-8"?>
<!--Generator: Apple Native CoreSVG 232.5-->
<!DOCTYPE svg
PUBLIC "-//W3C//DTD SVG 1.1//EN"
       "http://www.w3.org/Graphics/SVG/1.1/DTD/svg11.dtd">
<svg version="1.1" xmlns="http://www.w3.org/2000/svg" xmlns:xlink="http://www.w3.org/1999/xlink" width="115.137" height="89.9902">
 <g>
  <rect height="89.9902" opacity="0" width="115.137" x="0" y="0"/>
  <path d="M15.4297 82.1289C10.5469 82.1289 7.86133 79.541 7.86133 74.4629L7.86133 15.625C7.86133 10.5469 10.5469 7.95898 15.4297 7.95898L99.707 7.95898C104.541 7.95898 107.275 10.5469 107.275 15.625L107.275 74.4629C107.275 79.541 104.541 82.1289 99.707 82.1289Z" fill="#000000" fill-opacity="0.2125"/>
  <path d="M15.332 89.9902L99.8047 89.9902C110.059 89.9902 115.137 84.9121 115.137 74.8535L115.137 15.2344C115.137 5.17578 110.059 0.0976562 99.8047 0.0976562L15.332 0.0976562C5.12695 0.0976562 0 5.12695 0 15.2344L0 74.8535C0 84.9609 5.12695 89.9902 15.332 89.9902ZM15.4297 82.1289C10.5469 82.1289 7.86133 79.541 7.86133 74.4629L7.86133 15.625C7.86133 10.5469 10.5469 7.95898 15.4297 7.95898L99.707 7.95898C104.541 7.95898 107.275 10.5469 107.275 15.625L107.275 74.4629C107.275 79.541 104.541 82.1289 99.707 82.1289ZM38.7207 78.3691L76.4648 78.3691C77.7832 78.3691 78.7109 77.4902 78.7109 76.123C78.7109 74.7559 77.7832 73.8281 76.4648 73.8281L38.7207 73.8281C37.4023 73.8281 36.4258 74.7559 36.4258 76.123C36.4258 77.4902 37.4023 78.3691 38.7207 78.3691Z" fill="#000000" fill-opacity="0.85"/>
 </g>
</svg>
