<?xml version="1.0" encoding="UTF-8"?>
<!--Generator: Apple Native CoreSVG 232.5-->
<!DOCTYPE svg
PUBLIC "-//W3C//DTD SVG 1.1//EN"
       "http://www.w3.org/Graphics/SVG/1.1/DTD/svg11.dtd">
<svg version="1.1" xmlns="http://www.w3.org/2000/svg" xmlns:xlink="http://www.w3.org/1999/xlink" width="81.5918" height="110.107">
 <g>
  <rect height="110.107" opacity="0" width="81.5918" x="0" y="0"/>
  <path d="M13.5254 110.01L68.0664 110.01C76.1719 110.01 81.5918 104.834 81.5918 97.1191L81.5918 12.9395C81.5918 5.22461 76.1719 0 68.0664 0L13.5254 0C5.41992 0 0 5.22461 0 12.9395L0 97.1191C0 104.834 5.41992 110.01 13.5254 110.01ZM14.502 102.148C10.3027 102.148 7.86133 99.8047 7.86133 95.8008L7.86133 14.2578C7.86133 10.2539 10.3027 7.86133 14.502 7.86133L67.0898 7.86133C71.2402 7.86133 73.7305 10.2539 73.7305 14.2578L73.7305 95.8008C73.7305 99.8047 71.2402 102.148 67.0898 102.148Z" fill="#000000" fill-opacity="0.85"/>
  <path d="M20.4102 26.5625C23.6816 26.5625 26.5625 23.7305 26.5625 20.2637C26.5625 16.9434 23.6816 14.1113 20.4102 14.1113C16.9434 14.1113 14.1113 16.9434 14.1113 20.2637C14.1113 23.7305 16.9434 26.5625 20.4102 26.5625Z" fill="#000000" fill-opacity="0.85"/>
 </g>
</svg>
