<?xml version="1.0" encoding="UTF-8"?>
<!--Generator: Apple Native CoreSVG 232.5-->
<!DOCTYPE svg
PUBLIC "-//W3C//DTD SVG 1.1//EN"
       "http://www.w3.org/Graphics/SVG/1.1/DTD/svg11.dtd">
<svg version="1.1" xmlns="http://www.w3.org/2000/svg" xmlns:xlink="http://www.w3.org/1999/xlink" width="112.842" height="121.338">
 <g>
  <rect height="121.338" opacity="0" width="112.842" x="0" y="0"/>
  <path d="M89.3789 15.2832L80.2404 15.2832C79.1082 14.113 77.41 13.4766 75.2441 13.4766L22.7051 13.4766C18.5059 13.4766 16.0156 15.8691 16.0156 19.873L16.0156 101.416C16.0156 105.42 18.5059 107.764 22.7051 107.764L32.2151 107.764C32.7898 110.814 34.1095 113.487 36.0172 115.625L21.6797 115.625C13.623 115.625 8.1543 110.449 8.1543 102.734L8.1543 18.5547C8.1543 10.8398 13.623 5.61523 21.6797 5.61523L76.2207 5.61523C83.1161 5.61523 88.068 9.39635 89.3789 15.2832Z" fill="#000000" fill-opacity="0.85"/>
  <path d="M37.5977 104.199C37.5977 111.035 42.3828 115.625 49.5117 115.625L95.2148 115.625C102.344 115.625 107.129 111.035 107.129 104.199L107.129 32.4219C107.129 25.5859 102.344 20.9961 95.2148 20.9961L49.5117 20.9961C42.3828 20.9961 37.5977 25.5859 37.5977 32.4219ZM45.459 102.197L45.459 34.4238C45.459 31.0059 47.6074 28.8574 51.2695 28.8574L93.5059 28.8574C97.0703 28.8574 99.2676 31.0059 99.2676 34.4238L99.2676 102.197C99.2676 105.664 97.0703 107.764 93.5059 107.764L51.2695 107.764C47.6074 107.764 45.459 105.664 45.459 102.197Z" fill="#000000" fill-opacity="0.85"/>
 </g>
</svg>
