<?xml version="1.0" encoding="UTF-8"?>
<!--Generator: Apple Native CoreSVG 232.5-->
<!DOCTYPE svg
PUBLIC "-//W3C//DTD SVG 1.1//EN"
       "http://www.w3.org/Graphics/SVG/1.1/DTD/svg11.dtd">
<svg version="1.1" xmlns="http://www.w3.org/2000/svg" xmlns:xlink="http://www.w3.org/1999/xlink" width="111.572" height="120.752">
 <g>
  <rect height="120.752" opacity="0" width="111.572" x="0" y="0"/>
  <path d="M96.582 18.2617L96.582 42.4417C96.5046 42.4321 96.4214 42.4316 96.3379 42.4316L77.5391 42.4316L77.5391 23.5352C77.5391 21.7773 76.123 20.3125 74.3652 20.3125C72.6074 20.3125 71.1426 21.7773 71.1426 23.5352L71.1426 42.6564C63.3967 43.7959 58.8867 49.5686 58.8867 57.3242L58.8867 105.908C58.8867 109.593 59.9161 112.833 61.8433 115.332L28.5156 115.332C20.459 115.332 14.9902 110.156 14.9902 102.441L14.9902 18.2617C14.9902 10.5469 20.459 5.32227 28.5156 5.32227L83.0566 5.32227C91.1621 5.32227 96.582 10.5469 96.582 18.2617ZM46.2891 23.5352L46.2891 97.168C46.2891 98.9258 47.7051 100.391 49.4629 100.391C51.2207 100.391 52.6855 98.9258 52.6855 97.168L52.6855 23.5352C52.6855 21.7773 51.2207 20.3125 49.4629 20.3125C47.7051 20.3125 46.2891 21.7773 46.2891 23.5352Z" fill="#000000" fill-opacity="0.85"/>
  <path d="M74.0723 115.039L96.3379 115.039C102.393 115.039 105.859 111.719 105.859 105.908L105.859 57.3242C105.859 51.5137 102.344 48.1445 96.3379 48.1445L74.0723 48.1445C68.0176 48.1445 64.5508 51.5137 64.5508 57.3242L64.5508 105.908C64.5508 111.719 68.0176 115.039 74.0723 115.039ZM73.4863 67.334C71.0938 67.334 69.7754 66.0645 69.7754 63.8184L69.7754 57.2266C69.7754 55.127 71.0938 53.7109 73.4863 53.7109L79.6387 53.7109C81.9824 53.7109 83.3496 55.127 83.3496 57.2266L83.3496 63.8184C83.3496 66.0645 81.9824 67.334 79.6387 67.334Z" fill="#000000" fill-opacity="0.85"/>
 </g>
</svg>
