<?xml version="1.0" encoding="UTF-8"?>
<!--Generator: Apple Native CoreSVG 232.5-->
<!DOCTYPE svg
PUBLIC "-//W3C//DTD SVG 1.1//EN"
       "http://www.w3.org/Graphics/SVG/1.1/DTD/svg11.dtd">
<svg version="1.1" xmlns="http://www.w3.org/2000/svg" xmlns:xlink="http://www.w3.org/1999/xlink" width="62.7441" height="103.467">
 <g>
  <rect height="103.467" opacity="0" width="62.7441" x="0" y="0"/>
  <path d="M13.2812 103.369L49.4629 103.369C57.4219 103.369 62.7441 98.291 62.7441 90.6738L62.7441 12.6953C62.7441 5.07812 57.4219 0 49.4629 0L13.2812 0C5.32227 0 0 5.07812 0 12.6953L0 90.6738C0 98.291 5.32227 103.369 13.2812 103.369ZM13.8672 30.0781C10.3027 30.0781 8.1543 28.0273 8.1543 24.707L8.1543 13.4766C8.1543 10.1562 10.3027 8.10547 13.8672 8.10547L24.3652 8.10547C27.9297 8.10547 30.0781 10.1562 30.0781 13.4766L30.0781 24.707C30.0781 28.0273 27.9297 30.0781 24.3652 30.0781Z" fill="#000000" fill-opacity="0.85"/>
 </g>
</svg>
