<?xml version="1.0" encoding="UTF-8"?>
<!--Generator: Apple Native CoreSVG 232.5-->
<!DOCTYPE svg
PUBLIC "-//W3C//DTD SVG 1.1//EN"
       "http://www.w3.org/Graphics/SVG/1.1/DTD/svg11.dtd">
<svg version="1.1" xmlns="http://www.w3.org/2000/svg" xmlns:xlink="http://www.w3.org/1999/xlink" width="103.467" height="62.9395">
 <g>
  <rect height="62.9395" opacity="0" width="103.467" x="0" y="0"/>
  <path d="M95.6055 48.4863C95.6055 52.5879 93.4082 54.9316 89.502 54.9316L14.0625 54.9316C10.1074 54.9316 7.91016 52.5879 7.91016 48.4863L7.91016 42.1875C7.91016 41.4551 8.34961 41.0156 9.08203 41.0156L10.2051 41.0156C12.207 41.0156 13.623 39.6973 13.623 37.6953L13.623 25.0488C13.623 23.0469 12.207 21.7285 10.2051 21.7285L9.08203 21.7285C8.34961 21.7285 7.91016 21.2891 7.91016 20.5566L7.91016 14.3066C7.91016 10.2051 10.1074 7.86133 14.0625 7.86133L89.502 7.86133C93.4082 7.86133 95.6055 10.2051 95.6055 14.3066Z" fill="#000000" fill-opacity="0.2125"/>
  <path d="M103.467 49.4629L103.467 13.2812C103.467 5.32227 98.3887 0 90.7715 0L12.793 0C5.17578 0 0 5.32227 0 13.2812L0 49.4629C0 57.4219 5.17578 62.793 12.793 62.793L90.7715 62.793C98.3887 62.793 103.467 57.4219 103.467 49.4629ZM95.6055 48.4863C95.6055 52.5879 93.4082 54.9316 89.502 54.9316L14.0625 54.9316C10.1074 54.9316 7.91016 52.5879 7.91016 48.4863L7.91016 42.1875C7.91016 41.4551 8.34961 41.0156 9.08203 41.0156L10.2051 41.0156C12.207 41.0156 13.623 39.6973 13.623 37.6953L13.623 25.0488C13.623 23.0469 12.207 21.7285 10.2051 21.7285L9.08203 21.7285C8.34961 21.7285 7.91016 21.2891 7.91016 20.5566L7.91016 14.3066C7.91016 10.2051 10.1074 7.86133 14.0625 7.86133L89.502 7.86133C93.4082 7.86133 95.6055 10.2051 95.6055 14.3066ZM38.7695 51.3184L64.7949 51.3184C66.1133 51.3184 67.041 50.3906 67.041 49.0234C67.041 47.6562 66.1133 46.7773 64.7949 46.7773L38.7695 46.7773C37.4512 46.7773 36.5234 47.6562 36.5234 49.0234C36.5234 50.3906 37.4512 51.3184 38.7695 51.3184Z" fill="#000000" fill-opacity="0.85"/>
 </g>
</svg>
