<?xml version="1.0" encoding="UTF-8"?>
<!--Generator: Apple Native CoreSVG 232.5-->
<!DOCTYPE svg
PUBLIC "-//W3C//DTD SVG 1.1//EN"
       "http://www.w3.org/Graphics/SVG/1.1/DTD/svg11.dtd">
<svg version="1.1" xmlns="http://www.w3.org/2000/svg" xmlns:xlink="http://www.w3.org/1999/xlink" width="103.418" height="62.9395">
 <g>
  <rect height="62.9395" opacity="0" width="103.418" x="0" y="0"/>
  <path d="M14.0137 54.9316C10.0586 54.9316 7.86133 52.5879 7.86133 48.4863L7.86133 14.3066C7.86133 10.2051 10.0586 7.86133 14.0137 7.86133L89.4531 7.86133C93.3594 7.86133 95.5566 10.2051 95.5566 14.3066L95.5566 48.4863C95.5566 52.5879 93.3594 54.9316 89.4531 54.9316Z" fill="#000000" fill-opacity="0.2125"/>
  <path d="M12.7441 62.793L90.7227 62.793C98.3398 62.793 103.418 57.4219 103.418 49.4629L103.418 13.2812C103.418 5.32227 98.3398 0 90.7227 0L12.7441 0C5.12695 0 0 5.32227 0 13.2812L0 49.4629C0 57.4219 5.12695 62.793 12.7441 62.793ZM14.0137 54.9316C10.0586 54.9316 7.86133 52.5879 7.86133 48.4863L7.86133 14.3066C7.86133 10.2051 10.0586 7.86133 14.0137 7.86133L89.4531 7.86133C93.3594 7.86133 95.5566 10.2051 95.5566 14.3066L95.5566 48.4863C95.5566 52.5879 93.3594 54.9316 89.4531 54.9316ZM38.7207 51.3184L64.7461 51.3184C66.0645 51.3184 66.9922 50.3906 66.9922 49.0234C66.9922 47.6562 66.0645 46.7773 64.7461 46.7773L38.7207 46.7773C37.4023 46.7773 36.4746 47.6562 36.4746 49.0234C36.4746 50.3906 37.4023 51.3184 38.7207 51.3184ZM14.7949 40.7715C16.748 40.7715 18.2617 39.209 18.2617 37.2559L18.2617 25.4395C18.2617 23.5352 16.748 22.0215 14.7949 22.0215C12.8906 22.0215 11.3281 23.5352 11.3281 25.4395L11.3281 37.2559C11.3281 39.209 12.8906 40.7715 14.7949 40.7715Z" fill="#000000" fill-opacity="0.85"/>
 </g>
</svg>
