<?xml version="1.0" encoding="UTF-8"?>
<!--Generator: Apple Native CoreSVG 232.5-->
<!DOCTYPE svg
PUBLIC "-//W3C//DTD SVG 1.1//EN"
       "http://www.w3.org/Graphics/SVG/1.1/DTD/svg11.dtd">
<svg version="1.1" xmlns="http://www.w3.org/2000/svg" xmlns:xlink="http://www.w3.org/1999/xlink" width="99.6094" height="99.6582">
 <g>
  <rect height="99.6582" opacity="0" width="99.6094" x="0" y="0"/>
  <path d="M99.6094 49.8535C99.6094 77.0996 77.0508 99.6582 49.8047 99.6582C22.6074 99.6582 0 77.0996 0 49.8535C0 22.6562 22.5586 0.0488281 49.7559 0.0488281C77.002 0.0488281 99.6094 22.6562 99.6094 49.8535ZM39.8926 21.0449C35.4004 21.0449 32.373 23.877 32.373 28.2715L32.373 71.4355C32.373 75.7812 35.4004 78.6621 39.8926 78.6621L59.8145 78.6621C64.3066 78.6621 67.334 75.7812 67.334 71.4355L67.334 28.2715C67.334 23.877 64.3066 21.0449 59.8145 21.0449ZM62.8418 28.8574L62.8418 70.8008C62.8418 72.9492 61.5723 74.1699 59.2773 74.1699L40.4297 74.1699C38.1348 74.1699 36.8652 72.9492 36.8652 70.8008L36.8652 28.8574C36.8652 26.709 38.1348 25.5371 40.4297 25.5371L59.2773 25.5371C61.5723 25.5371 62.8418 26.709 62.8418 28.8574ZM44.1895 69.5312C43.3594 69.5312 42.8223 70.0684 42.8223 70.8984C42.8223 71.6797 43.3594 72.2656 44.1895 72.2656L55.6152 72.2656C56.3965 72.2656 56.8848 71.6797 56.8848 70.8984C56.8848 70.0684 56.3965 69.5312 55.6152 69.5312ZM17.5781 34.9609C13.916 38.9648 11.9629 44.2871 11.9629 49.8535C11.9629 55.4688 13.916 60.791 17.5781 64.7461C18.5547 65.7227 19.8242 65.7227 20.5078 64.7949C21.1914 64.0137 20.9961 62.9395 20.2148 61.9629C17.2363 58.6426 15.6738 54.4434 15.6738 49.8535C15.6738 45.2637 17.2363 41.0645 20.2148 37.7441C20.9961 36.7676 21.1914 35.7422 20.5078 34.9121C19.8242 33.9844 18.5547 33.9844 17.5781 34.9609ZM79.0527 34.9121C78.3691 35.7422 78.5645 36.7676 79.3945 37.7441C82.3242 41.0645 83.9355 45.2637 83.9355 49.8535C83.9355 54.4434 82.3242 58.6426 79.3945 61.9629C78.5645 62.9395 78.3691 64.0137 79.0527 64.7949C79.7852 65.7227 81.0547 65.7227 81.9824 64.7461C85.6445 60.791 87.6465 55.4688 87.6465 49.8535C87.6465 44.2871 85.6445 38.9648 81.9824 34.9609C81.0547 33.9844 79.7852 33.9844 79.0527 34.9121ZM24.7559 41.2598C22.8516 43.6035 21.7773 46.6309 21.7773 49.8535C21.7773 53.125 22.8516 56.1035 24.7559 58.4961C25.6348 59.5215 27.002 59.5215 27.7832 58.5938C28.4668 57.7637 28.2227 56.7871 27.4414 55.7617C26.2207 54.1504 25.5859 52.0996 25.5859 49.8535C25.5859 47.6074 26.2207 45.5078 27.4414 43.9453C28.2227 42.9199 28.4668 41.9434 27.7832 41.1133C27.002 40.1855 25.6348 40.2344 24.7559 41.2598ZM71.7773 41.1133C71.0938 41.9434 71.3379 42.9199 72.1191 43.9453C73.3398 45.5078 74.0234 47.6074 74.0234 49.8535C74.0234 52.0996 73.3398 54.1504 72.1191 55.7617C71.3379 56.7871 71.0938 57.7637 71.7773 58.5938C72.5586 59.5215 73.9746 59.5215 74.8047 58.4961C76.709 56.1035 77.832 53.125 77.832 49.8535C77.832 46.6309 76.709 43.6035 74.8047 41.2598C73.9746 40.2344 72.5586 40.1855 71.7773 41.1133ZM46.4844 27.6855C45.3613 27.6855 44.5801 28.5645 44.5801 29.6387C44.5801 30.7129 45.3613 31.5918 46.4844 31.5918L53.125 31.5918C54.248 31.5918 55.0781 30.7129 55.0781 29.6387C55.0781 28.5645 54.248 27.6855 53.125 27.6855Z" fill="#000000" fill-opacity="0.85"/>
 </g>
</svg>
