<?xml version="1.0" encoding="UTF-8"?>
<!--Generator: Apple Native CoreSVG 232.5-->
<!DOCTYPE svg
PUBLIC "-//W3C//DTD SVG 1.1//EN"
       "http://www.w3.org/Graphics/SVG/1.1/DTD/svg11.dtd">
<svg version="1.1" xmlns="http://www.w3.org/2000/svg" xmlns:xlink="http://www.w3.org/1999/xlink" width="99.6094" height="99.6582">
 <g>
  <rect height="99.6582" opacity="0" width="99.6094" x="0" y="0"/>
  <path d="M99.6094 49.8047C99.6094 77.002 77.0508 99.6094 49.8047 99.6094C22.6074 99.6094 0 77.002 0 49.8047C0 22.5586 22.5586 0 49.7559 0C77.002 0 99.6094 22.5586 99.6094 49.8047ZM8.34961 49.8047C8.34961 72.8516 26.7578 91.3086 49.8047 91.3086C72.8516 91.3086 91.3086 72.8516 91.3086 49.8047C91.3086 26.7578 72.8027 8.30078 49.7559 8.30078C26.709 8.30078 8.34961 26.7578 8.34961 49.8047Z" fill="#000000" fill-opacity="0.85"/>
  <path d="M35.9375 43.9799L35.9375 70.6543L62.6395 70.6543L67.9341 75.9434C66.8558 78.8285 64.1449 80.6152 60.498 80.6152L39.1113 80.6152C34.3262 80.6152 31.1523 77.5391 31.1523 72.9492L31.1523 39.1997ZM47.3633 75.1465C47.3633 76.5137 48.4863 77.6367 49.8535 77.6367C51.1719 77.6367 52.2461 76.5137 52.2461 75.1465C52.2461 73.7793 51.1719 72.6562 49.8535 72.6562C48.4863 72.6562 47.3633 73.7793 47.3633 75.1465ZM68.457 26.6602L68.457 60.498L63.6719 55.7129L63.6719 28.9551L36.9141 28.9551L31.6625 23.7035C32.7305 20.7961 35.449 18.9941 39.1113 18.9941L60.498 18.9941C65.2832 18.9941 68.457 22.0703 68.457 26.6602ZM45.4102 22.998C44.7266 22.998 44.2383 23.4375 44.2383 24.1699C44.2383 24.8535 44.7266 25.3418 45.4102 25.3418L54.248 25.3418C54.9316 25.3418 55.3711 24.8535 55.3711 24.1699C55.3711 23.4375 54.9316 22.998 54.248 22.998Z" fill="#000000" fill-opacity="0.85"/>
  <path d="M71.8262 75C72.6562 75.8301 74.1211 75.8301 74.9512 75C75.8301 74.0723 75.8301 72.7539 74.9512 71.875L27.7344 24.6094C26.8555 23.7305 25.4395 23.7305 24.5605 24.6094C23.6816 25.4395 23.7305 26.9043 24.5605 27.7344Z" fill="#000000" fill-opacity="0.85"/>
 </g>
</svg>
