<?xml version="1.0" encoding="UTF-8"?>
<!--Generator: Apple Native CoreSVG 232.5-->
<!DOCTYPE svg
PUBLIC "-//W3C//DTD SVG 1.1//EN"
       "http://www.w3.org/Graphics/SVG/1.1/DTD/svg11.dtd">
<svg version="1.1" xmlns="http://www.w3.org/2000/svg" xmlns:xlink="http://www.w3.org/1999/xlink" width="105.42" height="103.467">
 <g>
  <rect height="103.467" opacity="0" width="105.42" x="0" y="0"/>
  <path d="M84.082 12.6953L84.082 90.6738C84.082 98.291 78.7598 103.369 70.8008 103.369L34.6191 103.369C26.6602 103.369 21.3379 98.291 21.3379 90.6738L21.3379 61.8164L29.1992 61.8164L29.1992 89.4043C29.1992 93.3105 31.4941 95.5078 35.6445 95.5078L69.8242 95.5078C73.9258 95.5078 76.2207 93.3105 76.2207 89.4043L76.2207 13.9648C76.2207 10.0586 73.9258 7.86133 69.8242 7.86133L35.6445 7.86133C31.4941 7.86133 29.1992 10.0586 29.1992 13.9648L29.1992 41.5039L21.3379 41.5039L21.3379 12.6953C21.3379 5.07812 26.6602 0 34.6191 0L70.8008 0C78.7598 0 84.082 5.07812 84.082 12.6953Z" fill="#000000" fill-opacity="0.85"/>
  <path d="M10.2051 55.127L42.041 55.127L52.3438 54.6387L41.6992 64.209L38.916 66.9922C38.2812 67.6758 37.8418 68.6035 37.8418 69.6289C37.8418 71.6309 39.3066 72.998 41.2109 72.998C42.1875 72.998 43.1152 72.6074 43.7988 71.9238L61.4746 54.248C62.3535 53.418 62.793 52.4902 62.793 51.6602C62.793 50.8301 62.3535 49.8047 61.4746 49.0234L43.7988 31.3965C43.1152 30.7129 42.1875 30.3223 41.2109 30.3223C39.3066 30.3223 37.8418 31.6895 37.8418 33.6426C37.8418 34.7168 38.2812 35.5957 38.916 36.2793L41.6992 39.1113L52.3438 48.6328L42.041 48.1445L10.2051 48.1445C8.00781 48.1445 6.64062 49.8535 6.64062 51.6602C6.64062 53.4668 8.00781 55.127 10.2051 55.127Z" fill="#000000" fill-opacity="0.85"/>
 </g>
</svg>
