<?xml version="1.0" encoding="UTF-8"?>
<!--Generator: Apple Native CoreSVG 232.5-->
<!DOCTYPE svg
PUBLIC "-//W3C//DTD SVG 1.1//EN"
       "http://www.w3.org/Graphics/SVG/1.1/DTD/svg11.dtd">
<svg version="1.1" xmlns="http://www.w3.org/2000/svg" xmlns:xlink="http://www.w3.org/1999/xlink" width="62.7441" height="103.467">
 <g>
  <rect height="103.467" opacity="0" width="62.7441" x="0" y="0"/>
  <path d="M54.8828 13.9648L54.8828 83.1543C54.8828 87.1094 52.5879 89.0137 48.4863 89.0137L38.9648 89.0137L38.9648 87.3535C38.9648 85.3516 37.6465 83.9355 35.6445 83.9355L27.1973 83.9355C25.1465 83.9355 23.8281 85.3516 23.8281 87.3535L23.8281 89.0137L14.3066 89.0137C10.1562 89.0137 7.86133 86.8164 7.86133 82.9102L7.86133 13.9648C7.86133 10.0586 10.1562 7.86133 14.3066 7.86133L48.4863 7.86133C52.5879 7.86133 54.8828 10.0586 54.8828 13.9648Z" fill="#000000" fill-opacity="0.2125"/>
  <path d="M13.2812 103.369L49.4629 103.369C57.4219 103.369 62.7441 98.291 62.7441 90.6738L62.7441 12.6953C62.7441 5.07812 57.4219 0 49.4629 0L13.2812 0C5.32227 0 0 5.07812 0 12.6953L0 90.6738C0 98.291 5.32227 103.369 13.2812 103.369ZM14.3066 89.0137C10.1562 89.0137 7.86133 86.8164 7.86133 82.9102L7.86133 13.9648C7.86133 10.0586 10.1562 7.86133 14.3066 7.86133L48.4863 7.86133C52.5879 7.86133 54.8828 10.0586 54.8828 13.9648L54.8828 83.1543C54.8828 87.1094 52.5879 89.0137 48.4863 89.0137ZM23.8281 90.1367L38.9648 90.1367L38.9648 87.3535C38.9648 85.3516 37.6465 83.9355 35.6445 83.9355L27.1973 83.9355C25.1465 83.9355 23.8281 85.3516 23.8281 87.3535Z" fill="#000000" fill-opacity="0.85"/>
 </g>
</svg>
