<?xml version="1.0" encoding="UTF-8"?>
<!--Generator: Apple Native CoreSVG 232.5-->
<!DOCTYPE svg
PUBLIC "-//W3C//DTD SVG 1.1//EN"
       "http://www.w3.org/Graphics/SVG/1.1/DTD/svg11.dtd">
<svg version="1.1" xmlns="http://www.w3.org/2000/svg" xmlns:xlink="http://www.w3.org/1999/xlink" width="99.6094" height="99.6582">
 <g>
  <rect height="99.6582" opacity="0" width="99.6094" x="0" y="0"/>
  <path d="M99.6094 49.8535C99.6094 77.0996 77.0508 99.6582 49.8047 99.6582C22.6074 99.6582 0 77.0996 0 49.8535C0 22.6562 22.5586 0.0488281 49.7559 0.0488281C77.002 0.0488281 99.6094 22.6562 99.6094 49.8535ZM39.8438 20.9961C35.3516 20.9961 32.3242 23.877 32.3242 28.2715L32.3242 71.4355C32.3242 75.7812 35.3516 78.7109 39.8438 78.7109L59.7656 78.7109C64.2578 78.7109 67.2852 75.7812 67.2852 71.4355L67.2852 28.2715C67.2852 23.877 64.2578 20.9961 59.7656 20.9961ZM44.3359 26.0742L44.3359 26.6602C44.3359 27.832 45.0684 28.7109 46.2402 28.7109L53.3691 28.7109C54.541 28.7109 55.2734 27.832 55.2734 26.6602L55.2734 26.0742C55.2734 25.6836 55.4688 25.4883 55.8594 25.4883L59.2285 25.4883C61.5234 25.4883 62.793 26.709 62.793 28.8574L62.793 70.8008C62.793 72.9492 61.5234 74.2188 59.2285 74.2188L40.3809 74.2188C38.0859 74.2188 36.8164 72.9492 36.8164 70.8008L36.8164 28.8574C36.8164 26.709 38.0859 25.4883 40.3809 25.4883L43.7012 25.4883C44.2383 25.4883 44.3359 25.7324 44.3359 26.0742ZM44.1406 69.5312C43.3105 69.5312 42.7734 70.0684 42.7734 70.8984C42.7734 71.7285 43.3105 72.2656 44.1406 72.2656L55.5664 72.2656C56.3477 72.2656 56.8359 71.7285 56.8359 70.8984C56.8359 70.0684 56.3477 69.5312 55.5664 69.5312ZM17.5293 34.9609C13.8672 38.9648 11.9141 44.2871 11.9141 49.8535C11.9141 55.4688 13.8672 60.791 17.5293 64.7461C18.5059 65.7227 19.7754 65.7227 20.459 64.7949C21.1426 64.0137 20.9473 62.9395 20.166 61.9629C17.1875 58.6426 15.625 54.4434 15.625 49.8535C15.625 45.2637 17.1875 41.0645 20.166 37.7441C20.9473 36.7676 21.1426 35.7422 20.459 34.9121C19.7754 33.9844 18.5059 33.9844 17.5293 34.9609ZM79.0039 34.9121C78.3203 35.7422 78.5156 36.7676 79.3457 37.7441C82.2754 41.0645 83.8867 45.2637 83.8867 49.8535C83.8867 54.4434 82.2754 58.6426 79.3457 61.9629C78.5156 62.9395 78.3203 64.0137 79.0039 64.7949C79.7363 65.7227 81.0059 65.7227 81.9336 64.7461C85.5957 60.791 87.5977 55.4688 87.5977 49.8535C87.5977 44.2871 85.5957 38.9648 81.9336 34.9609C81.0059 33.9844 79.7363 33.9844 79.0039 34.9121ZM24.707 41.2598C22.8027 43.6035 21.7285 46.6309 21.7285 49.8535C21.7285 53.125 22.8027 56.1035 24.707 58.4961C25.5859 59.5215 26.9531 59.5215 27.7344 58.5938C28.418 57.7637 28.1738 56.7871 27.3926 55.7617C26.1719 54.1504 25.5371 52.0996 25.5371 49.8535C25.5371 47.6074 26.1719 45.5078 27.3926 43.9453C28.1738 42.9199 28.418 41.9434 27.7344 41.1133C26.9531 40.1855 25.5859 40.2344 24.707 41.2598ZM71.7285 41.1133C71.0449 41.9434 71.2891 42.9199 72.0703 43.9453C73.291 45.5078 73.9746 47.6074 73.9746 49.8535C73.9746 52.0996 73.291 54.1504 72.0703 55.7617C71.2891 56.7871 71.0449 57.7637 71.7285 58.5938C72.5098 59.5215 73.9258 59.5215 74.7559 58.4961C76.6602 56.1035 77.7832 53.125 77.7832 49.8535C77.7832 46.6309 76.6602 43.6035 74.7559 41.2598C73.9258 40.2344 72.5098 40.1855 71.7285 41.1133Z" fill="#000000" fill-opacity="0.85"/>
 </g>
</svg>
