<?xml version="1.0" encoding="UTF-8"?>
<!--Generator: Apple Native CoreSVG 232.5-->
<!DOCTYPE svg
PUBLIC "-//W3C//DTD SVG 1.1//EN"
       "http://www.w3.org/Graphics/SVG/1.1/DTD/svg11.dtd">
<svg version="1.1" xmlns="http://www.w3.org/2000/svg" xmlns:xlink="http://www.w3.org/1999/xlink" width="99.6094" height="99.6582">
 <g>
  <rect height="99.6582" opacity="0" width="99.6094" x="0" y="0"/>
  <path d="M49.8047 99.6094C77.0508 99.6094 99.6094 77.002 99.6094 49.8047C99.6094 22.5586 77.002 0 49.7559 0C22.5586 0 0 22.5586 0 49.8047C0 77.002 22.6074 99.6094 49.8047 99.6094ZM49.8047 91.3086C26.7578 91.3086 8.34961 72.8516 8.34961 49.8047C8.34961 26.7578 26.709 8.30078 49.7559 8.30078C72.8027 8.30078 91.3086 26.7578 91.3086 49.8047C91.3086 72.8516 72.8516 91.3086 49.8047 91.3086Z" fill="#000000" fill-opacity="0.85"/>
  <path d="M39.0625 80.6152L60.4004 80.6152C65.1855 80.6152 68.4082 77.5391 68.4082 72.9004L68.4082 26.6602C68.4082 22.0215 65.1855 18.9941 60.4004 18.9941L39.0625 18.9941C34.3262 18.9941 31.1035 22.0215 31.1035 26.6602L31.1035 72.9004C31.1035 77.5391 34.3262 80.6152 39.0625 80.6152ZM39.6973 75.8301C37.207 75.8301 35.8398 74.5605 35.8398 72.2168L35.8398 27.3438C35.8398 25 37.207 23.7305 39.6973 23.7305L43.1641 23.7305C43.6523 23.7305 43.7988 23.9258 43.7988 24.3652L43.7988 25C43.7988 26.2207 44.5801 27.0996 45.8496 27.0996L53.6621 27.0996C54.8828 27.0996 55.7129 26.2207 55.7129 25L55.7129 24.3652C55.7129 23.9258 55.9082 23.7305 56.3477 23.7305L59.8145 23.7305C62.3047 23.7305 63.6719 25 63.6719 27.3438L63.6719 72.2168C63.6719 74.5605 62.3047 75.8301 59.8145 75.8301ZM43.6523 73.7305L55.8594 73.7305C56.6895 73.7305 57.2754 73.1934 57.2754 72.3633C57.2754 71.4844 56.6895 70.8984 55.8594 70.8984L43.6523 70.8984C42.8223 70.8984 42.2363 71.4844 42.2363 72.3633C42.2363 73.1934 42.8223 73.7305 43.6523 73.7305Z" fill="#000000" fill-opacity="0.85"/>
 </g>
</svg>
