<?xml version="1.0" encoding="UTF-8"?>
<!--Generator: Apple Native CoreSVG 232.5-->
<!DOCTYPE svg
PUBLIC "-//W3C//DTD SVG 1.1//EN"
       "http://www.w3.org/Graphics/SVG/1.1/DTD/svg11.dtd">
<svg version="1.1" xmlns="http://www.w3.org/2000/svg" xmlns:xlink="http://www.w3.org/1999/xlink" width="99.6094" height="99.6582">
 <g>
  <rect height="99.6582" opacity="0" width="99.6094" x="0" y="0"/>
  <path d="M99.6094 49.8535C99.6094 77.0996 77.0508 99.6582 49.8047 99.6582C22.6074 99.6582 0 77.0996 0 49.8535C0 22.6562 22.5586 0.0488281 49.7559 0.0488281C77.002 0.0488281 99.6094 22.6562 99.6094 49.8535ZM30.5664 73.6816C30.5664 78.4668 33.8379 81.6406 38.7695 81.6406L60.791 81.6406C64.5497 81.6406 67.3724 79.797 68.4971 76.7979L64.1602 72.4609L64.1602 72.9492C64.1602 75.3418 62.7441 76.709 60.2051 76.709L39.4043 76.709C36.8164 76.709 35.4492 75.3418 35.4492 72.9492L35.4492 43.75L30.5664 38.8672ZM23.877 23.877C22.998 24.8047 22.998 26.2695 23.877 27.0996L72.6074 75.8301C73.4375 76.6602 74.9512 76.6602 75.8301 75.8301C76.709 74.8535 76.709 73.4863 75.8301 72.6074L27.0996 23.877C26.2207 22.998 24.8047 22.998 23.877 23.877ZM43.5059 71.582C42.6758 71.582 42.041 72.168 42.041 73.0957C42.041 73.9258 42.6758 74.5117 43.5059 74.5117L56.1035 74.5117C56.9336 74.5117 57.5684 73.9258 57.5684 73.0957C57.5684 72.168 56.9336 71.582 56.1035 71.582ZM38.7695 18.0664C35.0222 18.0664 32.2334 19.8707 31.1146 22.8612L35.4492 27.1914L35.4492 26.7578C35.4492 24.3652 36.8164 22.998 39.4043 22.998L43.0176 22.998C43.457 22.998 43.6523 23.1934 43.6523 23.6328L43.6523 24.3164C43.6523 25.6348 44.4824 26.4648 45.7031 26.4648L53.8574 26.4648C55.0781 26.4648 55.957 25.6348 55.957 24.3164L55.957 23.6328C55.957 23.1934 56.1523 22.998 56.5918 22.998L60.2051 22.998C62.7441 22.998 64.1602 24.3652 64.1602 26.7578L64.1602 55.8736L69.043 60.7515L69.043 26.0254C69.043 21.1914 65.7227 18.0664 60.791 18.0664Z" fill="#000000" fill-opacity="0.85"/>
 </g>
</svg>
