<?xml version="1.0" encoding="UTF-8"?>
<!--Generator: Apple Native CoreSVG 232.5-->
<!DOCTYPE svg
PUBLIC "-//W3C//DTD SVG 1.1//EN"
       "http://www.w3.org/Graphics/SVG/1.1/DTD/svg11.dtd">
<svg version="1.1" xmlns="http://www.w3.org/2000/svg" xmlns:xlink="http://www.w3.org/1999/xlink" width="99.6094" height="100.049">
 <g>
  <rect height="100.049" opacity="0" width="99.6094" x="0" y="0"/>
  <path d="M49.8047 99.6094C77.0508 99.6094 99.6094 77.002 99.6094 49.8047C99.6094 22.5586 77.002 0 49.7559 0C22.5586 0 0 22.5586 0 49.8047C0 77.002 22.6074 99.6094 49.8047 99.6094ZM49.8047 91.3086C26.7578 91.3086 8.34961 72.8516 8.34961 49.8047C8.34961 26.7578 26.709 8.30078 49.7559 8.30078C72.8027 8.30078 91.3086 26.7578 91.3086 49.8047C91.3086 72.8516 72.8516 91.3086 49.8047 91.3086Z" fill="#000000" fill-opacity="0.85"/>
  <path d="M21.3379 64.3066C22.0215 63.4766 21.8262 62.5 21.0449 61.5723C18.1641 58.3496 16.6504 54.248 16.6504 49.8047C16.6504 45.3613 18.1641 41.2598 21.0449 38.0371C21.8262 37.1094 22.0215 36.084 21.3379 35.3027C20.7031 34.4238 19.4336 34.4238 18.5059 35.3516C14.9414 39.209 13.0371 44.3359 13.0371 49.8047C13.0371 55.2246 14.9414 60.3516 18.5059 64.2578C19.4336 65.1855 20.7031 65.1855 21.3379 64.3066ZM78.125 64.3066C78.8086 65.1855 80.0781 65.1855 80.957 64.2578C84.5215 60.3516 86.4746 55.2246 86.4746 49.8047C86.4746 44.3359 84.5215 39.209 80.957 35.3516C80.0781 34.4238 78.8086 34.4238 78.125 35.3027C77.4414 36.084 77.6367 37.1094 78.4668 38.0371C81.2988 41.2598 82.8613 45.3613 82.8613 49.8047C82.8613 54.248 81.2988 58.3496 78.4668 61.5723C77.6367 62.5 77.4414 63.4766 78.125 64.3066Z" fill="#000000" fill-opacity="0.85"/>
  <path d="M28.3691 58.3008C29.0527 57.4707 28.8086 56.543 28.0762 55.5664C26.8555 54.0039 26.2695 52.002 26.2695 49.8047C26.2695 47.6074 26.8555 45.5566 28.0762 44.043C28.8086 43.0664 29.0527 42.1387 28.3691 41.3086C27.6367 40.4297 26.3184 40.4297 25.4883 41.4062C23.6328 43.75 22.5586 46.6309 22.5586 49.8047C22.5586 52.9297 23.6328 55.8594 25.4883 58.1543C26.3184 59.1309 27.6367 59.1797 28.3691 58.3008ZM71.0938 58.3008C71.8262 59.1797 73.1934 59.1309 73.9746 58.1543C75.8301 55.8594 76.9531 52.9297 76.9531 49.8047C76.9531 46.6309 75.8301 43.75 73.9746 41.4062C73.1934 40.4297 71.8262 40.4297 71.0938 41.3086C70.4102 42.1387 70.6543 43.0664 71.3867 44.043C72.6074 45.5566 73.2422 47.6074 73.2422 49.8047C73.2422 52.002 72.6074 54.0039 71.3867 55.5664C70.6543 56.543 70.4102 57.4707 71.0938 58.3008Z" fill="#000000" fill-opacity="0.85"/>
  <path d="M40.1367 77.7344L59.4727 77.7344C63.8184 77.7344 66.748 74.9512 66.748 70.752L66.748 28.8086C66.748 24.6094 63.8184 21.8262 59.4727 21.8262L40.1367 21.8262C35.791 21.8262 32.8613 24.6094 32.8613 28.8086L32.8613 70.752C32.8613 74.9512 35.791 77.7344 40.1367 77.7344ZM40.6738 73.3887C38.4277 73.3887 37.207 72.2168 37.207 70.1172L37.207 29.4434C37.207 27.3438 38.4277 26.1719 40.6738 26.1719L58.9355 26.1719C61.1816 26.1719 62.4023 27.3438 62.4023 29.4434L62.4023 70.1172C62.4023 72.2168 61.1816 73.3887 58.9355 73.3887ZM46.5332 32.0801L52.9785 32.0801C54.0527 32.0801 54.8828 31.2012 54.8828 30.1758C54.8828 29.1504 54.0527 28.2715 52.9785 28.2715L46.5332 28.2715C45.459 28.2715 44.6777 29.1504 44.6777 30.1758C44.6777 31.2012 45.459 32.0801 46.5332 32.0801ZM44.2871 71.5332L55.3711 71.5332C56.1523 71.5332 56.6406 70.9961 56.6406 70.2637C56.6406 69.4336 56.1523 68.8965 55.3711 68.8965L44.2871 68.8965C43.5059 68.8965 42.9688 69.4336 42.9688 70.2637C42.9688 70.9961 43.5059 71.5332 44.2871 71.5332Z" fill="#000000" fill-opacity="0.85"/>
 </g>
</svg>
