<?xml version="1.0" encoding="UTF-8"?>
<!--Generator: Apple Native CoreSVG 232.5-->
<!DOCTYPE svg
PUBLIC "-//W3C//DTD SVG 1.1//EN"
       "http://www.w3.org/Graphics/SVG/1.1/DTD/svg11.dtd">
<svg version="1.1" xmlns="http://www.w3.org/2000/svg" xmlns:xlink="http://www.w3.org/1999/xlink" width="62.7441" height="103.467">
 <g>
  <rect height="103.467" opacity="0" width="62.7441" x="0" y="0"/>
  <path d="M7.86133 86.8652L7.86133 16.5527L54.8828 16.5527L54.8828 86.8652ZM31.4453 98.584C29.1016 98.584 27.1973 96.6797 27.1973 94.3359C27.1973 92.041 29.1016 90.1367 31.4453 90.1367C33.7402 90.1367 35.6445 92.041 35.6445 94.3359C35.6445 96.6797 33.7402 98.584 31.4453 98.584ZM31.4453 11.1328C29.834 11.1328 28.5156 9.81445 28.5156 8.20312C28.5156 6.64062 29.834 5.37109 31.4453 5.37109C33.0078 5.37109 34.2773 6.64062 34.2773 8.20312C34.2773 9.81445 33.0078 11.1328 31.4453 11.1328Z" fill="#000000" fill-opacity="0.2125"/>
  <path d="M0 90.7227C0 98.3398 5.32227 103.418 13.2812 103.418L49.4629 103.418C57.4219 103.418 62.7441 98.3398 62.7441 90.7227L62.7441 12.6953C62.7441 5.07812 57.4219 0 49.4629 0L13.2812 0C5.32227 0 0 5.07812 0 12.6953ZM7.86133 86.8652L7.86133 16.5527L54.8828 16.5527L54.8828 86.8652ZM31.4453 98.584C29.1016 98.584 27.1973 96.6797 27.1973 94.3359C27.1973 92.041 29.1016 90.1367 31.4453 90.1367C33.7402 90.1367 35.6445 92.041 35.6445 94.3359C35.6445 96.6797 33.7402 98.584 31.4453 98.584ZM31.4453 11.1328C29.834 11.1328 28.5156 9.81445 28.5156 8.20312C28.5156 6.64062 29.834 5.37109 31.4453 5.37109C33.0078 5.37109 34.2773 6.64062 34.2773 8.20312C34.2773 9.81445 33.0078 11.1328 31.4453 11.1328Z" fill="#000000" fill-opacity="0.85"/>
 </g>
</svg>
