<?xml version="1.0" encoding="UTF-8"?>
<!--Generator: Apple Native CoreSVG 232.5-->
<!DOCTYPE svg
PUBLIC "-//W3C//DTD SVG 1.1//EN"
       "http://www.w3.org/Graphics/SVG/1.1/DTD/svg11.dtd">
<svg version="1.1" xmlns="http://www.w3.org/2000/svg" xmlns:xlink="http://www.w3.org/1999/xlink" width="68.1641" height="63.916">
 <g>
  <rect height="63.916" opacity="0" width="68.1641" x="0" y="0"/>
  <path d="M0 52.0996C0 59.3262 4.39453 63.916 11.1816 63.916L56.9824 63.916C63.7695 63.916 68.1641 59.3262 68.1641 52.0996L68.1641 11.8164C68.1641 4.58984 63.623 0 56.9824 0L11.1816 0C4.39453 0 0 4.58984 0 11.8164ZM7.86133 51.123L7.86133 12.793C7.86133 9.7168 9.61914 7.86133 12.5 7.86133L55.6641 7.86133C58.4961 7.86133 60.3027 9.7168 60.3027 12.793L60.3027 51.123C60.3027 54.1992 58.4961 56.0547 55.6641 56.0547L12.5 56.0547C9.61914 56.0547 7.86133 54.1992 7.86133 51.123ZM34.082 50.8789C44.5312 50.8789 53.0273 42.3828 53.0273 31.9336C53.0273 21.4844 44.5312 12.9883 34.082 12.9883C23.6328 12.9883 15.1367 21.4844 15.1367 31.9336C15.1367 42.3828 23.6328 50.8789 34.082 50.8789ZM34.082 44.6289C27.002 44.6289 21.3867 39.0137 21.3867 31.9336C21.3867 24.8535 27.002 19.2383 34.082 19.2383C41.1621 19.2383 46.7773 24.8535 46.7773 31.9336C46.7773 39.0137 41.1621 44.6289 34.082 44.6289Z" fill="#000000" fill-opacity="0.85"/>
 </g>
</svg>
