<?xml version="1.0" encoding="UTF-8"?>
<!--Generator: Apple Native CoreSVG 232.5-->
<!DOCTYPE svg
PUBLIC "-//W3C//DTD SVG 1.1//EN"
       "http://www.w3.org/Graphics/SVG/1.1/DTD/svg11.dtd">
<svg version="1.1" xmlns="http://www.w3.org/2000/svg" xmlns:xlink="http://www.w3.org/1999/xlink" width="52.0508" height="103.467">
 <g>
  <rect height="103.467" opacity="0" width="52.0508" x="0" y="0"/>
  <path d="M26.0254 48.0957C34.4727 48.0957 41.3086 41.2598 41.3086 32.8125C41.3086 24.4141 34.4727 17.5293 26.0254 17.5293C17.627 17.5293 10.8398 24.4141 10.8398 32.8125C10.8398 41.2598 17.627 48.0957 26.0254 48.0957ZM26.0254 42.4316C20.752 42.4316 16.5039 38.1836 16.5039 32.8125C16.5039 27.4902 20.752 23.1934 26.0254 23.1934C31.3965 23.1934 35.6445 27.4902 35.6445 32.8125C35.6445 38.1836 31.3965 42.4316 26.0254 42.4316ZM13.2812 103.418L38.7695 103.418C46.9238 103.418 52.0508 98.4863 52.0508 90.7227L52.0508 12.6953C52.0508 4.93164 46.9238 0 38.7695 0L13.2812 0C5.12695 0 0 4.93164 0 12.6953L0 90.7227C0 98.4863 5.12695 103.418 13.2812 103.418ZM14.3066 95.5566C10.2051 95.5566 7.86133 93.3105 7.86133 89.4531L7.86133 13.9648C7.86133 10.1074 10.2051 7.86133 14.3066 7.86133L37.793 7.86133C41.8457 7.86133 44.1895 10.1074 44.1895 13.9648L44.1895 89.4531C44.1895 93.3105 41.8457 95.5566 37.793 95.5566Z" fill="#000000" fill-opacity="0.85"/>
 </g>
</svg>
