<?xml version="1.0" encoding="UTF-8"?>
<!--Generator: Apple Native CoreSVG 232.5-->
<!DOCTYPE svg
PUBLIC "-//W3C//DTD SVG 1.1//EN"
       "http://www.w3.org/Graphics/SVG/1.1/DTD/svg11.dtd">
<svg version="1.1" xmlns="http://www.w3.org/2000/svg" xmlns:xlink="http://www.w3.org/1999/xlink" width="72.3633" height="129.639">
 <g>
  <rect height="129.639" opacity="0" width="72.3633" x="0" y="0"/>
  <path d="M45.9961 9.76562L45.9961 10.1562L58.8867 10.1562C67.4316 10.1562 72.3633 15.1855 72.3633 23.877L72.3633 93.6035C72.3633 102.246 67.4316 107.324 58.8867 107.324L39.0625 107.324L39.0625 113.721C39.0625 119.336 41.9434 121.68 47.5586 121.68L68.8477 121.68C70.8008 121.68 72.3633 123.291 72.3633 125.293C72.3633 127.246 70.8008 128.809 68.8477 128.809L47.5586 128.809C37.9883 128.809 31.9336 123.291 31.9336 113.721L31.9336 107.324L13.4766 107.324C4.93164 107.324 0 102.246 0 93.6035L0 23.877C0 15.1855 4.93164 10.1562 13.4766 10.1562L26.3672 10.1562L26.3672 9.76562C26.3672 4.00391 30.3223 0.0488281 36.1816 0C42.041 0.0488281 45.9961 4.00391 45.9961 9.76562ZM13.8672 18.2617C10.2051 18.2617 8.1543 20.3613 8.1543 23.9746L8.1543 93.5059C8.1543 97.1191 10.2051 99.2188 13.8672 99.2188L58.4961 99.2188C62.1582 99.2188 64.209 97.1191 64.209 93.5059L64.209 23.9746C64.209 20.3613 62.1582 18.2617 58.4961 18.2617ZM32.6172 9.86328C32.6172 11.8652 34.1797 13.4766 36.1816 13.4766C38.1836 13.4766 39.7461 11.8652 39.7461 9.86328C39.7461 7.91016 38.1836 6.29883 36.1816 6.29883C34.1797 6.29883 32.6172 7.91016 32.6172 9.86328Z" fill="#000000" fill-opacity="0.85"/>
  <path d="M57.4219 34.9121L57.4219 87.5C57.4219 90.4297 55.4688 92.334 52.4902 92.334L19.9707 92.334C16.9922 92.334 15.0391 90.4297 15.0391 87.5L15.0391 34.9121C15.0391 31.9824 16.9922 30.0781 19.9707 30.0781L52.4902 30.0781C55.4688 30.0781 57.4219 31.9824 57.4219 34.9121ZM30.1758 77.9785C28.7109 77.9785 27.7832 79.0527 27.7832 80.4199C27.7832 81.7383 28.7109 82.7637 30.1758 82.7637L42.2852 82.7637C43.7012 82.7637 44.6777 81.7383 44.6777 80.4199C44.6777 79.0527 43.7012 77.9785 42.2852 77.9785ZM26.4648 67.7734C25 67.7734 24.0234 68.8477 24.0234 70.166C24.0234 71.5332 25 72.5586 26.4648 72.5586L46.1426 72.5586C47.5098 72.5586 48.5352 71.5332 48.5352 70.166C48.5352 68.8477 47.5098 67.7734 46.1426 67.7734ZM34.8145 39.3066L30.8594 46.6309C29.6875 48.7305 28.4668 51.0742 28.4668 53.418C28.4668 57.7148 31.9824 60.9863 36.1816 60.9863C40.4297 60.9863 43.8965 57.7148 43.8965 53.418C43.8965 51.0742 42.6758 48.7305 41.5039 46.6309L37.5488 39.3066C36.7188 37.6953 35.6445 37.7441 34.8145 39.3066Z" fill="#000000" fill-opacity="0.85"/>
 </g>
</svg>
