<?xml version="1.0" encoding="UTF-8"?>
<!--Generator: Apple Native CoreSVG 232.5-->
<!DOCTYPE svg
PUBLIC "-//W3C//DTD SVG 1.1//EN"
       "http://www.w3.org/Graphics/SVG/1.1/DTD/svg11.dtd">
<svg version="1.1" xmlns="http://www.w3.org/2000/svg" xmlns:xlink="http://www.w3.org/1999/xlink" width="99.6094" height="99.6582">
 <g>
  <rect height="99.6582" opacity="0" width="99.6094" x="0" y="0"/>
  <path d="M49.8047 99.6094C77.0508 99.6094 99.6094 77.002 99.6094 49.8047C99.6094 22.5586 77.002 0 49.7559 0C22.5586 0 0 22.5586 0 49.8047C0 77.002 22.6074 99.6094 49.8047 99.6094ZM49.8047 91.3086C26.7578 91.3086 8.34961 72.8516 8.34961 49.8047C8.34961 26.7578 26.709 8.30078 49.7559 8.30078C72.8027 8.30078 91.3086 26.7578 91.3086 49.8047C91.3086 72.8516 72.8516 91.3086 49.8047 91.3086Z" fill="#000000" fill-opacity="0.85"/>
  <path d="M47.4121 72.6562C56.9824 72.6562 62.1582 67.5293 62.1582 58.252L62.1582 30.9082C62.1582 28.2227 60.7422 26.5137 58.2031 26.5137C55.7129 26.5137 54.3457 28.3203 54.3457 30.9082L54.3457 58.1543C54.3457 63.0371 51.8555 65.9668 47.8027 65.9668C44.1406 65.9668 41.6504 64.1602 40.4785 60.9863C39.6484 59.1309 38.5742 58.3496 36.9141 58.3496C34.7656 58.3496 33.3008 59.8633 33.3008 61.9629C33.3008 62.793 33.4473 63.5254 33.6914 64.2578C35.4004 69.3359 40.6738 72.6562 47.4121 72.6562Z" fill="#000000" fill-opacity="0.85"/>
 </g>
</svg>
