<?xml version="1.0" encoding="UTF-8"?>
<!--Generator: Apple Native CoreSVG 232.5-->
<!DOCTYPE svg
PUBLIC "-//W3C//DTD SVG 1.1//EN"
       "http://www.w3.org/Graphics/SVG/1.1/DTD/svg11.dtd">
<svg version="1.1" xmlns="http://www.w3.org/2000/svg" xmlns:xlink="http://www.w3.org/1999/xlink" width="89.8926" height="89.9902">
 <g>
  <rect height="89.9902" opacity="0" width="89.8926" x="0" y="0"/>
  <path d="M89.8926 15.2344L89.8926 74.8535C89.8926 84.9121 84.8145 89.9902 74.5605 89.9902L15.332 89.9902C5.12695 89.9902 0 84.9609 0 74.8535L0 15.2344C0 5.12695 5.12695 0.0976562 15.332 0.0976562L74.5605 0.0976562C84.8145 0.0976562 89.8926 5.17578 89.8926 15.2344ZM49.707 25.4883L49.707 53.5645C49.707 58.5938 47.1191 61.6211 42.9688 61.6211C39.209 61.6211 36.7188 59.7656 35.4492 56.4941C34.5703 54.5898 33.4473 53.7598 31.7383 53.7598C29.4922 53.7598 27.9785 55.3223 27.9785 57.5195C27.9785 58.3984 28.125 59.1309 28.418 59.9121C30.1758 65.1367 35.5957 68.5547 42.5781 68.5547C52.4414 68.5547 57.8125 63.2812 57.8125 53.6621L57.8125 25.4883C57.8125 22.7051 56.3965 20.9473 53.7109 20.9473C51.123 20.9473 49.707 22.8027 49.707 25.4883Z" fill="#000000" fill-opacity="0.85"/>
 </g>
</svg>
