<?xml version="1.0" encoding="UTF-8"?>
<!--Generator: Apple Native CoreSVG 232.5-->
<!DOCTYPE svg
PUBLIC "-//W3C//DTD SVG 1.1//EN"
       "http://www.w3.org/Graphics/SVG/1.1/DTD/svg11.dtd">
<svg version="1.1" xmlns="http://www.w3.org/2000/svg" xmlns:xlink="http://www.w3.org/1999/xlink" width="103.32" height="102.393">
 <g>
  <rect height="102.393" opacity="0" width="103.32" x="0" y="0"/>
  <path d="M103.32 37.8418L103.32 87.2559C103.32 97.3145 98.2422 102.393 88.0371 102.393L39.0137 102.393C28.8086 102.393 23.6816 97.3145 23.6816 87.2559L23.6816 79.7852L31.543 79.7852L31.543 86.8164C31.543 91.8945 34.3262 94.5312 39.1113 94.5312L87.8906 94.5312C92.7734 94.5312 95.459 91.8945 95.459 86.8164L95.459 38.2812C95.459 33.2031 92.7734 30.5664 87.8906 30.5664L79.6387 30.5664L79.6387 22.7051L88.0371 22.7051C98.2422 22.7051 103.32 27.7344 103.32 37.8418Z" fill="#000000" fill-opacity="0.85"/>
  <path d="M64.3555 0.0976562L15.332 0.0976562C5.12695 0.0976562 0 5.17578 0 15.2344L0 64.6484C0 74.707 5.12695 79.7852 15.332 79.7852L64.3555 79.7852C74.5605 79.7852 79.6387 74.707 79.6387 64.6484L79.6387 15.2344C79.6387 5.17578 74.5605 0.0976562 64.3555 0.0976562ZM64.209 7.95898C69.0918 7.95898 71.7773 10.5957 71.7773 15.6738L71.7773 64.209C71.7773 69.2871 69.0918 71.9238 64.209 71.9238L15.4297 71.9238C10.6445 71.9238 7.86133 69.2871 7.86133 64.209L7.86133 15.6738C7.86133 10.5957 10.6445 7.95898 15.4297 7.95898Z" fill="#000000" fill-opacity="0.85"/>
  <path d="M37.5 62.793C47.1191 62.793 52.2461 57.666 52.2461 48.4375L52.2461 21.0449C52.2461 18.3594 50.8789 16.6992 48.291 16.6992C45.8008 16.6992 44.4336 18.457 44.4336 21.0449L44.4336 48.3398C44.4336 53.1738 41.9434 56.1035 37.8906 56.1035C34.2285 56.1035 31.7871 54.2969 30.5664 51.123C29.7363 49.2676 28.6621 48.4863 27.002 48.4863C24.8535 48.4863 23.3887 50 23.3887 52.0996C23.3887 52.9297 23.5352 53.6621 23.7793 54.3945C25.4883 59.4727 30.7617 62.793 37.5 62.793Z" fill="#000000" fill-opacity="0.85"/>
 </g>
</svg>
