<?xml version="1.0" encoding="UTF-8"?>
<!--Generator: Apple Native CoreSVG 232.5-->
<!DOCTYPE svg
PUBLIC "-//W3C//DTD SVG 1.1//EN"
       "http://www.w3.org/Graphics/SVG/1.1/DTD/svg11.dtd">
<svg version="1.1" xmlns="http://www.w3.org/2000/svg" xmlns:xlink="http://www.w3.org/1999/xlink" width="89.8926" height="89.9902">
 <g>
  <rect height="89.9902" opacity="0" width="89.8926" x="0" y="0"/>
  <path d="M15.332 89.9902L74.5605 89.9902C84.8145 89.9902 89.8926 84.9121 89.8926 74.8535L89.8926 15.2344C89.8926 5.17578 84.8145 0.0976562 74.5605 0.0976562L15.332 0.0976562C5.12695 0.0976562 0 5.12695 0 15.2344L0 74.8535C0 84.9609 5.12695 89.9902 15.332 89.9902ZM15.4297 82.1289C10.5469 82.1289 7.86133 79.541 7.86133 74.4629L7.86133 15.625C7.86133 10.5469 10.5469 7.95898 15.4297 7.95898L74.4629 7.95898C79.2969 7.95898 82.0312 10.5469 82.0312 15.625L82.0312 74.4629C82.0312 79.541 79.2969 82.1289 74.4629 82.1289Z" fill="#000000" fill-opacity="0.85"/>
  <path d="M42.627 67.8223C52.1973 67.8223 57.373 62.6953 57.373 53.418L57.373 26.0742C57.373 23.3887 56.0059 21.6797 53.418 21.6797C50.9277 21.6797 49.5605 23.4863 49.5605 26.0742L49.5605 53.3203C49.5605 58.2031 47.0703 61.1328 43.0176 61.1328C39.3555 61.1328 36.9141 59.3262 35.6934 56.1523C34.8633 54.2969 33.7891 53.5156 32.1289 53.5156C29.9805 53.5156 28.5156 55.0293 28.5156 57.1289C28.5156 57.959 28.6621 58.6914 28.9062 59.4238C30.6152 64.502 35.8887 67.8223 42.627 67.8223Z" fill="#000000" fill-opacity="0.85"/>
 </g>
</svg>
