<?xml version="1.0" encoding="UTF-8"?>
<!--Generator: Apple Native CoreSVG 232.5-->
<!DOCTYPE svg
PUBLIC "-//W3C//DTD SVG 1.1//EN"
       "http://www.w3.org/Graphics/SVG/1.1/DTD/svg11.dtd">
<svg version="1.1" xmlns="http://www.w3.org/2000/svg" xmlns:xlink="http://www.w3.org/1999/xlink" width="99.6094" height="99.6582">
 <g>
  <rect height="99.6582" opacity="0" width="99.6094" x="0" y="0"/>
  <path d="M99.6094 49.8047C99.6094 77.002 77.0508 99.6094 49.8047 99.6094C22.6074 99.6094 0 77.002 0 49.8047C0 22.5586 22.5586 0 49.7559 0C77.002 0 99.6094 22.5586 99.6094 49.8047ZM60.8887 27.3926L41.0645 47.6074L40.7715 47.6074L40.7715 30.3711C40.7715 27.4902 39.3066 25.7812 36.6699 25.7812C34.1797 25.7812 32.666 27.4902 32.666 30.3711L32.666 68.3105C32.666 71.1914 34.1797 72.9004 36.6699 72.9004C39.3066 72.9004 40.7715 71.1914 40.7715 68.3105L40.7715 57.9102L46.9238 51.5625L61.5723 70.8984C62.5977 72.2656 63.6719 72.9004 65.0879 72.9004C67.3828 72.9004 68.9941 71.2891 68.9941 69.0918C68.9941 68.0664 68.5547 66.9922 67.8223 66.0156L52.832 46.3379L66.6016 32.1777C67.5293 31.2012 67.8711 30.3711 67.8711 29.248C67.8711 27.3438 66.2598 25.7812 64.1602 25.7812C62.9395 25.7812 62.0605 26.2695 60.8887 27.3926Z" fill="#000000" fill-opacity="0.85"/>
 </g>
</svg>
