<?xml version="1.0" encoding="UTF-8"?>
<!--Generator: Apple Native CoreSVG 232.5-->
<!DOCTYPE svg
PUBLIC "-//W3C//DTD SVG 1.1//EN"
       "http://www.w3.org/Graphics/SVG/1.1/DTD/svg11.dtd">
<svg version="1.1" xmlns="http://www.w3.org/2000/svg" xmlns:xlink="http://www.w3.org/1999/xlink" width="99.6094" height="99.6582">
 <g>
  <rect height="99.6582" opacity="0" width="99.6094" x="0" y="0"/>
  <path d="M49.8047 99.6094C77.0508 99.6094 99.6094 77.002 99.6094 49.8047C99.6094 22.5586 77.002 0 49.7559 0C22.5586 0 0 22.5586 0 49.8047C0 77.002 22.6074 99.6094 49.8047 99.6094ZM49.8047 91.3086C26.7578 91.3086 8.34961 72.8516 8.34961 49.8047C8.34961 26.7578 26.709 8.30078 49.7559 8.30078C72.8027 8.30078 91.3086 26.7578 91.3086 49.8047C91.3086 72.8516 72.8516 91.3086 49.8047 91.3086Z" fill="#000000" fill-opacity="0.85"/>
  <path d="M37.0117 72.168C39.5508 72.168 40.9668 70.5078 40.9668 67.7734L40.9668 57.6172L46.9238 51.4648L61.1816 70.2637C62.1582 71.582 63.1836 72.168 64.5508 72.168C66.748 72.168 68.3105 70.6055 68.3105 68.5059C68.3105 67.5293 67.9199 66.4551 67.1875 65.5273L52.6367 46.4355L66.0156 32.666C66.8945 31.7383 67.2363 30.9082 67.2363 29.834C67.2363 28.0273 65.6738 26.5137 63.6719 26.5137C62.4512 26.5137 61.6211 26.9531 60.498 28.0762L41.2598 47.7051L40.9668 47.7051L40.9668 30.9082C40.9668 28.1738 39.5508 26.5137 37.0117 26.5137C34.6191 26.5137 33.1543 28.1738 33.1543 30.9082L33.1543 67.7734C33.1543 70.5078 34.6191 72.168 37.0117 72.168Z" fill="#000000" fill-opacity="0.85"/>
 </g>
</svg>
