<?xml version="1.0" encoding="UTF-8"?>
<!--Generator: Apple Native CoreSVG 232.5-->
<!DOCTYPE svg
PUBLIC "-//W3C//DTD SVG 1.1//EN"
       "http://www.w3.org/Graphics/SVG/1.1/DTD/svg11.dtd">
<svg version="1.1" xmlns="http://www.w3.org/2000/svg" xmlns:xlink="http://www.w3.org/1999/xlink" width="52.6367" height="72.3145">
 <g>
  <rect height="72.3145" opacity="0" width="52.6367" x="0" y="0"/>
  <path d="M4.44336 72.3145C7.22656 72.3145 9.0332 70.5566 9.0332 67.7734L9.0332 47.5098L17.334 38.6719L43.8965 69.873C45.459 71.6797 46.5332 72.3145 48.1934 72.3145C50.7812 72.3145 52.6367 70.5566 52.6367 68.1641C52.6367 66.9434 52.0508 65.7227 50.8789 64.3555L23.7305 32.2754L48.2422 7.08008C49.2188 6.05469 49.6582 5.12695 49.6582 4.05273C49.6582 1.85547 47.8516 0.146484 45.6055 0.146484C44.2871 0.146484 43.2617 0.537109 41.9922 1.85547L9.47266 35.9375L9.0332 35.9375L9.0332 4.63867C9.0332 1.9043 7.22656 0.146484 4.44336 0.146484C1.70898 0.146484 0 1.9043 0 4.63867L0 67.7734C0 70.5566 1.70898 72.3145 4.44336 72.3145Z" fill="#000000" fill-opacity="0.85"/>
 </g>
</svg>
