<?xml version="1.0" encoding="UTF-8"?>
<!--Generator: Apple Native CoreSVG 232.5-->
<!DOCTYPE svg
PUBLIC "-//W3C//DTD SVG 1.1//EN"
       "http://www.w3.org/Graphics/SVG/1.1/DTD/svg11.dtd">
<svg version="1.1" xmlns="http://www.w3.org/2000/svg" xmlns:xlink="http://www.w3.org/1999/xlink" width="121.684" height="65.3809">
 <g>
  <rect height="65.3809" opacity="0" width="121.684" x="0" y="0"/>
  <path d="M1.41818 29.2969C-0.339634 31.2988-0.583774 34.1309 1.36935 36.0352L16.4084 51.123C18.3615 53.0762 21.3401 52.9785 23.1955 51.0742L30.7151 43.5547L41.7502 54.541C43.6057 56.4453 46.5842 56.3965 48.4885 54.4922L58.7912 44.2871C65.1877 57.7148 76.174 65.2832 89.1135 65.2832C107.18 65.2832 121.682 50.7324 121.682 32.666C121.682 14.5508 107.229 0 89.1135 0C76.0764 0 64.4065 7.51953 59.2307 19.3848L13.0881 19.3848C11.4768 19.3848 9.6213 19.873 8.4006 21.3379ZM9.08419 32.666L14.5041 27.2949L64.8459 27.2949C67.4826 15.7715 77.3459 7.8125 89.1135 7.8125C102.785 7.8125 113.821 18.8965 113.821 32.666C113.821 46.3867 102.834 57.4219 89.1135 57.4219C77.4924 57.4219 67.4826 49.4141 64.5529 37.1582L54.6408 37.1582L45.0705 46.7285L34.8166 36.377L26.76 36.377L19.8752 43.3105ZM90.5783 32.666C90.5783 37.0605 94.1428 40.625 98.5373 40.625C102.932 40.625 106.447 37.0605 106.447 32.666C106.447 28.2227 102.932 24.7559 98.5373 24.7559C94.1428 24.7559 90.5783 28.2715 90.5783 32.666Z" fill="#000000" fill-opacity="0.85"/>
 </g>
</svg>
