<?xml version="1.0" encoding="UTF-8"?>
<!--Generator: Apple Native CoreSVG 232.5-->
<!DOCTYPE svg
PUBLIC "-//W3C//DTD SVG 1.1//EN"
       "http://www.w3.org/Graphics/SVG/1.1/DTD/svg11.dtd">
<svg version="1.1" xmlns="http://www.w3.org/2000/svg" xmlns:xlink="http://www.w3.org/1999/xlink" width="120.508" height="62.4512">
 <g>
  <rect height="62.4512" opacity="0" width="120.508" x="0" y="0"/>
  <path d="M120.508 31.2012C120.508 13.8672 106.641 0 89.4043 0C76.3184 0 64.8438 7.8125 60.2051 20.0195L12.0117 20.0195C10.7422 20.0195 9.86328 20.4102 8.88672 21.3379L0.683594 29.4922C-0.0976562 30.2734-0.341797 31.9336 0.683594 32.959L16.1621 48.4375C17.2363 49.4629 18.6523 49.4141 19.6777 48.4375L29.1504 38.8672L42.2852 52.002C43.2617 52.9785 44.6777 52.9785 45.752 51.9043L58.8867 38.8672C64.8926 53.9551 76.0254 62.3535 89.4043 62.3535C106.592 62.3535 120.508 48.4863 120.508 31.2012ZM91.8457 31.2012C91.8457 26.6602 95.5078 23.0469 100.049 23.0469C104.59 23.0469 108.203 26.6113 108.203 31.2012C108.203 35.7422 104.59 39.4043 100.049 39.4043C95.5078 39.4043 91.8457 35.7422 91.8457 31.2012Z" fill="#000000" fill-opacity="0.85"/>
 </g>
</svg>
