<?xml version="1.0" encoding="UTF-8"?>
<!--Generator: Apple Native CoreSVG 232.5-->
<!DOCTYPE svg
PUBLIC "-//W3C//DTD SVG 1.1//EN"
       "http://www.w3.org/Graphics/SVG/1.1/DTD/svg11.dtd">
<svg version="1.1" xmlns="http://www.w3.org/2000/svg" xmlns:xlink="http://www.w3.org/1999/xlink" width="106.543" height="125.639">
 <g>
  <rect height="125.639" opacity="0" width="106.543" x="0" y="0"/>
  <path d="M91.2598 67.7757C93.0664 68.9964 95.3125 68.6058 96.582 66.7015C102.832 58.1077 106.543 46.2913 106.543 34.2308C106.543 22.1702 102.881 10.2561 96.582 1.76005C95.3125-0.0954158 93.0664-0.534869 91.2598 0.685834C89.4531 1.90654 89.1602 4.20146 90.5762 6.20341C95.8984 13.7718 98.9746 23.8304 98.9746 34.2308C98.9746 44.68 95.8008 54.6897 90.5762 62.2581C89.209 64.2601 89.4531 66.555 91.2598 67.7757Z" fill="#000000" fill-opacity="0.85"/>
  <path d="M73.1445 55.0804C74.8047 56.2034 77.0996 55.8128 78.418 53.9573C82.1289 48.9768 84.375 41.7015 84.375 34.2308C84.375 26.7601 82.1289 19.5335 78.418 14.553C77.0996 12.6487 74.8047 12.3069 73.1445 13.4788C71.1914 14.846 70.8496 17.2386 72.3633 19.2405C75.2441 23.1468 76.8066 28.5667 76.8066 34.2308C76.8066 39.8948 75.1953 45.2659 72.3633 49.221C70.8984 51.2718 71.1914 53.6643 73.1445 55.0804Z" fill="#000000" fill-opacity="0.85"/>
  <path d="M31.2012 2.93193C13.8184 2.93193 0 16.7503 0 34.0354C0 47.0726 7.8125 58.596 20.0195 63.2347L20.0195 111.428C20.0195 112.649 20.4102 113.576 21.2891 114.504L29.4434 122.707C30.2734 123.537 31.9336 123.782 32.959 122.756L48.4375 107.278C49.4629 106.203 49.4141 104.787 48.4375 103.762L38.8184 94.2893L52.002 81.1546C52.9297 80.178 52.9297 78.762 51.9043 77.6878L38.8672 64.553C53.9551 58.5472 62.3535 47.4143 62.3535 34.0354C62.3535 16.8479 48.4375 2.93193 31.2012 2.93193ZM31.2012 31.5452C26.6602 31.5452 23.0469 27.8831 23.0469 23.3909C23.0469 18.8499 26.6113 15.2366 31.2012 15.2366C35.6934 15.2366 39.3555 18.8499 39.3555 23.3909C39.3555 27.8831 35.6934 31.5452 31.2012 31.5452Z" fill="#000000" fill-opacity="0.85"/>
 </g>
</svg>
