<?xml version="1.0" encoding="UTF-8"?>
<!--Generator: Apple Native CoreSVG 232.5-->
<!DOCTYPE svg
PUBLIC "-//W3C//DTD SVG 1.1//EN"
       "http://www.w3.org/Graphics/SVG/1.1/DTD/svg11.dtd">
<svg version="1.1" xmlns="http://www.w3.org/2000/svg" xmlns:xlink="http://www.w3.org/1999/xlink" width="114.233" height="122.314">
 <g>
  <rect height="122.314" opacity="0" width="114.233" x="0" y="0"/>
  <path d="M51.7456 74.0182L51.7456 107.227L57.1167 112.598L67.7612 101.807L60.8276 94.9707L60.8276 86.8652L62.7297 84.9901L68.359 90.6132L68.0054 90.9668L75.5249 98.4863C77.4292 100.391 77.5269 103.32 75.5737 105.273L60.4858 120.361C58.5815 122.266 55.7495 122.021 53.7476 120.312L45.7886 113.33C44.3237 112.061 43.8354 110.205 43.8354 108.594L43.8354 66.1168ZM89.7339 32.5684C89.7339 45.4756 82.2597 56.3575 68.9824 62.8135L62.963 56.7975C74.4566 53.4917 81.8726 43.7988 81.8726 32.5684C81.8726 18.8965 70.8374 7.86133 57.1167 7.86133C45.3467 7.86133 35.5389 15.9243 32.9638 26.8149L26.7333 20.5879C31.4665 8.47262 43.2468 0 57.1167 0C75.1831 0 89.7339 14.5508 89.7339 32.5684ZM65.0757 23.1445C65.0757 27.5391 61.5112 31.1035 57.1167 31.1035C52.7222 31.1035 49.2065 27.5391 49.2065 23.1445C49.2065 18.7988 52.6733 15.2832 57.1167 15.2832C61.5112 15.2832 65.0757 18.7988 65.0757 23.1445Z" fill="#000000" fill-opacity="0.85"/>
  <path d="M7.26318 20.7031L95.5933 108.936C97.0581 110.4 99.4995 110.4 100.916 108.936C102.332 107.422 102.38 105.078 100.916 103.613L12.6343 15.3809C11.1694 13.916 8.77686 13.916 7.26318 15.3809C5.84717 16.7969 5.84717 19.2871 7.26318 20.7031Z" fill="#000000" fill-opacity="0.85"/>
 </g>
</svg>
