<?xml version="1.0" encoding="UTF-8"?>
<!--Generator: Apple Native CoreSVG 232.5-->
<!DOCTYPE svg
PUBLIC "-//W3C//DTD SVG 1.1//EN"
       "http://www.w3.org/Graphics/SVG/1.1/DTD/svg11.dtd">
<svg version="1.1" xmlns="http://www.w3.org/2000/svg" xmlns:xlink="http://www.w3.org/1999/xlink" width="62.3535" height="121.224">
 <g>
  <rect height="121.224" opacity="0" width="62.3535" x="0" y="0"/>
  <path d="M31.2012 0.72451C13.8184 0.72451 0 14.5429 0 31.828C0 44.8651 7.8125 56.3886 20.0195 61.0272L20.0195 109.221C20.0195 110.441 20.4102 111.369 21.2891 112.297L29.4434 120.5C30.2734 121.33 31.9336 121.574 32.959 120.549L48.4375 105.07C49.4629 103.996 49.4141 102.58 48.4375 101.555L38.8184 92.0819L52.002 78.9472C52.9297 77.9706 52.9297 76.5546 51.9043 75.4804L38.8672 62.3456C53.9551 56.3397 62.3535 45.2069 62.3535 31.828C62.3535 14.6405 48.4375 0.72451 31.2012 0.72451ZM31.2012 29.3378C26.6602 29.3378 23.0469 25.6757 23.0469 21.1835C23.0469 16.6425 26.6113 13.0292 31.2012 13.0292C35.6934 13.0292 39.3555 16.6425 39.3555 21.1835C39.3555 25.6757 35.6934 29.3378 31.2012 29.3378Z" fill="#000000" fill-opacity="0.85"/>
 </g>
</svg>
