<?xml version="1.0" encoding="UTF-8"?>
<!--Generator: Apple Native CoreSVG 232.5-->
<!DOCTYPE svg
PUBLIC "-//W3C//DTD SVG 1.1//EN"
       "http://www.w3.org/Graphics/SVG/1.1/DTD/svg11.dtd">
<svg version="1.1" xmlns="http://www.w3.org/2000/svg" xmlns:xlink="http://www.w3.org/1999/xlink" width="155.542" height="125.639">
 <g>
  <rect height="125.639" opacity="0" width="155.542" x="0" y="0"/>
  <path d="M66.8689 90.7871L63.3667 94.2893L72.937 103.762C73.9136 104.787 73.9624 106.203 72.937 107.278L57.4585 122.756C56.4331 123.782 54.7729 123.537 53.9917 122.707L45.8374 114.504C44.9097 113.576 44.519 112.649 44.519 111.428L44.519 68.462ZM121.13 1.76005C127.429 10.2561 131.042 22.1702 131.042 34.2308C131.042 46.2913 127.38 58.1077 121.13 66.7015C119.812 68.6058 117.566 68.9964 115.759 67.7757C113.953 66.555 113.708 64.2601 115.076 62.2581C120.3 54.6897 123.474 44.68 123.474 34.2308C123.474 23.8304 120.398 13.7718 115.076 6.20341C113.66 4.20146 113.953 1.90654 115.759 0.685834C117.566-0.534869 119.812-0.0954158 121.13 1.76005ZM86.853 34.0354C86.853 46.2009 79.909 56.5092 67.2859 62.7804L26.7847 22.3016C31.381 10.8951 42.5419 2.93193 55.7007 2.93193C72.9858 2.93193 86.853 16.8479 86.853 34.0354ZM102.917 14.553C106.677 19.5335 108.923 26.7601 108.923 34.2308C108.923 41.7015 106.677 48.9768 102.917 53.9573C101.599 55.8128 99.3042 56.2034 97.644 55.0804C95.6909 53.6643 95.3979 51.2718 96.9116 49.221C99.6948 45.2659 101.355 39.8948 101.355 34.2308C101.355 28.5667 99.7437 23.1468 96.9116 19.2405C95.3491 17.2386 95.6909 14.846 97.644 13.4788C99.3042 12.3069 101.599 12.6487 102.917 14.553ZM47.5464 23.3909C47.5464 27.8831 51.1597 31.5452 55.7007 31.5452C60.2417 31.5452 63.9038 27.8831 63.9038 23.3909C63.9038 18.8499 60.2417 15.2366 55.7007 15.2366C51.1108 15.2366 47.5464 18.8499 47.5464 23.3909Z" fill="#000000" fill-opacity="0.85"/>
  <path d="M7.26318 22.3655L95.5933 110.598C97.0581 112.063 99.4995 112.063 100.916 110.598C102.332 109.084 102.38 106.741 100.916 105.276L12.6343 17.0433C11.1694 15.5784 8.77686 15.5784 7.26318 17.0433C5.84717 18.4593 5.84717 20.9495 7.26318 22.3655Z" fill="#000000" fill-opacity="0.85"/>
 </g>
</svg>
