<?xml version="1.0" encoding="UTF-8"?>
<!--Generator: Apple Native CoreSVG 232.5-->
<!DOCTYPE svg
PUBLIC "-//W3C//DTD SVG 1.1//EN"
       "http://www.w3.org/Graphics/SVG/1.1/DTD/svg11.dtd">
<svg version="1.1" xmlns="http://www.w3.org/2000/svg" xmlns:xlink="http://www.w3.org/1999/xlink" width="111.401" height="121.224">
 <g>
  <rect height="121.224" opacity="0" width="111.401" x="0" y="0"/>
  <path d="M66.8689 88.5797L63.3667 92.0819L72.937 101.555C73.9136 102.58 73.9624 103.996 72.937 105.07L57.4585 120.549C56.4331 121.574 54.7729 121.33 53.9917 120.5L45.8374 112.297C44.9097 111.369 44.519 110.441 44.519 109.221L44.519 66.2546ZM86.853 31.828C86.853 43.9935 79.909 54.3018 67.2859 60.5729L26.7847 20.0941C31.381 8.68772 42.5419 0.72451 55.7007 0.72451C72.9858 0.72451 86.853 14.6405 86.853 31.828ZM47.5464 21.1835C47.5464 25.6757 51.1597 29.3378 55.7007 29.3378C60.2417 29.3378 63.9038 25.6757 63.9038 21.1835C63.9038 16.6425 60.2417 13.0292 55.7007 13.0292C51.1108 13.0292 47.5464 16.6425 47.5464 21.1835Z" fill="#000000" fill-opacity="0.85"/>
  <path d="M7.26318 20.1581L95.5933 108.391C97.0581 109.855 99.4995 109.855 100.916 108.391C102.332 106.877 102.38 104.533 100.916 103.068L12.6343 14.8358C11.1694 13.371 8.77686 13.371 7.26318 14.8358C5.84717 16.2519 5.84717 18.7421 7.26318 20.1581Z" fill="#000000" fill-opacity="0.85"/>
 </g>
</svg>
