<?xml version="1.0" encoding="UTF-8"?>
<!--Generator: Apple Native CoreSVG 232.5-->
<!DOCTYPE svg
PUBLIC "-//W3C//DTD SVG 1.1//EN"
       "http://www.w3.org/Graphics/SVG/1.1/DTD/svg11.dtd">
<svg version="1.1" xmlns="http://www.w3.org/2000/svg" xmlns:xlink="http://www.w3.org/1999/xlink" width="122.9" height="129.932">
 <g>
  <rect height="129.932" opacity="0" width="122.9" x="0" y="0"/>
  <path d="M15.332 103.516L107.568 103.516C117.725 103.516 122.9 98.4375 122.9 88.3789L122.9 41.4551C122.9 31.4453 117.725 26.3672 107.568 26.3672L15.332 26.3672C5.07812 26.3672 0 31.3965 0 41.4551L0 88.3789C0 98.4375 5.07812 103.516 15.332 103.516ZM18.5059 53.2227C17.1387 53.2227 16.3086 52.3438 16.3086 50.9766L16.3086 46.3379C16.3086 44.9707 17.1387 44.0918 18.5059 44.0918L23.1445 44.0918C24.5605 44.0918 25.4395 44.9707 25.4395 46.3379L25.4395 50.9766C25.4395 52.3438 24.5605 53.2227 23.1445 53.2227ZM34.7168 53.2227C33.3008 53.2227 32.4707 52.3438 32.4707 50.9766L32.4707 46.3379C32.4707 44.9707 33.3008 44.0918 34.7168 44.0918L39.3555 44.0918C40.7227 44.0918 41.6016 44.9707 41.6016 46.3379L41.6016 50.9766C41.6016 52.3438 40.7227 53.2227 39.3555 53.2227ZM50.9277 53.2227C49.5605 53.2227 48.6816 52.3438 48.6816 50.9766L48.6816 46.3379C48.6816 44.9707 49.5605 44.0918 50.9277 44.0918L55.5176 44.0918C56.9336 44.0918 57.8125 44.9707 57.8125 46.3379L57.8125 50.9766C57.8125 52.3438 56.9336 53.2227 55.5176 53.2227ZM67.1387 53.2227C65.7715 53.2227 64.8926 52.3438 64.8926 50.9766L64.8926 46.3379C64.8926 44.9707 65.7715 44.0918 67.1387 44.0918L71.7773 44.0918C73.1445 44.0918 74.0234 44.9707 74.0234 46.3379L74.0234 50.9766C74.0234 52.3438 73.1445 53.2227 71.7773 53.2227ZM83.3496 53.2227C81.9336 53.2227 81.0547 52.3438 81.0547 50.9766L81.0547 46.3379C81.0547 44.9707 81.9336 44.0918 83.3496 44.0918L87.9883 44.0918C89.3555 44.0918 90.1855 44.9707 90.1855 46.3379L90.1855 50.9766C90.1855 52.3438 89.3555 53.2227 87.9883 53.2227ZM99.5605 53.2227C98.1445 53.2227 97.2656 52.3438 97.2656 50.9766L97.2656 46.3379C97.2656 44.9707 98.1445 44.0918 99.5605 44.0918L104.15 44.0918C105.566 44.0918 106.396 44.9707 106.396 46.3379L106.396 50.9766C106.396 52.3438 105.566 53.2227 104.15 53.2227ZM18.5059 69.4336C17.1387 69.4336 16.3086 68.5547 16.3086 67.1875L16.3086 62.5488C16.3086 61.1816 17.1387 60.3027 18.5059 60.3027L23.1445 60.3027C24.5605 60.3027 25.4395 61.1816 25.4395 62.5488L25.4395 67.1875C25.4395 68.5547 24.5605 69.4336 23.1445 69.4336ZM34.7168 69.4336C33.3008 69.4336 32.4707 68.5547 32.4707 67.1875L32.4707 62.5488C32.4707 61.1816 33.3008 60.3027 34.7168 60.3027L39.3555 60.3027C40.7227 60.3027 41.6016 61.1816 41.6016 62.5488L41.6016 67.1875C41.6016 68.5547 40.7227 69.4336 39.3555 69.4336ZM50.9277 69.4336C49.5605 69.4336 48.6816 68.5547 48.6816 67.1875L48.6816 62.5488C48.6816 61.1816 49.5605 60.3027 50.9277 60.3027L55.5176 60.3027C56.9336 60.3027 57.8125 61.1816 57.8125 62.5488L57.8125 67.1875C57.8125 68.5547 56.9336 69.4336 55.5176 69.4336ZM67.1387 69.4336C65.7715 69.4336 64.8926 68.5547 64.8926 67.1875L64.8926 62.5488C64.8926 61.1816 65.7715 60.3027 67.1387 60.3027L71.7773 60.3027C73.1445 60.3027 74.0234 61.1816 74.0234 62.5488L74.0234 67.1875C74.0234 68.5547 73.1445 69.4336 71.7773 69.4336ZM83.3496 69.4336C81.9336 69.4336 81.0547 68.5547 81.0547 67.1875L81.0547 62.5488C81.0547 61.1816 81.9336 60.3027 83.3496 60.3027L87.9883 60.3027C89.3555 60.3027 90.1855 61.1816 90.1855 62.5488L90.1855 67.1875C90.1855 68.5547 89.3555 69.4336 87.9883 69.4336ZM99.5605 69.4336C98.1445 69.4336 97.2656 68.5547 97.2656 67.1875L97.2656 62.5488C97.2656 61.1816 98.1445 60.3027 99.5605 60.3027L104.15 60.3027C105.566 60.3027 106.396 61.1816 106.396 62.5488L106.396 67.1875C106.396 68.5547 105.566 69.4336 104.15 69.4336ZM18.5059 85.6445C17.1387 85.6445 16.3086 84.7656 16.3086 83.3984L16.3086 78.7598C16.3086 77.3926 17.1387 76.5137 18.5059 76.5137L23.1445 76.5137C24.5605 76.5137 25.4395 77.3926 25.4395 78.7598L25.4395 83.3984C25.4395 84.7656 24.5605 85.6445 23.1445 85.6445ZM35.2539 85.6445C33.4961 85.6445 32.4707 84.6191 32.4707 82.8613L32.4707 79.248C32.4707 77.5391 33.4961 76.5137 35.2539 76.5137L87.4512 76.5137C89.1602 76.5137 90.1855 77.5391 90.1855 79.248L90.1855 82.8613C90.1855 84.6191 89.1602 85.6445 87.4512 85.6445ZM99.5605 85.6445C98.1445 85.6445 97.2656 84.7656 97.2656 83.3984L97.2656 78.7598C97.2656 77.3926 98.1445 76.5137 99.5605 76.5137L104.15 76.5137C105.566 76.5137 106.396 77.3926 106.396 78.7598L106.396 83.3984C106.396 84.7656 105.566 85.6445 104.15 85.6445Z" fill="#000000" fill-opacity="0.85"/>
  <path d="M61.4258 129.932C63.3301 129.932 65.7715 128.906 67.7246 128.223L93.1152 118.896C95.0195 118.213 95.752 116.504 95.752 115.381C95.752 113.037 94.0918 111.035 91.5039 111.035C90.2832 111.035 88.5254 111.719 87.4023 112.158L58.4473 122.949L64.502 122.949L35.498 112.158C34.375 111.719 32.7148 111.035 31.4453 111.035C29.0039 111.035 27.1973 112.939 27.1973 115.381C27.1973 116.504 27.8809 118.213 29.834 118.896L55.1758 128.223C57.2266 128.955 59.5703 129.932 61.4258 129.932Z" fill="#000000" fill-opacity="0.85"/>
 </g>
</svg>
