<?xml version="1.0" encoding="UTF-8"?>
<!--Generator: Apple Native CoreSVG 232.5-->
<!DOCTYPE svg
PUBLIC "-//W3C//DTD SVG 1.1//EN"
       "http://www.w3.org/Graphics/SVG/1.1/DTD/svg11.dtd">
<svg version="1.1" xmlns="http://www.w3.org/2000/svg" xmlns:xlink="http://www.w3.org/1999/xlink" width="122.9" height="77.1973">
 <g>
  <rect height="77.1973" opacity="0" width="122.9" x="0" y="0"/>
  <path d="M15.332 77.1484L107.568 77.1484C117.725 77.1484 122.9 72.0703 122.9 62.0117L122.9 15.0879C122.9 5.07812 117.725 0 107.568 0L15.332 0C5.07812 0 0 5.0293 0 15.0879L0 62.0117C0 72.0703 5.07812 77.1484 15.332 77.1484ZM15.4297 69.2871C10.5469 69.2871 7.86133 66.6504 7.86133 61.5723L7.86133 15.5273C7.86133 10.4492 10.5469 7.86133 15.4297 7.86133L107.422 7.86133C112.256 7.86133 115.039 10.4492 115.039 15.5273L115.039 61.5723C115.039 66.6504 112.256 69.2871 107.422 69.2871Z" fill="#000000" fill-opacity="0.85"/>
  <path d="M46.4844 27.0996L50.0977 27.0996C50.9766 27.0996 51.5137 26.5137 51.5137 25.5371L51.5137 20.0684C51.5137 19.0918 50.9766 18.5059 50.0977 18.5059L46.4844 18.5059C45.6055 18.5059 45.0684 19.0918 45.0684 20.0684L45.0684 25.5371C45.0684 26.5137 45.6055 27.0996 46.4844 27.0996ZM57.2266 27.0996L60.791 27.0996C61.6699 27.0996 62.207 26.5137 62.207 25.5371L62.207 20.0684C62.207 19.0918 61.6699 18.5059 60.791 18.5059L57.2266 18.5059C56.3477 18.5059 55.7617 19.0918 55.7617 20.0684L55.7617 25.5371C55.7617 26.5137 56.3477 27.0996 57.2266 27.0996ZM67.9688 27.0996L71.5332 27.0996C72.3633 27.0996 72.9492 26.5137 72.9492 25.5371L72.9492 20.0684C72.9492 19.0918 72.3633 18.5059 71.5332 18.5059L67.9688 18.5059C67.041 18.5059 66.5039 19.0918 66.5039 20.0684L66.5039 25.5371C66.5039 26.5137 67.041 27.0996 67.9688 27.0996ZM78.6621 27.0996L82.1777 27.0996C83.1055 27.0996 83.6426 26.5137 83.6426 25.5371L83.6426 20.0684C83.6426 19.0918 83.1055 18.5059 82.1777 18.5059L78.6621 18.5059C77.7344 18.5059 77.1973 19.0918 77.1973 20.0684L77.1973 25.5371C77.1973 26.5137 77.7344 27.0996 78.6621 27.0996ZM89.3066 27.0996L92.9688 27.0996C93.7988 27.0996 94.3848 26.5137 94.3848 25.5371L94.3848 20.0684C94.3848 19.0918 93.7988 18.5059 92.9688 18.5059L89.3066 18.5059C88.4766 18.5059 87.9395 19.0918 87.9395 20.0684L87.9395 25.5371C87.9395 26.5137 88.4766 27.0996 89.3066 27.0996ZM100.098 27.0996L103.613 27.0996C104.541 27.0996 105.078 26.5137 105.078 25.5371L105.078 20.0684C105.078 19.0918 104.541 18.5059 103.613 18.5059L100.098 18.5059C99.1699 18.5059 98.6328 19.0918 98.6328 20.0684L98.6328 25.5371C98.6328 26.5137 99.1699 27.0996 100.098 27.0996ZM46.4844 42.7734L50.0977 42.7734C50.9766 42.7734 51.5137 42.2363 51.5137 41.2109L51.5137 35.791C51.5137 34.7656 50.9766 34.2285 50.0977 34.2285L46.4844 34.2285C45.6055 34.2285 45.0684 34.7656 45.0684 35.791L45.0684 41.2109C45.0684 42.2363 45.6055 42.7734 46.4844 42.7734ZM57.2266 42.7734L60.791 42.7734C61.6699 42.7734 62.207 42.2363 62.207 41.2109L62.207 35.791C62.207 34.7656 61.6699 34.2285 60.791 34.2285L57.2266 34.2285C56.3477 34.2285 55.7617 34.7656 55.7617 35.791L55.7617 41.2109C55.7617 42.2363 56.3477 42.7734 57.2266 42.7734ZM67.9688 42.7734L71.5332 42.7734C72.3633 42.7734 72.9492 42.2363 72.9492 41.2109L72.9492 35.791C72.9492 34.7656 72.3633 34.2285 71.5332 34.2285L67.9688 34.2285C67.041 34.2285 66.5039 34.7656 66.5039 35.791L66.5039 41.2109C66.5039 42.2363 67.041 42.7734 67.9688 42.7734ZM78.6621 42.7734L82.1777 42.7734C83.1055 42.7734 83.6426 42.2363 83.6426 41.2109L83.6426 35.791C83.6426 34.7656 83.1055 34.2285 82.1777 34.2285L78.6621 34.2285C77.7344 34.2285 77.1973 34.7656 77.1973 35.791L77.1973 41.2109C77.1973 42.2363 77.7344 42.7734 78.6621 42.7734ZM89.3066 42.7734L92.9688 42.7734C93.7988 42.7734 94.3848 42.2363 94.3848 41.2109L94.3848 35.791C94.3848 34.7656 93.7988 34.2285 92.9688 34.2285L89.3066 34.2285C88.4766 34.2285 87.9395 34.7656 87.9395 35.791L87.9395 41.2109C87.9395 42.2363 88.4766 42.7734 89.3066 42.7734ZM100.098 42.7734L103.613 42.7734C104.541 42.7734 105.078 42.2363 105.078 41.2109L105.078 35.791C105.078 34.7656 104.541 34.2285 103.613 34.2285L100.098 34.2285C99.1699 34.2285 98.6328 34.7656 98.6328 35.791L98.6328 41.2109C98.6328 42.2363 99.1699 42.7734 100.098 42.7734ZM46.4844 58.4961L50.0977 58.4961C50.9766 58.4961 51.5137 57.9102 51.5137 56.9336L51.5137 51.4648C51.5137 50.4883 50.9766 49.9023 50.0977 49.9023L46.4844 49.9023C45.6055 49.9023 45.0684 50.4883 45.0684 51.4648L45.0684 56.9336C45.0684 57.9102 45.6055 58.4961 46.4844 58.4961ZM57.2266 58.4961L92.9688 58.4961C93.7988 58.4961 94.3848 57.9102 94.3848 56.9336L94.3848 51.4648C94.3848 50.4883 93.7988 49.9023 92.9688 49.9023L57.2266 49.9023C56.3477 49.9023 55.7617 50.4883 55.7617 51.4648L55.7617 56.9336C55.7617 57.9102 56.3477 58.4961 57.2266 58.4961ZM100.098 58.4961L103.613 58.4961C104.541 58.4961 105.078 57.9102 105.078 56.9336L105.078 51.4648C105.078 50.4883 104.541 49.9023 103.613 49.9023L100.098 49.9023C99.1699 49.9023 98.6328 50.4883 98.6328 51.4648L98.6328 56.9336C98.6328 57.9102 99.1699 58.4961 100.098 58.4961ZM36.5723 35.8398L22.2656 22.2168C20.6055 20.6543 17.7734 21.2891 17.7734 23.877L17.7734 53.2227C17.7734 55.8594 20.6055 56.4941 22.2656 54.9316L36.5723 41.2598C38.3789 39.5508 38.3789 37.5488 36.5723 35.8398Z" fill="#000000" fill-opacity="0.85"/>
 </g>
</svg>
