<?xml version="1.0" encoding="UTF-8"?>
<!--Generator: Apple Native CoreSVG 232.5-->
<!DOCTYPE svg
PUBLIC "-//W3C//DTD SVG 1.1//EN"
       "http://www.w3.org/Graphics/SVG/1.1/DTD/svg11.dtd">
<svg version="1.1" xmlns="http://www.w3.org/2000/svg" xmlns:xlink="http://www.w3.org/1999/xlink" width="157.349" height="77.1973">
 <g>
  <rect height="77.1973" opacity="0" width="157.349" x="0" y="0"/>
  <path d="M49.7681 77.1484L142.004 77.1484C152.161 77.1484 157.336 72.0703 157.336 62.0117L157.336 15.0879C157.336 5.07812 152.161 0 142.004 0L49.7681 0C39.5142 0 34.436 5.0293 34.436 15.0879L34.436 62.0117C34.436 72.0703 39.5142 77.1484 49.7681 77.1484ZM49.8657 69.2871C45.0317 69.2871 42.2974 66.6504 42.2974 61.5723L42.2974 15.5273C42.2974 10.4492 45.0317 7.86133 49.8657 7.86133L141.858 7.86133C146.692 7.86133 149.475 10.4492 149.475 15.5273L149.475 61.5723C149.475 66.6504 146.692 69.2871 141.858 69.2871ZM54.3091 27.1973L58.7524 27.1973C60.1196 27.1973 60.9497 26.3672 60.9497 25.0488L60.9497 20.5566C60.9497 19.1895 60.1196 18.3594 58.7524 18.3594L54.3091 18.3594C52.9419 18.3594 52.1118 19.1895 52.1118 20.5566L52.1118 25.0488C52.1118 26.3672 52.9419 27.1973 54.3091 27.1973ZM69.9829 27.1973L74.4751 27.1973C75.8423 27.1973 76.6724 26.3672 76.6724 25.0488L76.6724 20.5566C76.6724 19.1895 75.8423 18.3594 74.4751 18.3594L69.9829 18.3594C68.6157 18.3594 67.7856 19.1895 67.7856 20.5566L67.7856 25.0488C67.7856 26.3672 68.6157 27.1973 69.9829 27.1973ZM85.7056 27.1973L90.1489 27.1973C91.5161 27.1973 92.3462 26.3672 92.3462 25.0488L92.3462 20.5566C92.3462 19.1895 91.5161 18.3594 90.1489 18.3594L85.7056 18.3594C84.3384 18.3594 83.5083 19.1895 83.5083 20.5566L83.5083 25.0488C83.5083 26.3672 84.3384 27.1973 85.7056 27.1973ZM101.428 27.1973L105.872 27.1973C107.239 27.1973 108.069 26.3672 108.069 25.0488L108.069 20.5566C108.069 19.1895 107.239 18.3594 105.872 18.3594L101.428 18.3594C100.061 18.3594 99.231 19.1895 99.231 20.5566L99.231 25.0488C99.231 26.3672 100.061 27.1973 101.428 27.1973ZM117.102 27.1973L121.594 27.1973C122.913 27.1973 123.792 26.3672 123.792 25.0488L123.792 20.5566C123.792 19.1895 122.913 18.3594 121.594 18.3594L117.102 18.3594C115.735 18.3594 114.905 19.1895 114.905 20.5566L114.905 25.0488C114.905 26.3672 115.735 27.1973 117.102 27.1973ZM132.825 27.1973L137.268 27.1973C138.635 27.1973 139.465 26.3672 139.465 25.0488L139.465 20.5566C139.465 19.1895 138.635 18.3594 137.268 18.3594L132.825 18.3594C131.458 18.3594 130.627 19.1895 130.627 20.5566L130.627 25.0488C130.627 26.3672 131.458 27.1973 132.825 27.1973ZM54.3091 42.9199L58.7524 42.9199C60.1196 42.9199 60.9497 42.0898 60.9497 40.7227L60.9497 36.2793C60.9497 34.9121 60.1196 34.082 58.7524 34.082L54.3091 34.082C52.9419 34.082 52.1118 34.9121 52.1118 36.2793L52.1118 40.7227C52.1118 42.0898 52.9419 42.9199 54.3091 42.9199ZM69.9829 42.9199L74.4751 42.9199C75.8423 42.9199 76.6724 42.0898 76.6724 40.7227L76.6724 36.2793C76.6724 34.9121 75.8423 34.082 74.4751 34.082L69.9829 34.082C68.6157 34.082 67.7856 34.9121 67.7856 36.2793L67.7856 40.7227C67.7856 42.0898 68.6157 42.9199 69.9829 42.9199ZM85.7056 42.9199L90.1489 42.9199C91.5161 42.9199 92.3462 42.0898 92.3462 40.7227L92.3462 36.2793C92.3462 34.9121 91.5161 34.082 90.1489 34.082L85.7056 34.082C84.3384 34.082 83.5083 34.9121 83.5083 36.2793L83.5083 40.7227C83.5083 42.0898 84.3384 42.9199 85.7056 42.9199ZM101.428 42.9199L105.872 42.9199C107.239 42.9199 108.069 42.0898 108.069 40.7227L108.069 36.2793C108.069 34.9121 107.239 34.082 105.872 34.082L101.428 34.082C100.061 34.082 99.231 34.9121 99.231 36.2793L99.231 40.7227C99.231 42.0898 100.061 42.9199 101.428 42.9199ZM117.102 42.9199L121.594 42.9199C122.913 42.9199 123.792 42.0898 123.792 40.7227L123.792 36.2793C123.792 34.9121 122.913 34.082 121.594 34.082L117.102 34.082C115.735 34.082 114.905 34.9121 114.905 36.2793L114.905 40.7227C114.905 42.0898 115.735 42.9199 117.102 42.9199ZM132.825 42.9199L137.268 42.9199C138.635 42.9199 139.465 42.0898 139.465 40.7227L139.465 36.2793C139.465 34.9121 138.635 34.082 137.268 34.082L132.825 34.082C131.458 34.082 130.627 34.9121 130.627 36.2793L130.627 40.7227C130.627 42.0898 131.458 42.9199 132.825 42.9199ZM54.3091 58.6426L58.7524 58.6426C60.1196 58.6426 60.9497 57.8125 60.9497 56.4453L60.9497 51.9531C60.9497 50.6348 60.1196 49.8047 58.7524 49.8047L54.3091 49.8047C52.9419 49.8047 52.1118 50.6348 52.1118 51.9531L52.1118 56.4453C52.1118 57.8125 52.9419 58.6426 54.3091 58.6426ZM70.4712 58.6426L121.106 58.6426C122.766 58.6426 123.792 57.666 123.792 55.957L123.792 52.4414C123.792 50.7812 122.766 49.8047 121.106 49.8047L70.4712 49.8047C68.7622 49.8047 67.7856 50.7812 67.7856 52.4414L67.7856 55.957C67.7856 57.666 68.7622 58.6426 70.4712 58.6426ZM132.825 58.6426L137.268 58.6426C138.635 58.6426 139.465 57.8125 139.465 56.4453L139.465 51.9531C139.465 50.6348 138.635 49.8047 137.268 49.8047L132.825 49.8047C131.458 49.8047 130.627 50.6348 130.627 51.9531L130.627 56.4453C130.627 57.8125 131.458 58.6426 132.825 58.6426Z" fill="#000000" fill-opacity="0.85"/>
  <path d="M15.0513 61.377C18.5669 66.2598 24.6216 61.6699 21.7407 57.6172L8.1665 38.5254L21.7407 19.5312C24.6216 15.5273 18.5669 10.8887 15.0513 15.7715L1.13525 35.1074C-0.378418 37.2559-0.378418 39.8926 1.13525 41.9922Z" fill="#000000" fill-opacity="0.85"/>
 </g>
</svg>
