<?xml version="1.0" encoding="UTF-8"?>
<!--Generator: Apple Native CoreSVG 232.5-->
<!DOCTYPE svg
PUBLIC "-//W3C//DTD SVG 1.1//EN"
       "http://www.w3.org/Graphics/SVG/1.1/DTD/svg11.dtd">
<svg version="1.1" xmlns="http://www.w3.org/2000/svg" xmlns:xlink="http://www.w3.org/1999/xlink" width="122.9" height="77.1973">
 <g>
  <rect height="77.1973" opacity="0" width="122.9" x="0" y="0"/>
  <path d="M15.332 77.1484L107.568 77.1484C117.725 77.1484 122.9 72.0703 122.9 62.0117L122.9 15.0879C122.9 5.07812 117.725 0 107.568 0L15.332 0C5.07812 0 0 5.0293 0 15.0879L0 62.0117C0 72.0703 5.07812 77.1484 15.332 77.1484ZM15.4297 69.2871C10.5469 69.2871 7.86133 66.6504 7.86133 61.5723L7.86133 15.5273C7.86133 10.4492 10.5469 7.86133 15.4297 7.86133L107.422 7.86133C112.256 7.86133 115.039 10.4492 115.039 15.5273L115.039 61.5723C115.039 66.6504 112.256 69.2871 107.422 69.2871ZM19.8242 27.1973L24.3164 27.1973C25.6836 27.1973 26.5137 26.3672 26.5137 25.0488L26.5137 20.5566C26.5137 19.1895 25.6836 18.3594 24.3164 18.3594L19.8242 18.3594C18.5059 18.3594 17.6758 19.1895 17.6758 20.5566L17.6758 25.0488C17.6758 26.3672 18.5059 27.1973 19.8242 27.1973ZM35.5469 27.1973L40.0391 27.1973C41.3574 27.1973 42.1875 26.3672 42.1875 25.0488L42.1875 20.5566C42.1875 19.1895 41.3574 18.3594 40.0391 18.3594L35.5469 18.3594C34.1797 18.3594 33.3496 19.1895 33.3496 20.5566L33.3496 25.0488C33.3496 26.3672 34.1797 27.1973 35.5469 27.1973ZM51.2695 27.1973L55.7129 27.1973C57.0801 27.1973 57.9102 26.3672 57.9102 25.0488L57.9102 20.5566C57.9102 19.1895 57.0801 18.3594 55.7129 18.3594L51.2695 18.3594C49.9023 18.3594 49.0723 19.1895 49.0723 20.5566L49.0723 25.0488C49.0723 26.3672 49.9023 27.1973 51.2695 27.1973ZM66.9434 27.1973L71.4355 27.1973C72.8027 27.1973 73.6328 26.3672 73.6328 25.0488L73.6328 20.5566C73.6328 19.1895 72.8027 18.3594 71.4355 18.3594L66.9434 18.3594C65.625 18.3594 64.7949 19.1895 64.7949 20.5566L64.7949 25.0488C64.7949 26.3672 65.625 27.1973 66.9434 27.1973ZM82.666 27.1973L87.1582 27.1973C88.4766 27.1973 89.3066 26.3672 89.3066 25.0488L89.3066 20.5566C89.3066 19.1895 88.4766 18.3594 87.1582 18.3594L82.666 18.3594C81.2988 18.3594 80.4688 19.1895 80.4688 20.5566L80.4688 25.0488C80.4688 26.3672 81.2988 27.1973 82.666 27.1973ZM98.3887 27.1973L102.832 27.1973C104.199 27.1973 105.029 26.3672 105.029 25.0488L105.029 20.5566C105.029 19.1895 104.199 18.3594 102.832 18.3594L98.3887 18.3594C97.0215 18.3594 96.1914 19.1895 96.1914 20.5566L96.1914 25.0488C96.1914 26.3672 97.0215 27.1973 98.3887 27.1973ZM19.8242 42.9199L24.3164 42.9199C25.6836 42.9199 26.5137 42.0898 26.5137 40.7227L26.5137 36.2793C26.5137 34.9121 25.6836 34.082 24.3164 34.082L19.8242 34.082C18.5059 34.082 17.6758 34.9121 17.6758 36.2793L17.6758 40.7227C17.6758 42.0898 18.5059 42.9199 19.8242 42.9199ZM35.5469 42.9199L40.0391 42.9199C41.3574 42.9199 42.1875 42.0898 42.1875 40.7227L42.1875 36.2793C42.1875 34.9121 41.3574 34.082 40.0391 34.082L35.5469 34.082C34.1797 34.082 33.3496 34.9121 33.3496 36.2793L33.3496 40.7227C33.3496 42.0898 34.1797 42.9199 35.5469 42.9199ZM51.2695 42.9199L55.7129 42.9199C57.0801 42.9199 57.9102 42.0898 57.9102 40.7227L57.9102 36.2793C57.9102 34.9121 57.0801 34.082 55.7129 34.082L51.2695 34.082C49.9023 34.082 49.0723 34.9121 49.0723 36.2793L49.0723 40.7227C49.0723 42.0898 49.9023 42.9199 51.2695 42.9199ZM66.9434 42.9199L71.4355 42.9199C72.8027 42.9199 73.6328 42.0898 73.6328 40.7227L73.6328 36.2793C73.6328 34.9121 72.8027 34.082 71.4355 34.082L66.9434 34.082C65.625 34.082 64.7949 34.9121 64.7949 36.2793L64.7949 40.7227C64.7949 42.0898 65.625 42.9199 66.9434 42.9199ZM82.666 42.9199L87.1582 42.9199C88.4766 42.9199 89.3066 42.0898 89.3066 40.7227L89.3066 36.2793C89.3066 34.9121 88.4766 34.082 87.1582 34.082L82.666 34.082C81.2988 34.082 80.4688 34.9121 80.4688 36.2793L80.4688 40.7227C80.4688 42.0898 81.2988 42.9199 82.666 42.9199ZM98.3887 42.9199L102.832 42.9199C104.199 42.9199 105.029 42.0898 105.029 40.7227L105.029 36.2793C105.029 34.9121 104.199 34.082 102.832 34.082L98.3887 34.082C97.0215 34.082 96.1914 34.9121 96.1914 36.2793L96.1914 40.7227C96.1914 42.0898 97.0215 42.9199 98.3887 42.9199ZM19.8242 58.6426L24.3164 58.6426C25.6836 58.6426 26.5137 57.8125 26.5137 56.4453L26.5137 51.9531C26.5137 50.6348 25.6836 49.8047 24.3164 49.8047L19.8242 49.8047C18.5059 49.8047 17.6758 50.6348 17.6758 51.9531L17.6758 56.4453C17.6758 57.8125 18.5059 58.6426 19.8242 58.6426ZM36.0352 58.6426L86.6699 58.6426C88.3301 58.6426 89.3066 57.666 89.3066 55.957L89.3066 52.4414C89.3066 50.7812 88.3301 49.8047 86.6699 49.8047L36.0352 49.8047C34.3262 49.8047 33.3496 50.7812 33.3496 52.4414L33.3496 55.957C33.3496 57.666 34.3262 58.6426 36.0352 58.6426ZM98.3887 58.6426L102.832 58.6426C104.199 58.6426 105.029 57.8125 105.029 56.4453L105.029 51.9531C105.029 50.6348 104.199 49.8047 102.832 49.8047L98.3887 49.8047C97.0215 49.8047 96.1914 50.6348 96.1914 51.9531L96.1914 56.4453C96.1914 57.8125 97.0215 58.6426 98.3887 58.6426Z" fill="#000000" fill-opacity="0.85"/>
 </g>
</svg>
