<?xml version="1.0" encoding="UTF-8"?>
<!--Generator: Apple Native CoreSVG 232.5-->
<!DOCTYPE svg
PUBLIC "-//W3C//DTD SVG 1.1//EN"
       "http://www.w3.org/Graphics/SVG/1.1/DTD/svg11.dtd">
<svg version="1.1" xmlns="http://www.w3.org/2000/svg" xmlns:xlink="http://www.w3.org/1999/xlink" width="99.6094" height="99.6582">
 <g>
  <rect height="99.6582" opacity="0" width="99.6094" x="0" y="0"/>
  <path d="M49.8047 99.6094C77.0508 99.6094 99.6094 77.002 99.6094 49.8047C99.6094 22.5586 77.002 0 49.7559 0C22.5586 0 0 22.5586 0 49.8047C0 77.002 22.6074 99.6094 49.8047 99.6094ZM49.8047 91.3086C26.7578 91.3086 8.34961 72.8516 8.34961 49.8047C8.34961 26.7578 26.709 8.30078 49.7559 8.30078C72.8027 8.30078 91.3086 26.7578 91.3086 49.8047C91.3086 72.8516 72.8516 91.3086 49.8047 91.3086Z" fill="#000000" fill-opacity="0.85"/>
  <path d="M30.9082 50.293C30.9082 51.6113 31.9336 52.7344 33.252 52.7344L36.377 52.7344L36.377 70.8496C36.377 72.8027 37.6953 74.0234 39.5508 74.0234C41.4062 74.0234 42.6758 72.8027 42.6758 70.8496L42.6758 52.7344L44.9707 52.7344L60.7422 72.5586C61.5723 73.6328 62.4023 74.0234 63.3301 74.0234C64.9902 74.0234 66.3086 72.7539 66.3086 71.1426C66.3086 70.5078 66.0645 69.7266 65.5273 68.9941L52.3926 52.7344L64.9902 52.7344C66.4062 52.7344 67.3828 51.6113 67.3828 50.293C67.3828 48.877 66.4062 47.9004 64.9902 47.9004L52.3438 47.9004L65.4785 31.7871C66.0156 31.1035 66.3086 30.3223 66.3086 29.6875C66.3086 28.0762 65.0391 26.8066 63.3301 26.8066C62.4023 26.8066 61.5723 27.1973 60.7422 28.3203L44.9219 47.9004L42.6758 47.9004L42.6758 30.0781C42.6758 28.0762 41.4551 26.9043 39.5508 26.9043C37.6465 26.9043 36.377 28.0762 36.377 30.0781L36.377 47.9004L33.252 47.9004C31.9336 47.9004 30.9082 48.877 30.9082 50.293Z" fill="#000000" fill-opacity="0.85"/>
 </g>
</svg>
