<?xml version="1.0" encoding="UTF-8"?>
<!--Generator: Apple Native CoreSVG 232.5-->
<!DOCTYPE svg
PUBLIC "-//W3C//DTD SVG 1.1//EN"
       "http://www.w3.org/Graphics/SVG/1.1/DTD/svg11.dtd">
<svg version="1.1" xmlns="http://www.w3.org/2000/svg" xmlns:xlink="http://www.w3.org/1999/xlink" width="89.8926" height="89.9902">
 <g>
  <rect height="89.9902" opacity="0" width="89.8926" x="0" y="0"/>
  <path d="M89.8926 15.2344L89.8926 74.8535C89.8926 84.9121 84.8145 89.9902 74.5605 89.9902L15.332 89.9902C5.12695 89.9902 0 84.9609 0 74.8535L0 15.2344C0 5.12695 5.12695 0.0976562 15.332 0.0976562L74.5605 0.0976562C84.8145 0.0976562 89.8926 5.17578 89.8926 15.2344ZM56.2988 22.8027L39.9902 42.9688L37.6953 42.9688L37.6953 24.6094C37.6953 22.5098 36.4258 21.2891 34.4727 21.2891C32.4707 21.2891 31.1523 22.5098 31.1523 24.6094L31.1523 42.9688L27.9785 42.9688C26.6113 42.9688 25.5371 43.9941 25.5371 45.459C25.5371 46.8262 26.6113 47.998 27.9785 47.998L31.1523 47.998L31.1523 66.6504C31.1523 68.7012 32.5195 69.9707 34.4727 69.9707C36.377 69.9707 37.6953 68.7012 37.6953 66.6504L37.6953 47.998L40.0879 47.998L56.2988 68.4082C57.1777 69.5312 58.0566 69.9707 58.9844 69.9707C60.7422 69.9707 62.1582 68.6523 62.1582 66.9434C62.1582 66.3086 61.8164 65.4785 61.2793 64.7461L47.7539 47.998L60.7422 47.998C62.207 47.998 63.1836 46.8262 63.1836 45.459C63.1836 43.9941 62.207 42.9688 60.7422 42.9688L47.7051 42.9688L61.2305 26.3672C61.8164 25.6836 62.1094 24.8535 62.1094 24.2188C62.1094 22.5098 60.791 21.1914 59.0332 21.1914C58.0566 21.1914 57.1777 21.6309 56.2988 22.8027Z" fill="#000000" fill-opacity="0.85"/>
 </g>
</svg>
