<?xml version="1.0" encoding="UTF-8"?>
<!--Generator: Apple Native CoreSVG 232.5-->
<!DOCTYPE svg
PUBLIC "-//W3C//DTD SVG 1.1//EN"
       "http://www.w3.org/Graphics/SVG/1.1/DTD/svg11.dtd">
<svg version="1.1" xmlns="http://www.w3.org/2000/svg" xmlns:xlink="http://www.w3.org/1999/xlink" width="109.095" height="99.6582">
 <g>
  <rect height="99.6582" opacity="0" width="109.095" x="0" y="0"/>
  <path d="M59.2839 99.6094C86.4812 99.6094 109.089 77.002 109.089 49.8047C109.089 22.5586 86.4812 0 59.2839 0C32.0378 0 9.47924 22.5098 9.47924 49.7559L17.78 49.7559C17.78 26.709 36.2371 8.34961 59.2839 8.34961C82.3308 8.34961 100.788 26.7578 100.788 49.8047C100.788 72.8516 82.3308 91.4062 59.2839 91.3086C45.3679 91.2598 33.1609 84.5215 25.6902 74.1211C24.1765 72.1191 21.8816 71.4844 19.8308 72.7051C17.8777 73.9258 17.3406 76.6113 19.0007 78.7598C28.2781 91.2109 42.8289 99.6094 59.2839 99.6094ZM3.47339 40.3809C-0.04224 40.3809-0.921146 42.7734 0.983151 45.5078L11.9207 61.0352C13.532 63.2812 15.8757 63.2324 17.4382 61.0352L28.3757 45.459C30.2312 42.7734 29.3523 40.3809 25.8855 40.3809Z" fill="#000000" fill-opacity="0.85"/>
  <path d="M40.3874 50.293C40.3874 51.6113 41.4128 52.7344 42.78 52.7344L45.905 52.7344L45.905 70.8496C45.905 72.8027 47.2234 74.0234 49.03 74.0234C50.8855 74.0234 52.2039 72.8027 52.2039 70.8496L52.2039 52.7344L54.4988 52.7344L70.2703 72.5586C71.1003 73.6328 71.8816 74.0234 72.8582 74.0234C74.5183 74.0234 75.8367 72.7539 75.8367 71.1426C75.8367 70.5078 75.5925 69.7266 75.0066 68.9941L61.8718 52.7344L74.5183 52.7344C75.9343 52.7344 76.9109 51.6113 76.9109 50.293C76.9109 48.877 75.9343 47.9004 74.5183 47.9004L61.823 47.9004L75.0066 31.7871C75.5437 31.1035 75.7878 30.3223 75.7878 29.6875C75.7878 28.0762 74.5183 26.8066 72.8582 26.8066C71.9304 26.8066 71.1003 27.1973 70.2214 28.3203L54.4011 47.9004L52.2039 47.9004L52.2039 30.0781C52.2039 28.0762 50.9343 26.9043 49.03 26.9043C47.1257 26.9043 45.905 28.0762 45.905 30.0781L45.905 47.9004L42.78 47.9004C41.4128 47.9004 40.3874 48.877 40.3874 50.293Z" fill="#000000" fill-opacity="0.85"/>
 </g>
</svg>
