<?xml version="1.0" encoding="UTF-8"?>
<!--Generator: Apple Native CoreSVG 232.5-->
<!DOCTYPE svg
PUBLIC "-//W3C//DTD SVG 1.1//EN"
       "http://www.w3.org/Graphics/SVG/1.1/DTD/svg11.dtd">
<svg version="1.1" xmlns="http://www.w3.org/2000/svg" xmlns:xlink="http://www.w3.org/1999/xlink" width="99.6094" height="99.6582">
 <g>
  <rect height="99.6582" opacity="0" width="99.6094" x="0" y="0"/>
  <path d="M99.6094 49.8047C99.6094 77.002 77.0508 99.6094 49.8047 99.6094C22.6074 99.6094 0 77.002 0 49.8047C0 22.5586 22.5586 0 49.7559 0C77.002 0 99.6094 22.5586 99.6094 49.8047ZM61.1328 27.6367L44.8242 47.8027L42.5293 47.8027L42.5293 29.4434C42.5293 27.3438 41.2598 26.123 39.3066 26.123C37.3047 26.123 35.9863 27.3438 35.9863 29.4434L35.9863 47.8027L32.7637 47.8027C31.4453 47.8027 30.3711 48.8281 30.3711 50.293C30.3711 51.6602 31.4453 52.832 32.7637 52.832L35.9863 52.832L35.9863 71.4844C35.9863 73.5352 37.3535 74.8047 39.3066 74.8047C41.2109 74.8047 42.5293 73.5352 42.5293 71.4844L42.5293 52.832L44.9219 52.832L61.1328 73.2422C62.0117 74.3652 62.8906 74.8047 63.8184 74.8047C65.5762 74.8047 66.9434 73.4863 66.9434 71.7773C66.9434 71.1426 66.6504 70.3125 66.1133 69.5801L52.5879 52.832L65.5762 52.832C67.041 52.832 68.0176 51.6602 68.0176 50.293C68.0176 48.8281 67.041 47.8027 65.5762 47.8027L52.5391 47.8027L66.0645 31.2012C66.6016 30.5176 66.9434 29.6875 66.9434 29.0527C66.9434 27.3438 65.625 26.0254 63.8184 26.0254C62.8906 26.0254 62.0117 26.4648 61.1328 27.6367Z" fill="#000000" fill-opacity="0.85"/>
 </g>
</svg>
