<?xml version="1.0" encoding="UTF-8"?>
<!--Generator: Apple Native CoreSVG 232.5-->
<!DOCTYPE svg
PUBLIC "-//W3C//DTD SVG 1.1//EN"
       "http://www.w3.org/Graphics/SVG/1.1/DTD/svg11.dtd">
<svg version="1.1" xmlns="http://www.w3.org/2000/svg" xmlns:xlink="http://www.w3.org/1999/xlink" width="134.814" height="74.3652">
 <g>
  <rect height="74.3652" opacity="0" width="134.814" x="0" y="0"/>
  <path d="M4.49219 74.3652C7.22656 74.3652 8.98438 72.7539 8.98438 69.6777L8.98438 50.0977L14.8438 40.625L31.0059 70.8008C32.1777 73.0469 33.252 74.1211 35.5469 74.1211C37.9395 74.1211 39.6973 72.3633 39.6973 70.0195C39.6973 68.7988 38.9648 67.4316 38.4277 66.4062L20.5566 33.3984L36.2305 7.86133C36.8164 6.88477 37.3535 5.9082 37.3535 4.58984C37.3535 2.00195 35.4492 0.341797 33.252 0.341797C31.1035 0.341797 30.0293 1.61133 28.9551 3.36914L9.08203 36.8164L8.98438 36.8164L8.98438 4.78516C8.98438 1.85547 7.27539 0.146484 4.3457 0.146484C2.09961 0.146484 0 1.46484 0 4.78516L0 69.6777C0 72.7539 1.95312 74.3652 4.49219 74.3652ZM53.0762 74.1211C55.5664 74.1211 57.5684 72.7051 57.5684 69.4336L57.5684 47.2656L66.4551 47.2656C78.5156 47.2656 85.0586 36.7188 85.0586 24.1699C85.0586 12.3047 79.0039 1.12305 66.7969 1.12305L53.0273 1.12305C50.1953 1.12305 48.6328 3.02734 48.6328 5.81055L48.6328 69.4336C48.6328 72.3633 50.1953 74.1211 53.0762 74.1211ZM57.5684 39.502L57.5684 8.93555L64.6973 8.93555C72.8516 8.93555 76.2207 15.4785 76.2207 24.1699C76.2207 32.6172 72.9492 39.502 64.6973 39.502ZM100 74.3652C103.125 74.3652 104.443 72.1191 104.443 69.3848L104.443 40.4297L125.83 40.4297L125.83 69.3848C125.83 72.3145 127.344 74.3652 130.273 74.3652C133.203 74.3652 134.814 72.3145 134.814 69.3848L134.814 5.12695C134.814 2.19727 133.203 0.146484 130.273 0.146484C127.344 0.146484 125.83 2.19727 125.83 5.12695L125.83 32.4707L104.443 32.4707L104.443 5.12695C104.443 2.39258 103.125 0.146484 100 0.146484C97.0703 0.146484 95.5078 2.19727 95.5078 5.12695L95.5078 69.3848C95.5078 72.3145 97.0703 74.3652 100 74.3652Z" fill="#000000" fill-opacity="0.85"/>
 </g>
</svg>
