<?xml version="1.0" encoding="UTF-8"?>
<!--Generator: Apple Native CoreSVG 232.5-->
<!DOCTYPE svg
PUBLIC "-//W3C//DTD SVG 1.1//EN"
       "http://www.w3.org/Graphics/SVG/1.1/DTD/svg11.dtd">
<svg version="1.1" xmlns="http://www.w3.org/2000/svg" xmlns:xlink="http://www.w3.org/1999/xlink" width="99.6094" height="99.6582">
 <g>
  <rect height="99.6582" opacity="0" width="99.6094" x="0" y="0"/>
  <path d="M49.8047 99.6094C77.0508 99.6094 99.6094 77.002 99.6094 49.8047C99.6094 22.5586 77.002 0 49.7559 0C22.5586 0 0 22.5586 0 49.8047C0 77.002 22.6074 99.6094 49.8047 99.6094ZM49.8047 91.3086C26.7578 91.3086 8.34961 72.8516 8.34961 49.8047C8.34961 26.7578 26.709 8.30078 49.7559 8.30078C72.8027 8.30078 91.3086 26.7578 91.3086 49.8047C91.3086 72.8516 72.8516 91.3086 49.8047 91.3086Z" fill="#000000" fill-opacity="0.85"/>
  <path d="M22.0703 65.7715C23.877 65.7715 24.9512 64.6484 24.9512 62.8418L24.9512 56.0547L27.002 52.3438L32.959 63.9648C33.4473 64.9902 34.4727 65.6738 35.7422 65.6738C36.9629 65.6738 38.2324 64.7461 38.2324 63.0859C38.2324 62.4023 38.0371 61.6699 37.7441 61.1328L31.1035 48.4375L36.9141 38.5254C37.3535 37.793 37.5 37.3047 37.5 36.4746C37.5 35.2539 36.6211 33.9355 35.0098 33.9355C33.5449 33.9355 33.0078 34.6191 32.4219 35.6445L25.1953 48.6328L24.9023 48.6328L24.9023 36.8164C24.9023 34.9609 23.9258 33.8867 22.0703 33.8867C20.3125 33.8867 19.3359 35.0098 19.3359 36.8164L19.3359 62.8418C19.3359 64.9414 20.7031 65.7715 22.0703 65.7715ZM43.5547 65.6738C45.3125 65.6738 46.3867 64.502 46.3867 62.7441L46.3867 55.0781L49.6582 55.0781C55.4688 55.0781 58.252 50.0488 58.252 44.7266C58.252 39.0625 55.3711 34.375 50 34.375L43.5547 34.375C41.7969 34.375 40.7715 35.498 40.7715 37.3047L40.7715 62.7441C40.7715 64.502 41.8457 65.6738 43.5547 65.6738ZM46.3867 50.6348L46.3867 38.8672L48.5352 38.8672C51.6602 38.8672 52.7344 41.5527 52.7344 44.7266C52.7344 47.9004 51.6113 50.6348 48.4863 50.6348ZM64.0137 65.7715C65.8203 65.7715 66.748 64.5996 66.748 62.6953L66.748 51.9043L74.3164 51.9043L74.3164 62.6953C74.3164 64.5996 75.293 65.7715 77.0996 65.7715C79.0039 65.7715 79.9316 64.5996 79.9316 62.6953L79.9316 36.8652C79.9316 34.9609 79.0039 33.8867 77.0996 33.8867C75.3418 33.8867 74.3164 34.9609 74.3164 36.8652L74.3164 47.2168L66.748 47.2168L66.748 36.8652C66.748 34.9609 65.7715 33.8867 64.0137 33.8867C62.1094 33.8867 61.1816 34.9609 61.1816 36.8652L61.1816 62.6953C61.1816 64.5996 62.1094 65.7715 64.0137 65.7715Z" fill="#000000" fill-opacity="0.85"/>
 </g>
</svg>
