<?xml version="1.0" encoding="UTF-8"?>
<!--Generator: Apple Native CoreSVG 232.5-->
<!DOCTYPE svg
PUBLIC "-//W3C//DTD SVG 1.1//EN"
       "http://www.w3.org/Graphics/SVG/1.1/DTD/svg11.dtd">
<svg version="1.1" xmlns="http://www.w3.org/2000/svg" xmlns:xlink="http://www.w3.org/1999/xlink" width="99.6094" height="99.6582">
 <g>
  <rect height="99.6582" opacity="0" width="99.6094" x="0" y="0"/>
  <path d="M99.6094 49.8047C99.6094 77.002 77.0508 99.6094 49.8047 99.6094C22.6074 99.6094 0 77.002 0 49.8047C0 22.5586 22.5586 0 49.7559 0C77.002 0 99.6094 22.5586 99.6094 49.8047ZM18.4082 36.4258L18.4082 63.2324C18.4082 65.4297 19.8242 66.2598 21.2402 66.2598C23.1445 66.2598 24.2188 65.0879 24.2188 63.2324L24.2188 56.25L26.3672 52.4414L32.4707 64.4043C32.959 65.4785 34.0332 66.1621 35.3516 66.1621C36.6211 66.1621 37.9395 65.1855 37.9395 63.4766C37.9395 62.793 37.7441 62.0117 37.4512 61.4746L30.6152 48.3887L36.5723 38.1836C37.0117 37.4512 37.1582 36.9141 37.1582 36.084C37.1582 34.8145 36.2793 33.4473 34.6191 33.4473C33.1055 33.4473 32.5195 34.1309 31.9336 35.2051L24.5117 48.584L24.1699 48.584L24.1699 36.4258C24.1699 34.5215 23.1934 33.3984 21.2402 33.3984C19.4336 33.3984 18.4082 34.5703 18.4082 36.4258ZM75.1465 36.4746L75.1465 47.1191L67.334 47.1191L67.334 36.4746C67.334 34.5215 66.3574 33.3984 64.502 33.3984C62.5488 33.3984 61.5723 34.5215 61.5723 36.4746L61.5723 63.0859C61.5723 65.0391 62.5488 66.2598 64.502 66.2598C66.4062 66.2598 67.334 65.0391 67.334 63.0859L67.334 52.002L75.1465 52.002L75.1465 63.0859C75.1465 65.0391 76.123 66.2598 78.0273 66.2598C79.9805 66.2598 80.957 65.0391 80.957 63.0859L80.957 36.4746C80.957 34.5215 79.9805 33.3984 78.0273 33.3984C76.1719 33.3984 75.1465 34.5215 75.1465 36.4746ZM43.4082 33.8867C41.6016 33.8867 40.5273 35.0586 40.5273 36.9141L40.5273 63.1348C40.5273 64.9414 41.6504 66.1621 43.4082 66.1621C45.2148 66.1621 46.3379 64.9414 46.3379 63.1348L46.3379 55.2734L49.707 55.2734C55.7129 55.2734 58.5938 50.0488 58.5938 44.5801C58.5938 38.7207 55.6152 33.8867 50.0488 33.8867ZM52.8809 44.5801C52.8809 47.8516 51.709 50.6348 48.4863 50.6348L46.3379 50.6348L46.3379 38.5254L48.5352 38.5254C51.7578 38.5254 52.8809 41.3086 52.8809 44.5801Z" fill="#000000" fill-opacity="0.85"/>
 </g>
</svg>
