<?xml version="1.0" encoding="UTF-8"?>
<!--Generator: Apple Native CoreSVG 232.5-->
<!DOCTYPE svg
PUBLIC "-//W3C//DTD SVG 1.1//EN"
       "http://www.w3.org/Graphics/SVG/1.1/DTD/svg11.dtd">
<svg version="1.1" xmlns="http://www.w3.org/2000/svg" xmlns:xlink="http://www.w3.org/1999/xlink" width="112.646" height="85.2051">
 <g>
  <rect height="85.2051" opacity="0" width="112.646" x="0" y="0"/>
  <path d="M112.646 14.7949L112.646 45.459C112.646 72.1191 100 85.1562 71.6797 85.1562L40.9668 85.1562C12.6465 85.1562 0 72.1191 0 45.459L0 14.7949C0 4.98047 5.07812 0 14.9902 0L97.6562 0C107.568 0 112.646 4.98047 112.646 14.7949ZM44.2871 25.6348L44.2871 58.8867C44.2871 61.5723 45.752 63.3789 48.3398 63.3789L68.0664 63.3789C70.0195 63.3789 71.6797 62.0117 71.6797 59.9609C71.6797 57.9102 69.9707 56.4453 68.0664 56.4453L52.5879 56.4453L52.5879 25.6348C52.5879 22.9004 50.9277 21.0449 48.3398 21.0449C45.752 21.0449 44.2871 22.9492 44.2871 25.6348Z" fill="#000000" fill-opacity="0.85"/>
 </g>
</svg>
