<?xml version="1.0" encoding="UTF-8"?>
<!--Generator: Apple Native CoreSVG 232.5-->
<!DOCTYPE svg
PUBLIC "-//W3C//DTD SVG 1.1//EN"
       "http://www.w3.org/Graphics/SVG/1.1/DTD/svg11.dtd">
<svg version="1.1" xmlns="http://www.w3.org/2000/svg" xmlns:xlink="http://www.w3.org/1999/xlink" width="112.646" height="85.2051">
 <g>
  <rect height="85.2051" opacity="0" width="112.646" x="0" y="0"/>
  <path d="M40.9668 85.1562L71.6797 85.1562C100 85.1562 112.646 72.1191 112.646 45.459L112.646 14.7949C112.646 4.98047 107.568 0 97.6562 0L14.9902 0C5.07812 0 0 4.98047 0 14.7949L0 45.459C0 72.1191 12.6465 85.1562 40.9668 85.1562ZM40.9668 77.2949C17.9199 77.2949 7.86133 67.2852 7.86133 45.9473L7.86133 15.2344C7.86133 10.3516 10.4004 7.86133 15.1855 7.86133L97.4609 7.86133C102.148 7.86133 104.785 10.3516 104.785 15.2344L104.785 45.9473C104.785 67.2852 94.7266 77.2949 71.6309 77.2949Z" fill="#000000" fill-opacity="0.85"/>
  <path d="M48.584 62.7441L67.7246 62.7441C69.5801 62.7441 71.1914 61.4258 71.1914 59.4238C71.1914 57.4219 69.5801 56.0059 67.7246 56.0059L52.6855 56.0059L52.6855 26.123C52.6855 23.4863 51.0742 21.6797 48.584 21.6797C46.0938 21.6797 44.6777 23.5352 44.6777 26.123L44.6777 58.3984C44.6777 60.9863 46.0938 62.7441 48.584 62.7441Z" fill="#000000" fill-opacity="0.85"/>
 </g>
</svg>
