<?xml version="1.0" encoding="UTF-8"?>
<!--Generator: Apple Native CoreSVG 232.5-->
<!DOCTYPE svg
PUBLIC "-//W3C//DTD SVG 1.1//EN"
       "http://www.w3.org/Graphics/SVG/1.1/DTD/svg11.dtd">
<svg version="1.1" xmlns="http://www.w3.org/2000/svg" xmlns:xlink="http://www.w3.org/1999/xlink" width="112.305" height="145.825">
 <g>
  <rect height="145.825" opacity="0" width="112.305" x="0" y="0"/>
  <path d="M112.305 72.8882C112.305 103.894 87.1094 129.041 56.1523 129.041C25.1465 129.041 0 103.845 0 72.8882C0 48.4829 15.5797 27.6775 37.3617 19.9848C36.6834 22.7761 37.1761 25.6103 38.5995 27.8707C20.5631 34.8397 7.86133 52.3374 7.86133 72.8882C7.86133 99.646 29.3945 121.179 56.1523 121.179C82.8613 121.179 104.443 99.646 104.443 72.8882C104.443 52.3125 91.6819 34.7972 73.6191 27.8465C75.0374 25.5875 75.5244 22.7536 74.828 19.9496C96.6486 27.6161 112.305 48.4469 112.305 72.8882Z" fill="#000000" fill-opacity="0.85"/>
  <path d="M47.3145 25.8179L64.8926 25.8179C68.3105 25.8179 69.5312 22.4487 67.4805 19.7632L58.7891 8.04443C57.373 6.18896 54.8828 6.18896 53.5156 8.04443L44.6777 19.812C42.7734 22.3999 43.7988 25.8179 47.3145 25.8179Z" fill="#000000" fill-opacity="0.85"/>
  <path d="M56.1523 111.902C77.6855 111.902 95.1172 94.4214 95.1172 72.8882C95.1172 51.3062 77.6855 33.9233 56.1523 33.9233C34.6191 33.9233 17.1875 51.3062 17.1875 72.8882C17.1875 94.4214 34.6191 111.902 56.1523 111.902ZM56.1523 104.041C38.8672 104.041 25.0488 90.1245 25.0488 72.8882C25.0488 55.603 38.8672 41.7847 56.1523 41.7847C73.3887 41.7847 87.2559 55.603 87.2559 72.8882C87.2559 90.1245 73.3887 104.041 56.1523 104.041ZM48.9258 91.5894L66.6992 91.5894C68.457 91.5894 69.9219 90.3687 69.9219 88.5132C69.9219 86.6577 68.457 85.3394 66.6992 85.3394L52.7344 85.3394L52.7344 57.605C52.7344 55.1636 51.2695 53.5034 48.9258 53.5034C46.6309 53.5034 45.3613 55.2124 45.3613 57.605L45.3613 87.5366C45.3613 89.9292 46.6309 91.5894 48.9258 91.5894Z" fill="#000000" fill-opacity="0.85"/>
 </g>
</svg>
