<?xml version="1.0" encoding="UTF-8"?>
<!--Generator: Apple Native CoreSVG 232.5-->
<!DOCTYPE svg
PUBLIC "-//W3C//DTD SVG 1.1//EN"
       "http://www.w3.org/Graphics/SVG/1.1/DTD/svg11.dtd">
<svg version="1.1" xmlns="http://www.w3.org/2000/svg" xmlns:xlink="http://www.w3.org/1999/xlink" width="145.813" height="112.451">
 <g>
  <rect height="112.451" opacity="0" width="145.813" x="0" y="0"/>
  <path d="M125.844 37.4988C123.042 36.8143 120.21 37.305 117.952 38.7194C111.005 20.6282 93.4866 7.86133 72.9065 7.86133C46.1975 7.86133 24.6155 29.4434 24.6155 56.2012C24.6155 82.959 46.1487 104.443 72.9065 104.443C93.4602 104.443 110.96 91.7668 117.927 73.7395C120.188 75.1573 123.023 75.6459 125.815 74.9728C118.126 96.7489 97.3168 112.305 72.9065 112.305C41.9495 112.305 16.7542 87.207 16.7542 56.2012C16.7542 25.1953 41.9495 0 72.9065 0C97.3471 0 118.177 15.6551 125.844 37.4988Z" fill="#000000" fill-opacity="0.85"/>
  <path d="M126.032 44.8242C123.346 42.8223 119.977 44.043 119.977 47.4121L119.977 65.0391C119.977 68.5059 123.395 69.5801 125.983 67.627L137.75 58.8379C139.557 57.4707 139.655 54.9316 137.75 53.5645Z" fill="#000000" fill-opacity="0.85"/>
  <path d="M72.9065 95.166C94.4885 95.166 111.871 77.7344 111.871 56.2012C111.871 34.6191 94.4885 17.1875 72.9065 17.1875C51.4221 17.1875 33.8928 34.6191 33.8928 56.2012C33.8928 77.7344 51.4221 95.166 72.9065 95.166ZM72.9065 87.3047C55.6702 87.3047 41.7542 73.4375 41.7542 56.2012C41.7542 38.916 55.6702 25.0488 72.9065 25.0488C90.1917 25.0488 104.01 38.916 104.01 56.2012C104.01 73.4375 90.1917 87.3047 72.9065 87.3047ZM65.7288 74.9023L83.5022 74.9023C85.26 74.9023 86.7249 73.6816 86.7249 71.8262C86.7249 69.9707 85.26 68.6523 83.5022 68.6523L69.5374 68.6523L69.5374 40.918C69.5374 38.4766 68.0725 36.8164 65.7288 36.8164C63.4339 36.8164 62.1643 38.5254 62.1643 40.918L62.1643 70.8496C62.1643 73.2422 63.4339 74.9023 65.7288 74.9023Z" fill="#000000" fill-opacity="0.85"/>
 </g>
</svg>
