<?xml version="1.0" encoding="UTF-8"?>
<!--Generator: Apple Native CoreSVG 232.5-->
<!DOCTYPE svg
PUBLIC "-//W3C//DTD SVG 1.1//EN"
       "http://www.w3.org/Graphics/SVG/1.1/DTD/svg11.dtd">
<svg version="1.1" xmlns="http://www.w3.org/2000/svg" xmlns:xlink="http://www.w3.org/1999/xlink" width="112.061" height="95.5566">
 <g>
  <rect height="95.5566" opacity="0" width="112.061" x="0" y="0"/>
  <path d="M56.0547 80.5176C62.8202 80.5176 69.1456 79.8765 74.9023 78.6321L74.9023 80.6152C74.9023 89.9902 67.8711 95.5566 56.0547 95.5566C44.1895 95.5566 37.1582 89.9902 37.1582 80.6152L37.1582 78.6264C42.9276 79.8747 49.2694 80.5176 56.0547 80.5176Z" fill="#000000" fill-opacity="0.85"/>
  <path d="M56.0547 74.8535C86.5234 74.8535 106.396 61.377 106.396 41.8945C106.396 22.4609 86.4746 8.98438 55.957 8.98438C25.5371 8.98438 5.71289 22.4609 5.71289 41.8945C5.71289 61.377 25.5371 74.8535 56.0547 74.8535ZM56.0547 66.4551C31.2012 66.4551 14.5508 56.4941 14.5508 41.8945C14.5508 27.2949 31.2012 17.3828 55.957 17.3828C80.8105 17.3828 97.5586 27.2949 97.5586 41.8945C97.5586 56.4941 80.8594 66.4551 56.0547 66.4551Z" fill="#000000" fill-opacity="0.85"/>
  <path d="M49.2188 57.1777L64.2578 57.1777C66.1621 57.1777 67.4805 55.8594 67.4805 54.0527C67.4805 52.1484 66.1621 50.8789 64.2578 50.8789L52.832 50.8789L52.832 28.8574C52.832 26.416 51.416 24.9512 49.2188 24.9512C47.0703 24.9512 45.6055 26.4648 45.6055 28.8574L45.6055 53.2715C45.6055 55.6152 47.0215 57.1777 49.2188 57.1777Z" fill="#000000" fill-opacity="0.85"/>
 </g>
</svg>
