<?xml version="1.0" encoding="UTF-8"?>
<!--Generator: Apple Native CoreSVG 232.5-->
<!DOCTYPE svg
PUBLIC "-//W3C//DTD SVG 1.1//EN"
       "http://www.w3.org/Graphics/SVG/1.1/DTD/svg11.dtd">
<svg version="1.1" xmlns="http://www.w3.org/2000/svg" xmlns:xlink="http://www.w3.org/1999/xlink" width="112.646" height="85.2051">
 <g>
  <rect height="85.2051" opacity="0" width="112.646" x="0" y="0"/>
  <path d="M40.9668 85.1562L71.6797 85.1562C100 85.1562 112.646 72.1191 112.646 45.459L112.646 14.7949C112.646 4.98047 107.568 0 97.6562 0L14.9902 0C5.07812 0 0 4.98047 0 14.7949L0 45.459C0 72.1191 12.6465 85.1562 40.9668 85.1562ZM40.9668 77.2949C17.9199 77.2949 7.86133 67.2852 7.86133 45.9473L7.86133 15.2344C7.86133 10.3516 10.4004 7.86133 15.1855 7.86133L97.4609 7.86133C102.148 7.86133 104.785 10.3516 104.785 15.2344L104.785 45.9473C104.785 67.2852 94.7266 77.2949 71.6309 77.2949Z" fill="#000000" fill-opacity="0.85"/>
  <path d="M41.0156 62.4023L55.0293 62.4023C56.6406 62.4023 58.0078 61.0352 58.0078 59.4238C58.0078 57.8125 56.6406 56.4453 55.0293 56.4453L44.5801 56.4453L44.5801 25.8301C44.5801 23.877 42.9688 22.2656 41.0645 22.2656C39.1113 22.2656 37.5 23.877 37.5 25.8301L37.5 58.6914C37.5 60.9863 38.7695 62.4023 41.0156 62.4023ZM71.0449 62.8906C72.998 62.8906 74.6094 61.2793 74.6094 59.2773L74.6094 26.2207C74.6094 23.6816 73.0469 22.2168 70.5078 22.2168C68.457 22.2168 66.7969 23.3398 65.625 24.2188L60.2539 28.418C59.4238 29.0527 58.7402 29.9805 58.7402 31.2988C58.7402 32.8125 59.7656 33.8379 61.2305 33.8379C62.0117 33.8379 62.5 33.6426 62.9883 33.252L67.4805 29.6387L67.4805 59.2773C67.4805 61.2793 69.0918 62.8906 71.0449 62.8906Z" fill="#000000" fill-opacity="0.85"/>
 </g>
</svg>
