<?xml version="1.0" encoding="UTF-8"?>
<!--Generator: Apple Native CoreSVG 232.5-->
<!DOCTYPE svg
PUBLIC "-//W3C//DTD SVG 1.1//EN"
       "http://www.w3.org/Graphics/SVG/1.1/DTD/svg11.dtd">
<svg version="1.1" xmlns="http://www.w3.org/2000/svg" xmlns:xlink="http://www.w3.org/1999/xlink" width="112.646" height="85.2051">
 <g>
  <rect height="85.2051" opacity="0" width="112.646" x="0" y="0"/>
  <path d="M112.646 14.7949L112.646 45.459C112.646 72.1191 100 85.1562 71.6797 85.1562L40.9668 85.1562C12.6465 85.1562 0 72.1191 0 45.459L0 14.7949C0 4.98047 5.07812 0 14.9902 0L97.6562 0C107.568 0 112.646 4.98047 112.646 14.7949ZM65.5762 24.3652L60.2539 28.5645C59.4238 29.1504 58.7402 30.127 58.7402 31.3965C58.7402 32.9102 59.7168 33.9355 61.1816 33.9355C61.9629 33.9355 62.4512 33.7402 62.9883 33.3496L67.3828 29.7852L67.3828 59.082C67.3828 61.084 68.9941 62.6953 70.9473 62.6953C72.8516 62.6953 74.5117 61.084 74.5117 59.082L74.5117 26.3672C74.5117 23.877 72.9004 22.4121 70.3613 22.4121C68.3594 22.4121 66.748 23.5352 65.5762 24.3652ZM37.6465 26.0254L37.6465 58.5449C37.6465 60.8398 38.916 62.207 41.1621 62.207L55.0781 62.207C56.6895 62.207 58.0078 60.8887 58.0078 59.2773C58.0078 57.6172 56.6895 56.2988 55.0781 56.2988L44.7266 56.2988L44.7266 26.0254C44.7266 24.0723 43.1641 22.4609 41.2109 22.4609C39.3066 22.4609 37.6465 24.0723 37.6465 26.0254Z" fill="#000000" fill-opacity="0.85"/>
 </g>
</svg>
