<?xml version="1.0" encoding="UTF-8"?>
<!--Generator: Apple Native CoreSVG 232.5-->
<!DOCTYPE svg
PUBLIC "-//W3C//DTD SVG 1.1//EN"
       "http://www.w3.org/Graphics/SVG/1.1/DTD/svg11.dtd">
<svg version="1.1" xmlns="http://www.w3.org/2000/svg" xmlns:xlink="http://www.w3.org/1999/xlink" width="112.646" height="85.2051">
 <g>
  <rect height="85.2051" opacity="0" width="112.646" x="0" y="0"/>
  <path d="M40.9668 0C12.6465 0 0 13.0371 0 39.6973L0 70.3125C0 80.1758 5.07812 85.1562 14.9902 85.1562L97.6562 85.1562C107.568 85.1562 112.646 80.127 112.646 70.3125L112.646 39.6973C112.646 13.0371 100 0 71.6797 0ZM40.9668 7.86133L71.6309 7.86133C94.7266 7.86133 104.785 17.8711 104.785 39.1602L104.785 69.9219C104.785 74.8047 102.148 77.2949 97.4609 77.2949L15.1855 77.2949C10.4004 77.2949 7.86133 74.8047 7.86133 69.9219L7.86133 39.1602C7.86133 17.8711 17.9199 7.86133 40.9668 7.86133Z" fill="#000000" fill-opacity="0.85"/>
  <path d="M37.3047 62.4023L51.3672 62.4023C52.9785 62.4023 54.2969 61.0352 54.2969 59.4238C54.2969 57.8125 52.9785 56.4453 51.3672 56.4453L40.918 56.4453L40.918 25.8301C40.918 23.877 39.3066 22.2656 37.3535 22.2656C35.4492 22.2656 33.8379 23.877 33.8379 25.8301L33.8379 58.6914C33.8379 60.9863 35.0586 62.4023 37.3047 62.4023ZM61.5234 62.3535L78.4668 62.3535C80.1758 62.3535 81.25 61.1816 81.25 59.4727C81.25 57.666 80.127 56.5918 78.4668 56.5918L66.8945 56.5918L66.8945 56.2012L73.9746 47.168C78.9062 41.1133 80.4688 37.5488 80.4688 33.252C80.4688 26.6113 76.0254 21.8262 69.2871 21.8262C63.0371 21.8262 58.3008 27.002 58.3008 32.1289C58.3008 33.8867 59.3262 35.1562 61.2305 35.1562C62.8418 35.1562 63.8184 34.4238 64.3066 32.8613C65.2344 29.5898 66.4551 27.4902 69.2383 27.4902C72.168 27.4902 73.8281 30.127 73.8281 33.5449C73.8281 37.4512 71.0938 41.4062 68.5059 44.7266L60.0586 55.6152C59.1309 56.7383 58.2031 57.959 58.2031 59.4727C58.2031 61.1328 59.2773 62.3535 61.5234 62.3535Z" fill="#000000" fill-opacity="0.85"/>
 </g>
</svg>
