<?xml version="1.0" encoding="UTF-8"?>
<!--Generator: Apple Native CoreSVG 232.5-->
<!DOCTYPE svg
PUBLIC "-//W3C//DTD SVG 1.1//EN"
       "http://www.w3.org/Graphics/SVG/1.1/DTD/svg11.dtd">
<svg version="1.1" xmlns="http://www.w3.org/2000/svg" xmlns:xlink="http://www.w3.org/1999/xlink" width="86.8652" height="104.932">
 <g>
  <rect height="104.932" opacity="0" width="86.8652" x="0" y="0"/>
  <path d="M86.8652 14.7949L86.8164 90.2344C86.8164 99.4141 81.25 104.883 71.9727 104.883L29.0527 104.883C11.377 104.883 0 93.5059 0 75.8301L0 51.7578C0 45.0684 2.05078 39.6973 6.20117 35.8887L37.0605 7.51953C43.0664 2.00195 49.4629 0 57.1289 0L72.1191 0C80.9082 0 86.8652 5.95703 86.8652 14.7949ZM20.752 45.1172L20.752 79.0039C20.752 81.3965 22.0703 82.8125 24.3652 82.8125L38.8672 82.8125C40.5273 82.8125 41.9434 81.4453 41.9434 79.7363C41.9434 78.0762 40.5273 76.709 38.8672 76.709L28.125 76.709L28.125 45.1172C28.125 43.1152 26.416 41.4551 24.4141 41.4551C22.4121 41.4551 20.752 43.1152 20.752 45.1172ZM45.9961 51.6113C45.9961 53.4668 47.1191 54.7852 49.0723 54.7852C50.7324 54.7852 51.709 54.0039 52.2461 52.3438C53.2227 48.9746 54.4434 46.8262 57.3242 46.8262C60.3516 46.8262 62.0117 49.5117 62.0117 53.125C62.0117 57.1289 59.2285 61.2305 56.5918 64.6484L47.8516 75.7812C46.875 77.002 45.9473 78.2715 45.9473 79.834C45.9473 81.4941 47.0703 82.7637 49.3652 82.7637L66.8457 82.7637C68.6523 82.7637 69.7266 81.5918 69.7266 79.834C69.7266 77.9297 68.6035 76.8555 66.8457 76.8555L54.9316 76.8555L54.9316 76.416L62.2559 67.1875C67.2852 60.8887 68.9453 57.1777 68.9453 52.7344C68.9453 45.9473 64.3066 41.0156 57.373 41.0156C50.9277 41.0156 45.9961 46.3379 45.9961 51.6113Z" fill="#000000" fill-opacity="0.85"/>
 </g>
</svg>
