<?xml version="1.0" encoding="UTF-8"?>
<!--Generator: Apple Native CoreSVG 232.5-->
<!DOCTYPE svg
PUBLIC "-//W3C//DTD SVG 1.1//EN"
       "http://www.w3.org/Graphics/SVG/1.1/DTD/svg11.dtd">
<svg version="1.1" xmlns="http://www.w3.org/2000/svg" xmlns:xlink="http://www.w3.org/1999/xlink" width="86.8652" height="104.932">
 <g>
  <rect height="104.932" opacity="0" width="86.8652" x="0" y="0"/>
  <path d="M29.0527 104.883L71.9727 104.883C81.25 104.883 86.8164 99.4141 86.8164 90.2344L86.8652 14.7949C86.8652 5.95703 80.9082 0 72.1191 0L57.1289 0C49.4629 0 43.0664 2.00195 37.0605 7.51953L6.20117 35.8887C2.05078 39.6973 0 45.0684 0 51.7578L0 75.8301C0 93.5059 11.377 104.883 29.0527 104.883ZM29.248 97.0215C15.5762 97.0215 7.86133 89.3555 7.86133 75.6836L7.86133 51.8555C7.86133 46.9727 8.98438 43.9941 11.6699 41.5527L42.4805 13.2812C46.8262 9.32617 51.2695 7.86133 57.3242 7.86133L71.9727 7.86133C76.2207 7.86133 79.0039 10.6934 79.0039 14.8926L78.9551 90.0879C78.9551 95.2637 76.9043 97.0215 71.8262 97.0215Z" fill="#000000" fill-opacity="0.85"/>
  <path d="M26.6113 80.6641L39.5508 80.6641C41.0156 80.6641 42.2852 79.3945 42.2852 77.9297C42.2852 76.416 41.0156 75.1953 39.5508 75.1953L29.8828 75.1953L29.8828 46.9238C29.8828 45.166 28.418 43.7012 26.6602 43.7012C24.8535 43.7012 23.3887 45.166 23.3887 46.9238L23.3887 77.2461C23.3887 79.3457 24.5605 80.6641 26.6113 80.6641ZM48.9258 80.6152L64.5508 80.6152C66.1133 80.6152 67.0898 79.541 67.0898 77.9785C67.0898 76.2695 66.0645 75.3418 64.5508 75.3418L53.8574 75.3418L53.8574 74.9512L60.4004 66.6504C64.9414 61.0352 66.4062 57.7637 66.4062 53.7598C66.4062 47.7051 62.2559 43.2617 56.0547 43.2617C50.293 43.2617 45.9473 48.0469 45.9473 52.7344C45.9473 54.3945 46.9238 55.5664 48.6328 55.5664C50.0977 55.5664 51.0254 54.8828 51.5137 53.418C52.3438 50.3906 53.4668 48.4863 56.0059 48.4863C58.7402 48.4863 60.2539 50.9277 60.2539 54.0527C60.2539 57.666 57.7637 61.3281 55.3711 64.3555L47.5586 74.4141C46.7285 75.4395 45.8984 76.5625 45.8984 77.9785C45.8984 79.4922 46.875 80.6152 48.9258 80.6152Z" fill="#000000" fill-opacity="0.85"/>
 </g>
</svg>
