<?xml version="1.0" encoding="UTF-8"?>
<!--Generator: Apple Native CoreSVG 232.5-->
<!DOCTYPE svg
PUBLIC "-//W3C//DTD SVG 1.1//EN"
       "http://www.w3.org/Graphics/SVG/1.1/DTD/svg11.dtd">
<svg version="1.1" xmlns="http://www.w3.org/2000/svg" xmlns:xlink="http://www.w3.org/1999/xlink" width="99.6094" height="99.6582">
 <g>
  <rect height="99.6582" opacity="0" width="99.6094" x="0" y="0"/>
  <path d="M49.8047 99.6094C77.0508 99.6094 99.6094 77.002 99.6094 49.8047C99.6094 22.5586 77.002 0 49.7559 0C22.5586 0 0 22.5586 0 49.8047C0 77.002 22.6074 99.6094 49.8047 99.6094ZM49.8047 91.3086C26.7578 91.3086 8.34961 72.8516 8.34961 49.8047C8.34961 26.7578 26.709 8.30078 49.7559 8.30078C72.8027 8.30078 91.3086 26.7578 91.3086 49.8047C91.3086 72.8516 72.8516 91.3086 49.8047 91.3086Z" fill="#000000" fill-opacity="0.85"/>
  <path d="M30.7129 69.5801L44.7754 69.5801C46.3867 69.5801 47.7051 68.2617 47.7051 66.6016C47.7051 64.9902 46.3867 63.6719 44.7754 63.6719L34.3262 63.6719L34.3262 33.0078C34.3262 31.1035 32.7148 29.4922 30.7617 29.4922C28.8574 29.4922 27.2461 31.1035 27.2461 33.0078L27.2461 65.918C27.2461 68.2129 28.4668 69.5801 30.7129 69.5801ZM54.9316 69.5312L71.875 69.5312C73.584 69.5312 74.6582 68.4082 74.6582 66.6992C74.6582 64.8438 73.5352 63.8184 71.875 63.8184L60.3027 63.8184L60.3027 63.4277L67.3828 54.3945C72.3145 48.3398 73.9258 44.7266 73.9258 40.4297C73.9258 33.8379 69.4336 29.0527 62.6953 29.0527C56.4453 29.0527 51.709 34.2285 51.709 39.3066C51.709 41.1133 52.7344 42.3828 54.6387 42.3828C56.25 42.3828 57.2266 41.6504 57.7148 40.0391C58.6426 36.7676 59.8633 34.7168 62.6465 34.7168C65.5762 34.7168 67.2363 37.3047 67.2363 40.7715C67.2363 44.6777 64.502 48.6328 61.9141 51.9531L53.4668 62.793C52.5391 63.9648 51.6113 65.1855 51.6113 66.6992C51.6113 68.3594 52.6855 69.5312 54.9316 69.5312Z" fill="#000000" fill-opacity="0.85"/>
 </g>
</svg>
