<?xml version="1.0" encoding="UTF-8"?>
<!--Generator: Apple Native CoreSVG 232.5-->
<!DOCTYPE svg
PUBLIC "-//W3C//DTD SVG 1.1//EN"
       "http://www.w3.org/Graphics/SVG/1.1/DTD/svg11.dtd">
<svg version="1.1" xmlns="http://www.w3.org/2000/svg" xmlns:xlink="http://www.w3.org/1999/xlink" width="126.367" height="87.8637">
 <g>
  <rect height="87.8637" opacity="0" width="126.367" x="0" y="0"/>
  <path d="M126.367 18.8586L126.367 49.4738C126.367 59.923 124.658 64.7082 116.895 68.7121L89.4531 82.8234C79.3457 88.048 72.0703 89.3664 60.7422 86.0461L18.457 73.7414C5.41992 69.884 0 62.1203 0 49.4738L0 19.0051C0 10.1672 5.9082 4.16132 14.6484 4.16132L111.621 4.11249C120.459 4.11249 126.367 10.0695 126.367 18.8586ZM64.3555 28.3801C64.0137 29.3566 63.916 30.2355 63.916 31.1144C63.916 32.7258 65.0391 34.093 67.041 34.093C68.7988 34.093 69.7754 33.4094 70.2637 31.7004C71.0449 28.7219 72.6562 26.8176 75.4883 26.8176C78.8086 26.8176 80.3711 29.4055 80.3711 32.7258C80.3711 36.3879 78.3203 39.0734 74.5605 39.0734L73.3887 39.0734C71.6309 39.0734 70.6055 40.0988 70.6055 41.759C70.6055 43.4191 71.6797 44.4445 73.3887 44.4445L74.6094 44.4445C78.9062 44.4445 81.25 46.7394 81.25 51.134C81.25 54.6008 79.3945 57.5305 75.6836 57.5305C72.0215 57.5305 70.4102 55.0891 69.7754 52.843C69.2871 51.1828 68.1641 50.3527 66.5527 50.3527C64.5996 50.3527 63.2812 51.5246 63.2812 53.5266C63.2812 54.4543 63.4277 55.3332 63.6719 56.1633C65.1367 60.8508 70.2637 63.4387 75.6836 63.4387C82.9102 63.4387 88.4766 58.8976 88.4766 51.3781C88.4766 45.1281 84.7168 42.0519 80.4688 41.6125L80.4688 41.4172C85.0098 40.1965 87.2559 36.1437 87.2559 31.9445C87.2559 24.9621 82.0312 21.007 75.4883 21.007C70.3125 21.007 65.7227 23.9367 64.3555 28.3801ZM37.9395 24.9133L37.9395 58.7512C37.9395 61.1437 39.2578 62.6086 41.5527 62.6086L56.0059 62.6086C57.666 62.6086 59.082 61.1926 59.082 59.4836C59.082 57.8234 57.666 56.4074 56.0059 56.4074L45.2637 56.4074L45.2637 24.9133C45.2637 22.9113 43.6035 21.2512 41.6016 21.2512C39.5996 21.2512 37.9395 22.9113 37.9395 24.9133Z" fill="#000000" fill-opacity="0.85"/>
 </g>
</svg>
