<?xml version="1.0" encoding="UTF-8"?>
<!--Generator: Apple Native CoreSVG 232.5-->
<!DOCTYPE svg
PUBLIC "-//W3C//DTD SVG 1.1//EN"
       "http://www.w3.org/Graphics/SVG/1.1/DTD/svg11.dtd">
<svg version="1.1" xmlns="http://www.w3.org/2000/svg" xmlns:xlink="http://www.w3.org/1999/xlink" width="115.137" height="87.7441">
 <g>
  <rect height="87.7441" opacity="0" width="115.137" x="0" y="0"/>
  <path d="M38.4766 87.6465L76.6602 87.6465C104.98 87.6465 115.137 77.1484 115.137 51.0254L115.137 36.6699C115.137 10.5469 104.98 0 76.6602 0L38.4766 0C10.1562 0 0 10.5469 0 36.6699L0 51.0254C0 77.1484 10.1562 87.6465 38.4766 87.6465ZM38.4766 79.7852C15.4297 79.7852 7.86133 72.3145 7.86133 51.0254L7.86133 36.6699C7.86133 15.3809 15.4297 7.86133 38.4766 7.86133L76.6602 7.86133C99.707 7.86133 107.275 15.3809 107.275 36.6699L107.275 51.0254C107.275 72.3145 99.707 79.7852 76.6602 79.7852Z" fill="#000000" fill-opacity="0.85"/>
  <path d="M36.9141 63.623L50.9766 63.623C52.5879 63.623 53.9551 62.3047 53.9551 60.6445C53.9551 59.0332 52.5879 57.7148 50.9766 57.7148L40.5273 57.7148L40.5273 27.0508C40.5273 25.1465 38.916 23.5352 36.9629 23.5352C35.0586 23.5352 33.4473 25.1465 33.4473 27.0508L33.4473 59.9609C33.4473 62.2559 34.7168 63.623 36.9141 63.623ZM75.6836 64.209C77.5391 64.209 79.0039 63.0859 79.0039 60.7422L79.0039 55.8594L80.7617 55.8594C82.666 55.8594 83.5449 54.6387 83.5449 52.9785C83.5449 51.416 82.7148 50.1953 80.7617 50.1953L79.0039 50.1953L79.0039 28.7598C79.0039 25.3906 76.8066 23.4863 73.6328 23.4863C70.166 23.4863 68.5547 25.2441 67.1875 28.2715L58.4961 47.2168C57.666 49.1211 57.373 50.3906 57.373 51.9043C57.373 54.248 58.9844 55.8594 61.377 55.8594L72.3145 55.8594L72.3145 60.7422C72.3145 63.3301 74.1211 64.209 75.6836 64.209ZM72.4609 50.3418L63.3789 50.3418L63.3789 50L72.2656 29.6387L72.4609 29.6387Z" fill="#000000" fill-opacity="0.85"/>
 </g>
</svg>
