<?xml version="1.0" encoding="UTF-8"?>
<!--Generator: Apple Native CoreSVG 232.5-->
<!DOCTYPE svg
PUBLIC "-//W3C//DTD SVG 1.1//EN"
       "http://www.w3.org/Graphics/SVG/1.1/DTD/svg11.dtd">
<svg version="1.1" xmlns="http://www.w3.org/2000/svg" xmlns:xlink="http://www.w3.org/1999/xlink" width="110.693" height="115.771">
 <g>
  <rect height="115.771" opacity="0" width="110.693" x="0" y="0"/>
  <path d="M55.3223 115.771C81.1035 115.771 98.2422 98.1934 98.2422 71.6797C98.2422 57.0312 91.748 42.041 81.3965 32.959C81.2988 19.4336 70.9961 11.2793 55.3223 11.2793C39.6484 11.2793 29.3945 19.4824 29.2969 33.0078C18.9453 42.0898 12.4512 56.8359 12.4512 71.6797C12.4512 98.1934 29.5898 115.771 55.3223 115.771ZM55.3223 44.5801C63.9648 44.5801 72.5098 42.9199 78.0762 40.4297C84.1309 46.7285 90.5762 57.8125 90.5762 71.6797C90.5762 93.5547 76.4648 108.154 55.3223 108.154C34.1797 108.154 20.0684 93.5547 20.0684 71.6797C20.0684 57.8613 26.4648 46.8262 32.6172 40.4297C38.1836 42.9199 46.7285 44.5801 55.3223 44.5801ZM51.9531 110.303L58.3496 110.303L58.3496 53.7598C58.3496 52.002 56.8848 50.5859 55.127 50.5859C53.3691 50.5859 51.9531 52.002 51.9531 53.7598ZM39.7461 61.6699C43.1641 61.6699 45.8984 58.8379 45.8984 55.4688C45.8984 52.0996 43.1641 49.3164 39.7461 49.3164C36.377 49.3164 33.6426 52.0996 33.6426 55.4688C33.6426 58.8379 36.377 61.6699 39.7461 61.6699ZM33.9355 81.0059C37.8418 81.0059 41.0645 77.7832 41.0645 73.8281C41.0645 69.873 37.8418 66.6504 33.9355 66.6504C29.9316 66.6504 26.709 69.873 26.709 73.8281C26.709 77.7832 29.9316 81.0059 33.9355 81.0059ZM39.7461 97.7051C42.9199 97.7051 45.459 95.166 45.459 92.041C45.459 88.8672 42.9199 86.3281 39.7461 86.3281C36.6211 86.3281 34.082 88.8672 34.082 92.041C34.082 95.166 36.6211 97.7051 39.7461 97.7051ZM70.9473 61.6699C74.3164 61.6699 77.0508 58.8379 77.0508 55.4688C77.0508 52.0996 74.3164 49.3164 70.9473 49.3164C67.5293 49.3164 64.7949 52.0996 64.7949 55.4688C64.7949 58.8379 67.5293 61.6699 70.9473 61.6699ZM76.7578 81.0059C80.7129 81.0059 83.9844 77.7832 83.9844 73.8281C83.9844 69.873 80.7129 66.6504 76.7578 66.6504C72.8516 66.6504 69.5801 69.873 69.5801 73.8281C69.5801 77.7832 72.8516 81.0059 76.7578 81.0059ZM70.9473 97.7051C74.0723 97.7051 76.6113 95.166 76.6113 92.041C76.6113 88.8672 74.0723 86.3281 70.9473 86.3281C67.7734 86.3281 65.2344 88.8672 65.2344 92.041C65.2344 95.166 67.7734 97.7051 70.9473 97.7051ZM33.8379 8.10547L37.1582 9.32617C39.2578 10.0586 40.0879 11.1816 39.6973 12.9395L39.1113 15.3809L46.2891 15.332L46.6309 12.8418C47.168 8.10547 44.9707 4.58984 40.1367 2.88086L36.2793 1.31836C31.4453-0.341797 29.1504 6.73828 33.8379 8.10547ZM76.8555 8.10547C81.543 6.73828 79.248-0.341797 74.4141 1.31836L70.5566 2.88086C65.7227 4.58984 63.5254 8.10547 64.0625 12.8418L64.4043 15.332L71.582 15.3809L70.9961 12.9395C70.6055 11.1816 71.4355 10.0586 73.5352 9.32617ZM24.9023 42.041L15.8203 34.3262C14.0137 32.8125 11.6699 32.6172 10.1562 34.4238C8.69141 36.1816 9.22852 38.5742 11.0352 40.0391L20.2637 47.8027ZM16.0156 65.0879L4.00391 65.1367C1.5625 65.1367 0 66.6504 0 68.8477C0 71.0938 1.5625 72.6074 4.05273 72.6074L16.0156 72.5586ZM19.9707 93.6523L10.8398 101.318C9.08203 102.783 8.54492 105.127 10.0098 106.934C11.5234 108.74 13.8184 108.545 15.6738 107.031L24.6582 99.4141ZM85.7422 42.041L90.4297 47.8027L99.6582 40.0391C101.416 38.5742 102.002 36.1816 100.537 34.4238C99.0234 32.6172 96.6797 32.8125 94.873 34.3262ZM94.6777 65.0879L94.6777 72.5586L106.641 72.6074C109.082 72.6074 110.693 71.0938 110.693 68.8477C110.693 66.6504 109.082 65.1367 106.689 65.1367ZM90.6738 93.6523L85.9863 99.3652L95.0195 107.031C96.8262 108.545 99.1699 108.74 100.684 106.934C102.148 105.127 101.611 102.783 99.8047 101.318Z" fill="#000000" fill-opacity="0.85"/>
 </g>
</svg>
