<?xml version="1.0" encoding="UTF-8"?>
<!--Generator: Apple Native CoreSVG 232.5-->
<!DOCTYPE svg
PUBLIC "-//W3C//DTD SVG 1.1//EN"
       "http://www.w3.org/Graphics/SVG/1.1/DTD/svg11.dtd">
<svg version="1.1" xmlns="http://www.w3.org/2000/svg" xmlns:xlink="http://www.w3.org/1999/xlink" width="110.693" height="115.69">
 <g>
  <rect height="115.69" opacity="0" width="110.693" x="0" y="0"/>
  <path d="M22.2874 101.578L15.6738 107.186C13.8184 108.699 11.5234 108.895 10.0098 107.088C8.54492 105.33 9.08203 102.986 10.8398 101.473L18.1193 95.4001C19.3177 97.6311 20.7109 99.6973 22.2874 101.578ZM99.8047 101.473C101.611 102.986 102.148 105.33 100.684 107.088C99.1699 108.895 96.8262 108.699 95.0195 107.186L88.3906 101.596C89.9723 99.712 91.3694 97.6416 92.5708 95.4056ZM12.8845 65.2911C12.5993 67.48 12.4512 69.6227 12.4512 71.6388L12.4911 72.7274L4.05273 72.7618C1.5625 72.7618 0 71.297 0 69.0509C0 66.8048 1.5625 65.2911 4.00391 65.2911ZM110.693 69.0509C110.693 71.297 109.082 72.7618 106.641 72.7618L98.2023 72.7274C98.2388 72.3759 98.2422 72.0081 98.2422 71.6388C98.2422 69.6227 98.0941 67.48 97.8089 65.2911L106.689 65.2911C109.082 65.2911 110.693 66.8048 110.693 69.0509ZM15.8203 34.5294L23.2159 40.7719C23.0505 40.9103 22.8798 41.0603 22.7051 41.2188C21.2261 42.6163 19.8694 44.4776 18.6652 46.6547L11.0352 40.2423C9.27734 38.7286 8.69141 36.3849 10.1562 34.5782C11.6699 32.7716 14.0137 32.9669 15.8203 34.5294ZM100.537 34.5782C102.002 36.3849 101.416 38.7286 99.6582 40.2423L92.0282 46.6547C90.824 44.4776 89.4672 42.6163 87.9883 41.2188C87.8136 41.0603 87.6429 40.9103 87.4775 40.7719L94.873 34.5294C96.6797 32.9669 99.0234 32.7716 100.537 34.5782Z" fill="#000000" fill-opacity="0.85"/>
  <path d="M87.9883 41.2188C94.1895 47.0782 98.2422 61.0919 98.2422 71.6388C98.2422 95.2228 84.5215 112.361 63.5254 115.047C60.2051 115.438 58.5449 114.266 58.5449 111.727L58.5449 56.1603C58.5449 54.4024 57.0801 52.9864 55.3223 52.9864C53.5645 52.9864 52.1484 54.4024 52.1484 56.1603L52.1484 111.727C52.1484 114.266 50.4883 115.438 47.168 115.047C26.1719 112.361 12.4512 95.2228 12.4512 71.6388C12.4512 61.0919 16.5039 47.0782 22.7051 41.2188C25.8789 38.338 27.7344 38.2892 29.5898 39.0704C36.8164 42.2931 45.9473 44.3438 55.3223 44.3438C64.7461 44.3438 73.877 42.2931 81.1035 39.0704C82.959 38.2892 84.8145 38.338 87.9883 41.2188ZM31.9336 95.8575C31.9336 98.836 34.3262 101.229 37.3047 101.229C40.332 101.229 42.7246 98.836 42.7246 95.8575C42.7246 92.879 40.332 90.4864 37.3047 90.4864C34.3262 90.4864 31.9336 92.879 31.9336 95.8575ZM67.9688 95.8575C67.9688 98.836 70.3613 101.229 73.3887 101.229C76.3672 101.229 78.7598 98.836 78.7598 95.8575C78.7598 92.879 76.3672 90.4864 73.3887 90.4864C70.3613 90.4864 67.9688 92.879 67.9688 95.8575ZM23.7793 75.9845C23.7793 80.086 27.0508 83.3575 31.1035 83.3575C35.1074 83.3575 38.4277 80.086 38.4277 75.9845C38.4277 71.9806 35.1074 68.7091 31.1035 68.7091C27.0508 68.7091 23.7793 71.9806 23.7793 75.9845ZM72.2656 75.9845C72.2656 80.086 75.5859 83.3575 79.5898 83.3575C83.6426 83.3575 86.9141 80.086 86.9141 75.9845C86.9141 71.9806 83.6426 68.7091 79.5898 68.7091C75.5859 68.7091 72.2656 71.9806 72.2656 75.9845ZM30.0781 56.0626C30.0781 59.4317 32.8613 62.3614 36.3281 62.3614C39.7949 62.3614 42.627 59.4806 42.627 56.0626C42.627 52.5958 39.7949 49.7638 36.3281 49.7638C32.8613 49.7638 30.0781 52.5958 30.0781 56.0626ZM68.0664 56.0626C68.0664 59.4806 70.8984 62.3614 74.3652 62.3614C77.832 62.3614 80.6152 59.4317 80.6152 56.0626C80.6152 52.5958 77.832 49.7638 74.3652 49.7638C70.8984 49.7638 68.0664 52.5958 68.0664 56.0626Z" fill="#000000" fill-opacity="0.85"/>
  <path d="M29.3945 28.5724C29.3945 31.2091 30.4199 33.2599 33.5449 34.6759C38.916 37.1661 47.0215 38.6798 55.3223 38.6798C63.6719 38.6798 71.7773 37.1661 77.1484 34.6759C80.2734 33.2599 81.2988 31.2091 81.2988 28.5724C81.2988 17.8302 70.9961 9.28525 55.3223 9.28525C39.6973 9.28525 29.3945 17.8302 29.3945 28.5724ZM33.8379 7.03916L37.1582 8.25986C39.2578 8.99228 40.0879 10.1153 39.6973 11.8243L39.1113 14.3145L46.2891 14.2657L46.6309 11.7755C47.168 7.03916 44.9707 3.52353 40.1367 1.81455L36.2793 0.252048C31.4453-1.40811 29.1504 5.62314 33.8379 7.03916ZM76.8555 7.03916C81.543 5.62314 79.248-1.40811 74.4141 0.252048L70.5566 1.81455C65.7227 3.52353 63.5254 7.03916 64.0625 11.7755L64.4043 14.2657L71.582 14.3145L70.9961 11.8243C70.6055 10.1153 71.4355 8.99228 73.5352 8.25986Z" fill="#000000" fill-opacity="0.85"/>
 </g>
</svg>
