<?xml version="1.0" encoding="UTF-8"?>
<!--Generator: Apple Native CoreSVG 232.5-->
<!DOCTYPE svg
PUBLIC "-//W3C//DTD SVG 1.1//EN"
       "http://www.w3.org/Graphics/SVG/1.1/DTD/svg11.dtd">
<svg version="1.1" xmlns="http://www.w3.org/2000/svg" xmlns:xlink="http://www.w3.org/1999/xlink" width="75.4851" height="118.213">
 <g>
  <rect height="118.213" opacity="0" width="75.4851" x="0" y="0"/>
  <path d="M37.7425 57.7148C48.4359 57.7148 59.1293 57.0312 67.9183 55.7129C74.7054 54.7363 77.1957 49.5605 74.266 42.8223L59.764 10.1562C56.7367 3.27148 51.7074 0 44.0414 0L31.3949 0C23.7777 0 18.7484 3.27148 15.721 10.1562L1.21909 42.8223C-1.71059 49.5605 0.730813 54.7363 7.56675 55.7129C16.307 57.0312 27.0003 57.7148 37.7425 57.7148ZM37.7425 50.5371C28.8558 50.5371 20.0179 50.0488 10.3011 48.9258C7.56675 48.6328 7.1273 47.0215 8.29917 44.3848L22.1664 13.0859C23.973 9.0332 26.9515 7.12891 31.3949 7.12891L44.0414 7.12891C48.4847 7.12891 51.5121 9.0332 53.3187 13.0859L67.1859 44.3848C68.3578 47.0215 67.8695 48.6328 65.1839 48.9258C55.4671 50.0488 46.5804 50.5371 37.7425 50.5371ZM33.641 64.9902L41.7953 64.9902L41.7953 55.5664L33.641 55.5664ZM30.223 118.164L45.2132 118.164C57.8109 118.164 65.2328 111.67 65.2328 100.684C65.2328 93.7988 63.0843 83.5449 59.3246 73.1934C57.1273 67.1875 52.391 63.6719 45.6527 63.6719L29.7835 63.6719C23.0453 63.6719 18.3089 67.1875 16.1117 73.1934C12.4007 83.5449 10.2035 93.7988 10.2035 100.684C10.2035 111.67 17.6253 118.164 30.223 118.164ZM30.223 111.035C22.0687 111.035 17.2835 107.178 17.2835 100.684C17.2835 94.5312 19.3343 85.2051 22.7523 75.6348C23.8265 72.6074 26.1214 70.8008 29.7835 70.8008L45.6527 70.8008C49.3148 70.8008 51.6097 72.6074 52.6839 75.6348C56.1019 85.2051 58.1527 94.5312 58.1527 100.684C58.1527 107.178 53.3675 111.035 45.2132 111.035Z" fill="#000000" fill-opacity="0.85"/>
 </g>
</svg>
