<?xml version="1.0" encoding="UTF-8"?>
<!--Generator: Apple Native CoreSVG 232.5-->
<!DOCTYPE svg
PUBLIC "-//W3C//DTD SVG 1.1//EN"
       "http://www.w3.org/Graphics/SVG/1.1/DTD/svg11.dtd">
<svg version="1.1" xmlns="http://www.w3.org/2000/svg" xmlns:xlink="http://www.w3.org/1999/xlink" width="93.2617" height="117.041">
 <g>
  <rect height="117.041" opacity="0" width="93.2617" x="0" y="0"/>
  <path d="M52.7344 63.4277L90.7227 25.4395C95.4102 20.8008 93.1641 14.1113 87.3535 12.3047C77.3926 9.08203 66.8457 8.20312 54.834 8.88672L53.3203 7.27539C47.9492 1.61133 40.0391 1.41602 34.3262 7.03125C28.7109 12.793 28.9062 20.8984 34.5703 26.0742L36.1816 27.5879C35.498 39.5508 36.377 50 39.502 60.0098C41.3574 65.918 48.0469 68.1641 52.7344 63.4277ZM47.9004 58.5449C47.1191 59.3262 46.4355 59.2285 45.752 56.9824C43.0664 48.4375 42.334 38.8672 43.1641 27.1973C43.2617 25.5859 42.5781 24.0234 41.3574 22.9492L39.209 20.9961C36.4746 18.457 36.3281 14.8926 39.209 11.8652C42.2363 8.98438 45.752 9.08203 48.3398 11.9141L50.293 14.0625C51.416 15.2832 53.0762 15.9668 54.7852 15.8203C66.2109 15.0879 75.8301 15.8203 84.375 18.5547C86.4746 19.2383 86.5723 19.873 85.8887 20.5566ZM69.4336 58.4961C78.418 58.4961 85.791 51.1719 85.791 42.2363C85.791 37.9883 84.1309 33.8867 81.0059 30.7129L77.4414 37.5488C78.3691 38.916 78.8574 40.5273 78.8574 42.2363C78.8574 47.4121 74.5605 51.6113 69.4336 51.6113C67.7246 51.6113 66.0645 51.123 64.6973 50.2441L58.4961 54.3457C61.5234 57.1289 65.4297 58.4961 69.4336 58.4961ZM34.7168 12.6465L39.7461 7.27539L33.7891 1.36719C32.3242-0.0976562 30.0781-0.0976562 28.6133 1.36719C27.1973 2.7832 27.1484 5.0293 28.6133 6.49414ZM9.22852 67.8223L40.1367 39.4043L37.9395 30.8105L3.90625 62.1094ZM7.61719 71.582C11.8652 71.582 15.2344 68.2617 15.2344 63.9648C15.2344 59.7168 11.8652 56.3477 7.61719 56.3477C3.32031 56.3477 0 59.7168 0 63.9648C0 68.2617 3.32031 71.582 7.61719 71.582ZM27.4414 88.916L33.0078 83.3496L8.74023 59.2285L3.22266 64.7461ZM28.9062 93.9941C33.2031 93.9941 36.5234 90.8691 36.5234 86.377C36.5234 82.1289 33.1055 78.7598 28.9062 78.7598C24.6094 78.7598 21.2891 82.1289 21.2891 86.377C21.2891 90.6738 24.6094 93.9941 28.9062 93.9941ZM24.9512 110.156L32.8125 110.156L32.8125 86.5723L24.9512 86.5723ZM5.61523 117.041L57.5684 117.041C59.375 117.041 60.5957 115.723 60.5957 113.818C60.5957 110.156 57.4219 107.568 52.4902 107.568L10.6934 107.568C5.76172 107.568 2.58789 110.156 2.58789 113.818C2.58789 115.723 3.80859 117.041 5.61523 117.041Z" fill="#000000" fill-opacity="0.85"/>
 </g>
</svg>
