<?xml version="1.0" encoding="UTF-8"?>
<!--Generator: Apple Native CoreSVG 232.5-->
<!DOCTYPE svg
PUBLIC "-//W3C//DTD SVG 1.1//EN"
       "http://www.w3.org/Graphics/SVG/1.1/DTD/svg11.dtd">
<svg version="1.1" xmlns="http://www.w3.org/2000/svg" xmlns:xlink="http://www.w3.org/1999/xlink" width="74.5665" height="120.264">
 <g>
  <rect height="120.264" opacity="0" width="74.5665" x="0" y="0"/>
  <path d="M37.3077 66.3086C48.001 66.3086 58.5479 65.6738 67.1905 64.4043C73.9287 63.3789 75.9307 58.4473 73.6846 51.4648L60.794 10.6445C58.4991 3.32031 52.6397 0 44.6807 0L29.8858 0C21.9268 0 16.0674 3.32031 13.7725 10.6445L0.88187 51.4648C-1.36422 58.4473 0.637729 63.3789 7.37601 64.4043C16.0186 65.6738 26.5655 66.3086 37.3077 66.3086ZM37.3077 59.1309C28.3233 59.1309 19.6319 58.6426 10.1104 57.5684C7.47367 57.2754 7.1807 55.7129 8.01078 52.9785L20.3155 13.4766C21.6338 9.17969 25.1494 7.12891 29.8858 7.12891L44.6807 7.12891C49.417 7.12891 52.9327 9.17969 54.2998 13.4766L66.5557 52.9785C67.3858 55.7129 67.0928 57.2754 64.4561 57.5684C54.9346 58.6426 46.2432 59.1309 37.3077 59.1309ZM33.3526 63.623L33.3526 116.602L41.2139 116.602L41.2139 63.623ZM15.335 119.971L59.2315 119.971C61.0381 119.971 62.2588 118.701 62.2588 116.797C62.2588 113.086 59.2315 110.498 54.5928 110.498L19.9737 110.498C15.335 110.498 12.3565 113.086 12.3565 116.797C12.3565 118.701 13.5284 119.971 15.335 119.971Z" fill="#000000" fill-opacity="0.85"/>
 </g>
</svg>
