<?xml version="1.0" encoding="UTF-8"?>
<!--Generator: Apple Native CoreSVG 232.5-->
<!DOCTYPE svg
PUBLIC "-//W3C//DTD SVG 1.1//EN"
       "http://www.w3.org/Graphics/SVG/1.1/DTD/svg11.dtd">
<svg version="1.1" xmlns="http://www.w3.org/2000/svg" xmlns:xlink="http://www.w3.org/1999/xlink" width="90.272" height="115.771">
 <g>
  <rect height="115.771" opacity="0" width="90.272" x="0" y="0"/>
  <path d="M50.3118 60.1074L88.7883 21.6309C91.718 18.75 90.0579 15.1855 86.0051 13.916C76.7278 10.9375 66.718 10.1074 53.6321 10.8887L51.0442 8.1543C46.8938 3.71094 40.9856 3.71094 36.5911 8.00781C32.343 12.4023 32.2454 18.457 36.7376 22.4609L39.4719 24.9512C38.6419 37.8906 39.4231 47.9492 42.4016 57.373C43.72 61.4746 47.2356 63.1836 50.3118 60.1074ZM38.8372 15.4297L44.0129 10.2051L35.2727 1.5625C33.8079 0.0976562 31.5618 0.0976562 30.0969 1.5625C28.6809 2.97852 28.6321 5.22461 30.0969 6.68945ZM72.3821 57.0312C79.6087 57.0312 85.5657 51.0254 85.5657 43.8965C85.5657 40.7715 84.4426 37.7441 82.2454 35.3516L63.8372 53.7598C66.2297 55.9082 69.2571 57.0312 72.3821 57.0312ZM9.24732 66.5527L46.3079 32.4707L40.9368 26.8066L3.92506 60.8398ZM7.63599 70.3125C11.884 70.3125 15.2532 66.9922 15.2532 62.6953C15.2532 58.4473 11.884 55.0781 7.63599 55.0781C3.33912 55.0781 0.018807 58.4473 0.018807 62.6953C0.018807 66.9922 3.33912 70.3125 7.63599 70.3125ZM27.4602 87.6465L33.0266 82.1289L8.75904 57.959L3.24146 63.4766ZM28.9251 92.7246C33.1731 92.7246 36.5422 89.4043 36.5422 85.1074C36.5422 80.8594 33.1243 77.4902 28.9251 77.4902C24.6282 77.4902 21.3079 80.8594 21.3079 85.1074C21.3079 89.4043 24.6282 92.7246 28.9251 92.7246ZM24.97 108.887L32.8313 108.887L32.8313 85.3027L24.97 85.3027ZM5.63404 115.771L57.5872 115.771C59.3938 115.771 60.6145 114.453 60.6145 112.549C60.6145 108.887 57.4407 106.299 52.509 106.299L10.7122 106.299C5.78053 106.299 2.6067 108.887 2.6067 112.549C2.6067 114.453 3.8274 115.771 5.63404 115.771Z" fill="#000000" fill-opacity="0.85"/>
 </g>
</svg>
