<?xml version="1.0" encoding="UTF-8"?>
<!--Generator: Apple Native CoreSVG 232.5-->
<!DOCTYPE svg
PUBLIC "-//W3C//DTD SVG 1.1//EN"
       "http://www.w3.org/Graphics/SVG/1.1/DTD/svg11.dtd">
<svg version="1.1" xmlns="http://www.w3.org/2000/svg" xmlns:xlink="http://www.w3.org/1999/xlink" width="75.8789" height="104.736">
 <g>
  <rect height="104.736" opacity="0" width="75.8789" x="0" y="0"/>
  <path d="M0 89.4043C0 99.6094 5.0293 104.688 15.1367 104.688L60.791 104.688C70.8496 104.688 75.8789 99.6094 75.8789 89.4043L75.8789 15.332C75.8789 5.17578 70.8496 0 60.791 0L15.1367 0C5.0293 0 0 5.17578 0 15.332ZM7.86133 89.2578L7.86133 15.4785C7.86133 10.5957 10.4492 7.86133 15.5273 7.86133L60.3516 7.86133C65.4297 7.86133 68.0176 10.5957 68.0176 15.4785L68.0176 89.2578C68.0176 94.1406 65.4297 96.8262 60.3516 96.8262L15.5273 96.8262C10.4492 96.8262 7.86133 94.1406 7.86133 89.2578ZM26.3184 19.7754L49.6094 19.7754C51.3672 19.7754 52.7832 18.3594 52.7832 16.6016C52.7832 14.8438 51.3672 13.4277 49.6094 13.4277L26.3184 13.4277C24.6094 13.4277 23.1445 14.8438 23.1445 16.6016C23.1445 18.3594 24.6094 19.7754 26.3184 19.7754Z" fill="#000000" fill-opacity="0.85"/>
 </g>
</svg>
