<?xml version="1.0" encoding="UTF-8"?>
<!--Generator: Apple Native CoreSVG 232.5-->
<!DOCTYPE svg
PUBLIC "-//W3C//DTD SVG 1.1//EN"
       "http://www.w3.org/Graphics/SVG/1.1/DTD/svg11.dtd">
<svg version="1.1" xmlns="http://www.w3.org/2000/svg" xmlns:xlink="http://www.w3.org/1999/xlink" width="140.82" height="111.56">
 <g>
  <rect height="111.56" opacity="0" width="140.82" x="0" y="0"/>
  <path d="M25.7267 24.7486C24.6222 25.498 24.0723 26.8021 24.0723 28.656L24.0723 84.4178L85.3644 84.4178L96.4914 95.5506L5.51758 95.5506C2.49023 95.5506 0 93.0603 0 89.9842C0 86.908 2.49023 84.4178 5.51758 84.4178L16.2109 84.4178L16.2109 26.4588C16.2109 22.8207 17.345 20.1231 19.3868 18.4053ZM124.609 26.4588L124.609 84.4178L135.303 84.4178C138.33 84.4178 140.82 86.908 140.82 89.9842C140.82 93.0603 138.33 95.5506 135.303 95.5506L123.275 95.5506C123.237 95.4986 123.191 95.4511 123.145 95.4041L112.164 84.4178L116.748 84.4178L116.748 28.656C116.748 25.531 115.186 23.9685 112.061 23.9685L51.7467 23.9685L43.8895 16.1072L114.16 16.1072C120.947 16.1072 124.609 19.6228 124.609 26.4588Z" fill="#000000" fill-opacity="0.85"/>
  <path d="M113.721 104.73C115.186 106.244 117.627 106.244 119.043 104.73C120.508 103.265 120.557 100.922 119.092 99.408L26.6602 6.92752C25.1953 5.46268 22.7539 5.41385 21.2891 6.92752C19.8242 8.34354 19.8242 10.7849 21.2891 12.2498Z" fill="#000000" fill-opacity="0.85"/>
 </g>
</svg>
