<?xml version="1.0" encoding="UTF-8"?>
<!--Generator: Apple Native CoreSVG 232.5-->
<!DOCTYPE svg
PUBLIC "-//W3C//DTD SVG 1.1//EN"
       "http://www.w3.org/Graphics/SVG/1.1/DTD/svg11.dtd">
<svg version="1.1" xmlns="http://www.w3.org/2000/svg" xmlns:xlink="http://www.w3.org/1999/xlink" width="109.095" height="99.6582">
 <g>
  <rect height="99.6582" opacity="0" width="109.095" x="0" y="0"/>
  <path d="M59.2839 99.6094C86.4812 99.6094 109.089 77.002 109.089 49.8047C109.089 22.5586 86.4812 0 59.2839 0C32.0378 0 9.47924 22.5098 9.47924 49.7559L17.78 49.7559C17.78 26.709 36.2371 8.34961 59.2839 8.34961C82.3308 8.34961 100.788 26.7578 100.788 49.8047C100.788 72.8516 82.3308 91.4062 59.2839 91.3086C45.3679 91.2598 33.1609 84.5215 25.6902 74.1211C24.1765 72.1191 21.8816 71.4844 19.8308 72.7051C17.8777 73.9258 17.3406 76.6113 19.0007 78.7598C28.2781 91.2109 42.8289 99.6094 59.2839 99.6094ZM3.47339 40.3809C-0.04224 40.3809-0.921146 42.7734 0.983151 45.5078L11.9207 61.0352C13.532 63.2812 15.8757 63.2324 17.4382 61.0352L28.3757 45.459C30.2312 42.7734 29.3523 40.3809 25.8855 40.3809Z" fill="#000000" fill-opacity="0.85"/>
  <path d="M42.8777 73.0469L73.1023 73.0469C74.7624 73.0469 75.8855 71.875 75.8855 70.2637C75.8855 68.7012 74.7136 67.5781 73.1023 67.5781L65.5828 67.5781C54.8406 67.5781 46.491 59.4727 46.491 48.8281C46.491 42.1387 48.6882 37.4512 52.6433 35.0098L52.6433 47.4121C52.6433 48.7793 53.6687 49.7559 55.0359 49.7559C56.4031 49.7559 57.3796 48.7793 57.3796 47.4121L57.3796 33.3496C58.2585 33.252 59.1374 33.1543 59.8699 33.1543C60.6511 33.1543 61.3347 33.252 61.9207 33.3496L61.9207 47.4121C61.9207 48.7793 62.8972 49.7559 64.2644 49.7559C65.6804 49.7559 66.657 48.7793 66.657 47.4121L66.657 35.1562C70.1726 37.5488 72.4187 41.6992 72.5164 47.1191C72.5652 49.0234 73.7371 50.3418 75.5437 50.3418C77.2527 50.3418 78.5222 49.0234 78.5222 47.168C78.4734 38.5742 73.7371 31.3477 66.657 28.6133L66.657 24.1211C66.657 22.7051 65.6316 21.7285 64.2644 21.7285C62.8972 21.7285 61.9207 22.7051 61.9207 24.1211L61.9207 27.4414C61.2859 27.3438 60.6023 27.3438 59.9187 27.3438C59.1374 27.3438 58.2585 27.3926 57.3796 27.4902L57.3796 24.1211C57.3796 22.7051 56.4031 21.7285 55.0359 21.7285C53.6687 21.7285 52.6433 22.7051 52.6433 24.1211L52.6433 28.4668C44.9285 31.25 40.241 38.4277 40.241 48.1445C40.241 56.4941 44.0984 63.7207 50.1531 67.5781L42.9265 67.5781C41.2664 67.5781 40.0945 68.7012 40.0945 70.2637C40.0945 71.9238 41.1687 73.0469 42.8777 73.0469Z" fill="#000000" fill-opacity="0.85"/>
 </g>
</svg>
