<?xml version="1.0" encoding="UTF-8"?>
<!--Generator: Apple Native CoreSVG 232.5-->
<!DOCTYPE svg
PUBLIC "-//W3C//DTD SVG 1.1//EN"
       "http://www.w3.org/Graphics/SVG/1.1/DTD/svg11.dtd">
<svg version="1.1" xmlns="http://www.w3.org/2000/svg" xmlns:xlink="http://www.w3.org/1999/xlink" width="99.6094" height="99.6582">
 <g>
  <rect height="99.6582" opacity="0" width="99.6094" x="0" y="0"/>
  <path d="M49.8047 99.6094C77.0508 99.6094 99.6094 77.002 99.6094 49.8047C99.6094 22.5586 77.002 0 49.7559 0C22.5586 0 0 22.5586 0 49.8047C0 77.002 22.6074 99.6094 49.8047 99.6094ZM49.8047 91.3086C26.7578 91.3086 8.34961 72.8516 8.34961 49.8047C8.34961 26.7578 26.709 8.30078 49.7559 8.30078C72.8027 8.30078 91.3086 26.7578 91.3086 49.8047C91.3086 72.8516 72.8516 91.3086 49.8047 91.3086Z" fill="#000000" fill-opacity="0.85"/>
  <path d="M33.3496 73.0469L63.5742 73.0469C65.2832 73.0469 66.4062 71.875 66.4062 70.2637C66.4062 68.7012 65.2344 67.5781 63.5742 67.5781L56.1035 67.5781C45.3125 67.5781 36.9629 59.4727 36.9629 48.8281C36.9629 42.1387 39.1602 37.4512 43.1641 35.0098L43.1641 47.4121C43.1641 48.7793 44.1406 49.7559 45.5078 49.7559C46.875 49.7559 47.9004 48.7793 47.9004 47.4121L47.9004 33.3496C48.7305 33.252 49.6094 33.1543 50.3418 33.1543C51.123 33.1543 51.8066 33.252 52.3926 33.3496L52.3926 47.4121C52.3926 48.7793 53.418 49.7559 54.7852 49.7559C56.1523 49.7559 57.1289 48.7793 57.1289 47.4121L57.1289 35.1562C60.6445 37.5488 62.8906 41.6992 62.9883 47.1191C63.0371 49.0234 64.209 50.3418 66.0156 50.3418C67.7246 50.3418 68.9941 49.0234 68.9941 47.168C68.9453 38.5742 64.2578 31.3477 57.1289 28.6133L57.1289 24.1211C57.1289 22.7051 56.1523 21.7285 54.7852 21.7285C53.418 21.7285 52.3926 22.7051 52.3926 24.1211L52.3926 27.4414C51.7578 27.3438 51.0742 27.3438 50.3906 27.3438C49.6094 27.3438 48.7305 27.3926 47.9004 27.4902L47.9004 24.1211C47.9004 22.7051 46.875 21.7285 45.5078 21.7285C44.1406 21.7285 43.1641 22.7051 43.1641 24.1211L43.1641 28.4668C35.4004 31.25 30.7129 38.4277 30.7129 48.1445C30.7129 56.4941 34.6191 63.7207 40.625 67.5781L33.3984 67.5781C31.7871 67.5781 30.5664 68.7012 30.5664 70.2637C30.5664 71.9238 31.6895 73.0469 33.3496 73.0469Z" fill="#000000" fill-opacity="0.85"/>
 </g>
</svg>
