<?xml version="1.0" encoding="UTF-8"?>
<!--Generator: Apple Native CoreSVG 232.5-->
<!DOCTYPE svg
PUBLIC "-//W3C//DTD SVG 1.1//EN"
       "http://www.w3.org/Graphics/SVG/1.1/DTD/svg11.dtd">
<svg version="1.1" xmlns="http://www.w3.org/2000/svg" xmlns:xlink="http://www.w3.org/1999/xlink" width="89.8926" height="89.9902">
 <g>
  <rect height="89.9902" opacity="0" width="89.8926" x="0" y="0"/>
  <path d="M15.332 89.9902L74.5605 89.9902C84.8145 89.9902 89.8926 84.9121 89.8926 74.8535L89.8926 15.2344C89.8926 5.17578 84.8145 0.0976562 74.5605 0.0976562L15.332 0.0976562C5.12695 0.0976562 0 5.12695 0 15.2344L0 74.8535C0 84.9609 5.12695 89.9902 15.332 89.9902ZM15.4297 82.1289C10.5469 82.1289 7.86133 79.541 7.86133 74.4629L7.86133 15.625C7.86133 10.5469 10.5469 7.95898 15.4297 7.95898L74.4629 7.95898C79.2969 7.95898 82.0312 10.5469 82.0312 15.625L82.0312 74.4629C82.0312 79.541 79.2969 82.1289 74.4629 82.1289Z" fill="#000000" fill-opacity="0.85"/>
  <path d="M28.5645 68.2129L58.7891 68.2129C60.498 68.2129 61.6211 67.041 61.6211 65.4297C61.6211 63.8672 60.4492 62.7441 58.7891 62.7441L51.3184 62.7441C40.5273 62.7441 32.1777 54.6387 32.1777 43.9941C32.1777 37.3047 34.4238 32.6172 38.3789 30.1758L38.3789 42.5781C38.3789 43.9453 39.3555 44.9219 40.7227 44.9219C42.1387 44.9219 43.1152 43.9453 43.1152 42.5781L43.1152 28.5156C43.9453 28.418 44.8242 28.3203 45.6055 28.3203C46.3379 28.3203 47.0215 28.418 47.6074 28.5156L47.6074 42.5781C47.6074 43.9453 48.6328 44.9219 50 44.9219C51.3672 44.9219 52.3438 43.9453 52.3438 42.5781L52.3438 30.3223C55.8594 32.7148 58.1055 36.8652 58.2031 42.2852C58.252 44.1895 59.4727 45.5078 61.2793 45.5078C62.9883 45.5078 64.209 44.1895 64.209 42.334C64.1602 33.7402 59.4727 26.5137 52.3438 23.7793L52.3438 19.2871C52.3438 17.8711 51.3672 16.8945 50 16.8945C48.6328 16.8945 47.6074 17.8711 47.6074 19.2871L47.6074 22.6074C46.9727 22.5098 46.2891 22.5098 45.6543 22.5098C44.8242 22.5098 43.9453 22.5586 43.1152 22.6562L43.1152 19.2871C43.1152 17.8711 42.0898 16.8945 40.7227 16.8945C39.3555 16.8945 38.3789 17.8711 38.3789 19.2871L38.3789 23.6328C30.6641 26.416 25.9277 33.5938 25.9277 43.3105C25.9277 51.6602 29.834 58.8867 35.8398 62.7441L28.6133 62.7441C27.002 62.7441 25.8301 63.8672 25.8301 65.4297C25.8301 67.0898 26.9043 68.2129 28.5645 68.2129Z" fill="#000000" fill-opacity="0.85"/>
 </g>
</svg>
