<?xml version="1.0" encoding="UTF-8"?>
<!--Generator: Apple Native CoreSVG 232.5-->
<!DOCTYPE svg
PUBLIC "-//W3C//DTD SVG 1.1//EN"
       "http://www.w3.org/Graphics/SVG/1.1/DTD/svg11.dtd">
<svg version="1.1" xmlns="http://www.w3.org/2000/svg" xmlns:xlink="http://www.w3.org/1999/xlink" width="116.309" height="116.357">
 <g>
  <rect height="116.357" opacity="0" width="116.309" x="0" y="0"/>
  <path d="M3.4668 54.6875C1.51367 54.6875 0 56.25 0 58.1543C0 60.0586 1.51367 61.5723 3.4668 61.5723L112.891 61.5723C114.844 61.5723 116.309 60.0586 116.309 58.1543C116.309 56.25 114.844 54.6875 112.891 54.6875ZM61.5723 3.41797C61.5723 1.46484 60.0586 0 58.1543 0C56.25 0 54.6875 1.46484 54.6875 3.41797L54.6875 112.842C54.6875 114.746 56.25 116.309 58.1543 116.309C60.0586 116.309 61.5723 114.746 61.5723 112.842ZM80.3223 13.7695C81.0059 11.9629 80.127 9.96094 78.4668 9.27734C76.6113 8.59375 74.6094 9.42383 73.877 11.084L35.9863 102.539C35.3027 104.346 36.1816 106.348 37.8418 107.031C39.6973 107.715 41.6504 106.885 42.4316 105.176ZM106.201 15.0391C107.422 13.7207 107.422 11.5723 106.104 10.2051C104.736 8.88672 102.588 8.93555 101.27 10.2051L10.1074 101.221C8.83789 102.588 8.88672 104.736 10.2051 106.104C11.5723 107.422 13.7207 107.373 15.0391 106.104ZM105.225 42.3828C106.885 41.6504 107.715 39.6973 106.982 37.9395C106.348 36.1816 104.346 35.3516 102.539 36.0352L11.084 73.877C9.42383 74.6094 8.59375 76.5625 9.32617 78.3691C9.96094 80.127 11.9629 80.9082 13.7695 80.2246ZM102.539 80.3223C104.346 81.0059 106.299 80.127 107.031 78.3691C107.715 76.5625 106.934 74.6582 105.127 73.9258L13.7695 35.9863C11.9629 35.3027 10.0098 36.1816 9.27734 37.9395C8.59375 39.6973 9.375 41.6016 11.1816 42.334ZM101.27 106.152C102.588 107.422 104.736 107.422 106.104 106.104C107.422 104.736 107.422 102.686 106.104 101.318L15.0391 10.1074C13.7207 8.83789 11.5723 8.88672 10.2051 10.2051C8.88672 11.5723 8.88672 13.623 10.2051 14.9902ZM73.877 105.225C74.6094 106.934 76.6602 107.715 78.3691 106.982C80.127 106.348 80.9082 104.297 80.2246 102.588L42.4316 11.084C41.6504 9.375 39.6484 8.59375 37.9395 9.32617C36.1816 9.96094 35.3516 11.9141 36.084 13.7207Z" fill="#000000" fill-opacity="0.85"/>
 </g>
</svg>
