<?xml version="1.0" encoding="UTF-8"?>
<!--Generator: Apple Native CoreSVG 232.5-->
<!DOCTYPE svg
PUBLIC "-//W3C//DTD SVG 1.1//EN"
       "http://www.w3.org/Graphics/SVG/1.1/DTD/svg11.dtd">
<svg version="1.1" xmlns="http://www.w3.org/2000/svg" xmlns:xlink="http://www.w3.org/1999/xlink" width="113.037" height="94.6777">
 <g>
  <rect height="94.6777" opacity="0" width="113.037" x="0" y="0"/>
  <path d="M0 48.6328L0 41.2598L20.7031 41.2598L20.7031 39.9902C20.7031 36.5723 22.6562 34.6191 26.0742 34.6191L38.1836 34.6191C41.6504 34.6191 43.6035 36.5723 43.6035 39.9902L43.6035 41.2598L69.3848 41.2598L69.3848 39.9902C69.3848 36.5723 71.3379 34.6191 74.8047 34.6191L86.9141 34.6191C90.3809 34.6191 92.334 36.5723 92.334 39.9902L92.334 41.2598L113.037 41.2598L113.037 48.6328L92.334 48.6328L92.334 50C92.334 53.418 90.3809 55.3223 86.9141 55.3223L74.8047 55.3223C71.3379 55.3223 69.3848 53.418 69.3848 50L69.3848 48.6328L43.6035 48.6328L43.6035 50C43.6035 53.418 41.6504 55.3223 38.1836 55.3223L26.0742 55.3223C22.6562 55.3223 20.7031 53.418 20.7031 50L20.7031 48.6328ZM15.0879 94.6289L97.9492 94.6289C108.057 94.6289 113.037 89.7461 113.037 79.7363L113.037 32.2266C113.037 22.2168 108.057 17.334 97.9492 17.334L15.0879 17.334C5.0293 17.334 0 22.2168 0 32.2266L0 79.7363C0 89.7461 5.0293 94.6289 15.0879 94.6289ZM31.7383 21.582L39.3066 21.582L39.3066 12.9395C39.3066 9.22852 41.5039 7.12891 45.3125 7.12891L67.7246 7.12891C71.5332 7.12891 73.6816 9.22852 73.6816 12.9395L73.6816 21.4844L81.25 21.4844L81.25 13.4766C81.25 4.29688 76.416 0 67.5781 0L45.4102 0C37.0605 0 31.7383 4.29688 31.7383 13.4766Z" fill="#000000" fill-opacity="0.85"/>
 </g>
</svg>
