<?xml version="1.0" encoding="UTF-8"?>
<!--Generator: Apple Native CoreSVG 232.5-->
<!DOCTYPE svg
PUBLIC "-//W3C//DTD SVG 1.1//EN"
       "http://www.w3.org/Graphics/SVG/1.1/DTD/svg11.dtd">
<svg version="1.1" xmlns="http://www.w3.org/2000/svg" xmlns:xlink="http://www.w3.org/1999/xlink" width="112.646" height="85.2051">
 <g>
  <rect height="85.2051" opacity="0" width="112.646" x="0" y="0"/>
  <path d="M40.9668 85.1562L71.6797 85.1562C100 85.1562 112.646 72.1191 112.646 45.459L112.646 14.7949C112.646 4.98047 107.568 0 97.6562 0L14.9902 0C5.07812 0 0 4.98047 0 14.7949L0 45.459C0 72.1191 12.6465 85.1562 40.9668 85.1562ZM40.9668 77.2949C17.9199 77.2949 7.86133 67.2852 7.86133 45.9473L7.86133 15.2344C7.86133 10.3516 10.4004 7.86133 15.1855 7.86133L97.4609 7.86133C102.148 7.86133 104.785 10.3516 104.785 15.2344L104.785 45.9473C104.785 67.2852 94.7266 77.2949 71.6309 77.2949Z" fill="#000000" fill-opacity="0.85"/>
  <path d="M35.9863 62.4023L50.0488 62.4023C51.6602 62.4023 53.0273 61.0352 53.0273 59.4238C53.0273 57.8125 51.6602 56.4453 50.0488 56.4453L39.5996 56.4453L39.5996 25.8301C39.5996 23.877 37.9883 22.2656 36.0352 22.2656C34.1309 22.2656 32.5195 23.877 32.5195 25.8301L32.5195 58.6914C32.5195 60.9863 33.7891 62.4023 35.9863 62.4023ZM61.5723 62.4023L71.9238 62.4023C78.8574 62.4023 82.8125 57.8125 82.8125 51.2695C82.8125 46.4844 79.9316 42.1387 75.293 41.6504L75.293 41.4062C79.0527 40.7715 81.5918 36.6211 81.5918 32.7637C81.5918 26.4648 77.3926 22.9004 71.6309 22.9004L61.5723 22.9004C59.2773 22.9004 58.0566 24.5117 58.0566 26.6113L58.0566 58.6914C58.0566 60.9375 59.3262 62.4023 61.5723 62.4023ZM65.0391 39.6484L65.0391 28.3203L69.6289 28.3203C73.291 28.3203 74.7559 30.6641 74.7559 33.8379C74.7559 37.4512 72.6562 39.6484 69.043 39.6484ZM65.0391 56.9824L65.0391 44.4336L69.5801 44.4336C73.1934 44.4336 75.6348 46.3867 75.6348 50.6836C75.6348 54.6387 73.7305 56.9824 69.7754 56.9824Z" fill="#000000" fill-opacity="0.85"/>
 </g>
</svg>
