<?xml version="1.0" encoding="UTF-8"?>
<!--Generator: Apple Native CoreSVG 232.5-->
<!DOCTYPE svg
PUBLIC "-//W3C//DTD SVG 1.1//EN"
       "http://www.w3.org/Graphics/SVG/1.1/DTD/svg11.dtd">
<svg version="1.1" xmlns="http://www.w3.org/2000/svg" xmlns:xlink="http://www.w3.org/1999/xlink" width="99.6094" height="99.6582">
 <g>
  <rect height="99.6582" opacity="0" width="99.6094" x="0" y="0"/>
  <path d="M49.8047 99.6094C77.0508 99.6094 99.6094 77.002 99.6094 49.8047C99.6094 22.5586 77.002 0 49.7559 0C22.5586 0 0 22.5586 0 49.8047C0 77.002 22.6074 99.6094 49.8047 99.6094ZM49.8047 91.3086C26.7578 91.3086 8.34961 72.8516 8.34961 49.8047C8.34961 26.7578 26.709 8.30078 49.7559 8.30078C72.8027 8.30078 91.3086 26.7578 91.3086 49.8047C91.3086 72.8516 72.8516 91.3086 49.8047 91.3086Z" fill="#000000" fill-opacity="0.85"/>
  <path d="M29.3945 69.5801L43.457 69.5801C45.0684 69.5801 46.4355 68.2617 46.4355 66.6016C46.4355 64.9902 45.0684 63.6719 43.457 63.6719L33.0078 63.6719L33.0078 33.0078C33.0078 31.1035 31.3965 29.4922 29.4922 29.4922C27.5391 29.4922 25.9277 31.1035 25.9277 33.0078L25.9277 65.918C25.9277 68.2129 27.1973 69.5801 29.3945 69.5801ZM54.9805 69.6289L65.332 69.6289C72.2656 69.6289 76.2207 65.0391 76.2207 58.4473C76.2207 53.7109 73.3398 49.3164 68.7012 48.877L68.7012 48.6328C72.4609 47.9492 75 43.8477 75 39.9414C75 33.6914 70.8008 30.127 65.0391 30.127L54.9805 30.127C52.6855 30.127 51.4648 31.6895 51.4648 33.8379L51.4648 65.918C51.4648 68.1641 52.7344 69.6289 54.9805 69.6289ZM58.4473 46.875L58.4473 35.5469L63.0371 35.5469C66.6992 35.5469 68.1641 37.8906 68.1641 41.0645C68.1641 44.6777 66.0645 46.875 62.4512 46.875ZM58.4473 64.209L58.4473 51.6602L62.9883 51.6602C66.6016 51.6602 69.0918 53.5645 69.0918 57.9102C69.0918 61.8164 67.1387 64.209 63.1836 64.209Z" fill="#000000" fill-opacity="0.85"/>
 </g>
</svg>
