<?xml version="1.0" encoding="UTF-8"?>
<!--Generator: Apple Native CoreSVG 232.5-->
<!DOCTYPE svg
PUBLIC "-//W3C//DTD SVG 1.1//EN"
       "http://www.w3.org/Graphics/SVG/1.1/DTD/svg11.dtd">
<svg version="1.1" xmlns="http://www.w3.org/2000/svg" xmlns:xlink="http://www.w3.org/1999/xlink" width="99.6094" height="99.6582">
 <g>
  <rect height="99.6582" opacity="0" width="99.6094" x="0" y="0"/>
  <path d="M49.8047 99.6094C77.0508 99.6094 99.6094 77.002 99.6094 49.8047C99.6094 22.5586 77.002 0 49.7559 0C22.5586 0 0 22.5586 0 49.8047C0 77.002 22.6074 99.6094 49.8047 99.6094ZM49.8047 91.3086C26.7578 91.3086 8.34961 72.8516 8.34961 49.8047C8.34961 26.7578 26.709 8.30078 49.7559 8.30078C72.8027 8.30078 91.3086 26.7578 91.3086 49.8047C91.3086 72.8516 72.8516 91.3086 49.8047 91.3086Z" fill="#000000" fill-opacity="0.85"/>
  <path d="M25.9766 31.25C25.5371 33.4961 25.2441 36.4258 25.2441 38.3789C25.2441 54.8828 35.0586 65.8691 50.0488 65.8691C59.7168 65.8691 64.2578 60.2051 65.332 58.252L62.5488 58.252C65.4297 61.2305 66.6992 64.4043 68.1641 69.043C68.457 70.0684 69.2383 70.459 69.9707 70.459C71.582 70.459 72.9492 69.043 72.9492 67.0898C72.9492 64.0625 68.6035 58.7402 66.2598 56.6406C56.543 47.7539 41.8945 52.9785 38.0859 43.1152C37.793 42.3828 38.5742 41.748 39.4043 42.4316C47.2656 49.3164 56.6895 43.75 66.2598 52.3926C67.041 53.125 67.8711 52.7344 68.0664 52.002C68.1641 51.3184 68.2129 50.293 68.2129 49.3164C68.2129 38.5742 60.6934 33.3984 50.1465 33.3984C46.582 33.3984 42.5293 34.2773 39.2578 34.2773C35.6934 34.2773 31.7383 33.8379 28.5156 30.5664C27.5879 29.6387 26.2695 29.7363 25.9766 31.25Z" fill="#000000" fill-opacity="0.85"/>
 </g>
</svg>
