<?xml version="1.0" encoding="UTF-8"?>
<!--Generator: Apple Native CoreSVG 232.5-->
<!DOCTYPE svg
PUBLIC "-//W3C//DTD SVG 1.1//EN"
       "http://www.w3.org/Graphics/SVG/1.1/DTD/svg11.dtd">
<svg version="1.1" xmlns="http://www.w3.org/2000/svg" xmlns:xlink="http://www.w3.org/1999/xlink" width="99.6094" height="118.562">
 <g>
  <rect height="118.562" opacity="0" width="99.6094" x="0" y="0"/>
  <path d="M0 59.2568C0 86.5029 22.6074 109.061 49.8047 109.061C77.0508 109.061 99.6094 86.5029 99.6094 59.2568C99.6094 42.8505 91.3086 28.1044 78.7598 18.9736C76.6113 17.3134 73.9258 17.8505 72.7051 19.8525C71.4844 21.9033 72.1191 24.1982 74.1211 25.7119C84.5215 33.1337 91.2598 45.3896 91.3086 59.2568C91.3574 82.3037 72.8516 100.761 49.8047 100.761C26.7578 100.761 8.34961 82.3037 8.34961 59.2568C8.34961 39.4814 21.9238 23.0751 40.3809 18.8759L40.3809 25.8583C40.3809 29.3251 42.7734 30.2529 45.459 28.3486L61.0352 17.4111C63.2324 15.8974 63.2812 13.5537 61.0352 11.9423L45.5078 1.00483C42.7734-0.948293 40.3809-0.0205587 40.3809 3.49507L40.3809 10.3798C17.5293 14.872 0 35.2333 0 59.2568Z" fill="#000000" fill-opacity="0.85"/>
  <path d="M26.0254 42.997C25.5859 45.2431 25.293 48.1728 25.293 50.1259C25.293 66.6298 35.1074 77.5673 50.0977 77.5673C59.7656 77.5673 64.3066 71.9033 65.3809 69.999L62.5977 69.999C65.4785 72.9287 66.748 76.1513 68.2129 80.79C68.5059 81.7666 69.2871 82.206 70.0195 82.206C71.6309 82.206 72.998 80.79 72.998 78.8369C72.998 75.7607 68.6523 70.4873 66.3086 68.3388C56.5918 59.5009 41.9434 64.6767 38.1348 54.8623C37.8418 54.081 38.623 53.4462 39.4531 54.1298C47.3145 61.0634 56.7383 55.4482 66.3086 64.1396C67.0898 64.8232 67.9199 64.4814 68.1152 63.7001C68.2129 63.0654 68.2617 62.04 68.2617 61.0634C68.2617 50.2724 60.7422 45.0966 50.1953 45.0966C46.6309 45.0966 42.5781 45.9755 39.3066 45.9755C35.7422 45.9755 31.7871 45.5849 28.5645 42.3134C27.6367 41.3369 26.3184 41.4345 26.0254 42.997Z" fill="#000000" fill-opacity="0.85"/>
 </g>
</svg>
