<?xml version="1.0" encoding="UTF-8"?>
<!--Generator: Apple Native CoreSVG 232.5-->
<!DOCTYPE svg
PUBLIC "-//W3C//DTD SVG 1.1//EN"
       "http://www.w3.org/Graphics/SVG/1.1/DTD/svg11.dtd">
<svg version="1.1" xmlns="http://www.w3.org/2000/svg" xmlns:xlink="http://www.w3.org/1999/xlink" width="103.467" height="92.627">
 <g>
  <rect height="92.627" opacity="0" width="103.467" x="0" y="0"/>
  <path d="M0 22.0215C0 58.4473 21.8262 82.373 55.4199 82.373C78.8574 82.373 95.459 67.2363 95.459 45.8496C95.459 25.293 78.7109 10.4492 55.6152 10.4492C47.6562 10.4492 39.5996 12.6953 30.6641 12.6953C23.1445 12.6953 16.6504 10.4004 11.2793 4.29688C8.44727 0.976562 2.83203 0.683594 1.46484 6.29883C0.292969 11.0352 0 19.3848 0 22.0215ZM7.37305 22.0215C7.37305 18.7988 7.42188 15.1855 7.86133 12.5488C7.95898 11.9141 8.30078 11.8652 8.74023 12.2559C14.209 17.2363 22.8027 20.0684 30.6641 20.0684C35.9375 20.0684 40.7227 19.3848 45.0195 18.7988C48.9258 18.2617 52.3438 17.8223 55.6152 17.8223C74.6582 17.8223 88.0859 29.4922 88.0859 45.8496C88.0859 63.0859 74.7559 75 55.4199 75C25.9766 75 7.37305 54.3945 7.37305 22.0215ZM28.5645 33.3984C31.6406 42.9199 40.8691 46.7285 52.3926 49.5605C68.9453 53.5156 76.5137 56.7383 83.1543 65.0391C88.5742 71.7285 89.8926 79.7852 92.9199 89.4531C93.6523 91.7969 95.2637 92.627 96.9727 92.627C100.586 92.627 103.467 89.2578 103.467 85.2051C103.467 78.4668 95.8008 66.7969 90.6738 59.8145C84.082 51.0742 72.8027 46.0449 54.8828 43.1641C45.6055 41.6016 37.4023 39.1602 31.7871 31.8359C30.2246 29.7363 27.832 31.2012 28.5645 33.3984Z" fill="#000000" fill-opacity="0.85"/>
 </g>
</svg>
