<?xml version="1.0" encoding="UTF-8"?>
<!--Generator: Apple Native CoreSVG 232.5-->
<!DOCTYPE svg
PUBLIC "-//W3C//DTD SVG 1.1//EN"
       "http://www.w3.org/Graphics/SVG/1.1/DTD/svg11.dtd">
<svg version="1.1" xmlns="http://www.w3.org/2000/svg" xmlns:xlink="http://www.w3.org/1999/xlink" width="105.42" height="92.627">
 <g>
  <rect height="92.627" opacity="0" width="105.42" x="0" y="0"/>
  <path d="M1.41602 5.9082C0.390625 10.8887 0 17.3828 0 21.7285C0 58.252 21.7285 82.373 54.9316 82.373C76.3184 82.373 86.377 69.7754 88.5742 65.7227L82.4707 65.5762C88.8184 72.2168 91.6504 79.3457 94.873 89.4531C95.6055 91.7969 97.2168 92.627 98.9258 92.627C102.539 92.627 105.42 89.502 105.42 85.2051C105.42 78.4668 95.752 66.748 90.7227 62.0117C69.3359 42.2852 36.7676 53.9551 28.3691 32.1777C27.7344 30.5176 29.4922 29.0527 31.1035 30.7129C47.9492 47.5586 69.6289 33.3496 90.7227 52.7832C92.3828 54.248 94.3359 53.4668 94.6289 51.709C94.873 50.293 95.0195 48.0469 95.0195 45.8984C95.0195 22.0703 78.418 10.5957 55.0781 10.5957C47.2656 10.5957 38.1348 12.5 30.957 12.5C23.0957 12.5 14.2578 11.8652 7.22656 4.3457C5.22461 2.29492 2.19727 2.58789 1.41602 5.9082Z" fill="#000000" fill-opacity="0.85"/>
 </g>
</svg>
