<?xml version="1.0" encoding="UTF-8"?>
<!--Generator: Apple Native CoreSVG 232.5-->
<!DOCTYPE svg
PUBLIC "-//W3C//DTD SVG 1.1//EN"
       "http://www.w3.org/Graphics/SVG/1.1/DTD/svg11.dtd">
<svg version="1.1" xmlns="http://www.w3.org/2000/svg" xmlns:xlink="http://www.w3.org/1999/xlink" width="99.6094" height="99.6582">
 <g>
  <rect height="99.6582" opacity="0" width="99.6094" x="0" y="0"/>
  <path d="M49.8047 99.6094C77.0508 99.6094 99.6094 77.002 99.6094 49.8047C99.6094 22.5586 77.002 0 49.7559 0C22.5586 0 0 22.5586 0 49.8047C0 77.002 22.6074 99.6094 49.8047 99.6094ZM49.8047 91.3086C26.7578 91.3086 8.34961 72.8516 8.34961 49.8047C8.34961 26.7578 26.709 8.30078 49.7559 8.30078C72.8027 8.30078 91.3086 26.7578 91.3086 49.8047C91.3086 72.8516 72.8516 91.3086 49.8047 91.3086Z" fill="#000000" fill-opacity="0.85"/>
  <path d="M40.6738 71.582L63.1836 71.582C65.0391 71.582 66.4062 70.3613 66.4062 68.4082C66.4062 66.4062 65.0391 65.1855 63.1836 65.1855L44.6289 65.1855L44.6289 30.9082C44.6289 28.2227 43.2617 26.5137 40.6738 26.5137C38.1836 26.5137 36.8164 28.3203 36.8164 30.9082L36.8164 67.2363C36.8164 69.8242 38.1836 71.582 40.6738 71.582Z" fill="#000000" fill-opacity="0.85"/>
 </g>
</svg>
