<?xml version="1.0" encoding="UTF-8"?>
<!--Generator: Apple Native CoreSVG 232.5-->
<!DOCTYPE svg
PUBLIC "-//W3C//DTD SVG 1.1//EN"
       "http://www.w3.org/Graphics/SVG/1.1/DTD/svg11.dtd">
<svg version="1.1" xmlns="http://www.w3.org/2000/svg" xmlns:xlink="http://www.w3.org/1999/xlink" width="99.6094" height="99.6582">
 <g>
  <rect height="99.6582" opacity="0" width="99.6094" x="0" y="0"/>
  <path d="M49.8047 99.6094C77.0508 99.6094 99.6094 77.002 99.6094 49.8047C99.6094 22.5586 77.002 0 49.7559 0C22.5586 0 0 22.5586 0 49.8047C0 77.002 22.6074 99.6094 49.8047 99.6094ZM49.8047 91.3086C26.7578 91.3086 8.34961 72.8516 8.34961 49.8047C8.34961 26.7578 26.709 8.30078 49.7559 8.30078C72.8027 8.30078 91.3086 26.7578 91.3086 49.8047C91.3086 72.8516 72.8516 91.3086 49.8047 91.3086Z" fill="#000000" fill-opacity="0.85"/>
  <path d="M62.3535 69.7754C64.6973 69.7754 66.4062 68.1152 66.4062 65.8691C66.4062 64.0137 65.625 62.9395 63.5742 61.9629L38.8184 49.8047L38.8184 49.5117L63.5742 37.0605C65.5762 36.084 66.4062 34.9121 66.4062 33.1055C66.4062 30.9082 64.7461 29.248 62.4512 29.248C61.377 29.248 60.791 29.4434 60.0098 29.834L30.9082 45.5078C28.9551 46.582 28.0273 47.9492 28.0273 49.8047C28.0273 51.8066 28.8574 53.0273 30.9082 54.1016L60.0098 69.2383C60.7422 69.5801 61.377 69.7754 62.3535 69.7754Z" fill="#000000" fill-opacity="0.85"/>
 </g>
</svg>
