<?xml version="1.0" encoding="UTF-8"?>
<!--Generator: Apple Native CoreSVG 232.5-->
<!DOCTYPE svg
PUBLIC "-//W3C//DTD SVG 1.1//EN"
       "http://www.w3.org/Graphics/SVG/1.1/DTD/svg11.dtd">
<svg version="1.1" xmlns="http://www.w3.org/2000/svg" xmlns:xlink="http://www.w3.org/1999/xlink" width="99.6094" height="99.6582">
 <g>
  <rect height="99.6582" opacity="0" width="99.6094" x="0" y="0"/>
  <path d="M99.6094 49.8047C99.6094 77.002 77.0508 99.6094 49.8047 99.6094C22.6074 99.6094 0 77.002 0 49.8047C0 22.5586 22.5586 0 49.7559 0C77.002 0 99.6094 22.5586 99.6094 49.8047ZM60.4492 29.1992L30.4199 45.3613C28.418 46.4844 27.4414 47.9004 27.4414 49.8047C27.4414 51.9043 28.3203 53.1738 30.4199 54.248L60.4492 69.873C61.2305 70.2148 61.8652 70.459 62.8906 70.459C65.332 70.459 67.0898 68.7012 67.0898 66.4062C67.0898 64.4531 66.2598 63.3301 64.1602 62.3535L38.623 49.8047L38.623 49.5117L64.1602 36.6699C66.2109 35.6934 67.0898 34.4727 67.0898 32.5684C67.0898 30.3223 65.3809 28.5645 62.9883 28.5645C61.8652 28.5645 61.2793 28.8086 60.4492 29.1992Z" fill="#000000" fill-opacity="0.85"/>
 </g>
</svg>
