<?xml version="1.0" encoding="UTF-8"?>
<!--Generator: Apple Native CoreSVG 232.5-->
<!DOCTYPE svg
PUBLIC "-//W3C//DTD SVG 1.1//EN"
       "http://www.w3.org/Graphics/SVG/1.1/DTD/svg11.dtd">
<svg version="1.1" xmlns="http://www.w3.org/2000/svg" xmlns:xlink="http://www.w3.org/1999/xlink" width="123.877" height="80.6152">
 <g>
  <rect height="80.6152" opacity="0" width="123.877" x="0" y="0"/>
  <path d="M123.877 15.1855L123.877 65.4785C123.877 75.5371 118.799 80.6152 108.545 80.6152L15.332 80.6152C5.12695 80.6152 0 75.5371 0 65.4785L0 15.1855C0 5.07812 5.12695 0.0488281 15.332 0.0488281L108.545 0.0488281C118.799 0.0488281 123.877 5.12695 123.877 15.1855ZM93.0664 31.7871C93.0664 33.3008 94.1406 34.4238 95.6543 34.4238C97.0703 34.4238 98.0469 33.6914 98.4863 32.2266C99.0723 29.9805 99.9512 28.6133 101.562 28.6133C103.369 28.6133 104.443 30.2734 104.443 32.8613C104.443 35.2051 103.418 37.5 100.879 37.5L100 37.5C98.584 37.5 97.5586 38.5254 97.5586 39.8926C97.5586 41.3086 98.584 42.3828 100 42.3828L100.879 42.3828C103.906 42.3828 105.029 43.9941 105.029 47.2168C105.029 50.0977 104.053 51.9531 101.758 51.9531C100 51.9531 98.7305 50.8301 98.0957 48.291C97.7539 47.3145 97.0215 46.1426 95.4102 46.1426C93.5059 46.1426 92.627 47.6074 92.627 48.877C92.627 52.0508 95.3613 57.1777 101.758 57.1777C107.324 57.1777 110.938 52.9297 110.938 47.3633C110.938 43.8477 109.521 40.6738 106.738 39.5996C108.789 38.1836 110.156 35.3027 110.156 32.373C110.156 27.8809 107.373 23.4863 101.562 23.4863C96.7285 23.4863 93.0664 27.1484 93.0664 31.7871ZM18.2617 27.2461L12.4023 52.4414C12.3047 52.8809 12.1582 53.5645 12.1582 54.1016C12.1582 55.7617 13.1348 57.0312 15.0879 57.0312C16.748 57.0312 17.8223 55.9082 18.0664 54.3457L19.1895 49.0234L25.9277 49.0234L27.002 54.3945C27.2949 56.0547 28.3203 57.0312 30.0293 57.0312C31.7383 57.0312 32.8613 55.7617 32.8613 54.1016C32.8613 53.6133 32.8125 52.8809 32.7148 52.4902L26.8066 27.1973C26.3672 25 24.9023 23.6328 22.4121 23.6328C20.2637 23.6328 18.7988 24.8535 18.2617 27.2461ZM38.8184 24.1211C36.9141 24.1211 35.9375 25.4883 35.9375 27.1484L35.9375 54.0039C35.9375 55.9082 37.0117 57.0312 38.8184 57.0312C40.625 57.0312 41.748 55.9082 41.748 54.0039L41.748 46.0449L45.1172 46.0449C50.7812 46.0449 54.248 41.3086 54.248 35.1074C54.248 29.5898 51.3672 24.1211 45.5078 24.1211ZM61.9141 25.4395L58.252 28.6133C57.4219 29.3457 56.8848 30.1758 56.8848 31.0059C56.8848 32.373 57.9102 33.3496 59.2285 33.3496C59.7656 33.3496 60.4004 33.1055 60.791 32.8125L63.1348 30.8594L63.1348 53.7109C63.1348 55.5664 64.3555 56.9336 66.1133 56.9336C67.9199 56.9336 69.1895 55.5664 69.1895 53.7109L69.1895 27.002C69.1895 25.0977 67.7734 23.6816 65.8203 23.6816C64.4531 23.6816 63.3789 24.2676 61.9141 25.4395ZM72.9004 32.1777C72.9004 33.6914 73.9258 34.9121 75.5371 34.9121C77.0508 34.9121 77.9297 34.082 78.3203 32.2754C78.7598 30.127 79.4922 28.5645 81.2012 28.5645C83.1543 28.5645 83.9355 30.4688 83.9355 32.9102C83.9355 35.791 82.4219 38.7695 80.0781 42.1387L74.1211 51.0254C73.1445 52.3926 72.9492 53.125 72.9492 53.9062C72.9492 55.5664 74.1699 56.5918 75.7324 56.5918L87.6953 56.5918C89.0137 56.5918 90.1855 55.3711 90.1855 53.9551C90.1855 52.4902 89.0137 51.3672 87.6953 51.3672L80.1758 51.3672L84.9609 44.3848C87.4512 40.8691 89.7461 37.0117 89.7461 32.8125C89.7461 27.2461 86.6211 23.3887 81.25 23.3887C76.1719 23.3887 72.9004 28.5645 72.9004 32.1777ZM25.1953 44.2871L19.873 44.2871L22.5098 31.4941ZM48.3398 35.1074C48.3398 38.4766 47.168 41.4062 43.9941 41.4062L41.748 41.4062L41.748 28.8086L43.9941 28.8086C47.2656 28.8086 48.3398 31.7871 48.3398 35.1074Z" fill="#000000" fill-opacity="0.85"/>
 </g>
</svg>
