<?xml version="1.0" encoding="UTF-8"?>
<!--Generator: Apple Native CoreSVG 232.5-->
<!DOCTYPE svg
PUBLIC "-//W3C//DTD SVG 1.1//EN"
       "http://www.w3.org/Graphics/SVG/1.1/DTD/svg11.dtd">
<svg version="1.1" xmlns="http://www.w3.org/2000/svg" xmlns:xlink="http://www.w3.org/1999/xlink" width="123.877" height="80.6152">
 <g>
  <rect height="80.6152" opacity="0" width="123.877" x="0" y="0"/>
  <path d="M15.332 80.6152L108.545 80.6152C118.799 80.6152 123.877 75.5371 123.877 65.4785L123.877 15.1855C123.877 5.12695 118.799 0.0488281 108.545 0.0488281L15.332 0.0488281C5.12695 0.0488281 0 5.07812 0 15.1855L0 65.4785C0 75.5371 5.12695 80.6152 15.332 80.6152ZM15.4297 72.7539C10.5469 72.7539 7.86133 70.1172 7.86133 65.0391L7.86133 15.5762C7.86133 10.498 10.5469 7.91016 15.4297 7.91016L108.447 7.91016C113.232 7.91016 116.016 10.498 116.016 15.5762L116.016 65.0391C116.016 70.1172 113.232 72.7539 108.447 72.7539Z" fill="#000000" fill-opacity="0.85"/>
  <path d="M16.4551 56.543C18.0664 56.543 19.0918 55.4688 19.3359 53.9551L20.459 48.7305L27.002 48.7305L28.0762 54.0039C28.3691 55.6152 29.3457 56.543 31.0059 56.543C32.6172 56.543 33.7402 55.3223 33.7402 53.7109C33.7402 53.2715 33.6914 52.5391 33.5938 52.1484L27.832 27.5391C27.3926 25.4395 25.9766 24.1211 23.584 24.1211C21.5332 24.1211 20.1172 25.293 19.5801 27.5879L13.8672 52.0996C13.7695 52.5391 13.623 53.2227 13.623 53.7109C13.623 55.3223 14.5996 56.543 16.4551 56.543ZM21.0938 44.1895L23.6816 31.6895L26.3184 44.1895ZM39.502 56.543C41.2598 56.543 42.334 55.4688 42.334 53.6133L42.334 45.8496L45.6055 45.8496C51.123 45.8496 54.4922 41.2598 54.4922 35.2539C54.4922 29.8828 51.6602 24.5605 45.9961 24.5605L39.502 24.5605C37.6465 24.5605 36.7188 25.8789 36.7188 27.4902L36.7188 53.6133C36.7188 55.4688 37.7441 56.543 39.502 56.543ZM42.334 41.3574L42.334 29.1016L44.5312 29.1016C47.7051 29.1016 48.7793 32.0312 48.7793 35.2539C48.7793 38.5254 47.6074 41.3574 44.5312 41.3574ZM65.9668 56.4453C67.7246 56.4453 68.9453 55.127 68.9453 53.3691L68.9453 27.3438C68.9453 25.5371 67.5781 24.1699 65.7227 24.1699C64.4043 24.1699 63.3301 24.707 61.9141 25.8301L58.3496 28.9551C57.5684 29.6387 57.0312 30.4688 57.0312 31.25C57.0312 32.5684 58.0566 33.5449 59.3262 33.5449C59.8145 33.5449 60.4492 33.3008 60.8398 33.0078L63.1348 31.1035L63.1348 53.3691C63.1348 55.127 64.3066 56.4453 65.9668 56.4453ZM75.293 56.1035L86.9141 56.1035C88.1836 56.1035 89.3066 54.9316 89.3066 53.5645C89.3066 52.1484 88.1836 51.0742 86.9141 51.0742L79.5898 51.0742L84.2285 44.2383C86.6699 40.8203 88.8672 37.1094 88.8672 33.0078C88.8672 27.6367 85.8398 23.877 80.6641 23.877C75.7324 23.877 72.5586 28.9062 72.5586 32.4219C72.5586 33.8867 73.5352 35.0586 75.0977 35.0586C76.5625 35.0586 77.3926 34.2285 77.7832 32.5195C78.2227 30.4199 78.9062 28.8574 80.6152 28.8574C82.5195 28.8574 83.3008 30.7129 83.3008 33.1055C83.3008 35.8887 81.7871 38.8184 79.541 42.0898L73.7305 50.7324C72.8027 52.0508 72.6074 52.7832 72.6074 53.5156C72.6074 55.127 73.7793 56.1035 75.293 56.1035ZM100.537 56.6895C105.957 56.6895 109.473 52.5391 109.473 47.168C109.473 43.75 108.057 40.6738 105.371 39.5996C107.373 38.2324 108.691 35.4492 108.691 32.6172C108.691 28.2227 106.006 23.9746 100.342 23.9746C95.6543 23.9746 92.1387 27.5391 92.1387 32.0312C92.1387 33.4961 93.1641 34.5703 94.6289 34.5703C95.9961 34.5703 96.9238 33.8867 97.3633 32.4707C97.9004 30.2734 98.7793 28.9062 100.342 28.9062C102.148 28.9062 103.174 30.5176 103.174 33.0566C103.174 35.3516 102.197 37.5977 99.707 37.5977L98.8281 37.5977C97.4609 37.5977 96.4844 38.5742 96.4844 39.8926C96.4844 41.2598 97.4609 42.2852 98.8281 42.2852L99.707 42.2852C102.637 42.2852 103.76 43.8965 103.76 47.0215C103.76 49.8047 102.783 51.6602 100.537 51.6602C98.8281 51.6602 97.6074 50.5371 96.9727 48.0469C96.6309 47.1191 95.9473 45.9961 94.3848 45.9961C92.5293 45.9961 91.6992 47.4121 91.6992 48.6328C91.6992 51.709 94.3359 56.6895 100.537 56.6895Z" fill="#000000" fill-opacity="0.85"/>
 </g>
</svg>
