<?xml version="1.0" encoding="UTF-8"?>
<!--Generator: Apple Native CoreSVG 232.5-->
<!DOCTYPE svg
PUBLIC "-//W3C//DTD SVG 1.1//EN"
       "http://www.w3.org/Graphics/SVG/1.1/DTD/svg11.dtd">
<svg version="1.1" xmlns="http://www.w3.org/2000/svg" xmlns:xlink="http://www.w3.org/1999/xlink" width="99.6094" height="99.6582">
 <g>
  <rect height="99.6582" opacity="0" width="99.6094" x="0" y="0"/>
  <path d="M49.8047 75.9277C64.209 75.9277 75.9277 64.209 75.9277 49.8047C75.9277 35.4004 64.209 23.6816 49.8047 23.6816C35.4004 23.6816 23.6816 35.4004 23.6816 49.8047C23.6816 64.209 35.4004 75.9277 49.8047 75.9277ZM49.8047 67.6758C39.9414 67.6758 31.9336 59.668 31.9336 49.8047C31.9336 39.9414 39.9414 31.9336 49.8047 31.9336C59.668 31.9336 67.6758 39.9414 67.6758 49.8047C67.6758 59.668 59.668 67.6758 49.8047 67.6758ZM10.8887 78.5645L21.3867 89.0625L40.7715 69.6777L30.2734 59.1797ZM10.4004 20.9961L30.2734 40.8691L40.7715 30.3711L20.8984 10.498ZM89.3066 21.0938L78.8086 10.5957L59.0332 30.3711L69.5312 40.8691ZM88.8672 78.4668L69.5801 59.1797L59.0332 69.7266L78.3203 89.0137ZM49.8047 99.6094C77.0508 99.6094 99.6094 77.002 99.6094 49.8047C99.6094 22.5586 77.002 0 49.7559 0C22.5586 0 0 22.5586 0 49.8047C0 77.002 22.6074 99.6094 49.8047 99.6094ZM49.8047 91.3086C26.7578 91.3086 8.34961 72.8516 8.34961 49.8047C8.34961 26.7578 26.709 8.30078 49.7559 8.30078C72.8027 8.30078 91.3086 26.7578 91.3086 49.8047C91.3086 72.8516 72.8516 91.3086 49.8047 91.3086Z" fill="#000000" fill-opacity="0.85"/>
 </g>
</svg>
