<?xml version="1.0" encoding="UTF-8"?>
<!--Generator: Apple Native CoreSVG 232.5-->
<!DOCTYPE svg
PUBLIC "-//W3C//DTD SVG 1.1//EN"
       "http://www.w3.org/Graphics/SVG/1.1/DTD/svg11.dtd">
<svg version="1.1" xmlns="http://www.w3.org/2000/svg" xmlns:xlink="http://www.w3.org/1999/xlink" width="99.6094" height="99.6582">
 <g>
  <rect height="99.6582" opacity="0" width="99.6094" x="0" y="0"/>
  <path d="M49.8535 67.9199C39.7949 67.9199 31.7383 59.8145 31.7383 49.8047C31.7383 39.7949 39.7949 31.6895 49.8535 31.6895C59.8633 31.6895 67.9199 39.7949 67.9199 49.8047C67.9199 59.8145 59.8633 67.9199 49.8535 67.9199ZM16.3086 25.3418C18.7988 21.8262 21.7773 18.7988 25.2441 16.3086L34.9121 25.9766C31.3477 28.2715 28.1738 31.3477 25.9277 34.9609ZM83.3008 25.3906L73.6328 35.0098C71.4355 31.3965 68.2617 28.3203 64.6973 26.0254L74.3652 16.3574C77.832 18.8477 80.8105 21.9238 83.3008 25.3906ZM83.3008 74.1211C80.8594 77.5879 77.832 80.6641 74.4141 83.1543L64.6973 73.4863C68.3105 71.1914 71.4355 68.1152 73.6816 64.502ZM16.3574 74.1699L25.9766 64.5508C28.2227 68.1641 31.3477 71.2402 34.9121 73.5352L25.2441 83.2031C21.8262 80.7129 18.7988 77.6855 16.3574 74.1699ZM49.8047 99.6582C77.0508 99.6582 99.6094 77.0996 99.6094 49.8535C99.6094 22.6562 77.002 0.0488281 49.7559 0.0488281C22.5586 0.0488281 0 22.6562 0 49.8535C0 77.0996 22.6074 99.6582 49.8047 99.6582Z" fill="#000000" fill-opacity="0.85"/>
 </g>
</svg>
