<?xml version="1.0" encoding="UTF-8"?>
<!--Generator: Apple Native CoreSVG 232.5-->
<!DOCTYPE svg
PUBLIC "-//W3C//DTD SVG 1.1//EN"
       "http://www.w3.org/Graphics/SVG/1.1/DTD/svg11.dtd">
<svg version="1.1" xmlns="http://www.w3.org/2000/svg" xmlns:xlink="http://www.w3.org/1999/xlink" width="115.576" height="110.986">
 <g>
  <rect height="110.986" opacity="0" width="115.576" x="0" y="0"/>
  <path d="M13.5254 62.0117C15.8203 62.0117 17.8223 60.1074 17.8223 57.8613C17.8223 55.5176 15.8203 53.6133 13.5254 53.6133L4.15039 53.6133C1.9043 53.6133 0 55.5664 0 57.8613C0 60.0586 1.9043 62.0117 4.15039 62.0117ZM23.5352 29.541C25.1465 31.1523 27.832 31.2012 29.4434 29.541C31.1035 27.8809 31.0547 25.2441 29.4434 23.6328L22.8516 16.9922C21.2891 15.332 18.5547 15.332 16.8945 16.9922C15.2832 18.6523 15.2832 21.2402 16.8945 22.9004ZM53.5645 13.623C53.5645 15.918 55.4688 17.8711 57.7637 17.8711C60.1074 17.8711 62.0117 15.918 62.0117 13.623L62.0117 4.24805C62.0117 1.95312 60.0586 0 57.7637 0C55.4688 0 53.5645 1.95312 53.5645 4.24805ZM86.0352 23.6328C84.4238 25.2441 84.375 27.8809 86.0352 29.541C87.7441 31.2012 90.332 31.1523 91.9434 29.541L98.6328 22.9004C100.244 21.2402 100.244 18.6523 98.6328 16.9922C96.9238 15.332 94.3359 15.332 92.7246 16.9922ZM111.328 62.0117C113.623 62.0117 115.576 60.0586 115.576 57.8613C115.576 55.5664 113.623 53.6133 111.328 53.6133L101.953 53.6133C99.707 53.6133 97.7539 55.5176 97.7539 57.8613C97.7539 60.1074 99.707 62.0117 101.953 62.0117Z" fill="#000000" fill-opacity="0.85"/>
  <path d="M81.4453 94.8242L89.3066 94.8242L89.3066 58.4961C89.3066 40.6738 75.5859 26.9043 57.7637 26.9043C39.9902 26.9043 26.2695 40.6738 26.2695 58.4961L26.2695 94.8242L34.1309 94.8242L34.1309 58.4961C34.1309 45.0195 44.3359 34.7656 57.7637 34.7656C71.2402 34.7656 81.4453 45.0195 81.4453 58.4961ZM95.2637 98.7793C97.4609 98.7793 99.2676 97.0215 99.2676 94.873C99.2676 92.6758 97.4609 90.8691 95.2637 90.8691L20.2148 90.8691C18.0664 90.8691 16.3574 92.6758 16.3574 94.873C16.3574 97.0215 18.0664 98.7793 20.2148 98.7793ZM61.7188 59.5703C61.7188 57.4219 59.9121 55.6152 57.7637 55.6152C55.6152 55.6152 53.9062 57.4219 53.9062 59.5703L53.9062 94.8242L61.7188 94.8242Z" fill="#000000" fill-opacity="0.85"/>
 </g>
</svg>
