<?xml version="1.0" encoding="UTF-8"?>
<!--Generator: Apple Native CoreSVG 232.5-->
<!DOCTYPE svg
PUBLIC "-//W3C//DTD SVG 1.1//EN"
       "http://www.w3.org/Graphics/SVG/1.1/DTD/svg11.dtd">
<svg version="1.1" xmlns="http://www.w3.org/2000/svg" xmlns:xlink="http://www.w3.org/1999/xlink" width="159.326" height="116.162">
 <g>
  <rect height="116.162" opacity="0" width="159.326" x="0" y="0"/>
  <path d="M79.7363 116.162C101.074 116.162 117.236 106.152 117.236 92.8223C117.236 79.4434 101.074 69.4824 79.7363 69.4824C58.3496 69.4824 42.1387 79.3945 42.1387 92.8223C42.1387 106.201 58.3496 116.162 79.7363 116.162ZM79.6875 107.227C65.5762 107.227 55.3223 101.367 55.3223 93.457C55.3223 85.5469 65.5762 79.7363 79.6875 79.7363C93.7988 79.7363 104.15 85.5469 104.15 93.457C104.15 101.318 93.7988 107.227 79.6875 107.227ZM59.7656 93.457C59.7656 98.584 68.6035 102.783 79.6387 102.783C90.7227 102.783 99.707 98.584 99.707 93.457C99.707 91.5039 98.3887 89.7949 96.2891 88.3301C93.1152 92.5781 86.8164 95.2637 79.6387 95.2637C72.4609 95.2637 66.1133 92.627 62.793 88.4277C60.9375 89.7949 59.7656 91.5527 59.7656 93.457Z" fill="#000000" fill-opacity="0.85"/>
  <path d="M121.826 67.4805C143.066 67.4805 159.326 57.5195 159.326 44.1895C159.326 30.8105 143.066 20.8008 121.826 20.8008C100.391 20.8008 84.2285 30.7617 84.2285 44.1895C84.2285 57.5684 100.391 67.4805 121.826 67.4805ZM121.729 58.5449C107.666 58.5449 97.3633 52.7344 97.3633 44.873C97.3633 36.9141 107.666 31.1035 121.729 31.1035C135.84 31.1035 146.143 36.9141 146.143 44.873C146.143 52.6855 135.84 58.5449 121.729 58.5449ZM101.807 44.873C101.807 49.9023 110.693 54.1504 121.68 54.1504C132.764 54.1504 141.748 49.9023 141.748 44.873C141.748 42.8223 140.479 41.1133 138.33 39.6484C135.156 43.8965 128.906 46.6797 121.68 46.6797C114.502 46.6797 108.203 43.9453 104.834 39.7461C102.979 41.1621 101.807 42.8711 101.807 44.873Z" fill="#000000" fill-opacity="0.85"/>
  <path d="M37.5977 67.4316C58.9355 67.4316 75.0977 57.4707 75.0977 44.1406C75.0977 30.7617 58.9355 20.752 37.5977 20.752C16.2109 20.752 0 30.7129 0 44.1406C0 57.5195 16.2109 67.4316 37.5977 67.4316ZM37.5488 58.4961C23.4863 58.4961 13.1836 52.6855 13.1836 44.8242C13.1836 36.8652 23.4863 31.0547 37.5488 31.0547C51.6602 31.0547 62.0117 36.8652 62.0117 44.8242C62.0117 52.6367 51.6602 58.4961 37.5488 58.4961ZM17.627 44.8242C17.627 49.8535 26.5137 54.1016 37.5 54.1016C48.584 54.1016 57.5684 49.8535 57.5684 44.8242C57.5684 42.7734 56.2988 41.0645 54.1504 39.6484C50.9766 43.8477 44.6777 46.6309 37.5 46.6309C30.3223 46.6309 24.0234 43.8965 20.7031 39.6973C18.7988 41.1133 17.627 42.8223 17.627 44.8242Z" fill="#000000" fill-opacity="0.85"/>
 </g>
</svg>
