<?xml version="1.0" encoding="UTF-8"?>
<!--Generator: Apple Native CoreSVG 232.5-->
<!DOCTYPE svg
PUBLIC "-//W3C//DTD SVG 1.1//EN"
       "http://www.w3.org/Graphics/SVG/1.1/DTD/svg11.dtd">
<svg version="1.1" xmlns="http://www.w3.org/2000/svg" xmlns:xlink="http://www.w3.org/1999/xlink" width="80.5664" height="128.662">
 <g>
  <rect height="128.662" opacity="0" width="80.5664" x="0" y="0"/>
  <path d="M13.8672 112.256L66.6992 112.256C74.4629 112.256 79.541 106.836 79.541 98.6328L79.541 66.2598C79.541 54.8828 78.2227 43.3594 76.3184 35.4492C74.3652 26.709 68.6035 20.3613 59.7168 19.4336C57.4219 19.2383 49.6094 18.5547 40.2832 18.5547C30.7129 18.5547 23.1445 19.2383 20.8496 19.4336C11.9629 20.3613 6.25 26.709 4.24805 35.4492C2.34375 43.4082 1.07422 54.7852 1.07422 66.1133L1.07422 98.6328C1.07422 106.836 6.10352 112.256 13.8672 112.256ZM40.2832 80.127C29.4434 80.0781 19.4336 79.5898 14.3555 78.9551C11.5234 78.6133 10.4492 76.8066 10.4492 74.1699L10.4492 65.4297C10.4492 56.0547 11.377 49.1211 12.1094 45.9473C12.5977 43.8965 13.8672 42.3828 16.0156 42.1387C21.1914 41.5527 27.8809 41.1621 40.2832 41.1133C52.6855 41.0645 59.375 41.5527 64.5508 42.1387C66.6992 42.3828 68.0176 43.8965 68.457 45.9473C69.1895 49.1211 70.1172 56.0547 70.1172 65.4297L70.1172 74.1699C70.1172 76.8555 69.043 78.6621 66.2109 78.9551C58.6426 79.7363 48.6816 80.1758 40.2832 80.127ZM18.8477 100.928C15.1367 100.928 12.5 98.1934 12.5 94.4336C12.5 90.7227 15.1367 87.9883 18.8477 87.9883C22.6074 87.9883 25.3418 90.7227 25.3418 94.4336C25.3418 98.1934 22.5098 100.928 18.8477 100.928ZM61.6211 100.977C57.8613 100.977 55.0781 98.1445 55.0781 94.4336C55.0781 90.7715 57.8613 87.9395 61.6211 87.9395C65.2832 87.9395 68.0176 90.7715 68.0176 94.4336C68.0176 98.1445 65.2344 100.977 61.6211 100.977ZM28.418 33.1543C26.709 33.1543 25.5371 32.0312 25.5371 30.3223C25.5371 28.5645 26.709 27.4902 28.418 27.4902L52.1973 27.4902C53.8574 27.4902 55.0293 28.5645 55.0293 30.3223C55.0293 32.0312 53.8574 33.1543 52.1973 33.1543ZM0 9.76562C0 11.7676 1.46484 12.9883 3.32031 12.9883C4.29688 12.9883 5.27344 12.5 6.10352 11.4746C8.83789 8.00781 11.8164 6.73828 17.4316 6.73828L63.1836 6.73828C68.75 6.73828 71.7285 8.00781 74.4629 11.4746C75.293 12.5 76.3184 12.9883 77.2949 12.9883C79.1016 12.9883 80.5664 11.7676 80.5664 9.76562C80.5664 8.30078 79.541 6.78711 78.1738 5.46875C73.9746 1.41602 69.1895 0.0488281 63.1836 0.0488281L17.4316 0.0488281C11.4258 0.0488281 6.5918 1.41602 2.44141 5.46875C1.02539 6.78711 0 8.30078 0 9.76562ZM36.7188 21.0449L24.5605 6.15234L15.5273 6.15234L27.7344 21.0449ZM43.8477 21.0449L52.832 21.0449L65.0391 6.15234L56.0059 6.15234ZM15.332 111.621L7.32422 124.463C6.05469 126.465 7.22656 128.662 9.52148 128.662L12.2559 128.662C13.5742 128.662 14.3555 128.223 15.0879 127.051L24.6582 111.621ZM55.957 111.621L65.5273 127.051C66.2598 128.223 67.041 128.662 68.4082 128.662L71.1426 128.662C73.3887 128.662 74.4141 126.416 73.1934 124.463L65.2832 111.621Z" fill="#000000" fill-opacity="0.85"/>
 </g>
</svg>
