<?xml version="1.0" encoding="UTF-8"?>
<!--Generator: Apple Native CoreSVG 232.5-->
<!DOCTYPE svg
PUBLIC "-//W3C//DTD SVG 1.1//EN"
       "http://www.w3.org/Graphics/SVG/1.1/DTD/svg11.dtd">
<svg version="1.1" xmlns="http://www.w3.org/2000/svg" xmlns:xlink="http://www.w3.org/1999/xlink" width="116.406" height="64.9902">
 <g>
  <rect height="64.9902" opacity="0" width="116.406" x="0" y="0"/>
  <path d="M6.25 64.9902C9.7168 64.9902 12.5 62.207 12.5 58.7402C12.5 55.2734 9.7168 52.4902 6.25 52.4902C2.7832 52.4902 0 55.2734 0 58.7402C0 62.207 2.7832 64.9902 6.25 64.9902ZM19.5312 29.4434C22.998 29.4434 25.7812 26.6602 25.7812 23.1934C25.7812 19.7266 22.998 16.9434 19.5312 16.9434C16.1133 16.9434 13.3301 19.7266 13.3301 23.1934C13.3301 26.6602 16.1133 29.4434 19.5312 29.4434ZM58.2031 12.5977C61.6699 12.5977 64.4531 9.81445 64.4531 6.34766C64.4531 2.88086 61.6699 0.0976562 58.2031 0.0976562C54.7363 0.0976562 51.9531 2.88086 51.9531 6.34766C51.9531 9.81445 54.7363 12.5977 58.2031 12.5977ZM96.875 29.4434C100.342 29.4434 103.125 26.6602 103.125 23.1934C103.125 19.7266 100.342 16.9434 96.875 16.9434C93.4082 16.9434 90.625 19.7266 90.625 23.1934C90.625 26.6602 93.4082 29.4434 96.875 29.4434ZM110.156 64.9902C113.623 64.9902 116.406 62.207 116.406 58.7402C116.406 55.2734 113.623 52.4902 110.156 52.4902C106.689 52.4902 103.906 55.2734 103.906 58.7402C103.906 62.207 106.689 64.9902 110.156 64.9902Z" fill="#000000" fill-opacity="0.85"/>
  <path d="M38.6719 63.4766L77.7344 63.4766C80.127 63.4766 82.1289 61.4746 82.1289 59.1309C82.1289 56.7383 80.127 54.834 77.7344 54.834L38.6719 54.834C36.2305 54.834 34.2773 56.7871 34.2773 59.1309C34.2773 61.4746 36.2793 63.4766 38.6719 63.4766Z" fill="#000000" fill-opacity="0.85"/>
 </g>
</svg>
