<?xml version="1.0" encoding="UTF-8"?>
<!--Generator: Apple Native CoreSVG 232.5-->
<!DOCTYPE svg
PUBLIC "-//W3C//DTD SVG 1.1//EN"
       "http://www.w3.org/Graphics/SVG/1.1/DTD/svg11.dtd">
<svg version="1.1" xmlns="http://www.w3.org/2000/svg" xmlns:xlink="http://www.w3.org/1999/xlink" width="120.02" height="84.2285">
 <g>
  <rect height="84.2285" opacity="0" width="120.02" x="0" y="0"/>
  <path d="M3.75977 7.66602L98.1445 7.61719C100.195 7.61719 101.904 5.9082 101.904 3.85742C101.904 1.80664 100.195 0 98.1445 0L3.75977 0.0488281C1.66016 0.0488281 0 1.85547 0 3.85742C0 5.9082 1.70898 7.61719 3.75977 7.66602ZM50.9277 41.4551C73.0469 41.4551 88.1836 26.123 87.9883 3.95508L80.4688 3.95508C80.5664 21.6309 68.5547 33.8379 50.9277 33.8379C33.3496 33.8379 21.2891 21.6309 21.3867 3.95508L13.8184 3.95508C13.7207 26.123 28.8574 41.4551 50.9277 41.4551ZM77.9297 82.5195C79.5898 84.082 81.7383 84.082 83.3496 82.5195C84.9121 80.9082 84.9609 78.7109 83.3496 77.1484L53.7598 47.6562C48.6816 47.6562 46.7773 47.8027 42.4805 47.0215ZM89.7949 70.7031C91.4062 72.2656 93.5547 72.2656 95.2148 70.7031C96.7773 69.043 96.7285 66.8945 95.2148 65.2832L72.5586 42.6758C70.166 43.9453 67.5781 44.9707 64.8438 45.752ZM101.611 58.8867C103.223 60.5469 105.371 60.4492 107.031 58.8379C108.594 57.2754 108.545 55.0781 106.982 53.4668L85.3516 31.8359C83.8379 33.8867 82.1289 35.791 80.2246 37.4512ZM113.428 47.0703C115.039 48.6816 117.236 48.6328 118.896 47.0215C120.41 45.459 120.361 43.2617 118.799 41.6504L92.9199 15.7227C92.2852 18.6523 91.4062 21.3379 90.2344 23.877Z" fill="#000000" fill-opacity="0.85"/>
 </g>
</svg>
