<?xml version="1.0" encoding="UTF-8"?>
<!--Generator: Apple Native CoreSVG 232.5-->
<!DOCTYPE svg
PUBLIC "-//W3C//DTD SVG 1.1//EN"
       "http://www.w3.org/Graphics/SVG/1.1/DTD/svg11.dtd">
<svg version="1.1" xmlns="http://www.w3.org/2000/svg" xmlns:xlink="http://www.w3.org/1999/xlink" width="99.6582" height="107.275">
 <g>
  <rect height="107.275" opacity="0" width="99.6582" x="0" y="0"/>
  <path d="M26.8066 101.416C20.3125 101.416 14.8438 97.9492 14.7461 92.9688L38.916 92.9688C38.8184 97.9492 33.252 101.416 26.8066 101.416ZM42.0898 86.4746C42.0898 88.0371 40.8203 89.209 39.2578 89.209L14.3066 89.209C12.7441 89.209 11.5723 87.9883 11.5723 86.4746C11.5723 84.9121 12.7441 83.6914 14.3066 83.6914L39.2578 83.6914C40.8203 83.6914 42.0898 84.8633 42.0898 86.4746ZM43.3932 12.1657C42.0042 13.9969 40.859 16.0012 40.0085 18.1494C36.514 15.5925 31.9974 14.1113 27.0508 14.1113C15.918 14.1113 6.88477 21.6797 6.88477 32.0801C6.88477 43.3105 14.1602 45.4102 17.8223 73.0957L36.2793 73.0957C37.9965 60.2846 40.4664 52.9521 42.6206 47.6848C43.8842 50.6538 45.2678 53.8298 46.5762 57.6499C44.8837 62.5707 43.3492 68.7095 42.5293 77.2461C42.3828 78.8086 41.5039 79.9316 39.6973 79.9316L14.4531 79.9316C12.6465 79.9316 11.7188 78.8086 11.6211 77.2461C9.08203 51.3184 0 47.5098 0 32.0801C0 18.1641 11.8652 7.22656 27.0508 7.22656C33.2631 7.22656 38.9071 9.04533 43.3932 12.1657Z" fill="#000000" fill-opacity="0.85"/>
  <path d="M68.75 0C51.5137 0 37.9395 12.5488 37.9395 28.5156C37.9395 46.1914 48.5352 50.5859 51.4648 81.1035C51.6113 82.8125 52.5391 83.8867 54.3457 83.8867L83.2031 83.8867C85.0098 83.8867 85.9375 82.8125 86.084 81.1035C89.0137 50.5859 99.6582 46.1914 99.6582 28.5156C99.6582 12.5488 86.0352 0 68.75 0ZM68.75 7.17773C81.5918 7.17773 92.4805 16.1621 92.4805 28.5156C92.4805 41.6504 83.7891 44.6289 79.541 76.709L58.0078 76.709C53.7598 44.6289 45.1172 41.6504 45.1172 28.5156C45.1172 16.1621 55.957 7.17773 68.75 7.17773ZM54.248 93.8477L83.3496 93.8477C84.9121 93.8477 86.1816 92.6758 86.1816 91.0645C86.1816 89.4531 84.9121 88.2812 83.3496 88.2812L54.248 88.2812C52.6367 88.2812 51.4648 89.4531 51.4648 91.0645C51.4648 92.6758 52.6367 93.8477 54.248 93.8477ZM68.7988 107.227C75.9766 107.227 82.0312 103.613 82.4219 98.2422L55.1758 98.2422C55.4688 103.613 61.5723 107.227 68.7988 107.227Z" fill="#000000" fill-opacity="0.85"/>
 </g>
</svg>
