<?xml version="1.0" encoding="UTF-8"?>
<!--Generator: Apple Native CoreSVG 232.5-->
<!DOCTYPE svg
PUBLIC "-//W3C//DTD SVG 1.1//EN"
       "http://www.w3.org/Graphics/SVG/1.1/DTD/svg11.dtd">
<svg version="1.1" xmlns="http://www.w3.org/2000/svg" xmlns:xlink="http://www.w3.org/1999/xlink" width="115.527" height="170.459">
 <g>
  <rect height="170.459" opacity="0" width="115.527" x="0" y="0"/>
  <path d="M13.5254 62.0117C15.8203 62.0117 17.8223 60.1074 17.8223 57.8125C17.8223 55.4688 15.8203 53.5645 13.5254 53.5645L4.15039 53.5645C1.9043 53.5645 0 55.5176 0 57.8125C0 60.0586 1.9043 62.0117 4.15039 62.0117ZM23.5352 29.541C25.1465 31.1523 27.832 31.2012 29.4434 29.541C31.1035 27.8809 31.0547 25.2441 29.4434 23.6328L22.8516 16.9434C21.2891 15.332 18.5547 15.332 16.8945 16.9434C15.2832 18.6523 15.2832 21.2402 16.8945 22.8516ZM53.5645 13.623C53.5645 15.8691 55.4688 17.8223 57.7637 17.8223C60.1074 17.8223 62.0117 15.8691 62.0117 13.623L62.0117 4.24805C62.0117 1.95312 60.0586 0 57.7637 0C55.4688 0 53.5645 1.95312 53.5645 4.24805ZM86.0352 23.6328C84.4238 25.2441 84.375 27.8809 86.0352 29.541C87.7441 31.2012 90.332 31.1523 91.9434 29.541L98.6328 22.8516C100.244 21.2402 100.244 18.6523 98.6328 16.9434C96.9238 15.332 94.3359 15.332 92.7246 16.9434ZM111.279 62.0117C113.574 62.0117 115.527 60.0586 115.527 57.8125C115.527 55.5176 113.574 53.5645 111.279 53.5645L101.904 53.5645C99.6582 53.5645 97.7051 55.4688 97.7051 57.8125C97.7051 60.1074 99.6582 62.0117 101.904 62.0117Z" fill="#000000" fill-opacity="0.85"/>
  <path d="M57.7637 26.9043C40.4785 26.9043 26.9531 39.4531 26.9531 55.4199C26.9531 73.0957 37.5 77.4902 40.4297 108.008C40.625 109.717 41.5527 110.791 43.3594 110.791L72.168 110.791C73.9746 110.791 74.9023 109.717 75.0488 108.008C78.0273 77.4902 88.623 73.0957 88.623 55.4199C88.623 39.4531 75 26.9043 57.7637 26.9043ZM57.7637 34.082C70.6055 34.082 81.4453 43.0176 81.4453 55.4199C81.4453 68.5059 72.7539 71.5332 68.5547 103.613L46.9727 103.613C42.7734 71.5332 34.1309 68.5059 34.1309 55.4199C34.1309 43.0176 44.9219 34.082 57.7637 34.082ZM43.2129 120.752L72.3145 120.752C73.9258 120.752 75.1465 119.58 75.1465 117.969C75.1465 116.357 73.9258 115.186 72.3145 115.186L43.2129 115.186C41.6504 115.186 40.4297 116.357 40.4297 117.969C40.4297 119.58 41.6504 120.752 43.2129 120.752ZM57.7637 134.131C64.9414 134.131 71.0449 130.518 71.3867 125.146L44.1406 125.146C44.4336 130.518 50.5371 134.131 57.7637 134.131Z" fill="#000000" fill-opacity="0.85"/>
 </g>
</svg>
