<?xml version="1.0" encoding="UTF-8"?>
<!--Generator: Apple Native CoreSVG 232.5-->
<!DOCTYPE svg
PUBLIC "-//W3C//DTD SVG 1.1//EN"
       "http://www.w3.org/Graphics/SVG/1.1/DTD/svg11.dtd">
<svg version="1.1" xmlns="http://www.w3.org/2000/svg" xmlns:xlink="http://www.w3.org/1999/xlink" width="97.4121" height="102.783">
 <g>
  <rect height="102.783" opacity="0" width="97.4121" x="0" y="0"/>
  <path d="M48.6816 102.734C77.9785 102.734 97.4121 92.7246 97.4121 77.1973L97.4121 27.3926C97.4121 10.7422 77.9297 0 48.6816 0C19.4824 0 0 10.7422 0 27.3926L0 77.1973C0 92.7246 19.4336 102.734 48.6816 102.734ZM7.86133 77.1973C7.86133 66.9434 24.3652 59.5215 48.6816 59.5215C72.998 59.5215 89.5508 66.9434 89.5508 77.1973C89.5508 87.4512 72.998 94.873 48.6816 94.873C24.3652 94.873 7.86133 87.4512 7.86133 77.1973ZM28.3691 66.4551C28.6621 73.6328 37.5977 79.541 48.6816 79.541C59.7656 79.541 68.75 73.6328 69.043 66.4551C63.3301 65.0391 56.3965 64.209 48.6816 64.209C41.0156 64.209 34.0332 65.0391 28.3691 66.4551Z" fill="#000000" fill-opacity="0.85"/>
 </g>
</svg>
