<?xml version="1.0" encoding="UTF-8"?>
<!--Generator: Apple Native CoreSVG 232.5-->
<!DOCTYPE svg
PUBLIC "-//W3C//DTD SVG 1.1//EN"
       "http://www.w3.org/Graphics/SVG/1.1/DTD/svg11.dtd">
<svg version="1.1" xmlns="http://www.w3.org/2000/svg" xmlns:xlink="http://www.w3.org/1999/xlink" width="71.582" height="108.057">
 <g>
  <rect height="108.057" opacity="0" width="71.582" x="0" y="0"/>
  <path d="M71.582 15.332L71.582 92.7246C71.582 102.93 66.5039 108.008 56.4453 108.008L15.1367 108.008C5.0293 108.008 0 102.93 0 92.7246L0 15.332C0 5.17578 5.0293 0 15.1367 0L56.4453 0C66.5039 0 71.582 5.17578 71.582 15.332ZM17.2852 61.7676C14.0137 61.7676 12.6953 63.0371 12.6953 66.3086L12.6953 90.4297C12.6953 93.7012 14.0137 94.9707 17.2852 94.9707L54.0527 94.9707C57.373 94.9707 58.6914 93.7012 58.6914 90.4297L58.6914 66.3086C58.6914 63.0371 57.373 61.7676 54.0527 61.7676Z" fill="#000000" fill-opacity="0.85"/>
 </g>
</svg>
