<?xml version="1.0" encoding="UTF-8"?>
<!--Generator: Apple Native CoreSVG 232.5-->
<!DOCTYPE svg
PUBLIC "-//W3C//DTD SVG 1.1//EN"
       "http://www.w3.org/Graphics/SVG/1.1/DTD/svg11.dtd">
<svg version="1.1" xmlns="http://www.w3.org/2000/svg" xmlns:xlink="http://www.w3.org/1999/xlink" width="159.326" height="116.162">
 <g>
  <rect height="116.162" opacity="0" width="159.326" x="0" y="0"/>
  <path d="M79.6387 116.162C100.977 116.162 117.139 106.152 117.139 92.8223C117.139 79.4434 100.977 69.4824 79.6387 69.4824C58.252 69.4824 42.041 79.3945 42.041 92.8223C42.041 106.201 58.252 116.162 79.6387 116.162ZM79.5898 106.592C66.0156 106.592 56.0547 100.977 56.0547 93.3594C56.0547 85.791 66.0156 80.127 79.5898 80.127C93.2129 80.127 103.223 85.791 103.223 93.3594C103.223 100.977 93.2129 106.592 79.5898 106.592ZM79.5898 95.6055C86.6211 95.6055 93.0664 92.8223 96.1914 88.5254C92.7246 85.9375 86.377 84.2773 79.5898 84.2773C72.7539 84.2773 66.4062 85.9375 62.9395 88.6719C66.1133 92.8223 72.6074 95.6055 79.5898 95.6055Z" fill="#000000" fill-opacity="0.85"/>
  <path d="M121.826 67.4316C143.066 67.4316 159.326 57.4707 159.326 44.1406C159.326 30.7617 143.066 20.752 121.826 20.752C100.391 20.752 84.2285 30.7129 84.2285 44.1406C84.2285 57.5195 100.391 67.4316 121.826 67.4316ZM121.729 57.8613C108.154 57.8613 98.1934 52.2461 98.1934 44.7266C98.1934 37.0605 108.154 31.4453 121.729 31.4453C135.4 31.4453 145.312 37.0605 145.312 44.7266C145.312 52.2461 135.4 57.8613 121.729 57.8613ZM121.777 46.9727C128.76 46.9727 135.205 44.0918 138.379 39.7949C134.863 37.2559 128.516 35.5469 121.777 35.5469C114.844 35.5469 108.545 37.2559 105.127 39.9414C108.301 44.0918 114.746 46.9727 121.777 46.9727Z" fill="#000000" fill-opacity="0.85"/>
  <path d="M37.5977 67.4316C58.9355 67.4316 75.0977 57.4707 75.0977 44.1406C75.0977 30.7617 58.9355 20.752 37.5977 20.752C16.2109 20.752 0 30.7129 0 44.1406C0 57.5195 16.2109 67.4316 37.5977 67.4316ZM37.5488 57.8613C23.9746 57.8613 14.0137 52.2461 14.0137 44.7266C14.0137 37.0605 23.9746 31.4453 37.5488 31.4453C51.2207 31.4453 61.1816 37.0605 61.1816 44.7266C61.1816 52.2461 51.2207 57.8613 37.5488 57.8613ZM37.5488 46.9727C44.5801 46.9727 50.9766 44.0918 54.1504 39.7949C50.6836 37.2559 44.3359 35.5469 37.5488 35.5469C30.6641 35.5469 24.3652 37.2559 20.8984 39.9414C24.1211 44.0918 30.5664 46.9727 37.5488 46.9727Z" fill="#000000" fill-opacity="0.85"/>
 </g>
</svg>
