<?xml version="1.0" encoding="UTF-8"?>
<!--Generator: Apple Native CoreSVG 232.5-->
<!DOCTYPE svg
PUBLIC "-//W3C//DTD SVG 1.1//EN"
       "http://www.w3.org/Graphics/SVG/1.1/DTD/svg11.dtd">
<svg version="1.1" xmlns="http://www.w3.org/2000/svg" xmlns:xlink="http://www.w3.org/1999/xlink" width="79.541" height="110.596">
 <g>
  <rect height="110.596" opacity="0" width="79.541" x="0" y="0"/>
  <path d="M0 19.5312C0 36.5234 26.1719 50.5371 26.1719 79.2969L26.1719 83.4961C26.1719 85.2051 27.0996 86.1328 28.8574 86.1328L50.6836 86.1328C52.4414 86.1328 53.3691 85.2051 53.3691 83.4961L53.3691 79.2969C53.3691 50.3906 79.541 36.9141 79.541 19.5312C79.541 6.98242 64.9414 0 39.7949 0C14.5996 0 0 6.98242 0 19.5312ZM7.37305 19.5312C7.37305 12.7441 18.4082 7.37305 39.7949 7.37305C61.1328 7.37305 72.168 12.7441 72.168 19.5312C72.168 31.1035 46.0449 49.1211 46.0449 77.002L46.0449 81.9336L50.0977 78.7598L29.4434 78.7598L33.4961 81.9336L33.4961 77.002C33.4961 49.1699 7.37305 31.0059 7.37305 19.5312ZM4.83398 29.248L74.7559 29.248L74.7559 22.8516L4.83398 22.8516ZM27.7832 96.6797L51.8066 96.6797C53.3691 96.6797 54.6387 95.459 54.6387 93.8477C54.6387 92.2363 53.3691 91.0156 51.8066 91.0156L27.7832 91.0156C26.1719 91.0156 24.9023 92.2363 24.9023 93.8477C24.9023 95.459 26.1719 96.6797 27.7832 96.6797ZM39.7949 110.596C46.3867 110.596 51.0742 107.08 52.0996 101.514L27.4414 101.514C28.3691 107.08 33.0566 110.596 39.7949 110.596Z" fill="#000000" fill-opacity="0.85"/>
 </g>
</svg>
