<?xml version="1.0" encoding="UTF-8"?>
<!--Generator: Apple Native CoreSVG 232.5-->
<!DOCTYPE svg
PUBLIC "-//W3C//DTD SVG 1.1//EN"
       "http://www.w3.org/Graphics/SVG/1.1/DTD/svg11.dtd">
<svg version="1.1" xmlns="http://www.w3.org/2000/svg" xmlns:xlink="http://www.w3.org/1999/xlink" width="114.903" height="110.1">
 <g>
  <rect height="110.1" opacity="0" width="114.903" x="0" y="0"/>
  <path d="M4.74148 38.9124C-0.0925015 41.6956-1.3132 46.0413 1.51883 50.9241L8.55008 63.1312C10.552 66.598 13.3841 67.8187 16.7532 67.8187L52.5442 67.8187L30.8645 80.3675C26.0794 83.1507 24.9075 87.4476 27.6419 92.2816L34.6731 104.537C37.5052 109.42 41.802 110.494 46.636 107.711L110.21 71.0902C114.995 68.3069 116.216 63.9124 113.433 59.0784L106.353 46.8714C104.449 43.5511 101.714 42.1839 98.3938 42.1839L62.3098 42.1839L84.0384 29.6351C88.8723 26.8519 89.9954 22.5062 87.261 17.721L80.2298 5.46515C77.3977 0.533512 73.1009-0.540706 68.3157 2.29132ZM8.35476 44.0882L71.0012 7.95539C72.6126 6.97882 74.0774 7.41828 75.1028 9.17609L81.597 20.3089C82.5735 21.9691 82.1341 23.5316 80.4251 24.5081L17.8762 60.5921C16.2161 61.5687 14.6536 61.1292 13.677 59.4202L7.28055 48.3851C6.30398 46.6273 6.64578 45.0648 8.35476 44.0882ZM28.9602 61.5198L51.4212 48.4827L85.845 48.4827L63.4329 61.5198ZM34.4778 85.4944L97.0266 49.3616C98.6868 48.3851 100.249 48.8245 101.226 50.5335L107.622 61.6175C108.599 63.3753 108.257 64.9378 106.548 65.9144L43.9505 101.998C42.2903 102.975 40.8255 102.535 39.8001 100.826L33.3548 89.6448C32.3294 87.9847 32.7688 86.471 34.4778 85.4944ZM76.3235 5.07453L79.0579 9.85968L87.3098 5.07453C88.6282 4.29328 89.1165 2.68195 88.2864 1.36359C87.554 0.0452312 85.8938-0.394222 84.5755 0.387028ZM82.9153 16.5003L85.6985 21.2855L93.8528 16.5491C95.3665 15.7191 95.7571 14.303 94.8294 12.7894C94.097 11.3734 92.4856 10.9827 91.1184 11.764ZM65.5325 22.0667C66.5091 23.9222 68.804 24.5081 70.6106 23.5316C72.4661 22.4573 73.052 20.1624 72.0266 18.3069C70.9524 16.5003 68.7063 15.9144 66.8997 16.8909C65.0442 18.0628 64.5071 20.2601 65.5325 22.0667ZM53.3743 29.098C54.3509 30.9046 56.597 31.5394 58.4036 30.5628C60.3079 29.4886 60.9915 27.1448 59.8196 25.4359C58.843 23.5316 56.4993 22.9944 54.6927 24.0198C52.8372 25.0941 52.3001 27.2913 53.3743 29.098ZM41.1184 36.2269C42.1927 37.9847 44.5364 38.5218 46.2942 37.5941C48.052 36.471 48.6868 34.1761 47.6614 32.4671C46.5872 30.6116 44.2434 29.9769 42.5833 31.0023C40.7278 32.1253 40.0442 34.3714 41.1184 36.2269ZM28.9114 43.2581C29.9856 45.0159 32.2805 45.6019 34.136 44.6253C35.9427 43.5511 36.5774 41.2073 35.4055 39.4984C34.5266 37.6429 32.1829 37.0081 30.3274 38.0823C28.5208 39.0589 27.886 41.4515 28.9114 43.2581ZM16.7532 50.2894C17.7786 52.096 20.0247 52.6331 21.9778 51.6566C23.6868 50.5823 24.2727 48.2874 23.2962 46.5296C22.222 44.6741 19.9759 44.0882 18.1692 45.0648C16.2649 46.0902 15.7278 48.4827 16.7532 50.2894ZM38.5794 104.928L35.845 100.094L27.593 104.928C26.2747 105.709 25.7864 107.272 26.6165 108.639C27.3489 109.909 29.0091 110.348 30.3274 109.616ZM32.0364 93.5023L29.2044 88.7171L21.0501 93.4046C19.5364 94.2835 19.1458 95.6995 20.0735 97.2132C20.8059 98.5804 22.4173 99.0198 23.7845 98.2386ZM91.6067 63.473C92.6809 65.3284 94.927 65.9144 96.7337 64.889C98.638 63.8636 99.1751 61.5198 98.1497 59.7132C97.1243 57.9066 94.8782 57.3206 92.9251 58.346C91.2161 59.4202 90.6302 61.7152 91.6067 63.473ZM79.5462 70.5042C80.4251 72.3597 82.72 72.9944 84.6243 71.9202C86.3821 70.9437 87.0169 68.5511 85.9915 66.7444C84.9173 64.9866 82.6223 64.3519 80.8157 65.3773C78.9602 66.4515 78.3255 68.7952 79.5462 70.5042ZM67.2415 77.5355C68.3157 79.3909 70.6595 79.9769 72.3196 78.9515C74.1751 77.8773 74.8587 75.6312 73.7845 73.7757C72.7591 72.0179 70.3665 71.4319 68.6087 72.4085C66.8509 73.5316 66.2161 75.8265 67.2415 77.5355ZM55.0833 84.5179C56.0598 86.471 58.4524 87.0081 60.2102 85.9827C62.0657 84.9085 62.6028 82.7112 61.5286 80.9046C60.552 79.0491 58.3059 78.4632 56.4993 79.4398C54.6438 80.514 53.9114 82.8089 55.0833 84.5179ZM42.8762 91.6956C43.9505 93.4534 46.2454 94.0882 48.0032 93.1116C49.8587 91.9398 50.3958 89.6937 49.3704 87.887C48.3938 86.0804 46.0989 85.4944 44.2923 86.471C42.4856 87.5452 41.8509 89.8402 42.8762 91.6956Z" fill="#000000" fill-opacity="0.85"/>
 </g>
</svg>
