<?xml version="1.0" encoding="UTF-8"?>
<!--Generator: Apple Native CoreSVG 232.5-->
<!DOCTYPE svg
PUBLIC "-//W3C//DTD SVG 1.1//EN"
       "http://www.w3.org/Graphics/SVG/1.1/DTD/svg11.dtd">
<svg version="1.1" xmlns="http://www.w3.org/2000/svg" xmlns:xlink="http://www.w3.org/1999/xlink" width="89.8926" height="89.9902">
 <g>
  <rect height="89.9902" opacity="0" width="89.8926" x="0" y="0"/>
  <path d="M89.8926 15.2344L89.8926 74.8535C89.8926 84.9121 84.8145 89.9902 74.5605 89.9902L15.332 89.9902C5.12695 89.9902 0 84.9609 0 74.8535L0 15.2344C0 5.12695 5.12695 0.0976562 15.332 0.0976562L74.5605 0.0976562C84.8145 0.0976562 89.8926 5.17578 89.8926 15.2344ZM31.543 18.75C29.3945 18.75 27.832 20.3125 27.832 22.5098L27.832 67.5781C27.832 69.7266 29.3945 71.2891 31.543 71.2891L58.3496 71.2891C60.498 71.2891 62.0605 69.7266 62.0605 67.5781L62.0605 22.5098C62.0605 20.3125 60.498 18.75 58.3496 18.75ZM56.3477 26.1719L56.3477 38.623C56.3477 39.6484 55.6641 40.3809 54.6875 40.3809L35.2051 40.3809C34.2285 40.3809 33.5449 39.6484 33.5449 38.623L33.5449 26.1719C33.5449 25.1465 34.2285 24.4629 35.2051 24.4629L54.6875 24.4629C55.6641 24.4629 56.3477 25.1465 56.3477 26.1719Z" fill="#000000" fill-opacity="0.85"/>
 </g>
</svg>
