<?xml version="1.0" encoding="UTF-8"?>
<!--Generator: Apple Native CoreSVG 232.5-->
<!DOCTYPE svg
PUBLIC "-//W3C//DTD SVG 1.1//EN"
       "http://www.w3.org/Graphics/SVG/1.1/DTD/svg11.dtd">
<svg version="1.1" xmlns="http://www.w3.org/2000/svg" xmlns:xlink="http://www.w3.org/1999/xlink" width="65.332" height="116.65">
 <g>
  <rect height="116.65" opacity="0" width="65.332" x="0" y="0"/>
  <path d="M17.2363 99.4629L48.1445 99.4629C49.7559 99.4629 50.9766 98.1934 50.9766 96.582C50.9766 95.0195 49.7559 93.75 48.1445 93.75L17.2363 93.75C15.625 93.75 14.3555 95.0195 14.3555 96.582C14.3555 98.1934 15.625 99.4629 17.2363 99.4629ZM32.666 113.623C40.2344 113.623 46.5332 109.912 47.0215 104.297L18.3594 104.297C18.7012 109.912 25.0488 113.623 32.666 113.623Z" fill="#000000" fill-opacity="0.85"/>
  <path d="M14.3555 86.0352C14.4531 87.793 15.5273 88.916 17.3828 88.916L47.9492 88.916C49.8535 88.916 50.8789 87.793 51.0254 86.0352C52.2461 65.1855 57.8613 55.7617 61.6211 46.875L3.75977 46.875C7.51953 55.7617 13.0859 65.1855 14.3555 86.0352Z" fill="#000000" fill-opacity="0.85"/>
  <path d="M65.332 30.0781C65.332 13.2324 50.9277 0 32.666 0C14.4043 0 0 13.2324 0 30.0781C0 34.0332 0.537109 37.3535 1.46484 40.4785L63.916 40.4785C64.7949 37.3535 65.332 34.0332 65.332 30.0781Z" fill="#000000" fill-opacity="0.85"/>
 </g>
</svg>
