<?xml version="1.0" encoding="UTF-8"?>
<!--Generator: Apple Native CoreSVG 232.5-->
<!DOCTYPE svg
PUBLIC "-//W3C//DTD SVG 1.1//EN"
       "http://www.w3.org/Graphics/SVG/1.1/DTD/svg11.dtd">
<svg version="1.1" xmlns="http://www.w3.org/2000/svg" xmlns:xlink="http://www.w3.org/1999/xlink" width="101.807" height="156.592">
 <g>
  <rect height="156.592" opacity="0" width="101.807" x="0" y="0"/>
  <path d="M5.07812 55.9082C7.91016 55.9082 10.1562 53.6621 10.1562 50.8301C10.1562 48.0469 7.91016 45.8008 5.07812 45.8008C2.24609 45.8008 0 48.0469 0 50.8301C0 53.6621 2.24609 55.9082 5.07812 55.9082ZM16.6016 21.6309C19.4336 21.6309 21.6797 19.3848 21.6797 16.5527C21.6797 13.7695 19.4336 11.5234 16.6016 11.5234C13.8184 11.5234 11.5234 13.7695 11.5234 16.5527C11.5234 19.3848 13.8184 21.6309 16.6016 21.6309ZM50.9277 10.1562C53.7109 10.1562 55.957 7.91016 55.957 5.07812C55.957 2.24609 53.7109 0 50.9277 0C48.0957 0 45.8496 2.24609 45.8496 5.07812C45.8496 7.91016 48.0957 10.1562 50.9277 10.1562ZM85.2051 21.6309C88.0371 21.6309 90.2832 19.3848 90.2832 16.5527C90.2832 13.7695 88.0371 11.5234 85.2051 11.5234C82.373 11.5234 80.127 13.7695 80.127 16.5527C80.127 19.3848 82.373 21.6309 85.2051 21.6309ZM96.7773 55.9082C99.5605 55.9082 101.807 53.6621 101.807 50.8301C101.807 48.0469 99.5605 45.8008 96.7773 45.8008C93.9453 45.8008 91.6992 48.0469 91.6992 50.8301C91.6992 53.6621 93.9453 55.9082 96.7773 55.9082Z" fill="#000000" fill-opacity="0.85"/>
  <path d="M50.9277 19.9707C33.6426 19.9707 20.0684 32.5195 20.0684 48.4863C20.0684 66.1621 30.6641 70.5566 33.5938 101.074C33.7891 102.783 34.668 103.857 36.5234 103.857L65.332 103.857C67.1387 103.857 68.0664 102.783 68.2129 101.074C71.1426 70.5566 81.7871 66.1621 81.7871 48.4863C81.7871 32.5195 68.1641 19.9707 50.9277 19.9707ZM36.377 113.818L65.4785 113.818C67.0898 113.818 68.3105 112.646 68.3105 111.035C68.3105 109.424 67.0898 108.252 65.4785 108.252L36.377 108.252C34.7656 108.252 33.5938 109.424 33.5938 111.035C33.5938 112.646 34.7656 113.818 36.377 113.818ZM50.9277 127.197C58.1055 127.197 64.209 123.584 64.5508 118.213L37.3047 118.213C37.5977 123.584 43.7012 127.197 50.9277 127.197Z" fill="#000000" fill-opacity="0.85"/>
 </g>
</svg>
