<?xml version="1.0" encoding="UTF-8"?>
<!--Generator: Apple Native CoreSVG 232.5-->
<!DOCTYPE svg
PUBLIC "-//W3C//DTD SVG 1.1//EN"
       "http://www.w3.org/Graphics/SVG/1.1/DTD/svg11.dtd">
<svg version="1.1" xmlns="http://www.w3.org/2000/svg" xmlns:xlink="http://www.w3.org/1999/xlink" width="95.459" height="100.83">
 <g>
  <rect height="100.83" opacity="0" width="95.459" x="0" y="0"/>
  <path d="M47.7051 49.8535C69.7266 49.8535 86.7188 55.2734 95.459 64.6973L95.459 26.416C95.459 10.498 76.6113 0 47.7051 0C18.8477 0 0 10.498 0 26.416L0 64.6973C8.74023 55.2734 25.6836 49.8535 47.7051 49.8535ZM47.7051 100.781C75.0488 100.781 95.2637 92.0898 95.2637 78.6621C95.2637 65.2344 75.0488 56.543 47.7051 56.543C20.4102 56.543 0.195312 65.2344 0.195312 78.6621C0.195312 92.0898 20.4102 100.781 47.7051 100.781ZM47.7051 77.0996C36.9629 77.0996 28.0762 71.582 27.4414 64.7461C33.3008 63.4766 40.1855 62.7441 47.7051 62.7441C55.2734 62.7441 62.1094 63.4766 68.0176 64.7461C67.3828 71.582 58.4473 77.0996 47.7051 77.0996Z" fill="#000000" fill-opacity="0.85"/>
 </g>
</svg>
