<?xml version="1.0" encoding="UTF-8"?>
<!--Generator: Apple Native CoreSVG 232.5-->
<!DOCTYPE svg
PUBLIC "-//W3C//DTD SVG 1.1//EN"
       "http://www.w3.org/Graphics/SVG/1.1/DTD/svg11.dtd">
<svg version="1.1" xmlns="http://www.w3.org/2000/svg" xmlns:xlink="http://www.w3.org/1999/xlink" width="122.461" height="92.9199">
 <g>
  <rect height="92.9199" opacity="0" width="122.461" x="0" y="0"/>
  <path d="M0 88.916C0 91.0645 1.75781 92.8711 3.90625 92.8711L118.555 92.8711C120.703 92.8711 122.461 91.0645 122.461 88.916C122.461 86.7676 120.703 85.0098 118.555 85.0098L3.90625 85.0098C1.75781 85.0098 0 86.7676 0 88.916ZM0 3.95508C0 6.10352 1.75781 7.86133 3.90625 7.86133L118.555 7.86133C120.703 7.86133 122.461 6.10352 122.461 3.95508C122.461 1.80664 120.703 0 118.555 0L3.90625 0C1.75781 0 0 1.80664 0 3.95508Z" fill="#000000" fill-opacity="0.85"/>
  <path d="M48.6328 68.7988L61.2793 59.5703L73.877 68.7988C76.3184 70.6055 79.1992 68.9453 78.125 65.7227L73.1934 50.9277L86.084 41.6016C88.7207 39.7461 87.5488 36.6699 84.5703 36.6699L68.6035 36.6699L63.916 21.9727C62.9883 19.0918 59.5703 19.0918 58.6914 21.9727L53.9062 36.6699L37.8906 36.6699C34.9121 36.6699 33.7402 39.7461 36.377 41.6016L49.3652 50.9277L44.3848 65.7227C43.3105 68.9453 46.1914 70.6055 48.6328 68.7988Z" fill="#000000" fill-opacity="0.85"/>
 </g>
</svg>
