<?xml version="1.0" encoding="UTF-8"?>
<!--Generator: Apple Native CoreSVG 232.5-->
<!DOCTYPE svg
PUBLIC "-//W3C//DTD SVG 1.1//EN"
       "http://www.w3.org/Graphics/SVG/1.1/DTD/svg11.dtd">
<svg version="1.1" xmlns="http://www.w3.org/2000/svg" xmlns:xlink="http://www.w3.org/1999/xlink" width="86.8652" height="104.932">
 <g>
  <rect height="104.932" opacity="0" width="86.8652" x="0" y="0"/>
  <path d="M57.7637 104.883C75.4395 104.883 86.8652 93.5059 86.8652 75.8301L86.8652 51.7578C86.8652 45.0684 84.7656 39.6973 80.6152 35.8887L49.8047 7.51953C43.75 2.00195 37.3535 0 29.7363 0L14.6484 0C5.85938 0 0 5.95703 0 14.7949L0 90.2344C0 99.4141 5.56641 104.883 14.7949 104.883ZM57.6172 97.0215L14.9902 97.0215C9.86328 97.0215 7.86133 95.2637 7.86133 90.0879L7.86133 14.8926C7.86133 10.6934 10.5957 7.86133 14.8438 7.86133L29.541 7.86133C35.5957 7.86133 40.0391 9.32617 44.3848 13.2812L75.1465 41.5527C77.832 43.9941 79.0039 46.9727 79.0039 51.8555L79.0039 75.6836C79.0039 89.3555 71.2402 97.0215 57.6172 97.0215Z" fill="#000000" fill-opacity="0.85"/>
  <path d="M23.1934 56.3965L62.793 56.3965C64.5508 56.3965 65.8203 55.2734 65.8203 53.5156C65.8203 51.8555 64.5508 50.7324 62.793 50.7324L23.1934 50.7324C21.3867 50.7324 20.166 51.8555 20.166 53.5156C20.166 55.2734 21.3867 56.3965 23.1934 56.3965ZM23.1934 70.166L62.793 70.166C64.5508 70.166 65.8203 69.043 65.8203 67.334C65.8203 65.5762 64.5508 64.4531 62.793 64.4531L23.1934 64.4531C21.3867 64.4531 20.166 65.5762 20.166 67.334C20.166 69.043 21.3867 70.166 23.1934 70.166ZM23.1934 83.9355L62.793 83.9355C64.5508 83.9355 65.8203 82.8125 65.8203 81.1035C65.8203 79.3945 64.5508 78.2715 62.793 78.2715L23.1934 78.2715C21.3867 78.2715 20.166 79.3945 20.166 81.1035C20.166 82.8125 21.3867 83.9355 23.1934 83.9355Z" fill="#000000" fill-opacity="0.85"/>
 </g>
</svg>
