<?xml version="1.0" encoding="UTF-8"?>
<!--Generator: Apple Native CoreSVG 232.5-->
<!DOCTYPE svg
PUBLIC "-//W3C//DTD SVG 1.1//EN"
       "http://www.w3.org/Graphics/SVG/1.1/DTD/svg11.dtd">
<svg version="1.1" xmlns="http://www.w3.org/2000/svg" xmlns:xlink="http://www.w3.org/1999/xlink" width="99.6094" height="99.6582">
 <g>
  <rect height="99.6582" opacity="0" width="99.6094" x="0" y="0"/>
  <path d="M29.5898 47.9004C35.5469 47.9004 40.4785 49.3652 47.0215 53.3203C54.3457 57.7148 60.8887 60.0098 68.75 60.0098C79.2969 60.0098 88.7695 55.4688 96.2402 47.0215L94.6777 35.5957C88.1348 46.4844 79.1992 52.1484 68.75 52.1484C62.3047 52.1484 57.2266 50.3906 51.0254 46.6309C43.75 42.2363 37.3047 40.0391 29.5898 40.0391C19.873 40.0391 11.2305 43.9941 4.10156 51.2695L5.56641 61.6211C11.9141 52.5879 20.166 47.9004 29.5898 47.9004ZM40.9668 31.8848C43.9453 37.0605 45.0684 41.9434 44.9707 49.707C44.8242 58.3008 46.1914 65.0391 50.0488 71.7773C55.0293 80.4199 62.8906 86.1328 72.9492 88.6719L81.0059 82.0801C69.9219 81.0059 61.6699 76.2207 56.8848 67.9199C53.6621 62.3047 52.6855 57.1289 52.832 49.8047C52.9297 41.2109 51.6113 34.668 47.8027 28.0273C42.5781 18.9941 34.2285 13.2324 23.5352 11.0352L16.9922 17.9199C28.0273 18.8965 36.2305 23.6816 40.9668 31.8848ZM60.5469 33.7891C57.5684 38.8672 53.9062 42.2363 47.0703 46.0938C39.5508 50.3418 34.4238 54.7852 30.4688 61.5723C25.4395 70.2148 24.5117 80.0781 27.4902 90.1855L36.9629 93.2617C32.4219 83.252 32.4707 73.7305 37.3047 65.4785C40.5273 60.0098 44.5312 56.543 50.9766 52.9297C58.4473 48.7305 63.4766 44.3359 67.334 37.6465C72.5098 28.7109 73.291 18.457 69.873 8.05664L60.4492 5.56641C65.3809 16.0156 65.332 25.5371 60.5469 33.7891ZM49.8047 99.6094C77.0508 99.6094 99.6094 77.002 99.6094 49.8047C99.6094 22.5586 77.002 0 49.7559 0C22.5586 0 0 22.5586 0 49.8047C0 77.002 22.6074 99.6094 49.8047 99.6094ZM49.8047 91.3086C26.7578 91.3086 8.34961 72.8516 8.34961 49.8047C8.34961 26.7578 26.709 8.30078 49.7559 8.30078C72.8027 8.30078 91.3086 26.7578 91.3086 49.8047C91.3086 72.8516 72.8516 91.3086 49.8047 91.3086Z" fill="#000000" fill-opacity="0.85"/>
 </g>
</svg>
