<?xml version="1.0" encoding="UTF-8"?>
<!--Generator: Apple Native CoreSVG 232.5-->
<!DOCTYPE svg
PUBLIC "-//W3C//DTD SVG 1.1//EN"
       "http://www.w3.org/Graphics/SVG/1.1/DTD/svg11.dtd">
<svg version="1.1" xmlns="http://www.w3.org/2000/svg" xmlns:xlink="http://www.w3.org/1999/xlink" width="99.6094" height="99.6582">
 <g>
  <rect height="99.6582" opacity="0" width="99.6094" x="0" y="0"/>
  <path d="M99.6094 49.8047C99.6094 77.002 77.0508 99.6094 49.8047 99.6094C22.6074 99.6094 0 77.002 0 49.8047C0 22.5586 22.5586 0 49.7559 0C77.002 0 99.6094 22.5586 99.6094 49.8047ZM37.6953 66.0645C35.4492 66.0645 33.8867 67.4805 33.8867 69.5801C33.8867 71.7285 35.4492 73.1934 37.6953 73.1934L62.0605 73.1934C64.3066 73.1934 65.918 71.7285 65.918 69.5801C65.918 67.4805 64.3066 66.0645 62.0605 66.0645ZM29.9316 49.3164C27.6367 49.3164 26.0742 50.7324 26.0742 52.8809C26.0742 55.0781 27.6367 56.4941 29.9316 56.4941L69.873 56.4941C72.1191 56.4941 73.6816 55.0781 73.6816 52.8809C73.6816 50.7324 72.1191 49.3164 69.873 49.3164ZM22.4609 32.666C20.2148 32.666 18.6035 34.082 18.6035 36.2305C18.6035 38.3789 20.2148 39.7949 22.4609 39.7949L77.3438 39.7949C79.541 39.7949 81.2012 38.3789 81.2012 36.2305C81.2012 34.082 79.541 32.666 77.3438 32.666Z" fill="#000000" fill-opacity="0.85"/>
 </g>
</svg>
