<?xml version="1.0" encoding="UTF-8"?>
<!--Generator: Apple Native CoreSVG 232.5-->
<!DOCTYPE svg
PUBLIC "-//W3C//DTD SVG 1.1//EN"
       "http://www.w3.org/Graphics/SVG/1.1/DTD/svg11.dtd">
<svg version="1.1" xmlns="http://www.w3.org/2000/svg" xmlns:xlink="http://www.w3.org/1999/xlink" width="83.3496" height="82.4707">
 <g>
  <rect height="82.4707" opacity="0" width="83.3496" x="0" y="0"/>
  <path d="M2.53906 9.61914L80.7617 9.61914C82.3242 9.61914 83.3496 8.64258 83.3496 7.08008L83.3496 4.73633C83.3496 3.22266 82.3242 2.24609 80.7617 2.24609L2.53906 2.24609C0.976562 2.24609 0 3.22266 0 4.73633L0 7.08008C0 8.64258 0.976562 9.61914 2.53906 9.61914ZM3.80859 40.5762L79.541 40.5762C81.8848 40.5762 83.3496 39.1602 83.3496 36.8164L83.3496 28.6133C83.3496 26.2207 81.8848 24.8047 79.541 24.8047L3.80859 24.8047C1.41602 24.8047 0 26.2207 0 28.6133L0 36.8164C0 39.1602 1.41602 40.5762 3.80859 40.5762ZM3.80859 82.4707L79.541 82.4707C81.8848 82.4707 83.3496 81.0547 83.3496 78.6621L83.3496 59.2773C83.3496 56.8848 81.8848 55.4688 79.541 55.4688L3.80859 55.4688C1.41602 55.4688 0 56.8848 0 59.2773L0 78.6621C0 81.0547 1.41602 82.4707 3.80859 82.4707Z" fill="#000000" fill-opacity="0.85"/>
 </g>
</svg>
