<?xml version="1.0" encoding="UTF-8"?>
<!--Generator: Apple Native CoreSVG 232.5-->
<!DOCTYPE svg
PUBLIC "-//W3C//DTD SVG 1.1//EN"
       "http://www.w3.org/Graphics/SVG/1.1/DTD/svg11.dtd">
<svg version="1.1" xmlns="http://www.w3.org/2000/svg" xmlns:xlink="http://www.w3.org/1999/xlink" width="99.6094" height="99.6582">
 <g>
  <rect height="99.6582" opacity="0" width="99.6094" x="0" y="0"/>
  <path d="M49.8047 99.6094C77.0508 99.6094 99.6094 77.002 99.6094 49.8047C99.6094 22.5586 77.002 0 49.7559 0C22.5586 0 0 22.5586 0 49.8047C0 77.002 22.6074 99.6094 49.8047 99.6094ZM49.8047 91.3086C26.7578 91.3086 8.34961 72.8516 8.34961 49.8047C8.34961 26.7578 26.709 8.30078 49.7559 8.30078C72.8027 8.30078 91.3086 26.7578 91.3086 49.8047C91.3086 72.8516 72.8516 91.3086 49.8047 91.3086Z" fill="#000000" fill-opacity="0.85"/>
  <path d="M23.2422 47.0703L76.4648 47.0703C78.6133 47.0703 80.1758 45.6543 80.1758 43.6035C80.1758 41.5527 78.6133 40.1855 76.4648 40.1855L23.2422 40.1855C21.0449 40.1855 19.5312 41.5527 19.5312 43.6035C19.5312 45.6543 21.0449 47.0703 23.2422 47.0703ZM30.4688 63.2324L69.2383 63.2324C71.3867 63.2324 72.9004 61.8164 72.9004 59.7656C72.9004 57.7148 71.3867 56.3477 69.2383 56.3477L30.4688 56.3477C28.2715 56.3477 26.7578 57.7148 26.7578 59.7656C26.7578 61.8164 28.2715 63.2324 30.4688 63.2324Z" fill="#000000" fill-opacity="0.85"/>
 </g>
</svg>
