<?xml version="1.0" encoding="UTF-8"?>
<!--Generator: Apple Native CoreSVG 232.5-->
<!DOCTYPE svg
PUBLIC "-//W3C//DTD SVG 1.1//EN"
       "http://www.w3.org/Graphics/SVG/1.1/DTD/svg11.dtd">
<svg version="1.1" xmlns="http://www.w3.org/2000/svg" xmlns:xlink="http://www.w3.org/1999/xlink" width="99.6094" height="99.6582">
 <g>
  <rect height="99.6582" opacity="0" width="99.6094" x="0" y="0"/>
  <path d="M49.8047 99.6094C60.791 99.6094 71.0449 95.8984 79.3457 89.6973C66.6016 88.0859 56.6895 81.9336 50.8301 71.7773C47.998 66.7969 46.6309 61.9629 46.0938 56.5918C42.8711 59.0332 40.2832 61.7676 38.0859 65.4785C32.4219 75.1465 33.3984 86.6211 40.6738 98.6328C43.6523 99.2676 46.6797 99.6094 49.8047 99.6094ZM30.127 95.459C25.0488 83.5449 25.3418 71.7285 31.25 61.5723C34.0332 56.8359 37.4023 53.2715 41.6016 50.1465C37.7441 48.584 34.3262 47.9004 30.3711 47.9004C19.2871 47.9004 9.81445 54.4434 3.125 66.9922C7.86133 79.6875 17.7246 90.0879 30.127 95.459ZM0.439453 56.2988C8.25195 45.8008 18.5547 40.0391 30.3711 40.0391C35.8398 40.0391 40.5762 41.1621 45.4102 43.3105C44.9219 38.8672 43.7988 35.4492 41.748 31.8848C36.2305 22.2656 25.8789 17.3828 11.9141 17.8223C4.49219 26.4648 0 37.6465 0 49.8047C0 52.002 0.195312 54.1504 0.439453 56.2988ZM53.2715 42.5781C56.8848 39.9414 59.2773 37.2559 61.3281 33.7891C66.9434 24.2188 65.9668 12.8418 58.5938 0.878906C55.7617 0.292969 52.7832 0 49.7559 0C38.5742 0 28.125 3.85742 19.7754 10.2539C32.6172 11.7676 42.6758 17.7734 48.584 28.0273C51.2695 32.7637 52.6855 37.3535 53.2715 42.5781ZM69.5312 52.1484C80.5664 52.1484 89.9902 45.752 96.6309 33.5449C92.1387 20.3613 81.9824 9.47266 69.0918 4.00391C74.2188 15.8691 74.0234 27.5391 68.1152 37.6465C65.2344 42.6758 61.6211 46.2402 57.2266 49.3652C61.084 51.0742 64.8438 52.1484 69.5312 52.1484ZM87.3047 82.1289C94.9219 73.4375 99.6094 62.1094 99.6094 49.8047C99.6094 47.9004 99.5117 46.0938 99.2676 44.2383C91.4551 54.4434 81.2012 60.0098 69.5312 60.0098C63.7695 60.0098 58.8379 58.7402 53.9551 56.543C54.4434 60.498 55.4688 64.1113 57.666 67.9199C63.1348 77.4902 73.4863 82.4219 87.3047 82.1289Z" fill="#000000" fill-opacity="0.85"/>
 </g>
</svg>
