<?xml version="1.0" encoding="UTF-8"?>
<!--Generator: Apple Native CoreSVG 232.5-->
<!DOCTYPE svg
PUBLIC "-//W3C//DTD SVG 1.1//EN"
       "http://www.w3.org/Graphics/SVG/1.1/DTD/svg11.dtd">
<svg version="1.1" xmlns="http://www.w3.org/2000/svg" xmlns:xlink="http://www.w3.org/1999/xlink" width="99.6094" height="99.6582">
 <g>
  <rect height="99.6582" opacity="0" width="99.6094" x="0" y="0"/>
  <path d="M99.6094 49.8047C99.6094 77.002 77.0508 99.6094 49.8047 99.6094C22.6074 99.6094 0 77.002 0 49.8047C0 22.5586 22.5586 0 49.7559 0C77.002 0 99.6094 22.5586 99.6094 49.8047ZM29.9316 56.4941C27.6367 56.4941 26.0742 57.9102 26.0742 60.0098C26.0742 62.1582 27.6367 63.623 29.9316 63.623L69.873 63.623C72.1191 63.623 73.6816 62.1582 73.6816 60.0098C73.6816 57.9102 72.1191 56.4941 69.873 56.4941ZM22.4609 39.7949C20.2148 39.7949 18.6035 41.2109 18.6035 43.3594C18.6035 45.459 20.2148 46.9238 22.4609 46.9238L77.3438 46.9238C79.541 46.9238 81.2012 45.459 81.2012 43.3594C81.2012 41.2109 79.541 39.7949 77.3438 39.7949Z" fill="#000000" fill-opacity="0.85"/>
 </g>
</svg>
