<?xml version="1.0" encoding="UTF-8"?>
<!--Generator: Apple Native CoreSVG 232.5-->
<!DOCTYPE svg
PUBLIC "-//W3C//DTD SVG 1.1//EN"
       "http://www.w3.org/Graphics/SVG/1.1/DTD/svg11.dtd">
<svg version="1.1" xmlns="http://www.w3.org/2000/svg" xmlns:xlink="http://www.w3.org/1999/xlink" width="98.7793" height="58.252">
 <g>
  <rect height="58.252" opacity="0" width="98.7793" x="0" y="0"/>
  <path d="M24.2188 58.1543L74.8047 58.1543C77.002 58.1543 78.7598 56.4453 78.7598 54.248C78.7598 52.0508 77.002 50.293 74.8047 50.293L24.2188 50.293C22.0215 50.293 20.3125 52.0508 20.3125 54.248C20.3125 56.4453 22.0215 58.1543 24.2188 58.1543Z" fill="#000000" fill-opacity="0.85"/>
  <path d="M14.209 33.0078L84.8633 33.0078C87.0605 33.0078 88.7695 31.2988 88.7695 29.1016C88.7695 26.9043 87.0605 25.1465 84.8633 25.1465L14.209 25.1465C12.0117 25.1465 10.2539 26.9043 10.2539 29.1016C10.2539 31.2988 12.0117 33.0078 14.209 33.0078Z" fill="#000000" fill-opacity="0.85"/>
  <path d="M3.90625 7.86133L94.873 7.86133C97.0703 7.86133 98.7793 6.15234 98.7793 3.95508C98.7793 1.75781 97.0703 0 94.873 0L3.90625 0C1.70898 0 0 1.75781 0 3.95508C0 6.15234 1.70898 7.86133 3.90625 7.86133Z" fill="#000000" fill-opacity="0.85"/>
 </g>
</svg>
