<?xml version="1.0" encoding="UTF-8"?>
<!--Generator: Apple Native CoreSVG 232.5-->
<!DOCTYPE svg
PUBLIC "-//W3C//DTD SVG 1.1//EN"
       "http://www.w3.org/Graphics/SVG/1.1/DTD/svg11.dtd">
<svg version="1.1" xmlns="http://www.w3.org/2000/svg" xmlns:xlink="http://www.w3.org/1999/xlink" width="122.754" height="92.8223">
 <g>
  <rect height="92.8223" opacity="0" width="122.754" x="0" y="0"/>
  <path d="M96.4844 84.8633C111.23 84.8633 122.754 74.0723 122.754 60.6445C122.754 50.3906 116.846 41.5039 107.324 37.5C107.422 15.7227 91.748 0 71.7773 0C58.5449 0 49.1211 7.08008 43.2617 15.625C31.25 12.1094 18.1641 21.2402 17.9199 34.9121C6.88477 36.6699 0 46.5332 0 58.4473C0 72.8027 12.5488 84.8633 29.248 84.8633ZM96.4844 77.002L29.248 77.002C16.9434 77.002 7.86133 68.4082 7.86133 58.4473C7.86133 48.6816 13.7695 40.918 24.1211 40.918C24.8047 40.918 25.0488 40.5762 25.0488 39.9414C25.0488 24.9023 35.8887 20.459 45.8984 23.7305C46.4844 23.9258 46.8262 23.7793 47.1191 23.2422C51.8555 14.7949 59.1309 7.86133 71.7773 7.86133C87.793 7.86133 98.877 20.5566 99.707 35.0586C99.8535 37.3047 99.707 39.9414 99.5117 42.2363C99.4629 42.8711 99.707 43.2129 100.293 43.3594C109.18 45.3125 114.893 51.8066 114.893 60.6445C114.893 69.7266 106.885 77.002 96.4844 77.002Z" fill="#000000" fill-opacity="0.85"/>
  <path d="M41.7969 64.7949C47.168 70.1172 54.6875 70.1172 60.1074 64.7949L69.9707 54.9316C75.3418 49.6094 75.293 42.041 69.9707 36.6699C68.2617 34.9121 66.3574 33.9844 64.8926 33.5449L62.3535 36.0352C61.8652 36.5723 61.2305 37.2559 60.5469 38.2324C62.5977 37.8906 64.5996 38.6719 66.2598 40.3809C69.5801 43.6523 69.6289 48.2422 66.2109 51.6113L56.7871 61.084C53.4668 64.4043 48.7793 64.4043 45.5078 61.1328C42.1875 57.7637 42.1875 53.125 45.5078 49.8047L49.6582 45.6543C49.0234 43.4082 49.1211 40.8691 50.1465 38.1836L41.7969 46.4844C36.4746 51.8066 36.4746 59.4238 41.7969 64.7949ZM83.4961 23.1445C78.1738 17.7734 70.5566 17.7734 65.1855 23.0957L55.3223 32.959C50 38.2812 50.0488 45.8984 55.3711 51.2695C57.0801 53.0273 59.082 53.9551 60.4004 54.3945L62.9883 51.8555C63.8184 50.8789 63.9648 50.6348 64.4043 49.9023C62.5488 49.9512 60.5957 49.1211 59.0332 47.5586C55.7129 44.2383 55.6641 39.6973 59.082 36.3281L68.5059 26.8555C71.875 23.4863 76.5137 23.4863 79.7852 26.8066C83.0566 30.1758 83.1055 34.8145 79.7852 38.1348L75.6348 42.1875C76.2695 44.5312 76.1719 47.0703 75.1465 49.7559L83.4961 41.4062C88.8184 36.0352 88.7695 28.4668 83.4961 23.1445Z" fill="#000000" fill-opacity="0.85"/>
 </g>
</svg>
