<?xml version="1.0" encoding="UTF-8"?>
<!--Generator: Apple Native CoreSVG 232.5-->
<!DOCTYPE svg
PUBLIC "-//W3C//DTD SVG 1.1//EN"
       "http://www.w3.org/Graphics/SVG/1.1/DTD/svg11.dtd">
<svg version="1.1" xmlns="http://www.w3.org/2000/svg" xmlns:xlink="http://www.w3.org/1999/xlink" width="99.6094" height="99.6582">
 <g>
  <rect height="99.6582" opacity="0" width="99.6094" x="0" y="0"/>
  <path d="M99.6094 49.8047C99.6094 77.002 77.0508 99.6094 49.8047 99.6094C22.6074 99.6094 0 77.002 0 49.8047C0 22.5586 22.5586 0 49.7559 0C77.002 0 99.6094 22.5586 99.6094 49.8047ZM38.1348 40.9668C38.1348 41.3574 38.1836 41.6504 38.2324 42.041L34.375 42.041C32.7637 42.041 31.543 43.1152 31.543 44.7266C31.543 46.3379 32.7637 47.4609 34.375 47.4609L39.0625 47.4609C39.3555 48.9258 39.8438 50.3418 40.1855 51.8066L34.375 51.8066C32.7637 51.8066 31.543 52.8809 31.543 54.4922C31.543 56.1035 32.7637 57.2266 34.375 57.2266L40.9668 57.2266C41.0156 57.7637 40.9668 58.3008 40.918 58.8867C40.4297 63.3301 37.5 66.3086 34.082 67.2852C32.2266 67.8711 31.4453 68.8965 31.4453 70.5566C31.4453 72.3633 32.6172 73.5352 34.4238 73.5352L64.8926 73.5352C66.6992 73.5352 67.9688 72.3633 67.9688 70.5566C67.9688 68.7988 66.6992 67.627 64.8926 67.627L43.1152 67.627C45.3125 65.8691 46.7773 62.793 47.2656 59.4727C47.3633 58.7402 47.4121 58.0078 47.4121 57.2266L59.4238 57.2266C61.084 57.2266 62.2559 56.1035 62.2559 54.4922C62.2559 52.8809 61.084 51.8066 59.4238 51.8066L46.875 51.8066C46.4844 50.293 46.0938 48.877 45.752 47.4609L59.4238 47.4609C61.084 47.4609 62.2559 46.3379 62.2559 44.7266C62.2559 43.1152 61.084 42.041 59.4238 42.041L44.8242 42.041C44.7754 41.5527 44.7266 41.0645 44.7266 40.5273C44.7266 35.1074 48.6328 31.3965 55.2734 31.3965C58.9844 31.3965 61.1816 32.2754 62.7441 32.4707C64.6484 32.5684 65.625 31.4941 65.625 29.834C65.625 28.5156 64.9902 27.4414 63.2324 26.7578C60.8398 25.7812 57.959 25.4395 54.8828 25.4395C44.4824 25.4395 38.1348 31.4453 38.1348 40.9668Z" fill="#000000" fill-opacity="0.85"/>
 </g>
</svg>
