<?xml version="1.0" encoding="UTF-8"?>
<!--Generator: Apple Native CoreSVG 232.5-->
<!DOCTYPE svg
PUBLIC "-//W3C//DTD SVG 1.1//EN"
       "http://www.w3.org/Graphics/SVG/1.1/DTD/svg11.dtd">
<svg version="1.1" xmlns="http://www.w3.org/2000/svg" xmlns:xlink="http://www.w3.org/1999/xlink" width="89.8926" height="89.9902">
 <g>
  <rect height="89.9902" opacity="0" width="89.8926" x="0" y="0"/>
  <path d="M89.8926 15.2344L89.8926 74.8535C89.8926 84.9121 84.8145 89.9902 74.5605 89.9902L15.332 89.9902C5.12695 89.9902 0 84.9609 0 74.8535L0 15.2344C0 5.12695 5.12695 0.0976562 15.332 0.0976562L74.5605 0.0976562C84.8145 0.0976562 89.8926 5.17578 89.8926 15.2344ZM33.3008 36.1328C33.3008 36.5234 33.3496 36.8164 33.3984 37.207L29.541 37.207C27.9297 37.207 26.7578 38.2812 26.7578 39.8926C26.7578 41.5039 27.9297 42.627 29.541 42.627L34.2285 42.627C34.5703 44.0918 35.0098 45.5078 35.3516 46.9727L29.541 46.9727C27.9297 46.9727 26.7578 48.0469 26.7578 49.6582C26.7578 51.2695 27.9297 52.3926 29.541 52.3926L36.1328 52.3926C36.1816 52.9297 36.1328 53.4668 36.084 54.0527C35.5957 58.4961 32.666 61.4746 29.248 62.4512C27.3926 63.0371 26.6113 64.0625 26.6113 65.7227C26.6113 67.5293 27.7832 68.7012 29.5898 68.7012L60.0586 68.7012C61.8652 68.7012 63.1348 67.5293 63.1348 65.7227C63.1348 63.9648 61.8652 62.793 60.0586 62.793L38.2812 62.793C40.4785 61.0352 41.9434 57.959 42.4316 54.6387C42.5293 53.9062 42.5781 53.1738 42.5781 52.3926L54.5898 52.3926C56.25 52.3926 57.4219 51.2695 57.4219 49.6582C57.4219 48.0469 56.25 46.9727 54.5898 46.9727L42.041 46.9727C41.6504 45.459 41.2598 44.043 40.918 42.627L54.5898 42.627C56.25 42.627 57.4219 41.5039 57.4219 39.8926C57.4219 38.2812 56.25 37.207 54.5898 37.207L39.9902 37.207C39.9414 36.7188 39.8926 36.2305 39.8926 35.6934C39.8926 30.2734 43.7988 26.5625 50.4395 26.5625C54.1504 26.5625 56.3477 27.4414 57.9102 27.6367C59.8633 27.7344 60.791 26.6602 60.791 25C60.791 23.6816 60.1562 22.6074 58.3984 21.9238C56.0059 20.9473 53.125 20.6055 50.0488 20.6055C39.6973 20.6055 33.3008 26.6113 33.3008 36.1328Z" fill="#000000" fill-opacity="0.85"/>
 </g>
</svg>
