<?xml version="1.0" encoding="UTF-8"?>
<!--Generator: Apple Native CoreSVG 232.5-->
<!DOCTYPE svg
PUBLIC "-//W3C//DTD SVG 1.1//EN"
       "http://www.w3.org/Graphics/SVG/1.1/DTD/svg11.dtd">
<svg version="1.1" xmlns="http://www.w3.org/2000/svg" xmlns:xlink="http://www.w3.org/1999/xlink" width="89.8926" height="89.9902">
 <g>
  <rect height="89.9902" opacity="0" width="89.8926" x="0" y="0"/>
  <path d="M15.332 89.9902L74.5605 89.9902C84.8145 89.9902 89.8926 84.9121 89.8926 74.8535L89.8926 15.2344C89.8926 5.17578 84.8145 0.0976562 74.5605 0.0976562L15.332 0.0976562C5.12695 0.0976562 0 5.12695 0 15.2344L0 74.8535C0 84.9609 5.12695 89.9902 15.332 89.9902ZM15.4297 82.1289C10.5469 82.1289 7.86133 79.541 7.86133 74.4629L7.86133 15.625C7.86133 10.5469 10.5469 7.95898 15.4297 7.95898L74.4629 7.95898C79.2969 7.95898 82.0312 10.5469 82.0312 15.625L82.0312 74.4629C82.0312 79.541 79.2969 82.1289 74.4629 82.1289Z" fill="#000000" fill-opacity="0.85"/>
  <path d="M27.1973 65.0879C27.1973 66.7969 28.3203 67.9688 30.0781 67.9688L59.5703 67.9688C61.3281 67.9688 62.5488 66.7969 62.5488 65.0879C62.5488 63.3789 61.3281 62.2559 59.5703 62.2559L38.4766 62.2559C40.5762 60.5469 42.041 57.5684 42.4805 54.3945C42.5781 53.6133 42.627 52.8809 42.627 52.1484L54.2969 52.1484C55.9082 52.1484 57.0312 51.0742 57.0312 49.5117C57.0312 47.9492 55.9082 46.9238 54.2969 46.9238L42.0898 46.9238C41.748 45.459 41.3574 44.043 41.0156 42.6758L54.2969 42.6758C55.9082 42.6758 57.0312 41.6016 57.0312 40.0391C57.0312 38.4766 55.9082 37.4512 54.2969 37.4512L40.1367 37.4512C40.0879 36.9629 40.0391 36.4746 40.0391 35.9863C40.0391 30.7129 43.7988 27.0996 50.2441 27.0996C53.8574 27.0996 56.0059 27.9785 57.5195 28.1738C59.375 28.2715 60.3027 27.1973 60.3027 25.5859C60.3027 24.3164 59.668 23.291 57.959 22.6074C55.6641 21.6797 52.8809 21.3379 49.9023 21.3379C39.8438 21.3379 33.6426 27.1973 33.6426 36.377C33.6426 36.7676 33.6914 37.0605 33.7402 37.4512L30.0293 37.4512C28.4668 37.4512 27.3438 38.4766 27.3438 40.0391C27.3438 41.6016 28.4668 42.6758 30.0293 42.6758L34.5703 42.6758C34.9121 44.0918 35.3027 45.5078 35.6445 46.9238L30.0293 46.9238C28.4668 46.9238 27.3438 47.9492 27.3438 49.5117C27.3438 51.0742 28.4668 52.1484 30.0293 52.1484L36.4258 52.1484C36.4746 52.6855 36.4258 53.1738 36.377 53.7598C35.8887 58.0566 33.0566 60.9863 29.7363 61.9141C27.9297 62.5 27.1973 63.4766 27.1973 65.0879Z" fill="#000000" fill-opacity="0.85"/>
 </g>
</svg>
