<?xml version="1.0" encoding="UTF-8"?>
<!--Generator: Apple Native CoreSVG 232.5-->
<!DOCTYPE svg
PUBLIC "-//W3C//DTD SVG 1.1//EN"
       "http://www.w3.org/Graphics/SVG/1.1/DTD/svg11.dtd">
<svg version="1.1" xmlns="http://www.w3.org/2000/svg" xmlns:xlink="http://www.w3.org/1999/xlink" width="99.6094" height="99.6582">
 <g>
  <rect height="99.6582" opacity="0" width="99.6094" x="0" y="0"/>
  <path d="M49.8047 99.6094C77.0508 99.6094 99.6094 77.002 99.6094 49.8047C99.6094 22.5586 77.002 0 49.7559 0C22.5586 0 0 22.5586 0 49.8047C0 77.002 22.6074 99.6094 49.8047 99.6094ZM49.8047 91.3086C26.7578 91.3086 8.34961 72.8516 8.34961 49.8047C8.34961 26.7578 26.709 8.30078 49.7559 8.30078C72.8027 8.30078 91.3086 26.7578 91.3086 49.8047C91.3086 72.8516 72.8516 91.3086 49.8047 91.3086Z" fill="#000000" fill-opacity="0.85"/>
  <path d="M31.9824 69.9219C31.9824 71.6309 33.1055 72.8027 34.8633 72.8027L64.3555 72.8027C66.1133 72.8027 67.334 71.6309 67.334 69.9219C67.334 68.2129 66.1133 67.0898 64.3555 67.0898L43.2617 67.0898C45.3613 65.3809 46.8262 62.4023 47.2656 59.2285C47.3633 58.4473 47.4121 57.7148 47.4121 56.9824L59.082 56.9824C60.6934 56.9824 61.8164 55.9082 61.8164 54.3457C61.8164 52.7832 60.6934 51.7578 59.082 51.7578L46.875 51.7578C46.5332 50.293 46.1426 48.877 45.8008 47.5098L59.082 47.5098C60.6934 47.5098 61.8164 46.4355 61.8164 44.873C61.8164 43.3105 60.6934 42.2852 59.082 42.2852L44.9219 42.2852C44.873 41.7969 44.8242 41.3086 44.8242 40.8203C44.8242 35.5469 48.584 31.9336 55.0293 31.9336C58.6426 31.9336 60.791 32.8125 62.3047 33.0078C64.1113 33.1055 65.0879 32.0312 65.0879 30.4199C65.0879 29.1504 64.4531 28.125 62.7441 27.4414C60.4492 26.5137 57.666 26.1719 54.6875 26.1719C44.5801 26.1719 38.4277 32.0312 38.4277 41.2109C38.4277 41.6016 38.4766 41.8945 38.5254 42.2852L34.8145 42.2852C33.252 42.2852 32.0801 43.3105 32.0801 44.873C32.0801 46.4355 33.252 47.5098 34.8145 47.5098L39.3555 47.5098C39.6484 48.9258 40.0879 50.3418 40.4297 51.7578L34.8145 51.7578C33.252 51.7578 32.0801 52.7832 32.0801 54.3457C32.0801 55.9082 33.252 56.9824 34.8145 56.9824L41.2109 56.9824C41.2598 57.5195 41.2109 58.0078 41.1621 58.5938C40.6738 62.8906 37.8418 65.8203 34.5215 66.748C32.7148 67.334 31.9824 68.3105 31.9824 69.9219Z" fill="#000000" fill-opacity="0.85"/>
 </g>
</svg>
