<?xml version="1.0" encoding="UTF-8"?>
<!--Generator: Apple Native CoreSVG 232.5-->
<!DOCTYPE svg
PUBLIC "-//W3C//DTD SVG 1.1//EN"
       "http://www.w3.org/Graphics/SVG/1.1/DTD/svg11.dtd">
<svg version="1.1" xmlns="http://www.w3.org/2000/svg" xmlns:xlink="http://www.w3.org/1999/xlink" width="66.6992" height="88.8184">
 <g>
  <rect height="88.8184" opacity="0" width="66.6992" x="0" y="0"/>
  <path d="M4.19922 88.623L62.4512 88.623C64.8926 88.623 66.6992 87.0117 66.6992 84.5703C66.6992 82.0801 64.8926 80.5664 62.4512 80.5664L15.4785 80.5664L15.4785 80.3223C22.4609 77.9785 27.5391 69.4336 27.5391 58.8379C27.5391 46.6797 22.3633 39.6973 22.3633 27.3438C22.3633 16.0156 30.2246 8.30078 43.8477 8.30078C52.1484 8.30078 55.9082 10.5469 58.5938 10.5469C61.084 10.5469 62.2559 9.08203 62.2559 6.93359C62.2559 4.88281 61.0352 3.4668 58.3008 2.34375C54.0039 0.634766 48.9746 0 43.1152 0C24.3652 0 12.793 10.9375 12.793 28.0273C12.793 39.0137 18.3594 50.0977 18.3594 59.2285C18.3594 70.2637 11.6699 77.4902 3.85742 79.6875C1.17188 80.5176 0 81.9336 0 84.4238C0 86.8652 1.75781 88.623 4.19922 88.623ZM0.732422 35.3027C0.732422 37.3047 2.34375 38.8672 4.29688 38.8672L51.9043 38.8672C53.8574 38.8672 55.4688 37.3047 55.4688 35.3027C55.4688 33.3008 53.8574 31.7383 51.9043 31.7383L4.29688 31.7383C2.34375 31.7383 0.732422 33.3008 0.732422 35.3027ZM0.732422 53.9062C0.732422 55.9082 2.34375 57.4707 4.29688 57.4707L51.9043 57.4707C53.8574 57.4707 55.4688 55.9082 55.4688 53.9062C55.4688 51.9043 53.8574 50.3418 51.9043 50.3418L4.29688 50.3418C2.34375 50.3418 0.732422 51.9043 0.732422 53.9062Z" fill="#000000" fill-opacity="0.85"/>
 </g>
</svg>
