<?xml version="1.0" encoding="UTF-8"?>
<!--Generator: Apple Native CoreSVG 232.5-->
<!DOCTYPE svg
PUBLIC "-//W3C//DTD SVG 1.1//EN"
       "http://www.w3.org/Graphics/SVG/1.1/DTD/svg11.dtd">
<svg version="1.1" xmlns="http://www.w3.org/2000/svg" xmlns:xlink="http://www.w3.org/1999/xlink" width="82.1289" height="104.736">
 <g>
  <rect height="104.736" opacity="0" width="82.1289" x="0" y="0"/>
  <path d="M0 89.4043C0 99.6094 5.0293 104.688 15.1367 104.688L66.9922 104.688C77.0996 104.688 82.1289 99.6094 82.1289 89.4043L82.1289 15.332C82.1289 5.17578 77.0996 0 66.9922 0L15.1367 0C5.0293 0 0 5.17578 0 15.332ZM7.86133 89.2578L7.86133 15.4785C7.86133 10.5957 10.4492 7.86133 15.5273 7.86133L66.6016 7.86133C71.6797 7.86133 74.2676 10.5957 74.2676 15.4785L74.2676 89.2578C74.2676 94.1406 71.6797 96.8262 66.6016 96.8262L15.5273 96.8262C10.4492 96.8262 7.86133 94.1406 7.86133 89.2578Z" fill="#000000" fill-opacity="0.85"/>
  <path d="M19.8242 57.3242C22.3633 57.3242 24.3652 55.2734 24.3652 52.7832C24.3652 50.2441 22.3633 48.2422 19.8242 48.2422C17.3828 48.2422 15.2832 50.293 15.2832 52.7832C15.2832 55.2246 17.3828 57.3242 19.8242 57.3242ZM33.5938 55.8105L63.8184 55.8105C65.4785 55.8105 66.8457 54.4434 66.8457 52.7832C66.8457 51.123 65.5273 49.7559 63.8184 49.7559L33.5938 49.7559C31.8848 49.7559 30.5664 51.123 30.5664 52.7832C30.5664 54.4434 31.9336 55.8105 33.5938 55.8105Z" fill="#000000" fill-opacity="0.85"/>
  <path d="M19.8242 41.6992C22.3633 41.6992 24.3652 39.6484 24.3652 37.1582C24.3652 34.6191 22.3633 32.666 19.8242 32.666C17.334 32.666 15.2832 34.668 15.2832 37.1582C15.2832 39.6484 17.334 41.6992 19.8242 41.6992ZM33.5938 40.1855L63.8184 40.1855C65.5273 40.1855 66.8457 38.8672 66.8457 37.1582C66.8457 35.4492 65.5273 34.1309 63.8184 34.1309L33.5938 34.1309C31.8848 34.1309 30.5664 35.4492 30.5664 37.1582C30.5664 38.8672 31.8848 40.1855 33.5938 40.1855Z" fill="#000000" fill-opacity="0.85"/>
  <path d="M19.8242 26.7578C22.3633 26.7578 24.3652 24.7559 24.3652 22.2168C24.3652 19.7266 22.3633 17.6758 19.8242 17.6758C17.3828 17.6758 15.2832 19.7754 15.2832 22.2168C15.2832 24.707 17.3828 26.7578 19.8242 26.7578ZM33.5938 25.293L63.8184 25.293C65.4785 25.293 66.8457 23.9258 66.8457 22.2168C66.8457 20.5566 65.4785 19.1895 63.8184 19.1895L33.5938 19.1895C31.9336 19.1895 30.5664 20.5566 30.5664 22.2168C30.5664 23.9258 31.9336 25.293 33.5938 25.293Z" fill="#000000" fill-opacity="0.85"/>
 </g>
</svg>
