<?xml version="1.0" encoding="UTF-8"?>
<!--Generator: Apple Native CoreSVG 232.5-->
<!DOCTYPE svg
PUBLIC "-//W3C//DTD SVG 1.1//EN"
       "http://www.w3.org/Graphics/SVG/1.1/DTD/svg11.dtd">
<svg version="1.1" xmlns="http://www.w3.org/2000/svg" xmlns:xlink="http://www.w3.org/1999/xlink" width="118.213" height="84.4238">
 <g>
  <rect height="84.4238" opacity="0" width="118.213" x="0" y="0"/>
  <path d="M3.66211 7.37305L94.6289 7.37305C96.6797 7.37305 98.3887 5.76172 98.3887 3.66211C98.3887 1.61133 96.6797 0 94.6289 0L3.66211 0C1.61133 0 0 1.61133 0 3.66211C0 5.76172 1.61133 7.37305 3.66211 7.37305ZM3.66211 32.959L34.1797 32.959C36.2793 32.959 37.9395 31.3477 37.9395 29.248C37.9395 27.1973 36.2793 25.5859 34.1797 25.5859L3.66211 25.5859C1.61133 25.5859 0 27.1973 0 29.248C0 31.3477 1.61133 32.959 3.66211 32.959ZM3.66211 58.5449L34.1797 58.5449C36.2793 58.5449 37.9395 56.8848 37.9395 54.834C37.9395 52.7832 36.2793 51.1719 34.1797 51.1719L3.66211 51.1719C1.61133 51.1719 0 52.7832 0 54.834C0 56.8848 1.61133 58.5449 3.66211 58.5449ZM3.66211 84.082L34.1797 84.082C36.2793 84.082 37.9395 82.4707 37.9395 80.4199C37.9395 78.3691 36.2793 76.709 34.1797 76.709L3.66211 76.709C1.61133 76.709 0 78.3691 0 80.4199C0 82.4707 1.61133 84.082 3.66211 84.082Z" fill="#000000" fill-opacity="0.85"/>
  <path d="M53.7598 83.5938L111.572 83.5938C115.625 83.5938 118.213 81.0547 118.213 77.0508L118.213 32.6172C118.213 28.7109 115.625 26.123 111.572 26.123L53.7598 26.123C49.707 26.123 47.1191 28.7109 47.1191 32.6172L47.1191 77.0508C47.1191 81.0547 49.707 83.5938 53.7598 83.5938ZM54.1504 40.0879C53.1738 40.0879 52.5391 39.4043 52.5391 38.4766L52.5391 33.1055C52.5391 32.1289 53.1738 31.4453 54.1504 31.4453L58.7402 31.4453C59.7656 31.4453 60.4004 32.1289 60.4004 33.1055L60.4004 38.4766C60.4004 39.4043 59.7656 40.0879 58.7402 40.0879ZM54.1504 52.7832C53.1738 52.7832 52.5391 52.0996 52.5391 51.2695L52.5391 45.8496C52.5391 44.873 53.1738 44.1895 54.1504 44.1895L58.7402 44.1895C59.7656 44.1895 60.4004 44.873 60.4004 45.8496L60.4004 51.2695C60.4004 52.0996 59.7656 52.7832 58.7402 52.7832ZM54.1504 65.4785C53.1738 65.4785 52.5391 64.8438 52.5391 63.9648L52.5391 58.5449C52.5391 57.5684 53.1738 56.8848 54.1504 56.8848L58.7402 56.8848C59.7656 56.8848 60.4004 57.5684 60.4004 58.5449L60.4004 63.9648C60.4004 64.8438 59.7656 65.4785 58.7402 65.4785ZM54.1504 78.2227C53.1738 78.2227 52.5391 77.5879 52.5391 76.6602L52.5391 71.2402C52.5391 70.2637 53.1738 69.5801 54.1504 69.5801L58.7402 69.5801C59.7656 69.5801 60.4004 70.2637 60.4004 71.2402L60.4004 76.6602C60.4004 77.5879 59.7656 78.2227 58.7402 78.2227ZM106.592 40.0879C105.566 40.0879 104.932 39.4043 104.932 38.4766L104.932 33.1055C104.932 32.1289 105.566 31.4453 106.592 31.4453L111.182 31.4453C112.158 31.4453 112.793 32.1289 112.793 33.1055L112.793 38.4766C112.793 39.4043 112.158 40.0879 111.182 40.0879ZM106.592 52.7832C105.566 52.7832 104.932 52.0996 104.932 51.2695L104.932 45.8496C104.932 44.873 105.566 44.1895 106.592 44.1895L111.182 44.1895C112.158 44.1895 112.793 44.873 112.793 45.8496L112.793 51.2695C112.793 52.0996 112.158 52.7832 111.182 52.7832ZM106.592 65.4785C105.566 65.4785 104.932 64.8438 104.932 63.9648L104.932 58.5449C104.932 57.5684 105.566 56.8848 106.592 56.8848L111.182 56.8848C112.158 56.8848 112.793 57.5684 112.793 58.5449L112.793 63.9648C112.793 64.8438 112.158 65.4785 111.182 65.4785ZM106.592 78.2227C105.566 78.2227 104.932 77.5879 104.932 76.6602L104.932 71.2402C104.932 70.2637 105.566 69.5801 106.592 69.5801L111.182 69.5801C112.158 69.5801 112.793 70.2637 112.793 71.2402L112.793 76.6602C112.793 77.5879 112.158 78.2227 111.182 78.2227ZM67.1875 76.2695C66.2598 76.2695 65.6738 75.6836 65.6738 74.707L65.6738 60.1562C65.6738 59.1309 66.2598 58.5449 67.1875 58.5449L98.1445 58.5449C99.0723 58.5449 99.6582 59.1309 99.6582 60.1562L99.6582 74.707C99.6582 75.6836 99.0723 76.2695 98.1445 76.2695ZM67.1875 51.2207C66.2598 51.2207 65.6738 50.6348 65.6738 49.6582L65.6738 34.9609C65.6738 33.9844 66.2598 33.3984 67.1875 33.3984L98.1445 33.3984C99.0723 33.3984 99.6582 33.9844 99.6582 34.9609L99.6582 49.6582C99.6582 50.6348 99.0723 51.2207 98.1445 51.2207Z" fill="#000000" fill-opacity="0.85"/>
 </g>
</svg>
