<?xml version="1.0" encoding="UTF-8"?>
<!--Generator: Apple Native CoreSVG 232.5-->
<!DOCTYPE svg
PUBLIC "-//W3C//DTD SVG 1.1//EN"
       "http://www.w3.org/Graphics/SVG/1.1/DTD/svg11.dtd">
<svg version="1.1" xmlns="http://www.w3.org/2000/svg" xmlns:xlink="http://www.w3.org/1999/xlink" width="98.3887" height="68.7988">
 <g>
  <rect height="68.7988" opacity="0" width="98.3887" x="0" y="0"/>
  <path d="M32.6172 67.8711L94.4336 67.8711C96.6309 67.8711 98.3887 66.1621 98.3887 63.9648C98.3887 61.7188 96.6309 60.0098 94.4336 60.0098L32.6172 60.0098C30.3711 60.0098 28.6621 61.7188 28.6621 63.9648C28.6621 66.1621 30.3711 67.8711 32.6172 67.8711Z" fill="#000000" fill-opacity="0.85"/>
  <path d="M4.83398 68.7988L13.1836 68.7988C15.8691 68.7988 18.0664 66.6016 18.0664 63.9648C18.0664 61.2305 15.8691 59.082 13.1836 59.082L4.83398 59.082C2.14844 59.082 0 61.2305 0 63.9648C0 66.6016 2.14844 68.7988 4.83398 68.7988Z" fill="#000000" fill-opacity="0.85"/>
  <path d="M32.6172 38.3789L94.4336 38.3789C96.6309 38.3789 98.3887 36.6211 98.3887 34.4238C98.3887 32.2266 96.6309 30.5176 94.4336 30.5176L32.6172 30.5176C30.3711 30.5176 28.6621 32.2266 28.6621 34.4238C28.6621 36.6211 30.3711 38.3789 32.6172 38.3789Z" fill="#000000" fill-opacity="0.85"/>
  <path d="M4.83398 39.3066L13.1836 39.3066C15.8691 39.3066 18.0664 37.1094 18.0664 34.4238C18.0664 31.7383 15.8691 29.5898 13.1836 29.5898L4.83398 29.5898C2.14844 29.5898 0 31.7383 0 34.4238C0 37.1094 2.14844 39.3066 4.83398 39.3066Z" fill="#000000" fill-opacity="0.85"/>
  <path d="M32.6172 8.83789L94.4336 8.83789C96.6309 8.83789 98.3887 7.12891 98.3887 4.93164C98.3887 2.68555 96.6309 0.976562 94.4336 0.976562L32.6172 0.976562C30.3711 0.976562 28.6621 2.68555 28.6621 4.93164C28.6621 7.12891 30.3711 8.83789 32.6172 8.83789Z" fill="#000000" fill-opacity="0.85"/>
  <path d="M4.83398 9.76562L13.1836 9.76562C15.8691 9.76562 18.0664 7.56836 18.0664 4.93164C18.0664 2.19727 15.8691 0.0488281 13.1836 0.0488281L4.83398 0.0488281C2.14844 0.0488281 0 2.19727 0 4.93164C0 7.56836 2.14844 9.76562 4.83398 9.76562Z" fill="#000000" fill-opacity="0.85"/>
 </g>
</svg>
