<?xml version="1.0" encoding="UTF-8"?>
<!--Generator: Apple Native CoreSVG 232.5-->
<!DOCTYPE svg
PUBLIC "-//W3C//DTD SVG 1.1//EN"
       "http://www.w3.org/Graphics/SVG/1.1/DTD/svg11.dtd">
<svg version="1.1" xmlns="http://www.w3.org/2000/svg" xmlns:xlink="http://www.w3.org/1999/xlink" width="93.457" height="91.2598">
 <g>
  <rect height="91.2598" opacity="0" width="93.457" x="0" y="0"/>
  <path d="M11.5234 66.8457C11.5234 63.9648 9.17969 61.5723 6.20117 61.5723C3.32031 61.5723 0.976562 63.9648 0.976562 66.8457C0.976562 69.7754 3.32031 72.0703 6.20117 72.0703C9.17969 72.0703 11.5234 69.7754 11.5234 66.8457ZM11.5234 85.9863C11.5234 83.1055 9.17969 80.6641 6.20117 80.6641C3.32031 80.6641 0.976562 83.1055 0.976562 85.9863C0.976562 88.916 3.32031 91.2598 6.20117 91.2598C9.17969 91.2598 11.5234 88.916 11.5234 85.9863ZM91.6992 66.8457C91.6992 64.6973 89.9414 63.0859 87.5488 63.0859L21.8262 63.0859C19.4336 63.0859 17.6758 64.6973 17.6758 66.8457C17.6758 68.9941 19.4336 70.6543 21.8262 70.6543L87.5488 70.6543C89.9414 70.6543 91.6992 68.9941 91.6992 66.8457ZM91.6992 85.9863C91.6992 83.8379 89.9414 82.2266 87.5488 82.2266L21.8262 82.2266C19.4336 82.2266 17.6758 83.8379 17.6758 85.9863C17.6758 88.1348 19.4336 89.7949 21.8262 89.7949L87.5488 89.7949C89.9414 89.7949 91.6992 88.1348 91.6992 85.9863ZM13.5254 1.17188C3.56445 1.17188 0 5.51758 0 14.9902L0 37.6953C0 47.168 3.56445 51.5137 13.5254 51.5137L79.9316 51.5137C89.8926 51.5137 93.457 47.168 93.457 37.6953L93.457 14.9902C93.457 5.51758 89.8926 1.17188 79.9316 1.17188ZM7.86133 37.9395L7.86133 14.7461C7.86133 10.4004 9.27734 8.49609 13.5742 8.49609L79.8828 8.49609C84.1797 8.49609 85.5957 10.4004 85.5957 14.7461L85.5957 37.9395C85.5957 42.2852 84.1797 44.1895 79.8828 44.1895L13.5742 44.1895C9.27734 44.1895 7.86133 42.2852 7.86133 37.9395Z" fill="#000000" fill-opacity="0.85"/>
 </g>
</svg>
