<?xml version="1.0" encoding="UTF-8"?>
<!--Generator: Apple Native CoreSVG 232.5-->
<!DOCTYPE svg
PUBLIC "-//W3C//DTD SVG 1.1//EN"
       "http://www.w3.org/Graphics/SVG/1.1/DTD/svg11.dtd">
<svg version="1.1" xmlns="http://www.w3.org/2000/svg" xmlns:xlink="http://www.w3.org/1999/xlink" width="98.3887" height="71.4355">
 <g>
  <rect height="71.4355" opacity="0" width="98.3887" x="0" y="0"/>
  <path d="M27.7344 69.1895L94.4336 69.1895C96.6309 69.1895 98.3887 67.4805 98.3887 65.2832C98.3887 63.0371 96.6309 61.3281 94.4336 61.3281L27.7344 61.3281C25.4883 61.3281 23.7793 63.0371 23.7793 65.2832C23.7793 67.4805 25.4883 69.1895 27.7344 69.1895Z" fill="#000000" fill-opacity="0.85"/>
  <path d="M6.15234 71.4355C9.57031 71.4355 12.3047 68.6523 12.3047 65.2832C12.3047 61.8652 9.57031 59.1309 6.15234 59.1309C2.73438 59.1309 0 61.8652 0 65.2832C0 68.6523 2.73438 71.4355 6.15234 71.4355Z" fill="#000000" fill-opacity="0.85"/>
  <path d="M27.7344 39.6973L94.4336 39.6973C96.6309 39.6973 98.3887 37.9395 98.3887 35.7422C98.3887 33.5449 96.6309 31.8359 94.4336 31.8359L27.7344 31.8359C25.4883 31.8359 23.7793 33.5449 23.7793 35.7422C23.7793 37.9395 25.4883 39.6973 27.7344 39.6973Z" fill="#000000" fill-opacity="0.85"/>
  <path d="M6.15234 41.8945C9.57031 41.8945 12.3047 39.1602 12.3047 35.7422C12.3047 32.3242 9.57031 29.5898 6.15234 29.5898C2.73438 29.5898 0 32.3242 0 35.7422C0 39.1602 2.73438 41.8945 6.15234 41.8945Z" fill="#000000" fill-opacity="0.85"/>
  <path d="M27.7344 10.1562L94.4336 10.1562C96.6309 10.1562 98.3887 8.44727 98.3887 6.25C98.3887 4.00391 96.6309 2.29492 94.4336 2.29492L27.7344 2.29492C25.4883 2.29492 23.7793 4.00391 23.7793 6.25C23.7793 8.44727 25.4883 10.1562 27.7344 10.1562Z" fill="#000000" fill-opacity="0.85"/>
  <path d="M6.15234 12.3535C9.57031 12.3535 12.3047 9.61914 12.3047 6.25C12.3047 2.83203 9.57031 0.0976562 6.15234 0.0976562C2.73438 0.0976562 0 2.83203 0 6.25C0 9.61914 2.73438 12.3535 6.15234 12.3535Z" fill="#000000" fill-opacity="0.85"/>
 </g>
</svg>
