<?xml version="1.0" encoding="UTF-8"?>
<!--Generator: Apple Native CoreSVG 232.5-->
<!DOCTYPE svg
PUBLIC "-//W3C//DTD SVG 1.1//EN"
       "http://www.w3.org/Graphics/SVG/1.1/DTD/svg11.dtd">
<svg version="1.1" xmlns="http://www.w3.org/2000/svg" xmlns:xlink="http://www.w3.org/1999/xlink" width="99.6094" height="99.6582">
 <g>
  <rect height="99.6582" opacity="0" width="99.6094" x="0" y="0"/>
  <path d="M49.8047 99.6094C77.0508 99.6094 99.6094 77.002 99.6094 49.8047C99.6094 22.5586 77.002 0 49.7559 0C22.5586 0 0 22.5586 0 49.8047C0 77.002 22.6074 99.6094 49.8047 99.6094ZM49.8047 91.3086C26.7578 91.3086 8.34961 72.8516 8.34961 49.8047C8.34961 26.7578 26.709 8.30078 49.7559 8.30078C72.8027 8.30078 91.3086 26.7578 91.3086 49.8047C91.3086 72.8516 72.8516 91.3086 49.8047 91.3086Z" fill="#000000" fill-opacity="0.85"/>
  <path d="M37.8906 36.6211L74.5117 36.6211C76.1719 36.6211 77.4902 35.3516 77.4902 33.6914C77.4902 31.9824 76.1719 30.7129 74.5117 30.7129L37.8906 30.7129C36.2305 30.7129 34.9609 32.0312 34.9609 33.6914C34.9609 35.3027 36.2793 36.6211 37.8906 36.6211ZM37.8906 68.9453L74.5117 68.9453C76.1719 68.9453 77.4902 67.6758 77.4902 66.0156C77.4902 64.3066 76.1719 63.0371 74.5117 63.0371L37.8906 63.0371C36.2793 63.0371 34.9609 64.4043 34.9609 66.0156C34.9609 67.6758 36.2305 68.9453 37.8906 68.9453ZM37.8906 52.7832L74.5117 52.7832C76.1719 52.7832 77.4902 51.5137 77.4902 49.8535C77.4902 48.1445 76.1719 46.875 74.5117 46.875L37.8906 46.875C36.2793 46.875 34.9609 48.2422 34.9609 49.8535C34.9609 51.4648 36.2793 52.7832 37.8906 52.7832ZM26.123 37.8906C28.418 37.8906 30.3223 35.9375 30.3223 33.6914C30.3223 31.3477 28.4668 29.4922 26.123 29.4922C23.7793 29.4922 21.9238 31.3477 21.9238 33.6914C21.9238 35.9863 23.7793 37.8906 26.123 37.8906ZM26.123 54.0527C28.418 54.0527 30.3223 52.0996 30.3223 49.8535C30.3223 47.5586 28.418 45.6543 26.123 45.6543C23.7793 45.6543 21.9238 47.5098 21.9238 49.8535C21.9238 52.1484 23.7793 54.0527 26.123 54.0527ZM26.123 70.2148C28.4668 70.2148 30.3223 68.3105 30.3223 66.0156C30.3223 63.7207 28.418 61.8164 26.123 61.8164C23.7793 61.8164 21.9238 63.6719 21.9238 66.0156C21.9238 68.3105 23.7793 70.2148 26.123 70.2148Z" fill="#000000" fill-opacity="0.85"/>
 </g>
</svg>
