<?xml version="1.0" encoding="UTF-8"?>
<!--Generator: Apple Native CoreSVG 232.5-->
<!DOCTYPE svg
PUBLIC "-//W3C//DTD SVG 1.1//EN"
       "http://www.w3.org/Graphics/SVG/1.1/DTD/svg11.dtd">
<svg version="1.1" xmlns="http://www.w3.org/2000/svg" xmlns:xlink="http://www.w3.org/1999/xlink" width="115.137" height="89.8926">
 <g>
  <rect height="89.8926" opacity="0" width="115.137" x="0" y="0"/>
  <path d="M115.137 15.1367L115.137 74.8047C115.137 84.8633 110.059 89.8926 99.8047 89.8926L15.332 89.8926C5.12695 89.8926 0 84.8633 0 74.8047L0 15.1367C0 5.07812 5.12695 0 15.332 0L99.8047 0C110.059 0 115.137 5.07812 115.137 15.1367ZM17.4316 68.4082C17.4316 70.9473 19.5801 73.0957 22.0703 73.0957C24.707 73.0957 26.8066 70.9961 26.8066 68.4082C26.8066 65.8203 24.707 63.6719 22.0703 63.6719C19.5801 63.6719 17.4316 65.8691 17.4316 68.4082ZM37.2559 65.2832C35.4492 65.2832 34.082 66.6504 34.082 68.4082C34.082 70.166 35.498 71.582 37.2559 71.582L69.1406 71.582C70.8496 71.582 72.2656 70.166 72.2656 68.4082C72.2656 66.6504 70.8984 65.2832 69.1406 65.2832ZM17.4316 52.2461C17.4316 54.8828 19.5312 56.9336 22.0703 56.9336C24.707 56.9336 26.8066 54.8828 26.8066 52.2461C26.8066 49.707 24.707 47.6074 22.0703 47.6074C19.5312 47.6074 17.4316 49.7559 17.4316 52.2461ZM37.2559 49.1699C35.4492 49.1699 34.082 50.5371 34.082 52.2461C34.082 54.1016 35.4492 55.4688 37.2559 55.4688L94.8242 55.4688C96.6309 55.4688 97.998 54.1016 97.998 52.2461C97.998 50.5371 96.6309 49.1699 94.8242 49.1699ZM17.4316 36.9141C17.4316 39.4531 19.5801 41.6016 22.0703 41.6016C24.707 41.6016 26.8066 39.502 26.8066 36.9141C26.8066 34.2773 24.707 32.2266 22.0703 32.2266C19.5801 32.2266 17.4316 34.3262 17.4316 36.9141ZM37.2559 33.7402C35.498 33.7402 34.082 35.2051 34.082 36.9141C34.082 38.623 35.498 40.0391 37.2559 40.0391L69.1406 40.0391C70.8496 40.0391 72.2656 38.623 72.2656 36.9141C72.2656 35.2051 70.8496 33.7402 69.1406 33.7402ZM17.4316 21.5332C17.4316 24.0234 19.5801 26.2207 22.0703 26.2207C24.707 26.2207 26.8066 24.0723 26.8066 21.5332C26.8066 18.8965 24.707 16.8457 22.0703 16.8457C19.5801 16.8457 17.4316 18.9453 17.4316 21.5332ZM37.2559 18.3105C35.498 18.3105 34.082 19.7266 34.082 21.5332C34.082 23.2422 35.4492 24.6094 37.2559 24.6094L94.8242 24.6094C96.6309 24.6094 97.998 23.2422 97.998 21.5332C97.998 19.7266 96.582 18.3105 94.8242 18.3105Z" fill="#000000" fill-opacity="0.85"/>
 </g>
</svg>
