<?xml version="1.0" encoding="UTF-8"?>
<!--Generator: Apple Native CoreSVG 232.5-->
<!DOCTYPE svg
PUBLIC "-//W3C//DTD SVG 1.1//EN"
       "http://www.w3.org/Graphics/SVG/1.1/DTD/svg11.dtd">
<svg version="1.1" xmlns="http://www.w3.org/2000/svg" xmlns:xlink="http://www.w3.org/1999/xlink" width="98.4083" height="80.6885">
 <g>
  <rect height="80.6885" opacity="0" width="98.4083" x="0" y="0"/>
  <path d="M33.0176 73.8159L94.4922 73.8159C96.6895 73.8159 98.3985 72.1069 98.3985 69.9097C98.3985 67.6636 96.6895 65.9546 94.4922 65.9546L33.0176 65.9546C30.8203 65.9546 29.0625 67.6636 29.0625 69.9097C29.0625 72.1069 30.8203 73.8159 33.0176 73.8159Z" fill="#000000" fill-opacity="0.85"/>
  <path d="M5.67386 77.9175L9.87308 74.8413L13.9258 77.9175C15.3907 79.0405 16.9532 77.8687 16.4161 76.2573L14.8047 71.2769L18.9063 68.2007C20.1758 67.2241 19.6875 65.4663 18.0762 65.4663L12.9493 65.4663L11.2403 60.0952C10.8008 58.728 8.89652 58.6792 8.45707 60.0952L6.74808 65.4663L1.5723 65.4663C-0.0390279 65.4663-0.576137 67.2241 0.742222 68.2007L4.89261 71.2769L3.28128 76.2573C2.74418 77.8687 4.25785 78.9429 5.67386 77.9175Z" fill="#000000" fill-opacity="0.85"/>
  <path d="M33.0176 44.3237L94.4922 44.3237C96.6895 44.3237 98.3985 42.5659 98.3985 40.3687C98.3985 38.1714 96.6895 36.4624 94.4922 36.4624L33.0176 36.4624C30.8203 36.4624 29.0625 38.1714 29.0625 40.3687C29.0625 42.5659 30.8203 44.3237 33.0176 44.3237Z" fill="#000000" fill-opacity="0.85"/>
  <path d="M5.67386 48.3276L9.87308 45.2515L13.9258 48.3276C15.3907 49.4507 16.9532 48.2788 16.4161 46.6675L14.8047 41.687L18.9063 38.6108C20.1758 37.6343 19.6875 35.8765 18.0762 35.8765L12.9493 35.8765L11.2403 30.5054C10.8008 29.1382 8.89652 29.1382 8.45707 30.5054L6.74808 35.8765L1.5723 35.8765C-0.0390279 35.8765-0.576137 37.6343 0.742222 38.6108L4.89261 41.687L3.28128 46.6675C2.74418 48.2788 4.25785 49.353 5.67386 48.3276Z" fill="#000000" fill-opacity="0.85"/>
  <path d="M33.0176 14.7827L94.4922 14.7827C96.6895 14.7827 98.3985 13.0737 98.3985 10.8765C98.3985 8.63037 96.6895 6.92139 94.4922 6.92139L33.0176 6.92139C30.8203 6.92139 29.0625 8.63037 29.0625 10.8765C29.0625 13.0737 30.8203 14.7827 33.0176 14.7827Z" fill="#000000" fill-opacity="0.85"/>
  <path d="M5.67386 18.8843L9.87308 15.8081L13.9258 18.8843C15.3907 19.9585 16.9532 18.8354 16.4161 17.2241L14.8047 12.2437L18.9063 9.16748C20.1758 8.19092 19.6875 6.38428 18.0762 6.38428L12.9493 6.38428L11.2403 1.06201C10.8008-0.354004 8.89652-0.354004 8.45707 1.06201L6.74808 6.38428L1.5723 6.38428C-0.0390279 6.38428-0.576137 8.19092 0.742222 9.16748L4.89261 12.2437L3.28128 17.2241C2.69535 18.8354 4.25785 19.9097 5.67386 18.8843Z" fill="#000000" fill-opacity="0.85"/>
 </g>
</svg>
