<?xml version="1.0" encoding="UTF-8"?>
<!--Generator: Apple Native CoreSVG 232.5-->
<!DOCTYPE svg
PUBLIC "-//W3C//DTD SVG 1.1//EN"
       "http://www.w3.org/Graphics/SVG/1.1/DTD/svg11.dtd">
<svg version="1.1" xmlns="http://www.w3.org/2000/svg" xmlns:xlink="http://www.w3.org/1999/xlink" width="122.754" height="71.4355">
 <g>
  <rect height="71.4355" opacity="0" width="122.754" x="0" y="0"/>
  <path d="M52.0996 69.1895L118.848 69.1895C121.045 69.1895 122.754 67.4805 122.754 65.2832C122.754 63.0371 121.045 61.3281 118.848 61.3281L52.0996 61.3281C49.9023 61.3281 48.1934 63.0371 48.1934 65.2832C48.1934 67.4805 49.9023 69.1895 52.0996 69.1895Z" fill="#000000" fill-opacity="0.85"/>
  <path d="M30.5176 71.4355C33.9355 71.4355 36.6699 68.6523 36.6699 65.2832C36.6699 61.8652 33.9355 59.1309 30.5176 59.1309C27.1484 59.1309 24.3652 61.8652 24.3652 65.2832C24.3652 68.6523 27.1484 71.4355 30.5176 71.4355Z" fill="#000000" fill-opacity="0.85"/>
  <path d="M39.8926 39.6973L106.641 39.6973C108.838 39.6973 110.547 37.9395 110.547 35.7422C110.547 33.5449 108.838 31.8359 106.641 31.8359L39.8926 31.8359C37.6953 31.8359 35.9863 33.5449 35.9863 35.7422C35.9863 37.9395 37.6953 39.6973 39.8926 39.6973Z" fill="#000000" fill-opacity="0.85"/>
  <path d="M18.3594 41.8945C21.7285 41.8945 24.5117 39.1602 24.5117 35.7422C24.5117 32.3242 21.7285 29.5898 18.3594 29.5898C14.9414 29.5898 12.207 32.3242 12.207 35.7422C12.207 39.1602 14.9414 41.8945 18.3594 41.8945Z" fill="#000000" fill-opacity="0.85"/>
  <path d="M27.7344 10.1562L94.4336 10.1562C96.6309 10.1562 98.3887 8.44727 98.3887 6.25C98.3887 4.00391 96.6309 2.29492 94.4336 2.29492L27.7344 2.29492C25.4883 2.29492 23.7793 4.00391 23.7793 6.25C23.7793 8.44727 25.4883 10.1562 27.7344 10.1562Z" fill="#000000" fill-opacity="0.85"/>
  <path d="M6.15234 12.3535C9.57031 12.3535 12.3047 9.61914 12.3047 6.25C12.3047 2.83203 9.57031 0.0976562 6.15234 0.0976562C2.73438 0.0976562 0 2.83203 0 6.25C0 9.61914 2.73438 12.3535 6.15234 12.3535Z" fill="#000000" fill-opacity="0.85"/>
 </g>
</svg>
