<?xml version="1.0" encoding="UTF-8"?>
<!--Generator: Apple Native CoreSVG 232.5-->
<!DOCTYPE svg
PUBLIC "-//W3C//DTD SVG 1.1//EN"
       "http://www.w3.org/Graphics/SVG/1.1/DTD/svg11.dtd">
<svg version="1.1" xmlns="http://www.w3.org/2000/svg" xmlns:xlink="http://www.w3.org/1999/xlink" width="115.137" height="89.8926">
 <g>
  <rect height="89.8926" opacity="0" width="115.137" x="0" y="0"/>
  <path d="M15.332 89.8926L99.8047 89.8926C110.059 89.8926 115.137 84.8633 115.137 74.8047L115.137 15.1367C115.137 5.07812 110.059 0 99.8047 0L15.332 0C5.12695 0 0 5.07812 0 15.1367L0 74.8047C0 84.8633 5.12695 89.8926 15.332 89.8926ZM15.4297 82.0312C10.5469 82.0312 7.86133 79.4434 7.86133 74.3652L7.86133 15.5762C7.86133 10.498 10.5469 7.86133 15.4297 7.86133L99.707 7.86133C104.541 7.86133 107.275 10.498 107.275 15.5762L107.275 74.3652C107.275 79.4434 104.541 82.0312 99.707 82.0312Z" fill="#000000" fill-opacity="0.85"/>
  <path d="M24.4141 27.832L30.3223 27.832C32.373 27.832 34.082 26.123 34.082 24.0723C34.082 22.0215 32.3242 20.3125 30.3223 20.3125L24.4141 20.3125C22.3145 20.3125 20.7031 22.0215 20.7031 24.0723C20.7031 26.123 22.3633 27.832 24.4141 27.832ZM24.4141 44.0918L30.3223 44.0918C32.3242 44.0918 34.082 42.4316 34.082 40.3809C34.082 38.3301 32.373 36.6699 30.3223 36.6699L24.4141 36.6699C22.3145 36.6699 20.7031 38.3301 20.7031 40.3809C20.7031 42.4316 22.3145 44.0918 24.4141 44.0918ZM43.9941 27.1484L91.3574 27.1484C93.0664 27.1484 94.3848 25.7812 94.3848 24.0723C94.3848 22.3633 93.0664 21.0449 91.3574 21.0449L43.9941 21.0449C42.2852 21.0449 40.9668 22.3633 40.9668 24.0723C40.9668 25.7812 42.2852 27.1484 43.9941 27.1484ZM43.9941 43.457L91.3574 43.457C93.0664 43.457 94.3848 42.1387 94.3848 40.3809C94.3848 38.6719 93.0664 37.3047 91.3574 37.3047L43.9941 37.3047C42.334 37.3047 40.9668 38.623 40.9668 40.3809C40.9668 42.0898 42.2852 43.457 43.9941 43.457Z" fill="#000000" fill-opacity="0.85"/>
 </g>
</svg>
