<?xml version="1.0" encoding="UTF-8"?>
<!--Generator: Apple Native CoreSVG 232.5-->
<!DOCTYPE svg
PUBLIC "-//W3C//DTD SVG 1.1//EN"
       "http://www.w3.org/Graphics/SVG/1.1/DTD/svg11.dtd">
<svg version="1.1" xmlns="http://www.w3.org/2000/svg" xmlns:xlink="http://www.w3.org/1999/xlink" width="98.3887" height="84.1309">
 <g>
  <rect height="84.1309" opacity="0" width="98.3887" x="0" y="0"/>
  <path d="M30.0293 75.5371L94.4336 75.5371C96.6309 75.5371 98.3887 73.8281 98.3887 71.6309C98.3887 69.3848 96.6309 67.6758 94.4336 67.6758L30.0293 67.6758C27.832 67.6758 26.0742 69.3848 26.0742 71.6309C26.0742 73.8281 27.832 75.5371 30.0293 75.5371Z" fill="#000000" fill-opacity="0.85"/>
  <path d="M8.54492 82.2754C14.3555 82.2754 17.7734 79.6875 17.7734 75.5859C17.7734 72.9004 15.918 71.0449 12.5488 70.752L12.5488 70.6055C14.9902 70.166 16.9434 68.5059 16.9434 65.6738C16.9434 61.9629 13.3301 59.9121 8.49609 59.9121C4.6875 59.9121 0.537109 61.7188 0.537109 64.9414C0.537109 66.3086 1.51367 67.2852 3.02734 67.2852C4.10156 67.2852 4.58984 66.8457 5.27344 66.1133C6.39648 64.8926 7.27539 64.502 8.49609 64.502C10.0098 64.502 11.1328 65.2344 11.1328 66.6992C11.1328 68.0664 9.96094 68.75 7.95898 68.75L7.42188 68.75C6.05469 68.75 5.17578 69.4336 5.17578 70.8496C5.17578 72.168 6.00586 72.9492 7.42188 72.9492L8.05664 72.9492C10.2539 72.9492 11.4258 73.6816 11.4258 75.1953C11.4258 76.5137 10.2051 77.4902 8.54492 77.4902C6.83594 77.4902 5.61523 76.5137 4.6875 75.5859C4.10156 75.0488 3.61328 74.6582 2.68555 74.6582C1.12305 74.6582 0 75.5859 0 77.0996C0 80.4688 4.58984 82.2754 8.54492 82.2754Z" fill="#000000" fill-opacity="0.85"/>
  <path d="M30.0293 46.0449L94.4336 46.0449C96.6309 46.0449 98.3887 44.2871 98.3887 42.0898C98.3887 39.8926 96.6309 38.1836 94.4336 38.1836L30.0293 38.1836C27.832 38.1836 26.0742 39.8926 26.0742 42.0898C26.0742 44.2871 27.832 46.0449 30.0293 46.0449Z" fill="#000000" fill-opacity="0.85"/>
  <path d="M2.7832 51.8555L15.332 51.8555C16.6504 51.8555 17.6758 50.9277 17.6758 49.5605C17.6758 48.0957 16.6992 47.168 15.332 47.168L8.34961 47.168L8.34961 47.0215L12.3535 43.7988C15.6738 41.0645 16.9922 39.502 16.9922 36.6211C16.9922 32.7148 13.7207 30.0781 8.44727 30.0781C3.75977 30.0781 0.390625 32.5195 0.390625 35.6445C0.390625 37.207 1.41602 38.0371 3.07617 38.0371C4.19922 38.0371 4.93164 37.6953 5.61523 36.5723C6.29883 35.4004 7.17773 34.7656 8.54492 34.7656C9.96094 34.7656 10.9863 35.6934 10.9863 37.0605C10.9863 38.2324 10.4004 39.2578 7.86133 41.2598L1.46484 46.5332C0.488281 47.3145 0.0976562 48.1934 0.0976562 49.2676C0.0976562 50.7812 1.17188 51.8555 2.7832 51.8555Z" fill="#000000" fill-opacity="0.85"/>
  <path d="M30.0293 16.5039L94.4336 16.5039C96.6309 16.5039 98.3887 14.7949 98.3887 12.5977C98.3887 10.3516 96.6309 8.64258 94.4336 8.64258L30.0293 8.64258C27.832 8.64258 26.0742 10.3516 26.0742 12.5977C26.0742 14.7949 27.832 16.5039 30.0293 16.5039Z" fill="#000000" fill-opacity="0.85"/>
  <path d="M10.6445 22.4121C12.5 22.4121 13.8184 21.3379 13.8184 19.1406L13.8184 3.36914C13.8184 1.31836 12.3535 0 10.2051 0C8.49609 0 7.42188 0.585938 6.20117 1.41602L2.73438 3.80859C1.75781 4.49219 1.2207 5.12695 1.2207 6.15234C1.2207 7.42188 2.19727 8.30078 3.32031 8.30078C3.95508 8.30078 4.24805 8.20312 5.07812 7.61719L7.32422 6.10352L7.42188 6.10352L7.42188 19.1406C7.42188 21.3379 8.69141 22.4121 10.6445 22.4121Z" fill="#000000" fill-opacity="0.85"/>
 </g>
</svg>
