<?xml version="1.0" encoding="UTF-8"?>
<!--Generator: Apple Native CoreSVG 232.5-->
<!DOCTYPE svg
PUBLIC "-//W3C//DTD SVG 1.1//EN"
       "http://www.w3.org/Graphics/SVG/1.1/DTD/svg11.dtd">
<svg version="1.1" xmlns="http://www.w3.org/2000/svg" xmlns:xlink="http://www.w3.org/1999/xlink" width="109.155" height="109.094">
 <g>
  <rect height="109.094" opacity="0" width="109.155" x="0" y="0"/>
  <path d="M57.0435 106.183C57.0435 107.55 55.9204 108.673 54.5532 108.673C53.1372 108.673 52.0142 107.55 52.0142 106.183C52.0142 104.767 53.1372 103.644 54.5532 103.644C55.9204 103.644 57.0435 104.767 57.0435 106.183ZM48.0591 105.353C48.0591 106.769 46.936 107.843 45.52 107.843C44.1528 107.843 43.0298 106.769 43.0298 105.353C43.0298 103.937 44.1528 102.863 45.52 102.863C46.936 102.863 48.0591 103.937 48.0591 105.353ZM66.0278 105.353C66.0278 106.769 64.9048 107.843 63.5376 107.843C62.1216 107.843 61.0474 106.769 61.0474 105.353C61.0474 103.937 62.1216 102.863 63.5376 102.863C64.9048 102.863 66.0278 103.937 66.0278 105.353ZM74.7192 103.058C74.7192 104.425 73.5962 105.548 72.229 105.548C70.813 105.548 69.6899 104.425 69.6899 103.058C69.6899 101.642 70.813 100.519 72.229 100.519C73.5962 100.519 74.7192 101.642 74.7192 103.058ZM39.3677 103.058C39.3677 104.425 38.2446 105.548 36.8286 105.548C35.4614 105.548 34.3384 104.425 34.3384 103.058C34.3384 101.642 35.4614 100.519 36.8286 100.519C38.2446 100.519 39.3677 101.642 39.3677 103.058ZM82.9224 99.1516C82.9224 100.568 81.7993 101.642 80.3833 101.642C79.0161 101.642 77.8931 100.568 77.8931 99.1516C77.8931 97.7356 79.0161 96.6614 80.3833 96.6614C81.7993 96.6614 82.9224 97.7356 82.9224 99.1516ZM31.1646 99.1516C31.1646 100.568 30.0415 101.642 28.6743 101.642C27.2583 101.642 26.1841 100.568 26.1841 99.1516C26.1841 97.7356 27.2583 96.6614 28.6743 96.6614C30.0415 96.6614 31.1646 97.7356 31.1646 99.1516ZM23.7915 94.0247C23.7915 95.3919 22.6685 96.5149 21.3013 96.5149C19.8853 96.5149 18.7622 95.3919 18.7622 94.0247C18.7622 92.6087 19.8853 91.4856 21.3013 91.4856C22.6685 91.4856 23.7915 92.6087 23.7915 94.0247ZM17.395 87.6282C17.395 89.0442 16.3208 90.1184 14.9048 90.1184C13.4888 90.1184 12.4146 89.0442 12.4146 87.6282C12.4146 86.2122 13.4888 85.138 14.9048 85.138C16.3208 85.138 17.395 86.2122 17.395 87.6282ZM101.868 80.2063C101.868 81.6223 100.745 82.6966 99.3286 82.6966C97.9614 82.6966 96.8384 81.6223 96.8384 80.2063C96.8384 78.7903 97.9614 77.7161 99.3286 77.7161C100.745 77.7161 101.868 78.7903 101.868 80.2063ZM12.2192 80.2063C12.2192 81.6223 11.0962 82.6966 9.729 82.6966C8.31299 82.6966 7.18994 81.6223 7.18994 80.2063C7.18994 78.7903 8.31299 77.7161 9.729 77.7161C11.0962 77.7161 12.2192 78.7903 12.2192 80.2063ZM105.627 72.052C105.627 73.468 104.553 74.5911 103.137 74.5911C101.721 74.5911 100.647 73.468 100.647 72.052C100.647 70.6848 101.721 69.5618 103.137 69.5618C104.553 69.5618 105.627 70.6848 105.627 72.052ZM8.41064 72.052C8.41064 73.468 7.33643 74.5911 5.92041 74.5911C4.50439 74.5911 3.43018 73.468 3.43018 72.052C3.43018 70.6848 4.50439 69.5618 5.92041 69.5618C7.33643 69.5618 8.41064 70.6848 8.41064 72.052ZM107.922 63.4095C107.922 64.8255 106.848 65.8997 105.432 65.8997C104.065 65.8997 102.942 64.8255 102.942 63.4095C102.942 61.9934 104.065 60.9192 105.432 60.9192C106.848 60.9192 107.922 61.9934 107.922 63.4095ZM6.11572 63.4095C6.11572 64.8255 5.0415 65.8997 3.62549 65.8997C2.20947 65.8997 1.13525 64.8255 1.13525 63.4095C1.13525 61.9934 2.20947 60.9192 3.62549 60.9192C5.0415 60.9192 6.11572 61.9934 6.11572 63.4095ZM108.752 54.5227C108.752 55.9388 107.629 57.013 106.213 57.013C104.846 57.013 103.723 55.9388 103.723 54.5227C103.723 53.1067 104.846 52.0325 106.213 52.0325C107.629 52.0325 108.752 53.1067 108.752 54.5227ZM5.33447 54.5227C5.33447 55.9388 4.26025 57.013 2.84424 57.013C1.42822 57.013 0.354004 55.9388 0.354004 54.5227C0.354004 53.1067 1.42822 52.0325 2.84424 52.0325C4.26025 52.0325 5.33447 53.1067 5.33447 54.5227ZM107.922 45.636C107.922 47.052 106.848 48.1263 105.432 48.1263C104.065 48.1263 102.942 47.052 102.942 45.636C102.942 44.22 104.065 43.1458 105.432 43.1458C106.848 43.1458 107.922 44.22 107.922 45.636ZM6.11572 45.636C6.11572 47.052 5.0415 48.1263 3.62549 48.1263C2.20947 48.1263 1.13525 47.052 1.13525 45.636C1.13525 44.22 2.20947 43.1458 3.62549 43.1458C5.0415 43.1458 6.11572 44.22 6.11572 45.636ZM105.627 36.9446C105.627 38.3606 104.553 39.4837 103.137 39.4837C101.721 39.4837 100.647 38.3606 100.647 36.9446C100.647 35.5774 101.721 34.4544 103.137 34.4544C104.553 34.4544 105.627 35.5774 105.627 36.9446ZM8.41064 36.9446C8.41064 38.3606 7.33643 39.4837 5.92041 39.4837C4.50439 39.4837 3.43018 38.3606 3.43018 36.9446C3.43018 35.5774 4.50439 34.4544 5.92041 34.4544C7.33643 34.4544 8.41064 35.5774 8.41064 36.9446ZM101.868 28.8391C101.868 30.2063 100.745 31.3294 99.3286 31.3294C97.9614 31.3294 96.8384 30.2063 96.8384 28.8391C96.8384 27.4231 97.9614 26.3001 99.3286 26.3001C100.745 26.3001 101.868 27.4231 101.868 28.8391ZM12.2192 28.8391C12.2192 30.2063 11.0962 31.3294 9.729 31.3294C8.31299 31.3294 7.18994 30.2063 7.18994 28.8391C7.18994 27.4231 8.31299 26.3001 9.729 26.3001C11.0962 26.3001 12.2192 27.4231 12.2192 28.8391ZM96.6919 21.4173C96.6919 22.7845 95.5688 23.9075 94.1528 23.9075C92.7856 23.9075 91.6626 22.7845 91.6626 21.4173C91.6626 20.0013 92.7856 18.8782 94.1528 18.8782C95.5688 18.8782 96.6919 20.0013 96.6919 21.4173ZM90.2954 15.0208C90.2954 16.4368 89.1724 17.511 87.7563 17.511C86.3892 17.511 85.2661 16.4368 85.2661 15.0208C85.2661 13.6048 86.3892 12.5305 87.7563 12.5305C89.1724 12.5305 90.2954 13.6048 90.2954 15.0208ZM82.9224 9.89383C82.9224 11.261 81.7993 12.3841 80.3833 12.3841C79.0161 12.3841 77.8931 11.261 77.8931 9.89383C77.8931 8.47781 79.0161 7.35477 80.3833 7.35477C81.7993 7.35477 82.9224 8.47781 82.9224 9.89383ZM31.1646 9.89383C31.1646 11.261 30.0415 12.3841 28.6743 12.3841C27.2583 12.3841 26.1841 11.261 26.1841 9.89383C26.1841 8.47781 27.2583 7.35477 28.6743 7.35477C30.0415 7.35477 31.1646 8.47781 31.1646 9.89383ZM74.7192 5.98758C74.7192 7.40359 73.5962 8.47781 72.229 8.47781C70.813 8.47781 69.6899 7.40359 69.6899 5.98758C69.6899 4.57156 70.813 3.49734 72.229 3.49734C73.5962 3.49734 74.7192 4.57156 74.7192 5.98758ZM39.3677 5.98758C39.3677 7.40359 38.2446 8.47781 36.8286 8.47781C35.4614 8.47781 34.3384 7.40359 34.3384 5.98758C34.3384 4.57156 35.4614 3.49734 36.8286 3.49734C38.2446 3.49734 39.3677 4.57156 39.3677 5.98758ZM66.0278 3.69266C66.0278 5.05984 64.9048 6.18289 63.5376 6.18289C62.1216 6.18289 61.0474 5.05984 61.0474 3.69266C61.0474 2.27664 62.1216 1.15359 63.5376 1.15359C64.9048 1.15359 66.0278 2.27664 66.0278 3.69266ZM48.0591 3.69266C48.0591 5.05984 46.936 6.18289 45.52 6.18289C44.1528 6.18289 43.0298 5.05984 43.0298 3.69266C43.0298 2.27664 44.1528 1.15359 45.52 1.15359C46.936 1.15359 48.0591 2.27664 48.0591 3.69266ZM57.0435 2.86258C57.0435 4.27859 55.9204 5.35281 54.5532 5.35281C53.1372 5.35281 52.0142 4.27859 52.0142 2.86258C52.0142 1.44656 53.1372 0.372345 54.5532 0.372345C55.9204 0.372345 57.0435 1.44656 57.0435 2.86258Z" fill="#000000" fill-opacity="0.85"/>
  <path d="M24.2599 37.6339C21.4657 42.6199 19.8853 48.3813 19.8853 54.5227C19.8853 73.8587 35.2173 89.1907 54.5532 89.1907C60.7085 89.1907 66.4769 87.5981 71.463 84.7859L74.9127 88.2318C68.9924 91.8625 62.0166 93.927 54.5532 93.927C32.5806 93.927 15.1001 76.4466 15.1001 54.5227C15.1001 47.0519 17.1538 40.073 20.7727 34.1504ZM93.9575 54.5227C93.9575 61.9764 91.9018 68.9346 88.2893 74.8408L84.8215 71.3749C87.5998 66.3967 89.1724 60.6488 89.1724 54.5227C89.1724 35.3821 73.645 19.8548 54.5532 19.8548C48.4008 19.8548 42.6379 21.4378 37.6539 24.2329L34.1665 20.7473C40.0821 17.1282 47.061 15.0696 54.5532 15.0696C76.2329 15.0696 93.9575 32.843 93.9575 54.5227Z" fill="#000000" fill-opacity="0.85"/>
  <path d="M60.4651 73.7998C58.5983 74.3785 56.6129 74.6888 54.5532 74.6888C43.3716 74.6888 34.4849 65.7532 34.4849 54.6204C34.4849 52.5648 34.7895 50.584 35.3604 48.7223ZM74.5728 54.6204C74.5728 56.5972 74.2885 58.5072 73.7472 60.3066L48.814 35.387C50.6274 34.8399 52.5549 34.552 54.5532 34.552C65.6372 34.552 74.5728 43.5364 74.5728 54.6204Z" fill="#000000" fill-opacity="0.85"/>
  <path d="M96.9849 102.228C98.4009 103.644 100.891 103.693 102.307 102.228C103.772 100.763 103.772 98.3704 102.307 96.9055L12.1704 6.81766C10.7056 5.35281 8.26416 5.30399 6.79932 6.81766C5.3833 8.23367 5.3833 10.7239 6.79932 12.1399Z" fill="#000000" fill-opacity="0.85"/>
 </g>
</svg>
