<?xml version="1.0" encoding="UTF-8"?>
<!--Generator: Apple Native CoreSVG 232.5-->
<!DOCTYPE svg
PUBLIC "-//W3C//DTD SVG 1.1//EN"
       "http://www.w3.org/Graphics/SVG/1.1/DTD/svg11.dtd">
<svg version="1.1" xmlns="http://www.w3.org/2000/svg" xmlns:xlink="http://www.w3.org/1999/xlink" width="108.398" height="108.35">
 <g>
  <rect height="108.35" opacity="0" width="108.398" x="0" y="0"/>
  <path d="M54.1992 4.98047C55.6152 4.98047 56.6895 3.90625 56.6895 2.49023C56.6895 1.07422 55.6152 0 54.1992 0C52.7832 0 51.709 1.07422 51.709 2.49023C51.709 3.90625 52.7832 4.98047 54.1992 4.98047ZM63.1836 5.81055C64.5996 5.81055 65.7227 4.6875 65.7227 3.32031C65.7227 1.9043 64.5996 0.78125 63.1836 0.78125C61.8164 0.78125 60.6934 1.9043 60.6934 3.32031C60.6934 4.6875 61.8164 5.81055 63.1836 5.81055ZM71.875 8.10547C73.291 8.10547 74.3652 7.03125 74.3652 5.61523C74.3652 4.19922 73.291 3.125 71.875 3.125C70.459 3.125 69.3848 4.19922 69.3848 5.61523C69.3848 7.03125 70.459 8.10547 71.875 8.10547ZM80.0781 12.0117C81.4453 12.0117 82.5684 10.8887 82.5684 9.52148C82.5684 8.10547 81.4453 6.98242 80.0781 6.98242C78.6621 6.98242 77.5391 8.10547 77.5391 9.52148C77.5391 10.8887 78.6621 12.0117 80.0781 12.0117ZM87.4512 17.1387C88.8672 17.1387 89.9414 16.0645 89.9414 14.6484C89.9414 13.2324 88.8672 12.1582 87.4512 12.1582C86.0352 12.1582 84.9609 13.2324 84.9609 14.6484C84.9609 16.0645 86.0352 17.1387 87.4512 17.1387ZM93.8477 23.5352C95.2148 23.5352 96.3379 22.4121 96.3379 21.0449C96.3379 19.6289 95.2148 18.5059 93.8477 18.5059C92.4316 18.5059 91.3086 19.6289 91.3086 21.0449C91.3086 22.4121 92.4316 23.5352 93.8477 23.5352ZM99.0234 30.957C100.439 30.957 101.514 29.834 101.514 28.4668C101.514 27.0508 100.439 25.9277 99.0234 25.9277C97.6074 25.9277 96.5332 27.0508 96.5332 28.4668C96.5332 29.834 97.6074 30.957 99.0234 30.957ZM102.783 39.1113C104.199 39.1113 105.322 37.9883 105.322 36.5723C105.322 35.2051 104.199 34.082 102.783 34.082C101.416 34.082 100.293 35.2051 100.293 36.5723C100.293 37.9883 101.416 39.1113 102.783 39.1113ZM105.127 47.7539C106.494 47.7539 107.617 46.6797 107.617 45.2637C107.617 43.8477 106.494 42.7734 105.127 42.7734C103.711 42.7734 102.588 43.8477 102.588 45.2637C102.588 46.6797 103.711 47.7539 105.127 47.7539ZM105.908 56.6406C107.275 56.6406 108.398 55.5664 108.398 54.1504C108.398 52.7344 107.275 51.6602 105.908 51.6602C104.492 51.6602 103.369 52.7344 103.369 54.1504C103.369 55.5664 104.492 56.6406 105.908 56.6406ZM105.127 65.5273C106.494 65.5273 107.617 64.4531 107.617 63.0371C107.617 61.6211 106.494 60.5469 105.127 60.5469C103.711 60.5469 102.588 61.6211 102.588 63.0371C102.588 64.4531 103.711 65.5273 105.127 65.5273ZM102.783 74.2188C104.199 74.2188 105.322 73.0957 105.322 71.6797C105.322 70.3125 104.199 69.1895 102.783 69.1895C101.416 69.1895 100.293 70.3125 100.293 71.6797C100.293 73.0957 101.416 74.2188 102.783 74.2188ZM99.0234 82.3242C100.439 82.3242 101.514 81.25 101.514 79.834C101.514 78.418 100.439 77.3438 99.0234 77.3438C97.6074 77.3438 96.5332 78.418 96.5332 79.834C96.5332 81.25 97.6074 82.3242 99.0234 82.3242ZM93.8477 89.7461C95.2148 89.7461 96.3379 88.6719 96.3379 87.2559C96.3379 85.8398 95.2148 84.7656 93.8477 84.7656C92.4316 84.7656 91.3086 85.8398 91.3086 87.2559C91.3086 88.6719 92.4316 89.7461 93.8477 89.7461ZM87.4512 96.1426C88.8672 96.1426 89.9414 95.0195 89.9414 93.6523C89.9414 92.2363 88.8672 91.1133 87.4512 91.1133C86.0352 91.1133 84.9609 92.2363 84.9609 93.6523C84.9609 95.0195 86.0352 96.1426 87.4512 96.1426ZM80.0781 101.27C81.4453 101.27 82.5684 100.195 82.5684 98.7793C82.5684 97.3633 81.4453 96.2891 80.0781 96.2891C78.6621 96.2891 77.5391 97.3633 77.5391 98.7793C77.5391 100.195 78.6621 101.27 80.0781 101.27ZM71.875 105.176C73.291 105.176 74.3652 104.053 74.3652 102.686C74.3652 101.27 73.291 100.146 71.875 100.146C70.459 100.146 69.3848 101.27 69.3848 102.686C69.3848 104.053 70.459 105.176 71.875 105.176ZM63.1836 107.471C64.5996 107.471 65.7227 106.396 65.7227 104.98C65.7227 103.564 64.5996 102.49 63.1836 102.49C61.8164 102.49 60.6934 103.564 60.6934 104.98C60.6934 106.396 61.8164 107.471 63.1836 107.471ZM54.1992 108.301C55.6152 108.301 56.6895 107.178 56.6895 105.811C56.6895 104.395 55.6152 103.271 54.1992 103.271C52.7832 103.271 51.709 104.395 51.709 105.811C51.709 107.178 52.7832 108.301 54.1992 108.301ZM45.2148 107.471C46.582 107.471 47.7051 106.396 47.7051 104.98C47.7051 103.564 46.582 102.49 45.2148 102.49C43.7988 102.49 42.6758 103.564 42.6758 104.98C42.6758 106.396 43.7988 107.471 45.2148 107.471ZM36.5234 105.176C37.9395 105.176 39.0137 104.053 39.0137 102.686C39.0137 101.27 37.9395 100.146 36.5234 100.146C35.1074 100.146 34.0332 101.27 34.0332 102.686C34.0332 104.053 35.1074 105.176 36.5234 105.176ZM28.3203 101.27C29.7363 101.27 30.8594 100.195 30.8594 98.7793C30.8594 97.3633 29.7363 96.2891 28.3203 96.2891C26.9531 96.2891 25.8301 97.3633 25.8301 98.7793C25.8301 100.195 26.9531 101.27 28.3203 101.27ZM20.9473 96.1426C22.3633 96.1426 23.4375 95.0195 23.4375 93.6523C23.4375 92.2363 22.3633 91.1133 20.9473 91.1133C19.5312 91.1133 18.457 92.2363 18.457 93.6523C18.457 95.0195 19.5312 96.1426 20.9473 96.1426ZM14.5508 89.7461C15.9668 89.7461 17.0898 88.6719 17.0898 87.2559C17.0898 85.8398 15.9668 84.7656 14.5508 84.7656C13.1836 84.7656 12.0605 85.8398 12.0605 87.2559C12.0605 88.6719 13.1836 89.7461 14.5508 89.7461ZM9.375 82.3242C10.791 82.3242 11.8652 81.25 11.8652 79.834C11.8652 78.418 10.791 77.3438 9.375 77.3438C7.95898 77.3438 6.88477 78.418 6.88477 79.834C6.88477 81.25 7.95898 82.3242 9.375 82.3242ZM5.61523 74.2188C6.98242 74.2188 8.10547 73.0957 8.10547 71.6797C8.10547 70.3125 6.98242 69.1895 5.61523 69.1895C4.19922 69.1895 3.07617 70.3125 3.07617 71.6797C3.07617 73.0957 4.19922 74.2188 5.61523 74.2188ZM3.27148 65.5273C4.6875 65.5273 5.81055 64.4531 5.81055 63.0371C5.81055 61.6211 4.6875 60.5469 3.27148 60.5469C1.9043 60.5469 0.78125 61.6211 0.78125 63.0371C0.78125 64.4531 1.9043 65.5273 3.27148 65.5273ZM2.49023 56.6406C3.90625 56.6406 5.0293 55.5664 5.0293 54.1504C5.0293 52.7344 3.90625 51.6602 2.49023 51.6602C1.12305 51.6602 0 52.7344 0 54.1504C0 55.5664 1.12305 56.6406 2.49023 56.6406ZM3.27148 47.7539C4.6875 47.7539 5.81055 46.6797 5.81055 45.2637C5.81055 43.8477 4.6875 42.7734 3.27148 42.7734C1.9043 42.7734 0.78125 43.8477 0.78125 45.2637C0.78125 46.6797 1.9043 47.7539 3.27148 47.7539ZM5.61523 39.1113C6.98242 39.1113 8.10547 37.9883 8.10547 36.5723C8.10547 35.2051 6.98242 34.082 5.61523 34.082C4.19922 34.082 3.07617 35.2051 3.07617 36.5723C3.07617 37.9883 4.19922 39.1113 5.61523 39.1113ZM9.375 30.957C10.791 30.957 11.8652 29.834 11.8652 28.4668C11.8652 27.0508 10.791 25.9277 9.375 25.9277C7.95898 25.9277 6.88477 27.0508 6.88477 28.4668C6.88477 29.834 7.95898 30.957 9.375 30.957ZM14.5508 23.5352C15.9668 23.5352 17.0898 22.4121 17.0898 21.0449C17.0898 19.6289 15.9668 18.5059 14.5508 18.5059C13.1836 18.5059 12.0605 19.6289 12.0605 21.0449C12.0605 22.4121 13.1836 23.5352 14.5508 23.5352ZM20.9473 17.1387C22.3633 17.1387 23.4375 16.0645 23.4375 14.6484C23.4375 13.2324 22.3633 12.1582 20.9473 12.1582C19.5312 12.1582 18.457 13.2324 18.457 14.6484C18.457 16.0645 19.5312 17.1387 20.9473 17.1387ZM28.3203 12.0117C29.7363 12.0117 30.8594 10.8887 30.8594 9.52148C30.8594 8.10547 29.7363 6.98242 28.3203 6.98242C26.9531 6.98242 25.8301 8.10547 25.8301 9.52148C25.8301 10.8887 26.9531 12.0117 28.3203 12.0117ZM36.5234 8.10547C37.9395 8.10547 39.0137 7.03125 39.0137 5.61523C39.0137 4.19922 37.9395 3.125 36.5234 3.125C35.1074 3.125 34.0332 4.19922 34.0332 5.61523C34.0332 7.03125 35.1074 8.10547 36.5234 8.10547ZM45.2148 5.81055C46.582 5.81055 47.7051 4.6875 47.7051 3.32031C47.7051 1.9043 46.582 0.78125 45.2148 0.78125C43.7988 0.78125 42.6758 1.9043 42.6758 3.32031C42.6758 4.6875 43.7988 5.81055 45.2148 5.81055Z" fill="#000000" fill-opacity="0.85"/>
  <path d="M54.1992 93.5547C75.9766 93.5547 93.6523 75.9766 93.6523 54.1504C93.6523 32.4707 75.8789 14.6973 54.1992 14.6973C32.3242 14.6973 14.7461 32.3242 14.7461 54.1504C14.7461 76.0742 32.2754 93.5547 54.1992 93.5547ZM54.1992 88.8184C34.8633 88.8184 19.5312 73.4863 19.5312 54.1504C19.5312 34.9609 35.0098 19.4824 54.1992 19.4824C73.3398 19.4824 88.8672 35.0098 88.8672 54.1504C88.8672 73.3398 73.3887 88.8184 54.1992 88.8184Z" fill="#000000" fill-opacity="0.85"/>
  <path d="M54.1992 74.3164C65.332 74.3164 74.2676 65.332 74.2676 54.248C74.2676 43.1641 65.2832 34.1797 54.1992 34.1797C43.0664 34.1797 34.1309 43.1152 34.1309 54.248C34.1309 65.3809 43.0176 74.3164 54.1992 74.3164ZM54.1992 65.0879C48.1934 65.0879 43.3594 60.2539 43.3594 54.248C43.3594 48.2422 48.1934 43.4082 54.1992 43.4082C60.1562 43.4082 65.0391 48.291 65.0391 54.248C65.0391 60.2539 60.2051 65.0879 54.1992 65.0879Z" fill="#000000" fill-opacity="0.85"/>
 </g>
</svg>
