<?xml version="1.0" encoding="UTF-8"?>
<!--Generator: Apple Native CoreSVG 232.5-->
<!DOCTYPE svg
PUBLIC "-//W3C//DTD SVG 1.1//EN"
       "http://www.w3.org/Graphics/SVG/1.1/DTD/svg11.dtd">
<svg version="1.1" xmlns="http://www.w3.org/2000/svg" xmlns:xlink="http://www.w3.org/1999/xlink" width="99.6094" height="99.6582">
 <g>
  <rect height="99.6582" opacity="0" width="99.6094" x="0" y="0"/>
  <path d="M49.8047 99.6094C77.0508 99.6094 99.6094 77.002 99.6094 49.8047C99.6094 22.5586 77.002 0 49.7559 0C22.5586 0 0 22.5586 0 49.8047C0 77.002 22.6074 99.6094 49.8047 99.6094ZM49.8047 91.3086C26.7578 91.3086 8.34961 72.8516 8.34961 49.8047C8.34961 26.7578 26.709 8.30078 49.7559 8.30078C72.8027 8.30078 91.3086 26.7578 91.3086 49.8047C91.3086 72.8516 72.8516 91.3086 49.8047 91.3086Z" fill="#000000" fill-opacity="0.85"/>
  <path d="M53.7598 76.5137C69.5801 76.5137 77.3926 62.2559 77.3926 54.4922C77.3926 51.7578 74.0723 51.6602 73.7305 54.1992C72.5586 63.5742 65.1855 70.2148 56.9336 70.2148C51.9531 70.2148 47.5098 68.0664 44.7266 64.6973L47.4121 60.4004L50.5859 61.5234L50.8301 65.918C51.0254 67.7734 53.9551 67.5293 53.5156 65.2832C53.2715 64.209 54.4434 63.5742 55.3711 64.2578C56.9336 65.4785 58.3984 62.6465 56.7383 61.9141C55.7129 61.4746 55.9082 60.1562 57.0312 59.7656C58.8379 59.1797 57.8613 56.4453 56.1035 57.3242L52.5391 58.9355L48.0469 56.0547C46.8262 55.2246 45.2148 55.4688 44.3359 56.6406L41.9922 59.8145C41.6504 58.5449 41.4062 57.1777 41.4062 55.8105C41.4062 51.6113 42.9199 47.3633 45.459 44.2383L45.5078 47.0703C45.5078 48.6328 46.6797 49.6582 48.1445 49.7559L53.418 50L55.3223 53.5156C56.2988 55.2734 58.6914 53.6133 57.6172 52.0508C56.8848 51.0742 57.5684 49.9512 58.6426 50.1953C60.4004 50.5371 60.8398 47.4121 58.8379 47.4609C57.7148 47.4609 57.1777 46.2891 58.0078 45.459C59.7168 43.9453 57.4219 42.041 56.2988 43.457L53.3691 46.8262L50.1465 45.8984L50.5859 40.332C51.9043 39.8438 53.2715 39.5508 54.7852 39.5508C57.2266 39.5508 57.1777 41.0156 59.9121 41.0156C63.7695 41.0156 72.168 35.1562 72.168 30.8105C72.168 28.0273 67.8223 26.2695 60.8398 26.2695C55.8105 26.2695 54.0039 27.5879 53.6621 29.8828C53.4668 31.6406 52.4902 32.5684 50.7812 32.5684C49.5605 32.5684 48.3398 32.666 47.168 32.8125L41.6992 30.1758L42.3828 26.9043L46.8262 26.123C48.6328 25.8301 48.0957 22.8516 45.9473 23.584C44.8242 23.9258 44.0918 22.9004 44.6289 21.9238C45.6543 20.2148 42.7246 18.9941 42.1875 20.7031C41.8457 21.7773 40.5273 21.7285 40.0391 20.6543C39.2578 18.9453 36.6211 20.166 37.6953 21.9238L39.6973 25.293L37.3535 29.9805C36.6699 31.25 36.9629 32.8613 38.3301 33.5938L40.5762 34.9609C33.6426 38.5254 28.9062 45.5566 28.9062 53.9551C28.9062 55.3711 29.0527 56.6406 29.2969 57.959L28.125 57.2754C26.8066 56.543 25.293 56.9824 24.4629 58.3008L21.6309 62.6465L17.6758 62.5977C15.5762 62.5488 15.8691 65.4785 17.7734 65.2832C18.9453 65.1367 19.6289 66.3086 18.8477 67.0898C17.5781 68.5059 20.166 70.5078 21.1914 68.6523C21.6797 67.6758 22.998 67.7734 23.2422 68.8477C23.7305 71.2402 26.6113 70.2148 25.9277 68.4082L24.4141 64.2578L26.8555 61.9141L31.9336 65.3809C35.9375 72.2656 43.8477 76.5137 53.7598 76.5137Z" fill="#000000" fill-opacity="0.85"/>
 </g>
</svg>
