<?xml version="1.0" encoding="UTF-8"?>
<!--Generator: Apple Native CoreSVG 232.5-->
<!DOCTYPE svg
PUBLIC "-//W3C//DTD SVG 1.1//EN"
       "http://www.w3.org/Graphics/SVG/1.1/DTD/svg11.dtd">
<svg version="1.1" xmlns="http://www.w3.org/2000/svg" xmlns:xlink="http://www.w3.org/1999/xlink" width="99.6094" height="99.6582">
 <g>
  <rect height="99.6582" opacity="0" width="99.6094" x="0" y="0"/>
  <path d="M99.6094 49.8047C99.6094 77.002 77.0508 99.6094 49.8047 99.6094C22.6074 99.6094 0 77.002 0 49.8047C0 22.5586 22.5586 0 49.7559 0C77.002 0 99.6094 22.5586 99.6094 49.8047ZM20.6055 47.7051C17.334 49.2676 17.8711 53.9551 22.2656 53.9551L43.3594 54.0039C44.3359 54.0039 44.9707 54.6387 44.9707 55.6152L44.9707 76.4648C44.9707 80.957 49.7559 81.3965 51.2695 78.1738L57.2383 65.4543L33.3975 41.6374ZM23.877 23.8281C22.998 24.707 22.998 26.2207 23.877 27.0508L72.6074 75.7812C73.4375 76.6113 74.9512 76.6113 75.8301 75.7812C76.709 74.8047 76.709 73.4375 75.8301 72.5586L27.0996 23.8281C26.2207 22.9492 24.8047 22.9492 23.877 23.8281ZM68.1641 25.1465L44.6268 36.311L62.5241 54.1903L73.6328 30.5176C75.4395 26.6113 72.1191 23.291 68.1641 25.1465Z" fill="#000000" fill-opacity="0.85"/>
 </g>
</svg>
