<?xml version="1.0" encoding="UTF-8"?>
<!--Generator: Apple Native CoreSVG 232.5-->
<!DOCTYPE svg
PUBLIC "-//W3C//DTD SVG 1.1//EN"
       "http://www.w3.org/Graphics/SVG/1.1/DTD/svg11.dtd">
<svg version="1.1" xmlns="http://www.w3.org/2000/svg" xmlns:xlink="http://www.w3.org/1999/xlink" width="99.6094" height="99.6582">
 <g>
  <rect height="99.6582" opacity="0" width="99.6094" x="0" y="0"/>
  <path d="M99.6094 49.8535C99.6094 77.0996 77.0508 99.6582 49.8047 99.6582C22.6074 99.6582 0 77.0996 0 49.8535C0 22.6562 22.5586 0.0488281 49.7559 0.0488281C77.002 0.0488281 99.6094 22.6562 99.6094 49.8535ZM46.1426 22.1191L26.709 71.6309C25.3906 74.9023 29.0039 77.7344 32.1289 74.6582L48.5352 58.252C49.3164 57.4219 50.293 57.4219 51.0742 58.252L67.4805 74.6582C70.5566 77.7344 74.1699 74.9023 72.8516 71.6309L53.418 22.0215C52.0508 18.6035 47.5098 18.7012 46.1426 22.1191Z" fill="#000000" fill-opacity="0.85"/>
 </g>
</svg>
