<?xml version="1.0" encoding="UTF-8"?>
<!--Generator: Apple Native CoreSVG 232.5-->
<!DOCTYPE svg
PUBLIC "-//W3C//DTD SVG 1.1//EN"
       "http://www.w3.org/Graphics/SVG/1.1/DTD/svg11.dtd">
<svg version="1.1" xmlns="http://www.w3.org/2000/svg" xmlns:xlink="http://www.w3.org/1999/xlink" width="99.6094" height="99.6582">
 <g>
  <rect height="99.6582" opacity="0" width="99.6094" x="0" y="0"/>
  <path d="M99.6094 49.8047C99.6094 77.002 77.0508 99.6094 49.8047 99.6094C22.6074 99.6094 0 77.002 0 49.8047C0 22.5586 22.5586 0 49.7559 0C77.002 0 99.6094 22.5586 99.6094 49.8047ZM8.34961 49.8047C8.34961 72.8516 26.7578 91.3086 49.8047 91.3086C72.8516 91.3086 91.3086 72.8516 91.3086 49.8047C91.3086 26.7578 72.8027 8.30078 49.7559 8.30078C26.709 8.30078 8.34961 26.7578 8.34961 49.8047Z" fill="#000000" fill-opacity="0.85"/>
  <path d="M56.9147 64.9354L51.0742 77.3926C49.6094 80.5176 45.0195 80.0781 45.0195 75.7324L45.0195 55.5176C45.0195 54.541 44.3848 53.9551 43.457 53.9551L22.998 53.9062C18.7012 53.9062 18.2129 49.3652 21.3867 47.8516L33.8787 41.9232ZM72.7539 31.1523L62.0154 54.0564L44.7316 36.7726L67.4805 25.9766C71.2891 24.1699 74.5605 27.3926 72.7539 31.1523Z" fill="#000000" fill-opacity="0.85"/>
  <path d="M71.8262 75C72.6562 75.8301 74.1211 75.8301 74.9512 75C75.8301 74.0723 75.8301 72.7539 74.9512 71.875L27.7344 24.6094C26.8555 23.7305 25.4395 23.7305 24.5605 24.6094C23.6816 25.4395 23.7305 26.9043 24.5605 27.7344Z" fill="#000000" fill-opacity="0.85"/>
 </g>
</svg>
