<?xml version="1.0" encoding="UTF-8"?>
<!--Generator: Apple Native CoreSVG 232.5-->
<!DOCTYPE svg
PUBLIC "-//W3C//DTD SVG 1.1//EN"
       "http://www.w3.org/Graphics/SVG/1.1/DTD/svg11.dtd">
<svg version="1.1" xmlns="http://www.w3.org/2000/svg" xmlns:xlink="http://www.w3.org/1999/xlink" width="95.6055" height="95.6543">
 <g>
  <rect height="95.6543" opacity="0" width="95.6055" x="0" y="0"/>
  <path d="M3.90625 31.1523C6.49414 31.1523 7.86133 29.6875 7.86133 27.1484L7.86133 15.625C7.86133 10.5469 10.5469 7.95898 15.4297 7.95898L27.2461 7.95898C29.834 7.95898 31.25 6.54297 31.25 4.00391C31.25 1.46484 29.834 0.0976562 27.2461 0.0976562L15.332 0.0976562C5.12695 0.0976562 0 5.12695 0 15.1855L0 27.1484C0 29.6875 1.41602 31.1523 3.90625 31.1523ZM91.6504 31.1523C94.2383 31.1523 95.6055 29.6875 95.6055 27.1484L95.6055 15.1855C95.6055 5.12695 90.4785 0.0976562 80.2734 0.0976562L68.3105 0.0976562C65.7715 0.0976562 64.3555 1.46484 64.3555 4.00391C64.3555 6.54297 65.7715 7.95898 68.3105 7.95898L80.127 7.95898C84.9609 7.95898 87.7441 10.5469 87.7441 15.625L87.7441 27.1484C87.7441 29.6875 89.1602 31.1523 91.6504 31.1523ZM15.332 95.6543L27.2461 95.6543C29.834 95.6543 31.25 94.2383 31.25 91.748C31.25 89.209 29.834 87.793 27.2461 87.793L15.4297 87.793C10.5469 87.793 7.86133 85.2051 7.86133 80.127L7.86133 68.6035C7.86133 66.0156 6.44531 64.5996 3.90625 64.5996C1.36719 64.5996 0 66.0156 0 68.6035L0 80.5176C0 90.625 5.12695 95.6543 15.332 95.6543ZM68.3105 95.6543L80.2734 95.6543C90.4785 95.6543 95.6055 90.5762 95.6055 80.5176L95.6055 68.6035C95.6055 66.0156 94.1895 64.5996 91.6504 64.5996C89.1113 64.5996 87.7441 66.0156 87.7441 68.6035L87.7441 80.127C87.7441 85.2051 84.9609 87.793 80.127 87.793L68.3105 87.793C65.7715 87.793 64.3555 89.209 64.3555 91.748C64.3555 94.2383 65.7715 95.6543 68.3105 95.6543Z" fill="#000000" fill-opacity="0.85"/>
  <path d="M21.9238 52.002L42.3828 52.002C43.3594 52.002 43.9453 52.6367 43.9453 53.6133L43.9453 73.7793C43.9453 78.1738 48.584 78.6133 50.0488 75.4395L71.7285 29.248C73.4863 25.4883 70.2637 22.2168 66.4551 24.0234L20.3125 45.9473C17.1387 47.4121 17.6758 52.002 21.9238 52.002Z" fill="#000000" fill-opacity="0.85"/>
 </g>
</svg>
