<?xml version="1.0" encoding="UTF-8"?>
<!--Generator: Apple Native CoreSVG 232.5-->
<!DOCTYPE svg
PUBLIC "-//W3C//DTD SVG 1.1//EN"
       "http://www.w3.org/Graphics/SVG/1.1/DTD/svg11.dtd">
<svg version="1.1" xmlns="http://www.w3.org/2000/svg" xmlns:xlink="http://www.w3.org/1999/xlink" width="100.488" height="98.1934">
 <g>
  <rect height="98.1934" opacity="0" width="100.488" x="0" y="0"/>
  <path d="M10.9863 95.7031L55.6641 95.7031C62.8418 95.7031 66.6504 91.7969 66.6504 84.082L66.6504 50.4395C66.6504 42.7734 62.8418 38.8672 55.6641 38.8672L10.9863 38.8672C3.80859 38.8672 0 42.7734 0 50.4395L0 84.082C0 91.7969 3.80859 95.7031 10.9863 95.7031ZM50.9277 42.6758L58.6426 42.6758L58.6426 26.2207C58.6426 13.8672 66.5527 7.37305 75.6836 7.37305C84.8145 7.37305 92.7246 13.8672 92.7246 26.2207L92.7246 37.0605C92.7246 39.9414 94.4336 41.4062 96.6309 41.4062C98.7305 41.4062 100.488 40.0879 100.488 37.0605L100.488 27.2461C100.488 8.88672 88.4277 0 75.6836 0C62.8906 0 50.9277 8.88672 50.9277 27.2461Z" fill="#000000" fill-opacity="0.85"/>
 </g>
</svg>
