<?xml version="1.0" encoding="UTF-8"?>
<!--Generator: Apple Native CoreSVG 232.5-->
<!DOCTYPE svg
PUBLIC "-//W3C//DTD SVG 1.1//EN"
       "http://www.w3.org/Graphics/SVG/1.1/DTD/svg11.dtd">
<svg version="1.1" xmlns="http://www.w3.org/2000/svg" xmlns:xlink="http://www.w3.org/1999/xlink" width="62.7441" height="103.467">
 <g>
  <rect height="103.467" opacity="0" width="62.7441" x="0" y="0"/>
  <path d="M0 90.6738C0 98.291 5.32227 103.369 13.2812 103.369L49.4629 103.369C57.4219 103.369 62.7441 98.291 62.7441 90.6738L62.7441 12.6953C62.7441 5.07812 57.4219 0 49.4629 0L13.2812 0C5.32227 0 0 5.07812 0 12.6953ZM7.86133 89.4043L7.86133 13.9648C7.86133 10.0586 10.1562 7.86133 14.3066 7.86133L48.4863 7.86133C52.5879 7.86133 54.8828 10.0586 54.8828 13.9648L54.8828 89.4043C54.8828 93.3105 52.5879 95.5078 48.4863 95.5078L14.3066 95.5078C10.1562 95.5078 7.86133 93.3105 7.86133 89.4043Z" fill="#000000" fill-opacity="0.85"/>
  <path d="M13.8672 64.1113C13.8672 66.8945 15.1855 68.2617 17.8223 68.2617L34.375 68.2617C37.0605 68.2617 38.3789 66.8945 38.3789 64.1113L38.3789 51.416C38.3789 48.6328 37.0605 47.2168 34.375 47.2168L17.8223 47.2168C15.1855 47.2168 13.8672 48.6328 13.8672 51.416ZM30.6152 50.0488L35.4492 50.0488L35.4492 43.1152C35.4492 39.502 37.4023 37.1582 40.7227 37.1582C44.043 37.1582 45.9473 39.502 45.9473 43.1152L45.9473 46.582C45.9473 47.9004 47.0703 49.0234 48.3887 49.0234C49.707 49.0234 50.7812 47.9004 50.7812 46.582L50.7812 43.1152C50.7812 36.9629 46.8262 32.4707 40.7227 32.4707C34.6191 32.4707 30.6152 36.9629 30.6152 43.5547Z" fill="#000000" fill-opacity="0.85"/>
 </g>
</svg>
