<?xml version="1.0" encoding="UTF-8"?>
<!--Generator: Apple Native CoreSVG 232.5-->
<!DOCTYPE svg
PUBLIC "-//W3C//DTD SVG 1.1//EN"
       "http://www.w3.org/Graphics/SVG/1.1/DTD/svg11.dtd">
<svg version="1.1" xmlns="http://www.w3.org/2000/svg" xmlns:xlink="http://www.w3.org/1999/xlink" width="116.406" height="101.807">
 <g>
  <rect height="101.807" opacity="0" width="116.406" x="0" y="0"/>
  <path d="M11.2305 84.4727L105.127 84.4727C112.158 84.4727 116.406 80.2246 116.406 73.1934L116.406 14.6484C116.406 7.61719 112.158 3.41797 105.127 3.41797L11.2305 3.41797C4.24805 3.41797 0 7.61719 0 14.6484L0 73.1934C0 80.2246 4.24805 84.4727 11.2305 84.4727ZM11.377 76.6113C9.22852 76.6113 7.86133 75.2441 7.86133 73.0957L7.86133 14.7949C7.86133 12.5977 9.22852 11.2793 11.377 11.2793L105.029 11.2793C107.178 11.2793 108.545 12.5977 108.545 14.7949L108.545 73.0957C108.545 75.2441 107.178 76.6113 105.029 76.6113ZM42.7734 96.0938L73.6328 96.0938L73.6328 83.8379L42.7734 83.8379ZM42.4805 101.807L73.9258 101.807C76.0742 101.807 77.832 100.049 77.832 97.8516C77.832 95.6543 76.0742 93.8965 73.9258 93.8965L42.4805 93.8965C40.332 93.8965 38.5254 95.6543 38.5254 97.8516C38.5254 100.049 40.332 101.807 42.4805 101.807Z" fill="#000000" fill-opacity="0.85"/>
  <path d="M40.6738 56.2988C40.6738 59.082 42.041 60.498 44.6777 60.498L61.2305 60.498C63.8672 60.498 65.1855 59.082 65.1855 56.2988L65.1855 43.6035C65.1855 40.8203 63.8672 39.4531 61.2305 39.4531L44.6777 39.4531C42.041 39.4531 40.6738 40.8203 40.6738 43.6035ZM57.4707 42.2852L62.3047 42.2852L62.3047 35.3516C62.3047 31.6895 64.209 29.3945 67.5293 29.3945C70.8496 29.3945 72.8027 31.6895 72.8027 35.3516L72.8027 38.7695C72.8027 40.1367 73.877 41.2598 75.2441 41.2598C76.5137 41.2598 77.6367 40.1367 77.6367 38.7695L77.6367 35.3516C77.6367 29.1992 73.6816 24.707 67.5293 24.707C61.4258 24.707 57.4707 29.1992 57.4707 35.791Z" fill="#000000" fill-opacity="0.85"/>
 </g>
</svg>
