<?xml version="1.0" encoding="UTF-8"?>
<!--Generator: Apple Native CoreSVG 232.5-->
<!DOCTYPE svg
PUBLIC "-//W3C//DTD SVG 1.1//EN"
       "http://www.w3.org/Graphics/SVG/1.1/DTD/svg11.dtd">
<svg version="1.1" xmlns="http://www.w3.org/2000/svg" xmlns:xlink="http://www.w3.org/1999/xlink" width="103.357" height="112.036">
 <g>
  <rect height="112.036" opacity="0" width="103.357" x="0" y="0"/>
  <path d="M31.0564 53.1617L29.6082 53.1617C27.5086 53.1617 26.239 54.4313 26.239 56.8238L26.239 91.5406C26.239 93.9332 27.5086 95.2516 29.6082 95.2516L73.1953 95.2516L79.5239 101.573C78.0064 102.276 76.1724 102.625 74.0418 102.625L29.3152 102.625C22.1375 102.625 18.3289 98.7184 18.3289 91.0035L18.3289 57.361C18.3289 51.6681 20.4292 48.0486 24.4542 46.5673ZM76.4832 34.1188L76.4832 45.963C82.0375 46.7903 84.9793 50.6236 84.9793 57.361L84.9793 80.2705L77.118 72.4137L77.118 56.8238C77.118 54.4313 75.8972 53.1617 73.7976 53.1617L57.8547 53.1617L50.4774 45.7887L68.7195 45.7887L68.7195 33.0934C68.7195 20.7399 60.8094 14.2457 51.6785 14.2457C43.3097 14.2457 35.9664 19.701 34.818 30.1384L28.4462 23.7703C32.0149 12.4008 41.5885 6.87268 51.6785 6.87268C64.4715 6.87268 76.4832 15.7594 76.4832 34.1188Z" fill="#000000" fill-opacity="0.85"/>
  <path d="M91.2781 105.213C92.743 106.677 95.1355 106.677 96.6004 105.213C98.0164 103.748 98.0652 101.355 96.6004 99.8903L12.8601 16.1988C11.3953 14.734 8.95389 14.734 7.48904 16.1988C6.07303 17.6637 6.07303 20.1051 7.48904 21.5211Z" fill="#000000" fill-opacity="0.85"/>
 </g>
</svg>
