<?xml version="1.0" encoding="UTF-8"?>
<!--Generator: Apple Native CoreSVG 232.5-->
<!DOCTYPE svg
PUBLIC "-//W3C//DTD SVG 1.1//EN"
       "http://www.w3.org/Graphics/SVG/1.1/DTD/svg11.dtd">
<svg version="1.1" xmlns="http://www.w3.org/2000/svg" xmlns:xlink="http://www.w3.org/1999/xlink" width="109.082" height="99.6582">
 <g>
  <rect height="99.6582" opacity="0" width="109.082" x="0" y="0"/>
  <path d="M0 49.8047C0 77.002 22.6074 99.6094 49.8047 99.6094C66.2598 99.6094 80.8594 91.2598 90.0879 78.7598C91.748 76.6113 91.2109 73.9258 89.2578 72.7051C87.207 71.4844 84.8633 72.1191 83.3984 74.1211C75.8789 84.4727 63.7207 91.2598 49.8047 91.3086C26.7578 91.3574 8.30078 72.8516 8.30078 49.8047C8.30078 26.7578 26.7578 8.34961 49.8047 8.34961C69.6289 8.34961 86.0352 21.9238 90.2344 40.3809L83.2031 40.3809C79.7363 40.3809 78.8574 42.7734 80.7129 45.459L91.6504 61.0352C93.2129 63.2324 95.5566 63.2812 97.168 61.0352L108.057 45.5078C110.01 42.7734 109.082 40.3809 105.615 40.3809L98.6816 40.3809C94.2383 17.5293 73.8281 0 49.8047 0C22.6074 0 0 22.5586 0 49.8047Z" fill="#000000" fill-opacity="0.85"/>
  <path d="M32.1289 69.0918C32.1289 72.7539 33.7402 74.4629 37.1094 74.4629L62.4023 74.4629C65.7715 74.4629 67.3828 72.7539 67.3828 69.0918L67.3828 49.6582C67.3828 46.2402 65.9668 44.5312 63.0859 44.3359L63.0859 38.5742C63.0859 29.5898 57.7148 23.5352 49.7559 23.5352C41.7969 23.5352 36.4258 29.5898 36.4258 38.5742L36.4258 44.3359C33.5449 44.5312 32.1289 46.2402 32.1289 49.6582ZM41.5039 44.2871L41.5039 38.0371C41.5039 32.2754 44.8242 28.4668 49.7559 28.4668C54.6875 28.4668 58.0078 32.2754 58.0078 38.0371L58.0078 44.2871Z" fill="#000000" fill-opacity="0.85"/>
 </g>
</svg>
