<?xml version="1.0" encoding="UTF-8"?>
<!--Generator: Apple Native CoreSVG 232.5-->
<!DOCTYPE svg
PUBLIC "-//W3C//DTD SVG 1.1//EN"
       "http://www.w3.org/Graphics/SVG/1.1/DTD/svg11.dtd">
<svg version="1.1" xmlns="http://www.w3.org/2000/svg" xmlns:xlink="http://www.w3.org/1999/xlink" width="109.082" height="99.6582">
 <g>
  <rect height="99.6582" opacity="0" width="109.082" x="0" y="0"/>
  <path d="M0 49.8047C0 77.002 22.6074 99.6094 49.8047 99.6094C66.2598 99.6094 80.8594 91.2598 90.0879 78.7598C91.748 76.6113 91.2109 73.9258 89.2578 72.7051C87.207 71.4844 84.8633 72.1191 83.3984 74.1211C75.8789 84.4727 63.7207 91.2598 49.8047 91.3086C26.7578 91.3574 8.30078 72.8516 8.30078 49.8047C8.30078 26.7578 26.7578 8.34961 49.8047 8.34961C69.6289 8.34961 86.0352 21.9238 90.2344 40.3809L83.2031 40.3809C79.7363 40.3809 78.8574 42.7734 80.7129 45.459L91.6504 61.0352C93.2129 63.2324 95.5566 63.2812 97.168 61.0352L108.057 45.5078C110.01 42.7734 109.082 40.3809 105.615 40.3809L98.6816 40.3809C94.2383 17.5293 73.8281 0 49.8047 0C22.6074 0 0 22.5586 0 49.8047Z" fill="#000000" fill-opacity="0.85"/>
  <path d="M37.6465 74.4629L62.9395 74.4629C66.3086 74.4629 67.9199 72.7539 67.9199 69.0918L67.9199 49.707C67.9199 46.0449 66.3086 44.3359 62.9395 44.3359L42.041 44.2871L42.041 38.0371C42.041 32.2754 45.3613 28.4668 50.293 28.4668C55.2246 28.4668 58.5449 31.7871 58.5449 36.7676L58.5449 37.9395C58.5449 39.502 59.668 40.4297 61.1816 40.4297C62.5977 40.4297 63.623 39.4531 63.623 37.9395L63.623 36.7676C63.623 28.8574 58.3008 23.5352 50.293 23.5352C42.334 23.5352 36.9629 29.5898 36.9629 38.5742L36.9629 44.3359C34.082 44.5312 32.666 46.2402 32.666 49.6582L32.666 69.0918C32.666 72.7539 34.2773 74.4629 37.6465 74.4629Z" fill="#000000" fill-opacity="0.85"/>
 </g>
</svg>
