<?xml version="1.0" encoding="UTF-8"?>
<!--Generator: Apple Native CoreSVG 232.5-->
<!DOCTYPE svg
PUBLIC "-//W3C//DTD SVG 1.1//EN"
       "http://www.w3.org/Graphics/SVG/1.1/DTD/svg11.dtd">
<svg version="1.1" xmlns="http://www.w3.org/2000/svg" xmlns:xlink="http://www.w3.org/1999/xlink" width="122.754" height="92.8223">
 <g>
  <rect height="92.8223" opacity="0" width="122.754" x="0" y="0"/>
  <path d="M96.4844 84.8633C111.23 84.8633 122.754 74.0723 122.754 60.6445C122.754 50.3906 116.846 41.5039 107.324 37.5C107.422 15.7227 91.748 0 71.7773 0C58.5449 0 49.1211 7.08008 43.2617 15.625C31.25 12.1094 18.1641 21.2402 17.9199 34.9121C6.88477 36.6699 0 46.5332 0 58.4473C0 72.8027 12.5488 84.8633 29.248 84.8633ZM96.4844 77.002L29.248 77.002C16.9434 77.002 7.86133 68.4082 7.86133 58.4473C7.86133 48.6816 13.7695 40.918 24.1211 40.918C24.8047 40.918 25.0488 40.5762 25.0488 39.9414C25.0488 24.9023 35.8887 20.459 45.8984 23.7305C46.4844 23.9258 46.8262 23.7793 47.1191 23.2422C51.8555 14.7949 59.1309 7.86133 71.7773 7.86133C87.793 7.86133 98.877 20.5566 99.707 35.0586C99.8535 37.3047 99.707 39.9414 99.5117 42.2363C99.4629 42.8711 99.707 43.2129 100.293 43.3594C109.18 45.3125 114.893 51.8066 114.893 60.6445C114.893 69.7266 106.885 77.002 96.4844 77.002Z" fill="#000000" fill-opacity="0.85"/>
  <path d="M45.5566 63.6719C45.5566 66.9922 47.0215 68.5059 50.0488 68.5059L72.7539 68.5059C75.7812 68.5059 77.2461 66.9922 77.2461 63.6719L77.2461 46.2402C77.2461 43.2129 75.9766 41.6504 73.3887 41.5039L73.3887 36.3281C73.3887 28.2715 68.5547 22.8516 61.4258 22.8516C54.248 22.8516 49.4141 28.2715 49.4141 36.3281L49.4141 41.5039C46.8262 41.6504 45.5566 43.2129 45.5566 46.2402ZM54.0039 41.4551L54.0039 35.8398C54.0039 30.7129 56.9824 27.2949 61.4258 27.2949C65.8203 27.2949 68.7988 30.7129 68.7988 35.8398L68.7988 41.4551Z" fill="#000000" fill-opacity="0.85"/>
 </g>
</svg>
