<?xml version="1.0" encoding="UTF-8"?>
<!--Generator: Apple Native CoreSVG 232.5-->
<!DOCTYPE svg
PUBLIC "-//W3C//DTD SVG 1.1//EN"
       "http://www.w3.org/Graphics/SVG/1.1/DTD/svg11.dtd">
<svg version="1.1" xmlns="http://www.w3.org/2000/svg" xmlns:xlink="http://www.w3.org/1999/xlink" width="99.6094" height="99.6582">
 <g>
  <rect height="99.6582" opacity="0" width="99.6094" x="0" y="0"/>
  <path d="M49.8047 99.6094C77.0508 99.6094 99.6094 77.002 99.6094 49.8047C99.6094 22.5586 77.002 0 49.7559 0C22.5586 0 0 22.5586 0 49.8047C0 77.002 22.6074 99.6094 49.8047 99.6094ZM49.8047 91.3086C26.7578 91.3086 8.34961 72.8516 8.34961 49.8047C8.34961 26.7578 26.709 8.30078 49.7559 8.30078C72.8027 8.30078 91.3086 26.7578 91.3086 49.8047C91.3086 72.8516 72.8516 91.3086 49.8047 91.3086Z" fill="#000000" fill-opacity="0.85"/>
  <path d="M32.1289 69.043C32.1289 72.7051 33.7402 74.4141 37.1094 74.4141L62.4023 74.4141C65.7715 74.4141 67.3828 72.7051 67.3828 69.043L67.3828 49.6094C67.3828 46.1914 65.9668 44.5312 63.0859 44.3359L63.0859 38.5254C63.0859 29.541 57.7148 23.5352 49.7559 23.5352C41.7969 23.5352 36.4258 29.541 36.4258 38.5254L36.4258 44.3359C33.5449 44.5312 32.1289 46.1914 32.1289 49.6094ZM41.5039 44.2871L41.5039 37.9883C41.5039 32.2754 44.8242 28.4668 49.7559 28.4668C54.6875 28.4668 58.0078 32.2754 58.0078 37.9883L58.0078 44.2871Z" fill="#000000" fill-opacity="0.85"/>
 </g>
</svg>
