<?xml version="1.0" encoding="UTF-8"?>
<!--Generator: Apple Native CoreSVG 232.5-->
<!DOCTYPE svg
PUBLIC "-//W3C//DTD SVG 1.1//EN"
       "http://www.w3.org/Graphics/SVG/1.1/DTD/svg11.dtd">
<svg version="1.1" xmlns="http://www.w3.org/2000/svg" xmlns:xlink="http://www.w3.org/1999/xlink" width="121.484" height="98.9746">
 <g>
  <rect height="98.9746" opacity="0" width="121.484" x="0" y="0"/>
  <path d="M97.3633 15.1367L97.3633 22.6074L89.502 22.6074L89.502 15.5762C89.502 10.498 86.7188 7.86133 81.8848 7.86133L15.4297 7.86133C10.5469 7.86133 7.86133 10.498 7.86133 15.5762L7.86133 60.791C7.86133 65.8691 10.5469 68.457 15.4297 68.457L24.1211 68.457L24.1211 76.3184L15.332 76.3184C5.07812 76.3184 0 71.2891 0 61.1816L0 15.1367C0 5.07812 5.07812 0 15.332 0L82.0312 0C92.1875 0 97.3633 5.07812 97.3633 15.1367Z" fill="#000000" fill-opacity="0.85"/>
  <path d="M39.4531 98.9258L106.152 98.9258C116.309 98.9258 121.484 93.8477 121.484 83.7891L121.484 37.7441C121.484 27.6855 116.309 22.6074 106.152 22.6074L39.4531 22.6074C29.1992 22.6074 24.1211 27.6855 24.1211 37.7441L24.1211 83.7891C24.1211 93.8965 29.1992 98.9258 39.4531 98.9258ZM39.5508 91.0645C34.668 91.0645 31.9824 88.4766 31.9824 83.3984L31.9824 38.1836C31.9824 33.1055 34.668 30.4688 39.5508 30.4688L106.006 30.4688C110.84 30.4688 113.623 33.1055 113.623 38.1836L113.623 83.3984C113.623 88.4766 110.84 91.0645 106.006 91.0645Z" fill="#000000" fill-opacity="0.85"/>
  <path d="M55.1758 80.0293C55.1758 83.6914 56.7871 85.4004 60.1562 85.4004L85.4492 85.4004C88.8672 85.4004 90.4785 83.6914 90.4785 80.0293L90.4785 60.5957C90.4785 57.1777 89.0625 55.4688 86.1328 55.2734L86.1328 49.5117C86.1328 40.5273 80.7617 34.5215 72.8027 34.5215C64.8926 34.5215 59.4727 40.5273 59.4727 49.5117L59.4727 55.2734C56.5918 55.4688 55.1758 57.1777 55.1758 60.5957ZM64.5508 55.2246L64.5508 48.9746C64.5508 43.2129 67.8711 39.4531 72.8027 39.4531C77.7832 39.4531 81.0547 43.2129 81.0547 48.9746L81.0547 55.2246Z" fill="#000000" fill-opacity="0.85"/>
 </g>
</svg>
