<?xml version="1.0" encoding="UTF-8"?>
<!--Generator: Apple Native CoreSVG 232.5-->
<!DOCTYPE svg
PUBLIC "-//W3C//DTD SVG 1.1//EN"
       "http://www.w3.org/Graphics/SVG/1.1/DTD/svg11.dtd">
<svg version="1.1" xmlns="http://www.w3.org/2000/svg" xmlns:xlink="http://www.w3.org/1999/xlink" width="83.1055" height="101.221">
 <g>
  <rect height="101.221" opacity="0" width="83.1055" x="0" y="0"/>
  <path d="M40.5762 101.221C41.3574 101.221 42.627 100.928 43.8477 100.244C71.6309 84.668 81.1523 78.0762 81.1523 60.2539L81.1523 22.9004C81.1523 17.7734 78.9551 16.1621 74.8047 14.4043C69.043 12.0117 50.4395 5.32227 44.6777 3.32031C43.3594 2.88086 41.9434 2.58789 40.5762 2.58789C39.209 2.58789 37.793 2.97852 36.5234 3.32031C30.7617 4.98047 12.1094 12.0605 6.34766 14.4043C2.24609 16.1133 0 17.7734 0 22.9004L0 60.2539C0 78.0762 9.57031 84.6191 37.3047 100.244C38.5742 100.928 39.7949 101.221 40.5762 101.221ZM40.5762 92.3828C39.7949 92.3828 39.0137 92.0898 37.5488 91.2109C14.9902 77.5391 7.76367 73.5352 7.76367 58.4473L7.76367 24.4141C7.76367 22.7539 8.05664 22.1191 9.42383 21.582C16.8457 18.6523 31.25 13.8184 38.623 10.8887C39.4043 10.5469 40.0391 10.4492 40.5762 10.4492C41.1133 10.4492 41.748 10.5957 42.5293 10.8887C49.9023 13.8184 64.209 18.9941 71.7773 21.582C73.0957 22.0703 73.3887 22.7539 73.3887 24.4141L73.3887 58.4473C73.3887 73.5352 66.1621 77.4902 43.6035 91.2109C42.1875 92.0898 41.3574 92.3828 40.5762 92.3828Z" fill="#000000" fill-opacity="0.85"/>
  <path d="M22.9492 68.7988C22.9492 72.4609 24.5605 74.1699 27.9297 74.1699L53.2227 74.1699C56.5918 74.1699 58.2031 72.4609 58.2031 68.7988L58.2031 49.3652C58.2031 45.9473 56.7871 44.2383 53.9062 44.043L53.9062 38.2812C53.9062 29.2969 48.5352 23.291 40.5762 23.291C32.6172 23.291 27.2461 29.2969 27.2461 38.2812L27.2461 44.043C24.3652 44.2383 22.9492 45.9473 22.9492 49.3652ZM32.3242 43.9941L32.3242 37.7441C32.3242 31.9824 35.6445 28.2227 40.5762 28.2227C45.5078 28.2227 48.8281 31.9824 48.8281 37.7441L48.8281 43.9941Z" fill="#000000" fill-opacity="0.85"/>
 </g>
</svg>
