<?xml version="1.0" encoding="UTF-8"?>
<!--Generator: Apple Native CoreSVG 232.5-->
<!DOCTYPE svg
PUBLIC "-//W3C//DTD SVG 1.1//EN"
       "http://www.w3.org/Graphics/SVG/1.1/DTD/svg11.dtd">
<svg version="1.1" xmlns="http://www.w3.org/2000/svg" xmlns:xlink="http://www.w3.org/1999/xlink" width="66.6504" height="98.3887">
 <g>
  <rect height="98.3887" opacity="0" width="66.6504" x="0" y="0"/>
  <path d="M10.9863 95.8008L55.6641 95.8008C62.8418 95.8008 66.6504 91.8945 66.6504 84.1797L66.6504 50.5371C66.6504 42.8223 62.8418 38.9648 55.6641 38.9648L10.9863 38.9648C3.80859 38.9648 0 42.8223 0 50.5371L0 84.1797C0 91.8945 3.80859 95.8008 10.9863 95.8008ZM8.54492 42.7246L16.3086 42.7246L16.3086 26.2207C16.3086 13.916 24.1699 7.37305 33.3008 7.37305C42.4316 7.37305 50.3906 13.916 50.3906 26.2207L50.3906 42.7246L58.1055 42.7246L58.1055 27.2949C58.1055 8.93555 46.0938 0 33.3008 0C20.5566 0 8.54492 8.93555 8.54492 27.2949Z" fill="#000000" fill-opacity="0.85"/>
 </g>
</svg>
