<?xml version="1.0" encoding="UTF-8"?>
<!--Generator: Apple Native CoreSVG 232.5-->
<!DOCTYPE svg
PUBLIC "-//W3C//DTD SVG 1.1//EN"
       "http://www.w3.org/Graphics/SVG/1.1/DTD/svg11.dtd">
<svg version="1.1" xmlns="http://www.w3.org/2000/svg" xmlns:xlink="http://www.w3.org/1999/xlink" width="118.018" height="123.682">
 <g>
  <rect height="123.682" opacity="0" width="118.018" x="0" y="0"/>
  <path d="M89.8235 13.9648L28.1941 13.9648C28.3945 9.99647 30.8989 7.71484 35.0586 7.71484L82.959 7.71484C87.1187 7.71484 89.6231 9.99647 89.8235 13.9648Z" fill="#000000" fill-opacity="0.85"/>
  <path d="M99.8116 27.9125C98.2412 27.6628 96.5755 27.5391 94.8242 27.5391L23.1934 27.5391C21.4425 27.5391 19.7772 27.6628 18.2073 27.9123C18.7389 23.2213 21.9132 20.6055 27.0996 20.6055L90.9668 20.6055C96.1533 20.6055 99.2873 23.2214 99.8116 27.9125Z" fill="#000000" fill-opacity="0.85"/>
  <path d="M110.156 50.5371L110.156 100.684C110.156 110.742 105.029 115.82 94.8242 115.82L23.1934 115.82C12.9883 115.82 7.86133 110.742 7.86133 100.684L7.86133 50.5371C7.86133 40.4785 12.9883 35.4004 23.1934 35.4004L94.8242 35.4004C105.029 35.4004 110.156 40.4785 110.156 50.5371ZM44.2871 64.1113L44.2871 70.0195C41.3574 70.2148 39.8926 71.9727 39.8926 75.5371L39.8926 95.5566C39.8926 99.3164 41.5527 101.074 45.0195 101.074L71.0938 101.074C74.5605 101.074 76.2207 99.3164 76.2207 95.5566L76.2207 75.5371C76.2207 71.9727 74.7559 70.2148 71.8262 70.0195L71.8262 64.1113C71.8262 54.834 66.2598 48.584 58.0566 48.584C49.8535 48.584 44.2871 54.834 44.2871 64.1113ZM66.5527 63.5254L66.5527 69.9707L49.5605 69.9707L49.5605 63.5254C49.5605 57.6172 52.9785 53.6621 58.0566 53.6621C63.1348 53.6621 66.5527 57.6172 66.5527 63.5254Z" fill="#000000" fill-opacity="0.85"/>
 </g>
</svg>
