<?xml version="1.0" encoding="UTF-8"?>
<!--Generator: Apple Native CoreSVG 232.5-->
<!DOCTYPE svg
PUBLIC "-//W3C//DTD SVG 1.1//EN"
       "http://www.w3.org/Graphics/SVG/1.1/DTD/svg11.dtd">
<svg version="1.1" xmlns="http://www.w3.org/2000/svg" xmlns:xlink="http://www.w3.org/1999/xlink" width="140.82" height="79.541">
 <g>
  <rect height="79.541" opacity="0" width="140.82" x="0" y="0"/>
  <path d="M0 73.9746C0 77.0508 2.49023 79.541 5.51758 79.541L135.303 79.541C138.33 79.541 140.82 77.0508 140.82 73.9746C140.82 70.8984 138.33 68.4082 135.303 68.4082L124.609 68.4082L124.609 10.4492C124.609 3.61328 120.947 0.0976562 114.16 0.0976562L26.6602 0.0976562C20.2148 0.0976562 16.2109 3.61328 16.2109 10.4492L16.2109 68.4082L5.51758 68.4082C2.49023 68.4082 0 70.8984 0 73.9746ZM24.0723 68.4082L24.0723 12.6465C24.0723 9.52148 25.6348 7.95898 28.7598 7.95898L112.061 7.95898C115.186 7.95898 116.748 9.52148 116.748 12.6465L116.748 68.4082Z" fill="#000000" fill-opacity="0.85"/>
  <path d="M52.9297 51.0742C52.9297 53.8574 54.248 55.2246 56.8848 55.2246L73.4375 55.2246C76.0742 55.2246 77.3926 53.8574 77.3926 51.0742L77.3926 38.3789C77.3926 35.5957 76.0742 34.1797 73.4375 34.1797L56.8848 34.1797C54.248 34.1797 52.9297 35.5957 52.9297 38.3789ZM69.6777 37.0117L74.5117 37.0117L74.5117 30.0781C74.5117 26.4648 76.4648 24.1211 79.7852 24.1211C83.1055 24.1211 85.0098 26.4648 85.0098 30.0781L85.0098 33.5449C85.0098 34.8633 86.1328 35.9863 87.4512 35.9863C88.7695 35.9863 89.8438 34.8633 89.8438 33.5449L89.8438 30.0781C89.8438 23.9258 85.8887 19.4336 79.7852 19.4336C73.6328 19.4336 69.6777 23.9258 69.6777 30.5176Z" fill="#000000" fill-opacity="0.85"/>
 </g>
</svg>
