<?xml version="1.0" encoding="UTF-8"?>
<!--Generator: Apple Native CoreSVG 232.5-->
<!DOCTYPE svg
PUBLIC "-//W3C//DTD SVG 1.1//EN"
       "http://www.w3.org/Graphics/SVG/1.1/DTD/svg11.dtd">
<svg version="1.1" xmlns="http://www.w3.org/2000/svg" xmlns:xlink="http://www.w3.org/1999/xlink" width="112.646" height="85.2051">
 <g>
  <rect height="85.2051" opacity="0" width="112.646" x="0" y="0"/>
  <path d="M112.646 39.6973L112.646 70.3125C112.646 80.127 107.568 85.1562 97.6562 85.1562L14.9902 85.1562C5.07812 85.1562 0 80.1758 0 70.3125L0 39.6973C0 13.0371 12.6465 0 40.9668 0L71.6797 0C100 0 112.646 13.0371 112.646 39.6973ZM57.8125 23.0469C56.1523 23.0469 54.8828 24.3164 54.8828 25.9277C54.8828 27.6367 56.1523 28.9551 57.8125 28.9551L63.8672 28.9551L63.8672 59.2285C63.8672 61.1816 65.4785 62.793 67.4316 62.793C69.3359 62.793 70.9473 61.1816 70.9473 59.2285L70.9473 28.9551L76.8066 28.9551C78.418 28.9551 79.7363 27.6367 79.7363 25.9277C79.7363 24.3164 78.418 23.0469 76.8066 23.0469ZM35.6445 26.0254L35.6445 58.5449C35.6445 60.8398 36.8652 62.207 39.1113 62.207L53.0273 62.207C54.6387 62.207 55.957 60.8887 55.957 59.2285C55.957 57.6172 54.6387 56.2988 53.0273 56.2988L42.6758 56.2988L42.6758 26.0254C42.6758 24.0723 41.0645 22.4609 39.1602 22.4609C37.207 22.4609 35.6445 24.0723 35.6445 26.0254Z" fill="#000000" fill-opacity="0.85"/>
 </g>
</svg>
