<?xml version="1.0" encoding="UTF-8"?>
<!--Generator: Apple Native CoreSVG 232.5-->
<!DOCTYPE svg
PUBLIC "-//W3C//DTD SVG 1.1//EN"
       "http://www.w3.org/Graphics/SVG/1.1/DTD/svg11.dtd">
<svg version="1.1" xmlns="http://www.w3.org/2000/svg" xmlns:xlink="http://www.w3.org/1999/xlink" width="99.6094" height="99.6582">
 <g>
  <rect height="99.6582" opacity="0" width="99.6094" x="0" y="0"/>
  <path d="M49.8047 99.6094C77.0508 99.6094 99.6094 77.002 99.6094 49.8047C99.6094 22.5586 77.002 0 49.7559 0C22.5586 0 0 22.5586 0 49.8047C0 77.002 22.6074 99.6094 49.8047 99.6094ZM49.8047 91.3086C26.7578 91.3086 8.34961 72.8516 8.34961 49.8047C8.34961 26.7578 26.709 8.30078 49.7559 8.30078C72.8027 8.30078 91.3086 26.7578 91.3086 49.8047C91.3086 72.8516 72.8516 91.3086 49.8047 91.3086Z" fill="#000000" fill-opacity="0.85"/>
  <path d="M30.7617 72.4609C33.0078 72.4609 34.3262 70.9961 34.3262 68.457L34.3262 40.2832L34.7656 40.2832L45.9961 68.4082C46.7285 70.166 47.8516 70.9961 49.707 70.9961C51.5137 70.9961 52.7344 70.166 53.418 68.4082L64.7461 40.2832L65.1367 40.2832L65.1367 68.457C65.1367 70.9473 66.4551 72.4609 68.6035 72.4609C70.8984 72.4609 72.2168 70.9961 72.2168 68.457L72.2168 31.0547C72.2168 28.3691 70.3125 26.5137 67.627 26.5137C65.2832 26.5137 63.7207 27.5879 62.8418 29.6875L49.9023 62.1582L49.6582 62.1582L36.6211 29.6875C35.791 27.5879 34.2285 26.5137 31.8848 26.5137C29.1504 26.5137 27.2461 28.3691 27.2461 31.0547L27.2461 68.457C27.2461 70.9473 28.6133 72.4609 30.7617 72.4609Z" fill="#000000" fill-opacity="0.85"/>
 </g>
</svg>
