<?xml version="1.0" encoding="UTF-8"?>
<!--Generator: Apple Native CoreSVG 232.5-->
<!DOCTYPE svg
PUBLIC "-//W3C//DTD SVG 1.1//EN"
       "http://www.w3.org/Graphics/SVG/1.1/DTD/svg11.dtd">
<svg version="1.1" xmlns="http://www.w3.org/2000/svg" xmlns:xlink="http://www.w3.org/1999/xlink" width="115.137" height="87.7441">
 <g>
  <rect height="87.7441" opacity="0" width="115.137" x="0" y="0"/>
  <path d="M38.4766 87.6465L76.6602 87.6465C104.98 87.6465 115.137 77.1484 115.137 51.0254L115.137 36.6699C115.137 10.5469 104.98 0 76.6602 0L38.4766 0C10.1562 0 0 10.5469 0 36.6699L0 51.0254C0 77.1484 10.1562 87.6465 38.4766 87.6465ZM38.4766 79.7852C15.4297 79.7852 7.86133 72.3145 7.86133 51.0254L7.86133 36.6699C7.86133 15.3809 15.4297 7.86133 38.4766 7.86133L76.6602 7.86133C99.707 7.86133 107.275 15.3809 107.275 36.6699L107.275 51.0254C107.275 72.3145 99.707 79.7852 76.6602 79.7852Z" fill="#000000" fill-opacity="0.85"/>
  <path d="M32.2266 64.3066C34.1309 64.3066 35.4004 62.9883 35.4004 60.8887L35.4004 34.5215L35.6934 34.5215L42.334 60.3516C42.7734 62.207 43.9453 63.5742 45.9473 63.5742C47.9492 63.5742 48.9746 62.2559 49.4629 60.3027L56.1035 34.5215L56.3965 34.5215L56.3965 60.8887C56.3965 62.9883 57.5684 64.3066 59.5215 64.3066C61.6211 64.3066 62.6953 62.9883 62.6953 60.8887L62.6953 28.5156C62.6953 25.3418 60.791 23.5352 57.7148 23.5352C54.8828 23.5352 53.3203 24.9023 52.6367 27.6367L45.9961 54.248L45.8008 54.248L39.0625 27.6367C38.3789 24.9023 36.7188 23.5352 34.082 23.5352C30.957 23.5352 29.0527 25.4395 29.0527 28.5156L29.0527 60.8887C29.0527 62.9883 30.2734 64.3066 32.2266 64.3066ZM80.4688 64.1113C82.4219 64.1113 84.0332 62.5 84.0332 60.5469L84.0332 27.4414C84.0332 24.9512 82.4707 23.4863 79.9316 23.4863C77.8809 23.4863 76.2207 24.6094 75.0488 25.4883L69.6777 29.6387C68.8477 30.3223 68.1641 31.25 68.1641 32.5195C68.1641 34.0332 69.1895 35.1074 70.6543 35.1074C71.4355 35.1074 71.9238 34.8633 72.4121 34.5215L76.9043 30.9082L76.9043 60.5469C76.9043 62.5 78.5156 64.1113 80.4688 64.1113Z" fill="#000000" fill-opacity="0.85"/>
 </g>
</svg>
