<?xml version="1.0" encoding="UTF-8"?>
<!--Generator: Apple Native CoreSVG 232.5-->
<!DOCTYPE svg
PUBLIC "-//W3C//DTD SVG 1.1//EN"
       "http://www.w3.org/Graphics/SVG/1.1/DTD/svg11.dtd">
<svg version="1.1" xmlns="http://www.w3.org/2000/svg" xmlns:xlink="http://www.w3.org/1999/xlink" width="115.137" height="87.7441">
 <g>
  <rect height="87.7441" opacity="0" width="115.137" x="0" y="0"/>
  <path d="M38.4766 87.6465L76.6602 87.6465C104.98 87.6465 115.137 77.1484 115.137 51.0254L115.137 36.6699C115.137 10.5469 104.98 0 76.6602 0L38.4766 0C10.1562 0 0 10.5469 0 36.6699L0 51.0254C0 77.1484 10.1562 87.6465 38.4766 87.6465ZM38.4766 79.7852C15.4297 79.7852 7.86133 72.3145 7.86133 51.0254L7.86133 36.6699C7.86133 15.3809 15.4297 7.86133 38.4766 7.86133L76.6602 7.86133C99.707 7.86133 107.275 15.3809 107.275 36.6699L107.275 51.0254C107.275 72.3145 99.707 79.7852 76.6602 79.7852Z" fill="#000000" fill-opacity="0.85"/>
  <path d="M28.3691 64.3066C30.2734 64.3066 31.543 62.9883 31.543 60.8887L31.543 34.5215L31.8359 34.5215L38.4766 60.3516C38.916 62.207 40.0879 63.5742 42.0898 63.5742C44.0918 63.5742 45.1172 62.2559 45.6055 60.3027L52.2461 34.5215L52.5391 34.5215L52.5391 60.8887C52.5391 62.9883 53.7109 64.3066 55.6641 64.3066C57.7637 64.3066 58.8379 62.9883 58.8379 60.8887L58.8379 28.5156C58.8379 25.3418 56.9336 23.5352 53.8574 23.5352C51.0254 23.5352 49.4629 24.9023 48.7793 27.6367L42.1387 54.248L41.9434 54.248L35.2051 27.6367C34.5215 24.9023 32.8613 23.5352 30.2246 23.5352C27.0996 23.5352 25.1953 25.4395 25.1953 28.5156L25.1953 60.8887C25.1953 62.9883 26.416 64.3066 28.3691 64.3066ZM83.3984 64.209C85.2539 64.209 86.7188 63.0859 86.7188 60.7422L86.7188 55.8594L88.4766 55.8594C90.3809 55.8594 91.2598 54.6387 91.2598 52.9785C91.2598 51.416 90.4297 50.1953 88.4766 50.1953L86.7188 50.1953L86.7188 28.7598C86.7188 25.3906 84.5215 23.4863 81.3477 23.4863C77.8809 23.4863 76.2695 25.2441 74.9023 28.2715L66.2109 47.2168C65.3809 49.1211 65.0879 50.3906 65.0879 51.9043C65.0879 54.248 66.6992 55.8594 69.0918 55.8594L80.0293 55.8594L80.0293 60.7422C80.0293 63.3301 81.8848 64.209 83.3984 64.209ZM80.1758 50.3418L71.0938 50.3418L71.0938 50L79.9805 29.6387L80.1758 29.6387Z" fill="#000000" fill-opacity="0.85"/>
 </g>
</svg>
