<?xml version="1.0" encoding="UTF-8"?>
<!--Generator: Apple Native CoreSVG 232.5-->
<!DOCTYPE svg
PUBLIC "-//W3C//DTD SVG 1.1//EN"
       "http://www.w3.org/Graphics/SVG/1.1/DTD/svg11.dtd">
<svg version="1.1" xmlns="http://www.w3.org/2000/svg" xmlns:xlink="http://www.w3.org/1999/xlink" width="149.561" height="97.5098">
 <g>
  <rect height="97.5098" opacity="0" width="149.561" x="0" y="0"/>
  <path d="M128.883 17.4805L119.043 17.4805C118.341 17.1209 117.46 16.9434 116.406 16.9434L33.1543 16.9434C29.9805 16.9434 28.418 18.5059 28.418 21.6309L28.418 77.3926L92.9688 77.3926L92.9688 82.2266C92.9688 84.5447 93.3529 86.6585 94.0778 88.5254L9.86328 88.5254C6.83594 88.5254 4.3457 86.0352 4.3457 82.959C4.3457 79.8828 6.83594 77.3926 9.86328 77.3926L20.5566 77.3926L20.5566 19.4336C20.5566 12.5977 24.5605 9.08203 31.0059 9.08203L118.555 9.08203C124.659 9.08203 128.235 11.9258 128.883 17.4805Z" fill="#000000" fill-opacity="0.85"/>
  <path d="M108.643 91.3574L130.908 91.3574C136.963 91.3574 140.43 88.0371 140.43 82.2266L140.43 33.5938C140.43 27.7832 136.963 24.4141 130.908 24.4141L108.643 24.4141C102.637 24.4141 99.1211 27.7832 99.1211 33.5938L99.1211 82.2266C99.1211 88.0371 102.588 91.3574 108.643 91.3574ZM108.789 84.9609C106.641 84.9609 105.518 83.7891 105.518 81.5918L105.518 34.2285C105.518 31.9824 106.641 30.8105 108.789 30.8105L130.811 30.8105C132.959 30.8105 134.033 31.9824 134.033 34.2285L134.033 81.5918C134.033 83.7891 132.959 84.9609 130.811 84.9609ZM113.135 82.4707L126.367 82.4707C127.344 82.4707 128.125 81.7871 128.125 80.7617C128.125 79.834 127.344 79.1016 126.367 79.1016L113.135 79.1016C112.109 79.1016 111.475 79.834 111.475 80.7617C111.475 81.8359 112.061 82.4707 113.135 82.4707ZM115.869 37.793L123.535 37.793C124.805 37.793 125.83 36.7676 125.83 35.498C125.83 34.2773 124.805 33.3008 123.535 33.3008L115.869 33.3008C114.6 33.3008 113.623 34.2773 113.623 35.498C113.623 36.7676 114.6 37.793 115.869 37.793Z" fill="#000000" fill-opacity="0.85"/>
 </g>
</svg>
