<?xml version="1.0" encoding="UTF-8"?>
<!--Generator: Apple Native CoreSVG 232.5-->
<!DOCTYPE svg
PUBLIC "-//W3C//DTD SVG 1.1//EN"
       "http://www.w3.org/Graphics/SVG/1.1/DTD/svg11.dtd">
<svg version="1.1" xmlns="http://www.w3.org/2000/svg" xmlns:xlink="http://www.w3.org/1999/xlink" width="140.82" height="79.541">
 <g>
  <rect height="79.541" opacity="0" width="140.82" x="0" y="0"/>
  <path d="M24.0723 68.4082L24.0723 12.6465C24.0723 9.52148 25.6348 7.95898 28.7598 7.95898L112.061 7.95898C115.186 7.95898 116.748 9.52148 116.748 12.6465L116.748 68.4082Z" fill="#000000" fill-opacity="0.2125"/>
  <path d="M0 73.9746C0 77.0508 2.49023 79.541 5.51758 79.541L135.303 79.541C138.33 79.541 140.82 77.0508 140.82 73.9746C140.82 70.8984 138.33 68.4082 135.303 68.4082L124.609 68.4082L124.609 10.4492C124.609 3.61328 120.947 0.0976562 114.16 0.0976562L26.6602 0.0976562C20.2148 0.0976562 16.2109 3.61328 16.2109 10.4492L16.2109 68.4082L5.51758 68.4082C2.49023 68.4082 0 70.8984 0 73.9746ZM24.0723 68.4082L24.0723 12.6465C24.0723 9.52148 25.6348 7.95898 28.7598 7.95898L112.061 7.95898C115.186 7.95898 116.748 9.52148 116.748 12.6465L116.748 68.4082Z" fill="#000000" fill-opacity="0.85"/>
 </g>
</svg>
