<?xml version="1.0" encoding="UTF-8"?>
<!--Generator: Apple Native CoreSVG 232.5-->
<!DOCTYPE svg
PUBLIC "-//W3C//DTD SVG 1.1//EN"
       "http://www.w3.org/Graphics/SVG/1.1/DTD/svg11.dtd">
<svg version="1.1" xmlns="http://www.w3.org/2000/svg" xmlns:xlink="http://www.w3.org/1999/xlink" width="119.58" height="58.1543">
 <g>
  <rect height="58.1543" opacity="0" width="119.58" x="0" y="0"/>
  <path d="M95.9961 41.2109C99.3652 41.1133 102.197 38.3301 102.197 34.9609C102.197 31.543 99.3652 28.6621 95.9961 28.6621C92.6758 28.6621 89.7949 31.543 89.7949 34.9609C89.7949 38.3301 92.6758 41.2598 95.9961 41.2109ZM15.332 57.6172L104.248 57.6172C114.453 57.6172 119.58 52.5391 119.58 42.4805L119.58 15.0879C119.58 5.07812 114.453 0 104.248 0L15.332 0C5.07812 0 0 5.0293 0 15.0879L0 42.4805C0 52.5879 5.07812 57.6172 15.332 57.6172ZM15.4297 49.7559C10.5469 49.7559 7.86133 47.168 7.86133 42.0898L7.86133 15.5273C7.86133 10.4492 10.5469 7.86133 15.4297 7.86133L104.15 7.86133C108.984 7.86133 111.719 10.4492 111.719 15.5273L111.719 42.0898C111.719 47.168 108.984 49.7559 104.15 49.7559Z" fill="#000000" fill-opacity="0.85"/>
 </g>
</svg>
