<?xml version="1.0" encoding="UTF-8"?>
<!--Generator: Apple Native CoreSVG 232.5-->
<!DOCTYPE svg
PUBLIC "-//W3C//DTD SVG 1.1//EN"
       "http://www.w3.org/Graphics/SVG/1.1/DTD/svg11.dtd">
<svg version="1.1" xmlns="http://www.w3.org/2000/svg" xmlns:xlink="http://www.w3.org/1999/xlink" width="119.58" height="58.1543">
 <g>
  <rect height="58.1543" opacity="0" width="119.58" x="0" y="0"/>
  <path d="M95.9961 41.4062C92.5781 41.4551 89.5996 38.4277 89.5996 34.9609C89.5996 31.4453 92.5781 28.4668 95.9961 28.4668C99.4629 28.4668 102.393 31.4453 102.393 34.9609C102.393 38.4277 99.4629 41.3086 95.9961 41.4062ZM15.332 57.6172L104.248 57.6172C114.453 57.6172 119.58 52.5391 119.58 42.4805L119.58 15.0879C119.58 5.07812 114.453 0 104.248 0L15.332 0C5.07812 0 0 5.0293 0 15.0879L0 42.4805C0 52.5879 5.07812 57.6172 15.332 57.6172Z" fill="#000000" fill-opacity="0.85"/>
 </g>
</svg>
