<?xml version="1.0" encoding="UTF-8"?>
<!--Generator: Apple Native CoreSVG 232.5-->
<!DOCTYPE svg
PUBLIC "-//W3C//DTD SVG 1.1//EN"
       "http://www.w3.org/Graphics/SVG/1.1/DTD/svg11.dtd">
<svg version="1.1" xmlns="http://www.w3.org/2000/svg" xmlns:xlink="http://www.w3.org/1999/xlink" width="100.879" height="128.271">
 <g>
  <rect height="128.271" opacity="0" width="100.879" x="0" y="0"/>
  <path d="M45.1172 77.4414C47.3633 77.4414 48.4375 75.9766 51.1719 75.9766C54.0527 75.9766 54.7363 77.4414 57.1777 77.4414C59.7168 77.4414 61.377 75.0977 62.9395 72.9004C64.7461 70.3613 65.332 67.8223 65.4297 67.6758C65.2832 67.5781 60.498 65.7227 60.498 60.3027C60.498 55.5664 64.2578 53.418 64.502 53.2715C61.9629 49.707 58.252 49.6094 57.1777 49.6094C54.3945 49.6094 52.1973 51.3184 50.7324 51.3184C49.2188 51.3184 47.2168 49.707 44.8242 49.707C40.2344 49.707 35.6445 53.4668 35.6445 60.6445C35.6445 65.0879 37.3047 69.7754 39.4531 72.8027C41.2598 75.293 42.8223 77.4414 45.1172 77.4414ZM50.9766 49.3164C52.5879 49.3164 54.7363 48.1445 55.9082 46.6309C57.0801 45.2637 57.8613 43.4082 57.8613 41.5039C57.8613 41.2109 57.8613 40.9668 57.7637 40.7715C55.9082 40.8691 53.7598 41.9922 52.3438 43.5059C51.2695 44.7266 50.4395 46.6309 50.4395 48.5352C50.4395 48.8281 50.4395 49.1211 50.4883 49.1699C50.5859 49.2676 50.7324 49.3164 50.9766 49.3164ZM15.332 108.203L85.5469 108.203C95.752 108.203 100.879 103.125 100.879 93.1152L100.879 29.0039C100.879 18.8965 95.752 13.8672 85.5469 13.8672L15.332 13.8672C5.07812 13.8672 0 18.8965 0 29.0039L0 93.1152C0 103.174 5.07812 108.203 15.332 108.203ZM15.4297 100.342C10.5469 100.342 7.86133 97.7539 7.86133 92.6758L7.86133 29.3945C7.86133 24.3164 10.5469 21.7285 15.4297 21.7285L85.4492 21.7285C90.332 21.7285 93.0176 24.3164 93.0176 29.3945L93.0176 92.6758C93.0176 97.7539 90.2832 100.342 85.4492 100.342ZM13.1348 122.705L30.957 122.705C33.0078 122.705 34.6191 121.045 34.6191 118.994C34.6191 116.943 33.0078 115.283 30.957 115.283L13.1348 115.283C11.1328 115.283 9.47266 116.943 9.47266 118.994C9.47266 121.045 11.1328 122.705 13.1348 122.705ZM18.3594 118.75L25.7324 118.75L25.7324 104.053L18.3594 104.053ZM69.9219 122.705L87.7441 122.705C89.7949 122.705 91.4062 121.045 91.4062 118.994C91.4062 116.943 89.7949 115.283 87.7441 115.283L69.9219 115.283C67.9199 115.283 66.2598 116.943 66.2598 118.994C66.2598 121.045 67.9199 122.705 69.9219 122.705ZM75.1465 118.75L82.5195 118.75L82.5195 104.053L75.1465 104.053ZM18.3594 17.6758L25.7324 17.6758L25.7324 3.66211C25.7324 1.66016 24.1211 0 22.0703 0C20.0195 0 18.3594 1.66016 18.3594 3.66211ZM75.1465 17.6758L82.5195 17.6758L82.5195 3.66211C82.5195 1.66016 80.9082 0 78.8574 0C76.7578 0 75.1465 1.66016 75.1465 3.66211Z" fill="#000000" fill-opacity="0.85"/>
 </g>
</svg>
