<?xml version="1.0" encoding="UTF-8"?>
<!--Generator: Apple Native CoreSVG 232.5-->
<!DOCTYPE svg
PUBLIC "-//W3C//DTD SVG 1.1//EN"
       "http://www.w3.org/Graphics/SVG/1.1/DTD/svg11.dtd">
<svg version="1.1" xmlns="http://www.w3.org/2000/svg" xmlns:xlink="http://www.w3.org/1999/xlink" width="115.137" height="89.9902">
 <g>
  <rect height="89.9902" opacity="0" width="115.137" x="0" y="0"/>
  <path d="M115.137 15.2344L115.137 74.8535C115.137 84.9121 110.059 89.9902 99.8047 89.9902L15.332 89.9902C5.12695 89.9902 0 84.9609 0 74.8535L0 15.2344C0 5.12695 5.12695 0.0976562 15.332 0.0976562L99.8047 0.0976562C110.059 0.0976562 115.137 5.17578 115.137 15.2344ZM7.86133 24.707L7.86133 74.4629C7.86133 79.541 10.5469 82.1289 15.4297 82.1289L99.707 82.1289C104.541 82.1289 107.275 79.541 107.275 74.4629L107.275 24.707ZM11.1328 12.4023C11.1328 14.6973 13.0859 16.748 15.4785 16.748C17.8711 16.748 19.873 14.6973 19.873 12.4023C19.873 10.1074 17.8711 8.05664 15.4785 8.05664C13.0859 8.05664 11.1328 10.1074 11.1328 12.4023ZM25.1465 12.4023C25.1465 14.6973 27.0996 16.748 29.4922 16.748C31.8848 16.748 33.8867 14.6973 33.8867 12.4023C33.8867 10.1074 31.8848 8.05664 29.4922 8.05664C27.0996 8.05664 25.1465 10.1074 25.1465 12.4023ZM39.1602 12.4023C39.1602 14.6973 41.1133 16.748 43.5059 16.748C45.8984 16.748 47.8516 14.6973 47.8516 12.4023C47.8516 10.1074 45.8984 8.05664 43.5059 8.05664C41.1133 8.05664 39.1602 10.1074 39.1602 12.4023Z" fill="#000000" fill-opacity="0.85"/>
 </g>
</svg>
