<?xml version="1.0" encoding="UTF-8"?>
<!--Generator: Apple Native CoreSVG 232.5-->
<!DOCTYPE svg
PUBLIC "-//W3C//DTD SVG 1.1//EN"
       "http://www.w3.org/Graphics/SVG/1.1/DTD/svg11.dtd">
<svg version="1.1" xmlns="http://www.w3.org/2000/svg" xmlns:xlink="http://www.w3.org/1999/xlink" width="85.498" height="114.502">
 <g>
  <rect height="114.502" opacity="0" width="85.498" x="0" y="0"/>
  <path d="M0 100.586C0 104.395 0.830078 106.689 4.44336 108.447C12.793 112.061 24.3164 114.453 38.1348 114.453C51.8066 114.453 67.1875 112.402 78.2227 107.031C84.082 104.248 85.498 101.66 85.498 95.6055L85.498 20.6543C85.498 12.7441 81.9824 9.13086 74.3652 9.13086L69.7754 9.13086L69.7754 7.17773C69.7754 2.34375 67.334 0 63.0371 0C61.5723 0 59.8145 0.341797 57.7148 1.02539C42.9688 5.85938 29.4922 8.93555 12.207 8.93555L8.30078 8.93555C3.02734 8.93555 0 12.0117 0 16.7969ZM17.334 45.9473L17.334 29.4434C17.334 28.7598 17.8223 28.1738 18.5059 28.125C29.8828 27.6855 40.0391 25.6836 50.4395 21.875C51.0254 21.6309 52.0508 21.875 52.0508 23.0469L52.0508 40.2832C52.0508 40.7227 51.8066 41.1621 51.3672 41.3086C42.2852 45.0195 30.3223 47.1191 18.5059 47.1191C17.8711 47.1191 17.334 46.7285 17.334 45.9473ZM19.8242 106.104C39.0137 105.566 56.8359 100.195 66.5039 92.8223C68.75 91.1133 69.7754 89.3555 69.7754 85.0586L69.7754 16.9922L74.4141 16.9922C76.5625 16.9922 77.6367 18.1641 77.6367 20.6543L77.6367 95.0684C77.6367 97.998 77.1973 99.0723 74.4141 100.293C64.6973 104.541 51.0254 107.275 38.1348 107.275C31.9824 107.275 26.1719 106.934 19.8242 106.104Z" fill="#000000" fill-opacity="0.85"/>
 </g>
</svg>
