<?xml version="1.0" encoding="UTF-8"?>
<!--Generator: Apple Native CoreSVG 232.5-->
<!DOCTYPE svg
PUBLIC "-//W3C//DTD SVG 1.1//EN"
       "http://www.w3.org/Graphics/SVG/1.1/DTD/svg11.dtd">
<svg version="1.1" xmlns="http://www.w3.org/2000/svg" xmlns:xlink="http://www.w3.org/1999/xlink" width="85.498" height="114.502">
 <g>
  <rect height="114.502" opacity="0" width="85.498" x="0" y="0"/>
  <path d="M68.8477 16.9922L74.4141 16.9922C76.5625 16.9922 77.6367 18.1641 77.6367 20.6543L77.6367 95.0684C77.6367 97.998 77.1973 99.0723 74.4141 100.293C64.6973 104.541 51.0254 107.275 38.1348 107.275C30.6152 107.275 23.3887 106.787 15.918 105.518L15.918 106.152C36.5723 106.445 56.2988 100.635 65.2832 93.75C68.75 91.1133 69.7754 89.3555 69.7754 85.0586L69.7754 7.17773C69.7754 2.34375 67.334 0 63.0371 0C61.5723 0 59.8145 0.341797 57.7148 1.02539C42.9688 5.85938 29.4922 8.93555 12.207 8.93555L8.30078 8.93555C3.02734 8.93555 0 12.0117 0 16.7969L0 100.586C0 104.395 0.830078 106.689 4.44336 108.447C12.793 112.061 25.293 114.453 38.1348 114.453C51.8066 114.453 67.1875 112.402 78.2227 107.031C84.082 104.248 85.498 101.66 85.498 95.6055L85.498 20.6543C85.498 12.7441 81.9824 9.13086 74.3652 9.13086L68.8477 9.13086ZM7.86133 96.9238L7.86133 18.8965C7.86133 17.5293 8.59375 16.6992 9.86328 16.6992L12.5488 16.6992C29.6387 16.6992 45.6055 13.2812 59.2285 8.98438C60.8887 8.44727 61.9141 8.88672 61.9141 10.4004L61.9141 83.3496C61.9141 85.9863 61.5723 87.0605 59.082 88.6719C48.9258 95.459 32.4707 99.6582 9.57031 98.6816C8.34961 98.6328 7.86133 98.0957 7.86133 96.9238ZM17.8223 29.5898L17.8223 45.6055C17.8223 46.3867 18.3594 46.7285 18.9941 46.7285C30.4688 46.7285 42.0898 44.6777 50.8789 41.1621C51.3184 40.9668 51.5625 40.5273 51.5625 40.0879L51.5625 23.3887C51.5625 22.2656 50.5371 22.0215 50 22.2656C39.8926 25.9277 30.0293 27.8809 18.9941 28.3203C18.3105 28.3691 17.8223 28.9062 17.8223 29.5898Z" fill="#000000" fill-opacity="0.85"/>
 </g>
</svg>
