<?xml version="1.0" encoding="UTF-8"?>
<!--Generator: Apple Native CoreSVG 232.5-->
<!DOCTYPE svg
PUBLIC "-//W3C//DTD SVG 1.1//EN"
       "http://www.w3.org/Graphics/SVG/1.1/DTD/svg11.dtd">
<svg version="1.1" xmlns="http://www.w3.org/2000/svg" xmlns:xlink="http://www.w3.org/1999/xlink" width="60.0719" height="110.498">
 <g>
  <rect height="110.498" opacity="0" width="60.0719" x="0" y="0"/>
  <path d="M30.0359 110.4C47.0281 110.4 57.1844 102.197 58.7469 85.5469C60.5535 65.6738 60.5047 45.5078 58.6492 23.9258C57.2332 8.25195 47.0281 0 30.0359 0C13.0438 0 2.83868 8.25195 1.42267 23.9258C-0.4328 45.5078-0.481628 65.6738 1.32501 85.5469C2.88751 102.197 13.0438 110.4 30.0359 110.4ZM30.0359 102.539C17.6336 102.539 10.2606 97.2656 9.18634 85.5469C7.42853 65.625 7.47736 45.459 9.284 23.9258C10.2117 13.1348 17.6336 7.86133 30.0359 7.86133C42.4383 7.86133 49.8602 13.1348 50.7879 23.9258C52.5945 45.459 52.6434 65.625 50.8856 85.5469C49.8113 97.2656 42.4383 102.539 30.0359 102.539ZM30.0359 90.2832C31.5496 90.2832 31.8426 91.0156 33.0633 91.0156C34.3817 91.0156 35.2117 89.8438 35.993 88.7207C36.9207 87.4023 37.2625 86.1328 37.2625 86.084C37.2137 86.0352 34.7723 85.0586 34.7723 82.2754C34.7723 79.834 36.6766 78.8086 36.8231 78.6621C35.6024 76.9043 33.6492 76.9043 33.0633 76.9043C31.6961 76.9043 30.5731 77.6855 29.8406 77.6855C29.0106 77.6855 27.9852 76.9043 26.7645 76.9043C24.4695 76.9043 22.077 78.8574 22.077 82.4707C22.077 84.8145 22.9559 87.1094 24.0301 88.623C24.9578 89.9902 25.7879 91.0156 26.9598 91.0156C28.1317 91.0156 28.6199 90.2832 30.0359 90.2832ZM33.3563 72.3145C31.5008 72.3145 29.6453 74.1699 29.6453 76.6602C31.8426 76.8066 33.7469 74.3652 33.3563 72.3145Z" fill="#000000" fill-opacity="0.85"/>
 </g>
</svg>
