<?xml version="1.0" encoding="UTF-8"?>
<!--Generator: Apple Native CoreSVG 232.5-->
<!DOCTYPE svg
PUBLIC "-//W3C//DTD SVG 1.1//EN"
       "http://www.w3.org/Graphics/SVG/1.1/DTD/svg11.dtd">
<svg version="1.1" xmlns="http://www.w3.org/2000/svg" xmlns:xlink="http://www.w3.org/1999/xlink" width="69.3359" height="100.244">
 <g>
  <rect height="100.244" opacity="0" width="69.3359" x="0" y="0"/>
  <path d="M13.5742 100.195L55.7617 100.195C63.916 100.195 69.3359 95.0195 69.3359 87.3535L69.3359 12.8418C69.3359 5.12695 63.916 0 55.7617 0L13.5742 0C5.41992 0 0 5.12695 0 12.8418L0 87.3535C0 95.0195 5.41992 100.195 13.5742 100.195ZM34.7168 83.3008C32.959 83.3008 31.4941 81.8848 31.4941 80.127L31.4941 70.752C31.4941 68.9941 32.959 67.5781 34.7168 67.5781C36.4746 67.5781 37.8906 68.9941 37.8906 70.752L37.8906 80.127C37.8906 81.8848 36.4746 83.3008 34.7168 83.3008ZM34.7168 59.5215C20.3125 59.5215 8.64258 47.8027 8.64258 33.4473C8.64258 19.0918 20.3125 7.42188 34.7168 7.42188C49.0234 7.42188 60.7422 19.0918 60.7422 33.4473C60.7422 47.8027 49.0234 59.5215 34.7168 59.5215ZM34.7168 53.3691C45.6543 53.3691 54.5898 44.4336 54.5898 33.4473C54.5898 22.4609 45.6543 13.5742 34.7168 13.5742C23.6816 13.5742 14.7949 22.4609 14.7949 33.4473C14.7949 44.4336 23.6816 53.3691 34.7168 53.3691Z" fill="#000000" fill-opacity="0.85"/>
  <path d="M34.7168 83.3008C32.959 83.3008 31.4941 81.8848 31.4941 80.127L31.4941 70.752C31.4941 68.9941 32.959 67.5781 34.7168 67.5781C36.4746 67.5781 37.8906 68.9941 37.8906 70.752L37.8906 80.127C37.8906 81.8848 36.4746 83.3008 34.7168 83.3008ZM34.7168 59.5215C20.3125 59.5215 8.64258 47.8027 8.64258 33.4473C8.64258 19.0918 20.3125 7.42188 34.7168 7.42188C49.0234 7.42188 60.7422 19.0918 60.7422 33.4473C60.7422 47.8027 49.0234 59.5215 34.7168 59.5215ZM34.7168 53.3691C45.6543 53.3691 54.5898 44.4336 54.5898 33.4473C54.5898 22.4609 45.6543 13.5742 34.7168 13.5742C23.6816 13.5742 14.7949 22.4609 14.7949 33.4473C14.7949 44.4336 23.6816 53.3691 34.7168 53.3691Z" fill="#000000" fill-opacity="0.2125"/>
 </g>
</svg>
