<?xml version="1.0" encoding="UTF-8"?>
<!--Generator: Apple Native CoreSVG 232.5-->
<!DOCTYPE svg
PUBLIC "-//W3C//DTD SVG 1.1//EN"
       "http://www.w3.org/Graphics/SVG/1.1/DTD/svg11.dtd">
<svg version="1.1" xmlns="http://www.w3.org/2000/svg" xmlns:xlink="http://www.w3.org/1999/xlink" width="69.3359" height="100.244">
 <g>
  <rect height="100.244" opacity="0" width="69.3359" x="0" y="0"/>
  <path d="M13.5742 100.195L55.7617 100.195C63.916 100.195 69.3359 95.0195 69.3359 87.3535L69.3359 12.8418C69.3359 5.12695 63.916 0 55.7617 0L13.5742 0C5.41992 0 0 5.12695 0 12.8418L0 87.3535C0 95.0195 5.41992 100.195 13.5742 100.195ZM14.5508 92.334C10.498 92.334 7.86133 89.8438 7.86133 86.084L7.86133 14.1113C7.86133 10.3516 10.498 7.86133 14.5508 7.86133L54.7852 7.86133C58.8379 7.86133 61.4746 10.3516 61.4746 14.1113L61.4746 86.084C61.4746 89.8438 58.8379 92.334 54.7852 92.334Z" fill="#000000" fill-opacity="0.85"/>
  <path d="M34.7168 81.6406C36.4746 81.6406 37.8906 80.1758 37.8906 78.418L37.8906 69.0918C37.8906 67.334 36.4746 65.8691 34.7168 65.8691C32.959 65.8691 31.4941 67.334 31.4941 69.0918L31.4941 78.418C31.4941 80.1758 32.959 81.6406 34.7168 81.6406ZM34.7168 57.5684C47.0215 57.5684 57.0801 47.5586 57.0801 35.2051C57.0801 22.8027 47.0215 12.793 34.7168 12.793C22.3145 12.793 12.3047 22.8027 12.3047 35.2051C12.3047 47.5586 22.3145 57.5684 34.7168 57.5684ZM34.7168 51.416C25.6836 51.416 18.457 44.1895 18.457 35.2051C18.457 26.1719 25.6836 18.9453 34.7168 18.9453C43.6523 18.9453 50.9277 26.2207 50.9277 35.2051C50.9277 44.1895 43.6523 51.416 34.7168 51.416Z" fill="#000000" fill-opacity="0.425"/>
 </g>
</svg>
