<?xml version="1.0" encoding="UTF-8"?>
<!--Generator: Apple Native CoreSVG 232.5-->
<!DOCTYPE svg
PUBLIC "-//W3C//DTD SVG 1.1//EN"
       "http://www.w3.org/Graphics/SVG/1.1/DTD/svg11.dtd">
<svg version="1.1" xmlns="http://www.w3.org/2000/svg" xmlns:xlink="http://www.w3.org/1999/xlink" width="115.137" height="89.8926">
 <g>
  <rect height="89.8926" opacity="0" width="115.137" x="0" y="0"/>
  <path d="M23.1934 29.5898L54.6875 29.5898C56.5918 29.5898 58.1055 28.0273 58.1055 26.123C58.1055 24.2188 56.5918 22.7539 54.6875 22.7539L23.1934 22.7539C21.2402 22.7539 19.8242 24.2188 19.8242 26.123C19.8242 28.0273 21.2402 29.5898 23.1934 29.5898ZM23.1934 42.627L46.2402 42.627C48.1445 42.627 49.6582 41.1133 49.6582 39.209C49.6582 37.3047 48.1445 35.791 46.2402 35.791L23.1934 35.791C21.2402 35.791 19.8242 37.3047 19.8242 39.209C19.8242 41.1133 21.2402 42.627 23.1934 42.627ZM83.6426 43.9453C90.0879 43.9453 95.3125 38.7207 95.3125 32.2266C95.3125 25.7324 90.0879 20.5078 83.6426 20.5078C77.1973 20.5078 71.9238 25.7324 71.9238 32.2266C71.9238 38.7207 77.1973 43.9453 83.6426 43.9453ZM15.332 89.8926L99.8047 89.8926C110.059 89.8926 115.137 84.8633 115.137 74.8047L115.137 15.1367C115.137 5.07812 110.059 0 99.8047 0L15.332 0C5.12695 0 0 5.07812 0 15.1367L0 74.8047C0 84.8633 5.12695 89.8926 15.332 89.8926ZM15.4297 82.0312C10.5469 82.0312 7.86133 79.4434 7.86133 74.3652L7.86133 15.5762C7.86133 10.498 10.5469 7.86133 15.4297 7.86133L99.707 7.86133C104.541 7.86133 107.275 10.498 107.275 15.5762L107.275 74.3652C107.275 79.4434 104.541 82.0312 99.707 82.0312Z" fill="#000000" fill-opacity="0.85"/>
 </g>
</svg>
