<?xml version="1.0" encoding="UTF-8"?>
<!--Generator: Apple Native CoreSVG 232.5-->
<!DOCTYPE svg
PUBLIC "-//W3C//DTD SVG 1.1//EN"
       "http://www.w3.org/Graphics/SVG/1.1/DTD/svg11.dtd">
<svg version="1.1" xmlns="http://www.w3.org/2000/svg" xmlns:xlink="http://www.w3.org/1999/xlink" width="118.018" height="123.682">
 <g>
  <rect height="123.682" opacity="0" width="118.018" x="0" y="0"/>
  <path d="M89.8235 13.9648L28.1941 13.9648C28.3945 9.99647 30.8989 7.71484 35.0586 7.71484L82.959 7.71484C87.1187 7.71484 89.6231 9.99647 89.8235 13.9648Z" fill="#000000" fill-opacity="0.85"/>
  <path d="M99.8116 27.9125C98.2412 27.6628 96.5755 27.5391 94.8242 27.5391L23.1934 27.5391C21.4425 27.5391 19.7772 27.6628 18.2073 27.9123C18.7389 23.2213 21.9132 20.6055 27.0996 20.6055L90.9668 20.6055C96.1533 20.6055 99.2873 23.2214 99.8116 27.9125Z" fill="#000000" fill-opacity="0.85"/>
  <path d="M23.1934 115.82L94.8242 115.82C105.029 115.82 110.156 110.742 110.156 100.684L110.156 50.5371C110.156 40.4785 105.029 35.4004 94.8242 35.4004L23.1934 35.4004C12.9883 35.4004 7.86133 40.4785 7.86133 50.5371L7.86133 100.684C7.86133 110.742 12.9883 115.82 23.1934 115.82ZM23.3398 107.959C18.457 107.959 15.7227 105.322 15.7227 100.244L15.7227 50.9766C15.7227 45.8984 18.457 43.2617 23.3398 43.2617L94.7266 43.2617C99.5117 43.2617 102.295 45.8984 102.295 50.9766L102.295 100.244C102.295 105.322 99.5117 107.959 94.7266 107.959ZM28.3203 61.7676L59.3262 61.7676C61.1816 61.7676 62.6953 60.2539 62.6953 58.3984C62.6953 56.543 61.1816 55.0293 59.3262 55.0293L28.3203 55.0293C26.3672 55.0293 25 56.543 25 58.3984C25 60.2539 26.3672 61.7676 28.3203 61.7676ZM28.3203 74.5605L50.4883 74.5605C52.3438 74.5605 53.8086 73.0957 53.8086 71.2402C53.8086 69.3359 52.3438 67.8711 50.4883 67.8711L28.3203 67.8711C26.3672 67.8711 25 69.3359 25 71.2402C25 73.0957 26.3672 74.5605 28.3203 74.5605ZM81.543 75.8789C87.8906 75.8789 93.0176 70.752 93.0176 64.3555C93.0176 57.959 87.8906 52.832 81.543 52.832C75.1465 52.832 69.9707 57.959 69.9707 64.3555C69.9707 70.752 75.1465 75.8789 81.543 75.8789Z" fill="#000000" fill-opacity="0.85"/>
 </g>
</svg>
