<?xml version="1.0" encoding="UTF-8"?>
<!--Generator: Apple Native CoreSVG 232.5-->
<!DOCTYPE svg
PUBLIC "-//W3C//DTD SVG 1.1//EN"
       "http://www.w3.org/Graphics/SVG/1.1/DTD/svg11.dtd">
<svg version="1.1" xmlns="http://www.w3.org/2000/svg" xmlns:xlink="http://www.w3.org/1999/xlink" width="109.095" height="99.6582">
 <g>
  <rect height="99.6582" opacity="0" width="109.095" x="0" y="0"/>
  <path d="M59.2839 99.6094C86.4812 99.6094 109.089 77.002 109.089 49.8047C109.089 22.5586 86.4812 0 59.2839 0C32.0378 0 9.47924 22.5098 9.47924 49.7559L17.78 49.7559C17.78 26.709 36.2371 8.34961 59.2839 8.34961C82.3308 8.34961 100.788 26.7578 100.788 49.8047C100.788 72.8516 82.3308 91.4062 59.2839 91.3086C45.3679 91.2598 33.1609 84.5215 25.6902 74.1211C24.1765 72.1191 21.8816 71.4844 19.8308 72.7051C17.8777 73.9258 17.3406 76.6113 19.0007 78.7598C28.2781 91.2109 42.8289 99.6094 59.2839 99.6094ZM3.47339 40.3809C-0.04224 40.3809-0.921146 42.7734 0.983151 45.5078L11.9207 61.0352C13.532 63.2812 15.8757 63.2324 17.4382 61.0352L28.3757 45.459C30.2312 42.7734 29.3523 40.3809 25.8855 40.3809Z" fill="#000000" fill-opacity="0.85"/>
  <path d="M45.0749 72.3633C46.9304 72.3633 48.1999 71.1426 48.1999 69.0918L48.1999 53.5645C48.1999 44.4824 51.3738 39.3066 56.5496 37.9883L56.5496 69.6777C56.5496 71.2891 57.7214 72.3633 59.2839 72.3633C60.6023 72.3633 61.8718 71.2891 61.8718 69.6777L61.8718 37.9395C67.1941 39.1602 70.4167 44.3359 70.4167 53.5645L70.4167 69.0918C70.4167 71.1426 71.6863 72.3633 73.5906 72.3633C75.446 72.3633 76.7156 71.1426 76.7156 69.0918L76.7156 53.1738C76.7156 40.2832 70.8562 33.0078 61.8718 31.8848L61.8718 26.8555C61.8718 25.1465 60.6023 24.2188 59.2839 24.2188C57.7214 24.2188 56.5496 25.1465 56.5496 26.8555L56.5496 31.9336C47.6628 33.0566 41.8035 40.332 41.8035 53.1738L41.8035 69.0918C41.8035 71.1426 43.2195 72.3633 45.0749 72.3633Z" fill="#000000" fill-opacity="0.85"/>
 </g>
</svg>
