<?xml version="1.0" encoding="UTF-8"?>
<!--Generator: Apple Native CoreSVG 232.5-->
<!DOCTYPE svg
PUBLIC "-//W3C//DTD SVG 1.1//EN"
       "http://www.w3.org/Graphics/SVG/1.1/DTD/svg11.dtd">
<svg version="1.1" xmlns="http://www.w3.org/2000/svg" xmlns:xlink="http://www.w3.org/1999/xlink" width="89.8926" height="89.9902">
 <g>
  <rect height="89.9902" opacity="0" width="89.8926" x="0" y="0"/>
  <path d="M15.332 89.9902L74.5605 89.9902C84.8145 89.9902 89.8926 84.9121 89.8926 74.8535L89.8926 15.2344C89.8926 5.17578 84.8145 0.0976562 74.5605 0.0976562L15.332 0.0976562C5.12695 0.0976562 0 5.12695 0 15.2344L0 74.8535C0 84.9609 5.12695 89.9902 15.332 89.9902ZM15.4297 82.1289C10.5469 82.1289 7.86133 79.541 7.86133 74.4629L7.86133 15.625C7.86133 10.5469 10.5469 7.95898 15.4297 7.95898L74.4629 7.95898C79.2969 7.95898 82.0312 10.5469 82.0312 15.625L82.0312 74.4629C82.0312 79.541 79.2969 82.1289 74.4629 82.1289Z" fill="#000000" fill-opacity="0.85"/>
  <path d="M30.7617 67.5293C32.666 67.5293 33.9355 66.3086 33.9355 64.2578L33.9355 48.7305C33.9355 39.6484 37.1094 34.4727 42.2852 33.1543L42.2852 64.8438C42.2852 66.4551 43.4082 67.5293 44.9707 67.5293C46.3379 67.5293 47.6074 66.4551 47.6074 64.8438L47.6074 33.1055C52.8809 34.3262 56.1523 39.502 56.1523 48.7305L56.1523 64.2578C56.1523 66.3086 57.4219 67.5293 59.2773 67.5293C61.1816 67.5293 62.4512 66.3086 62.4512 64.2578L62.4512 48.3398C62.4512 35.4492 56.543 28.1738 47.6074 27.0508L47.6074 22.0215C47.6074 20.3125 46.3379 19.3848 44.9707 19.3848C43.4082 19.3848 42.2852 20.3125 42.2852 22.0215L42.2852 27.0996C33.3496 28.2227 27.5391 35.498 27.5391 48.3398L27.5391 64.2578C27.5391 66.3086 28.9062 67.5293 30.7617 67.5293Z" fill="#000000" fill-opacity="0.85"/>
 </g>
</svg>
