<?xml version="1.0" encoding="UTF-8"?>
<!--Generator: Apple Native CoreSVG 232.5-->
<!DOCTYPE svg
PUBLIC "-//W3C//DTD SVG 1.1//EN"
       "http://www.w3.org/Graphics/SVG/1.1/DTD/svg11.dtd">
<svg version="1.1" xmlns="http://www.w3.org/2000/svg" xmlns:xlink="http://www.w3.org/1999/xlink" width="89.8926" height="89.9902">
 <g>
  <rect height="89.9902" opacity="0" width="89.8926" x="0" y="0"/>
  <path d="M89.8926 15.2344L89.8926 74.8535C89.8926 84.9121 84.8145 89.9902 74.5605 89.9902L15.332 89.9902C5.12695 89.9902 0 84.9609 0 74.8535L0 15.2344C0 5.12695 5.12695 0.0976562 15.332 0.0976562L74.5605 0.0976562C84.8145 0.0976562 89.8926 5.17578 89.8926 15.2344ZM42.1875 21.2891L42.1875 26.5137C32.959 27.6855 26.9531 35.2051 26.9531 48.4375L26.9531 64.8926C26.9531 66.9922 28.3691 68.2617 30.3223 68.2617C32.2754 68.2617 33.5938 66.9922 33.5938 64.8926L33.5938 48.877C33.5938 39.502 36.8652 34.1797 42.1875 32.8125L42.1875 65.4785C42.1875 67.1387 43.3594 68.2617 44.9707 68.2617C46.3867 68.2617 47.7051 67.1387 47.7051 65.4785L47.7051 32.7637C53.125 33.9844 56.4941 39.3555 56.4941 48.877L56.4941 64.8926C56.4941 66.9922 57.8125 68.2617 59.7168 68.2617C61.7188 68.2617 63.0371 66.9922 63.0371 64.8926L63.0371 48.4375C63.0371 35.1562 56.9336 27.6367 47.7051 26.4648L47.7051 21.2891C47.7051 19.5312 46.3867 18.5547 44.9707 18.5547C43.3594 18.5547 42.1875 19.5312 42.1875 21.2891Z" fill="#000000" fill-opacity="0.85"/>
 </g>
</svg>
