<?xml version="1.0" encoding="UTF-8"?>
<!--Generator: Apple Native CoreSVG 232.5-->
<!DOCTYPE svg
PUBLIC "-//W3C//DTD SVG 1.1//EN"
       "http://www.w3.org/Graphics/SVG/1.1/DTD/svg11.dtd">
<svg version="1.1" xmlns="http://www.w3.org/2000/svg" xmlns:xlink="http://www.w3.org/1999/xlink" width="99.6094" height="99.6582">
 <g>
  <rect height="99.6582" opacity="0" width="99.6094" x="0" y="0"/>
  <path d="M99.6094 49.8047C99.6094 77.002 77.0508 99.6094 49.8047 99.6094C22.6074 99.6094 0 77.002 0 49.8047C0 22.5586 22.5586 0 49.7559 0C77.002 0 99.6094 22.5586 99.6094 49.8047ZM47.0215 26.123L47.0215 31.3477C37.793 32.5195 31.7871 40.0391 31.7871 53.2715L31.7871 69.7266C31.7871 71.8262 33.2031 73.0957 35.1562 73.0957C37.1094 73.0957 38.4277 71.8262 38.4277 69.7266L38.4277 53.7109C38.4277 44.3359 41.6504 39.0137 47.0215 37.6465L47.0215 70.3125C47.0215 71.9727 48.1934 73.0957 49.8047 73.0957C51.2207 73.0957 52.5391 71.9727 52.5391 70.3125L52.5391 37.5977C57.959 38.8184 61.3281 44.1895 61.3281 53.7109L61.3281 69.7266C61.3281 71.8262 62.6465 73.0957 64.5508 73.0957C66.5039 73.0957 67.8711 71.8262 67.8711 69.7266L67.8711 53.2715C67.8711 39.9902 61.7676 32.4707 52.5391 31.2988L52.5391 26.123C52.5391 24.3652 51.2207 23.3887 49.8047 23.3887C48.1934 23.3887 47.0215 24.3652 47.0215 26.123Z" fill="#000000" fill-opacity="0.85"/>
 </g>
</svg>
