<?xml version="1.0" encoding="UTF-8"?>
<!--Generator: Apple Native CoreSVG 232.5-->
<!DOCTYPE svg
PUBLIC "-//W3C//DTD SVG 1.1//EN"
       "http://www.w3.org/Graphics/SVG/1.1/DTD/svg11.dtd">
<svg version="1.1" xmlns="http://www.w3.org/2000/svg" xmlns:xlink="http://www.w3.org/1999/xlink" width="65.918" height="93.0176">
 <g>
  <rect height="93.0176" opacity="0" width="65.918" x="0" y="0"/>
  <path d="M4.63867 92.1387C7.4707 92.1387 9.32617 90.2832 9.32617 87.3047L9.32617 56.4941C9.32617 34.2285 18.6523 23.4863 32.959 23.4863C47.2656 23.4863 56.5918 34.2285 56.5918 56.4941L56.5918 87.3047C56.5918 90.2832 58.4473 92.1387 61.2305 92.1387C64.0137 92.1387 65.918 90.2832 65.918 87.3047L65.918 55.7617C65.918 28.9551 52.7344 14.8926 32.959 14.8926C13.1348 14.8926 0 28.9551 0 55.7617L0 87.3047C0 90.2832 1.85547 92.1387 4.63867 92.1387ZM29.248 88.4766C29.248 90.5273 30.9082 92.1387 32.959 92.1387C35.0098 92.1387 36.6211 90.5273 36.6211 88.4766L36.6211 3.66211C36.6211 1.61133 35.0098 0 32.959 0C30.9082 0 29.248 1.61133 29.248 3.66211Z" fill="#000000" fill-opacity="0.85"/>
 </g>
</svg>
