<?xml version="1.0" encoding="UTF-8"?>
<!--Generator: Apple Native CoreSVG 232.5-->
<!DOCTYPE svg
PUBLIC "-//W3C//DTD SVG 1.1//EN"
       "http://www.w3.org/Graphics/SVG/1.1/DTD/svg11.dtd">
<svg version="1.1" xmlns="http://www.w3.org/2000/svg" xmlns:xlink="http://www.w3.org/1999/xlink" width="99.6094" height="99.6582">
 <g>
  <rect height="99.6582" opacity="0" width="99.6094" x="0" y="0"/>
  <path d="M49.8047 99.6094C77.0508 99.6094 99.6094 77.002 99.6094 49.8047C99.6094 22.5586 77.002 0 49.7559 0C22.5586 0 0 22.5586 0 49.8047C0 77.002 22.6074 99.6094 49.8047 99.6094ZM49.8047 91.3086C26.7578 91.3086 8.34961 72.8516 8.34961 49.8047C8.34961 26.7578 26.709 8.30078 49.7559 8.30078C72.8027 8.30078 91.3086 26.7578 91.3086 49.8047C91.3086 72.8516 72.8516 91.3086 49.8047 91.3086Z" fill="#000000" fill-opacity="0.85"/>
  <path d="M23.2422 70.8984C23.2422 72.8027 24.2676 73.877 26.123 73.877C26.8066 73.877 27.4414 73.6328 28.2715 73.1934L38.9648 67.3828L38.9648 25.2441C38.5254 25.4395 38.0371 25.6836 37.5 25.9766L25.4395 32.8613C23.8281 33.7891 23.2422 34.8633 23.2422 36.6699ZM42.4316 66.8945L55.2734 74.1211C55.6641 74.3652 56.1035 74.5117 56.4453 74.6094L56.4453 33.0566L43.8965 25.3906C43.4082 25.0977 42.9688 24.9023 42.4316 24.8047ZM59.9121 74.5117C60.1562 74.4629 60.4004 74.3652 60.6934 74.2188L73.9258 66.6992C75.5371 65.7715 76.1719 64.6973 76.1719 62.9395L76.1719 28.5645C76.1719 26.709 75.0977 25.6836 73.291 25.6836C72.6074 25.6836 71.9727 25.9277 71.1426 26.3672L59.9121 32.5684Z" fill="#000000" fill-opacity="0.85"/>
 </g>
</svg>
