<?xml version="1.0" encoding="UTF-8"?>
<!--Generator: Apple Native CoreSVG 232.5-->
<!DOCTYPE svg
PUBLIC "-//W3C//DTD SVG 1.1//EN"
       "http://www.w3.org/Graphics/SVG/1.1/DTD/svg11.dtd">
<svg version="1.1" xmlns="http://www.w3.org/2000/svg" xmlns:xlink="http://www.w3.org/1999/xlink" width="92.7246" height="123.389">
 <g>
  <rect height="123.389" opacity="0" width="92.7246" x="0" y="0"/>
  <path d="M92.7246 93.8965C92.7246 106.494 73.5352 115.283 46.4355 115.283C19.2871 115.283 0 106.494 0 93.8965C0 83.4142 13.4578 75.5553 33.7402 73.2729L33.7402 77.0996C33.7402 78.5132 33.7774 79.8637 33.8639 81.1288C19.74 82.9757 9.96094 87.9262 9.96094 93.8965C9.96094 101.611 25.8789 107.568 46.3867 107.568C66.7969 107.568 82.8125 101.514 82.8125 93.8965C82.8125 87.9565 72.9471 82.979 58.8146 81.1266C58.8993 79.8622 58.9355 78.5124 58.9355 77.0996L58.9355 73.2548C79.2612 75.5121 92.7246 83.3853 92.7246 93.8965Z" fill="#000000" fill-opacity="0.85"/>
  <path d="M64.6973 26.4648C64.6973 35.0586 58.8379 42.2852 50.8789 44.2383L50.8789 75.1465C50.8789 89.5996 48.3398 97.4121 46.3867 97.4121C44.3848 97.4121 41.8457 89.5508 41.8457 75.1465L41.8457 44.2383C33.8867 42.2363 28.0273 35.0586 28.0273 26.4648C28.0273 16.3574 36.1816 8.05664 46.3867 8.05664C56.543 8.05664 64.6973 16.3574 64.6973 26.4648ZM34.8633 21.1426C34.8633 24.5605 37.793 27.4902 41.1133 27.4902C44.5801 27.4902 47.4121 24.5605 47.4121 21.1426C47.4121 17.7734 44.5801 14.8926 41.1133 14.8926C37.793 14.8926 34.8633 17.7734 34.8633 21.1426Z" fill="#000000" fill-opacity="0.85"/>
 </g>
</svg>
