<?xml version="1.0" encoding="UTF-8"?>
<!--Generator: Apple Native CoreSVG 232.5-->
<!DOCTYPE svg
PUBLIC "-//W3C//DTD SVG 1.1//EN"
       "http://www.w3.org/Graphics/SVG/1.1/DTD/svg11.dtd">
<svg version="1.1" xmlns="http://www.w3.org/2000/svg" xmlns:xlink="http://www.w3.org/1999/xlink" width="99.6094" height="99.6582">
 <g>
  <rect height="99.6582" opacity="0" width="99.6094" x="0" y="0"/>
  <path d="M99.6094 49.8047C99.6094 77.002 77.0508 99.6094 49.8047 99.6094C22.6074 99.6094 0 77.002 0 49.8047C0 22.5586 22.5586 0 49.7559 0C77.002 0 99.6094 22.5586 99.6094 49.8047ZM8.34961 49.8047C8.34961 72.8516 26.7578 91.3086 49.8047 91.3086C72.8516 91.3086 91.3086 72.8516 91.3086 49.8047C91.3086 26.7578 72.8027 8.30078 49.7559 8.30078C26.709 8.30078 8.34961 26.7578 8.34961 49.8047Z" fill="#000000" fill-opacity="0.85"/>
  <path d="M53.0762 61.1008L53.0762 66.6504C53.0762 73.877 52.002 80.127 49.7559 80.127C47.5586 80.127 46.3867 73.7793 46.3867 66.6504L46.3867 54.4183ZM60.8887 31.543C60.8887 36.5234 57.6172 40.7227 53.0762 42.0898L53.0762 45.1172L38.6656 30.7066C39.087 24.9439 43.9325 20.4102 49.7559 20.4102C55.9082 20.4102 60.8887 25.3906 60.8887 31.543ZM43.3594 28.6621C43.3594 30.5664 45.0195 32.2266 46.875 32.2266C48.8281 32.2266 50.4395 30.5664 50.4395 28.6621C50.4395 26.7578 48.8281 25.0977 46.875 25.0977C45.0195 25.0977 43.3105 26.7578 43.3594 28.6621Z" fill="#000000" fill-opacity="0.85"/>
  <path d="M71.8262 75C72.6562 75.8301 74.1211 75.8301 74.9512 75C75.8301 74.0723 75.8301 72.7539 74.9512 71.875L27.7344 24.6094C26.8555 23.7305 25.4395 23.7305 24.5605 24.6094C23.6816 25.4395 23.7305 26.9043 24.5605 27.7344Z" fill="#000000" fill-opacity="0.85"/>
 </g>
</svg>
