<?xml version="1.0" encoding="UTF-8"?>
<!--Generator: Apple Native CoreSVG 232.5-->
<!DOCTYPE svg
PUBLIC "-//W3C//DTD SVG 1.1//EN"
       "http://www.w3.org/Graphics/SVG/1.1/DTD/svg11.dtd">
<svg version="1.1" xmlns="http://www.w3.org/2000/svg" xmlns:xlink="http://www.w3.org/1999/xlink" width="99.6094" height="99.6582">
 <g>
  <rect height="99.6582" opacity="0" width="99.6094" x="0" y="0"/>
  <path d="M49.8047 99.6094C77.0508 99.6094 99.6094 77.002 99.6094 49.8047C99.6094 22.5586 77.002 0 49.7559 0C22.5586 0 0 22.5586 0 49.8047C0 77.002 22.6074 99.6094 49.8047 99.6094ZM49.8047 91.3086C26.7578 91.3086 8.34961 72.8516 8.34961 49.8047C8.34961 26.7578 26.709 8.30078 49.7559 8.30078C72.8027 8.30078 91.3086 26.7578 91.3086 49.8047C91.3086 72.8516 72.8516 91.3086 49.8047 91.3086Z" fill="#000000" fill-opacity="0.85"/>
  <path d="M38.623 31.543C38.623 36.4746 41.8945 40.6738 46.3867 42.0898L46.3867 66.6504C46.3867 73.7793 47.5586 80.127 49.7559 80.127C52.002 80.127 53.0762 73.877 53.0762 66.6504L53.0762 42.0898C57.6172 40.7227 60.8887 36.5234 60.8887 31.543C60.8887 25.3906 55.9082 20.4102 49.7559 20.4102C43.6523 20.4102 38.623 25.3906 38.623 31.543ZM43.3594 28.6621C43.3105 26.7578 45.0195 25.0977 46.875 25.0977C48.8281 25.0977 50.4395 26.7578 50.4395 28.6621C50.4395 30.5664 48.8281 32.2266 46.875 32.2266C45.0195 32.2266 43.3594 30.5664 43.3594 28.6621Z" fill="#000000" fill-opacity="0.85"/>
 </g>
</svg>
