<?xml version="1.0" encoding="UTF-8"?>
<!--Generator: Apple Native CoreSVG 232.5-->
<!DOCTYPE svg
PUBLIC "-//W3C//DTD SVG 1.1//EN"
       "http://www.w3.org/Graphics/SVG/1.1/DTD/svg11.dtd">
<svg version="1.1" xmlns="http://www.w3.org/2000/svg" xmlns:xlink="http://www.w3.org/1999/xlink" width="89.8926" height="89.9902">
 <g>
  <rect height="89.9902" opacity="0" width="89.8926" x="0" y="0"/>
  <path d="M15.332 89.9902L74.5605 89.9902C84.8145 89.9902 89.8926 84.9121 89.8926 74.8535L89.8926 15.2344C89.8926 5.17578 84.8145 0.0976562 74.5605 0.0976562L15.332 0.0976562C5.12695 0.0976562 0 5.12695 0 15.2344L0 74.8535C0 84.9609 5.12695 89.9902 15.332 89.9902ZM15.4297 82.1289C10.5469 82.1289 7.86133 79.541 7.86133 74.4629L7.86133 15.625C7.86133 10.5469 10.5469 7.95898 15.4297 7.95898L74.4629 7.95898C79.2969 7.95898 82.0312 10.5469 82.0312 15.625L82.0312 74.4629C82.0312 79.541 79.2969 82.1289 74.4629 82.1289Z" fill="#000000" fill-opacity="0.85"/>
  <path d="M33.8379 26.709C33.8379 31.6406 37.1094 35.8398 41.6016 37.2559L41.6016 61.8164C41.6016 68.9453 42.7734 75.293 44.9707 75.293C47.2168 75.293 48.291 69.043 48.291 61.8164L48.291 37.2559C52.8809 35.8887 56.1035 31.6895 56.1035 26.709C56.1035 20.5566 51.123 15.5762 44.9707 15.5762C38.8672 15.5762 33.8379 20.5566 33.8379 26.709ZM38.5742 23.8281C38.5254 21.9238 40.2344 20.2637 42.0898 20.2637C44.043 20.2637 45.7031 21.9238 45.6543 23.8281C45.6543 25.7324 44.043 27.3926 42.0898 27.3926C40.2344 27.3926 38.5742 25.7324 38.5742 23.8281Z" fill="#000000" fill-opacity="0.85"/>
 </g>
</svg>
