<?xml version="1.0" encoding="UTF-8"?>
<!--Generator: Apple Native CoreSVG 232.5-->
<!DOCTYPE svg
PUBLIC "-//W3C//DTD SVG 1.1//EN"
       "http://www.w3.org/Graphics/SVG/1.1/DTD/svg11.dtd">
<svg version="1.1" xmlns="http://www.w3.org/2000/svg" xmlns:xlink="http://www.w3.org/1999/xlink" width="99.6094" height="99.6582">
 <g>
  <rect height="99.6582" opacity="0" width="99.6094" x="0" y="0"/>
  <path d="M99.6094 49.8535C99.6094 77.0996 77.0508 99.6582 49.8047 99.6582C22.6074 99.6582 0 77.0996 0 49.8535C0 22.6562 22.5586 0.0488281 49.7559 0.0488281C77.002 0.0488281 99.6094 22.6562 99.6094 49.8535ZM56.25 59.1797C61.4746 59.1309 69.6777 61.9141 69.6777 65.8203C69.6777 70.166 61.377 73.3887 49.8047 73.3887C38.1836 73.3887 29.9805 70.2148 29.9805 65.8203C29.9805 61.9141 38.1348 59.1309 43.3594 59.1797L43.3594 54.541C35.791 54.4922 23.8281 58.8867 23.8281 66.4551C23.8281 72.6562 33.4473 78.3691 49.8047 78.3691C66.1621 78.3691 75.7812 72.6562 75.7812 66.4551C75.7812 58.8867 63.8184 54.4922 56.25 54.541ZM39.3066 28.8574C39.3066 33.6426 42.5293 37.7441 46.9727 39.0625L46.9727 55.957C46.9727 63.9648 48.3398 68.5059 49.8047 68.5059C51.3184 68.5059 52.6855 64.0137 52.6855 55.957L52.6855 39.0625C57.0801 37.7441 60.3027 33.6426 60.3027 28.8574C60.3027 23.0469 55.6641 18.3594 49.8047 18.3594C43.9453 18.3594 39.3066 23.0469 39.3066 28.8574ZM50.293 25.9277C50.293 27.832 48.7793 29.3945 46.875 29.3945C45.166 29.3945 43.5059 27.832 43.5059 25.9277C43.5059 24.0723 45.166 22.5586 46.875 22.5586C48.7793 22.5586 50.293 24.0723 50.293 25.9277Z" fill="#000000" fill-opacity="0.85"/>
 </g>
</svg>
