<?xml version="1.0" encoding="UTF-8"?>
<!--Generator: Apple Native CoreSVG 232.5-->
<!DOCTYPE svg
PUBLIC "-//W3C//DTD SVG 1.1//EN"
       "http://www.w3.org/Graphics/SVG/1.1/DTD/svg11.dtd">
<svg version="1.1" xmlns="http://www.w3.org/2000/svg" xmlns:xlink="http://www.w3.org/1999/xlink" width="90.6494" height="107.275">
 <g>
  <rect height="107.275" opacity="0" width="90.6494" x="0" y="0"/>
  <path d="M49.8169 77.9111L49.8169 81.4941C49.8169 95.9473 47.2778 103.76 45.3247 103.76C43.3228 103.76 40.7837 95.8984 40.7837 81.4941L40.7837 68.8908ZM63.6353 18.4082C63.6353 27.002 57.7759 34.2285 49.8169 36.1816L49.8169 51.1478L40.7837 42.121L40.7837 36.1816C32.8247 34.1797 27.0142 27.002 27.0142 18.4082C27.0142 8.30078 35.1196 0 45.3247 0C55.481 0 63.6353 8.30078 63.6353 18.4082ZM33.8013 13.0859C33.8013 16.5039 36.731 19.4336 40.0513 19.4336C43.5181 19.4336 46.3501 16.5039 46.3501 13.0859C46.3501 9.7168 43.5181 6.83594 40.0513 6.83594C36.731 6.83594 33.8013 9.7168 33.8013 13.0859Z" fill="#000000" fill-opacity="0.85"/>
  <path d="M74.9634 94.9219C76.4282 96.3867 78.8696 96.3867 80.2856 94.9219C81.7017 93.457 81.7505 91.1133 80.2856 89.5996L12.1704 21.5332C10.7056 20.1172 8.26416 20.0684 6.79932 21.5332C5.3833 22.9492 5.3833 25.4395 6.79932 26.8555Z" fill="#000000" fill-opacity="0.85"/>
 </g>
</svg>
