<?xml version="1.0" encoding="UTF-8"?>
<!--Generator: Apple Native CoreSVG 232.5-->
<!DOCTYPE svg
PUBLIC "-//W3C//DTD SVG 1.1//EN"
       "http://www.w3.org/Graphics/SVG/1.1/DTD/svg11.dtd">
<svg version="1.1" xmlns="http://www.w3.org/2000/svg" xmlns:xlink="http://www.w3.org/1999/xlink" width="89.8926" height="89.9902">
 <g>
  <rect height="89.9902" opacity="0" width="89.8926" x="0" y="0"/>
  <path d="M89.8926 15.2344L89.8926 74.8535C89.8926 84.9121 84.8145 89.9902 74.5605 89.9902L15.332 89.9902C5.12695 89.9902 0 84.9609 0 74.8535L0 15.2344C0 5.12695 5.12695 0.0976562 15.332 0.0976562L74.5605 0.0976562C84.8145 0.0976562 89.8926 5.17578 89.8926 15.2344ZM33.4473 26.123C33.4473 31.25 36.8652 35.5469 41.4551 37.0117L41.4551 62.2559C41.4551 69.6289 42.6758 76.2207 44.9707 76.2207C47.3145 76.2207 48.4375 69.7266 48.4375 62.2559L48.4375 37.0117C53.125 35.5957 56.4941 31.2988 56.4941 26.123C56.4941 19.7754 51.3184 14.6484 44.9707 14.6484C38.6719 14.6484 33.4473 19.7754 33.4473 26.123ZM45.6543 23.1445C45.6543 25.1465 43.9941 26.8555 41.9922 26.8555C40.0879 26.8555 38.3789 25.1465 38.3789 23.1445C38.3301 21.1914 40.0879 19.4824 41.9922 19.4824C43.9941 19.4824 45.7031 21.1914 45.6543 23.1445Z" fill="#000000" fill-opacity="0.85"/>
 </g>
</svg>
