<?xml version="1.0" encoding="UTF-8"?>
<!--Generator: Apple Native CoreSVG 232.5-->
<!DOCTYPE svg
PUBLIC "-//W3C//DTD SVG 1.1//EN"
       "http://www.w3.org/Graphics/SVG/1.1/DTD/svg11.dtd">
<svg version="1.1" xmlns="http://www.w3.org/2000/svg" xmlns:xlink="http://www.w3.org/1999/xlink" width="99.6094" height="99.6582">
 <g>
  <rect height="99.6582" opacity="0" width="99.6094" x="0" y="0"/>
  <path d="M99.6094 49.8535C99.6094 77.0996 77.0508 99.6582 49.8047 99.6582C22.6074 99.6582 0 77.0996 0 49.8535C0 22.6562 22.5586 0.0488281 49.7559 0.0488281C77.002 0.0488281 99.6094 22.6562 99.6094 49.8535ZM38.2812 31.0059C38.2812 36.1816 41.6992 40.4785 46.2891 41.8945L46.2891 67.1387C46.2891 74.5117 47.5098 81.1523 49.8047 81.1523C52.1484 81.1523 53.2715 74.6582 53.2715 67.1387L53.2715 41.8945C57.9102 40.5273 61.3281 36.2305 61.3281 31.0059C61.3281 24.6582 56.1523 19.5312 49.8047 19.5312C43.5059 19.5312 38.2812 24.6582 38.2812 31.0059ZM50.4883 28.0762C50.4883 30.0293 48.8281 31.7383 46.8262 31.7383C44.9219 31.7383 43.2129 30.0293 43.2129 28.0762C43.1641 26.0742 44.9219 24.3652 46.8262 24.3652C48.8281 24.3652 50.4883 26.0742 50.4883 28.0762Z" fill="#000000" fill-opacity="0.85"/>
 </g>
</svg>
