<?xml version="1.0" encoding="UTF-8"?>
<!--Generator: Apple Native CoreSVG 232.5-->
<!DOCTYPE svg
PUBLIC "-//W3C//DTD SVG 1.1//EN"
       "http://www.w3.org/Graphics/SVG/1.1/DTD/svg11.dtd">
<svg version="1.1" xmlns="http://www.w3.org/2000/svg" xmlns:xlink="http://www.w3.org/1999/xlink" width="36.6699" height="107.275">
 <g>
  <rect height="107.275" opacity="0" width="36.6699" x="0" y="0"/>
  <path d="M36.6699 18.4082C36.6699 27.002 30.8105 34.2285 22.8516 36.1816L22.8516 81.4941C22.8516 95.9473 20.3125 103.76 18.3105 103.76C16.3574 103.76 13.7695 95.8984 13.7695 81.4941L13.7695 36.1816C5.81055 34.1797 0 27.002 0 18.4082C0 8.30078 8.1543 0 18.3105 0C28.5156 0 36.6699 8.30078 36.6699 18.4082ZM6.78711 13.0859C6.78711 16.5039 9.7168 19.4336 13.0859 19.4336C16.5039 19.4336 19.3359 16.5039 19.3359 13.0859C19.3359 9.7168 16.5039 6.83594 13.0859 6.83594C9.7168 6.83594 6.78711 9.7168 6.78711 13.0859Z" fill="#000000" fill-opacity="0.85"/>
 </g>
</svg>
