<?xml version="1.0" encoding="UTF-8"?>
<!--Generator: Apple Native CoreSVG 232.5-->
<!DOCTYPE svg
PUBLIC "-//W3C//DTD SVG 1.1//EN"
       "http://www.w3.org/Graphics/SVG/1.1/DTD/svg11.dtd">
<svg version="1.1" xmlns="http://www.w3.org/2000/svg" xmlns:xlink="http://www.w3.org/1999/xlink" width="99.6094" height="99.6582">
 <g>
  <rect height="99.6582" opacity="0" width="99.6094" x="0" y="0"/>
  <path d="M49.8047 99.6094C77.0508 99.6094 99.6094 77.002 99.6094 49.8047C99.6094 22.5586 77.002 0 49.7559 0C22.5586 0 0 22.5586 0 49.8047C0 77.002 22.6074 99.6094 49.8047 99.6094ZM49.8047 91.3086C26.7578 91.3086 8.34961 72.8516 8.34961 49.8047C8.34961 26.7578 26.709 8.30078 49.7559 8.30078C72.8027 8.30078 91.3086 26.7578 91.3086 49.8047C91.3086 72.8516 72.8516 91.3086 49.8047 91.3086Z" fill="#000000" fill-opacity="0.85"/>
  <path d="M39.5996 29.3945C39.5996 34.0332 42.7246 37.9883 47.0215 39.209L47.0215 55.7617C47.0215 63.4277 48.3398 67.8223 49.7559 67.8223C51.2207 67.8223 52.5391 63.5254 52.5391 55.7617L52.5391 39.209C56.7871 37.9883 59.9121 34.0332 59.9121 29.3945C59.9121 23.7793 55.4199 19.2383 49.7559 19.2383C44.0918 19.2383 39.5996 23.7793 39.5996 29.3945ZM46.9238 29.834C45.2637 29.834 43.6523 28.3691 43.6523 26.5625C43.6523 24.7559 45.2637 23.291 46.9238 23.291C48.7793 23.291 50.2441 24.7559 50.2441 26.5625C50.2441 28.3691 48.7793 29.834 46.9238 29.834ZM49.7559 77.3926C65.625 77.3926 74.9512 71.8262 74.9512 65.8203C74.9512 58.4961 63.3301 54.248 56.0059 54.2969L56.0059 58.7891C61.084 58.7402 69.043 61.4746 69.043 65.1855C69.043 69.4824 60.9863 72.6074 49.7559 72.6074C38.4766 72.6074 30.5176 69.4824 30.5176 65.1855C30.5176 61.4746 38.4277 58.7402 43.5059 58.7891L43.5059 54.2969C36.1816 54.248 24.5605 58.4961 24.5605 65.8203C24.5605 71.8262 33.8867 77.3926 49.7559 77.3926Z" fill="#000000" fill-opacity="0.85"/>
 </g>
</svg>
