<?xml version="1.0" encoding="UTF-8"?>
<!--Generator: Apple Native CoreSVG 232.5-->
<!DOCTYPE svg
PUBLIC "-//W3C//DTD SVG 1.1//EN"
       "http://www.w3.org/Graphics/SVG/1.1/DTD/svg11.dtd">
<svg version="1.1" xmlns="http://www.w3.org/2000/svg" xmlns:xlink="http://www.w3.org/1999/xlink" width="92.8748" height="112.061">
 <g>
  <rect height="112.061" opacity="0" width="92.8748" x="0" y="0"/>
  <path d="M20.2899 65.0879L25.5145 59.668L8.13171 25.5371L15.993 13.4766L36.5985 54.1016L44.6063 52.7832L20.7294 8.30078L72.1454 8.30078L48.2684 52.7832L56.2762 54.1016L76.8817 13.4766L84.7919 25.5371L67.3602 59.668L72.5848 65.0879L92.2137 28.2227C93.1415 26.6113 93.0927 24.7559 92.0673 23.2422L78.8348 2.97852C77.8094 1.5625 76.5887 0.927734 74.6844 0.927734L18.2391 0.927734C16.286 0.927734 15.0653 1.5625 14.0887 2.97852L0.807495 23.2422C-0.169067 24.7559-0.217896 26.6113 0.661011 28.2227ZM28.3466 30.7129L64.577 30.7129L64.577 23.3398L28.3466 23.3398ZM46.4618 112.061C64.1376 112.061 78.4442 97.7539 78.4442 80.0781C78.4442 62.3535 64.1376 48.0469 46.4618 48.0469C28.7372 48.0469 14.4305 62.3535 14.4305 80.0781C14.4305 97.7539 28.7372 112.061 46.4618 112.061ZM46.4618 104.688C32.8387 104.688 21.8036 93.7012 21.8036 80.0781C21.8036 66.4551 32.7899 55.4199 46.4618 55.4199C60.036 55.4199 71.0712 66.4062 71.0712 80.0781C71.0712 93.6523 60.0848 104.688 46.4618 104.688ZM37.868 95.5078L46.5106 89.209L55.0555 95.5078C56.911 96.8262 58.7665 95.459 58.0829 93.4082L54.6161 83.2031L63.3563 76.9531C64.9677 75.8301 64.5282 73.4863 62.2333 73.4863L51.5399 73.584L48.2684 63.3301C47.6337 61.2793 45.2899 61.2793 44.6552 63.3301L41.3837 73.584L30.6903 73.4863C28.4442 73.4863 27.9071 75.7812 29.6161 77.002L38.3563 83.2031L34.8895 93.4082C34.2059 95.459 36.0614 96.8262 37.868 95.5078Z" fill="#000000" fill-opacity="0.85"/>
 </g>
</svg>
