<?xml version="1.0" encoding="UTF-8"?>
<!--Generator: Apple Native CoreSVG 232.5-->
<!DOCTYPE svg
PUBLIC "-//W3C//DTD SVG 1.1//EN"
       "http://www.w3.org/Graphics/SVG/1.1/DTD/svg11.dtd">
<svg version="1.1" xmlns="http://www.w3.org/2000/svg" xmlns:xlink="http://www.w3.org/1999/xlink" width="129.59" height="50.3418">
 <g>
  <rect height="50.3418" opacity="0" width="129.59" x="0" y="0"/>
  <path d="M16.4062 50.1465L86.4746 50.1465C98.9258 50.1465 102.881 44.1406 102.881 25.0977C102.881 6.00586 98.9746 0 86.4746 0L16.4062 0C3.90625 0 0 6.00586 0 25.0977C0 44.1406 3.90625 50.1465 16.4062 50.1465ZM16.4062 21.582C13.5742 21.582 11.3281 19.3359 11.3281 16.5039C11.3281 13.7207 13.5742 11.5234 16.4062 11.5234C19.1895 11.5234 21.3867 13.7207 21.3867 16.5039C21.3867 19.3359 19.1895 21.582 16.4062 21.582Z" fill="#000000" fill-opacity="0.85"/>
  <path d="M108.398 38.8672L120.264 38.8672C125.879 38.8672 129.59 35.2539 129.59 30.0293L129.59 20.0684C129.59 14.8926 125.879 11.2305 120.264 11.2305L108.398 11.2305C109.18 15.0879 109.521 19.6777 109.521 25.0977C109.521 30.4199 109.131 35.0098 108.398 38.8672Z" fill="#000000" fill-opacity="0.425"/>
 </g>
</svg>
