<?xml version="1.0" encoding="UTF-8"?>
<!--Generator: Apple Native CoreSVG 232.5-->
<!DOCTYPE svg
PUBLIC "-//W3C//DTD SVG 1.1//EN"
       "http://www.w3.org/Graphics/SVG/1.1/DTD/svg11.dtd">
<svg version="1.1" xmlns="http://www.w3.org/2000/svg" xmlns:xlink="http://www.w3.org/1999/xlink" width="108.74" height="103.271">
 <g>
  <rect height="103.271" opacity="0" width="108.74" x="0" y="0"/>
  <path d="M0 51.3672C0 64.1113 7.08008 71.0938 20.459 71.0938L37.4023 71.0938C54.2969 73.0469 72.0215 78.6133 87.3535 88.0371L87.3535 79.3457C72.4121 70.166 55.1758 65.1367 37.1094 63.2324L20.459 63.2324C11.5234 63.2324 7.86133 59.7656 7.86133 51.3672L7.86133 44.1895C7.86133 35.7422 11.5234 32.3242 20.459 32.3242L36.6699 32.3242C55.0781 30.4688 72.7051 25.2441 87.3535 16.1621L87.3535 7.51953C72.6562 16.8945 53.0273 22.8027 37.6953 24.4629L20.459 24.4629C7.08008 24.4629 0 31.3477 0 44.1895ZM45.4102 70.459L37.9883 70.459L42.0898 91.2598C42.4805 93.457 41.3574 94.873 39.7949 95.4102C38.1348 95.9961 35.9863 95.459 34.8633 93.1152L23.8281 69.5312L15.8203 69.5312L27.0996 94.5312C31.1035 103.467 38.0371 104.004 42.7734 102.539C47.5586 101.025 50.4883 96.582 49.2188 90.0879ZM30.8105 28.1738L30.8105 67.3828L38.7207 67.3828L38.7207 28.1738ZM84.5703 83.1543C84.5703 90.3809 89.4531 95.2148 96.6309 95.2148C103.906 95.2148 108.74 90.3809 108.74 83.1543L108.74 12.0605C108.74 4.83398 103.906 0 96.6309 0C89.4531 0 84.5703 4.83398 84.5703 12.0605ZM92.4805 83.1543L92.4805 12.0605C92.4805 9.52148 94.0918 7.86133 96.6309 7.86133C99.1699 7.86133 100.879 9.52148 100.879 12.0605L100.879 83.1543C100.879 85.6934 99.1699 87.3535 96.6309 87.3535C94.0918 87.3535 92.4805 85.6934 92.4805 83.1543Z" fill="#000000" fill-opacity="0.85"/>
 </g>
</svg>
