<?xml version="1.0" encoding="UTF-8"?>
<!--Generator: Apple Native CoreSVG 232.5-->
<!DOCTYPE svg
PUBLIC "-//W3C//DTD SVG 1.1//EN"
       "http://www.w3.org/Graphics/SVG/1.1/DTD/svg11.dtd">
<svg version="1.1" xmlns="http://www.w3.org/2000/svg" xmlns:xlink="http://www.w3.org/1999/xlink" width="110.986" height="99.6582">
 <g>
  <rect height="99.6582" opacity="0" width="110.986" x="0" y="0"/>
  <path d="M48.877 65.8203C48.877 68.0664 51.3672 69.043 53.4668 67.7734L79.6387 52.3438C81.543 51.1719 81.4941 48.4863 79.6387 47.4121L53.4668 31.8848C51.5137 30.7129 48.877 31.6406 48.877 33.8379ZM0 38.7695C0 39.7461 0.292969 40.6738 0.878906 41.4062L11.1816 54.0527C12.6953 56.0059 13.9648 56.6895 15.918 56.6895C17.1875 56.6895 18.1641 56.3477 19.3848 55.4688L32.1289 46.0449C33.2031 45.2637 33.7891 44.0918 33.7891 42.8223C33.7891 40.5273 31.9824 38.8672 29.9316 38.8672C29.0039 38.8672 28.1738 39.1113 27.4414 39.6973L19.9219 45.6055C21.9727 24.5605 39.502 8.30078 61.1328 8.30078C84.1797 8.30078 102.637 26.7578 102.686 49.8047C102.734 72.8516 84.2285 91.3086 61.1816 91.3086C45.9473 91.3086 35.1074 83.252 29.7852 77.0508C28.7598 75.7812 27.4414 75.293 26.2695 75.293C24.2188 75.293 22.3633 76.8555 22.3633 79.1016C22.3633 80.2246 22.8027 81.4453 23.877 82.7148C29.248 88.8672 42.4805 99.6094 61.1816 99.6094C88.4277 99.6094 110.986 77.002 110.986 49.8047C110.986 22.5586 88.3301 0 61.1328 0C36.2305 0 15.2344 18.8965 11.9141 42.9688L7.37305 36.7676C6.5918 35.6445 5.46875 34.9121 4.00391 34.9121C1.75781 34.9121 0 36.5234 0 38.7695Z" fill="#000000" fill-opacity="0.85"/>
 </g>
</svg>
