<?xml version="1.0" encoding="UTF-8"?>
<!--Generator: Apple Native CoreSVG 232.5-->
<!DOCTYPE svg
PUBLIC "-//W3C//DTD SVG 1.1//EN"
       "http://www.w3.org/Graphics/SVG/1.1/DTD/svg11.dtd">
<svg version="1.1" xmlns="http://www.w3.org/2000/svg" xmlns:xlink="http://www.w3.org/1999/xlink" width="78.0273" height="110.835">
 <g>
  <rect height="110.835" opacity="0" width="78.0273" x="0" y="0"/>
  <path d="M9.22852 101.096L62.6465 110.52C72.2168 112.229 78.0273 106.907 78.0273 96.4087L78.0273 37.4731C78.0273 27.9028 73.1445 24.436 63.623 22.7759L11.7676 13.5962C4.63867 12.3755 0 16.2329 0 23.2642L0 90.4517C0 96.5064 3.07617 100.022 9.22852 101.096ZM18.0176 40.6958C16.3574 40.4028 15.3809 39.1333 15.3809 37.3755C15.3809 35.2759 16.9922 33.9087 19.3359 34.2993L57.9102 41.0376C59.668 41.4282 60.6445 42.4048 60.6445 44.3579C60.6445 46.4575 59.1797 47.9224 56.7871 47.5317ZM18.0176 60.3247C16.3574 60.0317 15.3809 58.7622 15.3809 57.0044C15.3809 54.9536 16.9922 53.5864 19.3359 53.9771L57.9102 60.7153C59.668 61.0571 60.6445 62.0825 60.6445 63.9868C60.6445 66.1353 59.1797 67.6001 56.7871 67.2095ZM22.5586 8.76221L64.7949 16.1841C68.9453 16.9653 72.4121 18.0884 75.2441 19.6509L75.2441 15.8423C75.2441 5.58838 68.3594 0.656744 56.7871 2.70752Z" fill="#000000" fill-opacity="0.85"/>
 </g>
</svg>
