<?xml version="1.0" encoding="UTF-8"?>
<!--Generator: Apple Native CoreSVG 232.5-->
<!DOCTYPE svg
PUBLIC "-//W3C//DTD SVG 1.1//EN"
       "http://www.w3.org/Graphics/SVG/1.1/DTD/svg11.dtd">
<svg version="1.1" xmlns="http://www.w3.org/2000/svg" xmlns:xlink="http://www.w3.org/1999/xlink" width="115.137" height="89.8926">
 <g>
  <rect height="89.8926" opacity="0" width="115.137" x="0" y="0"/>
  <path d="M5.22461 16.4551L5.22461 23.3398L109.912 23.3398L109.912 16.4551ZM15.332 89.8926L99.8047 89.8926C110.059 89.8926 115.137 84.8633 115.137 74.8047L115.137 15.1367C115.137 5.07812 110.059 0 99.8047 0L15.332 0C5.12695 0 0 5.07812 0 15.1367L0 74.8047C0 84.8633 5.12695 89.8926 15.332 89.8926ZM15.4297 82.0312C10.5469 82.0312 7.86133 79.4434 7.86133 74.3652L7.86133 15.5762C7.86133 10.498 10.5469 7.86133 15.4297 7.86133L99.707 7.86133C104.541 7.86133 107.275 10.498 107.275 15.5762L107.275 74.3652C107.275 79.4434 104.541 82.0312 99.707 82.0312Z" fill="#000000" fill-opacity="0.85"/>
  <path d="M57.6172 71.582C59.7168 71.582 61.4746 69.8242 61.4746 67.7734L61.4746 51.6602L61.1816 43.457L65.3809 47.8516L71.7285 54.1992C72.4609 54.9316 73.3887 55.3711 74.3652 55.3711C76.4648 55.3711 77.9785 53.9551 77.9785 51.9043C77.9785 50.7812 77.5391 49.9512 76.6602 49.2188L60.4492 34.082C59.4238 33.1055 58.5938 32.7637 57.6172 32.7637C56.5918 32.7637 55.8105 33.1055 54.7852 34.082L38.5254 49.2188C37.6953 49.9512 37.2559 50.7812 37.2559 51.9043C37.2559 53.9551 38.7207 55.3711 40.7715 55.3711C41.748 55.3711 42.7246 54.9316 43.5059 54.1992L49.8535 47.8516L54.0527 43.457L53.7109 51.6602L53.7109 67.7734C53.7109 69.8242 55.5176 71.582 57.6172 71.582Z" fill="#000000" fill-opacity="0.85"/>
 </g>
</svg>
