<?xml version="1.0" encoding="UTF-8"?>
<!--Generator: Apple Native CoreSVG 232.5-->
<!DOCTYPE svg
PUBLIC "-//W3C//DTD SVG 1.1//EN"
       "http://www.w3.org/Graphics/SVG/1.1/DTD/svg11.dtd">
<svg version="1.1" xmlns="http://www.w3.org/2000/svg" xmlns:xlink="http://www.w3.org/1999/xlink" width="99.6094" height="99.6582">
 <g>
  <rect height="99.6582" opacity="0" width="99.6094" x="0" y="0"/>
  <path d="M49.8047 99.6094C77.0508 99.6094 99.6094 77.002 99.6094 49.8047C99.6094 22.5586 77.002 0 49.7559 0C22.5586 0 0 22.5586 0 49.8047C0 77.002 22.6074 99.6094 49.8047 99.6094ZM49.8047 91.3086C26.7578 91.3086 8.34961 72.8516 8.34961 49.8047C8.34961 26.7578 26.709 8.30078 49.7559 8.30078C72.8027 8.30078 91.3086 26.7578 91.3086 49.8047C91.3086 72.8516 72.8516 91.3086 49.8047 91.3086Z" fill="#000000" fill-opacity="0.85"/>
  <path d="M49.7559 70.4102C64.8926 70.4102 76.7578 60.498 76.7578 48.3398C76.7578 36.1816 64.8926 26.2695 49.7559 26.2695C34.6191 26.2695 22.7539 36.1816 22.7539 48.3398C22.7539 56.0059 27.5879 62.5977 34.7656 66.748C35.3516 67.0898 35.3516 67.627 35.0586 68.1641C34.2773 69.7754 32.8613 71.2891 31.8359 72.4121C30.4688 73.9746 30.8594 75.6836 33.0078 75.6836C35.6934 75.6836 40.5762 73.6816 45.4102 70.7031C45.8984 70.4102 46.1914 70.2637 46.7285 70.3125C47.6562 70.3613 48.6816 70.4102 49.7559 70.4102Z" fill="#000000" fill-opacity="0.85"/>
 </g>
</svg>
