<?xml version="1.0" encoding="UTF-8"?>
<!--Generator: Apple Native CoreSVG 232.5-->
<!DOCTYPE svg
PUBLIC "-//W3C//DTD SVG 1.1//EN"
       "http://www.w3.org/Graphics/SVG/1.1/DTD/svg11.dtd">
<svg version="1.1" xmlns="http://www.w3.org/2000/svg" xmlns:xlink="http://www.w3.org/1999/xlink" width="99.6094" height="99.6582">
 <g>
  <rect height="99.6582" opacity="0" width="99.6094" x="0" y="0"/>
  <path d="M99.6094 49.8535C99.6094 77.0996 77.0508 99.6582 49.8047 99.6582C22.6074 99.6582 0 77.0996 0 49.8535C0 22.6562 22.5586 0.0488281 49.7559 0.0488281C77.002 0.0488281 99.6094 22.6562 99.6094 49.8535ZM21.9727 48.3398C21.9727 56.25 26.9531 63.0371 34.3262 67.334C34.9609 67.6758 34.9609 68.2617 34.668 68.7988C33.8379 70.459 32.373 72.0215 31.3477 73.1934C29.9316 74.8535 30.3223 76.5625 32.5195 76.5625C35.3027 76.5625 40.332 74.4629 45.3125 71.4844C45.8496 71.0938 46.1426 70.9473 46.6797 70.9961C47.6562 71.0449 48.6816 71.0938 49.8047 71.0938C65.4297 71.0938 77.6367 60.8887 77.6367 48.3398C77.6367 35.791 65.4297 25.6348 49.8047 25.6348C34.1797 25.6348 21.9727 35.791 21.9727 48.3398Z" fill="#000000" fill-opacity="0.85"/>
 </g>
</svg>
