<?xml version="1.0" encoding="UTF-8"?>
<!--Generator: Apple Native CoreSVG 232.5-->
<!DOCTYPE svg
PUBLIC "-//W3C//DTD SVG 1.1//EN"
       "http://www.w3.org/Graphics/SVG/1.1/DTD/svg11.dtd">
<svg version="1.1" xmlns="http://www.w3.org/2000/svg" xmlns:xlink="http://www.w3.org/1999/xlink" width="110.742" height="101.807">
 <g>
  <rect height="101.807" opacity="0" width="110.742" x="0" y="0"/>
  <path d="M19.3359 101.807C25.1953 101.807 39.7949 95.4102 48.0957 89.4531C48.9258 88.8672 49.6094 88.623 50.293 88.623C50.9277 88.6719 51.5625 88.7207 52.1973 88.7207C87.4023 88.7207 110.742 68.7012 110.742 44.3848C110.742 19.8242 86.1328 0 55.3711 0C24.6094 0 0 19.8242 0 44.3848C0 60.0098 9.61914 73.7305 25.293 82.1289C26.0254 82.5195 26.2695 83.252 25.8789 83.9844C23.1445 88.4766 18.2617 93.8477 16.4062 96.2891C14.502 98.7305 15.5762 101.807 19.3359 101.807Z" fill="#000000" fill-opacity="0.85"/>
 </g>
</svg>
