<?xml version="1.0" encoding="UTF-8"?>
<!--Generator: Apple Native CoreSVG 232.5-->
<!DOCTYPE svg
PUBLIC "-//W3C//DTD SVG 1.1//EN"
       "http://www.w3.org/Graphics/SVG/1.1/DTD/svg11.dtd">
<svg version="1.1" xmlns="http://www.w3.org/2000/svg" xmlns:xlink="http://www.w3.org/1999/xlink" width="99.6094" height="99.6582">
 <g>
  <rect height="99.6582" opacity="0" width="99.6094" x="0" y="0"/>
  <path d="M49.8047 99.6094C77.0508 99.6094 99.6094 77.002 99.6094 49.8047C99.6094 22.5586 77.002 0 49.7559 0C22.5586 0 0 22.5586 0 49.8047C0 77.002 22.6074 99.6094 49.8047 99.6094ZM49.8047 91.3086C26.7578 91.3086 8.34961 72.8516 8.34961 49.8047C8.34961 26.7578 26.709 8.30078 49.7559 8.30078C72.8027 8.30078 91.3086 26.7578 91.3086 49.8047C91.3086 72.8516 72.8516 91.3086 49.8047 91.3086Z" fill="#000000" fill-opacity="0.85"/>
  <path d="M37.3535 79.1504L62.207 79.1504C63.5742 79.1504 64.7949 77.8809 64.7949 76.5137C64.7949 75.0977 63.623 73.877 62.207 73.877L52.4414 73.877L52.4414 68.9453C62.1094 67.8223 68.6523 60.4492 68.6523 50.5371L68.6523 44.2383C68.6523 42.8711 67.4316 41.6992 66.0645 41.6992C64.6484 41.6992 63.4766 42.8711 63.4766 44.2383L63.4766 50.5371C63.4766 58.5449 57.8125 64.1602 49.7559 64.1602C41.6992 64.1602 36.084 58.5449 36.084 50.5371L36.084 44.2383C36.084 42.8711 34.8633 41.6992 33.4473 41.6992C32.0801 41.6992 30.9082 42.8711 30.9082 44.2383L30.9082 50.5371C30.9082 60.4492 37.4512 67.8711 47.168 68.9453L47.168 73.877L37.3535 73.877C35.9375 73.877 34.7168 75.0977 34.7168 76.5137C34.7168 77.9297 35.9375 79.1504 37.3535 79.1504ZM49.7559 59.2285C54.541 59.2285 57.8613 55.5176 57.8613 50.5371L57.8613 29.5898C57.8613 24.6582 54.541 20.9961 49.7559 20.9961C44.9707 20.9961 41.6504 24.6582 41.6504 29.5898L41.6504 50.5371C41.6504 55.5176 44.9707 59.2285 49.7559 59.2285Z" fill="#000000" fill-opacity="0.85"/>
 </g>
</svg>
