<?xml version="1.0" encoding="UTF-8"?>
<!--Generator: Apple Native CoreSVG 232.5-->
<!DOCTYPE svg
PUBLIC "-//W3C//DTD SVG 1.1//EN"
       "http://www.w3.org/Graphics/SVG/1.1/DTD/svg11.dtd">
<svg version="1.1" xmlns="http://www.w3.org/2000/svg" xmlns:xlink="http://www.w3.org/1999/xlink" width="69.873" height="110.498">
 <g>
  <rect height="110.498" opacity="0" width="69.873" x="0" y="0"/>
  <path d="M0 51.123C0 70.2637 12.6465 83.6914 31.25 85.2539L31.25 96.6309L13.1348 96.6309C11.084 96.6309 9.42383 98.291 9.42383 100.342C9.42383 102.393 11.084 104.004 13.1348 104.004L56.7383 104.004C58.7891 104.004 60.4492 102.393 60.4492 100.342C60.4492 98.291 58.7891 96.6309 56.7383 96.6309L38.623 96.6309L38.623 85.2539C57.2754 83.6914 69.873 70.2637 69.873 51.123L69.873 41.2109C69.873 39.1602 68.2617 37.5488 66.2109 37.5488C64.1602 37.5488 62.5 39.1602 62.5 41.2109L62.5 50.8301C62.5 67.4805 51.6602 78.5156 34.9609 78.5156C18.2129 78.5156 7.37305 67.4805 7.37305 50.8301L7.37305 41.2109C7.37305 39.1602 5.76172 37.5488 3.66211 37.5488C1.61133 37.5488 0 39.1602 0 41.2109ZM34.9609 68.0176C44.6777 68.0176 51.2207 60.7422 51.2207 50.3418L51.2207 17.6758C51.2207 7.22656 44.6777 0 34.9609 0C25.1953 0 18.6523 7.22656 18.6523 17.6758L18.6523 50.3418C18.6523 60.7422 25.1953 68.0176 34.9609 68.0176Z" fill="#000000" fill-opacity="0.85"/>
 </g>
</svg>
