<?xml version="1.0" encoding="UTF-8"?>
<!--Generator: Apple Native CoreSVG 232.5-->
<!DOCTYPE svg
PUBLIC "-//W3C//DTD SVG 1.1//EN"
       "http://www.w3.org/Graphics/SVG/1.1/DTD/svg11.dtd">
<svg version="1.1" xmlns="http://www.w3.org/2000/svg" xmlns:xlink="http://www.w3.org/1999/xlink" width="99.6094" height="99.6582">
 <g>
  <rect height="99.6582" opacity="0" width="99.6094" x="0" y="0"/>
  <path d="M99.6094 49.8047C99.6094 77.002 77.0508 99.6094 49.8047 99.6094C22.6074 99.6094 0 77.002 0 49.8047C0 22.5586 22.5586 0 49.7559 0C77.002 0 99.6094 22.5586 99.6094 49.8047ZM30.3711 44.043L30.3711 50.5371C30.3711 60.791 37.1094 68.4082 47.1191 69.5312L47.1191 74.6094L37.0117 74.6094C35.5469 74.6094 34.2773 75.8789 34.2773 77.3438C34.2773 78.8086 35.5469 80.0293 37.0117 80.0293L62.6465 80.0293C64.0625 80.0293 65.332 78.7598 65.332 77.3438C65.332 75.8789 64.1113 74.6094 62.6465 74.6094L52.5879 74.6094L52.5879 69.5312C55.0502 69.2416 57.3156 68.561 59.329 67.5429L55.3888 63.6066C53.7079 64.2541 51.8289 64.5996 49.8047 64.5996C41.5039 64.5996 35.6934 58.7891 35.6934 50.5371L35.6934 44.043C35.6934 44.0031 35.6924 43.9635 35.687 43.9246L33.1748 41.4149C33.12 41.4081 33.0641 41.4062 33.0078 41.4062C31.5918 41.4062 30.3711 42.627 30.3711 44.043ZM23.877 23.8281C22.998 24.707 22.998 26.2207 23.877 27.0508L72.6074 75.7812C73.4375 76.6113 74.9512 76.6113 75.8301 75.7812C76.709 74.8047 76.709 73.4375 75.8301 72.5586L27.0996 23.8281C26.2207 22.9492 24.8047 22.9492 23.877 23.8281ZM41.4551 50.5371C41.4551 55.6641 44.873 59.5215 49.8047 59.5215C50.2806 59.5215 50.7424 59.4856 51.1835 59.4055L41.4551 49.6869ZM63.9648 44.043L63.9648 50.5371C63.9648 52.124 63.7482 53.6206 63.3348 55.0003L67.4698 59.1311C68.6487 56.595 69.2871 53.6933 69.2871 50.5371L69.2871 44.043C69.2871 42.627 68.0176 41.4062 66.6016 41.4062C65.1367 41.4062 63.9648 42.627 63.9648 44.043ZM41.4551 28.9551L41.4551 33.1425L58.1543 49.8249L58.1543 28.9551C58.1543 23.877 54.7363 20.1172 49.8047 20.1172C44.873 20.1172 41.4551 23.877 41.4551 28.9551Z" fill="#000000" fill-opacity="0.85"/>
 </g>
</svg>
