<?xml version="1.0" encoding="UTF-8"?>
<!--Generator: Apple Native CoreSVG 232.5-->
<!DOCTYPE svg
PUBLIC "-//W3C//DTD SVG 1.1//EN"
       "http://www.w3.org/Graphics/SVG/1.1/DTD/svg11.dtd">
<svg version="1.1" xmlns="http://www.w3.org/2000/svg" xmlns:xlink="http://www.w3.org/1999/xlink" width="103.174" height="110.498">
 <g>
  <rect height="110.498" opacity="0" width="103.174" x="0" y="0"/>
  <path d="M33.3008 51.123C33.3008 70.2637 45.8984 83.6914 64.5508 85.2539L64.5508 96.6309L46.4355 96.6309C44.3848 96.6309 42.7246 98.291 42.7246 100.342C42.7246 102.393 44.3848 104.004 46.4355 104.004L90.0391 104.004C92.0898 104.004 93.75 102.393 93.75 100.342C93.75 98.291 92.0898 96.6309 90.0391 96.6309L71.9238 96.6309L71.9238 85.2539C90.5273 83.6914 103.174 70.2637 103.174 51.123L103.174 41.2109C103.174 39.1602 101.562 37.5488 99.4629 37.5488C97.4121 37.5488 95.8008 39.1602 95.8008 41.2109L95.8008 50.8301C95.8008 67.4805 84.9609 78.5156 68.2129 78.5156C51.5137 78.5156 40.6738 67.4805 40.6738 50.8301L40.6738 41.2109C40.6738 39.1602 39.0137 37.5488 36.9629 37.5488C34.9121 37.5488 33.3008 39.1602 33.3008 41.2109ZM68.2129 68.0176C77.9785 68.0176 84.5215 60.7422 84.5215 50.3418L84.5215 17.6758C84.5215 7.22656 77.9785 0 68.2129 0C58.4961 0 51.9531 7.22656 51.9531 17.6758L51.9531 50.3418C51.9531 60.7422 58.4961 68.0176 68.2129 68.0176Z" fill="#000000" fill-opacity="0.85"/>
  <path d="M8.20312 25.2441C12.6953 25.2441 16.3574 21.582 16.3574 17.0898C16.3574 12.5488 12.6953 8.88672 8.20312 8.88672C3.66211 8.88672 0 12.5488 0 17.0898C0 21.582 3.66211 25.2441 8.20312 25.2441Z" fill="#000000" fill-opacity="0.85"/>
  <path d="M8.20312 50.6348C12.6953 50.6348 16.3574 46.9727 16.3574 42.4805C16.3574 37.9395 12.6953 34.2773 8.20312 34.2773C3.66211 34.2773 0 37.9395 0 42.4805C0 46.9727 3.66211 50.6348 8.20312 50.6348Z" fill="#000000" fill-opacity="0.85"/>
  <path d="M8.20312 76.123C12.6953 76.123 16.3574 72.4609 16.3574 67.9688C16.3574 63.4277 12.6953 59.7656 8.20312 59.7656C3.66211 59.7656 0 63.4277 0 67.9688C0 72.4609 3.66211 76.123 8.20312 76.123Z" fill="#000000" fill-opacity="0.85"/>
  <path d="M8.20312 101.514C12.6953 101.514 16.3574 97.8516 16.3574 93.3594C16.3574 88.8184 12.6953 85.1562 8.20312 85.1562C3.66211 85.1562 0 88.8184 0 93.3594C0 97.8516 3.66211 101.514 8.20312 101.514Z" fill="#000000" fill-opacity="0.85"/>
 </g>
</svg>
