<?xml version="1.0" encoding="UTF-8"?>
<!--Generator: Apple Native CoreSVG 232.5-->
<!DOCTYPE svg
PUBLIC "-//W3C//DTD SVG 1.1//EN"
       "http://www.w3.org/Graphics/SVG/1.1/DTD/svg11.dtd">
<svg version="1.1" xmlns="http://www.w3.org/2000/svg" xmlns:xlink="http://www.w3.org/1999/xlink" width="89.8926" height="89.9902">
 <g>
  <rect height="89.9902" opacity="0" width="89.8926" x="0" y="0"/>
  <path d="M15.332 89.9902L74.5605 89.9902C84.8145 89.9902 89.8926 84.9121 89.8926 74.8535L89.8926 15.2344C89.8926 5.17578 84.8145 0.0976562 74.5605 0.0976562L15.332 0.0976562C5.12695 0.0976562 0 5.12695 0 15.2344L0 74.8535C0 84.9609 5.12695 89.9902 15.332 89.9902ZM15.4297 82.1289C10.5469 82.1289 7.86133 79.541 7.86133 74.4629L7.86133 15.625C7.86133 10.5469 10.5469 7.95898 15.4297 7.95898L74.4629 7.95898C79.2969 7.95898 82.0312 10.5469 82.0312 15.625L82.0312 74.4629C82.0312 79.541 79.2969 82.1289 74.4629 82.1289Z" fill="#000000" fill-opacity="0.85"/>
  <path d="M32.5684 74.3164L57.4219 74.3164C58.7891 74.3164 60.0586 73.0469 60.0586 71.6797C60.0586 70.2637 58.8379 69.043 57.4219 69.043L47.6562 69.043L47.6562 64.1113C57.373 62.9883 63.8672 55.6152 63.8672 45.7031L63.8672 39.4043C63.8672 38.0371 62.6465 36.8652 61.2793 36.8652C59.8633 36.8652 58.6914 38.0371 58.6914 39.4043L58.6914 45.7031C58.6914 53.7109 53.0762 59.3262 44.9707 59.3262C36.9141 59.3262 31.2988 53.7109 31.2988 45.7031L31.2988 39.4043C31.2988 38.0371 30.127 36.8652 28.7109 36.8652C27.2949 36.8652 26.123 38.0371 26.123 39.4043L26.123 45.7031C26.123 55.6152 32.666 63.0371 42.3828 64.1113L42.3828 69.043L32.5684 69.043C31.1523 69.043 29.9316 70.2637 29.9316 71.6797C29.9316 73.0957 31.1523 74.3164 32.5684 74.3164ZM44.9707 54.3945C49.7559 54.3945 53.0762 50.6836 53.0762 45.7031L53.0762 24.7559C53.0762 19.8242 49.7559 16.1621 44.9707 16.1621C40.1855 16.1621 36.8652 19.8242 36.8652 24.7559L36.8652 45.7031C36.8652 50.6836 40.1855 54.3945 44.9707 54.3945Z" fill="#000000" fill-opacity="0.85"/>
 </g>
</svg>
