<?xml version="1.0" encoding="UTF-8"?>
<!--Generator: Apple Native CoreSVG 232.5-->
<!DOCTYPE svg
PUBLIC "-//W3C//DTD SVG 1.1//EN"
       "http://www.w3.org/Graphics/SVG/1.1/DTD/svg11.dtd">
<svg version="1.1" xmlns="http://www.w3.org/2000/svg" xmlns:xlink="http://www.w3.org/1999/xlink" width="102.734" height="111.475">
 <g>
  <rect height="111.475" opacity="0" width="102.734" x="0" y="0"/>
  <path d="M8.20312 25.7324C12.6953 25.7324 16.3574 22.0703 16.3574 17.5781C16.3574 13.0371 12.6953 9.375 8.20312 9.375C3.66211 9.375 0 13.0371 0 17.5781C0 22.0703 3.66211 25.7324 8.20312 25.7324Z" fill="#000000" fill-opacity="0.85"/>
  <path d="M8.20312 51.123C12.6953 51.123 16.3574 47.4609 16.3574 42.9688C16.3574 38.4277 12.6953 34.7656 8.20312 34.7656C3.66211 34.7656 0 38.4277 0 42.9688C0 47.4609 3.66211 51.123 8.20312 51.123Z" fill="#000000" fill-opacity="0.85"/>
  <path d="M8.20312 76.6113C12.6953 76.6113 16.3574 72.9492 16.3574 68.457C16.3574 63.916 12.6953 60.2539 8.20312 60.2539C3.66211 60.2539 0 63.916 0 68.457C0 72.9492 3.66211 76.6113 8.20312 76.6113Z" fill="#000000" fill-opacity="0.85"/>
  <path d="M8.20312 102.002C12.6953 102.002 16.3574 98.3398 16.3574 93.8477C16.3574 89.3066 12.6953 85.6445 8.20312 85.6445C3.66211 85.6445 0 89.3066 0 93.8477C0 98.3398 3.66211 102.002 8.20312 102.002Z" fill="#000000" fill-opacity="0.85"/>
  <path d="M32.8613 51.6113C32.8613 70.752 45.459 84.1797 64.1113 85.7422L64.1113 97.1191L45.9961 97.1191C43.9453 97.1191 42.2852 98.7793 42.2852 100.83C42.2852 102.881 43.9453 104.492 45.9961 104.492L89.5996 104.492C91.6504 104.492 93.3105 102.881 93.3105 100.83C93.3105 98.7793 91.6504 97.1191 89.5996 97.1191L71.4844 97.1191L71.4844 85.7422C90.0879 84.1797 102.734 70.752 102.734 51.6113L102.734 41.6992C102.734 39.6484 101.123 38.0371 99.0234 38.0371C96.9727 38.0371 95.3613 39.6484 95.3613 41.6992L95.3613 51.3184C95.3613 67.9688 84.5215 79.0039 67.7734 79.0039C51.0742 79.0039 40.2344 67.9688 40.2344 51.3184L40.2344 41.6992C40.2344 39.6484 38.5742 38.0371 36.5234 38.0371C34.4727 38.0371 32.8613 39.6484 32.8613 41.6992ZM50.0488 49.8535C50.0488 61.084 57.2754 68.9941 67.7734 68.9941C78.3203 68.9941 85.5469 61.084 85.5469 49.8535L85.5469 19.1406C85.5469 7.86133 78.3203 0 67.7734 0C57.2754 0 50.0488 7.86133 50.0488 19.1406ZM57.4219 49.8535L57.4219 19.1406C57.4219 11.9141 61.5234 7.27539 67.7734 7.27539C74.0234 7.27539 78.1738 11.9141 78.1738 19.1406L78.1738 49.8535C78.1738 57.0801 74.0234 61.7188 67.7734 61.7188C61.5234 61.7188 57.4219 57.0801 57.4219 49.8535Z" fill="#000000" fill-opacity="0.85"/>
 </g>
</svg>
