<?xml version="1.0" encoding="UTF-8"?>
<!--Generator: Apple Native CoreSVG 232.5-->
<!DOCTYPE svg
PUBLIC "-//W3C//DTD SVG 1.1//EN"
       "http://www.w3.org/Graphics/SVG/1.1/DTD/svg11.dtd">
<svg version="1.1" xmlns="http://www.w3.org/2000/svg" xmlns:xlink="http://www.w3.org/1999/xlink" width="99.6094" height="99.6582">
 <g>
  <rect height="99.6582" opacity="0" width="99.6094" x="0" y="0"/>
  <path d="M99.6094 49.8047C99.6094 77.002 77.0508 99.6094 49.8047 99.6094C22.6074 99.6094 0 77.002 0 49.8047C0 22.5586 22.5586 0 49.7559 0C77.002 0 99.6094 22.5586 99.6094 49.8047ZM8.34961 49.8047C8.34961 72.8516 26.7578 91.3086 49.8047 91.3086C72.8516 91.3086 91.3086 72.8516 91.3086 49.8047C91.3086 26.7578 72.8027 8.30078 49.7559 8.30078C26.709 8.30078 8.34961 26.7578 8.34961 49.8047Z" fill="#000000" fill-opacity="0.85"/>
  <path d="M33.6657 41.7104L36.0774 44.1196C36.0829 44.1586 36.084 44.1983 36.084 44.2383L36.084 50.5371C36.084 58.5449 41.6992 64.1602 49.7559 64.1602C51.7221 64.1602 53.5458 63.8257 55.1763 63.1987L58.9963 67.0148C57.0387 68.0056 54.8359 68.6672 52.4414 68.9453L52.4414 73.877L62.207 73.877C63.623 73.877 64.7949 75.0977 64.7949 76.5137C64.7949 77.8809 63.5742 79.1504 62.207 79.1504L37.3535 79.1504C35.9375 79.1504 34.7168 77.9297 34.7168 76.5137C34.7168 75.0977 35.9375 73.877 37.3535 73.877L47.168 73.877L47.168 68.9453C37.4512 67.8711 30.9082 60.4492 30.9082 50.5371L30.9082 44.2383C30.9082 42.8711 32.0801 41.6992 33.4473 41.6992C33.5208 41.6992 33.5938 41.7024 33.6657 41.7104ZM51.0907 59.1174C50.6636 59.1941 50.2165 59.2285 49.7559 59.2285C44.9707 59.2285 41.6504 55.5176 41.6504 50.5371L41.6504 49.6869ZM68.6523 44.2383L68.6523 50.5371C68.6523 53.6085 68.0241 56.4361 66.8668 58.9078L62.8565 54.8976C63.2637 53.5518 63.4766 52.0894 63.4766 50.5371L63.4766 44.2383C63.4766 42.8711 64.6484 41.6992 66.0645 41.6992C67.4316 41.6992 68.6523 42.8711 68.6523 44.2383ZM57.8613 29.5898L57.8613 49.9023L41.6504 33.6914L41.6504 29.5898C41.6504 24.6582 44.9707 20.9961 49.7559 20.9961C54.541 20.9961 57.8613 24.6582 57.8613 29.5898Z" fill="#000000" fill-opacity="0.85"/>
  <path d="M71.8262 75C72.6562 75.8301 74.1211 75.8301 74.9512 75C75.8301 74.0723 75.8301 72.7539 74.9512 71.875L27.7344 24.6094C26.8555 23.7305 25.4395 23.7305 24.5605 24.6094C23.6816 25.4395 23.7305 26.9043 24.5605 27.7344Z" fill="#000000" fill-opacity="0.85"/>
 </g>
</svg>
