<?xml version="1.0" encoding="UTF-8"?>
<!--Generator: Apple Native CoreSVG 232.5-->
<!DOCTYPE svg
PUBLIC "-//W3C//DTD SVG 1.1//EN"
       "http://www.w3.org/Graphics/SVG/1.1/DTD/svg11.dtd">
<svg version="1.1" xmlns="http://www.w3.org/2000/svg" xmlns:xlink="http://www.w3.org/1999/xlink" width="95.9351" height="110.498">
 <g>
  <rect height="110.498" opacity="0" width="95.9351" x="0" y="0"/>
  <path d="M20.4285 41.2109L20.4285 50.8301C20.4285 67.4805 31.2683 78.5156 47.9676 78.5156C52.9961 78.5156 57.4977 77.515 61.3211 75.6453L66.5257 80.8397C62.2342 83.2699 57.2207 84.7884 51.6785 85.2539L51.6785 96.6309L69.7937 96.6309C71.8445 96.6309 73.4558 98.291 73.4558 100.342C73.4558 102.393 71.8445 104.004 69.7937 104.004L26.1414 104.004C24.0906 104.004 22.4793 102.393 22.4793 100.342C22.4793 98.291 24.0906 96.6309 26.1414 96.6309L44.3055 96.6309L44.3055 85.2539C25.6531 83.6914 13.0555 70.2637 13.0555 51.123L13.0555 41.2109C13.0555 39.1602 14.6668 37.5488 16.7176 37.5488C18.7683 37.5488 20.4285 39.1602 20.4285 41.2109ZM52.9697 67.31C51.4253 67.7752 49.7501 68.0176 47.9676 68.0176C38.2508 68.0176 31.659 60.7422 31.659 50.3418L31.659 46.0406ZM82.9285 41.2109L82.9285 51.123C82.9285 57.0378 81.7209 62.407 79.4964 67.0446L73.8458 61.4013C74.9726 58.234 75.5555 54.6824 75.5555 50.8301L75.5555 41.2109C75.5555 39.1602 77.1668 37.5488 79.2176 37.5488C81.2683 37.5488 82.9285 39.1602 82.9285 41.2109ZM64.2762 17.6758L64.2762 50.3418C64.2762 50.8329 64.2616 51.3171 64.2188 51.7868L31.659 19.269L31.659 17.6758C31.659 7.22656 38.2508 0 47.9676 0C57.7332 0 64.2762 7.22656 64.2762 17.6758Z" fill="#000000" fill-opacity="0.85"/>
  <path d="M83.8562 90.0879C85.3211 91.5527 87.7137 91.5527 89.1785 90.0879C90.5945 88.5742 90.6433 86.2305 89.1785 84.7656L13.6414 9.27734C12.1765 7.86133 9.73514 7.8125 8.27029 9.27734C6.85428 10.7422 6.85428 13.1836 8.27029 14.5996Z" fill="#000000" fill-opacity="0.85"/>
 </g>
</svg>
