<?xml version="1.0" encoding="UTF-8"?>
<!--Generator: Apple Native CoreSVG 232.5-->
<!DOCTYPE svg
PUBLIC "-//W3C//DTD SVG 1.1//EN"
       "http://www.w3.org/Graphics/SVG/1.1/DTD/svg11.dtd">
<svg version="1.1" xmlns="http://www.w3.org/2000/svg" xmlns:xlink="http://www.w3.org/1999/xlink" width="115.869" height="75.5371">
 <g>
  <rect height="75.5371" opacity="0" width="115.869" x="0" y="0"/>
  <path d="M11.4746 75.5371L104.395 75.5371C111.279 75.5371 115.869 70.9473 115.869 64.0625L115.869 11.5234C115.869 4.63867 111.279 0.0488281 104.395 0.0488281L11.4746 0.0488281C4.58984 0.0488281 0 4.63867 0 11.5234L0 64.0625C0 70.9473 4.58984 75.5371 11.4746 75.5371ZM11.5723 67.6758C9.32617 67.6758 7.86133 66.1133 7.86133 63.7207L7.86133 11.8652C7.86133 9.47266 9.32617 7.91016 11.5723 7.91016L104.297 7.91016C106.543 7.91016 108.008 9.47266 108.008 11.8652L108.008 63.7207C108.008 66.1133 106.543 67.6758 104.297 67.6758ZM18.2129 61.9141L66.2598 61.9141C69.043 61.9141 70.8496 60.1074 70.8496 57.3242L70.8496 18.2617C70.8496 15.4785 69.043 13.6719 66.2598 13.6719L18.2129 13.6719C15.4297 13.6719 13.623 15.4785 13.623 18.2617L13.623 57.3242C13.623 60.1074 15.4297 61.9141 18.2129 61.9141ZM20.3613 56.4941C19.6289 56.4941 19.043 55.957 19.043 55.1758L19.043 20.4102C19.043 19.6289 19.6289 19.0918 20.3613 19.0918L64.1113 19.0918C64.8438 19.0918 65.4297 19.6289 65.4297 20.4102L65.4297 55.1758C65.4297 55.957 64.8438 56.4941 64.1113 56.4941ZM77.1484 71.3379L82.5684 71.3379L82.5684 4.19922L77.1484 4.19922ZM80.127 55.127L112.012 55.127L112.012 49.707L80.127 49.707ZM88.2324 23.1934L102.344 23.1934C102.832 23.1934 103.271 22.8027 103.271 22.3145L103.271 14.5996C103.271 14.1113 102.832 13.6719 102.344 13.6719L88.2324 13.6719C87.7441 13.6719 87.3047 14.1113 87.3047 14.5996L87.3047 22.3145C87.3047 22.8027 87.7441 23.1934 88.2324 23.1934ZM89.7949 31.3477L100.781 31.3477C102.246 31.3477 103.271 30.3711 103.271 28.9062C103.271 27.3926 102.246 26.416 100.781 26.416L89.7949 26.416C88.3301 26.416 87.3047 27.3926 87.3047 28.9062C87.3047 30.3711 88.3301 31.3477 89.7949 31.3477ZM89.7949 39.5996L100.781 39.5996C102.246 39.5996 103.271 38.5742 103.271 37.1094C103.271 35.6445 102.246 34.668 100.781 34.668L89.7949 34.668C88.3301 34.668 87.3047 35.6445 87.3047 37.1094C87.3047 38.5742 88.3301 39.5996 89.7949 39.5996Z" fill="#000000" fill-opacity="0.85"/>
 </g>
</svg>
