<?xml version="1.0" encoding="UTF-8"?>
<!--Generator: Apple Native CoreSVG 232.5-->
<!DOCTYPE svg
PUBLIC "-//W3C//DTD SVG 1.1//EN"
       "http://www.w3.org/Graphics/SVG/1.1/DTD/svg11.dtd">
<svg version="1.1" xmlns="http://www.w3.org/2000/svg" xmlns:xlink="http://www.w3.org/1999/xlink" width="102.295" height="102.393">
 <g>
  <rect height="102.393" opacity="0" width="102.295" x="0" y="0"/>
  <path d="M51.0254 82.0801C68.2617 82.0801 82.0312 68.3105 82.0312 51.123C82.0312 33.9844 68.1641 20.2148 50.9766 20.2148C33.8379 20.2148 20.166 33.9355 20.166 51.123C20.166 68.3594 33.8867 82.0801 51.0254 82.0801ZM51.1719 10.1562C53.9551 10.1562 56.2012 7.91016 56.2012 5.07812C56.2012 2.24609 53.9551 0 51.1719 0C48.3398 0 46.0938 2.24609 46.0938 5.07812C46.0938 7.91016 48.3398 10.1562 51.1719 10.1562ZM74.1699 16.3574C76.9531 16.3574 79.1992 14.1113 79.1992 11.2793C79.1992 8.44727 76.9531 6.20117 74.1699 6.20117C71.3379 6.20117 69.0918 8.44727 69.0918 11.2793C69.0918 14.1113 71.3379 16.3574 74.1699 16.3574ZM91.0645 33.2031C93.8477 33.2031 96.0938 30.957 96.0938 28.125C96.0938 25.293 93.8477 23.0469 91.0645 23.0469C88.2324 23.0469 85.9863 25.293 85.9863 28.125C85.9863 30.957 88.2324 33.2031 91.0645 33.2031ZM97.2656 56.25C100.049 56.25 102.295 54.0039 102.295 51.1719C102.295 48.3398 100.049 46.0938 97.2656 46.0938C94.4336 46.0938 92.1875 48.3398 92.1875 51.1719C92.1875 54.0039 94.4336 56.25 97.2656 56.25ZM91.0645 79.2969C93.8477 79.2969 96.0938 77.0508 96.0938 74.2188C96.0938 71.3867 93.8477 69.1406 91.0645 69.1406C88.2324 69.1406 85.9863 71.3867 85.9863 74.2188C85.9863 77.0508 88.2324 79.2969 91.0645 79.2969ZM74.1699 96.1426C76.9531 96.1426 79.1992 93.8965 79.1992 91.0645C79.1992 88.2324 76.9531 85.9863 74.1699 85.9863C71.3379 85.9863 69.0918 88.2324 69.0918 91.0645C69.0918 93.8965 71.3379 96.1426 74.1699 96.1426ZM51.1719 102.344C53.9551 102.344 56.2012 100.049 56.2012 97.2656C56.2012 94.4336 53.9551 92.1875 51.1719 92.1875C48.3398 92.1875 46.0938 94.4336 46.0938 97.2656C46.0938 100.049 48.3398 102.344 51.1719 102.344ZM28.1738 96.1426C30.957 96.1426 33.252 93.8965 33.252 91.0645C33.252 88.2324 30.957 85.9863 28.1738 85.9863C25.3418 85.9863 23.0957 88.2324 23.0957 91.0645C23.0957 93.8965 25.3418 96.1426 28.1738 96.1426ZM11.2793 79.2969C14.0625 79.2969 16.3574 77.0508 16.3574 74.2188C16.3574 71.3867 14.0625 69.1406 11.2793 69.1406C8.44727 69.1406 6.20117 71.3867 6.20117 74.2188C6.20117 77.0508 8.44727 79.2969 11.2793 79.2969ZM5.07812 56.25C7.91016 56.25 10.1562 54.0039 10.1562 51.1719C10.1562 48.3398 7.91016 46.0938 5.07812 46.0938C2.24609 46.0938 0 48.3398 0 51.1719C0 54.0039 2.24609 56.25 5.07812 56.25ZM11.2793 33.2031C14.0625 33.2031 16.3574 30.957 16.3574 28.125C16.3574 25.293 14.0625 23.0469 11.2793 23.0469C8.44727 23.0469 6.20117 25.293 6.20117 28.125C6.20117 30.957 8.44727 33.2031 11.2793 33.2031ZM28.1738 16.3574C30.957 16.3574 33.252 14.1113 33.252 11.2793C33.252 8.44727 30.957 6.20117 28.1738 6.20117C25.3418 6.20117 23.0957 8.44727 23.0957 11.2793C23.0957 14.1113 25.3418 16.3574 28.1738 16.3574Z" fill="#000000" fill-opacity="0.85"/>
 </g>
</svg>
