<?xml version="1.0" encoding="UTF-8"?>
<!--Generator: Apple Native CoreSVG 232.5-->
<!DOCTYPE svg
PUBLIC "-//W3C//DTD SVG 1.1//EN"
       "http://www.w3.org/Graphics/SVG/1.1/DTD/svg11.dtd">
<svg version="1.1" xmlns="http://www.w3.org/2000/svg" xmlns:xlink="http://www.w3.org/1999/xlink" width="99.6094" height="99.6582">
 <g>
  <rect height="99.6582" opacity="0" width="99.6094" x="0" y="0"/>
  <path d="M49.8047 99.6094C77.0508 99.6094 99.6094 77.002 99.6094 49.8047C99.6094 22.5586 77.002 0 49.7559 0C22.5586 0 0 22.5586 0 49.8047C0 77.002 22.6074 99.6094 49.8047 99.6094ZM49.8047 91.3086C26.7578 91.3086 8.34961 72.8516 8.34961 49.8047C8.34961 26.7578 26.709 8.30078 49.7559 8.30078C72.8027 8.30078 91.3086 26.7578 91.3086 49.8047C91.3086 72.8516 72.8516 91.3086 49.8047 91.3086Z" fill="#000000" fill-opacity="0.85"/>
  <path d="M49.8047 66.6504C59.082 66.6504 66.6504 59.082 66.6504 49.8047C66.6504 40.5273 59.082 32.959 49.8047 32.959C40.5273 32.959 32.959 40.5273 32.959 49.8047C32.959 59.082 40.5273 66.6504 49.8047 66.6504ZM49.8535 28.5156C51.8555 28.5156 53.3203 27.0508 53.3203 25C53.3203 22.998 51.8555 21.5332 49.8535 21.5332C47.8516 21.5332 46.3867 22.998 46.3867 25C46.3867 27.0508 47.8516 28.5156 49.8535 28.5156ZM62.3047 31.7871C64.3066 31.7871 65.7715 30.3223 65.7715 28.3203C65.7715 26.3184 64.3066 24.8535 62.3047 24.8535C60.3027 24.8535 58.8379 26.3184 58.8379 28.3203C58.8379 30.3223 60.3027 31.7871 62.3047 31.7871ZM71.3379 40.8691C73.3398 40.8691 74.8047 39.4043 74.8047 37.4023C74.8047 35.4004 73.3398 33.9355 71.3379 33.9355C69.3359 33.9355 67.8711 35.4004 67.8711 37.4023C67.8711 39.4043 69.3359 40.8691 71.3379 40.8691ZM74.6582 53.2715C76.6602 53.2715 78.125 51.8066 78.125 49.8047C78.125 47.8027 76.6602 46.3379 74.6582 46.3379C72.6562 46.3379 71.1914 47.8027 71.1914 49.8047C71.1914 51.8066 72.6562 53.2715 74.6582 53.2715ZM71.3379 65.6738C73.3398 65.6738 74.8047 64.209 74.8047 62.207C74.8047 60.2051 73.3398 58.7402 71.3379 58.7402C69.3359 58.7402 67.8711 60.2051 67.8711 62.207C67.8711 64.209 69.3359 65.6738 71.3379 65.6738ZM62.3047 74.7559C64.3066 74.7559 65.7715 73.291 65.7715 71.2402C65.7715 69.2383 64.3066 67.7734 62.3047 67.7734C60.3027 67.7734 58.8379 69.2383 58.8379 71.2402C58.8379 73.291 60.3027 74.7559 62.3047 74.7559ZM49.8535 78.0273C51.8555 78.0273 53.3203 76.5625 53.3203 74.5605C53.3203 72.5586 51.8555 71.0938 49.8535 71.0938C47.8516 71.0938 46.3867 72.5586 46.3867 74.5605C46.3867 76.5625 47.8516 78.0273 49.8535 78.0273ZM37.4512 74.7559C39.4531 74.7559 40.918 73.291 40.918 71.2402C40.918 69.2383 39.4531 67.7734 37.4512 67.7734C35.4492 67.7734 33.9844 69.2383 33.9844 71.2402C33.9844 73.291 35.4492 74.7559 37.4512 74.7559ZM28.3691 65.6738C30.4199 65.6738 31.8848 64.209 31.8848 62.207C31.8848 60.2051 30.4199 58.7402 28.3691 58.7402C26.3672 58.7402 24.9023 60.2051 24.9023 62.207C24.9023 64.209 26.3672 65.6738 28.3691 65.6738ZM25.0977 53.2715C27.0996 53.2715 28.5645 51.8066 28.5645 49.8047C28.5645 47.8027 27.0996 46.3379 25.0977 46.3379C23.0957 46.3379 21.6309 47.8027 21.6309 49.8047C21.6309 51.8066 23.0957 53.2715 25.0977 53.2715ZM28.3691 40.8691C30.4199 40.8691 31.8848 39.4043 31.8848 37.4023C31.8848 35.4004 30.4199 33.9355 28.3691 33.9355C26.3672 33.9355 24.9023 35.4004 24.9023 37.4023C24.9023 39.4043 26.3672 40.8691 28.3691 40.8691ZM37.4512 31.7871C39.4531 31.7871 40.918 30.3223 40.918 28.3203C40.918 26.3184 39.4531 24.8535 37.4512 24.8535C35.4492 24.8535 33.9844 26.3184 33.9844 28.3203C33.9844 30.3223 35.4492 31.7871 37.4512 31.7871Z" fill="#000000" fill-opacity="0.85"/>
 </g>
</svg>
