<?xml version="1.0" encoding="UTF-8"?>
<!--Generator: Apple Native CoreSVG 232.5-->
<!DOCTYPE svg
PUBLIC "-//W3C//DTD SVG 1.1//EN"
       "http://www.w3.org/Graphics/SVG/1.1/DTD/svg11.dtd">
<svg version="1.1" xmlns="http://www.w3.org/2000/svg" xmlns:xlink="http://www.w3.org/1999/xlink" width="113.818" height="73.584">
 <g>
  <rect height="73.584" opacity="0" width="113.818" x="0" y="0"/>
  <path d="M9.81445 73.584L77.0508 73.584L77.0508 0.0488281L9.81445 0.0488281C3.95508 0.0488281 0 4.10156 0 10.2539L0 63.3789C0 69.5312 3.95508 73.584 9.81445 73.584ZM14.9902 61.7188C12.1094 61.7188 10.2539 59.8633 10.2539 56.9824L10.2539 16.6504C10.2539 13.7695 12.1094 11.9141 14.9902 11.9141L63.5742 11.9141C66.4551 11.9141 68.3105 13.7695 68.3105 16.6504L68.3105 56.9824C68.3105 59.8633 66.4551 61.7188 63.5742 61.7188ZM16.9922 56.2988L61.5234 56.2988C62.3047 56.2988 62.8906 55.7617 62.8906 54.9805L62.8906 18.6523C62.8906 17.8711 62.3047 17.334 61.5234 17.334L16.9922 17.334C16.2598 17.334 15.6738 17.8711 15.6738 18.6523L15.6738 54.9805C15.6738 55.7617 16.2598 56.2988 16.9922 56.2988ZM82.4707 50.7812L113.818 50.7812L113.818 10.2539C113.818 4.10156 109.863 0.0488281 104.004 0.0488281L82.4707 0.0488281ZM90.5273 21.7285C89.9902 21.7285 89.5508 21.3379 89.5508 20.8008L89.5508 12.8906C89.5508 12.4023 89.9902 11.9141 90.5273 11.9141L105.029 11.9141C105.566 11.9141 106.006 12.4023 106.006 12.8906L106.006 20.8008C106.006 21.3379 105.566 21.7285 105.029 21.7285ZM92.1387 30.6641C90.625 30.6641 89.5508 29.6387 89.5508 28.125C89.5508 26.5625 90.625 25.5371 92.1387 25.5371L103.418 25.5371C104.932 25.5371 106.006 26.5625 106.006 28.125C106.006 29.6387 104.932 30.6641 103.418 30.6641ZM92.1387 39.6484C90.625 39.6484 89.5508 38.623 89.5508 37.0605C89.5508 35.5469 90.625 34.5703 92.1387 34.5703L103.418 34.5703C104.932 34.5703 106.006 35.5469 106.006 37.0605C106.006 38.623 104.932 39.6484 103.418 39.6484ZM82.4707 73.584L104.004 73.584C109.863 73.584 113.818 69.5312 113.818 63.3789L113.818 56.2012L82.4707 56.2012Z" fill="#000000" fill-opacity="0.85"/>
 </g>
</svg>
