<?xml version="1.0" encoding="UTF-8"?>
<!--Generator: Apple Native CoreSVG 232.5-->
<!DOCTYPE svg
PUBLIC "-//W3C//DTD SVG 1.1//EN"
       "http://www.w3.org/Graphics/SVG/1.1/DTD/svg11.dtd">
<svg version="1.1" xmlns="http://www.w3.org/2000/svg" xmlns:xlink="http://www.w3.org/1999/xlink" width="89.8926" height="89.9902">
 <g>
  <rect height="89.9902" opacity="0" width="89.8926" x="0" y="0"/>
  <path d="M15.332 89.9902L74.5605 89.9902C84.8145 89.9902 89.8926 84.9121 89.8926 74.8535L89.8926 15.2344C89.8926 5.17578 84.8145 0.0976562 74.5605 0.0976562L15.332 0.0976562C5.12695 0.0976562 0 5.12695 0 15.2344L0 74.8535C0 84.9609 5.12695 89.9902 15.332 89.9902ZM15.4297 82.1289C10.5469 82.1289 7.86133 79.541 7.86133 74.4629L7.86133 15.625C7.86133 10.5469 10.5469 7.95898 15.4297 7.95898L74.4629 7.95898C79.2969 7.95898 82.0312 10.5469 82.0312 15.625L82.0312 74.4629C82.0312 79.541 79.2969 82.1289 74.4629 82.1289Z" fill="#000000" fill-opacity="0.85"/>
  <path d="M29.4434 62.5977C31.2012 62.5977 32.4707 61.377 32.4707 59.5215L32.4707 40.1855C32.4707 36.5723 34.3262 34.1797 37.4512 34.1797C40.1367 34.1797 42.041 36.3281 42.041 39.4043L42.041 41.3574L31.7871 69.7754C31.5918 70.2148 31.4941 70.6543 31.4941 71.1426C31.4941 72.4121 32.4707 73.3887 33.7891 73.3887C34.9121 73.3887 35.6934 72.7539 36.1328 71.6309L42.041 55.1758L42.041 59.5215C42.041 61.377 43.3105 62.5977 45.0684 62.5977C46.8262 62.5977 48.0469 61.377 48.0469 59.5215L48.0469 39.9414C48.0469 36.4258 49.9023 34.2285 52.9297 34.2285C55.9082 34.2285 57.666 36.3281 57.666 39.7461L57.666 59.5215C57.666 61.377 58.8867 62.5977 60.6445 62.5977C62.4023 62.5977 63.6719 61.377 63.6719 59.5215L63.6719 39.2578C63.6719 32.7148 60.0098 28.7598 54.3457 28.7598C53.5645 28.7598 52.832 28.9062 52.1973 29.1504L55.9082 20.1172C56.0547 19.7266 56.2012 19.2871 56.2012 18.7988C56.2012 17.5293 55.1758 16.6016 53.8574 16.6016C52.7344 16.6016 52.002 17.2363 51.5625 18.3105L45.6055 32.8613C44.2383 30.0781 41.7969 28.7598 38.7207 28.7598C35.9375 28.7598 33.6426 29.9805 32.1777 32.666L32.1777 32.0801C32.1777 29.9805 30.957 28.9062 29.2969 28.9062C27.5879 28.9062 26.3672 30.127 26.3672 31.9336L26.3672 59.6191C26.3672 61.377 27.6367 62.5977 29.4434 62.5977Z" fill="#000000" fill-opacity="0.85"/>
 </g>
</svg>
