<?xml version="1.0" encoding="UTF-8"?>
<!--Generator: Apple Native CoreSVG 232.5-->
<!DOCTYPE svg
PUBLIC "-//W3C//DTD SVG 1.1//EN"
       "http://www.w3.org/Graphics/SVG/1.1/DTD/svg11.dtd">
<svg version="1.1" xmlns="http://www.w3.org/2000/svg" xmlns:xlink="http://www.w3.org/1999/xlink" width="109.095" height="99.6582">
 <g>
  <rect height="99.6582" opacity="0" width="109.095" x="0" y="0"/>
  <path d="M59.2839 99.6094C86.4812 99.6094 109.089 77.002 109.089 49.8047C109.089 22.5586 86.4812 0 59.2839 0C32.0378 0 9.47924 22.5098 9.47924 49.7559L17.78 49.7559C17.78 26.709 36.2371 8.34961 59.2839 8.34961C82.3308 8.34961 100.788 26.7578 100.788 49.8047C100.788 72.8516 82.3308 91.4062 59.2839 91.3086C45.3679 91.2598 33.1609 84.5215 25.6902 74.1211C24.1765 72.1191 21.8816 71.4844 19.8308 72.7051C17.8777 73.9258 17.3406 76.6113 19.0007 78.7598C28.2781 91.2109 42.8289 99.6094 59.2839 99.6094ZM3.47339 40.3809C-0.04224 40.3809-0.921146 42.7734 0.983151 45.5078L11.9207 61.0352C13.532 63.2812 15.8757 63.2324 17.4382 61.0352L28.3757 45.459C30.2312 42.7734 29.3523 40.3809 25.8855 40.3809Z" fill="#000000" fill-opacity="0.85"/>
  <path d="M43.7566 67.4316C45.5144 67.4316 46.7351 66.2109 46.7351 64.3555L46.7351 45.0195C46.7351 41.4062 48.6394 39.0137 51.7156 39.0137C54.4011 39.0137 56.3054 41.1621 56.3054 44.2383L56.3054 46.1914L46.0515 74.6094C45.905 75.0488 45.8074 75.4883 45.8074 75.9766C45.8074 77.2461 46.7839 78.2227 48.1023 78.2227C49.1765 78.2227 50.0066 77.5879 50.3972 76.4648L56.3542 60.0098L56.3542 64.3555C56.3542 66.2109 57.5749 67.4316 59.3328 67.4316C61.0906 67.4316 62.3601 66.2109 62.3601 64.3555L62.3601 44.7754C62.3601 41.2598 64.2156 39.0625 67.2429 39.0625C70.2214 39.0625 71.9304 41.1621 71.9304 44.5801L71.9304 64.3555C71.9304 66.2109 73.1999 67.4316 74.9578 67.4316C76.7156 67.4316 77.9363 66.2109 77.9363 64.3555L77.9363 44.0918C77.9363 37.5488 74.2742 33.5938 68.6101 33.5938C67.8289 33.5938 67.1453 33.7402 66.4617 33.9844L70.2214 24.9512C70.3679 24.5605 70.4656 24.1211 70.4656 23.6328C70.4656 22.3633 69.4402 21.4355 68.1218 21.4355C67.0476 21.4355 66.2664 22.0703 65.8269 23.1445L59.9187 37.6953C58.5027 34.9121 56.0613 33.5938 52.9851 33.5938C50.2507 33.5938 47.907 34.8145 46.4421 37.5L46.4421 36.9141C46.4421 34.8145 45.2703 33.7402 43.5613 33.7402C41.8523 33.7402 40.6804 34.9609 40.6804 36.7676L40.6804 64.4531C40.6804 66.2109 41.9499 67.4316 43.7566 67.4316Z" fill="#000000" fill-opacity="0.85"/>
 </g>
</svg>
