<?xml version="1.0" encoding="UTF-8"?>
<!--Generator: Apple Native CoreSVG 232.5-->
<!DOCTYPE svg
PUBLIC "-//W3C//DTD SVG 1.1//EN"
       "http://www.w3.org/Graphics/SVG/1.1/DTD/svg11.dtd">
<svg version="1.1" xmlns="http://www.w3.org/2000/svg" xmlns:xlink="http://www.w3.org/1999/xlink" width="99.6094" height="99.6582">
 <g>
  <rect height="99.6582" opacity="0" width="99.6094" x="0" y="0"/>
  <path d="M49.8047 99.6094C77.0508 99.6094 99.6094 77.002 99.6094 49.8047C99.6094 22.5586 77.002 0 49.7559 0C22.5586 0 0 22.5586 0 49.8047C0 77.002 22.6074 99.6094 49.8047 99.6094ZM49.8047 91.3086C26.7578 91.3086 8.34961 72.8516 8.34961 49.8047C8.34961 26.7578 26.709 8.30078 49.7559 8.30078C72.8027 8.30078 91.3086 26.7578 91.3086 49.8047C91.3086 72.8516 72.8516 91.3086 49.8047 91.3086Z" fill="#000000" fill-opacity="0.85"/>
  <path d="M34.2285 67.4316C35.9863 67.4316 37.207 66.2109 37.207 64.3555L37.207 45.0195C37.207 41.4062 39.1113 39.0137 42.2363 39.0137C44.9219 39.0137 46.8262 41.1621 46.8262 44.2383L46.8262 46.1914L36.5723 74.6094C36.377 75.0488 36.2793 75.4883 36.2793 75.9766C36.2793 77.2461 37.2559 78.2227 38.5742 78.2227C39.6973 78.2227 40.4785 77.5879 40.918 76.4648L46.8262 60.0098L46.8262 64.3555C46.8262 66.2109 48.0469 67.4316 49.8047 67.4316C51.6113 67.4316 52.832 66.2109 52.832 64.3555L52.832 44.7754C52.832 41.2598 54.6875 39.0625 57.7148 39.0625C60.6934 39.0625 62.4512 41.1621 62.4512 44.5801L62.4512 64.3555C62.4512 66.2109 63.6719 67.4316 65.4297 67.4316C67.1875 67.4316 68.457 66.2109 68.457 64.3555L68.457 44.0918C68.457 37.5488 64.7949 33.5938 59.1309 33.5938C58.3008 33.5938 57.6172 33.7402 56.9824 33.9844L60.6934 24.9512C60.8398 24.5605 60.9863 24.1211 60.9863 23.6328C60.9863 22.3633 59.9121 21.4355 58.5938 21.4355C57.5195 21.4355 56.7871 22.0703 56.3477 23.1445L50.3906 37.6953C48.9746 34.9121 46.582 33.5938 43.457 33.5938C40.7227 33.5938 38.4277 34.8145 36.9629 37.5L36.9629 36.9141C36.9629 34.8145 35.7422 33.7402 34.082 33.7402C32.373 33.7402 31.1523 34.9609 31.1523 36.7676L31.1523 64.4531C31.1523 66.2109 32.4219 67.4316 34.2285 67.4316Z" fill="#000000" fill-opacity="0.85"/>
 </g>
</svg>
