<?xml version="1.0" encoding="UTF-8"?>
<!--Generator: Apple Native CoreSVG 232.5-->
<!DOCTYPE svg
PUBLIC "-//W3C//DTD SVG 1.1//EN"
       "http://www.w3.org/Graphics/SVG/1.1/DTD/svg11.dtd">
<svg version="1.1" xmlns="http://www.w3.org/2000/svg" xmlns:xlink="http://www.w3.org/1999/xlink" width="99.6094" height="99.6582">
 <g>
  <rect height="99.6582" opacity="0" width="99.6094" x="0" y="0"/>
  <path d="M99.6094 49.8047C99.6094 77.002 77.0508 99.6094 49.8047 99.6094C22.6074 99.6094 0 77.002 0 49.8047C0 22.5586 22.5586 0 49.7559 0C77.002 0 99.6094 22.5586 99.6094 49.8047ZM56.5918 22.3145L50.4395 37.3047C49.0234 34.4238 46.5332 33.0566 43.3105 33.0566C40.4785 33.0566 38.1348 34.3262 36.6211 37.1094L36.6211 36.5234C36.6211 34.3262 35.3516 33.2031 33.6426 33.2031C31.8848 33.2031 30.6152 34.4727 30.6152 36.377L30.6152 64.9414C30.6152 66.748 31.9336 68.0176 33.7891 68.0176C35.5957 68.0176 36.8652 66.748 36.8652 64.7949L36.8652 44.8242C36.8652 41.1621 38.8184 38.6719 42.041 38.6719C44.8242 38.6719 46.7773 40.918 46.7773 44.043L46.7773 46.0938L36.1816 75.3906C35.9863 75.8301 35.8887 76.3184 35.8887 76.8066C35.8887 78.125 36.9141 79.1504 38.2812 79.1504C39.4043 79.1504 40.2344 78.4668 40.6738 77.2949L46.7773 60.4004L46.7773 64.7949C46.7773 66.748 48.0469 68.0176 49.8535 68.0176C51.709 68.0176 52.9785 66.748 52.9785 64.7949L52.9785 44.5801C52.9785 41.0156 54.8828 38.7207 58.0078 38.7207C61.084 38.7207 62.8906 40.918 62.8906 44.3848L62.8906 64.7949C62.8906 66.748 64.1602 68.0176 65.9668 68.0176C67.7734 68.0176 69.0918 66.748 69.0918 64.7949L69.0918 43.8965C69.0918 37.1582 65.332 33.0566 59.4727 33.0566C58.6426 33.0566 57.959 33.2031 57.2754 33.4473L61.1328 24.1699C61.2793 23.7793 61.4258 23.291 61.4258 22.8027C61.4258 21.4844 60.3027 20.5078 58.9355 20.5078C57.8125 20.5078 57.0801 21.1914 56.5918 22.3145Z" fill="#000000" fill-opacity="0.85"/>
 </g>
</svg>
