<?xml version="1.0" encoding="UTF-8"?>
<!--Generator: Apple Native CoreSVG 232.5-->
<!DOCTYPE svg
PUBLIC "-//W3C//DTD SVG 1.1//EN"
       "http://www.w3.org/Graphics/SVG/1.1/DTD/svg11.dtd">
<svg version="1.1" xmlns="http://www.w3.org/2000/svg" xmlns:xlink="http://www.w3.org/1999/xlink" width="89.8926" height="89.9902">
 <g>
  <rect height="89.9902" opacity="0" width="89.8926" x="0" y="0"/>
  <path d="M89.8926 15.2344L89.8926 74.8535C89.8926 84.9121 84.8145 89.9902 74.5605 89.9902L15.332 89.9902C5.12695 89.9902 0 84.9609 0 74.8535L0 15.2344C0 5.12695 5.12695 0.0976562 15.332 0.0976562L74.5605 0.0976562C84.8145 0.0976562 89.8926 5.17578 89.8926 15.2344ZM51.7578 17.4805L45.6055 32.4707C44.2383 29.5898 41.6992 28.2227 38.5254 28.2227C35.6445 28.2227 33.3008 29.4922 31.7871 32.2754L31.7871 31.6895C31.7871 29.4922 30.5176 28.3691 28.8086 28.3691C27.0508 28.3691 25.7812 29.6387 25.7812 31.543L25.7812 60.1074C25.7812 61.9141 27.0996 63.1836 28.9551 63.1836C30.7617 63.1836 32.0801 61.9141 32.0801 59.9609L32.0801 39.9902C32.0801 36.3281 33.9844 33.8379 37.207 33.8379C39.9902 33.8379 41.9434 36.084 41.9434 39.209L41.9434 41.2598L31.3477 70.5566C31.1523 70.9961 31.0547 71.4844 31.0547 71.9727C31.0547 73.291 32.0801 74.3164 33.4473 74.3164C34.5703 74.3164 35.4004 73.6328 35.8398 72.4609L41.9434 55.5664L41.9434 59.9609C41.9434 61.9141 43.2617 63.1836 45.0684 63.1836C46.875 63.1836 48.1445 61.9141 48.1445 59.9609L48.1445 39.7461C48.1445 36.1816 50.0488 33.8867 53.1738 33.8867C56.25 33.8867 58.0566 36.084 58.0566 39.5508L58.0566 59.9609C58.0566 61.9141 59.3262 63.1836 61.1328 63.1836C62.9395 63.1836 64.2578 61.9141 64.2578 59.9609L64.2578 39.0625C64.2578 32.3242 60.498 28.2227 54.6387 28.2227C53.8574 28.2227 53.125 28.3691 52.4414 28.6133L56.2988 19.3359C56.4453 18.9453 56.5918 18.457 56.5918 17.9688C56.5918 16.6504 55.5176 15.6738 54.1504 15.6738C52.9785 15.6738 52.2461 16.3574 51.7578 17.4805Z" fill="#000000" fill-opacity="0.85"/>
 </g>
</svg>
