<?xml version="1.0" encoding="UTF-8"?>
<!--Generator: Apple Native CoreSVG 232.5-->
<!DOCTYPE svg
PUBLIC "-//W3C//DTD SVG 1.1//EN"
       "http://www.w3.org/Graphics/SVG/1.1/DTD/svg11.dtd">
<svg version="1.1" xmlns="http://www.w3.org/2000/svg" xmlns:xlink="http://www.w3.org/1999/xlink" width="70.0684" height="114.209">
 <g>
  <rect height="114.209" opacity="0" width="70.0684" x="0" y="0"/>
  <path d="M4.3457 89.2578C7.08008 89.2578 8.78906 87.4023 8.78906 84.7656L8.78906 49.1699C8.78906 40.5273 13.1348 33.5449 20.459 33.5449C27.3926 33.5449 30.6152 38.916 30.6152 46.0938L30.6152 84.7656C30.6152 87.4023 32.2754 89.2578 34.9609 89.2578C37.6953 89.2578 39.4043 87.4023 39.4043 84.7656L39.4043 48.1934C39.4043 39.8926 43.6523 33.5449 50.9766 33.5449C58.252 33.5449 61.2793 38.8672 61.2793 46.875L61.2793 84.7656C61.2793 87.4023 62.9395 89.2578 65.625 89.2578C68.3594 89.2578 70.0684 87.4023 70.0684 84.7656L70.0684 44.9219C70.0684 33.5938 63.916 25.7812 53.1738 25.7812C45.1172 25.7812 39.0625 30.5664 37.3535 37.8906L37.1582 37.8906C35.5957 30.3223 30.6641 25.7812 22.6074 25.7812C15.2344 25.7812 10.2051 30.4688 8.49609 37.5L8.30078 37.5L8.30078 30.4199C8.30078 27.832 6.49414 26.0254 4.15039 26.0254C1.66016 26.0254 0 27.832 0 30.4199L0 84.7656C0 87.4023 1.66016 89.2578 4.3457 89.2578ZM7.37305 114.209C9.13086 114.209 9.96094 113.184 10.5957 111.67L54.9316 6.73828C55.2246 6.15234 55.3711 5.41992 55.3711 4.83398C55.3711 3.07617 54.1016 1.95312 52.3438 1.95312C50.7324 1.95312 49.8047 2.97852 49.1699 4.49219L4.83398 109.473C4.54102 110.01 4.39453 110.742 4.39453 111.377C4.39453 113.135 5.66406 114.209 7.37305 114.209Z" fill="#000000" fill-opacity="0.85"/>
 </g>
</svg>
