<?xml version="1.0" encoding="UTF-8"?>
<!--Generator: Apple Native CoreSVG 232.5-->
<!DOCTYPE svg
PUBLIC "-//W3C//DTD SVG 1.1//EN"
       "http://www.w3.org/Graphics/SVG/1.1/DTD/svg11.dtd">
<svg version="1.1" xmlns="http://www.w3.org/2000/svg" xmlns:xlink="http://www.w3.org/1999/xlink" width="115.137" height="89.9902">
 <g>
  <rect height="89.9902" opacity="0" width="115.137" x="0" y="0"/>
  <path d="M24.9512 52.1484L45.3125 52.1484C47.3145 52.1484 48.877 50.5859 48.877 48.584C48.877 46.582 47.3145 44.9707 45.3125 44.9707L24.9512 44.9707C22.9492 44.9707 21.3379 46.582 21.3379 48.584C21.3379 50.5859 22.9492 52.1484 24.9512 52.1484ZM79.9316 63.2812C81.9336 63.2812 83.4961 61.7188 83.4961 59.7168L83.4961 52.1484L91.0645 52.1484C93.0664 52.1484 94.6777 50.5859 94.6777 48.584C94.6777 46.582 93.0664 44.9707 91.0645 44.9707L83.4961 44.9707L83.4961 37.4023C83.4961 35.4004 81.9336 33.8379 79.9316 33.8379C77.9297 33.8379 76.3184 35.4004 76.3184 37.4023L76.3184 44.9707L68.75 44.9707C66.748 44.9707 65.1855 46.582 65.1855 48.584C65.1855 50.5859 66.748 52.1484 68.75 52.1484L76.3184 52.1484L76.3184 59.7168C76.3184 61.7188 77.9297 63.2812 79.9316 63.2812ZM12.5977 86.3281L102.686 86.3281C108.545 86.3281 112.402 82.1777 112.402 76.123L112.402 74.4141C107.422 74.3164 103.271 72.3633 100.586 69.3359C99.5117 68.0664 98.291 68.1152 97.2168 69.3359C94.2871 72.6074 89.8926 74.4629 85.1562 74.4629C80.4199 74.4629 76.0254 72.6074 73.0957 69.3359C72.0215 68.1152 70.8008 68.0664 69.7266 69.3359C66.9434 72.4609 62.5 74.4629 57.5684 74.4629C52.6367 74.4629 48.1934 72.4609 45.4102 69.3359C44.3359 68.0664 43.1641 68.1152 42.041 69.3359C39.1113 72.6074 34.7168 74.4629 29.9805 74.4629C25.2441 74.4629 20.8984 72.6074 17.9199 69.3359C16.8457 68.1152 15.625 68.0664 14.5508 69.3359C11.8652 72.3633 7.76367 74.3164 2.73438 74.4141L2.73438 76.123C2.73438 82.1777 6.5918 86.3281 12.5977 86.3281ZM15.332 89.8926L99.8047 89.8926C110.059 89.8926 115.137 84.8633 115.137 74.8047L115.137 27.5879C115.137 17.5293 110.059 12.5 99.8047 12.5L93.0664 12.5L93.0664 5.95703C93.0664 2.24609 90.918 0 87.1582 0L72.7539 0C69.043 0 66.8945 2.24609 66.8945 5.95703L66.8945 12.5L48.291 12.5L48.291 5.95703C48.291 2.24609 46.1426 0 42.3828 0L27.9785 0C24.2188 0 22.1191 2.24609 22.1191 5.95703L22.1191 12.5L15.332 12.5C5.12695 12.5 0 17.5293 0 27.5879L0 74.8047C0 84.8633 5.12695 89.8926 15.332 89.8926ZM7.86133 74.3652L7.86133 28.0273C7.86133 22.9492 10.5469 20.3613 15.4297 20.3613L99.707 20.3613C104.541 20.3613 107.275 22.9492 107.275 28.0273L107.275 74.3652C107.275 79.4434 104.541 82.0312 99.707 82.0312L15.4297 82.0312C10.5469 82.0312 7.86133 79.4434 7.86133 74.3652Z" fill="#000000" fill-opacity="0.85"/>
 </g>
</svg>
