<?xml version="1.0" encoding="UTF-8"?>
<!--Generator: Apple Native CoreSVG 232.5-->
<!DOCTYPE svg
PUBLIC "-//W3C//DTD SVG 1.1//EN"
       "http://www.w3.org/Graphics/SVG/1.1/DTD/svg11.dtd">
<svg version="1.1" xmlns="http://www.w3.org/2000/svg" xmlns:xlink="http://www.w3.org/1999/xlink" width="118.018" height="108.252">
 <g>
  <rect height="108.252" opacity="0" width="118.018" x="0" y="0"/>
  <path d="M82.959 108.154L35.0586 108.154C30.8821 108.154 28.3743 105.899 28.1923 101.904L89.8253 101.904C89.6433 105.899 87.1355 108.154 82.959 108.154Z" fill="#000000" fill-opacity="0.85"/>
  <path d="M90.9668 95.2637L27.0996 95.2637C21.9139 95.2637 18.7398 92.6485 18.2075 87.9587C19.7774 88.2071 21.4426 88.3301 23.1934 88.3301L94.8242 88.3301C96.5755 88.3301 98.2413 88.2063 99.8116 87.9567C99.2873 92.6478 96.1533 95.2637 90.9668 95.2637Z" fill="#000000" fill-opacity="0.85"/>
  <path d="M23.1934 10.7422C12.9883 10.7422 7.86133 15.7715 7.86133 25.8789L7.86133 65.332C7.86133 75.4395 12.9883 80.4688 23.1934 80.4688L94.8242 80.4688C105.029 80.4688 110.156 75.3906 110.156 65.332L110.156 25.8789C110.156 15.8203 105.029 10.7422 94.8242 10.7422L90.5762 10.7422L90.5762 5.27344C90.5762 1.95312 88.6719 0 85.3027 0L72.5586 0C69.1895 0 67.2852 1.95312 67.2852 5.27344L67.2852 10.7422L50.7812 10.7422L50.7812 5.27344C50.7812 1.95312 48.877 0 45.5566 0L32.7148 0C29.4434 0 27.5391 1.95312 27.5391 5.27344L27.5391 10.7422ZM23.3398 18.6035L94.7266 18.6035C99.5117 18.6035 102.295 21.2402 102.295 26.2695L102.295 64.9414C102.295 69.9707 99.5117 72.6074 94.7266 72.6074L23.3398 72.6074C18.457 72.6074 15.7227 69.9707 15.7227 64.9414L15.7227 26.2695C15.7227 21.2402 18.457 18.6035 23.3398 18.6035ZM30.3711 48.7305L47.9492 48.7305C49.707 48.7305 51.123 47.2656 51.123 45.459C51.123 43.7012 49.707 42.2852 47.9492 42.2852L30.3711 42.2852C28.5645 42.2852 27.1973 43.7012 27.1973 45.459C27.1973 47.2656 28.5645 48.7305 30.3711 48.7305ZM78.9551 58.5938C80.7617 58.5938 82.1289 57.1777 82.1289 55.3711L82.1289 48.7305L88.8184 48.7305C90.5762 48.7305 92.041 47.2656 92.041 45.459C92.041 43.7012 90.5762 42.2852 88.8184 42.2852L82.1289 42.2852L82.1289 35.5957C82.1289 33.7891 80.7617 32.4219 78.9551 32.4219C77.1484 32.4219 75.7324 33.7891 75.7324 35.5957L75.7324 42.2852L69.043 42.2852C67.2363 42.2852 65.8203 43.7012 65.8203 45.459C65.8203 47.2656 67.2852 48.7305 69.043 48.7305L75.7324 48.7305L75.7324 55.3711C75.7324 57.1777 77.1484 58.5938 78.9551 58.5938Z" fill="#000000" fill-opacity="0.85"/>
 </g>
</svg>
