<?xml version="1.0" encoding="UTF-8"?>
<!--Generator: Apple Native CoreSVG 232.5-->
<!DOCTYPE svg
PUBLIC "-//W3C//DTD SVG 1.1//EN"
       "http://www.w3.org/Graphics/SVG/1.1/DTD/svg11.dtd">
<svg version="1.1" xmlns="http://www.w3.org/2000/svg" xmlns:xlink="http://www.w3.org/1999/xlink" width="110.755" height="110.804">
 <g>
  <rect height="110.804" opacity="0" width="110.755" x="0" y="0"/>
  <path d="M66.2174 5.47524L105.28 44.5377C112.506 51.7643 112.555 58.942 105.426 66.0709L66.1198 105.426C58.942 112.555 51.8131 112.506 44.5866 105.28L5.47524 66.1686C-1.75132 58.942-1.84898 51.8131 5.32876 44.6354L44.6842 5.32876C51.862-1.84898 58.9909-1.75132 66.2174 5.47524ZM35.6999 51.1784C32.7702 51.1784 30.8659 52.7409 30.8659 55.4752C30.8659 58.1608 32.8678 59.6745 35.6999 59.6745L75.153 59.6745C77.985 59.6745 79.9381 58.1608 79.9381 55.4752C79.9381 52.7409 78.1315 51.1784 75.153 51.1784Z" fill="#000000" fill-opacity="0.85"/>
 </g>
</svg>
