<?xml version="1.0" encoding="UTF-8"?>
<!--Generator: Apple Native CoreSVG 232.5-->
<!DOCTYPE svg
PUBLIC "-//W3C//DTD SVG 1.1//EN"
       "http://www.w3.org/Graphics/SVG/1.1/DTD/svg11.dtd">
<svg version="1.1" xmlns="http://www.w3.org/2000/svg" xmlns:xlink="http://www.w3.org/1999/xlink" width="115.137" height="89.8926">
 <g>
  <rect height="89.8926" opacity="0" width="115.137" x="0" y="0"/>
  <path d="M15.332 89.8926L99.8047 89.8926C110.059 89.8926 115.137 84.8633 115.137 74.8047L115.137 15.1367C115.137 5.07812 110.059 0 99.8047 0L15.332 0C5.12695 0 0 5.07812 0 15.1367L0 74.8047C0 84.8633 5.12695 89.8926 15.332 89.8926ZM15.4297 82.0312C10.5469 82.0312 7.86133 79.4434 7.86133 74.3652L7.86133 15.5762C7.86133 10.498 10.5469 7.86133 15.4297 7.86133L99.707 7.86133C104.541 7.86133 107.275 10.498 107.275 15.5762L107.275 74.3652C107.275 79.4434 104.541 82.0312 99.707 82.0312Z" fill="#000000" fill-opacity="0.85"/>
  <path d="M38.4766 49.0723L76.7578 49.0723C79.4922 49.0723 81.3965 47.6074 81.3965 45.0195C81.3965 42.3828 79.6387 40.8691 76.7578 40.8691L38.4766 40.8691C35.6445 40.8691 33.7891 42.3828 33.7891 45.0195C33.7891 47.6074 35.7422 49.0723 38.4766 49.0723Z" fill="#000000" fill-opacity="0.85"/>
 </g>
</svg>
