<?xml version="1.0" encoding="UTF-8"?>
<!--Generator: Apple Native CoreSVG 232.5-->
<!DOCTYPE svg
PUBLIC "-//W3C//DTD SVG 1.1//EN"
       "http://www.w3.org/Graphics/SVG/1.1/DTD/svg11.dtd">
<svg version="1.1" xmlns="http://www.w3.org/2000/svg" xmlns:xlink="http://www.w3.org/1999/xlink" width="115.137" height="89.9902">
 <g>
  <rect height="89.9902" opacity="0" width="115.137" x="0" y="0"/>
  <path d="M15.332 89.8926L99.8047 89.8926C110.059 89.8926 115.137 84.8633 115.137 74.8047L115.137 27.5879C115.137 17.5293 110.059 12.5 99.8047 12.5L93.0664 12.5L93.0664 5.95703C93.0664 2.24609 90.918 0 87.1582 0L72.7539 0C69.043 0 66.8945 2.24609 66.8945 5.95703L66.8945 12.5L48.291 12.5L48.291 5.95703C48.291 2.24609 46.1426 0 42.3828 0L27.9785 0C24.2188 0 22.1191 2.24609 22.1191 5.95703L22.1191 12.5L15.332 12.5C5.12695 12.5 0 17.5293 0 27.5879L0 74.8047C0 84.8633 5.12695 89.8926 15.332 89.8926ZM7.86133 74.3652L7.86133 28.0273C7.86133 22.9492 10.5469 20.3613 15.4297 20.3613L99.707 20.3613C104.541 20.3613 107.275 22.9492 107.275 28.0273L107.275 74.3652C107.275 79.4434 104.541 82.0312 99.707 82.0312L15.4297 82.0312C10.5469 82.0312 7.86133 79.4434 7.86133 74.3652Z" fill="#000000" fill-opacity="0.85"/>
  <path d="M24.9512 54.7852L45.3125 54.7852C47.3145 54.7852 48.877 53.2227 48.877 51.2207C48.877 49.1699 47.3145 47.6074 45.3125 47.6074L24.9512 47.6074C22.9492 47.6074 21.3379 49.1699 21.3379 51.2207C21.3379 53.2227 22.9492 54.7852 24.9512 54.7852ZM79.9316 65.918C81.9336 65.918 83.4961 64.3555 83.4961 62.3535L83.4961 54.7852L91.0645 54.7852C93.0664 54.7852 94.6777 53.2227 94.6777 51.2207C94.6777 49.1699 93.0664 47.6074 91.0645 47.6074L83.4961 47.6074L83.4961 40.0391C83.4961 38.0371 81.9336 36.4258 79.9316 36.4258C77.9297 36.4258 76.3184 38.0371 76.3184 40.0391L76.3184 47.6074L68.75 47.6074C66.748 47.6074 65.1855 49.1699 65.1855 51.2207C65.1855 53.2227 66.748 54.7852 68.75 54.7852L76.3184 54.7852L76.3184 62.3535C76.3184 64.3555 77.9297 65.918 79.9316 65.918Z" fill="#000000" fill-opacity="0.85"/>
 </g>
</svg>
