<?xml version="1.0" encoding="UTF-8"?>
<!--Generator: Apple Native CoreSVG 232.5-->
<!DOCTYPE svg
PUBLIC "-//W3C//DTD SVG 1.1//EN"
       "http://www.w3.org/Graphics/SVG/1.1/DTD/svg11.dtd">
<svg version="1.1" xmlns="http://www.w3.org/2000/svg" xmlns:xlink="http://www.w3.org/1999/xlink" width="166.309" height="75.6348">
 <g>
  <rect height="75.6348" opacity="0" width="166.309" x="0" y="0"/>
  <path d="M133.496 19.1406L132.031 33.4473C131.641 37.2559 133.643 39.0137 137.744 39.0137L150.342 39.0137C153.711 39.0137 156.104 41.4551 156.104 44.7754L156.104 68.1641C156.104 73.3887 152.051 75.4883 146.973 74.2188C140.967 72.7051 134.57 71.9727 127.051 71.9727L52.8809 71.9727C35.2498 71.9727 23.9037 64.2561 20.8546 49.4141L29.0792 49.4141C32.0442 59.0841 40.3905 64.1113 52.7344 64.1113L108.447 64.1113C117.432 64.1113 120.947 61.1328 121.875 52.9297L125.732 18.2617C126.514 11.2793 123.096 7.86133 114.648 7.86133C99.3164 7.86133 71.3867 8.64258 55.3711 10.4492C42.4937 11.9392 33.7915 18.0941 30.0206 27.9785L21.6486 27.9785C25.6815 13.5995 37.1609 4.69618 54.6875 2.53906C70.9473 0.634766 99.2676 0.0488281 114.648 0C127.93 0 134.717 7.22656 133.496 19.1406Z" fill="#000000" fill-opacity="0.85"/>
  <path d="M4.15039 27.4902C4.15039 37.0605 10.1074 42.7734 20.2148 42.7734L46.1426 42.7734L46.1426 48.3887C46.1426 51.709 48.4863 52.8809 51.2207 50.9766L64.8438 41.6992C67.0898 40.1855 67.0898 37.5 64.8438 35.9863L51.3184 26.709C48.4863 24.707 46.1426 25.9766 46.1426 29.2969L46.1426 34.6191L20.2148 34.6191C15.332 34.6191 12.4512 31.9824 12.4512 27.4902L12.4512 21.0449C12.4512 18.75 10.5957 16.8457 8.30078 16.8457C6.00586 16.8457 4.15039 18.75 4.15039 21.0449Z" fill="#000000" fill-opacity="0.85"/>
 </g>
</svg>
