<?xml version="1.0" encoding="UTF-8"?>
<!--Generator: Apple Native CoreSVG 232.5-->
<!DOCTYPE svg
PUBLIC "-//W3C//DTD SVG 1.1//EN"
       "http://www.w3.org/Graphics/SVG/1.1/DTD/svg11.dtd">
<svg version="1.1" xmlns="http://www.w3.org/2000/svg" xmlns:xlink="http://www.w3.org/1999/xlink" width="136.133" height="103.966">
 <g>
  <rect height="103.966" opacity="0" width="136.133" x="0" y="0"/>
  <path d="M113.525 33.3063L112.061 47.6129C111.67 51.4215 113.672 53.1793 117.725 53.1793L130.371 53.1793C133.74 53.1793 136.133 55.6207 136.133 58.941L136.133 82.3297C136.133 87.5543 132.08 89.6539 126.953 88.3844C120.996 86.8707 114.6 86.1383 107.08 86.1383L82.943 86.1383C84.1511 83.6556 85.7709 81.2346 86.8496 78.277L88.4766 78.277C97.4609 78.277 100.977 75.2984 101.904 67.0953L105.762 32.4273C106.543 25.4449 103.125 22.027 94.6777 22.027C79.3457 22.027 51.416 22.8082 35.4004 24.6148C17.6758 26.6656 7.86133 37.5543 7.86133 54.7906C7.86133 70.1715 17.0898 78.277 32.7637 78.277L34.5801 78.277C33.3726 80.867 31.7129 83.1927 30.5867 86.0614C11.1143 85.3023 0 74.5645 0 54.7906C0 33.0133 12.5 19.4391 34.7168 16.7047C50.9277 14.8004 79.2969 14.2145 94.6777 14.1656C107.959 14.1656 114.746 21.3922 113.525 33.3063ZM77.1289 86.1383L59.6151 86.1383C60.8319 83.6556 62.4635 81.2346 63.55 78.277L81.1244 78.277C79.9147 80.8903 78.248 83.2345 77.1289 86.1383ZM53.8777 86.1383L36.336 86.1383C37.5616 83.6556 39.2049 81.2346 40.2992 78.277L57.8445 78.277C56.6435 80.8903 54.9888 83.2345 53.8777 86.1383Z" fill="#000000" fill-opacity="0.85"/>
  <path d="M37.4023 99.6148C35.4492 96.9781 34.668 95.3668 34.668 92.3395C34.668 85.2106 41.5039 81.1578 41.5039 71.734C41.5039 63.2379 35.1562 61.1383 35.1562 51.0309L35.1562 49.2242L29.7852 49.2242L29.7852 51.0309C29.7852 63.7262 36.1328 65.191 36.1328 71.734C36.1328 79.9859 29.2969 83.2574 29.2969 92.7301C29.2969 96.6363 30.5176 99.566 33.0566 102.789C35.3027 105.67 39.7949 102.74 37.4023 99.6148ZM23.6816 48.443C22.8027 49.7613 23.584 51.6168 25.3418 51.6168L39.502 51.6168C41.3086 51.6168 42.1387 49.8102 41.1621 48.443L34.3262 38.2379C33.7891 37.4566 33.252 37.1637 32.4219 37.1637C31.6406 37.1637 31.0547 37.5055 30.5176 38.2379ZM60.6934 99.6148C58.6914 96.9781 57.959 95.3668 57.959 92.3395C57.959 85.2106 64.7461 81.1578 64.7461 71.734C64.7461 63.2379 58.4473 61.1383 58.4473 51.0309L58.4473 49.2242L53.0762 49.2242L53.0762 51.0309C53.0762 63.7262 59.375 65.191 59.375 71.734C59.375 79.9859 52.6367 83.2574 52.6367 92.7301C52.6367 96.6363 53.8574 99.566 56.3965 102.789C58.6426 105.67 63.0371 102.74 60.6934 99.6148ZM46.9238 48.443C46.0449 49.7613 46.875 51.6168 48.6816 51.6168L62.7441 51.6168C64.5996 51.6168 65.4297 49.7613 64.502 48.443L57.6172 38.2379C57.0801 37.5055 56.543 37.1637 55.7129 37.1637C54.9316 37.1637 54.3457 37.5055 53.8086 38.2379ZM84.0332 99.6148C82.0312 96.9781 81.2988 95.3668 81.2988 92.3395C81.2988 85.2106 88.0371 81.1578 88.0371 71.734C88.0371 63.2379 81.6895 61.1383 81.6895 51.0309L81.6895 49.2242L76.3184 49.2242L76.3184 51.0309C76.3184 63.7262 82.666 65.191 82.666 71.734C82.666 79.9859 75.8789 83.2574 75.8789 92.7301C75.8789 96.6363 77.0996 99.566 79.6387 102.789C81.8848 105.67 86.3281 102.74 84.0332 99.6148ZM70.2637 48.443C69.3848 49.7613 70.166 51.6168 71.9238 51.6168L86.084 51.6168C87.9395 51.6168 88.7207 49.7613 87.793 48.443L80.9082 38.2379C80.4199 37.5055 79.7852 37.1637 79.0039 37.1637C78.1738 37.1637 77.6855 37.4566 77.1484 38.2379Z" fill="#000000" fill-opacity="0.85"/>
 </g>
</svg>
