<?xml version="1.0" encoding="UTF-8"?>
<!--Generator: Apple Native CoreSVG 232.5-->
<!DOCTYPE svg
PUBLIC "-//W3C//DTD SVG 1.1//EN"
       "http://www.w3.org/Graphics/SVG/1.1/DTD/svg11.dtd">
<svg version="1.1" xmlns="http://www.w3.org/2000/svg" xmlns:xlink="http://www.w3.org/1999/xlink" width="136.133" height="75.6348">
 <g>
  <rect height="75.6348" opacity="0" width="136.133" x="0" y="0"/>
  <path d="M101.416 2.53906C123.584 5.27344 136.133 18.8477 136.133 40.625C136.133 60.9863 123.926 71.9727 103.223 71.9727L29.0527 71.9727C21.5332 71.9727 15.1367 72.7051 9.13086 74.2188C4.00391 75.4883 0 73.3887 0 68.1641L0 44.7754C0 41.4551 2.39258 39.0137 5.76172 39.0137L18.3594 39.0137C22.4609 39.0137 24.4629 37.2559 24.0234 33.4473L22.5586 19.1406C21.3867 7.22656 28.1738 0 41.4551 0C56.7871 0.0488281 85.1562 0.634766 101.416 2.53906ZM30.3223 18.2617L34.2285 52.9297C35.1562 61.1328 38.6719 64.1113 47.6074 64.1113L103.369 64.1113C118.896 64.1113 128.271 55.8594 128.271 40.625C128.271 23.3887 118.457 12.5 100.732 10.4492C84.7168 8.64258 56.7871 7.86133 41.4551 7.86133C32.959 7.86133 29.5898 11.2793 30.3223 18.2617Z" fill="#000000" fill-opacity="0.85"/>
 </g>
</svg>
