<?xml version="1.0" encoding="UTF-8"?>
<!--Generator: Apple Native CoreSVG 232.5-->
<!DOCTYPE svg
PUBLIC "-//W3C//DTD SVG 1.1//EN"
       "http://www.w3.org/Graphics/SVG/1.1/DTD/svg11.dtd">
<svg version="1.1" xmlns="http://www.w3.org/2000/svg" xmlns:xlink="http://www.w3.org/1999/xlink" width="99.6094" height="99.6582">
 <g>
  <rect height="99.6582" opacity="0" width="99.6094" x="0" y="0"/>
  <path d="M99.6094 49.8535C99.6094 77.0996 77.0508 99.6582 49.8047 99.6582C22.6074 99.6582 0 77.0996 0 49.8535C0 22.6562 22.5586 0.0488281 49.7559 0.0488281C77.002 0.0488281 99.6094 22.6562 99.6094 49.8535ZM23.4863 67.7734C22.0215 67.7734 20.7031 68.9453 20.7031 70.4102C20.7031 71.875 22.0703 72.9492 23.4863 72.9492L76.123 72.9492C77.5879 72.9492 78.9062 71.875 78.9062 70.4102C78.9062 68.8965 77.6367 67.7734 76.123 67.7734ZM41.5527 30.127C33.7402 33.3496 28.4668 41.4551 28.4668 50.8789C28.4668 55.957 30.0293 60.4492 32.666 64.1113L68.5547 64.1113C69.5312 62.9395 70.2637 61.6211 70.8984 60.1074C71.3379 59.082 71.2402 58.1055 70.6543 57.4219C70.1172 56.9824 69.3359 56.8848 68.3105 57.2266C66.4062 58.0566 64.0625 58.3984 61.3281 58.3984C50.1465 58.3984 43.0664 51.5137 43.0664 40.625C43.0664 37.7441 43.5547 34.668 44.3848 33.0078C44.9219 31.9824 44.8242 31.1035 44.3848 30.4199C43.8477 29.7852 42.7734 29.6387 41.5527 30.127ZM60.1562 20.9473L52.4902 28.0762C51.8555 28.6621 51.6602 29.248 51.6602 29.9316C51.6602 31.2012 52.6855 32.1289 54.0039 32.1289C54.5898 32.1289 55.2734 31.8359 55.7617 31.3965L59.1797 28.0762L59.4238 27.7832L59.3262 29.4922L59.3262 40.625C59.3262 42.1387 60.4004 43.4082 61.9629 43.4082C63.4277 43.4082 64.502 42.1387 64.502 40.625L64.502 29.4922L64.4043 27.6367L64.9902 28.2715L68.0664 31.4453C68.457 31.8848 69.2871 32.1289 69.8242 32.1289C71.1914 32.1289 72.168 31.2012 72.168 29.9316C72.168 29.248 71.9727 28.7109 71.3379 28.0762L63.6719 20.9473C63.0859 20.4102 62.5488 20.1172 61.9629 20.1172C61.2793 20.1172 60.791 20.4102 60.1562 20.9473Z" fill="#000000" fill-opacity="0.85"/>
 </g>
</svg>
