<?xml version="1.0" encoding="UTF-8"?>
<!--Generator: Apple Native CoreSVG 232.5-->
<!DOCTYPE svg
PUBLIC "-//W3C//DTD SVG 1.1//EN"
       "http://www.w3.org/Graphics/SVG/1.1/DTD/svg11.dtd">
<svg version="1.1" xmlns="http://www.w3.org/2000/svg" xmlns:xlink="http://www.w3.org/1999/xlink" width="99.6094" height="99.6582">
 <g>
  <rect height="99.6582" opacity="0" width="99.6094" x="0" y="0"/>
  <path d="M99.6094 49.8535C99.6094 77.0996 77.0508 99.6582 49.8047 99.6582C22.6074 99.6582 0 77.0996 0 49.8535C0 22.6562 22.5586 0.0488281 49.7559 0.0488281C77.002 0.0488281 99.6094 22.6562 99.6094 49.8535ZM25.0977 71.8262C24.0723 71.8262 23.3398 72.5586 23.3398 73.584C23.3398 74.6094 24.0723 75.3418 25.0977 75.3418L79.1504 75.3418C80.1758 75.3418 80.9082 74.6094 80.9082 73.584C80.9082 72.5586 80.1758 71.8262 79.1504 71.8262ZM20.4102 64.8926C19.3848 64.8926 18.6035 65.6738 18.6035 66.6504C18.6035 67.6758 19.3848 68.457 20.4102 68.457L74.4141 68.457C75.4395 68.457 76.1719 67.6758 76.1719 66.6504C76.1719 65.6738 75.4395 64.8926 74.4141 64.8926ZM25.0977 58.0078C24.0723 58.0078 23.3398 58.7402 23.3398 59.7656C23.3398 60.791 24.0723 61.5234 25.0977 61.5234L79.1504 61.5234C80.1758 61.5234 80.9082 60.791 80.9082 59.7656C80.9082 58.7402 80.1758 58.0078 79.1504 58.0078ZM41.5527 20.3125C33.7402 23.5352 28.4668 31.6895 28.4668 41.1133C28.4668 46.1426 30.0293 50.6348 32.666 54.2969L68.5547 54.2969C69.5312 53.1738 70.2637 51.8066 70.8984 50.3418C71.3379 49.2676 71.2402 48.291 70.6543 47.6562C70.1172 47.2168 69.3359 47.0703 68.3105 47.4609C66.4062 48.2422 64.0625 48.6328 61.3281 48.6328C50.1953 48.6328 43.0664 41.6992 43.0664 30.8594C43.0664 27.9297 43.5547 24.8535 44.3848 23.2422C44.9219 22.2168 44.8242 21.2891 44.3848 20.6055C43.8477 19.9707 42.7734 19.8242 41.5527 20.3125Z" fill="#000000" fill-opacity="0.85"/>
 </g>
</svg>
