<?xml version="1.0" encoding="UTF-8"?>
<!--Generator: Apple Native CoreSVG 232.5-->
<!DOCTYPE svg
PUBLIC "-//W3C//DTD SVG 1.1//EN"
       "http://www.w3.org/Graphics/SVG/1.1/DTD/svg11.dtd">
<svg version="1.1" xmlns="http://www.w3.org/2000/svg" xmlns:xlink="http://www.w3.org/1999/xlink" width="99.6094" height="99.6582">
 <g>
  <rect height="99.6582" opacity="0" width="99.6094" x="0" y="0"/>
  <path d="M99.6094 49.8535C99.6094 77.0996 77.0508 99.6582 49.8047 99.6582C22.6074 99.6582 0 77.0996 0 49.8535C0 22.6562 22.5586 0.0488281 49.7559 0.0488281C77.002 0.0488281 99.6094 22.6562 99.6094 49.8535ZM28.8574 77.5391C28.8574 78.8574 29.9805 79.9316 31.25 79.9316C32.5684 79.9316 33.6914 78.8574 33.6914 77.5391C33.6914 76.2695 32.5684 75.1465 31.25 75.1465C29.9805 75.1465 28.8574 76.2695 28.8574 77.5391ZM41.2598 77.5391C41.2598 78.8574 42.334 79.9316 43.6523 79.9316C44.9707 79.9316 46.0449 78.8574 46.0449 77.5391C46.0449 76.2695 44.9707 75.1465 43.6523 75.1465C42.334 75.1465 41.2598 76.2695 41.2598 77.5391ZM53.5645 77.5391C53.5645 78.8574 54.6875 79.9316 56.0059 79.9316C57.3242 79.9316 58.3984 78.8574 58.3984 77.5391C58.3984 76.2695 57.3242 75.1465 56.0059 75.1465C54.6875 75.1465 53.5645 76.2695 53.5645 77.5391ZM65.918 77.5391C65.918 78.8574 67.041 79.9316 68.3594 79.9316C69.6289 79.9316 70.752 78.8574 70.752 77.5391C70.752 76.2695 69.6289 75.1465 68.3594 75.1465C67.041 75.1465 65.918 76.2695 65.918 77.5391ZM22.7051 70.752C22.7051 72.0703 23.8281 73.1934 25.1465 73.1934C26.4648 73.1934 27.5391 72.0703 27.5391 70.752C27.5391 69.4336 26.4648 68.3594 25.1465 68.3594C23.8281 68.3594 22.7051 69.4336 22.7051 70.752ZM35.1074 70.752C35.1074 72.0703 36.1816 73.1934 37.5 73.1934C38.8184 73.1934 39.8926 72.0703 39.8926 70.752C39.8926 69.4336 38.8184 68.3594 37.5 68.3594C36.1816 68.3594 35.1074 69.4336 35.1074 70.752ZM47.4121 70.752C47.4121 72.0703 48.5352 73.1934 49.8535 73.1934C51.1719 73.1934 52.2949 72.0703 52.2949 70.752C52.2949 69.4336 51.1719 68.3594 49.8535 68.3594C48.5352 68.3594 47.4121 69.4336 47.4121 70.752ZM59.8145 70.752C59.8145 72.0703 60.8887 73.1934 62.207 73.1934C63.5254 73.1934 64.5996 72.0703 64.5996 70.752C64.5996 69.4336 63.5254 68.3594 62.207 68.3594C60.8887 68.3594 59.8145 69.4336 59.8145 70.752ZM72.168 70.752C72.168 72.0703 73.291 73.1934 74.5605 73.1934C75.8789 73.1934 76.9531 72.0703 76.9531 70.752C76.9531 69.4336 75.8789 68.3594 74.5605 68.3594C73.291 68.3594 72.168 69.4336 72.168 70.752ZM21.582 58.6914C20.0195 58.6914 18.6523 59.8633 18.6523 61.4258C18.6523 62.9883 20.0684 64.209 21.582 64.209L77.9785 64.209C79.541 64.209 80.957 62.9883 80.957 61.4258C80.957 59.8633 79.5898 58.6914 77.9785 58.6914ZM39.3555 19.1895C31.1035 22.5586 25.5371 31.2012 25.5371 41.1621C25.5371 46.4355 27.0508 51.1719 29.9316 55.0293L67.8711 55.0293C68.8965 53.8086 69.5801 52.4414 70.2637 50.9277C70.8008 49.707 70.7031 48.6816 70.0195 47.998C69.5312 47.5586 68.6523 47.4121 67.5781 47.8027C65.5762 48.6328 63.0859 49.0234 60.2051 49.0234C48.3887 49.0234 41.0156 41.748 41.0156 30.3223C41.0156 27.1973 41.4551 23.9746 42.334 22.2656C42.9199 21.2402 42.8223 20.2148 42.334 19.4824C41.7969 18.7988 40.5762 18.6523 39.3555 19.1895Z" fill="#000000" fill-opacity="0.85"/>
 </g>
</svg>
