<?xml version="1.0" encoding="UTF-8"?>
<!--Generator: Apple Native CoreSVG 232.5-->
<!DOCTYPE svg
PUBLIC "-//W3C//DTD SVG 1.1//EN"
       "http://www.w3.org/Graphics/SVG/1.1/DTD/svg11.dtd">
<svg version="1.1" xmlns="http://www.w3.org/2000/svg" xmlns:xlink="http://www.w3.org/1999/xlink" width="99.6094" height="99.6582">
 <g>
  <rect height="99.6582" opacity="0" width="99.6094" x="0" y="0"/>
  <path d="M49.8047 99.6094C77.0508 99.6094 99.6094 77.002 99.6094 49.8047C99.6094 22.5586 77.002 0 49.7559 0C22.5586 0 0 22.5586 0 49.8047C0 77.002 22.6074 99.6094 49.8047 99.6094ZM49.8047 91.3086C26.7578 91.3086 8.34961 72.8516 8.34961 49.8047C8.34961 26.7578 26.709 8.30078 49.7559 8.30078C72.8027 8.30078 91.3086 26.7578 91.3086 49.8047C91.3086 72.8516 72.8516 91.3086 49.8047 91.3086Z" fill="#000000" fill-opacity="0.85"/>
  <path d="M33.2031 54.1016L67.9688 54.1016C68.9453 52.9297 69.6289 51.6602 70.2637 50.2441C70.7031 49.1699 70.6055 48.2422 70.0195 47.6074C69.5312 47.168 68.75 47.0703 67.7734 47.4121C65.918 48.1934 63.623 48.5352 60.9863 48.5352C50.1465 48.5352 43.2617 41.8457 43.2617 31.25C43.2617 28.4668 43.7012 25.4883 44.5312 23.9258C45.0684 22.9004 44.9707 22.0215 44.5312 21.3867C43.9941 20.752 42.9688 20.6055 41.7969 21.0938C34.2285 24.2188 29.1016 32.0801 29.1016 41.2109C29.1016 46.1426 30.6152 50.5371 33.2031 54.1016ZM25.8301 61.084L78.2715 61.084C79.248 61.084 79.9805 60.3516 79.9805 59.375C79.9805 58.3496 79.248 57.6172 78.2715 57.6172L25.8301 57.6172C24.8535 57.6172 24.1211 58.3984 24.1211 59.375C24.1211 60.3516 24.8535 61.084 25.8301 61.084ZM21.2891 67.7734L73.6816 67.7734C74.6582 67.7734 75.3906 67.041 75.3906 66.0645C75.3906 65.0391 74.6582 64.3066 73.6816 64.3066L21.2891 64.3066C20.3125 64.3066 19.5312 65.0879 19.5312 66.0645C19.5312 67.041 20.3125 67.7734 21.2891 67.7734ZM25.8301 74.4629L78.2715 74.4629C79.248 74.4629 79.9805 73.7305 79.9805 72.7539C79.9805 71.7285 79.248 70.9961 78.2715 70.9961L25.8301 70.9961C24.8535 70.9961 24.1211 71.7773 24.1211 72.7539C24.1211 73.7305 24.8535 74.4629 25.8301 74.4629Z" fill="#000000" fill-opacity="0.85"/>
 </g>
</svg>
