<?xml version="1.0" encoding="UTF-8"?>
<!--Generator: Apple Native CoreSVG 232.5-->
<!DOCTYPE svg
PUBLIC "-//W3C//DTD SVG 1.1//EN"
       "http://www.w3.org/Graphics/SVG/1.1/DTD/svg11.dtd">
<svg version="1.1" xmlns="http://www.w3.org/2000/svg" xmlns:xlink="http://www.w3.org/1999/xlink" width="96.3379" height="96.9238">
 <g>
  <rect height="96.9238" opacity="0" width="96.3379" x="0" y="0"/>
  <path d="M75.5371 65.4297C49.1211 65.4297 32.2266 48.877 32.2266 22.4121C32.2266 16.9434 33.5449 9.13086 35.3027 5.07812C35.7422 3.95508 35.8398 3.27148 35.8398 2.7832C35.8398 1.46484 34.8633 0 32.959 0C32.4219 0 31.25 0.146484 30.1758 0.537109C12.1094 7.76367 0 27.1973 0 47.6562C0 76.3672 21.875 96.875 50.4883 96.875C71.5332 96.875 89.7461 84.1309 95.8008 68.2129C96.2402 67.0898 96.3379 65.918 96.3379 65.4785C96.3379 63.6719 94.8242 62.4512 93.457 62.4512C92.8223 62.4512 92.2852 62.5977 91.3574 62.8906C87.5977 64.1113 81.543 65.4297 75.5371 65.4297Z" fill="#000000" fill-opacity="0.85"/>
 </g>
</svg>
