<?xml version="1.0" encoding="UTF-8"?>
<!--Generator: Apple Native CoreSVG 232.5-->
<!DOCTYPE svg
PUBLIC "-//W3C//DTD SVG 1.1//EN"
       "http://www.w3.org/Graphics/SVG/1.1/DTD/svg11.dtd">
<svg version="1.1" xmlns="http://www.w3.org/2000/svg" xmlns:xlink="http://www.w3.org/1999/xlink" width="99.6094" height="99.6582">
 <g>
  <rect height="99.6582" opacity="0" width="99.6094" x="0" y="0"/>
  <path d="M99.6094 49.8535C99.6094 77.0996 77.0508 99.6582 49.8047 99.6582C22.6074 99.6582 0 77.0996 0 49.8535C0 22.6562 22.5586 0.0488281 49.7559 0.0488281C77.002 0.0488281 99.6094 22.6562 99.6094 49.8535ZM39.4043 23.5352C28.9551 27.6855 21.9727 38.916 21.9727 50.7324C21.9727 67.334 34.668 79.1504 51.1719 79.1504C63.3301 79.1504 73.7305 71.7285 77.2949 62.5977C77.5879 61.9629 77.6367 61.2793 77.6367 61.0352C77.6367 59.9609 76.8066 59.3262 75.9766 59.3262C75.6348 59.3262 75.293 59.375 74.7559 59.5215C72.6562 60.2051 69.0918 60.9863 65.625 60.9863C50.3418 60.9863 40.625 51.416 40.625 36.1816C40.625 32.959 41.4551 28.5156 42.3828 26.123C42.6758 25.4883 42.6758 25.0977 42.6758 24.8535C42.6758 24.0723 42.0898 23.1934 41.0645 23.1934C40.7227 23.1934 40.0391 23.291 39.4043 23.5352Z" fill="#000000" fill-opacity="0.85"/>
 </g>
</svg>
