<?xml version="1.0" encoding="UTF-8"?>
<!--Generator: Apple Native CoreSVG 232.5-->
<!DOCTYPE svg
PUBLIC "-//W3C//DTD SVG 1.1//EN"
       "http://www.w3.org/Graphics/SVG/1.1/DTD/svg11.dtd">
<svg version="1.1" xmlns="http://www.w3.org/2000/svg" xmlns:xlink="http://www.w3.org/1999/xlink" width="99.6094" height="99.6582">
 <g>
  <rect height="99.6582" opacity="0" width="99.6094" x="0" y="0"/>
  <path d="M49.8047 99.6094C77.0508 99.6094 99.6094 77.002 99.6094 49.8047C99.6094 22.5586 77.002 0 49.7559 0C22.5586 0 0 22.5586 0 49.8047C0 77.002 22.6074 99.6094 49.8047 99.6094ZM49.8047 91.3086C26.7578 91.3086 8.34961 72.8516 8.34961 49.8047C8.34961 26.7578 26.709 8.30078 49.7559 8.30078C72.8027 8.30078 91.3086 26.7578 91.3086 49.8047C91.3086 72.8516 72.8516 91.3086 49.8047 91.3086Z" fill="#000000" fill-opacity="0.85"/>
  <path d="M30.5176 54.834L67.2852 54.834C68.2617 53.6133 68.9453 52.2949 69.6289 50.8301C70.1172 49.6582 70.0195 48.6816 69.3848 47.998C68.8965 47.5586 68.0664 47.4609 66.9922 47.8027C65.0879 48.6328 62.6465 48.9746 59.8633 48.9746C48.3887 48.9746 41.2109 41.9434 41.2109 30.8105C41.2109 27.832 41.6504 24.707 42.5293 23.0469C43.0664 21.9727 42.9688 21.0449 42.5293 20.3613C41.9922 19.6777 40.8203 19.5312 39.6484 20.0684C31.6406 23.3398 26.2207 31.6406 26.2207 41.3086C26.2207 46.4844 27.7344 51.0742 30.5176 54.834ZM22.3633 63.7207L77.0996 63.7207C78.6133 63.7207 79.9805 62.5488 79.9805 61.0352C79.9805 59.4727 78.6621 58.3496 77.0996 58.3496L22.3633 58.3496C20.8496 58.3496 19.5312 59.5215 19.5312 61.0352C19.5312 62.5488 20.8984 63.7207 22.3633 63.7207ZM25.8301 72.3633C27.0996 72.3633 28.1738 71.3379 28.1738 70.0684C28.1738 68.75 27.0996 67.7246 25.8301 67.7246C24.5605 67.7246 23.4863 68.75 23.4863 70.0684C23.4863 71.3379 24.5605 72.3633 25.8301 72.3633ZM37.8418 72.3633C39.1113 72.3633 40.1367 71.3379 40.1367 70.0684C40.1367 68.75 39.1113 67.7246 37.8418 67.7246C36.5723 67.7246 35.498 68.75 35.498 70.0684C35.498 71.3379 36.5723 72.3633 37.8418 72.3633ZM49.8047 72.3633C51.0742 72.3633 52.1484 71.3379 52.1484 70.0684C52.1484 68.75 51.0742 67.7246 49.8047 67.7246C48.5352 67.7246 47.4609 68.75 47.4609 70.0684C47.4609 71.3379 48.5352 72.3633 49.8047 72.3633ZM61.7676 72.3633C63.0371 72.3633 64.1113 71.3379 64.1113 70.0684C64.1113 68.75 63.0371 67.7246 61.7676 67.7246C60.498 67.7246 59.4727 68.75 59.4727 70.0684C59.4727 71.3379 60.498 72.3633 61.7676 72.3633ZM73.7793 72.3633C75.0488 72.3633 76.0742 71.3379 76.0742 70.0684C76.0742 68.75 75.0488 67.7246 73.7793 67.7246C72.5098 67.7246 71.4355 68.75 71.4355 70.0684C71.4355 71.3379 72.5098 72.3633 73.7793 72.3633ZM31.7871 78.9551C33.0566 78.9551 34.1309 77.9297 34.1309 76.6113C34.1309 75.3418 33.0566 74.3164 31.7871 74.3164C30.5176 74.3164 29.4434 75.3418 29.4434 76.6113C29.4434 77.9297 30.5176 78.9551 31.7871 78.9551ZM43.7988 78.9551C45.0684 78.9551 46.0938 77.9297 46.0938 76.6113C46.0938 75.3418 45.0684 74.3164 43.7988 74.3164C42.5293 74.3164 41.4551 75.3418 41.4551 76.6113C41.4551 77.9297 42.5293 78.9551 43.7988 78.9551ZM55.7617 78.9551C57.0312 78.9551 58.1055 77.9297 58.1055 76.6113C58.1055 75.3418 57.0312 74.3164 55.7617 74.3164C54.4922 74.3164 53.418 75.3418 53.418 76.6113C53.418 77.9297 54.4922 78.9551 55.7617 78.9551ZM67.7246 78.9551C68.9941 78.9551 70.0684 77.9297 70.0684 76.6113C70.0684 75.3418 68.9941 74.3164 67.7246 74.3164C66.4551 74.3164 65.3809 75.3418 65.3809 76.6113C65.3809 77.9297 66.4551 78.9551 67.7246 78.9551Z" fill="#000000" fill-opacity="0.85"/>
 </g>
</svg>
