<?xml version="1.0" encoding="UTF-8"?>
<!--Generator: Apple Native CoreSVG 232.5-->
<!DOCTYPE svg
PUBLIC "-//W3C//DTD SVG 1.1//EN"
       "http://www.w3.org/Graphics/SVG/1.1/DTD/svg11.dtd">
<svg version="1.1" xmlns="http://www.w3.org/2000/svg" xmlns:xlink="http://www.w3.org/1999/xlink" width="108.691" height="109.326">
 <g>
  <rect height="109.326" opacity="0" width="108.691" x="0" y="0"/>
  <path d="M89.8926 56.7871C90.8203 56.7871 91.4551 56.1523 91.5527 55.1758C93.1641 42.1387 93.7988 41.7969 107.031 39.6484C108.057 39.502 108.691 38.9648 108.691 38.0371C108.691 37.1094 108.057 36.5234 107.227 36.377C93.8965 33.8379 93.1641 33.8867 91.5527 20.8496C91.4551 19.873 90.8203 19.2383 89.8926 19.2383C89.0137 19.2383 88.3789 19.873 88.2324 20.8008C86.5723 34.0332 86.084 34.4727 72.5586 36.377C71.7285 36.4746 71.0938 37.1094 71.0938 38.0371C71.0938 38.916 71.7285 39.502 72.5586 39.6484C86.084 42.2363 86.5234 42.2363 88.2324 55.2734C88.3789 56.1523 89.0137 56.7871 89.8926 56.7871ZM66.5527 23.7305C67.1387 23.7305 67.4316 23.3887 67.5293 22.8516C69.043 14.6973 68.9941 14.502 77.4902 12.8906C78.0273 12.793 78.418 12.4512 78.418 11.8652C78.418 11.2793 78.0273 10.9375 77.4902 10.8398C68.9941 9.13086 69.2871 8.93555 67.5293 0.878906C67.4316 0.341797 67.1387 0 66.5527 0C65.9668 0 65.625 0.341797 65.5273 0.878906C63.8184 8.93555 64.1113 9.13086 55.6152 10.8398C55.0293 10.9375 54.6875 11.2793 54.6875 11.8652C54.6875 12.4512 55.0293 12.793 55.6152 12.8906C64.1113 14.5996 64.0137 14.6973 65.5273 22.8516C65.625 23.3887 65.9668 23.7305 66.5527 23.7305Z" fill="#000000" fill-opacity="0.85"/>
  <path d="M53.6621 101.416C71.5332 101.416 86.0352 92.4316 92.5781 77.0996C93.457 75.0488 93.1641 73.3887 92.2363 72.4609C91.4062 71.582 89.8926 71.4355 88.1836 72.0703C84.4727 73.5352 80.0293 74.4141 74.4141 74.4141C52.5391 74.4141 38.5254 60.7422 38.5254 39.3555C38.5254 33.4473 39.6484 27.5391 41.1621 24.4629C42.0898 22.5586 42.041 20.8496 41.1621 19.873C40.2344 18.7988 38.5742 18.457 36.3281 19.3359C21.3379 25.4395 10.9863 41.1133 10.9863 59.3262C10.9863 83.1055 28.5156 101.416 53.6621 101.416ZM53.7598 93.9453C32.959 93.9453 18.457 78.7598 18.457 58.7402C18.457 46.4844 24.1699 35.5957 33.252 28.6621C32.0312 31.8848 31.3477 36.7188 31.3477 41.4062C31.3477 65.4785 47.9492 81.5918 72.5586 81.5918C76.9043 81.5918 80.9082 81.0059 83.0078 80.3223C76.9043 88.7695 66.0156 93.9453 53.7598 93.9453Z" fill="#000000" fill-opacity="0.85"/>
 </g>
</svg>
