<?xml version="1.0" encoding="UTF-8"?>
<!--Generator: Apple Native CoreSVG 232.5-->
<!DOCTYPE svg
PUBLIC "-//W3C//DTD SVG 1.1//EN"
       "http://www.w3.org/Graphics/SVG/1.1/DTD/svg11.dtd">
<svg version="1.1" xmlns="http://www.w3.org/2000/svg" xmlns:xlink="http://www.w3.org/1999/xlink" width="97.5586" height="121.045">
 <g>
  <rect height="121.045" opacity="0" width="97.5586" x="0" y="0"/>
  <path d="M72.2656 20.752L61.1816 20.752L61.1816 20.5078L72.5586 5.51758C73.584 4.15039 73.9746 3.36914 73.9746 2.49023C73.9746 0.927734 72.8027 0 71.1426 0L55.5176 0C54.0039 0 52.9297 1.02539 52.9297 2.53906C52.9297 4.10156 54.0039 5.07812 55.5176 5.07812L65.9668 5.07812L65.9668 5.32227L54.4434 20.2637C53.418 21.582 53.0762 22.3145 53.0762 23.3398C53.0762 24.7559 54.1504 25.7812 55.8105 25.7812L72.2656 25.7812C73.7793 25.7812 74.8535 24.8535 74.8535 23.2422C74.8535 21.7285 73.7793 20.752 72.2656 20.752ZM95.1172 39.4531L87.3047 39.4531L87.3047 39.2578L95.4102 28.6133C96.3379 27.3926 96.7285 26.6602 96.7285 25.7324C96.7285 24.3164 95.6055 23.4375 94.0918 23.4375L82.1289 23.4375C80.7617 23.4375 79.7363 24.4141 79.7363 25.7812C79.7363 27.3438 80.7617 28.2715 82.1289 28.2715L89.1602 28.2715L89.1602 28.4668L81.1523 39.0137C80.2246 40.1855 79.8828 40.9668 79.8828 41.9434C79.8828 43.2617 80.9082 44.2383 82.4219 44.2383L95.1172 44.2383C96.582 44.2383 97.5586 43.3594 97.5586 41.8457C97.5586 40.3809 96.582 39.4531 95.1172 39.4531ZM73.584 56.1035L66.9434 56.1035L66.9434 55.9082L73.8281 46.7773C74.707 45.5566 75.0977 44.873 75.0977 44.043C75.0977 42.6758 74.0234 41.8457 72.5586 41.8457L62.0605 41.8457C60.7422 41.8457 59.7656 42.7246 59.7656 44.0918C59.7656 45.5566 60.7422 46.3867 62.0605 46.3867L67.9199 46.3867L67.9199 46.6309L61.1328 55.7129C60.2539 56.8359 59.9121 57.5684 59.9121 58.4961C59.9121 59.7656 60.8887 60.6934 62.3047 60.6934L73.584 60.6934C74.9512 60.6934 75.8789 59.7656 75.8789 58.3984C75.8789 57.0312 74.9512 56.1035 73.584 56.1035Z" fill="#000000" fill-opacity="0.85"/>
  <path d="M45.8984 111.377C63.8184 111.377 78.2715 102.393 84.8633 87.0605C85.7422 85.0098 85.4492 83.3496 84.5215 82.4219C83.6426 81.543 82.1777 81.3965 80.4199 82.0801C76.7578 83.4961 72.2656 84.375 66.6504 84.375C44.8242 84.375 30.7617 70.7031 30.7617 49.3164C30.7617 43.4082 31.8848 37.5 33.3984 34.4238C34.375 32.5195 34.2773 30.8105 33.4473 29.834C32.5195 28.7598 30.8594 28.418 28.5645 29.2969C13.5742 35.4004 3.27148 51.0742 3.27148 69.2871C3.27148 93.0664 20.752 111.377 45.8984 111.377ZM45.9961 103.906C25.1953 103.906 10.6934 88.7207 10.6934 68.7012C10.6934 56.4453 16.4062 45.5566 25.4883 38.623C24.3164 41.8457 23.6328 46.6797 23.6328 51.3672C23.6328 75.4395 40.2344 91.5527 64.7949 91.5527C69.1895 91.5527 73.1934 90.9668 75.2441 90.2832C69.1406 98.7305 58.252 103.906 45.9961 103.906Z" fill="#000000" fill-opacity="0.85"/>
 </g>
</svg>
