<?xml version="1.0" encoding="UTF-8"?>
<!--Generator: Apple Native CoreSVG 232.5-->
<!DOCTYPE svg
PUBLIC "-//W3C//DTD SVG 1.1//EN"
       "http://www.w3.org/Graphics/SVG/1.1/DTD/svg11.dtd">
<svg version="1.1" xmlns="http://www.w3.org/2000/svg" xmlns:xlink="http://www.w3.org/1999/xlink" width="99.6094" height="99.6582">
 <g>
  <rect height="99.6582" opacity="0" width="99.6094" x="0" y="0"/>
  <path d="M49.8047 99.6094C77.0508 99.6094 99.6094 77.002 99.6094 49.8047C99.6094 22.5586 77.002 0 49.7559 0C22.5586 0 0 22.5586 0 49.8047C0 77.002 22.6074 99.6094 49.8047 99.6094ZM49.8047 91.3086C26.7578 91.3086 8.34961 72.8516 8.34961 49.8047C8.34961 26.7578 26.709 8.30078 49.7559 8.30078C72.8027 8.30078 91.3086 26.7578 91.3086 49.8047C91.3086 72.8516 72.8516 91.3086 49.8047 91.3086Z" fill="#000000" fill-opacity="0.85"/>
  <path d="M61.5234 43.457C62.9395 43.457 64.0137 42.1875 64.0137 40.7227L64.0137 29.9316L63.916 28.125L64.502 28.7109L67.4805 31.7871C67.8711 32.2754 68.6523 32.5195 69.1895 32.5195C70.5078 32.5195 71.4355 31.5918 71.4355 30.3223C71.4355 29.7363 71.2402 29.1504 70.6543 28.6133L63.1836 21.6309C62.6465 21.0938 62.1094 20.8496 61.5234 20.8496C60.8887 20.8496 60.4004 21.0938 59.8145 21.6309L52.3438 28.6133C51.7578 29.1504 51.5625 29.7363 51.5625 30.3223C51.5625 31.5918 52.5391 32.5195 53.8086 32.5195C54.3945 32.5195 55.0293 32.2266 55.5176 31.7871L58.8379 28.5156L59.082 28.2715L58.9844 29.9316L58.9844 40.7227C58.9844 42.1875 60.0586 43.457 61.5234 43.457ZM24.2188 72.1191L75.293 72.1191C76.709 72.1191 77.9785 70.9961 77.9785 69.5801C77.9785 68.1641 76.7578 67.0898 75.293 67.0898L24.2188 67.0898C22.8027 67.0898 21.5332 68.1641 21.5332 69.5801C21.5332 70.9961 22.8516 72.1191 24.2188 72.1191ZM33.1543 63.5742L67.9199 63.5742C68.8965 62.4023 69.5801 61.084 70.2148 59.668C70.6543 58.5938 70.5566 57.7148 69.9707 57.0312C69.4824 56.6406 68.7012 56.4941 67.7246 56.8848C65.8691 57.6172 63.5742 58.0078 60.9375 58.0078C50.0977 58.0078 43.2129 51.3184 43.2129 40.7227C43.2129 37.9395 43.6523 34.9121 44.4824 33.3496C45.0195 32.373 44.9219 31.4453 44.4824 30.8105C43.9453 30.1758 42.9199 30.0293 41.748 30.5664C34.1797 33.6426 29.0527 41.5527 29.0527 50.6836C29.0527 55.6152 30.5664 60.0098 33.1543 63.5742Z" fill="#000000" fill-opacity="0.85"/>
 </g>
</svg>
