<?xml version="1.0" encoding="UTF-8"?>
<!--Generator: Apple Native CoreSVG 232.5-->
<!DOCTYPE svg
PUBLIC "-//W3C//DTD SVG 1.1//EN"
       "http://www.w3.org/Graphics/SVG/1.1/DTD/svg11.dtd">
<svg version="1.1" xmlns="http://www.w3.org/2000/svg" xmlns:xlink="http://www.w3.org/1999/xlink" width="99.6094" height="99.6582">
 <g>
  <rect height="99.6582" opacity="0" width="99.6094" x="0" y="0"/>
  <path d="M8.30078 49.8047C8.34961 26.7578 26.8066 8.30078 49.8535 8.30078C51.416 8.30078 52.9785 8.39844 54.4922 8.59375C40.7227 16.8457 33.0078 31.3965 33.0078 49.8047C33.0078 68.1641 40.6738 82.666 54.3457 91.0156C52.832 91.2109 51.3184 91.3086 49.8047 91.3086C26.7578 91.3086 8.25195 72.8516 8.30078 49.8047Z" fill="#000000" fill-opacity="0.2125"/>
  <path d="M99.6094 49.8047C99.6094 22.5586 77.0996 0 49.8535 0C22.6562 0 0 22.5586 0 49.8047C0 77.002 22.6074 99.6094 49.8047 99.6094C77.0508 99.6094 99.6094 77.002 99.6094 49.8047ZM8.30078 49.8047C8.34961 26.7578 26.8066 8.30078 49.8535 8.30078C51.416 8.30078 52.9785 8.39844 54.4922 8.59375C40.7227 16.8457 33.0078 31.3965 33.0078 49.8047C33.0078 68.1641 40.6738 82.666 54.3457 91.0156C52.832 91.2109 51.3184 91.3086 49.8047 91.3086C26.7578 91.3086 8.25195 72.8516 8.30078 49.8047Z" fill="#000000" fill-opacity="0.85"/>
 </g>
</svg>
