<?xml version="1.0" encoding="UTF-8"?>
<!--Generator: Apple Native CoreSVG 232.5-->
<!DOCTYPE svg
PUBLIC "-//W3C//DTD SVG 1.1//EN"
       "http://www.w3.org/Graphics/SVG/1.1/DTD/svg11.dtd">
<svg version="1.1" xmlns="http://www.w3.org/2000/svg" xmlns:xlink="http://www.w3.org/1999/xlink" width="125.146" height="102.002">
 <g>
  <rect height="102.002" opacity="0" width="125.146" x="0" y="0"/>
  <path d="M48.4863 25.9277C49.5117 26.9531 49.5117 28.7598 48.584 30.6152C47.1191 33.5938 46.1426 39.4043 46.1426 44.6289C46.1426 64.9414 59.2773 77.6855 80.0293 77.6855C85.1562 77.6855 89.4531 77.002 93.0664 75.6348C94.8242 75 96.3379 75.0977 97.2168 76.0254C98.291 77.0996 98.4375 78.8086 97.5586 80.8594C95.3558 86.0911 91.9884 90.5464 87.7285 94.0918L73.8279 94.0918C79.4613 91.8561 84.1691 88.431 87.5 84.1797C85.0098 84.7656 81.5918 85.1074 78.3203 85.1074C54.6875 85.1074 38.8672 69.6777 38.8672 46.6309C38.8672 42.2852 39.209 38.1836 40.2344 35.2051C32.0801 41.8457 27.002 51.8555 27.002 63.0859C27.002 77.3424 34.6481 89.1539 47.1529 94.0918L32.7855 94.0918C24.2037 86.8653 19.3848 75.98 19.3848 63.6719C19.3848 46.3379 29.1504 31.2988 43.6035 25.3418C45.752 24.4141 47.4609 24.8047 48.4863 25.9277Z" fill="#000000" fill-opacity="0.85"/>
  <path d="M4.24805 101.904L120.898 101.904C123.193 101.904 125.146 100.146 125.146 97.998C125.146 95.8496 123.193 94.0918 120.898 94.0918L4.24805 94.0918C1.95312 94.0918 0 95.8496 0 97.998C0 100.146 1.95312 101.904 4.24805 101.904Z" fill="#000000" fill-opacity="0.85"/>
  <path d="M87.3047 46.2402C89.4531 46.2402 91.2598 44.2871 91.2598 41.8945L91.2598 17.2363L90.6738 9.86328L94.2871 14.0137L100.391 20.2148C101.123 20.8984 102.051 21.3379 102.979 21.3379C104.932 21.3379 106.348 19.9707 106.348 18.0664C106.348 17.041 106.006 16.2598 105.176 15.4785L89.9414 1.26953C88.916 0.341797 88.1836 0 87.3047 0C86.377 0 85.6934 0.341797 84.6191 1.26953L69.3848 15.4785C68.5547 16.2598 68.2129 17.041 68.2129 18.0664C68.2129 19.9707 69.6289 21.3379 71.582 21.3379C72.5098 21.3379 73.4863 20.8984 74.1699 20.2148L80.7617 13.5254L83.8867 9.86328L83.3008 17.2363L83.3008 41.8945C83.3008 44.2871 85.1562 46.2402 87.3047 46.2402Z" fill="#000000" fill-opacity="0.85"/>
 </g>
</svg>
