<?xml version="1.0" encoding="UTF-8"?>
<!--Generator: Apple Native CoreSVG 232.5-->
<!DOCTYPE svg
PUBLIC "-//W3C//DTD SVG 1.1//EN"
       "http://www.w3.org/Graphics/SVG/1.1/DTD/svg11.dtd">
<svg version="1.1" xmlns="http://www.w3.org/2000/svg" xmlns:xlink="http://www.w3.org/1999/xlink" width="99.6094" height="99.6582">
 <g>
  <rect height="99.6582" opacity="0" width="99.6094" x="0" y="0"/>
  <path d="M49.8047 99.6094C77.0508 99.6094 99.6094 77.002 99.6094 49.8047C99.6094 22.5586 77.002 0 49.7559 0C22.5586 0 0 22.5586 0 49.8047C0 77.002 22.6074 99.6094 49.8047 99.6094ZM49.8047 91.3086C26.7578 91.3086 8.34961 72.8516 8.34961 49.8047C8.34961 26.7578 26.709 8.30078 49.7559 8.30078C72.8027 8.30078 91.3086 26.7578 91.3086 49.8047C91.3086 72.8516 72.8516 91.3086 49.8047 91.3086Z" fill="#000000" fill-opacity="0.85"/>
  <path d="M51.0742 78.2715C62.8418 78.2715 72.9492 71.0449 76.416 62.1582C76.709 61.5723 76.7578 60.9375 76.7578 60.6934C76.7578 59.668 75.9277 58.9844 75.1465 58.9844C74.8047 58.9844 74.4629 59.0332 73.9746 59.2285C71.9238 59.9121 68.457 60.6445 65.0879 60.6445C50.293 60.6445 40.8203 51.3672 40.8203 36.5234C40.8203 33.4473 41.6504 29.1016 42.5293 26.8066C42.8223 26.1719 42.8223 25.7812 42.8223 25.5371C42.8223 24.8047 42.2852 23.9746 41.2598 23.9746C40.918 23.9746 40.2832 24.0234 39.6484 24.3164C29.541 28.3203 22.7539 39.2578 22.7539 50.6836C22.7539 66.748 35.0586 78.2715 51.0742 78.2715Z" fill="#000000" fill-opacity="0.85"/>
 </g>
</svg>
