<?xml version="1.0" encoding="UTF-8"?>
<!--Generator: Apple Native CoreSVG 232.5-->
<!DOCTYPE svg
PUBLIC "-//W3C//DTD SVG 1.1//EN"
       "http://www.w3.org/Graphics/SVG/1.1/DTD/svg11.dtd">
<svg version="1.1" xmlns="http://www.w3.org/2000/svg" xmlns:xlink="http://www.w3.org/1999/xlink" width="171.747" height="87.9395">
 <g>
  <rect height="87.9395" opacity="0" width="171.747" x="0" y="0"/>
  <path d="M56.2591 27.002L71.5038 45.8754L62.7889 57.3367C62.5885 57.3644 62.3798 57.373 62.1673 57.373C54.843 57.373 51.9134 51.5625 47.8606 51.5625C43.8079 51.5625 40.927 57.373 33.6028 57.373C31.0326 57.373 29.0215 56.1377 27.3239 54.5838L8.99343 77.2949C8.01687 78.5156 8.55398 80.0781 10.2141 80.0781L48.3479 80.0781C48.4806 84.2462 51.4101 87.9395 57.1868 87.9395L9.04226 87.9395C-0.283913 87.9395-2.43235 78.9551 2.79226 72.4609L39.4622 27.002C42.0012 23.9258 44.9798 22.3145 47.8606 22.3145C50.7903 22.3145 53.7688 23.9258 56.2591 27.002ZM45.5657 31.9824L30.7005 50.4002C31.7073 51.3552 32.655 52.002 33.6028 52.002C37.4114 52.002 40.8782 46.1914 47.8606 46.1914C54.8919 46.1914 58.3587 52.002 62.1673 52.002C63.115 52.002 64.0628 51.3552 65.0696 50.4002L50.2044 31.9824C49.4719 31.1523 48.6907 30.6641 47.8606 30.6641C47.0794 30.6641 46.2493 31.1523 45.5657 31.9824Z" fill="#000000" fill-opacity="0.85"/>
  <path d="M57.1868 87.9395L162.9 87.9395C171.786 87.9395 173.935 79.1504 169.54 73.3887L118.515 6.39648C113.73 0.0976562 106.406 0 101.523 6.39648L50.5462 73.4375C46.1516 79.1992 48.3001 87.9395 57.1868 87.9395ZM58.7981 80.0781C56.9915 80.0781 56.5032 78.5645 57.4309 77.2949L107.626 11.3281C108.945 9.61914 111.191 9.66797 112.363 11.2793L162.607 77.2461C163.583 78.5156 163.046 80.0781 161.24 80.0781ZM94.1497 45.459C102.255 45.459 105.527 39.0137 110.019 39.0137C114.56 39.0137 117.831 45.459 125.937 45.459C130.917 45.459 134.14 41.4062 136.923 38.4277L133.163 33.8379C130.429 36.6211 128.232 39.5508 125.937 39.5508C121.64 39.5508 117.831 33.1055 110.019 33.1055C102.255 33.1055 98.4466 39.5508 94.1497 39.5508C91.8059 39.5508 89.6087 36.5723 86.8255 33.7891L83.0657 38.3301C85.8977 41.3574 89.1204 45.459 94.1497 45.459Z" fill="#000000" fill-opacity="0.85"/>
 </g>
</svg>
