<?xml version="1.0" encoding="UTF-8"?>
<!--Generator: Apple Native CoreSVG 232.5-->
<!DOCTYPE svg
PUBLIC "-//W3C//DTD SVG 1.1//EN"
       "http://www.w3.org/Graphics/SVG/1.1/DTD/svg11.dtd">
<svg version="1.1" xmlns="http://www.w3.org/2000/svg" xmlns:xlink="http://www.w3.org/1999/xlink" width="102.372" height="93.3472">
 <g>
  <rect height="93.3472" opacity="0" width="102.372" x="0" y="0"/>
  <path d="M12.4651 74.9695L16.3714 81.7078L51.1858 64.2273L86.0003 81.7078L89.9554 74.9695L55.1409 57.4891L55.1409 16.2781L47.2796 16.2781L47.2796 57.4891ZM0.55107 81.8543C-0.816118 84.9793 0.404585 86.9812 3.7249 87.3719L23.9397 89.5691C28.4319 90.1062 31.0686 87.323 28.6761 83.2215L16.6155 62.323C14.3206 58.3191 10.5608 59.1492 8.80302 63.2508ZM101.821 81.8543L93.6175 63.2508C91.8108 59.1492 88.0999 58.3191 85.805 62.323L73.6956 83.2215C71.303 87.323 73.9886 90.1062 78.4319 89.5691L98.6468 87.3719C101.967 86.9812 103.188 84.9793 101.821 81.8543ZM47.9632 2.06913L36.0003 18.4266C33.3147 22.0398 34.4378 25.7508 39.1253 25.7508L63.1976 25.7508C67.9827 25.7508 69.0081 22.0887 66.3226 18.4266L54.3108 2.06913C52.2601-0.665243 50.014-0.714071 47.9632 2.06913Z" fill="#000000" fill-opacity="0.85"/>
 </g>
</svg>
