<?xml version="1.0" encoding="UTF-8"?>
<!--Generator: Apple Native CoreSVG 232.5-->
<!DOCTYPE svg
PUBLIC "-//W3C//DTD SVG 1.1//EN"
       "http://www.w3.org/Graphics/SVG/1.1/DTD/svg11.dtd">
<svg version="1.1" xmlns="http://www.w3.org/2000/svg" xmlns:xlink="http://www.w3.org/1999/xlink" width="99.6094" height="99.6582">
 <g>
  <rect height="99.6582" opacity="0" width="99.6094" x="0" y="0"/>
  <path d="M99.6094 49.8047C99.6094 77.002 77.0508 99.6094 49.8047 99.6094C22.6074 99.6094 0 77.002 0 49.8047C0 22.5586 22.5586 0 49.7559 0C77.002 0 99.6094 22.5586 99.6094 49.8047ZM32.0801 36.7188L27.832 57.8613L27.7832 57.8613L23.3887 36.7188C22.8516 34.1797 21.3867 33.3496 19.2871 33.3496C16.3086 33.3496 15.0391 35.3027 15.0391 37.4512L15.0391 63.4277C15.0391 65.0879 16.0156 66.2109 17.6758 66.2109C19.3359 66.2109 20.2637 65.1367 20.2637 63.4277L20.2637 42.0898L20.459 42.0898L24.7559 62.6953C25.0977 64.4043 26.0742 65.625 27.7832 65.625C29.541 65.625 30.4688 64.4043 30.8105 62.6953L35.1562 42.0898L35.3516 42.0898L35.3516 63.4277C35.3516 65.0879 36.2305 66.2109 37.8906 66.2109C39.5508 66.2109 40.4785 65.1367 40.4785 63.4277L40.4785 37.4512C40.4785 34.8633 38.8184 33.3496 36.2305 33.3496C33.9355 33.3496 32.5684 34.375 32.0801 36.7188ZM79.0527 36.4258L79.0527 47.0703L71.3379 47.0703L71.3379 36.4258C71.3379 34.5703 70.3125 33.3496 68.4082 33.3496C66.5039 33.3496 65.5273 34.5703 65.5273 36.4258L65.5273 63.0371C65.5273 64.8926 66.5039 66.2109 68.4082 66.2109C70.3125 66.2109 71.3379 64.8926 71.3379 63.0371L71.3379 51.9531L79.0527 51.9531L79.0527 63.0371C79.0527 64.6973 79.9805 66.2109 81.9824 66.2109C83.8379 66.2109 84.8633 64.9902 84.8633 63.0371L84.8633 36.4258C84.8633 34.4727 83.7891 33.3496 81.9824 33.3496C80.0293 33.3496 79.0527 34.6191 79.0527 36.4258ZM47.3145 33.8379C45.7031 33.8379 44.4824 34.7656 44.4824 36.8652L44.4824 63.0859C44.4824 65.332 45.8984 66.1133 47.3145 66.1133C49.0723 66.1133 50.293 65.1367 50.293 63.0859L50.293 55.2246L53.6133 55.2246C59.5215 55.2246 62.5 50.0977 62.5 44.5312C62.5 38.8184 59.6191 33.8379 54.0039 33.8379ZM56.7871 44.5312C56.7871 47.7539 55.6641 50.5859 52.4414 50.5859L50.293 50.5859L50.293 38.4766L52.4902 38.4766C55.6641 38.4766 56.7871 41.3086 56.7871 44.5312Z" fill="#000000" fill-opacity="0.85"/>
 </g>
</svg>
