<?xml version="1.0" encoding="UTF-8"?>
<!--Generator: Apple Native CoreSVG 232.5-->
<!DOCTYPE svg
PUBLIC "-//W3C//DTD SVG 1.1//EN"
       "http://www.w3.org/Graphics/SVG/1.1/DTD/svg11.dtd">
<svg version="1.1" xmlns="http://www.w3.org/2000/svg" xmlns:xlink="http://www.w3.org/1999/xlink" width="93.6523" height="103.271">
 <g>
  <rect height="103.271" opacity="0" width="93.6523" x="0" y="0"/>
  <path d="M33.5449 103.223L42.9199 103.223C63.5742 103.223 76.4648 92.3828 76.4648 75L76.4648 13.5254C76.4648 4.78516 60.1562 0 38.2324 0C16.3086 0 0 4.78516 0 13.5254L0 75C0 92.3828 12.9395 103.223 33.5449 103.223ZM38.2324 16.2109C21.1426 16.2109 9.32617 14.3555 9.32617 11.5723C9.32617 8.78906 21.1426 6.88477 38.2324 6.88477C55.3223 6.88477 67.1387 8.78906 67.1387 11.5723C67.1387 14.3555 55.3223 16.2109 38.2324 16.2109ZM71.2891 74.1211L79.3945 74.1211C88.0859 74.1211 93.6523 68.2617 93.6523 59.5215L93.6523 39.9902C93.6523 31.2012 88.0859 25.3906 79.3945 25.3906L71.2891 25.3906L71.2891 32.7637L79.3945 32.7637C84.3262 32.7637 86.2793 34.7656 86.2793 39.9902L86.2793 59.5215C86.2793 64.6973 84.3262 66.748 79.3945 66.748L71.2891 66.748Z" fill="#000000" fill-opacity="0.85"/>
 </g>
</svg>
