<?xml version="1.0" encoding="UTF-8"?>
<!--Generator: Apple Native CoreSVG 232.5-->
<!DOCTYPE svg
PUBLIC "-//W3C//DTD SVG 1.1//EN"
       "http://www.w3.org/Graphics/SVG/1.1/DTD/svg11.dtd">
<svg version="1.1" xmlns="http://www.w3.org/2000/svg" xmlns:xlink="http://www.w3.org/1999/xlink" width="96.9532" height="103.012">
 <g>
  <rect height="103.012" opacity="0" width="96.9532" x="0" y="0"/>
  <path d="M49.7461 99.2353C52.2363 99.2353 54.1895 97.2822 54.1895 94.8408L54.1895 58.6103L68.7891 45.1337C74.3555 45.8662 80.2149 43.5712 85.3418 38.4443L58.4863 11.54C53.3106 16.6669 51.1621 22.4287 51.9434 28.0439L6.53322 76.9208C4.67775 78.9228 4.38478 81.706 6.6797 84.0009L0.429702 92.0576C-0.156235 92.8388-0.205063 93.9619 0.673843 94.8408L2.08986 96.3056C2.91994 97.1357 4.04298 97.1845 4.92189 96.5009L12.9785 90.2021C15.1758 92.497 18.0078 92.204 19.961 90.3486L45.3027 66.9111L45.3027 94.8408C45.3027 97.2822 47.2559 99.2353 49.7461 99.2353ZM11.5625 80.9247L54.6289 35.2216C55.459 36.6376 56.4356 37.956 57.6563 39.2744C58.8281 40.4951 60.1953 41.6181 61.4649 42.3994L16.0547 85.4169ZM63.3692 6.60834L90.2735 33.5126C98.8672 25.0165 99.209 14.1279 90.957 5.92475C82.7539-2.18072 71.9629-1.98541 63.3692 6.60834Z" fill="#000000" fill-opacity="0.85"/>
 </g>
</svg>
