<?xml version="1.0" encoding="UTF-8"?>
<!--Generator: Apple Native CoreSVG 232.5-->
<!DOCTYPE svg
PUBLIC "-//W3C//DTD SVG 1.1//EN"
       "http://www.w3.org/Graphics/SVG/1.1/DTD/svg11.dtd">
<svg version="1.1" xmlns="http://www.w3.org/2000/svg" xmlns:xlink="http://www.w3.org/1999/xlink" width="99.6094" height="99.6582">
 <g>
  <rect height="99.6582" opacity="0" width="99.6094" x="0" y="0"/>
  <path d="M49.8047 99.6094C77.0508 99.6094 99.6094 77.002 99.6094 49.8047C99.6094 22.5586 77.002 0 49.7559 0C22.5586 0 0 22.5586 0 49.8047C0 77.002 22.6074 99.6094 49.8047 99.6094ZM49.8047 91.3086C26.7578 91.3086 8.34961 72.8516 8.34961 49.8047C8.34961 26.7578 26.709 8.30078 49.7559 8.30078C72.8027 8.30078 91.3086 26.7578 91.3086 49.8047C91.3086 72.8516 72.8516 91.3086 49.8047 91.3086Z" fill="#000000" fill-opacity="0.85"/>
  <path d="M50.4883 37.5977L27.2461 62.5977C26.0742 63.8672 26.0254 65.4297 27.002 66.6504L24.0234 70.459C23.5352 71.1426 23.584 72.0215 24.2188 72.6074L24.9512 73.3398C25.5371 73.9258 26.3672 74.0234 27.0996 73.4863L30.957 70.5078C32.1289 71.4844 33.6914 71.4355 34.9121 70.3125L47.0703 59.0332L47.0703 72.2168C47.0703 73.7793 48.291 75.0488 49.9023 75.0488C51.4648 75.0488 52.7344 73.7793 52.7344 72.2168L52.7344 53.7598L59.8633 47.1191C62.9883 47.4609 66.0645 46.1914 68.7012 43.457L54.0527 28.8086C51.3672 31.543 50.1465 34.5215 50.4883 37.5977ZM30.957 65.0391L52.3438 42.334C52.6855 42.8711 53.0762 43.3594 53.6133 43.9453C54.0527 44.4336 54.5898 44.873 55.127 45.2148L32.5195 66.6504ZM71.5332 25.9766C67.0898 21.5332 61.1328 21.7285 56.543 26.3184L71.1914 40.9668C75.8301 36.377 75.9766 30.4199 71.5332 25.9766Z" fill="#000000" fill-opacity="0.85"/>
 </g>
</svg>
