<?xml version="1.0" encoding="UTF-8"?>
<!--Generator: Apple Native CoreSVG 232.5-->
<!DOCTYPE svg
PUBLIC "-//W3C//DTD SVG 1.1//EN"
       "http://www.w3.org/Graphics/SVG/1.1/DTD/svg11.dtd">
<svg version="1.1" xmlns="http://www.w3.org/2000/svg" xmlns:xlink="http://www.w3.org/1999/xlink" width="99.6094" height="99.6582">
 <g>
  <rect height="99.6582" opacity="0" width="99.6094" x="0" y="0"/>
  <path d="M99.6094 49.8047C99.6094 77.002 77.0508 99.6094 49.8047 99.6094C22.6074 99.6094 0 77.002 0 49.8047C0 22.5586 22.5586 0 49.7559 0C77.002 0 99.6094 22.5586 99.6094 49.8047ZM50.5371 37.2559L26.5625 62.9883C25.3418 64.3066 25.293 65.918 26.3184 67.1875L23.291 71.0938C22.7539 71.8262 22.7539 72.7539 23.4375 73.3398L24.2188 74.0723C24.9023 74.6582 25.6836 74.7559 26.416 74.2188L30.4199 71.1914C31.6406 72.168 33.252 72.0703 34.4727 70.9473L47.0215 59.375L47.0215 72.9004C47.0215 74.5605 48.2422 75.8301 49.9512 75.8301C51.5625 75.8301 52.832 74.5605 52.832 72.9004L52.832 53.9062L60.2539 47.0703C63.4277 47.4121 66.6016 46.0938 69.3359 43.3105L54.248 28.1738C51.416 31.0059 50.1465 34.082 50.5371 37.2559ZM53.7598 43.7988C54.248 44.2871 54.7852 44.7266 55.2734 45.1172L32.0801 67.1875L30.4199 65.5273L52.4902 42.1387C52.7832 42.7246 53.1738 43.2129 53.7598 43.7988ZM56.7871 25.6348L71.875 40.7227C76.6602 35.9863 76.8555 29.834 72.2168 25.293C67.627 20.7031 61.5234 20.8984 56.7871 25.6348Z" fill="#000000" fill-opacity="0.85"/>
 </g>
</svg>
