<?xml version="1.0" encoding="UTF-8"?>
<!--Generator: Apple Native CoreSVG 232.5-->
<!DOCTYPE svg
PUBLIC "-//W3C//DTD SVG 1.1//EN"
       "http://www.w3.org/Graphics/SVG/1.1/DTD/svg11.dtd">
<svg version="1.1" xmlns="http://www.w3.org/2000/svg" xmlns:xlink="http://www.w3.org/1999/xlink" width="112.402" height="97.4121">
 <g>
  <rect height="97.4121" opacity="0" width="112.402" x="0" y="0"/>
  <path d="M80.5176 84.5703C80.5176 92.0898 86.2793 97.3145 94.4336 97.3145C101.611 97.3145 112.402 91.9922 112.402 77.7344L112.402 28.1738C112.402 26.416 110.889 24.9023 109.131 24.9023C107.324 24.9023 105.811 26.416 105.811 28.1738L105.811 64.0625C105.811 66.5039 104.834 68.0664 102.734 68.457L94.9219 70.1172C85.1074 72.168 80.5176 77.1484 80.5176 84.5703Z" fill="#000000" fill-opacity="0.85"/>
  <path d="M44.3359 59.668C44.3359 67.1387 50.1465 72.4121 58.252 72.4121C65.4785 72.4121 76.2207 67.0898 76.2207 52.7832L76.2207 3.27148C76.2207 1.46484 74.7559 0 72.9492 0C71.1426 0 69.6289 1.46484 69.6289 3.27148L69.6289 39.1602C69.6289 41.5527 68.7012 43.1152 66.5527 43.5547L58.7891 45.166C48.9258 47.2168 44.3359 52.1973 44.3359 59.668Z" fill="#000000" fill-opacity="0.85"/>
  <path d="M0 84.5703C0 92.0898 5.81055 97.3145 13.916 97.3145C21.1426 97.3145 31.8848 91.9922 31.8848 77.7344L31.8848 28.1738C31.8848 26.416 30.4199 24.9023 28.6133 24.9023C26.8066 24.9023 25.293 26.416 25.293 28.1738L25.293 64.0625C25.293 66.4551 24.3652 68.0664 22.2168 68.457L14.4531 70.0684C4.58984 72.168 0 77.0996 0 84.5703Z" fill="#000000" fill-opacity="0.85"/>
 </g>
</svg>
