<?xml version="1.0" encoding="UTF-8"?>
<!--Generator: Apple Native CoreSVG 232.5-->
<!DOCTYPE svg
PUBLIC "-//W3C//DTD SVG 1.1//EN"
       "http://www.w3.org/Graphics/SVG/1.1/DTD/svg11.dtd">
<svg version="1.1" xmlns="http://www.w3.org/2000/svg" xmlns:xlink="http://www.w3.org/1999/xlink" width="59.5703" height="100.342">
 <g>
  <rect height="100.342" opacity="0" width="59.5703" x="0" y="0"/>
  <path d="M59.5703 24.4629L59.5703 6.10352C59.5703 3.51562 57.4707 1.85547 54.9805 2.34375L29.8828 7.8125C26.7578 8.49609 25.0488 10.2051 25.0488 12.9395L25.1465 67.2363C25.3906 69.6289 24.2676 71.1914 22.1191 71.6309L14.3555 73.2422C4.58984 75.293 0 80.2734 0 87.6465C0 95.1172 5.76172 100.342 13.8672 100.342C21.0449 100.342 31.7871 95.0684 31.7871 80.8594L31.7871 36.1816C31.7871 33.5938 32.2754 33.0566 34.5703 32.5684L56.8848 27.6855C58.5449 27.3438 59.5703 26.0742 59.5703 24.4629Z" fill="#000000" fill-opacity="0.85"/>
 </g>
</svg>
