<?xml version="1.0" encoding="UTF-8"?>
<!--Generator: Apple Native CoreSVG 232.5-->
<!DOCTYPE svg
PUBLIC "-//W3C//DTD SVG 1.1//EN"
       "http://www.w3.org/Graphics/SVG/1.1/DTD/svg11.dtd">
<svg version="1.1" xmlns="http://www.w3.org/2000/svg" xmlns:xlink="http://www.w3.org/1999/xlink" width="99.5605" height="100.342">
 <g>
  <rect height="100.342" opacity="0" width="99.5605" x="0" y="0"/>
  <path d="M3.32031 61.5234L46.9727 61.5234C48.8281 61.5234 50.293 60.0586 50.293 58.2031C50.293 56.3965 48.7793 54.9316 46.9727 54.9316L3.32031 54.9316C1.46484 54.9316 0 56.3965 0 58.2031C0 60.0586 1.41602 61.5234 3.32031 61.5234Z" fill="#000000" fill-opacity="0.85"/>
  <path d="M3.32031 44.1406L46.9727 44.1406C48.8281 44.1406 50.293 42.627 50.293 40.7715C50.293 38.9648 48.7793 37.5488 46.9727 37.5488L3.32031 37.5488C1.46484 37.5488 0 38.9648 0 40.7715C0 42.627 1.41602 44.1406 3.32031 44.1406Z" fill="#000000" fill-opacity="0.85"/>
  <path d="M3.32031 26.7578L46.9727 26.7578C48.7793 26.7578 50.293 25.2441 50.293 23.4375C50.293 21.6309 48.7793 20.166 46.9727 20.166L3.32031 20.166C1.46484 20.166 0 21.6309 0 23.4375C0 25.2441 1.46484 26.7578 3.32031 26.7578Z" fill="#000000" fill-opacity="0.85"/>
  <path d="M99.5605 24.4629L99.5605 6.10352C99.5605 3.51562 97.4609 1.85547 94.9707 2.34375L69.873 7.8125C66.748 8.49609 65.0391 10.2051 65.0391 12.9395L65.1367 67.2363C65.3809 69.6289 64.2578 71.1914 62.1094 71.6309L54.3457 73.2422C44.5801 75.293 39.9902 80.2734 39.9902 87.6465C39.9902 95.1172 45.752 100.342 53.8574 100.342C61.0352 100.342 71.7773 95.0684 71.7773 80.8594L71.7773 36.1816C71.7773 33.5938 72.2656 33.0566 74.5605 32.5684L96.875 27.6855C98.5352 27.3438 99.5605 26.0742 99.5605 24.4629Z" fill="#000000" fill-opacity="0.85"/>
 </g>
</svg>
