<?xml version="1.0" encoding="UTF-8"?>
<!--Generator: Apple Native CoreSVG 232.5-->
<!DOCTYPE svg
PUBLIC "-//W3C//DTD SVG 1.1//EN"
       "http://www.w3.org/Graphics/SVG/1.1/DTD/svg11.dtd">
<svg version="1.1" xmlns="http://www.w3.org/2000/svg" xmlns:xlink="http://www.w3.org/1999/xlink" width="99.6094" height="99.6582">
 <g>
  <rect height="99.6582" opacity="0" width="99.6094" x="0" y="0"/>
  <path d="M49.8047 99.6094C77.0508 99.6094 99.6094 77.002 99.6094 49.8047C99.6094 22.5586 77.002 0 49.7559 0C22.5586 0 0 22.5586 0 49.8047C0 77.002 22.6074 99.6094 49.8047 99.6094ZM49.8047 91.3086C26.7578 91.3086 8.34961 72.8516 8.34961 49.8047C8.34961 26.7578 26.709 8.30078 49.7559 8.30078C72.8027 8.30078 91.3086 26.7578 91.3086 49.8047C91.3086 72.8516 72.8516 91.3086 49.8047 91.3086Z" fill="#000000" fill-opacity="0.85"/>
  <path d="M35.0098 72.168C37.3535 72.168 38.7207 70.752 38.7207 68.2617L38.7207 39.8438L39.0137 39.8438L60.3027 69.8242C61.6211 71.6309 62.5977 72.168 64.209 72.168C66.6016 72.168 68.0664 70.7031 68.0664 68.1152L68.0664 30.4199C68.0664 27.9785 66.6992 26.5137 64.3555 26.5137C62.0605 26.5137 60.7422 28.0762 60.7422 30.4199L60.7422 59.375L60.4004 59.375L39.1602 28.8574C37.8906 27.0996 36.8164 26.5137 35.2051 26.5137C32.8125 26.5137 31.4453 28.125 31.4453 30.6152L31.4453 68.2617C31.4453 70.6543 32.7637 72.168 35.0098 72.168Z" fill="#000000" fill-opacity="0.85"/>
 </g>
</svg>
