<?xml version="1.0" encoding="UTF-8"?>
<!--Generator: Apple Native CoreSVG 232.5-->
<!DOCTYPE svg
PUBLIC "-//W3C//DTD SVG 1.1//EN"
       "http://www.w3.org/Graphics/SVG/1.1/DTD/svg11.dtd">
<svg version="1.1" xmlns="http://www.w3.org/2000/svg" xmlns:xlink="http://www.w3.org/1999/xlink" width="89.8926" height="89.9902">
 <g>
  <rect height="89.9902" opacity="0" width="89.8926" x="0" y="0"/>
  <path d="M15.332 89.9902L74.5605 89.9902C84.8145 89.9902 89.8926 84.9121 89.8926 74.8535L89.8926 15.2344C89.8926 5.17578 84.8145 0.0976562 74.5605 0.0976562L15.332 0.0976562C5.12695 0.0976562 0 5.12695 0 15.2344L0 74.8535C0 84.9609 5.12695 89.9902 15.332 89.9902ZM15.4297 82.1289C10.5469 82.1289 7.86133 79.541 7.86133 74.4629L7.86133 15.625C7.86133 10.5469 10.5469 7.95898 15.4297 7.95898L74.4629 7.95898C79.2969 7.95898 82.0312 10.5469 82.0312 15.625L82.0312 74.4629C82.0312 79.541 79.2969 82.1289 74.4629 82.1289Z" fill="#000000" fill-opacity="0.85"/>
  <path d="M30.2246 67.334C32.5684 67.334 33.9355 65.918 33.9355 63.4277L33.9355 35.0098L34.2285 35.0098L55.5176 64.9902C56.8359 66.7969 57.8125 67.334 59.4238 67.334C61.8164 67.334 63.2812 65.8691 63.2812 63.2812L63.2812 25.5859C63.2812 23.1445 61.9141 21.6797 59.5703 21.6797C57.3242 21.6797 55.957 23.2422 55.957 25.5859L55.957 54.541L55.6641 54.541L34.375 24.0234C33.1055 22.2656 32.0312 21.6797 30.4199 21.6797C28.0273 21.6797 26.6602 23.291 26.6602 25.7812L26.6602 63.4277C26.6602 65.8203 27.9785 67.334 30.2246 67.334Z" fill="#000000" fill-opacity="0.85"/>
 </g>
</svg>
