<?xml version="1.0" encoding="UTF-8"?>
<!--Generator: Apple Native CoreSVG 232.5-->
<!DOCTYPE svg
PUBLIC "-//W3C//DTD SVG 1.1//EN"
       "http://www.w3.org/Graphics/SVG/1.1/DTD/svg11.dtd">
<svg version="1.1" xmlns="http://www.w3.org/2000/svg" xmlns:xlink="http://www.w3.org/1999/xlink" width="73.3887" height="90.5762">
 <g>
  <rect height="90.5762" opacity="0" width="73.3887" x="0" y="0"/>
  <path d="M12.6953 90.5762C15.4297 90.5762 17.2852 88.6719 17.2852 85.791L17.2852 18.0664L17.7246 18.0664L52.1484 85.8887C53.5645 88.7207 55.7129 90.5762 59.1309 90.5762C62.8906 90.5762 65.332 88.1348 65.332 84.4238L65.332 5.81055C65.332 2.92969 63.4766 1.02539 60.6934 1.02539C57.959 1.02539 56.1035 2.92969 56.1035 5.81055L56.1035 73.7305L55.6152 73.7305L21.2402 5.71289C19.8242 2.92969 17.627 1.02539 14.2578 1.02539C10.4492 1.02539 8.05664 3.4668 8.05664 7.17773L8.05664 85.791C8.05664 88.6719 9.91211 90.5762 12.6953 90.5762ZM0 45.9961C0 47.7539 1.36719 49.1699 3.125 49.1699L70.2637 49.1699C72.0215 49.1699 73.3887 47.7539 73.3887 45.9961C73.3887 44.1406 72.0215 42.8223 70.2637 42.8223L3.125 42.8223C1.36719 42.8223 0 44.1406 0 45.9961Z" fill="#000000" fill-opacity="0.85"/>
 </g>
</svg>
