<?xml version="1.0" encoding="UTF-8"?>
<!--Generator: Apple Native CoreSVG 232.5-->
<!DOCTYPE svg
PUBLIC "-//W3C//DTD SVG 1.1//EN"
       "http://www.w3.org/Graphics/SVG/1.1/DTD/svg11.dtd">
<svg version="1.1" xmlns="http://www.w3.org/2000/svg" xmlns:xlink="http://www.w3.org/1999/xlink" width="109.095" height="99.6582">
 <g>
  <rect height="99.6582" opacity="0" width="109.095" x="0" y="0"/>
  <path d="M59.2839 99.6094C86.4812 99.6094 109.089 77.002 109.089 49.8047C109.089 22.5586 86.4812 0 59.2839 0C32.0378 0 9.47924 22.5098 9.47924 49.7559L17.78 49.7559C17.78 26.709 36.2371 8.34961 59.2839 8.34961C82.3308 8.34961 100.788 26.7578 100.788 49.8047C100.788 72.8516 82.3308 91.4062 59.2839 91.3086C45.3679 91.2598 33.1609 84.5215 25.6902 74.1211C24.1765 72.1191 21.8816 71.4844 19.8308 72.7051C17.8777 73.9258 17.3406 76.6113 19.0007 78.7598C28.2781 91.2109 42.8289 99.6094 59.2839 99.6094ZM3.47339 40.3809C-0.04224 40.3809-0.921146 42.7734 0.983151 45.5078L11.9207 61.0352C13.532 63.2812 15.8757 63.2324 17.4382 61.0352L28.3757 45.459C30.2312 42.7734 29.3523 40.3809 25.8855 40.3809Z" fill="#000000" fill-opacity="0.85"/>
  <path d="M38.7761 50.5859C38.7761 51.9043 39.7527 52.9785 41.1687 52.9785L43.8542 52.9785L43.8542 70.8984C43.8542 72.8027 45.1238 74.0723 46.9792 74.0723C48.8347 74.0723 50.1531 72.8027 50.1531 70.8984L50.1531 52.9785L57.1843 52.9785L66.364 71.2891C67.2429 73.0469 68.5613 74.1211 70.6121 74.1211C73.0535 74.1211 74.616 72.5586 74.616 70.166L74.616 53.0273L77.3503 53.0273C78.7175 53.0273 79.7429 51.9043 79.7429 50.5859C79.7429 49.1699 78.7175 48.1934 77.3503 48.1934L74.616 48.1934L74.616 30.127C74.616 28.2227 73.2976 26.9531 71.4421 26.9531C69.5867 26.9531 68.3171 28.2227 68.3171 30.127L68.3171 48.1934L61.3347 48.1934L52.0574 29.7363C51.1785 27.9785 49.8601 26.9043 47.8093 26.9043C45.3679 26.9043 43.8542 28.4668 43.8542 30.8105L43.8542 48.1445L41.1687 48.1445C39.8015 48.1445 38.7761 49.1699 38.7761 50.5859ZM50.1531 48.1445L50.1531 38.2324L54.7429 48.1445ZM63.7273 53.0273L68.3171 53.0273L68.3171 62.8906Z" fill="#000000" fill-opacity="0.85"/>
 </g>
</svg>
