<?xml version="1.0" encoding="UTF-8"?>
<!--Generator: Apple Native CoreSVG 232.5-->
<!DOCTYPE svg
PUBLIC "-//W3C//DTD SVG 1.1//EN"
       "http://www.w3.org/Graphics/SVG/1.1/DTD/svg11.dtd">
<svg version="1.1" xmlns="http://www.w3.org/2000/svg" xmlns:xlink="http://www.w3.org/1999/xlink" width="99.6094" height="99.6582">
 <g>
  <rect height="99.6582" opacity="0" width="99.6094" x="0" y="0"/>
  <path d="M7.86133 29.1016C19.9219 41.9434 36.9141 49.3652 54.9805 49.3164C69.2383 49.2676 82.7637 44.5312 93.7988 35.8398L91.0156 30.3711C80.957 38.7695 68.3105 43.3594 54.9805 43.4082C37.6953 43.457 21.5332 35.9375 10.5957 23.0469ZM2.63672 56.9824C28.0273 78.6621 64.3555 82.7148 93.6523 67.3828L93.5059 60.6934C65.0391 77.1484 28.6621 73.0469 4.10156 50.3418ZM26.8555 90.5273L33.8379 92.1387C30.5664 84.2773 28.8086 75.9766 28.6621 67.4316C27.2949 43.1641 37.7441 20.0195 56.3965 4.73633L50.1465 2.29492C31.6406 18.7012 21.4355 42.5781 22.7539 67.5293C22.8516 75.3418 24.2676 83.0566 26.8555 90.5273ZM59.0332 95.3613L64.5508 92.9199C55.4199 80.0293 50.4395 64.7461 50.4395 48.7793C50.4395 33.6426 54.834 19.1895 63.0859 6.88477L57.3242 4.83398C48.9746 17.9199 44.5312 33.1055 44.5312 48.7793C44.5312 65.625 49.6094 81.6895 59.0332 95.3613ZM87.793 77.1973L91.748 72.7051C75.3418 63.2812 65.0879 46.0449 64.8438 26.9043C64.7461 20.0684 65.9668 13.2812 68.4082 7.03125L62.6953 5.41992C60.1074 12.2559 58.8379 19.4824 58.9355 26.9531C59.1797 47.7051 70.166 66.6504 87.793 77.1973ZM28.6133 48.7305C32.7637 48.7305 36.1816 45.2637 36.1816 41.0645C36.1816 36.8652 32.7637 33.4473 28.6133 33.4473C24.3652 33.4473 20.9473 36.8652 20.9473 41.0645C20.9473 45.2637 24.3652 48.7305 28.6133 48.7305ZM66.0156 52.7832C70.1172 52.7832 73.4863 49.4141 73.4863 45.2148C73.4863 41.1133 70.1172 37.7441 66.0156 37.7441C61.8164 37.7441 58.4473 41.1133 58.4473 45.2148C58.4473 49.4141 61.8164 52.7832 66.0156 52.7832ZM51.4648 81.0059C55.6641 81.0059 59.0332 77.6367 59.0332 73.3887C59.0332 69.1895 55.6641 65.7715 51.4648 65.7715C47.2168 65.7715 43.7988 69.1895 43.7988 73.3887C43.7988 77.6367 47.2168 81.0059 51.4648 81.0059ZM49.8047 99.6094C77.0508 99.6094 99.6094 77.002 99.6094 49.8047C99.6094 22.5586 77.002 0 49.7559 0C22.5586 0 0 22.5586 0 49.8047C0 77.002 22.6074 99.6094 49.8047 99.6094ZM49.8047 92.9688C26.2207 92.9688 6.64062 73.3887 6.64062 49.8047C6.64062 26.2207 26.1719 6.64062 49.7559 6.64062C73.3398 6.64062 92.9688 26.2207 92.9688 49.8047C92.9688 73.3887 73.3887 92.9688 49.8047 92.9688Z" fill="#000000" fill-opacity="0.85"/>
 </g>
</svg>
