<?xml version="1.0" encoding="UTF-8"?>
<!--Generator: Apple Native CoreSVG 232.5-->
<!DOCTYPE svg
PUBLIC "-//W3C//DTD SVG 1.1//EN"
       "http://www.w3.org/Graphics/SVG/1.1/DTD/svg11.dtd">
<svg version="1.1" xmlns="http://www.w3.org/2000/svg" xmlns:xlink="http://www.w3.org/1999/xlink" width="99.6094" height="99.6582">
 <g>
  <rect height="99.6582" opacity="0" width="99.6094" x="0" y="0"/>
  <path d="M49.8047 99.6094C77.0508 99.6094 99.6094 77.002 99.6094 49.8047C99.6094 22.5586 77.002 0 49.7559 0C22.5586 0 0 22.5586 0 49.8047C0 77.002 22.6074 99.6094 49.8047 99.6094ZM49.8047 91.3086C26.7578 91.3086 8.34961 72.8516 8.34961 49.8047C8.34961 26.7578 26.709 8.30078 49.7559 8.30078C72.8027 8.30078 91.3086 26.7578 91.3086 49.8047C91.3086 72.8516 72.8516 91.3086 49.8047 91.3086Z" fill="#000000" fill-opacity="0.85"/>
  <path d="M24.0234 47.6074L24.0234 68.1152C24.0234 69.873 25.2441 70.8984 26.8555 70.8984C28.4668 70.8496 29.7363 69.8242 29.7363 68.1152L29.7363 43.2617L28.6133 43.2617C25.8301 43.2617 24.0234 44.873 24.0234 47.6074ZM31.7871 74.4629L68.2129 74.4629C73.0469 74.4629 75.4395 72.1191 75.4395 67.3828L75.4395 32.2754C75.4395 27.4902 73.0469 25.1953 68.2129 25.1953L41.4062 25.1953C36.5723 25.1953 34.1797 27.4902 34.1797 32.2754L34.1797 69.6777C34.1797 72.1191 33.5938 73.4863 31.7871 74.4629ZM43.5547 38.9648C42.627 38.9648 41.9434 38.3301 41.9434 37.4023C41.9434 36.5723 42.5781 35.9375 43.5547 35.9375L66.1133 35.9375C66.9922 35.9375 67.627 36.5723 67.627 37.4023C67.627 38.3301 66.9922 38.9648 66.1133 38.9648ZM43.5547 47.0703C42.627 47.0703 41.9434 46.4355 41.9434 45.5566C41.9434 44.6777 42.5781 44.043 43.5547 44.043L66.1133 44.043C66.9922 44.043 67.627 44.6777 67.627 45.5566C67.627 46.4355 66.9922 47.0703 66.1133 47.0703ZM57.8125 55.3223C56.8848 55.3223 56.25 54.6875 56.25 53.8574C56.25 52.9785 56.8848 52.2461 57.8125 52.2461L66.1133 52.2461C66.9922 52.2461 67.627 52.9785 67.627 53.8574C67.627 54.6875 66.9922 55.3223 66.1133 55.3223ZM57.8125 63.4766C56.8848 63.4766 56.25 62.8418 56.25 61.9629C56.25 61.084 56.8848 60.4492 57.8125 60.4492L66.1133 60.4492C66.9922 60.4492 67.627 61.084 67.627 61.9629C67.627 62.8418 66.9922 63.4766 66.1133 63.4766ZM44.6289 63.4766C42.9199 63.4766 41.9434 62.5 41.9434 60.791L41.9434 54.9805C41.9434 53.3203 42.9199 52.2461 44.6289 52.2461L50.3906 52.2461C52.0996 52.2461 53.125 53.3203 53.125 54.9805L53.125 60.791C53.125 62.5 52.0996 63.4766 50.3906 63.4766Z" fill="#000000" fill-opacity="0.85"/>
 </g>
</svg>
