<?xml version="1.0" encoding="UTF-8"?>
<!--Generator: Apple Native CoreSVG 232.5-->
<!DOCTYPE svg
PUBLIC "-//W3C//DTD SVG 1.1//EN"
       "http://www.w3.org/Graphics/SVG/1.1/DTD/svg11.dtd">
<svg version="1.1" xmlns="http://www.w3.org/2000/svg" xmlns:xlink="http://www.w3.org/1999/xlink" width="111.035" height="104.736">
 <g>
  <rect height="104.736" opacity="0" width="111.035" x="0" y="0"/>
  <path d="M0 89.9414C0 99.6582 4.83398 104.688 14.7461 104.688L95.7031 104.688C105.957 104.688 111.035 99.6582 111.035 89.5996L111.035 15.1367C111.035 5.07812 105.957 0 95.7031 0L36.8652 0C26.6602 0 21.5332 5.07812 21.5332 15.1367L21.5332 38.4277L9.86328 38.4277C3.66211 38.4277 0 41.7969 0 47.6074ZM7.86133 89.9414L7.86133 49.1211C7.86133 47.3145 8.93555 46.2891 10.7422 46.2891L21.5332 46.2891L21.5332 89.9414C21.5332 93.9941 18.5547 96.8262 14.7461 96.8262C10.8887 96.8262 7.86133 93.8477 7.86133 89.9414ZM27.7344 96.8262C28.8086 94.7266 29.3945 92.2852 29.3945 89.4531L29.3945 15.5762C29.3945 10.498 32.1289 7.86133 37.0117 7.86133L95.5566 7.86133C100.439 7.86133 103.174 10.498 103.174 15.5762L103.174 89.1602C103.174 94.2383 100.439 96.8262 95.5566 96.8262ZM42.0898 29.1016L90.5762 29.1016C92.2852 29.1016 93.6035 27.7344 93.6035 26.0254C93.6035 24.3652 92.2852 23.0957 90.5762 23.0957L42.0898 23.0957C40.332 23.0957 39.0137 24.3652 39.0137 26.0254C39.0137 27.7344 40.332 29.1016 42.0898 29.1016ZM42.0898 46.2891L90.5762 46.2891C92.2852 46.2891 93.6035 44.9707 93.6035 43.3105C93.6035 41.6016 92.2852 40.2832 90.5762 40.2832L42.0898 40.2832C40.332 40.2832 39.0137 41.6016 39.0137 43.3105C39.0137 44.9707 40.332 46.2891 42.0898 46.2891ZM44.9707 81.1035L57.6172 81.1035C61.3281 81.1035 63.5742 78.8574 63.5742 75.1465L63.5742 63.5254C63.5742 59.7656 61.3281 57.5195 57.6172 57.5195L44.9707 57.5195C41.2109 57.5195 38.9648 59.7656 38.9648 63.5254L38.9648 75.1465C38.9648 78.8574 41.2109 81.1035 44.9707 81.1035ZM72.3633 63.5254L90.5273 63.5254C92.2852 63.5254 93.5547 62.2559 93.5547 60.5957C93.5547 58.8379 92.2852 57.5195 90.5273 57.5195L72.3633 57.5195C70.6055 57.5195 69.3359 58.8379 69.3359 60.5957C69.3359 62.2559 70.6055 63.5254 72.3633 63.5254ZM72.3633 81.1035L90.5273 81.1035C92.2852 81.1035 93.5547 79.834 93.5547 78.1738C93.5547 76.4648 92.2852 75.0977 90.5273 75.0977L72.3633 75.0977C70.6055 75.0977 69.3359 76.4648 69.3359 78.1738C69.3359 79.834 70.6055 81.1035 72.3633 81.1035Z" fill="#000000" fill-opacity="0.85"/>
 </g>
</svg>
