<?xml version="1.0" encoding="UTF-8"?>
<!--Generator: Apple Native CoreSVG 232.5-->
<!DOCTYPE svg
PUBLIC "-//W3C//DTD SVG 1.1//EN"
       "http://www.w3.org/Graphics/SVG/1.1/DTD/svg11.dtd">
<svg version="1.1" xmlns="http://www.w3.org/2000/svg" xmlns:xlink="http://www.w3.org/1999/xlink" width="99.6094" height="99.6582">
 <g>
  <rect height="99.6582" opacity="0" width="99.6094" x="0" y="0"/>
  <path d="M49.8047 99.6094C77.0508 99.6094 99.6094 77.002 99.6094 49.8047C99.6094 22.5586 77.002 0 49.7559 0C22.5586 0 0 22.5586 0 49.8047C0 77.002 22.6074 99.6094 49.8047 99.6094ZM49.8047 91.3086C26.7578 91.3086 8.34961 72.8516 8.34961 49.8047C8.34961 26.7578 26.709 8.30078 49.7559 8.30078C72.8027 8.30078 91.3086 26.7578 91.3086 49.8047C91.3086 72.8516 72.8516 91.3086 49.8047 91.3086Z" fill="#000000" fill-opacity="0.85"/>
  <path d="M33.8867 70.2148C35.6445 70.2148 37.1094 68.7988 37.1094 67.041L37.1094 59.7656L39.6973 57.3242L47.2168 68.3594C48.4863 70.3125 50.5371 70.4102 51.9043 69.4824C53.0762 68.6035 53.6621 66.8457 52.2949 64.8438L44.2871 53.3691L52.2949 45.0195C53.6621 43.6035 53.3203 41.9922 52.3438 41.1133C51.2695 39.9902 49.3164 39.6484 47.8516 41.3086L37.207 53.1738L37.1094 53.1738L37.1094 32.373C37.1094 30.6152 35.6445 29.1504 33.8867 29.1504C32.1289 29.1504 30.7129 30.6152 30.7129 32.373L30.7129 67.041C30.7129 68.7988 32.1289 70.2148 33.8867 70.2148ZM61.4258 70.2637C63.1348 70.2637 64.4531 68.8965 64.4531 67.2363L64.4531 52.9785C64.4531 49.4141 65.6738 46.4355 69.2871 46.4355C70.459 46.4355 71.7285 46.1914 72.5098 45.5566C73.0469 45.1172 73.4375 44.3848 73.4375 43.457C73.4375 42.4805 73.1445 41.748 72.6074 41.2109C71.9727 40.625 71.1426 40.332 70.166 40.332C67.0898 40.332 65.0391 43.0176 64.502 46.1426L64.2578 46.1426L64.2578 43.1641C64.2578 41.5527 62.9395 40.2832 61.3281 40.2832C59.7168 40.2832 58.4473 41.5527 58.4473 43.1641L58.4473 67.2363C58.4473 68.8965 59.7656 70.2637 61.4258 70.2637Z" fill="#000000" fill-opacity="0.85"/>
 </g>
</svg>
