<?xml version="1.0" encoding="UTF-8"?>
<!--Generator: Apple Native CoreSVG 232.5-->
<!DOCTYPE svg
PUBLIC "-//W3C//DTD SVG 1.1//EN"
       "http://www.w3.org/Graphics/SVG/1.1/DTD/svg11.dtd">
<svg version="1.1" xmlns="http://www.w3.org/2000/svg" xmlns:xlink="http://www.w3.org/1999/xlink" width="87.4023" height="88.916">
 <g>
  <rect height="88.916" opacity="0" width="87.4023" x="0" y="0"/>
  <path d="M4.63867 87.9883C7.27539 87.9883 9.32617 85.9375 9.32617 83.3496L9.32617 64.6484L15.918 58.3008L36.9629 86.084C39.0137 88.8184 41.8945 88.8184 43.7988 87.4512C45.6543 86.084 46.4355 83.3984 44.3359 80.6641L22.7539 52.2461L42.7246 31.7871C44.9707 29.4922 44.6289 27.0508 43.1641 25.5859C41.6016 23.9746 38.7695 23.584 36.5723 25.8789L9.76562 54.0527L9.32617 54.0527L9.32617 4.63867C9.32617 2.05078 7.27539 0 4.63867 0C2.05078 0 0 2.05078 0 4.63867L0 83.3496C0 85.9375 2.05078 87.9883 4.63867 87.9883ZM62.3535 88.0371C64.9414 88.0371 67.041 85.9375 67.041 83.3496L67.041 49.6094C67.041 41.1621 70.7031 33.4473 79.9316 33.4473C82.0312 33.4473 83.5449 33.4961 84.9121 33.0078C86.377 32.4219 87.4023 31.25 87.4023 29.1504C87.4023 26.709 86.2305 25.3906 84.5215 24.7559C83.3496 24.2676 82.0801 24.1211 80.7129 24.1211C74.6094 24.1211 68.75 28.6133 66.9922 36.2793L66.6016 36.2793L66.6016 28.6133C66.6016 26.123 64.5508 24.1211 62.1094 24.1211C59.668 24.1211 57.666 26.123 57.666 28.6133L57.666 83.3496C57.666 85.9375 59.7168 88.0371 62.3535 88.0371Z" fill="#000000" fill-opacity="0.85"/>
 </g>
</svg>
