<?xml version="1.0" encoding="UTF-8"?>
<!--Generator: Apple Native CoreSVG 232.5-->
<!DOCTYPE svg
PUBLIC "-//W3C//DTD SVG 1.1//EN"
       "http://www.w3.org/Graphics/SVG/1.1/DTD/svg11.dtd">
<svg version="1.1" xmlns="http://www.w3.org/2000/svg" xmlns:xlink="http://www.w3.org/1999/xlink" width="98.2422" height="96.2402">
 <g>
  <rect height="96.2402" opacity="0" width="98.2422" x="0" y="0"/>
  <path d="M21.582 94.3848C26.123 94.3848 30.7617 92.5293 34.7168 89.3555L29.6875 84.2773C27.2949 85.9863 24.5605 86.9141 21.6309 86.9141C13.916 86.9141 8.1543 81.6895 8.1543 74.3164C8.1543 63.623 17.0898 58.252 27.2949 59.8145C33.2031 46.8262 36.2305 31.1523 39.5996 17.1387C41.0645 11.1328 43.7988 7.86133 49.1211 7.86133C54.4434 7.86133 57.1777 11.1328 58.5938 17.1387C62.0117 31.1523 65.0391 46.8262 70.9473 59.8145C81.1523 58.252 90.0879 63.623 90.0879 74.3164C90.0879 81.6895 84.3262 86.9141 76.6113 86.9141C73.6816 86.9141 70.9473 85.9863 68.5059 84.2773L63.5254 89.3555C67.4316 92.5293 72.1191 94.3848 76.6602 94.3848C89.6484 94.3848 98.2422 86.1816 98.2422 73.8281C98.2422 62.0605 89.7461 53.2715 76.8066 51.8555C72.3633 40.2344 68.8477 27.4414 66.0156 15.1855C63.7695 5.27344 58.2031 0 49.1211 0C40.0391 0 34.4727 5.27344 32.2266 15.1855C29.3945 27.4414 25.8789 40.2344 21.4355 51.8555C8.49609 53.2715 0 62.0605 0 73.8281C0 86.1816 8.59375 94.3848 21.582 94.3848ZM49.1211 95.8496C61.0352 95.8496 67.334 90.2832 71.6797 84.668C72.7051 85.3027 73.8281 85.6445 75.0488 85.6445C78.9551 85.6445 81.2012 82.9102 81.2012 80.0781C81.2012 77.2461 79.1016 74.5117 75.4395 74.5117C72.8027 74.5117 71.2891 75.9277 69.0918 78.3203C63.0371 84.8145 57.5684 87.6465 49.1211 87.6465C40.6738 87.6465 35.1562 84.8633 29.1504 78.3203C26.9531 75.9277 25.4395 74.5117 22.8027 74.5117C19.0918 74.5117 17.041 77.2461 17.041 80.0781C17.041 82.9102 19.2871 85.6445 23.1445 85.6445C24.4141 85.6445 25.5371 85.3027 26.5137 84.668C30.9082 90.2832 37.207 95.8496 49.1211 95.8496Z" fill="#000000" fill-opacity="0.85"/>
 </g>
</svg>
