<?xml version="1.0" encoding="UTF-8"?>
<!--Generator: Apple Native CoreSVG 232.5-->
<!DOCTYPE svg
PUBLIC "-//W3C//DTD SVG 1.1//EN"
       "http://www.w3.org/Graphics/SVG/1.1/DTD/svg11.dtd">
<svg version="1.1" xmlns="http://www.w3.org/2000/svg" xmlns:xlink="http://www.w3.org/1999/xlink" width="97.3145" height="89.9902">
 <g>
  <rect height="89.9902" opacity="0" width="97.3145" x="0" y="0"/>
  <path d="M15.332 89.9902L82.0312 89.9902C92.2363 89.9902 97.3145 84.9121 97.3145 74.8535L97.3145 15.2344C97.3145 5.17578 92.2363 0.0976562 82.0312 0.0976562L15.332 0.0976562C5.12695 0.0976562 0 5.12695 0 15.2344L0 74.8535C0 84.9609 5.12695 89.9902 15.332 89.9902ZM14.5996 82.1289C10.2539 82.1289 7.86133 79.834 7.86133 75.293L7.86133 29.248C7.86133 24.7559 10.2539 22.4121 14.5996 22.4121L82.666 22.4121C87.0117 22.4121 89.4531 24.7559 89.4531 29.248L89.4531 75.293C89.4531 79.834 87.0117 82.1289 82.666 82.1289Z" fill="#000000" fill-opacity="0.85"/>
  <path d="M23.0957 40.5762L74.3652 40.5762C76.0742 40.5762 77.3926 39.209 77.3926 37.5C77.3926 35.8398 76.0742 34.5703 74.3652 34.5703L23.0957 34.5703C21.2891 34.5703 20.0195 35.8398 20.0195 37.5C20.0195 39.209 21.2891 40.5762 23.0957 40.5762ZM23.0957 55.2734L74.3652 55.2734C76.0742 55.2734 77.3926 54.0039 77.3926 52.3438C77.3926 50.5859 76.0742 49.2676 74.3652 49.2676L23.0957 49.2676C21.2891 49.2676 20.0195 50.5859 20.0195 52.3438C20.0195 54.0039 21.2891 55.2734 23.0957 55.2734ZM23.0957 69.9707L55.6641 69.9707C57.373 69.9707 58.6914 68.7012 58.6914 67.041C58.6914 65.332 57.373 63.9648 55.6641 63.9648L23.0957 63.9648C21.2891 63.9648 20.0195 65.332 20.0195 67.041C20.0195 68.7012 21.2891 69.9707 23.0957 69.9707Z" fill="#000000" fill-opacity="0.85"/>
 </g>
</svg>
