<?xml version="1.0" encoding="UTF-8"?>
<!--Generator: Apple Native CoreSVG 232.5-->
<!DOCTYPE svg
PUBLIC "-//W3C//DTD SVG 1.1//EN"
       "http://www.w3.org/Graphics/SVG/1.1/DTD/svg11.dtd">
<svg version="1.1" xmlns="http://www.w3.org/2000/svg" xmlns:xlink="http://www.w3.org/1999/xlink" width="92.9688" height="71.4355">
 <g>
  <rect height="71.4355" opacity="0" width="92.9688" x="0" y="0"/>
  <path d="M75.9766 34.082C85.9863 34.082 92.9688 27.2461 92.9688 17.3828C92.9688 7.56836 85.9863 0.683594 75.9766 0.683594C66.2598 0.683594 59.5215 7.56836 59.5215 17.3828C59.5215 27.2461 66.3086 34.082 75.9766 34.082ZM75.9766 27.5879C70.8008 27.5879 67.1875 23.3887 67.1875 17.3828C67.1875 11.377 70.8008 7.22656 75.9766 7.22656C81.4941 7.22656 85.2539 11.377 85.2539 17.3828C85.2539 23.3887 81.4453 27.5879 75.9766 27.5879ZM4.15039 71.4355C6.78711 71.4355 8.34961 69.7754 8.34961 67.1387L8.34961 16.1133L8.1543 16.1133L43.3105 68.1641C45.0195 70.6055 46.3379 71.4355 48.4863 71.4355C51.3184 71.4355 52.9785 69.6777 52.9785 66.6504L52.9785 5.32227C52.9785 2.63672 51.416 0.927734 48.7793 0.927734C46.2402 0.927734 44.6289 2.63672 44.6289 5.32227L44.6289 56.2988L44.8242 56.2988L9.66797 4.19922C7.95898 1.70898 6.73828 0.927734 4.49219 0.927734C1.75781 0.927734 0 2.83203 0 5.71289L0 67.1387C0 69.7754 1.66016 71.4355 4.15039 71.4355ZM64.3066 46.2891L88.2324 46.2891C90.5762 46.2891 92.3828 44.8242 92.3828 42.4316C92.3828 40.0391 90.5762 38.4766 88.2324 38.4766L64.3066 38.4766C61.9629 38.4766 60.2539 40.0391 60.2539 42.4316C60.2539 44.8242 61.9629 46.2891 64.3066 46.2891Z" fill="#000000" fill-opacity="0.85"/>
 </g>
</svg>
