<?xml version="1.0" encoding="UTF-8"?>
<!--Generator: Apple Native CoreSVG 232.5-->
<!DOCTYPE svg
PUBLIC "-//W3C//DTD SVG 1.1//EN"
       "http://www.w3.org/Graphics/SVG/1.1/DTD/svg11.dtd">
<svg version="1.1" xmlns="http://www.w3.org/2000/svg" xmlns:xlink="http://www.w3.org/1999/xlink" width="89.8926" height="89.9902">
 <g>
  <rect height="89.9902" opacity="0" width="89.8926" x="0" y="0"/>
  <path d="M15.332 89.9902L74.5605 89.9902C84.8145 89.9902 89.8926 84.9121 89.8926 74.8535L89.8926 15.2344C89.8926 5.17578 84.8145 0.0976562 74.5605 0.0976562L15.332 0.0976562C5.12695 0.0976562 0 5.12695 0 15.2344L0 74.8535C0 84.9609 5.12695 89.9902 15.332 89.9902ZM15.4297 82.1289C10.5469 82.1289 7.86133 79.541 7.86133 74.4629L7.86133 15.625C7.86133 10.5469 10.5469 7.95898 15.4297 7.95898L74.4629 7.95898C79.2969 7.95898 82.0312 10.5469 82.0312 15.625L82.0312 74.4629C82.0312 79.541 79.2969 82.1289 74.4629 82.1289Z" fill="#000000" fill-opacity="0.85"/>
  <path d="M32.4219 68.7988C34.3262 68.7988 35.498 67.8223 35.8887 66.0156L38.0859 55.5176L47.168 55.5176L45.166 65.0879C44.7266 67.0898 46.1426 68.7988 48.1445 68.7988C50.0977 68.7988 51.3672 67.8223 51.7578 66.0156L53.9551 55.4688L59.0332 55.4688C60.9375 55.4688 62.3047 54.0527 62.3047 52.1973C62.3047 50.5371 61.1328 49.3164 59.5215 49.3164L55.2734 49.3164L57.373 39.4043L62.5 39.4043C64.4043 39.4043 65.7715 37.9883 65.7715 36.1328C65.7715 34.4727 64.5996 33.252 62.9883 33.252L58.6426 33.252L60.5469 24.1211C60.9375 22.1191 59.4727 20.4102 57.4707 20.4102C55.5664 20.4102 54.3457 21.3867 53.9551 23.2422L51.8555 33.252L42.7734 33.252L44.6289 24.1211C45.0684 22.168 43.6523 20.4102 41.6504 20.4102C39.6973 20.4102 38.4766 21.3867 38.0859 23.2422L36.0352 33.252L30.8594 33.252C29.0039 33.252 27.5879 34.668 27.5879 36.5234C27.5879 38.1836 28.7598 39.4043 30.4199 39.4043L34.668 39.4043L32.6172 49.3164L27.3926 49.3164C25.4883 49.3164 24.1211 50.7324 24.1211 52.5879C24.1211 54.248 25.293 55.4688 26.9043 55.4688L31.3477 55.4688L29.3457 65.0879C28.9551 67.0898 30.4199 68.7988 32.4219 68.7988ZM38.9648 49.9023L41.2109 38.916L51.0742 38.916L48.7793 49.9023Z" fill="#000000" fill-opacity="0.85"/>
 </g>
</svg>
