<?xml version="1.0" encoding="UTF-8"?>
<!--Generator: Apple Native CoreSVG 232.5-->
<!DOCTYPE svg
PUBLIC "-//W3C//DTD SVG 1.1//EN"
       "http://www.w3.org/Graphics/SVG/1.1/DTD/svg11.dtd">
<svg version="1.1" xmlns="http://www.w3.org/2000/svg" xmlns:xlink="http://www.w3.org/1999/xlink" width="99.6094" height="99.6582">
 <g>
  <rect height="99.6582" opacity="0" width="99.6094" x="0" y="0"/>
  <path d="M49.8047 99.6094C77.0508 99.6094 99.6094 77.002 99.6094 49.8047C99.6094 22.5586 77.002 0 49.7559 0C22.5586 0 0 22.5586 0 49.8047C0 77.002 22.6074 99.6094 49.8047 99.6094ZM49.8047 91.3086C26.7578 91.3086 8.34961 72.8516 8.34961 49.8047C8.34961 26.7578 26.709 8.30078 49.7559 8.30078C72.8027 8.30078 91.3086 26.7578 91.3086 49.8047C91.3086 72.8516 72.8516 91.3086 49.8047 91.3086Z" fill="#000000" fill-opacity="0.85"/>
  <path d="M37.1582 73.6328C39.1113 73.6328 40.2832 72.6562 40.625 70.8496L42.8711 60.3516L51.9531 60.3516L49.9512 69.9219C49.5117 71.9238 50.9277 73.6328 52.9297 73.6328C54.8828 73.6328 56.1523 72.6562 56.543 70.8496L58.7402 60.3027L63.8184 60.3027C65.7227 60.3027 67.0898 58.8867 67.0898 57.0312C67.0898 55.3711 65.918 54.1504 64.3066 54.1504L60.0586 54.1504L62.1582 44.2383L67.2852 44.2383C69.1895 44.2383 70.5566 42.8223 70.5566 40.9668C70.5566 39.3066 69.3848 38.0859 67.7734 38.0859L63.4277 38.0859L65.332 28.9551C65.6738 26.9531 64.2578 25.2441 62.2559 25.2441C60.3516 25.2441 59.1309 26.2207 58.7402 28.0762L56.6406 38.0859L47.5586 38.0859L49.4141 28.9551C49.8535 27.002 48.4375 25.2441 46.4355 25.2441C44.4824 25.2441 43.2617 26.2207 42.8711 28.0762L40.7715 38.0859L35.6445 38.0859C33.7402 38.0859 32.373 39.502 32.373 41.3574C32.373 43.0176 33.5449 44.2383 35.2051 44.2383L39.4531 44.2383L37.4023 54.1504L32.1777 54.1504C30.2734 54.1504 28.9062 55.5664 28.9062 57.4219C28.9062 59.082 30.0781 60.3027 31.6895 60.3027L36.084 60.3027L34.1309 69.9219C33.7402 71.9238 35.2051 73.6328 37.1582 73.6328ZM43.75 54.7363L45.9961 43.75L55.8594 43.75L53.5156 54.7363Z" fill="#000000" fill-opacity="0.85"/>
 </g>
</svg>
