<?xml version="1.0" encoding="UTF-8"?>
<!--Generator: Apple Native CoreSVG 232.5-->
<!DOCTYPE svg
PUBLIC "-//W3C//DTD SVG 1.1//EN"
       "http://www.w3.org/Graphics/SVG/1.1/DTD/svg11.dtd">
<svg version="1.1" xmlns="http://www.w3.org/2000/svg" xmlns:xlink="http://www.w3.org/1999/xlink" width="99.6094" height="99.6582">
 <g>
  <rect height="99.6582" opacity="0" width="99.6094" x="0" y="0"/>
  <path d="M99.6094 49.8047C99.6094 77.002 77.0508 99.6094 49.8047 99.6094C22.6074 99.6094 0 77.002 0 49.8047C0 22.5586 22.5586 0 49.7559 0C77.002 0 99.6094 22.5586 99.6094 49.8047ZM28.0273 49.3652C28.0273 63.5742 36.9629 73.4375 49.8047 73.4375C62.6953 73.4375 71.6309 63.5742 71.6309 49.3652C71.6309 35.1074 62.6953 25.2441 49.8047 25.2441C36.9629 25.2441 28.0273 35.1074 28.0273 49.3652ZM63.5254 49.3652C63.5254 60.0586 58.1055 67.0898 49.8047 67.0898C41.5039 67.0898 36.084 60.0586 36.084 49.3652C36.084 38.623 41.5039 31.5918 49.8047 31.5918C58.1055 31.5918 63.5254 38.623 63.5254 49.3652Z" fill="#000000" fill-opacity="0.85"/>
 </g>
</svg>
