<?xml version="1.0" encoding="UTF-8"?>
<!--Generator: Apple Native CoreSVG 232.5-->
<!DOCTYPE svg
PUBLIC "-//W3C//DTD SVG 1.1//EN"
       "http://www.w3.org/Graphics/SVG/1.1/DTD/svg11.dtd">
<svg version="1.1" xmlns="http://www.w3.org/2000/svg" xmlns:xlink="http://www.w3.org/1999/xlink" width="99.6094" height="99.6582">
 <g>
  <rect height="99.6582" opacity="0" width="99.6094" x="0" y="0"/>
  <path d="M49.8047 99.6094C77.0508 99.6094 99.6094 77.002 99.6094 49.8047C99.6094 22.5586 77.002 0 49.7559 0C22.5586 0 0 22.5586 0 49.8047C0 77.002 22.6074 99.6094 49.8047 99.6094ZM49.8047 91.3086C26.7578 91.3086 8.34961 72.8516 8.34961 49.8047C8.34961 26.7578 26.709 8.30078 49.7559 8.30078C72.8027 8.30078 91.3086 26.7578 91.3086 49.8047C91.3086 72.8516 72.8516 91.3086 49.8047 91.3086Z" fill="#000000" fill-opacity="0.85"/>
  <path d="M49.7559 72.7051C62.2559 72.7051 70.8984 63.1348 70.8984 49.3652C70.8984 35.5469 62.2559 25.9766 49.7559 25.9766C37.3047 25.9766 28.6621 35.5469 28.6621 49.3652C28.6621 63.1348 37.3047 72.7051 49.7559 72.7051ZM49.7559 66.5527C41.6992 66.5527 36.4258 59.7656 36.4258 49.3652C36.4258 38.916 41.6992 32.1289 49.7559 32.1289C57.8125 32.1289 63.0859 38.916 63.0859 49.3652C63.0859 59.7656 57.8125 66.5527 49.7559 66.5527Z" fill="#000000" fill-opacity="0.85"/>
 </g>
</svg>
