<?xml version="1.0" encoding="UTF-8"?>
<!--Generator: Apple Native CoreSVG 232.5-->
<!DOCTYPE svg
PUBLIC "-//W3C//DTD SVG 1.1//EN"
       "http://www.w3.org/Graphics/SVG/1.1/DTD/svg11.dtd">
<svg version="1.1" xmlns="http://www.w3.org/2000/svg" xmlns:xlink="http://www.w3.org/1999/xlink" width="98.3887" height="94.6777">
 <g>
  <rect height="94.6777" opacity="0" width="98.3887" x="0" y="0"/>
  <path d="M64.0137 94.6289C70.2148 94.6289 73.1445 92.627 76.3672 89.1602L94.3359 69.2383C97.5586 65.6738 98.3887 63.3301 98.3887 58.4961L98.3887 36.1816C98.3887 31.2988 97.5586 29.0039 94.3359 25.4395L76.3672 5.51758C73.1445 2.05078 70.2148 0 64.0137 0L34.375 0C28.1738 0 25.1953 2.05078 22.0215 5.51758L4.05273 25.4395C0.830078 29.0039 0 31.2988 0 36.1816L0 58.4961C0 63.3301 0.830078 65.6738 4.05273 69.2383L22.0215 89.1602C25.1953 92.627 28.1738 94.6289 34.375 94.6289ZM49.1699 7.86133L49.1699 86.8164L37.0117 86.8164C32.1289 86.8164 30.7129 85.7422 28.0273 82.8125L11.377 64.502C9.47266 62.3535 9.0332 61.1328 9.0332 57.5684L9.0332 37.1094C9.0332 33.5449 9.47266 32.3242 11.377 30.1758L28.0273 11.8652C30.7129 8.88672 32.1289 7.86133 37.0117 7.86133Z" fill="#000000" fill-opacity="0.85"/>
 </g>
</svg>
