<?xml version="1.0" encoding="UTF-8"?>
<!--Generator: Apple Native CoreSVG 232.5-->
<!DOCTYPE svg
PUBLIC "-//W3C//DTD SVG 1.1//EN"
       "http://www.w3.org/Graphics/SVG/1.1/DTD/svg11.dtd">
<svg version="1.1" xmlns="http://www.w3.org/2000/svg" xmlns:xlink="http://www.w3.org/1999/xlink" width="172.474" height="77.002">
 <g>
  <rect height="77.002" opacity="0" width="172.474" x="0" y="0"/>
  <path d="M2.78965 27.7344L27.8385 66.2598C30.817 70.8008 34.8209 72.4121 40.8268 72.4121L83.0143 72.4121C90.4361 72.4121 95.2213 70.5078 98.6393 66.2109L131.501 24.0723L150.446 19.0918L157.184 24.8535C161.188 28.3203 166.413 23.1934 162.36 19.5801L154.987 13.1348C153.424 11.7676 152.008 11.2305 148.883 12.0605L89.9479 27.7344L81.94 19.9707C79.7428 17.8711 77.399 17.334 74.4205 17.334L40.8268 17.334C39.4107 17.334 38.1412 17.4316 36.9693 17.6758L15.3385 9.52148C3.71738 5.12695-4.5834 16.5527 2.78965 27.7344ZM7.52598 22.2168C5.08457 18.3594 7.9166 14.4043 12.2135 15.9668L28.6686 22.3145C26.9596 24.6582 26.0318 27.8809 26.0318 31.9824L26.0318 50.6836ZM39.9479 3.56445C39.9479 5.51758 41.608 7.12891 43.5611 7.12891L72.4186 7.12891C74.3717 7.12891 76.0318 5.51758 76.0318 3.56445C76.0318 1.61133 74.3717 0 72.4186 0L43.5611 0C41.608 0 39.9479 1.61133 39.9479 3.56445ZM54.401 22.0703L61.5299 22.0703L61.5299 2.88086L54.401 2.88086ZM160.407 76.9531C166.999 76.9531 172.467 71.7285 172.467 65.0879C172.467 61.3281 170.612 57.7637 168.756 54.3457L161.53 40.918C161.286 40.4297 160.846 40.1855 160.407 40.1855C159.87 40.1855 159.577 40.4297 159.333 40.9668L152.008 54.3457C150.202 57.7637 148.346 61.3281 148.346 65.0879C148.346 71.7285 153.766 76.9531 160.407 76.9531Z" fill="#000000" fill-opacity="0.85"/>
 </g>
</svg>
