<?xml version="1.0" encoding="UTF-8"?>
<!--Generator: Apple Native CoreSVG 232.5-->
<!DOCTYPE svg
PUBLIC "-//W3C//DTD SVG 1.1//EN"
       "http://www.w3.org/Graphics/SVG/1.1/DTD/svg11.dtd">
<svg version="1.1" xmlns="http://www.w3.org/2000/svg" xmlns:xlink="http://www.w3.org/1999/xlink" width="99.6094" height="99.6582">
 <g>
  <rect height="99.6582" opacity="0" width="99.6094" x="0" y="0"/>
  <path d="M36.6699 97.7051C40.8691 98.9258 45.3125 99.6094 49.8047 99.6094C77.0508 99.6094 99.6094 77.002 99.6094 49.8047C99.6094 45.3125 98.9746 41.0156 97.8027 36.9141L71.8262 45.3125C72.168 46.7773 72.3145 48.2422 72.3145 49.8047C72.3145 62.2559 62.2559 72.3145 49.8535 72.3633C48.1934 72.3633 46.6309 72.2168 45.0684 71.8262ZM96.4355 32.9102C95.1172 29.1504 93.3105 25.6348 91.1133 22.3633L69.2383 38.5742C69.7754 39.4531 70.2148 40.3809 70.5078 41.3574ZM88.623 18.9941C83.1543 11.9629 75.7324 6.44531 67.1875 3.36914L58.7402 29.3945C61.8164 30.6152 64.5996 32.6172 66.6992 35.2051ZM63.2324 2.00195C58.9355 0.732422 54.4434 0 49.7559 0C22.5586 0 0 22.5586 0 49.8047C0 54.4922 0.732422 59.1309 2.05078 63.4277L27.9785 54.9805C27.5391 53.3203 27.3438 51.6113 27.3438 49.8047C27.3438 37.5488 37.5488 27.4414 49.9023 27.4414C51.5625 27.4414 53.1738 27.6855 54.7363 28.0273ZM3.4668 67.3828C4.83398 71.0449 6.64062 74.5117 8.78906 77.7344L30.6641 61.5723C30.1758 60.7422 29.7852 59.8633 29.3945 58.9355ZM11.377 81.1035C16.8457 87.9883 24.2676 93.4082 32.666 96.3379L41.0645 70.5078C38.0859 69.3359 35.3516 67.3828 33.3008 64.9414ZM49.8535 67.3828C59.5215 67.3828 67.334 59.4727 67.334 49.8047C67.334 40.2832 59.4727 32.4219 49.8535 32.4219C40.2344 32.4219 32.3242 40.332 32.3242 49.8047C32.3242 59.5703 40.1855 67.3828 49.8535 67.3828ZM49.8535 61.7676C43.3105 61.7676 37.9395 56.3965 37.9395 49.9023C37.9395 43.4082 43.3105 38.0371 49.8535 38.0371C56.3477 38.0371 61.7188 43.4082 61.7188 49.8535C61.7188 56.3965 56.3477 61.7676 49.8535 61.7676ZM49.8535 56.3477C53.3691 56.3965 56.25 53.4668 56.25 49.8535C56.25 46.3867 53.3691 43.457 49.9023 43.457C46.2402 43.457 43.4082 46.4355 43.4082 49.8535C43.4082 53.4668 46.2402 56.2988 49.8535 56.3477Z" fill="#000000" fill-opacity="0.85"/>
 </g>
</svg>
