<?xml version="1.0" encoding="UTF-8"?>
<!--Generator: Apple Native CoreSVG 232.5-->
<!DOCTYPE svg
PUBLIC "-//W3C//DTD SVG 1.1//EN"
       "http://www.w3.org/Graphics/SVG/1.1/DTD/svg11.dtd">
<svg version="1.1" xmlns="http://www.w3.org/2000/svg" xmlns:xlink="http://www.w3.org/1999/xlink" width="99.6094" height="99.6582">
 <g>
  <rect height="99.6582" opacity="0" width="99.6094" x="0" y="0"/>
  <path d="M49.8535 72.3633C62.2559 72.3145 72.3145 62.2559 72.3145 49.8047C72.3145 37.5488 62.207 27.4414 49.9023 27.4414C37.5488 27.4414 27.3438 37.5488 27.3438 49.8047C27.3438 62.2559 37.4512 72.4121 49.8535 72.3633ZM49.8535 67.3828C40.1855 67.3828 32.3242 59.5703 32.3242 49.8047C32.3242 40.332 40.2344 32.4219 49.8535 32.4219C59.4727 32.4219 67.334 40.2832 67.334 49.8047C67.334 59.4727 59.5215 67.3828 49.8535 67.3828ZM49.8535 61.7676C56.3477 61.7676 61.7188 56.3965 61.7188 49.8535C61.7188 43.4082 56.3477 38.0371 49.8535 38.0371C43.3105 38.0371 37.9395 43.4082 37.9395 49.9023C37.9395 56.3965 43.3105 61.7676 49.8535 61.7676ZM49.8535 56.3477C46.2402 56.2988 43.4082 53.4668 43.4082 49.8535C43.4082 46.4355 46.2402 43.457 49.9023 43.457C53.3691 43.457 56.25 46.3867 56.25 49.8535C56.25 53.4668 53.3691 56.3965 49.8535 56.3477ZM31.8359 58.1055L30.7129 54.0527L3.66211 62.8418L4.98047 66.8457ZM34.6191 63.9648L31.9824 60.6445L10.0098 76.8066L12.5488 80.2246ZM45.752 69.873L41.8945 68.1641L33.1543 95.0195L37.1582 96.3867ZM53.9551 30.3223L58.0078 31.543L66.5039 5.37109L62.5 4.00391ZM64.8926 36.5723L67.5293 39.8438L89.6484 23.4863L87.1094 20.166ZM67.8711 42.2363L69.3359 46.1426L95.9961 37.5488L94.6777 33.4961ZM49.8047 99.6094C77.0508 99.6094 99.6094 77.002 99.6094 49.8047C99.6094 22.5586 77.002 0 49.7559 0C22.5586 0 0 22.5586 0 49.8047C0 77.002 22.6074 99.6094 49.8047 99.6094ZM49.8047 91.3086C26.7578 91.3086 8.34961 72.8516 8.34961 49.8047C8.34961 26.7578 26.709 8.30078 49.7559 8.30078C72.8027 8.30078 91.3086 26.7578 91.3086 49.8047C91.3086 72.8516 72.8516 91.3086 49.8047 91.3086Z" fill="#000000" fill-opacity="0.85"/>
 </g>
</svg>
