<?xml version="1.0" encoding="UTF-8"?>
<!--Generator: Apple Native CoreSVG 232.5-->
<!DOCTYPE svg
PUBLIC "-//W3C//DTD SVG 1.1//EN"
       "http://www.w3.org/Graphics/SVG/1.1/DTD/svg11.dtd">
<svg version="1.1" xmlns="http://www.w3.org/2000/svg" xmlns:xlink="http://www.w3.org/1999/xlink" width="99.707" height="89.502">
 <g>
  <rect height="89.502" opacity="0" width="99.707" x="0" y="0"/>
  <path d="M28.125 0L4.58984 0C2.00195 0 0 1.9043 0 4.39453C0 6.88477 2.00195 8.83789 4.58984 8.83789L26.0742 8.83789C27.832 8.83789 29.1016 9.61914 29.834 11.2305L62.0117 83.4961C63.8184 87.5977 66.7969 89.502 71.2891 89.502L95.1172 89.502C97.6562 89.502 99.707 87.5488 99.707 85.1074C99.707 82.666 97.6562 80.6641 95.1172 80.6641L73.4863 80.6641C71.5332 80.6641 70.3125 79.9316 69.5312 78.3203L37.5 6.10352C35.8398 2.29492 32.3242 0 28.125 0ZM95.1172 0L63.5254 0C60.9375 0 58.9355 1.85547 58.9355 4.3457C58.9355 6.83594 60.9375 8.74023 63.5254 8.74023L95.1172 8.74023C97.7051 8.74023 99.6582 6.83594 99.6582 4.3457C99.6582 1.85547 97.7051 0 95.1172 0Z" fill="#000000" fill-opacity="0.85"/>
 </g>
</svg>
