<?xml version="1.0" encoding="UTF-8"?>
<!--Generator: Apple Native CoreSVG 232.5-->
<!DOCTYPE svg
PUBLIC "-//W3C//DTD SVG 1.1//EN"
       "http://www.w3.org/Graphics/SVG/1.1/DTD/svg11.dtd">
<svg version="1.1" xmlns="http://www.w3.org/2000/svg" xmlns:xlink="http://www.w3.org/1999/xlink" width="97.6074" height="84.3262">
 <g>
  <rect height="84.3262" opacity="0" width="97.6074" x="0" y="0"/>
  <path d="M0 23.7793L97.6074 23.7793L97.6074 10.2051C97.6074 4.10156 93.6523 0 87.793 0L9.81445 0C3.95508 0 0 4.10156 0 10.2051ZM18.1152 17.2852C15.625 17.2852 13.6719 15.332 13.6719 12.8906C13.6719 10.4492 15.625 8.49609 18.1152 8.49609C20.5078 8.49609 22.5098 10.4492 22.5098 12.8906C22.5098 15.332 20.5078 17.2852 18.1152 17.2852ZM31.0547 17.2852C28.6133 17.2852 26.6602 15.332 26.6602 12.8906C26.6602 10.4492 28.6133 8.49609 31.0547 8.49609C33.4961 8.49609 35.498 10.4492 35.498 12.8906C35.498 15.332 33.4961 17.2852 31.0547 17.2852ZM44.043 17.2852C41.5527 17.2852 39.5996 15.332 39.5996 12.8906C39.5996 10.4492 41.5527 8.49609 44.043 8.49609C46.4355 8.49609 48.4375 10.4492 48.4375 12.8906C48.4375 15.332 46.4355 17.2852 44.043 17.2852ZM69.6289 15.4297C68.1152 15.4297 67.041 14.3555 67.041 12.8418C67.041 11.3281 68.1152 10.3516 69.6289 10.3516L83.252 10.3516C84.7656 10.3516 85.7422 11.3281 85.7422 12.8418C85.7422 14.3555 84.7656 15.4297 83.252 15.4297ZM9.81445 84.2773L87.793 84.2773C93.6523 84.2773 97.6074 80.1758 97.6074 74.0723L97.6074 29.1992L0 29.1992L0 74.0723C0 80.1758 3.95508 84.2773 9.81445 84.2773ZM17.627 73.6328C14.7949 73.6328 12.9883 71.7773 12.9883 68.9941L12.9883 41.6016C12.9883 38.7207 14.7949 36.8652 17.627 36.8652L80.0293 36.8652C82.8613 36.8652 84.668 38.7207 84.668 41.6016L84.668 68.9941C84.668 71.7773 82.8613 73.6328 80.0293 73.6328ZM18.4082 48.0957L79.248 48.0957L79.248 43.6523C79.248 42.8223 78.7109 42.2852 77.9297 42.2852L19.7266 42.2852C18.9453 42.2852 18.4082 42.8223 18.4082 43.6523ZM19.7266 68.2129L77.9297 68.2129C78.7109 68.2129 79.248 67.6758 79.248 66.8945L79.248 53.5156L18.4082 53.5156L18.4082 66.8945C18.4082 67.6758 18.9453 68.2129 19.7266 68.2129Z" fill="#000000" fill-opacity="0.85"/>
 </g>
</svg>
