<?xml version="1.0" encoding="UTF-8"?>
<!--Generator: Apple Native CoreSVG 232.5-->
<!DOCTYPE svg
PUBLIC "-//W3C//DTD SVG 1.1//EN"
       "http://www.w3.org/Graphics/SVG/1.1/DTD/svg11.dtd">
<svg version="1.1" xmlns="http://www.w3.org/2000/svg" xmlns:xlink="http://www.w3.org/1999/xlink" width="115.137" height="87.7441">
 <g>
  <rect height="87.7441" opacity="0" width="115.137" x="0" y="0"/>
  <path d="M38.4766 87.6465L76.6602 87.6465C104.98 87.6465 115.137 77.1484 115.137 51.0254L115.137 36.6699C115.137 10.5469 104.98 0 76.6602 0L38.4766 0C10.1562 0 0 10.5469 0 36.6699L0 51.0254C0 77.1484 10.1562 87.6465 38.4766 87.6465ZM38.4766 79.7852C15.4297 79.7852 7.86133 72.3145 7.86133 51.0254L7.86133 36.6699C7.86133 15.3809 15.4297 7.86133 38.4766 7.86133L76.6602 7.86133C99.707 7.86133 107.275 15.3809 107.275 36.6699L107.275 51.0254C107.275 72.3145 99.707 79.7852 76.6602 79.7852Z" fill="#000000" fill-opacity="0.85"/>
  <path d="M37.9395 64.0625C40.2832 64.0625 41.5039 62.6465 41.5039 60.4004L41.5039 50.4883L46.6309 50.4883C54.1016 50.4883 58.3984 44.8242 58.3984 37.3047C58.3984 29.8828 54.1992 24.0234 47.0703 24.0234L37.8906 24.0234C35.8398 24.0234 34.375 25.3906 34.375 27.7832L34.375 60.4004C34.375 62.6953 35.6445 64.0625 37.9395 64.0625ZM41.5039 44.873L41.5039 29.7852L45.2637 29.7852C49.3652 29.7852 51.3184 32.7148 51.3184 37.3047C51.3184 41.6504 49.5605 44.873 45.2148 44.873ZM74.7559 64.1113C76.6602 64.1113 78.2715 62.5 78.2715 60.5469L78.2715 27.4414C78.2715 24.9512 76.709 23.4863 74.1699 23.4863C72.1191 23.4863 70.459 24.6094 69.3359 25.4883L63.9648 29.6387C63.0859 30.3223 62.4023 31.25 62.4023 32.5195C62.4023 34.0332 63.4277 35.1074 64.8926 35.1074C65.6738 35.1074 66.1621 34.8633 66.6504 34.5215L71.1426 30.9082L71.1426 60.5469C71.1426 62.5 72.7539 64.1113 74.7559 64.1113Z" fill="#000000" fill-opacity="0.85"/>
 </g>
</svg>
