<?xml version="1.0" encoding="UTF-8"?>
<!--Generator: Apple Native CoreSVG 232.5-->
<!DOCTYPE svg
PUBLIC "-//W3C//DTD SVG 1.1//EN"
       "http://www.w3.org/Graphics/SVG/1.1/DTD/svg11.dtd">
<svg version="1.1" xmlns="http://www.w3.org/2000/svg" xmlns:xlink="http://www.w3.org/1999/xlink" width="115.137" height="87.7441">
 <g>
  <rect height="87.7441" opacity="0" width="115.137" x="0" y="0"/>
  <path d="M115.137 36.6699L115.137 51.0254C115.137 77.1484 104.98 87.6465 76.6602 87.6465L38.4766 87.6465C10.1562 87.6465 0 77.1484 0 51.0254L0 36.6699C0 10.5469 10.1562 0 38.4766 0L76.6602 0C104.98 0 115.137 10.5469 115.137 36.6699ZM34.5215 23.3887C32.4219 23.3887 30.9082 24.8047 30.9082 27.2949L30.9082 60.8887C30.9082 63.2812 32.2266 64.6973 34.5703 64.6973C37.0117 64.6973 38.2324 63.2324 38.2324 60.8887L38.2324 50.7324L43.5547 50.7324C51.2695 50.7324 55.7129 44.873 55.7129 37.1094C55.7129 29.4434 51.3672 23.3887 43.9941 23.3887ZM60.791 33.0078C60.791 34.9121 61.9141 36.2305 63.8184 36.2305C65.4785 36.2305 66.5039 35.4492 66.9922 33.7891C67.9688 30.4199 69.2383 28.3203 72.0703 28.3203C75.1465 28.3203 76.8066 30.957 76.8066 34.5215C76.8066 38.5742 74.0234 42.6758 71.3379 46.0938L62.5977 57.2266C61.6699 58.4473 60.7422 59.7168 60.7422 61.2793C60.7422 62.9883 61.8164 64.209 64.1113 64.209L81.5918 64.209C83.3984 64.209 84.4727 63.0371 84.4727 61.2793C84.4727 59.3262 83.3008 58.3008 81.5918 58.3008L69.6777 58.3008L69.6777 57.8613L77.002 48.584C82.0801 42.334 83.7402 38.623 83.7402 34.1797C83.7402 27.3926 79.1016 22.4609 72.1191 22.4609C65.6738 22.4609 60.791 27.7832 60.791 33.0078ZM48.3887 37.1094C48.3887 41.6016 46.582 44.9219 42.0898 44.9219L38.2324 44.9219L38.2324 29.3945L42.1387 29.3945C46.3379 29.3945 48.3887 32.373 48.3887 37.1094Z" fill="#000000" fill-opacity="0.85"/>
 </g>
</svg>
