<?xml version="1.0" encoding="UTF-8"?>
<!--Generator: Apple Native CoreSVG 232.5-->
<!DOCTYPE svg
PUBLIC "-//W3C//DTD SVG 1.1//EN"
       "http://www.w3.org/Graphics/SVG/1.1/DTD/svg11.dtd">
<svg version="1.1" xmlns="http://www.w3.org/2000/svg" xmlns:xlink="http://www.w3.org/1999/xlink" width="115.137" height="87.7441">
 <g>
  <rect height="87.7441" opacity="0" width="115.137" x="0" y="0"/>
  <path d="M38.4766 87.6465L76.6602 87.6465C104.98 87.6465 115.137 77.1484 115.137 51.0254L115.137 36.6699C115.137 10.5469 104.98 0 76.6602 0L38.4766 0C10.1562 0 0 10.5469 0 36.6699L0 51.0254C0 77.1484 10.1562 87.6465 38.4766 87.6465ZM38.4766 79.7852C15.4297 79.7852 7.86133 72.3145 7.86133 51.0254L7.86133 36.6699C7.86133 15.3809 15.4297 7.86133 38.4766 7.86133L76.6602 7.86133C99.707 7.86133 107.275 15.3809 107.275 36.6699L107.275 51.0254C107.275 72.3145 99.707 79.7852 76.6602 79.7852Z" fill="#000000" fill-opacity="0.85"/>
  <path d="M35.3027 64.0625C37.6465 64.0625 38.8184 62.6465 38.8184 60.4004L38.8184 50.4883L43.9941 50.4883C51.4648 50.4883 55.7617 44.8242 55.7617 37.3047C55.7617 29.8828 51.5625 24.0234 44.4336 24.0234L35.2539 24.0234C33.2031 24.0234 31.7383 25.3906 31.7383 27.7832L31.7383 60.4004C31.7383 62.6953 33.0078 64.0625 35.3027 64.0625ZM38.8184 44.873L38.8184 29.7852L42.627 29.7852C46.7285 29.7852 48.6816 32.7148 48.6816 37.3047C48.6816 41.6504 46.9238 44.873 42.5781 44.873ZM63.916 63.5742L80.8594 63.5742C82.5684 63.5742 83.6426 62.4512 83.6426 60.7422C83.6426 58.8867 82.5195 57.8613 80.8594 57.8613L69.2871 57.8613L69.2871 57.4707L76.416 48.4375C81.2988 42.3828 82.9102 38.7695 82.9102 34.4727C82.9102 27.8809 78.418 23.0957 71.6797 23.0957C65.4297 23.0957 60.6934 28.2715 60.6934 33.3496C60.6934 35.1562 61.7676 36.4258 63.623 36.4258C65.2344 36.4258 66.2109 35.6934 66.6992 34.082C67.627 30.8105 68.8477 28.7598 71.6309 28.7598C74.6094 28.7598 76.2207 31.3477 76.2207 34.8145C76.2207 38.7207 73.5352 42.6758 70.9473 45.9961L62.4512 56.8359C61.5234 58.0078 60.6445 59.2285 60.6445 60.7422C60.6445 62.4023 61.6699 63.5742 63.916 63.5742Z" fill="#000000" fill-opacity="0.85"/>
 </g>
</svg>
