<?xml version="1.0" encoding="UTF-8"?>
<!--Generator: Apple Native CoreSVG 232.5-->
<!DOCTYPE svg
PUBLIC "-//W3C//DTD SVG 1.1//EN"
       "http://www.w3.org/Graphics/SVG/1.1/DTD/svg11.dtd">
<svg version="1.1" xmlns="http://www.w3.org/2000/svg" xmlns:xlink="http://www.w3.org/1999/xlink" width="115.137" height="87.7441">
 <g>
  <rect height="87.7441" opacity="0" width="115.137" x="0" y="0"/>
  <path d="M115.137 36.6699L115.137 51.0254C115.137 77.1484 104.98 87.6465 76.6602 87.6465L38.4766 87.6465C10.1562 87.6465 0 77.1484 0 51.0254L0 36.6699C0 10.5469 10.1562 0 38.4766 0L76.6602 0C104.98 0 115.137 10.5469 115.137 36.6699ZM61.4746 30.0293C61.2305 31.0059 61.1328 31.8848 61.1328 32.7637C61.1328 34.4238 62.2559 35.7422 64.209 35.7422C65.918 35.7422 66.9434 35.1074 67.4316 33.3496C68.2617 30.3711 69.873 28.5156 72.6562 28.5156C75.9766 28.5156 77.5391 31.0547 77.5391 34.375C77.5391 38.0371 75.5371 40.7227 71.7773 40.7227L70.5566 40.7227C68.8477 40.7227 67.7734 41.7969 67.7734 43.457C67.7734 45.1172 68.8965 46.0938 70.5566 46.0938L71.8262 46.0938C76.0742 46.0938 78.4668 48.4375 78.4668 52.7832C78.4668 56.25 76.6113 59.2285 72.8516 59.2285C69.1895 59.2285 67.627 56.7871 66.9434 54.4922C66.5039 52.832 65.3809 52.002 63.7695 52.002C61.7676 52.002 60.4492 53.2227 60.4492 55.1758C60.4492 56.1035 60.6445 56.9824 60.8887 57.8125C62.3047 62.5 67.4316 65.0879 72.8516 65.0879C80.0781 65.0879 85.6445 60.5469 85.6445 53.0273C85.6445 46.7773 81.8848 43.7012 77.6855 43.2617L77.6855 43.1152C82.2266 41.8945 84.4238 37.793 84.4238 33.5938C84.4238 26.6113 79.248 22.6562 72.6562 22.6562C67.4316 22.6562 62.9395 25.5859 61.4746 30.0293ZM34.082 23.3887C31.9336 23.3887 30.4199 24.8047 30.4199 27.2949L30.4199 60.8887C30.4199 63.2812 31.7383 64.6973 34.1309 64.6973C36.5723 64.6973 37.8418 63.2324 37.8418 60.8887L37.8418 50.7324L43.1641 50.7324C50.8301 50.7324 55.2734 44.873 55.2734 37.1094C55.2734 29.4434 50.9766 23.3887 43.5547 23.3887ZM47.9492 37.1094C47.9492 41.6016 46.0938 44.873 41.6504 44.873L37.8418 44.873L37.8418 29.3457L41.6992 29.3457C45.8984 29.3457 47.9492 32.373 47.9492 37.1094Z" fill="#000000" fill-opacity="0.85"/>
 </g>
</svg>
