<?xml version="1.0" encoding="UTF-8"?>
<!--Generator: Apple Native CoreSVG 232.5-->
<!DOCTYPE svg
PUBLIC "-//W3C//DTD SVG 1.1//EN"
       "http://www.w3.org/Graphics/SVG/1.1/DTD/svg11.dtd">
<svg version="1.1" xmlns="http://www.w3.org/2000/svg" xmlns:xlink="http://www.w3.org/1999/xlink" width="115.137" height="87.7441">
 <g>
  <rect height="87.7441" opacity="0" width="115.137" x="0" y="0"/>
  <path d="M38.4766 87.6465L76.6602 87.6465C104.98 87.6465 115.137 77.1484 115.137 51.0254L115.137 36.6699C115.137 10.5469 104.98 0 76.6602 0L38.4766 0C10.1562 0 0 10.5469 0 36.6699L0 51.0254C0 77.1484 10.1562 87.6465 38.4766 87.6465ZM38.4766 79.7852C15.4297 79.7852 7.86133 72.3145 7.86133 51.0254L7.86133 36.6699C7.86133 15.3809 15.4297 7.86133 38.4766 7.86133L76.6602 7.86133C99.707 7.86133 107.275 15.3809 107.275 36.6699L107.275 51.0254C107.275 72.3145 99.707 79.7852 76.6602 79.7852Z" fill="#000000" fill-opacity="0.85"/>
  <path d="M35.2539 64.0625C37.5488 64.0625 38.7695 62.6465 38.7695 60.4004L38.7695 50.4883L43.9453 50.4883C51.3672 50.4883 55.7129 44.8242 55.7129 37.3047C55.7129 29.8828 51.5137 24.0234 44.3359 24.0234L35.2051 24.0234C33.1543 24.0234 31.6406 25.3906 31.6406 27.7832L31.6406 60.4004C31.6406 62.6953 32.959 64.0625 35.2539 64.0625ZM38.7695 44.873L38.7695 29.7852L42.5781 29.7852C46.6797 29.7852 48.6328 32.7148 48.6328 37.3047C48.6328 41.6504 46.875 44.873 42.5293 44.873ZM77.9297 64.209C79.7852 64.209 81.25 63.0859 81.25 60.7422L81.25 55.8594L83.0078 55.8594C84.9121 55.8594 85.791 54.6387 85.791 52.9785C85.791 51.416 84.9609 50.1953 83.0078 50.1953L81.25 50.1953L81.25 28.7598C81.25 25.3906 79.0527 23.4863 75.8789 23.4863C72.4121 23.4863 70.8008 25.2441 69.4336 28.2715L60.7422 47.2168C59.9121 49.1211 59.6191 50.3906 59.6191 51.9043C59.6191 54.248 61.2305 55.8594 63.623 55.8594L74.5605 55.8594L74.5605 60.7422C74.5605 63.3301 76.3672 64.209 77.9297 64.209ZM74.707 50.3418L65.625 50.3418L65.625 50L74.5117 29.6387L74.707 29.6387Z" fill="#000000" fill-opacity="0.85"/>
 </g>
</svg>
