<?xml version="1.0" encoding="UTF-8"?>
<!--Generator: Apple Native CoreSVG 232.5-->
<!DOCTYPE svg
PUBLIC "-//W3C//DTD SVG 1.1//EN"
       "http://www.w3.org/Graphics/SVG/1.1/DTD/svg11.dtd">
<svg version="1.1" xmlns="http://www.w3.org/2000/svg" xmlns:xlink="http://www.w3.org/1999/xlink" width="74.1211" height="129.888">
 <g>
  <rect height="129.888" opacity="0" width="74.1211" x="0" y="0"/>
  <path d="M74.1211 75.4176C74.1211 55.0562 66.1133 26.8336 46.0449 5.78865C41.748 1.29646 35.3516-1.77971 27.8809 1.14998L23.1445 3.00545C14.3066 6.47224 11.7676 12.5269 15.3809 20.8765C23.0957 38.3082 25 50.9547 25 61.8433C25 66.2867 22.7539 68.9722 18.1152 68.9722L6.10352 68.9722C2.58789 68.9722 0 71.6578 0 75.3687L0 87.0875C0 90.4078 2.24609 92.9469 5.32227 92.9469L14.4043 92.9469C17.5293 92.9469 19.3359 94.5582 19.3359 97.1949C19.3359 99.441 18.1152 102.078 18.1152 105.496C18.1152 113.113 22.2656 118.679 30.957 122.878L40.6738 127.566C49.0234 131.619 57.1289 129.324 61.8652 121.609C70.459 107.498 74.1211 93.3863 74.1211 75.4176Z" fill="#000000" fill-opacity="0.85"/>
 </g>
</svg>
