<?xml version="1.0" encoding="UTF-8"?>
<!--Generator: Apple Native CoreSVG 232.5-->
<!DOCTYPE svg
PUBLIC "-//W3C//DTD SVG 1.1//EN"
       "http://www.w3.org/Graphics/SVG/1.1/DTD/svg11.dtd">
<svg version="1.1" xmlns="http://www.w3.org/2000/svg" xmlns:xlink="http://www.w3.org/1999/xlink" width="74.1211" height="129.888">
 <g>
  <rect height="129.888" opacity="0" width="74.1211" x="0" y="0"/>
  <path d="M0 75.4176C0 93.3863 3.66211 107.498 12.207 121.609C16.9922 129.324 25.0977 131.619 33.4473 127.566L43.1152 122.878C51.8555 118.679 56.0059 113.113 56.0059 105.496C56.0059 102.078 54.7852 99.441 54.7852 97.1949C54.7852 94.5582 56.5918 92.9469 59.7168 92.9469L68.7988 92.9469C71.875 92.9469 74.1211 90.4078 74.1211 87.0875L74.1211 75.3687C74.1211 71.6578 71.5332 68.9722 68.0176 68.9722L56.0059 68.9722C51.3184 68.9722 49.0723 66.2867 49.0723 61.8433C49.0723 50.9547 51.0254 38.3082 58.6914 20.8765C62.3535 12.5269 59.7656 6.47224 50.9766 3.00545L46.1914 1.14998C38.7695-1.77971 32.373 1.29646 28.0273 5.78865C8.00781 26.8336 0 55.0562 0 75.4176Z" fill="#000000" fill-opacity="0.85"/>
 </g>
</svg>
