<?xml version="1.0" encoding="UTF-8"?>
<!--Generator: Apple Native CoreSVG 232.5-->
<!DOCTYPE svg
PUBLIC "-//W3C//DTD SVG 1.1//EN"
       "http://www.w3.org/Graphics/SVG/1.1/DTD/svg11.dtd">
<svg version="1.1" xmlns="http://www.w3.org/2000/svg" xmlns:xlink="http://www.w3.org/1999/xlink" width="117.627" height="98.7793">
 <g>
  <rect height="98.7793" opacity="0" width="117.627" x="0" y="0"/>
  <path d="M63.1836 97.8027C83.7402 97.8027 97.4609 90.5273 97.4609 79.7852C97.4609 70.166 89.2578 68.0176 89.2578 62.3535C89.2578 54.541 117.627 52.9785 117.627 32.9102C117.627 13.0859 97.168 0 66.7969 0C26.9043 0 0 19.9219 0 49.7559C0 78.4668 25.5371 97.8027 63.1836 97.8027ZM63.1836 89.4531C30.127 89.4531 8.34961 73.5352 8.34961 49.7559C8.34961 24.8535 31.4941 8.34961 66.7969 8.34961C92.4316 8.34961 109.277 18.3105 109.277 32.9102C109.277 49.9512 80.7129 47.6562 80.7129 62.4023C80.7129 70.752 89.1113 73.3887 89.1113 79.1504C89.1113 85.3516 78.9062 89.4531 63.1836 89.4531ZM59.1797 77.9297C66.6016 77.9297 72.7051 71.8262 72.7051 64.3555C72.7051 56.9824 66.6016 50.8789 59.1797 50.8789C51.7578 50.8789 45.6543 56.9824 45.6543 64.3555C45.6543 71.8262 51.7578 77.9297 59.1797 77.9297ZM59.1797 72.2656C54.834 72.2656 51.3184 68.75 51.3184 64.3555C51.3184 59.5215 55.0293 56.6406 59.082 56.5918C63.2324 56.543 67.041 59.375 67.041 64.3555C67.041 68.75 63.5742 72.2656 59.1797 72.2656Z" fill="#000000" fill-opacity="0.85"/>
  <path d="M24.6582 56.4453C29.1504 56.4453 32.7637 52.7344 32.7637 48.2422C32.7637 43.75 29.1504 40.1367 24.6582 40.1367C20.2148 40.1367 16.5527 43.75 16.5527 48.2422C16.5527 52.7344 20.2148 56.4453 24.6582 56.4453Z" fill="#000000" fill-opacity="0.85"/>
  <path d="M42.4805 40.8203C48.1445 40.8203 52.7344 36.2793 52.7344 30.5176C52.7344 24.9023 48.0957 20.4102 42.4805 20.4102C36.7676 20.4102 32.1777 24.9023 32.1777 30.5176C32.1777 36.2793 36.7676 40.8203 42.4805 40.8203Z" fill="#000000" fill-opacity="0.85"/>
  <path d="M67.2363 32.9102C71.8262 32.9102 75.4395 29.248 75.4395 24.6582C75.4395 20.1172 71.8262 16.4551 67.2363 16.4551C62.7441 16.4551 58.9844 20.1172 58.9844 24.6582C58.9844 29.248 62.7441 32.9102 67.2363 32.9102Z" fill="#000000" fill-opacity="0.85"/>
  <path d="M89.5508 36.0352C93.2129 36.0352 96.1426 33.0566 96.1426 29.3457C96.1426 25.6836 93.2129 22.7051 89.5508 22.7051C85.8398 22.7051 82.8125 25.6836 82.8125 29.3457C82.8125 33.0566 85.8398 36.0352 89.5508 36.0352Z" fill="#000000" fill-opacity="0.85"/>
 </g>
</svg>
