<?xml version="1.0" encoding="UTF-8"?>
<!--Generator: Apple Native CoreSVG 232.5-->
<!DOCTYPE svg
PUBLIC "-//W3C//DTD SVG 1.1//EN"
       "http://www.w3.org/Graphics/SVG/1.1/DTD/svg11.dtd">
<svg version="1.1" xmlns="http://www.w3.org/2000/svg" xmlns:xlink="http://www.w3.org/1999/xlink" width="106.01" height="99.423">
 <g>
  <rect height="99.423" opacity="0" width="106.01" x="0" y="0"/>
  <path d="M1.07621 87.5289C9.23051 99.2476 27.2481 103.252 38.7715 95.2437C48.7325 88.3101 50.9297 77.5679 44.3379 68.1929C38.4297 59.6968 27.7364 57.3043 20.7051 62.3336C12.5996 68.0953 15.8711 76.0054 10.8907 79.5211C6.74027 82.4996 3.85941 80.6441 1.46684 82.2554C-0.0956633 83.232-0.681601 85.0875 1.07621 87.5289ZM46.1934 60.9664C49.7579 64.5308 52.4434 69.2671 53.0782 73.1246C57.0332 72.4898 60.2071 70.6343 63.5274 67.314C64.0645 66.8257 64.5528 66.2886 65.0411 65.7027C62.8926 53.9351 53.0782 44.2671 41.5059 42.1187C40.92 42.607 40.3829 43.1441 39.8457 43.6812C36.5254 47.0015 34.7188 50.273 34.084 54.1304C37.8926 54.7652 42.6778 57.4019 46.1934 60.9664ZM92.2383 2.90973C89.7481 4.71637 62.5996 23.3199 45.9493 38.0171C56.9844 41.4839 65.627 50.0777 69.1426 61.2593C83.9375 44.6089 102.492 17.5093 104.299 14.9703C110.061 6.91363 100.002-2.85199 92.2383 2.90973Z" fill="#000000" fill-opacity="0.85"/>
 </g>
</svg>
