<?xml version="1.0" encoding="UTF-8"?>
<!--Generator: Apple Native CoreSVG 232.5-->
<!DOCTYPE svg
PUBLIC "-//W3C//DTD SVG 1.1//EN"
       "http://www.w3.org/Graphics/SVG/1.1/DTD/svg11.dtd">
<svg version="1.1" xmlns="http://www.w3.org/2000/svg" xmlns:xlink="http://www.w3.org/1999/xlink" width="107.536" height="100.863">
 <g>
  <rect height="100.863" opacity="0" width="107.536" x="0" y="0"/>
  <path d="M1.54653 89.1277C10.6286 101.384 29.6715 104.704 41.4879 95.9148C51.5954 88.4441 53.7438 76.6766 46.2731 66.8133C39.2907 57.4383 28.9391 55.1434 20.8336 61.2469C13.2165 66.9598 15.902 75.1629 11.654 78.3367C7.94301 81.1199 4.47622 79.5574 1.79067 81.6082C-0.162456 83.1707-0.797221 86.0027 1.54653 89.1277ZM11.5075 88.3465C10.8727 87.6629 10.9215 86.9793 11.361 86.5398C12.0446 85.9051 14.779 85.7098 16.8786 83.6101C21.6149 78.9226 20.0036 72.0379 25.4723 67.7898C30.0133 64.1766 36.3122 65.4949 40.5602 70.9637C45.3454 77.1648 43.6852 84.7332 37.0934 89.8113C29.7204 95.6219 18.3434 95.573 11.5075 88.3465ZM49.3004 77.5066C54.5739 76.9207 59.0172 74.284 63.9977 69.3035C79.6715 53.6785 103.597 18.6687 105.697 15.7391C111.849 7.19413 101.302-3.25509 92.7086 2.75077C89.8278 4.80155 54.7692 28.6785 39.1442 44.45C34.2614 49.3816 31.5758 53.7762 30.9411 58.9519L38.6071 61.0516C38.7047 57.4871 40.609 54.0203 44.6618 50.0164C60.1403 34.7332 94.3688 11.2469 96.4684 9.68437C98.1286 8.46366 99.984 10.2215 98.7145 12.0281C97.445 13.8836 73.6657 48.5516 58.4313 63.7859C54.4274 67.7898 51.3512 69.4012 47.9821 69.7918ZM57.943 65.2508L64.193 63.6394C63.5094 54.3133 54.3786 45.0359 45.1989 44.2547L43.0993 50.5047C49.3493 50.3582 57.943 58.9519 57.943 65.2508Z" fill="#000000" fill-opacity="0.85"/>
 </g>
</svg>
