<?xml version="1.0" encoding="UTF-8"?>
<!--Generator: Apple Native CoreSVG 232.5-->
<!DOCTYPE svg
PUBLIC "-//W3C//DTD SVG 1.1//EN"
       "http://www.w3.org/Graphics/SVG/1.1/DTD/svg11.dtd">
<svg version="1.1" xmlns="http://www.w3.org/2000/svg" xmlns:xlink="http://www.w3.org/1999/xlink" width="103.102" height="116.704">
 <g>
  <rect height="116.704" opacity="0" width="103.102" x="0" y="0"/>
  <path d="M5.79887 110.134C13.4161 117.8 23.2793 117.898 30.7989 110.378C36.8047 104.372 42.6153 90.7982 47.0586 84.0111L58.875 95.8763C62.4883 99.5385 66.8829 99.5385 70.3008 96.0228L74.5 91.8236C78.0645 88.2103 78.0157 84.1088 74.3536 80.4467L35.5352 41.5795C31.8243 37.9174 27.6739 37.8685 24.1094 41.433L19.9102 45.6322C16.3946 49.1478 16.3946 53.3959 20.0567 57.058L31.8731 68.8744C25.1348 73.3178 11.6094 79.1283 5.55473 85.1342C-1.91597 92.6537-1.86714 102.566 5.79887 110.134ZM18.836 103.787C15.4668 103.787 12.7813 101.052 12.7813 97.7318C12.7813 94.4115 15.4668 91.726 18.836 91.726C22.1563 91.726 24.8418 94.4115 24.8418 97.7318C24.8418 101.052 22.1563 103.787 18.836 103.787ZM80.1641 78.2006L99.1094 59.2553C104.529 53.8353 104.383 47.39 98.8653 41.7748L96.375 39.2357C91.2969 45.8275 76.795 53.5424 74.0118 50.7592C73.5723 50.3197 73.5235 49.4408 74.1582 48.7572C80.0664 42.849 83.9239 37.0873 84.8028 27.7123L59.7051 2.5658C55.0664-2.07287 47.0098-0.559202 44.8125 8.22986C41.7364 20.7299 38.9532 28.0053 35.9258 34.0111Z" fill="#000000" fill-opacity="0.85"/>
 </g>
</svg>
