<?xml version="1.0" encoding="UTF-8"?>
<!--Generator: Apple Native CoreSVG 232.5-->
<!DOCTYPE svg
PUBLIC "-//W3C//DTD SVG 1.1//EN"
       "http://www.w3.org/Graphics/SVG/1.1/DTD/svg11.dtd">
<svg version="1.1" xmlns="http://www.w3.org/2000/svg" xmlns:xlink="http://www.w3.org/1999/xlink" width="103.87" height="116.224">
 <g>
  <rect height="116.224" opacity="0" width="103.87" x="0" y="0"/>
  <path d="M6.15879 110.041C14.3131 118.195 23.8346 118.293 31.8424 110.285C37.7506 104.377 43.9518 90.4609 48.5416 84.9921L58.942 95.4414C62.7506 99.2988 67.3404 99.2988 71.0514 95.5878L77.3502 89.2402C81.0611 85.4804 81.0611 81.0371 77.2037 77.1796L39.0689 38.996C35.2115 35.1386 30.7193 35.0898 26.9596 38.8496L20.6607 45.1972C16.9498 48.9081 16.901 53.4492 20.7584 57.3066L31.2076 67.707C25.7877 72.2968 11.8717 78.4492 5.96348 84.3574C-2.04433 92.3652-1.9955 101.935 6.15879 110.041ZM27.4479 49.5429L31.4029 45.6855C32.6725 44.416 34.0397 44.3671 35.3092 45.6367L70.6119 80.8906C71.8326 82.1601 71.8326 83.5273 70.5143 84.8456L66.7057 88.7031C65.4361 90.0703 63.9713 90.1191 62.7018 88.7519L51.0318 77.0331C49.2252 75.2265 46.8814 75.4218 44.8307 77.4238C41.0221 81.1835 34.3326 97.248 26.5689 104.963C21.8814 109.699 16.2174 109.699 11.3346 104.865C6.54942 100.031 6.50059 94.3183 11.2369 89.6308C19.0006 81.916 35.065 75.2265 38.8248 71.4179C40.7779 69.3183 41.0221 66.9746 39.2154 65.2167L27.4479 53.498C26.1783 52.2285 26.1783 50.8124 27.4479 49.5429ZM18.8053 103.547C22.1256 103.547 24.8111 100.812 24.8111 97.4921C24.8111 94.1718 22.1256 91.4863 18.8053 91.4863C15.485 91.4863 12.7506 94.1718 12.7506 97.4921C12.7506 100.812 15.485 103.547 18.8053 103.547ZM76.6666 82.0136L99.86 58.8203C105.28 53.4003 105.182 46.9062 99.6158 41.3398L61.2857 2.96088C56.1588-2.16607 47.2721-0.164117 45.4654 7.79487C40.9244 27.5214 40.7291 29.8652 33.2584 40.3144L38.8736 45.9296C47.4186 34.748 48.0533 29.2792 52.7408 11.8476C53.3756 9.35737 55.4264 8.7226 57.0865 10.3339L93.6588 46.8574C95.9049 49.1035 95.9049 51.8378 93.8053 53.9374L71.1979 76.5449ZM68.9518 54.1816C71.5397 56.7695 85.7975 48.8593 90.7291 42.6581L79.9869 31.9648C79.0592 40.6074 74.567 46.8574 69.0982 52.3261C68.4635 52.9609 68.5123 53.7421 68.9518 54.1816Z" fill="#000000" fill-opacity="0.85"/>
 </g>
</svg>
