<?xml version="1.0" encoding="UTF-8"?>
<!--Generator: Apple Native CoreSVG 232.5-->
<!DOCTYPE svg
PUBLIC "-//W3C//DTD SVG 1.1//EN"
       "http://www.w3.org/Graphics/SVG/1.1/DTD/svg11.dtd">
<svg version="1.1" xmlns="http://www.w3.org/2000/svg" xmlns:xlink="http://www.w3.org/1999/xlink" width="123.73" height="83.7402">
 <g>
  <rect height="83.7402" opacity="0" width="123.73" x="0" y="0"/>
  <path d="M8.20312 83.7402C17.2363 83.7402 31.0059 72.998 61.8652 72.998C92.6758 72.998 106.543 83.6914 115.527 83.6914C120.898 83.6914 123.73 80.4199 123.73 75L123.73 8.83789C123.73 3.36914 120.898 0.0976562 115.527 0.0976562C106.543 0.0976562 92.6758 10.8398 61.8652 10.8398C31.1035 10.8398 17.2363 0.0976562 8.20312 0.0976562C2.83203 0.0976562 0 3.36914 0 8.78906L0 75.0488C0 80.4688 2.83203 83.7402 8.20312 83.7402ZM9.22852 75.6348C8.34961 75.6348 7.86133 75.1465 7.86133 74.2188L7.86133 9.61914C7.86133 8.69141 8.34961 8.20312 9.22852 8.20312C14.0137 8.20312 30.8105 18.2617 61.8652 18.2617C92.9199 18.2617 110.791 8.1543 114.551 8.1543C115.381 8.1543 115.869 8.64258 115.869 9.61914L115.869 74.2188C115.869 75.1465 115.381 75.6348 114.551 75.6348C109.766 75.6348 92.9199 65.5762 61.8652 65.5762C30.7129 65.5762 12.9883 75.6348 9.22852 75.6348Z" fill="#000000" fill-opacity="0.85"/>
 </g>
</svg>
