<?xml version="1.0" encoding="UTF-8"?>
<!--Generator: Apple Native CoreSVG 232.5-->
<!DOCTYPE svg
PUBLIC "-//W3C//DTD SVG 1.1//EN"
       "http://www.w3.org/Graphics/SVG/1.1/DTD/svg11.dtd">
<svg version="1.1" xmlns="http://www.w3.org/2000/svg" xmlns:xlink="http://www.w3.org/1999/xlink" width="93.0925" height="106.01">
 <g>
  <rect height="106.01" opacity="0" width="93.0925" x="0" y="0"/>
  <path d="M79.6029 55.9589L43.7142 91.8476C34.388 101.223 21.8392 100.295 13.8314 92.1894C5.77476 84.1816 4.84703 71.7304 14.1732 62.3554L63.1478 13.4297C68.763 7.81442 77.015 7.03317 82.3861 12.3554C87.7084 17.7754 86.9271 25.9785 81.3607 31.5937L33.5091 79.4453C31.1166 81.9355 28.1869 81.2031 26.5267 79.5429C24.8666 77.8339 24.183 75.0019 26.5755 72.5117L60.0228 39.1621C61.4877 37.6484 61.5853 35.5 60.1693 34.0839C58.7533 32.7168 56.6048 32.8144 55.14 34.2793L21.5951 67.8242C16.6146 72.8047 16.8099 80.4218 21.2045 84.8164C25.9896 89.6015 33.2162 89.5039 38.2455 84.4746L86.2923 36.4277C95.4232 27.2968 95.0326 15.2851 87.0736 7.32613C79.3099-0.437537 67.1029-1.02347 57.972 8.10738L8.75328 57.375C-3.30727 69.4355-2.37953 86.6718 8.50914 97.5605C19.3978 108.4 36.6341 109.328 48.6947 97.3164L84.8275 61.1836C86.2435 59.7675 86.2435 57.1797 84.7787 55.8613C83.3627 54.3476 81.0677 54.5429 79.6029 55.9589Z" fill="#000000" fill-opacity="0.85"/>
 </g>
</svg>
