<?xml version="1.0" encoding="UTF-8"?>
<!--Generator: Apple Native CoreSVG 232.5-->
<!DOCTYPE svg
PUBLIC "-//W3C//DTD SVG 1.1//EN"
       "http://www.w3.org/Graphics/SVG/1.1/DTD/svg11.dtd">
<svg version="1.1" xmlns="http://www.w3.org/2000/svg" xmlns:xlink="http://www.w3.org/1999/xlink" width="99.6094" height="99.6582">
 <g>
  <rect height="99.6582" opacity="0" width="99.6094" x="0" y="0"/>
  <path d="M49.8047 99.6094C77.0508 99.6094 99.6094 77.002 99.6094 49.8047C99.6094 22.5586 77.002 0 49.7559 0C22.5586 0 0 22.5586 0 49.8047C0 77.002 22.6074 99.6094 49.8047 99.6094ZM49.8047 91.3086C26.7578 91.3086 8.34961 72.8516 8.34961 49.8047C8.34961 26.7578 26.709 8.30078 49.7559 8.30078C72.8027 8.30078 91.3086 26.7578 91.3086 49.8047C91.3086 72.8516 72.8516 91.3086 49.8047 91.3086Z" fill="#000000" fill-opacity="0.85"/>
  <path d="M50.7324 80.6641C52.6855 80.6641 54.1016 79.0039 55.0781 76.416L72.9492 29.6875C73.4375 28.418 73.6816 27.3438 73.6816 26.416C73.6816 24.6582 72.6562 23.6328 70.8984 23.6328C69.9707 23.6328 68.8965 23.877 67.627 24.3652L20.6543 42.334C18.4082 43.1641 16.6504 44.5801 16.6504 46.5332C16.6504 49.0234 18.5059 49.8535 21.1426 50.6836L35.9375 55.127C37.6953 55.7129 38.6719 55.6641 39.8438 54.5898L69.6777 26.6113C70.0195 26.2695 70.4102 26.3672 70.7031 26.6113C71.0449 26.8555 71.0449 27.2949 70.7031 27.6367L42.8711 57.6172C41.7969 58.7402 41.6992 59.6191 42.1875 61.4746L46.582 75.8789C47.4609 78.6621 48.1934 80.6641 50.7324 80.6641Z" fill="#000000" fill-opacity="0.85"/>
 </g>
</svg>
