<?xml version="1.0" encoding="UTF-8"?>
<!--Generator: Apple Native CoreSVG 232.5-->
<!DOCTYPE svg
PUBLIC "-//W3C//DTD SVG 1.1//EN"
       "http://www.w3.org/Graphics/SVG/1.1/DTD/svg11.dtd">
<svg version="1.1" xmlns="http://www.w3.org/2000/svg" xmlns:xlink="http://www.w3.org/1999/xlink" width="107.324" height="107.959">
 <g>
  <rect height="107.959" opacity="0" width="107.324" x="0" y="0"/>
  <path d="M61.1328 107.959C64.6484 107.959 67.1387 104.932 68.9453 100.244L100.928 16.6992C101.807 14.4531 102.295 12.4512 102.295 10.791C102.295 7.61719 100.342 5.66406 97.168 5.66406C95.5078 5.66406 93.5059 6.15234 91.2598 7.03125L7.27539 39.209C3.17383 40.7715 0 43.2617 0 46.8262C0 51.3184 3.41797 52.832 8.10547 54.248L43.3594 64.5996L53.6133 99.4141C55.0781 104.346 56.5918 107.959 61.1328 107.959ZM45.5566 57.1777L11.8652 46.875C11.084 46.6309 10.8398 46.4355 10.8398 46.0938C10.8398 45.752 11.0352 45.5078 11.7676 45.2148L77.7832 20.2148C81.6895 18.75 85.4492 16.7969 89.0625 15.1367C85.8398 17.7734 81.8359 20.8984 79.1504 23.584ZM61.9141 97.2168C61.5234 97.2168 61.3281 96.875 61.084 96.0938L50.7812 62.4023L84.375 28.8086C87.0117 26.1719 90.2832 22.0703 92.8711 18.75C91.2109 22.4609 89.209 26.2207 87.7441 30.1758L62.7441 96.1914C62.4512 96.9238 62.2559 97.2168 61.9141 97.2168Z" fill="#000000" fill-opacity="0.85"/>
 </g>
</svg>
