<?xml version="1.0" encoding="UTF-8"?>
<!--Generator: Apple Native CoreSVG 232.5-->
<!DOCTYPE svg
PUBLIC "-//W3C//DTD SVG 1.1//EN"
       "http://www.w3.org/Graphics/SVG/1.1/DTD/svg11.dtd">
<svg version="1.1" xmlns="http://www.w3.org/2000/svg" xmlns:xlink="http://www.w3.org/1999/xlink" width="99.6094" height="99.6582">
 <g>
  <rect height="99.6582" opacity="0" width="99.6094" x="0" y="0"/>
  <path d="M99.6094 49.8535C99.6094 77.0996 77.0508 99.6582 49.8047 99.6582C22.6074 99.6582 0 77.0996 0 49.8535C0 22.6562 22.5586 0.0488281 49.7559 0.0488281C77.002 0.0488281 99.6094 22.6562 99.6094 49.8535ZM55.7129 23.3887L27.7832 51.3184C20.8496 58.252 20.8496 68.5547 27.5879 75.2441C34.7656 82.2266 44.5312 81.9824 51.416 75.1465L72.0215 54.5898C73.0469 53.5645 73.1445 51.5625 72.0703 50.5859C70.9473 49.5117 69.043 49.5605 67.9688 50.6348L47.6562 70.9473C42.9688 75.6348 36.3281 75.6836 31.7871 71.1426C27.0996 66.5527 27.2461 59.9609 31.9336 55.2246L59.668 27.4902C62.6465 24.4629 66.8457 24.3164 69.4824 26.9531C72.2168 29.6387 71.9727 33.6914 68.9453 36.7676L41.8457 63.8184C40.8691 64.7949 39.8438 64.7949 38.916 63.9648C37.9883 63.1348 38.0371 61.9141 38.9648 60.9863L57.9102 42.0898C59.082 40.918 59.2285 39.3066 58.0078 38.1836C56.8359 37.0117 55.2246 37.1094 54.0527 38.2324L35.1562 57.2266C32.0801 60.2539 31.9824 65.0879 34.8633 68.0664C37.793 71.1426 42.4316 70.9473 45.6055 67.7734L72.8516 40.5273C78.2227 35.2051 78.3691 27.9785 73.3887 22.9492C68.3105 18.0176 61.0352 18.0664 55.7129 23.3887Z" fill="#000000" fill-opacity="0.85"/>
 </g>
</svg>
