<?xml version="1.0" encoding="UTF-8"?>
<!--Generator: Apple Native CoreSVG 232.5-->
<!DOCTYPE svg
PUBLIC "-//W3C//DTD SVG 1.1//EN"
       "http://www.w3.org/Graphics/SVG/1.1/DTD/svg11.dtd">
<svg version="1.1" xmlns="http://www.w3.org/2000/svg" xmlns:xlink="http://www.w3.org/1999/xlink" width="79.1504" height="92.2363">
 <g>
  <rect height="92.2363" opacity="0" width="79.1504" x="0" y="0"/>
  <path d="M0 25.5371C0 40.2344 10.3516 49.9512 26.0742 49.9512L33.9844 49.9512L33.9844 87.7441C33.9844 90.4785 35.6934 92.2363 38.4766 92.2363C41.2109 92.2363 43.0176 90.4785 43.0176 87.7441L43.0176 10.2051L53.6133 10.2051L53.6133 87.7441C53.6133 90.4785 55.3223 92.2363 58.0566 92.2363C60.8398 92.2363 62.6465 90.4785 62.6465 87.7441L62.6465 10.2051L70.8984 10.2051C73.6816 10.2051 75.4395 8.34961 75.4395 5.61523C75.4395 2.88086 73.6816 1.17188 70.8984 1.17188L25.8301 1.17188C10.2539 1.17188 0 10.8398 0 25.5371Z" fill="#000000" fill-opacity="0.85"/>
 </g>
</svg>
