<?xml version="1.0" encoding="UTF-8"?>
<!--Generator: Apple Native CoreSVG 232.5-->
<!DOCTYPE svg
PUBLIC "-//W3C//DTD SVG 1.1//EN"
       "http://www.w3.org/Graphics/SVG/1.1/DTD/svg11.dtd">
<svg version="1.1" xmlns="http://www.w3.org/2000/svg" xmlns:xlink="http://www.w3.org/1999/xlink" width="72.7051" height="108.154">
 <g>
  <rect height="108.154" opacity="0" width="72.7051" x="0" y="0"/>
  <path d="M20.5078 108.057C22.2656 108.057 23.6816 106.836 23.6816 105.273C23.6816 104.248 23.3398 103.32 22.5586 102.1C14.1113 88.0371 9.57031 70.5566 9.57031 54.0527C9.57031 37.5488 14.1113 20.0684 22.5586 6.00586C23.3398 4.73633 23.6816 3.85742 23.6816 2.83203C23.6816 1.26953 22.2656 0 20.5078 0C18.75 0 17.4805 1.02539 15.918 3.36914C5.41992 18.3105 0 36.4746 0 54.0527C0 71.6309 5.41992 89.7949 15.918 104.688C17.4805 107.08 18.75 108.057 20.5078 108.057ZM52.1973 108.057C53.9551 108.057 55.1758 107.08 56.7871 104.688C67.2852 89.7949 72.7051 71.6309 72.7051 54.0527C72.7051 36.4746 67.2852 18.3105 56.7871 3.36914C55.1758 1.02539 53.9551 0 52.1973 0C50.4395 0 49.0234 1.26953 49.0234 2.83203C49.0234 3.85742 49.3652 4.73633 50.1465 6.00586C58.5938 20.0684 63.1348 37.5488 63.1348 54.0527C63.1348 70.5566 58.5938 88.0371 50.1465 102.1C49.3652 103.32 49.0234 104.248 49.0234 105.273C49.0234 106.836 50.4395 108.057 52.1973 108.057Z" fill="#000000" fill-opacity="0.85"/>
 </g>
</svg>
