<?xml version="1.0" encoding="UTF-8"?>
<!--Generator: Apple Native CoreSVG 232.5-->
<!DOCTYPE svg
PUBLIC "-//W3C//DTD SVG 1.1//EN"
       "http://www.w3.org/Graphics/SVG/1.1/DTD/svg11.dtd">
<svg version="1.1" xmlns="http://www.w3.org/2000/svg" xmlns:xlink="http://www.w3.org/1999/xlink" width="139.355" height="124.927">
 <g>
  <rect height="124.927" opacity="0" width="139.355" x="0" y="0"/>
  <path d="M36.0623 42.0679C32.4631 47.9758 30.4199 54.9499 30.4199 62.4391C30.4199 84.2653 47.9004 101.746 69.6777 101.746C77.1633 101.746 84.1399 99.6931 90.0515 96.0821L95.9567 101.99C88.3952 107.072 79.3393 110.047 69.6777 110.047C43.6523 110.047 22.0703 88.4645 22.0703 62.4391C22.0703 52.7493 25.0442 43.6866 30.1265 36.1294ZM20.1642 26.1625C12.7434 36.367 8.34961 48.866 8.34961 62.4391C8.34961 75.9645 12.7441 88.5133 20.166 98.6207C21.582 100.574 21.3379 102.918 19.5801 104.431C17.627 105.994 15.0391 105.798 13.5254 103.699C5.0293 92.1266 0 77.9176 0 62.4391C0 46.9606 5.0293 32.7028 13.5254 21.1305C13.7622 20.8097 14.0252 20.5331 14.3104 20.306ZM125.83 21.1305C134.375 32.7028 139.355 46.9606 139.355 62.4391C139.355 77.9176 134.375 92.1266 125.83 103.699C125.633 103.972 125.418 104.213 125.187 104.421L119.27 98.5016C126.693 88.4175 131.006 75.9129 131.006 62.4391C131.006 48.8649 126.66 36.3649 119.189 26.1598C117.822 24.3043 117.969 21.9117 119.775 20.3981C121.729 18.8356 124.316 19.0797 125.83 21.1305ZM117.334 62.4391C117.334 72.0457 114.387 81.0469 109.344 88.5702L103.446 82.6699C107.026 76.7868 109.05 69.8596 109.033 62.4391C108.984 40.5641 91.4551 23.0836 69.6289 23.0836C62.2265 23.0836 55.3262 25.1033 49.4674 28.6663L43.5658 22.7621C51.0689 17.7522 60.0443 14.8317 69.6289 14.8317C95.7031 14.8317 117.334 36.4137 117.334 62.4391ZM63.7207 69.7391L63.7207 80.4078C63.7207 83.0934 62.3535 84.8024 59.7656 84.8024C57.2754 84.8024 55.9082 82.9957 55.9082 80.4078L55.9082 61.923ZM89.2578 54.7731C89.2578 58.8453 87.9537 62.2956 85.6258 64.8414L80.3826 59.5958C81.1428 58.2627 81.543 56.6346 81.543 54.7731C81.543 49.1578 77.9785 45.691 72.2656 45.691L66.4842 45.691L60.5299 39.734L73.3887 39.734C82.8125 39.734 89.2578 45.7887 89.2578 54.7731Z" fill="#000000" fill-opacity="0.85"/>
  <path d="M120.166 118.103C121.631 119.568 124.072 119.568 125.488 118.103C126.953 116.638 126.953 114.246 125.488 112.781L19.7754 7.06799C18.3105 5.60315 15.918 5.55432 14.4043 7.06799C12.9883 8.48401 12.9883 10.9254 14.4043 12.3903Z" fill="#000000" fill-opacity="0.85"/>
 </g>
</svg>
