<?xml version="1.0" encoding="UTF-8"?>
<!--Generator: Apple Native CoreSVG 232.5-->
<!DOCTYPE svg
PUBLIC "-//W3C//DTD SVG 1.1//EN"
       "http://www.w3.org/Graphics/SVG/1.1/DTD/svg11.dtd">
<svg version="1.1" xmlns="http://www.w3.org/2000/svg" xmlns:xlink="http://www.w3.org/1999/xlink" width="149.219" height="103.031">
 <g>
  <rect height="103.031" opacity="0" width="149.219" x="0" y="0"/>
  <path d="M104.98 93.0441L145.02 93.0441L134.131 40.8956C133.35 36.9405 131.104 35.0851 127.393 35.0851L122.51 35.0851C118.75 35.0851 116.504 36.9405 115.674 40.8956ZM104.346 97.9269L145.508 97.9269C147.559 97.9269 149.219 96.2667 149.219 94.2159C149.219 92.1651 147.559 90.5538 145.508 90.5538L104.346 90.5538C102.295 90.5538 100.684 92.1651 100.684 94.2159C100.684 96.2667 102.295 97.9269 104.346 97.9269Z" fill="#000000" fill-opacity="0.85"/>
  <path d="M85.5957 68.1417C87.207 69.9483 89.8926 69.9483 91.7969 67.8976C99.9023 59.1085 104.492 47.3898 104.492 34.7433C104.492 22.0968 99.9023 10.378 91.7969 1.58897C89.8926-0.461807 87.207-0.510635 85.5957 1.34483C84.0332 3.10265 84.5215 5.39757 86.2793 7.39952C92.8711 14.6749 96.5332 24.2452 96.5332 34.7433C96.5332 45.2413 92.8711 54.8116 86.2793 62.087C84.5215 64.089 84.0332 66.3839 85.5957 68.1417Z" fill="#000000" fill-opacity="0.85"/>
  <path d="M71.9238 54.2257C73.5352 56.0323 76.4648 56.0812 78.2227 53.8839C82.4707 48.6105 84.9121 41.921 84.9121 34.7433C84.9121 27.5655 82.4707 20.8761 78.2227 15.6026C76.4648 13.4054 73.5352 13.4054 71.9238 15.2608C70.3613 17.0187 71.0449 19.2159 72.5586 21.3155C75.4883 24.9288 76.9531 29.6651 76.9531 34.7433C76.9531 39.8214 75.4883 44.5089 72.5586 48.171C71.0449 50.2706 70.3613 52.4679 71.9238 54.2257Z" fill="#000000" fill-opacity="0.85"/>
  <path d="M6.00586 97.9269C9.66797 97.9269 12.0605 95.4366 12.0605 91.7257L12.0605 64.1378L31.9824 64.1378C49.6094 64.1378 61.8652 52.0284 61.8652 34.7433C61.8652 17.3605 49.6582 5.39757 32.0312 5.39757L6.00586 5.39757C2.39258 5.39757 0 7.83897 0 11.5987L0 91.7257C0 95.4855 2.39258 97.9269 6.00586 97.9269ZM12.0605 53.005L12.0605 16.4327L29.7852 16.4327C42.334 16.4327 49.5605 23.0733 49.5605 34.7433C49.5605 46.3155 42.334 53.005 29.7852 53.005Z" fill="#000000" fill-opacity="0.85"/>
 </g>
</svg>
