<?xml version="1.0" encoding="UTF-8"?>
<!--Generator: Apple Native CoreSVG 232.5-->
<!DOCTYPE svg
PUBLIC "-//W3C//DTD SVG 1.1//EN"
       "http://www.w3.org/Graphics/SVG/1.1/DTD/svg11.dtd">
<svg version="1.1" xmlns="http://www.w3.org/2000/svg" xmlns:xlink="http://www.w3.org/1999/xlink" width="61.8652" height="92.8223">
 <g>
  <rect height="92.8223" opacity="0" width="61.8652" x="0" y="0"/>
  <path d="M6.00586 92.8223C9.66797 92.8223 12.0605 90.332 12.0605 86.6211L12.0605 59.0332L31.9824 59.0332C49.6094 59.0332 61.8652 46.9238 61.8652 29.6387C61.8652 12.2559 49.6582 0.292969 32.0312 0.292969L6.00586 0.292969C2.39258 0.292969 0 2.73438 0 6.49414L0 86.6211C0 90.3809 2.39258 92.8223 6.00586 92.8223ZM12.0605 47.9004L12.0605 11.3281L29.7852 11.3281C42.334 11.3281 49.5605 17.9688 49.5605 29.6387C49.5605 41.2109 42.334 47.9004 29.7852 47.9004Z" fill="#000000" fill-opacity="0.85"/>
 </g>
</svg>
