<?xml version="1.0" encoding="UTF-8"?>
<!--Generator: Apple Native CoreSVG 232.5-->
<!DOCTYPE svg
PUBLIC "-//W3C//DTD SVG 1.1//EN"
       "http://www.w3.org/Graphics/SVG/1.1/DTD/svg11.dtd">
<svg version="1.1" xmlns="http://www.w3.org/2000/svg" xmlns:xlink="http://www.w3.org/1999/xlink" width="99.6094" height="99.6582">
 <g>
  <rect height="99.6582" opacity="0" width="99.6094" x="0" y="0"/>
  <path d="M49.8047 99.6094C77.0508 99.6094 99.6094 77.002 99.6094 49.8047C99.6094 22.5586 77.002 0 49.7559 0C22.5586 0 0 22.5586 0 49.8047C0 77.002 22.6074 99.6094 49.8047 99.6094ZM49.8047 91.3086C26.7578 91.3086 8.34961 72.8516 8.34961 49.8047C8.34961 26.7578 26.709 8.30078 49.7559 8.30078C72.8027 8.30078 91.3086 26.7578 91.3086 49.8047C91.3086 72.8516 72.8516 91.3086 49.8047 91.3086Z" fill="#000000" fill-opacity="0.85"/>
  <path d="M39.2578 72.168C41.8457 72.168 43.2129 70.459 43.2129 67.7734L43.2129 57.0801L52.832 57.0801C62.3535 57.0801 68.75 51.123 68.75 42.1387C68.75 33.1543 62.3047 27.0996 52.8809 27.0996L39.209 27.0996C36.7188 27.0996 35.4004 28.8574 35.4004 31.4941L35.4004 67.7734C35.4004 70.3613 36.7676 72.168 39.2578 72.168ZM43.2129 51.123L43.2129 33.0566L51.7578 33.0566C57.4707 33.0566 61.0352 36.5234 61.0352 42.1387C61.0352 47.6562 57.5195 51.123 51.7578 51.123Z" fill="#000000" fill-opacity="0.85"/>
 </g>
</svg>
