<?xml version="1.0" encoding="UTF-8"?>
<!--Generator: Apple Native CoreSVG 232.5-->
<!DOCTYPE svg
PUBLIC "-//W3C//DTD SVG 1.1//EN"
       "http://www.w3.org/Graphics/SVG/1.1/DTD/svg11.dtd">
<svg version="1.1" xmlns="http://www.w3.org/2000/svg" xmlns:xlink="http://www.w3.org/1999/xlink" width="123.685" height="122.412">
 <g>
  <rect height="122.412" opacity="0" width="123.685" x="0" y="0"/>
  <path d="M45.209 39.3021C45.1903 41.4879 45.0698 43.6771 44.8651 45.8655C41.0247 44.2858 38.086 44.1695 36.6715 45.6055C33.4 48.8281 38.1363 60.0098 49.8551 71.6797C61.5738 83.4473 72.7066 88.2324 75.9781 84.9121C77.4314 83.4808 77.276 80.421 75.5687 76.4134C77.7363 76.2071 79.9042 76.0839 82.0697 76.061C84.4659 82.9537 83.9978 89.0438 77.8824 91.6016L11.525 119.336C4.29841 122.363-2.39104 115.479 0.831613 108.301L30.0308 43.5547C32.7086 37.6318 38.5714 37.0772 45.209 39.3021ZM79.0562 69.4025C76.7302 69.5155 74.3971 69.7266 72.0499 70.048C70.2027 67.2539 67.8133 64.2409 64.9112 61.158L69.7029 56.3569C73.1466 60.1821 76.5185 64.7799 79.0562 69.4025ZM64.8674 51.5563L60.0636 56.3507C56.9674 53.4684 53.952 51.107 51.1661 49.295C51.4964 46.9386 51.7131 44.593 51.8303 42.2534C56.4199 44.747 61.0055 48.1057 64.8674 51.5563Z" fill="#000000" fill-opacity="0.85"/>
  <path d="M43.8492 10.6934C46.7789 10.6934 49.2203 8.30078 49.2203 5.32227C49.2203 2.39258 46.7789 0 43.8492 0C40.8218 0 38.4781 2.39258 38.4781 5.32227C38.4781 8.30078 40.8218 10.6934 43.8492 10.6934ZM50.2945 19.8242C49.9527 18.0176 48.7808 16.5039 46.8765 16.5039C45.0699 16.5527 43.2144 18.0664 43.6051 20.0195C45.8023 31.4941 45.8023 43.3105 43.6051 54.9805C43.1656 56.8848 45.0699 58.3496 46.8277 58.3984C48.6832 58.3984 49.9039 56.9336 50.2457 55.127C52.5406 43.2129 52.5406 31.5918 50.2945 19.8242ZM74.025 19.1406C79.1519 19.1406 83.2047 15.0391 83.2047 9.96094C83.2047 4.78516 79.1519 0.78125 74.025 0.78125C68.898 0.78125 64.8453 4.78516 64.8453 9.96094C64.8453 15.0391 68.898 19.1406 74.025 19.1406ZM64.7476 34.5215C67.1402 34.5215 69.0445 32.5684 69.0445 30.1758C69.0445 27.832 67.1402 25.8789 64.7476 25.8789C62.4039 25.8789 60.4019 27.832 60.4019 30.1758C60.4019 32.5684 62.4039 34.5215 64.7476 34.5215ZM113.869 13.4766C116.212 13.4766 118.117 11.5723 118.117 9.17969C118.117 6.78711 116.212 4.83398 113.869 4.83398C111.476 4.83398 109.572 6.78711 109.572 9.17969C109.572 11.5723 111.476 13.4766 113.869 13.4766ZM99.7574 16.6504L90.6265 25.7812C89.3082 27.0996 89.357 29.248 90.6265 30.5664C91.9937 31.8848 94.1422 31.9336 95.4605 30.5664L104.591 21.4844C105.91 20.166 105.861 17.9688 104.591 16.6504C103.273 15.3809 101.076 15.332 99.7574 16.6504ZM81.6422 34.8145L56.7398 59.668C55.4215 60.9375 55.4703 63.1836 56.7398 64.502C58.0582 65.7715 60.3043 65.8203 61.5738 64.502L86.4273 39.5996C87.648 38.3301 87.6968 36.1328 86.4273 34.8145C85.1578 33.4961 82.9117 33.5938 81.6422 34.8145ZM118.312 57.2754C121.291 57.2754 123.683 54.8828 123.683 51.8555C123.683 48.9258 121.291 46.5332 118.312 46.5332C115.285 46.5332 112.941 48.9258 112.941 51.8555C112.941 54.8828 115.285 57.2754 118.312 57.2754ZM97.316 59.2773C101.662 59.2773 105.128 55.9082 105.128 51.5625C105.128 47.2656 101.662 43.7988 97.316 43.7988C93.0191 43.7988 89.65 47.2656 89.65 51.5625C89.65 55.9082 93.0191 59.2773 97.316 59.2773ZM116.457 82.2754C119.435 82.2754 121.828 79.9316 121.828 76.9043C121.828 73.9258 119.435 71.5332 116.457 71.5332C113.478 71.5332 111.086 73.9258 111.086 76.9043C111.086 79.9316 113.478 82.2754 116.457 82.2754ZM101.564 70.9473C89.7476 68.7012 78.1754 68.7012 66.2125 70.9473C64.4547 71.3379 62.941 72.5586 62.9898 74.3652C62.9898 76.1719 64.4547 78.0762 66.4078 77.6855C78.0777 75.4883 89.8453 75.4395 101.369 77.6367C103.224 78.0273 104.787 76.2207 104.836 74.3652C104.884 72.4609 103.322 71.2891 101.564 70.9473Z" fill="#000000" fill-opacity="0.85"/>
 </g>
</svg>
