<?xml version="1.0" encoding="UTF-8"?>
<!--Generator: Apple Native CoreSVG 232.5-->
<!DOCTYPE svg
PUBLIC "-//W3C//DTD SVG 1.1//EN"
       "http://www.w3.org/Graphics/SVG/1.1/DTD/svg11.dtd">
<svg version="1.1" xmlns="http://www.w3.org/2000/svg" xmlns:xlink="http://www.w3.org/1999/xlink" width="40.625" height="80.7129">
 <g>
  <rect height="80.7129" opacity="0" width="40.625" x="0" y="0"/>
  <path d="M4.15039 80.7129C6.49414 80.7129 8.34961 78.9551 8.34961 76.6602L8.34961 4.15039C8.34961 1.85547 6.49414 0.0488281 4.15039 0.0488281C1.85547 0.0488281 0 1.85547 0 4.15039L0 76.6602C0 78.9551 1.85547 80.7129 4.15039 80.7129ZM36.4258 80.7129C38.7207 80.7129 40.625 78.9551 40.625 76.6602L40.625 4.15039C40.625 1.85547 38.7207 0.0488281 36.4258 0.0488281C34.1309 0.0488281 32.2754 1.85547 32.2754 4.15039L32.2754 76.6602C32.2754 78.9551 34.1309 80.7129 36.4258 80.7129Z" fill="#000000" fill-opacity="0.85"/>
 </g>
</svg>
