<?xml version="1.0" encoding="UTF-8"?>
<!--Generator: Apple Native CoreSVG 232.5-->
<!DOCTYPE svg
PUBLIC "-//W3C//DTD SVG 1.1//EN"
       "http://www.w3.org/Graphics/SVG/1.1/DTD/svg11.dtd">
<svg version="1.1" xmlns="http://www.w3.org/2000/svg" xmlns:xlink="http://www.w3.org/1999/xlink" width="59.5703" height="79.541">
 <g>
  <rect height="79.541" opacity="0" width="59.5703" x="0" y="0"/>
  <path d="M6.49414 79.541L17.627 79.541C21.875 79.541 24.1211 77.2949 24.1211 72.998L24.1211 6.49414C24.1211 2.05078 21.875 0 17.627 0L6.49414 0C2.24609 0 0 2.24609 0 6.49414L0 72.998C0 77.2949 2.24609 79.541 6.49414 79.541ZM41.9922 79.541L53.0762 79.541C57.373 79.541 59.5703 77.2949 59.5703 72.998L59.5703 6.49414C59.5703 2.05078 57.373 0 53.0762 0L41.9922 0C37.6953 0 35.4492 2.24609 35.4492 6.49414L35.4492 72.998C35.4492 77.2949 37.6953 79.541 41.9922 79.541Z" fill="#000000" fill-opacity="0.85"/>
 </g>
</svg>
