<?xml version="1.0" encoding="UTF-8"?>
<!--Generator: Apple Native CoreSVG 232.5-->
<!DOCTYPE svg
PUBLIC "-//W3C//DTD SVG 1.1//EN"
       "http://www.w3.org/Graphics/SVG/1.1/DTD/svg11.dtd">
<svg version="1.1" xmlns="http://www.w3.org/2000/svg" xmlns:xlink="http://www.w3.org/1999/xlink" width="105.566" height="103.662">
 <g>
  <rect height="103.662" opacity="0" width="105.566" x="0" y="0"/>
  <path d="M33.8867 103.418C38.7695 103.418 42.1387 102.246 44.9219 101.074C47.8027 99.8535 50 98.584 52.7344 98.584C55.4199 98.584 57.6172 99.8535 60.5469 101.074C63.3301 102.246 66.6504 103.418 71.5332 103.418C82.0801 103.418 90.0879 95.8008 90.0879 85.791C90.0879 75.8789 84.4727 71.2402 79.541 67.2852C76.9531 65.2832 74.6582 63.4766 73.3398 61.2305C72.0703 59.1309 71.0449 56.7871 70.0195 54.4434C66.8457 47.0703 63.4277 39.4531 52.7344 39.4531C41.9922 39.4531 38.623 47.0703 35.4492 54.3945C34.375 56.7871 33.3984 59.082 32.1777 61.1328C30.8105 63.3789 28.4668 65.2832 25.9277 67.2852C20.9961 71.2402 15.3809 75.9277 15.3809 85.791C15.3809 95.8008 23.3887 103.418 33.8867 103.418ZM33.8867 96.3379C27.2461 96.3379 22.4609 91.9434 22.4609 85.791C22.4609 74.3652 31.8848 75.3418 37.8906 65.0879C42.334 57.5684 43.8477 46.5332 52.7344 46.5332C61.6211 46.5332 63.0859 57.5684 67.5781 65.1855C73.584 75.3418 83.0078 74.3652 83.0078 85.791C83.0078 91.9434 78.2227 96.3379 71.5332 96.3379C64.7461 96.3379 60.3027 91.5527 52.7344 91.5527C45.166 91.5527 40.7227 96.3379 33.8867 96.3379ZM0 46.6797C0 57.7637 5.17578 65.1855 13.0859 65.1855C20.9473 65.1855 26.2207 57.7637 26.2207 46.6797C26.2207 35.5957 20.9473 28.1738 13.0859 28.1738C5.17578 28.1738 0 35.5957 0 46.6797ZM6.78711 46.6797C6.78711 39.6484 9.27734 34.9609 13.0859 34.9609C16.8945 34.9609 19.4336 39.6484 19.4336 46.6797C19.4336 53.7109 16.8945 58.3984 13.0859 58.3984C9.27734 58.3984 6.78711 53.7109 6.78711 46.6797ZM23.7305 18.457C23.7305 29.5898 28.9551 36.9141 36.8164 36.9141C44.7266 36.9141 49.9512 29.4922 49.9512 18.457C49.9512 7.37305 44.7266 0 36.8164 0C28.9551 0 23.7305 7.37305 23.7305 18.457ZM30.5176 18.457C30.5176 11.4746 33.0078 6.78711 36.8164 6.78711C40.625 6.78711 43.1641 11.4746 43.1641 18.457C43.1641 25.4883 40.625 30.127 36.8164 30.127C33.0078 30.127 30.5176 25.4883 30.5176 18.457ZM55.6152 18.457C55.6152 29.4922 60.8398 36.9141 68.75 36.9141C76.6113 36.9141 81.8359 29.5898 81.8359 18.457C81.8359 7.37305 76.6113 0 68.75 0C60.8398 0 55.6152 7.37305 55.6152 18.457ZM62.4023 18.457C62.4023 11.4746 64.9414 6.78711 68.75 6.78711C72.5586 6.78711 75.0488 11.4746 75.0488 18.457C75.0488 25.4883 72.5586 30.127 68.75 30.127C64.9414 30.127 62.4023 25.4883 62.4023 18.457ZM79.3457 46.6797C79.3457 57.7637 84.6191 65.1855 92.4805 65.1855C100.391 65.1855 105.566 57.7637 105.566 46.6797C105.566 35.5957 100.391 28.1738 92.4805 28.1738C84.6191 28.1738 79.3457 35.5957 79.3457 46.6797ZM86.1328 46.6797C86.1328 39.6484 88.6719 34.9609 92.4805 34.9609C96.2891 34.9609 98.7793 39.6484 98.7793 46.6797C98.7793 53.7109 96.2891 58.3984 92.4805 58.3984C88.6719 58.3984 86.1328 53.7109 86.1328 46.6797Z" fill="#000000" fill-opacity="0.85"/>
 </g>
</svg>
