<?xml version="1.0" encoding="UTF-8"?>
<!--Generator: Apple Native CoreSVG 232.5-->
<!DOCTYPE svg
PUBLIC "-//W3C//DTD SVG 1.1//EN"
       "http://www.w3.org/Graphics/SVG/1.1/DTD/svg11.dtd">
<svg version="1.1" xmlns="http://www.w3.org/2000/svg" xmlns:xlink="http://www.w3.org/1999/xlink" width="94.6289" height="98.4863">
 <g>
  <rect height="98.4863" opacity="0" width="94.6289" x="0" y="0"/>
  <path d="M19.9219 54.9316L42.7734 54.9316C43.75 54.9316 44.5312 54.1992 44.5312 53.125C44.5312 52.0996 43.75 51.4648 42.7734 51.4648L19.9219 51.4648C18.8477 51.4648 18.1152 52.0996 18.1152 53.125C18.1152 54.1992 18.8477 54.9316 19.9219 54.9316ZM19.9219 46.6797L52.002 46.6797C53.0273 46.6797 53.7109 45.9961 53.7109 44.873C53.7109 43.8477 53.0273 43.2129 52.002 43.2129L19.9219 43.2129C18.8477 43.2129 18.1152 43.8477 18.1152 44.873C18.1152 45.9961 18.8477 46.6797 19.9219 46.6797ZM20.459 26.9043C21.7773 26.9043 22.8027 25.8301 22.8027 24.5605C22.8027 23.2422 21.7773 22.168 20.459 22.168C19.1406 22.168 18.1152 23.2422 18.1152 24.5605C18.1152 25.8301 19.1406 26.9043 20.459 26.9043ZM20.459 35.6934C21.7773 35.6934 22.8027 34.6191 22.8027 33.3008C22.8027 32.0312 21.7773 30.957 20.459 30.957C19.1406 30.957 18.1152 32.0312 18.1152 33.3008C18.1152 34.6191 19.1406 35.6934 20.459 35.6934ZM26.2695 28.7109C26.2695 31.7383 27.9297 34.7168 29.3945 35.9863C29.7852 36.3281 30.2246 36.4746 30.6641 36.4746C31.4941 36.4746 32.1289 35.8398 32.1289 35.0586C32.1289 34.4238 31.7871 34.082 31.3477 33.6426C29.9316 32.2266 29.3457 30.4688 29.3457 28.7109C29.3457 26.9043 30.0293 25.2441 31.3477 23.7793C31.7871 23.291 32.1289 22.9492 32.1289 22.3145C32.1289 21.5332 31.4941 20.8984 30.6641 20.8984C30.2734 20.8984 29.7852 21.0938 29.3945 21.4355C27.4902 23.0469 26.2695 25.6836 26.2695 28.7109Z" fill="#000000" fill-opacity="0.85"/>
  <path d="M0 71.2402C0 79.7363 4.15039 83.7891 12.4512 83.7891L82.1777 83.7891C90.4785 83.7891 94.6289 79.7363 94.6289 71.2402L94.6289 12.5488C94.6289 4.00391 90.4297 0 82.0801 0L12.5488 0C4.19922 0 0 4.00391 0 12.5488ZM7.86133 63.2324L7.86133 12.6953C7.86133 9.22852 9.32617 7.86133 12.6953 7.86133L81.9336 7.86133C85.3027 7.86133 86.7676 9.22852 86.7676 12.6953L86.7676 63.2324C86.7676 66.6504 85.3027 68.0176 81.9336 68.0176L12.6953 68.0176C9.32617 68.0176 7.86133 66.6504 7.86133 63.2324ZM74.9023 78.7109C73.1445 78.7109 71.582 77.1484 71.582 75.293C71.582 73.5352 73.1445 71.9727 74.9023 71.9727C76.8066 71.9727 78.3203 73.5352 78.3203 75.293C78.3203 77.1484 76.8066 78.7109 74.9023 78.7109ZM47.3145 89.6484C61.2305 89.6484 72.0703 86.4746 75.3418 81.543L19.2871 81.543C22.5586 86.4746 33.3984 89.6484 47.3145 89.6484ZM23.877 97.0215L70.752 97.0215C75.1465 97.0215 75.4395 92.1875 72.5098 90.8691L60.6934 85.4004L33.9355 85.4004L22.1191 90.8691C19.1895 92.1875 19.4824 97.0215 23.877 97.0215Z" fill="#000000" fill-opacity="0.85"/>
 </g>
</svg>
