<?xml version="1.0" encoding="UTF-8"?>
<!--Generator: Apple Native CoreSVG 232.5-->
<!DOCTYPE svg
PUBLIC "-//W3C//DTD SVG 1.1//EN"
       "http://www.w3.org/Graphics/SVG/1.1/DTD/svg11.dtd">
<svg version="1.1" xmlns="http://www.w3.org/2000/svg" xmlns:xlink="http://www.w3.org/1999/xlink" width="97.4609" height="86.2793">
 <g>
  <rect height="86.2793" opacity="0" width="97.4609" x="0" y="0"/>
  <path d="M15.5029 86.2793L72.6318 86.2793C88.9404 86.2793 94.6045 78.2227 96.5576 61.2793C97.8271 50.5371 97.8271 39.8926 96.1182 25.4395C94.1162 7.42188 84.0576-0.0976562 64.8193 1.95312L17.5049 7.32422C6.0791 8.59375 0.0244113 15.0391 0.0244113 25.7324L0.0244113 70.9473C0.0244113 80.6152 5.78613 86.2793 15.5029 86.2793ZM15.5518 78.4668C10.8643 78.4668 7.78808 75.5371 7.78808 70.9473L7.78808 25.7324C7.78808 19.5801 11.499 15.8691 18.2861 15.0879L65.6494 9.76562C79.7607 8.20312 86.9873 13.1836 88.3545 25.4883C90.0635 39.9414 90.0635 50.5371 88.7939 61.2305C87.2314 74.6094 85.0342 78.4668 72.6318 78.4668Z" fill="#000000" fill-opacity="0.85"/>
  <path d="M22.7295 33.6426L74.0478 33.6426C75.8057 33.6426 77.2217 32.2266 77.2217 30.4688C77.2217 28.7109 75.8057 27.2461 74.0478 27.2461L22.7295 27.2461C20.9717 27.2461 19.5557 28.7109 19.5557 30.4688C19.5557 32.2266 20.9717 33.6426 22.7295 33.6426ZM22.7295 49.8535L74.0478 49.8535C75.8057 49.8535 77.2217 48.4375 77.2217 46.6797C77.2217 44.9219 75.8057 43.457 74.0478 43.457L22.7295 43.457C20.9717 43.457 19.5557 44.9219 19.5557 46.6797C19.5557 48.4375 20.9717 49.8535 22.7295 49.8535ZM22.7295 66.0645L74.0478 66.0645C75.8057 66.0645 77.2217 64.6484 77.2217 62.8418C77.2217 61.084 75.8057 59.668 74.0478 59.668L22.7295 59.668C20.9717 59.668 19.5557 61.084 19.5557 62.8418C19.5557 64.6484 20.9717 66.0645 22.7295 66.0645Z" fill="#000000" fill-opacity="0.85"/>
 </g>
</svg>
