<?xml version="1.0" encoding="UTF-8"?>
<!--Generator: Apple Native CoreSVG 232.5-->
<!DOCTYPE svg
PUBLIC "-//W3C//DTD SVG 1.1//EN"
       "http://www.w3.org/Graphics/SVG/1.1/DTD/svg11.dtd">
<svg version="1.1" xmlns="http://www.w3.org/2000/svg" xmlns:xlink="http://www.w3.org/1999/xlink" width="82.9102" height="104.932">
 <g>
  <rect height="104.932" opacity="0" width="82.9102" x="0" y="0"/>
  <path d="M28.418 104.883L68.0176 104.883C77.2949 104.883 82.8613 99.4141 82.8613 90.2344L82.9102 14.7949C82.9102 6.00586 77.002 0 68.1641 0L21.0938 0C8.10547 0 0 8.20312 0 21.1426L0 28.6133C0 41.6504 3.07617 50.3906 10.1562 59.5703L13.5742 64.0625L13.5742 90.2344C13.5742 99.4141 19.1406 104.883 28.418 104.883ZM28.418 97.0215C24.2188 97.0215 21.4355 94.3359 21.4355 90.1855L21.4355 61.4258L16.3574 54.7363C10.498 47.0703 7.86133 39.5508 7.86133 28.3691L7.86133 21.1914C7.86133 13.0371 12.9395 7.86133 21.1426 7.86133L68.1641 7.86133C72.3145 7.86133 75.0488 10.5957 75.0488 14.7949L75 90.1855C75 94.3359 72.2168 97.0215 68.0176 97.0215Z" fill="#000000" fill-opacity="0.85"/>
  <path d="M20.9473 30.8105L63.623 30.8105C65.3809 30.8105 66.7969 29.3945 66.7969 27.6367C66.7969 25.8789 65.3809 24.4141 63.623 24.4141L20.9473 24.4141C19.1895 24.4141 17.7734 25.8789 17.7734 27.6367C17.7734 29.3945 19.1895 30.8105 20.9473 30.8105ZM25.3418 48.9258L63.623 48.9258C65.3809 48.9258 66.7969 47.4609 66.7969 45.7031C66.7969 43.9453 65.3809 42.5293 63.623 42.5293L25.3418 42.5293C23.584 42.5293 22.1191 43.9453 22.1191 45.7031C22.1191 47.4609 23.584 48.9258 25.3418 48.9258ZM32.8125 66.8945L63.623 66.8945C65.3809 66.8945 66.7969 65.4785 66.7969 63.7207C66.7969 61.9629 65.3809 60.498 63.623 60.498L32.8125 60.498C31.0547 60.498 29.5898 61.9629 29.5898 63.7207C29.5898 65.4785 31.0547 66.8945 32.8125 66.8945ZM32.8125 85.0098L63.623 85.0098C65.3809 85.0098 66.7969 83.5449 66.7969 81.7871C66.7969 80.0293 65.3809 78.6133 63.623 78.6133L32.8125 78.6133C31.0547 78.6133 29.5898 80.0293 29.5898 81.7871C29.5898 83.5449 31.0547 85.0098 32.8125 85.0098Z" fill="#000000" fill-opacity="0.85"/>
 </g>
</svg>
