<?xml version="1.0" encoding="UTF-8"?>
<!--Generator: Apple Native CoreSVG 232.5-->
<!DOCTYPE svg
PUBLIC "-//W3C//DTD SVG 1.1//EN"
       "http://www.w3.org/Graphics/SVG/1.1/DTD/svg11.dtd">
<svg version="1.1" xmlns="http://www.w3.org/2000/svg" xmlns:xlink="http://www.w3.org/1999/xlink" width="97.4609" height="86.2793">
 <g>
  <rect height="86.2793" opacity="0" width="97.4609" x="0" y="0"/>
  <path d="M96.1182 25.4395C97.8271 39.8926 97.8271 50.5371 96.5576 61.2793C94.6045 78.2227 88.9404 86.2793 72.6318 86.2793L15.5029 86.2793C5.78613 86.2793 0.0244113 80.6152 0.0244113 70.9473L0.0244113 25.7324C0.0244113 15.0391 6.0791 8.59375 17.5049 7.32422L64.8193 1.95312C84.0576-0.0976562 94.1162 7.42188 96.1182 25.4395ZM21.9482 60.0586C20.0928 60.0586 18.6279 61.5234 18.6279 63.3301C18.6279 65.2344 20.0928 66.6992 21.9482 66.6992L74.8291 66.6992C76.6846 66.6992 78.1494 65.2344 78.1494 63.3301C78.1494 61.5234 76.6846 60.0586 74.8291 60.0586ZM21.9482 43.3594C20.0928 43.3594 18.6279 44.873 18.6279 46.6797C18.6279 48.4863 20.0928 49.9512 21.9482 49.9512L74.8291 49.9512C76.6846 49.9512 78.1494 48.4863 78.1494 46.6797C78.1494 44.873 76.6846 43.3594 74.8291 43.3594ZM21.9482 26.6113C20.0928 26.6113 18.6279 28.125 18.6279 29.9805C18.6279 31.7871 20.0928 33.252 21.9482 33.252L74.8291 33.252C76.6846 33.252 78.1494 31.7871 78.1494 29.9805C78.1494 28.125 76.6846 26.6113 74.8291 26.6113Z" fill="#000000" fill-opacity="0.85"/>
 </g>
</svg>
