<?xml version="1.0" encoding="UTF-8"?>
<!--Generator: Apple Native CoreSVG 232.5-->
<!DOCTYPE svg
PUBLIC "-//W3C//DTD SVG 1.1//EN"
       "http://www.w3.org/Graphics/SVG/1.1/DTD/svg11.dtd">
<svg version="1.1" xmlns="http://www.w3.org/2000/svg" xmlns:xlink="http://www.w3.org/1999/xlink" width="82.9102" height="104.932">
 <g>
  <rect height="104.932" opacity="0" width="82.9102" x="0" y="0"/>
  <path d="M82.9102 14.7949L82.8613 90.2344C82.8613 99.4141 77.2949 104.883 68.0176 104.883L28.418 104.883C19.1406 104.883 13.5742 99.4141 13.5742 90.2344L13.5742 64.0625L10.1562 59.5703C3.07617 50.3906 0 41.6504 0 28.6133L0 21.1426C0 8.20312 8.10547 0 21.0938 0L68.1641 0C77.002 0 82.9102 6.00586 82.9102 14.7949ZM32.5195 79.3457C30.6641 79.3457 29.1504 80.8105 29.1504 82.6172C29.1504 84.4727 30.6641 85.9863 32.5195 85.9863L64.3066 85.9863C66.1133 85.9863 67.5781 84.4727 67.5781 82.6172C67.5781 80.8105 66.1133 79.3457 64.3066 79.3457ZM32.5195 60.6445C30.6641 60.6445 29.1504 62.1582 29.1504 64.0137C29.1504 65.8203 30.6641 67.2852 32.5195 67.2852L64.3066 67.2852C66.1133 67.2852 67.5781 65.8203 67.5781 64.0137C67.5781 62.1582 66.1133 60.6445 64.3066 60.6445ZM24.8047 42.1387C22.998 42.1387 21.4844 43.6035 21.4844 45.4102C21.4844 47.2656 22.998 48.7793 24.8047 48.7793L64.3066 48.7793C66.1133 48.7793 67.5781 47.2656 67.5781 45.4102C67.5781 43.6035 66.1133 42.1387 64.3066 42.1387ZM20.2637 23.4375C18.457 23.4375 16.9922 24.9512 16.9922 26.8066C16.9922 28.6133 18.457 30.0781 20.2637 30.0781L64.3066 30.0781C66.1133 30.0781 67.5781 28.6133 67.5781 26.8066C67.5781 24.9512 66.1133 23.4375 64.3066 23.4375Z" fill="#000000" fill-opacity="0.85"/>
 </g>
</svg>
