<?xml version="1.0" encoding="UTF-8"?>
<!--Generator: Apple Native CoreSVG 232.5-->
<!DOCTYPE svg
PUBLIC "-//W3C//DTD SVG 1.1//EN"
       "http://www.w3.org/Graphics/SVG/1.1/DTD/svg11.dtd">
<svg version="1.1" xmlns="http://www.w3.org/2000/svg" xmlns:xlink="http://www.w3.org/1999/xlink" width="83.1055" height="104.834">
 <g>
  <rect height="104.834" opacity="0" width="83.1055" x="0" y="0"/>
  <path d="M22.5586 104.834L68.2617 104.834C77.4902 104.834 83.0566 99.3652 83.0566 90.1855L83.1055 22.168C83.1055 13.2324 77.9297 7.27539 68.2129 4.88281C56.5918 2.00195 44.7754 0.390625 32.2266 0.0976562C15.1855-0.341797 4.19922 6.25 2.09961 21.5332C-0.585938 41.4062-0.683594 68.9941 1.75781 86.9629C3.17383 97.998 11.084 104.834 22.5586 104.834ZM22.8027 96.9727C15.4297 96.9727 10.4004 93.2129 9.61914 87.0117C7.17773 68.9453 7.27539 41.748 9.86328 22.5586C11.3281 12.0605 19.1406 7.66602 31.4941 7.95898C44.1895 8.25195 56.2012 9.86328 68.0176 12.6953C72.8516 13.916 75.293 17.1387 75.293 22.3145L75.2441 90.0391C75.2441 95.2148 73.1934 96.9727 68.1152 96.9727Z" fill="#000000" fill-opacity="0.85"/>
  <path d="M21.4355 42.9199L62.8418 42.9199C64.5996 42.9199 66.0645 41.5039 66.0645 39.7461C66.0645 37.9883 64.5996 36.5234 62.8418 36.5234L21.4355 36.5234C19.6777 36.5234 18.2129 37.9883 18.2129 39.7461C18.2129 41.5039 19.6777 42.9199 21.4355 42.9199ZM21.4355 59.1309L62.8418 59.1309C64.5996 59.1309 66.0645 57.7148 66.0645 55.957C66.0645 54.1992 64.5996 52.7344 62.8418 52.7344L21.4355 52.7344C19.6777 52.7344 18.2129 54.1992 18.2129 55.957C18.2129 57.7148 19.6777 59.1309 21.4355 59.1309ZM21.4355 75.3418L62.8418 75.3418C64.5996 75.3418 66.0645 73.9258 66.0645 72.1191C66.0645 70.3613 64.5996 68.9453 62.8418 68.9453L21.4355 68.9453C19.6777 68.9453 18.2129 70.3613 18.2129 72.1191C18.2129 73.9258 19.6777 75.3418 21.4355 75.3418Z" fill="#000000" fill-opacity="0.85"/>
 </g>
</svg>
