<?xml version="1.0" encoding="UTF-8"?>
<!--Generator: Apple Native CoreSVG 232.5-->
<!DOCTYPE svg
PUBLIC "-//W3C//DTD SVG 1.1//EN"
       "http://www.w3.org/Graphics/SVG/1.1/DTD/svg11.dtd">
<svg version="1.1" xmlns="http://www.w3.org/2000/svg" xmlns:xlink="http://www.w3.org/1999/xlink" width="117.236" height="103.662">
 <g>
  <rect height="103.662" opacity="0" width="117.236" x="0" y="0"/>
  <path d="M7.86133 3.90625L7.86133 99.707C7.86133 101.855 6.10352 103.613 3.95508 103.613C1.75781 103.613 0 101.855 0 99.707L0 3.90625C0 1.75781 1.75781 0 3.95508 0C6.10352 0 7.86133 1.75781 7.86133 3.90625ZM117.236 3.90625L117.236 99.707C117.236 101.855 115.479 103.613 113.33 103.613C111.133 103.613 109.375 101.855 109.375 99.707L109.375 89.7461L103.662 89.7461L103.662 83.3496L109.375 83.3496L109.375 66.6504L103.662 66.6504L103.662 60.2539L109.375 60.2539L109.375 43.5547L103.662 43.5547L103.662 37.1582L109.375 37.1582L109.375 20.4102L103.662 20.4102L103.662 14.0137L109.375 14.0137L109.375 3.90625C109.375 1.75781 111.133 0 113.33 0C115.479 0 117.236 1.75781 117.236 3.90625Z" fill="#000000" fill-opacity="0.85"/>
  <path d="M52.7344 32.1777L100.195 26.6113C102.295 26.3672 103.662 25.2441 103.662 23.1934L103.662 11.1328C103.662 9.0332 102.295 7.22656 100.195 7.71484L52.0996 18.3594C50.1465 18.7988 49.2676 20.0684 49.2676 21.582L49.2676 29.1016C49.2676 31.2988 50.4395 32.4707 52.7344 32.1777ZM52.0996 49.8047L100.195 49.8047C102.295 49.8047 103.662 48.4375 103.662 46.3867L103.662 34.3262C103.662 32.2266 102.344 30.6641 100.195 30.9082L52.0996 36.5234C50.3418 36.7188 49.2676 38.0371 49.2676 39.8438L49.2676 46.6309C49.2676 48.584 50.4395 49.8047 52.0996 49.8047ZM52.0996 67.334L100.195 72.9492C102.344 73.1934 103.662 71.6309 103.662 69.5312L103.662 57.4707C103.662 55.4199 102.295 54.0527 100.195 54.0527L52.0996 54.0527C50.4395 54.0527 49.2676 55.2734 49.2676 57.2266L49.2676 64.0137C49.2676 65.8203 50.3418 67.0898 52.0996 67.334ZM52.0996 85.498L100.195 96.1426C102.295 96.582 103.662 94.8242 103.662 92.7246L103.662 80.6152C103.662 78.6133 102.295 77.4902 100.195 77.2461L52.7344 71.6797C50.4395 71.3867 49.2676 72.5586 49.2676 74.7559L49.2676 82.2754C49.2676 83.7891 50.1465 85.0586 52.0996 85.498Z" fill="#000000" fill-opacity="0.85"/>
 </g>
</svg>
