<?xml version="1.0" encoding="UTF-8"?>
<!--Generator: Apple Native CoreSVG 232.5-->
<!DOCTYPE svg
PUBLIC "-//W3C//DTD SVG 1.1//EN"
       "http://www.w3.org/Graphics/SVG/1.1/DTD/svg11.dtd">
<svg version="1.1" xmlns="http://www.w3.org/2000/svg" xmlns:xlink="http://www.w3.org/1999/xlink" width="99.6094" height="99.6582">
 <g>
  <rect height="99.6582" opacity="0" width="99.6094" x="0" y="0"/>
  <path d="M46.6309 27.6367L37.5 55.0293L62.207 55.0293L53.0273 27.6367C51.9531 24.4629 47.7051 24.4629 46.6309 27.6367ZM69.6777 91.2598C71.1426 91.2598 73.0957 89.5508 72.7051 87.5488L66.0156 56.2012C65.5273 53.7598 63.5742 52.002 61.2305 52.002L38.4277 52.002C36.1328 52.002 34.1309 53.7598 33.6426 56.1523L26.9531 87.5488C26.6113 89.2578 27.7832 90.918 29.4434 91.2109C31.1523 91.5527 32.8125 90.5273 33.1543 88.8184L39.7461 57.8613L39.1113 58.3008L60.5957 58.3008L59.9121 57.8613L66.5039 88.8184C66.7969 90.332 68.1152 91.3086 69.6777 91.2598Z" fill="#000000" fill-opacity="0.85"/>
  <path d="M49.8047 99.6094C77.0508 99.6094 99.6094 77.002 99.6094 49.8047C99.6094 22.5586 77.002 0 49.7559 0C22.5586 0 0 22.5586 0 49.8047C0 77.002 22.6074 99.6094 49.8047 99.6094ZM49.8047 91.3086C26.7578 91.3086 8.34961 72.8516 8.34961 49.8047C8.34961 26.7578 26.709 8.30078 49.7559 8.30078C72.8027 8.30078 91.3086 26.7578 91.3086 49.8047C91.3086 72.8516 72.8516 91.3086 49.8047 91.3086Z" fill="#000000" fill-opacity="0.85"/>
 </g>
</svg>
