<?xml version="1.0" encoding="UTF-8"?>
<!--Generator: Apple Native CoreSVG 232.5-->
<!DOCTYPE svg
PUBLIC "-//W3C//DTD SVG 1.1//EN"
       "http://www.w3.org/Graphics/SVG/1.1/DTD/svg11.dtd">
<svg version="1.1" xmlns="http://www.w3.org/2000/svg" xmlns:xlink="http://www.w3.org/1999/xlink" width="135.913" height="100.394">
 <g>
  <rect height="100.394" opacity="0" width="135.913" x="0" y="0"/>
  <path d="M1.03754 87.8679C5.38324 102.126 26.9653 104.421 50.3051 93.6784L47.7661 88.3073C28.0883 97.4382 9.77778 96.2663 6.75043 86.1589C-0.964412 60.9147 53.3325 58.0827 47.0825 36.8425C43.9575 26.3933 19.8364 28.1022 2.60004 39.7233C-0.866756 41.9694 2.45356 46.9499 5.87153 44.6062C18.3715 36.3054 39.7094 33.0339 41.3696 38.5026C42.5903 42.6042 39.1723 45.6315 25.6957 53.1511C12.561 60.4265-4.38238 70.0456 1.03754 87.8679Z" fill="#000000" fill-opacity="0.85"/>
  <path d="M70.2758 84.6452L122.229 32.7409L113.684 24.1472L61.7309 76.0515L57.0922 86.8913C56.6039 88.0632 57.8247 89.4304 59.0454 88.9421ZM126.526 28.5417L131.457 23.7077C133.948 21.2175 134.094 18.5319 131.848 16.2858L130.188 14.6257C127.942 12.4284 125.256 12.6237 122.815 15.0651L117.834 19.9479Z" fill="#000000" fill-opacity="0.85"/>
 </g>
</svg>
