<?xml version="1.0" encoding="UTF-8"?>
<!--Generator: Apple Native CoreSVG 232.5-->
<!DOCTYPE svg
PUBLIC "-//W3C//DTD SVG 1.1//EN"
       "http://www.w3.org/Graphics/SVG/1.1/DTD/svg11.dtd">
<svg version="1.1" xmlns="http://www.w3.org/2000/svg" xmlns:xlink="http://www.w3.org/1999/xlink" width="85.4492" height="109.912">
 <g>
  <rect height="109.912" opacity="0" width="85.4492" x="0" y="0"/>
  <path d="M0 12.5L12.2559 12.5L12.2559 5.51758C12.2559 2.00195 10.4492 0 7.27539 0L4.88281 0C1.75781 0 0 2.09961 0 5.51758ZM0 97.1191L4.44336 108.057C4.93164 109.18 6.73828 109.277 7.27539 108.105L12.2559 97.1191L12.2559 18.2129L0 18.2129ZM49.2676 109.131L73.4863 109.131C80.5664 109.131 85.4492 104.248 85.4492 97.168L85.4492 12.7441C85.4492 5.61523 80.5664 0.683594 73.4863 0.683594L49.2676 0.683594C42.1875 0.683594 37.3535 5.56641 37.3535 12.6953L37.3535 97.1191C37.3535 104.248 42.1875 109.131 49.2676 109.131ZM50.5859 102.002C46.875 102.002 44.4824 99.6094 44.4824 96.0449L44.4824 13.8184C44.4824 10.2539 46.875 7.86133 50.5859 7.86133L72.2168 7.86133C75.8789 7.86133 78.2715 10.2539 78.2715 13.8184L78.2715 95.9961C78.2715 99.5605 75.8789 102.002 72.2168 102.002ZM80.8105 17.6758L80.8105 13.9648L57.4707 13.9648C56.4941 13.9648 55.6641 14.7461 55.6641 15.8203C55.6641 16.7969 56.4453 17.6758 57.4219 17.6758ZM80.8105 25.4395L80.8105 21.8262L65.2344 21.8262C64.209 21.8262 63.4766 22.5586 63.4766 23.6816C63.4766 24.6582 64.1602 25.4395 65.1855 25.4395ZM80.8105 33.3008L80.8105 29.6875L65.2344 29.6875C64.209 29.6875 63.4766 30.4199 63.4766 31.543C63.4766 32.5195 64.1602 33.3008 65.1855 33.3008ZM80.8105 41.1133L80.8105 37.4512L65.2344 37.4512C64.209 37.4512 63.4766 38.1836 63.4766 39.2578C63.4766 40.332 64.1602 41.1133 65.1855 41.1133ZM80.8105 48.9258L80.8105 45.2637L65.2344 45.2637C64.209 45.2637 63.4766 46.0449 63.4766 47.168C63.4766 48.0957 64.1602 48.9258 65.1855 48.9258ZM80.8105 56.6895L80.8105 53.125L57.4707 53.125C56.4941 53.125 55.6641 53.8574 55.6641 54.9316C55.6641 55.957 56.4453 56.6895 57.4219 56.6895ZM80.8105 64.5996L80.8105 60.9375L65.2344 60.9375C64.209 60.9375 63.4766 61.6699 63.4766 62.7441C63.4766 63.7695 64.1602 64.5996 65.1855 64.5996ZM80.8105 72.4121L80.8105 68.7988L65.2344 68.7988C64.209 68.7988 63.4766 69.4824 63.4766 70.6055C63.4766 71.582 64.1602 72.4121 65.1855 72.4121ZM80.8105 80.1758L80.8105 76.5625L65.2344 76.5625C64.209 76.5625 63.4766 77.3438 63.4766 78.3691C63.4766 79.3457 64.1602 80.1758 65.1855 80.1758ZM80.8105 87.9883L80.8105 84.375L65.2344 84.375C64.209 84.375 63.4766 85.0586 63.4766 86.1328C63.4766 87.207 64.1602 87.9883 65.1855 87.9883ZM80.8105 95.8008L80.8105 92.1387L57.4707 92.1387C56.4941 92.1387 55.6641 92.9199 55.6641 93.9941C55.6641 94.9707 56.4453 95.8008 57.4219 95.8008Z" fill="#000000" fill-opacity="0.85"/>
 </g>
</svg>
