<?xml version="1.0" encoding="UTF-8"?>
<!--Generator: Apple Native CoreSVG 232.5-->
<!DOCTYPE svg
PUBLIC "-//W3C//DTD SVG 1.1//EN"
       "http://www.w3.org/Graphics/SVG/1.1/DTD/svg11.dtd">
<svg version="1.1" xmlns="http://www.w3.org/2000/svg" xmlns:xlink="http://www.w3.org/1999/xlink" width="61.536" height="92.2363">
 <g>
  <rect height="92.2363" opacity="0" width="61.536" x="0" y="0"/>
  <path d="M3.93693 92.2363C6.23185 92.2363 7.35489 91.0156 7.74552 89.0137L17.4135 39.7949L12.5307 43.75L48.9565 43.75L44.0736 39.7949L53.7416 89.0137C54.1322 91.0156 55.2553 92.2363 57.5502 92.2363C60.8217 92.2363 61.9447 89.9902 61.4076 87.3535L52.2768 40.8691C51.6908 37.793 49.1029 35.5469 46.1244 35.5469L15.4115 35.5469C12.433 35.5469 9.84513 37.793 9.25919 40.8691L0.128332 87.3535C-0.408778 89.9902 0.763097 92.2363 3.93693 92.2363ZM14.3373 39.502L47.1986 39.502L35.0404 3.22266C34.308 1.17188 32.9408 0 30.8412 0C28.644 0 27.1303 1.17188 26.4467 3.22266Z" fill="#000000" fill-opacity="0.85"/>
 </g>
</svg>
