<?xml version="1.0" encoding="UTF-8"?>
<!--Generator: Apple Native CoreSVG 232.5-->
<!DOCTYPE svg
PUBLIC "-//W3C//DTD SVG 1.1//EN"
       "http://www.w3.org/Graphics/SVG/1.1/DTD/svg11.dtd">
<svg version="1.1" xmlns="http://www.w3.org/2000/svg" xmlns:xlink="http://www.w3.org/1999/xlink" width="99.6094" height="99.6582">
 <g>
  <rect height="99.6582" opacity="0" width="99.6094" x="0" y="0"/>
  <path d="M39.6484 58.3008L34.2285 83.9355C33.3984 87.9395 27.0996 87.0117 28.0762 82.4219L33.6426 56.1523C34.082 53.8574 35.9863 52.1484 38.1836 52.002L38.5254 52.002L46.6309 27.6367C47.7051 24.4141 51.9531 24.4629 53.0273 27.6367L61.1328 52.002L61.4746 52.002C63.7207 52.1484 65.5762 53.8574 66.0156 56.2012L71.6309 82.4219C72.5586 87.0117 66.2598 87.9395 65.4785 83.9355L60.0586 58.3008ZM49.8047 99.6094C77.0508 99.6094 99.6094 77.002 99.6094 49.8047C99.6094 22.5586 77.002 0 49.7559 0C22.5586 0 0 22.5586 0 49.8047C0 77.002 22.6074 99.6094 49.8047 99.6094Z" fill="#000000" fill-opacity="0.85"/>
 </g>
</svg>
