<?xml version="1.0" encoding="UTF-8"?>
<!--Generator: Apple Native CoreSVG 232.5-->
<!DOCTYPE svg
PUBLIC "-//W3C//DTD SVG 1.1//EN"
       "http://www.w3.org/Graphics/SVG/1.1/DTD/svg11.dtd">
<svg version="1.1" xmlns="http://www.w3.org/2000/svg" xmlns:xlink="http://www.w3.org/1999/xlink" width="99.6094" height="99.6582">
 <g>
  <rect height="99.6582" opacity="0" width="99.6094" x="0" y="0"/>
  <path d="M99.6094 49.8535C99.6094 77.0996 77.0508 99.6582 49.8047 99.6582C22.6074 99.6582 0 77.0996 0 49.8535C0 22.6562 22.5586 0.0488281 49.7559 0.0488281C77.002 0.0488281 99.6094 22.6562 99.6094 49.8535ZM27.7832 65.7227L24.9512 72.3633C24.4141 73.6328 25.6348 74.707 26.709 74.3164L33.6914 71.6797L66.6992 38.8184L60.6934 32.8125ZM67.4316 26.123L63.7207 29.834L69.7266 35.791L73.3887 32.1289C75.0488 30.4688 75.1465 28.5645 73.584 27.0508L72.4609 25.8789C70.9473 24.3652 69.0918 24.5605 67.4316 26.123Z" fill="#000000" fill-opacity="0.85"/>
 </g>
</svg>
