<?xml version="1.0" encoding="UTF-8"?>
<!--Generator: Apple Native CoreSVG 232.5-->
<!DOCTYPE svg
PUBLIC "-//W3C//DTD SVG 1.1//EN"
       "http://www.w3.org/Graphics/SVG/1.1/DTD/svg11.dtd">
<svg version="1.1" xmlns="http://www.w3.org/2000/svg" xmlns:xlink="http://www.w3.org/1999/xlink" width="87.6099" height="84.8831">
 <g>
  <rect height="84.8831" opacity="0" width="87.6099" x="0" y="0"/>
  <path d="M44.5019 50.5818L18.2434 76.7921L6.96414 81.1378C5.79227 81.6261 4.57156 80.2589 5.01102 79.087L9.69852 68.1984L35.9171 42.0038ZM71.5638 23.5695L57.9175 37.1907L49.3266 28.6066L62.97 14.9757ZM79.5227 5.45423L81.1341 7.11439C83.429 9.36048 83.2825 12.046 80.7434 14.5363L75.8118 19.3702L67.1692 10.7765L72.1497 5.89368C74.5911 3.45228 77.2766 3.25696 79.5227 5.45423Z" fill="#000000" fill-opacity="0.85"/>
  <path d="M75.5188 73.5206C76.9837 74.9855 79.4251 74.9855 80.8411 73.5206C82.2571 72.007 82.3059 69.6632 80.8411 68.1984L19.4641 6.82142C17.9993 5.35657 15.5091 5.30775 14.093 6.82142C12.677 8.23743 12.677 10.7277 14.093 12.1437Z" fill="#000000" fill-opacity="0.85"/>
 </g>
</svg>
