<?xml version="1.0" encoding="UTF-8"?>
<!--Generator: Apple Native CoreSVG 232.5-->
<!DOCTYPE svg
PUBLIC "-//W3C//DTD SVG 1.1//EN"
       "http://www.w3.org/Graphics/SVG/1.1/DTD/svg11.dtd">
<svg version="1.1" xmlns="http://www.w3.org/2000/svg" xmlns:xlink="http://www.w3.org/1999/xlink" width="106.047" height="90.8806">
 <g>
  <rect height="90.8806" opacity="0" width="106.047" x="0" y="0"/>
  <path d="M99.3128 80.3768C99.3128 82.5253 97.555 84.2831 95.4065 84.2831L25.0013 84.2831L32.8929 76.4218L95.4065 76.4218C97.555 76.4218 99.3128 78.2284 99.3128 80.3768Z" fill="#000000" fill-opacity="0.85"/>
  <path d="M20.0648 79.7909L73.3851 26.5682L64.7913 17.9745L11.5198 71.1971L6.83233 82.0858C6.39288 83.2577 7.61358 84.6249 8.78545 84.1366ZM77.6331 22.369L82.5648 17.535C85.1038 15.0448 85.2503 12.3593 82.9554 10.1132L81.344 8.453C79.098 6.25573 76.4124 6.45105 73.971 8.89245L68.9905 13.7753Z" fill="#000000" fill-opacity="0.85"/>
 </g>
</svg>
