<?xml version="1.0" encoding="UTF-8"?>
<!--Generator: Apple Native CoreSVG 232.5-->
<!DOCTYPE svg
PUBLIC "-//W3C//DTD SVG 1.1//EN"
       "http://www.w3.org/Graphics/SVG/1.1/DTD/svg11.dtd">
<svg version="1.1" xmlns="http://www.w3.org/2000/svg" xmlns:xlink="http://www.w3.org/1999/xlink" width="105.725" height="104.443">
 <g>
  <rect height="104.443" opacity="0" width="105.725" x="0" y="0"/>
  <path d="M0.933617 49.1211L15.3379 93.8965C17.5352 100.879 22.3692 104.443 29.791 104.443L75.9824 104.443C83.4043 104.443 88.2383 100.879 90.4356 93.8965L104.742 49.3164C107.037 42.0898 105.279 36.377 99.4199 32.0801L62.0176 4.58984C55.8653 0.0488281 49.9082 0.0488281 43.7559 4.58984L6.35354 32.0801C0.494164 36.377-1.31248 42.041 0.933617 49.1211ZM52.8867 9.08203C54.2539 9.08203 55.6699 9.61914 57.2813 10.8398L94.6348 38.3789C97.8574 40.7715 98.5899 43.0664 97.3692 46.875L83.0625 91.5039C81.8418 95.2148 79.9375 96.582 75.9824 96.582L52.8867 96.582Z" fill="#000000" fill-opacity="0.85"/>
 </g>
</svg>
