<?xml version="1.0" encoding="UTF-8"?>
<!--Generator: Apple Native CoreSVG 232.5-->
<!DOCTYPE svg
PUBLIC "-//W3C//DTD SVG 1.1//EN"
       "http://www.w3.org/Graphics/SVG/1.1/DTD/svg11.dtd">
<svg version="1.1" xmlns="http://www.w3.org/2000/svg" xmlns:xlink="http://www.w3.org/1999/xlink" width="105.749" height="104.443">
 <g>
  <rect height="104.443" opacity="0" width="105.749" x="0" y="0"/>
  <path d="M0.946028 49.1211L15.3503 93.8965C17.5476 100.879 22.3816 104.443 29.8035 104.443L75.9949 104.443C83.4167 104.443 88.2507 100.879 90.448 93.8965L104.755 49.3164C107.098 42.0898 105.292 36.377 99.4324 32.0801L62.03 4.58984C55.9265 0.0488281 49.8718 0.0488281 43.7683 4.58984L6.36595 32.0801C0.506575 36.377-1.30007 42.041 0.946028 49.1211ZM11.5417 56.5918L94.2566 56.5918L83.0749 91.5039C81.9031 95.2148 79.9499 96.582 75.9949 96.582L29.8035 96.582C25.8484 96.582 23.8952 95.2148 22.7234 91.5039Z" fill="#000000" fill-opacity="0.85"/>
 </g>
</svg>
