<?xml version="1.0" encoding="UTF-8"?>
<!--Generator: Apple Native CoreSVG 232.5-->
<!DOCTYPE svg
PUBLIC "-//W3C//DTD SVG 1.1//EN"
       "http://www.w3.org/Graphics/SVG/1.1/DTD/svg11.dtd">
<svg version="1.1" xmlns="http://www.w3.org/2000/svg" xmlns:xlink="http://www.w3.org/1999/xlink" width="173.291" height="80.2246">
 <g>
  <rect height="80.2246" opacity="0" width="173.291" x="0" y="0"/>
  <path d="M36.1816 40.0879C46.4355 40.0879 54.9316 30.957 54.9316 19.7754C54.9316 8.74023 46.5332 0 36.1816 0C25.8789 0 17.4805 8.88672 17.4805 19.8242C17.4805 31.0059 25.9277 40.0879 36.1816 40.0879ZM36.1816 32.7148C30.2246 32.7148 25.293 27.1484 25.293 19.8242C25.293 12.7441 30.127 7.37305 36.1816 7.37305C42.2363 7.37305 47.1191 12.6465 47.1191 19.7754C47.1191 27.0508 42.1875 32.7148 36.1816 32.7148ZM10.7422 79.9316L61.5723 79.9316C68.6523 79.9316 72.3145 77.6367 72.3145 72.6562C72.3145 61.4258 59.2773 45.1172 36.1328 45.1172C13.0371 45.1172 0 61.4258 0 72.6562C0 77.6367 3.61328 79.9316 10.7422 79.9316ZM8.83789 72.5586C8.10547 72.5586 7.8125 72.2656 7.8125 71.6797C7.8125 65.2344 17.041 52.4902 36.1328 52.4902C55.2246 52.4902 64.4531 65.2344 64.4531 71.6797C64.4531 72.2656 64.1602 72.5586 63.4766 72.5586ZM137.207 40.332C147.461 40.332 155.908 31.2012 155.908 20.0195C155.908 8.98438 147.559 0.244141 137.207 0.244141C126.904 0.244141 118.457 9.13086 118.457 20.0684C118.457 31.25 126.904 40.332 137.207 40.332ZM137.207 32.959C131.201 32.959 126.27 27.3926 126.27 20.0684C126.27 12.9883 131.152 7.61719 137.207 7.61719C143.213 7.61719 148.096 12.8906 148.096 20.0195C148.096 27.2949 143.213 32.959 137.207 32.959ZM111.768 80.1758L162.549 80.1758C169.678 80.1758 173.291 77.8809 173.291 72.9004C173.291 61.6699 160.303 45.3613 137.158 45.3613C114.014 45.3613 101.025 61.6699 101.025 72.9004C101.025 77.8809 104.639 80.1758 111.768 80.1758ZM109.863 72.8027C109.131 72.8027 108.838 72.5098 108.838 71.9238C108.838 65.4785 118.066 52.7344 137.158 52.7344C156.25 52.7344 165.479 65.4785 165.479 71.9238C165.479 72.5098 165.186 72.8027 164.453 72.8027Z" fill="#000000" fill-opacity="0.85"/>
  <path d="M70.5078 40.5273C72.8027 40.5273 74.707 38.623 74.707 36.3281C74.707 34.0332 72.8027 32.1289 70.5078 32.1289C68.2129 32.1289 66.3086 34.0332 66.3086 36.3281C66.3086 38.623 68.2129 40.5273 70.5078 40.5273ZM86.7188 40.5273C89.0137 40.5273 90.918 38.623 90.918 36.3281C90.918 34.0332 89.0137 32.1289 86.7188 32.1289C84.4238 32.1289 82.5195 34.0332 82.5195 36.3281C82.5195 38.623 84.4238 40.5273 86.7188 40.5273ZM102.832 40.5273C105.127 40.5273 107.031 38.623 107.031 36.3281C107.031 34.0332 105.127 32.1289 102.832 32.1289C100.537 32.1289 98.6328 34.0332 98.6328 36.3281C98.6328 38.623 100.537 40.5273 102.832 40.5273Z" fill="#000000" fill-opacity="0.85"/>
 </g>
</svg>
