<?xml version="1.0" encoding="UTF-8"?>
<!--Generator: Apple Native CoreSVG 232.5-->
<!DOCTYPE svg
PUBLIC "-//W3C//DTD SVG 1.1//EN"
       "http://www.w3.org/Graphics/SVG/1.1/DTD/svg11.dtd">
<svg version="1.1" xmlns="http://www.w3.org/2000/svg" xmlns:xlink="http://www.w3.org/1999/xlink" width="146.387" height="101.025">
 <g>
  <rect height="101.025" opacity="0" width="146.387" x="0" y="0"/>
  <path d="M63.6066 63.7399C55.4952 70.7914 50.9277 79.8037 50.9277 87.8906C50.9277 90.2074 51.3966 92.4424 52.5152 94.3848L15.2344 94.3848C9.08203 94.3848 6.64062 91.9434 6.64062 87.5C6.64062 74.0234 20.4102 57.7637 42.4316 57.7637C50.7779 57.7637 57.9387 60.0993 63.6066 63.7399ZM59.4727 31.4941C59.4727 42.0898 51.5625 50.293 42.4805 50.293C33.3496 50.293 25.4395 42.0898 25.4395 31.5918C25.4395 21.1426 33.3984 13.2324 42.4805 13.2324C51.5137 13.2324 59.4727 20.9473 59.4727 31.4941Z" fill="#000000" fill-opacity="0.85"/>
  <path d="M98.6816 49.1699C109.18 49.1699 118.213 39.7949 118.213 27.5879C118.213 15.5273 109.131 6.5918 98.6816 6.5918C88.2324 6.5918 79.1504 15.7227 79.1504 27.6855C79.1504 39.7949 88.1836 49.1699 98.6816 49.1699ZM67.9688 94.3848L129.346 94.3848C137.012 94.3848 139.746 92.1875 139.746 87.8906C139.746 75.293 123.975 57.9102 98.6328 57.9102C73.3398 57.9102 57.5684 75.293 57.5684 87.8906C57.5684 92.1875 60.3027 94.3848 67.9688 94.3848Z" fill="#000000" fill-opacity="0.85"/>
 </g>
</svg>
