<?xml version="1.0" encoding="UTF-8"?>
<!--Generator: Apple Native CoreSVG 232.5-->
<!DOCTYPE svg
PUBLIC "-//W3C//DTD SVG 1.1//EN"
       "http://www.w3.org/Graphics/SVG/1.1/DTD/svg11.dtd">
<svg version="1.1" xmlns="http://www.w3.org/2000/svg" xmlns:xlink="http://www.w3.org/1999/xlink" width="115.137" height="89.8926">
 <g>
  <rect height="89.8926" opacity="0" width="115.137" x="0" y="0"/>
  <path d="M15.332 89.8926L99.8047 89.8926C110.059 89.8926 115.137 84.8633 115.137 74.8047L115.137 15.1367C115.137 5.07812 110.059 0 99.8047 0L15.332 0C5.12695 0 0 5.07812 0 15.1367L0 74.8047C0 84.8633 5.12695 89.8926 15.332 89.8926ZM15.4297 82.0312C10.5469 82.0312 7.86133 79.4434 7.86133 74.3652L7.86133 15.5762C7.86133 10.498 10.5469 7.86133 15.4297 7.86133L99.707 7.86133C104.541 7.86133 107.275 10.498 107.275 15.5762L107.275 74.3652C107.275 79.4434 104.541 82.0312 99.707 82.0312ZM24.0234 84.9609L91.2109 84.9609C88.3301 71.2402 74.5605 61.2793 57.6172 61.2793C40.625 61.2793 26.8555 71.2402 24.0234 84.9609ZM57.6172 53.125C66.9434 53.2227 74.3164 45.2637 74.3164 34.8145C74.3164 25 66.9434 16.8945 57.6172 16.8945C48.291 16.8945 40.8691 25 40.918 34.8145C40.9668 45.2637 48.291 53.0273 57.6172 53.125Z" fill="#000000" fill-opacity="0.85"/>
 </g>
</svg>
