<?xml version="1.0" encoding="UTF-8"?>
<!--Generator: Apple Native CoreSVG 232.5-->
<!DOCTYPE svg
PUBLIC "-//W3C//DTD SVG 1.1//EN"
       "http://www.w3.org/Graphics/SVG/1.1/DTD/svg11.dtd">
<svg version="1.1" xmlns="http://www.w3.org/2000/svg" xmlns:xlink="http://www.w3.org/1999/xlink" width="149.316" height="103.662">
 <g>
  <rect height="103.662" opacity="0" width="149.316" x="0" y="0"/>
  <path d="M64.6568 63.5044C62.639 65.16 60.8418 66.9429 59.2942 68.8142C54.725 66.4437 49.3529 65.0391 43.7012 65.0391C27.7344 65.0391 13.916 76.3184 13.916 88.4277C13.916 89.4043 14.4043 89.7949 15.3809 89.7949L50.709 89.7949C50.7822 92.5027 51.486 94.9604 52.8857 97.0215L16.6016 97.0215C9.96094 97.0215 6.64062 94.3359 6.64062 88.8672C6.64062 72.6562 23.2422 57.8125 43.7012 57.8125C51.4892 57.8125 58.7069 59.9532 64.6568 63.5044ZM62.0605 32.1289C62.0605 43.2129 53.8086 52.2461 43.75 52.2461C33.6914 52.2461 25.4395 43.2617 25.4395 32.2266C25.4395 21.4355 33.6914 12.5488 43.75 12.5488C53.9062 12.5488 62.0605 21.2891 62.0605 32.1289ZM32.7148 32.2266C32.7148 39.2578 37.793 44.9707 43.75 44.9707C49.7559 44.9707 54.834 39.2578 54.834 32.1289C54.834 25.2441 49.9023 19.8242 43.75 19.8242C37.7441 19.8242 32.7148 25.3418 32.7148 32.2266Z" fill="#000000" fill-opacity="0.85"/>
  <path d="M100 51.8066C111.621 51.8066 121.094 41.5039 121.094 28.9062C121.094 16.4062 111.67 6.5918 100 6.5918C88.4277 6.5918 78.9062 16.6016 78.9062 29.0039C78.9062 41.5527 88.4277 51.8066 100 51.8066ZM100 44.4336C92.8711 44.4336 86.7676 37.6465 86.7676 29.0039C86.7676 20.5078 92.7734 13.9648 100 13.9648C107.275 13.9648 113.232 20.3613 113.232 28.9062C113.232 37.5488 107.227 44.4336 100 44.4336ZM69.3359 97.0215L130.664 97.0215C138.77 97.0215 142.627 94.5801 142.627 89.209C142.627 76.416 126.465 57.9102 100 57.9102C73.4863 57.9102 57.3242 76.416 57.3242 89.209C57.3242 94.5801 61.1816 97.0215 69.3359 97.0215ZM66.9922 89.6484C65.7227 89.6484 65.1855 89.3066 65.1855 88.2812C65.1855 80.2246 77.5879 65.2832 100 65.2832C122.363 65.2832 134.766 80.2246 134.766 88.2812C134.766 89.3066 134.277 89.6484 133.008 89.6484Z" fill="#000000" fill-opacity="0.85"/>
 </g>
</svg>
