<?xml version="1.0" encoding="UTF-8"?>
<!--Generator: Apple Native CoreSVG 232.5-->
<!DOCTYPE svg
PUBLIC "-//W3C//DTD SVG 1.1//EN"
       "http://www.w3.org/Graphics/SVG/1.1/DTD/svg11.dtd">
<svg version="1.1" xmlns="http://www.w3.org/2000/svg" xmlns:xlink="http://www.w3.org/1999/xlink" width="119.531" height="87.8418">
 <g>
  <rect height="87.8418" opacity="0" width="119.531" x="0" y="0"/>
  <path d="M8.34961 87.793L73.8281 87.793C79.0527 87.793 82.1777 85.3516 82.1777 81.2988C82.1777 68.7012 66.4062 51.3184 41.0645 51.3184C15.7715 51.3184 0 68.7012 0 81.2988C0 85.3516 3.125 87.793 8.34961 87.793ZM41.1133 42.5781C51.5625 42.5781 60.6445 33.2031 60.6445 20.9961C60.6445 8.93555 51.5625 0 41.1133 0C30.6641 0 21.582 9.13086 21.582 21.0938C21.582 33.2031 30.6152 42.5781 41.1133 42.5781Z" fill="#000000" fill-opacity="0.85"/>
  <path d="M92.0898 45.459C93.75 45.459 95.0684 44.6777 96.0449 43.2129L118.359 8.05664C118.945 7.12891 119.531 6.00586 119.531 4.93164C119.531 2.7832 117.578 1.36719 115.576 1.36719C114.307 1.36719 113.086 2.09961 112.207 3.56445L91.8945 36.0352L82.2754 23.6328C81.1523 22.0703 80.0293 21.6309 78.7109 21.6309C76.5625 21.6309 74.9023 23.3398 74.9023 25.5371C74.9023 26.5625 75.3418 27.6367 76.0254 28.5645L87.9395 43.2129C89.209 44.7754 90.4785 45.459 92.0898 45.459Z" fill="#000000" fill-opacity="0.85"/>
 </g>
</svg>
