<?xml version="1.0" encoding="UTF-8"?>
<!--Generator: Apple Native CoreSVG 232.5-->
<!DOCTYPE svg
PUBLIC "-//W3C//DTD SVG 1.1//EN"
       "http://www.w3.org/Graphics/SVG/1.1/DTD/svg11.dtd">
<svg version="1.1" xmlns="http://www.w3.org/2000/svg" xmlns:xlink="http://www.w3.org/1999/xlink" width="99.6094" height="99.6582">
 <g>
  <rect height="99.6582" opacity="0" width="99.6094" x="0" y="0"/>
  <path d="M49.8047 99.6094C77.0508 99.6094 99.6094 77.002 99.6094 49.8047C99.6094 22.5586 77.002 0 49.7559 0C22.5586 0 0 22.5586 0 49.8047C0 77.002 22.6074 99.6094 49.8047 99.6094ZM49.8047 91.3086C26.7578 91.3086 8.34961 72.8516 8.34961 49.8047C8.34961 26.7578 26.709 8.30078 49.7559 8.30078C72.8027 8.30078 91.3086 26.7578 91.3086 49.8047C91.3086 72.8516 72.8516 91.3086 49.8047 91.3086Z" fill="#000000" fill-opacity="0.85"/>
  <path d="M16.9922 44.8242C16.9922 52.8809 22.7051 58.5938 30.7129 58.5938L32.373 58.5938C32.0801 57.2754 31.9336 54.8828 32.1289 53.3203L31.0547 53.3203C26.0254 53.3203 22.5586 49.9023 22.5586 44.8242C22.5586 39.7949 26.0254 36.2793 31.0547 36.2793L50.6836 36.2793C55.7129 36.2793 59.1797 39.7949 59.1797 44.8242C59.1797 49.9023 55.7617 53.3203 50.6836 53.3203L43.3594 53.3203C42.8223 54.7852 43.0176 57.1777 44.4824 58.5938L50.9766 58.5938C58.9844 58.5938 64.6973 52.8809 64.6973 44.8242C64.6973 36.7676 58.9844 31.0059 50.9766 31.0059L30.7129 31.0059C22.7051 31.0059 16.9922 36.7676 16.9922 44.8242ZM34.8145 55.1758C34.8145 63.2324 40.5273 68.9941 48.584 68.9941L68.7988 68.9941C76.8066 68.9941 82.5684 63.2324 82.5684 55.1758C82.5684 47.1191 76.8555 41.4062 68.7988 41.4062L67.1387 41.4062C67.3828 42.8223 67.6758 44.3848 67.3828 46.6797L68.5059 46.6797C73.5352 46.6797 77.002 50.1465 77.002 55.1758C77.002 60.2051 73.5352 63.7207 68.5059 63.7207L48.8281 63.7207C43.7988 63.7207 40.332 60.2051 40.332 55.1758C40.332 50.1465 43.7988 46.6797 48.8281 46.6797L56.1035 46.6797C56.7383 45.2637 56.543 42.7246 55.0293 41.4062L48.584 41.4062C40.5273 41.4062 34.8145 47.1191 34.8145 55.1758Z" fill="#000000" fill-opacity="0.85"/>
 </g>
</svg>
