<?xml version="1.0" encoding="UTF-8"?>
<!--Generator: Apple Native CoreSVG 232.5-->
<!DOCTYPE svg
PUBLIC "-//W3C//DTD SVG 1.1//EN"
       "http://www.w3.org/Graphics/SVG/1.1/DTD/svg11.dtd">
<svg version="1.1" xmlns="http://www.w3.org/2000/svg" xmlns:xlink="http://www.w3.org/1999/xlink" width="99.6094" height="99.6582">
 <g>
  <rect height="99.6582" opacity="0" width="99.6094" x="0" y="0"/>
  <path d="M99.6094 49.8047C99.6094 77.002 77.0508 99.6094 49.8047 99.6094C22.6074 99.6094 0 77.002 0 49.8047C0 22.5586 22.5586 0 49.7559 0C77.002 0 99.6094 22.5586 99.6094 49.8047ZM33.7402 62.2559C30.5664 62.2559 29.2969 63.8184 29.2969 66.6992L29.2969 73.0957L28.7598 73.0957C27.4902 73.0957 26.5137 74.1211 26.5137 75.3906C26.5137 76.6602 27.4902 77.6855 28.7598 77.6855L70.8008 77.6855C72.0703 77.6855 73.0469 76.6602 73.0469 75.3906C73.0469 74.1211 72.0703 73.0957 70.8008 73.0957L70.2637 73.0957L70.2637 66.6992C70.2637 63.8184 68.9941 62.2559 65.8203 62.2559ZM57.0801 70.0195C57.0801 70.8984 56.3477 71.6309 55.3711 71.6309L44.1895 71.6309C43.2129 71.6309 42.5781 70.8984 42.5781 70.0195C42.5781 69.0918 43.2129 68.4082 44.1895 68.4082L55.3711 68.4082C56.3477 68.4082 57.0801 69.0918 57.0801 70.0195ZM30.6152 55.9082C30.6152 57.4219 31.5918 58.4961 33.3008 58.4961L66.2109 58.4961C67.9199 58.4961 68.8965 57.4219 68.8965 55.9082C68.8965 51.416 62.4512 41.6504 49.7559 41.6504C37.0605 41.6504 30.6152 51.416 30.6152 55.9082ZM40.3809 28.0273C40.3809 33.8867 44.5801 38.2812 49.7559 38.2812C54.9805 38.3301 59.1309 33.8867 59.1309 28.0273C59.1309 22.5098 54.9805 17.9688 49.7559 17.9688C44.5801 17.9688 40.3809 22.5098 40.3809 28.0273Z" fill="#000000" fill-opacity="0.85"/>
 </g>
</svg>
