<?xml version="1.0" encoding="UTF-8"?>
<!--Generator: Apple Native CoreSVG 232.5-->
<!DOCTYPE svg
PUBLIC "-//W3C//DTD SVG 1.1//EN"
       "http://www.w3.org/Graphics/SVG/1.1/DTD/svg11.dtd">
<svg version="1.1" xmlns="http://www.w3.org/2000/svg" xmlns:xlink="http://www.w3.org/1999/xlink" width="205.078" height="101.416">
 <g>
  <rect height="101.416" opacity="0" width="205.078" x="0" y="0"/>
  <path d="M198.389 88.2812C198.389 92.334 195.264 94.7754 190.088 94.7754L148.587 94.7754C149.708 92.8709 150.293 90.6556 150.293 88.2812C150.293 79.7257 145.181 70.1344 136.144 62.9377C142.073 60.0852 149.205 58.3008 157.324 58.3008C182.666 58.3008 198.389 75.6836 198.389 88.2812ZM176.855 27.9785C176.855 40.1855 167.822 49.5605 157.373 49.5605C146.875 49.5605 137.842 40.1855 137.842 28.0762C137.842 16.1133 146.924 6.98242 157.373 6.98242C167.773 6.98242 176.855 15.918 176.855 27.9785Z" fill="#000000" fill-opacity="0.85"/>
  <path d="M143.604 88.2812C143.604 92.334 140.527 94.7754 135.303 94.7754L93.8005 94.7754C94.9228 92.8709 95.5078 90.6556 95.5078 88.2812C95.5078 79.7307 90.3884 70.1457 81.3564 62.9503C87.289 60.0902 94.4239 58.3008 102.539 58.3008C127.881 58.3008 143.604 75.6836 143.604 88.2812ZM122.07 27.9785C122.07 40.1855 113.037 49.5605 102.588 49.5605C92.0898 49.5605 83.0566 40.1855 83.0566 28.0762C83.0566 16.1133 92.1387 6.98242 102.588 6.98242C112.988 6.98242 122.07 15.918 122.07 27.9785Z" fill="#000000" fill-opacity="0.85"/>
  <path d="M47.7539 49.5605C58.252 49.5605 67.2852 40.1855 67.2852 27.9785C67.2852 15.918 58.2031 6.98242 47.7539 6.98242C37.3047 6.98242 28.2227 16.1133 28.2227 28.0762C28.2227 40.1855 37.3047 49.5605 47.7539 49.5605ZM14.9902 94.7754L80.4688 94.7754C85.6934 94.7754 88.8184 92.334 88.8184 88.2812C88.8184 75.6836 73.0469 58.3008 47.7539 58.3008C22.4121 58.3008 6.64062 75.6836 6.64062 88.2812C6.64062 92.334 9.76562 94.7754 14.9902 94.7754Z" fill="#000000" fill-opacity="0.85"/>
 </g>
</svg>
