<?xml version="1.0" encoding="UTF-8"?>
<!--Generator: Apple Native CoreSVG 232.5-->
<!DOCTYPE svg
PUBLIC "-//W3C//DTD SVG 1.1//EN"
       "http://www.w3.org/Graphics/SVG/1.1/DTD/svg11.dtd">
<svg version="1.1" xmlns="http://www.w3.org/2000/svg" xmlns:xlink="http://www.w3.org/1999/xlink" width="99.6094" height="118.594">
 <g>
  <rect height="118.594" opacity="0" width="99.6094" x="0" y="0"/>
  <path d="M59.2285 3.46203L59.2285 10.3956C82.0801 14.8878 99.6094 35.2491 99.6094 59.2726C99.6094 86.5187 77.0508 109.077 49.8047 109.077C22.6074 109.077 0 86.5187 0 59.2726C0 42.8663 8.30078 28.1202 20.8496 18.9894C22.998 17.3292 25.6836 17.8663 26.9043 19.8683C28.125 21.9191 27.4902 24.214 25.4883 25.7277C15.0879 33.1495 8.34961 45.4054 8.30078 59.2726C8.25195 82.3194 26.7578 100.776 49.8047 100.776C72.8516 100.776 91.2598 82.3194 91.2598 59.2726C91.2598 39.4972 77.6855 23.0909 59.2285 18.8917L59.2285 25.8253C59.2285 29.3409 56.8359 30.2687 54.1504 28.3155L38.623 17.378C36.3281 15.7667 36.377 13.423 38.623 11.8605L54.1992 0.971791C56.8359-0.932506 59.2285-0.00477119 59.2285 3.46203Z" fill="#000000" fill-opacity="0.85"/>
  <path d="M45.493 63.721C41.5334 67.1811 39.3066 71.5853 39.3066 75.5323C39.3066 76.5065 39.4865 77.6477 40.0628 78.7062L22.168 78.7062C19.1895 78.7062 18.0176 77.5343 18.0176 75.3859C18.0176 67.2804 26.4648 60.9327 35.4492 60.9327C39.0583 60.9327 42.5808 61.9571 45.493 63.721ZM43.7012 48.0909C43.7012 53.2667 39.8926 57.2706 35.4492 57.2706C31.0059 57.2706 27.1484 53.2667 27.1484 48.1398C27.1484 43.1105 31.0547 39.2042 35.4492 39.2042C39.8926 39.2042 43.7012 43.0128 43.7012 48.0909Z" fill="#000000" fill-opacity="0.85"/>
  <path d="M47.9004 78.7062L77.7344 78.7062C81.4941 78.7062 82.8125 77.6319 82.8125 75.5323C82.8125 69.4288 75.1465 60.9816 62.8418 60.9816C50.4883 60.9816 42.7734 69.4288 42.7734 75.5323C42.7734 77.6319 44.1406 78.7062 47.9004 78.7062ZM62.8418 56.7823C67.9688 56.7823 72.3145 52.1437 72.3145 46.1866C72.3145 40.3273 67.9199 36.0304 62.8418 36.0304C57.7148 36.0304 53.3203 40.4737 53.3203 46.2355C53.3203 52.1437 57.7148 56.7823 62.8418 56.7823Z" fill="#000000" fill-opacity="0.85"/>
 </g>
</svg>
