<?xml version="1.0" encoding="UTF-8"?>
<!--Generator: Apple Native CoreSVG 232.5-->
<!DOCTYPE svg
PUBLIC "-//W3C//DTD SVG 1.1//EN"
       "http://www.w3.org/Graphics/SVG/1.1/DTD/svg11.dtd">
<svg version="1.1" xmlns="http://www.w3.org/2000/svg" xmlns:xlink="http://www.w3.org/1999/xlink" width="99.6094" height="99.6582">
 <g>
  <rect height="99.6582" opacity="0" width="99.6094" x="0" y="0"/>
  <path d="M49.8047 99.6094C77.0508 99.6094 99.6094 77.002 99.6094 49.8047C99.6094 22.5586 77.002 0 49.7559 0C22.5586 0 0 22.5586 0 49.8047C0 77.002 22.6074 99.6094 49.8047 99.6094ZM49.8047 91.3086C26.7578 91.3086 8.34961 72.8516 8.34961 49.8047C8.34961 26.7578 26.709 8.30078 49.7559 8.30078C72.8027 8.30078 91.3086 26.7578 91.3086 49.8047C91.3086 72.8516 72.8516 91.3086 49.8047 91.3086Z" fill="#000000" fill-opacity="0.85"/>
  <path d="M49.7559 38.5742C54.834 38.623 58.8379 34.3262 58.8379 28.6133C58.8379 23.291 54.834 18.8477 49.7559 18.8477C44.7266 18.8477 40.6738 23.291 40.6738 28.6133C40.6738 34.3262 44.7266 38.5742 49.7559 38.5742ZM33.7891 58.2031L65.7227 58.2031C67.3828 58.2031 68.3105 57.1289 68.3105 55.6641C68.3105 51.3184 62.0605 41.8457 49.7559 41.8457C37.4512 41.8457 31.2012 51.3184 31.2012 55.6641C31.2012 57.1289 32.1289 58.2031 33.7891 58.2031ZM29.3945 76.8066L70.166 76.8066C71.3867 76.8066 72.3633 75.7812 72.3633 74.5605C72.3633 73.3398 71.3867 72.3633 70.166 72.3633L69.6777 72.3633L69.6777 66.1133C69.6777 63.3301 68.4082 61.8164 65.3809 61.8164L34.1797 61.8164C31.1523 61.8164 29.8828 63.3301 29.8828 66.1133L29.8828 72.3633L29.3945 72.3633C28.1738 72.3633 27.1973 73.3398 27.1973 74.5605C27.1973 75.7812 28.1738 76.8066 29.3945 76.8066ZM44.3359 70.8984C43.4082 70.8984 42.7734 70.2148 42.7734 69.3359C42.7734 68.457 43.4082 67.7734 44.3359 67.7734L55.2246 67.7734C56.1523 67.7734 56.8848 68.457 56.8848 69.3359C56.8848 70.2148 56.1523 70.8984 55.2246 70.8984Z" fill="#000000" fill-opacity="0.85"/>
 </g>
</svg>
