<?xml version="1.0" encoding="UTF-8"?>
<!--Generator: Apple Native CoreSVG 232.5-->
<!DOCTYPE svg
PUBLIC "-//W3C//DTD SVG 1.1//EN"
       "http://www.w3.org/Graphics/SVG/1.1/DTD/svg11.dtd">
<svg version="1.1" xmlns="http://www.w3.org/2000/svg" xmlns:xlink="http://www.w3.org/1999/xlink" width="99.6094" height="99.6582">
 <g>
  <rect height="99.6582" opacity="0" width="99.6094" x="0" y="0"/>
  <path d="M8.34961 49.8047C8.34961 45.3613 9.0332 41.0645 10.3027 37.1094L2.63672 33.8867C0.976562 38.916 0 44.2383 0 49.8047C0 55.3223 0.976562 60.6934 2.68555 65.7227L10.3027 62.5C9.0332 58.5449 8.34961 54.248 8.34961 49.8047ZM30.8105 12.793L27.6855 5.27344C18.0176 10.1074 10.0586 18.0664 5.22461 27.7344L12.8418 30.9082C16.748 23.1445 23.0957 16.7969 30.8105 12.793ZM49.7559 8.30078C54.1992 8.30078 58.4961 8.98438 62.5488 10.3027L65.6738 2.68555C60.6445 0.976562 55.2734 0 49.7559 0C44.2383 0 38.8184 0.976562 33.7891 2.68555L37.0117 10.3027C41.0156 8.98438 45.3125 8.30078 49.7559 8.30078ZM86.7676 30.8594L94.3359 27.7344C89.4531 18.0664 81.4941 10.1074 71.8262 5.22461L68.7012 12.793C76.416 16.748 82.8125 23.0957 86.7676 30.8594ZM91.3086 49.8047C91.3086 54.248 90.625 58.5449 89.3555 62.5488L96.9238 65.7715C98.6328 60.7422 99.6094 55.3223 99.6094 49.8047C99.6094 44.2383 98.6328 38.8672 96.9238 33.8379L89.3066 37.0605C90.625 41.0645 91.3086 45.3613 91.3086 49.8047ZM49.8047 99.6094C68.9453 99.6094 86.0352 88.3301 94.3359 71.875L86.7676 68.75C85.0586 71.9727 83.0566 74.9512 80.6641 77.5879C75.7812 71.8262 64.5508 66.4062 49.8047 66.4062C35.0586 66.4062 23.8281 71.8262 18.9453 77.5879C16.6016 74.9023 14.502 71.9727 12.8418 68.75L5.27344 71.875C13.5742 88.3301 30.6641 99.6094 49.8047 99.6094ZM49.8047 58.1055C59.1797 58.2031 66.5527 50.1953 66.5527 39.6973C66.5527 29.834 59.1797 21.6797 49.8047 21.6797C40.4297 21.6797 33.0078 29.834 33.0566 39.6973C33.1055 50.1953 40.4297 58.0078 49.8047 58.1055Z" fill="#000000" fill-opacity="0.85"/>
 </g>
</svg>
