<?xml version="1.0" encoding="UTF-8"?>
<!--Generator: Apple Native CoreSVG 232.5-->
<!DOCTYPE svg
PUBLIC "-//W3C//DTD SVG 1.1//EN"
       "http://www.w3.org/Graphics/SVG/1.1/DTD/svg11.dtd">
<svg version="1.1" xmlns="http://www.w3.org/2000/svg" xmlns:xlink="http://www.w3.org/1999/xlink" width="115.869" height="106.104">
 <g>
  <rect height="106.104" opacity="0" width="115.869" x="0" y="0"/>
  <path d="M114.6 94.9707C114.6 96.4844 113.379 97.7051 111.865 97.7051C110.4 97.7051 109.131 96.4844 109.131 94.9707C109.131 93.457 110.4 92.2363 111.865 92.2363C113.379 92.2363 114.6 93.457 114.6 94.9707ZM6.73828 94.9707C6.73828 96.4844 5.46875 97.7051 4.00391 97.7051C2.49023 97.7051 1.26953 96.4844 1.26953 94.9707C1.26953 93.457 2.49023 92.2363 4.00391 92.2363C5.46875 92.2363 6.73828 93.457 6.73828 94.9707ZM22.7654 76.0335C21.1918 77.9761 19.8822 80.0135 18.876 82.0924C16.9148 81.8426 15.3809 80.1496 15.3809 78.125C15.3809 75.9766 17.1875 74.1699 19.3848 74.1699C20.8018 74.1699 22.0565 74.9214 22.7654 76.0335ZM100.488 78.125C100.488 80.1182 99.0016 81.79 97.0838 82.0784C96.0662 79.9814 94.7406 77.9265 93.1429 75.9701C93.86 74.8933 95.094 74.1699 96.4844 74.1699C98.6816 74.1699 100.488 75.9766 100.488 78.125ZM114.6 78.125C114.6 79.6387 113.379 80.8594 111.865 80.8594C110.4 80.8594 109.131 79.6387 109.131 78.125C109.131 76.6602 110.4 75.3906 111.865 75.3906C113.379 75.3906 114.6 76.6602 114.6 78.125ZM6.73828 78.125C6.73828 79.6387 5.46875 80.8594 4.00391 80.8594C2.49023 80.8594 1.26953 79.6387 1.26953 78.125C1.26953 76.6602 2.49023 75.3906 4.00391 75.3906C5.46875 75.3906 6.73828 76.6602 6.73828 78.125ZM24.6094 61.3281C24.6094 64.1602 22.2656 66.5527 19.3848 66.5527C16.5039 66.5527 14.1602 64.1602 14.1602 61.3281C14.1602 58.4473 16.5039 56.0547 19.3848 56.0547C22.2656 56.0547 24.6094 58.4473 24.6094 61.3281ZM101.709 61.3281C101.709 64.1602 99.3652 66.5527 96.4844 66.5527C93.6035 66.5527 91.2598 64.1602 91.2598 61.3281C91.2598 58.4473 93.6035 56.0547 96.4844 56.0547C99.3652 56.0547 101.709 58.4473 101.709 61.3281ZM37.3654 56.7664C38.0916 58.0654 38.9423 59.2734 39.8994 60.3761C39.9604 60.6846 39.9902 61.0032 39.9902 61.3281C39.9902 62.2983 39.7152 63.2169 39.2326 64.0022C37.3999 64.7136 35.6876 65.558 34.0868 66.501C31.5607 66.1612 29.541 63.9301 29.541 61.3281C29.541 58.4473 31.9336 56.0547 34.7656 56.0547C35.7125 56.0547 36.6013 56.3131 37.3654 56.7664ZM86.3281 61.3281C86.3281 63.9074 84.3435 66.1222 81.8481 66.4906C80.205 65.5247 78.4448 64.6621 76.5606 63.9368C76.0955 63.166 75.8301 62.2715 75.8301 61.3281C75.8301 61.0572 75.8512 60.7907 75.8984 60.5319C76.9292 59.3659 77.8412 58.08 78.6149 56.6922C79.3588 56.2861 80.2075 56.0547 81.1035 56.0547C83.9355 56.0547 86.3281 58.4473 86.3281 61.3281ZM7.95898 61.3281C7.95898 63.4766 6.15234 65.2832 4.00391 65.2832C1.80664 65.2832 0 63.4766 0 61.3281C0 59.1309 1.80664 57.3242 4.00391 57.3242C6.15234 57.3242 7.95898 59.1309 7.95898 61.3281ZM115.869 61.3281C115.869 63.4766 114.062 65.2832 111.865 65.2832C109.668 65.2832 107.861 63.4766 107.861 61.3281C107.861 59.1309 109.668 57.3242 111.865 57.3242C114.062 57.3242 115.869 59.1309 115.869 61.3281ZM101.709 44.4824C101.709 47.3633 99.3652 49.707 96.4844 49.707C93.6035 49.707 91.2598 47.3633 91.2598 44.4824C91.2598 41.6016 93.6035 39.2578 96.4844 39.2578C99.3652 39.2578 101.709 41.6016 101.709 44.4824ZM24.6094 44.4824C24.6094 47.3633 22.2656 49.707 19.3848 49.707C16.5039 49.707 14.1602 47.3633 14.1602 44.4824C14.1602 41.6016 16.5039 39.2578 19.3848 39.2578C22.2656 39.2578 24.6094 41.6016 24.6094 44.4824ZM33.6914 43.2129C33.6914 45.4563 33.9645 47.6318 34.5038 49.6936C31.7869 49.5605 29.541 47.2735 29.541 44.4824C29.541 41.8657 31.515 39.6921 34.0011 39.3219C33.787 40.5776 33.6914 41.8806 33.6914 43.2129ZM86.3281 44.4824C86.3281 47.2458 84.1267 49.515 81.4463 49.6894C81.9963 47.6006 82.2754 45.3937 82.2754 43.1152C82.2754 41.8209 82.1866 40.5567 81.9859 39.3401C84.4162 39.761 86.3281 41.9071 86.3281 44.4824ZM115.869 44.4824C115.869 46.6797 114.062 48.4863 111.865 48.4863C109.668 48.4863 107.861 46.6797 107.861 44.4824C107.861 42.2852 109.668 40.4785 111.865 40.4785C114.062 40.4785 115.869 42.2852 115.869 44.4824ZM7.95898 44.4824C7.95898 46.6797 6.15234 48.4863 4.00391 48.4863C1.80664 48.4863 0 46.6797 0 44.4824C0 42.2852 1.80664 40.4785 4.00391 40.4785C6.15234 40.4785 7.95898 42.2852 7.95898 44.4824ZM100.488 27.6367C100.488 29.834 98.6816 31.6406 96.4844 31.6406C94.2871 31.6406 92.4805 29.834 92.4805 27.6367C92.4805 25.4883 94.2871 23.6816 96.4844 23.6816C98.6816 23.6816 100.488 25.4883 100.488 27.6367ZM85.0586 27.6367C85.0586 29.834 83.252 31.6406 81.1035 31.6406C80.5407 31.6406 80.0036 31.5221 79.5167 31.3074C78.8458 29.914 78.0388 28.6153 77.1105 27.4278C77.2184 25.3718 78.9783 23.6816 81.1035 23.6816C83.252 23.6816 85.0586 25.4883 85.0586 27.6367ZM38.7695 27.6367L38.7691 27.6461C37.9219 28.7458 37.1812 29.9408 36.5509 31.2112C36.0138 31.487 35.4063 31.6406 34.7656 31.6406C32.6172 31.6406 30.8105 29.834 30.8105 27.6367C30.8105 25.4883 32.6172 23.6816 34.7656 23.6816C36.9629 23.6816 38.7695 25.4883 38.7695 27.6367ZM23.3887 27.6367C23.3887 29.834 21.582 31.6406 19.3848 31.6406C17.1875 31.6406 15.3809 29.834 15.3809 27.6367C15.3809 25.4883 17.1875 23.6816 19.3848 23.6816C21.582 23.6816 23.3887 25.4883 23.3887 27.6367ZM114.6 27.6367C114.6 29.1504 113.379 30.4199 111.865 30.4199C110.4 30.4199 109.131 29.1504 109.131 27.6367C109.131 26.1719 110.4 24.9023 111.865 24.9023C113.379 24.9023 114.6 26.1719 114.6 27.6367ZM6.73828 27.6367C6.73828 29.1504 5.46875 30.4199 4.00391 30.4199C2.49023 30.4199 1.26953 29.1504 1.26953 27.6367C1.26953 26.1719 2.49023 24.9023 4.00391 24.9023C5.46875 24.9023 6.73828 26.1719 6.73828 27.6367ZM69.6289 10.8398C69.6289 12.9883 67.8223 14.7949 65.625 14.7949C63.4277 14.7949 61.6211 12.9883 61.6211 10.8398C61.6211 8.64258 63.4277 6.83594 65.625 6.83594C67.8223 6.83594 69.6289 8.64258 69.6289 10.8398ZM54.1992 10.8398C54.1992 12.9883 52.3926 14.7949 50.2441 14.7949C48.0469 14.7949 46.2402 12.9883 46.2402 10.8398C46.2402 8.64258 48.0469 6.83594 50.2441 6.83594C52.3926 6.83594 54.1992 8.64258 54.1992 10.8398ZM114.6 10.8398C114.6 12.3047 113.379 13.5742 111.865 13.5742C110.4 13.5742 109.131 12.3047 109.131 10.8398C109.131 9.32617 110.4 8.10547 111.865 8.10547C113.379 8.10547 114.6 9.32617 114.6 10.8398ZM99.2188 10.8398C99.2188 12.3047 97.998 13.5742 96.4844 13.5742C94.9707 13.5742 93.75 12.3047 93.75 10.8398C93.75 9.32617 94.9707 8.10547 96.4844 8.10547C97.998 8.10547 99.2188 9.32617 99.2188 10.8398ZM83.8379 10.8398C83.8379 12.3047 82.5684 13.5742 81.1035 13.5742C79.5898 13.5742 78.3203 12.3047 78.3203 10.8398C78.3203 9.32617 79.5898 8.10547 81.1035 8.10547C82.5684 8.10547 83.8379 9.32617 83.8379 10.8398ZM37.5 10.8398C37.5 12.3047 36.2793 13.5742 34.7656 13.5742C33.3008 13.5742 32.0312 12.3047 32.0312 10.8398C32.0312 9.32617 33.3008 8.10547 34.7656 8.10547C36.2793 8.10547 37.5 9.32617 37.5 10.8398ZM22.1191 10.8398C22.1191 12.3047 20.8984 13.5742 19.3848 13.5742C17.8711 13.5742 16.6504 12.3047 16.6504 10.8398C16.6504 9.32617 17.8711 8.10547 19.3848 8.10547C20.8984 8.10547 22.1191 9.32617 22.1191 10.8398ZM6.73828 10.8398C6.73828 12.3047 5.46875 13.5742 4.00391 13.5742C2.49023 13.5742 1.26953 12.3047 1.26953 10.8398C1.26953 9.32617 2.49023 8.10547 4.00391 8.10547C5.46875 8.10547 6.73828 9.32617 6.73828 10.8398Z" fill="#000000" fill-opacity="0.425"/>
  <path d="M57.959 61.6699C66.8945 61.6699 74.8047 53.5156 74.8047 43.1152C74.8047 32.7148 66.8945 25.1465 57.959 25.1465C49.0723 25.1465 41.1621 32.9102 41.1621 43.2129C41.1621 53.5156 49.0723 61.6699 57.959 61.6699ZM32.959 98.6328L82.959 98.6328C90.1855 98.6328 92.3828 96.582 92.3828 92.9688C92.3828 82.4219 79.248 67.8711 57.959 67.8711C36.7188 67.8711 23.584 82.4219 23.584 92.9688C23.584 96.582 25.7324 98.6328 32.959 98.6328Z" fill="#000000" fill-opacity="0.85"/>
 </g>
</svg>
