<?xml version="1.0" encoding="UTF-8"?>
<!--Generator: Apple Native CoreSVG 232.5-->
<!DOCTYPE svg
PUBLIC "-//W3C//DTD SVG 1.1//EN"
       "http://www.w3.org/Graphics/SVG/1.1/DTD/svg11.dtd">
<svg version="1.1" xmlns="http://www.w3.org/2000/svg" xmlns:xlink="http://www.w3.org/1999/xlink" width="128.271" height="90.4785">
 <g>
  <rect height="90.4785" opacity="0" width="128.271" x="0" y="0"/>
  <path d="M33.4961 90.4297L94.8242 90.4297C102.93 90.4297 106.787 87.9883 106.787 82.6172C106.787 69.8242 90.625 51.3184 64.1602 51.3184C37.6465 51.3184 21.4844 69.8242 21.4844 82.6172C21.4844 87.9883 25.3418 90.4297 33.4961 90.4297ZM31.1523 83.0566C29.8828 83.0566 29.3457 82.7148 29.3457 81.6895C29.3457 73.6328 41.748 58.6914 64.1602 58.6914C86.5234 58.6914 98.9258 73.6328 98.9258 81.6895C98.9258 82.7148 98.4375 83.0566 97.168 83.0566ZM64.1602 45.2148C75.7812 45.2148 85.2539 34.9121 85.2539 22.3145C85.2539 9.81445 75.8301 0 64.1602 0C52.5879 0 43.0664 10.0098 43.0664 22.4121C43.0664 34.9609 52.5879 45.2148 64.1602 45.2148ZM64.1602 37.8418C57.0312 37.8418 50.9277 31.0547 50.9277 22.4121C50.9277 13.916 56.9336 7.37305 64.1602 7.37305C71.4355 7.37305 77.3926 13.7695 77.3926 22.3145C77.3926 30.957 71.3867 37.8418 64.1602 37.8418Z" fill="#000000" fill-opacity="0.85"/>
  <path d="M1.31836 24.9512L14.4043 34.668C17.1387 36.7188 20.3613 35.498 20.3613 32.1289L20.3613 26.123L32.959 26.123C35.1074 26.123 36.8164 24.4629 36.8164 22.3145C36.8164 20.2148 35.1074 18.5059 32.959 18.5059L20.3613 18.5059L20.3613 12.5977C20.3613 9.08203 17.041 8.05664 14.4043 10.0098L1.31836 19.7754C-0.439453 21.1426-0.439453 23.6328 1.31836 24.9512ZM91.4551 22.3145C91.4551 24.4629 93.1152 26.123 95.2637 26.123L107.861 26.123L107.861 32.1289C107.861 35.498 111.133 36.7188 113.818 34.668L126.904 24.9512C128.711 23.6328 128.711 21.1426 126.904 19.7754L113.818 10.0098C111.23 8.05664 107.861 9.08203 107.861 12.5977L107.861 18.5059L95.2637 18.5059C93.1152 18.5059 91.4551 20.2148 91.4551 22.3145Z" fill="#000000" fill-opacity="0.85"/>
 </g>
</svg>
