<?xml version="1.0" encoding="UTF-8"?>
<!--Generator: Apple Native CoreSVG 232.5-->
<!DOCTYPE svg
PUBLIC "-//W3C//DTD SVG 1.1//EN"
       "http://www.w3.org/Graphics/SVG/1.1/DTD/svg11.dtd">
<svg version="1.1" xmlns="http://www.w3.org/2000/svg" xmlns:xlink="http://www.w3.org/1999/xlink" width="115.137" height="89.8926">
 <g>
  <rect height="89.8926" opacity="0" width="115.137" x="0" y="0"/>
  <path d="M115.137 15.1367L115.137 74.8047C115.137 84.8633 110.059 89.8926 99.8047 89.8926L15.332 89.8926C5.12695 89.8926 0 84.8633 0 74.8047L0 15.1367C0 5.07812 5.12695 0 15.332 0L99.8047 0C110.059 0 115.137 5.07812 115.137 15.1367ZM15.8203 64.8926C15.8203 66.3574 16.6016 67.4316 18.2129 67.4316L56.3477 67.4316C57.959 67.4316 58.7402 66.3574 58.7402 64.8926C58.7402 60.3027 51.8555 48.4863 37.2559 48.4863C22.6562 48.4863 15.8203 60.3027 15.8203 64.8926ZM69.0918 61.084C67.334 61.084 66.0156 62.4512 66.0156 64.1602C66.0156 65.8203 67.334 67.0898 69.0918 67.0898L95.752 67.0898C97.4609 67.0898 98.7793 65.8203 98.7793 64.1602C98.7793 62.4512 97.4609 61.084 95.752 61.084ZM69.0918 41.9922C67.334 41.9922 66.0156 43.2617 66.0156 44.9219C66.0156 46.6309 67.334 47.998 69.0918 47.998L95.752 47.998C97.4609 47.998 98.7793 46.6309 98.7793 44.9219C98.7793 43.2617 97.4609 41.9922 95.752 41.9922ZM26.5625 33.3984C26.5625 40.0879 31.3477 45.0684 37.2559 45.0684C43.2129 45.1172 47.9492 40.0879 47.9492 33.3984C47.9492 27.1484 43.2129 21.9727 37.2559 21.9727C31.3477 21.9727 26.5625 27.1484 26.5625 33.3984ZM69.0918 22.8516C67.334 22.8516 66.0156 24.1699 66.0156 25.8301C66.0156 27.5391 67.334 28.8574 69.0918 28.8574L95.752 28.8574C97.4609 28.8574 98.7793 27.5391 98.7793 25.8301C98.7793 24.1699 97.4609 22.8516 95.752 22.8516Z" fill="#000000" fill-opacity="0.85"/>
 </g>
</svg>
