<?xml version="1.0" encoding="UTF-8"?>
<!--Generator: Apple Native CoreSVG 232.5-->
<!DOCTYPE svg
PUBLIC "-//W3C//DTD SVG 1.1//EN"
       "http://www.w3.org/Graphics/SVG/1.1/DTD/svg11.dtd">
<svg version="1.1" xmlns="http://www.w3.org/2000/svg" xmlns:xlink="http://www.w3.org/1999/xlink" width="172.803" height="115.705">
 <g>
  <rect height="115.705" opacity="0" width="172.803" x="0" y="0"/>
  <path d="M162.891 1.7732C169.189 10.2693 172.803 22.1834 172.803 34.2439C172.803 46.3045 169.141 58.1209 162.891 66.7146C161.572 68.5701 159.326 69.0095 157.52 67.7888C155.762 66.5681 155.469 64.2732 156.836 62.2712C162.109 54.6541 165.234 44.6443 165.234 34.2439C165.234 23.8435 162.207 13.7361 156.836 6.21656C155.42 4.21461 155.762 1.91969 157.52 0.698982C159.326-0.521721 161.572-0.131096 162.891 1.7732Z" fill="#000000" fill-opacity="0.85"/>
  <path d="M144.678 14.5173C148.438 19.5466 150.684 26.7732 150.684 34.2439C150.684 41.7146 148.438 48.99 144.678 53.9216C143.359 55.8259 141.064 56.1677 139.453 55.0447C137.451 53.6287 137.207 51.2849 138.672 49.2341C141.455 45.2791 143.115 39.908 143.115 34.2439C143.115 28.5798 141.504 23.1599 138.672 19.2537C137.158 17.2517 137.451 14.8103 139.453 13.4431C141.064 12.2712 143.359 12.6619 144.678 14.5173Z" fill="#000000" fill-opacity="0.85"/>
  <path d="M67.9771 69.5257C65.9594 71.1812 64.1621 72.9641 62.6145 74.8355C58.0453 72.4649 52.6732 71.0603 47.0215 71.0603C31.0547 71.0603 17.2363 82.3396 17.2363 94.449C17.2363 95.4255 17.7246 95.8162 18.7012 95.8162L54.0293 95.8162C54.1025 98.524 54.8063 100.982 56.206 103.043L19.9219 103.043C13.2812 103.043 9.96094 100.357 9.96094 94.8884C9.96094 78.6775 26.5625 63.8337 47.0215 63.8337C54.8095 63.8337 62.0272 65.9745 67.9771 69.5257ZM65.3809 38.1502C65.3809 49.2341 57.1289 58.2673 47.0703 58.2673C37.0117 58.2673 28.7598 49.283 28.7598 38.2478C28.7598 27.4568 37.0117 18.5701 47.0703 18.5701C57.2266 18.5701 65.3809 27.3103 65.3809 38.1502ZM36.0352 38.2478C36.0352 45.2791 41.1133 50.992 47.0703 50.992C53.0762 50.992 58.1543 45.2791 58.1543 38.1502C58.1543 31.2654 53.2227 25.8455 47.0703 25.8455C41.0645 25.8455 36.0352 31.363 36.0352 38.2478Z" fill="#000000" fill-opacity="0.85"/>
  <path d="M103.32 57.8279C114.941 57.8279 124.414 47.5252 124.414 34.9275C124.414 22.4275 114.99 12.613 103.32 12.613C91.748 12.613 82.2266 22.6228 82.2266 35.0252C82.2266 47.574 91.748 57.8279 103.32 57.8279ZM103.32 50.4548C96.1914 50.4548 90.0879 43.6677 90.0879 35.0252C90.0879 26.5291 96.0938 19.9861 103.32 19.9861C110.596 19.9861 116.553 26.3826 116.553 34.9275C116.553 43.5701 110.547 50.4548 103.32 50.4548ZM72.6562 103.043L133.984 103.043C142.09 103.043 145.947 100.601 145.947 95.2302C145.947 82.4373 129.785 63.9314 103.32 63.9314C76.8066 63.9314 60.6445 82.4373 60.6445 95.2302C60.6445 100.601 64.502 103.043 72.6562 103.043ZM70.3125 95.6697C69.043 95.6697 68.5059 95.3279 68.5059 94.3025C68.5059 86.2459 80.9082 71.3045 103.32 71.3045C125.684 71.3045 138.086 86.2459 138.086 94.3025C138.086 95.3279 137.598 95.6697 136.328 95.6697Z" fill="#000000" fill-opacity="0.85"/>
 </g>
</svg>
