<?xml version="1.0" encoding="UTF-8"?>
<!--Generator: Apple Native CoreSVG 232.5-->
<!DOCTYPE svg
PUBLIC "-//W3C//DTD SVG 1.1//EN"
       "http://www.w3.org/Graphics/SVG/1.1/DTD/svg11.dtd">
<svg version="1.1" xmlns="http://www.w3.org/2000/svg" xmlns:xlink="http://www.w3.org/1999/xlink" width="99.6094" height="99.6582">
 <g>
  <rect height="99.6582" opacity="0" width="99.6094" x="0" y="0"/>
  <path d="M99.6094 49.8535C99.6094 77.0996 77.0508 99.6582 49.8047 99.6582C22.6074 99.6582 0 77.0996 0 49.8535C0 22.6562 22.5586 0.0488281 49.7559 0.0488281C77.002 0.0488281 99.6094 22.6562 99.6094 49.8535ZM23.8281 72.2656C23.8281 74.1211 24.7559 75.4395 26.8066 75.4395L72.8027 75.4395C74.8535 75.4395 75.7812 74.1211 75.7812 72.2656C75.7812 66.7969 67.4805 52.4902 49.8047 52.4902C32.1289 52.4902 23.8281 66.7969 23.8281 72.2656ZM36.8652 34.1797C36.8652 42.2852 42.6758 48.291 49.8047 48.3398C56.9336 48.3887 62.7441 42.2852 62.7441 34.1797C62.7441 26.6602 56.9336 20.4102 49.8047 20.4102C42.6758 20.4102 36.8652 26.6602 36.8652 34.1797Z" fill="#000000" fill-opacity="0.85"/>
 </g>
</svg>
