<?xml version="1.0" encoding="UTF-8"?>
<!--Generator: Apple Native CoreSVG 232.5-->
<!DOCTYPE svg
PUBLIC "-//W3C//DTD SVG 1.1//EN"
       "http://www.w3.org/Graphics/SVG/1.1/DTD/svg11.dtd">
<svg version="1.1" xmlns="http://www.w3.org/2000/svg" xmlns:xlink="http://www.w3.org/1999/xlink" width="128.271" height="87.8418">
 <g>
  <rect height="87.8418" opacity="0" width="128.271" x="0" y="0"/>
  <path d="M31.3965 87.793L96.875 87.793C102.1 87.793 105.225 85.3516 105.225 81.2988C105.225 68.7012 89.4531 51.3184 64.1602 51.3184C38.8184 51.3184 23.0469 68.7012 23.0469 81.2988C23.0469 85.3516 26.1719 87.793 31.3965 87.793ZM64.1602 42.5781C74.6582 42.5781 83.6914 33.2031 83.6914 20.9961C83.6914 8.93555 74.6094 0 64.1602 0C53.7598 0 44.6289 9.13086 44.6289 21.0938C44.6289 33.2031 53.7109 42.5781 64.1602 42.5781Z" fill="#000000" fill-opacity="0.85"/>
  <path d="M1.31836 23.7305L14.4043 33.4473C17.1387 35.498 20.3613 34.2773 20.3613 30.9082L20.3613 24.9023L32.959 24.9023C35.1074 24.9023 36.8164 23.2422 36.8164 21.0938C36.8164 18.9941 35.1074 17.2852 32.959 17.2852L20.3613 17.2852L20.3613 11.377C20.3613 7.86133 17.041 6.83594 14.4043 8.78906L1.31836 18.5547C-0.439453 19.9219-0.439453 22.4121 1.31836 23.7305ZM91.4551 21.0938C91.4551 23.2422 93.1152 24.9023 95.2637 24.9023L107.861 24.9023L107.861 30.9082C107.861 34.2773 111.133 35.498 113.818 33.4473L126.904 23.7305C128.711 22.4121 128.711 19.9219 126.904 18.5547L113.818 8.78906C111.23 6.83594 107.861 7.86133 107.861 11.377L107.861 17.2852L95.2637 17.2852C93.1152 17.2852 91.4551 18.9941 91.4551 21.0938Z" fill="#000000" fill-opacity="0.85"/>
 </g>
</svg>
