<?xml version="1.0" encoding="UTF-8"?>
<!--Generator: Apple Native CoreSVG 232.5-->
<!DOCTYPE svg
PUBLIC "-//W3C//DTD SVG 1.1//EN"
       "http://www.w3.org/Graphics/SVG/1.1/DTD/svg11.dtd">
<svg version="1.1" xmlns="http://www.w3.org/2000/svg" xmlns:xlink="http://www.w3.org/1999/xlink" width="149.316" height="130.518">
 <g>
  <rect height="130.518" opacity="0" width="149.316" x="0" y="0"/>
  <path d="M64.6568 76.9323C62.639 78.5878 60.8418 80.3707 59.2942 82.2421C54.725 79.8715 49.3529 78.4669 43.7012 78.4669C27.7344 78.4669 13.916 89.7462 13.916 101.856C13.916 102.832 14.4043 103.223 15.3809 103.223L50.709 103.223C50.7822 105.931 51.486 108.388 52.8857 110.449L16.6016 110.449C9.96094 110.449 6.64062 107.764 6.64062 102.295C6.64062 86.0841 23.2422 71.2404 43.7012 71.2404C51.4892 71.2404 58.7069 73.3811 64.6568 76.9323ZM36.3284 36.5182C34.115 38.7697 32.7148 42.0217 32.7148 45.6544C32.7148 52.6857 37.793 58.3986 43.75 58.3986C47.4255 58.3986 50.7536 56.2589 52.7763 52.9584L57.9838 58.1634C54.6246 62.742 49.4805 65.6739 43.75 65.6739C33.6914 65.6739 25.4395 56.6896 25.4395 45.6544C25.4395 40.0616 27.6561 34.9802 31.2039 31.3961Z" fill="#000000" fill-opacity="0.85"/>
  <path d="M82.1797 82.3478C71.1113 87.2817 65.1855 96.1401 65.1855 101.709C65.1855 102.734 65.7227 103.076 66.9922 103.076L102.918 103.076L110.295 110.449L69.3359 110.449C61.1816 110.449 57.3242 108.008 57.3242 102.637C57.3242 94.2155 64.3278 83.3185 76.7135 76.8842ZM142.627 102.637C142.627 106.48 140.652 108.823 136.547 109.838L129.785 103.076L133.008 103.076C134.277 103.076 134.766 102.734 134.766 101.709C134.766 94.3835 124.512 81.3659 105.81 79.1013L98.1283 71.4194C98.7266 71.3488 99.3603 71.338 100 71.338C126.465 71.338 142.627 89.8439 142.627 102.637ZM121.094 42.3341C121.094 54.9318 111.621 65.2345 100 65.2345C95.1871 65.2345 90.7289 63.4608 87.1764 60.4675L84.3963 57.6875C80.9843 53.6558 78.9062 48.2942 78.9062 42.4318C78.9062 30.0294 88.4277 20.0197 100 20.0197C111.67 20.0197 121.094 29.8341 121.094 42.3341ZM86.7676 42.4318C86.7676 51.0743 92.8711 57.8614 100 57.8614C107.227 57.8614 113.232 50.9767 113.232 42.3341C113.232 33.7892 107.275 27.3927 100 27.3927C92.7734 27.3927 86.7676 33.9357 86.7676 42.4318Z" fill="#000000" fill-opacity="0.85"/>
  <path d="M131.689 123.731C133.154 125.195 135.596 125.195 137.012 123.731C138.428 122.217 138.525 119.922 137.012 118.408L33.9355 15.3322C32.4219 13.8185 30.0781 13.8673 28.5645 15.3322C27.1484 16.7482 27.1484 19.2384 28.5645 20.6544Z" fill="#000000" fill-opacity="0.85"/>
 </g>
</svg>
