<?xml version="1.0" encoding="UTF-8"?>
<!--Generator: Apple Native CoreSVG 232.5-->
<!DOCTYPE svg
PUBLIC "-//W3C//DTD SVG 1.1//EN"
       "http://www.w3.org/Graphics/SVG/1.1/DTD/svg11.dtd">
<svg version="1.1" xmlns="http://www.w3.org/2000/svg" xmlns:xlink="http://www.w3.org/1999/xlink" width="120.605" height="115.705">
 <g>
  <rect height="115.705" opacity="0" width="120.605" x="0" y="0"/>
  <path d="M105.322 67.7888C107.129 69.0095 109.375 68.5701 110.693 66.7146C116.943 58.1209 120.605 46.3045 120.605 34.2439C120.605 22.1834 116.992 10.2693 110.693 1.7732C109.375-0.131096 107.129-0.521721 105.322 0.698982C103.516 1.91969 103.223 4.21461 104.639 6.21656C110.01 13.7361 113.037 23.8435 113.037 34.2439C113.037 44.6443 109.912 54.6541 104.639 62.2712C103.271 64.2732 103.516 66.5681 105.322 67.7888Z" fill="#000000" fill-opacity="0.85"/>
  <path d="M87.2559 55.0447C88.8672 56.1677 91.1621 55.8259 92.4805 53.9216C96.2402 48.99 98.4863 41.7146 98.4863 34.2439C98.4863 26.7732 96.2402 19.5466 92.4805 14.5173C91.1621 12.6619 88.8672 12.2712 87.2559 13.4431C85.2539 14.8103 84.9609 17.2517 86.4746 19.2537C89.3066 23.1599 90.918 28.5798 90.918 34.2439C90.918 39.908 89.2578 45.2791 86.4746 49.2341C85.0098 51.2849 85.2539 53.6287 87.2559 55.0447Z" fill="#000000" fill-opacity="0.85"/>
  <path d="M20.4102 101.724L81.7383 101.724C89.4043 101.724 92.1387 99.5271 92.1387 95.2302C92.1387 82.6326 76.3672 65.2498 51.0742 65.2498C25.7324 65.2498 9.96094 82.6326 9.96094 95.2302C9.96094 99.5271 12.6953 101.724 20.4102 101.724ZM51.0742 56.5095C61.5723 56.5095 70.6055 47.1345 70.6055 34.9275C70.6055 22.867 61.5234 13.9314 51.0742 13.9314C40.625 13.9314 31.543 23.0623 31.543 35.0252C31.543 47.1345 40.625 56.5095 51.0742 56.5095Z" fill="#000000" fill-opacity="0.85"/>
 </g>
</svg>
