<?xml version="1.0" encoding="UTF-8"?>
<!--Generator: Apple Native CoreSVG 232.5-->
<!DOCTYPE svg
PUBLIC "-//W3C//DTD SVG 1.1//EN"
       "http://www.w3.org/Graphics/SVG/1.1/DTD/svg11.dtd">
<svg version="1.1" xmlns="http://www.w3.org/2000/svg" xmlns:xlink="http://www.w3.org/1999/xlink" width="82.1289" height="104.736">
 <g>
  <rect height="104.736" opacity="0" width="82.1289" x="0" y="0"/>
  <path d="M0 100.83C0 103.174 1.5625 104.688 3.90625 104.688L78.2227 104.688C80.5664 104.688 82.1289 103.174 82.1289 100.83L82.1289 3.90625C82.1289 1.5625 80.5664 0 78.2227 0L3.90625 0C1.5625 0 0 1.5625 0 3.90625ZM7.86133 95.4102L7.86133 9.32617C7.86133 8.25195 8.25195 7.86133 9.27734 7.86133L72.8516 7.86133C73.877 7.86133 74.2676 8.25195 74.2676 9.32617L74.2676 95.4102C74.2676 96.4844 73.877 96.8262 72.8516 96.8262L9.27734 96.8262C8.25195 96.8262 7.86133 96.4844 7.86133 95.4102Z" fill="#000000" fill-opacity="0.85"/>
  <path d="M13.1348 88.7207C13.1348 90.5273 14.1602 91.6016 15.9668 91.6016L66.1621 91.6016C67.9688 91.6016 68.9941 90.5273 68.9941 88.7207L68.9941 16.0156C68.9941 14.209 67.9688 13.1348 66.1621 13.1348L15.9668 13.1348C14.1602 13.1348 13.1348 14.209 13.1348 16.0156ZM18.0664 85.5469L18.0664 19.1895C18.0664 18.457 18.4082 18.0664 19.1406 18.0664L62.9883 18.0664C63.7207 18.0664 64.0625 18.457 64.0625 19.1895L64.0625 85.5469C64.0625 86.2793 63.7207 86.6699 62.9883 86.6699L19.1406 86.6699C18.4082 86.6699 18.0664 86.2793 18.0664 85.5469ZM17.8711 88.8672L64.1602 88.8672C66.1621 88.8672 67.0898 87.5977 67.0898 85.7422C67.0898 80.2246 58.7891 65.8203 41.0156 65.8203C23.291 65.8203 14.9414 80.2246 14.9414 85.7422C14.9414 87.5977 15.8691 88.8672 17.8711 88.8672ZM41.0156 61.6699C48.2422 61.7188 54.0039 55.6152 54.0039 47.5098C54.0039 39.8926 48.2422 33.5938 41.0156 33.5938C33.8379 33.5938 28.0273 39.8926 28.0273 47.5098C28.0273 55.6152 33.8379 61.6211 41.0156 61.6699Z" fill="#000000" fill-opacity="0.85"/>
 </g>
</svg>
