<?xml version="1.0" encoding="UTF-8"?>
<!--Generator: Apple Native CoreSVG 232.5-->
<!DOCTYPE svg
PUBLIC "-//W3C//DTD SVG 1.1//EN"
       "http://www.w3.org/Graphics/SVG/1.1/DTD/svg11.dtd">
<svg version="1.1" xmlns="http://www.w3.org/2000/svg" xmlns:xlink="http://www.w3.org/1999/xlink" width="122.119" height="115.705">
 <g>
  <rect height="115.705" opacity="0" width="122.119" x="0" y="0"/>
  <path d="M106.836 67.7888C108.643 69.0095 110.889 68.5701 112.207 66.7146C118.457 58.1209 122.119 46.3045 122.119 34.2439C122.119 22.1834 118.506 10.2693 112.207 1.7732C110.889-0.131096 108.643-0.521721 106.836 0.698982C105.078 1.91969 104.736 4.21461 106.201 6.21656C111.523 13.7361 114.551 23.8435 114.551 34.2439C114.551 44.6443 111.426 54.6541 106.201 62.2712C104.785 64.2732 105.078 66.5681 106.836 67.7888Z" fill="#000000" fill-opacity="0.85"/>
  <path d="M88.7695 55.0447C90.3809 56.1677 92.7246 55.8259 93.9941 53.9216C97.7539 48.99 100 41.7146 100 34.2439C100 26.7732 97.7539 19.5466 93.9941 14.5173C92.7246 12.6619 90.3809 12.2712 88.7695 13.4431C86.7676 14.8103 86.4746 17.2517 87.9883 19.2537C90.8691 23.1599 92.4316 28.5798 92.4316 34.2439C92.4316 39.908 90.8203 45.2791 87.9883 49.2341C86.5234 51.2849 86.7676 53.6287 88.7695 55.0447Z" fill="#000000" fill-opacity="0.85"/>
  <path d="M21.9727 103.043L83.3008 103.043C91.4062 103.043 95.2637 100.601 95.2637 95.2302C95.2637 82.4373 79.1504 63.9314 52.6367 63.9314C26.123 63.9314 9.96094 82.4373 9.96094 95.2302C9.96094 100.601 13.8184 103.043 21.9727 103.043ZM19.6289 95.6697C18.3594 95.6697 17.8223 95.3279 17.8223 94.3025C17.8223 86.2459 30.2246 71.3045 52.6367 71.3045C75.0488 71.3045 87.4023 86.2459 87.4023 94.3025C87.4023 95.3279 86.9141 95.6697 85.6445 95.6697ZM52.6367 57.8279C64.2578 57.8279 73.7305 47.5252 73.7305 34.9275C73.7305 22.4275 64.3555 12.613 52.6367 12.613C41.0645 12.613 31.543 22.6228 31.543 35.0252C31.5918 47.574 41.0645 57.8279 52.6367 57.8279ZM52.6367 50.4548C45.5078 50.4548 39.4043 43.6677 39.4043 35.0252C39.4043 26.5291 45.4102 19.9861 52.6367 19.9861C59.9609 19.9861 65.8691 26.3826 65.8691 34.9275C65.8691 43.5701 59.8633 50.4548 52.6367 50.4548Z" fill="#000000" fill-opacity="0.85"/>
 </g>
</svg>
