<?xml version="1.0" encoding="UTF-8"?>
<!--Generator: Apple Native CoreSVG 232.5-->
<!DOCTYPE svg
PUBLIC "-//W3C//DTD SVG 1.1//EN"
       "http://www.w3.org/Graphics/SVG/1.1/DTD/svg11.dtd">
<svg version="1.1" xmlns="http://www.w3.org/2000/svg" xmlns:xlink="http://www.w3.org/1999/xlink" width="95.6055" height="95.6543">
 <g>
  <rect height="95.6543" opacity="0" width="95.6055" x="0" y="0"/>
  <path d="M3.90625 31.1523C6.49414 31.1523 7.86133 29.6875 7.86133 27.1484L7.86133 15.625C7.86133 10.5469 10.5469 7.95898 15.4297 7.95898L27.2461 7.95898C29.834 7.95898 31.25 6.54297 31.25 4.00391C31.25 1.46484 29.834 0.0976562 27.2461 0.0976562L15.332 0.0976562C5.12695 0.0976562 0 5.12695 0 15.1855L0 27.1484C0 29.6875 1.41602 31.1523 3.90625 31.1523ZM91.6504 31.1523C94.2383 31.1523 95.6055 29.6875 95.6055 27.1484L95.6055 15.1855C95.6055 5.12695 90.4785 0.0976562 80.2734 0.0976562L68.3105 0.0976562C65.7715 0.0976562 64.3555 1.46484 64.3555 4.00391C64.3555 6.54297 65.7715 7.95898 68.3105 7.95898L80.127 7.95898C84.9609 7.95898 87.7441 10.5469 87.7441 15.625L87.7441 27.1484C87.7441 29.6875 89.1602 31.1523 91.6504 31.1523ZM15.332 95.6543L27.2461 95.6543C29.834 95.6543 31.25 94.2383 31.25 91.748C31.25 89.209 29.834 87.793 27.2461 87.793L15.4297 87.793C10.5469 87.793 7.86133 85.2051 7.86133 80.127L7.86133 68.6035C7.86133 66.0156 6.44531 64.5996 3.90625 64.5996C1.36719 64.5996 0 66.0156 0 68.6035L0 80.5176C0 90.625 5.12695 95.6543 15.332 95.6543ZM68.3105 95.6543L80.2734 95.6543C90.4785 95.6543 95.6055 90.5762 95.6055 80.5176L95.6055 68.6035C95.6055 66.0156 94.1895 64.5996 91.6504 64.5996C89.1113 64.5996 87.7441 66.0156 87.7441 68.6035L87.7441 80.127C87.7441 85.2051 84.9609 87.793 80.127 87.793L68.3105 87.793C65.7715 87.793 64.3555 89.209 64.3555 91.748C64.3555 94.2383 65.7715 95.6543 68.3105 95.6543Z" fill="#000000" fill-opacity="0.85"/>
  <path d="M23.2422 76.5625L72.3633 76.5625C74.4629 76.5625 75.5371 75.1465 75.5371 73.1445C75.5371 67.2852 66.6504 52.0508 47.8027 52.0508C28.9551 52.0508 20.0684 67.2852 20.0684 73.1445C20.0684 75.1465 21.1426 76.5625 23.2422 76.5625ZM47.8027 47.6562C55.4688 47.7051 61.5723 41.2109 61.5723 32.5684C61.5723 24.5117 55.4688 17.8223 47.8027 17.8223C40.1367 17.8223 34.0332 24.5117 34.0332 32.5684C34.0332 41.2109 40.1367 47.6074 47.8027 47.6562Z" fill="#000000" fill-opacity="0.85"/>
 </g>
</svg>
