<?xml version="1.0" encoding="UTF-8"?>
<!--Generator: Apple Native CoreSVG 232.5-->
<!DOCTYPE svg
PUBLIC "-//W3C//DTD SVG 1.1//EN"
       "http://www.w3.org/Graphics/SVG/1.1/DTD/svg11.dtd">
<svg version="1.1" xmlns="http://www.w3.org/2000/svg" xmlns:xlink="http://www.w3.org/1999/xlink" width="87.7441" height="82.4707">
 <g>
  <rect height="82.4707" opacity="0" width="87.7441" x="0" y="0"/>
  <path d="M0 10.4004L0 71.7773C0 79.4434 2.19727 82.1777 6.49414 82.1777C19.0918 82.1777 36.4746 66.4062 36.4746 41.1133C36.4746 15.7715 19.0918 0 6.49414 0C2.19727 0 0 2.73438 0 10.4004ZM45.2148 41.1133C45.2148 51.6113 54.5898 60.6445 66.7969 60.6445C78.8086 60.6445 87.7441 51.5625 87.7441 41.1133C87.7441 30.6641 78.6133 21.582 66.6992 21.582C54.5898 21.582 45.2148 30.6641 45.2148 41.1133Z" fill="#000000" fill-opacity="0.85"/>
 </g>
</svg>
