<?xml version="1.0" encoding="UTF-8"?>
<!--Generator: Apple Native CoreSVG 232.5-->
<!DOCTYPE svg
PUBLIC "-//W3C//DTD SVG 1.1//EN"
       "http://www.w3.org/Graphics/SVG/1.1/DTD/svg11.dtd">
<svg version="1.1" xmlns="http://www.w3.org/2000/svg" xmlns:xlink="http://www.w3.org/1999/xlink" width="140.283" height="79.9316">
 <g>
  <rect height="79.9316" opacity="0" width="140.283" x="0" y="0"/>
  <path d="M28.3691 57.2266L32.3242 57.2266C32.0312 54.6875 31.7871 51.9043 32.1289 49.3652L28.9062 49.3652C16.8945 49.3652 8.34961 40.918 8.34961 28.8086C8.34961 16.7969 16.9434 8.30078 28.9062 8.30078L72.2168 8.30078C84.1797 8.30078 92.7734 16.7969 92.7734 28.8086C92.7734 40.918 84.1797 49.3652 72.2168 49.3652L55.0781 49.3652C54.3945 51.2695 54.6387 54.9805 56.1523 57.2266L72.7539 57.2266C89.3066 57.2266 101.123 45.6055 101.123 28.8086C101.123 12.0605 89.3066 0.439453 72.7539 0.439453L28.3691 0.439453C11.8164 0.439453 0 12.0605 0 28.8086C0 45.6055 11.8164 57.2266 28.3691 57.2266ZM67.5293 79.9316L111.914 79.9316C128.467 79.9316 140.283 68.3105 140.283 51.5137C140.283 34.7656 128.467 23.1445 111.914 23.1445L107.91 23.1445C108.203 25.6348 108.447 28.4668 108.154 31.0059L111.328 31.0059C123.34 31.0059 131.934 39.4531 131.934 51.5137C131.934 63.5742 123.34 72.0703 111.328 72.0703L68.0664 72.0703C56.1035 72.0703 47.5098 63.5742 47.5098 51.5137C47.5098 39.4531 56.0547 31.0059 68.0664 31.0059L85.2051 31.0059C85.8887 29.1016 85.6445 25.3906 84.082 23.1445L67.5293 23.1445C50.9277 23.1445 39.1602 34.7656 39.1602 51.5137C39.1602 68.3105 50.9277 79.9316 67.5293 79.9316Z" fill="#000000" fill-opacity="0.85"/>
 </g>
</svg>
