<?xml version="1.0" encoding="UTF-8"?>
<!--Generator: Apple Native CoreSVG 232.5-->
<!DOCTYPE svg
PUBLIC "-//W3C//DTD SVG 1.1//EN"
       "http://www.w3.org/Graphics/SVG/1.1/DTD/svg11.dtd">
<svg version="1.1" xmlns="http://www.w3.org/2000/svg" xmlns:xlink="http://www.w3.org/1999/xlink" width="115.137" height="89.8926">
 <g>
  <rect height="89.8926" opacity="0" width="115.137" x="0" y="0"/>
  <path d="M15.332 89.8926L99.8047 89.8926C110.059 89.8926 115.137 84.8633 115.137 74.8047L115.137 15.1367C115.137 5.07812 110.059 0 99.8047 0L15.332 0C5.12695 0 0 5.07812 0 15.1367L0 74.8047C0 84.8633 5.12695 89.8926 15.332 89.8926ZM15.4297 82.0312C10.5469 82.0312 7.86133 79.4434 7.86133 74.3652L7.86133 15.5762C7.86133 10.498 10.5469 7.86133 15.4297 7.86133L99.707 7.86133C104.541 7.86133 107.275 10.498 107.275 15.5762L107.275 74.3652C107.275 79.4434 104.541 82.0312 99.707 82.0312Z" fill="#000000" fill-opacity="0.85"/>
  <path d="M69.0918 28.8574L95.752 28.8574C97.4609 28.8574 98.7793 27.5391 98.7793 25.8301C98.7793 24.1699 97.4609 22.8516 95.752 22.8516L69.0918 22.8516C67.334 22.8516 66.0156 24.1699 66.0156 25.8301C66.0156 27.5391 67.334 28.8574 69.0918 28.8574ZM69.0918 47.998L95.752 47.998C97.4609 47.998 98.7793 46.6309 98.7793 44.9219C98.7793 43.2617 97.4609 41.9922 95.752 41.9922L69.0918 41.9922C67.334 41.9922 66.0156 43.2617 66.0156 44.9219C66.0156 46.6309 67.334 47.998 69.0918 47.998ZM69.0918 67.0898L95.752 67.0898C97.4609 67.0898 98.7793 65.8203 98.7793 64.1602C98.7793 62.4512 97.4609 61.084 95.752 61.084L69.0918 61.084C67.334 61.084 66.0156 62.4512 66.0156 64.1602C66.0156 65.8203 67.334 67.0898 69.0918 67.0898ZM18.2129 67.0898L56.3477 67.0898C57.959 67.0898 58.7402 66.0156 58.7402 64.5508C58.7402 59.9609 51.8555 48.1445 37.2559 48.1445C22.6562 48.1445 15.8203 59.9609 15.8203 64.5508C15.8203 66.0156 16.6016 67.0898 18.2129 67.0898ZM37.2559 44.7266C43.2129 44.7754 47.9492 39.7461 47.9492 33.0566C47.9492 26.8066 43.2129 21.6309 37.2559 21.6309C31.3477 21.6309 26.5625 26.8066 26.5625 33.0566C26.5625 39.7461 31.3477 44.7266 37.2559 44.7266Z" fill="#000000" fill-opacity="0.85"/>
 </g>
</svg>
