<?xml version="1.0" encoding="UTF-8"?>
<!--Generator: Apple Native CoreSVG 232.5-->
<!DOCTYPE svg
PUBLIC "-//W3C//DTD SVG 1.1//EN"
       "http://www.w3.org/Graphics/SVG/1.1/DTD/svg11.dtd">
<svg version="1.1" xmlns="http://www.w3.org/2000/svg" xmlns:xlink="http://www.w3.org/1999/xlink" width="99.6094" height="99.6582">
 <g>
  <rect height="99.6582" opacity="0" width="99.6094" x="0" y="0"/>
  <path d="M49.8047 99.6094C77.0508 99.6094 99.6094 77.002 99.6094 49.8047C99.6094 22.5586 77.002 0 49.7559 0C22.5586 0 0 22.5586 0 49.8047C0 77.002 22.6074 99.6094 49.8047 99.6094ZM49.8047 91.3086C26.7578 91.3086 8.34961 72.8516 8.34961 49.8047C8.34961 26.7578 26.709 8.30078 49.7559 8.30078C72.8027 8.30078 91.3086 26.7578 91.3086 49.8047C91.3086 72.8516 72.8516 91.3086 49.8047 91.3086Z" fill="#000000" fill-opacity="0.85"/>
  <path d="M31.8848 42.0898C31.8848 43.457 32.9102 44.5312 34.2773 44.5312L37.2559 44.5312L37.2559 71.0449C37.2559 72.9492 38.6719 74.2676 40.4785 74.2676C42.334 74.2676 43.6523 72.9492 43.6523 71.0449L43.6523 57.2754L52.1973 57.2754C60.3516 57.2754 66.2598 52.1484 67.1875 44.5312L69.4336 44.5312C70.8008 44.5312 71.8262 43.457 71.8262 42.0898C71.8262 40.6738 70.8008 39.6973 69.4336 39.6973L67.0898 39.6973C65.918 32.373 60.2051 27.5879 52.1973 27.5879L40.3809 27.5879C38.4766 27.5879 37.2559 28.8574 37.2559 30.8105L37.2559 39.6973L34.2773 39.6973C32.9102 39.6973 31.8848 40.6738 31.8848 42.0898ZM43.7012 51.5137L43.7012 44.5312L60.6934 44.5312C59.9121 48.9258 56.4941 51.5137 51.123 51.5137ZM43.7012 39.6973L43.7012 33.3496L51.123 33.3496C56.25 33.3496 59.5703 35.6445 60.5469 39.6973Z" fill="#000000" fill-opacity="0.85"/>
 </g>
</svg>
