<?xml version="1.0" encoding="UTF-8"?>
<!--Generator: Apple Native CoreSVG 232.5-->
<!DOCTYPE svg
PUBLIC "-//W3C//DTD SVG 1.1//EN"
       "http://www.w3.org/Graphics/SVG/1.1/DTD/svg11.dtd">
<svg version="1.1" xmlns="http://www.w3.org/2000/svg" xmlns:xlink="http://www.w3.org/1999/xlink" width="72.4609" height="90.8691">
 <g>
  <rect height="90.8691" opacity="0" width="72.4609" x="0" y="0"/>
  <path d="M9.61914 86.2305C9.61914 88.8184 11.7188 90.8691 14.3066 90.8691C16.8945 90.8691 18.9453 88.8184 18.9453 86.2305L18.9453 57.2754L36.5234 57.2754C53.125 57.2754 64.5508 46.0449 64.5508 29.6387C64.5508 13.3301 53.9062 2.19727 37.0117 2.19727L14.3066 2.19727C11.4258 2.19727 9.61914 4.10156 9.61914 7.03125ZM18.9453 49.0723L18.9453 10.498L34.7168 10.498C48.1445 10.498 54.9805 17.4805 54.9805 29.6387C54.9805 41.8457 47.5098 49.0723 34.3262 49.0723ZM3.07617 32.3242L69.2871 32.3242C71.0938 32.3242 72.4609 30.8594 72.4609 29.1016C72.4609 27.2949 71.0938 25.9277 69.2871 25.9277L3.07617 25.9277C1.31836 25.9277 0 27.2949 0 29.1016C0 30.8594 1.31836 32.3242 3.07617 32.3242Z" fill="#000000" fill-opacity="0.85"/>
 </g>
</svg>
