<?xml version="1.0" encoding="UTF-8"?>
<!--Generator: Apple Native CoreSVG 232.5-->
<!DOCTYPE svg
PUBLIC "-//W3C//DTD SVG 1.1//EN"
       "http://www.w3.org/Graphics/SVG/1.1/DTD/svg11.dtd">
<svg version="1.1" xmlns="http://www.w3.org/2000/svg" xmlns:xlink="http://www.w3.org/1999/xlink" width="89.8926" height="89.9902">
 <g>
  <rect height="89.9902" opacity="0" width="89.8926" x="0" y="0"/>
  <path d="M15.332 89.9902L74.5605 89.9902C84.8145 89.9902 89.8926 84.9121 89.8926 74.8535L89.8926 15.2344C89.8926 5.17578 84.8145 0.0976562 74.5605 0.0976562L15.332 0.0976562C5.12695 0.0976562 0 5.12695 0 15.2344L0 74.8535C0 84.9609 5.12695 89.9902 15.332 89.9902ZM15.4297 82.1289C10.5469 82.1289 7.86133 79.541 7.86133 74.4629L7.86133 15.625C7.86133 10.5469 10.5469 7.95898 15.4297 7.95898L74.4629 7.95898C79.2969 7.95898 82.0312 10.5469 82.0312 15.625L82.0312 74.4629C82.0312 79.541 79.2969 82.1289 74.4629 82.1289Z" fill="#000000" fill-opacity="0.85"/>
  <path d="M27.0996 37.2559C27.0996 38.623 28.125 39.6973 29.4922 39.6973L32.4707 39.6973L32.4707 66.2109C32.4707 68.1152 33.8867 69.4336 35.6934 69.4336C37.5488 69.4336 38.8672 68.1152 38.8672 66.2109L38.8672 52.4414L47.4121 52.4414C55.5664 52.4414 61.4746 47.3145 62.4023 39.6973L64.6484 39.6973C66.0645 39.6973 67.041 38.623 67.041 37.2559C67.041 35.8398 66.0645 34.8633 64.6484 34.8633L62.3047 34.8633C61.1816 27.5391 55.4199 22.7539 47.4121 22.7539L35.5957 22.7539C33.6914 22.7539 32.4707 24.0234 32.4707 25.9766L32.4707 34.8633L29.4922 34.8633C28.125 34.8633 27.0996 35.8398 27.0996 37.2559ZM38.916 46.6797L38.916 39.6973L55.9082 39.6973C55.127 44.0918 51.709 46.6797 46.3379 46.6797ZM38.916 34.8633L38.916 28.5156L46.3379 28.5156C51.4648 28.5156 54.834 30.8105 55.7617 34.8633Z" fill="#000000" fill-opacity="0.85"/>
 </g>
</svg>
