<?xml version="1.0" encoding="UTF-8"?>
<!--Generator: Apple Native CoreSVG 232.5-->
<!DOCTYPE svg
PUBLIC "-//W3C//DTD SVG 1.1//EN"
       "http://www.w3.org/Graphics/SVG/1.1/DTD/svg11.dtd">
<svg version="1.1" xmlns="http://www.w3.org/2000/svg" xmlns:xlink="http://www.w3.org/1999/xlink" width="89.8926" height="89.9902">
 <g>
  <rect height="89.9902" opacity="0" width="89.8926" x="0" y="0"/>
  <path d="M89.8926 15.2344L89.8926 74.8535C89.8926 84.9121 84.8145 89.9902 74.5605 89.9902L15.332 89.9902C5.12695 89.9902 0 84.9609 0 74.8535L0 15.2344C0 5.12695 5.12695 0.0976562 15.332 0.0976562L74.5605 0.0976562C84.8145 0.0976562 89.8926 5.17578 89.8926 15.2344ZM35.2539 22.0703C33.252 22.0703 31.9824 23.3887 31.9824 25.4395L31.9824 31.4453L28.9062 31.4453C27.4902 31.4453 26.4648 32.4219 26.4648 33.8867C26.4648 35.3027 27.4902 36.4258 28.9062 36.4258L31.9824 36.4258L31.9824 39.5996L28.9062 39.5996C27.4902 39.5996 26.4648 40.625 26.4648 42.1387C26.4648 43.5059 27.4902 44.5801 28.9062 44.5801L31.9824 44.5801L31.9824 66.9434C31.9824 68.8477 33.4473 70.2148 35.3516 70.2148C37.2559 70.2148 38.623 68.8477 38.623 66.9434L38.623 54.1016L47.4121 54.1016C54.2969 54.1016 59.5703 50.3906 61.8652 44.5801L65.2344 44.5801C66.6992 44.5801 67.6758 43.5059 67.6758 42.1387C67.6758 40.625 66.6992 39.5996 65.2344 39.5996L62.9395 39.5996C62.9883 39.1113 62.9883 38.5254 62.9883 38.0371C62.9883 37.5 62.9883 37.0605 62.9395 36.4258L65.2344 36.4258C66.6992 36.4258 67.6758 35.3027 67.6758 33.8867C67.6758 32.4219 66.6992 31.4453 65.2344 31.4453L61.8164 31.4453C59.5703 25.7324 54.2969 22.0703 47.4121 22.0703ZM46.3867 48.0469L38.6719 48.0469L38.6719 44.5801L54.4434 44.5801C52.7344 46.8262 50 48.0469 46.3867 48.0469ZM56.4941 38.0371C56.4941 38.5254 56.4941 39.1113 56.4453 39.5996L38.6719 39.5996L38.6719 36.4258L56.4453 36.4258C56.4941 36.9141 56.4941 37.4512 56.4941 38.0371ZM54.3945 31.4453L38.6719 31.4453L38.6719 28.0762L46.3867 28.0762C50 28.0762 52.7344 29.2969 54.3945 31.4453Z" fill="#000000" fill-opacity="0.85"/>
 </g>
</svg>
