<?xml version="1.0" encoding="UTF-8"?>
<!--Generator: Apple Native CoreSVG 232.5-->
<!DOCTYPE svg
PUBLIC "-//W3C//DTD SVG 1.1//EN"
       "http://www.w3.org/Graphics/SVG/1.1/DTD/svg11.dtd">
<svg version="1.1" xmlns="http://www.w3.org/2000/svg" xmlns:xlink="http://www.w3.org/1999/xlink" width="99.6094" height="99.6582">
 <g>
  <rect height="99.6582" opacity="0" width="99.6094" x="0" y="0"/>
  <path d="M99.6094 49.8047C99.6094 77.002 77.0508 99.6094 49.8047 99.6094C22.6074 99.6094 0 77.002 0 49.8047C0 22.5586 22.5586 0 49.7559 0C77.002 0 99.6094 22.5586 99.6094 49.8047ZM40.0879 26.9043C38.0859 26.9043 36.8164 28.2227 36.8164 30.2734L36.8164 36.2793L33.7402 36.2793C32.3242 36.2793 31.2988 37.2559 31.2988 38.7207C31.2988 40.1367 32.3242 41.2598 33.7402 41.2598L36.8164 41.2598L36.8164 44.4336L33.7402 44.4336C32.3242 44.4336 31.2988 45.459 31.2988 46.9727C31.2988 48.3398 32.3242 49.4141 33.7402 49.4141L36.8164 49.4141L36.8164 71.7773C36.8164 73.6816 38.2812 75.0488 40.1855 75.0488C42.0898 75.0488 43.457 73.6816 43.457 71.7773L43.457 58.9355L52.2461 58.9355C59.1309 58.9355 64.4043 55.2246 66.6992 49.4141L70.0684 49.4141C71.4844 49.4141 72.5098 48.3398 72.5098 46.9727C72.5098 45.459 71.4844 44.4336 70.0684 44.4336L67.7246 44.4336C67.8223 43.9453 67.8223 43.3594 67.8223 42.8711C67.8223 42.334 67.8223 41.8945 67.7734 41.2598L70.0684 41.2598C71.4844 41.2598 72.5098 40.1367 72.5098 38.7207C72.5098 37.2559 71.4844 36.2793 70.0684 36.2793L66.6504 36.2793C64.3555 30.5664 59.1309 26.9043 52.2461 26.9043ZM51.2207 52.8809L43.5059 52.8809L43.5059 49.4141L59.2773 49.4141C57.5684 51.6602 54.834 52.8809 51.2207 52.8809ZM61.3281 42.8711C61.3281 43.3594 61.3281 43.9453 61.2305 44.4336L43.5059 44.4336L43.5059 41.2598L61.2305 41.2598C61.3281 41.748 61.3281 42.2852 61.3281 42.8711ZM59.2285 36.2793L43.5059 36.2793L43.5059 32.9102L51.2207 32.9102C54.834 32.9102 57.5684 34.1309 59.2285 36.2793Z" fill="#000000" fill-opacity="0.85"/>
 </g>
</svg>
