<?xml version="1.0" encoding="UTF-8"?>
<!--Generator: Apple Native CoreSVG 232.5-->
<!DOCTYPE svg
PUBLIC "-//W3C//DTD SVG 1.1//EN"
       "http://www.w3.org/Graphics/SVG/1.1/DTD/svg11.dtd">
<svg version="1.1" xmlns="http://www.w3.org/2000/svg" xmlns:xlink="http://www.w3.org/1999/xlink" width="89.8926" height="89.9902">
 <g>
  <rect height="89.9902" opacity="0" width="89.8926" x="0" y="0"/>
  <path d="M15.332 89.9902L74.5605 89.9902C84.8145 89.9902 89.8926 84.9121 89.8926 74.8535L89.8926 15.2344C89.8926 5.17578 84.8145 0.0976562 74.5605 0.0976562L15.332 0.0976562C5.12695 0.0976562 0 5.12695 0 15.2344L0 74.8535C0 84.9609 5.12695 89.9902 15.332 89.9902ZM15.4297 82.1289C10.5469 82.1289 7.86133 79.541 7.86133 74.4629L7.86133 15.625C7.86133 10.5469 10.5469 7.95898 15.4297 7.95898L74.4629 7.95898C79.2969 7.95898 82.0312 10.5469 82.0312 15.625L82.0312 74.4629C82.0312 79.541 79.2969 82.1289 74.4629 82.1289Z" fill="#000000" fill-opacity="0.85"/>
  <path d="M27.0508 42.1875C27.0508 43.5059 28.0762 44.5801 29.4434 44.5801L32.4219 44.5801L32.4219 66.2598C32.4219 68.1152 33.8379 69.4336 35.6445 69.4336C37.5 69.4336 38.8184 68.1152 38.8184 66.2598L38.8184 53.7598L47.3633 53.7598C54.0039 53.7598 59.1309 50.1953 61.3281 44.5801L64.5996 44.5801C66.0156 44.5801 66.9922 43.5059 66.9922 42.1875C66.9922 40.7227 66.0156 39.7461 64.5996 39.7461L62.4023 39.7461C62.4512 39.2578 62.4512 38.7207 62.4512 38.2324C62.4512 37.6953 62.4512 37.2559 62.4023 36.6699L64.5996 36.6699C66.0156 36.6699 66.9922 35.5957 66.9922 34.2285C66.9922 32.8125 66.0156 31.8359 64.5996 31.8359L61.2793 31.8359C59.1309 26.3184 54.0039 22.7539 47.3633 22.7539L35.5469 22.7539C33.6426 22.7539 32.4219 24.0234 32.4219 26.0254L32.4219 31.8359L29.4434 31.8359C28.0762 31.8359 27.0508 32.8125 27.0508 34.2285C27.0508 35.5957 28.0762 36.6699 29.4434 36.6699L32.4219 36.6699L32.4219 39.7461L29.4434 39.7461C28.0762 39.7461 27.0508 40.7227 27.0508 42.1875ZM38.8672 47.9492L38.8672 44.5801L54.1992 44.5801C52.5391 46.7285 49.8535 47.9492 46.3379 47.9492ZM38.8672 39.7461L38.8672 36.6699L56.1035 36.6699C56.1523 37.1582 56.1523 37.6465 56.1523 38.2324C56.1523 38.7207 56.1523 39.2578 56.1035 39.7461ZM38.8672 31.8359L38.8672 28.5645L46.3379 28.5645C49.8535 28.5645 52.5391 29.7363 54.1504 31.8359Z" fill="#000000" fill-opacity="0.85"/>
 </g>
</svg>
