<?xml version="1.0" encoding="UTF-8"?>
<!--Generator: Apple Native CoreSVG 232.5-->
<!DOCTYPE svg
PUBLIC "-//W3C//DTD SVG 1.1//EN"
       "http://www.w3.org/Graphics/SVG/1.1/DTD/svg11.dtd">
<svg version="1.1" xmlns="http://www.w3.org/2000/svg" xmlns:xlink="http://www.w3.org/1999/xlink" width="99.6094" height="99.6582">
 <g>
  <rect height="99.6582" opacity="0" width="99.6094" x="0" y="0"/>
  <path d="M49.8047 99.6094C77.0508 99.6094 99.6094 77.002 99.6094 49.8047C99.6094 22.5586 77.002 0 49.7559 0C22.5586 0 0 22.5586 0 49.8047C0 77.002 22.6074 99.6094 49.8047 99.6094ZM49.8047 91.3086C26.7578 91.3086 8.34961 72.8516 8.34961 49.8047C8.34961 26.7578 26.709 8.30078 49.7559 8.30078C72.8027 8.30078 91.3086 26.7578 91.3086 49.8047C91.3086 72.8516 72.8516 91.3086 49.8047 91.3086Z" fill="#000000" fill-opacity="0.85"/>
  <path d="M31.8359 47.0215C31.8359 48.3398 32.8613 49.4141 34.2285 49.4141L37.207 49.4141L37.207 71.0938C37.207 72.9492 38.623 74.2676 40.4297 74.2676C42.2852 74.2676 43.6035 72.9492 43.6035 71.0938L43.6035 58.5938L52.1484 58.5938C58.7891 58.5938 63.916 55.0293 66.1133 49.4141L69.3848 49.4141C70.752 49.4141 71.7773 48.3398 71.7773 47.0215C71.7773 45.5566 70.752 44.5801 69.3848 44.5801L67.1387 44.5801C67.2363 44.0918 67.2363 43.5547 67.2363 43.0664C67.2363 42.5293 67.2363 42.0898 67.1875 41.5039L69.3848 41.5039C70.752 41.5039 71.7773 40.4297 71.7773 39.0625C71.7773 37.6465 70.752 36.6699 69.3848 36.6699L66.0645 36.6699C63.8672 31.1523 58.7891 27.5879 52.1484 27.5879L40.332 27.5879C38.4277 27.5879 37.207 28.8574 37.207 30.8594L37.207 36.6699L34.2285 36.6699C32.8613 36.6699 31.8359 37.6465 31.8359 39.0625C31.8359 40.4297 32.8613 41.5039 34.2285 41.5039L37.207 41.5039L37.207 44.5801L34.2285 44.5801C32.8613 44.5801 31.8359 45.5566 31.8359 47.0215ZM43.6523 52.7832L43.6523 49.4141L58.9844 49.4141C57.3242 51.5625 54.6387 52.7832 51.123 52.7832ZM43.6523 44.5801L43.6523 41.5039L60.8398 41.5039C60.9375 41.9922 60.9375 42.4805 60.9375 43.0664C60.9375 43.5547 60.9375 44.0918 60.8398 44.5801ZM43.6523 36.6699L43.6523 33.3984L51.123 33.3984C54.6387 33.3984 57.3242 34.5703 58.9355 36.6699Z" fill="#000000" fill-opacity="0.85"/>
 </g>
</svg>
