<?xml version="1.0" encoding="UTF-8"?>
<!--Generator: Apple Native CoreSVG 232.5-->
<!DOCTYPE svg
PUBLIC "-//W3C//DTD SVG 1.1//EN"
       "http://www.w3.org/Graphics/SVG/1.1/DTD/svg11.dtd">
<svg version="1.1" xmlns="http://www.w3.org/2000/svg" xmlns:xlink="http://www.w3.org/1999/xlink" width="72.6074" height="90.8691">
 <g>
  <rect height="90.8691" opacity="0" width="72.6074" x="0" y="0"/>
  <path d="M9.7168 86.2305C9.7168 88.8184 11.8164 90.8691 14.4043 90.8691C16.9922 90.8691 19.043 88.8184 19.043 86.2305L19.043 57.2754L36.6211 57.2754C53.2227 57.2754 64.6484 46.0449 64.6484 29.6387C64.6484 13.3301 54.0039 2.19727 37.1094 2.19727L14.4043 2.19727C11.5234 2.19727 9.7168 4.10156 9.7168 7.03125ZM19.043 49.0723L19.043 10.498L34.8145 10.498C48.2422 10.498 55.0781 17.4805 55.0781 29.6387C55.0781 41.8457 47.6074 49.0723 34.4238 49.0723ZM0 23.1445C0 24.9023 1.41602 26.3184 3.17383 26.3184L69.3848 26.3184C71.1426 26.3184 72.6074 24.9023 72.6074 23.1445C72.6074 21.3867 71.1426 19.9707 69.3848 19.9707L3.17383 19.9707C1.41602 19.9707 0 21.3867 0 23.1445ZM0 38.6719C0 40.4297 1.41602 41.8457 3.17383 41.8457L69.3848 41.8457C71.1426 41.8457 72.6074 40.4297 72.6074 38.6719C72.6074 36.9141 71.1426 35.498 69.3848 35.498L3.17383 35.498C1.41602 35.498 0 36.9141 0 38.6719Z" fill="#000000" fill-opacity="0.85"/>
 </g>
</svg>
