<?xml version="1.0" encoding="UTF-8"?>
<!--Generator: Apple Native CoreSVG 232.5-->
<!DOCTYPE svg
PUBLIC "-//W3C//DTD SVG 1.1//EN"
       "http://www.w3.org/Graphics/SVG/1.1/DTD/svg11.dtd">
<svg version="1.1" xmlns="http://www.w3.org/2000/svg" xmlns:xlink="http://www.w3.org/1999/xlink" width="95.5078" height="95.752">
 <g>
  <rect height="95.752" opacity="0" width="95.5078" x="0" y="0"/>
  <path d="M70.9961 95.752C79.541 95.752 85.1562 93.457 90.0879 87.8906C90.4785 87.5 90.8691 87.0605 91.2109 86.6699C94.1406 83.3984 95.5078 80.1758 95.5078 77.0996C95.5078 73.584 93.457 70.3125 89.1113 67.2852L74.9023 57.4219C70.5566 54.3945 65.3809 54.0527 61.2793 58.1055L57.5195 61.8652C56.3965 62.9883 55.4199 63.0371 54.3457 62.3535C51.709 60.6934 46.3867 56.0547 42.7734 52.4414C38.9648 48.6816 35.3027 44.4824 33.3496 41.4062C32.7148 40.2832 32.7637 39.3555 33.8867 38.2324L37.5977 34.4727C41.6992 30.3711 41.3574 25.1953 38.3301 20.8496L28.4668 6.64062C25.4395 2.29492 22.168 0.292969 18.6523 0.244141C15.5762 0.195312 12.3535 1.61133 9.08203 4.54102C8.64258 4.93164 8.25195 5.27344 7.86133 5.61523C2.29492 10.5957 0 16.2109 0 24.6582C0 38.623 8.59375 55.6152 24.3652 71.3867C40.0391 87.0605 57.0801 95.752 70.9961 95.752ZM71.0449 88.2324C58.5938 88.4766 42.627 78.9062 29.9805 66.3086C17.2363 53.6133 7.22656 37.1094 7.4707 24.6582C7.56836 19.2871 9.47266 14.6484 13.2812 11.3281C13.623 11.0352 13.8672 10.791 14.209 10.5469C15.6738 9.27734 17.2363 8.59375 18.6523 8.59375C20.0684 8.59375 21.3379 9.13086 22.2656 10.5957L31.7383 24.8047C32.7637 26.3184 32.8613 28.0273 31.3477 29.541L27.0508 33.8379C23.6816 37.207 23.9258 41.3086 26.3672 44.5801C29.1504 48.3398 33.9844 53.8086 37.7441 57.5195C41.4551 61.2793 47.3633 66.5527 51.1719 69.3848C54.4434 71.8262 58.5449 72.0703 61.9141 68.7012L66.2109 64.4043C67.7246 62.8906 69.3848 62.9883 70.9473 63.9648L85.1562 73.4375C86.5723 74.4141 87.1582 75.6348 87.1582 77.0996C87.1582 78.5156 86.4746 80.0781 85.2051 81.543C84.9121 81.8848 84.7168 82.1289 84.4238 82.4707C81.1035 86.2793 76.4648 88.1348 71.0449 88.2324Z" fill="#000000" fill-opacity="0.85"/>
 </g>
</svg>
