<?xml version="1.0" encoding="UTF-8"?>
<!--Generator: Apple Native CoreSVG 232.5-->
<!DOCTYPE svg
PUBLIC "-//W3C//DTD SVG 1.1//EN"
       "http://www.w3.org/Graphics/SVG/1.1/DTD/svg11.dtd">
<svg version="1.1" xmlns="http://www.w3.org/2000/svg" xmlns:xlink="http://www.w3.org/1999/xlink" width="95.9961" height="95.9473">
 <g>
  <rect height="95.9473" opacity="0" width="95.9961" x="0" y="0"/>
  <path d="M70.9961 95.8496C79.541 95.8496 85.1562 93.5547 90.0879 87.9883C90.4785 87.5977 90.8691 87.1582 91.2109 86.7676C94.1406 83.4961 95.5078 80.2734 95.5078 77.1973C95.5078 73.6816 93.457 70.4102 89.1113 67.3828L74.9023 57.5195C70.5078 54.4922 65.3809 54.1504 61.2793 58.2031L57.5195 61.9629C56.3965 63.0859 55.4199 63.1348 54.3457 62.4512C51.709 60.791 46.3867 56.1523 42.7734 52.5391C38.9648 48.7793 35.3027 44.5801 33.3496 41.5039C32.7148 40.3809 32.7637 39.4531 33.8867 38.3301L37.5977 34.5703C41.6992 30.4688 41.3574 25.293 38.3301 20.9473L28.4668 6.73828C25.4395 2.39258 22.168 0.390625 18.6523 0.341797C15.5762 0.292969 12.3535 1.70898 9.08203 4.63867C8.64258 5.0293 8.25195 5.37109 7.86133 5.71289C2.29492 10.6934 0 16.3086 0 24.7559C0 38.7207 8.59375 55.7129 24.3652 71.4844C40.0391 87.1582 57.0801 95.8496 70.9961 95.8496ZM71.0449 88.3301C58.5938 88.5742 42.627 79.0039 29.9805 66.4062C17.2363 53.7109 7.22656 37.207 7.4707 24.7559C7.56836 19.3848 9.47266 14.7461 13.2812 11.4258C13.623 11.1328 13.8672 10.8887 14.209 10.6445C15.6738 9.375 17.2363 8.69141 18.6523 8.69141C20.0684 8.69141 21.3379 9.22852 22.2656 10.6934L31.7383 24.9023C32.7637 26.416 32.8613 28.125 31.3477 29.6387L27.0508 33.9355C23.6816 37.3047 23.9258 41.4062 26.3672 44.6777C29.1504 48.4375 33.9844 53.9062 37.7441 57.6172C41.4551 61.377 47.3633 66.6504 51.1719 69.4824C54.4434 71.9238 58.5449 72.168 61.9141 68.7988L66.2109 64.502C67.7246 62.9883 69.3848 63.0859 70.9473 64.0625L85.1562 73.5352C86.6211 74.5117 87.1582 75.7324 87.1582 77.1973C87.1582 78.6133 86.4746 80.1758 85.2051 81.6406C84.9121 81.9824 84.7168 82.2266 84.4238 82.5684C81.1035 86.377 76.4648 88.2324 71.0449 88.3301Z" fill="#000000" fill-opacity="0.85"/>
  <path d="M92.3828 0C91.3574 0 90.5762 0.341797 89.8438 1.07422L68.7988 22.168L61.3281 30.2734L62.1094 15.9668L62.1094 8.69141C62.1094 6.78711 60.6934 5.32227 58.7891 5.22461C56.8359 5.12695 55.127 6.68945 55.127 8.69141L55.127 36.9629C55.127 39.5508 56.3965 40.8691 58.9844 40.8691L87.3535 40.8691C89.3555 40.8691 90.9668 39.209 90.8691 37.207C90.7715 35.3027 89.2578 33.8867 87.3535 33.8867L79.9805 33.8867L65.625 34.668L73.8281 27.1973L94.8242 6.10352C95.6543 5.32227 95.9961 4.44336 95.9961 3.41797C95.9961 1.51367 94.4336 0 92.3828 0Z" fill="#000000" fill-opacity="0.85"/>
 </g>
</svg>
