<?xml version="1.0" encoding="UTF-8"?>
<!--Generator: Apple Native CoreSVG 232.5-->
<!DOCTYPE svg
PUBLIC "-//W3C//DTD SVG 1.1//EN"
       "http://www.w3.org/Graphics/SVG/1.1/DTD/svg11.dtd">
<svg version="1.1" xmlns="http://www.w3.org/2000/svg" xmlns:xlink="http://www.w3.org/1999/xlink" width="107.617" height="107.275">
 <g>
  <rect height="107.275" opacity="0" width="107.617" x="0" y="0"/>
  <path d="M30.0293 107.275C32.4219 107.275 34.082 106.006 37.0605 103.369L53.9062 88.3789L85.2539 88.3789C99.8047 88.3789 107.617 80.3223 107.617 66.0156L107.617 28.6133C107.617 14.3066 99.8047 6.25 85.2539 6.25L22.3633 6.25C7.8125 6.25 0 14.2578 0 28.6133L0 66.0156C0 80.3711 7.8125 88.3789 22.3633 88.3789L24.707 88.3789L24.707 101.074C24.707 104.834 26.6113 107.275 30.0293 107.275ZM32.0312 98.3398L32.0312 84.1797C32.0312 81.543 31.0059 80.5176 28.3691 80.5176L22.3633 80.5176C12.5 80.5176 7.86133 75.4883 7.86133 65.9668L7.86133 28.6133C7.86133 19.0918 12.5 14.1113 22.3633 14.1113L85.2539 14.1113C95.0684 14.1113 99.7559 19.0918 99.7559 28.6133L99.7559 65.9668C99.7559 75.4883 95.0684 80.5176 85.2539 80.5176L53.6133 80.5176C50.8789 80.5176 49.5117 80.9082 47.6562 82.8125Z" fill="#000000" fill-opacity="0.85"/>
  <path d="M41.9434 58.7402C53.3691 70.166 67.8711 77.3926 76.4648 68.8477C76.7578 68.5059 77.002 68.2129 77.2949 67.8711C79.4922 65.3809 80.127 62.1094 77.2461 59.9121C75 58.3008 72.6562 56.6406 68.6035 53.8574C65.7227 51.8066 63.8672 52.2949 61.6699 54.4922L59.7656 56.3965C59.1797 56.9824 58.2031 56.8848 57.5684 56.4941C55.8594 55.4688 52.9785 53.1738 50.2441 50.4395C47.5586 47.7539 45.166 44.7266 44.2383 43.1152C43.8965 42.5781 43.6523 41.6992 44.2871 41.0645L46.2402 39.0137C48.4375 36.7188 48.877 34.9609 46.8262 32.0801L40.8203 23.584C38.8184 20.7031 35.8398 21.2891 32.5195 23.6816C32.2754 23.877 32.0801 24.0723 31.8848 24.2676C23.291 32.8613 30.5664 47.3633 41.9434 58.7402Z" fill="#000000" fill-opacity="0.85"/>
 </g>
</svg>
