<?xml version="1.0" encoding="UTF-8"?>
<!--Generator: Apple Native CoreSVG 232.5-->
<!DOCTYPE svg
PUBLIC "-//W3C//DTD SVG 1.1//EN"
       "http://www.w3.org/Graphics/SVG/1.1/DTD/svg11.dtd">
<svg version="1.1" xmlns="http://www.w3.org/2000/svg" xmlns:xlink="http://www.w3.org/1999/xlink" width="111.499" height="111.597">
 <g>
  <rect height="111.597" opacity="0" width="111.499" x="0" y="0"/>
  <path d="M78.772 103.674C87.2681 103.674 92.8833 101.379 97.8638 95.813C98.2544 95.4224 98.5962 94.9829 98.9868 94.5923C101.917 91.3208 103.284 88.0981 103.284 85.022C103.284 81.5063 101.233 78.2349 96.8872 75.2075L82.6782 65.3442C78.2837 62.3169 73.1567 61.9751 69.0552 66.0278L65.2954 69.7876C64.1724 70.9106 63.1958 70.9595 62.0728 70.2759C59.4849 68.6157 54.1626 63.9771 50.5493 60.3638C46.7407 56.604 43.0298 52.4048 41.1255 49.3286C40.4419 48.2056 40.5396 47.2778 41.6626 46.1548L45.3735 42.395C49.4751 38.2935 49.1333 33.1177 46.106 28.772L36.1938 14.563C33.2153 10.2173 29.9438 8.21533 26.4282 8.1665C23.3521 8.11768 20.1294 9.53369 16.8579 12.4634C16.4185 12.854 16.0278 13.1958 15.5884 13.5376C10.0708 18.5181 7.77588 24.1333 7.77588 32.5806C7.77588 46.5454 16.3696 63.5376 32.1411 79.3091C47.8149 94.9829 64.856 103.674 78.772 103.674ZM78.8208 96.1548C66.3696 96.3989 50.4028 86.8286 37.7563 74.231C25.0122 61.5356 15.0024 45.0317 15.2466 32.5806C15.3442 27.2095 17.1997 22.5708 21.0571 19.2505C21.3501 18.9575 21.6431 18.7134 21.9849 18.4692C23.4009 17.1997 25.0122 16.5161 26.3794 16.5161C27.8442 16.5161 29.1138 17.0532 30.0415 18.5181L39.5142 32.7271C40.5396 34.2407 40.6372 35.9497 39.1235 37.4634L34.8267 41.7603C31.4087 45.1294 31.7017 49.231 34.1431 52.5024C36.9263 56.2622 41.7603 61.731 45.4712 65.4419C49.231 69.2017 55.1392 74.4751 58.8989 77.3071C62.1704 79.7485 66.3208 79.9927 69.6899 76.6235L73.9868 72.3267C75.5005 70.813 77.1606 70.9106 78.6743 71.8872L92.8833 81.3599C94.3481 82.3364 94.9341 83.5571 94.9341 85.022C94.9341 86.438 94.2505 88.0005 92.9321 89.4653C92.688 89.8071 92.4927 90.0513 92.1997 90.3931C88.8306 94.2017 84.1919 96.0571 78.8208 96.1548Z" fill="#000000" fill-opacity="0.85"/>
  <path d="M60.9009 50.5493C63.5376 53.186 67.7368 53.186 70.3735 50.5493C72.9614 47.9126 72.9614 43.7134 70.3735 41.1743C67.7368 38.4888 63.5376 38.4888 60.9009 41.0767C58.2642 43.7134 58.2642 47.9126 60.9009 50.5493ZM65.7349 23.4985C64.1724 25.0122 64.1724 27.5513 65.7349 29.0649L82.3853 45.7642C83.8989 47.2778 86.438 47.2778 87.9517 45.7642C89.4653 44.2505 89.4653 41.7114 87.9517 40.1978L71.2524 23.4985C69.7388 21.9849 67.1997 21.9849 65.7349 23.4985ZM83.313 28.2349C85.9497 30.7251 90.1489 30.7739 92.7368 28.1372C95.3247 25.5493 95.3247 21.3501 92.7368 18.7622C90.1489 16.1255 85.9009 16.1255 83.313 18.7134C80.6763 21.3501 80.6763 25.5005 83.313 28.2349ZM88.147 1.13525C86.6333 2.64893 86.6333 5.13916 88.147 6.70166L104.749 23.3521C106.311 24.9146 108.85 24.9146 110.364 23.3521C111.877 21.8384 111.877 19.3481 110.364 17.8345L93.7134 1.13525C92.1509-0.378418 89.6118-0.378418 88.147 1.13525Z" fill="#000000" fill-opacity="0.85"/>
 </g>
</svg>
