<?xml version="1.0" encoding="UTF-8"?>
<!--Generator: Apple Native CoreSVG 232.5-->
<!DOCTYPE svg
PUBLIC "-//W3C//DTD SVG 1.1//EN"
       "http://www.w3.org/Graphics/SVG/1.1/DTD/svg11.dtd">
<svg version="1.1" xmlns="http://www.w3.org/2000/svg" xmlns:xlink="http://www.w3.org/1999/xlink" width="99.6094" height="99.6582">
 <g>
  <rect height="99.6582" opacity="0" width="99.6094" x="0" y="0"/>
  <path d="M49.8047 99.6094C77.0508 99.6094 99.6094 77.002 99.6094 49.8047C99.6094 22.5586 77.002 0 49.7559 0C22.5586 0 0 22.5586 0 49.8047C0 77.002 22.6074 99.6094 49.8047 99.6094ZM49.8047 91.3086C26.7578 91.3086 8.34961 72.8516 8.34961 49.8047C8.34961 26.7578 26.709 8.30078 49.7559 8.30078C72.8027 8.30078 91.3086 26.7578 91.3086 49.8047C91.3086 72.8516 72.8516 91.3086 49.8047 91.3086Z" fill="#000000" fill-opacity="0.85"/>
  <path d="M37.8906 61.2305C49.2676 72.6562 63.7695 79.8828 72.3633 71.3379C72.7051 70.9961 72.9492 70.7031 73.1934 70.3613C75.4395 67.8711 76.0254 64.5996 73.1934 62.4023C70.9473 60.791 68.5547 59.082 64.502 56.2988C61.6699 54.2969 59.8145 54.7852 57.6172 56.9824L55.6641 58.8867C55.127 59.4238 54.1504 59.375 53.5156 58.9844C51.7578 57.959 48.9258 55.6641 46.1914 52.9297C43.5059 50.2441 41.1133 47.2168 40.1367 45.6055C39.7949 45.0684 39.5996 44.1895 40.2344 43.5547L42.1387 41.5039C44.3359 39.209 44.8242 37.4512 42.7734 34.5703L36.7676 26.0742C34.7168 23.1934 31.7383 23.7793 28.4668 26.1719C28.2227 26.3672 28.0273 26.5625 27.832 26.7578C19.1895 35.3516 26.5137 49.8535 37.8906 61.2305Z" fill="#000000" fill-opacity="0.85"/>
 </g>
</svg>
