<?xml version="1.0" encoding="UTF-8"?>
<!--Generator: Apple Native CoreSVG 232.5-->
<!DOCTYPE svg
PUBLIC "-//W3C//DTD SVG 1.1//EN"
       "http://www.w3.org/Graphics/SVG/1.1/DTD/svg11.dtd">
<svg version="1.1" xmlns="http://www.w3.org/2000/svg" xmlns:xlink="http://www.w3.org/1999/xlink" width="114.856" height="43.1152">
 <g>
  <rect height="43.1152" opacity="0" width="114.856" x="0" y="0"/>
  <path d="M57.4279 0C36.2853 0 16.4123 4.44336 6.50015 14.3555C2.00796 18.8477-0.238131 24.2676 0.0548376 30.8105C0.25015 34.7656 1.47085 38.2812 3.76578 40.5762C5.47476 42.334 7.86734 43.3105 10.6505 42.8711L28.7658 39.7949C31.5002 39.3555 33.4044 38.5254 34.6252 37.2559C36.2365 35.6934 36.7248 33.3496 36.7248 30.2734L36.7248 25.3418C36.7248 24.5605 37.0666 23.9746 37.5548 23.4863C38.0431 22.9004 38.7755 22.6562 39.3127 22.5098C42.633 21.7285 49.3712 20.9961 57.4279 20.9961C65.4845 20.9961 72.174 21.582 75.5431 22.5586C76.0314 22.7051 76.715 22.998 77.2521 23.4863C77.6916 23.9746 77.9845 24.5117 78.0334 25.293L78.0822 30.2734C78.131 33.3496 78.6193 35.6934 80.1818 37.2559C81.4513 38.5254 83.3556 39.3555 86.09 39.7949L103.961 42.8223C106.842 43.3105 109.283 42.2852 111.188 40.4297C113.483 38.1836 114.752 34.7656 114.85 30.7617C114.996 24.1699 112.457 18.75 108.063 14.3555C98.1505 4.44336 78.5705 0 57.4279 0Z" fill="#000000" fill-opacity="0.85"/>
 </g>
</svg>
