<?xml version="1.0" encoding="UTF-8"?>
<!--Generator: Apple Native CoreSVG 232.5-->
<!DOCTYPE svg
PUBLIC "-//W3C//DTD SVG 1.1//EN"
       "http://www.w3.org/Graphics/SVG/1.1/DTD/svg11.dtd">
<svg version="1.1" xmlns="http://www.w3.org/2000/svg" xmlns:xlink="http://www.w3.org/1999/xlink" width="92.9199" height="94.1895">
 <g>
  <rect height="94.1895" opacity="0" width="92.9199" x="0" y="0"/>
  <path d="M24.8047 69.1895C38.916 83.3008 56.0547 94.1895 70.0684 94.1895C76.3672 94.1895 81.8848 91.9922 86.3281 87.1094C88.916 84.2285 90.5273 80.8594 90.5273 77.5391C90.5273 75.0977 89.5996 72.7539 87.3047 71.0938L72.3145 60.4492C70.0195 58.8867 68.1152 58.1055 66.3574 58.1055C64.1602 58.1055 62.1582 59.375 59.9121 61.5723L56.4453 64.9902C55.9082 65.5273 55.2246 65.7715 54.5898 65.7715C53.8574 65.7715 53.125 65.4785 52.6367 65.2344C49.6094 63.623 44.4336 59.1797 39.5996 54.3945C34.8145 49.6094 30.3711 44.4336 28.8086 41.4062C28.5645 40.8691 28.2715 40.1855 28.2715 39.4531C28.2715 38.8184 28.4668 38.1836 29.0039 37.6465L32.4707 34.082C34.6191 31.8359 35.9375 29.8828 35.9375 27.6367C35.9375 25.8789 35.1074 23.9746 33.4961 21.6797L22.998 6.88477C21.2891 4.54102 18.8965 3.51562 16.2598 3.51562C13.0371 3.51562 9.7168 4.98047 6.83594 7.76367C2.09961 12.3047 0 17.9199 0 24.1211C0 38.1348 10.6934 55.127 24.8047 69.1895Z" fill="#000000" fill-opacity="0.85"/>
  <path d="M55.6641 42.4805C56.6406 42.4805 57.4707 42.1875 58.2031 41.4551L79.248 20.3613L86.7188 12.2559L85.9375 26.5625L85.9375 33.8379C85.9375 35.7422 87.3535 37.207 89.2578 37.3047C91.2109 37.4023 92.9199 35.8398 92.9199 33.8379L92.9199 5.56641C92.9199 2.97852 91.6504 1.66016 89.0625 1.66016L60.6934 1.66016C58.6914 1.66016 57.0801 3.32031 57.1777 5.32227C57.2754 7.22656 58.7891 8.64258 60.6934 8.64258L68.0664 8.64258L82.4219 7.86133L74.2188 15.332L53.2227 36.4258C52.3926 37.207 52.002 38.0859 52.002 39.1113C52.002 41.0156 53.6133 42.4805 55.6641 42.4805Z" fill="#000000" fill-opacity="0.85"/>
 </g>
</svg>
