<?xml version="1.0" encoding="UTF-8"?>
<!--Generator: Apple Native CoreSVG 232.5-->
<!DOCTYPE svg
PUBLIC "-//W3C//DTD SVG 1.1//EN"
       "http://www.w3.org/Graphics/SVG/1.1/DTD/svg11.dtd">
<svg version="1.1" xmlns="http://www.w3.org/2000/svg" xmlns:xlink="http://www.w3.org/1999/xlink" width="99.6094" height="99.6582">
 <g>
  <rect height="99.6582" opacity="0" width="99.6094" x="0" y="0"/>
  <path d="M49.8047 99.6094C77.0508 99.6094 99.6094 77.002 99.6094 49.8047C99.6094 22.5586 77.002 0 49.7559 0C22.5586 0 0 22.5586 0 49.8047C0 77.002 22.6074 99.6094 49.8047 99.6094ZM49.8047 91.3086C26.7578 91.3086 8.34961 72.8516 8.34961 49.8047C8.34961 26.7578 26.709 8.30078 49.7559 8.30078C72.8027 8.30078 91.3086 26.7578 91.3086 49.8047C91.3086 72.8516 72.8516 91.3086 49.8047 91.3086Z" fill="#000000" fill-opacity="0.85"/>
  <path d="M34.4727 65.1367C45.8984 76.5137 60.4004 83.7891 68.9453 75.1953C69.2871 74.9023 69.5312 74.5605 69.8242 74.2676C72.0215 71.7285 72.6074 68.457 69.7754 66.3086C67.5293 64.6973 65.1855 62.9883 61.1328 60.2051C58.252 58.2031 56.3965 58.6914 54.1992 60.8398L52.2461 62.793C51.709 63.3301 50.7324 63.2324 50.0977 62.8418C48.3887 61.8164 45.5078 59.5703 42.7734 56.8359C40.0879 54.1016 37.6953 51.123 36.7188 49.5117C36.4258 48.9746 36.1816 48.0957 36.8164 47.4121L38.7695 45.4102C40.9668 43.0664 41.4062 41.3086 39.3555 38.4766L33.3496 29.9316C31.3477 27.0508 28.3203 27.6855 25.0488 30.0781C24.8047 30.2734 24.6094 30.4688 24.4141 30.6152C15.8203 39.2578 23.0957 53.7598 34.4727 65.1367ZM51.8066 50.6348C52.4902 50.6348 53.1738 50.4395 53.6133 50L65.5273 37.9883L68.6523 34.5703L68.3105 41.1133L68.3105 45.2148C68.3105 46.582 69.2871 47.6562 70.6543 47.8027C72.1191 47.8516 73.3398 46.6797 73.3398 45.2148L73.3398 29.2969C73.3398 27.5391 72.3633 26.5625 70.6055 26.5625L54.5898 26.5625C53.125 26.5625 52.002 27.7344 52.0996 29.1992C52.1484 30.5664 53.1738 31.5918 54.5898 31.5918L58.8867 31.5918L65.332 31.25L61.9141 34.375L50.0488 46.2891C49.4629 46.8262 49.2676 47.4609 49.2676 48.2422C49.2676 49.6582 50.3418 50.6348 51.8066 50.6348Z" fill="#000000" fill-opacity="0.85"/>
 </g>
</svg>
