<?xml version="1.0" encoding="UTF-8"?>
<!--Generator: Apple Native CoreSVG 232.5-->
<!DOCTYPE svg
PUBLIC "-//W3C//DTD SVG 1.1//EN"
       "http://www.w3.org/Graphics/SVG/1.1/DTD/svg11.dtd">
<svg version="1.1" xmlns="http://www.w3.org/2000/svg" xmlns:xlink="http://www.w3.org/1999/xlink" width="90.332" height="106.798">
 <g>
  <rect height="106.798" opacity="0" width="90.332" x="0" y="0"/>
  <path d="M0 53.3747C0 71.7341 4.29688 89.8005 13.9648 99.5173C18.5547 104.156 24.3164 106.89 31.5918 106.744C38.5742 106.597 43.9453 102.154 42.7246 95.3181L39.7461 77.9841C38.7695 72.1736 36.3281 70.0251 30.1758 70.0251L26.9531 70.0251C21.6797 70.0251 20.9473 65.0935 20.9473 53.3747C20.9473 41.656 21.6797 36.7244 26.9531 36.7244L30.1758 36.7244C36.2305 36.7244 38.7207 34.6247 39.7461 28.7654L42.7246 11.4314C43.9453 4.54662 38.5742 0.152088 31.5918 0.00560323C24.3164-0.140881 18.5547 2.59349 13.9648 7.18334C4.29688 16.9001 0 34.9665 0 53.3747Z" fill="#000000" fill-opacity="0.85"/>
  <path d="M42.1387 56.8415L68.4082 56.8415L78.6621 56.3533L68.0176 65.9236L62.8906 71.0505C62.207 71.7341 61.8652 72.6619 61.8652 73.6872C61.8652 75.6892 63.2812 77.0564 65.1855 77.0564C66.1621 77.0564 67.0898 76.6658 67.7734 75.9822L87.8418 55.9626C88.6719 55.1326 89.1113 54.2048 89.1113 53.3747C89.1113 52.5447 88.6719 51.5681 87.8418 50.738L67.7734 30.7673C67.0898 30.0837 66.1621 29.6931 65.1855 29.6931C63.2812 29.6931 61.8652 31.0603 61.8652 33.0134C61.8652 34.0876 62.207 34.9665 62.8906 35.6501L68.0176 40.8259L78.6621 50.3474L68.4082 49.8591L42.1387 49.8591C39.9414 49.8591 38.623 51.5681 38.623 53.3747C38.623 55.1814 39.9414 56.8415 42.1387 56.8415Z" fill="#000000" fill-opacity="0.85"/>
 </g>
</svg>
