<?xml version="1.0" encoding="UTF-8"?>
<!--Generator: Apple Native CoreSVG 232.5-->
<!DOCTYPE svg
PUBLIC "-//W3C//DTD SVG 1.1//EN"
       "http://www.w3.org/Graphics/SVG/1.1/DTD/svg11.dtd">
<svg version="1.1" xmlns="http://www.w3.org/2000/svg" xmlns:xlink="http://www.w3.org/1999/xlink" width="115.137" height="89.8926">
 <g>
  <rect height="89.8926" opacity="0" width="115.137" x="0" y="0"/>
  <path d="M115.137 15.1367L115.137 74.8047C115.137 84.8633 110.059 89.8926 99.8047 89.8926L15.332 89.8926C5.12695 89.8926 0 84.8633 0 74.8047L0 15.1367C0 5.07812 5.12695 0 15.332 0L99.8047 0C110.059 0 115.137 5.07812 115.137 15.1367ZM69.1895 46.1914L45.8496 66.8945L36.5234 58.4961C34.375 56.4941 31.8848 55.5176 29.4922 55.5176C27.3438 55.5176 25 56.4941 22.8516 58.3984L7.86133 71.4844L7.86133 74.4629C7.86133 79.248 10.6934 82.0801 15.4297 82.0801L99.7559 82.0801C104.395 82.0801 107.275 79.248 107.275 74.5605L107.275 67.041L84.8145 46.2402C82.5195 44.0918 79.7363 43.0664 77.0508 43.0664C74.2676 43.0664 71.582 44.043 69.1895 46.1914ZM24.5605 34.1309C24.5605 40.7715 29.9805 46.1914 36.6211 46.1914C43.2129 46.1914 48.6328 40.7715 48.6328 34.1309C48.6328 27.5391 43.2129 22.0703 36.6211 22.0703C29.9805 22.0703 24.5605 27.5391 24.5605 34.1309Z" fill="#000000" fill-opacity="0.85"/>
 </g>
</svg>
