<?xml version="1.0" encoding="UTF-8"?>
<!--Generator: Apple Native CoreSVG 232.5-->
<!DOCTYPE svg
PUBLIC "-//W3C//DTD SVG 1.1//EN"
       "http://www.w3.org/Graphics/SVG/1.1/DTD/svg11.dtd">
<svg version="1.1" xmlns="http://www.w3.org/2000/svg" xmlns:xlink="http://www.w3.org/1999/xlink" width="115.137" height="89.8926">
 <g>
  <rect height="89.8926" opacity="0" width="115.137" x="0" y="0"/>
  <path d="M110.107 72.168L81.1035 44.9219C78.9551 42.9199 76.3672 41.8945 73.7305 41.8945C71.0449 41.8945 68.6523 42.8223 66.4062 44.8242L44.3359 64.5508L35.3027 56.3965C33.252 54.541 31.0059 53.6133 28.7109 53.6133C26.5137 53.6133 24.4141 54.4922 22.4121 56.3477L3.80859 73.1445C4.10156 81.9824 7.71484 86.4746 14.9902 86.4746L96.8262 86.4746C105.664 86.4746 110.107 81.543 110.107 72.168ZM15.332 89.8926L99.8047 89.8926C110.059 89.8926 115.137 84.8633 115.137 74.8047L115.137 15.1367C115.137 5.07812 110.059 0 99.8047 0L15.332 0C5.12695 0 0 5.07812 0 15.1367L0 74.8047C0 84.8633 5.12695 89.8926 15.332 89.8926ZM15.4297 82.0312C10.5469 82.0312 7.86133 79.4434 7.86133 74.3652L7.86133 15.5762C7.86133 10.498 10.5469 7.86133 15.4297 7.86133L99.707 7.86133C104.541 7.86133 107.275 10.498 107.275 15.5762L107.275 74.3652C107.275 79.4434 104.541 82.0312 99.707 82.0312Z" fill="#000000" fill-opacity="0.85"/>
  <path d="M36.377 45.4102C42.6758 45.4102 47.8516 40.2344 47.8516 33.8867C47.8516 27.5879 42.6758 22.3633 36.377 22.3633C30.0293 22.3633 24.8535 27.5879 24.8535 33.8867C24.8535 40.2344 30.0293 45.4102 36.377 45.4102Z" fill="#000000" fill-opacity="0.85"/>
 </g>
</svg>
