<?xml version="1.0" encoding="UTF-8"?>
<!--Generator: Apple Native CoreSVG 232.5-->
<!DOCTYPE svg
PUBLIC "-//W3C//DTD SVG 1.1//EN"
       "http://www.w3.org/Graphics/SVG/1.1/DTD/svg11.dtd">
<svg version="1.1" xmlns="http://www.w3.org/2000/svg" xmlns:xlink="http://www.w3.org/1999/xlink" width="99.6094" height="99.6582">
 <g>
  <rect height="99.6582" opacity="0" width="99.6094" x="0" y="0"/>
  <path d="M99.6094 49.8047C99.6094 77.002 77.0508 99.6094 49.8047 99.6094C22.6074 99.6094 0 77.002 0 49.8047C0 22.5586 22.5586 0 49.7559 0C77.002 0 99.6094 22.5586 99.6094 49.8047ZM28.7598 27.6367C23.7793 27.6367 21.1914 30.127 21.1914 35.1074L21.1914 64.6973C21.1914 69.6777 23.7793 72.2168 28.7598 72.2168L70.752 72.2168C75.7812 72.2168 78.3203 69.6289 78.3203 64.6973L78.3203 35.1074C78.3203 30.127 75.7812 27.6367 70.752 27.6367ZM63.2812 50.5371L73.7305 60.0586L73.7305 64.4531C73.7305 66.4062 72.5586 67.627 70.5566 67.627L28.9551 67.627C26.9531 67.627 25.7812 66.4062 25.7812 64.4531L25.7812 62.2559L32.5195 56.543C33.5938 55.6641 34.7656 55.1758 35.8398 55.1758C37.0117 55.1758 38.2324 55.6641 39.3066 56.5918L43.9941 60.791L55.5176 50.5371C56.6895 49.5117 58.0078 48.9258 59.4238 48.9746C60.7422 48.9258 62.1582 49.5117 63.2812 50.5371ZM45.3125 44.5312C45.3125 47.8516 42.627 50.5371 39.3555 50.5371C36.0352 50.5371 33.3496 47.8516 33.3496 44.5312C33.3496 41.2598 36.0352 38.5742 39.3555 38.5742C42.627 38.5742 45.3125 41.2598 45.3125 44.5312Z" fill="#000000" fill-opacity="0.85"/>
 </g>
</svg>
