<?xml version="1.0" encoding="UTF-8"?>
<!--Generator: Apple Native CoreSVG 232.5-->
<!DOCTYPE svg
PUBLIC "-//W3C//DTD SVG 1.1//EN"
       "http://www.w3.org/Graphics/SVG/1.1/DTD/svg11.dtd">
<svg version="1.1" xmlns="http://www.w3.org/2000/svg" xmlns:xlink="http://www.w3.org/1999/xlink" width="124.466" height="106.211">
 <g>
  <rect height="106.211" opacity="0" width="124.466" x="0" y="0"/>
  <path d="M96.2418 12.6515L98.6382 26.2258L90.6618 26.2258L88.5758 14.4093C87.6969 9.42888 84.5231 7.37809 79.7868 8.15934L14.3571 19.6828C9.5231 20.5617 7.32583 23.589 8.20474 28.6183L16.0661 73.1496C16.945 78.13 20.07 80.2297 24.8551 79.3996L27.1501 78.9957L27.1501 86.9826L26.1247 87.1633C16.0172 88.9211 10.109 84.8195 8.40005 74.9074L0.392239 29.5461C-1.36557 19.634 2.78482 13.7746 12.8434 11.9679L78.5661 0.395673C88.5758-1.36214 94.5329 2.73942 96.2418 12.6515Z" fill="#000000" fill-opacity="0.85"/>
  <path d="M42.4333 102.544L109.181 102.544C119.338 102.544 124.465 97.466 124.465 87.4074L124.465 41.3625C124.465 31.3039 119.338 26.2258 109.181 26.2258L42.4333 26.2258C32.2282 26.2258 27.1501 31.3039 27.1501 41.3625L27.1501 87.4074C27.1501 97.5148 32.2282 102.544 42.4333 102.544ZM42.5797 94.6828C37.6969 94.6828 35.0114 92.0949 35.0114 87.0168L35.0114 41.8019C35.0114 36.7238 37.6969 34.0871 42.5797 34.0871L109.035 34.0871C113.869 34.0871 116.603 36.7238 116.603 41.8019L116.603 87.0168C116.603 92.0949 113.869 94.6828 109.035 94.6828ZM42.6286 99.9562L107.961 99.9562C116.506 99.9562 120.998 95.6593 120.998 87.1144L120.998 83.9894L98.3903 62.6027C96.486 60.8449 94.1422 59.966 91.7497 59.966C89.3571 59.966 87.2086 60.7472 85.1579 62.5539L65.4313 80.0343L57.6188 72.9543C55.7145 71.2453 53.7614 70.464 51.6618 70.464C49.7575 70.464 47.902 71.2453 46.0465 72.8566L29.5915 87.1633C29.5915 95.6593 34.1325 99.9562 42.6286 99.9562Z" fill="#000000" fill-opacity="0.85"/>
  <path d="M61.9157 63.6769C67.6286 63.6769 72.2672 58.9406 72.2672 53.2277C72.2672 47.6125 67.6286 42.8761 61.9157 42.8761C56.2028 42.8761 51.6129 47.6125 51.6129 53.2277C51.6129 58.9406 56.2028 63.6769 61.9157 63.6769Z" fill="#000000" fill-opacity="0.85"/>
 </g>
</svg>
