<?xml version="1.0" encoding="UTF-8"?>
<!--Generator: Apple Native CoreSVG 232.5-->
<!DOCTYPE svg
PUBLIC "-//W3C//DTD SVG 1.1//EN"
       "http://www.w3.org/Graphics/SVG/1.1/DTD/svg11.dtd">
<svg version="1.1" xmlns="http://www.w3.org/2000/svg" xmlns:xlink="http://www.w3.org/1999/xlink" width="99.6094" height="99.6582">
 <g>
  <rect height="99.6582" opacity="0" width="99.6094" x="0" y="0"/>
  <path d="M49.8047 99.6094C77.0508 99.6094 99.6094 77.002 99.6094 49.8047C99.6094 22.5586 77.002 0 49.7559 0C22.5586 0 0 22.5586 0 49.8047C0 77.002 22.6074 99.6094 49.8047 99.6094ZM49.8047 91.3086C26.7578 91.3086 8.34961 72.8516 8.34961 49.8047C8.34961 26.7578 26.709 8.30078 49.7559 8.30078C72.8027 8.30078 91.3086 26.7578 91.3086 49.8047C91.3086 72.8516 72.8516 91.3086 49.8047 91.3086Z" fill="#000000" fill-opacity="0.85"/>
  <path d="M22.9004 26.8555C21.582 26.8555 20.7031 27.832 20.7031 29.1504L20.7031 70.5566C20.7031 71.875 21.582 72.8027 22.9004 72.8027L76.6113 72.8027C77.9785 72.8027 78.8574 71.875 78.8574 70.5566L78.8574 29.1504C78.8574 27.832 77.9785 26.8555 76.6113 26.8555ZM24.6582 68.2617L24.6582 31.3965C24.6582 31.0059 24.7559 30.957 25.1465 30.957L74.3652 30.957C74.8047 30.957 74.8535 31.0059 74.8535 31.3965L74.8535 68.2617C74.8535 68.7012 74.8047 68.75 74.3652 68.75L25.1465 68.75C24.7559 68.75 24.6582 68.7012 24.6582 68.2617ZM27.5879 64.0625C27.5879 65.1855 28.2715 65.8691 29.3457 65.8691L70.166 65.8691C71.2891 65.8691 71.9238 65.1855 71.9238 64.0625L71.9238 35.5957C71.9238 34.5215 71.2891 33.8379 70.166 33.8379L29.3457 33.8379C28.2715 33.8379 27.5879 34.5215 27.5879 35.5957ZM30.7129 58.3984L30.7129 37.1582C30.7129 36.9629 30.7617 36.9629 30.8594 36.9629L68.6523 36.9629C68.8477 36.9629 68.7988 36.9629 68.7988 37.1582L68.7988 58.4473L58.9355 49.2188C58.0566 48.4375 56.9824 47.998 55.9082 47.998C54.7363 47.998 53.7598 48.3398 52.832 49.1211L44.6289 56.543L41.3574 53.6133C40.5762 52.8809 39.5508 52.4414 38.623 52.4414C37.6465 52.4414 36.8164 52.8809 35.9863 53.5645ZM36.7676 45.2637C36.7676 47.8516 38.916 50 41.5527 50C44.1895 50 46.3379 47.8516 46.3379 45.2637C46.3379 42.5781 44.1895 40.4785 41.5527 40.4785C38.916 40.4785 36.7676 42.5781 36.7676 45.2637Z" fill="#000000" fill-opacity="0.85"/>
 </g>
</svg>
