<?xml version="1.0" encoding="UTF-8"?>
<!--Generator: Apple Native CoreSVG 232.5-->
<!DOCTYPE svg
PUBLIC "-//W3C//DTD SVG 1.1//EN"
       "http://www.w3.org/Graphics/SVG/1.1/DTD/svg11.dtd">
<svg version="1.1" xmlns="http://www.w3.org/2000/svg" xmlns:xlink="http://www.w3.org/1999/xlink" width="99.6094" height="99.6582">
 <g>
  <rect height="99.6582" opacity="0" width="99.6094" x="0" y="0"/>
  <path d="M49.8047 99.6094C77.0508 99.6094 99.6094 77.002 99.6094 49.8047C99.6094 22.5586 77.002 0 49.7559 0C22.5586 0 0 22.5586 0 49.8047C0 77.002 22.6074 99.6094 49.8047 99.6094ZM49.8047 91.3086C26.7578 91.3086 8.34961 72.8516 8.34961 49.8047C8.34961 26.7578 26.709 8.30078 49.7559 8.30078C72.8027 8.30078 91.3086 26.7578 91.3086 49.8047C91.3086 72.8516 72.8516 91.3086 49.8047 91.3086Z" fill="#000000" fill-opacity="0.85"/>
  <path d="M49.0723 50.1465L57.0801 42.2363C61.8652 37.5488 61.9141 31.3477 57.3242 26.9043C52.7344 22.3145 46.6309 22.4121 41.9434 27.1484L34.0332 35.0586ZM46.2891 52.9785L31.2012 37.8906L23.2422 45.8984C18.5547 50.6836 18.4082 56.7871 22.9004 61.3281C27.4902 65.8203 33.5938 65.6738 38.2812 60.9863ZM78.2227 59.4238C77.3438 53.0273 71.7773 48.0469 64.9902 48.0469C58.3008 48.0469 52.7344 53.0273 51.8066 59.4238ZM78.2227 63.3789L51.8066 63.3789C52.7344 69.7266 58.3008 74.707 64.9902 74.707C71.8262 74.707 77.3438 69.7266 78.2227 63.3789Z" fill="#000000" fill-opacity="0.85"/>
 </g>
</svg>
