<?xml version="1.0" encoding="UTF-8"?>
<!--Generator: Apple Native CoreSVG 232.5-->
<!DOCTYPE svg
PUBLIC "-//W3C//DTD SVG 1.1//EN"
       "http://www.w3.org/Graphics/SVG/1.1/DTD/svg11.dtd">
<svg version="1.1" xmlns="http://www.w3.org/2000/svg" xmlns:xlink="http://www.w3.org/1999/xlink" width="75.8301" height="116.846">
 <g>
  <rect height="116.846" opacity="0" width="75.8301" x="0" y="0"/>
  <path d="M37.9395 116.846C39.1113 116.846 42.2363 110.645 42.2363 103.174L42.2363 76.3672L33.5938 76.3672L33.5938 103.174C33.5938 110.645 36.7188 116.846 37.9395 116.846ZM7.17773 80.3711L68.6523 80.3711C73.0469 80.3711 75.8301 77.6367 75.8301 73.4863C75.8301 59.1309 59.8145 44.6289 37.9395 44.6289C16.0156 44.6289 0 59.1309 0 73.4863C0 77.6367 2.7832 80.3711 7.17773 80.3711ZM9.13086 72.998C8.00781 72.998 7.51953 72.3633 7.71484 71.0449C8.78906 62.2559 20.0195 51.7578 37.9395 51.7578C55.8105 51.7578 67.041 62.2559 68.1152 71.0449C68.3105 72.3633 67.8223 72.998 66.6992 72.998ZM6.20117 8.20312C6.20117 9.61914 6.78711 11.2793 8.05664 12.9395C10.5469 16.2598 16.4551 20.8496 22.6074 24.9023L20.8008 50.6836L28.6133 50.6836L30.4199 21.2891C30.4688 20.6055 30.3711 20.3613 29.8828 20.1172C22.5586 16.3574 16.8945 11.9141 16.5039 10.9375C16.1133 10.3027 16.5039 9.91211 17.041 9.91211L58.7891 9.91211C59.3262 9.91211 59.7168 10.3027 59.3262 10.9375C58.9355 11.9141 53.2715 16.3574 45.9473 20.1172C45.5078 20.3613 45.3613 20.6055 45.459 21.2891L47.2168 50.6836L55.0293 50.6836L53.2227 24.9023C59.4238 20.8496 65.2832 16.2598 67.7734 12.9395C69.0918 11.2793 69.6777 9.61914 69.6777 8.20312C69.6777 5.22461 67.3828 3.02734 63.9648 3.02734L11.9141 3.02734C8.44727 3.02734 6.20117 5.22461 6.20117 8.20312Z" fill="#000000" fill-opacity="0.85"/>
 </g>
</svg>
