<?xml version="1.0" encoding="UTF-8"?>
<!--Generator: Apple Native CoreSVG 232.5-->
<!DOCTYPE svg
PUBLIC "-//W3C//DTD SVG 1.1//EN"
       "http://www.w3.org/Graphics/SVG/1.1/DTD/svg11.dtd">
<svg version="1.1" xmlns="http://www.w3.org/2000/svg" xmlns:xlink="http://www.w3.org/1999/xlink" width="89.8926" height="89.9902">
 <g>
  <rect height="89.9902" opacity="0" width="89.8926" x="0" y="0"/>
  <path d="M15.332 89.9902L74.5605 89.9902C84.8145 89.9902 89.8926 84.9121 89.8926 74.8535L89.8926 15.2344C89.8926 5.17578 84.8145 0.0976562 74.5605 0.0976562L15.332 0.0976562C5.12695 0.0976562 0 5.12695 0 15.2344L0 74.8535C0 84.9609 5.12695 89.9902 15.332 89.9902ZM15.4297 82.1289C10.5469 82.1289 7.86133 79.541 7.86133 74.4629L7.86133 15.625C7.86133 10.5469 10.5469 7.95898 15.4297 7.95898L74.4629 7.95898C79.2969 7.95898 82.0312 10.5469 82.0312 15.625L82.0312 74.4629C82.0312 79.541 79.2969 82.1289 74.4629 82.1289Z" fill="#000000" fill-opacity="0.85"/>
  <path d="M25.7812 54.248C25.7812 56.3965 27.1973 57.7148 29.3945 57.7148L41.9922 57.7148L41.9922 66.4551C41.9922 71.7773 44.1406 76.1719 45.0195 76.1719C45.8984 76.1719 48.0469 71.7773 48.0469 66.4551L48.0469 57.7148L60.6445 57.7148C62.8906 57.7148 64.2578 56.3965 64.2578 54.248C64.2578 49.0723 60.0586 43.5059 53.125 41.0156L52.2949 29.541C55.8594 27.5391 58.7891 25.2441 60.1074 23.584C60.7422 22.7051 61.084 21.8262 61.084 21.0449C61.084 19.5312 59.9121 18.457 58.1543 18.457L31.8848 18.457C30.127 18.457 28.9551 19.5312 28.9551 21.0449C28.9551 21.8262 29.2969 22.7539 30.0293 23.6328C31.3477 25.293 34.2285 27.5879 37.7441 29.541L36.9629 41.0156C29.9805 43.5059 25.7812 49.0723 25.7812 54.248Z" fill="#000000" fill-opacity="0.85"/>
 </g>
</svg>
