<?xml version="1.0" encoding="UTF-8"?>
<!--Generator: Apple Native CoreSVG 232.5-->
<!DOCTYPE svg
PUBLIC "-//W3C//DTD SVG 1.1//EN"
       "http://www.w3.org/Graphics/SVG/1.1/DTD/svg11.dtd">
<svg version="1.1" xmlns="http://www.w3.org/2000/svg" xmlns:xlink="http://www.w3.org/1999/xlink" width="75.8301" height="116.846">
 <g>
  <rect height="116.846" opacity="0" width="75.8301" x="0" y="0"/>
  <path d="M0 73.4863C0 77.6367 2.7832 80.3711 7.17773 80.3711L33.5938 80.3711L33.5938 103.174C33.5938 110.645 36.7188 116.846 37.9395 116.846C39.1113 116.846 42.2363 110.645 42.2363 103.174L42.2363 80.3711L68.6523 80.3711C73.0469 80.3711 75.8301 77.6367 75.8301 73.4863C75.8301 63.1836 67.5781 52.2949 53.8574 47.3145L52.2461 24.9023C59.375 20.8496 65.2344 16.2598 67.7734 12.9883C69.043 11.3281 69.6777 9.66797 69.6777 8.20312C69.6777 5.22461 67.3828 3.02734 63.9648 3.02734L11.9141 3.02734C8.44727 3.02734 6.20117 5.22461 6.20117 8.20312C6.20117 9.66797 6.78711 11.3281 8.05664 12.9883C10.5957 16.2598 16.4551 20.8496 23.584 24.9023L21.9727 47.3145C8.25195 52.2949 0 63.1836 0 73.4863Z" fill="#000000" fill-opacity="0.85"/>
 </g>
</svg>
