<?xml version="1.0" encoding="UTF-8"?>
<!--Generator: Apple Native CoreSVG 232.5-->
<!DOCTYPE svg
PUBLIC "-//W3C//DTD SVG 1.1//EN"
       "http://www.w3.org/Graphics/SVG/1.1/DTD/svg11.dtd">
<svg version="1.1" xmlns="http://www.w3.org/2000/svg" xmlns:xlink="http://www.w3.org/1999/xlink" width="126.514" height="102.393">
 <g>
  <rect height="102.393" opacity="0" width="126.514" x="0" y="0"/>
  <path d="M101.855 15.2344L101.855 40.4785L93.9941 40.4785L93.9941 15.6738C93.9941 10.5957 91.2598 7.95898 86.4258 7.95898L15.4297 7.95898C10.5469 7.95898 7.86133 10.5957 7.86133 15.6738L7.86133 64.209C7.86133 69.2871 10.6445 71.9238 15.4297 71.9238L47.9004 71.9238L47.9004 79.7852L15.332 79.7852C5.07812 79.7852 0 74.707 0 64.6484L0 15.2344C0 5.17578 5.07812 0.0976562 15.332 0.0976562L86.5723 0.0976562C96.7773 0.0976562 101.855 5.17578 101.855 15.2344Z" fill="#000000" fill-opacity="0.85"/>
  <path d="M63.2324 102.393L111.23 102.393C121.387 102.393 126.514 97.3145 126.514 87.2559L126.514 55.6152C126.514 45.5566 121.387 40.4785 111.23 40.4785L63.2324 40.4785C53.0273 40.4785 47.9004 45.5078 47.9004 55.6152L47.9004 87.2559C47.9004 97.3145 53.0273 102.393 63.2324 102.393ZM63.3301 94.5312C58.4473 94.5312 55.7617 91.8945 55.7617 86.8164L55.7617 56.0059C55.7617 50.9277 58.4473 48.3398 63.3301 48.3398L111.084 48.3398C115.918 48.3398 118.652 50.9277 118.652 56.0059L118.652 86.8164C118.652 91.8945 115.918 94.5312 111.084 94.5312Z" fill="#000000" fill-opacity="0.85"/>
 </g>
</svg>
