<?xml version="1.0" encoding="UTF-8"?>
<!--Generator: Apple Native CoreSVG 232.5-->
<!DOCTYPE svg
PUBLIC "-//W3C//DTD SVG 1.1//EN"
       "http://www.w3.org/Graphics/SVG/1.1/DTD/svg11.dtd">
<svg version="1.1" xmlns="http://www.w3.org/2000/svg" xmlns:xlink="http://www.w3.org/1999/xlink" width="126.514" height="102.393">
 <g>
  <rect height="102.393" opacity="0" width="126.514" x="0" y="0"/>
  <path d="M101.855 15.2344L101.855 40.4785L93.9941 40.4785L93.9941 15.6738C93.9941 10.5957 91.2598 7.95898 86.4258 7.95898L15.4297 7.95898C10.5469 7.95898 7.86133 10.5957 7.86133 15.6738L7.86133 64.209C7.86133 69.2871 10.6445 71.9238 15.4297 71.9238L47.9004 71.9238L47.9004 79.7852L15.332 79.7852C5.07812 79.7852 0 74.707 0 64.6484L0 15.2344C0 5.17578 5.07812 0.0976562 15.332 0.0976562L86.5723 0.0976562C96.7773 0.0976562 101.855 5.17578 101.855 15.2344Z" fill="#000000" fill-opacity="0.85"/>
  <path d="M126.514 55.6152L126.514 87.2559C126.514 97.3145 121.387 102.393 111.23 102.393L63.2324 102.393C53.0273 102.393 47.9004 97.3145 47.9004 87.2559L47.9004 55.6152C47.9004 45.5078 53.0273 40.4785 63.2324 40.4785L111.23 40.4785C121.387 40.4785 126.514 45.5566 126.514 55.6152ZM97.8027 55.4199L87.1582 65.9668L76.6113 55.4688C75.8301 54.7363 75 54.2969 73.9258 54.2969C71.7285 54.2969 69.9707 56.0059 69.9707 58.1543C69.9707 59.2285 70.459 60.1074 71.1914 60.8887L81.6406 71.4355L71.1914 81.9824C70.459 82.7148 69.9707 83.6426 69.9707 84.668C69.9707 86.8652 71.7285 88.623 73.9258 88.623C75 88.623 75.9766 88.2324 76.709 87.4512L87.1582 76.9531L97.6562 87.4512C98.3887 88.1836 99.3652 88.623 100.488 88.623C102.637 88.623 104.395 86.8652 104.395 84.668C104.395 83.5938 103.955 82.666 103.223 81.9336L92.7246 71.4355L103.271 60.8398C104.053 60.0098 104.443 59.1797 104.443 58.1055C104.443 55.957 102.686 54.1992 100.537 54.1992C99.5117 54.1992 98.6328 54.6387 97.8027 55.4199Z" fill="#000000" fill-opacity="0.85"/>
 </g>
</svg>
