<?xml version="1.0" encoding="UTF-8"?>
<!--Generator: Apple Native CoreSVG 232.5-->
<!DOCTYPE svg
PUBLIC "-//W3C//DTD SVG 1.1//EN"
       "http://www.w3.org/Graphics/SVG/1.1/DTD/svg11.dtd">
<svg version="1.1" xmlns="http://www.w3.org/2000/svg" xmlns:xlink="http://www.w3.org/1999/xlink" width="126.514" height="102.393">
 <g>
  <rect height="102.393" opacity="0" width="126.514" x="0" y="0"/>
  <path d="M101.855 15.2344L101.855 40.4785L93.9941 40.4785L93.9941 15.6738C93.9941 10.5957 91.2598 7.95898 86.4258 7.95898L15.4297 7.95898C10.5469 7.95898 7.86133 10.5957 7.86133 15.6738L7.86133 64.209C7.86133 69.2871 10.6445 71.9238 15.4297 71.9238L47.9004 71.9238L47.9004 79.7852L15.332 79.7852C5.07812 79.7852 0 74.707 0 64.6484L0 15.2344C0 5.17578 5.07812 0.0976562 15.332 0.0976562L86.5723 0.0976562C96.7773 0.0976562 101.855 5.17578 101.855 15.2344Z" fill="#000000" fill-opacity="0.85"/>
  <path d="M21.0449 17.041L29.0039 25.0488L34.4238 19.6777C36.377 17.7734 38.1836 19.3848 38.4277 20.8984L41.1621 38.5254C41.3086 39.4043 41.0156 40.1855 40.4785 40.7715C39.8926 41.3086 39.1113 41.6016 38.2324 41.4551L20.6055 38.7207C19.0918 38.4766 17.4805 36.6699 19.3848 34.7168L24.707 29.2969L16.748 21.3379C15.5762 20.166 15.5762 18.2129 16.748 17.041C17.9199 15.8691 19.873 15.8691 21.0449 17.041Z" fill="#000000" fill-opacity="0.85"/>
  <path d="M126.514 55.6152L126.514 87.2559C126.514 97.3145 121.387 102.393 111.23 102.393L63.2324 102.393C53.0273 102.393 47.9004 97.3145 47.9004 87.2559L47.9004 55.6152C47.9004 45.5078 53.0273 40.4785 63.2324 40.4785L111.23 40.4785C121.387 40.4785 126.514 45.5566 126.514 55.6152ZM62.5488 53.1738C62.0117 53.7598 61.7676 54.541 61.8652 55.4199L64.5996 73.0469C64.7949 74.5605 66.748 76.2207 68.6035 74.2676L74.0234 68.8965L81.9824 76.9043C83.2031 78.0762 85.1074 78.0762 86.2793 76.9043C87.4512 75.7324 87.4512 73.7793 86.2793 72.6074L78.3203 64.6484L83.6426 59.2285C85.5957 57.3242 83.9355 55.4199 82.4219 55.2246L64.7949 52.4902C63.9648 52.3438 63.1348 52.6367 62.5488 53.1738Z" fill="#000000" fill-opacity="0.85"/>
 </g>
</svg>
