<?xml version="1.0" encoding="UTF-8"?>
<!--Generator: Apple Native CoreSVG 232.5-->
<!DOCTYPE svg
PUBLIC "-//W3C//DTD SVG 1.1//EN"
       "http://www.w3.org/Graphics/SVG/1.1/DTD/svg11.dtd">
<svg version="1.1" xmlns="http://www.w3.org/2000/svg" xmlns:xlink="http://www.w3.org/1999/xlink" width="62.7441" height="103.467">
 <g>
  <rect height="103.467" opacity="0" width="62.7441" x="0" y="0"/>
  <path d="M0 90.6738C0 98.291 5.32227 103.369 13.2812 103.369L49.4629 103.369C57.4219 103.369 62.7441 98.291 62.7441 90.6738L62.7441 12.6953C62.7441 5.07812 57.4219 0 49.4629 0L13.2812 0C5.32227 0 0 5.07812 0 12.6953ZM7.86133 89.4043L7.86133 13.9648C7.86133 10.0586 10.1562 7.86133 14.3066 7.86133L48.4863 7.86133C52.5879 7.86133 54.8828 10.0586 54.8828 13.9648L54.8828 89.4043C54.8828 93.3105 52.5879 95.5078 48.4863 95.5078L14.3066 95.5078C10.1562 95.5078 7.86133 93.3105 7.86133 89.4043Z" fill="#000000" fill-opacity="0.85"/>
  <path d="M18.3594 57.5684C18.3594 58.252 18.5059 58.9355 18.9941 59.4238L29.3457 69.6777C29.9316 70.2637 30.6641 70.6055 31.3965 70.6055C32.0801 70.6055 32.8125 70.2637 33.3984 69.6777L43.75 59.4238C44.2383 58.9355 44.4336 58.252 44.4336 57.5684C44.4336 56.0059 43.3594 54.9805 41.8457 54.9805C41.0645 54.9316 40.4785 55.2734 39.9414 55.7617L36.5234 59.1797L33.8379 62.5488L34.0332 56.2988L34.0332 42.5293C34.0332 41.0156 32.959 39.8926 31.3965 39.8926C29.834 39.8926 28.7109 41.0156 28.7109 42.5293L28.7109 56.2988L28.9551 62.5488L26.2695 59.1797L22.8027 55.7617C22.2656 55.2734 21.6797 54.9316 20.8984 54.9805C19.4336 54.9805 18.3594 56.0059 18.3594 57.5684ZM18.457 89.3066L44.3359 89.3066C46.9238 89.3066 48.6816 87.5488 48.6816 84.8633L48.6816 79.0527C48.6816 76.3184 46.9238 74.6094 44.3359 74.6094L18.457 74.6094C15.8203 74.6094 14.1113 76.3184 14.1113 79.0527L14.1113 84.8633C14.1113 87.5488 15.8203 89.3066 18.457 89.3066Z" fill="#000000" fill-opacity="0.85"/>
 </g>
</svg>
