<?xml version="1.0" encoding="UTF-8"?>
<!--Generator: Apple Native CoreSVG 232.5-->
<!DOCTYPE svg
PUBLIC "-//W3C//DTD SVG 1.1//EN"
       "http://www.w3.org/Graphics/SVG/1.1/DTD/svg11.dtd">
<svg version="1.1" xmlns="http://www.w3.org/2000/svg" xmlns:xlink="http://www.w3.org/1999/xlink" width="62.7441" height="103.467">
 <g>
  <rect height="103.467" opacity="0" width="62.7441" x="0" y="0"/>
  <path d="M0 90.6738C0 98.291 5.32227 103.369 13.2812 103.369L49.4629 103.369C57.4219 103.369 62.7441 98.291 62.7441 90.6738L62.7441 12.6953C62.7441 5.07812 57.4219 0 49.4629 0L13.2812 0C5.32227 0 0 5.07812 0 12.6953ZM7.86133 89.4043L7.86133 13.9648C7.86133 10.0586 10.1562 7.86133 14.3066 7.86133L48.4863 7.86133C52.5879 7.86133 54.8828 10.0586 54.8828 13.9648L54.8828 89.4043C54.8828 93.3105 52.5879 95.5078 48.4863 95.5078L14.3066 95.5078C10.1562 95.5078 7.86133 93.3105 7.86133 89.4043Z" fill="#000000" fill-opacity="0.85"/>
  <path d="M18.457 89.3066L44.3359 89.3066C46.9238 89.3066 48.6816 87.5488 48.6816 84.8633L48.6816 79.0527C48.6816 76.3184 46.9238 74.6094 44.3359 74.6094L18.457 74.6094C15.8203 74.6094 14.1113 76.3184 14.1113 79.0527L14.1113 84.8633C14.1113 87.5488 15.8203 89.3066 18.457 89.3066Z" fill="#000000" fill-opacity="0.85"/>
 </g>
</svg>
