<?xml version="1.0" encoding="UTF-8"?>
<!--Generator: Apple Native CoreSVG 232.5-->
<!DOCTYPE svg
PUBLIC "-//W3C//DTD SVG 1.1//EN"
       "http://www.w3.org/Graphics/SVG/1.1/DTD/svg11.dtd">
<svg version="1.1" xmlns="http://www.w3.org/2000/svg" xmlns:xlink="http://www.w3.org/1999/xlink" width="116.406" height="101.807">
 <g>
  <rect height="101.807" opacity="0" width="116.406" x="0" y="0"/>
  <path d="M11.2305 84.4727L105.127 84.4727C112.158 84.4727 116.406 80.2246 116.406 73.1934L116.406 14.6484C116.406 7.61719 112.158 3.41797 105.127 3.41797L11.2305 3.41797C4.24805 3.41797 0 7.61719 0 14.6484L0 73.1934C0 80.2246 4.24805 84.4727 11.2305 84.4727ZM9.96094 62.9395C8.49609 62.9395 7.86133 62.4023 7.86133 60.8398L7.86133 14.7949C7.86133 12.5977 9.22852 11.2793 11.377 11.2793L105.029 11.2793C107.178 11.2793 108.545 12.5977 108.545 14.7949L108.545 60.8398C108.545 62.4023 107.861 62.9395 106.396 62.9395ZM42.7734 96.0938L73.6328 96.0938L73.6328 83.8379L42.7734 83.8379ZM42.4805 101.807L73.9258 101.807C76.0742 101.807 77.832 100.049 77.832 97.8516C77.832 95.6543 76.0742 93.8965 73.9258 93.8965L42.4805 93.8965C40.332 93.8965 38.5254 95.6543 38.5254 97.8516C38.5254 100.049 40.332 101.807 42.4805 101.807Z" fill="#000000" fill-opacity="0.85"/>
  <path d="M46.0938 53.2227C46.0938 55.2246 48.1934 56.0059 49.8535 55.0293L76.0254 39.6484C77.6367 38.6719 77.5879 36.5234 75.9766 35.5957L49.8535 20.2148C48.1934 19.2383 46.0938 19.9707 46.0938 22.0215Z" fill="#000000" fill-opacity="0.85"/>
 </g>
</svg>
