<?xml version="1.0" encoding="UTF-8"?>
<!--Generator: Apple Native CoreSVG 232.5-->
<!DOCTYPE svg
PUBLIC "-//W3C//DTD SVG 1.1//EN"
       "http://www.w3.org/Graphics/SVG/1.1/DTD/svg11.dtd">
<svg version="1.1" xmlns="http://www.w3.org/2000/svg" xmlns:xlink="http://www.w3.org/1999/xlink" width="115.137" height="89.8926">
 <g>
  <rect height="89.8926" opacity="0" width="115.137" x="0" y="0"/>
  <path d="M115.137 15.1367L115.137 74.8047C115.137 84.8633 110.059 89.8926 99.8047 89.8926L15.332 89.8926C5.12695 89.8926 0 84.8633 0 74.8047L0 15.1367C0 5.07812 5.12695 0 15.332 0L99.8047 0C110.059 0 115.137 5.07812 115.137 15.1367ZM43.2617 27.4902L43.2617 62.5C43.2617 64.9414 45.9961 66.0645 48.291 64.6484L77.002 47.7539C79.1016 46.4844 79.0527 43.5547 77.002 42.334L48.291 25.3418C46.1914 24.0723 43.2617 25.0977 43.2617 27.4902Z" fill="#000000" fill-opacity="0.85"/>
 </g>
</svg>
