<?xml version="1.0" encoding="UTF-8"?>
<!--Generator: Apple Native CoreSVG 232.5-->
<!DOCTYPE svg
PUBLIC "-//W3C//DTD SVG 1.1//EN"
       "http://www.w3.org/Graphics/SVG/1.1/DTD/svg11.dtd">
<svg version="1.1" xmlns="http://www.w3.org/2000/svg" xmlns:xlink="http://www.w3.org/1999/xlink" width="146.68" height="79.541">
 <g>
  <rect height="79.541" opacity="0" width="146.68" x="0" y="0"/>
  <path d="M90.1367 79.541L101.27 79.541C105.518 79.541 107.764 77.2949 107.764 72.998L107.764 6.49414C107.764 2.05078 105.518 0 101.27 0L90.1367 0C85.8887 0 83.6426 2.24609 83.6426 6.49414L83.6426 72.998C83.6426 77.2949 85.8887 79.541 90.1367 79.541ZM129.102 79.541L140.186 79.541C144.482 79.541 146.68 77.2949 146.68 72.998L146.68 6.49414C146.68 2.05078 144.482 0 140.186 0L129.102 0C124.805 0 122.607 2.24609 122.607 6.49414L122.607 72.998C122.607 77.2949 124.805 79.541 129.102 79.541ZM7.03125 78.0762C9.0332 78.0762 10.6445 77.4414 12.6465 76.2695L62.4023 47.0215C65.8691 44.9707 67.334 42.5293 67.334 39.7461C67.334 36.9141 65.8691 34.5215 62.4023 32.4707L12.6465 3.17383C10.6445 2.00195 9.0332 1.36719 7.03125 1.36719C3.17383 1.36719 0 4.29688 0 9.76562L0 69.7266C0 75.1953 3.17383 78.0762 7.03125 78.0762Z" fill="#000000" fill-opacity="0.85"/>
 </g>
</svg>
