<?xml version="1.0" encoding="UTF-8"?>
<!--Generator: Apple Native CoreSVG 232.5-->
<!DOCTYPE svg
PUBLIC "-//W3C//DTD SVG 1.1//EN"
       "http://www.w3.org/Graphics/SVG/1.1/DTD/svg11.dtd">
<svg version="1.1" xmlns="http://www.w3.org/2000/svg" xmlns:xlink="http://www.w3.org/1999/xlink" width="95.2393" height="97.1558">
 <g>
  <rect height="97.1558" opacity="0" width="95.2393" x="0" y="0"/>
  <path d="M24.0356 37.4407L24.0356 80.0476C24.0356 80.4383 24.231 80.6336 24.5239 80.6336C24.7192 80.6336 24.9146 80.5359 25.1099 80.4383L51.6833 65.0511L57.4442 70.8042L27.6001 88.0554C25.647 89.1785 23.9868 89.9597 22.0337 89.9597C18.4204 89.9597 16.1743 87.1765 16.1743 82.9285L16.1743 29.59ZM27.6001 9.1492L84.5337 42.1082C88.5864 44.4519 90.0024 46.0144 90.0024 48.6023C90.0024 51.1902 88.5864 52.7527 84.5337 55.1453L74.4096 60.9975L68.6405 55.2322L79.1626 49.1394C79.4067 49.0418 79.6021 48.8465 79.6021 48.6023C79.6021 48.3582 79.4067 48.2117 79.1626 48.0652L37.181 23.794L20.7888 7.41289C21.1821 7.3335 21.598 7.29373 22.0337 7.29373C23.9868 7.29373 25.647 8.02615 27.6001 9.1492Z" fill="#000000" fill-opacity="0.85"/>
  <path d="M79.0649 84.2957C80.5298 85.7605 82.9712 85.7605 84.3872 84.2957C85.8032 82.8308 85.8521 80.4383 84.3872 78.9734L12.1704 6.80545C10.7056 5.34061 8.26416 5.34061 6.79932 6.80545C5.3833 8.22147 5.3833 10.7117 6.79932 12.1277Z" fill="#000000" fill-opacity="0.85"/>
 </g>
</svg>
