<?xml version="1.0" encoding="UTF-8"?>
<!--Generator: Apple Native CoreSVG 232.5-->
<!DOCTYPE svg
PUBLIC "-//W3C//DTD SVG 1.1//EN"
       "http://www.w3.org/Graphics/SVG/1.1/DTD/svg11.dtd">
<svg version="1.1" xmlns="http://www.w3.org/2000/svg" xmlns:xlink="http://www.w3.org/1999/xlink" width="134.863" height="112.256">
 <g>
  <rect height="112.256" opacity="0" width="134.863" x="0" y="0"/>
  <path d="M104.053 21.7773L104.053 22.6074L46.1426 22.6074C32.2266 22.6074 24.1699 30.6152 24.1699 44.3848L24.1699 82.959L22.0215 82.959C11.8164 82.959 6.68945 77.9297 6.68945 67.8223L6.68945 21.7773C6.68945 11.7188 11.8164 6.64062 22.0215 6.64062L88.7207 6.64062C98.9258 6.64062 104.053 11.7188 104.053 21.7773Z" fill="#000000" fill-opacity="0.85"/>
  <path d="M128.174 44.3848L128.174 90.4297C128.174 100.488 123.047 105.566 112.842 105.566L46.1426 105.566C35.9375 105.566 30.8105 100.537 30.8105 90.4297L30.8105 44.3848C30.8105 34.3262 35.9375 29.248 46.1426 29.248L112.842 29.248C123.047 29.248 128.174 34.3262 128.174 44.3848ZM65.6738 49.7559L65.6738 85.0586C65.6738 87.3535 68.0664 88.2324 69.9219 87.1094L99.5605 69.6777C101.318 68.6035 101.27 66.1621 99.5117 65.1855L69.9219 47.7051C68.0664 46.6309 65.6738 47.4609 65.6738 49.7559Z" fill="#000000" fill-opacity="0.85"/>
 </g>
</svg>
