<?xml version="1.0" encoding="UTF-8"?>
<!--Generator: Apple Native CoreSVG 232.5-->
<!DOCTYPE svg
PUBLIC "-//W3C//DTD SVG 1.1//EN"
       "http://www.w3.org/Graphics/SVG/1.1/DTD/svg11.dtd">
<svg version="1.1" xmlns="http://www.w3.org/2000/svg" xmlns:xlink="http://www.w3.org/1999/xlink" width="84.7656" height="82.7637">
 <g>
  <rect height="82.7637" opacity="0" width="84.7656" x="0" y="0"/>
  <path d="M16.7969 82.7637C18.75 82.7637 20.4102 81.9824 22.3633 80.8594L79.2969 47.9492C83.3496 45.5566 84.7656 43.9941 84.7656 41.4062C84.7656 38.8184 83.3496 37.2559 79.2969 34.9121L22.3633 1.95312C20.4102 0.830078 18.75 0.0976562 16.7969 0.0976562C13.1836 0.0976562 10.9375 2.83203 10.9375 7.08008L10.9375 75.7324C10.9375 79.9805 13.1836 82.7637 16.7969 82.7637ZM19.2871 73.4375C18.9941 73.4375 18.7988 73.2422 18.7988 72.8516L18.7988 9.96094C18.7988 9.57031 18.9941 9.375 19.2871 9.375C19.4824 9.375 19.6777 9.47266 19.873 9.61914L73.9258 40.8691C74.1699 41.0156 74.3652 41.1621 74.3652 41.4062C74.3652 41.6504 74.1699 41.8457 73.9258 41.9434L19.873 73.2422C19.6777 73.3398 19.4824 73.4375 19.2871 73.4375Z" fill="#000000" fill-opacity="0.85"/>
 </g>
</svg>
