<?xml version="1.0" encoding="UTF-8"?>
<!--Generator: Apple Native CoreSVG 232.5-->
<!DOCTYPE svg
PUBLIC "-//W3C//DTD SVG 1.1//EN"
       "http://www.w3.org/Graphics/SVG/1.1/DTD/svg11.dtd">
<svg version="1.1" xmlns="http://www.w3.org/2000/svg" xmlns:xlink="http://www.w3.org/1999/xlink" width="129.388" height="100.146">
 <g>
  <rect height="100.146" opacity="0" width="129.388" x="0" y="0"/>
  <path d="M48.532 0C57.4676 1.9043 70.2117 5.81055 77.2918 8.1543C95.114 14.1602 101.413 21.7285 101.413 38.9648C101.413 51.416 95.6512 58.0078 87.0086 58.0078C84.1765 58.0078 81.0515 57.2754 77.6824 55.6641L77.6824 24.5605C77.6824 20.9961 77.2918 17.8223 73.825 16.748C70.9441 15.8203 69.5281 18.3105 69.5281 21.7285L69.5281 100.049L48.532 93.4082ZM73.4344 86.4258L73.4344 98.4863L116.403 83.1543C122.8 80.9082 126.803 78.6621 128.268 76.6602C130.661 73.584 129.587 68.75 120.309 65.5762C110.69 62.2559 99.5086 61.1816 90.5242 61.8652C84.9578 62.3047 78.3172 64.1113 73.4344 65.7715L73.4344 78.6621L95.9929 70.5078C99.8015 69.0918 105.173 68.9453 108.493 70.0684C111.569 71.0938 111.276 72.8516 107.272 74.3652ZM7.76053 84.2773C17.2332 87.6465 29.3426 90.3809 44.284 87.1094L44.284 76.2695L34.323 79.9805C30.1726 81.4453 23.5808 81.6895 21.2859 80.957C17.9656 79.834 18.6492 77.6367 23.0437 76.0742L44.284 68.5059L44.284 56.4453L15.0847 66.9922C11.1785 68.4082 7.27225 69.5312 2.78006 72.6074C-2.15158 75.9766-0.540255 81.3477 7.76053 84.2773Z" fill="#000000" fill-opacity="0.85"/>
 </g>
</svg>
