<?xml version="1.0" encoding="UTF-8"?>
<!--Generator: Apple Native CoreSVG 232.5-->
<!DOCTYPE svg
PUBLIC "-//W3C//DTD SVG 1.1//EN"
       "http://www.w3.org/Graphics/SVG/1.1/DTD/svg11.dtd">
<svg version="1.1" xmlns="http://www.w3.org/2000/svg" xmlns:xlink="http://www.w3.org/1999/xlink" width="122.07" height="97.7051">
 <g>
  <rect height="97.7051" opacity="0" width="122.07" x="0" y="0"/>
  <path d="M89.5508 93.6523C89.5508 95.8496 87.7441 97.6074 85.5957 97.6074L36.4746 97.6074C34.3262 97.6074 32.5195 95.8496 32.5195 93.6523C32.5195 91.4551 34.3262 89.6973 36.4746 89.6973L85.5957 89.6973C87.7441 89.6973 89.5508 91.4551 89.5508 93.6523ZM122.07 12.5488L122.07 68.5059C122.07 77.002 117.871 81.0547 109.521 81.0547L12.5488 81.0547C4.24805 81.0547 0 77.002 0 68.5059L0 12.5488C0 4.05273 4.24805 0 12.5488 0L109.521 0C117.871 0 122.07 4.05273 122.07 12.5488ZM44.6289 19.873L44.6289 61.2305C44.6289 63.8672 47.4121 64.7949 49.5117 63.5742L83.3984 43.6035C85.8398 42.1875 85.7422 38.8672 83.3496 37.4512L49.5117 17.5293C47.4121 16.3086 44.6289 17.2363 44.6289 19.873Z" fill="#000000" fill-opacity="0.85"/>
 </g>
</svg>
