<?xml version="1.0" encoding="UTF-8"?>
<!--Generator: Apple Native CoreSVG 232.5-->
<!DOCTYPE svg
PUBLIC "-//W3C//DTD SVG 1.1//EN"
       "http://www.w3.org/Graphics/SVG/1.1/DTD/svg11.dtd">
<svg version="1.1" xmlns="http://www.w3.org/2000/svg" xmlns:xlink="http://www.w3.org/1999/xlink" width="107.617" height="107.275">
 <g>
  <rect height="107.275" opacity="0" width="107.617" x="0" y="0"/>
  <path d="M30.0293 107.275C32.4219 107.275 34.082 106.006 37.0605 103.369L53.9062 88.3789L85.2539 88.3789C99.8047 88.3789 107.617 80.3223 107.617 66.0156L107.617 28.6133C107.617 14.3066 99.8047 6.25 85.2539 6.25L22.3633 6.25C7.8125 6.25 0 14.2578 0 28.6133L0 66.0156C0 80.3711 7.8125 88.3789 22.3633 88.3789L24.707 88.3789L24.707 101.074C24.707 104.834 26.6113 107.275 30.0293 107.275ZM32.0312 98.3398L32.0312 84.1797C32.0312 81.543 31.0059 80.5176 28.3691 80.5176L22.3633 80.5176C12.5 80.5176 7.86133 75.4883 7.86133 65.9668L7.86133 28.6133C7.86133 19.0918 12.5 14.1113 22.3633 14.1113L85.2539 14.1113C95.0684 14.1113 99.7559 19.0918 99.7559 28.6133L99.7559 65.9668C99.7559 75.4883 95.0684 80.5176 85.2539 80.5176L53.6133 80.5176C50.8789 80.5176 49.5117 80.9082 47.6562 82.8125Z" fill="#000000" fill-opacity="0.85"/>
  <path d="M31.2012 47.3145C31.2012 49.707 32.9102 51.3184 35.4004 51.3184L49.7559 51.3184L49.7559 65.7227C49.7559 68.1641 51.416 69.873 53.7598 69.873C56.25 69.873 57.9102 68.2129 57.9102 65.7227L57.9102 51.3184L72.3145 51.3184C74.7559 51.3184 76.4648 49.707 76.4648 47.3145C76.4648 44.873 74.8047 43.1641 72.3145 43.1641L57.9102 43.1641L57.9102 28.8086C57.9102 26.3184 56.25 24.6094 53.7598 24.6094C51.416 24.6094 49.7559 26.3184 49.7559 28.8086L49.7559 43.1641L35.4004 43.1641C32.9102 43.1641 31.2012 44.873 31.2012 47.3145Z" fill="#000000" fill-opacity="0.85"/>
 </g>
</svg>
