<?xml version="1.0" encoding="UTF-8"?>
<!--Generator: Apple Native CoreSVG 232.5-->
<!DOCTYPE svg
PUBLIC "-//W3C//DTD SVG 1.1//EN"
       "http://www.w3.org/Graphics/SVG/1.1/DTD/svg11.dtd">
<svg version="1.1" xmlns="http://www.w3.org/2000/svg" xmlns:xlink="http://www.w3.org/1999/xlink" width="166.064" height="113.721">
 <g>
  <rect height="113.721" opacity="0" width="166.064" x="0" y="0"/>
  <path d="M80.1758 50.7812C80.1758 64.5508 88.2324 72.5586 102.148 72.5586L138.477 72.5586L138.477 86.084C138.477 96.1426 133.398 101.221 124.609 101.221L42.9199 101.221C32.7637 101.221 27.5879 96.1914 27.5879 86.084L27.5879 46.0449L80.1758 46.0449ZM65.5273 15.4785L68.5059 17.9199C70.9961 20.0195 72.9492 20.8008 76.2695 20.8008L80.2139 20.8008C80.181 21.1277 80.1758 21.4751 80.1758 21.8262L80.1758 39.6484L27.5879 39.6484L27.5879 26.5625C27.5879 16.748 32.5195 11.8652 41.0645 11.8652L54.9805 11.8652C59.8145 11.8652 62.3047 12.7441 65.5273 15.4785Z" fill="#000000" fill-opacity="0.85"/>
  <path d="M159.424 21.8262L159.424 50.7812C159.424 60.8398 154.248 65.918 144.092 65.918L102.148 65.918C91.9434 65.918 86.8164 60.8398 86.8164 50.7812L86.8164 21.8262C86.8164 11.7188 91.9434 6.68945 102.148 6.68945L144.092 6.68945C154.248 6.68945 159.424 11.7188 159.424 21.8262ZM120.117 23.7305L120.117 33.3008L110.596 33.3008C108.789 33.3008 107.568 34.4727 107.568 36.2793C107.568 38.0859 108.789 39.2578 110.596 39.2578L120.117 39.2578L120.117 48.8281C120.117 50.6348 121.289 51.8066 123.145 51.8066C124.951 51.8066 126.123 50.6348 126.123 48.8281L126.123 39.2578L135.645 39.2578C137.451 39.2578 138.623 38.0859 138.623 36.2793C138.623 34.4727 137.451 33.3008 135.645 33.3008L126.123 33.3008L126.123 23.7305C126.123 21.9727 124.951 20.752 123.145 20.752C121.289 20.752 120.117 21.9727 120.117 23.7305Z" fill="#000000" fill-opacity="0.85"/>
 </g>
</svg>
