<?xml version="1.0" encoding="UTF-8"?>
<!--Generator: Apple Native CoreSVG 232.5-->
<!DOCTYPE svg
PUBLIC "-//W3C//DTD SVG 1.1//EN"
       "http://www.w3.org/Graphics/SVG/1.1/DTD/svg11.dtd">
<svg version="1.1" xmlns="http://www.w3.org/2000/svg" xmlns:xlink="http://www.w3.org/1999/xlink" width="82.1289" height="104.736">
 <g>
  <rect height="104.736" opacity="0" width="82.1289" x="0" y="0"/>
  <path d="M82.1289 15.332L82.1289 89.4043C82.1289 99.6094 77.0996 104.688 66.9922 104.688L15.1367 104.688C5.0293 104.688 0 99.6094 0 89.4043L0 15.332C0 5.17578 5.0293 0 15.1367 0L66.9922 0C77.0996 0 82.1289 5.17578 82.1289 15.332ZM36.8652 32.8125L36.8652 48.0957L21.582 48.0957C19.043 48.0957 17.2363 49.8535 17.2363 52.3926C17.2363 54.8828 19.043 56.5918 21.582 56.5918L36.8652 56.5918L36.8652 71.9238C36.8652 74.4141 38.5742 76.2207 41.0156 76.2207C43.6035 76.2207 45.3125 74.4141 45.3125 71.9238L45.3125 56.5918L60.6445 56.5918C63.1348 56.5918 64.9414 54.8828 64.9414 52.3926C64.9414 49.8535 63.1836 48.0957 60.6445 48.0957L45.3125 48.0957L45.3125 32.8125C45.3125 30.2734 43.6035 28.5156 41.0156 28.5156C38.5742 28.5156 36.8652 30.2734 36.8652 32.8125Z" fill="#000000" fill-opacity="0.85"/>
 </g>
</svg>
