<?xml version="1.0" encoding="UTF-8"?>
<!--Generator: Apple Native CoreSVG 232.5-->
<!DOCTYPE svg
PUBLIC "-//W3C//DTD SVG 1.1//EN"
       "http://www.w3.org/Graphics/SVG/1.1/DTD/svg11.dtd">
<svg version="1.1" xmlns="http://www.w3.org/2000/svg" xmlns:xlink="http://www.w3.org/1999/xlink" width="92.3828" height="92.2363">
 <g>
  <rect height="92.2363" opacity="0" width="92.3828" x="0" y="0"/>
  <path d="M0 24.5117C0 26.416 1.51367 27.9297 3.4668 27.9297L13.3789 27.9297L13.3789 37.8906C13.3789 39.8438 14.9414 41.3086 16.7969 41.3086C18.75 41.3086 20.2637 39.7949 20.2637 37.8906L20.2637 27.9297L30.2246 27.9297C32.1289 27.9297 33.6914 26.416 33.6914 24.5117C33.6914 22.6074 32.1289 21.0449 30.2246 21.0449L20.2637 21.0449L20.2637 11.084C20.2637 9.17969 18.7012 7.61719 16.7969 7.61719C14.8926 7.61719 13.3789 9.17969 13.3789 11.084L13.3789 21.0449L3.4668 21.0449C1.51367 21.0449 0 22.6074 0 24.5117ZM49.5605 48.0957L77.8809 6.20117C78.5645 5.27344 78.8086 4.44336 78.8086 3.4668C78.8086 1.51367 77.0996 0 75.0977 0C73.3887 0 72.4609 0.537109 71.0938 2.53906L43.0664 44.1406L14.6973 85.9375C14.0625 86.8652 13.7207 87.6465 13.7207 88.7207C13.7207 90.8203 15.4785 92.2363 17.627 92.2363C19.2383 92.2363 20.166 91.5527 21.4355 89.7461ZM58.6914 71.0938C58.6914 72.998 60.2051 74.5605 62.1094 74.5605L88.916 74.5605C90.8203 74.5605 92.3828 72.998 92.3828 71.0938C92.3828 69.1895 90.8203 67.6758 88.916 67.6758L62.1094 67.6758C60.2051 67.6758 58.6914 69.1895 58.6914 71.0938Z" fill="#000000" fill-opacity="0.85"/>
 </g>
</svg>
