<?xml version="1.0" encoding="UTF-8"?>
<!--Generator: Apple Native CoreSVG 232.5-->
<!DOCTYPE svg
PUBLIC "-//W3C//DTD SVG 1.1//EN"
       "http://www.w3.org/Graphics/SVG/1.1/DTD/svg11.dtd">
<svg version="1.1" xmlns="http://www.w3.org/2000/svg" xmlns:xlink="http://www.w3.org/1999/xlink" width="110.742" height="102.295">
 <g>
  <rect height="102.295" opacity="0" width="110.742" x="0" y="0"/>
  <path d="M21.1914 102.295C27.7832 102.295 41.2598 95.6543 51.1719 88.5742C85.2051 89.502 110.742 69.9707 110.742 44.3848C110.742 19.8242 86.1328 0 55.3711 0C24.6094 0 0 19.8242 0 44.3848C0 60.4004 10.2539 74.6094 25.6836 81.7383C23.4863 85.9863 19.3848 91.748 17.1875 94.6289C14.5996 98.0469 16.1621 102.295 21.1914 102.295ZM26.3184 94.1895C25.9277 94.3359 25.7812 94.043 26.0254 93.7012C28.7598 90.332 32.666 85.2539 34.3262 82.1289C35.6934 79.5898 35.3516 77.3438 32.2266 75.8789C16.8945 68.75 8.10547 57.373 8.10547 44.3848C8.10547 24.3652 29.0527 8.05664 55.3711 8.05664C81.7383 8.05664 102.686 24.3652 102.686 44.3848C102.686 64.3555 81.7383 80.6641 55.3711 80.6641C54.3945 80.6641 52.8809 80.6152 50.9277 80.5664C48.877 80.5664 47.3145 81.2012 45.459 82.666C39.4531 87.0117 30.7617 92.3828 26.3184 94.1895Z" fill="#000000" fill-opacity="0.85"/>
  <path d="M32.7637 44.873C32.7637 47.2168 34.4238 48.877 36.9141 48.877L51.2695 48.877L51.2695 63.2812C51.2695 65.7227 52.9297 67.4316 55.3223 67.4316C57.7637 67.4316 59.4727 65.7227 59.4727 63.2812L59.4727 48.877L73.877 48.877C76.3184 48.877 78.0273 47.2168 78.0273 44.873C78.0273 42.3828 76.3184 40.6738 73.877 40.6738L59.4727 40.6738L59.4727 26.3672C59.4727 23.8281 57.7637 22.168 55.3223 22.168C52.9297 22.168 51.2695 23.8281 51.2695 26.3672L51.2695 40.6738L36.9141 40.6738C34.4238 40.6738 32.7637 42.3828 32.7637 44.873Z" fill="#000000" fill-opacity="0.85"/>
 </g>
</svg>
