<?xml version="1.0" encoding="UTF-8"?>
<!--Generator: Apple Native CoreSVG 232.5-->
<!DOCTYPE svg
PUBLIC "-//W3C//DTD SVG 1.1//EN"
       "http://www.w3.org/Graphics/SVG/1.1/DTD/svg11.dtd">
<svg version="1.1" xmlns="http://www.w3.org/2000/svg" xmlns:xlink="http://www.w3.org/1999/xlink" width="90.0391" height="90.0879">
 <g>
  <rect height="90.0879" opacity="0" width="90.0391" x="0" y="0"/>
  <path d="M84.3262 5.76172C89.3066 10.7422 90.0391 17.6758 90.0391 26.0254L90.0391 63.9648C90.0391 72.3145 89.3066 79.2969 84.3262 84.2773C79.3457 89.2578 72.3145 90.0391 63.9648 90.0391L26.0254 90.0391C17.7246 90.0391 10.6934 89.2578 5.71289 84.2773C0.732422 79.2969 0 72.3145 0 63.9648L0 25.9277C0 17.7246 0.732422 10.7422 5.71289 5.76172C10.6934 0.78125 17.7246 0 25.9277 0L63.9648 0C72.3145 0 79.3457 0.78125 84.3262 5.76172ZM40.7227 25.4883L40.7227 40.7715L25.4395 40.7715C22.8516 40.7715 21.0938 42.5293 21.0938 45.0684C21.0938 47.5586 22.9004 49.2188 25.4395 49.2188L40.7227 49.2188L40.7227 64.5508C40.7227 67.041 42.3828 68.8477 44.873 68.8477C47.4121 68.8477 49.1699 67.0898 49.1699 64.5508L49.1699 49.2188L64.502 49.2188C66.9922 49.2188 68.7988 47.5586 68.7988 45.0684C68.7988 42.5293 66.9922 40.7715 64.502 40.7715L49.1699 40.7715L49.1699 25.4883C49.1699 22.9492 47.4121 21.1426 44.873 21.1426C42.3828 21.1426 40.7227 22.9492 40.7227 25.4883Z" fill="#000000" fill-opacity="0.85"/>
 </g>
</svg>
