<?xml version="1.0" encoding="UTF-8"?>
<!--Generator: Apple Native CoreSVG 232.5-->
<!DOCTYPE svg
PUBLIC "-//W3C//DTD SVG 1.1//EN"
       "http://www.w3.org/Graphics/SVG/1.1/DTD/svg11.dtd">
<svg version="1.1" xmlns="http://www.w3.org/2000/svg" xmlns:xlink="http://www.w3.org/1999/xlink" width="110.742" height="101.807">
 <g>
  <rect height="101.807" opacity="0" width="110.742" x="0" y="0"/>
  <path d="M110.742 44.3848C110.742 68.7012 87.4023 88.7207 52.1973 88.7207C51.5625 88.7207 50.9277 88.6719 50.293 88.623C49.6094 88.623 48.9258 88.8672 48.0957 89.4531C39.7949 95.4102 25.1953 101.807 19.3359 101.807C15.5762 101.807 14.502 98.7305 16.4062 96.2891C18.2617 93.8477 23.1445 88.4766 25.8789 83.9844C26.2695 83.252 26.0254 82.5195 25.293 82.1289C9.61914 73.7305 0 60.0098 0 44.3848C0 19.8242 24.6094 0 55.3711 0C86.1328 0 110.742 19.8242 110.742 44.3848ZM51.123 25.3418L51.123 40.5762L35.8398 40.5762C33.3008 40.5762 31.543 42.334 31.543 44.9219C31.543 47.3633 33.3008 49.0723 35.8398 49.0723L51.123 49.0723L51.123 64.4043C51.123 66.8945 52.832 68.7012 55.3223 68.7012C57.8613 68.7012 59.6191 66.8945 59.6191 64.4043L59.6191 49.0723L74.9512 49.0723C77.4414 49.0723 79.248 47.3633 79.248 44.9219C79.248 42.334 77.4414 40.5762 74.9512 40.5762L59.6191 40.5762L59.6191 25.3418C59.6191 22.7539 57.8613 20.9961 55.3223 20.9961C52.832 20.9961 51.123 22.8027 51.123 25.3418Z" fill="#000000" fill-opacity="0.85"/>
 </g>
</svg>
