<?xml version="1.0" encoding="UTF-8"?>
<!--Generator: Apple Native CoreSVG 232.5-->
<!DOCTYPE svg
PUBLIC "-//W3C//DTD SVG 1.1//EN"
       "http://www.w3.org/Graphics/SVG/1.1/DTD/svg11.dtd">
<svg version="1.1" xmlns="http://www.w3.org/2000/svg" xmlns:xlink="http://www.w3.org/1999/xlink" width="99.6094" height="99.6582">
 <g>
  <rect height="99.6582" opacity="0" width="99.6094" x="0" y="0"/>
  <path d="M99.6094 49.8535C99.6094 77.0996 77.0508 99.6582 49.8047 99.6582C22.6074 99.6582 0 77.0996 0 49.8535C0 22.6562 22.5586 0.0488281 49.7559 0.0488281C77.002 0.0488281 99.6094 22.6562 99.6094 49.8535ZM35.8887 66.7969C33.8867 66.7969 32.3242 68.457 32.3242 70.3613C32.3242 72.1191 33.8867 73.8281 35.8887 73.8281L63.8672 73.8281C65.8203 73.8281 67.4316 72.1191 67.4316 70.3613C67.4316 68.457 65.8203 66.7969 63.8672 66.7969ZM46.3867 26.123L46.3867 36.7188L35.8398 36.7188C33.8867 36.7188 32.3242 38.3301 32.3242 40.2344C32.3242 42.1387 33.8867 43.75 35.8398 43.75L46.3867 43.75L46.3867 54.2969C46.3867 56.1523 47.998 57.8125 49.9023 57.8125C51.8066 57.8125 53.4668 56.2012 53.4668 54.2969L53.4668 43.75L63.916 43.75C65.8203 43.75 67.4316 42.1387 67.4316 40.2344C67.4316 38.3301 65.8203 36.7188 63.916 36.7188L53.4668 36.7188L53.4668 26.123C53.4668 24.2188 51.8066 22.6562 49.9023 22.6562C47.998 22.6562 46.3867 24.2676 46.3867 26.123Z" fill="#000000" fill-opacity="0.85"/>
 </g>
</svg>
