<?xml version="1.0" encoding="UTF-8"?>
<!--Generator: Apple Native CoreSVG 232.5-->
<!DOCTYPE svg
PUBLIC "-//W3C//DTD SVG 1.1//EN"
       "http://www.w3.org/Graphics/SVG/1.1/DTD/svg11.dtd">
<svg version="1.1" xmlns="http://www.w3.org/2000/svg" xmlns:xlink="http://www.w3.org/1999/xlink" width="59.1309" height="81.5918">
 <g>
  <rect height="81.5918" opacity="0" width="59.1309" x="0" y="0"/>
  <path d="M0 28.5645C0 30.957 1.95312 32.9102 4.3457 32.9102L25.1953 32.9102L25.1953 53.0273C25.1953 55.3711 27.1484 57.2754 29.541 57.2754C31.9336 57.2754 33.9355 55.3711 33.9355 53.0273L33.9355 32.9102L54.7852 32.9102C57.1777 32.9102 59.1309 30.957 59.1309 28.5645C59.1309 26.1719 57.1777 24.1699 54.7852 24.1699L33.9355 24.1699L33.9355 4.29688C33.9355 1.9043 31.9336 0 29.541 0C27.1484 0 25.1953 1.9043 25.1953 4.29688L25.1953 24.1699L4.3457 24.1699C1.95312 24.1699 0 26.1719 0 28.5645ZM0 77.1973C0 79.6387 2.00195 81.5918 4.3457 81.5918L54.7852 81.5918C57.1289 81.5918 59.1309 79.6387 59.1309 77.1973C59.1309 74.8047 57.1289 72.8516 54.7852 72.8516L4.3457 72.8516C2.00195 72.8516 0 74.8047 0 77.1973Z" fill="#000000" fill-opacity="0.85"/>
 </g>
</svg>
