<?xml version="1.0" encoding="UTF-8"?>
<!--Generator: Apple Native CoreSVG 232.5-->
<!DOCTYPE svg
PUBLIC "-//W3C//DTD SVG 1.1//EN"
       "http://www.w3.org/Graphics/SVG/1.1/DTD/svg11.dtd">
<svg version="1.1" xmlns="http://www.w3.org/2000/svg" xmlns:xlink="http://www.w3.org/1999/xlink" width="85.8887" height="105.811">
 <g>
  <rect height="105.811" opacity="0" width="85.8887" x="0" y="0"/>
  <path d="M15.7227 31.6406C17.074 31.6406 18.3853 31.4695 19.6289 31.1295L19.6289 33.4473C19.6289 39.3066 23.8281 43.5547 31.8359 45.8008L56.3965 52.7344C68.0176 55.957 74.0723 62.793 74.0723 72.5098L74.0723 74.8733C72.8287 74.5352 71.5174 74.3652 70.166 74.3652C68.7982 74.3652 67.4704 74.5394 66.2109 74.885L66.2109 72.5098C66.2109 66.6504 62.1094 62.5 54.0527 60.2051L29.4922 53.2715C17.8711 50.0488 11.7676 43.2129 11.7676 33.4473L11.7676 31.1168C13.0259 31.465 14.3537 31.6406 15.7227 31.6406Z" fill="#000000" fill-opacity="0.85"/>
  <path d="M15.7227 31.6406C24.4141 31.6406 31.4453 24.5605 31.4453 15.8691C31.4453 7.22656 24.4141 0.146484 15.7227 0.146484C7.03125 0.146484 0 7.22656 0 15.8691C0 24.5605 7.03125 31.6406 15.7227 31.6406ZM15.7227 23.9746C11.2305 23.9746 7.66602 20.4102 7.66602 15.8691C7.66602 11.3281 11.2305 7.8125 15.7227 7.8125C20.2637 7.8125 23.7793 11.3281 23.7793 15.8691C23.7793 20.4102 20.3125 23.9746 15.7227 23.9746ZM70.166 74.3652C61.4746 74.3652 54.3945 81.3965 54.3945 90.1367C54.3945 98.7793 61.4746 105.811 70.166 105.811C78.8574 105.811 85.8887 98.7793 85.8887 90.1367C85.8887 81.3965 78.8574 74.3652 70.166 74.3652Z" fill="#000000" fill-opacity="0.85"/>
 </g>
</svg>
