<?xml version="1.0" encoding="UTF-8"?>
<!--Generator: Apple Native CoreSVG 232.5-->
<!DOCTYPE svg
PUBLIC "-//W3C//DTD SVG 1.1//EN"
       "http://www.w3.org/Graphics/SVG/1.1/DTD/svg11.dtd">
<svg version="1.1" xmlns="http://www.w3.org/2000/svg" xmlns:xlink="http://www.w3.org/1999/xlink" width="89.8926" height="89.9902">
 <g>
  <rect height="89.9902" opacity="0" width="89.8926" x="0" y="0"/>
  <path d="M15.332 89.9902L74.5605 89.9902C84.8145 89.9902 89.8926 84.9121 89.8926 74.8535L89.8926 15.2344C89.8926 5.17578 84.8145 0.0976562 74.5605 0.0976562L15.332 0.0976562C5.12695 0.0976562 0 5.12695 0 15.2344L0 74.8535C0 84.9609 5.12695 89.9902 15.332 89.9902ZM15.4297 82.1289C10.5469 82.1289 7.86133 79.541 7.86133 74.4629L7.86133 15.625C7.86133 10.5469 10.5469 7.95898 15.4297 7.95898L74.4629 7.95898C79.2969 7.95898 82.0312 10.5469 82.0312 15.625L82.0312 74.4629C82.0312 79.541 79.2969 82.1289 74.4629 82.1289Z" fill="#000000" fill-opacity="0.85"/>
  <path d="M27.2461 64.209L43.7012 64.209C45.1172 64.209 46.1914 63.1348 46.1914 61.7676C46.1914 60.3516 45.1172 59.3262 43.7012 59.3262L32.4219 59.3262L32.4219 58.8867L44.873 38.8672C45.5078 37.8418 45.8984 37.0117 45.8984 35.9863C45.8984 34.2285 44.5801 33.0566 42.6758 33.0566L26.9531 33.0566C25.4883 33.0566 24.4141 34.082 24.4141 35.4492C24.4141 36.8652 25.4883 37.9395 26.9531 37.9395L38.7207 37.9395L38.7207 38.4766L25.3418 59.082C24.7559 60.0098 24.4141 60.6934 24.4141 61.7676C24.4141 63.1836 25.6348 64.209 27.2461 64.209ZM56.9336 64.7461C58.8867 64.7461 60.1562 63.3789 60.1562 61.377L60.1562 43.6523L64.4043 41.4062C67.8223 39.5996 65.4785 35.1074 62.2559 36.7676L60.1562 37.8906L60.1562 23.6328C60.1562 21.582 58.8867 20.2148 56.9336 20.2148C55.0293 20.2148 53.7109 21.582 53.7109 23.6328L53.7109 41.2598L50.2441 43.1641C46.9238 44.873 49.1211 49.4141 52.5879 47.6562L53.7109 46.9727L53.7109 61.377C53.7109 63.3789 55.0293 64.7461 56.9336 64.7461Z" fill="#000000" fill-opacity="0.85"/>
 </g>
</svg>
