<?xml version="1.0" encoding="UTF-8"?>
<!--Generator: Apple Native CoreSVG 232.5-->
<!DOCTYPE svg
PUBLIC "-//W3C//DTD SVG 1.1//EN"
       "http://www.w3.org/Graphics/SVG/1.1/DTD/svg11.dtd">
<svg version="1.1" xmlns="http://www.w3.org/2000/svg" xmlns:xlink="http://www.w3.org/1999/xlink" width="76.6113" height="88.4277">
 <g>
  <rect height="88.4277" opacity="0" width="76.6113" x="0" y="0"/>
  <path d="M4.54102 87.2559L38.8672 87.2559C41.0156 87.2559 42.7734 85.5469 42.7734 83.3984C42.7734 81.25 41.0156 79.4922 38.8672 79.4922L11.4746 79.4922L11.4746 78.9062L41.1133 34.4727C41.9434 33.2031 42.4316 31.7383 42.4316 30.2734C42.4316 27.4902 40.332 25.4883 37.3535 25.4883L3.90625 25.4883C1.75781 25.4883 0.0488281 27.2461 0.0488281 29.3945C0.0488281 31.543 1.75781 33.252 3.90625 33.252L31.4941 33.252L31.4941 33.9355L1.41602 78.6133C0.439453 80.127 0 81.0059 0 82.7637C0 85.3027 1.80664 87.2559 4.54102 87.2559ZM63.1836 88.3789C65.8203 88.3789 68.0176 86.1816 68.0176 83.5449L68.0176 41.748L74.1211 38.4277C79.1504 35.8398 75.6836 29.7852 71.2891 32.0801L68.0176 33.8867L68.0176 4.83398C68.0176 2.19727 65.8203 0 63.1836 0C60.5469 0 58.3984 2.19727 58.3984 4.83398L58.3984 38.9648L52.832 41.9922C48.2422 44.3848 51.0742 50.7324 56.1035 48.0957L58.3984 46.7773L58.3984 83.5449C58.3984 86.1816 60.5469 88.3789 63.1836 88.3789Z" fill="#000000" fill-opacity="0.85"/>
 </g>
</svg>
