<?xml version="1.0" encoding="UTF-8"?>
<!--Generator: Apple Native CoreSVG 232.5-->
<!DOCTYPE svg
PUBLIC "-//W3C//DTD SVG 1.1//EN"
       "http://www.w3.org/Graphics/SVG/1.1/DTD/svg11.dtd">
<svg version="1.1" xmlns="http://www.w3.org/2000/svg" xmlns:xlink="http://www.w3.org/1999/xlink" width="93.75" height="123.584">
 <g>
  <rect height="123.584" opacity="0" width="93.75" x="0" y="0"/>
  <path d="M50.5859 7.76367C52.002 7.4707 53.6621 7.56836 54.8828 7.91016C57.2266 5.76172 60.3027 4.58984 63.623 4.58984C68.9453 4.58984 72.7051 7.76367 74.7559 12.5C82.5195 12.6953 87.8906 18.6035 87.8906 27.002C87.8906 30.6404 86.5727 33.9965 84.3911 36.5894C87.685 39.7557 89.3797 44.45 88.2812 50.1465L81.9692 83.5615C80.1512 81.9751 77.8193 80.9122 75.21 80.5131L81.1523 49.7559C82.4219 43.2129 77.7344 39.3066 72.4121 39.3066C68.0664 39.3066 64.502 42.1875 64.0137 47.6074L60.362 88.1997C59.9734 89.2357 59.7372 90.359 59.668 91.5527C56.7518 92.2089 54.2106 93.8325 52.3947 96.0516L56.8359 47.3145C57.4219 40.9668 53.4668 36.8164 46.875 36.8164C40.2832 36.8164 36.3281 40.9668 36.9141 47.3145L42.4805 108.398L50.1671 108.398C51.2341 111.569 53.5037 114.155 56.4347 115.674L27.6367 115.674C20.6543 115.674 17.0898 111.719 15.7715 104.688L5.46875 50.1465C4.41533 44.6834 5.9308 40.1421 8.95012 36.9746C7.01587 34.6131 5.85938 31.5662 5.85938 28.2715C5.85938 20.8008 11.9629 14.6484 19.4336 14.8926C19.4336 11.5723 22.5586 8.1543 26.2695 8.49609C27.1484 4.24805 31.6895 0 38.623 0C43.8477 0 48.4863 3.02734 50.5859 7.76367ZM12.5977 49.7559L23.1445 104.346C23.6328 107.031 25.1953 108.398 27.8809 108.398L35.2051 108.398L29.6875 47.6074C29.248 42.1875 25.6836 39.3066 21.3379 39.3066C16.0156 39.3066 11.3281 43.2129 12.5977 49.7559ZM32.4707 16.0156C27.4902 13.5742 22.4121 17.2852 23.0957 22.2656C17.8223 20.6055 12.8418 23.6816 12.8418 28.2715C12.8418 30.2405 13.6858 31.9815 15.0159 33.1192C16.9611 32.4018 19.1044 32.0312 21.3379 32.0312C25.7324 32.0312 29.5898 33.7891 32.3242 36.9629C35.0586 32.4707 40.332 29.541 46.875 29.541C53.418 29.541 58.6914 32.4707 61.4258 36.9629C64.1602 33.7891 68.0176 32.0312 72.4121 32.0312C74.4141 32.0312 76.3437 32.329 78.1225 32.9088C79.7928 31.5951 80.9082 29.6124 80.9082 27.4902C80.9082 21.8262 76.5625 19.0918 70.5078 20.0684C70.6543 15.1855 68.3594 11.6699 63.9648 11.6699C60.8887 11.6699 58.252 13.3789 56.9824 16.3086C54.2969 14.2578 48.9746 13.8184 45.8008 15.918C46.582 10.1074 42.5781 7.08008 38.623 7.08008C34.5703 7.08008 30.957 10.3027 32.4707 16.0156Z" fill="#000000" fill-opacity="0.85"/>
  <path d="M72.8027 123.486C77.5391 123.486 81.8848 120.801 83.9844 116.699C89.7949 115.332 93.75 110.205 93.75 104.248C93.75 98.877 90.4785 94.3359 85.9375 92.041C85.6934 85.0098 79.9316 80.3223 72.8027 80.3223C65.7715 80.3223 60.0586 84.8145 59.668 91.5527C53.8086 92.8711 49.4629 98.0957 49.4629 104.199C49.4629 111.084 54.7363 116.553 61.4258 117.139C63.6719 120.898 68.0176 123.486 72.8027 123.486ZM72.8027 117.188C69.043 117.188 65.5273 114.844 65.7715 110.449C60.791 112.012 55.7129 109.424 55.7129 104.199C55.7129 98.877 59.9121 95.8984 66.0156 96.9238C64.4531 92.3828 66.8457 86.6211 72.8027 86.6211C78.5645 86.6211 81.2988 92.1387 79.7363 97.2656C84.2773 96.7773 87.3047 99.707 87.3047 104.492C87.3047 108.691 84.375 111.182 79.4434 110.742C79.6387 114.502 76.2207 117.188 72.8027 117.188Z" fill="#000000" fill-opacity="0.85"/>
 </g>
</svg>
