<?xml version="1.0" encoding="UTF-8"?>
<!--Generator: Apple Native CoreSVG 232.5-->
<!DOCTYPE svg
PUBLIC "-//W3C//DTD SVG 1.1//EN"
       "http://www.w3.org/Graphics/SVG/1.1/DTD/svg11.dtd">
<svg version="1.1" xmlns="http://www.w3.org/2000/svg" xmlns:xlink="http://www.w3.org/1999/xlink" width="99.6094" height="99.6582">
 <g>
  <rect height="99.6582" opacity="0" width="99.6094" x="0" y="0"/>
  <path d="M99.6094 49.8535C99.6094 77.0996 77.0508 99.6582 49.8047 99.6582C22.6074 99.6582 0 77.0996 0 49.8535C0 22.6562 22.5586 0.0488281 49.7559 0.0488281C77.002 0.0488281 99.6094 22.6562 99.6094 49.8535ZM29.248 47.4121L34.1309 73.0469C34.8145 76.5137 36.4746 78.5645 40.0391 78.5645L43.1641 78.5645L40.1367 45.1172C39.8926 41.8945 37.3535 40.2344 34.7168 40.2344C31.4941 40.2344 28.3691 42.6758 29.248 47.4121ZM43.6523 45.6543L46.6309 78.5645L52.7344 78.5645L55.7129 45.6543C56.0547 41.1621 52.3438 39.4043 49.6582 39.4043C46.9727 39.4043 43.3105 41.1621 43.6523 45.6543ZM59.2285 45.1172L56.2012 78.5645L59.3262 78.5645C62.8906 78.5645 64.5508 76.5137 65.2344 73.0469L70.1172 47.4121C70.9961 42.6758 67.8711 40.2344 64.6484 40.2344C62.0117 40.2344 59.4727 41.8945 59.2285 45.1172ZM39.4043 24.4629C37.5 24.2676 35.9375 26.0254 35.9375 27.7344C32.1777 27.6367 29.1016 30.6152 29.1016 34.4238C29.1016 35.6445 29.3457 36.7188 29.9805 37.8418C31.3477 37.1094 33.0078 36.6211 34.7168 36.6211C37.4023 36.6211 39.9902 37.793 41.6504 39.7949C43.457 37.2559 46.582 35.8398 49.6582 35.8398C52.7832 35.8398 55.9082 37.2559 57.666 39.7949C59.3262 37.793 61.9629 36.6211 64.6484 36.6211C66.3086 36.6211 67.9199 37.0605 69.2871 37.8418C70.0684 36.6699 70.5078 35.2539 70.5078 33.8379C70.5078 29.5898 67.7734 26.5625 63.8672 26.5137C62.8418 24.0723 60.9375 22.4609 58.252 22.4609C56.543 22.4609 55.0293 23.0957 53.8086 24.1699C53.2227 23.9746 52.3926 23.9258 51.6602 24.0723C50.6348 21.6797 48.291 20.2148 45.6543 20.2148C42.1387 20.2148 39.8926 22.2656 39.4043 24.4629Z" fill="#000000" fill-opacity="0.85"/>
 </g>
</svg>
