<?xml version="1.0" encoding="UTF-8"?>
<!--Generator: Apple Native CoreSVG 232.5-->
<!DOCTYPE svg
PUBLIC "-//W3C//DTD SVG 1.1//EN"
       "http://www.w3.org/Graphics/SVG/1.1/DTD/svg11.dtd">
<svg version="1.1" xmlns="http://www.w3.org/2000/svg" xmlns:xlink="http://www.w3.org/1999/xlink" width="99.6094" height="99.6582">
 <g>
  <rect height="99.6582" opacity="0" width="99.6094" x="0" y="0"/>
  <path d="M49.8047 99.6094C77.0508 99.6094 99.6094 77.002 99.6094 49.8047C99.6094 22.5586 77.002 0 49.7559 0C22.5586 0 0 22.5586 0 49.8047C0 77.002 22.6074 99.6094 49.8047 99.6094ZM49.8047 91.3086C26.7578 91.3086 8.34961 72.8516 8.34961 49.8047C8.34961 26.7578 26.709 8.30078 49.7559 8.30078C72.8027 8.30078 91.3086 26.7578 91.3086 49.8047C91.3086 72.8516 72.8516 91.3086 49.8047 91.3086Z" fill="#000000" fill-opacity="0.85"/>
  <path d="M41.8945 40.0391C43.6523 37.5488 46.6797 36.1816 49.6582 36.1816C52.6855 36.1816 55.7129 37.5488 57.4219 40.0391C59.082 38.0859 61.5723 36.9629 64.209 36.9629C65.8203 36.9629 67.3828 37.3535 68.7012 38.1348C69.4336 37.0117 69.873 35.6445 69.873 34.2285C69.873 30.127 67.2363 27.1973 63.4277 27.1484C62.4512 24.8047 60.5957 23.2422 58.0078 23.2422C56.3477 23.2422 54.8828 23.7793 53.7598 24.8535C53.125 24.707 52.2949 24.6582 51.6113 24.8047C50.5859 22.4609 48.3398 20.9961 45.8008 20.9961C42.3828 20.9961 40.1855 23.0469 39.7461 25.1465C37.9395 24.9512 36.3281 26.6602 36.3281 28.2715C32.7148 28.1738 29.7363 31.1523 29.7363 34.8145C29.7363 35.9863 29.9805 37.0117 30.5664 38.1348C31.8848 37.4023 33.4961 36.9629 35.1562 36.9629C37.793 36.9629 40.2832 38.0859 41.8945 40.0391ZM40.332 77.6367L43.3594 77.6367L40.4297 45.166C40.1855 42.041 37.7441 40.4297 35.1562 40.4297C32.0312 40.4297 29.0039 42.8223 29.8828 47.4121L34.6191 72.2656C35.2539 75.6348 36.8652 77.6367 40.332 77.6367ZM46.7285 77.6367L52.6367 77.6367L55.5176 45.7031C55.8594 41.3574 52.2461 39.6484 49.6582 39.6484C47.1191 39.6484 43.5059 41.3574 43.8477 45.7031ZM59.0332 77.6367C62.5 77.6367 64.1113 75.6348 64.7461 72.2656L69.4824 47.4121C70.3613 42.8223 67.334 40.4297 64.209 40.4297C61.6211 40.4297 59.1797 42.041 58.9355 45.166L56.0059 77.6367Z" fill="#000000" fill-opacity="0.85"/>
 </g>
</svg>
