<?xml version="1.0" encoding="UTF-8"?>
<!--Generator: Apple Native CoreSVG 232.5-->
<!DOCTYPE svg
PUBLIC "-//W3C//DTD SVG 1.1//EN"
       "http://www.w3.org/Graphics/SVG/1.1/DTD/svg11.dtd">
<svg version="1.1" xmlns="http://www.w3.org/2000/svg" xmlns:xlink="http://www.w3.org/1999/xlink" width="92.9688" height="89.9902">
 <g>
  <rect height="89.9902" opacity="0" width="92.9688" x="0" y="0"/>
  <path d="M15.332 89.9902L77.6367 89.9902C87.8418 89.9902 92.9688 84.9121 92.9688 74.8535L92.9688 15.2344C92.9688 5.17578 87.8418 0.0976562 77.6367 0.0976562L15.332 0.0976562C5.12695 0.0976562 0 5.12695 0 15.2344L0 74.8535C0 84.9609 5.12695 89.9902 15.332 89.9902ZM15.4297 82.1289C10.5469 82.1289 7.86133 79.541 7.86133 74.4629L7.86133 15.625C7.86133 10.5469 10.5469 7.95898 15.4297 7.95898L77.4902 7.95898C82.3242 7.95898 85.1074 10.5469 85.1074 15.625L85.1074 74.4629C85.1074 79.541 82.3242 82.1289 77.4902 82.1289Z" fill="#000000" fill-opacity="0.85"/>
  <path d="M44.4824 39.209L48.4375 39.209C50.0977 39.209 51.1719 38.0859 51.1719 36.4258L51.1719 22.168C51.1719 20.5078 50.0977 19.3848 48.4375 19.3848L44.4824 19.3848C42.8711 19.3848 41.748 20.5078 41.748 22.168L41.748 36.4258C41.748 38.0859 42.8711 39.209 44.4824 39.209ZM22.998 68.0176L35.7422 68.0176C37.4023 68.0176 38.4766 66.9434 38.4766 65.2832L38.4766 61.3281C38.4766 59.668 37.4023 58.5938 35.7422 58.5938L22.998 58.5938C21.3379 58.5938 20.2637 59.7168 20.2637 61.3281L20.2637 65.2832C20.2637 66.9434 21.3379 68.0176 22.998 68.0176ZM57.2266 68.0176L69.9219 68.0176C71.6309 68.0176 72.7051 66.9434 72.7051 65.2832L72.7051 61.3281C72.7051 59.7168 71.582 58.5938 69.9219 58.5938L57.2266 58.5938C55.5664 58.5938 54.4434 59.668 54.4434 61.3281L54.4434 65.2832C54.4434 66.9434 55.5664 68.0176 57.2266 68.0176Z" fill="#000000" fill-opacity="0.85"/>
 </g>
</svg>
