<?xml version="1.0" encoding="UTF-8"?>
<!--Generator: Apple Native CoreSVG 232.5-->
<!DOCTYPE svg
PUBLIC "-//W3C//DTD SVG 1.1//EN"
       "http://www.w3.org/Graphics/SVG/1.1/DTD/svg11.dtd">
<svg version="1.1" xmlns="http://www.w3.org/2000/svg" xmlns:xlink="http://www.w3.org/1999/xlink" width="191.113" height="64.209">
 <g>
  <rect height="64.209" opacity="0" width="191.113" x="0" y="0"/>
  <path d="M14.2578 56.9336L136.328 56.9336C144.58 56.9336 150.586 50.8789 150.586 42.6758L150.586 14.3066C150.586 6.10352 144.58 0 136.328 0L14.2578 0C6.00586 0 0 6.05469 0 14.3066L0 42.6758C0 50.9277 6.00586 56.9336 14.2578 56.9336ZM14.2578 49.5605C10.1562 49.5605 7.37305 46.7285 7.37305 42.6758L7.37305 14.3066C7.37305 10.2051 10.1562 7.37305 14.2578 7.37305L136.328 7.37305C140.381 7.37305 143.213 10.2051 143.213 14.3066L143.213 42.6758C143.213 46.7285 140.381 49.5605 136.328 49.5605ZM147.412 45.752L155.957 45.752C159.326 45.752 161.816 43.3105 161.816 39.9414L161.816 16.9922C161.816 13.623 159.326 11.1816 155.957 11.1816L147.412 11.1816L147.412 17.5781L153.32 17.5781C154.541 17.5781 155.42 18.4082 155.42 19.6289L155.42 37.2559C155.42 38.5254 154.541 39.3555 153.32 39.3555L147.412 39.3555ZM159.424 32.5684L191.113 32.5684L191.113 24.707L159.424 24.707Z" fill="#000000" fill-opacity="0.85"/>
  <path d="M19.1895 39.5508L22.5098 39.5508C23.877 39.5508 24.8535 38.5742 24.8535 37.1582L24.8535 19.7266C24.8535 18.2129 23.877 17.2852 22.5098 17.2852L19.1895 17.2852C17.7246 17.2852 16.7969 18.2129 16.7969 19.7266L16.7969 37.1582C16.7969 38.5742 17.7246 39.5508 19.1895 39.5508ZM48.5352 43.5059C56.8359 43.5059 63.5742 36.8164 63.5742 28.4668C63.5742 20.2148 56.8359 13.4277 48.5352 13.4277C40.2344 13.4277 33.4961 20.2148 33.4961 28.4668C33.4961 36.8164 40.2344 43.5059 48.5352 43.5059ZM43.0176 36.377C41.8457 36.377 40.8691 35.4004 40.8691 34.2773L40.8691 22.7051C40.8691 21.582 41.8457 20.5566 43.0176 20.5566C44.1406 20.5566 45.0684 21.5332 45.0684 22.7051L45.0684 34.2773C45.0684 35.4492 44.1406 36.377 43.0176 36.377ZM54.0527 36.377C52.8809 36.377 51.9043 35.4492 51.9043 34.2773L51.9043 22.7051C51.9043 21.5332 52.832 20.5566 54.0527 20.5566C55.2246 20.5566 56.1035 21.5332 56.1035 22.7051L56.1035 34.2773C56.1035 35.4492 55.2246 36.377 54.0527 36.377ZM84.7656 43.5059C93.0664 43.5059 99.8535 36.8164 99.8535 28.4668C99.8535 20.2148 93.0664 13.4277 84.7656 13.4277C76.4648 13.4277 69.7754 20.2148 69.7754 28.4668C69.7754 36.8164 76.4648 43.5059 84.7656 43.5059ZM79.1992 36.377C78.0762 36.377 77.0996 35.4492 77.0996 34.2773L77.0996 22.7051C77.0996 21.582 78.0762 20.5566 79.1992 20.5566C80.4199 20.5566 81.3477 21.5332 81.3477 22.7051L81.3477 34.2773C81.3477 35.4492 80.4199 36.377 79.1992 36.377ZM90.2832 36.377C89.1113 36.377 88.1348 35.4492 88.1348 34.2773L88.1348 22.7051C88.1348 21.5332 89.1113 20.5566 90.2832 20.5566C91.4551 20.5566 92.3828 21.5332 92.3828 22.7051L92.3828 34.2773C92.3828 35.4492 91.4062 36.377 90.2832 36.377ZM120.996 43.5059C129.297 43.5059 136.035 36.8164 136.035 28.4668C136.035 20.2148 129.297 13.4277 120.996 13.4277C112.695 13.4277 106.006 20.2148 106.006 28.4668C106.006 36.8164 112.695 43.5059 120.996 43.5059ZM115.479 36.377C114.307 36.377 113.33 35.4492 113.33 34.2773L113.33 22.7051C113.33 21.582 114.307 20.5566 115.479 20.5566C116.65 20.5566 117.578 21.5332 117.578 22.7051L117.578 34.2773C117.578 35.4492 116.602 36.377 115.479 36.377ZM126.514 36.377C125.342 36.377 124.365 35.4492 124.365 34.2773L124.365 22.7051C124.365 21.5332 125.293 20.5566 126.514 20.5566C127.686 20.5566 128.564 21.5332 128.564 22.7051L128.564 34.2773C128.564 35.4492 127.686 36.377 126.514 36.377Z" fill="#000000" fill-opacity="0.85"/>
 </g>
</svg>
