<?xml version="1.0" encoding="UTF-8"?>
<!--Generator: Apple Native CoreSVG 232.5-->
<!DOCTYPE svg
PUBLIC "-//W3C//DTD SVG 1.1//EN"
       "http://www.w3.org/Graphics/SVG/1.1/DTD/svg11.dtd">
<svg version="1.1" xmlns="http://www.w3.org/2000/svg" xmlns:xlink="http://www.w3.org/1999/xlink" width="99.6094" height="99.6582">
 <g>
  <rect height="99.6582" opacity="0" width="99.6094" x="0" y="0"/>
  <path d="M49.8047 99.6094C77.0508 99.6094 99.6094 77.002 99.6094 49.8047C99.6094 22.5586 77.002 0 49.7559 0C22.5586 0 0 22.5586 0 49.8047C0 77.002 22.6074 99.6094 49.8047 99.6094ZM49.8047 91.3086C26.7578 91.3086 8.34961 72.8516 8.34961 49.8047C8.34961 26.7578 26.709 8.30078 49.7559 8.30078C72.8027 8.30078 91.3086 26.7578 91.3086 49.8047C91.3086 72.8516 72.8516 91.3086 49.8047 91.3086Z" fill="#000000" fill-opacity="0.85"/>
  <path d="M49.8047 33.3496C53.2227 33.3496 56.0547 30.5176 56.0547 27.0996C56.0547 23.6816 53.2227 20.8496 49.8047 20.8496C46.3867 20.8496 43.5547 23.6816 43.5547 27.0996C43.5547 30.5176 46.3867 33.3496 49.8047 33.3496ZM28.418 59.0332C33.5449 59.0332 37.6465 54.8828 37.6465 49.8047C37.6465 44.7266 33.5449 40.5762 28.418 40.5762C23.3398 40.5762 19.2383 44.7266 19.2383 49.8047C19.2383 54.8828 23.3398 59.0332 28.418 59.0332ZM71.1914 59.0332C76.2695 59.0332 80.3711 54.8828 80.3711 49.8047C80.3711 44.7266 76.2695 40.5762 71.1914 40.5762C66.0645 40.5762 61.9629 44.7266 61.9629 49.8047C61.9629 54.8828 66.0645 59.0332 71.1914 59.0332Z" fill="#000000" fill-opacity="0.85"/>
 </g>
</svg>
