<?xml version="1.0" encoding="UTF-8"?>
<!--Generator: Apple Native CoreSVG 232.5-->
<!DOCTYPE svg
PUBLIC "-//W3C//DTD SVG 1.1//EN"
       "http://www.w3.org/Graphics/SVG/1.1/DTD/svg11.dtd">
<svg version="1.1" xmlns="http://www.w3.org/2000/svg" xmlns:xlink="http://www.w3.org/1999/xlink" width="89.8926" height="89.9902">
 <g>
  <rect height="89.9902" opacity="0" width="89.8926" x="0" y="0"/>
  <path d="M89.8926 15.2344L89.8926 74.8535C89.8926 84.9121 84.8145 89.9902 74.5605 89.9902L15.332 89.9902C5.12695 89.9902 0 84.9609 0 74.8535L0 15.2344C0 5.12695 5.12695 0.0976562 15.332 0.0976562L74.5605 0.0976562C84.8145 0.0976562 89.8926 5.17578 89.8926 15.2344ZM27.9297 29.4434C24.707 29.4434 23.4863 30.8594 21.8262 32.5684L12.8906 41.6016C11.1328 43.4082 11.084 46.4355 12.8906 48.2422L21.8262 57.373C23.4863 59.082 25.1953 60.498 27.9297 60.498L61.9629 60.498C64.6973 60.498 66.4062 59.082 68.0664 57.373L77.002 48.2422C78.8086 46.4355 78.8086 43.4082 77.002 41.6016L68.0664 32.5684C66.4062 30.8594 65.1855 29.4434 61.9629 29.4434ZM49.9023 48.584C49.9023 51.2695 47.6562 53.5645 44.9707 53.5645C42.2363 53.5645 39.9902 51.2695 39.9902 48.584C39.9902 45.8984 42.2363 43.6035 44.9707 43.6035C47.6562 43.6035 49.9023 45.8984 49.9023 48.584ZM31.7871 44.9707C31.7871 47.6562 29.4922 49.9023 26.8066 49.9023C24.1211 49.9023 21.8262 47.6562 21.8262 44.9707C21.8262 42.2852 24.1211 39.9902 26.8066 39.9902C29.4922 39.9902 31.7871 42.2852 31.7871 44.9707ZM68.0664 44.9707C68.0664 47.6562 65.7715 49.9023 63.0859 49.9023C60.4004 49.9023 58.1543 47.6562 58.1543 44.9707C58.1543 42.2852 60.4004 39.9902 63.0859 39.9902C65.7715 39.9902 68.0664 42.2852 68.0664 44.9707Z" fill="#000000" fill-opacity="0.85"/>
 </g>
</svg>
