<?xml version="1.0" encoding="UTF-8"?>
<!--Generator: Apple Native CoreSVG 232.5-->
<!DOCTYPE svg
PUBLIC "-//W3C//DTD SVG 1.1//EN"
       "http://www.w3.org/Graphics/SVG/1.1/DTD/svg11.dtd">
<svg version="1.1" xmlns="http://www.w3.org/2000/svg" xmlns:xlink="http://www.w3.org/1999/xlink" width="92.9688" height="89.9902">
 <g>
  <rect height="89.9902" opacity="0" width="92.9688" x="0" y="0"/>
  <path d="M92.9688 15.2344L92.9688 74.8535C92.9688 84.9121 87.8418 89.9902 77.6367 89.9902L15.332 89.9902C5.12695 89.9902 0 84.9609 0 74.8535L0 15.2344C0 5.12695 5.12695 0.0976562 15.332 0.0976562L77.6367 0.0976562C87.8418 0.0976562 92.9688 5.17578 92.9688 15.2344ZM38.1348 64.9414L38.1348 70.6055C38.1348 72.168 38.916 72.9492 40.4785 72.9492L52.4902 72.9492C54.0527 72.9492 54.834 72.168 54.834 70.6055L54.834 64.9414C54.834 60.2539 51.1719 56.4941 46.4844 56.4941C41.748 56.4941 38.1348 60.2539 38.1348 64.9414ZM24.5605 24.4141L24.5605 39.9902C24.5605 42.5781 26.4648 44.4824 29.0039 44.4824C31.4941 44.4824 33.4961 42.5781 33.4961 39.9902L33.4961 24.4141C33.4961 21.9238 31.4941 19.873 29.0039 19.873C26.4648 19.873 24.5605 21.9238 24.5605 24.4141ZM59.4238 24.4141L59.4238 39.9902C59.4238 42.5781 61.3281 44.4824 63.8672 44.4824C66.4062 44.4824 68.4082 42.5781 68.4082 39.9902L68.4082 24.4141C68.4082 21.9238 66.4062 19.873 63.8672 19.873C61.3281 19.873 59.4238 21.9238 59.4238 24.4141Z" fill="#000000" fill-opacity="0.85"/>
 </g>
</svg>
