<?xml version="1.0" encoding="UTF-8"?>
<!--Generator: Apple Native CoreSVG 232.5-->
<!DOCTYPE svg
PUBLIC "-//W3C//DTD SVG 1.1//EN"
       "http://www.w3.org/Graphics/SVG/1.1/DTD/svg11.dtd">
<svg version="1.1" xmlns="http://www.w3.org/2000/svg" xmlns:xlink="http://www.w3.org/1999/xlink" width="89.8926" height="89.9902">
 <g>
  <rect height="89.9902" opacity="0" width="89.8926" x="0" y="0"/>
  <path d="M15.332 89.9902L74.5605 89.9902C84.8145 89.9902 89.8926 84.9121 89.8926 74.8535L89.8926 15.2344C89.8926 5.17578 84.8145 0.0976562 74.5605 0.0976562L15.332 0.0976562C5.12695 0.0976562 0 5.12695 0 15.2344L0 74.8535C0 84.9609 5.12695 89.9902 15.332 89.9902ZM15.4297 82.1289C10.5469 82.1289 7.86133 79.541 7.86133 74.4629L7.86133 15.625C7.86133 10.5469 10.5469 7.95898 15.4297 7.95898L74.4629 7.95898C79.2969 7.95898 82.0312 10.5469 82.0312 15.625L82.0312 74.4629C82.0312 79.541 79.2969 82.1289 74.4629 82.1289Z" fill="#000000" fill-opacity="0.85"/>
  <path d="M28.9551 27.8809C25.9277 27.8809 24.6094 29.0527 23.2422 30.8105L14.8438 41.8457C13.3789 43.7012 13.3789 46.0938 14.8438 47.998L23.2422 59.1309C24.6094 60.8887 26.3672 62.0117 28.9551 62.0117L60.9375 62.0117C63.5254 62.0117 65.2832 60.8887 66.6504 59.1309L75.0488 47.998C76.5137 46.0938 76.5137 43.7012 75.0488 41.8457L66.6504 30.8105C65.2832 29.0527 63.9648 27.8809 60.9375 27.8809ZM27.8809 40.2832C30.4199 40.2832 32.5684 42.4316 32.5684 44.9707C32.5684 47.5098 30.4199 49.6094 27.8809 49.6094C25.3906 49.6094 23.2422 47.5098 23.2422 44.9707C23.2422 42.4316 25.3906 40.2832 27.8809 40.2832ZM44.9707 46.0449C47.5098 46.0449 49.6094 48.1934 49.6094 50.6836C49.6094 53.2227 47.5098 55.3711 44.9707 55.3711C42.3828 55.3711 40.2832 53.2227 40.2832 50.6836C40.2832 48.1934 42.3828 46.0449 44.9707 46.0449ZM62.0117 40.2832C64.502 40.2832 66.6504 42.4316 66.6504 44.9707C66.6504 47.5098 64.502 49.6094 62.0117 49.6094C59.4727 49.6094 57.373 47.5098 57.373 44.9707C57.373 42.4316 59.4727 40.2832 62.0117 40.2832Z" fill="#000000" fill-opacity="0.85"/>
 </g>
</svg>
