<?xml version="1.0" encoding="UTF-8"?>
<!--Generator: Apple Native CoreSVG 232.5-->
<!DOCTYPE svg
PUBLIC "-//W3C//DTD SVG 1.1//EN"
       "http://www.w3.org/Graphics/SVG/1.1/DTD/svg11.dtd">
<svg version="1.1" xmlns="http://www.w3.org/2000/svg" xmlns:xlink="http://www.w3.org/1999/xlink" width="89.8926" height="89.9902">
 <g>
  <rect height="89.9902" opacity="0" width="89.8926" x="0" y="0"/>
  <path d="M15.332 89.9902L74.5605 89.9902C84.8145 89.9902 89.8926 84.9121 89.8926 74.8535L89.8926 15.2344C89.8926 5.17578 84.8145 0.0976562 74.5605 0.0976562L15.332 0.0976562C5.12695 0.0976562 0 5.12695 0 15.2344L0 74.8535C0 84.9609 5.12695 89.9902 15.332 89.9902ZM15.4297 82.1289C10.5469 82.1289 7.86133 79.541 7.86133 74.4629L7.86133 15.625C7.86133 10.5469 10.5469 7.95898 15.4297 7.95898L74.4629 7.95898C79.2969 7.95898 82.0312 10.5469 82.0312 15.625L82.0312 74.4629C82.0312 79.541 79.2969 82.1289 74.4629 82.1289Z" fill="#000000" fill-opacity="0.85"/>
  <path d="M25.8789 67.8711L64.0137 67.8711C66.6504 67.8711 68.6035 65.918 68.6035 63.2812L68.6035 26.6602C68.6035 24.0234 66.6504 22.0703 64.0137 22.0703L25.8789 22.0703C23.2422 22.0703 21.2891 24.0234 21.2891 26.6602L21.2891 63.2812C21.2891 65.918 23.2422 67.8711 25.8789 67.8711ZM45.0195 39.9902C42.2852 39.9902 40.0391 37.793 40.0391 35.0098C40.0391 32.3242 42.2852 30.127 45.0195 30.127C47.7051 30.127 49.9512 32.3242 49.9512 35.0098C49.9512 37.793 47.7051 39.9902 45.0195 39.9902ZM34.3262 59.8145C31.6406 59.8145 29.3945 57.6172 29.3945 54.8828C29.3945 52.1484 31.6406 49.9512 34.3262 49.9512C37.0605 49.9512 39.3066 52.1484 39.3066 54.8828C39.3066 57.6172 37.0605 59.8145 34.3262 59.8145ZM55.6641 59.8145C52.9297 59.8145 50.6836 57.6172 50.6836 54.8828C50.6836 52.1484 52.9297 49.9512 55.6641 49.9512C58.3984 49.9512 60.5957 52.1484 60.5957 54.8828C60.5957 57.6172 58.3984 59.8145 55.6641 59.8145Z" fill="#000000" fill-opacity="0.85"/>
 </g>
</svg>
