<?xml version="1.0" encoding="UTF-8"?>
<!--Generator: Apple Native CoreSVG 232.5-->
<!DOCTYPE svg
PUBLIC "-//W3C//DTD SVG 1.1//EN"
       "http://www.w3.org/Graphics/SVG/1.1/DTD/svg11.dtd">
<svg version="1.1" xmlns="http://www.w3.org/2000/svg" xmlns:xlink="http://www.w3.org/1999/xlink" width="92.9688" height="89.9902">
 <g>
  <rect height="89.9902" opacity="0" width="92.9688" x="0" y="0"/>
  <path d="M92.9688 15.2344L92.9688 74.8535C92.9688 84.9121 87.8418 89.9902 77.6367 89.9902L15.332 89.9902C5.12695 89.9902 0 84.9609 0 74.8535L0 15.2344C0 5.12695 5.12695 0.0976562 15.332 0.0976562L77.6367 0.0976562C87.8418 0.0976562 92.9688 5.17578 92.9688 15.2344ZM21.6309 61.3281C21.6309 65.5273 25.0488 68.9453 29.248 68.9453C33.3984 68.9453 36.7676 65.5273 36.7676 61.3281C36.7676 57.2266 33.3984 53.7598 29.248 53.7598C25.0488 53.7598 21.6309 57.2266 21.6309 61.3281ZM56.2012 61.3281C56.2012 65.5273 59.5703 68.9453 63.7695 68.9453C67.8711 68.9453 71.3379 65.5273 71.3379 61.3281C71.3379 57.2266 67.8711 53.7598 63.7695 53.7598C59.5703 53.7598 56.2012 57.2266 56.2012 61.3281ZM38.8672 28.5156C38.8672 32.7148 42.2852 36.1328 46.4844 36.1328C50.6348 36.1328 54.0527 32.7148 54.0527 28.5156C54.0527 24.3652 50.6348 20.9961 46.4844 20.9961C42.2852 20.9961 38.8672 24.3652 38.8672 28.5156Z" fill="#000000" fill-opacity="0.85"/>
 </g>
</svg>
