<?xml version="1.0" encoding="UTF-8"?>
<!--Generator: Apple Native CoreSVG 232.5-->
<!DOCTYPE svg
PUBLIC "-//W3C//DTD SVG 1.1//EN"
       "http://www.w3.org/Graphics/SVG/1.1/DTD/svg11.dtd">
<svg version="1.1" xmlns="http://www.w3.org/2000/svg" xmlns:xlink="http://www.w3.org/1999/xlink" width="89.8926" height="89.9902">
 <g>
  <rect height="89.9902" opacity="0" width="89.8926" x="0" y="0"/>
  <path d="M15.332 89.9902L74.5605 89.9902C84.8145 89.9902 89.8926 84.9121 89.8926 74.8535L89.8926 15.2344C89.8926 5.17578 84.8145 0.0976562 74.5605 0.0976562L15.332 0.0976562C5.12695 0.0976562 0 5.12695 0 15.2344L0 74.8535C0 84.9609 5.12695 89.9902 15.332 89.9902ZM15.4297 82.1289C10.5469 82.1289 7.86133 79.541 7.86133 74.4629L7.86133 15.625C7.86133 10.5469 10.5469 7.95898 15.4297 7.95898L74.4629 7.95898C79.2969 7.95898 82.0312 10.5469 82.0312 15.625L82.0312 74.4629C82.0312 79.541 79.2969 82.1289 74.4629 82.1289Z" fill="#000000" fill-opacity="0.85"/>
  <path d="M26.3184 67.9199L63.8672 67.9199C66.5039 67.9199 68.457 65.9668 68.457 63.3301L68.457 26.709C68.457 24.0723 66.5039 22.1191 63.8672 22.1191L26.3184 22.1191C23.6816 22.1191 21.7285 24.0723 21.7285 26.709L21.7285 63.3301C21.7285 65.9668 23.6816 67.9199 26.3184 67.9199ZM43.9453 41.4551C42.7734 41.4551 41.9434 40.7227 41.9434 39.502L41.9434 31.4941C41.9434 30.3223 42.7734 29.4922 43.9453 29.4922L46.1426 29.4922C47.3145 29.4922 48.2422 30.3223 48.2422 31.4941L48.2422 39.502C48.2422 40.7227 47.3145 41.4551 46.1426 41.4551ZM30.9082 60.1074C29.6875 60.1074 28.9062 59.2773 28.9062 58.1055L28.9062 55.8594C28.9062 54.6875 29.6875 53.8086 30.9082 53.8086L38.5254 53.8086C39.6973 53.8086 40.4785 54.6875 40.4785 55.8594L40.4785 58.1055C40.4785 59.2773 39.6973 60.1074 38.5254 60.1074ZM51.709 60.1074C50.4883 60.1074 49.707 59.2773 49.707 58.1055L49.707 55.8594C49.707 54.6875 50.4883 53.8086 51.709 53.8086L59.2773 53.8086C60.498 53.8086 61.2793 54.6875 61.2793 55.8594L61.2793 58.1055C61.2793 59.2773 60.498 60.1074 59.2773 60.1074Z" fill="#000000" fill-opacity="0.85"/>
 </g>
</svg>
