<?xml version="1.0" encoding="UTF-8"?>
<!--Generator: Apple Native CoreSVG 232.5-->
<!DOCTYPE svg
PUBLIC "-//W3C//DTD SVG 1.1//EN"
       "http://www.w3.org/Graphics/SVG/1.1/DTD/svg11.dtd">
<svg version="1.1" xmlns="http://www.w3.org/2000/svg" xmlns:xlink="http://www.w3.org/1999/xlink" width="99.6094" height="105.322">
 <g>
  <rect height="105.322" opacity="0" width="99.6094" x="0" y="0"/>
  <path d="M49.8047 102.441C77.0508 102.441 99.6094 79.834 99.6094 52.6367C99.6094 37.6465 92.7734 24.6582 83.3984 16.1133C79.1016 12.207 73.584 18.0176 77.832 22.0703C86.1328 29.6387 91.2598 40.4785 91.3086 52.6367C91.3574 75.6836 72.8516 94.1406 49.8047 94.1406C26.7578 94.1406 8.34961 75.6836 8.34961 52.6367C8.39844 40.3809 13.5254 29.5898 21.7773 22.0215C26.0742 17.9199 20.5078 12.1582 16.2109 16.0645C6.78711 24.6094 0 37.6465 0 52.6367C0 79.834 22.6074 102.441 49.8047 102.441ZM49.8047 52.1484C52.1484 52.1484 53.7598 50.4395 53.7598 47.998L53.7598 4.15039C53.7598 1.66016 52.1484 0 49.8047 0C47.4609 0 45.8984 1.66016 45.8984 4.15039L45.8984 47.998C45.8984 50.4395 47.4609 52.1484 49.8047 52.1484Z" fill="#000000" fill-opacity="0.85"/>
 </g>
</svg>
