<?xml version="1.0" encoding="UTF-8"?>
<!--Generator: Apple Native CoreSVG 232.5-->
<!DOCTYPE svg
PUBLIC "-//W3C//DTD SVG 1.1//EN"
       "http://www.w3.org/Graphics/SVG/1.1/DTD/svg11.dtd">
<svg version="1.1" xmlns="http://www.w3.org/2000/svg" xmlns:xlink="http://www.w3.org/1999/xlink" width="191.113" height="63.2324">
 <g>
  <rect height="63.2324" opacity="0" width="191.113" x="0" y="0"/>
  <path d="M149.448 11.6699L154.98 11.6699C158.35 11.6699 160.84 14.1113 160.84 17.4805L160.84 24.2188L191.113 24.2188L191.113 32.0801L160.84 32.0801L160.84 38.4766C160.84 41.8457 158.35 44.2871 154.98 44.2871L149.454 44.2871C148.547 51.1513 143.122 55.957 135.84 55.957L13.7695 55.957C5.76172 55.957 0 50.1953 0 42.1875L0 13.8184C0 5.81055 5.76172 0 13.7695 0L135.84 0C143.106 0 148.522 4.82371 149.448 11.6699ZM31.6406 27.9785C31.6406 36.5723 38.623 43.5059 47.168 43.5059C55.7129 43.5059 62.6953 36.5723 62.6953 27.9785C62.6953 19.4824 55.7129 12.4512 47.168 12.4512C38.623 12.4512 31.6406 19.4824 31.6406 27.9785ZM69.0918 27.9785C69.0918 36.5723 75.9766 43.5059 84.5215 43.5059C93.1152 43.5059 100.098 36.5723 100.098 27.9785C100.098 19.4824 93.1152 12.4512 84.5215 12.4512C75.9766 12.4512 69.0918 19.4824 69.0918 27.9785ZM106.445 27.9785C106.445 36.5723 113.33 43.5059 121.924 43.5059C130.469 43.5059 137.451 36.5723 137.451 27.9785C137.451 19.4824 130.469 12.4512 121.924 12.4512C113.33 12.4512 106.445 19.4824 106.445 27.9785ZM16.8945 16.4551C15.3809 16.4551 14.4043 17.3828 14.4043 18.9453L14.4043 36.9629C14.4043 38.4277 15.3809 39.4043 16.8945 39.4043L20.3125 39.4043C21.7285 39.4043 22.7539 38.4277 22.7539 36.9629L22.7539 18.9453C22.7539 17.3828 21.7285 16.4551 20.3125 16.4551ZM43.6035 22.0215L43.6035 33.9844C43.6035 35.1562 42.6758 36.1328 41.4551 36.1328C40.2832 36.1328 39.2578 35.1074 39.2578 33.9844L39.2578 22.0215C39.2578 20.8984 40.2832 19.8242 41.4551 19.8242C42.6758 19.8242 43.6035 20.8496 43.6035 22.0215ZM54.9805 22.0215L54.9805 33.9844C54.9805 35.1562 54.0527 36.1328 52.8809 36.1328C51.6602 36.1328 50.6348 35.1562 50.6348 33.9844L50.6348 22.0215C50.6348 20.8496 51.6113 19.8242 52.8809 19.8242C54.0527 19.8242 54.9805 20.8496 54.9805 22.0215ZM81.0059 22.0215L81.0059 33.9844C81.0059 35.1562 80.0781 36.1328 78.8086 36.1328C77.6367 36.1328 76.6113 35.1562 76.6113 33.9844L76.6113 22.0215C76.6113 20.8984 77.6367 19.8242 78.8086 19.8242C80.0781 19.8242 81.0059 20.8496 81.0059 22.0215ZM92.3828 22.0215L92.3828 33.9844C92.3828 35.1562 91.4062 36.1328 90.2344 36.1328C89.0137 36.1328 88.0371 35.1562 88.0371 33.9844L88.0371 22.0215C88.0371 20.8496 89.0137 19.8242 90.2344 19.8242C91.4551 19.8242 92.3828 20.8496 92.3828 22.0215ZM118.408 22.0215L118.408 33.9844C118.408 35.1562 117.383 36.1328 116.211 36.1328C114.99 36.1328 114.014 35.1562 114.014 33.9844L114.014 22.0215C114.014 20.8984 114.99 19.8242 116.211 19.8242C117.432 19.8242 118.408 20.8496 118.408 22.0215ZM129.736 22.0215L129.736 33.9844C129.736 35.1562 128.809 36.1328 127.637 36.1328C126.416 36.1328 125.391 35.1562 125.391 33.9844L125.391 22.0215C125.391 20.8496 126.367 19.8242 127.637 19.8242C128.809 19.8242 129.736 20.8496 129.736 22.0215Z" fill="#000000" fill-opacity="0.85"/>
 </g>
</svg>
