<?xml version="1.0" encoding="UTF-8"?>
<!--Generator: Apple Native CoreSVG 232.5-->
<!DOCTYPE svg
PUBLIC "-//W3C//DTD SVG 1.1//EN"
       "http://www.w3.org/Graphics/SVG/1.1/DTD/svg11.dtd">
<svg version="1.1" xmlns="http://www.w3.org/2000/svg" xmlns:xlink="http://www.w3.org/1999/xlink" width="89.8926" height="89.9902">
 <g>
  <rect height="89.9902" opacity="0" width="89.8926" x="0" y="0"/>
  <path d="M15.332 89.9902L74.5605 89.9902C84.8145 89.9902 89.8926 84.9121 89.8926 74.8535L89.8926 15.2344C89.8926 5.17578 84.8145 0.0976562 74.5605 0.0976562L15.332 0.0976562C5.12695 0.0976562 0 5.12695 0 15.2344L0 74.8535C0 84.9609 5.12695 89.9902 15.332 89.9902ZM15.4297 82.1289C10.5469 82.1289 7.86133 79.541 7.86133 74.4629L7.86133 15.625C7.86133 10.5469 10.5469 7.95898 15.4297 7.95898L74.4629 7.95898C79.2969 7.95898 82.0312 10.5469 82.0312 15.625L82.0312 74.4629C82.0312 79.541 79.2969 82.1289 74.4629 82.1289Z" fill="#000000" fill-opacity="0.85"/>
  <path d="M36.4258 73.3398L53.4668 73.3398C56.1523 73.3398 58.0566 71.4355 58.0566 68.75L58.0566 21.1914C58.0566 18.5547 56.1523 16.6504 53.4668 16.6504L36.4258 16.6504C33.7402 16.6504 31.8359 18.5547 31.8359 21.1914L31.8359 68.75C31.8359 71.4355 33.7402 73.3398 36.4258 73.3398ZM44.9707 33.9844C42.2363 33.9844 39.9902 31.7871 39.9902 29.0527C39.9902 26.3184 42.2363 24.1211 44.9707 24.1211C47.6562 24.1211 49.9023 26.3184 49.9023 29.0527C49.9023 31.7871 47.6562 33.9844 44.9707 33.9844ZM44.9707 49.9023C42.2363 49.9023 39.9902 47.7051 39.9902 44.9707C39.9902 42.2363 42.2363 40.0391 44.9707 40.0391C47.6562 40.0391 49.9023 42.2363 49.9023 44.9707C49.9023 47.7051 47.6562 49.9023 44.9707 49.9023ZM44.9707 65.8203C42.2363 65.8203 39.9902 63.623 39.9902 60.8887C39.9902 58.1055 42.2363 55.957 44.9707 55.957C47.6562 55.957 49.9023 58.1055 49.9023 60.8887C49.9023 63.623 47.6562 65.8203 44.9707 65.8203Z" fill="#000000" fill-opacity="0.85"/>
 </g>
</svg>
