<?xml version="1.0" encoding="UTF-8"?>
<!--Generator: Apple Native CoreSVG 232.5-->
<!DOCTYPE svg
PUBLIC "-//W3C//DTD SVG 1.1//EN"
       "http://www.w3.org/Graphics/SVG/1.1/DTD/svg11.dtd">
<svg version="1.1" xmlns="http://www.w3.org/2000/svg" xmlns:xlink="http://www.w3.org/1999/xlink" width="111.035" height="103.955">
 <g>
  <rect height="103.955" opacity="0" width="111.035" x="0" y="0"/>
  <path d="M100.586 32.1777L100.586 36.7676L104.834 36.7676C108.545 36.7676 111.035 39.2578 111.035 42.9688L111.035 60.9375C111.035 64.5996 108.545 67.0898 104.834 67.0898L100.586 67.0898L100.586 71.7285C100.586 88.5254 78.9551 103.857 55.5176 103.857C32.0801 103.857 10.4492 88.5254 10.4492 71.7285L10.4492 67.0898L6.20117 67.0898C2.49023 67.0898 0 64.5996 0 60.9375L0 42.9688C0 39.2578 2.49023 36.7676 6.20117 36.7676L10.4492 36.7676L10.4492 32.1777C10.4492 15.3809 32.0801 0 55.5176 0C78.9551 0 100.586 15.3809 100.586 32.1777ZM22.6562 51.9531C22.6562 57.1777 26.9043 61.4746 32.1289 61.4746C37.4512 61.4746 41.6504 57.1777 41.6504 51.9531C41.6504 46.7285 37.4512 42.4316 32.1289 42.4316C26.9043 42.4316 22.6562 46.7285 22.6562 51.9531ZM69.3848 51.9531C69.3848 57.1777 73.584 61.4746 78.8574 61.4746C84.1309 61.4746 88.3789 57.1777 88.3789 51.9531C88.3789 46.7285 84.1309 42.4316 78.8574 42.4316C73.584 42.4316 69.3848 46.7285 69.3848 51.9531Z" fill="#000000" fill-opacity="0.85"/>
 </g>
</svg>
