<?xml version="1.0" encoding="UTF-8"?>
<!--Generator: Apple Native CoreSVG 232.5-->
<!DOCTYPE svg
PUBLIC "-//W3C//DTD SVG 1.1//EN"
       "http://www.w3.org/Graphics/SVG/1.1/DTD/svg11.dtd">
<svg version="1.1" xmlns="http://www.w3.org/2000/svg" xmlns:xlink="http://www.w3.org/1999/xlink" width="89.8926" height="89.9902">
 <g>
  <rect height="89.9902" opacity="0" width="89.8926" x="0" y="0"/>
  <path d="M89.8926 15.2344L89.8926 74.8535C89.8926 84.9121 84.8145 89.9902 74.5605 89.9902L15.332 89.9902C5.12695 89.9902 0 84.9609 0 74.8535L0 15.2344C0 5.12695 5.12695 0.0976562 15.332 0.0976562L74.5605 0.0976562C84.8145 0.0976562 89.8926 5.17578 89.8926 15.2344ZM18.5059 44.9707C18.5059 59.6191 30.2734 71.4355 44.9707 71.4355C59.6191 71.4355 71.3867 59.6191 71.3867 44.9707C71.3867 30.3223 59.6191 18.5059 44.9707 18.5059C30.2734 18.5059 18.5059 30.3223 18.5059 44.9707ZM37.5488 45.0684C37.5488 48.291 34.9121 50.9766 31.6406 50.9766C28.418 50.9766 25.7324 48.291 25.7324 45.0684C25.7324 41.8457 28.418 39.1602 31.6406 39.1602C34.9121 39.1602 37.5488 41.8457 37.5488 45.0684ZM64.1602 44.9707C64.1602 48.1934 61.4746 50.8789 58.252 50.8789C55.0293 50.8789 52.3438 48.1934 52.3438 44.9707C52.3438 41.748 55.0293 39.0625 58.252 39.0625C61.4746 39.0625 64.1602 41.748 64.1602 44.9707ZM48.7793 31.5918C48.7793 33.6914 47.0703 35.4492 44.9707 35.4492C42.8223 35.4492 41.1133 33.6914 41.1133 31.5918C41.1133 29.4434 42.8223 27.7344 44.9707 27.7344C47.0703 27.7344 48.7793 29.4434 48.7793 31.5918Z" fill="#000000" fill-opacity="0.85"/>
 </g>
</svg>
