<?xml version="1.0" encoding="UTF-8"?>
<!--Generator: Apple Native CoreSVG 232.5-->
<!DOCTYPE svg
PUBLIC "-//W3C//DTD SVG 1.1//EN"
       "http://www.w3.org/Graphics/SVG/1.1/DTD/svg11.dtd">
<svg version="1.1" xmlns="http://www.w3.org/2000/svg" xmlns:xlink="http://www.w3.org/1999/xlink" width="89.8926" height="89.9902">
 <g>
  <rect height="89.9902" opacity="0" width="89.8926" x="0" y="0"/>
  <path d="M15.332 89.9902L74.5605 89.9902C84.8145 89.9902 89.8926 84.9121 89.8926 74.8535L89.8926 15.2344C89.8926 5.17578 84.8145 0.0976562 74.5605 0.0976562L15.332 0.0976562C5.12695 0.0976562 0 5.12695 0 15.2344L0 74.8535C0 84.9609 5.12695 89.9902 15.332 89.9902ZM15.4297 82.1289C10.5469 82.1289 7.86133 79.541 7.86133 74.4629L7.86133 15.625C7.86133 10.5469 10.5469 7.95898 15.4297 7.95898L74.4629 7.95898C79.2969 7.95898 82.0312 10.5469 82.0312 15.625L82.0312 74.4629C82.0312 79.541 79.2969 82.1289 74.4629 82.1289Z" fill="#000000" fill-opacity="0.85"/>
  <path d="M44.9707 70.6055C59.1797 70.6055 70.5566 59.1797 70.5566 44.9707C70.5566 30.7617 59.1797 19.3359 44.9707 19.3359C30.7129 19.3359 19.3359 30.7617 19.3359 44.9707C19.3359 59.1797 30.7129 70.6055 44.9707 70.6055ZM32.8125 50.6836C29.6875 50.6836 27.0996 48.0957 27.0996 44.9707C27.0996 41.8457 29.6875 39.2578 32.8125 39.2578C35.9863 39.2578 38.5254 41.8457 38.5254 44.9707C38.5254 48.0957 35.9863 50.6836 32.8125 50.6836ZM57.0801 50.6836C53.9551 50.6836 51.3672 48.0957 51.3672 44.9707C51.3672 41.8457 53.9551 39.2578 57.0801 39.2578C60.2051 39.2578 62.793 41.8457 62.793 44.9707C62.793 48.0957 60.2051 50.6836 57.0801 50.6836ZM44.9707 63.7207C41.7969 63.7207 39.2578 61.084 39.2578 58.0078C39.2578 54.8828 41.7969 52.2461 44.9707 52.2461C48.0957 52.2461 50.6348 54.8828 50.6348 58.0078C50.6348 61.084 48.0957 63.7207 44.9707 63.7207Z" fill="#000000" fill-opacity="0.85"/>
 </g>
</svg>
