<?xml version="1.0" encoding="UTF-8"?>
<!--Generator: Apple Native CoreSVG 232.5-->
<!DOCTYPE svg
PUBLIC "-//W3C//DTD SVG 1.1//EN"
       "http://www.w3.org/Graphics/SVG/1.1/DTD/svg11.dtd">
<svg version="1.1" xmlns="http://www.w3.org/2000/svg" xmlns:xlink="http://www.w3.org/1999/xlink" width="118.848" height="83.5449">
 <g>
  <rect height="83.5449" opacity="0" width="118.848" x="0" y="0"/>
  <path d="M84.1309 54.1504L95.6055 54.1504C97.9492 54.1504 99.4629 52.6367 99.4629 50.3418L99.4629 3.75977C99.4629 1.51367 97.9492 0 95.6055 0L84.1309 0C76.416 0 69.3359 3.17383 64.1113 9.66797C62.0605 12.1094 61.5234 12.5 58.7402 12.5L47.7051 12.5C43.0176 12.5 39.6973 15.5273 39.6973 19.9219L39.6973 34.2285C39.6973 38.5742 43.0176 41.6504 47.7051 41.6504L58.7402 41.6504C61.5234 41.6504 62.0605 42.041 64.1113 44.3848C69.3848 50.9277 76.4648 54.1504 84.1309 54.1504ZM84.1309 46.7773C78.3203 46.7773 73.9258 44.7266 69.873 39.8438C66.6016 35.8398 63.7207 34.2773 58.7402 34.2773L49.1699 34.2773C47.9004 34.2773 47.0703 33.4961 47.0703 32.2754L47.0703 21.582C47.0703 20.5078 47.7051 19.873 48.877 19.873L58.7402 19.873C63.7207 19.873 66.6016 18.3594 69.873 14.2578C73.9258 9.375 78.2715 7.37305 84.1309 7.37305L90.332 7.37305C91.4551 7.37305 92.0898 7.95898 92.0898 8.98438L92.0898 45.0684C92.0898 46.1426 91.4551 46.7773 90.332 46.7773ZM97.998 21.4355L114.209 21.4355C116.797 21.4355 118.848 19.4336 118.848 16.7969C118.848 14.209 116.797 12.1582 114.209 12.1582L97.998 12.1582ZM97.998 41.9922L114.209 41.9922C116.797 41.9922 118.848 39.8926 118.848 37.3535C118.848 34.7168 116.797 32.666 114.209 32.666L97.998 32.666ZM0 83.4961L40.332 83.4961C51.7578 83.4961 59.1309 76.416 59.1309 66.5039C59.1309 56.543 51.7578 49.3652 40.332 49.3652L18.2617 49.3652C11.7188 49.3652 7.86133 45.5078 7.86133 40.0879C7.86133 34.7168 11.8164 30.957 18.2617 30.957L43.3594 30.957L43.3594 23.0957L18.7988 23.0957C7.32422 23.0957 0 30.1758 0 40.0879C0 50.0488 7.32422 57.2266 18.7988 57.2266L40.8691 57.2266C47.4121 57.2266 51.2695 61.084 51.2695 66.5039C51.2695 71.875 47.3145 75.6348 40.8691 75.6348L0 75.6348Z" fill="#000000" fill-opacity="0.85"/>
 </g>
</svg>
