<?xml version="1.0" encoding="UTF-8"?>
<!--Generator: Apple Native CoreSVG 232.5-->
<!DOCTYPE svg
PUBLIC "-//W3C//DTD SVG 1.1//EN"
       "http://www.w3.org/Graphics/SVG/1.1/DTD/svg11.dtd">
<svg version="1.1" xmlns="http://www.w3.org/2000/svg" xmlns:xlink="http://www.w3.org/1999/xlink" width="89.8926" height="89.9902">
 <g>
  <rect height="89.9902" opacity="0" width="89.8926" x="0" y="0"/>
  <path d="M89.8926 15.2344L89.8926 74.8535C89.8926 84.9121 84.8145 89.9902 74.5605 89.9902L15.332 89.9902C5.12695 89.9902 0 84.9609 0 74.8535L0 15.2344C0 5.12695 5.12695 0.0976562 15.332 0.0976562L74.5605 0.0976562C84.8145 0.0976562 89.8926 5.17578 89.8926 15.2344ZM25.293 21.3379C22.5586 21.3379 20.5566 23.3398 20.5566 26.0742L20.5566 63.8672C20.5566 66.6016 22.5586 68.6035 25.293 68.6035L64.5996 68.6035C67.334 68.6035 69.3359 66.6016 69.3359 63.8672L69.3359 26.0742C69.3359 23.3398 67.334 21.3379 64.5996 21.3379ZM39.1113 55.6641C39.1113 58.4961 36.8164 60.7422 33.9844 60.7422C31.2012 60.7422 28.9062 58.4961 28.9062 55.6641C28.9062 52.832 31.2012 50.5371 33.9844 50.5371C36.8164 50.5371 39.1113 52.832 39.1113 55.6641ZM61.084 55.6641C61.084 58.4961 58.8379 60.7422 56.0059 60.7422C53.1738 60.7422 50.8789 58.4961 50.8789 55.6641C50.8789 52.832 53.1738 50.5371 56.0059 50.5371C58.8379 50.5371 61.084 52.832 61.084 55.6641ZM51.0742 35.2051C51.0742 38.5742 48.3398 41.3086 45.0195 41.3086C41.6504 41.3086 38.916 38.5742 38.916 35.2051C38.916 31.8359 41.6504 29.1016 45.0195 29.1016C48.3398 29.1016 51.0742 31.8359 51.0742 35.2051Z" fill="#000000" fill-opacity="0.85"/>
 </g>
</svg>
