<?xml version="1.0" encoding="UTF-8"?>
<!--Generator: Apple Native CoreSVG 232.5-->
<!DOCTYPE svg
PUBLIC "-//W3C//DTD SVG 1.1//EN"
       "http://www.w3.org/Graphics/SVG/1.1/DTD/svg11.dtd">
<svg version="1.1" xmlns="http://www.w3.org/2000/svg" xmlns:xlink="http://www.w3.org/1999/xlink" width="89.8926" height="89.9902">
 <g>
  <rect height="89.9902" opacity="0" width="89.8926" x="0" y="0"/>
  <path d="M89.8926 15.2344L89.8926 74.8535C89.8926 84.9121 84.8145 89.9902 74.5605 89.9902L15.332 89.9902C5.12695 89.9902 0 84.9609 0 74.8535L0 15.2344C0 5.12695 5.12695 0.0976562 15.332 0.0976562L74.5605 0.0976562C84.8145 0.0976562 89.8926 5.17578 89.8926 15.2344ZM25.293 21.3379C22.5586 21.3379 20.5566 23.3398 20.5566 26.0742L20.5566 63.8672C20.5566 66.6016 22.5586 68.6035 25.293 68.6035L64.5996 68.6035C67.334 68.6035 69.3359 66.6016 69.3359 63.8672L69.3359 26.0742C69.3359 23.3398 67.334 21.3379 64.5996 21.3379ZM39.1113 55.1758C39.1113 58.0078 36.8164 60.3027 33.9844 60.3027C31.2012 60.3027 28.9062 58.0078 28.9062 55.1758C28.9062 52.3926 31.2012 50.0977 33.9844 50.0977C36.8164 50.0977 39.1113 52.3926 39.1113 55.1758ZM61.084 55.1758C61.084 58.0078 58.8379 60.3027 56.0059 60.3027C53.1738 60.3027 50.8789 58.0078 50.8789 55.1758C50.8789 52.3926 53.1738 50.0977 56.0059 50.0977C58.8379 50.0977 61.084 52.3926 61.084 55.1758ZM50.0977 34.7168C50.0977 37.5488 47.8027 39.8438 45.0195 39.8438C42.1875 39.8438 39.8926 37.5488 39.8926 34.7168C39.8926 31.9336 42.1875 29.6387 45.0195 29.6387C47.8027 29.6387 50.0977 31.9336 50.0977 34.7168Z" fill="#000000" fill-opacity="0.85"/>
 </g>
</svg>
