<?xml version="1.0" encoding="UTF-8"?>
<!--Generator: Apple Native CoreSVG 232.5-->
<!DOCTYPE svg
PUBLIC "-//W3C//DTD SVG 1.1//EN"
       "http://www.w3.org/Graphics/SVG/1.1/DTD/svg11.dtd">
<svg version="1.1" xmlns="http://www.w3.org/2000/svg" xmlns:xlink="http://www.w3.org/1999/xlink" width="89.8926" height="89.9902">
 <g>
  <rect height="89.9902" opacity="0" width="89.8926" x="0" y="0"/>
  <path d="M15.332 89.9902L74.5605 89.9902C84.8145 89.9902 89.8926 84.9121 89.8926 74.8535L89.8926 15.2344C89.8926 5.17578 84.8145 0.0976562 74.5605 0.0976562L15.332 0.0976562C5.12695 0.0976562 0 5.12695 0 15.2344L0 74.8535C0 84.9609 5.12695 89.9902 15.332 89.9902ZM15.4297 82.1289C10.5469 82.1289 7.86133 79.541 7.86133 74.4629L7.86133 15.625C7.86133 10.5469 10.5469 7.95898 15.4297 7.95898L74.4629 7.95898C79.2969 7.95898 82.0312 10.5469 82.0312 15.625L82.0312 74.4629C82.0312 79.541 79.2969 82.1289 74.4629 82.1289Z" fill="#000000" fill-opacity="0.85"/>
  <path d="M44.9707 70.6055C59.1797 70.6055 70.5566 59.1797 70.5566 44.9707C70.5566 30.7617 59.1797 19.3359 44.9707 19.3359C30.7129 19.3359 19.3359 30.7617 19.3359 44.9707C19.3359 59.1797 30.7129 70.6055 44.9707 70.6055ZM44.9707 35.791C42.8711 35.791 41.2598 34.1309 41.2598 32.0801C41.2598 29.9805 42.8711 28.3203 44.9707 28.3203C47.0215 28.3203 48.6816 29.9805 48.6816 32.0801C48.6816 34.1309 47.0215 35.791 44.9707 35.791ZM32.0801 50.7812C28.9551 50.7812 26.3184 48.1934 26.3184 45.0684C26.3184 41.9434 28.9551 39.3555 32.0801 39.3555C35.2051 39.3555 37.793 41.9434 37.793 45.0684C37.793 48.1934 35.2051 50.7812 32.0801 50.7812ZM57.8613 50.6836C54.7363 50.6836 52.0996 48.0957 52.0996 44.9707C52.0996 41.8457 54.7363 39.2578 57.8613 39.2578C60.9375 39.2578 63.5742 41.8457 63.5742 44.9707C63.5742 48.0957 60.9375 50.6836 57.8613 50.6836Z" fill="#000000" fill-opacity="0.85"/>
 </g>
</svg>
