<?xml version="1.0" encoding="UTF-8"?>
<!--Generator: Apple Native CoreSVG 232.5-->
<!DOCTYPE svg
PUBLIC "-//W3C//DTD SVG 1.1//EN"
       "http://www.w3.org/Graphics/SVG/1.1/DTD/svg11.dtd">
<svg version="1.1" xmlns="http://www.w3.org/2000/svg" xmlns:xlink="http://www.w3.org/1999/xlink" width="110.303" height="106.787">
 <g>
  <rect height="106.787" opacity="0" width="110.303" x="0" y="0"/>
  <path d="M90.9668 15.3809L90.9668 17.9688L83.3984 17.9688L83.3984 14.8438C83.3984 10.7422 81.3477 8.74023 77.2461 8.74023L33.0566 8.74023C29.0039 8.74023 26.9043 10.7422 26.9043 14.8438L26.9043 17.9688L19.3359 17.9688L19.3359 15.3809C19.3359 5.85938 24.5605 1.61133 33.1543 1.61133L77.1484 1.61133C86.2305 1.61133 90.9668 5.85938 90.9668 15.3809Z" fill="#000000" fill-opacity="0.85"/>
  <path d="M110.303 32.2754L110.303 77.9785C110.303 87.5 105.273 92.2852 95.8008 92.2852L90.625 92.2852L90.625 84.9121L95.8984 84.9121C100.195 84.9121 102.441 82.666 102.441 78.3691L102.441 31.8848C102.441 27.5879 100.195 25.3418 95.8984 25.3418L14.4531 25.3418C10.1074 25.3418 7.91016 27.5879 7.91016 31.8848L7.91016 78.3691C7.91016 82.666 10.1074 84.9121 14.4531 84.9121L19.6777 84.9121L19.6777 92.2852L14.5508 92.2852C5.0293 92.2852 0 87.5 0 77.9785L0 32.2754C0 22.8027 5.51758 17.9688 14.5508 17.9688L95.8008 17.9688C105.273 17.9688 110.303 22.8027 110.303 32.2754ZM91.0156 36.9141C91.0156 40.2832 88.2324 43.0176 84.9609 43.0176C81.5918 43.0176 78.8574 40.2832 78.8574 36.9141C78.8574 33.6426 81.5918 30.8594 84.9609 30.8594C88.2324 30.8594 91.0156 33.6426 91.0156 36.9141Z" fill="#000000" fill-opacity="0.85"/>
  <path d="M29.0039 106.787L81.2988 106.787C87.5 106.787 90.625 103.955 90.625 97.4609L90.625 57.6172C90.625 51.123 87.5 48.291 81.2988 48.291L29.0039 48.291C23.0957 48.291 19.6777 51.123 19.6777 57.6172L19.6777 97.4609C19.6777 103.955 22.8027 106.787 29.0039 106.787ZM31.4453 99.4141C28.8574 99.4141 27.5391 98.1445 27.5391 95.5078L27.5391 59.5215C27.5391 56.8848 28.8574 55.6641 31.4453 55.6641L78.9062 55.6641C81.543 55.6641 82.7637 56.8848 82.7637 59.5215L82.7637 95.5078C82.7637 98.1445 81.543 99.4141 78.9062 99.4141ZM39.5508 68.457C41.9922 68.457 43.9941 66.5527 43.9941 64.0625C43.9941 61.6211 41.9922 59.7168 39.5508 59.7168C37.1582 59.7168 35.1562 61.6211 35.1562 64.0625C35.1562 66.5527 37.1582 68.457 39.5508 68.457ZM39.5508 81.8848C41.9922 81.8848 43.9941 79.9805 43.9941 77.5391C43.9941 75.0977 41.9922 73.1445 39.5508 73.1445C37.1582 73.1445 35.1562 75.0977 35.1562 77.5391C35.1562 79.9805 37.1582 81.8848 39.5508 81.8848ZM39.5508 95.3613C41.9922 95.3613 43.9941 93.457 43.9941 90.9668C43.9941 88.5254 41.9922 86.6211 39.5508 86.6211C37.1582 86.6211 35.1562 88.5254 35.1562 90.9668C35.1562 93.457 37.1582 95.3613 39.5508 95.3613ZM70.8008 68.457C73.2422 68.457 75.1953 66.5527 75.1953 64.0625C75.1953 61.6211 73.2422 59.7168 70.8008 59.7168C68.3594 59.7168 66.4062 61.6211 66.4062 64.0625C66.4062 66.5527 68.3594 68.457 70.8008 68.457ZM70.8008 81.8848C73.2422 81.8848 75.1953 79.9805 75.1953 77.5391C75.1953 75.0977 73.2422 73.1445 70.8008 73.1445C68.3594 73.1445 66.4062 75.0977 66.4062 77.5391C66.4062 79.9805 68.3594 81.8848 70.8008 81.8848ZM70.8008 95.3613C73.2422 95.3613 75.1953 93.457 75.1953 90.9668C75.1953 88.5254 73.2422 86.6211 70.8008 86.6211C68.3594 86.6211 66.4062 88.5254 66.4062 90.9668C66.4062 93.457 68.3594 95.3613 70.8008 95.3613Z" fill="#000000" fill-opacity="0.85"/>
 </g>
</svg>
