<?xml version="1.0" encoding="UTF-8"?>
<!--Generator: Apple Native CoreSVG 232.5-->
<!DOCTYPE svg
PUBLIC "-//W3C//DTD SVG 1.1//EN"
       "http://www.w3.org/Graphics/SVG/1.1/DTD/svg11.dtd">
<svg version="1.1" xmlns="http://www.w3.org/2000/svg" xmlns:xlink="http://www.w3.org/1999/xlink" width="110.303" height="106.787">
 <g>
  <rect height="106.787" opacity="0" width="110.303" x="0" y="0"/>
  <path d="M90.9668 15.3809L90.9668 17.9688L83.3984 17.9688L83.3984 14.8438C83.3984 10.7422 81.3477 8.74023 77.2461 8.74023L33.0566 8.74023C29.0039 8.74023 26.9043 10.7422 26.9043 14.8438L26.9043 17.9688L19.3359 17.9688L19.3359 15.3809C19.3359 5.85938 24.5605 1.61133 33.1543 1.61133L77.1484 1.61133C86.2305 1.61133 90.9668 5.85938 90.9668 15.3809Z" fill="#000000" fill-opacity="0.85"/>
  <path d="M110.303 32.2754L110.303 77.9785C110.303 87.5 105.273 92.2852 95.8008 92.2852L90.625 92.2852L90.625 84.9121L95.8984 84.9121C100.195 84.9121 102.441 82.666 102.441 78.3691L102.441 31.8848C102.441 27.5879 100.195 25.3418 95.8984 25.3418L14.4531 25.3418C10.1074 25.3418 7.91016 27.5879 7.91016 31.8848L7.91016 78.3691C7.91016 82.666 10.1074 84.9121 14.4531 84.9121L19.6777 84.9121L19.6777 92.2852L14.5508 92.2852C5.0293 92.2852 0 87.5 0 77.9785L0 32.2754C0 22.8027 5.51758 17.9688 14.5508 17.9688L95.8008 17.9688C105.273 17.9688 110.303 22.8027 110.303 32.2754ZM91.0156 36.9141C91.0156 40.2832 88.2324 43.0176 84.9609 43.0176C81.5918 43.0176 78.8574 40.2832 78.8574 36.9141C78.8574 33.6426 81.5918 30.8594 84.9609 30.8594C88.2324 30.8594 91.0156 33.6426 91.0156 36.9141Z" fill="#000000" fill-opacity="0.85"/>
  <path d="M29.0039 106.787L81.2988 106.787C87.5 106.787 90.625 103.955 90.625 97.4609L90.625 57.6172C90.625 51.123 87.5 48.291 81.2988 48.291L29.0039 48.291C23.0957 48.291 19.6777 51.123 19.6777 57.6172L19.6777 97.4609C19.6777 103.955 22.8027 106.787 29.0039 106.787ZM31.4453 99.4141C28.8574 99.4141 27.5391 98.1445 27.5391 95.5078L27.5391 59.5215C27.5391 56.8848 28.8574 55.6641 31.4453 55.6641L78.9062 55.6641C81.543 55.6641 82.7637 56.8848 82.7637 59.5215L82.7637 95.5078C82.7637 98.1445 81.543 99.4141 78.9062 99.4141ZM38.2324 72.0215L72.168 72.0215C73.9258 72.0215 75.1953 70.7031 75.1953 68.9453C75.1953 67.2852 73.9258 66.0156 72.168 66.0156L38.2324 66.0156C36.4746 66.0156 35.1562 67.2852 35.1562 68.9453C35.1562 70.7031 36.4746 72.0215 38.2324 72.0215ZM38.2324 89.0625L72.168 89.0625C73.9258 89.0625 75.1953 87.7441 75.1953 86.084C75.1953 84.375 73.9258 83.0566 72.168 83.0566L38.2324 83.0566C36.4746 83.0566 35.1562 84.375 35.1562 86.084C35.1562 87.7441 36.4746 89.0625 38.2324 89.0625Z" fill="#000000" fill-opacity="0.85"/>
 </g>
</svg>
