<?xml version="1.0" encoding="UTF-8"?>
<!--Generator: Apple Native CoreSVG 232.5-->
<!DOCTYPE svg
PUBLIC "-//W3C//DTD SVG 1.1//EN"
       "http://www.w3.org/Graphics/SVG/1.1/DTD/svg11.dtd">
<svg version="1.1" xmlns="http://www.w3.org/2000/svg" xmlns:xlink="http://www.w3.org/1999/xlink" width="84.8145" height="89.8926">
 <g>
  <rect height="89.8926" opacity="0" width="84.8145" x="0" y="0"/>
  <path d="M4.44336 56.3477C5.71289 56.3477 6.78711 55.957 7.61719 55.0781L45.4102 16.4062L39.4043 16.4062L77.1973 55.0781C78.0273 55.9082 79.1016 56.3477 80.3711 56.3477C82.959 56.3477 84.8145 54.4434 84.8145 51.9043C84.8145 50.6348 84.3262 49.6094 83.4961 48.7305L45.7031 10.0098C44.8242 9.13086 43.7012 8.59375 42.4316 8.59375C41.1621 8.59375 40.0391 9.08203 39.1113 10.0098L1.31836 48.7305C0.439453 49.6094 0 50.6348 0 51.9043C0 54.4434 1.9043 56.3477 4.44336 56.3477ZM5.71289 8.74023L79.0039 8.74023C81.543 8.74023 83.3008 6.88477 83.3008 4.3457C83.3008 1.80664 81.543 0 79.0039 0L5.71289 0C3.22266 0 1.51367 1.80664 1.51367 4.3457C1.51367 6.88477 3.22266 8.74023 5.71289 8.74023Z" fill="#000000" fill-opacity="0.85"/>
 </g>
</svg>
