<?xml version="1.0" encoding="UTF-8"?>
<!--Generator: Apple Native CoreSVG 232.5-->
<!DOCTYPE svg
PUBLIC "-//W3C//DTD SVG 1.1//EN"
       "http://www.w3.org/Graphics/SVG/1.1/DTD/svg11.dtd">
<svg version="1.1" xmlns="http://www.w3.org/2000/svg" xmlns:xlink="http://www.w3.org/1999/xlink" width="70.8008" height="93.0176">
 <g>
  <rect height="93.0176" opacity="0" width="70.8008" x="0" y="0"/>
  <path d="M0 71.6797C0 72.8516 0.537109 73.9258 1.31836 74.707L17.2852 90.625C18.8477 92.2363 20.5566 92.9688 22.3145 92.9688C24.0234 92.9688 25.6836 92.1875 27.2461 90.625L43.2617 74.6582C44.0918 73.8281 44.5801 72.7539 44.5801 71.6309C44.5801 69.4336 42.8223 67.7734 40.8691 67.7734C39.4043 67.7734 38.4766 68.3105 37.6465 69.0918L33.4473 73.291L25.9766 81.8359L26.4648 66.0645L26.4648 29.0039C26.4648 16.6504 33.3008 8.34961 44.6289 8.34961C55.2246 8.34961 62.5977 15.7227 62.5977 26.8066C62.5977 37.5 55.3711 45.0195 45.4102 45.0195C41.9434 45.0195 41.0645 44.2871 39.3555 44.2871C37.2559 44.2871 35.5469 45.7031 35.5469 47.9004C35.5469 49.3652 36.2793 50.4883 37.3535 51.3184C39.209 52.7832 42.334 53.3203 45.166 53.3203C60.6934 53.3203 70.8008 42.4805 70.8008 26.8066C70.8008 10.6934 60.1562 0 44.6289 0C28.8086 0 18.0664 10.5469 18.0664 29.3457L18.0664 66.1133L18.5547 81.8359L11.084 73.3398L6.88477 69.1406C6.10352 68.3594 5.17578 67.8223 3.71094 67.8223C1.70898 67.8223 0 69.4824 0 71.6797Z" fill="#000000" fill-opacity="0.85"/>
 </g>
</svg>
