<?xml version="1.0" encoding="UTF-8"?>
<!--Generator: Apple Native CoreSVG 232.5-->
<!DOCTYPE svg
PUBLIC "-//W3C//DTD SVG 1.1//EN"
       "http://www.w3.org/Graphics/SVG/1.1/DTD/svg11.dtd">
<svg version="1.1" xmlns="http://www.w3.org/2000/svg" xmlns:xlink="http://www.w3.org/1999/xlink" width="99.6094" height="99.6582">
 <g>
  <rect height="99.6582" opacity="0" width="99.6094" x="0" y="0"/>
  <path d="M49.8047 99.6094C77.0508 99.6094 99.6094 77.002 99.6094 49.8047C99.6094 22.5586 77.002 0 49.7559 0C22.5586 0 0 22.5586 0 49.8047C0 77.002 22.6074 99.6094 49.8047 99.6094ZM49.8047 91.3086C26.7578 91.3086 8.34961 72.8516 8.34961 49.8047C8.34961 26.7578 26.709 8.30078 49.7559 8.30078C72.8027 8.30078 91.3086 26.7578 91.3086 49.8047C91.3086 72.8516 72.8516 91.3086 49.8047 91.3086Z" fill="#000000" fill-opacity="0.85"/>
  <path d="M28.3691 63.3301C28.3691 64.0625 28.7598 64.8926 29.3457 65.5273L38.7695 74.9023C39.8926 75.9277 41.0156 76.4648 42.0898 76.4648C43.2129 76.4648 44.3359 75.9766 45.4102 74.9023L54.8828 65.4785C55.5176 64.7949 55.8594 64.0625 55.8594 63.3301C55.8594 61.7188 54.5898 60.4492 53.0273 60.4492C52.0508 60.4492 51.3672 60.7422 50.6836 61.4258L48.291 63.916L44.9219 67.7246L45.166 60.0098L45.166 40.1855C45.166 32.8125 48.7305 28.7109 55.2734 28.7109C61.2793 28.7109 65.332 32.8613 65.2832 39.0137C65.2344 45.0195 61.3281 49.1699 55.7129 49.1699C54.3457 49.1699 53.6621 48.8281 52.7832 48.8281C51.2207 48.8281 50.0488 49.9512 50.0488 51.416C50.0488 52.2949 50.3906 53.0273 50.9277 53.5645C51.9043 54.541 53.6621 55.0293 55.5176 55.0293C64.9902 55.0293 71.2402 48.6328 71.2402 39.0137C71.2402 29.248 64.7461 22.6074 55.2734 22.6074C45.3613 22.6074 39.0137 29.248 39.0137 39.6973L39.0137 60.0586L39.2578 67.7246L35.9375 63.9648L33.4961 61.4746C32.8125 60.7422 32.0312 60.4492 31.1523 60.4492C29.5898 60.4492 28.3691 61.7188 28.3691 63.3301Z" fill="#000000" fill-opacity="0.85"/>
 </g>
</svg>
