<?xml version="1.0" encoding="UTF-8"?>
<!--Generator: Apple Native CoreSVG 232.5-->
<!DOCTYPE svg
PUBLIC "-//W3C//DTD SVG 1.1//EN"
       "http://www.w3.org/Graphics/SVG/1.1/DTD/svg11.dtd">
<svg version="1.1" xmlns="http://www.w3.org/2000/svg" xmlns:xlink="http://www.w3.org/1999/xlink" width="120.068" height="94.5801">
 <g>
  <rect height="94.5801" opacity="0" width="120.068" x="0" y="0"/>
  <path d="M3.71094 79.6387C3.71094 89.3066 8.69141 94.3848 18.3105 94.3848L78.7109 94.3848C88.4277 94.3848 93.5059 89.4043 93.5059 79.834L93.5059 59.2285C93.5059 58.252 94.2871 57.8125 95.2637 58.5938C97.9492 60.6445 101.123 62.3047 105.322 62.3047C113.623 62.3047 120.068 55.7617 120.068 47.3633C120.068 39.0137 113.623 32.4707 105.322 32.4707C101.123 32.4707 97.9492 34.1309 95.2637 36.1816C94.2871 36.9629 93.5059 36.5234 93.5059 35.5469L93.5059 14.5508C93.5059 4.98047 88.4277 0 78.7109 0L18.3105 0C8.69141 0 3.71094 5.07812 3.71094 14.7461L3.71094 35.6934C3.71094 38.8672 6.20117 40.9668 9.13086 40.9668C10.7422 40.9668 12.4512 40.2832 13.9648 38.8184C16.2598 36.6699 19.0918 33.9355 24.7559 33.9355C32.1289 33.9355 37.9395 39.7949 37.9395 47.2656C37.9395 54.7363 32.1289 60.5957 24.7559 60.5957C19.0918 60.5957 16.2598 57.8125 13.9648 55.6641C12.4512 54.248 10.7422 53.5645 9.13086 53.5645C6.20117 53.5645 3.71094 55.6641 3.71094 58.8379Z" fill="#000000" fill-opacity="0.85"/>
 </g>
</svg>
