<?xml version="1.0" encoding="UTF-8"?>
<!--Generator: Apple Native CoreSVG 232.5-->
<!DOCTYPE svg
PUBLIC "-//W3C//DTD SVG 1.1//EN"
       "http://www.w3.org/Graphics/SVG/1.1/DTD/svg11.dtd">
<svg version="1.1" xmlns="http://www.w3.org/2000/svg" xmlns:xlink="http://www.w3.org/1999/xlink" width="99.6094" height="99.6582">
 <g>
  <rect height="99.6582" opacity="0" width="99.6094" x="0" y="0"/>
  <path d="M99.6094 49.8047C99.6094 77.002 77.0508 99.6094 49.8047 99.6094C22.6074 99.6094 0 77.002 0 49.8047C0 22.5586 22.5586 0 49.7559 0C77.002 0 99.6094 22.5586 99.6094 49.8047ZM27.9785 49.3164C27.9785 63.4766 36.9141 73.4375 49.8047 73.4375C52.7344 73.4375 55.4199 72.9004 57.8613 71.9727L61.377 76.6602C62.3535 78.0273 63.2812 78.5156 64.5508 78.5156C66.3574 78.5156 67.5293 77.2949 67.5293 75.5371C67.5293 74.6094 67.2852 74.0234 66.3574 72.7539L63.3301 68.7012C68.5059 64.5508 71.6309 57.7148 71.6309 49.3164C71.6309 35.1074 62.6953 25.1953 49.8047 25.1953C36.9141 25.1953 27.9785 35.1074 27.9785 49.3164ZM63.5742 49.3164C63.5742 55.1758 61.9141 59.9121 59.0332 62.9395L56.1523 59.082C55.3711 58.0566 54.5898 57.666 53.418 57.666C51.7578 57.666 50.3906 58.9355 50.3906 60.5469C50.3906 61.4258 50.6348 62.1582 51.3672 63.0859L53.8086 66.4551C52.5879 66.8457 51.2695 67.041 49.8047 67.041C41.5039 67.041 36.084 60.0586 36.084 49.3164C36.084 38.5742 41.5039 31.5918 49.8047 31.5918C58.1055 31.5918 63.5742 38.5742 63.5742 49.3164Z" fill="#000000" fill-opacity="0.85"/>
 </g>
</svg>
