<?xml version="1.0" encoding="UTF-8"?>
<!--Generator: Apple Native CoreSVG 232.5-->
<!DOCTYPE svg
PUBLIC "-//W3C//DTD SVG 1.1//EN"
       "http://www.w3.org/Graphics/SVG/1.1/DTD/svg11.dtd">
<svg version="1.1" xmlns="http://www.w3.org/2000/svg" xmlns:xlink="http://www.w3.org/1999/xlink" width="89.8926" height="89.9902">
 <g>
  <rect height="89.9902" opacity="0" width="89.8926" x="0" y="0"/>
  <path d="M15.332 89.9902L74.5605 89.9902C84.8145 89.9902 89.8926 84.9121 89.8926 74.8535L89.8926 15.2344C89.8926 5.17578 84.8145 0.0976562 74.5605 0.0976562L15.332 0.0976562C5.12695 0.0976562 0 5.12695 0 15.2344L0 74.8535C0 84.9609 5.12695 89.9902 15.332 89.9902ZM15.4297 82.1289C10.5469 82.1289 7.86133 79.541 7.86133 74.4629L7.86133 15.625C7.86133 10.5469 10.5469 7.95898 15.4297 7.95898L74.4629 7.95898C79.2969 7.95898 82.0312 10.5469 82.0312 15.625L82.0312 74.4629C82.0312 79.541 79.2969 82.1289 74.4629 82.1289Z" fill="#000000" fill-opacity="0.85"/>
  <path d="M44.9707 67.8711C47.8027 67.8711 50.4883 67.3828 52.7832 66.4551L56.2012 71.0449C57.1289 72.3633 58.0566 72.8027 59.2773 72.8027C60.9863 72.8027 62.207 71.6309 62.207 69.9219C62.207 69.043 61.9141 68.457 60.9863 67.2363L58.0566 63.3301C63.0859 59.2773 66.1133 52.6367 66.1133 44.5312C66.1133 30.7617 57.4707 21.1426 44.9707 21.1426C32.4707 21.1426 23.8281 30.7617 23.8281 44.5312C23.8281 58.252 32.4707 67.8711 44.9707 67.8711ZM44.9707 61.7188C36.9141 61.7188 31.6406 54.9316 31.6406 44.5312C31.6406 34.082 36.9141 27.2949 44.9707 27.2949C53.0762 27.2949 58.3496 34.082 58.3496 44.5312C58.3496 50.1953 56.7383 54.834 53.9062 57.7637L51.123 54.0039C50.3418 52.9785 49.6094 52.6367 48.4863 52.6367C46.875 52.6367 45.5566 53.8574 45.5566 55.4199C45.5566 56.25 45.8496 56.9336 46.4844 57.8613L48.877 61.1328C47.7051 61.5234 46.4355 61.7188 44.9707 61.7188Z" fill="#000000" fill-opacity="0.85"/>
 </g>
</svg>
