<?xml version="1.0" encoding="UTF-8"?>
<!--Generator: Apple Native CoreSVG 232.5-->
<!DOCTYPE svg
PUBLIC "-//W3C//DTD SVG 1.1//EN"
       "http://www.w3.org/Graphics/SVG/1.1/DTD/svg11.dtd">
<svg version="1.1" xmlns="http://www.w3.org/2000/svg" xmlns:xlink="http://www.w3.org/1999/xlink" width="110.889" height="89.9902">
 <g>
  <rect height="89.9902" opacity="0" width="110.889" x="0" y="0"/>
  <path d="M15.332 89.3555L97.0215 89.3555C105.762 89.3555 110.889 84.2773 110.889 74.2188L110.889 24.0723C110.889 14.0137 105.713 8.93555 95.5566 8.93555L48.6816 8.93555C45.3613 8.93555 43.3594 8.1543 40.918 6.05469L37.9395 3.61328C34.7168 0.878906 32.2266 0 27.3926 0L13.4766 0C4.93164 0 0 4.88281 0 14.6973L0 74.2188C0 84.3262 5.12695 89.3555 15.332 89.3555ZM15.4297 81.4941C10.5469 81.4941 7.86133 78.9062 7.86133 73.8281L7.86133 15.1367C7.86133 10.3027 10.4004 7.8125 15.0879 7.8125L25.3906 7.8125C28.6133 7.8125 30.5664 8.64258 33.0566 10.7422L36.0352 13.2324C39.209 15.8691 41.7969 16.7969 46.6309 16.7969L95.4102 16.7969C100.244 16.7969 103.027 19.4336 103.027 24.5117L103.027 73.877C103.027 78.9062 100.244 81.4941 95.4102 81.4941Z" fill="#000000" fill-opacity="0.85"/>
  <path d="M54.5898 58.252C56.8848 58.252 58.252 56.7871 58.252 55.0293C58.252 54.834 58.252 54.6387 58.252 54.4434C58.252 51.9043 59.7168 50.3418 62.8906 48.2422C67.2852 45.3125 70.4102 42.6758 70.4102 37.2559C70.4102 29.7363 63.7207 25.6836 56.0059 25.6836C48.2422 25.6836 43.1152 29.3457 41.8457 33.4961C41.6016 34.2773 41.4551 34.9609 41.4551 35.7422C41.4551 37.793 43.0664 38.8672 44.5801 38.8672C46.1426 38.8672 47.1191 38.1836 47.9492 37.0605L48.7305 35.9863C50.3418 33.3496 52.7344 31.8359 55.7129 31.8359C59.8633 31.8359 62.5488 34.1797 62.5488 37.5977C62.5488 40.6738 60.6445 42.1875 56.6406 44.9707C53.418 47.2168 50.9766 49.6094 50.9766 54.0527C50.9766 54.248 50.9766 54.4434 50.9766 54.6387C50.9766 57.0312 52.2949 58.252 54.5898 58.252ZM54.4922 71.7773C57.1289 71.7773 59.375 69.6777 59.375 67.041C59.375 64.4043 57.1777 62.3535 54.4922 62.3535C51.8555 62.3535 49.6094 64.4531 49.6094 67.041C49.6094 69.6289 51.9043 71.7773 54.4922 71.7773Z" fill="#000000" fill-opacity="0.85"/>
 </g>
</svg>
