<?xml version="1.0" encoding="UTF-8"?>
<!--Generator: Apple Native CoreSVG 232.5-->
<!DOCTYPE svg
PUBLIC "-//W3C//DTD SVG 1.1//EN"
       "http://www.w3.org/Graphics/SVG/1.1/DTD/svg11.dtd">
<svg version="1.1" xmlns="http://www.w3.org/2000/svg" xmlns:xlink="http://www.w3.org/1999/xlink" width="90.0391" height="90.0879">
 <g>
  <rect height="90.0879" opacity="0" width="90.0391" x="0" y="0"/>
  <path d="M84.3262 5.76172C79.3457 0.78125 72.3145 0 63.9648 0L25.9277 0C17.7246 0 10.6934 0.78125 5.71289 5.76172C0.732422 10.7422 0 17.7246 0 25.9277L0 63.9648C0 72.3145 0.732422 79.2969 5.71289 84.2773C10.6934 89.2578 17.7246 90.0391 26.0254 90.0391L63.9648 90.0391C72.3145 90.0391 79.3457 89.2578 84.3262 84.2773C89.3066 79.2969 90.0391 72.3145 90.0391 63.9648L90.0391 26.0254C90.0391 17.6758 89.3066 10.7422 84.3262 5.76172ZM82.1777 24.707L82.1777 65.332C82.1777 70.3613 81.543 75.5859 78.5645 78.5156C75.6348 81.4941 70.3613 82.1777 65.332 82.1777L24.707 82.1777C19.6777 82.1777 14.4043 81.4941 11.4258 78.5156C8.49609 75.5859 7.86133 70.3613 7.86133 65.332L7.86133 24.8535C7.86133 19.6777 8.49609 14.4531 11.4258 11.4746C14.4043 8.54492 19.7266 7.86133 24.8535 7.86133L65.332 7.86133C70.3613 7.86133 75.6348 8.54492 78.5645 11.5234C81.543 14.4531 82.1777 19.6777 82.1777 24.707Z" fill="#000000" fill-opacity="0.85"/>
  <path d="M44.0918 55.127C46.5332 55.127 47.998 53.5645 47.998 51.6602C47.998 51.4648 47.998 51.2207 47.998 51.0742C47.998 48.3398 49.6094 46.582 52.9785 44.3359C57.7148 41.2109 61.084 38.3789 61.084 32.5195C61.084 24.4141 53.9062 20.0195 45.6055 20.0195C37.207 20.0195 31.6895 24.0234 30.3223 28.5156C30.0781 29.2969 29.9316 30.0781 29.9316 30.9082C29.9316 33.1055 31.6406 34.2773 33.3008 34.2773C34.9609 34.2773 35.9863 33.4961 36.8652 32.3242L37.7441 31.1523C39.4531 28.3203 42.041 26.6602 45.2637 26.6602C49.707 26.6602 52.6367 29.1992 52.6367 32.9102C52.6367 36.2305 50.5371 37.8418 46.2891 40.8203C42.7734 43.2617 40.1855 45.8496 40.1855 50.6348C40.1855 50.8301 40.1855 51.0742 40.1855 51.2695C40.1855 53.8086 41.5527 55.127 44.0918 55.127ZM43.9453 69.6777C46.7773 69.6777 49.2188 67.4316 49.2188 64.5996C49.2188 61.7676 46.8262 59.5215 43.9453 59.5215C41.0645 59.5215 38.6719 61.8164 38.6719 64.5996C38.6719 67.3828 41.1133 69.6777 43.9453 69.6777Z" fill="#000000" fill-opacity="0.85"/>
 </g>
</svg>
