<?xml version="1.0" encoding="UTF-8"?>
<!--Generator: Apple Native CoreSVG 232.5-->
<!DOCTYPE svg
PUBLIC "-//W3C//DTD SVG 1.1//EN"
       "http://www.w3.org/Graphics/SVG/1.1/DTD/svg11.dtd">
<svg version="1.1" xmlns="http://www.w3.org/2000/svg" xmlns:xlink="http://www.w3.org/1999/xlink" width="110.755" height="110.804">
 <g>
  <rect height="110.804" opacity="0" width="110.755" x="0" y="0"/>
  <path d="M5.47524 66.1686L44.5866 105.28C51.8131 112.506 58.942 112.555 66.1198 105.426L105.426 66.0709C112.555 58.942 112.506 51.7643 105.28 44.5377L66.2174 5.47524C58.9909-1.75132 51.862-1.84898 44.6842 5.32876L5.32876 44.6354C-1.84898 51.8131-1.75132 58.942 5.47524 66.1686ZM11.1393 60.7487C7.67251 57.2331 7.57485 53.5709 11.1881 49.9577L49.9577 11.1881C53.5709 7.57485 57.2331 7.62368 60.7487 11.1393L99.6159 50.0065C103.083 53.4733 103.18 57.1842 99.567 60.7975L60.7975 99.567C57.1842 103.18 53.4245 103.083 50.0065 99.6647Z" fill="#000000" fill-opacity="0.85"/>
  <path d="M54.4499 65.485C56.8913 65.485 58.3561 63.9225 58.3561 62.0182C58.3561 61.8229 58.3561 61.5788 58.3561 61.4323C58.3561 58.6979 59.9674 56.9401 63.3854 54.694C68.1217 51.569 71.4909 48.737 71.4909 42.8776C71.4909 34.7721 64.2643 30.3776 55.9635 30.3776C47.5651 30.3776 42.0475 34.3815 40.7291 38.8737C40.4362 39.6549 40.2897 40.4362 40.2897 41.2663C40.2897 43.4635 41.9987 44.6354 43.6588 44.6354C45.319 44.6354 46.3932 43.8541 47.2721 42.6823L48.151 41.5104C49.86 38.6784 52.3991 37.0182 55.6217 37.0182C60.1139 37.0182 62.9948 39.5573 62.9948 43.2682C62.9948 46.5885 60.944 48.1999 56.6471 51.1784C53.1803 53.6198 50.5436 56.2077 50.5436 60.9928C50.5436 61.1881 50.5436 61.4323 50.5436 61.6276C50.5436 64.1666 51.9108 65.485 54.4499 65.485ZM54.3034 80.0358C57.1354 80.0358 59.5768 77.7897 59.5768 74.9577C59.5768 72.1256 57.1842 69.8795 54.3034 69.8795C51.4713 69.8795 49.0788 72.1745 49.0788 74.9577C49.0788 77.7409 51.5202 80.0358 54.3034 80.0358Z" fill="#000000" fill-opacity="0.85"/>
 </g>
</svg>
