<?xml version="1.0" encoding="UTF-8"?>
<!--Generator: Apple Native CoreSVG 232.5-->
<!DOCTYPE svg
PUBLIC "-//W3C//DTD SVG 1.1//EN"
       "http://www.w3.org/Graphics/SVG/1.1/DTD/svg11.dtd">
<svg version="1.1" xmlns="http://www.w3.org/2000/svg" xmlns:xlink="http://www.w3.org/1999/xlink" width="110.889" height="89.9902">
 <g>
  <rect height="89.9902" opacity="0" width="110.889" x="0" y="0"/>
  <path d="M37.9395 3.61328L40.918 6.05469C43.3594 8.1543 45.3613 8.93555 48.6816 8.93555L95.5566 8.93555C105.713 8.93555 110.889 14.0137 110.889 24.0723L110.889 74.2188C110.889 84.2773 105.762 89.3555 97.0215 89.3555L15.332 89.3555C5.12695 89.3555 0 84.3262 0 74.2188L0 14.6973C0 4.88281 4.93164 0 13.4766 0L27.3926 0C32.2266 0 34.7168 0.878906 37.9395 3.61328ZM49.3652 67.627C49.3652 70.3125 51.7578 72.5098 54.4434 72.5098C57.1777 72.5098 59.5215 70.3613 59.5215 67.627C59.5215 64.8926 57.2266 62.7441 54.4434 62.7441C51.709 62.7441 49.3652 64.9414 49.3652 67.627ZM41.4062 33.0078C41.1621 33.7402 40.9668 34.5215 40.9668 35.3516C40.9668 37.4512 42.6758 38.5742 44.2383 38.5742C45.8008 38.5742 46.8262 37.793 47.7051 36.7188L48.5352 35.5957C50.1953 32.8125 52.6367 31.2988 55.7129 31.2988C59.9609 31.2988 62.7441 33.6914 62.7441 37.2559C62.7441 40.4297 60.791 41.9434 56.6406 44.8242C53.3203 47.168 50.7812 49.6094 50.7812 54.248C50.7812 54.4434 50.7812 54.6387 50.7812 54.834C50.7812 57.3242 52.1484 58.5449 54.541 58.5449C56.9336 58.5449 58.3496 57.0801 58.3496 55.1758C58.3496 55.0293 58.3496 54.834 58.3496 54.6387C58.3496 52.002 59.8633 50.3418 63.1348 48.2422C67.6758 45.2637 70.9473 42.4805 70.9473 36.9141C70.9473 29.1016 64.0137 24.9512 56.0059 24.9512C47.9492 24.9512 42.6758 28.7109 41.4062 33.0078Z" fill="#000000" fill-opacity="0.85"/>
 </g>
</svg>
