<?xml version="1.0" encoding="UTF-8"?>
<!--Generator: Apple Native CoreSVG 232.5-->
<!DOCTYPE svg
PUBLIC "-//W3C//DTD SVG 1.1//EN"
       "http://www.w3.org/Graphics/SVG/1.1/DTD/svg11.dtd">
<svg version="1.1" xmlns="http://www.w3.org/2000/svg" xmlns:xlink="http://www.w3.org/1999/xlink" width="99.6094" height="99.6582">
 <g>
  <rect height="99.6582" opacity="0" width="99.6094" x="0" y="0"/>
  <path d="M99.6094 49.8047C99.6094 77.002 77.0508 99.6094 49.8047 99.6094C22.6074 99.6094 0 77.002 0 49.8047C0 22.5586 22.5586 0 49.7559 0C77.002 0 99.6094 22.5586 99.6094 49.8047ZM43.2129 70.0195C43.2129 72.9004 45.752 75.2441 48.6816 75.2441C51.6113 75.2441 54.1504 72.9492 54.1504 70.0195C54.1504 67.0898 51.6602 64.7461 48.6816 64.7461C45.7031 64.7461 43.2129 67.1387 43.2129 70.0195ZM34.6191 32.7637C34.375 33.5449 34.1797 34.375 34.1797 35.2539C34.1797 37.5 35.9863 38.7207 37.6465 38.7207C39.3555 38.7207 40.4785 37.8906 41.4062 36.7188L42.2852 35.498C44.0918 32.5684 46.6797 30.9082 50.0488 30.9082C54.5898 30.9082 57.5684 33.4961 57.5684 37.3047C57.5684 40.7227 55.4688 42.3828 51.0742 45.459C47.4609 47.998 44.7266 50.6348 44.7266 55.6152C44.7266 55.8105 44.7266 56.0547 44.7266 56.25C44.7266 58.8867 46.1914 60.2539 48.7793 60.2539C51.3184 60.2539 52.8809 58.6426 52.8809 56.6406C52.8809 56.4453 52.8809 56.2012 52.8809 56.0547C52.8809 53.2227 54.4922 51.416 58.0078 49.1211C62.8906 45.8984 66.4062 42.9688 66.4062 36.9141C66.4062 28.5156 58.9355 24.0723 50.3418 24.0723C41.6504 24.0723 35.9863 28.125 34.6191 32.7637Z" fill="#000000" fill-opacity="0.85"/>
 </g>
</svg>
