<?xml version="1.0" encoding="UTF-8"?>
<!--Generator: Apple Native CoreSVG 232.5-->
<!DOCTYPE svg
PUBLIC "-//W3C//DTD SVG 1.1//EN"
       "http://www.w3.org/Graphics/SVG/1.1/DTD/svg11.dtd">
<svg version="1.1" xmlns="http://www.w3.org/2000/svg" xmlns:xlink="http://www.w3.org/1999/xlink" width="110.755" height="110.804">
 <g>
  <rect height="110.804" opacity="0" width="110.755" x="0" y="0"/>
  <path d="M66.2174 5.47524L105.28 44.5377C112.506 51.7643 112.555 58.942 105.426 66.0709L66.1198 105.426C58.942 112.555 51.8131 112.506 44.5866 105.28L5.47524 66.1686C-1.75132 58.942-1.84898 51.8131 5.32876 44.6354L44.6842 5.32876C51.862-1.84898 58.9909-1.75132 66.2174 5.47524ZM48.8346 75.5924C48.8346 78.4733 51.3737 80.817 54.2545 80.817C57.1842 80.817 59.7233 78.5221 59.7233 75.5924C59.7233 72.6627 57.2331 70.319 54.2545 70.319C51.3249 70.319 48.8346 72.7116 48.8346 75.5924ZM40.2409 38.3366C39.9479 39.1178 39.7526 39.9479 39.7526 40.8268C39.7526 43.0729 41.5592 44.2936 43.2682 44.2936C44.9772 44.2936 46.1002 43.4635 47.028 42.2916L47.9069 41.0709C49.7135 38.1413 52.3014 36.4811 55.6217 36.4811C60.2116 36.4811 63.1901 39.069 63.1901 42.8776C63.1901 46.2956 61.0905 47.9557 56.6471 51.0319C53.0827 53.5709 50.3483 56.2077 50.3483 61.1881C50.3483 61.3834 50.3483 61.6276 50.3483 61.8229C50.3483 64.4596 51.7643 65.8268 54.401 65.8268C56.9401 65.8268 58.4538 64.2155 58.4538 62.2135C58.4538 62.0182 58.4538 61.7741 58.4538 61.6276C58.4538 58.7956 60.1139 56.9889 63.6295 54.694C68.5124 51.4713 72.028 48.5416 72.028 42.487C72.028 34.0885 64.5573 29.6452 55.9635 29.6452C47.2721 29.6452 41.6081 33.6979 40.2409 38.3366Z" fill="#000000" fill-opacity="0.85"/>
 </g>
</svg>
