<?xml version="1.0" encoding="UTF-8"?>
<!--Generator: Apple Native CoreSVG 232.5-->
<!DOCTYPE svg
PUBLIC "-//W3C//DTD SVG 1.1//EN"
       "http://www.w3.org/Graphics/SVG/1.1/DTD/svg11.dtd">
<svg version="1.1" xmlns="http://www.w3.org/2000/svg" xmlns:xlink="http://www.w3.org/1999/xlink" width="99.6094" height="99.6582">
 <g>
  <rect height="99.6582" opacity="0" width="99.6094" x="0" y="0"/>
  <path d="M49.8047 99.6094C77.0508 99.6094 99.6094 77.002 99.6094 49.8047C99.6094 22.5586 77.002 0 49.7559 0C22.5586 0 0 22.5586 0 49.8047C0 77.002 22.6074 99.6094 49.8047 99.6094ZM49.8047 91.3086C26.7578 91.3086 8.34961 72.8516 8.34961 49.8047C8.34961 26.7578 26.709 8.30078 49.7559 8.30078C72.8027 8.30078 91.3086 26.7578 91.3086 49.8047C91.3086 72.8516 72.8516 91.3086 49.8047 91.3086Z" fill="#000000" fill-opacity="0.85"/>
  <path d="M48.7793 59.9121C51.2207 59.9121 52.7344 58.3496 52.7344 56.4453C52.7344 56.25 52.7344 56.0059 52.7344 55.8594C52.7344 53.125 54.2969 51.3672 57.7148 49.1211C62.4512 45.9961 65.8203 43.1641 65.8203 37.3047C65.8203 29.1992 58.5938 24.8047 50.293 24.8047C41.8945 24.8047 36.377 28.8086 35.0586 33.3008C34.8145 34.082 34.668 34.8633 34.668 35.6934C34.668 37.8906 36.377 39.0625 37.9883 39.0625C39.6484 39.0625 40.7227 38.2812 41.6016 37.1094L42.4805 35.9375C44.1895 33.1055 46.7285 31.4453 50 31.4453C54.4434 31.4453 57.3242 33.9844 57.3242 37.6953C57.3242 41.0156 55.2734 42.627 51.0254 45.6055C47.5098 48.0469 44.873 50.6348 44.873 55.4199C44.873 55.6152 44.873 55.8594 44.873 56.0547C44.873 58.5938 46.2891 59.9121 48.7793 59.9121ZM48.6816 74.4629C51.5137 74.4629 53.9551 72.2168 53.9551 69.3848C53.9551 66.5527 51.5625 64.3066 48.6816 64.3066C45.8008 64.3066 43.4082 66.6016 43.4082 69.3848C43.4082 72.168 45.8496 74.4629 48.6816 74.4629Z" fill="#000000" fill-opacity="0.85"/>
 </g>
</svg>
