<?xml version="1.0" encoding="UTF-8"?>
<!--Generator: Apple Native CoreSVG 232.5-->
<!DOCTYPE svg
PUBLIC "-//W3C//DTD SVG 1.1//EN"
       "http://www.w3.org/Graphics/SVG/1.1/DTD/svg11.dtd">
<svg version="1.1" xmlns="http://www.w3.org/2000/svg" xmlns:xlink="http://www.w3.org/1999/xlink" width="107.471" height="67.7246">
 <g>
  <rect height="67.7246" opacity="0" width="107.471" x="0" y="0"/>
  <path d="M48.8281 44.2383C48.8281 31.25 39.209 20.8984 26.8066 20.8984C20.9961 20.8984 15.4785 23.1934 11.4258 27.6855L10.1074 27.6855C12.9395 18.457 21.5332 10.7422 32.2266 7.56836C33.7402 7.08008 34.8633 6.64062 35.5469 6.05469C36.3281 5.41992 36.7676 4.63867 36.7676 3.51562C36.7676 1.46484 35.2051 0.0488281 32.9102 0.0488281C31.3965 0.0488281 30.2246 0.341797 28.125 1.02539C21.3867 3.22266 15.332 7.08008 10.6445 12.0117C4.05273 18.8477 0 27.9785 0 38.8184C0 57.1289 11.6211 67.7246 25.2441 67.7246C38.6719 67.7246 48.8281 57.4707 48.8281 44.2383ZM107.471 44.2383C107.471 31.25 97.8027 20.8984 85.4492 20.8984C79.6387 20.8984 74.0723 23.1934 70.0684 27.6855L68.75 27.6855C71.582 18.457 80.1758 10.7422 90.8203 7.56836C92.334 7.08008 93.5059 6.64062 94.1895 6.05469C94.9707 5.41992 95.3613 4.63867 95.3613 3.51562C95.3613 1.46484 93.8477 0.0488281 91.5527 0.0488281C89.9902 0.0488281 88.8672 0.341797 86.7188 1.02539C80.0293 3.22266 73.9258 7.08008 69.2383 12.0117C62.6953 18.8477 58.6426 27.9785 58.6426 38.8184C58.6426 57.1289 70.2637 67.7246 83.8867 67.7246C97.3145 67.7246 107.471 57.4707 107.471 44.2383Z" fill="#000000" fill-opacity="0.85"/>
 </g>
</svg>
