<?xml version="1.0" encoding="UTF-8"?>
<!--Generator: Apple Native CoreSVG 232.5-->
<!DOCTYPE svg
PUBLIC "-//W3C//DTD SVG 1.1//EN"
       "http://www.w3.org/Graphics/SVG/1.1/DTD/svg11.dtd">
<svg version="1.1" xmlns="http://www.w3.org/2000/svg" xmlns:xlink="http://www.w3.org/1999/xlink" width="107.617" height="107.275">
 <g>
  <rect height="107.275" opacity="0" width="107.617" x="0" y="0"/>
  <path d="M30.0293 107.275C32.4219 107.275 34.082 106.006 37.0605 103.369L53.9062 88.3789L85.2539 88.3789C99.8047 88.3789 107.617 80.3223 107.617 66.0156L107.617 28.6133C107.617 14.3066 99.8047 6.25 85.2539 6.25L22.3633 6.25C7.8125 6.25 0 14.2578 0 28.6133L0 66.0156C0 80.3711 7.8125 88.3789 22.3633 88.3789L24.707 88.3789L24.707 101.074C24.707 104.834 26.6113 107.275 30.0293 107.275ZM32.0312 98.3398L32.0312 84.1797C32.0312 81.543 31.0059 80.5176 28.3691 80.5176L22.3633 80.5176C12.5 80.5176 7.86133 75.4883 7.86133 65.9668L7.86133 28.6133C7.86133 19.0918 12.5 14.1113 22.3633 14.1113L85.2539 14.1113C95.0684 14.1113 99.7559 19.0918 99.7559 28.6133L99.7559 65.9668C99.7559 75.4883 95.0684 80.5176 85.2539 80.5176L53.6133 80.5176C50.8789 80.5176 49.5117 80.9082 47.6562 82.8125Z" fill="#000000" fill-opacity="0.85"/>
  <path d="M30.2246 42.0898C30.2246 47.6562 33.6914 51.9531 39.209 51.9531C41.2598 51.9531 43.3105 51.6113 44.5801 50L44.9707 50C43.1641 54.0527 39.4043 56.6406 36.2305 57.4707C34.4238 57.959 33.8867 58.7402 33.8867 59.9121C33.8867 61.1328 34.9121 62.1582 36.2793 62.1582C41.2109 62.1582 51.123 56.2988 51.123 43.8965C51.123 37.2559 46.8262 32.2266 40.4785 32.2266C34.6191 32.2266 30.2246 36.2793 30.2246 42.0898ZM56.5918 42.0898C56.5918 47.6562 60.0586 51.9531 65.5762 51.9531C67.627 51.9531 69.6777 51.6113 70.9473 50L71.3379 50C69.5312 54.0527 65.7715 56.6406 62.5977 57.4707C60.8398 57.959 60.2539 58.7402 60.2539 59.9121C60.2539 61.1328 61.2793 62.1582 62.6465 62.1582C67.5781 62.1582 77.4902 56.2988 77.4902 43.8965C77.4902 37.2559 73.1934 32.2266 66.8457 32.2266C60.9863 32.2266 56.5918 36.2793 56.5918 42.0898Z" fill="#000000" fill-opacity="0.85"/>
 </g>
</svg>
