<?xml version="1.0" encoding="UTF-8"?>
<!--Generator: Apple Native CoreSVG 232.5-->
<!DOCTYPE svg
PUBLIC "-//W3C//DTD SVG 1.1//EN"
       "http://www.w3.org/Graphics/SVG/1.1/DTD/svg11.dtd">
<svg version="1.1" xmlns="http://www.w3.org/2000/svg" xmlns:xlink="http://www.w3.org/1999/xlink" width="99.6094" height="99.6582">
 <g>
  <rect height="99.6582" opacity="0" width="99.6094" x="0" y="0"/>
  <path d="M99.6094 49.8047C99.6094 77.002 77.0508 99.6094 49.8047 99.6094C22.6074 99.6094 0 77.002 0 49.8047C0 22.5586 22.5586 0 49.7559 0C77.002 0 99.6094 22.5586 99.6094 49.8047ZM36.8164 26.3672C34.2773 26.3672 32.9102 28.2227 32.9102 30.957L32.9102 68.3594C32.9102 71.0449 34.3262 72.9004 36.8652 72.9004C39.502 72.9004 40.9668 71.1426 40.9668 68.3594L40.9668 55.8594L50.3418 55.8594L59.0332 70.2148C60.2539 72.168 61.2793 72.9004 63.0859 72.9004C65.2344 72.9004 66.748 71.4844 66.748 69.4336C66.748 68.3105 66.4551 67.5293 65.8203 66.5039L58.3008 54.6875C64.209 52.7344 68.0176 47.4609 68.0176 41.2109C68.0176 32.1289 61.5234 26.3672 51.3184 26.3672ZM60.0586 41.4062C60.0586 46.875 56.2012 49.9512 50.1465 49.9512L40.9668 49.9512L40.9668 32.5684L50.3418 32.5684C56.1035 32.5684 60.0586 35.791 60.0586 41.4062Z" fill="#000000" fill-opacity="0.85"/>
 </g>
</svg>
