<?xml version="1.0" encoding="UTF-8"?>
<!--Generator: Apple Native CoreSVG 232.5-->
<!DOCTYPE svg
PUBLIC "-//W3C//DTD SVG 1.1//EN"
       "http://www.w3.org/Graphics/SVG/1.1/DTD/svg11.dtd">
<svg version="1.1" xmlns="http://www.w3.org/2000/svg" xmlns:xlink="http://www.w3.org/1999/xlink" width="99.6094" height="99.6582">
 <g>
  <rect height="99.6582" opacity="0" width="99.6094" x="0" y="0"/>
  <path d="M49.8047 99.6094C77.0508 99.6094 99.6094 77.002 99.6094 49.8047C99.6094 22.5586 77.002 0 49.7559 0C22.5586 0 0 22.5586 0 49.8047C0 77.002 22.6074 99.6094 49.8047 99.6094ZM49.8047 91.3086C26.7578 91.3086 8.34961 72.8516 8.34961 49.8047C8.34961 26.7578 26.709 8.30078 49.7559 8.30078C72.8027 8.30078 91.3086 26.7578 91.3086 49.8047C91.3086 72.8516 72.8516 91.3086 49.8047 91.3086Z" fill="#000000" fill-opacity="0.85"/>
  <path d="M37.2559 72.168C39.7949 72.168 41.2109 70.5078 41.2109 67.8223L41.2109 55.6641L50.293 55.6641L58.7402 69.5801C59.9121 71.4844 60.9375 72.168 62.6465 72.168C64.7461 72.168 66.2109 70.8008 66.2109 68.8477C66.2109 67.7734 65.918 66.9922 65.2832 66.0156L57.959 54.541C63.7207 52.6367 67.4316 47.5098 67.4316 41.4551C67.4316 32.666 61.1328 27.0996 51.2207 27.0996L37.207 27.0996C34.7168 27.0996 33.3984 28.8574 33.3984 31.4941L33.3984 67.8223C33.3984 70.4102 34.7656 72.168 37.2559 72.168ZM41.2109 49.9512L41.2109 33.0566L50.293 33.0566C55.9082 33.0566 59.7168 36.1816 59.7168 41.6504C59.7168 46.9727 56.0059 49.9512 50.0977 49.9512Z" fill="#000000" fill-opacity="0.85"/>
 </g>
</svg>
