<?xml version="1.0" encoding="UTF-8"?>
<!--Generator: Apple Native CoreSVG 232.5-->
<!DOCTYPE svg
PUBLIC "-//W3C//DTD SVG 1.1//EN"
       "http://www.w3.org/Graphics/SVG/1.1/DTD/svg11.dtd">
<svg version="1.1" xmlns="http://www.w3.org/2000/svg" xmlns:xlink="http://www.w3.org/1999/xlink" width="112.305" height="145.728">
 <g>
  <rect height="145.728" opacity="0" width="112.305" x="0" y="0"/>
  <path d="M112.305 72.8394C112.305 97.2861 96.6418 118.09 74.8137 125.74C75.4993 122.929 75.0103 120.1 73.5937 117.848C91.67 110.918 104.443 93.4246 104.443 72.8394C104.443 46.0815 82.8613 24.4995 56.1523 24.4995C29.3945 24.4995 7.86133 46.0815 7.86133 72.8394C7.86133 93.3974 20.5721 110.871 38.6188 117.822C37.1898 120.075 36.6862 122.903 37.3527 125.691C15.5753 117.998 0 97.2028 0 72.8394C0 41.8335 25.1465 16.6382 56.1523 16.6382C87.1094 16.6382 112.305 41.8335 112.305 72.8394Z" fill="#000000" fill-opacity="0.85"/>
  <path d="M47.3145 119.861C43.7988 119.861 42.7734 123.328 44.6777 125.916L53.5156 137.683C54.8828 139.49 57.373 139.539 58.7891 137.683L67.4805 125.964C69.5312 123.279 68.3105 119.861 64.8926 119.861Z" fill="#000000" fill-opacity="0.85"/>
  <path d="M56.1523 33.8257C34.6191 33.8257 17.1875 51.3062 17.1875 72.8394C17.1875 94.4214 34.6191 111.804 56.1523 111.804C77.6855 111.804 95.1172 94.4214 95.1172 72.8394C95.1172 51.3062 77.6855 33.8257 56.1523 33.8257ZM45.752 92.1265C43.3105 92.1265 41.9434 90.4663 41.9434 87.9761L41.9434 57.1655C41.9434 54.6753 43.2617 52.8687 45.7031 52.8687L57.5684 52.8687C66.2598 52.8687 71.875 57.9468 71.875 65.6616C71.875 70.7397 68.7988 75.1831 64.1602 76.9897L69.9707 86.0718C70.5566 86.9507 70.8984 87.8296 70.8984 88.8062C70.8984 90.7104 69.3359 92.1265 67.1875 92.1265C65.5273 92.1265 64.4043 91.4429 63.3301 89.7339L56.4941 78.2593L49.7559 78.2593L49.7559 87.9761C49.7559 90.5151 48.2422 92.1265 45.752 92.1265ZM49.7559 72.2046L56.6406 72.2046C61.4258 72.2046 64.1602 70.0562 64.1602 65.8081C64.1602 61.5112 61.2793 59.0698 56.7871 59.0698L49.7559 59.0698Z" fill="#000000" fill-opacity="0.85"/>
 </g>
</svg>
