<?xml version="1.0" encoding="UTF-8"?>
<!--Generator: Apple Native CoreSVG 232.5-->
<!DOCTYPE svg
PUBLIC "-//W3C//DTD SVG 1.1//EN"
       "http://www.w3.org/Graphics/SVG/1.1/DTD/svg11.dtd">
<svg version="1.1" xmlns="http://www.w3.org/2000/svg" xmlns:xlink="http://www.w3.org/1999/xlink" width="113.232" height="126.221">
 <g>
  <rect height="126.221" opacity="0" width="113.232" x="0" y="0"/>
  <path d="M56.6406 95.3613C63.4503 95.3613 69.7612 94.7224 75.4883 93.5154L75.4883 95.9473C75.4883 105.322 68.457 110.889 56.6406 110.889C44.7754 110.889 37.7441 105.322 37.7441 95.9473L37.7441 93.5094C43.4837 94.7205 49.8111 95.3613 56.6406 95.3613Z" fill="#000000" fill-opacity="0.85"/>
  <path d="M106.592 57.2266C106.592 74.6582 87.8418 88.7207 56.6406 88.7207C25.3906 88.7207 6.68945 74.6582 6.68945 57.2266C6.68945 39.8438 25.3906 25.7812 56.543 25.7812C87.8418 25.7812 106.592 39.8438 106.592 57.2266ZM48.6328 41.6504C46.7773 41.6504 45.6055 42.9688 45.6055 45.1172L45.6055 68.8965C45.6055 70.9473 46.7773 72.2656 48.6328 72.2656C50.5371 72.2656 51.7578 70.9473 51.7578 68.8965L51.7578 61.4258L56.8848 61.4258L62.4023 70.4102C63.2324 71.8262 64.0625 72.3633 65.332 72.3633C66.8945 72.3633 68.2129 71.2402 68.2129 69.6289C68.2129 68.7988 67.9688 68.1641 67.5293 67.4805L62.9883 60.4004C66.6504 58.9355 68.8965 55.5664 68.8965 51.6113C68.8965 45.5566 64.502 41.6504 57.8125 41.6504ZM62.793 51.709C62.793 54.834 60.7422 56.6406 57.0801 56.6406L51.7578 56.6406L51.7578 46.6309L57.1777 46.6309C60.6934 46.6309 62.793 48.584 62.793 51.709Z" fill="#000000" fill-opacity="0.85"/>
  <path d="M44.7266 5.95703L54.4434 19.043C55.7617 20.8496 58.252 20.8496 59.5703 19.043L69.3848 5.95703C71.3379 3.36914 70.3125 0 66.7969 0L47.2168 0C43.8965 0 42.6758 3.27148 44.7266 5.95703Z" fill="#000000" fill-opacity="0.85"/>
 </g>
</svg>
