<?xml version="1.0" encoding="UTF-8"?>
<!--Generator: Apple Native CoreSVG 232.5-->
<!DOCTYPE svg
PUBLIC "-//W3C//DTD SVG 1.1//EN"
       "http://www.w3.org/Graphics/SVG/1.1/DTD/svg11.dtd">
<svg version="1.1" xmlns="http://www.w3.org/2000/svg" xmlns:xlink="http://www.w3.org/1999/xlink" width="112.061" height="95.5566">
 <g>
  <rect height="95.5566" opacity="0" width="112.061" x="0" y="0"/>
  <path d="M56.0547 80.5176C62.8202 80.5176 69.1456 79.8765 74.9023 78.6321L74.9023 80.6152C74.9023 89.9902 67.8711 95.5566 56.0547 95.5566C44.1895 95.5566 37.1582 89.9902 37.1582 80.6152L37.1582 78.6264C42.9276 79.8747 49.2694 80.5176 56.0547 80.5176Z" fill="#000000" fill-opacity="0.85"/>
  <path d="M56.0547 74.8535C86.5234 74.8535 106.396 61.377 106.396 41.8945C106.396 22.4609 86.4746 8.98438 55.957 8.98438C25.5371 8.98438 5.71289 22.4609 5.71289 41.8945C5.71289 61.377 25.5371 74.8535 56.0547 74.8535ZM56.0547 66.4551C31.2012 66.4551 14.5508 56.4941 14.5508 41.8945C14.5508 27.2949 31.2012 17.3828 55.957 17.3828C80.8105 17.3828 97.5586 27.2949 97.5586 41.8945C97.5586 56.4941 80.8594 66.4551 56.0547 66.4551Z" fill="#000000" fill-opacity="0.85"/>
  <path d="M47.9004 56.4941C49.7559 56.4941 50.9277 55.2246 50.9277 53.2227L50.9277 45.9473L55.9082 45.9473L61.2793 54.6875C62.1094 56.0547 62.8906 56.543 64.1113 56.543C65.625 56.543 66.8945 55.4688 66.8945 53.9062C66.8945 53.125 66.6504 52.4902 66.2109 51.8555L61.8164 44.9707C65.3809 43.5547 67.5293 40.2832 67.5293 36.4258C67.5293 30.5664 63.2812 26.8066 56.8359 26.8066L47.9004 26.8066C46.1426 26.8066 45.0195 28.0762 45.0195 30.127L45.0195 53.2227C45.0195 55.2246 46.1426 56.4941 47.9004 56.4941ZM50.9277 41.3086L50.9277 31.5918L56.2012 31.5918C59.6191 31.5918 61.6699 33.4961 61.6699 36.5234C61.6699 39.5508 59.668 41.3086 56.1035 41.3086Z" fill="#000000" fill-opacity="0.85"/>
 </g>
</svg>
