<?xml version="1.0" encoding="UTF-8"?>
<!--Generator: Apple Native CoreSVG 232.5-->
<!DOCTYPE svg
PUBLIC "-//W3C//DTD SVG 1.1//EN"
       "http://www.w3.org/Graphics/SVG/1.1/DTD/svg11.dtd">
<svg version="1.1" xmlns="http://www.w3.org/2000/svg" xmlns:xlink="http://www.w3.org/1999/xlink" width="89.8926" height="89.9902">
 <g>
  <rect height="89.9902" opacity="0" width="89.8926" x="0" y="0"/>
  <path d="M89.8926 15.2344L89.8926 74.8535C89.8926 84.9121 84.8145 89.9902 74.5605 89.9902L15.332 89.9902C5.12695 89.9902 0 84.9609 0 74.8535L0 15.2344C0 5.12695 5.12695 0.0976562 15.332 0.0976562L74.5605 0.0976562C84.8145 0.0976562 89.8926 5.17578 89.8926 15.2344ZM31.9824 21.5332C29.4434 21.5332 28.0762 23.3887 28.0762 26.123L28.0762 63.5254C28.0762 66.2109 29.4922 68.0664 32.0312 68.0664C34.7168 68.0664 36.1328 66.3086 36.1328 63.5254L36.1328 51.0254L45.5078 51.0254L54.1992 65.3809C55.4199 67.334 56.4453 68.0664 58.252 68.0664C60.4004 68.0664 61.9141 66.6504 61.9141 64.5996C61.9141 63.4766 61.6211 62.6953 61.0352 61.6699L53.4668 49.8535C59.375 47.9004 63.1836 42.627 63.1836 36.377C63.1836 27.2949 56.7383 21.5332 46.5332 21.5332ZM55.2246 36.5723C55.2246 42.041 51.3672 45.1172 45.3125 45.1172L36.1328 45.1172L36.1328 27.7344L45.5078 27.7344C51.2695 27.7344 55.2246 30.957 55.2246 36.5723Z" fill="#000000" fill-opacity="0.85"/>
 </g>
</svg>
