<?xml version="1.0" encoding="UTF-8"?>
<!--Generator: Apple Native CoreSVG 232.5-->
<!DOCTYPE svg
PUBLIC "-//W3C//DTD SVG 1.1//EN"
       "http://www.w3.org/Graphics/SVG/1.1/DTD/svg11.dtd">
<svg version="1.1" xmlns="http://www.w3.org/2000/svg" xmlns:xlink="http://www.w3.org/1999/xlink" width="89.8926" height="89.9902">
 <g>
  <rect height="89.9902" opacity="0" width="89.8926" x="0" y="0"/>
  <path d="M15.332 89.9902L74.5605 89.9902C84.8145 89.9902 89.8926 84.9121 89.8926 74.8535L89.8926 15.2344C89.8926 5.17578 84.8145 0.0976562 74.5605 0.0976562L15.332 0.0976562C5.12695 0.0976562 0 5.12695 0 15.2344L0 74.8535C0 84.9609 5.12695 89.9902 15.332 89.9902ZM15.4297 82.1289C10.5469 82.1289 7.86133 79.541 7.86133 74.4629L7.86133 15.625C7.86133 10.5469 10.5469 7.95898 15.4297 7.95898L74.4629 7.95898C79.2969 7.95898 82.0312 10.5469 82.0312 15.625L82.0312 74.4629C82.0312 79.541 79.2969 82.1289 74.4629 82.1289Z" fill="#000000" fill-opacity="0.85"/>
  <path d="M32.4707 67.334C35.0586 67.334 36.4258 65.6738 36.4258 62.9883L36.4258 50.8301L45.5078 50.8301L53.9551 64.7461C55.127 66.6504 56.1523 67.334 57.8613 67.334C59.9609 67.334 61.4258 65.9668 61.4258 64.0137C61.4258 62.9395 61.1328 62.1582 60.5469 61.1816L53.2227 49.707C58.9355 47.8027 62.6465 42.6758 62.6465 36.6211C62.6465 27.832 56.3965 22.2656 46.4844 22.2656L32.4219 22.2656C29.9316 22.2656 28.6133 24.0234 28.6133 26.6602L28.6133 62.9883C28.6133 65.5762 29.9805 67.334 32.4707 67.334ZM36.4258 45.1172L36.4258 28.2227L45.5078 28.2227C51.123 28.2227 54.9316 31.3477 54.9316 36.8164C54.9316 42.1387 51.2207 45.1172 45.3125 45.1172Z" fill="#000000" fill-opacity="0.85"/>
 </g>
</svg>
