<?xml version="1.0" encoding="UTF-8"?>
<!--Generator: Apple Native CoreSVG 232.5-->
<!DOCTYPE svg
PUBLIC "-//W3C//DTD SVG 1.1//EN"
       "http://www.w3.org/Graphics/SVG/1.1/DTD/svg11.dtd">
<svg version="1.1" xmlns="http://www.w3.org/2000/svg" xmlns:xlink="http://www.w3.org/1999/xlink" width="112.646" height="85.2051">
 <g>
  <rect height="85.2051" opacity="0" width="112.646" x="0" y="0"/>
  <path d="M40.9668 85.1562L71.6797 85.1562C100 85.1562 112.646 72.1191 112.646 45.459L112.646 14.7949C112.646 4.98047 107.568 0 97.6562 0L14.9902 0C5.07812 0 0 4.98047 0 14.7949L0 45.459C0 72.1191 12.6465 85.1562 40.9668 85.1562ZM40.9668 77.2949C17.9199 77.2949 7.86133 67.2852 7.86133 45.9473L7.86133 15.2344C7.86133 10.3516 10.4004 7.86133 15.1855 7.86133L97.4609 7.86133C102.148 7.86133 104.785 10.3516 104.785 15.2344L104.785 45.9473C104.785 67.2852 94.7266 77.2949 71.6309 77.2949Z" fill="#000000" fill-opacity="0.85"/>
  <path d="M37.3535 63.0371C39.5508 63.0371 40.918 61.5723 40.918 59.2773L40.918 47.2656L45.5078 47.2656L50.6348 60.0586C51.2695 61.9141 52.3926 63.0371 54.3457 63.0371C55.957 63.0371 57.7148 62.0605 57.7148 59.5703C57.7148 58.9844 57.4219 58.0078 56.9336 56.8848L52.2949 45.8008C56.25 43.75 57.9102 39.5508 57.9102 35.1074C57.9102 27.1484 53.1738 22.9004 45.6055 22.9004L37.3047 22.9004C35.0098 22.9004 33.7402 24.3164 33.7402 26.6113L33.7402 59.2773C33.7402 61.5234 35.0586 63.0371 37.3535 63.0371ZM40.918 42.041L40.918 28.5645L44.9219 28.5645C48.6816 28.5645 50.6836 31.3477 50.6836 35.2539C50.6836 39.1602 48.9258 42.041 44.9219 42.041ZM74.707 62.8906C76.6602 62.8906 78.2715 61.2793 78.2715 59.2773L78.2715 26.2207C78.2715 23.6816 76.709 22.2168 74.1699 22.2168C72.1191 22.2168 70.459 23.3398 69.2871 24.2188L63.9648 28.418C63.0859 29.0527 62.4023 29.9805 62.4023 31.2988C62.4023 32.8125 63.4277 33.8379 64.8926 33.8379C65.6738 33.8379 66.1621 33.6426 66.6504 33.252L71.1426 29.6387L71.1426 59.2773C71.1426 61.2793 72.7539 62.8906 74.707 62.8906Z" fill="#000000" fill-opacity="0.85"/>
 </g>
</svg>
