<?xml version="1.0" encoding="UTF-8"?>
<!--Generator: Apple Native CoreSVG 232.5-->
<!DOCTYPE svg
PUBLIC "-//W3C//DTD SVG 1.1//EN"
       "http://www.w3.org/Graphics/SVG/1.1/DTD/svg11.dtd">
<svg version="1.1" xmlns="http://www.w3.org/2000/svg" xmlns:xlink="http://www.w3.org/1999/xlink" width="86.8652" height="104.932">
 <g>
  <rect height="104.932" opacity="0" width="86.8652" x="0" y="0"/>
  <path d="M57.7637 104.883C75.4395 104.883 86.8652 93.5059 86.8652 75.8301L86.8652 51.7578C86.8652 45.0684 84.7656 39.6973 80.6152 35.8887L49.8047 7.51953C43.75 2.00195 37.3535 0 29.7363 0L14.6484 0C5.85938 0 0 5.95703 0 14.7949L0 90.2344C0 99.4141 5.56641 104.883 14.7949 104.883ZM57.6172 97.0215L14.9902 97.0215C9.86328 97.0215 7.86133 95.2637 7.86133 90.0879L7.86133 14.8926C7.86133 10.6934 10.5957 7.86133 14.8438 7.86133L29.541 7.86133C35.5957 7.86133 40.0391 9.32617 44.3848 13.2812L75.1465 41.5527C77.832 43.9941 79.0039 46.9727 79.0039 51.8555L79.0039 75.6836C79.0039 89.3555 71.2402 97.0215 57.6172 97.0215Z" fill="#000000" fill-opacity="0.85"/>
  <path d="M22.2168 81.25C24.2188 81.25 25.4395 79.8828 25.4395 77.7832L25.4395 66.748L29.7363 66.748L34.4238 78.5156C35.0586 80.2246 36.0352 81.25 37.8418 81.25C39.3555 81.25 40.918 80.3223 40.918 78.0273C40.918 77.5391 40.6738 76.6113 40.2344 75.5859L35.9375 65.3809C39.5996 63.4766 41.1621 59.5703 41.1621 55.5176C41.1621 48.1934 36.7676 44.2871 29.7852 44.2871L22.1191 44.2871C20.0195 44.2871 18.8477 45.5566 18.8477 47.7051L18.8477 77.7832C18.8477 79.834 20.0195 81.25 22.2168 81.25ZM25.4395 61.9141L25.4395 49.4629L29.1504 49.4629C32.6172 49.4629 34.4727 52.0508 34.4727 55.6641C34.4727 59.2285 32.8613 61.9141 29.1504 61.9141ZM49.0723 80.6152L64.6973 80.6152C66.2598 80.6152 67.2363 79.541 67.2363 77.9785C67.2363 76.2695 66.2109 75.3418 64.6973 75.3418L54.0039 75.3418L54.0039 74.9512L60.5469 66.6504C65.0879 61.0352 66.5527 57.7637 66.5527 53.7598C66.5527 47.7051 62.4512 43.2617 56.2012 43.2617C50.4395 43.2617 46.0938 48.0469 46.0938 52.7344C46.0938 54.3945 47.0703 55.5664 48.7793 55.5664C50.293 55.5664 51.1719 54.8828 51.6602 53.418C52.4902 50.3906 53.6133 48.4863 56.2012 48.4863C58.8867 48.4863 60.4004 50.9277 60.4004 54.0527C60.4004 57.666 57.9102 61.3281 55.5176 64.3555L47.7051 74.4141C46.875 75.4395 46.0449 76.5625 46.0449 77.9785C46.0449 79.4922 47.0215 80.6152 49.0723 80.6152Z" fill="#000000" fill-opacity="0.85"/>
 </g>
</svg>
