<?xml version="1.0" encoding="UTF-8"?>
<!--Generator: Apple Native CoreSVG 232.5-->
<!DOCTYPE svg
PUBLIC "-//W3C//DTD SVG 1.1//EN"
       "http://www.w3.org/Graphics/SVG/1.1/DTD/svg11.dtd">
<svg version="1.1" xmlns="http://www.w3.org/2000/svg" xmlns:xlink="http://www.w3.org/1999/xlink" width="112.646" height="85.2051">
 <g>
  <rect height="85.2051" opacity="0" width="112.646" x="0" y="0"/>
  <path d="M40.9668 0C12.6465 0 0 13.0371 0 39.6973L0 70.3125C0 80.1758 5.07812 85.1562 14.9902 85.1562L97.6562 85.1562C107.568 85.1562 112.646 80.127 112.646 70.3125L112.646 39.6973C112.646 13.0371 100 0 71.6797 0ZM40.9668 7.86133L71.6309 7.86133C94.7266 7.86133 104.785 17.8711 104.785 39.1602L104.785 69.9219C104.785 74.8047 102.148 77.2949 97.4609 77.2949L15.1855 77.2949C10.4004 77.2949 7.86133 74.8047 7.86133 69.9219L7.86133 39.1602C7.86133 17.8711 17.9199 7.86133 40.9668 7.86133Z" fill="#000000" fill-opacity="0.85"/>
  <path d="M34.7168 63.0371C36.9141 63.0371 38.2812 61.5723 38.2812 59.2773L38.2812 47.2656L42.8711 47.2656L47.998 60.0586C48.6816 61.9141 49.7559 63.0371 51.709 63.0371C53.3203 63.0371 55.0781 62.0605 55.0781 59.5703C55.0781 58.9844 54.7363 58.0078 54.2969 56.8848L49.6582 45.8008C53.5645 43.75 55.2734 39.5508 55.2734 35.1074C55.2734 27.1484 50.5371 22.9004 42.9199 22.9004L34.668 22.9004C32.373 22.9004 31.1035 24.3164 31.1035 26.6113L31.1035 59.2773C31.1035 61.5234 32.373 63.0371 34.7168 63.0371ZM38.2812 42.041L38.2812 28.5645L42.2852 28.5645C46.0449 28.5645 48.0469 31.3477 48.0469 35.2539C48.0469 39.1602 46.2891 42.041 42.2852 42.041ZM63.8672 62.3535L80.8105 62.3535C82.5684 62.3535 83.5938 61.1816 83.5938 59.4727C83.5938 57.666 82.5195 56.5918 80.8105 56.5918L69.2383 56.5918L69.2383 56.2012L76.3672 47.168C81.25 41.1133 82.8613 37.5488 82.8613 33.252C82.8613 26.6113 78.3691 21.8262 71.6309 21.8262C65.3809 21.8262 60.6445 27.002 60.6445 32.1289C60.6445 33.8867 61.7188 35.1562 63.5742 35.1562C65.1855 35.1562 66.1621 34.4238 66.6992 32.8613C67.5781 29.5898 68.7988 27.4902 71.582 27.4902C74.5605 27.4902 76.1719 30.127 76.1719 33.5449C76.1719 37.4512 73.4863 41.4062 70.8984 44.7266L62.4023 55.6152C61.4746 56.7383 60.5957 57.959 60.5957 59.4727C60.5957 61.1328 61.6699 62.3535 63.8672 62.3535Z" fill="#000000" fill-opacity="0.85"/>
 </g>
</svg>
