<?xml version="1.0" encoding="UTF-8"?>
<!--Generator: Apple Native CoreSVG 232.5-->
<!DOCTYPE svg
PUBLIC "-//W3C//DTD SVG 1.1//EN"
       "http://www.w3.org/Graphics/SVG/1.1/DTD/svg11.dtd">
<svg version="1.1" xmlns="http://www.w3.org/2000/svg" xmlns:xlink="http://www.w3.org/1999/xlink" width="99.6094" height="99.6582">
 <g>
  <rect height="99.6582" opacity="0" width="99.6094" x="0" y="0"/>
  <path d="M49.8047 99.6094C77.0508 99.6094 99.6094 77.002 99.6094 49.8047C99.6094 22.5586 77.002 0 49.7559 0C22.5586 0 0 22.5586 0 49.8047C0 77.002 22.6074 99.6094 49.8047 99.6094ZM49.8047 91.3086C26.7578 91.3086 8.34961 72.8516 8.34961 49.8047C8.34961 26.7578 26.709 8.30078 49.7559 8.30078C72.8027 8.30078 91.3086 26.7578 91.3086 49.8047C91.3086 72.8516 72.8516 91.3086 49.8047 91.3086Z" fill="#000000" fill-opacity="0.85"/>
  <path d="M28.125 70.2148C30.3223 70.2148 31.6895 68.7988 31.6895 66.5039L31.6895 54.4922L36.2793 54.4922L41.4062 67.2852C42.0898 69.1406 43.1641 70.2148 45.1172 70.2148C46.7285 70.2148 48.4863 69.2871 48.4863 66.748C48.4863 66.2109 48.1445 65.2344 47.7051 64.1113L43.0664 53.0273C47.0215 50.9766 48.6816 46.7285 48.6816 42.334C48.6816 34.375 43.9453 30.127 36.3281 30.127L28.0762 30.127C25.7812 30.127 24.5117 31.543 24.5117 33.8379L24.5117 66.5039C24.5117 68.75 25.7812 70.2148 28.125 70.2148ZM31.6895 49.2676L31.6895 35.791L35.6934 35.791C39.4531 35.791 41.4551 38.5742 41.4551 42.4805C41.4551 46.3379 39.6973 49.2676 35.6934 49.2676ZM57.2754 69.5312L74.2188 69.5312C75.9766 69.5312 77.002 68.4082 77.002 66.6992C77.002 64.8438 75.9277 63.8184 74.2188 63.8184L62.6465 63.8184L62.6465 63.4277L69.7754 54.3945C74.6582 48.3398 76.2695 44.7266 76.2695 40.4297C76.2695 33.8379 71.7773 29.0527 65.0391 29.0527C58.7891 29.0527 54.0527 34.2285 54.0527 39.3066C54.0527 41.1133 55.127 42.3828 56.9824 42.3828C58.5938 42.3828 59.5703 41.6504 60.1074 40.0391C60.9863 36.7676 62.207 34.7168 64.9902 34.7168C67.9688 34.7168 69.5801 37.3047 69.5801 40.7715C69.5801 44.6777 66.8945 48.6328 64.3066 51.9531L55.8105 62.793C54.9316 63.9648 54.0039 65.1855 54.0039 66.6992C54.0039 68.3594 55.0781 69.5312 57.2754 69.5312Z" fill="#000000" fill-opacity="0.85"/>
 </g>
</svg>
