<?xml version="1.0" encoding="UTF-8"?>
<!--Generator: Apple Native CoreSVG 232.5-->
<!DOCTYPE svg
PUBLIC "-//W3C//DTD SVG 1.1//EN"
       "http://www.w3.org/Graphics/SVG/1.1/DTD/svg11.dtd">
<svg version="1.1" xmlns="http://www.w3.org/2000/svg" xmlns:xlink="http://www.w3.org/1999/xlink" width="115.137" height="87.7441">
 <g>
  <rect height="87.7441" opacity="0" width="115.137" x="0" y="0"/>
  <path d="M38.4766 87.6465L76.6602 87.6465C104.98 87.6465 115.137 77.1484 115.137 51.0254L115.137 36.6699C115.137 10.5469 104.98 0 76.6602 0L38.4766 0C10.1562 0 0 10.5469 0 36.6699L0 51.0254C0 77.1484 10.1562 87.6465 38.4766 87.6465ZM38.4766 79.7852C15.4297 79.7852 7.86133 72.3145 7.86133 51.0254L7.86133 36.6699C7.86133 15.3809 15.4297 7.86133 38.4766 7.86133L76.6602 7.86133C99.707 7.86133 107.275 15.3809 107.275 36.6699L107.275 51.0254C107.275 72.3145 99.707 79.7852 76.6602 79.7852Z" fill="#000000" fill-opacity="0.85"/>
  <path d="M34.1797 64.2578C36.377 64.2578 37.6953 62.8418 37.6953 60.5469L37.6953 48.5352L42.334 48.5352L47.4609 61.3281C48.1445 63.1836 49.2188 64.2578 51.1719 64.2578C52.7832 64.2578 54.4922 63.3301 54.4922 60.791C54.4922 60.2539 54.1992 59.2773 53.7109 58.1543L49.1211 47.0703C53.0273 45.0195 54.7363 40.7715 54.7363 36.377C54.7363 28.418 50 24.1699 42.3828 24.1699L34.1309 24.1699C31.8359 24.1699 30.5176 25.5859 30.5176 27.8809L30.5176 60.5469C30.5176 62.793 31.8359 64.2578 34.1797 64.2578ZM37.6953 43.3105L37.6953 29.834L41.748 29.834C45.5078 29.834 47.5098 32.6172 47.5098 36.5234C47.5098 40.3809 45.752 43.3105 41.748 43.3105ZM78.0273 64.209C79.834 64.209 81.3477 63.0859 81.3477 60.7422L81.3477 55.8594L83.0566 55.8594C84.9609 55.8594 85.8398 54.6387 85.8398 52.9785C85.8398 51.416 85.0098 50.1953 83.0566 50.1953L81.3477 50.1953L81.3477 28.7598C81.3477 25.3906 79.1504 23.4863 75.9277 23.4863C72.5098 23.4863 70.8984 25.2441 69.5312 28.2715L60.791 47.2168C59.9609 49.1211 59.7168 50.3906 59.7168 51.9043C59.7168 54.248 61.3281 55.8594 63.7207 55.8594L74.6094 55.8594L74.6094 60.7422C74.6094 63.3301 76.4648 64.209 78.0273 64.209ZM74.7559 50.3418L65.7227 50.3418L65.7227 50L74.6094 29.6387L74.7559 29.6387Z" fill="#000000" fill-opacity="0.85"/>
 </g>
</svg>
