<?xml version="1.0" encoding="UTF-8"?>
<!--Generator: Apple Native CoreSVG 232.5-->
<!DOCTYPE svg
PUBLIC "-//W3C//DTD SVG 1.1//EN"
       "http://www.w3.org/Graphics/SVG/1.1/DTD/svg11.dtd">
<svg version="1.1" xmlns="http://www.w3.org/2000/svg" xmlns:xlink="http://www.w3.org/1999/xlink" width="115.137" height="133.252">
 <g>
  <rect height="133.252" opacity="0" width="115.137" x="0" y="0"/>
  <path d="M89.6973 55.6154C93.8965 55.5178 97.3145 52.1974 97.3145 48.047C97.3145 43.8478 93.8965 40.4299 89.6973 40.381C85.498 40.3322 82.0312 43.8478 82.0312 48.047C82.0312 52.1974 85.498 55.6642 89.6973 55.6154ZM89.6973 77.8322C93.8965 77.8322 97.3145 74.3654 97.3145 70.1662C97.3145 65.967 93.8965 62.549 89.6973 62.549C85.498 62.549 82.0312 65.967 82.0312 70.1662C82.0312 74.3654 85.498 77.8322 89.6973 77.8322ZM46.0938 46.0939C48.0469 46.0939 49.6094 44.4338 49.6094 42.383C49.6094 40.4299 48.0469 38.8185 46.0938 38.8185C44.1406 38.8185 42.5293 40.4299 42.5293 42.383C42.5293 44.4338 44.1406 46.0939 46.0938 46.0939ZM58.1543 49.5119C60.2051 49.5119 61.7188 47.8517 61.7188 45.8986C61.7188 43.8478 60.2051 42.2853 58.1543 42.2853C56.2012 42.2853 54.6875 43.8478 54.6875 45.8986C54.6875 47.8517 56.2012 49.5119 58.1543 49.5119ZM67.2852 58.2033C69.2383 58.2033 70.8984 56.6408 70.8984 54.6877C70.8984 52.6369 69.2383 50.9767 67.2852 50.9767C65.332 50.9767 63.7695 52.6369 63.7695 54.6877C63.7695 56.6408 65.332 58.2033 67.2852 58.2033ZM70.3613 69.922C72.3145 69.922 73.877 68.3107 73.877 66.3576C73.877 64.3556 72.3145 62.7931 70.3613 62.7931C68.3594 62.7931 66.7969 64.3556 66.7969 66.3576C66.7969 68.3107 68.3594 69.922 70.3613 69.922ZM67.2852 81.6896C69.2383 81.6896 70.8984 80.0295 70.8984 78.0275C70.8984 76.0256 69.2383 74.4631 67.2852 74.4631C65.332 74.4631 63.7695 76.0256 63.7695 78.0275C63.7695 80.0295 65.332 81.6896 67.2852 81.6896ZM58.1543 90.674C60.2051 90.674 61.7188 89.0627 61.7188 87.0607C61.7188 85.1076 60.2051 83.4474 58.1543 83.4474C56.2012 83.4474 54.6875 85.1076 54.6875 87.0607C54.6875 89.0627 56.2012 90.674 58.1543 90.674ZM46.0938 94.3849C48.0469 94.3849 49.6094 92.7736 49.6094 90.8205C49.6094 88.7697 48.0469 87.1095 46.0938 87.1095C44.1406 87.1095 42.5293 88.7697 42.5293 90.8205C42.5293 92.7736 44.1406 94.3849 46.0938 94.3849ZM33.9844 90.674C35.9375 90.674 37.4512 89.0627 37.4512 87.0607C37.4512 85.1076 35.9375 83.4474 33.9844 83.4474C31.9336 83.4474 30.4199 85.1076 30.4199 87.0607C30.4199 89.0627 31.9336 90.674 33.9844 90.674ZM24.9023 81.6896C26.8555 81.6896 28.3691 80.0295 28.3691 78.0275C28.3691 76.0256 26.8555 74.4631 24.9023 74.4631C22.9004 74.4631 21.2402 76.0256 21.2402 78.0275C21.2402 80.0295 22.9004 81.6896 24.9023 81.6896ZM21.8262 69.922C23.7793 69.922 25.3418 68.3107 25.3418 66.3576C25.3418 64.3556 23.7793 62.7931 21.8262 62.7931C19.873 62.7931 18.2617 64.3556 18.2617 66.3576C18.2617 68.3107 19.873 69.922 21.8262 69.922ZM24.9023 58.2033C26.8555 58.2033 28.3691 56.6408 28.3691 54.6877C28.3691 52.6369 26.8555 50.9767 24.9023 50.9767C22.9004 50.9767 21.2402 52.6369 21.2402 54.6877C21.2402 56.6408 22.9004 58.2033 24.9023 58.2033ZM33.9844 49.5119C35.9375 49.5119 37.4512 47.8517 37.4512 45.8986C37.4512 43.8478 35.9375 42.2853 33.9844 42.2853C31.9336 42.2853 30.4199 43.8478 30.4199 45.8986C30.4199 47.8517 31.9336 49.5119 33.9844 49.5119ZM46.0938 58.4963C48.0469 58.4963 49.6094 56.8849 49.6094 54.9318C49.6094 52.9299 48.0469 51.2697 46.0938 51.2697C44.1406 51.2697 42.5293 52.9299 42.5293 54.9318C42.5293 56.8849 44.1406 58.4963 46.0938 58.4963ZM57.4219 63.3791C59.4238 63.3791 60.9375 61.7189 60.9375 59.8146C60.9375 57.8615 59.4238 56.2502 57.4219 56.2502C55.4688 56.2502 53.8086 57.8615 53.8086 59.8146C53.8086 61.7189 55.4688 63.3791 57.4219 63.3791ZM57.4219 76.9533C59.4238 76.9533 60.9375 75.3908 60.9375 73.4377C60.9375 71.3869 59.4238 69.7756 57.4219 69.7756C55.4688 69.7756 53.8086 71.3869 53.8086 73.4377C53.8086 75.3908 55.4688 76.9533 57.4219 76.9533ZM46.0938 81.9338C48.0469 81.9338 49.6094 80.2736 49.6094 78.2717C49.6094 76.3185 48.0469 74.7072 46.0938 74.7072C44.1406 74.7072 42.5293 76.3185 42.5293 78.2717C42.5293 80.2736 44.1406 81.9338 46.0938 81.9338ZM34.7168 76.9533C36.6699 76.9533 38.3301 75.3908 38.3301 73.4377C38.3301 71.3869 36.6699 69.7756 34.7168 69.7756C32.7637 69.7756 31.2012 71.3869 31.2012 73.4377C31.2012 75.3908 32.7637 76.9533 34.7168 76.9533ZM34.7168 63.3791C36.6699 63.3791 38.3301 61.7189 38.3301 59.8146C38.3301 57.8615 36.6699 56.2502 34.7168 56.2502C32.7637 56.2502 31.2012 57.8615 31.2012 59.8146C31.2012 61.7189 32.7637 63.3791 34.7168 63.3791ZM46.0938 70.1662C48.0469 70.1662 49.6094 68.5549 49.6094 66.6017C49.6094 64.6486 48.0469 63.0373 46.0938 63.0373C44.1406 63.0373 42.5293 64.6486 42.5293 66.6017C42.5293 68.5549 44.1406 70.1662 46.0938 70.1662ZM93.2617 29.59L95.6543 22.0705L28.2715 0.195485C26.2207-0.488109 23.9746 0.683766 23.3398 2.73455C22.6562 4.78533 23.8281 7.03142 25.8789 7.71502ZM15.332 111.572L99.8047 111.572C110.059 111.572 115.137 106.543 115.137 96.4845L115.137 36.8166C115.137 26.758 110.059 21.6799 99.8047 21.6799L15.332 21.6799C5.12695 21.6799 0 26.758 0 36.8166L0 96.4845C0 106.543 5.12695 111.572 15.332 111.572ZM15.4297 103.711C10.5469 103.711 7.86133 101.123 7.86133 96.0451L7.86133 37.256C7.86133 32.1779 10.5469 29.5412 15.4297 29.5412L99.707 29.5412C104.541 29.5412 107.275 32.1779 107.275 37.256L107.275 96.0451C107.275 101.123 104.541 103.711 99.707 103.711Z" fill="#000000" fill-opacity="0.85"/>
 </g>
</svg>
