<?xml version="1.0" encoding="UTF-8"?>
<!--Generator: Apple Native CoreSVG 232.5-->
<!DOCTYPE svg
PUBLIC "-//W3C//DTD SVG 1.1//EN"
       "http://www.w3.org/Graphics/SVG/1.1/DTD/svg11.dtd">
<svg version="1.1" xmlns="http://www.w3.org/2000/svg" xmlns:xlink="http://www.w3.org/1999/xlink" width="115.137" height="133.252">
 <g>
  <rect height="133.252" opacity="0" width="115.137" x="0" y="0"/>
  <path d="M90.6738 55.2736C86.3281 55.3224 82.7637 51.758 82.7637 47.4611C82.7637 43.1642 86.3281 39.5021 90.6738 39.551C95.0195 39.5998 98.5352 43.1642 98.5352 47.4611C98.5352 51.758 95.0195 55.176 90.6738 55.2736ZM90.6738 78.2228C86.3281 78.2228 82.7637 74.6584 82.7637 70.3127C82.7637 65.967 86.3281 62.4513 90.6738 62.4513C95.0195 62.4513 98.5352 65.967 98.5352 70.3127C98.5352 74.6584 95.0195 78.2228 90.6738 78.2228ZM45.752 45.4592C43.7012 45.4592 42.041 43.7502 42.041 41.6506C42.041 39.5998 43.7012 37.9396 45.752 37.9396C47.7539 37.9396 49.3652 39.5998 49.3652 41.6506C49.3652 43.7502 47.7539 45.4592 45.752 45.4592ZM58.1543 48.9748C56.1523 48.9748 54.5898 47.2658 54.5898 45.2638C54.5898 43.1642 56.1523 41.5041 58.1543 41.5041C60.3027 41.5041 61.8652 43.1642 61.8652 45.2638C61.8652 47.2658 60.3027 48.9748 58.1543 48.9748ZM67.5781 57.9592C65.5762 57.9592 63.9648 56.3478 63.9648 54.3459C63.9648 52.1974 65.5762 50.4885 67.5781 50.4885C69.5801 50.4885 71.2891 52.1974 71.2891 54.3459C71.2891 56.3478 69.5801 57.9592 67.5781 57.9592ZM70.752 70.0197C68.7012 70.0197 67.0898 68.3595 67.0898 66.3576C67.0898 64.3068 68.7012 62.6955 70.752 62.6955C72.7539 62.6955 74.3652 64.3068 74.3652 66.3576C74.3652 68.3595 72.7539 70.0197 70.752 70.0197ZM67.5781 82.1779C65.5762 82.1779 63.9648 80.4689 63.9648 78.3693C63.9648 76.3185 65.5762 74.7072 67.5781 74.7072C69.5801 74.7072 71.2891 76.3185 71.2891 78.3693C71.2891 80.4689 69.5801 82.1779 67.5781 82.1779ZM58.1543 91.4553C56.1523 91.4553 54.5898 89.7463 54.5898 87.6955C54.5898 85.6935 56.1523 83.9845 58.1543 83.9845C60.3027 83.9845 61.8652 85.6935 61.8652 87.6955C61.8652 89.7463 60.3027 91.4553 58.1543 91.4553ZM45.752 95.2638C43.7012 95.2638 42.041 93.6037 42.041 91.5529C42.041 89.4533 43.7012 87.7443 45.752 87.7443C47.7539 87.7443 49.3652 89.4533 49.3652 91.5529C49.3652 93.6037 47.7539 95.2638 45.752 95.2638ZM33.252 91.4553C31.1523 91.4553 29.5898 89.7463 29.5898 87.6955C29.5898 85.6935 31.1523 83.9845 33.252 83.9845C35.2539 83.9845 36.8164 85.6935 36.8164 87.6955C36.8164 89.7463 35.2539 91.4553 33.252 91.4553ZM23.877 82.1779C21.8262 82.1779 20.1172 80.4689 20.1172 78.3693C20.1172 76.3185 21.8262 74.7072 23.877 74.7072C25.8789 74.7072 27.4414 76.3185 27.4414 78.3693C27.4414 80.4689 25.8789 82.1779 23.877 82.1779ZM20.7031 70.0197C18.7012 70.0197 17.041 68.3595 17.041 66.3576C17.041 64.3068 18.7012 62.6955 20.7031 62.6955C22.7051 62.6955 24.3652 64.3068 24.3652 66.3576C24.3652 68.3595 22.7051 70.0197 20.7031 70.0197ZM23.877 57.9592C21.8262 57.9592 20.1172 56.3478 20.1172 54.3459C20.1172 52.1974 21.8262 50.4885 23.877 50.4885C25.8789 50.4885 27.4414 52.1974 27.4414 54.3459C27.4414 56.3478 25.8789 57.9592 23.877 57.9592ZM33.252 48.9748C31.1523 48.9748 29.5898 47.2658 29.5898 45.2638C29.5898 43.1642 31.1523 41.5041 33.252 41.5041C35.2539 41.5041 36.8164 43.1642 36.8164 45.2638C36.8164 47.2658 35.2539 48.9748 33.252 48.9748ZM45.752 58.2521C43.7012 58.2521 42.041 56.592 42.041 54.59C42.041 52.4904 43.7012 50.7814 45.752 50.7814C47.7539 50.7814 49.3652 52.4904 49.3652 54.59C49.3652 56.592 47.7539 58.2521 45.752 58.2521ZM57.4219 63.2814C55.4199 63.2814 53.7109 61.5724 53.7109 59.6193C53.7109 57.5685 55.4199 55.9084 57.4219 55.9084C59.4727 55.9084 61.0352 57.5685 61.0352 59.6193C61.0352 61.5724 59.4727 63.2814 57.4219 63.2814ZM57.4219 77.2951C55.4199 77.2951 53.7109 75.6838 53.7109 73.633C53.7109 71.5334 55.4199 69.8732 57.4219 69.8732C59.4727 69.8732 61.0352 71.5334 61.0352 73.633C61.0352 75.6838 59.4727 77.2951 57.4219 77.2951ZM45.752 82.422C43.7012 82.422 42.041 80.6642 42.041 78.6135C42.041 76.6115 43.7012 74.9513 45.752 74.9513C47.7539 74.9513 49.3652 76.6115 49.3652 78.6135C49.3652 80.6642 47.7539 82.422 45.752 82.422ZM33.9844 77.2951C31.9824 77.2951 30.3711 75.6838 30.3711 73.633C30.3711 71.5334 31.9824 69.8732 33.9844 69.8732C36.0352 69.8732 37.7441 71.5334 37.7441 73.633C37.7441 75.6838 36.0352 77.2951 33.9844 77.2951ZM33.9844 63.2814C31.9824 63.2814 30.3711 61.5724 30.3711 59.6193C30.3711 57.5685 31.9824 55.9084 33.9844 55.9084C36.0352 55.9084 37.7441 57.5685 37.7441 59.6193C37.7441 61.5724 36.0352 63.2814 33.9844 63.2814ZM45.752 70.2638C43.7012 70.2638 42.041 68.6037 42.041 66.6017C42.041 64.5998 43.7012 62.9396 45.752 62.9396C47.7539 62.9396 49.3652 64.5998 49.3652 66.6017C49.3652 68.6037 47.7539 70.2638 45.752 70.2638ZM93.2617 29.59L95.6543 22.0705L28.2715 0.195485C26.2207-0.488109 23.9746 0.683766 23.3398 2.73455C22.6562 4.78533 23.8281 7.03142 25.8789 7.71502ZM15.332 111.572L99.8047 111.572C110.059 111.572 115.137 106.543 115.137 96.4845L115.137 36.8166C115.137 26.758 110.059 21.6799 99.8047 21.6799L15.332 21.6799C5.12695 21.6799 0 26.758 0 36.8166L0 96.4845C0 106.543 5.12695 111.572 15.332 111.572Z" fill="#000000" fill-opacity="0.85"/>
 </g>
</svg>
