<?xml version="1.0" encoding="UTF-8"?>
<!--Generator: Apple Native CoreSVG 232.5-->
<!DOCTYPE svg
PUBLIC "-//W3C//DTD SVG 1.1//EN"
       "http://www.w3.org/Graphics/SVG/1.1/DTD/svg11.dtd">
<svg version="1.1" xmlns="http://www.w3.org/2000/svg" xmlns:xlink="http://www.w3.org/1999/xlink" width="106.006" height="106.396">
 <g>
  <rect height="106.396" opacity="0" width="106.006" x="0" y="0"/>
  <path d="M25.7812 31.8359C27.3926 33.4473 30.127 33.4473 31.7871 31.8359C33.3984 30.1758 33.3984 27.4414 31.7871 25.8301L21.1914 15.1855C19.5801 13.5742 16.8457 13.5254 15.1855 15.1367C13.5742 16.748 13.5742 19.4824 15.1855 21.1426Z" fill="#000000" fill-opacity="0.85"/>
  <path d="M4.24805 48.7305C1.95312 48.7305 0 50.6836 0 52.9785C0 55.2734 1.95312 57.2266 4.24805 57.2266L19.3848 57.2266C21.6797 57.2266 23.6328 55.2734 23.6328 52.9785C23.6328 50.6836 21.6797 48.7305 19.3848 48.7305Z" fill="#000000" fill-opacity="0.85"/>
  <path d="M15.625 84.2773C14.0137 85.8887 14.0137 88.6719 15.5762 90.2832C17.1875 91.8945 19.9707 91.9434 21.6309 90.332L32.2754 79.6875C33.8867 78.0762 33.8867 75.3418 32.2754 73.7305C30.7129 72.0703 27.8809 72.0703 26.2695 73.7305Z" fill="#000000" fill-opacity="0.85"/>
  <path d="M57.2754 86.6699C57.2754 84.3262 55.3223 82.373 52.9785 82.373C50.6836 82.373 48.7305 84.3262 48.7305 86.6699L48.7305 101.709C48.7305 104.004 50.6836 105.957 52.9785 105.957C55.3223 105.957 57.2754 104.004 57.2754 101.709Z" fill="#000000" fill-opacity="0.85"/>
  <path d="M79.7363 73.6328C78.0762 72.0215 75.293 72.0215 73.6816 73.6328C72.0215 75.293 72.0215 78.0273 73.6816 79.6387L84.375 90.332C85.9863 91.9434 88.7207 91.8945 90.332 90.332C91.9922 88.7207 91.9922 85.9375 90.332 84.2773Z" fill="#000000" fill-opacity="0.85"/>
  <path d="M101.709 57.2266C104.053 57.2266 106.006 55.2734 106.006 52.9785C106.006 50.6836 104.053 48.7305 101.709 48.7305L86.6699 48.7305C84.375 48.7305 82.4219 50.6836 82.4219 52.9785C82.4219 55.2734 84.375 57.2266 86.6699 57.2266Z" fill="#000000" fill-opacity="0.85"/>
  <path d="M73.6816 26.3184C72.0215 27.9297 72.0215 30.6641 73.6816 32.3242C75.293 33.9355 78.0762 33.9355 79.7363 32.3242L90.332 21.6797C91.9922 20.0195 91.9922 17.2852 90.332 15.625C88.7207 14.0137 85.9863 14.0137 84.375 15.625Z" fill="#000000" fill-opacity="0.85"/>
  <path d="M57.2754 4.24805C57.2754 1.95312 55.3223 0 52.9785 0C50.6836 0 48.7305 1.95312 48.7305 4.24805L48.7305 19.2871C48.7305 21.6309 50.6836 23.584 52.9785 23.584C55.3223 23.584 57.2754 21.6309 57.2754 19.2871Z" fill="#000000" fill-opacity="0.85"/>
 </g>
</svg>
