<?xml version="1.0" encoding="UTF-8"?>
<!--Generator: Apple Native CoreSVG 232.5-->
<!DOCTYPE svg
PUBLIC "-//W3C//DTD SVG 1.1//EN"
       "http://www.w3.org/Graphics/SVG/1.1/DTD/svg11.dtd">
<svg version="1.1" xmlns="http://www.w3.org/2000/svg" xmlns:xlink="http://www.w3.org/1999/xlink" width="112.646" height="85.2051">
 <g>
  <rect height="85.2051" opacity="0" width="112.646" x="0" y="0"/>
  <path d="M40.9668 85.1562L71.6797 85.1562C100 85.1562 112.646 72.1191 112.646 45.459L112.646 14.7949C112.646 4.98047 107.568 0 97.6562 0L14.9902 0C5.07812 0 0 4.98047 0 14.7949L0 45.459C0 72.1191 12.6465 85.1562 40.9668 85.1562ZM40.9668 77.2949C17.9199 77.2949 7.86133 67.2852 7.86133 45.9473L7.86133 15.2344C7.86133 10.3516 10.4004 7.86133 15.1855 7.86133L97.4609 7.86133C102.148 7.86133 104.785 10.3516 104.785 15.2344L104.785 45.9473C104.785 67.2852 94.7266 77.2949 71.6309 77.2949Z" fill="#000000" fill-opacity="0.85"/>
  <path d="M33.3008 63.0371C35.498 63.0371 36.8652 61.5723 36.8652 59.2773L36.8652 47.2656L41.4551 47.2656L46.582 60.0586C47.2656 61.9141 48.3398 63.0371 50.293 63.0371C51.9043 63.0371 53.6621 62.0605 53.6621 59.5703C53.6621 58.9844 53.3203 58.0078 52.8809 56.8848L48.2422 45.8008C52.1484 43.75 53.8574 39.5508 53.8574 35.1074C53.8574 27.1484 49.1211 22.9004 41.5039 22.9004L33.252 22.9004C30.957 22.9004 29.6875 24.3164 29.6875 26.6113L29.6875 59.2773C29.6875 61.5234 30.957 63.0371 33.3008 63.0371ZM36.8652 42.041L36.8652 28.5645L40.8691 28.5645C44.6289 28.5645 46.6309 31.3477 46.6309 35.2539C46.6309 39.1602 44.873 42.041 40.8691 42.041ZM63.916 62.4023L74.2676 62.4023C81.1523 62.4023 85.1562 57.8125 85.1562 51.2695C85.1562 46.4844 82.2754 42.1387 77.6367 41.6504L77.6367 41.4062C81.3477 40.7715 83.9355 36.6211 83.9355 32.7637C83.9355 26.4648 79.7363 22.9004 73.9746 22.9004L63.916 22.9004C61.6211 22.9004 60.4004 24.5117 60.4004 26.6113L60.4004 58.6914C60.4004 60.9375 61.6699 62.4023 63.916 62.4023ZM67.3828 39.6484L67.3828 28.3203L71.9238 28.3203C75.6348 28.3203 77.0996 30.6641 77.0996 33.8379C77.0996 37.4512 75 39.6484 71.3867 39.6484ZM67.3828 56.9824L67.3828 44.4336L71.9238 44.4336C75.4883 44.4336 77.9785 46.3867 77.9785 50.6836C77.9785 54.6387 76.0254 56.9824 72.1191 56.9824Z" fill="#000000" fill-opacity="0.85"/>
 </g>
</svg>
