<?xml version="1.0" encoding="UTF-8"?>
<!--Generator: Apple Native CoreSVG 232.5-->
<!DOCTYPE svg
PUBLIC "-//W3C//DTD SVG 1.1//EN"
       "http://www.w3.org/Graphics/SVG/1.1/DTD/svg11.dtd">
<svg version="1.1" xmlns="http://www.w3.org/2000/svg" xmlns:xlink="http://www.w3.org/1999/xlink" width="99.6094" height="99.6582">
 <g>
  <rect height="99.6582" opacity="0" width="99.6094" x="0" y="0"/>
  <path d="M99.6094 49.8047C99.6094 77.002 77.0508 99.6094 49.8047 99.6094C22.6074 99.6094 0 77.002 0 49.8047C0 22.5586 22.5586 0 49.7559 0C77.002 0 99.6094 22.5586 99.6094 49.8047ZM27.1484 30.5176C24.9023 30.5176 23.6328 31.8848 23.6328 34.1797L23.6328 66.1133C23.6328 68.3594 24.9023 69.8242 27.1973 69.8242C29.3457 69.8242 30.6641 68.4082 30.6641 66.1133L30.6641 54.3945L35.1562 54.3945L40.1367 66.9434C40.8691 68.75 41.9434 69.8242 43.8477 69.8242C45.4102 69.8242 47.168 68.8477 47.168 66.4062C47.168 65.8691 46.8262 64.8926 46.3867 63.7695L41.7969 52.9785C45.7031 50.9766 47.3633 46.8262 47.3633 42.4805C47.3633 34.668 42.7246 30.5176 35.2539 30.5176ZM57.1777 30.4688C54.9316 30.4688 53.7109 32.0801 53.7109 34.1797L53.7109 65.5762C53.7109 67.7734 54.9805 69.1895 57.1777 69.1895L67.334 69.1895C74.1211 69.1895 78.0273 64.6973 78.0273 58.252C78.0273 53.6133 75.1953 49.3164 70.6543 48.877L70.6543 48.6328C74.3164 47.998 76.8066 43.9453 76.8066 40.1367C76.8066 33.9844 72.7051 30.4688 67.0898 30.4688ZM70.9473 57.7148C70.9473 61.5723 69.0918 63.8672 65.2344 63.8672L60.5957 63.8672L60.5957 51.6113L65.0879 51.6113C68.5547 51.6113 70.9473 53.5156 70.9473 57.7148ZM40.2344 42.627C40.2344 46.4355 38.4766 49.2188 34.6191 49.2188L30.6641 49.2188L30.6641 36.084L34.6191 36.084C38.2324 36.084 40.2344 38.8184 40.2344 42.627ZM70.1172 41.2109C70.1172 44.7266 68.0176 46.9238 64.502 46.9238L60.5957 46.9238L60.5957 35.8398L65.0879 35.8398C68.7012 35.8398 70.1172 38.1348 70.1172 41.2109Z" fill="#000000" fill-opacity="0.85"/>
 </g>
</svg>
