<?xml version="1.0" encoding="UTF-8"?>
<!--Generator: Apple Native CoreSVG 232.5-->
<!DOCTYPE svg
PUBLIC "-//W3C//DTD SVG 1.1//EN"
       "http://www.w3.org/Graphics/SVG/1.1/DTD/svg11.dtd">
<svg version="1.1" xmlns="http://www.w3.org/2000/svg" xmlns:xlink="http://www.w3.org/1999/xlink" width="99.6094" height="99.6582">
 <g>
  <rect height="99.6582" opacity="0" width="99.6094" x="0" y="0"/>
  <path d="M49.8047 99.6094C77.0508 99.6094 99.6094 77.002 99.6094 49.8047C99.6094 22.5586 77.002 0 49.7559 0C22.5586 0 0 22.5586 0 49.8047C0 77.002 22.6074 99.6094 49.8047 99.6094ZM49.8047 91.3086C26.7578 91.3086 8.34961 72.8516 8.34961 49.8047C8.34961 26.7578 26.709 8.30078 49.7559 8.30078C72.8027 8.30078 91.3086 26.7578 91.3086 49.8047C91.3086 72.8516 72.8516 91.3086 49.8047 91.3086Z" fill="#000000" fill-opacity="0.85"/>
  <path d="M18.5547 49.8047C18.5547 57.666 24.9023 64.0625 32.7637 64.0625L66.7969 64.0625C74.6582 64.0625 81.0059 57.666 81.0059 49.8047C81.0059 41.9434 74.6582 35.5469 66.7969 35.5469C58.9355 35.5469 52.5391 41.9434 52.5391 49.8047C52.5391 53.0762 53.6621 56.2012 55.7617 58.6426L43.7988 58.6426C45.8984 56.2012 47.0215 53.0762 47.0215 49.8047C47.0215 41.9434 40.6738 35.5469 32.7637 35.5469C24.9023 35.5469 18.5547 41.9434 18.5547 49.8047ZM23.9746 49.7559C23.9746 44.9219 27.9785 40.9668 32.8125 40.9668C37.6465 40.9668 41.6016 44.9219 41.6016 49.7559C41.6016 54.6875 37.6953 58.6426 32.8125 58.6426C27.9297 58.6426 23.9746 54.6387 23.9746 49.7559ZM57.959 49.7559C57.959 44.9219 61.9141 40.9668 66.748 40.9668C71.582 40.9668 75.5859 44.9219 75.5859 49.7559C75.5859 54.6387 71.6309 58.6426 66.748 58.6426C61.8652 58.6426 57.959 54.6875 57.959 49.7559Z" fill="#000000" fill-opacity="0.85"/>
 </g>
</svg>
