<?xml version="1.0" encoding="UTF-8"?>
<!--Generator: Apple Native CoreSVG 232.5-->
<!DOCTYPE svg
PUBLIC "-//W3C//DTD SVG 1.1//EN"
       "http://www.w3.org/Graphics/SVG/1.1/DTD/svg11.dtd">
<svg version="1.1" xmlns="http://www.w3.org/2000/svg" xmlns:xlink="http://www.w3.org/1999/xlink" width="99.6094" height="99.6582">
 <g>
  <rect height="99.6582" opacity="0" width="99.6094" x="0" y="0"/>
  <path d="M99.6094 49.8047C99.6094 77.002 77.0508 99.6094 49.8047 99.6094C22.6074 99.6094 0 77.002 0 49.8047C0 22.5586 22.5586 0 49.7559 0C77.002 0 99.6094 22.5586 99.6094 49.8047ZM52.6367 49.8047C52.6367 53.1738 53.7598 56.3965 55.9082 58.8867L43.6523 58.8867C45.8008 56.3965 46.9238 53.1738 46.9238 49.8047C46.9238 41.6992 40.3809 35.1074 32.2266 35.1074C24.1211 35.1074 17.627 41.6992 17.627 49.8047C17.627 57.9102 24.1211 64.502 32.2266 64.502L67.334 64.502C75.4395 64.502 81.9824 57.9102 81.9824 49.8047C81.9824 41.6992 75.4395 35.1074 67.334 35.1074C59.2285 35.1074 52.6367 41.6992 52.6367 49.8047ZM41.3086 49.7559C41.3086 54.834 37.3047 58.8867 32.2754 58.8867C27.2461 58.8867 23.1934 54.7852 23.1934 49.7559C23.1934 44.7754 27.2949 40.7227 32.2754 40.7227C37.2559 40.7227 41.3086 44.7754 41.3086 49.7559ZM76.3672 49.7559C76.3672 54.7852 72.3145 58.8867 67.2852 58.8867C62.2559 58.8867 58.252 54.834 58.252 49.7559C58.252 44.7754 62.3047 40.7227 67.2852 40.7227C72.2656 40.7227 76.3672 44.7754 76.3672 49.7559Z" fill="#000000" fill-opacity="0.85"/>
 </g>
</svg>
