<?xml version="1.0" encoding="UTF-8"?>
<!--Generator: Apple Native CoreSVG 232.5-->
<!DOCTYPE svg
PUBLIC "-//W3C//DTD SVG 1.1//EN"
       "http://www.w3.org/Graphics/SVG/1.1/DTD/svg11.dtd">
<svg version="1.1" xmlns="http://www.w3.org/2000/svg" xmlns:xlink="http://www.w3.org/1999/xlink" width="145.166" height="63.7207">
 <g>
  <rect height="63.7207" opacity="0" width="145.166" x="0" y="0"/>
  <path d="M0 31.8359C0 49.4141 14.2578 63.6719 31.8359 63.6719L113.33 63.6719C130.957 63.6719 145.166 49.4141 145.166 31.8359C145.166 14.209 130.957 0 113.33 0C95.752 0 81.4941 14.2578 81.4941 31.8359C81.4941 41.2598 85.6934 49.707 92.4805 55.3223L52.6855 55.3223C59.4727 49.707 63.6719 41.2598 63.6719 31.8359C63.6719 14.209 49.4141 0 31.8359 0C14.209 0 0 14.2578 0 31.8359ZM8.34961 31.7871C8.34961 18.8477 18.8965 8.30078 31.8848 8.30078C44.8242 8.30078 55.3223 18.8477 55.3223 31.7871C55.3223 44.7754 44.8242 55.3223 31.8848 55.3223C18.8965 55.3223 8.34961 44.7754 8.34961 31.7871ZM89.8438 31.7871C89.8438 18.8477 100.342 8.30078 113.281 8.30078C126.27 8.30078 136.816 18.8477 136.816 31.7871C136.816 44.7754 126.27 55.3223 113.281 55.3223C100.342 55.3223 89.8438 44.7754 89.8438 31.7871Z" fill="#000000" fill-opacity="0.85"/>
 </g>
</svg>
