<?xml version="1.0" encoding="UTF-8"?>
<!--Generator: Apple Native CoreSVG 232.5-->
<!DOCTYPE svg
PUBLIC "-//W3C//DTD SVG 1.1//EN"
       "http://www.w3.org/Graphics/SVG/1.1/DTD/svg11.dtd">
<svg version="1.1" xmlns="http://www.w3.org/2000/svg" xmlns:xlink="http://www.w3.org/1999/xlink" width="115.137" height="89.9902">
 <g>
  <rect height="89.9902" opacity="0" width="115.137" x="0" y="0"/>
  <path d="M0 48.9746L0 41.1133L53.6621 41.1133L53.6621 0.0976562L61.5234 0.0976562L61.5234 41.1133L115.137 41.1133L115.137 48.9746L61.5234 48.9746L61.5234 89.9902L53.6621 89.9902L53.6621 48.9746ZM15.332 89.9902L99.8047 89.9902C110.059 89.9902 115.137 84.9121 115.137 74.8535L115.137 15.1855C115.137 5.12695 110.059 0.0976562 99.8047 0.0976562L15.332 0.0976562C5.12695 0.0976562 0 5.12695 0 15.1855L0 74.8535C0 84.9121 5.12695 89.9902 15.332 89.9902Z" fill="#000000" fill-opacity="0.85"/>
 </g>
</svg>
