<?xml version="1.0" encoding="UTF-8"?>
<!--Generator: Apple Native CoreSVG 232.5-->
<!DOCTYPE svg
PUBLIC "-//W3C//DTD SVG 1.1//EN"
       "http://www.w3.org/Graphics/SVG/1.1/DTD/svg11.dtd">
<svg version="1.1" xmlns="http://www.w3.org/2000/svg" xmlns:xlink="http://www.w3.org/1999/xlink" width="170.85" height="103.271">
 <g>
  <rect height="103.271" opacity="0" width="170.85" x="0" y="0"/>
  <path d="M142.627 21.8262L142.627 28.5232C140.178 27.451 137.515 26.8625 134.766 26.858L134.766 22.2656C134.766 17.1875 131.982 14.5508 127.148 14.5508L42.9199 14.5508C38.0371 14.5508 35.3027 17.1875 35.3027 22.2656L35.3027 81.0547C35.3027 86.1328 38.0371 88.7207 42.9199 88.7207L98.8105 88.7207C98.584 89.8074 98.4863 90.8842 98.4863 91.9434C98.4863 93.6388 98.8264 95.1983 99.4526 96.582L42.7734 96.582C32.6172 96.582 27.4414 91.5527 27.4414 81.4941L27.4414 21.8262C27.4414 11.7676 32.6172 6.68945 42.7734 6.68945L127.295 6.68945C137.5 6.68945 142.627 11.7676 142.627 21.8262Z" fill="#000000" fill-opacity="0.85"/>
  <path d="M128.076 25.6348L128.076 28.0408C120.015 30.9181 113.975 38.9249 114.014 48.6816C114.014 55.5837 116.994 61.6868 121.595 65.7138C111.854 68.7975 104.684 75.166 101.088 82.0801L46.2891 82.0801C43.5547 82.0801 41.9922 80.4688 41.9922 77.6855L41.9922 25.6348C41.9922 22.8516 43.5547 21.2402 46.2891 21.2402L123.779 21.2402C126.514 21.2402 128.076 22.8516 128.076 25.6348Z" fill="#000000" fill-opacity="0.2125"/>
  <path d="M134.717 64.1113C142.188 64.1113 148.73 57.373 148.73 48.584C148.73 39.9414 142.188 33.5449 134.717 33.5449C127.197 33.5449 120.654 40.0391 120.654 48.6816C120.654 57.373 127.197 64.1113 134.717 64.1113ZM111.133 96.582L158.252 96.582C161.914 96.582 164.209 94.873 164.209 91.9434C164.209 82.8613 152.881 70.3613 134.717 70.3613C116.455 70.3613 105.176 82.8613 105.176 91.9434C105.176 94.873 107.422 96.582 111.133 96.582Z" fill="#000000" fill-opacity="0.85"/>
 </g>
</svg>
