<?xml version="1.0" encoding="UTF-8"?>
<!--Generator: Apple Native CoreSVG 232.5-->
<!DOCTYPE svg
PUBLIC "-//W3C//DTD SVG 1.1//EN"
       "http://www.w3.org/Graphics/SVG/1.1/DTD/svg11.dtd">
<svg version="1.1" xmlns="http://www.w3.org/2000/svg" xmlns:xlink="http://www.w3.org/1999/xlink" width="135.352" height="88.7207">
 <g>
  <rect height="88.7207" opacity="0" width="135.352" x="0" y="0"/>
  <path d="M9.76562 42.4316L56.4941 42.4316C62.9883 42.4316 66.2598 39.1602 66.2598 32.4219L66.2598 10.0098C66.2598 3.27148 62.9883 0.0488281 56.4941 0.0488281L9.76562 0.0488281C3.27148 0.0488281 0 3.27148 0 10.0098L0 32.4219C0 39.1602 3.27148 42.4316 9.76562 42.4316ZM21.582 88.7207L62.4512 88.7207C68.9941 88.7207 72.2656 85.4492 72.2656 78.7598L72.2656 62.5977C72.2656 55.8594 68.9941 52.5879 62.4512 52.5879L21.582 52.5879C15.0391 52.5879 11.7676 55.8594 11.7676 62.5977L11.7676 78.7598C11.7676 85.4492 15.0391 88.7207 21.582 88.7207ZM91.6504 82.3242L125.537 82.3242C132.08 82.3242 135.352 79.0527 135.352 72.3145L135.352 16.9922C135.352 10.2539 132.08 6.98242 125.537 6.98242L91.6504 6.98242C85.1074 6.98242 81.8359 10.2539 81.8359 16.9922L81.8359 72.3145C81.8359 79.0527 85.1074 82.3242 91.6504 82.3242Z" fill="#000000" fill-opacity="0.85"/>
 </g>
</svg>
