<?xml version="1.0" encoding="UTF-8"?>
<!--Generator: Apple Native CoreSVG 232.5-->
<!DOCTYPE svg
PUBLIC "-//W3C//DTD SVG 1.1//EN"
       "http://www.w3.org/Graphics/SVG/1.1/DTD/svg11.dtd">
<svg version="1.1" xmlns="http://www.w3.org/2000/svg" xmlns:xlink="http://www.w3.org/1999/xlink" width="115.137" height="89.8926">
 <g>
  <rect height="89.8926" opacity="0" width="115.137" x="0" y="0"/>
  <path d="M15.332 89.8926L99.8047 89.8926C110.059 89.8926 115.137 84.8633 115.137 74.8047L115.137 15.1367C115.137 5.07812 110.059 0 99.8047 0L15.332 0C5.12695 0 0 5.07812 0 15.1367L0 74.8047C0 84.8633 5.12695 89.8926 15.332 89.8926ZM15.4297 82.0312C10.5469 82.0312 7.86133 79.4434 7.86133 74.3652L7.86133 15.5762C7.86133 10.498 10.5469 7.86133 15.4297 7.86133L99.707 7.86133C104.541 7.86133 107.275 10.498 107.275 15.5762L107.275 74.3652C107.275 79.4434 104.541 82.0312 99.707 82.0312Z" fill="#000000" fill-opacity="0.85"/>
  <path d="M18.7988 75.3906L53.3691 75.3906C56.4453 75.3906 57.666 74.1211 57.666 70.9961L57.666 18.9453C57.666 15.8203 56.4453 14.5508 53.3691 14.5508L18.7988 14.5508C15.7715 14.5508 14.5508 15.8203 14.5508 18.9453L14.5508 70.9961C14.5508 74.1211 15.7715 75.3906 18.7988 75.3906ZM98.6328 44.9219C98.6816 43.1641 97.1191 41.6504 95.4102 41.6504L81.7383 41.6504L74.5117 41.8945L78.5645 38.0371L83.8379 32.8613C84.4727 32.2754 84.8145 31.3965 84.8145 30.5664C84.8145 28.8086 83.5449 27.5391 81.8848 27.5391C80.9082 27.5391 80.1758 27.9297 79.541 28.6621L66.6016 42.5293C65.7715 43.4082 65.4785 44.0918 65.4785 44.9219C65.4785 45.8008 65.7227 46.4355 66.6016 47.3145L79.541 61.1816C80.1758 61.9629 80.9082 62.3535 81.8848 62.3535C83.5449 62.3535 84.8145 61.084 84.8145 59.3262C84.8145 58.4961 84.4727 57.6172 83.8379 57.0312L78.5645 51.8066L74.5117 47.9492L81.7383 48.2422L95.4102 48.2422C97.1191 48.2422 98.584 46.6797 98.6328 44.9219Z" fill="#000000" fill-opacity="0.85"/>
 </g>
</svg>
