<?xml version="1.0" encoding="UTF-8"?>
<!--Generator: Apple Native CoreSVG 232.5-->
<!DOCTYPE svg
PUBLIC "-//W3C//DTD SVG 1.1//EN"
       "http://www.w3.org/Graphics/SVG/1.1/DTD/svg11.dtd">
<svg version="1.1" xmlns="http://www.w3.org/2000/svg" xmlns:xlink="http://www.w3.org/1999/xlink" width="115.137" height="91.0645">
 <g>
  <rect height="91.0645" opacity="0" width="115.137" x="0" y="0"/>
  <path d="M15.332 91.0645L99.8047 91.0645C110.059 91.0645 115.137 85.9863 115.137 75.9277L115.137 16.3086C115.137 6.25 110.059 1.17188 99.8047 1.17188L15.332 1.17188C5.12695 1.17188 0 6.20117 0 16.3086L0 75.9277C0 86.0352 5.12695 91.0645 15.332 91.0645ZM15.4297 83.2031C10.5469 83.2031 7.86133 80.5664 7.86133 75.5371L7.86133 16.6992C7.86133 11.6211 10.5469 9.0332 15.4297 9.0332L99.707 9.0332C104.541 9.0332 107.275 11.6211 107.275 16.6992L107.275 75.5371C107.275 80.5664 104.541 83.2031 99.707 83.2031Z" fill="#000000" fill-opacity="0.85"/>
  <path d="M18.7988 45.5078L53.2715 45.5078C56.3477 45.5078 57.5684 44.2383 57.5684 41.1133L57.5684 19.5312C57.5684 16.4062 56.3477 15.1367 53.2715 15.1367L18.7988 15.1367C15.7715 15.1367 14.5508 16.4062 14.5508 19.5312L14.5508 41.1133C14.5508 44.2383 15.7715 45.5078 18.7988 45.5078Z" fill="#000000" fill-opacity="0.85"/>
 </g>
</svg>
