<?xml version="1.0" encoding="UTF-8"?>
<!--Generator: Apple Native CoreSVG 232.5-->
<!DOCTYPE svg
PUBLIC "-//W3C//DTD SVG 1.1//EN"
       "http://www.w3.org/Graphics/SVG/1.1/DTD/svg11.dtd">
<svg version="1.1" xmlns="http://www.w3.org/2000/svg" xmlns:xlink="http://www.w3.org/1999/xlink" width="86.8652" height="104.932">
 <g>
  <rect height="104.932" opacity="0" width="86.8652" x="0" y="0"/>
  <path d="M86.8652 14.7949L86.8164 90.2344C86.8164 99.4141 81.25 104.883 71.9727 104.883L29.0527 104.883C11.377 104.883 0 93.5059 0 75.8301L0 51.7578C0 45.0684 2.05078 39.6973 6.20117 35.8887L37.0605 7.51953C43.0664 2.00195 49.4629 0 57.1289 0L72.1191 0C80.9082 0 86.8652 5.95703 86.8652 14.7949ZM34.668 54.0039C30.6641 54.0039 28.6621 56.0059 28.6621 59.9121L28.6621 80.2246C28.6621 84.2285 30.6641 86.1816 34.668 86.1816L63.8184 86.1816C67.7246 86.1816 69.8242 84.2285 69.8242 80.2246L69.8242 59.9121C69.8242 56.0059 67.7246 54.0039 63.8184 54.0039ZM25.0977 44.9219C21.1914 44.9219 19.1406 46.875 19.1406 50.8789L19.1406 71.0938C19.1406 75 21.1914 77.002 25.0977 77.002L25.4395 77.002L25.4395 59.9121C25.4395 54.248 28.8086 50.7812 34.668 50.7812L60.2051 50.7812L60.2051 50.5859C60.1074 46.8262 58.1543 44.9219 54.1992 44.9219Z" fill="#000000" fill-opacity="0.85"/>
 </g>
</svg>
