<?xml version="1.0" encoding="UTF-8"?>
<!--Generator: Apple Native CoreSVG 232.5-->
<!DOCTYPE svg
PUBLIC "-//W3C//DTD SVG 1.1//EN"
       "http://www.w3.org/Graphics/SVG/1.1/DTD/svg11.dtd">
<svg version="1.1" xmlns="http://www.w3.org/2000/svg" xmlns:xlink="http://www.w3.org/1999/xlink" width="99.6094" height="99.6582">
 <g>
  <rect height="99.6582" opacity="0" width="99.6094" x="0" y="0"/>
  <path d="M99.6094 49.8047C99.6094 77.002 77.0508 99.6094 49.8047 99.6094C22.6074 99.6094 0 77.002 0 49.8047C0 22.5586 22.5586 0 49.7559 0C77.002 0 99.6094 22.5586 99.6094 49.8047ZM23.877 23.8281C22.998 24.707 22.998 26.2207 23.877 27.0508L72.6074 75.7812C73.4375 76.6113 74.9512 76.6113 75.8301 75.7812C76.709 74.8047 76.709 73.4375 75.8301 72.5586L27.0996 23.8281C26.2207 22.9492 24.8047 22.9492 23.877 23.8281ZM31.4941 42.8223L31.4941 66.3574C31.4941 70.9473 33.7891 73.2422 38.4277 73.2422L65.034 73.2422L31.8572 40.0986C31.6129 40.8898 31.4941 41.8005 31.4941 42.8223ZM44.3018 35.9863L78.3051 69.9556C78.7403 68.9765 78.9551 67.7767 78.9551 66.3574L78.9551 42.8223C78.9551 38.3301 76.709 35.9863 72.0703 35.9863ZM20.459 32.3242L20.459 55.9082C20.459 60.5469 22.7051 62.793 27.3438 62.793L28.2715 62.793L28.2715 42.8223C28.2715 40.8154 28.6482 39.0663 29.3735 37.6174L21.3379 29.5898L20.9577 29.1769C20.6223 30.0612 20.459 31.1128 20.459 32.3242ZM33.8421 25.5371L41.0759 32.7637L67.9199 32.7637L67.9199 32.3242C67.9199 27.832 65.625 25.5371 61.0352 25.5371Z" fill="#000000" fill-opacity="0.85"/>
 </g>
</svg>
