<?xml version="1.0" encoding="UTF-8"?>
<!--Generator: Apple Native CoreSVG 232.5-->
<!DOCTYPE svg
PUBLIC "-//W3C//DTD SVG 1.1//EN"
       "http://www.w3.org/Graphics/SVG/1.1/DTD/svg11.dtd">
<svg version="1.1" xmlns="http://www.w3.org/2000/svg" xmlns:xlink="http://www.w3.org/1999/xlink" width="99.6094" height="99.6582">
 <g>
  <rect height="99.6582" opacity="0" width="99.6094" x="0" y="0"/>
  <path d="M99.6094 49.8047C99.6094 77.002 77.0508 99.6094 49.8047 99.6094C22.6074 99.6094 0 77.002 0 49.8047C0 22.5586 22.5586 0 49.7559 0C77.002 0 99.6094 22.5586 99.6094 49.8047ZM8.34961 49.8047C8.34961 72.8516 26.7578 91.3086 49.8047 91.3086C72.8516 91.3086 91.3086 72.8516 91.3086 49.8047C91.3086 26.7578 72.8027 8.30078 49.7559 8.30078C26.709 8.30078 8.34961 26.7578 8.34961 49.8047Z" fill="#000000" fill-opacity="0.85"/>
  <path d="M67.3828 32.9102L67.3828 33.3496L38.7695 33.3496C32.5195 33.3496 28.9551 36.9629 28.9551 43.0664L28.9551 62.4512L28.0273 62.4512C23.5352 62.4512 21.3379 60.2539 21.3379 55.7617L21.3379 32.9102C21.3379 28.5645 23.5352 26.3184 28.0273 26.3184L60.6934 26.3184C65.1367 26.3184 67.3828 28.5645 67.3828 32.9102Z" fill="#000000" fill-opacity="0.85"/>
  <path d="M38.7695 72.5586L71.3867 72.5586C75.8789 72.5586 78.0762 70.3613 78.0762 65.918L78.0762 43.0664C78.0762 38.7207 75.8789 36.4258 71.3867 36.4258L38.7695 36.4258C34.2773 36.4258 32.0312 38.7207 32.0312 43.0664L32.0312 65.918C32.0312 70.3613 34.2773 72.5586 38.7695 72.5586Z" fill="#000000" fill-opacity="0.85"/>
 </g>
</svg>
