<?xml version="1.0" encoding="UTF-8"?>
<!--Generator: Apple Native CoreSVG 232.5-->
<!DOCTYPE svg
PUBLIC "-//W3C//DTD SVG 1.1//EN"
       "http://www.w3.org/Graphics/SVG/1.1/DTD/svg11.dtd">
<svg version="1.1" xmlns="http://www.w3.org/2000/svg" xmlns:xlink="http://www.w3.org/1999/xlink" width="107.617" height="107.861">
 <g>
  <rect height="107.861" opacity="0" width="107.617" x="0" y="0"/>
  <path d="M107.617 28.9062L107.617 66.3086C107.617 80.6152 99.8047 88.623 85.2539 88.623L52.2461 88.623L34.6191 104.736C32.3242 106.885 30.9082 107.861 29.0039 107.861C26.2207 107.861 24.6582 105.859 24.6582 102.832L24.6582 88.623L22.3633 88.623C7.8125 88.623 0 80.6641 0 66.3086L0 28.9062C0 14.5508 7.8125 6.54297 22.3633 6.54297L85.2539 6.54297C99.8047 6.54297 107.617 14.5996 107.617 28.9062ZM30.957 51.9043C27.3438 51.9043 25.5371 53.7109 25.5371 57.3242L25.5371 64.1113C25.5371 67.7734 27.3438 69.5801 30.957 69.5801L49.9512 69.5801C53.5645 69.5801 55.3711 67.7734 55.3711 64.1113L55.3711 57.3242C55.3711 53.7109 53.5645 51.9043 49.9512 51.9043ZM66.5039 29.0039C62.8418 29.0039 60.9863 30.8105 60.9863 34.4238L60.9863 61.1328C60.9863 64.7949 62.8418 66.5527 66.5039 66.5527L82.1777 66.5527C85.8398 66.5527 87.6465 64.7949 87.6465 61.1328L87.6465 34.4238C87.6465 30.8105 85.8398 29.0039 82.1777 29.0039ZM24.9023 25.5859C21.1914 25.5859 19.3359 27.3438 19.3359 30.957L19.3359 40.9668C19.3359 44.6289 21.1914 46.3867 24.9023 46.3867L46.9727 46.3867C50.5859 46.3867 52.4414 44.6289 52.4414 40.9668L52.4414 30.957C52.4414 27.3438 50.5859 25.5859 46.9727 25.5859Z" fill="#000000" fill-opacity="0.85"/>
 </g>
</svg>
