<?xml version="1.0" encoding="UTF-8"?>
<!--Generator: Apple Native CoreSVG 232.5-->
<!DOCTYPE svg
PUBLIC "-//W3C//DTD SVG 1.1//EN"
       "http://www.w3.org/Graphics/SVG/1.1/DTD/svg11.dtd">
<svg version="1.1" xmlns="http://www.w3.org/2000/svg" xmlns:xlink="http://www.w3.org/1999/xlink" width="137.128" height="118.768">
 <g>
  <rect height="118.768" opacity="0" width="137.128" x="0" y="0"/>
  <path d="M104.697 17.7582L104.697 39.4967C102.372 38.458 99.9917 38.1833 97.8123 38.4022L97.8123 18.1488C97.8123 12.8754 94.9314 9.99454 89.7556 9.99454L25.3513 9.99454C20.1267 9.99454 17.2458 12.8754 17.2458 18.1488L17.2458 66.6352C17.2458 71.9086 20.1755 74.8383 25.3513 74.8383L42.127 74.8383C42.2109 75.1808 42.3177 75.5227 42.4412 75.8637C43.0271 77.475 43.906 78.9887 44.9314 80.2582L46.1055 81.7231L25.2048 81.7231C15.2927 81.7231 10.3611 76.8891 10.3611 67.0746L10.3611 17.7582C10.3611 7.89493 15.2927 3.10978 25.2048 3.10978L89.9021 3.10978C99.8142 3.10978 104.697 7.89493 104.697 17.7582Z" fill="#000000" fill-opacity="0.85"/>
  <path d="M108.554 109.75C128.476 102.524 135.117 85.9711 127.353 64.682L124.131 55.8442C121.201 47.7875 115.537 44.2231 111.142 45.8344C110.166 46.225 109.775 46.9086 110.166 47.8363L111.582 51.7914C112.265 53.5981 111.631 54.9164 110.556 55.307C109.336 55.7465 108.066 55.1606 107.383 53.3051L106.455 50.7172C104.746 45.9809 100.595 43.9789 96.4451 45.4926C94.5896 46.1762 94.0525 47.2504 94.5896 48.8617L96.5427 54.1352C97.2263 55.9906 96.5915 57.2113 95.5173 57.602C94.3455 58.0414 93.0271 57.5043 92.3923 55.6977L90.6345 50.7172C88.6326 45.4438 84.6287 44.0766 80.6248 45.4926C78.9158 46.1274 78.281 47.2992 78.7693 48.8129L82.5779 59.2133C83.2615 61.0688 82.6267 62.3383 81.5525 62.7289C80.3806 63.1684 79.1111 62.5824 78.4275 60.727L65.781 25.9125C64.5115 22.4945 61.4841 21.1274 58.6521 22.1527C55.5271 23.2758 54.2087 26.2543 55.4294 29.6723L73.9841 80.6488C74.4236 81.9184 73.8865 82.8949 73.1052 83.1391C72.324 83.432 71.5427 83.1879 70.5173 82.1137L57.9685 68.6859C56.113 66.684 54.2087 66.1957 52.158 66.977C49.033 68.1 47.7634 70.9809 48.74 73.6176C49.0818 74.643 49.6189 75.4242 50.156 76.1078L65.6833 95.4926C78.7205 111.948 93.8572 115.073 108.554 109.75Z" fill="#000000" fill-opacity="0.85"/>
 </g>
</svg>
