<?xml version="1.0" encoding="UTF-8"?>
<!--Generator: Apple Native CoreSVG 232.5-->
<!DOCTYPE svg
PUBLIC "-//W3C//DTD SVG 1.1//EN"
       "http://www.w3.org/Graphics/SVG/1.1/DTD/svg11.dtd">
<svg version="1.1" xmlns="http://www.w3.org/2000/svg" xmlns:xlink="http://www.w3.org/1999/xlink" width="89.0625" height="106.982">
 <g>
  <rect height="106.982" opacity="0" width="89.0625" x="0" y="0"/>
  <path d="M15.332 73.1445L73.7305 73.1445C83.9355 73.1445 89.0625 68.0664 89.0625 58.0078L89.0625 15.1855C89.0625 5.12695 83.9355 0.0488281 73.7305 0.0488281L15.332 0.0488281C5.07812 0.0488281 0 5.12695 0 15.1855L0 58.0078C0 68.0664 5.07812 73.1445 15.332 73.1445ZM15.4297 65.2832C10.6445 65.2832 7.86133 62.6953 7.86133 57.6172L7.86133 15.5762C7.86133 10.5469 10.6445 7.91016 15.4297 7.91016L73.584 7.91016C78.418 7.91016 81.2012 10.5469 81.2012 15.5762L81.2012 57.6172C81.2012 62.6953 78.418 65.2832 73.584 65.2832ZM40.5762 95.6055L48.4375 95.6055L48.4375 68.1152L40.5762 68.1152ZM3.90625 99.5117L85.1074 99.5117C87.2559 99.5117 89.0625 97.7051 89.0625 95.5566C89.0625 93.4082 87.2559 91.6504 85.1074 91.6504L3.90625 91.6504C1.75781 91.6504 0 93.4082 0 95.5566C0 97.7051 1.75781 99.5117 3.90625 99.5117ZM44.5312 106.982C50.7324 106.982 55.8594 101.855 55.8594 95.6543C55.8594 89.4043 50.7324 84.2773 44.5312 84.2773C38.2812 84.2773 33.1543 89.4043 33.1543 95.6543C33.1543 101.855 38.2812 106.982 44.5312 106.982Z" fill="#000000" fill-opacity="0.85"/>
 </g>
</svg>
