<?xml version="1.0" encoding="UTF-8"?>
<!--Generator: Apple Native CoreSVG 232.5-->
<!DOCTYPE svg
PUBLIC "-//W3C//DTD SVG 1.1//EN"
       "http://www.w3.org/Graphics/SVG/1.1/DTD/svg11.dtd">
<svg version="1.1" xmlns="http://www.w3.org/2000/svg" xmlns:xlink="http://www.w3.org/1999/xlink" width="123.859" height="112.549">
 <g>
  <rect height="112.549" opacity="0" width="123.859" x="0" y="0"/>
  <path d="M98.0623 14.6484L98.0623 38.1991C97.9184 38.2291 97.7708 38.2785 97.6229 38.3301C95.3768 35.3516 91.8123 34.3262 88.0037 35.6934C86.5877 36.2305 85.367 36.9629 84.1951 37.8418C81.7049 34.5703 77.8475 33.3984 73.8436 34.8633C72.7694 35.2539 71.744 35.8398 70.7674 36.5234L65.201 21.2891C63.1014 15.4785 57.8768 13.0371 52.4569 14.9902C46.9393 16.9922 44.4979 22.2168 46.5975 28.0273L60.5623 66.3086C60.6112 66.5527 60.5623 66.748 60.3182 66.8457C60.1229 66.9434 59.9764 66.8457 59.8299 66.6504L54.117 60.4492C51.2362 57.4219 47.9158 56.543 44.5955 57.666C40.1522 59.3262 37.2713 63.5742 39.0779 68.6035C39.5662 70.0195 40.5916 71.7285 41.6658 73.0957L46.2161 78.6133L18.5701 78.6133C8.65803 78.6133 3.72639 73.7793 3.72639 63.9648L3.72639 14.6484C3.72639 4.78516 8.65803 0 18.5701 0L83.2674 0C93.1795 0 98.0623 4.78516 98.0623 14.6484Z" fill="#000000" fill-opacity="0.85"/>
  <path d="M101.09 106.592C120.474 99.5605 128.726 81.7383 120.963 60.3027L117.301 50.2441C113.394 39.6973 106.168 35.3516 97.6229 38.3301C95.3768 35.3516 91.8123 34.3262 88.0037 35.6934C86.5877 36.2305 85.367 36.9629 84.1951 37.8418C81.7049 34.5703 77.8475 33.3984 73.8436 34.8633C72.7694 35.2539 71.744 35.8398 70.7674 36.5234L65.201 21.2891C63.1014 15.4785 57.8768 13.0371 52.4569 14.9902C46.9393 16.9922 44.4979 22.2168 46.5975 28.0273L60.5623 66.3086C60.6112 66.5527 60.5623 66.748 60.3182 66.8457C60.1229 66.9434 59.9764 66.8457 59.8299 66.6504L54.117 60.4492C51.2362 57.4219 47.9158 56.543 44.5955 57.666C40.1522 59.3262 37.2713 63.5742 39.0779 68.6035C39.5662 70.0195 40.5916 71.7285 41.6658 73.0957L57.9744 92.8711C70.4256 107.861 84.8787 112.5 101.09 106.592ZM98.9901 100.195C86.1971 104.883 74.1854 102.49 62.9061 88.8672L46.5487 69.1895C46.0604 68.6035 45.7186 68.0664 45.4256 67.2363C44.8397 65.625 45.5233 63.916 47.4276 63.1836C48.9412 62.6465 50.1619 63.2324 51.3826 64.5508L62.7108 76.1719C64.6151 78.125 66.2752 78.3691 67.8865 77.7832C69.7908 77.0508 70.6209 75.0488 69.8397 72.9492L52.5545 25.3906C51.8221 23.4375 52.6522 21.582 54.6053 20.8984C56.4608 20.2148 58.2674 21.0938 58.951 23.0957L71.3045 57.0312C71.8904 58.6426 73.6971 59.3262 75.3084 58.7402C76.8709 58.2031 77.7498 56.4941 77.1151 54.8828L72.6717 42.6758C73.3553 42.041 74.283 41.3574 75.2108 41.1133C77.4569 40.2344 79.41 41.2109 80.2889 43.6523L84.1463 54.2969C84.7811 56.0059 86.5877 56.5918 88.1502 56.0547C89.7127 55.5176 90.6404 53.9062 90.0057 52.1973L86.8319 43.5059C87.4666 42.8711 88.4432 42.2363 89.3221 41.8945C91.6658 41.0645 93.5701 42.041 94.449 44.4824L97.0369 51.6602C97.6717 53.3203 99.4783 53.9551 101.041 53.3691C102.555 52.832 103.482 51.1719 102.896 49.5117L100.992 44.2383C105.045 42.7246 108.853 46.0938 111.539 53.418L114.566 61.7676C121.305 80.2246 115.25 94.2383 98.9901 100.195Z" fill="#000000" fill-opacity="0.85"/>
 </g>
</svg>
