<?xml version="1.0" encoding="UTF-8"?>
<!--Generator: Apple Native CoreSVG 232.5-->
<!DOCTYPE svg
PUBLIC "-//W3C//DTD SVG 1.1//EN"
       "http://www.w3.org/Graphics/SVG/1.1/DTD/svg11.dtd">
<svg version="1.1" xmlns="http://www.w3.org/2000/svg" xmlns:xlink="http://www.w3.org/1999/xlink" width="117.468" height="117.212">
 <g>
  <rect height="117.212" opacity="0" width="117.468" x="0" y="0"/>
  <path d="M10.6511 23.8455C9.56863 25.1208 9.00272 26.9258 9.00272 29.236L9.00272 88.025C9.00272 93.1031 11.7371 95.691 16.6199 95.691L82.5681 95.691L90.4372 103.552L16.4734 103.552C6.31717 103.552 1.14139 98.5231 1.14139 88.4645L1.14139 28.7965C1.14139 24.012 2.31244 20.3544 4.64768 17.8481ZM116.327 28.7965L116.327 88.4645C116.327 93.1809 115.2 96.7916 112.935 99.2818L106.918 93.2642C107.929 92.0037 108.466 90.2543 108.466 88.025L108.466 29.236C108.466 24.1578 105.682 21.5211 100.848 21.5211L35.1746 21.5211L27.3133 13.6598L100.995 13.6598C111.2 13.6598 116.327 18.7379 116.327 28.7965Z" fill="#000000" fill-opacity="0.85"/>
  <path d="M105.389 110.388C106.854 111.853 109.247 111.902 110.712 110.388C112.128 108.923 112.177 106.531 110.712 105.066L12.4695 6.92151C11.0047 5.45666 8.61209 5.40783 7.09842 6.92151C5.6824 8.33752 5.6824 10.7789 7.09842 12.2438Z" fill="#000000" fill-opacity="0.85"/>
 </g>
</svg>
