<?xml version="1.0" encoding="UTF-8"?>
<!--Generator: Apple Native CoreSVG 232.5-->
<!DOCTYPE svg
PUBLIC "-//W3C//DTD SVG 1.1//EN"
       "http://www.w3.org/Graphics/SVG/1.1/DTD/svg11.dtd">
<svg version="1.1" xmlns="http://www.w3.org/2000/svg" xmlns:xlink="http://www.w3.org/1999/xlink" width="131.091" height="126.782">
 <g>
  <rect height="126.782" opacity="0" width="131.091" x="0" y="0"/>
  <path d="M14.6325 23.7295C13.3447 25.0228 12.6648 26.9479 12.6648 29.4801L12.6648 74.6949C12.6648 79.7731 15.3992 82.361 20.282 82.361L28.9246 82.361L28.9246 90.2223L20.1355 90.2223C9.93045 90.2223 4.8035 85.193 4.8035 75.0856L4.8035 29.0406C4.8035 24.0252 6.07818 20.2481 8.62276 17.7225ZM102.167 29.0406L102.167 36.5113L94.3055 36.5113L94.3055 29.4801C94.3055 24.402 91.5222 21.7653 86.7371 21.7653L39.5117 21.7653L31.654 13.9039L86.8347 13.9039C97.0398 13.9039 102.167 18.9821 102.167 29.0406Z" fill="#000000" fill-opacity="0.85"/>
  <path d="M38.0806 47.167C37.2278 48.3994 36.7859 50.0462 36.7859 52.0875L36.7859 97.3024C36.7859 102.38 39.5203 104.968 44.4031 104.968L95.9082 104.968L103.773 112.83L44.2566 112.83C34.0515 112.83 28.9246 107.8 28.9246 97.693L28.9246 51.6481C28.9246 47.1285 29.9597 43.6144 32.0346 41.1238ZM126.288 51.6481L126.288 97.693C126.288 101.305 125.627 104.275 124.295 106.587L118.017 100.306C118.29 99.4327 118.427 98.4288 118.427 97.3024L118.427 52.0875C118.427 47.0094 115.643 44.3727 110.858 44.3727L62.1089 44.3727L54.2511 36.5113L110.956 36.5113C121.161 36.5113 126.288 41.5895 126.288 51.6481Z" fill="#000000" fill-opacity="0.85"/>
  <path d="M118.964 120.007C120.477 121.472 122.87 121.472 124.286 120.007C125.751 118.494 125.751 116.15 124.286 114.685L16.5711 6.87268C15.1062 5.45666 12.7137 5.40783 11.2 6.87268C9.78397 8.33752 9.78397 10.7789 11.2 12.1949Z" fill="#000000" fill-opacity="0.85"/>
 </g>
</svg>
