<?xml version="1.0" encoding="UTF-8"?>
<!--Generator: Apple Native CoreSVG 232.5-->
<!DOCTYPE svg
PUBLIC "-//W3C//DTD SVG 1.1//EN"
       "http://www.w3.org/Graphics/SVG/1.1/DTD/svg11.dtd">
<svg version="1.1" xmlns="http://www.w3.org/2000/svg" xmlns:xlink="http://www.w3.org/1999/xlink" width="89.8926" height="89.9902">
 <g>
  <rect height="89.9902" opacity="0" width="89.8926" x="0" y="0"/>
  <path d="M89.8926 15.2344L89.8926 74.8535C89.8926 84.9121 84.8145 89.9902 74.5605 89.9902L15.332 89.9902C5.12695 89.9902 0 84.9609 0 74.8535L0 15.2344C0 5.12695 5.12695 0.0976562 15.332 0.0976562L74.5605 0.0976562C84.8145 0.0976562 89.8926 5.17578 89.8926 15.2344ZM33.5938 31.1523C28.9551 31.1523 26.6602 33.4961 26.6602 37.9883L26.6602 61.5234C26.6602 66.1133 28.9551 68.4082 33.5938 68.4082L67.2363 68.4082C71.875 68.4082 74.1699 66.1133 74.1699 61.5234L74.1699 37.9883C74.1699 33.4961 71.875 31.1523 67.2363 31.1523ZM22.5098 20.7031C17.8711 20.7031 15.625 22.998 15.625 27.4902L15.625 51.0742C15.625 55.7129 17.8711 57.959 22.5098 57.959L23.4375 57.959L23.4375 37.9883C23.4375 31.6895 27.1484 27.9297 33.5938 27.9297L63.0859 27.9297L63.0859 27.4902C63.0859 22.998 60.791 20.7031 56.2012 20.7031Z" fill="#000000" fill-opacity="0.85"/>
 </g>
</svg>
