<?xml version="1.0" encoding="UTF-8"?>
<!--Generator: Apple Native CoreSVG 232.5-->
<!DOCTYPE svg
PUBLIC "-//W3C//DTD SVG 1.1//EN"
       "http://www.w3.org/Graphics/SVG/1.1/DTD/svg11.dtd">
<svg version="1.1" xmlns="http://www.w3.org/2000/svg" xmlns:xlink="http://www.w3.org/1999/xlink" width="58.7402" height="89.9902">
 <g>
  <rect height="89.9902" opacity="0" width="58.7402" x="0" y="0"/>
  <path d="M15.332 89.9902L43.4082 89.9902C53.6621 89.9902 58.7402 84.9121 58.7402 74.8535L58.7402 15.2344C58.7402 5.17578 53.6621 0.0976562 43.4082 0.0976562L15.332 0.0976562C5.12695 0.0976562 0 5.12695 0 15.2344L0 74.8535C0 84.9609 5.12695 89.9902 15.332 89.9902ZM15.4297 82.1289C10.5469 82.1289 7.86133 79.541 7.86133 74.4629L7.86133 15.625C7.86133 10.5469 10.5469 7.95898 15.4297 7.95898L43.3105 7.95898C48.0957 7.95898 50.8789 10.5469 50.8789 15.625L50.8789 74.4629C50.8789 79.541 48.0957 82.1289 43.3105 82.1289Z" fill="#000000" fill-opacity="0.85"/>
 </g>
</svg>
