<?xml version="1.0" encoding="UTF-8"?>
<!--Generator: Apple Native CoreSVG 232.5-->
<!DOCTYPE svg
PUBLIC "-//W3C//DTD SVG 1.1//EN"
       "http://www.w3.org/Graphics/SVG/1.1/DTD/svg11.dtd">
<svg version="1.1" xmlns="http://www.w3.org/2000/svg" xmlns:xlink="http://www.w3.org/1999/xlink" width="132.227" height="104.736">
 <g>
  <rect height="104.736" opacity="0" width="132.227" x="0" y="0"/>
  <path d="M91.5527 15.332L91.5527 39.0137L83.6914 39.0137L83.6914 15.4785C83.6914 10.5957 81.1035 7.86133 76.0254 7.86133L25 7.86133C19.9219 7.86133 17.2852 10.5957 17.2852 15.4785L17.2852 89.2578C17.2852 94.1406 19.9219 96.8262 25 96.8262L76.0254 96.8262C81.1035 96.8262 83.6914 94.1406 83.6914 89.2578L83.6914 65.6738L91.5527 65.6738L91.5527 89.4043C91.5527 99.6094 86.5234 104.688 76.416 104.688L24.5605 104.688C14.502 104.688 9.42383 99.6094 9.42383 89.4043L9.42383 15.332C9.42383 5.17578 14.502 0 24.5605 0L76.416 0C86.5234 0 91.5527 5.17578 91.5527 15.332Z" fill="#000000" fill-opacity="0.85"/>
  <path d="M54.6387 56.2012L104.785 56.2012L112.061 55.9082L108.643 59.2285L100.732 66.6016C99.9512 67.2852 99.5605 68.3105 99.5605 69.2383C99.5605 71.2891 101.025 72.8027 102.979 72.8027C104.053 72.8027 104.834 72.4121 105.566 71.6797L121.484 55.1758C122.461 54.1992 122.803 53.3203 122.803 52.3438C122.803 51.3184 122.461 50.4883 121.484 49.5117L105.566 33.0078C104.834 32.2754 104.053 31.8359 102.979 31.8359C101.025 31.8359 99.5605 33.3008 99.5605 35.3516C99.5605 36.3281 99.9512 37.3535 100.732 38.0371L108.643 45.459L112.109 48.7793L104.785 48.4375L54.6387 48.4375C52.5879 48.4375 50.8301 50.2441 50.8301 52.3438C50.8301 54.4434 52.5879 56.2012 54.6387 56.2012Z" fill="#000000" fill-opacity="0.85"/>
 </g>
</svg>
