<?xml version="1.0" encoding="UTF-8"?>
<!--Generator: Apple Native CoreSVG 232.5-->
<!DOCTYPE svg
PUBLIC "-//W3C//DTD SVG 1.1//EN"
       "http://www.w3.org/Graphics/SVG/1.1/DTD/svg11.dtd">
<svg version="1.1" xmlns="http://www.w3.org/2000/svg" xmlns:xlink="http://www.w3.org/1999/xlink" width="82.1289" height="104.736">
 <g>
  <rect height="104.736" opacity="0" width="82.1289" x="0" y="0"/>
  <path d="M0 89.4043C0 99.6094 5.0293 104.688 15.1367 104.688L66.9922 104.688C77.0996 104.688 82.1289 99.6094 82.1289 89.4043L82.1289 15.332C82.1289 5.17578 77.0996 0 66.9922 0L15.1367 0C5.0293 0 0 5.17578 0 15.332ZM7.86133 89.2578L7.86133 15.4785C7.86133 10.5957 10.4492 7.86133 15.5273 7.86133L66.6016 7.86133C71.6797 7.86133 74.2676 10.5957 74.2676 15.4785L74.2676 89.2578C74.2676 94.1406 71.6797 96.8262 66.6016 96.8262L15.5273 96.8262C10.4492 96.8262 7.86133 94.1406 7.86133 89.2578Z" fill="#000000" fill-opacity="0.85"/>
  <path d="M45.459 90.1855L63.2324 90.1855C66.3574 90.1855 67.5781 88.9648 67.5781 85.8887L67.5781 18.8477C67.5781 15.7715 66.3574 14.5508 63.2324 14.5508L45.459 14.5508C42.334 14.5508 41.0645 15.7715 41.0645 18.8477L41.0645 85.8887C41.0645 88.9648 42.334 90.1855 45.459 90.1855Z" fill="#000000" fill-opacity="0.85"/>
 </g>
</svg>
