<?xml version="1.0" encoding="UTF-8"?>
<!--Generator: Apple Native CoreSVG 232.5-->
<!DOCTYPE svg
PUBLIC "-//W3C//DTD SVG 1.1//EN"
       "http://www.w3.org/Graphics/SVG/1.1/DTD/svg11.dtd">
<svg version="1.1" xmlns="http://www.w3.org/2000/svg" xmlns:xlink="http://www.w3.org/1999/xlink" width="137.145" height="118.671">
 <g>
  <rect height="118.671" opacity="0" width="137.145" x="0" y="0"/>
  <path d="M104.705 17.7094L104.705 39.3993C99.7166 37.186 94.3615 38.4358 91.3265 40.6586C86.9808 37.5336 81.6585 37.7289 77.8499 39.3402L72.0394 23.5688C69.5492 16.684 62.7132 13.4613 56.3167 15.8051C49.6761 18.2465 46.6976 25.0824 49.1878 31.8695L60.3695 62.5336L59.0023 61.2152C56.0726 59.6039 52.8499 59.5063 49.7738 60.6781C43.4749 63.0219 40.2034 69.5649 42.4495 75.766C43.0355 77.3774 43.9144 78.891 44.9398 80.1606L46.153 81.6742L25.2132 81.6742C15.3011 81.6742 10.3695 76.8402 10.3695 67.0258L10.3695 17.7094C10.3695 7.84611 15.3011 3.06095 25.2132 3.06095L89.9105 3.06095C99.8226 3.06095 104.705 7.84611 104.705 17.7094Z" fill="#000000" fill-opacity="0.85"/>
  <path d="M108.612 109.702C128.534 102.475 135.125 85.9711 127.41 64.6332L124.188 55.7953C121.258 47.7387 115.594 44.1742 111.2 45.7856C110.223 46.1762 109.881 46.8598 110.223 47.7875L111.639 51.7426C112.274 53.5492 111.688 54.8676 110.614 55.2582C109.393 55.6977 108.075 55.1117 107.44 53.2563L106.512 50.6684C104.754 45.932 100.653 43.9301 96.5023 45.4438C94.6468 46.1274 94.0609 47.2016 94.6468 48.8129L96.5999 54.0863C97.2835 55.9418 96.6488 57.1625 95.5745 57.5531C94.4027 57.9926 93.0843 57.4555 92.4495 55.6488L90.6917 50.6684C88.7874 45.3461 84.6859 44.0277 80.682 45.4438C78.973 46.0785 78.3382 47.2504 78.8753 48.7641L82.6351 59.1645C83.3187 61.0199 82.6839 62.2895 81.6585 62.6801C80.4378 63.1195 79.1683 62.5336 78.4847 60.6781L65.8382 25.8637C64.5687 22.4457 61.5413 21.0785 58.7093 22.1039C55.5843 23.2758 54.2659 26.2055 55.4867 29.6234L74.0902 80.6C74.5296 81.8695 73.9437 82.8461 73.1624 83.0902C72.3812 83.3344 71.5999 83.1391 70.5745 82.0649L58.0257 68.6371C56.1702 66.6352 54.2659 66.1469 52.2152 66.9281C49.0902 68.1 47.8206 70.932 48.7972 73.5688C49.139 74.5942 49.6761 75.3754 50.2132 76.059L65.7406 95.4438C78.8265 111.85 93.9144 115.024 108.612 109.702Z" fill="#000000" fill-opacity="0.85"/>
 </g>
</svg>
