<?xml version="1.0" encoding="UTF-8"?>
<!--Generator: Apple Native CoreSVG 232.5-->
<!DOCTYPE svg
PUBLIC "-//W3C//DTD SVG 1.1//EN"
       "http://www.w3.org/Graphics/SVG/1.1/DTD/svg11.dtd">
<svg version="1.1" xmlns="http://www.w3.org/2000/svg" xmlns:xlink="http://www.w3.org/1999/xlink" width="75.9766" height="107.471">
 <g>
  <rect height="107.471" opacity="0" width="75.9766" x="0" y="0"/>
  <path d="M4.88281 49.0723L12.2559 49.0723L12.2559 13.4766C12.2559 9.52148 14.502 7.12891 18.8477 7.12891L57.0801 7.12891C61.4258 7.12891 63.7207 9.52148 63.7207 13.4766L63.7207 17.2852L71.0938 17.2852L71.0938 12.4512C71.0938 5.12695 66.0156 0 58.0566 0L17.8711 0C9.91211 0 4.83398 5.12695 4.83398 12.4512ZM17.9199 105.371L58.1055 105.371C66.0645 105.371 71.1426 100.195 71.1426 92.8711L71.1426 56.25L63.7695 56.25L63.7695 91.8457C63.7695 95.8496 61.4746 98.2422 57.1289 98.2422L18.8965 98.2422C14.5508 98.2422 12.2559 95.8496 12.2559 91.8457L12.2559 88.0371L4.88281 88.0371L4.88281 92.8711C4.88281 100.195 9.96094 105.371 17.9199 105.371Z" fill="#000000" fill-opacity="0.85"/>
  <path d="M51.8066 23.291C49.8047 23.291 48.7305 24.8535 48.7305 26.416C48.7305 27.9785 49.8535 29.5898 51.9531 29.5898L59.5703 29.5898L65.3809 29.248L59.7656 34.5215L52.1484 42.0898C51.416 42.8711 51.0742 43.7012 51.0742 44.4824C51.0742 46.4355 52.8809 48.1934 54.834 48.1934C55.6152 48.1934 56.4453 47.9004 57.1777 47.168L64.7461 39.5508L69.9707 33.9355L69.6777 39.6973L69.6777 47.5098C69.6777 49.6582 71.2891 50.7324 72.8516 50.7324C74.4141 50.7324 75.9766 49.707 75.9766 47.6562L75.9766 27.3438C75.9766 24.707 74.5117 23.291 71.9238 23.291ZM4.05273 82.0801L24.1699 82.0801C26.2207 82.0801 27.2461 80.4688 27.2461 78.9062C27.2461 77.2949 26.1719 75.7324 24.0234 75.7324L16.4062 75.7324L10.5957 76.0742L16.2109 70.8008L23.8281 63.2324C24.5605 62.5 24.9023 61.6699 24.9023 60.8398C24.9023 58.8867 23.0957 57.1777 21.1426 57.1777C20.3613 57.1777 19.5312 57.4219 18.7988 58.1543L11.2305 65.8203L6.00586 71.3867L6.29883 65.625L6.29883 57.8125C6.29883 55.6641 4.6875 54.5898 3.125 54.5898C1.5625 54.5898 0 55.6152 0 57.666L0 77.9785C0 80.6152 1.46484 82.0801 4.05273 82.0801Z" fill="#000000" fill-opacity="0.85"/>
 </g>
</svg>
