<?xml version="1.0" encoding="UTF-8"?>
<!--Generator: Apple Native CoreSVG 232.5-->
<!DOCTYPE svg
PUBLIC "-//W3C//DTD SVG 1.1//EN"
       "http://www.w3.org/Graphics/SVG/1.1/DTD/svg11.dtd">
<svg version="1.1" xmlns="http://www.w3.org/2000/svg" xmlns:xlink="http://www.w3.org/1999/xlink" width="115.137" height="89.8926">
 <g>
  <rect height="89.8926" opacity="0" width="115.137" x="0" y="0"/>
  <path d="M15.332 89.8926L99.8047 89.8926C110.059 89.8926 115.137 84.8633 115.137 74.8047L115.137 15.1367C115.137 5.07812 110.059 0 99.8047 0L15.332 0C5.12695 0 0 5.07812 0 15.1367L0 74.8047C0 84.8633 5.12695 89.8926 15.332 89.8926ZM15.4297 82.0312C10.5469 82.0312 7.86133 79.4434 7.86133 74.3652L7.86133 15.5762C7.86133 10.498 10.5469 7.86133 15.4297 7.86133L99.707 7.86133C104.541 7.86133 107.275 10.498 107.275 15.5762L107.275 74.3652C107.275 79.4434 104.541 82.0312 99.707 82.0312Z" fill="#000000" fill-opacity="0.85"/>
  <path d="M61.7676 75.3906L96.3379 75.3906C99.4141 75.3906 100.635 74.1211 100.635 70.9961L100.635 18.9453C100.635 15.8203 99.4141 14.5508 96.3379 14.5508L61.7676 14.5508C58.6914 14.5508 57.4707 15.8203 57.4707 18.9453L57.4707 70.9961C57.4707 74.1211 58.6914 75.3906 61.7676 75.3906ZM16.6504 44.9219C16.6992 46.6797 18.1152 48.2422 19.8242 48.2422L33.4961 48.2422L40.7227 47.9492L36.6699 51.8066L31.3965 57.0312C30.7617 57.6172 30.4688 58.4961 30.4688 59.3262C30.4688 61.084 31.6895 62.3535 33.3496 62.3535C34.3262 62.3535 35.0586 61.9629 35.6934 61.1816L48.6816 47.3145C49.5117 46.4355 49.7559 45.8008 49.7559 44.9219C49.7559 44.0918 49.5117 43.4082 48.6816 42.5293L35.6934 28.6621C35.0586 27.9297 34.3262 27.5391 33.3496 27.5391C31.6895 27.5391 30.4688 28.8086 30.4688 30.5664C30.4688 31.3965 30.7617 32.2754 31.3965 32.8613L36.6699 38.0371L40.7227 41.8945L33.4961 41.6504L19.8242 41.6504C18.1152 41.6504 16.6016 43.1641 16.6504 44.9219Z" fill="#000000" fill-opacity="0.85"/>
 </g>
</svg>
