<?xml version="1.0" encoding="UTF-8"?>
<!--Generator: Apple Native CoreSVG 232.5-->
<!DOCTYPE svg
PUBLIC "-//W3C//DTD SVG 1.1//EN"
       "http://www.w3.org/Graphics/SVG/1.1/DTD/svg11.dtd">
<svg version="1.1" xmlns="http://www.w3.org/2000/svg" xmlns:xlink="http://www.w3.org/1999/xlink" width="105.225" height="89.9902">
 <g>
  <rect height="89.9902" opacity="0" width="105.225" x="0" y="0"/>
  <path d="M84.9121 89.9902L95.8984 89.9902C102.1 89.9902 105.225 86.9141 105.225 80.4688L105.225 58.5938C105.225 52.1973 102.1 49.0723 95.8984 49.0723L84.9121 49.0723C78.6621 49.0723 75.5371 52.1973 75.5371 58.5938L75.5371 80.4688C75.5371 86.9141 78.6621 89.9902 84.9121 89.9902ZM84.9609 83.1055C83.252 83.1055 82.4219 82.2266 82.4219 80.4688L82.4219 58.6426C82.4219 56.8359 83.252 55.957 84.9609 55.957L95.8008 55.957C97.5098 55.957 98.3398 56.8359 98.3398 58.6426L98.3398 80.4688C98.3398 82.2266 97.5098 83.1055 95.8008 83.1055Z" fill="#000000" fill-opacity="0.85"/>
  <path d="M47.1191 89.9902L58.1543 89.9902C64.3555 89.9902 67.4805 86.9141 67.4805 80.4688L67.4805 58.5938C67.4805 52.1973 64.3555 49.0723 58.1543 49.0723L47.1191 49.0723C40.918 49.0723 37.793 52.1973 37.793 58.5938L37.793 80.4688C37.793 86.9141 40.918 89.9902 47.1191 89.9902ZM47.2168 83.1055C45.5078 83.1055 44.6777 82.2266 44.6777 80.4688L44.6777 58.6426C44.6777 56.8359 45.5078 55.957 47.2168 55.957L58.0566 55.957C59.7656 55.957 60.5957 56.8359 60.5957 58.6426L60.5957 80.4688C60.5957 82.2266 59.7656 83.1055 58.0566 83.1055Z" fill="#000000" fill-opacity="0.85"/>
  <path d="M9.32617 89.9902L20.3613 89.9902C26.5625 89.9902 29.6875 86.9141 29.6875 80.4688L29.6875 58.5938C29.6875 52.1973 26.5625 49.0723 20.3613 49.0723L9.32617 49.0723C3.125 49.0723 0 52.1973 0 58.5938L0 80.4688C0 86.9141 3.125 89.9902 9.32617 89.9902ZM9.42383 83.1055C7.71484 83.1055 6.88477 82.2266 6.88477 80.4688L6.88477 58.6426C6.88477 56.8359 7.71484 55.957 9.42383 55.957L20.2148 55.957C21.9238 55.957 22.8027 56.8359 22.8027 58.6426L22.8027 80.4688C22.8027 82.2266 21.9238 83.1055 20.2148 83.1055Z" fill="#000000" fill-opacity="0.85"/>
  <path d="M84.9121 41.0156L95.8984 41.0156C102.1 41.0156 105.225 37.8906 105.225 31.4453L105.225 9.61914C105.225 3.17383 102.1 0.0976562 95.8984 0.0976562L84.9121 0.0976562C78.6621 0.0976562 75.5371 3.17383 75.5371 9.61914L75.5371 31.4453C75.5371 37.8906 78.6621 41.0156 84.9121 41.0156ZM84.9609 34.1309C83.252 34.1309 82.4219 33.252 82.4219 31.4453L82.4219 9.61914C82.4219 7.86133 83.252 6.98242 84.9609 6.98242L95.8008 6.98242C97.5098 6.98242 98.3398 7.86133 98.3398 9.61914L98.3398 31.4453C98.3398 33.252 97.5098 34.1309 95.8008 34.1309Z" fill="#000000" fill-opacity="0.85"/>
  <path d="M47.1191 41.0156L58.1543 41.0156C64.3555 41.0156 67.4805 37.8906 67.4805 31.4453L67.4805 9.61914C67.4805 3.17383 64.3555 0.0976562 58.1543 0.0976562L47.1191 0.0976562C40.918 0.0976562 37.793 3.17383 37.793 9.61914L37.793 31.4453C37.793 37.8906 40.918 41.0156 47.1191 41.0156ZM47.2168 34.1309C45.5078 34.1309 44.6777 33.252 44.6777 31.4453L44.6777 9.61914C44.6777 7.86133 45.5078 6.98242 47.2168 6.98242L58.0566 6.98242C59.7656 6.98242 60.5957 7.86133 60.5957 9.61914L60.5957 31.4453C60.5957 33.252 59.7656 34.1309 58.0566 34.1309Z" fill="#000000" fill-opacity="0.85"/>
  <path d="M9.32617 41.0156L20.3613 41.0156C26.5625 41.0156 29.6875 37.8906 29.6875 31.4453L29.6875 9.61914C29.6875 3.17383 26.5625 0.0976562 20.3613 0.0976562L9.32617 0.0976562C3.125 0.0976562 0 3.17383 0 9.61914L0 31.4453C0 37.8906 3.125 41.0156 9.32617 41.0156ZM9.42383 34.1309C7.71484 34.1309 6.88477 33.252 6.88477 31.4453L6.88477 9.61914C6.88477 7.86133 7.71484 6.98242 9.42383 6.98242L20.2148 6.98242C21.9238 6.98242 22.8027 7.86133 22.8027 9.61914L22.8027 31.4453C22.8027 33.252 21.9238 34.1309 20.2148 34.1309Z" fill="#000000" fill-opacity="0.85"/>
 </g>
</svg>
