<?xml version="1.0" encoding="UTF-8"?>
<!--Generator: Apple Native CoreSVG 232.5-->
<!DOCTYPE svg
PUBLIC "-//W3C//DTD SVG 1.1//EN"
       "http://www.w3.org/Graphics/SVG/1.1/DTD/svg11.dtd">
<svg version="1.1" xmlns="http://www.w3.org/2000/svg" xmlns:xlink="http://www.w3.org/1999/xlink" width="98.9258" height="121.533">
 <g>
  <rect height="121.533" opacity="0" width="98.9258" x="0" y="0"/>
  <path d="M76.3184 15.332L76.3184 24.1211L68.457 24.1211L68.457 15.4785C68.457 10.5957 65.8691 7.86133 60.791 7.86133L15.5273 7.86133C10.4492 7.86133 7.86133 10.5957 7.86133 15.4785L7.86133 81.9336C7.86133 86.7188 10.4492 89.502 15.5273 89.502L22.6074 89.502L22.6074 97.3633L15.1367 97.3633C5.07812 97.3633 0 92.2363 0 82.0312L0 15.332C0 5.12695 5.0293 0 15.1367 0L61.1816 0C71.2891 0 76.3184 5.12695 76.3184 15.332Z" fill="#000000" fill-opacity="0.85"/>
  <path d="M98.9258 39.4531C98.9258 29.248 93.8965 24.1211 83.7891 24.1211L37.7441 24.1211C27.6367 24.1211 22.6074 29.248 22.6074 39.4531L22.6074 106.152C22.6074 116.357 27.6855 121.484 37.7441 121.484L83.7891 121.484C93.8477 121.484 98.9258 116.357 98.9258 106.152ZM91.0645 39.5996L91.0645 106.055C91.0645 110.84 88.4766 113.623 83.3984 113.623L38.1348 113.623C33.0566 113.623 30.4688 110.84 30.4688 106.055L30.4688 39.5996C30.4688 34.7168 33.0566 31.9824 38.1348 31.9824L83.3984 31.9824C88.4766 31.9824 91.0645 34.7168 91.0645 39.5996Z" fill="#000000" fill-opacity="0.85"/>
 </g>
</svg>
