<?xml version="1.0" encoding="UTF-8"?>
<!--Generator: Apple Native CoreSVG 232.5-->
<!DOCTYPE svg
PUBLIC "-//W3C//DTD SVG 1.1//EN"
       "http://www.w3.org/Graphics/SVG/1.1/DTD/svg11.dtd">
<svg version="1.1" xmlns="http://www.w3.org/2000/svg" xmlns:xlink="http://www.w3.org/1999/xlink" width="117.468" height="117.212">
 <g>
  <rect height="117.212" opacity="0" width="117.468" x="0" y="0"/>
  <path d="M90.4372 103.552L16.4734 103.552C6.31717 103.552 1.14139 98.5231 1.14139 88.4645L1.14139 28.7965C1.14139 24.012 2.31244 20.3544 4.64768 17.8481ZM116.327 28.7965L116.327 88.4645C116.327 93.1809 115.2 96.7916 112.935 99.2818L27.3133 13.6598L100.995 13.6598C111.2 13.6598 116.327 18.7379 116.327 28.7965Z" fill="#000000" fill-opacity="0.85"/>
  <path d="M105.389 110.388C106.854 111.853 109.247 111.902 110.712 110.388C112.128 108.923 112.177 106.531 110.712 105.066L12.4695 6.92151C11.0047 5.45666 8.61209 5.40783 7.09842 6.92151C5.6824 8.33752 5.6824 10.7789 7.09842 12.2438Z" fill="#000000" fill-opacity="0.85"/>
 </g>
</svg>
