<?xml version="1.0" encoding="UTF-8"?>
<!--Generator: Apple Native CoreSVG 232.5-->
<!DOCTYPE svg
PUBLIC "-//W3C//DTD SVG 1.1//EN"
       "http://www.w3.org/Graphics/SVG/1.1/DTD/svg11.dtd">
<svg version="1.1" xmlns="http://www.w3.org/2000/svg" xmlns:xlink="http://www.w3.org/1999/xlink" width="137.5" height="89.0137">
 <g>
  <rect height="89.0137" opacity="0" width="137.5" x="0" y="0"/>
  <path d="M11.2305 42.4805L56.1523 42.4805C63.623 42.4805 67.3828 38.8672 67.3828 31.3477L67.3828 11.084C67.3828 3.61328 63.623 0 56.1523 0L11.2305 0C3.75977 0 0 3.61328 0 11.084L0 31.3477C0 38.8672 3.75977 42.4805 11.2305 42.4805ZM11.8164 35.1074C8.93555 35.1074 7.37305 33.5938 7.37305 30.5664L7.37305 11.9141C7.37305 8.83789 8.93555 7.37305 11.8164 7.37305L55.5664 7.37305C58.4473 7.37305 60.0098 8.83789 60.0098 11.9141L60.0098 30.5664C60.0098 33.5938 58.4473 35.1074 55.5664 35.1074ZM23.6816 88.7695L62.207 88.7695C69.6777 88.7695 73.4375 85.1074 73.4375 77.6367L73.4375 63.8672C73.4375 56.3965 69.6777 52.7832 62.207 52.7832L23.6816 52.7832C16.2109 52.7832 12.4512 56.3965 12.4512 63.8672L12.4512 77.6367C12.4512 85.1074 16.2109 88.7695 23.6816 88.7695ZM24.2676 81.3965C21.3867 81.3965 19.8242 79.8828 19.8242 76.8555L19.8242 64.6484C19.8242 61.6211 21.3867 60.1562 24.2676 60.1562L61.5723 60.1562C64.502 60.1562 66.0645 61.6211 66.0645 64.6484L66.0645 76.8555C66.0645 79.8828 64.502 81.3965 61.5723 81.3965ZM94.3848 83.0566L126.27 83.0566C133.74 83.0566 137.5 79.4434 137.5 71.9238L137.5 17.6758C137.5 10.2051 133.74 6.5918 126.27 6.5918L94.3848 6.5918C86.9141 6.5918 83.1543 10.2051 83.1543 17.6758L83.1543 71.9238C83.1543 79.4434 86.9141 83.0566 94.3848 83.0566ZM94.9219 75.6836C92.0898 75.6836 90.5273 74.1699 90.5273 71.1426L90.5273 18.5059C90.5273 15.4297 92.0898 13.9648 94.9219 13.9648L125.635 13.9648C128.564 13.9648 130.127 15.4297 130.127 18.5059L130.127 71.1426C130.127 74.1699 128.564 75.6836 125.635 75.6836Z" fill="#000000" fill-opacity="0.85"/>
 </g>
</svg>
