<?xml version="1.0" encoding="UTF-8"?>
<!--Generator: Apple Native CoreSVG 232.5-->
<!DOCTYPE svg
PUBLIC "-//W3C//DTD SVG 1.1//EN"
       "http://www.w3.org/Graphics/SVG/1.1/DTD/svg11.dtd">
<svg version="1.1" xmlns="http://www.w3.org/2000/svg" xmlns:xlink="http://www.w3.org/1999/xlink" width="108.594" height="89.9902">
 <g>
  <rect height="89.9902" opacity="0" width="108.594" x="0" y="0"/>
  <path d="M67.6758 89.9902L99.2676 89.9902C105.469 89.9902 108.594 86.9141 108.594 80.4688L108.594 58.5938C108.594 52.1973 105.469 49.0723 99.2676 49.0723L67.6758 49.0723C61.4746 49.0723 58.3496 52.1973 58.3496 58.5938L58.3496 80.4688C58.3496 86.9141 61.4746 89.9902 67.6758 89.9902Z" fill="#000000" fill-opacity="0.85"/>
  <path d="M9.32617 89.9902L40.918 89.9902C47.1191 89.9902 50.2441 86.9141 50.2441 80.4688L50.2441 58.5938C50.2441 52.1973 47.1191 49.0723 40.918 49.0723L9.32617 49.0723C3.125 49.0723 0 52.1973 0 58.5938L0 80.4688C0 86.9141 3.125 89.9902 9.32617 89.9902Z" fill="#000000" fill-opacity="0.85"/>
  <path d="M67.6758 41.0156L99.2676 41.0156C105.469 41.0156 108.594 37.8906 108.594 31.4453L108.594 9.61914C108.594 3.17383 105.469 0.0976562 99.2676 0.0976562L67.6758 0.0976562C61.4746 0.0976562 58.3496 3.17383 58.3496 9.61914L58.3496 31.4453C58.3496 37.8906 61.4746 41.0156 67.6758 41.0156Z" fill="#000000" fill-opacity="0.85"/>
  <path d="M9.32617 41.0156L40.918 41.0156C47.1191 41.0156 50.2441 37.8906 50.2441 31.4453L50.2441 9.61914C50.2441 3.17383 47.1191 0.0976562 40.918 0.0976562L9.32617 0.0976562C3.125 0.0976562 0 3.17383 0 9.61914L0 31.4453C0 37.8906 3.125 41.0156 9.32617 41.0156Z" fill="#000000" fill-opacity="0.85"/>
 </g>
</svg>
