<?xml version="1.0" encoding="UTF-8"?>
<!--Generator: Apple Native CoreSVG 232.5-->
<!DOCTYPE svg
PUBLIC "-//W3C//DTD SVG 1.1//EN"
       "http://www.w3.org/Graphics/SVG/1.1/DTD/svg11.dtd">
<svg version="1.1" xmlns="http://www.w3.org/2000/svg" xmlns:xlink="http://www.w3.org/1999/xlink" width="114.307" height="104.736">
 <g>
  <rect height="104.736" opacity="0" width="114.307" x="0" y="0"/>
  <path d="M15.1367 104.736L66.9922 104.736C77.0996 104.736 82.1289 99.6094 82.1289 89.4043L82.1289 57.1777L46.0449 57.1777C43.457 57.1777 41.2598 54.9805 41.2598 52.3438C41.2598 49.707 43.457 47.4609 46.0449 47.4609L82.1289 47.4609L82.1289 15.332C82.1289 5.17578 77.0996 0.0488281 66.9922 0.0488281L15.1367 0.0488281C5.0293 0.0488281 0 5.17578 0 15.332L0 89.4043C0 99.6094 5.0293 104.736 15.1367 104.736Z" fill="#000000" fill-opacity="0.85"/>
  <path d="M78.3203 52.3438C78.3203 54.4434 80.0293 56.2012 82.0801 56.2012L96.2891 56.2012L103.613 55.9082L100.146 59.2285L92.2852 66.6016C91.5039 67.2852 91.1133 68.3105 91.1133 69.2383C91.1133 71.2891 92.5293 72.8027 94.5312 72.8027C95.5566 72.8027 96.3379 72.4121 97.1191 71.6797L113.037 55.1758C114.014 54.1992 114.307 53.3203 114.307 52.3438C114.307 51.3184 114.014 50.4883 113.037 49.5117L97.1191 33.0078C96.3379 32.2754 95.5566 31.8359 94.5312 31.8359C92.5293 31.8359 91.1133 33.3008 91.1133 35.3516C91.1133 36.3281 91.5039 37.3535 92.2852 38.0371L100.146 45.459L103.613 48.7793L96.2891 48.4375L82.0801 48.4375C80.0293 48.4375 78.3203 50.2441 78.3203 52.3438Z" fill="#000000" fill-opacity="0.85"/>
 </g>
</svg>
