<?xml version="1.0" encoding="UTF-8"?>
<!--Generator: Apple Native CoreSVG 232.5-->
<!DOCTYPE svg
PUBLIC "-//W3C//DTD SVG 1.1//EN"
       "http://www.w3.org/Graphics/SVG/1.1/DTD/svg11.dtd">
<svg version="1.1" xmlns="http://www.w3.org/2000/svg" xmlns:xlink="http://www.w3.org/1999/xlink" width="99.707" height="138.041">
 <g>
  <rect height="138.041" opacity="0" width="99.707" x="0" y="0"/>
  <path d="M96.9238 38.1854C98.3887 38.1854 99.707 36.8671 99.707 35.3534L99.707 29.3964C99.707 17.0429 91.5039 8.88857 79.1504 8.88857L78.2715 8.88857L78.2715 3.12685C78.2715-0.144634 75.8301-0.828228 73.3887 0.978413L62.3047 9.08388C60.4492 10.4511 60.4004 12.0136 62.3047 13.3808L73.3887 21.4862C75.8301 23.2929 78.2715 22.5604 78.2715 19.4354L78.2715 14.0155L79.1016 14.0155C88.1836 14.0155 94.1406 20.1679 94.1406 29.4452L94.1406 35.3534C94.1406 36.8671 95.4102 38.1854 96.9238 38.1854ZM2.7832 99.8065C1.31836 99.8065 0 101.076 0 102.59L0 108.596C0 120.949 8.1543 129.103 20.5078 129.103L21.3867 129.103L21.3867 134.865C21.3867 138.137 23.877 138.82 26.3184 137.014L37.4023 128.859C39.2578 127.541 39.3066 125.978 37.4023 124.562L26.3184 116.506C23.877 114.699 21.3867 115.432 21.3867 118.557L21.3867 123.976L20.5566 123.976C11.5234 123.976 5.56641 117.824 5.56641 108.547L5.56641 102.59C5.56641 101.076 4.29688 99.8065 2.7832 99.8065Z" fill="#000000" fill-opacity="0.85"/>
  <path d="M30.3223 107.717L69.3359 107.717C75.2441 107.717 79.6387 103.664 79.6387 97.9999L79.6387 39.9921C79.6387 34.328 75.2441 30.2265 69.3359 30.2265L30.3223 30.2265C24.4141 30.2265 20.1172 34.328 20.1172 39.9921L20.1172 97.9999C20.1172 103.664 24.4141 107.717 30.3223 107.717ZM31.0059 100.344C28.9551 100.344 27.4902 99.0253 27.4902 97.121L27.4902 40.871C27.4902 38.9179 28.9551 37.5507 31.0059 37.5507L68.6523 37.5507C70.8008 37.5507 72.3145 38.9179 72.3145 40.871L72.3145 97.121C72.3145 99.0253 70.8008 100.344 68.6523 100.344Z" fill="#000000" fill-opacity="0.85"/>
 </g>
</svg>
