<?xml version="1.0" encoding="UTF-8"?>
<!--Generator: Apple Native CoreSVG 232.5-->
<!DOCTYPE svg
PUBLIC "-//W3C//DTD SVG 1.1//EN"
       "http://www.w3.org/Graphics/SVG/1.1/DTD/svg11.dtd">
<svg version="1.1" xmlns="http://www.w3.org/2000/svg" xmlns:xlink="http://www.w3.org/1999/xlink" width="132.072" height="117.666">
 <g>
  <rect height="117.666" opacity="0" width="132.072" x="0" y="0"/>
  <path d="M80.4402 21.7479L23.9217 21.7479C19.0388 21.7479 16.3045 24.3846 16.3045 29.4627L16.3045 88.2518C16.3045 93.3299 19.0388 95.9178 23.9217 95.9178L108.15 95.9178C112.984 95.9178 115.767 93.3299 115.767 88.2518L115.767 61.1966L123.629 53.3032L123.629 88.6912C123.629 98.7498 118.502 103.779 108.297 103.779L23.7752 103.779C13.6189 103.779 8.44314 98.7498 8.44314 88.6912L8.44314 29.0233C8.44314 18.9647 13.6189 13.8865 23.7752 13.8865L88.2888 13.8865Z" fill="#000000" fill-opacity="0.85"/>
  <path d="M70.4549 69.1112C78.0232 76.6795 89.4978 76.8748 97.408 68.9647L121.383 44.9901C122.554 43.7694 122.506 41.8651 121.334 40.7908C120.113 39.6678 118.453 39.6678 117.232 40.8885L93.5017 64.6678C87.8377 70.283 79.9275 70.283 74.7517 64.9608C69.3806 59.4432 69.283 51.6795 74.8982 46.1131L104.879 16.1815C108.59 12.4705 113.619 12.4217 116.744 15.449C119.82 18.5252 119.722 23.5057 116.011 27.2655L86.8611 56.6112C85.6404 57.8319 84.0779 57.783 83.0037 56.6112C81.783 55.4393 81.8318 53.9744 83.0525 52.7049L103.707 32.0994C104.928 30.8787 104.879 29.2186 103.804 28.0955C102.73 26.9725 101.119 26.9725 99.8494 28.1932L79.0486 48.994C75.6795 52.3631 75.6306 57.6365 78.8045 60.7615C82.1248 64.0819 87.1052 64.0819 90.6209 60.6151L119.967 31.2205C126.119 25.0682 126.021 17.0604 120.504 11.494C115.035 6.07405 106.783 5.97639 100.777 11.9823L70.6502 42.1092C62.74 50.0194 62.9842 61.6893 70.4549 69.1112Z" fill="#000000" fill-opacity="0.85"/>
 </g>
</svg>
