<?xml version="1.0" encoding="UTF-8"?>
<!--Generator: Apple Native CoreSVG 232.5-->
<!DOCTYPE svg
PUBLIC "-//W3C//DTD SVG 1.1//EN"
       "http://www.w3.org/Graphics/SVG/1.1/DTD/svg11.dtd">
<svg version="1.1" xmlns="http://www.w3.org/2000/svg" xmlns:xlink="http://www.w3.org/1999/xlink" width="70.3125" height="110.596">
 <g>
  <rect height="110.596" opacity="0" width="70.3125" x="0" y="0"/>
  <path d="M11.2793 110.498L58.9844 110.498C65.7715 110.498 70.3125 105.859 70.3125 98.8281L70.3125 11.6699C70.3125 4.63867 65.7715 0 58.9844 0L11.2793 0C4.54102 0 0 4.63867 0 11.6699L0 98.8281C0 105.859 4.54102 110.498 11.2793 110.498ZM11.6699 102.637C9.375 102.637 7.86133 101.123 7.86133 98.7793L7.86133 11.7676C7.86133 9.42383 9.375 7.86133 11.6699 7.86133L58.6426 7.86133C60.8887 7.86133 62.4512 9.42383 62.4512 11.7676L62.4512 98.7793C62.4512 101.123 60.8887 102.637 58.6426 102.637ZM16.9434 29.3457C18.4082 29.3457 19.3848 28.3203 19.3848 26.8555L19.3848 16.0645C19.3848 14.5996 18.4082 13.5742 16.9434 13.5742C15.4785 13.5742 14.4531 14.5996 14.4531 16.0645L14.4531 26.8555C14.4531 28.3203 15.4785 29.3457 16.9434 29.3457ZM5.81055 43.2617L64.5508 43.2617L64.5508 36.8652L5.81055 36.8652ZM16.9434 63.6719C18.4082 63.6719 19.3848 62.6953 19.3848 61.2305L19.3848 50.3906C19.3848 48.9258 18.4082 47.9492 16.9434 47.9492C15.4785 47.9492 14.4531 48.9258 14.4531 50.3906L14.4531 61.2305C14.4531 62.6953 15.4785 63.6719 16.9434 63.6719ZM5.81055 95.5078L64.5508 95.5078L64.5508 89.1113L5.81055 89.1113Z" fill="#000000" fill-opacity="0.85"/>
 </g>
</svg>
