<?xml version="1.0" encoding="UTF-8"?>
<!--Generator: Apple Native CoreSVG 232.5-->
<!DOCTYPE svg
PUBLIC "-//W3C//DTD SVG 1.1//EN"
       "http://www.w3.org/Graphics/SVG/1.1/DTD/svg11.dtd">
<svg version="1.1" xmlns="http://www.w3.org/2000/svg" xmlns:xlink="http://www.w3.org/1999/xlink" width="67.8711" height="110.498">
 <g>
  <rect height="110.498" opacity="0" width="67.8711" x="0" y="0"/>
  <path d="M0 36.7188L67.8711 36.7188L67.8711 10.2051C67.8711 4.05273 63.916 0 58.0078 0L9.81445 0C3.95508 0 0 4.05273 0 10.2051ZM13.5254 27.5391C12.1094 27.5391 11.0352 26.5137 11.0352 25.0488L11.0352 13.916C11.0352 12.5 12.0605 11.4746 13.5254 11.4746C14.9414 11.4746 15.9668 12.4512 15.9668 13.916L15.9668 25.0488C15.9668 26.4648 14.9902 27.5391 13.5254 27.5391ZM0 90.918L67.8711 90.918L67.8711 42.4316L0 42.4316ZM13.5254 65.7715C12.1094 65.7715 11.0352 64.7949 11.0352 63.3301L11.0352 52.1973C11.0352 50.7812 12.0605 49.7559 13.5254 49.7559C14.9414 49.7559 15.9668 50.7324 15.9668 52.1973L15.9668 63.3301C15.9668 64.7461 14.9902 65.7715 13.5254 65.7715ZM0 96.6309L0 100.293C0 106.445 3.95508 110.498 9.81445 110.498L58.0078 110.498C63.916 110.498 67.8711 106.445 67.8711 100.293L67.8711 96.6309Z" fill="#000000" fill-opacity="0.85"/>
 </g>
</svg>
