<?xml version="1.0" encoding="UTF-8"?>
<!--Generator: Apple Native CoreSVG 232.5-->
<!DOCTYPE svg
PUBLIC "-//W3C//DTD SVG 1.1//EN"
       "http://www.w3.org/Graphics/SVG/1.1/DTD/svg11.dtd">
<svg version="1.1" xmlns="http://www.w3.org/2000/svg" xmlns:xlink="http://www.w3.org/1999/xlink" width="104.248" height="87.1582">
 <g>
  <rect height="87.1582" opacity="0" width="104.248" x="0" y="0"/>
  <path d="M100.098 41.8945C97.7051 41.8945 95.9473 43.6523 95.9473 46.0449L95.9473 50.6836C95.9473 59.082 90.2344 64.502 81.3477 64.502L43.2617 64.502L43.2617 53.1738C43.2617 51.1719 42.1387 50.0977 40.1367 50.0977C39.209 50.0977 38.3301 50.3906 37.5977 50.9766L19.1406 66.2598C17.5781 67.627 17.5293 69.5801 19.1406 70.8984L37.5977 86.2305C38.3301 86.8164 39.209 87.1582 40.1367 87.1582C42.1387 87.1582 43.2617 86.0352 43.2617 84.082L43.2617 72.6562L80.5664 72.6562C94.9219 72.6562 104.248 64.502 104.248 51.2695L104.248 46.0449C104.248 43.6523 102.441 41.8945 100.098 41.8945Z" fill="#000000" fill-opacity="0.85"/>
  <path d="M4.15039 45.3613C6.49414 45.3613 8.30078 43.5547 8.30078 41.2109L8.30078 36.5723C8.30078 28.1738 14.0137 22.7051 22.8516 22.7051L60.9375 22.7051L60.9375 34.1797C60.9375 36.1328 62.1094 37.2559 64.1113 37.2559C64.9902 37.2559 65.918 36.9141 66.6016 36.3281L85.0586 21.0449C86.6211 19.7754 86.7188 17.7734 85.0586 16.4062L66.6016 1.07422C65.918 0.488281 64.9902 0.195312 64.1113 0.195312C62.1094 0.195312 60.9375 1.26953 60.9375 3.27148L60.9375 14.5996L23.6328 14.5996C9.32617 14.5996 0 22.7539 0 35.9863L0 41.2109C0 43.5547 1.75781 45.3613 4.15039 45.3613Z" fill="#000000" fill-opacity="0.85"/>
 </g>
</svg>
