<?xml version="1.0" encoding="UTF-8"?>
<!--Generator: Apple Native CoreSVG 232.5-->
<!DOCTYPE svg
PUBLIC "-//W3C//DTD SVG 1.1//EN"
       "http://www.w3.org/Graphics/SVG/1.1/DTD/svg11.dtd">
<svg version="1.1" xmlns="http://www.w3.org/2000/svg" xmlns:xlink="http://www.w3.org/1999/xlink" width="99.6094" height="99.6582">
 <g>
  <rect height="99.6582" opacity="0" width="99.6094" x="0" y="0"/>
  <path d="M99.6094 49.8047C99.6094 77.002 77.0508 99.6094 49.8047 99.6094C22.6074 99.6094 0 77.002 0 49.8047C0 22.5586 22.5586 0 49.7559 0C77.002 0 99.6094 22.5586 99.6094 49.8047ZM74.6582 51.4648L74.6582 54.1992C74.6582 58.9355 71.3379 62.0117 66.4551 62.0117L46.6797 62.0117L46.6797 55.8105C46.6797 54.1016 45.6543 53.0762 43.9453 53.0762C43.2617 53.0762 42.4316 53.3691 41.8945 53.8086L30.4688 63.2324C29.0527 64.4043 29.0527 66.2598 30.4688 67.4316L41.8945 76.9531C42.4805 77.4414 43.2617 77.7344 43.9453 77.7344C45.6543 77.7344 46.6797 76.6602 46.6797 74.9512L46.6797 68.7012L65.918 68.7012C75.293 68.7012 81.3965 63.1348 81.3965 54.541L81.3965 51.4648C81.3965 49.5605 79.9805 48.1445 78.0762 48.1445C76.0742 48.1445 74.6582 49.5605 74.6582 51.4648ZM52.9785 24.8535L52.9785 31.1035L33.7402 31.1035C24.3652 31.1035 18.2617 36.6699 18.2617 45.2148L18.2617 48.3398C18.2617 50.1465 19.7754 51.6602 21.582 51.6602C23.5352 51.6602 25 50.1465 25 48.3398L25 45.5566C25 40.8691 28.3203 37.793 33.2031 37.793L52.9785 37.793L52.9785 43.9941C52.9785 45.752 54.0527 46.7773 55.7129 46.7773C56.3965 46.7773 57.2266 46.5332 57.8125 46.0449L69.1895 36.5723C70.6055 35.4004 70.6055 33.5938 69.1895 32.4219L57.8125 22.9004C57.2266 22.4121 56.3965 22.1191 55.7129 22.1191C54.0527 22.1191 52.9785 23.1934 52.9785 24.8535Z" fill="#000000" fill-opacity="0.85"/>
 </g>
</svg>
