<?xml version="1.0" encoding="UTF-8"?>
<!--Generator: Apple Native CoreSVG 232.5-->
<!DOCTYPE svg
PUBLIC "-//W3C//DTD SVG 1.1//EN"
       "http://www.w3.org/Graphics/SVG/1.1/DTD/svg11.dtd">
<svg version="1.1" xmlns="http://www.w3.org/2000/svg" xmlns:xlink="http://www.w3.org/1999/xlink" width="99.6094" height="99.6582">
 <g>
  <rect height="99.6582" opacity="0" width="99.6094" x="0" y="0"/>
  <path d="M49.8047 99.6094C77.0508 99.6094 99.6094 77.002 99.6094 49.8047C99.6094 22.5586 77.002 0 49.7559 0C22.5586 0 0 22.5586 0 49.8047C0 77.002 22.6074 99.6094 49.8047 99.6094ZM49.8047 91.3086C26.7578 91.3086 8.34961 72.8516 8.34961 49.8047C8.34961 26.7578 26.709 8.30078 49.7559 8.30078C72.8027 8.30078 91.3086 26.7578 91.3086 49.8047C91.3086 72.8516 72.8516 91.3086 49.8047 91.3086Z" fill="#000000" fill-opacity="0.85"/>
  <path d="M18.3105 49.707C18.3105 51.3184 19.5801 52.6367 21.1914 52.6367C22.8027 52.6367 24.1211 51.3184 24.1211 49.707L24.1211 47.2656C24.1211 42.7246 27.2461 39.6484 32.0312 39.6484L44.4824 39.6484L44.4824 45.752C44.4824 47.168 45.4102 48.0469 46.8262 48.0469C47.5098 48.0469 48.1445 47.8027 48.6328 47.4121L59.2773 38.5742C60.5469 37.5488 60.5469 36.0352 59.2773 35.0586L48.6328 26.1719C48.1445 25.7812 47.5098 25.5859 46.8262 25.5859C45.4102 25.5859 44.4824 26.4648 44.4824 27.8809L44.4824 33.8867L32.6172 33.8867C23.877 33.8867 18.3105 38.8672 18.3105 46.8262ZM76.6113 52.6367C76.6113 51.0254 75.293 49.7559 73.6816 49.7559C72.0703 49.7559 70.752 51.0254 70.752 52.6367L70.752 55.0781C70.752 59.668 67.627 62.6953 62.8418 62.6953L44.3359 62.6953L44.3359 56.6895C44.3359 55.2734 43.4082 54.3945 41.9922 54.3945C41.3086 54.3945 40.6738 54.5898 40.1855 55.0293L29.4922 63.8672C28.2715 64.7949 28.3203 66.4062 29.541 67.3828L40.1855 76.2207C40.6738 76.6113 41.3086 76.8066 41.9922 76.8066C43.457 76.8066 44.3359 75.9766 44.3359 74.5605L44.3359 68.457L62.2559 68.457C71.0449 68.457 76.6113 63.4277 76.6113 55.5176ZM73.6816 44.5801C75.5371 44.5801 76.709 43.3594 76.709 41.4551L76.709 29.4922C76.709 27.2949 75.2441 25.8301 73.0957 25.8301C71.6309 25.8301 70.6055 26.2207 69.1895 27.3438L65.4297 30.2246C64.6973 30.7617 64.4531 31.3477 64.4531 32.1289C64.4531 33.252 65.3809 34.1797 66.6016 34.1797C67.0898 34.1797 67.627 34.0332 68.1152 33.6426L70.9961 31.3477L70.5566 31.3477L70.5566 41.4551C70.5566 43.3594 71.7773 44.5801 73.6816 44.5801Z" fill="#000000" fill-opacity="0.85"/>
 </g>
</svg>
