<?xml version="1.0" encoding="UTF-8"?>
<!--Generator: Apple Native CoreSVG 232.5-->
<!DOCTYPE svg
PUBLIC "-//W3C//DTD SVG 1.1//EN"
       "http://www.w3.org/Graphics/SVG/1.1/DTD/svg11.dtd">
<svg version="1.1" xmlns="http://www.w3.org/2000/svg" xmlns:xlink="http://www.w3.org/1999/xlink" width="84.668" height="82.7637">
 <g>
  <rect height="82.7637" opacity="0" width="84.668" x="0" y="0"/>
  <path d="M67.9688 82.7637C71.5332 82.7637 73.7793 79.9805 73.7793 75.7324L73.7793 7.08008C73.7793 2.83203 71.5332 0.0976562 67.9688 0.0976562C65.9668 0.0976562 64.3555 0.830078 62.3535 1.95312L5.46875 34.9121C1.36719 37.2559 0 38.8184 0 41.4062C0 43.9941 1.36719 45.5566 5.46875 47.9492L62.3535 80.8594C64.3555 81.9824 65.9668 82.7637 67.9688 82.7637ZM65.4297 73.4375C65.2344 73.4375 65.0391 73.3398 64.8438 73.2422L10.8398 41.9434C10.5957 41.8457 10.3516 41.6504 10.3516 41.4062C10.3516 41.1621 10.5957 41.0156 10.8398 40.8691L64.8438 9.61914C65.0391 9.47266 65.2344 9.375 65.4297 9.375C65.7227 9.375 65.918 9.57031 65.918 9.96094L65.918 72.8516C65.918 73.2422 65.7227 73.4375 65.4297 73.4375Z" fill="#000000" fill-opacity="0.85"/>
 </g>
</svg>
