<?xml version="1.0" encoding="UTF-8"?>
<!--Generator: Apple Native CoreSVG 232.5-->
<!DOCTYPE svg
PUBLIC "-//W3C//DTD SVG 1.1//EN"
       "http://www.w3.org/Graphics/SVG/1.1/DTD/svg11.dtd">
<svg version="1.1" xmlns="http://www.w3.org/2000/svg" xmlns:xlink="http://www.w3.org/1999/xlink" width="99.6094" height="99.6582">
 <g>
  <rect height="99.6582" opacity="0" width="99.6094" x="0" y="0"/>
  <path d="M49.8047 99.6094C77.0508 99.6094 99.6094 77.002 99.6094 49.8047C99.6094 22.5586 77.002 0 49.7559 0C22.5586 0 0 22.5586 0 49.8047C0 77.002 22.6074 99.6094 49.8047 99.6094ZM49.8047 91.3086C26.7578 91.3086 8.34961 72.8516 8.34961 49.8047C8.34961 26.7578 26.709 8.30078 49.7559 8.30078C72.8027 8.30078 91.3086 26.7578 91.3086 49.8047C91.3086 72.8516 72.8516 91.3086 49.8047 91.3086Z" fill="#000000" fill-opacity="0.85"/>
  <path d="M27.4414 44.7266C23.4375 47.1191 23.5352 52.6367 27.3438 54.8828L56.6406 72.2168C60.2539 74.3652 65.332 72.9492 65.332 67.7246L65.332 31.8359C65.332 26.6113 60.2539 25.1465 56.6406 27.3438ZM35.0098 49.3652L56.543 36.5723C57.1289 36.2305 57.4707 36.4746 57.4707 36.9141L57.4707 62.6465C57.4707 63.0859 57.1289 63.2812 56.543 62.9883L35.0586 50.293C34.5703 50.0488 34.668 49.6094 35.0098 49.3652Z" fill="#000000" fill-opacity="0.85"/>
 </g>
</svg>
