<?xml version="1.0" encoding="UTF-8"?>
<!--Generator: Apple Native CoreSVG 232.5-->
<!DOCTYPE svg
PUBLIC "-//W3C//DTD SVG 1.1//EN"
       "http://www.w3.org/Graphics/SVG/1.1/DTD/svg11.dtd">
<svg version="1.1" xmlns="http://www.w3.org/2000/svg" xmlns:xlink="http://www.w3.org/1999/xlink" width="164.99" height="95.2637">
 <g>
  <rect height="95.2637" opacity="0" width="164.99" x="0" y="0"/>
  <path d="M158.545 80.3711C162.061 80.3711 164.99 77.5391 164.99 74.2188C164.99 70.8496 162.109 68.0664 158.545 68.0664C155.029 68.0664 152.148 70.8496 152.148 74.2188C152.148 77.5391 155.078 80.3711 158.545 80.3711ZM158.545 58.6914C160.938 58.6914 162.646 57.0312 162.744 54.541L163.77 19.9707C163.867 16.8457 161.768 14.7461 158.545 14.7461C155.371 14.7461 153.271 16.8457 153.369 19.9707L154.395 54.541C154.492 57.0312 156.152 58.6914 158.545 58.6914Z" fill="#000000" fill-opacity="0.85"/>
  <path d="M69.6777 95.2148C95.7031 95.2148 117.334 73.6328 117.334 47.6074C117.334 21.582 95.7031 0 69.6289 0C43.6035 0 22.0703 21.5332 22.0703 47.6074C22.0703 73.6328 43.6523 95.2148 69.6777 95.2148ZM69.6777 86.9141C47.9004 86.9141 30.4199 69.4336 30.4199 47.6074C30.4199 25.7324 47.8516 8.25195 69.6289 8.25195C91.4551 8.25195 108.984 25.7324 109.033 47.6074C109.082 69.3848 91.5527 86.9141 69.6777 86.9141ZM0 47.6074C0 63.0859 5.0293 77.2949 13.5254 88.8672C15.0391 90.9668 17.627 91.1621 19.5801 89.5996C21.3379 88.0859 21.582 85.7422 20.166 83.7891C12.7441 73.6816 8.34961 61.1328 8.34961 47.6074C8.34961 34.0332 12.7441 21.5332 20.166 11.3281C21.582 9.47266 21.3867 7.08008 19.5801 5.56641C17.627 4.00391 15.0391 4.24805 13.5254 6.29883C5.0293 17.8711 0 32.1289 0 47.6074ZM139.355 47.6074C139.355 32.1289 134.375 17.8711 125.83 6.29883C124.316 4.24805 121.729 4.00391 119.775 5.56641C117.969 7.08008 117.822 9.47266 119.189 11.3281C126.66 21.5332 131.006 34.0332 131.006 47.6074C131.006 61.1328 126.66 73.6816 119.189 83.7891C117.822 85.7422 118.018 88.0859 119.775 89.5996C121.729 91.1621 124.316 90.9668 125.83 88.8672C134.375 77.2949 139.355 63.0859 139.355 47.6074ZM38.0859 47.6074C38.0859 56.4941 43.7012 62.4512 52.0996 62.4512C56.543 62.4512 60.3027 60.5469 64.3555 56.6895L69.7266 51.5625L75.0488 56.6895C79.248 60.6445 82.9102 62.4512 87.3047 62.4512C95.7031 62.4512 101.367 56.4941 101.367 47.6074C101.367 38.7207 95.7031 32.7637 87.3047 32.7637C82.9102 32.7637 79.1992 34.5215 75.0488 38.5254L69.7266 43.6523L64.3555 38.5254C60.3516 34.668 56.5918 32.7637 52.0996 32.7637C43.7012 32.7637 38.0859 38.7207 38.0859 47.6074ZM43.8477 47.6074C43.8477 42.0898 47.1191 38.4766 52.0996 38.4766C54.7852 38.4766 57.1289 39.6973 60.3516 42.7246L65.5762 47.6074L60.3516 52.4902C57.2266 55.4199 54.834 56.6895 52.0996 56.6895C47.1191 56.6895 43.8477 53.125 43.8477 47.6074ZM73.8281 47.6074L79.1016 42.7246C82.2754 39.6973 84.668 38.4766 87.3047 38.4766C92.2852 38.4766 95.6055 42.0898 95.6055 47.6074C95.6055 53.0762 92.2852 56.6895 87.3047 56.6895C84.5703 56.6895 82.1777 55.4199 79.1016 52.4902Z" fill="#000000" fill-opacity="0.85"/>
 </g>
</svg>
