<?xml version="1.0" encoding="UTF-8"?>
<!--Generator: Apple Native CoreSVG 232.5-->
<!DOCTYPE svg
PUBLIC "-//W3C//DTD SVG 1.1//EN"
       "http://www.w3.org/Graphics/SVG/1.1/DTD/svg11.dtd">
<svg version="1.1" xmlns="http://www.w3.org/2000/svg" xmlns:xlink="http://www.w3.org/1999/xlink" width="103.027" height="94.3848">
 <g>
  <rect height="94.3848" opacity="0" width="103.027" x="0" y="0"/>
  <path d="M69.6777 89.6484C70.752 89.6484 72.0215 89.1602 72.8516 88.3301L101.562 60.1562C102.539 59.2285 103.027 58.0566 103.027 56.8848C103.027 55.6641 102.539 54.541 101.562 53.6133L72.8516 25.4395C72.0215 24.6094 70.752 24.0723 69.6777 24.0723C67.0898 24.0723 65.3809 25.8789 65.3809 28.3691C65.3809 29.6387 65.7715 30.6152 66.5527 31.3965L80.6152 45.1172L92.7246 55.4199L93.5547 53.1738L78.418 52.5391L16.1133 52.5391C10.9375 52.5391 8.69141 50.293 8.69141 44.9707L8.69141 16.1133C8.69141 10.9375 10.9375 8.69141 16.1133 8.69141L43.457 8.69141C46.1426 8.69141 47.9004 6.73828 47.9004 4.3457C47.9004 1.95312 46.1426 0 43.457 0L16.1133 0C4.73633 0 0 4.73633 0 16.1133L0 44.9707C0 56.0059 4.73633 61.2305 16.1133 61.2305L78.418 61.2305L93.5547 60.5469L92.7246 58.3008L80.6152 68.6523L66.5527 82.373C65.7715 83.1543 65.3809 84.082 65.3809 85.3516C65.3809 87.8906 67.0898 89.6484 69.6777 89.6484Z" fill="#000000" fill-opacity="0.85"/>
 </g>
</svg>
