<?xml version="1.0" encoding="UTF-8"?>
<!--Generator: Apple Native CoreSVG 232.5-->
<!DOCTYPE svg
PUBLIC "-//W3C//DTD SVG 1.1//EN"
       "http://www.w3.org/Graphics/SVG/1.1/DTD/svg11.dtd">
<svg version="1.1" xmlns="http://www.w3.org/2000/svg" xmlns:xlink="http://www.w3.org/1999/xlink" width="103.027" height="94.3848">
 <g>
  <rect height="94.3848" opacity="0" width="103.027" x="0" y="0"/>
  <path d="M33.3008 89.6484C35.9375 89.6484 37.6465 87.8906 37.6465 85.3516C37.6465 84.082 37.207 83.1543 36.4746 82.373L22.3633 68.6523L10.3027 58.3008L9.42383 60.5469L24.5605 61.2305L86.9141 61.2305C98.291 61.2305 103.027 56.0059 103.027 44.9707L103.027 16.1133C103.027 4.73633 98.291 0 86.9141 0L59.5703 0C56.8848 0 55.127 1.95312 55.127 4.3457C55.127 6.73828 56.8848 8.69141 59.5703 8.69141L86.9141 8.69141C92.0898 8.69141 94.2871 10.9375 94.2871 16.1133L94.2871 44.9707C94.2871 50.293 92.0898 52.5391 86.9141 52.5391L24.5605 52.5391L9.42383 53.1738L10.3027 55.4199L22.3633 45.1172L36.4746 31.3965C37.207 30.6152 37.6465 29.6387 37.6465 28.3691C37.6465 25.8789 35.9375 24.0723 33.3008 24.0723C32.2754 24.0723 31.0059 24.6094 30.1758 25.4395L1.46484 53.6133C0.488281 54.541 0 55.6641 0 56.8848C0 58.0566 0.488281 59.2285 1.46484 60.1562L30.1758 88.3301C31.0059 89.1602 32.2754 89.6484 33.3008 89.6484Z" fill="#000000" fill-opacity="0.85"/>
 </g>
</svg>
