<?xml version="1.0" encoding="UTF-8"?>
<!--Generator: Apple Native CoreSVG 232.5-->
<!DOCTYPE svg
PUBLIC "-//W3C//DTD SVG 1.1//EN"
       "http://www.w3.org/Graphics/SVG/1.1/DTD/svg11.dtd">
<svg version="1.1" xmlns="http://www.w3.org/2000/svg" xmlns:xlink="http://www.w3.org/1999/xlink" width="76.0254" height="100.049">
 <g>
  <rect height="100.049" opacity="0" width="76.0254" x="0" y="0"/>
  <path d="M37.9883 100C40.6738 100 41.9922 98.1934 44.7754 94.4824L73.9258 55.5664C75.2441 53.7598 76.0254 51.9531 76.0254 50C76.0254 47.998 75.2441 46.2402 73.9258 44.4336L44.7754 5.46875C41.9922 1.80664 40.6738 0 37.9883 0C35.3027 0 33.9844 1.80664 31.25 5.46875L2.09961 44.4336C0.732422 46.2402 0 47.998 0 50C0 51.9531 0.732422 53.7598 2.09961 55.5664L31.25 94.4824C33.9844 98.1934 35.3027 100 37.9883 100Z" fill="#000000" fill-opacity="0.85"/>
 </g>
</svg>
