<?xml version="1.0" encoding="UTF-8"?>
<!--Generator: Apple Native CoreSVG 232.5-->
<!DOCTYPE svg
PUBLIC "-//W3C//DTD SVG 1.1//EN"
       "http://www.w3.org/Graphics/SVG/1.1/DTD/svg11.dtd">
<svg version="1.1" xmlns="http://www.w3.org/2000/svg" xmlns:xlink="http://www.w3.org/1999/xlink" width="76.0254" height="100.049">
 <g>
  <rect height="100.049" opacity="0" width="76.0254" x="0" y="0"/>
  <path d="M37.9883 100C40.6738 100 41.9922 98.1934 44.7754 94.4824L73.9258 55.5664C75.2441 53.7598 76.0254 51.9531 76.0254 50C76.0254 47.998 75.2441 46.2402 73.9258 44.4336L44.7754 5.46875C41.9922 1.80664 40.6738 0 37.9883 0C35.3027 0 33.9844 1.80664 31.25 5.46875L2.09961 44.4336C0.732422 46.2402 0 47.998 0 50C0 51.9531 0.732422 53.7598 2.09961 55.5664L31.25 94.4824C33.9844 98.1934 35.3027 100 37.9883 100ZM37.9883 89.6973C37.7441 89.6973 37.6465 89.5508 37.5 89.3066L9.27734 51.3184C8.83789 50.7812 8.78906 50.3906 8.78906 50C8.78906 49.6094 8.83789 49.2188 9.27734 48.6816L37.5 10.6445C37.6465 10.4492 37.7441 10.3027 37.9883 10.3027C38.2324 10.3027 38.3301 10.4492 38.4766 10.6445L66.748 48.6816C67.1387 49.2188 67.2363 49.6094 67.2363 50C67.2363 50.3906 67.1387 50.7812 66.748 51.3184L38.4766 89.3066C38.3301 89.5508 38.2324 89.6973 37.9883 89.6973Z" fill="#000000" fill-opacity="0.85"/>
 </g>
</svg>
