<?xml version="1.0" encoding="UTF-8"?>
<!--Generator: Apple Native CoreSVG 232.5-->
<!DOCTYPE svg
PUBLIC "-//W3C//DTD SVG 1.1//EN"
       "http://www.w3.org/Graphics/SVG/1.1/DTD/svg11.dtd">
<svg version="1.1" xmlns="http://www.w3.org/2000/svg" xmlns:xlink="http://www.w3.org/1999/xlink" width="48.7793" height="72.2168">
 <g>
  <rect height="72.2168" opacity="0" width="48.7793" x="0" y="0"/>
  <path d="M4.29688 72.2168C6.88477 72.2168 8.54492 70.5078 8.54492 67.8223L8.54492 43.7988L24.1699 43.7988C24.5605 43.7988 25.0488 43.7988 25.4395 43.7988L39.8438 69.5801C40.8691 71.4844 42.0898 72.2168 43.8965 72.2168C46.3379 72.2168 48.2422 70.5566 48.2422 68.2129C48.2422 67.2852 47.9004 66.4062 47.3633 65.3809L34.2285 42.3828C43.2129 39.5996 48.5352 32.0312 48.5352 22.2656C48.5352 9.375 39.502 1.17188 25.6836 1.17188L4.29688 1.17188C1.80664 1.17188 0 2.97852 0 5.51758L0 67.8223C0 70.5078 1.66016 72.2168 4.29688 72.2168ZM8.54492 36.084L8.54492 8.93555L24.7559 8.93555C34.2773 8.93555 39.7461 13.8672 39.7461 22.5098C39.7461 31.2012 34.5215 36.084 25.0488 36.084Z" fill="#000000" fill-opacity="0.85"/>
 </g>
</svg>
