<?xml version="1.0" encoding="UTF-8"?>
<!--Generator: Apple Native CoreSVG 232.5-->
<!DOCTYPE svg
PUBLIC "-//W3C//DTD SVG 1.1//EN"
       "http://www.w3.org/Graphics/SVG/1.1/DTD/svg11.dtd">
<svg version="1.1" xmlns="http://www.w3.org/2000/svg" xmlns:xlink="http://www.w3.org/1999/xlink" width="123.208" height="73.1934">
 <g>
  <rect height="73.1934" opacity="0" width="123.208" x="0" y="0"/>
  <path d="M8.99146 73.1934C12.4094 73.1934 13.386 71.4355 13.7766 69.1895C18.1711 44.873 28.2786 25 49.7629 3.125C50.9836 1.85547 50.0071 0.0976562 48.5422 0.0976562L46.345 0.0976562C45.1243 0.0976562 44.1477 0.341797 42.3899 1.75781C25.0071 15.4785 7.03834 37.0605 0.153571 68.7988C-0.383538 71.0938 0.544196 73.1934 3.57154 73.1934ZM119.978 73.1934C122.712 73.1934 123.786 71.2402 122.907 68.7988C114.802 47.2656 113.191 26.9043 118.659 2.97852C119.099 1.02539 117.927 0.0976562 116.413 0.0976562L114.509 0.0976562C112.898 0.0976562 111.872 0.634766 111.384 2.14844C103.962 24.9023 104.353 47.9492 110.017 70.3125C110.407 72.0215 111.579 73.1934 114.07 73.1934ZM75.3001 12.793C77.1555 12.793 78.1321 12.3535 78.9622 10.8398C79.8899 9.17969 81.2571 6.83594 83.6985 3.125C84.7727 1.51367 83.6985 0.0976562 82.0383 0.0976562L80.5735 0.0976562C79.2063 0.0976562 78.4739 0.341797 77.6438 1.2207C75.9348 2.97852 73.7376 5.71289 71.5891 8.93555C70.3684 10.7422 71.1985 12.793 73.3958 12.793ZM66.218 36.7188C68.3176 36.7188 69.2454 35.6934 69.7336 33.9355C70.2219 31.6895 71.1008 28.5645 72.1751 25.3418C73.0051 23.0469 71.6868 21.9727 69.8313 21.9727L66.8528 21.9727C64.9973 21.9727 64.2161 22.5586 63.4348 24.1211C62.4094 26.5137 61.0911 29.8828 59.8704 33.3008C59.2844 35.1562 59.968 36.7188 62.3118 36.7188ZM61.3352 73.1934C63.5325 73.1934 64.7532 72.1191 64.7532 69.7754C64.8997 62.2559 65.3879 55.0781 66.0227 50.1953C66.4133 47.3633 65.3391 46.5332 63.0442 46.5332L60.1145 46.5332C58.3567 46.5332 57.0872 47.2656 56.5989 49.2188C55.2317 54.6387 54.4016 63.1348 54.2063 69.7266C54.1575 72.0215 55.2805 73.1934 57.4778 73.1934Z" fill="#000000" fill-opacity="0.85"/>
 </g>
</svg>
