<?xml version="1.0" encoding="UTF-8"?>
<!--Generator: Apple Native CoreSVG 232.5-->
<!DOCTYPE svg
PUBLIC "-//W3C//DTD SVG 1.1//EN"
       "http://www.w3.org/Graphics/SVG/1.1/DTD/svg11.dtd">
<svg version="1.1" xmlns="http://www.w3.org/2000/svg" xmlns:xlink="http://www.w3.org/1999/xlink" width="123.208" height="73.1934">
 <g>
  <rect height="73.1934" opacity="0" width="123.208" x="0" y="0"/>
  <path d="M3.22974 73.1934L9.13795 73.1934C11.6282 73.1934 12.8001 72.0215 13.1907 70.3125C18.8547 47.9492 19.2454 24.9023 11.8235 2.14844C11.3352 0.634766 10.3098 0.0976562 8.69849 0.0976562L6.7942 0.0976562C5.28052 0.0976562 4.10865 1.02539 4.5481 2.97852C10.0169 26.9043 8.40552 47.2656 0.300055 68.7988C-0.578851 71.2402 0.495368 73.1934 3.22974 73.1934ZM114.216 73.1934L119.636 73.1934C122.663 73.1934 123.591 71.0938 123.054 68.7988C116.169 37.0605 98.2004 15.4785 80.8176 1.75781C79.0598 0.341797 78.0833 0.0976562 76.8626 0.0976562L74.6653 0.0976562C73.2004 0.0976562 72.2239 1.85547 73.4446 3.125C94.929 25 105.036 44.873 109.431 69.1895C109.822 71.4355 110.798 73.1934 114.216 73.1934ZM47.9075 12.793L49.8118 12.793C52.009 12.793 52.8391 10.7422 51.6184 8.93555C49.47 5.71289 47.2727 2.97852 45.5637 1.2207C44.7336 0.341797 44.0012 0.0976562 42.634 0.0976562L41.1692 0.0976562C39.509 0.0976562 38.4348 1.51367 39.509 3.125C41.9504 6.83594 43.3176 9.17969 44.2454 10.8398C45.0754 12.3535 46.052 12.793 47.9075 12.793ZM56.9895 36.7188L60.8958 36.7188C63.2395 36.7188 63.9231 35.1562 63.2883 33.3008C62.1165 29.8828 60.7981 26.5137 59.7727 24.1211C58.9915 22.5586 58.2102 21.9727 56.3547 21.9727L53.3762 21.9727C51.5208 21.9727 50.2024 23.0469 51.0325 25.3418C52.1067 28.5645 52.9856 31.6895 53.4739 33.9355C53.9622 35.6934 54.8899 36.7188 56.9895 36.7188ZM61.8723 73.1934L65.7297 73.1934C67.927 73.1934 69.0501 72.0215 69.0012 69.7266C68.8059 63.1348 67.9758 54.6387 66.6086 49.2188C66.1204 47.2656 64.8508 46.5332 63.093 46.5332L60.1633 46.5332C57.8684 46.5332 56.7942 47.3633 57.1848 50.1953C57.8196 55.0781 58.3079 62.2559 58.4544 69.7754C58.4544 72.1191 59.6751 73.1934 61.8723 73.1934Z" fill="#000000" fill-opacity="0.85"/>
 </g>
</svg>
