<?xml version="1.0" encoding="UTF-8"?>
<!--Generator: Apple Native CoreSVG 232.5-->
<!DOCTYPE svg
PUBLIC "-//W3C//DTD SVG 1.1//EN"
       "http://www.w3.org/Graphics/SVG/1.1/DTD/svg11.dtd">
<svg version="1.1" xmlns="http://www.w3.org/2000/svg" xmlns:xlink="http://www.w3.org/1999/xlink" width="140.726" height="73.1934">
 <g>
  <rect height="73.1934" opacity="0" width="140.726" x="0" y="0"/>
  <path d="M4.00563 73.1934L10.3533 73.1934C13.283 73.1934 14.7478 71.7773 15.5779 69.6777C24.5134 47.5098 33.5466 25.293 42.531 3.125C43.2146 1.51367 42.4334 0.0976562 40.7244 0.0976562L37.5506 0.0976562C35.8416 0.0976562 34.7674 0.927734 34.0349 2.39258C22.8533 24.1699 11.7693 45.9473 0.587665 67.7734C-0.779522 70.2637 0.19704 73.1934 4.00563 73.1934ZM130.373 73.1934L136.769 73.1934C140.529 73.1934 141.506 70.2637 140.138 67.7734C129.054 45.9473 117.873 24.1699 106.74 2.39258C105.959 0.927734 104.885 0.0976562 103.176 0.0976562L100.002 0.0976562C98.2927 0.0976562 97.5603 1.51367 98.1951 3.125C107.179 25.293 116.213 47.5098 125.148 69.6777C125.978 71.7773 127.443 73.1934 130.373 73.1934ZM69.24 13.4277L71.3884 13.4277C73.3904 13.4277 74.9529 11.9141 74.9529 9.86328C74.9529 7.8125 74.9529 5.71289 74.9529 3.66211C74.9529 1.61133 73.3904 0.0976562 71.3884 0.0976562L69.24 0.0976562C67.2381 0.0976562 65.6756 1.61133 65.6756 3.66211C65.6756 5.71289 65.6756 7.8125 65.6756 9.86328C65.6756 11.9141 67.2381 13.4277 69.24 13.4277ZM69.24 41.2598L71.3884 41.2598C73.3904 41.2598 74.9529 39.7949 74.9529 37.7441C74.9529 34.3262 74.9529 30.8105 74.9529 27.3926C74.9529 25.3418 73.3904 23.877 71.3884 23.877L69.24 23.877C67.2381 23.877 65.6756 25.3418 65.6756 27.3926C65.6756 30.8105 65.6756 34.3262 65.6756 37.7441C65.6756 39.7949 67.2381 41.2598 69.24 41.2598ZM69.24 73.1934L71.3884 73.1934C73.3904 73.1934 74.9529 71.6797 74.9529 69.6289C74.9529 64.9902 74.9529 60.3027 74.9529 55.6152C74.9529 53.5645 73.3904 52.0996 71.3884 52.0996L69.24 52.0996C67.2381 52.0996 65.6756 53.5645 65.6756 55.6152C65.6756 60.3027 65.6756 64.9902 65.6756 69.6289C65.6756 71.6797 67.2381 73.1934 69.24 73.1934Z" fill="#000000" fill-opacity="0.85"/>
 </g>
</svg>
