<?xml version="1.0" encoding="UTF-8"?>
<!--Generator: Apple Native CoreSVG 232.5-->
<!DOCTYPE svg
PUBLIC "-//W3C//DTD SVG 1.1//EN"
       "http://www.w3.org/Graphics/SVG/1.1/DTD/svg11.dtd">
<svg version="1.1" xmlns="http://www.w3.org/2000/svg" xmlns:xlink="http://www.w3.org/1999/xlink" width="105.273" height="99.7559">
 <g>
  <rect height="99.7559" opacity="0" width="105.273" x="0" y="0"/>
  <path d="M9.27734 29.9316C11.1328 29.9316 12.6465 28.418 12.6465 26.6113C12.6465 24.8047 11.1328 23.291 9.27734 23.291C7.4707 23.291 5.95703 24.8047 5.95703 26.6113C5.95703 28.418 7.4707 29.9316 9.27734 29.9316ZM9.27734 41.3574C11.1328 41.3574 12.6465 39.8438 12.6465 38.0371C12.6465 36.1816 11.1328 34.7168 9.27734 34.7168C7.4707 34.7168 5.95703 36.1816 5.95703 38.0371C5.95703 39.8438 7.4707 41.3574 9.27734 41.3574ZM9.27734 52.7832C11.1328 52.7832 12.6465 51.2207 12.6465 49.4629C12.6465 47.6074 11.1328 46.0938 9.27734 46.0938C7.4707 46.0938 5.95703 47.6074 5.95703 49.4629C5.95703 51.2207 7.4707 52.7832 9.27734 52.7832ZM9.27734 64.209C11.1328 64.209 12.6465 62.6465 12.6465 60.8887C12.6465 59.0332 11.1328 57.5195 9.27734 57.5195C7.4707 57.5195 5.95703 59.0332 5.95703 60.8887C5.95703 62.6465 7.4707 64.209 9.27734 64.209ZM9.27734 75.6348C11.1328 75.6348 12.6465 74.0723 12.6465 72.2656C12.6465 70.459 11.1328 68.9453 9.27734 68.9453C7.4707 68.9453 5.95703 70.459 5.95703 72.2656C5.95703 74.0723 7.4707 75.6348 9.27734 75.6348ZM9.27734 99.707C11.4258 99.707 13.2324 97.9492 13.2324 95.8008L13.2324 84.2773C13.2324 82.1289 11.4258 80.3711 9.27734 80.3711C7.12891 80.3711 5.37109 82.1289 5.37109 84.2773L5.37109 95.8008C5.37109 97.9492 7.17773 99.707 9.27734 99.707Z" fill="#000000" fill-opacity="0.85"/>
  <path d="M21.0449 18.5547L95.9961 18.5547C101.123 18.5547 105.273 14.4043 105.273 9.27734C105.273 4.15039 101.123 0 95.9961 0L21.0449 0C23.0469 2.53906 24.2676 5.76172 24.2676 9.27734C24.2676 12.793 23.0469 16.0156 21.0449 18.5547ZM9.27734 18.5547C14.4043 18.5547 18.5547 14.4043 18.5547 9.27734C18.5547 4.15039 14.4043 0 9.27734 0C4.15039 0 0 4.15039 0 9.27734C0 14.4043 4.15039 18.5547 9.27734 18.5547Z" fill="#000000" fill-opacity="0.85"/>
 </g>
</svg>
