<?xml version="1.0" encoding="UTF-8"?>
<!--Generator: Apple Native CoreSVG 232.5-->
<!DOCTYPE svg
PUBLIC "-//W3C//DTD SVG 1.1//EN"
       "http://www.w3.org/Graphics/SVG/1.1/DTD/svg11.dtd">
<svg version="1.1" xmlns="http://www.w3.org/2000/svg" xmlns:xlink="http://www.w3.org/1999/xlink" width="103.809" height="99.7559">
 <g>
  <rect height="99.7559" opacity="0" width="103.809" x="0" y="0"/>
  <path d="M16.8945 37.5488L96.3379 37.5488C98.3887 37.5488 99.8535 36.084 99.8535 34.0332L99.8535 16.6016C99.8535 14.5996 98.3887 13.0859 96.3379 13.0859L16.8945 13.0859C14.8438 13.0859 13.3301 14.5996 13.3301 16.6016L13.3301 34.0332C13.3301 36.084 14.8438 37.5488 16.8945 37.5488ZM16.8945 68.6523L96.3379 68.6523C98.3887 68.6523 99.8535 67.1387 99.8535 65.1367L99.8535 47.7051C99.8535 45.6543 98.3887 44.1895 96.3379 44.1895L16.8945 44.1895C14.8438 44.1895 13.3301 45.6543 13.3301 47.7051L13.3301 65.1367C13.3301 67.1387 14.8438 68.6523 16.8945 68.6523ZM16.8945 99.707L96.3379 99.707C98.3887 99.707 99.8535 98.2422 99.8535 96.2402L99.8535 78.7598C99.8535 76.7578 98.3887 75.293 96.3379 75.293L16.8945 75.293C14.8438 75.293 13.3301 76.7578 13.3301 78.7598L13.3301 96.2402C13.3301 98.2422 14.8438 99.707 16.8945 99.707Z" fill="#000000" fill-opacity="0.85"/>
  <path d="M0.146484 3.90625C0.146484 6.05469 1.95312 7.86133 4.10156 7.86133L99.8535 7.86133C102.002 7.86133 103.809 6.05469 103.809 3.90625C103.809 1.75781 102.002 0 99.8535 0L4.10156 0C1.95312 0 0.146484 1.75781 0.146484 3.90625ZM4.10156 19.1895C5.9082 19.1895 7.42188 17.6758 7.42188 15.8691C7.42188 14.0137 5.9082 12.5488 4.10156 12.5488C2.24609 12.5488 0.732422 14.0137 0.732422 15.8691C0.732422 17.6758 2.24609 19.1895 4.10156 19.1895ZM4.10156 30.5176C5.9082 30.5176 7.42188 28.9551 7.42188 27.1484C7.42188 25.3418 5.9082 23.8281 4.10156 23.8281C2.24609 23.8281 0.732422 25.3418 0.732422 27.1484C0.732422 28.9551 2.24609 30.5176 4.10156 30.5176ZM4.10156 41.7969C5.9082 41.7969 7.42188 40.2832 7.42188 38.4766C7.42188 36.6211 5.9082 35.1562 4.10156 35.1562C2.24609 35.1562 0.732422 36.6211 0.732422 38.4766C0.732422 40.2832 2.24609 41.7969 4.10156 41.7969ZM4.10156 65.7715C6.20117 65.7715 8.00781 64.0137 8.00781 61.8652L8.00781 50.3906C8.00781 48.2422 6.25 46.4355 4.10156 46.4355C1.95312 46.4355 0.146484 48.2422 0.146484 50.3906L0.146484 61.8652C0.146484 64.0137 1.95312 65.7715 4.10156 65.7715Z" fill="#000000" fill-opacity="0.85"/>
 </g>
</svg>
