<?xml version="1.0" encoding="UTF-8"?>
<!--Generator: Apple Native CoreSVG 232.5-->
<!DOCTYPE svg
PUBLIC "-//W3C//DTD SVG 1.1//EN"
       "http://www.w3.org/Graphics/SVG/1.1/DTD/svg11.dtd">
<svg version="1.1" xmlns="http://www.w3.org/2000/svg" xmlns:xlink="http://www.w3.org/1999/xlink" width="77.6369" height="109.912">
 <g>
  <rect height="109.912" opacity="0" width="77.6369" x="0" y="0"/>
  <path d="M0.00010148 39.0137C0.00010148 50.4883 5.07823 60.8887 13.086 68.0176L13.1349 104.883C13.1349 107.812 14.6485 109.033 16.6505 109.033C18.3595 109.033 19.629 108.057 20.9474 106.738L36.8165 90.918C37.6954 90.1367 38.2814 89.8438 38.8673 89.8438C39.4532 89.8438 40.088 90.1367 40.9181 90.918L56.7872 106.738C58.1544 108.105 59.4728 109.033 61.0841 109.033C63.1837 109.033 64.6485 107.812 64.6485 104.883L64.6485 67.8711C72.5587 60.791 77.588 50.4395 77.6368 39.0137C77.6856 17.5293 60.1075 0 38.8185 0C17.4806 0 0.00010148 17.5293 0.00010148 39.0137ZM7.95909 39.0137C7.95909 21.6797 21.4845 7.76367 38.8673 7.76367C56.2013 7.76367 69.7267 21.6797 69.7755 39.0137C69.8243 56.2988 56.2013 70.2148 38.8673 70.166C21.4845 70.1172 7.95909 56.2988 7.95909 39.0137Z" fill="#000000" fill-opacity="0.85"/>
 </g>
</svg>
