<?xml version="1.0" encoding="UTF-8"?>
<!--Generator: Apple Native CoreSVG 232.5-->
<!DOCTYPE svg
PUBLIC "-//W3C//DTD SVG 1.1//EN"
       "http://www.w3.org/Graphics/SVG/1.1/DTD/svg11.dtd">
<svg version="1.1" xmlns="http://www.w3.org/2000/svg" xmlns:xlink="http://www.w3.org/1999/xlink" width="122.217" height="123.634">
 <g>
  <rect height="123.634" opacity="0" width="122.217" x="0" y="0"/>
  <path d="M119.141 43.3845C120.801 43.3845 122.217 42.0173 122.217 40.3572L122.217 33.0329C122.217 19.0681 112.891 9.64427 98.877 9.64427L97.8516 9.64427L97.8516 3.49193C97.8516-0.121351 95.1172-0.951429 92.3828 1.09935L80.0781 10.1326C78.0273 11.6462 77.9785 13.404 80.0781 14.9177L92.3828 23.9021C95.1172 25.904 97.8516 25.074 97.8516 21.5583L97.8516 15.3083L98.8281 15.3083C109.424 15.3083 116.113 22.6326 116.113 33.0329L116.113 40.3572C116.113 42.0173 117.48 43.3845 119.141 43.3845Z" fill="#000000" fill-opacity="0.85"/>
  <path d="M36.9141 106.763L85.3027 106.763C93.6523 106.763 97.8516 102.808 97.8516 94.2634L97.8516 45.9724C97.8516 37.4275 93.6523 33.4236 85.3027 33.4236L36.9141 33.4236C28.5645 33.4236 24.3652 37.4275 24.3652 45.9724L24.3652 94.2634C24.3652 102.808 28.5645 106.763 36.9141 106.763ZM37.0605 98.9021C33.7402 98.9021 32.2266 97.5349 32.2266 94.1169L32.2266 46.0701C32.2266 42.6521 33.7402 41.2849 37.0605 41.2849L85.1562 41.2849C88.5254 41.2849 89.9902 42.6521 89.9902 46.0701L89.9902 94.1169C89.9902 97.5349 88.5254 98.9021 85.1562 98.9021Z" fill="#000000" fill-opacity="0.85"/>
 </g>
</svg>
