<?xml version="1.0" encoding="UTF-8"?>
<!--Generator: Apple Native CoreSVG 232.5-->
<!DOCTYPE svg
PUBLIC "-//W3C//DTD SVG 1.1//EN"
       "http://www.w3.org/Graphics/SVG/1.1/DTD/svg11.dtd">
<svg version="1.1" xmlns="http://www.w3.org/2000/svg" xmlns:xlink="http://www.w3.org/1999/xlink" width="122.119" height="123.634">
 <g>
  <rect height="123.634" opacity="0" width="122.119" x="0" y="0"/>
  <path d="M3.02734 43.3845C4.6875 43.3845 6.10352 42.0173 6.10352 40.3572L6.10352 33.0329C6.10352 22.6326 12.793 15.3083 23.3887 15.3083L24.3164 15.3083L24.3164 21.5583C24.3164 25.074 27.0508 25.904 29.7852 23.9021L42.0898 14.9177C44.1895 13.404 44.1406 11.6462 42.0898 10.1326L29.7852 1.09935C27.0508-0.951429 24.3164-0.121351 24.3164 3.49193L24.3164 9.64427L23.3398 9.64427C9.27734 9.64427 0 19.0681 0 33.0329L0 40.3572C0 42.0173 1.36719 43.3845 3.02734 43.3845Z" fill="#000000" fill-opacity="0.85"/>
  <path d="M85.2539 106.763C93.6035 106.763 97.8027 102.808 97.8027 94.2634L97.8027 45.9724C97.8027 37.4275 93.6035 33.4236 85.2539 33.4236L36.8652 33.4236C28.5156 33.4236 24.3164 37.4275 24.3164 45.9724L24.3164 94.2634C24.3164 102.808 28.5156 106.763 36.8652 106.763ZM85.1074 98.9021L37.0117 98.9021C33.6914 98.9021 32.1777 97.5349 32.1777 94.1169L32.1777 46.0701C32.1777 42.6521 33.6914 41.2849 37.0117 41.2849L85.1074 41.2849C88.4766 41.2849 89.9414 42.6521 89.9414 46.0701L89.9414 94.1169C89.9414 97.5349 88.4766 98.9021 85.1074 98.9021Z" fill="#000000" fill-opacity="0.85"/>
 </g>
</svg>
