<?xml version="1.0" encoding="UTF-8"?>
<!--Generator: Apple Native CoreSVG 232.5-->
<!DOCTYPE svg
PUBLIC "-//W3C//DTD SVG 1.1//EN"
       "http://www.w3.org/Graphics/SVG/1.1/DTD/svg11.dtd">
<svg version="1.1" xmlns="http://www.w3.org/2000/svg" xmlns:xlink="http://www.w3.org/1999/xlink" width="99.6094" height="99.6582">
 <g>
  <rect height="99.6582" opacity="0" width="99.6094" x="0" y="0"/>
  <path d="M33.0078 49.8047C33.0078 78.8086 39.9902 99.1699 49.7559 99.1699L49.7559 91.3086C45.6543 91.3086 40.8691 77.5391 40.8691 49.8047C40.8691 22.0703 45.6543 8.30078 49.7559 8.30078L49.7559 0.439453C39.9902 0.439453 33.0078 20.8008 33.0078 49.8047ZM49.8535 66.5039C78.8574 66.5039 99.2188 59.4727 99.2188 49.8047L91.3574 49.8047C91.3574 53.8574 77.5879 58.6426 49.8535 58.6426C22.1191 58.6426 8.34961 53.8574 8.34961 49.8047L0.488281 49.8047C0.488281 59.4727 20.8496 66.5039 49.8535 66.5039ZM49.8047 99.6094C77.0508 99.6094 99.6094 77.002 99.6094 49.8047C99.6094 22.5586 77.002 0 49.7559 0C22.5586 0 0 22.5586 0 49.8047C0 77.002 22.6074 99.6094 49.8047 99.6094ZM49.8047 91.3086C26.7578 91.3086 8.34961 72.8516 8.34961 49.8047C8.34961 26.7578 26.709 8.30078 49.7559 8.30078C72.8027 8.30078 91.3086 26.7578 91.3086 49.8047C91.3086 72.8516 72.8516 91.3086 49.8047 91.3086Z" fill="#000000" fill-opacity="0.85"/>
 </g>
</svg>
