<?xml version="1.0" encoding="UTF-8"?>
<!--Generator: Apple Native CoreSVG 232.5-->
<!DOCTYPE svg
PUBLIC "-//W3C//DTD SVG 1.1//EN"
       "http://www.w3.org/Graphics/SVG/1.1/DTD/svg11.dtd">
<svg version="1.1" xmlns="http://www.w3.org/2000/svg" xmlns:xlink="http://www.w3.org/1999/xlink" width="99.6094" height="99.6582">
 <g>
  <rect height="99.6582" opacity="0" width="99.6094" x="0" y="0"/>
  <path d="M49.8047 99.6094C77.0508 99.6094 99.6094 77.002 99.6094 49.8047C99.6094 22.5586 77.002 0 49.7559 0C22.5586 0 0 22.5586 0 49.8047C0 77.002 22.6074 99.6094 49.8047 99.6094ZM49.8047 91.3086C26.7578 91.3086 8.34961 72.8516 8.34961 49.8047C8.34961 26.7578 26.709 8.30078 49.7559 8.30078C72.8027 8.30078 91.3086 26.7578 91.3086 49.8047C91.3086 72.8516 72.8516 91.3086 49.8047 91.3086Z" fill="#000000" fill-opacity="0.85"/>
  <path d="M39.4043 55.4688C39.3066 53.6133 39.2578 51.709 39.2578 49.8047C39.2578 37.5977 41.0645 27.6367 43.9453 22.0703C31.25 24.8047 21.5332 36.2793 21.4844 49.7559C21.4844 52.4414 28.418 54.5898 39.4043 55.4688ZM43.8965 55.7129C45.752 55.7129 47.7539 55.8105 49.8047 55.8105C66.5527 55.8105 78.0762 53.1738 78.125 49.8047C78.125 34.3262 65.2344 21.4844 49.7559 21.4844C46.3379 21.5332 43.7988 33.0566 43.7988 49.8047C43.7988 51.8555 43.8477 53.7598 43.8965 55.7129ZM39.6973 59.8633C32.1289 59.1797 26.0254 57.6172 22.0703 55.6152C24.4141 66.5039 33.1055 75.1953 43.9453 77.5391C41.9434 73.584 40.3809 67.4316 39.6973 59.8633ZM44.1406 60.1562C44.9219 71.1426 47.1191 78.125 49.8047 78.125C63.3301 78.0762 74.7559 68.3594 77.5391 55.6152C71.9727 58.4961 62.0117 60.3027 49.8047 60.3027C47.8516 60.3027 45.9473 60.2539 44.1406 60.1562Z" fill="#000000" fill-opacity="0.85"/>
 </g>
</svg>
