<?xml version="1.0" encoding="UTF-8"?>
<!--Generator: Apple Native CoreSVG 232.5-->
<!DOCTYPE svg
PUBLIC "-//W3C//DTD SVG 1.1//EN"
       "http://www.w3.org/Graphics/SVG/1.1/DTD/svg11.dtd">
<svg version="1.1" xmlns="http://www.w3.org/2000/svg" xmlns:xlink="http://www.w3.org/1999/xlink" width="112.646" height="85.2051">
 <g>
  <rect height="85.2051" opacity="0" width="112.646" x="0" y="0"/>
  <path d="M40.9668 0C12.6465 0 0 13.0371 0 39.6973L0 70.3125C0 80.1758 5.07812 85.1562 14.9902 85.1562L97.6562 85.1562C107.568 85.1562 112.646 80.127 112.646 70.3125L112.646 39.6973C112.646 13.0371 100 0 71.6797 0ZM40.9668 7.86133L71.6309 7.86133C94.7266 7.86133 104.785 17.8711 104.785 39.1602L104.785 69.9219C104.785 74.8047 102.148 77.2949 97.4609 77.2949L15.1855 77.2949C10.4004 77.2949 7.86133 74.8047 7.86133 69.9219L7.86133 39.1602C7.86133 17.8711 17.9199 7.86133 40.9668 7.86133Z" fill="#000000" fill-opacity="0.85"/>
  <path d="M34.2285 63.0371C36.4258 63.0371 37.7441 61.5723 37.7441 59.2773L37.7441 47.2656L42.3828 47.2656L47.4609 60.0586C48.1934 61.9141 49.2676 63.0371 51.2207 63.0371C52.832 63.0371 54.541 62.0605 54.541 59.5703C54.541 58.9844 54.248 58.0078 53.7598 56.8848L49.1211 45.8008C53.0762 43.75 54.7852 39.5508 54.7852 35.1074C54.7852 27.1484 50.0488 22.9004 42.4316 22.9004L34.1797 22.9004C31.8359 22.9004 30.5664 24.3164 30.5664 26.6113L30.5664 59.2773C30.5664 61.5234 31.8848 63.0371 34.2285 63.0371ZM37.7441 42.041L37.7441 28.5645L41.7969 28.5645C45.5078 28.5645 47.5586 31.3477 47.5586 35.2539C47.5586 39.1602 45.752 42.041 41.7969 42.041ZM71.4355 62.9883C73.3887 62.9883 75 61.377 75 59.375L75 28.7598L80.9082 28.7598C82.5195 28.7598 83.8379 27.4902 83.8379 25.7812C83.8379 24.1699 82.5195 22.9004 80.9082 22.9004L61.7676 22.9004C60.1074 22.9004 58.7891 24.1699 58.7891 25.7812C58.7891 27.4902 60.1074 28.7598 61.7676 28.7598L67.8711 28.7598L67.8711 59.375C67.8711 61.377 69.4824 62.9883 71.4355 62.9883Z" fill="#000000" fill-opacity="0.85"/>
 </g>
</svg>
