<?xml version="1.0" encoding="UTF-8"?>
<!--Generator: Apple Native CoreSVG 232.5-->
<!DOCTYPE svg
PUBLIC "-//W3C//DTD SVG 1.1//EN"
       "http://www.w3.org/Graphics/SVG/1.1/DTD/svg11.dtd">
<svg version="1.1" xmlns="http://www.w3.org/2000/svg" xmlns:xlink="http://www.w3.org/1999/xlink" width="99.6094" height="99.6582">
 <g>
  <rect height="99.6582" opacity="0" width="99.6094" x="0" y="0"/>
  <path d="M49.8047 99.6094C77.0508 99.6094 99.6094 77.002 99.6094 49.8047C99.6094 22.5586 77.002 0 49.7559 0C22.5586 0 0 22.5586 0 49.8047C0 77.002 22.6074 99.6094 49.8047 99.6094ZM49.8047 91.3086C26.7578 91.3086 8.34961 72.8516 8.34961 49.8047C8.34961 26.7578 26.709 8.30078 49.7559 8.30078C72.8027 8.30078 91.3086 26.7578 91.3086 49.8047C91.3086 72.8516 72.8516 91.3086 49.8047 91.3086Z" fill="#000000" fill-opacity="0.85"/>
  <path d="M27.6367 70.2148C29.834 70.2148 31.1523 68.7988 31.1523 66.5039L31.1523 54.4922L35.791 54.4922L40.8691 67.2852C41.6016 69.1406 42.6758 70.2148 44.6289 70.2148C46.2402 70.2148 47.9492 69.2871 47.9492 66.748C47.9492 66.2109 47.6562 65.2344 47.168 64.1113L42.5293 53.0273C46.4844 50.9766 48.1934 46.7285 48.1934 42.334C48.1934 34.375 43.457 30.127 35.8398 30.127L27.5879 30.127C25.2441 30.127 23.9746 31.543 23.9746 33.8379L23.9746 66.5039C23.9746 68.75 25.293 70.2148 27.6367 70.2148ZM31.1523 49.2676L31.1523 35.791L35.2051 35.791C38.916 35.791 40.9668 38.5742 40.9668 42.4805C40.9668 46.3379 39.1602 49.2676 35.2051 49.2676ZM64.8438 70.166C66.7969 70.166 68.4082 68.6035 68.4082 66.6016L68.4082 35.9863L74.3164 35.9863C75.9277 35.9863 77.2461 34.668 77.2461 33.0078C77.2461 31.3965 75.9277 30.0781 74.3164 30.0781L55.1758 30.0781C53.5156 30.0781 52.1973 31.3965 52.1973 33.0078C52.1973 34.668 53.5156 35.9863 55.1758 35.9863L61.2793 35.9863L61.2793 66.6016C61.2793 68.6035 62.8906 70.166 64.8438 70.166Z" fill="#000000" fill-opacity="0.85"/>
 </g>
</svg>
