<?xml version="1.0" encoding="UTF-8"?>
<!--Generator: Apple Native CoreSVG 232.5-->
<!DOCTYPE svg
PUBLIC "-//W3C//DTD SVG 1.1//EN"
       "http://www.w3.org/Graphics/SVG/1.1/DTD/svg11.dtd">
<svg version="1.1" xmlns="http://www.w3.org/2000/svg" xmlns:xlink="http://www.w3.org/1999/xlink" width="99.6094" height="99.6582">
 <g>
  <rect height="99.6582" opacity="0" width="99.6094" x="0" y="0"/>
  <path d="M49.8047 99.6094C77.0508 99.6094 99.6094 77.002 99.6094 49.8047C99.6094 22.5586 77.002 0 49.7559 0C22.5586 0 0 22.5586 0 49.8047C0 77.002 22.6074 99.6094 49.8047 99.6094ZM49.8047 91.3086C26.7578 91.3086 8.34961 72.8516 8.34961 49.8047C8.34961 26.7578 26.709 8.30078 49.7559 8.30078C72.8027 8.30078 91.3086 26.7578 91.3086 49.8047C91.3086 72.8516 72.8516 91.3086 49.8047 91.3086Z" fill="#000000" fill-opacity="0.85"/>
  <path d="M41.5039 74.2188C43.3594 74.2188 44.6289 72.9004 44.6289 70.9961L44.6289 66.0645L56.0547 66.0645C57.4707 66.0645 58.3984 65.0391 58.3984 63.623C58.3984 62.2559 57.4707 61.2305 56.0547 61.2305L44.6289 61.2305L44.6289 56.4453L52.9785 56.4453C62.1094 56.4453 67.8711 50.3906 67.8711 41.9434C67.8711 33.5449 62.1582 27.3926 53.0273 27.3926L41.4551 27.3926C39.5508 27.3926 38.2812 28.7109 38.2812 30.6641L38.2812 51.6602L33.9355 51.6602C32.4707 51.6602 31.543 52.6855 31.543 54.0527C31.543 55.4199 32.4707 56.4941 33.9355 56.4941L38.2812 56.4941L38.2812 61.2305L33.9844 61.2305C32.5684 61.2305 31.5918 62.2559 31.5918 63.623C31.5918 65.0391 32.5684 66.0645 33.9844 66.0645L38.2812 66.0645L38.2812 70.9961C38.2812 72.9004 39.6484 74.2188 41.5039 74.2188ZM44.6777 50.7324L44.6777 33.252L51.9043 33.252C58.252 33.252 61.4746 36.6211 61.4746 41.9922C61.4746 47.4121 58.2031 50.8301 51.9043 50.8301Z" fill="#000000" fill-opacity="0.85"/>
 </g>
</svg>
