<?xml version="1.0" encoding="UTF-8"?>
<!--Generator: Apple Native CoreSVG 232.5-->
<!DOCTYPE svg
PUBLIC "-//W3C//DTD SVG 1.1//EN"
       "http://www.w3.org/Graphics/SVG/1.1/DTD/svg11.dtd">
<svg version="1.1" xmlns="http://www.w3.org/2000/svg" xmlns:xlink="http://www.w3.org/1999/xlink" width="99.6094" height="99.6582">
 <g>
  <rect height="99.6582" opacity="0" width="99.6094" x="0" y="0"/>
  <path d="M99.6094 49.8047C99.6094 77.002 77.0508 99.6094 49.8047 99.6094C22.6074 99.6094 0 77.002 0 49.8047C0 22.5586 22.5586 0 49.7559 0C77.002 0 99.6094 22.5586 99.6094 49.8047ZM41.2598 26.709C39.2578 26.709 37.9395 28.0762 37.9395 30.0781L37.9395 51.709L33.4961 51.709C31.9824 51.709 31.0059 52.7832 31.0059 54.1992C31.0059 55.6152 31.9824 56.7383 33.4961 56.7383L37.9395 56.7383L37.9395 61.6211L33.5449 61.6211C32.0801 61.6211 31.0547 62.6953 31.0547 64.1113C31.0547 65.5762 32.0801 66.6016 33.5449 66.6016L37.9395 66.6016L37.9395 71.6797C37.9395 73.6328 39.3555 75 41.3086 75C43.2129 75 44.5312 73.6328 44.5312 71.6797L44.5312 66.6016L56.2988 66.6016C57.7637 66.6016 58.7402 65.5762 58.7402 64.1113C58.7402 62.6953 57.7637 61.6211 56.2988 61.6211L44.5312 61.6211L44.5312 56.6895L53.125 56.6895C62.5488 56.6895 68.5059 50.4395 68.5059 41.6992C68.5059 33.0566 62.5977 26.709 53.1738 26.709ZM61.8652 41.748C61.8652 47.3633 58.4961 50.8789 52.002 50.8789L44.5801 50.7812L44.5801 32.7637L52.002 32.7637C58.5449 32.7637 61.8652 36.2305 61.8652 41.748Z" fill="#000000" fill-opacity="0.85"/>
 </g>
</svg>
