<?xml version="1.0" encoding="UTF-8"?>
<!--Generator: Apple Native CoreSVG 232.5-->
<!DOCTYPE svg
PUBLIC "-//W3C//DTD SVG 1.1//EN"
       "http://www.w3.org/Graphics/SVG/1.1/DTD/svg11.dtd">
<svg version="1.1" xmlns="http://www.w3.org/2000/svg" xmlns:xlink="http://www.w3.org/1999/xlink" width="68.2129" height="91.0645">
 <g>
  <rect height="91.0645" opacity="0" width="68.2129" x="0" y="0"/>
  <path d="M0 53.0273C0 54.7852 1.41602 56.2012 3.17383 56.2012L13.2812 56.2012L13.2812 86.377C13.2812 88.9648 15.332 91.0645 17.9199 91.0645C20.5078 91.0645 22.6074 88.9648 22.6074 86.377L22.6074 56.2012L40.5762 56.2012C57.4707 56.2012 68.2129 44.9707 68.2129 29.2969C68.2129 13.6719 57.5684 2.29492 40.6738 2.29492L17.9199 2.29492C15.0879 2.29492 13.2812 4.19922 13.2812 7.12891L13.2812 49.8535L3.17383 49.8535C1.41602 49.8535 0 51.2695 0 53.0273ZM22.6074 48.0957L22.6074 10.5957L38.3789 10.5957C51.8066 10.5957 58.6426 17.8223 58.6426 29.2969C58.6426 40.8203 51.709 48.0957 38.3789 48.0957ZM0 71.9238C0 73.6816 1.41602 75.1465 3.17383 75.1465L46.3379 75.1465C48.0957 75.1465 49.5117 73.6816 49.5117 71.9238C49.5117 70.2148 48.0957 68.75 46.3379 68.75L3.17383 68.75C1.41602 68.75 0 70.2148 0 71.9238Z" fill="#000000" fill-opacity="0.85"/>
 </g>
</svg>
