<?xml version="1.0" encoding="UTF-8"?>
<!--Generator: Apple Native CoreSVG 232.5-->
<!DOCTYPE svg
PUBLIC "-//W3C//DTD SVG 1.1//EN"
       "http://www.w3.org/Graphics/SVG/1.1/DTD/svg11.dtd">
<svg version="1.1" xmlns="http://www.w3.org/2000/svg" xmlns:xlink="http://www.w3.org/1999/xlink" width="89.8926" height="89.9902">
 <g>
  <rect height="89.9902" opacity="0" width="89.8926" x="0" y="0"/>
  <path d="M15.332 89.9902L74.5605 89.9902C84.8145 89.9902 89.8926 84.9121 89.8926 74.8535L89.8926 15.2344C89.8926 5.17578 84.8145 0.0976562 74.5605 0.0976562L15.332 0.0976562C5.12695 0.0976562 0 5.12695 0 15.2344L0 74.8535C0 84.9609 5.12695 89.9902 15.332 89.9902ZM15.4297 82.1289C10.5469 82.1289 7.86133 79.541 7.86133 74.4629L7.86133 15.625C7.86133 10.5469 10.5469 7.95898 15.4297 7.95898L74.4629 7.95898C79.2969 7.95898 82.0312 10.5469 82.0312 15.625L82.0312 74.4629C82.0312 79.541 79.2969 82.1289 74.4629 82.1289Z" fill="#000000" fill-opacity="0.85"/>
  <path d="M36.7188 69.3848C38.5742 69.3848 39.8926 68.0664 39.8926 66.1621L39.8926 61.2305L51.2695 61.2305C52.6855 61.2305 53.6133 60.2051 53.6133 58.7891C53.6133 57.4219 52.6855 56.3965 51.2695 56.3965L39.8926 56.3965L39.8926 51.6113L48.2422 51.6113C57.3242 51.6113 63.0859 45.5566 63.0859 37.1094C63.0859 28.7109 57.373 22.5586 48.291 22.5586L36.6699 22.5586C34.7656 22.5586 33.5449 23.877 33.5449 25.8301L33.5449 46.8262L29.1504 46.8262C27.7344 46.8262 26.7578 47.8516 26.7578 49.2188C26.7578 50.5859 27.7344 51.6602 29.1504 51.6602L33.5449 51.6602L33.5449 56.3965L29.1992 56.3965C27.7832 56.3965 26.8555 57.4219 26.8555 58.7891C26.8555 60.2051 27.7832 61.2305 29.1992 61.2305L33.5449 61.2305L33.5449 66.1621C33.5449 68.0664 34.8633 69.3848 36.7188 69.3848ZM39.9414 45.8984L39.9414 28.418L47.168 28.418C53.4668 28.418 56.6895 31.7871 56.6895 37.1582C56.6895 42.5781 53.418 45.9961 47.168 45.9961Z" fill="#000000" fill-opacity="0.85"/>
 </g>
</svg>
