<?xml version="1.0" encoding="UTF-8"?>
<!--Generator: Apple Native CoreSVG 232.5-->
<!DOCTYPE svg
PUBLIC "-//W3C//DTD SVG 1.1//EN"
       "http://www.w3.org/Graphics/SVG/1.1/DTD/svg11.dtd">
<svg version="1.1" xmlns="http://www.w3.org/2000/svg" xmlns:xlink="http://www.w3.org/1999/xlink" width="99.6094" height="99.6582">
 <g>
  <rect height="99.6582" opacity="0" width="99.6094" x="0" y="0"/>
  <path d="M99.6094 49.8047C99.6094 77.002 77.0508 99.6094 49.8047 99.6094C22.6074 99.6094 0 77.002 0 49.8047C0 22.5586 22.5586 0 49.7559 0C77.002 0 99.6094 22.5586 99.6094 49.8047ZM53.5645 47.8027C53.5645 52.6855 55.5664 55.9082 60.2539 58.3496L62.2559 59.4238C64.7949 60.7422 65.8691 62.4512 65.8691 65.0879C65.8691 68.0176 64.6484 69.5801 62.3535 69.5801C60.0098 69.5801 58.8867 67.6758 58.6914 64.5508C58.5449 62.5488 57.5195 61.377 55.8594 61.377C54.1504 61.377 53.125 62.6465 53.125 64.6484C53.125 65.2344 53.125 65.8203 53.2227 66.3574C53.8086 71.4844 57.0801 75 62.3535 75C67.9688 75 71.6309 70.9473 71.6309 64.6973C71.6309 59.668 69.873 56.6895 64.9902 54.0039L63.0859 52.9297C60.4004 51.5137 59.2773 50.0488 59.2773 47.6074C59.2773 44.9219 60.3516 43.3105 62.3047 43.3105C64.6484 43.3105 65.332 45.0195 65.625 48.291C65.7715 50.2441 66.6504 51.4648 68.3594 51.4648C70.1172 51.4648 71.1426 50.1953 71.1426 48.1934C71.1426 47.6562 71.0938 47.2168 71.0449 46.6797C70.5078 41.6504 67.5293 37.793 62.3535 37.793C57.1289 37.793 53.5645 41.7969 53.5645 47.8027ZM34.4727 26.0254C32.7148 26.0254 31.543 27.2949 31.543 29.3945L31.543 71.5332C31.543 73.6328 32.666 74.9512 34.375 74.9512C36.084 74.9512 37.3047 73.7305 37.3047 71.6797L37.3047 54.6387L39.5996 54.6387L45.8496 72.8516C46.3867 74.4141 47.3633 74.9512 48.6816 74.9512C50.293 74.9512 51.4648 73.6816 51.4648 72.0215C51.4648 71.3379 51.3672 70.8496 51.0742 70.0684L45.2148 53.418C49.2676 51.3672 51.5137 46.1426 51.5137 40.1367C51.5137 30.6641 47.8027 26.0254 40.4297 26.0254ZM45.6543 40.332C45.6543 45.9961 43.8965 48.877 39.8438 48.877L37.3047 48.877L37.3047 31.8359L40.0391 31.8359C43.8965 31.8359 45.6543 34.7168 45.6543 40.332Z" fill="#000000" fill-opacity="0.85"/>
 </g>
</svg>
