<?xml version="1.0" encoding="UTF-8"?>
<!--Generator: Apple Native CoreSVG 232.5-->
<!DOCTYPE svg
PUBLIC "-//W3C//DTD SVG 1.1//EN"
       "http://www.w3.org/Graphics/SVG/1.1/DTD/svg11.dtd">
<svg version="1.1" xmlns="http://www.w3.org/2000/svg" xmlns:xlink="http://www.w3.org/1999/xlink" width="89.8926" height="89.9902">
 <g>
  <rect height="89.9902" opacity="0" width="89.8926" x="0" y="0"/>
  <path d="M15.332 89.9902L74.5605 89.9902C84.8145 89.9902 89.8926 84.9121 89.8926 74.8535L89.8926 15.2344C89.8926 5.17578 84.8145 0.0976562 74.5605 0.0976562L15.332 0.0976562C5.12695 0.0976562 0 5.12695 0 15.2344L0 74.8535C0 84.9609 5.12695 89.9902 15.332 89.9902ZM15.4297 82.1289C10.5469 82.1289 7.86133 79.541 7.86133 74.4629L7.86133 15.625C7.86133 10.5469 10.5469 7.95898 15.4297 7.95898L74.4629 7.95898C79.2969 7.95898 82.0312 10.5469 82.0312 15.625L82.0312 74.4629C82.0312 79.541 79.2969 82.1289 74.4629 82.1289Z" fill="#000000" fill-opacity="0.85"/>
  <path d="M30.0293 69.3359C31.6895 69.3359 32.8613 68.1641 32.8613 66.2109L32.8613 49.6582L35.1074 49.6582L41.1621 67.334C41.6992 68.8477 42.627 69.3359 43.8965 69.3359C45.5078 69.3359 46.582 68.1152 46.582 66.5039C46.582 65.8691 46.4844 65.3809 46.2402 64.6484L40.5273 48.4863C44.4336 46.4844 46.6309 41.4551 46.6309 35.6445C46.6309 26.4648 43.0176 21.9727 35.8887 21.9727L30.1758 21.9727C28.418 21.9727 27.2949 23.1934 27.2949 25.1953L27.2949 66.0645C27.2949 68.0664 28.3691 69.3359 30.0293 69.3359ZM32.8613 44.0918L32.8613 27.5879L35.498 27.5879C39.2578 27.5879 40.9668 30.3711 40.9668 35.791C40.9668 41.3086 39.2578 44.0918 35.3516 44.0918ZM57.1289 69.3848C62.5488 69.3848 66.1133 65.4785 66.1133 59.4238C66.1133 54.541 64.4043 51.6602 59.7168 49.0723L57.8125 48.0469C55.2246 46.6309 54.1504 45.2148 54.1504 42.8711C54.1504 40.2344 55.1758 38.6719 57.0801 38.6719C59.375 38.6719 60.0098 40.332 60.3027 43.5059C60.4492 45.4102 61.2793 46.582 62.9395 46.582C64.6484 46.582 65.625 45.3613 65.625 43.4082C65.625 42.9199 65.5762 42.4805 65.5273 41.9922C65.0391 37.1094 62.207 33.3496 57.1289 33.3496C52.0508 33.3496 48.6816 37.207 48.6816 43.0664C48.6816 47.7539 50.5371 50.8789 55.0781 53.2715L57.0312 54.2969C59.5215 55.5664 60.5469 57.2266 60.5469 59.8145C60.5469 62.6465 59.375 64.1602 57.1777 64.1602C54.834 64.1602 53.8086 62.3047 53.5645 59.2773C53.418 57.3242 52.4902 56.2012 50.8789 56.2012C49.1699 56.2012 48.1934 57.4219 48.1934 59.375C48.1934 59.9609 48.1934 60.498 48.291 61.0352C48.877 66.0156 52.0508 69.3848 57.1289 69.3848Z" fill="#000000" fill-opacity="0.85"/>
 </g>
</svg>
