<?xml version="1.0" encoding="UTF-8"?>
<!--Generator: Apple Native CoreSVG 232.5-->
<!DOCTYPE svg
PUBLIC "-//W3C//DTD SVG 1.1//EN"
       "http://www.w3.org/Graphics/SVG/1.1/DTD/svg11.dtd">
<svg version="1.1" xmlns="http://www.w3.org/2000/svg" xmlns:xlink="http://www.w3.org/1999/xlink" width="89.8926" height="89.9902">
 <g>
  <rect height="89.9902" opacity="0" width="89.8926" x="0" y="0"/>
  <path d="M89.8926 15.2344L89.8926 74.8535C89.8926 84.9121 84.8145 89.9902 74.5605 89.9902L15.332 89.9902C5.12695 89.9902 0 84.9609 0 74.8535L0 15.2344C0 5.12695 5.12695 0.0976562 15.332 0.0976562L74.5605 0.0976562C84.8145 0.0976562 89.8926 5.17578 89.8926 15.2344ZM48.7793 42.9688C48.7793 47.8516 50.7324 51.0742 55.4199 53.5156L57.4219 54.5898C59.9609 55.9082 61.0352 57.6172 61.0352 60.2539C61.0352 63.1836 59.8145 64.7461 57.5684 64.7461C55.1758 64.7461 54.1016 62.8418 53.8574 59.7168C53.7109 57.7148 52.7344 56.543 51.0742 56.543C49.3164 56.543 48.291 57.8125 48.291 59.8145C48.291 60.4004 48.291 60.9863 48.3887 61.5234C48.9746 66.6504 52.2461 70.166 57.5195 70.166C63.1348 70.166 66.7969 66.1133 66.7969 59.8633C66.7969 54.834 65.0391 51.8555 60.2051 49.1699L58.252 48.0957C55.5664 46.6797 54.4434 45.2148 54.4434 42.7734C54.4434 40.0879 55.5176 38.4766 57.4707 38.4766C59.8145 38.4766 60.498 40.1855 60.791 43.457C60.9375 45.4102 61.8164 46.6309 63.5254 46.6309C65.2832 46.6309 66.3086 45.3613 66.3086 43.3594C66.3086 42.8223 66.2598 42.3828 66.2109 41.8457C65.6738 36.8164 62.7441 32.959 57.5195 32.959C52.2949 32.959 48.7793 36.9629 48.7793 42.9688ZM29.6875 21.1914C27.8809 21.1914 26.709 22.4609 26.709 24.5605L26.709 66.6992C26.709 68.7988 27.832 70.1172 29.541 70.1172C31.25 70.1172 32.4707 68.8965 32.4707 66.8457L32.4707 49.8047L34.7656 49.8047L41.0156 68.0176C41.5527 69.5801 42.5293 70.1172 43.8477 70.1172C45.5078 70.1172 46.6309 68.8477 46.6309 67.1875C46.6309 66.5039 46.5332 66.0156 46.2891 65.2344L40.3809 48.584C44.4336 46.5332 46.6797 41.3086 46.6797 35.3027C46.6797 25.8301 42.9688 21.1914 35.5957 21.1914ZM40.8203 35.498C40.8203 41.1621 39.0625 44.043 35.0098 44.043L32.4707 44.043L32.4707 27.002L35.2051 27.002C39.0625 27.002 40.8203 29.8828 40.8203 35.498Z" fill="#000000" fill-opacity="0.85"/>
 </g>
</svg>
