<?xml version="1.0" encoding="UTF-8"?>
<!--Generator: Apple Native CoreSVG 232.5-->
<!DOCTYPE svg
PUBLIC "-//W3C//DTD SVG 1.1//EN"
       "http://www.w3.org/Graphics/SVG/1.1/DTD/svg11.dtd">
<svg version="1.1" xmlns="http://www.w3.org/2000/svg" xmlns:xlink="http://www.w3.org/1999/xlink" width="99.6094" height="99.6582">
 <g>
  <rect height="99.6582" opacity="0" width="99.6094" x="0" y="0"/>
  <path d="M99.6094 49.8047C99.6094 77.002 77.0508 99.6094 49.8047 99.6094C22.6074 99.6094 0 77.002 0 49.8047C0 22.5586 22.5586 0 49.7559 0C77.002 0 99.6094 22.5586 99.6094 49.8047ZM70.8496 24.4141L42.041 38.4766C40.4785 39.209 39.4043 40.2832 38.5742 41.9922L24.4141 70.8984C22.8516 74.2188 25.4395 76.8555 28.8086 75.2441L57.666 61.084C59.2773 60.3516 60.4004 59.1797 61.1816 57.6172L75.2441 28.7598C76.9043 25.3418 74.4141 22.7051 70.8496 24.4141ZM56.0547 49.8535C56.0547 53.2715 53.2715 56.0547 49.8535 56.0547C46.4844 56.0547 43.7012 53.2715 43.7012 49.8535C43.7012 46.4355 46.4844 43.7012 49.8535 43.7012C53.2715 43.7012 56.0547 46.4355 56.0547 49.8535Z" fill="#000000" fill-opacity="0.85"/>
 </g>
</svg>
