<?xml version="1.0" encoding="UTF-8"?>
<!--Generator: Apple Native CoreSVG 232.5-->
<!DOCTYPE svg
PUBLIC "-//W3C//DTD SVG 1.1//EN"
       "http://www.w3.org/Graphics/SVG/1.1/DTD/svg11.dtd">
<svg version="1.1" xmlns="http://www.w3.org/2000/svg" xmlns:xlink="http://www.w3.org/1999/xlink" width="112.437" height="127.197">
 <g>
  <rect height="127.197" opacity="0" width="112.437" x="0" y="0"/>
  <path d="M12.5175 78.3203L47.1855 78.3203L47.1855 95.1172L53.7773 95.1172L53.7773 78.3203L71.0136 78.3203C85.7109 78.3203 93.8652 70.8008 93.8652 58.6426C93.8652 38.4766 73.5038 15.7715 53.7773 4.93164L53.7773 3.32031C53.7773 1.51367 52.2636 0 50.457 0C48.6503 0 47.1855 1.51367 47.1855 3.32031L47.1855 6.29883C47.1855 23.0469 31.707 53.2715 9.78313 69.1406C5.0468 72.6074 7.68352 78.3203 12.5175 78.3203ZM53.7773 70.166L53.7773 12.3535C61.5898 21.2891 64.9589 33.2031 64.9589 43.457C64.9589 54.9316 60.8085 64.9414 53.7773 70.166ZM0.701094 99.5117L4.11906 111.084C4.26555 111.426 4.31438 111.719 4.46086 112.012C7.29289 111.865 9.53898 110.889 12.957 108.496C16.1796 106.152 21.453 102.295 28.8261 102.295C35.2226 102.295 40.1542 105.273 43.8652 108.008C48.6015 111.572 49.7245 112.207 52.0195 112.207C54.2655 112.207 55.3886 111.572 60.1249 108.008C63.787 105.322 68.7675 102.295 75.164 102.295C82.537 102.295 87.8105 106.152 91.0331 108.496C94.4511 110.889 96.9413 111.963 100.603 112.061L110.857 100.488C114.324 96.4355 111.785 91.0156 106.17 91.0156L6.90227 91.0156C1.58 91.0156-0.714922 94.6289 0.701094 99.5117ZM0.701094 121.338C0.701094 123.242 2.21477 124.805 4.11906 124.805L4.3632 124.805C19.5976 124.805 20.8671 114.893 28.8261 114.893C36.5409 114.893 38.6894 124.805 52.0195 124.805C65.3007 124.805 67.4491 114.893 75.164 114.893C83.123 114.893 84.3925 124.805 99.6269 124.805L104.559 124.805C106.463 124.805 108.025 123.242 108.025 121.338C108.025 119.434 106.463 117.92 104.559 117.92L99.6269 117.92C94.3534 117.92 91.4238 115.723 87.7128 113.135C84.539 110.84 80.5839 108.008 75.164 108.008C69.5976 108.008 65.5937 110.986 62.371 113.379C59.0507 115.918 56.3652 117.92 52.0195 117.92C47.6249 117.92 44.9394 115.918 41.6191 113.379C38.3964 110.986 34.3925 108.008 28.8261 108.008C23.4062 108.008 19.4511 110.84 16.2773 113.135C12.5663 115.723 9.63664 117.92 4.3632 117.92L4.11906 117.92C2.21477 117.92 0.701094 119.434 0.701094 121.338Z" fill="#000000" fill-opacity="0.85"/>
 </g>
</svg>
