<?xml version="1.0" encoding="UTF-8"?>
<!--Generator: Apple Native CoreSVG 232.5-->
<!DOCTYPE svg
PUBLIC "-//W3C//DTD SVG 1.1//EN"
       "http://www.w3.org/Graphics/SVG/1.1/DTD/svg11.dtd">
<svg version="1.1" xmlns="http://www.w3.org/2000/svg" xmlns:xlink="http://www.w3.org/1999/xlink" width="112.437" height="127.197">
 <g>
  <rect height="127.197" opacity="0" width="112.437" x="0" y="0"/>
  <path d="M0.701094 99.5117L4.90031 113.916C5.68156 116.406 6.70695 118.213 8.07414 119.531L14.4218 115.381C12.7128 114.697 11.5898 113.33 10.955 111.084L7.68352 98.9746C7.43938 98.1934 7.73234 97.6562 8.56242 97.6562L103.289 97.6562C104.119 97.6562 104.363 98.3398 103.777 98.9746L93.2304 111.035C91.5702 112.891 90.2519 114.453 87.3222 115.283L93.2792 119.678C95.8183 117.92 97.7714 115.479 100.31 112.598L110.857 100.488C114.324 96.4355 111.785 91.0156 106.17 91.0156L6.90227 91.0156C1.58 91.0156-0.714922 94.6289 0.701094 99.5117ZM47.1855 95.1172L53.7773 95.1172L53.7773 3.32031C53.7773 1.51367 52.2636 0 50.457 0C48.6503 0 47.1855 1.51367 47.1855 3.32031ZM50.9452 78.3203L71.0136 78.3203C85.7109 78.3203 93.8652 70.8008 93.8652 58.6426C93.8652 37.9395 72.3808 14.6484 52.3613 4.19922L48.9921 9.91211C65.5937 17.1387 87.2734 38.8184 87.2734 57.6172C87.2734 66.1133 81.3163 71.6797 71.0624 71.6797L50.9452 71.6797ZM55.0468 12.9883C71.2577 36.2305 66.0331 64.502 50.7011 72.2656L52.0683 78.0273C73.0155 68.4082 77.996 38.0371 60.7109 12.0117ZM12.5175 78.3203L49.7245 78.3203L49.7245 71.6797L18.8652 71.6797C18.2792 71.6797 18.0351 71.0938 18.5234 70.752C35.2226 58.1543 50.6523 29.1504 53.1913 9.27734L47.1855 5.12695C47.5761 21.582 32.1952 52.8809 9.78313 69.1406C5.0468 72.6074 7.68352 78.3203 12.5175 78.3203ZM52.0195 124.805C65.3007 124.805 67.4491 114.893 75.164 114.893C83.123 114.893 84.3925 124.805 99.6269 124.805L104.559 124.805C106.463 124.805 108.025 123.242 108.025 121.338C108.025 119.434 106.463 117.92 104.559 117.92L99.6269 117.92C94.3534 117.92 91.4238 115.723 87.7128 113.135C84.539 110.84 80.5839 108.008 75.164 108.008C69.5976 108.008 65.5937 110.986 62.371 113.379C59.0507 115.918 56.3652 117.92 52.0195 117.92C47.6249 117.92 44.9394 115.918 41.6191 113.379C38.3964 110.986 34.3925 108.008 28.8261 108.008C23.4062 108.008 19.4511 110.84 16.2773 113.135C12.5663 115.723 9.63664 117.92 4.3632 117.92L4.11906 117.92C2.21477 117.92 0.701094 119.434 0.701094 121.338C0.701094 123.242 2.21477 124.805 4.11906 124.805L4.3632 124.805C19.5976 124.805 20.8671 114.893 28.8261 114.893C36.5409 114.893 38.6894 124.805 52.0195 124.805Z" fill="#000000" fill-opacity="0.85"/>
 </g>
</svg>
