<?xml version="1.0" encoding="UTF-8"?>
<!--Generator: Apple Native CoreSVG 232.5-->
<!DOCTYPE svg
PUBLIC "-//W3C//DTD SVG 1.1//EN"
       "http://www.w3.org/Graphics/SVG/1.1/DTD/svg11.dtd">
<svg version="1.1" xmlns="http://www.w3.org/2000/svg" xmlns:xlink="http://www.w3.org/1999/xlink" width="102.148" height="92.627">
 <g>
  <rect height="92.627" opacity="0" width="102.148" x="0" y="0"/>
  <path d="M12.4512 74.6094L16.4062 81.3477L51.2207 63.8672L86.0352 81.3477L89.9902 74.6094L55.1758 57.1289L55.1758 15.918L47.3145 15.918L47.3145 57.1289ZM0.0976562 81.5918C0.0976562 83.5938 0.927734 85.0586 2.68555 86.0352L12.4512 91.748C13.7207 92.5293 14.5996 92.6758 16.3086 91.6992L25.8301 86.1816C27.5879 85.2051 27.9297 84.375 27.8809 82.7637L27.9297 71.4355C27.9297 69.4824 27.0508 68.0664 25.3906 67.0898L15.5762 61.377C14.3066 60.6934 13.2324 60.4492 11.5723 61.377L1.9043 66.9922C0.244141 67.9199 0 68.8965 0 70.2637ZM74.2676 82.8125C74.2188 84.4238 74.5605 85.2539 76.3184 86.2305L85.8398 91.748C87.5488 92.7246 88.4277 92.5781 89.6973 91.7969L99.4629 86.084C101.221 85.1074 102.051 83.6426 102.051 81.6406L102.148 70.3125C102.148 68.9453 101.904 67.9688 100.244 67.041L90.5762 61.4258C88.916 60.498 87.8418 60.7422 86.5723 61.4258L76.7578 67.1387C75.0977 68.1152 74.2188 69.5312 74.2188 71.4844ZM38.7695 24.2676L48.6328 29.9316C50.293 30.8594 51.9043 30.8594 53.5645 29.9316L63.4277 24.2676C64.7949 23.4863 65.3809 22.7539 65.3809 20.752L65.3809 9.7168C65.3809 7.76367 64.7949 7.08008 63.5254 6.34766L53.6621 0.732422C51.9043-0.244141 50.2441-0.244141 48.5352 0.732422L38.6719 6.34766C37.4512 7.03125 36.7676 7.76367 36.7676 9.7168L36.7676 20.752C36.7676 22.7539 37.5 23.5352 38.7695 24.2676Z" fill="#000000" fill-opacity="0.85"/>
 </g>
</svg>
