<?xml version="1.0" encoding="UTF-8"?>
<!--Generator: Apple Native CoreSVG 232.5-->
<!DOCTYPE svg
PUBLIC "-//W3C//DTD SVG 1.1//EN"
       "http://www.w3.org/Graphics/SVG/1.1/DTD/svg11.dtd">
<svg version="1.1" xmlns="http://www.w3.org/2000/svg" xmlns:xlink="http://www.w3.org/1999/xlink" width="96.5492" height="103.271">
 <g>
  <rect height="103.271" opacity="0" width="96.5492" x="0" y="0"/>
  <path d="M0.71599 87.1582C-1.82307 97.3145 2.4738 103.174 12.2883 103.174L84.2609 103.174C94.0754 103.174 98.3722 97.3145 95.8332 87.1582L85.0422 43.5547C83.2355 36.377 78.0597 32.2266 70.7843 32.2266L25.7648 32.2266C18.4894 32.2266 13.2648 36.377 11.507 43.5547ZM8.33318 87.6465L18.8312 46.2891C19.9054 42.0898 22.298 40.0879 26.3508 40.0879L70.1984 40.0879C74.2511 40.0879 76.6437 42.0898 77.7179 46.2891L88.216 87.6465C89.5343 92.6758 87.5812 95.3125 83.2355 95.3125L13.2648 95.3125C8.96794 95.3125 7.01482 92.6758 8.33318 87.6465ZM44.3195 37.9395L52.1808 37.9395L52.1808 24.0234L44.3195 24.0234ZM48.2746 27.832C55.8429 27.832 62.2394 21.5332 62.2394 13.9648C62.2394 6.34766 55.8429 0 48.2746 0C40.6574 0 34.3097 6.34766 34.3097 13.9648C34.3097 21.582 40.7062 27.832 48.2746 27.832ZM48.2746 21.0449C44.4172 21.0449 41.1457 17.8223 41.1457 13.9648C41.1457 10.1074 44.3683 6.78711 48.2746 6.78711C52.132 6.78711 55.4035 10.1074 55.4035 13.9648C55.4035 17.8223 52.1808 21.0449 48.2746 21.0449Z" fill="#000000" fill-opacity="0.85"/>
 </g>
</svg>
