<?xml version="1.0" encoding="UTF-8"?>
<!--Generator: Apple Native CoreSVG 232.5-->
<!DOCTYPE svg
PUBLIC "-//W3C//DTD SVG 1.1//EN"
       "http://www.w3.org/Graphics/SVG/1.1/DTD/svg11.dtd">
<svg version="1.1" xmlns="http://www.w3.org/2000/svg" xmlns:xlink="http://www.w3.org/1999/xlink" width="114.746" height="89.9902">
 <g>
  <rect height="89.9902" opacity="0" width="114.746" x="0" y="0"/>
  <path d="M0 74.9023C0 84.9609 5.12695 89.9902 15.332 89.9902L99.4141 89.9902C109.57 89.9902 114.746 84.9121 114.746 74.9023L114.746 58.8867C114.746 55.6641 113.77 52.0508 111.182 49.2676L92.6758 29.5898C88.2324 24.9023 84.8145 22.2168 78.2227 22.2168L35.5957 22.2168C29.8828 22.2168 26.5137 24.9023 22.0703 29.5898L3.56445 49.2676C0.976562 52.0508 0 55.6641 0 58.8867ZM10.8887 53.3203L28.5156 33.6914C31.0059 30.957 32.8125 29.4434 35.7422 29.4434L78.9551 29.4434C81.8848 29.4434 83.7402 30.9082 86.2305 33.6914L103.857 53.3203C105.176 54.834 104.443 57.0801 102.002 57.0801L12.7441 57.0801C10.3027 57.0801 9.57031 54.834 10.8887 53.3203ZM7.32422 7.03125L22.6562 22.5098C27.0508 27.002 29.2969 28.4668 34.8145 28.4668L79.4922 28.4668C85.4004 28.4668 87.6953 27.002 92.0898 22.5098L107.422 7.03125C109.912 4.54102 108.691 0.0488281 104.346 0.0488281L10.4004 0.0488281C6.05469 0.0488281 4.83398 4.54102 7.32422 7.03125ZM27.8809 50.0488C28.2715 51.2207 29.5898 51.7578 30.8105 51.3184L53.2715 43.1152C54.541 42.6758 55.127 41.5039 54.6875 40.2344C54.248 39.0137 53.0273 38.4766 51.7578 38.9648L29.2969 47.168C28.0273 47.6074 27.4414 48.7793 27.8809 50.0488ZM28.6133 41.1133C29.0527 42.3828 30.3223 42.8711 31.543 42.4316L47.0215 36.8164C48.2422 36.377 48.9258 35.1562 48.4375 33.9355C47.998 32.666 46.7285 32.2266 45.5566 32.666L30.0293 38.2812C28.7598 38.7207 28.1738 39.9414 28.6133 41.1133ZM77.9785 73.4863C77.9785 71.9238 79.1504 70.8008 80.7617 70.8008L94.2383 70.8008C95.8008 70.8008 96.9727 71.9238 96.9727 73.4863C96.9727 75.0488 95.8008 76.123 94.2383 76.123L80.7617 76.123C79.248 76.123 77.9785 75.0488 77.9785 73.4863Z" fill="#000000" fill-opacity="0.85"/>
 </g>
</svg>
