<?xml version="1.0" encoding="UTF-8"?>
<!--Generator: Apple Native CoreSVG 232.5-->
<!DOCTYPE svg
PUBLIC "-//W3C//DTD SVG 1.1//EN"
       "http://www.w3.org/Graphics/SVG/1.1/DTD/svg11.dtd">
<svg version="1.1" xmlns="http://www.w3.org/2000/svg" xmlns:xlink="http://www.w3.org/1999/xlink" width="135.059" height="106.787">
 <g>
  <rect height="106.787" opacity="0" width="135.059" x="0" y="0"/>
  <path d="M130.078 78.2227C128.076 85.5469 120.117 86.7676 107.959 82.4707L69.3924 68.6066L90.6714 57.3082ZM44.2871 27.0508C44.2871 31.1523 44.4824 32.7637 47.4609 34.375L59.2371 40.625C56.0016 42.7834 53.898 45.6447 52.553 49.5169C51.8086 48.9727 50.866 48.4221 49.6582 47.8027L42.041 43.75C40.8203 43.1641 40.1367 42.9688 39.209 42.9688C35.1562 42.9688 33.6914 46.7773 24.5605 46.7773C13.6719 46.7773 4.93164 37.9883 4.93164 27.0508C4.93164 16.0645 13.6719 7.22656 24.5605 7.22656C35.498 7.22656 44.2871 16.0156 44.2871 27.0508ZM12.9395 27.0508C12.9395 33.5449 18.1641 38.8184 24.5605 38.8184C31.1523 38.8184 36.3281 33.5449 36.3281 27.0508C36.3281 20.5078 31.1523 15.2344 24.5605 15.2344C18.1641 15.2344 12.9395 20.5078 12.9395 27.0508Z" fill="#000000" fill-opacity="0.85"/>
  <path d="M24.5605 102.344C35.498 102.344 44.2871 93.5547 44.2871 82.5195C44.2871 78.4668 44.4824 76.8555 47.4609 75.2441L130.078 31.3477C128.076 24.0234 120.117 22.8027 107.959 27.0996L66.2598 42.0898C60.4004 44.1895 57.7637 47.0215 56.2988 52.4902L55.3223 56.0547C54.6387 58.5938 53.4668 59.8633 49.6582 61.8164L42.041 65.8203C40.8203 66.4551 40.1367 66.6504 39.209 66.6504C35.1562 66.6504 33.6914 62.8418 24.5605 62.8418C13.6719 62.8418 4.93164 71.6309 4.93164 82.5195C4.93164 93.5059 13.6719 102.344 24.5605 102.344ZM24.5605 94.3359C18.1641 94.3359 12.9395 89.1113 12.9395 82.5195C12.9395 76.0742 18.1641 70.8008 24.5605 70.8008C31.1523 70.8008 36.3281 76.0742 36.3281 82.5195C36.3281 89.1113 31.1523 94.3359 24.5605 94.3359ZM67.3828 56.25C65.1855 56.25 63.2812 54.4434 63.2812 52.1973C63.2812 49.8535 65.1855 48.0957 67.3828 48.0957C69.6289 48.0957 71.5332 49.8535 71.5332 52.1973C71.5332 54.4434 69.6289 56.25 67.3828 56.25Z" fill="#000000" fill-opacity="0.85"/>
 </g>
</svg>
