<?xml version="1.0" encoding="UTF-8"?>
<!--Generator: Apple Native CoreSVG 232.5-->
<!DOCTYPE svg
PUBLIC "-//W3C//DTD SVG 1.1//EN"
       "http://www.w3.org/Graphics/SVG/1.1/DTD/svg11.dtd">
<svg version="1.1" xmlns="http://www.w3.org/2000/svg" xmlns:xlink="http://www.w3.org/1999/xlink" width="99.6094" height="99.6582">
 <g>
  <rect height="99.6582" opacity="0" width="99.6094" x="0" y="0"/>
  <path d="M99.6094 49.8047C99.6094 77.002 77.0508 99.6094 49.8047 99.6094C22.6074 99.6094 0 77.002 0 49.8047C0 22.5586 22.5586 0 49.7559 0C77.002 0 99.6094 22.5586 99.6094 49.8047ZM8.34961 49.8047C8.34961 72.8516 26.7578 91.3086 49.8047 91.3086C72.8516 91.3086 91.3086 72.8516 91.3086 49.8047C91.3086 26.7578 72.8027 8.30078 49.7559 8.30078C26.709 8.30078 8.34961 26.7578 8.34961 49.8047Z" fill="#000000" fill-opacity="0.85"/>
  <path d="M80.3711 60.7422C79.4922 64.209 75.7812 64.9414 69.9707 62.8418L52.965 56.735L62.8843 51.4702ZM40.1367 36.8164C40.1367 38.7695 40.2344 39.502 41.6016 40.1855L46.2299 42.6396C44.8091 43.7005 43.8288 45.0839 43.1718 46.8725C43.0062 46.7799 42.8241 46.6833 42.627 46.582L39.0137 44.6289C38.4766 44.3848 38.1836 44.2871 37.7441 44.2871C35.8398 44.2871 35.1562 46.0449 30.9082 46.0449C25.7324 46.0449 21.6309 41.9434 21.6309 36.8164C21.6309 31.6406 25.7324 27.4902 30.9082 27.4902C35.9863 27.4902 40.1367 31.5918 40.1367 36.8164ZM25.4395 36.8164C25.4395 39.8438 27.8809 42.2852 30.9082 42.2852C33.8867 42.2852 36.3281 39.8438 36.3281 36.8164C36.3281 33.7402 33.8867 31.2988 30.9082 31.2988C27.8809 31.2988 25.4395 33.7402 25.4395 36.8164Z" fill="#000000" fill-opacity="0.85"/>
  <path d="M30.9082 72.1191C35.9863 72.1191 40.1367 68.0176 40.1367 62.793C40.1367 60.8398 40.2344 60.1074 41.6016 59.375L80.3711 38.8184C79.4922 35.4004 75.7812 34.668 69.9707 36.7676L50.3906 43.7988C47.6562 44.7754 46.3867 46.1426 45.7031 48.7305L45.2637 50.3906C44.9707 51.5625 44.4336 52.0996 42.627 53.0273L39.0137 54.9316C38.4766 55.2246 38.1836 55.2734 37.7441 55.2734C35.8398 55.2734 35.1562 53.5645 30.9082 53.5645C25.7324 53.5645 21.6309 57.6172 21.6309 62.793C21.6309 67.9688 25.7324 72.1191 30.9082 72.1191ZM30.9082 68.3105C27.8809 68.3105 25.4395 65.8691 25.4395 62.793C25.4395 59.7656 27.8809 57.3242 30.9082 57.3242C33.8867 57.3242 36.3281 59.7656 36.3281 62.793C36.3281 65.8691 33.8867 68.3105 30.9082 68.3105ZM50.9277 50.4395C49.9512 50.4395 49.0723 49.6094 49.0723 48.584C49.0723 47.5586 49.9512 46.7285 50.9277 46.7285C51.9531 46.7285 52.7832 47.5586 52.7832 48.584C52.7832 49.6094 51.9531 50.4395 50.9277 50.4395Z" fill="#000000" fill-opacity="0.85"/>
 </g>
</svg>
