<?xml version="1.0" encoding="UTF-8"?>
<!--Generator: Apple Native CoreSVG 232.5-->
<!DOCTYPE svg
PUBLIC "-//W3C//DTD SVG 1.1//EN"
       "http://www.w3.org/Graphics/SVG/1.1/DTD/svg11.dtd">
<svg version="1.1" xmlns="http://www.w3.org/2000/svg" xmlns:xlink="http://www.w3.org/1999/xlink" width="125.195" height="98.0957">
 <g>
  <rect height="98.0957" opacity="0" width="125.195" x="0" y="0"/>
  <path d="M18.1152 98.0957C28.0762 98.0957 36.1816 89.9902 36.1816 80.0293C36.1816 70.0195 28.0762 61.9141 18.1152 61.9141C8.10547 61.9141 0 70.0195 0 80.0293C0 89.9902 8.10547 98.0957 18.1152 98.0957ZM18.1152 91.5039C11.7188 91.5039 6.5918 86.377 6.5918 80.0293C6.5918 73.6328 11.7188 68.5059 18.1152 68.5059C24.4629 68.5059 29.5898 73.6328 29.5898 80.0293C29.541 86.4258 24.4629 91.4551 18.1152 91.5039ZM18.1152 85.1562C20.9473 85.1562 23.2422 82.8613 23.2422 80.0293C23.2422 77.1973 20.9961 74.8535 18.1152 74.8535C15.1855 74.8535 12.9883 77.1484 12.9395 80.0293C12.8906 82.8613 15.1367 85.1562 18.1152 85.1562ZM107.08 98.0957C117.09 98.0957 125.195 89.9902 125.195 80.0293C125.195 70.0195 117.09 61.9141 107.08 61.9141C97.1191 61.9141 88.9648 70.0195 88.9648 80.0293C88.9648 89.9902 97.1191 98.0957 107.08 98.0957ZM107.08 91.5039C100.732 91.5039 95.5566 86.377 95.5566 80.0293C95.5566 73.6328 100.732 68.5059 107.08 68.5059C113.477 68.5059 118.604 73.6328 118.604 80.0293C118.604 86.377 113.477 91.5039 107.08 91.5039ZM107.08 85.1562C109.912 85.1562 112.256 82.8613 112.256 80.0293C112.256 77.1973 109.961 74.8535 107.08 74.8535C104.199 74.8535 101.953 77.1484 101.904 80.0293C101.855 82.8613 104.15 85.1562 107.08 85.1562ZM19.5801 83.6914L70.8008 83.6914C72.8516 83.6914 74.1211 83.1055 75.9277 81.1523L100.049 54.6875L97.6562 45.6055L70.8496 75.7324C70.4102 76.2207 70.166 76.3184 69.6289 76.3184L19.5801 76.3184ZM68.3105 3.80859C68.3105 5.85938 69.9707 7.4707 72.0215 7.4707L84.668 7.4707C85.1074 7.4707 85.3027 7.61719 85.4004 7.95898L103.174 81.3477L110.205 79.541L91.2109 3.27148C90.6738 1.17188 89.0625 0.0976562 86.0352 0.0976562L72.0215 0.0976562C69.9707 0.0976562 68.3105 1.75781 68.3105 3.80859Z" fill="#000000" fill-opacity="0.85"/>
 </g>
</svg>
