<?xml version="1.0" encoding="UTF-8"?>
<!--Generator: Apple Native CoreSVG 232.5-->
<!DOCTYPE svg
PUBLIC "-//W3C//DTD SVG 1.1//EN"
       "http://www.w3.org/Graphics/SVG/1.1/DTD/svg11.dtd">
<svg version="1.1" xmlns="http://www.w3.org/2000/svg" xmlns:xlink="http://www.w3.org/1999/xlink" width="118.75" height="118.799">
 <g>
  <rect height="118.799" opacity="0" width="118.75" x="0" y="0"/>
  <path d="M59.375 105.615C84.7656 105.615 105.469 84.8633 105.469 59.4238C105.469 33.9844 84.7656 13.2324 59.375 13.2324C33.9844 13.2324 13.2812 33.9844 13.2812 59.4238C13.2812 84.8633 33.9844 105.615 59.375 105.615ZM59.375 97.6562C38.1836 97.6562 21.4844 80.8105 21.4844 59.4238C21.4844 38.0371 38.1836 21.1914 59.375 21.1914C80.5664 21.1914 97.2656 38.0371 97.2656 59.4238C97.2656 80.8105 80.5664 97.6562 59.375 97.6562ZM59.375 118.799C61.3281 118.799 62.8418 117.236 62.8418 115.283L62.8418 82.2266C62.8418 80.2734 61.3281 78.7598 59.375 78.7598C57.4219 78.7598 55.8594 80.2734 55.8594 82.2266L55.8594 115.283C55.8594 117.236 57.4219 118.799 59.375 118.799ZM3.51562 62.9395L36.5723 62.9395C38.5254 62.9395 40.0879 61.377 40.0879 59.4238C40.0879 57.4707 38.5254 55.957 36.5723 55.957L3.51562 55.957C1.5625 55.957 0 57.4707 0 59.4238C0 61.377 1.5625 62.9395 3.51562 62.9395ZM59.375 40.1367C61.3281 40.1367 62.8418 38.5742 62.8418 36.6211L62.8418 3.56445C62.8418 1.61133 61.3281 0.0488281 59.375 0.0488281C57.4219 0.0488281 55.8594 1.61133 55.8594 3.56445L55.8594 36.6211C55.8594 38.5742 57.4219 40.1367 59.375 40.1367ZM82.1777 62.9395L115.234 62.9395C117.188 62.9395 118.75 61.377 118.75 59.4238C118.75 57.4707 117.188 55.957 115.234 55.957L82.1777 55.957C80.2246 55.957 78.6621 57.4707 78.6621 59.4238C78.6621 61.377 80.2246 62.9395 82.1777 62.9395Z" fill="#000000" fill-opacity="0.85"/>
 </g>
</svg>
