<?xml version="1.0" encoding="UTF-8"?>
<!--Generator: Apple Native CoreSVG 232.5-->
<!DOCTYPE svg
PUBLIC "-//W3C//DTD SVG 1.1//EN"
       "http://www.w3.org/Graphics/SVG/1.1/DTD/svg11.dtd">
<svg version="1.1" xmlns="http://www.w3.org/2000/svg" xmlns:xlink="http://www.w3.org/1999/xlink" width="122.218" height="123.993">
 <g>
  <rect height="123.993" opacity="0" width="122.218" x="0" y="0"/>
  <path d="M43.067 51.6695C40.5279 54.2574 40.5767 57.4312 43.067 59.9215L64.1119 80.9664C66.6021 83.4566 69.7759 83.5055 72.315 80.9176L80.2252 73.0562C78.3209 70.8101 78.4185 67.6851 80.5181 65.5855C82.6177 63.4859 85.6939 63.3883 87.94 65.2926L116.7 36.5816C123.975 29.3062 124.073 21.4449 116.895 14.2183L109.766 7.13826C102.491-0.0882984 94.7271 0.00935785 87.4029 7.33358L58.7408 36.0933C60.6451 38.3394 60.5474 41.4644 58.4478 43.5152C56.2994 45.566 53.2232 45.6637 50.9771 43.7594ZM49.317 54.1597L52.3931 51.0836C56.0552 51.8648 59.3267 50.693 62.2564 47.7633C65.2349 44.8336 66.3092 41.5133 65.4791 37.9976L92.1881 11.3375C96.3873 7.13826 101.075 7.13826 105.176 11.2887L112.745 18.8082C116.895 22.9586 116.895 27.6461 112.696 31.8453L86.0357 58.5543C82.5201 57.7242 79.1998 58.7984 76.2213 61.7769C73.2916 64.6578 72.1685 67.9781 72.9009 71.6402L69.8736 74.6676C68.8482 75.693 67.5787 75.7906 66.4556 74.7164L49.2681 57.5289C48.1939 56.4547 48.2916 55.1851 49.317 54.1597ZM75.6842 38.9742C74.8541 39.7555 74.8541 40.9762 75.733 41.8551C76.4166 42.5387 77.7349 42.6363 78.4674 41.8551L98.6334 21.4937C99.4146 20.7613 99.4634 19.5894 98.6334 18.7594C97.9498 18.0758 96.6802 17.9781 95.899 18.7594ZM82.2271 45.566C81.4459 46.2984 81.4947 47.6168 82.2271 48.3492C83.0572 49.1305 84.2779 49.1305 85.0592 48.3492L105.274 28.1832C106.055 27.4019 106.055 26.1812 105.274 25.3512C104.542 24.5699 103.223 24.6676 102.491 25.3512ZM11.9634 93.6617L0.732979 110.361C-0.145928 111.63-0.292412 112.949 0.635322 113.828L10.1568 123.398C11.0845 124.277 12.3541 124.13 13.6724 123.3L30.3717 112.07C31.8365 111.093 32.8131 109.628 33.0572 107.968L33.8384 102.841L62.1588 74.5699L57.9595 70.3707L27.8814 100.498L26.8072 106.503L12.5494 117.343L6.64118 111.435L17.481 97.1773L23.5357 96.1519L53.6138 66.025L49.4146 61.8258L21.1431 90.1949L16.0162 90.9762C14.4049 91.1715 12.8912 92.1969 11.9634 93.6617Z" fill="#000000" fill-opacity="0.85"/>
 </g>
</svg>
