<?xml version="1.0" encoding="UTF-8"?>
<!--Generator: Apple Native CoreSVG 232.5-->
<!DOCTYPE svg
PUBLIC "-//W3C//DTD SVG 1.1//EN"
       "http://www.w3.org/Graphics/SVG/1.1/DTD/svg11.dtd">
<svg version="1.1" xmlns="http://www.w3.org/2000/svg" xmlns:xlink="http://www.w3.org/1999/xlink" width="120.273" height="120.737">
 <g>
  <rect height="120.737" opacity="0" width="120.273" x="0" y="0"/>
  <path d="M43.608 48.9672C41.2643 51.3598 41.2155 54.4359 43.608 56.8773L64.0182 77.3363C66.4108 79.7289 69.5358 79.5824 71.9284 77.1898L77.2506 71.8187C75.444 69.1332 75.6393 65.7152 78.0319 63.3715C80.4245 61.0277 83.7936 60.7836 86.4791 62.6391L114.897 34.1723C122.026 27.0433 121.977 19.6215 115.141 12.7367L108.11 5.75429C101.225-1.13048 93.7057-1.08165 86.6256 5.9496L58.2077 34.3676C60.112 37.0043 59.8678 40.4711 57.4752 42.8637C55.1315 45.1586 51.7135 45.3539 48.9791 43.5961ZM71.0006 38.7621L94.3405 15.3246C95.0729 14.5433 96.4401 14.6898 97.2702 15.3246C98.1002 16.057 97.9537 17.3754 97.2213 18.1078L73.7838 41.5453C72.9537 42.3266 71.7819 42.2777 71.0983 41.5941C70.2682 40.7152 70.2194 39.5433 71.0006 38.7621ZM79.3991 47.0141L102.69 23.7719C103.569 22.9906 104.79 22.9418 105.522 23.7719C106.206 24.5531 106.206 25.8226 105.522 26.5062L82.1823 49.9437C81.401 50.7738 80.1315 50.6273 79.3991 49.9437C78.4713 49.016 78.4713 47.9418 79.3991 47.0141ZM9.6725 94.2308L0.688123 110.686C-0.0931269 112.151-0.337268 113.371 0.639295 114.299L6.40101 120.11C7.4264 121.086 8.59828 120.793 10.0143 120.11L26.567 111.077C28.2272 110.198 29.2526 108.489 29.3014 107.024L29.5455 101.702L54.3014 76.9457L43.8522 66.4476L19.0475 91.2035L13.8229 91.4965C12.2604 91.4965 10.5514 92.5707 9.6725 94.2308Z" fill="#000000" fill-opacity="0.85"/>
 </g>
</svg>
