<?xml version="1.0" encoding="UTF-8"?>
<!--Generator: Apple Native CoreSVG 232.5-->
<!DOCTYPE svg
PUBLIC "-//W3C//DTD SVG 1.1//EN"
       "http://www.w3.org/Graphics/SVG/1.1/DTD/svg11.dtd">
<svg version="1.1" xmlns="http://www.w3.org/2000/svg" xmlns:xlink="http://www.w3.org/1999/xlink" width="103.582" height="98.9469">
 <g>
  <rect height="98.9469" opacity="0" width="103.582" x="0" y="0"/>
  <path d="M2.15726 62.8279C4.69632 65.367 9.82327 66.0018 13.7784 62.4373C15.0967 61.2654 17.8311 58.3358 23.0557 53.1111C48.0069 27.8182 64.4619 11.2166 67.9776 14.3904C70.8096 16.8807 62.167 29.0877 53.9639 40.4158C38.583 61.8514 26.3272 76.6951 35.4092 85.7772C42.6846 93.0525 54.0127 85.7283 71.4444 70.4451C81.2588 61.8025 88.6319 54.8201 90.7803 57.0174C92.3916 58.5799 89.9014 62.7303 86.2393 69.0779C81.503 77.1834 75.5948 85.8748 81.2588 91.5389C85.1651 95.3963 92.7334 93.7361 102.06 84.6053C103.72 82.9451 104.11 81.0897 102.792 79.7713C101.522 78.5506 99.7647 78.7459 98.4463 79.9666C91.6592 86.6072 87.2159 88.7068 86.0928 87.535C84.7744 86.2654 87.167 81.9197 92.1475 73.1795C98.4463 62.1443 101.815 55.2108 96.4932 50.035C89.3643 43.1014 80.917 50.5233 65.292 64.244C50.5948 77.1834 46.2979 79.283 44.4424 77.4764C41.9522 74.9373 45.7608 70.4451 62.2159 47.4471C77.5967 25.9139 86.5323 12.4861 78.1826 4.4295C66.8057-6.65448 52.1573 2.08575 12.0205 41.783C6.69827 47.0565 3.76859 49.8397 2.59671 51.1092C-1.16306 55.2596-0.381805 60.2889 2.15726 62.8279Z" fill="#000000" fill-opacity="0.85"/>
 </g>
</svg>
