<?xml version="1.0" encoding="UTF-8"?>
<!--Generator: Apple Native CoreSVG 232.5-->
<!DOCTYPE svg
PUBLIC "-//W3C//DTD SVG 1.1//EN"
       "http://www.w3.org/Graphics/SVG/1.1/DTD/svg11.dtd">
<svg version="1.1" xmlns="http://www.w3.org/2000/svg" xmlns:xlink="http://www.w3.org/1999/xlink" width="104.15" height="103.76">
 <g>
  <rect height="103.76" opacity="0" width="104.15" x="0" y="0"/>
  <path d="M0 23.6328C0 26.5625 1.95312 28.4668 4.98047 28.4668L17.6758 28.4668L17.6758 88.3789C17.6758 98.6328 22.7051 103.711 32.959 103.711L88.7695 103.711C98.0469 103.711 104.15 97.3633 104.15 87.7441L104.15 74.4629C104.15 71.5332 102.197 69.6289 99.1699 69.6289L95.1172 69.6289L95.1172 15.332C95.1172 5.12695 90.0391 0 79.9805 0L12.793 0C5.17578 0 0 5.17578 0 13.3301ZM25.5371 88.4277L25.5371 13.3301C25.5371 11.3281 25.3418 9.47266 24.9512 7.86133L79.541 7.86133C84.6191 7.86133 87.2559 10.5469 87.2559 15.4297L87.2559 69.6289L45.3125 69.6289C42.2852 69.6289 40.2832 71.5332 40.2832 74.4629L40.2832 88.4277C40.2832 92.8711 37.207 95.8496 32.959 95.8496C28.6133 95.8496 25.5371 92.7246 25.5371 88.4277ZM7.86133 20.6055L7.86133 13.3301C7.86133 9.91211 9.96094 7.86133 12.793 7.86133C15.7227 7.86133 17.6758 9.91211 17.6758 13.3301L17.6758 20.6055ZM46.2402 95.8496C47.4609 93.7012 48.1445 91.0645 48.1445 87.8906L48.1445 77.4902L96.2891 77.4902L96.2891 87.7441C96.2891 92.5781 93.2617 95.8496 88.7695 95.8496ZM39.5996 45.5566L57.1289 45.5566C58.8867 45.5566 60.1562 44.2871 60.1562 42.627C60.1562 40.918 58.8867 39.5508 57.1289 39.5508L39.5996 39.5508C37.8418 39.5508 36.5234 40.918 36.5234 42.627C36.5234 44.2871 37.8418 45.5566 39.5996 45.5566ZM39.5996 28.5156L73.1934 28.5156C74.9512 28.5156 76.2207 27.1973 76.2207 25.4883C76.2207 23.8281 74.9512 22.5098 73.1934 22.5098L39.5996 22.5098C37.8418 22.5098 36.5234 23.8281 36.5234 25.4883C36.5234 27.1973 37.8418 28.5156 39.5996 28.5156Z" fill="#000000" fill-opacity="0.85"/>
 </g>
</svg>
