<?xml version="1.0" encoding="UTF-8"?>
<!--Generator: Apple Native CoreSVG 232.5-->
<!DOCTYPE svg
PUBLIC "-//W3C//DTD SVG 1.1//EN"
       "http://www.w3.org/Graphics/SVG/1.1/DTD/svg11.dtd">
<svg version="1.1" xmlns="http://www.w3.org/2000/svg" xmlns:xlink="http://www.w3.org/1999/xlink" width="82.1289" height="104.736">
 <g>
  <rect height="104.736" opacity="0" width="82.1289" x="0" y="0"/>
  <path d="M15.1367 104.736L66.9922 104.736C77.0996 104.736 82.1289 99.6582 82.1289 89.4531L82.1289 15.3809C82.1289 5.22461 77.0508 0.0488281 66.9922 0.0488281L34.375 0.0488281C29.9805 0.0488281 27.1973 1.12305 24.3652 4.00391L3.61328 24.707C0.878906 27.4902 0 29.8828 0 34.7168L0 89.4531C0 99.6094 5.0293 104.736 15.1367 104.736ZM15.5273 96.875C10.4492 96.875 7.86133 94.1895 7.86133 89.3066L7.86133 35.3027C7.86133 32.1289 8.39844 30.5664 10.1074 28.8574L28.2715 10.498C30.0293 8.64258 31.8848 7.91016 34.668 7.91016L66.6016 7.91016C71.6797 7.91016 74.2676 10.6934 74.2676 15.5273L74.2676 89.3066C74.2676 94.1895 71.6797 96.875 66.6504 96.875ZM30.0293 20.1172L30.0293 35.498C30.0293 37.2559 31.4453 38.623 33.1543 38.623C34.8633 38.623 36.1816 37.2559 36.1816 35.498L36.1816 20.1172C36.1816 18.3105 34.8633 16.9922 33.1543 16.9922C31.4453 16.9922 30.0293 18.3594 30.0293 20.1172ZM40.0391 20.1172L40.0391 35.498C40.0391 37.2559 41.4551 38.623 43.2129 38.623C44.873 38.623 46.2402 37.2559 46.2402 35.498L46.2402 20.1172C46.2402 18.3594 44.9219 16.9922 43.2129 16.9922C41.4062 16.9922 40.0391 18.3594 40.0391 20.1172ZM50.1465 20.1172L50.1465 35.498C50.1465 37.2559 51.5137 38.623 53.1738 38.623C54.8828 38.623 56.25 37.207 56.25 35.498L56.25 20.1172C56.25 18.3105 54.9316 16.9922 53.1738 16.9922C51.4648 16.9922 50.1465 18.3594 50.1465 20.1172ZM60.2051 20.1172L60.2051 35.4492C60.2051 37.2559 61.5723 38.623 63.2324 38.623C64.9414 38.623 66.3086 37.2559 66.3086 35.4492L66.3086 20.1172C66.3086 18.3105 64.9414 16.9922 63.2324 16.9922C61.5234 16.9922 60.2051 18.3594 60.2051 20.1172Z" fill="#000000" fill-opacity="0.85"/>
 </g>
</svg>
