<?xml version="1.0" encoding="UTF-8"?>
<!--Generator: Apple Native CoreSVG 232.5-->
<!DOCTYPE svg
PUBLIC "-//W3C//DTD SVG 1.1//EN"
       "http://www.w3.org/Graphics/SVG/1.1/DTD/svg11.dtd">
<svg version="1.1" xmlns="http://www.w3.org/2000/svg" xmlns:xlink="http://www.w3.org/1999/xlink" width="79.7363" height="129.639">
 <g>
  <rect height="129.639" opacity="0" width="79.7363" x="0" y="0"/>
  <path d="M18.7988 100.635L69.3359 100.635C71.0938 100.635 72.7051 98.6328 72.7051 96.9727C72.7051 95.2637 71.0938 93.2617 69.3359 93.2617L18.6523 93.2617C14.5996 93.2617 12.5488 91.0156 12.5488 87.1094L12.5488 12.2559L4.6875 12.2559L4.6875 86.7676C4.6875 95.9961 9.42383 100.635 18.7988 100.635ZM67.2852 120.947L75.1465 120.947L75.1465 44.9707C75.1465 36.0352 70.5566 31.5918 61.5723 31.5918L10.4492 31.5918C8.74023 31.5918 7.12891 33.5938 7.12891 35.2539C7.12891 36.9141 8.74023 38.9648 10.4492 38.9648L61.1816 38.9648C65.2344 38.9648 67.2852 41.2109 67.2852 45.1172ZM71.1914 129.639C75.9277 129.639 79.7363 125.83 79.7363 121.094C79.7363 116.406 75.9277 112.549 71.1914 112.549C66.5039 112.549 62.6465 116.406 62.6465 121.094C62.6465 125.83 66.5039 129.639 71.1914 129.639ZM8.54492 19.6777C13.2812 19.6777 17.0898 15.8691 17.0898 11.1328C17.0898 6.44531 13.2812 2.58789 8.54492 2.58789C3.85742 2.58789 0 6.44531 0 11.1328C0 15.8691 3.85742 19.6777 8.54492 19.6777Z" fill="#000000" fill-opacity="0.85"/>
 </g>
</svg>
