<?xml version="1.0" encoding="UTF-8"?>
<!--Generator: Apple Native CoreSVG 232.5-->
<!DOCTYPE svg
PUBLIC "-//W3C//DTD SVG 1.1//EN"
       "http://www.w3.org/Graphics/SVG/1.1/DTD/svg11.dtd">
<svg version="1.1" xmlns="http://www.w3.org/2000/svg" xmlns:xlink="http://www.w3.org/1999/xlink" width="118.652" height="84.7168">
 <g>
  <rect height="84.7168" opacity="0" width="118.652" x="0" y="0"/>
  <path d="M104.004 55.6152C105.322 57.1777 107.666 57.1777 109.229 55.4199C115.332 48.584 118.652 39.7461 118.652 30.0781C118.652 20.4102 115.332 11.5234 109.229 4.6875C107.715 2.97852 105.42 2.97852 104.102 4.44336C102.734 5.95703 103.076 7.86133 104.541 9.57031C109.424 15.1367 111.963 22.2656 111.963 30.0781C111.963 37.8418 109.424 45.0195 104.541 50.5371C103.076 52.2461 102.734 54.1016 104.004 55.6152Z" fill="#000000" fill-opacity="0.85"/>
  <path d="M92.8223 45.0684C94.1406 46.582 96.6309 46.6797 98.0957 44.7266C101.221 40.625 103.076 35.5469 103.076 30.0781C103.076 24.6094 101.221 19.4824 98.0957 15.4297C96.6309 13.4766 94.1895 13.5254 92.8711 15.0391C91.4551 16.5039 91.9922 18.3105 93.2617 20.0684C95.3613 23.0469 96.3867 26.416 96.3867 30.0781C96.3867 33.6914 95.3613 37.1094 93.2617 40.0879C92.041 41.7969 91.4551 43.6035 92.8223 45.0684Z" fill="#000000" fill-opacity="0.85"/>
  <path d="M15.332 84.668L68.0176 84.668C78.2715 84.668 83.3496 79.5898 83.3496 69.5312L83.3496 15.1367C83.3496 5.07812 78.2715 0 68.0176 0L15.332 0C5.12695 0 0 5.0293 0 15.1367L0 69.5312C0 79.5898 5.12695 84.668 15.332 84.668ZM39.0137 45.0684C37.2559 45.0684 35.9375 43.75 35.9375 41.9922L35.9375 18.2129C35.9375 16.4551 37.2559 15.1367 39.0137 15.1367C40.7227 15.1367 42.0898 16.4551 42.0898 18.2129L42.0898 41.9922C42.0898 43.75 40.7227 45.0684 39.0137 45.0684ZM51.8066 45.0684C50.0977 45.0684 48.7793 43.75 48.7793 41.9922L48.7793 18.2129C48.7793 16.4551 50.0977 15.1367 51.8066 15.1367C53.5156 15.1367 54.8828 16.4551 54.8828 18.2129L54.8828 41.9922C54.8828 43.75 53.5156 45.0684 51.8066 45.0684ZM64.6484 45.0684C62.9395 45.0684 61.5723 43.75 61.5723 41.9922L61.5723 18.2129C61.5723 16.4551 62.9395 15.1367 64.6484 15.1367C66.4062 15.1367 67.7246 16.4551 67.7246 18.2129L67.7246 41.9922C67.7246 43.75 66.4062 45.0684 64.6484 45.0684Z" fill="#000000" fill-opacity="0.85"/>
 </g>
</svg>
