<?xml version="1.0" encoding="UTF-8"?>
<!--Generator: Apple Native CoreSVG 232.5-->
<!DOCTYPE svg
PUBLIC "-//W3C//DTD SVG 1.1//EN"
       "http://www.w3.org/Graphics/SVG/1.1/DTD/svg11.dtd">
<svg version="1.1" xmlns="http://www.w3.org/2000/svg" xmlns:xlink="http://www.w3.org/1999/xlink" width="115.137" height="89.8926">
 <g>
  <rect height="89.8926" opacity="0" width="115.137" x="0" y="0"/>
  <path d="M90.0879 24.0723C93.457 23.9746 96.2891 21.1914 96.2891 17.8223C96.2891 14.4043 93.457 11.5234 90.0879 11.5234C86.7676 11.5234 83.8867 14.4043 83.8867 17.8223C83.8867 21.1914 86.7676 24.1211 90.0879 24.0723ZM90.0879 51.123C93.457 51.0254 96.2891 48.2422 96.2891 44.873C96.2891 41.4551 93.457 38.5742 90.0879 38.5742C86.7676 38.5742 83.8867 41.4551 83.8867 44.873C83.8867 48.2422 86.7676 51.1719 90.0879 51.123ZM90.0879 78.1738C93.457 78.0762 96.2891 75.293 96.2891 71.9238C96.2891 68.5059 93.457 65.625 90.0879 65.625C86.7676 65.625 83.8867 68.5059 83.8867 71.9238C83.8867 75.293 86.7676 78.2227 90.0879 78.1738ZM110.889 35.1074L110.889 27.7344L4.39453 27.7344L4.39453 35.1074ZM110.889 62.2559L110.889 54.8828L4.39453 54.8828L4.39453 62.2559ZM15.332 89.8926L99.8047 89.8926C110.059 89.8926 115.137 84.8633 115.137 74.8047L115.137 15.1367C115.137 5.07812 110.059 0 99.8047 0L15.332 0C5.12695 0 0 5.07812 0 15.1367L0 74.8047C0 84.8633 5.12695 89.8926 15.332 89.8926ZM15.4297 82.0312C10.5469 82.0312 7.86133 79.4434 7.86133 74.3652L7.86133 15.5762C7.86133 10.498 10.5469 7.86133 15.4297 7.86133L99.707 7.86133C104.541 7.86133 107.275 10.498 107.275 15.5762L107.275 74.3652C107.275 79.4434 104.541 82.0312 99.707 82.0312Z" fill="#000000" fill-opacity="0.85"/>
 </g>
</svg>
