<?xml version="1.0" encoding="UTF-8"?>
<!--Generator: Apple Native CoreSVG 232.5-->
<!DOCTYPE svg
PUBLIC "-//W3C//DTD SVG 1.1//EN"
       "http://www.w3.org/Graphics/SVG/1.1/DTD/svg11.dtd">
<svg version="1.1" xmlns="http://www.w3.org/2000/svg" xmlns:xlink="http://www.w3.org/1999/xlink" width="99.6094" height="99.6582">
 <g>
  <rect height="99.6582" opacity="0" width="99.6094" x="0" y="0"/>
  <path d="M49.8047 99.6094C77.0508 99.6094 99.6094 77.002 99.6094 49.8047C99.6094 22.5586 77.002 0 49.7559 0C22.5586 0 0 22.5586 0 49.8047C0 77.002 22.6074 99.6094 49.8047 99.6094ZM49.8047 91.3086C26.7578 91.3086 8.34961 72.8516 8.34961 49.8047C8.34961 26.7578 26.709 8.30078 49.7559 8.30078C72.8027 8.30078 91.3086 26.7578 91.3086 49.8047C91.3086 72.8516 72.8516 91.3086 49.8047 91.3086Z" fill="#000000" fill-opacity="0.85"/>
  <path d="M28.5156 45.1172L39.7461 45.1172C39.7949 38.4277 44.7266 32.959 51.0254 32.4707L51.0254 28.9551C51.0254 26.5625 49.7559 25.2441 47.3145 25.2441L28.5156 25.2441C26.123 25.2441 24.8535 26.5625 24.8535 28.9551L24.8535 41.5527C24.8535 43.8965 26.123 45.1172 28.5156 45.1172ZM70.3613 58.8379L78.0273 58.8379C80.4199 58.8379 81.6895 57.6172 81.6895 55.1758L81.6895 40.1367C81.6895 37.793 80.4199 36.5723 78.0273 36.5723L70.3613 36.5723C67.9199 36.5723 66.6992 37.793 66.6992 40.1367L66.6992 55.1758C66.6992 57.6172 67.9199 58.8379 70.3613 58.8379ZM21.6797 63.7695L26.9043 63.7695C29.3457 63.7695 30.6152 62.5 30.6152 60.1074L30.6152 54.7852C30.6152 52.3438 29.3457 51.123 26.9043 51.123L21.6797 51.123C19.2871 51.123 18.0176 52.2949 18.0176 54.7852L18.0176 60.1074C18.0176 62.5 19.2871 63.7695 21.6797 63.7695ZM51.8555 54.541C56.3965 54.541 60.3516 50.4883 60.3516 45.166C60.3516 39.9414 56.3965 35.9863 51.8555 35.9863C47.2656 35.9863 43.3105 39.9902 43.3105 45.166C43.3105 50.4883 47.2656 54.541 51.8555 54.541ZM37.5488 74.3164L66.1133 74.3164C68.4082 74.3164 69.7266 73.1934 69.7266 71.4844C69.7266 65.918 62.8418 58.3496 51.8555 58.3496C40.7715 58.3496 33.9844 65.918 33.9844 71.4844C33.9844 73.1934 35.3027 74.3164 37.5488 74.3164Z" fill="#000000" fill-opacity="0.85"/>
 </g>
</svg>
