<?xml version="1.0" encoding="UTF-8"?>
<!--Generator: Apple Native CoreSVG 232.5-->
<!DOCTYPE svg
PUBLIC "-//W3C//DTD SVG 1.1//EN"
       "http://www.w3.org/Graphics/SVG/1.1/DTD/svg11.dtd">
<svg version="1.1" xmlns="http://www.w3.org/2000/svg" xmlns:xlink="http://www.w3.org/1999/xlink" width="120.508" height="92.627">
 <g>
  <rect height="92.627" opacity="0" width="120.508" x="0" y="0"/>
  <path d="M23.8281 55.6641L23.8281 65.7715C23.8281 70.3613 21.4844 72.6562 16.8457 72.6562L6.98242 72.6562C2.34375 72.6562 0 70.3613 0 65.7715L0 55.6641C0 51.0742 2.34375 48.8281 6.98242 48.8281L16.8457 48.8281C21.4844 48.8281 23.8281 51.123 23.8281 55.6641Z" fill="#000000" fill-opacity="0.425"/>
  <path d="M62.4512 6.83594L62.4512 13.6574C50.9763 14.4759 41.3581 24.5053 41.2692 37.4023L19.9707 37.4023C15.332 37.4023 12.9883 35.1562 12.9883 30.5664L12.9883 6.83594C12.9883 2.29492 15.332 0 19.9707 0L55.4199 0C60.1074 0 62.4512 2.29492 62.4512 6.83594Z" fill="#000000" fill-opacity="0.425"/>
  <path d="M120.508 28.0762L120.508 56.543C120.508 61.084 118.164 63.3789 113.477 63.3789L99.0723 63.3789C94.4336 63.3789 92.0898 61.084 92.0898 56.543L92.0898 28.0762C92.0898 23.5352 94.4336 21.2402 99.0723 21.2402L113.477 21.2402C118.164 21.2402 120.508 23.5352 120.508 28.0762Z" fill="#000000" fill-opacity="0.425"/>
  <path d="M64.0137 55.2734C72.6074 55.2734 80.0781 47.5586 80.0781 37.5C80.0781 27.5879 72.6074 20.2148 64.0137 20.2148C55.4199 20.2148 47.9004 27.7344 47.9004 37.5977C47.9004 47.5586 55.4199 55.2734 64.0137 55.2734ZM37.0117 92.5293L90.9668 92.5293C95.2637 92.5293 97.8516 90.5273 97.8516 87.207C97.8516 76.8066 84.8633 62.4512 64.0137 62.4512C43.1152 62.4512 30.127 76.8066 30.127 87.207C30.127 90.5273 32.7148 92.5293 37.0117 92.5293Z" fill="#000000" fill-opacity="0.85"/>
 </g>
</svg>
