<?xml version="1.0" encoding="UTF-8"?>
<!--Generator: Apple Native CoreSVG 232.5-->
<!DOCTYPE svg
PUBLIC "-//W3C//DTD SVG 1.1//EN"
       "http://www.w3.org/Graphics/SVG/1.1/DTD/svg11.dtd">
<svg version="1.1" xmlns="http://www.w3.org/2000/svg" xmlns:xlink="http://www.w3.org/1999/xlink" width="99.6094" height="99.6582">
 <g>
  <rect height="99.6582" opacity="0" width="99.6094" x="0" y="0"/>
  <path d="M49.8047 99.6094C77.0508 99.6094 99.6094 77.002 99.6094 49.8047C99.6094 22.5586 77.002 0 49.7559 0C22.5586 0 0 22.5586 0 49.8047C0 77.002 22.6074 99.6094 49.8047 99.6094ZM49.8047 91.3086C26.7578 91.3086 8.34961 72.8516 8.34961 49.8047C8.34961 26.7578 26.709 8.30078 49.7559 8.30078C72.8027 8.30078 91.3086 26.7578 91.3086 49.8047C91.3086 72.8516 72.8516 91.3086 49.8047 91.3086Z" fill="#000000" fill-opacity="0.85"/>
  <path d="M45.9473 29.2969C47.9492 27.2949 47.998 24.2676 45.9961 22.3145C44.1406 20.3613 41.0156 20.2148 39.0137 22.0703C38.7695 22.4609 31.4941 29.3457 27.4414 33.8379C23.7305 37.8418 21.9238 43.0176 22.2656 48.291C22.6074 53.8086 25.1953 58.8867 29.541 62.5977C33.0078 65.625 37.5977 67.1387 42.1875 67.1387C46.9727 67.1387 51.6602 65.5762 55.2246 62.2559C57.8125 60.0098 60.7422 56.8359 60.8398 56.7871C62.6953 54.7363 62.5488 51.6113 60.5957 49.8047C58.5938 47.8516 55.4199 47.998 53.6133 50.0488C53.5156 50.0488 50.9277 52.9785 48.6328 54.9805C44.9219 58.252 39.0137 57.7148 35.9375 55.1758C33.6914 53.125 32.4219 50.5371 32.2266 47.7539C31.9824 45.0684 32.959 42.5293 34.7656 40.5762C38.5254 36.2793 45.8496 29.3457 45.9473 29.2969ZM53.6133 71.3379C51.6113 73.3398 51.5625 76.416 53.5156 78.3203C55.4199 80.3223 58.4961 80.4688 60.498 78.6133C60.8398 78.2227 68.0664 71.2891 72.1191 66.7969C75.7812 62.8418 77.5879 57.7148 77.2949 52.3438C76.9531 46.875 74.3652 41.748 70.1172 38.0859C66.5039 35.0098 61.9629 33.5449 57.3242 33.5449C52.5391 33.5449 47.9492 35.1074 44.2871 38.3789C41.6992 40.625 38.7695 43.7988 38.7207 43.8965C36.8164 45.9961 36.9629 49.1211 38.9648 50.8789C40.9668 52.7832 44.1406 52.6855 45.9473 50.6836C45.9961 50.5859 48.6328 47.6074 50.9277 45.7031C54.5898 42.3828 60.498 43.0176 63.5742 45.5078C65.8203 47.5586 67.1387 50.0977 67.2852 52.9785C67.5781 55.6152 66.5527 58.1543 64.7461 60.2051C61.0352 64.4043 53.6621 71.2891 53.6133 71.3379Z" fill="#000000" fill-opacity="0.85"/>
 </g>
</svg>
