<?xml version="1.0" encoding="UTF-8"?>
<!--Generator: Apple Native CoreSVG 232.5-->
<!DOCTYPE svg
PUBLIC "-//W3C//DTD SVG 1.1//EN"
       "http://www.w3.org/Graphics/SVG/1.1/DTD/svg11.dtd">
<svg version="1.1" xmlns="http://www.w3.org/2000/svg" xmlns:xlink="http://www.w3.org/1999/xlink" width="109.095" height="99.6582">
 <g>
  <rect height="99.6582" opacity="0" width="109.095" x="0" y="0"/>
  <path d="M59.2839 99.6094C86.4812 99.6094 109.089 77.002 109.089 49.8047C109.089 22.5586 86.4812 0 59.2839 0C32.0378 0 9.47924 22.5098 9.47924 49.7559L17.78 49.7559C17.78 26.709 36.2371 8.34961 59.2839 8.34961C82.3308 8.34961 100.788 26.7578 100.788 49.8047C100.788 72.8516 82.3308 91.4062 59.2839 91.3086C45.3679 91.2598 33.1609 84.5215 25.6902 74.1211C24.1765 72.1191 21.8816 71.4844 19.8308 72.7051C17.8777 73.9258 17.3406 76.6113 19.0007 78.7598C28.2781 91.2109 42.8289 99.6094 59.2839 99.6094ZM3.47339 40.3809C-0.04224 40.3809-0.921146 42.7734 0.983151 45.5078L11.9207 61.0352C13.532 63.2812 15.8757 63.2324 17.4382 61.0352L28.3757 45.459C30.2312 42.7734 29.3523 40.3809 25.8855 40.3809Z" fill="#000000" fill-opacity="0.85"/>
  <path d="M40.5828 71.2402C40.5828 72.998 41.8523 74.2188 43.5613 74.2188C45.3191 74.2188 46.4421 72.9492 46.4421 71.1914L46.4421 33.8379L52.8874 33.8379C58.2585 33.8379 60.5535 35.4492 60.5535 41.0645L60.5535 58.0566C60.5535 59.9121 61.823 61.084 63.532 61.084C65.1921 61.084 66.364 59.9121 66.364 58.0566L66.364 40.2344C66.364 31.4453 62.4578 27.5879 54.3523 27.5879L44.3914 27.5879C42.0964 27.5879 40.5828 29.1016 40.5828 31.3965ZM50.6902 69.9219C50.6902 72.2168 52.1062 73.6816 54.4011 73.6816L64.5574 73.6816C72.8093 73.6816 76.3738 69.8242 76.3738 60.0586L76.3738 30.0781C76.3738 28.3203 75.2507 27.0996 73.5417 27.0996C71.7839 27.0996 70.5632 28.2715 70.5632 30.0781L70.5632 60.0586C70.5632 66.3086 68.8054 67.3828 63.3855 67.3828L56.5007 67.3828L56.5007 43.1152C56.5007 41.2598 55.3289 40.1367 53.6199 40.1367C51.9109 40.1367 50.6902 41.2598 50.6902 43.1152Z" fill="#000000" fill-opacity="0.85"/>
 </g>
</svg>
