<?xml version="1.0" encoding="UTF-8"?>
<!--Generator: Apple Native CoreSVG 232.5-->
<!DOCTYPE svg
PUBLIC "-//W3C//DTD SVG 1.1//EN"
       "http://www.w3.org/Graphics/SVG/1.1/DTD/svg11.dtd">
<svg version="1.1" xmlns="http://www.w3.org/2000/svg" xmlns:xlink="http://www.w3.org/1999/xlink" width="89.8926" height="89.9902">
 <g>
  <rect height="89.9902" opacity="0" width="89.8926" x="0" y="0"/>
  <path d="M15.332 89.9902L74.5605 89.9902C84.8145 89.9902 89.8926 84.9121 89.8926 74.8535L89.8926 15.2344C89.8926 5.17578 84.8145 0.0976562 74.5605 0.0976562L15.332 0.0976562C5.12695 0.0976562 0 5.12695 0 15.2344L0 74.8535C0 84.9609 5.12695 89.9902 15.332 89.9902ZM15.4297 82.1289C10.5469 82.1289 7.86133 79.541 7.86133 74.4629L7.86133 15.625C7.86133 10.5469 10.5469 7.95898 15.4297 7.95898L74.4629 7.95898C79.2969 7.95898 82.0312 10.5469 82.0312 15.625L82.0312 74.4629C82.0312 79.541 79.2969 82.1289 74.4629 82.1289Z" fill="#000000" fill-opacity="0.85"/>
  <path d="M26.2695 66.4062C26.2695 68.1641 27.5879 69.3848 29.2969 69.3848C31.0059 69.3848 32.1289 68.1152 32.1289 66.3574L32.1289 29.0039L38.623 29.0039C43.9453 29.0039 46.2891 30.6152 46.2891 36.2305L46.2891 53.2227C46.2891 55.0781 47.5098 56.25 49.2188 56.25C50.9277 56.25 52.0996 55.0781 52.0996 53.2227L52.0996 35.4004C52.0996 26.6113 48.1445 22.7539 40.0391 22.7539L30.127 22.7539C27.832 22.7539 26.2695 24.2676 26.2695 26.5625ZM36.377 65.0879C36.377 67.3828 37.793 68.8477 40.1367 68.8477L50.2441 68.8477C58.5449 68.8477 62.1094 64.9902 62.1094 55.2246L62.1094 25.2441C62.1094 23.4863 60.9863 22.2656 59.2285 22.2656C57.4707 22.2656 56.2988 23.4375 56.2988 25.2441L56.2988 55.2246C56.2988 61.4746 54.541 62.5488 49.0723 62.5488L42.1875 62.5488L42.1875 38.2812C42.1875 36.4258 41.0156 35.3027 39.3555 35.3027C37.5977 35.3027 36.377 36.4258 36.377 38.2812Z" fill="#000000" fill-opacity="0.85"/>
 </g>
</svg>
