<?xml version="1.0" encoding="UTF-8"?>
<!--Generator: Apple Native CoreSVG 232.5-->
<!DOCTYPE svg
PUBLIC "-//W3C//DTD SVG 1.1//EN"
       "http://www.w3.org/Graphics/SVG/1.1/DTD/svg11.dtd">
<svg version="1.1" xmlns="http://www.w3.org/2000/svg" xmlns:xlink="http://www.w3.org/1999/xlink" width="99.6094" height="99.6582">
 <g>
  <rect height="99.6582" opacity="0" width="99.6094" x="0" y="0"/>
  <path d="M49.8047 99.6094C77.0508 99.6094 99.6094 77.002 99.6094 49.8047C99.6094 22.5586 77.002 0 49.7559 0C22.5586 0 0 22.5586 0 49.8047C0 77.002 22.6074 99.6094 49.8047 99.6094ZM49.8047 91.3086C26.7578 91.3086 8.34961 72.8516 8.34961 49.8047C8.34961 26.7578 26.709 8.30078 49.7559 8.30078C72.8027 8.30078 91.3086 26.7578 91.3086 49.8047C91.3086 72.8516 72.8516 91.3086 49.8047 91.3086Z" fill="#000000" fill-opacity="0.85"/>
  <path d="M31.0547 71.2402C31.0547 72.998 32.373 74.2188 34.082 74.2188C35.791 74.2188 36.9141 72.9492 36.9141 71.1914L36.9141 33.8379L43.4082 33.8379C48.7305 33.8379 51.0742 35.4492 51.0742 41.0645L51.0742 58.0566C51.0742 59.9121 52.2949 61.084 54.0039 61.084C55.7129 61.084 56.8848 59.9121 56.8848 58.0566L56.8848 40.2344C56.8848 31.4453 52.9297 27.5879 44.8242 27.5879L34.9121 27.5879C32.6172 27.5879 31.0547 29.1016 31.0547 31.3965ZM41.1621 69.9219C41.1621 72.2168 42.5781 73.6816 44.9219 73.6816L55.0293 73.6816C63.2812 73.6816 66.8945 69.8242 66.8945 60.0586L66.8945 30.0781C66.8945 28.3203 65.7715 27.0996 64.0137 27.0996C62.2559 27.0996 61.084 28.2715 61.084 30.0781L61.084 60.0586C61.084 66.3086 59.3262 67.3828 53.8574 67.3828L46.9727 67.3828L46.9727 43.1152C46.9727 41.2598 45.8008 40.1367 44.1406 40.1367C42.3828 40.1367 41.1621 41.2598 41.1621 43.1152Z" fill="#000000" fill-opacity="0.85"/>
 </g>
</svg>
