<?xml version="1.0" encoding="UTF-8"?>
<!--Generator: Apple Native CoreSVG 232.5-->
<!DOCTYPE svg
PUBLIC "-//W3C//DTD SVG 1.1//EN"
       "http://www.w3.org/Graphics/SVG/1.1/DTD/svg11.dtd">
<svg version="1.1" xmlns="http://www.w3.org/2000/svg" xmlns:xlink="http://www.w3.org/1999/xlink" width="79.8828" height="98.584">
 <g>
  <rect height="98.584" opacity="0" width="79.8828" x="0" y="0"/>
  <path d="M39.9414 98.584C40.7227 98.584 41.9434 98.291 43.1641 97.6562C70.9473 83.1055 79.8828 75.8301 79.8828 58.3008L79.8828 21.4844C79.8828 16.4551 77.7344 14.8438 73.6328 13.1348C67.9199 10.791 49.6582 4.15039 43.9941 2.19727C42.6758 1.75781 41.3086 1.51367 39.9414 1.51367C38.5742 1.51367 37.207 1.80664 35.9375 2.19727C30.2246 4.05273 11.9629 10.8398 6.25 13.1348C2.19727 14.7949 0 16.4551 0 21.4844L0 58.3008C0 75.8301 9.42383 82.2754 36.7188 97.6562C37.9883 98.3398 39.1602 98.584 39.9414 98.584Z" fill="#000000" fill-opacity="0.85"/>
 </g>
</svg>
