<?xml version="1.0" encoding="UTF-8"?>
<!--Generator: Apple Native CoreSVG 232.5-->
<!DOCTYPE svg
PUBLIC "-//W3C//DTD SVG 1.1//EN"
       "http://www.w3.org/Graphics/SVG/1.1/DTD/svg11.dtd">
<svg version="1.1" xmlns="http://www.w3.org/2000/svg" xmlns:xlink="http://www.w3.org/1999/xlink" width="113.721" height="111.951">
 <g>
  <rect height="111.951" opacity="0" width="113.721" x="0" y="0"/>
  <path d="M57.8859 71.2242L57.8859 97.5528C58.4718 97.4063 59.1066 97.0645 59.8878 96.5762C65.6476 93.0654 70.4099 90.1939 74.295 87.6158L80.2624 93.5768C75.0355 97.1432 68.3905 100.979 60.132 105.609C58.8624 106.293 57.6417 106.586 56.8605 106.586C56.0792 106.586 54.8097 106.293 53.589 105.609C25.8546 89.9844 16.2843 83.4414 16.2843 65.6192L16.2843 29.6672ZM60.9132 8.68558C66.7238 10.6875 85.3273 17.377 91.089 19.7696C95.1906 21.5274 97.4366 23.1387 97.4366 28.2657L97.4366 65.6192C97.4366 71.566 96.3766 76.2624 93.8989 80.448L87.7591 74.3115C89.1025 71.3891 89.673 68.0373 89.673 63.8125L89.673 29.7793C89.673 28.1192 89.38 27.4356 88.0128 26.9473C80.4445 24.3594 66.1866 19.1836 58.8136 16.2539C58.423 16.1075 58.13 16.0098 57.8859 15.961L57.8859 44.4543L30.2167 16.7999C38.0525 13.7942 48.6582 9.86715 52.7589 8.68558C54.0773 8.34378 55.4933 7.95316 56.8605 7.95316C58.2277 7.95316 59.6437 8.24613 60.9132 8.68558Z" fill="#000000" fill-opacity="0.85"/>
  <path d="M98.0226 103.266C99.4874 104.731 101.88 104.731 103.345 103.266C104.761 101.801 104.81 99.4082 103.345 97.9434L12.1339 6.78128C10.6691 5.36527 8.27649 5.36527 6.76282 6.78128C5.3468 8.1973 5.3468 10.6875 6.76282 12.1035Z" fill="#000000" fill-opacity="0.85"/>
 </g>
</svg>
