<?xml version="1.0" encoding="UTF-8"?>
<!--Generator: Apple Native CoreSVG 232.5-->
<!DOCTYPE svg
PUBLIC "-//W3C//DTD SVG 1.1//EN"
       "http://www.w3.org/Graphics/SVG/1.1/DTD/svg11.dtd">
<svg version="1.1" xmlns="http://www.w3.org/2000/svg" xmlns:xlink="http://www.w3.org/1999/xlink" width="81.1523" height="101.221">
 <g>
  <rect height="101.221" opacity="0" width="81.1523" x="0" y="0"/>
  <path d="M81.1523 60.2539L81.1523 22.9004C81.1523 17.7734 78.9551 16.1133 74.8047 14.4043C69.043 12.0605 50.4395 4.98047 44.6777 3.32031C43.3594 2.97852 41.9434 2.58789 40.5762 2.58789C39.209 2.58789 37.793 2.88086 36.5234 3.32031C30.7129 5.32227 12.1094 12.0117 6.34766 14.4043C2.24609 16.1621 0 17.7734 0 22.9004L0 60.2539C0 78.0762 9.52148 84.668 37.3047 100.244C38.5742 100.928 39.7949 101.221 40.5762 101.221C41.3574 101.221 42.627 100.928 43.8477 100.244C71.582 84.6191 81.1523 78.0762 81.1523 60.2539ZM39.5508 92.1875C38.9648 92.041 38.3301 91.6992 37.5488 91.2109C15.0391 77.4902 7.76367 73.5352 7.76367 58.4473L7.76367 24.4141C7.76367 22.7539 8.05664 22.0703 9.42383 21.582C16.9922 18.9941 31.25 13.8184 38.623 10.8887C39.0137 10.7422 39.3066 10.6445 39.5508 10.5957Z" fill="#000000" fill-opacity="0.85"/>
 </g>
</svg>
