<?xml version="1.0" encoding="UTF-8"?>
<!--Generator: Apple Native CoreSVG 232.5-->
<!DOCTYPE svg
PUBLIC "-//W3C//DTD SVG 1.1//EN"
       "http://www.w3.org/Graphics/SVG/1.1/DTD/svg11.dtd">
<svg version="1.1" xmlns="http://www.w3.org/2000/svg" xmlns:xlink="http://www.w3.org/1999/xlink" width="105.029" height="91.2598">
 <g>
  <rect height="91.2598" opacity="0" width="105.029" x="0" y="0"/>
  <path d="M37.4512 90.625L67.5781 90.625C74.4141 90.625 78.0762 86.6211 78.0762 80.1758L78.0762 58.3008L97.9004 58.3008C101.904 58.3008 105.029 55.8594 105.029 52.1484C105.029 49.8535 103.857 48.1445 102.1 46.3867L58.5449 2.97852C56.6406 1.07422 54.6875 0 52.4902 0C50.3418 0 48.3398 1.07422 46.4844 2.97852L2.92969 46.3867C1.02539 48.2422 0 49.8535 0 52.1484C0 55.8594 3.125 58.3008 7.08008 58.3008L26.9531 58.3008L26.9531 80.1758C26.9531 86.6211 30.6152 90.625 37.4512 90.625Z" fill="#000000" fill-opacity="0.85"/>
 </g>
</svg>
