<?xml version="1.0" encoding="UTF-8"?>
<!--Generator: Apple Native CoreSVG 232.5-->
<!DOCTYPE svg
PUBLIC "-//W3C//DTD SVG 1.1//EN"
       "http://www.w3.org/Graphics/SVG/1.1/DTD/svg11.dtd">
<svg version="1.1" xmlns="http://www.w3.org/2000/svg" xmlns:xlink="http://www.w3.org/1999/xlink" width="99.6094" height="99.6582">
 <g>
  <rect height="99.6582" opacity="0" width="99.6094" x="0" y="0"/>
  <path d="M99.6094 49.8047C99.6094 77.002 77.0508 99.6094 49.8047 99.6094C22.6074 99.6094 0 77.002 0 49.8047C0 22.5586 22.5586 0 49.7559 0C77.002 0 99.6094 22.5586 99.6094 49.8047ZM51.6113 51.416L51.6113 78.418C51.8066 78.3691 51.9531 78.2715 52.0996 78.1738L72.7539 66.4062C75.0977 64.9902 76.5137 63.623 76.5137 59.8145L76.5137 39.3066C76.5137 38.5742 76.4648 37.8906 76.2695 37.3047ZM23.1934 39.3066L23.1934 59.8145C23.1934 63.623 24.4629 64.9902 26.8555 66.4062L47.4609 78.1738C47.6562 78.2715 47.8027 78.3691 47.998 78.418L47.998 51.416L23.3398 37.3047C23.1934 37.8906 23.1934 38.5742 23.1934 39.3066ZM26.5137 33.2031C25.8789 33.4961 25.3906 33.8379 25.0488 34.2285L49.8047 48.291L61.0352 41.8945L36.1816 27.6855ZM45.0684 22.6074L39.6973 25.6348L64.6973 39.8438L74.5605 34.2285C74.2188 33.8379 73.6816 33.4961 73.0957 33.2031L54.5898 22.6074C52.9785 21.6797 51.3672 21.1914 49.8047 21.1914C48.291 21.1914 46.6797 21.6797 45.0684 22.6074Z" fill="#000000" fill-opacity="0.85"/>
 </g>
</svg>
