<?xml version="1.0" encoding="UTF-8"?>
<!--Generator: Apple Native CoreSVG 232.5-->
<!DOCTYPE svg
PUBLIC "-//W3C//DTD SVG 1.1//EN"
       "http://www.w3.org/Graphics/SVG/1.1/DTD/svg11.dtd">
<svg version="1.1" xmlns="http://www.w3.org/2000/svg" xmlns:xlink="http://www.w3.org/1999/xlink" width="99.0723" height="107.373">
 <g>
  <rect height="107.373" opacity="0" width="99.0723" x="0" y="0"/>
  <path d="M52.8809 107.373C53.2227 107.275 53.5156 107.129 53.8574 106.934L92.0898 85.1562C96.6309 82.5684 99.0723 79.9316 99.0723 72.8516L99.0723 34.8145C99.0723 33.3496 98.9746 32.1777 98.6816 31.1035L52.8809 57.2754ZM46.1914 107.373L46.1914 57.2754L0.390625 31.1035C0.0976562 32.1777 0 33.3496 0 34.8145L0 72.8516C0 79.9316 2.49023 82.5684 6.98242 85.1562L45.2637 106.934C45.5566 107.129 45.8496 107.275 46.1914 107.373ZM49.5605 51.416L70.4102 39.5996L24.1699 13.1836L6.25 23.3887C5.17578 23.9746 4.29688 24.5605 3.51562 25.293ZM77.1973 35.7422L95.5566 25.293C94.8242 24.5605 93.9453 23.9746 92.8711 23.3887L58.3984 3.75977C55.4199 2.05078 52.4414 1.12305 49.5605 1.12305C46.6309 1.12305 43.6523 2.05078 40.6738 3.75977L30.7617 9.375Z" fill="#000000" fill-opacity="0.85"/>
 </g>
</svg>
