<?xml version="1.0" encoding="UTF-8"?>
<!--Generator: Apple Native CoreSVG 232.5-->
<!DOCTYPE svg
PUBLIC "-//W3C//DTD SVG 1.1//EN"
       "http://www.w3.org/Graphics/SVG/1.1/DTD/svg11.dtd">
<svg version="1.1" xmlns="http://www.w3.org/2000/svg" xmlns:xlink="http://www.w3.org/1999/xlink" width="98.584" height="107.471">
 <g>
  <rect height="107.471" opacity="0" width="98.584" x="0" y="0"/>
  <path d="M6.83594 84.5215L45.2637 106.299C47.998 107.861 50.5859 107.861 53.3691 106.299L91.748 84.5215C96.2402 81.9824 98.584 79.3945 98.584 72.4121L98.584 33.7402C98.584 28.6621 96.7285 25.4883 92.627 23.1445L58.0566 3.51562C52.1484 0.146484 46.4355 0.146484 40.5273 3.51562L6.00586 23.1445C1.85547 25.4883 0 28.6621 0 33.7402L0 72.4121C0 79.3945 2.39258 81.9824 6.83594 84.5215ZM11.2305 78.0762C8.39844 76.5137 7.42188 74.8535 7.42188 72.168L7.42188 35.3027L45.459 57.0312L45.459 97.5586ZM87.4023 78.0762L53.125 97.5586L53.125 57.0312L91.1621 35.3027L91.1621 72.168C91.1621 74.8535 90.1855 76.5137 87.4023 78.0762ZM49.3164 50.1953L11.6211 28.8574L26.709 20.2148L64.4043 41.6504ZM72.2656 37.207L34.4238 15.8203L43.7988 10.498C47.5586 8.34961 51.0254 8.30078 54.834 10.498L87.0117 28.8574Z" fill="#000000" fill-opacity="0.85"/>
 </g>
</svg>
