<?xml version="1.0" encoding="UTF-8"?>
<!--Generator: Apple Native CoreSVG 232.5-->
<!DOCTYPE svg
PUBLIC "-//W3C//DTD SVG 1.1//EN"
       "http://www.w3.org/Graphics/SVG/1.1/DTD/svg11.dtd">
<svg version="1.1" xmlns="http://www.w3.org/2000/svg" xmlns:xlink="http://www.w3.org/1999/xlink" width="148.145" height="69.3848">
 <g>
  <rect height="69.3848" opacity="0" width="148.145" x="0" y="0"/>
  <path d="M70.8984 5.37109C61.5723-0.0488281 52.9297 0.683594 45.8008 9.96094C40.1855 17.1387 34.4238 20.2148 28.4668 20.2148C23.1934 20.2148 19.5801 19.3848 15.6738 17.5781C8.1543 14.3066 0 17.6758 0 26.6113L0 48.4863C0 64.8926 9.86328 69.3848 19.2871 69.3848L96.9727 69.3848C112.646 69.3848 121.729 66.9922 133.984 60.2051C143.652 54.7852 148.145 48.0957 148.145 40.3809C148.145 29.248 140.381 21.6309 128.955 21.6309C123.633 21.6309 111.67 23.5352 107.178 23.5352C102.686 23.5352 101.709 23.3398 97.0703 20.7031ZM66.8945 12.207L93.2129 27.4414C99.1211 30.9082 101.807 31.3965 107.178 31.3965C112.207 31.3965 124.219 29.4922 128.906 29.4922C136.475 29.4922 140.234 33.1543 140.234 40.3809C140.234 45.5566 137.305 49.4141 130.176 53.3691C119.043 59.5703 111.621 61.5234 96.9727 61.5234L19.2383 61.5234C12.1094 61.5234 7.86133 59.1797 7.86133 48.4863L7.86133 26.5625C7.86133 24.2676 9.81445 23.5352 11.6211 24.4141C16.4062 26.5137 21.582 28.0762 28.4668 28.0762C36.7188 28.0762 45.166 23.584 52.002 14.7461C56.8359 8.54492 60.0586 8.25195 66.8945 12.207ZM7.66602 54.9316C10.1074 56.25 12.4512 56.7383 16.1133 56.7383L96.9727 56.7383C109.277 56.7383 115.771 55.0781 123.486 51.0254L132.178 46.6309C140.43 42.334 140.723 39.2578 140.625 32.1289L135.547 32.0312C138.428 33.7891 137.402 37.6465 129.59 41.7969L120.898 46.2891C114.111 49.9023 108.789 51.2695 96.9727 51.2695L16.1133 51.2695C11.4746 51.2695 9.0332 50.6836 7.66602 49.2676ZM71.2402 10.5957L62.5977 22.4609C61.7188 23.6328 61.8164 25.3906 62.9883 26.2695C64.1113 27.1973 65.918 27.0996 66.7969 25.9277L75.4883 14.0137ZM82.3242 16.2109L73.7793 27.9297C72.8027 29.248 72.9492 30.8105 74.1211 31.6895C75.4395 32.7637 77.0508 32.666 78.0273 31.3477L86.5234 19.6289ZM93.2617 21.875L84.9121 33.3984C83.9355 34.668 84.0332 36.2793 85.2051 37.1582C86.4258 38.2324 88.0859 38.0859 89.0625 36.8164L97.5098 25.2441Z" fill="#000000" fill-opacity="0.85"/>
 </g>
</svg>
