<?xml version="1.0" encoding="UTF-8"?>
<!--Generator: Apple Native CoreSVG 232.5-->
<!DOCTYPE svg
PUBLIC "-//W3C//DTD SVG 1.1//EN"
       "http://www.w3.org/Graphics/SVG/1.1/DTD/svg11.dtd">
<svg version="1.1" xmlns="http://www.w3.org/2000/svg" xmlns:xlink="http://www.w3.org/1999/xlink" width="90.5055" height="113.818">
 <g>
  <rect height="113.818" opacity="0" width="90.5055" x="0" y="0"/>
  <path d="M79.5057 32.0801C69.5447 28.4668 55.0916 40.2344 50.7947 51.9531C48.7928 57.5684 46.6443 69.2871 47.7674 79.7363L73.158 88.9648C80.7752 81.6895 86.6834 71.4355 88.7342 65.7227C92.9822 54.0527 89.4666 35.7422 79.5057 32.0801ZM50.6971 111.328C57.8748 113.916 64.3201 108.203 67.9822 98.1445C68.324 97.168 68.7146 95.7031 69.0076 94.5312L47.5232 86.6699C46.9373 87.7441 46.3025 89.1113 45.9607 90.0879C42.2986 100.195 43.5682 108.691 50.6971 111.328Z" fill="#000000" fill-opacity="0.85"/>
  <path d="M20.1795 0C9.63261 0 0.0134733 16.0645 0.0134733 28.5156C0.0134733 34.4727 2.01543 46.1914 6.70293 55.6152L33.7049 55.6152C38.3436 46.1914 40.3943 34.4727 40.3943 28.5156C40.3943 16.0645 30.7752 0 20.1795 0ZM20.2283 84.3262C27.8455 84.3262 31.9471 76.7578 31.9471 66.0156C31.9471 64.9902 31.8494 63.4766 31.6541 62.3047L8.80254 62.3047C8.60722 63.4766 8.50957 64.9902 8.50957 66.0156C8.50957 76.7578 12.6111 84.3262 20.2283 84.3262Z" fill="#000000" fill-opacity="0.85"/>
 </g>
</svg>
