<?xml version="1.0" encoding="UTF-8"?>
<!--Generator: Apple Native CoreSVG 232.5-->
<!DOCTYPE svg
PUBLIC "-//W3C//DTD SVG 1.1//EN"
       "http://www.w3.org/Graphics/SVG/1.1/DTD/svg11.dtd">
<svg version="1.1" xmlns="http://www.w3.org/2000/svg" xmlns:xlink="http://www.w3.org/1999/xlink" width="148.145" height="69.3848">
 <g>
  <rect height="69.3848" opacity="0" width="148.145" x="0" y="0"/>
  <path d="M12.6465 54.248L97.6562 54.248C109.863 54.248 115.43 52.7832 122.412 49.0723L136.67 41.5527C144.678 37.2559 146.826 31.6895 143.164 27.7832C140.381 24.5117 135.547 21.6309 128.955 21.6309C123.633 21.6309 111.67 23.5352 107.178 23.5352C104.053 23.5352 102.637 23.4375 100.293 22.3633L92.041 33.5938C91.0645 34.8633 89.3066 35.1074 88.0371 33.9844C86.8652 33.0566 86.7188 31.4453 87.6953 30.0781L95.2637 19.6289L89.1602 16.0645L80.6641 27.9785C79.6387 29.3945 77.9297 29.4922 76.6113 28.3203C75.3906 27.4414 75.1953 25.8301 76.2207 24.4141L84.3262 13.2324L78.2227 9.66797L69.0918 22.3633C68.1641 23.584 66.3086 23.6816 65.1367 22.7539C63.916 21.8262 63.8184 19.9707 64.6973 18.7988L73.3398 6.78711L70.8984 5.37109C61.5234 0 52.9297 0.683594 45.8008 9.96094C40.1855 17.1387 34.4238 20.2148 28.4668 20.2148C23.1934 20.2148 19.5801 19.3848 15.6738 17.5781C8.1543 14.3066 0 17.6758 0 26.6113L0 48.4863C0 48.877 0 49.2676 0.0488281 49.6094C3.125 53.125 6.44531 54.248 12.6465 54.248ZM139.258 46.582L125.098 54.0039C117.041 58.3008 110.4 59.9121 97.6562 59.9121L12.6465 59.9121C8.1543 59.9121 4.6875 59.2285 0.927734 56.4453C3.66211 66.4062 11.6211 69.3848 19.2871 69.3848L96.9727 69.3848C112.646 69.3848 121.729 66.9922 133.984 60.2051C143.652 54.7852 148.145 48.0957 148.145 40.3809C148.145 39.3555 148.047 38.3789 147.949 37.4512C147.021 41.1621 144.824 43.6035 139.258 46.582Z" fill="#000000" fill-opacity="0.85"/>
 </g>
</svg>
