<?xml version="1.0" encoding="UTF-8"?>
<!--Generator: Apple Native CoreSVG 232.5-->
<!DOCTYPE svg
PUBLIC "-//W3C//DTD SVG 1.1//EN"
       "http://www.w3.org/Graphics/SVG/1.1/DTD/svg11.dtd">
<svg version="1.1" xmlns="http://www.w3.org/2000/svg" xmlns:xlink="http://www.w3.org/1999/xlink" width="113.086" height="106.494">
 <g>
  <rect height="106.494" opacity="0" width="113.086" x="0" y="0"/>
  <path d="M109.619 17.5781C111.523 17.5781 113.086 16.0156 113.086 14.1113C113.086 12.207 111.523 10.6445 109.619 10.6445C107.715 10.6445 106.152 12.207 106.152 14.1113C106.152 16.0156 107.715 17.5781 109.619 17.5781ZM104.492 47.3145C106.396 47.3145 107.959 45.752 107.959 43.8477C107.959 41.9434 106.396 40.3809 104.492 40.3809C102.588 40.3809 101.025 41.9434 101.025 43.8477C101.025 45.752 102.588 47.3145 104.492 47.3145ZM89.4043 73.4375C91.3086 73.4375 92.8711 71.875 92.8711 69.9707C92.8711 68.0664 91.3086 66.5039 89.4043 66.5039C87.4512 66.5039 85.9375 68.0664 85.9375 69.9707C85.9375 71.875 87.4512 73.4375 89.4043 73.4375Z" fill="#000000" fill-opacity="0.85"/>
  <path d="M96.4355 19.3359C98.3398 19.3359 99.9023 17.7734 99.9023 15.8691C99.9023 13.9648 98.3398 12.4023 96.4355 12.4023C94.5312 12.4023 92.9688 13.9648 92.9688 15.8691C92.9688 17.7734 94.5312 19.3359 96.4355 19.3359ZM90.8203 42.2852C92.7246 42.2852 94.2871 40.7227 94.2871 38.8184C94.2871 36.9141 92.7246 35.3516 90.8203 35.3516C88.916 35.3516 87.3535 36.9141 87.3535 38.8184C87.3535 40.7227 88.916 42.2852 90.8203 42.2852ZM80.3711 63.5742C82.2754 63.5742 83.8379 62.0117 83.8379 60.1074C83.8379 58.2031 82.2754 56.6406 80.3711 56.6406C78.4668 56.6406 76.9043 58.2031 76.9043 60.1074C76.9043 62.0117 78.4668 63.5742 80.3711 63.5742Z" fill="#000000" fill-opacity="0.85"/>
  <path d="M83.1055 21.0938C85.0586 21.0938 86.6211 19.5312 86.6211 17.627C86.6211 15.7227 85.0586 14.1602 83.1055 14.1602C81.2012 14.1602 79.6387 15.7227 79.6387 17.627C79.6387 19.5312 81.2012 21.0938 83.1055 21.0938ZM77.0508 37.3535C79.0039 37.3535 80.5176 35.791 80.5176 33.8867C80.5176 31.9824 79.0039 30.4199 77.0508 30.4199C75.1465 30.4199 73.584 31.9824 73.584 33.8867C73.584 35.791 75.1465 37.3535 77.0508 37.3535ZM71.3867 53.6621C73.291 53.6621 74.8535 52.0996 74.8535 50.1953C74.8535 48.291 73.291 46.7285 71.3867 46.7285C69.4824 46.7285 67.9199 48.291 67.9199 50.1953C67.9199 52.0996 69.4824 53.6621 71.3867 53.6621Z" fill="#000000" fill-opacity="0.85"/>
  <path d="M49.1699 52.4902L67.2852 2.58789C57.8613 0.195312 48.877 2.09961 42.2363 7.95898L41.3086 7.61719C35.2539 5.41992 29.5898 8.59375 26.9531 15.7715L5.61523 74.4629C4.05273 78.8086 5.9082 82.7148 10.2051 84.375C14.6484 85.8398 18.6523 84.082 20.166 79.834L36.6211 34.5215L34.3262 35.9375C36.4746 42.9688 41.6504 48.8281 49.1699 52.4902ZM13.4766 83.4473L8.39844 81.5918L0 104.639L5.07812 106.494ZM70.6055 2.88086L51.9043 54.3945C51.2207 56.2012 52.1484 58.2031 54.0039 58.8867C55.8105 59.5703 57.8125 58.5938 58.4961 56.8359L77.2461 5.32227C77.8809 3.4668 76.9531 1.46484 75.1465 0.78125C73.291 0.0976562 71.2402 1.07422 70.6055 2.88086Z" fill="#000000" fill-opacity="0.85"/>
 </g>
</svg>
