<?xml version="1.0" encoding="UTF-8"?>
<!--Generator: Apple Native CoreSVG 232.5-->
<!DOCTYPE svg
PUBLIC "-//W3C//DTD SVG 1.1//EN"
       "http://www.w3.org/Graphics/SVG/1.1/DTD/svg11.dtd">
<svg version="1.1" xmlns="http://www.w3.org/2000/svg" xmlns:xlink="http://www.w3.org/1999/xlink" width="79.1992" height="105.713">
 <g>
  <rect height="105.713" opacity="0" width="79.1992" x="0" y="0"/>
  <path d="M15.0879 105.029C16.9922 105.029 18.5547 103.467 18.5547 101.562C18.5547 99.6582 16.9922 98.0957 15.0879 98.0957C13.1836 98.0957 11.6211 99.6582 11.6211 101.562C11.6211 103.467 13.1836 105.029 15.0879 105.029ZM31.3965 105.029C33.3008 105.029 34.8633 103.467 34.8633 101.562C34.8633 99.6582 33.3008 98.0957 31.3965 98.0957C29.4922 98.0957 27.9297 99.6582 27.9297 101.562C27.9297 103.467 29.4922 105.029 31.3965 105.029ZM47.6562 105.029C49.5605 105.029 51.123 103.467 51.123 101.562C51.123 99.6582 49.5605 98.0957 47.6562 98.0957C45.752 98.0957 44.1895 99.6582 44.1895 101.562C44.1895 103.467 45.752 105.029 47.6562 105.029Z" fill="#000000" fill-opacity="0.85"/>
  <path d="M15.0879 90.4785C16.9922 90.4785 18.5547 88.916 18.5547 87.0117C18.5547 85.1074 16.9922 83.5449 15.0879 83.5449C13.1836 83.5449 11.6211 85.1074 11.6211 87.0117C11.6211 88.916 13.1836 90.4785 15.0879 90.4785ZM31.3965 90.4785C33.3008 90.4785 34.8633 88.916 34.8633 87.0117C34.8633 85.1074 33.3008 83.5449 31.3965 83.5449C29.4922 83.5449 27.9297 85.1074 27.9297 87.0117C27.9297 88.916 29.4922 90.4785 31.3965 90.4785ZM47.6562 90.4785C49.5605 90.4785 51.123 88.916 51.123 87.0117C51.123 85.1074 49.5605 83.5449 47.6562 83.5449C45.752 83.5449 44.1895 85.1074 44.1895 87.0117C44.1895 88.916 45.752 90.4785 47.6562 90.4785Z" fill="#000000" fill-opacity="0.85"/>
  <path d="M15.0879 75.8789C16.9922 75.8789 18.5547 74.3652 18.5547 72.4121C18.5547 70.5078 16.9922 68.9453 15.0879 68.9453C13.1836 68.9453 11.6211 70.5078 11.6211 72.4121C11.6211 74.3652 13.1836 75.8789 15.0879 75.8789ZM31.3965 75.8789C33.3008 75.8789 34.8633 74.3652 34.8633 72.4121C34.8633 70.5078 33.3008 68.9453 31.3965 68.9453C29.4922 68.9453 27.9297 70.5078 27.9297 72.4121C27.9297 74.3652 29.4922 75.8789 31.3965 75.8789ZM47.6562 75.8789C49.5605 75.8789 51.123 74.3652 51.123 72.4121C51.123 70.5078 49.5605 68.9453 47.6562 68.9453C45.752 68.9453 44.1895 70.5078 44.1895 72.4121C44.1895 74.3652 45.752 75.8789 47.6562 75.8789Z" fill="#000000" fill-opacity="0.85"/>
  <path d="M54.4922 0L41.2598 0C32.959 0 27.7832 5.07812 27.7832 13.1836L27.7832 21.7773L35.1562 21.7773L35.1562 13.1836C35.1562 9.61914 37.4512 7.42188 41.2598 7.42188L54.4922 7.42188C65.0391 7.42188 71.8262 14.7461 71.8262 26.0742L71.8262 101.855C71.8262 104.053 73.3398 105.615 75.4883 105.615C77.6367 105.615 79.1992 104.053 79.1992 101.855L79.1992 26.0742C79.1992 10.2051 69.5801 0 54.4922 0ZM0 59.668C0 61.4258 1.46484 62.8418 3.22266 62.8418L59.7168 62.8418C61.4746 62.8418 62.8906 61.4258 62.8906 59.668C62.8906 57.9102 61.5234 56.4453 59.8145 56.4453L59.5215 56.4453C59.1309 45.9473 52.4414 36.8652 43.2129 32.5684L43.2129 28.8086C43.2129 22.0703 38.3301 17.0898 31.4453 17.0898C24.5605 17.0898 19.6777 22.0703 19.6777 28.8086L19.6777 32.5684C10.4492 36.8652 3.75977 45.9473 3.36914 56.4453L3.125 56.4453C1.41602 56.4453 0 57.9102 0 59.668Z" fill="#000000" fill-opacity="0.85"/>
 </g>
</svg>
