<?xml version="1.0" encoding="UTF-8"?>
<!--Generator: Apple Native CoreSVG 232.5-->
<!DOCTYPE svg
PUBLIC "-//W3C//DTD SVG 1.1//EN"
       "http://www.w3.org/Graphics/SVG/1.1/DTD/svg11.dtd">
<svg version="1.1" xmlns="http://www.w3.org/2000/svg" xmlns:xlink="http://www.w3.org/1999/xlink" width="99.6094" height="99.6582">
 <g>
  <rect height="99.6582" opacity="0" width="99.6094" x="0" y="0"/>
  <path d="M49.8047 99.6094C77.0508 99.6094 99.6094 77.002 99.6094 49.8047C99.6094 22.5586 77.002 0 49.7559 0C22.5586 0 0 22.5586 0 49.8047C0 77.002 22.6074 99.6094 49.8047 99.6094ZM49.8047 91.3086C26.7578 91.3086 8.34961 72.8516 8.34961 49.8047C8.34961 26.7578 26.709 8.30078 49.7559 8.30078C72.8027 8.30078 91.3086 26.7578 91.3086 49.8047C91.3086 72.8516 72.8516 91.3086 49.8047 91.3086Z" fill="#000000" fill-opacity="0.85"/>
  <path d="M19.5801 62.8906C19.5801 64.5508 20.8984 65.7715 22.7051 65.7715L28.5156 65.7715C32.9102 65.7715 35.5957 64.502 38.8184 60.791L54.1992 42.8223C56.25 40.4297 57.8125 39.5996 60.498 39.5996L64.7949 39.5996L64.7949 44.4824C64.7949 45.9473 65.7715 46.9238 67.1875 46.9238C67.9199 46.9238 68.6035 46.6797 69.043 46.1914L78.6133 38.3301C79.7363 37.4023 79.7852 35.6934 78.6621 34.7168L68.9941 26.709C68.5059 26.3184 67.8711 26.0742 67.1875 26.0742C65.7227 26.0742 64.7949 27.002 64.7949 28.4668L64.7949 33.8379L60.3027 33.8379C55.9082 33.8379 53.1738 35.1074 49.9512 38.8184L34.6191 56.7871C32.5195 59.2285 31.0059 60.0098 28.6133 60.0098L22.7051 60.0098C20.9473 60.0098 19.5801 61.2793 19.5801 62.8906ZM19.5801 36.7188C19.5801 38.3301 20.9473 39.5996 22.7051 39.5996L28.6133 39.5996C31.0059 39.5996 32.5684 40.4297 34.6191 42.8223L49.9512 60.791C53.1738 64.502 55.9082 65.7715 60.3027 65.7715L64.7949 65.7715L64.7949 71.2891C64.7949 72.7539 65.7227 73.6816 67.1875 73.6816C67.8711 73.6816 68.5059 73.4375 68.9941 73.0469L78.6133 65.0879C79.7852 64.1113 79.7852 62.4512 78.6621 61.5234L69.043 53.5645C68.6035 53.0762 67.9199 52.832 67.1875 52.832C65.7715 52.832 64.7949 53.8086 64.7949 55.2734L64.7949 60.0098L60.498 60.0098C57.8125 60.0098 56.25 59.1797 54.1992 56.7871L38.8184 38.8184C35.5957 35.1074 32.9102 33.8379 28.5156 33.8379L22.7051 33.8379C20.8984 33.8379 19.5801 35.0586 19.5801 36.7188Z" fill="#000000" fill-opacity="0.85"/>
 </g>
</svg>
