<?xml version="1.0" encoding="UTF-8"?>
<!--Generator: Apple Native CoreSVG 232.5-->
<!DOCTYPE svg
PUBLIC "-//W3C//DTD SVG 1.1//EN"
       "http://www.w3.org/Graphics/SVG/1.1/DTD/svg11.dtd">
<svg version="1.1" xmlns="http://www.w3.org/2000/svg" xmlns:xlink="http://www.w3.org/1999/xlink" width="115.137" height="89.9902">
 <g>
  <rect height="89.9902" opacity="0" width="115.137" x="0" y="0"/>
  <path d="M15.332 89.9902L99.8047 89.9902C110.059 89.9902 115.137 84.9121 115.137 74.8535L115.137 15.2344C115.137 5.17578 110.059 0.0976562 99.8047 0.0976562L15.332 0.0976562C5.12695 0.0976562 0 5.12695 0 15.2344L0 74.8535C0 84.9609 5.12695 89.9902 15.332 89.9902ZM15.4297 82.1289C10.5469 82.1289 7.86133 79.541 7.86133 74.4629L7.86133 15.625C7.86133 10.5469 10.5469 7.95898 15.4297 7.95898L99.707 7.95898C104.541 7.95898 107.275 10.5469 107.275 15.625L107.275 74.4629C107.275 79.541 104.541 82.1289 99.707 82.1289ZM37.207 83.6426L44.873 83.6426L44.873 6.49414L37.207 6.49414ZM17.9688 31.2988L27.1973 31.2988C28.418 31.2988 29.3945 30.4199 29.3945 29.1016L29.3945 19.9707C29.3945 18.6035 28.4668 17.7246 27.1973 17.7246L17.9688 17.7246C16.6016 17.7246 15.6738 18.6035 15.6738 19.9707L15.6738 29.1016C15.6738 30.4199 16.6504 31.2988 17.9688 31.2988ZM17.9688 51.8066L27.1973 51.8066C28.418 51.8066 29.3945 50.8301 29.3945 49.6094L29.3945 40.3809C29.3945 39.1113 28.4668 38.1348 27.1973 38.1348L17.9688 38.1348C16.6016 38.1348 15.6738 39.1113 15.6738 40.3809L15.6738 49.6094C15.6738 50.8301 16.6504 51.8066 17.9688 51.8066ZM17.9688 72.2168L27.1973 72.2168C28.418 72.2168 29.3945 71.3379 29.3945 70.0195L29.3945 60.8887C29.3945 59.5703 28.4668 58.6426 27.1973 58.6426L17.9688 58.6426C16.6016 58.6426 15.6738 59.5703 15.6738 60.8887L15.6738 70.0195C15.6738 71.3379 16.6504 72.2168 17.9688 72.2168Z" fill="#000000" fill-opacity="0.85"/>
 </g>
</svg>
