<?xml version="1.0" encoding="UTF-8"?>
<!--Generator: Apple Native CoreSVG 232.5-->
<!DOCTYPE svg
PUBLIC "-//W3C//DTD SVG 1.1//EN"
       "http://www.w3.org/Graphics/SVG/1.1/DTD/svg11.dtd">
<svg version="1.1" xmlns="http://www.w3.org/2000/svg" xmlns:xlink="http://www.w3.org/1999/xlink" width="115.137" height="89.9902">
 <g>
  <rect height="89.9902" opacity="0" width="115.137" x="0" y="0"/>
  <path d="M15.332 89.9902L99.8047 89.9902C110.059 89.9902 115.137 84.9121 115.137 74.8535L115.137 15.2344C115.137 5.17578 110.059 0.0976562 99.8047 0.0976562L15.332 0.0976562C5.12695 0.0976562 0 5.12695 0 15.2344L0 74.8535C0 84.9609 5.12695 89.9902 15.332 89.9902ZM15.4297 82.1289C10.5469 82.1289 7.86133 79.541 7.86133 74.4629L7.86133 15.625C7.86133 10.5469 10.5469 7.95898 15.4297 7.95898L99.707 7.95898C104.541 7.95898 107.275 10.5469 107.275 15.625L107.275 74.4629C107.275 79.541 104.541 82.1289 99.707 82.1289ZM70.4102 83.6426L78.0762 83.6426L78.0762 6.49414L70.4102 6.49414ZM87.4512 26.0742L97.9004 26.0742C99.4141 26.0742 100.684 24.7559 100.684 23.3398C100.684 21.875 99.4141 20.6055 97.9004 20.6055L87.4512 20.6055C85.9863 20.6055 84.668 21.875 84.668 23.3398C84.668 24.7559 85.9863 26.0742 87.4512 26.0742ZM87.4512 38.7207L97.9004 38.7207C99.4141 38.7207 100.684 37.4023 100.684 35.9375C100.684 34.4727 99.4141 33.252 97.9004 33.252L87.4512 33.252C85.9863 33.252 84.668 34.4727 84.668 35.9375C84.668 37.4023 85.9863 38.7207 87.4512 38.7207ZM87.4512 51.3184L97.9004 51.3184C99.4141 51.3184 100.684 50.0977 100.684 48.6328C100.684 47.168 99.4141 45.8984 97.9004 45.8984L87.4512 45.8984C85.9863 45.8984 84.668 47.168 84.668 48.6328C84.668 50.0977 85.9863 51.3184 87.4512 51.3184Z" fill="#000000" fill-opacity="0.85"/>
 </g>
</svg>
