<?xml version="1.0" encoding="UTF-8"?>
<!--Generator: Apple Native CoreSVG 232.5-->
<!DOCTYPE svg
PUBLIC "-//W3C//DTD SVG 1.1//EN"
       "http://www.w3.org/Graphics/SVG/1.1/DTD/svg11.dtd">
<svg version="1.1" xmlns="http://www.w3.org/2000/svg" xmlns:xlink="http://www.w3.org/1999/xlink" width="115.137" height="89.9902">
 <g>
  <rect height="89.9902" opacity="0" width="115.137" x="0" y="0"/>
  <path d="M15.332 89.9902L99.8047 89.9902C110.059 89.9902 115.137 84.9121 115.137 74.8535L115.137 15.2344C115.137 5.17578 110.059 0.0976562 99.8047 0.0976562L15.332 0.0976562C5.12695 0.0976562 0 5.12695 0 15.2344L0 74.8535C0 84.9609 5.12695 89.9902 15.332 89.9902ZM15.4297 82.1289C10.5469 82.1289 7.86133 79.541 7.86133 74.4629L7.86133 15.625C7.86133 10.5469 10.5469 7.95898 15.4297 7.95898L99.707 7.95898C104.541 7.95898 107.275 10.5469 107.275 15.625L107.275 74.4629C107.275 79.541 104.541 82.1289 99.707 82.1289ZM37.207 83.6426L44.873 83.6426L44.873 6.49414L37.207 6.49414ZM27.832 26.0742C29.2969 26.0742 30.6152 24.7559 30.6152 23.3398C30.6152 21.875 29.2969 20.6055 27.832 20.6055L17.334 20.6055C15.8691 20.6055 14.5996 21.875 14.5996 23.3398C14.5996 24.7559 15.8691 26.0742 17.334 26.0742ZM27.832 38.7207C29.2969 38.7207 30.6152 37.4023 30.6152 35.9375C30.6152 34.4727 29.2969 33.252 27.832 33.252L17.334 33.252C15.8691 33.252 14.5996 34.4727 14.5996 35.9375C14.5996 37.4023 15.8691 38.7207 17.334 38.7207ZM27.832 51.3184C29.2969 51.3184 30.6152 50.0977 30.6152 48.6328C30.6152 47.168 29.2969 45.8984 27.832 45.8984L17.334 45.8984C15.8691 45.8984 14.5996 47.168 14.5996 48.6328C14.5996 50.0977 15.8691 51.3184 17.334 51.3184Z" fill="#000000" fill-opacity="0.85"/>
 </g>
</svg>
