<?xml version="1.0" encoding="UTF-8"?>
<!--Generator: Apple Native CoreSVG 232.5-->
<!DOCTYPE svg
PUBLIC "-//W3C//DTD SVG 1.1//EN"
       "http://www.w3.org/Graphics/SVG/1.1/DTD/svg11.dtd">
<svg version="1.1" xmlns="http://www.w3.org/2000/svg" xmlns:xlink="http://www.w3.org/1999/xlink" width="99.6094" height="99.6582">
 <g>
  <rect height="99.6582" opacity="0" width="99.6094" x="0" y="0"/>
  <path d="M49.8047 99.6094C77.0508 99.6094 99.6094 77.002 99.6094 49.8047C99.6094 22.5586 77.002 0 49.7559 0C22.5586 0 0 22.5586 0 49.8047C0 77.002 22.6074 99.6094 49.8047 99.6094ZM49.8047 91.3086C26.7578 91.3086 8.34961 72.8516 8.34961 49.8047C8.34961 26.7578 26.709 8.30078 49.7559 8.30078C72.8027 8.30078 91.3086 26.7578 91.3086 49.8047C91.3086 72.8516 72.8516 91.3086 49.8047 91.3086Z" fill="#000000" fill-opacity="0.85"/>
  <path d="M41.4062 43.457L47.0215 43.457L47.0215 47.4609L34.8145 47.4609C33.3984 47.4609 32.4219 47.8516 31.4941 48.6816L26.7578 53.2715C24.9023 55.0293 24.9023 56.7383 26.7578 58.4961L31.4941 63.0371C32.4219 63.916 33.4473 64.3066 34.8145 64.3066L47.0215 64.3066L47.0215 72.2656L40.9668 72.2656C39.502 72.2656 38.3301 73.4375 38.3301 74.9512C38.3301 76.4648 39.502 77.6855 40.9668 77.6855L58.3984 77.6855C59.9121 77.6855 61.1328 76.4648 61.1328 74.9512C61.1328 73.4375 59.9121 72.2656 58.3984 72.2656L52.4414 72.2656L52.4414 64.3066L58.0078 64.3066C60.2051 64.3066 61.5234 63.0371 61.5234 60.791L61.5234 50.9277C61.5234 48.6816 60.2051 47.4609 58.0078 47.4609L52.4414 47.4609L52.4414 43.457L64.5996 43.457C65.9668 43.457 66.9922 43.0664 67.9199 42.1875L72.7051 37.6465C74.5117 35.9375 74.5117 34.2285 72.6562 32.4219L67.9199 27.832C66.9922 27.002 66.0156 26.6113 64.5996 26.6113L52.4414 26.6113L52.4414 22.5586C52.4414 21.0938 51.2207 19.8242 49.707 19.8242C48.1934 19.8242 47.0215 21.0938 47.0215 22.5586L47.0215 26.6113L41.4062 26.6113C39.209 26.6113 37.8906 27.832 37.8906 30.127L37.8906 39.9902C37.8906 42.1875 39.209 43.457 41.4062 43.457Z" fill="#000000" fill-opacity="0.85"/>
 </g>
</svg>
