<?xml version="1.0" encoding="UTF-8"?>
<!--Generator: Apple Native CoreSVG 232.5-->
<!DOCTYPE svg
PUBLIC "-//W3C//DTD SVG 1.1//EN"
       "http://www.w3.org/Graphics/SVG/1.1/DTD/svg11.dtd">
<svg version="1.1" xmlns="http://www.w3.org/2000/svg" xmlns:xlink="http://www.w3.org/1999/xlink" width="99.6094" height="99.6582">
 <g>
  <rect height="99.6582" opacity="0" width="99.6094" x="0" y="0"/>
  <path d="M49.8047 99.6094C77.0508 99.6094 99.6094 77.002 99.6094 49.8047C99.6094 22.5586 77.002 0 49.7559 0C22.5586 0 0 22.5586 0 49.8047C0 77.002 22.6074 99.6094 49.8047 99.6094ZM49.8047 91.3086C26.7578 91.3086 8.34961 72.8516 8.34961 49.8047C8.34961 26.7578 26.709 8.30078 49.7559 8.30078C72.8027 8.30078 91.3086 26.7578 91.3086 49.8047C91.3086 72.8516 72.8516 91.3086 49.8047 91.3086Z" fill="#000000" fill-opacity="0.85"/>
  <path d="M32.2754 55.0781L47.0215 55.0781L47.0215 70.8984L40.332 70.8984C38.8184 70.8984 37.5977 72.0703 37.5977 73.584C37.5977 75.0977 38.8184 76.3184 40.332 76.3184L59.1309 76.3184C60.6445 76.3184 61.8652 75.0977 61.8652 73.584C61.8652 72.0703 60.6445 70.8984 59.1309 70.8984L52.4414 70.8984L52.4414 55.0781L64.2578 55.0781C66.4062 55.0781 67.4316 54.3945 68.6523 53.2227L75.1953 47.0215C77.7832 44.5312 77.8809 42.041 75.1465 39.4531L68.6523 33.252C67.4316 32.0801 66.4062 31.4453 64.2578 31.4453L52.4414 31.4453L52.4414 25.9766C52.4414 24.4629 51.2207 23.2422 49.7559 23.2422C48.1934 23.2422 47.0215 24.4629 47.0215 25.9766L47.0215 31.4453L32.2754 31.4453C29.0039 31.4453 27.1484 33.2031 27.1484 36.4258L27.1484 50C27.1484 53.2715 29.0039 55.0781 32.2754 55.0781Z" fill="#000000" fill-opacity="0.85"/>
 </g>
</svg>
