<?xml version="1.0" encoding="UTF-8"?>
<!--Generator: Apple Native CoreSVG 232.5-->
<!DOCTYPE svg
PUBLIC "-//W3C//DTD SVG 1.1//EN"
       "http://www.w3.org/Graphics/SVG/1.1/DTD/svg11.dtd">
<svg version="1.1" xmlns="http://www.w3.org/2000/svg" xmlns:xlink="http://www.w3.org/1999/xlink" width="99.6094" height="99.6582">
 <g>
  <rect height="99.6582" opacity="0" width="99.6094" x="0" y="0"/>
  <path d="M99.6094 49.8535C99.6094 77.0996 77.0508 99.6582 49.8047 99.6582C22.6074 99.6582 0 77.0996 0 49.8535C0 22.6562 22.5586 0.0488281 49.7559 0.0488281C77.002 0.0488281 99.6094 22.6562 99.6094 49.8535ZM46.9727 22.6074L46.9727 27.1973L30.4688 27.1973C26.709 27.1973 24.6094 29.248 24.6094 33.0078L24.6094 50.1953C24.6094 53.8574 26.709 55.957 30.4688 55.957L46.9727 55.957L46.9727 74.2676L38.9648 74.2676C37.4512 74.2676 36.1328 75.5859 36.1328 77.0996C36.1328 78.6133 37.4512 79.8828 38.9648 79.8828L60.5469 79.8828C62.0605 79.8828 63.3789 78.6133 63.3789 77.0996C63.3789 75.5859 62.0605 74.2676 60.5469 74.2676L52.5879 74.2676L52.5879 55.957L69.043 55.957C72.8027 55.957 74.9512 53.8574 74.9512 50.1953L74.9512 33.0078C74.9512 29.248 72.8027 27.1973 69.043 27.1973L52.5879 27.1973L52.5879 22.6074C52.5879 21.0938 51.2695 19.8242 49.7559 19.8242C48.2422 19.8242 46.9727 21.0938 46.9727 22.6074ZM51.416 35.4004L58.0078 44.8242C59.1309 46.4355 58.5449 47.8027 56.5918 47.8027L43.0664 47.8027C40.9668 47.8027 40.4297 46.4355 41.5527 44.8242L48.1934 35.4004C49.0723 34.1309 50.5371 34.1309 51.416 35.4004Z" fill="#000000" fill-opacity="0.85"/>
 </g>
</svg>
