<?xml version="1.0" encoding="UTF-8"?>
<!--Generator: Apple Native CoreSVG 232.5-->
<!DOCTYPE svg
PUBLIC "-//W3C//DTD SVG 1.1//EN"
       "http://www.w3.org/Graphics/SVG/1.1/DTD/svg11.dtd">
<svg version="1.1" xmlns="http://www.w3.org/2000/svg" xmlns:xlink="http://www.w3.org/1999/xlink" width="102.503" height="102.881">
 <g>
  <rect height="102.881" opacity="0" width="102.503" x="0" y="0"/>
  <path d="M89.6791 62.2559C96.3198 62.2559 100.031 58.5938 100.031 52.0508L100.031 24.8535C100.031 18.3105 96.3198 14.6973 89.6791 14.6973L25.9096 14.6973C21.5639 14.6973 19.5131 16.0156 17.0229 18.457L4.03461 30.8105C-1.43414 36.084-1.23883 41.0156 3.98578 46.0449L17.0229 58.4961C19.5131 60.8887 21.5639 62.207 25.9584 62.207ZM89.4838 54.3945L26.2026 54.3945C24.2983 54.3945 23.6635 53.9551 22.7358 53.125L9.30805 40.332C7.98969 39.1602 7.98969 37.6953 9.25922 36.5234L22.687 23.8281C23.6147 22.998 24.2983 22.5586 26.1538 22.5586L89.4838 22.5586C91.0463 22.5586 91.9741 23.5352 91.9741 25.0977L91.9741 51.8066C91.9741 53.3691 91.0463 54.3945 89.4838 54.3945ZM58.8686 20.8496L58.8686 3.95508C58.8686 1.80664 57.062 0 54.9135 0C52.7651 0 51.0073 1.80664 51.0073 3.95508L51.0073 20.8496ZM58.8686 59.4727L51.0073 59.4727L51.0073 102.539L58.8686 102.539ZM77.6186 98.877C77.6186 96.7285 75.8608 94.9219 73.7123 94.9219L36.0659 94.9219C33.9174 94.9219 32.1596 96.7285 32.1596 98.877C32.1596 101.025 33.9174 102.783 36.0659 102.783L73.7123 102.783C75.8608 102.783 77.6186 101.025 77.6186 98.877Z" fill="#000000" fill-opacity="0.85"/>
 </g>
</svg>
