<?xml version="1.0" encoding="UTF-8"?>
<!--Generator: Apple Native CoreSVG 232.5-->
<!DOCTYPE svg
PUBLIC "-//W3C//DTD SVG 1.1//EN"
       "http://www.w3.org/Graphics/SVG/1.1/DTD/svg11.dtd">
<svg version="1.1" xmlns="http://www.w3.org/2000/svg" xmlns:xlink="http://www.w3.org/1999/xlink" width="88.0859" height="102.881">
 <g>
  <rect height="102.881" opacity="0" width="88.0859" x="0" y="0"/>
  <path d="M40.0879 17.4316L47.9492 17.4316L47.9492 3.95508C47.9492 1.80664 46.1914 0 44.043 0C41.8945 0 40.0879 1.80664 40.0879 3.95508ZM0 52.0508C0 58.5938 3.71094 62.2559 10.3516 62.2559L77.7344 62.2559C84.375 62.2559 88.0859 58.5938 88.0859 52.0508L88.0859 21.9238C88.0859 15.3809 84.375 11.7676 77.7344 11.7676L10.3516 11.7676C3.71094 11.7676 0 15.3809 0 21.9238ZM10.5469 19.6289L77.5391 19.6289C79.0527 19.6289 80.0293 20.6055 80.0293 22.168L80.0293 51.8066C80.0293 53.3691 79.0527 54.3945 77.5391 54.3945L10.5469 54.3945C9.0332 54.3945 8.05664 53.3691 8.05664 51.8066L8.05664 22.168C8.05664 20.6055 9.0332 19.6289 10.5469 19.6289ZM40.0879 59.4727L40.0879 102.539L47.9492 102.539L47.9492 59.4727ZM21.2891 98.877C21.2891 101.025 23.0957 102.783 25.2441 102.783L62.8418 102.783C65.0391 102.783 66.7969 101.025 66.7969 98.877C66.7969 96.7285 65.0391 94.9219 62.8418 94.9219L25.2441 94.9219C23.0957 94.9219 21.2891 96.7285 21.2891 98.877Z" fill="#000000" fill-opacity="0.85"/>
  <path d="M32.666 47.6074L55.5176 47.6074C58.9355 47.6074 59.9121 45.166 58.0078 42.4805L46.875 26.5625C45.2637 24.3164 42.8711 24.3164 41.3086 26.5625L30.1758 42.4316C28.1738 45.2148 29.1016 47.6074 32.666 47.6074Z" fill="#000000" fill-opacity="0.85"/>
 </g>
</svg>
