<?xml version="1.0" encoding="UTF-8"?>
<!--Generator: Apple Native CoreSVG 232.5-->
<!DOCTYPE svg
PUBLIC "-//W3C//DTD SVG 1.1//EN"
       "http://www.w3.org/Graphics/SVG/1.1/DTD/svg11.dtd">
<svg version="1.1" xmlns="http://www.w3.org/2000/svg" xmlns:xlink="http://www.w3.org/1999/xlink" width="95.4104" height="110.303">
 <g>
  <rect height="110.303" opacity="0" width="95.4104" x="0" y="0"/>
  <path d="M43.8234 15.5762L51.6847 15.5762L51.6847 3.95508C51.6847 1.80664 49.8781 0 47.7296 0C45.5812 0 43.8234 1.80664 43.8234 3.95508ZM31.421 44.7754L76.8312 44.7754C79.6144 44.7754 81.5675 43.9941 83.3741 42.2363L92.7491 33.3008C96.3136 29.8828 96.3136 26.6602 92.6515 23.0469L83.3741 14.0625C81.6163 12.3535 79.6632 11.6211 76.88 11.6211L31.421 11.6211C27.0753 11.6211 24.4874 14.0137 24.4874 18.5059L24.4874 37.8906C24.4874 42.334 27.0753 44.7754 31.421 44.7754ZM18.5792 85.6445L63.9894 85.6445C68.3839 85.6445 70.923 83.2031 70.923 78.7598L70.923 59.3262C70.923 54.8828 68.3839 52.4414 63.9894 52.4414L18.5304 52.4414C15.796 52.4414 13.8429 53.2227 12.0363 54.9316L2.80774 63.916C-0.854368 67.4805-0.903197 70.752 2.71008 74.2188L12.0363 83.1055C13.8917 84.8633 15.8449 85.6445 18.5792 85.6445ZM43.8234 55.5664L51.6847 55.5664L51.6847 41.3574L43.8234 41.3574ZM43.8234 106.348L51.6847 106.348L51.6847 80.127L43.8234 80.127ZM30.8351 110.01L64.5753 110.01C66.7238 110.01 68.4816 108.252 68.4816 106.104C68.4816 103.955 66.7238 102.148 64.5753 102.148L30.8351 102.148C28.6866 102.148 26.9288 103.955 26.9288 106.104C26.9288 108.252 28.6866 110.01 30.8351 110.01Z" fill="#000000" fill-opacity="0.85"/>
 </g>
</svg>
