<?xml version="1.0" encoding="UTF-8"?>
<!--Generator: Apple Native CoreSVG 232.5-->
<!DOCTYPE svg
PUBLIC "-//W3C//DTD SVG 1.1//EN"
       "http://www.w3.org/Graphics/SVG/1.1/DTD/svg11.dtd">
<svg version="1.1" xmlns="http://www.w3.org/2000/svg" xmlns:xlink="http://www.w3.org/1999/xlink" width="99.6094" height="99.6582">
 <g>
  <rect height="99.6582" opacity="0" width="99.6094" x="0" y="0"/>
  <path d="M49.8047 99.6094C77.0508 99.6094 99.6094 77.002 99.6094 49.8047C99.6094 22.5586 77.002 0 49.7559 0C22.5586 0 0 22.5586 0 49.8047C0 77.002 22.6074 99.6094 49.8047 99.6094ZM49.8047 91.3086C26.7578 91.3086 8.34961 72.8516 8.34961 49.8047C8.34961 26.7578 26.709 8.30078 49.7559 8.30078C72.8027 8.30078 91.3086 26.7578 91.3086 49.8047C91.3086 72.8516 72.8516 91.3086 49.8047 91.3086Z" fill="#000000" fill-opacity="0.85"/>
  <path d="M67.2363 55.0781C70.5078 55.0781 72.3633 53.2715 72.3633 50L72.3633 36.4258C72.3633 33.2031 70.5078 31.4453 67.2363 31.4453L52.5391 31.4453L52.5391 25.9766C52.5391 24.4629 51.3184 23.2422 49.7559 23.2422C48.291 23.2422 47.1191 24.4629 47.1191 25.9766L47.1191 31.4453L35.3027 31.4453C33.1055 31.4453 32.0801 32.0801 30.8594 33.252L24.3652 39.4531C21.6309 42.041 21.7285 44.5312 24.3164 47.0215L30.8594 53.2227C32.0801 54.3945 33.1055 55.0781 35.3027 55.0781L47.1191 55.0781L47.1191 70.8984L40.3809 70.8984C38.8672 70.8984 37.6465 72.0703 37.6465 73.584C37.6465 75.0977 38.8672 76.3184 40.3809 76.3184L59.1797 76.3184C60.6934 76.3184 61.9629 75.0977 61.9629 73.584C61.9629 72.0703 60.6934 70.8984 59.1797 70.8984L52.5391 70.8984L52.5391 55.0781Z" fill="#000000" fill-opacity="0.85"/>
 </g>
</svg>
