<?xml version="1.0" encoding="UTF-8"?>
<!--Generator: Apple Native CoreSVG 232.5-->
<!DOCTYPE svg
PUBLIC "-//W3C//DTD SVG 1.1//EN"
       "http://www.w3.org/Graphics/SVG/1.1/DTD/svg11.dtd">
<svg version="1.1" xmlns="http://www.w3.org/2000/svg" xmlns:xlink="http://www.w3.org/1999/xlink" width="99.6094" height="99.6582">
 <g>
  <rect height="99.6582" opacity="0" width="99.6094" x="0" y="0"/>
  <path d="M99.6094 49.8535C99.6094 77.0996 77.0508 99.6582 49.8047 99.6582C22.6074 99.6582 0 77.0996 0 49.8535C0 22.6562 22.5586 0.0488281 49.7559 0.0488281C77.002 0.0488281 99.6094 22.6562 99.6094 49.8535ZM46.875 25.3418L46.875 30.957L31.7383 30.957C28.3203 30.957 26.416 32.7637 26.416 36.084L26.416 50.1465C26.416 53.4668 28.3203 55.3223 31.7383 55.3223L46.875 55.3223L46.875 71.582L39.9902 71.582C38.4277 71.582 37.1582 72.8516 37.1582 74.4141C37.1582 75.9277 38.4277 77.1973 39.9902 77.1973L59.375 77.1973C60.9375 77.1973 62.207 75.9277 62.207 74.4141C62.207 72.8516 60.9375 71.582 59.375 71.582L52.4902 71.582L52.4902 55.3223L64.6484 55.3223C66.8945 55.3223 67.9688 54.6387 69.1895 53.418L75.9277 47.0215C78.6133 44.4336 78.7109 41.8457 75.8789 39.209L69.1895 32.8613C67.9688 31.5918 66.8945 30.957 64.6484 30.957L52.4902 30.957L52.4902 25.3418C52.4902 23.7305 51.2207 22.4609 49.707 22.4609C48.0957 22.4609 46.875 23.7305 46.875 25.3418Z" fill="#000000" fill-opacity="0.85"/>
 </g>
</svg>
