<?xml version="1.0" encoding="UTF-8"?>
<!--Generator: Apple Native CoreSVG 232.5-->
<!DOCTYPE svg
PUBLIC "-//W3C//DTD SVG 1.1//EN"
       "http://www.w3.org/Graphics/SVG/1.1/DTD/svg11.dtd">
<svg version="1.1" xmlns="http://www.w3.org/2000/svg" xmlns:xlink="http://www.w3.org/1999/xlink" width="88.0859" height="102.881">
 <g>
  <rect height="102.881" opacity="0" width="88.0859" x="0" y="0"/>
  <path d="M47.9492 3.95508L47.9492 11.7676L77.7344 11.7676C84.375 11.7676 88.0859 15.3809 88.0859 21.9238L88.0859 52.0508C88.0859 58.5938 84.375 62.2559 77.7344 62.2559L47.9492 62.2559L47.9492 94.9219L62.8418 94.9219C65.0391 94.9219 66.7969 96.7285 66.7969 98.877C66.7969 101.025 65.0391 102.783 62.8418 102.783L25.2441 102.783C23.0957 102.783 21.2891 101.025 21.2891 98.877C21.2891 96.7285 23.0957 94.9219 25.2441 94.9219L40.0879 94.9219L40.0879 62.2559L10.3516 62.2559C3.71094 62.2559 0 58.5938 0 52.0508L0 21.9238C0 15.3809 3.71094 11.7676 10.3516 11.7676L40.0879 11.7676L40.0879 3.95508C40.0879 1.80664 41.8945 0 44.043 0C46.1914 0 47.9492 1.80664 47.9492 3.95508ZM41.2109 26.2695L29.7363 42.627C27.6367 45.5078 28.6133 47.998 32.3242 47.998L55.8594 47.998C59.4238 47.998 60.4492 45.5078 58.4473 42.6758L46.9727 26.2695C45.3125 23.9258 42.8223 23.9258 41.2109 26.2695Z" fill="#000000" fill-opacity="0.85"/>
 </g>
</svg>
