<?xml version="1.0" encoding="UTF-8"?>
<!--Generator: Apple Native CoreSVG 232.5-->
<!DOCTYPE svg
PUBLIC "-//W3C//DTD SVG 1.1//EN"
       "http://www.w3.org/Graphics/SVG/1.1/DTD/svg11.dtd">
<svg version="1.1" xmlns="http://www.w3.org/2000/svg" xmlns:xlink="http://www.w3.org/1999/xlink" width="99.6094" height="99.6582">
 <g>
  <rect height="99.6582" opacity="0" width="99.6094" x="0" y="0"/>
  <path d="M99.6094 49.8535C99.6094 77.0996 77.0508 99.6582 49.8047 99.6582C22.6074 99.6582 0 77.0996 0 49.8535C0 22.6562 22.5586 0.0488281 49.7559 0.0488281C77.002 0.0488281 99.6094 22.6562 99.6094 49.8535ZM46.9238 21.8262L46.9238 25.9766L41.1621 25.9766C38.8672 25.9766 37.5488 27.2461 37.5488 29.5898L37.5488 39.7949C37.5488 42.0898 38.8672 43.4082 41.1621 43.4082L46.9238 43.4082L46.9238 47.4609L34.375 47.4609C32.9102 47.4609 31.8848 47.8516 31.0059 48.7305L26.123 53.4668C24.1699 55.3223 24.1211 57.0312 26.0742 58.8379L31.0059 63.5254C31.8848 64.4531 32.959 64.8438 34.375 64.8438L46.9238 64.8438L46.9238 72.998L40.7715 72.998C39.2578 72.998 37.9883 74.2676 37.9883 75.8301C37.9883 77.3438 39.2578 78.6133 40.7715 78.6133L58.6914 78.6133C60.2539 78.6133 61.4746 77.3438 61.4746 75.8301C61.4746 74.2676 60.2539 72.998 58.6914 72.998L52.5391 72.998L52.5391 64.8438L58.3008 64.8438C60.5957 64.8438 61.9629 63.5742 61.9629 61.2305L61.9629 51.0742C61.9629 48.7793 60.5957 47.4609 58.3008 47.4609L52.5391 47.4609L52.5391 43.4082L65.0879 43.4082C66.5039 43.4082 67.5781 43.0176 68.457 42.041L73.3887 37.3535C75.3418 35.5957 75.3418 33.8379 73.3398 31.9824L68.457 27.2461C67.5781 26.3672 66.5527 25.9766 65.0879 25.9766L52.5391 25.9766L52.5391 21.8262C52.5391 20.3125 51.3184 19.043 49.7559 19.043C48.1934 19.043 46.9238 20.3125 46.9238 21.8262Z" fill="#000000" fill-opacity="0.85"/>
 </g>
</svg>
