<?xml version="1.0" encoding="UTF-8"?>
<!--Generator: Apple Native CoreSVG 232.5-->
<!DOCTYPE svg
PUBLIC "-//W3C//DTD SVG 1.1//EN"
       "http://www.w3.org/Graphics/SVG/1.1/DTD/svg11.dtd">
<svg version="1.1" xmlns="http://www.w3.org/2000/svg" xmlns:xlink="http://www.w3.org/1999/xlink" width="146.729" height="125.049">
 <g>
  <rect height="125.049" opacity="0" width="146.729" x="0" y="0"/>
  <path d="M35.7643 107.178L3.90625 107.178C1.75781 107.178 0 105.371 0 103.223C0 101.074 1.75781 99.3164 3.90625 99.3164L38.1955 99.3164C36.9965 102.031 36.1742 104.683 35.7643 107.178ZM65.2422 107.178L43.2263 107.178C43.646 104.773 44.5838 102.1 46.0162 99.3164L69.2993 99.3164C68.1121 102.249 66.757 104.901 65.2422 107.178ZM146.729 103.223C146.729 105.371 144.922 107.178 142.773 107.178L73.776 107.178C75.0894 104.782 76.2471 102.144 77.2533 99.3164L142.773 99.3164C144.922 99.3164 146.729 101.074 146.729 103.223ZM6.98242 67.041L13.1104 73.1331L19.2383 67.041C20.5078 65.7715 22.4121 65.7227 23.6816 67.041C25 68.3105 25 70.2148 23.6816 71.4844L17.5758 77.5724L23.6816 83.6426C25 84.9121 25 86.8652 23.6816 88.1348C22.4121 89.4043 20.5078 89.4043 19.2383 88.1348L13.1104 82.0248L6.98242 88.1348C5.71289 89.3555 3.80859 89.4043 2.53906 88.1348C1.2207 86.8652 1.2207 84.9609 2.53906 83.6426L8.64494 77.5724L2.53906 71.4844C1.2207 70.2637 1.2207 68.3105 2.53906 67.041C3.80859 65.7227 5.71289 65.7227 6.98242 67.041Z" fill="#000000" fill-opacity="0.85"/>
  <path d="M48.9258 125.049C69.1406 125.049 82.373 99.5605 82.373 67.1875C82.373 39.6973 69.9219 17.5293 50.3906 17.5293C37.8418 17.5293 28.125 28.2227 28.125 41.8457C28.125 62.0117 44.7266 78.418 62.0117 86.5723C62.6953 86.8652 63.2812 87.0117 63.8672 87.0117C65.8203 87.0117 67.2852 85.4492 67.2852 83.7402C67.2852 82.5684 66.6504 81.3965 65.2344 80.7129C54.0527 75.293 35.5957 61.5234 35.5957 41.8457C35.5957 32.3242 42.041 24.9512 50.3906 24.9512C65.3809 24.9512 74.9512 44.043 74.9512 67.1875C74.9512 94.8242 64.1602 117.627 49.8047 117.627C45.1172 117.627 42.9199 114.551 42.9199 110.156C42.9199 96.5332 63.5742 69.9707 91.9434 69.9707C93.6523 69.9707 94.6289 70.7031 94.6289 71.9727C94.6289 76.2207 92.334 79.541 92.334 83.7891C92.334 87.5 95.0195 89.7461 98.6328 89.7461C108.545 89.7461 120.459 72.8027 124.463 72.8027C128.076 72.8027 123.584 88.0371 135.84 88.0371C137.891 88.0371 140.479 87.5 142.48 86.1816C143.652 85.4004 144.482 84.2285 144.482 82.7148C144.482 80.8594 143.262 79.3457 141.357 79.3457C139.648 79.3457 138.232 80.7617 136.572 80.7617C131.299 80.7617 136.328 64.5508 126.611 64.5508C118.066 64.5508 104.834 81.0547 101.416 81.0547C101.025 81.0547 100.684 80.8105 100.684 80.2246C100.684 78.4668 102.832 74.4629 102.832 70.5566C102.832 65.6738 98.7793 62.5488 92.4805 62.5488C59.8633 62.5488 35.3027 93.1641 35.3027 111.572C35.3027 119.434 39.7461 125.049 48.9258 125.049Z" fill="#000000" fill-opacity="0.85"/>
 </g>
</svg>
