<?xml version="1.0" encoding="UTF-8"?>
<!--Generator: Apple Native CoreSVG 232.5-->
<!DOCTYPE svg
PUBLIC "-//W3C//DTD SVG 1.1//EN"
       "http://www.w3.org/Graphics/SVG/1.1/DTD/svg11.dtd">
<svg version="1.1" xmlns="http://www.w3.org/2000/svg" xmlns:xlink="http://www.w3.org/1999/xlink" width="102.539" height="102.881">
 <g>
  <rect height="102.881" opacity="0" width="102.539" x="0" y="0"/>
  <path d="M43.7013 20.8496L51.5626 20.8496L51.5626 3.95508C51.5626 1.80664 49.7559 0 47.6075 0C45.4591 0 43.7013 1.80664 43.7013 3.95508ZM12.8419 62.2559L76.5626 62.207C81.0059 62.207 83.0079 60.8887 85.4981 58.4961L98.5352 46.0449C103.809 41.0156 103.955 36.084 98.4864 30.8105L85.4981 18.457C83.0079 16.0156 81.0059 14.6973 76.6114 14.6973L12.8419 14.6973C6.20126 14.6973 2.49032 18.3105 2.49032 24.8535L2.49032 52.0508C2.49032 58.5938 6.20126 62.2559 12.8419 62.2559ZM43.7013 59.4727L43.7013 102.539L51.5626 102.539L51.5626 59.4727ZM24.9024 98.877C24.9024 101.025 26.7091 102.783 28.8575 102.783L66.4552 102.783C68.6036 102.783 70.4102 101.025 70.4102 98.877C70.4102 96.7285 68.6036 94.9219 66.4552 94.9219L28.8575 94.9219C26.7091 94.9219 24.9024 96.7285 24.9024 98.877Z" fill="#000000" fill-opacity="0.85"/>
 </g>
</svg>
