<?xml version="1.0" encoding="UTF-8"?>
<!--Generator: Apple Native CoreSVG 232.5-->
<!DOCTYPE svg
PUBLIC "-//W3C//DTD SVG 1.1//EN"
       "http://www.w3.org/Graphics/SVG/1.1/DTD/svg11.dtd">
<svg version="1.1" xmlns="http://www.w3.org/2000/svg" xmlns:xlink="http://www.w3.org/1999/xlink" width="82.1289" height="104.736">
 <g>
  <rect height="104.736" opacity="0" width="82.1289" x="0" y="0"/>
  <path d="M0 89.4531C0 99.6582 5.0293 104.736 15.1367 104.736L66.9922 104.736C77.0996 104.736 82.1289 99.6094 82.1289 89.4531L82.1289 34.7168C82.1289 29.8828 81.25 27.4902 78.5156 24.707L57.7637 4.00391C54.9316 1.12305 52.1484 0.0488281 47.7539 0.0488281L15.1367 0.0488281C5.07812 0.0488281 0 5.22461 0 15.3809ZM7.86133 89.3066L7.86133 15.5273C7.86133 10.6934 10.4492 7.91016 15.5273 7.91016L47.4609 7.91016C50.2441 7.91016 52.0996 8.64258 53.8574 10.498L72.0215 28.8574C73.7305 30.5664 74.2676 32.1289 74.2676 35.3027L74.2676 89.3066C74.2676 94.1895 71.6797 96.875 66.6016 96.875L15.4785 96.875C10.4492 96.875 7.86133 94.1895 7.86133 89.3066Z" fill="#000000" fill-opacity="0.85"/>
  <path d="M17.7734 81.8359C17.7734 86.0352 20.3613 88.623 24.5117 88.623L31.1523 88.623L31.1523 64.4043C31.1523 63.916 30.8594 63.6719 30.3711 63.6719L17.7734 63.6719ZM17.7734 58.252L33.6426 58.252C35.498 58.252 36.5723 59.375 36.5723 61.1816L36.5723 88.623L45.9473 88.623L45.9473 45.3125L24.5117 45.3125C20.3613 45.3125 17.7734 47.9004 17.7734 52.1484ZM51.3672 88.623L57.666 88.623C61.8164 88.623 64.4531 86.0352 64.4531 81.8359L64.4531 52.1484C64.4531 47.9004 61.8164 45.3125 57.666 45.3125L51.3672 45.3125Z" fill="#000000" fill-opacity="0.85"/>
 </g>
</svg>
