<?xml version="1.0" encoding="UTF-8"?>
<!--Generator: Apple Native CoreSVG 232.5-->
<!DOCTYPE svg
PUBLIC "-//W3C//DTD SVG 1.1//EN"
       "http://www.w3.org/Graphics/SVG/1.1/DTD/svg11.dtd">
<svg version="1.1" xmlns="http://www.w3.org/2000/svg" xmlns:xlink="http://www.w3.org/1999/xlink" width="101.221" height="95.9473">
 <g>
  <rect height="95.9473" opacity="0" width="101.221" x="0" y="0"/>
  <path d="M46.4355 53.3691L54.2969 53.3691L54.2969 13.4766C54.2969 10.0586 56.4941 7.86133 59.9121 7.86133C63.3301 7.86133 65.5273 10.0586 65.5273 13.4766L65.5273 21.6797C65.5273 23.8281 67.334 25.6348 69.4824 25.6348C71.6309 25.6348 73.3887 23.8281 73.3887 21.6797L73.3887 13.4766C73.3887 5.37109 68.0176 0 59.9121 0C51.8066 0 46.4355 5.37109 46.4355 13.4766ZM32.5195 53.3691L38.916 53.3691L38.916 40.5762C38.916 38.1836 37.3535 36.6699 35.0098 36.6699L20.5078 36.6699C18.75 36.6699 17.2852 38.1348 17.2852 39.8926C17.2852 41.6504 18.75 43.0664 20.5078 43.0664L31.5918 43.0664C32.1777 43.0664 32.5195 43.457 32.5195 43.9941ZM61.8164 53.3691L68.2129 53.3691L68.2129 43.9941C68.2129 43.457 68.5547 43.0664 69.1406 43.0664L80.2246 43.0664C81.9824 43.0664 83.3984 41.6504 83.3984 39.8926C83.3984 38.1348 81.9824 36.6699 80.2246 36.6699L65.7227 36.6699C63.3301 36.6699 61.8164 38.1836 61.8164 40.5762ZM3.90625 58.2031L97.3145 58.2031C99.4629 58.2031 101.221 56.3965 101.221 54.248C101.221 52.0996 99.4629 50.3418 97.3145 50.3418L3.90625 50.3418C1.75781 50.3418 0 52.0996 0 54.248C0 56.3965 1.75781 58.2031 3.90625 58.2031ZM28.125 95.8008L73.0957 95.8008C87.6953 95.8008 96.0938 87.9883 96.0938 74.3652L96.0938 55.6152L88.2324 55.6152L88.2324 74.3652C88.2324 83.4961 83.3984 87.9395 73.0957 87.9395L28.125 87.9395C17.8711 87.9395 13.0371 83.4961 13.0371 74.3652L13.0371 55.6152L5.17578 55.6152L5.17578 74.3652C5.17578 87.9883 13.5254 95.8008 28.125 95.8008Z" fill="#000000" fill-opacity="0.85"/>
 </g>
</svg>
