<?xml version="1.0" encoding="UTF-8"?>
<!--Generator: Apple Native CoreSVG 232.5-->
<!DOCTYPE svg
PUBLIC "-//W3C//DTD SVG 1.1//EN"
       "http://www.w3.org/Graphics/SVG/1.1/DTD/svg11.dtd">
<svg version="1.1" xmlns="http://www.w3.org/2000/svg" xmlns:xlink="http://www.w3.org/1999/xlink" width="107.715" height="107.8">
 <g>
  <rect height="107.8" opacity="0" width="107.715" x="0" y="0"/>
  <path d="M7.32422 100.36C17.041 110.077 31.9824 110.175 41.6504 100.555L100.391 41.8152C110.156 32.0496 110.156 17.0105 100.391 7.29371C90.6738-2.42308 75.6348-2.42308 65.918 7.24488L7.32422 65.8875C-2.44141 75.6043-2.44141 90.6433 7.32422 100.36ZM75 23.8464C73.584 22.4304 73.584 20.1355 75 18.7195C76.416 17.2547 78.8086 17.2547 80.2246 18.7195C81.6895 20.1355 81.6895 22.4304 80.2246 23.8464C78.8086 25.3113 76.416 25.3113 75 23.8464ZM83.7891 32.6355C82.373 31.2195 82.373 28.8269 83.7891 27.4109C85.2051 25.9949 87.5 25.9949 88.9648 27.4109C90.3809 28.8269 90.3809 31.2195 88.9648 32.6355C87.5 34.1004 85.2051 34.1004 83.7891 32.6355ZM66.3086 32.6355C64.8926 31.2195 64.8926 28.8269 66.3574 27.3621C67.7734 25.9461 70.0684 25.9461 71.4844 27.3621C72.9004 28.8269 72.9004 31.2195 71.4844 32.6355C70.0684 34.0515 67.7734 34.0515 66.3086 32.6355ZM75 41.3269C73.584 39.9109 73.584 37.5672 75 36.1511C76.4648 34.6863 78.8574 34.6863 80.2734 36.1511C81.6895 37.5672 81.6895 39.9109 80.2734 41.3269C78.8574 42.7429 76.4648 42.7429 75 41.3269ZM27.8809 71.0144C26.4648 69.5984 26.4648 67.2547 27.8809 65.8386C29.2969 64.4226 31.6406 64.4226 33.0566 65.8386C34.5215 67.2547 34.5215 69.5984 33.0566 71.0144C31.6406 72.4793 29.2969 72.4793 27.8809 71.0144ZM36.6211 79.8035C35.2051 78.3386 35.2051 75.9949 36.6211 74.53C38.0371 73.114 40.3809 73.114 41.7969 74.53C43.2617 75.9949 43.2617 78.3386 41.7969 79.8035C40.3809 81.2195 38.0371 81.2195 36.6211 79.8035ZM19.1406 79.7547C17.7246 78.3386 17.7246 75.9949 19.1406 74.53C20.6055 73.0652 22.9004 73.0652 24.3652 74.53C25.7812 75.9949 25.7812 78.3386 24.3652 79.7547C22.9004 81.1707 20.5566 81.1707 19.1406 79.7547ZM27.8809 88.4949C26.4648 87.0789 26.4648 84.7351 27.8809 83.3191C29.2969 81.8543 31.6895 81.8543 33.1055 83.3191C34.5215 84.7351 34.5215 87.0789 33.1055 88.4949C31.6895 89.9109 29.2969 89.9109 27.8809 88.4949ZM49.3652 16.1316L50.7812 17.4988C52.5391 19.3054 55.2246 19.3054 57.0312 17.4988L65.1367 9.44215C66.9922 7.63551 66.9922 4.94996 65.1367 3.14332L63.7207 1.72731C61.9629-0.030506 59.2773-0.030506 57.4707 1.77613L49.3652 9.83278C47.5586 11.6394 47.5586 14.325 49.3652 16.1316ZM90.1367 56.9031L91.5039 58.2703C93.3594 60.0281 95.9961 60.0281 97.8027 58.2703L105.908 50.1648C107.715 48.407 107.715 45.7214 105.908 43.9148L104.541 42.4988C102.734 40.741 100.049 40.741 98.291 42.4988L90.1367 50.6043C88.3301 52.4109 88.3301 55.0964 90.1367 56.9031ZM2.24609 63.2507L3.66211 64.6668C5.46875 66.4246 8.10547 66.4246 9.91211 64.6668L18.0176 56.5613C19.7754 54.7547 19.7754 52.1179 18.0176 50.2625L16.6016 48.9441C14.7949 47.0886 12.1094 47.0886 10.3516 48.9441L2.24609 56.9519C0.439453 58.7586 0.439453 61.4929 2.24609 63.2507ZM42.9688 104.071L44.3848 105.438C46.1914 107.245 48.877 107.245 50.6348 105.487L58.7402 97.3816C60.5469 95.5261 60.5469 92.8894 58.7402 91.0828L57.373 89.6668C55.5664 87.8601 52.8809 87.8601 51.0742 89.6668L42.9688 97.7722C41.2109 99.5789 41.2109 102.313 42.9688 104.071Z" fill="#000000" fill-opacity="0.85"/>
 </g>
</svg>
