<?xml version="1.0" encoding="UTF-8"?>
<!--Generator: Apple Native CoreSVG 232.5-->
<!DOCTYPE svg
PUBLIC "-//W3C//DTD SVG 1.1//EN"
       "http://www.w3.org/Graphics/SVG/1.1/DTD/svg11.dtd">
<svg version="1.1" xmlns="http://www.w3.org/2000/svg" xmlns:xlink="http://www.w3.org/1999/xlink" width="115.771" height="107.959">
 <g>
  <rect height="107.959" opacity="0" width="115.771" x="0" y="0"/>
  <path d="M0 73.4863C0 79.4922 4.93164 84.4238 10.9375 84.4238C15.1855 84.4238 18.9453 81.8848 20.7031 78.2715L94.3359 99.8047C95.5078 104.492 99.8047 107.959 104.883 107.959C110.84 107.959 115.771 103.076 115.771 97.0703C115.771 92.5293 112.939 88.623 109.033 87.0117L106.934 37.793C111.133 36.3281 114.16 32.3242 114.16 27.5879C114.16 21.582 109.277 16.6992 103.32 16.6992C99.3164 16.6992 95.8496 18.8477 93.8965 21.9727L53.2227 10.8398C53.0762 4.93164 48.2422 0.146484 42.3828 0.146484C36.377 0.146484 31.4453 5.07812 31.4453 11.084C31.4453 14.3066 32.8613 17.1875 35.1074 19.2383L12.4512 62.793C11.9141 62.6465 11.4258 62.5977 10.9375 62.5977C4.93164 62.5977 0 67.4805 0 73.4863ZM18.8477 66.0645L41.5527 21.8262C45.3613 22.3145 49.0234 20.5078 50.9766 17.4805L92.627 28.9062C92.9688 33.1543 96.0449 36.8164 100.098 38.0371L101.807 86.5723C98.584 87.5 95.9473 89.8926 94.7754 92.9688L21.4844 71.4355C21.1914 69.3359 20.3125 67.627 18.8477 66.0645Z" fill="#000000" fill-opacity="0.85"/>
 </g>
</svg>
