<?xml version="1.0" encoding="UTF-8"?>
<!--Generator: Apple Native CoreSVG 232.5-->
<!DOCTYPE svg
PUBLIC "-//W3C//DTD SVG 1.1//EN"
       "http://www.w3.org/Graphics/SVG/1.1/DTD/svg11.dtd">
<svg version="1.1" xmlns="http://www.w3.org/2000/svg" xmlns:xlink="http://www.w3.org/1999/xlink" width="134.985" height="135.034">
 <g>
  <rect height="135.034" opacity="0" width="134.985" x="0" y="0"/>
  <path d="M4.89502 78.6255C-1.64795 85.1685-1.59912 95.4224 4.84619 102.014C11.3892 108.411 21.6919 108.459 28.2349 101.917L101.965 28.2349C108.508 21.6431 108.411 11.3892 102.014 4.84619C95.4712-1.59912 85.1685-1.64795 78.6255 4.89502ZM10.1685 83.8989L83.8989 10.1685C87.561 6.50635 93.2251 6.50635 96.7407 10.1196C100.354 13.6353 100.305 19.2993 96.6919 22.9614L22.9614 96.6431C19.2993 100.305 13.6353 100.305 10.1196 96.7407C6.50635 93.1763 6.50635 87.561 10.1685 83.8989ZM51.8188 50.6958L56.2134 54.9927C57.6782 56.4087 59.8755 56.4575 61.2915 54.9927C62.7075 53.6743 62.7075 51.4771 61.2915 50.0122L56.8481 45.6177C55.481 44.2505 53.2349 44.2017 51.8188 45.6177C50.4028 46.936 50.354 49.231 51.8188 50.6958ZM36.6333 65.7837L41.0278 70.2759C42.395 71.6919 44.6899 71.5942 46.106 70.2759C47.4731 68.8599 47.522 66.6138 46.106 65.1978L41.7114 60.7544C40.2954 59.3872 38.0005 59.3872 36.6333 60.7544C35.2173 62.2192 35.2661 64.4165 36.6333 65.7837ZM33.0688 106.75C26.5259 113.293 26.5747 123.596 32.9712 130.139C39.563 136.584 49.8169 136.633 56.3599 130.09L130.09 56.3599C136.633 49.8169 136.584 39.5142 130.139 32.9712C123.596 26.5747 113.342 26.4771 106.75 33.02ZM38.3423 112.024L112.024 38.2935C115.686 34.6802 121.35 34.6313 124.866 38.2446C128.479 41.7603 128.479 47.4243 124.817 51.0864L51.0864 124.817C47.4243 128.479 41.8091 128.479 38.2446 124.866C34.6802 121.35 34.6802 115.686 38.3423 112.024ZM79.9927 78.8208L84.3384 83.1177C85.8032 84.5825 88.0493 84.5825 89.4165 83.1177C90.8813 81.7993 90.8325 79.5532 89.4165 78.186L85.022 73.7427C83.606 72.3755 81.3599 72.2778 79.9927 73.7427C78.5767 75.061 78.5278 77.4048 79.9927 78.8208ZM64.7583 93.9575L69.2017 98.4009C70.5688 99.8169 72.8149 99.7192 74.2798 98.4009C75.647 97.0337 75.6958 94.7876 74.2798 93.3228L69.8364 88.9282C68.4692 87.5122 66.1743 87.5122 64.7583 88.9282C63.3911 90.3442 63.4399 92.5415 64.7583 93.9575Z" fill="#000000" fill-opacity="0.85"/>
 </g>
</svg>
