<?xml version="1.0" encoding="UTF-8"?>
<!--Generator: Apple Native CoreSVG 232.5-->
<!DOCTYPE svg
PUBLIC "-//W3C//DTD SVG 1.1//EN"
       "http://www.w3.org/Graphics/SVG/1.1/DTD/svg11.dtd">
<svg version="1.1" xmlns="http://www.w3.org/2000/svg" xmlns:xlink="http://www.w3.org/1999/xlink" width="99.6094" height="99.6582">
 <g>
  <rect height="99.6582" opacity="0" width="99.6094" x="0" y="0"/>
  <path d="M0 49.8047C0 77.002 22.6074 99.6094 49.8047 99.6094C77.0508 99.6094 99.6094 77.002 99.6094 49.8047C99.6094 22.5586 77.002 0 49.7559 0C22.5586 0 0 22.5586 0 49.8047ZM8.34961 49.8047C8.34961 26.7578 26.709 8.30078 49.7559 8.30078C72.8027 8.30078 91.2598 26.7578 91.3086 49.8047C91.3086 55.2246 90.332 60.3516 88.3789 65.0391L11.2793 65.0391C9.375 60.3516 8.34961 55.2246 8.34961 49.8047ZM15.0391 72.4121L84.668 72.4121C77.2949 83.8379 64.502 91.3086 49.8047 91.3086C35.1074 91.3086 22.3633 83.8379 15.0391 72.4121Z" fill="#000000" fill-opacity="0.85"/>
 </g>
</svg>
