<?xml version="1.0" encoding="UTF-8"?>
<!--Generator: Apple Native CoreSVG 232.5-->
<!DOCTYPE svg
PUBLIC "-//W3C//DTD SVG 1.1//EN"
       "http://www.w3.org/Graphics/SVG/1.1/DTD/svg11.dtd">
<svg version="1.1" xmlns="http://www.w3.org/2000/svg" xmlns:xlink="http://www.w3.org/1999/xlink" width="99.6094" height="99.6582">
 <g>
  <rect height="99.6582" opacity="0" width="99.6094" x="0" y="0"/>
  <path d="M99.6094 49.8535C99.6094 77.0996 77.0508 99.6582 49.8047 99.6582C22.6074 99.6582 0 77.0996 0 49.8535C0 22.6562 22.5586 0.0488281 49.7559 0.0488281C77.002 0.0488281 99.6094 22.6562 99.6094 49.8535ZM18.75 49.8535C18.75 66.8945 32.8613 80.957 49.8535 80.957C66.8945 80.957 80.957 66.8945 80.957 49.8535C80.957 32.8613 66.8457 18.75 49.8047 18.75C32.8613 18.75 18.75 32.8613 18.75 49.8535ZM49.8535 73.6816C42.2363 73.6816 35.498 70.1172 31.2012 64.5996L68.6035 64.5996C64.2578 70.1172 57.4707 73.6816 49.8535 73.6816ZM73.6816 49.8535C73.6816 52.6855 73.1934 55.4199 72.2656 57.9102L27.4902 57.9102C26.5625 55.4199 26.0742 52.6855 26.0742 49.8535C26.0742 36.5723 36.5723 26.0254 49.8047 26.0254C63.0371 26.0254 73.6328 36.5723 73.6816 49.8535Z" fill="#000000" fill-opacity="0.85"/>
 </g>
</svg>
