<?xml version="1.0" encoding="UTF-8"?>
<!--Generator: Apple Native CoreSVG 232.5-->
<!DOCTYPE svg
PUBLIC "-//W3C//DTD SVG 1.1//EN"
       "http://www.w3.org/Graphics/SVG/1.1/DTD/svg11.dtd">
<svg version="1.1" xmlns="http://www.w3.org/2000/svg" xmlns:xlink="http://www.w3.org/1999/xlink" width="98.3887" height="83.252">
 <g>
  <rect height="83.252" opacity="0" width="98.3887" x="0" y="0"/>
  <path d="M66.6992 83.252C73.1445 83.252 78.418 77.9785 78.418 71.5332C78.418 65.0879 73.1445 59.8145 66.6992 59.8145C60.2539 59.8145 54.9316 65.0879 54.9316 71.5332C54.9316 77.9785 60.2539 83.252 66.6992 83.252ZM66.6992 77.2461C63.4766 77.2461 60.9863 74.707 60.9863 71.5332C60.9863 68.2617 63.4766 65.8203 66.6992 65.8203C69.9219 65.8203 72.4121 68.2617 72.4121 71.5332C72.4121 74.707 69.9219 77.2461 66.6992 77.2461ZM58.9355 67.5781L3.90625 67.5781C1.70898 67.5781 0 69.3359 0 71.5332C0 73.7305 1.70898 75.4395 3.90625 75.4395L58.9355 75.4395ZM94.6289 67.5781L75.1953 67.5781L75.1953 75.4395L94.6289 75.4395C96.6309 75.4395 98.3887 73.7305 98.3887 71.5332C98.3887 69.3359 96.6309 67.5781 94.6289 67.5781ZM32.2266 53.4668C38.6719 53.4668 43.9453 48.1445 43.9453 41.6992C43.9453 35.2539 38.6719 29.9805 32.2266 29.9805C25.7812 29.9805 20.5078 35.2539 20.5078 41.6992C20.5078 48.1445 25.7812 53.4668 32.2266 53.4668ZM32.2266 47.4121C29.0527 47.4121 26.5137 44.873 26.5137 41.6992C26.5137 38.4766 29.0527 35.9863 32.2266 35.9863C35.4492 35.9863 37.9395 38.4766 37.9395 41.6992C37.9395 44.873 35.4492 47.4121 32.2266 47.4121ZM3.71094 37.7441C1.70898 37.7441 0 39.502 0 41.6992C0 43.8965 1.70898 45.6055 3.71094 45.6055L23.8281 45.6055L23.8281 37.7441ZM94.4336 37.7441L39.9902 37.7441L39.9902 45.6055L94.4336 45.6055C96.6309 45.6055 98.3887 43.8965 98.3887 41.6992C98.3887 39.502 96.6309 37.7441 94.4336 37.7441ZM66.6992 23.584C73.1445 23.584 78.418 18.3105 78.418 11.8652C78.418 5.41992 73.1445 0.0976562 66.6992 0.0976562C60.2539 0.0976562 54.9316 5.41992 54.9316 11.8652C54.9316 18.3105 60.2539 23.584 66.6992 23.584ZM66.6992 17.5781C63.4766 17.5781 60.9863 15.0391 60.9863 11.8164C60.9863 8.59375 63.4766 6.10352 66.6992 6.10352C69.9219 6.10352 72.4121 8.59375 72.4121 11.8164C72.4121 15.0391 69.9219 17.5781 66.6992 17.5781ZM59.1797 7.95898L3.90625 7.95898C1.70898 7.95898 0 9.66797 0 11.8652C0 14.0625 1.70898 15.8203 3.90625 15.8203L59.1797 15.8203ZM94.6289 7.95898L74.5117 7.95898L74.5117 15.8203L94.6289 15.8203C96.6309 15.8203 98.3887 14.0625 98.3887 11.8652C98.3887 9.66797 96.6309 7.95898 94.6289 7.95898Z" fill="#000000" fill-opacity="0.85"/>
 </g>
</svg>
