<?xml version="1.0" encoding="UTF-8"?>
<!--Generator: Apple Native CoreSVG 232.5-->
<!DOCTYPE svg
PUBLIC "-//W3C//DTD SVG 1.1//EN"
       "http://www.w3.org/Graphics/SVG/1.1/DTD/svg11.dtd">
<svg version="1.1" xmlns="http://www.w3.org/2000/svg" xmlns:xlink="http://www.w3.org/1999/xlink" width="119.141" height="90.8691">
 <g>
  <rect height="90.8691" opacity="0" width="119.141" x="0" y="0"/>
  <path d="M44.0918 57.5684C51.6602 57.5684 56.0059 53.2715 56.0059 45.8496L56.0059 13.623C56.0059 6.15234 51.6602 1.85547 44.0918 1.85547L11.9141 1.85547C4.3457 1.85547 0 6.15234 0 13.623L0 45.8496C0 53.2715 4.3457 57.5684 11.9141 57.5684ZM43.9941 49.8535L12.0117 49.8535C9.08203 49.8535 7.71484 48.4375 7.71484 45.5078L7.71484 13.916C7.71484 10.9863 9.08203 9.57031 12.0117 9.57031L43.9941 9.57031C46.875 9.57031 48.291 10.9863 48.291 13.916L48.291 45.5078C48.291 48.4375 46.875 49.8535 43.9941 49.8535Z" fill="#000000" fill-opacity="0.85"/>
  <path d="M107.52 56.9336C114.893 56.9336 119.141 52.7832 119.141 45.459L119.141 13.9648C119.141 6.64062 114.893 2.49023 107.52 2.49023L76.0742 2.49023C68.7012 2.49023 64.4043 6.68945 64.4043 13.9648L64.4043 45.459C64.4043 52.7344 68.7012 56.9336 76.0742 56.9336ZM3.71094 75.1953C1.70898 75.1953 0 76.9531 0 79.1504C0 81.3477 1.70898 83.0566 3.71094 83.0566L19.4824 83.0566L19.4824 75.1953ZM27.9785 90.8691C34.4238 90.8691 39.6973 85.5957 39.6973 79.1504C39.6973 72.6562 34.4238 67.3828 27.9785 67.3828C21.5332 67.3828 16.2598 72.6562 16.2598 79.1504C16.2598 85.5957 21.5332 90.8691 27.9785 90.8691ZM27.9785 84.8633C24.7559 84.8633 22.2656 82.3242 22.2656 79.1016C22.2656 75.8789 24.7559 73.3887 27.9785 73.3887C31.1523 73.3887 33.6914 75.8789 33.6914 79.1016C33.6914 82.3242 31.1523 84.8633 27.9785 84.8633ZM35.7422 75.1953L35.7422 83.0566L115.186 83.0566C117.383 83.0566 119.141 81.3477 119.141 79.1504C119.141 76.9531 117.383 75.1953 115.186 75.1953Z" fill="#000000" fill-opacity="0.85"/>
 </g>
</svg>
