<?xml version="1.0" encoding="UTF-8"?>
<!--Generator: Apple Native CoreSVG 232.5-->
<!DOCTYPE svg
PUBLIC "-//W3C//DTD SVG 1.1//EN"
       "http://www.w3.org/Graphics/SVG/1.1/DTD/svg11.dtd">
<svg version="1.1" xmlns="http://www.w3.org/2000/svg" xmlns:xlink="http://www.w3.org/1999/xlink" width="89.3555" height="90.6738">
 <g>
  <rect height="90.6738" opacity="0" width="89.3555" x="0" y="0"/>
  <path d="M0 56.6895C0 63.1348 5.27344 68.4082 11.7188 68.4082C18.1641 68.4082 23.4863 63.1348 23.4863 56.6895C23.4863 50.2441 18.1641 44.9707 11.7188 44.9707C5.27344 44.9707 0 50.2441 0 56.6895ZM6.00586 56.6895C6.00586 53.4668 8.54492 50.9766 11.7676 50.9766C14.9902 50.9766 17.4805 53.4668 17.4805 56.6895C17.4805 59.9121 14.9902 62.4023 11.7676 62.4023C8.54492 62.4023 6.00586 59.9121 6.00586 56.6895ZM11.7676 0C9.57031 0 7.8125 1.75781 7.8125 3.95508L7.8125 48.9258L15.6738 48.9258L15.6738 3.95508C15.6738 1.75781 13.9648 0 11.7676 0ZM11.7676 85.9375C13.9648 85.9375 15.6738 84.1797 15.6738 82.1777L15.6738 65.1855L7.8125 65.1855L7.8125 82.1777C7.8125 84.1797 9.57031 85.9375 11.7676 85.9375ZM32.9102 28.4668C32.9102 34.9121 38.2324 40.1855 44.6777 40.1855C51.123 40.1855 56.3965 34.9121 56.3965 28.4668C56.3965 22.0215 51.123 16.748 44.6777 16.748C38.2324 16.748 32.9102 22.0215 32.9102 28.4668ZM38.9648 28.4668C38.9648 25.293 41.5039 22.7539 44.6777 22.7539C47.9004 22.7539 50.3906 25.293 50.3906 28.4668C50.3906 31.6895 47.9004 34.1797 44.6777 34.1797C41.5039 34.1797 38.9648 31.6895 38.9648 28.4668ZM44.6777 0C42.4805 0 40.7715 1.75781 40.7715 3.75977L40.7715 20.0684L48.6328 20.0684L48.6328 3.75977C48.6328 1.75781 46.875 0 44.6777 0ZM44.6777 85.9375C46.875 85.9375 48.6328 84.1797 48.6328 81.9824L48.6328 36.2305L40.7715 36.2305L40.7715 81.9824C40.7715 84.1797 42.4805 85.9375 44.6777 85.9375ZM65.918 56.6895C65.918 63.1348 71.1914 68.4082 77.6367 68.4082C84.082 68.4082 89.3555 63.1348 89.3555 56.6895C89.3555 50.2441 84.082 44.9707 77.6367 44.9707C71.1914 44.9707 65.918 50.2441 65.918 56.6895ZM71.9238 56.6895C71.9238 53.4668 74.4629 50.9766 77.6367 50.9766C80.9082 50.9766 83.3496 53.4668 83.3496 56.6895C83.3496 59.9121 80.9082 62.4023 77.6367 62.4023C74.4629 62.4023 71.9238 59.9121 71.9238 56.6895ZM77.6367 0C75.4395 0 73.6816 1.75781 73.6816 3.95508L73.6816 49.1699L81.543 49.1699L81.543 3.95508C81.543 1.75781 79.834 0 77.6367 0ZM77.6367 85.9375C79.834 85.9375 81.543 84.1797 81.543 82.1777L81.543 64.502L73.6816 64.502L73.6816 82.1777C73.6816 84.1797 75.4395 85.9375 77.6367 85.9375Z" fill="#000000" fill-opacity="0.85"/>
 </g>
</svg>
