<?xml version="1.0" encoding="UTF-8"?>
<!--Generator: Apple Native CoreSVG 232.5-->
<!DOCTYPE svg
PUBLIC "-//W3C//DTD SVG 1.1//EN"
       "http://www.w3.org/Graphics/SVG/1.1/DTD/svg11.dtd">
<svg version="1.1" xmlns="http://www.w3.org/2000/svg" xmlns:xlink="http://www.w3.org/1999/xlink" width="99.6094" height="118.594">
 <g>
  <rect height="118.594" opacity="0" width="99.6094" x="0" y="0"/>
  <path d="M0 59.2726C0 86.5187 22.6074 109.077 49.8047 109.077C77.0508 109.077 99.6094 86.5187 99.6094 59.2726C99.6094 35.2491 82.0801 14.8878 59.2285 10.3956L59.2285 3.46203C59.2285-0.00477119 56.8359-0.932506 54.1992 0.971791L38.623 11.8605C36.377 13.423 36.3281 15.7667 38.623 17.378L54.1504 28.3155C56.8359 30.2687 59.2285 29.3409 59.2285 25.8253L59.2285 18.8917C77.6855 23.0909 91.2598 39.4972 91.2598 59.2726C91.2598 82.3194 72.8516 100.776 49.8047 100.776C26.7578 100.776 8.25195 82.3194 8.30078 59.2726C8.34961 45.4054 15.0879 33.1495 25.4883 25.7277C27.4902 24.214 28.125 21.9191 26.9043 19.8683C25.6836 17.8663 22.998 17.3292 20.8496 18.9894C8.30078 28.1202 0 42.8663 0 59.2726Z" fill="#000000" fill-opacity="0.85"/>
  <path d="M26.5625 51.3136L50.9766 51.3136L50.9766 44.8683L26.5625 44.8683C24.707 44.8683 23.2422 46.3331 23.2422 48.0909C23.2422 49.8976 24.707 51.3136 26.5625 51.3136ZM57.8125 57.9542C63.2324 57.9542 67.6758 53.5109 67.6758 48.0421C67.6758 42.6222 63.2324 38.1788 57.8125 38.1788C52.3438 38.1788 47.9004 42.6222 47.9004 48.0421C47.9004 53.5109 52.3438 57.9542 57.8125 57.9542ZM57.8125 52.9249C55.0293 52.9249 52.9785 50.7765 52.9785 48.0421C52.9785 45.2589 55.0293 43.2081 57.8125 43.2081C60.498 43.2081 62.6465 45.2589 62.6465 48.0421C62.6465 50.7765 60.498 52.9249 57.8125 52.9249ZM64.209 51.3136L73.2422 51.3136C74.9023 51.3136 76.3672 49.8976 76.3672 48.0909C76.3672 46.3331 74.9023 44.8683 73.2422 44.8683L64.209 44.8683ZM26.3672 77.7296L35.4004 77.7296L35.4004 71.2843L26.3672 71.2843C24.707 71.2843 23.2422 72.7003 23.2422 74.4581C23.2422 76.2648 24.707 77.7296 26.3672 77.7296ZM41.7969 84.3702C47.3145 84.3702 51.7578 79.9269 51.7578 74.4581C51.7578 68.9894 47.3145 64.546 41.7969 64.546C36.377 64.546 31.9336 68.9894 31.9336 74.4581C31.9336 79.9269 36.377 84.3702 41.7969 84.3702ZM41.7969 79.3409C39.1113 79.3409 36.9629 77.1925 36.9629 74.4093C36.9629 71.6749 39.1113 69.5753 41.7969 69.5753C44.5801 69.5753 46.7285 71.6749 46.7285 74.4093C46.7285 77.1925 44.5801 79.3409 41.7969 79.3409ZM48.6328 77.7296L73.0469 77.7296C74.9023 77.7296 76.3672 76.2648 76.3672 74.4581C76.3672 72.7003 74.9023 71.2843 73.0469 71.2843L48.6328 71.2843Z" fill="#000000" fill-opacity="0.85"/>
 </g>
</svg>
