<?xml version="1.0" encoding="UTF-8"?>
<!--Generator: Apple Native CoreSVG 232.5-->
<!DOCTYPE svg
PUBLIC "-//W3C//DTD SVG 1.1//EN"
       "http://www.w3.org/Graphics/SVG/1.1/DTD/svg11.dtd">
<svg version="1.1" xmlns="http://www.w3.org/2000/svg" xmlns:xlink="http://www.w3.org/1999/xlink" width="93.1641" height="109.424">
 <g>
  <rect height="109.424" opacity="0" width="93.1641" x="0" y="0"/>
  <path d="M65.1855 109.277C71.6309 109.277 76.9043 104.004 76.9043 97.5586C76.9043 91.0645 71.6309 85.791 65.1855 85.791C58.6914 85.791 53.418 91.0645 53.418 97.5586C53.418 104.004 58.6914 109.277 65.1855 109.277ZM65.1855 103.271C61.9629 103.271 59.4727 100.732 59.4727 97.5098C59.4727 94.2871 61.9629 91.7969 65.1855 91.7969C68.4082 91.7969 70.8984 94.2871 70.8984 97.5098C70.8984 100.732 68.4082 103.271 65.1855 103.271ZM57.4219 93.6035L3.90625 93.6035C1.70898 93.6035 0 95.3613 0 97.5586C0 99.7559 1.70898 101.465 3.90625 101.465L57.4219 101.465ZM89.4043 93.6035L73.6328 93.6035L73.6328 101.465L89.4043 101.465C91.4062 101.465 93.1641 99.7559 93.1641 97.5586C93.1641 95.3613 91.4062 93.6035 89.4043 93.6035Z" fill="#000000" fill-opacity="0.85"/>
  <path d="M46.9238 59.7168C57.4707 59.7168 66.2109 50.9277 66.2109 40.3809C66.2109 29.7363 57.4707 20.9473 46.9238 20.9473C36.3281 20.9473 27.5879 29.7363 27.5879 40.3809C27.5879 50.9277 36.3281 59.7168 46.9238 59.7168ZM46.9238 0C44.8242 0 43.0176 1.85547 43.0176 3.95508L43.0176 11.7676C43.0176 13.8672 44.8242 15.6738 46.9238 15.6738C49.0234 15.6738 50.8789 13.8672 50.8789 11.7676L50.8789 3.95508C50.8789 1.85547 49.0234 0 46.9238 0ZM75.4395 11.8164C73.877 10.3027 71.3867 10.3027 69.9219 11.8164L64.3066 17.4805C62.793 18.9941 62.8906 21.5332 64.3066 22.998C65.8203 24.4629 68.3594 24.5117 69.873 22.998L75.4395 17.334C76.9043 15.7715 76.9531 13.3301 75.4395 11.8164ZM87.1094 40.3809C87.1094 38.1348 85.4004 36.4258 83.3008 36.4258L75.4395 36.4258C73.3398 36.4258 71.582 38.2324 71.582 40.3809C71.582 42.4805 73.3398 44.2383 75.4395 44.2383L83.3008 44.2383C85.4004 44.2383 87.1094 42.5781 87.1094 40.3809ZM75.4395 68.8965C77.002 67.2363 76.9531 64.8926 75.4395 63.3789L69.8242 57.7637C68.2617 56.2012 65.8203 56.2988 64.3066 57.7637C62.8418 59.2773 62.793 61.7676 64.3066 63.2812L69.9219 68.8965C71.4355 70.3613 73.877 70.3125 75.4395 68.8965ZM46.9238 80.7129C49.0234 80.7129 50.8789 78.8574 50.8789 76.709L50.8789 68.9453C50.8789 66.8457 49.0234 65.0391 46.9238 65.0391C44.8242 65.0391 43.0176 66.8457 43.0176 68.9453L43.0176 76.709C43.0176 78.8574 44.8242 80.7129 46.9238 80.7129ZM18.4082 68.8477C19.873 70.3125 22.4609 70.3613 23.9258 68.8965L29.541 63.2812C31.0059 61.8164 30.957 59.3262 29.541 57.7637C28.0273 56.2988 25.4883 56.25 23.9746 57.7637L18.4082 63.3789C16.9434 64.8438 16.9434 67.2363 18.4082 68.8477ZM6.73828 40.3809C6.73828 42.5781 8.44727 44.2383 10.5469 44.2383L18.4082 44.2383C20.5078 44.2383 22.3145 42.4805 22.3145 40.3809C22.3145 38.2324 20.5078 36.4258 18.4082 36.4258L10.5469 36.4258C8.44727 36.4258 6.73828 38.1348 6.73828 40.3809ZM18.457 11.8164C17.041 13.3301 16.9434 15.8203 18.4082 17.334L23.9746 22.998C25.4883 24.5117 27.9785 24.4629 29.541 22.998C30.957 21.4355 31.0059 18.9453 29.541 17.4805L23.9258 11.8164C22.5098 10.4004 19.9707 10.3516 18.457 11.8164Z" fill="#000000" fill-opacity="0.85"/>
 </g>
</svg>
