<?xml version="1.0" encoding="UTF-8"?>
<!--Generator: Apple Native CoreSVG 232.5-->
<!DOCTYPE svg
PUBLIC "-//W3C//DTD SVG 1.1//EN"
       "http://www.w3.org/Graphics/SVG/1.1/DTD/svg11.dtd">
<svg version="1.1" xmlns="http://www.w3.org/2000/svg" xmlns:xlink="http://www.w3.org/1999/xlink" width="119.141" height="90.8691">
 <g>
  <rect height="90.8691" opacity="0" width="119.141" x="0" y="0"/>
  <path d="M75.0488 57.5684L107.178 57.5684C114.795 57.5684 119.141 53.2715 119.141 45.8496L119.141 13.623C119.141 6.15234 114.795 1.85547 107.178 1.85547L75.0488 1.85547C67.4805 1.85547 63.1348 6.15234 63.1348 13.623L63.1348 45.8496C63.1348 53.2715 67.4805 57.5684 75.0488 57.5684ZM75.1465 49.8535C72.2656 49.8535 70.8496 48.4375 70.8496 45.5078L70.8496 13.916C70.8496 10.9863 72.2656 9.57031 75.1465 9.57031L107.08 9.57031C110.059 9.57031 111.426 10.9863 111.426 13.916L111.426 45.5078C111.426 48.4375 110.059 49.8535 107.08 49.8535Z" fill="#000000" fill-opacity="0.85"/>
  <path d="M11.5723 56.9336L43.0664 56.9336C50.4395 56.9336 54.7363 52.7344 54.7363 45.459L54.7363 13.9648C54.7363 6.68945 50.4395 2.49023 43.0664 2.49023L11.5723 2.49023C4.24805 2.49023 0 6.64062 0 13.9648L0 45.459C0 52.7832 4.24805 56.9336 11.5723 56.9336ZM3.71094 75.1953C1.70898 75.1953 0 76.9531 0 79.1504C0 81.3477 1.70898 83.0566 3.71094 83.0566L19.4824 83.0566L19.4824 75.1953ZM27.9785 90.8691C34.4238 90.8691 39.6973 85.5957 39.6973 79.1504C39.6973 72.6562 34.4238 67.3828 27.9785 67.3828C21.5332 67.3828 16.2598 72.6562 16.2598 79.1504C16.2598 85.5957 21.5332 90.8691 27.9785 90.8691ZM27.9785 84.8633C24.7559 84.8633 22.2656 82.3242 22.2656 79.1016C22.2656 75.8789 24.7559 73.3887 27.9785 73.3887C31.1523 73.3887 33.6914 75.8789 33.6914 79.1016C33.6914 82.3242 31.1523 84.8633 27.9785 84.8633ZM35.7422 75.1953L35.7422 83.0566L115.186 83.0566C117.383 83.0566 119.141 81.3477 119.141 79.1504C119.141 76.9531 117.383 75.1953 115.186 75.1953Z" fill="#000000" fill-opacity="0.85"/>
 </g>
</svg>
