<?xml version="1.0" encoding="UTF-8"?>
<!--Generator: Apple Native CoreSVG 232.5-->
<!DOCTYPE svg
PUBLIC "-//W3C//DTD SVG 1.1//EN"
       "http://www.w3.org/Graphics/SVG/1.1/DTD/svg11.dtd">
<svg version="1.1" xmlns="http://www.w3.org/2000/svg" xmlns:xlink="http://www.w3.org/1999/xlink" width="110.107" height="110.205">
 <g>
  <rect height="110.205" opacity="0" width="110.107" x="0" y="0"/>
  <path d="M27.5391 7.42188C25.7812 8.44727 25.293 10.5469 26.2695 12.2559L34.9121 27.2949C35.9375 29.0039 37.9883 29.5898 39.6973 28.5645C41.4551 27.5879 41.9434 25.4883 41.0156 23.8281L32.3242 8.74023C31.2988 7.08008 29.248 6.49414 27.5391 7.42188Z" fill="#000000" fill-opacity="0.85"/>
  <path d="M7.42188 27.5879C6.39648 29.3457 6.98242 31.3965 8.69141 32.4219L23.7305 41.1133C25.4395 42.041 27.4902 41.5527 28.5156 39.8438C29.4434 38.0859 28.9062 36.0352 27.1973 35.0098L12.1582 26.3184C10.4492 25.3906 8.34961 25.8789 7.42188 27.5879Z" fill="#000000" fill-opacity="0.85"/>
  <path d="M0 55.127C0 57.1289 1.5625 58.6426 3.51562 58.6426L20.8496 58.6426C22.8516 58.6426 24.3652 57.1289 24.3652 55.127C24.3652 53.1738 22.8516 51.6602 20.8496 51.6602L3.51562 51.6602C1.5625 51.6602 0 53.1738 0 55.127Z" fill="#000000" fill-opacity="0.85"/>
  <path d="M7.42188 82.666C8.34961 84.4238 10.4492 84.9121 12.1582 83.9844L27.1973 75.293C28.9062 74.2676 29.4922 72.2168 28.5156 70.5078C27.4902 68.75 25.4395 68.2617 23.7305 69.1895L8.69141 77.8809C6.98242 78.9062 6.39648 80.957 7.42188 82.666Z" fill="#000000" fill-opacity="0.85"/>
  <path d="M27.5391 102.832C29.248 103.809 31.2988 103.223 32.3242 101.514L41.0156 86.4746C41.9434 84.7656 41.4551 82.7148 39.7461 81.7383C37.9883 80.7617 35.9375 81.2988 34.9121 83.0078L26.2695 98.0469C25.293 99.7559 25.7812 101.855 27.5391 102.832Z" fill="#000000" fill-opacity="0.85"/>
  <path d="M55.0293 110.205C57.0312 110.205 58.5449 108.643 58.5449 106.689L58.5449 89.3555C58.5449 87.4023 57.0312 85.8398 55.0293 85.8398C53.0762 85.8398 51.5625 87.4023 51.5625 89.3555L51.5625 106.689C51.5625 108.643 53.0762 110.205 55.0293 110.205Z" fill="#000000" fill-opacity="0.85"/>
  <path d="M82.5684 102.832C84.3262 101.855 84.8145 99.7559 83.8867 98.0469L75.1953 83.0078C74.2188 81.2988 72.1191 80.7129 70.4102 81.6895C68.6523 82.7148 68.1641 84.7656 69.1406 86.4746L77.7832 101.514C78.8086 103.223 80.8594 103.809 82.5684 102.832Z" fill="#000000" fill-opacity="0.85"/>
  <path d="M102.734 82.666C103.76 80.957 103.125 78.9062 101.465 77.8809L86.377 69.1895C84.7168 68.2617 82.6172 68.75 81.6406 70.459C80.6641 72.2168 81.2012 74.2676 82.9102 75.293L97.9492 83.9844C99.6582 84.9121 101.758 84.4238 102.734 82.666Z" fill="#000000" fill-opacity="0.85"/>
  <path d="M110.107 55.127C110.107 53.1738 108.594 51.6602 106.592 51.6602L89.2578 51.6602C87.3047 51.6602 85.7422 53.1738 85.7422 55.127C85.7422 57.1289 87.3047 58.6426 89.2578 58.6426L106.592 58.6426C108.594 58.6426 110.107 57.1289 110.107 55.127Z" fill="#000000" fill-opacity="0.85"/>
  <path d="M102.783 27.6367C101.758 25.8789 99.6582 25.3906 97.9492 26.3184L82.9102 35.0098C81.2012 36.0352 80.6152 38.0859 81.6895 39.8438C82.6172 41.5039 84.7168 42.041 86.377 41.1133L101.465 32.4219C103.125 31.3965 103.711 29.3457 102.783 27.6367Z" fill="#000000" fill-opacity="0.85"/>
  <path d="M82.6172 7.4707C80.8594 6.49414 78.8086 7.08008 77.7832 8.74023L69.1406 23.8281C68.1641 25.4883 68.6523 27.5879 70.4102 28.6133C72.1191 29.541 74.1699 29.0039 75.1953 27.2949L83.8867 12.2559C84.8145 10.5469 84.3262 8.44727 82.6172 7.4707Z" fill="#000000" fill-opacity="0.85"/>
  <path d="M55.0293 0.0976562C53.0762 0.0976562 51.5625 1.66016 51.5625 3.61328L51.5625 20.9473C51.5625 22.9004 53.0762 24.4629 55.0293 24.4629C57.0312 24.4629 58.5449 22.9004 58.5449 20.9473L58.5449 3.61328C58.5449 1.66016 57.0312 0.0976562 55.0293 0.0976562Z" fill="#000000" fill-opacity="0.85"/>
 </g>
</svg>
