<?xml version="1.0" encoding="UTF-8"?>
<!--Generator: Apple Native CoreSVG 232.5-->
<!DOCTYPE svg
PUBLIC "-//W3C//DTD SVG 1.1//EN"
       "http://www.w3.org/Graphics/SVG/1.1/DTD/svg11.dtd">
<svg version="1.1" xmlns="http://www.w3.org/2000/svg" xmlns:xlink="http://www.w3.org/1999/xlink" width="99.6094" height="99.6582">
 <g>
  <rect height="99.6582" opacity="0" width="99.6094" x="0" y="0"/>
  <path d="M99.6094 49.8047C99.6094 77.002 77.0508 99.6094 49.8047 99.6094C22.6074 99.6094 0 77.002 0 49.8047C0 22.5586 22.5586 0 49.7559 0C77.002 0 99.6094 22.5586 99.6094 49.8047ZM30.4688 49.7559C30.4688 60.4492 39.209 69.0918 49.8047 69.0918C60.3516 69.0918 69.0918 60.4492 69.0918 49.7559C69.0918 39.209 60.3516 30.5664 49.8047 30.5664C39.209 30.5664 30.4688 39.209 30.4688 49.7559ZM61.0352 49.7559C61.0352 56.0059 55.957 61.1328 49.8535 61.1328C43.6523 61.1328 38.5742 56.0059 38.5742 49.7559C38.5742 43.6523 43.7012 38.5742 49.8535 38.5742C55.957 38.5742 61.0352 43.6523 61.0352 49.7559Z" fill="#000000" fill-opacity="0.85"/>
 </g>
</svg>
