<?xml version="1.0" encoding="UTF-8"?>
<!--Generator: Apple Native CoreSVG 232.5-->
<!DOCTYPE svg
PUBLIC "-//W3C//DTD SVG 1.1//EN"
       "http://www.w3.org/Graphics/SVG/1.1/DTD/svg11.dtd">
<svg version="1.1" xmlns="http://www.w3.org/2000/svg" xmlns:xlink="http://www.w3.org/1999/xlink" width="99.6094" height="99.6582">
 <g>
  <rect height="99.6582" opacity="0" width="99.6094" x="0" y="0"/>
  <path d="M49.8047 99.6094C77.0508 99.6094 99.6094 77.002 99.6094 49.8047C99.6094 22.5586 77.002 0 49.7559 0C22.5586 0 0 22.5586 0 49.8047C0 77.002 22.6074 99.6094 49.8047 99.6094ZM49.8047 91.3086C26.7578 91.3086 8.34961 72.8516 8.34961 49.8047C8.34961 26.7578 26.709 8.30078 49.7559 8.30078C72.8027 8.30078 91.3086 26.7578 91.3086 49.8047C91.3086 72.8516 72.8516 91.3086 49.8047 91.3086Z" fill="#000000" fill-opacity="0.85"/>
  <path d="M49.7559 68.457C59.9609 68.457 68.4082 60.1074 68.4082 49.7559C68.4082 39.5508 59.9609 31.2012 49.7559 31.2012C39.502 31.2012 31.0547 39.5508 31.0547 49.7559C31.0547 60.1074 39.502 68.457 49.7559 68.457ZM49.8047 60.791C43.7988 60.791 38.8672 55.8105 38.8672 49.7559C38.8672 43.8477 43.8477 38.916 49.8047 38.916C55.7129 38.916 60.6445 43.8477 60.6445 49.7559C60.6445 55.8105 55.7129 60.791 49.8047 60.791Z" fill="#000000" fill-opacity="0.85"/>
 </g>
</svg>
