<?xml version="1.0" encoding="UTF-8"?>
<!--Generator: Apple Native CoreSVG 232.5-->
<!DOCTYPE svg
PUBLIC "-//W3C//DTD SVG 1.1//EN"
       "http://www.w3.org/Graphics/SVG/1.1/DTD/svg11.dtd">
<svg version="1.1" xmlns="http://www.w3.org/2000/svg" xmlns:xlink="http://www.w3.org/1999/xlink" width="99.6094" height="99.6582">
 <g>
  <rect height="99.6582" opacity="0" width="99.6094" x="0" y="0"/>
  <path d="M49.8047 99.6094C77.0508 99.6094 99.6094 77.002 99.6094 49.8047C99.6094 22.5586 77.002 0 49.7559 0C22.5586 0 0 22.5586 0 49.8047C0 77.002 22.6074 99.6094 49.8047 99.6094ZM49.8047 91.3086C26.7578 91.3086 8.34961 72.8516 8.34961 49.8047C8.34961 26.7578 26.709 8.30078 49.7559 8.30078C72.8027 8.30078 91.3086 26.7578 91.3086 49.8047C91.3086 72.8516 72.8516 91.3086 49.8047 91.3086Z" fill="#000000" fill-opacity="0.85"/>
  <path d="M36.9141 70.9473L69.9707 70.9473C76.6113 70.9473 81.1523 66.2598 81.1523 60.2539C81.1523 55.0781 77.4414 50.6836 72.4609 49.707C72.0703 43.2129 66.7969 37.9395 60.1562 37.9395C55.8105 37.9395 52.0508 40.0879 49.8047 43.457C48.6328 43.0664 47.6562 42.8711 46.4355 42.8711C41.3086 42.8711 37.1582 46.6309 36.377 51.6113C31.1035 51.7578 26.9531 56.0547 26.9531 61.2305C26.9531 66.6992 30.957 70.9473 36.9141 70.9473ZM16.5527 46.9727C16.5527 51.5625 19.3848 55.5176 24.1699 57.0801C25.5859 52.832 29.1504 49.5117 33.5938 48.4863C35.498 43.1641 40.4785 39.4043 46.4355 39.4043C47.1191 39.4043 47.8027 39.502 48.4863 39.5996C51.2207 36.4746 55.0293 34.7168 59.3262 34.5703C58.5938 31.9824 55.8105 29.5898 51.3184 29.5898C50.0488 29.5898 49.0234 29.834 47.9004 30.1758C45.6055 26.7578 41.8945 24.6094 37.6465 24.6094C31.0547 24.6094 25.6348 29.8828 25.293 36.3281C20.2148 37.4023 16.5527 41.748 16.5527 46.9727Z" fill="#000000" fill-opacity="0.85"/>
 </g>
</svg>
