<?xml version="1.0" encoding="UTF-8"?>
<!--Generator: Apple Native CoreSVG 232.5-->
<!DOCTYPE svg
PUBLIC "-//W3C//DTD SVG 1.1//EN"
       "http://www.w3.org/Graphics/SVG/1.1/DTD/svg11.dtd">
<svg version="1.1" xmlns="http://www.w3.org/2000/svg" xmlns:xlink="http://www.w3.org/1999/xlink" width="108.521" height="108.533">
 <g>
  <rect height="108.533" opacity="0" width="108.521" x="0" y="0"/>
  <path d="M57.3902 70.8297L57.6782 75.9707L57.6782 82.1719L69.2505 88.7637C71.106 89.7891 71.6431 91.6934 70.7642 93.2071C69.7388 95.0137 67.8833 95.1602 66.0767 94.1836L57.6782 89.3985L57.6782 99.9942C57.6782 102.094 56.4087 103.607 54.2603 103.607C52.2095 103.607 50.8911 102.094 50.8911 99.9942L50.8911 89.3496L42.3462 94.1836C40.5396 95.1602 38.7817 95.0137 37.7075 93.2071C36.8286 91.6934 37.4146 89.7891 39.27 88.7637L50.8911 82.1719L50.8911 75.9707L51.4795 64.9157ZM47.7526 61.1869L37.1216 68.1094L31.7505 71.1367L31.7993 84.4668C31.7993 86.5664 30.481 88.0801 28.7231 88.0801C26.6724 88.0801 25.5981 86.5176 25.5981 84.4668L25.5493 74.7989L16.3208 80.0723C14.4653 81.0977 12.6099 80.7559 11.5356 78.9004C10.5103 77.1426 11.0962 75.1895 12.9028 74.1641L22.1313 68.8418L13.7329 63.9102C11.9751 62.836 11.2427 61.2735 12.3169 59.3692C13.0981 57.8555 15.0513 57.416 16.8579 58.4903L28.3325 65.2774L33.7036 62.1524L43.7045 57.1365ZM96.3013 59.418C97.3267 61.1758 96.5454 62.836 94.7876 63.9102L86.3892 68.8418L95.6177 74.1641C97.4243 75.1895 97.9614 77.0938 96.9849 78.9492C96.2633 80.1299 95.2114 80.7379 94.0207 80.6662L76.4541 63.0901L80.188 65.2285L91.6626 58.4903C93.4692 57.416 95.3247 57.8555 96.3013 59.418ZM82.8735 23.9688L82.9712 33.6856L92.2485 28.4121C94.104 27.3379 95.9595 27.7774 96.9849 29.5352C98.0103 31.3907 97.4731 33.2461 95.6177 34.3203L86.3892 39.6426L94.7876 44.5254C96.5454 45.5996 97.3267 47.3086 96.3501 49.0664C95.4224 50.5801 93.4204 51.0196 91.6138 49.9453L80.1392 43.2071L74.8169 46.3321L64.7406 51.3702L60.7087 47.3361L71.3989 40.375L76.77 37.25L76.7212 23.9688C76.7212 21.8692 77.9907 20.4043 79.7974 20.4043C81.8481 20.4043 82.8735 21.8692 82.8735 23.9688ZM14.4436 27.8596L31.8381 45.2636L28.3325 43.2559L16.9067 49.9453C15.0513 51.0196 13.0493 50.6289 12.1704 49.0664C11.1938 47.1621 11.9751 45.5996 13.7329 44.5254L22.0825 39.6426L12.9028 34.3203C11.0962 33.2949 10.4614 31.3907 11.5356 29.5352C12.1813 28.373 13.2538 27.8084 14.4436 27.8596ZM57.6782 8.44143L57.6782 19.086L66.0767 14.3008C67.8833 13.2754 69.7388 13.4707 70.7642 15.2285C71.6431 16.791 71.106 18.6465 69.2505 19.7207L57.6782 26.2637L57.6782 32.4649L57.0518 43.6772L51.1741 37.7962L50.8911 32.4649L50.8911 26.2637L39.27 19.6719C37.4146 18.6465 36.8286 16.791 37.7075 15.2285C38.7817 13.4707 40.5396 13.2754 42.3462 14.3008L50.8911 19.086L50.8911 8.44143C50.8911 6.34182 52.2095 4.87698 54.2603 4.87698C56.4087 4.87698 57.6782 6.34182 57.6782 8.44143Z" fill="#000000" fill-opacity="0.85"/>
  <path d="M96.3989 101.752C97.8638 103.217 100.305 103.168 101.721 101.703C103.186 100.238 103.186 97.8457 101.721 96.3809L12.1704 6.8301C10.7056 5.36526 8.26416 5.31643 6.79932 6.8301C5.33447 8.24612 5.33447 10.6875 6.79932 12.1524Z" fill="#000000" fill-opacity="0.85"/>
 </g>
</svg>
