<?xml version="1.0" encoding="UTF-8"?>
<!--Generator: Apple Native CoreSVG 232.5-->
<!DOCTYPE svg
PUBLIC "-//W3C//DTD SVG 1.1//EN"
       "http://www.w3.org/Graphics/SVG/1.1/DTD/svg11.dtd">
<svg version="1.1" xmlns="http://www.w3.org/2000/svg" xmlns:xlink="http://www.w3.org/1999/xlink" width="99.6094" height="99.6582">
 <g>
  <rect height="99.6582" opacity="0" width="99.6094" x="0" y="0"/>
  <path d="M49.8047 99.6094C77.0508 99.6094 99.6094 77.002 99.6094 49.8047C99.6094 22.5586 77.002 0 49.7559 0C22.5586 0 0 22.5586 0 49.8047C0 77.002 22.6074 99.6094 49.8047 99.6094ZM49.8047 91.3086C26.7578 91.3086 8.34961 72.8516 8.34961 49.8047C8.34961 26.7578 26.709 8.30078 49.7559 8.30078C72.8027 8.30078 91.3086 26.7578 91.3086 49.8047C91.3086 72.8516 72.8516 91.3086 49.8047 91.3086Z" fill="#000000" fill-opacity="0.85"/>
  <path d="M49.707 80.3223C51.3184 80.3223 52.3926 79.1992 52.3926 77.5391L52.3926 72.168L56.5918 74.5605C58.0566 75.3418 59.5215 75.0488 60.2539 73.7305C60.9863 72.5098 60.498 70.9961 59.1309 70.166L52.3926 66.4062L52.3926 62.9883L51.8555 53.5645L59.9121 58.6914L62.7441 60.4004L62.7441 68.1641C62.7441 69.7266 63.7207 70.8984 65.1367 70.8984C66.6992 70.8984 67.6758 69.8242 67.6758 68.1641L67.7246 63.1836L72.4121 65.9668C73.7793 66.7969 75.293 66.4551 76.123 65.0879C76.9043 63.6719 76.5137 62.1582 75.0977 61.3281L70.4102 58.6426L74.5605 56.2012C75.9766 55.3223 76.4648 53.9551 75.7812 52.6855C75 51.416 73.4375 51.0742 72.0703 51.8555L65.4297 55.7617L62.5 54.0039L53.9551 49.8047L62.5 45.5566L65.4297 43.7988L72.0703 47.7539C73.4375 48.4863 75.0488 48.1934 75.7812 46.9727C76.4648 45.6055 75.9766 44.2871 74.5605 43.3594L70.4102 40.918L75.0977 38.2812C76.5137 37.4512 76.9043 35.9863 76.123 34.5215C75.3906 33.1543 73.7793 32.8125 72.4121 33.5938L67.7246 36.3281L67.6758 31.4453C67.6758 29.834 66.6992 28.6621 65.1855 28.6621C63.7207 28.6621 62.7441 29.8828 62.7441 31.4453L62.7441 39.1602L59.8633 40.8691L51.8555 45.9961L52.3926 36.6211L52.3926 33.2031L59.1309 29.4434C60.498 28.6133 60.9863 27.0996 60.2539 25.8789C59.5215 24.5605 58.0566 24.2188 56.5918 25.0488L52.3926 27.4414L52.3926 22.0703C52.3926 20.3613 51.3184 19.2871 49.707 19.2871C48.1934 19.2871 47.0703 20.4102 47.0703 22.0703L47.0703 27.4902L42.8223 25.0488C41.3086 24.2676 39.9414 24.5605 39.1602 25.8789C38.4766 27.0996 38.9648 28.6133 40.332 29.3945L47.0703 33.2031L47.0703 36.6211L47.6074 45.9961L39.6484 40.918L36.7188 39.1602L36.7676 31.4453C36.7676 29.8828 35.7422 28.6621 34.2773 28.6621C32.7637 28.6621 31.7871 29.7852 31.7871 31.4453L31.7383 36.3281L27.0508 33.5938C25.6348 32.7637 24.0723 33.2031 23.3398 34.5215C22.5098 35.9375 22.9492 37.4512 24.3652 38.2812L29.0527 40.918L24.9023 43.3594C23.4863 44.2383 22.998 45.5566 23.6816 46.9727C24.4141 48.1934 26.0254 48.5352 27.4414 47.7539L34.0332 43.8477L36.9629 45.5566L45.5078 49.8047L36.9629 54.0039L34.0332 55.7617L27.4414 51.8555C26.0254 51.0742 24.4141 51.3672 23.7305 52.5879C23.0469 53.9551 23.4375 55.3223 24.9023 56.2012L29.0527 58.6426L24.3652 61.3281C22.9492 62.1582 22.5586 63.6719 23.3398 65.0879C24.1211 66.4551 25.6348 66.7969 27.0508 65.9668L31.7383 63.2812L31.7871 68.1641C31.7871 69.8242 32.7637 70.8984 34.2773 70.8984C35.7422 70.8984 36.7676 69.7266 36.7676 68.1641L36.7188 60.4004L39.6484 58.6914L47.6074 53.5645L47.0703 62.9883L47.0703 66.4062L40.332 70.166C38.9648 70.9961 38.4766 72.5098 39.1602 73.7305C39.9414 75.0488 41.3086 75.293 42.8223 74.5605L47.0703 72.1191L47.0703 77.5391C47.0703 79.1504 48.1934 80.3223 49.707 80.3223Z" fill="#000000" fill-opacity="0.85"/>
 </g>
</svg>
