<?xml version="1.0" encoding="UTF-8"?>
<!--Generator: Apple Native CoreSVG 232.5-->
<!DOCTYPE svg
PUBLIC "-//W3C//DTD SVG 1.1//EN"
       "http://www.w3.org/Graphics/SVG/1.1/DTD/svg11.dtd">
<svg version="1.1" xmlns="http://www.w3.org/2000/svg" xmlns:xlink="http://www.w3.org/1999/xlink" width="99.6094" height="99.6582">
 <g>
  <rect height="99.6582" opacity="0" width="99.6094" x="0" y="0"/>
  <path d="M49.8047 30.2246L30.7617 44.873L38.3789 68.3105L61.2305 68.3105L68.8477 44.873ZM66.9434 7.8125L49.7559 2.19727L32.5195 7.8125L49.7559 21.6797ZM47.1191 3.85742L47.1191 36.1816L52.5391 36.1816L52.5391 3.85742ZM83.8867 20.1172L77.4902 41.2598L96.7285 52.0508L93.2129 31.7871ZM95.0195 37.0605L92.9688 32.0801L62.9883 44.1895L65.0391 49.2188ZM61.0352 94.3848L77.3438 87.3047L88.4766 73.1934L66.0156 72.8516ZM79.1016 85.3027L59.2285 59.7656L54.8828 63.0859L74.8047 88.5742ZM38.5254 94.1895L33.5449 72.6562L11.084 72.998L22.2168 87.1094ZM20.459 85.1074L24.7559 88.3789L44.6777 62.8906L40.332 59.5703ZM15.7227 20.1172L6.39648 31.7871L2.88086 52.0508L22.1191 41.2598ZM4.58984 37.0605L34.5703 49.2188L36.6211 44.1895L6.64062 32.0801ZM49.8047 99.6094C77.0508 99.6094 99.6094 77.002 99.6094 49.8047C99.6094 22.5586 77.002 0 49.7559 0C22.5586 0 0 22.5586 0 49.8047C0 77.002 22.6074 99.6094 49.8047 99.6094ZM49.8047 92.9688C26.2207 92.9688 6.64062 73.3887 6.64062 49.8047C6.64062 26.2207 26.1719 6.64062 49.7559 6.64062C73.3398 6.64062 92.9688 26.2207 92.9688 49.8047C92.9688 73.3887 73.3887 92.9688 49.8047 92.9688Z" fill="#000000" fill-opacity="0.85"/>
 </g>
</svg>
