<?xml version="1.0" encoding="UTF-8"?>
<!--Generator: Apple Native CoreSVG 232.5-->
<!DOCTYPE svg
PUBLIC "-//W3C//DTD SVG 1.1//EN"
       "http://www.w3.org/Graphics/SVG/1.1/DTD/svg11.dtd">
<svg version="1.1" xmlns="http://www.w3.org/2000/svg" xmlns:xlink="http://www.w3.org/1999/xlink" width="151.025" height="85.791">
 <g>
  <rect height="85.791" opacity="0" width="151.025" x="0" y="0"/>
  <path d="M14.8926 28.7109L23.1445 28.7109L23.1445 12.207C23.1445 9.76562 24.7559 8.20312 27.0508 8.20312L67.4805 8.20312C69.8242 8.20312 71.3867 9.76562 71.3867 12.207L71.3867 50.9766L79.6387 50.9766L79.6387 12.1582C79.6387 4.83398 74.9023 0 67.8711 0L26.709 0C19.6289 0 14.8926 4.83398 14.8926 12.1582ZM137.207 28.7109L137.207 12.1582C137.207 4.83398 132.471 0 125.391 0L83.1543 0C76.123 0 71.3867 4.83398 71.3867 12.1582L71.3867 50.9766L79.6387 50.9766L79.6387 12.207C79.6387 9.76562 81.2012 8.20312 83.5449 8.20312L125.049 8.20312C127.344 8.20312 128.955 9.76562 128.955 12.207L128.955 28.7109ZM0 64.0625C0 71.0938 4.63867 75.7324 11.5723 75.7324L139.453 75.7324C146.387 75.7324 151.025 71.0938 151.025 64.0625L151.025 34.375C151.025 27.3926 146.387 22.7051 139.453 22.7051L132.715 22.7051C125.83 22.7051 121.191 27.3926 121.191 34.375L121.191 46.0938L29.8828 46.0938L29.8828 34.375C29.8828 27.3926 25.1953 22.7051 18.3105 22.7051L11.5723 22.7051C4.63867 22.7051 0 27.3926 0 34.375ZM8.30078 63.9648L8.30078 34.4727C8.30078 32.3242 9.76562 30.9082 11.9629 30.9082L17.8711 30.9082C20.1172 30.9082 21.582 32.3242 21.582 34.4727L21.582 54.2969L129.443 54.2969L129.443 34.4727C129.443 32.3242 130.957 30.9082 133.154 30.9082L139.062 30.9082C141.26 30.9082 142.773 32.3242 142.773 34.4727L142.773 63.9648C142.773 66.1133 141.26 67.5293 139.062 67.5293L11.9629 67.5293C9.76562 67.5293 8.30078 66.1133 8.30078 63.9648ZM17.7734 85.6934L20.8008 85.6934C23.4375 85.6934 25.1465 84.0332 25.1465 81.3965L25.1465 71.0449L13.4277 71.0449L13.4277 81.3965C13.4277 84.0332 15.1367 85.6934 17.7734 85.6934ZM130.225 85.6934L133.252 85.6934C135.889 85.6934 137.598 84.0332 137.598 81.3965L137.598 71.0449L125.879 71.0449L125.879 81.3965C125.879 84.0332 127.637 85.6934 130.225 85.6934Z" fill="#000000" fill-opacity="0.85"/>
 </g>
</svg>
