<?xml version="1.0" encoding="UTF-8"?>
<!--Generator: Apple Native CoreSVG 232.5-->
<!DOCTYPE svg
PUBLIC "-//W3C//DTD SVG 1.1//EN"
       "http://www.w3.org/Graphics/SVG/1.1/DTD/svg11.dtd">
<svg version="1.1" xmlns="http://www.w3.org/2000/svg" xmlns:xlink="http://www.w3.org/1999/xlink" width="163.97" height="81.5918">
 <g>
  <rect height="81.5918" opacity="0" width="163.97" x="0" y="0"/>
  <path d="M24.4165 81.3965C39.6509 81.3965 48.5376 72.3633 48.5376 58.6426C48.5376 47.4121 44.2407 41.9922 31.3989 35.4492L26.6138 33.0566C19.0454 29.1504 16.4575 26.0742 16.4575 20.5566C16.4575 15.7715 19.6314 12.5977 24.4165 12.5977C29.5923 12.5977 32.3755 16.0156 33.0591 22.0703C33.1568 23.1445 33.7427 23.6816 34.7193 23.6816L45.7056 23.6816C46.6821 23.6816 47.3657 23.0469 47.3169 21.9238C46.6333 8.49609 39.4068 0 24.4165 0C9.71925 0 1.1255 9.0332 1.1255 22.3145C1.1255 33.4961 5.71535 39.6973 17.5806 45.9473L22.3657 48.4863C30.2271 52.6367 33.2056 55.2246 33.2056 60.4492C33.2056 65.8203 30.2759 68.7988 24.7095 68.7988C18.9478 68.7988 15.5786 65.2344 14.895 59.2285C14.7974 58.1543 14.3579 57.5684 13.3325 57.5684L1.61379 57.5684C0.637224 57.5684-0.0463702 58.2031 0.00245793 59.3262C0.832536 73.4863 8.54738 81.3965 24.4165 81.3965ZM82.0337 81.3965C100.1 81.3965 109.719 67.6758 109.719 40.8203C109.719 14.1113 100.1 0.146484 82.0337 0.146484C63.772 0.146484 54.2993 14.1113 54.2993 40.8203C54.2993 67.6758 63.772 81.3965 82.0337 81.3965ZM82.0337 68.1152C74.0259 68.1152 70.0708 59.668 70.0708 40.8203C70.0708 22.0703 74.0259 13.4277 82.0337 13.4277C89.7974 13.4277 93.8013 22.0703 93.8013 40.8203C93.8013 59.668 89.7974 68.1152 82.0337 68.1152ZM139.846 81.3965C155.081 81.3965 163.967 72.3633 163.967 58.6426C163.967 47.4121 159.67 41.9434 146.829 35.4492L142.043 33.0566C134.426 29.1504 131.887 26.0742 131.887 20.5566C131.887 15.7715 135.061 12.5977 139.846 12.5977C145.022 12.5977 147.756 16.0156 148.44 22.0703C148.586 23.1445 149.172 23.6816 150.149 23.6816L161.135 23.6816C162.112 23.6816 162.795 23.0469 162.747 21.9238C161.965 8.49609 154.836 0 139.846 0C125.149 0 116.555 9.0332 116.555 22.3145C116.555 33.4961 121.145 39.6484 133.01 45.9473L137.795 48.4863C145.657 52.6855 148.635 55.2246 148.635 60.4492C148.635 65.8203 145.706 68.7988 140.09 68.7988C134.377 68.7988 131.008 65.2344 130.325 59.2285C130.178 58.1543 129.788 57.5684 128.762 57.5684L117.043 57.5684C116.067 57.5684 115.383 58.2031 115.432 59.3262C116.262 73.4863 123.977 81.3965 139.846 81.3965Z" fill="#000000" fill-opacity="0.85"/>
 </g>
</svg>
