<?xml version="1.0" encoding="UTF-8"?>
<!--Generator: Apple Native CoreSVG 232.5-->
<!DOCTYPE svg
PUBLIC "-//W3C//DTD SVG 1.1//EN"
       "http://www.w3.org/Graphics/SVG/1.1/DTD/svg11.dtd">
<svg version="1.1" xmlns="http://www.w3.org/2000/svg" xmlns:xlink="http://www.w3.org/1999/xlink" width="99.6094" height="99.6582">
 <g>
  <rect height="99.6582" opacity="0" width="99.6094" x="0" y="0"/>
  <path d="M49.8047 99.6094C77.0508 99.6094 99.6094 77.002 99.6094 49.8047C99.6094 22.5586 77.002 0 49.7559 0C22.5586 0 0 22.5586 0 49.8047C0 77.002 22.6074 99.6094 49.8047 99.6094ZM49.8047 91.3086C26.7578 91.3086 8.34961 72.8516 8.34961 49.8047C8.34961 26.7578 26.709 8.30078 49.7559 8.30078C72.8027 8.30078 91.3086 26.7578 91.3086 49.8047C91.3086 72.8516 72.8516 91.3086 49.8047 91.3086Z" fill="#000000" fill-opacity="0.85"/>
  <path d="M27.1973 65.8203C33.252 65.8203 36.8652 62.1094 36.8652 56.6406C36.8652 52.0996 35.0098 50 30.0781 47.3145L28.2227 46.2891C25.4395 44.7754 24.5605 43.7012 24.5605 41.9922C24.5605 40.4785 25.6348 39.4043 27.1973 39.4043C28.7598 39.4043 29.5898 40.4785 30.0293 42.627C30.1758 43.3105 30.4688 43.6523 31.1035 43.6523L35.3027 43.6523C35.9863 43.6523 36.4258 43.2129 36.4258 42.5293C36.377 37.4023 33.3984 33.5938 27.1973 33.5938C21.2402 33.5938 17.7246 37.3535 17.7246 42.6758C17.7246 47.168 19.6289 49.6582 24.3164 52.1484L26.123 53.125C29.1016 54.6875 30.0293 55.4688 30.0293 57.3242C30.0293 59.1797 29.1992 60.0098 27.2461 60.0098C25.293 60.0098 24.2676 58.9355 23.9746 56.6895C23.877 56.0547 23.4863 55.7129 22.9004 55.7129L18.457 55.7129C17.7734 55.7129 17.2852 56.2012 17.334 56.8848C17.3828 62.4512 20.752 65.8203 27.1973 65.8203ZM49.8047 65.8203C57.0312 65.8203 60.8887 60.4004 60.8887 49.8047C60.8887 39.3066 57.0801 33.5938 49.8047 33.5938C42.4316 33.5938 38.623 39.3066 38.623 49.8047C38.623 60.4004 42.4805 65.8203 49.8047 65.8203ZM49.8047 59.7656C47.0215 59.7656 45.6543 56.9336 45.6543 49.8047C45.6543 42.6758 47.0215 39.7461 49.8047 39.7461C52.4414 39.7461 53.7598 42.6758 53.7598 49.8047C53.7598 56.9336 52.4414 59.7656 49.8047 59.7656ZM72.5098 65.8203C78.5645 65.8203 82.1777 62.1094 82.1777 56.6406C82.1777 52.0996 80.3711 50 75.3906 47.3145L73.5352 46.2891C70.752 44.7754 69.873 43.7012 69.873 41.9922C69.873 40.4785 70.9473 39.4043 72.5098 39.4043C74.0723 39.4043 74.9512 40.4785 75.3418 42.627C75.4883 43.3105 75.7812 43.6523 76.416 43.6523L80.6152 43.6523C81.2988 43.6523 81.7383 43.2129 81.7383 42.5293C81.6895 37.4023 78.7109 33.5938 72.5098 33.5938C66.5527 33.5938 63.0371 37.3535 63.0371 42.6758C63.0371 47.168 64.9414 49.6582 69.6289 52.1484L71.4355 53.125C74.4141 54.7363 75.3418 55.4688 75.3418 57.3242C75.3418 59.1797 74.5605 60.0098 72.5586 60.0098C70.6055 60.0098 69.5801 58.9355 69.2871 56.6895C69.1895 56.0547 68.7988 55.7129 68.2129 55.7129L63.7207 55.7129C63.0859 55.7129 62.5977 56.2012 62.5977 56.8848C62.6953 62.4512 66.0645 65.8203 72.5098 65.8203Z" fill="#000000" fill-opacity="0.85"/>
 </g>
</svg>
