<?xml version="1.0" encoding="UTF-8"?>
<!--Generator: Apple Native CoreSVG 232.5-->
<!DOCTYPE svg
PUBLIC "-//W3C//DTD SVG 1.1//EN"
       "http://www.w3.org/Graphics/SVG/1.1/DTD/svg11.dtd">
<svg version="1.1" xmlns="http://www.w3.org/2000/svg" xmlns:xlink="http://www.w3.org/1999/xlink" width="95.4102" height="96.3379">
 <g>
  <rect height="96.3379" opacity="0" width="95.4102" x="0" y="0"/>
  <path d="M0 38.9648C0 60.4492 17.4805 77.9297 38.9648 77.9297C47.4609 77.9297 55.2246 75.1953 61.6211 70.6055L85.6445 94.6777C86.7676 95.8008 88.2324 96.3379 89.7949 96.3379C93.1152 96.3379 95.4102 93.8477 95.4102 90.5762C95.4102 89.0137 94.8242 87.5977 93.7988 86.5723L69.9219 62.5488C74.9512 56.0059 77.9297 47.8516 77.9297 38.9648C77.9297 17.4805 60.4492 0 38.9648 0C17.4805 0 0 17.4805 0 38.9648ZM8.34961 38.9648C8.34961 22.0703 22.0703 8.34961 38.9648 8.34961C55.8594 8.34961 69.5801 22.0703 69.5801 38.9648C69.5801 55.8594 55.8594 69.5801 38.9648 69.5801C22.0703 69.5801 8.34961 55.8594 8.34961 38.9648ZM39.0137 59.4727C39.7949 59.4727 40.4297 58.8379 40.625 58.0566C43.0664 44.8242 44.2871 42.3828 58.0078 40.5273C58.8867 40.4297 59.4727 39.7949 59.4727 38.9648C59.4727 38.1348 58.8867 37.5 58.0078 37.3047C44.3359 35.4492 42.5781 32.9102 40.625 19.9219C40.4785 19.043 39.7949 18.457 39.0137 18.457C38.1836 18.457 37.5488 18.9941 37.3535 19.873C34.8633 33.1543 33.6914 35.4492 19.9707 37.3047C19.0918 37.5 18.5059 38.1348 18.5059 38.9648C18.5059 39.7949 19.0918 40.3809 19.9707 40.5273C33.6914 41.8945 35.4492 44.8242 37.3535 58.0078C37.5 58.8379 38.1348 59.4727 39.0137 59.4727Z" fill="#000000" fill-opacity="0.85"/>
 </g>
</svg>
