<?xml version="1.0" encoding="UTF-8"?>
<!--Generator: Apple Native CoreSVG 232.5-->
<!DOCTYPE svg
PUBLIC "-//W3C//DTD SVG 1.1//EN"
       "http://www.w3.org/Graphics/SVG/1.1/DTD/svg11.dtd">
<svg version="1.1" xmlns="http://www.w3.org/2000/svg" xmlns:xlink="http://www.w3.org/1999/xlink" width="122.07" height="97.7051">
 <g>
  <rect height="97.7051" opacity="0" width="122.07" x="0" y="0"/>
  <path d="M12.5488 81.1035L109.521 81.1035C117.334 81.1035 122.07 76.3184 122.07 68.5547L122.07 12.5488C122.07 4.78516 117.334 0 109.521 0L12.5488 0C4.78516 0 0 4.78516 0 12.5488L0 68.5547C0 76.3184 4.78516 81.1035 12.5488 81.1035ZM12.6953 73.2422C9.66797 73.2422 7.86133 71.4355 7.86133 68.457L7.86133 12.6465C7.86133 9.66797 9.66797 7.86133 12.6953 7.86133L109.375 7.86133C112.402 7.86133 114.209 9.66797 114.209 12.6465L114.209 68.457C114.209 71.4355 112.402 73.2422 109.375 73.2422ZM36.4746 97.6562L85.5957 97.6562C87.7441 97.6562 89.5508 95.8984 89.5508 93.7012C89.5508 91.5039 87.7441 89.7461 85.5957 89.7461L36.4746 89.7461C34.3262 89.7461 32.5195 91.5039 32.5195 93.7012C32.5195 95.8984 34.3262 97.6562 36.4746 97.6562Z" fill="#000000" fill-opacity="0.85"/>
  <path d="M63.4277 60.3027C64.3555 60.3027 64.9902 59.6191 65.1855 58.7402C67.8711 44.3359 69.1895 41.6992 84.1309 39.6484C85.1074 39.5508 85.7422 38.8672 85.7422 37.9395C85.7422 37.0117 85.1074 36.2793 84.1309 36.1328C69.2383 34.082 67.334 31.2988 65.1855 17.1875C65.0391 16.2109 64.3555 15.5762 63.4277 15.5762C62.5 15.5762 61.8164 16.1621 61.6211 17.1387C58.8867 31.543 57.6172 34.082 42.6758 36.1328C41.6992 36.2793 41.0645 37.0117 41.0645 37.9395C41.0645 38.8672 41.6992 39.502 42.6758 39.6484C57.666 41.1621 59.5215 44.3359 61.6211 58.6914C61.7676 59.6191 62.4023 60.3027 63.4277 60.3027ZM44.1895 68.2617C44.873 68.2617 45.4102 67.8223 45.5566 67.1387C46.9238 60.0586 46.4355 59.7168 54.1992 58.5449C54.8828 58.4473 55.3223 57.8613 55.3223 57.1777C55.3223 56.543 54.8828 55.957 54.1992 55.8594C46.4355 54.5898 46.9238 54.248 45.5566 47.3633C45.4102 46.582 44.9219 46.0938 44.1895 46.0938C43.5059 46.0938 43.0664 46.5332 42.8711 47.3633C41.4551 54.248 42.041 54.5898 34.2773 55.8594C33.5449 55.957 33.1543 56.543 33.1543 57.1777C33.1543 57.959 33.5449 58.4473 34.375 58.5449C42.041 59.7168 41.4551 60.0586 42.8711 66.9922C43.0664 67.7734 43.457 68.2617 44.1895 68.2617Z" fill="#000000" fill-opacity="0.85"/>
 </g>
</svg>
