<?xml version="1.0" encoding="UTF-8"?>
<!--Generator: Apple Native CoreSVG 232.5-->
<!DOCTYPE svg
PUBLIC "-//W3C//DTD SVG 1.1//EN"
       "http://www.w3.org/Graphics/SVG/1.1/DTD/svg11.dtd">
<svg version="1.1" xmlns="http://www.w3.org/2000/svg" xmlns:xlink="http://www.w3.org/1999/xlink" width="103.32" height="102.393">
 <g>
  <rect height="102.393" opacity="0" width="103.32" x="0" y="0"/>
  <path d="M79.6387 15.2344L79.6387 22.7051L71.7773 22.7051L71.7773 15.6738C71.7773 10.5957 69.043 7.95898 64.209 7.95898L15.4297 7.95898C10.5469 7.95898 7.86133 10.5957 7.86133 15.6738L7.86133 64.209C7.86133 69.2871 10.5469 71.9238 15.4297 71.9238L23.6816 71.9238L23.6816 79.7852L15.332 79.7852C5.07812 79.7852 0 74.707 0 64.6484L0 15.2344C0 5.17578 5.07812 0.0976562 15.332 0.0976562L64.3555 0.0976562C74.5117 0.0976562 79.6387 5.17578 79.6387 15.2344Z" fill="#000000" fill-opacity="0.85"/>
  <path d="M103.32 37.8418L103.32 87.2559C103.32 97.3145 98.1934 102.393 88.0371 102.393L39.0137 102.393C28.7598 102.393 23.6816 97.3145 23.6816 87.2559L23.6816 37.8418C23.6816 27.7344 28.7598 22.7051 39.0137 22.7051L88.0371 22.7051C98.1934 22.7051 103.32 27.7832 103.32 37.8418ZM44.7754 69.4336C43.3594 76.5625 43.9941 76.9043 35.9863 78.2715C35.2539 78.3691 34.7656 78.9062 34.7656 79.6387C34.7656 80.4199 35.2539 80.8594 36.084 81.0059C43.9941 82.2266 43.3594 82.5195 44.7754 89.7461C45.0195 90.5273 45.459 91.0156 46.1914 91.0156C46.9238 91.0156 47.4609 90.5762 47.6562 89.8926C48.9746 82.5195 48.4863 82.2266 56.4941 81.0059C57.1777 80.8594 57.7148 80.3223 57.7148 79.6387C57.7148 78.9062 57.1777 78.3691 56.4941 78.2715C48.5352 76.9043 48.9746 76.5625 47.6562 69.4336C47.4609 68.7012 46.9727 68.1641 46.1914 68.1641C45.5078 68.1641 45.0195 68.6523 44.7754 69.4336ZM64.1113 38.3301C61.377 53.1738 60.0098 55.8105 44.6777 57.9102C43.6523 58.0566 42.9688 58.7891 42.9688 59.7168C42.9688 60.6934 43.6523 61.4258 44.6777 61.5723C60.0586 63.1348 62.0117 66.4062 64.1113 81.1523C64.3066 82.1289 64.9902 82.8125 66.0645 82.8125C66.9434 82.8125 67.627 82.1289 67.8711 81.2012C70.6543 66.4062 72.0215 63.623 87.4023 61.5723C88.3789 61.4746 89.0625 60.6934 89.0625 59.7168C89.0625 58.7891 88.3789 58.0566 87.4023 57.9102C72.0703 55.8105 70.0195 52.8809 67.8711 38.3789C67.6758 37.4023 66.9434 36.6699 66.0645 36.6699C65.0879 36.6699 64.4043 37.3535 64.1113 38.3301Z" fill="#000000" fill-opacity="0.85"/>
 </g>
</svg>
