<?xml version="1.0" encoding="UTF-8"?>
<!--Generator: Apple Native CoreSVG 232.5-->
<!DOCTYPE svg
PUBLIC "-//W3C//DTD SVG 1.1//EN"
       "http://www.w3.org/Graphics/SVG/1.1/DTD/svg11.dtd">
<svg version="1.1" xmlns="http://www.w3.org/2000/svg" xmlns:xlink="http://www.w3.org/1999/xlink" width="90.332" height="120.361">
 <g>
  <rect height="120.361" opacity="0" width="90.332" x="0" y="0"/>
  <path d="M42.4316 23.7793C43.0664 23.7793 43.4082 23.3887 43.5059 22.8027C44.9707 14.8926 44.8242 14.502 53.3203 12.9883C53.9062 12.8418 54.2969 12.5 54.2969 11.8652C54.2969 11.2793 53.9062 10.8887 53.3203 10.791C44.8242 9.27734 44.9707 8.88672 43.5059 0.976562C43.4082 0.390625 43.0664 0 42.4316 0C41.7969 0 41.4551 0.390625 41.3574 0.976562C39.8926 8.88672 40.0391 9.27734 31.543 10.791C30.9082 10.8887 30.5664 11.2793 30.5664 11.8652C30.5664 12.5 30.9082 12.8418 31.543 12.9883C40.0391 14.502 39.8926 14.8926 41.3574 22.8027C41.4551 23.3887 41.7969 23.7793 42.4316 23.7793Z" fill="#000000" fill-opacity="0.85"/>
  <path d="M18.7988 57.373C19.7266 57.373 20.3613 56.7383 20.459 55.8594C22.2168 42.8223 22.6562 42.8223 36.1328 40.2344C36.9629 40.0879 37.5977 39.502 37.5977 38.5742C37.5977 37.6953 36.9629 37.0605 36.1328 36.9629C22.6562 35.0586 22.168 34.6191 20.459 21.3867C20.3613 20.459 19.7266 19.8242 18.7988 19.8242C17.9199 19.8242 17.2852 20.459 17.1387 21.4355C15.5762 34.4727 14.8438 34.4238 1.46484 36.9629C0.634766 37.1094 0 37.6953 0 38.5742C0 39.5508 0.634766 40.0879 1.66016 40.2344C14.9414 42.3828 15.5762 42.7246 17.1387 55.7617C17.2852 56.7383 17.9199 57.373 18.7988 57.373Z" fill="#000000" fill-opacity="0.85"/>
  <path d="M51.9043 111.377C53.1738 111.377 54.1016 110.449 54.3457 109.131C57.8125 82.4219 61.5723 78.3203 88.0371 75.3906C89.4043 75.2441 90.332 74.2676 90.332 72.9492C90.332 71.6797 89.4043 70.7031 88.0371 70.5566C61.5723 67.627 57.8125 63.5254 54.3457 36.7676C54.1016 35.4492 53.1738 34.5703 51.9043 34.5703C50.6348 34.5703 49.707 35.4492 49.5117 36.7676C46.0449 63.5254 42.2363 67.627 15.8203 70.5566C14.4043 70.7031 13.4766 71.6797 13.4766 72.9492C13.4766 74.2676 14.4043 75.2441 15.8203 75.3906C42.1875 78.8574 45.8496 82.4219 49.5117 109.131C49.707 110.449 50.6348 111.377 51.9043 111.377Z" fill="#000000" fill-opacity="0.85"/>
 </g>
</svg>
