<?xml version="1.0" encoding="UTF-8"?>
<!--Generator: Apple Native CoreSVG 232.5-->
<!DOCTYPE svg
PUBLIC "-//W3C//DTD SVG 1.1//EN"
       "http://www.w3.org/Graphics/SVG/1.1/DTD/svg11.dtd">
<svg version="1.1" xmlns="http://www.w3.org/2000/svg" xmlns:xlink="http://www.w3.org/1999/xlink" width="95.1172" height="95.0684">
 <g>
  <rect height="95.0684" opacity="0" width="95.1172" x="0" y="0"/>
  <path d="M47.5586 95.0195C49.3652 95.0195 50.8301 93.7012 51.123 91.748C55.3223 59.2285 59.9121 54.5898 91.6992 51.0742C93.7012 50.8789 95.1172 49.4141 95.1172 47.5098C95.1172 45.6055 93.7012 44.1406 91.6992 43.8965C59.9121 40.4297 55.3223 35.791 51.123 3.22266C50.8301 1.26953 49.3652 0 47.5586 0C45.752 0 44.2871 1.26953 43.9941 3.22266C39.7949 35.791 35.2051 40.4297 3.41797 43.8965C1.41602 44.1406 0 45.6055 0 47.5098C0 49.4141 1.41602 50.8789 3.41797 51.0742C35.2051 55.2734 39.502 59.2773 43.9941 91.748C44.2871 93.7012 45.752 95.0195 47.5586 95.0195Z" fill="#000000" fill-opacity="0.85"/>
 </g>
</svg>
