<?xml version="1.0" encoding="UTF-8"?>
<!--Generator: Apple Native CoreSVG 232.5-->
<!DOCTYPE svg
PUBLIC "-//W3C//DTD SVG 1.1//EN"
       "http://www.w3.org/Graphics/SVG/1.1/DTD/svg11.dtd">
<svg version="1.1" xmlns="http://www.w3.org/2000/svg" xmlns:xlink="http://www.w3.org/1999/xlink" width="117.871" height="86.1816">
 <g>
  <rect height="86.1816" opacity="0" width="117.871" x="0" y="0"/>
  <path d="M115.137 31.4941L103.564 31.4941L103.564 31.2012L115.479 15.5273C116.553 14.1602 116.943 13.3301 116.943 12.4023C116.943 10.791 115.674 9.81445 114.014 9.81445L97.6074 9.81445C95.9961 9.81445 94.873 10.8398 94.873 12.4512C94.873 14.1113 95.9961 15.1367 97.6074 15.1367L108.545 15.1367L108.545 15.332L96.4844 31.0059C95.4102 32.373 95.0684 33.2031 95.0684 34.2773C95.0684 35.7422 96.2402 36.8164 97.9492 36.8164L115.137 36.8164C116.748 36.8164 117.871 35.791 117.871 34.1309C117.871 32.5684 116.748 31.4941 115.137 31.4941ZM86.4258 51.0254L78.2715 51.0254L78.2715 50.8301L86.7188 39.7949C87.6953 38.5254 88.1348 37.6953 88.1348 36.7676C88.1348 35.2539 86.9141 34.375 85.3027 34.375L72.8516 34.375C71.3379 34.375 70.3125 35.3516 70.3125 36.8164C70.3125 38.4766 71.3379 39.4043 72.8516 39.4043L80.1758 39.4043L80.1758 39.5996L71.7773 50.5859C70.8496 51.8555 70.459 52.6367 70.459 53.6621C70.459 55.0781 71.5332 56.1035 73.0957 56.1035L86.4258 56.1035C87.9395 56.1035 88.9648 55.1758 88.9648 53.5645C88.9648 52.0508 87.9395 51.0254 86.4258 51.0254ZM108.496 68.9941L101.562 68.9941L101.562 68.7988L108.691 59.2773C109.668 57.959 110.01 57.2754 110.01 56.3965C110.01 54.9316 108.887 54.0527 107.422 54.0527L96.4355 54.0527C94.9707 54.0527 93.9941 54.9805 93.9941 56.4453C93.9941 57.959 94.9707 58.8379 96.4355 58.8379L102.49 58.8379L102.49 59.0332L95.4102 68.5547C94.5312 69.7754 94.0918 70.5078 94.0918 71.4355C94.0918 72.8027 95.2148 73.7793 96.6797 73.7793L108.496 73.7793C109.863 73.7793 110.84 72.8516 110.84 71.3379C110.84 69.9219 109.863 68.9941 108.496 68.9941Z" fill="#000000" fill-opacity="0.85"/>
  <path d="M9.91211 62.9395L23.9258 62.9395C24.3652 62.9395 24.7559 63.0859 25.0977 63.3789L47.1191 83.1055C49.4629 85.2051 51.2695 86.1816 53.6133 86.1816C56.7383 86.1816 59.1309 83.8867 59.1309 80.7129L59.1309 5.81055C59.1309 2.63672 56.7383 0.0488281 53.5156 0.0488281C51.1719 0.0488281 49.6582 1.12305 47.1191 3.41797L25.0977 22.9492C24.7559 23.2422 24.3652 23.3887 23.9258 23.3887L9.91211 23.3887C3.27148 23.3887 0 26.7578 0 33.8379L0 52.5391C0 59.6191 3.32031 62.9395 9.91211 62.9395ZM10.2539 55.8105C8.44727 55.8105 7.61719 54.9805 7.61719 53.1738L7.61719 33.2031C7.61719 31.3477 8.44727 30.5176 10.2539 30.5176L25.8789 30.5176C27.1484 30.5176 28.125 30.2734 29.248 29.248L50.0488 10.3516C50.293 10.1074 50.5371 9.96094 50.8789 9.96094C51.2207 9.96094 51.5137 10.2051 51.5137 10.6445L51.5137 75.5371C51.5137 75.9766 51.2207 76.2695 50.8789 76.2695C50.6348 76.2695 50.3418 76.123 50.0488 75.8789L29.248 57.0801C28.125 56.1035 27.1484 55.8105 25.8789 55.8105Z" fill="#000000" fill-opacity="0.85"/>
 </g>
</svg>
