<?xml version="1.0" encoding="UTF-8"?>
<!--Generator: Apple Native CoreSVG 232.5-->
<!DOCTYPE svg
PUBLIC "-//W3C//DTD SVG 1.1//EN"
       "http://www.w3.org/Graphics/SVG/1.1/DTD/svg11.dtd">
<svg version="1.1" xmlns="http://www.w3.org/2000/svg" xmlns:xlink="http://www.w3.org/1999/xlink" width="104.675" height="109.986">
 <g>
  <rect height="109.986" opacity="0" width="104.675" x="0" y="0"/>
  <path d="M25.3201 44.1015C25.2479 44.3933 25.2137 44.728 25.2137 45.1051L25.2137 65.0758C25.2137 66.8824 26.0437 67.7125 27.8992 67.7125L43.5242 67.7125C44.7937 67.7125 45.7215 68.0055 46.8445 68.9821L67.6941 87.7809C67.9383 88.025 68.2312 88.1715 68.4754 88.1715C68.7259 88.1715 68.9502 88.0141 69.0516 87.7565L76.2493 94.9416C75.415 96.8516 73.5352 98.0836 71.2097 98.0836C68.866 98.0836 67.0594 97.1071 64.7156 95.0074L42.6941 75.2809C42.3523 74.9879 41.9617 74.8414 41.5222 74.8414L27.5574 74.8414C20.9168 74.8414 17.5965 71.5211 17.5965 64.441L17.5965 45.7399C17.5965 42.5537 18.2689 40.119 19.62 38.4114ZM76.7273 17.7125L76.7273 68.655L69.1101 61.0422L69.1101 22.5465C69.1101 22.1071 68.8172 21.8629 68.4754 21.8629C68.1824 21.8629 67.8894 22.0094 67.6453 22.2535L48.0817 40.0261L42.8052 34.7527L64.7156 15.3199C67.3035 13.025 68.7683 11.9508 71.1121 11.9508C74.3836 11.9508 76.7273 14.5387 76.7273 17.7125Z" fill="#000000" fill-opacity="0.85"/>
  <path d="M92.5965 103.211C94.0613 104.675 96.4539 104.675 97.9187 103.211C99.3347 101.697 99.3836 99.3531 97.9187 97.8883L14.2762 14.2946C12.8113 12.8297 10.3699 12.8297 8.90506 14.2946C7.48904 15.7106 7.48904 18.2008 8.90506 19.6168Z" fill="#000000" fill-opacity="0.85"/>
 </g>
</svg>
