<?xml version="1.0" encoding="UTF-8"?>
<!--Generator: Apple Native CoreSVG 232.5-->
<!DOCTYPE svg
PUBLIC "-//W3C//DTD SVG 1.1//EN"
       "http://www.w3.org/Graphics/SVG/1.1/DTD/svg11.dtd">
<svg version="1.1" xmlns="http://www.w3.org/2000/svg" xmlns:xlink="http://www.w3.org/1999/xlink" width="86.8164" height="86.1816">
 <g>
  <rect height="86.1816" opacity="0" width="86.8164" x="0" y="0"/>
  <path d="M75.5859 63.8672C77.1973 64.9902 79.4922 64.6484 80.8105 62.7441C84.5703 57.8125 86.8164 50.5371 86.8164 43.0664C86.8164 35.5957 84.5703 28.3691 80.8105 23.3887C79.4922 21.4844 77.1973 21.0938 75.5859 22.2656C73.584 23.6328 73.291 26.0742 74.8047 28.0762C77.6367 31.9824 79.248 37.4023 79.248 43.0664C79.248 48.7305 77.5879 54.1016 74.8047 58.0566C73.3398 60.1074 73.584 62.4512 75.5859 63.8672Z" fill="#000000" fill-opacity="0.85"/>
  <path d="M52.6367 86.1816C55.8594 86.1816 58.1543 83.8867 58.1543 80.7129L58.1543 5.81055C58.1543 2.63672 55.8594 0.0488281 52.5391 0.0488281C50.2441 0.0488281 48.6816 1.02539 46.2402 3.41797L25.3906 22.9492C25.0977 23.2422 24.6582 23.3887 24.1699 23.3887L10.2051 23.3887C3.56445 23.3887 0 27.0508 0 34.082L0 52.2461C0 59.3262 3.56445 62.9395 10.2051 62.9395L24.1699 62.9395C24.6582 62.9395 25.0977 63.0859 25.3906 63.3789L46.2402 83.1055C48.4375 85.2539 50.3418 86.1816 52.6367 86.1816Z" fill="#000000" fill-opacity="0.85"/>
 </g>
</svg>
