<?xml version="1.0" encoding="UTF-8"?>
<!--Generator: Apple Native CoreSVG 232.5-->
<!DOCTYPE svg
PUBLIC "-//W3C//DTD SVG 1.1//EN"
       "http://www.w3.org/Graphics/SVG/1.1/DTD/svg11.dtd">
<svg version="1.1" xmlns="http://www.w3.org/2000/svg" xmlns:xlink="http://www.w3.org/1999/xlink" width="99.6094" height="99.6582">
 <g>
  <rect height="99.6582" opacity="0" width="99.6094" x="0" y="0"/>
  <path d="M49.8047 99.6094C77.0508 99.6094 99.6094 77.002 99.6094 49.8047C99.6094 22.5586 77.002 0 49.7559 0C22.5586 0 0 22.5586 0 49.8047C0 77.002 22.6074 99.6094 49.8047 99.6094ZM49.8047 91.3086C26.7578 91.3086 8.34961 72.8516 8.34961 49.8047C8.34961 26.7578 26.709 8.30078 49.7559 8.30078C72.8027 8.30078 91.3086 26.7578 91.3086 49.8047C91.3086 72.8516 72.8516 91.3086 49.8047 91.3086Z" fill="#000000" fill-opacity="0.85"/>
  <path d="M67.9199 67.2363C69.1895 68.0176 70.6055 67.7734 71.4355 66.6016C74.707 61.9629 76.5625 56.0059 76.5625 49.7559C76.5625 43.6523 74.8047 37.6953 71.4355 32.959C70.5566 31.7383 69.0918 31.4453 67.9199 32.2266C66.748 33.1055 66.5527 34.6191 67.4316 35.8887C70.0684 39.5996 71.5332 44.5312 71.5332 49.7559C71.5332 54.9316 70.0684 60.0586 67.4316 63.623C66.5039 64.8926 66.6504 66.4551 67.9199 67.2363Z" fill="#000000" fill-opacity="0.85"/>
  <path d="M59.2773 60.791C60.3516 61.6211 61.9141 61.2793 62.793 60.1562C64.7949 57.5684 65.918 53.7109 65.918 49.7559C65.918 45.8984 64.7461 42.041 62.793 39.4043C61.9629 38.2324 60.3516 37.9395 59.2773 38.7695C58.0566 39.6973 57.8125 41.2109 58.7402 42.4805C60.0098 44.1895 60.8398 46.9238 60.8398 49.7559C60.8398 52.4902 60.0098 55.2246 58.6914 57.0801C57.8125 58.3984 58.0078 59.8145 59.2773 60.791Z" fill="#000000" fill-opacity="0.85"/>
  <path d="M48.1934 71.7773C49.8047 71.7773 50.9766 70.6055 50.9766 68.9941L50.9766 30.7129C50.9766 29.1016 49.8047 27.7832 48.1445 27.7832C46.9727 27.7832 46.1914 28.3203 44.9219 29.4922L34.2773 39.5508C34.1309 39.6973 33.8867 39.7461 33.6426 39.7461L26.4648 39.7461C23.1445 39.7461 21.2891 41.6016 21.2891 45.166L21.2891 54.4922C21.2891 58.0078 23.1445 59.8633 26.4648 59.8633L33.6426 59.8633C33.8867 59.8633 34.1309 59.9609 34.2773 60.1074L44.9219 70.2637C46.0449 71.2891 47.0215 71.7773 48.1934 71.7773Z" fill="#000000" fill-opacity="0.85"/>
 </g>
</svg>
