<?xml version="1.0" encoding="UTF-8"?>
<!--Generator: Apple Native CoreSVG 232.5-->
<!DOCTYPE svg
PUBLIC "-//W3C//DTD SVG 1.1//EN"
       "http://www.w3.org/Graphics/SVG/1.1/DTD/svg11.dtd">
<svg version="1.1" xmlns="http://www.w3.org/2000/svg" xmlns:xlink="http://www.w3.org/1999/xlink" width="108.984" height="86.1816">
 <g>
  <rect height="86.1816" opacity="0" width="108.984" x="0" y="0"/>
  <path d="M93.7012 76.6113C95.5078 77.832 97.7539 77.3926 99.0723 75.5371C105.322 66.9434 108.984 55.127 108.984 43.0664C108.984 31.0059 105.371 19.0918 99.0723 10.5957C97.7539 8.74023 95.5078 8.30078 93.7012 9.52148C91.8945 10.7422 91.6016 13.0371 93.0176 15.0391C98.3398 22.5586 101.416 32.666 101.416 43.0664C101.416 53.4668 98.2422 63.4766 93.0176 71.0938C91.6504 73.0957 91.8945 75.3906 93.7012 76.6113Z" fill="#000000" fill-opacity="0.85"/>
  <path d="M75.6348 63.8672C77.2461 64.9902 79.541 64.6484 80.8594 62.7441C84.6191 57.8125 86.8652 50.5371 86.8652 43.0664C86.8652 35.5957 84.6191 28.3691 80.8594 23.3887C79.541 21.4844 77.2461 21.0938 75.6348 22.2656C73.6328 23.6328 73.3398 26.0742 74.8535 28.0762C77.6855 31.9824 79.2969 37.4023 79.2969 43.0664C79.2969 48.7305 77.6367 54.1016 74.8535 58.0566C73.3887 60.1074 73.6328 62.4512 75.6348 63.8672Z" fill="#000000" fill-opacity="0.85"/>
  <path d="M9.91211 62.9395L23.9258 62.9395C24.3652 62.9395 24.7559 63.0859 25.0977 63.3789L47.1191 83.1055C49.4629 85.2051 51.2695 86.1816 53.6133 86.1816C56.7383 86.1816 59.1309 83.8867 59.1309 80.7129L59.1309 5.81055C59.1309 2.63672 56.7383 0.0488281 53.5156 0.0488281C51.1719 0.0488281 49.6582 1.12305 47.1191 3.41797L25.0977 22.9492C24.7559 23.2422 24.3652 23.3887 23.9258 23.3887L9.91211 23.3887C3.27148 23.3887 0 26.7578 0 33.8379L0 52.5391C0 59.6191 3.32031 62.9395 9.91211 62.9395ZM10.2539 55.8105C8.44727 55.8105 7.61719 54.9805 7.61719 53.1738L7.61719 33.2031C7.61719 31.3477 8.44727 30.5176 10.2539 30.5176L25.8789 30.5176C27.1484 30.5176 28.125 30.2734 29.248 29.248L50.0488 10.3516C50.293 10.1074 50.5371 9.96094 50.8789 9.96094C51.2207 9.96094 51.5137 10.2051 51.5137 10.6445L51.5137 75.5371C51.5137 75.9766 51.2207 76.2695 50.8789 76.2695C50.6348 76.2695 50.3418 76.123 50.0488 75.8789L29.248 57.0801C28.125 56.1035 27.1484 55.8105 25.8789 55.8105Z" fill="#000000" fill-opacity="0.85"/>
 </g>
</svg>
