<?xml version="1.0" encoding="UTF-8"?>
<!--Generator: Apple Native CoreSVG 232.5-->
<!DOCTYPE svg
PUBLIC "-//W3C//DTD SVG 1.1//EN"
       "http://www.w3.org/Graphics/SVG/1.1/DTD/svg11.dtd">
<svg version="1.1" xmlns="http://www.w3.org/2000/svg" xmlns:xlink="http://www.w3.org/1999/xlink" width="108.984" height="86.1816">
 <g>
  <rect height="86.1816" opacity="0" width="108.984" x="0" y="0"/>
  <path d="M93.7012 76.6113C95.5078 77.832 97.7539 77.3926 99.0723 75.5371C105.322 66.9434 108.984 55.127 108.984 43.0664C108.984 31.0059 105.371 19.0918 99.0723 10.5957C97.7539 8.74023 95.5078 8.30078 93.7012 9.52148C91.8945 10.7422 91.6016 13.0371 93.0176 15.0391C98.3398 22.5586 101.416 32.666 101.416 43.0664C101.416 53.4668 98.2422 63.4766 93.0176 71.0938C91.6504 73.0957 91.8945 75.3906 93.7012 76.6113Z" fill="#000000" fill-opacity="0.85"/>
  <path d="M75.6348 63.8672C77.2461 64.9902 79.541 64.6484 80.8594 62.7441C84.6191 57.8125 86.8652 50.5371 86.8652 43.0664C86.8652 35.5957 84.6191 28.3691 80.8594 23.3887C79.541 21.4844 77.2461 21.0938 75.6348 22.2656C73.6328 23.6328 73.3398 26.0742 74.8535 28.0762C77.6855 31.9824 79.2969 37.4023 79.2969 43.0664C79.2969 48.7305 77.6367 54.1016 74.8535 58.0566C73.3887 60.1074 73.6328 62.4512 75.6348 63.8672Z" fill="#000000" fill-opacity="0.85"/>
  <path d="M52.6367 86.1816C55.8594 86.1816 58.1543 83.8867 58.1543 80.7129L58.1543 5.81055C58.1543 2.63672 55.8594 0.0488281 52.5391 0.0488281C50.2441 0.0488281 48.7305 1.07422 46.2402 3.41797L25.3906 22.9492C25.0977 23.2422 24.6582 23.3887 24.1699 23.3887L10.2051 23.3887C3.56445 23.3887 0 27.0508 0 34.082L0 52.2461C0 59.3262 3.56445 62.9395 10.2051 62.9395L24.1699 62.9395C24.6582 62.9395 25.0977 63.0859 25.3906 63.3789L46.2402 83.1055C48.4375 85.2539 50.3418 86.1816 52.6367 86.1816Z" fill="#000000" fill-opacity="0.85"/>
 </g>
</svg>
