<?xml version="1.0" encoding="UTF-8"?>
<!--Generator: Apple Native CoreSVG 232.5-->
<!DOCTYPE svg
PUBLIC "-//W3C//DTD SVG 1.1//EN"
       "http://www.w3.org/Graphics/SVG/1.1/DTD/svg11.dtd">
<svg version="1.1" xmlns="http://www.w3.org/2000/svg" xmlns:xlink="http://www.w3.org/1999/xlink" width="118.994" height="86.1816">
 <g>
  <rect height="86.1816" opacity="0" width="118.994" x="0" y="0"/>
  <path d="M73.7305 43.0664C73.7305 45.459 75.4395 47.0703 77.9297 47.0703L92.2852 47.0703L92.2852 61.4746C92.2852 63.916 93.9453 65.625 96.3379 65.625C98.7793 65.625 100.488 63.9648 100.488 61.4746L100.488 47.0703L114.893 47.0703C117.334 47.0703 118.994 45.459 118.994 43.0664C118.994 40.625 117.334 38.916 114.893 38.916L100.488 38.916L100.488 24.5605C100.488 22.0703 98.7793 20.3613 96.3379 20.3613C93.9453 20.3613 92.2852 22.0703 92.2852 24.5605L92.2852 38.916L77.9297 38.916C75.4395 38.916 73.7305 40.625 73.7305 43.0664Z" fill="#000000" fill-opacity="0.85"/>
  <path d="M9.91211 62.9395L23.9258 62.9395C24.3652 62.9395 24.7559 63.0859 25.0977 63.3789L47.1191 83.1055C49.4629 85.2051 51.2695 86.1816 53.6133 86.1816C56.7383 86.1816 59.1309 83.8867 59.1309 80.7129L59.1309 5.81055C59.1309 2.63672 56.7383 0.0488281 53.5156 0.0488281C51.1719 0.0488281 49.6582 1.12305 47.1191 3.41797L25.0977 22.9492C24.7559 23.2422 24.3652 23.3887 23.9258 23.3887L9.91211 23.3887C3.27148 23.3887 0 26.7578 0 33.8379L0 52.5391C0 59.6191 3.32031 62.9395 9.91211 62.9395ZM10.2539 55.8105C8.44727 55.8105 7.61719 54.9805 7.61719 53.1738L7.61719 33.2031C7.61719 31.3477 8.44727 30.5176 10.2539 30.5176L25.8789 30.5176C27.1484 30.5176 28.125 30.2734 29.248 29.248L50.0488 10.3516C50.293 10.1074 50.5371 9.96094 50.8789 9.96094C51.2207 9.96094 51.5137 10.2051 51.5137 10.6445L51.5137 75.5371C51.5137 75.9766 51.2207 76.2695 50.8789 76.2695C50.6348 76.2695 50.3418 76.123 50.0488 75.8789L29.248 57.0801C28.125 56.1035 27.1484 55.8105 25.8789 55.8105Z" fill="#000000" fill-opacity="0.85"/>
 </g>
</svg>
