<?xml version="1.0" encoding="UTF-8"?>
<!--Generator: Apple Native CoreSVG 232.5-->
<!DOCTYPE svg
PUBLIC "-//W3C//DTD SVG 1.1//EN"
       "http://www.w3.org/Graphics/SVG/1.1/DTD/svg11.dtd">
<svg version="1.1" xmlns="http://www.w3.org/2000/svg" xmlns:xlink="http://www.w3.org/1999/xlink" width="99.6094" height="99.6582">
 <g>
  <rect height="99.6582" opacity="0" width="99.6094" x="0" y="0"/>
  <path d="M49.8047 99.6094C77.0508 99.6094 99.6094 77.002 99.6094 49.8047C99.6094 22.5586 77.002 0 49.7559 0C22.5586 0 0 22.5586 0 49.8047C0 77.002 22.6074 99.6094 49.8047 99.6094ZM49.8047 91.3086C26.7578 91.3086 8.34961 72.8516 8.34961 49.8047C8.34961 26.7578 26.709 8.30078 49.7559 8.30078C72.8027 8.30078 91.3086 26.7578 91.3086 49.8047C91.3086 72.8516 72.8516 91.3086 49.8047 91.3086Z" fill="#000000" fill-opacity="0.85"/>
  <path d="M58.6914 73.1934C60.4004 73.1934 61.6699 71.9727 61.6699 70.2148L61.6699 29.541C61.6699 27.8809 60.4004 26.4648 58.6426 26.4648C57.373 26.4648 56.543 27.002 55.1758 28.2715L43.9453 38.8672C43.7988 39.0625 43.457 39.1113 43.2129 39.1113L35.6445 39.1113C31.9824 39.1113 30.0781 41.1133 30.0781 44.9219L30.0781 54.7852C30.0781 58.5938 31.9824 60.5957 35.6445 60.5957L43.2129 60.5957C43.457 60.5957 43.7988 60.6934 43.9453 60.8398L55.1758 71.5332C56.3965 72.7051 57.4219 73.1934 58.6914 73.1934Z" fill="#000000" fill-opacity="0.85"/>
 </g>
</svg>
