<?xml version="1.0" encoding="UTF-8"?>
<!--Generator: Apple Native CoreSVG 232.5-->
<!DOCTYPE svg
PUBLIC "-//W3C//DTD SVG 1.1//EN"
       "http://www.w3.org/Graphics/SVG/1.1/DTD/svg11.dtd">
<svg version="1.1" xmlns="http://www.w3.org/2000/svg" xmlns:xlink="http://www.w3.org/1999/xlink" width="104.675" height="109.986">
 <g>
  <rect height="109.986" opacity="0" width="104.675" x="0" y="0"/>
  <path d="M75.5345 94.228C74.8978 96.538 72.8779 98.0836 70.2332 98.0836C67.9871 98.0836 66.0828 97.1559 63.8367 95.0074L43.0359 75.2809C42.6941 74.9879 42.3035 74.8414 41.8152 74.8414L27.8015 74.8414C21.2097 74.8414 17.5965 71.2281 17.5965 64.1481L17.5965 45.984C17.5965 42.8064 18.3344 40.3169 19.7587 38.5498ZM75.7508 17.7125L75.7508 67.679L42.9621 34.9094C42.9873 34.8919 43.0118 34.8719 43.0359 34.8512L63.8367 15.3199C66.3269 12.9274 67.8894 11.9508 70.1355 11.9508C73.4558 11.9508 75.7508 14.5387 75.7508 17.7125Z" fill="#000000" fill-opacity="0.85"/>
  <path d="M92.5965 103.211C94.0613 104.675 96.4539 104.675 97.9187 103.211C99.3347 101.697 99.3836 99.3531 97.9187 97.8883L14.2762 14.2946C12.8113 12.8297 10.3699 12.8297 8.90506 14.2946C7.48904 15.7106 7.48904 18.2008 8.90506 19.6168Z" fill="#000000" fill-opacity="0.85"/>
 </g>
</svg>
