<?xml version="1.0" encoding="UTF-8"?>
<!--Generator: Apple Native CoreSVG 232.5-->
<!DOCTYPE svg
PUBLIC "-//W3C//DTD SVG 1.1//EN"
       "http://www.w3.org/Graphics/SVG/1.1/DTD/svg11.dtd">
<svg version="1.1" xmlns="http://www.w3.org/2000/svg" xmlns:xlink="http://www.w3.org/1999/xlink" width="89.8926" height="89.9902">
 <g>
  <rect height="89.9902" opacity="0" width="89.8926" x="0" y="0"/>
  <path d="M15.332 89.9902L74.5605 89.9902C84.8145 89.9902 89.8926 84.9121 89.8926 74.8535L89.8926 15.2344C89.8926 5.17578 84.8145 0.0976562 74.5605 0.0976562L15.332 0.0976562C5.12695 0.0976562 0 5.12695 0 15.2344L0 74.8535C0 84.9609 5.12695 89.9902 15.332 89.9902ZM15.4297 82.1289C10.5469 82.1289 7.86133 79.541 7.86133 74.4629L7.86133 15.625C7.86133 10.5469 10.5469 7.95898 15.4297 7.95898L74.4629 7.95898C79.2969 7.95898 82.0312 10.5469 82.0312 15.625L82.0312 74.4629C82.0312 79.541 79.2969 82.1289 74.4629 82.1289Z" fill="#000000" fill-opacity="0.85"/>
  <path d="M53.9551 68.3594C55.6641 68.3594 56.8848 67.1387 56.8848 65.3809L56.8848 24.707C56.8848 23.0469 55.6641 21.6309 53.9062 21.6309C52.6367 21.6309 51.8066 22.168 50.3906 23.4375L39.1602 34.0332C39.0137 34.2285 38.6719 34.2773 38.4277 34.2773L30.8594 34.2773C27.2461 34.2773 25.293 36.2793 25.293 40.0879L25.293 49.9512C25.293 53.7598 27.2461 55.7617 30.8594 55.7617L38.4277 55.7617C38.6719 55.7617 39.0137 55.8594 39.1602 56.0059L50.3906 66.6992C51.6602 67.8711 52.6855 68.3594 53.9551 68.3594Z" fill="#000000" fill-opacity="0.85"/>
 </g>
</svg>
