<?xml version="1.0" encoding="UTF-8"?>
<!--Generator: Apple Native CoreSVG 232.5-->
<!DOCTYPE svg
PUBLIC "-//W3C//DTD SVG 1.1//EN"
       "http://www.w3.org/Graphics/SVG/1.1/DTD/svg11.dtd">
<svg version="1.1" xmlns="http://www.w3.org/2000/svg" xmlns:xlink="http://www.w3.org/1999/xlink" width="131.055" height="94.3738">
 <g>
  <rect height="94.3738" opacity="0" width="131.055" x="0" y="0"/>
  <path d="M112.012 93.6469C113.672 94.8676 116.064 94.3793 117.383 92.4262C125.928 80.0726 131.055 64.3988 131.055 47.1625C131.055 29.8773 125.781 14.3012 117.383 1.89882C116.064-0.103135 113.672-0.542588 112.012 0.678115C110.156 1.94765 109.912 4.24257 111.23 6.24452C118.799 17.4262 123.584 31.4887 123.584 47.1625C123.584 62.7875 118.799 76.9476 111.23 88.0805C109.912 90.0824 110.156 92.3773 112.012 93.6469Z" fill="#000000" fill-opacity="0.85"/>
  <path d="M93.7012 80.7074C95.5078 81.9281 97.7539 81.4887 99.0723 79.6332C105.322 71.0394 108.984 59.223 108.984 47.1625C108.984 35.1019 105.371 23.1879 99.0723 14.6918C97.7539 12.8363 95.5078 12.3969 93.7012 13.6176C91.8945 14.8383 91.6016 17.1332 93.0176 19.1351C98.3398 26.6547 101.416 36.7621 101.416 47.1625C101.416 57.5629 98.2422 67.5726 93.0176 75.1898C91.6504 77.1918 91.8945 79.4867 93.7012 80.7074Z" fill="#000000" fill-opacity="0.85"/>
  <path d="M75.6348 67.9633C77.2461 69.0863 79.541 68.7445 80.8594 66.8402C84.6191 61.9086 86.8652 54.6332 86.8652 47.1625C86.8652 39.6918 84.6191 32.4652 80.8594 27.4848C79.541 25.5805 77.2461 25.1898 75.6348 26.3617C73.6328 27.7289 73.3398 30.1703 74.8535 32.1723C77.6855 36.0785 79.2969 41.4984 79.2969 47.1625C79.2969 52.8266 77.6367 58.1976 74.8535 62.1527C73.3887 64.2035 73.6328 66.5473 75.6348 67.9633Z" fill="#000000" fill-opacity="0.85"/>
  <path d="M9.91211 67.0355L23.9258 67.0355C24.3652 67.0355 24.7559 67.182 25.0977 67.475L47.1191 87.2016C49.4629 89.3012 51.2695 90.2777 53.6133 90.2777C56.7383 90.2777 59.1309 87.9828 59.1309 84.809L59.1309 9.90663C59.1309 6.7328 56.7383 4.14491 53.5156 4.14491C51.1719 4.14491 49.6582 5.21913 47.1191 7.51405L25.0977 27.0453C24.7559 27.3383 24.3652 27.4848 23.9258 27.4848L9.91211 27.4848C3.27148 27.4848 0 30.8539 0 37.934L0 56.6351C0 63.7152 3.32031 67.0355 9.91211 67.0355ZM10.2539 59.9066C8.44727 59.9066 7.61719 59.0766 7.61719 57.2699L7.61719 37.2992C7.61719 35.4437 8.44727 34.6137 10.2539 34.6137L25.8789 34.6137C27.1484 34.6137 28.125 34.3695 29.248 33.3441L50.0488 14.4476C50.293 14.2035 50.5371 14.057 50.8789 14.057C51.2207 14.057 51.5137 14.3012 51.5137 14.7406L51.5137 79.6332C51.5137 80.0726 51.2207 80.3656 50.8789 80.3656C50.6348 80.3656 50.3418 80.2191 50.0488 79.975L29.248 61.1762C28.125 60.1996 27.1484 59.9066 25.8789 59.9066Z" fill="#000000" fill-opacity="0.85"/>
 </g>
</svg>
