<?xml version="1.0" encoding="UTF-8"?>
<!--Generator: Apple Native CoreSVG 232.5-->
<!DOCTYPE svg
PUBLIC "-//W3C//DTD SVG 1.1//EN"
       "http://www.w3.org/Graphics/SVG/1.1/DTD/svg11.dtd">
<svg version="1.1" xmlns="http://www.w3.org/2000/svg" xmlns:xlink="http://www.w3.org/1999/xlink" width="107.617" height="107.861">
 <g>
  <rect height="107.861" opacity="0" width="107.617" x="0" y="0"/>
  <path d="M107.617 28.9062L107.617 66.3086C107.617 80.6152 99.8047 88.623 85.2539 88.623L52.2461 88.623L34.6191 104.736C32.3242 106.885 30.9082 107.861 29.0039 107.861C26.2207 107.861 24.6582 105.859 24.6582 102.832L24.6582 88.623L22.3633 88.623C7.8125 88.623 0 80.6641 0 66.3086L0 28.9062C0 14.5508 7.8125 6.54297 22.3633 6.54297L85.2539 6.54297C99.8047 6.54297 107.617 14.5996 107.617 28.9062ZM48.8281 26.6113L37.8906 36.9629C37.6953 37.1094 37.4512 37.1582 37.207 37.1582L29.834 37.1582C26.3672 37.1582 24.4141 39.1113 24.4141 42.7734L24.4141 52.3926C24.4141 56.0547 26.3672 58.0078 29.834 58.0078L37.207 58.0078C37.4512 58.0078 37.6953 58.0566 37.8906 58.2031L48.8281 68.6523C50 69.7754 50.9766 70.2148 52.2461 70.2148C53.8574 70.2148 55.127 68.9941 55.127 67.334L55.127 27.8809C55.127 26.2207 53.8574 24.8535 52.1484 24.8535C50.9277 24.8535 50.1465 25.3906 48.8281 26.6113ZM72.5586 29.4434C71.3379 30.3711 71.0938 31.9336 72.0215 33.2031C74.7559 37.0605 76.2695 42.1387 76.2695 47.5098C76.2695 52.832 74.7559 58.1055 71.9727 61.7676C71.0449 63.0859 71.2402 64.7461 72.5586 65.5273C73.8281 66.3574 75.3418 66.0645 76.123 64.8926C79.541 60.1074 81.4941 53.9551 81.4941 47.5098C81.4941 41.2109 79.6387 35.0586 76.1719 30.1758C75.293 28.9062 73.7305 28.6133 72.5586 29.4434ZM63.623 36.1816C62.3535 37.1582 62.1094 38.7207 63.0371 40.0391C64.4043 41.7969 65.1855 44.5801 65.1855 47.5098C65.1855 50.3418 64.3555 53.125 63.0371 55.0293C62.1094 56.3965 62.3535 57.9102 63.623 58.8867C64.7461 59.7656 66.3086 59.375 67.2363 58.252C69.2871 55.5664 70.459 51.6602 70.459 47.5098C70.459 43.5547 69.2383 39.5996 67.2363 36.8164C66.3574 35.6445 64.7461 35.3027 63.623 36.1816Z" fill="#000000" fill-opacity="0.85"/>
 </g>
</svg>
