<?xml version="1.0" encoding="UTF-8"?>
<!--Generator: Apple Native CoreSVG 232.5-->
<!DOCTYPE svg
PUBLIC "-//W3C//DTD SVG 1.1//EN"
       "http://www.w3.org/Graphics/SVG/1.1/DTD/svg11.dtd">
<svg version="1.1" xmlns="http://www.w3.org/2000/svg" xmlns:xlink="http://www.w3.org/1999/xlink" width="116.406" height="93.8965">
 <g>
  <rect height="93.8965" opacity="0" width="116.406" x="0" y="0"/>
  <path d="M53.2715 5.27344L28.125 2.53906C23.6816 2.05078 20.5566 4.83398 20.5566 9.0332C20.5566 13.2812 23.6816 16.1133 28.125 15.625L53.2715 12.8418ZM57.7148 18.1152C62.7441 18.1152 66.7969 14.0625 66.7969 9.0332C66.7969 4.05273 62.7441 0 57.7148 0C52.7344 0 48.6816 4.05273 48.6816 9.0332C48.6816 14.0625 52.7344 18.1152 57.7148 18.1152ZM62.1582 5.27344L62.1582 12.8418L87.3535 15.625C91.748 16.1133 94.873 13.2812 94.873 9.0332C94.873 4.83398 91.748 2.05078 87.3535 2.53906ZM53.418 14.5996L53.418 26.1719L62.0605 26.1719L62.0605 14.5996ZM44.0918 35.5469L71.2402 35.5469L71.2402 29.1504C71.2402 25.293 68.8477 22.9004 64.9902 22.9004L50.293 22.9004C46.4844 22.9004 44.0918 25.293 44.0918 29.1504ZM57.666 84.2285C65.8203 84.2285 70.752 80.9082 76.2207 75.8789C78.418 73.6816 81.2988 72.5586 83.8379 72.5586C88.6719 72.5586 92.5293 76.123 92.5293 82.5684L92.5293 89.3555C92.5293 91.4062 93.457 92.334 95.5078 92.334L113.379 92.334C115.43 92.334 116.406 91.4062 116.406 89.3555L116.406 84.8145C116.406 57.0312 100 47.7051 84.1797 47.7051L82.0801 47.7051C80.7129 47.7051 79.7852 46.9238 79.3945 45.8496L76.416 37.793C75.5371 35.3516 74.707 34.7168 72.5586 34.7168L42.7246 34.7168C40.5762 34.7168 39.7949 35.3516 38.8672 37.793L35.9375 45.8496C35.498 46.9238 34.5703 47.7051 33.252 47.7051L4.54102 47.7051L4.54102 72.2656L31.5918 72.2656C34.6191 72.2656 36.1328 72.6562 38.2812 75.1465C43.0664 80.3711 49.4629 84.2285 57.666 84.2285ZM3.90625 84.5703C6.10352 84.5703 7.86133 82.7637 7.86133 80.6152L7.86133 40.7227C7.86133 38.5742 6.10352 36.7676 3.90625 36.7676C1.75781 36.7676 0 38.5742 0 40.7227L0 80.6152C0 82.7637 1.75781 84.5703 3.90625 84.5703Z" fill="#000000" fill-opacity="0.85"/>
 </g>
</svg>
