<?xml version="1.0" encoding="UTF-8"?>
<!--Generator: Apple Native CoreSVG 232.5-->
<!DOCTYPE svg
PUBLIC "-//W3C//DTD SVG 1.1//EN"
       "http://www.w3.org/Graphics/SVG/1.1/DTD/svg11.dtd">
<svg version="1.1" xmlns="http://www.w3.org/2000/svg" xmlns:xlink="http://www.w3.org/1999/xlink" width="131.934" height="89.9902">
 <g>
  <rect height="89.9902" opacity="0" width="131.934" x="0" y="0"/>
  <path d="M15.332 89.9902L116.65 89.9902C126.855 89.9902 131.934 84.9121 131.934 74.8535L131.934 15.2344C131.934 5.17578 126.855 0.0976562 116.65 0.0976562L15.332 0.0976562C5.12695 0.0976562 0 5.12695 0 15.2344L0 74.8535C0 84.9609 5.12695 89.9902 15.332 89.9902ZM15.4297 82.1289C10.5469 82.1289 7.86133 79.541 7.86133 74.4629L7.86133 15.625C7.86133 10.5469 10.5469 7.95898 15.4297 7.95898L116.504 7.95898C121.338 7.95898 124.072 10.5469 124.072 15.625L124.072 74.4629C124.072 79.541 121.338 82.1289 116.504 82.1289ZM0 66.748L19.9219 66.748C26.416 66.748 30.1758 62.9883 30.1758 56.5918L30.1758 33.4473C30.1758 27.0508 26.416 23.291 19.9219 23.291L0 23.291L0 30.1758L19.873 30.1758C22.0215 30.1758 23.291 31.4453 23.291 33.6426L23.291 56.3965C23.291 58.5938 22.0215 59.8633 19.873 59.8633L0 59.8633ZM62.4023 83.3984L69.2871 83.3984L69.2871 6.68945L62.4023 6.68945ZM65.7715 68.0664C79.541 68.0664 89.0137 58.6914 88.8672 45.0195C88.7695 31.543 79.3457 22.1191 65.7715 22.0215C52.2461 21.875 42.8223 31.25 42.8223 45.0195C42.8223 58.6914 52.2461 68.0664 65.7715 68.0664ZM65.8203 61.5234C56.1523 61.5234 49.3164 54.6875 49.3164 44.9707C49.3164 35.3027 56.1523 28.5645 65.8203 28.5645C75.5859 28.5645 82.4219 35.3027 82.373 44.9707C82.3242 54.6875 75.4883 61.5234 65.8203 61.5234ZM131.934 66.748L131.934 59.8633L112.061 59.8633C109.961 59.8633 108.691 58.5938 108.691 56.3965L108.691 33.6426C108.691 31.4453 109.961 30.1758 112.061 30.1758L131.934 30.1758L131.934 23.291L112.012 23.291C105.518 23.291 101.807 27.0508 101.807 33.4473L101.807 56.5918C101.807 62.9883 105.518 66.748 112.012 66.748Z" fill="#000000" fill-opacity="0.85"/>
 </g>
</svg>
