<?xml version="1.0" encoding="UTF-8"?>
<!--Generator: Apple Native CoreSVG 232.5-->
<!DOCTYPE svg
PUBLIC "-//W3C//DTD SVG 1.1//EN"
       "http://www.w3.org/Graphics/SVG/1.1/DTD/svg11.dtd">
<svg version="1.1" xmlns="http://www.w3.org/2000/svg" xmlns:xlink="http://www.w3.org/1999/xlink" width="87.5" height="99.8535">
 <g>
  <rect height="99.8535" opacity="0" width="87.5" x="0" y="0"/>
  <path d="M3.4668 44.2383C5.37109 44.2383 6.93359 42.6758 6.93359 40.7715C6.93359 38.8672 5.37109 37.3047 3.4668 37.3047C1.5625 37.3047 0 38.8672 0 40.7715C0 42.6758 1.5625 44.2383 3.4668 44.2383ZM13.6719 15.4297C15.5762 15.4297 17.1387 13.8672 17.1387 11.9629C17.1387 10.0586 15.5762 8.49609 13.6719 8.49609C11.7676 8.49609 10.2051 10.0586 10.2051 11.9629C10.2051 13.8672 11.7676 15.4297 13.6719 15.4297ZM43.75 6.93359C45.6543 6.93359 47.2168 5.37109 47.2168 3.4668C47.2168 1.5625 45.6543 0 43.75 0C41.8457 0 40.2832 1.5625 40.2832 3.4668C40.2832 5.37109 41.8457 6.93359 43.75 6.93359ZM73.8281 15.4297C75.7324 15.4297 77.2949 13.8672 77.2949 11.9629C77.2949 10.0586 75.7324 8.49609 73.8281 8.49609C71.9238 8.49609 70.3613 10.0586 70.3613 11.9629C70.3613 13.8672 71.9238 15.4297 73.8281 15.4297ZM84.0332 44.2383C85.9375 44.2383 87.5 42.6758 87.5 40.7715C87.5 38.8672 85.9375 37.3047 84.0332 37.3047C82.1289 37.3047 80.5664 38.8672 80.5664 40.7715C80.5664 42.6758 82.1289 44.2383 84.0332 44.2383Z" fill="#000000" fill-opacity="0.85"/>
  <path d="M18.0176 44.2383C19.9219 44.2383 21.4844 42.6758 21.4844 40.7715C21.4844 38.8672 19.9219 37.3047 18.0176 37.3047C16.1133 37.3047 14.5508 38.8672 14.5508 40.7715C14.5508 42.6758 16.1133 44.2383 18.0176 44.2383ZM23.9746 25.7324C25.8789 25.7324 27.4414 24.1699 27.4414 22.2656C27.4414 20.3613 25.8789 18.7988 23.9746 18.7988C22.0703 18.7988 20.5078 20.3613 20.5078 22.2656C20.5078 24.1699 22.0703 25.7324 23.9746 25.7324ZM43.75 21.5332C45.6543 21.5332 47.2168 19.9707 47.2168 18.0664C47.2168 16.1621 45.6543 14.5996 43.75 14.5996C41.8457 14.5996 40.2832 16.1621 40.2832 18.0664C40.2832 19.9707 41.8457 21.5332 43.75 21.5332ZM63.5254 25.7324C65.4297 25.7324 66.9922 24.1699 66.9922 22.2656C66.9922 20.3613 65.4297 18.7988 63.5254 18.7988C61.5723 18.7988 60.0586 20.3613 60.0586 22.2656C60.0586 24.1699 61.5723 25.7324 63.5254 25.7324ZM69.4336 44.2383C71.3379 44.2383 72.9004 42.6758 72.9004 40.7715C72.9004 38.8672 71.3379 37.3047 69.4336 37.3047C67.5293 37.3047 65.9668 38.8672 65.9668 40.7715C65.9668 42.6758 67.5293 44.2383 69.4336 44.2383Z" fill="#000000" fill-opacity="0.85"/>
  <path d="M34.4727 47.4121L52.9785 47.4121C56.2012 47.4121 58.4961 45.1172 58.4961 41.8945L58.4961 38.4766C58.4961 33.2031 54.6387 29.4922 49.0723 29.4922L38.3789 29.4922C32.8613 29.4922 29.0039 33.2031 29.0039 38.4766L29.0039 41.8945C29.0039 45.1172 31.2988 47.4121 34.4727 47.4121ZM37.1582 56.6406L50.3418 56.6406L50.3418 44.0918L37.1582 44.0918ZM34.4727 70.8008L52.9785 70.8008C56.2012 70.8008 58.4961 68.5547 58.4961 65.2832L58.4961 58.0078C58.4961 54.7363 56.2012 52.4902 52.9785 52.4902L34.4727 52.4902C31.2988 52.4902 29.0039 54.7363 29.0039 58.0078L29.0039 65.2832C29.0039 68.5547 31.2988 70.8008 34.4727 70.8008ZM37.1582 91.8457L50.3418 91.8457L50.3418 68.2617L37.1582 68.2617ZM4.73633 95.8984L82.7637 95.8984C84.8633 95.8984 86.6211 94.1406 86.6211 92.041C86.6211 89.8926 84.8633 88.1348 82.7637 88.1348L4.73633 88.1348C2.63672 88.1348 0.830078 89.8926 0.830078 92.041C0.830078 94.1406 2.63672 95.8984 4.73633 95.8984Z" fill="#000000" fill-opacity="0.85"/>
 </g>
</svg>
