<?xml version="1.0" encoding="UTF-8"?>
<!--Generator: Apple Native CoreSVG 232.5-->
<!DOCTYPE svg
PUBLIC "-//W3C//DTD SVG 1.1//EN"
       "http://www.w3.org/Graphics/SVG/1.1/DTD/svg11.dtd">
<svg version="1.1" xmlns="http://www.w3.org/2000/svg" xmlns:xlink="http://www.w3.org/1999/xlink" width="114.527" height="117.383">
 <g>
  <rect height="117.383" opacity="0" width="114.527" x="0" y="0"/>
  <path d="M29.0578 76.4845L18.3961 82.5929C18.152 82.6906 18.0055 82.837 18.0055 83.0323C18.0055 83.2765 18.152 83.423 18.3961 83.5206L55.5543 104.81C56.3356 105.249 57.0192 105.493 57.7028 105.493C58.3864 105.493 59.0699 105.249 59.8512 104.81L80.6693 92.8824L86.6132 98.8201L63.9039 111.987C61.5602 113.355 59.6559 113.989 57.7028 113.989C55.7496 113.989 53.8453 113.355 51.5016 111.987L13.2692 89.8195C9.36292 87.5245 7.80042 85.7179 7.80042 83.0323C7.80042 80.3956 9.36292 78.589 13.2692 76.2941L21.0082 71.8068ZM102.136 76.2941C106.043 78.589 107.605 80.3956 107.605 83.0323C107.605 85.3747 106.416 87.0484 103.52 88.9609L89.3128 74.7614L94.3973 71.8068Z" fill="#000000" fill-opacity="0.85"/>
  <path d="M30.4021 53.2203L18.3961 60.0831C18.152 60.1808 18.0055 60.3273 18.0055 60.5714C18.0055 60.8156 18.152 60.9132 18.3961 61.0597L55.5543 82.2999C56.3356 82.7394 57.0192 82.9835 57.7028 82.9835C58.3864 82.9835 59.0699 82.7394 59.8512 82.2999L66.3546 78.5825L72.3796 84.6013L63.9039 89.5265C61.5602 90.8937 59.6559 91.5284 57.7028 91.5284C55.7496 91.5284 53.8453 90.8937 51.5016 89.5265L13.2692 67.3097C9.36292 65.0148 7.80042 63.257 7.80042 60.5714C7.80042 57.8859 9.36292 56.1281 13.2692 53.7843L22.322 48.5353ZM102.136 53.7843C106.043 56.1281 107.605 57.8859 107.605 60.5714C107.605 63.257 106.043 65.0148 102.136 67.3097L89.3128 74.7614L83.392 68.8436L97.0094 61.0597C97.2535 60.9132 97.4 60.8156 97.4 60.5714C97.4 60.3273 97.2535 60.1808 97.0094 60.0831L85.0034 53.2203L93.0835 48.5353Z" fill="#000000" fill-opacity="0.85"/>
  <path d="M21.8226 34.0966L18.3961 36.0597C18.152 36.1573 18.0055 36.3038 18.0055 36.4991C18.0055 36.7433 18.152 36.8898 18.3961 36.9874L33.216 45.4782L54.7161 66.9561C53.713 66.6277 52.6611 66.1306 51.5016 65.4542L13.2692 43.2863C9.36292 40.9913 7.80042 39.1847 7.80042 36.4991C7.80042 33.8624 9.36292 32.0558 13.2692 29.7609L15.9351 28.2151ZM63.9039 7.59289L102.136 29.7609C106.043 32.0558 107.605 33.8624 107.605 36.4991C107.605 39.1847 106.043 40.9913 102.136 43.2863L74.091 59.5475L68.0942 53.5538L97.0094 36.9874C97.2535 36.8898 97.4 36.7433 97.4 36.4991C97.4 36.3038 97.2535 36.1573 97.0094 36.0597L59.8512 14.7706C59.0699 14.3312 58.3864 14.087 57.7028 14.087C57.0192 14.087 56.3356 14.3312 55.5543 14.7706L38.8604 24.3351L32.9004 18.3782L51.5016 7.59289C53.8453 6.22571 55.7496 5.59094 57.7028 5.59094C59.6559 5.59094 61.5602 6.22571 63.9039 7.59289Z" fill="#000000" fill-opacity="0.85"/>
  <path d="M102.429 106.519C103.894 107.984 106.287 107.984 107.752 106.519C109.168 105.054 109.216 102.661 107.752 101.196L13.318 6.81164C11.8531 5.3468 9.41174 5.3468 7.9469 6.81164C6.48206 8.22766 6.48206 10.7179 7.9469 12.1339Z" fill="#000000" fill-opacity="0.85"/>
 </g>
</svg>
