<?xml version="1.0" encoding="UTF-8"?>
<!--Generator: Apple Native CoreSVG 232.5-->
<!DOCTYPE svg
PUBLIC "-//W3C//DTD SVG 1.1//EN"
       "http://www.w3.org/Graphics/SVG/1.1/DTD/svg11.dtd">
<svg version="1.1" xmlns="http://www.w3.org/2000/svg" xmlns:xlink="http://www.w3.org/1999/xlink" width="89.8926" height="89.9902">
 <g>
  <rect height="89.9902" opacity="0" width="89.8926" x="0" y="0"/>
  <path d="M0 74.8535C0 84.9121 5.07812 89.9902 15.332 89.9902L74.5605 89.9902C84.7656 89.9902 89.8926 84.9609 89.8926 74.8535L89.8926 15.2344C89.8926 5.12695 84.7656 0.0976562 74.5605 0.0976562L15.332 0.0976562C5.07812 0.0976562 0 5.17578 0 15.2344ZM7.86133 74.4629L7.86133 15.625C7.86133 10.5469 10.6445 7.95898 15.4297 7.95898L44.9707 7.95898L44.9707 82.1289L15.4297 82.1289C10.6445 82.1289 7.86133 79.541 7.86133 74.4629Z" fill="#000000" fill-opacity="0.85"/>
 </g>
</svg>
