<?xml version="1.0" encoding="UTF-8"?>
<!--Generator: Apple Native CoreSVG 232.5-->
<!DOCTYPE svg
PUBLIC "-//W3C//DTD SVG 1.1//EN"
       "http://www.w3.org/Graphics/SVG/1.1/DTD/svg11.dtd">
<svg version="1.1" xmlns="http://www.w3.org/2000/svg" xmlns:xlink="http://www.w3.org/1999/xlink" width="122.412" height="126.904">
 <g>
  <rect height="126.904" opacity="0" width="122.412" x="0" y="0"/>
  <path d="M111.084 87.2559C111.084 89.8926 109.57 91.6992 105.615 93.9941L67.4316 116.162C65.0391 117.529 63.2324 118.164 61.1816 118.164C59.1797 118.164 57.3242 117.529 54.9805 116.162L16.7969 93.9941C12.8418 91.6992 11.3281 89.8926 11.3281 87.2559C11.3281 85.4848 11.9864 84.096 13.5753 82.6973L58.7402 108.936C59.5703 109.375 60.4492 109.668 61.1816 109.668C61.9629 109.668 62.8418 109.375 63.6719 108.936L108.837 82.6973C110.426 84.096 111.084 85.4848 111.084 87.2559Z" fill="#000000" fill-opacity="0.85"/>
  <path d="M111.084 64.7461C111.084 67.4316 109.57 69.1895 105.615 71.4844L67.4316 93.7012C65.0391 95.0684 63.2324 95.7031 61.1816 95.7031C59.1797 95.7031 57.3242 95.0684 54.9805 93.7012L16.7969 71.4844C12.8418 69.1895 11.3281 67.4316 11.3281 64.7461C11.3281 62.9696 11.9905 61.599 13.5899 60.196L58.7402 86.4258C59.5703 86.8652 60.4492 87.1582 61.1816 87.1582C61.9629 87.1582 62.8418 86.8652 63.6719 86.4258L108.822 60.196C110.422 61.599 111.084 62.9696 111.084 64.7461Z" fill="#000000" fill-opacity="0.85"/>
  <path d="M16.7969 48.0469L54.9805 70.2148C57.3242 71.582 59.1797 72.2168 61.1816 72.2168C63.2324 72.2168 65.0391 71.582 67.4316 70.2148L105.615 48.0469C109.57 45.752 111.084 43.9453 111.084 41.2598C111.084 38.623 109.57 36.8164 105.615 34.5215L67.4316 12.3535C65.0391 10.9863 63.2324 10.3516 61.1816 10.3516C59.1797 10.3516 57.3242 10.9863 54.9805 12.3535L16.7969 34.5215C12.8418 36.8164 11.3281 38.623 11.3281 41.2598C11.3281 43.9453 12.8418 45.752 16.7969 48.0469ZM21.875 41.748C21.3867 41.5039 21.3867 41.0645 21.875 40.8203L59.0332 19.5312C59.8633 19.0918 60.498 18.8477 61.1816 18.8477C61.9141 18.8477 62.5488 19.0918 63.3789 19.5312L100.537 40.8203C101.025 41.0645 101.025 41.5039 100.537 41.748L63.3789 63.0371C62.5488 63.4766 61.9629 63.7207 61.1816 63.7207C60.4492 63.7207 59.8633 63.4766 59.0332 63.0371Z" fill="#000000" fill-opacity="0.85"/>
 </g>
</svg>
