<?xml version="1.0" encoding="UTF-8"?>
<!--Generator: Apple Native CoreSVG 232.5-->
<!DOCTYPE svg
PUBLIC "-//W3C//DTD SVG 1.1//EN"
       "http://www.w3.org/Graphics/SVG/1.1/DTD/svg11.dtd">
<svg version="1.1" xmlns="http://www.w3.org/2000/svg" xmlns:xlink="http://www.w3.org/1999/xlink" width="110.4" height="110.4">
 <g>
  <rect height="110.4" opacity="0" width="110.4" x="0" y="0"/>
  <path d="M11.3281 22.6562C12.705 22.6562 14.0227 22.4122 15.2344 21.9519L15.2344 61.4521C14.0227 60.9887 12.705 60.7422 11.3281 60.7422C9.93168 60.7422 8.59764 60.9918 7.37305 61.4606L7.37305 21.9434C8.59764 22.4091 9.93168 22.6562 11.3281 22.6562Z" fill="#000000" fill-opacity="0.85"/>
  <path d="M34.3262 75.9766L21.9058 75.9766C22.3641 74.7628 22.6074 73.4449 22.6074 72.0703C22.6074 70.6774 22.3576 69.3427 21.8881 68.1152L34.3262 68.1152Z" fill="#000000" fill-opacity="0.85"/>
  <path d="M76.0742 34.4727L68.2129 34.4727L68.2129 21.9541C69.4266 22.413 70.7445 22.6562 72.1191 22.6562C73.5121 22.6562 74.8468 22.4064 76.0742 21.9364Z" fill="#000000" fill-opacity="0.85"/>
  <path d="M60.791 11.3281C60.791 12.7246 61.0406 14.0586 61.5095 15.2832L21.8952 15.2832C22.3602 14.0586 22.6074 12.7246 22.6074 11.3281C22.6074 9.95122 22.3633 8.63356 21.9036 7.42188L61.501 7.42188C61.0375 8.63356 60.791 9.95122 60.791 11.3281Z" fill="#000000" fill-opacity="0.85"/>
  <path d="M22.6074 72.0703C22.6074 78.3203 17.5781 83.3984 11.3281 83.3984C5.0293 83.3984 0 78.3203 0 72.0703C0 65.8203 5.0293 60.7422 11.3281 60.7422C17.5781 60.7422 22.6074 65.8203 22.6074 72.0703Z" fill="#000000" fill-opacity="0.85"/>
  <path d="" fill="#000000" fill-opacity="0.85"/>
  <path d="M83.4473 11.3281C83.4473 17.627 78.3691 22.6562 72.1191 22.6562C65.8691 22.6562 60.791 17.627 60.791 11.3281C60.791 5.07812 65.8691 0.0488281 72.1191 0.0488281C78.3691 0.0488281 83.4473 5.07812 83.4473 11.3281Z" fill="#000000" fill-opacity="0.85"/>
  <path d="M22.6074 11.3281C22.6074 17.627 17.5781 22.6562 11.3281 22.6562C5.0293 22.6562 0 17.627 0 11.3281C0 5.07812 5.0293 0.0488281 11.3281 0.0488281C17.5781 0.0488281 22.6074 5.07812 22.6074 11.3281Z" fill="#000000" fill-opacity="0.85"/>
  <path d="M38.2812 49.707C39.6582 49.707 40.9758 49.4629 42.1875 49.0027L42.1875 88.5029C40.9758 88.0394 39.6582 87.793 38.2812 87.793C36.8848 87.793 35.5508 88.0426 34.3262 88.5114L34.3262 48.9942C35.5508 49.4598 36.8848 49.707 38.2812 49.707Z" fill="#000000" fill-opacity="0.85"/>
  <path d="M87.7441 99.1211C87.7441 100.498 87.9906 101.816 88.4541 103.027L48.8567 103.027C49.3165 101.816 49.5605 100.498 49.5605 99.1211C49.5605 97.7282 49.3107 96.3934 48.8412 95.166L88.4697 95.166C87.9964 96.3934 87.7441 97.7282 87.7441 99.1211Z" fill="#000000" fill-opacity="0.85"/>
  <path d="M103.027 88.5186C101.8 88.0452 100.465 87.793 99.0723 87.793C97.6977 87.793 96.3798 88.0386 95.166 88.5007L95.166 49.0049C96.3798 49.4638 97.6977 49.707 99.0723 49.707C100.465 49.707 101.8 49.4572 103.027 48.9871Z" fill="#000000" fill-opacity="0.85"/>
  <path d="M87.7441 38.3789C87.7441 39.7753 87.9937 41.1094 88.4626 42.334L48.8483 42.334C49.3134 41.1094 49.5605 39.7753 49.5605 38.3789C49.5605 37.002 49.3165 35.6843 48.8567 34.4727L88.4541 34.4727C87.9906 35.6843 87.7441 37.002 87.7441 38.3789Z" fill="#000000" fill-opacity="0.85"/>
  <path d="M49.5605 99.1211C49.5605 105.371 44.5312 110.4 38.2812 110.4C31.9824 110.4 26.9531 105.371 26.9531 99.1211C26.9531 92.8711 31.9824 87.793 38.2812 87.793C44.5312 87.793 49.5605 92.8711 49.5605 99.1211Z" fill="#000000" fill-opacity="0.85"/>
  <path d="M110.4 99.1211C110.4 105.371 105.322 110.4 99.0723 110.4C92.8223 110.4 87.7441 105.371 87.7441 99.1211C87.7441 92.8711 92.8223 87.793 99.0723 87.793C105.322 87.793 110.4 92.8711 110.4 99.1211Z" fill="#000000" fill-opacity="0.85"/>
  <path d="M110.4 38.3789C110.4 44.6777 105.322 49.707 99.0723 49.707C92.8223 49.707 87.7441 44.6777 87.7441 38.3789C87.7441 32.1289 92.8223 27.0996 99.0723 27.0996C105.322 27.0996 110.4 32.1289 110.4 38.3789Z" fill="#000000" fill-opacity="0.85"/>
  <path d="M38.2812 49.707C44.5312 49.707 49.5605 44.6777 49.5605 38.3789C49.5605 32.1289 44.5312 27.0996 38.2812 27.0996C31.9824 27.0996 26.9531 32.1289 26.9531 38.3789C26.9531 44.6777 31.9824 49.707 38.2812 49.707Z" fill="#000000" fill-opacity="0.85"/>
 </g>
</svg>
