<?xml version="1.0" encoding="UTF-8"?>
<!--Generator: Apple Native CoreSVG 232.5-->
<!DOCTYPE svg
PUBLIC "-//W3C//DTD SVG 1.1//EN"
       "http://www.w3.org/Graphics/SVG/1.1/DTD/svg11.dtd">
<svg version="1.1" xmlns="http://www.w3.org/2000/svg" xmlns:xlink="http://www.w3.org/1999/xlink" width="89.8926" height="89.9902">
 <g>
  <rect height="89.9902" opacity="0" width="89.8926" x="0" y="0"/>
  <path d="M15.332 89.9902L74.5605 89.9902C84.8145 89.9902 89.8926 84.9121 89.8926 74.8535L89.8926 15.2344C89.8926 5.17578 84.8145 0.0976562 74.5605 0.0976562L15.332 0.0976562C5.12695 0.0976562 0 5.12695 0 15.2344L0 74.8535C0 84.9609 5.12695 89.9902 15.332 89.9902ZM15.4297 82.1289C10.5469 82.1289 7.86133 79.541 7.86133 74.4629L7.86133 15.625C7.86133 10.5469 10.5469 7.95898 15.4297 7.95898L74.4629 7.95898C79.2969 7.95898 82.0312 10.5469 82.0312 15.625L82.0312 74.4629C82.0312 79.541 79.2969 82.1289 74.4629 82.1289Z" fill="#000000" fill-opacity="0.85"/>
  <path d="M20.7031 54.7363L68.7988 54.7363C70.5078 54.7363 71.7773 53.418 71.7773 51.709C71.7773 50.0488 70.5078 48.7305 68.7988 48.7305L20.7031 48.7305C18.8965 48.7305 17.627 50.0488 17.627 51.709C17.627 53.418 18.8965 54.7363 20.7031 54.7363ZM20.7031 71.4355L55.9082 71.4355C57.666 71.4355 58.9355 70.1172 58.9355 68.457C58.9355 66.748 57.666 65.4297 55.9082 65.4297L20.7031 65.4297C18.8965 65.4297 17.627 66.748 17.627 68.457C17.627 70.1172 18.8965 71.4355 20.7031 71.4355ZM17.7734 21.1426L17.7734 33.0566C17.7734 36.084 19.5801 37.8906 22.6074 37.8906L34.5215 37.8906C37.5488 37.8906 39.3555 36.084 39.3555 33.0566L39.3555 21.1426C39.3555 18.1152 37.5488 16.3086 34.5215 16.3086L22.6074 16.3086C19.5801 16.3086 17.7734 18.1152 17.7734 21.1426Z" fill="#000000" fill-opacity="0.85"/>
 </g>
</svg>
