<?xml version="1.0" encoding="UTF-8"?>
<!--Generator: Apple Native CoreSVG 232.5-->
<!DOCTYPE svg
PUBLIC "-//W3C//DTD SVG 1.1//EN"
       "http://www.w3.org/Graphics/SVG/1.1/DTD/svg11.dtd">
<svg version="1.1" xmlns="http://www.w3.org/2000/svg" xmlns:xlink="http://www.w3.org/1999/xlink" width="120.312" height="136.969">
 <g>
  <rect height="136.969" opacity="0" width="120.312" x="0" y="0"/>
  <path d="M68.0068 18.6781L21.5332 45.5111C20.459 46.097 20.0195 46.8783 20.0195 47.9037L20.0195 101.578C16.1995 102.446 12.1094 101.076 12.1094 94.3392L12.1094 47.9525C12.1094 42.4349 12.6953 41.4095 17.4316 38.724L57.2266 15.726C60.8234 13.6525 66.5473 13.0459 68.0068 18.6781Z" fill="#000000" fill-opacity="0.85"/>
  <path d="M87.4501 29.903L40.9668 56.7416C39.9414 57.3275 39.502 58.1088 39.502 59.1342L39.502 112.804C35.667 113.681 31.5918 112.318 31.5918 105.57L31.5918 59.1342C31.5918 53.6654 32.1777 52.64 36.8652 49.9056L76.709 26.9564C80.3116 24.8796 86.0111 24.2744 87.4501 29.903Z" fill="#000000" fill-opacity="0.85"/>
  <path d="M51.9531 116.361C51.9531 124.124 57.6172 126.419 63.7695 122.855L102.1 100.882C106.592 98.2943 108.203 95.6088 108.203 90.14L108.203 44.7299C108.203 37.2103 102.637 35.5013 96.4844 39.017L58.1543 61.1361C53.5156 63.8217 51.9531 66.556 51.9531 71.8783Z" fill="#000000" fill-opacity="0.85"/>
 </g>
</svg>
