<?xml version="1.0" encoding="UTF-8"?>
<!--Generator: Apple Native CoreSVG 232.5-->
<!DOCTYPE svg
PUBLIC "-//W3C//DTD SVG 1.1//EN"
       "http://www.w3.org/Graphics/SVG/1.1/DTD/svg11.dtd">
<svg version="1.1" xmlns="http://www.w3.org/2000/svg" xmlns:xlink="http://www.w3.org/1999/xlink" width="120.044" height="116.52">
 <g>
  <rect height="116.52" opacity="0" width="120.044" x="0" y="0"/>
  <path d="M79.6021 24.4467L32.2388 24.4467C27.356 24.4467 24.6216 27.0835 24.6216 32.1616L24.6216 87.5815C24.6216 92.6596 27.356 95.2475 32.2388 95.2475L87.854 95.2475C92.7368 95.2475 95.4224 92.6596 95.4224 87.5815L95.4224 40.6479L103.284 32.7722L103.284 87.9721C103.284 98.0796 98.1567 103.109 87.9517 103.109L32.0923 103.109C21.936 103.109 16.7603 98.0796 16.7603 87.9721L16.7603 31.7221C16.7603 21.6635 21.936 16.5854 32.0923 16.5854L87.4634 16.5854Z" fill="#000000" fill-opacity="0.85"/>
  <path d="M49.8657 71.4682L59.3872 67.3178L104.993 21.7612L98.3032 15.1694L52.7466 60.726L48.3521 69.9057C47.9614 70.7358 48.938 71.8589 49.8657 71.4682ZM108.606 18.1967L112.122 14.5835C113.782 12.8257 113.782 10.4819 112.122 8.87058L110.999 7.6987C109.485 6.18503 107.092 6.38034 105.481 7.94284L101.917 11.4585Z" fill="#000000" fill-opacity="0.85"/>
 </g>
</svg>
