<?xml version="1.0" encoding="UTF-8"?>
<!--Generator: Apple Native CoreSVG 232.5-->
<!DOCTYPE svg
PUBLIC "-//W3C//DTD SVG 1.1//EN"
       "http://www.w3.org/Graphics/SVG/1.1/DTD/svg11.dtd">
<svg version="1.1" xmlns="http://www.w3.org/2000/svg" xmlns:xlink="http://www.w3.org/1999/xlink" width="114.795" height="112.646">
 <g>
  <rect height="112.646" opacity="0" width="114.795" x="0" y="0"/>
  <path d="M78.3399 28.3691L70.5349 28.3691C65.9523 16.0104 54.1642 7.42188 40.0391 7.42188C21.7285 7.42188 7.42188 21.7773 7.42188 40.0391C7.42188 55.3402 17.4123 67.8454 31.3965 71.508L31.3965 79.118C13.4296 75.1888 0 59.1874 0 40.0391C0 17.9199 17.9199 0 40.0391 0C58.0969 0 73.3559 11.9435 78.3399 28.3691Z" fill="#000000" fill-opacity="0.85"/>
  <path d="M46.7285 108.057L95.752 108.057C105.908 108.057 111.084 102.979 111.084 92.9199L111.084 43.5059C111.084 33.4473 105.908 28.3691 95.752 28.3691L46.7285 28.3691C36.5234 28.3691 31.3965 33.4473 31.3965 43.5059L31.3965 92.9199C31.3965 102.979 36.5234 108.057 46.7285 108.057ZM46.875 100.195C41.9922 100.195 39.2578 97.5586 39.2578 92.4805L39.2578 43.9453C39.2578 38.8672 41.9922 36.2305 46.875 36.2305L95.6055 36.2305C100.488 36.2305 103.223 38.8672 103.223 43.9453L103.223 92.4805C103.223 97.5586 100.488 100.195 95.6055 100.195Z" fill="#000000" fill-opacity="0.85"/>
 </g>
</svg>
