<?xml version="1.0" encoding="UTF-8"?>
<!--Generator: Apple Native CoreSVG 232.5-->
<!DOCTYPE svg
PUBLIC "-//W3C//DTD SVG 1.1//EN"
       "http://www.w3.org/Graphics/SVG/1.1/DTD/svg11.dtd">
<svg version="1.1" xmlns="http://www.w3.org/2000/svg" xmlns:xlink="http://www.w3.org/1999/xlink" width="103.32" height="102.393">
 <g>
  <rect height="102.393" opacity="0" width="103.32" x="0" y="0"/>
  <path d="M79.6387 15.2344L79.6387 22.7051L71.7773 22.7051L71.7773 15.6738C71.7773 10.5957 69.043 7.95898 64.209 7.95898L15.4297 7.95898C10.5469 7.95898 7.86133 10.5957 7.86133 15.6738L7.86133 64.209C7.86133 69.2871 10.5469 71.9238 15.4297 71.9238L23.6816 71.9238L23.6816 79.7852L15.332 79.7852C5.07812 79.7852 0 74.707 0 64.6484L0 15.2344C0 5.17578 5.07812 0.0976562 15.332 0.0976562L64.3555 0.0976562C74.5117 0.0976562 79.6387 5.17578 79.6387 15.2344Z" fill="#000000" fill-opacity="0.85"/>
  <path d="M39.0137 102.393L88.0371 102.393C98.1934 102.393 103.32 97.3145 103.32 87.2559L103.32 37.8418C103.32 27.7832 98.1934 22.7051 88.0371 22.7051L39.0137 22.7051C28.7598 22.7051 23.6816 27.7344 23.6816 37.8418L23.6816 87.2559C23.6816 97.3145 28.7598 102.393 39.0137 102.393Z" fill="#000000" fill-opacity="0.85"/>
 </g>
</svg>
