<?xml version="1.0" encoding="UTF-8"?>
<!--Generator: Apple Native CoreSVG 232.5-->
<!DOCTYPE svg
PUBLIC "-//W3C//DTD SVG 1.1//EN"
       "http://www.w3.org/Graphics/SVG/1.1/DTD/svg11.dtd">
<svg version="1.1" xmlns="http://www.w3.org/2000/svg" xmlns:xlink="http://www.w3.org/1999/xlink" width="122.51" height="83.9355">
 <g>
  <rect height="83.9355" opacity="0" width="122.51" x="0" y="0"/>
  <path d="M2.73438 19.0918L16.3086 19.0918C18.0664 19.0918 19.0918 18.0176 19.0918 16.3086L19.0918 2.83203C19.0918 1.02539 18.0664 0 16.3086 0L2.73438 0C1.07422 0 0 1.12305 0 2.83203L0 16.3086C0 17.9199 1.07422 19.0918 2.73438 19.0918ZM2.73438 51.4648L16.3086 51.4648C18.0664 51.4648 19.0918 50.4395 19.0918 48.7305L19.0918 35.2539C19.0918 33.3984 18.0664 32.373 16.3086 32.373L2.73438 32.373C1.07422 32.373 0 33.4961 0 35.2539L0 48.7305C0 50.3418 1.07422 51.4648 2.73438 51.4648ZM2.73438 83.8379L16.3574 83.8379C18.0664 83.8379 19.0918 82.8125 19.0918 81.1035L19.0918 67.627C19.0918 65.7715 18.0664 64.7461 16.3574 64.7461L2.73438 64.7461C1.07422 64.7461 0 65.8691 0 67.627L0 81.1035C0 82.7148 1.07422 83.8379 2.73438 83.8379ZM48.3887 82.4707L107.666 82.4707C117.578 82.4707 122.51 77.5879 122.51 67.8711L122.51 16.0156C122.51 6.29883 117.578 1.41602 107.666 1.41602L48.3887 1.41602C38.5742 1.41602 33.5938 6.29883 33.5938 16.0156L33.5938 67.8711C33.5938 77.5879 38.5742 82.4707 48.3887 82.4707Z" fill="#000000" fill-opacity="0.85"/>
 </g>
</svg>
