<?xml version="1.0" encoding="UTF-8"?>
<!--Generator: Apple Native CoreSVG 232.5-->
<!DOCTYPE svg
PUBLIC "-//W3C//DTD SVG 1.1//EN"
       "http://www.w3.org/Graphics/SVG/1.1/DTD/svg11.dtd">
<svg version="1.1" xmlns="http://www.w3.org/2000/svg" xmlns:xlink="http://www.w3.org/1999/xlink" width="138.916" height="89.9902">
 <g>
  <rect height="89.9902" opacity="0" width="138.916" x="0" y="0"/>
  <path d="M107.324 89.9902L129.59 89.9902C135.791 89.9902 138.916 86.9141 138.916 80.4688L138.916 58.5938C138.916 52.1973 135.791 49.0723 129.59 49.0723L107.324 49.0723C101.123 49.0723 97.998 52.1973 97.998 58.5938L97.998 80.4688C97.998 86.9141 101.123 89.9902 107.324 89.9902ZM107.422 83.1055C105.713 83.1055 104.883 82.2266 104.883 80.4688L104.883 58.6426C104.883 56.8359 105.713 55.957 107.422 55.957L129.443 55.957C131.201 55.957 132.031 56.8359 132.031 58.6426L132.031 80.4688C132.031 82.2266 131.201 83.1055 129.443 83.1055Z" fill="#000000" fill-opacity="0.85"/>
  <path d="M58.3496 89.9902L80.5664 89.9902C86.7676 89.9902 89.8926 86.9141 89.8926 80.4688L89.8926 58.5938C89.8926 52.1973 86.7676 49.0723 80.5664 49.0723L58.3496 49.0723C52.0996 49.0723 48.9746 52.1973 48.9746 58.5938L48.9746 80.4688C48.9746 86.9141 52.0996 89.9902 58.3496 89.9902ZM58.4473 83.1055C56.6895 83.1055 55.8594 82.2266 55.8594 80.4688L55.8594 58.6426C55.8594 56.8359 56.6895 55.957 58.4473 55.957L80.4688 55.957C82.1777 55.957 83.0078 56.8359 83.0078 58.6426L83.0078 80.4688C83.0078 82.2266 82.1777 83.1055 80.4688 83.1055Z" fill="#000000" fill-opacity="0.85"/>
  <path d="M9.32617 89.9902L31.5918 89.9902C37.793 89.9902 40.918 86.9141 40.918 80.4688L40.918 58.5938C40.918 52.1973 37.793 49.0723 31.5918 49.0723L9.32617 49.0723C3.125 49.0723 0 52.1973 0 58.5938L0 80.4688C0 86.9141 3.125 89.9902 9.32617 89.9902ZM9.42383 83.1055C7.71484 83.1055 6.88477 82.2266 6.88477 80.4688L6.88477 58.6426C6.88477 56.8359 7.71484 55.957 9.42383 55.957L31.4453 55.957C33.1543 55.957 34.0332 56.8359 34.0332 58.6426L34.0332 80.4688C34.0332 82.2266 33.1543 83.1055 31.4453 83.1055Z" fill="#000000" fill-opacity="0.85"/>
  <path d="M107.324 41.0156L129.59 41.0156C135.791 41.0156 138.916 37.8906 138.916 31.4453L138.916 9.61914C138.916 3.17383 135.791 0.0976562 129.59 0.0976562L107.324 0.0976562C101.123 0.0976562 97.998 3.17383 97.998 9.61914L97.998 31.4453C97.998 37.8906 101.123 41.0156 107.324 41.0156ZM107.422 34.1309C105.713 34.1309 104.883 33.252 104.883 31.4453L104.883 9.61914C104.883 7.86133 105.713 6.98242 107.422 6.98242L129.443 6.98242C131.201 6.98242 132.031 7.86133 132.031 9.61914L132.031 31.4453C132.031 33.252 131.201 34.1309 129.443 34.1309Z" fill="#000000" fill-opacity="0.85"/>
  <path d="M58.3496 41.0156L80.5664 41.0156C86.7676 41.0156 89.8926 37.8906 89.8926 31.4453L89.8926 9.61914C89.8926 3.17383 86.7676 0.0976562 80.5664 0.0976562L58.3496 0.0976562C52.0996 0.0976562 48.9746 3.17383 48.9746 9.61914L48.9746 31.4453C48.9746 37.8906 52.0996 41.0156 58.3496 41.0156ZM58.4473 34.1309C56.6895 34.1309 55.8594 33.252 55.8594 31.4453L55.8594 9.61914C55.8594 7.86133 56.6895 6.98242 58.4473 6.98242L80.4688 6.98242C82.1777 6.98242 83.0078 7.86133 83.0078 9.61914L83.0078 31.4453C83.0078 33.252 82.1777 34.1309 80.4688 34.1309Z" fill="#000000" fill-opacity="0.85"/>
  <path d="M9.32617 41.0156L31.5918 41.0156C37.793 41.0156 40.918 37.8906 40.918 31.4453L40.918 9.61914C40.918 3.17383 37.793 0.0976562 31.5918 0.0976562L9.32617 0.0976562C3.125 0.0976562 0 3.17383 0 9.61914L0 31.4453C0 37.8906 3.125 41.0156 9.32617 41.0156ZM9.42383 34.1309C7.71484 34.1309 6.88477 33.252 6.88477 31.4453L6.88477 9.61914C6.88477 7.86133 7.71484 6.98242 9.42383 6.98242L31.4453 6.98242C33.1543 6.98242 34.0332 7.86133 34.0332 9.61914L34.0332 31.4453C34.0332 33.252 33.1543 34.1309 31.4453 34.1309Z" fill="#000000" fill-opacity="0.85"/>
 </g>
</svg>
