<?xml version="1.0" encoding="UTF-8"?>
<!--Generator: Apple Native CoreSVG 232.5-->
<!DOCTYPE svg
PUBLIC "-//W3C//DTD SVG 1.1//EN"
       "http://www.w3.org/Graphics/SVG/1.1/DTD/svg11.dtd">
<svg version="1.1" xmlns="http://www.w3.org/2000/svg" xmlns:xlink="http://www.w3.org/1999/xlink" width="89.8926" height="89.9902">
 <g>
  <rect height="89.9902" opacity="0" width="89.8926" x="0" y="0"/>
  <path d="M5.27344 41.1133L5.27344 48.9746L84.7656 48.9746L84.7656 41.1133ZM0 15.3809L0 74.6582C0 84.8633 5.07812 89.9902 15.1367 89.9902L74.7559 89.9902C84.8145 89.9902 89.8926 84.8633 89.8926 74.6582L89.8926 15.3809C89.8926 5.22461 84.8633 0.0976562 74.7559 0.0976562L15.1367 0.0976562C5.0293 0.0976562 0 5.22461 0 15.3809ZM7.86133 15.5273C7.86133 10.6445 10.4492 7.95898 15.5273 7.95898L74.3652 7.95898C79.4434 7.95898 82.0312 10.6445 82.0312 15.5273L82.0312 74.5117C82.0312 79.3457 79.4434 82.1289 74.3652 82.1289L15.5273 82.1289C10.4492 82.1289 7.86133 79.3457 7.86133 74.5117Z" fill="#000000" fill-opacity="0.85"/>
 </g>
</svg>
