<?xml version="1.0" encoding="UTF-8"?>
<!--Generator: Apple Native CoreSVG 232.5-->
<!DOCTYPE svg
PUBLIC "-//W3C//DTD SVG 1.1//EN"
       "http://www.w3.org/Graphics/SVG/1.1/DTD/svg11.dtd">
<svg version="1.1" xmlns="http://www.w3.org/2000/svg" xmlns:xlink="http://www.w3.org/1999/xlink" width="103.564" height="103.662">
 <g>
  <rect height="103.662" opacity="0" width="103.564" x="0" y="0"/>
  <path d="M80.957 92.334C80.957 93.7269 81.2068 95.0616 81.6769 96.2891L21.8881 96.2891C22.3576 95.0616 22.6074 93.7269 22.6074 92.334C22.6074 90.9594 22.3641 89.6415 21.9058 88.4277L81.6592 88.4277C81.2003 89.6415 80.957 90.9594 80.957 92.334ZM11.3281 22.7051C12.705 22.7051 14.0227 22.4586 15.2344 21.9951L15.2344 81.7158C14.0227 81.2523 12.705 81.0059 11.3281 81.0059C9.93168 81.0059 8.59764 81.2555 7.37305 81.7243L7.37305 21.9866C8.59764 22.4555 9.93168 22.7051 11.3281 22.7051ZM92.2852 22.7051C93.6621 22.7051 94.9797 22.4586 96.1914 21.9951L96.1914 81.7158C94.9797 81.2523 93.6621 81.0059 92.2852 81.0059C90.8887 81.0059 89.5547 81.2555 88.3301 81.7243L88.3301 21.9866C89.5547 22.4555 90.8887 22.7051 92.2852 22.7051ZM80.957 11.377C80.957 12.7699 81.2068 14.1046 81.6769 15.332L21.8881 15.332C22.3576 14.1046 22.6074 12.7699 22.6074 11.377C22.6074 10.0024 22.3641 8.68444 21.9058 7.4707L81.6592 7.4707C81.2003 8.68444 80.957 10.0024 80.957 11.377Z" fill="#000000" fill-opacity="0.85"/>
  <path d="M103.564 92.334C103.564 98.584 98.5352 103.662 92.2852 103.662C85.9863 103.662 80.957 98.584 80.957 92.334C80.957 86.084 85.9863 81.0059 92.2852 81.0059C98.5352 81.0059 103.564 86.084 103.564 92.334ZM22.6074 92.334C22.6074 98.584 17.5781 103.662 11.3281 103.662C5.0293 103.662 0 98.584 0 92.334C0 86.084 5.0293 81.0059 11.3281 81.0059C17.5781 81.0059 22.6074 86.084 22.6074 92.334ZM22.6074 11.377C22.6074 17.627 17.5781 22.7051 11.3281 22.7051C5.0293 22.7051 0 17.627 0 11.377C0 5.12695 5.0293 0.0488281 11.3281 0.0488281C17.5781 0.0488281 22.6074 5.12695 22.6074 11.377ZM103.564 11.377C103.564 17.627 98.5352 22.7051 92.2852 22.7051C85.9863 22.7051 80.957 17.627 80.957 11.377C80.957 5.12695 85.9863 0.0488281 92.2852 0.0488281C98.5352 0.0488281 103.564 5.12695 103.564 11.377Z" fill="#000000" fill-opacity="0.85"/>
  <path d="M67.1387 31.2988L67.1387 37.0117L60.7422 37.0117L60.7422 33.252C60.7422 32.2266 60.1074 31.5918 58.9355 31.5918L33.0566 31.5918C31.9824 31.5918 31.3965 32.2266 31.3965 33.252L31.3965 58.6914C31.3965 59.7656 31.9824 60.3516 33.0566 60.3516L36.7188 60.3516L36.7188 66.748L31.1035 66.748C27.2461 66.748 25 64.502 25 60.6445L25 31.2988C25 27.4414 27.2461 25.1953 31.1035 25.1953L60.8887 25.1953C64.8438 25.1953 67.1387 27.4414 67.1387 31.2988Z" fill="#000000" fill-opacity="0.85"/>
  <path d="M42.8223 78.5156L72.7539 78.5156C76.6113 78.5156 78.8574 76.3184 78.8574 72.4121L78.8574 43.0664C78.8574 39.209 76.5625 37.0117 72.6074 37.0117L42.8223 37.0117C38.9648 37.0117 36.7188 39.209 36.7188 43.0664L36.7188 72.4121C36.7188 76.3184 38.9648 78.5156 42.8223 78.5156ZM44.7754 72.1191C43.7012 72.1191 43.1152 71.5332 43.1152 70.5078L43.1152 45.0195C43.1152 43.9941 43.7012 43.4082 44.7754 43.4082L70.6543 43.4082C71.8262 43.4082 72.4609 43.9941 72.4609 45.0195L72.4609 70.5078C72.4609 71.5332 71.875 72.1191 70.8008 72.1191Z" fill="#000000" fill-opacity="0.85"/>
 </g>
</svg>
