<?xml version="1.0" encoding="UTF-8"?>
<!--Generator: Apple Native CoreSVG 232.5-->
<!DOCTYPE svg
PUBLIC "-//W3C//DTD SVG 1.1//EN"
       "http://www.w3.org/Graphics/SVG/1.1/DTD/svg11.dtd">
<svg version="1.1" xmlns="http://www.w3.org/2000/svg" xmlns:xlink="http://www.w3.org/1999/xlink" width="116.65" height="115.674">
 <g>
  <rect height="115.674" opacity="0" width="116.65" x="0" y="0"/>
  <path d="M86.3281 21.875L86.3281 22.7051L45.6543 22.7051C31.7871 22.7051 23.6816 30.6641 23.6816 44.4824L23.6816 86.4258L21.9727 86.4258C11.7676 86.4258 6.64062 81.3477 6.64062 71.2891L6.64062 21.875C6.64062 11.8164 11.7676 6.73828 21.9727 6.73828L70.9961 6.73828C81.1523 6.73828 86.3281 11.8164 86.3281 21.875Z" fill="#000000" fill-opacity="0.85"/>
  <path d="M45.6543 109.033L94.6777 109.033C104.834 109.033 110.01 103.955 110.01 93.8965L110.01 44.4824C110.01 34.4238 104.834 29.3457 94.6777 29.3457L45.6543 29.3457C35.4492 29.3457 30.3223 34.375 30.3223 44.4824L30.3223 93.8965C30.3223 103.955 35.4492 109.033 45.6543 109.033Z" fill="#000000" fill-opacity="0.85"/>
 </g>
</svg>
