<?xml version="1.0" encoding="UTF-8"?>
<!--Generator: Apple Native CoreSVG 232.5-->
<!DOCTYPE svg
PUBLIC "-//W3C//DTD SVG 1.1//EN"
       "http://www.w3.org/Graphics/SVG/1.1/DTD/svg11.dtd">
<svg version="1.1" xmlns="http://www.w3.org/2000/svg" xmlns:xlink="http://www.w3.org/1999/xlink" width="96.3379" height="111.395">
 <g>
  <rect height="111.395" opacity="0" width="96.3379" x="0" y="0"/>
  <path d="M56.1035 7.1867L56.1035 17.4093L48.1445 21.9999L48.1445 9.87225C48.1445 9.38397 47.8027 9.13983 47.3145 9.4328L10.1074 30.9172C8.54492 31.8449 7.95898 32.5285 7.95898 34.6281L7.95898 77.4015C7.95898 77.8898 8.25195 78.0363 8.69141 77.7922L19.4824 71.5715L19.4824 81.0047L11.7676 85.4582C4.93164 89.4133 0 86.7765 0 78.5734L0 34.3351C0 29.257 1.66016 26.3762 6.00586 23.8371L45.1172 1.22967C49.9512-1.5047 56.1035 0.253108 56.1035 7.1867Z" fill="#000000" fill-opacity="0.85"/>
  <path d="M75.5859 18.4172L75.5859 30.3608L67.627 34.9613L67.627 21.1027C67.627 20.6633 67.2852 20.3703 66.7969 20.6633L29.5898 42.1476C28.0273 43.0754 27.4414 43.759 27.4414 45.8586L27.4414 88.632C27.4414 89.1203 27.7344 89.2668 28.1738 89.0226L40.2344 82.0701L40.2344 91.5396L31.25 96.7375C24.3652 100.644 19.4824 98.007 19.4824 89.8527L19.4824 45.5656C19.4824 40.5363 21.0938 37.6555 25.4883 35.0676L64.5996 12.509C69.4336 9.72576 75.5859 11.5324 75.5859 18.4172Z" fill="#000000" fill-opacity="0.85"/>
  <path d="M40.2344 57.7726L40.2344 102.06C40.2344 110.214 45.166 112.9 52.002 108.945L90.2344 86.8254C95.0195 84.091 96.3379 81.3078 96.3379 76.132L96.3379 30.6242C96.3379 23.7394 90.1855 21.9816 85.3516 24.716L46.2402 47.3234C41.8945 49.8625 40.2344 52.7433 40.2344 57.7726ZM50.3418 54.3547L87.5488 32.8703C88.0371 32.6262 88.3789 32.8703 88.3789 33.3097L88.3789 75.9855C88.3789 77.9387 87.9883 78.7199 86.3281 79.6965L48.9258 101.278C48.4863 101.523 48.1934 101.327 48.1934 100.839L48.1934 58.0656C48.1934 55.966 48.7793 55.2824 50.3418 54.3547Z" fill="#000000" fill-opacity="0.85"/>
 </g>
</svg>
