<?xml version="1.0" encoding="UTF-8"?>
<!--Generator: Apple Native CoreSVG 232.5-->
<!DOCTYPE svg
PUBLIC "-//W3C//DTD SVG 1.1//EN"
       "http://www.w3.org/Graphics/SVG/1.1/DTD/svg11.dtd">
<svg version="1.1" xmlns="http://www.w3.org/2000/svg" xmlns:xlink="http://www.w3.org/1999/xlink" width="104.297" height="74.9512">
 <g>
  <rect height="74.9512" opacity="0" width="104.297" x="0" y="0"/>
  <path d="M91.9922 74.9512L100.049 74.9512C103.174 74.9512 104.297 73.8281 104.297 70.7031L104.297 62.6465C104.297 59.5215 103.174 58.3984 100.049 58.3984L91.9922 58.3984C88.8672 58.3984 87.7441 59.5215 87.7441 62.6465L87.7441 70.7031C87.7441 73.8281 88.8672 74.9512 91.9922 74.9512Z" fill="#000000" fill-opacity="0.85"/>
  <path d="M62.793 74.9512L70.8984 74.9512C73.9746 74.9512 75.0977 73.8281 75.0977 70.7031L75.0977 62.6465C75.0977 59.5215 73.9746 58.3984 70.8984 58.3984L62.793 58.3984C59.7168 58.3984 58.5938 59.5215 58.5938 62.6465L58.5938 70.7031C58.5938 73.8281 59.7168 74.9512 62.793 74.9512Z" fill="#000000" fill-opacity="0.85"/>
  <path d="M33.6426 74.9512L41.748 74.9512C44.8242 74.9512 45.9473 73.8281 45.9473 70.7031L45.9473 62.6465C45.9473 59.5215 44.8242 58.3984 41.748 58.3984L33.6426 58.3984C30.5176 58.3984 29.3945 59.5215 29.3945 62.6465L29.3945 70.7031C29.3945 73.8281 30.5176 74.9512 33.6426 74.9512Z" fill="#000000" fill-opacity="0.85"/>
  <path d="M4.44336 74.9512L12.5488 74.9512C15.6738 74.9512 16.7969 73.8281 16.7969 70.7031L16.7969 62.6465C16.7969 59.5215 15.6738 58.3984 12.5488 58.3984L4.44336 58.3984C1.36719 58.3984 0.244141 59.5215 0.244141 62.6465L0.244141 70.7031C0.244141 73.8281 1.36719 74.9512 4.44336 74.9512Z" fill="#000000" fill-opacity="0.85"/>
  <path d="M91.9922 45.752L100.049 45.752C103.174 45.752 104.297 44.6289 104.297 41.5527L104.297 33.4473C104.297 30.3711 103.174 29.248 100.049 29.248L91.9922 29.248C88.8672 29.248 87.7441 30.3711 87.7441 33.4473L87.7441 41.5527C87.7441 44.6289 88.8672 45.752 91.9922 45.752Z" fill="#000000" fill-opacity="0.85"/>
  <path d="M62.793 45.752L70.8984 45.752C73.9746 45.752 75.0977 44.6289 75.0977 41.5527L75.0977 33.4473C75.0977 30.3711 73.9746 29.248 70.8984 29.248L62.793 29.248C59.7168 29.248 58.5938 30.3711 58.5938 33.4473L58.5938 41.5527C58.5938 44.6289 59.7168 45.752 62.793 45.752Z" fill="#000000" fill-opacity="0.85"/>
  <path d="M33.6426 45.752L41.748 45.752C44.8242 45.752 45.9473 44.6289 45.9473 41.5527L45.9473 33.4473C45.9473 30.3711 44.8242 29.248 41.748 29.248L33.6426 29.248C30.5176 29.248 29.3945 30.3711 29.3945 33.4473L29.3945 41.5527C29.3945 44.6289 30.5176 45.752 33.6426 45.752Z" fill="#000000" fill-opacity="0.85"/>
  <path d="M4.44336 45.752L12.5488 45.752C15.6738 45.752 16.7969 44.6289 16.7969 41.5527L16.7969 33.4473C16.7969 30.3711 15.6738 29.248 12.5488 29.248L4.44336 29.248C1.36719 29.248 0.244141 30.3711 0.244141 33.4473L0.244141 41.5527C0.244141 44.6289 1.36719 45.752 4.44336 45.752Z" fill="#000000" fill-opacity="0.85"/>
  <path d="M91.6992 16.6016L99.8047 16.6016C102.93 16.6016 104.053 15.4785 104.053 12.4023L104.053 4.29688C104.053 1.17188 102.93 0.0488281 99.8047 0.0488281L91.6992 0.0488281C88.623 0.0488281 87.5 1.17188 87.5 4.29688L87.5 12.4023C87.5 15.4785 88.623 16.6016 91.6992 16.6016Z" fill="#000000" fill-opacity="0.85"/>
  <path d="M62.5488 16.6016L70.6543 16.6016C73.7305 16.6016 74.8535 15.4785 74.8535 12.4023L74.8535 4.29688C74.8535 1.17188 73.7305 0.0488281 70.6543 0.0488281L62.5488 0.0488281C59.4727 0.0488281 58.3496 1.17188 58.3496 4.29688L58.3496 12.4023C58.3496 15.4785 59.4727 16.6016 62.5488 16.6016Z" fill="#000000" fill-opacity="0.85"/>
  <path d="M33.3984 16.6016L41.5039 16.6016C44.5801 16.6016 45.7031 15.4785 45.7031 12.4023L45.7031 4.29688C45.7031 1.17188 44.5801 0.0488281 41.5039 0.0488281L33.3984 0.0488281C30.2734 0.0488281 29.1504 1.17188 29.1504 4.29688L29.1504 12.4023C29.1504 15.4785 30.2734 16.6016 33.3984 16.6016Z" fill="#000000" fill-opacity="0.85"/>
  <path d="M4.19922 16.6016L12.3047 16.6016C15.4297 16.6016 16.5527 15.4785 16.5527 12.4023L16.5527 4.29688C16.5527 1.17188 15.4297 0.0488281 12.3047 0.0488281L4.19922 0.0488281C1.12305 0.0488281 0 1.17188 0 4.29688L0 12.4023C0 15.4785 1.12305 16.6016 4.19922 16.6016Z" fill="#000000" fill-opacity="0.85"/>
 </g>
</svg>
