<?xml version="1.0" encoding="UTF-8"?>
<!--Generator: Apple Native CoreSVG 232.5-->
<!DOCTYPE svg
PUBLIC "-//W3C//DTD SVG 1.1//EN"
       "http://www.w3.org/Graphics/SVG/1.1/DTD/svg11.dtd">
<svg version="1.1" xmlns="http://www.w3.org/2000/svg" xmlns:xlink="http://www.w3.org/1999/xlink" width="99.6094" height="99.6582">
 <g>
  <rect height="99.6582" opacity="0" width="99.6094" x="0" y="0"/>
  <path d="M49.8047 99.6094C77.0508 99.6094 99.6094 77.002 99.6094 49.8047C99.6094 22.5586 77.002 0 49.7559 0C22.5586 0 0 22.5586 0 49.8047C0 77.002 22.6074 99.6094 49.8047 99.6094ZM49.8047 91.3086C26.7578 91.3086 8.34961 72.8516 8.34961 49.8047C8.34961 26.7578 26.709 8.30078 49.7559 8.30078C72.8027 8.30078 91.3086 26.7578 91.3086 49.8047C91.3086 72.8516 72.8516 91.3086 49.8047 91.3086Z" fill="#000000" fill-opacity="0.85"/>
  <path d="M31.6895 74.3652L67.9199 74.3652C72.3633 74.3652 74.3652 71.9727 74.3652 67.041L74.3652 31.5918C74.3652 27.2461 72.3633 25.2441 67.9199 25.2441L31.6895 25.2441C27.832 25.2441 25.2441 27.832 25.2441 31.5918L25.2441 67.041C25.2441 71.3867 27.832 74.3652 31.6895 74.3652ZM34.7168 67.2363C33.3496 67.2363 32.373 66.2598 32.373 64.8438L32.373 34.7656C32.373 33.3496 33.3496 32.373 34.7168 32.373L64.8926 32.373C66.2598 32.373 67.2363 33.3496 67.2363 34.7656L67.2363 64.8438C67.2363 66.2598 66.2598 67.2363 64.8926 67.2363Z" fill="#000000" fill-opacity="0.85"/>
 </g>
</svg>
