<?xml version="1.0" encoding="UTF-8"?>
<!--Generator: Apple Native CoreSVG 232.5-->
<!DOCTYPE svg
PUBLIC "-//W3C//DTD SVG 1.1//EN"
       "http://www.w3.org/Graphics/SVG/1.1/DTD/svg11.dtd">
<svg version="1.1" xmlns="http://www.w3.org/2000/svg" xmlns:xlink="http://www.w3.org/1999/xlink" width="90.1367" height="90.4785">
 <g>
  <rect height="90.4785" opacity="0" width="90.1367" x="0" y="0"/>
  <path d="M17.7246 8.39844C20.0195 8.39844 21.9238 6.49414 21.9238 4.19922C21.9238 1.9043 20.0195 0 17.7246 0C15.4297 0 13.5254 1.9043 13.5254 4.19922C13.5254 6.49414 15.4297 8.39844 17.7246 8.39844ZM31.3477 8.39844C33.6426 8.39844 35.5469 6.49414 35.5469 4.19922C35.5469 1.9043 33.6426 0 31.3477 0C29.0527 0 27.1484 1.9043 27.1484 4.19922C27.1484 6.49414 29.0527 8.39844 31.3477 8.39844ZM45.0195 8.39844C47.3145 8.39844 49.2188 6.49414 49.2188 4.19922C49.2188 1.9043 47.3145 0 45.0195 0C42.7246 0 40.8203 1.9043 40.8203 4.19922C40.8203 6.49414 42.7246 8.39844 45.0195 8.39844ZM58.6426 8.39844C60.9375 8.39844 62.8418 6.49414 62.8418 4.19922C62.8418 1.9043 60.9375 0 58.6426 0C56.3477 0 54.4434 1.9043 54.4434 4.19922C54.4434 6.49414 56.3477 8.39844 58.6426 8.39844ZM72.3145 8.39844C74.6094 8.39844 76.5137 6.49414 76.5137 4.19922C76.5137 1.9043 74.6094 0 72.3145 0C70.0195 0 68.1152 1.9043 68.1152 4.19922C68.1152 6.49414 70.0195 8.39844 72.3145 8.39844ZM85.9375 8.39844C88.2324 8.39844 90.1367 6.49414 90.1367 4.19922C90.1367 1.9043 88.2324 0 85.9375 0C83.6426 0 81.7383 1.9043 81.7383 4.19922C81.7383 6.49414 83.6426 8.39844 85.9375 8.39844ZM85.9375 22.0215C88.2324 22.0215 90.1367 20.1172 90.1367 17.8223C90.1367 15.5273 88.2324 13.623 85.9375 13.623C83.6426 13.623 81.7383 15.5273 81.7383 17.8223C81.7383 20.1172 83.6426 22.0215 85.9375 22.0215ZM85.9375 35.6934C88.2324 35.6934 90.1367 33.7891 90.1367 31.4941C90.1367 29.1992 88.2324 27.2949 85.9375 27.2949C83.6426 27.2949 81.7383 29.1992 81.7383 31.4941C81.7383 33.7891 83.6426 35.6934 85.9375 35.6934ZM85.9375 49.3164C88.2324 49.3164 90.1367 47.4121 90.1367 45.1172C90.1367 42.8223 88.2324 40.918 85.9375 40.918C83.6426 40.918 81.7383 42.8223 81.7383 45.1172C81.7383 47.4121 83.6426 49.3164 85.9375 49.3164ZM85.9375 62.9883C88.2324 62.9883 90.1367 61.084 90.1367 58.7891C90.1367 56.4941 88.2324 54.5898 85.9375 54.5898C83.6426 54.5898 81.7383 56.4941 81.7383 58.7891C81.7383 61.084 83.6426 62.9883 85.9375 62.9883ZM85.9375 76.6113C88.2324 76.6113 90.1367 74.707 90.1367 72.4121C90.1367 70.1172 88.2324 68.2129 85.9375 68.2129C83.6426 68.2129 81.7383 70.1172 81.7383 72.4121C81.7383 74.707 83.6426 76.6113 85.9375 76.6113ZM3.90625 90.2344L86.2305 90.2344C88.4277 90.2344 90.1367 88.5254 90.1367 86.3281C90.1367 84.1309 88.4277 82.4219 86.2305 82.4219L9.22852 82.4219C8.20312 82.4219 7.8125 82.0312 7.8125 81.0059L7.8125 3.85742C7.8125 1.70898 6.10352 0 3.85742 0C1.70898 0 0 1.70898 0 3.85742L0 86.3281C0 88.6719 1.5625 90.2344 3.90625 90.2344Z" fill="#000000" fill-opacity="0.85"/>
  <path d="M18.4082 68.3105C17.9199 70.4102 19.6289 71.9727 21.7285 71.5332L37.4512 68.2129C39.6973 67.7734 40.5273 65.5273 39.0137 64.0137L34.5703 59.5703L59.7168 34.7656L64.0625 39.209C65.625 40.7227 67.9688 39.8926 68.4082 37.6465L71.7773 21.875C72.2656 19.8242 70.5078 18.2129 68.4082 18.6523L52.7344 21.9727C50.4395 22.4121 49.6582 24.6582 51.1719 26.1719L55.6152 30.6152L30.4199 55.4199L26.123 50.9766C24.5605 49.4629 22.2168 50.3418 21.7773 52.5391Z" fill="#000000" fill-opacity="0.85"/>
 </g>
</svg>
