<?xml version="1.0" encoding="UTF-8"?>
<!--Generator: Apple Native CoreSVG 232.5-->
<!DOCTYPE svg
PUBLIC "-//W3C//DTD SVG 1.1//EN"
       "http://www.w3.org/Graphics/SVG/1.1/DTD/svg11.dtd">
<svg version="1.1" xmlns="http://www.w3.org/2000/svg" xmlns:xlink="http://www.w3.org/1999/xlink" width="113.135" height="113.037">
 <g>
  <rect height="113.037" opacity="0" width="113.135" x="0" y="0"/>
  <path d="M47.0215 72.3145C50.6836 74.4629 53.7109 75.1953 56.543 75.1953C59.4238 75.1953 62.4512 74.4629 66.1133 72.3145L84.7903 61.4851L100.977 70.8496C104.932 73.1934 106.445 74.9512 106.445 77.6367C106.445 80.3223 104.932 82.0801 100.977 84.375L62.793 106.592C60.4004 107.959 58.5449 108.594 56.543 108.594C54.5898 108.594 52.6855 107.959 50.3418 106.592L12.1582 84.375C8.20312 82.0801 6.68945 80.3223 6.68945 77.6367C6.68945 74.9512 8.20312 73.1934 12.1582 70.8496L28.3171 61.4831Z" fill="#000000" fill-opacity="0.85"/>
  <path d="M56.543 68.5547C58.5449 68.5547 60.4004 67.9199 62.793 66.5527L100.977 44.3848C104.932 42.041 106.445 40.2832 106.445 37.5977C106.445 34.9121 104.932 33.1543 100.977 30.8594L62.793 8.64258C60.4004 7.27539 58.5449 6.64062 56.543 6.64062C54.5898 6.64062 52.6855 7.27539 50.3418 8.64258L12.1582 30.8594C8.20312 33.1543 6.68945 34.9121 6.68945 37.5977C6.68945 40.2832 8.20312 42.041 12.1582 44.3848L50.3418 66.5527C52.6855 67.9199 54.5898 68.5547 56.543 68.5547Z" fill="#000000" fill-opacity="0.85"/>
 </g>
</svg>
