<?xml version="1.0" encoding="UTF-8"?>
<!--Generator: Apple Native CoreSVG 232.5-->
<!DOCTYPE svg
PUBLIC "-//W3C//DTD SVG 1.1//EN"
       "http://www.w3.org/Graphics/SVG/1.1/DTD/svg11.dtd">
<svg version="1.1" xmlns="http://www.w3.org/2000/svg" xmlns:xlink="http://www.w3.org/1999/xlink" width="115.137" height="89.8926">
 <g>
  <rect height="89.8926" opacity="0" width="115.137" x="0" y="0"/>
  <path d="M15.332 89.8926L99.8047 89.8926C110.059 89.8926 115.137 84.8633 115.137 74.8047L115.137 15.1367C115.137 5.07812 110.059 0 99.8047 0L15.332 0C5.12695 0 0 5.07812 0 15.1367L0 74.8047C0 84.8633 5.12695 89.8926 15.332 89.8926ZM15.4297 82.0312C10.5469 82.0312 7.86133 79.4434 7.86133 74.3652L7.86133 15.5762C7.86133 10.498 10.5469 7.86133 15.4297 7.86133L99.707 7.86133C104.541 7.86133 107.275 10.498 107.275 15.5762L107.275 74.3652C107.275 79.4434 104.541 82.0312 99.707 82.0312Z" fill="#000000" fill-opacity="0.85"/>
  <path d="M21.875 65.4785L48.877 65.4785C53.5645 65.4785 55.8594 63.1836 55.8594 58.6426L55.8594 31.3477C55.8594 26.8066 53.5645 24.5117 48.877 24.5117L21.875 24.5117C17.2363 24.5117 14.8926 26.7578 14.8926 31.3477L14.8926 58.6426C14.8926 63.1836 17.2363 65.4785 21.875 65.4785ZM23.3398 59.082C21.9727 59.082 21.2891 58.4473 21.2891 57.1777L21.2891 32.8125C21.2891 31.4941 21.9727 30.9082 23.3398 30.9082L47.4121 30.9082C48.7793 30.9082 49.4629 31.543 49.4629 32.8125L49.4629 57.1777C49.4629 58.4473 48.7793 59.082 47.4121 59.082ZM81.6406 64.9414C84.8145 64.9414 87.793 64.6484 89.6973 63.8672C91.0156 63.3301 91.8457 62.5 91.8457 61.2305C91.8457 60.0098 90.918 59.0332 89.6973 59.0332C89.1602 59.0332 88.7695 59.1797 88.1348 59.2773C86.6699 59.4727 85.2051 60.0586 82.1777 60.0586C72.7051 60.0586 66.8457 54.3457 66.8457 45.0684C66.8457 35.9375 72.8027 29.6875 81.4941 29.6875C90.1367 29.6875 95.9473 35.1562 95.9473 43.2617C95.9473 48.0957 94.4824 51.123 92.1387 51.123C90.6738 51.123 90.1367 50.4883 90.1367 49.0723L90.1367 36.9629C90.1367 35.498 89.0625 34.375 87.6465 34.375C86.6211 34.375 85.5957 35.1562 85.3027 36.1328L85.3027 36.5234C84.1797 35.1562 82.5195 34.375 80.2246 34.375C75.0488 34.375 71.3867 38.8672 71.3867 45.0684C71.3867 51.4648 75.0488 55.8105 80.3711 55.8105C82.666 55.8105 84.7656 54.7852 86.1328 52.9297C87.207 54.7852 89.2578 55.8105 91.6992 55.8105C97.168 55.8105 100.781 50.7324 100.781 42.9688C100.781 32.3242 92.8711 24.9512 81.4941 24.9512C69.7266 24.9512 61.6699 33.1055 61.6699 45.0195C61.6699 56.9824 69.6777 64.9414 81.6406 64.9414ZM81.1035 50.8789C78.4668 50.8789 76.8066 48.6816 76.8066 44.9707C76.8066 41.3086 78.4668 39.1602 81.1523 39.1602C83.7891 39.1602 85.4492 41.3086 85.4492 44.8242C85.4492 48.584 83.7891 50.8789 81.1035 50.8789Z" fill="#000000" fill-opacity="0.85"/>
 </g>
</svg>
