<?xml version="1.0" encoding="UTF-8"?>
<!--Generator: Apple Native CoreSVG 232.5-->
<!DOCTYPE svg
PUBLIC "-//W3C//DTD SVG 1.1//EN"
       "http://www.w3.org/Graphics/SVG/1.1/DTD/svg11.dtd">
<svg version="1.1" xmlns="http://www.w3.org/2000/svg" xmlns:xlink="http://www.w3.org/1999/xlink" width="99.8047" height="110.596">
 <g>
  <rect height="110.596" opacity="0" width="99.8047" x="0" y="0"/>
  <path d="M94.2871 72.9004C98.2422 75.1953 99.8047 77.002 99.8047 79.6387C99.8047 82.3242 98.2422 84.1309 94.2871 86.4258L56.1035 108.594C53.7598 109.961 51.8555 110.596 49.9023 110.596C47.9004 110.596 46.0449 109.961 43.7012 108.594L5.46875 86.4258C1.51367 84.1309 0 82.3242 0 79.6387C0 77.002 1.51367 75.1953 5.46875 72.9004L13.2078 68.4131L21.2332 73.0767L10.5469 79.1992C10.3516 79.2969 10.2051 79.4434 10.2051 79.6387C10.2051 79.8828 10.3516 80.0293 10.5469 80.127L47.7051 101.416C48.5352 101.855 49.2188 102.1 49.9023 102.1C50.5859 102.1 51.2695 101.855 52.0508 101.416L89.209 80.127C89.4531 80.0293 89.5996 79.8828 89.5996 79.6387C89.5996 79.4434 89.4531 79.2969 89.209 79.1992L78.5328 73.0825L86.558 68.4131Z" fill="#000000" fill-opacity="0.85"/>
  <path d="M94.2871 50.3906C98.2422 52.7344 99.8047 54.4922 99.8047 57.1777C99.8047 59.8633 98.2422 61.6211 94.2871 63.916L56.1035 86.1328C53.7598 87.5 51.8555 88.1348 49.9023 88.1348C47.9004 88.1348 46.0449 87.5 43.7012 86.1328L5.46875 63.916C1.51367 61.6211 0 59.8633 0 57.1777C0 54.4922 1.51367 52.7344 5.46875 50.3906L14.5216 45.1416L22.5775 49.8126L10.5469 56.6895C10.3516 56.7871 10.2051 56.9336 10.2051 57.1777C10.2051 57.4219 10.3516 57.5195 10.5469 57.666L47.7051 78.9062C48.5352 79.3457 49.2188 79.5898 49.9023 79.5898C50.5859 79.5898 51.2695 79.3457 52.0508 78.9062L89.209 57.666C89.4531 57.5195 89.5996 57.4219 89.5996 57.1777C89.5996 56.9336 89.4531 56.7871 89.209 56.6895L77.1894 49.8189L85.2458 45.1416Z" fill="#000000" fill-opacity="0.85"/>
  <path d="M49.9023 64.0625C51.8555 64.0625 53.7598 63.4277 56.1035 62.0605L94.2871 39.8926C98.2422 37.5977 99.8047 35.791 99.8047 33.1055C99.8047 30.4688 98.2422 28.6621 94.2871 26.3672L56.1035 4.19922C53.7598 2.83203 51.8555 2.19727 49.9023 2.19727C47.9004 2.19727 46.0449 2.83203 43.7012 4.19922L5.46875 26.3672C1.51367 28.6621 0 30.4688 0 33.1055C0 35.791 1.51367 37.5977 5.46875 39.8926L43.7012 62.0605C46.0449 63.4277 47.9004 64.0625 49.9023 64.0625Z" fill="#000000" fill-opacity="0.85"/>
 </g>
</svg>
