<?xml version="1.0" encoding="UTF-8"?>
<!--Generator: Apple Native CoreSVG 232.5-->
<!DOCTYPE svg
PUBLIC "-//W3C//DTD SVG 1.1//EN"
       "http://www.w3.org/Graphics/SVG/1.1/DTD/svg11.dtd">
<svg version="1.1" xmlns="http://www.w3.org/2000/svg" xmlns:xlink="http://www.w3.org/1999/xlink" width="99.6094" height="99.6582">
 <g>
  <rect height="99.6582" opacity="0" width="99.6094" x="0" y="0"/>
  <path d="M99.6094 49.8535C99.6094 77.0996 77.0508 99.6582 49.8047 99.6582C22.6074 99.6582 0 77.0996 0 49.8535C0 22.6562 22.5586 0.0488281 49.7559 0.0488281C77.002 0.0488281 99.6094 22.6562 99.6094 49.8535ZM34.3262 27.6855C28.7598 27.6855 25.8301 30.6152 25.8301 36.1328L25.8301 65.4785C25.8301 70.9961 28.7598 73.877 34.3262 73.877L64.209 73.877C69.043 73.877 71.9727 70.9961 71.9727 65.4785L71.9727 39.2578L66.748 44.4824L66.748 65.1855C66.748 67.5293 65.625 68.6035 64.1602 68.6035L34.4238 68.6035C32.2266 68.6035 31.1035 67.5293 31.1035 65.1855L31.1035 36.377C31.1035 34.0332 32.2266 32.959 34.4238 32.959L55.4199 32.959L60.6934 27.6855ZM44.6289 50.9277L42.2852 55.7617C41.8457 56.7383 42.8711 57.7148 43.8477 57.3242L48.9258 55.2246L72.0703 32.0801L67.6758 27.832ZM72.0703 23.4375L69.873 25.5859L74.2188 29.8828L76.3184 27.5391C77.4414 26.416 77.3926 24.9512 76.416 23.9746L75.7812 23.3398C74.7559 22.3145 73.1445 22.3145 72.0703 23.4375Z" fill="#000000" fill-opacity="0.85"/>
 </g>
</svg>
