<?xml version="1.0" encoding="UTF-8"?>
<!--Generator: Apple Native CoreSVG 232.5-->
<!DOCTYPE svg
PUBLIC "-//W3C//DTD SVG 1.1//EN"
       "http://www.w3.org/Graphics/SVG/1.1/DTD/svg11.dtd">
<svg version="1.1" xmlns="http://www.w3.org/2000/svg" xmlns:xlink="http://www.w3.org/1999/xlink" width="96.3379" height="111.395">
 <g>
  <rect height="111.395" opacity="0" width="96.3379" x="0" y="0"/>
  <path d="M51.2207 1.22967L90.332 23.8371C94.6777 26.3762 96.3379 29.257 96.3379 34.3351L96.3379 78.5734C96.3379 86.7765 91.4551 89.4133 84.5703 85.4582L76.8555 81.0047L76.8555 71.5715L87.6465 77.7922C88.0859 78.0363 88.3789 77.8898 88.3789 77.4015L88.3789 34.6281C88.3789 32.5285 87.793 31.8449 86.2305 30.9172L49.0234 9.4328C48.5352 9.13983 48.1934 9.38397 48.1934 9.87225L48.1934 21.9999L40.2344 17.4093L40.2344 7.1867C40.2344 0.253108 46.3867-1.5047 51.2207 1.22967Z" fill="#000000" fill-opacity="0.85"/>
  <path d="M31.7383 12.509L70.8496 35.0676C75.2441 37.6555 76.8555 40.5363 76.8555 45.5656L76.8555 89.8527C76.8555 98.007 71.9727 100.644 65.0879 96.7375L56.1035 91.533L56.1035 82.0701L68.1641 89.0226C68.6035 89.2668 68.8965 89.1203 68.8965 88.632L68.8965 45.8586C68.8965 43.759 68.3105 43.0754 66.748 42.1476L29.541 20.6633C29.1016 20.3703 28.7109 20.6633 28.7109 21.1027L28.7109 34.9613L20.752 30.3608L20.752 18.4172C20.752 11.5324 26.9043 9.72576 31.7383 12.509Z" fill="#000000" fill-opacity="0.85"/>
  <path d="M56.1035 57.7726C56.1035 52.7433 54.4434 49.8625 50.0977 47.3234L10.9863 24.716C6.15234 21.9816 0 23.7394 0 30.6242L0 76.132C0 81.3078 1.31836 84.091 6.10352 86.8254L44.3359 108.945C51.2207 112.9 56.1035 110.214 56.1035 102.06ZM45.9961 54.3547C47.5586 55.2824 48.1445 55.966 48.1445 58.0656L48.1445 100.839C48.1445 101.327 47.8516 101.523 47.4121 101.278L10.0586 79.6965C8.39844 78.7199 7.95898 77.9387 7.95898 75.9855L7.95898 33.3097C7.95898 32.8703 8.30078 32.6262 8.78906 32.8703Z" fill="#000000" fill-opacity="0.85"/>
 </g>
</svg>
