<?xml version="1.0" encoding="UTF-8"?>
<!--Generator: Apple Native CoreSVG 232.5-->
<!DOCTYPE svg
PUBLIC "-//W3C//DTD SVG 1.1//EN"
       "http://www.w3.org/Graphics/SVG/1.1/DTD/svg11.dtd">
<svg version="1.1" xmlns="http://www.w3.org/2000/svg" xmlns:xlink="http://www.w3.org/1999/xlink" width="89.9414" height="90.2832">
 <g>
  <rect height="90.2832" opacity="0" width="89.9414" x="0" y="0"/>
  <path d="M4.19922 90.2832C6.49414 90.2832 8.39844 88.3789 8.39844 86.084C8.39844 83.7891 6.49414 81.8848 4.19922 81.8848C1.9043 81.8848 0 83.7891 0 86.084C0 88.3789 1.9043 90.2832 4.19922 90.2832ZM4.19922 76.6602C6.49414 76.6602 8.39844 74.7559 8.39844 72.4609C8.39844 70.1172 6.49414 68.2617 4.19922 68.2617C1.9043 68.2617 0 70.1172 0 72.4609C0 74.7559 1.9043 76.6602 4.19922 76.6602ZM4.19922 62.9883C6.49414 62.9883 8.39844 61.084 8.39844 58.7891C8.39844 56.4941 6.49414 54.5898 4.19922 54.5898C1.9043 54.5898 0 56.4941 0 58.7891C0 61.084 1.9043 62.9883 4.19922 62.9883ZM4.19922 49.3164C6.49414 49.3164 8.39844 47.4121 8.39844 45.1172C8.39844 42.8223 6.49414 40.918 4.19922 40.918C1.9043 40.918 0 42.8223 0 45.1172C0 47.4121 1.9043 49.3164 4.19922 49.3164ZM17.8711 49.3164C20.166 49.3164 22.0703 47.4121 22.0703 45.1172C22.0703 42.8223 20.166 40.918 17.8711 40.918C15.5762 40.918 13.6719 42.8223 13.6719 45.1172C13.6719 47.4121 15.5762 49.3164 17.8711 49.3164ZM31.4941 49.3164C33.7891 49.3164 35.6934 47.4121 35.6934 45.1172C35.6934 42.8223 33.7891 40.918 31.4941 40.918C29.1992 40.918 27.2949 42.8223 27.2949 45.1172C27.2949 47.4121 29.1992 49.3164 31.4941 49.3164ZM45.166 49.3164C47.4609 49.3164 49.3652 47.4121 49.3652 45.1172C49.3652 42.8223 47.4609 40.918 45.166 40.918C42.8711 40.918 40.9668 42.8223 40.9668 45.1172C40.9668 47.4121 42.8711 49.3164 45.166 49.3164ZM45.166 62.9883C47.4609 62.9883 49.3652 61.084 49.3652 58.7891C49.3652 56.4941 47.4609 54.5898 45.166 54.5898C42.8711 54.5898 40.9668 56.4941 40.9668 58.7891C40.9668 61.084 42.8711 62.9883 45.166 62.9883ZM45.166 76.6602C47.4609 76.6602 49.3652 74.7559 49.3652 72.4609C49.3652 70.1172 47.4609 68.2617 45.166 68.2617C42.8711 68.2617 40.9668 70.1172 40.9668 72.4609C40.9668 74.7559 42.8711 76.6602 45.166 76.6602ZM45.166 90.2832C47.4609 90.2832 49.3652 88.3789 49.3652 86.084C49.3652 83.7891 47.4609 81.8848 45.166 81.8848C42.8711 81.8848 40.9668 83.7891 40.9668 86.084C40.9668 88.3789 42.8711 90.2832 45.166 90.2832ZM31.4941 90.2832C33.7891 90.2832 35.6934 88.3789 35.6934 86.084C35.6934 83.7891 33.7891 81.8848 31.4941 81.8848C29.1992 81.8848 27.2949 83.7891 27.2949 86.084C27.2949 88.3789 29.1992 90.2832 31.4941 90.2832ZM17.8711 90.2832C20.166 90.2832 22.0703 88.3789 22.0703 86.084C22.0703 83.7891 20.166 81.8848 17.8711 81.8848C15.5762 81.8848 13.6719 83.7891 13.6719 86.084C13.6719 88.3789 15.5762 90.2832 17.8711 90.2832Z" fill="#000000" fill-opacity="0.85"/>
  <path d="M55.0293 90.1367L86.084 90.1367C88.4277 90.1367 89.9414 88.5742 89.9414 86.2305L89.9414 12.0605L82.0801 19.7754L82.0801 80.8594C82.0801 81.8848 81.7383 82.2754 80.6641 82.2754L55.0293 82.2754ZM0.0488281 35.2539L7.91016 35.2539L7.91016 9.52148C7.91016 8.44727 8.30078 8.10547 9.32617 8.10547L69.3848 8.10547L77.3438 0.244141L3.95508 0.244141C1.61133 0.244141 0.0488281 1.75781 0.0488281 4.10156Z" fill="#000000" fill-opacity="0.85"/>
  <path d="M87.5977 2.24609C86.4258 0.976562 84.5703 1.07422 83.4473 2.24609L65.7715 19.6289L61.4746 15.1855C59.9121 13.623 57.5684 14.502 57.1289 16.6992L53.7598 32.4707C53.2715 34.5215 55.0293 36.1816 57.0801 35.6934L72.8027 32.4219C75.0977 31.9336 75.8789 29.7363 74.3652 28.1738L69.9219 23.7305L87.5977 6.39648C88.7695 5.22461 88.7207 3.41797 87.5977 2.24609Z" fill="#000000" fill-opacity="0.85"/>
 </g>
</svg>
