<?xml version="1.0" encoding="UTF-8"?>
<!--Generator: Apple Native CoreSVG 232.5-->
<!DOCTYPE svg
PUBLIC "-//W3C//DTD SVG 1.1//EN"
       "http://www.w3.org/Graphics/SVG/1.1/DTD/svg11.dtd">
<svg version="1.1" xmlns="http://www.w3.org/2000/svg" xmlns:xlink="http://www.w3.org/1999/xlink" width="89.8926" height="89.9902">
 <g>
  <rect height="89.9902" opacity="0" width="89.8926" x="0" y="0"/>
  <path d="M4.15039 48.9746L41.0156 48.9746L41.0156 85.8398L48.877 85.8398L48.877 48.9746L85.7422 48.9746L85.7422 41.1133L48.877 41.1133L48.877 4.24805L41.0156 4.24805L41.0156 41.1133L4.15039 41.1133ZM0 86.0352C0 88.3789 1.5625 89.8926 3.90625 89.8926L86.0352 89.8926C88.3789 89.8926 89.8926 88.3789 89.8926 86.0352L89.8926 3.90625C89.8926 1.5625 88.3789 0 86.0352 0L3.90625 0C1.5625 0 0 1.5625 0 3.90625ZM7.86133 80.6152L7.86133 9.27734C7.86133 8.25195 8.25195 7.86133 9.27734 7.86133L80.6152 7.86133C81.6895 7.86133 82.0312 8.25195 82.0312 9.27734L82.0312 80.6152C82.0312 81.6895 81.6895 82.0312 80.6152 82.0312L9.27734 82.0312C8.25195 82.0312 7.86133 81.6895 7.86133 80.6152Z" fill="#000000" fill-opacity="0.85"/>
 </g>
</svg>
