<?xml version="1.0" encoding="UTF-8"?>
<!--Generator: Apple Native CoreSVG 232.5-->
<!DOCTYPE svg
PUBLIC "-//W3C//DTD SVG 1.1//EN"
       "http://www.w3.org/Graphics/SVG/1.1/DTD/svg11.dtd">
<svg version="1.1" xmlns="http://www.w3.org/2000/svg" xmlns:xlink="http://www.w3.org/1999/xlink" width="90.2832" height="90.2832">
 <g>
  <rect height="90.2832" opacity="0" width="90.2832" x="0" y="0"/>
  <path d="M4.19922 35.6934C6.49414 35.6934 8.39844 33.7891 8.39844 31.4941C8.39844 29.1992 6.49414 27.2949 4.19922 27.2949C1.9043 27.2949 0 29.1992 0 31.4941C0 33.7891 1.9043 35.6934 4.19922 35.6934ZM4.19922 22.0215C6.49414 22.0215 8.39844 20.1172 8.39844 17.8223C8.39844 15.5273 6.49414 13.623 4.19922 13.623C1.9043 13.623 0 15.5273 0 17.8223C0 20.1172 1.9043 22.0215 4.19922 22.0215ZM4.19922 8.39844C6.49414 8.39844 8.39844 6.49414 8.39844 4.19922C8.39844 1.9043 6.49414 0 4.19922 0C1.9043 0 0 1.9043 0 4.19922C0 6.49414 1.9043 8.39844 4.19922 8.39844ZM17.8711 8.39844C20.166 8.39844 22.0703 6.49414 22.0703 4.19922C22.0703 1.9043 20.166 0 17.8711 0C15.5762 0 13.6719 1.9043 13.6719 4.19922C13.6719 6.49414 15.5762 8.39844 17.8711 8.39844ZM31.4941 8.39844C33.7891 8.39844 35.6934 6.49414 35.6934 4.19922C35.6934 1.9043 33.7891 0 31.4941 0C29.1992 0 27.2949 1.9043 27.2949 4.19922C27.2949 6.49414 29.1992 8.39844 31.4941 8.39844ZM45.166 8.39844C47.4609 8.39844 49.3652 6.49414 49.3652 4.19922C49.3652 1.9043 47.4609 0 45.166 0C42.8711 0 40.9668 1.9043 40.9668 4.19922C40.9668 6.49414 42.8711 8.39844 45.166 8.39844ZM58.7891 8.39844C61.084 8.39844 62.9883 6.49414 62.9883 4.19922C62.9883 1.9043 61.084 0 58.7891 0C56.4941 0 54.5898 1.9043 54.5898 4.19922C54.5898 6.49414 56.4941 8.39844 58.7891 8.39844ZM72.4609 8.39844C74.7559 8.39844 76.6602 6.49414 76.6602 4.19922C76.6602 1.9043 74.7559 0 72.4609 0C70.166 0 68.2617 1.9043 68.2617 4.19922C68.2617 6.49414 70.166 8.39844 72.4609 8.39844ZM86.084 8.39844C88.3789 8.39844 90.2832 6.49414 90.2832 4.19922C90.2832 1.9043 88.3789 0 86.084 0C83.7891 0 81.8848 1.9043 81.8848 4.19922C81.8848 6.49414 83.7891 8.39844 86.084 8.39844ZM86.084 22.0215C88.3789 22.0215 90.2832 20.1172 90.2832 17.8223C90.2832 15.5273 88.3789 13.623 86.084 13.623C83.7891 13.623 81.8848 15.5273 81.8848 17.8223C81.8848 20.1172 83.7891 22.0215 86.084 22.0215ZM86.084 35.6934C88.3789 35.6934 90.2832 33.7891 90.2832 31.4941C90.2832 29.1992 88.3789 27.2949 86.084 27.2949C83.7891 27.2949 81.8848 29.1992 81.8848 31.4941C81.8848 33.7891 83.7891 35.6934 86.084 35.6934ZM86.084 49.3164C88.3789 49.3164 90.2832 47.4121 90.2832 45.1172C90.2832 42.8223 88.3789 40.918 86.084 40.918C83.7891 40.918 81.8848 42.8223 81.8848 45.1172C81.8848 47.4121 83.7891 49.3164 86.084 49.3164ZM86.084 62.9883C88.3789 62.9883 90.2832 61.084 90.2832 58.7891C90.2832 56.4941 88.3789 54.5898 86.084 54.5898C83.7891 54.5898 81.8848 56.4941 81.8848 58.7891C81.8848 61.084 83.7891 62.9883 86.084 62.9883ZM86.084 76.6113C88.3789 76.6113 90.2832 74.707 90.2832 72.4121C90.2832 70.1172 88.3789 68.2129 86.084 68.2129C83.7891 68.2129 81.8848 70.1172 81.8848 72.4121C81.8848 74.707 83.7891 76.6113 86.084 76.6113ZM86.084 90.2832C88.3789 90.2832 90.2832 88.3789 90.2832 86.084C90.2832 83.7891 88.3789 81.8848 86.084 81.8848C83.7891 81.8848 81.8848 83.7891 81.8848 86.084C81.8848 88.3789 83.7891 90.2832 86.084 90.2832ZM72.4609 90.2832C74.7559 90.2832 76.6602 88.3789 76.6602 86.084C76.6602 83.7891 74.7559 81.8848 72.4609 81.8848C70.166 81.8848 68.2617 83.7891 68.2617 86.084C68.2617 88.3789 70.166 90.2832 72.4609 90.2832ZM58.7891 90.2832C61.084 90.2832 62.9883 88.3789 62.9883 86.084C62.9883 83.7891 61.084 81.8848 58.7891 81.8848C56.4941 81.8848 54.5898 83.7891 54.5898 86.084C54.5898 88.3789 56.4941 90.2832 58.7891 90.2832Z" fill="#000000" fill-opacity="0.85"/>
  <path d="M3.90625 90.0879L45.459 90.0879C47.8027 90.0879 49.3164 88.5742 49.3164 86.2305L49.3164 52.6367L46.1914 55.7129C45.0684 56.8359 43.75 57.5684 42.334 57.959L42.334 81.6895C42.334 82.7637 41.9922 83.1055 40.918 83.1055L8.39844 83.1055C7.37305 83.1055 6.98242 82.7637 6.98242 81.6895L6.98242 49.2188C6.98242 48.1445 7.37305 47.8027 8.39844 47.8027L31.7383 47.8027C32.0312 46.2402 32.8125 44.7266 34.0332 43.5059L36.7676 40.8203L3.90625 40.8203C1.5625 40.8203 0 42.334 0 44.6777L0 86.2305C0 88.5742 1.5625 90.0879 3.90625 90.0879Z" fill="#000000" fill-opacity="0.85"/>
  <path d="M38.0371 51.6602C39.209 52.9297 41.0645 52.832 42.2363 51.6602L59.8633 34.3262L64.209 38.7695C65.7227 40.2832 68.0664 39.4043 68.5547 37.207L71.9238 21.4355C72.3633 19.3848 70.6055 17.7246 68.5547 18.2129L52.832 21.4844C50.5859 21.9727 49.7559 24.1699 51.3184 25.7324L55.7129 30.1758L38.0371 47.5098C36.9141 48.6816 36.9629 50.4883 38.0371 51.6602Z" fill="#000000" fill-opacity="0.85"/>
 </g>
</svg>
