<?xml version="1.0" encoding="UTF-8"?>
<!--Generator: Apple Native CoreSVG 232.5-->
<!DOCTYPE svg
PUBLIC "-//W3C//DTD SVG 1.1//EN"
       "http://www.w3.org/Graphics/SVG/1.1/DTD/svg11.dtd">
<svg version="1.1" xmlns="http://www.w3.org/2000/svg" xmlns:xlink="http://www.w3.org/1999/xlink" width="99.6094" height="99.6582">
 <g>
  <rect height="99.6582" opacity="0" width="99.6094" x="0" y="0"/>
  <path d="M49.8047 99.6094C77.0508 99.6094 99.6094 77.002 99.6094 49.8047C99.6094 22.5586 77.002 0 49.7559 0C22.5586 0 0 22.5586 0 49.8047C0 77.002 22.6074 99.6094 49.8047 99.6094ZM49.8047 91.3086C26.7578 91.3086 8.34961 72.8516 8.34961 49.8047C8.34961 26.7578 26.709 8.30078 49.7559 8.30078C72.8027 8.30078 91.3086 26.7578 91.3086 49.8047C91.3086 72.8516 72.8516 91.3086 49.8047 91.3086Z" fill="#000000" fill-opacity="0.85"/>
  <path d="M34.8633 73.0469L63.8184 73.0469C68.5059 73.0469 71.3379 70.2637 71.3379 64.8926L71.3379 39.4531L66.3086 44.5312L66.3086 64.6484C66.3086 66.8945 65.1855 67.9688 63.7695 67.9688L34.9121 67.9688C32.8125 67.9688 31.6895 66.8945 31.6895 64.6484L31.6895 36.6699C31.6895 34.4238 32.8125 33.3008 34.9121 33.3008L55.3711 33.3008L60.4492 28.2227L34.8633 28.2227C29.4434 28.2227 26.6113 31.1035 26.6113 36.4746L26.6113 64.8926C26.6113 70.2637 29.4434 73.0469 34.8633 73.0469ZM44.0918 56.9824L49.0234 54.9316L71.4355 32.5195L67.1875 28.3691L44.8242 50.7812L42.5781 55.4199C42.1387 56.3965 43.1641 57.3242 44.0918 56.9824ZM73.5352 30.4199L75.5859 28.125C76.6602 27.002 76.6113 25.5371 75.6836 24.5605L75.0488 24.0234C74.0723 22.998 72.5098 23.0957 71.4355 24.1211L69.3359 26.1719Z" fill="#000000" fill-opacity="0.85"/>
 </g>
</svg>
