<?xml version="1.0" encoding="UTF-8"?>
<!--Generator: Apple Native CoreSVG 232.5-->
<!DOCTYPE svg
PUBLIC "-//W3C//DTD SVG 1.1//EN"
       "http://www.w3.org/Graphics/SVG/1.1/DTD/svg11.dtd">
<svg version="1.1" xmlns="http://www.w3.org/2000/svg" xmlns:xlink="http://www.w3.org/1999/xlink" width="99.6094" height="99.6582">
 <g>
  <rect height="99.6582" opacity="0" width="99.6094" x="0" y="0"/>
  <path d="M99.6094 49.8047C99.6094 77.002 77.0508 99.6094 49.8047 99.6094C22.6074 99.6094 0 77.002 0 49.8047C0 22.5586 22.5586 0 49.7559 0C77.002 0 99.6094 22.5586 99.6094 49.8047ZM46.8262 22.0215L41.3574 39.1602L23.4375 39.0137C19.7266 38.9648 18.7988 42.8711 21.5332 44.873L36.1328 55.2734L30.4688 72.3145C29.2969 75.7812 32.4219 78.0762 35.3516 75.8301L49.8047 65.2832L64.2578 75.8301C67.2363 78.0762 70.3125 75.7812 69.1895 72.3145L63.4766 55.2734L78.0762 44.8242C80.7617 42.9199 79.9316 38.9648 76.1719 39.0137L58.252 39.1602L52.7832 22.0215C51.709 18.6523 47.9004 18.6523 46.8262 22.0215Z" fill="#000000" fill-opacity="0.85"/>
 </g>
</svg>
