<?xml version="1.0" encoding="UTF-8"?>
<!--Generator: Apple Native CoreSVG 232.5-->
<!DOCTYPE svg
PUBLIC "-//W3C//DTD SVG 1.1//EN"
       "http://www.w3.org/Graphics/SVG/1.1/DTD/svg11.dtd">
<svg version="1.1" xmlns="http://www.w3.org/2000/svg" xmlns:xlink="http://www.w3.org/1999/xlink" width="99.6094" height="99.6582">
 <g>
  <rect height="99.6582" opacity="0" width="99.6094" x="0" y="0"/>
  <path d="M49.8047 99.6094C77.0508 99.6094 99.6094 77.002 99.6094 49.8047C99.6094 22.5586 77.002 0 49.7559 0C22.5586 0 0 22.5586 0 49.8047C0 77.002 22.6074 99.6094 49.8047 99.6094ZM49.8047 91.3086C26.7578 91.3086 8.34961 72.8516 8.34961 49.8047C8.34961 26.7578 26.709 8.30078 49.7559 8.30078C72.8027 8.30078 91.3086 26.7578 91.3086 49.8047C91.3086 72.8516 72.8516 91.3086 49.8047 91.3086Z" fill="#000000" fill-opacity="0.85"/>
  <path d="M35.7422 75L49.7559 64.6973L63.7695 75C66.6504 77.1484 69.6289 74.9023 68.5547 71.582L62.9883 55.0293L77.1484 44.9219C79.7363 43.0176 78.9551 39.209 75.3418 39.2578L57.959 39.4043L52.6367 22.7539C51.6113 19.5312 47.9004 19.5312 46.875 22.7539L41.5527 39.4043L24.1699 39.2578C20.6055 39.209 19.7266 42.9688 22.3633 44.9219L36.5234 55.0293L31.0059 71.582C29.8828 74.9023 32.9102 77.1484 35.7422 75Z" fill="#000000" fill-opacity="0.85"/>
 </g>
</svg>
