<?xml version="1.0" encoding="UTF-8"?>
<!--Generator: Apple Native CoreSVG 232.5-->
<!DOCTYPE svg
PUBLIC "-//W3C//DTD SVG 1.1//EN"
       "http://www.w3.org/Graphics/SVG/1.1/DTD/svg11.dtd">
<svg version="1.1" xmlns="http://www.w3.org/2000/svg" xmlns:xlink="http://www.w3.org/1999/xlink" width="144.238" height="99.6582">
 <g>
  <rect height="99.6582" opacity="0" width="144.238" x="0" y="0"/>
  <path d="M49.8047 99.6094C77.002 99.6094 99.6094 77.002 99.6094 49.8047C99.6094 22.5586 76.9531 0 49.7559 0C22.5098 0 0 22.5586 0 49.8047C0 77.002 22.5586 99.6094 49.8047 99.6094ZM15.4297 26.8066C22.6074 15.6738 35.2539 8.30078 49.707 8.30078C64.1113 8.30078 76.7578 15.6738 83.9844 26.7578C85.9375 29.541 85.0098 32.666 81.6895 32.666L17.7246 32.666C14.4531 32.666 13.4766 29.541 15.4297 26.8066ZM49.707 63.0859C43.7012 63.0859 38.8672 58.252 38.8672 52.1973C38.8672 46.2402 43.7012 41.4062 49.707 41.4062C55.7129 41.4062 60.5469 46.2402 60.5469 52.1973C60.5469 58.252 55.7129 63.0859 49.707 63.0859ZM9.7168 60.6934C8.88672 57.666 10.5957 56.2988 13.1348 56.6406C27.0996 58.252 37.9395 70.5078 37.4512 84.8633C37.4512 87.3535 35.5469 89.0137 32.959 87.7441C21.3867 82.5684 12.9395 72.7051 9.7168 60.6934ZM89.7461 60.6934C86.5723 72.7051 78.0762 82.5684 66.5527 87.7441C63.916 89.0137 62.0605 87.3535 62.0117 84.8633C61.5723 70.5566 72.3633 58.252 86.377 56.6406C88.916 56.2988 90.5762 57.666 89.7461 60.6934Z" fill="#000000" fill-opacity="0.85"/>
  <path d="M141.602 47.4609L116.504 32.5684C114.6 31.4453 112.061 32.373 112.061 34.4238L112.061 65.1855C112.061 67.2852 114.453 68.2617 116.504 67.041L141.602 52.2461C143.555 51.123 143.457 48.5352 141.602 47.4609Z" fill="#000000" fill-opacity="0.85"/>
 </g>
</svg>
