<?xml version="1.0" encoding="UTF-8"?>
<!--Generator: Apple Native CoreSVG 232.5-->
<!DOCTYPE svg
PUBLIC "-//W3C//DTD SVG 1.1//EN"
       "http://www.w3.org/Graphics/SVG/1.1/DTD/svg11.dtd">
<svg version="1.1" xmlns="http://www.w3.org/2000/svg" xmlns:xlink="http://www.w3.org/1999/xlink" width="108.521" height="108.57">
 <g>
  <rect height="108.57" opacity="0" width="108.521" x="0" y="0"/>
  <path d="M67.5444 81.0079C66.776 83.6451 66.4179 86.4417 66.5161 89.3193C66.5161 91.8096 68.4204 93.4697 71.0083 92.2002C72.7655 91.4143 74.4507 90.5202 76.0465 89.5147L82.0004 95.4718C74.0425 100.884 64.4812 104.065 54.2603 104.065C27.063 104.065 4.45557 81.458 4.45557 54.2607C4.45557 44.0263 7.6385 34.4533 13.0564 26.4903ZM14.1724 65.1494C17.3462 77.1611 25.8423 87.0244 37.3657 92.2002C40.0024 93.4697 41.8579 91.8096 41.9067 89.3193C42.395 74.9639 31.5552 62.708 17.5415 61.0967C15.0024 60.7549 13.3423 62.1221 14.1724 65.1494ZM104.065 54.2607C104.065 64.5062 100.864 74.1004 95.4116 82.0763L89.481 76.1425C91.5862 72.7708 93.1973 69.0748 94.2505 65.1494C95.0806 62.1221 93.3716 60.7549 90.8813 61.0967C86.4665 61.6025 82.3741 63.1624 78.8535 65.5092L50.4818 37.1221L86.1938 37.1221C89.5142 37.1221 90.4419 33.9971 88.4888 31.2139C81.2622 20.1299 68.6157 12.7568 54.1626 12.7568C46.1488 12.7568 38.6445 15.0591 32.3319 18.9623L26.4519 13.079C34.4122 7.64616 43.9838 4.45604 54.2114 4.45604C81.4575 4.45604 104.065 27.0146 104.065 54.2607Z" fill="#000000" fill-opacity="0.85"/>
  <path d="M96.3989 101.77C97.8638 103.235 100.305 103.187 101.721 101.722C103.186 100.257 103.186 97.8642 101.721 96.3994L12.1704 6.84862C10.7056 5.38378 8.26416 5.33495 6.79932 6.84862C5.33447 8.26464 5.33447 10.706 6.79932 12.1709Z" fill="#000000" fill-opacity="0.85"/>
 </g>
</svg>
