<?xml version="1.0" encoding="UTF-8"?>
<!--Generator: Apple Native CoreSVG 232.5-->
<!DOCTYPE svg
PUBLIC "-//W3C//DTD SVG 1.1//EN"
       "http://www.w3.org/Graphics/SVG/1.1/DTD/svg11.dtd">
<svg version="1.1" xmlns="http://www.w3.org/2000/svg" xmlns:xlink="http://www.w3.org/1999/xlink" width="99.6094" height="99.6582">
 <g>
  <rect height="99.6582" opacity="0" width="99.6094" x="0" y="0"/>
  <path d="M49.8047 99.6094C77.0508 99.6094 99.6094 77.002 99.6094 49.8047C99.6094 22.5586 77.002 0 49.7559 0C22.5586 0 0 22.5586 0 49.8047C0 77.002 22.6074 99.6094 49.8047 99.6094ZM49.8047 91.3086C26.7578 91.3086 8.34961 72.8516 8.34961 49.8047C8.34961 26.7578 26.709 8.30078 49.7559 8.30078C72.8027 8.30078 91.3086 26.7578 91.3086 49.8047C91.3086 72.8516 72.8516 91.3086 49.8047 91.3086Z" fill="#000000" fill-opacity="0.85"/>
  <path d="M49.8047 79.2969C65.918 79.2969 79.2969 65.918 79.2969 49.8047C79.2969 33.6914 65.918 20.3125 49.7559 20.3125C33.6426 20.3125 20.3125 33.6914 20.3125 49.8047C20.3125 65.918 33.6914 79.2969 49.8047 79.2969ZM30.5664 36.9141C34.668 30.7129 41.6992 26.5625 49.7559 26.5625C57.8613 26.5625 64.8926 30.7129 68.9453 36.9141C70.0195 38.4277 69.5312 40.1367 67.6758 40.1367L31.8848 40.1367C30.0293 40.1367 29.4922 38.4277 30.5664 36.9141ZM49.7559 57.2266C46.3867 57.2266 43.7012 54.541 43.7012 51.123C43.7012 47.7539 46.3867 45.0684 49.7559 45.0684C53.125 45.0684 55.8594 47.7539 55.8594 51.123C55.8594 54.541 53.125 57.2266 49.7559 57.2266ZM27.3926 55.9082C26.9043 54.1992 27.8809 53.418 29.248 53.6133C37.1582 54.4922 43.2129 61.377 42.9199 69.4336C42.9199 70.8496 41.7969 71.7285 40.3809 71.0449C33.8867 68.1641 29.1504 62.6465 27.3926 55.9082ZM72.168 55.9082C70.4102 62.6465 65.6738 68.1641 59.2285 71.0449C57.7637 71.7285 56.6406 70.8496 56.6406 69.4336C56.3965 61.4258 62.4023 54.4922 70.3125 53.6133C71.6797 53.418 72.6562 54.1992 72.168 55.9082Z" fill="#000000" fill-opacity="0.85"/>
 </g>
</svg>
