<?xml version="1.0" encoding="UTF-8"?>
<!--Generator: Apple Native CoreSVG 232.5-->
<!DOCTYPE svg
PUBLIC "-//W3C//DTD SVG 1.1//EN"
       "http://www.w3.org/Graphics/SVG/1.1/DTD/svg11.dtd">
<svg version="1.1" xmlns="http://www.w3.org/2000/svg" xmlns:xlink="http://www.w3.org/1999/xlink" width="145.605" height="99.6582">
 <g>
  <rect height="99.6582" opacity="0" width="145.605" x="0" y="0"/>
  <path d="M95.8008 99.6094C122.998 99.6094 145.605 77.002 145.605 49.8047C145.605 22.5586 122.949 0 95.752 0C68.5059 0 45.9961 22.5586 45.9961 49.8047C45.9961 77.002 68.5547 99.6094 95.8008 99.6094ZM61.4258 26.8066C68.6035 15.6738 81.25 8.30078 95.7031 8.30078C110.107 8.30078 122.754 15.6738 129.98 26.7578C131.934 29.541 131.006 32.666 127.686 32.666L63.7207 32.666C60.4492 32.666 59.4727 29.541 61.4258 26.8066ZM95.7031 63.0859C89.6973 63.0859 84.8633 58.252 84.8633 52.1973C84.8633 46.2402 89.6973 41.4062 95.7031 41.4062C101.709 41.4062 106.543 46.2402 106.543 52.1973C106.543 58.252 101.709 63.0859 95.7031 63.0859ZM55.7129 60.6934C54.8828 57.666 56.543 56.2988 59.082 56.6406C73.0957 58.252 83.9355 70.5078 83.4473 84.8633C83.4473 87.3535 81.543 89.0137 78.9062 87.7441C67.3828 82.5684 58.8867 72.7051 55.7129 60.6934ZM135.742 60.6934C132.568 72.7051 124.072 82.5684 112.549 87.7441C109.912 89.0137 108.008 87.3535 108.008 84.8633C107.52 70.5566 118.311 58.252 132.373 56.6406C134.912 56.2988 136.572 57.666 135.742 60.6934Z" fill="#000000" fill-opacity="0.85"/>
  <path d="M3.95508 47.4609C2.09961 48.5352 2.00195 51.123 3.95508 52.2461L29.0527 67.041C31.1035 68.2617 33.4961 67.2852 33.4961 65.1855L33.4961 34.4238C33.4961 32.373 30.957 31.4453 29.0527 32.5684Z" fill="#000000" fill-opacity="0.85"/>
 </g>
</svg>
