<?xml version="1.0" encoding="UTF-8"?>
<!--Generator: Apple Native CoreSVG 232.5-->
<!DOCTYPE svg
PUBLIC "-//W3C//DTD SVG 1.1//EN"
       "http://www.w3.org/Graphics/SVG/1.1/DTD/svg11.dtd">
<svg version="1.1" xmlns="http://www.w3.org/2000/svg" xmlns:xlink="http://www.w3.org/1999/xlink" width="127.832" height="99.6582">
 <g>
  <rect height="99.6582" opacity="0" width="127.832" x="0" y="0"/>
  <path d="M121.436 82.5684C124.951 82.5684 127.832 79.7363 127.832 76.416C127.832 73.0469 125 70.2637 121.436 70.2637C117.92 70.2637 115.039 73.0469 115.039 76.416C115.039 79.7363 117.969 82.5684 121.436 82.5684ZM121.436 60.8887C123.828 60.8887 125.537 59.2285 125.635 56.7383L126.66 22.168C126.758 19.043 124.658 16.9434 121.436 16.9434C118.213 16.9434 116.162 19.043 116.26 22.168L117.285 56.7383C117.383 59.2285 119.043 60.8887 121.436 60.8887Z" fill="#000000" fill-opacity="0.85"/>
  <path d="M49.8047 99.6094C77.0508 99.6094 99.6094 77.002 99.6094 49.8047C99.6094 22.5586 77.002 0 49.7559 0C22.5586 0 0 22.5586 0 49.8047C0 77.002 22.6074 99.6094 49.8047 99.6094ZM15.4785 26.8066C22.6562 15.6738 35.3027 8.30078 49.707 8.30078C64.1113 8.30078 76.7578 15.6738 83.9844 26.7578C85.9863 29.541 85.0098 32.666 81.7383 32.666L17.7246 32.666C14.502 32.666 13.4766 29.541 15.4785 26.8066ZM49.7559 63.0859C43.7012 63.0859 38.916 58.252 38.916 52.1973C38.916 46.2402 43.7012 41.4062 49.7559 41.4062C55.7617 41.4062 60.5957 46.2402 60.5957 52.1973C60.5957 58.252 55.7617 63.0859 49.7559 63.0859ZM9.76562 60.6934C8.88672 57.666 10.5957 56.2988 13.1348 56.6406C27.0996 58.252 37.9395 70.5078 37.5 84.8633C37.4512 87.3535 35.5957 89.0137 32.959 87.7441C21.4355 82.5684 12.9395 72.7051 9.76562 60.6934ZM89.7461 60.6934C86.5723 72.7051 78.125 82.5684 66.5527 87.7441C63.9648 89.0137 62.0605 87.3535 62.0117 84.8633C61.5723 70.5566 72.3633 58.252 86.377 56.6406C88.916 56.2988 90.625 57.666 89.7461 60.6934Z" fill="#000000" fill-opacity="0.85"/>
 </g>
</svg>
