<?xml version="1.0" encoding="UTF-8"?>
<!--Generator: Apple Native CoreSVG 232.5-->
<!DOCTYPE svg
PUBLIC "-//W3C//DTD SVG 1.1//EN"
       "http://www.w3.org/Graphics/SVG/1.1/DTD/svg11.dtd">
<svg version="1.1" xmlns="http://www.w3.org/2000/svg" xmlns:xlink="http://www.w3.org/1999/xlink" width="89.8926" height="89.9902">
 <g>
  <rect height="89.9902" opacity="0" width="89.8926" x="0" y="0"/>
  <path d="M15.332 89.9902L74.5605 89.9902C84.8145 89.9902 89.8926 84.9121 89.8926 74.8535L89.8926 15.2344C89.8926 5.17578 84.8145 0.0976562 74.5605 0.0976562L15.332 0.0976562C5.12695 0.0976562 0 5.12695 0 15.2344L0 74.8535C0 84.9609 5.12695 89.9902 15.332 89.9902ZM15.4297 82.1289C10.5469 82.1289 7.86133 79.541 7.86133 74.4629L7.86133 15.625C7.86133 10.5469 10.5469 7.95898 15.4297 7.95898L74.4629 7.95898C79.2969 7.95898 82.0312 10.5469 82.0312 15.625L82.0312 74.4629C82.0312 79.541 79.2969 82.1289 74.4629 82.1289Z" fill="#000000" fill-opacity="0.85"/>
  <path d="M29.541 67.0898L59.2285 67.0898C60.9375 67.0898 62.1582 65.9668 62.1582 64.209C62.1582 62.5 60.9375 61.377 59.2285 61.377L38.0371 61.377C40.5273 59.2285 42.2363 55.3223 42.2363 51.1719C42.2363 49.4629 42.041 47.9492 41.6992 46.5332L53.9062 46.5332C55.4688 46.5332 56.6406 45.5078 56.6406 43.8965C56.6406 42.334 55.4688 41.3086 53.9062 41.3086L40.4297 41.3086C39.9902 39.4531 39.5996 37.4512 39.5996 35.1074C39.5996 29.834 43.3594 26.2207 49.7559 26.2207C53.9551 26.2207 55.957 27.3438 57.2754 27.3438C59.082 27.3438 59.9121 26.3184 59.9121 24.7559C59.9121 23.4375 59.2773 22.4121 57.4219 21.7285C55.1758 20.8496 52.4902 20.459 49.4141 20.459C39.3555 20.459 33.2031 26.3184 33.2031 35.498C33.2031 37.4512 33.5449 39.4043 34.0332 41.3086L29.541 41.3086C27.9785 41.3086 26.8555 42.334 26.8555 43.8965C26.8555 45.5078 27.9785 46.5332 29.541 46.5332L35.3027 46.5332C35.7422 48.1934 36.0352 49.8535 36.0352 51.416C36.0352 56.5918 32.8613 60.0098 29.1992 61.0352C27.4414 61.6211 26.6602 62.5488 26.6602 64.209C26.6602 65.918 27.832 67.0898 29.541 67.0898Z" fill="#000000" fill-opacity="0.85"/>
 </g>
</svg>
