<?xml version="1.0" encoding="UTF-8"?>
<!--Generator: Apple Native CoreSVG 232.5-->
<!DOCTYPE svg
PUBLIC "-//W3C//DTD SVG 1.1//EN"
       "http://www.w3.org/Graphics/SVG/1.1/DTD/svg11.dtd">
<svg version="1.1" xmlns="http://www.w3.org/2000/svg" xmlns:xlink="http://www.w3.org/1999/xlink" width="99.6094" height="99.6582">
 <g>
  <rect height="99.6582" opacity="0" width="99.6094" x="0" y="0"/>
  <path d="M49.8047 99.6094C77.0508 99.6094 99.6094 77.002 99.6094 49.8047C99.6094 22.5586 77.002 0 49.7559 0C22.5586 0 0 22.5586 0 49.8047C0 77.002 22.6074 99.6094 49.8047 99.6094ZM49.8047 91.3086C26.7578 91.3086 8.34961 72.8516 8.34961 49.8047C8.34961 26.7578 26.709 8.30078 49.7559 8.30078C72.8027 8.30078 91.3086 26.7578 91.3086 49.8047C91.3086 72.8516 72.8516 91.3086 49.8047 91.3086Z" fill="#000000" fill-opacity="0.85"/>
  <path d="M34.3262 71.9238L63.9648 71.9238C65.7227 71.9238 66.9434 70.8008 66.9434 69.043C66.9434 67.334 65.7227 66.2109 63.9648 66.2109L42.8223 66.2109C45.3125 64.0625 47.0215 60.1562 47.0215 56.0059C47.0215 54.2969 46.8262 52.7832 46.4844 51.3672L58.6914 51.3672C60.2539 51.3672 61.377 50.3418 61.377 48.7305C61.377 47.168 60.2539 46.1426 58.6914 46.1426L45.2148 46.1426C44.7754 44.2871 44.3848 42.2852 44.3848 39.9414C44.3848 34.668 48.1445 31.0547 54.541 31.0547C58.7402 31.0547 60.6934 32.1777 62.0605 32.1777C63.8672 32.1777 64.6973 31.1523 64.6973 29.5898C64.6973 28.2715 64.0625 27.2461 62.207 26.5625C59.9609 25.6836 57.2266 25.293 54.1992 25.293C44.1406 25.293 37.9883 31.1523 37.9883 40.332C37.9883 42.2852 38.3301 44.2383 38.8184 46.1426L34.3262 46.1426C32.7637 46.1426 31.5918 47.168 31.5918 48.7305C31.5918 50.3418 32.7637 51.3672 34.3262 51.3672L40.0879 51.3672C40.5273 53.0273 40.8203 54.6875 40.8203 56.25C40.8203 61.4258 37.6465 64.8438 33.9844 65.8691C32.1777 66.4551 31.4453 67.3828 31.4453 69.043C31.4453 70.752 32.5684 71.9238 34.3262 71.9238Z" fill="#000000" fill-opacity="0.85"/>
 </g>
</svg>
