<?xml version="1.0" encoding="UTF-8"?>
<!--Generator: Apple Native CoreSVG 232.5-->
<!DOCTYPE svg
PUBLIC "-//W3C//DTD SVG 1.1//EN"
       "http://www.w3.org/Graphics/SVG/1.1/DTD/svg11.dtd">
<svg version="1.1" xmlns="http://www.w3.org/2000/svg" xmlns:xlink="http://www.w3.org/1999/xlink" width="99.6094" height="99.6582">
 <g>
  <rect height="99.6582" opacity="0" width="99.6094" x="0" y="0"/>
  <path d="M99.6094 49.8047C99.6094 77.0508 77.0508 99.6094 49.8047 99.6094C22.6074 99.6094 0 77.0508 0 49.8047C0 22.6074 22.5586 0 49.7559 0C77.002 0 99.6094 22.6074 99.6094 49.8047ZM37.6953 40.0391C37.6953 42.041 38.0371 44.043 38.5254 45.9961L33.8867 45.9961C32.2754 45.9961 31.0547 47.0703 31.0547 48.7305C31.0547 50.3418 32.2754 51.416 33.8867 51.416L39.8438 51.416C40.2832 53.1738 40.5762 54.834 40.5762 56.4453C40.5762 61.8164 37.3047 65.332 33.5449 66.4062C31.7383 66.9434 30.9082 67.9688 30.9082 69.6289C30.9082 71.4844 32.0801 72.6074 33.8867 72.6074L64.502 72.6074C66.3086 72.6074 67.5781 71.4844 67.5781 69.6777C67.5781 67.8711 66.3086 66.6992 64.502 66.6992L42.6758 66.6992C45.2637 64.502 47.0215 60.498 47.0215 56.2012C47.0215 54.4434 46.8262 52.8809 46.4844 51.416L59.0332 51.416C60.6445 51.416 61.8164 50.3418 61.8164 48.7305C61.8164 47.0703 60.6445 45.9961 59.0332 45.9961L45.166 45.9961C44.7266 44.0918 44.2871 42.041 44.2871 39.5996C44.2871 34.1797 48.1934 30.4688 54.7852 30.4688C59.082 30.4688 61.084 31.6406 62.5 31.6406C64.4043 31.6406 65.2344 30.5664 65.2344 29.0039C65.2344 27.5879 64.5996 26.5137 62.6953 25.7812C60.3516 24.9023 57.5195 24.5117 54.3945 24.5117C44.043 24.5117 37.6953 30.5176 37.6953 40.0391Z" fill="#000000" fill-opacity="0.85"/>
 </g>
</svg>
