<?xml version="1.0" encoding="UTF-8"?>
<!--Generator: Apple Native CoreSVG 232.5-->
<!DOCTYPE svg
PUBLIC "-//W3C//DTD SVG 1.1//EN"
       "http://www.w3.org/Graphics/SVG/1.1/DTD/svg11.dtd">
<svg version="1.1" xmlns="http://www.w3.org/2000/svg" xmlns:xlink="http://www.w3.org/1999/xlink" width="99.6094" height="99.6582">
 <g>
  <rect height="99.6582" opacity="0" width="99.6094" x="0" y="0"/>
  <path d="M49.8047 99.6094C77.0508 99.6094 99.6094 77.002 99.6094 49.8047C99.6094 22.5586 77.002 0 49.7559 0C22.5586 0 0 22.5586 0 49.8047C0 77.002 22.6074 99.6094 49.8047 99.6094ZM49.8047 91.3086C26.7578 91.3086 8.34961 72.8516 8.34961 49.8047C8.34961 26.7578 26.709 8.30078 49.7559 8.30078C72.8027 8.30078 91.3086 26.7578 91.3086 49.8047C91.3086 72.8516 72.8516 91.3086 49.8047 91.3086Z" fill="#000000" fill-opacity="0.85"/>
  <path d="M18.2129 35.2051C18.2129 46.0938 27.6855 59.5215 35.5957 59.5215L36.6211 59.5215C44.5312 59.5215 54.0039 46.0938 54.0039 35.2051C54.0039 29.6875 51.1719 26.709 45.8008 26.709L42.5781 26.709L42.5781 32.0312L45.9961 32.0312C47.8027 32.0312 48.6328 33.0566 48.6328 35.2051C48.6328 43.2617 41.4551 54.1504 36.1328 54.1504C30.7617 54.1504 23.584 43.2617 23.584 35.2051C23.584 33.0078 24.4141 32.0312 26.2207 32.0312L29.6387 32.0312L29.6387 26.709L26.416 26.709C21.0938 26.709 18.2129 29.6875 18.2129 35.2051ZM45.8984 76.6602C53.1738 76.6602 57.2754 71.1914 59.3262 59.1309C60.6445 51.5625 62.3535 48.7793 65.3809 48.7793C68.7012 48.7793 70.3613 52.3926 70.6055 60.7422L75.9766 60.7422C75.4395 49.0234 72.0703 43.457 65.3809 43.457C59.2285 43.457 55.957 47.7051 54.0527 58.0078C52.3926 67.3828 50.3906 71.2891 45.7031 71.2891C41.1133 71.2891 38.5254 65.918 38.7207 56.3477L33.3984 56.3477C33.1543 69.1895 37.6953 76.6602 45.8984 76.6602ZM29.9805 33.6426C32.3242 33.6426 34.2285 31.6895 34.2285 29.3457C34.2285 26.9531 32.3242 25.0488 29.9805 25.0488C27.6367 25.0488 25.6348 27.002 25.6348 29.3457C25.6348 31.6895 27.5879 33.6426 29.9805 33.6426ZM42.2363 33.6426C44.5312 33.6426 46.4844 31.6895 46.4844 29.3457C46.4844 27.002 44.5312 25.0488 42.2363 25.0488C39.8438 25.0488 37.9395 26.9531 37.9395 29.3457C37.9395 31.6895 39.8438 33.6426 42.2363 33.6426ZM73.3887 73.584C77.9297 73.584 81.5918 69.9219 81.5918 65.4297C81.5918 60.9375 77.8809 57.3242 73.3887 57.3242C68.8965 57.2754 65.2832 60.9375 65.2832 65.4297C65.2832 69.9707 68.8477 73.584 73.3887 73.584ZM73.3887 68.75C71.582 68.75 70.166 67.2363 70.166 65.4297C70.166 63.5742 71.582 62.1582 73.3887 62.1582C75.2441 62.1582 76.709 63.5742 76.709 65.4297C76.709 67.2363 75.1953 68.75 73.3887 68.75Z" fill="#000000" fill-opacity="0.85"/>
 </g>
</svg>
