<?xml version="1.0" encoding="UTF-8"?>
<!--Generator: Apple Native CoreSVG 232.5-->
<!DOCTYPE svg
PUBLIC "-//W3C//DTD SVG 1.1//EN"
       "http://www.w3.org/Graphics/SVG/1.1/DTD/svg11.dtd">
<svg version="1.1" xmlns="http://www.w3.org/2000/svg" xmlns:xlink="http://www.w3.org/1999/xlink" width="99.6094" height="99.6582">
 <g>
  <rect height="99.6582" opacity="0" width="99.6094" x="0" y="0"/>
  <path d="M99.6094 49.8535C99.6094 77.0996 77.0508 99.6582 49.8047 99.6582C22.6074 99.6582 0 77.0996 0 49.8535C0 22.6562 22.5586 0.0488281 49.7559 0.0488281C77.002 0.0488281 99.6094 22.6562 99.6094 49.8535ZM37.5488 28.7598C37.5488 31.1523 39.502 33.2031 41.9922 33.2031C43.3105 33.2031 44.5312 32.5684 45.3125 31.5918L45.8496 31.5918C47.7051 31.5918 48.584 32.5684 48.584 34.7656C48.584 43.0664 41.1621 54.2969 35.6934 54.2969C30.1758 54.2969 22.8027 43.0664 22.8027 34.7656C22.8027 32.5195 23.6328 31.5918 25.4883 31.5918L25.9766 31.5918C26.7578 32.5684 27.9785 33.2031 29.3945 33.2031C31.7871 33.2031 33.7891 31.1523 33.7891 28.7598C33.7891 26.3184 31.7871 24.3164 29.3945 24.3164C27.9785 24.3164 26.709 25 25.9277 26.0254L25.6836 26.0254C20.2148 26.0254 17.2363 29.1016 17.2363 34.7656C17.2363 44.9707 25.3418 57.4219 32.9102 59.5215C33.3984 70.9473 37.9395 77.4902 45.752 77.4902C53.2715 77.4902 57.5195 71.875 59.6191 59.4238C60.9863 51.6602 62.7441 48.7793 65.8691 48.7793C68.8477 48.7793 70.6055 51.6602 71.1426 58.1543C68.0176 59.3262 65.7715 62.3535 65.7715 65.918C65.7715 70.6055 69.4336 74.3164 74.1211 74.3164C78.8086 74.3164 82.5684 70.5566 82.5684 65.918C82.5684 62.207 80.0293 58.9844 76.6113 57.959C75.5371 48.0469 72.168 43.2617 65.8691 43.2617C59.5215 43.2617 56.1523 47.6562 54.1504 58.3008C52.4414 67.9199 50.3906 71.9238 45.5566 71.9238C41.3574 71.9238 38.7695 67.5293 38.4277 59.5215C45.9961 57.4707 54.1504 45.0684 54.1504 34.7656C54.1504 29.1016 51.2207 26.0254 45.6543 26.0254L45.4102 26.0254C44.6289 25 43.3594 24.3164 41.9922 24.3164C39.502 24.3164 37.5488 26.3184 37.5488 28.7598ZM77.5391 65.918C77.5391 67.7734 75.9766 69.3359 74.1211 69.3359C72.2656 69.3359 70.8008 67.7734 70.8008 65.918C70.8008 64.0625 72.2656 62.5488 74.1211 62.5488C76.0254 62.5488 77.5391 64.0625 77.5391 65.918Z" fill="#000000" fill-opacity="0.85"/>
 </g>
</svg>
