<?xml version="1.0" encoding="UTF-8"?>
<!--Generator: Apple Native CoreSVG 232.5-->
<!DOCTYPE svg
PUBLIC "-//W3C//DTD SVG 1.1//EN"
       "http://www.w3.org/Graphics/SVG/1.1/DTD/svg11.dtd">
<svg version="1.1" xmlns="http://www.w3.org/2000/svg" xmlns:xlink="http://www.w3.org/1999/xlink" width="136.279" height="107.275">
 <g>
  <rect height="107.275" opacity="0" width="136.279" x="0" y="0"/>
  <path d="M21.4355 8.98438C21.4355 10.4583 21.8747 11.8354 22.6328 12.9883L20.8008 12.9883C15.918 12.9883 13.4766 15.918 13.4766 21.3379C13.4766 36.8164 27.7832 63.1348 41.6992 63.1348C55.6152 63.1348 69.9707 36.8164 69.9707 21.3379C69.9707 15.918 67.5293 12.9883 62.5977 12.9883L60.7168 12.9883C61.4749 11.8354 61.9141 10.4583 61.9141 8.98438C61.9141 7.57144 61.5105 6.24753 60.8061 5.12695L62.207 5.12695C72.5098 5.12695 77.832 10.6445 77.832 21.4355C77.832 40.3161 61.6842 67.7943 45.6043 70.7016C46.1017 89.079 51.9809 99.4141 62.0117 99.4141C73.6328 99.4141 77.9785 89.0625 81.4453 69.873C85.3516 48.5352 91.7969 40.4297 103.711 40.4297C116.212 40.4297 122.347 50.396 124.19 70.2637C123.116 70.011 121.997 69.8796 120.85 69.873C119.312 69.8643 117.826 70.0832 116.427 70.5054C115.359 55.5884 111.402 48.291 103.711 48.291C96.582 48.291 92.2852 53.8574 89.1602 71.6309C85.0586 95.459 77.3438 107.275 62.5 107.275C47.2471 107.275 38.3546 94.2387 37.7551 70.6923C21.7043 67.6941 5.61523 40.2817 5.61523 21.4355C5.61523 10.6445 10.9375 5.12695 21.1914 5.12695L22.5436 5.12695C21.8391 6.24753 21.4355 7.57144 21.4355 8.98438Z" fill="#000000" fill-opacity="0.85"/>
  <path d="M28.8086 16.3574C32.8125 16.3574 36.1328 13.0371 36.1328 8.98438C36.1328 4.93164 32.8125 1.61133 28.8086 1.61133C24.7559 1.61133 21.4355 4.93164 21.4355 8.98438C21.4355 13.0371 24.7559 16.3574 28.8086 16.3574ZM54.541 16.3574C58.5938 16.3574 61.9141 13.0371 61.9141 8.98438C61.9141 4.93164 58.5938 1.61133 54.541 1.61133C50.5371 1.61133 47.2168 4.93164 47.2168 8.98438C47.2168 13.0371 50.5371 16.3574 54.541 16.3574ZM120.85 100.781C129.346 100.781 136.279 93.8965 136.279 85.3027C136.279 76.8066 129.346 69.9219 120.85 69.873C112.305 69.8242 105.371 76.8066 105.371 85.3027C105.371 93.8965 112.305 100.781 120.85 100.781ZM120.85 93.8965C116.113 93.8965 112.207 90.0391 112.207 85.3027C112.207 80.5176 116.113 76.709 120.85 76.709C125.586 76.709 129.443 80.5176 129.443 85.3027C129.443 90.0391 125.586 93.8965 120.85 93.8965Z" fill="#000000" fill-opacity="0.85"/>
 </g>
</svg>
