<?xml version="1.0" encoding="UTF-8"?>
<!--Generator: Apple Native CoreSVG 232.5-->
<!DOCTYPE svg
PUBLIC "-//W3C//DTD SVG 1.1//EN"
       "http://www.w3.org/Graphics/SVG/1.1/DTD/svg11.dtd">
<svg version="1.1" xmlns="http://www.w3.org/2000/svg" xmlns:xlink="http://www.w3.org/1999/xlink" width="99.6094" height="99.6582">
 <g>
  <rect height="99.6582" opacity="0" width="99.6094" x="0" y="0"/>
  <path d="M99.6094 49.8047C99.6094 77.002 77.0508 99.6094 49.8047 99.6094C22.6074 99.6094 0 77.002 0 49.8047C0 22.5586 22.5586 0 49.7559 0C77.002 0 99.6094 22.5586 99.6094 49.8047ZM36.5234 31.4941C33.3984 31.4941 31.4941 33.3008 31.4941 36.4258L31.4941 63.1836C31.4941 66.2598 33.3984 68.1152 36.5234 68.1152L63.0859 68.1152C66.2598 68.1152 68.1152 66.2598 68.1152 63.1836L68.1152 36.4258C68.1152 33.3008 66.2598 31.4941 63.0859 31.4941Z" fill="#000000" fill-opacity="0.85"/>
 </g>
</svg>
