<?xml version="1.0" encoding="UTF-8"?>
<!--Generator: Apple Native CoreSVG 232.5-->
<!DOCTYPE svg
PUBLIC "-//W3C//DTD SVG 1.1//EN"
       "http://www.w3.org/Graphics/SVG/1.1/DTD/svg11.dtd">
<svg version="1.1" xmlns="http://www.w3.org/2000/svg" xmlns:xlink="http://www.w3.org/1999/xlink" width="99.6094" height="99.6582">
 <g>
  <rect height="99.6582" opacity="0" width="99.6094" x="0" y="0"/>
  <path d="M49.8047 99.6094C77.0508 99.6094 99.6094 77.002 99.6094 49.8047C99.6094 22.5586 77.002 0 49.7559 0C22.5586 0 0 22.5586 0 49.8047C0 77.002 22.6074 99.6094 49.8047 99.6094ZM49.8047 91.3086C26.7578 91.3086 8.34961 72.8516 8.34961 49.8047C8.34961 26.7578 26.709 8.30078 49.7559 8.30078C72.8027 8.30078 91.3086 26.7578 91.3086 49.8047C91.3086 72.8516 72.8516 91.3086 49.8047 91.3086Z" fill="#000000" fill-opacity="0.85"/>
  <path d="M22.3633 38.4277L76.709 38.4277L69.6289 25.3906C68.5547 23.3887 66.5527 22.2168 64.3066 22.2168L34.8145 22.2168C32.5195 22.2168 30.5176 23.3887 29.4434 25.3906ZM30.1758 49.0723C32.8613 49.0723 35.2051 47.8516 36.6699 45.8496C38.0371 47.8516 40.3809 49.0723 43.1152 49.0723C45.8008 49.0723 48.0957 47.8516 49.5605 45.8496C51.0254 47.8516 53.2715 49.0723 56.0059 49.0723C58.7402 49.0723 61.0352 47.8516 62.4512 45.8496C63.916 47.8516 66.2598 49.0723 68.9453 49.0723C73.4863 49.0723 77.1484 45.5078 77.1484 42.2852L77.1484 41.7969L21.9727 41.7969L21.9727 42.7734C21.9727 45.9961 25.6348 49.0723 30.1758 49.0723ZM30.7617 77.3438L68.6523 77.3438C72.2168 77.3438 74.2676 75.3418 74.2676 71.8262L74.2676 51.2207C72.8027 52.002 70.9961 52.5391 69.0918 52.5391C66.6016 52.5391 64.4043 51.709 62.6465 50.3418C60.8398 51.709 58.5938 52.5391 56.1523 52.5391C53.7109 52.5391 51.4648 51.709 49.707 50.3418C47.9492 51.709 45.7031 52.5391 43.2617 52.5391C40.7715 52.5391 38.5254 51.709 36.8164 50.3418C35.0098 51.709 32.8125 52.5391 30.3223 52.5391C28.418 52.5391 26.6602 52.0996 25.0977 51.3672L25.0977 71.8262C25.0977 75.3418 27.1973 77.3438 30.7617 77.3438ZM40.2344 72.4121L40.2344 59.2773C40.2344 58.1543 41.0156 57.373 42.1875 57.373L57.3242 57.373C58.4473 57.373 59.1797 58.1543 59.1797 59.2773L59.1797 72.4121Z" fill="#000000" fill-opacity="0.85"/>
 </g>
</svg>
