<?xml version="1.0" encoding="UTF-8"?>
<!--Generator: Apple Native CoreSVG 232.5-->
<!DOCTYPE svg
PUBLIC "-//W3C//DTD SVG 1.1//EN"
       "http://www.w3.org/Graphics/SVG/1.1/DTD/svg11.dtd">
<svg version="1.1" xmlns="http://www.w3.org/2000/svg" xmlns:xlink="http://www.w3.org/1999/xlink" width="106.934" height="107.178">
 <g>
  <rect height="107.178" opacity="0" width="106.934" x="0" y="0"/>
  <path d="M17.041 107.08L90.4297 107.08C97.4121 107.08 101.416 103.125 101.416 96.2891L101.416 56.1523C98.4863 57.7637 94.9707 58.7891 91.2598 58.7891C86.4746 58.7891 82.1777 57.1777 78.7598 54.541C75.293 57.1777 70.9961 58.7891 66.2109 58.7891C61.4746 58.7891 57.1289 57.1777 53.7109 54.5898C50.3418 57.1777 45.9961 58.7891 41.2598 58.7891C36.4746 58.7891 32.1777 57.1777 28.7109 54.541C25.293 57.1777 20.9961 58.7891 16.2109 58.7891C12.5 58.7891 9.0332 57.9102 6.00586 56.4453L6.00586 96.2891C6.00586 103.125 10.0586 107.08 17.041 107.08ZM22.4121 99.2188L22.4121 72.6074C22.4121 70.3613 23.9258 68.8965 26.1719 68.8965L45.3613 68.8965C47.6074 68.8965 49.0723 70.3613 49.0723 72.6074L49.0723 99.2188ZM63.7207 87.4023C61.4746 87.4023 59.9609 85.9375 59.9609 83.6914L59.9609 70.3613C59.9609 68.1152 61.4746 66.6504 63.7207 66.6504L83.5449 66.6504C85.791 66.6504 87.2559 68.1152 87.2559 70.3613L87.2559 83.6914C87.2559 85.9375 85.791 87.4023 83.5449 87.4023ZM11.8652 11.084L95.0195 11.084L95.0195 9.96094C95.0195 3.75977 91.2109 0 84.9121 0L22.0215 0C15.7227 0 11.8652 3.75977 11.8652 9.96094ZM0.78125 35.1562L106.104 35.1562C105.908 34.8633 105.762 34.4727 105.566 34.1309L96.0449 15.8203L10.8398 15.8203L1.31836 34.1309C1.12305 34.4727 0.976562 34.8633 0.78125 35.1562ZM15.9668 54.0527C21.1426 54.0527 25.6348 51.6602 28.4668 47.8516C31.25 51.6602 35.791 54.0527 40.9668 54.0527C46.1914 54.0527 50.6836 51.6113 53.4668 47.8516C56.25 51.6113 60.7422 54.0527 65.9668 54.0527C71.1914 54.0527 75.6836 51.6602 78.5156 47.8516C81.2988 51.6602 85.791 54.0527 90.9668 54.0527C99.8535 54.0527 106.934 47.0703 106.934 40.7715L106.934 39.8926L0 39.8926L0 41.748C0 48.0469 7.12891 54.0527 15.9668 54.0527Z" fill="#000000" fill-opacity="0.85"/>
 </g>
</svg>
