<?xml version="1.0" encoding="UTF-8"?>
<!--Generator: Apple Native CoreSVG 232.5-->
<!DOCTYPE svg
PUBLIC "-//W3C//DTD SVG 1.1//EN"
       "http://www.w3.org/Graphics/SVG/1.1/DTD/svg11.dtd">
<svg version="1.1" xmlns="http://www.w3.org/2000/svg" xmlns:xlink="http://www.w3.org/1999/xlink" width="95.8496" height="95.9473">
 <g>
  <rect height="95.9473" opacity="0" width="95.8496" x="0" y="0"/>
  <path d="M11.4746 87.0605L84.3262 87.0605C91.2598 87.0605 95.8496 82.4707 95.8496 75.5859L95.8496 11.4746C95.8496 4.58984 91.2598 0 84.3262 0L11.4746 0C4.58984 0 0 4.58984 0 11.4746L0 75.5859C0 82.4707 4.58984 87.0605 11.4746 87.0605ZM11.5723 79.1992C9.32617 79.1992 7.86133 77.6367 7.86133 75.2441L7.86133 11.8164C7.86133 9.47266 9.32617 7.86133 11.5723 7.86133L84.2773 7.86133C86.4746 7.86133 87.9883 9.47266 87.9883 11.8164L87.9883 75.2441C87.9883 77.6367 86.4746 79.1992 84.2773 79.1992ZM22.5586 21.5332C25.1953 21.5332 27.3926 19.3848 27.3926 16.748C27.3926 14.0625 25.1953 11.9141 22.5586 11.9141C19.873 11.9141 17.6758 14.0625 17.6758 16.748C17.6758 19.3848 19.873 21.5332 22.5586 21.5332ZM39.4531 21.5332C42.0898 21.5332 44.2871 19.3848 44.2871 16.748C44.2871 14.0625 42.0898 11.9141 39.4531 11.9141C36.7676 11.9141 34.5703 14.0625 34.5703 16.748C34.5703 19.3848 36.7676 21.5332 39.4531 21.5332ZM56.3477 21.5332C58.9844 21.5332 61.1816 19.3848 61.1816 16.748C61.1816 14.0625 58.9844 11.9141 56.3477 11.9141C53.6621 11.9141 51.4648 14.0625 51.4648 16.748C51.4648 19.3848 53.6621 21.5332 56.3477 21.5332ZM73.2422 21.5332C75.9277 21.5332 78.125 19.3848 78.125 16.748C78.125 14.0625 75.9277 11.9141 73.2422 11.9141C70.6055 11.9141 68.4082 14.0625 68.4082 16.748C68.4082 19.3848 70.6055 21.5332 73.2422 21.5332ZM4.73633 32.0801L91.1621 32.0801L91.1621 25.6836L4.73633 25.6836ZM19.0918 73.4375L76.7578 73.4375C79.541 73.4375 81.3477 71.6309 81.3477 68.8965L81.3477 42.4316C81.3477 39.6484 79.541 37.8418 76.7578 37.8418L19.0918 37.8418C16.3086 37.8418 14.5508 39.6484 14.5508 42.4316L14.5508 68.8965C14.5508 71.6309 16.3086 73.4375 19.0918 73.4375ZM21.2402 68.0176C20.5078 68.0176 19.9707 67.4805 19.9707 66.748L19.9707 44.5801C19.9707 43.8477 20.5078 43.2617 21.2402 43.2617L74.6582 43.2617C75.3418 43.2617 75.9277 43.8477 75.9277 44.5801L75.9277 66.748C75.9277 67.4805 75.3418 68.0176 74.6582 68.0176ZM13.9648 95.8496C16.3086 95.8496 17.8711 94.2871 17.8711 91.9434L17.8711 82.1777L10.0098 82.1777L10.0098 91.9434C10.0098 94.2871 11.6211 95.8496 13.9648 95.8496ZM81.8848 95.8496C84.2285 95.8496 85.791 94.2871 85.791 91.9434L85.791 82.1777L77.9297 82.1777L77.9297 91.9434C77.9297 94.2871 79.541 95.8496 81.8848 95.8496Z" fill="#000000" fill-opacity="0.85"/>
 </g>
</svg>
