<?xml version="1.0" encoding="UTF-8"?>
<!--Generator: Apple Native CoreSVG 232.5-->
<!DOCTYPE svg
PUBLIC "-//W3C//DTD SVG 1.1//EN"
       "http://www.w3.org/Graphics/SVG/1.1/DTD/svg11.dtd">
<svg version="1.1" xmlns="http://www.w3.org/2000/svg" xmlns:xlink="http://www.w3.org/1999/xlink" width="80.6152" height="72.4121">
 <g>
  <rect height="72.4121" opacity="0" width="80.6152" x="0" y="0"/>
  <path d="M66.8945 51.2695C66.8945 64.0137 56.4941 72.3633 40.2832 72.3633C26.8555 72.3633 16.6992 66.5039 14.1113 57.2754C13.8672 56.3477 13.7207 55.4199 13.7207 54.541C13.7207 52.002 15.332 50.3906 17.9688 50.3906C20.0195 50.3906 21.0938 51.3184 21.9727 53.418C24.4629 60.3516 31.25 64.502 40.2832 64.502C50.4883 64.502 57.666 59.375 57.666 52.3438C57.666 46.4844 53.418 43.1641 43.2617 40.7227L34.2773 38.5742C32.884 38.2464 31.5703 37.8911 30.3529 37.5L59.6547 37.5C64.6379 40.7575 66.8945 45.1428 66.8945 51.2695ZM64.7461 15.0391C64.9414 15.7715 65.0391 16.5527 65.0391 17.2852C65.0391 19.7266 63.4766 21.1914 60.9375 21.1914C58.9844 21.1914 57.8125 20.3125 57.0312 18.457C54.6387 11.7188 48.6328 7.91016 40.2344 7.91016C30.9082 7.91016 24.1699 12.7441 24.1699 19.5801C24.1699 25 28.3691 28.0273 38.2812 30.4199L46.2402 32.3242C47.7852 32.6896 49.2359 33.0773 50.5753 33.4961L21.7143 33.4961C17.1089 30.2921 14.9414 25.9702 14.9414 20.2148C14.9414 8.39844 25.5371 0 40.2344 0C52.7832 0 62.5488 6.15234 64.7461 15.0391Z" fill="#000000" fill-opacity="0.85"/>
  <path d="M2.00195 37.5L78.6133 37.5C79.7363 37.5 80.6152 36.6211 80.6152 35.498C80.6152 34.375 79.7363 33.4961 78.6133 33.4961L2.00195 33.4961C0.878906 33.4961 0 34.375 0 35.498C0 36.6211 0.878906 37.5 2.00195 37.5Z" fill="#000000" fill-opacity="0.85"/>
 </g>
</svg>
