<?xml version="1.0" encoding="UTF-8"?>
<!--Generator: Apple Native CoreSVG 232.5-->
<!DOCTYPE svg
PUBLIC "-//W3C//DTD SVG 1.1//EN"
       "http://www.w3.org/Graphics/SVG/1.1/DTD/svg11.dtd">
<svg version="1.1" xmlns="http://www.w3.org/2000/svg" xmlns:xlink="http://www.w3.org/1999/xlink" width="101.172" height="106.982">
 <g>
  <rect height="106.982" opacity="0" width="101.172" x="0" y="0"/>
  <path d="M23.877 42.4805L16.9434 42.4805L19.2383 54.6875C21.0938 64.7949 29.541 70.9473 43.3105 70.9473L74.4629 70.9473C96.2891 70.9473 100.684 54.0039 100.684 40.0879C100.684 18.0176 85.1562 0.927734 62.0605 0.927734C58.3496 0.927734 55.7617 3.61328 55.7617 7.51953L55.7617 37.5488L62.6465 37.5488L62.6465 10.2539C62.6465 8.93555 63.5742 8.05664 64.8926 8.05664C76.1719 8.05664 93.75 17.041 93.75 40.0879C93.75 50.5371 90.9668 64.0625 74.4629 64.0625L43.3105 64.0625C33.2031 64.0625 27.3438 60.0098 26.0742 53.418ZM94.6289 36.6211L15.9668 36.6211C14.0625 36.6211 12.5488 38.1348 12.5488 40.0391C12.5488 41.9434 14.0625 43.5059 15.9668 43.5059L94.6777 43.5059ZM31.1523 40.6738L41.5039 40.6738L18.1641 17.334C17.041 16.2109 15.8203 15.7227 14.2578 15.7227L3.66211 15.7227C1.66016 15.7227 0 17.3828 0 19.3848C0 21.3867 1.66016 23.0957 3.66211 23.0957L13.5742 23.0957ZM33.2031 83.0566L38.3301 88.3789L57.1289 69.5801L51.8555 64.4043ZM79.4434 89.0137L84.7656 83.8867L66.1621 65.332L60.3027 69.873ZM28.8086 106.982C36.5723 106.982 42.6758 100.879 42.6758 93.0664C42.6758 85.3027 36.5723 79.1992 28.8086 79.1992C20.9961 79.1992 14.9414 85.3027 14.9414 93.0664C14.9414 100.879 20.9961 106.982 28.8086 106.982ZM28.8086 100.537C24.6582 100.537 21.3379 97.2168 21.3379 93.0664C21.3379 88.8672 24.6582 85.5957 28.8086 85.5957C33.0078 85.5957 36.2793 88.8672 36.2793 93.0664C36.2793 97.2168 33.0078 100.537 28.8086 100.537ZM88.2812 106.006C95.4102 106.006 101.172 100.244 101.172 93.0664C101.172 85.9375 95.4102 80.1758 88.2812 80.1758C81.1035 80.1758 75.3418 85.9375 75.3418 93.0664C75.3418 100.244 81.1523 106.006 88.2812 106.006ZM88.2812 100.537C84.1309 100.537 80.7617 97.2168 80.7617 93.0664C80.7617 88.8672 84.1309 85.5957 88.2812 85.5957C92.4805 85.5957 95.752 88.8672 95.752 93.0664C95.752 97.2168 92.4805 100.537 88.2812 100.537ZM39.7461 96.2402L77.6855 96.2402L77.6855 89.8438L39.7461 89.8438Z" fill="#000000" fill-opacity="0.85"/>
 </g>
</svg>
