<?xml version="1.0" encoding="UTF-8"?>
<!--Generator: Apple Native CoreSVG 232.5-->
<!DOCTYPE svg
PUBLIC "-//W3C//DTD SVG 1.1//EN"
       "http://www.w3.org/Graphics/SVG/1.1/DTD/svg11.dtd">
<svg version="1.1" xmlns="http://www.w3.org/2000/svg" xmlns:xlink="http://www.w3.org/1999/xlink" width="93.8965" height="110.693">
 <g>
  <rect height="110.693" opacity="0" width="93.8965" x="0" y="0"/>
  <path d="M16.6016 108.105C18.8965 108.105 19.8242 106.836 20.3613 104.736L24.4629 89.209L69.7266 89.209L73.8281 104.736C74.4141 106.836 75.4883 108.105 77.5879 108.105C80.127 108.105 81.3965 106.641 81.3965 104.492C81.3965 104.004 81.3477 103.516 81.2012 102.979L73.3887 73.7305L76.2207 73.7305C79.3945 73.7305 81.7871 71.7285 81.7871 68.9453C81.7871 65.918 79.6387 63.9648 76.4648 63.9648L20.7031 63.9648C17.041 63.9648 14.9414 62.0605 14.9414 58.5449L14.9414 45.166L22.4609 45.166L22.4609 48.7793C22.4609 54.3457 25.1953 56.9336 30.9082 56.9336L63.623 56.9336C69.2871 56.9336 72.0215 54.3457 72.0215 48.7793L72.0215 45.166L89.5996 45.166C92.2363 45.166 93.8965 43.7012 93.8965 41.4062C93.8965 39.0625 92.2852 37.5977 89.7949 37.5977L3.85742 37.5977C1.51367 37.5977 0 39.1113 0 41.4062C0 43.7012 1.61133 45.166 4.10156 45.166L7.37305 45.166L7.37305 63.4766C7.37305 69.9219 11.3281 73.7305 17.7734 73.7305L20.8008 73.7305L13.0371 102.979C12.8906 103.467 12.793 103.906 12.793 104.541C12.793 106.543 13.916 108.105 16.6016 108.105ZM26.5137 81.5918L28.5645 73.7305L65.625 73.7305L67.6758 81.5918ZM30.7129 30.3223L63.8184 30.3223C69.5312 30.3223 72.3145 27.6855 72.3145 22.0703L72.3145 8.25195C72.3145 2.63672 69.5312 0 63.8184 0L30.7129 0C24.9512 0 22.2168 2.63672 22.2168 8.25195L22.2168 22.0703C22.2168 27.6855 24.9512 30.3223 30.7129 30.3223Z" fill="#000000" fill-opacity="0.85"/>
 </g>
</svg>
