<?xml version="1.0" encoding="UTF-8"?>
<!--Generator: Apple Native CoreSVG 232.5-->
<!DOCTYPE svg
PUBLIC "-//W3C//DTD SVG 1.1//EN"
       "http://www.w3.org/Graphics/SVG/1.1/DTD/svg11.dtd">
<svg version="1.1" xmlns="http://www.w3.org/2000/svg" xmlns:xlink="http://www.w3.org/1999/xlink" width="96.9727" height="92.627">
 <g>
  <rect height="92.627" opacity="0" width="96.9727" x="0" y="0"/>
  <path d="M0 32.4707C0 53.2715 17.4316 73.7305 44.9707 91.3086C45.9961 91.9434 47.4609 92.627 48.4863 92.627C49.5117 92.627 50.9766 91.9434 52.0508 91.3086C79.541 73.7305 96.9727 53.2715 96.9727 32.4707C96.9727 15.1855 85.1074 2.97852 69.2871 2.97852C60.2539 2.97852 52.9297 7.27539 48.4863 13.8672C44.1406 7.32422 36.7188 2.97852 27.6855 2.97852C11.8652 2.97852 0 15.1855 0 32.4707ZM7.86133 32.4707C7.86133 19.4824 16.2598 10.8398 27.5879 10.8398C36.7676 10.8398 42.041 16.5527 45.166 21.4355C46.4844 23.3887 47.3145 23.9258 48.4863 23.9258C49.6582 23.9258 50.3906 23.3398 51.8066 21.4355C55.1758 16.6504 60.2539 10.8398 69.3848 10.8398C80.7129 10.8398 89.1113 19.4824 89.1113 32.4707C89.1113 50.6348 69.9219 70.2148 49.5117 83.7891C49.0234 84.1309 48.6816 84.375 48.4863 84.375C48.291 84.375 47.9492 84.1309 47.5098 83.7891C27.0508 70.2148 7.86133 50.6348 7.86133 32.4707Z" fill="#000000" fill-opacity="0.85"/>
 </g>
</svg>
