<?xml version="1.0" encoding="UTF-8"?>
<!--Generator: Apple Native CoreSVG 232.5-->
<!DOCTYPE svg
PUBLIC "-//W3C//DTD SVG 1.1//EN"
       "http://www.w3.org/Graphics/SVG/1.1/DTD/svg11.dtd">
<svg version="1.1" xmlns="http://www.w3.org/2000/svg" xmlns:xlink="http://www.w3.org/1999/xlink" width="91.6504" height="97.998">
 <g>
  <rect height="97.998" opacity="0" width="91.6504" x="0" y="0"/>
  <path d="M0 58.1543C0 69.7754 9.0332 78.8086 20.6543 78.8086C27.1484 78.8086 33.8379 76.6602 36.6699 70.9473L37.1582 70.9473C37.207 77.4414 30.0781 82.8125 27.1484 85.8398C23.6328 89.502 25.7812 94.5801 30.3223 94.5801L61.3281 94.5801C65.8691 94.5801 67.9688 89.502 64.502 85.8398C61.5723 82.8125 54.4434 77.4414 54.4922 70.9473L54.9805 70.9473C57.8125 76.6602 64.502 78.8086 70.9473 78.8086C82.6172 78.8086 91.6504 69.7754 91.6504 58.1543C91.6504 36.2793 62.5488 27.0508 50.8789 3.51562C49.9023 1.51367 48.3887 0 45.8008 0C43.2129 0 41.748 1.51367 40.7715 3.51562C29.1016 27.0508 0 36.2793 0 58.1543Z" fill="#000000" fill-opacity="0.85"/>
 </g>
</svg>
