<?xml version="1.0" encoding="UTF-8"?>
<!--Generator: Apple Native CoreSVG 232.5-->
<!DOCTYPE svg
PUBLIC "-//W3C//DTD SVG 1.1//EN"
       "http://www.w3.org/Graphics/SVG/1.1/DTD/svg11.dtd">
<svg version="1.1" xmlns="http://www.w3.org/2000/svg" xmlns:xlink="http://www.w3.org/1999/xlink" width="93.1152" height="92.334">
 <g>
  <rect height="92.334" opacity="0" width="93.1152" x="0" y="0"/>
  <path d="M0 54.834C0 67.4805 8.44727 75.9277 21.0938 75.9277C27.5391 75.9277 33.9844 73.3398 37.207 69.4824L36.4258 67.6758C35.0586 74.7559 30.3223 80.0293 27.7344 83.0078C24.707 86.7676 26.1719 91.748 31.4453 91.748L61.6699 91.748C66.9434 91.748 68.4082 86.7676 65.332 83.0078C62.793 80.0293 58.0566 74.7559 56.6895 67.6758L55.9082 69.4824C59.1309 73.3398 65.5762 75.9277 72.0215 75.9277C84.668 75.9277 93.1152 67.4805 93.1152 54.834C93.1152 43.1641 83.6426 33.6914 72.0703 33.6914C66.6992 33.6914 61.1816 35.791 56.7871 39.3555L57.3242 39.8438C64.7461 34.9609 67.627 27.4902 67.627 21.1426C67.627 9.47266 58.1543 0 46.5332 0C34.9609 0 25.4883 9.47266 25.4883 21.1426C25.4883 27.4902 28.3691 34.8145 35.6934 39.8438L36.1328 39.209C31.9336 35.791 26.416 33.6914 21.0449 33.6914C9.47266 33.6914 0 43.1641 0 54.834ZM6.93359 54.9805C6.93359 47.1191 13.2812 40.8203 21.0449 40.8203C27.0508 40.8203 31.2012 42.7734 34.5215 44.0918C36.0352 44.5801 37.2559 44.9707 38.4766 44.9707C40.2344 44.9707 41.9434 43.7988 41.9434 41.5527C41.9434 40.2832 41.4551 39.0137 40.5762 37.9883C36.2305 32.9102 32.4219 28.9062 32.4219 21.2891C32.4219 13.4277 38.7207 7.12891 46.5332 7.12891C54.3945 7.12891 60.6934 13.4277 60.6934 21.2891C60.6934 28.9062 56.8848 32.9102 52.5391 37.9883C51.6602 39.0137 51.1719 40.2832 51.1719 41.5527C51.1719 43.7988 52.8809 44.9707 54.6387 44.9707C55.8594 44.9707 57.0312 44.5801 58.5449 44.0918C61.8652 42.8223 66.0156 40.8203 72.0703 40.8203C79.834 40.8203 86.1816 47.1191 86.1816 54.9805C86.1816 63.4277 80.5176 68.9941 72.0215 68.9941C66.1133 68.9941 60.4492 66.6504 57.2266 63.7207C54.2969 61.1328 50.0977 62.3535 50.293 66.7969C50.7812 71.8262 54.1992 79.3457 57.6172 83.4961C58.3496 84.3262 57.9102 85.0098 57.1777 85.0098L35.9375 85.0098C35.2051 85.0098 34.7656 84.3262 35.498 83.4961C38.916 79.3457 42.2852 71.8262 42.8223 66.7969C43.0176 62.3535 38.8184 61.1328 35.8398 63.7207C32.6172 66.6504 27.002 68.9941 21.0938 68.9941C12.5977 68.9941 6.93359 63.4277 6.93359 54.9805Z" fill="#000000" fill-opacity="0.85"/>
 </g>
</svg>
