<?xml version="1.0" encoding="UTF-8"?>
<!--Generator: Apple Native CoreSVG 232.5-->
<!DOCTYPE svg
PUBLIC "-//W3C//DTD SVG 1.1//EN"
       "http://www.w3.org/Graphics/SVG/1.1/DTD/svg11.dtd">
<svg version="1.1" xmlns="http://www.w3.org/2000/svg" xmlns:xlink="http://www.w3.org/1999/xlink" width="134.668" height="115.479">
 <g>
  <rect height="115.479" opacity="0" width="134.668" x="0" y="0"/>
  <path d="M115.771 90.2832C117.92 90.2832 119.727 88.5254 119.727 86.3281C119.727 84.1309 117.92 82.4219 115.771 82.4219L28.5645 82.4219C24.5117 82.4219 22.4609 80.3223 22.4609 76.2207L22.4609 27.6855C22.4609 18.6035 18.2617 14.502 9.08203 14.502L3.90625 14.502C1.80664 14.502 0 16.3086 0 18.4082C0 20.5566 1.80664 22.3633 3.90625 22.3633L8.49609 22.3633C12.5488 22.3633 14.5996 24.4629 14.5996 28.5645L14.5996 77.0996C14.5996 86.1328 18.7988 90.2832 27.9785 90.2832ZM98.4863 115.43C103.418 115.43 107.568 111.279 107.568 106.396C107.568 101.416 103.418 97.2656 98.4863 97.2656C93.6035 97.2656 89.4531 101.416 89.4531 106.396C89.4531 111.279 93.6035 115.43 98.4863 115.43ZM46.1426 115.43C51.0742 115.43 55.1758 111.279 55.1758 106.396C55.1758 101.416 51.0742 97.2656 46.1426 97.2656C41.2109 97.2656 37.1094 101.416 37.1094 106.396C37.1094 111.279 41.2109 115.43 46.1426 115.43Z" fill="#000000" fill-opacity="0.85"/>
  <path d="M119.727 64.1602L119.727 24.5117C119.727 17.627 115.918 14.0137 108.545 14.0137L41.8945 14.0137C34.5215 14.0137 30.7129 17.627 30.7129 24.5117L30.7129 64.1602C30.7129 71.0938 34.5215 74.6582 41.8945 74.6582L108.545 74.6582C115.918 74.6582 119.727 71.0938 119.727 64.1602ZM105.176 74.6582L99.0723 74.6582L99.0723 14.0137L105.176 14.0137ZM51.3672 74.6582L45.2637 74.6582L45.2637 14.0137L51.3672 14.0137ZM95.3125 18.0176L95.3125 11.1328C95.3125 3.90625 91.3574 0 83.9844 0L66.4551 0C58.8867 0 55.0781 3.71094 55.0781 11.1328L55.0781 17.9199L61.9629 17.9199L61.9629 10.6934C61.9629 8.00781 63.4766 6.54297 66.3086 6.54297L84.1309 6.54297C86.9629 6.54297 88.4277 8.00781 88.4277 10.6934L88.4277 18.0176Z" fill="#000000" fill-opacity="0.85"/>
 </g>
</svg>
