<?xml version="1.0" encoding="UTF-8"?>
<!--Generator: Apple Native CoreSVG 232.5-->
<!DOCTYPE svg
PUBLIC "-//W3C//DTD SVG 1.1//EN"
       "http://www.w3.org/Graphics/SVG/1.1/DTD/svg11.dtd">
<svg version="1.1" xmlns="http://www.w3.org/2000/svg" xmlns:xlink="http://www.w3.org/1999/xlink" width="56.4453" height="89.8926">
 <g>
  <rect height="89.8926" opacity="0" width="56.4453" x="0" y="0"/>
  <path d="M6.54297 89.8926L52.002 89.8926C54.4922 89.8926 56.3965 88.3301 56.3965 85.791C56.3965 83.3008 54.4922 81.6406 52.002 81.6406L10.3027 81.6406L10.3027 81.2012L36.7188 49.1699C37.9883 47.6074 38.6719 46.0449 38.6719 44.4824C38.6719 42.8711 37.9883 41.2598 36.6699 39.7461L10.3516 8.69141L10.3516 8.25195L52.002 8.25195C54.541 8.25195 56.4453 6.5918 56.4453 4.10156C56.4453 1.5625 54.541 0 52.002 0L6.5918 0C2.39258 0 0.0488281 2.88086 0.0488281 6.10352C0.0488281 7.76367 0.683594 9.52148 1.95312 10.9863L30.127 44.1895L30.127 44.7266L1.85547 78.9062C0.634766 80.3711 0 82.1289 0 83.7891C0 87.0117 2.34375 89.8926 6.54297 89.8926Z" fill="#000000" fill-opacity="0.85"/>
 </g>
</svg>
