<?xml version="1.0" encoding="UTF-8"?>
<!--Generator: Apple Native CoreSVG 232.5-->
<!DOCTYPE svg
PUBLIC "-//W3C//DTD SVG 1.1//EN"
       "http://www.w3.org/Graphics/SVG/1.1/DTD/svg11.dtd">
<svg version="1.1" xmlns="http://www.w3.org/2000/svg" xmlns:xlink="http://www.w3.org/1999/xlink" width="125.146" height="87.4512">
 <g>
  <rect height="87.4512" opacity="0" width="125.146" x="0" y="0"/>
  <path d="M89.0137 56.25C89.0137 41.7969 77.0508 29.7363 62.5977 29.7363C48.0957 29.7363 36.1328 41.7969 36.1328 56.25C36.1328 59.8145 36.8652 63.1836 38.2324 66.2598L86.9141 66.2598C88.2812 63.1836 89.0137 59.8145 89.0137 56.25ZM10.5957 59.0332L22.6074 59.0332C25.1465 59.0332 27.0508 57.2754 27.002 55.0781C26.9531 52.8809 25.0977 51.123 22.6074 51.123L10.5957 51.123C8.05664 51.123 6.25 52.8809 6.25 55.0781C6.25 57.2754 8.05664 59.0332 10.5957 59.0332ZM31.4941 30.8594C33.252 32.666 35.8887 32.7148 37.4023 31.1523C38.916 29.5898 38.916 27.002 37.1094 25.2441L28.6133 16.748C26.8066 14.8926 24.3164 14.9902 22.7539 16.5039C21.1914 18.0176 21.1426 20.5566 22.998 22.3633ZM87.7441 31.1523C89.3066 32.666 91.8945 32.666 93.6523 30.8594L102.148 22.3633C104.004 20.5566 103.906 18.0664 102.393 16.5039C100.879 14.9414 98.3398 14.8926 96.5332 16.748L88.0371 25.2441C86.2305 27.002 86.1816 29.6387 87.7441 31.1523ZM102.539 59.0332L114.551 59.0332C117.09 59.0332 118.896 57.2754 118.896 55.0781C118.896 52.8809 117.09 51.123 114.551 51.123L102.539 51.123C100.049 51.123 98.0957 52.8809 98.1445 55.0781C98.1934 57.2754 100.049 59.0332 102.539 59.0332ZM62.5977 20.752C64.7461 20.7031 66.5527 18.8477 66.5527 16.3574L66.5527 4.3457C66.5527 1.80664 64.7461 0 62.5977 0C60.4004 0 58.5938 1.80664 58.5938 4.3457L58.5938 16.3574C58.5938 18.8477 60.4004 20.8008 62.5977 20.752Z" fill="#000000" fill-opacity="0.85"/>
  <path d="M4.24805 79.7852L120.898 79.7852C123.193 79.7852 125.146 78.0273 125.146 75.8789C125.146 73.7305 123.193 71.9727 120.898 71.9727L4.24805 71.9727C1.95312 71.9727 0 73.7305 0 75.8789C0 78.0273 1.95312 79.7852 4.24805 79.7852Z" fill="#000000" fill-opacity="0.85"/>
 </g>
</svg>
