<?xml version="1.0" encoding="UTF-8"?>
<!--Generator: Apple Native CoreSVG 232.5-->
<!DOCTYPE svg
PUBLIC "-//W3C//DTD SVG 1.1//EN"
       "http://www.w3.org/Graphics/SVG/1.1/DTD/svg11.dtd">
<svg version="1.1" xmlns="http://www.w3.org/2000/svg" xmlns:xlink="http://www.w3.org/1999/xlink" width="99.6094" height="99.6582">
 <g>
  <rect height="99.6582" opacity="0" width="99.6094" x="0" y="0"/>
  <path d="M49.8047 99.6094C77.0508 99.6094 99.6094 77.002 99.6094 49.8047C99.6094 22.5586 77.002 0 49.7559 0C22.5586 0 0 22.5586 0 49.8047C0 77.002 22.6074 99.6094 49.8047 99.6094ZM49.8047 91.3086C26.7578 91.3086 8.34961 72.8516 8.34961 49.8047C8.34961 26.7578 26.709 8.30078 49.7559 8.30078C72.8027 8.30078 91.3086 26.7578 91.3086 49.8047C91.3086 72.8516 72.8516 91.3086 49.8047 91.3086Z" fill="#000000" fill-opacity="0.85"/>
  <path d="M31.7383 48.9746C31.7383 47.4609 30.4199 46.2402 28.7598 46.2402L22.4609 46.2402C20.8008 46.2402 19.5312 47.5098 19.5312 48.9746C19.5312 50.4395 20.8008 51.6602 22.4609 51.6602L28.7598 51.6602C30.4688 51.6602 31.7383 50.4883 31.7383 48.9746ZM37.0117 36.8652C38.1348 35.791 38.0371 34.0332 36.8652 32.8613L32.3242 28.3203C31.1035 27.0996 29.3945 27.1973 28.3691 28.2227C27.2949 29.2969 27.3438 30.957 28.5645 32.1777L33.0566 36.6699C34.2285 37.8418 35.9375 37.9395 37.0117 36.8652ZM49.7559 30.0293C51.2695 30.0293 52.4902 28.6621 52.4902 27.0508L52.4902 20.7031C52.4902 19.043 51.2207 17.8223 49.7559 17.8223C48.291 17.8223 47.0703 19.043 47.0703 20.7031L47.0703 27.0508C47.0703 28.7109 48.2422 30.0293 49.7559 30.0293ZM62.5488 36.8652C63.623 37.8906 65.332 37.8906 66.5039 36.6699L70.9473 32.1777C72.168 30.957 72.2168 29.3457 71.1914 28.2227C70.1172 27.1484 68.3594 27.1484 67.1875 28.3203L62.6465 32.8613C61.4258 34.082 61.4258 35.791 62.5488 36.8652ZM67.7734 48.9746C67.7734 50.4883 69.0918 51.6602 70.752 51.6602L77.0996 51.6602C78.7598 51.6602 79.9805 50.4395 79.9805 48.9746C79.9805 47.5098 78.7598 46.2402 77.0996 46.2402L70.752 46.2402C69.0918 46.2402 67.7734 47.4609 67.7734 48.9746ZM36.0352 54.1016L63.4766 54.1016C63.9648 52.6855 64.3066 51.123 64.3066 49.6094C64.3066 41.6504 57.7148 35.0098 49.7559 35.0098C41.8457 35.0098 35.2051 41.6504 35.2051 49.6094C35.2051 51.123 35.5469 52.6855 36.0352 54.1016ZM25.8301 61.084L78.2715 61.084C79.248 61.084 79.9805 60.3516 79.9805 59.375C79.9805 58.3496 79.248 57.6172 78.2715 57.6172L25.8301 57.6172C24.8535 57.6172 24.1211 58.3984 24.1211 59.375C24.1211 60.3516 24.8535 61.084 25.8301 61.084ZM21.2891 67.7734L73.6816 67.7734C74.6582 67.7734 75.3906 67.041 75.3906 66.0645C75.3906 65.0391 74.6582 64.3066 73.6816 64.3066L21.2891 64.3066C20.3125 64.3066 19.5312 65.0879 19.5312 66.0645C19.5312 67.041 20.3125 67.7734 21.2891 67.7734ZM25.8301 74.4629L78.2715 74.4629C79.248 74.4629 79.9805 73.7305 79.9805 72.7539C79.9805 71.7285 79.248 70.9961 78.2715 70.9961L25.8301 70.9961C24.8535 70.9961 24.1211 71.7773 24.1211 72.7539C24.1211 73.7305 24.8535 74.4629 25.8301 74.4629Z" fill="#000000" fill-opacity="0.85"/>
 </g>
</svg>
