<?xml version="1.0" encoding="UTF-8"?>
<!--Generator: Apple Native CoreSVG 232.5-->
<!DOCTYPE svg
PUBLIC "-//W3C//DTD SVG 1.1//EN"
       "http://www.w3.org/Graphics/SVG/1.1/DTD/svg11.dtd">
<svg version="1.1" xmlns="http://www.w3.org/2000/svg" xmlns:xlink="http://www.w3.org/1999/xlink" width="112.695" height="117.529">
 <g>
  <rect height="117.529" opacity="0" width="112.695" x="0" y="0"/>
  <path d="M82.8125 56.25C82.8125 41.8457 70.8008 29.7852 56.3477 29.7852C41.8945 29.7852 29.8828 41.8457 29.8828 56.25C29.8828 59.7656 30.6641 63.1348 31.9336 66.1133L80.7129 66.1133C82.0312 63.1348 82.8125 59.7656 82.8125 56.25ZM4.3457 59.0332L16.3574 59.0332C18.8965 59.0332 20.8008 57.2754 20.752 55.0781C20.7031 52.9297 18.8965 51.123 16.3574 51.123L4.3457 51.123C1.80664 51.123 0 52.8809 0 55.0781C0 57.2754 1.80664 59.0332 4.3457 59.0332ZM31.1523 31.1523C32.666 29.5898 32.666 27.0508 30.8594 25.2441L22.3633 16.748C20.5566 14.9414 18.0664 14.9902 16.5039 16.5039C14.9414 18.0176 14.9414 20.5566 16.748 22.3633L25.2441 30.8594C27.0508 32.666 29.6387 32.7148 31.1523 31.1523ZM56.3477 20.752C58.5449 20.7031 60.3027 18.8477 60.3027 16.3574L60.3027 4.3457C60.3027 1.80664 58.5449 0 56.3477 0C54.1504 0 52.3926 1.80664 52.3926 4.3457L52.3926 16.3574C52.3926 18.8477 54.1504 20.8008 56.3477 20.752ZM81.543 31.1523C83.0566 32.666 85.6445 32.666 87.4512 30.8594L95.9473 22.3633C97.7539 20.5566 97.7051 18.0664 96.1426 16.5039C94.6777 14.9414 92.1387 14.9414 90.2832 16.748L81.7871 25.2441C80.0293 27.0508 79.9805 29.6387 81.543 31.1523ZM96.3379 59.0332L108.35 59.0332C110.889 59.082 112.695 57.2754 112.695 55.0781C112.695 52.9297 110.889 51.123 108.35 51.123L96.3379 51.123C93.7988 51.123 91.8945 52.8809 91.9434 55.0781C91.9922 57.2754 93.7988 59.0332 96.3379 59.0332Z" fill="#000000" fill-opacity="0.85"/>
  <path d="M26.6113 100.83L32.959 89.8438C33.8379 88.3301 33.3496 86.6211 31.9336 85.7422C30.4199 84.9121 28.7598 85.4004 27.8809 86.8652L21.4844 97.998C20.6543 99.4141 21.0449 101.123 22.5586 101.953C24.0234 102.783 25.7812 102.295 26.6113 100.83ZM37.9395 114.746L52.3926 89.7461C53.2227 88.3301 52.7832 86.6699 51.3672 85.791C50 84.9609 48.1934 85.4004 47.3633 86.8652L33.0078 111.768C32.1777 113.281 32.6172 114.99 34.082 115.82C35.4492 116.65 37.1094 116.211 37.9395 114.746ZM65.4297 100.781L71.8262 89.7949C72.7051 88.2812 72.2168 86.5723 70.752 85.6934C69.2871 84.8633 67.627 85.3516 66.6992 86.8164L60.3027 97.9492C59.4727 99.3652 59.9121 101.074 61.4258 101.904C62.8418 102.734 64.5996 102.246 65.4297 100.781ZM76.8066 114.697L91.2109 89.6973C92.0898 88.2812 91.6504 86.6211 90.2344 85.7422C88.8184 84.9121 87.0605 85.3516 86.1816 86.8164L71.875 111.719C71.0449 113.232 71.4355 114.941 72.9004 115.771C74.3164 116.602 75.9766 116.162 76.8066 114.697Z" fill="#000000" fill-opacity="0.85"/>
  <path d="M6.64062 77.9785L105.811 77.9785C107.568 77.9785 108.887 76.6602 108.887 74.9023C108.887 73.1445 107.568 71.8262 105.811 71.8262L6.64062 71.8262C4.93164 71.8262 3.56445 73.1445 3.56445 74.9023C3.56445 76.6602 4.93164 77.9785 6.64062 77.9785Z" fill="#000000" fill-opacity="0.85"/>
 </g>
</svg>
