<?xml version="1.0" encoding="UTF-8"?>
<!--Generator: Apple Native CoreSVG 232.5-->
<!DOCTYPE svg
PUBLIC "-//W3C//DTD SVG 1.1//EN"
       "http://www.w3.org/Graphics/SVG/1.1/DTD/svg11.dtd">
<svg version="1.1" xmlns="http://www.w3.org/2000/svg" xmlns:xlink="http://www.w3.org/1999/xlink" width="112.695" height="117.529">
 <g>
  <rect height="117.529" opacity="0" width="112.695" x="0" y="0"/>
  <path d="M83.0566 56.3477C83.0566 62.1093 81.1733 67.4866 77.9454 71.8262L66.8413 71.8262C71.8404 68.5252 75.1953 62.7996 75.1953 56.3477C75.1953 45.9961 66.6992 37.5 56.3477 37.5C45.9961 37.5 37.5 45.9961 37.5 56.3477C37.5 62.7996 40.8549 68.5252 45.854 71.8262L34.7156 71.8262C31.522 67.4866 29.6387 62.1093 29.6387 56.3477C29.6387 41.6992 41.748 29.5898 56.3477 29.5898C70.8984 29.5898 83.0566 41.6992 83.0566 56.3477ZM20.752 55.0781C20.8008 57.2754 18.8965 59.0332 16.3574 59.0332L4.3457 59.0332C1.80664 59.0332 0 57.2754 0 55.0781C0 52.8809 1.80664 51.123 4.3457 51.123L16.3574 51.123C18.8965 51.123 20.7031 52.9297 20.752 55.0781ZM112.695 55.0781C112.695 57.2754 110.889 59.0332 108.35 59.0332L96.3379 59.0332C93.7988 59.0332 91.9922 57.2754 91.9434 55.0781C91.8945 52.8809 93.7988 51.123 96.3379 51.123L108.35 51.123C110.889 51.123 112.695 52.9297 112.695 55.0781ZM22.3633 16.748L30.8594 25.2441C32.666 27.0508 32.666 29.5898 31.1523 31.1523C29.6387 32.7148 27.0508 32.666 25.2441 30.8594L16.748 22.3633C14.9414 20.5566 14.9414 18.0176 16.5039 16.5039C18.0664 14.9902 20.5566 14.9414 22.3633 16.748ZM96.1426 16.5039C97.7051 18.0664 97.7539 20.5566 95.9473 22.3633L87.4512 30.8594C85.6445 32.666 83.0566 32.666 81.543 31.1523C79.9805 29.6387 80.0293 27.0508 81.7871 25.2441L90.2832 16.748C92.1387 14.9414 94.6777 14.9414 96.1426 16.5039ZM60.3027 4.3457L60.3027 16.3574C60.3027 18.8477 58.5449 20.7031 56.3477 20.752C54.1504 20.8008 52.3926 18.8477 52.3926 16.3574L52.3926 4.3457C52.3926 1.80664 54.1504 0 56.3477 0C58.5449 0 60.3027 1.80664 60.3027 4.3457Z" fill="#000000" fill-opacity="0.85"/>
  <path d="M10.4492 77.9785L109.619 77.9785C111.328 77.9785 112.695 76.6602 112.695 74.9023C112.695 73.1445 111.328 71.8262 109.619 71.8262L10.4492 71.8262C8.69141 71.8262 7.37305 73.1445 7.37305 74.9023C7.37305 76.6602 8.69141 77.9785 10.4492 77.9785ZM3.07617 96.7773L102.246 96.7773C103.955 96.7773 105.322 95.4102 105.322 93.6523C105.322 91.8945 103.955 90.5762 102.246 90.5762L3.07617 90.5762C1.36719 90.5762 0 91.8945 0 93.6523C0 95.4102 1.36719 96.7773 3.07617 96.7773ZM10.4492 115.527L109.619 115.527C111.328 115.527 112.695 114.209 112.695 112.451C112.695 110.645 111.328 109.326 109.619 109.326L10.4492 109.326C8.69141 109.326 7.37305 110.645 7.37305 112.451C7.37305 114.209 8.69141 115.527 10.4492 115.527Z" fill="#000000" fill-opacity="0.85"/>
 </g>
</svg>
