<?xml version="1.0" encoding="UTF-8"?>
<!--Generator: Apple Native CoreSVG 232.5-->
<!DOCTYPE svg
PUBLIC "-//W3C//DTD SVG 1.1//EN"
       "http://www.w3.org/Graphics/SVG/1.1/DTD/svg11.dtd">
<svg version="1.1" xmlns="http://www.w3.org/2000/svg" xmlns:xlink="http://www.w3.org/1999/xlink" width="99.6094" height="99.6582">
 <g>
  <rect height="99.6582" opacity="0" width="99.6094" x="0" y="0"/>
  <path d="M49.8047 99.6094C77.0508 99.6094 99.6094 77.002 99.6094 49.8047C99.6094 22.5586 77.002 0 49.7559 0C22.5586 0 0 22.5586 0 49.8047C0 77.002 22.6074 99.6094 49.8047 99.6094ZM49.8047 91.3086C26.7578 91.3086 8.34961 72.8516 8.34961 49.8047C8.34961 26.7578 26.709 8.30078 49.7559 8.30078C72.8027 8.30078 91.3086 26.7578 91.3086 49.8047C91.3086 72.8516 72.8516 91.3086 49.8047 91.3086Z" fill="#000000" fill-opacity="0.85"/>
  <path d="M22.4609 57.3242L28.7598 57.3242C30.4688 57.3242 31.7383 56.1523 31.7383 54.5898C31.7383 53.0762 30.4199 51.9043 28.7598 51.9043L22.4609 51.9043C20.8008 51.9043 19.5312 53.125 19.5312 54.5898C19.5312 56.0547 20.8008 57.3242 22.4609 57.3242ZM33.0566 42.334C34.1797 43.5059 35.9375 43.6035 37.0117 42.4805C38.1348 41.4062 38.0371 39.6484 36.8652 38.5254L32.3242 33.9844C31.1035 32.7148 29.4434 32.8613 28.3691 33.8867C27.3438 34.9609 27.3438 36.6211 28.5645 37.8418ZM62.5488 42.4805C63.623 43.5547 65.332 43.5547 66.5039 42.334L70.9473 37.8418C72.168 36.6211 72.2168 34.9609 71.1914 33.8867C70.1172 32.7637 68.3594 32.7637 67.1875 33.9844L62.6465 38.5254C61.4258 39.6973 61.4258 41.4062 62.5488 42.4805ZM70.752 57.3242L77.0996 57.3242C78.7598 57.3242 79.9805 56.1035 79.9805 54.5898C79.9805 53.125 78.7598 51.9043 77.0996 51.9043L70.752 51.9043C69.0918 51.9043 67.7734 53.0762 67.7734 54.5898C67.7734 56.1035 69.0918 57.3242 70.752 57.3242ZM64.3066 55.2246C64.3066 47.2656 57.7148 40.625 49.7559 40.625C41.8457 40.625 35.2051 47.2656 35.2051 55.2246C35.2051 56.7871 35.5469 58.3008 36.0352 59.7168L63.4766 59.7168C63.9648 58.3008 64.3066 56.7871 64.3066 55.2246ZM22.4121 68.6035L77.1484 68.6035C78.6133 68.6035 79.9805 67.4316 79.9805 65.918C79.9805 64.4043 78.6621 63.2812 77.1484 63.2812L22.4121 63.2812C20.8984 63.2812 19.5312 64.4043 19.5312 65.918C19.5312 67.4316 20.9473 68.6035 22.4121 68.6035ZM52.4902 32.666L52.4902 26.3672C52.4902 24.6582 51.2207 23.4375 49.7559 23.4375C48.291 23.4375 47.0703 24.6582 47.0703 26.3672L47.0703 32.666C47.0703 34.3262 48.2422 35.6445 49.7559 35.6445C51.2695 35.6445 52.4902 34.2773 52.4902 32.666Z" fill="#000000" fill-opacity="0.85"/>
 </g>
</svg>
