<?xml version="1.0" encoding="UTF-8"?>
<!--Generator: Apple Native CoreSVG 232.5-->
<!DOCTYPE svg
PUBLIC "-//W3C//DTD SVG 1.1//EN"
       "http://www.w3.org/Graphics/SVG/1.1/DTD/svg11.dtd">
<svg version="1.1" xmlns="http://www.w3.org/2000/svg" xmlns:xlink="http://www.w3.org/1999/xlink" width="112.695" height="117.529">
 <g>
  <rect height="117.529" opacity="0" width="112.695" x="0" y="0"/>
  <path d="M83.0566 56.3477C83.0566 62.1093 81.1733 67.4866 77.9454 71.8262L66.8413 71.8262C71.8404 68.5252 75.1953 62.7996 75.1953 56.3477C75.1953 45.9961 66.6992 37.5 56.3477 37.5C45.9961 37.5 37.5 45.9961 37.5 56.3477C37.5 62.7996 40.8549 68.5252 45.854 71.8262L34.7156 71.8262C31.522 67.4866 29.6387 62.1093 29.6387 56.3477C29.6387 41.6992 41.748 29.5898 56.3477 29.5898C70.8984 29.5898 83.0566 41.6992 83.0566 56.3477ZM20.752 55.0781C20.8008 57.2754 18.8965 59.0332 16.3574 59.0332L4.3457 59.0332C1.80664 59.0332 0 57.2754 0 55.0781C0 52.8809 1.80664 51.123 4.3457 51.123L16.3574 51.123C18.8965 51.123 20.7031 52.9297 20.752 55.0781ZM112.695 55.0781C112.695 57.2754 110.889 59.0332 108.35 59.0332L96.3379 59.0332C93.7988 59.0332 91.9922 57.2754 91.9434 55.0781C91.8945 52.8809 93.7988 51.123 96.3379 51.123L108.35 51.123C110.889 51.123 112.695 52.9297 112.695 55.0781ZM22.3633 16.748L30.8594 25.2441C32.666 27.0508 32.666 29.5898 31.1523 31.1523C29.6387 32.7148 27.0508 32.666 25.2441 30.8594L16.748 22.3633C14.9414 20.5566 14.9414 18.0176 16.5039 16.5039C18.0664 14.9902 20.5566 14.9414 22.3633 16.748ZM96.1426 16.5039C97.7051 18.0664 97.7539 20.5566 95.9473 22.3633L87.4512 30.8594C85.6445 32.666 83.0566 32.666 81.543 31.1523C79.9805 29.6387 80.0293 27.0508 81.7871 25.2441L90.2832 16.748C92.1387 14.9414 94.6777 14.9414 96.1426 16.5039ZM60.3027 4.3457L60.3027 16.3574C60.3027 18.8477 58.5449 20.7031 56.3477 20.752C54.1504 20.8008 52.3926 18.8477 52.3926 16.3574L52.3926 4.3457C52.3926 1.80664 54.1504 0 56.3477 0C58.5449 0 60.3027 1.80664 60.3027 4.3457Z" fill="#000000" fill-opacity="0.85"/>
  <path d="M6.64062 77.9785L105.811 77.9785C107.568 77.9785 108.887 76.6602 108.887 74.9023C108.887 73.1445 107.568 71.8262 105.811 71.8262L6.64062 71.8262C4.93164 71.8262 3.56445 73.1445 3.56445 74.9023C3.56445 76.6602 4.93164 77.9785 6.64062 77.9785ZM11.0352 93.7988C12.4512 93.7988 13.5254 92.6758 13.5254 91.3086C13.5254 89.8926 12.4512 88.7695 11.0352 88.7695C9.61914 88.7695 8.54492 89.8926 8.54492 91.3086C8.54492 92.6758 9.61914 93.7988 11.0352 93.7988ZM31.6406 93.7988C33.0566 93.7988 34.1797 92.6758 34.1797 91.3086C34.1797 89.8926 33.0566 88.7695 31.6406 88.7695C30.2734 88.7695 29.1504 89.8926 29.1504 91.3086C29.1504 92.6758 30.2734 93.7988 31.6406 93.7988ZM52.2949 93.7988C53.7109 93.7988 54.7852 92.6758 54.7852 91.3086C54.7852 89.8926 53.7109 88.7695 52.2949 88.7695C50.8789 88.7695 49.8047 89.8926 49.8047 91.3086C49.8047 92.6758 50.8789 93.7988 52.2949 93.7988ZM72.9004 93.7988C74.3164 93.7988 75.4395 92.6758 75.4395 91.3086C75.4395 89.8926 74.3164 88.7695 72.9004 88.7695C71.5332 88.7695 70.4102 89.8926 70.4102 91.3086C70.4102 92.6758 71.5332 93.7988 72.9004 93.7988ZM93.5547 93.7988C94.9707 93.7988 96.0449 92.6758 96.0449 91.3086C96.0449 89.8926 94.9707 88.7695 93.5547 88.7695C92.1387 88.7695 91.0645 89.8926 91.0645 91.3086C91.0645 92.6758 92.1387 93.7988 93.5547 93.7988ZM4.78516 105.615C6.20117 105.615 7.32422 104.541 7.32422 103.125C7.32422 101.709 6.20117 100.635 4.78516 100.635C3.41797 100.635 2.29492 101.709 2.29492 103.125C2.29492 104.541 3.41797 105.615 4.78516 105.615ZM25.4395 105.615C26.8066 105.615 27.9297 104.541 27.9297 103.125C27.9297 101.709 26.8066 100.635 25.4395 100.635C24.0234 100.635 22.9004 101.709 22.9004 103.125C22.9004 104.541 24.0234 105.615 25.4395 105.615ZM46.0449 105.615C47.4609 105.615 48.584 104.541 48.584 103.125C48.584 101.709 47.4609 100.635 46.0449 100.635C44.6777 100.635 43.5547 101.709 43.5547 103.125C43.5547 104.541 44.6777 105.615 46.0449 105.615ZM66.6992 105.615C68.0664 105.615 69.1895 104.541 69.1895 103.125C69.1895 101.709 68.0664 100.635 66.6992 100.635C65.2832 100.635 64.1602 101.709 64.1602 103.125C64.1602 104.541 65.2832 105.615 66.6992 105.615ZM87.3047 105.615C88.7207 105.615 89.8438 104.541 89.8438 103.125C89.8438 101.709 88.7207 100.635 87.3047 100.635C85.9375 100.635 84.8145 101.709 84.8145 103.125C84.8145 104.541 85.9375 105.615 87.3047 105.615ZM107.959 105.615C109.326 105.615 110.449 104.541 110.449 103.125C110.449 101.709 109.326 100.635 107.959 100.635C106.543 100.635 105.42 101.709 105.42 103.125C105.42 104.541 106.543 105.615 107.959 105.615ZM19.1895 117.48C20.6055 117.48 21.6797 116.357 21.6797 114.99C21.6797 113.574 20.6055 112.451 19.1895 112.451C17.7734 112.451 16.6992 113.574 16.6992 114.99C16.6992 116.357 17.7734 117.48 19.1895 117.48ZM39.8438 117.48C41.2109 117.48 42.334 116.357 42.334 114.99C42.334 113.574 41.2109 112.451 39.8438 112.451C38.4277 112.451 37.3047 113.574 37.3047 114.99C37.3047 116.357 38.4277 117.48 39.8438 117.48ZM60.4492 117.48C61.8652 117.48 62.9395 116.357 62.9395 114.99C62.9395 113.574 61.8652 112.451 60.4492 112.451C59.0332 112.451 57.959 113.574 57.959 114.99C57.959 116.357 59.0332 117.48 60.4492 117.48ZM81.1035 117.48C82.4707 117.48 83.5938 116.357 83.5938 114.99C83.5938 113.574 82.4707 112.451 81.1035 112.451C79.6875 112.451 78.5645 113.574 78.5645 114.99C78.5645 116.357 79.6875 117.48 81.1035 117.48ZM101.709 117.48C103.125 117.48 104.199 116.357 104.199 114.99C104.199 113.574 103.125 112.451 101.709 112.451C100.293 112.451 99.2188 113.574 99.2188 114.99C99.2188 116.357 100.293 117.48 101.709 117.48Z" fill="#000000" fill-opacity="0.85"/>
 </g>
</svg>
