<?xml version="1.0" encoding="UTF-8"?>
<!--Generator: Apple Native CoreSVG 232.5-->
<!DOCTYPE svg
PUBLIC "-//W3C//DTD SVG 1.1//EN"
       "http://www.w3.org/Graphics/SVG/1.1/DTD/svg11.dtd">
<svg version="1.1" xmlns="http://www.w3.org/2000/svg" xmlns:xlink="http://www.w3.org/1999/xlink" width="150.928" height="50.9277">
 <g>
  <rect height="50.9277" opacity="0" width="150.928" x="0" y="0"/>
  <path d="M150.928 4.05273C150.928 6.88477 147.021 8.98438 146.045 15.5762L145.117 21.6309C142.334 40.2832 130.225 50.8789 113.037 50.8789C101.27 50.8789 90.5762 45.459 84.7168 32.7148L79.4434 21.0449C78.6133 19.2383 77.1484 18.2617 75.4883 18.2617C73.7793 18.2617 72.3145 19.2383 71.5332 21.0449L66.2109 32.7148C60.4004 45.459 49.707 50.8789 37.9395 50.8789C20.7031 50.8789 8.59375 40.2832 5.85938 21.6309L4.93164 15.5762C3.95508 8.98438 0 6.88477 0 4.05273C0 1.5625 1.85547 0 5.22461 0C20.5566 0 34.5215 0.78125 42.8223 2.00195C60.2539 4.58984 67.0898 9.0332 75.4883 9.0332C83.8379 9.0332 90.6738 4.58984 108.105 2.00195C116.406 0.78125 130.371 0 145.752 0C149.121 0 150.928 1.5625 150.928 4.05273ZM12.9883 16.748C12.9883 32.4707 21.875 43.5059 37.9883 43.5059C52.1973 43.5059 60.498 33.4961 60.498 21.0449C60.498 12.793 49.7559 8.59375 27.9297 8.59375C17.627 8.59375 12.9883 11.2305 12.9883 16.748ZM90.4297 21.0449C90.4297 33.4961 98.7793 43.5059 112.939 43.5059C129.053 43.5059 137.939 32.4707 137.939 16.748C137.939 11.2305 133.35 8.59375 122.998 8.59375C101.172 8.59375 90.4297 12.793 90.4297 21.0449Z" fill="#000000" fill-opacity="0.85"/>
 </g>
</svg>
