<?xml version="1.0" encoding="UTF-8"?>
<!--Generator: Apple Native CoreSVG 232.5-->
<!DOCTYPE svg
PUBLIC "-//W3C//DTD SVG 1.1//EN"
       "http://www.w3.org/Graphics/SVG/1.1/DTD/svg11.dtd">
<svg version="1.1" xmlns="http://www.w3.org/2000/svg" xmlns:xlink="http://www.w3.org/1999/xlink" width="125.146" height="102.002">
 <g>
  <rect height="102.002" opacity="0" width="125.146" x="0" y="0"/>
  <path d="M4.24805 101.904L120.898 101.904C123.193 101.904 125.146 100.146 125.146 97.998C125.146 95.8496 123.193 94.0918 120.898 94.0918L4.24805 94.0918C1.95312 94.0918 0 95.8496 0 97.998C0 100.146 1.95312 101.904 4.24805 101.904Z" fill="#000000" fill-opacity="0.85"/>
  <path d="M89.0137 78.3691C89.0137 63.9648 77.0508 51.9043 62.5977 51.9043C48.0957 51.9043 36.1328 63.9648 36.1328 78.3691C36.1328 81.9336 36.8652 85.3516 38.2324 88.3789L86.9141 88.3789C88.2812 85.3516 89.0137 81.9336 89.0137 78.3691ZM10.5957 81.1523L22.6074 81.1523C25.1465 81.1523 27.0508 79.3945 27.002 77.1973C26.9531 75 25.0977 73.2422 22.6074 73.2422L10.5957 73.2422C8.05664 73.2422 6.25 75 6.25 77.1973C6.25 79.3945 8.05664 81.1523 10.5957 81.1523ZM31.4941 52.9785C33.252 54.7852 35.8887 54.834 37.4023 53.2715C38.916 51.709 38.916 49.1211 37.1094 47.3633L28.6133 38.8672C26.8066 37.0605 24.3164 37.1094 22.7539 38.623C21.1914 40.1367 21.1426 42.6758 22.998 44.4824ZM87.7441 53.2715C89.3066 54.7852 91.8945 54.7852 93.6523 52.9785L102.148 44.4824C104.004 42.6758 103.906 40.1855 102.393 38.623C100.879 37.0605 98.3398 37.0605 96.5332 38.8672L88.0371 47.3633C86.2305 49.1211 86.1816 51.7578 87.7441 53.2715ZM102.539 81.1523L114.551 81.1523C117.09 81.1523 118.896 79.3945 118.896 77.1973C118.896 75 117.09 73.2422 114.551 73.2422L102.539 73.2422C100.049 73.2422 98.0957 75 98.1445 77.1973C98.1934 79.3945 100.049 81.1523 102.539 81.1523Z" fill="#000000" fill-opacity="0.85"/>
  <path d="M62.5977 39.8438C64.7461 39.8438 66.5527 37.9395 66.5527 35.5469L66.5527 17.2363L65.9668 9.86328L69.5801 14.0137L75.6836 20.2148C76.416 20.8984 77.3438 21.3379 78.2715 21.3379C80.2246 21.3379 81.6406 19.9707 81.6406 18.0664C81.6406 17.041 81.2988 16.2598 80.4688 15.4785L65.2344 1.26953C64.209 0.341797 63.4766 0 62.5977 0C61.6699 0 60.9375 0.341797 59.9121 1.26953L44.6777 15.4785C43.8477 16.2598 43.5059 17.041 43.5059 18.0664C43.5059 19.9707 44.9219 21.3379 46.875 21.3379C47.8027 21.3379 48.7305 20.8984 49.4629 20.2148L56.0547 13.5254L59.1797 9.86328L58.5938 17.2363L58.5938 35.5469C58.5938 37.9395 60.4004 39.8438 62.5977 39.8438Z" fill="#000000" fill-opacity="0.85"/>
 </g>
</svg>
