<?xml version="1.0" encoding="UTF-8"?>
<!--Generator: Apple Native CoreSVG 232.5-->
<!DOCTYPE svg
PUBLIC "-//W3C//DTD SVG 1.1//EN"
       "http://www.w3.org/Graphics/SVG/1.1/DTD/svg11.dtd">
<svg version="1.1" xmlns="http://www.w3.org/2000/svg" xmlns:xlink="http://www.w3.org/1999/xlink" width="99.6094" height="99.6582">
 <g>
  <rect height="99.6582" opacity="0" width="99.6094" x="0" y="0"/>
  <path d="M49.8047 99.6094C77.0508 99.6094 99.6094 77.002 99.6094 49.8047C99.6094 22.5586 77.002 0 49.7559 0C22.5586 0 0 22.5586 0 49.8047C0 77.002 22.6074 99.6094 49.8047 99.6094ZM49.8047 91.3086C26.7578 91.3086 8.34961 72.8516 8.34961 49.8047C8.34961 26.7578 26.709 8.30078 49.7559 8.30078C72.8027 8.30078 91.3086 26.7578 91.3086 49.8047C91.3086 72.8516 72.8516 91.3086 49.8047 91.3086Z" fill="#000000" fill-opacity="0.85"/>
  <path d="M24.2676 59.9121L30.2246 59.9121C31.7383 59.9121 32.959 58.8379 32.959 57.373C32.959 55.957 31.7383 54.8828 30.2246 54.8828L24.2676 54.8828C22.7051 54.8828 21.5332 56.0059 21.5332 57.373C21.5332 58.7402 22.7051 59.9121 24.2676 59.9121ZM34.1797 45.9473C35.2539 47.0215 36.9141 47.1191 37.8906 46.0938C38.916 45.0684 38.7695 43.457 37.7441 42.3828L33.4961 38.1348C32.373 37.0117 30.7617 37.1094 29.7852 38.0371C28.8086 39.0625 28.8086 40.5762 29.9316 41.6992ZM49.7559 39.6973C51.1719 39.6973 52.2949 38.4766 52.2949 37.0117L52.2949 28.0273L52.1484 26.2207L52.7832 26.8555L55.7617 29.9316C56.1523 30.3711 56.8848 30.6641 57.4707 30.6641C58.7402 30.6641 59.668 29.6875 59.668 28.4668C59.668 27.832 59.5215 27.2949 58.8867 26.709L51.4648 19.7754C50.8789 19.2383 50.3418 18.9941 49.7559 18.9941C49.1699 18.9941 48.6328 19.2383 48.0469 19.7754L40.625 26.709C40.0391 27.2949 39.8438 27.832 39.8438 28.4668C39.8438 29.6875 40.7715 30.6641 42.041 30.6641C42.627 30.6641 43.3105 30.3711 43.7988 29.9316L47.1191 26.6602L47.3633 26.3672L47.2168 28.0273L47.2168 37.0117C47.2168 38.4766 48.3398 39.6973 49.7559 39.6973ZM61.7188 46.0938C62.6953 47.0703 64.2578 47.0703 65.3809 45.9473L69.5801 41.6992C70.6543 40.5762 70.7031 39.0625 69.7266 38.0371C68.75 37.0117 67.1387 37.0605 66.0156 38.1348L61.8164 42.3828C60.6934 43.5059 60.6445 45.0684 61.7188 46.0938ZM69.3359 59.9121L75.2441 59.9121C76.8555 59.9121 77.9785 58.7891 77.9785 57.373C77.9785 56.0059 76.8555 54.8828 75.2441 54.8828L69.3359 54.8828C67.8223 54.8828 66.5527 55.957 66.5527 57.373C66.5527 58.8379 67.8223 59.9121 69.3359 59.9121ZM63.3301 57.959C63.3301 50.5371 57.1777 44.3359 49.7559 44.3359C42.3828 44.3359 36.1816 50.5371 36.1816 57.959C36.1816 59.4238 36.4746 60.8398 36.9629 62.2559L62.5488 62.2559C63.0371 60.8398 63.3301 59.4238 63.3301 57.959ZM24.2188 70.2148L75.293 70.2148C76.709 70.2148 77.9785 69.1406 77.9785 67.7246C77.9785 66.3086 76.7578 65.2344 75.293 65.2344L24.2188 65.2344C22.8027 65.2344 21.5332 66.3086 21.5332 67.7246C21.5332 69.1406 22.8516 70.2148 24.2188 70.2148Z" fill="#000000" fill-opacity="0.85"/>
 </g>
</svg>
