<?xml version="1.0" encoding="UTF-8"?>
<!--Generator: Apple Native CoreSVG 232.5-->
<!DOCTYPE svg
PUBLIC "-//W3C//DTD SVG 1.1//EN"
       "http://www.w3.org/Graphics/SVG/1.1/DTD/svg11.dtd">
<svg version="1.1" xmlns="http://www.w3.org/2000/svg" xmlns:xlink="http://www.w3.org/1999/xlink" width="125.146" height="102.002">
 <g>
  <rect height="102.002" opacity="0" width="125.146" x="0" y="0"/>
  <path d="M89.2578 78.6133C89.2578 84.3749 87.3745 89.7523 84.1809 94.0918L73.0621 94.0918C78.0904 90.7908 81.4453 85.0652 81.4453 78.6133C81.4453 68.2617 72.9004 59.7168 62.5977 59.7168C52.2461 59.7168 43.7012 68.2617 43.7012 78.6133C43.7012 85.0652 47.0561 90.7908 52.0844 94.0918L40.9656 94.0918C37.772 89.7523 35.8887 84.3749 35.8887 78.6133C35.8887 63.9648 47.998 51.8555 62.5977 51.8555C77.1484 51.8555 89.2578 63.9648 89.2578 78.6133ZM27.002 77.3438C27.0508 79.541 25.1465 81.2988 22.6074 81.2988L10.5957 81.2988C8.05664 81.2988 6.25 79.541 6.25 77.3438C6.25 75.1465 8.05664 73.3887 10.5957 73.3887L22.6074 73.3887C25.0977 73.3887 26.9531 75.1465 27.002 77.3438ZM118.896 77.3438C118.896 79.541 117.09 81.2988 114.551 81.2988L102.539 81.2988C100.049 81.2988 98.1934 79.541 98.1445 77.3438C98.0957 75.1465 100.049 73.3887 102.539 73.3887L114.551 73.3887C117.09 73.3887 118.896 75.1465 118.896 77.3438ZM28.6133 39.0137L37.1094 47.5098C38.916 49.2676 38.916 51.8555 37.4023 53.418C35.8887 54.9805 33.252 54.9316 31.4941 53.125L22.998 44.6289C21.1426 42.8223 21.1914 40.2832 22.7539 38.7695C24.3164 37.2559 26.8066 37.207 28.6133 39.0137ZM102.393 38.7695C103.906 40.332 104.004 42.8223 102.148 44.6289L93.6523 53.125C91.8945 54.9316 89.3066 54.9316 87.7441 53.418C86.1816 51.9043 86.2305 49.2676 88.0371 47.5098L96.5332 39.0137C98.3398 37.207 100.879 37.207 102.393 38.7695Z" fill="#000000" fill-opacity="0.85"/>
  <path d="M4.24805 101.904L120.898 101.904C123.193 101.904 125.146 100.146 125.146 97.998C125.146 95.8496 123.193 94.0918 120.898 94.0918L4.24805 94.0918C1.95312 94.0918 0 95.8496 0 97.998C0 100.146 1.95312 101.904 4.24805 101.904Z" fill="#000000" fill-opacity="0.85"/>
  <path d="M62.5977 0C60.4004 0 58.5938 1.95312 58.5938 4.3457L58.5938 22.6074L59.1797 29.9805L56.0547 26.3184L49.4629 19.6777C48.7305 18.9453 47.8027 18.5547 46.875 18.5547C44.9219 18.5547 43.5059 19.873 43.5059 21.8262C43.5059 22.8516 43.8477 23.6328 44.6777 24.3652L59.9121 38.5742C60.9375 39.502 61.6699 39.8438 62.5977 39.8438C63.4766 39.8438 64.209 39.502 65.2344 38.5742L80.4688 24.3652C81.2988 23.6328 81.6406 22.8516 81.6406 21.8262C81.6406 19.873 80.2246 18.5547 78.2715 18.5547C77.3438 18.5547 76.416 18.9453 75.6836 19.6777L69.5801 25.8301L65.9668 29.9805L66.5527 22.6074L66.5527 4.3457C66.5527 1.95312 64.7461 0 62.5977 0Z" fill="#000000" fill-opacity="0.85"/>
 </g>
</svg>
