<?xml version="1.0" encoding="UTF-8"?>
<!--Generator: Apple Native CoreSVG 232.5-->
<!DOCTYPE svg
PUBLIC "-//W3C//DTD SVG 1.1//EN"
       "http://www.w3.org/Graphics/SVG/1.1/DTD/svg11.dtd">
<svg version="1.1" xmlns="http://www.w3.org/2000/svg" xmlns:xlink="http://www.w3.org/1999/xlink" width="120.521" height="126.846">
 <g>
  <rect height="126.846" opacity="0" width="120.521" x="0" y="0"/>
  <path d="M5.47554 121.357C11.5302 127.412 19.4404 128.438 29.7431 124.531C46.5888 118.037 65.9248 104.023 83.9912 85.9571C117.731 52.2169 128.474 26.045 114.655 12.2266C100.837-1.59174 74.6162 9.10162 40.8759 42.8419C22.8095 60.9083 8.84468 80.293 2.35054 97.1387C-1.60454 107.393-0.530316 115.303 5.47554 121.357ZM11.0419 115.84C6.89156 111.641 6.59859 105.732 10.0654 98.0665C17.6826 81.6114 30.8662 63.9356 46.3935 48.3594C76.2275 18.5255 98.7373 7.34381 109.089 17.7442C119.538 28.1446 108.308 50.6055 78.4736 80.4395C62.9462 96.0157 45.2216 109.15 28.8154 116.768C21.1494 120.283 15.1923 119.99 11.0419 115.84ZM7.1357 116.719L10.1142 119.746L112.604 17.3047L109.577 14.2774Z" fill="#000000" fill-opacity="0.85"/>
 </g>
</svg>
