<?xml version="1.0" encoding="UTF-8"?>
<!--Generator: Apple Native CoreSVG 232.5-->
<!DOCTYPE svg
PUBLIC "-//W3C//DTD SVG 1.1//EN"
       "http://www.w3.org/Graphics/SVG/1.1/DTD/svg11.dtd">
<svg version="1.1" xmlns="http://www.w3.org/2000/svg" xmlns:xlink="http://www.w3.org/1999/xlink" width="173.193" height="121.826">
 <g>
  <rect height="121.826" opacity="0" width="173.193" x="0" y="0"/>
  <path d="M38.8184 98.8281C46.1426 98.8281 51.9043 93.0664 51.9043 85.791C51.9043 78.5156 46.0938 72.7051 38.8184 72.7051C31.5918 72.7051 25.7812 78.5156 25.7812 85.791C25.7812 93.0176 31.5918 98.8281 38.8184 98.8281ZM137.207 98.8281C144.482 98.8281 150.293 93.0176 150.293 85.791C150.293 78.5156 144.482 72.7051 137.207 72.7051C130.029 72.7051 124.17 78.5645 124.17 85.791C124.17 93.0176 129.98 98.8281 137.207 98.8281ZM167.09 35.8398L164.893 32.6172C159.277 24.4629 152.393 21.1914 141.064 21.1914L102.93 21.1914C82.8125 21.1914 74.7559 23.1445 62.793 30.6152L43.1152 42.9688L24.9023 45.2148C8.25195 47.2656 0 54.8828 0 68.2617L0 76.6602C0 84.6191 4.6875 89.4043 12.4512 89.4043L20.4102 89.4043C20.2148 88.2324 20.0684 87.0605 20.0684 85.791C20.0684 75.3906 28.4668 67.041 38.8184 67.041C49.2188 67.041 57.5684 75.3906 57.5684 85.791C57.5684 87.0605 57.4707 88.2324 57.2266 89.4043L118.799 89.4043C118.604 88.2324 118.457 87.0605 118.457 85.791C118.457 75.4395 126.904 67.041 137.207 67.041C147.607 67.041 155.957 75.3906 155.957 85.791C155.957 87.0605 155.859 88.2324 155.615 89.4043L160.791 89.4043C169.336 89.4043 173.193 85.0098 173.193 75.3418L173.193 54.4922C173.193 48.3887 170.947 41.4062 167.09 35.8398ZM96.4844 67.7734C92.8711 67.7734 89.8438 64.7949 89.8438 61.3281C89.8438 57.8613 92.7734 54.9805 96.4844 54.9805C100.146 54.9805 103.125 57.8613 103.125 61.3281C103.125 64.7949 100.098 67.7734 96.4844 67.7734ZM96.4844 45.3613C93.9941 45.3613 92.2363 43.6035 92.1387 41.0156L91.1133 5.37109C91.0156 2.14844 93.1641 0 96.4844 0C99.8047 0 101.953 2.14844 101.855 5.37109L100.781 41.0156C100.684 43.6035 98.9746 45.3613 96.4844 45.3613Z" fill="#000000" fill-opacity="0.85"/>
 </g>
</svg>
