<?xml version="1.0" encoding="UTF-8"?>
<!--Generator: Apple Native CoreSVG 232.5-->
<!DOCTYPE svg
PUBLIC "-//W3C//DTD SVG 1.1//EN"
       "http://www.w3.org/Graphics/SVG/1.1/DTD/svg11.dtd">
<svg version="1.1" xmlns="http://www.w3.org/2000/svg" xmlns:xlink="http://www.w3.org/1999/xlink" width="173.193" height="143.408">
 <g>
  <rect height="143.408" opacity="0" width="173.193" x="0" y="0"/>
  <path d="M51.9043 96.582C51.9043 103.857 46.1426 109.619 38.8184 109.619C31.5918 109.619 25.7812 103.809 25.7812 96.582C25.7812 89.3066 31.5918 83.4961 38.8184 83.4961C46.0938 83.4961 51.9043 89.3066 51.9043 96.582ZM150.293 96.582C150.293 103.809 144.482 109.619 137.207 109.619C129.98 109.619 124.17 103.809 124.17 96.582C124.17 89.3555 130.029 83.4961 137.207 83.4961C144.482 83.4961 150.293 89.3066 150.293 96.582ZM164.893 43.4082L167.09 46.6309C170.947 52.1973 173.193 59.1797 173.193 65.2832L173.193 86.1328C173.193 95.8008 169.336 100.195 160.791 100.195L155.615 100.195C155.859 99.0234 155.957 97.8516 155.957 96.582C155.957 86.1816 147.607 77.832 137.207 77.832C126.904 77.832 118.457 86.2305 118.457 96.582C118.457 97.8516 118.604 99.0234 118.799 100.195L57.2266 100.195C57.4707 99.0234 57.5684 97.8516 57.5684 96.582C57.5684 86.1816 49.2188 77.832 38.8184 77.832C28.4668 77.832 20.0684 86.1816 20.0684 96.582C20.0684 97.8516 20.2148 99.0234 20.4102 100.195L12.4512 100.195C4.6875 100.195 0 95.4102 0 87.4512L0 79.0527C0 65.6738 8.25195 58.0566 24.9023 56.0059L43.1152 53.7598L62.793 41.4062C65.2386 39.879 67.521 38.5823 69.7754 37.4968L69.7754 44.043C69.7754 51.416 74.4141 55.957 81.2988 55.957L106.055 55.957C112.939 55.957 117.578 51.416 117.578 44.043L117.578 31.9824L141.064 31.9824C152.393 31.9824 159.277 35.2539 164.893 43.4082Z" fill="#000000" fill-opacity="0.85"/>
  <path d="M81.3965 49.2676L106.152 49.2676C109.473 49.2676 111.035 47.6074 111.035 44.043L111.035 25.0488C111.035 21.4844 109.473 19.8242 106.152 19.8242L81.3965 19.8242C78.0762 19.8242 76.5137 21.4844 76.5137 25.0488L76.5137 44.043C76.5137 47.6074 78.0762 49.2676 81.3965 49.2676ZM100.488 21.2891L106.885 21.2402L106.885 14.209C106.885 9.13086 109.375 6.39648 113.574 6.39648C117.822 6.39648 120.264 9.13086 120.264 14.209L120.264 18.3594C120.264 20.1172 121.729 21.582 123.486 21.582C125.244 21.582 126.66 20.1172 126.66 18.3594L126.66 14.7461C126.66 5.9082 121.387 0 113.574 0C105.811 0 100.488 5.9082 100.488 14.7461Z" fill="#000000" fill-opacity="0.85"/>
 </g>
</svg>
