<?xml version="1.0" encoding="UTF-8"?>
<!--Generator: Apple Native CoreSVG 232.5-->
<!DOCTYPE svg
PUBLIC "-//W3C//DTD SVG 1.1//EN"
       "http://www.w3.org/Graphics/SVG/1.1/DTD/svg11.dtd">
<svg version="1.1" xmlns="http://www.w3.org/2000/svg" xmlns:xlink="http://www.w3.org/1999/xlink" width="173.193" height="79.4434">
 <g>
  <rect height="79.4434" opacity="0" width="173.193" x="0" y="0"/>
  <path d="M51.9043 64.5996C51.9043 71.875 46.1426 77.6367 38.8184 77.6367C31.5918 77.6367 25.7812 71.8262 25.7812 64.5996C25.7812 57.3242 31.5918 51.5137 38.8184 51.5137C46.0938 51.5137 51.9043 57.3242 51.9043 64.5996ZM150.293 64.5996C150.293 71.8262 144.482 77.6367 137.207 77.6367C129.98 77.6367 124.17 71.8262 124.17 64.5996C124.17 57.373 130.029 51.5137 137.207 51.5137C144.482 51.5137 150.293 57.3242 150.293 64.5996ZM164.893 11.4258L167.09 14.6484C170.947 20.2148 173.193 27.1973 173.193 33.3008L173.193 54.1504C173.193 63.8184 169.336 68.2129 160.791 68.2129L155.615 68.2129C155.859 67.041 155.957 65.8691 155.957 64.5996C155.957 54.1992 147.607 45.8496 137.207 45.8496C126.904 45.8496 118.457 54.248 118.457 64.5996C118.457 65.8691 118.604 67.041 118.799 68.2129L57.2266 68.2129C57.4707 67.041 57.5684 65.8691 57.5684 64.5996C57.5684 54.1992 49.2188 45.8496 38.8184 45.8496C28.4668 45.8496 20.0684 54.1992 20.0684 64.5996C20.0684 65.8691 20.2148 67.041 20.4102 68.2129L12.4512 68.2129C4.6875 68.2129 0 63.4277 0 55.4688L0 47.0703C0 33.6914 8.25195 26.0742 24.9023 24.0234L43.1152 21.7773L62.793 9.42383C74.7559 1.95312 82.8125 0 102.93 0L141.064 0C152.393 0 159.277 3.27148 164.893 11.4258ZM85.0586 33.0566L74.5117 50.3906C73.0957 52.6855 74.2188 54.834 76.8555 54.834L98.584 54.834C101.172 54.834 102.393 52.7344 100.977 50.4395L90.332 33.0566C89.0137 30.9082 86.4258 30.8594 85.0586 33.0566Z" fill="#000000" fill-opacity="0.85"/>
 </g>
</svg>
