<?xml version="1.0" encoding="UTF-8"?>
<!--Generator: Apple Native CoreSVG 232.5-->
<!DOCTYPE svg
PUBLIC "-//W3C//DTD SVG 1.1//EN"
       "http://www.w3.org/Graphics/SVG/1.1/DTD/svg11.dtd">
<svg version="1.1" xmlns="http://www.w3.org/2000/svg" xmlns:xlink="http://www.w3.org/1999/xlink" width="173.193" height="143.408">
 <g>
  <rect height="143.408" opacity="0" width="173.193" x="0" y="0"/>
  <path d="M51.9043 96.582C51.9043 103.857 46.1426 109.619 38.8184 109.619C31.5918 109.619 25.7812 103.809 25.7812 96.582C25.7812 89.3066 31.5918 83.4961 38.8184 83.4961C46.0938 83.4961 51.9043 89.3066 51.9043 96.582ZM150.293 96.582C150.293 103.809 144.482 109.619 137.207 109.619C129.98 109.619 124.17 103.809 124.17 96.582C124.17 89.3555 130.029 83.4961 137.207 83.4961C144.482 83.4961 150.293 89.3066 150.293 96.582ZM164.893 43.4082L167.09 46.6309C170.947 52.1973 173.193 59.1797 173.193 65.2832L173.193 86.1328C173.193 95.8008 169.336 100.195 160.791 100.195L155.615 100.195C155.859 99.0234 155.957 97.8516 155.957 96.582C155.957 86.1816 147.607 77.832 137.207 77.832C126.904 77.832 118.457 86.2305 118.457 96.582C118.457 97.8516 118.604 99.0234 118.799 100.195L57.2266 100.195C57.4707 99.0234 57.5684 97.8516 57.5684 96.582C57.5684 86.1816 49.2188 77.832 38.8184 77.832C28.4668 77.832 20.0684 86.1816 20.0684 96.582C20.0684 97.8516 20.2148 99.0234 20.4102 100.195L12.4512 100.195C4.6875 100.195 0 95.4102 0 87.4512L0 79.0527C0 65.6738 8.25195 58.0566 24.9023 56.0059L43.1152 53.7598L62.793 41.4062C65.5919 39.6584 68.177 38.2125 70.752 37.0336L70.752 44.043C70.752 51.416 75.3906 55.957 82.2754 55.957L107.031 55.957C113.916 55.957 118.555 51.416 118.555 44.043L118.555 31.9824L141.064 31.9824C152.393 31.9824 159.277 35.2539 164.893 43.4082Z" fill="#000000" fill-opacity="0.85"/>
  <path d="M80.5664 21.2891L86.9629 21.2402L86.9629 14.209C86.9629 9.13086 89.4531 6.39648 93.6523 6.39648C97.9004 6.39648 100.342 9.13086 100.342 14.209L100.342 21.2402L106.738 21.2891L106.738 14.7461C106.738 5.9082 101.465 0 93.6523 0C85.8887 0 80.5664 5.9082 80.5664 14.7461ZM81.2988 49.2676L106.055 49.2676C109.375 49.2676 110.938 47.6074 110.938 44.043L110.938 25.0488C110.938 21.4844 109.375 19.8242 106.055 19.8242L81.2988 19.8242C77.9785 19.8242 76.416 21.4844 76.416 25.0488L76.416 44.043C76.416 47.6074 77.9785 49.2676 81.2988 49.2676Z" fill="#000000" fill-opacity="0.85"/>
 </g>
</svg>
