<?xml version="1.0" encoding="UTF-8"?>
<!--Generator: Apple Native CoreSVG 232.5-->
<!DOCTYPE svg
PUBLIC "-//W3C//DTD SVG 1.1//EN"
       "http://www.w3.org/Graphics/SVG/1.1/DTD/svg11.dtd">
<svg version="1.1" xmlns="http://www.w3.org/2000/svg" xmlns:xlink="http://www.w3.org/1999/xlink" width="173.193" height="79.4434">
 <g>
  <rect height="79.4434" opacity="0" width="173.193" x="0" y="0"/>
  <path d="M38.8184 77.6367C46.1426 77.6367 51.9043 71.875 51.9043 64.5996C51.9043 57.3242 46.0938 51.5137 38.8184 51.5137C31.5918 51.5137 25.7812 57.3242 25.7812 64.5996C25.7812 71.8262 31.5918 77.6367 38.8184 77.6367ZM137.207 77.6367C144.482 77.6367 150.293 71.8262 150.293 64.5996C150.293 57.3242 144.482 51.5137 137.207 51.5137C130.029 51.5137 124.17 57.373 124.17 64.5996C124.17 71.8262 129.98 77.6367 137.207 77.6367ZM167.09 14.6484L164.893 11.4258C159.277 3.27148 152.393 0 141.064 0L102.93 0C82.8125 0 74.7559 1.95312 62.793 9.42383L43.1152 21.7773L24.9023 24.0234C8.25195 26.0742 0 33.6914 0 47.0703L0 55.4688C0 63.4277 4.6875 68.2129 12.4512 68.2129L20.4102 68.2129C20.2148 67.041 20.0684 65.8691 20.0684 64.5996C20.0684 54.1992 28.4668 45.8496 38.8184 45.8496C49.2188 45.8496 57.5684 54.1992 57.5684 64.5996C57.5684 65.8691 57.4707 67.041 57.2266 68.2129L118.799 68.2129C118.604 67.041 118.457 65.8691 118.457 64.5996C118.457 54.248 126.904 45.8496 137.207 45.8496C147.607 45.8496 155.957 54.1992 155.957 64.5996C155.957 65.8691 155.859 67.041 155.615 68.2129L160.791 68.2129C169.336 68.2129 173.193 63.8184 173.193 54.1504L173.193 33.3008C173.193 27.1973 170.947 20.2148 167.09 14.6484Z" fill="#000000" fill-opacity="0.85"/>
 </g>
</svg>
