<?xml version="1.0" encoding="UTF-8"?>
<!--Generator: Apple Native CoreSVG 232.5-->
<!DOCTYPE svg
PUBLIC "-//W3C//DTD SVG 1.1//EN"
       "http://www.w3.org/Graphics/SVG/1.1/DTD/svg11.dtd">
<svg version="1.1" xmlns="http://www.w3.org/2000/svg" xmlns:xlink="http://www.w3.org/1999/xlink" width="173.193" height="143.408">
 <g>
  <rect height="143.408" opacity="0" width="173.193" x="0" y="0"/>
  <path d="M164.893 43.4082L167.09 46.6309C170.947 52.1973 173.193 59.1797 173.193 65.2832L173.193 86.1328C173.193 95.8008 169.336 100.195 160.791 100.195L153.218 100.195C150.991 106.752 144.862 111.328 137.451 111.328C130.041 111.328 123.912 106.752 121.685 100.195L54.5847 100.195C52.3579 106.752 46.2288 111.328 38.8184 111.328C31.4079 111.328 25.2788 106.752 23.052 100.195L12.4512 100.195C4.6875 100.195 0 95.4102 0 87.4512L0 79.0527C0 65.6738 8.25195 58.0566 24.9023 56.0059L43.1152 53.7598L62.793 41.4062C65.5919 39.6584 68.1769 38.2125 70.752 37.0336L70.752 44.043C70.752 44.6704 70.7855 45.2773 70.8632 45.8546C69.6197 46.5418 68.3402 47.3028 66.9922 48.1445L45.8008 61.3281L25.9277 63.8184C13.7207 65.3809 7.86133 70.3125 7.86133 79.0527L7.86133 86.4746C7.86133 90.1855 9.7168 92.334 12.8906 92.334L22.287 92.334C23.3561 84.0823 30.2258 77.9297 38.8184 77.9297C47.4109 77.9297 54.2807 84.0823 55.3497 92.334L120.92 92.334C121.989 84.0823 128.859 77.9297 137.451 77.9297C146.044 77.9297 152.913 84.0823 153.982 92.334L160.352 92.334C163.818 92.334 165.332 90.5273 165.332 86.6211L165.332 65.2832C165.332 60.6445 163.574 55.3711 160.596 51.0742L158.398 47.9004C154.395 42.1875 149.512 39.8438 141.064 39.8438L118.555 39.8437L118.555 31.9824L141.064 31.9824C152.393 31.9824 159.277 35.2539 164.893 43.4082ZM29.9805 94.6289C29.9805 99.6094 33.8379 103.467 38.8184 103.467C43.7988 103.467 47.6562 99.6094 47.6562 94.6289C47.6562 89.6484 43.7988 85.791 38.8184 85.791C33.8379 85.791 29.9805 89.6484 29.9805 94.6289ZM128.613 94.6289C128.613 99.6094 132.471 103.467 137.451 103.467C142.432 103.467 146.289 99.6094 146.289 94.6289C146.289 89.6484 142.432 85.791 137.451 85.791C132.471 85.791 128.613 89.6484 128.613 94.6289Z" fill="#000000" fill-opacity="0.85"/>
  <path d="M82.373 49.2676L107.129 49.2676C110.449 49.2676 112.012 47.6074 112.012 44.043L112.012 25.0488C112.012 21.4844 110.449 19.8242 107.129 19.8242L82.373 19.8242C79.0527 19.8242 77.4902 21.4844 77.4902 25.0488L77.4902 44.043C77.4902 47.6074 79.0527 49.2676 82.373 49.2676ZM101.465 21.2891L107.861 21.2402L107.861 14.209C107.861 9.13086 110.352 6.39648 114.551 6.39648C118.799 6.39648 121.24 9.13086 121.24 14.209L121.24 18.3594C121.24 20.1172 122.705 21.582 124.463 21.582C126.221 21.582 127.637 20.1172 127.637 18.3594L127.637 14.7461C127.637 5.9082 122.363 0 114.551 0C106.787 0 101.465 5.9082 101.465 14.7461Z" fill="#000000" fill-opacity="0.85"/>
 </g>
</svg>
