<?xml version="1.0" encoding="UTF-8"?>
<!--Generator: Apple Native CoreSVG 232.5-->
<!DOCTYPE svg
PUBLIC "-//W3C//DTD SVG 1.1//EN"
       "http://www.w3.org/Graphics/SVG/1.1/DTD/svg11.dtd">
<svg version="1.1" xmlns="http://www.w3.org/2000/svg" xmlns:xlink="http://www.w3.org/1999/xlink" width="173.193" height="120.728">
 <g>
  <rect height="120.728" opacity="0" width="173.193" x="0" y="0"/>
  <path d="M38.8184 98.279C46.1426 98.279 51.9043 92.5173 51.9043 85.2419C51.9043 77.9665 46.0938 72.156 38.8184 72.156C31.5918 72.156 25.7812 77.9665 25.7812 85.2419C25.7812 92.4685 31.5918 98.279 38.8184 98.279ZM137.207 98.279C144.482 98.279 150.293 92.4685 150.293 85.2419C150.293 77.9665 144.482 72.156 137.207 72.156C130.029 72.156 124.17 78.0153 124.17 85.2419C124.17 92.4685 129.98 98.279 137.207 98.279ZM167.09 35.2907L164.893 32.0681C159.277 23.9138 152.393 20.6423 141.064 20.6423L102.93 20.6423C82.8125 20.6423 74.7559 22.5954 62.793 30.0661L43.1152 42.4196L24.9023 44.6657C8.25195 46.7165 0 54.3337 0 67.7126L0 76.111C0 84.07 4.6875 88.8552 12.4512 88.8552L20.4102 88.8552C20.2148 87.6833 20.0684 86.5114 20.0684 85.2419C20.0684 74.8415 28.4668 66.4919 38.8184 66.4919C49.2188 66.4919 57.5684 74.8415 57.5684 85.2419C57.5684 86.5114 57.4707 87.6833 57.2266 88.8552L118.799 88.8552C118.604 87.6833 118.457 86.5114 118.457 85.2419C118.457 74.8903 126.904 66.4919 137.207 66.4919C147.607 66.4919 155.957 74.8415 155.957 85.2419C155.957 86.5114 155.859 87.6833 155.615 88.8552L160.791 88.8552C169.336 88.8552 173.193 84.4607 173.193 74.7927L173.193 53.9431C173.193 47.8396 170.947 40.8571 167.09 35.2907Z" fill="#000000" fill-opacity="0.85"/>
  <path d="M76.8555 97.3024C74.2188 97.3024 73.0957 99.4509 74.5117 101.746L85.0586 119.08C86.4258 121.326 89.0137 121.228 90.332 119.08L100.977 101.746C102.393 99.4509 101.172 97.3024 98.584 97.3024Z" fill="#000000" fill-opacity="0.85"/>
 </g>
</svg>
