<?xml version="1.0" encoding="UTF-8"?>
<!--Generator: Apple Native CoreSVG 232.5-->
<!DOCTYPE svg
PUBLIC "-//W3C//DTD SVG 1.1//EN"
       "http://www.w3.org/Graphics/SVG/1.1/DTD/svg11.dtd">
<svg version="1.1" xmlns="http://www.w3.org/2000/svg" xmlns:xlink="http://www.w3.org/1999/xlink" width="158.856" height="119.78">
 <g>
  <rect height="119.78" opacity="0" width="158.856" x="0" y="0"/>
  <path d="M34.4817 37.9905L45.3216 44.2405L49.2766 37.4533L38.6809 31.3498C37.0208 30.3733 36.7766 28.9573 37.9973 26.8088L40.7805 21.8772C43.8567 16.4084 49.0325 15.5783 57.3821 19.094L71.7376 25.1487L91.0247 24.4651C100.546 24.1721 105.136 25.5881 117.441 32.6682L142.734 47.219C148.105 50.2951 150.253 53.3713 150.693 58.4494L150.888 61.3791C151.181 65.1877 150.449 69.094 148.74 72.0725L140.585 86.135C139.267 88.4299 138.29 88.7717 136.386 87.6487L127.597 82.6682L123.642 89.4553L132.675 94.6799C138.827 98.2444 143.613 96.633 147.616 89.7483L155.527 75.9787C157.968 71.7795 159.14 66.1155 158.749 60.7444L158.505 57.8147C157.87 49.9533 154.404 44.8264 146.64 40.383L121.347 25.7834C107.919 18.0686 101.718 16.2619 90.7317 16.6037L73.2024 17.2385L60.4583 11.8186C48.3001 6.69163 39.3645 8.64475 33.9934 17.9709L30.7708 23.4885C27.4505 29.2014 28.9153 34.8166 34.4817 37.9905ZM58.9446 52.053L110.361 81.7893L114.316 75.051L62.8509 45.2658ZM47.6653 55.4221C54.3548 59.2795 62.5579 57.0334 66.3665 50.4416C70.2239 43.7522 67.9778 35.5491 61.386 31.7405C54.6966 27.9319 46.5423 30.0803 42.6848 36.7209C38.8762 43.3616 41.0735 51.6135 47.6653 55.4221ZM51.6692 48.635C48.6907 46.9748 47.763 43.6057 49.5208 40.7248C51.1809 37.7951 54.5501 36.8674 57.4798 38.5276C60.4583 40.2854 61.3372 43.6057 59.5794 46.4866C57.9192 49.5139 54.5989 50.3928 51.6692 48.635ZM112.997 93.1662C119.638 96.9748 127.841 94.7287 131.747 88.1858C135.507 81.4475 133.261 73.2932 126.669 69.4358C120.029 65.676 111.825 67.7756 107.968 74.5139C104.208 81.0569 106.357 89.3088 112.997 93.1662ZM116.952 86.3303C114.023 84.6701 113.095 81.301 114.804 78.3713C116.464 75.4416 119.833 74.5627 122.812 76.2229C125.741 77.9807 126.62 81.301 124.911 84.1819C123.202 87.2092 119.882 88.0881 116.952 86.3303Z" fill="#000000" fill-opacity="0.85"/>
  <path d="M0.546166 41.1643C-0.576881 43.1174 0.106712 45.51 1.91335 46.5842L127.89 119.289C129.648 120.315 132.089 119.68 133.163 117.873C134.238 115.92 133.554 113.479 131.796 112.453L5.8196 39.7483C4.06179 38.7229 1.57156 39.3576 0.546166 41.1643ZM18.1731 23.3908L28.4759 5.61741C30.1848 2.6389 27.7923 0.00217666 24.7649 0.636942L9.04226 3.5178C6.89382 3.90843 5.96609 5.56858 6.69851 7.66819L12.0208 22.6584C13.0462 25.6369 16.4641 26.3205 18.1731 23.3908Z" fill="#000000" fill-opacity="0.85"/>
 </g>
</svg>
