<?xml version="1.0" encoding="UTF-8"?>
<!--Generator: Apple Native CoreSVG 232.5-->
<!DOCTYPE svg
PUBLIC "-//W3C//DTD SVG 1.1//EN"
       "http://www.w3.org/Graphics/SVG/1.1/DTD/svg11.dtd">
<svg version="1.1" xmlns="http://www.w3.org/2000/svg" xmlns:xlink="http://www.w3.org/1999/xlink" width="159.272" height="119.78">
 <g>
  <rect height="119.78" opacity="0" width="159.272" x="0" y="0"/>
  <path d="M159.152 61.2326L158.859 58.2053C158.176 50.5393 154.904 45.6565 147.287 41.2619L121.555 26.3694C107.981 18.6057 101.828 16.7502 90.8419 17.1408L72.7755 17.8244L59.5919 12.258C47.5314 7.13108 38.9864 8.98655 33.8107 18.0686L30.588 23.7326C27.463 29.1037 28.7814 34.1819 33.9571 37.1604L39.3771 40.3342C39.6212 39.4065 40.0607 38.5764 40.5489 37.7463C44.6017 30.7151 53.4884 28.3225 60.4708 32.3752C67.5021 36.428 69.8946 45.3635 65.8419 52.3459C65.3536 53.176 64.7677 53.9573 64.1818 54.6408L105.686 78.5666C105.979 77.7366 106.369 76.8576 106.906 76.0276C110.91 69.0451 119.846 66.6037 126.828 70.6565C133.811 74.7092 136.203 83.5959 132.151 90.6272C131.662 91.4573 131.076 92.2385 130.49 92.9221L134.006 94.9241C139.768 98.2444 144.065 96.8283 147.873 90.2854L156.027 76.2229C158.371 72.1213 159.69 66.5061 159.152 61.2326ZM48.1173 53.8108C53.0489 56.6916 59.1525 55.0315 61.9845 50.0998C64.8165 45.2658 63.1564 39.0647 58.2736 36.2815C53.3907 33.4494 47.2384 35.0608 44.4064 39.9436C41.5743 44.8264 43.2345 51.0276 48.1173 53.8108ZM114.426 92.1408C119.309 94.9241 125.51 93.2639 128.342 88.3811C131.174 83.4983 129.465 77.3459 124.582 74.5139C119.748 71.6819 113.547 73.3908 110.715 78.2737C107.883 83.1076 109.592 89.3088 114.426 92.1408Z" fill="#000000" fill-opacity="0.85"/>
  <path d="M0.55871 41.1643C-0.564337 43.1174 0.119257 45.51 1.9259 46.5842L127.902 119.289C129.66 120.315 132.102 119.68 133.176 117.873C134.25 115.92 133.567 113.479 131.809 112.453L5.83215 39.7483C4.07434 38.7229 1.5841 39.3576 0.55871 41.1643ZM17.9904 23.5373L28.2931 5.7639C30.0021 2.78538 27.6095 0.148661 24.5821 0.783427L8.85949 3.66429C6.71105 4.05491 5.78332 5.71507 6.51574 7.81468L11.838 22.8049C12.8634 25.7834 16.2814 26.467 17.9904 23.5373Z" fill="#000000" fill-opacity="0.85"/>
 </g>
</svg>
