<?xml version="1.0" encoding="UTF-8"?>
<!--Generator: Apple Native CoreSVG 232.5-->
<!DOCTYPE svg
PUBLIC "-//W3C//DTD SVG 1.1//EN"
       "http://www.w3.org/Graphics/SVG/1.1/DTD/svg11.dtd">
<svg version="1.1" xmlns="http://www.w3.org/2000/svg" xmlns:xlink="http://www.w3.org/1999/xlink" width="160.881" height="141.981">
 <g>
  <rect height="141.981" opacity="0" width="160.881" x="0" y="0"/>
  <path d="M123.531 3.19288L120.748 1.97217C113.668-1.104 107.858-0.664545 100.289 3.87647L74.801 19.1108C61.4221 27.2163 56.8323 31.6597 51.803 41.4741L43.6487 57.5874L32.4182 66.4253C22.0666 74.4819 19.5764 82.8315 24.9475 91.7671L28.3166 97.3823C31.4905 102.705 36.5686 104.072 41.7444 100.947L47.1155 97.7241C46.4319 97.0405 45.8948 96.3081 45.4065 95.478C41.2073 88.4956 43.4045 79.5601 50.3869 75.4585C57.3205 71.2593 66.3049 73.5054 70.4065 80.439C70.8948 81.3179 71.3342 82.148 71.6272 83.0269L112.643 58.3198C112.057 57.6851 111.471 56.9038 110.983 56.0249C106.881 49.1401 109.127 40.1069 116.012 36.0054C122.946 31.9038 131.881 34.1011 136.08 41.0347C136.52 41.8648 136.91 42.7437 137.252 43.6226L140.67 41.5718C146.432 38.105 147.262 33.6128 143.405 27.1675L135.006 13.2026C132.565 9.14991 128.317 5.29249 123.531 3.19288ZM63.1311 96.6499C68.0139 93.7202 69.5276 87.5679 66.5979 82.7339C63.717 77.8999 57.5159 76.3374 52.6819 79.2183C47.8479 82.1968 46.2854 88.3491 49.2151 93.1831C52.0959 98.0171 58.2971 99.5308 63.1311 96.6499ZM128.756 57.2456C133.59 54.3648 135.104 48.1148 132.174 43.2808C129.293 38.4468 123.092 36.9331 118.258 39.8628C113.424 42.6948 111.91 48.9448 114.84 53.7788C117.721 58.6128 123.922 60.1265 128.756 57.2456Z" fill="#000000" fill-opacity="0.85"/>
  <path d="M29.0491 132.001C30.1721 133.955 32.6135 134.589 34.3713 133.515L158.981 58.6128C160.739 57.6362 161.422 55.1948 160.397 53.3882C159.176 51.4839 156.783 50.8491 155.026 51.9233L30.4162 126.728C28.6096 127.802 27.9748 130.195 29.0491 132.001ZM22.0178 108.271L11.5198 90.5952C9.76195 87.6655 6.29515 88.398 5.36741 91.3765L0.240461 106.562C-0.491961 108.662 0.484602 110.273 2.68187 110.664L18.3069 113.251C21.4319 113.837 23.7268 111.25 22.0178 108.271Z" fill="#000000" fill-opacity="0.85"/>
 </g>
</svg>
