<?xml version="1.0" encoding="UTF-8"?>
<!--Generator: Apple Native CoreSVG 232.5-->
<!DOCTYPE svg
PUBLIC "-//W3C//DTD SVG 1.1//EN"
       "http://www.w3.org/Graphics/SVG/1.1/DTD/svg11.dtd">
<svg version="1.1" xmlns="http://www.w3.org/2000/svg" xmlns:xlink="http://www.w3.org/1999/xlink" width="173.193" height="135.205">
 <g>
  <rect height="135.205" opacity="0" width="173.193" x="0" y="0"/>
  <path d="M164.893 39.3066L167.09 42.5293C170.947 48.0957 173.193 55.0781 173.193 61.1816L173.193 82.0312C173.193 91.6992 169.336 96.0938 160.791 96.0938L153.218 96.0937C150.991 102.65 144.862 107.227 137.451 107.227C130.041 107.227 123.912 102.65 121.685 96.0937L54.5847 96.0937C52.3579 102.65 46.2288 107.227 38.8184 107.227C31.4079 107.227 25.2788 102.65 23.052 96.0937L12.4512 96.0938C4.6875 96.0938 0 91.3086 0 83.3496L0 74.9512C0 61.5723 8.25195 53.9551 24.9023 51.9043L43.1152 49.6582L62.793 37.3047C70.5774 32.4434 76.7077 29.9184 85.6019 28.7567L85.8356 36.6454C78.6104 37.7093 73.6336 39.8959 66.9922 44.043L45.8008 57.2266L25.9277 59.7168C13.7207 61.2793 7.86133 66.2109 7.86133 74.9512L7.86133 82.373C7.86133 86.084 9.7168 88.2324 12.8906 88.2324L22.287 88.2324C23.3561 79.9807 30.2258 73.8281 38.8184 73.8281C47.4109 73.8281 54.2807 79.9807 55.3497 88.2324L120.92 88.2324C121.989 79.9807 128.859 73.8281 137.451 73.8281C146.044 73.8281 152.913 79.9807 153.982 88.2324L160.352 88.2324C163.818 88.2324 165.332 86.4258 165.332 82.5195L165.332 61.1816C165.332 56.543 163.574 51.2695 160.596 46.9727L158.398 43.7988C154.395 38.0859 149.512 35.7422 141.064 35.7422L108.136 35.7422L108.369 27.8809L141.064 27.8809C152.393 27.8809 159.277 31.1523 164.893 39.3066ZM29.9805 90.5273C29.9805 95.5078 33.8379 99.3652 38.8184 99.3652C43.7988 99.3652 47.6562 95.5078 47.6562 90.5273C47.6562 85.5469 43.7988 81.6895 38.8184 81.6895C33.8379 81.6895 29.9805 85.5469 29.9805 90.5273ZM128.613 90.5273C128.613 95.5078 132.471 99.3652 137.451 99.3652C142.432 99.3652 146.289 95.5078 146.289 90.5273C146.289 85.5469 142.432 81.6895 137.451 81.6895C132.471 81.6895 128.613 85.5469 128.613 90.5273Z" fill="#000000" fill-opacity="0.85"/>
  <path d="M96.9727 72.3145C100.488 72.3145 103.369 69.4336 103.369 66.1133C103.369 62.7441 100.537 59.9609 96.9727 59.9609C93.457 59.9609 90.5762 62.7441 90.5762 66.1133C90.5762 69.4336 93.5059 72.3145 96.9727 72.3145ZM96.9727 50.6348C99.3652 50.6348 101.074 48.9258 101.172 46.4355L102.197 11.8652C102.295 8.74023 100.195 6.68945 96.9727 6.68945C93.75 6.68945 91.6992 8.74023 91.7969 11.8652L92.8223 46.4355C92.9199 48.9258 94.5801 50.6348 96.9727 50.6348Z" fill="#000000" fill-opacity="0.85"/>
 </g>
</svg>
