<?xml version="1.0" encoding="UTF-8"?>
<!--Generator: Apple Native CoreSVG 232.5-->
<!DOCTYPE svg
PUBLIC "-//W3C//DTD SVG 1.1//EN"
       "http://www.w3.org/Graphics/SVG/1.1/DTD/svg11.dtd">
<svg version="1.1" xmlns="http://www.w3.org/2000/svg" xmlns:xlink="http://www.w3.org/1999/xlink" width="109.689" height="112.744">
 <g>
  <rect height="112.744" opacity="0" width="109.689" x="0" y="0"/>
  <path d="M97.9595 39.502L107.237 55.4688C111.631 63.0371 110.167 69.1895 102.452 73.6328L45.1763 106.738C44.7399 106.99 44.309 107.221 43.8852 107.426C44.7256 106.048 45.2848 104.398 45.5578 102.481C47.0587 101.317 48.4141 99.6683 49.6197 97.5586L51.7061 93.9425L72.9356 81.6729L65.8553 69.4198L70.3825 61.5735L79.7178 77.7531L98.2525 67.041C101.036 65.3809 102.061 62.207 100.401 59.3262L91.2701 43.457C89.5122 40.4785 86.0455 39.4531 83.2622 41.0645L81.6935 41.9698L85.8501 34.7656C86.4616 33.7174 86.9547 32.6996 87.3187 31.7153C91.4993 31.8208 95.0663 34.4622 97.9595 39.502Z" fill="#000000" fill-opacity="0.85"/>
  <path d="M64.8052 7.4707L80.772 16.6992C88.4869 21.1426 90.2935 27.1484 85.8501 34.7656L49.6197 97.5586C48.4141 99.6683 47.0587 101.317 45.5578 102.481C45.6949 101.555 45.7622 100.564 45.7622 99.5117L45.7622 88.5204L46.7484 86.8105L45.7622 86.2415L45.7622 77.1164L50.6952 79.9669L64.2128 56.5278L45.7622 45.8822L45.7622 36.819L68.1262 49.7419L78.8189 31.2012C80.479 28.3203 79.6001 25.0977 76.8169 23.4375L60.9478 14.3066C57.9693 12.5977 54.4537 13.3301 52.8423 16.1621L45.7622 28.4317L45.7622 13.1348C45.7622 13.0132 45.7613 12.8924 45.7502 12.7812L46.2505 11.9141C50.5962 4.39453 56.8951 2.92969 64.8052 7.4707Z" fill="#000000" fill-opacity="0.85"/>
  <path d="M13.8775 112.695L32.3345 112.695C41.1724 112.695 45.7622 108.203 45.7622 99.5117L45.7622 13.1348C45.7622 4.44336 41.1724 0 32.3345 0L13.8775 0C4.74662 0 0.0102951 4.44336 0.0102951 13.1348L0.0102951 99.5117C0.0102951 108.203 4.74662 112.695 13.8775 112.695ZM13.9751 104.834C10.5083 104.834 7.87162 102.393 7.87162 99.1211L7.87162 13.5254C7.87162 10.2539 10.5083 7.86133 13.9751 7.86133L32.2369 7.86133C35.5083 7.86133 37.9009 10.2539 37.9009 13.5254L37.9009 99.1211C37.9009 102.393 35.5083 104.834 32.2369 104.834ZM4.06303 42.8223L41.7095 42.8223L41.7095 34.9609L4.06303 34.9609ZM4.06303 77.7344L41.7095 77.7344L41.7095 69.873L4.06303 69.873Z" fill="#000000" fill-opacity="0.85"/>
 </g>
</svg>
