<?xml version="1.0" encoding="UTF-8"?>
<!--Generator: Apple Native CoreSVG 232.5-->
<!DOCTYPE svg
PUBLIC "-//W3C//DTD SVG 1.1//EN"
       "http://www.w3.org/Graphics/SVG/1.1/DTD/svg11.dtd">
<svg version="1.1" xmlns="http://www.w3.org/2000/svg" xmlns:xlink="http://www.w3.org/1999/xlink" width="89.8926" height="89.9902">
 <g>
  <rect height="89.9902" opacity="0" width="89.8926" x="0" y="0"/>
  <path d="M89.8926 15.2344L89.8926 74.8535C89.8926 84.9121 84.8145 89.9902 74.5605 89.9902L15.332 89.9902C5.12695 89.9902 0 84.9609 0 74.8535L0 15.2344C0 5.12695 5.12695 0.0976562 15.332 0.0976562L74.5605 0.0976562C84.8145 0.0976562 89.8926 5.17578 89.8926 15.2344ZM53.8574 38.1348L53.8574 62.9395C53.8574 64.6484 55.2246 66.0645 56.9824 66.0645C58.7402 66.0645 60.1074 64.6484 60.1074 62.9395L60.1074 48.2422C60.1074 44.5801 61.3281 41.5039 65.0391 41.5039C66.2598 41.5039 67.5781 41.2598 68.4082 40.625C68.9453 40.1367 69.3359 39.4043 69.3359 38.4277C69.3359 37.4023 69.043 36.6699 68.5059 36.1328C67.8223 35.498 66.9922 35.2051 65.9668 35.2051C62.793 35.2051 60.7422 37.9883 60.1562 41.2109L59.8633 41.2109L59.8633 38.1348C59.8633 36.4746 58.5449 35.1562 56.8848 35.1562C55.1758 35.1562 53.8574 36.4746 53.8574 38.1348ZM25.2441 27.002L25.2441 62.7441C25.2441 64.5508 26.709 66.0156 28.5156 66.0156C30.3711 66.0156 31.8848 64.5508 31.8848 62.7441L31.8848 55.2734L34.5215 52.7344L42.2363 64.1113C43.5547 66.1133 45.752 66.2109 47.1191 65.2832C48.3398 64.3555 48.9258 62.5488 47.5098 60.4492L39.3066 48.6328L47.5098 40.0391C48.9258 38.5742 48.584 36.9141 47.5586 35.9863C46.4844 34.8633 44.4336 34.4727 42.9199 36.2305L32.0312 48.4375L31.8848 48.4375L31.8848 27.002C31.8848 25.1953 30.3711 23.6816 28.5156 23.6816C26.709 23.6816 25.2441 25.1953 25.2441 27.002Z" fill="#000000" fill-opacity="0.85"/>
 </g>
</svg>
