<?xml version="1.0" encoding="UTF-8"?>
<!--Generator: Apple Native CoreSVG 232.5-->
<!DOCTYPE svg
PUBLIC "-//W3C//DTD SVG 1.1//EN"
       "http://www.w3.org/Graphics/SVG/1.1/DTD/svg11.dtd">
<svg version="1.1" xmlns="http://www.w3.org/2000/svg" xmlns:xlink="http://www.w3.org/1999/xlink" width="108.301" height="97.1191">
 <g>
  <rect height="97.1191" opacity="0" width="108.301" x="0" y="0"/>
  <path d="M0 62.0117C8.20312 75.3906 29.5898 95.9961 58.4473 95.9961C76.8066 95.9961 81.8848 87.4512 92.5293 87.4512C101.416 87.4512 104.932 93.4082 106.299 95.752C106.689 96.4844 107.373 96.9727 107.764 95.5566C108.008 94.5312 108.301 93.1641 108.301 91.5039C108.301 86.8164 106.836 77.8809 99.0234 68.0664C100.732 63.2812 100.928 57.959 100.928 54.834C100.928 40.625 92.9199 15.918 66.4551 0C71.9727 7.76367 79.3457 19.6289 79.3457 36.0352C79.3457 41.9922 77.7344 48.5352 76.416 51.8066C62.0117 43.457 34.4727 20.5078 23.4863 8.78906C32.3242 22.3633 42.7734 34.668 54.3945 47.5586C38.7695 37.6465 24.2188 26.6113 10.6934 14.502C23.6816 33.3496 40.0879 51.9043 61.7676 69.4336C55.5664 72.9004 49.2188 75.5859 38.2812 75.5859C25.0488 75.5859 8.83789 69.1895 0 62.0117Z" fill="#000000" fill-opacity="0.85"/>
 </g>
</svg>
