<?xml version="1.0" encoding="UTF-8"?>
<!--Generator: Apple Native CoreSVG 232.5-->
<!DOCTYPE svg
PUBLIC "-//W3C//DTD SVG 1.1//EN"
       "http://www.w3.org/Graphics/SVG/1.1/DTD/svg11.dtd">
<svg version="1.1" xmlns="http://www.w3.org/2000/svg" xmlns:xlink="http://www.w3.org/1999/xlink" width="111.768" height="110.303">
 <g>
  <rect height="110.303" opacity="0" width="111.768" x="0" y="0"/>
  <path d="M1.02572 109.277C2.34408 110.547 4.44369 110.498 5.76205 109.18L29.8343 85.1074L25.1468 80.3711L1.02572 104.492C-0.292642 105.811-0.390298 107.959 1.02572 109.277ZM62.891 21.6309L56.641 27.8809L68.555 39.8438C69.4339 40.7227 69.4339 42.2363 68.555 43.0664C67.6273 43.9453 66.3089 43.9453 65.3812 43.0664L53.4183 31.1035L46.4847 38.0371L58.3988 49.9512C59.3265 50.8789 59.3265 52.2949 58.4476 53.1738C57.5199 54.1016 56.1527 54.0527 55.2249 53.1738L43.3109 41.2109L36.2796 48.1934L48.2425 60.1562C49.1214 61.0352 49.1702 62.4512 48.2913 63.3301C47.3636 64.2578 45.9964 64.2578 45.0687 63.3301L33.1058 51.3672L26.1722 58.3496L38.1351 70.2148C38.9652 71.0938 39.014 72.5098 38.1839 73.3887C37.2562 74.4141 35.889 74.4141 34.9124 73.4375L22.9984 61.5234L17.6761 66.7969C12.6468 71.8262 12.598 77.6367 17.2855 82.4219L27.9788 93.1641C32.7152 97.9004 38.6234 97.7051 43.6527 92.6758L88.7699 47.5098ZM61.5726 12.5977L97.9007 48.9258C99.4144 50.4395 101.905 50.4395 103.418 48.9258C104.981 47.4121 104.981 44.873 103.418 43.3594L98.1937 38.1348L100.196 36.1328C101.709 34.6191 101.758 32.1289 100.196 30.6152L93.1156 23.5352L99.2191 17.4316L105.078 23.291C106.592 24.8047 109.082 24.8047 110.596 23.291C112.159 21.7285 112.159 19.2383 110.596 17.7246L94.0433 1.17188C92.5296-0.390625 90.0394-0.390625 88.4769 1.17188C86.9632 2.68555 86.9632 5.17578 88.4769 6.68945L94.3851 12.5488L88.2816 18.6523L79.8831 10.2539C78.3695 8.74023 75.8304 8.74023 74.3167 10.2539L72.3148 12.2559L67.139 7.08008C65.5277 5.41992 63.0863 5.51758 61.5726 7.08008C60.0589 8.59375 59.9613 10.9863 61.5726 12.5977Z" fill="#000000" fill-opacity="0.85"/>
 </g>
</svg>
