<?xml version="1.0" encoding="UTF-8"?>
<!--Generator: Apple Native CoreSVG 232.5-->
<!DOCTYPE svg
PUBLIC "-//W3C//DTD SVG 1.1//EN"
       "http://www.w3.org/Graphics/SVG/1.1/DTD/svg11.dtd">
<svg version="1.1" xmlns="http://www.w3.org/2000/svg" xmlns:xlink="http://www.w3.org/1999/xlink" width="109.107" height="114.001">
 <g>
  <rect height="114.001" opacity="0" width="109.107" x="0" y="0"/>
  <path d="M57.5806 108.734L105.188 61.0291C108.85 57.367 109.094 55.2673 109.094 50.1404L109.094 31.5857C109.094 26.4099 107.874 24.7986 104.163 21.0877L92.9322 9.85719C89.2701 6.19508 87.6588 4.92555 82.483 4.92555L63.8795 4.92555C58.7525 4.92555 56.7017 5.16969 53.0396 8.8318L5.28571 56.4881C-1.69671 63.4705-1.8432 70.697 5.33454 77.8259L36.2427 108.685C43.4205 115.814 50.5982 115.717 57.5806 108.734ZM74.2798 43.9881C70.4224 43.9881 67.5904 41.0095 67.5904 37.2986C67.5904 33.5388 70.4224 30.6091 74.2798 30.6091C78.0884 30.6091 80.9693 33.5388 80.9693 37.2986C80.9693 41.0095 78.0884 43.9881 74.2798 43.9881Z" fill="#000000" fill-opacity="0.85"/>
 </g>
</svg>
