<?xml version="1.0" encoding="UTF-8"?>
<!--Generator: Apple Native CoreSVG 232.5-->
<!DOCTYPE svg
PUBLIC "-//W3C//DTD SVG 1.1//EN"
       "http://www.w3.org/Graphics/SVG/1.1/DTD/svg11.dtd">
<svg version="1.1" xmlns="http://www.w3.org/2000/svg" xmlns:xlink="http://www.w3.org/1999/xlink" width="99.6094" height="99.6582">
 <g>
  <rect height="99.6582" opacity="0" width="99.6094" x="0" y="0"/>
  <path d="M99.6094 49.8535C99.6094 77.0996 77.0508 99.6582 49.8047 99.6582C22.6074 99.6582 0 77.0996 0 49.8535C0 22.6562 22.5586 0.0488281 49.7559 0.0488281C77.002 0.0488281 99.6094 22.6562 99.6094 49.8535ZM54.8828 24.0723C51.8555 24.0723 50.4883 25.5371 48.5352 27.4414L24.5117 51.8066C21.3867 54.9316 21.3867 57.9102 24.4141 60.9375L39.4043 76.0254C42.4805 79.0527 45.5078 79.0527 48.6328 75.9766L72.998 51.8555C74.9023 49.9023 76.3672 48.584 76.3672 45.459L76.3672 36.084C76.3672 33.7402 75.7812 32.4219 74.2188 30.9082L69.8242 26.6113C68.3105 25.0488 66.9922 24.0723 64.6973 24.0723ZM63.8184 36.5723C65.2344 37.9883 65.2344 40.2344 63.8184 41.6504C62.3535 43.0664 60.1562 43.0664 58.7891 41.6992C57.373 40.2832 57.373 38.0371 58.7891 36.5723C60.1562 35.1562 62.4023 35.1562 63.8184 36.5723Z" fill="#000000" fill-opacity="0.85"/>
 </g>
</svg>
