<?xml version="1.0" encoding="UTF-8"?>
<!--Generator: Apple Native CoreSVG 232.5-->
<!DOCTYPE svg
PUBLIC "-//W3C//DTD SVG 1.1//EN"
       "http://www.w3.org/Graphics/SVG/1.1/DTD/svg11.dtd">
<svg version="1.1" xmlns="http://www.w3.org/2000/svg" xmlns:xlink="http://www.w3.org/1999/xlink" width="89.8926" height="89.9902">
 <g>
  <rect height="89.9902" opacity="0" width="89.8926" x="0" y="0"/>
  <path d="M15.332 89.9902L74.5605 89.9902C84.8145 89.9902 89.8926 84.9121 89.8926 74.8535L89.8926 15.2344C89.8926 5.17578 84.8145 0.0976562 74.5605 0.0976562L15.332 0.0976562C5.12695 0.0976562 0 5.12695 0 15.2344L0 74.8535C0 84.9609 5.12695 89.9902 15.332 89.9902ZM15.4297 82.1289C10.5469 82.1289 7.86133 79.541 7.86133 74.4629L7.86133 15.625C7.86133 10.5469 10.5469 7.95898 15.4297 7.95898L74.4629 7.95898C79.2969 7.95898 82.0312 10.5469 82.0312 15.625L82.0312 74.4629C82.0312 79.541 79.2969 82.1289 74.4629 82.1289Z" fill="#000000" fill-opacity="0.85"/>
  <path d="M34.9121 70.3613C37.8906 73.291 40.8203 73.3398 43.8477 70.3125L67.4316 46.875C69.3359 45.0684 70.7031 43.75 70.7031 40.7715L70.7031 31.5918C70.7031 29.3945 70.1172 28.125 68.6523 26.6113L64.4043 22.4121C62.8906 20.9473 61.6211 20.0195 59.4238 20.0195L49.9512 20.0195C47.0215 20.0195 45.6543 21.3867 43.7988 23.291L20.4102 46.9238C17.4316 49.9512 17.4316 52.832 20.3613 55.7617ZM53.6621 37.0605C52.2949 35.7422 52.2949 33.4961 53.6621 32.1289C54.9805 30.7617 57.2266 30.7617 58.5449 32.1289C59.9121 33.4473 59.9121 35.6445 58.5449 37.0117C57.1777 38.4277 55.0293 38.4277 53.6621 37.0605Z" fill="#000000" fill-opacity="0.85"/>
 </g>
</svg>
