<?xml version="1.0" encoding="UTF-8"?>
<!--Generator: Apple Native CoreSVG 232.5-->
<!DOCTYPE svg
PUBLIC "-//W3C//DTD SVG 1.1//EN"
       "http://www.w3.org/Graphics/SVG/1.1/DTD/svg11.dtd">
<svg version="1.1" xmlns="http://www.w3.org/2000/svg" xmlns:xlink="http://www.w3.org/1999/xlink" width="99.6094" height="99.6582">
 <g>
  <rect height="99.6582" opacity="0" width="99.6094" x="0" y="0"/>
  <path d="M49.8047 99.6094C77.0508 99.6094 99.6094 77.002 99.6094 49.8047C99.6094 22.5586 77.002 0 49.7559 0C22.5586 0 0 22.5586 0 49.8047C0 77.002 22.6074 99.6094 49.8047 99.6094ZM49.8047 91.3086C26.7578 91.3086 8.34961 72.8516 8.34961 49.8047C8.34961 26.7578 26.709 8.30078 49.7559 8.30078C72.8027 8.30078 91.3086 26.7578 91.3086 49.8047C91.3086 72.8516 72.8516 91.3086 49.8047 91.3086Z" fill="#000000" fill-opacity="0.85"/>
  <path d="M39.6973 75.1953C42.6758 78.125 45.6055 78.1738 48.6328 75.1465L72.2168 51.709C74.1211 49.9023 75.4883 48.584 75.4883 45.6055L75.4883 36.4258C75.4883 34.2285 74.9023 32.959 73.4375 31.4453L69.1895 27.2461C67.6758 25.7812 66.4062 24.8535 64.209 24.8535L54.7363 24.8535C51.8066 24.8535 50.4395 26.2207 48.584 28.125L25.1953 51.7578C22.168 54.7852 22.2168 57.666 25.1465 60.5957ZM58.4473 41.8945C57.0801 40.5762 57.0801 38.3301 58.4473 36.9629C59.7656 35.5957 62.0117 35.5957 63.3301 36.9629C64.6973 38.2812 64.6973 40.4785 63.3301 41.8457C61.9629 43.2617 59.8145 43.2617 58.4473 41.8945Z" fill="#000000" fill-opacity="0.85"/>
 </g>
</svg>
