<?xml version="1.0" encoding="UTF-8"?>
<!--Generator: Apple Native CoreSVG 232.5-->
<!DOCTYPE svg
PUBLIC "-//W3C//DTD SVG 1.1//EN"
       "http://www.w3.org/Graphics/SVG/1.1/DTD/svg11.dtd">
<svg version="1.1" xmlns="http://www.w3.org/2000/svg" xmlns:xlink="http://www.w3.org/1999/xlink" width="109.107" height="114.001">
 <g>
  <rect height="114.001" opacity="0" width="109.107" x="0" y="0"/>
  <path d="M27.2813 45.6097L11.1451 61.7127C7.67829 65.1795 7.62946 68.9392 11.1939 72.5037L41.5162 102.777C45.0806 106.39 48.7916 106.342 52.3072 102.826L68.4142 86.7189L73.9898 92.2913L57.5806 108.734C50.5982 115.717 43.4205 115.814 36.2427 108.685L5.33454 77.8259C-1.8432 70.697-1.69671 63.4705 5.28571 56.4881L21.7379 40.0695ZM92.9322 9.85719L104.163 21.0877C107.874 24.7986 109.094 26.4099 109.094 31.5857L109.094 50.1404C109.094 55.2673 108.85 57.367 105.188 61.0291L87.384 78.8696L81.8238 73.3093L99.6705 55.4627C100.647 54.4861 101.233 53.4607 101.233 51.8494L101.233 31.2439C101.233 29.7302 100.696 28.7048 99.6705 27.6795L86.3404 14.3982C85.315 13.3728 84.2896 12.7869 82.7759 12.7869L62.2193 12.7869C60.5591 12.7869 59.5338 13.4216 58.5572 14.3982L40.7166 32.2021L35.1747 26.6602L53.0396 8.8318C56.7017 5.16969 58.7525 4.92555 63.8795 4.92555L82.483 4.92555C87.6588 4.92555 89.2701 6.19508 92.9322 9.85719ZM83.4595 37.2986C83.4595 41.0095 80.5787 43.9881 76.7701 43.9881C72.9127 43.9881 70.0806 41.0095 70.0806 37.2986C70.0806 33.5388 72.9127 30.6091 76.7701 30.6091C80.5787 30.6091 83.4595 33.5388 83.4595 37.2986Z" fill="#000000" fill-opacity="0.85"/>
  <path d="M94.2506 104.486C95.7642 105.951 98.1568 105.951 99.5728 104.486C101.038 103.021 101.086 100.629 99.5728 99.1638L14.8072 14.3982C13.3423 12.9334 10.9498 12.8845 9.4361 14.3982C8.02008 15.8142 8.02008 18.2556 9.4361 19.7205Z" fill="#000000" fill-opacity="0.85"/>
 </g>
</svg>
