<?xml version="1.0" encoding="UTF-8"?>
<!--Generator: Apple Native CoreSVG 232.5-->
<!DOCTYPE svg
PUBLIC "-//W3C//DTD SVG 1.1//EN"
       "http://www.w3.org/Graphics/SVG/1.1/DTD/svg11.dtd">
<svg version="1.1" xmlns="http://www.w3.org/2000/svg" xmlns:xlink="http://www.w3.org/1999/xlink" width="136.363" height="126.807">
 <g>
  <rect height="126.807" opacity="0" width="136.363" x="0" y="0"/>
  <path d="M81.9509 17.2852L81.9509 26.5625L91.2771 38.916C92.801 40.9479 93.2767 42.3683 93.3233 45.4102L85.4527 45.4102C85.407 44.1865 85.2243 43.5204 84.5876 42.7246L75.0662 30.127C74.3826 29.1504 74.0896 28.3203 74.0896 27.0996L74.0896 18.3594C74.0896 15.6738 72.9177 14.4043 70.4763 14.4043L29.5095 14.4043C27.0681 14.4043 25.8962 15.6738 25.8962 18.3594L25.8962 27.0996C25.8962 28.3203 25.6033 29.1504 24.9197 30.127L15.3982 42.7246C14.6169 43.7012 14.5193 44.4824 14.5193 46.3379L14.5193 96.7285C14.5193 101.465 17.0095 103.955 21.697 103.955L73.9577 103.955L74.5779 110.449C74.6229 110.923 74.6778 111.385 74.7585 111.816L21.5505 111.816C11.6873 111.816 6.65796 106.885 6.65796 97.1191L6.65796 45.9473C6.65796 42.5293 7.09741 41.0645 8.70874 38.916L18.0349 26.5625L18.0349 17.2852C18.0349 10.3516 22.0876 6.54297 29.4607 6.54297L70.5251 6.54297C77.8982 6.54297 81.9509 10.3516 81.9509 17.2852ZM66.2283 25.0977C66.2283 26.8555 64.7634 28.2715 63.0544 28.2715L36.7849 28.2715C35.0759 28.2715 33.6111 26.8555 33.6111 25.0977C33.6111 23.3887 35.0759 21.875 36.7849 21.875L63.0544 21.875C64.7634 21.875 66.2283 23.3887 66.2283 25.0977Z" fill="#000000" fill-opacity="0.85"/>
  <path d="M91.5701 120.117L114.177 120.117C120.623 120.117 123.845 116.846 124.529 109.814L129.656 56.6406C129.949 53.9062 128.338 52.0996 125.652 52.0996L80.0466 52.0996C77.4099 52.0996 75.8474 53.9551 76.0916 56.6406L81.2185 109.814C81.9021 116.846 85.0759 120.117 91.5701 120.117ZM91.863 112.5C89.9099 112.5 88.9333 111.621 88.738 109.521L84.0017 59.7168L121.746 59.7168L117.058 109.521C116.814 111.621 115.838 112.5 113.885 112.5ZM99.6755 54.5898L106.414 54.5898L106.707 50C106.902 47.5586 107.635 46.1426 109.441 44.8242L125.799 33.1055C129.461 30.4688 125.554 24.8535 121.599 27.7344L105.877 39.1113C102.117 41.8457 100.506 44.8242 100.115 49.6094Z" fill="#000000" fill-opacity="0.85"/>
 </g>
</svg>
