<?xml version="1.0" encoding="UTF-8"?>
<!--Generator: Apple Native CoreSVG 232.5-->
<!DOCTYPE svg
PUBLIC "-//W3C//DTD SVG 1.1//EN"
       "http://www.w3.org/Graphics/SVG/1.1/DTD/svg11.dtd">
<svg version="1.1" xmlns="http://www.w3.org/2000/svg" xmlns:xlink="http://www.w3.org/1999/xlink" width="99.6094" height="99.6582">
 <g>
  <rect height="99.6582" opacity="0" width="99.6094" x="0" y="0"/>
  <path d="M99.6094 49.8535C99.6094 77.0996 77.0508 99.6582 49.8047 99.6582C22.6074 99.6582 0 77.0996 0 49.8535C0 22.6562 22.5586 0.0488281 49.7559 0.0488281C77.002 0.0488281 99.6094 22.6562 99.6094 49.8535ZM26.709 63.0371C24.9023 63.0371 23.7793 64.1602 23.7793 65.918L23.7793 70.7031C23.7793 72.6074 24.9023 73.584 26.709 73.584L31.3965 73.584C33.252 73.584 34.2773 72.6074 34.2773 70.7031L34.2773 65.918C34.2773 64.1602 33.252 63.0371 31.3965 63.0371ZM40.4785 63.0371C38.623 63.0371 37.6465 64.1602 37.6465 65.918L37.6465 70.7031C37.6465 72.6074 38.623 73.584 40.4785 73.584L59.1309 73.584C60.9375 73.584 61.9141 72.6074 61.9141 70.7031L61.9141 65.918C61.9141 64.1602 60.9375 63.0371 59.1309 63.0371ZM68.1641 63.0371C66.3086 63.0371 65.1855 64.1602 65.1855 65.918L65.1855 70.7031C65.1855 72.6074 66.3086 73.584 68.1641 73.584L72.8516 73.584C74.707 73.584 75.7324 72.6074 75.7324 70.7031L75.7324 65.918C75.7324 64.1602 74.707 63.0371 72.8516 63.0371ZM26.8066 49.2676C24.9023 49.2676 23.7793 50.3418 23.7793 52.1484L23.7793 56.8848C23.7793 58.7891 24.9023 59.7656 26.8066 59.7656L31.4453 59.7656C33.252 59.7656 34.2773 58.7891 34.2773 56.8848L34.2773 52.1484C34.2773 50.3418 33.252 49.2676 31.4453 49.2676ZM40.5273 49.2676C38.623 49.2676 37.6465 50.3418 37.6465 52.1484L37.6465 56.8848C37.6465 58.7891 38.623 59.7656 40.5273 59.7656L45.2637 59.7656C47.0703 59.7656 48.1934 58.7891 48.1934 56.8848L48.1934 52.1484C48.1934 50.3418 47.0703 49.2676 45.2637 49.2676ZM54.3457 49.2676C52.5391 49.2676 51.416 50.3418 51.416 52.1484L51.416 56.8848C51.416 58.7891 52.5391 59.7656 54.3457 59.7656L58.9844 59.7656C60.8887 59.7656 61.9141 58.7891 61.9141 56.8848L61.9141 52.1484C61.9141 50.3418 60.8887 49.2676 58.9844 49.2676ZM68.1152 49.2676C66.2109 49.2676 65.1855 50.3418 65.1855 52.1484L65.1855 56.8848C65.1855 58.7891 66.2109 59.7656 68.1152 59.7656L72.8027 59.7656C74.6094 59.7656 75.7324 58.7891 75.7324 56.8848L75.7324 52.1484C75.7324 50.3418 74.6094 49.2676 72.8027 49.2676ZM19.2871 40.7227L19.311 41.4114C19.5496 44.685 21.5637 45.4346 24.9512 45.0684L34.3262 44.0918C37.793 43.75 38.5254 41.9434 38.5254 39.209L38.5254 38.4277C38.5254 36.377 41.9922 35.3027 49.8047 35.3027C58.3496 35.3027 61.1816 36.1816 61.1816 38.4766L61.1816 39.209C61.1816 41.9434 61.8652 43.75 65.332 44.0918L74.8047 45.0684C78.3691 45.459 80.3711 44.5801 80.3711 40.7227L80.2193 38.7886C78.7125 29.4277 66.1469 24.707 49.8047 24.707C32.4219 24.707 19.2871 30.0293 19.2871 40.7227Z" fill="#000000" fill-opacity="0.85"/>
 </g>
</svg>
