<?xml version="1.0" encoding="UTF-8"?>
<!--Generator: Apple Native CoreSVG 232.5-->
<!DOCTYPE svg
PUBLIC "-//W3C//DTD SVG 1.1//EN"
       "http://www.w3.org/Graphics/SVG/1.1/DTD/svg11.dtd">
<svg version="1.1" xmlns="http://www.w3.org/2000/svg" xmlns:xlink="http://www.w3.org/1999/xlink" width="99.6094" height="99.6582">
 <g>
  <rect height="99.6582" opacity="0" width="99.6094" x="0" y="0"/>
  <path d="M49.8047 99.6094C77.0508 99.6094 99.6094 77.002 99.6094 49.8047C99.6094 22.5586 77.002 0 49.7559 0C22.5586 0 0 22.5586 0 49.8047C0 77.002 22.6074 99.6094 49.8047 99.6094ZM49.8047 91.3086C26.7578 91.3086 8.34961 72.8516 8.34961 49.8047C8.34961 26.7578 26.709 8.30078 49.7559 8.30078C72.8027 8.30078 91.3086 26.7578 91.3086 49.8047C91.3086 72.8516 72.8516 91.3086 49.8047 91.3086Z" fill="#000000" fill-opacity="0.85"/>
  <path d="M49.7559 35.6934C58.0566 35.6934 60.791 36.4746 60.791 38.7695L60.791 39.4531C60.791 42.0898 61.4746 43.8477 64.8438 44.1895L74.0234 45.166C77.4902 45.5078 79.3945 44.6289 79.3945 40.918L79.3945 40.918C79.3945 30.5664 66.6992 25.3906 49.7559 25.3906C32.8613 25.3906 20.166 30.5664 20.166 40.918C20.166 40.9668 20.166 40.918 20.166 40.918C20.166 44.6289 22.1191 45.5078 25.6348 45.166L34.7168 44.1895C38.0859 43.8477 38.8184 42.0898 38.8184 39.4531L38.8184 38.7207C38.8184 36.6699 42.1875 35.6934 49.7559 35.6934ZM27.4414 59.375L31.9336 59.375C33.6914 59.375 34.7168 58.4473 34.7168 56.5918L34.7168 51.9531C34.7168 50.2441 33.6914 49.2188 31.9336 49.2188L27.4414 49.2188C25.5859 49.2188 24.5117 50.2441 24.5117 51.9531L24.5117 56.5918C24.5117 58.4473 25.5859 59.375 27.4414 59.375ZM40.7715 59.375L45.3613 59.375C47.1191 59.375 48.1934 58.4473 48.1934 56.5918L48.1934 51.9531C48.1934 50.2441 47.1191 49.2188 45.3613 49.2188L40.7715 49.2188C38.916 49.2188 37.9883 50.2441 37.9883 51.9531L37.9883 56.5918C37.9883 58.4473 38.916 59.375 40.7715 59.375ZM54.1504 59.375L58.6426 59.375C60.498 59.375 61.5234 58.4473 61.5234 56.5918L61.5234 51.9531C61.5234 50.2441 60.498 49.2188 58.6426 49.2188L54.1504 49.2188C52.3926 49.2188 51.3184 50.2441 51.3184 51.9531L51.3184 56.5918C51.3184 58.4473 52.3926 59.375 54.1504 59.375ZM67.5293 59.375L72.0703 59.375C73.8281 59.375 74.9023 58.4473 74.9023 56.5918L74.9023 51.9531C74.9023 50.2441 73.8281 49.2188 72.0703 49.2188L67.5293 49.2188C65.6738 49.2188 64.6973 50.2441 64.6973 51.9531L64.6973 56.5918C64.6973 58.4473 65.6738 59.375 67.5293 59.375ZM27.3438 72.8027L31.8848 72.8027C33.6914 72.8027 34.7168 71.7773 34.7168 69.9707L34.7168 65.3809C34.7168 63.623 33.6914 62.5488 31.8848 62.5488L27.3438 62.5488C25.5859 62.5488 24.5117 63.623 24.5117 65.3809L24.5117 69.9707C24.5117 71.7773 25.5859 72.8027 27.3438 72.8027ZM40.7227 72.8027L58.7891 72.8027C60.5469 72.8027 61.5234 71.7773 61.5234 69.9707L61.5234 65.3809C61.5234 63.623 60.5469 62.5488 58.7891 62.5488L40.7227 62.5488C38.916 62.5488 37.9883 63.623 37.9883 65.3809L37.9883 69.9707C37.9883 71.7773 38.916 72.8027 40.7227 72.8027ZM67.5781 72.8027L72.1191 72.8027C73.9258 72.8027 74.9023 71.7773 74.9023 69.9707L74.9023 65.3809C74.9023 63.623 73.9258 62.5488 72.1191 62.5488L67.5781 62.5488C65.7715 62.5488 64.6973 63.623 64.6973 65.3809L64.6973 69.9707C64.6973 71.7773 65.7715 72.8027 67.5781 72.8027Z" fill="#000000" fill-opacity="0.85"/>
 </g>
</svg>
