<?xml version="1.0" encoding="UTF-8"?>
<!--Generator: Apple Native CoreSVG 232.5-->
<!DOCTYPE svg
PUBLIC "-//W3C//DTD SVG 1.1//EN"
       "http://www.w3.org/Graphics/SVG/1.1/DTD/svg11.dtd">
<svg version="1.1" xmlns="http://www.w3.org/2000/svg" xmlns:xlink="http://www.w3.org/1999/xlink" width="99.6094" height="99.6582">
 <g>
  <rect height="99.6582" opacity="0" width="99.6094" x="0" y="0"/>
  <path d="M49.8047 99.6094C77.0508 99.6094 99.6094 77.002 99.6094 49.8047C99.6094 22.5586 77.002 0 49.7559 0C22.5586 0 0 22.5586 0 49.8047C0 77.002 22.6074 99.6094 49.8047 99.6094ZM49.8047 91.3086C26.7578 91.3086 8.34961 72.8516 8.34961 49.8047C8.34961 26.7578 26.709 8.30078 49.7559 8.30078C72.8027 8.30078 91.3086 26.7578 91.3086 49.8047C91.3086 72.8516 72.8516 91.3086 49.8047 91.3086Z" fill="#000000" fill-opacity="0.85"/>
  <path d="M57.0801 74.4629C59.6191 72.0703 58.8379 70.0684 56.25 68.1152L49.6094 62.6953C47.1191 60.6934 45.6055 61.5723 43.7988 63.1836L43.3594 63.5742C41.6504 64.9414 39.4531 63.7695 33.9844 58.4473C28.9551 53.3691 27.4902 50.5859 28.8574 49.0723L29.248 48.6328C30.957 46.7285 31.6895 45.2148 29.7363 42.7734L24.3652 36.1328C22.2656 33.6426 20.459 32.8613 17.9199 35.3027C11.084 42.1875 16.0645 54.0039 27.2949 65.1855C38.3789 76.3672 50.2441 81.3477 57.0801 74.4629ZM38.1836 44.2383L42.4805 44.2383C44.1895 44.2383 45.1172 43.2129 45.1172 41.6016L45.1172 37.3535C45.1172 35.6445 44.1895 34.7656 42.4805 34.7656L38.1836 34.7656C36.5723 34.7656 35.5957 35.6445 35.5957 37.3535L35.5957 41.6016C35.5957 43.2129 36.5723 44.2383 38.1836 44.2383ZM50.7324 44.2383L55.0293 44.2383C56.6406 44.2383 57.5684 43.2129 57.5684 41.6016L57.5684 37.3535C57.5684 35.6445 56.6406 34.7656 55.0293 34.7656L50.7324 34.7656C49.0723 34.7656 47.998 35.6445 47.998 37.3535L47.998 41.6016C47.998 43.2129 49.0723 44.2383 50.7324 44.2383ZM63.1348 44.2383L67.4316 44.2383C69.0918 44.2383 70.1172 43.2129 70.1172 41.6016L70.1172 37.3535C70.1172 35.6445 69.0918 34.7656 67.4316 34.7656L63.1348 34.7656C61.5234 34.7656 60.5957 35.6445 60.5957 37.3535L60.5957 41.6016C60.5957 43.2129 61.5234 44.2383 63.1348 44.2383ZM75.6348 44.2383L79.9316 44.2383C81.6895 44.2383 82.6172 43.2129 82.6172 41.6016L82.6172 37.3535C82.6172 35.6445 81.6895 34.7656 79.9316 34.7656L75.6348 34.7656C74.0234 34.7656 73.0957 35.6445 73.0957 37.3535L73.0957 41.6016C73.0957 43.2129 74.0234 44.2383 75.6348 44.2383ZM38.1836 56.7383L42.4316 56.7383C44.1895 56.7383 45.1172 55.8105 45.1172 54.1016L45.1172 49.8535C45.1172 48.1445 44.1895 47.2656 42.4316 47.2656L38.1836 47.2656C36.4746 47.2656 35.5957 48.1445 35.5957 49.8535L35.5957 54.1016C35.5957 55.8105 36.4746 56.7383 38.1836 56.7383ZM50.6836 56.7383L67.5293 56.7383C69.1895 56.7383 70.1172 55.8105 70.1172 54.1016L70.1172 49.8535C70.1172 48.1445 69.1895 47.2656 67.5293 47.2656L50.6836 47.2656C49.0234 47.2656 47.998 48.1445 47.998 49.8535L47.998 54.1016C47.998 55.8105 49.0234 56.7383 50.6836 56.7383ZM75.6836 56.7383L80.0293 56.7383C81.7383 56.7383 82.6172 55.8105 82.6172 54.1016L82.6172 49.8535C82.6172 48.1445 81.7383 47.2656 80.0293 47.2656L75.6836 47.2656C74.1211 47.2656 73.0957 48.1445 73.0957 49.8535L73.0957 54.1016C73.0957 55.8105 74.1211 56.7383 75.6836 56.7383Z" fill="#000000" fill-opacity="0.85"/>
 </g>
</svg>
