<?xml version="1.0" encoding="UTF-8"?>
<!--Generator: Apple Native CoreSVG 232.5-->
<!DOCTYPE svg
PUBLIC "-//W3C//DTD SVG 1.1//EN"
       "http://www.w3.org/Graphics/SVG/1.1/DTD/svg11.dtd">
<svg version="1.1" xmlns="http://www.w3.org/2000/svg" xmlns:xlink="http://www.w3.org/1999/xlink" width="89.8926" height="89.9902">
 <g>
  <rect height="89.9902" opacity="0" width="89.8926" x="0" y="0"/>
  <path d="M89.8926 15.2344L89.8926 74.8535C89.8926 84.9121 84.8145 89.9902 74.5605 89.9902L15.332 89.9902C5.12695 89.9902 0 84.9609 0 74.8535L0 15.2344C0 5.12695 5.12695 0.0976562 15.332 0.0976562L74.5605 0.0976562C84.8145 0.0976562 89.8926 5.17578 89.8926 15.2344ZM29.9316 31.2988C28.125 31.2988 27.002 32.4707 27.002 34.1797C27.002 35.9863 28.125 37.1582 29.9316 37.1582L41.6992 37.1582L41.6992 67.041C41.6992 69.0918 43.1152 70.3613 45.0195 70.3613C46.9238 70.3613 48.2422 69.0918 48.2422 67.041L48.2422 37.1582L60.0098 37.1582C61.8164 37.1582 62.9395 35.9863 62.9395 34.1797C62.9395 32.4707 61.8164 31.2988 60.0098 31.2988ZM29.2969 22.0703C27.9297 22.0703 26.9043 23.0469 26.9043 24.5117C26.9043 25.9277 27.9297 27.0508 29.2969 27.0508L60.5957 27.0508C62.0117 27.0508 62.9883 25.9277 62.9883 24.5117C62.9883 23.0469 62.0117 22.0703 60.5957 22.0703Z" fill="#000000" fill-opacity="0.85"/>
 </g>
</svg>
