<?xml version="1.0" encoding="UTF-8"?>
<!--Generator: Apple Native CoreSVG 232.5-->
<!DOCTYPE svg
PUBLIC "-//W3C//DTD SVG 1.1//EN"
       "http://www.w3.org/Graphics/SVG/1.1/DTD/svg11.dtd">
<svg version="1.1" xmlns="http://www.w3.org/2000/svg" xmlns:xlink="http://www.w3.org/1999/xlink" width="99.6094" height="99.6582">
 <g>
  <rect height="99.6582" opacity="0" width="99.6094" x="0" y="0"/>
  <path d="M99.6094 49.8047C99.6094 77.002 77.0508 99.6094 49.8047 99.6094C22.6074 99.6094 0 77.002 0 49.8047C0 22.5586 22.5586 0 49.7559 0C77.002 0 99.6094 22.5586 99.6094 49.8047ZM34.7656 36.1328C32.959 36.1328 31.8359 37.3047 31.8359 39.0137C31.8359 40.8203 32.959 41.9922 34.7656 41.9922L46.5332 41.9922L46.5332 71.875C46.5332 73.9258 47.9492 75.1953 49.8535 75.1953C51.7578 75.1953 53.0762 73.9258 53.0762 71.875L53.0762 41.9922L64.7949 41.9922C66.6504 41.9922 67.7734 40.8203 67.7734 39.0137C67.7734 37.3047 66.6504 36.1328 64.7949 36.1328ZM34.1309 26.9043C32.7637 26.9043 31.7383 27.8809 31.7383 29.3457C31.7383 30.7617 32.7637 31.8848 34.1309 31.8848L65.3809 31.8848C66.8457 31.8848 67.8223 30.7617 67.8223 29.3457C67.8223 27.8809 66.8457 26.9043 65.3809 26.9043Z" fill="#000000" fill-opacity="0.85"/>
 </g>
</svg>
