<?xml version="1.0" encoding="UTF-8"?>
<!--Generator: Apple Native CoreSVG 232.5-->
<!DOCTYPE svg
PUBLIC "-//W3C//DTD SVG 1.1//EN"
       "http://www.w3.org/Graphics/SVG/1.1/DTD/svg11.dtd">
<svg version="1.1" xmlns="http://www.w3.org/2000/svg" xmlns:xlink="http://www.w3.org/1999/xlink" width="89.8926" height="89.9902">
 <g>
  <rect height="89.9902" opacity="0" width="89.8926" x="0" y="0"/>
  <path d="M15.332 89.9902L74.5605 89.9902C84.8145 89.9902 89.8926 84.9121 89.8926 74.8535L89.8926 15.2344C89.8926 5.17578 84.8145 0.0976562 74.5605 0.0976562L15.332 0.0976562C5.12695 0.0976562 0 5.12695 0 15.2344L0 74.8535C0 84.9609 5.12695 89.9902 15.332 89.9902ZM15.4297 82.1289C10.5469 82.1289 7.86133 79.541 7.86133 74.4629L7.86133 15.625C7.86133 10.5469 10.5469 7.95898 15.4297 7.95898L74.4629 7.95898C79.2969 7.95898 82.0312 10.5469 82.0312 15.625L82.0312 74.4629C82.0312 79.541 79.2969 82.1289 74.4629 82.1289Z" fill="#000000" fill-opacity="0.85"/>
  <path d="M27.5391 34.5215C27.5391 36.2305 28.6621 37.3535 30.3711 37.3535L41.7969 37.3535L41.7969 66.3574C41.7969 68.3105 43.1641 69.5801 45.0195 69.5801C46.875 69.5801 48.1445 68.3105 48.1445 66.3574L48.1445 37.3535L59.5703 37.3535C61.2793 37.3535 62.4023 36.2305 62.4023 34.5215C62.4023 32.8613 61.2793 31.7383 59.5703 31.7383L30.3711 31.7383C28.6621 31.7383 27.5391 32.8613 27.5391 34.5215ZM27.4414 25.1465C27.4414 26.5137 28.4668 27.5879 29.7852 27.5879L60.1074 27.5879C61.4746 27.5879 62.4512 26.5137 62.4512 25.1465C62.4512 23.7305 61.4746 22.7539 60.1074 22.7539L29.7852 22.7539C28.4668 22.7539 27.4414 23.7305 27.4414 25.1465Z" fill="#000000" fill-opacity="0.85"/>
 </g>
</svg>
