<?xml version="1.0" encoding="UTF-8"?>
<!--Generator: Apple Native CoreSVG 232.5-->
<!DOCTYPE svg
PUBLIC "-//W3C//DTD SVG 1.1//EN"
       "http://www.w3.org/Graphics/SVG/1.1/DTD/svg11.dtd">
<svg version="1.1" xmlns="http://www.w3.org/2000/svg" xmlns:xlink="http://www.w3.org/1999/xlink" width="65.8691" height="91.0645">
 <g>
  <rect height="91.0645" opacity="0" width="65.8691" x="0" y="0"/>
  <path d="M0 5.46875C0 7.22656 1.41602 8.64258 3.22266 8.64258L62.6465 8.64258C64.4531 8.64258 65.8691 7.22656 65.8691 5.46875C65.8691 3.71094 64.4531 2.29492 62.6465 2.29492L3.22266 2.29492C1.41602 2.29492 0 3.71094 0 5.46875ZM0 23.6816C0 25.8301 1.75781 27.5879 3.90625 27.5879L28.2715 27.5879L28.2715 86.377C28.2715 88.9648 30.3223 91.0645 32.9102 91.0645C35.5469 91.0645 37.5977 88.9648 37.5977 86.377L37.5977 27.5879L61.9141 27.5879C64.1113 27.5879 65.8691 25.8301 65.8691 23.6816C65.8691 21.5332 64.1113 19.7754 61.9141 19.7754L3.90625 19.7754C1.75781 19.7754 0 21.5332 0 23.6816Z" fill="#000000" fill-opacity="0.85"/>
 </g>
</svg>
