<?xml version="1.0" encoding="UTF-8"?>
<!--Generator: Apple Native CoreSVG 232.5-->
<!DOCTYPE svg
PUBLIC "-//W3C//DTD SVG 1.1//EN"
       "http://www.w3.org/Graphics/SVG/1.1/DTD/svg11.dtd">
<svg version="1.1" xmlns="http://www.w3.org/2000/svg" xmlns:xlink="http://www.w3.org/1999/xlink" width="99.6094" height="99.6582">
 <g>
  <rect height="99.6582" opacity="0" width="99.6094" x="0" y="0"/>
  <path d="M53.8086 97.0703L60.0098 95.5566C59.1309 92.7734 58.6914 89.7949 58.6914 86.6211C58.6914 69.3848 71.7285 56.3477 88.916 56.3477C91.3574 56.3477 93.6523 56.6406 95.8984 57.1289L97.4121 50.9766C94.6777 50.293 91.8457 49.9512 88.916 49.9512C68.6523 49.9512 52.2949 66.3086 52.2949 86.6211C52.2949 90.2832 52.7832 93.7988 53.8086 97.0703ZM2.97852 42.1387L1.75781 48.3887C4.6875 49.1211 7.66602 49.5117 10.791 49.5117C31.0547 49.5117 47.4121 33.1543 47.4121 12.8418C47.4121 9.375 46.9727 6.05469 46.0449 2.97852L39.6484 3.75977C40.5762 6.5918 41.0156 9.61914 41.0156 12.8418C41.0156 30.0781 27.9785 43.1152 10.791 43.1152C8.10547 43.1152 5.51758 42.7734 2.97852 42.1387ZM49.8047 0C22.6074 0 0 22.5586 0 49.8047C0 77.002 22.6562 99.6094 49.8535 99.6094C77.0996 99.6094 99.6094 77.002 99.6094 49.8047C99.6094 22.5586 77.0508 0 49.8047 0ZM49.8047 6.64062C73.3887 6.64062 92.9688 26.2207 92.9688 49.8047C92.9688 73.3887 73.4375 92.9688 49.8535 92.9688C26.2695 92.9688 6.64062 73.3887 6.64062 49.8047C6.64062 26.2207 26.2207 6.64062 49.8047 6.64062Z" fill="#000000" fill-opacity="0.85"/>
 </g>
</svg>
