<?xml version="1.0" encoding="UTF-8"?>
<!--Generator: Apple Native CoreSVG 232.5-->
<!DOCTYPE svg
PUBLIC "-//W3C//DTD SVG 1.1//EN"
       "http://www.w3.org/Graphics/SVG/1.1/DTD/svg11.dtd">
<svg version="1.1" xmlns="http://www.w3.org/2000/svg" xmlns:xlink="http://www.w3.org/1999/xlink" width="99.6094" height="99.6582">
 <g>
  <rect height="99.6582" opacity="0" width="99.6094" x="0" y="0"/>
  <path d="M99.6094 49.8047C99.6094 77.002 77.0508 99.6094 49.8047 99.6094C22.6074 99.6094 0 77.002 0 49.8047C0 22.5586 22.5586 0 49.7559 0C77.002 0 99.6094 22.5586 99.6094 49.8047ZM47.5586 22.998C48.1934 24.9512 48.4863 27.0508 48.4863 29.248C48.4863 40.625 39.3066 49.8535 27.8809 49.8535C26.123 49.8535 24.3652 49.6582 22.7051 49.2188C22.7051 49.4629 22.7051 49.707 22.7051 49.9512C22.7051 64.6973 34.9609 76.9531 49.707 76.9531C50.4395 76.9531 51.2695 76.9531 52.002 76.8555C51.3184 74.8535 51.0254 72.7051 51.0254 70.5078C51.0254 59.1309 60.1562 49.8535 71.6309 49.8535C73.3887 49.8535 75.0488 50.0977 76.7578 50.5371C76.7578 50.3418 76.7578 50.1465 76.7578 49.9512C76.7578 35.1562 64.4531 22.9004 49.707 22.9004C48.9746 22.9004 48.291 22.9492 47.5586 22.998ZM54.834 70.5078C54.834 72.5586 55.127 74.4629 55.8594 76.2207C66.3086 73.7305 74.6094 65.0391 76.3672 54.3945C74.8535 53.9062 73.3398 53.6621 71.6309 53.6621C62.0605 53.6621 54.834 60.9375 54.834 70.5078ZM23.0957 45.4102C24.5605 45.8008 26.1719 46.0449 27.8809 46.0449C37.4023 46.0449 44.6777 38.8184 44.6777 29.248C44.6777 27.2461 44.3848 25.3906 43.7012 23.6328C33.2031 26.0254 25 34.7168 23.0957 45.4102Z" fill="#000000" fill-opacity="0.85"/>
 </g>
</svg>
