<?xml version="1.0" encoding="UTF-8"?>
<!--Generator: Apple Native CoreSVG 232.5-->
<!DOCTYPE svg
PUBLIC "-//W3C//DTD SVG 1.1//EN"
       "http://www.w3.org/Graphics/SVG/1.1/DTD/svg11.dtd">
<svg version="1.1" xmlns="http://www.w3.org/2000/svg" xmlns:xlink="http://www.w3.org/1999/xlink" width="99.6094" height="99.6582">
 <g>
  <rect height="99.6582" opacity="0" width="99.6094" x="0" y="0"/>
  <path d="M0.634766 41.748C3.51562 42.4805 6.44531 42.8711 9.57031 42.8711C27.2949 42.8711 40.7227 29.4434 40.7227 11.6699C40.7227 7.95898 40.0879 4.39453 38.9648 1.2207C19.3848 5.61523 4.00391 21.7773 0.634766 41.748ZM49.8047 99.6094C51.2695 99.6094 52.6855 99.5117 54.1504 99.3652C52.9785 95.7031 52.3438 91.8457 52.3438 87.7441C52.3438 66.7969 69.2383 49.9023 90.1367 49.9023C93.4082 49.9023 96.4844 50.293 99.5605 51.123C99.6094 50.6836 99.6094 50.2441 99.6094 49.8047C99.6094 22.5586 77.002 0 49.7559 0C48.3398 0 46.9727 0.0976562 45.6055 0.195312C46.8262 3.75977 47.3633 7.61719 47.3633 11.6699C47.3633 32.6172 30.4688 49.5117 9.57031 49.5117C6.34766 49.5117 3.07617 49.0723 0.0488281 48.3398C0 48.7793 0 49.3164 0 49.8047C0 77.002 22.6074 99.6094 49.8047 99.6094ZM60.791 98.3398C80.2734 93.8477 95.6543 77.6855 98.9746 57.7637C96.1426 56.9824 93.3105 56.543 90.1367 56.543C72.4121 56.543 58.9844 69.9707 58.9844 87.7441C58.9844 91.5527 59.5703 95.1172 60.791 98.3398Z" fill="#000000" fill-opacity="0.85"/>
 </g>
</svg>
