<?xml version="1.0" encoding="UTF-8"?>
<!--Generator: Apple Native CoreSVG 232.5-->
<!DOCTYPE svg
PUBLIC "-//W3C//DTD SVG 1.1//EN"
       "http://www.w3.org/Graphics/SVG/1.1/DTD/svg11.dtd">
<svg version="1.1" xmlns="http://www.w3.org/2000/svg" xmlns:xlink="http://www.w3.org/1999/xlink" width="105.005" height="108.13">
 <g>
  <rect height="108.13" opacity="0" width="105.005" x="0" y="0"/>
  <path d="M96.936 11.3647C84.9731-0.598145 64.1724 0.964355 50.2563 14.8315C42.1997 22.937 38.8306 32.9956 38.7329 42.9077C38.5376 57.605 37.1216 66.1011 23.5962 79.6265L28.6743 84.6558C42.1509 71.228 50.5981 70.0562 65.2954 69.5679C75.354 69.2749 85.2661 66.1499 93.4204 57.9956C107.336 44.0796 108.899 23.2788 96.936 11.3647ZM91.7114 16.5405C101.331 26.2085 100.208 40.8569 88.2446 52.771C76.1841 64.7827 61.5356 65.9546 51.9653 56.3354C42.2974 46.7651 43.4204 32.0679 55.481 20.0562C67.4438 8.09326 82.1411 6.97021 91.7114 16.5405ZM46.7407 61.5601C48.1079 63.0249 49.7681 64.1968 51.4771 65.271C46.6919 66.1011 42.1997 67.7124 37.3657 70.9351C40.5884 66.1499 42.1997 61.6089 42.981 56.8237C44.0063 58.5327 45.2759 60.144 46.7407 61.5601ZM1.72119 103.21L4.94385 106.482C7.23877 108.679 10.5591 108.679 12.8052 106.482L31.7017 87.5366C33.9966 85.2417 33.9966 81.9214 31.7017 79.6753L28.479 76.4038C26.2329 74.1577 22.8638 74.1577 20.6177 76.4038L1.72119 95.3979C-0.57373 97.5952-0.57373 100.916 1.72119 103.21ZM42.5415 42.3218L44.9829 44.7632L80.188 9.55811L77.7466 7.06787ZM45.2759 53.5522L47.6685 55.9937L91.3696 12.3413L89.0259 9.85107ZM52.2583 60.5835L54.7485 63.0249L98.4497 19.3237L96.0083 16.8335ZM63.5376 63.3179L65.9302 65.8081L101.184 30.5542L98.6938 28.1128ZM74.1333 8.43506L99.5239 33.7769L101.965 31.3354L76.5747 5.99365ZM63.0981 10.73L97.4731 45.2026L100.012 42.7124L65.5396 8.28857ZM55.9692 16.7847L91.3696 52.2827L93.9087 49.7925L58.4106 14.2944ZM49.7681 22.9858L85.1685 58.4839L87.6587 55.9937L52.2095 20.4956ZM43.7134 30.1147L78.1372 64.5874L80.5786 62.146L46.106 27.7222ZM41.3208 41.0522L66.8579 66.6382L69.3481 64.1479L43.7622 38.6108Z" fill="#000000" fill-opacity="0.85"/>
 </g>
</svg>
