<?xml version="1.0" encoding="UTF-8"?>
<!--Generator: Apple Native CoreSVG 232.5-->
<!DOCTYPE svg
PUBLIC "-//W3C//DTD SVG 1.1//EN"
       "http://www.w3.org/Graphics/SVG/1.1/DTD/svg11.dtd">
<svg version="1.1" xmlns="http://www.w3.org/2000/svg" xmlns:xlink="http://www.w3.org/1999/xlink" width="99.6094" height="99.6582">
 <g>
  <rect height="99.6582" opacity="0" width="99.6094" x="0" y="0"/>
  <path d="M49.8047 99.6094C77.0508 99.6094 99.6094 77.002 99.6094 49.8047C99.6094 22.5586 77.002 0 49.7559 0C22.5586 0 0 22.5586 0 49.8047C0 77.002 22.6074 99.6094 49.8047 99.6094ZM49.8047 91.3086C26.7578 91.3086 8.34961 72.8516 8.34961 49.8047C8.34961 26.7578 26.709 8.30078 49.7559 8.30078C72.8027 8.30078 91.3086 26.7578 91.3086 49.8047C91.3086 72.8516 72.8516 91.3086 49.8047 91.3086Z" fill="#000000" fill-opacity="0.85"/>
  <path d="M23.9258 45.5566C25.3418 45.9473 26.9043 46.1426 28.5645 46.1426C37.793 46.1426 44.8242 39.1602 44.8242 29.8828C44.8242 27.9297 44.5312 26.123 43.8965 24.4141C33.6914 26.7578 25.7324 35.1562 23.9258 45.5566ZM49.707 76.123C50.4395 76.123 51.2207 76.123 51.9531 76.0254C51.2695 74.0723 50.9766 72.0215 50.9766 69.873C50.9766 58.8379 59.8633 49.8535 70.9473 49.8535C72.6562 49.8535 74.2676 50.0977 75.9277 50.5371C75.9277 50.3418 75.9277 50.1465 75.9277 49.9512C75.9277 35.5957 64.0137 23.7305 49.707 23.7305C48.9746 23.7305 48.3398 23.7793 47.6074 23.8281C48.2422 25.7324 48.5352 27.7344 48.5352 29.8828C48.5352 40.918 39.5996 49.8535 28.5645 49.8535C26.8555 49.8535 25.1465 49.6582 23.5352 49.2188C23.5352 49.4629 23.5352 49.707 23.5352 49.9512C23.5352 64.2578 35.4004 76.123 49.707 76.123ZM55.6641 75.4395C65.8203 72.998 73.8281 64.5996 75.5371 54.248C74.0723 53.8086 72.6074 53.5645 70.9473 53.5645C61.6699 53.5645 54.6875 60.5957 54.6875 69.873C54.6875 71.875 54.9805 73.7305 55.6641 75.4395Z" fill="#000000" fill-opacity="0.85"/>
 </g>
</svg>
