<?xml version="1.0" encoding="UTF-8"?>
<!--Generator: Apple Native CoreSVG 232.5-->
<!DOCTYPE svg
PUBLIC "-//W3C//DTD SVG 1.1//EN"
       "http://www.w3.org/Graphics/SVG/1.1/DTD/svg11.dtd">
<svg version="1.1" xmlns="http://www.w3.org/2000/svg" xmlns:xlink="http://www.w3.org/1999/xlink" width="99.6094" height="99.6582">
 <g>
  <rect height="99.6582" opacity="0" width="99.6094" x="0" y="0"/>
  <path d="M49.8047 99.6094C77.0508 99.6094 99.6094 77.002 99.6094 49.8047C99.6094 22.5586 77.002 0 49.7559 0C22.5586 0 0 22.5586 0 49.8047C0 77.002 22.6074 99.6094 49.8047 99.6094ZM49.8047 91.3086C26.7578 91.3086 8.34961 72.8516 8.34961 49.8047C8.34961 26.7578 26.709 8.30078 49.7559 8.30078C72.8027 8.30078 91.3086 26.7578 91.3086 49.8047C91.3086 72.8516 72.8516 91.3086 49.8047 91.3086Z" fill="#000000" fill-opacity="0.85"/>
  <path d="M72.7051 26.709C66.4062 20.459 55.5664 21.2891 48.3398 28.4668C44.1895 32.7148 42.3828 38.0371 42.3828 43.1152C42.2852 50.6836 41.5039 54.9805 34.4727 61.9141L37.5 64.9414C44.4824 57.9102 48.6328 57.2754 56.25 57.0801C61.4258 56.9336 66.6504 55.2734 70.8984 51.0742C78.125 43.7988 79.0039 32.959 72.7051 26.709ZM69.6289 29.7363C74.3164 34.4238 73.584 42.334 67.8711 47.998C62.1094 53.7109 54.248 54.4922 49.6094 49.8047C44.873 45.166 45.6543 37.2559 51.4648 31.543C57.1289 25.8301 64.9902 25.0488 69.6289 29.7363ZM23.7305 73.9258L25.3906 75.6348C26.5625 76.8066 28.2715 76.8066 29.4434 75.6348L39.1113 65.918C40.2832 64.6973 40.2832 63.0859 39.1113 61.8652L37.4512 60.2051C36.3281 59.0332 34.6191 59.0332 33.4473 60.2051L23.7305 69.9707C22.6074 71.1426 22.5586 72.7539 23.7305 73.9258ZM71.1914 46.875L73.584 44.3359L55.3223 26.0254L52.832 28.5156ZM64.2578 53.6621L66.8457 51.2695L48.4863 32.9102L45.9961 35.3516ZM45.8008 44.9219L47.3145 48.3887L67.9199 27.7832L64.9414 25.8301ZM51.7578 52.2461L54.9316 53.9062L73.877 35.0098L71.875 31.9824Z" fill="#000000" fill-opacity="0.85"/>
 </g>
</svg>
