<?xml version="1.0" encoding="UTF-8"?>
<!--Generator: Apple Native CoreSVG 232.5-->
<!DOCTYPE svg
PUBLIC "-//W3C//DTD SVG 1.1//EN"
       "http://www.w3.org/Graphics/SVG/1.1/DTD/svg11.dtd">
<svg version="1.1" xmlns="http://www.w3.org/2000/svg" xmlns:xlink="http://www.w3.org/1999/xlink" width="140.531" height="101.123">
 <g>
  <rect height="101.123" opacity="0" width="140.531" x="0" y="0"/>
  <path d="M42.9706 13.9648L61.5227 51.1571L51.9308 70.3741L39.6014 44.4824C39.1131 43.4082 38.2831 42.9199 37.3553 42.9199C36.4764 42.9199 35.6463 43.4082 35.1581 44.4824L19.4842 77.2949L31.5448 77.2949L37.3553 52.1973L43.1659 77.2949L48.4764 77.2949L44.7474 84.7656L5.66588 84.7656C0.441268 84.7656-1.17006 79.8828 0.831893 75.9277L31.7401 13.9648C32.912 11.7188 35.0116 10.2051 37.3553 10.2051C39.6991 10.2051 41.7987 11.7188 42.9706 13.9648Z" fill="#000000" fill-opacity="0.85"/>
  <path d="M47.0721 101.123L134.035 101.123C140.139 101.123 141.848 95.6055 139.504 90.9668L97.1698 6.10352C95.7538 3.32031 93.2147 1.61133 90.578 1.61133C87.8924 1.61133 85.4022 3.22266 84.0838 5.95703L41.6522 90.9668C39.3085 95.6055 41.0174 101.123 47.0721 101.123ZM65.9686 93.6035L87.453 48.4375C88.1366 47.0215 89.3085 46.3379 90.578 46.3379C91.7987 46.3379 92.9706 47.0215 93.6542 48.4375L115.139 93.6035L98.4393 93.6035L90.578 59.0332L82.6678 93.6035Z" fill="#000000" fill-opacity="0.85"/>
 </g>
</svg>
