<?xml version="1.0" encoding="UTF-8"?>
<!--Generator: Apple Native CoreSVG 232.5-->
<!DOCTYPE svg
PUBLIC "-//W3C//DTD SVG 1.1//EN"
       "http://www.w3.org/Graphics/SVG/1.1/DTD/svg11.dtd">
<svg version="1.1" xmlns="http://www.w3.org/2000/svg" xmlns:xlink="http://www.w3.org/1999/xlink" width="99.6094" height="99.6582">
 <g>
  <rect height="99.6582" opacity="0" width="99.6094" x="0" y="0"/>
  <path d="M49.8047 99.6094C77.0508 99.6094 99.6094 77.002 99.6094 49.8047C99.6094 22.5586 77.002 0 49.7559 0C22.5586 0 0 22.5586 0 49.8047C0 77.002 22.6074 99.6094 49.8047 99.6094ZM49.8047 91.3086C26.7578 91.3086 8.34961 72.8516 8.34961 49.8047C8.34961 26.7578 26.709 8.30078 49.7559 8.30078C72.8027 8.30078 91.3086 26.7578 91.3086 49.8047C91.3086 72.8516 72.8516 91.3086 49.8047 91.3086Z" fill="#000000" fill-opacity="0.85"/>
  <path d="M37.6953 70.166L77.6855 70.166C80.4688 70.166 81.25 67.6758 80.2246 65.5762L60.6934 26.4648C60.0098 25.2441 58.9355 24.4629 57.7148 24.4629C56.4453 24.4629 55.3223 25.1953 54.7852 26.416L35.2051 65.5762C34.1309 67.6758 34.9609 70.166 37.6953 70.166ZM46.5332 66.5527L56.2988 45.9961C56.8848 44.6777 58.3984 44.6777 59.1309 45.9961L68.8477 66.5527L61.2793 66.5527L57.7148 50.8789L54.1016 66.5527ZM35.791 59.0332L33.252 47.7539L30.5664 59.0332L25.1953 59.0332L32.2266 44.2383C32.7148 43.1152 33.8867 43.3594 34.2773 44.2383L40.625 57.6172L45.1172 48.7793L35.7422 30.127C35.2051 29.1016 34.2285 28.418 33.252 28.418C32.1289 28.418 31.2012 29.1016 30.6641 30.127L16.4551 58.6914C15.5762 60.498 16.2598 62.6953 18.6035 62.6953L38.0371 62.6953L39.8438 59.0332Z" fill="#000000" fill-opacity="0.85"/>
 </g>
</svg>
