<?xml version="1.0" encoding="UTF-8"?>
<!--Generator: Apple Native CoreSVG 232.5-->
<!DOCTYPE svg
PUBLIC "-//W3C//DTD SVG 1.1//EN"
       "http://www.w3.org/Graphics/SVG/1.1/DTD/svg11.dtd">
<svg version="1.1" xmlns="http://www.w3.org/2000/svg" xmlns:xlink="http://www.w3.org/1999/xlink" width="100" height="102.49">
 <g>
  <rect height="102.49" opacity="0" width="100" x="0" y="0"/>
  <path d="M87.7441 83.7891C87.7441 90.2344 83.4473 94.5312 77.002 94.5312C70.5078 94.5312 66.2109 90.2344 66.2109 83.7891L66.2109 78.5645L87.7441 78.5645Z" fill="#000000" fill-opacity="0.85"/>
  <path d="M100 4.05273C100 6.29883 98.1445 8.20312 95.8984 8.20312L95.5566 8.20313L95.5566 83.7891C95.5566 94.9219 88.1348 102.295 77.002 102.295C65.8203 102.295 58.3496 94.9219 58.3496 83.7891L58.3496 8.20313L58.0566 8.20312C55.6152 8.20312 53.9062 6.29883 53.9062 4.05273C53.9062 1.80664 55.6152 0 58.0566 0L95.8984 0C98.1445 0 100 1.80664 100 4.05273ZM66.2109 8.20313L66.2109 31.25L76.8555 31.25C78.418 31.25 79.7363 32.5195 79.7363 34.0332C79.7363 35.6934 78.5156 36.9629 76.9043 36.9629L66.2109 36.9629L66.2109 47.0703L76.9043 47.0703C78.4668 47.0703 79.7363 48.3887 79.7363 49.9023C79.7363 51.5625 78.5156 52.7832 76.9043 52.7832L66.2109 52.7832L66.2109 62.9395L76.8555 62.9395C78.418 62.9395 79.6875 64.2578 79.6875 65.7715C79.7363 67.4316 78.5645 68.6523 76.8555 68.6523L66.2109 68.6523L66.2109 83.7891C66.2109 90.2344 70.5078 94.5312 77.002 94.5312C83.4473 94.5312 87.7441 90.2344 87.7441 83.7891L87.7441 8.20313Z" fill="#000000" fill-opacity="0.85"/>
  <path d="M33.7891 83.7891C33.7891 90.2344 29.4922 94.5312 23.0957 94.5312C16.6016 94.5312 12.3047 90.2344 12.3047 83.7891L12.3047 68.6523L22.9004 68.6523C24.6094 68.6523 25.8301 67.4316 25.7812 65.7715C25.7812 64.2578 24.4629 62.9395 22.9004 62.9395L12.3047 62.9395L12.3047 52.7832L22.9492 52.7832C24.5605 52.7832 25.8301 51.5625 25.8301 49.9023C25.8301 48.3887 24.5117 47.0703 22.9492 47.0703L12.3047 47.0703L12.3047 36.9629L22.9492 36.9629C24.5605 36.9629 25.8301 35.6934 25.8301 34.0332C25.8301 32.5195 24.4629 31.25 22.9004 31.25L12.3047 31.25L12.3047 21.0938L33.7891 21.0938Z" fill="#000000" fill-opacity="0.85"/>
  <path d="M46.0938 4.05273C46.0938 6.29883 44.1895 8.20312 41.9434 8.20312L41.6016 8.20313L41.6016 83.7891C41.6016 94.9219 34.2285 102.295 23.0957 102.295C11.8652 102.295 4.44336 94.9219 4.44336 83.7891L4.44336 8.20313L4.10156 8.20312C1.66016 8.20312 0 6.29883 0 4.05273C0 1.80664 1.66016 0 4.10156 0L41.9434 0C44.1895 0 46.0938 1.80664 46.0938 4.05273ZM12.3047 8.20313L12.3047 83.7891C12.3047 90.2344 16.6016 94.5312 23.0957 94.5312C29.4922 94.5312 33.7891 90.2344 33.7891 83.7891L33.7891 8.20313Z" fill="#000000" fill-opacity="0.85"/>
 </g>
</svg>
