<?xml version="1.0" encoding="UTF-8"?>
<!--Generator: Apple Native CoreSVG 232.5-->
<!DOCTYPE svg
PUBLIC "-//W3C//DTD SVG 1.1//EN"
       "http://www.w3.org/Graphics/SVG/1.1/DTD/svg11.dtd">
<svg version="1.1" xmlns="http://www.w3.org/2000/svg" xmlns:xlink="http://www.w3.org/1999/xlink" width="43.6035" height="51.9043">
 <g>
  <rect height="51.9043" opacity="0" width="43.6035" x="0" y="0"/>
  <path d="M4.05273 51.9043C6.05469 51.9043 7.37305 50.8789 8.1543 48.4863L12.207 36.5234L31.2988 36.5234L35.3516 48.4863C36.1328 50.9766 37.4512 51.9043 39.502 51.9043C41.9434 51.9043 43.6035 50.3906 43.6035 48.1934C43.6035 47.2168 43.3594 46.2891 42.9688 45.2637L27.7832 4.93164C26.6602 1.95312 24.6094 0.390625 21.7285 0.390625C18.8965 0.390625 16.8457 1.85547 15.7227 4.93164L0.537109 45.2637C0.146484 46.1914 0 47.168 0 48.1934C0 50.4395 1.5625 51.9043 4.05273 51.9043ZM14.3555 30.1758L21.1914 9.81445L22.3145 9.81445L29.1504 30.1758Z" fill="#000000" fill-opacity="0.85"/>
 </g>
</svg>
