<?xml version="1.0" encoding="UTF-8"?>
<!--Generator: Apple Native CoreSVG 232.5-->
<!DOCTYPE svg
PUBLIC "-//W3C//DTD SVG 1.1//EN"
       "http://www.w3.org/Graphics/SVG/1.1/DTD/svg11.dtd">
<svg version="1.1" xmlns="http://www.w3.org/2000/svg" xmlns:xlink="http://www.w3.org/1999/xlink" width="98.3887" height="84.4238">
 <g>
  <rect height="84.4238" opacity="0" width="98.3887" x="0" y="0"/>
  <path d="M3.66211 7.37305L94.6289 7.37305C96.6797 7.37305 98.3887 5.76172 98.3887 3.66211C98.3887 1.61133 96.6797 0 94.6289 0L3.66211 0C1.61133 0 0 1.61133 0 3.66211C0 5.76172 1.61133 7.37305 3.66211 7.37305ZM3.66211 32.959L58.5938 32.959C60.6445 32.959 62.3047 31.3477 62.3047 29.248C62.3047 27.1973 60.6445 25.5859 58.5938 25.5859L3.66211 25.5859C1.61133 25.5859 0 27.1973 0 29.248C0 31.3477 1.61133 32.959 3.66211 32.959ZM3.66211 58.5449L94.6289 58.5449C96.6797 58.5449 98.3887 56.8848 98.3887 54.834C98.3887 52.7832 96.6797 51.1719 94.6289 51.1719L3.66211 51.1719C1.61133 51.1719 0 52.7832 0 54.834C0 56.8848 1.61133 58.5449 3.66211 58.5449ZM3.66211 84.082L58.5938 84.082C60.6445 84.082 62.3047 82.4707 62.3047 80.4199C62.3047 78.3691 60.6445 76.709 58.5938 76.709L3.66211 76.709C1.61133 76.709 0 78.3691 0 80.4199C0 82.4707 1.61133 84.082 3.66211 84.082Z" fill="#000000" fill-opacity="0.85"/>
 </g>
</svg>
