<?xml version="1.0" encoding="UTF-8"?>
<!--Generator: Apple Native CoreSVG 232.5-->
<!DOCTYPE svg
PUBLIC "-//W3C//DTD SVG 1.1//EN"
       "http://www.w3.org/Graphics/SVG/1.1/DTD/svg11.dtd">
<svg version="1.1" xmlns="http://www.w3.org/2000/svg" xmlns:xlink="http://www.w3.org/1999/xlink" width="100.439" height="124.463">
 <g>
  <rect height="124.463" opacity="0" width="100.439" x="0" y="0"/>
  <path d="M3.66211 101.562L96.7285 101.562C98.7793 101.562 100.439 99.9512 100.439 97.8516C100.439 95.8008 98.7793 94.1895 96.7285 94.1895L3.66211 94.1895C1.61133 94.1895 0 95.8008 0 97.8516C0 99.9512 1.61133 101.562 3.66211 101.562ZM3.66211 124.463L63.8672 124.463C65.918 124.463 67.5781 122.852 67.5781 120.801C67.5781 118.75 65.918 117.09 63.8672 117.09L3.66211 117.09C1.61133 117.09 0 118.75 0 120.801C0 122.852 1.61133 124.463 3.66211 124.463Z" fill="#000000" fill-opacity="0.85"/>
  <path d="M13.5742 78.6133L86.8652 78.6133C95.9473 78.6133 100.439 74.1699 100.439 65.2832L100.439 13.4766C100.439 4.58984 95.9473 0.0488281 86.8652 0.0488281L13.5742 0.0488281C4.58984 0.0488281 0 4.63867 0 13.4766L0 65.2832C0 74.1211 4.54102 78.6133 13.5742 78.6133ZM13.6719 71.1914C9.57031 71.1914 7.37305 69.043 7.37305 64.8438L7.37305 13.8672C7.37305 9.7168 9.57031 7.42188 13.6719 7.42188L86.8164 7.42188C90.8691 7.42188 93.0664 9.66797 93.0664 13.8672L93.0664 64.8438C93.0664 68.9941 90.8691 71.1914 86.8164 71.1914ZM95.8008 62.9395L70.6543 39.2578C68.75 37.5488 66.5039 36.6699 64.209 36.6699C61.9141 36.6699 59.8633 37.5 57.8613 39.209L38.7207 56.3477L30.9082 49.2188C29.1504 47.6074 27.1973 46.7773 25.0977 46.7773C23.2422 46.7773 21.4844 47.6074 19.6777 49.2188L3.61328 63.7695C3.85742 71.3867 6.98242 75.293 13.3301 75.293L84.3262 75.293C91.9922 75.293 95.8008 71.0449 95.8008 62.9395Z" fill="#000000" fill-opacity="0.85"/>
  <path d="M31.7871 39.7461C37.2559 39.7461 41.7969 35.2051 41.7969 29.6875C41.7969 24.2188 37.2559 19.7266 31.7871 19.7266C26.2695 19.7266 21.8262 24.2188 21.8262 29.6875C21.8262 35.2051 26.2695 39.7461 31.7871 39.7461Z" fill="#000000" fill-opacity="0.85"/>
 </g>
</svg>
