<?xml version="1.0" encoding="UTF-8"?>
<!--Generator: Apple Native CoreSVG 232.5-->
<!DOCTYPE svg
PUBLIC "-//W3C//DTD SVG 1.1//EN"
       "http://www.w3.org/Graphics/SVG/1.1/DTD/svg11.dtd">
<svg version="1.1" xmlns="http://www.w3.org/2000/svg" xmlns:xlink="http://www.w3.org/1999/xlink" width="100.439" height="124.561">
 <g>
  <rect height="124.561" opacity="0" width="100.439" x="0" y="0"/>
  <path d="M67.5781 120.898C67.5781 122.949 65.918 124.561 63.8672 124.561L3.66211 124.561C1.61133 124.561 0 122.949 0 120.898C0 118.848 1.61133 117.188 3.66211 117.188L63.8672 117.188C65.918 117.188 67.5781 118.848 67.5781 120.898ZM100.439 97.9492C100.439 100.049 98.7793 101.66 96.7285 101.66L3.66211 101.66C1.61133 101.66 0 100.049 0 97.9492C0 95.8984 1.61133 94.2871 3.66211 94.2871L96.7285 94.2871C98.7793 94.2871 100.439 95.8984 100.439 97.9492Z" fill="#000000" fill-opacity="0.85"/>
  <path d="M100.439 13.5254L100.439 65.332C100.439 74.2188 95.9473 78.6621 86.8652 78.6621L13.5742 78.6621C4.54102 78.6621 0 74.1699 0 65.332L0 13.5254C0 4.6875 4.58984 0.0976562 13.5742 0.0976562L86.8652 0.0976562C95.9473 0.0976562 100.439 4.63867 100.439 13.5254ZM60.498 40.3809L40.0391 58.5449L31.9336 51.1719C30.0293 49.4629 27.8809 48.584 25.7812 48.584C23.877 48.584 21.8262 49.4141 19.9707 51.0742L7.42188 62.5977L7.42188 64.6484C7.42188 68.8477 9.86328 71.2891 14.0137 71.2891L86.6699 71.2891C90.7227 71.2891 93.2617 68.8477 93.2617 64.7461L93.2617 58.6914L74.1211 40.4785C72.2168 38.5742 69.6777 37.6953 67.3828 37.6953C64.8926 37.6953 62.5977 38.5742 60.498 40.3809ZM21.4355 29.8828C21.4355 35.6934 26.1719 40.4297 31.9824 40.4297C37.7441 40.4297 42.4805 35.6934 42.4805 29.8828C42.4805 24.1211 37.7441 19.3848 31.9824 19.3848C26.1719 19.3848 21.4355 24.1211 21.4355 29.8828Z" fill="#000000" fill-opacity="0.85"/>
 </g>
</svg>
