<?xml version="1.0" encoding="UTF-8"?>
<!--Generator: Apple Native CoreSVG 232.5-->
<!DOCTYPE svg
PUBLIC "-//W3C//DTD SVG 1.1//EN"
       "http://www.w3.org/Graphics/SVG/1.1/DTD/svg11.dtd">
<svg version="1.1" xmlns="http://www.w3.org/2000/svg" xmlns:xlink="http://www.w3.org/1999/xlink" width="111.914" height="72.8027">
 <g>
  <rect height="72.8027" opacity="0" width="111.914" x="0" y="0"/>
  <path d="M86.1816 72.7539C93.7012 72.7539 100.732 68.6523 103.76 62.3047L103.955 62.3047L103.955 68.75C103.955 71.1914 105.615 72.8027 107.91 72.8027C110.254 72.8027 111.914 71.1914 111.914 68.5547L111.914 35.9863C111.914 25.3418 104.102 18.457 91.6992 18.457C82.5195 18.457 74.8535 22.5098 72.0703 28.8086C71.5332 30.0293 71.1426 31.2012 71.1426 32.2266C71.1426 34.375 72.7539 35.791 74.8535 35.791C76.3672 35.791 77.5391 35.2051 78.2715 33.8379C81.0059 28.1738 85.1562 25.5371 91.5039 25.5371C99.1211 25.5371 103.662 29.7852 103.662 36.6211L103.662 40.8203L87.8906 41.6992C75.5371 42.3828 68.6523 48.0957 68.6523 57.1777C68.6523 66.5039 75.8301 72.7539 86.1816 72.7539ZM88.1836 65.9668C81.5918 65.9668 77.0996 62.3535 77.0996 56.9824C77.0996 51.8066 81.25 48.3398 88.916 47.8516L103.662 46.9238L103.662 52.0996C103.662 59.8633 96.7773 65.9668 88.1836 65.9668Z" fill="#000000" fill-opacity="0.85"/>
  <path d="M4.10156 72.4121C6.68945 72.4121 7.95898 71.4355 8.88672 68.7012L15.1855 51.4648L43.9941 51.4648L50.293 68.7012C51.2207 71.4355 52.4902 72.4121 55.0293 72.4121C57.6172 72.4121 59.2773 70.8496 59.2773 68.4082C59.2773 67.5781 59.1309 66.7969 58.7402 65.7715L35.8398 4.78516C34.7168 1.80664 32.7148 0.292969 29.5898 0.292969C26.5625 0.292969 24.5117 1.75781 23.4375 4.73633L0.537109 65.8203C0.146484 66.8457 0 67.627 0 68.457C0 70.8984 1.5625 72.4121 4.10156 72.4121ZM17.5781 44.043L29.4434 11.1816L29.6875 11.1816L41.5527 44.043Z" fill="#000000" fill-opacity="0.85"/>
 </g>
</svg>
