<?xml version="1.0" encoding="UTF-8"?>
<!--Generator: Apple Native CoreSVG 232.5-->
<!DOCTYPE svg
PUBLIC "-//W3C//DTD SVG 1.1//EN"
       "http://www.w3.org/Graphics/SVG/1.1/DTD/svg11.dtd">
<svg version="1.1" xmlns="http://www.w3.org/2000/svg" xmlns:xlink="http://www.w3.org/1999/xlink" width="147.656" height="100.306">
 <g>
  <rect height="100.306" opacity="0" width="147.656" x="0" y="0"/>
  <path d="M37.0605 94.3178L123.096 94.3178C127.197 94.3178 129.248 92.3158 129.248 88.2143L129.248 84.601C129.248 80.5971 127.197 78.4975 123.096 78.4975L37.0605 78.4975C32.959 78.4975 30.9082 80.5971 30.9082 84.601L30.9082 88.2143C30.9082 92.3158 32.959 94.3178 37.0605 94.3178ZM4.39453 99.6889L21.7285 89.142C23.9746 87.7748 23.9258 85.1869 21.7285 83.8198L4.39453 73.2241C2.09961 71.808 0 73.0287 0 75.6166L0 97.3451C0 99.9819 2.09961 101.105 4.39453 99.6889Z" fill="#000000" fill-opacity="0.85"/>
  <path d="M34.5703 13.3119L125.537 13.3119C127.588 13.3119 129.248 11.7006 129.248 9.64983C129.248 7.55022 127.588 5.9389 125.537 5.9389L34.5703 5.9389C32.5195 5.9389 30.9082 7.55022 30.9082 9.64983C30.9082 11.7006 32.5195 13.3119 34.5703 13.3119ZM34.5703 38.4096L125.537 38.4096C127.588 38.4096 129.248 36.7983 129.248 34.7475C129.248 32.6479 127.588 31.0366 125.537 31.0366L34.5703 31.0366C32.5195 31.0366 30.9082 32.6479 30.9082 34.7475C30.9082 36.7983 32.5195 38.4096 34.5703 38.4096ZM34.5703 63.5073L125.537 63.5073C127.588 63.5073 129.248 61.8959 129.248 59.8451C129.248 57.7455 127.588 56.1342 125.537 56.1342L34.5703 56.1342C32.5195 56.1342 30.9082 57.7455 30.9082 59.8451C30.9082 61.8959 32.5195 63.5073 34.5703 63.5073Z" fill="#000000" fill-opacity="0.85"/>
 </g>
</svg>
