<?xml version="1.0" encoding="UTF-8"?>
<!--Generator: Apple Native CoreSVG 232.5-->
<!DOCTYPE svg
PUBLIC "-//W3C//DTD SVG 1.1//EN"
       "http://www.w3.org/Graphics/SVG/1.1/DTD/svg11.dtd">
<svg version="1.1" xmlns="http://www.w3.org/2000/svg" xmlns:xlink="http://www.w3.org/1999/xlink" width="151.221" height="72.1191">
 <g>
  <rect height="72.1191" opacity="0" width="151.221" x="0" y="0"/>
  <path d="M130.176 72.1191C139.746 72.1191 147.998 66.8457 150.781 59.375C151.025 58.5449 151.221 57.7637 151.221 57.0801C151.221 54.9805 149.707 53.5156 147.656 53.5156C145.801 53.5156 144.873 54.248 143.75 56.3965C141.211 61.9629 136.816 64.9902 130.225 64.9902C120.654 64.9902 114.404 57.4219 114.404 45.2148C114.404 33.1055 120.703 25.3418 130.225 25.3418C136.523 25.3418 141.064 28.3203 143.652 34.0332C144.727 36.084 145.703 36.8164 147.51 36.8164C149.609 36.8164 151.074 35.4492 151.074 33.3008C151.074 32.7148 150.879 31.9824 150.732 31.3477C148.291 23.877 139.941 18.2129 130.029 18.2129C115.479 18.2129 105.957 28.9062 105.957 45.2637C105.957 61.7188 115.576 72.1191 130.176 72.1191Z" fill="#000000" fill-opacity="0.85"/>
  <path d="M56.543 72.0703C58.8867 72.0703 60.5957 70.459 60.5957 67.9688L60.5957 60.9375L60.7422 60.9375C63.916 67.8223 70.3125 72.1191 78.3691 72.1191C91.6992 72.1191 100.488 61.5234 100.488 45.166C100.488 28.8086 91.6504 18.2129 78.4668 18.2129C70.5566 18.2129 64.1113 22.5586 61.084 29.3457L60.8398 29.3457L60.8398 4.39453C60.8398 1.75781 59.1797 0.0488281 56.7383 0.0488281C54.248 0.0488281 52.5879 1.75781 52.5879 4.39453L52.5879 67.9688C52.5879 70.5078 54.1992 72.0703 56.543 72.0703ZM76.5625 64.9902C67.334 64.9902 60.8398 57.1289 60.8398 45.2148C60.8398 33.252 67.3828 25.3906 76.5625 25.3906C86.0352 25.3906 91.9922 33.0566 91.9922 45.166C91.9922 57.373 85.9863 64.9902 76.5625 64.9902Z" fill="#000000" fill-opacity="0.85"/>
  <path d="M17.3828 72.0703C24.8535 72.0703 31.8359 68.0176 34.8145 61.7676L34.9609 61.7676L34.9609 68.1152C34.9609 70.5078 36.6211 72.1191 38.916 72.1191C41.3086 72.1191 42.9199 70.5078 42.9199 67.9199L42.9199 35.5957C42.9199 25 35.1562 18.2129 22.9004 18.2129C13.7207 18.2129 6.20117 22.2168 3.36914 28.4668C2.83203 29.6387 2.49023 30.8105 2.49023 31.8359C2.49023 33.9844 4.05273 35.4004 6.15234 35.4004C7.66602 35.4004 8.83789 34.8145 9.57031 33.4473C12.2559 27.8809 16.4062 25.2441 22.6562 25.2441C30.2246 25.2441 34.668 29.4434 34.668 36.2305L34.668 40.3809L19.0918 41.2598C6.83594 41.9434 0 47.6074 0 56.5918C0 65.918 7.12891 72.0703 17.3828 72.0703ZM19.3848 65.2832C12.8418 65.2832 8.44727 61.7188 8.44727 56.4453C8.44727 51.3184 12.5488 47.9004 20.1172 47.4121L34.668 46.4844L34.668 51.5625C34.668 59.2773 27.8809 65.2832 19.3848 65.2832Z" fill="#000000" fill-opacity="0.85"/>
 </g>
</svg>
