<?xml version="1.0" encoding="UTF-8"?>
<!--Generator: Apple Native CoreSVG 232.5-->
<!DOCTYPE svg
PUBLIC "-//W3C//DTD SVG 1.1//EN"
       "http://www.w3.org/Graphics/SVG/1.1/DTD/svg11.dtd">
<svg version="1.1" xmlns="http://www.w3.org/2000/svg" xmlns:xlink="http://www.w3.org/1999/xlink" width="82.1289" height="104.639">
 <g>
  <rect height="104.639" opacity="0" width="82.1289" x="0" y="0"/>
  <path d="M29.1992 31.2012C27.3926 31.2012 25.8789 29.6875 25.8789 27.8809C25.8789 26.0254 27.3926 24.5605 29.1992 24.5605L66.8945 24.5605C68.7012 24.5605 70.2148 26.0254 70.2148 27.8809C70.2148 29.6875 68.7012 31.2012 66.8945 31.2012ZM29.1992 45.0684C27.3926 45.0684 25.8789 43.5547 25.8789 41.6992C25.8789 39.8926 27.3926 38.4277 29.1992 38.4277L57.8125 38.4277C59.668 38.4277 61.1328 39.8926 61.1328 41.6992C61.1328 43.5547 59.668 45.0684 57.8125 45.0684ZM14.9902 104.639L78.2227 104.639C80.3711 104.639 82.1289 102.93 82.1289 100.732C82.1289 99.0234 80.957 97.5098 79.3945 96.9727C73.2422 94.5312 71.9727 86.5723 78.0273 80.4688C79.8828 78.6133 82.1289 76.2207 82.1289 71.3379L82.1289 15.332C82.1289 5.17578 77.0996 0 66.9922 0L15.1367 0C5.0293 0 0 5.12695 0 15.332L0 89.5508C0 99.6094 5.07812 104.639 14.9902 104.639ZM15.4297 96.7773C10.498 96.7773 7.86133 94.1406 7.86133 89.502C7.86133 85.1074 10.9863 82.2754 15.8691 82.2754L65.9668 82.2754C66.6016 82.2754 67.1875 82.2266 67.6758 82.1289C65.3809 87.207 65.7715 92.5781 68.3594 96.7773ZM13.9648 74.8535C12.4512 74.8535 11.1816 73.584 11.1816 72.0215L11.1816 10.3516C11.1816 8.78906 12.4512 7.56836 13.9648 7.56836C15.4785 7.56836 16.7969 8.78906 16.7969 10.3516L16.7969 72.0215C16.7969 73.584 15.4785 74.8535 13.9648 74.8535Z" fill="#000000" fill-opacity="0.85"/>
 </g>
</svg>
