<?xml version="1.0" encoding="UTF-8"?>
<!--Generator: Apple Native CoreSVG 232.5-->
<!DOCTYPE svg
PUBLIC "-//W3C//DTD SVG 1.1//EN"
       "http://www.w3.org/Graphics/SVG/1.1/DTD/svg11.dtd">
<svg version="1.1" xmlns="http://www.w3.org/2000/svg" xmlns:xlink="http://www.w3.org/1999/xlink" width="86.8164" height="96.7285">
 <g>
  <rect height="96.7285" opacity="0" width="86.8164" x="0" y="0"/>
  <path d="M4.10156 84.375C6.68945 84.375 7.95898 83.3984 8.88672 80.6641L15.1855 63.4277L43.9941 63.4277L50.293 80.6641C51.2207 83.3984 52.4902 84.375 55.0293 84.375C57.6172 84.375 59.2773 82.8125 59.2773 80.3711C59.2773 79.541 59.1309 78.7598 58.7402 77.7344L35.8398 16.748C34.7168 13.7695 32.7148 12.2559 29.5898 12.2559C26.5625 12.2559 24.5117 13.7207 23.4375 16.6992L0.537109 77.7832C0.146484 78.8086 0 79.5898 0 80.4199C0 82.8613 1.5625 84.375 4.10156 84.375ZM17.5781 56.0059L29.4434 23.1445L29.6875 23.1445L41.5527 56.0059Z" fill="#000000" fill-opacity="0.85"/>
  <path d="M83.2031 96.7285C85.4004 96.7285 86.8164 95.3125 86.8164 93.2617L86.8164 59.8633C86.8164 57.4219 85.3027 55.957 82.9102 55.957C80.7617 55.957 79.6875 56.7383 78.2715 57.7637L70.459 63.0859C69.0918 64.0625 68.5059 64.8926 68.5059 65.9668C68.5059 67.5781 69.7266 68.7988 71.2402 68.7988C72.2168 68.7988 72.8516 68.5059 73.8281 67.8223L79.4922 64.0137L79.6387 64.0137L79.6387 93.2617C79.6387 95.3125 81.1035 96.7285 83.2031 96.7285Z" fill="#000000" fill-opacity="0.85"/>
 </g>
</svg>
