<?xml version="1.0" encoding="UTF-8"?>
<!--Generator: Apple Native CoreSVG 232.5-->
<!DOCTYPE svg
PUBLIC "-//W3C//DTD SVG 1.1//EN"
       "http://www.w3.org/Graphics/SVG/1.1/DTD/svg11.dtd">
<svg version="1.1" xmlns="http://www.w3.org/2000/svg" xmlns:xlink="http://www.w3.org/1999/xlink" width="111.23" height="72.2168">
 <g>
  <rect height="72.2168" opacity="0" width="111.23" x="0" y="0"/>
  <path d="M56.0547 72.1191C58.5938 72.1191 59.9121 71.1426 60.8398 68.4082L67.1387 51.1719L95.9473 51.1719L102.246 68.4082C103.174 71.1426 104.443 72.1191 106.982 72.1191C109.57 72.1191 111.23 70.5566 111.23 68.1152C111.23 67.2852 111.084 66.5039 110.693 65.4785L87.793 4.49219C86.6699 1.51367 84.668 0 81.543 0C78.5156 0 76.4648 1.46484 75.3906 4.44336L52.4902 65.5273C52.0996 66.5527 51.9531 67.334 51.9531 68.1641C51.9531 70.6055 53.5156 72.1191 56.0547 72.1191ZM69.5312 43.75L81.3965 10.8887L81.6406 10.8887L93.5059 43.75Z" fill="#000000" fill-opacity="0.85"/>
  <path d="M4.05273 71.9727C6.05469 71.9727 7.37305 70.9473 8.1543 68.5547L12.207 56.5918L31.2988 56.5918L35.3516 68.5547C36.1328 71.0449 37.4512 71.9727 39.502 71.9727C41.9434 71.9727 43.6035 70.459 43.6035 68.2617C43.6035 67.2852 43.3594 66.3574 42.9688 65.332L27.7832 25C26.6602 22.0215 24.6094 20.459 21.7285 20.459C18.8965 20.459 16.8457 21.9238 15.7227 25L0.537109 65.332C0.146484 66.2598 0 67.2363 0 68.2617C0 70.5078 1.5625 71.9727 4.05273 71.9727ZM14.3555 50.2441L21.1914 29.8828L22.3145 29.8828L29.1504 50.2441Z" fill="#000000" fill-opacity="0.85"/>
 </g>
</svg>
