<?xml version="1.0" encoding="UTF-8"?>
<!--Generator: Apple Native CoreSVG 232.5-->
<!DOCTYPE svg
PUBLIC "-//W3C//DTD SVG 1.1//EN"
       "http://www.w3.org/Graphics/SVG/1.1/DTD/svg11.dtd">
<svg version="1.1" xmlns="http://www.w3.org/2000/svg" xmlns:xlink="http://www.w3.org/1999/xlink" width="151.611" height="103.076">
 <g>
  <rect height="103.076" opacity="0" width="151.611" x="0" y="0"/>
  <path d="M5.95703 102.93C9.22852 102.93 11.8652 100.244 11.8652 96.9727C11.8652 93.7012 9.22852 91.0645 5.95703 91.0645C2.63672 91.0645 0 93.7012 0 96.9727C0 100.244 2.63672 102.93 5.95703 102.93ZM29.248 102.93C32.5195 102.93 35.1562 100.244 35.1562 96.9727C35.1562 93.7012 32.5195 91.0645 29.248 91.0645C25.9277 91.0645 23.291 93.7012 23.291 96.9727C23.291 100.244 25.9277 102.93 29.248 102.93ZM52.5391 102.93C55.8105 102.93 58.4473 100.244 58.4473 96.9727C58.4473 93.7012 55.8105 91.0645 52.5391 91.0645C49.2676 91.0645 46.582 93.7012 46.582 96.9727C46.582 100.244 49.2676 102.93 52.5391 102.93ZM75.8301 102.93C79.1016 102.93 81.7383 100.244 81.7383 96.9727C81.7383 93.7012 79.1016 91.0645 75.8301 91.0645C72.5586 91.0645 69.873 93.7012 69.873 96.9727C69.873 100.244 72.5586 102.93 75.8301 102.93ZM99.1211 102.93C102.393 102.93 105.029 100.244 105.029 96.9727C105.029 93.7012 102.393 91.0645 99.1211 91.0645C95.8496 91.0645 93.1641 93.7012 93.1641 96.9727C93.1641 100.244 95.8496 102.93 99.1211 102.93ZM122.412 102.93C125.684 102.93 128.32 100.244 128.32 96.9727C128.32 93.7012 125.684 91.0645 122.412 91.0645C119.141 91.0645 116.455 93.7012 116.455 96.9727C116.455 100.244 119.141 102.93 122.412 102.93ZM145.703 102.93C148.975 102.93 151.611 100.244 151.611 96.9727C151.611 93.7012 148.975 91.0645 145.703 91.0645C142.432 91.0645 139.746 93.7012 139.746 96.9727C139.746 100.244 142.432 102.93 145.703 102.93Z" fill="#000000" fill-opacity="0.85"/>
  <path d="M17.5781 72.0703C25 72.0703 32.0312 68.0176 34.9609 61.7188L35.1562 61.7188L35.1562 68.0664C35.1562 70.5078 36.8164 72.1191 39.1113 72.1191C41.4551 72.1191 43.0664 70.5078 43.0664 67.8711L43.0664 35.5469C43.0664 25 35.3516 18.2129 23.0469 18.2129C13.916 18.2129 6.34766 22.2168 3.56445 28.418C3.02734 29.6387 2.63672 30.8105 2.63672 31.8359C2.63672 33.9844 4.24805 35.4004 6.34766 35.4004C7.86133 35.4004 8.98438 34.8145 9.76562 33.4473C12.4512 27.832 16.5527 25.2441 22.8516 25.2441C30.3711 25.2441 34.8633 29.4434 34.8633 36.2305L34.8633 40.3809L19.2383 41.2598C6.98242 41.8945 0.146484 47.6074 0.146484 56.5918C0.146484 65.8691 7.27539 72.0703 17.5781 72.0703ZM19.5312 65.2832C13.0371 65.2832 8.59375 61.7188 8.59375 56.3965C8.59375 51.3184 12.6953 47.9004 20.2637 47.4121L34.8633 46.4355L34.8633 51.5625C34.8633 59.2773 28.0273 65.2832 19.5312 65.2832ZM56.6895 72.0703C59.0332 72.0703 60.7422 70.459 60.7422 67.9199L60.7422 60.9375L60.9375 60.9375C64.1113 67.8223 70.5078 72.0703 78.5645 72.0703C91.8945 72.0703 100.635 61.4746 100.635 45.166C100.635 28.8086 91.8457 18.2129 78.6621 18.2129C70.752 18.2129 64.2578 22.5098 61.2305 29.3457L60.9863 29.3457L60.9863 4.39453C60.9863 1.70898 59.3262 0 56.8848 0C54.4434 0 52.7832 1.70898 52.7832 4.39453L52.7832 67.9199C52.7832 70.5078 54.3457 72.0703 56.6895 72.0703ZM76.709 64.9902C67.5293 64.9902 61.0352 57.1289 61.0352 45.166C61.0352 33.252 67.5293 25.3906 76.709 25.3906C86.1816 25.3906 92.1387 33.0566 92.1387 45.166C92.1387 57.3242 86.1816 64.9902 76.709 64.9902ZM130.322 72.0703C139.941 72.0703 148.145 66.7969 150.928 59.375C151.221 58.5449 151.367 57.7637 151.367 57.0312C151.367 54.9805 149.902 53.5156 147.852 53.5156C145.996 53.5156 145.068 54.1992 143.945 56.3477C141.406 61.9141 136.963 64.9902 130.371 64.9902C120.85 64.9902 114.6 57.4219 114.6 45.166C114.6 33.0566 120.85 25.3418 130.371 25.3418C136.67 25.3418 141.211 28.2715 143.848 34.0332C144.922 36.084 145.898 36.8164 147.705 36.8164C149.805 36.8164 151.221 35.4492 151.221 33.3008C151.221 32.7148 151.074 31.9824 150.879 31.2988C148.438 23.8281 140.137 18.2129 130.176 18.2129C115.625 18.2129 106.152 28.9062 106.152 45.2637C106.152 61.6699 115.723 72.0703 130.322 72.0703Z" fill="#000000" fill-opacity="0.85"/>
 </g>
</svg>
