<?xml version="1.0" encoding="UTF-8"?>
<!--Generator: Apple Native CoreSVG 232.5-->
<!DOCTYPE svg
PUBLIC "-//W3C//DTD SVG 1.1//EN"
       "http://www.w3.org/Graphics/SVG/1.1/DTD/svg11.dtd">
<svg version="1.1" xmlns="http://www.w3.org/2000/svg" xmlns:xlink="http://www.w3.org/1999/xlink" width="91.7969" height="72.4121">
 <g>
  <rect height="72.4121" opacity="0" width="91.7969" x="0" y="0"/>
  <path d="M47.168 71.1914L87.7441 71.1914C90.1855 71.1914 91.7969 69.6289 91.7969 67.2852C91.7969 64.9414 90.1855 63.3301 87.7441 63.3301L55.2246 63.3301L55.2246 63.0859L74.3164 44.3848C85.8398 33.1055 89.3555 27.2461 89.3555 19.7754C89.3555 8.54492 79.4434 0 66.2109 0C55.8105 0 46.9238 5.66406 43.9453 14.2578C43.3594 15.8691 43.1152 17.2852 43.1152 18.5059C43.1152 20.9473 44.5801 22.5586 46.9727 22.5586C49.2676 22.5586 50.2441 21.4844 50.9766 19.043C51.3672 17.5293 51.9043 16.1133 52.6855 14.8926C55.2734 10.498 60.1074 7.76367 66.2109 7.76367C74.0723 7.76367 80.4199 13.3301 80.4199 20.2637C80.4199 25.8789 78.0762 29.6387 68.457 39.209L45.6055 62.0605C43.5547 64.0625 42.8711 65.332 42.8711 67.0898C42.8711 69.6289 44.5801 71.1914 47.168 71.1914Z" fill="#000000" fill-opacity="0.85"/>
  <path d="M24.9023 72.168C27.5879 72.168 29.3457 70.4102 29.3457 67.7246L29.3457 5.32227C29.3457 2.14844 27.3438 0.390625 24.3164 0.390625C22.0703 0.390625 20.8496 1.07422 18.7988 2.39258L2.53906 12.9395C0.634766 14.209 0 15.332 0 16.9434C0 18.9453 1.46484 20.4102 3.61328 20.4102C4.93164 20.4102 5.56641 20.0195 6.44531 19.4336L20.3613 10.6934L20.5566 10.6934L20.5566 67.7246C20.5566 70.4102 22.2168 72.168 24.9023 72.168Z" fill="#000000" fill-opacity="0.85"/>
 </g>
</svg>
