<?xml version="1.0" encoding="UTF-8"?>
<!--Generator: Apple Native CoreSVG 232.5-->
<!DOCTYPE svg
PUBLIC "-//W3C//DTD SVG 1.1//EN"
       "http://www.w3.org/Graphics/SVG/1.1/DTD/svg11.dtd">
<svg version="1.1" xmlns="http://www.w3.org/2000/svg" xmlns:xlink="http://www.w3.org/1999/xlink" width="98.3887" height="84.4238">
 <g>
  <rect height="84.4238" opacity="0" width="98.3887" x="0" y="0"/>
  <path d="M61.2305 7.37305L94.6289 7.37305C96.6797 7.37305 98.3887 5.76172 98.3887 3.66211C98.3887 1.61133 96.6797 0 94.6289 0L61.2305 0C59.1797 0 57.5684 1.61133 57.5684 3.66211C57.5684 5.76172 59.1797 7.37305 61.2305 7.37305ZM61.2305 32.959L94.6289 32.959C96.6797 32.959 98.3887 31.3477 98.3887 29.248C98.3887 27.1973 96.6797 25.5859 94.6289 25.5859L61.2305 25.5859C59.1797 25.5859 57.5684 27.1973 57.5684 29.248C57.5684 31.3477 59.1797 32.959 61.2305 32.959ZM3.66211 58.5449L94.6289 58.5449C96.6797 58.5449 98.3887 56.8848 98.3887 54.834C98.3887 52.7832 96.6797 51.1719 94.6289 51.1719L3.66211 51.1719C1.61133 51.1719 0 52.7832 0 54.834C0 56.8848 1.61133 58.5449 3.66211 58.5449ZM3.66211 84.082L94.6289 84.082C96.6797 84.082 98.3887 82.4707 98.3887 80.4199C98.3887 78.3691 96.6797 76.709 94.6289 76.709L3.66211 76.709C1.61133 76.709 0 78.3691 0 80.4199C0 82.4707 1.61133 84.082 3.66211 84.082Z" fill="#000000" fill-opacity="0.85"/>
  <path d="M0.0488281 33.3984C0.0488281 37.3535 2.05078 39.8438 5.61523 39.8438C9.17969 39.8438 11.2305 37.3535 11.2305 33.3984L11.2305 24.0723C11.2305 22.998 11.7676 22.3633 12.8906 22.3633L26.2207 22.3633L26.2207 27.2461C26.2207 31.1035 30.0781 32.5684 33.0566 30.2246L46.2891 19.6777C48.291 18.0664 48.291 15.2832 46.2891 13.7207L33.0566 3.125C29.9805 0.634766 26.2207 2.14844 26.2207 6.10352L26.2207 11.1816L11.8164 11.1816C4.93164 11.1816 0.0488281 15.4297 0.0488281 22.3633Z" fill="#000000" fill-opacity="0.85"/>
 </g>
</svg>
