<?xml version="1.0" encoding="UTF-8"?>
<!--Generator: Apple Native CoreSVG 232.5-->
<!DOCTYPE svg
PUBLIC "-//W3C//DTD SVG 1.1//EN"
       "http://www.w3.org/Graphics/SVG/1.1/DTD/svg11.dtd">
<svg version="1.1" xmlns="http://www.w3.org/2000/svg" xmlns:xlink="http://www.w3.org/1999/xlink" width="115.137" height="89.9902">
 <g>
  <rect height="89.9902" opacity="0" width="115.137" x="0" y="0"/>
  <path d="M92.4805 69.043C96.582 69.043 99.2676 66.3086 99.2676 62.207C99.2676 58.2031 96.582 55.5176 92.4805 55.5176L90.0391 55.5176L90.0391 50.3418L92.4805 50.3418C96.582 50.3418 99.2676 47.7051 99.2676 43.7012C99.2676 39.5996 96.582 36.8652 92.4805 36.8652C88.4277 36.8652 85.791 39.5996 85.791 43.7012L85.791 46.1426L80.7617 46.1426L80.7617 43.7012C80.7617 39.5996 78.125 36.8652 74.0723 36.8652C69.9707 36.8652 67.2852 39.5996 67.2852 43.7012C67.2852 47.7051 69.9707 50.3418 74.0723 50.3418L76.4648 50.3418L76.4648 55.5176L74.0723 55.5176C69.9707 55.5176 67.2852 58.2031 67.2852 62.207C67.2852 66.3086 69.9707 69.043 74.0723 69.043C78.125 69.043 80.7617 66.3086 80.7617 62.207L80.7617 59.8145L85.791 59.8145L85.791 62.207C85.791 66.3086 88.4277 69.043 92.4805 69.043ZM90.0391 59.7168L92.4805 59.7168C94.043 59.7168 95.0195 60.7422 95.0195 62.207C95.0195 63.7695 94.043 64.7949 92.4805 64.7949C91.0156 64.7949 90.0391 63.7695 90.0391 62.207ZM76.4648 59.7168L76.4648 62.207C76.4648 63.6719 75.4395 64.7949 74.0723 64.7949C72.5098 64.7949 71.5332 63.7695 71.5332 62.207C71.5332 60.7422 72.5098 59.7168 74.0723 59.7168ZM85.791 55.6152L80.7617 55.6152L80.7617 50.3418L85.791 50.3418ZM90.0391 46.1426L90.0391 43.7012C90.0391 42.1387 91.0156 41.1133 92.4805 41.1133C94.043 41.1133 95.0195 42.1387 95.0195 43.7012C95.0195 45.166 94.043 46.1426 92.4805 46.1426ZM76.4648 46.1426L74.0723 46.1426C72.5098 46.1426 71.5332 45.166 71.5332 43.7012C71.5332 42.1387 72.5098 41.1133 74.0723 41.1133C75.4883 41.1133 76.4648 42.1387 76.4648 43.7012ZM18.9941 40.918C18.9941 42.5293 20.3125 43.7988 21.875 43.7988L51.6602 43.7988C53.2227 43.7988 54.4922 42.5293 54.4922 40.918C54.4922 39.3066 53.2227 37.9883 51.6602 37.9883L21.875 37.9883C20.3125 37.9883 18.9941 39.3066 18.9941 40.918ZM18.9941 52.9785C18.9941 54.5898 20.3125 55.9082 21.875 55.9082L51.6602 55.9082C53.2227 55.9082 54.4922 54.5898 54.4922 52.9785C54.4922 51.3672 53.2227 50.0977 51.6602 50.0977L21.875 50.0977C20.3125 50.0977 18.9941 51.3672 18.9941 52.9785ZM18.9941 65.0879C18.9941 66.6992 20.3125 67.9688 21.875 67.9688L51.6602 67.9688C53.2227 67.9688 54.4922 66.6992 54.4922 65.0879C54.4922 63.4277 53.2227 62.1582 51.6602 62.1582L21.875 62.1582C20.3125 62.1582 18.9941 63.4277 18.9941 65.0879ZM0 74.8535C0 84.9609 5.12695 89.9902 15.332 89.9902L99.8047 89.9902C110.059 89.9902 115.137 84.9121 115.137 74.8535L115.137 15.2344C115.137 5.17578 110.059 0.0976562 99.8047 0.0976562L15.332 0.0976562C5.12695 0.0976562 0 5.12695 0 15.2344ZM15.4785 16.748C13.0859 16.748 11.1328 14.6973 11.1328 12.4023C11.1328 10.1074 13.0859 8.05664 15.4785 8.05664C17.8711 8.05664 19.873 10.1074 19.873 12.4023C19.873 14.6973 17.8711 16.748 15.4785 16.748ZM29.4922 16.748C27.0996 16.748 25.1465 14.6973 25.1465 12.4023C25.1465 10.1074 27.0996 8.05664 29.4922 8.05664C31.8848 8.05664 33.8867 10.1074 33.8867 12.4023C33.8867 14.6973 31.8848 16.748 29.4922 16.748ZM43.5059 16.748C41.1133 16.748 39.1602 14.6973 39.1602 12.4023C39.1602 10.1074 41.1133 8.05664 43.5059 8.05664C45.8984 8.05664 47.8516 10.1074 47.8516 12.4023C47.8516 14.6973 45.8984 16.748 43.5059 16.748ZM7.86133 74.4629L7.86133 24.707L107.275 24.707L107.275 74.4629C107.275 79.541 104.541 82.1289 99.707 82.1289L15.4297 82.1289C10.5469 82.1289 7.86133 79.541 7.86133 74.4629Z" fill="#000000" fill-opacity="0.85"/>
 </g>
</svg>
