<?xml version="1.0" encoding="UTF-8"?>
<!--Generator: Apple Native CoreSVG 232.5-->
<!DOCTYPE svg
PUBLIC "-//W3C//DTD SVG 1.1//EN"
       "http://www.w3.org/Graphics/SVG/1.1/DTD/svg11.dtd">
<svg version="1.1" xmlns="http://www.w3.org/2000/svg" xmlns:xlink="http://www.w3.org/1999/xlink" width="95.4102" height="96.3379">
 <g>
  <rect height="96.3379" opacity="0" width="95.4102" x="0" y="0"/>
  <path d="M0 38.9648C0 60.4492 17.4805 77.9297 38.9648 77.9297C47.4609 77.9297 55.2246 75.1953 61.6211 70.6055L85.6445 94.6777C86.7676 95.8008 88.2324 96.3379 89.7949 96.3379C93.1152 96.3379 95.4102 93.8477 95.4102 90.5762C95.4102 89.0137 94.8242 87.5977 93.7988 86.5723L69.9219 62.5488C74.9512 56.0059 77.9297 47.8516 77.9297 38.9648C77.9297 17.4805 60.4492 0 38.9648 0C17.4805 0 0 17.4805 0 38.9648ZM8.34961 38.9648C8.34961 22.0703 22.0703 8.34961 38.9648 8.34961C55.8594 8.34961 69.5801 22.0703 69.5801 38.9648C69.5801 55.8594 55.8594 69.5801 38.9648 69.5801C22.0703 69.5801 8.34961 55.8594 8.34961 38.9648ZM23.584 35.8398L54.541 35.8398C56.4453 35.8398 57.9102 34.3262 57.9102 32.4219C57.9102 30.5176 56.4453 29.0039 54.541 29.0039L23.584 29.0039C21.6309 29.0039 20.166 30.5176 20.166 32.4219C20.166 34.3262 21.6309 35.8398 23.584 35.8398ZM23.584 48.877L46.0449 48.877C47.9492 48.877 49.5117 47.4121 49.5117 45.5078C49.5117 43.6035 47.9492 42.041 46.0449 42.041L23.584 42.041C21.6309 42.041 20.166 43.6035 20.166 45.5078C20.166 47.4121 21.6309 48.877 23.584 48.877Z" fill="#000000" fill-opacity="0.85"/>
 </g>
</svg>
