<?xml version="1.0" encoding="UTF-8"?>
<!--Generator: Apple Native CoreSVG 232.5-->
<!DOCTYPE svg
PUBLIC "-//W3C//DTD SVG 1.1//EN"
       "http://www.w3.org/Graphics/SVG/1.1/DTD/svg11.dtd">
<svg version="1.1" xmlns="http://www.w3.org/2000/svg" xmlns:xlink="http://www.w3.org/1999/xlink" width="98.3887" height="84.4238">
 <g>
  <rect height="84.4238" opacity="0" width="98.3887" x="0" y="0"/>
  <path d="M3.66211 7.37305L94.6289 7.37305C96.6797 7.37305 98.3887 5.76172 98.3887 3.66211C98.3887 1.61133 96.6797 0 94.6289 0L3.66211 0C1.61133 0 0 1.61133 0 3.66211C0 5.76172 1.61133 7.37305 3.66211 7.37305ZM21.7285 32.959L76.6113 32.959C78.6621 32.959 80.3223 31.3477 80.3223 29.248C80.3223 27.1973 78.6621 25.5859 76.6113 25.5859L21.7285 25.5859C19.6289 25.5859 18.0176 27.1973 18.0176 29.248C18.0176 31.3477 19.6289 32.959 21.7285 32.959ZM3.66211 58.5449L94.6289 58.5449C96.6797 58.5449 98.3887 56.8848 98.3887 54.834C98.3887 52.7832 96.6797 51.1719 94.6289 51.1719L3.66211 51.1719C1.61133 51.1719 0 52.7832 0 54.834C0 56.8848 1.61133 58.5449 3.66211 58.5449ZM21.7285 84.082L76.6113 84.082C78.6621 84.082 80.3223 82.4707 80.3223 80.4199C80.3223 78.3691 78.6621 76.709 76.6113 76.709L21.7285 76.709C19.6289 76.709 18.0176 78.3691 18.0176 80.4199C18.0176 82.4707 19.6289 84.082 21.7285 84.082Z" fill="#000000" fill-opacity="0.85"/>
 </g>
</svg>
