<?xml version="1.0" encoding="UTF-8"?>
<!--Generator: Apple Native CoreSVG 232.5-->
<!DOCTYPE svg
PUBLIC "-//W3C//DTD SVG 1.1//EN"
       "http://www.w3.org/Graphics/SVG/1.1/DTD/svg11.dtd">
<svg version="1.1" xmlns="http://www.w3.org/2000/svg" xmlns:xlink="http://www.w3.org/1999/xlink" width="98.3887" height="84.4238">
 <g>
  <rect height="84.4238" opacity="0" width="98.3887" x="0" y="0"/>
  <path d="M3.66211 7.37305L94.6289 7.37305C96.6797 7.37305 98.3887 5.76172 98.3887 3.66211C98.3887 1.61133 96.6797 0 94.6289 0L3.66211 0C1.61133 0 0 1.61133 0 3.66211C0 5.76172 1.61133 7.37305 3.66211 7.37305ZM3.66211 58.5449L94.6289 58.5449C96.6797 58.5449 98.3887 56.8848 98.3887 54.834C98.3887 52.7832 96.6797 51.1719 94.6289 51.1719L3.66211 51.1719C1.61133 51.1719 0 52.7832 0 54.834C0 56.8848 1.61133 58.5449 3.66211 58.5449ZM39.7461 32.959L94.6289 32.959C96.6797 32.959 98.3887 31.3477 98.3887 29.248C98.3887 27.1973 96.6797 25.5859 94.6289 25.5859L39.7461 25.5859C37.6465 25.5859 36.0352 27.1973 36.0352 29.248C36.0352 31.3477 37.6465 32.959 39.7461 32.959ZM39.7461 84.082L94.6289 84.082C96.6797 84.082 98.3887 82.4707 98.3887 80.4199C98.3887 78.3691 96.6797 76.709 94.6289 76.709L39.7461 76.709C37.6465 76.709 36.0352 78.3691 36.0352 80.4199C36.0352 82.4707 37.6465 84.082 39.7461 84.082Z" fill="#000000" fill-opacity="0.85"/>
 </g>
</svg>
