<?xml version="1.0" encoding="UTF-8"?>
<!--Generator: Apple Native CoreSVG 232.5-->
<!DOCTYPE svg
PUBLIC "-//W3C//DTD SVG 1.1//EN"
       "http://www.w3.org/Graphics/SVG/1.1/DTD/svg11.dtd">
<svg version="1.1" xmlns="http://www.w3.org/2000/svg" xmlns:xlink="http://www.w3.org/1999/xlink" width="147.656" height="100.17">
 <g>
  <rect height="100.17" opacity="0" width="147.656" x="0" y="0"/>
  <path d="M34.5703 44.0547L125.537 44.0547C127.588 44.0547 129.248 42.4434 129.248 40.3438C129.248 38.293 127.588 36.6817 125.537 36.6817L34.5703 36.6817C32.5195 36.6817 30.9082 38.293 30.9082 40.3438C30.9082 42.4434 32.5195 44.0547 34.5703 44.0547ZM34.5703 69.1524L125.537 69.1524C127.588 69.1524 129.248 67.4922 129.248 65.4414C129.248 63.3906 127.588 61.7793 125.537 61.7793L34.5703 61.7793C32.5195 61.7793 30.9082 63.3906 30.9082 65.4414C30.9082 67.4922 32.5195 69.1524 34.5703 69.1524ZM34.5703 94.2012L125.537 94.2012C127.588 94.2012 129.248 92.5899 129.248 90.5391C129.248 88.4883 127.588 86.8281 125.537 86.8281L34.5703 86.8281C32.5195 86.8281 30.9082 88.4883 30.9082 90.5391C30.9082 92.5899 32.5195 94.2012 34.5703 94.2012Z" fill="#000000" fill-opacity="0.85"/>
  <path d="M4.39453 27.0625L21.7285 16.5156C23.9746 15.1484 23.9258 12.5606 21.7285 11.1934L4.39453 0.597666C2.09961-0.81835 0 0.402354 0 2.99024L0 24.7188C0 27.3555 2.09961 28.4785 4.39453 27.0625ZM37.0605 21.6914L123.096 21.6914C127.197 21.6914 129.248 19.6895 129.248 15.5879L129.248 11.9746C129.248 7.92188 127.197 5.8711 123.096 5.8711L37.0605 5.8711C32.959 5.8711 30.9082 7.92188 30.9082 11.9746L30.9082 15.5879C30.9082 19.6895 32.959 21.6914 37.0605 21.6914Z" fill="#000000" fill-opacity="0.85"/>
 </g>
</svg>
