<?xml version="1.0" encoding="UTF-8"?>
<!--Generator: Apple Native CoreSVG 232.5-->
<!DOCTYPE svg
PUBLIC "-//W3C//DTD SVG 1.1//EN"
       "http://www.w3.org/Graphics/SVG/1.1/DTD/svg11.dtd">
<svg version="1.1" xmlns="http://www.w3.org/2000/svg" xmlns:xlink="http://www.w3.org/1999/xlink" width="98.3887" height="84.4238">
 <g>
  <rect height="84.4238" opacity="0" width="98.3887" x="0" y="0"/>
  <path d="M3.66211 7.71484L94.6289 7.71484C96.6797 7.71484 98.3887 6.05469 98.3887 4.00391C98.3887 1.95312 96.6797 0.341797 94.6289 0.341797L3.66211 0.341797C1.61133 0.341797 0 1.95312 0 4.00391C0 6.05469 1.61133 7.71484 3.66211 7.71484ZM3.66211 33.252L94.6289 33.252C96.6797 33.252 98.3887 31.6406 98.3887 29.5898C98.3887 27.5391 96.6797 25.8789 94.6289 25.8789L3.66211 25.8789C1.61133 25.8789 0 27.5391 0 29.5898C0 31.6406 1.61133 33.252 3.66211 33.252ZM61.2305 58.8379L94.6289 58.8379C96.6797 58.8379 98.3887 57.2266 98.3887 55.1758C98.3887 53.0762 96.6797 51.4648 94.6289 51.4648L61.2305 51.4648C59.1797 51.4648 57.5684 53.0762 57.5684 55.1758C57.5684 57.2266 59.1797 58.8379 61.2305 58.8379ZM61.2305 84.4238L94.6289 84.4238C96.6797 84.4238 98.3887 82.8125 98.3887 80.7617C98.3887 78.6621 96.6797 77.0508 94.6289 77.0508L61.2305 77.0508C59.1797 77.0508 57.5684 78.6621 57.5684 80.7617C57.5684 82.8125 59.1797 84.4238 61.2305 84.4238Z" fill="#000000" fill-opacity="0.85"/>
  <path d="M0.0488281 51.0254L0.0488281 62.0605C0.0488281 68.9941 4.93164 73.2422 11.8164 73.2422L26.2207 73.2422L26.2207 78.3203C26.2207 82.2754 29.9805 83.7891 33.0566 81.2988L46.2891 70.7031C48.291 69.1406 48.291 66.3574 46.2891 64.7461L33.0566 54.1992C30.0781 51.8555 26.2207 53.3203 26.2207 57.1777L26.2207 62.0605L12.8906 62.0605C11.7676 62.0605 11.2305 61.4258 11.2305 60.3516L11.2305 51.0254C11.2305 47.0703 9.17969 44.5801 5.61523 44.5801C2.05078 44.5801 0.0488281 47.0703 0.0488281 51.0254Z" fill="#000000" fill-opacity="0.85"/>
 </g>
</svg>
