<?xml version="1.0" encoding="UTF-8"?>
<!--Generator: Apple Native CoreSVG 232.5-->
<!DOCTYPE svg
PUBLIC "-//W3C//DTD SVG 1.1//EN"
       "http://www.w3.org/Graphics/SVG/1.1/DTD/svg11.dtd">
<svg version="1.1" xmlns="http://www.w3.org/2000/svg" xmlns:xlink="http://www.w3.org/1999/xlink" width="98.3887" height="84.4238">
 <g>
  <rect height="84.4238" opacity="0" width="98.3887" x="0" y="0"/>
  <path d="M3.66211 7.37305L58.5449 7.37305C60.5957 7.37305 62.2559 5.76172 62.2559 3.66211C62.2559 1.61133 60.5957 0 58.5449 0L3.66211 0C1.61133 0 0 1.61133 0 3.66211C0 5.76172 1.61133 7.37305 3.66211 7.37305ZM73.1445 7.37305L94.6289 7.37305C96.6797 7.37305 98.3887 5.76172 98.3887 3.66211C98.3887 1.61133 96.6797 0 94.6289 0L73.1445 0C71.0938 0 69.4824 1.61133 69.4824 3.66211C69.4824 5.76172 71.0938 7.37305 73.1445 7.37305ZM3.71094 32.959L14.0137 32.959C16.1133 32.959 17.7246 31.3477 17.7246 29.248C17.7246 27.1973 16.1133 25.5859 14.0137 25.5859L3.71094 25.5859C1.66016 25.5859 0 27.1973 0 29.248C0 31.3477 1.66016 32.959 3.71094 32.959ZM28.6621 32.959L54.3457 32.959C56.4453 32.959 58.0566 31.3477 58.0566 29.248C58.0566 27.1973 56.4453 25.5859 54.3457 25.5859L28.6621 25.5859C26.6113 25.5859 24.9512 27.1973 24.9512 29.248C24.9512 31.3477 26.6113 32.959 28.6621 32.959ZM68.9941 32.959L94.6777 32.959C96.7285 32.959 98.3887 31.3477 98.3887 29.248C98.3887 27.1973 96.7285 25.5859 94.6777 25.5859L68.9941 25.5859C66.9434 25.5859 65.2344 27.1973 65.2344 29.248C65.2344 31.3477 66.9434 32.959 68.9941 32.959ZM3.71094 58.5449L25.1953 58.5449C27.2461 58.5449 28.9062 56.8848 28.9062 54.834C28.9062 52.7832 27.2461 51.1719 25.1953 51.1719L3.71094 51.1719C1.66016 51.1719 0 52.7832 0 54.834C0 56.8848 1.66016 58.5449 3.71094 58.5449ZM39.8438 58.5449L94.6777 58.5449C96.7285 58.5449 98.3887 56.8848 98.3887 54.834C98.3887 52.7832 96.7285 51.1719 94.6777 51.1719L39.8438 51.1719C37.7441 51.1719 36.084 52.7832 36.084 54.834C36.084 56.8848 37.7441 58.5449 39.8438 58.5449ZM3.66211 84.082L55.9082 84.082C57.959 84.082 59.6191 82.4707 59.6191 80.4199C59.6191 78.3691 57.959 76.709 55.9082 76.709L3.66211 76.709C1.61133 76.709 0 78.3691 0 80.4199C0 82.4707 1.61133 84.082 3.66211 84.082Z" fill="#000000" fill-opacity="0.85"/>
 </g>
</svg>
