<?xml version="1.0" encoding="UTF-8"?>
<!--Generator: Apple Native CoreSVG 232.5-->
<!DOCTYPE svg
PUBLIC "-//W3C//DTD SVG 1.1//EN"
       "http://www.w3.org/Graphics/SVG/1.1/DTD/svg11.dtd">
<svg version="1.1" xmlns="http://www.w3.org/2000/svg" xmlns:xlink="http://www.w3.org/1999/xlink" width="99.6094" height="99.6582">
 <g>
  <rect height="99.6582" opacity="0" width="99.6094" x="0" y="0"/>
  <path d="M49.8047 99.6094C77.0508 99.6094 99.6094 77.002 99.6094 49.8047C99.6094 22.5586 77.002 0 49.7559 0C22.5586 0 0 22.5586 0 49.8047C0 77.002 22.6074 99.6094 49.8047 99.6094ZM49.8047 91.3086C26.7578 91.3086 8.34961 72.8516 8.34961 49.8047C8.34961 26.7578 26.709 8.30078 49.7559 8.30078C72.8027 8.30078 91.3086 26.7578 91.3086 49.8047C91.3086 72.8516 72.8516 91.3086 49.8047 91.3086Z" fill="#000000" fill-opacity="0.85"/>
  <path d="M43.75 67.4805C54.0527 64.6484 58.5449 56.6895 55.6152 45.8984L51.6602 31.25C50.5859 27.2949 47.998 25.8789 44.043 26.9043L23.2422 32.4219C19.2383 33.4961 17.7734 36.0352 18.8477 40.0391L22.7539 54.7363C25.5859 65.4785 33.4473 70.166 43.75 67.4805ZM41.748 59.9609C37.4023 61.084 33.1543 59.5703 30.8594 56.0547C30.4199 55.3711 30.8594 54.7852 31.6895 54.7852C34.5215 55.0293 37.7441 54.541 40.1367 53.9551C42.4805 53.3203 45.5566 52.0996 47.9004 50.4883C48.584 50 49.3164 50.3418 49.2188 51.1719C49.0723 55.3711 46.1914 58.7891 41.748 59.9609ZM31.2012 46.2402C29.6387 46.6797 29.4434 47.6562 28.7598 47.8027C28.418 47.8516 28.0762 47.5098 27.8809 46.9727C27.3438 45.1172 28.5156 43.2129 30.3223 42.8223C32.1289 42.334 33.9355 43.4082 34.4727 45.1172C34.668 45.752 34.5215 46.2402 34.1309 46.3867C33.3496 46.582 32.6172 45.8008 31.2012 46.2402ZM43.9453 42.8223C42.4316 43.1641 42.1875 44.2383 41.5527 44.2871C41.2598 44.4336 40.8691 43.9941 40.625 43.457C40.1855 41.6992 41.3086 39.7461 43.0664 39.3066C44.9707 38.8672 46.7773 39.8438 47.2168 41.6992C47.4609 42.334 47.2168 42.8223 46.9238 42.9199C46.1914 43.1641 45.4102 42.334 43.9453 42.8223ZM77.5879 37.8906L56.7871 32.2754C56.3965 32.1777 55.957 32.1289 55.6152 32.0801L59.1309 44.9219C60.3516 49.4141 60.4004 53.6621 59.4238 57.3242C59.9609 57.4219 60.498 57.4707 61.0352 57.6172C64.7461 58.5449 67.2363 61.377 67.3828 64.6973C67.3828 65.5273 66.6016 65.9668 65.9668 65.332C63.916 63.4277 62.1094 62.5 59.8633 61.8652C59.1797 61.6699 58.3984 61.4746 57.7148 61.4258C56.0059 64.6484 53.2715 67.2852 49.6094 69.1406C51.5625 70.752 54.0527 72.0703 57.0801 72.8516C67.334 75.5859 75.1953 70.8496 78.0273 60.1074L81.9824 45.459C83.0566 41.5039 81.5918 38.916 77.5879 37.8906ZM68.75 53.8086C67.334 53.5156 66.4551 51.9531 66.8945 50.4883C67.1875 49.0723 68.7012 48.2422 70.166 48.6328C71.582 48.9746 72.4609 50.4883 72.0703 51.9043C71.6309 53.3203 70.166 54.1992 68.75 53.8086Z" fill="#000000" fill-opacity="0.85"/>
 </g>
</svg>
