<?xml version="1.0" encoding="UTF-8"?>
<!--Generator: Apple Native CoreSVG 232.5-->
<!DOCTYPE svg
PUBLIC "-//W3C//DTD SVG 1.1//EN"
       "http://www.w3.org/Graphics/SVG/1.1/DTD/svg11.dtd">
<svg version="1.1" xmlns="http://www.w3.org/2000/svg" xmlns:xlink="http://www.w3.org/1999/xlink" width="116.774" height="124.163">
 <g>
  <rect height="124.163" opacity="0" width="116.774" x="0" y="0"/>
  <path d="M71.1068 10.1038L79.3099 40.7679C79.4857 41.4277 79.6484 42.0826 79.7517 42.7142C77.4568 45.2731 75.1373 47.9419 72.8928 50.6513C72.7381 48.1667 72.28 45.5461 71.5463 42.8186L63.392 12.3499C62.4154 8.83426 60.0717 7.41825 56.556 8.39481L12.4642 20.1624C8.89978 21.1389 7.58142 23.5315 8.50915 27.0472L16.6634 57.5647C21.4974 75.5335 34.3392 83.4925 51.8197 78.805C53.9351 78.2361 55.8988 77.54 57.7011 76.7184C57.6545 77.0697 57.6375 77.424 57.6302 77.7796C54.1146 78.2679 50.8431 79.928 48.1576 82.9065C46.5201 84.6418 45.5463 86.4198 44.9509 88.171C27.5888 89.4326 14.2196 79.4356 8.89978 59.6643L0.69665 28.9514C-1.59827 20.4065 1.8197 14.8889 10.3158 12.594L54.6029 0.728793C63.0502-1.56613 68.8119 1.55887 71.1068 10.1038ZM63.5873 52.1448C63.3431 59.8108 57.8256 66.305 49.0853 68.6487C40.2963 70.9925 32.2884 68.1116 28.2357 61.6175C26.8685 59.5667 28.0892 58.0042 29.8959 58.2483C34.974 58.9319 40.6381 57.9554 45.8138 56.5393C50.9408 55.1722 56.4095 53.219 60.4623 50.0452C61.9271 48.971 63.7338 49.7034 63.5873 52.1448ZM34.6322 39.6448C35.0717 41.2561 34.6322 42.428 33.6068 42.721C32.3373 43.0628 30.7748 41.5491 27.6498 42.3792C24.5248 43.2093 23.9388 45.3089 22.7181 45.6507C21.6927 45.9436 20.7162 45.1136 20.3256 43.5022C19.2513 39.5472 21.6439 35.5921 25.599 34.5667C29.5541 33.4925 33.558 35.6897 34.6322 39.6448ZM61.39 32.5159C61.8295 34.1272 61.4388 35.2991 60.4134 35.5921C59.1439 35.885 57.5814 34.3225 54.4564 35.2014C51.3314 36.0315 50.7455 38.1311 49.5248 38.4729C48.4017 38.7659 47.474 37.9358 47.0345 36.3245C45.9603 32.4182 48.4017 28.4632 52.3568 27.3889C56.3119 26.3147 60.3646 28.5608 61.39 32.5159Z" fill="#000000" fill-opacity="0.85"/>
  <path d="M33.9486 113.668C45.0814 124.166 64.3685 124.166 74.4759 113.424C80.1888 107.418 82.1908 100.192 80.2865 93.5511C84.7787 91.8909 88.3431 88.6194 92.1029 83.346C104.749 65.1819 114.808 34.762 115.931 31.5393C119.642 21.1389 109.779 13.4729 100.941 20.9436C98.2552 23.2874 75.892 44.9182 63.2455 63.18C59.5834 68.4534 57.7279 72.9944 57.6302 77.7796C54.1146 78.2679 50.8431 79.928 48.1576 82.9065C41.6146 89.8401 45.6674 97.4573 42.1029 101.315C38.8802 104.635 35.2181 103.756 32.972 106.246C31.3119 108.151 31.1166 111.032 33.9486 113.668ZM65.4916 78.5608C65.3451 75.3382 66.7123 71.8714 69.6908 67.6722C82.2884 49.9475 104.017 29.0003 105.824 27.1448C107.24 25.6311 109.339 27.0472 108.46 29.0491C107.533 31.1487 98.0111 61.178 85.6088 78.8538C82.4838 83.3948 79.7006 85.5432 76.5756 86.5198C75.3549 84.9573 73.8412 83.4436 72.0834 82.0764C70.0326 80.5628 67.7865 79.2932 65.4916 78.5608ZM85.3646 80.4163L91.2728 77.7307C88.9779 68.6487 78.3822 61.0804 69.2025 61.9104L68.2259 68.4534C74.3295 67.1839 84.2904 74.1663 85.3646 80.4163ZM69.2513 89.0589C75.1107 94.3323 74.7201 102.047 69.1049 108.199C62.9037 115.182 51.6732 117.086 43.6654 111.227C42.8842 110.641 42.8353 109.957 43.1771 109.42C43.7631 108.688 46.4486 108.053 48.1576 105.612C51.9662 100.143 49.2318 93.6975 53.8217 88.4729C57.7279 84.1761 64.1244 84.3714 69.2513 89.0589Z" fill="#000000" fill-opacity="0.85"/>
 </g>
</svg>
