<?xml version="1.0" encoding="UTF-8"?>
<!--Generator: Apple Native CoreSVG 232.5-->
<!DOCTYPE svg
PUBLIC "-//W3C//DTD SVG 1.1//EN"
       "http://www.w3.org/Graphics/SVG/1.1/DTD/svg11.dtd">
<svg version="1.1" xmlns="http://www.w3.org/2000/svg" xmlns:xlink="http://www.w3.org/1999/xlink" width="99.6094" height="99.6582">
 <g>
  <rect height="99.6582" opacity="0" width="99.6094" x="0" y="0"/>
  <path d="M99.6094 49.8535C99.6094 77.0996 77.0508 99.6582 49.8047 99.6582C22.6074 99.6582 0 77.0996 0 49.8535C0 22.6562 22.5586 0.0488281 49.7559 0.0488281C77.002 0.0488281 99.6094 22.6562 99.6094 49.8535ZM59.4238 44.8242C60.7422 49.4629 60.791 53.8086 59.7656 57.6172C60.2539 57.7148 60.8887 57.7637 61.377 57.9102C65.1855 58.8379 67.7734 61.7676 67.9199 65.1855C67.9199 66.1133 67.0898 66.5039 66.5039 65.8203C64.4043 63.916 62.5 62.9395 60.2051 62.3047C59.4727 62.0605 58.6914 61.9141 57.959 61.8164C56.2012 65.1367 53.3691 67.8711 49.6582 69.7754C51.6113 71.4844 54.248 72.8027 57.2754 73.6328C67.9199 76.416 75.9766 71.5332 78.9551 60.4492L82.959 45.3613C84.082 41.3086 82.5684 38.623 78.4668 37.5977L57.0312 31.8359C56.6406 31.6406 56.2012 31.5918 55.8594 31.543ZM43.8477 26.2207L22.4121 31.9336C18.2617 33.0078 16.7969 35.6445 17.9199 39.7949L21.875 54.9316C24.8535 66.0156 32.9102 70.8984 43.5547 68.0664C54.1504 65.1855 58.7891 56.9336 55.7617 45.8008L51.709 30.7129C50.5859 26.6602 47.9004 25.1953 43.8477 26.2207ZM49.1699 51.3184C49.0234 55.6152 46.0449 59.1309 41.5039 60.3027C37.0117 61.5234 32.6172 59.9609 30.3223 56.3477C29.834 55.5664 30.2734 54.9805 31.1035 55.0293C34.0332 55.2734 37.4023 54.7852 39.8438 54.1016C42.2852 53.4668 45.4102 52.1973 47.8027 50.5371C48.584 50.0488 49.2676 50.4395 49.1699 51.3184ZM70.8008 48.6328C72.3145 49.0234 73.1445 50.5371 72.7539 52.002C72.3145 53.4668 70.8008 54.3945 69.3359 53.9551C67.8711 53.6621 66.9922 52.0508 67.4316 50.5371C67.7734 49.0723 69.2871 48.2422 70.8008 48.6328ZM34.0332 45.0195C34.1797 45.6543 34.0332 46.1914 33.6914 46.3379C32.8613 46.582 32.0801 45.7031 30.6152 46.1914C29.0039 46.6309 28.8574 47.7051 28.0762 47.8027C27.7832 47.9004 27.4414 47.4609 27.2461 46.9238C26.6113 45.0195 27.832 43.0664 29.6875 42.627C31.5918 42.1387 33.3984 43.2617 34.0332 45.0195ZM47.168 41.5527C47.4121 42.1387 47.1191 42.627 46.875 42.8223C46.0449 43.0176 45.2637 42.1387 43.7988 42.627C42.2363 43.0176 41.9922 44.0918 41.2598 44.1895C40.9668 44.2871 40.5762 43.8477 40.332 43.3105C39.8438 41.5527 41.0156 39.4531 42.8711 39.0137C44.7754 38.623 46.7285 39.5996 47.168 41.5527Z" fill="#000000" fill-opacity="0.85"/>
 </g>
</svg>
