<?xml version="1.0" encoding="UTF-8"?>
<!--Generator: Apple Native CoreSVG 232.5-->
<!DOCTYPE svg
PUBLIC "-//W3C//DTD SVG 1.1//EN"
       "http://www.w3.org/Graphics/SVG/1.1/DTD/svg11.dtd">
<svg version="1.1" xmlns="http://www.w3.org/2000/svg" xmlns:xlink="http://www.w3.org/1999/xlink" width="103.856" height="119.971">
 <g>
  <rect height="119.971" opacity="0" width="103.856" x="0" y="0"/>
  <path d="M73.876 4.73633L73.8272 12.1582L79.7354 8.74023C81.0049 8.00781 82.4698 8.30078 83.2022 9.52148C83.9346 10.8398 83.3975 12.207 82.0303 13.0371L73.7784 17.8223L73.6319 34.8145L88.1827 26.2695L88.2315 16.7969C88.2315 15.1367 89.1592 14.0137 90.7217 14.0137C92.0889 14.0137 93.1143 15.1367 93.1143 16.6504L93.1143 23.3887L99.7549 19.5312C101.073 18.75 102.733 19.043 103.466 20.4102C104.296 21.8262 103.759 23.3398 102.245 24.2188L95.7022 27.9297L101.61 31.3477C102.831 32.0312 103.319 33.4961 102.685 34.7656C101.855 36.0352 100.39 36.2793 99.0713 35.498L90.7705 30.7129L76.0733 39.0137L90.6241 47.2656L98.9248 42.5293C100.292 41.748 101.806 41.9434 102.538 43.2617C103.222 44.4824 102.733 45.9473 101.464 46.6797L95.5557 50.0977L102.196 53.9062C103.661 54.6875 104.296 56.25 103.466 57.666C102.636 59.082 101.024 59.2773 99.5596 58.4473L93.0166 54.5898L92.9678 61.377C92.9678 62.7441 91.9424 63.9648 90.5752 63.9648C89.0616 63.916 88.085 62.7441 88.085 61.2305L88.085 51.709L73.6319 43.2129L73.7784 60.1074L81.9815 64.8926C83.3487 65.7227 83.9346 67.0898 83.1534 68.4082C82.4209 69.6289 80.9561 69.9219 79.6866 69.1895L73.8272 65.8203L73.876 73.291C73.876 74.9512 72.8506 76.2695 71.2393 76.2695C69.5791 76.2695 68.6026 74.9512 68.6026 73.291L68.6514 65.8203L62.792 69.1895C62.6897 69.2485 62.5859 69.3008 62.4806 69.3441C61.5607 68.1609 60.5097 67.0359 59.3633 65.9571C59.623 65.5513 60.0106 65.1879 60.4971 64.8926L68.7002 60.1074L68.8467 43.2129L59.3444 48.7799L59.3509 43L66.3565 39.0137L59.3598 35.0489L59.3663 29.2657L68.8467 34.8145L68.7002 17.8223L60.4483 13.0371C59.0811 12.207 58.544 10.8398 59.2764 9.52148C59.96 8.30078 61.4737 8.00781 62.7432 8.74023L68.6514 12.1582L68.6026 4.73633C68.6026 3.07617 69.5791 1.75781 71.2393 1.75781C72.8506 1.75781 73.876 3.07617 73.876 4.73633Z" fill="#000000" fill-opacity="0.85"/>
  <path d="M38.3291 114.16C52.3916 114.16 63.7686 102.734 63.7686 88.6719C63.7686 81.25 60.7413 74.7559 54.8819 69.4824C53.8565 68.5547 53.6123 67.9688 53.6123 66.5039L53.6612 22.3633C53.6612 12.4512 47.4112 5.66406 38.3291 5.66406C29.1495 5.66406 22.8506 12.4512 22.8506 22.3633L22.8995 66.5039C22.8995 67.9688 22.7041 68.5547 21.6299 69.4824C15.8194 74.7559 12.7432 81.25 12.7432 88.6719C12.7432 102.734 24.169 114.16 38.3291 114.16ZM38.3291 107.08C28.1241 107.08 19.9209 98.7793 19.9209 88.6719C19.9209 82.5684 22.8018 77.0508 27.9776 73.584C29.4913 72.5586 30.0772 71.6309 30.0772 69.6289L30.0772 22.6562C30.0772 16.7969 33.4463 12.8418 38.3291 12.8418C43.1143 12.8418 46.4834 16.7969 46.4834 22.6562L46.4834 69.6289C46.4834 71.6309 47.0694 72.5586 48.583 73.584C53.7588 77.0508 56.6397 82.5684 56.6397 88.6719C56.6397 98.7793 48.3877 107.08 38.3291 107.08Z" fill="#000000" fill-opacity="0.85"/>
  <path d="M38.2803 100.488C44.8233 100.488 50.0967 95.2148 50.0967 88.623C50.0967 84.0332 47.5088 80.2734 43.7491 78.2227C42.1866 77.3926 41.6495 76.8066 41.6495 74.4141L41.6495 64.6484C41.6495 62.3047 40.1358 60.791 38.2803 60.791C36.376 60.791 34.9112 62.3047 34.9112 64.6484L34.9112 74.4141C34.9112 76.8066 34.3741 77.3926 32.8116 78.2227C29.0518 80.2734 26.4639 84.0332 26.4639 88.623C26.4639 95.2148 31.7373 100.488 38.2803 100.488Z" fill="#000000" fill-opacity="0.85"/>
 </g>
</svg>
