<?xml version="1.0" encoding="UTF-8"?>
<!--Generator: Apple Native CoreSVG 232.5-->
<!DOCTYPE svg
PUBLIC "-//W3C//DTD SVG 1.1//EN"
       "http://www.w3.org/Graphics/SVG/1.1/DTD/svg11.dtd">
<svg version="1.1" xmlns="http://www.w3.org/2000/svg" xmlns:xlink="http://www.w3.org/1999/xlink" width="120.166" height="143.115">
 <g>
  <rect height="143.115" opacity="0" width="120.166" x="0" y="0"/>
  <path d="M97.9492 73.2422L105.469 80.7617C107.08 82.2754 107.031 84.8633 105.469 86.4258C103.955 87.9883 101.416 88.0371 99.8047 86.4746L92.2852 78.9551C90.7227 77.3926 90.7227 74.8047 92.2852 73.2422C93.8477 71.6797 96.3867 71.7285 97.9492 73.2422ZM93.8477 50.6348C93.8477 64.0625 83.1543 74.8047 69.7266 74.8047C66.9308 74.8047 64.2515 74.339 61.7727 73.457L61.7813 65.7152C64.1364 66.9434 66.837 67.627 69.7266 67.627C79.248 67.627 86.6699 60.2051 86.6699 50.6348C86.6699 41.0156 79.248 33.5938 69.7266 33.5938C66.8504 33.5938 64.1614 34.271 61.8147 35.491L61.8164 33.9844C61.8164 31.8478 61.526 29.8565 60.9635 28.0584C63.6677 26.9889 66.6255 26.416 69.7266 26.416C83.1543 26.416 93.8477 37.1582 93.8477 50.6348ZM120.166 50.6348C120.166 52.832 118.359 54.6875 116.162 54.6875L105.615 54.6875C103.418 54.6875 101.562 52.832 101.562 50.6348C101.562 48.3887 103.418 46.582 105.615 46.582L116.162 46.582C118.359 46.582 120.166 48.3887 120.166 50.6348ZM105.469 14.8438C107.031 16.4062 107.08 18.9941 105.469 20.5566L98.0469 28.0762C96.4355 29.6875 93.7988 29.6387 92.2852 28.0762C90.7715 26.5137 90.7227 23.9746 92.2852 22.4121L99.8047 14.8438C101.416 13.2812 103.955 13.2812 105.469 14.8438ZM73.7793 4.05273L73.7793 14.5996C73.7793 16.7969 71.9727 18.6523 69.7266 18.6523C67.4805 18.6523 65.6738 16.7969 65.6738 14.5996L65.6738 4.05273C65.6738 1.80664 67.4805 0 69.7266 0C71.9727 0 73.7793 1.80664 73.7793 4.05273Z" fill="#000000" fill-opacity="0.85"/>
  <path d="M46.4844 125.781C60.5469 125.781 71.9238 114.355 71.9238 100.293C71.9238 92.8711 68.8965 86.377 63.0371 81.1035C62.0117 80.127 61.7676 79.5898 61.7676 78.125L61.8164 33.9844C61.8164 24.0723 55.5664 17.2852 46.4844 17.2852C37.3047 17.2852 31.0059 24.0723 31.0059 33.9844L31.0547 78.125C31.0547 79.5898 30.8594 80.127 29.7852 81.1035C23.9746 86.377 20.8984 92.8711 20.8984 100.293C20.8984 114.355 32.3242 125.781 46.4844 125.781ZM46.4844 118.701C36.2793 118.701 28.0762 110.4 28.0762 100.293C28.0762 94.1895 30.957 88.6719 36.1328 85.2051C37.6465 84.1797 38.2324 83.252 38.2324 81.25L38.2324 34.2773C38.2324 28.418 41.6016 24.4629 46.4844 24.4629C51.2695 24.4629 54.6387 28.418 54.6387 34.2773L54.6387 81.25C54.6387 83.252 55.2246 84.1797 56.7383 85.2051C61.9141 88.6719 64.7949 94.1895 64.7949 100.293C64.7949 110.4 56.543 118.701 46.4844 118.701Z" fill="#000000" fill-opacity="0.85"/>
  <path d="M46.4355 112.109C52.9785 112.109 58.252 106.787 58.252 100.244C58.252 95.6543 55.6641 91.8945 51.9043 89.8438C50.3418 89.0137 49.8047 88.4277 49.8047 86.0352L49.8047 38.4277C49.8047 36.084 48.291 34.5703 46.4355 34.5703C44.5312 34.5703 43.0664 36.084 43.0664 38.4277L43.0664 86.0352C43.0664 88.4277 42.5293 89.0137 40.9668 89.8438C37.207 91.8945 34.6191 95.6543 34.6191 100.244C34.6191 106.836 39.8926 112.109 46.4355 112.109Z" fill="#000000" fill-opacity="0.85"/>
 </g>
</svg>
