<?xml version="1.0" encoding="UTF-8"?>
<!--Generator: Apple Native CoreSVG 232.5-->
<!DOCTYPE svg
PUBLIC "-//W3C//DTD SVG 1.1//EN"
       "http://www.w3.org/Graphics/SVG/1.1/DTD/svg11.dtd">
<svg version="1.1" xmlns="http://www.w3.org/2000/svg" xmlns:xlink="http://www.w3.org/1999/xlink" width="99.6094" height="99.6582">
 <g>
  <rect height="99.6582" opacity="0" width="99.6094" x="0" y="0"/>
  <path d="M99.6094 49.8535C99.6094 77.0996 77.0508 99.6582 49.8047 99.6582C22.6074 99.6582 0 77.0996 0 49.8535C0 22.6562 22.5586 0.0488281 49.7559 0.0488281C77.002 0.0488281 99.6094 22.6562 99.6094 49.8535ZM31.7383 33.2031L31.7383 57.3242C31.7383 58.0078 31.6406 58.3496 31.0547 58.7891C27.8809 61.6699 26.2207 65.2832 26.2207 69.3359C26.2207 77.0996 32.4707 83.3496 40.2832 83.3496C48.0469 83.3496 54.2969 77.0996 54.2969 69.3359C54.2969 65.2832 52.5879 61.6699 49.3652 58.7891C48.8281 58.3496 48.7305 58.0078 48.7305 57.3242L48.7793 33.2031C48.7793 27.7344 45.3125 23.9258 40.2832 23.9258C35.1562 23.9258 31.7383 27.7344 31.7383 33.2031ZM44.5312 33.3984L44.5312 58.9355C44.5312 60.1074 44.8242 60.6445 45.752 61.2305C48.5352 63.1348 50.0977 66.0156 50.0977 69.3359C50.0977 74.8535 45.6543 79.1992 40.2832 79.1992C34.7168 79.1992 30.4199 74.8535 30.4199 69.3359C30.4199 66.0156 31.9336 63.1348 34.668 61.2305C35.5957 60.6445 35.8887 60.1074 35.8887 58.9355L35.8887 33.3984C35.8887 30.2734 37.5977 28.1738 40.2832 28.1738C42.8223 28.1738 44.5312 30.2734 44.5312 33.3984ZM38.3301 35.6445L38.3301 61.5723C38.3301 62.8418 38.0859 63.1348 37.1582 63.5742C35.1562 64.6973 33.6914 66.7969 33.6914 69.2871C33.6914 72.998 36.6211 75.8789 40.2344 75.8789C43.8965 75.8789 46.8262 72.9492 46.8262 69.2871C46.8262 66.7969 45.3613 64.7461 43.2129 63.5742C42.4316 63.1348 42.1875 62.8418 42.1875 61.5723L42.1875 35.6445C42.1875 34.2773 41.3086 33.4473 40.2344 33.4473C39.1113 33.4473 38.3301 34.2773 38.3301 35.6445ZM64.9414 54.3945C63.916 55.3711 63.8672 57.0801 64.9414 58.0566L69.043 62.1582C70.0195 63.0859 71.6309 63.1348 72.6562 62.1582C73.7305 61.1328 73.7305 59.375 72.7051 58.4473L68.6523 54.3945C67.627 53.3691 65.9668 53.3691 64.9414 54.3945ZM51.8555 29.1016C52.3438 30.4199 52.5391 31.7871 52.5391 33.2031L52.4902 55.5664C60.0586 55.7617 66.2109 49.9512 66.2109 42.334C66.2109 34.9609 60.3027 29.0039 52.9297 29.0039C52.5879 29.0039 52.2461 29.0527 51.8555 29.1016ZM72.4609 39.6484C71.0449 39.6484 69.873 40.918 69.873 42.334C69.873 43.7012 71.0449 44.9707 72.4609 44.9707L78.1738 44.9707C79.6387 44.9707 80.8105 43.7012 80.8105 42.334C80.8105 40.918 79.6387 39.6484 78.1738 39.6484ZM69.043 22.5098L64.9414 26.6113C63.8672 27.6367 63.916 29.2969 64.9414 30.3223C65.918 31.2988 67.6758 31.2988 68.7012 30.3223L72.7051 26.2207C73.6816 25.2441 73.7305 23.5352 72.6562 22.5098C71.6309 21.4844 70.0195 21.4844 69.043 22.5098ZM50.293 16.9434L50.293 22.7051C50.293 24.1211 51.4648 25.3418 52.9297 25.3418C54.4434 25.3418 55.5664 24.1211 55.5664 22.7051L55.5664 16.9434C55.5664 15.5762 54.4434 14.3555 52.9297 14.3555C51.4648 14.3555 50.293 15.5762 50.293 16.9434Z" fill="#000000" fill-opacity="0.85"/>
 </g>
</svg>
