<?xml version="1.0" encoding="UTF-8"?>
<!--Generator: Apple Native CoreSVG 232.5-->
<!DOCTYPE svg
PUBLIC "-//W3C//DTD SVG 1.1//EN"
       "http://www.w3.org/Graphics/SVG/1.1/DTD/svg11.dtd">
<svg version="1.1" xmlns="http://www.w3.org/2000/svg" xmlns:xlink="http://www.w3.org/1999/xlink" width="99.6094" height="99.6582">
 <g>
  <rect height="99.6582" opacity="0" width="99.6094" x="0" y="0"/>
  <path d="M49.8047 99.6094C77.0508 99.6094 99.6094 77.002 99.6094 49.8047C99.6094 22.5586 77.002 0 49.7559 0C22.5586 0 0 22.5586 0 49.8047C0 77.002 22.6074 99.6094 49.8047 99.6094ZM49.8047 91.3086C26.7578 91.3086 8.34961 72.8516 8.34961 49.8047C8.34961 26.7578 26.709 8.30078 49.7559 8.30078C72.8027 8.30078 91.3086 26.7578 91.3086 49.8047C91.3086 72.8516 72.8516 91.3086 49.8047 91.3086Z" fill="#000000" fill-opacity="0.85"/>
  <path d="M40.6738 82.2266C48.1934 82.2266 54.248 76.1719 54.248 68.7012C54.248 64.7461 52.5879 61.2305 49.4629 58.4473C48.9746 58.0078 48.877 57.7148 48.877 56.9824L48.9258 33.6426C48.9258 28.3203 45.5566 24.6582 40.6738 24.6582C35.7422 24.6582 32.4219 28.3203 32.4219 33.6426L32.4219 56.9824C32.4219 57.7148 32.3242 58.0078 31.7383 58.4473C28.6621 61.2305 27.0508 64.7461 27.0508 68.7012C27.0508 76.1719 33.1055 82.2266 40.6738 82.2266ZM40.6738 78.2715C35.3027 78.2715 31.1035 74.0234 31.1035 68.7012C31.1035 65.4785 32.5684 62.5977 35.2539 60.791C36.1328 60.2539 36.4258 59.7168 36.4258 58.5938L36.4258 33.7891C36.4258 30.7129 38.0859 28.7598 40.6738 28.7598C43.1641 28.7598 44.8242 30.7129 44.8242 33.7891L44.8242 58.5938C44.8242 59.7168 45.1172 60.2539 45.9961 60.791C48.6816 62.5977 50.1953 65.4785 50.1953 68.7012C50.1953 74.0234 45.8984 78.2715 40.6738 78.2715ZM40.625 75.0488C44.1895 75.0488 47.0215 72.168 47.0215 68.6523C47.0215 66.2109 45.6055 64.1602 43.5547 63.0371C42.7734 62.6465 42.5293 62.3047 42.5293 61.1328L42.5293 56.1523C42.5293 54.834 41.6992 54.0039 40.625 54.0039C39.5508 54.0039 38.7695 54.834 38.7695 56.1523L38.7695 61.1328C38.7695 62.3047 38.5254 62.6465 37.6465 63.0371C35.6934 64.1602 34.2773 66.2109 34.2773 68.6523C34.2773 72.2168 37.1094 75.0488 40.625 75.0488ZM59.375 60.498C60.498 60.498 61.1816 59.5215 61.1816 58.3984L61.1328 54.8828L63.916 56.4453C64.8438 56.9824 65.8691 56.7383 66.3574 55.9082C66.8945 54.9316 66.4551 54.0039 65.5762 53.418L61.1328 50.8301L61.0352 42.1875L68.457 46.582L68.457 51.6602C68.457 52.7832 69.1406 53.5156 70.2148 53.5645C71.1914 53.5645 71.875 52.7344 71.875 51.7578L71.9238 48.584L75.0488 50.3418C76.0742 50.9277 77.1973 50.8301 77.7832 49.9023C78.3203 48.877 77.8809 47.8027 76.9043 47.2656L73.7305 45.4102L76.4648 43.7988C77.2949 43.2617 77.6855 42.2852 77.1973 41.4551C76.6602 40.5273 75.5859 40.3809 74.707 40.918L70.2637 43.4082L62.7441 39.209L70.3125 34.9609L74.7559 37.5C75.6836 38.0371 76.7578 37.9395 77.2461 37.0117C77.832 36.1328 77.3438 35.1562 76.5137 34.668L73.8281 33.0078L76.9531 31.25C77.9785 30.6152 78.3203 29.541 77.7832 28.6133C77.1973 27.6855 76.0742 27.3926 75.1465 27.9785L71.9727 29.7852L71.9727 26.6602C71.9727 25.5859 71.2891 24.8047 70.3125 24.8047C69.2383 24.8047 68.5547 25.5859 68.5547 26.7578L68.5059 31.8359L61.0352 36.2305L61.1328 27.5391L65.5762 24.9512C66.6016 24.3652 66.8457 23.4375 66.4062 22.5098C65.918 21.582 64.8438 21.4355 63.916 21.9238L61.1328 23.5352L61.1816 20.0195C61.1816 18.8965 60.498 17.9688 59.375 17.9688C58.252 17.9688 57.5195 18.8965 57.5195 20.0195L57.5195 23.5352L54.7852 21.9238C53.8574 21.3867 52.832 21.6309 52.3438 22.5098C51.8066 23.4375 52.1973 24.3652 53.125 24.9512L57.5684 27.5391L57.666 36.2305L52.2461 33.0078C52.3926 34.375 52.4902 35.791 52.5391 37.2559L55.957 39.209L52.5391 41.1133L52.5391 45.2637L57.666 42.1875L57.5684 50.8301L53.3203 53.3203C53.5156 54.248 54.5898 55.5176 55.4688 56.1035L57.5195 54.834L57.5195 58.3984C57.5195 59.5703 58.252 60.498 59.375 60.498Z" fill="#000000" fill-opacity="0.85"/>
 </g>
</svg>
