<?xml version="1.0" encoding="UTF-8"?>
<!--Generator: Apple Native CoreSVG 232.5-->
<!DOCTYPE svg
PUBLIC "-//W3C//DTD SVG 1.1//EN"
       "http://www.w3.org/Graphics/SVG/1.1/DTD/svg11.dtd">
<svg version="1.1" xmlns="http://www.w3.org/2000/svg" xmlns:xlink="http://www.w3.org/1999/xlink" width="99.6094" height="99.6582">
 <g>
  <rect height="99.6582" opacity="0" width="99.6094" x="0" y="0"/>
  <path d="M49.8047 99.6094C77.0508 99.6094 99.6094 77.002 99.6094 49.8047C99.6094 22.5586 77.002 0 49.7559 0C22.5586 0 0 22.5586 0 49.8047C0 77.002 22.6074 99.6094 49.8047 99.6094ZM49.8047 91.3086C26.7578 91.3086 8.34961 72.8516 8.34961 49.8047C8.34961 26.7578 26.709 8.30078 49.7559 8.30078C72.8027 8.30078 91.3086 26.7578 91.3086 49.8047C91.3086 72.8516 72.8516 91.3086 49.8047 91.3086Z" fill="#000000" fill-opacity="0.85"/>
  <path d="M40.6738 82.2266C48.1934 82.2266 54.248 76.1719 54.248 68.7012C54.248 64.7461 52.5879 61.2305 49.4629 58.4473C48.9746 58.0078 48.877 57.7148 48.877 56.9824L48.9258 33.6426C48.9258 28.3203 45.5566 24.6582 40.6738 24.6582C35.7422 24.6582 32.4219 28.3203 32.4219 33.6426L32.4219 56.9824C32.4219 57.7148 32.3242 58.0078 31.7383 58.4473C28.6621 61.2305 27.0508 64.7461 27.0508 68.7012C27.0508 76.1719 33.1055 82.2266 40.6738 82.2266ZM40.6738 78.2715C35.3027 78.2715 31.1035 74.0234 31.1035 68.7012C31.1035 65.4785 32.5684 62.5977 35.2539 60.791C36.1328 60.2539 36.4258 59.7168 36.4258 58.5938L36.4258 33.7891C36.4258 30.7129 38.0859 28.7598 40.6738 28.7598C43.1641 28.7598 44.8242 30.7129 44.8242 33.7891L44.8242 58.5938C44.8242 59.7168 45.1172 60.2539 45.9961 60.791C48.6816 62.5977 50.1953 65.4785 50.1953 68.7012C50.1953 74.0234 45.8984 78.2715 40.6738 78.2715ZM40.625 75.0488C44.1895 75.0488 47.0215 72.168 47.0215 68.6523C47.0215 66.2109 45.6055 64.1602 43.5547 63.0371C42.7734 62.6465 42.5293 62.3047 42.5293 61.1328L42.5293 35.9863C42.5293 34.668 41.6992 33.8379 40.625 33.8379C39.5508 33.8379 38.7695 34.668 38.7695 35.9863L38.7695 61.1328C38.7695 62.3047 38.5254 62.6465 37.6465 63.0371C35.6934 64.1602 34.2773 66.2109 34.2773 68.6523C34.2773 72.2168 37.1094 75.0488 40.625 75.0488ZM52.9297 25.9766C54.3945 25.9766 55.4688 24.7559 55.4688 23.4375L55.4688 17.8223C55.4688 16.4551 54.3945 15.332 52.9297 15.332C51.5137 15.332 50.3906 16.4551 50.3906 17.8223L50.3906 23.4375C50.3906 24.8047 51.5137 25.9766 52.9297 25.9766ZM64.5996 30.8105C65.5273 31.7871 67.2363 31.7871 68.2129 30.8105L72.1191 26.8555C73.0469 25.8789 73.0957 24.2188 72.0703 23.2422C71.0938 22.2656 69.5312 22.2656 68.6035 23.2422L64.5996 27.2461C63.5742 28.2227 63.623 29.834 64.5996 30.8105ZM71.875 44.9707L77.4414 44.9707C78.8574 44.9707 79.9805 43.75 79.9805 42.4805C79.9805 41.0645 78.8574 39.8926 77.4414 39.8926L71.875 39.8926C70.5078 39.8926 69.3848 41.0645 69.3848 42.4805C69.3848 43.75 70.5078 44.9707 71.875 44.9707ZM68.6035 61.6699C69.5312 62.5977 71.0938 62.6465 72.0703 61.6699C73.0957 60.6934 73.0957 58.9844 72.1191 58.1055L68.1641 54.1016C67.1875 53.125 65.5762 53.125 64.5996 54.1016C63.623 55.0781 63.5742 56.7383 64.5996 57.666ZM52.4902 55.2734C59.8633 55.5176 65.8203 49.8535 65.8203 42.4805C65.8203 35.2539 60.1074 29.541 52.9297 29.541C52.5879 29.541 52.2461 29.541 51.9043 29.6387C52.3438 30.9082 52.5391 32.2266 52.5391 33.6426Z" fill="#000000" fill-opacity="0.85"/>
 </g>
</svg>
