<?xml version="1.0" encoding="UTF-8"?>
<!--Generator: Apple Native CoreSVG 232.5-->
<!DOCTYPE svg
PUBLIC "-//W3C//DTD SVG 1.1//EN"
       "http://www.w3.org/Graphics/SVG/1.1/DTD/svg11.dtd">
<svg version="1.1" xmlns="http://www.w3.org/2000/svg" xmlns:xlink="http://www.w3.org/1999/xlink" width="99.6094" height="99.6582">
 <g>
  <rect height="99.6582" opacity="0" width="99.6094" x="0" y="0"/>
  <path d="M49.8047 99.6094C77.0508 99.6094 99.6094 77.002 99.6094 49.8047C99.6094 22.5586 77.002 0 49.7559 0C22.5586 0 0 22.5586 0 49.8047C0 77.002 22.6074 99.6094 49.8047 99.6094ZM49.8047 91.3086C26.7578 91.3086 8.34961 72.8516 8.34961 49.8047C8.34961 26.7578 26.709 8.30078 49.7559 8.30078C72.8027 8.30078 91.3086 26.7578 91.3086 49.8047C91.3086 72.8516 72.8516 91.3086 49.8047 91.3086Z" fill="#000000" fill-opacity="0.85"/>
  <path d="M37.0605 79.1016C44.5801 79.1016 50.6348 73.0469 50.6348 65.5762C50.6348 61.6211 48.9746 58.1055 45.8496 55.3223C45.3613 54.8828 45.2637 54.5898 45.2637 53.8574L45.3125 29.9805C45.3125 24.6582 41.9434 20.9961 37.0605 20.9961C32.1289 20.9961 28.8086 24.6582 28.8086 29.9805L28.8086 53.8574C28.8086 54.5898 28.7109 54.8828 28.1738 55.3223C25.0488 58.1055 23.4375 61.6211 23.4375 65.5762C23.4375 73.0469 29.4922 79.1016 37.0605 79.1016ZM37.0605 75.1465C31.6895 75.1465 27.4902 70.8984 27.4902 65.5762C27.4902 62.3535 28.9551 59.4727 31.6406 57.666C32.5195 57.1289 32.8125 56.5918 32.8125 55.4688L32.8125 30.127C32.8125 27.0508 34.4727 25.0977 37.0605 25.0977C39.5508 25.0977 41.2109 27.0508 41.2109 30.127L41.2109 55.4688C41.2109 56.5918 41.5039 57.1289 42.3828 57.666C45.1172 59.4727 46.582 62.3535 46.582 65.5762C46.582 70.8984 42.334 75.1465 37.0605 75.1465ZM37.0605 32.0801C38.0859 32.0801 38.916 31.25 38.916 30.1758C38.916 29.1504 38.0859 28.3203 37.0605 28.3203C35.9863 28.3203 35.1562 29.1504 35.1562 30.1758C35.1562 31.25 35.9863 32.0801 37.0605 32.0801ZM37.0605 37.0605C38.0859 37.0605 38.916 36.1816 38.916 35.1074C38.916 34.1309 38.0859 33.252 37.0605 33.252C35.9863 33.252 35.1562 34.1309 35.1562 35.1074C35.1562 36.1816 35.9863 37.0605 37.0605 37.0605ZM37.0605 41.9434C38.0859 41.9434 38.916 41.1133 38.916 40.0391C38.916 39.0137 38.0859 38.1836 37.0605 38.1836C35.9863 38.1836 35.1562 39.0137 35.1562 40.0391C35.1562 41.1133 35.9863 41.9434 37.0605 41.9434ZM37.0605 46.875C38.0859 46.875 38.916 45.9961 38.916 44.9219C38.916 43.9453 38.0859 43.0664 37.0605 43.0664C35.9863 43.0664 35.1562 43.9453 35.1562 44.9219C35.1562 45.9961 35.9863 46.875 37.0605 46.875ZM37.0117 71.9238C40.5762 71.9238 43.4082 69.043 43.4082 65.5273C43.4082 63.0859 41.9922 61.0352 39.9414 59.9121C39.1602 59.5215 38.916 59.1797 38.916 58.0078L38.916 49.8535C38.916 48.8281 38.0859 47.9492 37.0605 47.9492C35.9863 47.9492 35.1562 48.8281 35.1562 49.8535L35.1562 58.0078C35.1562 59.1797 34.9121 59.5215 34.0332 59.9121C32.0801 61.0352 30.6641 63.0859 30.6641 65.5273C30.6641 69.0918 33.4961 71.9238 37.0117 71.9238ZM63.2324 31.1035C66.4062 31.1035 68.9453 28.5156 68.9453 25.3418C68.9453 22.2168 66.4062 19.6777 63.2324 19.6777C60.1074 19.6777 57.5684 22.2168 57.5684 25.3418C57.5684 28.5156 60.1074 31.1035 63.2324 31.1035ZM66.6504 77.832C68.0664 77.832 69.2383 76.7578 69.2383 75.2441L69.2383 44.873C69.2383 44.3848 69.5801 43.9453 70.0684 43.9453C70.459 43.9453 70.8984 44.3848 70.8984 44.873L70.8984 54.8828C70.8984 56.1523 71.9727 57.1777 73.1934 57.1777C74.4629 57.1777 75.5371 56.1523 75.5371 54.8828L75.5371 43.6035C75.5371 37.8906 71.2891 34.082 65.1367 34.082L61.377 34.082C55.2246 34.082 50.9766 37.8906 50.9766 43.6035L50.9766 54.8828C50.9766 56.1523 52.0508 57.1777 53.2715 57.1777C54.541 57.1777 55.5664 56.1523 55.5664 54.8828L55.5664 44.873C55.5664 44.3848 56.0059 43.9453 56.4453 43.9453C56.9336 43.9453 57.2754 44.3848 57.2754 44.873L57.2754 75.2441C57.2754 76.7578 58.3984 77.832 59.8145 77.832C61.2793 77.832 62.3535 76.7578 62.3535 75.2441L62.3535 56.7871C62.3535 56.2988 62.7441 55.9082 63.2324 55.9082C63.7207 55.9082 64.1602 56.2988 64.1602 56.7871L64.1602 75.2441C64.1602 76.7578 65.2344 77.832 66.6504 77.832Z" fill="#000000" fill-opacity="0.85"/>
 </g>
</svg>
