<?xml version="1.0" encoding="UTF-8"?>
<!--Generator: Apple Native CoreSVG 232.5-->
<!DOCTYPE svg
PUBLIC "-//W3C//DTD SVG 1.1//EN"
       "http://www.w3.org/Graphics/SVG/1.1/DTD/svg11.dtd">
<svg version="1.1" xmlns="http://www.w3.org/2000/svg" xmlns:xlink="http://www.w3.org/1999/xlink" width="107.556" height="108.643">
 <g>
  <rect height="108.643" opacity="0" width="107.556" x="0" y="0"/>
  <path d="M91.7664 42.5293C91.7664 44.043 90.5945 45.3613 88.8855 45.3613L78.2898 45.3613C76.5808 45.3613 75.409 44.043 75.409 42.5293C75.409 41.0156 76.5808 39.6484 78.2898 39.6484L88.8855 39.6484C90.5945 39.6484 91.7664 41.0156 91.7664 42.5293ZM91.7664 28.8086C91.7664 30.3223 90.5945 31.6406 88.8855 31.6406L78.2898 31.6406C76.5808 31.6406 75.409 30.3223 75.409 28.8086C75.409 27.2949 76.5808 25.9766 78.2898 25.9766L88.8855 25.9766C90.5945 25.9766 91.7664 27.2949 91.7664 28.8086ZM91.7664 15.0879C91.7664 16.6016 90.5945 17.9199 88.8855 17.9199L78.2898 17.9199C76.5808 17.9199 75.409 16.6016 75.409 15.0879C75.409 13.5742 76.5808 12.2559 78.2898 12.2559L88.8855 12.2559C90.5945 12.2559 91.7664 13.5742 91.7664 15.0879Z" fill="#000000" fill-opacity="0.85"/>
  <path d="M45.575 49.7267L45.575 63.9648C45.575 65.9668 44.989 66.8945 43.4754 67.9199C38.2996 71.3867 35.4187 76.9043 35.4187 83.0078C35.4187 93.1152 43.6219 101.416 53.8269 101.416C63.8855 101.416 72.1375 93.1152 72.1375 83.0078C72.1375 79.7144 71.2987 76.5915 69.7061 73.8732L79.2457 83.4188C79.0416 97.2946 67.7507 108.496 53.8269 108.496C39.6668 108.496 28.241 97.0703 28.241 83.0078C28.241 75.5859 31.3172 69.0918 37.1277 63.8184C38.2019 62.8906 38.3972 62.3047 38.3972 60.8398L38.3972 42.5443ZM57.1472 61.3063L57.1472 68.75C57.1472 71.1426 57.6844 71.7285 59.2469 72.5586C63.0066 74.6094 65.5945 78.3691 65.5945 82.959C65.5945 89.5508 60.3211 94.8242 53.7781 94.8242C47.2351 94.8242 41.9617 89.5508 41.9617 82.959C41.9617 78.3691 44.5496 74.6094 48.3094 72.5586C49.8719 71.7285 50.409 71.1426 50.409 68.75L50.409 54.5637ZM69.1101 16.6992L69.1101 46.5105L61.9812 39.377L61.9812 16.9922C61.9812 11.1328 58.6121 7.17773 53.8269 7.17773C48.9441 7.17773 45.575 11.1328 45.575 16.9922L45.575 22.9603L38.4325 15.8133C38.78 6.38063 44.9264 0 53.8269 0C62.909 0 69.1101 6.78711 69.1101 16.6992Z" fill="#000000" fill-opacity="0.85"/>
  <path d="M95.4773 91.5527C96.9422 93.0176 99.3836 93.0176 100.8 91.5527C102.216 90.0879 102.264 87.6953 100.8 86.2305L24.0906 9.57031C22.6258 8.10547 20.2332 8.05664 18.7195 9.57031C17.3035 10.9863 17.2547 13.4766 18.7195 14.8926Z" fill="#000000" fill-opacity="0.85"/>
 </g>
</svg>
