<?xml version="1.0" encoding="UTF-8"?>
<!--Generator: Apple Native CoreSVG 232.5-->
<!DOCTYPE svg
PUBLIC "-//W3C//DTD SVG 1.1//EN"
       "http://www.w3.org/Graphics/SVG/1.1/DTD/svg11.dtd">
<svg version="1.1" xmlns="http://www.w3.org/2000/svg" xmlns:xlink="http://www.w3.org/1999/xlink" width="167.92" height="89.9902">
 <g>
  <rect height="89.9902" opacity="0" width="167.92" x="0" y="0"/>
  <path d="M47.2168 89.9902L120.752 89.9902C131.006 89.9902 136.084 84.9121 136.084 74.8535L136.084 15.2344C136.084 5.17578 131.006 0.0976562 120.752 0.0976562L47.2168 0.0976562C37.0117 0.0976562 31.8848 5.12695 31.8848 15.2344L31.8848 74.8535C31.8848 84.9609 37.0117 89.9902 47.2168 89.9902ZM40.918 60.6445L40.918 29.4434C40.918 27.832 42.2363 26.5137 43.8477 26.5137C45.459 26.5137 46.8262 27.832 46.8262 29.4434L46.8262 60.6445C46.8262 62.2559 45.459 63.5742 43.8477 63.5742C42.2363 63.5742 40.918 62.2559 40.918 60.6445ZM55.8105 82.1289L55.8105 7.95898L112.158 7.95898L112.158 82.1289ZM121.191 60.6445L121.191 29.4434C121.191 27.832 122.51 26.5137 124.121 26.5137C125.732 26.5137 127.1 27.832 127.1 29.4434L127.1 60.6445C127.1 62.2559 125.732 63.5742 124.121 63.5742C122.51 63.5742 121.191 62.2559 121.191 60.6445Z" fill="#000000" fill-opacity="0.85"/>
  <path d="M0 55.8594C0 58.4961 2.14844 59.6191 4.44336 58.2031L21.7773 47.6562C23.9746 46.2891 23.9258 43.7012 21.7773 42.3828L4.39453 31.7383C2.09961 30.3223 0 31.543 0 34.1309ZM167.92 55.8594L167.92 34.1309C167.92 31.543 165.82 30.3223 163.525 31.7383L146.191 42.3828C143.994 43.7012 143.945 46.2891 146.191 47.6562L163.525 58.2031C165.82 59.6191 167.92 58.4961 167.92 55.8594Z" fill="#000000" fill-opacity="0.85"/>
 </g>
</svg>
