<?xml version="1.0" encoding="UTF-8"?>
<!--Generator: Apple Native CoreSVG 232.5-->
<!DOCTYPE svg
PUBLIC "-//W3C//DTD SVG 1.1//EN"
       "http://www.w3.org/Graphics/SVG/1.1/DTD/svg11.dtd">
<svg version="1.1" xmlns="http://www.w3.org/2000/svg" xmlns:xlink="http://www.w3.org/1999/xlink" width="99.6094" height="99.6582">
 <g>
  <rect height="99.6582" opacity="0" width="99.6094" x="0" y="0"/>
  <path d="M49.8047 99.6094C77.0508 99.6094 99.6094 77.002 99.6094 49.8047C99.6094 22.5586 77.002 0 49.7559 0C22.5586 0 0 22.5586 0 49.8047C0 77.002 22.6074 99.6094 49.8047 99.6094ZM49.8047 91.3086C26.7578 91.3086 8.34961 72.8516 8.34961 49.8047C8.34961 26.7578 26.709 8.30078 49.7559 8.30078C72.8027 8.30078 91.3086 26.7578 91.3086 49.8047C91.3086 72.8516 72.8516 91.3086 49.8047 91.3086Z" fill="#000000" fill-opacity="0.85"/>
  <path d="M49.8047 77.5391C64.9902 77.5391 77.5391 64.9902 77.5391 49.8047C77.5391 34.6191 64.9902 22.0703 49.8535 22.0703C47.8027 22.0703 46.7773 23.3887 46.7773 25.1953L46.7773 32.9102C46.7773 34.5703 47.9492 35.9375 49.707 35.9375C51.416 35.9375 52.6367 34.5703 52.6367 32.9102L52.6367 28.6621C63.2324 29.9805 71.0938 38.7695 71.0938 49.8047C71.0938 61.7676 61.8164 71.1426 49.8047 71.1426C37.8418 71.1426 28.4668 61.7676 28.4668 49.8047C28.4668 44.4336 30.3711 39.7461 33.5449 35.9863C34.6191 34.668 34.7656 32.8125 33.4961 31.543C32.1777 30.1758 30.0781 30.3223 28.7598 31.8848C24.6094 36.6699 22.0703 43.0176 22.0703 49.8047C22.0703 64.9902 34.6191 77.5391 49.8047 77.5391ZM54.4434 54.0039C56.7871 51.5137 56.3477 48.1934 53.5156 46.2402L40.7715 37.6953C38.8672 36.4746 36.8652 38.3789 38.1348 40.2832L46.7285 53.0273C48.6328 55.9082 52.002 56.3477 54.4434 54.0039Z" fill="#000000" fill-opacity="0.85"/>
 </g>
</svg>
