<?xml version="1.0" encoding="UTF-8"?>
<!--Generator: Apple Native CoreSVG 232.5-->
<!DOCTYPE svg
PUBLIC "-//W3C//DTD SVG 1.1//EN"
       "http://www.w3.org/Graphics/SVG/1.1/DTD/svg11.dtd">
<svg version="1.1" xmlns="http://www.w3.org/2000/svg" xmlns:xlink="http://www.w3.org/1999/xlink" width="99.6094" height="99.6582">
 <g>
  <rect height="99.6582" opacity="0" width="99.6094" x="0" y="0"/>
  <path d="M49.8047 99.6094C77.0508 99.6094 99.6094 77.002 99.6094 49.8047C99.6094 22.5586 77.0996 0 49.8535 0C47.2656 0 45.9961 1.5625 45.9961 4.10156L45.9961 22.998C45.9961 25.1465 47.4609 26.8066 49.5605 26.8066C51.709 26.8066 53.1738 25.1465 53.1738 22.998L53.1738 4.00391L49.7559 8.30078C72.9004 8.30078 91.2598 26.7578 91.2598 49.8047C91.2598 72.8516 72.8516 91.3086 49.8047 91.3086C26.7578 91.3086 8.25195 72.8516 8.30078 49.8047C8.34961 39.502 12.0117 30.1758 18.1641 22.998C19.6289 21.0938 19.7266 18.7988 18.1152 17.0898C16.5039 15.3809 13.8184 15.5273 12.0117 17.6758C4.58984 26.3672 0 37.6465 0 49.8047C0 77.002 22.6074 99.6094 49.8047 99.6094Z" fill="#000000" fill-opacity="0.85"/>
  <path d="M57.6172 56.8359C61.4746 52.7832 60.6934 47.3633 56.0547 44.1406L30.2246 26.0742C27.7832 24.3652 25.2441 26.9531 26.9531 29.3457L44.9707 55.1758C48.2422 59.8145 53.6621 60.6445 57.6172 56.8359Z" fill="#000000" fill-opacity="0.85"/>
 </g>
</svg>
