<?xml version="1.0" encoding="UTF-8"?>
<!--Generator: Apple Native CoreSVG 232.5-->
<!DOCTYPE svg
PUBLIC "-//W3C//DTD SVG 1.1//EN"
       "http://www.w3.org/Graphics/SVG/1.1/DTD/svg11.dtd">
<svg version="1.1" xmlns="http://www.w3.org/2000/svg" xmlns:xlink="http://www.w3.org/1999/xlink" width="110.107" height="110.205">
 <g>
  <rect height="110.205" opacity="0" width="110.107" x="0" y="0"/>
  <path d="M40.625 1.41602C39.0137 1.75781 38.1348 3.17383 38.623 5.0293L40.2344 11.1816C40.6738 12.6953 42.1875 13.5254 43.9941 12.9883C45.7031 12.4512 46.3867 11.084 45.8984 9.52148L44.1895 3.61328C43.7012 1.85547 42.2852 1.12305 40.625 1.41602Z" fill="#000000" fill-opacity="0.85"/>
  <path d="M27.5391 7.42188C26.123 8.25195 25.6836 10.0098 26.5137 11.4258L35.5469 27.1484C36.377 28.6133 38.1348 29.0527 39.502 28.2227C40.918 27.4414 41.4062 25.6836 40.5762 24.2676L31.4941 8.49609C30.6641 7.12891 28.9551 6.68945 27.5391 7.42188Z" fill="#000000" fill-opacity="0.85"/>
  <path d="M15.7227 15.8691C14.5508 16.9922 14.6973 18.8477 15.7715 19.9707L20.1172 24.3652C21.3379 25.5859 22.998 25.6348 24.2676 24.4141C25.3906 23.291 25.4395 21.5332 24.2188 20.2637L19.873 15.918C18.6035 14.6484 16.9434 14.6973 15.7227 15.8691Z" fill="#000000" fill-opacity="0.85"/>
  <path d="M7.42188 27.5879C6.5918 29.0039 7.03125 30.7617 8.44727 31.5918L24.1699 40.6738C25.6348 41.5039 27.3438 41.0156 28.1738 39.6484C28.9551 38.2324 28.5156 36.4746 27.0508 35.6445L11.3281 26.5625C9.91211 25.7812 8.20312 26.2207 7.42188 27.5879Z" fill="#000000" fill-opacity="0.85"/>
  <path d="M1.31836 40.7715C0.976562 42.334 1.95312 43.8965 3.41797 44.3359L9.42383 46.0449C11.084 46.4355 12.6465 45.5566 12.9883 43.9453C13.3301 42.3828 12.5977 40.7227 10.9863 40.332L4.98047 38.8184C3.22266 38.3789 1.66016 39.2578 1.31836 40.7715Z" fill="#000000" fill-opacity="0.85"/>
  <path d="M0 55.127C0 56.7871 1.31836 58.0566 2.92969 58.0566L21.0449 58.0566C22.7539 58.0566 23.9746 56.7871 23.9746 55.127C23.9746 53.5156 22.7539 52.2461 21.0449 52.2461L2.92969 52.2461C1.31836 52.2461 0 53.5156 0 55.127Z" fill="#000000" fill-opacity="0.85"/>
  <path d="M1.36719 69.5312C1.75781 71.0938 3.41797 71.9238 4.93164 71.582L10.9863 70.0684C12.6465 69.6289 13.4766 68.1152 13.0371 66.5039C12.5977 64.9414 11.0352 64.0137 9.42383 64.4043L3.56445 66.0156C1.75781 66.5039 0.976562 68.0176 1.36719 69.5312Z" fill="#000000" fill-opacity="0.85"/>
  <path d="M7.37305 82.666C8.1543 84.082 9.91211 84.5215 11.3281 83.7402L27.0508 74.6582C28.5156 73.8281 28.9551 72.0703 28.1738 70.7031C27.3438 69.2871 25.6348 68.7988 24.1699 69.6289L8.44727 78.7109C7.03125 79.541 6.5918 81.25 7.37305 82.666Z" fill="#000000" fill-opacity="0.85"/>
  <path d="M15.7715 94.4336C16.9922 95.6055 18.75 95.6055 19.8242 94.5312L24.2676 90.1367C25.4883 88.8672 25.5371 87.207 24.3164 86.0352C23.1934 84.8633 21.3379 84.8145 20.2148 85.9863L15.8691 90.3809C14.6484 91.6504 14.5996 93.2617 15.7715 94.4336Z" fill="#000000" fill-opacity="0.85"/>
  <path d="M27.5391 102.832C28.9062 103.613 30.7129 103.174 31.4941 101.758L40.5762 86.0352C41.4062 84.6191 40.918 82.8613 39.5508 82.0312C38.1348 81.25 36.377 81.6895 35.5469 83.1543L26.5137 98.877C25.6836 100.293 26.123 102.002 27.5391 102.832Z" fill="#000000" fill-opacity="0.85"/>
  <path d="M40.3809 108.838C42.1875 109.424 43.7988 108.35 44.1895 106.836L45.8496 100.83C46.2891 99.2676 45.4102 97.6562 43.8477 97.2656C42.2852 96.875 40.7227 97.7051 40.2832 99.3164L38.6719 105.322C38.2324 106.982 38.7695 108.35 40.3809 108.838Z" fill="#000000" fill-opacity="0.85"/>
  <path d="M55.0293 110.205C56.6895 110.205 57.959 108.887 57.959 107.275L57.959 89.1602C57.959 87.5 56.6895 86.2305 55.0293 86.2305C53.418 86.2305 52.1484 87.5 52.1484 89.1602L52.1484 107.275C52.1484 108.887 53.418 110.205 55.0293 110.205Z" fill="#000000" fill-opacity="0.85"/>
  <path d="M69.4824 108.887C71.3379 108.447 71.875 106.836 71.4844 105.322L69.9219 99.1699C69.4824 97.6074 67.8223 96.7285 66.2598 97.168C64.5508 97.6562 63.8184 99.2676 64.2578 100.732L66.0156 106.689C66.5039 108.301 67.7246 109.229 69.4824 108.887Z" fill="#000000" fill-opacity="0.85"/>
  <path d="M82.5684 102.832C83.9844 102.051 84.4238 100.293 83.6426 98.877L74.5605 83.1543C73.7793 81.6895 71.9727 81.25 70.6055 82.0312C69.1895 82.8613 68.7012 84.6191 69.5801 86.0352L78.6133 101.758C79.4434 103.174 81.1523 103.613 82.5684 102.832Z" fill="#000000" fill-opacity="0.85"/>
  <path d="M94.3359 94.4824C95.5566 93.2617 95.459 91.4062 94.4336 90.332L89.9414 85.9375C88.7695 84.8145 87.0117 84.668 85.7422 85.9375C84.6191 87.1582 84.7168 88.8184 85.8398 89.9902L90.2344 94.3848C91.4551 95.6055 93.1641 95.6543 94.3359 94.4824Z" fill="#000000" fill-opacity="0.85"/>
  <path d="M102.734 82.666C103.516 81.2988 103.076 79.541 101.709 78.7109L85.9375 69.6289C84.5215 68.7988 82.7637 69.2871 81.9824 70.6543C81.1523 72.0703 81.5918 73.8281 83.0566 74.6582L98.7793 83.7402C100.195 84.5215 101.904 84.082 102.734 82.666Z" fill="#000000" fill-opacity="0.85"/>
  <path d="M108.74 69.6777C109.18 68.0176 108.447 66.5039 106.738 66.0156L100.684 64.3066C99.0234 63.8672 97.5098 64.7949 97.1191 66.3574C96.7285 67.9688 97.6074 69.6289 99.1211 70.0195L105.127 71.582C106.836 72.0215 108.301 71.1426 108.74 69.6777Z" fill="#000000" fill-opacity="0.85"/>
  <path d="M110.107 55.127C110.107 53.5156 108.838 52.2461 107.178 52.2461L89.0625 52.2461C87.4023 52.2461 86.1328 53.5156 86.1328 55.127C86.1328 56.7871 87.4023 58.0566 89.0625 58.0566L107.178 58.0566C108.838 58.0566 110.107 56.7871 110.107 55.127Z" fill="#000000" fill-opacity="0.85"/>
  <path d="M108.74 40.8203C108.35 39.209 106.689 38.2812 105.225 38.7207L99.1211 40.3809C97.5586 40.8203 96.6309 42.334 97.168 44.1406C97.5586 45.4102 98.9258 46.4355 100.684 45.9961L106.592 44.3359C108.301 43.8965 109.131 42.334 108.74 40.8203Z" fill="#000000" fill-opacity="0.85"/>
  <path d="M102.783 27.6367C101.953 26.2207 100.195 25.7812 98.7793 26.5625L83.0566 35.6445C81.5918 36.4746 81.1523 38.2324 81.9824 39.6484C82.7637 41.0156 84.5215 41.5039 85.9375 40.6738L101.709 31.5918C103.076 30.7617 103.516 29.0527 102.783 27.6367Z" fill="#000000" fill-opacity="0.85"/>
  <path d="M94.3848 15.918C93.2129 14.7461 91.3574 14.8438 90.2832 15.918L85.8398 20.3125C84.6191 21.582 84.6191 23.2422 85.8398 24.4141C87.0117 25.6348 88.7695 25.6348 89.8926 24.4629L94.2383 20.0684C95.459 18.7988 95.5078 17.0898 94.3848 15.918Z" fill="#000000" fill-opacity="0.85"/>
  <path d="M82.6172 7.4707C81.2012 6.68945 79.4434 7.12891 78.6133 8.49609L69.5801 24.2676C68.7012 25.6836 69.1895 27.4414 70.6055 28.2227C71.9727 29.0527 73.7793 28.6133 74.5605 27.1484L83.6426 11.4258C84.4238 10.0098 83.9844 8.30078 82.6172 7.4707Z" fill="#000000" fill-opacity="0.85"/>
  <path d="M69.4824 1.5625C67.9199 1.02539 66.4062 1.80664 65.918 3.61328L64.2578 9.61914C63.8184 11.1816 64.6973 12.793 66.2598 13.1836C67.8223 13.5742 69.3848 12.7441 69.8242 11.1328L71.4355 5.12695C71.875 3.4668 71.0449 2.00195 69.4824 1.5625Z" fill="#000000" fill-opacity="0.85"/>
  <path d="M55.0293 0.0976562C53.418 0.0976562 52.1484 1.41602 52.1484 3.02734L52.1484 21.1426C52.1484 22.8027 53.418 24.0723 55.0293 24.0723C56.6895 24.0723 57.959 22.8027 57.959 21.1426L57.959 3.02734C57.959 1.41602 56.6895 0.0976562 55.0293 0.0976562Z" fill="#000000" fill-opacity="0.85"/>
 </g>
</svg>
