<?xml version="1.0" encoding="UTF-8"?>
<!--Generator: Apple Native CoreSVG 232.5-->
<!DOCTYPE svg
PUBLIC "-//W3C//DTD SVG 1.1//EN"
       "http://www.w3.org/Graphics/SVG/1.1/DTD/svg11.dtd">
<svg version="1.1" xmlns="http://www.w3.org/2000/svg" xmlns:xlink="http://www.w3.org/1999/xlink" width="89.8926" height="89.9902">
 <g>
  <rect height="89.9902" opacity="0" width="89.8926" x="0" y="0"/>
  <path d="M15.332 89.9902L74.5605 89.9902C84.8145 89.9902 89.8926 84.9121 89.8926 74.8535L89.8926 15.2344C89.8926 5.17578 84.8145 0.0976562 74.5605 0.0976562L15.332 0.0976562C5.12695 0.0976562 0 5.12695 0 15.2344L0 74.8535C0 84.9609 5.12695 89.9902 15.332 89.9902ZM15.4297 82.1289C10.5469 82.1289 7.86133 79.541 7.86133 74.4629L7.86133 15.625C7.86133 10.5469 10.5469 7.95898 15.4297 7.95898L74.4629 7.95898C79.2969 7.95898 82.0312 10.5469 82.0312 15.625L82.0312 74.4629C82.0312 79.541 79.2969 82.1289 74.4629 82.1289Z" fill="#000000" fill-opacity="0.85"/>
  <path d="M16.5039 44.9707C16.5039 60.5957 29.3457 73.4863 44.9707 73.4863C60.5957 73.4863 73.4863 60.5957 73.4863 44.9707C73.4863 29.3945 60.5957 16.5039 45.0195 16.5039C42.9199 16.5039 41.6016 17.8711 41.6016 20.0195L41.6016 29.3945C41.6016 31.2988 43.0176 32.7148 44.873 32.7148C46.6797 32.7148 48.0469 31.25 48.0469 29.3945L48.0469 23.8281C58.4961 25.2441 66.4062 34.1309 66.4062 44.9707C66.4062 56.8848 56.8359 66.4062 44.9707 66.4062C33.1055 66.4062 23.5352 56.8848 23.584 44.9707C23.584 39.8438 25.3418 34.9609 28.7109 31.1035C29.9316 29.4922 29.9316 27.5879 28.6621 26.1719C27.1484 24.6094 24.8535 24.8047 23.3887 26.5625C18.9453 31.6895 16.5039 38.3301 16.5039 44.9707ZM49.5605 49.3652C51.8555 46.9727 51.416 43.5547 48.6328 41.748L35.498 32.9102C33.4961 31.5918 31.7383 33.3008 33.0566 35.3027L41.9434 48.3887C43.8477 51.2207 47.2168 51.6602 49.5605 49.3652Z" fill="#000000" fill-opacity="0.85"/>
 </g>
</svg>
