<?xml version="1.0" encoding="UTF-8"?>
<!--Generator: Apple Native CoreSVG 232.5-->
<!DOCTYPE svg
PUBLIC "-//W3C//DTD SVG 1.1//EN"
       "http://www.w3.org/Graphics/SVG/1.1/DTD/svg11.dtd">
<svg version="1.1" xmlns="http://www.w3.org/2000/svg" xmlns:xlink="http://www.w3.org/1999/xlink" width="99.6094" height="99.6582">
 <g>
  <rect height="99.6582" opacity="0" width="99.6094" x="0" y="0"/>
  <path d="M99.6094 49.8535C99.6094 77.0996 77.0508 99.6582 49.8047 99.6582C22.6074 99.6582 0 77.0996 0 49.8535C0 22.6562 22.5586 0.0488281 49.7559 0.0488281C77.002 0.0488281 99.6094 22.6562 99.6094 49.8535ZM50.7324 70.7031L48.7793 70.7031C45.6055 70.7031 42.2852 70.0684 39.502 68.7988L36.8652 77.3438C36.6211 78.2715 36.6211 79.1992 37.3047 79.8828C39.7949 82.3242 45.5078 83.4961 49.8047 83.4961C54.1016 83.4961 59.8145 82.3242 62.3535 79.8828C62.9883 79.1992 62.9883 78.2715 62.7441 77.3438L60.1074 68.7012C57.3242 70.0684 54.0039 70.7031 50.7324 70.7031ZM49.8047 58.1055C41.8945 58.1055 35.4492 56.6406 31.7871 54.1504C33.3984 62.6465 40.1367 67.627 48.877 67.627L50.7324 67.627C59.4727 67.627 66.1621 62.6465 67.8223 54.1504C64.1602 56.6406 57.7637 58.1055 49.8047 58.1055ZM31.3965 48.4863C31.3965 52.3438 39.209 55.127 49.8047 55.127C60.5469 55.127 68.2129 52.3438 68.2129 48.4863C68.2129 44.6777 60.4492 41.9434 49.8047 41.9434C39.209 41.9434 31.3965 44.6777 31.3965 48.4863ZM33.5449 27.002L34.6191 41.3086C38.3789 39.7461 43.6523 38.8672 49.8047 38.8672C55.957 38.8672 61.2793 39.7461 64.9902 41.3086L66.0645 27.002ZM32.5684 19.5801C31.3477 19.5801 30.3711 20.5566 30.3711 21.7285C30.3711 22.9492 31.3477 23.9258 32.5684 23.9258L67.041 23.9258C68.2617 23.9258 69.2871 22.9492 69.2871 21.7285C69.2871 20.5566 68.2617 19.5801 67.041 19.5801Z" fill="#000000" fill-opacity="0.85"/>
 </g>
</svg>
