<?xml version="1.0" encoding="UTF-8"?>
<!--Generator: Apple Native CoreSVG 232.5-->
<!DOCTYPE svg
PUBLIC "-//W3C//DTD SVG 1.1//EN"
       "http://www.w3.org/Graphics/SVG/1.1/DTD/svg11.dtd">
<svg version="1.1" xmlns="http://www.w3.org/2000/svg" xmlns:xlink="http://www.w3.org/1999/xlink" width="99.6094" height="99.6582">
 <g>
  <rect height="99.6582" opacity="0" width="99.6094" x="0" y="0"/>
  <path d="M99.6094 49.8535C99.6094 77.0996 77.0508 99.6582 49.8047 99.6582C22.6074 99.6582 0 77.0996 0 49.8535C0 22.6562 22.5586 0.0488281 49.7559 0.0488281C77.002 0.0488281 99.6094 22.6562 99.6094 49.8535ZM52.7344 75.8789C51.2207 76.0742 49.6094 76.123 48.0957 75.9277C46.4844 75.6836 45.5078 76.6113 45.3613 77.7344C45.2148 78.9062 45.8984 80.0781 47.6074 80.3223C49.4141 80.5176 51.416 80.4688 53.2715 80.2734C54.834 80.0781 55.5664 79.0039 55.5176 77.7344C55.3223 76.5625 54.3945 75.6836 52.7344 75.8789ZM64.3066 66.2109C59.9121 67.3828 54.8828 67.7246 50.1953 67.0898C48.6328 66.9434 47.4609 67.7246 47.2656 69.043C47.168 70.3125 47.8516 71.3867 49.5117 71.6797C54.541 72.2168 60.6445 72.0703 65.8691 70.6543C67.3828 70.166 67.9688 68.7988 67.5781 67.627C67.1387 66.3086 65.918 65.8203 64.3066 66.2109ZM70.5566 55.6641C64.502 57.666 58.4473 58.6426 52.002 58.6426C49.2676 58.6426 46.4355 58.3984 44.2383 58.1055C42.627 57.959 41.6016 58.6426 41.3086 59.8633C41.0645 61.084 41.748 62.3047 43.457 62.6465C45.6055 63.0371 48.6328 63.2324 52.002 63.1836C59.3262 63.1348 66.1133 62.1094 72.3145 60.0098C74.0234 59.4238 74.3652 57.8613 73.9258 56.7871C73.4863 55.5664 72.168 55.1758 70.5566 55.6641ZM70.3125 46.4844C65.332 48.3887 58.0566 49.707 50.1465 49.707C44.2871 49.707 37.6953 48.9746 32.4707 47.4609C31.0059 47.0215 29.6875 47.5098 29.248 48.877C28.9062 50.1465 29.6387 51.4648 31.1523 51.8555C36.7676 53.4668 44.043 54.2969 50.1465 54.2969C58.8379 54.2969 66.7969 52.8809 72.4121 50.5371C73.7793 50 74.3652 48.6328 73.7793 47.3633C73.0957 46.1426 71.7773 45.8984 70.3125 46.4844ZM37.2559 19.7266C27.9297 22.5586 23.291 27.5391 23.291 32.8613C23.291 41.0645 32.4707 45.2637 49.3652 45.2637C66.2109 45.2637 76.2695 40.9668 76.2695 34.7656C76.2695 29.0527 68.2617 25.6836 57.1777 25.6836C48.877 25.6836 42.334 27.2461 37.4512 29.5898C35.8398 30.3711 35.498 32.0312 36.1328 33.1543C36.7676 34.4727 38.4277 34.8145 39.7949 34.1797C44.1406 32.373 49.5117 30.6152 56.9336 30.6152C66.0156 30.6152 70.9961 32.6172 70.9961 34.7168C70.9961 37.1582 62.9883 40.1855 49.1699 40.1855C35.4492 40.1855 28.6133 37.5488 28.6133 32.7637C28.6133 29.9805 31.2012 26.9531 38.9648 24.5117C40.5273 23.9746 41.3086 22.6074 40.8691 21.1914C40.3809 19.7754 39.1113 19.2383 37.2559 19.7266Z" fill="#000000" fill-opacity="0.85"/>
 </g>
</svg>
