<?xml version="1.0" encoding="UTF-8"?>
<!--Generator: Apple Native CoreSVG 232.5-->
<!DOCTYPE svg
PUBLIC "-//W3C//DTD SVG 1.1//EN"
       "http://www.w3.org/Graphics/SVG/1.1/DTD/svg11.dtd">
<svg version="1.1" xmlns="http://www.w3.org/2000/svg" xmlns:xlink="http://www.w3.org/1999/xlink" width="92.6758" height="109.103">
 <g>
  <rect height="109.103" opacity="0" width="92.6758" x="0" y="0"/>
  <path d="M45.5566 44.0289C75.4883 44.0289 92.6758 36.4605 92.6758 26.1578C92.6758 16.6851 79.0039 10.8746 59.4727 10.8746C44.8242 10.8746 33.3984 13.7066 24.7559 17.7594C22.4121 18.8824 21.875 21.2262 22.7539 22.8863C23.6816 24.7418 26.123 25.2301 28.0762 24.4C35.8887 21.1285 45.752 17.9547 59.0332 17.9547C75.4883 17.9547 85.0098 21.8609 85.0098 26.109C85.0098 31.0894 70.166 36.7047 45.2148 36.7047C20.7031 36.7047 7.61719 31.8707 7.61719 22.6422C7.61719 17.2223 12.5977 11.5094 26.7578 6.96835C29.1504 6.1871 30.1758 4.2828 29.4922 2.28085C28.8086 0.278893 27.002-0.502357 24.3164 0.327721C7.91016 5.21053 0 13.7555 0 22.8375C0 36.7047 15.6738 44.0289 45.5566 44.0289ZM47.0215 60.1422C62.3047 60.1422 76.3672 57.6031 86.3281 53.5504C88.1836 52.7691 89.1113 50.816 88.1836 49.107C87.3047 47.4469 85.5469 47.1539 83.3496 47.984C74.3164 51.4508 61.1816 53.7945 47.0215 53.7945C36.5723 53.7945 24.5605 52.4762 15.1855 49.7418C12.9883 49.107 11.1816 49.7906 10.6445 51.6461C10.1074 53.4527 11.0352 55.1617 13.2812 55.8453C23.3887 58.6773 36.0352 60.1422 47.0215 60.1422ZM50.3418 76.0601C63.1348 75.9625 75.1465 74.107 86.1328 70.3473C88.7207 69.4683 89.1113 67.4176 88.4766 65.9039C87.793 64.1949 86.0352 63.6578 83.5449 64.4879C72.7051 68.0035 61.9141 69.6637 50.3418 69.6637C45.4102 69.6637 40.2832 69.3219 36.2793 68.7848C33.8867 68.4918 32.4219 69.4195 32.1289 71.1773C31.7871 72.9351 32.7148 74.5953 35.2539 75.0348C39.0137 75.7183 44.2871 76.109 50.3418 76.0601ZM45.8984 91.0504C54.7852 92.0758 65.4785 91.8316 74.6582 89.3414C76.8555 88.7555 77.6855 86.8023 77.1484 85.0933C76.5625 83.2867 74.8535 82.6031 72.5098 83.189C64.5996 85.2398 55.4688 85.9234 46.9727 84.8492C44.6289 84.6051 43.0176 85.6793 42.7734 87.4859C42.5293 89.2926 43.457 90.7574 45.8984 91.0504ZM42.5781 106.529C45.6543 106.968 49.2676 106.92 52.4414 106.529C54.6875 106.236 55.7129 104.82 55.5664 103.013C55.3711 101.402 54.1016 100.23 51.709 100.523C49.0234 100.865 45.8496 100.865 43.1152 100.572C40.918 100.279 39.5508 101.451 39.3066 103.013C39.1113 104.673 40.1367 106.285 42.5781 106.529Z" fill="#000000" fill-opacity="0.85"/>
 </g>
</svg>
