<?xml version="1.0" encoding="UTF-8"?>
<!--Generator: Apple Native CoreSVG 232.5-->
<!DOCTYPE svg
PUBLIC "-//W3C//DTD SVG 1.1//EN"
       "http://www.w3.org/Graphics/SVG/1.1/DTD/svg11.dtd">
<svg version="1.1" xmlns="http://www.w3.org/2000/svg" xmlns:xlink="http://www.w3.org/1999/xlink" width="99.6094" height="99.6582">
 <g>
  <rect height="99.6582" opacity="0" width="99.6094" x="0" y="0"/>
  <path d="M49.8047 99.6094C77.0508 99.6094 99.6094 77.002 99.6094 49.8047C99.6094 22.5586 77.002 0 49.7559 0C22.5586 0 0 22.5586 0 49.8047C0 77.002 22.6074 99.6094 49.8047 99.6094ZM49.8047 91.3086C26.7578 91.3086 8.34961 72.8516 8.34961 49.8047C8.34961 26.7578 26.709 8.30078 49.7559 8.30078C72.8027 8.30078 91.3086 26.7578 91.3086 49.8047C91.3086 72.8516 72.8516 91.3086 49.8047 91.3086Z" fill="#000000" fill-opacity="0.85"/>
  <path d="M49.3652 45.3613C65.7227 45.3613 75.4883 41.2109 75.4883 35.1562C75.4883 29.6387 67.7246 26.3672 56.9336 26.3672C48.9258 26.3672 42.5781 27.8809 37.8418 30.127C36.2793 30.8594 35.9375 32.4707 36.5234 33.5938C37.1582 34.8633 38.7695 35.2051 40.0879 34.6191C44.2871 32.8613 49.5117 31.1523 56.7383 31.1523C65.5273 31.1523 70.3613 33.1055 70.3613 35.1074C70.3613 37.5 62.5977 40.4297 49.1699 40.4297C35.8887 40.4297 29.248 37.8906 29.248 33.252C29.248 30.4688 31.7383 27.5391 39.2578 25.1953C40.7715 24.6582 41.5527 23.3398 41.1133 21.9727C40.625 20.6543 39.4043 20.1172 37.6465 20.6055C28.6133 23.3398 24.0723 28.1738 24.0723 33.3496C24.0723 41.2598 33.0078 45.3613 49.3652 45.3613ZM50.1465 54.1016C58.5449 54.1016 66.3086 52.7344 71.7285 50.4395C73.0469 49.9512 73.6328 48.584 73.0469 47.3633C72.4121 46.2402 71.1426 45.9473 69.7266 46.4844C64.8926 48.3887 57.8125 49.6094 50.1465 49.6094C44.4336 49.6094 38.0371 48.9258 32.959 47.4609C31.543 47.0703 30.2734 47.5586 29.8828 48.8281C29.541 50.0977 30.2246 51.3672 31.6895 51.7578C37.1582 53.3203 44.1895 54.1016 50.1465 54.1016ZM51.9531 62.6953C59.0332 62.6465 65.625 61.6699 71.6309 59.668C73.291 59.0332 73.6328 57.5684 73.1934 56.543C72.7539 55.3223 71.4844 54.9316 69.9219 55.4688C64.0625 57.373 58.2031 58.3008 51.9531 58.3008C49.2676 58.3008 46.5332 58.1055 44.3848 57.8125C42.8223 57.6172 41.8457 58.3008 41.5527 59.4727C41.3086 60.6934 41.9922 61.8652 43.6523 62.207C45.752 62.5488 48.6816 62.7441 51.9531 62.6953ZM49.5117 70.8984C54.3945 71.4355 60.3027 71.3379 65.3809 69.9219C66.8457 69.4824 67.4316 68.1641 67.041 67.041C66.6016 65.7715 65.4297 65.2344 63.8672 65.6738C59.6191 66.7969 54.7363 67.1387 50.1953 66.5039C48.6816 66.4062 47.5586 67.1387 47.3633 68.4082C47.2656 69.6289 47.9004 70.7031 49.5117 70.8984ZM47.6562 79.2969C49.4141 79.4922 51.3672 79.4922 53.1738 79.2969C54.6875 79.0527 55.3711 78.0762 55.3223 76.8555C55.127 75.7324 54.248 74.8535 52.6367 75.0488C51.1719 75.2441 49.6094 75.293 48.1445 75.0488C46.582 74.8535 45.6543 75.7812 45.5078 76.8066C45.3613 77.9785 45.9961 79.0527 47.6562 79.2969Z" fill="#000000" fill-opacity="0.85"/>
 </g>
</svg>
