<?xml version="1.0" encoding="UTF-8"?>
<!--Generator: Apple Native CoreSVG 232.5-->
<!DOCTYPE svg
PUBLIC "-//W3C//DTD SVG 1.1//EN"
       "http://www.w3.org/Graphics/SVG/1.1/DTD/svg11.dtd">
<svg version="1.1" xmlns="http://www.w3.org/2000/svg" xmlns:xlink="http://www.w3.org/1999/xlink" width="99.6094" height="99.6582">
 <g>
  <rect height="99.6582" opacity="0" width="99.6094" x="0" y="0"/>
  <path d="M99.6094 49.8047C99.6094 77.002 77.0508 99.6094 49.8047 99.6094C22.6074 99.6094 0 77.002 0 49.8047C0 22.5586 22.5586 0 49.7559 0C77.002 0 99.6094 22.5586 99.6094 49.8047ZM51.2695 64.3066C53.125 66.8945 57.0312 68.5547 60.9375 68.5547C63.9648 68.5547 66.3086 67.1875 66.3086 64.8438C66.3086 63.0371 64.5508 61.5234 62.6465 61.377C61.4258 61.3281 60.498 61.3281 59.1797 61.2793C56.6406 61.377 53.2715 63.0371 51.2695 64.3066ZM18.3594 61.7188C16.4551 62.207 14.6484 62.9395 14.6484 64.7949C14.6484 67.1387 17.041 68.457 20.0684 68.457C23.9258 68.457 27.832 66.7969 29.7363 64.209C27.1484 62.6465 24.5117 61.3281 21.582 61.2793C20.5566 61.5234 19.4336 61.5723 18.3594 61.7188ZM41.0156 48.7793C39.0625 48.7793 37.207 48.5352 35.4004 48.0957C35.0098 52.1484 32.7637 57.1777 29.3945 60.498C32.2754 61.7188 35.7422 64.6484 40.8691 64.6484C45.9473 64.6484 49.5605 61.9141 52.6367 60.4492C49.1699 57.2266 46.9238 52.3926 46.6309 48.0469C44.7754 48.5352 42.8711 48.7793 41.0156 48.7793ZM20.752 46.9727C18.6035 51.0254 16.3574 53.125 14.6973 54.4434C14.1602 55.0293 13.7695 55.7129 13.7695 56.5918C13.7695 57.8613 15.0391 58.5938 17.4805 58.5938C18.4082 58.5938 19.3848 58.5938 20.3125 58.5938C22.8027 58.5938 24.5117 58.8867 26.2207 59.4238C29.541 56.2012 32.1777 51.123 32.666 47.168C29.6875 46.0938 26.0254 43.8965 23.877 41.6016C22.8516 43.2129 21.7285 44.9707 20.752 46.9727ZM49.3164 47.1191C49.707 51.0742 51.9531 55.8105 55.5176 59.2773C57.4707 58.7891 59.3262 58.4961 61.8652 58.4961C64.0137 58.4961 66.1621 58.2031 67.1387 57.5684C64.6484 54.3945 60.3027 45.0195 57.9102 41.4062C55.6641 43.75 51.9043 46.1426 49.3164 47.1191ZM67.9688 43.2617C67.0898 46.6309 65.8203 47.998 64.7949 48.9258C66.0156 50.7324 67.8711 53.9551 69.6289 56.4941C72.6562 55.0781 74.1211 53.3203 78.3203 53.3203C84.2285 53.3203 88.0371 51.1719 88.0371 47.8516C88.0371 40.1855 83.9844 34.9609 77.8809 34.9609C72.5586 34.9609 69.1895 38.0859 67.9688 43.2617ZM25.6836 39.0625C29.834 43.5547 35.1074 45.6543 40.918 45.6055C47.0703 45.5566 52.2461 43.457 56.2988 38.9648C52.1484 33.7891 47.7539 31.2988 41.0645 31.25C34.375 31.25 29.9316 33.3984 25.6836 39.0625ZM80.3223 43.6523C80.3223 44.7266 79.3457 45.6055 78.418 45.6055C77.3438 45.6055 76.4648 44.7266 76.4648 43.6523C76.4648 42.627 77.3438 41.6992 78.418 41.6992C79.3457 41.6992 80.3223 42.627 80.3223 43.6523Z" fill="#000000" fill-opacity="0.85"/>
 </g>
</svg>
