<?xml version="1.0" encoding="UTF-8"?>
<!--Generator: Apple Native CoreSVG 232.5-->
<!DOCTYPE svg
PUBLIC "-//W3C//DTD SVG 1.1//EN"
       "http://www.w3.org/Graphics/SVG/1.1/DTD/svg11.dtd">
<svg version="1.1" xmlns="http://www.w3.org/2000/svg" xmlns:xlink="http://www.w3.org/1999/xlink" width="99.6094" height="99.6582">
 <g>
  <rect height="99.6582" opacity="0" width="99.6094" x="0" y="0"/>
  <path d="M49.8047 99.6094C77.0508 99.6094 99.6094 77.002 99.6094 49.8047C99.6094 22.5586 77.002 0 49.7559 0C22.5586 0 0 22.5586 0 49.8047C0 77.002 22.6074 99.6094 49.8047 99.6094ZM49.8047 91.3086C26.7578 91.3086 8.34961 72.8516 8.34961 49.8047C8.34961 26.7578 26.709 8.30078 49.7559 8.30078C72.8027 8.30078 91.3086 26.7578 91.3086 49.8047C91.3086 72.8516 72.8516 91.3086 49.8047 91.3086Z" fill="#000000" fill-opacity="0.85"/>
  <path d="M41.2109 45.752C47.2168 45.7031 52.1973 43.6523 56.1523 39.3066C52.1484 34.2773 47.8516 31.8848 41.3574 31.8359C34.8633 31.8359 30.5664 33.8867 26.416 39.4043C30.4688 43.75 35.5957 45.8008 41.2109 45.752ZM26.9531 59.1309C30.1758 56.0059 32.7148 51.0742 33.2031 47.2656C30.3223 46.1914 26.7578 44.0918 24.707 41.8457C23.6816 43.4082 22.6074 45.1172 21.6309 47.0703C19.5801 51.0254 17.3828 53.0273 15.7715 54.3457C15.2344 54.8828 14.8926 55.5664 14.8926 56.3965C14.8926 57.6172 16.1133 58.3496 18.457 58.3496C19.3359 58.3496 20.3125 58.3496 21.1914 58.3496C23.6328 58.3496 25.293 58.6426 26.9531 59.1309ZM41.1621 64.209C46.0938 64.209 49.6094 61.5723 52.5879 60.1562C49.2188 56.9824 47.0703 52.3438 46.7773 48.0957C44.9707 48.584 43.1152 48.8281 41.3086 48.8281C39.4043 48.8281 37.5977 48.584 35.8398 48.1445C35.4492 52.0996 33.3008 56.9336 30.0293 60.2051C32.8125 61.377 36.1816 64.209 41.1621 64.209ZM55.3711 58.9844C57.2754 58.5449 59.082 58.252 61.5723 58.252C63.623 58.252 65.7227 57.959 66.6504 57.3242C64.2578 54.248 60.0098 45.166 57.7148 41.6504C55.5176 43.9453 51.9043 46.2402 49.3652 47.2168C49.7559 51.0742 51.9531 55.6152 55.3711 58.9844ZM77.5391 53.2227C83.252 53.2227 86.9141 51.123 86.9141 47.9004C86.9141 40.4785 83.0078 35.4004 77.0996 35.4004C71.9238 35.4004 68.6523 38.4766 67.4805 43.457C66.6016 46.7285 65.3809 48.0469 64.4043 48.9746C65.5762 50.7324 67.3828 53.8574 69.0918 56.2988C72.0215 54.9316 73.4375 53.2227 77.5391 53.2227ZM77.5879 45.752C76.5625 45.752 75.7324 44.873 75.7324 43.8477C75.7324 42.8711 76.5625 41.9434 77.5879 41.9434C78.5156 41.9434 79.4434 42.8711 79.4434 43.8477C79.4434 44.873 78.5156 45.752 77.5879 45.752ZM20.9961 67.8711C24.707 67.8711 28.5156 66.2598 30.3711 63.7695C27.832 62.2559 25.293 60.9863 22.4609 60.9375C21.4844 61.1816 20.3613 61.2305 19.3359 61.377C17.4805 61.8164 15.7227 62.5488 15.7227 64.3555C15.7227 66.6016 18.0664 67.8711 20.9961 67.8711ZM60.6445 67.9688C63.5742 67.9688 65.8691 66.6504 65.8691 64.4043C65.8691 62.6465 64.1602 61.1816 62.3047 61.0352C61.1328 60.9863 60.2051 60.9863 58.9355 60.9375C56.4941 61.0352 53.2227 62.6465 51.2695 63.8672C53.0762 66.3574 56.8848 67.9688 60.6445 67.9688Z" fill="#000000" fill-opacity="0.85"/>
 </g>
</svg>
