<?xml version="1.0" encoding="UTF-8"?>
<!--Generator: Apple Native CoreSVG 232.5-->
<!DOCTYPE svg
PUBLIC "-//W3C//DTD SVG 1.1//EN"
       "http://www.w3.org/Graphics/SVG/1.1/DTD/svg11.dtd">
<svg version="1.1" xmlns="http://www.w3.org/2000/svg" xmlns:xlink="http://www.w3.org/1999/xlink" width="164.307" height="97.4121">
 <g>
  <rect height="97.4121" opacity="0" width="164.307" x="0" y="0"/>
  <path d="M60.0098 90.7715C80.7129 90.7715 82.8125 77.5391 103.418 77.5391C126.416 77.5391 125.586 66.1133 141.26 66.1133C154.443 66.1133 164.307 61.5234 164.307 52.4414C164.307 33.0078 153.125 22.6562 140.234 22.6562C126.904 22.6562 119.824 31.0547 116.992 42.0898C115.381 48.0957 112.549 51.8555 108.252 54.0039L105.176 48.3398C92.2363 24.5117 80.3223 14.8926 60.6934 14.8438C39.502 14.8926 28.7109 24.1211 12.8906 54.0039C8.10547 63.1348 0 65.1367 0 70.8496C0 74.8535 3.07617 77.5391 9.27734 77.5391C11.1816 77.5391 13.3301 77.5391 15.4785 77.5391C38.0859 77.5391 42.5293 90.7715 60.0098 90.7715ZM60.0098 83.0078C44.4336 83.0078 39.8926 69.6777 17.1387 69.6777C14.6484 69.6777 12.1094 69.7266 9.81445 69.873L9.42383 69.1895C12.7441 66.4062 16.8945 62.8906 19.873 57.0312C33.4473 30.7617 42.4805 22.6562 60.6934 22.6074C80.6152 22.6562 89.5996 36.084 98.877 52.5391C102.246 58.5449 106.543 65.3809 110.889 69.6777C108.887 69.7266 106.592 69.6777 104.248 69.6777C81.1523 69.6777 77.0508 83.0078 60.0098 83.0078ZM118.799 67.5293C116.602 65.8203 113.965 62.5977 112.451 59.8633C117.725 57.8613 121.289 54.2969 123.438 45.9473C125.781 35.8887 131.104 30.0293 140.234 30.0293C149.512 30.0293 157.275 38.623 157.275 51.2695C157.275 55.957 150.146 58.9844 142.725 58.9844C130.518 58.9844 125.049 63.5254 118.799 67.5293ZM142.09 48.1445C144.482 48.1445 146.484 46.1426 146.484 43.75C146.484 41.3574 144.482 39.3555 142.09 39.3555C139.648 39.3555 137.646 41.3574 137.646 43.75C137.646 46.1426 139.648 48.1445 142.09 48.1445ZM60.1074 54.1504C76.3184 54.1504 88.4277 46.9727 96.4355 39.0625L92.8223 33.7891C84.1797 42.7246 73.0957 47.8516 60.1074 47.8516C47.1191 47.8516 36.1328 42.8711 27.5391 33.7891L23.9746 39.1602C31.4941 46.7773 43.5059 54.1504 60.1074 54.1504ZM37.1094 78.3691C43.0664 71.6797 47.6562 60.4004 48.5352 51.8555L43.2129 50.0488C42.4805 57.5684 37.5977 69.5801 31.6406 75.7324ZM83.8867 78.2715L89.502 75.6836C83.3008 69.2871 78.6133 57.8125 77.9785 50.0488L72.5586 51.5625C73.0957 60.4492 77.7344 71.6797 83.8867 78.2715ZM14.3555 97.3145C24.2676 97.3145 34.5215 92.8223 42.3828 84.1797L36.2305 80.2246C28.125 87.5 20.8984 90.7715 14.4531 90.7715C10.1562 90.7715 7.95898 89.4043 7.95898 87.0605C7.95898 85.3027 9.22852 84.1309 12.9883 83.2031C15.7715 82.4707 24.1211 79.834 28.2715 77.3438L22.2656 75C18.0664 76.9043 12.6465 77.7344 8.25195 79.3457C3.66211 80.957 0.683594 83.3984 0.683594 88.0859C0.683594 94.043 6.5918 97.3145 14.3555 97.3145ZM105.42 97.4121C113.135 97.4121 119.092 94.1895 119.092 88.2324C119.092 82.5684 114.844 80.2246 109.131 78.6621C105.176 77.5879 100.977 76.709 97.5098 75.1465L91.5039 77.4414C95.6543 79.9805 104.004 82.6172 106.787 83.3496C110.498 84.2773 111.816 85.4492 111.816 87.207C111.816 89.502 109.619 90.8691 105.322 90.8691C98.8281 90.8691 91.6504 87.6465 83.5449 80.3711L77.3438 84.3262C85.0586 92.7734 95.459 97.4121 105.42 97.4121Z" fill="#000000" fill-opacity="0.85"/>
 </g>
</svg>
