<?xml version="1.0" encoding="UTF-8"?>
<!--Generator: Apple Native CoreSVG 232.5-->
<!DOCTYPE svg
PUBLIC "-//W3C//DTD SVG 1.1//EN"
       "http://www.w3.org/Graphics/SVG/1.1/DTD/svg11.dtd">
<svg version="1.1" xmlns="http://www.w3.org/2000/svg" xmlns:xlink="http://www.w3.org/1999/xlink" width="160.889" height="96.8262">
 <g>
  <rect height="96.8262" opacity="0" width="160.889" x="0" y="0"/>
  <path d="M58.7891 47.5586C72.2656 47.5098 83.4473 42.7734 92.2852 33.1055C83.3008 21.6797 73.7305 16.3086 59.1309 16.2598C44.5801 16.2109 35.1562 20.8984 25.6348 33.3008C34.6191 43.0176 46.2402 47.6074 58.7891 47.5586ZM27.0996 77.1973C34.4238 70.166 40.3809 59.082 41.3086 50.4883C34.7656 48.0469 26.7578 43.3594 22.0703 38.3301C19.7754 41.8945 17.334 45.752 15.1855 50.0488C10.6445 59.1309 5.46875 63.3301 2.14844 66.4551C0.830078 67.6758 0 69.0918 0 70.9961C0 73.8281 3.02734 75.3906 8.34961 75.3906L14.209 75.3906C19.7266 75.3906 23.4863 76.0742 27.0996 77.1973ZM58.6914 88.4277C69.873 88.4277 77.7344 82.5684 84.3262 79.2969C76.8555 72.2168 72.0703 61.7676 71.3379 52.1484C67.2852 53.2715 63.1836 53.8086 58.9355 53.8086C54.6875 53.8574 50.5859 53.2715 46.6309 52.2461C45.8496 61.2305 40.9668 72.1191 33.4961 79.541C39.8438 82.0312 47.5098 88.4277 58.6914 88.4277ZM90.0391 76.9531C94.4824 75.8789 98.3887 75.2441 104.102 75.2441C108.789 75.2441 113.33 74.5117 115.576 73.2422C110.205 66.2598 100.586 45.6543 95.5566 37.8418C90.5273 43.0664 82.373 48.1445 76.7578 50.3418C77.6367 59.1309 82.4707 69.3359 90.0391 76.9531Z" fill="#000000" fill-opacity="0.85"/>
  <path d="M13.6719 96.7285C22.168 96.7285 30.8594 92.9688 34.9609 87.2559C30.1758 84.082 24.1211 81.1035 18.3594 80.8594C15.7715 81.543 12.8906 81.6895 9.91211 82.2754C5.71289 83.0566 1.9043 84.7656 1.9043 88.8184C1.9043 93.9453 7.03125 96.7285 13.6719 96.7285ZM102.051 96.8262C108.691 96.8262 113.818 94.043 113.818 88.916C113.818 84.9121 110.01 81.7383 105.811 81.3965C102.783 81.25 100.439 81.2012 97.3633 81.0059C91.748 81.2988 85.6934 84.2773 80.7617 87.3535C84.8633 93.1152 93.5547 96.8262 102.051 96.8262ZM120.41 71.0938C127.295 67.9199 130.469 63.9648 139.844 63.9648C152.588 63.9648 160.889 59.375 160.889 52.1484C160.889 35.498 152.051 24.1699 138.77 24.1699C127.246 24.1699 120.068 31.0547 117.285 42.1387C115.234 49.8047 112.549 52.6367 110.059 54.7852C112.402 58.2031 116.406 65.2344 120.41 71.0938ZM139.941 47.2656C137.598 47.2656 135.742 45.3613 135.742 43.0664C135.742 40.8203 137.598 38.916 139.941 38.916C142.188 38.916 144.092 40.8203 144.092 43.0664C144.092 45.3613 142.188 47.2656 139.941 47.2656Z" fill="#000000" fill-opacity="0.85"/>
 </g>
</svg>
