<?xml version="1.0" encoding="UTF-8"?>
<!--Generator: Apple Native CoreSVG 232.5-->
<!DOCTYPE svg
PUBLIC "-//W3C//DTD SVG 1.1//EN"
       "http://www.w3.org/Graphics/SVG/1.1/DTD/svg11.dtd">
<svg version="1.1" xmlns="http://www.w3.org/2000/svg" xmlns:xlink="http://www.w3.org/1999/xlink" width="121.729" height="77.4902">
 <g>
  <rect height="77.4902" opacity="0" width="121.729" x="0" y="0"/>
  <path d="M0 62.5488C0 72.5098 5.0293 77.4902 15.1367 77.4902L106.592 77.4902C116.699 77.4902 121.729 72.5098 121.729 62.5488L121.729 14.9414C121.729 4.98047 116.699 0 106.592 0L26.9531 0C18.6035 0 13.7695 4.83398 11.2793 12.3535L1.66016 41.5527C0.488281 44.9707 0 47.8516 0 51.709ZM47.7051 37.8906L47.7051 22.8516C47.7051 19.9219 49.4629 18.2129 52.3438 18.2129L97.5586 18.2129C100.488 18.2129 102.197 19.9219 102.197 22.8516L102.197 37.8906C102.197 40.6738 100.488 42.3828 97.5586 42.3828L52.3438 42.3828C49.4629 42.3828 47.7051 40.6738 47.7051 37.8906ZM17.4805 42.3828C14.7461 42.3828 13.2812 40.1855 14.4043 36.7188L19.3359 21.7285C20.0195 19.5801 21.0938 18.2129 24.5605 18.2129L30.127 18.2129C33.0078 18.2129 34.7656 19.9219 34.7656 22.8516L34.7656 37.8906C34.7656 40.6738 33.0078 42.3828 30.127 42.3828Z" fill="#000000" fill-opacity="0.85"/>
 </g>
</svg>
