<?xml version="1.0" encoding="UTF-8"?>
<!--Generator: Apple Native CoreSVG 232.5-->
<!DOCTYPE svg
PUBLIC "-//W3C//DTD SVG 1.1//EN"
       "http://www.w3.org/Graphics/SVG/1.1/DTD/svg11.dtd">
<svg version="1.1" xmlns="http://www.w3.org/2000/svg" xmlns:xlink="http://www.w3.org/1999/xlink" width="133.936" height="77.4902">
 <g>
  <rect height="77.4902" opacity="0" width="133.936" x="0" y="0"/>
  <path d="M0 62.5488C0 72.5098 5.0293 77.4902 15.1367 77.4902L109.277 77.4902C125.488 77.4902 133.936 68.0176 133.936 56.8359C133.936 50 130.859 42.5781 124.268 36.084L104.297 16.2598C91.6504 3.75977 83.4961 0 68.5547 0L15.1367 0C5.0293 0 0 4.98047 0 14.9414ZM51.6602 39.3555L51.6602 21.3867C51.6602 18.457 53.3691 16.748 56.2988 16.748L69.6777 16.748C83.5938 16.748 90.1367 18.5547 97.0703 25.3906L108.301 36.5723C111.377 39.6484 109.57 43.8477 106.25 43.8477L56.2988 43.8477C53.3691 43.8477 51.6602 42.1387 51.6602 39.3555Z" fill="#000000" fill-opacity="0.85"/>
 </g>
</svg>
