<?xml version="1.0" encoding="UTF-8"?>
<!--Generator: Apple Native CoreSVG 232.5-->
<!DOCTYPE svg
PUBLIC "-//W3C//DTD SVG 1.1//EN"
       "http://www.w3.org/Graphics/SVG/1.1/DTD/svg11.dtd">
<svg version="1.1" xmlns="http://www.w3.org/2000/svg" xmlns:xlink="http://www.w3.org/1999/xlink" width="88.6719" height="123.096">
 <g>
  <rect height="123.096" opacity="0" width="88.6719" x="0" y="0"/>
  <path d="M18.0176 103.125L70.6543 103.125C81.9336 103.125 88.6719 95.4102 88.6719 84.4727L88.6719 54.6387C88.6719 41.5527 86.9629 28.0762 84.7656 19.1895C82.3242 8.83789 75.1465 2.05078 65.4297 0.976562C62.207 0.634766 53.6621 0 44.3359 0C34.0332 0 26.416 0.634766 23.2422 0.976562C13.4766 2.05078 6.34766 8.83789 3.90625 19.1895C1.66016 28.0762 0 41.1133 0 54.1992L0 84.4727C0 95.4102 6.73828 103.125 18.0176 103.125ZM19.043 96.7285C10.3027 96.7285 6.39648 91.6016 6.39648 84.4727L6.39648 54.1992C6.39648 41.5527 8.05664 29.0527 10.1074 20.6055C11.9629 12.8906 16.9434 8.10547 23.877 7.37305C27.1973 6.98242 34.4727 6.39648 44.3359 6.39648C53.2227 6.39648 61.4258 6.98242 64.7461 7.37305C71.7285 8.10547 76.709 12.8906 78.5645 20.6055C80.6152 29.0527 82.2754 41.9922 82.2754 54.6387L82.2754 84.4727C82.2754 91.6016 78.3691 96.7285 69.5801 96.7285ZM31.8359 19.2383L56.7871 19.2383C58.6426 19.2383 59.8145 18.0176 59.8145 16.2109C59.8145 14.4043 58.6426 13.2812 56.7871 13.2812L31.8359 13.2812C30.0293 13.2812 28.8574 14.4043 28.8574 16.2109C28.8574 18.0176 30.0293 19.2383 31.8359 19.2383ZM44.3359 68.8477C56.5918 68.75 66.0156 68.2617 71.2891 67.627C74.2188 67.2363 75.3418 65.332 75.3418 62.5977L75.3418 51.3672C75.3418 41.5039 74.2676 33.5449 73.4863 30.0781C72.998 27.9297 71.6309 26.3672 69.4336 26.123C64.0625 25.4395 58.252 25.0977 44.3359 25.0488C30.3711 25.0977 24.5605 25.4395 19.043 26.123C16.9434 26.3672 15.625 27.9297 15.1367 30.0781C14.3555 33.5449 13.2812 41.5039 13.2812 51.3672L13.2812 62.5977C13.2812 65.332 14.4043 67.2363 17.334 67.627C22.6074 68.2617 32.0312 68.75 44.3359 68.8477ZM21.6309 89.1113C25.4395 89.1113 28.3691 86.2793 28.3691 82.373C28.3691 78.5156 25.5371 75.7324 21.6309 75.7324C17.7734 75.7324 14.9902 78.5156 14.9902 82.373C14.9902 86.2793 17.7734 89.1113 21.6309 89.1113ZM66.9434 89.1602C70.7031 89.1602 73.6816 86.2305 73.6816 82.373C73.6816 78.5645 70.752 75.6836 66.9434 75.6836C63.0859 75.6836 60.1562 78.5645 60.1562 82.373C60.1562 86.2305 63.0859 89.1602 66.9434 89.1602ZM10.6934 122.559L13.4277 122.559C14.7461 122.559 15.5273 122.07 16.2598 120.898L30.127 98.5352L20.8008 98.5352L8.49609 118.311C7.22656 120.361 8.39844 122.559 10.6934 122.559ZM14.9902 116.406L73.8281 116.406L73.8281 109.082L14.9902 109.082ZM75.4395 122.559L78.1738 122.559C80.4199 122.559 81.4453 120.312 80.2246 118.311L68.0176 98.5352L58.6914 98.5352L72.5586 120.898C73.291 122.07 74.0723 122.559 75.4395 122.559Z" fill="#000000" fill-opacity="0.85"/>
 </g>
</svg>
