<?xml version="1.0" encoding="UTF-8"?>
<!--Generator: Apple Native CoreSVG 232.5-->
<!DOCTYPE svg
PUBLIC "-//W3C//DTD SVG 1.1//EN"
       "http://www.w3.org/Graphics/SVG/1.1/DTD/svg11.dtd">
<svg version="1.1" xmlns="http://www.w3.org/2000/svg" xmlns:xlink="http://www.w3.org/1999/xlink" width="118.115" height="86.704">
 <g>
  <rect height="86.704" opacity="0" width="118.115" x="0" y="0"/>
  <path d="M32.4219 76.3842L85.6934 85.7104C95.0195 87.3706 100.586 81.5112 100.586 71.062L100.586 15.0073C100.586 4.02095 95.4102-1.39897 85.6934 0.310011L32.4219 9.68501C22.7051 11.394 17.5293 16.1303 17.5293 24.3334L17.5293 61.687C17.5293 69.8413 22.7051 74.6752 32.4219 76.3842ZM32.0312 69.0112C27.3926 68.2299 24.9023 65.8862 24.9023 61.7846L24.9023 24.2358C24.9023 20.1342 27.3926 17.7905 32.0312 17.0092L86.084 7.68306C90.7227 6.90181 93.2129 9.4897 93.2129 14.9096L93.2129 71.1596C93.2129 76.3354 90.5762 79.1186 86.084 78.3862ZM3.90625 46.6967L114.209 46.6967C116.65 46.6967 118.115 45.2807 118.115 43.0346C118.115 40.6909 116.65 39.3237 114.209 39.3237L3.90625 39.3237C1.46484 39.3237 0 40.6909 0 43.0346C0 45.2807 1.46484 46.6967 3.90625 46.6967Z" fill="#000000" fill-opacity="0.85"/>
 </g>
</svg>
