<?xml version="1.0" encoding="UTF-8"?>
<!--Generator: Apple Native CoreSVG 232.5-->
<!DOCTYPE svg
PUBLIC "-//W3C//DTD SVG 1.1//EN"
       "http://www.w3.org/Graphics/SVG/1.1/DTD/svg11.dtd">
<svg version="1.1" xmlns="http://www.w3.org/2000/svg" xmlns:xlink="http://www.w3.org/1999/xlink" width="89.8926" height="91.0645">
 <g>
  <rect height="91.0645" opacity="0" width="89.8926" x="0" y="0"/>
  <path d="M15.332 91.0645L74.5605 91.0645C84.8145 91.0645 89.8926 86.0352 89.8926 75.9766L89.8926 16.3086C89.8926 6.25 84.8145 1.17188 74.5605 1.17188L15.332 1.17188C5.12695 1.17188 0 6.25 0 16.3086L0 75.9766C0 86.0352 5.12695 91.0645 15.332 91.0645ZM15.4297 83.2031C10.5469 83.2031 7.86133 80.6152 7.86133 75.5371L7.86133 16.748C7.86133 11.6699 10.5469 9.0332 15.4297 9.0332L74.4629 9.0332C79.2969 9.0332 82.0312 11.6699 82.0312 16.748L82.0312 75.5371C82.0312 80.6152 79.2969 83.2031 74.4629 83.2031Z" fill="#000000" fill-opacity="0.85"/>
  <path d="M32.373 74.8047L57.6172 74.8047C60.8887 74.8047 62.8906 72.998 63.0371 69.6777L64.6973 31.1035L68.5547 31.1035C69.7266 31.1035 70.6055 30.127 70.6543 29.0039C70.7031 27.8809 69.7266 26.9043 68.5547 26.9043L56.8848 26.9043L56.8848 22.9492C56.8848 18.9453 54.1504 16.4062 49.9023 16.4062L40.0391 16.4062C35.7422 16.4062 33.1055 18.9453 33.1055 22.9492L33.1055 26.9043L21.3379 26.9043C20.2148 26.9043 19.2383 27.8809 19.2383 29.0039C19.2383 30.127 20.2148 31.1035 21.3379 31.1035L25.3418 31.1035L27.0508 69.6777C27.1484 72.998 29.0527 74.8047 32.373 74.8047ZM36.5723 67.2852C35.5957 67.2852 34.8145 66.6016 34.8145 65.625L33.7891 37.1094C33.7891 36.0352 34.4727 35.3516 35.5957 35.3516C36.5723 35.3516 37.3535 36.0352 37.3535 37.0605L38.2812 65.5762C38.2812 66.5527 37.6953 67.2852 36.5723 67.2852ZM44.9219 67.2363C43.8477 67.2363 43.1152 66.5527 43.1152 65.5762L43.1152 37.0605C43.1152 36.0352 43.7988 35.3516 44.9219 35.3516C45.9961 35.3516 46.7285 36.0352 46.7285 37.0605L46.7285 65.5762C46.7285 66.5527 45.9961 67.2363 44.9219 67.2363ZM53.2227 67.2852C52.1484 67.2852 51.5137 66.5527 51.5137 65.5762L52.4414 37.0605C52.4902 36.0352 53.2227 35.3516 54.248 35.3516C55.3711 35.3516 56.0059 36.0352 56.0059 37.1094L54.9805 65.625C54.9805 66.6016 54.1992 67.2852 53.2227 67.2852ZM38.0371 26.9043L38.0371 23.2422C38.0371 21.9727 38.9648 21.1426 40.2832 21.1426L49.5605 21.1426C50.8789 21.1426 51.8066 21.9727 51.8066 23.2422L51.8066 26.9043Z" fill="#000000" fill-opacity="0.85"/>
 </g>
</svg>
