<?xml version="1.0" encoding="UTF-8"?>
<!--Generator: Apple Native CoreSVG 232.5-->
<!DOCTYPE svg
PUBLIC "-//W3C//DTD SVG 1.1//EN"
       "http://www.w3.org/Graphics/SVG/1.1/DTD/svg11.dtd">
<svg version="1.1" xmlns="http://www.w3.org/2000/svg" xmlns:xlink="http://www.w3.org/1999/xlink" width="99.6094" height="99.6582">
 <g>
  <rect height="99.6582" opacity="0" width="99.6094" x="0" y="0"/>
  <path d="M99.6094 49.8047C99.6094 77.002 77.0508 99.6094 49.8047 99.6094C22.6074 99.6094 0 77.002 0 49.8047C0 22.5586 22.5586 0 49.7559 0C77.002 0 99.6094 22.5586 99.6094 49.8047ZM8.34961 49.8047C8.34961 72.8516 26.7578 91.3086 49.8047 91.3086C72.8516 91.3086 91.3086 72.8516 91.3086 49.8047C91.3086 26.7578 72.8027 8.30078 49.7559 8.30078C26.709 8.30078 8.34961 26.7578 8.34961 49.8047Z" fill="#000000" fill-opacity="0.85"/>
  <path d="M38.8151 47.5195L39.5996 69.3359C39.5996 70.3125 40.3809 70.9961 41.3574 70.9961C42.4316 70.9961 43.0664 70.3125 43.0664 69.3359L42.4755 51.1723L47.9004 56.586L47.9004 69.3359C47.9004 70.3125 48.584 70.9961 49.6582 70.9961C50.7812 70.9961 51.5137 70.3125 51.5137 69.3359L51.5137 60.1918L56.4365 65.1045L56.2988 69.3359C56.2988 70.3125 56.9336 70.9961 58.0078 70.9961C58.9844 70.9961 59.7656 70.3125 59.7656 69.3359L59.7972 68.4582L67.24 75.8857C66.4047 77.6198 64.7018 78.5645 62.4023 78.5645L37.1582 78.5645C33.8379 78.5645 31.9336 76.709 31.7871 73.4375L30.3082 39.0301ZM61.6211 26.709L61.6211 30.6641L73.3398 30.6641C74.5117 30.6641 75.4883 31.5918 75.4395 32.7637C75.3906 33.8867 74.5117 34.8145 73.3398 34.8145L69.4336 34.8145L68.3389 61.0548L60.3509 53.0586L60.791 40.8203C60.791 39.7949 60.1562 39.1113 59.0332 39.1113C58.0078 39.1113 57.2266 39.7461 57.2266 40.8203L56.9395 49.6437L51.5137 44.2122L51.5137 40.8203C51.5137 39.7949 50.7812 39.1113 49.6582 39.1113C48.6607 39.1113 48 39.7008 47.9117 40.6065L37.8906 30.5751L37.8906 26.709C37.8906 22.6562 40.5273 20.1172 44.7754 20.1172L54.6387 20.1172C58.9355 20.1172 61.6211 22.6562 61.6211 26.709ZM45.0684 24.8535C43.75 24.8535 42.8223 25.6836 42.8223 26.9531L42.8223 30.6641L56.5918 30.6641L56.5918 26.9531C56.5918 25.6836 55.6641 24.8535 54.3457 24.8535Z" fill="#000000" fill-opacity="0.85"/>
  <path d="M71.1426 75C71.9727 75.8301 73.4375 75.8301 74.2676 75C75.1465 74.0723 75.1465 72.7539 74.2676 71.875L27.0508 24.6094C26.1719 23.7305 24.7559 23.7305 23.877 24.6094C22.998 25.4395 23.0469 26.9043 23.877 27.7344Z" fill="#000000" fill-opacity="0.85"/>
 </g>
</svg>
