<?xml version="1.0" encoding="UTF-8"?>
<!--Generator: Apple Native CoreSVG 232.5-->
<!DOCTYPE svg
PUBLIC "-//W3C//DTD SVG 1.1//EN"
       "http://www.w3.org/Graphics/SVG/1.1/DTD/svg11.dtd">
<svg version="1.1" xmlns="http://www.w3.org/2000/svg" xmlns:xlink="http://www.w3.org/1999/xlink" width="99.6094" height="99.6582">
 <g>
  <rect height="99.6582" opacity="0" width="99.6094" x="0" y="0"/>
  <path d="M99.6094 49.8535C99.6094 77.0996 77.0508 99.6582 49.8047 99.6582C22.6074 99.6582 0 77.0996 0 49.8535C0 22.6562 22.5586 0.0488281 49.7559 0.0488281C77.002 0.0488281 99.6094 22.6562 99.6094 49.8535ZM39.6973 27.0508C35.3027 27.0508 33.5449 27.9785 30.6641 31.9824L21.8262 43.9453C20.752 45.4102 20.3613 46.3867 20.3613 48.7305L20.3613 62.5488C20.3613 67.627 22.998 70.2637 28.2227 70.2637L71.4844 70.2637C76.7578 70.2637 79.3457 67.627 79.3457 62.5488L79.3457 48.7305C79.3457 46.3867 78.9551 45.4102 77.8809 43.9453L69.043 31.9824C66.1133 27.9785 64.4043 27.0508 60.0098 27.0508ZM64.1602 34.0332L72.9004 45.8984C73.2422 46.3379 73.0469 47.0703 72.2656 47.0703L57.8125 47.0703C56.4941 47.0703 55.9082 48.0957 55.9082 49.1211L55.9082 49.7559C55.9082 53.2227 53.5156 55.4199 49.8535 55.4199C46.1914 55.4199 43.9453 53.2227 43.9453 49.7559L43.9453 49.1211C43.9453 48.0957 43.2129 47.0703 41.8945 47.0703L27.4414 47.0703C26.6602 47.0703 26.5137 46.4355 26.8555 45.8984L35.5469 34.0332C36.5723 32.6172 37.6465 32.0801 39.4043 32.0801L60.3516 32.0801C62.1094 32.0801 63.1836 32.666 64.1602 34.0332Z" fill="#000000" fill-opacity="0.85"/>
 </g>
</svg>
