<?xml version="1.0" encoding="UTF-8"?>
<!--Generator: Apple Native CoreSVG 232.5-->
<!DOCTYPE svg
PUBLIC "-//W3C//DTD SVG 1.1//EN"
       "http://www.w3.org/Graphics/SVG/1.1/DTD/svg11.dtd">
<svg version="1.1" xmlns="http://www.w3.org/2000/svg" xmlns:xlink="http://www.w3.org/1999/xlink" width="115.137" height="83.4473">
 <g>
  <rect height="83.4473" opacity="0" width="115.137" x="0" y="0"/>
  <path d="M15.332 83.4473L99.8047 83.4473C110.059 83.4473 115.137 78.3691 115.137 68.3105L115.137 39.4043C115.137 35.0098 114.551 32.8125 112.354 30.127L95.5078 9.27734C89.7949 2.24609 87.2559 0.0976562 78.5645 0.0976562L36.5723 0.0976562C27.8809 0.0976562 25.3906 2.24609 19.6777 9.27734L2.7832 30.127C0.634766 32.8125 0 35.0098 0 39.4043L0 68.3105C0 78.418 5.12695 83.4473 15.332 83.4473ZM15.4297 75.5859C10.5469 75.5859 7.86133 72.998 7.86133 67.9199L7.86133 43.6035L38.8184 43.6035C39.9902 52.7344 47.6562 59.4727 57.5684 59.4727C67.4805 59.4727 75.1465 52.6855 76.3184 43.6035L107.275 43.6035L107.275 67.9199C107.275 72.998 104.541 75.5859 99.707 75.5859ZM57.5684 52.2461C50.6836 52.2461 46.2402 46.2402 46.2402 40.5762L46.2402 40.4297C46.2402 38.3789 45.0195 36.4746 42.4805 36.4746L10.3027 36.4746C8.69141 36.4746 8.34961 35.0586 9.17969 34.0332L27.2949 11.1816C29.6875 8.1543 32.4219 6.93359 35.9863 6.93359L79.1504 6.93359C82.7148 6.93359 85.4492 8.1543 87.8418 11.1816L106.006 34.0332C106.787 35.0586 106.494 36.4746 104.883 36.4746L72.6562 36.4746C70.1172 36.4746 68.9453 38.3789 68.9453 40.4297L68.9453 40.5762C68.9453 46.2402 64.502 52.2461 57.5684 52.2461ZM78.0762 14.1113L37.0605 14.1113C35.7422 14.1113 34.7168 15.1367 34.7168 16.4551C34.7168 17.7734 35.7422 18.7988 37.0605 18.7988L78.0762 18.7988C79.3945 18.7988 80.4199 17.7734 80.4199 16.4551C80.4199 15.1367 79.3945 14.1113 78.0762 14.1113ZM84.5703 25.1465L30.5664 25.1465C29.1992 25.1465 28.125 26.3672 28.125 27.6855C28.125 29.0039 29.1992 30.127 30.5664 30.127L84.5703 30.127C85.9375 30.127 87.0117 29.0039 87.0117 27.6855C87.0117 26.3672 85.9375 25.1465 84.5703 25.1465Z" fill="#000000" fill-opacity="0.85"/>
 </g>
</svg>
