<?xml version="1.0" encoding="UTF-8"?>
<!--Generator: Apple Native CoreSVG 232.5-->
<!DOCTYPE svg
PUBLIC "-//W3C//DTD SVG 1.1//EN"
       "http://www.w3.org/Graphics/SVG/1.1/DTD/svg11.dtd">
<svg version="1.1" xmlns="http://www.w3.org/2000/svg" xmlns:xlink="http://www.w3.org/1999/xlink" width="102.1" height="92.8223">
 <g>
  <rect height="92.8223" opacity="0" width="102.1" x="0" y="0"/>
  <path d="M0 79.0527C0 86.5723 5.17578 92.5293 13.4766 92.5293L88.623 92.5293C96.9238 92.5293 102.1 86.5723 102.1 79.0527C102.1 76.8066 101.514 74.5605 100.293 72.4609L62.6465 6.83594C60.1074 2.39258 55.6152 0 51.0254 0C46.4844 0 41.9922 2.39258 39.4531 6.83594L1.80664 72.4121C0.634766 74.5117 0 76.8066 0 79.0527ZM7.91016 79.0527C7.91016 78.1738 8.10547 77.1484 8.64258 76.1719L46.1914 10.5469C47.2656 8.64258 49.1211 7.8125 51.0254 7.8125L51.0254 84.8633L13.5742 84.8633C10.2051 84.8633 7.91016 82.0801 7.91016 79.0527Z" fill="#000000" fill-opacity="0.85"/>
 </g>
</svg>
