<?xml version="1.0" encoding="UTF-8"?>
<!--Generator: Apple Native CoreSVG 232.5-->
<!DOCTYPE svg
PUBLIC "-//W3C//DTD SVG 1.1//EN"
       "http://www.w3.org/Graphics/SVG/1.1/DTD/svg11.dtd">
<svg version="1.1" xmlns="http://www.w3.org/2000/svg" xmlns:xlink="http://www.w3.org/1999/xlink" width="99.6094" height="99.6582">
 <g>
  <rect height="99.6582" opacity="0" width="99.6094" x="0" y="0"/>
  <path d="M49.8047 99.6094C77.0508 99.6094 99.6094 77.002 99.6094 49.8047C99.6094 22.5586 77.002 0 49.7559 0C22.5586 0 0 22.5586 0 49.8047C0 77.002 22.6074 99.6094 49.8047 99.6094ZM49.8047 91.3086C26.7578 91.3086 8.34961 72.8516 8.34961 49.8047C8.34961 26.7578 26.709 8.30078 49.7559 8.30078C72.8027 8.30078 91.3086 26.7578 91.3086 49.8047C91.3086 72.8516 72.8516 91.3086 49.8047 91.3086Z" fill="#000000" fill-opacity="0.85"/>
  <path d="M25.1465 59.3262C21.9727 64.8438 24.4629 70.2148 30.7129 70.2148L68.9453 70.2148C75.1465 70.2148 77.6855 64.8438 74.4629 59.3262L55.957 27.1484C52.9297 21.875 46.7773 21.7285 43.6035 27.1973ZM31.543 61.9141L48.9746 31.4941C49.3652 30.7617 50.1953 30.8105 50.5859 31.4941L68.1152 61.9141C68.5547 62.6465 68.3594 63.4277 67.334 63.4277L32.2754 63.4277C31.2988 63.4277 31.0547 62.6465 31.543 61.9141Z" fill="#000000" fill-opacity="0.85"/>
 </g>
</svg>
