<?xml version="1.0" encoding="UTF-8"?>
<!--Generator: Apple Native CoreSVG 232.5-->
<!DOCTYPE svg
PUBLIC "-//W3C//DTD SVG 1.1//EN"
       "http://www.w3.org/Graphics/SVG/1.1/DTD/svg11.dtd">
<svg version="1.1" xmlns="http://www.w3.org/2000/svg" xmlns:xlink="http://www.w3.org/1999/xlink" width="62.207" height="101.904">
 <g>
  <rect height="101.904" opacity="0" width="62.207" x="0" y="0"/>
  <path d="M0 98.1445C0 100.195 1.61133 101.855 3.75977 101.855C33.0566 101.855 56.0059 81.9336 56.0059 50.9277C56.0059 37.2559 44.7266 25.9766 31.1035 25.9766C26.123 25.9766 21.4844 27.6367 17.8223 30.4199C24.9512 15.9668 40.1855 7.37305 58.4473 7.37305C60.5957 7.37305 62.207 5.71289 62.207 3.66211C62.207 1.61133 60.5957 0 58.4473 0C29.1504 0 6.25 19.873 6.25 50.9277C6.25 64.5508 17.5293 75.8301 31.1035 75.8301C36.1328 75.8301 40.7227 74.1699 44.3848 71.4355C37.2559 85.8887 21.9727 94.4824 3.75977 94.4824C1.61133 94.4824 0 96.0938 0 98.1445ZM13.6719 50.9277C13.6719 41.3574 21.582 33.4473 31.1035 33.4473C40.6738 33.4473 48.584 41.3574 48.584 50.9277C48.584 60.4492 40.6738 68.3594 31.1035 68.3594C21.582 68.3594 13.6719 60.4492 13.6719 50.9277ZM24.0234 50.9277C24.0234 54.7852 27.2461 58.0078 31.1035 58.0078C35.0098 58.0078 38.1836 54.7363 38.1836 50.9277C38.1836 47.0215 35.0098 43.8477 31.1035 43.8477C27.2461 43.8477 24.0234 47.0215 24.0234 50.9277Z" fill="#000000" fill-opacity="0.85"/>
 </g>
</svg>
