<?xml version="1.0" encoding="UTF-8"?>
<!--Generator: Apple Native CoreSVG 232.5-->
<!DOCTYPE svg
PUBLIC "-//W3C//DTD SVG 1.1//EN"
       "http://www.w3.org/Graphics/SVG/1.1/DTD/svg11.dtd">
<svg version="1.1" xmlns="http://www.w3.org/2000/svg" xmlns:xlink="http://www.w3.org/1999/xlink" width="174.859" height="130.846">
 <g>
  <rect height="130.846" opacity="0" width="174.859" x="0" y="0"/>
  <path d="M42.8248 95.4767L48.1959 92.4005C47.4635 91.6681 46.6334 90.5939 46.194 89.8126C42.1412 82.7814 44.5338 73.797 51.5162 69.7931C58.5475 65.7403 67.483 68.1818 71.5358 75.1153C71.9264 75.9943 72.4635 77.0196 72.7076 78.1915L114.553 53.9728C113.723 53.2403 112.942 52.3126 112.551 51.4337C108.499 44.5001 110.891 35.5157 117.825 31.463C124.807 27.4591 133.743 29.8028 137.796 36.8341C138.284 37.713 138.674 38.5919 138.919 40.0079L151.956 32.4396C157.571 29.1193 158.84 23.8458 155.667 18.2306L147.903 4.60753C145.315 0.115346 139.358-1.54481 133.743 1.67785L108.206 16.5704L103.714 10.4181C98.9772 3.97277 92.9225 2.80089 86.1354 6.75597L73.0494 14.2267C61.7213 20.7696 55.9596 26.4825 50.9791 35.7599L42.3854 52.0196L31.1061 61.0528C21.5846 68.5724 19.485 75.8966 23.9772 83.7579L28.4694 91.5216C31.7409 97.1857 37.2096 98.7482 42.8248 95.4767ZM63.8698 91.2286C68.8502 88.3966 70.4127 82.2443 67.6295 77.3614C64.7975 72.4786 58.6451 70.8673 53.8112 73.6505C48.9284 76.4825 47.2194 82.6349 50.0514 87.4689C52.8834 92.4005 58.9869 94.0607 63.8698 91.2286ZM130.227 52.9474C135.11 50.1153 136.819 43.9142 133.987 39.0802C131.106 34.1485 124.905 32.5372 120.071 35.3693C115.188 38.1036 113.528 44.3536 116.36 49.2364C119.143 54.1193 125.344 55.7306 130.227 52.9474Z" fill="#000000" fill-opacity="0.85"/>
  <path d="M22.0241 102.313L11.7701 84.4415C10.0612 81.5118 6.64319 82.2443 5.6178 85.1739L0.246711 100.213C-0.485711 102.313 0.442023 103.973 2.63929 104.363L18.3619 107.195C21.3893 107.83 23.733 105.242 22.0241 102.313ZM28.6159 126.434C29.7389 128.338 32.1803 128.973 33.9381 127.947L172.903 47.5763C174.71 46.5997 175.442 44.1583 174.319 42.3517C173.196 40.3985 170.755 39.8126 168.997 40.7892L30.0319 121.111C28.2252 122.186 27.5416 124.578 28.6159 126.434Z" fill="#000000" fill-opacity="0.85"/>
 </g>
</svg>
