<?xml version="1.0" encoding="UTF-8"?>
<!--Generator: Apple Native CoreSVG 232.5-->
<!DOCTYPE svg
PUBLIC "-//W3C//DTD SVG 1.1//EN"
       "http://www.w3.org/Graphics/SVG/1.1/DTD/svg11.dtd">
<svg version="1.1" xmlns="http://www.w3.org/2000/svg" xmlns:xlink="http://www.w3.org/1999/xlink" width="166.943" height="128.536">
 <g>
  <rect height="128.536" opacity="0" width="166.943" x="0" y="0"/>
  <path d="M34.4479 37.4858L39.819 40.562C40.0631 39.5366 40.6002 38.3647 41.0885 37.5346C45.1412 30.5034 54.0768 28.062 61.0592 32.1635C68.0905 36.2163 70.4342 45.1518 66.4303 52.0854C65.8932 52.9155 65.2584 53.8921 64.3795 54.6733L106.274 78.8432C106.518 77.769 106.909 76.5971 107.446 75.7671C111.45 68.8335 120.434 66.3921 127.368 70.4448C134.35 74.4487 136.792 83.3842 132.739 90.4155C132.251 91.2456 131.665 92.0268 130.542 92.9546L143.628 100.425C149.292 103.697 154.516 102.134 157.788 96.5678L165.698 83.0424C168.335 78.5503 166.772 72.5932 161.108 69.3217L135.473 54.6245L138.549 47.6421C141.821 40.3178 139.721 34.5073 132.934 30.5522L119.897 23.0327C108.618 16.4897 100.805 14.2924 90.2584 14.6831L71.899 15.3667L58.4225 10.0932C47.1432 5.64987 39.7701 7.45651 35.1803 15.3178L30.6881 23.0815C27.4166 28.7456 28.7838 34.2632 34.4479 37.4858ZM48.6569 53.5991C53.5885 56.4311 59.7408 54.771 62.524 49.8882C65.3561 45.0053 63.7447 38.853 58.8619 36.021C53.9791 33.1889 47.778 34.8491 44.9947 39.7319C42.1627 44.6147 43.774 50.7671 48.6569 53.5991ZM114.965 91.8803C119.848 94.7124 126.098 93.0522 128.881 88.1694C131.713 83.2866 130.053 77.0854 125.171 74.3022C120.337 71.4702 114.087 73.1303 111.255 78.0132C108.471 82.8471 110.131 89.0971 114.965 91.8803Z" fill="#000000" fill-opacity="0.85"/>
  <path d="M18.1881 22.8374L28.4908 5.06393C30.1998 2.08542 27.8072-0.502474 24.7799 0.0834637L9.05725 2.96432C6.90881 3.35495 5.98108 5.0151 6.7135 7.11471L12.0358 22.1049C13.0612 25.0835 16.4791 25.8159 18.1881 22.8374ZM0.561156 40.6108C-0.561891 42.5639 0.121702 44.9565 1.92834 46.0307L140.991 126.207C142.749 127.232 145.19 126.646 146.264 124.79C147.338 122.837 146.655 120.445 144.897 119.371L5.83459 39.1948C4.07678 38.1694 1.58655 38.8042 0.561156 40.6108Z" fill="#000000" fill-opacity="0.85"/>
 </g>
</svg>
