<?xml version="1.0" encoding="UTF-8"?>
<!--Generator: Apple Native CoreSVG 232.5-->
<!DOCTYPE svg
PUBLIC "-//W3C//DTD SVG 1.1//EN"
       "http://www.w3.org/Graphics/SVG/1.1/DTD/svg11.dtd">
<svg version="1.1" xmlns="http://www.w3.org/2000/svg" xmlns:xlink="http://www.w3.org/1999/xlink" width="142.188" height="107.373">
 <g>
  <rect height="107.373" opacity="0" width="142.188" x="0" y="0"/>
  <path d="M13.2812 93.75L23.9746 93.75L23.9746 85.8887L13.3789 85.8887C9.7168 85.8887 7.86133 84.0332 7.86133 80.3711L7.86133 16.6016C7.86133 12.9395 9.7168 11.0352 13.3789 11.0352L84.8145 11.0352C88.4277 11.0352 90.3809 12.9395 90.3809 16.6016L90.3809 88.2812L98.2422 83.9844L98.2422 16.4551C98.2422 7.76367 93.6523 3.17383 84.9609 3.17383L13.2812 3.17383C4.54102 3.17383 0 7.76367 0 16.4551L0 80.5176C0 89.209 4.54102 93.75 13.2812 93.75ZM93.9453 37.9883L110.742 37.9883C113.232 37.9883 114.99 38.4277 116.992 40.625L132.324 57.8613C133.643 59.3262 134.326 61.377 134.326 63.1348L134.326 80.3711C134.326 84.0332 132.422 85.8887 128.76 85.8887L120.898 85.8887L120.898 93.75L128.906 93.75C137.598 93.75 142.188 89.209 142.188 80.5176L142.188 63.2812C142.188 58.4961 141.406 56.25 138.721 53.2227L122.119 34.4727C119.238 31.25 116.016 30.127 111.23 30.127L93.9453 30.127ZM107.373 63.7207L128.662 63.7207C128.662 62.5488 128.223 61.9141 127.49 61.084L112.939 44.7266C111.865 43.6035 110.596 42.8711 109.229 42.8711L103.174 42.8711L103.174 59.5703C103.174 62.1582 104.785 63.7207 107.373 63.7207ZM36.2305 107.373C45.4102 107.373 52.8809 99.9023 52.8809 90.6738C52.8809 81.4941 45.4102 74.0234 36.2305 74.0234C27.002 74.0234 19.4824 81.4941 19.4824 90.6738C19.4824 99.9023 27.002 107.373 36.2305 107.373ZM36.2305 100.732C30.6641 100.732 26.123 96.2402 26.123 90.6738C26.123 85.1562 30.6641 80.6152 36.2305 80.6152C41.748 80.6152 46.2402 85.1562 46.2402 90.6738C46.2402 96.2402 41.748 100.732 36.2305 100.732ZM106.592 107.373C115.82 107.373 123.242 99.9023 123.242 90.6738C123.242 81.4941 115.82 74.0234 106.592 74.0234C97.3633 74.0234 89.8926 81.4941 89.8926 90.6738C89.8926 99.9023 97.3633 107.373 106.592 107.373ZM106.592 100.732C101.074 100.732 96.5332 96.2402 96.5332 90.6738C96.5332 85.1562 101.074 80.6152 106.592 80.6152C112.061 80.6152 116.602 85.1562 116.602 90.6738C116.602 96.2402 112.158 100.732 106.592 100.732ZM49.2188 93.75L93.75 93.75L93.75 85.8887L49.2188 85.8887Z" fill="#000000" fill-opacity="0.85"/>
 </g>
</svg>
