<?xml version="1.0" encoding="UTF-8"?>
<!--Generator: Apple Native CoreSVG 232.5-->
<!DOCTYPE svg
PUBLIC "-//W3C//DTD SVG 1.1//EN"
       "http://www.w3.org/Graphics/SVG/1.1/DTD/svg11.dtd">
<svg version="1.1" xmlns="http://www.w3.org/2000/svg" xmlns:xlink="http://www.w3.org/1999/xlink" width="142.188" height="104.248">
 <g>
  <rect height="104.248" opacity="0" width="142.188" x="0" y="0"/>
  <path d="M91.5527 77.2949L91.5527 14.8926C91.5527 6.20117 87.0117 1.61133 78.2715 1.61133L13.2812 1.61133C4.54102 1.61133 0 6.20117 0 14.8926L0 78.9551C0 87.6465 4.54102 92.1875 13.2812 92.1875L16.6016 92.1875C16.5039 91.5527 16.4551 90.8691 16.4551 90.1855C16.4551 79.2969 25.3418 70.4102 36.2305 70.4102C47.1191 70.4102 55.957 79.2969 55.957 90.1855C55.957 90.8691 55.9082 91.5527 55.8105 92.1875L86.9141 92.1875C86.8164 91.5039 86.7676 90.8203 86.7676 90.1367C86.7676 85.1562 88.4277 80.6152 91.5527 77.2949ZM98.2422 28.5645L98.2422 72.4609C100.586 71.1426 103.369 70.3613 106.299 70.3613C117.188 70.3613 126.27 79.248 126.27 90.1367C126.27 90.8203 126.221 91.5039 126.123 92.1875L129.102 92.1875C137.695 92.1875 142.188 87.5977 142.188 78.9551L142.188 61.7188C142.188 56.9336 141.406 54.6875 138.721 51.6602L122.119 32.9102C119.238 29.6875 116.016 28.5645 111.23 28.5645ZM110.889 59.7168C108.154 59.7168 106.445 58.0566 106.445 55.2734L106.445 37.5977L110.742 37.5977C112.988 37.5977 114.453 37.9883 116.357 40.0879L131.25 56.7871C132.031 57.666 132.568 58.5938 132.764 59.7168ZM36.2305 104.248C44.043 104.248 50.293 97.9492 50.293 90.1855C50.293 82.4219 43.9941 76.123 36.2305 76.123C28.4668 76.123 22.168 82.4219 22.168 90.1855C22.168 97.9004 28.4668 104.248 36.2305 104.248ZM106.494 104.248C114.307 104.248 120.557 97.9492 120.557 90.1367C120.557 82.373 114.258 76.0742 106.494 76.0742C98.7305 76.0742 92.4316 82.373 92.4316 90.1367C92.4316 97.9004 98.7305 104.248 106.494 104.248Z" fill="#000000" fill-opacity="0.85"/>
 </g>
</svg>
