<?xml version="1.0" encoding="UTF-8"?>
<!--Generator: Apple Native CoreSVG 232.5-->
<!DOCTYPE svg
PUBLIC "-//W3C//DTD SVG 1.1//EN"
       "http://www.w3.org/Graphics/SVG/1.1/DTD/svg11.dtd">
<svg version="1.1" xmlns="http://www.w3.org/2000/svg" xmlns:xlink="http://www.w3.org/1999/xlink" width="185.156" height="79.4434">
 <g>
  <rect height="79.4434" opacity="0" width="185.156" x="0" y="0"/>
  <path d="M63.3789 37.8906C56.543 37.8906 51.8555 35.498 47.6562 29.9805L34.5703 12.6465C31.7871 9.08203 29.7363 8.1543 24.3164 8.1543L12.3047 8.1543C10.1562 8.1543 8.39844 6.34766 8.39844 4.19922C8.39844 2.05078 10.1562 0.292969 12.3047 0.292969L24.3164 0.292969C31.7383 0.292969 36.5723 2.44141 40.6738 7.86133L53.9062 25.0977C56.9336 29.0039 58.7891 30.0293 63.3789 30.0293L74.7559 30.0293L74.7559 25.8789C74.7559 22.4121 77.7832 21.3867 80.3711 23.0957L92.5781 30.957C95.0195 32.5195 94.9707 35.4492 92.627 36.9629L80.3223 44.873C77.7832 46.5332 74.7559 45.5078 74.7559 42.0898L74.7559 37.8906ZM12.4512 69.1895L18.5547 69.1895C18.2129 67.6758 17.9688 66.2109 17.9688 64.5996C17.9688 54.1992 26.3672 45.8496 36.7188 45.8496C47.1191 45.8496 55.4688 54.1992 55.4688 64.5996C55.4688 66.2109 55.2734 67.7246 54.9316 69.1895L121.631 69.1895C121.24 67.6758 121.045 66.2109 121.045 64.5996C121.045 54.248 129.443 45.8496 139.795 45.8496C150.195 45.8496 158.545 54.1992 158.545 64.5996C158.545 66.2109 158.35 67.6758 157.959 69.1895L172.754 69.1895C180.518 69.1895 185.156 64.4043 185.156 56.4453L185.156 34.4727C185.156 28.2227 180.859 24.5117 173.633 24.5117L132.959 24.5117L131.787 14.5508C130.664 4.88281 125.244 0 115.625 0L95.8984 0C80.1758 0 70.5078 2.44141 59.668 9.27734L39.6973 21.7773L21.4844 24.5605C6.68945 26.8066 0 33.1543 0 44.6289L0 56.4453C0 64.4043 4.6875 69.1895 12.4512 69.1895ZM36.7188 77.6367C44.043 77.6367 49.8047 71.875 49.8047 64.5996C49.8047 57.3242 43.9941 51.5137 36.7188 51.5137C29.4922 51.5137 23.6816 57.3242 23.6816 64.5996C23.6816 71.8262 29.4922 77.6367 36.7188 77.6367ZM139.795 77.6367C147.07 77.6367 152.881 71.8262 152.881 64.5996C152.881 57.3242 147.07 51.5137 139.795 51.5137C132.568 51.5137 126.709 57.373 126.709 64.5996C126.709 71.8262 132.52 77.6367 139.795 77.6367Z" fill="#000000" fill-opacity="0.85"/>
 </g>
</svg>
