<?xml version="1.0" encoding="UTF-8"?>
<!--Generator: Apple Native CoreSVG 232.5-->
<!DOCTYPE svg
PUBLIC "-//W3C//DTD SVG 1.1//EN"
       "http://www.w3.org/Graphics/SVG/1.1/DTD/svg11.dtd">
<svg version="1.1" xmlns="http://www.w3.org/2000/svg" xmlns:xlink="http://www.w3.org/1999/xlink" width="167.645" height="128.536">
 <g>
  <rect height="128.536" opacity="0" width="167.645" x="0" y="0"/>
  <path d="M34.4817 37.5346L43.9544 43.0522L47.7141 36.5092L38.5344 31.2358C36.5813 30.0639 36.2395 28.3549 37.5579 26.06L41.513 19.2241C44.1009 14.7319 48.2024 13.9995 55.5755 16.9292L70.6145 22.7397L90.4876 22.0561C99.6184 21.7632 106.161 23.6186 116.122 29.3803L128.915 36.7534C132.284 38.7065 133.163 41.3432 131.65 44.7612L126.669 56.0405L158.115 74.2046C159.97 75.2788 160.458 77.0854 159.433 78.8432L151.865 91.978C150.497 94.2729 148.935 94.9565 146.982 93.7846L130.722 84.4096L126.962 90.9038L143.515 100.425C149.228 103.746 154.55 102.134 157.919 96.3725L165.927 82.603C169.199 76.9878 167.636 71.0307 161.972 67.7592L136.191 52.9643L138.534 47.6421C141.806 40.3178 139.755 34.5073 132.919 30.5034L119.833 22.9839C108.554 16.4409 100.741 14.2436 90.2923 14.6342L71.9329 15.269L58.4563 9.99557C47.177 5.60104 39.804 7.40768 35.0676 15.5132L30.7219 22.9839C27.4016 28.6967 28.8176 34.2143 34.4817 37.5346ZM58.9446 51.5483L110.361 81.2358L114.316 74.4975L62.8509 44.7124ZM47.6653 54.8686C54.3548 58.726 62.5579 56.4799 66.3665 49.937C70.2239 43.2475 67.9778 35.0444 61.386 31.187C54.6966 27.4272 46.5423 29.5268 42.6848 36.2163C38.8762 42.8081 41.0735 51.06 47.6653 54.8686ZM51.6692 48.0815C48.7884 46.4702 47.8118 43.0034 49.5208 40.1714C51.0833 37.3393 54.5989 36.3628 57.4798 38.0229C60.3606 39.6342 61.2395 43.1499 59.5794 45.9819C57.968 48.8628 54.5012 49.7905 51.6692 48.0815ZM112.997 92.6128C119.638 96.4214 127.841 94.2241 131.747 87.6323C135.507 80.9428 133.261 72.7397 126.669 68.9311C120.029 65.1225 111.825 67.271 107.968 73.9604C104.208 80.5034 106.357 88.7553 112.997 92.6128ZM116.952 85.7768C114.12 84.1655 113.144 80.6987 114.804 77.8667C116.415 74.9858 119.882 74.0581 122.812 75.7182C125.644 77.3296 126.523 80.8452 124.911 83.6772C123.251 86.5581 119.784 87.4858 116.952 85.7768Z" fill="#000000" fill-opacity="0.85"/>
  <path d="M0.546166 40.6108C-0.576881 42.5639 0.106712 44.9565 1.91335 46.0307L140.976 126.207C142.734 127.232 145.175 126.646 146.249 124.79C147.324 122.837 146.64 120.445 144.882 119.371L5.8196 39.1948C4.06179 38.1694 1.57156 38.8042 0.546166 40.6108ZM18.1731 22.8374L28.4759 5.06393C30.1848 2.08542 27.7923-0.502474 24.7649 0.0834637L9.04226 2.96432C6.89382 3.35495 5.96609 5.0151 6.69851 7.11471L12.0208 22.1049C13.0462 25.0835 16.4641 25.8159 18.1731 22.8374Z" fill="#000000" fill-opacity="0.85"/>
 </g>
</svg>
