<?xml version="1.0" encoding="UTF-8"?>
<!--Generator: Apple Native CoreSVG 232.5-->
<!DOCTYPE svg
PUBLIC "-//W3C//DTD SVG 1.1//EN"
       "http://www.w3.org/Graphics/SVG/1.1/DTD/svg11.dtd">
<svg version="1.1" xmlns="http://www.w3.org/2000/svg" xmlns:xlink="http://www.w3.org/1999/xlink" width="185.156" height="79.4434">
 <g>
  <rect height="79.4434" opacity="0" width="185.156" x="0" y="0"/>
  <path d="M3.61328 7.12891L17.0898 7.12891C18.8965 7.12891 20.3125 7.56836 21.4844 8.74023L38.8184 26.0254L45.459 22.3633L27.1973 4.10156C24.3652 1.26953 20.6543 0.0976562 16.2598 0.0976562L3.61328 0.0976562C1.36719 0.0976562 0 1.46484 0 3.56445C0 5.66406 1.36719 7.12891 3.61328 7.12891ZM12.4512 68.2129L25.5371 68.2129L25.5371 60.3516L12.8906 60.3516C9.7168 60.3516 7.86133 58.2031 7.86133 54.4922L7.86133 44.6289C7.86133 37.6465 12.3047 33.9355 22.5098 32.373L42.3828 29.3457L63.8672 15.9668C73.4863 10.0098 81.8848 7.86133 95.8984 7.86133L115.186 7.86133C120.41 7.86133 123.34 10.498 123.926 15.625L125.537 30.4199L170.703 30.4199C176.27 30.4199 177.295 31.3965 177.295 35.4492L177.295 54.4922C177.295 58.2031 175.439 60.3516 172.314 60.3516L152.832 60.3516L152.832 68.2129L172.754 68.2129C180.518 68.2129 185.156 63.4277 185.156 55.4688L185.156 35.4492C185.156 27.1484 179.785 22.5586 170.703 22.5586L132.715 22.5586L131.787 14.5508C130.664 4.88281 125.244 0 115.625 0L95.8984 0C80.1758 0 70.5078 2.44141 59.668 9.27734L39.6973 21.7773L21.4844 24.5605C6.68945 26.8066 0 33.1543 0 44.6289L0 55.4688C0 63.4277 4.6875 68.2129 12.4512 68.2129ZM48.4375 68.2129L128.32 68.2129L128.32 60.3516L48.4375 60.3516ZM36.7188 79.3457C46.0938 79.3457 53.418 72.0215 53.418 62.6465C53.418 53.2715 46.0938 45.9473 36.7188 45.9473C27.3438 45.9473 20.0195 53.2715 20.0195 62.6465C20.0195 72.0215 27.3438 79.3457 36.7188 79.3457ZM36.7188 71.4844C31.7383 71.4844 27.8809 67.627 27.8809 62.6465C27.8809 57.666 31.7383 53.8086 36.7188 53.8086C41.6992 53.8086 45.5566 57.666 45.5566 62.6465C45.5566 67.627 41.6992 71.4844 36.7188 71.4844ZM139.795 79.3457C149.17 79.3457 156.494 72.0215 156.494 62.6465C156.494 53.2715 149.17 45.9473 139.795 45.9473C130.42 45.9473 123.096 53.2715 123.096 62.6465C123.096 72.0215 130.42 79.3457 139.795 79.3457ZM139.795 71.4844C134.814 71.4844 130.957 67.627 130.957 62.6465C130.957 57.666 134.814 53.8086 139.795 53.8086C144.775 53.8086 148.633 57.666 148.633 62.6465C148.633 67.627 144.775 71.4844 139.795 71.4844Z" fill="#000000" fill-opacity="0.85"/>
 </g>
</svg>
