<?xml version="1.0" encoding="UTF-8"?>
<!--Generator: Apple Native CoreSVG 232.5-->
<!DOCTYPE svg
PUBLIC "-//W3C//DTD SVG 1.1//EN"
       "http://www.w3.org/Graphics/SVG/1.1/DTD/svg11.dtd">
<svg version="1.1" xmlns="http://www.w3.org/2000/svg" xmlns:xlink="http://www.w3.org/1999/xlink" width="174.886" height="133.773">
 <g>
  <rect height="133.773" opacity="0" width="174.886" x="0" y="0"/>
  <path d="M42.8871 96.9402L52.4086 91.4715L48.6489 85.0262L39.4692 90.2996C37.5161 91.4226 35.8559 90.8367 34.5375 88.5418L30.5825 81.7058C27.9946 77.1648 29.4106 73.3074 35.5629 68.3758L48.1606 58.2683L57.4868 40.739C61.7836 32.6336 66.6664 27.8972 76.6762 22.1844L89.4203 14.7625C92.7895 12.8094 95.5239 13.3953 97.77 16.4226L104.997 26.3836L136.442 8.21951C138.346 7.14529 140.153 7.63357 141.129 9.39139L148.747 22.5262C150.016 24.8211 149.821 26.5301 147.868 27.7019L131.608 37.0769L135.368 43.5222L151.92 33.9519C157.633 30.6804 158.903 25.2605 155.582 19.4988L147.672 5.68045C144.45 0.016386 138.493-1.59494 132.829 1.67654L107.145 16.5691L103.678 11.8816C98.9907 5.38748 92.936 4.26443 86.0512 8.21951L73.0141 15.739C61.686 22.282 55.8754 27.8972 50.9438 37.1746L42.3989 53.3855L31.0707 62.4187C21.5493 69.9871 19.4496 77.3113 24.1371 85.4656L28.4828 92.9363C31.7055 98.6492 37.1743 100.212 42.8871 96.9402ZM67.2524 82.7801L118.717 53.0437L114.811 46.3054L63.3461 75.9929ZM64.518 94.2547C71.2075 90.2996 73.3559 82.0965 69.5961 75.5047C65.7387 68.8152 57.4868 66.6668 50.895 70.4754C44.2543 74.3816 42.0082 82.5359 45.8657 89.1765C49.6743 95.7683 57.9262 97.9656 64.518 94.2547ZM60.6606 87.3211C57.7797 89.0301 54.3129 88.1512 52.7016 85.2703C51.0414 82.4383 51.9203 78.9226 54.85 77.2625C57.6332 75.6023 61.1489 76.5789 62.7602 79.4109C64.4692 82.2918 63.5414 85.7586 60.6606 87.3211ZM129.899 56.5105C136.491 52.6531 138.688 44.4012 134.879 37.7605C131.022 31.1687 122.77 28.9715 116.178 32.7801C109.538 36.6863 107.34 44.8406 111.198 51.4812C115.006 58.0242 123.161 60.3191 129.899 56.5105ZM125.944 49.6258C123.112 51.2859 119.596 50.407 117.936 47.575C116.325 44.6941 117.204 41.2273 120.133 39.5183C123.014 37.907 126.481 38.9324 128.043 41.7156C129.752 44.5965 128.825 48.0633 125.944 49.6258Z" fill="#000000" fill-opacity="0.85"/>
  <path d="M28.5805 127.897C29.7524 129.85 32.145 130.387 34.0004 129.411L172.916 49.0887C174.723 48.0144 175.407 45.6707 174.381 43.8152C173.209 41.8621 170.768 41.2762 168.961 42.2527L30.0453 122.624C28.2387 123.649 27.5551 126.042 28.5805 127.897ZM22.0375 103.727L11.7836 85.9539C10.0746 82.9754 6.60785 83.7078 5.63128 86.6375L0.260191 101.725C-0.521059 103.727 0.504331 105.387 2.7016 105.827L18.3266 108.708C21.4028 109.294 23.7465 106.657 22.0375 103.727Z" fill="#000000" fill-opacity="0.85"/>
 </g>
</svg>
