<?xml version="1.0" encoding="UTF-8"?>
<!--Generator: Apple Native CoreSVG 232.5-->
<!DOCTYPE svg
PUBLIC "-//W3C//DTD SVG 1.1//EN"
       "http://www.w3.org/Graphics/SVG/1.1/DTD/svg11.dtd">
<svg version="1.1" xmlns="http://www.w3.org/2000/svg" xmlns:xlink="http://www.w3.org/1999/xlink" width="99.6094" height="99.6582">
 <g>
  <rect height="99.6582" opacity="0" width="99.6094" x="0" y="0"/>
  <path d="M49.8047 99.6094C77.0508 99.6094 99.6094 77.002 99.6094 49.8047C99.6094 22.5586 77.002 0 49.7559 0C22.5586 0 0 22.5586 0 49.8047C0 77.002 22.6074 99.6094 49.8047 99.6094ZM49.8047 91.3086C26.7578 91.3086 8.34961 72.8516 8.34961 49.8047C8.34961 26.7578 26.709 8.30078 49.7559 8.30078C72.8027 8.30078 91.3086 26.7578 91.3086 49.8047C91.3086 72.8516 72.8516 91.3086 49.8047 91.3086Z" fill="#000000" fill-opacity="0.85"/>
  <path d="M37.793 75.7324L61.5234 75.7324C65.7715 75.7324 67.9199 73.6816 67.9688 69.4336L68.2617 46.4844L74.0234 47.7539C76.123 48.2422 77.5879 47.3633 78.125 45.166L80.2246 36.9629C80.7129 34.7656 79.8828 33.2031 77.832 32.3242L61.377 25.293C60.4004 24.8535 59.6191 24.9023 58.7402 25.293C55.6641 26.7578 53.125 27.5391 49.6582 27.5391C46.1914 27.5391 43.6035 26.7578 40.5762 25.293C39.7461 24.9023 38.916 24.8535 37.9395 25.293L21.4844 32.3242C19.4336 33.2031 18.5547 34.7656 19.1406 36.9629L21.2402 45.166C21.7285 47.3633 23.1445 48.2422 25.2441 47.7539L31.0059 46.4844L31.3477 69.4336C31.3965 73.6816 33.4961 75.7324 37.793 75.7324ZM49.6582 34.5215C45.9961 34.5215 43.2129 32.8613 42.0898 29.7852C44.3848 30.6152 47.0215 31.0059 49.6582 31.0059C52.2949 31.0059 54.9316 30.6152 57.2266 29.7852C56.0547 32.8125 53.418 34.5215 49.6582 34.5215Z" fill="#000000" fill-opacity="0.85"/>
 </g>
</svg>
