<?xml version="1.0" encoding="UTF-8"?>
<!--Generator: Apple Native CoreSVG 232.5-->
<!DOCTYPE svg
PUBLIC "-//W3C//DTD SVG 1.1//EN"
       "http://www.w3.org/Graphics/SVG/1.1/DTD/svg11.dtd">
<svg version="1.1" xmlns="http://www.w3.org/2000/svg" xmlns:xlink="http://www.w3.org/1999/xlink" width="99.6094" height="99.6582">
 <g>
  <rect height="99.6582" opacity="0" width="99.6094" x="0" y="0"/>
  <path d="M99.6094 49.8047C99.6094 77.002 77.0508 99.6094 49.8047 99.6094C22.6074 99.6094 0 77.002 0 49.8047C0 22.5586 22.5586 0 49.7559 0C77.002 0 99.6094 22.5586 99.6094 49.8047ZM59.0332 24.5117C55.9082 26.0254 53.2227 26.8066 49.6582 26.8066C46.0938 26.8066 43.457 26.0254 40.2832 24.5117C39.4531 24.1211 38.5742 24.0723 37.5977 24.5117L20.6543 31.7383C18.5059 32.666 17.627 34.2773 18.2129 36.5234L20.3613 45.0195C20.8496 47.2656 22.3633 48.1934 24.5605 47.7051L30.4688 46.3867L30.7617 70.0195C30.8105 74.4141 33.0566 76.5137 37.4512 76.5137L61.8652 76.5137C66.3086 76.5137 68.5059 74.4141 68.5547 70.0195L68.8965 46.3867L74.8047 47.7051C77.002 48.1934 78.4668 47.2656 79.0039 45.0195L81.1523 36.5234C81.7383 34.2773 80.8105 32.666 78.7109 31.7383L61.7188 24.5117C60.791 24.0723 59.9121 24.1211 59.0332 24.5117ZM49.6582 34.0332C45.8984 34.0332 43.0664 32.3242 41.8457 29.1504C44.2383 30.0293 46.9238 30.4199 49.6582 30.4199C52.3926 30.4199 55.0781 30.0293 57.4707 29.1504C56.2988 32.2754 53.5156 34.0332 49.6582 34.0332Z" fill="#000000" fill-opacity="0.85"/>
 </g>
</svg>
