<?xml version="1.0" encoding="UTF-8"?>
<!--Generator: Apple Native CoreSVG 232.5-->
<!DOCTYPE svg
PUBLIC "-//W3C//DTD SVG 1.1//EN"
       "http://www.w3.org/Graphics/SVG/1.1/DTD/svg11.dtd">
<svg version="1.1" xmlns="http://www.w3.org/2000/svg" xmlns:xlink="http://www.w3.org/1999/xlink" width="99.6094" height="99.6582">
 <g>
  <rect height="99.6582" opacity="0" width="99.6094" x="0" y="0"/>
  <path d="M49.8047 99.6094C77.0508 99.6094 99.6094 77.002 99.6094 49.8047C99.6094 22.5586 77.002 0 49.7559 0C22.5586 0 0 22.5586 0 49.8047C0 77.002 22.6074 99.6094 49.8047 99.6094ZM49.8047 91.3086C26.7578 91.3086 8.34961 72.8516 8.34961 49.8047C8.34961 26.7578 26.709 8.30078 49.7559 8.30078C72.8027 8.30078 91.3086 26.7578 91.3086 49.8047C91.3086 72.8516 72.8516 91.3086 49.8047 91.3086Z" fill="#000000" fill-opacity="0.85"/>
  <path d="M49.7559 73.9258C51.6113 73.9258 52.9297 72.6562 52.9297 70.6543L52.9297 59.7168L61.2305 56.0059C62.3535 55.4688 62.8906 54.7363 62.8906 53.6621C62.8906 52.2949 61.9141 51.3184 60.5469 51.3184C60.1074 51.3184 59.668 51.4648 59.2773 51.6113L52.9297 54.541L52.9297 49.9023L61.2305 46.1426C62.3535 45.6543 62.8906 44.9219 62.8906 43.8477C62.8906 42.4805 61.9629 41.4551 60.5469 41.4551C60.1562 41.4551 59.7168 41.6016 59.3262 41.748L52.9297 44.7266L52.9297 33.3008L64.5508 33.3008C66.3574 33.3008 67.627 32.0801 67.627 30.3223C67.627 28.5645 66.3574 27.3926 64.5508 27.3926L34.9121 27.3926C33.1055 27.3926 31.8359 28.5645 31.8359 30.3223C31.8359 32.0801 33.1055 33.3008 34.9121 33.3008L46.5332 33.3008L46.5332 47.3633L38.3301 51.0254C37.1582 51.6113 36.6699 52.2949 36.6699 53.3203C36.6699 54.6875 37.5977 55.7129 39.0137 55.7129C39.4043 55.7129 39.8438 55.5664 40.2344 55.4199L46.5332 52.4902L46.5332 57.1777L38.3301 60.8887C37.1582 61.4258 36.6699 62.1094 36.6699 63.1836C36.6699 64.5508 37.5977 65.5273 39.0137 65.5273C39.4043 65.5273 39.8438 65.4297 40.2344 65.2344L46.5332 62.3535L46.5332 70.6543C46.5332 72.6562 47.8516 73.9258 49.7559 73.9258Z" fill="#000000" fill-opacity="0.85"/>
 </g>
</svg>
