<?xml version="1.0" encoding="UTF-8"?>
<!--Generator: Apple Native CoreSVG 232.5-->
<!DOCTYPE svg
PUBLIC "-//W3C//DTD SVG 1.1//EN"
       "http://www.w3.org/Graphics/SVG/1.1/DTD/svg11.dtd">
<svg version="1.1" xmlns="http://www.w3.org/2000/svg" xmlns:xlink="http://www.w3.org/1999/xlink" width="89.8926" height="89.9902">
 <g>
  <rect height="89.9902" opacity="0" width="89.8926" x="0" y="0"/>
  <path d="M89.8926 15.2344L89.8926 74.8535C89.8926 84.9121 84.8145 89.9902 74.5605 89.9902L15.332 89.9902C5.12695 89.9902 0 84.9609 0 74.8535L0 15.2344C0 5.12695 5.12695 0.0976562 15.332 0.0976562L74.5605 0.0976562C84.8145 0.0976562 89.8926 5.17578 89.8926 15.2344ZM29.6387 21.875C27.7832 21.875 26.4648 23.0957 26.4648 24.9023C26.4648 26.709 27.7832 27.9785 29.6387 27.9785L41.6504 27.9785L41.6504 42.4805L33.1543 46.2402C31.9824 46.875 31.4453 47.5586 31.4453 48.6328C31.4453 50.0488 32.4219 51.123 33.8867 51.123C34.2773 51.123 34.7656 50.9766 35.2051 50.7812L41.6504 47.8027L41.6504 52.5879L33.1543 56.4453C31.9824 56.9824 31.4453 57.7148 31.4453 58.7891C31.4453 60.2051 32.4219 61.2305 33.8867 61.2305C34.2773 61.2305 34.7656 61.1328 35.2051 60.9375L41.6504 57.959L41.6504 66.5039C41.6504 68.5547 43.0176 69.873 44.9707 69.873C46.875 69.873 48.2422 68.5547 48.2422 66.5039L48.2422 55.2246L56.8359 51.416C57.959 50.8301 58.5449 50.0977 58.5449 48.9746C58.5449 47.5586 57.5684 46.5332 56.1523 46.5332C55.7129 46.5332 55.2246 46.6797 54.7852 46.875L48.2422 49.8535L48.2422 45.1172L56.8359 41.2109C57.959 40.7227 58.5449 39.9414 58.5449 38.8672C58.5449 37.4512 57.5684 36.377 56.1035 36.377C55.7129 36.377 55.3223 36.5234 54.834 36.6699L48.2422 39.7461L48.2422 27.9785L60.2539 27.9785C62.1094 27.9785 63.4277 26.709 63.4277 24.9023C63.4277 23.0957 62.1094 21.875 60.2539 21.875Z" fill="#000000" fill-opacity="0.85"/>
 </g>
</svg>
