<?xml version="1.0" encoding="UTF-8"?>
<!--Generator: Apple Native CoreSVG 232.5-->
<!DOCTYPE svg
PUBLIC "-//W3C//DTD SVG 1.1//EN"
       "http://www.w3.org/Graphics/SVG/1.1/DTD/svg11.dtd">
<svg version="1.1" xmlns="http://www.w3.org/2000/svg" xmlns:xlink="http://www.w3.org/1999/xlink" width="67.1875" height="91.0645">
 <g>
  <rect height="91.0645" opacity="0" width="67.1875" x="0" y="0"/>
  <path d="M0 6.49414C0 9.0332 1.9043 10.6934 4.44336 10.6934L28.9062 10.6934L28.9062 86.4258C28.9062 89.0137 31.0059 91.0645 33.5938 91.0645C36.1816 91.0645 38.2324 89.0137 38.2324 86.4258L38.2324 10.6934L62.7441 10.6934C65.2344 10.6934 67.1875 9.0332 67.1875 6.49414C67.1875 3.95508 65.2344 2.29492 62.7441 2.29492L4.44336 2.29492C1.9043 2.29492 0 3.95508 0 6.49414ZM12.6465 47.6562C8.98438 49.1699 11.3281 55.0293 15.2344 53.4668L54.541 37.1582C57.9102 35.791 56.25 29.5898 51.6113 31.543ZM12.6465 66.8457C8.98438 68.3594 11.3281 74.2676 15.2344 72.7051L54.541 56.3477C57.9102 54.9805 56.25 48.8281 51.6113 50.7324Z" fill="#000000" fill-opacity="0.85"/>
 </g>
</svg>
