<?xml version="1.0" encoding="UTF-8"?>
<!--Generator: Apple Native CoreSVG 232.5-->
<!DOCTYPE svg
PUBLIC "-//W3C//DTD SVG 1.1//EN"
       "http://www.w3.org/Graphics/SVG/1.1/DTD/svg11.dtd">
<svg version="1.1" xmlns="http://www.w3.org/2000/svg" xmlns:xlink="http://www.w3.org/1999/xlink" width="109.095" height="99.6582">
 <g>
  <rect height="99.6582" opacity="0" width="109.095" x="0" y="0"/>
  <path d="M59.2839 99.6094C86.4812 99.6094 109.089 77.002 109.089 49.8047C109.089 22.5586 86.4812 0 59.2839 0C32.0378 0 9.47924 22.5098 9.47924 49.7559L17.78 49.7559C17.78 26.709 36.2371 8.34961 59.2839 8.34961C82.3308 8.34961 100.788 26.7578 100.788 49.8047C100.788 72.8516 82.3308 91.4062 59.2839 91.3086C45.3679 91.2598 33.1609 84.5215 25.6902 74.1211C24.1765 72.1191 21.8816 71.4844 19.8308 72.7051C17.8777 73.9258 17.3406 76.6113 19.0007 78.7598C28.2781 91.2109 42.8289 99.6094 59.2839 99.6094ZM3.47339 40.3809C-0.04224 40.3809-0.921146 42.7734 0.983151 45.5078L11.9207 61.0352C13.532 63.2812 15.8757 63.2324 17.4382 61.0352L28.3757 45.459C30.2312 42.7734 29.3523 40.3809 25.8855 40.3809Z" fill="#000000" fill-opacity="0.85"/>
  <path d="M59.2839 73.9258C61.1394 73.9258 62.4089 72.6562 62.4089 70.6543L62.4089 59.7168L70.7097 56.0059C71.8328 55.4688 72.3699 54.7363 72.3699 53.6621C72.3699 52.2949 71.4421 51.3184 70.0749 51.3184C69.6355 51.3184 69.196 51.4648 68.8054 51.6113L62.4089 54.541L62.4089 49.9023L70.7097 46.1426C71.8328 45.6543 72.3699 44.9219 72.3699 43.8477C72.3699 42.4805 71.4421 41.4551 70.0749 41.4551C69.6843 41.4551 69.2449 41.6016 68.8542 41.748L62.4089 44.7266L62.4089 33.3008L74.0789 33.3008C75.8367 33.3008 77.1062 32.0801 77.1062 30.3223C77.1062 28.5645 75.8367 27.3926 74.0789 27.3926L44.4402 27.3926C42.6335 27.3926 41.364 28.5645 41.364 30.3223C41.364 32.0801 42.6335 33.3008 44.4402 33.3008L56.0613 33.3008L56.0613 47.3633L47.8582 51.0254C46.6863 51.6113 46.198 52.2949 46.198 53.3203C46.198 54.6875 47.1257 55.7129 48.4929 55.7129C48.9324 55.7129 49.3718 55.5664 49.7624 55.4199L56.0613 52.4902L56.0613 57.1777L47.8582 60.8887C46.6863 61.4258 46.198 62.1094 46.198 63.1836C46.198 64.5508 47.1257 65.5273 48.4929 65.5273C48.9324 65.5273 49.3718 65.4297 49.7624 65.2344L56.0613 62.3535L56.0613 70.6543C56.0613 72.6562 57.3796 73.9258 59.2839 73.9258Z" fill="#000000" fill-opacity="0.85"/>
 </g>
</svg>
