<?xml version="1.0" encoding="UTF-8"?>
<!--Generator: Apple Native CoreSVG 232.5-->
<!DOCTYPE svg
PUBLIC "-//W3C//DTD SVG 1.1//EN"
       "http://www.w3.org/Graphics/SVG/1.1/DTD/svg11.dtd">
<svg version="1.1" xmlns="http://www.w3.org/2000/svg" xmlns:xlink="http://www.w3.org/1999/xlink" width="89.8926" height="89.9902">
 <g>
  <rect height="89.9902" opacity="0" width="89.8926" x="0" y="0"/>
  <path d="M15.332 89.9902L74.5605 89.9902C84.8145 89.9902 89.8926 84.9121 89.8926 74.8535L89.8926 15.2344C89.8926 5.17578 84.8145 0.0976562 74.5605 0.0976562L15.332 0.0976562C5.12695 0.0976562 0 5.12695 0 15.2344L0 74.8535C0 84.9609 5.12695 89.9902 15.332 89.9902ZM15.4297 82.1289C10.5469 82.1289 7.86133 79.541 7.86133 74.4629L7.86133 15.625C7.86133 10.5469 10.5469 7.95898 15.4297 7.95898L74.4629 7.95898C79.2969 7.95898 82.0312 10.5469 82.0312 15.625L82.0312 74.4629C82.0312 79.541 79.2969 82.1289 74.4629 82.1289Z" fill="#000000" fill-opacity="0.85"/>
  <path d="M44.9707 69.0918C46.8262 69.0918 48.1445 67.8223 48.1445 65.8203L48.1445 54.8828L56.4453 51.1719C57.5684 50.6348 58.1055 49.9023 58.1055 48.8281C58.1055 47.4609 57.1777 46.4844 55.8105 46.4844C55.3711 46.4844 54.8828 46.6309 54.4922 46.7773L48.1445 49.707L48.1445 45.0684L56.4453 41.3086C57.5684 40.8203 58.1055 40.0879 58.1055 39.0137C58.1055 37.6465 57.1777 36.6211 55.7617 36.6211C55.3711 36.6211 54.9805 36.7676 54.541 36.9141L48.1445 39.8926L48.1445 28.4668L59.7656 28.4668C61.5723 28.4668 62.8418 27.2461 62.8418 25.4883C62.8418 23.7305 61.5723 22.5586 59.7656 22.5586L30.127 22.5586C28.3203 22.5586 27.0508 23.7305 27.0508 25.4883C27.0508 27.2461 28.3203 28.4668 30.127 28.4668L41.748 28.4668L41.748 42.5293L33.5449 46.1914C32.373 46.7773 31.8848 47.4609 31.8848 48.4863C31.8848 49.8535 32.8125 50.8789 34.2285 50.8789C34.6191 50.8789 35.0586 50.7324 35.498 50.5859L41.748 47.6562L41.748 52.3438L33.5449 56.0547C32.373 56.5918 31.8848 57.2754 31.8848 58.3496C31.8848 59.7168 32.8125 60.6934 34.2285 60.6934C34.6191 60.6934 35.0586 60.5957 35.498 60.4004L41.748 57.5195L41.748 65.8203C41.748 67.8223 43.0664 69.0918 44.9707 69.0918Z" fill="#000000" fill-opacity="0.85"/>
 </g>
</svg>
