<?xml version="1.0" encoding="UTF-8"?>
<!--Generator: Apple Native CoreSVG 232.5-->
<!DOCTYPE svg
PUBLIC "-//W3C//DTD SVG 1.1//EN"
       "http://www.w3.org/Graphics/SVG/1.1/DTD/svg11.dtd">
<svg version="1.1" xmlns="http://www.w3.org/2000/svg" xmlns:xlink="http://www.w3.org/1999/xlink" width="103.052" height="103.467">
 <g>
  <rect height="103.467" opacity="0" width="103.052" x="0" y="0"/>
  <path d="M26.5749 51.3184L26.5749 69.8242L7.19018 89.2578L14.1726 96.1914L33.2156 77.1973L52.4538 77.1484C55.5788 77.1484 58.8992 76.0254 61.1941 73.7793L101.624 33.9355C103.577 31.9824 103.479 28.8574 101.624 26.9531C99.7195 25 96.5456 25 94.6413 26.9531L55.7742 65.8691C54.3581 67.2363 52.6492 68.0664 50.6472 68.0664L37.0242 68.0664L36.2917 67.1875L36.2917 52.5391C36.2917 50.5371 37.073 48.7793 38.4402 47.4121L76.8191 9.13086C78.7234 7.17773 78.6746 4.05273 76.8191 2.09961C74.9148 0.195312 71.741 0.146484 69.8367 2.14844L29.9929 42.5781C27.6003 45.0195 26.6238 48.1445 26.5749 51.3184ZM9.1433 103.467C14.2214 103.467 18.323 99.3164 18.323 94.2871C18.323 89.209 14.2214 85.0586 9.1433 85.1074C4.114 85.1074 0.0124417 89.209 0.0124417 94.2871C0.0124417 99.3164 4.114 103.467 9.1433 103.467Z" fill="#000000" fill-opacity="0.85"/>
 </g>
</svg>
