<?xml version="1.0" encoding="UTF-8"?>
<!--Generator: Apple Native CoreSVG 232.5-->
<!DOCTYPE svg
PUBLIC "-//W3C//DTD SVG 1.1//EN"
       "http://www.w3.org/Graphics/SVG/1.1/DTD/svg11.dtd">
<svg version="1.1" xmlns="http://www.w3.org/2000/svg" xmlns:xlink="http://www.w3.org/1999/xlink" width="63.5742" height="88.3301">
 <g>
  <rect height="88.3301" opacity="0" width="63.5742" x="0" y="0"/>
  <path d="M20.3125 88.1836L21.2402 88.1836C47.7539 88.1836 63.5742 67.4805 63.5742 50.8301C63.5742 48.2422 62.207 46.2891 59.375 46.2891C56.543 46.2891 55.2734 47.9492 54.8828 50.8301C53.2227 65.5273 41.6504 78.9551 23.877 79.0039L23.877 4.83398C23.877 1.95312 21.9727 0 19.1895 0C16.4062 0 14.5508 1.9043 14.5508 4.83398L14.5508 82.373C14.5508 85.9863 16.748 88.1836 20.3125 88.1836ZM3.02734 34.8633C3.61328 34.8633 4.24805 34.7168 4.83398 34.4727L44.2871 17.8711C45.8984 17.2363 46.5332 16.2598 46.5332 14.7461C46.5332 12.9395 45.3125 11.6699 43.5059 11.6699C42.9199 11.6699 42.2852 11.8164 41.748 12.0605L2.24609 28.6621C0.634766 29.2969 0 30.2734 0 31.7871C0 33.5449 1.2207 34.8633 3.02734 34.8633ZM3.02734 54.0527C3.61328 54.0527 4.24805 53.8574 4.83398 53.6621L44.2871 37.0605C45.8984 36.4258 46.5332 35.4492 46.5332 33.9355C46.5332 32.1289 45.3125 30.8594 43.5059 30.8594C42.9199 30.8594 42.2852 31.0059 41.748 31.25L2.24609 47.8516C0.634766 48.4863 0 49.4629 0 50.9766C0 52.7832 1.2207 54.0527 3.02734 54.0527Z" fill="#000000" fill-opacity="0.85"/>
 </g>
</svg>
