<?xml version="1.0" encoding="UTF-8"?>
<!--Generator: Apple Native CoreSVG 232.5-->
<!DOCTYPE svg
PUBLIC "-//W3C//DTD SVG 1.1//EN"
       "http://www.w3.org/Graphics/SVG/1.1/DTD/svg11.dtd">
<svg version="1.1" xmlns="http://www.w3.org/2000/svg" xmlns:xlink="http://www.w3.org/1999/xlink" width="89.8926" height="89.9902">
 <g>
  <rect height="89.9902" opacity="0" width="89.8926" x="0" y="0"/>
  <path d="M15.332 89.9902L74.5605 89.9902C84.8145 89.9902 89.8926 84.9121 89.8926 74.8535L89.8926 15.2344C89.8926 5.17578 84.8145 0.0976562 74.5605 0.0976562L15.332 0.0976562C5.12695 0.0976562 0 5.12695 0 15.2344L0 74.8535C0 84.9609 5.12695 89.9902 15.332 89.9902ZM15.4297 82.1289C10.5469 82.1289 7.86133 79.541 7.86133 74.4629L7.86133 15.625C7.86133 10.5469 10.5469 7.95898 15.4297 7.95898L74.4629 7.95898C79.2969 7.95898 82.0312 10.5469 82.0312 15.625L82.0312 74.4629C82.0312 79.541 79.2969 82.1289 74.4629 82.1289Z" fill="#000000" fill-opacity="0.85"/>
  <path d="M39.5996 68.1641C53.6621 68.1641 61.8652 57.1289 61.8652 48.3398C61.8652 46.3379 60.7422 45.0684 58.9844 45.0684C57.4219 45.0684 56.2988 45.9961 55.957 48.2422C55.0781 55.3711 49.4629 61.8652 41.5039 61.8652L41.5039 46.2891L51.709 42.041C52.832 41.5527 53.3203 40.8203 53.3203 39.7461C53.3203 38.3789 52.3926 37.4023 51.0254 37.4023C50.6348 37.4023 50.1953 37.5 49.8047 37.6465L41.5039 41.1621L41.5039 36.5234L51.709 32.2754C52.832 31.7383 53.3203 31.0547 53.3203 29.9805C53.3203 28.6133 52.3926 27.5879 51.0254 27.5879C50.6348 27.5879 50.1953 27.7344 49.8047 27.8809L41.5039 31.3477L41.5039 25.1465C41.5039 23.1445 40.332 21.875 38.5254 21.875C36.6699 21.875 35.498 23.1445 35.498 25.1465L35.498 33.8379L29.6875 36.3281C28.5156 36.8164 28.0762 37.5 28.0762 38.623C28.0762 39.9902 29.0039 40.9668 30.3711 40.9668C30.7617 40.9668 31.1523 40.8691 31.5918 40.6738L35.498 39.0137L35.498 43.6523L29.6875 46.0938C28.5156 46.582 28.0762 47.3145 28.0762 48.3887C28.0762 49.7559 29.0039 50.7324 30.3711 50.7324C30.7617 50.7324 31.1523 50.6348 31.5918 50.4883L35.498 48.7793L35.498 64.3066C35.498 66.5527 36.8652 68.1641 39.5996 68.1641Z" fill="#000000" fill-opacity="0.85"/>
 </g>
</svg>
