<?xml version="1.0" encoding="UTF-8"?>
<!--Generator: Apple Native CoreSVG 232.5-->
<!DOCTYPE svg
PUBLIC "-//W3C//DTD SVG 1.1//EN"
       "http://www.w3.org/Graphics/SVG/1.1/DTD/svg11.dtd">
<svg version="1.1" xmlns="http://www.w3.org/2000/svg" xmlns:xlink="http://www.w3.org/1999/xlink" width="99.6094" height="99.6582">
 <g>
  <rect height="99.6582" opacity="0" width="99.6094" x="0" y="0"/>
  <path d="M49.8047 99.6094C77.0508 99.6094 99.6094 77.002 99.6094 49.8047C99.6094 22.5586 77.002 0 49.7559 0C22.5586 0 0 22.5586 0 49.8047C0 77.002 22.6074 99.6094 49.8047 99.6094ZM49.8047 91.3086C26.7578 91.3086 8.34961 72.8516 8.34961 49.8047C8.34961 26.7578 26.709 8.30078 49.7559 8.30078C72.8027 8.30078 91.3086 26.7578 91.3086 49.8047C91.3086 72.8516 72.8516 91.3086 49.8047 91.3086Z" fill="#000000" fill-opacity="0.85"/>
  <path d="M44.3848 72.998C58.4473 72.998 66.6504 61.9629 66.6504 53.1738C66.6504 51.1719 65.4785 49.9023 63.7695 49.9023C62.207 49.9023 61.084 50.8301 60.7422 53.0762C59.8633 60.2051 54.248 66.6992 46.2891 66.6992L46.2891 51.123L56.4941 46.875C57.6172 46.3867 58.1055 45.6543 58.1055 44.5801C58.1055 43.2129 57.1777 42.2363 55.8105 42.2363C55.4199 42.2363 54.9805 42.334 54.5898 42.4805L46.2891 45.9961L46.2891 41.3574L56.4941 37.1094C57.6172 36.5723 58.1055 35.8887 58.1055 34.8145C58.1055 33.4473 57.1777 32.4219 55.8105 32.4219C55.4199 32.4219 54.9805 32.5684 54.5898 32.7148L46.2891 36.1816L46.2891 29.9805C46.2891 27.9785 45.1172 26.709 43.3105 26.709C41.4551 26.709 40.2832 27.9785 40.2832 29.9805L40.2832 38.6719L34.4727 41.1621C33.3008 41.6504 32.8125 42.334 32.8125 43.457C32.8125 44.8242 33.7891 45.8008 35.1562 45.8008C35.5469 45.8008 35.9375 45.7031 36.377 45.5078L40.2832 43.8477L40.2832 48.4863L34.4727 50.9277C33.3008 51.416 32.8125 52.1484 32.8125 53.2227C32.8125 54.5898 33.7891 55.5664 35.1562 55.5664C35.5469 55.5664 35.9375 55.4688 36.377 55.3223L40.2832 53.6133L40.2832 69.1406C40.2832 71.3867 41.6504 72.998 44.3848 72.998Z" fill="#000000" fill-opacity="0.85"/>
 </g>
</svg>
