<?xml version="1.0" encoding="UTF-8"?>
<!--Generator: Apple Native CoreSVG 232.5-->
<!DOCTYPE svg
PUBLIC "-//W3C//DTD SVG 1.1//EN"
       "http://www.w3.org/Graphics/SVG/1.1/DTD/svg11.dtd">
<svg version="1.1" xmlns="http://www.w3.org/2000/svg" xmlns:xlink="http://www.w3.org/1999/xlink" width="152.002" height="123.389">
 <g>
  <rect height="123.389" opacity="0" width="152.002" x="0" y="0"/>
  <path d="M64.502 106.25C64.502 107.755 64.6249 109.155 64.8626 110.449L43.1152 110.449C40.9668 110.449 39.209 108.691 39.209 106.494C39.209 104.297 40.9668 102.539 43.1152 102.539L64.502 102.539ZM128.711 25.3906L128.711 71.6309L81.4941 71.6309C71.875 71.6309 64.502 77.1484 64.502 88.4766L64.502 93.8965L19.1895 93.8965C10.8887 93.8965 6.64062 89.8438 6.64062 81.3477L6.64062 25.3906C6.64062 16.8945 10.8887 12.8418 19.1895 12.8418L116.211 12.8418C124.512 12.8418 128.711 16.8945 128.711 25.3906Z" fill="#000000" fill-opacity="0.425"/>
  <path d="M81.4941 116.699L135.01 116.699C141.846 116.699 145.361 113.232 145.361 106.25L145.361 88.7695C145.361 81.7383 141.846 78.2715 135.01 78.2715L81.4941 78.2715C74.5117 78.2715 71.1426 81.7383 71.1426 88.4766L71.1426 106.25C71.1426 113.232 74.5117 116.699 81.4941 116.699ZM129.346 100.049C126.221 100.049 123.682 97.5098 123.682 94.3848C123.682 91.3086 126.221 88.8184 129.346 88.8184C132.373 88.8184 134.912 91.3086 134.912 94.3848C134.912 97.5098 132.373 100.049 129.346 100.049Z" fill="#000000" fill-opacity="0.85"/>
 </g>
</svg>
