<?xml version="1.0" encoding="UTF-8"?>
<!--Generator: Apple Native CoreSVG 232.5-->
<!DOCTYPE svg
PUBLIC "-//W3C//DTD SVG 1.1//EN"
       "http://www.w3.org/Graphics/SVG/1.1/DTD/svg11.dtd">
<svg version="1.1" xmlns="http://www.w3.org/2000/svg" xmlns:xlink="http://www.w3.org/1999/xlink" width="99.6094" height="99.6582">
 <g>
  <rect height="99.6582" opacity="0" width="99.6094" x="0" y="0"/>
  <path d="M99.6094 49.8047C99.6094 77.002 77.0508 99.6094 49.8047 99.6094C22.6074 99.6094 0 77.002 0 49.8047C0 22.5586 22.5586 0 49.7559 0C77.002 0 99.6094 22.5586 99.6094 49.8047ZM36.7676 72.4121C35.3516 72.4121 34.1797 73.584 34.1797 75C34.1797 76.416 35.3516 77.5391 36.7676 77.5391L62.9395 77.5391C64.3555 77.5391 65.5273 76.416 65.5273 75C65.5273 73.584 64.3555 72.4121 62.9395 72.4121ZM27.2461 27.2949C23.1445 27.2949 20.2148 30.2246 20.2148 34.375L20.2148 60.3027C20.2148 64.4043 23.1445 67.2852 27.2461 67.2852L72.2656 67.2852C76.3672 67.2852 79.3457 64.4043 79.3457 60.3027L79.3457 34.375C79.3457 30.2246 76.3672 27.2949 72.2656 27.2949ZM74.0234 34.8145L74.0234 59.8145C74.0234 61.2305 73.0469 62.207 71.6797 62.207L27.8809 62.207C26.5137 62.207 25.5371 61.2305 25.5371 59.8145L25.5371 34.8145C25.5371 33.3496 26.5137 32.4219 27.8809 32.4219L71.6797 32.4219C73.0469 32.4219 74.0234 33.3496 74.0234 34.8145Z" fill="#000000" fill-opacity="0.85"/>
 </g>
</svg>
