<?xml version="1.0" encoding="UTF-8"?>
<!--Generator: Apple Native CoreSVG 232.5-->
<!DOCTYPE svg
PUBLIC "-//W3C//DTD SVG 1.1//EN"
       "http://www.w3.org/Graphics/SVG/1.1/DTD/svg11.dtd">
<svg version="1.1" xmlns="http://www.w3.org/2000/svg" xmlns:xlink="http://www.w3.org/1999/xlink" width="122.07" height="97.7051">
 <g>
  <rect height="97.7051" opacity="0" width="122.07" x="0" y="0"/>
  <path d="M12.5488 81.0547L109.521 81.0547C117.871 81.0547 122.07 77.002 122.07 68.5059L122.07 12.5488C122.07 4.05273 117.871 0 109.521 0L12.5488 0C4.24805 0 0 4.05273 0 12.5488L0 68.5059C0 77.002 4.24805 81.0547 12.5488 81.0547ZM36.4746 97.6074L85.5957 97.6074C87.7441 97.6074 89.5508 95.8496 89.5508 93.6523C89.5508 91.4551 87.7441 89.6973 85.5957 89.6973L36.4746 89.6973C34.3262 89.6973 32.5195 91.4551 32.5195 93.6523C32.5195 95.8496 34.3262 97.6074 36.4746 97.6074Z" fill="#000000" fill-opacity="0.85"/>
 </g>
</svg>
