<?xml version="1.0" encoding="UTF-8"?>
<!--Generator: Apple Native CoreSVG 232.5-->
<!DOCTYPE svg
PUBLIC "-//W3C//DTD SVG 1.1//EN"
       "http://www.w3.org/Graphics/SVG/1.1/DTD/svg11.dtd">
<svg version="1.1" xmlns="http://www.w3.org/2000/svg" xmlns:xlink="http://www.w3.org/1999/xlink" width="122.07" height="97.7051">
 <g>
  <rect height="97.7051" opacity="0" width="122.07" x="0" y="0"/>
  <path d="M12.5488 81.1035L109.521 81.1035C117.334 81.1035 122.07 76.3184 122.07 68.5547L122.07 12.5488C122.07 4.78516 117.334 0 109.521 0L12.5488 0C4.78516 0 0 4.78516 0 12.5488L0 68.5547C0 76.3184 4.78516 81.1035 12.5488 81.1035ZM12.6953 73.2422C9.66797 73.2422 7.86133 71.4355 7.86133 68.457L7.86133 12.6465C7.86133 9.66797 9.66797 7.86133 12.6953 7.86133L109.375 7.86133C112.402 7.86133 114.209 9.66797 114.209 12.6465L114.209 68.457C114.209 71.4355 112.402 73.2422 109.375 73.2422ZM36.4746 97.6562L85.5957 97.6562C87.7441 97.6562 89.5508 95.8984 89.5508 93.7012C89.5508 91.5039 87.7441 89.7461 85.5957 89.7461L36.4746 89.7461C34.3262 89.7461 32.5195 91.5039 32.5195 93.7012C32.5195 95.8984 34.3262 97.6562 36.4746 97.6562Z" fill="#000000" fill-opacity="0.85"/>
  <path d="M17.5781 66.6016L104.59 66.6016C106.689 66.6016 107.568 65.625 107.568 63.4766L107.568 17.6758C107.568 15.5273 106.689 14.5996 104.59 14.5996L17.5781 14.5996C15.4785 14.5996 14.5508 15.5273 14.5508 17.6758L14.5508 63.4766C14.5508 65.625 15.4785 66.6016 17.5781 66.6016Z" fill="#000000" fill-opacity="0.85"/>
 </g>
</svg>
