<?xml version="1.0" encoding="UTF-8"?>
<!--Generator: Apple Native CoreSVG 232.5-->
<!DOCTYPE svg
PUBLIC "-//W3C//DTD SVG 1.1//EN"
       "http://www.w3.org/Graphics/SVG/1.1/DTD/svg11.dtd">
<svg version="1.1" xmlns="http://www.w3.org/2000/svg" xmlns:xlink="http://www.w3.org/1999/xlink" width="99.6094" height="99.6582">
 <g>
  <rect height="99.6582" opacity="0" width="99.6094" x="0" y="0"/>
  <path d="M49.8047 99.6094C77.0508 99.6094 99.6094 77.002 99.6094 49.8047C99.6094 22.5586 77.002 0 49.7559 0C22.5586 0 0 22.5586 0 49.8047C0 77.002 22.6074 99.6094 49.8047 99.6094ZM49.8047 91.3086C26.7578 91.3086 8.34961 72.8516 8.34961 49.8047C8.34961 26.7578 26.709 8.30078 49.7559 8.30078C72.8027 8.30078 91.3086 26.7578 91.3086 49.8047C91.3086 72.8516 72.8516 91.3086 49.8047 91.3086Z" fill="#000000" fill-opacity="0.85"/>
  <path d="M49.7559 72.7051C61.1816 72.7051 68.8477 66.1133 68.8477 55.8594L68.8477 30.9082C68.8477 28.1738 67.4316 26.5137 64.8926 26.5137C62.5 26.5137 61.0352 28.1738 61.0352 30.9082L61.0352 55.127C61.0352 61.9629 56.5918 66.2598 49.7559 66.2598C42.9199 66.2598 38.4277 61.9629 38.4277 55.127L38.4277 30.9082C38.4277 28.1738 37.0117 26.5137 34.4727 26.5137C32.0801 26.5137 30.6641 28.1738 30.6641 30.9082L30.6641 55.8594C30.6641 66.1133 38.3301 72.7051 49.7559 72.7051Z" fill="#000000" fill-opacity="0.85"/>
 </g>
</svg>
