<?xml version="1.0" encoding="UTF-8"?>
<!--Generator: Apple Native CoreSVG 232.5-->
<!DOCTYPE svg
PUBLIC "-//W3C//DTD SVG 1.1//EN"
       "http://www.w3.org/Graphics/SVG/1.1/DTD/svg11.dtd">
<svg version="1.1" xmlns="http://www.w3.org/2000/svg" xmlns:xlink="http://www.w3.org/1999/xlink" width="89.8926" height="89.9902">
 <g>
  <rect height="89.9902" opacity="0" width="89.8926" x="0" y="0"/>
  <path d="M15.332 89.9902L74.5605 89.9902C84.8145 89.9902 89.8926 84.9121 89.8926 74.8535L89.8926 15.2344C89.8926 5.17578 84.8145 0.0976562 74.5605 0.0976562L15.332 0.0976562C5.12695 0.0976562 0 5.12695 0 15.2344L0 74.8535C0 84.9609 5.12695 89.9902 15.332 89.9902ZM15.4297 82.1289C10.5469 82.1289 7.86133 79.541 7.86133 74.4629L7.86133 15.625C7.86133 10.5469 10.5469 7.95898 15.4297 7.95898L74.4629 7.95898C79.2969 7.95898 82.0312 10.5469 82.0312 15.625L82.0312 74.4629C82.0312 79.541 79.2969 82.1289 74.4629 82.1289Z" fill="#000000" fill-opacity="0.85"/>
  <path d="M44.9707 67.8711C56.3965 67.8711 64.0625 61.2793 64.0625 51.0254L64.0625 26.0742C64.0625 23.3398 62.6465 21.6797 60.1074 21.6797C57.7148 21.6797 56.25 23.3398 56.25 26.0742L56.25 50.293C56.25 57.1289 51.8066 61.4258 44.9707 61.4258C38.1348 61.4258 33.6426 57.1289 33.6426 50.293L33.6426 26.0742C33.6426 23.3398 32.2266 21.6797 29.7363 21.6797C27.2949 21.6797 25.8789 23.3398 25.8789 26.0742L25.8789 51.0254C25.8789 61.2793 33.5449 67.8711 44.9707 67.8711Z" fill="#000000" fill-opacity="0.85"/>
 </g>
</svg>
