<?xml version="1.0" encoding="UTF-8"?>
<!--Generator: Apple Native CoreSVG 232.5-->
<!DOCTYPE svg
PUBLIC "-//W3C//DTD SVG 1.1//EN"
       "http://www.w3.org/Graphics/SVG/1.1/DTD/svg11.dtd">
<svg version="1.1" xmlns="http://www.w3.org/2000/svg" xmlns:xlink="http://www.w3.org/1999/xlink" width="89.8926" height="89.9902">
 <g>
  <rect height="89.9902" opacity="0" width="89.8926" x="0" y="0"/>
  <path d="M89.8926 15.2344L89.8926 74.8535C89.8926 84.9121 84.8145 89.9902 74.5605 89.9902L15.332 89.9902C5.12695 89.9902 0 84.9609 0 74.8535L0 15.2344C0 5.12695 5.12695 0.0976562 15.332 0.0976562L74.5605 0.0976562C84.8145 0.0976562 89.8926 5.17578 89.8926 15.2344ZM56.5918 25.4883L56.5918 50.4395C56.5918 57.5195 52.002 61.9141 44.9707 61.9141C37.9395 61.9141 33.3008 57.5195 33.3008 50.4395L33.3008 25.4883C33.3008 22.6562 31.8359 20.9473 29.248 20.9473C26.709 20.9473 25.2441 22.6562 25.2441 25.4883L25.2441 51.2207C25.2441 61.8164 33.1543 68.6035 44.9707 68.6035C56.7871 68.6035 64.6973 61.8164 64.6973 51.2207L64.6973 25.4883C64.6973 22.6562 63.2324 20.9473 60.5957 20.9473C58.1055 20.9473 56.5918 22.6562 56.5918 25.4883Z" fill="#000000" fill-opacity="0.85"/>
 </g>
</svg>
