<?xml version="1.0" encoding="UTF-8"?>
<!--Generator: Apple Native CoreSVG 232.5-->
<!DOCTYPE svg
PUBLIC "-//W3C//DTD SVG 1.1//EN"
       "http://www.w3.org/Graphics/SVG/1.1/DTD/svg11.dtd">
<svg version="1.1" xmlns="http://www.w3.org/2000/svg" xmlns:xlink="http://www.w3.org/1999/xlink" width="97.3633" height="115.479">
 <g>
  <rect height="115.479" opacity="0" width="97.3633" x="0" y="0"/>
  <path d="M44.6289 14.5996L52.7344 14.5996L52.7344 4.10156C52.7344 1.85547 50.9277 0 48.6816 0C46.4355 0 44.6289 1.85547 44.6289 4.10156ZM4.05273 61.9629C5.46875 61.9629 6.83594 61.0352 7.91016 59.4238C11.1816 54.4922 14.5996 52.4414 19.2383 52.4414C23.7793 52.4414 26.8555 54.4922 29.6387 59.375C30.7129 61.1816 31.7383 61.9629 33.1055 61.9629C34.5215 61.9629 35.5957 61.1816 36.5723 59.375C39.209 54.8828 43.9941 52.1484 48.6816 52.1484C53.3691 52.1484 58.1543 54.8828 60.791 59.375C61.7676 61.1816 62.793 61.9629 64.2578 61.9629C65.625 61.9629 66.6504 61.1816 67.6758 59.375C70.5078 54.4922 73.584 52.4414 78.125 52.4414C82.7637 52.4414 86.1816 54.4922 89.4043 59.4238C90.4785 61.0352 91.8457 61.9629 93.3105 61.9629C95.752 61.9629 97.3633 59.9609 97.3633 57.3242C97.3633 37.9395 82.0801 10.7422 48.6816 10.7422C15.2832 10.7422 0 37.9395 0 57.3242C0 59.9609 1.61133 61.9629 4.05273 61.9629ZM48.6816 44.5312C42.7734 44.5312 37.1094 47.168 33.5449 51.5137C33.3008 51.8555 33.1055 51.8555 32.8613 51.5137C29.6387 47.0703 25.0977 44.8242 19.2383 44.8242C12.9883 44.8242 7.76367 47.3633 3.4668 52.6367L7.91016 53.0273C10.1562 33.9355 26.5625 18.3594 48.6816 18.3594C70.752 18.3594 87.1582 33.8379 89.4043 52.9297L93.8477 52.5391C89.5508 47.3633 84.375 44.8242 78.125 44.8242C72.2656 44.8242 67.7246 47.0703 64.4531 51.5137C64.2578 51.8555 64.0625 51.8066 63.8184 51.5137C60.2539 47.168 54.541 44.5312 48.6816 44.5312ZM37.207 112.891C46.0449 112.891 52.7344 106.201 52.7344 97.3145L52.7344 49.8047L44.6289 49.8047L44.6289 97.3145C44.6289 101.562 41.5527 104.639 37.207 104.639C32.959 104.639 29.9316 101.562 29.9316 97.3145C29.9316 94.4824 28.2227 92.5781 25.7324 92.5781C23.291 92.5781 21.6797 94.4824 21.6797 97.3145C21.6797 106.201 28.418 112.891 37.207 112.891Z" fill="#000000" fill-opacity="0.85"/>
 </g>
</svg>
