<?xml version="1.0" encoding="UTF-8"?>
<!--Generator: Apple Native CoreSVG 232.5-->
<!DOCTYPE svg
PUBLIC "-//W3C//DTD SVG 1.1//EN"
       "http://www.w3.org/Graphics/SVG/1.1/DTD/svg11.dtd">
<svg version="1.1" xmlns="http://www.w3.org/2000/svg" xmlns:xlink="http://www.w3.org/1999/xlink" width="108.789" height="115.479">
 <g>
  <rect height="115.479" opacity="0" width="108.789" x="0" y="0"/>
  <path d="M48.7793 14.5996L56.8848 14.5996L56.8848 4.10156C56.8848 1.85547 55.0781 0 52.832 0C50.5859 0 48.7793 1.85547 48.7793 4.10156ZM8.20312 61.9629C9.66797 61.9629 11.0352 61.0352 12.1094 59.4238C15.332 54.4922 18.75 52.4414 23.3887 52.4414C27.9297 52.4414 31.0059 54.4922 33.8379 59.375C34.8633 61.1816 35.8887 61.9629 37.2559 61.9629C38.7207 61.9629 39.7461 61.1816 40.7227 59.375C43.3594 54.8828 48.1445 52.1484 52.832 52.1484C57.5195 52.1484 62.3047 54.8828 64.9414 59.375C65.918 61.1816 66.9434 61.9629 68.4082 61.9629C69.7754 61.9629 70.8008 61.1816 71.875 59.375C74.6582 54.4922 77.7344 52.4414 82.2754 52.4414C86.9141 52.4414 90.332 54.4922 93.6035 59.4238C94.6777 61.0352 95.9961 61.9629 97.4609 61.9629C99.9023 61.9629 101.514 59.9609 101.514 57.3242C101.514 37.9395 86.2305 10.7422 52.832 10.7422C19.4336 10.7422 4.15039 37.9395 4.15039 57.3242C4.15039 59.9609 5.76172 61.9629 8.20312 61.9629ZM41.4062 112.891C50.1953 112.891 56.8848 106.201 56.8848 97.3145L56.8848 49.8047L48.7793 49.8047L48.7793 97.3145C48.7793 101.562 45.7031 104.639 41.4062 104.639C37.1094 104.639 34.1309 101.562 34.1309 97.3145C34.1309 94.4824 32.373 92.5781 29.8828 92.5781C27.4414 92.5781 25.8789 94.4824 25.8789 97.3145C25.8789 106.201 32.5684 112.891 41.4062 112.891Z" fill="#000000" fill-opacity="0.85"/>
  <path d="M75.4395 93.4082C80.6641 93.4082 84.0332 89.1602 84.0332 82.5684C84.0332 75.9766 80.6641 71.7773 75.4395 71.7773C70.2148 71.7773 66.8457 75.9766 66.8457 82.5684C66.8457 89.1602 70.2148 93.4082 75.4395 93.4082ZM75.4395 87.4512C74.0234 87.4512 73.1934 85.6445 73.1934 82.5684C73.1934 79.541 74.0723 77.7344 75.4395 77.7344C76.7578 77.7344 77.6855 79.541 77.6855 82.5684C77.6855 85.6445 76.8066 87.4512 75.4395 87.4512ZM74.1211 112.744C75.5859 113.623 77.6367 113.184 78.6621 111.719L102.344 76.6602C103.516 74.9512 103.076 72.8027 101.416 71.875C99.9512 71.0449 98.0957 71.5332 97.0215 73.0957L73.1934 108.057C71.9727 109.814 72.3633 111.816 74.1211 112.744ZM100.195 112.939C105.42 112.939 108.789 108.643 108.789 102.051C108.789 95.459 105.42 91.2598 100.195 91.2598C94.9707 91.2598 91.6016 95.459 91.6016 102.051C91.6016 108.643 94.9707 112.939 100.195 112.939ZM100.195 106.934C98.7793 106.934 97.9492 105.176 97.9492 102.051C97.9492 99.0234 98.8281 97.2168 100.195 97.2168C101.514 97.2168 102.441 99.0234 102.441 102.051C102.441 105.176 101.611 106.934 100.195 106.934Z" fill="#000000" fill-opacity="0.85"/>
 </g>
</svg>
