<?xml version="1.0" encoding="UTF-8"?>
<!--Generator: Apple Native CoreSVG 232.5-->
<!DOCTYPE svg
PUBLIC "-//W3C//DTD SVG 1.1//EN"
       "http://www.w3.org/Graphics/SVG/1.1/DTD/svg11.dtd">
<svg version="1.1" xmlns="http://www.w3.org/2000/svg" xmlns:xlink="http://www.w3.org/1999/xlink" width="56.8848" height="102.295">
 <g>
  <rect height="102.295" opacity="0" width="56.8848" x="0" y="0"/>
  <path d="M2.88086 102.295L53.9551 102.295C55.5664 102.295 56.8848 101.074 56.8848 99.4141C56.8848 97.7539 55.5664 96.4844 53.9551 96.4844L2.88086 96.4844C1.31836 96.4844 0 97.7539 0 99.4141C0 101.074 1.31836 102.295 2.88086 102.295Z" fill="#000000" fill-opacity="0.85"/>
  <path d="M28.418 87.3047C45.9961 87.3047 56.8848 76.7578 56.8848 61.4258L56.8848 19.4824C56.8848 16.748 55.0781 14.9414 52.2949 14.9414C49.5605 14.9414 47.8516 16.748 47.8516 19.4824L47.8516 60.6934C47.8516 71.582 40.6738 79.0039 28.418 79.0039C16.2109 79.0039 9.0332 71.582 9.0332 60.6934L9.0332 19.4824C9.0332 16.748 7.22656 14.9414 4.44336 14.9414C1.70898 14.9414 0 16.748 0 19.4824L0 61.4258C0 76.7578 10.8398 87.3047 28.418 87.3047Z" fill="#000000" fill-opacity="0.85"/>
 </g>
</svg>
