<?xml version="1.0" encoding="UTF-8"?>
<!--Generator: Apple Native CoreSVG 232.5-->
<!DOCTYPE svg
PUBLIC "-//W3C//DTD SVG 1.1//EN"
       "http://www.w3.org/Graphics/SVG/1.1/DTD/svg11.dtd">
<svg version="1.1" xmlns="http://www.w3.org/2000/svg" xmlns:xlink="http://www.w3.org/1999/xlink" width="99.6094" height="99.6582">
 <g>
  <rect height="99.6582" opacity="0" width="99.6094" x="0" y="0"/>
  <path d="M49.8047 99.6094C77.0508 99.6094 99.6094 77.002 99.6094 49.8047C99.6094 22.5586 77.002 0 49.7559 0C22.5586 0 0 22.5586 0 49.8047C0 77.002 22.6074 99.6094 49.8047 99.6094ZM49.8047 91.3086C26.7578 91.3086 8.34961 72.8516 8.34961 49.8047C8.34961 26.7578 26.709 8.30078 49.7559 8.30078C72.8027 8.30078 91.3086 26.7578 91.3086 49.8047C91.3086 72.8516 72.8516 91.3086 49.8047 91.3086Z" fill="#000000" fill-opacity="0.85"/>
  <path d="M49.8047 72.6562C52.5879 72.6562 54.3457 71.1914 55.5664 68.0176L69.1895 32.3242C69.4824 31.543 69.5801 31.0059 69.5801 30.2734C69.5801 28.0762 67.9199 26.5625 65.625 26.5625C63.4766 26.5625 62.3047 27.5879 61.4746 29.8828L49.9023 63.3301L49.5605 63.3301L37.9883 29.8828C37.207 27.5879 35.9863 26.5625 33.8379 26.5625C31.543 26.5625 29.8828 28.125 29.8828 30.2734C29.8828 31.0059 30.0293 31.543 30.2734 32.3242L43.9941 68.0664C45.2637 71.3867 46.8262 72.6562 49.8047 72.6562Z" fill="#000000" fill-opacity="0.85"/>
 </g>
</svg>
