<?xml version="1.0" encoding="UTF-8"?>
<!--Generator: Apple Native CoreSVG 232.5-->
<!DOCTYPE svg
PUBLIC "-//W3C//DTD SVG 1.1//EN"
       "http://www.w3.org/Graphics/SVG/1.1/DTD/svg11.dtd">
<svg version="1.1" xmlns="http://www.w3.org/2000/svg" xmlns:xlink="http://www.w3.org/1999/xlink" width="145.654" height="68.7012">
 <g>
  <rect height="68.7012" opacity="0" width="145.654" x="0" y="0"/>
  <path d="M66.6992 58.6426L55.957 50.7812L15.0879 50.7812C10.6445 50.7812 7.86133 48.0957 7.86133 43.75L7.86133 16.6992C7.86133 12.4023 10.6445 9.66797 15.0879 9.66797L55.1758 9.66797L64.8438 1.80664L15.0879 1.80664C5.17578 1.80664 0 6.83594 0 16.6992L0 43.75C0 53.5645 5.17578 58.6426 15.0879 58.6426ZM88.0859 50.7812L78.9551 58.6426L130.518 58.6426C140.527 58.6426 145.654 53.5645 145.654 43.75L145.654 16.6992C145.654 6.83594 140.527 1.80664 130.518 1.80664L80.9082 1.80664L88.623 9.66797L130.518 9.66797C134.961 9.66797 137.793 12.4023 137.793 16.6992L137.793 43.75C137.793 48.0957 134.961 50.7812 130.518 50.7812ZM72.7539 60.498C89.8438 60.498 103.027 47.2656 103.027 30.2734C103.027 13.2324 89.8438 0 72.7539 0C55.7617 0 42.5781 13.2324 42.5781 30.2734C42.5781 47.2656 55.7617 60.498 72.7539 60.498ZM72.7539 53.125C59.9121 53.125 49.9512 43.1641 49.9512 30.2734C49.9512 17.334 59.9121 7.37305 72.7539 7.37305C85.6934 7.37305 95.6543 17.334 95.6543 30.2734C95.6543 43.1641 85.6934 53.125 72.7539 53.125ZM72.7539 47.9004C82.666 47.9004 90.4297 40.1367 90.4297 30.2734C90.4297 20.4102 82.666 12.5977 72.7539 12.5977C62.8906 12.5977 55.127 20.4102 55.127 30.2734C55.127 40.1367 62.8906 47.9004 72.7539 47.9004ZM72.7539 41.5039C66.4551 41.5039 61.5234 36.5723 61.5234 30.2734C61.5234 23.9746 66.4551 18.9941 72.7539 18.9941C79.0527 18.9941 84.0332 23.9746 84.0332 30.2734C84.0332 36.5723 79.0527 41.5039 72.7539 41.5039ZM36.1816 55.6641L10.8398 55.6641L10.8398 62.8418C10.8398 65.2344 12.4512 66.8457 14.8438 66.8457L32.1777 66.8457C34.6191 66.8457 36.1816 65.2344 36.1816 62.8418ZM109.473 55.6641L109.473 62.8418C109.473 65.2344 111.035 66.8457 113.477 66.8457L130.762 66.8457C133.203 66.8457 134.814 65.2344 134.814 62.8418L134.814 55.6641ZM109.766 20.3613C109.766 22.3633 111.182 23.7793 113.184 23.7793L125.439 23.7793C127.441 23.7793 128.906 22.3633 128.906 20.3613C128.906 18.3594 127.441 16.8945 125.439 16.8945L113.184 16.8945C111.182 16.8945 109.766 18.3594 109.766 20.3613ZM109.766 32.2266C109.766 34.2285 111.182 35.6934 113.184 35.6934L125.439 35.6934C127.441 35.6934 128.906 34.2285 128.906 32.2266C128.906 30.2246 127.441 28.8086 125.439 28.8086L113.184 28.8086C111.182 28.8086 109.766 30.2246 109.766 32.2266Z" fill="#000000" fill-opacity="0.85"/>
 </g>
</svg>
