<?xml version="1.0" encoding="UTF-8"?>
<!--Generator: Apple Native CoreSVG 232.5-->
<!DOCTYPE svg
PUBLIC "-//W3C//DTD SVG 1.1//EN"
       "http://www.w3.org/Graphics/SVG/1.1/DTD/svg11.dtd">
<svg version="1.1" xmlns="http://www.w3.org/2000/svg" xmlns:xlink="http://www.w3.org/1999/xlink" width="99.6094" height="99.6582">
 <g>
  <rect height="99.6582" opacity="0" width="99.6094" x="0" y="0"/>
  <path d="M99.6094 49.8535C99.6094 77.0996 77.0508 99.6582 49.8047 99.6582C22.6074 99.6582 0 77.0996 0 49.8535C0 22.6562 22.5586 0.0488281 49.7559 0.0488281C77.002 0.0488281 99.6094 22.6562 99.6094 49.8535ZM28.8086 29.5898C23.9746 29.5898 20.8008 32.4707 20.8008 37.5L20.8008 62.3047C20.8008 67.2363 23.7793 70.166 28.8086 70.166L55.4199 70.166C60.4492 70.166 63.3789 67.2363 63.3789 62.3047L63.3789 37.5C63.3789 32.4707 60.7422 29.5898 55.6641 29.5898ZM76.0742 34.6191L66.2109 43.0176L66.2109 56.7383L76.0742 65.1367C76.9531 65.918 77.9785 66.3574 78.8574 66.3574C80.7617 66.3574 82.0312 64.9902 82.0312 62.8418L82.0312 36.9141C82.0312 34.8145 80.7617 33.4473 78.8574 33.4473C77.9785 33.4473 76.8555 33.8867 76.0742 34.6191Z" fill="#000000" fill-opacity="0.85"/>
 </g>
</svg>
