<?xml version="1.0" encoding="UTF-8"?>
<!--Generator: Apple Native CoreSVG 232.5-->
<!DOCTYPE svg
PUBLIC "-//W3C//DTD SVG 1.1//EN"
       "http://www.w3.org/Graphics/SVG/1.1/DTD/svg11.dtd">
<svg version="1.1" xmlns="http://www.w3.org/2000/svg" xmlns:xlink="http://www.w3.org/1999/xlink" width="99.6094" height="99.6582">
 <g>
  <rect height="99.6582" opacity="0" width="99.6094" x="0" y="0"/>
  <path d="M99.6094 49.8047C99.6094 77.002 77.0508 99.6094 49.8047 99.6094C22.6074 99.6094 0 77.002 0 49.8047C0 22.5586 22.5586 0 49.7559 0C77.002 0 99.6094 22.5586 99.6094 49.8047ZM8.34961 49.8047C8.34961 72.8516 26.7578 91.3086 49.8047 91.3086C72.8516 91.3086 91.3086 72.8516 91.3086 49.8047C91.3086 26.7578 72.8027 8.30078 49.7559 8.30078C26.709 8.30078 8.34961 26.7578 8.34961 49.8047Z" fill="#000000" fill-opacity="0.85"/>
  <path d="M60.1029 68.1203C58.8353 69.0434 57.1535 69.5312 55.127 69.5312L29.2969 69.5312C24.4629 69.5312 21.5332 66.6992 21.5332 61.8652L21.5332 37.8418C21.5332 35.2762 22.4135 33.2882 23.9399 31.9946ZM80.957 37.2559L80.957 62.4023C80.957 64.4531 79.7363 65.8203 77.832 65.8203C76.9531 65.8203 76.0254 65.332 75.1465 64.5996L65.625 56.543L65.625 43.1641L75.1465 35.0586C75.9766 34.375 76.9531 33.8867 77.832 33.8867C79.7363 33.8867 80.957 35.2539 80.957 37.2559ZM62.8906 37.8418L62.8906 54.9316L38.1836 30.2246L55.3711 30.2246C60.2539 30.2246 62.8906 33.0078 62.8906 37.8418Z" fill="#000000" fill-opacity="0.85"/>
  <path d="M71.8262 75C72.6562 75.8301 74.1211 75.8301 74.9512 75C75.8301 74.0723 75.8301 72.7539 74.9512 71.875L27.7344 24.6094C26.8555 23.7305 25.4395 23.7305 24.5605 24.6094C23.6816 25.4395 23.7305 26.9043 24.5605 27.7344Z" fill="#000000" fill-opacity="0.85"/>
 </g>
</svg>
