<?xml version="1.0" encoding="UTF-8"?>
<!--Generator: Apple Native CoreSVG 232.5-->
<!DOCTYPE svg
PUBLIC "-//W3C//DTD SVG 1.1//EN"
       "http://www.w3.org/Graphics/SVG/1.1/DTD/svg11.dtd">
<svg version="1.1" xmlns="http://www.w3.org/2000/svg" xmlns:xlink="http://www.w3.org/1999/xlink" width="115.137" height="89.8926">
 <g>
  <rect height="89.8926" opacity="0" width="115.137" x="0" y="0"/>
  <path d="M3.90625 31.0547C6.49414 31.0547 7.86133 29.6387 7.86133 27.0996L7.86133 15.5762C7.86133 10.498 10.5469 7.86133 15.4297 7.86133L27.2461 7.86133C29.834 7.86133 31.25 6.44531 31.25 3.95508C31.25 1.41602 29.834 0 27.2461 0L15.332 0C5.12695 0 0 5.07812 0 15.1367L0 27.0996C0 29.6387 1.41602 31.0547 3.90625 31.0547ZM111.23 31.0547C113.77 31.0547 115.137 29.6387 115.137 27.0996L115.137 15.1367C115.137 5.07812 110.059 0 99.8047 0L87.8906 0C85.3027 0 83.8867 1.41602 83.8867 3.95508C83.8867 6.44531 85.3027 7.86133 87.8906 7.86133L99.707 7.86133C104.59 7.86133 107.275 10.498 107.275 15.5762L107.275 27.0996C107.275 29.6387 108.691 31.0547 111.23 31.0547ZM3.90625 58.8379C1.36719 58.8379 0 60.3027 0 62.8418L0 74.8047C0 84.8633 5.12695 89.8926 15.332 89.8926L27.2461 89.8926C29.834 89.8926 31.25 88.5254 31.25 85.9863C31.25 83.4473 29.834 82.0312 27.2461 82.0312L15.4297 82.0312C10.5469 82.0312 7.86133 79.4434 7.86133 74.3652L7.86133 62.8418C7.86133 60.3027 6.44531 58.8379 3.90625 58.8379ZM111.23 58.8379C108.643 58.8379 107.275 60.3027 107.275 62.8418L107.275 74.3652C107.275 79.4434 104.59 82.0312 99.707 82.0312L87.8906 82.0312C85.3027 82.0312 83.8867 83.4473 83.8867 85.9863C83.8867 88.5254 85.3027 89.8926 87.8906 89.8926L99.8047 89.8926C110.059 89.8926 115.137 84.8633 115.137 74.8047L115.137 62.8418C115.137 60.3027 113.721 58.8379 111.23 58.8379Z" fill="#000000" fill-opacity="0.85"/>
 </g>
</svg>
