<?xml version="1.0" encoding="UTF-8"?>
<!--Generator: Apple Native CoreSVG 232.5-->
<!DOCTYPE svg
PUBLIC "-//W3C//DTD SVG 1.1//EN"
       "http://www.w3.org/Graphics/SVG/1.1/DTD/svg11.dtd">
<svg version="1.1" xmlns="http://www.w3.org/2000/svg" xmlns:xlink="http://www.w3.org/1999/xlink" width="138.428" height="78.7598">
 <g>
  <rect height="78.7598" opacity="0" width="138.428" x="0" y="0"/>
  <path d="M69.2383 61.2305C78.5645 61.2305 88.2812 76.9531 106.836 76.9531C124.854 76.9531 138.428 60.5957 138.428 39.1113C138.428 3.90625 107.422 0 69.2383 0C31.0059 0 0 3.95508 0 39.1113C0 60.5957 13.5742 76.9531 31.5918 76.9531C50.1465 76.9531 59.8633 61.2305 69.2383 61.2305ZM69.2383 53.3691C55.127 53.3691 48.6816 69.0918 31.5918 69.0918C17.1875 69.0918 7.86133 57.666 7.86133 39.1113C7.86133 10.791 31.8359 7.86133 69.2383 7.86133C106.592 7.86133 130.566 10.7422 130.566 39.1113C130.566 57.666 121.24 69.0918 106.836 69.0918C89.7461 69.0918 83.3008 53.3691 69.2383 53.3691Z" fill="#000000" fill-opacity="0.85"/>
  <path d="M69.2383 53.3691C55.127 53.3691 48.6816 69.0918 31.5918 69.0918C17.1875 69.0918 7.86133 57.666 7.86133 39.1113C7.86133 10.791 31.8359 7.86133 69.2383 7.86133C106.592 7.86133 130.566 10.7422 130.566 39.1113C130.566 57.666 121.24 69.0918 106.836 69.0918C89.7461 69.0918 83.3008 53.3691 69.2383 53.3691Z" fill="#000000" fill-opacity="0.2125"/>
 </g>
</svg>
