<?xml version="1.0" encoding="UTF-8"?>
<!--Generator: Apple Native CoreSVG 232.5-->
<!DOCTYPE svg
PUBLIC "-//W3C//DTD SVG 1.1//EN"
       "http://www.w3.org/Graphics/SVG/1.1/DTD/svg11.dtd">
<svg version="1.1" xmlns="http://www.w3.org/2000/svg" xmlns:xlink="http://www.w3.org/1999/xlink" width="138.428" height="116.87">
 <g>
  <rect height="116.87" opacity="0" width="138.428" x="0" y="0"/>
  <path d="M86.9504 89.6727C79.9036 85.3068 74.5086 80.2858 69.2383 80.2858C59.8633 80.2858 50.1465 96.0084 31.5918 96.0084C13.5742 96.0084 0 79.651 0 58.1666C0 39.777 8.48365 29.9245 22.0979 24.7554ZM138.428 58.1666C138.428 74.9701 130.124 88.6373 117.867 93.7544L44.2003 20.0513C51.9433 19.2668 60.3976 19.0553 69.2383 19.0553C107.422 19.0553 138.428 22.9615 138.428 58.1666Z" fill="#000000" fill-opacity="0.85"/>
  <path d="M115.381 110.022C116.846 111.536 119.287 111.536 120.703 110.022C122.168 108.557 122.217 106.213 120.752 104.7L22.998 6.89709C21.5332 5.43225 19.1406 5.43225 17.627 6.89709C16.2109 8.36194 16.2109 10.8033 17.627 12.2194Z" fill="#000000" fill-opacity="0.85"/>
 </g>
</svg>
