<?xml version="1.0" encoding="UTF-8"?>
<!--Generator: Apple Native CoreSVG 232.5-->
<!DOCTYPE svg
PUBLIC "-//W3C//DTD SVG 1.1//EN"
       "http://www.w3.org/Graphics/SVG/1.1/DTD/svg11.dtd">
<svg version="1.1" xmlns="http://www.w3.org/2000/svg" xmlns:xlink="http://www.w3.org/1999/xlink" width="171.875" height="78.7598">
 <g>
  <rect height="78.7598" opacity="0" width="171.875" x="0" y="0"/>
  <path d="M3.75977 43.9453C1.70898 43.9453 0 42.1875 0 40.0879C0 37.9883 1.70898 36.1816 3.75977 36.1816L44.1895 36.1816L50.5859 36.4746L41.6016 28.1738C37.6953 24.6094 43.1152 19.5801 46.4355 23.0957L60.0586 37.2559C60.9863 38.2324 61.3281 39.1113 61.3281 40.0879C61.3281 41.0645 60.9863 41.8945 60.0586 42.8711L46.4844 56.9824C43.1152 60.498 37.8906 55.2734 41.6016 51.9531L50.5859 43.6523L44.1895 43.9453ZM85.9375 61.2305C95.2637 61.2305 104.98 76.9531 123.535 76.9531C141.553 76.9531 155.127 60.5957 155.127 39.1113C155.127 3.90625 124.17 0 85.9375 0C47.7051 0 16.6992 3.95508 16.6992 39.1113C16.6992 60.5957 30.3223 76.9531 48.291 76.9531C66.8945 76.9531 76.5625 61.2305 85.9375 61.2305Z" fill="#000000" fill-opacity="0.85"/>
 </g>
</svg>
