<?xml version="1.0" encoding="UTF-8"?>
<!--Generator: Apple Native CoreSVG 232.5-->
<!DOCTYPE svg
PUBLIC "-//W3C//DTD SVG 1.1//EN"
       "http://www.w3.org/Graphics/SVG/1.1/DTD/svg11.dtd">
<svg version="1.1" xmlns="http://www.w3.org/2000/svg" xmlns:xlink="http://www.w3.org/1999/xlink" width="149.951" height="114.014">
 <g>
  <rect height="114.014" opacity="0" width="149.951" x="0" y="0"/>
  <path d="M124.805 56.9824C124.805 84.1797 102.246 106.787 75 106.787C68.103 106.787 61.5012 105.333 55.4944 102.708C57.3032 100.592 58.83 98.2313 59.9961 95.6776C64.6259 97.5065 69.6898 98.4863 75 98.4863C98.0469 98.4863 116.504 80.0293 116.504 56.9824C116.504 33.9355 97.998 15.4785 74.9512 15.4785C53.8898 15.4785 36.743 30.8924 33.9921 51.1532C33.1723 51.0592 32.3369 51.0254 31.4941 51.0254C29.4476 51.0254 27.443 51.2257 25.5036 51.6215C28.2144 26.8374 49.5615 7.17773 74.9512 7.17773C102.197 7.17773 124.805 29.7363 124.805 56.9824ZM100.293 41.1621C100.293 42.4805 99.4629 43.6035 98.1934 43.9453C96.6309 44.4336 85.498 45.7031 84.1309 45.9473C82.7148 46.2402 81.9336 47.4121 81.9336 49.0723C81.9336 51.6113 81.9336 59.7168 82.4707 63.4277C83.0566 67.0898 87.3535 84.7168 87.5 85.498C88.0371 87.4023 86.9141 89.0625 85.0098 89.0625C83.6426 89.0625 82.666 88.3301 82.1777 86.4746C81.3477 82.9102 78.1738 70.7031 77.3438 67.7734C76.6602 65.625 76.123 64.8926 74.9512 64.8926C73.7305 64.8926 73.1934 65.625 72.6074 67.7734C71.6309 70.7031 68.5547 82.9102 67.7246 86.4746C67.1875 88.3301 66.2598 89.0625 64.8926 89.0625C63.7917 89.0625 62.9356 88.5077 62.5158 87.6698C62.8143 86.1415 62.9618 84.5671 62.9653 82.9623C64.2058 77.7846 66.9228 66.3027 67.3828 63.4277C68.0176 59.7168 68.0664 51.6113 68.0176 49.0723C67.9688 47.4121 67.1387 46.2402 65.7715 45.9473C64.3555 45.7031 53.2715 44.4336 51.6602 43.9453C50.4395 43.6035 49.6094 42.4805 49.6094 41.1621C49.6094 39.4043 50.8789 38.3789 52.0996 38.3789C52.5879 38.3789 52.9785 38.5254 53.418 38.5742C58.1543 39.3066 68.0176 40.4785 74.9512 40.4785C81.9336 40.4785 91.748 39.3066 96.4355 38.5742C96.875 38.5254 97.3145 38.3789 97.7539 38.3789C98.9746 38.3789 100.293 39.4043 100.293 41.1621ZM81.2988 30.9082C81.2988 34.375 78.4668 37.2559 74.9512 37.2559C71.4355 37.2559 68.6035 34.375 68.6035 30.9082C68.6035 27.3926 71.4355 24.5605 74.9512 24.5605C78.4668 24.5605 81.2988 27.3926 81.2988 30.9082Z" fill="#000000" fill-opacity="0.85"/>
  <path d="M56.2988 82.5195C56.2988 96.0938 44.9219 107.324 31.4941 107.324C17.9199 107.324 6.68945 96.1914 6.68945 82.5195C6.68945 68.9453 17.9199 57.7148 31.4941 57.7148C45.1172 57.7148 56.2988 68.8965 56.2988 82.5195ZM29.3457 71.9238L23.877 77.1973C23.7793 77.2461 23.6328 77.3438 23.5352 77.3438L19.873 77.3438C18.1152 77.3438 17.1875 78.2227 17.1875 80.127L17.1875 84.9121C17.1875 86.7676 18.1152 87.6953 19.873 87.6953L23.5352 87.6953C23.6328 87.6953 23.7793 87.7441 23.877 87.8418L29.3457 93.0664C29.9805 93.6035 30.4688 93.8477 31.0547 93.8477C31.9336 93.8477 32.5684 93.2129 32.5684 92.3828L32.5684 72.6074C32.5684 71.7285 31.9336 71.1426 31.0547 71.1426C30.4688 71.1426 29.9805 71.3867 29.3457 71.9238ZM41.7969 73.2422C41.0645 73.7305 40.918 74.707 41.4551 75.4883C42.8223 77.4414 43.5547 79.8828 43.5547 82.4707C43.5547 85.1074 42.7734 87.5977 41.5039 89.5508C41.0156 90.2344 41.0645 91.2109 41.748 91.748C42.4316 92.1875 43.3594 92.041 43.9453 91.3574C45.6543 88.9648 46.582 85.791 46.582 82.4707C46.582 79.1504 45.6543 75.9766 43.8965 73.6328C43.3105 72.9492 42.4805 72.8516 41.7969 73.2422ZM36.8164 76.6113C36.0352 77.0508 35.9375 78.1738 36.5234 78.8574C37.1094 79.7363 37.5 81.1035 37.5 82.4707C37.5 83.9355 37.1582 85.1562 36.5234 86.1328C35.9375 86.8652 36.0352 87.793 36.7676 88.3301C37.4512 88.8672 38.3789 88.7207 38.916 87.9395C39.9902 86.5234 40.625 84.5215 40.625 82.4707C40.625 80.4688 39.9902 78.4668 38.9648 77.0508C38.4277 76.3184 37.5488 76.1719 36.8164 76.6113Z" fill="#000000" fill-opacity="0.85"/>
 </g>
</svg>
