<?xml version="1.0" encoding="UTF-8"?>
<!--Generator: Apple Native CoreSVG 232.5-->
<!DOCTYPE svg
PUBLIC "-//W3C//DTD SVG 1.1//EN"
       "http://www.w3.org/Graphics/SVG/1.1/DTD/svg11.dtd">
<svg version="1.1" xmlns="http://www.w3.org/2000/svg" xmlns:xlink="http://www.w3.org/1999/xlink" width="99.6094" height="99.6582">
 <g>
  <rect height="99.6582" opacity="0" width="99.6094" x="0" y="0"/>
  <path d="M49.8047 99.6094C77.0508 99.6094 99.6094 77.002 99.6094 49.8047C99.6094 22.5586 77.002 0 49.7559 0C22.5586 0 0 22.5586 0 49.8047C0 77.002 22.6074 99.6094 49.8047 99.6094ZM49.8047 91.3086C26.7578 91.3086 8.34961 72.8516 8.34961 49.8047C8.34961 26.7578 26.709 8.30078 49.7559 8.30078C72.8027 8.30078 91.3086 26.7578 91.3086 49.8047C91.3086 72.8516 72.8516 91.3086 49.8047 91.3086Z" fill="#000000" fill-opacity="0.85"/>
  <path d="M58.4473 36.8164C60.7422 32.6172 61.4258 28.8086 60.0098 25.6836C56.8359 24.3652 53.418 23.584 49.8047 23.584C42.3828 23.584 35.5957 26.8066 30.8105 31.8359C40.0391 28.3691 52.0996 31.9336 58.4473 36.8164ZM48.0469 49.3164C51.4648 46.1914 54.3945 43.0176 56.543 39.8926C49.4141 34.3262 34.5215 30.7129 26.2695 38.2812C24.8047 41.2109 23.877 44.4824 23.6328 47.8516C29.7852 43.75 39.9414 45.9961 48.0469 49.3164ZM31.9824 49.0723C28.4668 49.0234 25.4883 49.8535 23.6816 52.1484C24.6094 62.7441 32.0312 71.6309 41.9434 74.7559C37.1582 69.1406 32.2266 59.4727 31.9824 49.0723ZM46.8262 52.7344C43.1641 51.123 39.209 49.9023 35.5957 49.4141C36.1328 63.0859 44.9707 74.5605 49.2188 76.0254C52.7832 76.0254 55.6152 75.4883 58.3008 74.5605C51.9531 70.752 47.2656 60.6934 46.8262 52.7344ZM62.9395 72.4609C70.6543 67.8711 75.9766 59.375 75.9766 49.8047C75.9766 46.7773 75.3906 43.8477 74.4629 41.1621C72.6562 48.0957 67.2852 58.1055 55.5664 67.1387C57.7148 70.166 60.3027 72.2168 62.9395 72.4609ZM53.7109 64.0625C68.75 52.2461 72.3633 39.3555 71.6309 35.4492C69.6289 32.4219 67.041 29.8828 64.0137 27.9297C64.8926 35.4492 58.6426 44.5801 50.3906 52.0508C50.5371 56.0547 51.8066 60.4492 53.7109 64.0625Z" fill="#000000" fill-opacity="0.85"/>
 </g>
</svg>
