<?xml version="1.0" encoding="UTF-8"?>
<!--Generator: Apple Native CoreSVG 232.5-->
<!DOCTYPE svg
PUBLIC "-//W3C//DTD SVG 1.1//EN"
       "http://www.w3.org/Graphics/SVG/1.1/DTD/svg11.dtd">
<svg version="1.1" xmlns="http://www.w3.org/2000/svg" xmlns:xlink="http://www.w3.org/1999/xlink" width="99.4629" height="99.6582">
 <g>
  <rect height="99.6582" opacity="0" width="99.4629" x="0" y="0"/>
  <path d="M66.2109 25.3906C70.5566 17.4805 72.0215 10.1562 69.3848 4.15039C63.2812 1.51367 56.5918 0 49.6094 0C35.4004 0 22.4121 6.20117 13.3789 16.0156C30.9082 9.13086 54.3457 16.0645 66.2109 25.3906ZM46.3867 49.1211C53.0273 43.0664 58.5938 36.9629 62.7441 30.957C49.3164 20.3125 21.3867 13.2812 5.41992 27.1973C2.34375 32.9102 0.439453 39.3555 0 46.2402C11.6699 38.3789 30.957 42.6758 46.3867 49.1211ZM16.0645 48.1445C9.27734 47.9492 3.51562 49.6094 0 53.9062C1.70898 74.2188 16.0645 91.3574 35.0586 97.2168C25.9766 86.6699 16.4551 68.1641 16.0645 48.1445ZM44.2383 55.1758C37.0605 52.0996 29.4434 49.707 22.4609 48.8281C23.3887 74.8047 40.1367 96.7285 48.1934 99.6094C54.7363 99.707 60.7422 98.6816 66.0645 96.7285C54.0527 89.5996 44.9219 70.3613 44.2383 55.1758ZM74.3652 92.9199C89.2578 84.2773 99.4629 68.0664 99.4629 49.8047C99.4629 43.8965 98.3398 38.1836 96.3867 32.9102C93.1641 46.0938 83.1055 65.332 60.4004 82.666C64.502 88.5254 69.4336 92.5293 74.3652 92.9199ZM57.0801 77.1973C85.791 54.7363 92.8223 30.2246 91.4062 22.8516C87.5 16.9434 82.4219 11.8652 76.4648 8.00781C78.2715 22.2656 66.3574 39.6484 50.5371 53.9062C50.8301 61.7188 53.3203 70.1172 57.0801 77.1973Z" fill="#000000" fill-opacity="0.85"/>
 </g>
</svg>
