<?xml version="1.0" encoding="UTF-8"?>
<!--Generator: Apple Native CoreSVG 232.5-->
<!DOCTYPE svg
PUBLIC "-//W3C//DTD SVG 1.1//EN"
       "http://www.w3.org/Graphics/SVG/1.1/DTD/svg11.dtd">
<svg version="1.1" xmlns="http://www.w3.org/2000/svg" xmlns:xlink="http://www.w3.org/1999/xlink" width="99.6094" height="99.6582">
 <g>
  <rect height="99.6582" opacity="0" width="99.6094" x="0" y="0"/>
  <path d="M69.8242 93.6035L70.9961 87.3535C60.0098 87.207 52.7832 68.9941 50.7324 53.9062C69.8242 36.6211 83.3008 14.8438 73.1934 6.34766L69.043 11.1328C74.707 15.8203 64.4043 32.9102 46.582 49.1211C28.9062 41.7969 11.084 39.0137 2.14844 49.3164L6.73828 52.832C13.1348 46.0449 27.5391 48.0957 44.4336 55.1758C46.7285 71.0938 55.1758 92.7246 69.8242 93.6035ZM57.7637 78.0762C90.2344 58.3984 94.9219 32.959 92.3828 24.6582L86.2793 26.4648C88.1348 32.666 84.1309 55.1758 53.6621 73.1934ZM44.6289 98.1445L49.4141 93.0664C41.4551 90.8691 23.9746 74.5117 23.584 46.4844L17.1875 47.0215C17.627 74.8047 34.2773 93.1152 44.6289 98.1445ZM62.5977 33.8379L65.3809 28.125C51.6113 19.1406 27.4902 11.6211 8.69141 24.2188L9.13086 30.9082C25.8789 18.0176 48.877 24.9512 62.5977 33.8379ZM49.8047 0C22.6074 0 0 22.5586 0 49.8047C0 77.002 22.6562 99.6094 49.8535 99.6094C77.0996 99.6094 99.6094 77.002 99.6094 49.8047C99.6094 22.5586 77.0508 0 49.8047 0ZM49.8047 6.64062C73.3887 6.64062 92.9688 26.2207 92.9688 49.8047C92.9688 73.3887 73.4375 92.9688 49.8535 92.9688C26.2695 92.9688 6.64062 73.3887 6.64062 49.8047C6.64062 26.2207 26.2207 6.64062 49.8047 6.64062Z" fill="#000000" fill-opacity="0.85"/>
 </g>
</svg>
