<?xml version="1.0" encoding="UTF-8"?>
<!--Generator: Apple Native CoreSVG 232.5-->
<!DOCTYPE svg
PUBLIC "-//W3C//DTD SVG 1.1//EN"
       "http://www.w3.org/Graphics/SVG/1.1/DTD/svg11.dtd">
<svg version="1.1" xmlns="http://www.w3.org/2000/svg" xmlns:xlink="http://www.w3.org/1999/xlink" width="99.6094" height="99.6582">
 <g>
  <rect height="99.6582" opacity="0" width="99.6094" x="0" y="0"/>
  <path d="M49.8047 99.6094C77.0508 99.6094 99.6094 77.002 99.6094 49.8047C99.6094 22.5586 77.002 0 49.7559 0C22.5586 0 0 22.5586 0 49.8047C0 77.002 22.6074 99.6094 49.8047 99.6094ZM49.8047 91.3086C26.7578 91.3086 8.34961 72.8516 8.34961 49.8047C8.34961 26.7578 26.709 8.30078 49.7559 8.30078C72.8027 8.30078 91.3086 26.7578 91.3086 49.8047C91.3086 72.8516 72.8516 91.3086 49.8047 91.3086Z" fill="#000000" fill-opacity="0.85"/>
  <path d="M36.6211 72.6562C39.2578 72.6562 41.0156 71.3379 41.6016 68.8965L49.5117 38.0859L49.8535 38.0859L57.8125 68.8965C58.3984 71.3379 60.1562 72.6562 62.7441 72.6562C65.332 72.6562 66.9922 71.2891 67.627 68.7988L77.2949 31.7383C77.4902 31.2012 77.5391 30.7129 77.5391 30.2734C77.5391 28.0762 76.0254 26.5625 73.7793 26.5625C71.4844 26.5625 70.4102 27.6367 69.7754 30.4199L62.5 61.4746L62.1582 61.4746L53.9551 29.8828C53.3691 27.6855 52.002 26.6602 49.707 26.6602C47.4121 26.6602 45.9473 27.6855 45.4102 29.8828L37.2559 61.4746L36.9141 61.4746L29.6387 30.4199C29.0039 27.6367 27.9785 26.5625 25.6836 26.5625C23.3887 26.5625 21.9238 28.0762 21.9238 30.2734C21.9238 30.7129 21.9727 31.2012 22.1191 31.7383L31.7871 68.7988C32.4219 71.2891 34.082 72.6562 36.6211 72.6562Z" fill="#000000" fill-opacity="0.85"/>
 </g>
</svg>
