<?xml version="1.0" encoding="UTF-8"?>
<!--Generator: Apple Native CoreSVG 232.5-->
<!DOCTYPE svg
PUBLIC "-//W3C//DTD SVG 1.1//EN"
       "http://www.w3.org/Graphics/SVG/1.1/DTD/svg11.dtd">
<svg version="1.1" xmlns="http://www.w3.org/2000/svg" xmlns:xlink="http://www.w3.org/1999/xlink" width="99.6094" height="99.6582">
 <g>
  <rect height="99.6582" opacity="0" width="99.6094" x="0" y="0"/>
  <path d="M49.8047 99.6094C77.0508 99.6094 99.6094 77.002 99.6094 49.8047C99.6094 22.5586 77.002 0 49.7559 0C22.5586 0 0 22.5586 0 49.8047C0 77.002 22.6074 99.6094 49.8047 99.6094ZM49.8047 91.3086C26.7578 91.3086 8.34961 72.8516 8.34961 49.8047C8.34961 26.7578 26.709 8.30078 49.7559 8.30078C72.8027 8.30078 91.3086 26.7578 91.3086 49.8047C91.3086 72.8516 72.8516 91.3086 49.8047 91.3086Z" fill="#000000" fill-opacity="0.85"/>
  <path d="M19.6777 49.8047C19.6777 66.2598 33.3496 79.9316 49.7559 79.9316C66.2598 79.9316 79.9316 66.2598 79.9316 49.8047C79.9316 33.3008 66.3086 19.6777 49.8047 19.6777C33.3496 19.6777 19.6777 33.3008 19.6777 49.8047ZM26.709 49.8047C26.709 47.0703 27.1973 44.3848 28.0762 41.9434L71.582 41.9434C72.4609 44.3848 72.9492 47.0703 72.9492 49.8047C72.9004 62.6953 62.5977 72.9492 49.7559 72.9492C36.9141 72.9492 26.709 62.6953 26.709 49.8047ZM31.6895 35.498C35.8398 30.127 42.3828 26.6602 49.8047 26.6602C57.2266 26.6602 63.7695 30.127 68.0176 35.498Z" fill="#000000" fill-opacity="0.85"/>
 </g>
</svg>
