<?xml version="1.0" encoding="UTF-8"?>
<!--Generator: Apple Native CoreSVG 232.5-->
<!DOCTYPE svg
PUBLIC "-//W3C//DTD SVG 1.1//EN"
       "http://www.w3.org/Graphics/SVG/1.1/DTD/svg11.dtd">
<svg version="1.1" xmlns="http://www.w3.org/2000/svg" xmlns:xlink="http://www.w3.org/1999/xlink" width="99.6094" height="99.6582">
 <g>
  <rect height="99.6582" opacity="0" width="99.6094" x="0" y="0"/>
  <path d="M0 49.8047C0 77.002 22.6074 99.6094 49.8047 99.6094C77.0508 99.6094 99.6094 77.002 99.6094 49.8047C99.6094 22.5586 77.002 0 49.7559 0C22.5586 0 0 22.5586 0 49.8047ZM8.34961 49.8047C8.34961 44.3848 9.375 39.2578 11.2793 34.5215L88.3789 34.5215C90.2832 39.2578 91.3086 44.3848 91.3086 49.8047C91.3574 72.8516 72.8516 91.3086 49.8047 91.3086C26.7578 91.3086 8.34961 72.8516 8.34961 49.8047ZM14.9902 27.1484C22.3145 15.7715 35.0586 8.30078 49.7559 8.30078C64.4531 8.30078 77.2461 15.7715 84.5703 27.1484Z" fill="#000000" fill-opacity="0.85"/>
 </g>
</svg>
