<?xml version="1.0" encoding="UTF-8"?>
<!--Generator: Apple Native CoreSVG 232.5-->
<!DOCTYPE svg
PUBLIC "-//W3C//DTD SVG 1.1//EN"
       "http://www.w3.org/Graphics/SVG/1.1/DTD/svg11.dtd">
<svg version="1.1" xmlns="http://www.w3.org/2000/svg" xmlns:xlink="http://www.w3.org/1999/xlink" width="82.1289" height="104.736">
 <g>
  <rect height="104.736" opacity="0" width="82.1289" x="0" y="0"/>
  <path d="M15.1367 104.688L66.9922 104.688C77.0508 104.688 82.1289 99.5605 82.1289 89.4043L82.1289 15.332C82.1289 5.12695 77.0996 0 66.9922 0L52.4902 0C50.8301 0 49.7559 1.17188 49.7559 2.92969C49.7559 8.00781 46.2402 11.5723 41.0645 11.5723C35.8887 11.5723 32.3242 8.00781 32.3242 2.92969C32.3242 1.17188 31.25 0 29.5898 0L15.1367 0C5.0293 0 0 5.12695 0 15.332L0 89.4043C0 99.5605 5.07812 104.688 15.1367 104.688ZM15.5273 96.8262C10.4492 96.8262 7.86133 94.0918 7.86133 89.2578L7.86133 15.4785C7.86133 10.5957 10.4492 7.86133 15.5273 7.86133L29.4434 7.86133L24.9023 5.07812C25.7812 13.623 32.1289 19.1895 41.0645 19.1895C50 19.1895 56.3477 13.623 57.2754 5.07812L52.6855 7.86133L66.6016 7.86133C71.6797 7.86133 74.2676 10.5957 74.2676 15.4785L74.2676 89.2578C74.2676 94.0918 71.6797 96.8262 66.6016 96.8262ZM22.5586 36.377L59.6191 36.377C61.3281 36.377 62.5977 35.0586 62.5977 33.3008C62.5977 31.6406 61.3281 30.3223 59.6191 30.3223L22.5586 30.3223C20.8008 30.3223 19.5312 31.6406 19.5312 33.3008C19.5312 35.0586 20.8008 36.377 22.5586 36.377ZM22.5586 53.7109L40.0879 53.7109C41.8457 53.7109 43.1152 52.3926 43.1152 50.7324C43.1152 49.0234 41.8457 47.7051 40.0879 47.7051L22.5586 47.7051C20.8008 47.7051 19.5312 49.0234 19.5312 50.7324C19.5312 52.3926 20.8008 53.7109 22.5586 53.7109Z" fill="#000000" fill-opacity="0.85"/>
 </g>
</svg>
