<?xml version="1.0" encoding="UTF-8"?>
<!--Generator: Apple Native CoreSVG 232.5-->
<!DOCTYPE svg
PUBLIC "-//W3C//DTD SVG 1.1//EN"
       "http://www.w3.org/Graphics/SVG/1.1/DTD/svg11.dtd">
<svg version="1.1" xmlns="http://www.w3.org/2000/svg" xmlns:xlink="http://www.w3.org/1999/xlink" width="104.053" height="104.443">
 <g>
  <rect height="104.443" opacity="0" width="104.053" x="0" y="0"/>
  <path d="M91.5039 99.4629C93.5547 101.562 97.0703 101.562 99.0234 99.4629C101.074 97.3145 101.025 93.9941 99.0234 91.9434L52.6367 45.3613C50.5859 43.3105 47.0215 43.3105 45.0684 45.3613C43.0664 47.5098 43.1152 50.8789 45.0684 52.9297ZM63.1348 65.918L48.7793 51.5625C47.9004 50.6836 47.6562 49.707 48.4863 48.877C49.2188 48.0957 50.293 48.291 51.1719 49.2188L65.5273 63.5742Z" fill="#000000" fill-opacity="0.85"/>
  <path d="M99.7559 56.25C102.1 56.25 104.053 54.2969 104.053 52.002C104.053 49.707 102.1 47.7539 99.7559 47.7539L84.7168 47.7539C82.4219 47.7539 80.4688 49.707 80.4688 52.002C80.4688 54.2969 82.4219 56.25 84.7168 56.25Z" fill="#000000" fill-opacity="0.85"/>
  <path d="M72.0215 26.0254C70.3613 27.6367 70.3613 30.3711 72.0215 32.0312C73.6328 33.6426 76.416 33.6426 78.0762 32.0312L88.6719 21.3867C90.332 19.7266 90.332 16.9922 88.6719 15.332C87.0605 13.7207 84.3262 13.7207 82.7148 15.332Z" fill="#000000" fill-opacity="0.85"/>
  <path d="M56.2988 4.24805C56.2988 1.95312 54.3457 0 52.002 0C49.707 0 47.7539 1.95312 47.7539 4.24805L47.7539 19.2871C47.7539 21.6309 49.707 23.584 52.002 23.584C54.3457 23.584 56.2988 21.6309 56.2988 19.2871Z" fill="#000000" fill-opacity="0.85"/>
  <path d="M25.9766 32.0312C27.5879 33.6426 30.3223 33.6426 31.9824 32.0312C33.5938 30.3711 33.5938 27.6367 31.9824 26.0254L21.3867 15.3809C19.7754 13.7695 17.041 13.7207 15.3809 15.332C13.7695 16.9434 13.7695 19.6777 15.3809 21.3379Z" fill="#000000" fill-opacity="0.85"/>
  <path d="M4.24805 47.7539C1.95312 47.7539 0 49.707 0 52.002C0 54.2969 1.95312 56.25 4.24805 56.25L19.3848 56.25C21.6797 56.25 23.6328 54.2969 23.6328 52.002C23.6328 49.707 21.6797 47.7539 19.3848 47.7539Z" fill="#000000" fill-opacity="0.85"/>
  <path d="M15.332 82.6172C13.7207 84.2285 13.7207 87.0117 15.2832 88.623C16.8945 90.2344 19.6777 90.2832 21.3379 88.6719L31.9824 78.0273C33.5938 76.416 33.5938 73.6816 31.9824 72.0703C30.4199 70.4102 27.5879 70.4102 25.9766 72.0703Z" fill="#000000" fill-opacity="0.85"/>
  <path d="M56.2988 84.7656C56.2988 82.4219 54.3457 80.4688 52.002 80.4688C49.707 80.4688 47.7539 82.4219 47.7539 84.7656L47.7539 99.8047C47.7539 102.1 49.707 104.053 52.002 104.053C54.3457 104.053 56.2988 102.1 56.2988 99.8047Z" fill="#000000" fill-opacity="0.85"/>
 </g>
</svg>
