<?xml version="1.0" encoding="UTF-8"?>
<!--Generator: Apple Native CoreSVG 232.5-->
<!DOCTYPE svg
PUBLIC "-//W3C//DTD SVG 1.1//EN"
       "http://www.w3.org/Graphics/SVG/1.1/DTD/svg11.dtd">
<svg version="1.1" xmlns="http://www.w3.org/2000/svg" xmlns:xlink="http://www.w3.org/1999/xlink" width="106.299" height="98.0957">
 <g>
  <rect height="98.0957" opacity="0" width="106.299" x="0" y="0"/>
  <path d="M97.2656 96.2891C99.3164 98.3887 102.832 98.3887 104.785 96.2891C106.787 94.1406 106.787 90.8203 104.785 88.7695L58.3496 42.1875C56.2988 40.1367 52.7832 40.1367 50.8301 42.1875C48.7793 44.3359 48.8281 47.7051 50.8301 49.7559ZM68.8477 62.7441L54.541 48.3887C53.6621 47.5098 53.3691 46.5332 54.248 45.7031C54.9805 44.9219 56.0059 45.1172 56.9336 46.0449L71.2891 60.4004Z" fill="#000000" fill-opacity="0.85"/>
  <path d="M37.0605 97.0703C37.9395 97.0703 38.5742 96.4355 38.7207 95.5078C40.2832 82.4707 40.918 82.1289 54.1992 79.9805C55.2246 79.7852 55.8594 79.2969 55.8594 78.3203C55.8594 77.3926 55.2246 76.8066 54.3945 76.6602C41.0156 74.1211 40.2832 74.1699 38.7207 61.1328C38.5742 60.2051 37.9395 59.5703 37.0605 59.5703C36.1328 59.5703 35.498 60.2051 35.4004 61.084C33.6914 74.3164 33.252 74.7559 19.7266 76.6602C18.8965 76.7578 18.2617 77.3926 18.2617 78.3203C18.2617 79.248 18.8965 79.7852 19.7266 79.9805C33.252 82.5684 33.6426 82.5684 35.4004 95.6055C35.498 96.4355 36.1328 97.0703 37.0605 97.0703ZM13.8672 54.541C14.5508 54.541 14.9414 54.0527 15.0879 53.418C16.748 44.1406 16.7969 43.5547 26.6113 41.8945C27.2461 41.748 27.7344 41.3574 27.7344 40.6738C27.7344 39.9902 27.2461 39.5508 26.6113 39.4531C16.7969 37.7441 16.748 37.1582 15.0879 27.8809C14.9414 27.2461 14.5508 26.8066 13.8672 26.8066C13.1836 26.8066 12.793 27.2461 12.6465 27.8809C10.9863 37.1582 10.9375 37.7441 1.12305 39.4531C0.488281 39.5508 0 39.9902 0 40.6738C0 41.3574 0.488281 41.748 1.12305 41.8945C10.9375 43.5547 10.9863 44.1406 12.6465 53.418C12.793 54.0527 13.1836 54.541 13.8672 54.541ZM40.625 23.291C41.2109 23.291 41.5039 22.9492 41.6016 22.4121C43.2617 14.5996 43.1641 14.3066 51.3672 12.6465C51.9043 12.5488 52.2949 12.207 52.2949 11.6699C52.2949 11.084 51.9043 10.7422 51.3672 10.6445C43.1641 8.98438 43.2617 8.69141 41.6016 0.927734C41.5039 0.390625 41.2109 0 40.625 0C40.0391 0 39.7461 0.390625 39.6484 0.927734C37.9883 8.69141 38.0859 8.98438 29.8828 10.6445C29.3457 10.7422 28.9551 11.084 28.9551 11.6699C28.9551 12.207 29.3457 12.5488 29.8828 12.6465C38.0859 14.3066 37.9883 14.5996 39.6484 22.4121C39.7461 22.9492 40.0391 23.291 40.625 23.291ZM80.957 40.5273C81.6406 40.5273 82.0312 40.0879 82.1777 39.4531C83.8379 30.1758 83.8867 29.5898 93.7012 27.8809C94.3848 27.7832 94.8242 27.3438 94.8242 26.6602C94.8242 25.9766 94.3848 25.5859 93.7012 25.4395C83.8867 23.7793 83.8379 23.1934 82.1777 13.916C82.0312 13.2812 81.6406 12.793 80.957 12.793C80.2734 12.793 79.8828 13.2812 79.7363 13.916C78.0762 23.1934 78.0273 23.7793 68.2129 25.4395C67.5781 25.5859 67.0898 25.9766 67.0898 26.6602C67.0898 27.3438 67.5781 27.7832 68.2129 27.8809C78.0273 29.5898 78.0762 30.1758 79.7363 39.4531C79.8828 40.0879 80.2734 40.5273 80.957 40.5273Z" fill="#000000" fill-opacity="0.85"/>
 </g>
</svg>
