<?xml version="1.0" encoding="UTF-8"?>
<!--Generator: Apple Native CoreSVG 232.5-->
<!DOCTYPE svg
PUBLIC "-//W3C//DTD SVG 1.1//EN"
       "http://www.w3.org/Graphics/SVG/1.1/DTD/svg11.dtd">
<svg version="1.1" xmlns="http://www.w3.org/2000/svg" xmlns:xlink="http://www.w3.org/1999/xlink" width="99.6094" height="99.6582">
 <g>
  <rect height="99.6582" opacity="0" width="99.6094" x="0" y="0"/>
  <path d="M99.6094 49.8535C99.6094 77.0996 77.0508 99.6582 49.8047 99.6582C22.6074 99.6582 0 77.0996 0 49.8535C0 22.6562 22.5586 0.0488281 49.7559 0.0488281C77.002 0.0488281 99.6094 22.6562 99.6094 49.8535ZM26.8555 39.1602L26.8555 71.0449C26.8555 74.8047 29.248 77.3438 32.9102 77.3438L66.3086 77.3438C69.9707 77.3438 72.3633 74.8047 72.3633 71.0449L72.3633 39.1602ZM63.8184 57.2266C63.8184 64.9902 57.4707 71.3867 49.6094 71.3867C41.748 71.3867 35.4004 64.9902 35.4004 57.2266C35.4004 49.3652 41.748 43.0176 49.6094 43.0176C57.4707 43.0176 63.8184 49.3652 63.8184 57.2266ZM39.0137 57.2266C39.0137 63.1348 43.6523 67.7734 49.6094 67.7734C55.5664 67.7734 60.2051 63.1348 60.2051 57.2266C60.2051 51.2695 55.5664 46.582 49.6094 46.582C43.6523 46.582 39.0137 51.2695 39.0137 57.2266ZM32.9102 22.2168C29.248 22.2168 26.8555 24.707 26.8555 28.4668L26.8555 35.4004L72.3633 35.4004L72.3633 28.4668C72.3633 24.707 69.9707 22.2168 66.3086 22.2168ZM38.6719 30.0781C38.6719 31.3477 37.6465 32.4219 36.3281 32.4219C35.0098 32.4219 33.9355 31.3477 33.9355 30.0781C33.9355 28.7109 35.0098 27.5879 36.3281 27.5879C37.6465 27.5879 38.6719 28.7109 38.6719 30.0781ZM45.6543 30.0781C45.6543 31.3477 44.5801 32.4219 43.2617 32.4219C41.8945 32.4219 40.918 31.3477 40.918 30.0781C40.918 28.7109 41.8945 27.5879 43.2617 27.5879C44.5801 27.5879 45.6543 28.7109 45.6543 30.0781ZM65.8691 30.0781C65.8691 30.9082 65.2832 31.4941 64.4043 31.4941L57.9102 31.4941C57.0801 31.4941 56.4453 30.9082 56.4453 30.0781C56.4453 29.1504 57.0801 28.5645 57.9102 28.5645L64.4043 28.5645C65.2832 28.5645 65.8691 29.1504 65.8691 30.0781Z" fill="#000000" fill-opacity="0.85"/>
 </g>
</svg>
