<?xml version="1.0" encoding="UTF-8"?>
<!--Generator: Apple Native CoreSVG 232.5-->
<!DOCTYPE svg
PUBLIC "-//W3C//DTD SVG 1.1//EN"
       "http://www.w3.org/Graphics/SVG/1.1/DTD/svg11.dtd">
<svg version="1.1" xmlns="http://www.w3.org/2000/svg" xmlns:xlink="http://www.w3.org/1999/xlink" width="53.5645" height="115.771">
 <g>
  <rect height="115.771" opacity="0" width="53.5645" x="0" y="0"/>
  <path d="M13.4766 12.5488L40.1367 12.5488C42.627 12.5488 44.4824 10.791 44.4824 8.20312L44.4824 4.3457C44.4824 1.80664 42.627 0 40.1367 0L13.4766 0C10.8887 0 9.13086 1.80664 9.13086 4.3457L9.13086 8.20312C9.13086 10.791 10.8887 12.5488 13.4766 12.5488ZM0.0488281 36.2305L53.5156 36.2305C53.3203 30.6641 52.3926 26.6113 49.1699 22.3145L48.0957 20.8008C46.7773 19.043 44.5801 17.7734 42.3828 17.7734L11.1328 17.7734C8.93555 17.7734 6.78711 19.043 5.46875 20.8008L4.3457 22.3145C1.12305 26.6113 0.244141 30.6641 0.0488281 36.2305ZM0 42.627L0 92.1875L53.5645 92.1875L53.5645 42.627ZM26.7578 84.2285C19.6777 84.2285 15.0391 79.7363 15.0391 72.9004C15.0391 69.3848 16.6504 66.5527 17.4316 64.6973C19.2871 60.7422 22.3633 55.5664 24.9512 51.6113C25.4883 50.8301 26.123 50.3906 26.7578 50.3906C27.4414 50.3906 28.0762 50.8301 28.5645 51.6113C31.1523 55.5664 34.3262 60.7422 36.084 64.6973C36.9629 66.5527 38.5254 69.3848 38.5254 72.9004C38.5254 79.7363 33.8867 84.2285 26.7578 84.2285ZM0 98.584L0 99.4141C0 109.961 5.22461 115.674 14.7949 115.674L38.7695 115.674C48.291 115.674 53.5645 109.961 53.5645 99.4141L53.5645 98.584Z" fill="#000000" fill-opacity="0.85"/>
 </g>
</svg>
