<?xml version="1.0" encoding="UTF-8"?>
<!--Generator: Apple Native CoreSVG 232.5-->
<!DOCTYPE svg
PUBLIC "-//W3C//DTD SVG 1.1//EN"
       "http://www.w3.org/Graphics/SVG/1.1/DTD/svg11.dtd">
<svg version="1.1" xmlns="http://www.w3.org/2000/svg" xmlns:xlink="http://www.w3.org/1999/xlink" width="99.6094" height="99.6582">
 <g>
  <rect height="99.6582" opacity="0" width="99.6094" x="0" y="0"/>
  <path d="M99.6094 49.8535C99.6094 77.0996 77.0508 99.6582 49.8047 99.6582C22.6074 99.6582 0 77.0996 0 49.8535C0 22.6562 22.5586 0.0488281 49.7559 0.0488281C77.002 0.0488281 99.6094 22.6562 99.6094 49.8535ZM41.6504 25L41.6504 74.6582C41.6504 76.416 42.9688 77.6855 44.7266 77.6855C46.3867 77.6855 47.7051 76.3672 47.7051 74.6582L47.7051 25C47.7051 23.291 46.3867 21.9727 44.7266 21.9727C43.0176 21.9727 41.6504 23.291 41.6504 25ZM62.0605 31.9824L62.0605 67.6758C62.0605 69.3359 63.3789 70.6543 65.1367 70.6543C66.8457 70.6543 68.1641 69.3359 68.1641 67.6758L68.1641 31.9824C68.1641 30.3223 66.8457 28.9551 65.1367 28.9551C63.3789 28.9551 62.0605 30.3223 62.0605 31.9824ZM31.4453 36.8164L31.4453 62.7441C31.4453 64.5508 32.7637 65.8691 34.4727 65.8691C36.2305 65.8691 37.5488 64.5508 37.5488 62.7441L37.5488 36.8164C37.5488 35.1074 36.2305 33.7891 34.4727 33.7891C32.7637 33.7891 31.4453 35.1074 31.4453 36.8164ZM51.8555 41.3574L51.8555 58.252C51.8555 59.9609 53.2227 61.2793 54.8828 61.2793C56.5918 61.2793 57.9102 59.9609 57.9102 58.252L57.9102 41.3574C57.9102 39.6973 56.5918 38.3789 54.8828 38.3789C53.2227 38.3789 51.8555 39.6973 51.8555 41.3574ZM72.3145 43.4082L72.3145 56.25C72.3145 57.959 73.6328 59.2773 75.3906 59.2773C77.0996 59.2773 78.3691 58.0078 78.3691 56.25L78.3691 43.4082C78.3691 41.6504 77.0996 40.332 75.3906 40.332C73.6328 40.332 72.3145 41.6992 72.3145 43.4082ZM21.2402 45.3613L21.2402 54.1992C21.2402 55.957 22.6074 57.2754 24.2188 57.2754C25.9766 57.2754 27.2949 55.957 27.2949 54.1992L27.2949 45.3613C27.2949 43.7012 25.9766 42.3828 24.2188 42.3828C22.5586 42.3828 21.2402 43.7012 21.2402 45.3613Z" fill="#000000" fill-opacity="0.85"/>
 </g>
</svg>
