<?xml version="1.0" encoding="UTF-8"?>
<!--Generator: Apple Native CoreSVG 232.5-->
<!DOCTYPE svg
PUBLIC "-//W3C//DTD SVG 1.1//EN"
       "http://www.w3.org/Graphics/SVG/1.1/DTD/svg11.dtd">
<svg version="1.1" xmlns="http://www.w3.org/2000/svg" xmlns:xlink="http://www.w3.org/1999/xlink" width="89.9902" height="102.002">
 <g>
  <rect height="102.002" opacity="0" width="89.9902" x="0" y="0"/>
  <path d="M86.0352 66.5527C88.2324 66.5527 89.9902 64.7949 89.9902 62.6465L89.9902 39.3555C89.9902 37.207 88.2324 35.4004 86.0352 35.4004C83.7891 35.4004 82.1289 37.207 82.1289 39.3555L82.1289 62.6465C82.1289 64.7949 83.7891 66.5527 86.0352 66.5527Z" fill="#000000" fill-opacity="0.85"/>
  <path d="M69.6289 91.1621C71.8262 91.1621 73.5352 89.4043 73.5352 87.2559L73.5352 14.7461C73.5352 12.5977 71.8262 10.791 69.6289 10.791C67.334 10.791 65.6738 12.5977 65.6738 14.7461L65.6738 87.2559C65.6738 89.4043 67.334 91.1621 69.6289 91.1621Z" fill="#000000" fill-opacity="0.85"/>
  <path d="M53.1738 76.3672C55.4199 76.3672 57.1289 74.6582 57.1289 72.4609L57.1289 29.541C57.1289 27.3438 55.4199 25.5859 53.1738 25.5859C50.9277 25.5859 49.2676 27.3438 49.2676 29.541L49.2676 72.4609C49.2676 74.6582 50.9277 76.3672 53.1738 76.3672Z" fill="#000000" fill-opacity="0.85"/>
  <path d="M36.7188 102.002C38.9648 102.002 40.7227 100.244 40.7227 98.0469L40.7227 3.95508C40.7227 1.75781 38.9648 0 36.7188 0C34.5215 0 32.8613 1.75781 32.8613 3.95508L32.8613 98.0469C32.8613 100.244 34.5215 102.002 36.7188 102.002Z" fill="#000000" fill-opacity="0.85"/>
  <path d="M20.3125 82.3242C22.5586 82.3242 24.2676 80.5664 24.2676 78.3691L24.2676 23.6328C24.2676 21.4355 22.5586 19.6289 20.3125 19.6289C18.1152 19.6289 16.4062 21.4355 16.4062 23.6328L16.4062 78.3691C16.4062 80.5664 18.1152 82.3242 20.3125 82.3242Z" fill="#000000" fill-opacity="0.85"/>
  <path d="M3.85742 62.3535C6.15234 62.3535 7.86133 60.5957 7.86133 58.3984L7.86133 43.6035C7.86133 41.4062 6.15234 39.5996 3.85742 39.5996C1.66016 39.5996 0 41.4062 0 43.6035L0 58.3984C0 60.5957 1.66016 62.3535 3.85742 62.3535Z" fill="#000000" fill-opacity="0.85"/>
 </g>
</svg>
