<?xml version="1.0" encoding="UTF-8"?>
<!--Generator: Apple Native CoreSVG 232.5-->
<!DOCTYPE svg
PUBLIC "-//W3C//DTD SVG 1.1//EN"
       "http://www.w3.org/Graphics/SVG/1.1/DTD/svg11.dtd">
<svg version="1.1" xmlns="http://www.w3.org/2000/svg" xmlns:xlink="http://www.w3.org/1999/xlink" width="115.137" height="89.8926">
 <g>
  <rect height="89.8926" opacity="0" width="115.137" x="0" y="0"/>
  <path d="M0 49.2676L0 42.9688L17.627 42.9688L26.3672 21.582C27.5391 18.75 31.4941 18.7988 32.373 21.4355L43.7012 55.8105L47.3633 45.6055C47.9492 43.8965 48.9746 42.9688 50.9766 42.9688L62.4512 42.9688L71.2402 21.582C72.3633 18.75 76.3672 18.7988 77.1973 21.4355L88.5742 55.8105L92.1875 45.6055C92.8223 43.8965 93.8477 42.9688 95.8008 42.9688L115.137 42.9688L115.137 49.2676L97.5586 49.2676L91.6504 67.8711C90.7715 70.6055 86.4258 70.7031 85.5957 68.0176L74.2676 31.6406L67.8223 46.6309C67.1387 48.3398 66.2109 49.2676 64.209 49.2676L52.6855 49.2676L46.7773 67.8711C45.8984 70.6055 41.6016 70.7031 40.7715 68.0176L29.3945 31.6406L23.2422 46.6309C22.5098 48.3398 21.582 49.2676 18.6523 49.2676ZM15.332 89.8926L99.8047 89.8926C110.059 89.8926 115.137 84.8633 115.137 74.8047L115.137 15.1367C115.137 5.07812 110.059 0 99.8047 0L15.332 0C5.12695 0 0 5.07812 0 15.1367L0 74.8047C0 84.8633 5.12695 89.8926 15.332 89.8926Z" fill="#000000" fill-opacity="0.85"/>
 </g>
</svg>
