<?xml version="1.0" encoding="UTF-8"?>
<!--Generator: Apple Native CoreSVG 232.5-->
<!DOCTYPE svg
PUBLIC "-//W3C//DTD SVG 1.1//EN"
       "http://www.w3.org/Graphics/SVG/1.1/DTD/svg11.dtd">
<svg version="1.1" xmlns="http://www.w3.org/2000/svg" xmlns:xlink="http://www.w3.org/1999/xlink" width="119.775" height="113.452">
 <g>
  <rect height="113.452" opacity="0" width="119.775" x="0" y="0"/>
  <path d="M3.51562 66.1743L17.8223 66.1743C19.1406 66.1743 20.3613 65.3931 20.7031 63.9771L22.998 53.8208L21.2891 53.8208L29.0039 89.563C29.6387 92.4927 34.4238 92.4927 34.8633 89.5142L40.8203 50.354L47.8027 110.754C48.2422 114.368 53.418 114.319 53.7109 110.754L60.1074 38.7329L66.5527 110.706C66.8457 114.368 72.0215 114.368 72.4609 110.706L79.4434 50.354L85.4004 89.563C85.8398 92.5415 90.625 92.5415 91.2598 89.563L98.9258 54.0649L97.0703 54.1138L99.5605 63.9771C100 65.5884 101.123 66.1743 102.441 66.1743L116.309 66.1743C118.262 66.1743 119.775 64.6606 119.775 62.7563C119.775 60.8521 118.262 59.2896 116.309 59.2896L104.59 59.2896L100.684 44.1528C99.8047 40.8813 95.5566 40.8813 94.8242 44.1528L88.8184 72.6685L81.9336 27.6978C81.3965 24.1333 76.4648 24.231 76.0254 27.7466L69.873 81.1157L63.1348 4.94385C62.793 1.28174 57.4707 1.28174 57.1289 4.94385L50.3906 81.1157L44.2383 27.7466C43.7988 24.1333 38.8672 24.1333 38.3301 27.6978L31.4453 72.6685L25.4395 44.1528C24.7559 41.1255 20.4102 41.1255 19.5801 44.1528L15.6738 59.2896L3.51562 59.2896C1.51367 59.2896 0 60.8521 0 62.7563C0 64.6606 1.51367 66.1743 3.51562 66.1743Z" fill="#000000" fill-opacity="0.85"/>
 </g>
</svg>
