<?xml version="1.0" encoding="UTF-8"?>
<!--Generator: Apple Native CoreSVG 232.5-->
<!DOCTYPE svg
PUBLIC "-//W3C//DTD SVG 1.1//EN"
       "http://www.w3.org/Graphics/SVG/1.1/DTD/svg11.dtd">
<svg version="1.1" xmlns="http://www.w3.org/2000/svg" xmlns:xlink="http://www.w3.org/1999/xlink" width="99.6094" height="99.6582">
 <g>
  <rect height="99.6582" opacity="0" width="99.6094" x="0" y="0"/>
  <path d="M49.8047 99.6094C77.0508 99.6094 99.6094 77.002 99.6094 49.8047C99.6094 22.5586 77.002 0 49.7559 0C22.5586 0 0 22.5586 0 49.8047C0 77.002 22.6074 99.6094 49.8047 99.6094ZM49.8047 91.3086C26.7578 91.3086 8.34961 72.8516 8.34961 49.8047C8.34961 26.7578 26.709 8.30078 49.7559 8.30078C72.8027 8.30078 91.3086 26.7578 91.3086 49.8047C91.3086 72.8516 72.8516 91.3086 49.8047 91.3086Z" fill="#000000" fill-opacity="0.85"/>
  <path d="M29.4434 49.7559C29.4434 60.9863 32.7637 71.8262 38.7207 80.4199C39.9414 81.9824 41.9434 82.4219 43.457 81.3477C45.0195 80.2246 45.2637 78.2227 44.0918 76.5625C38.9648 69.2383 35.9863 59.5703 35.9863 49.7559C35.9863 39.8438 38.916 30.3223 44.0918 22.9492C45.2637 21.3379 45.0195 19.2871 43.457 18.1641C41.8945 17.0898 39.8926 17.4805 38.7207 19.1406C32.7637 27.7832 29.4434 38.623 29.4434 49.7559Z" fill="#000000" fill-opacity="0.85"/>
  <path d="M44.7266 49.7559C44.7266 57.9102 47.1191 65.8203 51.4648 71.875C52.6367 73.4863 54.5898 73.8281 56.1523 72.7539C57.6172 71.7285 57.959 69.6777 56.7871 67.9688C53.3203 63.1836 51.3672 56.5918 51.3672 49.7559C51.3672 42.9688 53.3203 36.377 56.7871 31.5918C57.959 29.8828 57.6172 27.832 56.1523 26.8066C54.5898 25.6836 52.6367 26.0742 51.4648 27.6367C47.1191 33.5938 44.7266 41.4551 44.7266 49.7559Z" fill="#000000" fill-opacity="0.85"/>
  <path d="M60.0098 49.7559C60.0098 54.8828 61.5234 59.9609 64.1113 63.3789C65.1855 64.8926 67.2363 65.332 68.75 64.3066C70.4102 63.0859 70.7031 61.0352 69.4336 59.2773C67.6758 56.8848 66.6504 53.3203 66.6504 49.7559C66.6504 46.0938 67.6758 42.5293 69.4336 40.2832C70.752 38.5254 70.459 36.377 68.75 35.2051C67.2363 34.2285 65.2344 34.668 64.1113 36.1328C61.5234 39.7461 60.0098 44.7754 60.0098 49.7559Z" fill="#000000" fill-opacity="0.85"/>
 </g>
</svg>
