<?xml version="1.0" encoding="UTF-8"?>
<!--Generator: Apple Native CoreSVG 232.5-->
<!DOCTYPE svg
PUBLIC "-//W3C//DTD SVG 1.1//EN"
       "http://www.w3.org/Graphics/SVG/1.1/DTD/svg11.dtd">
<svg version="1.1" xmlns="http://www.w3.org/2000/svg" xmlns:xlink="http://www.w3.org/1999/xlink" width="97.8027" height="105.188">
 <g>
  <rect height="105.188" opacity="0" width="97.8027" x="0" y="0"/>
  <path d="M3.51562 62.0423L25.1465 62.0423C27.3438 62.0423 28.6621 61.0657 29.1504 59.1126L38.5742 15.7532L34.8633 15.7532L49.3164 102.57C49.9023 106.085 55.3223 106.036 56.0059 102.57L70.0195 36.7981L66.9434 36.7493L71.3379 58.722C71.7773 60.968 73.0469 62.0423 75.3418 62.0423L94.2871 62.0423C96.2402 62.0423 97.8027 60.5286 97.8027 58.6243C97.8027 56.6712 96.2891 55.1575 94.2871 55.1575L71.2402 55.1575L78.2715 60.8704L71.3867 30.304C70.6543 26.9348 65.625 26.9348 64.7949 30.4505L50.5371 94.1712L54.0039 94.1712L39.6973 7.4036C39.1602 3.98563 34.1797 3.88797 33.3984 7.4036L21.8262 60.8704L28.8574 55.1575L3.51562 55.1575C1.51367 55.1575 0 56.72 0 58.6243C0 60.5286 1.51367 62.0423 3.51562 62.0423Z" fill="#000000" fill-opacity="0.85"/>
 </g>
</svg>
