<?xml version="1.0" encoding="UTF-8"?>
<!--Generator: Apple Native CoreSVG 232.5-->
<!DOCTYPE svg
PUBLIC "-//W3C//DTD SVG 1.1//EN"
       "http://www.w3.org/Graphics/SVG/1.1/DTD/svg11.dtd">
<svg version="1.1" xmlns="http://www.w3.org/2000/svg" xmlns:xlink="http://www.w3.org/1999/xlink" width="70.5078" height="116.11">
 <g>
  <rect height="116.11" opacity="0" width="70.5078" x="0" y="0"/>
  <path d="M0 58.0794C0 78.6849 6.44531 97.9232 17.8711 113.89C21.582 118.968 28.5156 114.427 24.8047 109.349C14.1113 94.6517 8.39844 76.9759 8.39844 58.0794C8.39844 39.1829 14.1113 21.4583 24.8047 6.76105C28.6133 1.6341 21.3867-2.66277 17.8711 2.26887C6.44531 18.1868 0 37.4251 0 58.0794Z" fill="#000000" fill-opacity="0.85"/>
  <path d="M26.6113 58.0794C26.6113 73.4114 31.4453 87.7669 40.1367 99.4368C43.9941 104.71 50.8301 99.681 47.1191 94.8958C39.209 84.4466 34.9609 71.7025 34.9609 58.0794C34.9609 44.4564 39.209 31.7122 47.1191 21.263C50.8301 16.4779 43.9941 11.4486 40.1367 16.6732C31.4453 28.3431 26.6113 42.7474 26.6113 58.0794Z" fill="#000000" fill-opacity="0.85"/>
  <path d="M53.125 58.0794C53.125 68.138 56.5918 77.513 62.7441 84.7884C66.748 89.5247 72.6562 84.1536 69.6777 80.2962C63.7695 72.8743 61.4746 66.6732 61.4746 58.0794C61.4746 49.4857 63.7695 43.2845 69.6777 35.8626C72.6562 31.9564 66.7969 26.5364 62.7441 31.3216C56.5918 38.6458 53.125 48.0208 53.125 58.0794Z" fill="#000000" fill-opacity="0.85"/>
 </g>
</svg>
