<?xml version="1.0" encoding="UTF-8"?>
<!--Generator: Apple Native CoreSVG 232.5-->
<!DOCTYPE svg
PUBLIC "-//W3C//DTD SVG 1.1//EN"
       "http://www.w3.org/Graphics/SVG/1.1/DTD/svg11.dtd">
<svg version="1.1" xmlns="http://www.w3.org/2000/svg" xmlns:xlink="http://www.w3.org/1999/xlink" width="115.808" height="106.628">
 <g>
  <rect height="106.628" opacity="0" width="115.808" x="0" y="0"/>
  <path d="M102.899 41.6687L102.899 64.9597C102.899 67.1082 101.19 68.866 98.9441 68.866C96.698 68.866 95.0379 67.1082 95.0379 64.9597L95.0379 41.6687C95.0379 39.5203 96.698 37.7137 98.9441 37.7137C101.19 37.7137 102.899 39.5203 102.899 41.6687Z" fill="#000000" fill-opacity="0.85"/>
  <path d="M86.493 17.0594L86.493 63.8027L78.6316 55.9457L78.6316 17.0594C78.6316 14.9109 80.2918 13.1043 82.5379 13.1043C84.7351 13.1043 86.493 14.9109 86.493 17.0594Z" fill="#000000" fill-opacity="0.85"/>
  <path d="M70.0379 74.1559L70.0379 79.0222C70.0379 81.2195 68.3289 82.9285 66.1316 82.9285C63.8367 82.9285 62.1765 81.2195 62.1765 79.0222L62.1765 66.299ZM70.0379 31.8543L70.0379 47.3568L62.1765 39.4998L62.1765 31.8543C62.1765 29.657 63.8367 27.8992 66.1316 27.8992C68.3289 27.8992 70.0379 29.657 70.0379 31.8543Z" fill="#000000" fill-opacity="0.85"/>
  <path d="M53.6316 57.7588L53.6316 100.36C53.6316 102.557 51.9226 104.315 49.6277 104.315C47.4305 104.315 45.7703 102.557 45.7703 100.36L45.7703 49.9019ZM53.6316 6.26834L53.6316 30.9597L45.7703 23.1027L45.7703 6.26834C45.7703 4.07107 47.4305 2.31326 49.6277 2.31326C51.9226 2.31326 53.6316 4.07107 53.6316 6.26834Z" fill="#000000" fill-opacity="0.85"/>
  <path d="M37.2254 41.3617L37.2254 80.6824C37.2254 82.8797 35.4676 84.6375 33.2215 84.6375C31.0242 84.6375 29.364 82.8797 29.364 80.6824L29.364 33.5048Z" fill="#000000" fill-opacity="0.85"/>
  <path d="M20.7703 45.9168L20.7703 60.7117C20.7703 62.909 19.0613 64.6668 16.8152 64.6668C14.5691 64.6668 12.909 62.909 12.909 60.7117L12.909 45.9168C12.909 43.7195 14.5691 41.9129 16.8152 41.9129C19.0613 41.9129 20.7703 43.7195 20.7703 45.9168Z" fill="#000000" fill-opacity="0.85"/>
  <path d="M103.68 99.7254C105.145 101.19 107.587 101.19 109.003 99.7254C110.468 98.2117 110.468 95.8679 109.003 94.4031L21.4539 6.80545C19.989 5.34061 17.5476 5.34061 16.0828 6.80545C14.618 8.22147 14.618 10.7117 16.0828 12.1277Z" fill="#000000" fill-opacity="0.85"/>
 </g>
</svg>
