<?xml version="1.0" encoding="UTF-8"?>
<!--Generator: Apple Native CoreSVG 232.5-->
<!DOCTYPE svg
PUBLIC "-//W3C//DTD SVG 1.1//EN"
       "http://www.w3.org/Graphics/SVG/1.1/DTD/svg11.dtd">
<svg version="1.1" xmlns="http://www.w3.org/2000/svg" xmlns:xlink="http://www.w3.org/1999/xlink" width="159.375" height="103.271">
 <g>
  <rect height="103.271" opacity="0" width="159.375" x="0" y="0"/>
  <path d="M101.807 15.3809L101.807 69.4655C98.7312 71.3147 96.0858 73.525 93.9453 75.9486L93.9453 15.3809C93.9453 13.2324 95.6055 11.4258 97.8516 11.4258C100.049 11.4258 101.807 13.2324 101.807 15.3809Z" fill="#000000" fill-opacity="0.85"/>
  <path d="M85.3516 30.1758L85.3516 73.0957C85.3516 75.293 83.6426 77.002 81.4453 77.002C79.1504 77.002 77.4902 75.293 77.4902 73.0957L77.4902 30.1758C77.4902 27.9785 79.1504 26.2207 81.4453 26.2207C83.6426 26.2207 85.3516 27.9785 85.3516 30.1758Z" fill="#000000" fill-opacity="0.85"/>
  <path d="M68.9453 4.58984L68.9453 98.6816C68.9453 100.879 67.2363 102.637 64.9414 102.637C62.7441 102.637 61.084 100.879 61.084 98.6816L61.084 4.58984C61.084 2.39258 62.7441 0.634766 64.9414 0.634766C67.2363 0.634766 68.9453 2.39258 68.9453 4.58984Z" fill="#000000" fill-opacity="0.85"/>
  <path d="M52.5391 24.2676L52.5391 79.0039C52.5391 81.2012 50.7812 82.959 48.5352 82.959C46.3379 82.959 44.6777 81.2012 44.6777 79.0039L44.6777 24.2676C44.6777 22.0703 46.3379 20.2637 48.5352 20.2637C50.7812 20.2637 52.5391 22.0703 52.5391 24.2676Z" fill="#000000" fill-opacity="0.85"/>
  <path d="M36.084 44.2383L36.084 59.0332C36.084 61.2305 34.375 62.9883 32.1289 62.9883C29.8828 62.9883 28.2227 61.2305 28.2227 59.0332L28.2227 44.2383C28.2227 42.041 29.8828 40.2344 32.1289 40.2344C34.375 40.2344 36.084 42.041 36.084 44.2383Z" fill="#000000" fill-opacity="0.85"/>
  <path d="M99.6582 96.582L146.777 96.582C150.488 96.582 152.734 94.873 152.734 91.9434C152.734 82.8613 141.455 70.3613 123.242 70.3613C104.98 70.3613 93.7012 82.8613 93.7012 91.9434C93.7012 94.873 95.9473 96.582 99.6582 96.582ZM123.242 64.1113C130.762 64.1113 137.256 57.373 137.256 48.584C137.256 39.9414 130.713 33.5449 123.242 33.5449C115.771 33.5449 109.18 40.0391 109.18 48.6816C109.18 57.373 115.723 64.1113 123.242 64.1113Z" fill="#000000" fill-opacity="0.85"/>
 </g>
</svg>
