<?xml version="1.0" encoding="UTF-8"?>
<!--Generator: Apple Native CoreSVG 232.5-->
<!DOCTYPE svg
PUBLIC "-//W3C//DTD SVG 1.1//EN"
       "http://www.w3.org/Graphics/SVG/1.1/DTD/svg11.dtd">
<svg version="1.1" xmlns="http://www.w3.org/2000/svg" xmlns:xlink="http://www.w3.org/1999/xlink" width="99.6094" height="99.6582">
 <g>
  <rect height="99.6582" opacity="0" width="99.6094" x="0" y="0"/>
  <path d="M99.6094 49.8535C99.6094 77.0996 77.0508 99.6582 49.8047 99.6582C22.6074 99.6582 0 77.0996 0 49.8535C0 22.6562 22.5586 0.0488281 49.7559 0.0488281C77.002 0.0488281 99.6094 22.6562 99.6094 49.8535ZM38.4277 18.2617C32.2754 27.1973 28.8574 38.3301 28.8574 49.8535C28.8574 61.377 32.2754 72.6074 38.4277 81.3965C39.6484 83.1055 41.748 83.4961 43.3105 82.4219C44.9219 81.2012 45.166 79.1504 43.9941 77.4902C38.6719 69.873 35.6445 59.9609 35.6445 49.8535C35.6445 39.5996 38.623 29.7852 43.9941 22.2168C45.166 20.5078 44.9219 18.457 43.3105 17.2852C41.6992 16.1133 39.5996 16.5039 38.4277 18.2617ZM51.5625 27.0508C47.0703 33.1543 44.5801 41.3086 44.5801 49.8535C44.5801 58.2031 47.0703 66.3574 51.5625 72.6562C52.7832 74.2676 54.7852 74.707 56.3965 73.5352C57.9102 72.4609 58.3008 70.3125 57.0801 68.5547C53.5156 63.623 51.4648 56.8359 51.4648 49.8535C51.4648 42.8223 53.5156 36.0352 57.0801 31.1035C58.3008 29.3457 57.9102 27.1973 56.3965 26.123C54.7852 25 52.7832 25.3906 51.5625 27.0508ZM64.5996 35.7422C61.9141 39.502 60.3516 44.7266 60.3516 49.8535C60.3516 55.127 61.9141 60.3516 64.5996 63.8672C65.6738 65.4297 67.8223 65.8691 69.3848 64.7949C71.0938 63.5254 71.4355 61.4258 70.1172 59.6191C68.3105 57.1289 67.2363 53.5156 67.2363 49.8535C67.2363 46.0449 68.3105 42.4316 70.1172 40.0391C71.4844 38.2324 71.1426 36.0352 69.3848 34.8145C67.8223 33.7891 65.7227 34.2285 64.5996 35.7422Z" fill="#000000" fill-opacity="0.85"/>
 </g>
</svg>
