<?xml version="1.0" encoding="UTF-8"?>
<!--Generator: Apple Native CoreSVG 232.5-->
<!DOCTYPE svg
PUBLIC "-//W3C//DTD SVG 1.1//EN"
       "http://www.w3.org/Graphics/SVG/1.1/DTD/svg11.dtd">
<svg version="1.1" xmlns="http://www.w3.org/2000/svg" xmlns:xlink="http://www.w3.org/1999/xlink" width="112.452" height="106.494">
 <g>
  <rect height="106.494" opacity="0" width="112.452" x="0" y="0"/>
  <path d="M92.5055 56.9824C93.2379 57.8613 93.1402 58.9355 92.359 59.7168L84.7906 67.2363C83.7164 68.2129 82.4957 68.2617 81.6168 67.2363C78.0986 63.4009 73.32 60.1275 67.9603 58.1105L68.0866 42.562C78.363 44.9778 87.1166 50.3802 92.5055 56.9824ZM44.5749 58.0574C39.2456 60.0326 34.4911 63.2547 31.0308 67.0898C30.0543 68.1641 28.7359 68.3105 27.6617 67.2852L20.0933 59.7168C19.2633 58.8379 19.2144 57.8613 19.9469 56.9824C25.3454 50.3683 34.1209 44.9583 44.4209 42.5483Z" fill="#000000" fill-opacity="0.85"/>
  <path d="M44.281 28.4538C31.3933 30.7786 19.9055 37.027 10.6695 46.8262C9.74178 47.8027 8.3746 47.8027 7.39803 46.875L0.659753 40.0391C-0.170325 39.1602-0.170325 38.0859 0.513269 37.2559C9.877 25.6512 26.1275 16.5718 44.1344 13.6834ZM111.939 37.2559C112.623 38.0859 112.671 39.1602 111.793 40.0391L105.054 46.7773C104.078 47.7051 102.759 47.7539 101.88 46.875C92.7113 37.067 81.1707 30.7874 68.2012 28.4554L68.3212 13.6819C86.3369 16.5683 102.533 25.649 111.939 37.2559Z" fill="#000000" fill-opacity="0.85"/>
  <path d="M56.2262 93.8477C60.3765 93.8477 63.648 90.4785 63.648 86.377C63.648 82.2266 60.3765 78.9551 56.2262 78.9551C52.1246 78.9551 48.8043 82.2266 48.8043 86.377C48.8043 90.4785 52.1246 93.8477 56.2262 93.8477ZM56.275 70.3125C58.8629 70.3125 60.6207 68.6035 60.6695 65.918C60.816 47.9492 60.9625 29.8828 61.109 11.8652C61.109 9.08203 58.8629 7.17773 56.2262 7.17773C53.5894 7.17773 51.3433 9.08203 51.3433 11.8652C51.5387 29.8828 51.6851 47.9492 51.8805 65.918C51.9293 68.6035 53.6871 70.3125 56.275 70.3125Z" fill="#000000" fill-opacity="0.85"/>
 </g>
</svg>
