<?xml version="1.0" encoding="UTF-8"?>
<!--Generator: Apple Native CoreSVG 232.5-->
<!DOCTYPE svg
PUBLIC "-//W3C//DTD SVG 1.1//EN"
       "http://www.w3.org/Graphics/SVG/1.1/DTD/svg11.dtd">
<svg version="1.1" xmlns="http://www.w3.org/2000/svg" xmlns:xlink="http://www.w3.org/1999/xlink" width="99.6094" height="99.6582">
 <g>
  <rect height="99.6582" opacity="0" width="99.6094" x="0" y="0"/>
  <path d="M49.8047 99.6094C77.0508 99.6094 99.6094 77.002 99.6094 49.8047C99.6094 22.5586 77.002 0 49.7559 0C22.5586 0 0 22.5586 0 49.8047C0 77.002 22.6074 99.6094 49.8047 99.6094ZM49.8047 91.3086C26.7578 91.3086 8.34961 72.8516 8.34961 49.8047C8.34961 26.7578 26.709 8.30078 49.7559 8.30078C72.8027 8.30078 91.3086 26.7578 91.3086 49.8047C91.3086 72.8516 72.8516 91.3086 49.8047 91.3086Z" fill="#000000" fill-opacity="0.85"/>
  <path d="M22.6562 46.6309C23.291 47.3633 24.4141 47.3145 25.1465 46.5332C31.4941 39.6973 40.0879 36.0352 49.7559 36.0352C59.4238 36.0352 68.1152 39.6973 74.5117 46.582C75.1953 47.2656 76.2207 47.3145 76.8555 46.582L80.5176 42.8223C81.1035 42.2363 81.1523 41.4062 80.6641 40.7227C74.0234 32.6172 61.8164 27.1484 49.7559 27.1484C37.7441 27.1484 25.4883 32.6172 18.8965 40.7227C18.3594 41.4062 18.457 42.2363 18.9941 42.8223Z" fill="#000000" fill-opacity="0.85"/>
  <path d="M33.7891 57.7637C34.5215 58.5449 35.498 58.4961 36.3281 57.666C39.5996 54.0039 44.7754 51.6602 49.7559 51.709C54.7363 51.6602 59.9121 54.0039 63.3301 57.7148C64.0625 58.5449 65.0391 58.5449 65.7227 57.7637L69.873 53.6621C70.459 53.0762 70.5566 52.1973 69.9707 51.5625C65.5273 46.1914 57.7637 42.7734 49.7559 42.7734C41.7969 42.7734 33.9844 46.1914 29.5898 51.5625C29.0039 52.2461 29.0527 53.0273 29.7363 53.6621Z" fill="#000000" fill-opacity="0.85"/>
  <path d="M49.7559 72.5098C50.4883 72.5098 50.9766 72.2168 52.1973 71.1426L58.7402 64.8438C59.2773 64.2578 59.375 63.4277 58.8867 62.793C56.9336 60.1562 53.3203 58.3984 49.7559 58.3984C46.1426 58.3984 42.5781 60.2051 40.5762 63.0371C40.1367 63.5742 40.2832 64.2578 40.8691 64.8438L47.3633 71.1426C48.5352 72.168 49.0234 72.5098 49.7559 72.5098Z" fill="#000000" fill-opacity="0.85"/>
 </g>
</svg>
