<?xml version="1.0" encoding="UTF-8"?>
<!--Generator: Apple Native CoreSVG 232.5-->
<!DOCTYPE svg
PUBLIC "-//W3C//DTD SVG 1.1//EN"
       "http://www.w3.org/Graphics/SVG/1.1/DTD/svg11.dtd">
<svg version="1.1" xmlns="http://www.w3.org/2000/svg" xmlns:xlink="http://www.w3.org/1999/xlink" width="89.8926" height="89.9902">
 <g>
  <rect height="89.9902" opacity="0" width="89.8926" x="0" y="0"/>
  <path d="M89.8926 15.2344L89.8926 74.8535C89.8926 84.9121 84.8145 89.9902 74.5605 89.9902L15.332 89.9902C5.12695 89.9902 0 84.9609 0 74.8535L0 15.2344C0 5.12695 5.12695 0.0976562 15.332 0.0976562L74.5605 0.0976562C84.8145 0.0976562 89.8926 5.17578 89.8926 15.2344ZM35.498 58.5938C35.1074 59.1797 35.2539 59.9121 35.791 60.4492L42.5293 66.9434C43.6523 68.1152 44.2383 68.4082 45.0195 68.4082C45.8008 68.4082 46.3379 68.1641 47.5586 66.9434L54.248 60.4492C54.834 59.9121 54.9316 58.9844 54.3945 58.3496C52.3926 55.6641 48.6816 53.8086 45.0195 53.8086C41.3086 53.8086 37.5977 55.7129 35.498 58.5938ZM24.1699 46.8262C23.6328 47.4609 23.7305 48.291 24.3164 48.9258L28.5645 53.2227C29.3457 54.0039 30.3223 54.0527 31.1523 53.125C34.5703 49.3164 39.8438 46.875 45.0195 46.9727C50.0977 46.875 55.4688 49.3164 58.9355 53.1738C59.7168 54.0039 60.6934 54.0039 61.4746 53.2227L65.7227 48.9258C66.3574 48.3398 66.4062 47.4121 65.8203 46.8262C61.2793 41.2598 53.2227 37.6953 45.0195 37.6953C36.7676 37.6953 28.7598 41.2598 24.1699 46.8262ZM13.1348 35.6445C12.5977 36.377 12.6953 37.207 13.3301 37.8418L17.0898 41.6992C17.7246 42.4805 18.8477 42.4805 19.6289 41.6504C26.2207 34.6191 35.0586 30.8594 45.0195 30.8594C54.9805 30.8594 63.916 34.5703 70.459 41.6992C71.1914 42.4316 72.2168 42.3828 72.9492 41.6504L76.709 37.8418C77.3438 37.207 77.4414 36.377 76.8555 35.6445C70.0195 27.2461 57.4219 21.6797 45.0195 21.6797C32.5684 21.6797 19.9707 27.2461 13.1348 35.6445Z" fill="#000000" fill-opacity="0.85"/>
 </g>
</svg>
