<?xml version="1.0" encoding="UTF-8"?>
<!--Generator: Apple Native CoreSVG 232.5-->
<!DOCTYPE svg
PUBLIC "-//W3C//DTD SVG 1.1//EN"
       "http://www.w3.org/Graphics/SVG/1.1/DTD/svg11.dtd">
<svg version="1.1" xmlns="http://www.w3.org/2000/svg" xmlns:xlink="http://www.w3.org/1999/xlink" width="89.8926" height="89.9902">
 <g>
  <rect height="89.9902" opacity="0" width="89.8926" x="0" y="0"/>
  <path d="M15.332 89.9902L74.5605 89.9902C84.8145 89.9902 89.8926 84.9121 89.8926 74.8535L89.8926 15.2344C89.8926 5.17578 84.8145 0.0976562 74.5605 0.0976562L15.332 0.0976562C5.12695 0.0976562 0 5.12695 0 15.2344L0 74.8535C0 84.9609 5.12695 89.9902 15.332 89.9902ZM15.4297 82.1289C10.5469 82.1289 7.86133 79.541 7.86133 74.4629L7.86133 15.625C7.86133 10.5469 10.5469 7.95898 15.4297 7.95898L74.4629 7.95898C79.2969 7.95898 82.0312 10.5469 82.0312 15.625L82.0312 74.4629C82.0312 79.541 79.2969 82.1289 74.4629 82.1289Z" fill="#000000" fill-opacity="0.85"/>
  <path d="M17.8711 41.7969C18.5059 42.5293 19.6289 42.4805 20.3613 41.6992C26.709 34.8633 35.3027 31.2012 44.9707 31.2012C54.6875 31.2012 63.3301 34.8633 69.7266 41.748C70.4102 42.4316 71.4844 42.4805 72.1191 41.748L75.7324 37.9883C76.3184 37.4023 76.3672 36.5723 75.8789 35.8887C69.2871 27.7832 57.0312 22.3145 44.9707 22.3145C32.959 22.3145 20.7031 27.7832 14.1113 35.8887C13.5742 36.5723 13.6719 37.4023 14.209 37.9883Z" fill="#000000" fill-opacity="0.85"/>
  <path d="M29.0039 52.9297C29.7363 53.7109 30.7129 53.6621 31.543 52.832C34.8145 49.1699 39.9902 46.8262 44.9707 46.875C49.9512 46.8262 55.127 49.1699 58.5449 52.8809C59.2773 53.7109 60.2539 53.7109 60.9375 52.9297L65.0879 48.8281C65.6738 48.2422 65.7715 47.3633 65.1855 46.7285C60.7422 41.3574 52.9785 37.9395 44.9707 37.9395C37.0117 37.9395 29.248 41.3574 24.8047 46.7285C24.2188 47.4121 24.2676 48.1934 24.9512 48.8281Z" fill="#000000" fill-opacity="0.85"/>
  <path d="M44.9707 67.6758C45.7031 67.6758 46.1914 67.3828 47.4121 66.3086L53.9551 60.0098C54.4922 59.4238 54.5898 58.5938 54.1016 57.959C52.1484 55.3223 48.5352 53.5645 44.9707 53.5645C41.3574 53.5645 37.8418 55.3711 35.791 58.2031C35.3516 58.7402 35.498 59.4238 36.084 60.0098L42.5781 66.3086C43.75 67.334 44.2383 67.6758 44.9707 67.6758Z" fill="#000000" fill-opacity="0.85"/>
 </g>
</svg>
