<?xml version="1.0" encoding="UTF-8"?>
<!--Generator: Apple Native CoreSVG 232.5-->
<!DOCTYPE svg
PUBLIC "-//W3C//DTD SVG 1.1//EN"
       "http://www.w3.org/Graphics/SVG/1.1/DTD/svg11.dtd">
<svg version="1.1" xmlns="http://www.w3.org/2000/svg" xmlns:xlink="http://www.w3.org/1999/xlink" width="139.404" height="93.2129">
 <g>
  <rect height="93.2129" opacity="0" width="139.404" x="0" y="0"/>
  <path d="M69.6777 0C58.4961 0 47.6074 3.32031 39.0625 9.27734C37.4512 10.498 37.0605 12.5 38.0859 14.0137C39.2578 15.5762 41.2598 15.8203 42.8711 14.6484C50.2441 9.52148 59.8633 6.54297 69.6777 6.54297C79.6387 6.54297 89.1602 9.47266 96.5332 14.6484C98.1445 15.8203 100.146 15.5762 101.27 14.0137C102.393 12.4512 102.002 10.4492 100.342 9.27734C91.6992 3.32031 80.8594 0 69.6777 0Z" fill="#000000" fill-opacity="0.85"/>
  <path d="M69.6777 15.2832C61.5723 15.2832 53.6621 17.6758 47.5586 22.0215C45.9961 23.1934 45.6055 25.1465 46.7285 26.709C47.7539 28.1738 49.8047 28.5156 51.5137 27.3438C56.2988 23.9258 62.8906 21.9238 69.6777 21.9238C76.5137 21.9238 83.1055 23.9258 87.8906 27.3438C89.5996 28.5156 91.6504 28.1738 92.6758 26.709C93.7988 25.1465 93.4082 23.1934 91.7969 22.0215C85.8887 17.6758 77.9785 15.2832 69.6777 15.2832Z" fill="#000000" fill-opacity="0.85"/>
  <path d="M69.6777 30.5664C64.5996 30.5664 59.5215 32.0801 56.1035 34.668C54.5898 35.7422 54.1504 37.793 55.1758 39.3066C56.3965 40.9668 58.4473 41.2598 60.2051 40.0391C62.5977 38.2324 66.1133 37.207 69.6777 37.207C73.3887 37.207 76.9043 38.2324 79.1992 40.0391C80.957 41.3086 83.0566 41.0156 84.2773 39.3066C85.2539 37.793 84.8145 35.791 83.3496 34.668C79.7363 32.0801 74.6582 30.5664 69.6777 30.5664Z" fill="#000000" fill-opacity="0.85"/>
  <path d="M13.5742 93.0664L125.83 93.0664C134.18 93.0664 139.404 87.9395 139.404 79.6875L139.404 64.1113C139.404 55.8594 134.18 50.7324 125.83 50.7324L13.5742 50.7324C5.22461 50.7324 0 55.8594 0 64.1113L0 79.6875C0 87.9395 5.22461 93.0664 13.5742 93.0664ZM18.5059 73.3398C16.4062 73.3398 14.9414 71.875 14.9414 69.8242C14.9414 67.7246 16.4062 66.2109 18.5059 66.2109L35.5957 66.2109C37.6465 66.2109 39.1602 67.7246 39.1602 69.8242C39.1602 71.875 37.6465 73.3398 35.5957 73.3398ZM61.084 78.418C57.4707 78.418 54.4922 75.4395 54.4922 71.8262C54.4922 68.3105 57.4707 65.332 61.084 65.332C64.6484 65.332 67.627 68.3105 67.627 71.8262C67.627 75.4395 64.6484 78.418 61.084 78.418ZM80.127 78.418C76.5137 78.418 73.5352 75.4395 73.5352 71.8262C73.5352 68.3105 76.5137 65.332 80.127 65.332C83.6914 65.332 86.6699 68.3105 86.6699 71.8262C86.6699 75.4395 83.6914 78.418 80.127 78.418ZM99.1699 78.418C95.5566 78.418 92.5781 75.4395 92.5781 71.8262C92.5781 68.3105 95.5566 65.332 99.1699 65.332C102.734 65.332 105.713 68.3105 105.713 71.8262C105.713 75.4395 102.734 78.418 99.1699 78.418ZM118.213 78.418C114.6 78.418 111.621 75.4395 111.621 71.875C111.621 68.3105 114.6 65.332 118.213 65.332C121.826 65.332 124.805 68.3105 124.805 71.875C124.805 75.4395 121.826 78.418 118.213 78.418Z" fill="#000000" fill-opacity="0.85"/>
 </g>
</svg>
