<?xml version="1.0" encoding="UTF-8"?>
<!--Generator: Apple Native CoreSVG 232.5-->
<!DOCTYPE svg
PUBLIC "-//W3C//DTD SVG 1.1//EN"
       "http://www.w3.org/Graphics/SVG/1.1/DTD/svg11.dtd">
<svg version="1.1" xmlns="http://www.w3.org/2000/svg" xmlns:xlink="http://www.w3.org/1999/xlink" width="103.32" height="86.6699">
 <g>
  <rect height="86.6699" opacity="0" width="103.32" x="0" y="0"/>
  <path d="M7.51953 29.3945C14.5508 27.1484 21.8262 25.9766 28.7598 25.9766C37.7441 25.9766 44.3359 27.4414 52.832 27.4414C61.6211 27.4414 67.0898 21.4844 67.0898 13.7207C67.0898 5.76172 60.9863 0.0488281 53.4668 0.0488281C47.9004 0.0488281 43.0176 3.56445 40.9668 8.20312C40.1855 9.81445 40.4785 11.6699 42.1875 12.5488C43.75 13.3301 45.6543 12.8418 46.6797 10.8887C47.7539 8.39844 50.3906 6.44531 53.4668 6.44531C57.5195 6.44531 60.6934 9.27734 60.6934 13.7207C60.6934 18.1641 57.6172 21.0938 52.832 21.0938C44.7266 21.0938 38.0371 19.6289 28.7598 19.6289C20.8008 19.6289 12.7441 21.0449 5.56641 23.3398C3.51562 23.9258 2.73438 25.6836 3.22266 27.3438C3.71094 29.0527 5.32227 30.0293 7.51953 29.3945ZM83.8867 52.2461C95.2637 52.2461 103.32 45.0195 103.32 34.9121C103.32 24.9512 95.6543 17.7246 86.1328 17.7246C77.2949 17.7246 70.752 23.877 69.5801 31.9336C69.2871 33.9844 70.4102 35.5957 72.168 35.8398C73.9746 36.084 75.5371 34.9609 75.9277 32.666C76.7578 27.5391 81.0059 24.0723 86.1328 24.0723C92.0898 24.0723 96.9238 28.5156 96.9238 34.9121C96.9238 41.4062 91.7969 45.8984 83.8867 45.8984C68.9941 45.8984 52.9297 37.4023 33.3984 37.4023C23.3398 37.4023 14.1602 39.0137 5.56641 42.041C3.56445 42.7734 2.73438 44.4824 3.22266 46.1426C3.71094 47.8516 5.37109 48.877 7.51953 48.1445C15.4785 45.1172 23.7793 43.7988 33.3984 43.7988C52.8809 43.7988 67.4316 52.2461 83.8867 52.2461ZM52.8809 86.6699C60.4004 86.6699 66.2109 81.1035 66.2109 73.1445C66.2109 61.6211 54.4434 55.1758 32.7637 55.1758C23.6816 55.1758 13.8672 56.9336 5.56641 59.7656C3.56445 60.498 2.73438 62.207 3.22266 63.8672C3.71094 65.5762 5.37109 66.6016 7.51953 65.8691C15.2832 63.0859 23.9746 61.5723 32.7637 61.5723C50.4883 61.5723 59.8633 66.0156 59.8633 73.1445C59.8633 77.5879 56.7383 80.3223 52.8809 80.3223C49.0234 80.3223 46.6797 77.7344 45.9961 73.6328C45.7031 71.8262 44.3848 70.3125 42.2852 70.459C40.0879 70.6055 39.209 72.4609 39.502 74.4629C40.3809 81.25 45.4102 86.6699 52.8809 86.6699Z" fill="#000000" fill-opacity="0.85"/>
 </g>
</svg>
