<?xml version="1.0" encoding="UTF-8"?>
<!--Generator: Apple Native CoreSVG 232.5-->
<!DOCTYPE svg
PUBLIC "-//W3C//DTD SVG 1.1//EN"
       "http://www.w3.org/Graphics/SVG/1.1/DTD/svg11.dtd">
<svg version="1.1" xmlns="http://www.w3.org/2000/svg" xmlns:xlink="http://www.w3.org/1999/xlink" width="141.631" height="117.334">
 <g>
  <rect height="117.334" opacity="0" width="141.631" x="0" y="0"/>
  <path d="M138.052 32.1289C142.202 35.3516 142.74 39.7949 139.468 43.9941L106.216 86.377C104.751 88.2812 102.261 88.7207 100.015 87.5488C91.6653 83.1543 80.4348 80.2734 70.8157 80.2734C69.0117 80.2734 67.1494 80.3748 65.2495 80.5991L60.982 73.2646C64.3828 72.7001 67.6833 72.4121 70.8157 72.4121C79.7024 72.4121 90.054 74.7559 100.015 78.8086C101.236 79.2969 101.773 79.1992 102.749 77.9785L131.607 41.2109C132.583 39.9414 132.437 38.8184 131.118 37.8906C127.763 35.7737 124.218 33.84 120.474 32.1555C119.622 28.3512 118.111 25.1938 117.202 23.2422C116.856 22.479 116.478 21.6938 116.075 20.8918C124.973 23.9813 132.537 27.859 138.052 32.1289ZM26.5531 29.7977C20.8427 32.0348 15.4715 34.7627 10.513 37.8906C9.19461 38.8184 9.04813 39.9414 9.97586 41.2109L38.8821 77.9785C39.8587 79.1992 40.3958 79.2969 41.6165 78.8086C45.3452 77.2915 49.1219 76.0139 52.8567 75.0095L56.9213 81.996C51.4286 83.248 46.0719 85.1782 41.5677 87.5488C39.3216 88.7207 36.8802 88.2812 35.4153 86.377L2.16336 43.9941C-1.15695 39.7949-0.619839 35.3516 3.53055 32.1289C8.33668 28.4213 14.6815 25.0094 22.107 22.1555ZM84.6529 14.1233C83.1459 16.7039 81.7154 19.303 80.5369 21.7213C77.3211 21.4211 74.0732 21.2891 70.8157 21.2891C58.1463 21.2891 45.623 23.2858 34.1016 27.0657L29.713 19.5231C41.8912 15.7456 56.1591 13.4277 70.8157 13.4277C75.4883 13.4277 80.1215 13.6633 84.6529 14.1233Z" fill="#000000" fill-opacity="0.85"/>
  <path d="M100.894 8.20312C104.458 13.7207 108.658 20.5078 111.148 25.9766C112.515 28.9551 114.468 33.0078 114.468 37.6465C114.468 46.9238 108.072 53.125 98.5013 53.125C88.9309 53.125 82.5833 46.9238 82.5833 37.6465C82.5833 33.0078 84.5364 28.9551 85.9036 25.9766C88.3938 20.5078 92.5931 13.7207 96.1087 8.20312C96.7923 7.17773 97.5735 6.68945 98.5013 6.68945C99.4778 6.68945 100.21 7.17773 100.894 8.20312Z" fill="#000000" fill-opacity="0.85"/>
  <path d="M70.8157 109.082C76.7727 109.082 81.802 104.102 81.802 98.0957C81.802 91.9922 76.8216 87.0605 70.8157 87.0605C64.761 87.0605 59.8294 91.9922 59.8294 98.0957C59.8294 104.15 64.7122 109.082 70.8157 109.082ZM70.8157 102.588C68.2766 102.588 66.2747 100.537 66.2747 98.0957C66.2747 95.5566 68.2766 93.457 70.8157 93.457C73.2571 93.457 75.4056 95.5566 75.4056 98.0957C75.4056 100.537 73.2571 102.588 70.8157 102.588ZM63.5891 93.457L70.5716 89.7461L24.5755 10.6934C23.5501 8.88672 21.304 8.1543 19.1067 9.27734C17.1048 10.2539 16.6653 12.793 17.7395 14.6484Z" fill="#000000" fill-opacity="0.85"/>
 </g>
</svg>
