<?xml version="1.0" encoding="UTF-8"?>
<!--Generator: Apple Native CoreSVG 232.5-->
<!DOCTYPE svg
PUBLIC "-//W3C//DTD SVG 1.1//EN"
       "http://www.w3.org/Graphics/SVG/1.1/DTD/svg11.dtd">
<svg version="1.1" xmlns="http://www.w3.org/2000/svg" xmlns:xlink="http://www.w3.org/1999/xlink" width="99.7559" height="103.662">
 <g>
  <rect height="103.662" opacity="0" width="99.7559" x="0" y="0"/>
  <path d="M0 99.5605C0 101.758 1.85547 103.613 4.05273 103.613L95.7031 103.613C97.9004 103.613 99.7559 101.758 99.7559 99.5605C99.7559 97.3145 97.9004 95.5078 95.7031 95.5078L93.0664 95.5078L93.0664 7.27539C93.0664 2.92969 90.0391 0 85.5469 0L14.0625 0C9.57031 0 6.54297 2.92969 6.54297 7.27539L6.54297 95.5078L4.05273 95.5078C1.85547 95.5078 0 97.3145 0 99.5605ZM14.4531 47.7539L14.4531 9.17969C14.4531 8.39844 14.9414 7.86133 15.6738 7.86133L46.6309 7.86133L46.6309 47.7539ZM53.0273 47.7539L53.0273 7.86133L83.9355 7.86133C84.668 7.86133 85.1562 8.39844 85.1562 9.17969L85.1562 47.7539ZM14.4531 95.5078L14.4531 55.8594L85.1562 55.8594L85.1562 95.5078Z" fill="#000000" fill-opacity="0.85"/>
 </g>
</svg>
