<?xml version="1.0" encoding="UTF-8"?>
<!--Generator: Apple Native CoreSVG 232.5-->
<!DOCTYPE svg
PUBLIC "-//W3C//DTD SVG 1.1//EN"
       "http://www.w3.org/Graphics/SVG/1.1/DTD/svg11.dtd">
<svg version="1.1" xmlns="http://www.w3.org/2000/svg" xmlns:xlink="http://www.w3.org/1999/xlink" width="146.24" height="103.662">
 <g>
  <rect height="103.662" opacity="0" width="146.24" x="0" y="0"/>
  <path d="M32.4219 99.5605L40.2832 99.5605L40.2832 9.17969C40.2832 8.39844 40.8203 7.86133 41.5527 7.86133L104.688 7.86133C105.42 7.86133 105.908 8.39844 105.908 9.17969L105.908 99.5605L113.818 99.5605L113.818 97.168L139.355 99.3164C143.994 99.7559 146.24 96.6309 146.24 92.627L146.24 8.59375C146.24 4.58984 143.994 1.51367 139.355 1.9043L112.695 4.15039L112.598 3.27148C111.523 1.2207 109.131 0 106.299 0L39.9414 0C37.0117 0 34.7168 1.2207 33.6426 3.27148L33.5449 4.15039L6.83594 1.9043C2.24609 1.51367 0 4.58984 0 8.59375L0 92.627C0 96.6309 2.24609 99.7559 6.83594 99.3164L32.4219 97.168ZM7.4707 90.918L7.4707 70.8008C7.4707 70.3613 7.8125 69.9707 8.30078 69.9707L32.4219 69.3848L32.4219 90.1367L8.49609 91.7969C7.91016 91.8457 7.4707 91.6016 7.4707 90.918ZM7.4707 61.5723L7.4707 39.6973C7.4707 39.209 7.8125 38.8672 8.30078 38.8672L32.4219 39.4531L32.4219 61.8164L8.30078 62.4023C7.8125 62.4023 7.4707 62.0117 7.4707 61.5723ZM7.4707 30.4688L7.4707 10.3027C7.4707 9.66797 7.91016 9.42383 8.49609 9.47266L32.4219 11.1328L32.4219 31.8848L8.30078 31.2988C7.8125 31.2988 7.4707 30.9082 7.4707 30.4688ZM113.818 90.1367L113.818 69.3848L137.939 69.9707C138.428 69.9707 138.77 70.3613 138.77 70.8008L138.77 90.918C138.77 91.6016 138.33 91.8457 137.744 91.7969ZM113.818 61.8164L113.818 39.4531L137.891 38.8672C138.428 38.8672 138.77 39.209 138.77 39.6973L138.77 61.5723C138.77 62.0117 138.428 62.4023 137.891 62.4023ZM113.818 31.8848L113.818 11.1328L137.744 9.47266C138.33 9.42383 138.77 9.66797 138.77 10.3027L138.77 30.4688C138.77 30.9082 138.428 31.2988 137.939 31.2988ZM25.8789 99.5605C25.8789 101.758 27.6855 103.613 29.9316 103.613L116.406 103.613C118.652 103.613 120.508 101.758 120.508 99.5605C120.508 97.3145 118.652 95.5078 116.406 95.5078L29.9316 95.5078C27.6855 95.5078 25.8789 97.3145 25.8789 99.5605ZM70.9473 99.5605L77.3438 99.5605L77.3438 4.05273L70.9473 4.05273Z" fill="#000000" fill-opacity="0.85"/>
 </g>
</svg>
