<?xml version="1.0" encoding="UTF-8"?>
<!--Generator: Apple Native CoreSVG 232.5-->
<!DOCTYPE svg
PUBLIC "-//W3C//DTD SVG 1.1//EN"
       "http://www.w3.org/Graphics/SVG/1.1/DTD/svg11.dtd">
<svg version="1.1" xmlns="http://www.w3.org/2000/svg" xmlns:xlink="http://www.w3.org/1999/xlink" width="136.663" height="120.557">
 <g>
  <rect height="120.557" opacity="0" width="136.663" x="0" y="0"/>
  <path d="M133.151 45.166C137.253 48.3398 137.79 52.832 134.567 56.9336L102.682 97.6074C101.12 99.6094 98.5806 100.098 96.2857 98.877C88.2291 94.6777 77.5357 91.8945 68.3072 91.8945C66.5265 91.8945 64.6931 91.9982 62.8281 92.2249L58.4053 84.6248C61.8365 84.0408 65.1633 83.7402 68.3072 83.7402C76.9498 83.7402 86.9107 85.9863 96.5299 89.9902C97.5553 90.332 97.8971 90.332 98.7271 89.3066L126.559 53.9062C127.389 52.7832 127.243 52.002 126.071 51.2207C112.86 42.7398 96.5854 37.4253 78.9029 35.8715L78.9029 27.4978C101.195 29.2648 121.714 36.3035 133.151 45.166ZM25.3798 43.577C20.097 45.7078 15.1352 48.273 10.5435 51.2207C9.42049 52.002 9.22518 52.7832 10.1041 53.9062L37.8873 89.3066C38.7662 90.332 39.0592 90.332 40.0846 89.9902C43.4871 88.5811 46.926 87.3897 50.3271 86.4508L54.5283 93.6709C49.4844 94.8823 44.5791 96.6871 40.3775 98.877C38.0826 100.098 35.5435 99.6094 33.981 97.6074L2.04745 56.9336C-1.12638 52.832-0.589272 48.3398 3.51229 45.166C8.0186 41.674 13.9293 38.4652 20.8372 35.7703ZM57.7115 35.8715C49.0382 36.6337 40.7035 38.3006 32.9101 40.8137L28.4293 33.1138C37.273 30.3023 47.2956 28.3242 57.7115 27.498Z" fill="#000000" fill-opacity="0.85"/>
  <path d="M72.2623 54.3945L72.2623 66.8457C72.2623 68.9941 70.5045 70.752 68.356 70.752C66.1588 70.752 64.401 68.9941 64.401 66.8457L64.401 54.3945C64.401 52.2461 66.1588 50.4395 68.356 50.4395C70.5045 50.4395 72.2623 52.2461 72.2623 54.3945ZM72.2623 27.4902L72.2623 39.9414C72.2623 42.0898 70.5045 43.8965 68.356 43.8965C66.1588 43.8965 64.401 42.0898 64.401 39.9414L64.401 27.4902C64.401 25.3418 66.1588 23.584 68.356 23.584C70.5045 23.584 72.2623 25.3418 72.2623 27.4902ZM33.0533 3.85742C33.5416 6.05469 32.1744 7.86133 30.0748 8.64258C26.2174 9.96094 22.8482 12.4023 20.2115 15.5762C18.7467 17.2852 16.6959 17.8223 14.8404 16.748C12.7896 15.5273 12.2037 12.9395 13.9127 10.791C17.526 6.34766 22.2623 2.97852 27.2916 1.26953C30.1724 0.292969 32.565 1.41602 33.0533 3.85742ZM109.372 1.26953C114.401 2.97852 119.137 6.34766 122.751 10.791C124.46 12.9395 123.874 15.5273 121.823 16.748C119.967 17.8223 117.917 17.2852 116.452 15.5762C113.815 12.4023 110.397 9.96094 106.588 8.64258C104.44 7.86133 103.122 6.05469 103.61 3.85742C104.098 1.41602 106.491 0.292969 109.372 1.26953ZM50.2408 1.31836C55.1724 2.97852 59.9576 6.29883 63.5709 10.7422C65.2799 12.8906 64.7916 15.4297 62.7896 16.6504C60.8853 17.7246 58.8346 17.3828 57.2721 15.5273C54.6353 12.4023 51.2662 9.96094 47.4576 8.64258C45.358 7.86133 44.0885 6.10352 44.4791 3.95508C44.9185 1.61133 47.2135 0.244141 50.2408 1.31836ZM92.1842 3.95508C92.5748 6.10352 91.3053 7.86133 89.2056 8.64258C85.3971 9.96094 82.0279 12.4023 79.3912 15.5273C77.8287 17.3828 75.7779 17.7246 73.8736 16.6504C71.8717 15.4297 71.3834 12.8906 73.0924 10.7422C76.7056 6.29883 81.4908 2.97852 86.4224 1.31836C89.4498 0.244141 91.7447 1.61133 92.1842 3.95508Z" fill="#000000" fill-opacity="0.85"/>
  <path d="M68.356 120.557C74.3131 120.557 79.3424 115.576 79.3424 109.57C79.3424 103.516 74.3619 98.5352 68.356 98.5352C62.3014 98.5352 57.3209 103.516 57.3209 109.57C57.3209 115.625 62.2525 120.557 68.356 120.557ZM68.356 114.062C65.817 114.062 63.815 112.061 63.815 109.57C63.815 107.031 65.817 104.932 68.356 104.932C70.7974 104.932 72.8971 107.08 72.8971 109.57C72.8971 112.061 70.7974 114.062 68.356 114.062ZM68.0631 101.221L24.0201 25.5371C22.9459 23.7305 20.6998 22.998 18.5514 24.1211C16.5494 25.1465 16.0611 27.6367 17.1842 29.4922L61.0806 104.932Z" fill="#000000" fill-opacity="0.85"/>
 </g>
</svg>
