<?xml version="1.0" encoding="UTF-8"?>
<!--Generator: Apple Native CoreSVG 232.5-->
<!DOCTYPE svg
PUBLIC "-//W3C//DTD SVG 1.1//EN"
       "http://www.w3.org/Graphics/SVG/1.1/DTD/svg11.dtd">
<svg version="1.1" xmlns="http://www.w3.org/2000/svg" xmlns:xlink="http://www.w3.org/1999/xlink" width="115.381" height="116.553">
 <g>
  <rect height="116.553" opacity="0" width="115.381" x="0" y="0"/>
  <path d="M12.4238 35.8373C9.50067 36.6477 7.95898 38.9699 7.95898 42.7734L7.95898 75.6348C7.95898 80.4199 10.4492 82.8613 15.0879 82.8613L39.7827 82.8613L44.3565 90.7227L14.9902 90.7227C5.12695 90.7227 0.0976562 85.8398 0.0976562 76.0254L0.0976562 42.334C0.0976562 35.1606 2.83867 30.5685 8.25085 28.6648ZM115.381 42.334L115.381 76.0254C115.381 85.791 110.4 90.7227 100.488 90.7227L53.5114 90.7227L48.9299 82.8613L100.391 82.8613C104.932 82.8613 107.52 80.4199 107.52 75.6348L107.52 42.7734C107.52 37.9395 104.932 35.498 100.391 35.498L21.327 35.498L16.7455 27.6367L100.488 27.6367C110.4 27.6367 115.381 32.6172 115.381 42.334Z" fill="#000000" fill-opacity="0.85"/>
  <path d="M31.4941 3.95508C31.4941 6.10352 29.6875 7.86133 27.5391 7.86133L3.90625 7.86133C1.75781 7.86133 0 6.10352 0 3.95508C0 1.80664 1.75781 0 3.90625 0L27.5391 0C29.6875 0 31.4941 1.80664 31.4941 3.95508ZM73.3887 3.95508C73.3887 6.10352 71.6309 7.86133 69.4824 7.86133L45.8496 7.86133C43.7012 7.86133 41.9434 6.10352 41.9434 3.95508C41.9434 1.80664 43.7012 0 45.8496 0L69.4824 0C71.6309 0 73.3887 1.80664 73.3887 3.95508ZM115.381 3.95508C115.381 6.10352 113.574 7.86133 111.426 7.86133L87.8418 7.86133C85.6445 7.86133 83.8867 6.10352 83.8867 3.95508C83.8867 1.80664 85.6445 0 87.8418 0L111.426 0C113.574 0 115.381 1.80664 115.381 3.95508Z" fill="#000000" fill-opacity="0.85"/>
  <path d="M57.6172 116.455C63.4766 116.455 68.4082 111.572 68.4082 105.713C68.4082 99.8535 63.5254 94.9707 57.6172 94.9707C51.8066 94.9707 46.9238 99.8535 46.9238 105.713C46.9238 111.621 51.7578 116.455 57.6172 116.455ZM57.6172 109.863C55.3223 109.863 53.4668 108.057 53.4668 105.713C53.4668 103.369 55.3223 101.465 57.6172 101.465C59.9609 101.465 61.8652 103.418 61.8652 105.713C61.8652 108.057 59.9609 109.863 57.6172 109.863ZM50.6348 101.514L57.666 97.8516L14.0137 22.9492C12.9883 21.1426 10.791 20.459 8.59375 21.4844C6.5918 22.6074 6.15234 25.0488 7.22656 26.9043Z" fill="#000000" fill-opacity="0.85"/>
 </g>
</svg>
