<?xml version="1.0" encoding="UTF-8"?>
<!--Generator: Apple Native CoreSVG 232.5-->
<!DOCTYPE svg
PUBLIC "-//W3C//DTD SVG 1.1//EN"
       "http://www.w3.org/Graphics/SVG/1.1/DTD/svg11.dtd">
<svg version="1.1" xmlns="http://www.w3.org/2000/svg" xmlns:xlink="http://www.w3.org/1999/xlink" width="99.6094" height="99.6582">
 <g>
  <rect height="99.6582" opacity="0" width="99.6094" x="0" y="0"/>
  <path d="M99.6094 49.8535C99.6094 77.0996 77.0508 99.6582 49.8047 99.6582C22.6074 99.6582 0 77.0996 0 49.8535C0 22.6562 22.5586 0.0488281 49.7559 0.0488281C77.002 0.0488281 99.6094 22.6562 99.6094 49.8535ZM18.5059 61.9629C16.9922 62.5 16.2598 63.916 16.748 65.1367C17.0898 66.5527 18.5059 67.3828 20.166 66.8457C24.9512 65.0879 30.2734 64.1602 35.6934 64.1602C46.6309 64.1602 52.002 66.6992 52.002 70.8008C52.002 73.3398 50.3906 74.6582 48.291 74.6582C46.0938 74.6582 44.9707 73.3887 44.5801 70.9961C44.3359 69.6289 43.3105 68.457 41.6504 68.6035C39.7949 68.7012 39.1113 70.2637 39.3555 71.7285C39.8926 76.2207 43.2617 79.7852 48.291 79.7852C53.2227 79.7852 57.1777 76.0742 57.1777 70.8008C57.1777 63.1836 49.4629 59.0332 35.6934 59.0332C30.0781 59.0332 23.7793 60.1074 18.5059 61.9629ZM66.9434 66.1621L67.0898 67.7246L65.8691 66.748C65.4785 66.4551 64.7949 66.5527 64.5508 67.0898C64.3555 67.4316 64.3066 68.1152 64.9414 68.457L66.2598 69.0918L64.9414 69.6289C64.3066 69.9219 64.3555 70.6055 64.502 71.0938C64.6973 71.5332 65.4785 71.6797 65.8691 71.3867L67.0898 70.5078L66.9922 71.9727C66.9434 72.4609 67.334 72.9492 67.9688 72.9492C68.457 72.9492 68.8965 72.4609 68.8477 71.9727L68.7012 70.5078L69.9219 71.3867C70.2637 71.6797 70.9961 71.4844 71.2402 71.1426C71.5332 70.7031 71.4355 69.9219 70.8496 69.6289L69.4824 69.0918L70.8496 68.4082C71.4355 68.1152 71.4355 67.5293 71.2891 67.0898C71.0449 66.6016 70.2637 66.4551 69.9219 66.748L68.7012 67.7246L68.8477 66.2109C68.8965 65.6738 68.457 65.1855 67.9688 65.1855C67.334 65.1855 66.8945 65.6738 66.9434 66.1621ZM58.1055 45.0195C57.8125 46.6309 58.8379 47.9492 60.1562 48.1445C61.5723 48.3398 62.8906 47.4609 63.1836 45.752C63.6719 42.7734 66.0156 40.8203 68.9453 40.8203C72.4609 40.8203 75.1465 43.2617 75.1465 47.0215C75.1465 50.8301 72.2656 53.2227 67.5781 53.2227C58.3984 53.2227 48.3887 47.9004 36.084 47.9004C29.834 47.9004 23.9258 49.0234 18.5059 50.8789C16.9922 51.416 16.2598 52.832 16.748 54.1504C17.0898 55.5176 18.5059 56.3477 20.166 55.7617C25.0488 53.9062 30.127 53.0762 36.084 53.0762C48.1445 53.0762 57.1777 58.3984 67.5781 58.3984C74.9512 58.3984 80.2734 53.6133 80.2734 47.0215C80.2734 40.4785 75.1953 35.6934 68.9453 35.6934C63.2324 35.6934 58.7891 39.7461 58.1055 45.0195ZM40.2832 30.1758C39.6973 31.3477 39.9414 32.959 41.3574 33.5938C42.627 34.2285 44.1406 33.8379 44.873 32.2754C45.5078 30.8594 46.875 29.7852 48.6328 29.7852C50.8789 29.7852 52.5391 31.25 52.5391 33.7891C52.5391 36.2793 50.9277 37.793 48.2422 37.793C43.1641 37.793 39.0137 36.8164 33.1543 36.8164C28.1738 36.8164 23.0957 37.8418 18.5547 39.2578C16.9434 39.6973 16.2598 41.1621 16.748 42.4805C17.0898 43.8477 18.5059 44.6289 20.1172 44.1406C24.4629 42.6758 28.8574 42.041 33.1543 42.041C38.7695 42.041 42.9199 42.8711 48.2422 42.8711C53.9551 42.8711 57.7148 38.9648 57.7148 33.7891C57.7148 28.4668 53.6133 24.707 48.6328 24.707C44.873 24.707 41.6016 27.0508 40.2832 30.1758ZM67.5293 20.2148L67.7246 23.291L65.1855 21.5332C64.5508 21.0449 63.5742 21.1426 63.2324 21.9238C62.8418 22.5098 62.9883 23.4863 63.8184 23.9258L66.5039 25.3418L63.8184 26.6113C62.9395 27.0508 62.8418 27.9785 63.1836 28.6133C63.4766 29.3945 64.5508 29.541 65.1855 29.1504L67.7246 27.3438L67.5781 30.4199C67.5293 31.25 68.0664 31.9336 68.9453 31.9336C69.7754 31.9336 70.3125 31.25 70.2637 30.4199L70.1172 27.3438L72.6562 29.1504C73.2422 29.541 74.2676 29.3457 74.6094 28.7109C75.0977 28.0762 74.8535 27.002 73.9746 26.6113L71.2891 25.3418L73.9746 23.877C74.8047 23.4863 75 22.6074 74.6582 21.9238C74.3164 21.2402 73.2422 21.0449 72.6562 21.5332L70.1172 23.291L70.2637 20.2637C70.3125 19.3359 69.7754 18.6523 68.9453 18.6523C68.0664 18.6523 67.4805 19.3359 67.5293 20.2148Z" fill="#000000" fill-opacity="0.85"/>
 </g>
</svg>
