<?xml version="1.0" encoding="UTF-8"?>
<!--Generator: Apple Native CoreSVG 232.5-->
<!DOCTYPE svg
PUBLIC "-//W3C//DTD SVG 1.1//EN"
       "http://www.w3.org/Graphics/SVG/1.1/DTD/svg11.dtd">
<svg version="1.1" xmlns="http://www.w3.org/2000/svg" xmlns:xlink="http://www.w3.org/1999/xlink" width="136.704" height="115.576">
 <g>
  <rect height="115.576" opacity="0" width="136.704" x="0" y="0"/>
  <path d="M133.171 40.0879C137.273 43.3105 137.859 47.8027 134.636 51.9043L102.703 92.5293C101.14 94.5312 98.6011 95.0684 96.3062 93.7988C88.2495 89.6484 77.605 86.8164 68.3765 86.8164C66.5896 86.8164 64.7478 86.9226 62.8729 87.1535L58.4458 79.5459C61.8798 78.9624 65.2163 78.6621 68.3765 78.6621C76.9702 78.6621 86.98 80.9082 96.5991 84.9121C97.6245 85.3027 97.9663 85.3027 98.7964 84.2285L126.58 48.8281C127.459 47.7539 127.263 46.9238 126.14 46.1426C109.636 35.6445 88.396 29.9805 68.3765 29.9805C56.5584 29.9805 44.3508 31.9447 32.9615 35.7537L28.4606 28.0193C40.3249 24.2979 54.2227 22.0215 68.3765 22.0215C94.5972 22.0215 119.89 29.834 133.171 40.0879ZM25.4497 38.5332C20.2059 40.6512 15.2262 43.208 10.6128 46.1426C9.44094 46.9238 9.29446 47.7539 10.1245 48.8281L37.9566 84.2285C38.7866 85.3027 39.1284 85.3027 40.1538 84.9121C43.551 83.4981 46.9907 82.3033 50.3987 81.3622L54.6155 88.601C49.5445 89.8188 44.6108 91.6286 40.398 93.7988C38.103 95.0684 35.6128 94.5312 34.0015 92.5293L2.11672 51.9043C-1.15476 47.8027-0.568826 43.3105 3.53274 40.0879C8.05542 36.5961 13.9767 33.3874 20.8788 30.6864Z" fill="#000000" fill-opacity="0.85"/>
  <path d="M41.6675 3.90625C41.6675 6.05469 39.9097 7.86133 37.7613 7.86133L11.0523 7.86133C8.90383 7.86133 7.09719 6.05469 7.09719 3.90625C7.09719 1.75781 8.90383 0 11.0523 0L37.7613 0C39.9097 0 41.6675 1.75781 41.6675 3.90625ZM85.6616 3.90625C85.6616 6.05469 83.855 7.86133 81.7066 7.86133L54.9976 7.86133C52.8491 7.86133 51.0425 6.05469 51.0425 3.90625C51.0425 1.75781 52.8491 0 54.9976 0L81.7066 0C83.855 0 85.6616 1.75781 85.6616 3.90625ZM129.607 3.90625C129.607 6.05469 127.8 7.86133 125.652 7.86133L98.9429 7.86133C96.7945 7.86133 95.0366 6.05469 95.0366 3.90625C95.0366 1.75781 96.7945 0 98.9429 0L125.652 0C127.8 0 129.607 1.75781 129.607 3.90625Z" fill="#000000" fill-opacity="0.85"/>
  <path d="M68.4253 115.527C74.3823 115.527 79.4116 110.547 79.4116 104.492C79.4116 98.4375 74.4312 93.457 68.4253 93.457C62.3706 93.457 57.3902 98.4375 57.3902 104.492C57.3902 110.547 62.3218 115.527 68.4253 115.527ZM68.4253 108.984C65.8863 108.984 63.8843 106.982 63.8843 104.492C63.8843 102.002 65.8863 99.9023 68.4253 99.9023C70.8667 99.9023 73.0152 102.002 73.0152 104.492C73.0152 106.982 70.8667 108.984 68.4253 108.984ZM61.1988 99.9023L68.1323 96.1914L24.0894 20.5078C23.0152 18.6523 20.7691 17.9688 18.6206 19.043C16.6187 20.0684 16.1792 22.6074 17.2534 24.4629Z" fill="#000000" fill-opacity="0.85"/>
 </g>
</svg>
