<?xml version="1.0" encoding="UTF-8"?>
<!--Generator: Apple Native CoreSVG 232.5-->
<!DOCTYPE svg
PUBLIC "-//W3C//DTD SVG 1.1//EN"
       "http://www.w3.org/Graphics/SVG/1.1/DTD/svg11.dtd">
<svg version="1.1" xmlns="http://www.w3.org/2000/svg" xmlns:xlink="http://www.w3.org/1999/xlink" width="126.172" height="81.2988">
 <g>
  <rect height="81.2988" opacity="0" width="126.172" x="0" y="0"/>
  <path d="M0 77.1484C0 79.3945 1.85547 81.2012 4.05273 81.2012L122.119 81.2012C124.365 81.2012 126.172 79.3945 126.172 77.1484C126.172 74.9023 124.365 73.0957 122.119 73.0957L119.482 73.0957L119.482 7.27539C119.482 2.92969 116.504 0 111.963 0L14.0625 0C9.57031 0 6.54297 2.92969 6.54297 7.27539L6.54297 73.0957L4.05273 73.0957C1.85547 73.0957 0 74.9023 0 77.1484ZM14.4531 37.4023L14.4531 9.22852C14.4531 8.44727 14.9414 7.86133 15.6738 7.86133L59.8145 7.86133L59.8145 37.4023ZM66.2109 37.4023L66.2109 7.86133L110.4 7.86133C111.133 7.86133 111.621 8.44727 111.621 9.22852L111.621 37.4023ZM14.4531 73.0957L14.4531 43.7988L59.8145 43.7988L59.8145 73.0957ZM66.2109 73.0957L66.2109 43.7988L111.621 43.7988L111.621 73.0957Z" fill="#000000" fill-opacity="0.85"/>
 </g>
</svg>
