<?xml version="1.0" encoding="UTF-8"?>
<!--Generator: Apple Native CoreSVG 232.5-->
<!DOCTYPE svg
PUBLIC "-//W3C//DTD SVG 1.1//EN"
       "http://www.w3.org/Graphics/SVG/1.1/DTD/svg11.dtd">
<svg version="1.1" xmlns="http://www.w3.org/2000/svg" xmlns:xlink="http://www.w3.org/1999/xlink" width="99.6094" height="99.6582">
 <g>
  <rect height="99.6582" opacity="0" width="99.6094" x="0" y="0"/>
  <path d="M49.8047 99.6094C77.0508 99.6094 99.6094 77.002 99.6094 49.8047C99.6094 22.5586 77.002 0 49.7559 0C22.5586 0 0 22.5586 0 49.8047C0 77.002 22.6074 99.6094 49.8047 99.6094ZM49.8047 91.3086C26.7578 91.3086 8.34961 72.8516 8.34961 49.8047C8.34961 26.7578 26.709 8.30078 49.7559 8.30078C72.8027 8.30078 91.3086 26.7578 91.3086 49.8047C91.3086 72.8516 72.8516 91.3086 49.8047 91.3086Z" fill="#000000" fill-opacity="0.85"/>
  <path d="M20.9473 44.1895C25.0977 42.8223 29.3945 42.1387 33.5938 42.1387C39.0137 42.1387 43.0176 43.0176 48.2422 43.0176C53.8086 43.0176 57.4219 39.1602 57.4219 34.1797C57.4219 29.0527 53.418 25.3906 48.6328 25.3906C44.9707 25.3906 41.7969 27.6367 40.5273 30.6641C39.9902 31.8359 40.2344 33.3984 41.6016 34.0332C42.7734 34.6191 44.2383 34.1797 44.9707 32.7148C45.6055 31.3477 46.9238 30.3223 48.6328 30.3223C50.7812 30.3223 52.4414 31.6895 52.4414 34.1797C52.4414 36.6211 50.8789 38.0859 48.2422 38.0859C43.3105 38.0859 39.3066 37.1582 33.5938 37.1582C28.7598 37.1582 23.8281 38.0859 19.4336 39.502C17.8223 39.9414 17.2363 41.3086 17.6758 42.627C18.0176 43.9453 19.3848 44.7266 20.9473 44.1895ZM66.9434 58.0566C74.1699 58.0566 79.2969 53.418 79.2969 46.9727C79.2969 40.6738 74.4141 36.0352 68.3594 36.0352C62.7441 36.0352 58.4961 39.9414 57.8125 45.1172C57.5195 46.6797 58.4961 47.9492 59.8145 48.0957C61.1816 48.291 62.4023 47.4609 62.7441 45.752C63.1836 42.9199 65.4297 41.0156 68.3594 41.0156C71.7285 41.0156 74.3164 43.3594 74.3164 46.9727C74.3164 50.6836 71.5332 53.0273 66.9434 53.0273C58.1055 53.0273 48.3887 47.9004 36.4258 47.9004C30.3223 47.9004 24.6582 48.9746 19.3848 50.7812C17.8711 51.3184 17.2363 52.6855 17.6758 53.9551C18.0176 55.2734 19.3848 56.0547 20.9961 55.5176C25.7324 53.7109 30.6152 52.8809 36.4258 52.8809C48.0957 52.8809 56.8848 58.0566 66.9434 58.0566ZM48.2422 78.8086C53.0762 78.8086 56.8848 75.1953 56.8848 70.0684C56.8848 62.6953 49.4141 58.6426 36.084 58.6426C30.5664 58.6426 24.4629 59.7168 19.3359 61.4746C17.9199 62.0605 17.1875 63.3789 17.6758 64.5996C18.0176 65.918 19.3848 66.7969 20.9961 66.2598C25.6348 64.5508 30.7617 63.5742 36.084 63.5742C46.6797 63.5742 51.9043 66.1133 51.9043 70.0684C51.9043 72.5098 50.3418 73.8281 48.2422 73.8281C46.1426 73.8281 45.0195 72.6074 44.6289 70.2637C44.4336 68.9941 43.4082 67.7734 41.8457 67.9199C40.0879 68.0176 39.4043 69.5801 39.5996 70.9961C40.1367 75.293 43.4082 78.8086 48.2422 78.8086ZM68.3594 32.4219C69.1406 32.4219 69.6777 31.6895 69.6289 30.9082L69.4824 27.9785L71.875 29.6387C72.5098 30.0781 73.4375 29.8828 73.8281 29.248C74.3164 28.6621 74.0723 27.6367 73.1934 27.2461L70.6055 25.9766L73.1934 24.6094C74.0234 24.1699 74.2188 23.3887 73.877 22.7051C73.5352 22.0215 72.5098 21.875 71.875 22.2656L69.4824 23.9746L69.6289 21.0938C69.6777 20.2148 69.1406 19.5312 68.3594 19.5312C67.4805 19.5312 66.8945 20.2148 66.9434 21.0449L67.1387 23.9746L64.6484 22.2656C64.0137 21.875 63.1348 21.9727 62.793 22.7051C62.4023 23.291 62.5488 24.1699 63.3789 24.6582L65.9668 25.9766L63.3789 27.2461C62.5 27.6367 62.4023 28.5645 62.6953 29.1992C63.0371 29.9316 64.0137 30.0781 64.6484 29.6387L67.1387 27.9785L66.9922 30.9082C66.9434 31.6895 67.4805 32.4219 68.3594 32.4219ZM67.3828 72.0703C67.8711 72.0703 68.2617 71.582 68.2129 71.0938L68.1152 69.7754L69.1895 70.6055C69.5312 70.8984 70.2637 70.7031 70.459 70.3613C70.8008 69.9707 70.7031 69.1895 70.1172 68.9453L68.8477 68.4082L70.1172 67.7734C70.6543 67.4805 70.7031 66.9434 70.5078 66.5527C70.3125 66.0645 69.5801 65.918 69.1895 66.1621L68.1152 67.0898L68.2129 65.7227C68.2617 65.1367 67.8711 64.7461 67.3828 64.7461C66.7969 64.7461 66.3574 65.1367 66.4062 65.6738L66.5527 67.0898L65.3809 66.1621C65.0391 65.918 64.4043 66.0156 64.1602 66.5527C63.9648 66.8457 63.916 67.4805 64.5508 67.8223L65.7715 68.4082L64.5508 68.9453C63.916 69.2383 63.9648 69.873 64.1113 70.2637C64.2578 70.752 65.0391 70.8984 65.3809 70.6055L66.5527 69.7754L66.4551 71.0938C66.4062 71.582 66.7969 72.0703 67.3828 72.0703Z" fill="#000000" fill-opacity="0.85"/>
 </g>
</svg>
