<?xml version="1.0" encoding="UTF-8"?>
<!--Generator: Apple Native CoreSVG 232.5-->
<!DOCTYPE svg
PUBLIC "-//W3C//DTD SVG 1.1//EN"
       "http://www.w3.org/Graphics/SVG/1.1/DTD/svg11.dtd">
<svg version="1.1" xmlns="http://www.w3.org/2000/svg" xmlns:xlink="http://www.w3.org/1999/xlink" width="119.629" height="95.0684">
 <g>
  <rect height="95.0684" opacity="0" width="119.629" x="0" y="0"/>
  <path d="M119.629 43.3105L119.629 79.9316C119.629 89.9902 114.551 95.0684 104.297 95.0684L15.332 95.0684C5.12695 95.0684 0 89.9902 0 79.9316L0 43.3105C0 33.2031 5.12695 28.1738 15.332 28.1738L49.2188 28.1738L49.2188 36.0352L15.4297 36.0352C10.5469 36.0352 7.86133 38.623 7.86133 43.7012L7.86133 79.4922C7.86133 84.5703 10.5469 87.207 15.4297 87.207L104.15 87.207C108.984 87.207 111.768 84.5703 111.768 79.4922L111.768 43.7012C111.768 38.623 108.984 36.0352 104.15 36.0352L70.4102 36.0352L70.4102 28.1738L104.297 28.1738C114.551 28.1738 119.629 33.252 119.629 43.3105Z" fill="#000000" fill-opacity="0.85"/>
  <path d="M6.29883 16.4551C8.1543 17.5781 10.2539 17.041 11.6699 15.332C14.3555 12.1094 17.7246 9.7168 21.582 8.34961C23.6816 7.56836 25 5.76172 24.5605 3.61328C24.0234 1.17188 21.6309 0 18.75 1.02539C13.7695 2.68555 9.0332 6.10352 5.41992 10.5469C3.66211 12.6465 4.29688 15.2832 6.29883 16.4551ZM54.248 16.3574C56.25 15.1855 56.7383 12.5977 55.0293 10.498C51.416 6.05469 46.6797 2.68555 41.748 1.07422C38.6719-0.0488281 36.377 1.36719 35.9375 3.71094C35.5957 5.81055 36.8164 7.56836 38.916 8.34961C42.7246 9.7168 46.0938 12.1094 48.7305 15.2832C50.293 17.1387 52.3438 17.4805 54.248 16.3574ZM65.3809 16.3574C67.2852 17.4805 69.2871 17.1387 70.8984 15.2832C73.4863 12.1094 76.9043 9.7168 80.6641 8.34961C82.8125 7.56836 84.0332 5.81055 83.6426 3.71094C83.252 1.36719 80.957-0.0488281 77.8809 1.07422C72.9492 2.68555 68.1641 6.05469 64.5508 10.498C62.8906 12.5977 63.3301 15.1855 65.3809 16.3574ZM113.33 16.4551C115.332 15.2832 115.967 12.6465 114.209 10.5469C110.596 6.10352 105.859 2.68555 100.83 1.02539C97.998 0 95.5566 1.17188 95.0684 3.61328C94.5801 5.76172 95.9473 7.56836 98.0469 8.34961C101.904 9.7168 105.273 12.1094 107.959 15.332C109.375 17.041 111.475 17.5781 113.33 16.4551ZM59.8145 42.8223C61.9629 42.8223 63.7207 41.0156 63.7207 38.8672L63.7207 26.416C63.7207 24.2676 61.9629 22.5098 59.8145 22.5098C57.666 22.5098 55.8594 24.2676 55.8594 26.416L55.8594 38.8672C55.8594 41.0156 57.666 42.8223 59.8145 42.8223ZM59.8145 69.6777C61.9629 69.6777 63.7207 67.9199 63.7207 65.7715L63.7207 53.3203C63.7207 51.1719 61.9629 49.3652 59.8145 49.3652C57.666 49.3652 55.8594 51.1719 55.8594 53.3203L55.8594 65.7715C55.8594 67.9199 57.666 69.6777 59.8145 69.6777Z" fill="#000000" fill-opacity="0.85"/>
 </g>
</svg>
