<?xml version="1.0" encoding="UTF-8"?>
<!--Generator: Apple Native CoreSVG 232.5-->
<!DOCTYPE svg
PUBLIC "-//W3C//DTD SVG 1.1//EN"
       "http://www.w3.org/Graphics/SVG/1.1/DTD/svg11.dtd">
<svg version="1.1" xmlns="http://www.w3.org/2000/svg" xmlns:xlink="http://www.w3.org/1999/xlink" width="71.3867" height="116.357">
 <g>
  <rect height="116.357" opacity="0" width="71.3867" x="0" y="0"/>
  <path d="M35.6445 71.7773C57.0801 71.7773 71.3867 59.0332 71.3867 39.6973C71.3867 29.6387 67.1387 16.4062 60.9863 6.98242C58.1055 2.49023 48.7793 0 35.6934 0C22.5098 0 13.2324 2.49023 10.3027 6.98242C4.15039 16.4062 0 29.6387 0 39.6973C0 59.0332 14.209 71.7773 35.6445 71.7773ZM35.6445 64.4043C18.2129 64.4043 7.37305 54.8828 7.37305 39.6973C7.37305 32.4219 9.91211 22.998 14.1113 15.0879C18.3594 17.3828 26.0742 18.7012 35.6934 18.7012C45.2148 18.7012 52.9297 17.3828 57.1777 15.0879C61.4258 22.998 64.0137 32.4219 64.0137 39.6973C64.0137 54.8828 53.0762 64.4043 35.6445 64.4043ZM35.6934 11.8164C25.8789 11.8164 17.0898 10.4492 17.0898 9.32617C17.0898 8.30078 26.0254 6.93359 35.6934 6.93359C45.3125 6.93359 54.2969 8.30078 54.2969 9.32617C54.2969 10.4492 45.4102 11.8164 35.6934 11.8164ZM35.6445 104.492C37.6465 104.492 39.3555 102.783 39.3555 100.83L39.3555 67.9199L32.0312 67.9199L32.0312 100.83C32.0312 102.832 33.6914 104.492 35.6445 104.492ZM35.6445 116.309C53.3203 116.26 64.0137 111.914 64.0137 104.395C64.0137 96.9238 53.3203 92.5293 35.6445 92.5293C18.0176 92.5293 7.37305 96.9238 7.37305 104.395C7.37305 111.914 17.9688 116.26 35.6445 116.309ZM35.6445 109.131C23.1934 109.131 15.2344 107.129 15.2344 104.395C15.2344 101.709 23.2422 99.6582 35.6445 99.6582C48.0957 99.6582 56.1523 101.709 56.1523 104.395C56.1523 107.129 48.0957 109.131 35.6445 109.131Z" fill="#000000" fill-opacity="0.85"/>
 </g>
</svg>
