<?xml version="1.0" encoding="UTF-8"?>
<!--Generator: Apple Native CoreSVG 232.5-->
<!DOCTYPE svg
PUBLIC "-//W3C//DTD SVG 1.1//EN"
       "http://www.w3.org/Graphics/SVG/1.1/DTD/svg11.dtd">
<svg version="1.1" xmlns="http://www.w3.org/2000/svg" xmlns:xlink="http://www.w3.org/1999/xlink" width="89.8926" height="89.9902">
 <g>
  <rect height="89.9902" opacity="0" width="89.8926" x="0" y="0"/>
  <path d="M89.8926 15.2344L89.8926 74.8535C89.8926 84.9121 84.8145 89.9902 74.5605 89.9902L15.332 89.9902C5.12695 89.9902 0 84.9609 0 74.8535L0 15.2344C0 5.12695 5.12695 0.0976562 15.332 0.0976562L74.5605 0.0976562C84.8145 0.0976562 89.8926 5.17578 89.8926 15.2344ZM58.252 23.9258L56.0059 41.4551L51.6113 41.4551L48.7305 24.5605C48.4375 22.4609 46.7773 21.2891 44.9219 21.2891C43.0176 21.2891 41.4551 22.4609 41.1133 24.6094L38.2812 41.5039L33.9844 41.5039L31.8359 23.9746C31.5918 22.2168 30.2246 21.2891 28.6133 21.2891C26.7578 21.2891 25.3906 22.4121 25.3906 24.2188C25.3906 24.8047 25.4883 25.293 25.5859 25.7812L28.0273 41.5039L25.7812 41.5039C24.4141 41.5039 23.3398 42.5293 23.3398 43.9941C23.3398 45.3613 24.4141 46.5332 25.7812 46.5332L28.8574 46.5332L32.1289 66.8457C32.4219 68.8477 33.8867 69.9707 35.6934 69.9707C37.5488 69.9707 39.0137 68.9453 39.3555 66.8945L42.7246 46.4844L47.2168 46.4844L50.6836 66.8945C51.0254 68.9453 52.4902 69.9707 54.3457 69.9707C56.1035 69.9707 57.6172 68.8477 57.9102 66.8457L61.084 46.4844L64.1113 46.4844C65.5762 46.4844 66.6016 45.3125 66.6016 43.9453C66.6016 42.4805 65.5762 41.4551 64.1113 41.4551L61.9141 41.4551L64.4043 25.5371C64.502 25.0488 64.5996 24.6582 64.5996 24.0723C64.5996 22.3145 63.2324 21.2402 61.4258 21.2402C59.8633 21.2402 58.4961 22.168 58.252 23.9258ZM54.1504 58.5449L52.3438 46.4355L55.4688 46.4355ZM35.8398 58.252L34.668 46.4355L37.5488 46.4355ZM46.4355 41.5039L43.6035 41.5039L44.9707 31.6406Z" fill="#000000" fill-opacity="0.85"/>
 </g>
</svg>
