<?xml version="1.0" encoding="UTF-8"?>
<!--Generator: Apple Native CoreSVG 232.5-->
<!DOCTYPE svg
PUBLIC "-//W3C//DTD SVG 1.1//EN"
       "http://www.w3.org/Graphics/SVG/1.1/DTD/svg11.dtd">
<svg version="1.1" xmlns="http://www.w3.org/2000/svg" xmlns:xlink="http://www.w3.org/1999/xlink" width="99.6094" height="99.6582">
 <g>
  <rect height="99.6582" opacity="0" width="99.6094" x="0" y="0"/>
  <path d="M49.8047 99.6094C77.0508 99.6094 99.6094 77.002 99.6094 49.8047C99.6094 22.5586 77.002 0 49.7559 0C22.5586 0 0 22.5586 0 49.8047C0 77.002 22.6074 99.6094 49.8047 99.6094ZM49.8047 91.3086C26.7578 91.3086 8.34961 72.8516 8.34961 49.8047C8.34961 26.7578 26.709 8.30078 49.7559 8.30078C72.8027 8.30078 91.3086 26.7578 91.3086 49.8047C91.3086 72.8516 72.8516 91.3086 49.8047 91.3086Z" fill="#000000" fill-opacity="0.85"/>
  <path d="M28.7598 48.877C28.7598 50.1953 29.834 51.3184 31.1523 51.3184L34.1309 51.3184L37.3047 71.0449C37.5977 72.9492 39.0137 74.0234 40.7715 74.0234C42.5293 74.0234 43.9453 73.0469 44.2871 71.0938L47.5586 51.2695L51.9531 51.2695L55.3223 71.0938C55.6641 73.0469 57.0801 74.0234 58.8379 74.0234C60.5469 74.0234 62.0117 72.9492 62.3047 71.0449L65.3809 51.2695L68.3105 51.2695C69.6777 51.2695 70.7031 50.1465 70.7031 48.8281C70.7031 47.4121 69.6777 46.4355 68.3105 46.4355L66.1621 46.4355L68.5547 31.0059C68.6523 30.5176 68.75 30.127 68.75 29.5898C68.75 27.8809 67.4316 26.8555 65.7227 26.8555C64.209 26.8555 62.8906 27.7344 62.6465 29.4434L60.4492 46.4355L56.2012 46.4355L53.3691 30.0293C53.0762 28.0273 51.4648 26.9043 49.707 26.9043C47.8516 26.9043 46.3867 28.0273 46.0449 30.0781L43.2617 46.4844L39.1113 46.4844L37.0117 29.4922C36.7676 27.7832 35.4492 26.9043 33.8867 26.9043C32.1289 26.9043 30.7617 27.9785 30.7617 29.6875C30.7617 30.2734 30.9082 30.7617 30.957 31.2012L33.3496 46.4844L31.1523 46.4844C29.834 46.4844 28.7598 47.4609 28.7598 48.877ZM39.7461 51.2207L42.5781 51.2207L40.918 62.6953ZM48.4375 46.4844L49.7559 36.9141L51.1719 46.4844ZM56.8848 51.2207L59.9609 51.2207L58.6426 62.9883Z" fill="#000000" fill-opacity="0.85"/>
 </g>
</svg>
