<?xml version="1.0" encoding="UTF-8"?>
<!--Generator: Apple Native CoreSVG 232.5-->
<!DOCTYPE svg
PUBLIC "-//W3C//DTD SVG 1.1//EN"
       "http://www.w3.org/Graphics/SVG/1.1/DTD/svg11.dtd">
<svg version="1.1" xmlns="http://www.w3.org/2000/svg" xmlns:xlink="http://www.w3.org/1999/xlink" width="108.545" height="90.1855">
 <g>
  <rect height="90.1855" opacity="0" width="108.545" x="0" y="0"/>
  <path d="M29.1992 88.8672C32.373 88.8672 34.7168 86.9141 35.498 83.8867L54.0039 16.0645L54.4922 16.0645L72.998 83.8867C73.7305 86.9141 76.123 88.8672 79.248 88.8672C82.5195 88.8672 85.0586 86.8652 85.6934 83.6914L101.562 6.83594C101.709 5.95703 101.855 5.12695 101.855 4.24805C101.855 1.61133 99.7559 0 97.1191 0C94.7266 0 92.9199 1.46484 92.4805 3.85742L79.0039 76.0254L78.6133 76.0254L59.2285 4.24805C58.5938 1.75781 57.0801 0.195312 54.2969 0.195312C51.4648 0.195312 49.9023 1.9043 49.2188 4.44336L29.8828 76.0254L29.4922 76.0254L16.0156 3.85742C15.5762 1.51367 13.7695 0 11.3281 0C8.69141 0 6.64062 1.61133 6.64062 4.24805C6.64062 5.07812 6.73828 5.9082 6.88477 6.78711L22.8027 83.6914C23.4375 86.8652 25.9277 88.8672 29.1992 88.8672ZM3.125 47.168L105.371 47.168C107.178 47.168 108.545 45.752 108.545 43.9453C108.545 42.0898 107.178 40.7715 105.371 40.7715L3.125 40.7715C1.36719 40.7715 0 42.0898 0 43.9453C0 45.752 1.36719 47.168 3.125 47.168Z" fill="#000000" fill-opacity="0.85"/>
 </g>
</svg>
