<?xml version="1.0" encoding="UTF-8"?>
<!--Generator: Apple Native CoreSVG 232.5-->
<!DOCTYPE svg
PUBLIC "-//W3C//DTD SVG 1.1//EN"
       "http://www.w3.org/Graphics/SVG/1.1/DTD/svg11.dtd">
<svg version="1.1" xmlns="http://www.w3.org/2000/svg" xmlns:xlink="http://www.w3.org/1999/xlink" width="113.636" height="116.332">
 <g>
  <rect height="116.332" opacity="0" width="113.636" x="0" y="0"/>
  <path d="M6.01253 110.388C14.0692 118.444 25.7879 118.542 33.991 109.265C42.7801 99.2061 53.034 80.0655 67.0477 66.0518C77.9364 55.1143 90.2899 65.7589 105.28 51.4034C111.286 45.6905 114.606 37.4874 113.386 31.5303L94.6356 36.6573C91.4617 37.4874 89.2645 35.4854 88.2879 32.1163L86.8719 27.1846C85.8953 23.8155 87.0672 20.9835 90.1922 20.1534L108.893 15.0753C108.356 13.3663 106.745 11.0225 104.743 8.97176C93.4637-2.60051 74.5672-2.4052 63.6785 7.89754C47.37 23.3761 59.7235 39.7335 49.0301 50.4268C36.2371 63.171 17.0965 73.6202 7.08675 82.4093C-2.23942 90.5636-2.09294 102.282 6.01253 110.388ZM10.6512 105.7C5.37776 100.329 5.42659 92.3702 11.5789 86.9503C21.6864 78.1124 42.1453 66.6378 53.7176 55.0655C66.3153 42.4678 52.9852 26.7452 68.4149 12.5362C76.8621 4.77254 91.8035 4.77254 100.739 13.6104L102.35 10.6807L88.8739 14.1964C81.745 16.1007 78.62 21.5694 80.7684 28.9913L82.1356 33.7276C84.4793 41.9796 89.3133 44.2745 95.8563 42.5167L109.772 38.7569L106.843 37.1944C105.817 40.71 103.962 44.2745 100.886 47.3507C88.7274 59.2159 74.8114 49.0108 62.3602 61.3643C49.6649 74.0596 38.2879 94.6163 29.45 104.773C23.9325 111.12 15.9246 111.12 10.6512 105.7ZM69.0496 48.1319L79.6453 45.2999C80.5242 45.0557 81.0614 44.0792 80.8172 43.1514C80.6219 42.2725 79.6942 41.6866 78.7176 41.9796L68.1707 44.8116C67.243 45.0557 66.7547 45.9835 66.95 46.8624C67.0965 47.9366 68.1219 48.3761 69.0496 48.1319ZM67.7801 42.7608L78.2293 39.9776C79.1571 39.7335 79.743 38.8057 79.45 37.7803C79.2059 36.8526 78.2293 36.3643 77.3504 36.5596L66.8035 39.4405C65.8758 39.6358 65.3387 40.6124 65.5828 41.4913C65.8758 42.5167 66.7547 43.0538 67.7801 42.7608ZM66.4617 37.3897L76.9598 34.6065C77.8875 34.3624 78.4246 33.4346 78.1317 32.4093C77.9364 31.4815 76.9598 30.9444 76.0809 31.1886L65.4852 34.0206C64.5575 34.2647 64.0692 35.2413 64.3133 36.1202C64.5575 37.1456 65.4364 37.6827 66.4617 37.3897ZM88.2391 55.9932L92.6336 55.0167L86.5301 32.8487L82.1356 33.7276ZM19.8309 102.624C23.1512 102.624 25.8367 99.9386 25.8367 96.6182C25.8367 93.2979 23.1512 90.5636 19.8309 90.5636C16.5106 90.5636 13.7762 93.2979 13.7762 96.6182C13.7762 99.9386 16.5106 102.624 19.8309 102.624Z" fill="#000000" fill-opacity="0.85"/>
 </g>
</svg>
