<?xml version="1.0" encoding="UTF-8"?>
<!--Generator: Apple Native CoreSVG 232.5-->
<!DOCTYPE svg
PUBLIC "-//W3C//DTD SVG 1.1//EN"
       "http://www.w3.org/Graphics/SVG/1.1/DTD/svg11.dtd">
<svg version="1.1" xmlns="http://www.w3.org/2000/svg" xmlns:xlink="http://www.w3.org/1999/xlink" width="116.053" height="117.884">
 <g>
  <rect height="117.884" opacity="0" width="116.053" x="0" y="0"/>
  <path d="M92.5966 85.431L96.9911 86.1146C98.7489 86.3587 100.311 87.433 101.337 88.9466L111.542 104.181C112.518 105.695 112.665 107.257 111.64 108.331L102.899 117.072C101.825 118.146 100.311 118.146 98.7489 117.12L83.4657 106.769C82.0009 105.792 80.8778 104.23 80.6337 102.472L79.9501 98.0775L58.6448 76.7722C59.9503 75.0835 61.3822 73.3055 62.9662 71.4256L86.786 95.2455L87.7626 100.714L100.116 110.04L104.559 105.597L95.2333 93.1947L89.7646 92.267L65.6909 68.2393C67.1062 66.6107 68.6345 64.9083 70.2905 63.125ZM32.3915 10.6263L61.5225 39.7987C61.8074 40.6178 62.1437 41.4242 62.5185 42.2181C61.1101 43.6074 59.7404 44.9334 58.4214 46.1777L27.2646 15.0209C23.7001 11.5052 19.8915 11.4564 16.4247 14.972L9.53994 21.9056C6.02432 25.4701 5.97549 29.181 9.53994 32.7455L39.2777 62.4832C37.3013 63.9509 35.4479 65.2502 33.7 66.4187L5.14541 37.8236C-1.69053 30.9877-1.69053 23.6634 4.99893 16.974L11.4931 10.4798C18.1825 3.79039 25.5067 3.79039 32.3915 10.6263ZM18.3778 27.3255L36.6396 45.5873C37.372 46.3197 37.3231 47.4427 36.6396 48.1263C35.956 48.8587 34.7841 48.8587 34.0517 48.1263L15.7899 29.9623C15.0575 29.2787 15.1063 28.1068 15.7899 27.3255C16.5224 26.642 17.7431 26.7396 18.3778 27.3255ZM24.4325 21.3197L42.6942 39.5326C43.3778 40.2162 43.3778 41.3392 42.6454 42.1693C42.0106 42.8041 40.7411 42.9017 40.0575 42.1693L21.8935 23.8587C21.2099 23.1752 21.161 22.0521 21.8935 21.3197C22.5282 20.6361 23.7001 20.5873 24.4325 21.3197Z" fill="#000000" fill-opacity="0.85"/>
  <path d="M7.63565 111.31C16.1317 119.708 27.5087 119.806 35.8583 111.408C46.3563 100.812 44.6962 88.8978 76.7274 56.3783C87.1767 61.3099 99.8231 59.6498 108.222 51.3002C117.011 42.5111 118.524 28.6439 111.981 17.4134L98.7001 30.6947C97.3817 32.013 95.7216 32.1107 94.3056 30.6947L88.3485 24.6888C86.9325 23.224 86.786 21.515 88.1044 20.1966L101.434 6.96422C90.3017 0.470077 76.4833 1.93492 67.6942 10.7728C59.2958 19.1712 57.5868 31.7689 62.5185 42.2181C30.0478 74.2494 18.1337 72.5892 7.53799 83.0384C-0.909275 91.388-0.811619 102.814 7.63565 111.31ZM72.9677 45.9779C64.2763 37.2865 63.9345 23.517 72.2353 15.3138C76.9228 10.5775 83.6122 8.6732 90.0087 9.69859L82.9286 16.7787C79.3153 20.3431 79.413 24.933 83.1728 28.5951L90.3993 35.7728C94.0126 39.3861 98.6513 39.4837 102.069 36.017L109.247 28.7904C110.321 35.2845 108.368 41.974 103.632 46.7591C95.3798 55.0111 81.7079 54.6205 72.9677 45.9779ZM12.4696 106.476C6.8544 100.763 6.95205 93.4877 12.3231 88.0677C24.1396 76.349 31.1708 81.3295 65.7899 47.4916C66.5712 48.5658 67.4501 49.5423 68.3778 50.5189C69.3056 51.4466 70.331 52.3744 71.4052 53.1556C37.6161 87.7748 42.5966 94.806 30.8778 106.525C25.4579 111.994 18.1337 112.042 12.4696 106.476ZM21.5517 103.546C24.872 103.546 27.6063 100.812 27.6063 97.4916C27.6063 94.1712 24.872 91.4857 21.5517 91.4857C18.2313 91.4857 15.5458 94.1712 15.5458 97.4916C15.5458 100.812 18.2313 103.546 21.5517 103.546Z" fill="#000000" fill-opacity="0.85"/>
 </g>
</svg>
