<?xml version="1.0" encoding="UTF-8"?>
<!--Generator: Apple Native CoreSVG 232.5-->
<!DOCTYPE svg
PUBLIC "-//W3C//DTD SVG 1.1//EN"
       "http://www.w3.org/Graphics/SVG/1.1/DTD/svg11.dtd">
<svg version="1.1" xmlns="http://www.w3.org/2000/svg" xmlns:xlink="http://www.w3.org/1999/xlink" width="113.622" height="116.584">
 <g>
  <rect height="116.584" opacity="0" width="113.622" x="0" y="0"/>
  <path d="M6.00541 110.562C14.0621 118.619 26.0249 118.912 33.9351 109.488C39.7456 102.506 54.4429 78.8241 67.0406 66.2264C75.439 57.828 84.7164 62.2713 94.0425 58.4627L85.7417 28.1893C84.7164 24.4295 86.23 21.3045 90.5757 20.1327L108.886 15.2499C108.3 13.5409 106.689 11.1971 104.687 9.14634C93.4078-2.42592 74.7554-2.57241 63.6226 7.97447C47.3628 23.453 59.7164 39.8104 49.023 50.5038C35.5464 63.9315 16.9917 73.6971 7.07963 82.5838C-2.19771 90.8358-2.14888 102.408 6.00541 110.562ZM19.8238 102.75C16.5035 102.75 13.7691 100.064 13.7691 96.744C13.7691 93.4237 16.5035 90.6893 19.8238 90.6893C23.1441 90.6893 25.8296 93.4237 25.8296 96.744C25.8296 100.064 23.1441 102.75 19.8238 102.75ZM65.7222 37.5155C64.648 37.8085 63.7203 37.2713 63.3785 36.0995C63.0855 35.2206 63.6714 34.1463 64.6968 33.8534L76.1226 30.7772C77.0503 30.5331 78.1246 31.119 78.3687 32.1444C78.7105 33.2674 78.0757 34.244 77.0503 34.537ZM67.1871 43.326C66.1128 43.619 65.1851 43.0819 64.7945 41.91C64.5015 41.0311 65.1363 39.9569 66.1617 39.7127L77.5386 36.5877C78.4664 36.3924 79.5406 36.9295 79.8335 37.9549C80.1753 39.078 79.4917 40.0545 78.4664 40.3475ZM68.6031 49.1366C67.5777 49.4295 66.5035 48.8924 66.3081 47.7206C66.064 46.744 66.6011 45.8163 67.6753 45.5233L79.0035 42.496C80.0777 42.1542 81.1031 42.7889 81.2984 43.7655C81.5425 44.742 80.9566 45.8163 80.0289 46.0604ZM99.4136 56.119C101.318 54.996 103.271 53.5311 105.273 51.6268C111.425 46.0604 114.599 37.662 113.33 31.7049L98.5347 35.7577C96.8746 36.1971 95.4585 36.2948 93.9449 36.0506Z" fill="#000000" fill-opacity="0.85"/>
 </g>
</svg>
