<?xml version="1.0" encoding="UTF-8"?>
<!--Generator: Apple Native CoreSVG 232.5-->
<!DOCTYPE svg
PUBLIC "-//W3C//DTD SVG 1.1//EN"
       "http://www.w3.org/Graphics/SVG/1.1/DTD/svg11.dtd">
<svg version="1.1" xmlns="http://www.w3.org/2000/svg" xmlns:xlink="http://www.w3.org/1999/xlink" width="99.6094" height="99.6582">
 <g>
  <rect height="99.6582" opacity="0" width="99.6094" x="0" y="0"/>
  <path d="M99.6094 49.8535C99.6094 77.0996 77.0508 99.6582 49.8047 99.6582C22.6074 99.6582 0 77.0996 0 49.8535C0 22.6562 22.5586 0.0488281 49.7559 0.0488281C77.002 0.0488281 99.6094 22.6562 99.6094 49.8535ZM24.4629 38.2324C21.8262 38.2324 19.8242 40.1855 19.8242 42.8711L19.8242 56.6895C19.8242 59.375 21.8262 61.3281 24.4629 61.3281L75.2441 61.3281C77.8809 61.3281 79.834 59.3262 79.834 56.6406L79.834 42.8711C79.834 40.1855 77.8809 38.2324 75.2441 38.2324Z" fill="#000000" fill-opacity="0.85"/>
 </g>
</svg>
