<?xml version="1.0" encoding="UTF-8"?>
<!--Generator: Apple Native CoreSVG 232.5-->
<!DOCTYPE svg
PUBLIC "-//W3C//DTD SVG 1.1//EN"
       "http://www.w3.org/Graphics/SVG/1.1/DTD/svg11.dtd">
<svg version="1.1" xmlns="http://www.w3.org/2000/svg" xmlns:xlink="http://www.w3.org/1999/xlink" width="105.713" height="88.3301">
 <g>
  <rect height="88.3301" opacity="0" width="105.713" x="0" y="0"/>
  <path d="M18.5059 88.3301C23.0957 88.3301 25.4883 85.1074 26.8066 80.9082L49.0234 9.375L101.025 9.375C103.809 9.375 105.713 7.66602 105.713 4.98047C105.713 2.39258 103.809 0.683594 101.025 0.683594L48.9258 0.683594C43.9453 0.683594 41.6992 2.53906 40.3809 6.83594L19.043 76.9043L18.2129 76.9043L9.0332 44.5312C8.25195 41.8457 6.78711 40.5762 4.49219 40.5762C1.9043 40.5762 0 42.4316 0 44.8242C0 45.8008 0.244141 46.6797 0.439453 47.4121L10.791 81.4453C12.0117 85.4004 14.209 88.3301 18.5059 88.3301ZM58.3008 78.3691C60.1074 78.3691 61.0352 77.7344 62.4023 75.8301L73.9746 59.4727L74.1699 59.4727L85.6445 75.8301C87.0605 77.7344 87.9883 78.3691 89.7461 78.3691C92.1875 78.3691 93.9941 76.709 93.9941 74.4141C93.9941 73.3398 93.75 72.4609 93.0176 71.5332L79.5898 53.2715L93.1152 34.9121C93.8477 33.8867 94.1406 33.0078 94.1406 32.0312C94.1406 29.8828 92.3828 28.2227 90.0391 28.2227C88.3301 28.2227 87.3047 28.8086 86.0352 30.6152L74.9512 47.0703L74.707 47.0703L63.2812 30.5664C62.0605 28.8086 60.9863 28.2227 59.1797 28.2227C56.8359 28.2227 54.8828 30.0293 54.8828 32.2266C54.8828 33.4473 55.1758 34.2285 56.0547 35.3516L68.8965 53.0273L55.2734 71.8262C54.541 72.8027 54.3457 73.4863 54.3457 74.6094C54.3457 76.709 56.0547 78.3691 58.3008 78.3691Z" fill="#000000" fill-opacity="0.85"/>
 </g>
</svg>
