<?xml version="1.0" encoding="UTF-8"?>
<!--Generator: Apple Native CoreSVG 232.5-->
<!DOCTYPE svg
PUBLIC "-//W3C//DTD SVG 1.1//EN"
       "http://www.w3.org/Graphics/SVG/1.1/DTD/svg11.dtd">
<svg version="1.1" xmlns="http://www.w3.org/2000/svg" xmlns:xlink="http://www.w3.org/1999/xlink" width="122.754" height="92.8223">
 <g>
  <rect height="92.8223" opacity="0" width="122.754" x="0" y="0"/>
  <path d="M107.324 37.5C116.846 41.5039 122.754 50.3906 122.754 60.6445C122.754 74.0723 111.23 84.8633 96.4844 84.8633L29.248 84.8633C12.5488 84.8633 0 72.8027 0 58.4473C0 46.5332 6.88477 36.6699 17.9199 34.9121C18.1641 21.2402 31.25 12.1094 43.2617 15.625C49.1211 7.08008 58.5449 0 71.7773 0C91.748 0 107.422 15.7227 107.324 37.5ZM46.1426 33.3496C44.7754 34.8145 44.4824 36.9629 45.9961 38.5254L56.0059 48.6328L45.9961 58.7402C44.4824 60.3027 44.6777 62.5488 46.0938 63.8672C47.5586 65.2344 49.7559 65.5273 51.3184 64.0137L61.377 54.0039L71.4355 64.0137C73.0469 65.5273 75.293 65.332 76.6602 63.916C77.9785 62.4512 78.3203 60.3027 76.8066 58.7402L66.748 48.6328L76.8066 38.5254C78.3203 36.9629 78.125 34.7168 76.6602 33.3496C75.2441 32.0312 73.0469 31.6895 71.4355 33.252L61.377 43.2617L51.3184 33.252C49.7559 31.7383 47.4609 31.9336 46.1426 33.3496Z" fill="#000000" fill-opacity="0.85"/>
 </g>
</svg>
