<?xml version="1.0" encoding="UTF-8"?>
<!--Generator: Apple Native CoreSVG 232.5-->
<!DOCTYPE svg
PUBLIC "-//W3C//DTD SVG 1.1//EN"
       "http://www.w3.org/Graphics/SVG/1.1/DTD/svg11.dtd">
<svg version="1.1" xmlns="http://www.w3.org/2000/svg" xmlns:xlink="http://www.w3.org/1999/xlink" width="90.0391" height="90.0879">
 <g>
  <rect height="90.0879" opacity="0" width="90.0391" x="0" y="0"/>
  <path d="M84.3262 5.76172C89.3066 10.7422 90.0391 17.6758 90.0391 26.0254L90.0391 63.9648C90.0391 72.3145 89.3066 79.2969 84.3262 84.2773C79.3457 89.2578 72.3145 90.0391 63.9648 90.0391L26.0254 90.0391C17.7246 90.0391 10.6934 89.2578 5.71289 84.2773C0.732422 79.2969 0 72.3145 0 63.9648L0 25.9277C0 17.7246 0.732422 10.7422 5.71289 5.76172C10.6934 0.78125 17.7246 0 25.9277 0L63.9648 0C72.3145 0 79.3457 0.78125 84.3262 5.76172ZM58.6426 25.7812L44.9219 39.4043L31.2988 25.8301C30.5664 25.0977 29.6387 24.707 28.5156 24.707C26.3184 24.707 24.5117 26.416 24.5117 28.7109C24.5117 29.7852 24.9023 30.7617 25.6836 31.543L39.2578 45.0684L25.6836 58.6426C24.9023 59.375 24.5117 60.4004 24.5117 61.4746C24.5117 63.7207 26.3184 65.5273 28.5156 65.5273C29.6387 65.5273 30.7129 65.1367 31.4453 64.3555L44.9219 50.7812L58.4473 64.3555C59.1797 65.1367 60.2539 65.5273 61.377 65.5273C63.623 65.5273 65.4297 63.7207 65.4297 61.4746C65.4297 60.3516 65.0391 59.3262 64.2578 58.5938L50.6836 45.0684L64.3066 31.4941C65.1367 30.6152 65.4785 29.7363 65.4785 28.6133C65.4785 26.3672 63.6719 24.6094 61.4746 24.6094C60.4004 24.6094 59.4727 24.9512 58.6426 25.7812Z" fill="#000000" fill-opacity="0.85"/>
 </g>
</svg>
