<?xml version="1.0" encoding="UTF-8"?>
<!--Generator: Apple Native CoreSVG 232.5-->
<!DOCTYPE svg
PUBLIC "-//W3C//DTD SVG 1.1//EN"
       "http://www.w3.org/Graphics/SVG/1.1/DTD/svg11.dtd">
<svg version="1.1" xmlns="http://www.w3.org/2000/svg" xmlns:xlink="http://www.w3.org/1999/xlink" width="83.1055" height="101.221">
 <g>
  <rect height="101.221" opacity="0" width="83.1055" x="0" y="0"/>
  <path d="M40.5762 101.221C41.3574 101.221 42.627 100.928 43.8477 100.244C71.6309 84.668 81.1523 78.0762 81.1523 60.2539L81.1523 22.9004C81.1523 17.7734 78.9551 16.1621 74.8047 14.4043C69.043 12.0117 50.4395 5.32227 44.6777 3.32031C43.3594 2.88086 41.9434 2.58789 40.5762 2.58789C39.209 2.58789 37.793 2.97852 36.5234 3.32031C30.7617 4.98047 12.1094 12.0605 6.34766 14.4043C2.24609 16.1133 0 17.7734 0 22.9004L0 60.2539C0 78.0762 9.57031 84.6191 37.3047 100.244C38.5742 100.928 39.7949 101.221 40.5762 101.221ZM40.5762 92.3828C39.7949 92.3828 39.0137 92.0898 37.5488 91.2109C14.9902 77.5391 7.76367 73.5352 7.76367 58.4473L7.76367 24.4141C7.76367 22.7539 8.05664 22.1191 9.42383 21.582C16.8457 18.6523 31.25 13.8184 38.623 10.8887C39.4043 10.5469 40.0391 10.4492 40.5762 10.4492C41.1133 10.4492 41.748 10.5957 42.5293 10.8887C49.9023 13.8184 64.209 18.9941 71.7773 21.582C73.0957 22.0703 73.3887 22.7539 73.3887 24.4141L73.3887 58.4473C73.3887 73.5352 66.1621 77.4902 43.6035 91.2109C42.1875 92.0898 41.3574 92.3828 40.5762 92.3828Z" fill="#000000" fill-opacity="0.85"/>
  <path d="M23.9258 70.2148C25.0488 70.2148 26.0254 69.7754 26.7578 68.9941L40.5762 55.127L54.4922 68.9941C55.2246 69.7266 56.1523 70.2148 57.2754 70.2148C59.4727 70.2148 61.1816 68.4082 61.1816 66.2598C61.1816 65.1367 60.791 64.2578 60.0098 63.4766L46.1426 49.6094L60.0586 35.6445C60.8887 34.8145 61.2305 33.9844 61.2305 32.9102C61.2305 30.7617 59.5215 29.0039 57.3242 29.0039C56.2988 29.0039 55.4688 29.3945 54.6387 30.2246L40.5762 44.1406L26.6602 30.2734C25.9277 29.4922 25.0488 29.1016 23.9258 29.1016C21.7773 29.1016 20.0195 30.8105 20.0195 32.959C20.0195 34.0332 20.459 34.9609 21.1914 35.6934L35.0586 49.6094L21.1914 63.5254C20.459 64.2578 20.0195 65.1855 20.0195 66.2598C20.0195 68.4082 21.7773 70.2148 23.9258 70.2148Z" fill="#000000" fill-opacity="0.85"/>
 </g>
</svg>
