<?xml version="1.0" encoding="UTF-8"?>
<!--Generator: Apple Native CoreSVG 232.5-->
<!DOCTYPE svg
PUBLIC "-//W3C//DTD SVG 1.1//EN"
       "http://www.w3.org/Graphics/SVG/1.1/DTD/svg11.dtd">
<svg version="1.1" xmlns="http://www.w3.org/2000/svg" xmlns:xlink="http://www.w3.org/1999/xlink" width="99.6094" height="99.6582">
 <g>
  <rect height="99.6582" opacity="0" width="99.6094" x="0" y="0"/>
  <path d="M99.6094 49.8047C99.6094 77.002 77.0508 99.6094 49.8047 99.6094C22.6074 99.6094 0 77.002 0 49.8047C0 22.5586 22.5586 0 49.7559 0C77.002 0 99.6094 22.5586 99.6094 49.8047ZM63.5254 30.5664L49.8047 44.1895L36.1816 30.6152C35.4004 29.8828 34.5215 29.4922 33.3984 29.4922C31.1523 29.4922 29.3945 31.2012 29.3945 33.4961C29.3945 34.5703 29.7852 35.5469 30.5664 36.3281L44.0918 49.8535L30.5664 63.4277C29.7852 64.1602 29.3945 65.1855 29.3945 66.2598C29.3945 68.5059 31.1523 70.3125 33.3984 70.3125C34.5215 70.3125 35.5469 69.9219 36.3281 69.1406L49.8047 55.5664L63.3301 69.1406C64.0625 69.9219 65.0879 70.3125 66.2109 70.3125C68.5059 70.3125 70.3125 68.5059 70.3125 66.2598C70.3125 65.1367 69.9219 64.1113 69.0918 63.3789L55.5664 49.8535L69.1406 36.2793C70.0195 35.4004 70.3613 34.5215 70.3613 33.3984C70.3613 31.1523 68.5547 29.3945 66.3086 29.3945C65.2344 29.3945 64.3555 29.7363 63.5254 30.5664Z" fill="#000000" fill-opacity="0.85"/>
 </g>
</svg>
