<?xml version="1.0" encoding="UTF-8"?>
<!--Generator: Apple Native CoreSVG 232.5-->
<!DOCTYPE svg
PUBLIC "-//W3C//DTD SVG 1.1//EN"
       "http://www.w3.org/Graphics/SVG/1.1/DTD/svg11.dtd">
<svg version="1.1" xmlns="http://www.w3.org/2000/svg" xmlns:xlink="http://www.w3.org/1999/xlink" width="115.137" height="89.8926">
 <g>
  <rect height="89.8926" opacity="0" width="115.137" x="0" y="0"/>
  <path d="M15.332 89.8926L99.8047 89.8926C110.059 89.8926 115.137 84.8633 115.137 74.8047L115.137 15.1367C115.137 5.07812 110.059 0 99.8047 0L15.332 0C5.12695 0 0 5.07812 0 15.1367L0 74.8047C0 84.8633 5.12695 89.8926 15.332 89.8926ZM15.4297 82.0312C10.5469 82.0312 7.86133 79.4434 7.86133 74.3652L7.86133 15.5762C7.86133 10.498 10.5469 7.86133 15.4297 7.86133L99.707 7.86133C104.541 7.86133 107.275 10.498 107.275 15.5762L107.275 74.3652C107.275 79.4434 104.541 82.0312 99.707 82.0312Z" fill="#000000" fill-opacity="0.85"/>
  <path d="M40.9668 65.5762C42.041 65.5762 43.0176 65.1367 43.75 64.3555L57.6172 50.4883L71.4844 64.3555C72.2168 65.0879 73.1934 65.5762 74.3164 65.5762C76.4648 65.5762 78.2227 63.8184 78.2227 61.6211C78.2227 60.498 77.7832 59.6191 77.0508 58.8379L63.1836 44.9707L77.0996 31.0059C77.8809 30.1758 78.2715 29.3457 78.2715 28.2715C78.2715 26.123 76.5137 24.3652 74.3652 24.3652C73.3398 24.3652 72.4609 24.7559 71.6309 25.5859L57.6172 39.502L43.6523 25.6348C42.9199 24.8535 42.041 24.4629 40.9668 24.4629C38.7695 24.4629 37.0605 26.1719 37.0605 28.3203C37.0605 29.3945 37.4512 30.3223 38.2324 31.0547L52.0996 44.9707L38.2324 58.8867C37.4512 59.6191 37.0605 60.5469 37.0605 61.6211C37.0605 63.8184 38.7695 65.5762 40.9668 65.5762Z" fill="#000000" fill-opacity="0.85"/>
 </g>
</svg>
