<?xml version="1.0" encoding="UTF-8"?>
<!--Generator: Apple Native CoreSVG 232.5-->
<!DOCTYPE svg
PUBLIC "-//W3C//DTD SVG 1.1//EN"
       "http://www.w3.org/Graphics/SVG/1.1/DTD/svg11.dtd">
<svg version="1.1" xmlns="http://www.w3.org/2000/svg" xmlns:xlink="http://www.w3.org/1999/xlink" width="100.342" height="96.6309">
 <g>
  <rect height="96.6309" opacity="0" width="100.342" x="0" y="0"/>
  <path d="M77.3438 5.51758L96.2891 26.416C99.4629 29.9316 100.342 32.2754 100.342 37.1582L100.342 59.4727C100.342 64.3066 99.4629 66.6992 96.2891 70.2148L77.3438 91.1133C74.1211 94.5801 71.1914 96.582 64.9902 96.582L35.3516 96.582C29.1504 96.582 26.1719 94.5801 22.998 91.1133L4.05273 70.2148C0.830078 66.6992 0 64.3066 0 59.4727L0 37.1582C0 32.2754 0.830078 29.9316 4.05273 26.416L22.998 5.51758C26.1719 2.05078 29.1504 0 35.3516 0L64.9902 0C71.1914 0 74.1211 2.05078 77.3438 5.51758ZM63.916 29.0527L50.1953 42.6758L36.5723 29.1016C35.791 28.3691 34.9121 27.9785 33.7891 27.9785C31.543 27.9785 29.7363 29.6875 29.7363 31.9824C29.7363 33.0566 30.1758 34.0332 30.957 34.8145L44.4824 48.3398L30.957 61.9141C30.1758 62.6465 29.7363 63.6719 29.7363 64.7461C29.7363 66.9922 31.543 68.7988 33.7891 68.7988C34.9121 68.7988 35.9375 68.4082 36.7188 67.627L50.1953 54.0527L63.7207 67.627C64.4531 68.4082 65.4785 68.7988 66.6016 68.7988C68.8965 68.7988 70.6543 66.9922 70.6543 64.7461C70.6543 63.623 70.3125 62.5977 69.4824 61.8652L55.957 48.3398L69.5312 34.7656C70.4102 33.8867 70.7031 33.0078 70.7031 31.8848C70.7031 29.6387 68.9453 27.8809 66.6992 27.8809C65.625 27.8809 64.7461 28.2227 63.916 29.0527Z" fill="#000000" fill-opacity="0.85"/>
 </g>
</svg>
