<?xml version="1.0" encoding="UTF-8"?>
<!--Generator: Apple Native CoreSVG 232.5-->
<!DOCTYPE svg
PUBLIC "-//W3C//DTD SVG 1.1//EN"
       "http://www.w3.org/Graphics/SVG/1.1/DTD/svg11.dtd">
<svg version="1.1" xmlns="http://www.w3.org/2000/svg" xmlns:xlink="http://www.w3.org/1999/xlink" width="100.342" height="96.6309">
 <g>
  <rect height="96.6309" opacity="0" width="100.342" x="0" y="0"/>
  <path d="M35.3516 96.582L64.9902 96.582C71.1914 96.582 74.1211 94.5801 77.3438 91.1133L96.2891 70.2148C99.4629 66.6992 100.342 64.3066 100.342 59.4727L100.342 37.1582C100.342 32.2754 99.4629 29.9316 96.2891 26.416L77.3438 5.51758C74.1211 2.05078 71.1914 0 64.9902 0L35.3516 0C29.1504 0 26.1719 2.05078 22.998 5.51758L4.05273 26.416C0.830078 29.9316 0 32.2754 0 37.1582L0 59.4727C0 64.3066 0.830078 66.6992 4.05273 70.2148L22.998 91.1133C26.1719 94.5801 29.1504 96.582 35.3516 96.582ZM37.9883 88.7695C33.1055 88.7695 31.6895 87.6953 29.0039 84.7656L11.377 65.4785C9.47266 63.3301 9.0332 62.1094 9.0332 58.5449L9.0332 38.0859C9.0332 34.5215 9.47266 33.3008 11.377 31.1523L29.0039 11.8652C31.6895 8.88672 33.1055 7.86133 37.9883 7.86133L62.3535 7.86133C67.2363 7.86133 68.6035 8.88672 71.3379 11.8652L88.916 31.1523C90.8691 33.3008 91.3086 34.5215 91.3086 38.0859L91.3086 58.5449C91.3086 62.1094 90.8691 63.3301 88.916 65.4785L71.3379 84.7656C68.6035 87.6953 67.2363 88.7695 62.3535 88.7695Z" fill="#000000" fill-opacity="0.85"/>
  <path d="M33.5449 68.9453C34.6191 68.9453 35.5957 68.5059 36.3281 67.7246L50.1953 53.8574L64.0625 67.7246C64.7949 68.457 65.7715 68.9453 66.8945 68.9453C69.043 68.9453 70.8008 67.1875 70.8008 64.9902C70.8008 63.8672 70.3613 62.9883 69.6289 62.207L55.7617 48.3398L69.6777 34.375C70.459 33.5449 70.8496 32.7148 70.8496 31.6406C70.8496 29.4922 69.0918 27.7344 66.9434 27.7344C65.918 27.7344 65.0391 28.125 64.209 28.9551L50.1953 42.8711L36.2305 29.0039C35.498 28.2227 34.6191 27.832 33.5449 27.832C31.3965 27.832 29.6387 29.541 29.6387 31.6895C29.6387 32.7637 30.0293 33.6914 30.8105 34.4238L44.6777 48.3398L30.8105 62.2559C30.0293 62.9883 29.6387 63.916 29.6387 64.9902C29.6387 67.1875 31.3965 68.9453 33.5449 68.9453Z" fill="#000000" fill-opacity="0.85"/>
 </g>
</svg>
