<?xml version="1.0" encoding="UTF-8"?>
<!--Generator: Apple Native CoreSVG 232.5-->
<!DOCTYPE svg
PUBLIC "-//W3C//DTD SVG 1.1//EN"
       "http://www.w3.org/Graphics/SVG/1.1/DTD/svg11.dtd">
<svg version="1.1" xmlns="http://www.w3.org/2000/svg" xmlns:xlink="http://www.w3.org/1999/xlink" width="77.4293" height="77.4782">
 <g>
  <rect height="77.4782" opacity="0" width="77.4293" x="0" y="0"/>
  <path d="M1.26349 76.2147C2.97248 77.8748 5.80451 77.8748 7.46467 76.2147L38.7147 44.9647L69.9647 76.2147C71.6248 77.8748 74.5057 77.9237 76.1658 76.2147C77.826 74.5057 77.826 71.7225 76.1658 70.0623L44.9158 38.7635L76.1658 7.51349C77.826 5.85334 77.8748 3.02131 76.1658 1.36115C74.4569-0.347834 71.6248-0.347834 69.9647 1.36115L38.7147 32.6112L7.46467 1.36115C5.80451-0.347834 2.92365-0.396662 1.26349 1.36115C-0.396662 3.07013-0.396662 5.85334 1.26349 7.51349L32.5135 38.7635L1.26349 70.0623C-0.396662 71.7225-0.44549 74.5545 1.26349 76.2147Z" fill="#000000" fill-opacity="0.85"/>
 </g>
</svg>
