<?xml version="1.0" encoding="UTF-8"?>
<!--Generator: Apple Native CoreSVG 232.5-->
<!DOCTYPE svg
PUBLIC "-//W3C//DTD SVG 1.1//EN"
       "http://www.w3.org/Graphics/SVG/1.1/DTD/svg11.dtd">
<svg version="1.1" xmlns="http://www.w3.org/2000/svg" xmlns:xlink="http://www.w3.org/1999/xlink" width="115.137" height="69.5801">
 <g>
  <rect height="69.5801" opacity="0" width="115.137" x="0" y="0"/>
  <path d="M15.332 69.5801L99.8047 69.5801C110.01 69.5801 115.137 64.5508 115.137 54.4434L115.137 38.8672C115.137 32.1777 113.574 27.8809 109.521 23.7793L93.3105 7.03125C88.5742 2.19727 84.5703 0.0488281 78.0762 0.0488281L37.0605 0.0488281C30.6152 0.0488281 26.5625 2.19727 21.875 7.03125L5.61523 23.7793C1.61133 27.8809 0 32.1777 0 38.8672L0 54.4434C0 64.5508 5.12695 69.5801 15.332 69.5801ZM15.4297 61.7188C10.5469 61.7188 7.86133 59.1309 7.86133 54.0527L7.86133 44.5312C7.86133 41.5039 9.22852 40.0879 12.207 40.0879L102.93 40.0879C105.908 40.0879 107.275 41.5039 107.275 44.5312L107.275 54.0527C107.275 59.1309 104.59 61.7188 99.707 61.7188ZM11.5234 32.959C9.81445 32.959 9.32617 31.3965 10.3516 30.3711L28.2715 11.377C31.2988 8.20312 33.4473 7.17773 37.4512 7.17773L77.6855 7.17773C81.6895 7.17773 83.8379 8.20312 86.8652 11.377L104.834 30.3711C105.811 31.3965 105.371 32.959 103.613 32.959ZM18.7988 55.5176C21.3867 55.5176 23.584 53.3691 23.584 50.7324C23.584 48.1445 21.3867 45.9961 18.7988 45.9961C16.1621 45.9961 14.0137 48.1445 14.0137 50.7324C14.0137 53.3691 16.1621 55.5176 18.7988 55.5176ZM32.1289 56.9824C33.6426 56.9824 34.9609 55.8105 34.9609 54.3457L34.9609 47.5098C34.9609 45.9961 33.6426 44.8242 32.1289 44.8242C30.6641 44.8242 29.4922 45.9961 29.4922 47.5098L29.4922 54.3457C29.4922 55.8105 30.6641 56.9824 32.1289 56.9824ZM41.5039 56.9824C43.0176 56.9824 44.3359 55.8105 44.3359 54.3457L44.3359 47.5098C44.3359 45.9961 43.0176 44.8242 41.5039 44.8242C40.0391 44.8242 38.8672 45.9961 38.8672 47.5098L38.8672 54.3457C38.8672 55.8105 40.0391 56.9824 41.5039 56.9824ZM51.8555 53.7109C53.4668 53.7109 54.7852 52.3926 54.7852 50.7324C54.7852 49.1211 53.4668 47.8027 51.8555 47.8027C50.2441 47.8027 48.9258 49.1211 48.9258 50.7324C48.9258 52.3926 50.2441 53.7109 51.8555 53.7109ZM62.2559 56.9824C63.7207 56.9824 64.8926 55.8105 64.8926 54.3457L64.8926 47.5098C64.8926 45.9961 63.7207 44.8242 62.2559 44.8242C60.7422 44.8242 59.4238 45.9961 59.4238 47.5098L59.4238 54.3457C59.4238 55.8105 60.7422 56.9824 62.2559 56.9824ZM71.6309 56.9824C73.1445 56.9824 74.2676 55.8105 74.2676 54.3457L74.2676 47.5098C74.2676 45.9961 73.1445 44.8242 71.6309 44.8242C70.1172 44.8242 68.8477 45.9961 68.8477 47.5098L68.8477 54.3457C68.8477 55.8105 70.1172 56.9824 71.6309 56.9824ZM83.0566 53.6621L98.8281 53.6621C100.342 53.6621 101.514 52.3438 101.514 50.8301C101.514 49.3652 100.342 48.1934 98.8281 48.1934L83.0566 48.1934C81.5918 48.1934 80.4199 49.3652 80.4199 50.8301C80.4199 52.3438 81.5918 53.6621 83.0566 53.6621Z" fill="#000000" fill-opacity="0.85"/>
 </g>
</svg>
