<?xml version="1.0" encoding="UTF-8"?>
<!--Generator: Apple Native CoreSVG 232.5-->
<!DOCTYPE svg
PUBLIC "-//W3C//DTD SVG 1.1//EN"
       "http://www.w3.org/Graphics/SVG/1.1/DTD/svg11.dtd">
<svg version="1.1" xmlns="http://www.w3.org/2000/svg" xmlns:xlink="http://www.w3.org/1999/xlink" width="115.137" height="83.4473">
 <g>
  <rect height="83.4473" opacity="0" width="115.137" x="0" y="0"/>
  <path d="M15.332 83.4473L99.8047 83.4473C110.01 83.4473 115.137 78.418 115.137 68.3105L115.137 38.8672C115.137 32.1777 113.574 27.8809 109.521 23.8281L93.3105 7.08008C88.5742 2.19727 84.5703 0.0976562 78.0762 0.0976562L37.0605 0.0976562C30.6152 0.0976562 26.5625 2.19727 21.875 7.08008L5.61523 23.8281C1.61133 27.8809 0 32.1777 0 38.8672L0 68.3105C0 78.418 5.12695 83.4473 15.332 83.4473ZM15.4297 75.5859C10.5469 75.5859 7.86133 72.998 7.86133 67.9199L7.86133 44.5801C7.86133 41.5039 9.22852 40.0879 12.207 40.0879L102.93 40.0879C105.908 40.0879 107.275 41.5039 107.275 44.5801L107.275 67.9199C107.275 72.998 104.59 75.5859 99.707 75.5859ZM11.5234 33.0078C9.81445 33.0078 9.32617 31.4453 10.3516 30.3711L28.2715 11.4258C31.2988 8.20312 33.4473 7.17773 37.4512 7.17773L77.6855 7.17773C81.6895 7.17773 83.8867 8.20312 86.8652 11.4258L104.834 30.3711C105.811 31.4453 105.371 33.0078 103.613 33.0078ZM19.8242 70.8496C21.2891 70.8496 22.6074 69.7266 22.6074 68.2129L22.6074 47.5586C22.6074 46.0938 21.2891 44.873 19.8242 44.873C18.3105 44.873 17.1387 46.0938 17.1387 47.5586L17.1387 68.2129C17.1387 69.7266 18.3105 70.8496 19.8242 70.8496ZM31.2988 70.8496C32.8125 70.8496 34.082 69.7266 34.082 68.2129L34.082 47.5586C34.082 46.0938 32.8125 44.873 31.2988 44.873C29.7852 44.873 28.6621 46.0938 28.6621 47.5586L28.6621 68.2129C28.6621 69.7266 29.7852 70.8496 31.2988 70.8496ZM42.7734 70.8496C44.2871 70.8496 45.5566 69.7266 45.5566 68.2129L45.5566 47.5586C45.5566 46.0938 44.2871 44.873 42.7734 44.873C41.2598 44.873 40.1367 46.0938 40.1367 47.5586L40.1367 68.2129C40.1367 69.7266 41.2598 70.8496 42.7734 70.8496ZM57.6172 51.9531C59.5703 51.9531 61.1816 50.3418 61.1816 48.3398C61.1816 46.4355 59.5703 44.8242 57.6172 44.8242C55.6641 44.8242 54.0527 46.4355 54.0527 48.3398C54.0527 50.3418 55.6641 51.9531 57.6172 51.9531ZM57.6172 61.377C59.5703 61.377 61.1816 59.7656 61.1816 57.8125C61.1816 55.8594 59.5703 54.248 57.6172 54.248C55.6641 54.248 54.0527 55.8594 54.0527 57.8125C54.0527 59.7656 55.6641 61.377 57.6172 61.377ZM57.6172 70.8008C59.5703 70.8008 61.1816 69.1895 61.1816 67.2363C61.1816 65.2832 59.5703 63.7207 57.6172 63.7207C55.6641 63.7207 54.0527 65.2832 54.0527 67.2363C54.0527 69.1895 55.6641 70.8008 57.6172 70.8008ZM71.875 70.8496C73.3887 70.8496 74.6582 69.7266 74.6582 68.2129L74.6582 47.5586C74.6582 46.0938 73.3887 44.873 71.875 44.873C70.3613 44.873 69.2383 46.0938 69.2383 47.5586L69.2383 68.2129C69.2383 69.7266 70.3613 70.8496 71.875 70.8496ZM83.3496 70.8496C84.8633 70.8496 86.1816 69.7266 86.1816 68.2129L86.1816 47.5586C86.1816 46.0938 84.8633 44.873 83.3496 44.873C81.8848 44.873 80.7129 46.0938 80.7129 47.5586L80.7129 68.2129C80.7129 69.7266 81.8848 70.8496 83.3496 70.8496ZM94.873 70.8496C96.3379 70.8496 97.6562 69.7266 97.6562 68.2129L97.6562 47.5586C97.6562 46.0938 96.3379 44.873 94.873 44.873C93.3594 44.873 92.1875 46.0938 92.1875 47.5586L92.1875 68.2129C92.1875 69.7266 93.3594 70.8496 94.873 70.8496Z" fill="#000000" fill-opacity="0.85"/>
 </g>
</svg>
