<?xml version="1.0" encoding="UTF-8"?>
<!--Generator: Apple Native CoreSVG 232.5-->
<!DOCTYPE svg
PUBLIC "-//W3C//DTD SVG 1.1//EN"
       "http://www.w3.org/Graphics/SVG/1.1/DTD/svg11.dtd">
<svg version="1.1" xmlns="http://www.w3.org/2000/svg" xmlns:xlink="http://www.w3.org/1999/xlink" width="99.6094" height="99.6582">
 <g>
  <rect height="99.6582" opacity="0" width="99.6094" x="0" y="0"/>
  <path d="M49.8047 99.6094C77.0508 99.6094 99.6094 77.002 99.6094 49.8047C99.6094 22.5586 77.002 0 49.7559 0C22.5586 0 0 22.5586 0 49.8047C0 77.002 22.6074 99.6094 49.8047 99.6094ZM49.8047 91.3086C26.7578 91.3086 8.34961 72.8516 8.34961 49.8047C8.34961 26.7578 26.709 8.30078 49.7559 8.30078C72.8027 8.30078 91.3086 26.7578 91.3086 49.8047C91.3086 72.8516 72.8516 91.3086 49.8047 91.3086Z" fill="#000000" fill-opacity="0.85"/>
  <path d="M49.7559 72.168C52.2949 72.168 53.7109 70.5078 53.7109 67.7734L53.7109 55.0293L67.4316 32.1777C67.8711 31.4941 68.0664 30.7129 68.0664 30.0293C68.0664 28.0273 66.6016 26.5137 64.5508 26.5137C62.8418 26.5137 61.9629 27.1484 60.9375 28.9551L49.9512 47.7051L49.6582 47.7051L38.7207 28.9551C37.6953 27.0996 36.7676 26.5137 35.0098 26.5137C33.0078 26.5137 31.4453 28.0762 31.4453 29.9316C31.4453 30.6641 31.6406 31.3965 32.0801 32.1777L45.8984 55.127L45.8984 67.7734C45.8984 70.4102 47.2656 72.168 49.7559 72.168Z" fill="#000000" fill-opacity="0.85"/>
 </g>
</svg>
