<?xml version="1.0" encoding="UTF-8"?>
<!--Generator: Apple Native CoreSVG 232.5-->
<!DOCTYPE svg
PUBLIC "-//W3C//DTD SVG 1.1//EN"
       "http://www.w3.org/Graphics/SVG/1.1/DTD/svg11.dtd">
<svg version="1.1" xmlns="http://www.w3.org/2000/svg" xmlns:xlink="http://www.w3.org/1999/xlink" width="89.8926" height="89.9902">
 <g>
  <rect height="89.9902" opacity="0" width="89.8926" x="0" y="0"/>
  <path d="M89.8926 15.2344L89.8926 74.8535C89.8926 84.9121 84.8145 89.9902 74.5605 89.9902L15.332 89.9902C5.12695 89.9902 0 84.9609 0 74.8535L0 15.2344C0 5.12695 5.12695 0.0976562 15.332 0.0976562L74.5605 0.0976562C84.8145 0.0976562 89.8926 5.17578 89.8926 15.2344ZM56.4941 23.4863L45.2148 42.8223L44.873 42.8223L33.6426 23.4863C32.5684 21.582 31.5918 20.9473 29.7852 20.9473C27.6855 20.9473 26.0742 22.5586 26.0742 24.5117C26.0742 25.2441 26.2695 26.0254 26.7578 26.8555L40.9668 50.4883L40.9668 63.4766C40.9668 66.2109 42.3828 68.0664 44.9707 68.0664C47.6074 68.0664 49.0723 66.3574 49.0723 63.4766L49.0723 50.3906L63.1836 26.8555C63.6719 26.123 63.8672 25.293 63.8672 24.6094C63.8672 22.5098 62.3535 20.9473 60.2051 20.9473C58.4961 20.9473 57.5195 21.6309 56.4941 23.4863Z" fill="#000000" fill-opacity="0.85"/>
 </g>
</svg>
