<?xml version="1.0" encoding="UTF-8"?>
<!--Generator: Apple Native CoreSVG 232.5-->
<!DOCTYPE svg
PUBLIC "-//W3C//DTD SVG 1.1//EN"
       "http://www.w3.org/Graphics/SVG/1.1/DTD/svg11.dtd">
<svg version="1.1" xmlns="http://www.w3.org/2000/svg" xmlns:xlink="http://www.w3.org/1999/xlink" width="89.8926" height="89.9902">
 <g>
  <rect height="89.9902" opacity="0" width="89.8926" x="0" y="0"/>
  <path d="M89.8926 15.2344L89.8926 74.8535C89.8926 84.9121 84.8145 89.9902 74.5605 89.9902L15.332 89.9902C5.12695 89.9902 0 84.9609 0 74.8535L0 15.2344C0 5.12695 5.12695 0.0976562 15.332 0.0976562L74.5605 0.0976562C84.8145 0.0976562 89.8926 5.17578 89.8926 15.2344ZM26.6113 23.2422C26.6113 24.0234 26.8066 24.6094 27.2461 25.3418L39.502 45.0684L32.6172 45.0684C31.1523 45.0684 30.1758 46.1426 30.1758 47.5586C30.1758 49.0234 31.2012 50.0977 32.6172 50.0977L41.8457 50.0977L41.8457 53.9551L32.6172 53.9551C31.1523 53.9551 30.1758 55.0293 30.1758 56.4453C30.1758 57.8613 31.2012 58.9355 32.6172 58.9355L41.8457 58.9355L41.8457 66.1621C41.8457 68.2129 43.1641 69.5801 45.0195 69.5801C46.875 69.5801 48.1934 68.2617 48.1934 66.2109L48.1934 58.9355L57.5684 58.9355C59.0332 58.9355 60.0098 57.8613 60.0098 56.4453C60.0098 55.0293 59.0332 53.9551 57.5684 53.9551L48.1934 53.9551L48.1934 50.0977L57.5684 50.0977C59.0332 50.0977 60.0098 49.0234 60.0098 47.5586C60.0098 46.1426 59.0332 45.0684 57.5684 45.0684L50.5371 45.0684L62.7441 25.3906C63.2324 24.6582 63.4277 24.0723 63.4277 23.291C63.4277 21.6309 62.0117 20.3125 60.2051 20.3125C58.9844 20.3125 58.0566 20.8496 57.3242 21.9727L45.0195 42.6758L32.7148 21.9238C31.9824 20.752 31.0547 20.2637 29.834 20.2637C28.0273 20.2637 26.6113 21.582 26.6113 23.2422Z" fill="#000000" fill-opacity="0.85"/>
 </g>
</svg>
