<?xml version="1.0" encoding="UTF-8"?>
<!--Generator: Apple Native CoreSVG 232.5-->
<!DOCTYPE svg
PUBLIC "-//W3C//DTD SVG 1.1//EN"
       "http://www.w3.org/Graphics/SVG/1.1/DTD/svg11.dtd">
<svg version="1.1" xmlns="http://www.w3.org/2000/svg" xmlns:xlink="http://www.w3.org/1999/xlink" width="99.6094" height="99.6582">
 <g>
  <rect height="99.6582" opacity="0" width="99.6094" x="0" y="0"/>
  <path d="M49.8047 99.6094C77.0508 99.6094 99.6094 77.002 99.6094 49.8047C99.6094 22.5586 77.002 0 49.7559 0C22.5586 0 0 22.5586 0 49.8047C0 77.002 22.6074 99.6094 49.8047 99.6094ZM49.8047 91.3086C26.7578 91.3086 8.34961 72.8516 8.34961 49.8047C8.34961 26.7578 26.709 8.30078 49.7559 8.30078C72.8027 8.30078 91.3086 26.7578 91.3086 49.8047C91.3086 72.8516 72.8516 91.3086 49.8047 91.3086Z" fill="#000000" fill-opacity="0.85"/>
  <path d="M49.7559 74.5117C51.6113 74.5117 52.8809 73.2422 52.8809 71.2891L52.8809 64.209L61.9141 64.209C63.3301 64.209 64.3066 63.1348 64.3066 61.7676C64.3066 60.4004 63.3301 59.375 61.9141 59.375L52.8809 59.375L52.8809 55.6152L61.9141 55.6152C63.3301 55.6152 64.3066 54.5898 64.3066 53.2227C64.3066 51.8066 63.3301 50.7812 61.9141 50.7812L55.127 50.7812L66.9922 31.6895C67.4316 31.0059 67.5781 30.4199 67.5781 29.6875C67.5781 28.0762 66.2598 26.8066 64.502 26.8066C63.3301 26.8066 62.4023 27.2949 61.7676 28.418L49.8047 48.4863L37.8418 28.3691C37.1582 27.2461 36.2793 26.7578 35.0586 26.7578C33.3008 26.7578 31.9824 28.0273 31.9824 29.6387C31.9824 30.3711 32.1777 30.957 32.5684 31.6406L44.4824 50.7812L37.793 50.7812C36.377 50.7812 35.4492 51.8066 35.4492 53.2227C35.4492 54.5898 36.4258 55.6152 37.793 55.6152L46.7285 55.6152L46.7285 59.375L37.793 59.375C36.377 59.375 35.4492 60.4004 35.4492 61.7676C35.4492 63.1348 36.4258 64.209 37.793 64.209L46.7285 64.209L46.7285 71.2402C46.7285 73.1934 47.9492 74.5117 49.7559 74.5117Z" fill="#000000" fill-opacity="0.85"/>
 </g>
</svg>
