<?xml version="1.0" encoding="UTF-8"?>
<!--Generator: Apple Native CoreSVG 232.5-->
<!DOCTYPE svg
PUBLIC "-//W3C//DTD SVG 1.1//EN"
       "http://www.w3.org/Graphics/SVG/1.1/DTD/svg11.dtd">
<svg version="1.1" xmlns="http://www.w3.org/2000/svg" xmlns:xlink="http://www.w3.org/1999/xlink" width="102.344" height="93.3105">
 <g>
  <rect height="93.3105" opacity="0" width="102.344" x="0" y="0"/>
  <path d="M13.3301 0C5.0293 0 0 5.81055 0 13.2812C0 15.5273 0.585938 17.8711 1.9043 20.1172L39.7949 86.1328C42.2852 90.5273 46.6797 92.7734 51.1719 92.7734C55.6641 92.7734 60.0098 90.5273 62.5488 86.1328L100.439 20.1172C101.66 17.9199 102.344 15.5273 102.344 13.2812C102.344 5.81055 97.3145 0 89.0137 0ZM13.3789 7.71484L88.916 7.71484C92.2852 7.71484 94.4336 10.3516 94.4336 13.2812C94.4336 14.2578 94.1895 15.332 93.6523 16.3574L55.8105 82.4219C54.7852 84.2285 52.9785 85.0098 51.1719 85.0098C49.3652 85.0098 47.5098 84.2285 46.4844 82.4219L8.64258 16.4062C8.10547 15.3809 7.91016 14.2578 7.91016 13.2812C7.91016 10.3516 9.96094 7.71484 13.3789 7.71484Z" fill="#000000" fill-opacity="0.85"/>
  <path d="M20.3613 14.8926C18.3594 14.8926 17.1875 16.748 18.2617 18.6035L49.0234 72.3633C50.0488 74.1699 52.2461 74.1699 53.2715 72.3633L84.0332 18.6035C85.0586 16.7969 83.9355 14.8926 81.9336 14.8926Z" fill="#000000" fill-opacity="0.85"/>
 </g>
</svg>
