<?xml version="1.0" encoding="UTF-8"?>
<!--Generator: Apple Native CoreSVG 232.5-->
<!DOCTYPE svg
PUBLIC "-//W3C//DTD SVG 1.1//EN"
       "http://www.w3.org/Graphics/SVG/1.1/DTD/svg11.dtd">
<svg version="1.1" xmlns="http://www.w3.org/2000/svg" xmlns:xlink="http://www.w3.org/1999/xlink" width="99.6094" height="99.6582">
 <g>
  <rect height="99.6582" opacity="0" width="99.6094" x="0" y="0"/>
  <path d="M49.8047 99.6094C77.0508 99.6094 99.6094 77.002 99.6094 49.8047C99.6094 22.5586 77.002 0 49.7559 0C22.5586 0 0 22.5586 0 49.8047C0 77.002 22.6074 99.6094 49.8047 99.6094ZM49.8047 91.3086C26.7578 91.3086 8.34961 72.8516 8.34961 49.8047C8.34961 26.7578 26.709 8.30078 49.7559 8.30078C72.8027 8.30078 91.3086 26.7578 91.3086 49.8047C91.3086 72.8516 72.8516 91.3086 49.8047 91.3086Z" fill="#000000" fill-opacity="0.85"/>
  <path d="M35.6934 71.582L64.3066 71.582C66.1621 71.582 67.5781 70.3613 67.5781 68.4082C67.5781 66.4062 66.1621 65.1855 64.3066 65.1855L42.3828 65.1855L42.3828 64.7949L64.7949 33.6914C65.7715 32.373 65.9668 31.6895 65.9668 30.5664C65.9668 28.5156 64.502 27.0996 62.3535 27.0996L35.2539 27.0996C33.3984 27.0996 32.0312 28.3203 32.0312 30.2734C32.0312 32.2754 33.3984 33.4961 35.2539 33.4961L55.957 33.4961L55.957 33.8867L33.4961 64.9902C32.4219 66.5039 32.1777 67.1875 32.1777 68.2617C32.1777 70.2148 33.5938 71.582 35.6934 71.582Z" fill="#000000" fill-opacity="0.85"/>
 </g>
</svg>
