<?xml version="1.0" encoding="UTF-8"?>
<!--Generator: Apple Native CoreSVG 232.5-->
<!DOCTYPE svg
PUBLIC "-//W3C//DTD SVG 1.1//EN"
       "http://www.w3.org/Graphics/SVG/1.1/DTD/svg11.dtd">
<svg version="1.1" xmlns="http://www.w3.org/2000/svg" xmlns:xlink="http://www.w3.org/1999/xlink" width="89.8926" height="89.9902">
 <g>
  <rect height="89.9902" opacity="0" width="89.8926" x="0" y="0"/>
  <path d="M15.332 89.9902L74.5605 89.9902C84.8145 89.9902 89.8926 84.9121 89.8926 74.8535L89.8926 15.2344C89.8926 5.17578 84.8145 0.0976562 74.5605 0.0976562L15.332 0.0976562C5.12695 0.0976562 0 5.12695 0 15.2344L0 74.8535C0 84.9609 5.12695 89.9902 15.332 89.9902ZM15.4297 82.1289C10.5469 82.1289 7.86133 79.541 7.86133 74.4629L7.86133 15.625C7.86133 10.5469 10.5469 7.95898 15.4297 7.95898L74.4629 7.95898C79.2969 7.95898 82.0312 10.5469 82.0312 15.625L82.0312 74.4629C82.0312 79.541 79.2969 82.1289 74.4629 82.1289Z" fill="#000000" fill-opacity="0.85"/>
  <path d="M30.9082 66.748L59.5215 66.748C61.4258 66.748 62.793 65.5273 62.793 63.5742C62.793 61.5723 61.4258 60.3516 59.5215 60.3516L37.5977 60.3516L37.5977 59.9609L60.0098 28.8574C60.9863 27.5391 61.1816 26.8555 61.1816 25.7324C61.1816 23.6816 59.7168 22.2656 57.6172 22.2656L30.5176 22.2656C28.6133 22.2656 27.2461 23.4863 27.2461 25.4395C27.2461 27.4414 28.6133 28.6621 30.5176 28.6621L51.1719 28.6621L51.1719 29.0527L28.7109 60.1562C27.6855 61.6699 27.3926 62.3535 27.3926 63.4277C27.3926 65.3809 28.8574 66.748 30.9082 66.748Z" fill="#000000" fill-opacity="0.85"/>
 </g>
</svg>
