<?xml version="1.0" encoding="UTF-8"?>
<!--Generator: Apple Native CoreSVG 232.5-->
<!DOCTYPE svg
PUBLIC "-//W3C//DTD SVG 1.1//EN"
       "http://www.w3.org/Graphics/SVG/1.1/DTD/svg11.dtd">
<svg version="1.1" xmlns="http://www.w3.org/2000/svg" xmlns:xlink="http://www.w3.org/1999/xlink" width="112.646" height="85.2051">
 <g>
  <rect height="85.2051" opacity="0" width="112.646" x="0" y="0"/>
  <path d="M40.9668 0C12.6465 0 0 13.0371 0 39.6973L0 70.3125C0 80.1758 5.07812 85.1562 14.9902 85.1562L97.6562 85.1562C107.568 85.1562 112.646 80.127 112.646 70.3125L112.646 39.6973C112.646 13.0371 100 0 71.6797 0ZM40.9668 7.86133L71.6309 7.86133C94.7266 7.86133 104.785 17.8711 104.785 39.1602L104.785 69.9219C104.785 74.8047 102.148 77.2949 97.4609 77.2949L15.1855 77.2949C10.4004 77.2949 7.86133 74.8047 7.86133 69.9219L7.86133 39.1602C7.86133 17.8711 17.9199 7.86133 40.9668 7.86133Z" fill="#000000" fill-opacity="0.85"/>
  <path d="M32.1289 62.5488L49.6582 62.5488C51.2695 62.5488 52.5879 61.1816 52.5879 59.5703C52.5879 57.959 51.2695 56.5918 49.6582 56.5918L36.5234 56.5918L36.5234 56.2988L51.123 29.2969C51.6113 28.3691 51.9531 27.5879 51.9531 26.416C51.9531 24.3652 50.5371 22.9492 48.3887 22.9492L31.543 22.9492C29.9316 22.9492 28.5645 24.3164 28.5645 25.9277C28.5645 27.5391 29.9316 28.9062 31.543 28.9062L44.0918 28.9062L44.0918 29.1992L29.3457 56.25C28.7598 57.2754 28.5645 58.0566 28.5645 59.1797C28.5645 61.3281 30.0781 62.5488 32.1289 62.5488ZM62.5488 63.0371C64.6973 63.0371 66.0645 61.5723 66.0645 59.2773L66.0645 47.2656L70.7031 47.2656L75.7812 60.0586C76.5137 61.9141 77.5879 63.0371 79.541 63.0371C81.1035 63.0371 82.8613 62.0605 82.8613 59.5703C82.8613 58.9844 82.5684 58.0078 82.0801 56.8848L77.4414 45.8008C81.3965 43.75 83.0566 39.5508 83.0566 35.1074C83.0566 27.1484 78.3691 22.9004 70.752 22.9004L62.4512 22.9004C60.1562 22.9004 58.8867 24.3164 58.8867 26.6113L58.8867 59.2773C58.8867 61.5234 60.2051 63.0371 62.5488 63.0371ZM66.0645 42.041L66.0645 28.5645L70.0684 28.5645C73.8281 28.5645 75.8789 31.3477 75.8789 35.2539C75.8789 39.1602 74.0723 42.041 70.1172 42.041Z" fill="#000000" fill-opacity="0.85"/>
 </g>
</svg>
