<?xml version="1.0" encoding="UTF-8"?>
<!--Generator: Apple Native CoreSVG 232.5-->
<!DOCTYPE svg
PUBLIC "-//W3C//DTD SVG 1.1//EN"
       "http://www.w3.org/Graphics/SVG/1.1/DTD/svg11.dtd">
<svg version="1.1" xmlns="http://www.w3.org/2000/svg" xmlns:xlink="http://www.w3.org/1999/xlink" width="112.646" height="85.2051">
 <g>
  <rect height="85.2051" opacity="0" width="112.646" x="0" y="0"/>
  <path d="M112.646 39.6973L112.646 70.3125C112.646 80.127 107.568 85.1562 97.6562 85.1562L14.9902 85.1562C5.07812 85.1562 0 80.1758 0 70.3125L0 39.6973C0 13.0371 12.6465 0 40.9668 0L71.6797 0C100 0 112.646 13.0371 112.646 39.6973ZM62.4512 23.0957C60.2051 23.0957 58.8867 24.4629 58.8867 26.7578L58.8867 59.1309C58.8867 61.377 60.2051 62.8418 62.5 62.8418C64.6973 62.8418 66.0645 61.4258 66.0645 59.1309L66.0645 47.2656L70.6543 47.2656L75.6348 59.9609C76.3672 61.7676 77.4414 62.8418 79.3457 62.8418C80.957 62.8418 82.7148 61.8652 82.7148 59.375C82.7148 58.8867 82.4219 57.8613 81.9336 56.7383L77.3438 45.8008C81.25 43.7988 82.9102 39.5508 82.9102 35.1562C82.9102 27.2949 78.2227 23.0957 70.7031 23.0957ZM31.7871 23.1445C30.1758 23.1445 28.8086 24.4629 28.8086 26.0742C28.8086 27.7344 30.1758 29.1016 31.7871 29.1016L44.2383 29.1016L44.2383 29.3457L29.5898 56.1523C29.0039 57.1289 28.8086 57.9102 28.8086 59.0332C28.8086 61.1816 30.2734 62.4023 32.373 62.4023L49.7559 62.4023C51.3184 62.4023 52.6855 61.0352 52.6855 59.375C52.6855 57.8125 51.3184 56.4453 49.7559 56.4453L36.7676 56.4453L36.7676 56.1523L51.2207 29.4434C51.6602 28.5156 52.002 27.7832 52.002 26.6113C52.002 24.5117 50.5859 23.1445 48.4863 23.1445ZM75.7324 35.3027C75.7324 39.209 73.9746 42.041 70.0195 42.041L66.0645 42.041L66.0645 28.7109L70.0195 28.7109C73.7305 28.7109 75.7324 31.4453 75.7324 35.3027Z" fill="#000000" fill-opacity="0.85"/>
 </g>
</svg>
