<?xml version="1.0" encoding="UTF-8"?>
<!--Generator: Apple Native CoreSVG 232.5-->
<!DOCTYPE svg
PUBLIC "-//W3C//DTD SVG 1.1//EN"
       "http://www.w3.org/Graphics/SVG/1.1/DTD/svg11.dtd">
<svg version="1.1" xmlns="http://www.w3.org/2000/svg" xmlns:xlink="http://www.w3.org/1999/xlink" width="97.9595" height="97.9932">
 <g>
  <rect height="97.9932" opacity="0" width="97.9595" x="0" y="0"/>
  <path d="M48.9722 97.9443C75.8247 97.9443 97.9595 75.7759 97.9595 48.9722C97.9595 22.1348 75.791 0 48.9385 0C22.1348 0 0 22.1348 0 48.9722C0 75.7759 22.1685 97.9443 48.9722 97.9443ZM48.9722 91.6113C25.3501 91.6113 6.36671 72.5942 6.36671 48.9722C6.36671 25.3501 25.3164 6.31789 48.9385 6.31789C72.5605 6.31789 91.6265 25.3501 91.6265 48.9722C91.6265 72.5942 72.5942 91.6113 48.9722 91.6113Z" fill="#000000" fill-opacity="0.85"/>
  <path d="M48.9385 71.8359C58.8057 71.8359 65.4668 62.6309 65.4668 48.9722C65.4668 35.3135 58.8057 26.1084 48.9385 26.1084C39.1201 26.1084 32.459 35.3135 32.459 48.9722C32.459 62.6309 39.1201 71.8359 48.9385 71.8359ZM48.9385 66.8574C42.5796 66.8574 38.2798 59.6616 38.2798 48.9722C38.2798 38.2676 42.5796 31.0869 48.9385 31.0869C55.3125 31.0869 59.6123 38.2676 59.6123 48.9722C59.6123 59.6616 55.3125 66.8574 48.9385 66.8574Z" fill="#000000" fill-opacity="0.85"/>
 </g>
</svg>
