<?xml version="1.0" encoding="UTF-8"?>
<!--Generator: Apple Native CoreSVG 232.5-->
<!DOCTYPE svg
PUBLIC "-//W3C//DTD SVG 1.1//EN"
       "http://www.w3.org/Graphics/SVG/1.1/DTD/svg11.dtd">
<svg version="1.1" xmlns="http://www.w3.org/2000/svg" xmlns:xlink="http://www.w3.org/1999/xlink" width="97.9595" height="97.9932">
 <g>
  <rect height="97.9932" opacity="0" width="97.9595" x="0" y="0"/>
  <path d="M97.9595 48.9722C97.9595 75.7759 75.8247 97.9443 48.9722 97.9443C22.1685 97.9443 0 75.7759 0 48.9722C0 22.1348 22.1348 0 48.9385 0C75.791 0 97.9595 22.1348 97.9595 48.9722ZM32.1372 48.9722C32.1372 62.919 38.918 72.311 48.9722 72.311C59.0601 72.311 65.856 62.919 65.856 48.9722C65.856 35.0254 59.0601 25.6182 48.9722 25.6182C38.918 25.6182 32.1372 35.0254 32.1372 48.9722ZM59.833 48.9722C59.833 59.8638 55.4473 67.1792 48.9722 67.1792C42.5122 67.1792 38.1265 59.8638 38.1265 48.9722C38.1265 38.0806 42.5122 30.7651 48.9722 30.7651C55.4473 30.7651 59.833 38.0806 59.833 48.9722Z" fill="#000000" fill-opacity="0.85"/>
 </g>
</svg>
