<?xml version="1.0" encoding="UTF-8"?>
<!--Generator: Apple Native CoreSVG 232.5-->
<!DOCTYPE svg
PUBLIC "-//W3C//DTD SVG 1.1//EN"
       "http://www.w3.org/Graphics/SVG/1.1/DTD/svg11.dtd">
<svg version="1.1" xmlns="http://www.w3.org/2000/svg" xmlns:xlink="http://www.w3.org/1999/xlink" width="88.4092" height="88.5371">
 <g>
  <rect height="88.5371" opacity="0" width="88.4092" x="0" y="0"/>
  <path d="M88.4092 14.4019L88.4092 74.2632C88.4092 83.6558 83.5733 88.5371 74.0005 88.5371L14.3936 88.5371C4.86963 88.5371 0 83.7349 0 74.2632L0 14.4019C0 4.93018 4.86963 0.127929 14.3936 0.127929L74.0005 0.127929C83.5733 0.127929 88.4092 5.00928 88.4092 14.4019ZM27.394 44.2441C27.394 58.1909 34.1748 67.583 44.229 67.583C54.3169 67.583 61.0977 58.1909 61.0977 44.2441C61.0977 30.2974 54.3169 20.8901 44.229 20.8901C34.1748 20.8901 27.394 30.2974 27.394 44.2441ZM55.0898 44.2441C55.0898 55.1357 50.689 62.4512 44.229 62.4512C37.8027 62.4512 33.3682 55.1357 33.3682 44.2441C33.3682 33.3525 37.8027 26.0371 44.229 26.0371C50.689 26.0371 55.0898 33.3525 55.0898 44.2441Z" fill="#000000" fill-opacity="0.85"/>
 </g>
</svg>
