<?xml version="1.0" encoding="UTF-8"?>
<!--Generator: Apple Native CoreSVG 232.5-->
<!DOCTYPE svg
PUBLIC "-//W3C//DTD SVG 1.1//EN"
       "http://www.w3.org/Graphics/SVG/1.1/DTD/svg11.dtd">
<svg version="1.1" xmlns="http://www.w3.org/2000/svg" xmlns:xlink="http://www.w3.org/1999/xlink" width="97.9595" height="97.9932">
 <g>
  <rect height="97.9932" opacity="0" width="97.9595" x="0" y="0"/>
  <path d="M97.9595 48.9722C97.9595 75.7759 75.8247 97.9443 48.9722 97.9443C22.1685 97.9443 0 75.7759 0 48.9722C0 22.1348 22.1348 0 48.9385 0C75.791 0 97.9595 22.1348 97.9595 48.9722ZM21.4482 48.9722C21.4482 58.5078 24.1123 70.0562 33.7622 70.0562C43.3784 70.0562 46.0274 58.5078 46.0274 48.9722C46.0274 39.4214 43.3784 27.8882 33.7622 27.8882C24.1123 27.8882 21.4482 39.4214 21.4482 48.9722ZM51.9321 48.9722C51.9321 58.5078 54.5811 70.0562 64.1973 70.0562C73.8472 70.0562 76.4961 58.5078 76.4961 48.9722C76.4961 39.4214 73.8472 27.8882 64.1973 27.8882C54.5811 27.8882 51.9321 39.4214 51.9321 48.9722ZM40.168 48.9722C40.168 57.0767 38.7568 65.2007 33.7622 65.2007C28.7676 65.2007 27.3413 57.0767 27.3413 48.9722C27.3413 40.834 28.7676 32.7437 33.7622 32.7437C38.7568 32.7437 40.168 40.834 40.168 48.9722ZM70.603 48.9722C70.603 57.0767 69.1919 65.2007 64.1973 65.2007C59.2027 65.2007 57.7915 57.0767 57.7915 48.9722C57.7915 40.834 59.2027 32.7437 64.1973 32.7437C69.1919 32.7437 70.603 40.834 70.603 48.9722Z" fill="#000000" fill-opacity="0.85"/>
 </g>
</svg>
