<?xml version="1.0" encoding="UTF-8"?>
<!--Generator: Apple Native CoreSVG 232.5-->
<!DOCTYPE svg
PUBLIC "-//W3C//DTD SVG 1.1//EN"
       "http://www.w3.org/Graphics/SVG/1.1/DTD/svg11.dtd">
<svg version="1.1" xmlns="http://www.w3.org/2000/svg" xmlns:xlink="http://www.w3.org/1999/xlink" width="88.4092" height="88.5371">
 <g>
  <rect height="88.5371" opacity="0" width="88.4092" x="0" y="0"/>
  <path d="M14.3936 88.5371L74.0005 88.5371C83.5733 88.5371 88.4092 83.6558 88.4092 74.2632L88.4092 14.4019C88.4092 5.00928 83.5733 0.127929 74.0005 0.127929L14.3936 0.127929C4.86963 0.127929 0 4.93018 0 14.4019L0 74.2632C0 83.7349 4.86963 88.5371 14.3936 88.5371ZM14.5064 82.4922C9.00294 82.4922 6.04494 79.6016 6.04494 73.9634L6.04494 14.7017C6.04494 9.06349 9.00294 6.17287 14.5064 6.17287L73.9028 6.17287C79.2969 6.17287 82.3643 9.06349 82.3643 14.7017L82.3643 73.9634C82.3643 79.6016 79.2969 82.4922 73.9028 82.4922Z" fill="#000000" fill-opacity="0.85"/>
  <path d="M29.3257 64.9053C38.7549 64.9053 41.3364 53.5591 41.3364 44.2441C41.3364 34.9292 38.7549 23.5679 29.3257 23.5679C19.9116 23.5679 17.3149 34.9292 17.3149 44.2441C17.3149 53.5591 19.9116 64.9053 29.3257 64.9053ZM29.3257 60.1846C24.3984 60.1846 23.021 52.1465 23.021 44.2441C23.021 36.3081 24.3984 28.27 29.3257 28.27C34.2529 28.27 35.6455 36.3081 35.6455 44.2441C35.6455 52.1465 34.2529 60.1846 29.3257 60.1846ZM59.1323 64.9053C68.5801 64.9053 71.1431 53.5591 71.1431 44.2441C71.1431 34.9292 68.5801 23.5679 59.1323 23.5679C49.7031 23.5679 47.1216 34.9292 47.1216 44.2441C47.1216 53.5591 49.7031 64.9053 59.1323 64.9053ZM59.1323 60.1846C54.2051 60.1846 52.8125 52.1465 52.8125 44.2441C52.8125 36.3081 54.2051 28.27 59.1323 28.27C64.0596 28.27 65.437 36.3081 65.437 44.2441C65.437 52.1465 64.0596 60.1846 59.1323 60.1846Z" fill="#000000" fill-opacity="0.85"/>
 </g>
</svg>
