<?xml version="1.0" encoding="UTF-8"?>
<!--Generator: Apple Native CoreSVG 232.5-->
<!DOCTYPE svg
PUBLIC "-//W3C//DTD SVG 1.1//EN"
       "http://www.w3.org/Graphics/SVG/1.1/DTD/svg11.dtd">
<svg version="1.1" xmlns="http://www.w3.org/2000/svg" xmlns:xlink="http://www.w3.org/1999/xlink" width="88.4092" height="88.5371">
 <g>
  <rect height="88.5371" opacity="0" width="88.4092" x="0" y="0"/>
  <path d="M88.4092 14.4019L88.4092 74.2632C88.4092 83.6558 83.5733 88.5371 74.0005 88.5371L14.3936 88.5371C4.86963 88.5371 0 83.7349 0 74.2632L0 14.4019C0 4.93018 4.86963 0.127929 14.3936 0.127929L74.0005 0.127929C83.5733 0.127929 88.4092 5.00928 88.4092 14.4019ZM16.7051 44.2441C16.7051 53.7798 19.354 65.3281 29.0039 65.3281C38.6201 65.3281 41.2842 53.7798 41.2842 44.2441C41.2842 34.6934 38.6201 23.1602 29.0039 23.1602C19.354 23.1602 16.7051 34.6934 16.7051 44.2441ZM47.1738 44.2441C47.1738 53.7798 49.8379 65.3281 59.4541 65.3281C69.1377 65.3281 71.7529 53.7798 71.7529 44.2441C71.7529 34.6934 69.1377 23.1602 59.4541 23.1602C49.8379 23.1602 47.1738 34.6934 47.1738 44.2441ZM35.4097 44.2441C35.4097 52.3486 33.9985 60.4727 29.0039 60.4727C24.0093 60.4727 22.5982 52.3486 22.5982 44.2441C22.5982 36.106 24.0093 28.0156 29.0039 28.0156C33.9985 28.0156 35.4097 36.106 35.4097 44.2441ZM65.8599 44.2441C65.8599 52.3486 64.4487 60.4727 59.4541 60.4727C54.4595 60.4727 53.0484 52.3486 53.0484 44.2441C53.0484 36.106 54.4595 28.0156 59.4541 28.0156C64.4487 28.0156 65.8599 36.106 65.8599 44.2441Z" fill="#000000" fill-opacity="0.85"/>
 </g>
</svg>
