<?xml version="1.0" encoding="UTF-8"?>
<!--Generator: Apple Native CoreSVG 232.5-->
<!DOCTYPE svg
PUBLIC "-//W3C//DTD SVG 1.1//EN"
       "http://www.w3.org/Graphics/SVG/1.1/DTD/svg11.dtd">
<svg version="1.1" xmlns="http://www.w3.org/2000/svg" xmlns:xlink="http://www.w3.org/1999/xlink" width="97.9595" height="97.9932">
 <g>
  <rect height="97.9932" opacity="0" width="97.9595" x="0" y="0"/>
  <path d="M97.9595 48.9722C97.9595 75.7759 75.8247 97.9443 48.9722 97.9443C22.1685 97.9443 0 75.7759 0 48.9722C0 22.1348 22.1348 0 48.9385 0C75.791 0 97.9595 22.1348 97.9595 48.9722ZM25.0952 48.9722C25.0952 58.5078 27.7593 70.0562 37.3755 70.0562C47.0103 70.0562 49.6743 58.5078 49.6743 48.9722C49.6743 39.4214 47.0103 27.8882 37.3755 27.8882C27.7593 27.8882 25.0952 39.4214 25.0952 48.9722ZM61.7041 29.936L55.6685 34.7476C54.9561 35.3101 54.4053 36.0596 54.4053 37.0903C54.4053 38.3501 55.2676 39.2915 56.5576 39.2915C57.1875 39.2915 57.585 39.0928 57.9824 38.7627L63.1812 34.5825L63.1812 66.6743C63.1812 68.3013 64.5234 69.6284 66.1841 69.6284C67.7285 69.6284 69.0557 68.3013 69.0557 66.6743L69.0557 31.5025C69.0557 29.5049 67.7471 28.2637 65.7158 28.2637C64.04 28.2637 62.6455 29.1934 61.7041 29.936ZM43.7812 48.9722C43.7812 57.0767 42.3701 65.2007 37.3755 65.2007C32.3809 65.2007 30.9546 57.0767 30.9546 48.9722C30.9546 40.834 32.3809 32.7437 37.3755 32.7437C42.3701 32.7437 43.7812 40.834 43.7812 48.9722Z" fill="#000000" fill-opacity="0.85"/>
 </g>
</svg>
