<?xml version="1.0" encoding="UTF-8"?>
<!--Generator: Apple Native CoreSVG 232.5-->
<!DOCTYPE svg
PUBLIC "-//W3C//DTD SVG 1.1//EN"
       "http://www.w3.org/Graphics/SVG/1.1/DTD/svg11.dtd">
<svg version="1.1" xmlns="http://www.w3.org/2000/svg" xmlns:xlink="http://www.w3.org/1999/xlink" width="88.4092" height="88.5371">
 <g>
  <rect height="88.5371" opacity="0" width="88.4092" x="0" y="0"/>
  <path d="M88.4092 14.4019L88.4092 74.2632C88.4092 83.6558 83.5733 88.5371 74.0005 88.5371L14.3936 88.5371C4.86963 88.5371 0 83.7349 0 74.2632L0 14.4019C0 4.93018 4.86963 0.127929 14.3936 0.127929L74.0005 0.127929C83.5733 0.127929 88.4092 5.00928 88.4092 14.4019ZM20.352 44.2441C20.352 53.7798 23.001 65.3281 32.6172 65.3281C42.2671 65.3281 44.9312 53.7798 44.9312 44.2441C44.9312 34.6934 42.2671 23.1602 32.6172 23.1602C23.001 23.1602 20.352 34.6934 20.352 44.2441ZM56.9609 25.208L50.9102 30.0195C50.1978 30.582 49.6621 31.3315 49.6621 32.3623C49.6621 33.6221 50.5093 34.5635 51.7993 34.5635C52.4443 34.5635 52.8267 34.3648 53.2393 34.0347L58.438 29.8545L58.438 61.9463C58.438 63.5732 59.7651 64.9004 61.4258 64.9004C62.9702 64.9004 64.2974 63.5732 64.2974 61.9463L64.2974 26.7744C64.2974 24.7769 63.0039 23.5356 60.9727 23.5356C59.2817 23.5356 57.8872 24.4653 56.9609 25.208ZM39.0229 44.2441C39.0229 52.3486 37.6118 60.4727 32.6172 60.4727C27.6226 60.4727 26.2114 52.3486 26.2114 44.2441C26.2114 36.106 27.6226 28.0156 32.6172 28.0156C37.6118 28.0156 39.0229 36.106 39.0229 44.2441Z" fill="#000000" fill-opacity="0.85"/>
 </g>
</svg>
