<?xml version="1.0" encoding="UTF-8"?>
<!--Generator: Apple Native CoreSVG 232.5-->
<!DOCTYPE svg
PUBLIC "-//W3C//DTD SVG 1.1//EN"
       "http://www.w3.org/Graphics/SVG/1.1/DTD/svg11.dtd">
<svg version="1.1" xmlns="http://www.w3.org/2000/svg" xmlns:xlink="http://www.w3.org/1999/xlink" width="97.9595" height="97.9932">
 <g>
  <rect height="97.9932" opacity="0" width="97.9595" x="0" y="0"/>
  <path d="M97.9595 48.9722C97.9595 75.7759 75.8247 97.9443 48.9722 97.9443C22.1685 97.9443 0 75.7759 0 48.9722C0 22.1348 22.1348 0 48.9385 0C75.791 0 97.9595 22.1348 97.9595 48.9722ZM21.9536 48.9722C21.9536 58.5078 24.584 70.0562 34.2339 70.0562C43.8838 70.0562 46.499 58.5078 46.499 48.9722C46.499 39.4214 43.8838 27.8882 34.2339 27.8882C24.584 27.8882 21.9536 39.4214 21.9536 48.9722ZM52.1191 38.4048C52.1191 39.855 52.9849 40.9429 54.605 40.9429C55.9321 40.9429 56.7759 40.3164 57.1465 39.0044C57.9683 35.166 59.4614 32.6426 62.7847 32.6426C66.3233 32.6426 68.1079 35.8999 68.1079 39.6006C68.1079 43.502 65.8057 47.2705 62.9873 51.0181L53.4902 63.5771C52.7593 64.5522 52.0703 65.5342 52.0703 66.7671C52.0703 68.1733 53.0269 69.1216 54.8071 69.1216L72.0303 69.1216C73.4737 69.1216 74.3814 68.1616 74.3814 66.752C74.3814 65.2075 73.44 64.2998 72.0303 64.2998L59.314 64.2998L59.314 63.9849L67.4253 53.1939C71.9668 47.292 73.5396 43.6416 73.5396 39.3193C73.5396 32.8047 69.4155 27.8882 62.7695 27.8882C56.6118 27.8882 52.1191 33.1802 52.1191 38.4048ZM40.6396 48.9722C40.6396 57.0767 39.2285 65.2007 34.2339 65.2007C29.2393 65.2007 27.813 57.0767 27.813 48.9722C27.813 40.834 29.2393 32.7437 34.2339 32.7437C39.2285 32.7437 40.6396 40.834 40.6396 48.9722Z" fill="#000000" fill-opacity="0.85"/>
 </g>
</svg>
