<?xml version="1.0" encoding="UTF-8"?>
<!--Generator: Apple Native CoreSVG 232.5-->
<!DOCTYPE svg
PUBLIC "-//W3C//DTD SVG 1.1//EN"
       "http://www.w3.org/Graphics/SVG/1.1/DTD/svg11.dtd">
<svg version="1.1" xmlns="http://www.w3.org/2000/svg" xmlns:xlink="http://www.w3.org/1999/xlink" width="88.4092" height="88.5371">
 <g>
  <rect height="88.5371" opacity="0" width="88.4092" x="0" y="0"/>
  <path d="M88.4092 14.4019L88.4092 74.2632C88.4092 83.6558 83.5733 88.5371 74.0005 88.5371L14.3936 88.5371C4.86963 88.5371 0 83.7349 0 74.2632L0 14.4019C0 4.93018 4.86963 0.127929 14.3936 0.127929L74.0005 0.127929C83.5733 0.127929 88.4092 5.00928 88.4092 14.4019ZM16.3721 44.2441C16.3721 53.7798 18.9873 65.3281 28.6372 65.3281C38.2871 65.3281 40.936 53.7798 40.936 44.2441C40.936 34.6934 38.2871 23.1602 28.6372 23.1602C18.9873 23.1602 16.3721 34.6934 16.3721 44.2441ZM47.8071 30.6226C47.4805 31.6294 47.398 32.542 47.398 33.2661C47.398 34.6387 48.2788 35.6997 49.8872 35.6997C51.3574 35.6997 52.0615 35.0801 52.459 33.6099C53.1797 30.3892 54.9878 28.0645 58.2588 28.0645C61.9121 28.0645 63.7808 30.9214 63.7808 34.5747C63.7808 38.5244 61.4087 41.4976 57.4068 41.4976L55.8716 41.4976C54.4502 41.4976 53.6333 42.4204 53.6333 43.7324C53.6333 45.0596 54.5444 45.8999 55.8716 45.8999L57.4556 45.8999C62.0552 45.8999 64.6563 48.4102 64.6563 53.2437C64.6563 57.04 62.6343 60.4272 58.4693 60.4272C54.459 60.4272 52.5147 57.5923 51.9253 54.9038C51.5581 53.501 50.7749 52.7769 49.3233 52.7769C47.7788 52.7769 46.7481 53.7705 46.7481 55.3452C46.7481 56.167 46.9097 57.1216 47.1538 57.9365C48.5581 62.4575 53.1553 65.1968 58.4541 65.1968C65.2569 65.1968 70.4146 60.6709 70.4146 53.333C70.4146 47.4463 67.0635 44.022 62.543 43.5825L62.543 43.436C67.0723 42.2607 69.2578 38.144 69.2578 33.96C69.2578 27.356 64.5293 23.3252 58.2588 23.3252C53.2041 23.3252 49.1929 26.2397 47.8071 30.6226ZM35.043 44.2441C35.043 52.3486 33.6318 60.4727 28.6372 60.4727C23.6426 60.4727 22.2315 52.3486 22.2315 44.2441C22.2315 36.106 23.6426 28.0156 28.6372 28.0156C33.6318 28.0156 35.043 36.106 35.043 44.2441Z" fill="#000000" fill-opacity="0.85"/>
 </g>
</svg>
