<?xml version="1.0" encoding="UTF-8"?>
<!--Generator: Apple Native CoreSVG 232.5-->
<!DOCTYPE svg
PUBLIC "-//W3C//DTD SVG 1.1//EN"
       "http://www.w3.org/Graphics/SVG/1.1/DTD/svg11.dtd">
<svg version="1.1" xmlns="http://www.w3.org/2000/svg" xmlns:xlink="http://www.w3.org/1999/xlink" width="97.9595" height="97.9932">
 <g>
  <rect height="97.9932" opacity="0" width="97.9595" x="0" y="0"/>
  <path d="M48.9722 97.9443C75.8247 97.9443 97.9595 75.7759 97.9595 48.9722C97.9595 22.1348 75.791 0 48.9385 0C22.1348 0 0 22.1348 0 48.9722C0 75.7759 22.1685 97.9443 48.9722 97.9443ZM48.9722 91.6113C25.3501 91.6113 6.36671 72.5942 6.36671 48.9722C6.36671 25.3501 25.3164 6.31789 48.9385 6.31789C72.5605 6.31789 91.6265 25.3501 91.6265 48.9722C91.6265 72.5942 72.5942 91.6113 48.9722 91.6113Z" fill="#000000" fill-opacity="0.85"/>
  <path d="M34.0034 69.6333C43.4326 69.6333 46.0142 58.2871 46.0142 48.9722C46.0142 39.6572 43.4326 28.2959 34.0034 28.2959C24.5894 28.2959 21.9927 39.6572 21.9927 48.9722C21.9927 58.2871 24.5894 69.6333 34.0034 69.6333ZM34.0034 64.9126C29.0762 64.9126 27.6987 56.8745 27.6987 48.9722C27.6987 41.0361 29.0762 32.9981 34.0034 32.9981C38.9307 32.9981 40.3232 41.0361 40.3232 48.9722C40.3232 56.8745 38.9307 64.9126 34.0034 64.9126ZM63.1196 69.6333C70.4341 69.6333 74.3574 63.1763 74.3574 55.7642C74.3574 49.1016 71.1499 42.8281 64.8511 42.8281C62.0611 42.8281 59.2881 44.1314 57.9429 47.1602L57.7627 47.1602L58.6802 33.9478L70.5484 33.9478C71.9058 33.9478 72.7984 32.9878 72.7984 31.5816C72.7984 30.2578 71.8569 29.2305 70.5484 29.2305L57.2417 29.2305C55.0811 29.2305 54.1211 30.6484 53.9898 32.7637L53.0386 47.0659C52.9746 47.8286 52.9595 48.6856 52.9595 49.2295C52.9595 50.7671 53.7661 52.0791 55.5581 52.0791C56.7891 52.0791 57.3853 51.5117 58.2139 50.3599C59.3975 48.4458 60.9058 47.0923 63.1802 47.0923C67.1836 47.0923 68.8687 51.877 68.8687 55.9141C68.8687 60.3906 67.1348 64.98 63.0523 64.98C59.9546 64.98 58.0137 62.5576 57.2105 59.5239C56.7456 58.1128 55.8682 57.5166 54.792 57.5166C53.3521 57.5166 52.4072 58.458 52.4072 59.9165C52.4072 60.8125 52.6699 61.7656 53.0034 62.5606C54.5156 66.7578 58.5401 69.6333 63.1196 69.6333Z" fill="#000000" fill-opacity="0.85"/>
 </g>
</svg>
