<?xml version="1.0" encoding="UTF-8"?>
<!--Generator: Apple Native CoreSVG 232.5-->
<!DOCTYPE svg
PUBLIC "-//W3C//DTD SVG 1.1//EN"
       "http://www.w3.org/Graphics/SVG/1.1/DTD/svg11.dtd">
<svg version="1.1" xmlns="http://www.w3.org/2000/svg" xmlns:xlink="http://www.w3.org/1999/xlink" width="97.9595" height="97.9932">
 <g>
  <rect height="97.9932" opacity="0" width="97.9595" x="0" y="0"/>
  <path d="M48.9722 97.9443C75.8247 97.9443 97.9595 75.7759 97.9595 48.9722C97.9595 22.1348 75.791 0 48.9385 0C22.1348 0 0 22.1348 0 48.9722C0 75.7759 22.1685 97.9443 48.9722 97.9443ZM48.9722 91.6113C25.3501 91.6113 6.36671 72.5942 6.36671 48.9722C6.36671 25.3501 25.3164 6.31789 48.9385 6.31789C72.5605 6.31789 91.6265 25.3501 91.6265 48.9722C91.6265 72.5942 72.5942 91.6113 48.9722 91.6113Z" fill="#000000" fill-opacity="0.85"/>
  <path d="M33.4038 69.6333C42.833 69.6333 45.4146 58.2871 45.4146 48.9722C45.4146 39.6572 42.833 28.2959 33.4038 28.2959C23.9561 28.2959 21.3931 39.6572 21.3931 48.9722C21.3931 58.2871 23.9561 69.6333 33.4038 69.6333ZM33.4038 64.9126C28.4766 64.9126 27.0991 56.8745 27.0991 48.9722C27.0991 41.0361 28.4766 32.9981 33.4038 32.9981C38.331 32.9981 39.7236 41.0361 39.7236 48.9722C39.7236 56.8745 38.331 64.9126 33.4038 64.9126ZM63.4663 69.6333C70.6646 69.6333 74.689 63.353 74.689 55.8535C74.689 49.2315 71.4663 42.936 65.021 42.936C60.7935 42.936 57.7813 45.9209 56.7827 50.2564L56.5874 50.2564C56.5874 50.0308 56.5874 49.8052 56.5874 49.6133C56.5874 43.6787 57.3584 33.0469 63.4478 33.0469C66.084 33.0469 67.7456 34.9727 68.6699 37.4624C69.2022 38.749 69.9028 39.4326 71.2534 39.4326C72.7979 39.4326 73.5405 38.4019 73.5405 37.063C73.5405 36.5864 73.4429 35.9702 73.251 35.2749C72.1802 31.0757 68.25 28.3936 63.564 28.3936C53.8872 28.3936 51.2148 40.1235 51.2148 49.6118C51.2148 58.7798 54.042 69.6333 63.4663 69.6333ZM63.3989 64.98C59.2676 64.98 57.4243 59.936 57.4243 55.8149C57.4243 51.8115 59.4444 47.3047 63.3687 47.3047C67.4512 47.3047 69.2827 51.9429 69.2153 56.0708C69.2153 60.1348 67.3315 64.98 63.3989 64.98Z" fill="#000000" fill-opacity="0.85"/>
 </g>
</svg>
