<?xml version="1.0" encoding="UTF-8"?>
<!--Generator: Apple Native CoreSVG 232.5-->
<!DOCTYPE svg
PUBLIC "-//W3C//DTD SVG 1.1//EN"
       "http://www.w3.org/Graphics/SVG/1.1/DTD/svg11.dtd">
<svg version="1.1" xmlns="http://www.w3.org/2000/svg" xmlns:xlink="http://www.w3.org/1999/xlink" width="97.9595" height="97.9932">
 <g>
  <rect height="97.9932" opacity="0" width="97.9595" x="0" y="0"/>
  <path d="M97.9595 48.9722C97.9595 75.7759 75.8247 97.9443 48.9722 97.9443C22.1685 97.9443 0 75.7759 0 48.9722C0 22.1348 22.1348 0 48.9385 0C75.791 0 97.9595 22.1348 97.9595 48.9722ZM20.8506 48.9722C20.8506 58.5078 23.4658 70.0562 33.1157 70.0562C42.7319 70.0562 45.3809 58.5078 45.3809 48.9722C45.3809 39.4214 42.7319 27.8882 33.1157 27.8882C23.4658 27.8882 20.8506 39.4214 20.8506 48.9722ZM51.3008 49.6118C51.3008 58.9668 54.2105 70.0562 63.8403 70.0562C71.207 70.0562 75.2988 63.6411 75.2988 55.9883C75.2988 49.2315 72.0239 42.8013 65.4287 42.8013C61.1489 42.8013 58.0694 45.8535 57.0371 50.2564L56.8418 50.2564C56.8418 50.0308 56.8418 49.8052 56.8418 49.6133C56.8418 43.5776 57.6128 32.7588 63.8369 32.7588C66.5068 32.7588 68.2022 34.7183 69.1265 37.2417C69.6924 38.5469 70.3931 39.2305 71.7622 39.2305C73.374 39.2305 74.1655 38.1812 74.1655 36.8086C74.1655 36.332 74.0528 35.6821 73.8423 34.9868C72.7564 30.7017 68.7402 27.9707 63.9531 27.9707C54.0557 27.9707 51.3008 39.9214 51.3008 49.6118ZM69.6719 56.2241C69.6719 60.3555 67.7393 65.2681 63.7881 65.2681C59.5557 65.2681 57.7124 60.1231 57.7124 55.9683C57.7124 51.8789 59.7661 47.3047 63.7578 47.3047C67.9077 47.3047 69.7241 52.044 69.6719 56.2241ZM39.5215 48.9722C39.5215 57.0767 38.1103 65.2007 33.1157 65.2007C28.1211 65.2007 26.71 57.0767 26.71 48.9722C26.71 40.834 28.1211 32.7437 33.1157 32.7437C38.1103 32.7437 39.5215 40.834 39.5215 48.9722Z" fill="#000000" fill-opacity="0.85"/>
 </g>
</svg>
