<?xml version="1.0" encoding="UTF-8"?>
<!--Generator: Apple Native CoreSVG 232.5-->
<!DOCTYPE svg
PUBLIC "-//W3C//DTD SVG 1.1//EN"
       "http://www.w3.org/Graphics/SVG/1.1/DTD/svg11.dtd">
<svg version="1.1" xmlns="http://www.w3.org/2000/svg" xmlns:xlink="http://www.w3.org/1999/xlink" width="88.4092" height="88.5371">
 <g>
  <rect height="88.5371" opacity="0" width="88.4092" x="0" y="0"/>
  <path d="M88.4092 14.4019L88.4092 74.2632C88.4092 83.6558 83.5733 88.5371 74.0005 88.5371L14.3936 88.5371C4.86963 88.5371 0 83.7349 0 74.2632L0 14.4019C0 4.93018 4.86963 0.127929 14.3936 0.127929L74.0005 0.127929C83.5733 0.127929 88.4092 5.00928 88.4092 14.4019ZM16.0923 44.2441C16.0923 53.7798 18.7563 65.3281 28.3726 65.3281C37.9888 65.3281 40.6377 53.7798 40.6377 44.2441C40.6377 34.6934 37.9888 23.1602 28.3726 23.1602C18.7563 23.1602 16.0923 34.6934 16.0923 44.2441ZM46.5576 44.8838C46.5576 54.2388 49.4522 65.3281 59.1309 65.3281C66.4639 65.3281 70.5405 58.9131 70.5405 51.2603C70.5405 44.5034 67.2993 38.0732 60.6856 38.0732C56.4058 38.0732 53.3599 41.1255 52.2788 45.5283L52.0986 45.5283C52.0986 45.3027 52.0986 45.0772 52.0986 44.8853C52.0986 38.8496 52.9033 28.0308 59.0938 28.0308C61.7485 28.0308 63.4927 29.9902 64.3682 32.5137C64.9341 33.8189 65.6348 34.5024 67.0191 34.5024C68.6646 34.5024 69.4072 33.4531 69.4072 32.0806C69.4072 31.604 69.3096 30.9541 69.084 30.2588C68.0132 25.9736 63.9819 23.2427 59.21 23.2427C49.2974 23.2427 46.5576 35.1934 46.5576 44.8838ZM64.9136 51.4961C64.9136 55.6274 62.9961 60.54 59.0635 60.54C54.7974 60.54 52.9693 55.395 52.9693 51.2402C52.9693 47.1509 55.023 42.5767 59.0147 42.5767C63.1494 42.5767 64.981 47.3159 64.9136 51.4961ZM34.7783 44.2441C34.7783 52.3486 33.3672 60.4727 28.3726 60.4727C23.3779 60.4727 21.9517 52.3486 21.9517 44.2441C21.9517 36.106 23.3779 28.0156 28.3726 28.0156C33.3672 28.0156 34.7783 36.106 34.7783 44.2441Z" fill="#000000" fill-opacity="0.85"/>
 </g>
</svg>
