<?xml version="1.0" encoding="UTF-8"?>
<!--Generator: Apple Native CoreSVG 232.5-->
<!DOCTYPE svg
PUBLIC "-//W3C//DTD SVG 1.1//EN"
       "http://www.w3.org/Graphics/SVG/1.1/DTD/svg11.dtd">
<svg version="1.1" xmlns="http://www.w3.org/2000/svg" xmlns:xlink="http://www.w3.org/1999/xlink" width="97.9595" height="97.9932">
 <g>
  <rect height="97.9932" opacity="0" width="97.9595" x="0" y="0"/>
  <path d="M48.9722 97.9443C75.8247 97.9443 97.9595 75.7759 97.9595 48.9722C97.9595 22.1348 75.791 0 48.9385 0C22.1348 0 0 22.1348 0 48.9722C0 75.7759 22.1685 97.9443 48.9722 97.9443ZM48.9722 91.6113C25.3501 91.6113 6.36671 72.5942 6.36671 48.9722C6.36671 25.3501 25.3164 6.31789 48.9385 6.31789C72.5605 6.31789 91.6265 25.3501 91.6265 48.9722C91.6265 72.5942 72.5942 91.6113 48.9722 91.6113Z" fill="#000000" fill-opacity="0.85"/>
  <path d="M35.667 69.6333C45.0811 69.6333 47.6777 58.2871 47.6777 48.9722C47.6777 39.6572 45.0811 28.2959 35.667 28.2959C26.2041 28.2959 23.6562 39.6572 23.6562 48.9722C23.6562 58.2871 26.2041 69.6333 35.667 69.6333ZM35.667 64.9126C30.7398 64.9126 29.3472 56.8745 29.3472 48.9722C29.3472 41.0361 30.7398 32.9981 35.667 32.9981C40.5942 32.9981 41.9717 41.0361 41.9717 48.9722C41.9717 56.8745 40.5942 64.9126 35.667 64.9126ZM58.0991 69.3218C59.5391 69.3218 60.2027 68.6953 60.7315 67.2554L72.5186 35.6992C72.9346 34.5034 73.231 33.4981 73.231 32.3545C73.231 30.4868 71.8399 29.2305 70.0093 29.2305L54.0376 29.2305C52.6802 29.2305 51.7539 30.2241 51.7539 31.5816C51.7539 32.9238 52.6802 33.9326 54.0376 33.9326L67.5249 33.9326L67.5249 34.2964L55.9922 64.4731C55.6436 65.3506 55.4971 65.9248 55.4971 66.8696C55.4971 68.0737 56.27 69.3218 58.0991 69.3218Z" fill="#000000" fill-opacity="0.85"/>
 </g>
</svg>
