<?xml version="1.0" encoding="UTF-8"?>
<!--Generator: Apple Native CoreSVG 232.5-->
<!DOCTYPE svg
PUBLIC "-//W3C//DTD SVG 1.1//EN"
       "http://www.w3.org/Graphics/SVG/1.1/DTD/svg11.dtd">
<svg version="1.1" xmlns="http://www.w3.org/2000/svg" xmlns:xlink="http://www.w3.org/1999/xlink" width="97.9595" height="97.9932">
 <g>
  <rect height="97.9932" opacity="0" width="97.9595" x="0" y="0"/>
  <path d="M97.9595 48.9722C97.9595 75.7759 75.8247 97.9443 48.9722 97.9443C22.1685 97.9443 0 75.7759 0 48.9722C0 22.1348 22.1348 0 48.9385 0C75.791 0 97.9595 22.1348 97.9595 48.9722ZM21.4331 48.9722C21.4331 58.5078 24.082 70.0562 33.7319 70.0562C43.3481 70.0562 46.0122 58.5078 46.0122 48.9722C46.0122 39.4214 43.3481 27.8882 33.7319 27.8882C24.082 27.8882 21.4331 39.4214 21.4331 48.9722ZM53.0669 38.7603C53.0669 43.5239 55.8506 46.7026 59.3189 47.8003L59.3189 47.9165C55.0488 48.8779 51.9439 52.9844 51.9439 58.2261C51.9439 65.2881 57.0479 69.9248 64.1602 69.9248C71.6533 69.9248 76.4927 64.9746 76.4927 58.2261C76.4927 52.981 73.2193 48.8442 69.2002 47.9165L69.2002 47.8003C72.6753 46.669 75.3848 43.2915 75.3848 38.794C75.3848 32.5689 70.9746 28.0684 64.1602 28.0684C58.0952 28.0684 53.0669 32.1191 53.0669 38.7603ZM70.4648 57.8066C70.4648 61.9146 68.2798 65.4399 64.209 65.4399C60.1382 65.4399 57.938 61.9297 57.938 57.8066C57.938 53.7393 60.1685 50.3989 64.209 50.3989C68.0308 50.3989 70.4648 53.438 70.4648 57.8066ZM40.1377 48.9722C40.1377 57.0767 38.7266 65.2007 33.7319 65.2007C28.7373 65.2007 27.3262 57.0767 27.3262 48.9722C27.3262 40.834 28.7373 32.7437 33.7319 32.7437C38.7266 32.7437 40.1377 40.834 40.1377 48.9722ZM69.7241 39.311C69.7241 42.9946 67.625 45.8989 64.209 45.8989C60.8804 45.8989 58.6939 42.895 58.6939 39.311C58.6939 35.6343 60.7661 32.5195 64.209 32.5195C67.8892 32.5195 69.7241 35.8159 69.7241 39.311Z" fill="#000000" fill-opacity="0.85"/>
 </g>
</svg>
