<?xml version="1.0" encoding="UTF-8"?>
<!--Generator: Apple Native CoreSVG 232.5-->
<!DOCTYPE svg
PUBLIC "-//W3C//DTD SVG 1.1//EN"
       "http://www.w3.org/Graphics/SVG/1.1/DTD/svg11.dtd">
<svg version="1.1" xmlns="http://www.w3.org/2000/svg" xmlns:xlink="http://www.w3.org/1999/xlink" width="97.9595" height="97.9932">
 <g>
  <rect height="97.9932" opacity="0" width="97.9595" x="0" y="0"/>
  <path d="M48.9722 97.9443C75.8247 97.9443 97.9595 75.7759 97.9595 48.9722C97.9595 22.1348 75.791 0 48.9385 0C22.1348 0 0 22.1348 0 48.9722C0 75.7759 22.1685 97.9443 48.9722 97.9443ZM48.9722 91.6113C25.3501 91.6113 6.36671 72.5942 6.36671 48.9722C6.36671 25.3501 25.3164 6.31789 48.9385 6.31789C72.5605 6.31789 91.6265 25.3501 91.6265 48.9722C91.6265 72.5942 72.5942 91.6113 48.9722 91.6113Z" fill="#000000" fill-opacity="0.85"/>
  <path d="M34.02 69.6333C43.4492 69.6333 46.0459 58.2871 46.0459 48.9722C46.0459 39.6572 43.4492 28.2959 34.02 28.2959C24.606 28.2959 22.0093 39.6572 22.0093 48.9722C22.0093 58.2871 24.606 69.6333 34.02 69.6333ZM34.02 64.9126C29.0928 64.9126 27.7153 56.8745 27.7153 48.9722C27.7153 41.0361 29.0928 32.9981 34.02 32.9981C38.9624 32.9981 40.3398 41.0361 40.3398 48.9722C40.3398 56.8745 38.9624 64.9126 34.02 64.9126ZM63.8047 69.502C71.1294 69.502 75.8491 64.6528 75.8491 58.0391C75.8491 52.9136 72.6768 48.8442 68.71 47.9502L68.71 47.834C72.1177 46.7026 74.7749 43.3775 74.7749 38.981C74.7749 32.9243 70.4507 28.4912 63.8047 28.4912C57.8745 28.4912 52.9658 32.4746 52.9658 38.9473C52.9658 43.6099 55.6484 46.7363 59.0645 47.834L59.0645 47.9502C54.8955 48.8779 51.8428 52.9321 51.8428 58.0391C51.8428 64.9326 56.8272 69.502 63.8047 69.502ZM63.8535 45.9663C60.5923 45.9663 58.4058 43.0298 58.4058 39.4981C58.4058 35.8887 60.478 32.8076 63.8535 32.8076C67.4815 32.8076 69.2827 36.0855 69.2827 39.4981C69.2827 43.1294 67.2022 45.9663 63.8535 45.9663ZM63.8535 65.1519C59.8501 65.1519 57.6685 61.6753 57.6685 57.6382C57.6685 53.6533 59.8652 50.3316 63.8535 50.3316C67.6079 50.3316 70.0083 53.3521 70.0083 57.6382C70.0083 61.6602 67.8569 65.1519 63.8535 65.1519Z" fill="#000000" fill-opacity="0.85"/>
 </g>
</svg>
