<?xml version="1.0" encoding="UTF-8"?>
<!--Generator: Apple Native CoreSVG 232.5-->
<!DOCTYPE svg
PUBLIC "-//W3C//DTD SVG 1.1//EN"
       "http://www.w3.org/Graphics/SVG/1.1/DTD/svg11.dtd">
<svg version="1.1" xmlns="http://www.w3.org/2000/svg" xmlns:xlink="http://www.w3.org/1999/xlink" width="97.9595" height="97.9932">
 <g>
  <rect height="97.9932" opacity="0" width="97.9595" x="0" y="0"/>
  <path d="M97.9595 48.9722C97.9595 75.7759 75.8247 97.9443 48.9722 97.9443C22.1685 97.9443 0 75.7759 0 48.9722C0 22.1348 22.1348 0 48.9385 0C75.791 0 97.9595 22.1348 97.9595 48.9722ZM21.5327 48.9722C21.5327 58.5078 24.1816 70.0562 33.7979 70.0562C43.4478 70.0562 46.1118 58.5078 46.1118 48.9722C46.1118 39.4214 43.4478 27.8882 33.7979 27.8882C24.1816 27.8882 21.5327 39.4214 21.5327 48.9722ZM51.7876 42.0689C51.7876 48.7954 55.0288 55.2105 61.5938 55.2105C65.9224 55.2105 69.002 52.1733 70.0493 47.7705L70.1958 47.7705C70.1958 47.9961 70.1958 48.2217 70.1958 48.4136C70.1958 54.4492 69.4248 65.189 63.2041 65.189C60.5645 65.189 58.8692 63.3086 57.896 60.6607C57.2847 59.167 56.4561 58.6231 55.2788 58.6231C53.5693 58.6231 52.8418 59.7515 52.8418 61.124C52.8418 61.6494 52.9546 62.3145 53.165 62.9307C54.2998 67.3252 58.3462 70.0073 63.1182 70.0073C72.9971 70.0073 75.7368 58.2637 75.7368 48.415C75.7368 39.0601 72.8272 27.9404 63.231 27.9404C55.9434 27.9404 51.7876 34.3857 51.7876 42.0689ZM40.2036 48.9722C40.2036 57.0767 38.7925 65.2007 33.7979 65.2007C28.8032 65.2007 27.3921 57.0767 27.3921 48.9722C27.3921 40.834 28.8032 32.7437 33.7979 32.7437C38.7925 32.7437 40.2036 40.834 40.2036 48.9722ZM69.3589 41.833C69.3589 46.148 67.3052 50.6582 63.2984 50.6582C59.1636 50.6582 57.3472 46.0166 57.3472 41.833C57.3472 37.604 59.2984 32.7437 63.2984 32.7437C67.4971 32.7437 69.3589 37.6343 69.3589 41.833Z" fill="#000000" fill-opacity="0.85"/>
 </g>
</svg>
