<?xml version="1.0" encoding="UTF-8"?>
<!--Generator: Apple Native CoreSVG 232.5-->
<!DOCTYPE svg
PUBLIC "-//W3C//DTD SVG 1.1//EN"
       "http://www.w3.org/Graphics/SVG/1.1/DTD/svg11.dtd">
<svg version="1.1" xmlns="http://www.w3.org/2000/svg" xmlns:xlink="http://www.w3.org/1999/xlink" width="88.4092" height="88.5371">
 <g>
  <rect height="88.5371" opacity="0" width="88.4092" x="0" y="0"/>
  <path d="M14.3936 88.5371L74.0005 88.5371C83.5733 88.5371 88.4092 83.6558 88.4092 74.2632L88.4092 14.4019C88.4092 5.00928 83.5733 0.127929 74.0005 0.127929L14.3936 0.127929C4.86963 0.127929 0 4.93018 0 14.4019L0 74.2632C0 83.7349 4.86963 88.5371 14.3936 88.5371ZM14.5064 82.4922C9.00294 82.4922 6.04494 79.6016 6.04494 73.9634L6.04494 14.7017C6.04494 9.06349 9.00294 6.17287 14.5064 6.17287L73.9028 6.17287C79.2969 6.17287 82.3643 9.06349 82.3643 14.7017L82.3643 73.9634C82.3643 79.6016 79.2969 82.4922 73.9028 82.4922Z" fill="#000000" fill-opacity="0.85"/>
  <path d="M29.3765 64.9053C38.7905 64.9053 41.3872 53.5591 41.3872 44.2441C41.3872 34.9292 38.7905 23.5679 29.3765 23.5679C19.9473 23.5679 17.3657 34.9292 17.3657 44.2441C17.3657 53.5591 19.9473 64.9053 29.3765 64.9053ZM29.3765 60.1846C24.4492 60.1846 23.0567 52.1465 23.0567 44.2441C23.0567 36.3081 24.4492 28.27 29.3765 28.27C34.3037 28.27 35.6811 36.3081 35.6811 44.2441C35.6811 52.1465 34.3037 60.1846 29.3765 60.1846ZM56.5811 50.3477C60.8574 50.3477 63.8359 47.3779 64.8682 43.0425L65.0635 43.0425C65.0635 43.2681 65.0635 43.4937 65.0635 43.6856C65.0635 49.6201 64.2588 60.1728 58.124 60.1728C55.5332 60.1728 53.8716 58.3262 52.9321 55.7119C52.3208 54.252 51.5596 53.708 50.3823 53.708C48.7251 53.708 47.9976 54.7876 47.9976 56.1265C47.9976 56.667 48.1289 57.2832 48.3208 57.9146C49.4219 62.2232 53.3672 64.8565 58.0532 64.8565C67.73 64.8565 70.4024 53.3486 70.4024 43.687C70.4024 34.519 67.6089 23.6353 58.1509 23.6353C51.0317 23.6353 46.9619 29.9458 46.9619 37.4605C46.9619 44.0674 50.1509 50.3477 56.5811 50.3477ZM58.2183 45.9302C54.166 45.9302 52.3682 41.356 52.3682 37.2734C52.3682 33.0967 54.2857 28.27 58.2183 28.27C62.3496 28.27 64.2266 33.1421 64.2266 37.2734C64.2266 41.4873 62.1729 45.9302 58.2183 45.9302Z" fill="#000000" fill-opacity="0.85"/>
 </g>
</svg>
