<?xml version="1.0" encoding="UTF-8"?>
<!--Generator: Apple Native CoreSVG 232.5-->
<!DOCTYPE svg
PUBLIC "-//W3C//DTD SVG 1.1//EN"
       "http://www.w3.org/Graphics/SVG/1.1/DTD/svg11.dtd">
<svg version="1.1" xmlns="http://www.w3.org/2000/svg" xmlns:xlink="http://www.w3.org/1999/xlink" width="97.9595" height="97.9932">
 <g>
  <rect height="97.9932" opacity="0" width="97.9595" x="0" y="0"/>
  <path d="M48.9722 97.9443C75.8247 97.9443 97.9595 75.7759 97.9595 48.9722C97.9595 22.1348 75.791 0 48.9385 0C22.1348 0 0 22.1348 0 48.9722C0 75.7759 22.1685 97.9443 48.9722 97.9443ZM48.9722 91.6113C25.3501 91.6113 6.36671 72.5942 6.36671 48.9722C6.36671 25.3501 25.3164 6.31789 48.9385 6.31789C72.5605 6.31789 91.6265 25.3501 91.6265 48.9722C91.6265 72.5942 72.5942 91.6113 48.9722 91.6113Z" fill="#000000" fill-opacity="0.85"/>
  <path d="M51.2808 71.8359C53.1958 71.8359 54.3091 70.5391 54.3091 68.4858L54.3091 29.4888C54.3091 27.3228 53.0679 26.1084 51.0703 26.1084C49.6572 26.1084 48.6602 26.4907 46.9844 27.6191L37.605 33.8638C36.7275 34.4448 36.3789 35.0899 36.3789 36.0684C36.3789 37.2944 37.3726 38.4229 38.6323 38.4229C39.2134 38.4229 39.6294 38.3067 40.4346 37.7861L47.9746 32.8638L48.2861 32.8638L48.2861 68.4858C48.2861 70.5391 49.4146 71.8359 51.2808 71.8359Z" fill="#000000" fill-opacity="0.85"/>
 </g>
</svg>
