<?xml version="1.0" encoding="UTF-8"?>
<!--Generator: Apple Native CoreSVG 232.5-->
<!DOCTYPE svg
PUBLIC "-//W3C//DTD SVG 1.1//EN"
       "http://www.w3.org/Graphics/SVG/1.1/DTD/svg11.dtd">
<svg version="1.1" xmlns="http://www.w3.org/2000/svg" xmlns:xlink="http://www.w3.org/1999/xlink" width="88.4092" height="88.5371">
 <g>
  <rect height="88.5371" opacity="0" width="88.4092" x="0" y="0"/>
  <path d="M14.3936 88.5371L74.0005 88.5371C83.5733 88.5371 88.4092 83.6558 88.4092 74.2632L88.4092 14.4019C88.4092 5.00928 83.5733 0.127929 74.0005 0.127929L14.3936 0.127929C4.86963 0.127929 0 4.93018 0 14.4019L0 74.2632C0 83.7349 4.86963 88.5371 14.3936 88.5371ZM14.5064 82.4922C9.00294 82.4922 6.04494 79.6016 6.04494 73.9634L6.04494 14.7017C6.04494 9.06349 9.00294 6.17287 14.5064 6.17287L73.9028 6.17287C79.2969 6.17287 82.3643 9.06349 82.3643 14.7017L82.3643 73.9634C82.3643 79.6016 79.2969 82.4922 73.9028 82.4922Z" fill="#000000" fill-opacity="0.85"/>
  <path d="M46.5562 67.1079C48.4863 67.1079 49.6182 65.811 49.6182 63.7578L49.6182 24.7608C49.6182 22.5947 48.3921 21.3804 46.3457 21.3804C44.9478 21.3804 43.9355 21.7627 42.2749 22.8911L32.8955 29.1357C32.0181 29.7168 31.6543 30.3618 31.6543 31.3403C31.6543 32.5664 32.6631 33.6948 33.9229 33.6948C34.4888 33.6948 34.9048 33.5786 35.71 33.0581L43.2651 28.1358L43.5767 28.1358L43.5767 63.7578C43.5767 65.811 44.6899 67.1079 46.5562 67.1079Z" fill="#000000" fill-opacity="0.85"/>
 </g>
</svg>
