<?xml version="1.0" encoding="UTF-8"?>
<!--Generator: Apple Native CoreSVG 232.5-->
<!DOCTYPE svg
PUBLIC "-//W3C//DTD SVG 1.1//EN"
       "http://www.w3.org/Graphics/SVG/1.1/DTD/svg11.dtd">
<svg version="1.1" xmlns="http://www.w3.org/2000/svg" xmlns:xlink="http://www.w3.org/1999/xlink" width="88.4092" height="88.5371">
 <g>
  <rect height="88.5371" opacity="0" width="88.4092" x="0" y="0"/>
  <path d="M88.4092 14.4019L88.4092 74.2632C88.4092 83.6558 83.5733 88.5371 74.0005 88.5371L14.3936 88.5371C4.86963 88.5371 0 83.7349 0 74.2632L0 14.4019C0 4.93018 4.86963 0.127929 14.3936 0.127929L74.0005 0.127929C83.5733 0.127929 88.4092 5.00928 88.4092 14.4019ZM41.9365 44.2441C41.9365 53.7798 44.5855 65.3281 54.2017 65.3281C63.8179 65.3281 66.482 53.7798 66.482 44.2441C66.482 34.6934 63.8179 23.1602 54.2017 23.1602C44.5855 23.1602 41.9365 34.6934 41.9365 44.2441ZM26.6343 25.208L20.6172 30.0195C19.9048 30.582 19.3877 31.3315 19.3877 32.3623C19.3877 33.6221 20.2163 34.5635 21.4727 34.5635C22.1514 34.5635 22.5337 34.3648 22.9648 34.0347L28.145 29.8545L28.145 61.9463C28.145 63.5732 29.4722 64.9004 31.0991 64.9004C32.6773 64.9004 34.0381 63.5732 34.0381 61.9463L34.0381 26.7744C34.0381 24.7769 32.7109 23.5356 30.6982 23.5356C28.9888 23.5356 27.6279 24.4653 26.6343 25.208ZM60.6226 44.2441C60.6226 52.3486 59.1963 60.4727 54.2017 60.4727C49.2071 60.4727 47.7959 52.3486 47.7959 44.2441C47.7959 36.106 49.2071 28.0156 54.2017 28.0156C59.1963 28.0156 60.6226 36.106 60.6226 44.2441Z" fill="#000000" fill-opacity="0.85"/>
 </g>
</svg>
