<?xml version="1.0" encoding="UTF-8"?>
<!--Generator: Apple Native CoreSVG 232.5-->
<!DOCTYPE svg
PUBLIC "-//W3C//DTD SVG 1.1//EN"
       "http://www.w3.org/Graphics/SVG/1.1/DTD/svg11.dtd">
<svg version="1.1" xmlns="http://www.w3.org/2000/svg" xmlns:xlink="http://www.w3.org/1999/xlink" width="88.4092" height="88.5371">
 <g>
  <rect height="88.5371" opacity="0" width="88.4092" x="0" y="0"/>
  <path d="M14.3936 88.5371L74.0005 88.5371C83.5733 88.5371 88.4092 83.6558 88.4092 74.2632L88.4092 14.4019C88.4092 5.00928 83.5733 0.127929 74.0005 0.127929L14.3936 0.127929C4.86963 0.127929 0 4.93018 0 14.4019L0 74.2632C0 83.7349 4.86963 88.5371 14.3936 88.5371ZM14.5064 82.4922C9.00294 82.4922 6.04494 79.6016 6.04494 73.9634L6.04494 14.7017C6.04494 9.06349 9.00294 6.17287 14.5064 6.17287L73.9028 6.17287C79.2969 6.17287 82.3643 9.06349 82.3643 14.7017L82.3643 73.9634C82.3643 79.6016 79.2969 82.4922 73.9028 82.4922Z" fill="#000000" fill-opacity="0.85"/>
  <path d="M31.3535 64.4775C32.898 64.4775 34.1914 63.1841 34.1914 61.6245L34.1914 27.0962C34.1914 25.166 32.9316 23.9585 30.9526 23.9585C29.3105 23.9585 27.9834 24.8545 27.0083 25.5972L21.0923 30.3076C20.4287 30.8701 19.9116 31.5859 19.9116 32.5982C19.9116 33.8242 20.7251 34.7168 21.9478 34.7168C22.5928 34.7168 22.9902 34.5181 23.3877 34.2368L28.5005 30.1089L28.5005 61.6245C28.5005 63.1841 29.7939 64.4775 31.3535 64.4775ZM53.9473 64.9053C63.3765 64.9053 65.958 53.5591 65.958 44.2441C65.958 34.9292 63.3765 23.5679 53.9473 23.5679C44.5332 23.5679 41.9365 34.9292 41.9365 44.2441C41.9365 53.5591 44.5332 64.9053 53.9473 64.9053ZM53.9473 60.1846C49.02 60.1846 47.6426 52.1465 47.6426 44.2441C47.6426 36.3081 49.02 28.27 53.9473 28.27C58.8745 28.27 60.2671 36.3081 60.2671 44.2441C60.2671 52.1465 58.8745 60.1846 53.9473 60.1846Z" fill="#000000" fill-opacity="0.85"/>
 </g>
</svg>
