<?xml version="1.0" encoding="UTF-8"?>
<!--Generator: Apple Native CoreSVG 232.5-->
<!DOCTYPE svg
PUBLIC "-//W3C//DTD SVG 1.1//EN"
       "http://www.w3.org/Graphics/SVG/1.1/DTD/svg11.dtd">
<svg version="1.1" xmlns="http://www.w3.org/2000/svg" xmlns:xlink="http://www.w3.org/1999/xlink" width="97.9595" height="97.9932">
 <g>
  <rect height="97.9932" opacity="0" width="97.9595" x="0" y="0"/>
  <path d="M97.9595 48.9722C97.9595 75.7759 75.8247 97.9443 48.9722 97.9443C22.1685 97.9443 0 75.7759 0 48.9722C0 22.1348 22.1348 0 48.9385 0C75.791 0 97.9595 22.1348 97.9595 48.9722ZM35.0762 29.936L29.0591 34.7476C28.313 35.3101 27.7959 36.0596 27.7959 37.0903C27.7959 38.3501 28.6582 39.2915 29.9482 39.2915C30.5596 39.2915 30.9756 39.0928 31.3882 38.7627L36.5869 34.5825L36.5869 66.6743C36.5869 68.3013 37.9141 69.6284 39.541 69.6284C41.1191 69.6284 42.4463 68.3013 42.4463 66.6743L42.4463 31.5025C42.4463 29.5049 41.1528 28.2637 39.1064 28.2637C37.397 28.2637 36.0361 29.1934 35.0762 29.936ZM56.6836 29.936L50.6665 34.7476C49.9692 35.3101 49.4185 36.0596 49.4185 37.0903C49.4185 38.3501 50.2808 39.2915 51.522 39.2915C52.167 39.2915 52.583 39.0928 52.9956 38.7627L58.1943 34.5825L58.1943 66.6743C58.1943 68.3013 59.5215 69.6284 61.1636 69.6284C62.7266 69.6284 64.0689 68.3013 64.0689 66.6743L64.0689 31.5025C64.0689 29.5049 62.7603 28.2637 60.729 28.2637C59.0044 28.2637 57.6436 29.1934 56.6836 29.936Z" fill="#000000" fill-opacity="0.85"/>
 </g>
</svg>
