<?xml version="1.0" encoding="UTF-8"?>
<!--Generator: Apple Native CoreSVG 232.5-->
<!DOCTYPE svg
PUBLIC "-//W3C//DTD SVG 1.1//EN"
       "http://www.w3.org/Graphics/SVG/1.1/DTD/svg11.dtd">
<svg version="1.1" xmlns="http://www.w3.org/2000/svg" xmlns:xlink="http://www.w3.org/1999/xlink" width="88.4092" height="88.5371">
 <g>
  <rect height="88.5371" opacity="0" width="88.4092" x="0" y="0"/>
  <path d="M14.3936 88.5371L74.0005 88.5371C83.5733 88.5371 88.4092 83.6558 88.4092 74.2632L88.4092 14.4019C88.4092 5.00928 83.5733 0.127929 74.0005 0.127929L14.3936 0.127929C4.86963 0.127929 0 4.93018 0 14.4019L0 74.2632C0 83.7349 4.86963 88.5371 14.3936 88.5371ZM14.5064 82.4922C9.00294 82.4922 6.04494 79.6016 6.04494 73.9634L6.04494 14.7017C6.04494 9.06349 9.00294 6.17287 14.5064 6.17287L73.9028 6.17287C79.2969 6.17287 82.3643 9.06349 82.3643 14.7017L82.3643 73.9634C82.3643 79.6016 79.2969 82.4922 73.9028 82.4922Z" fill="#000000" fill-opacity="0.85"/>
  <path d="M34.9512 64.4775C36.4619 64.4775 37.7554 63.1841 37.7554 61.6245L37.7554 27.0962C37.7554 25.166 36.4956 23.9585 34.5317 23.9585C32.9082 23.9585 31.5474 24.8545 30.606 25.5972L24.6899 30.3076C23.9927 30.8701 23.5093 31.5859 23.5093 32.5982C23.5093 33.8242 24.3042 34.7168 25.5454 34.7168C26.1567 34.7168 26.5542 34.5181 26.9517 34.2368L32.0644 30.1089L32.0644 61.6245C32.0644 63.1841 33.3579 64.4775 34.9512 64.4775ZM56.0835 64.4775C57.5943 64.4775 58.8877 63.1841 58.8877 61.6245L58.8877 27.0962C58.8877 25.166 57.6279 23.9585 55.6489 23.9585C54.0068 23.9585 52.6797 24.8545 51.7383 25.5972L45.8223 30.3076C45.125 30.8701 44.6079 31.5859 44.6079 32.5982C44.6079 33.8242 45.4214 34.7168 46.6777 34.7168C47.2891 34.7168 47.6865 34.5181 48.084 34.2368L53.1968 30.1089L53.1968 61.6245C53.1968 63.1841 54.4902 64.4775 56.0835 64.4775Z" fill="#000000" fill-opacity="0.85"/>
 </g>
</svg>
