<?xml version="1.0" encoding="UTF-8"?>
<!--Generator: Apple Native CoreSVG 232.5-->
<!DOCTYPE svg
PUBLIC "-//W3C//DTD SVG 1.1//EN"
       "http://www.w3.org/Graphics/SVG/1.1/DTD/svg11.dtd">
<svg version="1.1" xmlns="http://www.w3.org/2000/svg" xmlns:xlink="http://www.w3.org/1999/xlink" width="97.9595" height="97.9932">
 <g>
  <rect height="97.9932" opacity="0" width="97.9595" x="0" y="0"/>
  <path d="M97.9595 48.9722C97.9595 75.7759 75.8247 97.9443 48.9722 97.9443C22.1685 97.9443 0 75.7759 0 48.9722C0 22.1348 22.1348 0 48.9385 0C75.791 0 97.9595 22.1348 97.9595 48.9722ZM31.8149 29.9697L25.813 34.7476C25.1006 35.3101 24.5498 36.0596 24.5498 37.0903C24.5498 38.3501 25.4121 39.2915 26.6685 39.2915C27.3472 39.2915 27.7295 39.0928 28.1606 38.7964L33.3408 34.5825L33.3408 66.708C33.3408 68.3013 34.668 69.6284 36.2949 69.6284C37.8731 69.6284 39.2002 68.3013 39.2002 66.708L39.2002 31.5025C39.2002 29.5049 37.9067 28.2637 35.8604 28.2637C34.1846 28.2637 32.8237 29.1934 31.8149 29.9697ZM46.8696 38.4048C46.8696 39.855 47.7505 40.9766 49.3218 40.9766C50.6826 40.9766 51.4927 40.3164 51.897 39.0044C52.7002 35.166 54.2119 32.6426 57.5503 32.6426C61.0737 32.6426 62.8584 35.8999 62.8584 39.6006C62.8584 43.502 60.5713 47.2705 57.7529 51.0518L48.2559 63.5771C47.5098 64.5859 46.8208 65.5679 46.8208 66.7671C46.8208 68.1733 47.7774 69.1216 49.5728 69.1216L66.7808 69.1216C68.2241 69.1216 69.1319 68.1616 69.1319 66.752C69.1319 65.2075 68.1904 64.3335 66.7808 64.3335L54.0645 64.3335L54.0645 63.9849L62.1909 53.1939C66.751 47.292 68.2901 43.6416 68.2901 39.3193C68.2901 32.8047 64.1812 27.8882 57.52 27.8882C51.3286 27.8882 46.8696 33.1802 46.8696 38.4048Z" fill="#000000" fill-opacity="0.85"/>
 </g>
</svg>
