<?xml version="1.0" encoding="UTF-8"?>
<!--Generator: Apple Native CoreSVG 232.5-->
<!DOCTYPE svg
PUBLIC "-//W3C//DTD SVG 1.1//EN"
       "http://www.w3.org/Graphics/SVG/1.1/DTD/svg11.dtd">
<svg version="1.1" xmlns="http://www.w3.org/2000/svg" xmlns:xlink="http://www.w3.org/1999/xlink" width="88.4092" height="73.4395">
 <g>
  <rect height="73.4395" opacity="0" width="88.4092" x="0" y="0"/>
  <path d="M0 70.4077C0 72.0566 1.34912 73.4395 2.99805 73.4395C4.68068 73.4395 6.04494 72.0566 6.04494 70.4077L6.04494 3.12598C6.04494 1.47705 4.68068 0.127929 2.99805 0.127929C1.34912 0.127929 0 1.47705 0 3.12598ZM82.3643 70.4077C82.3643 72.0566 83.7471 73.4395 85.396 73.4395C87.0601 73.4395 88.4092 72.0566 88.4092 70.4077L88.4092 3.12598C88.4092 1.47705 87.0601 0.127929 85.396 0.127929C83.7471 0.127929 82.3643 1.47705 82.3643 3.12598Z" fill="#000000" fill-opacity="0.85"/>
  <path d="M31.9175 57.981C33.7095 57.981 34.8193 56.6909 34.8193 54.8989L34.8193 20.065C34.8193 18.0557 33.5747 16.8447 31.5166 16.8447C29.8896 16.8447 28.7578 17.5757 27.4458 18.5391L20.5117 23.6113C19.668 24.2564 19.1577 24.9351 19.1577 25.9927C19.1577 27.249 20.0317 28.1753 21.273 28.1753C21.8843 28.1753 22.3272 28.0254 22.8223 27.6616L28.9819 23.1079L29.0005 23.1079L29.0005 54.8989C29.0005 56.7061 30.0952 57.981 31.9175 57.981ZM46.5737 57.8076L66.4458 57.8076C67.9346 57.8076 68.876 56.8813 68.876 55.3926C68.876 53.9189 67.9194 53.0112 66.4458 53.0112L51.2422 53.0112L51.2422 52.7417L60.0318 42.8159C61.9292 40.644 63.4883 38.7466 64.6265 37.1724C66.5645 34.374 67.7817 31.6919 67.7817 28.3076C67.7817 21.4058 62.7168 16.8818 55.7681 16.8818C49.5352 16.8818 44.8272 21.2441 44.0054 26.0796C43.9229 26.5713 43.874 27.0142 43.874 27.3931C43.874 28.9341 44.834 29.9092 46.3413 29.9092C47.6802 29.9092 48.4751 29.2153 48.9248 27.959C49.728 24.3159 51.9165 21.5957 55.7647 21.5957C59.6973 21.5957 62.1465 24.6109 62.1465 28.54C62.1465 31.1665 61.2105 33.1885 59.7188 35.3604C58.7793 36.687 57.498 38.3555 55.8145 40.2983L45.3511 52.2095C44.4736 53.1357 43.7764 54.0317 43.7764 55.374C43.7764 56.6084 44.5425 57.8076 46.5737 57.8076Z" fill="#000000" fill-opacity="0.85"/>
 </g>
</svg>
