<?xml version="1.0" encoding="UTF-8"?>
<!--Generator: Apple Native CoreSVG 232.5-->
<!DOCTYPE svg
PUBLIC "-//W3C//DTD SVG 1.1//EN"
       "http://www.w3.org/Graphics/SVG/1.1/DTD/svg11.dtd">
<svg version="1.1" xmlns="http://www.w3.org/2000/svg" xmlns:xlink="http://www.w3.org/1999/xlink" width="114.35" height="88.4395">
 <g>
  <rect height="88.4395" opacity="0" width="114.35" x="0" y="0"/>
  <path d="M14.3936 88.4092L99.9409 88.4092C109.514 88.4092 114.35 83.5615 114.35 74.169L114.35 14.2739C114.35 4.88135 109.514 0 99.9409 0L14.3936 0C4.86963 0 0 4.83594 0 14.2739L0 74.169C0 83.6069 4.86963 88.4092 14.3936 88.4092ZM14.5064 82.3794C9.00294 82.3794 6.04494 79.4736 6.04494 73.8355L6.04494 14.6074C6.04494 8.96925 9.00294 6.04494 14.5064 6.04494L99.8433 6.04494C105.237 6.04494 108.305 8.96925 108.305 14.6074L108.305 73.8355C108.305 79.4736 105.237 82.3794 99.8433 82.3794Z" fill="#000000" fill-opacity="0.85"/>
  <path d="M28.1694 64.605C29.8486 64.605 30.812 63.5254 30.812 61.7602L30.812 26.44C30.812 24.562 29.6904 23.5313 27.9624 23.5313C26.6841 23.5313 25.8706 23.8462 24.4121 24.8584L15.8125 30.5708C15.0513 31.0845 14.7549 31.6621 14.7549 32.457C14.7549 33.5635 15.6626 34.4746 16.6714 34.4746C17.1851 34.4746 17.5825 34.3921 18.4566 33.7808L25.249 29.377L25.5977 29.377L25.5977 61.7602C25.5977 63.4917 26.5913 64.605 28.1694 64.605ZM41.9492 64.019L64.4937 64.019C65.8511 64.019 66.7808 63.0254 66.7808 61.6982C66.7808 60.3711 65.8208 59.4297 64.4937 59.4297L46.8706 59.46L46.8706 59.2495L58.3555 46.7446C62.5425 42.1738 64.9253 38.835 64.9253 34.4199C64.9253 27.7979 59.8218 23.4824 52.1084 23.4824C45.936 23.4824 40.4707 27.2354 39.3154 32.394C39.1992 32.9868 39.1167 33.4111 39.1167 33.9365C39.1167 35.294 39.9639 36.2202 41.4038 36.2202C42.6753 36.2202 43.3994 35.4893 43.9048 34.4048C44.688 30.9961 47.6489 27.9741 52.2954 27.9741C56.9351 27.9741 59.9687 30.666 59.9687 34.7266C59.9687 37.875 57.793 40.6025 54.9394 43.6934L40.3442 59.5864C39.7329 60.2129 39.4331 60.8428 39.4331 61.6865C39.4331 63.1079 40.457 64.019 41.9492 64.019ZM84.6431 64.6235C93.1899 64.6235 99.0981 59.9429 99.0981 53.0244C99.0981 47.9043 95.1567 43.7827 89.8784 43.2607L89.8784 43.1328C94.3232 42.3584 97.6856 38.3462 97.6856 33.7329C97.6856 27.7456 92.311 23.4487 84.8486 23.4487C78.2363 23.4487 72.9663 26.7993 71.9761 31.7681C71.8936 32.3574 71.8447 32.7481 71.8447 33.3408C71.8447 34.6646 72.7593 35.6245 74.169 35.6245C75.4707 35.6245 76.2168 35.0318 76.5537 33.7603C77.3604 30.1558 80.5523 27.8916 84.7964 27.8916C89.522 27.8916 92.6128 30.4453 92.6128 34.314C92.6128 38.2651 89.2559 41.228 84.7676 41.228L81.6128 41.228C80.3867 41.228 79.4605 42.1055 79.4605 43.3955C79.4605 44.6704 80.3413 45.5816 81.6128 45.5816L85.0908 45.5816C90.2964 45.5816 93.9917 48.5898 93.9917 52.856C93.9917 57.2212 90.2627 60.2143 84.7105 60.2143C80.2188 60.2143 76.8081 57.9502 75.7759 54.2969C75.3076 53.0742 74.5801 52.4814 73.3574 52.4814C71.8535 52.4814 71.0029 53.4902 71.0029 54.9419C71.0029 55.4219 71.0366 55.6997 71.1191 56.1797C72.1025 61.0962 78.0459 64.6235 84.6431 64.6235Z" fill="#000000" fill-opacity="0.85"/>
 </g>
</svg>
