<?xml version="1.0" encoding="UTF-8"?>
<!--Generator: Apple Native CoreSVG 232.5-->
<!DOCTYPE svg
PUBLIC "-//W3C//DTD SVG 1.1//EN"
       "http://www.w3.org/Graphics/SVG/1.1/DTD/svg11.dtd">
<svg version="1.1" xmlns="http://www.w3.org/2000/svg" xmlns:xlink="http://www.w3.org/1999/xlink" width="97.9595" height="97.9932">
 <g>
  <rect height="97.9932" opacity="0" width="97.9595" x="0" y="0"/>
  <path d="M48.9722 97.9443C75.8247 97.9443 97.9595 75.7759 97.9595 48.9722C97.9595 22.1348 75.791 0 48.9385 0C22.1348 0 0 22.1348 0 48.9722C0 75.7759 22.1685 97.9443 48.9722 97.9443ZM48.9722 91.6113C25.3501 91.6113 6.36671 72.5942 6.36671 48.9722C6.36671 25.3501 25.3164 6.31789 48.9385 6.31789C72.5605 6.31789 91.6265 25.3501 91.6265 48.9722C91.6265 72.5942 72.5942 91.6113 48.9722 91.6113Z" fill="#000000" fill-opacity="0.85"/>
  <path d="M36.0459 69.2056C37.5566 69.2056 38.8501 67.9121 38.8501 66.3525L38.8501 31.8242C38.8501 29.8941 37.5752 28.6865 35.6113 28.6865C33.9541 28.6865 32.627 29.5825 31.7007 30.3252L25.7847 35.0356C25.0723 35.5981 24.5552 36.314 24.5552 37.3262C24.5552 38.5523 25.3838 39.4448 26.6401 39.4448C27.2515 39.4448 27.6338 39.2461 28.0464 38.9649L33.144 34.8369L33.144 66.3525C33.144 67.9121 34.4375 69.2056 36.0459 69.2056ZM58.062 69.502C64.6963 69.502 69.7529 65.0772 69.7529 57.8589C69.7529 52.1069 66.4693 48.75 62.0498 48.3106L62.0498 48.1641C66.4932 47.0073 68.6113 43.0068 68.6113 38.875C68.6113 32.4395 64.0025 28.4761 57.8667 28.4761C52.9131 28.4761 48.9878 31.3232 47.6509 35.6538C47.3428 36.627 47.2603 37.4907 47.2603 38.2149C47.2603 39.5537 48.1226 40.5811 49.6821 40.5811C51.1001 40.5811 51.7705 39.9766 52.1529 38.5249C52.8887 35.3716 54.6631 33.0806 57.8667 33.0806C61.4526 33.0806 63.2876 35.9038 63.2876 39.5049C63.2876 43.3721 60.9981 46.293 57.0484 46.293L55.5132 46.293C54.1255 46.293 53.3423 47.1821 53.3423 48.4605C53.3423 49.7539 54.2197 50.5606 55.5132 50.5606L57.0972 50.5606C61.5957 50.5606 64.1782 53.0523 64.1782 57.7847C64.1782 61.5474 62.2085 64.8672 58.0772 64.8672C54.1343 64.8672 52.2085 62.0659 51.6529 59.4111C51.2857 58.0606 50.5025 57.3516 49.1333 57.3516C47.6226 57.3516 46.6104 58.3115 46.6104 59.8374C46.6104 60.6406 46.772 61.5952 47.0161 62.3613C48.4019 66.8115 52.8643 69.502 58.062 69.502Z" fill="#000000" fill-opacity="0.85"/>
 </g>
</svg>
