<?xml version="1.0" encoding="UTF-8"?>
<!--Generator: Apple Native CoreSVG 232.5-->
<!DOCTYPE svg
PUBLIC "-//W3C//DTD SVG 1.1//EN"
       "http://www.w3.org/Graphics/SVG/1.1/DTD/svg11.dtd">
<svg version="1.1" xmlns="http://www.w3.org/2000/svg" xmlns:xlink="http://www.w3.org/1999/xlink" width="97.9595" height="97.9932">
 <g>
  <rect height="97.9932" opacity="0" width="97.9595" x="0" y="0"/>
  <path d="M97.9595 48.9722C97.9595 75.7759 75.8247 97.9443 48.9722 97.9443C22.1685 97.9443 0 75.7759 0 48.9722C0 22.1348 22.1348 0 48.9385 0C75.791 0 97.9595 22.1348 97.9595 48.9722ZM56.4268 32.1963L46.3257 53.3472C45.6284 54.9219 45.3657 55.9981 45.3657 57.273C45.3657 59.2603 46.7417 60.6328 48.8047 60.6328L60.6743 60.6328L60.6743 66.8276C60.6743 68.874 62.1245 69.6958 63.4448 69.6958C65.0044 69.6958 66.2002 68.6602 66.2002 66.8276L66.2002 60.6328L68.5215 60.6328C70.0811 60.6328 70.8726 59.6206 70.8726 58.2144C70.8726 56.9058 70.0845 55.8936 68.5215 55.8936L66.2002 55.8936L66.2002 32.582C66.2002 29.6416 64.2837 28.188 61.7842 28.188C58.9463 28.188 57.6191 29.6768 56.4268 32.1963ZM30.6123 29.936L24.6289 34.7476C23.8828 35.3101 23.3472 36.0596 23.3472 37.0903C23.3472 38.3501 24.1943 39.2915 25.4507 39.2915C26.1294 39.2915 26.5117 39.0928 26.958 38.7627L32.123 34.5825L32.123 66.6743C32.123 68.3013 33.4502 69.6284 35.0771 69.6284C36.6553 69.6284 37.9824 68.3013 37.9824 66.6743L37.9824 31.5025C37.9824 29.5049 36.689 28.2637 34.6577 28.2637C32.9668 28.2637 31.6059 29.1934 30.6123 29.936ZM60.7754 55.9946L50.4199 55.9946L50.4199 55.7285L60.5801 33.582L60.7754 33.582Z" fill="#000000" fill-opacity="0.85"/>
 </g>
</svg>
