<?xml version="1.0" encoding="UTF-8"?>
<!--Generator: Apple Native CoreSVG 232.5-->
<!DOCTYPE svg
PUBLIC "-//W3C//DTD SVG 1.1//EN"
       "http://www.w3.org/Graphics/SVG/1.1/DTD/svg11.dtd">
<svg version="1.1" xmlns="http://www.w3.org/2000/svg" xmlns:xlink="http://www.w3.org/1999/xlink" width="97.9595" height="97.9932">
 <g>
  <rect height="97.9932" opacity="0" width="97.9595" x="0" y="0"/>
  <path d="M48.9722 97.9443C75.8247 97.9443 97.9595 75.7759 97.9595 48.9722C97.9595 22.1348 75.791 0 48.9385 0C22.1348 0 0 22.1348 0 48.9722C0 75.7759 22.1685 97.9443 48.9722 97.9443ZM48.9722 91.6113C25.3501 91.6113 6.36671 72.5942 6.36671 48.9722C6.36671 25.3501 25.3164 6.31789 48.9385 6.31789C72.5605 6.31789 91.6265 25.3501 91.6265 48.9722C91.6265 72.5942 72.5942 91.6113 48.9722 91.6113Z" fill="#000000" fill-opacity="0.85"/>
  <path d="M35.313 69.2056C36.8574 69.2056 38.1509 67.9121 38.1509 66.3525L38.1509 31.8242C38.1509 29.8941 36.876 28.6865 34.9121 28.6865C33.2549 28.6865 31.9277 29.5825 30.9678 30.3252L25.0518 35.0356C24.373 35.5981 23.856 36.314 23.856 37.3262C23.856 38.5523 24.6846 39.4448 25.9072 39.4448C26.5522 39.4448 26.9346 39.2461 27.3472 38.9649L32.4448 34.8369L32.4448 66.3525C32.4448 67.9121 33.7383 69.2056 35.313 69.2056ZM63.0708 69.273C64.5479 69.273 65.7588 68.271 65.7588 66.4722L65.7588 60.3784L68.0127 60.3784C69.5386 60.3784 70.2964 59.3999 70.2964 58.0274C70.2964 56.7373 69.5269 55.7588 68.0127 55.7588L65.7588 55.7588L65.7588 32.8701C65.7588 30.0308 63.876 28.5957 61.4439 28.5957C58.6919 28.5957 57.3984 30.0659 56.2246 32.5181L46.292 53.2949C45.6284 54.8208 45.3657 55.8784 45.3657 57.1045C45.3657 59.0396 46.7232 60.3784 48.7036 60.3784L60.3525 60.3784L60.3525 66.4722C60.3525 68.4849 61.7691 69.273 63.0708 69.273ZM60.4536 55.8599L50.2666 55.8599L50.2666 55.5938L60.2583 33.8701L60.4536 33.8701Z" fill="#000000" fill-opacity="0.85"/>
 </g>
</svg>
