<?xml version="1.0" encoding="UTF-8"?>
<!--Generator: Apple Native CoreSVG 232.5-->
<!DOCTYPE svg
PUBLIC "-//W3C//DTD SVG 1.1//EN"
       "http://www.w3.org/Graphics/SVG/1.1/DTD/svg11.dtd">
<svg version="1.1" xmlns="http://www.w3.org/2000/svg" xmlns:xlink="http://www.w3.org/1999/xlink" width="88.4092" height="88.5371">
 <g>
  <rect height="88.5371" opacity="0" width="88.4092" x="0" y="0"/>
  <path d="M14.3936 88.5371L74.0005 88.5371C83.5733 88.5371 88.4092 83.6558 88.4092 74.2632L88.4092 14.4019C88.4092 5.00928 83.5733 0.127929 74.0005 0.127929L14.3936 0.127929C4.86963 0.127929 0 4.93018 0 14.4019L0 74.2632C0 83.7349 4.86963 88.5371 14.3936 88.5371ZM14.5064 82.4922C9.00294 82.4922 6.04494 79.6016 6.04494 73.9634L6.04494 14.7017C6.04494 9.06349 9.00294 6.17287 14.5064 6.17287L73.9028 6.17287C79.2969 6.17287 82.3643 9.06349 82.3643 14.7017L82.3643 73.9634C82.3643 79.6016 79.2969 82.4922 73.9028 82.4922Z" fill="#000000" fill-opacity="0.85"/>
  <path d="M30.6221 64.4775C32.1328 64.4775 33.4263 63.1841 33.4263 61.6245L33.4263 27.0962C33.4263 25.166 32.1665 23.9585 30.1875 23.9585C28.5454 23.9585 27.2183 24.8545 26.2768 25.5972L20.3608 30.3076C19.6484 30.8701 19.1465 31.5859 19.1465 32.5982C19.1465 33.8242 19.96 34.7168 21.1826 34.7168C21.8276 34.7168 22.21 34.5181 22.6226 34.2368L27.7353 30.1089L27.7353 61.6245C27.7353 63.1841 29.0288 64.4775 30.6221 64.4775ZM58.3799 64.5449C59.8233 64.5449 61.0342 63.543 61.0342 61.7441L61.0342 55.6504L63.2881 55.6504C64.8291 55.6504 65.5718 54.6719 65.5718 53.2993C65.5718 52.0093 64.8174 51.0308 63.2881 51.0308L61.0342 51.0308L61.0342 28.1421C61.0342 25.3027 59.1514 23.8677 56.7192 23.8677C53.9824 23.8677 52.6738 25.3379 51.5488 27.7901L41.5825 48.5669C40.9038 50.0928 40.6411 51.1504 40.6411 52.3765C40.6411 54.3115 41.9985 55.6504 43.9942 55.6504L55.6431 55.6504L55.6431 61.7441C55.6431 63.7568 57.0596 64.5449 58.3799 64.5449ZM55.729 51.1318L45.542 51.1318L45.542 50.8657L55.5337 29.1421L55.729 29.1421Z" fill="#000000" fill-opacity="0.85"/>
 </g>
</svg>
