<?xml version="1.0" encoding="UTF-8"?>
<!--Generator: Apple Native CoreSVG 232.5-->
<!DOCTYPE svg
PUBLIC "-//W3C//DTD SVG 1.1//EN"
       "http://www.w3.org/Graphics/SVG/1.1/DTD/svg11.dtd">
<svg version="1.1" xmlns="http://www.w3.org/2000/svg" xmlns:xlink="http://www.w3.org/1999/xlink" width="97.9595" height="97.9932">
 <g>
  <rect height="97.9932" opacity="0" width="97.9595" x="0" y="0"/>
  <path d="M48.9722 97.9443C75.8247 97.9443 97.9595 75.7759 97.9595 48.9722C97.9595 22.1348 75.791 0 48.9385 0C22.1348 0 0 22.1348 0 48.9722C0 75.7759 22.1685 97.9443 48.9722 97.9443ZM48.9722 91.6113C25.3501 91.6113 6.36671 72.5942 6.36671 48.9722C6.36671 25.3501 25.3164 6.31789 48.9385 6.31789C72.5605 6.31789 91.6265 25.3501 91.6265 48.9722C91.6265 72.5942 72.5942 91.6113 48.9722 91.6113Z" fill="#000000" fill-opacity="0.85"/>
  <path d="M36.2022 69.2056C37.7129 69.2056 39.0064 67.9121 39.0064 66.3525L39.0064 31.8242C39.0064 29.8941 37.7315 28.6865 35.8013 28.6865C34.144 28.6865 32.8169 29.5825 31.8569 30.3252L25.9409 35.0356C25.2622 35.5981 24.7451 36.314 24.7451 37.3262C24.7451 38.5523 25.5737 39.4448 26.7964 39.4448C27.4414 39.4448 27.79 39.2461 28.2363 38.9649L33.334 34.8369L33.334 66.3525C33.334 67.9121 34.6274 69.2056 36.2022 69.2056ZM58.082 69.6333C65.3628 69.6333 69.335 63.1763 69.335 55.7642C69.335 49.1016 66.1275 42.8281 59.8286 42.8281C57.0235 42.8281 54.2505 44.1314 52.9053 47.1602L52.7066 47.1602L53.6577 33.9478L65.5108 33.9478C66.8833 33.9478 67.7271 32.9878 67.7271 31.5816C67.7271 30.2578 66.8194 29.2305 65.5108 29.2305L52.2193 29.2305C50.0249 29.2305 49.0835 30.6484 48.9185 32.7637L48.001 47.0659C47.937 47.8286 47.9219 48.6856 47.9219 49.2295C47.9219 50.7671 48.7285 52.0791 50.5205 52.0791C51.7178 52.0791 52.3628 51.5117 53.1763 50.3599C54.375 48.4458 55.8682 47.0923 58.1089 47.0923C62.146 47.0923 63.8462 51.877 63.8462 55.9141C63.8462 60.3906 62.0972 64.98 58.0147 64.98C54.917 64.98 52.9761 62.5576 52.1729 59.5239C51.7232 58.1128 50.8457 57.5166 49.7544 57.5166C48.2808 57.5166 47.3696 58.458 47.3696 59.9165C47.3696 60.8125 47.6323 61.7656 47.9658 62.5606C49.4443 66.7578 53.5025 69.6333 58.082 69.6333Z" fill="#000000" fill-opacity="0.85"/>
 </g>
</svg>
