<?xml version="1.0" encoding="UTF-8"?>
<!--Generator: Apple Native CoreSVG 232.5-->
<!DOCTYPE svg
PUBLIC "-//W3C//DTD SVG 1.1//EN"
       "http://www.w3.org/Graphics/SVG/1.1/DTD/svg11.dtd">
<svg version="1.1" xmlns="http://www.w3.org/2000/svg" xmlns:xlink="http://www.w3.org/1999/xlink" width="97.9595" height="97.9932">
 <g>
  <rect height="97.9932" opacity="0" width="97.9595" x="0" y="0"/>
  <path d="M97.9595 48.9722C97.9595 75.7759 75.8247 97.9443 48.9722 97.9443C22.1685 97.9443 0 75.7759 0 48.9722C0 22.1348 22.1348 0 48.9385 0C75.791 0 97.9595 22.1348 97.9595 48.9722ZM52.3726 28.8076C50.1108 28.8076 49.1846 30.2593 48.9858 32.4419L48.0684 46.9985C48.0044 47.7949 47.9893 48.6519 47.9893 49.2295C47.9893 50.8008 48.8296 52.1465 50.6553 52.1465C51.8711 52.1465 52.5498 51.5791 53.4121 50.3936C54.5957 48.4458 56.1377 47.0923 58.4121 47.0923C62.5015 47.0923 64.2202 51.9443 64.2202 56.0488C64.2202 60.6265 62.4526 65.2681 58.3179 65.2681C55.1528 65.2681 53.2119 62.8272 52.3599 59.7109C51.9102 58.2661 50.999 57.6851 49.8892 57.6851C48.3818 57.6851 47.437 58.645 47.437 60.1524C47.437 61.0669 47.6997 62.0689 48.0332 62.8486C49.5454 67.147 53.6895 70.0562 58.3701 70.0562C65.8194 70.0562 69.8775 63.4644 69.8775 55.8989C69.8775 49.1016 66.6026 42.7085 60.1841 42.7085C57.3267 42.7085 54.4712 44.0303 53.126 47.0928L52.8936 47.0928L53.8784 33.6597L65.9522 33.6597C67.3584 33.6597 68.2359 32.6997 68.2359 31.2261C68.2359 29.8687 67.3096 28.8076 65.9522 28.8076ZM31.5015 29.936L25.4844 34.7476C24.8057 35.3101 24.27 36.0596 24.27 37.0903C24.27 38.3501 25.1172 39.2915 26.3735 39.2915C27.0522 39.2915 27.4346 39.0928 27.8472 38.7627L33.0459 34.5825L33.0459 66.6743C33.0459 68.3013 34.373 69.6284 35.9663 69.6284C37.5444 69.6284 38.8716 68.3013 38.8716 66.6743L38.8716 31.5025C38.8716 29.5049 37.5781 28.2637 35.5806 28.2637C33.8896 28.2637 32.4951 29.1934 31.5015 29.936Z" fill="#000000" fill-opacity="0.85"/>
 </g>
</svg>
