<?xml version="1.0" encoding="UTF-8"?>
<!--Generator: Apple Native CoreSVG 232.5-->
<!DOCTYPE svg
PUBLIC "-//W3C//DTD SVG 1.1//EN"
       "http://www.w3.org/Graphics/SVG/1.1/DTD/svg11.dtd">
<svg version="1.1" xmlns="http://www.w3.org/2000/svg" xmlns:xlink="http://www.w3.org/1999/xlink" width="97.9595" height="97.9932">
 <g>
  <rect height="97.9932" opacity="0" width="97.9595" x="0" y="0"/>
  <path d="M97.9595 48.9722C97.9595 75.7759 75.8247 97.9443 48.9722 97.9443C22.1685 97.9443 0 75.7759 0 48.9722C0 22.1348 22.1348 0 48.9385 0C75.791 0 97.9595 22.1348 97.9595 48.9722ZM46.1489 49.6118C46.1489 58.9668 49.0098 70.0562 58.6548 70.0562C65.9878 70.0562 70.0982 63.6411 70.0982 55.9883C70.0982 49.2315 66.857 42.8013 60.2432 42.8013C55.9634 42.8013 52.9175 45.8535 51.8364 50.2564L51.6411 50.2564C51.6411 50.0308 51.6411 49.8052 51.6411 49.6133C51.6411 43.5776 52.461 32.7588 58.6177 32.7588C61.3399 32.7588 63.0166 34.7183 63.9258 37.2417C64.458 38.5469 65.1924 39.2305 66.5767 39.2305C68.2222 39.2305 68.9312 38.1812 68.9312 36.8086C68.9312 36.332 68.8335 35.6821 68.6416 34.9868C67.5708 30.7017 63.5396 27.9707 58.7339 27.9707C48.855 27.9707 46.1489 39.9214 46.1489 49.6118ZM30.749 29.936L24.7319 34.7476C24.001 35.3101 23.4839 36.0596 23.4839 37.0903C23.4839 38.3501 24.3462 39.2915 25.5874 39.2915C26.2324 39.2915 26.6636 39.0928 27.061 38.7627L32.2261 34.5825L32.2261 66.6743C32.2261 68.3013 33.5869 69.6284 35.1953 69.6284C36.792 69.6284 38.1343 68.3013 38.1343 66.6743L38.1343 31.5025C38.1343 29.5049 36.8257 28.2637 34.7944 28.2637C33.085 28.2637 31.7241 29.1934 30.749 29.936ZM64.4712 56.2241C64.4712 60.3555 62.5874 65.2681 58.5874 65.2681C54.355 65.2681 52.4932 60.1231 52.4932 55.9346C52.4932 51.8789 54.5469 47.3047 58.5386 47.3047C62.707 47.3047 64.5386 52.044 64.4712 56.2241Z" fill="#000000" fill-opacity="0.85"/>
 </g>
</svg>
