<?xml version="1.0" encoding="UTF-8"?>
<!--Generator: Apple Native CoreSVG 232.5-->
<!DOCTYPE svg
PUBLIC "-//W3C//DTD SVG 1.1//EN"
       "http://www.w3.org/Graphics/SVG/1.1/DTD/svg11.dtd">
<svg version="1.1" xmlns="http://www.w3.org/2000/svg" xmlns:xlink="http://www.w3.org/1999/xlink" width="97.9595" height="97.9932">
 <g>
  <rect height="97.9932" opacity="0" width="97.9595" x="0" y="0"/>
  <path d="M48.9722 97.9443C75.8247 97.9443 97.9595 75.7759 97.9595 48.9722C97.9595 22.1348 75.791 0 48.9385 0C22.1348 0 0 22.1348 0 48.9722C0 75.7759 22.1685 97.9443 48.9722 97.9443ZM48.9722 91.6113C25.3501 91.6113 6.36671 72.5942 6.36671 48.9722C6.36671 25.3501 25.3164 6.31789 48.9385 6.31789C72.5605 6.31789 91.6265 25.3501 91.6265 48.9722C91.6265 72.5942 72.5942 91.6113 48.9722 91.6113Z" fill="#000000" fill-opacity="0.85"/>
  <path d="M35.416 69.2056C36.9605 69.2056 38.2539 67.9121 38.2539 66.3525L38.2539 31.8242C38.2539 29.8941 36.9941 28.6865 35.0151 28.6865C33.373 28.6865 32.0459 29.5825 31.1045 30.3252L25.1885 35.0356C24.4761 35.5981 23.9741 36.314 23.9741 37.3262C23.9741 38.5523 24.7876 39.4448 26.0103 39.4448C26.6553 39.4448 27.0376 39.2461 27.4502 38.9649L32.5478 34.8369L32.5478 66.3525C32.5478 67.9121 33.8564 69.2056 35.416 69.2056ZM58.3667 69.6333C65.5313 69.6333 69.5557 63.353 69.5557 55.8535C69.5557 49.2315 66.3819 42.936 59.8877 42.936C55.6602 42.936 52.6817 45.9209 51.6494 50.2564L51.4541 50.2564C51.4541 50.0308 51.4541 49.8052 51.4541 49.6133C51.4541 43.6787 52.2588 33.0469 58.3145 33.0469C60.9844 33.0469 62.6611 34.9727 63.5366 37.4624C64.084 38.749 64.7695 39.4326 66.1201 39.4326C67.6983 39.4326 68.4224 38.4019 68.4224 37.063C68.4224 36.5864 68.3096 35.9702 68.1328 35.2749C67.0469 31.0757 63.1167 28.3936 58.4307 28.3936C48.7539 28.3936 46.1152 40.1235 46.1152 49.6118C46.1152 58.7798 48.9238 69.6333 58.3667 69.6333ZM58.2993 64.98C54.1343 64.98 52.3062 59.936 52.3062 55.8149C52.3062 51.8115 54.3111 47.3047 58.2842 47.3047C62.3516 47.3047 64.1494 51.9429 64.082 56.0708C64.082 60.1348 62.2319 64.98 58.2993 64.98Z" fill="#000000" fill-opacity="0.85"/>
 </g>
</svg>
