<?xml version="1.0" encoding="UTF-8"?>
<!--Generator: Apple Native CoreSVG 232.5-->
<!DOCTYPE svg
PUBLIC "-//W3C//DTD SVG 1.1//EN"
       "http://www.w3.org/Graphics/SVG/1.1/DTD/svg11.dtd">
<svg version="1.1" xmlns="http://www.w3.org/2000/svg" xmlns:xlink="http://www.w3.org/1999/xlink" width="88.4092" height="88.5371">
 <g>
  <rect height="88.5371" opacity="0" width="88.4092" x="0" y="0"/>
  <path d="M88.4092 14.4019L88.4092 74.2632C88.4092 83.6558 83.5733 88.5371 74.0005 88.5371L14.3936 88.5371C4.86963 88.5371 0 83.7349 0 74.2632L0 14.4019C0 4.93018 4.86963 0.127929 14.3936 0.127929L74.0005 0.127929C83.5733 0.127929 88.4092 5.00928 88.4092 14.4019ZM41.4058 44.8838C41.4058 54.2388 44.2666 65.3281 53.9116 65.3281C61.2295 65.3281 65.355 58.9131 65.355 51.2603C65.355 44.5034 62.1138 38.0732 55.5 38.0732C51.2051 38.0732 48.1592 41.1255 47.0933 45.5283L46.898 45.5283C46.898 45.3027 46.898 45.0772 46.898 44.8853C46.898 38.8496 47.7027 28.0308 53.8594 28.0308C56.5967 28.0308 58.2583 29.9902 59.1826 32.5137C59.7149 33.8189 60.4492 34.5024 61.8672 34.5024C63.4639 34.5024 64.188 33.4531 64.188 32.0806C64.188 31.604 64.1089 30.9541 63.8985 30.2588C62.8125 25.9736 58.8301 23.2427 53.9756 23.2427C44.1118 23.2427 41.4058 35.1934 41.4058 44.8838ZM26.0059 25.208L19.9888 30.0195C19.2427 30.582 18.7407 31.3315 18.7407 32.3623C18.7407 33.6221 19.5879 34.5635 20.8442 34.5635C21.4893 34.5635 21.9053 34.3648 22.3179 34.0347L27.4829 29.8545L27.4829 61.9463C27.4829 63.5732 28.8437 64.9004 30.4707 64.9004C32.0488 64.9004 33.376 63.5732 33.376 61.9463L33.376 26.7744C33.376 24.7769 32.0825 23.5356 30.0513 23.5356C28.3267 23.5356 26.9658 24.4653 26.0059 25.208ZM59.7617 51.4961C59.7617 55.6274 57.8291 60.54 53.8443 60.54C49.6455 60.54 47.75 55.395 47.75 51.2066C47.75 47.1509 49.8223 42.5767 53.814 42.5767C57.9639 42.5767 59.814 47.3159 59.7617 51.4961Z" fill="#000000" fill-opacity="0.85"/>
 </g>
</svg>
