<?xml version="1.0" encoding="UTF-8"?>
<!--Generator: Apple Native CoreSVG 232.5-->
<!DOCTYPE svg
PUBLIC "-//W3C//DTD SVG 1.1//EN"
       "http://www.w3.org/Graphics/SVG/1.1/DTD/svg11.dtd">
<svg version="1.1" xmlns="http://www.w3.org/2000/svg" xmlns:xlink="http://www.w3.org/1999/xlink" width="88.4092" height="88.5371">
 <g>
  <rect height="88.5371" opacity="0" width="88.4092" x="0" y="0"/>
  <path d="M14.3936 88.5371L74.0005 88.5371C83.5733 88.5371 88.4092 83.6558 88.4092 74.2632L88.4092 14.4019C88.4092 5.00928 83.5733 0.127929 74.0005 0.127929L14.3936 0.127929C4.86963 0.127929 0 4.93018 0 14.4019L0 74.2632C0 83.7349 4.86963 88.5371 14.3936 88.5371ZM14.5064 82.4922C9.00294 82.4922 6.04494 79.6016 6.04494 73.9634L6.04494 14.7017C6.04494 9.06349 9.00294 6.17287 14.5064 6.17287L73.9028 6.17287C79.2969 6.17287 82.3643 9.06349 82.3643 14.7017L82.3643 73.9634C82.3643 79.6016 79.2969 82.4922 73.9028 82.4922Z" fill="#000000" fill-opacity="0.85"/>
  <path d="M30.7251 64.4775C32.251 64.4775 33.5444 63.1841 33.5444 61.6245L33.5444 27.0962C33.5444 25.166 32.2695 23.9585 30.3057 23.9585C28.6484 23.9585 27.3213 24.8545 26.395 25.5972L20.479 30.3076C19.7666 30.8701 19.2495 31.5859 19.2495 32.5982C19.2495 33.8242 20.0781 34.7168 21.3008 34.7168C21.9458 34.7168 22.3281 34.5181 22.7407 34.2368L27.8384 30.1089L27.8384 61.6245C27.8384 63.1841 29.1318 64.4775 30.7251 64.4775ZM53.6421 64.9053C60.8067 64.9053 64.8311 58.625 64.8311 51.1255C64.8311 44.5034 61.6572 38.208 55.1782 38.208C50.9507 38.208 47.9722 41.1929 46.9248 45.5283L46.7295 45.5283C46.7295 45.3027 46.7295 45.0772 46.7295 44.8853C46.7295 38.9507 47.5493 28.3189 53.605 28.3189C56.2749 28.3189 57.9365 30.2446 58.8272 32.7344C59.3594 34.021 60.0601 34.7046 61.4443 34.7046C62.9888 34.7046 63.6978 33.6738 63.6978 32.335C63.6978 31.8584 63.6338 31.2422 63.4082 30.5469C62.3374 26.3477 58.4409 23.6655 53.7212 23.6655C44.0444 23.6655 41.4058 35.3955 41.4058 44.8838C41.4058 54.0518 44.1992 64.9053 53.6421 64.9053ZM53.5899 60.252C49.4434 60.252 47.5816 55.208 47.5816 51.0869C47.5816 47.0835 49.6353 42.5767 53.5596 42.5767C57.6421 42.5767 59.4736 47.2149 59.4063 51.3428C59.4063 55.4067 57.5073 60.252 53.5899 60.252Z" fill="#000000" fill-opacity="0.85"/>
 </g>
</svg>
