<?xml version="1.0" encoding="UTF-8"?>
<!--Generator: Apple Native CoreSVG 232.5-->
<!DOCTYPE svg
PUBLIC "-//W3C//DTD SVG 1.1//EN"
       "http://www.w3.org/Graphics/SVG/1.1/DTD/svg11.dtd">
<svg version="1.1" xmlns="http://www.w3.org/2000/svg" xmlns:xlink="http://www.w3.org/1999/xlink" width="97.9595" height="97.9932">
 <g>
  <rect height="97.9932" opacity="0" width="97.9595" x="0" y="0"/>
  <path d="M97.9595 48.9722C97.9595 75.7759 75.8247 97.9443 48.9722 97.9443C22.1685 97.9443 0 75.7759 0 48.9722C0 22.1348 22.1348 0 48.9385 0C75.791 0 97.9595 22.1348 97.9595 48.9722ZM50.5239 28.8076C49.0991 28.8076 48.1392 29.8501 48.1392 31.2261C48.1392 32.6358 49.0991 33.6631 50.5239 33.6631L64.2656 33.6631L64.2656 34.042L52.4785 64.7612C52.1299 65.6724 51.9834 66.2466 51.9834 67.2251C51.9834 68.4629 52.7901 69.7446 54.6528 69.7446C56.145 69.7446 56.8238 69.1182 57.3863 67.6108L69.3941 35.4634C69.8101 34.249 70.1402 33.21 70.1402 32.0327C70.1402 30.0977 68.6817 28.8076 66.7837 28.8076ZM33.5308 29.936L27.5137 34.7476C26.7676 35.3101 26.2842 36.0596 26.2842 37.0903C26.2842 38.3501 27.1465 39.2915 28.4028 39.2915C29.0142 39.2915 29.4302 39.0928 29.8276 38.7627L35.0415 34.5825L35.0415 66.6743C35.0415 68.3013 36.3687 69.6284 37.9956 69.6284C39.5737 69.6284 40.9009 68.3013 40.9009 66.6743L40.9009 31.5025C40.9009 29.5049 39.6074 28.2637 37.561 28.2637C35.8853 28.2637 34.5244 29.1934 33.5308 29.936Z" fill="#000000" fill-opacity="0.85"/>
 </g>
</svg>
