<?xml version="1.0" encoding="UTF-8"?>
<!--Generator: Apple Native CoreSVG 232.5-->
<!DOCTYPE svg
PUBLIC "-//W3C//DTD SVG 1.1//EN"
       "http://www.w3.org/Graphics/SVG/1.1/DTD/svg11.dtd">
<svg version="1.1" xmlns="http://www.w3.org/2000/svg" xmlns:xlink="http://www.w3.org/1999/xlink" width="97.9595" height="97.9932">
 <g>
  <rect height="97.9932" opacity="0" width="97.9595" x="0" y="0"/>
  <path d="M48.9722 97.9443C75.8247 97.9443 97.9595 75.7759 97.9595 48.9722C97.9595 22.1348 75.791 0 48.9385 0C22.1348 0 0 22.1348 0 48.9722C0 75.7759 22.1685 97.9443 48.9722 97.9443ZM48.9722 91.6113C25.3501 91.6113 6.36671 72.5942 6.36671 48.9722C6.36671 25.3501 25.3164 6.31789 48.9385 6.31789C72.5605 6.31789 91.6265 25.3501 91.6265 48.9722C91.6265 72.5942 72.5942 91.6113 48.9722 91.6113Z" fill="#000000" fill-opacity="0.85"/>
  <path d="M38.1826 69.2056C39.6934 69.2056 41.002 67.9121 41.002 66.3525L41.002 31.8242C41.002 29.8941 39.7271 28.6865 37.7632 28.6865C36.1396 28.6865 34.8125 29.5825 33.8525 30.3252L27.9214 35.0356C27.2241 35.5981 26.7407 36.314 26.7407 37.3262C26.7407 38.5523 27.5693 39.4448 28.792 39.4448C29.3882 39.4448 29.7856 39.2461 30.1831 38.9649L35.2959 34.8369L35.2959 66.3525C35.2959 67.9121 36.5894 69.2056 38.1826 69.2056ZM54.4507 69.3218C55.8906 69.3218 56.5694 68.6953 57.083 67.2554L68.8701 35.6992C69.3013 34.5034 69.6162 33.4981 69.6162 32.3545C69.6162 30.4868 68.2066 29.2305 66.3609 29.2305L50.4229 29.2305C49.0317 29.2305 48.1055 30.2241 48.1055 31.5816C48.1055 32.9238 49.0317 33.9326 50.4229 33.9326L63.9102 33.9326L63.9102 34.2964L52.3589 64.4731C51.9951 65.3506 51.8638 65.9248 51.8638 66.8696C51.8638 68.0737 52.6367 69.3218 54.4507 69.3218Z" fill="#000000" fill-opacity="0.85"/>
 </g>
</svg>
