<?xml version="1.0" encoding="UTF-8"?>
<!--Generator: Apple Native CoreSVG 232.5-->
<!DOCTYPE svg
PUBLIC "-//W3C//DTD SVG 1.1//EN"
       "http://www.w3.org/Graphics/SVG/1.1/DTD/svg11.dtd">
<svg version="1.1" xmlns="http://www.w3.org/2000/svg" xmlns:xlink="http://www.w3.org/1999/xlink" width="88.4092" height="88.5371">
 <g>
  <rect height="88.5371" opacity="0" width="88.4092" x="0" y="0"/>
  <path d="M88.4092 14.4019L88.4092 74.2632C88.4092 83.6558 83.5733 88.5371 74.0005 88.5371L14.3936 88.5371C4.86963 88.5371 0 83.7349 0 74.2632L0 14.4019C0 4.93018 4.86963 0.127929 14.3936 0.127929L74.0005 0.127929C83.5733 0.127929 88.4092 5.00928 88.4092 14.4019ZM45.7656 24.0796C44.3897 24.0796 43.3809 25.1221 43.3809 26.4981C43.3809 27.9077 44.3897 28.9351 45.7656 28.9351L59.5225 28.9351L59.5225 29.314L47.7354 60.0332C47.3716 60.9443 47.2402 61.5186 47.2402 62.4971C47.2402 63.7349 48.0469 65.0166 49.8945 65.0166C51.4356 65.0166 52.0806 64.3901 52.6616 62.8828L64.6509 30.7354C65.0669 29.521 65.3819 28.4819 65.3819 27.3047C65.3819 25.3696 63.9385 24.0796 62.0254 24.0796ZM28.7725 25.208L22.7554 30.0195C22.0581 30.582 21.541 31.3315 21.541 32.3623C21.541 33.6221 22.4033 34.5635 23.6445 34.5635C24.2896 34.5635 24.6719 34.3648 25.1182 34.0347L30.2832 29.8545L30.2832 61.9463C30.2832 63.5732 31.6104 64.9004 33.2524 64.9004C34.8154 64.9004 36.1426 63.5732 36.1426 61.9463L36.1426 26.7744C36.1426 24.7769 34.8491 23.5356 32.8516 23.5356C31.127 23.5356 29.7661 24.4653 28.7725 25.208Z" fill="#000000" fill-opacity="0.85"/>
 </g>
</svg>
