<?xml version="1.0" encoding="UTF-8"?>
<!--Generator: Apple Native CoreSVG 232.5-->
<!DOCTYPE svg
PUBLIC "-//W3C//DTD SVG 1.1//EN"
       "http://www.w3.org/Graphics/SVG/1.1/DTD/svg11.dtd">
<svg version="1.1" xmlns="http://www.w3.org/2000/svg" xmlns:xlink="http://www.w3.org/1999/xlink" width="97.9595" height="97.9932">
 <g>
  <rect height="97.9932" opacity="0" width="97.9595" x="0" y="0"/>
  <path d="M48.9722 97.9443C75.8247 97.9443 97.9595 75.7759 97.9595 48.9722C97.9595 22.1348 75.791 0 48.9385 0C22.1348 0 0 22.1348 0 48.9722C0 75.7759 22.1685 97.9443 48.9722 97.9443ZM48.9722 91.6113C25.3501 91.6113 6.36671 72.5942 6.36671 48.9722C6.36671 25.3501 25.3164 6.31789 48.9385 6.31789C72.5605 6.31789 91.6265 25.3501 91.6265 48.9722C91.6265 72.5942 72.5942 91.6113 48.9722 91.6113Z" fill="#000000" fill-opacity="0.85"/>
  <path d="M36.145 69.2056C37.6558 69.2056 38.9492 67.9121 38.9492 66.3525L38.9492 31.8242C38.9492 29.8941 37.6895 28.6865 35.7105 28.6865C34.102 28.6865 32.7598 29.5825 31.7998 30.3252L25.8838 35.0356C25.1714 35.5981 24.688 36.314 24.688 37.3262C24.688 38.5523 25.5166 39.4448 26.7393 39.4448C27.3843 39.4448 27.7329 39.2461 28.1455 38.9649L33.2432 34.8369L33.2432 66.3525C33.2432 67.9121 34.5518 69.2056 36.145 69.2056ZM58.6226 69.502C65.9473 69.502 70.667 64.6528 70.667 58.0391C70.667 52.9136 67.4946 48.8442 63.5278 47.9502L63.5278 47.834C66.9356 46.7026 69.5928 43.3775 69.5928 38.981C69.5928 32.9243 65.2686 28.4912 58.6226 28.4912C52.6924 28.4912 47.7837 32.4746 47.7837 38.9473C47.7837 43.6099 50.4663 46.7363 53.8823 47.834L53.8823 47.9502C49.7134 48.8779 46.6607 52.9321 46.6607 58.0391C46.6607 64.9326 51.645 69.502 58.6226 69.502ZM58.6714 45.9663C55.4102 45.9663 53.2237 43.0298 53.2237 39.4981C53.2237 35.8887 55.2959 32.8076 58.6714 32.8076C62.2993 32.8076 64.1006 36.0855 64.1006 39.4981C64.1006 43.1294 62.02 45.9663 58.6714 45.9663ZM58.6714 65.1519C54.668 65.1519 52.4863 61.6753 52.4863 57.6382C52.4863 53.6533 54.6831 50.3316 58.6714 50.3316C62.4258 50.3316 64.8262 53.3521 64.8262 57.6382C64.8262 61.6602 62.6748 65.1519 58.6714 65.1519Z" fill="#000000" fill-opacity="0.85"/>
 </g>
</svg>
