<?xml version="1.0" encoding="UTF-8"?>
<!--Generator: Apple Native CoreSVG 232.5-->
<!DOCTYPE svg
PUBLIC "-//W3C//DTD SVG 1.1//EN"
       "http://www.w3.org/Graphics/SVG/1.1/DTD/svg11.dtd">
<svg version="1.1" xmlns="http://www.w3.org/2000/svg" xmlns:xlink="http://www.w3.org/1999/xlink" width="88.4092" height="88.5371">
 <g>
  <rect height="88.5371" opacity="0" width="88.4092" x="0" y="0"/>
  <path d="M14.3936 88.5371L74.0005 88.5371C83.5733 88.5371 88.4092 83.6558 88.4092 74.2632L88.4092 14.4019C88.4092 5.00928 83.5733 0.127929 74.0005 0.127929L14.3936 0.127929C4.86963 0.127929 0 4.93018 0 14.4019L0 74.2632C0 83.7349 4.86963 88.5371 14.3936 88.5371ZM14.5064 82.4922C9.00294 82.4922 6.04494 79.6016 6.04494 73.9634L6.04494 14.7017C6.04494 9.06349 9.00294 6.17287 14.5064 6.17287L73.9028 6.17287C79.2969 6.17287 82.3643 9.06349 82.3643 14.7017L82.3643 73.9634C82.3643 79.6016 79.2969 82.4922 73.9028 82.4922Z" fill="#000000" fill-opacity="0.85"/>
  <path d="M31.4204 64.4775C32.9312 64.4775 34.2734 63.1841 34.2734 61.6245L34.2734 27.0962C34.2734 25.166 32.9648 23.9585 31.0347 23.9585C29.3774 23.9585 28.0503 24.8545 27.0903 25.5972L21.1743 30.3076C20.4956 30.8701 19.9785 31.5859 19.9785 32.5982C19.9785 33.8242 20.8071 34.7168 22.0298 34.7168C22.6748 34.7168 23.0571 34.5181 23.4546 34.2368L28.5674 30.1089L28.5674 61.6245C28.5674 63.1841 29.8608 64.4775 31.4204 64.4775ZM53.9317 64.7739C61.2378 64.7739 65.9424 59.9248 65.9424 53.311C65.9424 48.1856 62.77 44.1162 58.8184 43.2222L58.8184 43.106C62.2261 41.9746 64.8833 38.6494 64.8833 34.2529C64.8833 28.1963 60.5591 23.7632 53.9317 23.7632C47.9678 23.7632 43.0591 27.7466 43.0591 34.2192C43.0591 38.8818 45.7905 42.0083 49.1577 43.106L49.1577 43.2222C44.9888 44.1499 41.936 48.2041 41.936 53.311C41.936 60.2046 46.9356 64.7739 53.9317 64.7739ZM53.9619 41.2383C50.6856 41.2383 48.499 38.3018 48.499 34.77C48.499 31.1607 50.5864 28.0796 53.9619 28.0796C57.5747 28.0796 59.376 31.3574 59.376 34.77C59.376 38.4014 57.2954 41.2383 53.9619 41.2383ZM53.9619 60.4238C49.9585 60.4238 47.7769 56.9473 47.7769 52.9102C47.7769 48.9253 50.0073 45.6035 53.9619 45.6035C57.7012 45.6035 60.1167 48.624 60.1167 52.9102C60.1167 56.9321 57.9653 60.4238 53.9619 60.4238Z" fill="#000000" fill-opacity="0.85"/>
 </g>
</svg>
