<?xml version="1.0" encoding="UTF-8"?>
<!--Generator: Apple Native CoreSVG 232.5-->
<!DOCTYPE svg
PUBLIC "-//W3C//DTD SVG 1.1//EN"
       "http://www.w3.org/Graphics/SVG/1.1/DTD/svg11.dtd">
<svg version="1.1" xmlns="http://www.w3.org/2000/svg" xmlns:xlink="http://www.w3.org/1999/xlink" width="97.9595" height="97.9932">
 <g>
  <rect height="97.9932" opacity="0" width="97.9595" x="0" y="0"/>
  <path d="M48.9722 97.9443C75.8247 97.9443 97.9595 75.7759 97.9595 48.9722C97.9595 22.1348 75.791 0 48.9385 0C22.1348 0 0 22.1348 0 48.9722C0 75.7759 22.1685 97.9443 48.9722 97.9443ZM48.9722 91.6113C25.3501 91.6113 6.36671 72.5942 6.36671 48.9722C6.36671 25.3501 25.3164 6.31789 48.9385 6.31789C72.5605 6.31789 91.6265 25.3501 91.6265 48.9722C91.6265 72.5942 72.5942 91.6113 48.9722 91.6113Z" fill="#000000" fill-opacity="0.85"/>
  <path d="M36.0996 69.2056C37.644 69.2056 38.9375 67.9121 38.9375 66.3525L38.9375 31.8242C38.9375 29.8941 37.6777 28.6865 35.6987 28.6865C34.0566 28.6865 32.7295 29.5825 31.7881 30.3252L25.8721 35.0356C25.1597 35.5981 24.6577 36.314 24.6577 37.3262C24.6577 38.5523 25.4712 39.4448 26.6938 39.4448C27.3389 39.4448 27.7212 39.2461 28.1338 38.9649L33.2314 34.8369L33.2314 66.3525C33.2314 67.9121 34.54 69.2056 36.0996 69.2056ZM56.0762 55.0757C60.3189 55.0757 63.2974 52.106 64.3447 47.7705L64.54 47.7705C64.54 47.9961 64.54 48.2217 64.54 48.4136C64.54 54.3481 63.7202 64.9009 57.6006 64.9009C55.0283 64.9009 53.333 63.0542 52.4273 60.4399C51.8159 58.98 51.021 58.436 49.8438 58.436C48.2202 58.436 47.4927 59.5156 47.4927 60.8545C47.4927 61.395 47.6055 62.0112 47.7822 62.6426C48.917 66.9512 52.8623 69.5845 57.5484 69.5845C67.2251 69.5845 69.8789 58.0767 69.8789 48.415C69.8789 39.2471 67.0703 28.3633 57.6275 28.3633C50.5083 28.3633 46.4385 34.6738 46.4385 42.1885C46.4385 48.7954 49.6123 55.0757 56.0762 55.0757ZM57.6948 50.6582C53.6275 50.6582 51.8784 46.084 51.8784 42.0015C51.8784 37.8247 53.7622 32.9981 57.6948 32.9981C61.8599 32.9981 63.688 37.8701 63.688 42.0015C63.688 46.2153 61.668 50.6582 57.6948 50.6582Z" fill="#000000" fill-opacity="0.85"/>
 </g>
</svg>
