<?xml version="1.0" encoding="UTF-8"?>
<!--Generator: Apple Native CoreSVG 232.5-->
<!DOCTYPE svg
PUBLIC "-//W3C//DTD SVG 1.1//EN"
       "http://www.w3.org/Graphics/SVG/1.1/DTD/svg11.dtd">
<svg version="1.1" xmlns="http://www.w3.org/2000/svg" xmlns:xlink="http://www.w3.org/1999/xlink" width="97.9595" height="97.9932">
 <g>
  <rect height="97.9932" opacity="0" width="97.9595" x="0" y="0"/>
  <path d="M48.9722 97.9443C75.8247 97.9443 97.9595 75.7759 97.9595 48.9722C97.9595 22.1348 75.791 0 48.9385 0C22.1348 0 0 22.1348 0 48.9722C0 75.7759 22.1685 97.9443 48.9722 97.9443ZM48.9722 91.6113C25.3501 91.6113 6.36671 72.5942 6.36671 48.9722C6.36671 25.3501 25.3164 6.31789 48.9385 6.31789C72.5605 6.31789 91.6265 25.3501 91.6265 48.9722C91.6265 72.5942 72.5942 91.6113 48.9722 91.6113Z" fill="#000000" fill-opacity="0.85"/>
  <path d="M38.0059 70.8794L62.9673 70.8794C64.478 70.8794 65.5425 69.8857 65.5425 68.3564C65.5425 66.7446 64.478 65.8149 62.9673 65.8149L43.6011 65.8149L43.6011 65.5034L56.2817 51.7725C60.8511 46.7857 63.4697 43.0796 63.4697 38.1138C63.4697 30.8887 57.8457 26.1084 49.2817 26.1084C42.4087 26.1084 36.4111 30.2622 35.0874 35.8369C34.9375 36.4937 34.8887 37.0039 34.8887 37.563C34.8887 39.104 35.9009 40.0977 37.4268 40.0977C38.8482 40.0977 39.5757 39.2354 40.1821 38.0649C41.1489 34.3599 44.3423 31.0532 49.5024 31.0532C54.6406 31.0532 57.9741 33.981 57.9741 38.4878C57.9741 42.0371 55.5102 45.0459 52.3418 48.4365L36.2173 65.9414C35.5386 66.7026 35.2051 67.4522 35.2051 68.2959C35.2051 69.8857 36.2661 70.8794 38.0059 70.8794Z" fill="#000000" fill-opacity="0.85"/>
 </g>
</svg>
