<?xml version="1.0" encoding="UTF-8"?>
<!--Generator: Apple Native CoreSVG 232.5-->
<!DOCTYPE svg
PUBLIC "-//W3C//DTD SVG 1.1//EN"
       "http://www.w3.org/Graphics/SVG/1.1/DTD/svg11.dtd">
<svg version="1.1" xmlns="http://www.w3.org/2000/svg" xmlns:xlink="http://www.w3.org/1999/xlink" width="97.9595" height="97.9932">
 <g>
  <rect height="97.9932" opacity="0" width="97.9595" x="0" y="0"/>
  <path d="M97.9595 48.9722C97.9595 75.7759 75.8247 97.9443 48.9722 97.9443C22.1685 97.9443 0 75.7759 0 48.9722C0 22.1348 22.1348 0 48.9385 0C75.791 0 97.9595 22.1348 97.9595 48.9722ZM34.833 35.5488C34.6494 36.2241 34.6006 36.7495 34.6006 37.3423C34.6006 38.917 35.6465 39.9443 37.2398 39.9443C38.6948 39.9443 39.4561 39.0483 40.0625 37.8442C41.0479 34.1055 44.3086 30.7315 49.5361 30.7315C54.7603 30.7315 58.1763 33.7266 58.1763 38.2857C58.1763 41.9175 55.6299 44.9785 52.394 48.4365L35.9629 66.2632C35.2842 67.0581 34.917 67.8413 34.917 68.6851C34.917 70.3272 36.0117 71.3696 37.8189 71.3696L63.2891 71.3696C64.8672 71.3696 65.9653 70.3272 65.9653 68.7456C65.9653 67.1001 64.8672 66.1367 63.2891 66.1367L43.6011 66.1367L43.6011 65.8252L56.4839 51.8399C61.1543 46.7857 63.8252 42.9785 63.8252 37.8931C63.8252 30.5332 58.0664 25.6182 49.3003 25.6182C42.3076 25.6182 36.1904 29.873 34.833 35.5488Z" fill="#000000" fill-opacity="0.85"/>
 </g>
</svg>
