<?xml version="1.0" encoding="UTF-8"?>
<!--Generator: Apple Native CoreSVG 232.5-->
<!DOCTYPE svg
PUBLIC "-//W3C//DTD SVG 1.1//EN"
       "http://www.w3.org/Graphics/SVG/1.1/DTD/svg11.dtd">
<svg version="1.1" xmlns="http://www.w3.org/2000/svg" xmlns:xlink="http://www.w3.org/1999/xlink" width="97.9595" height="97.9932">
 <g>
  <rect height="97.9932" opacity="0" width="97.9595" x="0" y="0"/>
  <path d="M48.9722 97.9443C75.8247 97.9443 97.9595 75.7759 97.9595 48.9722C97.9595 22.1348 75.791 0 48.9385 0C22.1348 0 0 22.1348 0 48.9722C0 75.7759 22.1685 97.9443 48.9722 97.9443ZM48.9722 91.6113C25.3501 91.6113 6.36671 72.5942 6.36671 48.9722C6.36671 25.3501 25.3164 6.31789 48.9385 6.31789C72.5605 6.31789 91.6265 25.3501 91.6265 48.9722C91.6265 72.5942 72.5942 91.6113 48.9722 91.6113Z" fill="#000000" fill-opacity="0.85"/>
  <path d="M29.9995 68.6987L46.8672 68.6987C48.2432 68.6987 49.1509 67.7725 49.1509 66.3965C49.1509 64.9194 48.2246 64.0454 46.8672 64.0454L34.3867 64.0454L34.3867 63.7305L42.3633 53.1079C46.8374 47.3257 48.3428 43.7275 48.3428 39.5215C48.3428 33.1416 44.3198 28.2959 37.7935 28.2959C31.7705 28.2959 27.4126 33.502 27.4126 38.6255C27.4126 40.0083 28.2446 41.1113 29.7974 41.1113C31.0908 41.1113 31.9009 40.4697 32.2529 39.1914C33.0747 35.4356 34.5527 32.9307 37.79 32.9307C41.3286 32.9307 43.0459 36.1694 43.0459 39.7876C43.0459 43.5879 40.8447 47.2705 38.0601 50.9844L28.7163 63.3227C27.9854 64.2827 27.3638 65.2461 27.3638 66.4116C27.3638 67.7842 28.2866 68.6987 29.9995 68.6987ZM65.0054 69.2056C66.5498 69.2056 67.8433 67.9121 67.8433 66.3525L67.8433 31.8242C67.8433 29.8941 66.5835 28.6865 64.6045 28.6865C62.9473 28.6865 61.6201 29.5825 60.6602 30.3252L54.7441 35.0356C54.0654 35.5981 53.5483 36.314 53.5483 37.3262C53.5483 38.5523 54.377 39.4448 55.5996 39.4448C56.2446 39.4448 56.627 39.2461 57.0396 38.9649L62.1372 34.8369L62.1372 66.3525C62.1372 67.9121 63.4307 69.2056 65.0054 69.2056Z" fill="#000000" fill-opacity="0.85"/>
 </g>
</svg>
