<?xml version="1.0" encoding="UTF-8"?>
<!--Generator: Apple Native CoreSVG 232.5-->
<!DOCTYPE svg
PUBLIC "-//W3C//DTD SVG 1.1//EN"
       "http://www.w3.org/Graphics/SVG/1.1/DTD/svg11.dtd">
<svg version="1.1" xmlns="http://www.w3.org/2000/svg" xmlns:xlink="http://www.w3.org/1999/xlink" width="97.9595" height="97.9932">
 <g>
  <rect height="97.9932" opacity="0" width="97.9595" x="0" y="0"/>
  <path d="M97.9595 48.9722C97.9595 75.7759 75.8247 97.9443 48.9722 97.9443C22.1685 97.9443 0 75.7759 0 48.9722C0 22.1348 22.1348 0 48.9385 0C75.791 0 97.9595 22.1348 97.9595 48.9722ZM24.1763 38.4385C24.1763 39.855 25.0571 40.9766 26.6284 40.9766C27.9556 40.9766 28.7993 40.3164 29.2036 39.0044C30.0068 35.166 31.5186 32.6426 34.8232 32.6426C38.3804 32.6426 40.165 35.8999 40.165 39.6191C40.165 43.502 37.8779 47.2705 35.0259 51.0518L25.5288 63.5771C24.8164 64.5859 24.1274 65.5679 24.1274 66.7671C24.1274 68.1733 25.084 69.1216 26.8794 69.1216L44.0537 69.1216C45.5308 69.1216 46.4048 68.1616 46.4048 66.752C46.4048 65.2412 45.4971 64.3335 44.0537 64.3335L31.3374 64.3335L31.3374 63.9849L39.4976 53.2275C44.0576 47.292 45.5967 43.6416 45.5967 39.3193C45.5967 32.8047 41.4878 27.8882 34.793 27.8882C28.6353 27.8882 24.1763 33.1802 24.1763 38.4385ZM51.9053 38.4385C51.9053 39.855 52.7036 40.9766 54.3086 40.9766C55.6358 40.9766 56.5132 40.3164 56.8653 39.0044C57.7207 35.166 59.1651 32.6426 62.5034 32.6426C66.0269 32.6426 67.8115 35.8999 67.8115 39.6191C67.8115 43.502 65.5244 47.2705 62.7061 51.0518L53.209 63.5771C52.4629 64.5859 51.8076 65.5679 51.8076 66.7671C51.8076 68.1733 52.7305 69.1216 54.5596 69.1216L71.7676 69.1216C73.1924 69.1216 74.085 68.1616 74.085 66.752C74.085 65.2412 73.1587 64.3335 71.7676 64.3335L59.0176 64.3335L59.0176 63.9849L67.1441 53.2275C71.7193 47.292 73.2583 43.6416 73.2583 39.3193C73.2583 32.8047 69.1343 27.8882 62.4732 27.8882C56.3491 27.8882 51.9053 33.1802 51.9053 38.4385Z" fill="#000000" fill-opacity="0.85"/>
 </g>
</svg>
