<?xml version="1.0" encoding="UTF-8"?>
<!--Generator: Apple Native CoreSVG 232.5-->
<!DOCTYPE svg
PUBLIC "-//W3C//DTD SVG 1.1//EN"
       "http://www.w3.org/Graphics/SVG/1.1/DTD/svg11.dtd">
<svg version="1.1" xmlns="http://www.w3.org/2000/svg" xmlns:xlink="http://www.w3.org/1999/xlink" width="88.4092" height="88.5371">
 <g>
  <rect height="88.5371" opacity="0" width="88.4092" x="0" y="0"/>
  <path d="M14.3936 88.5371L74.0005 88.5371C83.5733 88.5371 88.4092 83.6558 88.4092 74.2632L88.4092 14.4019C88.4092 5.00928 83.5733 0.127929 74.0005 0.127929L14.3936 0.127929C4.86963 0.127929 0 4.93018 0 14.4019L0 74.2632C0 83.7349 4.86963 88.5371 14.3936 88.5371ZM14.5064 82.4922C9.00294 82.4922 6.04494 79.6016 6.04494 73.9634L6.04494 14.7017C6.04494 9.06349 9.00294 6.17287 14.5064 6.17287L73.9028 6.17287C79.2969 6.17287 82.3643 9.06349 82.3643 14.7017L82.3643 73.9634C82.3643 79.6016 79.2969 82.4922 73.9028 82.4922Z" fill="#000000" fill-opacity="0.85"/>
  <path d="M22.6113 63.9707L39.4639 63.9707C40.855 63.9707 41.7139 63.0444 41.7139 61.6685C41.7139 60.1914 40.8213 59.3174 39.4639 59.3174L26.9497 59.3174L26.9497 59.0024L34.9414 48.3799C39.4155 42.5977 40.9209 38.9995 40.9209 34.7935C40.9209 28.4136 36.898 23.5679 30.3716 23.5679C24.3335 23.5679 19.9756 28.7739 19.9756 33.8975C19.9756 35.2803 20.8228 36.3833 22.3604 36.3833C23.6538 36.3833 24.4639 35.7417 24.8496 34.4634C25.6714 30.7075 27.1157 28.2026 30.3867 28.2026C33.8916 28.2026 35.6426 31.4414 35.6426 35.0596C35.6426 38.8599 33.4077 42.5425 30.623 46.2564L21.2944 58.5947C20.582 59.5547 19.9268 60.5181 19.9268 61.6836C19.9268 63.0562 20.8496 63.9707 22.6113 63.9707ZM49.6817 63.9707L66.5342 63.9707C67.9253 63.9707 68.8179 63.0444 68.8179 61.6685C68.8179 60.1914 67.8916 59.3174 66.5342 59.3174L54.02 59.3174L54.02 59.0024L62.0117 48.3799C66.5195 42.5977 67.9912 38.9995 67.9912 34.7935C67.9912 28.4136 64.002 23.5679 57.4756 23.5679C51.4375 23.5679 47.0796 28.7739 47.0796 33.8975C47.0796 35.2803 47.8931 36.3833 49.4307 36.3833C50.7241 36.3833 51.5679 35.7417 51.9199 34.4634C52.7417 30.7075 54.2197 28.2026 57.457 28.2026C60.9619 28.2026 62.7129 31.4414 62.7129 35.0596C62.7129 38.8599 60.478 42.5425 57.6934 46.2564L48.3984 58.5947C47.6524 59.5547 46.9971 60.5181 46.9971 61.6836C46.9971 63.0562 47.9199 63.9707 49.6817 63.9707Z" fill="#000000" fill-opacity="0.85"/>
 </g>
</svg>
