<?xml version="1.0" encoding="UTF-8"?>
<!--Generator: Apple Native CoreSVG 232.5-->
<!DOCTYPE svg
PUBLIC "-//W3C//DTD SVG 1.1//EN"
       "http://www.w3.org/Graphics/SVG/1.1/DTD/svg11.dtd">
<svg version="1.1" xmlns="http://www.w3.org/2000/svg" xmlns:xlink="http://www.w3.org/1999/xlink" width="97.9595" height="97.9932">
 <g>
  <rect height="97.9932" opacity="0" width="97.9595" x="0" y="0"/>
  <path d="M48.9722 97.9443C75.8247 97.9443 97.9595 75.7759 97.9595 48.9722C97.9595 22.1348 75.791 0 48.9385 0C22.1348 0 0 22.1348 0 48.9722C0 75.7759 22.1685 97.9443 48.9722 97.9443ZM48.9722 91.6113C25.3501 91.6113 6.36671 72.5942 6.36671 48.9722C6.36671 25.3501 25.3164 6.31789 48.9385 6.31789C72.5605 6.31789 91.6265 25.3501 91.6265 48.9722C91.6265 72.5942 72.5942 91.6113 48.9722 91.6113Z" fill="#000000" fill-opacity="0.85"/>
  <path d="M26.8623 68.6987L43.7148 68.6987C45.1397 68.6987 45.9985 67.7725 45.9985 66.3965C45.9985 64.9194 45.106 64.0454 43.7148 64.0454L31.2344 64.0454L31.2344 63.7305L39.2261 53.1079C43.7002 47.3257 45.2056 43.7275 45.2056 39.5215C45.2056 33.1416 41.1826 28.2959 34.6563 28.2959C28.6182 28.2959 24.2602 33.502 24.2602 38.6255C24.2602 40.0083 25.1074 41.1113 26.645 41.1113C27.9385 41.1113 28.7485 40.4697 29.1343 39.1914C29.9224 35.4356 31.4004 32.9307 34.6377 32.9307C38.1763 32.9307 39.9272 36.1694 39.9272 39.7876C39.9272 43.5879 37.6924 47.2705 34.9077 50.9844L25.5791 63.3227C24.8667 64.2827 24.2114 65.2461 24.2114 66.4116C24.2114 67.7842 25.1343 68.6987 26.8623 68.6987ZM62.8496 69.502C69.5176 69.502 74.5557 65.0772 74.5557 57.8589C74.5557 52.1069 71.2905 48.75 66.8374 48.3106L66.8374 48.1641C71.2808 47.0073 73.3989 43.0068 73.3989 38.875C73.3989 32.4395 68.8237 28.4761 62.688 28.4761C57.7007 28.4761 53.8242 31.3232 52.4385 35.6538C52.1641 36.627 52.0815 37.4907 52.0815 38.2149C52.0815 39.5537 52.9102 40.5811 54.4697 40.5811C55.8877 40.5811 56.5918 39.9766 56.9893 38.5249C57.71 35.3716 59.4507 33.0806 62.688 33.0806C66.2739 33.0806 68.0752 35.9038 68.0752 39.5049C68.0752 43.3721 65.7856 46.293 61.8359 46.293L60.3345 46.293C58.9468 46.293 58.1299 47.1821 58.1299 48.4605C58.1299 49.7539 59.0073 50.5606 60.3345 50.5606L61.9336 50.5606C66.417 50.5606 68.9995 53.0523 68.9995 57.7847C68.9995 61.5474 66.9961 64.8672 62.8984 64.8672C58.9556 64.8672 57.0112 62.0659 56.4556 59.4111C56.0884 58.0606 55.3052 57.3516 53.9546 57.3516C52.4439 57.3516 51.398 58.3115 51.398 59.8374C51.398 60.6406 51.5596 61.5952 51.8037 62.3613C53.1895 66.8115 57.6856 69.502 62.8496 69.502Z" fill="#000000" fill-opacity="0.85"/>
 </g>
</svg>
