<?xml version="1.0" encoding="UTF-8"?>
<!--Generator: Apple Native CoreSVG 232.5-->
<!DOCTYPE svg
PUBLIC "-//W3C//DTD SVG 1.1//EN"
       "http://www.w3.org/Graphics/SVG/1.1/DTD/svg11.dtd">
<svg version="1.1" xmlns="http://www.w3.org/2000/svg" xmlns:xlink="http://www.w3.org/1999/xlink" width="97.9595" height="97.9932">
 <g>
  <rect height="97.9932" opacity="0" width="97.9595" x="0" y="0"/>
  <path d="M97.9595 48.9722C97.9595 75.7759 75.8247 97.9443 48.9722 97.9443C22.1685 97.9443 0 75.7759 0 48.9722C0 22.1348 22.1348 0 48.9385 0C75.791 0 97.9595 22.1348 97.9595 48.9722ZM52.5396 35.3506C52.2651 36.3574 52.1826 37.27 52.1826 37.9941C52.1826 39.3667 53.0112 40.4277 54.6382 40.4277C56.0747 40.4277 56.8276 39.8081 57.21 38.3379C57.9644 35.1172 59.7051 32.7925 63.0098 32.7925C66.6631 32.7925 68.4981 35.6494 68.4981 39.3027C68.4981 43.2524 66.1748 46.2256 62.124 46.2256L60.6226 46.2256C59.2012 46.2256 58.3506 47.1484 58.3506 48.4605C58.3506 49.7876 59.2617 50.6279 60.6226 50.6279L62.2217 50.6279C66.8062 50.6279 69.4224 53.1382 69.4224 57.9717C69.4224 61.8018 67.3853 65.1553 63.2202 65.1553C59.21 65.1553 57.2319 62.3203 56.6763 59.6318C56.2754 58.229 55.4922 57.5049 54.1079 57.5049C52.5449 57.5049 51.4653 58.4985 51.4653 60.0733C51.4653 60.895 51.627 61.8496 51.8711 62.6646C53.2754 67.1856 57.9063 69.9248 63.1714 69.9248C70.0078 69.9248 75.1319 65.4326 75.1319 58.061C75.1319 52.1743 71.8145 48.75 67.2603 48.3106L67.2603 48.1641C71.7896 46.9888 73.9751 42.8721 73.9751 38.688C73.9751 32.084 69.2803 28.0532 63.0098 28.0532C57.9214 28.0532 53.9439 30.9678 52.5396 35.3506ZM23.7515 38.4048C23.7515 39.855 24.5835 40.9766 26.1885 40.9766C27.5156 40.9766 28.3745 40.3164 28.7451 39.0044C29.5669 35.166 31.0449 32.6426 34.3496 32.6426C37.9556 32.6426 39.7402 35.8999 39.7402 39.6006C39.7402 43.502 37.438 47.2705 34.5859 51.0181L25.0889 63.5771C24.3579 64.5859 23.7026 65.5342 23.7026 66.7671C23.7026 68.1733 24.6103 69.1216 26.4058 69.1216L43.6289 69.1216C45.0723 69.1216 45.9648 68.1616 45.9648 66.752C45.9648 65.2075 45.0386 64.2998 43.6289 64.2998L30.9126 64.2998L30.9126 63.9849L39.0239 53.1939C43.5991 47.292 45.1719 43.6416 45.1719 39.3193C45.1719 32.8047 41.0142 27.8882 34.3682 27.8882C28.1953 27.8882 23.7515 33.1802 23.7515 38.4048Z" fill="#000000" fill-opacity="0.85"/>
 </g>
</svg>
