<?xml version="1.0" encoding="UTF-8"?>
<!--Generator: Apple Native CoreSVG 232.5-->
<!DOCTYPE svg
PUBLIC "-//W3C//DTD SVG 1.1//EN"
       "http://www.w3.org/Graphics/SVG/1.1/DTD/svg11.dtd">
<svg version="1.1" xmlns="http://www.w3.org/2000/svg" xmlns:xlink="http://www.w3.org/1999/xlink" width="88.4092" height="88.5371">
 <g>
  <rect height="88.5371" opacity="0" width="88.4092" x="0" y="0"/>
  <path d="M14.3936 88.5371L74.0005 88.5371C83.5733 88.5371 88.4092 83.6558 88.4092 74.2632L88.4092 14.4019C88.4092 5.00928 83.5733 0.127929 74.0005 0.127929L14.3936 0.127929C4.86963 0.127929 0 4.93018 0 14.4019L0 74.2632C0 83.7349 4.86963 88.5371 14.3936 88.5371ZM14.5064 82.4922C9.00294 82.4922 6.04494 79.6016 6.04494 73.9634L6.04494 14.7017C6.04494 9.06349 9.00294 6.17287 14.5064 6.17287L73.9028 6.17287C79.2969 6.17287 82.3643 9.06349 82.3643 14.7017L82.3643 73.9634C82.3643 79.6016 79.2969 82.4922 73.9028 82.4922Z" fill="#000000" fill-opacity="0.85"/>
  <path d="M22.1377 63.9707L39.0391 63.9707C40.415 63.9707 41.2891 63.0444 41.2891 61.6685C41.2891 60.1914 40.3814 59.3174 39.0391 59.3174L26.5098 59.3174L26.5098 59.0024L34.5015 48.3799C38.9756 42.5977 40.481 38.9995 40.481 34.7935C40.481 28.4136 36.458 23.5679 29.9316 23.5679C23.9087 23.5679 19.5508 28.7739 19.5508 33.8975C19.5508 35.2803 20.3828 36.3833 21.9204 36.3833C23.229 36.3833 24.0391 35.7417 24.4097 34.4634C25.2129 30.7075 26.6909 28.2026 29.9619 28.2026C33.4517 28.2026 35.2178 31.4414 35.2178 35.0596C35.2178 38.8599 32.9829 42.5425 30.1982 46.2564L20.8545 58.5947C20.1572 59.5547 19.5019 60.5181 19.5019 61.6836C19.5019 63.0562 20.4097 63.9707 22.1377 63.9707ZM58.125 64.7739C64.8081 64.7739 69.8311 60.3491 69.8311 53.1309C69.8311 47.3789 66.5811 44.022 62.1616 43.5825L62.1616 43.436C66.5562 42.2793 68.6743 38.2788 68.6743 34.147C68.6743 27.7114 64.1143 23.7481 57.9634 23.7481C52.9912 23.7481 49.0996 26.5952 47.7139 30.9258C47.4546 31.8989 47.3721 32.7627 47.3721 33.4868C47.3721 34.8257 48.2192 35.853 49.7603 35.853C51.1782 35.853 51.8823 35.2485 52.2647 33.7969C53.0005 30.6436 54.7412 28.3526 57.9634 28.3526C61.5645 28.3526 63.3657 31.1758 63.3657 34.7769C63.3657 38.644 61.0947 41.5649 57.1602 41.5649L55.625 41.5649C54.2222 41.5649 53.4053 42.4541 53.4053 43.7324C53.4053 45.0259 54.3164 45.8325 55.625 45.8325L57.209 45.8325C61.7075 45.8325 64.2749 48.3242 64.2749 53.0566C64.2749 56.8193 62.2866 60.1392 58.189 60.1392C54.2461 60.1392 52.2866 57.3379 51.731 54.6831C51.3975 53.3325 50.5806 52.6235 49.23 52.6235C47.7192 52.6235 46.7222 53.5835 46.7222 55.1094C46.7222 55.9126 46.8501 56.8672 47.1279 57.6333C48.4648 62.0835 52.9609 64.7739 58.125 64.7739Z" fill="#000000" fill-opacity="0.85"/>
 </g>
</svg>
