<?xml version="1.0" encoding="UTF-8"?>
<!--Generator: Apple Native CoreSVG 232.5-->
<!DOCTYPE svg
PUBLIC "-//W3C//DTD SVG 1.1//EN"
       "http://www.w3.org/Graphics/SVG/1.1/DTD/svg11.dtd">
<svg version="1.1" xmlns="http://www.w3.org/2000/svg" xmlns:xlink="http://www.w3.org/1999/xlink" width="97.9595" height="97.9932">
 <g>
  <rect height="97.9932" opacity="0" width="97.9595" x="0" y="0"/>
  <path d="M48.9722 97.9443C75.8247 97.9443 97.9595 75.7759 97.9595 48.9722C97.9595 22.1348 75.791 0 48.9385 0C22.1348 0 0 22.1348 0 48.9722C0 75.7759 22.1685 97.9443 48.9722 97.9443ZM48.9722 91.6113C25.3501 91.6113 6.36671 72.5942 6.36671 48.9722C6.36671 25.3501 25.3164 6.31789 48.9385 6.31789C72.5605 6.31789 91.6265 25.3501 91.6265 48.9722C91.6265 72.5942 72.5942 91.6113 48.9722 91.6113Z" fill="#000000" fill-opacity="0.85"/>
  <path d="M26.2397 68.6987L43.0923 68.6987C44.5171 68.6987 45.376 67.7725 45.376 66.3965C45.376 64.9194 44.4834 64.0454 43.0923 64.0454L30.6118 64.0454L30.6118 63.7305L38.5884 53.1079C43.0625 47.3257 44.583 43.7275 44.583 39.5215C44.583 33.1416 40.5449 28.2959 34.0337 28.2959C27.9956 28.2959 23.6377 33.502 23.6377 38.6255C23.6377 40.0083 24.4697 41.1113 26.0225 41.1113C27.3159 41.1113 28.126 40.4697 28.478 39.1914C29.2998 35.4356 30.7778 32.9307 34.0151 32.9307C37.5537 32.9307 39.271 36.1694 39.271 39.7876C39.271 43.5879 37.0698 47.2705 34.2852 50.9844L24.9414 63.3227C24.2105 64.2827 23.5889 65.2461 23.5889 66.4116C23.5889 67.7842 24.5117 68.6987 26.2397 68.6987ZM62.064 69.6333C69.3784 69.6333 73.3018 63.1763 73.3018 55.7642C73.3018 49.1016 70.0943 42.8281 63.7954 42.8281C61.0054 42.8281 58.2324 44.1314 56.8872 47.1602L56.707 47.1602L57.6245 33.9478L69.4776 33.9478C70.8501 33.9478 71.7276 32.9878 71.7276 31.5816C71.7276 30.2578 70.8013 29.2305 69.4776 29.2305L56.186 29.2305C54.0254 29.2305 53.0654 30.6484 52.919 32.7637L51.9678 47.0659C51.919 47.8286 51.9038 48.6856 51.9038 49.2295C51.9038 50.7671 52.6953 52.0791 54.5025 52.0791C55.7183 52.0791 56.3296 51.5117 57.1582 50.3599C58.3418 48.4458 59.8501 47.0923 62.1245 47.0923C66.1279 47.0923 67.813 51.877 67.813 55.9141C67.813 60.3906 66.0791 64.98 61.9966 64.98C58.8989 64.98 56.958 62.5576 56.1397 59.5239C55.69 58.1128 54.8125 57.5166 53.7363 57.5166C52.2964 57.5166 51.3516 58.458 51.3516 59.9165C51.3516 60.8125 51.6143 61.7656 51.9478 62.5606C53.46 66.7578 57.4693 69.6333 62.064 69.6333Z" fill="#000000" fill-opacity="0.85"/>
 </g>
</svg>
