<?xml version="1.0" encoding="UTF-8"?>
<!--Generator: Apple Native CoreSVG 232.5-->
<!DOCTYPE svg
PUBLIC "-//W3C//DTD SVG 1.1//EN"
       "http://www.w3.org/Graphics/SVG/1.1/DTD/svg11.dtd">
<svg version="1.1" xmlns="http://www.w3.org/2000/svg" xmlns:xlink="http://www.w3.org/1999/xlink" width="97.9595" height="97.9932">
 <g>
  <rect height="97.9932" opacity="0" width="97.9595" x="0" y="0"/>
  <path d="M97.9595 48.9722C97.9595 75.7759 75.8247 97.9443 48.9722 97.9443C22.1685 97.9443 0 75.7759 0 48.9722C0 22.1348 22.1348 0 48.9385 0C75.791 0 97.9595 22.1348 97.9595 48.9722ZM56.4219 28.8076C54.1939 28.8076 53.1851 30.293 53.0537 32.4419L52.0689 46.9985C52.02 47.7949 51.9898 48.6519 51.9898 49.2295C51.9898 50.8008 52.8301 52.1465 54.6895 52.1465C55.9541 52.1465 56.5654 51.5791 57.4126 50.3936C58.6299 48.4458 60.1382 47.0923 62.4463 47.0923C66.5171 47.0923 68.2358 51.9443 68.2358 56.0488C68.2358 60.6265 66.4683 65.2681 62.3184 65.2681C59.187 65.2681 57.2124 62.8272 56.3755 59.7446C55.9258 58.2998 55.0147 57.6851 53.8897 57.6851C52.4312 57.6851 51.4526 58.645 51.4526 60.1524C51.4526 61.0669 51.7002 62.0689 52.0674 62.8486C53.6133 67.147 57.7388 70.0562 62.3858 70.0562C69.8687 70.0562 73.8779 63.4644 73.8779 55.8989C73.8779 49.1016 70.6182 42.7085 64.1846 42.7085C61.3272 42.7085 58.5205 44.0303 57.1416 47.1265L56.9766 47.1265L57.8941 33.6934L69.9678 33.6934C71.4077 33.6934 72.2852 32.6997 72.2852 31.2261C72.2852 29.8687 71.3438 28.8076 69.9678 28.8076ZM23.1289 38.4048C23.1289 39.855 23.9946 40.9429 25.5659 40.9429C26.8931 40.9429 27.7368 40.3164 28.0889 39.0044C28.9443 35.166 30.4561 32.6426 33.7271 32.6426C37.3179 32.6426 39.0688 35.8999 39.0688 39.6006C39.0688 43.502 36.8154 47.2705 33.9634 51.0181L24.4663 63.5771C23.6865 64.5522 23.0649 65.5342 23.0649 66.7671C23.0649 68.1733 24.0215 69.1216 25.7832 69.1216L42.9912 69.1216C44.4497 69.1216 45.3423 68.1616 45.3423 66.752C45.3423 65.2075 44.416 64.2998 42.9912 64.2998L30.29 64.2998L30.29 63.9849L38.4014 53.1939C42.9951 47.292 44.5493 43.6416 44.5493 39.3193C44.5493 32.8047 40.4253 27.8882 33.7305 27.8882C27.5728 27.8882 23.1289 33.1802 23.1289 38.4048Z" fill="#000000" fill-opacity="0.85"/>
 </g>
</svg>
