<?xml version="1.0" encoding="UTF-8"?>
<!--Generator: Apple Native CoreSVG 232.5-->
<!DOCTYPE svg
PUBLIC "-//W3C//DTD SVG 1.1//EN"
       "http://www.w3.org/Graphics/SVG/1.1/DTD/svg11.dtd">
<svg version="1.1" xmlns="http://www.w3.org/2000/svg" xmlns:xlink="http://www.w3.org/1999/xlink" width="88.4092" height="88.5371">
 <g>
  <rect height="88.5371" opacity="0" width="88.4092" x="0" y="0"/>
  <path d="M88.4092 14.4019L88.4092 74.2632C88.4092 83.6558 83.5733 88.5371 74.0005 88.5371L14.3936 88.5371C4.86963 88.5371 0 83.7349 0 74.2632L0 14.4019C0 4.93018 4.86963 0.127929 14.3936 0.127929L74.0005 0.127929C83.5733 0.127929 88.4092 5.00928 88.4092 14.4019ZM51.6636 24.0796C49.4356 24.0796 48.4419 25.5649 48.3106 27.7139L47.3594 42.2705C47.2617 43.0669 47.2466 43.9238 47.2466 44.5015C47.2466 46.0728 48.0869 47.4185 49.98 47.4185C51.1958 47.4185 51.8071 46.8511 52.6695 45.6655C53.8867 43.7178 55.395 42.3643 57.7031 42.3643C61.7739 42.3643 63.5264 47.2163 63.5264 51.3208C63.5264 55.8984 61.71 60.54 57.5752 60.54C54.4439 60.54 52.4693 58.0991 51.6172 55.0166C51.1675 53.5718 50.2564 52.957 49.1465 52.957C47.6729 52.957 46.728 53.917 46.728 55.4243C46.728 56.3389 46.957 57.3408 47.3242 58.1206C48.8701 62.419 52.9805 65.3281 57.6275 65.3281C65.1104 65.3281 69.1348 58.7363 69.1348 51.1709C69.1348 44.3735 65.8599 37.9805 59.4414 37.9805C56.6177 37.9805 53.7774 39.3023 52.3985 42.3984L52.2183 42.3984L53.1358 28.9653L65.2246 28.9653C66.6831 28.9653 67.5269 27.9717 67.5269 26.4981C67.5269 25.1406 66.6006 24.0796 65.2246 24.0796ZM18.3706 33.6768C18.3706 35.127 19.2363 36.2149 20.8228 36.2149C22.1499 36.2149 22.9937 35.5884 23.3643 34.2764C24.186 30.438 25.7129 27.9146 29.0024 27.9146C32.5747 27.9146 34.3594 31.1719 34.3594 34.8726C34.3594 38.7739 32.0723 42.5425 29.2051 46.29L19.708 58.8491C18.977 59.8242 18.3218 60.8062 18.3218 62.0391C18.3218 63.4453 19.2783 64.3936 21.0249 64.3936L38.2481 64.3936C39.6914 64.3936 40.5991 63.4336 40.5991 62.0239C40.5991 60.4795 39.6577 59.5718 38.2481 59.5718L25.5317 59.5718L25.5317 59.2568L33.6582 48.4658C38.252 42.564 39.791 38.9136 39.791 34.5913C39.791 28.0767 35.667 23.1602 28.9873 23.1602C22.8296 23.1602 18.3706 28.4522 18.3706 33.6768Z" fill="#000000" fill-opacity="0.85"/>
 </g>
</svg>
