<?xml version="1.0" encoding="UTF-8"?>
<!--Generator: Apple Native CoreSVG 232.5-->
<!DOCTYPE svg
PUBLIC "-//W3C//DTD SVG 1.1//EN"
       "http://www.w3.org/Graphics/SVG/1.1/DTD/svg11.dtd">
<svg version="1.1" xmlns="http://www.w3.org/2000/svg" xmlns:xlink="http://www.w3.org/1999/xlink" width="97.9595" height="97.9932">
 <g>
  <rect height="97.9932" opacity="0" width="97.9595" x="0" y="0"/>
  <path d="M97.9595 48.9722C97.9595 75.7759 75.8247 97.9443 48.9722 97.9443C22.1685 97.9443 0 75.7759 0 48.9722C0 22.1348 22.1348 0 48.9385 0C75.791 0 97.9595 22.1348 97.9595 48.9722ZM50.73 49.6118C50.73 58.9668 53.5908 70.0562 63.2695 70.0562C70.6362 70.0562 74.6792 63.6411 74.6792 55.9883C74.6792 49.2315 71.438 42.8013 64.8242 42.8013C60.5445 42.8013 57.4986 45.8535 56.4175 50.2564L56.2373 50.2564C56.2373 50.0308 56.2373 49.8052 56.2373 49.6133C56.2373 43.5776 57.042 32.7588 63.2324 32.7588C65.9209 32.7588 67.6314 34.7183 68.5068 37.2417C69.0728 38.5469 69.8071 39.2305 71.2251 39.2305C72.8032 39.2305 73.5459 38.1812 73.5459 36.8086C73.5459 36.332 73.482 35.6821 73.2564 34.9868C72.1519 30.7017 68.1543 27.9707 63.3823 27.9707C53.436 27.9707 50.73 39.9214 50.73 49.6118ZM23.043 38.4048C23.043 39.855 23.8901 40.9429 25.4951 40.9429C26.8223 40.9429 27.6997 40.3164 28.0366 39.0044C28.9072 35.166 30.3516 32.6426 33.6899 32.6426C37.2134 32.6426 38.998 35.8999 38.998 39.6006C38.998 43.502 36.7109 47.2705 33.8926 51.0181L24.3955 63.5771C23.6494 64.5522 22.9941 65.5342 22.9941 66.7671C22.9941 68.1733 23.917 69.1216 25.7461 69.1216L42.9541 69.1216C44.3638 69.1216 45.2715 68.1616 45.2715 66.752C45.2715 65.2075 44.3301 64.2998 42.9541 64.2998L30.2041 64.2998L30.2041 63.9849L38.3306 53.1939C42.8906 47.292 44.4297 43.6416 44.4297 39.3193C44.4297 32.8047 40.3208 27.8882 33.6597 27.8882C27.5356 27.8882 23.043 33.1802 23.043 38.4048ZM69.0859 56.2241C69.0859 60.3555 67.2022 65.2681 63.2022 65.2681C58.9697 65.2681 57.1079 60.1231 57.1079 55.9683C57.1079 51.8789 59.1953 47.3047 63.187 47.3047C67.3218 47.3047 69.1533 52.044 69.0859 56.2241Z" fill="#000000" fill-opacity="0.85"/>
 </g>
</svg>
