<?xml version="1.0" encoding="UTF-8"?>
<!--Generator: Apple Native CoreSVG 232.5-->
<!DOCTYPE svg
PUBLIC "-//W3C//DTD SVG 1.1//EN"
       "http://www.w3.org/Graphics/SVG/1.1/DTD/svg11.dtd">
<svg version="1.1" xmlns="http://www.w3.org/2000/svg" xmlns:xlink="http://www.w3.org/1999/xlink" width="97.9595" height="97.9932">
 <g>
  <rect height="97.9932" opacity="0" width="97.9595" x="0" y="0"/>
  <path d="M48.9722 97.9443C75.8247 97.9443 97.9595 75.7759 97.9595 48.9722C97.9595 22.1348 75.791 0 48.9385 0C22.1348 0 0 22.1348 0 48.9722C0 75.7759 22.1685 97.9443 48.9722 97.9443ZM48.9722 91.6113C25.3501 91.6113 6.36671 72.5942 6.36671 48.9722C6.36671 25.3501 25.3164 6.31789 48.9385 6.31789C72.5605 6.31789 91.6265 25.3501 91.6265 48.9722C91.6265 72.5942 72.5942 91.6113 48.9722 91.6113Z" fill="#000000" fill-opacity="0.85"/>
  <path d="M26.1875 68.6987L43.0552 68.6987C44.4312 68.6987 45.3052 67.7725 45.3052 66.3965C45.3052 64.9194 44.3975 64.0454 43.0552 64.0454L30.5259 64.0454L30.5259 63.7305L38.5176 53.1079C42.9917 47.3257 44.4971 43.7275 44.4971 39.5215C44.4971 33.1416 40.4741 28.2959 33.9478 28.2959C27.9248 28.2959 23.5669 33.502 23.5669 38.6255C23.5669 40.0083 24.3989 41.1113 25.9365 41.1113C27.2451 41.1113 28.0552 40.4697 28.4258 39.1914C29.2476 35.4356 30.707 32.9307 33.978 32.9307C37.4678 32.9307 39.2187 36.1694 39.2187 39.7876C39.2187 43.5879 36.999 47.2705 34.2144 50.9844L24.8706 63.3227C24.1582 64.2827 23.5029 65.2461 23.5029 66.4116C23.5029 67.7842 24.4258 68.6987 26.1875 68.6987ZM62.9141 69.6333C70.1123 69.6333 74.103 63.353 74.103 55.8535C74.103 49.2315 70.9292 42.936 64.4351 42.936C60.2227 42.936 57.229 45.9209 56.1968 50.2564L56.0015 50.2564C56.0015 50.0308 56.0015 49.8052 56.0015 49.6133C56.0015 43.6787 56.8213 33.0469 62.877 33.0469C65.5469 33.0469 67.2085 34.9727 68.0991 37.4624C68.6314 38.749 69.3657 39.4326 70.7012 39.4326C72.2456 39.4326 72.9697 38.4019 72.9697 37.063C72.9697 36.5864 72.8906 35.9702 72.7139 35.2749C71.5943 31.0757 67.7129 28.3936 63.0269 28.3936C53.3164 28.3936 50.6626 40.1235 50.6626 49.6118C50.6626 58.7798 53.4712 69.6333 62.9141 69.6333ZM62.8467 64.98C58.7153 64.98 56.8535 59.936 56.8535 55.8149C56.8535 51.8115 58.8921 47.3047 62.8316 47.3047C66.9141 47.3047 68.7305 51.9429 68.6631 56.0708C68.6631 60.1348 66.7793 64.98 62.8467 64.98Z" fill="#000000" fill-opacity="0.85"/>
 </g>
</svg>
