<?xml version="1.0" encoding="UTF-8"?>
<!--Generator: Apple Native CoreSVG 232.5-->
<!DOCTYPE svg
PUBLIC "-//W3C//DTD SVG 1.1//EN"
       "http://www.w3.org/Graphics/SVG/1.1/DTD/svg11.dtd">
<svg version="1.1" xmlns="http://www.w3.org/2000/svg" xmlns:xlink="http://www.w3.org/1999/xlink" width="97.9595" height="97.9932">
 <g>
  <rect height="97.9932" opacity="0" width="97.9595" x="0" y="0"/>
  <path d="M97.9595 48.9722C97.9595 75.7759 75.8247 97.9443 48.9722 97.9443C22.1685 97.9443 0 75.7759 0 48.9722C0 22.1348 22.1348 0 48.9385 0C75.791 0 97.9595 22.1348 97.9595 48.9722ZM54.4805 28.8076C53.0708 28.8076 52.0957 29.8501 52.0957 31.2598C52.0957 32.6358 53.0708 33.6631 54.4805 33.6631L68.2036 33.6631L68.2036 34.042L56.4839 64.7612C56.0864 65.6724 55.9214 66.2466 55.9214 67.2251C55.9214 68.4629 56.7617 69.7446 58.6094 69.7446C60.1167 69.7446 60.7617 69.1182 61.3428 67.6108L73.3169 35.4634C73.7481 34.249 74.063 33.21 74.063 32.0327C74.063 30.1314 72.6533 28.8076 70.7402 28.8076ZM25.4004 38.4048C25.4004 39.855 26.2324 40.9766 27.8374 40.9766C29.1797 40.9766 30.0234 40.3164 30.3941 39.0044C31.2158 35.166 32.709 32.6426 35.9985 32.6426C39.5708 32.6426 41.3555 35.8999 41.3555 39.6006C41.3555 43.502 39.0532 47.2705 36.2349 51.0518L26.7378 63.5771C26.0068 64.5859 25.3516 65.5679 25.3516 66.7671C25.3516 68.1733 26.2744 69.1216 28.0547 69.1216L45.2778 69.1216C46.7212 69.1216 47.6289 68.1616 47.6289 66.752C47.6289 65.2075 46.6875 64.3335 45.2778 64.3335L32.5615 64.3335L32.5615 63.9849L40.6729 53.1939C45.2481 47.292 46.7871 43.6416 46.7871 39.3193C46.7871 32.8047 42.6631 27.8882 36.0171 27.8882C29.8594 27.8882 25.4004 33.1802 25.4004 38.4048Z" fill="#000000" fill-opacity="0.85"/>
 </g>
</svg>
