<?xml version="1.0" encoding="UTF-8"?>
<!--Generator: Apple Native CoreSVG 232.5-->
<!DOCTYPE svg
PUBLIC "-//W3C//DTD SVG 1.1//EN"
       "http://www.w3.org/Graphics/SVG/1.1/DTD/svg11.dtd">
<svg version="1.1" xmlns="http://www.w3.org/2000/svg" xmlns:xlink="http://www.w3.org/1999/xlink" width="97.9595" height="97.9932">
 <g>
  <rect height="97.9932" opacity="0" width="97.9595" x="0" y="0"/>
  <path d="M48.9722 97.9443C75.8247 97.9443 97.9595 75.7759 97.9595 48.9722C97.9595 22.1348 75.791 0 48.9385 0C22.1348 0 0 22.1348 0 48.9722C0 75.7759 22.1685 97.9443 48.9722 97.9443ZM48.9722 91.6113C25.3501 91.6113 6.36671 72.5942 6.36671 48.9722C6.36671 25.3501 25.3164 6.31789 48.9385 6.31789C72.5605 6.31789 91.6265 25.3501 91.6265 48.9722C91.6265 72.5942 72.5942 91.6113 48.9722 91.6113Z" fill="#000000" fill-opacity="0.85"/>
  <path d="M28.4775 68.6987L45.3452 68.6987C46.7549 68.6987 47.6289 67.7725 47.6289 66.3965C47.6289 64.9194 46.7212 64.0454 45.3452 64.0454L32.8496 64.0454L32.8496 63.7305L40.8413 53.1079C45.3154 47.3257 46.8208 43.7275 46.8208 39.5215C46.8208 33.1416 42.7979 28.2959 36.2715 28.2959C30.2334 28.2959 25.8906 33.502 25.8906 38.6255C25.8906 40.0083 26.7227 41.1113 28.2603 41.1113C29.5537 41.1113 30.3789 40.4697 30.7495 39.1914C31.5376 35.4356 33.0308 32.9307 36.2681 32.9307C39.7915 32.9307 41.5425 36.1694 41.5425 39.7876C41.5425 43.5879 39.3227 47.2705 36.5229 50.9844L27.1943 63.3227C26.4819 64.2827 25.8267 65.2461 25.8267 66.4116C25.8267 67.7842 26.7495 68.6987 28.4775 68.6987ZM58.355 69.3218C59.8286 69.3218 60.4585 68.6953 61.021 67.2554L72.7744 35.6992C73.1904 34.5034 73.5205 33.4981 73.5205 32.3545C73.5205 30.4868 72.1294 29.2305 70.2651 29.2305L54.3272 29.2305C52.9697 29.2305 52.0098 30.2241 52.0098 31.5816C52.0098 32.9238 52.9697 33.9326 54.3272 33.9326L67.8145 33.9326L67.8145 34.2964L56.2817 64.4731C55.9331 65.3506 55.7529 65.9248 55.7529 66.8696C55.7529 68.0737 56.5596 69.3218 58.355 69.3218Z" fill="#000000" fill-opacity="0.85"/>
 </g>
</svg>
