<?xml version="1.0" encoding="UTF-8"?>
<!--Generator: Apple Native CoreSVG 232.5-->
<!DOCTYPE svg
PUBLIC "-//W3C//DTD SVG 1.1//EN"
       "http://www.w3.org/Graphics/SVG/1.1/DTD/svg11.dtd">
<svg version="1.1" xmlns="http://www.w3.org/2000/svg" xmlns:xlink="http://www.w3.org/1999/xlink" width="88.4092" height="88.5371">
 <g>
  <rect height="88.5371" opacity="0" width="88.4092" x="0" y="0"/>
  <path d="M88.4092 14.4019L88.4092 74.2632C88.4092 83.6558 83.5733 88.5371 74.0005 88.5371L14.3936 88.5371C4.86963 88.5371 0 83.7349 0 74.2632L0 14.4019C0 4.93018 4.86963 0.127929 14.3936 0.127929L74.0005 0.127929C83.5733 0.127929 88.4092 5.00928 88.4092 14.4019ZM49.7373 24.0796C48.3125 24.0796 47.3525 25.1221 47.3525 26.5317C47.3525 27.9077 48.3125 28.9351 49.7373 28.9351L63.4453 28.9351L63.4453 29.314L51.7256 60.0332C51.3433 60.9443 51.1782 61.5186 51.1782 62.4971C51.1782 63.7349 52.0034 65.0166 53.8662 65.0166C55.3584 65.0166 56.0371 64.3901 56.5996 62.8828L68.5737 30.7354C68.9898 29.521 69.3198 28.4819 69.3198 27.3047C69.3198 25.4033 67.895 24.0796 65.9971 24.0796ZM20.6572 33.6768C20.6572 35.127 21.4893 36.2485 23.0942 36.2485C24.4214 36.2485 25.2651 35.5884 25.6509 34.2764C26.5064 30.438 27.9507 27.9146 31.2891 27.9146C34.8276 27.9146 36.6123 31.1719 36.6123 34.8726C36.6123 38.7739 34.3101 42.5425 31.4917 46.3237L21.9946 58.8491C21.2485 59.8579 20.5933 60.8398 20.5933 62.0391C20.5933 63.4453 21.5161 64.3936 23.3452 64.3936L40.5532 64.3936C41.978 64.3936 42.8706 63.4336 42.8706 62.0239C42.8706 60.4795 41.9443 59.6055 40.5532 59.6055L27.8184 59.6055L27.8184 59.2568L35.9297 48.4658C40.5049 42.564 42.044 38.9136 42.044 34.5913C42.044 28.0767 37.9199 23.1602 31.2588 23.1602C25.1011 23.1602 20.6572 28.4522 20.6572 33.6768Z" fill="#000000" fill-opacity="0.85"/>
 </g>
</svg>
