<?xml version="1.0" encoding="UTF-8"?>
<!--Generator: Apple Native CoreSVG 232.5-->
<!DOCTYPE svg
PUBLIC "-//W3C//DTD SVG 1.1//EN"
       "http://www.w3.org/Graphics/SVG/1.1/DTD/svg11.dtd">
<svg version="1.1" xmlns="http://www.w3.org/2000/svg" xmlns:xlink="http://www.w3.org/1999/xlink" width="97.9595" height="97.9932">
 <g>
  <rect height="97.9932" opacity="0" width="97.9595" x="0" y="0"/>
  <path d="M48.9722 97.9443C75.8247 97.9443 97.9595 75.7759 97.9595 48.9722C97.9595 22.1348 75.791 0 48.9385 0C22.1348 0 0 22.1348 0 48.9722C0 75.7759 22.1685 97.9443 48.9722 97.9443ZM48.9722 91.6113C25.3501 91.6113 6.36671 72.5942 6.36671 48.9722C6.36671 25.3501 25.3164 6.31789 48.9385 6.31789C72.5605 6.31789 91.6265 25.3501 91.6265 48.9722C91.6265 72.5942 72.5942 91.6113 48.9722 91.6113Z" fill="#000000" fill-opacity="0.85"/>
  <path d="M25.9082 68.6987L42.7759 68.6987C44.1519 68.6987 45.0596 67.7725 45.0596 66.3965C45.0596 64.9194 44.1182 64.0454 42.7759 64.0454L30.2803 64.0454L30.2803 63.7305L38.2383 53.1079C42.7461 47.3257 44.2178 43.7275 44.2178 39.5215C44.2178 33.1416 40.2285 28.2959 33.7022 28.2959C27.6792 28.2959 23.3213 33.502 23.3213 38.6255C23.3213 40.0083 24.1196 41.1113 25.6724 41.1113C26.9995 41.1113 27.8096 40.4697 28.1465 39.1914C28.9834 35.4356 30.4614 32.9307 33.6987 32.9307C37.2036 32.9307 38.9546 36.1694 38.9546 39.7876C38.9546 43.5879 36.7197 47.2705 33.9351 50.9844L24.625 63.3227C23.894 64.2827 23.2388 65.2461 23.2388 66.4116C23.2388 67.7842 24.1616 68.6987 25.9082 68.6987ZM62.3569 69.502C69.6817 69.502 74.4014 64.6528 74.4014 58.0391C74.4014 52.9136 71.1953 48.8442 67.2774 47.9502L67.2774 47.834C70.6851 46.7026 73.3086 43.3775 73.3086 38.981C73.3086 32.9243 68.9844 28.4912 62.3569 28.4912C56.3931 28.4912 51.5181 32.4746 51.5181 38.9473C51.5181 43.6099 54.2158 46.7363 57.583 47.834L57.583 47.9502C53.4478 48.8779 50.395 52.9321 50.395 58.0391C50.395 64.9326 55.3945 69.502 62.3569 69.502ZM62.3872 45.9663C59.1445 45.9663 56.958 43.0298 56.958 39.4981C56.958 35.8887 59.0117 32.8076 62.3872 32.8076C66 32.8076 67.835 36.0855 67.835 39.4981C67.835 43.1294 65.7544 45.9663 62.3872 45.9663ZM62.3872 65.1519C58.4024 65.1519 56.2359 61.6753 56.2359 57.6382C56.2359 53.6533 58.4326 50.3316 62.3872 50.3316C66.1265 50.3316 68.5757 53.3521 68.5757 57.6382C68.5757 61.6602 66.4243 65.1519 62.3872 65.1519Z" fill="#000000" fill-opacity="0.85"/>
 </g>
</svg>
