<?xml version="1.0" encoding="UTF-8"?>
<!--Generator: Apple Native CoreSVG 232.5-->
<!DOCTYPE svg
PUBLIC "-//W3C//DTD SVG 1.1//EN"
       "http://www.w3.org/Graphics/SVG/1.1/DTD/svg11.dtd">
<svg version="1.1" xmlns="http://www.w3.org/2000/svg" xmlns:xlink="http://www.w3.org/1999/xlink" width="97.9595" height="97.9932">
 <g>
  <rect height="97.9932" opacity="0" width="97.9595" x="0" y="0"/>
  <path d="M97.9595 48.9722C97.9595 75.7759 75.8247 97.9443 48.9722 97.9443C22.1685 97.9443 0 75.7759 0 48.9722C0 22.1348 22.1348 0 48.9385 0C75.791 0 97.9595 22.1348 97.9595 48.9722ZM51.6191 38.7603C51.6191 43.5239 54.3692 46.7026 57.8189 47.8003L57.8189 47.9165C53.5825 48.8779 50.4624 52.9844 50.4624 58.2261C50.4624 65.2881 55.5816 69.9248 62.6787 69.9248C70.1719 69.9248 75.0264 64.9746 75.0264 58.2261C75.0264 52.981 71.7193 48.8442 67.7188 47.9165L67.7188 47.8003C71.1939 46.669 73.8848 43.2915 73.8848 38.794C73.8848 32.6025 69.4595 28.0684 62.6787 28.0684C56.5801 28.0684 51.6191 32.1191 51.6191 38.7603ZM22.7788 38.4048C22.7788 39.855 23.6108 40.9766 25.2158 40.9766C26.5767 40.9766 27.3867 40.3164 27.7725 39.0044C28.5942 35.166 30.106 32.6426 33.4106 32.6426C36.9341 32.6426 38.7187 35.8999 38.7187 39.6006C38.7187 43.502 36.4316 47.2705 33.6133 51.0181L24.1499 63.5771C23.3701 64.5859 22.6811 65.5342 22.6811 66.7671C22.6811 68.1733 23.6377 69.1216 25.4668 69.1216L42.6748 69.1216C44.0996 69.1216 45.0259 68.1616 45.0259 66.752C45.0259 65.2075 44.0659 64.2998 42.6748 64.2998L29.9585 64.2998L29.9585 63.9849L38.0513 53.1939C42.645 47.292 44.1655 43.6416 44.1655 39.3193C44.1655 32.8047 40.0752 27.8882 33.4141 27.8882C27.2563 27.8882 22.7788 33.1802 22.7788 38.4048ZM68.9985 57.8066C68.9985 61.9146 66.7984 65.4399 62.709 65.4399C58.6719 65.4399 56.4566 61.9297 56.4566 57.8066C56.4566 53.7393 58.687 50.3989 62.709 50.3989C66.5156 50.3989 68.9985 53.438 68.9985 57.8066ZM68.2578 39.311C68.2578 42.9946 66.1436 45.8989 62.709 45.8989C59.3989 45.8989 57.2124 42.895 57.2124 39.311C57.2124 35.6343 59.2661 32.5195 62.709 32.5195C66.3892 32.5195 68.2578 35.8159 68.2578 39.311Z" fill="#000000" fill-opacity="0.85"/>
 </g>
</svg>
