<?xml version="1.0" encoding="UTF-8"?>
<!--Generator: Apple Native CoreSVG 232.5-->
<!DOCTYPE svg
PUBLIC "-//W3C//DTD SVG 1.1//EN"
       "http://www.w3.org/Graphics/SVG/1.1/DTD/svg11.dtd">
<svg version="1.1" xmlns="http://www.w3.org/2000/svg" xmlns:xlink="http://www.w3.org/1999/xlink" width="88.4092" height="88.5371">
 <g>
  <rect height="88.5371" opacity="0" width="88.4092" x="0" y="0"/>
  <path d="M88.4092 14.4019L88.4092 74.2632C88.4092 83.6558 83.5733 88.5371 74.0005 88.5371L14.3936 88.5371C4.86963 88.5371 0 83.7349 0 74.2632L0 14.4019C0 4.93018 4.86963 0.127929 14.3936 0.127929L74.0005 0.127929C83.5733 0.127929 88.4092 5.00928 88.4092 14.4019ZM46.876 34.0322C46.876 38.7959 49.626 41.9746 53.0606 43.0723L53.0606 43.1885C48.8242 44.1499 45.7192 48.2564 45.7192 53.4981C45.7192 60.5601 50.8384 65.1968 57.9356 65.1968C65.4287 65.1968 70.2681 60.2466 70.2681 53.4981C70.2681 48.2529 66.9946 44.1162 62.9756 43.1885L62.9756 43.0723C66.4507 41.9409 69.1416 38.5635 69.1416 34.0659C69.1416 27.8745 64.7163 23.3403 57.9356 23.3403C51.8706 23.3403 46.876 27.3911 46.876 34.0322ZM18.0205 33.6768C18.0205 35.127 18.8862 36.2485 20.4727 36.2485C21.8335 36.2485 22.6436 35.5884 23.0142 34.2764C23.8359 30.438 25.3628 27.9146 28.6523 27.9146C32.1909 27.9146 33.9756 31.1719 33.9756 34.8726C33.9756 38.7739 31.707 42.5425 28.855 46.29L19.3916 58.8491C18.627 59.8579 17.9717 60.8062 17.9717 62.0391C17.9717 63.4453 18.8945 64.3936 20.7085 64.3936L37.9316 64.3936C39.3413 64.3936 40.2827 63.4336 40.2827 62.0239C40.2827 60.4795 39.3076 59.5718 37.9316 59.5718L25.2153 59.5718L25.2153 59.2568L33.3267 48.4658C37.9019 42.564 39.4409 38.9136 39.4409 34.5913C39.4409 28.0767 35.3169 23.1602 28.6709 23.1602C22.5132 23.1602 18.0205 28.4522 18.0205 33.6768ZM64.2402 53.0786C64.2402 57.1865 62.0552 60.7119 57.9844 60.7119C53.9136 60.7119 51.7134 57.2017 51.7134 53.0786C51.7134 49.0112 53.9439 45.6709 57.9844 45.6709C61.8062 45.6709 64.2402 48.71 64.2402 53.0786ZM63.5147 34.583C63.5147 38.2666 61.4004 41.1709 57.9844 41.1709C54.6558 41.1709 52.4693 38.167 52.4693 34.583C52.4693 30.9063 54.5415 27.7915 57.9844 27.7915C61.646 27.7915 63.5147 31.0879 63.5147 34.583Z" fill="#000000" fill-opacity="0.85"/>
 </g>
</svg>
