<?xml version="1.0" encoding="UTF-8"?>
<!--Generator: Apple Native CoreSVG 232.5-->
<!DOCTYPE svg
PUBLIC "-//W3C//DTD SVG 1.1//EN"
       "http://www.w3.org/Graphics/SVG/1.1/DTD/svg11.dtd">
<svg version="1.1" xmlns="http://www.w3.org/2000/svg" xmlns:xlink="http://www.w3.org/1999/xlink" width="88.4092" height="88.5371">
 <g>
  <rect height="88.5371" opacity="0" width="88.4092" x="0" y="0"/>
  <path d="M14.3936 88.5371L74.0005 88.5371C83.5733 88.5371 88.4092 83.6558 88.4092 74.2632L88.4092 14.4019C88.4092 5.00928 83.5733 0.127929 74.0005 0.127929L14.3936 0.127929C4.86963 0.127929 0 4.93018 0 14.4019L0 74.2632C0 83.7349 4.86963 88.5371 14.3936 88.5371ZM14.5064 82.4922C9.00294 82.4922 6.04494 79.6016 6.04494 73.9634L6.04494 14.7017C6.04494 9.06349 9.00294 6.17287 14.5064 6.17287L73.9028 6.17287C79.2969 6.17287 82.3643 9.06349 82.3643 14.7017L82.3643 73.9634C82.3643 79.6016 79.2969 82.4922 73.9028 82.4922Z" fill="#000000" fill-opacity="0.85"/>
  <path d="M21.1987 63.9707L38.0513 63.9707C39.4424 63.9707 40.335 63.0444 40.335 61.6685C40.335 60.1914 39.4087 59.3174 38.0513 59.3174L25.5708 59.3174L25.5708 59.0024L33.5625 48.3799C38.0366 42.5977 39.542 38.9995 39.542 34.7935C39.542 28.4136 35.519 23.5679 28.9927 23.5679C22.9546 23.5679 18.5967 28.7739 18.5967 33.8975C18.5967 35.2803 19.4102 36.3833 20.9814 36.3833C22.2749 36.3833 23.1001 35.7417 23.437 34.4634C24.2588 30.7075 25.752 28.2026 28.9741 28.2026C32.479 28.2026 34.23 31.4414 34.23 35.0596C34.23 38.8599 32.0439 42.5425 29.2104 46.2564L19.9155 58.5947C19.1694 59.5547 18.5479 60.5181 18.5479 61.6836C18.5479 63.0562 19.437 63.9707 21.1987 63.9707ZM57.6475 64.7739C64.9722 64.7739 69.6919 59.9248 69.6919 53.311C69.6919 48.1856 66.5195 44.1162 62.5528 43.2222L62.5528 43.106C65.9605 41.9746 68.584 38.6494 68.584 34.2529C68.584 28.1963 64.2598 23.7632 57.6475 23.7632C51.7173 23.7632 46.8086 27.7466 46.8086 34.2192C46.8086 38.8818 49.4912 42.0083 52.8735 43.106L52.8735 43.2222C48.7383 44.1499 45.6856 48.2041 45.6856 53.311C45.6856 60.2046 50.6699 64.7739 57.6475 64.7739ZM57.6963 41.2383C54.4199 41.2383 52.2486 38.3018 52.2486 34.77C52.2486 31.1607 54.3208 28.0796 57.6963 28.0796C61.2905 28.0796 63.1255 31.3574 63.1255 34.77C63.1255 38.4014 61.0449 41.2383 57.6963 41.2383ZM57.6963 60.4238C53.6929 60.4238 51.5112 56.9473 51.5112 52.9102C51.5112 48.9253 53.708 45.6035 57.6963 45.6035C61.4507 45.6035 63.8511 48.624 63.8511 52.9102C63.8511 56.9321 61.6997 60.4238 57.6963 60.4238Z" fill="#000000" fill-opacity="0.85"/>
 </g>
</svg>
