<?xml version="1.0" encoding="UTF-8"?>
<!--Generator: Apple Native CoreSVG 232.5-->
<!DOCTYPE svg
PUBLIC "-//W3C//DTD SVG 1.1//EN"
       "http://www.w3.org/Graphics/SVG/1.1/DTD/svg11.dtd">
<svg version="1.1" xmlns="http://www.w3.org/2000/svg" xmlns:xlink="http://www.w3.org/1999/xlink" width="97.9595" height="97.9932">
 <g>
  <rect height="97.9932" opacity="0" width="97.9595" x="0" y="0"/>
  <path d="M97.9595 48.9722C97.9595 75.7759 75.8247 97.9443 48.9722 97.9443C22.1685 97.9443 0 75.7759 0 48.9722C0 22.1348 22.1348 0 48.9385 0C75.791 0 97.9595 22.1348 97.9595 48.9722ZM50.8648 42.0689C50.8648 48.7954 54.106 55.2105 60.6709 55.2105C65.0332 55.2105 68.0791 52.1733 69.1265 47.7705L69.3218 47.7705C69.3218 47.9961 69.3218 48.2217 69.3218 48.4136C69.3218 54.4492 68.502 65.189 62.2813 65.189C59.6568 65.189 57.9463 63.3086 56.9732 60.6607C56.3955 59.167 55.582 58.6231 54.3711 58.6231C52.6802 58.6231 51.919 59.7515 51.919 61.124C51.919 61.6494 52.0654 62.3145 52.2422 62.9307C53.377 67.3252 57.4234 70.0073 62.1953 70.0073C72.0742 70.0073 74.814 58.2637 74.814 48.415C74.814 39.0601 71.9531 27.9404 62.3081 27.9404C55.0205 27.9404 50.8648 34.3857 50.8648 42.0689ZM23.3882 38.4048C23.3882 39.855 24.1865 40.9429 25.8066 40.9429C27.1338 40.9429 28.0112 40.3164 28.3482 39.0044C29.2036 35.166 30.6631 32.6426 33.9863 32.6426C37.5586 32.6426 39.3433 35.8999 39.3433 39.6006C39.3433 43.502 37.041 47.2705 34.189 51.0181L24.7256 63.5771C23.9609 64.5522 23.3057 65.5342 23.3057 66.7671C23.3057 68.1733 24.2285 69.1216 26.0425 69.1216L43.2656 69.1216C44.6753 69.1216 45.6167 68.1616 45.6167 66.752C45.6167 65.2075 44.6416 64.2998 43.2656 64.2998L30.5156 64.2998L30.5156 63.9849L38.6421 53.1939C43.2358 47.292 44.7749 43.6416 44.7749 39.3193C44.7749 32.8047 40.6509 27.8882 33.9712 27.8882C27.8472 27.8882 23.3882 33.1802 23.3882 38.4048ZM68.4697 41.833C68.4697 46.148 66.3823 50.6582 62.3755 50.6582C58.2559 50.6582 56.4243 46.0166 56.4243 41.833C56.4243 37.604 58.3755 32.7437 62.3755 32.7437C66.5742 32.7437 68.4697 37.6343 68.4697 41.833Z" fill="#000000" fill-opacity="0.85"/>
 </g>
</svg>
