<?xml version="1.0" encoding="UTF-8"?>
<!--Generator: Apple Native CoreSVG 232.5-->
<!DOCTYPE svg
PUBLIC "-//W3C//DTD SVG 1.1//EN"
       "http://www.w3.org/Graphics/SVG/1.1/DTD/svg11.dtd">
<svg version="1.1" xmlns="http://www.w3.org/2000/svg" xmlns:xlink="http://www.w3.org/1999/xlink" width="88.4092" height="88.5371">
 <g>
  <rect height="88.5371" opacity="0" width="88.4092" x="0" y="0"/>
  <path d="M14.3936 88.5371L74.0005 88.5371C83.5733 88.5371 88.4092 83.6558 88.4092 74.2632L88.4092 14.4019C88.4092 5.00928 83.5733 0.127929 74.0005 0.127929L14.3936 0.127929C4.86963 0.127929 0 4.93018 0 14.4019L0 74.2632C0 83.7349 4.86963 88.5371 14.3936 88.5371ZM14.5064 82.4922C9.00294 82.4922 6.04494 79.6016 6.04494 73.9634L6.04494 14.7017C6.04494 9.06349 9.00294 6.17287 14.5064 6.17287L73.9028 6.17287C79.2969 6.17287 82.3643 9.06349 82.3643 14.7017L82.3643 73.9634C82.3643 79.6016 79.2969 82.4922 73.9028 82.4922Z" fill="#000000" fill-opacity="0.85"/>
  <path d="M21.7896 63.9707L38.6421 63.9707C40.0332 63.9707 40.9258 63.0444 40.9258 61.6685C40.9258 60.1914 39.9995 59.3174 38.6421 59.3174L26.1616 59.3174L26.1616 59.0024L34.1045 48.3799C38.6123 42.5977 40.0991 38.9995 40.0991 34.7935C40.0991 28.4136 36.0947 23.5679 29.5835 23.5679C23.5454 23.5679 19.1875 28.7739 19.1875 33.8975C19.1875 35.2803 19.9858 36.3833 21.5386 36.3833C22.8657 36.3833 23.6758 35.7417 24.0278 34.4634C24.8496 30.7075 26.3276 28.2026 29.5649 28.2026C33.0698 28.2026 34.8208 31.4414 34.8208 35.0596C34.8208 38.8599 32.5859 42.5425 29.8013 46.2564L20.4912 58.5947C19.7603 59.5547 19.105 60.5181 19.105 61.6836C19.105 63.0562 20.0278 63.9707 21.7896 63.9707ZM55.7256 50.3477C59.9683 50.3477 62.9468 47.3779 63.979 43.0425L64.1743 43.0425C64.1743 43.2681 64.1743 43.4937 64.1743 43.6856C64.1743 49.6201 63.3696 60.1728 57.2349 60.1728C54.6441 60.1728 52.9824 58.3262 52.043 55.7119C51.4653 54.252 50.6704 53.708 49.4932 53.708C47.8359 53.708 47.1084 54.7876 47.1084 56.1265C47.1084 56.667 47.2398 57.2832 47.4316 57.9146C48.5327 62.2232 52.478 64.8565 57.1641 64.8565C66.8745 64.8565 69.5132 53.3486 69.5132 43.687C69.5132 34.519 66.7197 23.6353 57.2617 23.6353C50.1426 23.6353 46.0728 29.9458 46.0728 37.4605C46.0728 44.0674 49.2617 50.3477 55.7256 50.3477ZM57.3291 45.9302C53.2769 45.9302 51.479 41.356 51.479 37.2734C51.479 33.0967 53.3965 28.27 57.3291 28.27C61.4605 28.27 63.3374 33.1421 63.3374 37.2734C63.3374 41.4873 61.2837 45.9302 57.3291 45.9302Z" fill="#000000" fill-opacity="0.85"/>
 </g>
</svg>
