<?xml version="1.0" encoding="UTF-8"?>
<!--Generator: Apple Native CoreSVG 232.5-->
<!DOCTYPE svg
PUBLIC "-//W3C//DTD SVG 1.1//EN"
       "http://www.w3.org/Graphics/SVG/1.1/DTD/svg11.dtd">
<svg version="1.1" xmlns="http://www.w3.org/2000/svg" xmlns:xlink="http://www.w3.org/1999/xlink" width="97.9595" height="97.9932">
 <g>
  <rect height="97.9932" opacity="0" width="97.9595" x="0" y="0"/>
  <path d="M97.9595 48.9722C97.9595 75.7759 75.8247 97.9443 48.9722 97.9443C22.1685 97.9443 0 75.7759 0 48.9722C0 22.1348 22.1348 0 48.9385 0C75.791 0 97.9595 22.1348 97.9595 48.9722ZM34.7554 34.9902C34.6392 35.647 34.5903 36.1235 34.5903 36.7651C34.5903 38.3584 35.6885 39.4531 37.2666 39.4531C38.7402 39.4531 39.6177 38.7256 40.022 37.2857C40.9483 33.2837 44.4365 30.6675 49.3511 30.6675C54.7437 30.6675 58.2168 33.5059 58.2168 37.9219C58.2168 42.3901 54.3984 45.7505 49.356 45.7505L45.834 45.7505C44.3418 45.7505 43.311 46.7476 43.311 48.2583C43.311 49.6831 44.3418 50.7139 45.834 50.7139L49.6455 50.7139C55.5215 50.7139 59.7305 54.1567 59.7305 58.9551C59.7305 63.9502 55.5181 67.228 49.2803 67.228C43.7813 67.228 40.209 64.4097 39.0942 60.625C38.5772 59.1699 37.7485 58.4912 36.3389 58.4912C34.7271 58.4912 33.5649 59.6196 33.5649 61.2466C33.5649 61.8731 33.6626 62.2974 33.7939 62.9541C35.3076 68.5225 41.4873 72.311 49.1792 72.311C59.2017 72.311 65.6641 66.8135 65.6641 59.1572C65.6641 53.4004 61.2022 48.7095 55.2197 48.1387L55.2197 47.7935C60.2676 46.9854 64.0679 42.4224 64.0679 37.2246C64.0679 30.4658 57.9556 25.6182 49.4522 25.6182C41.8696 25.6182 35.8652 29.3511 34.7554 34.9902Z" fill="#000000" fill-opacity="0.85"/>
 </g>
</svg>
