<?xml version="1.0" encoding="UTF-8"?>
<!--Generator: Apple Native CoreSVG 232.5-->
<!DOCTYPE svg
PUBLIC "-//W3C//DTD SVG 1.1//EN"
       "http://www.w3.org/Graphics/SVG/1.1/DTD/svg11.dtd">
<svg version="1.1" xmlns="http://www.w3.org/2000/svg" xmlns:xlink="http://www.w3.org/1999/xlink" width="88.4092" height="73.4395">
 <g>
  <rect height="73.4395" opacity="0" width="88.4092" x="0" y="0"/>
  <path d="M0 70.4077C0 72.0566 1.34912 73.4395 2.99805 73.4395C4.68068 73.4395 6.04494 72.0566 6.04494 70.4077L6.04494 3.12598C6.04494 1.47705 4.68068 0.127929 2.99805 0.127929C1.34912 0.127929 0 1.47705 0 3.12598ZM82.3643 70.4077C82.3643 72.0566 83.7471 73.4395 85.396 73.4395C87.0601 73.4395 88.4092 72.0566 88.4092 70.4077L88.4092 3.12598C88.4092 1.47705 87.0601 0.127929 85.396 0.127929C83.7471 0.127929 82.3643 1.47705 82.3643 3.12598Z" fill="#000000" fill-opacity="0.85"/>
  <path d="M44.1094 59.3101C52.0215 59.3101 58.2315 54.5132 58.2315 46.9243C58.2315 40.728 54.1196 37.1924 48.8145 36.7041L48.8145 36.6821C53.625 35.6196 56.7515 31.7822 56.7515 26.8003C56.7515 19.937 51.2031 15.7632 43.8989 15.7632C37.9248 15.7632 32.9624 19.0786 31.6357 23.9229C31.4438 24.603 31.3159 25.3623 31.3159 26.0913C31.3159 27.5278 32.0586 28.7051 33.918 28.7051C35.4707 28.7051 36.2388 27.939 36.7222 26.5327C37.6719 22.876 40.1836 20.7315 43.9175 20.7315C48.0825 20.7315 50.8652 23.3511 50.8652 27.501C50.8652 31.9019 47.6699 34.5669 43.2085 34.5669L40.9883 34.5669C39.4961 34.5669 38.521 35.4595 38.521 36.8994C38.521 38.3579 39.5298 39.2319 40.9883 39.2319L43.2573 39.2319C48.3584 39.2319 52.0083 41.4575 52.0083 46.7524C52.0083 51.1616 48.8013 54.2407 44.1431 54.2407C39.813 54.2407 36.9732 51.9058 36.042 48.4092C35.5249 47.0889 34.5581 46.2368 33.2412 46.2368C31.5654 46.2368 30.5044 47.2944 30.5044 48.9854C30.5044 49.7144 30.6323 50.4248 30.8394 51.1201C32.4219 56.6025 38.3189 59.3101 44.1094 59.3101Z" fill="#000000" fill-opacity="0.85"/>
 </g>
</svg>
