<?xml version="1.0" encoding="UTF-8"?>
<!--Generator: Apple Native CoreSVG 232.5-->
<!DOCTYPE svg
PUBLIC "-//W3C//DTD SVG 1.1//EN"
       "http://www.w3.org/Graphics/SVG/1.1/DTD/svg11.dtd">
<svg version="1.1" xmlns="http://www.w3.org/2000/svg" xmlns:xlink="http://www.w3.org/1999/xlink" width="88.4092" height="88.5371">
 <g>
  <rect height="88.5371" opacity="0" width="88.4092" x="0" y="0"/>
  <path d="M88.4092 14.4019L88.4092 74.2632C88.4092 83.6558 83.5733 88.5371 74.0005 88.5371L14.3936 88.5371C4.86963 88.5371 0 83.7349 0 74.2632L0 14.4019C0 4.93018 4.86963 0.127929 14.3936 0.127929L74.0005 0.127929C83.5733 0.127929 88.4092 5.00928 88.4092 14.4019ZM30.0459 30.2622C29.896 30.9189 29.832 31.3955 29.832 32.0371C29.832 33.6304 30.9453 34.7251 32.5234 34.7251C33.9819 34.7251 34.8594 33.9976 35.3125 32.5576C36.2051 28.5557 39.7271 25.9395 44.6079 25.9395C50.0005 25.9395 53.4585 28.7778 53.4585 33.1939C53.4585 37.6621 49.6553 41.0225 44.6128 41.0225L41.0757 41.0225C39.6323 41.0225 38.5527 42.0195 38.5527 43.5303C38.5527 44.9551 39.6323 45.9859 41.0757 45.9859L44.9023 45.9859C50.7783 45.9859 55.021 49.4287 55.021 54.2271C55.021 59.2222 50.7935 62.5 44.5557 62.5C39.0381 62.5 35.4995 59.6816 34.3359 55.897C33.8677 54.4419 33.0054 53.7632 31.5806 53.7632C29.9839 53.7632 28.8555 54.8916 28.8555 56.5186C28.8555 57.145 28.9043 57.5693 29.0508 58.2261C30.5493 63.7944 36.7441 67.583 44.4697 67.583C54.4434 67.583 60.9209 62.0855 60.9209 54.4292C60.9209 48.6724 56.4439 43.9815 50.4766 43.4106L50.4766 43.0654C55.5244 42.2573 59.3247 37.6943 59.3247 32.4966C59.3247 25.7378 53.2124 20.8901 44.6939 20.8901C37.1265 20.8901 31.1221 24.623 30.0459 30.2622Z" fill="#000000" fill-opacity="0.85"/>
 </g>
</svg>
