<?xml version="1.0" encoding="UTF-8"?>
<!--Generator: Apple Native CoreSVG 232.5-->
<!DOCTYPE svg
PUBLIC "-//W3C//DTD SVG 1.1//EN"
       "http://www.w3.org/Graphics/SVG/1.1/DTD/svg11.dtd">
<svg version="1.1" xmlns="http://www.w3.org/2000/svg" xmlns:xlink="http://www.w3.org/1999/xlink" width="97.9595" height="97.9932">
 <g>
  <rect height="97.9932" opacity="0" width="97.9595" x="0" y="0"/>
  <path d="M48.9722 97.9443C75.8247 97.9443 97.9595 75.7759 97.9595 48.9722C97.9595 22.1348 75.791 0 48.9385 0C22.1348 0 0 22.1348 0 48.9722C0 75.7759 22.1685 97.9443 48.9722 97.9443ZM48.9722 91.6113C25.3501 91.6113 6.36671 72.5942 6.36671 48.9722C6.36671 25.3501 25.3164 6.31789 48.9385 6.31789C72.5605 6.31789 91.6265 25.3501 91.6265 48.9722C91.6265 72.5942 72.5942 91.6113 48.9722 91.6113Z" fill="#000000" fill-opacity="0.85"/>
  <path d="M34.3315 69.438C40.981 69.438 46.0376 65.0132 46.0376 57.8101C46.0376 52.0581 42.7539 48.686 38.3345 48.2617L38.3345 48.0816C42.7627 46.9248 44.8809 42.958 44.8809 38.8262C44.8809 32.3906 40.2871 28.4121 34.1362 28.4121C29.1978 28.4121 25.2725 31.2593 23.9204 35.5898C23.6274 36.563 23.5449 37.4419 23.5449 38.166C23.5449 39.4712 24.3921 40.5322 25.9668 40.5322C27.3848 40.5322 28.0552 39.8941 28.4375 38.4761C29.1733 35.3228 30.9478 32.9981 34.1362 32.9981C37.7373 32.9981 39.5723 35.855 39.5723 39.4409C39.5723 43.3232 37.2676 46.2441 33.333 46.2441L31.7979 46.2441C30.395 46.2441 29.6118 47.1333 29.6118 48.3779C29.6118 49.6714 30.4893 50.5117 31.7979 50.5117L33.3818 50.5117C37.8804 50.5117 40.4478 52.9546 40.4478 57.7207C40.4478 61.4985 38.4932 64.7847 34.3618 64.7847C30.419 64.7847 28.4932 61.9683 27.9375 59.3623C27.5703 58.0117 26.7871 57.2876 25.4028 57.2876C23.8921 57.2876 22.895 58.229 22.895 59.7886C22.895 60.5767 23.0566 61.5464 23.3008 62.3125C24.6714 66.7476 29.1338 69.438 34.3315 69.438ZM63.3989 69.5845C72.8467 69.5845 75.4097 58.2383 75.4097 48.9233C75.4097 39.5933 72.8467 28.2471 63.3989 28.2471C53.9697 28.2471 51.4219 39.5933 51.4219 48.9233C51.4219 58.2383 53.9697 69.5845 63.3989 69.5845ZM63.3989 64.8638C58.5054 64.8638 57.1128 56.8257 57.1128 48.9233C57.1128 40.9722 58.5054 32.9492 63.3989 32.9492C68.3262 32.9492 69.7036 40.9722 69.7036 48.9233C69.7036 56.8257 68.3262 64.8638 63.3989 64.8638Z" fill="#000000" fill-opacity="0.85"/>
 </g>
</svg>
