<?xml version="1.0" encoding="UTF-8"?>
<!--Generator: Apple Native CoreSVG 232.5-->
<!DOCTYPE svg
PUBLIC "-//W3C//DTD SVG 1.1//EN"
       "http://www.w3.org/Graphics/SVG/1.1/DTD/svg11.dtd">
<svg version="1.1" xmlns="http://www.w3.org/2000/svg" xmlns:xlink="http://www.w3.org/1999/xlink" width="97.9595" height="97.9932">
 <g>
  <rect height="97.9932" opacity="0" width="97.9595" x="0" y="0"/>
  <path d="M97.9595 48.9722C97.9595 75.7759 75.8247 97.9443 48.9722 97.9443C22.1685 97.9443 0 75.7759 0 48.9722C0 22.1348 22.1348 0 48.9385 0C75.791 0 97.9595 22.1348 97.9595 48.9722ZM51.4741 48.9233C51.4741 58.459 54.1045 70.0073 63.7544 70.0073C73.4043 70.0073 76.0195 58.459 76.0195 48.9233C76.0195 39.3726 73.4043 27.8242 63.7544 27.8242C54.1045 27.8242 51.4741 39.3726 51.4741 48.9233ZM23.3779 35.3018C23.085 36.3086 22.9873 37.2212 22.9873 37.9302C22.9873 39.2691 23.8833 40.3638 25.4766 40.3638C26.9619 40.3638 27.666 39.7256 28.0483 38.2739C28.7842 35.0684 30.5923 32.7437 33.8481 32.7437C37.5015 32.7437 39.3364 35.6006 39.3364 39.2539C39.3364 43.1885 37.0132 46.1768 33.0112 46.1768L31.4761 46.1768C30.021 46.1768 29.2378 47.0996 29.2378 48.3779C29.2378 49.7051 30.1152 50.564 31.4761 50.564L33.0601 50.564C37.6597 50.564 40.2607 53.0557 40.2607 57.9229C40.2607 61.7192 38.2573 65.0728 34.0586 65.0728C30.0635 65.0728 28.104 62.2378 27.5483 59.583C27.1475 58.1802 26.3457 57.4561 24.9614 57.4561C23.3833 57.4561 22.3374 58.416 22.3374 60.0244C22.3374 60.8462 22.499 61.8008 22.7432 62.6006C24.1626 67.1367 28.7109 69.8608 34.0435 69.8608C40.8462 69.8608 46.0039 65.335 46.0039 58.0122C46.0039 52.1255 42.6528 48.686 38.1323 48.2617L38.1323 48.0816C42.6768 46.8911 44.8135 42.8232 44.8135 38.6392C44.8135 32.0352 40.1187 28.0044 33.8481 28.0044C28.7749 28.0044 24.7974 30.9038 23.3779 35.3018ZM70.1602 48.9233C70.1602 57.0127 68.749 65.1519 63.7544 65.1519C58.7935 65.1519 57.3823 57.0127 57.3823 48.9233C57.3823 40.7852 58.7935 32.646 63.7544 32.646C68.749 32.646 70.1602 40.7852 70.1602 48.9233Z" fill="#000000" fill-opacity="0.85"/>
 </g>
</svg>
