<?xml version="1.0" encoding="UTF-8"?>
<!--Generator: Apple Native CoreSVG 232.5-->
<!DOCTYPE svg
PUBLIC "-//W3C//DTD SVG 1.1//EN"
       "http://www.w3.org/Graphics/SVG/1.1/DTD/svg11.dtd">
<svg version="1.1" xmlns="http://www.w3.org/2000/svg" xmlns:xlink="http://www.w3.org/1999/xlink" width="88.4092" height="88.5371">
 <g>
  <rect height="88.5371" opacity="0" width="88.4092" x="0" y="0"/>
  <path d="M14.3936 88.5371L74.0005 88.5371C83.5733 88.5371 88.4092 83.6558 88.4092 74.2632L88.4092 14.4019C88.4092 5.00928 83.5733 0.127929 74.0005 0.127929L14.3936 0.127929C4.86963 0.127929 0 4.93018 0 14.4019L0 74.2632C0 83.7349 4.86963 88.5371 14.3936 88.5371ZM14.5064 82.4922C9.00294 82.4922 6.04494 79.6016 6.04494 73.9634L6.04494 14.7017C6.04494 9.06349 9.00294 6.17287 14.5064 6.17287L73.9028 6.17287C79.2969 6.17287 82.3643 9.06349 82.3643 14.7017L82.3643 73.9634C82.3643 79.6016 79.2969 82.4922 73.9028 82.4922Z" fill="#000000" fill-opacity="0.85"/>
  <path d="M33.1025 64.7739C39.7368 64.7739 44.7935 60.3491 44.7935 53.1309C44.7935 47.3789 41.5098 44.022 37.0903 43.5825L37.0903 43.436C41.5337 42.2793 43.6519 38.2788 43.6519 34.147C43.6519 27.7114 39.043 23.7481 32.9072 23.7481C27.9536 23.7481 24.0283 26.5952 22.6914 30.9258C22.3833 31.8989 22.3008 32.7627 22.3008 33.4868C22.3008 34.8257 23.1631 35.853 24.689 35.853C26.1406 35.853 26.811 35.2485 27.1934 33.7969C27.9292 30.6436 29.7036 28.3526 32.9072 28.3526C36.4932 28.3526 38.3281 31.1758 38.3281 34.7769C38.3281 38.644 36.0386 41.5649 32.0889 41.5649L30.5537 41.5649C29.166 41.5649 28.3828 42.4541 28.3828 43.7324C28.3828 45.0259 29.2603 45.8325 30.5537 45.8325L32.1377 45.8325C36.6362 45.8325 39.2187 48.3242 39.2187 53.0566C39.2187 56.8193 37.2153 60.1392 33.1177 60.1392C29.1748 60.1392 27.249 57.3379 26.6934 54.6831C26.3262 53.3325 25.5581 52.6235 24.1738 52.6235C22.6631 52.6235 21.6509 53.5835 21.6509 55.1094C21.6509 55.9126 21.8125 56.8672 22.0566 57.6333C23.4424 62.0835 27.9048 64.7739 33.1025 64.7739ZM60.7002 64.4775C62.211 64.4775 63.5044 63.1841 63.5044 61.6245L63.5044 27.0962C63.5044 25.166 62.2295 23.9585 60.2656 23.9585C58.6084 23.9585 57.2813 24.8545 56.355 25.5972L50.439 30.3076C49.7266 30.8701 49.2095 31.5859 49.2095 32.5982C49.2095 33.8242 50.0381 34.7168 51.2944 34.7168C51.9058 34.7168 52.2881 34.5181 52.7007 34.2368L57.7983 30.1089L57.7983 61.6245C57.7983 63.1841 59.0918 64.4775 60.7002 64.4775Z" fill="#000000" fill-opacity="0.85"/>
 </g>
</svg>
