<?xml version="1.0" encoding="UTF-8"?>
<!--Generator: Apple Native CoreSVG 232.5-->
<!DOCTYPE svg
PUBLIC "-//W3C//DTD SVG 1.1//EN"
       "http://www.w3.org/Graphics/SVG/1.1/DTD/svg11.dtd">
<svg version="1.1" xmlns="http://www.w3.org/2000/svg" xmlns:xlink="http://www.w3.org/1999/xlink" width="97.9595" height="97.9932">
 <g>
  <rect height="97.9932" opacity="0" width="97.9595" x="0" y="0"/>
  <path d="M48.9722 97.9443C75.8247 97.9443 97.9595 75.7759 97.9595 48.9722C97.9595 22.1348 75.791 0 48.9385 0C22.1348 0 0 22.1348 0 48.9722C0 75.7759 22.1685 97.9443 48.9722 97.9443ZM48.9722 91.6113C25.3501 91.6113 6.36671 72.5942 6.36671 48.9722C6.36671 25.3501 25.3164 6.31789 48.9385 6.31789C72.5605 6.31789 91.6265 25.3501 91.6265 48.9722C91.6265 72.5942 72.5942 91.6113 48.9722 91.6113Z" fill="#000000" fill-opacity="0.85"/>
  <path d="M34.9326 69.502C41.582 69.502 46.605 65.0772 46.605 57.8589C46.605 52.1069 43.355 48.75 38.9356 48.3106L38.9356 48.1641C43.3301 47.0073 45.4819 43.0068 45.4819 38.875C45.4819 32.4395 40.8731 28.4761 34.7373 28.4761C29.7837 28.4761 25.8735 31.3232 24.4878 35.6538C24.2285 36.627 24.146 37.4907 24.146 38.2149C24.146 39.5537 24.9932 40.5811 26.5342 40.5811C27.937 40.5811 28.6563 39.9766 29.0386 38.5249C29.7593 35.3716 31.5337 33.0806 34.7373 33.0806C38.3232 33.0806 40.1396 35.9038 40.1396 39.5049C40.1396 43.3721 37.8687 46.293 33.9341 46.293L32.3989 46.293C30.9961 46.293 30.2129 47.1821 30.2129 48.4605C30.2129 49.7539 31.0903 50.5606 32.3989 50.5606L33.9829 50.5606C38.4814 50.5606 41.0488 53.0523 41.0488 57.7847C41.0488 61.5474 39.0605 64.8672 34.9478 64.8672C31.02 64.8672 29.0942 62.0659 28.5049 59.4111C28.1714 58.0606 27.3545 57.3516 26.0039 57.3516C24.4932 57.3516 23.481 58.3115 23.481 59.8374C23.481 60.6406 23.6426 61.5952 23.8867 62.3613C25.2388 66.8115 29.7349 69.502 34.9326 69.502ZM54.6367 68.6987L71.5044 68.6987C72.9141 68.6987 73.7881 67.7725 73.7881 66.3965C73.7881 64.9194 72.8804 64.0454 71.5044 64.0454L59.0088 64.0454L59.0088 63.7305L67.0005 53.1079C71.4746 47.3257 72.98 43.7275 72.98 39.5215C72.98 33.1416 68.957 28.2959 62.4307 28.2959C56.3926 28.2959 52.0498 33.502 52.0498 38.6255C52.0498 40.0083 52.8818 41.1113 54.4194 41.1113C55.7129 41.1113 56.5381 40.4697 56.9087 39.1914C57.6968 35.4356 59.19 32.9307 62.4273 32.9307C65.9507 32.9307 67.7017 36.1694 67.7017 39.7876C67.7017 43.5879 65.4819 47.2705 62.6821 50.9844L53.3535 63.3227C52.6411 64.2827 51.9858 65.2461 51.9858 66.4116C51.9858 67.7842 52.9087 68.6987 54.6367 68.6987Z" fill="#000000" fill-opacity="0.85"/>
 </g>
</svg>
