<?xml version="1.0" encoding="UTF-8"?>
<!--Generator: Apple Native CoreSVG 232.5-->
<!DOCTYPE svg
PUBLIC "-//W3C//DTD SVG 1.1//EN"
       "http://www.w3.org/Graphics/SVG/1.1/DTD/svg11.dtd">
<svg version="1.1" xmlns="http://www.w3.org/2000/svg" xmlns:xlink="http://www.w3.org/1999/xlink" width="97.9595" height="97.9932">
 <g>
  <rect height="97.9932" opacity="0" width="97.9595" x="0" y="0"/>
  <path d="M97.9595 48.9722C97.9595 75.7759 75.8247 97.9443 48.9722 97.9443C22.1685 97.9443 0 75.7759 0 48.9722C0 22.1348 22.1348 0 48.9385 0C75.791 0 97.9595 22.1348 97.9595 48.9722ZM23.979 35.3506C23.7046 36.3574 23.6221 37.27 23.6221 37.9941C23.6221 39.3667 24.5181 40.4277 26.0776 40.4277C27.5293 40.4277 28.2671 39.8081 28.6831 38.3379C29.4038 35.1172 31.2119 32.7925 34.4492 32.7925C38.1025 32.7925 39.9375 35.6494 39.9375 39.3027C39.9375 43.2524 37.6479 46.2256 33.6309 46.2256L32.0772 46.2256C30.6406 46.2256 29.8237 47.1484 29.8237 48.4605C29.8237 49.7876 30.7349 50.6279 32.0772 50.6279L33.6948 50.6279C38.2607 50.6279 40.8955 53.1382 40.8955 57.9717C40.8955 61.8018 38.8584 65.1553 34.6934 65.1553C30.6982 65.1553 28.7388 62.3203 28.1157 59.6318C27.7822 58.229 26.9316 57.5049 25.5625 57.5049C24.0181 57.5049 22.9722 58.4985 22.9722 60.0733C22.9722 60.895 23.1338 61.8496 23.3779 62.6646C24.7974 67.1856 29.3457 69.9248 34.6782 69.9248C41.4473 69.9248 46.605 65.4326 46.605 58.061C46.605 52.1743 43.2539 48.75 38.7671 48.3106L38.7671 48.1641C43.2627 46.9888 45.4482 42.8721 45.4482 38.688C45.4482 32.084 40.7534 28.0532 34.4492 28.0532C29.4097 28.0532 25.3833 30.9678 23.979 35.3506ZM52.1357 38.4048C52.1357 39.855 53.0166 40.9766 54.5879 40.9766C55.9151 40.9766 56.7588 40.3164 57.1631 39.0044C57.9663 35.166 59.478 32.6426 62.749 32.6426C66.3399 32.6426 68.1245 35.8999 68.1245 39.6006C68.1245 43.502 65.8374 47.2705 62.9854 51.0181L53.4883 63.5771C52.7759 64.5859 52.0869 65.5342 52.0869 66.7671C52.0869 68.1733 53.0435 69.1216 54.8052 69.1216L72.0132 69.1216C73.4903 69.1216 74.3643 68.1616 74.3643 66.752C74.3643 65.2075 73.4566 64.2998 72.0132 64.2998L59.2969 64.2998L59.2969 63.9849L67.457 53.1939C72.0171 47.292 73.5562 43.6416 73.5562 39.3193C73.5562 32.8047 69.4321 27.8882 62.7525 27.8882C56.5947 27.8882 52.1357 33.1802 52.1357 38.4048Z" fill="#000000" fill-opacity="0.85"/>
 </g>
</svg>
