<?xml version="1.0" encoding="UTF-8"?>
<!--Generator: Apple Native CoreSVG 232.5-->
<!DOCTYPE svg
PUBLIC "-//W3C//DTD SVG 1.1//EN"
       "http://www.w3.org/Graphics/SVG/1.1/DTD/svg11.dtd">
<svg version="1.1" xmlns="http://www.w3.org/2000/svg" xmlns:xlink="http://www.w3.org/1999/xlink" width="97.9595" height="97.9932">
 <g>
  <rect height="97.9932" opacity="0" width="97.9595" x="0" y="0"/>
  <path d="M97.9595 48.9722C97.9595 75.7759 75.8247 97.9443 48.9722 97.9443C22.1685 97.9443 0 75.7759 0 48.9722C0 22.1348 22.1348 0 48.9385 0C75.791 0 97.9595 22.1348 97.9595 48.9722ZM22.7095 35.3506C22.4502 36.3574 22.334 37.2363 22.334 37.9941C22.334 39.3667 23.2148 40.4277 24.8232 40.4277C26.2598 40.4277 26.9976 39.8081 27.4287 38.3379C28.1157 35.1172 29.9238 32.7925 33.1948 32.7925C36.8145 32.7925 38.6831 35.6494 38.6831 39.3027C38.6831 43.2524 36.3447 46.2256 32.3428 46.2256L30.7739 46.2256C29.3525 46.2256 28.5356 47.1484 28.5356 48.4605C28.5356 49.7876 29.4468 50.6279 30.7739 50.6279L32.4253 50.6279C36.9575 50.6279 39.5923 53.1382 39.5923 57.938C39.5923 61.7681 37.604 65.1553 33.4053 65.1553C29.4287 65.1553 27.4507 62.3203 26.8613 59.6318C26.4941 58.229 25.6772 57.5049 24.293 57.5049C22.7148 57.5049 21.6841 58.4985 21.6841 60.0733C21.6841 60.895 21.8306 61.8496 22.0898 62.6646C23.4941 67.1856 28.0913 69.9248 33.375 69.9248C40.1929 69.9248 45.3506 65.3989 45.3506 58.061C45.3506 52.1743 41.9995 48.75 37.479 48.3106L37.479 48.1641C42.0083 46.9888 44.1602 42.8721 44.1602 38.688C44.1602 32.084 39.4839 28.0532 33.1948 28.0532C28.1064 28.0532 24.1289 30.9678 22.7095 35.3506ZM61.7168 32.1963L51.5972 53.3472C50.8848 54.9219 50.6709 55.9981 50.6709 57.273C50.6709 59.2603 52.0132 60.6328 54.1099 60.6328L65.9795 60.6328L65.9795 66.7939C65.9795 68.874 67.396 69.6958 68.75 69.6958C70.2271 69.6958 71.5054 68.6602 71.5054 66.7939L71.5054 60.6328L73.793 60.6328C75.3526 60.6328 76.1104 59.6206 76.1104 58.2144C76.1104 56.9058 75.3745 55.8936 73.793 55.8936L71.5054 55.8936L71.5054 32.582C71.5054 29.6416 69.5889 28.188 67.022 28.188C64.2178 28.188 62.8906 29.6768 61.7168 32.1963ZM66.0806 55.9946L55.6914 55.9946L55.6914 55.7285L65.8853 33.582L66.0806 33.582Z" fill="#000000" fill-opacity="0.85"/>
 </g>
</svg>
