<?xml version="1.0" encoding="UTF-8"?>
<!--Generator: Apple Native CoreSVG 232.5-->
<!DOCTYPE svg
PUBLIC "-//W3C//DTD SVG 1.1//EN"
       "http://www.w3.org/Graphics/SVG/1.1/DTD/svg11.dtd">
<svg version="1.1" xmlns="http://www.w3.org/2000/svg" xmlns:xlink="http://www.w3.org/1999/xlink" width="97.9595" height="97.9932">
 <g>
  <rect height="97.9932" opacity="0" width="97.9595" x="0" y="0"/>
  <path d="M48.9722 97.9443C75.8247 97.9443 97.9595 75.7759 97.9595 48.9722C97.9595 22.1348 75.791 0 48.9385 0C22.1348 0 0 22.1348 0 48.9722C0 75.7759 22.1685 97.9443 48.9722 97.9443ZM48.9722 91.6113C25.3501 91.6113 6.36671 72.5942 6.36671 48.9722C6.36671 25.3501 25.3164 6.31789 48.9385 6.31789C72.5605 6.31789 91.6265 25.3501 91.6265 48.9722C91.6265 72.5942 72.5942 91.6113 48.9722 91.6113Z" fill="#000000" fill-opacity="0.85"/>
  <path d="M33.6782 69.502C40.3462 69.502 45.3691 65.0772 45.3691 57.8589C45.3691 52.1069 42.1191 48.75 37.666 48.3106L37.666 48.1641C42.1094 47.0073 44.2275 43.0068 44.2275 38.875C44.2275 32.4395 39.6523 28.4761 33.4829 28.4761C28.5293 28.4761 24.6377 31.3232 23.2671 35.6538C22.9927 36.627 22.8765 37.4907 22.8765 38.2149C22.8765 39.5537 23.7388 40.5811 25.2983 40.5811C26.7163 40.5811 27.4204 39.9766 27.8027 38.5249C28.5049 35.3716 30.2793 33.0806 33.4829 33.0806C37.0688 33.0806 38.9038 35.9038 38.9038 39.5049C38.9038 43.3721 36.6143 46.293 32.6646 46.293L31.1294 46.293C29.7417 46.293 28.9585 47.1821 28.9585 48.4605C28.9585 49.7539 29.8359 50.5606 31.1294 50.5606L32.7471 50.5606C37.2119 50.5606 39.7944 53.0523 39.7944 57.7847C39.7944 61.5474 37.8247 64.8672 33.6934 64.8672C29.7842 64.8672 27.8247 62.0659 27.2691 59.4111C26.917 58.0606 26.1338 57.3516 24.7832 57.3516C23.2388 57.3516 22.2266 58.3115 22.2266 59.8374C22.2266 60.6406 22.3882 61.5952 22.6323 62.3613C24.0181 66.8115 28.5142 69.502 33.6782 69.502ZM68.3086 69.273C69.752 69.273 70.9629 68.271 70.9629 66.4722L70.9629 60.3784L73.2505 60.3784C74.7427 60.3784 75.5005 59.3999 75.5005 58.0274C75.5005 56.7373 74.7647 55.7588 73.2505 55.7588L70.9629 55.7588L70.9629 32.8701C70.9629 30.0308 69.1138 28.5957 66.6328 28.5957C63.896 28.5957 62.6025 30.0659 61.4624 32.5181L51.4961 53.2949C50.8325 54.8208 50.6035 55.8784 50.6035 57.1045C50.6035 59.0396 51.9121 60.3784 53.9414 60.3784L65.5903 60.3784L65.5903 66.4722C65.5903 68.4849 66.9732 69.273 68.3086 69.273ZM65.6914 55.8599L55.5044 55.8599L55.5044 55.5938L65.4961 33.8701L65.6914 33.8701Z" fill="#000000" fill-opacity="0.85"/>
 </g>
</svg>
