<?xml version="1.0" encoding="UTF-8"?>
<!--Generator: Apple Native CoreSVG 232.5-->
<!DOCTYPE svg
PUBLIC "-//W3C//DTD SVG 1.1//EN"
       "http://www.w3.org/Graphics/SVG/1.1/DTD/svg11.dtd">
<svg version="1.1" xmlns="http://www.w3.org/2000/svg" xmlns:xlink="http://www.w3.org/1999/xlink" width="88.4092" height="88.5371">
 <g>
  <rect height="88.5371" opacity="0" width="88.4092" x="0" y="0"/>
  <path d="M88.4092 14.4019L88.4092 74.2632C88.4092 83.6558 83.5733 88.5371 74.0005 88.5371L14.3936 88.5371C4.86963 88.5371 0 83.7349 0 74.2632L0 14.4019C0 4.93018 4.86963 0.127929 14.3936 0.127929L74.0005 0.127929C83.5733 0.127929 88.4092 5.00928 88.4092 14.4019ZM17.9663 30.6226C17.6919 31.6294 17.5757 32.5083 17.5757 33.2661C17.5757 34.6387 18.4717 35.6997 20.0649 35.6997C21.5166 35.6997 22.2544 35.0801 22.6704 33.6099C23.3726 30.3892 25.1655 28.0645 28.4365 28.0645C32.0561 28.0645 33.9248 30.9214 33.9248 34.5747C33.9248 38.5244 31.6016 41.4976 27.5996 41.4976L26.0308 41.4976C24.6279 41.4976 23.7925 42.4204 23.7925 43.7324C23.7925 45.0596 24.7036 45.8999 26.0308 45.8999L27.6821 45.8999C32.248 45.8999 34.8491 48.4102 34.8491 53.21C34.8491 57.04 32.8457 60.4272 28.6807 60.4272C24.6855 60.4272 22.6924 57.5923 22.103 54.9038C21.7358 53.501 20.9189 52.7769 19.5498 52.7769C18.0054 52.7769 16.9258 53.7705 16.9258 55.3452C16.9258 56.167 17.0874 57.1216 17.3315 57.9365C18.751 62.4575 23.333 65.1968 28.6318 65.1968C35.4346 65.1968 40.5923 60.6709 40.5923 53.333C40.5923 47.4463 37.2412 44.022 32.7207 43.5825L32.7207 43.436C37.2651 42.2607 39.4019 38.144 39.4019 33.96C39.4019 27.356 34.7407 23.3252 28.4365 23.3252C23.3633 23.3252 19.3706 26.2397 17.9663 30.6226ZM56.9736 27.4683L46.854 48.6191C46.1753 50.1938 45.9126 51.27 45.9126 52.5449C45.9126 54.5322 47.27 55.9048 49.3516 55.9048L61.2363 55.9048L61.2363 62.0659C61.2363 64.146 62.6377 64.9678 64.0068 64.9678C65.4839 64.9678 66.7622 63.9321 66.7622 62.0659L66.7622 55.9048L69.0498 55.9048C70.6094 55.9048 71.3858 54.8926 71.3858 53.4863C71.3858 52.1777 70.6314 51.1655 69.0498 51.1655L66.7622 51.1655L66.7622 27.854C66.7622 24.9136 64.8457 23.46 62.2788 23.46C59.4746 23.46 58.1475 24.9487 56.9736 27.4683ZM61.3223 51.2666L50.9483 51.2666L50.9483 51.0005L61.127 28.854L61.3223 28.854Z" fill="#000000" fill-opacity="0.85"/>
 </g>
</svg>
