<?xml version="1.0" encoding="UTF-8"?>
<!--Generator: Apple Native CoreSVG 232.5-->
<!DOCTYPE svg
PUBLIC "-//W3C//DTD SVG 1.1//EN"
       "http://www.w3.org/Graphics/SVG/1.1/DTD/svg11.dtd">
<svg version="1.1" xmlns="http://www.w3.org/2000/svg" xmlns:xlink="http://www.w3.org/1999/xlink" width="97.9595" height="97.9932">
 <g>
  <rect height="97.9932" opacity="0" width="97.9595" x="0" y="0"/>
  <path d="M97.9595 48.9722C97.9595 75.7759 75.8247 97.9443 48.9722 97.9443C22.1685 97.9443 0 75.7759 0 48.9722C0 22.1348 22.1348 0 48.9385 0C75.791 0 97.9595 22.1348 97.9595 48.9722ZM57.4893 28.8076C55.2275 28.8076 54.2676 30.2593 54.0874 32.4419L53.1699 46.9985C53.1211 47.7949 53.0571 48.6519 53.0571 49.2295C53.0571 50.8008 53.8975 52.1465 55.772 52.1465C56.9878 52.1465 57.6665 51.5791 58.48 50.3936C59.6973 48.4458 61.2393 47.0923 63.5137 47.0923C67.6182 47.0923 69.3369 51.9443 69.3369 56.0488C69.3369 60.6265 67.5357 65.2681 63.3858 65.2681C60.2207 65.2681 58.2798 62.8272 57.4429 59.7446C56.9932 58.2661 56.082 57.6851 54.9907 57.6851C53.4649 57.6851 52.52 58.645 52.52 60.1524C52.52 61.0669 52.8013 62.0689 53.1011 62.8486C54.647 67.147 58.8062 70.0562 63.4531 70.0562C70.9361 70.0562 74.979 63.4644 74.979 55.8989C74.979 49.1016 71.6856 42.7085 65.2857 42.7085C62.4282 42.7085 59.5542 44.0303 58.209 47.0928L58.0103 47.0928L58.9614 33.6934L71.0352 33.6934C72.4751 33.6934 73.3526 32.6997 73.3526 31.2261C73.3526 29.8687 72.4111 28.8076 71.0352 28.8076ZM23.6289 35.3506C23.3545 36.3574 23.2383 37.2363 23.2383 37.9941C23.2383 39.3667 24.1006 40.4277 25.7275 40.4277C27.1792 40.4277 27.917 39.8081 28.2993 38.3379C29.02 35.1172 30.8281 32.7925 34.0654 32.7925C37.7187 32.7925 39.5874 35.6494 39.5874 39.3027C39.5874 43.2524 37.2642 46.2256 33.2471 46.2256L31.6782 46.2256C30.2568 46.2256 29.4399 47.1484 29.4399 48.4605C29.4399 49.7876 30.3511 50.6279 31.6782 50.6279L33.3447 50.6279C37.8618 50.6279 40.478 53.1382 40.478 57.938C40.478 61.7681 38.4746 65.1553 34.2759 65.1553C30.3145 65.1553 28.3213 62.3203 27.7656 59.6133C27.3984 58.229 26.5815 57.5049 25.1973 57.5049C23.6006 57.5049 22.5547 58.4985 22.5547 60.0733C22.5547 60.895 22.7163 61.8496 22.9941 62.6646C24.3799 67.1856 28.9956 69.9248 34.2607 69.9248C41.0972 69.9248 46.2549 65.3989 46.2549 58.061C46.2549 52.1743 42.9038 48.75 38.3833 48.3106L38.3833 48.1304C42.8789 46.9888 45.0645 42.8721 45.0645 38.688C45.0645 32.084 40.3696 28.0532 34.0654 28.0532C29.0259 28.0532 25.0332 30.9678 23.6289 35.3506Z" fill="#000000" fill-opacity="0.85"/>
 </g>
</svg>
