<?xml version="1.0" encoding="UTF-8"?>
<!--Generator: Apple Native CoreSVG 232.5-->
<!DOCTYPE svg
PUBLIC "-//W3C//DTD SVG 1.1//EN"
       "http://www.w3.org/Graphics/SVG/1.1/DTD/svg11.dtd">
<svg version="1.1" xmlns="http://www.w3.org/2000/svg" xmlns:xlink="http://www.w3.org/1999/xlink" width="88.4092" height="88.5371">
 <g>
  <rect height="88.5371" opacity="0" width="88.4092" x="0" y="0"/>
  <path d="M14.3936 88.5371L74.0005 88.5371C83.5733 88.5371 88.4092 83.6558 88.4092 74.2632L88.4092 14.4019C88.4092 5.00928 83.5733 0.127929 74.0005 0.127929L14.3936 0.127929C4.86963 0.127929 0 4.93018 0 14.4019L0 74.2632C0 83.7349 4.86963 88.5371 14.3936 88.5371ZM14.5064 82.4922C9.00294 82.4922 6.04494 79.6016 6.04494 73.9634L6.04494 14.7017C6.04494 9.06349 9.00294 6.17287 14.5064 6.17287L73.9028 6.17287C79.2969 6.17287 82.3643 9.06349 82.3643 14.7017L82.3643 73.9634C82.3643 79.6016 79.2969 82.4922 73.9028 82.4922Z" fill="#000000" fill-opacity="0.85"/>
  <path d="M29.8394 64.7739C36.5073 64.7739 41.5303 60.3491 41.5303 53.1309C41.5303 47.3789 38.2803 44.022 33.8272 43.5825L33.8272 43.436C38.2705 42.2793 40.3887 38.2788 40.3887 34.147C40.3887 27.7114 35.8135 23.7481 29.644 23.7481C24.6904 23.7481 20.7988 26.5952 19.4282 30.9258C19.1538 31.8989 19.0376 32.7627 19.0376 33.4868C19.0376 34.8257 19.8999 35.853 21.4595 35.853C22.8774 35.853 23.5815 35.2485 23.9639 33.7969C24.666 30.6436 26.4404 28.3526 29.644 28.3526C33.2637 28.3526 35.0649 31.1758 35.0649 34.7769C35.0649 38.644 32.7754 41.5649 28.8257 41.5649L27.2905 41.5649C25.9365 41.5649 25.1196 42.4541 25.1196 43.7324C25.1196 45.0259 25.9971 45.8325 27.2905 45.8325L28.9082 45.8325C33.4067 45.8325 35.9556 48.3242 35.9556 53.0566C35.9556 56.8193 33.9858 60.1392 29.8882 60.1392C25.9453 60.1392 23.9858 57.3379 23.4302 54.6831C23.063 53.3325 22.2949 52.6235 20.9443 52.6235C19.4336 52.6235 18.3877 53.5835 18.3877 55.1094C18.3877 55.9126 18.5493 56.8672 18.7935 57.6333C20.1792 62.0835 24.6753 64.7739 29.8394 64.7739ZM58.3731 64.9053C65.7026 64.9053 69.6597 58.4482 69.6597 51.0361C69.6597 44.3735 66.4522 38.1001 60.1533 38.1001C57.3633 38.1001 54.5752 39.4033 53.23 42.4321L53.0313 42.4321L53.9824 29.2197L65.8018 29.2197C67.208 29.2197 68.0518 28.2598 68.0518 26.8535C68.0518 25.5298 67.1592 24.5024 65.8018 24.5024L52.544 24.5024C50.3496 24.5024 49.4082 25.9204 49.2432 28.0357L48.3257 42.3379C48.2769 43.1006 48.2466 43.9575 48.2466 44.5015C48.2466 46.0391 49.0532 47.3511 50.8604 47.3511C52.0425 47.3511 52.6875 46.7837 53.5161 45.6318C54.6997 43.7178 56.208 42.3643 58.4487 42.3643C62.4858 42.3643 64.1709 47.1489 64.1709 51.186C64.1709 55.6626 62.4219 60.252 58.3208 60.252C55.2568 60.252 53.3159 57.8296 52.4976 54.7959C52.0479 53.3848 51.1704 52.7886 50.0791 52.7886C48.6206 52.7886 47.7095 53.73 47.7095 55.1885C47.7095 56.0845 47.957 57.0376 48.2568 57.8325C49.7691 62.0298 53.8272 64.9053 58.3731 64.9053Z" fill="#000000" fill-opacity="0.85"/>
 </g>
</svg>
