<?xml version="1.0" encoding="UTF-8"?>
<!--Generator: Apple Native CoreSVG 232.5-->
<!DOCTYPE svg
PUBLIC "-//W3C//DTD SVG 1.1//EN"
       "http://www.w3.org/Graphics/SVG/1.1/DTD/svg11.dtd">
<svg version="1.1" xmlns="http://www.w3.org/2000/svg" xmlns:xlink="http://www.w3.org/1999/xlink" width="97.9595" height="97.9932">
 <g>
  <rect height="97.9932" opacity="0" width="97.9595" x="0" y="0"/>
  <path d="M97.9595 48.9722C97.9595 75.7759 75.8247 97.9443 48.9722 97.9443C22.1685 97.9443 0 75.7759 0 48.9722C0 22.1348 22.1348 0 48.9385 0C75.791 0 97.9595 22.1348 97.9595 48.9722ZM51.2588 49.6118C51.2588 58.9668 54.1533 70.0562 63.7647 70.0562C71.1162 70.0562 75.208 63.6411 75.208 55.9883C75.208 49.2315 71.9668 42.8013 65.3867 42.8013C61.0733 42.8013 57.9785 45.8535 56.9463 50.2564L56.7847 50.2564C56.7847 50.0308 56.7847 49.8052 56.7847 49.6133C56.7847 43.5776 57.5708 32.7588 63.7461 32.7588C66.416 32.7588 68.1113 34.7183 69.0693 37.2417C69.6016 38.5469 70.3359 39.2305 71.7202 39.2305C73.2984 39.2305 74.0747 38.1812 74.0747 36.8086C74.0747 36.332 73.9619 35.6821 73.7852 34.9868C72.6807 30.7017 68.6494 27.9707 63.8623 27.9707C53.9985 27.9707 51.2588 39.9214 51.2588 49.6118ZM23.0952 35.3506C22.8208 36.3574 22.7046 37.2363 22.7046 37.9941C22.7046 39.3667 23.5669 40.4277 25.1938 40.4277C26.6455 40.4277 27.3833 39.8081 27.7656 38.3379C28.52 35.1172 30.2607 32.7925 33.5654 32.7925C37.2187 32.7925 39.0537 35.6494 39.0537 39.3027C39.0537 43.2524 36.7305 46.2256 32.7134 46.2256L31.1782 46.2256C29.7568 46.2256 28.9062 47.1484 28.9062 48.4605C28.9062 49.7876 29.8511 50.6279 31.1782 50.6279L32.7773 50.6279C37.3618 50.6279 39.978 53.1382 39.978 57.938C39.978 61.7681 37.9409 65.1553 33.7759 65.1553C29.7656 65.1553 27.7876 62.3203 27.2319 59.6318C26.8648 58.229 26.0479 57.5049 24.6299 57.5049C23.1006 57.5049 22.0547 58.4985 22.0547 60.0733C22.0547 60.895 22.1826 61.8496 22.4268 62.6646C23.8462 67.1856 28.4619 69.9248 33.7271 69.9248C40.5635 69.9248 45.6875 65.3989 45.6875 58.061C45.6875 52.1743 42.3701 48.75 37.8496 48.3106L37.8496 48.1641C42.3452 46.9888 44.5308 42.8721 44.5308 38.688C44.5308 32.084 39.8359 28.0532 33.5654 28.0532C28.4922 28.0532 24.4995 30.9678 23.0952 35.3506ZM69.6148 56.2241C69.6148 60.3555 67.6973 65.2681 63.6973 65.2681C59.4986 65.2681 57.6367 60.1231 57.6367 55.9346C57.6367 51.8789 59.6753 47.3047 63.6821 47.3047C67.8169 47.3047 69.6821 52.044 69.6148 56.2241Z" fill="#000000" fill-opacity="0.85"/>
 </g>
</svg>
