<?xml version="1.0" encoding="UTF-8"?>
<!--Generator: Apple Native CoreSVG 232.5-->
<!DOCTYPE svg
PUBLIC "-//W3C//DTD SVG 1.1//EN"
       "http://www.w3.org/Graphics/SVG/1.1/DTD/svg11.dtd">
<svg version="1.1" xmlns="http://www.w3.org/2000/svg" xmlns:xlink="http://www.w3.org/1999/xlink" width="97.9595" height="97.9932">
 <g>
  <rect height="97.9932" opacity="0" width="97.9595" x="0" y="0"/>
  <path d="M97.9595 48.9722C97.9595 75.7759 75.8247 97.9443 48.9722 97.9443C22.1685 97.9443 0 75.7759 0 48.9722C0 22.1348 22.1348 0 48.9385 0C75.791 0 97.9595 22.1348 97.9595 48.9722ZM25.3413 35.3506C25.0669 36.3574 24.9507 37.2363 24.9507 37.9941C24.9507 39.3667 25.813 40.4277 27.4399 40.4277C28.8765 40.4277 29.6294 39.8081 30.0117 38.3379C30.7661 35.1172 32.5068 32.7925 35.7778 32.7925C39.4648 32.7925 41.2998 35.6494 41.2998 39.3027C41.2998 43.2524 38.9766 46.2256 34.9258 46.2256L33.3906 46.2256C32.0029 46.2256 31.1523 47.1484 31.1523 48.4605C31.1523 49.7876 32.0635 50.6279 33.3906 50.6279L35.0234 50.6279C39.6079 50.6279 42.2241 53.1382 42.2241 57.938C42.2241 61.7681 40.187 65.1553 36.022 65.1553C32.0117 65.1553 30.0337 62.3203 29.478 59.6318C29.0772 58.229 28.2939 57.5049 26.876 57.5049C25.3467 57.5049 24.2671 58.4985 24.2671 60.0733C24.2671 60.895 24.4287 61.8496 24.6728 62.6646C26.0771 67.1856 30.708 69.9248 35.9731 69.9248C42.8096 69.9248 47.9336 65.3989 47.9336 58.061C47.9336 52.1743 44.6162 48.75 40.062 48.3106L40.062 48.1641C44.5913 46.9888 46.7769 42.8721 46.7769 38.688C46.7769 32.084 42.082 28.0532 35.7778 28.0532C30.7231 28.0532 26.7456 30.9678 25.3413 35.3506ZM54.8374 28.8076C53.4126 28.8076 52.4526 29.8501 52.4526 31.2261C52.4526 32.6358 53.4126 33.6631 54.8374 33.6631L68.5791 33.6631L68.5791 34.042L56.792 64.7612C56.4434 65.6724 56.312 66.2466 56.312 67.2251C56.312 68.4629 57.0698 69.7446 58.9663 69.7446C60.4248 69.7446 61.1372 69.1182 61.666 67.6108L73.6738 35.4634C74.1236 34.249 74.4536 33.21 74.4536 32.0327C74.4536 30.0977 72.9951 28.8076 71.0972 28.8076Z" fill="#000000" fill-opacity="0.85"/>
 </g>
</svg>
