<?xml version="1.0" encoding="UTF-8"?>
<!--Generator: Apple Native CoreSVG 232.5-->
<!DOCTYPE svg
PUBLIC "-//W3C//DTD SVG 1.1//EN"
       "http://www.w3.org/Graphics/SVG/1.1/DTD/svg11.dtd">
<svg version="1.1" xmlns="http://www.w3.org/2000/svg" xmlns:xlink="http://www.w3.org/1999/xlink" width="97.9595" height="97.9932">
 <g>
  <rect height="97.9932" opacity="0" width="97.9595" x="0" y="0"/>
  <path d="M48.9722 97.9443C75.8247 97.9443 97.9595 75.7759 97.9595 48.9722C97.9595 22.1348 75.791 0 48.9385 0C22.1348 0 0 22.1348 0 48.9722C0 75.7759 22.1685 97.9443 48.9722 97.9443ZM48.9722 91.6113C25.3501 91.6113 6.36671 72.5942 6.36671 48.9722C6.36671 25.3501 25.3164 6.31789 48.9385 6.31789C72.5605 6.31789 91.6265 25.3501 91.6265 48.9722C91.6265 72.5942 72.5942 91.6113 48.9722 91.6113Z" fill="#000000" fill-opacity="0.85"/>
  <path d="M33.9243 69.502C40.6074 69.502 45.6304 65.0772 45.6304 57.8589C45.6304 52.1069 42.3804 48.75 37.9273 48.3106L37.9273 48.1641C42.3555 47.0073 44.4736 43.0068 44.4736 38.875C44.4736 32.4395 39.9136 28.4761 33.7441 28.4761C28.7905 28.4761 24.8989 31.3232 23.5283 35.6538C23.2539 36.627 23.1377 37.4907 23.1377 38.2149C23.1377 39.5537 24 40.5811 25.5596 40.5811C26.9775 40.5811 27.6816 39.9766 28.064 38.5249C28.7661 35.3716 30.5405 33.0806 33.7441 33.0806C37.3638 33.0806 39.165 35.9038 39.165 39.5049C39.165 43.3721 36.8604 46.293 32.9258 46.293L31.3906 46.293C30.0366 46.293 29.2197 47.1821 29.2197 48.4605C29.2197 49.7539 30.0972 50.5606 31.3906 50.5606L33.0083 50.5606C37.5068 50.5606 40.0557 53.0523 40.0557 57.7847C40.0557 61.5474 38.0859 64.8672 33.9883 64.8672C30.0454 64.8672 28.0859 62.0659 27.5303 59.4111C27.1631 58.0606 26.3799 57.3516 25.0293 57.3516C23.5186 57.3516 22.4878 58.3115 22.4878 59.8374C22.4878 60.6406 22.6494 61.5952 22.8936 62.3613C24.2642 66.8115 28.7603 69.502 33.9243 69.502ZM63.0405 69.502C70.3804 69.502 75.085 64.6528 75.085 58.0391C75.085 52.9136 71.9126 48.8442 67.961 47.9502L67.961 47.834C71.3687 46.7026 73.9922 43.3775 73.9922 38.981C73.9922 32.9243 69.668 28.4912 63.0405 28.4912C57.0767 28.4912 52.2017 32.4746 52.2017 38.9473C52.2017 43.6099 54.8994 46.7363 58.2666 47.834L58.2666 47.9502C54.1314 48.8779 51.0786 52.9321 51.0786 58.0391C51.0786 64.9326 56.0781 69.502 63.0405 69.502ZM63.0708 45.9663C59.8281 45.9663 57.6416 43.0298 57.6416 39.4981C57.6416 35.8887 59.6953 32.8076 63.0708 32.8076C66.6836 32.8076 68.5186 36.0855 68.5186 39.4981C68.5186 43.1294 66.438 45.9663 63.0708 45.9663ZM63.0708 65.1519C59.1011 65.1519 56.9195 61.6753 56.9195 57.6382C56.9195 53.6533 59.1162 50.3316 63.0708 50.3316C66.8438 50.3316 69.2593 53.3521 69.2593 57.6382C69.2593 61.6602 67.1079 65.1519 63.0708 65.1519Z" fill="#000000" fill-opacity="0.85"/>
 </g>
</svg>
