<?xml version="1.0" encoding="UTF-8"?>
<!--Generator: Apple Native CoreSVG 232.5-->
<!DOCTYPE svg
PUBLIC "-//W3C//DTD SVG 1.1//EN"
       "http://www.w3.org/Graphics/SVG/1.1/DTD/svg11.dtd">
<svg version="1.1" xmlns="http://www.w3.org/2000/svg" xmlns:xlink="http://www.w3.org/1999/xlink" width="88.4092" height="88.5371">
 <g>
  <rect height="88.5371" opacity="0" width="88.4092" x="0" y="0"/>
  <path d="M88.4092 14.4019L88.4092 74.2632C88.4092 83.6558 83.5733 88.5371 74.0005 88.5371L14.3936 88.5371C4.86963 88.5371 0 83.7349 0 74.2632L0 14.4019C0 4.93018 4.86963 0.127929 14.3936 0.127929L74.0005 0.127929C83.5733 0.127929 88.4092 5.00928 88.4092 14.4019ZM18.2275 30.6226C17.9531 31.6294 17.8706 32.5083 17.8706 33.2661C17.8706 34.6387 18.7666 35.6997 20.3262 35.6997C21.8115 35.6997 22.5156 35.0801 22.9316 33.6099C23.6675 30.3892 25.4268 28.0645 28.7314 28.0645C32.3848 28.0645 34.186 30.9214 34.186 34.5747C34.186 38.5244 31.8628 41.4976 27.8794 41.4976L26.3442 41.4976C24.8892 41.4976 24.0723 42.4204 24.0723 43.7324C24.0723 45.0596 24.9834 45.8999 26.3442 45.8999L27.9434 45.8999C32.5278 45.8999 35.144 48.4102 35.144 53.21C35.144 57.04 33.1069 60.4272 28.9419 60.4272C24.9468 60.4272 22.9536 57.5923 22.3643 54.9038C22.0308 53.501 21.1802 52.7769 19.811 52.7769C18.2666 52.7769 17.2207 53.7705 17.2207 55.3452C17.2207 56.167 17.3486 57.1216 17.5928 57.9365C19.0122 62.4575 23.5942 65.1968 28.8931 65.1968C35.6958 65.1968 40.8535 60.6709 40.8535 53.333C40.8535 47.4463 37.5361 44.022 33.0156 43.5825L33.0156 43.436C37.5112 42.2607 39.6631 38.144 39.6631 33.96C39.6631 27.356 35.002 23.3252 28.7314 23.3252C23.6245 23.3252 19.6318 26.2397 18.2275 30.6226ZM47.5596 34.0322C47.5596 38.7959 50.3096 41.9746 53.7441 43.0723L53.7441 43.1885C49.5078 44.1499 46.4028 48.2564 46.4028 53.4981C46.4028 60.5601 51.522 65.1968 58.6528 65.1968C66.146 65.1968 70.9517 60.2466 70.9517 53.4981C70.9517 48.2529 67.7119 44.1162 63.6592 43.1885L63.6592 43.0723C67.1343 41.9409 69.8252 38.5635 69.8252 34.0659C69.8252 27.8408 65.3999 23.3403 58.6528 23.3403C52.5879 23.3403 47.5596 27.3911 47.5596 34.0322ZM64.9575 53.0786C64.9575 57.1528 62.7725 60.7119 58.7017 60.7119C54.6309 60.7119 52.4307 57.168 52.4307 53.0786C52.4307 49.0112 54.6611 45.6372 58.7017 45.6372C62.5234 45.6372 64.9575 48.71 64.9575 53.0786ZM64.1982 34.583C64.1982 38.2666 62.1177 41.1709 58.7017 41.1709C55.3731 41.1709 53.1529 38.167 53.1529 34.583C53.1529 30.9063 55.2588 27.7915 58.7017 27.7915C62.3482 27.7915 64.1982 31.0879 64.1982 34.583Z" fill="#000000" fill-opacity="0.85"/>
 </g>
</svg>
