<?xml version="1.0" encoding="UTF-8"?>
<!--Generator: Apple Native CoreSVG 232.5-->
<!DOCTYPE svg
PUBLIC "-//W3C//DTD SVG 1.1//EN"
       "http://www.w3.org/Graphics/SVG/1.1/DTD/svg11.dtd">
<svg version="1.1" xmlns="http://www.w3.org/2000/svg" xmlns:xlink="http://www.w3.org/1999/xlink" width="97.9595" height="97.9932">
 <g>
  <rect height="97.9932" opacity="0" width="97.9595" x="0" y="0"/>
  <path d="M97.9595 48.9722C97.9595 75.7759 75.8247 97.9443 48.9722 97.9443C22.1685 97.9443 0 75.7759 0 48.9722C0 22.1348 22.1348 0 48.9385 0C75.791 0 97.9595 22.1348 97.9595 48.9722ZM51.1846 42.0689C51.1846 48.7954 54.4258 55.2105 61.0244 55.2105C65.3345 55.2105 68.3804 52.1733 69.4463 47.7705L69.6416 47.7705C69.6416 47.9961 69.6416 48.2217 69.6416 48.4136C69.6416 54.4492 68.8369 65.189 62.5674 65.189C59.9429 65.189 58.2476 63.3086 57.3081 60.6607C56.6968 59.167 55.9019 58.6231 54.6909 58.6231C52.9815 58.6231 52.2202 59.7515 52.2202 61.124C52.2202 61.6494 52.3516 62.3145 52.5772 62.9307C53.7119 67.3252 57.7095 70.0073 62.5303 70.0073C72.4429 70.0073 75.1489 58.2637 75.1489 48.415C75.1489 39.0601 72.273 27.9404 62.6094 27.9404C55.3218 27.9404 51.1846 34.3857 51.1846 42.0689ZM23.2617 35.3506C22.9873 36.3574 22.9048 37.2363 22.9048 37.9941C22.9048 39.3667 23.7671 40.4277 25.3604 40.4277C26.812 40.4277 27.5498 39.8081 27.9321 38.3379C28.7017 35.1172 30.4273 32.7925 33.7319 32.7925C37.3853 32.7925 39.2202 35.6494 39.2202 39.3027C39.2202 43.2524 36.9307 46.2256 32.895 46.2256L31.3599 46.2256C29.9233 46.2256 29.1064 47.1484 29.1064 48.4605C29.1064 49.7876 30.0176 50.6279 31.3599 50.6279L32.9438 50.6279C37.5435 50.6279 40.1445 53.1382 40.1445 57.938C40.1445 61.7681 38.1074 65.1553 33.9424 65.1553C29.9473 65.1553 27.9541 62.3203 27.3984 59.6318C27.0313 58.229 26.2144 57.5049 24.8452 57.5049C23.2671 57.5049 22.2212 58.4985 22.2212 60.0733C22.2212 60.895 22.3828 61.8496 22.6269 62.6646C24.0127 67.1856 28.6284 69.9248 33.9272 69.9248C40.73 69.9248 45.854 65.3989 45.854 58.061C45.854 52.1743 42.5366 48.75 38.0161 48.3106L38.0161 48.1641C42.5269 46.9888 44.6973 42.8721 44.6973 38.688C44.6973 32.084 40.0024 28.0532 33.7319 28.0532C28.6587 28.0532 24.666 30.9678 23.2617 35.3506ZM68.771 41.833C68.771 46.148 66.6836 50.6582 62.6768 50.6582C58.542 50.6582 56.7593 45.9829 56.7593 41.833C56.7593 37.604 58.7105 32.7437 62.6768 32.7437C66.8941 32.7437 68.771 37.6343 68.771 41.833Z" fill="#000000" fill-opacity="0.85"/>
 </g>
</svg>
