<?xml version="1.0" encoding="UTF-8"?>
<!--Generator: Apple Native CoreSVG 232.5-->
<!DOCTYPE svg
PUBLIC "-//W3C//DTD SVG 1.1//EN"
       "http://www.w3.org/Graphics/SVG/1.1/DTD/svg11.dtd">
<svg version="1.1" xmlns="http://www.w3.org/2000/svg" xmlns:xlink="http://www.w3.org/1999/xlink" width="97.9595" height="97.9932">
 <g>
  <rect height="97.9932" opacity="0" width="97.9595" x="0" y="0"/>
  <path d="M48.9722 97.9443C75.8247 97.9443 97.9595 75.7759 97.9595 48.9722C97.9595 22.1348 75.791 0 48.9385 0C22.1348 0 0 22.1348 0 48.9722C0 75.7759 22.1685 97.9443 48.9722 97.9443ZM48.9722 91.6113C25.3501 91.6113 6.36671 72.5942 6.36671 48.9722C6.36671 25.3501 25.3164 6.31789 48.9385 6.31789C72.5605 6.31789 91.6265 25.3501 91.6265 48.9722C91.6265 72.5942 72.5942 91.6113 48.9722 91.6113Z" fill="#000000" fill-opacity="0.85"/>
  <path d="M34.2153 69.502C40.8648 69.502 45.8877 65.0772 45.8877 57.8589C45.8877 52.1069 42.6377 48.75 38.2183 48.3106L38.2183 48.1641C42.6128 47.0073 44.731 43.0068 44.731 38.875C44.731 32.4395 40.1709 28.4761 34.02 28.4761C29.0479 28.4761 25.1562 31.3232 23.7705 35.6538C23.5112 36.627 23.4287 37.4907 23.4287 38.2149C23.4287 39.5537 24.2759 40.5811 25.8169 40.5811C27.2197 40.5811 27.939 39.9766 28.3213 38.5249C29.0571 35.3716 30.7827 33.0806 34.02 33.0806C37.606 33.0806 39.4224 35.9038 39.4224 39.5049C39.4224 43.3721 37.1514 46.293 33.2168 46.293L31.6816 46.293C30.2788 46.293 29.4956 47.1821 29.4956 48.4605C29.4956 49.7539 30.373 50.5606 31.6816 50.5606L33.2656 50.5606C37.7642 50.5606 40.3315 53.0523 40.3315 57.7847C40.3315 61.5474 38.3433 64.8672 34.2456 64.8672C30.3027 64.8672 28.3433 62.0659 27.7876 59.4111C27.4541 58.0606 26.6372 57.3516 25.2866 57.3516C23.7759 57.3516 22.7788 58.3115 22.7788 59.8374C22.7788 60.6406 22.9253 61.5952 23.1846 62.3613C24.5215 66.8115 29.0176 69.502 34.2153 69.502ZM60.7363 55.0757C64.979 55.0757 67.9575 52.106 69.0049 47.7705L69.2002 47.7705C69.2002 47.9961 69.2002 48.2217 69.2002 48.4136C69.2002 54.3481 68.3804 64.9009 62.2456 64.9009C59.6548 64.9009 57.9932 63.0542 57.0537 60.4399C56.4761 58.98 55.6812 58.436 54.5039 58.436C52.8467 58.436 52.1191 59.5156 52.1191 60.8545C52.1191 61.395 52.2656 62.0112 52.4424 62.6426C53.5772 66.9512 57.4888 69.5845 62.2085 69.5845C71.8853 69.5845 74.5239 58.0767 74.5239 48.415C74.5239 39.2471 71.7305 28.3633 62.2876 28.3633C55.1533 28.3633 51.0986 34.6738 51.0986 42.1885C51.0986 48.7954 54.2725 55.0757 60.7363 55.0757ZM62.3399 50.6582C58.2876 50.6582 56.4898 46.084 56.4898 42.0015C56.4898 37.8247 58.4224 32.9981 62.3399 32.9981C66.4863 32.9981 68.3481 37.8701 68.3481 42.0015C68.3481 46.2153 66.2944 50.6582 62.3399 50.6582Z" fill="#000000" fill-opacity="0.85"/>
 </g>
</svg>
