<?xml version="1.0" encoding="UTF-8"?>
<!--Generator: Apple Native CoreSVG 232.5-->
<!DOCTYPE svg
PUBLIC "-//W3C//DTD SVG 1.1//EN"
       "http://www.w3.org/Graphics/SVG/1.1/DTD/svg11.dtd">
<svg version="1.1" xmlns="http://www.w3.org/2000/svg" xmlns:xlink="http://www.w3.org/1999/xlink" width="88.4092" height="88.5371">
 <g>
  <rect height="88.5371" opacity="0" width="88.4092" x="0" y="0"/>
  <path d="M88.4092 14.4019L88.4092 74.2632C88.4092 83.6558 83.5733 88.5371 74.0005 88.5371L14.3936 88.5371C4.86963 88.5371 0 83.7349 0 74.2632L0 14.4019C0 4.93018 4.86963 0.127929 14.3936 0.127929L74.0005 0.127929C83.5733 0.127929 88.4092 5.00928 88.4092 14.4019ZM46.4414 37.3408C46.4414 44.0674 49.6826 50.4824 56.2813 50.4824C60.5913 50.4824 63.6372 47.4453 64.7031 43.0425L64.8984 43.0425C64.8984 43.2681 64.8984 43.4937 64.8984 43.6856C64.8984 49.7212 64.0786 60.4609 57.8242 60.4609C55.1997 60.4609 53.5044 58.5806 52.5986 55.9326C51.9536 54.439 51.1587 53.895 49.9478 53.895C48.2232 53.895 47.4619 55.0234 47.4619 56.396C47.4619 56.9214 47.6084 57.5864 47.8189 58.2026C48.9536 62.5972 53 65.2793 57.7871 65.2793C67.6846 65.2793 70.3906 53.5357 70.3906 43.687C70.3906 34.332 67.5298 23.2124 57.8511 23.2124C50.5786 23.2124 46.4414 29.6577 46.4414 37.3408ZM18.5371 30.6226C18.2441 31.6294 18.1616 32.5083 18.1616 33.2661C18.1616 34.6387 19.0088 35.6997 20.6172 35.6997C22.0874 35.6997 22.8066 35.0801 23.189 33.6099C23.9434 30.3892 25.7178 28.0645 28.9888 28.0645C32.6421 28.0645 34.477 30.9214 34.477 34.5747C34.477 38.5244 32.1724 41.4976 28.1367 41.4976L26.6016 41.4976C25.1802 41.4976 24.3633 42.4204 24.3633 43.7324C24.3633 45.0596 25.2744 45.8999 26.6016 45.8999L28.2007 45.8999C32.7852 45.8999 35.4014 48.4102 35.4014 53.21C35.4014 57.04 33.3643 60.4272 29.1992 60.4272C25.189 60.4272 23.2446 57.5923 22.6553 54.9038C22.2881 53.501 21.5049 52.7769 20.0869 52.7769C18.5088 52.7769 17.478 53.7705 17.478 55.3452C17.478 56.167 17.6396 57.1216 17.8838 57.9365C19.2881 62.4575 23.8853 65.1968 29.1841 65.1968C35.9868 65.1968 41.1445 60.6709 41.1445 53.333C41.1445 47.4463 37.7935 44.022 33.273 43.5825L33.273 43.436C37.7686 42.2607 39.9878 38.144 39.9878 33.96C39.9878 27.356 35.2593 23.3252 28.9888 23.3252C23.9341 23.3252 19.9228 26.2397 18.5371 30.6226ZM64.0127 37.105C64.0127 41.4199 61.9741 45.9302 57.9185 45.9302C53.7988 45.9302 52.0347 41.2549 52.0347 37.105C52.0347 32.876 53.9522 28.0156 57.9185 28.0156C62.1846 28.0156 64.0127 32.9063 64.0127 37.105Z" fill="#000000" fill-opacity="0.85"/>
 </g>
</svg>
