<?xml version="1.0" encoding="UTF-8"?>
<!--Generator: Apple Native CoreSVG 232.5-->
<!DOCTYPE svg
PUBLIC "-//W3C//DTD SVG 1.1//EN"
       "http://www.w3.org/Graphics/SVG/1.1/DTD/svg11.dtd">
<svg version="1.1" xmlns="http://www.w3.org/2000/svg" xmlns:xlink="http://www.w3.org/1999/xlink" width="97.9595" height="97.9932">
 <g>
  <rect height="97.9932" opacity="0" width="97.9595" x="0" y="0"/>
  <path d="M48.9722 97.9443C75.8247 97.9443 97.9595 75.7759 97.9595 48.9722C97.9595 22.1348 75.791 0 48.9385 0C22.1348 0 0 22.1348 0 48.9722C0 75.7759 22.1685 97.9443 48.9722 97.9443ZM48.9722 91.6113C25.3501 91.6113 6.36671 72.5942 6.36671 48.9722C6.36671 25.3501 25.3164 6.31789 48.9385 6.31789C72.5605 6.31789 91.6265 25.3501 91.6265 48.9722C91.6265 72.5942 72.5942 91.6113 48.9722 91.6113Z" fill="#000000" fill-opacity="0.85"/>
  <path d="M31.5005 58.0508C31.5005 59.9624 32.7788 61.2105 34.9194 61.2105L53.6572 61.2105L53.6572 68.6426C53.6572 70.6704 54.7031 71.8359 56.4312 71.8359C58.2451 71.8359 59.291 70.689 59.291 68.6426L59.291 61.2105L63.4253 61.2105C65.1196 61.2105 66.2144 60.1646 66.2144 58.5376C66.2144 57.0454 65.1196 56.0669 63.4253 56.0669L59.291 56.0669L59.291 44.627C59.291 42.5806 58.2451 41.4336 56.4312 41.4336C54.7031 41.4336 53.6572 42.6143 53.6572 44.627L53.6572 56.0669L38.6602 56.0669C42.9033 48.0454 48.2598 39.0947 52.7554 30.7905C53.0552 30.1909 53.2725 29.625 53.2725 28.9951C53.2725 27.5298 52.3394 26.2178 50.5474 26.2178C49.3516 26.2178 48.5347 26.814 47.8525 28.0469C42.9038 36.6631 37.1919 46.582 32.1943 55.5347C31.6841 56.4053 31.5005 57.2373 31.5005 58.0508Z" fill="#000000" fill-opacity="0.85"/>
 </g>
</svg>
