<?xml version="1.0" encoding="UTF-8"?>
<!--Generator: Apple Native CoreSVG 232.5-->
<!DOCTYPE svg
PUBLIC "-//W3C//DTD SVG 1.1//EN"
       "http://www.w3.org/Graphics/SVG/1.1/DTD/svg11.dtd">
<svg version="1.1" xmlns="http://www.w3.org/2000/svg" xmlns:xlink="http://www.w3.org/1999/xlink" width="88.4092" height="88.5371">
 <g>
  <rect height="88.5371" opacity="0" width="88.4092" x="0" y="0"/>
  <path d="M88.4092 14.4019L88.4092 74.2632C88.4092 83.6558 83.5733 88.5371 74.0005 88.5371L14.3936 88.5371C4.86963 88.5371 0 83.7349 0 74.2632L0 14.4019C0 4.93018 4.86963 0.127929 14.3936 0.127929L74.0005 0.127929C83.5733 0.127929 88.4092 5.00928 88.4092 14.4019ZM42.9512 23.0845C37.8828 31.9028 32.228 41.8018 27.0957 50.9263C26.5854 51.8457 26.4019 52.6777 26.4019 53.5098C26.4019 55.4888 27.7476 56.7705 29.9067 56.7705L49.0488 56.7705L49.0488 63.5356C49.0488 65.6309 50.1133 66.8301 51.9087 66.8301C53.7564 66.8301 54.836 65.6646 54.836 63.5356L54.836 56.7705L59.0225 56.7705C60.7842 56.7705 61.8789 55.7061 61.8789 54.0454C61.8789 52.4707 60.7842 51.4585 59.0225 51.4585L54.836 51.4585L54.836 39.8467C54.836 37.7178 53.7564 36.5522 51.9087 36.5522C50.1133 36.5522 49.0488 37.7515 49.0488 39.8467L49.0488 51.4585L33.7822 51.4585C38.1265 43.2837 43.4258 34.4019 48.0225 25.9292C48.3223 25.2959 48.5396 24.6963 48.5396 24.0815C48.5396 22.5488 47.5728 21.2031 45.7319 21.2031C44.4839 21.2031 43.667 21.833 42.9512 23.0845Z" fill="#000000" fill-opacity="0.85"/>
 </g>
</svg>
