<?xml version="1.0" encoding="UTF-8"?>
<!--Generator: Apple Native CoreSVG 232.5-->
<!DOCTYPE svg
PUBLIC "-//W3C//DTD SVG 1.1//EN"
       "http://www.w3.org/Graphics/SVG/1.1/DTD/svg11.dtd">
<svg version="1.1" xmlns="http://www.w3.org/2000/svg" xmlns:xlink="http://www.w3.org/1999/xlink" width="97.9595" height="97.9932">
 <g>
  <rect height="97.9932" opacity="0" width="97.9595" x="0" y="0"/>
  <path d="M48.9722 97.9443C75.8247 97.9443 97.9595 75.7759 97.9595 48.9722C97.9595 22.1348 75.791 0 48.9385 0C22.1348 0 0 22.1348 0 48.9722C0 75.7759 22.1685 97.9443 48.9722 97.9443ZM48.9722 91.6113C25.3501 91.6113 6.36671 72.5942 6.36671 48.9722C6.36671 25.3501 25.3164 6.31789 48.9385 6.31789C72.5605 6.31789 91.6265 25.3501 91.6265 48.9722C91.6265 72.5942 72.5942 91.6113 48.9722 91.6113Z" fill="#000000" fill-opacity="0.85"/>
  <path d="M55.0474 71.8359C56.8428 71.8359 57.8887 70.6401 57.8887 68.6729L57.8887 61.3652L62.4356 61.3652C63.9463 61.3652 64.9922 60.3379 64.9922 58.8574C64.9922 57.3618 63.98 56.3008 62.4356 56.3008L57.8887 56.3008L57.8887 30.1909C57.8887 27.7354 56.0596 26.1084 53.2891 26.1084C50.6431 26.1084 48.979 27.0566 47.3892 29.4263C42.5869 36.5894 35.0791 47.708 31.0869 54.1938C30.3525 55.4116 30.041 56.3716 30.041 57.5337C30.041 59.8545 31.6157 61.3652 34.1807 61.3652L52.2549 61.3652L52.2549 68.6729C52.2549 70.6065 53.3159 71.8359 55.0474 71.8359ZM52.2549 56.3008L35.7959 56.3008L35.7959 56.023C39.2647 50.126 47.437 38.0029 51.9434 31.3023L52.2549 31.3023Z" fill="#000000" fill-opacity="0.85"/>
 </g>
</svg>
