<?xml version="1.0" encoding="UTF-8"?>
<!--Generator: Apple Native CoreSVG 232.5-->
<!DOCTYPE svg
PUBLIC "-//W3C//DTD SVG 1.1//EN"
       "http://www.w3.org/Graphics/SVG/1.1/DTD/svg11.dtd">
<svg version="1.1" xmlns="http://www.w3.org/2000/svg" xmlns:xlink="http://www.w3.org/1999/xlink" width="88.4092" height="88.5371">
 <g>
  <rect height="88.5371" opacity="0" width="88.4092" x="0" y="0"/>
  <path d="M14.3936 88.5371L74.0005 88.5371C83.5733 88.5371 88.4092 83.6558 88.4092 74.2632L88.4092 14.4019C88.4092 5.00928 83.5733 0.127929 74.0005 0.127929L14.3936 0.127929C4.86963 0.127929 0 4.93018 0 14.4019L0 74.2632C0 83.7349 4.86963 88.5371 14.3936 88.5371ZM14.5064 82.4922C9.00294 82.4922 6.04494 79.6016 6.04494 73.9634L6.04494 14.7017C6.04494 9.06349 9.00294 6.17287 14.5064 6.17287L73.9028 6.17287C79.2969 6.17287 82.3643 9.06349 82.3643 14.7017L82.3643 73.9634C82.3643 79.6016 79.2969 82.4922 73.9028 82.4922Z" fill="#000000" fill-opacity="0.85"/>
  <path d="M50.3379 67.1079C52.1333 67.1079 53.1978 65.9121 53.1978 63.9448L53.1978 56.6372L57.7261 56.6372C59.2368 56.6372 60.2827 55.6099 60.2827 54.1294C60.2827 52.6338 59.2705 51.5728 57.7261 51.5728L53.1978 51.5728L53.1978 25.4629C53.1978 23.0073 51.3501 21.3804 48.5645 21.3804C45.9336 21.3804 44.2544 22.3286 42.6982 24.6983C37.8623 31.8613 30.3545 42.98 26.3623 49.4658C25.6431 50.6836 25.3315 51.6436 25.3315 52.8057C25.3315 55.1265 26.9248 56.6372 29.4712 56.6372L47.5454 56.6372L47.5454 63.9448C47.5454 65.8784 48.625 67.1079 50.3379 67.1079ZM47.5454 51.5728L31.0864 51.5728L31.0864 51.2949C34.5552 45.3979 42.7124 33.2749 47.2339 26.5742L47.5454 26.5742Z" fill="#000000" fill-opacity="0.85"/>
 </g>
</svg>
