<?xml version="1.0" encoding="UTF-8"?>
<!--Generator: Apple Native CoreSVG 232.5-->
<!DOCTYPE svg
PUBLIC "-//W3C//DTD SVG 1.1//EN"
       "http://www.w3.org/Graphics/SVG/1.1/DTD/svg11.dtd">
<svg version="1.1" xmlns="http://www.w3.org/2000/svg" xmlns:xlink="http://www.w3.org/1999/xlink" width="88.4092" height="88.5371">
 <g>
  <rect height="88.5371" opacity="0" width="88.4092" x="0" y="0"/>
  <path d="M88.4092 14.4019L88.4092 74.2632C88.4092 83.6558 83.5733 88.5371 74.0005 88.5371L14.3936 88.5371C4.86963 88.5371 0 83.7349 0 74.2632L0 14.4019C0 4.93018 4.86963 0.127929 14.3936 0.127929L74.0005 0.127929C83.5733 0.127929 88.4092 5.00928 88.4092 14.4019ZM42.6123 24.3091C37.6416 31.6592 30.0327 42.9126 25.9731 49.5332C25.2202 50.8184 24.9087 51.812 24.9087 52.9927C24.9087 55.3809 26.5356 56.9253 29.1343 56.9253L47.564 56.9253L47.564 63.5508C47.564 65.5518 48.6924 66.7998 50.4727 66.7998C52.3203 66.7998 53.4336 65.5855 53.4336 63.5508L53.4336 56.9253L58.0142 56.9253C59.5586 56.9253 60.6231 55.8643 60.6231 54.3501C60.6231 52.7871 59.5923 51.6924 58.0142 51.6924L53.4336 51.6924L53.4336 25.1074C53.4336 22.5845 51.5034 20.8901 48.6318 20.8901C45.9336 20.8901 44.187 21.8872 42.6123 24.3091ZM47.564 51.6924L30.832 51.6924L30.832 51.4146C34.3867 45.3979 42.6602 33.1216 47.2676 26.2525L47.564 26.2525Z" fill="#000000" fill-opacity="0.85"/>
 </g>
</svg>
