<?xml version="1.0" encoding="UTF-8"?>
<!--Generator: Apple Native CoreSVG 232.5-->
<!DOCTYPE svg
PUBLIC "-//W3C//DTD SVG 1.1//EN"
       "http://www.w3.org/Graphics/SVG/1.1/DTD/svg11.dtd">
<svg version="1.1" xmlns="http://www.w3.org/2000/svg" xmlns:xlink="http://www.w3.org/1999/xlink" width="97.9595" height="97.9932">
 <g>
  <rect height="97.9932" opacity="0" width="97.9595" x="0" y="0"/>
  <path d="M97.9595 48.9722C97.9595 75.7759 75.8247 97.9443 48.9722 97.9443C22.1685 97.9443 0 75.7759 0 48.9722C0 22.1348 22.1348 0 48.9385 0C75.791 0 97.9595 22.1348 97.9595 48.9722ZM34.8213 32.1963L24.7017 53.3472C23.9893 54.9219 23.7603 55.9981 23.7603 57.273C23.7603 59.2603 25.1177 60.6328 27.1992 60.6328L39.0166 60.6328L39.0166 66.8276C39.0166 68.874 40.4854 69.6958 41.8545 69.6958C43.3315 69.6958 44.5762 68.6602 44.5762 66.8276L44.5762 60.6328L46.8638 60.6328C48.457 60.6328 49.1997 59.6206 49.1997 58.2144C49.1997 56.9058 48.4453 55.8936 46.8638 55.8936L44.5762 55.8936L44.5762 32.582C44.5762 29.6416 42.6934 28.188 40.1265 28.188C37.3223 28.188 35.9951 29.6768 34.8213 32.1963ZM60.5391 29.936L54.4883 34.7476C53.7759 35.3101 53.2251 36.0596 53.2251 37.0903C53.2251 38.3501 54.0874 39.2915 55.3775 39.2915C56.0225 39.2915 56.4048 39.0928 56.8174 38.7627L62.0161 34.5825L62.0161 66.6743C62.0161 68.3013 63.3433 69.6284 65.0039 69.6284C66.5484 69.6284 67.8755 68.3013 67.8755 66.6743L67.8755 31.5025C67.8755 29.5049 66.582 28.2637 64.5357 28.2637C62.8599 28.2637 61.4653 29.1934 60.5391 29.936ZM39.1025 55.9946L28.7959 55.9946L28.7959 55.7285L38.9409 33.582L39.1025 33.582Z" fill="#000000" fill-opacity="0.85"/>
 </g>
</svg>
