<?xml version="1.0" encoding="UTF-8"?>
<!--Generator: Apple Native CoreSVG 232.5-->
<!DOCTYPE svg
PUBLIC "-//W3C//DTD SVG 1.1//EN"
       "http://www.w3.org/Graphics/SVG/1.1/DTD/svg11.dtd">
<svg version="1.1" xmlns="http://www.w3.org/2000/svg" xmlns:xlink="http://www.w3.org/1999/xlink" width="88.4092" height="88.5371">
 <g>
  <rect height="88.5371" opacity="0" width="88.4092" x="0" y="0"/>
  <path d="M14.3936 88.5371L74.0005 88.5371C83.5733 88.5371 88.4092 83.6558 88.4092 74.2632L88.4092 14.4019C88.4092 5.00928 83.5733 0.127929 74.0005 0.127929L14.3936 0.127929C4.86963 0.127929 0 4.93018 0 14.4019L0 74.2632C0 83.7349 4.86963 88.5371 14.3936 88.5371ZM14.5064 82.4922C9.00294 82.4922 6.04494 79.6016 6.04494 73.9634L6.04494 14.7017C6.04494 9.06349 9.00294 6.17287 14.5064 6.17287L73.9028 6.17287C79.2969 6.17287 82.3643 9.06349 82.3643 14.7017L82.3643 73.9634C82.3643 79.6016 79.2969 82.4922 73.9028 82.4922Z" fill="#000000" fill-opacity="0.85"/>
  <path d="M37.1973 64.5449C38.6406 64.5449 39.8516 63.543 39.8516 61.7441L39.8516 55.6504L42.1392 55.6504C43.6465 55.6504 44.3892 54.6719 44.3892 53.2993C44.3892 52.0093 43.6685 51.0308 42.1392 51.0308L39.8516 51.0308L39.8516 28.1421C39.8516 25.3027 38.0024 23.8677 35.5366 23.8677C32.7998 23.8677 31.4912 25.3379 30.3662 27.7901L20.3999 48.5669C19.7212 50.0928 19.4922 51.1504 19.4922 52.3765C19.4922 54.3115 20.8159 55.6504 22.8452 55.6504L34.4941 55.6504L34.4941 61.7441C34.4941 63.7568 35.877 64.5449 37.1973 64.5449ZM34.5801 51.1318L24.3931 51.1318L24.3931 50.8657L34.3999 29.1421L34.5801 29.1421ZM59.8379 64.4775C61.3486 64.4775 62.6421 63.1841 62.6421 61.6245L62.6421 27.0962C62.6421 25.166 61.3823 23.9585 59.4033 23.9585C57.7612 23.9585 56.4189 24.8545 55.4927 25.5972L49.5767 30.3076C48.8643 30.8701 48.3472 31.5859 48.3472 32.5982C48.3472 33.8242 49.1758 34.7168 50.4321 34.7168C51.0435 34.7168 51.4258 34.5181 51.8384 34.2368L56.936 30.1089L56.936 61.6245C56.936 63.1841 58.2446 64.4775 59.8379 64.4775Z" fill="#000000" fill-opacity="0.85"/>
 </g>
</svg>
