<?xml version="1.0" encoding="UTF-8"?>
<!--Generator: Apple Native CoreSVG 232.5-->
<!DOCTYPE svg
PUBLIC "-//W3C//DTD SVG 1.1//EN"
       "http://www.w3.org/Graphics/SVG/1.1/DTD/svg11.dtd">
<svg version="1.1" xmlns="http://www.w3.org/2000/svg" xmlns:xlink="http://www.w3.org/1999/xlink" width="97.9595" height="97.9932">
 <g>
  <rect height="97.9932" opacity="0" width="97.9595" x="0" y="0"/>
  <path d="M48.9722 97.9443C75.8247 97.9443 97.9595 75.7759 97.9595 48.9722C97.9595 22.1348 75.791 0 48.9385 0C22.1348 0 0 22.1348 0 48.9722C0 75.7759 22.1685 97.9443 48.9722 97.9443ZM48.9722 91.6113C25.3501 91.6113 6.36671 72.5942 6.36671 48.9722C6.36671 25.3501 25.3164 6.31789 48.9385 6.31789C72.5605 6.31789 91.6265 25.3501 91.6265 48.9722C91.6265 72.5942 72.5942 91.6113 48.9722 91.6113Z" fill="#000000" fill-opacity="0.85"/>
  <path d="M39.0059 69.273C40.4829 69.273 41.6753 68.271 41.6753 66.4722L41.6753 60.3784L43.9478 60.3784C45.4888 60.3784 46.2315 59.3999 46.2315 58.0274C46.2315 56.7373 45.4771 55.7588 43.9478 55.7588L41.6753 55.7588L41.6753 32.8701C41.6753 30.0308 39.811 28.5957 37.3789 28.5957C34.6084 28.5957 33.2998 30.0659 32.1748 32.5181L22.2422 53.2949C21.5635 54.8208 21.3159 55.8784 21.3159 57.1045C21.3159 59.0396 22.6245 60.3784 24.6538 60.3784L36.3027 60.3784L36.3027 66.4722C36.3027 68.4849 37.7192 69.273 39.0059 69.273ZM36.3887 55.8599L26.2017 55.8599L26.2017 55.5938L36.2085 33.8701L36.3887 33.8701ZM53.9585 68.6987L70.8262 68.6987C72.2022 68.6987 73.0947 67.7725 73.0947 66.3965C73.0947 64.9194 72.1685 64.0454 70.8262 64.0454L58.3306 64.0454L58.3306 63.7305L66.2886 53.1079C70.7964 47.3257 72.3018 43.7275 72.3018 39.5215C72.3018 33.1416 68.2788 28.2959 61.7525 28.2959C55.7144 28.2959 51.3565 33.502 51.3565 38.6255C51.3565 40.0083 52.1699 41.1113 53.7412 41.1113C55.0347 41.1113 55.8599 40.4697 56.1968 39.1914C57.0186 35.4356 58.5117 32.9307 61.7339 32.9307C65.2388 32.9307 66.9898 36.1694 66.9898 39.7876C66.9898 43.5879 64.77 47.2705 61.9702 50.9844L52.6753 63.3227C51.9292 64.2827 51.2739 65.2461 51.2739 66.4116C51.2739 67.7842 52.1968 68.6987 53.9585 68.6987Z" fill="#000000" fill-opacity="0.85"/>
 </g>
</svg>
