<?xml version="1.0" encoding="UTF-8"?>
<!--Generator: Apple Native CoreSVG 232.5-->
<!DOCTYPE svg
PUBLIC "-//W3C//DTD SVG 1.1//EN"
       "http://www.w3.org/Graphics/SVG/1.1/DTD/svg11.dtd">
<svg version="1.1" xmlns="http://www.w3.org/2000/svg" xmlns:xlink="http://www.w3.org/1999/xlink" width="97.9595" height="97.9932">
 <g>
  <rect height="97.9932" opacity="0" width="97.9595" x="0" y="0"/>
  <path d="M97.9595 48.9722C97.9595 75.7759 75.8247 97.9443 48.9722 97.9443C22.1685 97.9443 0 75.7759 0 48.9722C0 22.1348 22.1348 0 48.9385 0C75.791 0 97.9595 22.1348 97.9595 48.9722ZM31.8193 32.23L21.7183 53.3472C21.021 54.9219 20.7583 55.9981 20.7583 57.273C20.7583 59.2603 22.1157 60.6328 24.1973 60.6328L36.0669 60.6328L36.0669 66.8276C36.0669 68.9077 37.5171 69.6958 38.8525 69.6958C40.397 69.6958 41.6079 68.6602 41.6079 66.8276L41.6079 60.6328L43.9141 60.6328C45.4888 60.6328 46.2651 59.6206 46.2651 58.2144C46.2651 56.9058 45.4771 55.8936 43.9141 55.8936L41.6079 55.8936L41.6079 32.582C41.6079 29.6753 39.6914 28.188 37.1919 28.188C34.3203 28.188 32.978 29.6768 31.8193 32.23ZM51.4912 38.4048C51.4912 39.855 52.2896 40.9766 53.9434 40.9766C55.2705 40.9766 56.1143 40.3164 56.4512 39.0044C57.3067 35.166 58.7998 32.6426 62.0894 32.6426C65.6279 32.6426 67.4126 35.8999 67.4126 39.6006C67.4126 43.502 65.1255 47.2705 62.292 51.0518L52.8286 63.5771C52.064 64.5859 51.4087 65.5679 51.4087 66.7671C51.4087 68.1733 52.3316 69.1216 54.1455 69.1216L71.3687 69.1216C72.7783 69.1216 73.7197 68.1616 73.7197 66.752C73.7197 65.2075 72.7446 64.3335 71.3687 64.3335L58.6524 64.3335L58.6524 63.9849L66.73 53.1939C71.3389 47.292 72.8779 43.6416 72.8779 39.3193C72.8779 32.8047 68.7539 27.8882 62.1079 27.8882C55.9502 27.8882 51.4912 33.1802 51.4912 38.4048ZM36.168 55.9946L25.8125 55.9946L25.8125 55.7285L35.9727 33.582L36.168 33.582Z" fill="#000000" fill-opacity="0.85"/>
 </g>
</svg>
