<?xml version="1.0" encoding="UTF-8"?>
<!--Generator: Apple Native CoreSVG 232.5-->
<!DOCTYPE svg
PUBLIC "-//W3C//DTD SVG 1.1//EN"
       "http://www.w3.org/Graphics/SVG/1.1/DTD/svg11.dtd">
<svg version="1.1" xmlns="http://www.w3.org/2000/svg" xmlns:xlink="http://www.w3.org/1999/xlink" width="97.9595" height="97.9932">
 <g>
  <rect height="97.9932" opacity="0" width="97.9595" x="0" y="0"/>
  <path d="M48.9722 97.9443C75.8247 97.9443 97.9595 75.7759 97.9595 48.9722C97.9595 22.1348 75.791 0 48.9385 0C22.1348 0 0 22.1348 0 48.9722C0 75.7759 22.1685 97.9443 48.9722 97.9443ZM48.9722 91.6113C25.3501 91.6113 6.36671 72.5942 6.36671 48.9722C6.36671 25.3501 25.3164 6.31789 48.9385 6.31789C72.5605 6.31789 91.6265 25.3501 91.6265 48.9722C91.6265 72.5942 72.5942 91.6113 48.9722 91.6113Z" fill="#000000" fill-opacity="0.85"/>
  <path d="M38.7129 69.273C40.1563 69.273 41.3672 68.271 41.3672 66.4722L41.3672 60.3784L43.6548 60.3784C45.147 60.3784 45.9048 59.3999 45.9048 58.0274C45.9048 56.7373 45.169 55.7588 43.6548 55.7588L41.3672 55.7588L41.3672 32.8701C41.3672 30.0308 39.5181 28.5957 37.0522 28.5957C34.3003 28.5957 33.0068 30.0659 31.8667 32.5181L21.9155 53.2949C21.2705 54.8208 21.0078 55.8784 21.0078 57.1045C21.0078 59.0396 22.3315 60.3784 24.3457 60.3784L35.9946 60.3784L35.9946 66.4722C35.9946 68.4849 37.3774 69.273 38.7129 69.273ZM36.0957 55.8599L25.9087 55.8599L25.9087 55.5938L35.9004 33.8701L36.0957 33.8701ZM62.6245 69.502C69.3076 69.502 74.3306 65.0772 74.3306 57.8589C74.3306 52.1069 71.0806 48.75 66.6275 48.3106L66.6275 48.1641C71.0557 47.0073 73.1738 43.0068 73.1738 38.875C73.1738 32.4395 68.5986 28.4761 62.4629 28.4761C57.4756 28.4761 53.5991 31.3232 52.2134 35.6538C51.9541 36.627 51.8716 37.4907 51.8716 38.2149C51.8716 39.5537 52.6851 40.5811 54.2598 40.5811C55.6626 40.5811 56.3819 39.9766 56.7642 38.5249C57.4849 35.3716 59.2256 33.0806 62.4629 33.0806C66.0488 33.0806 67.8652 35.9038 67.8652 39.5049C67.8652 43.3721 65.5606 46.293 61.626 46.293L60.1245 46.293C58.7217 46.293 57.9048 47.1821 57.9048 48.4605C57.9048 49.7539 58.7822 50.5606 60.1245 50.5606L61.7085 50.5606C66.207 50.5606 68.7744 53.0523 68.7744 57.7847C68.7744 61.5474 66.7861 64.8672 62.6734 64.8672C58.7456 64.8672 56.7861 62.0659 56.2305 59.4111C55.897 58.0606 55.0801 57.3516 53.7295 57.3516C52.2188 57.3516 51.1729 58.3115 51.1729 59.8374C51.1729 60.6406 51.3345 61.5952 51.5786 62.3613C52.9644 66.8115 57.4605 69.502 62.6245 69.502Z" fill="#000000" fill-opacity="0.85"/>
 </g>
</svg>
