<?xml version="1.0" encoding="UTF-8"?>
<!--Generator: Apple Native CoreSVG 232.5-->
<!DOCTYPE svg
PUBLIC "-//W3C//DTD SVG 1.1//EN"
       "http://www.w3.org/Graphics/SVG/1.1/DTD/svg11.dtd">
<svg version="1.1" xmlns="http://www.w3.org/2000/svg" xmlns:xlink="http://www.w3.org/1999/xlink" width="88.4092" height="88.5371">
 <g>
  <rect height="88.5371" opacity="0" width="88.4092" x="0" y="0"/>
  <path d="M88.4092 14.4019L88.4092 74.2632C88.4092 83.6558 83.5733 88.5371 74.0005 88.5371L14.3936 88.5371C4.86963 88.5371 0 83.7349 0 74.2632L0 14.4019C0 4.93018 4.86963 0.127929 14.3936 0.127929L74.0005 0.127929C83.5733 0.127929 88.4092 5.00928 88.4092 14.4019ZM47.5899 30.6226C47.3306 31.6294 47.2144 32.5083 47.2144 33.2661C47.2144 34.6387 48.1104 35.6997 49.7036 35.6997C51.1402 35.6997 51.8931 35.0801 52.2754 33.6099C53.0298 30.3892 54.7705 28.0645 58.0752 28.0645C61.7285 28.0645 63.5635 30.9214 63.5635 34.5747C63.5635 38.5244 61.2739 41.4976 57.2232 41.4976L55.688 41.4976C54.2666 41.4976 53.416 42.4204 53.416 43.7324C53.416 45.0596 54.3609 45.8999 55.688 45.8999L57.2871 45.8999C61.8716 45.8999 64.4878 48.4102 64.4878 53.21C64.4878 57.04 62.4507 60.4272 58.2857 60.4272C54.2754 60.4272 52.2974 57.5923 51.7417 54.9038C51.3745 53.501 50.5576 52.7769 49.1397 52.7769C47.5952 52.7769 46.5645 53.7705 46.5645 55.3452C46.5645 56.167 46.6924 57.1216 46.9702 57.9365C48.3408 62.4575 52.9717 65.1968 58.2368 65.1968C65.0733 65.1968 70.1973 60.6709 70.1973 53.333C70.1973 47.4463 66.8799 44.022 62.3594 43.5825L62.3594 43.436C66.855 42.2607 69.0405 38.144 69.0405 33.96C69.0405 27.356 64.3457 23.3252 58.0752 23.3252C52.9868 23.3252 49.0093 26.2397 47.5899 30.6226ZM26.7344 27.4683L16.6147 48.6191C15.9697 50.1938 15.707 51.27 15.707 52.5449C15.707 54.5322 17.0645 55.9048 19.146 55.9048L30.9971 55.9048L30.9971 62.0659C30.9971 64.146 32.4321 64.9678 33.8013 64.9678C35.2783 64.9678 36.523 63.9321 36.523 62.0659L36.523 55.9048L38.8442 55.9048C40.3701 55.9048 41.1802 54.8926 41.1802 53.4863C41.1802 52.1777 40.3921 51.1655 38.8442 51.1655L36.523 51.1655L36.523 27.854C36.523 24.9136 34.6401 23.46 32.1069 23.46C29.269 23.46 27.9082 24.9487 26.7344 27.4683ZM31.083 51.2666L20.7427 51.2666L20.7427 51.0005L30.9028 28.854L31.083 28.854Z" fill="#000000" fill-opacity="0.85"/>
 </g>
</svg>
