<?xml version="1.0" encoding="UTF-8"?>
<!--Generator: Apple Native CoreSVG 232.5-->
<!DOCTYPE svg
PUBLIC "-//W3C//DTD SVG 1.1//EN"
       "http://www.w3.org/Graphics/SVG/1.1/DTD/svg11.dtd">
<svg version="1.1" xmlns="http://www.w3.org/2000/svg" xmlns:xlink="http://www.w3.org/1999/xlink" width="97.9595" height="97.9932">
 <g>
  <rect height="97.9932" opacity="0" width="97.9595" x="0" y="0"/>
  <path d="M48.9722 97.9443C75.8247 97.9443 97.9595 75.7759 97.9595 48.9722C97.9595 22.1348 75.791 0 48.9385 0C22.1348 0 0 22.1348 0 48.9722C0 75.7759 22.1685 97.9443 48.9722 97.9443ZM48.9722 91.6113C25.3501 91.6113 6.36671 72.5942 6.36671 48.9722C6.36671 25.3501 25.3164 6.31789 48.9385 6.31789C72.5605 6.31789 91.6265 25.3501 91.6265 48.9722C91.6265 72.5942 72.5942 91.6113 48.9722 91.6113Z" fill="#000000" fill-opacity="0.85"/>
  <path d="M38.1572 69.273C39.6006 69.273 40.8115 68.271 40.8115 66.4722L40.8115 60.3784L43.0654 60.3784C44.5913 60.3784 45.3491 59.3999 45.3491 58.0274C45.3491 56.7373 44.6133 55.7588 43.0654 55.7588L40.8115 55.7588L40.8115 32.8701C40.8115 30.0308 38.9624 28.5957 36.4966 28.5957C33.7446 28.5957 32.4512 30.0659 31.311 32.5181L21.3599 53.2949C20.6812 54.8208 20.4521 55.8784 20.4521 57.1045C20.4521 59.0396 21.7759 60.3784 23.79 60.3784L35.4053 60.3784L35.4053 66.4722C35.4053 68.4849 36.8218 69.273 38.1572 69.273ZM35.5063 55.8599L25.353 55.8599L25.353 55.5938L35.3447 33.8701L35.5063 33.8701ZM67.999 69.273C69.4575 69.273 70.6685 68.271 70.6685 66.4722L70.6685 60.3784L72.9409 60.3784C74.4483 60.3784 75.1909 59.3999 75.1909 58.0274C75.1909 56.7373 74.4702 55.7588 72.9409 55.7588L70.6685 55.7588L70.6685 32.8701C70.6685 30.0308 68.8042 28.5957 66.3384 28.5957C63.6016 28.5957 62.3081 30.0659 61.168 32.5181L51.2017 53.2949C50.523 54.8208 50.3091 55.8784 50.3091 57.1045C50.3091 59.0396 51.6177 60.3784 53.647 60.3784L65.2959 60.3784L65.2959 66.4722C65.2959 68.4849 66.6787 69.273 67.999 69.273ZM65.397 55.8599L55.1948 55.8599L55.1948 55.5938L65.2017 33.8701L65.397 33.8701Z" fill="#000000" fill-opacity="0.85"/>
 </g>
</svg>
