<?xml version="1.0" encoding="UTF-8"?>
<!--Generator: Apple Native CoreSVG 232.5-->
<!DOCTYPE svg
PUBLIC "-//W3C//DTD SVG 1.1//EN"
       "http://www.w3.org/Graphics/SVG/1.1/DTD/svg11.dtd">
<svg version="1.1" xmlns="http://www.w3.org/2000/svg" xmlns:xlink="http://www.w3.org/1999/xlink" width="88.4092" height="88.5371">
 <g>
  <rect height="88.5371" opacity="0" width="88.4092" x="0" y="0"/>
  <path d="M88.4092 14.4019L88.4092 74.2632C88.4092 83.6558 83.5733 88.5371 74.0005 88.5371L14.3936 88.5371C4.86963 88.5371 0 83.7349 0 74.2632L0 14.4019C0 4.93018 4.86963 0.127929 14.3936 0.127929L74.0005 0.127929C83.5733 0.127929 88.4092 5.00928 88.4092 14.4019ZM26.1787 27.4683L16.0591 48.6191C15.3804 50.1938 15.1177 51.27 15.1177 52.5449C15.1177 54.5322 16.4751 55.9048 18.5566 55.9048L30.4414 55.9048L30.4414 62.0659C30.4414 64.146 31.8579 64.9678 33.2119 64.9678C34.7227 64.9678 35.9673 63.9321 35.9673 62.0659L35.9673 55.9048L38.2886 55.9048C39.8145 55.9048 40.5908 54.8926 40.5908 53.4863C40.5908 52.1777 39.8364 51.1655 38.2886 51.1655L35.9673 51.1655L35.9673 27.854C35.9673 24.9136 34.0508 23.46 31.5176 23.46C28.6797 23.46 27.3525 24.9487 26.1787 27.4683ZM56.6792 27.4683L46.5444 48.6191C45.9146 50.1938 45.6182 51.27 45.6182 52.5449C45.6182 54.5322 47.0093 55.9048 49.0571 55.9048L60.9268 55.9048L60.9268 62.0659C60.9268 64.146 62.3433 64.9678 63.7461 64.9678C65.2232 64.9678 66.4678 63.9321 66.4678 62.0659L66.4678 55.9048L68.7739 55.9048C70.315 55.9048 71.0913 54.8926 71.0913 53.4863C71.0913 52.1777 70.3369 51.1655 68.7739 51.1655L66.4678 51.1655L66.4678 27.854C66.4678 24.9136 64.5513 23.46 62.0181 23.46C59.1802 23.46 57.8379 24.9487 56.6792 27.4683ZM30.5273 51.2666L20.187 51.2666L20.187 51.0005L30.3472 28.854L30.5273 28.854ZM61.0278 51.2666L50.6724 51.2666L50.6724 51.0005L60.8325 28.854L61.0278 28.854Z" fill="#000000" fill-opacity="0.85"/>
 </g>
</svg>
