<?xml version="1.0" encoding="UTF-8"?>
<!--Generator: Apple Native CoreSVG 232.5-->
<!DOCTYPE svg
PUBLIC "-//W3C//DTD SVG 1.1//EN"
       "http://www.w3.org/Graphics/SVG/1.1/DTD/svg11.dtd">
<svg version="1.1" xmlns="http://www.w3.org/2000/svg" xmlns:xlink="http://www.w3.org/1999/xlink" width="97.9595" height="97.9932">
 <g>
  <rect height="97.9932" opacity="0" width="97.9595" x="0" y="0"/>
  <path d="M48.9722 97.9443C75.8247 97.9443 97.9595 75.7759 97.9595 48.9722C97.9595 22.1348 75.791 0 48.9385 0C22.1348 0 0 22.1348 0 48.9722C0 75.7759 22.1685 97.9443 48.9722 97.9443ZM48.9722 91.6113C25.3501 91.6113 6.36671 72.5942 6.36671 48.9722C6.36671 25.3501 25.3164 6.31789 48.9385 6.31789C72.5605 6.31789 91.6265 25.3501 91.6265 48.9722C91.6265 72.5942 72.5942 91.6113 48.9722 91.6113Z" fill="#000000" fill-opacity="0.85"/>
  <path d="M39.0967 69.273C40.5737 69.273 41.7847 68.271 41.7847 66.4722L41.7847 60.3784L44.0386 60.3784C45.5645 60.3784 46.3223 59.3999 46.3223 58.0274C46.3223 56.7373 45.5527 55.7588 44.0386 55.7588L41.7847 55.7588L41.7847 32.8701C41.7847 30.0308 39.9019 28.5957 37.4697 28.5957C34.7178 28.5957 33.4243 30.0659 32.2842 32.5181L22.333 53.2949C21.6543 54.8208 21.3916 55.8784 21.3916 57.1045C21.3916 59.0396 22.749 60.3784 24.7295 60.3784L36.3784 60.3784L36.3784 66.4722C36.3784 68.4849 37.7949 69.273 39.0967 69.273ZM36.4795 55.8599L26.2925 55.8599L26.2925 55.5938L36.2842 33.8701L36.4795 33.8701ZM62.9209 69.6333C70.2354 69.6333 74.1587 63.1763 74.1587 55.7642C74.1587 49.1016 70.9512 42.8281 64.6524 42.8281C61.896 42.8281 59.0894 44.1314 57.7627 47.1602L57.564 47.1602L58.4815 33.9478L70.3345 33.9478C71.7407 33.9478 72.5845 32.9878 72.5845 31.5816C72.5845 30.2578 71.6919 29.2305 70.3345 29.2305L57.043 29.2305C54.8823 29.2305 53.9561 30.6484 53.7759 32.7637L52.8584 47.0659C52.8096 47.8286 52.7608 48.6856 52.7608 49.2295C52.7608 50.7671 53.5859 52.0791 55.3931 52.0791C56.5752 52.0791 57.2202 51.5117 58.0488 50.3599C59.1987 48.4458 60.7407 47.0923 62.9815 47.0923C67.0186 47.0923 68.7036 51.877 68.7036 55.9141C68.7036 60.3906 66.936 64.98 62.8535 64.98C59.7559 64.98 57.815 62.5576 56.9966 59.5239C56.5806 58.1128 55.6694 57.5166 54.627 57.5166C53.1533 57.5166 52.2422 58.458 52.2422 59.9165C52.2422 60.8125 52.5049 61.7656 52.8047 62.5606C54.3018 66.7578 58.3599 69.6333 62.9209 69.6333Z" fill="#000000" fill-opacity="0.85"/>
 </g>
</svg>
