<?xml version="1.0" encoding="UTF-8"?>
<!--Generator: Apple Native CoreSVG 232.5-->
<!DOCTYPE svg
PUBLIC "-//W3C//DTD SVG 1.1//EN"
       "http://www.w3.org/Graphics/SVG/1.1/DTD/svg11.dtd">
<svg version="1.1" xmlns="http://www.w3.org/2000/svg" xmlns:xlink="http://www.w3.org/1999/xlink" width="97.9595" height="97.9932">
 <g>
  <rect height="97.9932" opacity="0" width="97.9595" x="0" y="0"/>
  <path d="M97.9595 48.9722C97.9595 75.7759 75.8247 97.9443 48.9722 97.9443C22.1685 97.9443 0 75.7759 0 48.9722C0 22.1348 22.1348 0 48.9385 0C75.791 0 97.9595 22.1348 97.9595 48.9722ZM57.2974 28.8076C55.0693 28.8076 54.1094 30.2593 53.9443 32.4419L52.9932 46.9985C52.9292 47.7949 52.8804 48.6519 52.8804 49.2295C52.8804 50.8008 53.7544 52.1465 55.6138 52.1465C56.8296 52.1465 57.4746 51.5791 58.3369 50.3936C59.5205 48.4458 61.0625 47.0923 63.3369 47.0923C67.4414 47.0923 69.1602 51.9443 69.1602 56.0488C69.1602 60.6265 67.3438 65.2681 63.209 65.2681C60.0777 65.2681 58.103 62.8272 57.251 59.7109C56.835 58.2661 55.8902 57.6851 54.814 57.6851C53.3067 57.6851 52.377 58.645 52.377 60.1524C52.377 61.0669 52.6245 62.0689 52.9243 62.8486C54.5039 67.147 58.648 70.0562 63.2764 70.0562C70.7442 70.0562 74.7686 63.4644 74.7686 55.8989C74.7686 49.1016 71.4937 42.7085 65.0752 42.7085C62.2515 42.7085 59.4112 44.0303 58.0659 47.0928L57.8521 47.0928L58.7695 33.6597L70.8584 33.6597C72.2832 33.6597 73.1607 32.6997 73.1607 31.2261C73.1607 29.8687 72.2344 28.8076 70.8584 28.8076ZM31.9287 32.1963L21.8091 53.3472C21.0967 54.9219 20.8491 55.9981 20.8491 57.273C20.8491 59.2603 22.2251 60.6328 24.2881 60.6328L36.124 60.6328L36.124 66.7939C36.124 68.874 37.6079 69.6958 38.9282 69.6958C40.439 69.6958 41.6836 68.6602 41.6836 66.7939L41.6836 60.6328L43.9712 60.6328C45.5645 60.6328 46.3223 59.6206 46.3223 58.2144C46.3223 56.9058 45.5527 55.8936 43.9712 55.8936L41.6836 55.8936L41.6836 32.582C41.6836 29.6416 39.7671 28.188 37.2339 28.188C34.4297 28.188 33.1025 29.6768 31.9287 32.1963ZM36.2251 55.9946L25.8696 55.9946L25.8696 55.7285L36.0298 33.582L36.2251 33.582Z" fill="#000000" fill-opacity="0.85"/>
 </g>
</svg>
