<?xml version="1.0" encoding="UTF-8"?>
<!--Generator: Apple Native CoreSVG 232.5-->
<!DOCTYPE svg
PUBLIC "-//W3C//DTD SVG 1.1//EN"
       "http://www.w3.org/Graphics/SVG/1.1/DTD/svg11.dtd">
<svg version="1.1" xmlns="http://www.w3.org/2000/svg" xmlns:xlink="http://www.w3.org/1999/xlink" width="88.4092" height="88.5371">
 <g>
  <rect height="88.5371" opacity="0" width="88.4092" x="0" y="0"/>
  <path d="M14.3936 88.5371L74.0005 88.5371C83.5733 88.5371 88.4092 83.6558 88.4092 74.2632L88.4092 14.4019C88.4092 5.00928 83.5733 0.127929 74.0005 0.127929L14.3936 0.127929C4.86963 0.127929 0 4.93018 0 14.4019L0 74.2632C0 83.7349 4.86963 88.5371 14.3936 88.5371ZM14.5064 82.4922C9.00294 82.4922 6.04494 79.6016 6.04494 73.9634L6.04494 14.7017C6.04494 9.06349 9.00294 6.17287 14.5064 6.17287L73.9028 6.17287C79.2969 6.17287 82.3643 9.06349 82.3643 14.7017L82.3643 73.9634C82.3643 79.6016 79.2969 82.4922 73.9028 82.4922Z" fill="#000000" fill-opacity="0.85"/>
  <path d="M34.4058 64.5449C35.8643 64.5449 37.0752 63.543 37.0752 61.7441L37.0752 55.6504L39.314 55.6504C40.855 55.6504 41.5977 54.6719 41.5977 53.2993C41.5977 52.0093 40.8433 51.0308 39.314 51.0308L37.0752 51.0308L37.0752 28.1421C37.0752 25.3027 35.1773 23.8677 32.7451 23.8677C30.0083 23.8677 28.7148 25.3379 27.5747 27.7901L17.6084 48.5669C16.9297 50.0928 16.6821 51.1504 16.6821 52.3765C16.6821 54.3115 18.0244 55.6504 20.02 55.6504L31.6689 55.6504L31.6689 61.7441C31.6689 63.7568 33.0855 64.5449 34.4058 64.5449ZM31.77 51.1318L21.6016 51.1318L21.6016 50.8657L31.5747 29.1421L31.77 29.1421ZM58.1963 64.9053C65.5108 64.9053 69.4678 58.4482 69.4678 51.0361C69.4678 44.3735 66.2603 38.1001 59.9766 38.1001C57.1714 38.1001 54.3648 39.4033 53.0532 42.4321L52.8545 42.4321L53.8057 29.2197L65.625 29.2197C67.0313 29.2197 67.875 28.2598 67.875 26.8535C67.875 25.5298 66.9673 24.5024 65.625 24.5024L52.3672 24.5024C50.1577 24.5024 49.2315 25.9204 49.0664 28.0357L48.1489 42.3379C48.085 43.1006 48.0361 43.9575 48.0361 44.5015C48.0361 46.0391 48.8765 47.3511 50.6685 47.3511C51.8657 47.3511 52.5108 46.7837 53.3242 45.6318C54.523 43.7178 56.0161 42.3643 58.2568 42.3643C62.294 42.3643 63.979 47.1489 63.979 51.186C63.979 55.6626 62.2114 60.252 58.1289 60.252C55.0313 60.252 53.124 57.8296 52.2871 54.7959C51.8711 53.3848 50.96 52.7886 49.9024 52.7886C48.4287 52.7886 47.5176 53.73 47.5176 55.1885C47.5176 56.0845 47.7803 57.0376 48.0801 57.8325C49.5923 62.0298 53.6504 64.9053 58.1963 64.9053Z" fill="#000000" fill-opacity="0.85"/>
 </g>
</svg>
