<?xml version="1.0" encoding="UTF-8"?>
<!--Generator: Apple Native CoreSVG 232.5-->
<!DOCTYPE svg
PUBLIC "-//W3C//DTD SVG 1.1//EN"
       "http://www.w3.org/Graphics/SVG/1.1/DTD/svg11.dtd">
<svg version="1.1" xmlns="http://www.w3.org/2000/svg" xmlns:xlink="http://www.w3.org/1999/xlink" width="97.9595" height="97.9932">
 <g>
  <rect height="97.9932" opacity="0" width="97.9595" x="0" y="0"/>
  <path d="M97.9595 48.9722C97.9595 75.7759 75.8247 97.9443 48.9722 97.9443C22.1685 97.9443 0 75.7759 0 48.9722C0 22.1348 22.1348 0 48.9385 0C75.791 0 97.9595 22.1348 97.9595 48.9722ZM50.7402 49.6118C50.7402 58.9668 53.6162 70.0562 63.2798 70.0562C70.6128 70.0562 74.6895 63.6411 74.6895 55.9883C74.6895 49.2315 71.4634 42.8013 64.8345 42.8013C60.5547 42.8013 57.5088 45.8535 56.4278 50.2564L56.2476 50.2564C56.2476 50.0308 56.2476 49.8052 56.2476 49.6133C56.2476 43.5776 57.0523 32.7588 63.2427 32.7588C65.9463 32.7588 67.6416 34.7183 68.5171 37.2417C69.0982 38.5469 69.7837 39.2305 71.2354 39.2305C72.8135 39.2305 73.5562 38.1812 73.5562 36.8086C73.5562 36.332 73.4922 35.6821 73.2481 34.9868C72.1621 30.7017 68.1646 27.9707 63.3589 27.9707C53.4463 27.9707 50.7402 39.9214 50.7402 49.6118ZM30.9067 32.1963L20.7871 53.3472C20.1084 54.9219 19.8457 55.9981 19.8457 57.273C19.8457 59.2603 21.2368 60.6328 23.251 60.6328L35.1357 60.6328L35.1357 66.7939C35.1357 68.874 36.6196 69.6958 37.9399 69.6958C39.4507 69.6958 40.6953 68.6602 40.6953 66.7939L40.6953 60.6328L42.9829 60.6328C44.5425 60.6328 45.3189 59.6206 45.3189 58.2144C45.3189 56.9058 44.5308 55.8936 42.9829 55.8936L40.6953 55.8936L40.6953 32.582C40.6953 29.6416 38.7788 28.188 36.2456 28.188C33.4414 28.188 32.0806 29.6768 30.9067 32.1963ZM69.0962 56.2241C69.0962 60.3555 67.2124 65.2681 63.2124 65.2681C58.9614 65.2681 57.1182 60.1231 57.1182 55.9346C57.1182 51.8789 59.2056 47.3047 63.1973 47.3047C67.3472 47.3047 69.1636 52.044 69.0962 56.2241ZM35.2217 55.9946L24.8814 55.9946L24.8814 55.7285L35.0415 33.582L35.2217 33.582Z" fill="#000000" fill-opacity="0.85"/>
 </g>
</svg>
