<?xml version="1.0" encoding="UTF-8"?>
<!--Generator: Apple Native CoreSVG 232.5-->
<!DOCTYPE svg
PUBLIC "-//W3C//DTD SVG 1.1//EN"
       "http://www.w3.org/Graphics/SVG/1.1/DTD/svg11.dtd">
<svg version="1.1" xmlns="http://www.w3.org/2000/svg" xmlns:xlink="http://www.w3.org/1999/xlink" width="97.9595" height="97.9932">
 <g>
  <rect height="97.9932" opacity="0" width="97.9595" x="0" y="0"/>
  <path d="M48.9722 97.9443C75.8247 97.9443 97.9595 75.7759 97.9595 48.9722C97.9595 22.1348 75.791 0 48.9385 0C22.1348 0 0 22.1348 0 48.9722C0 75.7759 22.1685 97.9443 48.9722 97.9443ZM48.9722 91.6113C25.3501 91.6113 6.36671 72.5942 6.36671 48.9722C6.36671 25.3501 25.3164 6.31789 48.9385 6.31789C72.5605 6.31789 91.6265 25.3501 91.6265 48.9722C91.6265 72.5942 72.5942 91.6113 48.9722 91.6113Z" fill="#000000" fill-opacity="0.85"/>
  <path d="M38.0933 69.273C39.5855 69.273 40.7964 68.271 40.7964 66.4722L40.7964 60.3784L43.0352 60.3784C44.5762 60.3784 45.3189 59.3999 45.3189 58.0274C45.3189 56.7373 44.5645 55.7588 43.0352 55.7588L40.7964 55.7588L40.7964 32.8701C40.7964 30.0308 38.8984 28.5957 36.4663 28.5957C33.7295 28.5957 32.436 30.0659 31.2959 32.5181L21.3296 53.2949C20.6509 54.8208 20.4033 55.8784 20.4033 57.1045C20.4033 59.0396 21.7456 60.3784 23.7412 60.3784L35.3901 60.3784L35.3901 66.4722C35.3901 68.4849 36.8066 69.273 38.0933 69.273ZM35.4912 55.8599L25.3042 55.8599L25.3042 55.5938L35.2959 33.8701L35.4912 33.8701ZM62.8906 69.6333C70.0552 69.6333 74.0796 63.353 74.0796 55.8535C74.0796 49.2315 70.9058 42.936 64.4116 42.936C60.1992 42.936 57.2207 45.9209 56.1734 50.2564L55.978 50.2564C55.978 50.0308 55.978 49.8052 55.978 49.6133C55.978 43.6787 56.7979 33.0469 62.8535 33.0469C65.5234 33.0469 67.1851 34.9727 68.0757 37.4624C68.6079 38.749 69.3086 39.4326 70.6929 39.4326C72.2373 39.4326 72.9463 38.4019 72.9463 37.063C72.9463 36.5864 72.8823 35.9702 72.6568 35.2749C71.586 31.0757 67.6895 28.3936 62.9697 28.3936C53.293 28.3936 50.6543 40.1235 50.6543 49.6118C50.6543 58.7798 53.4478 69.6333 62.8906 69.6333ZM62.8233 64.98C58.6582 64.98 56.8301 59.936 56.8301 55.8149C56.8301 51.8115 58.8838 47.3047 62.8081 47.3047C66.8906 47.3047 68.707 51.9429 68.6548 56.0708C68.6548 60.1348 66.7559 64.98 62.8233 64.98Z" fill="#000000" fill-opacity="0.85"/>
 </g>
</svg>
