<?xml version="1.0" encoding="UTF-8"?>
<!--Generator: Apple Native CoreSVG 232.5-->
<!DOCTYPE svg
PUBLIC "-//W3C//DTD SVG 1.1//EN"
       "http://www.w3.org/Graphics/SVG/1.1/DTD/svg11.dtd">
<svg version="1.1" xmlns="http://www.w3.org/2000/svg" xmlns:xlink="http://www.w3.org/1999/xlink" width="88.4092" height="88.5371">
 <g>
  <rect height="88.5371" opacity="0" width="88.4092" x="0" y="0"/>
  <path d="M88.4092 14.4019L88.4092 74.2632C88.4092 83.6558 83.5733 88.5371 74.0005 88.5371L14.3936 88.5371C4.86963 88.5371 0 83.7349 0 74.2632L0 14.4019C0 4.93018 4.86963 0.127929 14.3936 0.127929L74.0005 0.127929C83.5733 0.127929 88.4092 5.00928 88.4092 14.4019ZM45.9971 44.8838C45.9971 54.2388 48.8579 65.3281 58.5366 65.3281C65.8882 65.3281 69.9463 58.9131 69.9463 51.2603C69.9463 44.5034 66.7051 38.0732 60.0913 38.0732C55.7964 38.0732 52.7505 41.1255 51.6846 45.5283L51.4893 45.5283C51.4893 45.3027 51.4893 45.0772 51.4893 44.8853C51.4893 38.8496 52.3091 28.0308 58.4844 28.0308C61.188 28.0308 62.8833 29.9902 63.7739 32.5137C64.3399 33.8189 65.0742 34.5024 66.4922 34.5024C68.0703 34.5024 68.813 33.4531 68.813 32.0806C68.813 31.604 68.7339 30.9541 68.5235 30.2588C67.419 25.9736 63.4214 23.2427 58.6343 23.2427C48.7368 23.2427 45.9971 35.1934 45.9971 44.8838ZM26.1636 27.4683L16.0288 48.6191C15.3652 50.1938 15.1025 51.27 15.1025 52.5449C15.1025 54.5322 16.4785 55.9048 18.5415 55.9048L30.3774 55.9048L30.3774 62.0659C30.3774 64.146 31.8613 64.9678 33.2305 64.9678C34.7075 64.9678 35.9522 63.9321 35.9522 62.0659L35.9522 55.9048L38.2246 55.9048C39.7993 55.9048 40.5757 54.8926 40.5757 53.4863C40.5757 52.1777 39.7876 51.1655 38.2246 51.1655L35.9522 51.1655L35.9522 27.854C35.9522 24.9136 34.0205 23.46 31.5024 23.46C28.6831 23.46 27.3223 24.9487 26.1636 27.4683ZM64.353 51.4961C64.353 55.6274 62.4692 60.54 58.4693 60.54C54.2368 60.54 52.375 55.395 52.375 51.2066C52.375 47.1509 54.4473 42.5767 58.4541 42.5767C62.5889 42.5767 64.4204 47.3159 64.353 51.4961ZM30.4785 51.2666L20.1567 51.2666L20.1567 51.0005L30.2832 28.854L30.4785 28.854Z" fill="#000000" fill-opacity="0.85"/>
 </g>
</svg>
