<?xml version="1.0" encoding="UTF-8"?>
<!--Generator: Apple Native CoreSVG 232.5-->
<!DOCTYPE svg
PUBLIC "-//W3C//DTD SVG 1.1//EN"
       "http://www.w3.org/Graphics/SVG/1.1/DTD/svg11.dtd">
<svg version="1.1" xmlns="http://www.w3.org/2000/svg" xmlns:xlink="http://www.w3.org/1999/xlink" width="97.9595" height="97.9932">
 <g>
  <rect height="97.9932" opacity="0" width="97.9595" x="0" y="0"/>
  <path d="M48.9722 97.9443C75.8247 97.9443 97.9595 75.7759 97.9595 48.9722C97.9595 22.1348 75.791 0 48.9385 0C22.1348 0 0 22.1348 0 48.9722C0 75.7759 22.1685 97.9443 48.9722 97.9443ZM48.9722 91.6113C25.3501 91.6113 6.36671 72.5942 6.36671 48.9722C6.36671 25.3501 25.3164 6.31789 48.9385 6.31789C72.5605 6.31789 91.6265 25.3501 91.6265 48.9722C91.6265 72.5942 72.5942 91.6113 48.9722 91.6113Z" fill="#000000" fill-opacity="0.85"/>
  <path d="M40.4019 69.273C41.8452 69.273 43.0562 68.271 43.0562 66.4722L43.0562 60.3784L45.3438 60.3784C46.8359 60.3784 47.6275 59.3999 47.6275 58.0274C47.6275 56.7373 46.8731 55.7588 45.3438 55.7588L43.0562 55.7588L43.0562 32.8701C43.0562 30.0308 41.207 28.5957 38.7412 28.5957C35.9893 28.5957 34.6958 30.0659 33.5557 32.5181L23.6045 53.2949C22.9595 54.8208 22.6968 55.8784 22.6968 57.1045C22.6968 59.0396 24.0205 60.3784 26.0498 60.3784L37.6836 60.3784L37.6836 66.4722C37.6836 68.4849 39.0664 69.273 40.4019 69.273ZM37.7847 55.8599L27.5977 55.8599L27.5977 55.5938L37.5894 33.8701L37.7847 33.8701ZM57.9527 69.3218C59.4263 69.3218 60.0713 68.6953 60.6338 67.2554L72.3872 35.6992C72.8032 34.5034 73.1182 33.4981 73.1182 32.3545C73.1182 30.4868 71.7085 29.2305 69.8628 29.2305L53.9248 29.2305C52.5825 29.2305 51.6074 30.2241 51.6074 31.5816C51.6074 32.9238 52.5825 33.9326 53.9248 33.9326L67.4121 33.9326L67.4121 34.2964L55.8609 64.4731C55.5308 65.3506 55.3657 65.9248 55.3657 66.8696C55.3657 68.0737 56.1387 69.3218 57.9527 69.3218Z" fill="#000000" fill-opacity="0.85"/>
 </g>
</svg>
