<?xml version="1.0" encoding="UTF-8"?>
<!--Generator: Apple Native CoreSVG 232.5-->
<!DOCTYPE svg
PUBLIC "-//W3C//DTD SVG 1.1//EN"
       "http://www.w3.org/Graphics/SVG/1.1/DTD/svg11.dtd">
<svg version="1.1" xmlns="http://www.w3.org/2000/svg" xmlns:xlink="http://www.w3.org/1999/xlink" width="97.9595" height="97.9932">
 <g>
  <rect height="97.9932" opacity="0" width="97.9595" x="0" y="0"/>
  <path d="M97.9595 48.9722C97.9595 75.7759 75.8247 97.9443 48.9722 97.9443C22.1685 97.9443 0 75.7759 0 48.9722C0 22.1348 22.1348 0 48.9385 0C75.791 0 97.9595 22.1348 97.9595 48.9722ZM54.0933 28.8076C52.7022 28.8076 51.7085 29.8501 51.7085 31.2261C51.7085 32.6358 52.7022 33.6631 54.0933 33.6631L67.835 33.6631L67.835 34.042L56.0479 64.7612C55.7329 65.6724 55.5527 66.2466 55.5527 67.2251C55.5527 68.4629 56.3594 69.7446 58.2222 69.7446C59.7481 69.7446 60.3931 69.1182 60.9893 67.6108L72.9634 35.4634C73.3794 34.249 73.7095 33.21 73.7095 32.0327C73.7095 30.0977 72.251 28.8076 70.353 28.8076ZM33.2153 32.1963L23.1143 53.3472C22.4355 54.9219 22.188 55.9981 22.188 57.273C22.188 59.2603 23.5303 60.6328 25.627 60.6328L37.4629 60.6328L37.4629 66.7939C37.4629 68.874 38.9131 69.6958 40.2671 69.6958C41.7441 69.6958 42.9888 68.6602 42.9888 66.7939L42.9888 60.6328L45.3101 60.6328C46.8696 60.6328 47.6611 59.6206 47.6611 58.2144C47.6611 56.9058 46.8916 55.8936 45.3101 55.8936L42.9888 55.8936L42.9888 32.582C42.9888 29.6416 41.106 28.188 38.5391 28.188C35.7349 28.188 34.374 29.6768 33.2153 32.1963ZM37.564 55.9946L27.2085 55.9946L27.2085 55.7285L37.3687 33.582L37.564 33.582Z" fill="#000000" fill-opacity="0.85"/>
 </g>
</svg>
