<?xml version="1.0" encoding="UTF-8"?>
<!--Generator: Apple Native CoreSVG 232.5-->
<!DOCTYPE svg
PUBLIC "-//W3C//DTD SVG 1.1//EN"
       "http://www.w3.org/Graphics/SVG/1.1/DTD/svg11.dtd">
<svg version="1.1" xmlns="http://www.w3.org/2000/svg" xmlns:xlink="http://www.w3.org/1999/xlink" width="88.4092" height="88.5371">
 <g>
  <rect height="88.5371" opacity="0" width="88.4092" x="0" y="0"/>
  <path d="M88.4092 14.4019L88.4092 74.2632C88.4092 83.6558 83.5733 88.5371 74.0005 88.5371L14.3936 88.5371C4.86963 88.5371 0 83.7349 0 74.2632L0 14.4019C0 4.93018 4.86963 0.127929 14.3936 0.127929L74.0005 0.127929C83.5733 0.127929 88.4092 5.00928 88.4092 14.4019ZM49.335 24.0796C47.959 24.0796 46.9502 25.1221 46.9502 26.4981C46.9502 27.9077 47.959 28.9351 49.335 28.9351L63.0918 28.9351L63.0918 29.314L51.3047 60.0332C50.9746 60.9443 50.8096 61.5186 50.8096 62.4971C50.8096 63.7349 51.6499 65.0166 53.4639 65.0166C55.0049 65.0166 55.6499 64.3901 56.231 62.8828L68.2202 30.7354C68.6362 29.521 68.9512 28.4819 68.9512 27.3047C68.9512 25.3696 67.5415 24.0796 65.5947 24.0796ZM28.457 27.4683L18.3711 48.6191C17.6924 50.1938 17.4297 51.27 17.4297 52.5449C17.4297 54.5322 18.7871 55.9048 20.8687 55.9048L32.7197 55.9048L32.7197 62.0659C32.7197 64.146 34.1699 64.9678 35.5239 64.9678C37.001 64.9678 38.2456 63.9321 38.2456 62.0659L38.2456 55.9048L40.5669 55.9048C42.1265 55.9048 42.9028 54.8926 42.9028 53.4863C42.9028 52.1777 42.1484 51.1655 40.5669 51.1655L38.2456 51.1655L38.2456 27.854C38.2456 24.9136 36.3628 23.46 33.8296 23.46C30.9917 23.46 29.6309 24.9487 28.457 27.4683ZM32.8057 51.2666L22.4653 51.2666L22.4653 51.0005L32.6255 28.854L32.8057 28.854Z" fill="#000000" fill-opacity="0.85"/>
 </g>
</svg>
