<?xml version="1.0" encoding="UTF-8"?>
<!--Generator: Apple Native CoreSVG 232.5-->
<!DOCTYPE svg
PUBLIC "-//W3C//DTD SVG 1.1//EN"
       "http://www.w3.org/Graphics/SVG/1.1/DTD/svg11.dtd">
<svg version="1.1" xmlns="http://www.w3.org/2000/svg" xmlns:xlink="http://www.w3.org/1999/xlink" width="97.9595" height="97.9932">
 <g>
  <rect height="97.9932" opacity="0" width="97.9595" x="0" y="0"/>
  <path d="M97.9595 48.9722C97.9595 75.7759 75.8247 97.9443 48.9722 97.9443C22.1685 97.9443 0 75.7759 0 48.9722C0 22.1348 22.1348 0 48.9385 0C75.791 0 97.9595 22.1348 97.9595 48.9722ZM51.6411 38.7603C51.6411 43.5239 54.4585 46.7026 57.8931 47.8003L57.8931 47.9165C53.6382 48.8779 50.5181 52.9844 50.5181 58.2261C50.5181 65.2881 55.6372 69.9248 62.7681 69.9248C70.2276 69.9248 75.0669 64.9746 75.0669 58.2261C75.0669 52.981 71.7935 48.8442 67.7744 47.9165L67.7744 47.8003C71.2495 46.669 73.9741 43.2915 73.9741 38.794C73.9741 32.5689 69.5488 28.0684 62.7681 28.0684C56.6694 28.0684 51.6411 32.1191 51.6411 38.7603ZM30.7856 32.1963L20.6509 53.3472C19.9873 54.9219 19.7246 55.9981 19.7246 57.273C19.7246 59.2603 21.1006 60.6328 23.1636 60.6328L35.0332 60.6328L35.0332 66.7939C35.0332 68.874 36.4497 69.6958 37.8189 69.6958C39.3296 69.6958 40.5742 68.6602 40.5742 66.7939L40.5742 60.6328L42.8804 60.6328C44.4214 60.6328 45.1978 59.6206 45.1978 58.2144C45.1978 56.9058 44.4434 55.8936 42.8804 55.8936L40.5742 55.8936L40.5742 32.582C40.5742 29.6416 38.6577 28.188 36.1245 28.188C33.2715 28.188 31.9443 29.6768 30.7856 32.1963ZM69.0542 57.8066C69.0542 61.8809 66.854 65.4399 62.7984 65.4399C58.7276 65.4399 56.5122 61.896 56.5122 57.8066C56.5122 53.7393 58.7764 50.3652 62.7984 50.3652C66.605 50.3652 69.0542 53.438 69.0542 57.8066ZM35.1343 55.9946L24.7788 55.9946L24.7788 55.7285L34.939 33.582L35.1343 33.582ZM68.3135 39.311C68.3135 42.9946 66.1992 45.8989 62.7984 45.8989C59.4546 45.8989 57.2681 42.895 57.2681 39.311C57.2681 35.6343 59.3555 32.5195 62.7984 32.5195C66.4785 32.5195 68.3135 35.8159 68.3135 39.311Z" fill="#000000" fill-opacity="0.85"/>
 </g>
</svg>
