<?xml version="1.0" encoding="UTF-8"?>
<!--Generator: Apple Native CoreSVG 232.5-->
<!DOCTYPE svg
PUBLIC "-//W3C//DTD SVG 1.1//EN"
       "http://www.w3.org/Graphics/SVG/1.1/DTD/svg11.dtd">
<svg version="1.1" xmlns="http://www.w3.org/2000/svg" xmlns:xlink="http://www.w3.org/1999/xlink" width="97.9595" height="97.9932">
 <g>
  <rect height="97.9932" opacity="0" width="97.9595" x="0" y="0"/>
  <path d="M48.9722 97.9443C75.8247 97.9443 97.9595 75.7759 97.9595 48.9722C97.9595 22.1348 75.791 0 48.9385 0C22.1348 0 0 22.1348 0 48.9722C0 75.7759 22.1685 97.9443 48.9722 97.9443ZM48.9722 91.6113C25.3501 91.6113 6.36671 72.5942 6.36671 48.9722C6.36671 25.3501 25.3164 6.31789 48.9385 6.31789C72.5605 6.31789 91.6265 25.3501 91.6265 48.9722C91.6265 72.5942 72.5942 91.6113 48.9722 91.6113Z" fill="#000000" fill-opacity="0.85"/>
  <path d="M38.9199 69.273C40.397 69.273 41.5742 68.271 41.5742 66.4722L41.5742 60.3784L43.8467 60.3784C45.3877 60.3784 46.1304 59.3999 46.1304 58.0274C46.1304 56.7373 45.376 55.7588 43.8467 55.7588L41.5742 55.7588L41.5742 32.8701C41.5742 30.0308 39.7251 28.5957 37.2778 28.5957C34.5073 28.5957 33.2139 30.0659 32.0737 32.5181L22.1411 53.2949C21.4624 54.8208 21.2148 55.8784 21.2148 57.1045C21.2148 59.0396 22.5234 60.3784 24.5527 60.3784L36.2017 60.3784L36.2017 66.4722C36.2017 68.4849 37.6182 69.273 38.9199 69.273ZM36.3027 55.8599L26.1157 55.8599L26.1157 55.5938L36.1074 33.8701L36.3027 33.8701ZM60.7803 55.0757C65.0566 55.0757 68.0352 52.106 69.0825 47.7705L69.2627 47.7705C69.2627 47.9961 69.2627 48.2217 69.2627 48.4136C69.2627 54.3481 68.458 64.9009 62.3233 64.9009C59.7324 64.9009 58.0708 63.0542 57.1314 60.4399C56.5537 58.98 55.7588 58.436 54.5816 58.436C52.9243 58.436 52.1968 59.5156 52.1968 60.8545C52.1968 61.395 52.3433 62.0112 52.52 62.6426C53.6211 66.9512 57.5664 69.5845 62.2525 69.5845C71.9292 69.5845 74.6016 58.0767 74.6016 48.415C74.6016 39.2471 71.8081 28.3633 62.3652 28.3633C55.231 28.3633 51.1763 34.6738 51.1763 42.1885C51.1763 48.7954 54.3501 55.0757 60.7803 55.0757ZM62.4175 50.6582C58.3652 50.6582 56.5674 46.084 56.5674 42.0015C56.5674 37.8247 58.5 32.9981 62.4175 32.9981C66.5488 32.9981 68.4258 37.8701 68.4258 42.0015C68.4258 46.2153 66.3721 50.6582 62.4175 50.6582Z" fill="#000000" fill-opacity="0.85"/>
 </g>
</svg>
