<?xml version="1.0" encoding="UTF-8"?>
<!--Generator: Apple Native CoreSVG 232.5-->
<!DOCTYPE svg
PUBLIC "-//W3C//DTD SVG 1.1//EN"
       "http://www.w3.org/Graphics/SVG/1.1/DTD/svg11.dtd">
<svg version="1.1" xmlns="http://www.w3.org/2000/svg" xmlns:xlink="http://www.w3.org/1999/xlink" width="97.9595" height="97.9932">
 <g>
  <rect height="97.9932" opacity="0" width="97.9595" x="0" y="0"/>
  <path d="M97.9595 48.9722C97.9595 75.7759 75.8247 97.9443 48.9722 97.9443C22.1685 97.9443 0 75.7759 0 48.9722C0 22.1348 22.1348 0 48.9385 0C75.791 0 97.9595 22.1348 97.9595 48.9722ZM58.0806 31.9151L49.0884 65.2695C48.9722 65.7192 48.8223 66.5361 48.8223 67.0195C48.8223 68.6465 49.9473 69.7446 51.6079 69.7446C53.1826 69.7446 54.1831 68.9497 54.5132 67.1509L56.5635 58.8433L68.4331 58.8433L70.5322 67.1846C70.9482 69.1519 72.0986 69.7446 73.5386 69.7446C75.0982 69.7446 76.2266 68.5791 76.2266 67.0195C76.2266 66.2886 76.1104 65.7446 75.9605 65.1753L66.9986 31.9151C66.3535 29.377 64.7569 28.252 62.4966 28.252C60.1538 28.252 58.7256 29.4966 58.0806 31.9151ZM29.6992 32.1963L19.6133 53.3472C18.9346 54.9219 18.687 55.9981 18.687 57.273C18.687 59.2603 20.063 60.6328 22.126 60.6328L33.9619 60.6328L33.9619 66.7939C33.9619 68.874 35.4458 69.6958 36.7661 69.6958C38.2769 69.6958 39.5215 68.6602 39.5215 66.7939L39.5215 60.6328L41.8091 60.6328C43.3687 60.6328 44.1602 59.6206 44.1602 58.2144C44.1602 56.9058 43.3906 55.8936 41.8091 55.8936L39.5215 55.8936L39.5215 32.582C39.5215 29.6416 37.605 28.188 35.0718 28.188C32.2676 28.188 30.9067 29.6768 29.6992 32.1963ZM34.063 55.9946L23.7075 55.9946L23.7075 55.7285L33.8677 33.582L34.063 33.582ZM67.3418 54.3213L57.6699 54.3213L62.2979 35.1821L62.6128 35.1821Z" fill="#000000" fill-opacity="0.85"/>
 </g>
</svg>
