<?xml version="1.0" encoding="UTF-8"?>
<!--Generator: Apple Native CoreSVG 232.5-->
<!DOCTYPE svg
PUBLIC "-//W3C//DTD SVG 1.1//EN"
       "http://www.w3.org/Graphics/SVG/1.1/DTD/svg11.dtd">
<svg version="1.1" xmlns="http://www.w3.org/2000/svg" xmlns:xlink="http://www.w3.org/1999/xlink" width="121.454" height="72.1729">
 <g>
  <rect height="72.1729" opacity="0" width="121.454" x="0" y="0"/>
  <path d="M38.8789 72.1729C40.7114 72.1729 42.0757 70.7563 42.0757 68.8227L42.0757 55.0523L49.8228 55.0523C51.5425 55.0523 52.772 53.9727 52.772 52.2378C52.772 50.604 51.5088 49.4233 49.8228 49.4233L42.0757 49.4233L42.0757 5.22462C42.0757 2.23829 39.812 0.0722647 36.7246 0.0722647C33.5107 0.0722647 31.562 2.37159 29.7666 5.13722L1.44336 46.56C0.498536 48.0068 0 49.5059 0 50.8701C0 53.2837 1.61182 55.0523 4.56446 55.0523L35.6973 55.0523L35.6973 68.8227C35.6973 71.0781 37.3159 72.1729 38.8789 72.1729ZM35.7158 49.4756L6.459 49.4756L6.459 49.1421L35.352 7.0381L35.7158 7.0381ZM65.9751 72.0518C67.9273 72.0518 68.8638 71.3022 69.5796 69.2339L76.938 49.606L107.291 49.606L114.649 69.2339C115.365 71.3022 116.316 72.0518 118.22 72.0518C120.187 72.0518 121.454 70.8677 121.454 69.0015C121.454 68.3682 121.337 67.7534 121.022 66.9702L96.7598 3.36524C95.9395 1.18897 94.4673 0.0234365 92.1294 0.0234365C89.8589 0.0234365 88.3227 1.14014 87.5361 3.33155L63.2734 67.0039C62.9736 67.772 62.8574 68.4018 62.8574 69.0351C62.8574 70.9014 64.0566 72.0518 65.9751 72.0518ZM78.8159 43.9097L91.9829 8.52053L92.2119 8.52053L105.379 43.9097Z" fill="#000000" fill-opacity="0.85"/>
 </g>
</svg>
