<?xml version="1.0" encoding="UTF-8"?>
<!--Generator: Apple Native CoreSVG 232.5-->
<!DOCTYPE svg
PUBLIC "-//W3C//DTD SVG 1.1//EN"
       "http://www.w3.org/Graphics/SVG/1.1/DTD/svg11.dtd">
<svg version="1.1" xmlns="http://www.w3.org/2000/svg" xmlns:xlink="http://www.w3.org/1999/xlink" width="97.9595" height="97.9932">
 <g>
  <rect height="97.9932" opacity="0" width="97.9595" x="0" y="0"/>
  <path d="M97.9595 48.9722C97.9595 75.7759 75.8247 97.9443 48.9722 97.9443C22.1685 97.9443 0 75.7759 0 48.9722C0 22.1348 22.1348 0 48.9385 0C75.791 0 97.9595 22.1348 97.9595 48.9722ZM69.5928 31.1538L69.5928 46.0991L55.813 46.0991L55.813 31.1538C55.813 29.542 54.4859 28.2148 52.874 28.2148C51.2808 28.2148 49.9536 29.542 49.9536 31.1538L49.9536 66.7231C49.9536 68.3838 51.2808 69.7109 52.874 69.7109C54.4859 69.7109 55.813 68.3838 55.813 66.7231L55.813 51.0708L69.5928 51.0708L69.5928 66.7231C69.5928 68.3838 70.9199 69.7109 72.5469 69.7109C74.0913 69.7109 75.4522 68.3838 75.4522 66.7231L75.4522 31.1538C75.4522 29.542 74.0913 28.2148 72.5469 28.2148C70.9199 28.2148 69.5928 29.542 69.5928 31.1538ZM28.9736 32.1963L18.8726 53.3472C18.209 54.9219 17.9463 55.9981 17.9463 57.273C17.9463 59.2603 19.3037 60.6328 21.3853 60.6328L33.2212 60.6328L33.2212 66.8276C33.2212 68.874 34.6714 69.6958 36.0405 69.6958C37.5513 69.6958 38.7622 68.6602 38.7622 66.8276L38.7622 60.6328L41.0684 60.6328C42.6431 60.6328 43.4194 59.6206 43.4194 58.2144C43.4194 56.9058 42.665 55.8936 41.0684 55.8936L38.7622 55.8936L38.7622 32.582C38.7622 29.6416 36.8794 28.188 34.3462 28.188C31.4932 28.188 30.1323 29.6768 28.9736 32.1963ZM33.3223 55.9946L22.9668 55.9946L22.9668 55.7285L33.127 33.582L33.3223 33.582Z" fill="#000000" fill-opacity="0.85"/>
 </g>
</svg>
