<?xml version="1.0" encoding="UTF-8"?>
<!--Generator: Apple Native CoreSVG 232.5-->
<!DOCTYPE svg
PUBLIC "-//W3C//DTD SVG 1.1//EN"
       "http://www.w3.org/Graphics/SVG/1.1/DTD/svg11.dtd">
<svg version="1.1" xmlns="http://www.w3.org/2000/svg" xmlns:xlink="http://www.w3.org/1999/xlink" width="122.279" height="72.2168">
 <g>
  <rect height="72.2168" opacity="0" width="122.279" x="0" y="0"/>
  <path d="M38.8789 72.1948C40.7114 72.1948 42.0757 70.7783 42.0757 68.8447L42.0757 55.0742L49.8228 55.0742C51.5425 55.0742 52.772 53.9946 52.772 52.2598C52.772 50.626 51.5088 49.4453 49.8228 49.4453L42.0757 49.4453L42.0757 5.24659C42.0757 2.26026 39.812 0.0942379 36.7246 0.0942379C33.5107 0.0942379 31.562 2.39356 29.7666 5.15919L1.44336 46.582C0.498536 48.0288 0 49.5278 0 50.8921C0 53.3057 1.61182 55.0742 4.56446 55.0742L35.6973 55.0742L35.6973 68.8447C35.6973 71.1001 37.3159 72.1948 38.8789 72.1948ZM35.7158 49.4976L6.459 49.4976L6.459 49.1641L35.352 7.06007L35.7158 7.06007ZM71.0093 72.1948C72.8418 72.1948 74.3257 70.7109 74.3257 68.8784L74.3257 38.1357L115.646 38.1357L115.646 68.8784C115.646 70.7109 117.13 72.1948 118.963 72.1948C120.795 72.1948 122.279 70.7109 122.279 68.8784L122.279 3.31641C122.279 1.4502 120.795 0 118.963 0C117.13 0 115.646 1.4502 115.646 3.31641L115.646 32.293L74.3257 32.293L74.3257 3.31641C74.3257 1.4502 72.8418 0 71.0093 0C69.1768 0 67.6929 1.4502 67.6929 3.31641L67.6929 68.8784C67.6929 70.7109 69.1768 72.1948 71.0093 72.1948Z" fill="#000000" fill-opacity="0.85"/>
 </g>
</svg>
