<?xml version="1.0" encoding="UTF-8"?>
<!--Generator: Apple Native CoreSVG 232.5-->
<!DOCTYPE svg
PUBLIC "-//W3C//DTD SVG 1.1//EN"
       "http://www.w3.org/Graphics/SVG/1.1/DTD/svg11.dtd">
<svg version="1.1" xmlns="http://www.w3.org/2000/svg" xmlns:xlink="http://www.w3.org/1999/xlink" width="118.922" height="94.1026">
 <g>
  <rect height="94.1026" opacity="0" width="118.922" x="0" y="0"/>
  <path d="M11.4136 79.1509L107.508 79.1509C114.67 79.1509 118.922 74.8652 118.922 67.7373L118.922 11.4287C118.922 4.28565 114.67 0 107.508 0L11.4136 0C4.28565 0 0 4.28565 0 11.4287L0 67.7373C0 74.8652 4.28565 79.1509 11.4136 79.1509ZM11.5752 73.1211C8.07863 73.1211 6.04494 71.1025 6.04494 67.6245L6.04494 11.5264C6.04494 8.06349 8.07863 6.04494 11.5752 6.04494L107.347 6.04494C110.843 6.04494 112.892 8.06349 112.892 11.5264L112.892 67.6245C112.892 71.1025 110.843 73.1211 107.347 73.1211ZM35.4302 94.0386L83.4917 94.0386C85.1709 94.0386 86.5537 92.7198 86.5537 91.0069C86.5537 89.3091 85.1709 87.9751 83.4917 87.9751L35.4302 87.9751C33.7661 87.9751 32.3682 89.3091 32.3682 91.0069C32.3682 92.7198 33.7661 94.0386 35.4302 94.0386Z" fill="#000000" fill-opacity="0.85"/>
  <path d="M46.9316 59.9419C48.375 59.9419 49.586 58.9214 49.586 57.1074L49.586 51.0137L51.8735 51.0137C53.3657 51.0137 54.1421 50.0352 54.1421 48.6963C54.1421 47.3726 53.3877 46.394 51.8735 46.394L49.586 46.394L49.586 23.5054C49.586 20.666 47.7368 19.2647 45.2896 19.2647C42.519 19.2647 41.2256 20.7349 40.0854 23.187L30.1191 43.9639C29.4741 45.4561 29.2266 46.5137 29.2266 47.7398C29.2266 49.6748 30.5352 51.0137 32.5645 51.0137L44.2134 51.0137L44.2134 57.1074C44.2134 59.1201 45.5962 59.9419 46.9316 59.9419ZM44.3145 46.4951L34.1275 46.4951L34.1275 46.2627L44.1191 24.5391L44.3145 24.5391ZM63.3609 60.021C65.2759 60.021 66.2476 58.6602 66.2476 57.0518L66.2476 47.0703L69.7695 41.7149L79.4566 57.8652C80.2515 59.2261 80.9673 59.9385 82.478 59.9385C84.0376 59.9385 85.0161 58.8101 85.0161 57.269C85.0161 56.4219 84.8511 55.9082 84.3374 55.0273L73.8286 37.6983L83.0142 24.2446C83.4942 23.5996 83.8057 22.9883 83.8057 22.0737C83.8057 20.7349 82.8609 19.4717 81.2339 19.4717C79.7871 19.4717 79.1943 20.2212 78.6655 21.065L66.4951 39.3857L66.1988 39.3857L66.1988 22.3281C66.1988 20.6826 65.1597 19.3892 63.3609 19.3892C61.5654 19.3892 60.4927 20.5816 60.4927 22.3281L60.4927 57.0518C60.4927 58.7798 61.5991 60.021 63.3609 60.021Z" fill="#000000" fill-opacity="0.85"/>
 </g>
</svg>
