<?xml version="1.0" encoding="UTF-8"?>
<!--Generator: Apple Native CoreSVG 232.5-->
<!DOCTYPE svg
PUBLIC "-//W3C//DTD SVG 1.1//EN"
       "http://www.w3.org/Graphics/SVG/1.1/DTD/svg11.dtd">
<svg version="1.1" xmlns="http://www.w3.org/2000/svg" xmlns:xlink="http://www.w3.org/1999/xlink" width="118.922" height="94.1026">
 <g>
  <rect height="94.1026" opacity="0" width="118.922" x="0" y="0"/>
  <path d="M86.5537 90.9732C86.5537 92.6861 85.1709 94.0049 83.4917 94.0049L35.4302 94.0049C33.7661 94.0049 32.3682 92.6861 32.3682 90.9732C32.3682 89.2754 33.7661 87.9414 35.4302 87.9414L83.4917 87.9414C85.1709 87.9414 86.5537 89.2754 86.5537 90.9732ZM118.922 11.4287L118.922 67.7036C118.922 75.3218 115.025 79.1172 107.508 79.1172L11.4136 79.1172C3.93018 79.1172 0 75.3218 0 67.7036L0 11.4287C0 3.81055 3.93018 0 11.4136 0L107.508 0C115.025 0 118.922 3.81055 118.922 11.4287ZM60.5601 21.9727L60.5601 57.355C60.5601 59.1353 61.7002 60.4102 63.4805 60.4102C65.478 60.4102 66.4834 59.0156 66.4834 57.355L66.4834 47.2051L70.0576 41.7486L79.898 58.187C80.7266 59.5816 81.4424 60.3125 83.0205 60.3125C84.6138 60.3125 85.626 59.1655 85.626 57.5908C85.626 56.71 85.461 56.1626 84.9473 55.248L74.2515 37.646L83.5904 23.9229C84.0703 23.2778 84.4156 22.6328 84.4156 21.6846C84.4156 20.312 83.437 19.0151 81.7427 19.0151C80.2774 19.0151 79.6358 19.7983 79.1221 20.6572L66.7158 39.3335L66.4195 39.3335L66.4195 21.9727C66.4195 20.2598 65.3467 18.9326 63.4805 18.9326C61.6665 18.9326 60.5601 20.1738 60.5601 21.9727ZM39.6626 22.8316L29.543 43.9976C28.8643 45.5234 28.6167 46.5996 28.6167 47.8745C28.6167 49.8618 29.959 51.2344 32.0557 51.2344L43.8916 51.2344L43.8916 57.4106C43.8916 59.4756 45.3418 60.3311 46.6958 60.3311C48.1729 60.3311 49.4175 59.2617 49.4175 57.4106L49.4175 51.2344L51.7388 51.2344C53.2984 51.2344 54.0899 50.2222 54.0899 48.8496C54.0899 47.5073 53.3203 46.4951 51.7388 46.4951L49.4175 46.4951L49.4175 23.1836C49.4175 20.2432 47.5347 18.8232 45.0015 18.8232C42.1636 18.8232 40.8364 20.312 39.6626 22.8316ZM43.9927 46.5962L33.6372 46.5962L33.6372 46.3638L43.7974 24.2173L43.9927 24.2173Z" fill="#000000" fill-opacity="0.85"/>
 </g>
</svg>
