<?xml version="1.0" encoding="UTF-8"?>
<!--Generator: Apple Native CoreSVG 232.5-->
<!DOCTYPE svg
PUBLIC "-//W3C//DTD SVG 1.1//EN"
       "http://www.w3.org/Graphics/SVG/1.1/DTD/svg11.dtd">
<svg version="1.1" xmlns="http://www.w3.org/2000/svg" xmlns:xlink="http://www.w3.org/1999/xlink" width="97.9595" height="97.9932">
 <g>
  <rect height="97.9932" opacity="0" width="97.9595" x="0" y="0"/>
  <path d="M48.9722 97.9443C75.8247 97.9443 97.9595 75.7759 97.9595 48.9722C97.9595 22.1348 75.791 0 48.9385 0C22.1348 0 0 22.1348 0 48.9722C0 75.7759 22.1685 97.9443 48.9722 97.9443ZM48.9722 91.6113C25.3501 91.6113 6.36671 72.5942 6.36671 48.9722C6.36671 25.3501 25.3164 6.31789 48.9385 6.31789C72.5605 6.31789 91.6265 25.3501 91.6265 48.9722C91.6265 72.5942 72.5942 91.6113 48.9722 91.6113Z" fill="#000000" fill-opacity="0.85"/>
  <path d="M39.8931 69.273C41.3364 69.273 42.5474 68.271 42.5474 66.4722L42.5474 60.3784L44.8198 60.3784C46.3272 60.3784 47.1035 59.3999 47.1035 58.0274C47.1035 56.7373 46.3491 55.7588 44.8198 55.7588L42.5474 55.7588L42.5474 32.8701C42.5474 30.0308 40.6982 28.5957 38.2173 28.5957C35.4805 28.5957 34.187 30.0659 33.0469 32.5181L23.0806 53.2949C22.4355 54.8208 22.188 55.8784 22.188 57.1045C22.188 59.0396 23.4966 60.3784 25.5259 60.3784L37.1748 60.3784L37.1748 66.4722C37.1748 68.4849 38.5576 69.273 39.8931 69.273ZM37.2759 55.8599L27.0889 55.8599L27.0889 55.5938L37.0806 33.8701L37.2759 33.8701ZM56.1943 68.6987L70.4888 68.6987C71.8682 68.6987 72.9595 67.8247 72.9595 66.2803C72.9595 64.7847 71.8682 63.8955 70.4888 63.8955L59.0811 63.8955L59.0811 31.6626C59.0811 29.9683 58.1919 28.6714 56.2432 28.6714C54.4478 28.6714 53.439 29.8486 53.439 31.6626L53.439 65.7783C53.439 67.5889 54.4175 68.6987 56.1943 68.6987Z" fill="#000000" fill-opacity="0.85"/>
 </g>
</svg>
