<?xml version="1.0" encoding="UTF-8"?>
<!--Generator: Apple Native CoreSVG 232.5-->
<!DOCTYPE svg
PUBLIC "-//W3C//DTD SVG 1.1//EN"
       "http://www.w3.org/Graphics/SVG/1.1/DTD/svg11.dtd">
<svg version="1.1" xmlns="http://www.w3.org/2000/svg" xmlns:xlink="http://www.w3.org/1999/xlink" width="97.9595" height="97.9932">
 <g>
  <rect height="97.9932" opacity="0" width="97.9595" x="0" y="0"/>
  <path d="M97.9595 48.9722C97.9595 75.7759 75.8247 97.9443 48.9722 97.9443C22.1685 97.9443 0 75.7759 0 48.9722C0 22.1348 22.1348 0 48.9385 0C75.791 0 97.9595 22.1348 97.9595 48.9722ZM40.084 26.5747C37.5054 26.5747 35.8867 28.0366 35.7065 30.376L34.23 48.3164C34.0801 50.5801 35.3955 52.0606 37.5732 52.0606C39.02 52.0606 39.8706 51.7456 41.3916 50.5498C44.1172 47.9087 46.3696 46.9307 49.4082 46.9307C55.1997 46.9307 59.1426 50.9595 59.1426 56.9194C59.1426 62.876 54.7197 67.2803 48.7749 67.2803C44.125 67.2803 40.2007 64.8814 38.7676 61.2583C38.1157 59.9194 37.1675 59.2407 35.96 59.2407C34.3784 59.2407 33.2988 60.3389 33.2988 61.8682C33.2988 62.5503 33.4487 63.1499 33.6997 63.7495C35.4595 68.8916 41.0313 72.311 48.7398 72.311C58.4453 72.311 65.0982 66.1265 65.0982 56.7695C65.0982 48.1704 58.9287 42.1357 50.1089 42.1357C45.9922 42.1357 41.8233 43.9878 39.8047 46.7202L39.4932 46.7202L40.7861 31.5532L61.0244 31.5532C62.4155 31.5532 63.4126 30.4922 63.4126 29.064C63.4126 27.6021 62.4492 26.5747 61.0244 26.5747Z" fill="#000000" fill-opacity="0.85"/>
 </g>
</svg>
