<?xml version="1.0" encoding="UTF-8"?>
<!--Generator: Apple Native CoreSVG 232.5-->
<!DOCTYPE svg
PUBLIC "-//W3C//DTD SVG 1.1//EN"
       "http://www.w3.org/Graphics/SVG/1.1/DTD/svg11.dtd">
<svg version="1.1" xmlns="http://www.w3.org/2000/svg" xmlns:xlink="http://www.w3.org/1999/xlink" width="88.4092" height="88.5371">
 <g>
  <rect height="88.5371" opacity="0" width="88.4092" x="0" y="0"/>
  <path d="M14.3936 88.5371L74.0005 88.5371C83.5733 88.5371 88.4092 83.6558 88.4092 74.2632L88.4092 14.4019C88.4092 5.00928 83.5733 0.127929 74.0005 0.127929L14.3936 0.127929C4.86963 0.127929 0 4.93018 0 14.4019L0 74.2632C0 83.7349 4.86963 88.5371 14.3936 88.5371ZM14.5064 82.4922C9.00294 82.4922 6.04494 79.6016 6.04494 73.9634L6.04494 14.7017C6.04494 9.06349 9.00294 6.17287 14.5064 6.17287L73.9028 6.17287C79.2969 6.17287 82.3643 9.06349 82.3643 14.7017L82.3643 73.9634C82.3643 79.6016 79.2969 82.4922 73.9028 82.4922Z" fill="#000000" fill-opacity="0.85"/>
  <path d="M43.9966 67.1079C53.5 67.1079 60.0332 61.043 60.0332 51.9219C60.0332 43.4761 53.9497 37.561 45.3506 37.561C41.3164 37.561 37.1997 39.3794 35.2149 42.0933L34.9033 42.0933L36.1963 27.147L56.0269 27.147C57.3691 27.147 58.3477 26.1196 58.3477 24.7251C58.3477 23.3306 57.4028 22.3369 56.0269 22.3369L35.4941 22.3369C33.0166 22.3369 31.4165 23.7315 31.2515 26.0034L29.8271 43.6558C29.6436 45.8184 30.9404 47.2651 33.0508 47.2651C34.4639 47.2651 35.3145 46.9502 36.7495 45.7881C39.4414 43.1807 41.6602 42.2363 44.6499 42.2363C50.3555 42.2363 54.231 46.1978 54.231 52.0381C54.231 57.8936 49.8604 62.2305 44.0166 62.2305C39.4678 62.2305 35.6109 59.8652 34.2114 56.2944C33.5596 54.9893 32.645 54.3442 31.4712 54.3442C29.9419 54.3442 28.9111 55.4238 28.9111 56.8857C28.9111 57.5342 29.061 58.1338 29.312 58.6997C31.0044 63.7559 36.4414 67.1079 43.9966 67.1079Z" fill="#000000" fill-opacity="0.85"/>
 </g>
</svg>
