<?xml version="1.0" encoding="UTF-8"?>
<!--Generator: Apple Native CoreSVG 232.5-->
<!DOCTYPE svg
PUBLIC "-//W3C//DTD SVG 1.1//EN"
       "http://www.w3.org/Graphics/SVG/1.1/DTD/svg11.dtd">
<svg version="1.1" xmlns="http://www.w3.org/2000/svg" xmlns:xlink="http://www.w3.org/1999/xlink" width="97.9595" height="97.9932">
 <g>
  <rect height="97.9932" opacity="0" width="97.9595" x="0" y="0"/>
  <path d="M48.9722 97.9443C75.8247 97.9443 97.9595 75.7759 97.9595 48.9722C97.9595 22.1348 75.791 0 48.9385 0C22.1348 0 0 22.1348 0 48.9722C0 75.7759 22.1685 97.9443 48.9722 97.9443ZM48.9722 91.6113C25.3501 91.6113 6.36671 72.5942 6.36671 48.9722C6.36671 25.3501 25.3164 6.31789 48.9385 6.31789C72.5605 6.31789 91.6265 25.3501 91.6265 48.9722C91.6265 72.5942 72.5942 91.6113 48.9722 91.6113Z" fill="#000000" fill-opacity="0.85"/>
  <path d="M34.7827 69.6973C42.0972 69.6973 46.0542 63.2588 46.0542 55.8618C46.0542 49.1841 42.8467 42.8921 36.5479 42.8921C33.7578 42.8921 30.9512 44.1802 29.6397 47.2427L29.4258 47.2427L30.377 33.9966L42.2114 33.9966C43.6025 33.9966 44.4614 33.0366 44.4614 31.6304C44.4614 30.3218 43.5537 29.313 42.2114 29.313L28.9536 29.313C26.7441 29.313 25.8179 30.731 25.6528 32.8276L24.7353 47.1148C24.6714 47.8774 24.6226 48.7344 24.6226 49.2783C24.6226 50.8496 25.4629 52.1279 27.2549 52.1279C28.4522 52.1279 29.082 51.5942 29.9107 50.4087C31.0942 48.5098 32.6025 47.1411 34.8433 47.1411C38.8804 47.1411 40.5654 51.9409 40.5654 55.978C40.5654 60.4395 38.7978 65.0288 34.7153 65.0288C31.6177 65.0288 29.7105 62.6216 28.9072 59.5728C28.4424 58.1616 27.5649 57.5654 26.4888 57.5654C25.0151 57.5654 24.104 58.5068 24.104 59.9653C24.104 60.8613 24.3667 61.8296 24.6665 62.6245C26.1787 66.8218 30.2368 69.6973 34.7827 69.6973ZM63.6362 69.6973C73.0991 69.6973 75.647 58.3359 75.647 49.021C75.647 39.7061 73.0991 28.3599 63.6362 28.3599C54.2222 28.3599 51.6592 39.7061 51.6592 49.021C51.6592 58.3359 54.2222 69.6973 63.6362 69.6973ZM63.6362 64.9951C58.7427 64.9951 57.3653 56.957 57.3653 49.021C57.3653 41.1187 58.7427 33.0806 63.6362 33.0806C68.5635 33.0806 69.9561 41.1187 69.9561 49.021C69.9561 56.957 68.5635 64.9951 63.6362 64.9951Z" fill="#000000" fill-opacity="0.85"/>
 </g>
</svg>
