<?xml version="1.0" encoding="UTF-8"?>
<!--Generator: Apple Native CoreSVG 232.5-->
<!DOCTYPE svg
PUBLIC "-//W3C//DTD SVG 1.1//EN"
       "http://www.w3.org/Graphics/SVG/1.1/DTD/svg11.dtd">
<svg version="1.1" xmlns="http://www.w3.org/2000/svg" xmlns:xlink="http://www.w3.org/1999/xlink" width="97.9595" height="97.9932">
 <g>
  <rect height="97.9932" opacity="0" width="97.9595" x="0" y="0"/>
  <path d="M97.9595 48.9722C97.9595 75.7759 75.8247 97.9443 48.9722 97.9443C22.1685 97.9443 0 75.7759 0 48.9722C0 22.1348 22.1348 0 48.9385 0C75.791 0 97.9595 22.1348 97.9595 48.9722ZM28.5308 28.9053C26.269 28.9053 25.3091 30.3755 25.1289 32.5059L24.2114 47.0474C24.1626 47.8438 24.0986 48.7007 24.0986 49.2783C24.0986 50.8833 24.939 52.1953 26.8135 52.1953C28.0293 52.1953 28.6743 51.6616 29.5215 50.4424C30.7388 48.5098 32.2471 47.1411 34.5552 47.1411C38.6597 47.1411 40.3447 51.9932 40.3447 56.0977C40.3447 60.6753 38.5771 65.3169 34.4272 65.3169C31.2622 65.3169 29.3213 62.876 28.5181 59.7935C28.0347 58.3486 27.1235 57.7339 25.9985 57.7339C24.5063 57.7339 23.5615 58.6939 23.5615 60.2012C23.5615 61.1157 23.8242 62.1177 24.1426 62.9126C25.6885 67.2109 29.8477 70.105 34.4946 70.105C41.9775 70.105 45.9868 63.5469 45.9868 55.9815C45.9868 49.1841 42.7271 42.7573 36.2935 42.7573C33.436 42.7573 30.5957 44.0791 29.2505 47.209L29.0518 47.209L30.0029 33.7422L42.0767 33.7422C43.5166 33.7422 44.394 32.7485 44.394 31.2749C44.394 29.9326 43.4526 28.9053 42.0767 28.9053ZM51.7266 49.021C51.7266 58.5718 54.3418 70.105 63.958 70.105C73.6416 70.105 76.272 58.5718 76.272 49.021C76.272 39.4854 73.6416 27.937 63.958 27.937C54.3418 27.937 51.7266 39.4854 51.7266 49.021ZM70.3638 49.021C70.3638 57.1592 68.9526 65.2495 63.958 65.2495C58.9971 65.2495 57.586 57.1592 57.586 49.021C57.586 40.9165 58.9971 32.7925 63.958 32.7925C68.9526 32.7925 70.3638 40.9165 70.3638 49.021Z" fill="#000000" fill-opacity="0.85"/>
 </g>
</svg>
