<?xml version="1.0" encoding="UTF-8"?>
<!--Generator: Apple Native CoreSVG 232.5-->
<!DOCTYPE svg
PUBLIC "-//W3C//DTD SVG 1.1//EN"
       "http://www.w3.org/Graphics/SVG/1.1/DTD/svg11.dtd">
<svg version="1.1" xmlns="http://www.w3.org/2000/svg" xmlns:xlink="http://www.w3.org/1999/xlink" width="88.4092" height="88.5371">
 <g>
  <rect height="88.5371" opacity="0" width="88.4092" x="0" y="0"/>
  <path d="M14.3936 88.5371L74.0005 88.5371C83.5733 88.5371 88.4092 83.6558 88.4092 74.2632L88.4092 14.4019C88.4092 5.00928 83.5733 0.127929 74.0005 0.127929L14.3936 0.127929C4.86963 0.127929 0 4.93018 0 14.4019L0 74.2632C0 83.7349 4.86963 88.5371 14.3936 88.5371ZM14.5064 82.4922C9.00294 82.4922 6.04494 79.6016 6.04494 73.9634L6.04494 14.7017C6.04494 9.06349 9.00294 6.17287 14.5064 6.17287L73.9028 6.17287C79.2969 6.17287 82.3643 9.06349 82.3643 14.7017L82.3643 73.9634C82.3643 79.6016 79.2969 82.4922 73.9028 82.4922Z" fill="#000000" fill-opacity="0.85"/>
  <path d="M30.0732 64.9692C37.3877 64.9692 41.3447 58.5308 41.3447 51.1338C41.3447 44.4561 38.1372 38.1641 31.8384 38.1641C29.0483 38.1641 26.2603 39.4522 24.915 42.5147L24.7163 42.5147L25.6675 29.2686L37.5205 29.2686C38.8931 29.2686 39.7368 28.3086 39.7368 26.9024C39.7368 25.5938 38.8442 24.585 37.5205 24.585L24.229 24.585C22.0347 24.585 21.1084 26.0029 20.9282 28.0996L20.0107 42.3867C19.9619 43.1494 19.9316 44.0064 19.9316 44.5503C19.9316 46.1216 20.7383 47.3999 22.5454 47.3999C23.7275 47.3999 24.3726 46.8662 25.2012 45.6807C26.3848 43.7817 27.8931 42.4131 30.1338 42.4131C34.1709 42.4131 35.856 47.2129 35.856 51.25C35.856 55.7114 34.1221 60.3008 30.0059 60.3008C26.9419 60.3008 25.001 57.8936 24.1826 54.8447C23.7329 53.4336 22.8555 52.8374 21.7642 52.8374C20.3057 52.8374 19.3945 53.7788 19.3945 55.2373C19.3945 56.1333 19.6421 57.1016 19.9419 57.8965C21.4541 62.0938 25.5122 64.9692 30.0732 64.9692ZM58.9605 64.9692C68.3745 64.9692 70.9375 53.6079 70.9375 44.293C70.9375 34.978 68.3745 23.6318 58.9605 23.6318C49.4976 23.6318 46.9497 34.978 46.9497 44.293C46.9497 53.6079 49.4976 64.9692 58.9605 64.9692ZM58.9605 60.2671C54.0332 60.2671 52.6406 52.229 52.6406 44.293C52.6406 36.3906 54.0332 28.3526 58.9605 28.3526C63.854 28.3526 65.2314 36.3906 65.2314 44.293C65.2314 52.229 63.854 60.2671 58.9605 60.2671Z" fill="#000000" fill-opacity="0.85"/>
 </g>
</svg>
