<?xml version="1.0" encoding="UTF-8"?>
<!--Generator: Apple Native CoreSVG 232.5-->
<!DOCTYPE svg
PUBLIC "-//W3C//DTD SVG 1.1//EN"
       "http://www.w3.org/Graphics/SVG/1.1/DTD/svg11.dtd">
<svg version="1.1" xmlns="http://www.w3.org/2000/svg" xmlns:xlink="http://www.w3.org/1999/xlink" width="88.4092" height="88.5371">
 <g>
  <rect height="88.5371" opacity="0" width="88.4092" x="0" y="0"/>
  <path d="M88.4092 14.4019L88.4092 74.2632C88.4092 83.6558 83.5733 88.5371 74.0005 88.5371L14.3936 88.5371C4.86963 88.5371 0 83.7349 0 74.2632L0 14.4019C0 4.93018 4.86963 0.127929 14.3936 0.127929L74.0005 0.127929C83.5733 0.127929 88.4092 5.00928 88.4092 14.4019ZM44.0327 22.8687C40.9243 26.9116 36.7617 32.0859 34.7456 34.7656C29.7061 41.4385 27.5542 46.6836 27.5542 51.9253C27.5542 61.1543 34.3921 67.583 44.3755 67.583C54.2124 67.583 61.0537 61.2149 61.0537 52.2031C61.0537 43.9932 54.8491 37.9736 46.1358 37.9736C42.627 37.9736 39.1299 39.2466 37.209 41.0464L36.7661 40.9302C37.3604 39.915 37.9985 39.0513 39.561 37.0156C41.5855 34.3159 45.8897 29.0791 48.5918 25.648C49.1577 24.8648 49.5366 24.2197 49.5366 23.4248C49.5366 22.2593 48.7383 21.0298 46.8721 21.0298C45.5332 21.0298 44.7534 21.9526 44.0327 22.8687ZM55.5327 52.4878C55.5327 58.2271 50.7715 62.5674 44.3755 62.5674C37.9644 62.5674 33.1089 58.1816 33.1089 52.3296C33.1089 46.6358 37.8399 42.4907 44.2661 42.4907C50.7715 42.4907 55.5327 46.666 55.5327 52.4878Z" fill="#000000" fill-opacity="0.85"/>
 </g>
</svg>
