<?xml version="1.0" encoding="UTF-8"?>
<!--Generator: Apple Native CoreSVG 232.5-->
<!DOCTYPE svg
PUBLIC "-//W3C//DTD SVG 1.1//EN"
       "http://www.w3.org/Graphics/SVG/1.1/DTD/svg11.dtd">
<svg version="1.1" xmlns="http://www.w3.org/2000/svg" xmlns:xlink="http://www.w3.org/1999/xlink" width="97.9595" height="97.9932">
 <g>
  <rect height="97.9932" opacity="0" width="97.9595" x="0" y="0"/>
  <path d="M48.9722 97.9443C75.8247 97.9443 97.9595 75.7759 97.9595 48.9722C97.9595 22.1348 75.791 0 48.9385 0C22.1348 0 0 22.1348 0 48.9722C0 75.7759 22.1685 97.9443 48.9722 97.9443ZM48.9722 91.6113C25.3501 91.6113 6.36671 72.5942 6.36671 48.9722C6.36671 25.3501 25.3164 6.31789 48.9385 6.31789C72.5605 6.31789 91.6265 25.3501 91.6265 48.9722C91.6265 72.5942 72.5942 91.6113 48.9722 91.6113Z" fill="#000000" fill-opacity="0.85"/>
  <path d="M49.085 71.8359C58.7012 71.8359 65.4229 65.5874 65.4229 56.7778C65.4229 48.7212 59.3379 42.8364 50.7778 42.8364C47.3364 42.8364 43.8731 44.0757 42.0347 45.8418L41.6104 45.7256C42.1709 44.729 42.8242 43.8804 44.353 41.9121C46.2949 39.2798 50.5806 34.0952 53.1816 30.7315C53.7813 29.9819 54.1265 29.3369 54.1265 28.5757C54.1265 27.4287 53.3467 26.248 51.5479 26.248C50.2427 26.248 49.5117 27.1372 48.7759 28.0532C45.7349 31.9951 41.6397 37.102 39.6909 39.7295C34.7373 46.2339 32.6191 51.3779 32.6191 56.5C32.6191 65.5269 39.3223 71.8359 49.085 71.8359ZM49.085 66.9399C42.7749 66.9399 38.0205 62.6553 38.0205 56.9043C38.0205 51.3115 42.6504 47.2188 48.9907 47.2188C55.395 47.2188 60.0552 51.3267 60.0552 57.0474C60.0552 62.6855 55.395 66.9399 49.085 66.9399Z" fill="#000000" fill-opacity="0.85"/>
 </g>
</svg>
