<?xml version="1.0" encoding="UTF-8"?>
<!--Generator: Apple Native CoreSVG 232.5-->
<!DOCTYPE svg
PUBLIC "-//W3C//DTD SVG 1.1//EN"
       "http://www.w3.org/Graphics/SVG/1.1/DTD/svg11.dtd">
<svg version="1.1" xmlns="http://www.w3.org/2000/svg" xmlns:xlink="http://www.w3.org/1999/xlink" width="97.9595" height="97.9932">
 <g>
  <rect height="97.9932" opacity="0" width="97.9595" x="0" y="0"/>
  <path d="M48.9722 97.9443C75.8247 97.9443 97.9595 75.7759 97.9595 48.9722C97.9595 22.1348 75.791 0 48.9385 0C22.1348 0 0 22.1348 0 48.9722C0 75.7759 22.1685 97.9443 48.9722 97.9443ZM48.9722 91.6113C25.3501 91.6113 6.36671 72.5942 6.36671 48.9722C6.36671 25.3501 25.3164 6.31789 48.9385 6.31789C72.5605 6.31789 91.6265 25.3501 91.6265 48.9722C91.6265 72.5942 72.5942 91.6113 48.9722 91.6113Z" fill="#000000" fill-opacity="0.85"/>
  <path d="M49.2837 71.8359C58.7349 71.8359 65.3203 66.1079 65.3203 56.5977C65.3203 47.8047 58.6826 42.417 50.9072 42.417C44.3491 42.417 40.3438 45.7222 38.5088 49.6919C38.4263 49.6919 38.2764 49.6919 38.1939 49.6919C38.1939 49.4966 38.1939 49.335 38.1939 49.1733C38.1939 37.9981 42.9014 31.0532 50.1846 31.0532C53.8867 31.0532 56.5361 32.8091 57.9639 35.1084C59.1328 36.4136 59.8823 37.062 61.1943 37.062C62.5366 37.062 63.5186 36.1475 63.5186 34.7564C63.5186 34.1416 63.4024 33.6245 63.1851 33.0923C61.9439 29.7061 56.8789 26.1084 50.3682 26.1084C39.3442 26.1084 32.6055 34.3921 32.6055 50.1675C32.6055 56.5274 33.7051 61.395 35.5591 64.5303C38.457 69.5396 43.5825 71.8359 49.2837 71.8359ZM49.0781 67.1572C43.1587 67.1572 38.8892 62.8506 38.8892 56.8604C38.8892 51.0654 43.1401 46.9238 49.1572 46.9238C55.208 46.9238 59.3496 50.9712 59.3496 56.9092C59.3496 63.1099 55.3242 67.1572 49.0781 67.1572Z" fill="#000000" fill-opacity="0.85"/>
 </g>
</svg>
