<?xml version="1.0" encoding="UTF-8"?>
<!--Generator: Apple Native CoreSVG 232.5-->
<!DOCTYPE svg
PUBLIC "-//W3C//DTD SVG 1.1//EN"
       "http://www.w3.org/Graphics/SVG/1.1/DTD/svg11.dtd">
<svg version="1.1" xmlns="http://www.w3.org/2000/svg" xmlns:xlink="http://www.w3.org/1999/xlink" width="88.4092" height="88.5371">
 <g>
  <rect height="88.5371" opacity="0" width="88.4092" x="0" y="0"/>
  <path d="M14.3936 88.5371L74.0005 88.5371C83.5733 88.5371 88.4092 83.6558 88.4092 74.2632L88.4092 14.4019C88.4092 5.00928 83.5733 0.127929 74.0005 0.127929L14.3936 0.127929C4.86963 0.127929 0 4.93018 0 14.4019L0 74.2632C0 83.7349 4.86963 88.5371 14.3936 88.5371ZM14.5064 82.4922C9.00294 82.4922 6.04494 79.6016 6.04494 73.9634L6.04494 14.7017C6.04494 9.06349 9.00294 6.17287 14.5064 6.17287L73.9028 6.17287C79.2969 6.17287 82.3643 9.06349 82.3643 14.7017L82.3643 73.9634C82.3643 79.6016 79.2969 82.4922 73.9028 82.4922Z" fill="#000000" fill-opacity="0.85"/>
  <path d="M44.5742 67.1079C54.0103 67.1079 60.6109 61.3799 60.6109 51.8696C60.6109 43.0767 53.9732 37.689 46.1826 37.689C39.6245 37.689 35.668 40.9941 33.7993 44.9639C33.7017 44.9639 33.5518 44.9639 33.4693 44.9639C33.4693 44.7686 33.4693 44.6069 33.4693 44.4453C33.4693 33.27 38.2105 26.3252 45.4751 26.3252C49.1773 26.3252 51.8267 28.0811 53.2881 30.3804C54.4082 31.6856 55.1577 32.334 56.4697 32.334C57.8272 32.334 58.8428 31.4194 58.8428 30.0283C58.8428 29.4136 58.6929 28.8965 58.4756 28.3643C57.2192 24.978 52.188 21.3804 45.6587 21.3804C34.6348 21.3804 27.8809 29.6641 27.8809 45.4395C27.8809 51.7993 28.9805 56.667 30.8496 59.8023C33.7324 64.8115 38.8579 67.1079 44.5742 67.1079ZM44.4023 62.4292C38.4341 62.4292 34.1646 58.1226 34.1646 52.1323C34.1646 46.3374 38.4307 42.1958 44.4478 42.1958C50.4834 42.1958 54.625 46.2432 54.625 52.1812C54.625 58.3818 50.5996 62.4292 44.4023 62.4292Z" fill="#000000" fill-opacity="0.85"/>
 </g>
</svg>
