<?xml version="1.0" encoding="UTF-8"?>
<!--Generator: Apple Native CoreSVG 232.5-->
<!DOCTYPE svg
PUBLIC "-//W3C//DTD SVG 1.1//EN"
       "http://www.w3.org/Graphics/SVG/1.1/DTD/svg11.dtd">
<svg version="1.1" xmlns="http://www.w3.org/2000/svg" xmlns:xlink="http://www.w3.org/1999/xlink" width="88.4092" height="88.5371">
 <g>
  <rect height="88.5371" opacity="0" width="88.4092" x="0" y="0"/>
  <path d="M88.4092 14.4019L88.4092 74.2632C88.4092 83.6558 83.5733 88.5371 74.0005 88.5371L14.3936 88.5371C4.86963 88.5371 0 83.7349 0 74.2632L0 14.4019C0 4.93018 4.86963 0.127929 14.3936 0.127929L74.0005 0.127929C83.5733 0.127929 88.4092 5.00928 88.4092 14.4019ZM27.5254 45.4731C27.5254 51.9526 28.625 56.9214 30.5615 60.124C33.5117 65.2529 38.7568 67.583 44.5742 67.583C54.2461 67.583 60.9663 61.7354 60.9663 52.0381C60.9663 43.043 54.1939 37.5356 46.25 37.5356C39.5571 37.5356 35.4995 40.8931 33.5972 44.9639C33.5147 44.9639 33.3648 44.9639 33.2822 44.9639C33.2822 44.7349 33.2822 44.5732 33.2822 44.4116C33.2822 33.0342 38.1245 26.0034 45.5088 26.0034C49.2783 26.0034 51.9463 27.7593 53.4414 30.0923C54.6104 31.4312 55.3936 32.1133 56.7241 32.1133C58.1152 32.1133 59.1646 31.1499 59.1646 29.7402C59.1646 29.0918 59.0147 28.5747 58.7974 28.0088C57.5073 24.5552 52.3565 20.8901 45.6924 20.8901C34.4141 20.8901 27.5254 29.3423 27.5254 45.4731ZM54.8271 52.3496C54.8271 58.6362 50.7007 62.7847 44.4023 62.7847C38.3482 62.7847 33.9776 58.377 33.9776 52.3008C33.9776 46.4048 38.3296 42.1621 44.4478 42.1621C50.5845 42.1621 54.8271 46.3106 54.8271 52.3496Z" fill="#000000" fill-opacity="0.85"/>
 </g>
</svg>
