<?xml version="1.0" encoding="UTF-8"?>
<!--Generator: Apple Native CoreSVG 232.5-->
<!DOCTYPE svg
PUBLIC "-//W3C//DTD SVG 1.1//EN"
       "http://www.w3.org/Graphics/SVG/1.1/DTD/svg11.dtd">
<svg version="1.1" xmlns="http://www.w3.org/2000/svg" xmlns:xlink="http://www.w3.org/1999/xlink" width="88.4092" height="73.4395">
 <g>
  <rect height="73.4395" opacity="0" width="88.4092" x="0" y="0"/>
  <path d="M0 70.4077C0 72.0566 1.34912 73.4395 2.99805 73.4395C4.68068 73.4395 6.04494 72.0566 6.04494 70.4077L6.04494 3.12598C6.04494 1.47705 4.68068 0.127929 2.99805 0.127929C1.34912 0.127929 0 1.47705 0 3.12598ZM82.3643 70.4077C82.3643 72.0566 83.7471 73.4395 85.396 73.4395C87.0601 73.4395 88.4092 72.0566 88.4092 70.4077L88.4092 3.12598C88.4092 1.47705 87.0601 0.127929 85.396 0.127929C83.7471 0.127929 82.3643 1.47705 82.3643 3.12598Z" fill="#000000" fill-opacity="0.85"/>
  <path d="M38.6665 59.0171C40.1284 59.0171 40.8594 58.3872 41.4219 57.0415L56.1348 23.4951C56.6484 22.333 57.0459 21.1895 57.0459 19.9111C57.0459 17.7554 55.5317 16.6304 53.5967 16.6304L33.7935 16.6304C32.3164 16.6304 31.3228 17.6089 31.3228 19.1011C31.3228 20.5596 32.3164 21.5718 33.7935 21.5718L50.9321 21.5718L50.9321 21.8565L36.3574 54.1851C36.0576 54.9497 35.8101 55.6284 35.8101 56.4756C35.8101 58.0015 37.0059 59.0171 38.6665 59.0171Z" fill="#000000" fill-opacity="0.85"/>
 </g>
</svg>
