<?xml version="1.0" encoding="UTF-8"?>
<!--Generator: Apple Native CoreSVG 232.5-->
<!DOCTYPE svg
PUBLIC "-//W3C//DTD SVG 1.1//EN"
       "http://www.w3.org/Graphics/SVG/1.1/DTD/svg11.dtd">
<svg version="1.1" xmlns="http://www.w3.org/2000/svg" xmlns:xlink="http://www.w3.org/1999/xlink" width="88.4092" height="88.5371">
 <g>
  <rect height="88.5371" opacity="0" width="88.4092" x="0" y="0"/>
  <path d="M88.4092 14.4019L88.4092 74.2632C88.4092 83.6558 83.5733 88.5371 74.0005 88.5371L14.3936 88.5371C4.86963 88.5371 0 83.7349 0 74.2632L0 14.4019C0 4.93018 4.86963 0.127929 14.3936 0.127929L74.0005 0.127929C83.5733 0.127929 88.4092 5.00928 88.4092 14.4019ZM31.7285 21.8467C30.2852 21.8467 29.3066 22.874 29.3066 24.3359C29.3066 25.7642 30.3037 26.8252 31.7285 26.8252L53.8232 26.8252L53.8232 27.1704L35.0029 62.5557C34.6206 63.2681 34.437 63.8003 34.437 64.6138C34.437 66.2778 35.8198 67.4585 37.5479 67.4585C38.9121 67.4585 39.8452 66.8101 40.6587 65.2808L59.6358 28.8682C60.3853 27.4063 60.5991 26.6079 60.5991 25.7153C60.5991 23.4922 58.8257 21.8467 56.1411 21.8467Z" fill="#000000" fill-opacity="0.85"/>
 </g>
</svg>
