<?xml version="1.0" encoding="UTF-8"?>
<!--Generator: Apple Native CoreSVG 232.5-->
<!DOCTYPE svg
PUBLIC "-//W3C//DTD SVG 1.1//EN"
       "http://www.w3.org/Graphics/SVG/1.1/DTD/svg11.dtd">
<svg version="1.1" xmlns="http://www.w3.org/2000/svg" xmlns:xlink="http://www.w3.org/1999/xlink" width="97.9595" height="97.9932">
 <g>
  <rect height="97.9932" opacity="0" width="97.9595" x="0" y="0"/>
  <path d="M48.9722 97.9443C75.8247 97.9443 97.9595 75.7759 97.9595 48.9722C97.9595 22.1348 75.791 0 48.9385 0C22.1348 0 0 22.1348 0 48.9722C0 75.7759 22.1685 97.9443 48.9722 97.9443ZM48.9722 91.6113C25.3501 91.6113 6.36671 72.5942 6.36671 48.9722C6.36671 25.3501 25.3164 6.31789 48.9385 6.31789C72.5605 6.31789 91.6265 25.3501 91.6265 48.9722C91.6265 72.5942 72.5942 91.6113 48.9722 91.6113Z" fill="#000000" fill-opacity="0.85"/>
  <path d="M48.8862 71.8359C58.7114 71.8359 65.5191 66.48 65.5191 58.8457C65.5191 53.5317 61.5454 49.0093 55.9165 47.8828L55.9165 47.605C60.5991 46.2495 63.6904 42.3281 63.6904 37.7129C63.6904 30.8818 57.5664 26.1084 48.9385 26.1084C40.3257 26.1084 34.1865 30.8818 34.1865 37.7129C34.1865 42.3281 37.2256 46.1519 41.9756 47.605L41.9756 47.8828C36.313 49.0093 32.3916 53.5503 32.3916 58.8643C32.3916 66.5776 39.0645 71.8359 48.8862 71.8359ZM48.9722 67.4639C42.6958 67.4639 38.1485 63.7886 38.1485 58.6401C38.1485 53.6685 42.7295 50.0049 48.9722 50.0049C55.2974 50.0049 59.811 53.6348 59.811 58.6401C59.811 63.7886 55.23 67.4639 48.9722 67.4639ZM48.9385 45.8315C43.6655 45.8315 39.8506 42.6074 39.8506 38.1206C39.8506 33.6709 43.5864 30.4805 48.9385 30.4805C54.3057 30.4805 58.0415 33.6709 58.0415 38.1206C58.0415 42.6074 54.2266 45.8315 48.9385 45.8315Z" fill="#000000" fill-opacity="0.85"/>
 </g>
</svg>
