<?xml version="1.0" encoding="UTF-8"?>
<!--Generator: Apple Native CoreSVG 232.5-->
<!DOCTYPE svg
PUBLIC "-//W3C//DTD SVG 1.1//EN"
       "http://www.w3.org/Graphics/SVG/1.1/DTD/svg11.dtd">
<svg version="1.1" xmlns="http://www.w3.org/2000/svg" xmlns:xlink="http://www.w3.org/1999/xlink" width="88.4092" height="88.5371">
 <g>
  <rect height="88.5371" opacity="0" width="88.4092" x="0" y="0"/>
  <path d="M88.4092 14.4019L88.4092 74.2632C88.4092 83.6558 83.5733 88.5371 74.0005 88.5371L14.3936 88.5371C4.86963 88.5371 0 83.7349 0 74.2632L0 14.4019C0 4.93018 4.86963 0.127929 14.3936 0.127929L74.0005 0.127929C83.5733 0.127929 88.4092 5.00928 88.4092 14.4019ZM29.1553 32.7979C29.1553 37.4805 32.2466 41.3716 37.1313 42.8433L37.1313 43.1211C31.3003 44.2813 27.293 48.9233 27.293 54.3721C27.293 62.2388 34.1191 67.583 44.1616 67.583C54.2227 67.583 61.1987 62.1411 61.1987 54.3384C61.1987 48.8897 57.124 44.2813 51.3604 43.1211L51.3604 42.8433C56.1777 41.4541 59.3027 37.4805 59.3027 32.7979C59.3027 25.7647 53.044 20.8901 44.229 20.8901C35.4141 20.8901 29.1553 25.7647 29.1553 32.7979ZM55.2886 54.0991C55.2886 59.3486 50.6401 63.0913 44.2627 63.0913C37.8853 63.0913 33.2368 59.3486 33.2368 54.0991C33.2368 49.0415 37.919 45.3106 44.2627 45.3106C50.7412 45.3106 55.2886 49.0078 55.2886 54.0991ZM53.519 33.1719C53.519 37.7446 49.6519 41.0024 44.229 41.0024C38.8399 41.0024 34.9727 37.7446 34.9727 33.1719C34.9727 28.6548 38.7759 25.4307 44.229 25.4307C49.6821 25.4307 53.519 28.6548 53.519 33.1719Z" fill="#000000" fill-opacity="0.85"/>
 </g>
</svg>
