<?xml version="1.0" encoding="UTF-8"?>
<!--Generator: Apple Native CoreSVG 232.5-->
<!DOCTYPE svg
PUBLIC "-//W3C//DTD SVG 1.1//EN"
       "http://www.w3.org/Graphics/SVG/1.1/DTD/svg11.dtd">
<svg version="1.1" xmlns="http://www.w3.org/2000/svg" xmlns:xlink="http://www.w3.org/1999/xlink" width="97.9595" height="97.9932">
 <g>
  <rect height="97.9932" opacity="0" width="97.9595" x="0" y="0"/>
  <path d="M97.9595 48.9722C97.9595 75.7759 75.8247 97.9443 48.9722 97.9443C22.1685 97.9443 0 75.7759 0 48.9722C0 22.1348 22.1348 0 48.9385 0C75.791 0 97.9595 22.1348 97.9595 48.9722ZM32.5513 40.9678C32.5513 49.2334 38.8267 55.2192 47.4761 55.2192C50.9175 55.2192 54.4668 54.0474 56.3574 52.1836L56.9165 52.1987C56.3745 53.1279 55.6538 54.1567 54.4854 55.5811C52.0806 58.6914 48.8208 62.6953 44.8887 67.5684C44.2554 68.3179 43.9102 69.064 43.9102 69.8589C43.9102 71.0244 44.9106 72.1865 46.5225 72.1865C48.082 72.1865 48.7422 71.1963 49.9009 69.7227C52.5527 66.4058 56.8726 60.8267 59.2285 57.7163C63.8521 51.4546 66.0645 46.5244 66.0645 41.2827C66.0645 32.0166 59.1895 25.6182 49.2852 25.6182C39.396 25.6182 32.5513 31.9375 32.5513 40.9678ZM60.5063 40.811C60.5063 46.606 55.7568 50.7358 49.3794 50.7358C42.874 50.7358 38.106 46.5269 38.106 40.7505C38.106 34.9741 42.874 30.686 49.27 30.686C55.6475 30.686 60.5063 35.0381 60.5063 40.811Z" fill="#000000" fill-opacity="0.85"/>
 </g>
</svg>
