<?xml version="1.0" encoding="UTF-8"?>
<!--Generator: Apple Native CoreSVG 232.5-->
<!DOCTYPE svg
PUBLIC "-//W3C//DTD SVG 1.1//EN"
       "http://www.w3.org/Graphics/SVG/1.1/DTD/svg11.dtd">
<svg version="1.1" xmlns="http://www.w3.org/2000/svg" xmlns:xlink="http://www.w3.org/1999/xlink" width="88.4092" height="88.5371">
 <g>
  <rect height="88.5371" opacity="0" width="88.4092" x="0" y="0"/>
  <path d="M88.4092 14.4019L88.4092 74.2632C88.4092 83.6558 83.5733 88.5371 74.0005 88.5371L14.3936 88.5371C4.86963 88.5371 0 83.7349 0 74.2632L0 14.4019C0 4.93018 4.86963 0.127929 14.3936 0.127929L74.0005 0.127929C83.5733 0.127929 88.4092 5.00928 88.4092 14.4019ZM27.793 36.2398C27.793 44.5054 34.0684 50.4912 42.7178 50.4912C46.1592 50.4912 49.7236 49.3193 51.6143 47.4556L52.1582 47.4707C51.6313 48.3999 50.8955 49.4287 49.7759 50.853C47.3223 53.9634 44.0776 57.9673 40.1792 62.8403C39.5122 63.5898 39.167 64.3359 39.167 65.1309C39.167 66.2964 40.1675 67.4585 41.7642 67.4585C43.3389 67.4585 43.999 66.4683 45.1763 64.9946C47.7944 61.6777 52.148 56.0986 54.4854 52.9883C59.1089 46.7266 61.3213 41.7964 61.3213 36.5547C61.3213 27.2886 54.4463 20.8901 44.542 20.8901C34.6528 20.8901 27.793 27.2095 27.793 36.2398ZM55.748 36.083C55.748 41.8779 51.0137 46.0078 44.6362 46.0078C38.1309 46.0078 33.3477 41.7988 33.3477 36.0225C33.3477 30.2461 38.1309 25.958 44.5117 25.958C50.8892 25.958 55.748 30.3101 55.748 36.083Z" fill="#000000" fill-opacity="0.85"/>
 </g>
</svg>
