<?xml version="1.0" encoding="UTF-8"?>
<!--Generator: Apple Native CoreSVG 232.5-->
<!DOCTYPE svg
PUBLIC "-//W3C//DTD SVG 1.1//EN"
       "http://www.w3.org/Graphics/SVG/1.1/DTD/svg11.dtd">
<svg version="1.1" xmlns="http://www.w3.org/2000/svg" xmlns:xlink="http://www.w3.org/1999/xlink" width="97.9595" height="97.9932">
 <g>
  <rect height="97.9932" opacity="0" width="97.9595" x="0" y="0"/>
  <path d="M48.9722 97.9443C75.8247 97.9443 97.9595 75.7759 97.9595 48.9722C97.9595 22.1348 75.791 0 48.9385 0C22.1348 0 0 22.1348 0 48.9722C0 75.7759 22.1685 97.9443 48.9722 97.9443ZM48.9722 91.6113C25.3501 91.6113 6.36671 72.5942 6.36671 48.9722C6.36671 25.3501 25.3164 6.31789 48.9385 6.31789C72.5605 6.31789 91.6265 25.3501 91.6265 48.9722C91.6265 72.5942 72.5942 91.6113 48.9722 91.6113Z" fill="#000000" fill-opacity="0.85"/>
  <path d="M32.873 41.1211C32.873 49.2334 39.0137 55.0845 47.5098 55.0845C50.8838 55.0845 54.3809 53.9126 56.2378 52.0825L56.748 52.1128C56.2212 53.042 55.519 54.0371 54.3843 55.4463C52.0469 58.4707 48.8545 62.4072 44.9561 67.2129C44.3564 67.9287 44.0112 68.6748 44.0112 69.436C44.0112 70.5679 44.978 71.6963 46.5225 71.6963C48.0484 71.6963 48.69 70.7398 49.7998 69.2998C52.418 66.0503 56.6704 60.5723 58.9741 57.5142C63.4966 51.3872 65.6904 46.5581 65.6904 41.4512C65.6904 32.3721 58.9351 26.1084 49.2515 26.1084C39.5981 26.1084 32.873 32.293 32.873 41.1211ZM38.2593 40.9038C38.2593 35.2285 42.9414 31.0078 49.2363 31.0078C55.5127 31.0078 60.2856 35.3076 60.2856 40.9644C60.2856 46.6733 55.6372 50.7358 49.3457 50.7358C42.9414 50.7358 38.2593 46.5942 38.2593 40.9038Z" fill="#000000" fill-opacity="0.85"/>
 </g>
</svg>
