<?xml version="1.0" encoding="UTF-8"?>
<!--Generator: Apple Native CoreSVG 232.5-->
<!DOCTYPE svg
PUBLIC "-//W3C//DTD SVG 1.1//EN"
       "http://www.w3.org/Graphics/SVG/1.1/DTD/svg11.dtd">
<svg version="1.1" xmlns="http://www.w3.org/2000/svg" xmlns:xlink="http://www.w3.org/1999/xlink" width="88.4092" height="88.5371">
 <g>
  <rect height="88.5371" opacity="0" width="88.4092" x="0" y="0"/>
  <path d="M14.3936 88.5371L74.0005 88.5371C83.5733 88.5371 88.4092 83.6558 88.4092 74.2632L88.4092 14.4019C88.4092 5.00928 83.5733 0.127929 74.0005 0.127929L14.3936 0.127929C4.86963 0.127929 0 4.93018 0 14.4019L0 74.2632C0 83.7349 4.86963 88.5371 14.3936 88.5371ZM14.5064 82.4922C9.00294 82.4922 6.04494 79.6016 6.04494 73.9634L6.04494 14.7017C6.04494 9.06349 9.00294 6.17287 14.5064 6.17287L73.9028 6.17287C79.2969 6.17287 82.3643 9.06349 82.3643 14.7017L82.3643 73.9634C82.3643 79.6016 79.2969 82.4922 73.9028 82.4922Z" fill="#000000" fill-opacity="0.85"/>
  <path d="M28.1484 36.3931C28.1484 44.5054 34.3042 50.3565 42.7852 50.3565C46.1592 50.3565 49.6562 49.1846 51.5132 47.3545L52.0386 47.3848C51.4966 48.314 50.8096 49.3091 49.7085 50.7183C47.3223 53.7427 44.145 57.6792 40.2651 62.4849C39.6318 63.2007 39.2866 63.9468 39.2866 64.708C39.2866 65.8399 40.2534 66.9683 41.7979 66.9683C43.3389 66.9683 43.9653 66.0117 45.1089 64.5718C47.6934 61.3223 51.9946 55.8443 54.2495 52.7861C58.7871 46.6592 60.9658 41.8301 60.9658 36.7232C60.9658 27.644 54.2105 21.3804 44.542 21.3804C34.8735 21.3804 28.1484 27.5649 28.1484 36.3931ZM33.5498 36.1758C33.5498 30.5005 38.2168 26.2798 44.5117 26.2798C50.8032 26.2798 55.561 30.5796 55.561 36.2363C55.561 41.9453 50.9126 46.0078 44.6362 46.0078C38.2168 46.0078 33.5498 41.8662 33.5498 36.1758Z" fill="#000000" fill-opacity="0.85"/>
 </g>
</svg>
