<?xml version="1.0" encoding="UTF-8"?>
<!--Generator: Apple Native CoreSVG 232.5-->
<!DOCTYPE svg
PUBLIC "-//W3C//DTD SVG 1.1//EN"
       "http://www.w3.org/Graphics/SVG/1.1/DTD/svg11.dtd">
<svg version="1.1" xmlns="http://www.w3.org/2000/svg" xmlns:xlink="http://www.w3.org/1999/xlink" width="97.9595" height="97.9932">
 <g>
  <rect height="97.9932" opacity="0" width="97.9595" x="0" y="0"/>
  <path d="M48.9722 97.9443C75.8247 97.9443 97.9595 75.7759 97.9595 48.9722C97.9595 22.1348 75.791 0 48.9385 0C22.1348 0 0 22.1348 0 48.9722C0 75.7759 22.1685 97.9443 48.9722 97.9443ZM48.9722 91.6113C25.3501 91.6113 6.36671 72.5942 6.36671 48.9722C6.36671 25.3501 25.3164 6.31789 48.9385 6.31789C72.5605 6.31789 91.6265 25.3501 91.6265 48.9722C91.6265 72.5942 72.5942 91.6113 48.9722 91.6113Z" fill="#000000" fill-opacity="0.85"/>
  <path d="M47.7783 71.8359C58.9893 71.8359 65.2495 63.54 65.2495 47.001C65.2495 33.2715 58.9321 26.1084 48.6421 26.1084C39.1284 26.1084 32.6914 32.1514 32.6914 41.2456C32.6914 49.9712 39.2954 55.5137 47.0186 55.5137C53.5127 55.5137 57.6426 52.3667 59.4321 48.148L59.7285 48.148C59.7808 60.1011 55.1035 66.8911 47.7749 66.8911C44.0576 66.8911 41.2481 65.1724 39.3672 62.2261C38.6582 61.1787 37.9424 60.5303 36.6978 60.5303C35.2173 60.5303 34.1714 61.5122 34.1714 63.023C34.1714 63.5147 34.2539 63.9307 34.4038 64.3955C35.4395 67.6133 40.2412 71.8359 47.7783 71.8359ZM48.7686 51.0254C42.7515 51.0254 38.5796 46.7593 38.5796 40.9341C38.5796 34.9067 42.7749 30.7988 48.8325 30.7988C54.624 30.7988 59.0669 35.1358 59.0669 41.062C59.0669 46.7441 54.752 51.0254 48.7686 51.0254Z" fill="#000000" fill-opacity="0.85"/>
 </g>
</svg>
