<?xml version="1.0" encoding="UTF-8"?>
<!--Generator: Apple Native CoreSVG 232.5-->
<!DOCTYPE svg
PUBLIC "-//W3C//DTD SVG 1.1//EN"
       "http://www.w3.org/Graphics/SVG/1.1/DTD/svg11.dtd">
<svg version="1.1" xmlns="http://www.w3.org/2000/svg" xmlns:xlink="http://www.w3.org/1999/xlink" width="97.9595" height="97.9932">
 <g>
  <rect height="97.9932" opacity="0" width="97.9595" x="0" y="0"/>
  <path d="M97.9595 48.9722C97.9595 75.7759 75.8247 97.9443 48.9722 97.9443C22.1685 97.9443 0 75.7759 0 48.9722C0 22.1348 22.1348 0 48.9385 0C75.791 0 97.9595 22.1348 97.9595 48.9722ZM32.3696 41.0772C32.3696 50.0049 39.1084 55.6484 46.9849 55.6484C53.5986 55.6484 57.8296 52.4341 59.668 48.148L59.9492 48.148C60.0166 60.3032 55.2231 67.2129 47.7749 67.2129C43.9902 67.2129 41.1621 65.4941 39.2324 62.4805C38.5049 61.4146 37.7554 60.751 36.4771 60.751C34.9478 60.751 33.8833 61.7817 33.8833 63.3262C33.8833 63.8027 33.9658 64.2525 34.1157 64.7173C35.1851 68.0361 40.0879 72.311 47.7783 72.311C59.2437 72.311 65.6387 63.8618 65.6387 46.9824C65.6387 32.9497 59.2017 25.6182 48.6607 25.6182C38.9414 25.6182 32.3696 31.7959 32.3696 41.0772ZM59.2876 40.8936C59.2876 46.6768 54.8716 51.0254 48.8023 51.0254C42.6841 51.0254 38.4263 46.6919 38.4263 40.7656C38.4263 34.6187 42.7075 30.4434 48.8662 30.4434C54.7437 30.4434 59.2876 34.8662 59.2876 40.8936Z" fill="#000000" fill-opacity="0.85"/>
 </g>
</svg>
