<?xml version="1.0" encoding="UTF-8"?>
<!--Generator: Apple Native CoreSVG 232.5-->
<!DOCTYPE svg
PUBLIC "-//W3C//DTD SVG 1.1//EN"
       "http://www.w3.org/Graphics/SVG/1.1/DTD/svg11.dtd">
<svg version="1.1" xmlns="http://www.w3.org/2000/svg" xmlns:xlink="http://www.w3.org/1999/xlink" width="88.4092" height="88.5371">
 <g>
  <rect height="88.5371" opacity="0" width="88.4092" x="0" y="0"/>
  <path d="M14.3936 88.5371L74.0005 88.5371C83.5733 88.5371 88.4092 83.6558 88.4092 74.2632L88.4092 14.4019C88.4092 5.00928 83.5733 0.127929 74.0005 0.127929L14.3936 0.127929C4.86963 0.127929 0 4.93018 0 14.4019L0 74.2632C0 83.7349 4.86963 88.5371 14.3936 88.5371ZM14.5064 82.4922C9.00294 82.4922 6.04494 79.6016 6.04494 73.9634L6.04494 14.7017C6.04494 9.06349 9.00294 6.17287 14.5064 6.17287L73.9028 6.17287C79.2969 6.17287 82.3643 9.06349 82.3643 14.7017L82.3643 73.9634C82.3643 79.6016 79.2969 82.4922 73.9028 82.4922Z" fill="#000000" fill-opacity="0.85"/>
  <path d="M43.1025 67.1079C54.2798 67.1079 60.5586 58.812 60.5586 42.273C60.5586 28.5435 54.2227 21.3804 43.9175 21.3804C34.4189 21.3804 27.9819 27.4233 27.9819 36.5176C27.9819 45.2432 34.5859 50.7857 42.2939 50.7857C48.7881 50.7857 52.918 47.6387 54.7227 43.4199L55.0376 43.4199C55.105 55.373 50.3789 62.1631 43.0503 62.1631C39.3482 62.1631 36.5723 60.4443 34.6426 57.498C33.9487 56.4507 33.2329 55.8022 31.9883 55.8022C30.4927 55.8022 29.4619 56.7842 29.4619 58.2949C29.4619 58.7866 29.5444 59.2026 29.6943 59.6675C30.7148 62.8853 35.5317 67.1079 43.1025 67.1079ZM44.044 46.2974C38.0269 46.2974 33.8701 42.0313 33.8701 36.2061C33.8701 30.1787 38.0503 26.0708 44.1231 26.0708C49.8994 26.0708 54.3423 30.4077 54.3423 36.334C54.3423 42.0161 50.0273 46.2974 44.044 46.2974Z" fill="#000000" fill-opacity="0.85"/>
 </g>
</svg>
