<?xml version="1.0" encoding="UTF-8"?>
<!--Generator: Apple Native CoreSVG 232.5-->
<!DOCTYPE svg
PUBLIC "-//W3C//DTD SVG 1.1//EN"
       "http://www.w3.org/Graphics/SVG/1.1/DTD/svg11.dtd">
<svg version="1.1" xmlns="http://www.w3.org/2000/svg" xmlns:xlink="http://www.w3.org/1999/xlink" width="97.9595" height="97.9932">
 <g>
  <rect height="97.9932" opacity="0" width="97.9595" x="0" y="0"/>
  <path d="M97.9595 48.9722C97.9595 75.7759 75.8247 97.9443 48.9722 97.9443C22.1685 97.9443 0 75.7759 0 48.9722C0 22.1348 22.1348 0 48.9385 0C75.791 0 97.9595 22.1348 97.9595 48.9722ZM44.6401 28.4644L30.0898 67.2852C29.7563 68.1509 29.6738 68.6865 29.6738 69.2861C29.6738 70.898 30.8057 71.981 32.6162 71.981C34.0444 71.981 35.0147 71.3477 35.6445 69.4697L39.7608 57.9136L58.1533 57.9136L62.2695 69.4697C62.8994 71.2837 63.8359 71.981 65.3433 71.981C67.0596 71.981 68.2402 70.8677 68.2402 69.3013C68.2402 68.6865 68.124 68.1509 67.8242 67.2852L53.2403 28.4644C52.4907 26.418 51.0557 25.3989 48.9385 25.3989C46.8398 25.3989 45.4233 26.418 44.6401 28.4644ZM56.481 53.0361L41.3994 53.0361L48.7246 32.4824L49.1558 32.4824Z" fill="#000000" fill-opacity="0.85"/>
 </g>
</svg>
