<?xml version="1.0" encoding="UTF-8"?>
<!--Generator: Apple Native CoreSVG 232.5-->
<!DOCTYPE svg
PUBLIC "-//W3C//DTD SVG 1.1//EN"
       "http://www.w3.org/Graphics/SVG/1.1/DTD/svg11.dtd">
<svg version="1.1" xmlns="http://www.w3.org/2000/svg" xmlns:xlink="http://www.w3.org/1999/xlink" width="88.4092" height="88.5371">
 <g>
  <rect height="88.5371" opacity="0" width="88.4092" x="0" y="0"/>
  <path d="M88.4092 14.4019L88.4092 74.2632C88.4092 83.6558 83.5733 88.5371 74.0005 88.5371L14.3936 88.5371C4.86963 88.5371 0 83.7349 0 74.2632L0 14.4019C0 4.93018 4.86963 0.127929 14.3936 0.127929L74.0005 0.127929C83.5733 0.127929 88.4092 5.00928 88.4092 14.4019ZM39.8818 23.7363L25.3315 62.5571C25.0317 63.4229 24.9155 63.9585 24.9155 64.5581C24.9155 66.1699 26.0962 67.2529 27.8731 67.2529C29.3013 67.2529 30.2715 66.6196 30.8862 64.7417L35.0024 53.1856L53.4102 53.1856L57.5264 64.7417C58.1411 66.5557 59.1265 67.2529 60.585 67.2529C62.3013 67.2529 63.4971 66.1397 63.4971 64.5732C63.4971 63.9585 63.3809 63.4229 63.0811 62.5571L48.5308 23.7363C47.7476 21.6899 46.2974 20.6709 44.1802 20.6709C42.0815 20.6709 40.665 21.6899 39.8818 23.7363ZM51.7715 48.3081L36.6411 48.3081L44.0151 27.7544L44.3975 27.7544Z" fill="#000000" fill-opacity="0.85"/>
 </g>
</svg>
