<?xml version="1.0" encoding="UTF-8"?>
<!--Generator: Apple Native CoreSVG 232.5-->
<!DOCTYPE svg
PUBLIC "-//W3C//DTD SVG 1.1//EN"
       "http://www.w3.org/Graphics/SVG/1.1/DTD/svg11.dtd">
<svg version="1.1" xmlns="http://www.w3.org/2000/svg" xmlns:xlink="http://www.w3.org/1999/xlink" width="88.4092" height="88.5371">
 <g>
  <rect height="88.5371" opacity="0" width="88.4092" x="0" y="0"/>
  <path d="M14.3936 88.5371L74.0005 88.5371C83.5733 88.5371 88.4092 83.6558 88.4092 74.2632L88.4092 14.4019C88.4092 5.00928 83.5733 0.127929 74.0005 0.127929L14.3936 0.127929C4.86963 0.127929 0 4.93018 0 14.4019L0 74.2632C0 83.7349 4.86963 88.5371 14.3936 88.5371ZM14.5064 82.4922C9.00294 82.4922 6.04494 79.6016 6.04494 73.9634L6.04494 14.7017C6.04494 9.06349 9.00294 6.17287 14.5064 6.17287L73.9028 6.17287C79.2969 6.17287 82.3643 9.06349 82.3643 14.7017L82.3643 73.9634C82.3643 79.6016 79.2969 82.4922 73.9028 82.4922Z" fill="#000000" fill-opacity="0.85"/>
  <path d="M28.1948 67.0757C29.5894 67.0757 30.5259 66.4424 31.1221 64.6318L35.1709 53.2627L53.2568 53.2627L57.2905 64.6318C57.8867 66.3784 58.8384 67.0757 60.2632 67.0757C61.9121 67.0757 63.0742 65.9624 63.0742 64.4634C63.0742 63.8486 62.9243 63.3467 62.6582 62.5146L48.396 24.4233C47.6465 22.4595 46.23 21.459 44.1802 21.459C42.1489 21.459 40.7661 22.4595 40.0166 24.4233L25.7544 62.5146C25.4883 63.3467 25.3384 63.8486 25.3384 64.4146C25.3384 66.0264 26.4702 67.0757 28.1948 67.0757ZM36.7759 48.5537L44.0151 28.3555L44.3975 28.3555L51.6367 48.5537Z" fill="#000000" fill-opacity="0.85"/>
 </g>
</svg>
