<?xml version="1.0" encoding="UTF-8"?>
<!--Generator: Apple Native CoreSVG 232.5-->
<!DOCTYPE svg
PUBLIC "-//W3C//DTD SVG 1.1//EN"
       "http://www.w3.org/Graphics/SVG/1.1/DTD/svg11.dtd">
<svg version="1.1" xmlns="http://www.w3.org/2000/svg" xmlns:xlink="http://www.w3.org/1999/xlink" width="97.9595" height="97.9932">
 <g>
  <rect height="97.9932" opacity="0" width="97.9595" x="0" y="0"/>
  <path d="M48.9722 97.9443C75.8247 97.9443 97.9595 75.7759 97.9595 48.9722C97.9595 22.1348 75.791 0 48.9385 0C22.1348 0 0 22.1348 0 48.9722C0 75.7759 22.1685 97.9443 48.9722 97.9443ZM48.9722 91.6113C25.3501 91.6113 6.36671 72.5942 6.36671 48.9722C6.36671 25.3501 25.3164 6.31789 48.9385 6.31789C72.5605 6.31789 91.6265 25.3501 91.6265 48.9722C91.6265 72.5942 72.5942 91.6113 48.9722 91.6113Z" fill="#000000" fill-opacity="0.85"/>
  <path d="M20.3618 64.981C21.6553 64.981 22.3828 64.2314 22.6118 62.9717L23.9399 56.8594L31.8057 56.8594L33.1338 63.0054C33.4487 64.4487 34.2437 64.981 35.4512 64.981C36.6436 64.981 37.5547 64.0361 37.5547 62.8589C37.5547 62.5811 37.4385 61.7944 37.356 61.4155L31.3506 35.8887C30.9043 33.9351 29.8062 32.9297 27.8223 32.9297C25.9849 32.9297 24.8901 33.8711 24.395 35.8887L18.457 61.4155C18.3408 61.9141 18.2246 62.394 18.2246 62.8589C18.2246 64.2871 19.188 64.981 20.3618 64.981ZM24.6304 53.3076L27.7397 38.4619L27.8897 38.4619L31.0815 53.3076ZM44.1182 64.5381L51.1851 64.5381C56.3945 64.5381 58.9219 60.6284 58.9219 55.8433C58.9219 52.2974 56.9434 48.4922 53.5928 48.1875L53.5928 48.0225C56.6724 47.2144 57.9824 43.8066 57.9824 41.084C57.9824 36.6455 55.5947 33.3726 51.02 33.3726L44.1182 33.3726C42.7793 33.3726 41.8984 34.1455 41.8984 35.7725L41.8984 62.1382C41.8984 63.6304 42.6597 64.5381 44.1182 64.5381ZM46.3867 60.9409L46.3867 50.1157L49.6895 50.1157C52.8696 50.1157 54.3848 52.3296 54.3848 55.5098C54.3848 58.584 53.0615 60.9409 49.8174 60.9409ZM46.3867 46.8369L46.3867 36.9546L49.7232 36.9546C52.5381 36.9546 53.6626 38.936 53.6626 41.7173C53.6626 44.709 52.3394 46.8369 49.3477 46.8369ZM71.001 65.1611C76.5288 65.1611 79.3511 61.3779 79.3511 56.2305C79.3511 51.25 76.8203 49.1099 73.1651 47.2612L71.4981 46.4312C69.0064 45.1231 67.3833 43.7778 67.3833 40.8989C67.3833 38.4849 68.5684 36.5337 70.8579 36.5337C73.2568 36.5337 74.2686 38.4815 74.7568 40.8164C74.9893 41.7881 75.7842 42.3506 76.8604 42.3506C78.0947 42.3506 78.7617 41.4951 78.7617 40.4644C78.7617 39.8901 78.6304 39.2217 78.4165 38.5835C77.46 35.3623 74.9038 32.6821 70.8579 32.6821C66.2984 32.6821 62.9775 35.9585 62.9775 41.2661C62.9775 46.0581 65.5674 48.2354 69.0811 50.126L70.7295 50.9712C73.3828 52.377 74.8965 53.6397 74.8965 56.6314C74.8965 59.3198 73.6187 61.377 71.0313 61.377C68.6323 61.377 67.353 59.4814 66.8311 56.9277C66.5801 55.8364 65.9165 55.2437 64.7427 55.2437C63.52 55.2437 62.8228 56.1665 62.8228 57.3589C62.8228 57.8623 62.9053 58.354 62.9878 58.7666C63.9829 62.5752 66.6401 65.1611 71.001 65.1611Z" fill="#000000" fill-opacity="0.85"/>
 </g>
</svg>
