<?xml version="1.0" encoding="UTF-8"?>
<!--Generator: Apple Native CoreSVG 232.5-->
<!DOCTYPE svg
PUBLIC "-//W3C//DTD SVG 1.1//EN"
       "http://www.w3.org/Graphics/SVG/1.1/DTD/svg11.dtd">
<svg version="1.1" xmlns="http://www.w3.org/2000/svg" xmlns:xlink="http://www.w3.org/1999/xlink" width="110.848" height="109.292">
 <g>
  <rect height="109.292" opacity="0" width="110.848" x="0" y="0"/>
  <path d="M90.0926 9.93525C88.0613 10.7279 86.1684 11.7188 84.3326 12.7387C83.8793 8.45916 80.995 6.0298 76.5214 6.0298L34.3422 6.0298C29.4496 6.0298 26.4579 8.93556 26.4579 13.9815L26.4579 87.3003C26.4579 92.3277 29.4496 95.252 34.3422 95.252L76.5214 95.252C81.414 95.252 84.4057 92.3277 84.4057 87.3003L84.4057 43.6504C86.4155 42.5321 88.3909 41.4049 90.4355 40.4917L90.4355 87.6001C90.4355 95.0637 87.0045 99.6716 80.5634 100.926L80.5634 106.178C80.5634 107.946 79.3491 109.21 77.5317 109.21C75.748 109.21 74.5336 107.946 74.5336 106.178L74.5336 101.297L36.33 101.297L36.33 106.178C36.33 107.946 35.1005 109.21 33.3319 109.21C31.5482 109.21 30.2851 107.946 30.2851 106.178L30.2851 100.919C23.8567 99.6567 20.413 95.0516 20.413 87.6001L20.413 13.648C20.413 4.76856 25.35 0 34.2294 0L76.6528 0C84.1969 0 88.8709 3.44224 90.0926 9.93525ZM52.3573 85.1211C52.3573 86.6182 51.1718 87.7886 49.6562 87.7886L34.9779 87.7886C33.496 87.7886 32.3105 86.6182 32.3105 85.1211C32.3105 83.6055 33.496 82.4351 34.9779 82.4351L49.6562 82.4351C51.1718 82.4351 52.3573 83.6055 52.3573 85.1211ZM78.538 85.1211C78.538 86.6182 77.3676 87.7886 75.8705 87.7886L61.2074 87.7886C59.6767 87.7886 58.5063 86.6182 58.5063 85.1211C58.5063 83.6055 59.6767 82.4351 61.2074 82.4351L75.8705 82.4351C77.3676 82.4351 78.538 83.6055 78.538 85.1211ZM52.3573 73.2622C52.3573 74.7779 51.1718 75.9146 49.6562 75.9146L34.9779 75.9146C33.496 75.9146 32.3105 74.7779 32.3105 73.2622C32.3105 71.7315 33.496 70.5947 34.9779 70.5947L49.6562 70.5947C51.1718 70.5947 52.3573 71.7315 52.3573 73.2622ZM78.538 73.2622C78.538 74.7779 77.3676 75.9146 75.8705 75.9146L61.2074 75.9146C59.6767 75.9146 58.5063 74.7779 58.5063 73.2622C58.5063 71.7315 59.6767 70.5947 61.2074 70.5947L75.8705 70.5947C77.3676 70.5947 78.538 71.7315 78.538 73.2622ZM52.3573 61.3882C52.3573 62.9038 51.1718 64.0557 49.6562 64.0557L34.9779 64.0557C33.496 64.0557 32.3105 62.9038 32.3105 61.3882C32.3105 59.8911 33.496 58.7207 34.9779 58.7207L49.6562 58.7207C51.1718 58.7207 52.3573 59.8911 52.3573 61.3882ZM78.538 61.3882C78.538 62.9038 77.3676 64.0557 75.8705 64.0557L61.2074 64.0557C59.6767 64.0557 58.5063 62.9038 58.5063 61.3882C58.5063 59.8911 59.6767 58.7207 61.2074 58.7207L75.8705 58.7207C77.3676 58.7207 78.538 59.8911 78.538 61.3882ZM90.4355 34.9996C88.304 35.814 86.3234 36.8488 84.4057 37.9173L84.4057 31.0296C86.4162 29.9073 88.3921 28.7756 90.4355 27.8581ZM45.934 19.2827C45.934 22.8794 42.9906 25.8379 39.4277 25.8379C35.8461 25.8379 32.9364 22.8794 32.9364 19.2827C32.9364 15.75 35.8461 12.8252 39.4277 12.8252C42.9906 12.8252 45.934 15.75 45.934 19.2827ZM90.4355 22.4056C88.3041 23.2215 86.3236 24.2582 84.4057 25.3283L84.4057 18.4043C86.4155 17.2859 88.3909 16.1587 90.4355 15.2456Z" fill="#000000" fill-opacity="0.85"/>
  <path d="M69.0849 23.4365C81.3803 23.4365 88.2128 13.1133 99.2568 13.1133C102.06 13.1133 104.288 13.7261 107.059 15.2769C108.514 16.0381 109.774 15.5059 110.404 14.5645C111.12 13.436 111.04 11.7417 109.376 10.7935C106.196 8.94971 102.877 8.08252 99.2568 8.08252C86.5087 8.08252 79.7822 18.4243 69.0849 18.4243C66.2817 18.4243 64.039 17.793 61.2978 16.2759C59.9706 15.4961 58.6132 15.9644 57.9682 17.0068C57.2709 18.147 57.3988 19.8447 58.9804 20.7407C62.082 22.6973 65.4799 23.4365 69.0849 23.4365ZM69.1186 36.0689C81.3803 36.0689 88.2465 25.7119 99.2568 25.7119C102.094 25.7119 104.321 26.3247 107.093 27.8755C108.514 28.6704 109.808 28.1382 110.422 27.1782C111.12 26.0835 111.074 24.3555 109.429 23.3921C106.229 21.5484 102.877 20.6812 99.2568 20.6812C86.5273 20.6812 79.8007 31.0718 69.1186 31.0718C66.2817 31.0718 64.039 30.3916 61.3315 28.8745C60.0043 28.0947 58.6132 28.5967 57.9682 29.6392C57.2709 30.7793 57.3988 32.4585 59.0141 33.3731C62.1156 35.2959 65.5136 36.0689 69.1186 36.0689ZM69.0849 48.6826C81.3803 48.6826 88.2128 38.3594 99.2568 38.3594C102.06 38.3594 104.288 38.9571 107.059 40.4893C108.514 41.2691 109.774 40.7368 110.404 39.8106C111.12 38.6822 111.04 36.9541 109.376 36.0396C106.196 34.1807 102.877 33.2798 99.2568 33.2798C86.5087 33.2798 79.7822 43.6704 69.0849 43.6704C66.2817 43.6704 64.039 43.0239 61.2978 41.4732C59.9706 40.7422 58.6132 41.1953 57.9682 42.253C57.2709 43.378 57.3988 45.0572 58.9804 45.9868C62.082 47.9097 65.4799 48.6826 69.0849 48.6826Z" fill="#000000" fill-opacity="0.85"/>
 </g>
</svg>
