<?xml version="1.0" encoding="UTF-8"?>
<!--Generator: Apple Native CoreSVG 232.5-->
<!DOCTYPE svg
PUBLIC "-//W3C//DTD SVG 1.1//EN"
       "http://www.w3.org/Graphics/SVG/1.1/DTD/svg11.dtd">
<svg version="1.1" xmlns="http://www.w3.org/2000/svg" xmlns:xlink="http://www.w3.org/1999/xlink" width="122.216" height="112.248">
 <g>
  <rect height="112.248" opacity="0" width="122.216" x="0" y="0"/>
  <path d="M22.7739 112.248L51.6094 112.248C57.9844 112.248 61.9365 108.345 61.9365 102.056L61.9365 10.2529C61.9365 3.97901 57.9844 0.0605464 51.6094 0.0605464L22.7739 0.0605464C16.3989 0.0605464 12.4468 3.97901 12.4468 10.2529L12.4468 102.056C12.4468 108.345 16.3989 112.248 22.7739 112.248ZM22.9053 106.218C20.1094 106.218 18.4766 104.567 18.4766 101.722L18.4766 10.5864C18.4766 7.74171 20.1094 6.09035 22.9053 6.09035L51.478 6.09035C54.2739 6.09035 55.8916 7.74171 55.8916 10.5864L55.8916 101.722C55.8916 104.567 54.2739 106.218 51.478 106.218ZM48.0645 36.6621C49.3257 36.6621 50.3091 35.645 50.3091 34.3687L50.3091 15.2935C50.3091 14.0322 49.3257 13.0151 48.0645 13.0151C46.7695 13.0151 45.7861 14.0322 45.7861 15.2935L45.7861 34.3687C45.7861 35.645 46.7695 36.6621 48.0645 36.6621ZM38.2481 36.6621C39.4756 36.6621 40.4927 35.645 40.4927 34.3687L40.4927 15.2935C40.4927 14.0322 39.4756 13.0151 38.2481 13.0151C36.9531 13.0151 35.936 14.0322 35.936 15.2935L35.936 34.3687C35.936 35.645 36.9531 36.6621 38.2481 36.6621ZM48.0645 67.6387C49.3257 67.6387 50.3091 66.6553 50.3091 65.3604L50.3091 46.27C50.3091 45.0088 49.3257 44.0254 48.0645 44.0254C46.7695 44.0254 45.7861 45.0088 45.7861 46.27L45.7861 65.3604C45.7861 66.6553 46.7695 67.6387 48.0645 67.6387ZM38.2481 67.6387C39.4756 67.6387 40.4927 66.6553 40.4927 65.3604L40.4927 46.27C40.4927 45.0088 39.4756 44.0254 38.2481 44.0254C36.9531 44.0254 35.936 45.0088 35.936 46.27L35.936 65.3604C35.936 66.6553 36.9531 67.6387 38.2481 67.6387ZM48.0645 98.6826C49.3257 98.6826 50.3091 97.6656 50.3091 96.438L50.3091 77.3477C50.3091 76.0528 49.3257 75.0694 48.0645 75.0694C46.7695 75.0694 45.7861 76.0528 45.7861 77.3477L45.7861 96.438C45.7861 97.6656 46.7695 98.6826 48.0645 98.6826ZM38.2481 98.6826C39.4756 98.6826 40.4927 97.6656 40.4927 96.438L40.4927 77.3477C40.4927 76.0528 39.4756 75.0694 38.2481 75.0694C36.9531 75.0694 35.936 76.0528 35.936 77.3477L35.936 96.438C35.936 97.6656 36.9531 98.6826 38.2481 98.6826Z" fill="#000000" fill-opacity="0.85"/>
  <path d="M82.1529 35.5088C83.1363 35.5088 83.7661 34.6382 83.7139 33.6548L83.5 29.2085L87.2325 31.6397C88.0323 32.1465 89.1353 32.0117 89.6607 31.1445C90.2046 30.3076 89.7954 29.25 88.8272 28.8106L84.8623 26.7769L88.8946 24.7095C89.7466 24.2515 90.1709 23.2461 89.6792 22.3452C89.2212 21.542 88.066 21.3399 87.1988 21.9141L83.5 24.3604L83.7476 19.8989C83.7998 18.9155 83.17 18.0449 82.1529 18.0449C81.1021 18.0449 80.4571 18.8482 80.5244 19.8653L80.7232 24.3941L76.9571 21.9141C76.0899 21.3735 75.0542 21.4444 74.5625 22.3452C74.0523 23.2461 74.4429 24.2363 75.3286 24.7095L79.2784 26.7769L75.3623 28.7617C74.4429 29.2012 74.0035 30.2402 74.5288 31.1445C75.002 31.9966 76.0899 32.1162 76.9571 31.6245L80.7232 29.1934L80.5581 33.6548C80.5244 34.6719 81.1358 35.5088 82.1529 35.5088ZM109.01 93.5098C110.012 93.5098 110.69 92.6914 110.623 91.6743L110.424 87.1944L114.19 89.6743C115.024 90.1997 116.078 90.0801 116.536 89.2281C117.062 88.2935 116.656 87.2881 115.785 86.8789L111.82 84.7964L115.751 82.729C116.72 82.3233 117.095 81.3145 116.619 80.395C116.146 79.5279 115.024 79.3745 114.19 79.8999L110.424 82.3311L110.605 77.8999C110.623 76.8828 109.993 76.0645 109.01 76.0645C108.011 76.0645 107.381 76.9165 107.434 77.8999L107.647 82.3799L103.881 79.9639C103.115 79.4571 102.027 79.5918 101.487 80.395C100.913 81.2471 101.352 82.3535 102.32 82.7779L106.236 84.7964L102.253 86.8789C101.386 87.3521 100.977 88.2935 101.453 89.2281C101.896 90.0616 103.082 90.2334 103.915 89.6743L107.647 87.2281L107.4 91.6407C107.348 92.6241 107.978 93.5098 109.01 93.5098ZM80.4668 50.0283C92.7622 50.0283 99.5611 39.7051 110.605 39.7051C113.408 39.7051 115.685 40.3179 118.407 41.835C119.862 42.6299 121.122 42.0977 121.752 41.1563C122.502 40.0278 122.389 38.3335 120.725 37.3853C117.578 35.5415 114.259 34.6743 110.605 34.6743C97.857 34.6743 91.1641 45.0161 80.4668 45.0161C77.6787 45.0161 75.3872 44.3848 72.646 42.834C71.3189 42.0879 69.9951 42.5562 69.3316 43.5986C68.6192 44.7388 68.7471 46.4029 70.3286 47.3325C73.4302 49.2891 76.8282 50.0283 80.4668 50.0283ZM80.5005 63.8086C92.7622 63.8086 99.5948 53.4854 110.605 53.4854C113.442 53.4854 115.718 54.0982 118.441 55.6153C119.862 56.4102 121.156 55.8628 121.786 54.9365C122.502 53.8081 122.422 52.1138 120.792 51.1655C117.611 49.3067 114.259 48.4395 110.605 48.4395C97.8907 48.4395 91.1978 58.7964 80.5005 58.7964C77.6787 58.7964 75.3872 58.1499 72.6797 56.6328C71.3526 55.8682 69.9951 56.3213 69.3316 57.3789C68.6192 58.5191 68.7471 60.1831 70.3623 61.1128C73.4639 63.0694 76.8618 63.8086 80.5005 63.8086ZM80.4668 77.5738C92.7622 77.5738 99.5611 67.2657 110.605 67.2657C113.408 67.2657 115.685 67.8633 118.407 69.4141C119.862 70.209 121.122 69.6431 121.752 68.7168C122.502 67.5884 122.389 65.8941 120.725 64.9458C117.578 63.0869 114.259 62.2197 110.605 62.2197C97.857 62.2197 91.1641 72.5767 80.4668 72.5767C77.6787 72.5767 75.3872 71.9302 72.646 70.4131C71.3189 69.6485 69.9951 70.1016 69.3316 71.1592C68.6192 72.2842 68.7471 73.9971 70.3286 74.9117C73.4302 76.8496 76.8282 77.5738 80.4668 77.5738Z" fill="#000000" fill-opacity="0.85"/>
 </g>
</svg>
