<?xml version="1.0" encoding="UTF-8"?>
<!--Generator: Apple Native CoreSVG 232.5-->
<!DOCTYPE svg
PUBLIC "-//W3C//DTD SVG 1.1//EN"
       "http://www.w3.org/Graphics/SVG/1.1/DTD/svg11.dtd">
<svg version="1.1" xmlns="http://www.w3.org/2000/svg" xmlns:xlink="http://www.w3.org/1999/xlink" width="97.9595" height="97.9932">
 <g>
  <rect height="97.9932" opacity="0" width="97.9595" x="0" y="0"/>
  <path d="M97.9595 49.021C97.9595 75.8584 75.8247 97.9932 48.9722 97.9932C22.1685 97.9932 0 75.8584 0 49.021C0 22.2173 22.1348 0.0488281 48.9385 0.0488281C75.791 0.0488281 97.9595 22.2173 97.9595 49.021ZM47.6436 55.1982L32.896 71.8618C31.9395 72.916 32.6973 74.5293 34.0781 74.5293L63.8662 74.5293C65.3296 74.5293 66.0049 72.916 65.0635 71.8618L50.3345 55.1982C49.6777 54.4439 48.3677 54.4439 47.6436 55.1982ZM23.4097 49.021C23.4097 56.0083 26.1978 62.6689 31.2925 67.439L33.6148 64.79C29.3604 60.6011 26.9512 54.9053 26.9512 49.021C26.9512 36.9624 36.9136 26.9663 48.9722 26.9663C61.0645 26.9663 71.0606 36.9624 71.0606 49.021C71.0606 54.9053 68.6328 60.6011 64.3447 64.79L66.667 67.439C71.7617 62.6689 74.6172 56.0083 74.6172 49.021C74.6172 34.9854 63.0566 23.4097 48.9722 23.4097C34.9028 23.4097 23.4097 34.9854 23.4097 49.021ZM30.584 49.021C30.584 53.9121 32.4932 58.5894 36.0103 62.041L38.3965 59.3735C35.6406 56.5483 34.1743 52.8579 34.1743 49.021C34.1743 40.8652 40.8501 34.1558 48.9722 34.1558C57.0942 34.1558 63.8189 40.8652 63.8189 49.021C63.8189 52.8579 62.3037 56.582 59.5293 59.3398L61.9341 62.041C65.4663 58.5557 67.3941 53.9121 67.3941 49.021C67.3941 38.9219 59.0864 30.5991 48.9722 30.5991C38.8731 30.5991 30.584 38.9219 30.584 49.021ZM37.7734 49.021C37.7734 51.9136 38.856 54.5249 40.7803 56.6699L43.249 53.8711C42.0186 52.5142 41.3638 50.7583 41.3638 49.021C41.3638 44.8355 44.7866 41.3638 48.9722 41.3638C53.1729 41.3638 56.6294 44.8355 56.6294 49.021C56.6294 50.7583 55.9409 52.5142 54.7105 53.8374L57.1792 56.6514C59.0884 54.5249 60.2197 51.8799 60.2197 49.021C60.2197 42.8921 55.1162 37.7886 48.9722 37.7886C42.8433 37.7886 37.7734 42.8921 37.7734 49.021Z" fill="#000000" fill-opacity="0.85"/>
 </g>
</svg>
