<?xml version="1.0" encoding="UTF-8"?>
<!--Generator: Apple Native CoreSVG 232.5-->
<!DOCTYPE svg
PUBLIC "-//W3C//DTD SVG 1.1//EN"
       "http://www.w3.org/Graphics/SVG/1.1/DTD/svg11.dtd">
<svg version="1.1" xmlns="http://www.w3.org/2000/svg" xmlns:xlink="http://www.w3.org/1999/xlink" width="108.564" height="84.0547">
 <g>
  <rect height="84.0547" opacity="0" width="108.564" x="0" y="0"/>
  <path d="M28.606 84.0059L79.958 84.0059C99.0962 84.0059 108.564 74.6626 108.564 55.7129L108.564 31.5205L78.4907 31.5205C77.7666 33.6118 75.8672 34.9673 73.4609 34.9673L35.1367 34.9673C32.7793 34.9673 30.7974 33.6118 30.1069 31.5205L0 31.5205L0 55.7129C0 74.6626 9.50147 84.0059 28.606 84.0059ZM54.2744 52.4204C51.9692 52.4693 50.0732 50.5244 50.0732 48.2681C50.0732 45.9629 51.9692 44.0332 54.2744 44.0332C56.5947 44.0332 58.5244 45.9629 58.5244 48.2681C58.5244 50.4873 56.5947 52.3716 54.2744 52.4204ZM0 27.7432L30.0396 27.7432C30.73 25.6333 32.7271 24.2964 35.0693 24.2964L73.4273 24.2964C75.7998 24.2964 77.7329 25.6333 78.4234 27.7432L108.463 27.7432L108.463 26.3472C108.463 8.76709 98.3853 0 79.8721 0L28.606 0C10.1113 0 0 8.76709 0 26.3472Z" fill="#000000" fill-opacity="0.85"/>
 </g>
</svg>
