<?xml version="1.0" encoding="UTF-8"?>
<!--Generator: Apple Native CoreSVG 232.5-->
<!DOCTYPE svg
PUBLIC "-//W3C//DTD SVG 1.1//EN"
       "http://www.w3.org/Graphics/SVG/1.1/DTD/svg11.dtd">
<svg version="1.1" xmlns="http://www.w3.org/2000/svg" xmlns:xlink="http://www.w3.org/1999/xlink" width="98.603" height="86.1816">
 <g>
  <rect height="86.1816" opacity="0" width="98.603" x="0" y="0"/>
  <path d="M30.4199 86.1328L68.1831 86.1328C88.8223 86.1328 98.603 76.3184 98.603 55.7129L98.603 33.3496L75.0264 33.3496C74.0986 35.6445 71.9165 37.0605 69.1821 37.0605L29.4209 37.0605C26.7354 37.0605 24.4893 35.6445 23.6104 33.3496L0 33.3496L0 55.7129C0 76.3184 9.76562 86.1328 30.4199 86.1328ZM49.294 56.6406C46.7549 56.6895 44.6216 54.541 44.6216 52.0508C44.6216 49.4629 46.7549 47.3633 49.294 47.3633C51.8482 47.3633 53.9815 49.4629 53.9815 52.0508C53.9815 54.3945 51.8482 56.5918 49.294 56.6406ZM0 28.3691L23.5127 28.3691C24.3579 26.0254 26.604 24.6094 29.2896 24.6094L69.1182 24.6094C71.8037 24.6094 74.0498 26.0254 74.9287 28.3691L98.4077 28.3691L98.4077 26.6602C98.4077 8.64258 87.4551 0 67.9878 0L30.4199 0C10.9863 0 0 8.64258 0 26.6602Z" fill="#000000" fill-opacity="0.85"/>
 </g>
</svg>
