<?xml version="1.0" encoding="UTF-8"?>
<!--Generator: Apple Native CoreSVG 232.5-->
<!DOCTYPE svg
PUBLIC "-//W3C//DTD SVG 1.1//EN"
       "http://www.w3.org/Graphics/SVG/1.1/DTD/svg11.dtd">
<svg version="1.1" xmlns="http://www.w3.org/2000/svg" xmlns:xlink="http://www.w3.org/1999/xlink" width="70.148" height="92.9803">
 <g>
  <rect height="92.9803" opacity="0" width="70.148" x="0" y="0"/>
  <path d="M48.1812 84.4076C48.1812 87.0566 46.5459 88.4223 43.791 88.4223L39.9673 88.4223C37.1939 88.4223 35.5098 87.0566 35.5098 84.4076L35.5098 54.663C40.8672 54.2088 44.8419 53.2757 48.1812 52.0195Z" fill="#000000" fill-opacity="0.85"/>
  <path d="M65.5913 23.2636C65.5913 33.7519 59.2437 41.3017 50.918 45.8192C47.5494 47.6326 43.8883 49.0167 38.1404 49.7345C39.0469 47.5538 39.5498 45.0441 39.5498 42.2294C39.5498 32.6391 31.7825 23.1621 21.0044 21.5092C21.8564 19.7859 22.7595 18.3533 23.3906 17.5409C29.1714 8.683 38.4942 4.43007 46.9077 4.558C57.4834 4.68593 65.5913 11.6752 65.5913 23.2636ZM53.1289 15.0805L46.3447 20.8173C45.4253 21.5717 45.3276 22.8852 46.0366 23.7743C46.8062 24.6938 48.1348 24.7611 48.9902 24.0521L55.8535 18.3153C56.7578 17.5761 56.7915 16.2475 56.0523 15.3617C55.377 14.4574 54.0298 14.3109 53.1289 15.0805Z" fill="#000000" fill-opacity="0.85"/>
  <path d="M21.6001 55.6933C29.1265 55.6933 35.1802 51.0209 35.1802 42.2294C35.1802 33.9789 27.5693 25.5883 17.6113 25.5883C9.50684 25.5883 4.53809 31.9013 4.53809 38.8754C4.53809 48.7748 12.9356 55.6933 21.6001 55.6933ZM19.3892 48.9374C18.0337 50.0824 15.7085 48.8769 12.9756 45.5463C10.2798 42.2309 9.50196 39.8686 10.8237 38.7572C12.2129 37.5785 14.4439 38.7655 17.1919 42.0692C19.8843 45.4975 20.6807 47.8261 19.3892 48.9374Z" fill="#000000" fill-opacity="0.425"/>
 </g>
</svg>
