<?xml version="1.0" encoding="UTF-8"?>
<!--Generator: Apple Native CoreSVG 232.5-->
<!DOCTYPE svg
PUBLIC "-//W3C//DTD SVG 1.1//EN"
       "http://www.w3.org/Graphics/SVG/1.1/DTD/svg11.dtd">
<svg version="1.1" xmlns="http://www.w3.org/2000/svg" xmlns:xlink="http://www.w3.org/1999/xlink" width="40.6877" height="92.1455">
 <g>
  <rect height="92.1455" opacity="0" width="40.6877" x="0" y="0"/>
  <path d="M20.1258 37.8438C29.4735 37.6973 35.9896 32.3486 39.328 27.2476C40.244 25.791 40.6869 24.2183 40.6869 22.4351L40.6869 15.4087C40.6869 13.6406 40.2777 12.0679 39.328 10.6113C35.9222 5.49513 29.4735 0 20.1258 0C9.15414 0 0.101895 8.53858 0.000820199 18.8486C-0.100254 29.3052 9.15414 37.9263 20.1258 37.8438ZM32.4056 26.0859C31.2235 26.0859 30.3343 25.1968 30.3343 23.9995L30.3343 13.7651C30.3343 12.583 31.2235 11.6939 32.4056 11.6939C33.5726 11.6939 34.4281 12.583 34.4281 13.7651L34.4281 23.9995C34.4281 25.1968 33.5726 26.0859 32.4056 26.0859ZM17.3026 76.9453L17.3026 42.0552C12.5995 41.604 8.22299 39.7871 4.6683 37.0508L4.6683 76.9453ZM13.0472 91.9839C15.7044 91.9839 17.3026 90.6704 17.3026 88.1377L17.3026 81.4346L4.6683 81.4346L4.6683 88.1377C4.6683 90.6704 6.26645 91.9839 8.98764 91.9839Z" fill="#000000" fill-opacity="0.85"/>
 </g>
</svg>
