<?xml version="1.0" encoding="UTF-8"?>
<!--Generator: Apple Native CoreSVG 232.5-->
<!DOCTYPE svg
PUBLIC "-//W3C//DTD SVG 1.1//EN"
       "http://www.w3.org/Graphics/SVG/1.1/DTD/svg11.dtd">
<svg version="1.1" xmlns="http://www.w3.org/2000/svg" xmlns:xlink="http://www.w3.org/1999/xlink" width="97.9595" height="97.9932">
 <g>
  <rect height="97.9932" opacity="0" width="97.9595" x="0" y="0"/>
  <path d="M97.9595 49.021C97.9595 75.8584 75.8247 97.9932 48.9722 97.9932C22.1685 97.9932 0 75.8584 0 49.021C0 22.2173 22.1348 0.0488281 48.9385 0.0488281C75.791 0.0488281 97.9595 22.2173 97.9595 49.021ZM35.9307 22.2622C35.0078 22.2622 34.4824 23.1362 34.8916 24.0742L43.6943 43.5015L30.7065 44.9023L26.0947 36.5088C25.6704 35.7544 25.0591 35.4092 24.0757 35.4092L22.9038 35.4092C22.0483 35.4092 21.5044 35.938 21.5044 36.8086L21.5044 61.2217C21.5044 62.1074 22.0483 62.6548 22.9038 62.6548L24.0757 62.6548C25.0591 62.6548 25.6704 62.3247 26.0947 61.5552L30.7065 53.1616L43.6943 54.5625L34.8916 73.9898C34.4824 74.9429 35.0078 75.8018 35.9307 75.8018L38.9648 75.8018C39.7681 75.8018 40.5527 75.4077 41.1421 74.7695L58.5962 55.7192C59.4414 54.8252 59.8774 54.6299 61.1807 54.6299L71.9263 54.6299C77.1528 54.6299 81.4146 52.2271 81.4146 49.0396C81.4146 45.8369 77.1528 43.4341 71.9263 43.4341L61.1807 43.4341C59.8774 43.4341 59.4414 43.2539 58.5962 42.3447L41.1421 23.2944C40.5527 22.6226 39.7681 22.2622 38.9648 22.2622Z" fill="#000000" fill-opacity="0.85"/>
 </g>
</svg>
