<?xml version="1.0" encoding="UTF-8"?>
<!--Generator: Apple Native CoreSVG 232.5-->
<!DOCTYPE svg
PUBLIC "-//W3C//DTD SVG 1.1//EN"
       "http://www.w3.org/Graphics/SVG/1.1/DTD/svg11.dtd">
<svg version="1.1" xmlns="http://www.w3.org/2000/svg" xmlns:xlink="http://www.w3.org/1999/xlink" width="77.4116" height="95.0235">
 <g>
  <rect height="95.0235" opacity="0" width="77.4116" x="0" y="0"/>
  <path d="M38.6983 50.5562C41.1045 50.5376 43.1016 48.5405 43.1016 46.2354C43.1016 43.7954 41.1045 41.832 38.6983 41.832C36.292 41.832 34.3101 43.7954 34.3101 46.2354C34.3101 48.6079 36.292 50.5899 38.6983 50.5562ZM23.6104 94.9746L53.7861 94.9746C69.6611 94.9746 77.4116 87.2393 77.4116 71.3643L77.4116 23.6104C77.4116 7.73535 69.6611 0 53.7861 0L23.6104 0C7.75049 0 0 7.73535 0 23.6104L0 71.3643C0 87.2393 7.75049 94.9746 23.6104 94.9746ZM23.6104 88.9448C11.4712 88.9448 6.04494 83.5186 6.04494 71.3643L6.04494 23.6104C6.04494 11.4561 11.4712 6.0298 23.6104 6.0298L53.7861 6.0298C65.9404 6.0298 71.3667 11.4561 71.3667 23.6104L71.3667 71.3643C71.3667 83.5186 65.9404 88.9448 53.7861 88.9448ZM3.03175 31.0967L74.3799 31.0967L74.3799 26.9976L3.03175 26.9976ZM25.3242 34.3565L52.0874 34.3565C55.1538 34.3565 57.4321 32.1607 57.4321 29.0303C57.4321 25.8999 55.1538 23.7192 52.0874 23.7192L25.3242 23.7192C22.3892 23.7192 19.9795 25.8999 19.9795 29.0303C19.9795 32.1607 22.3892 34.3565 25.3242 34.3565Z" fill="#000000" fill-opacity="0.85"/>
 </g>
</svg>
