<?xml version="1.0" encoding="UTF-8"?>
<!--Generator: Apple Native CoreSVG 232.5-->
<!DOCTYPE svg
PUBLIC "-//W3C//DTD SVG 1.1//EN"
       "http://www.w3.org/Graphics/SVG/1.1/DTD/svg11.dtd">
<svg version="1.1" xmlns="http://www.w3.org/2000/svg" xmlns:xlink="http://www.w3.org/1999/xlink" width="62.0948" height="108.041">
 <g>
  <rect height="108.041" opacity="0" width="62.0948" x="0" y="0"/>
  <path d="M45.937 95.6255C48.0806 95.6255 49.8486 93.8423 49.8486 91.6162C49.8486 89.4727 48.0806 87.7046 45.937 87.7046C43.7261 87.7046 41.9614 89.4727 41.9614 91.6162C41.9614 93.8423 43.7261 95.6255 45.937 95.6255ZM0 93.5977C0 103.069 4.86963 107.872 14.3936 107.872L47.7349 107.872C57.2403 107.872 62.0948 103.069 62.0948 93.5977L62.0948 22.4341C62.0948 18.9585 61.3706 16.877 59.333 14.3965L51.9463 5.36475C49.1089 1.87402 46.1133 0 42.249 0L19.8608 0C15.9966 0 13.0347 1.87402 10.1484 5.36475L2.76172 14.3965C0.739259 16.877 0 18.9585 0 22.4341ZM6.04494 93.2979L6.04494 25.5821C7.18166 26.4507 8.67335 26.8159 10.6397 26.8159L51.4551 26.8159C53.4702 26.8159 54.9468 26.4507 56.065 25.5821L56.065 93.2979C56.065 98.9361 53.1069 101.842 47.5884 101.842L14.5064 101.842C9.00294 101.842 6.04494 98.9361 6.04494 93.2979ZM8.25588 16.5405L14.6201 8.76368C16.7114 6.26661 17.9439 4.91114 21.2305 4.91114L40.8643 4.91114C44.1846 4.91114 45.4321 6.26661 47.4746 8.76368L53.854 16.5405C55.1216 18.064 54.8657 20.7861 51.5781 20.7861L10.5318 20.7861C7.24416 20.7861 7.02199 18.064 8.25588 16.5405Z" fill="#000000" fill-opacity="0.85"/>
 </g>
</svg>
