<?xml version="1.0" encoding="UTF-8"?>
<!--Generator: Apple Native CoreSVG 232.5-->
<!DOCTYPE svg
PUBLIC "-//W3C//DTD SVG 1.1//EN"
       "http://www.w3.org/Graphics/SVG/1.1/DTD/svg11.dtd">
<svg version="1.1" xmlns="http://www.w3.org/2000/svg" xmlns:xlink="http://www.w3.org/1999/xlink" width="70.148" height="92.9803">
 <g>
  <rect height="92.9803" opacity="0" width="70.148" x="0" y="0"/>
  <path d="M34.6045 54.6625L34.6045 84.4076C34.6045 87.0566 32.9204 88.4223 30.1807 88.4223L26.3569 88.4223C23.6021 88.4223 21.9331 87.0566 21.9331 84.4076L21.9331 52.0094C25.2715 53.2701 29.2417 54.2068 34.6045 54.6625Z" fill="#000000" fill-opacity="0.85"/>
  <path d="M46.7573 17.5409C47.3882 18.3529 48.2842 19.7847 49.1315 21.507C38.3663 23.1538 30.5645 32.6349 30.5645 42.2294C30.5645 45.0417 31.0665 47.5496 31.9723 49.7289C26.2499 49.0098 22.5903 47.6281 19.23 45.8192C10.8706 41.3017 4.52295 33.7519 4.52295 23.2636C4.52295 11.6752 12.6309 4.68593 23.2402 4.558C31.6201 4.43007 40.9766 8.683 46.7573 17.5409ZM14.0957 15.3617C13.3228 16.2475 13.3565 17.5761 14.2608 18.3153L21.1577 24.0521C21.9946 24.7611 23.3418 24.6938 24.1113 23.7743C24.8203 22.8852 24.7227 21.5717 23.7695 20.8173L17.0191 15.0805C16.0845 14.3109 14.771 14.4574 14.0957 15.3617Z" fill="#000000" fill-opacity="0.85"/>
  <path d="M48.5479 55.6933C57.2124 55.6933 65.5762 48.7748 65.5762 38.8754C65.5762 31.9013 60.6411 25.5883 52.5029 25.5883C42.5786 25.5883 34.9678 33.9789 34.9678 42.2294C34.9678 51.0209 41.0215 55.6933 48.5479 55.6933ZM50.7588 48.9374C49.4673 47.8261 50.2637 45.4975 52.9561 42.0692C55.6704 38.7655 57.9351 37.5785 59.3242 38.7572C60.6123 39.8686 59.8345 42.2309 57.1724 45.5463C54.4395 48.8769 52.1143 50.0824 50.7588 48.9374Z" fill="#000000" fill-opacity="0.425"/>
 </g>
</svg>
