<?xml version="1.0" encoding="UTF-8"?>
<!--Generator: Apple Native CoreSVG 232.5-->
<!DOCTYPE svg
PUBLIC "-//W3C//DTD SVG 1.1//EN"
       "http://www.w3.org/Graphics/SVG/1.1/DTD/svg11.dtd">
<svg version="1.1" xmlns="http://www.w3.org/2000/svg" xmlns:xlink="http://www.w3.org/1999/xlink" width="126.147" height="84.0996">
 <g>
  <rect height="84.0996" opacity="0" width="126.147" x="0" y="0"/>
  <path d="M108.707 74.5005C109.906 75.8833 112.004 75.853 113.421 74.3169C121.5 65.7818 126.147 54.4448 126.147 42.0254C126.147 29.606 121.5 18.2202 113.421 9.73389C112.004 8.19775 109.906 8.13379 108.707 9.55029C107.522 10.8843 107.905 12.6797 109.239 14.167C116.1 21.5029 120.034 31.2398 120.034 42.0254C120.034 52.811 116.1 62.5327 109.239 69.8838C107.905 71.3711 107.522 73.1665 108.707 74.5005Z" fill="#000000" fill-opacity="0.85"/>
  <path d="M95.292 60.7964C96.5249 62.1792 98.7583 62.1826 100.074 60.5454C104.397 55.5444 106.918 49.0518 106.918 42.0254C106.918 34.999 104.397 28.5064 100.074 23.5054C98.7583 21.853 96.5249 21.8379 95.292 23.2544C94.1079 24.5884 94.5762 26.3164 95.7906 27.8711C99.1743 31.5147 100.821 36.5991 100.821 42.0254C100.821 47.4517 99.1743 52.4873 95.7906 56.1797C94.5762 57.7344 94.1079 59.4624 95.292 60.7964Z" fill="#000000" fill-opacity="0.85"/>
  <path d="M42.0254 84.0357C65.0156 84.0357 84.0357 65.0156 84.0357 42.0254C84.0357 19.0352 65.0493 0 42.0591 0C19.0537 0 0 19.0352 0 42.0254C0 65.0156 19.02 84.0357 42.0254 84.0357ZM42.4497 56.7041C39.5352 56.7041 38.5098 58.2666 36.166 58.2666C33.7398 58.2666 32.1284 56.1519 30.2241 53.4663C28.0757 50.3228 26.2691 45.4888 26.2691 40.8652C26.2691 33.4922 31.0542 29.5523 35.8242 29.5523C38.3145 29.5523 40.3989 31.2461 41.9614 31.2461C43.4902 31.2461 45.8189 29.5034 48.6509 29.5034C49.7588 29.5034 53.665 29.5523 56.189 33.2144C55.96 33.4434 52.1177 35.5918 52.1177 40.5083C52.1177 46.1235 57.0342 48.1255 57.1807 48.208C57.1807 48.3057 56.4483 50.9424 54.5928 53.564C52.9815 55.874 51.2388 58.2178 48.6509 58.2178C46.063 58.2178 45.4282 56.7041 42.4497 56.7041ZM47.3325 26.3296C46.063 27.8921 43.9146 29.064 42.1719 29.064C41.9614 29.064 41.815 29.0151 41.6348 29.0151C41.6348 28.9175 41.5859 28.6094 41.5859 28.3316C41.5859 26.3296 42.645 24.4253 43.6856 23.1709C45.0864 21.5444 47.3325 20.3389 49.2857 20.29C49.3345 20.4854 49.3345 20.7632 49.3345 21.0225C49.3345 23.0093 48.5044 24.9136 47.3325 26.3296Z" fill="#000000" fill-opacity="0.85"/>
 </g>
</svg>
