<?xml version="1.0" encoding="UTF-8"?>
<!--Generator: Apple Native CoreSVG 232.5-->
<!DOCTYPE svg
PUBLIC "-//W3C//DTD SVG 1.1//EN"
       "http://www.w3.org/Graphics/SVG/1.1/DTD/svg11.dtd">
<svg version="1.1" xmlns="http://www.w3.org/2000/svg" xmlns:xlink="http://www.w3.org/1999/xlink" width="170.409" height="108.024">
 <g>
  <rect height="108.024" opacity="0" width="170.409" x="0" y="0"/>
  <path d="M17.44 86.4629C18.624 85.1289 18.2417 83.3335 16.9077 81.8462C10.0469 74.4951 6.09718 64.7734 6.09718 53.9878C6.09718 43.2022 10.0469 33.4653 16.9077 26.1294C18.2417 24.6421 18.624 22.8467 17.44 21.5127C16.2407 20.0962 14.1421 20.1602 12.7256 21.6963C4.68066 30.1826 0 41.5684 0 53.9878C0 66.4072 4.68066 77.7442 12.7256 86.2793C14.1421 87.8154 16.2407 87.8457 17.44 86.4629ZM152.92 86.4629C154.153 87.8457 156.233 87.8154 157.683 86.2793C165.713 77.7442 170.409 66.4072 170.409 53.9878C170.409 41.5684 165.713 30.1826 157.683 21.6963C156.233 20.1602 154.153 20.0962 152.92 21.5127C151.785 22.8467 152.133 24.6421 153.501 26.1294C160.362 33.4653 164.296 43.2022 164.296 53.9878C164.296 64.7734 160.362 74.4951 153.501 81.8462C152.133 83.3335 151.785 85.1289 152.92 86.4629Z" fill="#000000" fill-opacity="0.85"/>
  <path d="M30.8545 72.7588C32.0386 71.4248 31.5703 69.6968 30.3408 68.1421C26.9722 64.4497 25.3594 59.4141 25.3594 53.9878C25.3594 48.5615 26.9722 43.4771 30.3408 39.8335C31.5703 38.2788 32.0386 36.5508 30.8545 35.2168C29.6216 33.8003 27.3882 33.8154 26.0728 35.4678C21.7339 40.4688 19.2622 46.9614 19.2622 53.9878C19.2622 61.0142 21.7339 67.5068 26.0728 72.5078C27.3882 74.145 29.6216 74.1416 30.8545 72.7588ZM139.521 72.7588C140.753 74.1416 142.987 74.145 144.336 72.5078C148.66 67.5068 151.147 61.0142 151.147 53.9878C151.147 46.9614 148.66 40.4688 144.336 35.4678C142.987 33.8154 140.753 33.8003 139.521 35.2168C138.336 36.5508 138.823 38.2788 140.019 39.8335C143.388 43.4771 145.034 48.5615 145.034 53.9878C145.034 59.4141 143.388 64.4497 140.019 68.1421C138.823 69.6968 138.336 71.4248 139.521 72.7588Z" fill="#000000" fill-opacity="0.85"/>
  <path d="M85.1875 100.085C110.685 100.085 131.337 79.3989 131.337 53.9356C131.337 28.4873 110.685 7.78565 85.1875 7.78565C59.7393 7.78565 39.0376 28.4873 39.0376 53.9356C39.0376 79.3989 59.7393 100.085 85.1875 100.085ZM85.1875 93.7222C63.2241 93.7222 45.4346 75.9141 45.4346 53.9356C45.4346 32.021 63.2241 14.2315 85.1875 14.2315C107.102 14.2315 124.925 32.021 124.925 53.9356C124.925 75.9141 107.102 93.7222 85.1875 93.7222ZM46.7344 19.3657C47.4517 19.3657 47.9434 19.2192 48.627 18.6973L64.4092 7.17969C65.2056 6.5752 65.6148 5.87305 65.6148 5.05811C65.6148 4.06299 65.1416 3.26318 64.2813 2.4668C62.4409 0.803223 59.3477 0 56.4819 0C49.0581 0 43.2876 5.78565 43.2876 13.021C43.2876 14.6494 43.5537 16.335 44.042 17.4277C44.5488 18.5693 45.4834 19.3657 46.7344 19.3657ZM123.674 19.3657C124.892 19.3657 125.826 18.5357 126.352 17.4277C126.858 16.3687 127.087 14.6494 127.087 13.021C127.087 5.78565 121.351 0 113.912 0C111.027 0 107.953 0.803223 106.112 2.4668C105.218 3.26318 104.745 4.06299 104.745 5.05811C104.745 5.87305 105.169 6.5752 105.984 7.17969L121.767 18.6973C122.45 19.2192 122.957 19.3657 123.674 19.3657ZM45.4873 98.794C46.6192 99.9258 48.4365 99.9258 49.6021 98.7603L58.6338 89.7168L54.6318 85.6997L45.521 94.7617C44.3706 95.8784 44.374 97.6807 45.4873 98.794ZM124.921 98.794C126.02 97.6807 126.038 95.8784 124.888 94.7617L115.777 85.6997L111.76 89.7168L120.758 98.7603C121.938 99.9258 123.741 99.9258 124.921 98.794ZM61.4722 58.7349L85.1538 58.7349C86.6983 58.7349 87.8604 57.5391 87.8604 56.0283L87.8604 24.6372C87.8604 23.1416 86.6983 22.0098 85.1538 22.0098C83.7222 22.0098 82.5264 23.1416 82.5264 24.6372L82.5264 53.4009L61.4722 53.4009C59.9615 53.4009 58.8296 54.563 58.8296 56.0283C58.8296 57.5391 59.9615 58.7349 61.4722 58.7349Z" fill="#000000" fill-opacity="0.85"/>
 </g>
</svg>
