<?xml version="1.0" encoding="UTF-8"?>
<!--Generator: Apple Native CoreSVG 232.5-->
<!DOCTYPE svg
PUBLIC "-//W3C//DTD SVG 1.1//EN"
       "http://www.w3.org/Graphics/SVG/1.1/DTD/svg11.dtd">
<svg version="1.1" xmlns="http://www.w3.org/2000/svg" xmlns:xlink="http://www.w3.org/1999/xlink" width="92.2998" height="108.317">
 <g>
  <rect height="108.317" opacity="0" width="92.2998" x="0" y="0"/>
  <path d="M46.1499 100.134C71.6284 100.134 92.2998 79.4326 92.2998 53.9844C92.2998 28.5361 71.6284 7.80078 46.1499 7.80078C20.7017 7.80078 0 28.5361 0 53.9844C0 79.4326 20.7017 100.134 46.1499 100.134ZM22.4346 58.7349C20.9238 58.7349 19.792 57.5728 19.792 56.062C19.792 54.5967 20.9238 53.4009 22.4346 53.4009L43.4888 53.4009L43.4888 24.6709C43.4888 23.1753 44.6509 22.0098 46.1162 22.0098C47.627 22.0098 48.8228 23.1753 48.8228 24.6709L48.8228 56.062C48.8228 57.5728 47.627 58.7349 46.1162 58.7349ZM7.69677 19.3657C8.41405 19.3657 8.92089 19.2529 9.60448 18.731L25.3716 7.19483C26.168 6.60889 26.5923 5.88818 26.5923 5.05811C26.5923 4.06299 26.1191 3.26318 25.2436 2.4668C23.4033 0.852051 20.3101 0 17.4258 0C10.0205 0 4.24999 5.78565 4.24999 13.0698C4.24999 14.6646 4.48241 16.335 5.01952 17.4429C5.51122 18.603 6.44579 19.3657 7.69677 19.3657ZM84.603 19.3657C85.854 19.3657 86.7886 18.5693 87.3291 17.4429C87.7871 16.3687 88.0498 14.6646 88.0498 13.0698C88.0498 5.78565 82.313 0 74.8892 0C71.9898 0 68.8965 0.852051 67.0562 2.4668C66.1807 3.26318 65.7227 4.06299 65.7227 5.05811C65.7227 5.88818 66.1318 6.60889 66.9619 7.19483L82.6953 18.731C83.4126 19.2529 83.8858 19.3657 84.603 19.3657ZM6.4497 98.794C7.58154 99.9595 9.39893 99.9595 10.5645 98.7603L19.6113 89.7168L15.5942 85.7334L6.48339 94.7617C5.333 95.8784 5.35156 97.6958 6.4497 98.794ZM85.8501 98.794C86.9819 97.6958 86.9668 95.8784 85.8164 94.7617L76.7056 85.7334L72.7222 89.7168L81.7354 98.7603C82.9009 99.9595 84.7183 99.9595 85.8501 98.794Z" fill="#000000" fill-opacity="0.85"/>
 </g>
</svg>
