<?xml version="1.0" encoding="UTF-8"?>
<!--Generator: Apple Native CoreSVG 232.5-->
<!DOCTYPE svg
PUBLIC "-//W3C//DTD SVG 1.1//EN"
       "http://www.w3.org/Graphics/SVG/1.1/DTD/svg11.dtd">
<svg version="1.1" xmlns="http://www.w3.org/2000/svg" xmlns:xlink="http://www.w3.org/1999/xlink" width="109.717" height="105.452">
 <g>
  <rect height="105.452" opacity="0" width="109.717" x="0" y="0"/>
  <path d="M21.9429 105.452L40.2671 105.452C46.2759 105.452 49.6792 102 49.6792 95.9053L49.6792 24.6363C49.6792 18.5752 46.2759 15.0894 40.2671 15.0894L21.9429 15.0894C15.9341 15.0894 12.5308 18.5752 12.5308 24.6363L12.5308 95.9053C12.5308 102 15.9341 105.452 21.9429 105.452ZM22.2764 99.729C19.7305 99.729 18.2388 98.2373 18.2388 95.7588L18.2388 24.7827C18.2388 22.3379 19.7305 20.8125 22.2764 20.8125L39.9336 20.8125C42.4795 20.8125 43.9712 22.3379 43.9712 24.7827L43.9712 95.7588C43.9712 98.2373 42.4795 99.729 39.9336 99.729ZM69.5933 72.0323L87.9175 72.0323C93.8926 72.0323 97.3448 68.5801 97.3448 62.4854L97.3448 24.6363C97.3448 18.5752 93.8926 15.0894 87.9175 15.0894L69.5933 15.0894C63.5845 15.0894 60.1475 18.5752 60.1475 24.6363L60.1475 62.4854C60.1475 68.5801 63.5845 72.0323 69.5933 72.0323ZM69.8931 66.3091C67.3809 66.3091 65.8555 64.8325 65.8555 62.354L65.8555 24.7827C65.8555 22.3379 67.3809 20.8125 69.8931 20.8125L87.584 20.8125C90.0962 20.8125 91.6216 22.3379 91.6216 24.7827L91.6216 62.354C91.6216 64.8325 90.0962 66.3091 87.584 66.3091Z" fill="#000000" fill-opacity="0.85"/>
  <path d="M2.67628 5.68605L107.06 5.68605C108.555 5.68605 109.717 4.38917 109.717 2.9087C109.717 1.41309 108.555 0.0976562 107.06 0.0976562L2.67628 0.0976562C1.16211 0.0976562 0 1.41309 0 2.9087C0 4.38917 1.16211 5.68605 2.67628 5.68605Z" fill="#000000" fill-opacity="0.85"/>
 </g>
</svg>
