<?xml version="1.0" encoding="UTF-8"?>
<!--Generator: Apple Native CoreSVG 232.5-->
<!DOCTYPE svg
PUBLIC "-//W3C//DTD SVG 1.1//EN"
       "http://www.w3.org/Graphics/SVG/1.1/DTD/svg11.dtd">
<svg version="1.1" xmlns="http://www.w3.org/2000/svg" xmlns:xlink="http://www.w3.org/1999/xlink" width="105.253" height="109.788">
 <g>
  <rect height="109.788" opacity="0" width="105.253" x="0" y="0"/>
  <path d="M80.8008 49.6035C86.8618 49.6035 90.3477 46.1851 90.3477 40.1914L90.3477 21.8521C90.3477 15.8584 86.8618 12.4399 80.8008 12.4399L42.9517 12.4399C36.8569 12.4399 33.4199 15.8584 33.4199 21.8521L33.4199 40.1914C33.4199 46.1851 36.8569 49.6035 42.9517 49.6035ZM80.8008 97.2202C86.8618 97.2202 90.3477 93.8018 90.3477 87.8081L90.3477 69.4688C90.3477 63.5088 86.8618 60.0567 80.8008 60.0567L9.54689 60.0567C3.45215 60.0567 0 63.5088 0 69.4688L0 87.8081C0 93.8018 3.45215 97.2202 9.54689 97.2202Z" fill="#000000" fill-opacity="0.85"/>
  <path d="M102.476 109.717C103.972 109.717 105.253 108.555 105.253 107.06L105.253 2.64258C105.253 1.16211 103.972 0 102.476 0C100.996 0 99.6651 1.16211 99.6651 2.64258L99.6651 107.06C99.6651 108.555 100.996 109.717 102.476 109.717Z" fill="#000000" fill-opacity="0.85"/>
 </g>
</svg>
