<?xml version="1.0" encoding="UTF-8"?>
<!--Generator: Apple Native CoreSVG 232.5-->
<!DOCTYPE svg
PUBLIC "-//W3C//DTD SVG 1.1//EN"
       "http://www.w3.org/Graphics/SVG/1.1/DTD/svg11.dtd">
<svg version="1.1" xmlns="http://www.w3.org/2000/svg" xmlns:xlink="http://www.w3.org/1999/xlink" width="109.717" height="105.452">
 <g>
  <rect height="105.452" opacity="0" width="109.717" x="0" y="0"/>
  <path d="M21.9429 90.4453L40.2671 90.4453C46.2759 90.4453 49.6792 86.9932 49.6792 80.8985L49.6792 9.62941C49.6792 3.53467 46.2759 0.0976562 40.2671 0.0976562L21.9429 0.0976562C15.9341 0.0976562 12.5308 3.53467 12.5308 9.62941L12.5308 80.8985C12.5308 86.9932 15.9341 90.4453 21.9429 90.4453ZM69.5933 90.4453L87.9175 90.4453C93.8926 90.4453 97.3448 86.9932 97.3448 80.8985L97.3448 43.0493C97.3448 36.9883 93.8926 33.5025 87.9175 33.5025L69.5933 33.5025C63.5845 33.5025 60.1475 36.9883 60.1475 43.0493L60.1475 80.8985C60.1475 86.9932 63.5845 90.4453 69.5933 90.4453Z" fill="#000000" fill-opacity="0.85"/>
  <path d="M2.67628 105.452L107.06 105.452C108.555 105.452 109.717 104.155 109.717 102.675C109.717 101.179 108.555 99.8638 107.06 99.8638L2.67628 99.8638C1.16211 99.8638 0 101.179 0 102.675C0 104.155 1.16211 105.452 2.67628 105.452Z" fill="#000000" fill-opacity="0.85"/>
 </g>
</svg>
