<?xml version="1.0" encoding="UTF-8"?>
<!--Generator: Apple Native CoreSVG 232.5-->
<!DOCTYPE svg
PUBLIC "-//W3C//DTD SVG 1.1//EN"
       "http://www.w3.org/Graphics/SVG/1.1/DTD/svg11.dtd">
<svg version="1.1" xmlns="http://www.w3.org/2000/svg" xmlns:xlink="http://www.w3.org/1999/xlink" width="109.717" height="105.452">
 <g>
  <rect height="105.452" opacity="0" width="109.717" x="0" y="0"/>
  <path d="M21.9429 105.452L40.2671 105.452C46.2759 105.452 49.6792 102 49.6792 95.9053L49.6792 24.6363C49.6792 18.5752 46.2759 15.0894 40.2671 15.0894L21.9429 15.0894C15.9341 15.0894 12.5308 18.5752 12.5308 24.6363L12.5308 95.9053C12.5308 102 15.9341 105.452 21.9429 105.452ZM69.5933 72.0323L87.9175 72.0323C93.8926 72.0323 97.3448 68.5801 97.3448 62.4854L97.3448 24.6363C97.3448 18.5752 93.8926 15.0894 87.9175 15.0894L69.5933 15.0894C63.5845 15.0894 60.1475 18.5752 60.1475 24.6363L60.1475 62.4854C60.1475 68.5801 63.5845 72.0323 69.5933 72.0323Z" fill="#000000" fill-opacity="0.85"/>
  <path d="M2.67628 5.68605L107.06 5.68605C108.555 5.68605 109.717 4.38917 109.717 2.9087C109.717 1.41309 108.555 0.0976562 107.06 0.0976562L2.67628 0.0976562C1.16211 0.0976562 0 1.41309 0 2.9087C0 4.38917 1.16211 5.68605 2.67628 5.68605Z" fill="#000000" fill-opacity="0.85"/>
 </g>
</svg>
