<?xml version="1.0" encoding="UTF-8"?>
<!--Generator: Apple Native CoreSVG 232.5-->
<!DOCTYPE svg
PUBLIC "-//W3C//DTD SVG 1.1//EN"
       "http://www.w3.org/Graphics/SVG/1.1/DTD/svg11.dtd">
<svg version="1.1" xmlns="http://www.w3.org/2000/svg" xmlns:xlink="http://www.w3.org/1999/xlink" width="100.01" height="89.6533">
 <g>
  <rect height="89.6533" opacity="0" width="100.01" x="0" y="0"/>
  <path d="M3.4546 89.6533L27.353 89.6533C31.189 89.6533 34.4473 87.4795 35.9561 84.0342L69.3647 9.1382C70.146 7.51173 71.5181 6.68849 73.5317 6.68849L96.5552 6.68849C98.4585 6.68849 100.01 5.17091 100.01 3.33497C100.01 1.48389 98.4585 0 96.5552 0L72.0762 0C67.9624 0 65.1807 1.81348 63.6011 5.38526L30.0762 80.3452C29.3286 82.0019 27.8472 82.9648 25.9985 82.9648L3.4546 82.9648C1.51758 82.9648 0 84.4487 0 86.3183C0 88.2031 1.51758 89.6533 3.4546 89.6533ZM62.6777 89.6533L96.5552 89.6533C98.4922 89.6533 99.9761 88.2368 99.9761 86.352C99.9761 84.4824 98.4922 83.0322 96.5552 83.0322L62.6777 83.0322C60.7256 83.0322 59.2231 84.4824 59.2231 86.352C59.2231 88.2368 60.7256 89.6533 62.6777 89.6533Z" fill="#000000" fill-opacity="0.85"/>
 </g>
</svg>
