<?xml version="1.0" encoding="UTF-8"?>
<!--Generator: Apple Native CoreSVG 232.5-->
<!DOCTYPE svg
PUBLIC "-//W3C//DTD SVG 1.1//EN"
       "http://www.w3.org/Graphics/SVG/1.1/DTD/svg11.dtd">
<svg version="1.1" xmlns="http://www.w3.org/2000/svg" xmlns:xlink="http://www.w3.org/1999/xlink" width="78.5908" height="120.753">
 <g>
  <rect height="120.753" opacity="0" width="78.5908" x="0" y="0"/>
  <path d="M39.2786 117.725C52.8093 117.725 64.991 103.018 64.991 87.081C64.991 77.0205 59.5252 72.2256 50.3914 70.0688L50.3914 69.5806C56.2019 66.7485 57.1297 56.7388 51.905 53.2231L51.905 52.7349C60.2547 51.27 64.405 46.1919 64.405 38.77C64.405 24.9028 52.9641 13.4282 39.2786 13.4282C25.6267 13.4282 14.1521 24.9028 14.1521 38.77C14.1521 46.1919 18.3362 51.27 26.7009 52.7349L26.7009 53.2231C21.4612 56.7388 22.3889 66.7485 28.1995 69.5806L28.1995 70.0688C19.1331 72.2256 13.5999 77.0205 13.5999 87.081C13.5999 103.018 25.7815 117.725 39.2786 117.725ZM39.2786 111.327C28.8416 111.327 19.8938 98.9502 19.8938 87.6675C19.8938 80.4131 24.3684 75.9282 32.2073 75.9282L46.3836 75.9282C54.2224 75.9282 58.6633 80.4131 58.6633 87.6675C58.6633 98.9502 49.7493 111.327 39.2786 111.327ZM29.0784 60.3755C29.0784 55.8984 31.8582 53.0684 36.3069 53.0684C38.2942 53.0684 40.3303 53.0684 42.3176 53.0684C46.7327 53.0684 49.4788 55.8984 49.4788 60.3755C49.4788 65.9536 45.4465 70.4595 40.364 70.4595C39.6404 70.4595 38.9168 70.4595 38.2268 70.4595C33.1443 70.4595 29.0784 65.9536 29.0784 60.3755ZM29.8538 47.0254C24.1951 47.0254 20.4529 43.6352 20.4529 38.5981C20.4529 28.4717 29.3269 19.7022 39.2786 19.7022C49.2302 19.7022 58.1379 28.4717 58.1379 38.5981C58.1379 43.6352 54.3621 47.0254 48.7371 47.0254ZM7.28199 114.05C9.09254 114.05 10.4534 112.738 10.1199 110.606L6.35866 86.3091C5.77956 82.8799 6.95631 81.168 10.5374 80.21L28.1995 75.6133L28.1995 70.0688L7.82837 74.9082C1.57495 76.4219-0.71997 79.5283 0.192628 85.2563L4.25708 110.961C4.53833 112.918 5.38892 114.05 7.28199 114.05ZM71.3089 114.05C73.2019 114.05 74.0188 112.918 74.3489 110.961L78.3982 85.2563C79.3108 79.5283 76.9822 76.4219 70.7625 74.9082L50.3914 70.0688L50.3914 75.6133L68.0535 80.21C71.6345 81.168 72.7776 82.8799 72.2322 86.3091L68.471 110.606C68.1375 112.738 69.4983 114.05 71.3089 114.05ZM26.5891 63.5425L26.5891 57.7773L12.9939 55.8174C9.39284 55.2837 7.64674 53.9521 7.64674 50.2734L7.64674 34.8472C7.64674 33.0029 6.55201 31.8442 4.70777 31.8442C2.84839 31.8442 1.7688 32.9238 1.7688 34.8472L1.7688 51.3936C1.7688 57.2935 4.42749 60.3936 10.6067 61.2388ZM52.0017 63.5425L67.9842 61.2388C74.1634 60.3936 76.822 57.2935 76.822 51.3936L76.822 34.8472C76.822 32.9238 75.7425 31.8442 73.8831 31.8442C72.0388 31.8442 70.9441 33.0029 70.9441 34.8472L70.9441 50.2734C70.9441 53.9521 69.1643 55.2837 65.5969 55.8174L52.0017 57.7773ZM24.6824 23.5327L28.0877 19.5679L24.7786 17.1514C22.095 15.1211 22.051 12.7017 23.9417 9.88818L27.7673 4.59278C28.2742 3.75245 28.4207 3.32471 28.4207 2.62745C28.4207 1.1167 27.2249 0 25.677 0C24.4963 0 23.6492 0.565919 22.8879 1.84766L18.9021 7.67382C15.7351 12.7305 16.2659 17.2905 20.8811 20.7842ZM53.8699 23.6572L57.8445 20.7842C62.4446 17.2905 62.9905 12.7305 59.8084 7.67382L55.8377 1.84766C55.0764 0.565919 54.2141 0 53.0486 0C51.4671 0 50.305 1.1167 50.305 2.62745C50.305 3.32471 50.4514 3.75245 50.9431 4.59278L54.7839 9.88818C56.6746 12.7017 56.6306 15.1211 53.9319 17.1514L50.4949 19.6772Z" fill="#000000" fill-opacity="0.85"/>
 </g>
</svg>
