<?xml version="1.0" encoding="UTF-8"?>
<!--Generator: Apple Native CoreSVG 232.5-->
<!DOCTYPE svg
PUBLIC "-//W3C//DTD SVG 1.1//EN"
       "http://www.w3.org/Graphics/SVG/1.1/DTD/svg11.dtd">
<svg version="1.1" xmlns="http://www.w3.org/2000/svg" xmlns:xlink="http://www.w3.org/1999/xlink" width="97.9595" height="97.9932">
 <g>
  <rect height="97.9932" opacity="0" width="97.9595" x="0" y="0"/>
  <path d="M97.9595 49.021C97.9595 75.8584 75.8247 97.9932 48.9722 97.9932C22.1685 97.9932 0 75.8584 0 49.021C0 22.2173 22.1348 0.0488281 48.9385 0.0488281C75.791 0.0488281 97.9595 22.2173 97.9595 49.021ZM54.8057 17.1582C54.8057 17.5859 54.9185 17.9463 55.1963 18.374L57.2295 21.2036C58.1016 22.5337 58.3189 23.6113 57.1758 24.4683L56.583 24.9297C54.315 23.5068 51.5181 22.6733 49.0059 22.6733C46.46 22.6733 43.6631 23.5068 41.4102 24.9297L40.8022 24.4683C39.708 23.6113 39.9253 22.5337 40.7974 21.2036L42.7817 18.374C43.0933 17.9463 43.1724 17.5859 43.1724 17.1582C43.1724 16.2168 42.4482 15.4741 41.4394 15.4741C40.6479 15.4741 40.0703 15.8193 39.6392 16.6328L37.5806 19.7051C35.7656 22.6333 36.1294 25.2568 38.6787 27.1611L38.8252 27.3076C36.4683 29.813 35.1113 33.2022 35.1113 36.7075C35.1113 40.8008 37.3457 43.5234 41.626 44.4478C41.1191 44.9209 40.6089 45.6416 40.3648 46.5239L34.7476 45.7241C32.9478 45.48 32.0283 44.8184 32.0283 42.978L32.0283 34.5962C32.0283 33.4072 31.3345 32.6982 30.2129 32.6982C29.0239 32.6982 28.3149 33.3921 28.3149 34.5962L28.3149 43.6299C28.3149 46.957 29.832 48.71 33.3291 49.1983L40.2065 50.1699C40.54 51.7778 41.4746 52.9883 42.4629 53.6279L31.7598 56.0899C28.2407 56.9536 26.9072 58.7754 27.4595 61.9829L29.6265 76.0103C29.8252 77.1992 30.4331 77.9302 31.5581 77.9302C32.7134 77.9302 33.5874 77.0073 33.3887 75.6987L31.375 62.5708C31.0669 60.8418 31.6191 60.0186 33.4258 59.5606C34.1211 59.3652 34.8652 59.1734 35.5942 58.9932C35.0557 60.0874 34.8032 61.4224 34.8032 62.9795C34.8032 71.7031 41.4321 79.856 49.0059 79.856C56.561 79.856 63.2085 71.7031 63.2085 62.9795C63.2085 61.4224 62.9712 60.0874 62.4175 58.9932C63.1128 59.1734 63.8721 59.3652 64.5859 59.5606C66.3926 60.0186 66.9111 60.8418 66.6519 62.5708L64.6045 75.6987C64.4058 77.0073 65.2647 77.9302 66.4536 77.9302C67.5938 77.9302 68.1865 77.1992 68.3667 76.0103L70.5674 61.9829C71.0894 58.7754 69.7373 56.9873 66.252 56.0899L55.5488 53.6279C56.4883 53.0674 57.438 51.793 57.8052 50.1699L64.6978 49.1983C68.1611 48.71 69.7119 46.957 69.7119 43.6299L69.7119 34.5962C69.7119 33.4072 69.0181 32.6982 67.7651 32.6982C66.6436 32.6982 65.9497 33.4072 65.9497 34.5962L65.9497 42.978C65.9497 44.8184 65.0454 45.4463 63.2305 45.7241L57.6284 46.5239C57.3843 45.6904 56.9077 44.936 56.4009 44.4629C60.6509 43.6025 62.8818 40.8462 62.8818 36.7075C62.8818 33.2022 61.5249 29.813 59.168 27.3076L59.2993 27.1611C61.8638 25.2568 62.2798 22.5996 60.4126 19.7051L58.354 16.6328C57.874 15.8379 57.3638 15.4741 56.5537 15.4741C55.5635 15.4741 54.8057 16.168 54.8057 17.1582Z" fill="#000000" fill-opacity="0.85"/>
 </g>
</svg>
