<?xml version="1.0" encoding="UTF-8"?>
<!--Generator: Apple Native CoreSVG 232.5-->
<!DOCTYPE svg
PUBLIC "-//W3C//DTD SVG 1.1//EN"
       "http://www.w3.org/Graphics/SVG/1.1/DTD/svg11.dtd">
<svg version="1.1" xmlns="http://www.w3.org/2000/svg" xmlns:xlink="http://www.w3.org/1999/xlink" width="78.5908" height="120.753">
 <g>
  <rect height="120.753" opacity="0" width="78.5908" x="0" y="0"/>
  <path d="M39.2786 117.725C52.8093 117.725 64.991 103.018 64.991 87.081C64.991 83.6826 64.2337 80.9624 62.6887 78.8296C64.4983 79.2959 66.2776 79.7437 68.0535 80.21C71.6345 81.168 72.7776 82.8799 72.2322 86.3091L68.471 110.606C68.1375 112.738 69.4983 114.05 71.3089 114.05C73.2019 114.05 74.0188 112.918 74.3489 110.961L78.3982 85.2563C79.3108 79.5283 76.9822 76.3882 70.7625 74.9082L50.1033 70.0688L50.0696 69.5806C52.5325 68.3887 54.0393 65.8267 54.4773 63.145L67.9842 61.2388C74.1634 60.3936 76.822 57.2935 76.822 51.3936L76.822 34.8472C76.822 32.9238 75.7425 31.8442 73.8831 31.8442C72.0388 31.8442 70.9441 33.0029 70.9441 34.8472L70.9441 50.2734C70.9441 53.9521 69.1643 55.3174 65.5969 55.8174L54.5213 57.3613C53.9993 55.6811 53.0227 54.1929 51.5681 53.2231L51.5681 52.7349C59.9329 51.27 64.405 46.1919 64.405 38.77C64.405 31.9751 61.6072 25.793 57.1931 21.3076L57.8445 20.7842C62.4446 17.2905 62.9905 12.7305 59.8084 7.67382L55.8377 1.84766C55.0764 0.565919 54.2141 0 53.0486 0C51.4671 0 50.305 1.1167 50.305 2.62745C50.305 3.32471 50.4514 3.75245 50.9431 4.59278L54.7839 9.88818C56.5735 12.5483 56.6643 14.8667 54.2537 16.897C53.9002 17.1865 53.5652 17.4575 53.1965 17.7134C49.1892 15.0244 44.3972 13.4282 39.2786 13.4282C34.2424 13.4282 29.469 15.0244 25.4802 17.6797C25.1267 17.4575 24.7581 17.1528 24.4231 16.8633C22.0613 14.8667 22.1184 12.5483 23.9417 9.88818L27.7673 4.59278C28.2742 3.75245 28.4207 3.32471 28.4207 2.62745C28.4207 1.1167 27.2249 0 25.677 0C24.4963 0 23.6492 0.565919 22.8879 1.84766L18.9021 7.67382C15.7351 12.7305 16.2659 17.2905 20.8811 20.7842L21.4651 21.2402C17.0173 25.7256 14.1521 31.9414 14.1521 38.77C14.1521 46.1919 18.6731 51.27 27.0227 52.7349L27.0227 53.2231C25.5344 54.1929 24.5916 55.6811 24.0696 57.3613L12.9939 55.8174C9.39284 55.3174 7.64674 53.9521 7.64674 50.2734L7.64674 34.8472C7.64674 33.0029 6.55201 31.8442 4.70777 31.8442C2.84839 31.8442 1.7688 32.9238 1.7688 34.8472L1.7688 51.3936C1.7688 57.2935 4.42749 60.3936 10.6067 61.2388L24.1135 63.145C24.5515 65.8267 26.0247 68.3887 28.5213 69.5806L28.5213 70.0688L7.82837 74.9082C1.57495 76.3882-0.71997 79.5283 0.192628 85.2563L4.25708 110.961C4.53833 112.918 5.38892 114.05 7.28199 114.05C9.09254 114.05 10.4534 112.738 10.1199 110.606L6.35866 86.3091C5.77956 82.8799 6.95631 81.168 10.5374 80.21C12.3132 79.7437 14.0925 79.2959 15.8684 78.8296C14.3572 80.9624 13.5999 83.6826 13.5999 87.081C13.5999 103.018 25.7815 117.725 39.2786 117.725Z" fill="#000000" fill-opacity="0.85"/>
 </g>
</svg>
