<?xml version="1.0" encoding="UTF-8"?>
<!--Generator: Apple Native CoreSVG 232.5-->
<!DOCTYPE svg
PUBLIC "-//W3C//DTD SVG 1.1//EN"
       "http://www.w3.org/Graphics/SVG/1.1/DTD/svg11.dtd">
<svg version="1.1" xmlns="http://www.w3.org/2000/svg" xmlns:xlink="http://www.w3.org/1999/xlink" width="97.9595" height="97.9932">
 <g>
  <rect height="97.9932" opacity="0" width="97.9595" x="0" y="0"/>
  <path d="M48.9722 97.9443C75.8247 97.9443 97.9595 75.7759 97.9595 48.9722C97.9595 22.1348 75.791 0 48.9385 0C22.1348 0 0 22.1348 0 48.9722C0 75.7759 22.1685 97.9443 48.9722 97.9443ZM48.9722 91.6113C25.3501 91.6113 6.36671 72.5942 6.36671 48.9722C6.36671 25.3501 25.3164 6.31789 48.9385 6.31789C72.5605 6.31789 91.6265 25.3501 91.6265 48.9722C91.6265 72.5942 72.5942 91.6113 48.9722 91.6113Z" fill="#000000" fill-opacity="0.85"/>
  <path d="M27.9009 61.6797L30.0156 75.3701C30.2144 76.5591 30.8071 77.2378 31.9136 77.2378C33.0352 77.2378 33.8755 76.3823 33.6768 75.0586L31.6968 62.2002C31.4224 60.5049 31.9409 59.749 33.7139 59.2759C34.4092 59.0806 35.1196 58.9038 35.8486 58.7085C35.3101 59.8027 35.0576 61.0703 35.0576 62.6426C35.0576 71.1641 41.5855 79.1821 48.9722 79.1821C56.374 79.1821 62.8867 71.1641 62.8867 62.6426C62.8867 61.0703 62.6494 59.8027 62.0957 58.7085C62.791 58.9038 63.5166 59.0806 64.2305 59.2759C66.0186 59.749 66.4883 60.5049 66.2627 62.2002L64.249 75.0586C64.0503 76.3823 64.8755 77.2378 66.0308 77.2378C67.1372 77.2378 67.7451 76.5591 67.9102 75.3701L70.0435 61.6797C70.5806 58.5396 69.2622 56.77 65.8443 55.9063L55.3955 53.4443C56.3013 52.9512 57.251 51.6768 57.5845 50.0874L64.3086 49.1494C67.7046 48.6611 69.2217 46.9419 69.2217 43.667L69.2217 34.8355C69.2217 33.7139 68.5615 32.9897 67.3574 32.9897C66.2207 32.9897 65.5606 33.7139 65.5606 34.8355L65.5606 43.064C65.5606 44.8706 64.6899 45.4985 62.9087 45.7427L57.4414 46.5425C57.1821 45.709 56.7056 44.9883 56.1987 44.5488C60.3628 43.6397 62.5601 40.9844 62.5601 36.9131C62.5601 33.4414 61.2368 30.1533 58.8984 27.7002L59.0449 27.5689C61.542 25.6831 61.958 23.0933 60.1094 20.2661L58.0508 17.2275C57.6196 16.4663 57.1094 16.0874 56.3179 16.0874C55.3765 16.0874 54.6187 16.7964 54.6187 17.7378C54.6187 18.1655 54.7315 18.5073 55.0093 18.9351L57.0274 21.6973C57.8657 23.0273 58.083 24.0713 56.9551 24.9282L56.3809 25.3897C54.1465 24.0005 51.4321 23.167 48.9722 23.167C46.4937 23.167 43.7642 24.0005 41.5298 25.3897L40.9707 24.9282C39.8613 24.0713 40.0786 23.0273 40.917 21.6973L42.9165 18.9351C43.228 18.5073 43.3071 18.1655 43.3071 17.7378C43.3071 16.8115 42.583 16.0874 41.5928 16.0874C40.8501 16.0874 40.2725 16.4326 39.8599 17.2275L37.8013 20.2661C36.0352 23.127 36.3838 25.6831 38.9146 27.5689L39.0122 27.7002C36.689 30.1533 35.3657 33.4414 35.3657 36.9131C35.3657 40.9053 37.5664 43.5942 41.7456 44.4849C41.2539 44.9243 40.7285 45.6939 40.5181 46.5425L35.0171 45.7427C33.2695 45.5322 32.3652 44.8706 32.3652 43.064L32.3652 34.8355C32.3652 33.7139 31.7236 32.9897 30.5684 32.9897C29.4131 32.9897 28.7227 33.6836 28.7227 34.8355L28.7227 43.667C28.7227 46.9419 30.2212 48.6611 33.6509 49.1494L40.375 50.0874C40.6748 51.6616 41.5942 52.8721 42.564 53.4443L32.1152 55.9063C28.6973 56.7363 27.3638 58.5396 27.9009 61.6797Z" fill="#000000" fill-opacity="0.85"/>
 </g>
</svg>
