<?xml version="1.0" encoding="UTF-8"?>
<!--Generator: Apple Native CoreSVG 232.5-->
<!DOCTYPE svg
PUBLIC "-//W3C//DTD SVG 1.1//EN"
       "http://www.w3.org/Graphics/SVG/1.1/DTD/svg11.dtd">
<svg version="1.1" xmlns="http://www.w3.org/2000/svg" xmlns:xlink="http://www.w3.org/1999/xlink" width="97.9595" height="97.9932">
 <g>
  <rect height="97.9932" opacity="0" width="97.9595" x="0" y="0"/>
  <path d="M97.9595 49.021C97.9595 75.8584 75.8247 97.9932 48.9722 97.9932C22.1685 97.9932 0 75.8584 0 49.021C0 22.2173 22.1348 0.0488281 48.9385 0.0488281C75.791 0.0488281 97.9595 22.2173 97.9595 49.021ZM43.6729 47.1792C43.6729 49.3193 44.9272 51.1177 46.7188 51.9277L46.7188 79.5005C46.7188 80.9438 47.6636 81.9712 48.9722 81.9712C50.3296 81.9712 51.2744 80.9775 51.2744 79.5005L51.2744 51.8941C53.0171 51.084 54.2866 49.3008 54.2866 47.1792C54.2866 44.2593 51.9409 41.9287 48.9722 41.9287C46.0523 41.9287 43.6729 44.2593 43.6729 47.1792ZM25.8706 26.9795C20.7202 32.4331 17.8613 39.626 17.8613 47.1792C17.8613 54.8638 20.6865 62.0078 25.8706 67.5103C26.898 68.6387 28.5064 68.7061 29.4512 67.5811C30.332 66.6177 30.231 65.2754 29.2036 64.061C24.9341 59.5522 22.604 53.6982 22.604 47.1792C22.604 40.7915 24.9341 34.855 29.2036 30.4287C30.2158 29.2632 30.332 27.8233 29.4849 26.8784C28.5215 25.75 26.898 25.7837 25.8706 26.9795ZM68.4746 26.8784C67.6274 27.8233 67.7437 29.2632 68.7744 30.4287C73.0439 34.855 75.374 40.7915 75.374 47.1792C75.374 53.6982 73.0439 59.5522 68.7744 64.061C67.7134 65.2754 67.6274 66.6177 68.5083 67.5811C69.4531 68.7061 71.0464 68.6387 72.0737 67.5103C77.273 62.0078 80.1318 54.8638 80.1318 47.1792C80.1318 39.626 77.2393 32.4331 72.0737 26.9795C71.0464 25.7837 69.438 25.75 68.4746 26.8784ZM34.4224 35.4722C31.6646 38.7017 30.0903 42.8823 30.0903 47.1792C30.0903 51.5737 31.6646 55.7578 34.4224 59.0176C35.3823 60.2319 37.1592 60.2505 38.1377 59.1709C38.9815 58.1621 38.8501 56.9395 37.7774 55.5938C35.8633 53.4185 34.833 50.5547 34.833 47.1792C34.833 44.1387 35.897 41.2715 37.8565 38.8018C38.8047 37.5503 38.9326 36.2637 38.1377 35.334C37.1104 34.1904 35.3823 34.2578 34.4224 35.4722ZM59.8218 35.334C59.0269 36.2637 59.1885 37.5503 60.1367 38.8018C62.0625 41.2715 63.1113 44.1387 63.1113 47.1792C63.1113 50.5547 62.0962 53.4185 60.1821 55.5938C59.1094 56.9395 58.9629 58.1621 59.8218 59.1709C60.7852 60.2505 62.5772 60.2319 63.5371 59.0176C66.2949 55.7578 67.8692 51.5737 67.8692 47.1792C67.8692 42.8823 66.2949 38.7017 63.5371 35.4722C62.5772 34.2578 60.8491 34.1904 59.8218 35.334Z" fill="#000000" fill-opacity="0.85"/>
 </g>
</svg>
