<?xml version="1.0" encoding="UTF-8"?>
<!--Generator: Apple Native CoreSVG 232.5-->
<!DOCTYPE svg
PUBLIC "-//W3C//DTD SVG 1.1//EN"
       "http://www.w3.org/Graphics/SVG/1.1/DTD/svg11.dtd">
<svg version="1.1" xmlns="http://www.w3.org/2000/svg" xmlns:xlink="http://www.w3.org/1999/xlink" width="88.0713" height="88.1201">
 <g>
  <rect height="88.1201" opacity="0" width="88.0713" x="0" y="0"/>
  <path d="M82.6309 5.48926C78.0894 0.978026 71.7998 0 62.9356 0L24.8228 0C16.3169 0 9.98194 0.993162 5.47071 5.51953C0.944334 10.0308 0 16.2866 0 24.8228L0 62.9356C0 71.8149 0.929198 78.0859 5.44043 82.5669C9.98194 87.0933 16.2715 88.0713 25.1021 88.0713L62.9356 88.0713C71.7998 88.0713 78.1196 87.0933 82.6309 82.5669C87.1421 78.0557 88.0713 71.8149 88.0713 62.9356L88.0713 25.1021C88.0713 16.2227 87.1421 9.98536 82.6309 5.48926ZM82.0415 23.7988L82.0415 64.2573C82.0415 70.0435 81.1494 75.147 78.1709 78.1069C75.1958 81.1309 70.0283 82.0415 64.2725 82.0415L23.814 82.0415C18.0581 82.0415 12.8755 81.1157 9.86671 78.1069C6.90675 75.147 6.04494 70.0435 6.04494 64.2573L6.04494 24.1118C6.04494 18.0733 6.90675 12.9092 9.85157 9.9004C12.8604 6.91017 18.1221 6.0298 24.1118 6.0298L64.2725 6.0298C70.0283 6.0298 75.1958 6.95558 78.1709 9.94923C81.1797 12.9243 82.0415 18.0278 82.0415 23.7988Z" fill="#000000" fill-opacity="0.85"/>
 </g>
</svg>
