<?xml version="1.0" encoding="UTF-8"?>
<!--Generator: Apple Native CoreSVG 232.5-->
<!DOCTYPE svg
PUBLIC "-//W3C//DTD SVG 1.1//EN"
       "http://www.w3.org/Graphics/SVG/1.1/DTD/svg11.dtd">
<svg version="1.1" xmlns="http://www.w3.org/2000/svg" xmlns:xlink="http://www.w3.org/1999/xlink" width="84.3652" height="103.665">
 <g>
  <rect height="103.665" opacity="0" width="84.3652" x="0" y="0"/>
  <path d="M17.917 32.4351C17.917 38.582 22.2222 43.0571 30.3965 45.4395L55.729 52.8271C66.6992 55.9741 72.4058 62.4165 72.4058 71.543L72.4058 73.6304L66.376 73.6304L66.376 71.543C66.376 65.3809 62.1045 60.9732 53.8965 58.5723L28.564 51.1695C17.5938 48.0376 11.8721 41.5952 11.8721 32.4351L11.8721 30.2988L17.917 30.2988Z" fill="#000000" fill-opacity="0.85"/>
  <path d="M28.2144 2.1333C26.6196 0.568846 24.4136 0.230467 21.4048 0.230467L8.59962 0.230467C5.68506 0.230467 3.47901 0.568846 1.88428 2.1333C0.304687 3.72803 0 5.88526 0 8.81495L0 21.605C0 24.6289 0.304687 26.835 1.88428 28.3809C3.47901 29.9605 5.66993 30.2988 8.69385 30.2988L21.4048 30.2988C24.4136 30.2988 26.6196 29.9605 28.2144 28.3809C29.7603 26.835 30.0684 24.6289 30.0684 21.605L30.0684 8.90918C30.0684 5.88526 29.7603 3.71289 28.2144 2.1333ZM82.5298 75.5332C80.9351 73.9688 78.729 73.6304 75.7354 73.6304L62.915 73.6304C60.0156 73.6304 57.8096 73.9688 56.2148 75.5332C54.6353 77.1279 54.3306 79.2852 54.3306 82.2149L54.3306 95.0049C54.3306 98.0288 54.6353 100.235 56.2148 101.781C57.8096 103.36 59.9854 103.665 62.9756 103.665L75.7354 103.665C78.729 103.665 80.9351 103.36 82.5298 101.781C84.0757 100.235 84.3652 98.0288 84.3652 95.0049L84.3652 82.2754C84.3652 79.2852 84.0757 77.1128 82.5298 75.5332Z" fill="#000000" fill-opacity="0.85"/>
 </g>
</svg>
