<?xml version="1.0" encoding="UTF-8"?>
<!--Generator: Apple Native CoreSVG 232.5-->
<!DOCTYPE svg
PUBLIC "-//W3C//DTD SVG 1.1//EN"
       "http://www.w3.org/Graphics/SVG/1.1/DTD/svg11.dtd">
<svg version="1.1" xmlns="http://www.w3.org/2000/svg" xmlns:xlink="http://www.w3.org/1999/xlink" width="86.4522" height="86.5498">
 <g>
  <rect height="86.5498" opacity="0" width="86.4522" x="0" y="0"/>
  <path d="M6.74365 6.75879C2.78223 10.7354 0.550783 16.5288 0.434572 21.4785C0.40088 22.8208 1.1958 23.7959 2.53467 23.7959C3.75733 23.7959 4.56739 23.0566 4.7544 21.834C5.30519 17.4263 6.52101 13.1909 9.80714 9.83741C13.3965 6.36427 17.396 5.37257 21.9873 4.71729C23.1274 4.49659 23.8667 3.68995 23.8667 2.61719C23.8667 1.35742 22.9253 0.449708 21.6167 0.449708C16.8843 0.513673 10.9072 2.62549 6.74365 6.75879ZM55.9961 0L30.4561 0C29.2637 0 28.2549 1.02735 28.2549 2.23487C28.2549 3.44239 29.2637 4.46973 30.4561 4.46973L55.9961 4.46973C57.2036 4.46973 58.1973 3.44239 58.1973 2.23487C58.1973 1.02735 57.2036 0 55.9961 0ZM79.6748 6.75879C75.5449 2.62549 69.5679 0.513673 64.8355 0.449708C63.4932 0.449708 62.5855 1.35742 62.5855 2.61719C62.5855 3.68995 63.291 4.49659 64.4312 4.71729C68.9365 5.33888 73.022 6.33058 76.645 9.83741C79.9311 13.1909 81.1133 17.4263 81.6978 21.834C81.8848 23.0566 82.6763 23.7959 83.9175 23.7959C85.2227 23.7959 86.0513 22.8208 86.0176 21.4785C85.9014 16.5288 83.6699 10.7354 79.6748 6.75879ZM86.4522 56.0938L86.4522 30.4746C86.4522 29.2671 85.4248 28.2734 84.2173 28.2734C83.0249 28.2734 82.0312 29.2671 82.0312 30.4746L82.0312 56.0938C82.0312 57.2861 83.0249 58.3135 84.2173 58.3135C85.4248 58.3135 86.4522 57.2861 86.4522 56.0938ZM79.6748 79.7271C83.6699 75.7505 85.9014 69.957 86.0176 65.0225C86.0513 63.6314 85.2227 62.7051 83.9175 62.7051C82.6763 62.7051 81.8848 63.4107 81.6978 64.667C81.1133 69.0747 79.9311 73.2764 76.645 76.6484C73.0557 80.103 69.0225 81.1133 64.4312 81.75C63.291 81.9707 62.5855 82.811 62.5855 83.8687C62.5855 85.1436 63.4932 86.0024 64.8355 86.0024C69.5679 85.9873 75.5449 83.8755 79.6748 79.7271ZM30.4561 86.4522L55.9961 86.4522C57.2036 86.4522 58.1973 85.4585 58.1973 84.2661C58.1973 83.0586 57.2036 82.0312 55.9961 82.0312L30.4561 82.0312C29.2637 82.0312 28.2549 83.0586 28.2549 84.2661C28.2549 85.4585 29.2637 86.4522 30.4561 86.4522ZM6.74365 79.7271C10.9072 83.8755 16.8843 85.9873 21.6167 86.0024C22.9253 86.0024 23.8667 85.1436 23.8667 83.8687C23.8667 82.811 23.1274 81.9707 21.9873 81.75C17.4819 81.147 13.4302 80.1367 9.80714 76.6484C6.52101 73.2764 5.30519 69.0747 4.7544 64.667C4.56739 63.4107 3.75733 62.7051 2.53467 62.7051C1.1958 62.7051 0.40088 63.6314 0.434572 65.0225C0.550783 69.957 2.78223 75.7505 6.74365 79.7271ZM0 30.4746L0 56.0938C0 57.2861 0.993654 58.3135 2.23487 58.3135C3.42725 58.3135 4.42091 57.2861 4.42091 56.0938L4.42091 30.4746C4.42091 29.2671 3.42725 28.2734 2.23487 28.2734C0.993654 28.2734 0 29.2671 0 30.4746Z" fill="#000000" fill-opacity="0.85"/>
  <path d="M29.5449 75.1865L56.9072 75.1865C63.3403 75.1865 67.9038 74.4492 71.169 71.2178C74.4981 67.8887 75.1377 63.3706 75.1377 56.9072L75.1377 29.5449C75.1377 23.0967 74.4981 18.5972 71.169 15.3169C67.9038 12.0366 63.3403 11.3145 56.9072 11.3145L29.311 11.3145C23.127 11.3145 18.5483 12.0669 15.2832 15.332C12.0029 18.6123 11.3145 23.1758 11.3145 29.311L11.3145 56.9072C11.3145 63.3706 11.9878 67.9038 15.2832 71.2178C18.5483 74.4492 23.1118 75.1865 29.5449 75.1865Z" fill="#000000" fill-opacity="0.85"/>
 </g>
</svg>
