<?xml version="1.0" encoding="UTF-8"?>
<!--Generator: Apple Native CoreSVG 232.5-->
<!DOCTYPE svg
PUBLIC "-//W3C//DTD SVG 1.1//EN"
       "http://www.w3.org/Graphics/SVG/1.1/DTD/svg11.dtd">
<svg version="1.1" xmlns="http://www.w3.org/2000/svg" xmlns:xlink="http://www.w3.org/1999/xlink" width="103.439" height="99.667">
 <g>
  <rect height="99.667" opacity="0" width="103.439" x="0" y="0"/>
  <path d="M68.0137 4.12403L69.8672 10.0332C70.7832 13.0288 72.0884 14.457 74.6075 15.7974C80.0434 18.8399 82.8401 24.0617 82.8456 31.5718L83.4844 31.5718C85.8116 31.5718 87.3506 33.19 87.3506 35.7158L87.3506 42.459C87.3506 45.0303 85.8116 46.6333 83.4844 46.6333L82.8462 46.6333L82.8462 68.1011C82.8462 75.6089 80.0494 80.8726 74.6075 83.8848C72.0884 85.2251 70.7832 86.6534 69.8672 89.6827L68.0137 95.5581C67.2071 98.3384 65.3531 99.667 62.4077 99.667L40.7573 99.667C37.8945 99.667 35.9395 98.3047 35.1177 95.5581L33.3281 89.6827C32.3819 86.6534 31.0767 85.2251 28.5576 83.8848C23.1157 80.8726 20.3189 75.6089 20.3189 68.1011L20.3189 58.1758L25.8736 58.1758L25.8736 67.3784C25.8736 75.3467 30.5908 80.1499 38.4917 80.1499L64.6885 80.1499C72.6045 80.1499 77.2915 75.3467 77.2915 67.3784L77.2915 32.3525C77.2915 24.3506 72.6045 19.5322 64.6885 19.5322L38.4917 19.5322C30.5908 19.5322 25.8736 24.3506 25.8736 32.3525L25.8736 41.375L20.3189 41.375L20.3189 31.5962C20.3189 24.0059 23.1494 18.7422 28.5576 15.7974C31.1104 14.4907 32.4155 12.9951 33.3281 10.0332L35.1177 4.12403C35.9395 1.37744 37.8945 0.0151366 40.7573 0.0151366L62.4077 0.0151366C65.3194 0.0151366 67.2744 1.41113 68.0137 4.12403Z" fill="#000000" fill-opacity="0.85"/>
  <path d="M8.4341 52.4854L41.8423 52.4854L48.9585 52.1636L38.2837 62.0366L35.6944 64.6411C35.1807 65.1734 34.8809 65.8892 34.8809 66.6724C34.8809 68.2168 36.0093 69.2964 37.5049 69.2964C38.2881 69.2964 38.9702 69.0303 39.5025 68.4829L56.2613 51.7578C56.8946 51.1245 57.2281 50.4238 57.2281 49.7754C57.2281 49.1421 56.8946 48.3589 56.2613 47.7593L39.5025 31.0679C38.9702 30.5205 38.2881 30.2207 37.5049 30.2207C36.0093 30.2207 34.8809 31.3003 34.8809 32.8784C34.8809 33.6616 35.1807 34.3775 35.6944 34.9097L38.2837 37.5142L48.9585 47.3535L41.8423 47.0318L8.4341 47.0318C6.75147 47.0318 5.65675 48.3472 5.65675 49.7754C5.65675 51.2036 6.75147 52.4854 8.4341 52.4854Z" fill="#000000" fill-opacity="0.85"/>
 </g>
</svg>
