<?xml version="1.0" encoding="UTF-8"?>
<!--Generator: Apple Native CoreSVG 232.5-->
<!DOCTYPE svg
PUBLIC "-//W3C//DTD SVG 1.1//EN"
       "http://www.w3.org/Graphics/SVG/1.1/DTD/svg11.dtd">
<svg version="1.1" xmlns="http://www.w3.org/2000/svg" xmlns:xlink="http://www.w3.org/1999/xlink" width="92.5977" height="99.9541">
 <g>
  <rect height="99.9541" opacity="0" width="92.5977" x="0" y="0"/>
  <path d="M47.1558 99.8902C72.2593 99.8902 92.5977 77.5464 92.5977 49.9526C92.5977 22.3589 72.2593 0 47.1558 0C33.6367 0 21.1602 6.54981 12.7178 17.4014C12.0508 18.2183 11.7998 19.0015 11.7998 19.7358C11.7998 21.3511 13.25 22.5132 14.8467 22.5132C15.7612 22.5132 16.7246 22.1157 17.4219 21.2046C24.7173 11.7139 35.5366 6.06007 47.1558 6.06007C68.9092 6.06007 86.5039 25.6904 86.5039 49.9526C86.5039 74.1997 68.9092 93.8301 47.1558 93.8301C35.5366 93.8301 24.7173 88.1426 17.4219 78.6856C16.7246 77.7744 15.7612 77.3921 14.8467 77.3921C13.25 77.3921 11.7998 78.5239 11.7998 80.1543C11.7998 80.8701 12.0508 81.687 12.7178 82.5039C21.1602 93.3555 33.6367 99.8902 47.1558 99.8902Z" fill="#000000" fill-opacity="0.425"/>
  <path d="M0 75.3008C0 81.502 5.41601 86.1426 11.1543 85.5879C9.56152 83.6499 8.5835 81.9155 8.5835 80.2217C8.5835 76.835 11.7075 74.1758 14.978 74.1758C17.7515 74.1758 18.8902 75.6021 20.8652 77.9561C21.0757 77.0923 21.1734 76.2134 21.1734 75.3008L21.1734 24.5557C21.1734 23.6582 21.0757 22.813 20.8652 21.9492C19.0029 24.1416 17.8189 25.6958 15.0117 25.6958C11.7075 25.6958 8.5835 23.0552 8.5835 19.6836C8.5835 18.0352 9.50097 16.3496 11.1543 14.3023C5.49511 13.7778 0 18.3242 0 24.5557ZM10.6524 48.7881C6.62452 48.7881 3.37793 45.6055 3.37793 41.6265C3.37793 37.6138 6.62452 34.4009 10.6524 34.4009C14.5337 34.4009 17.7954 37.6626 17.7954 41.6265C17.7954 45.5752 14.5674 48.7881 10.6524 48.7881ZM10.6524 45.5664C12.8496 45.5664 14.5737 43.8726 14.5737 41.6265C14.5737 39.3501 12.8496 37.6226 10.6524 37.6226C8.3086 37.6226 6.59962 39.3501 6.59962 41.6265C6.59962 43.8726 8.3086 45.5664 10.6524 45.5664Z" fill="#000000" fill-opacity="0.85"/>
 </g>
</svg>
