<?xml version="1.0" encoding="UTF-8"?>
<!--Generator: Apple Native CoreSVG 232.5-->
<!DOCTYPE svg
PUBLIC "-//W3C//DTD SVG 1.1//EN"
       "http://www.w3.org/Graphics/SVG/1.1/DTD/svg11.dtd">
<svg version="1.1" xmlns="http://www.w3.org/2000/svg" xmlns:xlink="http://www.w3.org/1999/xlink" width="95.5571" height="95.4307">
 <g>
  <rect height="95.4307" opacity="0" width="95.5571" x="0" y="0"/>
  <path d="M90.1016 5.63233C94.6279 10.1284 95.5571 16.3506 95.5571 25.23L95.5571 70.2949C95.5571 79.1743 94.6279 85.415 90.1016 89.9263C85.5903 94.4375 79.2705 95.4307 70.4214 95.4307L25.1021 95.4307C16.2715 95.4307 9.98194 94.4375 5.44043 89.9263C0.929198 85.4302 0 79.1743 0 70.2949L0 24.9658C0 16.4297 0.944334 10.1738 5.47071 5.64746C9.98194 1.13623 16.3169 0.127929 24.8228 0.127929L70.4214 0.127929C79.2705 0.127929 85.5752 1.12109 90.1016 5.63233ZM25.4253 39.3916C24.1221 39.3916 22.7026 37.8442 20.231 37.8442C17.5606 37.8442 15.4121 38.9185 13.9961 40.7588C12.2871 42.8281 11.6035 45.3823 11.6035 48.0527C11.6035 52.4321 13.5684 57.4985 16.4038 60.7363C17.8906 62.4116 19.0591 63.2603 20.4565 63.2603C22.4771 63.2603 23.6001 61.7769 26.0752 61.7769C27.1191 61.7769 28.0772 62.2163 28.6665 62.4116C29.707 62.7837 30.3906 63.1777 31.5625 63.1777C32.8169 63.1777 33.7783 62.6895 34.4468 62.0884C36.6255 59.9668 38.3682 56.9092 39.1006 54.3213C37.1475 53.4727 35.9419 52.2065 35.2095 50.415C34.4468 48.4434 34.6353 46.4414 35.2095 44.7173C35.5698 43.5757 36.3477 42.1748 38.2705 41.0518C36.8208 38.8394 34.541 37.7803 31.8218 37.7803C28.7607 37.7803 26.9878 39.3916 25.4253 39.3916ZM47.6152 31.8535L47.6152 37.7803L44.0322 37.7803L44.0322 41.769L47.6152 41.769L47.6152 56.3081C47.6152 61.3711 49.6172 63.1777 54.7441 63.1777C55.8672 63.1777 57.1216 63.0464 57.5156 62.9824L57.5156 58.7495C57.3018 58.896 56.3892 58.896 55.8672 58.896C53.8164 58.896 52.8096 58.0322 52.8096 55.7524L52.8096 41.769L57.6284 41.769L57.6284 37.7803L52.8096 37.7803L52.8096 31.8535ZM59.9873 37.7803L69.2344 62.9824L74.688 62.9824L83.7886 37.7803L78.1397 37.7803L71.9722 58.0322L65.4898 37.7803ZM25.2451 36.9502C29.3164 37.3897 32.4902 32.9312 32.1973 29.3633C28.1597 29.5586 25.1626 33.1719 25.2451 36.9502Z" fill="#000000" fill-opacity="0.85"/>
 </g>
</svg>
