<?xml version="1.0" encoding="UTF-8"?>
<!--Generator: Apple Native CoreSVG 232.5-->
<!DOCTYPE svg
PUBLIC "-//W3C//DTD SVG 1.1//EN"
       "http://www.w3.org/Graphics/SVG/1.1/DTD/svg11.dtd">
<svg version="1.1" xmlns="http://www.w3.org/2000/svg" xmlns:xlink="http://www.w3.org/1999/xlink" width="77.1639" height="117.896">
 <g>
  <rect height="117.896" opacity="0" width="77.1639" x="0" y="0"/>
  <path d="M71.8828 81.1748C79.4262 73.6128 78.8925 64.8501 70.2563 56.2627L52.4531 38.3804L28.1694 62.7466C24.6254 66.2266 19.371 63.4502 20.6171 58.647C21.104 57.106 21.2016 55.2368 21.2016 53.6065C21.2016 46.6045 16.5707 42.4912 10.8984 42.4761C4.018 42.4121 0.00579862 46.9097 0.00579862 52.2842C0.00579862 56.6714 2.79485 60.606 5.67718 63.4395L35.2949 93.042C40.0859 97.8027 42.5478 101.226 42.5478 106.724C42.5478 108.387 42.2954 109.838 41.5058 111.496C43.0078 110.163 44.3261 108.878 45.6259 107.563ZM26.0175 117.828C32.1445 117.828 36.8959 113.171 36.8808 107.266C36.8505 103.407 35.1938 100.92 30.7612 96.4536L25.3471 90.9907C18.7392 95.6558 14.6035 100.049 14.6035 106.944C14.6035 113.193 19.5131 117.828 26.0175 117.828ZM10.8984 36.7856C19.9287 36.7856 26.08 43.1201 26.08 51.2529C26.08 51.6147 26.08 52.5688 25.9404 53.1645C25.8007 54.9189 27.6225 55.2808 28.4155 54.4878L57.8491 25.0693C60.6996 22.2036 62.2621 18.6055 62.311 14.854C62.3564 6.13867 55.6801 0 48.0126 0C42.5654 0 38.6166 2.42822 34.1513 6.89356L1.42231 39.604C4.30317 37.853 7.52582 36.7856 10.8984 36.7856Z" fill="#000000" fill-opacity="0.85"/>
 </g>
</svg>
