<?xml version="1.0" encoding="UTF-8"?>
<!--Generator: Apple Native CoreSVG 232.5-->
<!DOCTYPE svg
PUBLIC "-//W3C//DTD SVG 1.1//EN"
       "http://www.w3.org/Graphics/SVG/1.1/DTD/svg11.dtd">
<svg version="1.1" xmlns="http://www.w3.org/2000/svg" xmlns:xlink="http://www.w3.org/1999/xlink" width="46.29" height="107.519">
 <g>
  <rect height="107.519" opacity="0" width="46.29" x="0" y="0"/>
  <path d="M0 97.1631C0 103.533 3.9336 107.347 10.5728 107.347L35.7173 107.347C42.3076 107.347 46.29 103.533 46.29 97.1631L46.29 10.1836C46.29 3.84766 42.3076 0 35.7173 0L10.5728 0C3.9336 0 0 3.84766 0 10.1836ZM14.3374 61.3921C10.9077 61.3921 8.14307 58.6274 8.14307 55.292C8.14307 51.8623 10.9077 49.1313 14.3374 49.1313C17.7368 49.1313 20.4189 51.8623 20.4189 55.292C20.4189 58.6274 17.7368 61.3921 14.3374 61.3921ZM32.0503 61.3921C28.5869 61.3921 25.856 58.6274 25.856 55.292C25.856 51.8623 28.5869 49.1313 32.0503 49.1313C35.4009 49.1313 38.1318 51.8623 38.1318 55.292C38.1318 58.6274 35.4009 61.3921 32.0503 61.3921ZM23.145 42.6392C14.5898 42.6392 7.49951 35.6011 7.49951 26.9785C7.49951 18.3408 14.5898 11.3179 23.145 11.3179C31.749 11.3179 38.7905 18.3408 38.7905 26.9785C38.7905 35.6011 31.749 42.6392 23.145 42.6392ZM23.1939 33.2842C26.7129 33.2842 29.5181 30.4824 29.5181 26.9785C29.5181 23.4897 26.7129 20.6543 23.1939 20.6543C19.6899 20.6543 16.8359 23.4897 16.8359 26.9785C16.8359 30.4824 19.6899 33.2842 23.1939 33.2842Z" fill="#000000" fill-opacity="0.85"/>
 </g>
</svg>
