<?xml version="1.0" encoding="UTF-8"?>
<!--Generator: Apple Native CoreSVG 232.5-->
<!DOCTYPE svg
PUBLIC "-//W3C//DTD SVG 1.1//EN"
       "http://www.w3.org/Graphics/SVG/1.1/DTD/svg11.dtd">
<svg version="1.1" xmlns="http://www.w3.org/2000/svg" xmlns:xlink="http://www.w3.org/1999/xlink" width="100.557" height="59.6094">
 <g>
  <rect height="59.6094" opacity="0" width="100.557" x="0" y="0"/>
  <path d="M12.3169 59.5269L88.1763 59.5269C95.8086 59.5269 100.557 54.6704 100.557 46.8023L100.557 12.6758C100.557 4.82276 95.8726 0 88.2403 0L12.3809 0C4.7334 0 0.0151366 4.82276 0.0151366 12.6758L0 46.8023C0 54.6704 4.68457 59.5269 12.3169 59.5269ZM13.1626 53.4971C8.42384 53.4971 6.06007 50.9868 6.06007 46.1284L6.06007 13.3984C6.06007 8.54005 8.43898 6.0298 13.1626 6.0298L87.3945 6.0298C92.1333 6.0298 94.5122 8.54005 94.5122 13.3984L94.4971 46.1284C94.4971 50.9868 92.1182 53.4971 87.3457 53.4971Z" fill="#000000" fill-opacity="0.85"/>
  <path d="M15.6631 21.5586L20.2783 21.5586C21.2886 21.5586 22.021 20.8413 22.021 19.7974L22.021 15.2984C22.021 14.1904 21.3037 13.4243 20.2783 13.4243L15.6631 13.4243C14.6528 13.4243 13.9053 14.1904 13.9053 15.2984L13.9053 19.7974C13.9053 20.8413 14.6226 21.5586 15.6631 21.5586ZM28.6719 21.5586L33.2383 21.5586C34.2637 21.5586 35.0298 20.8413 35.0298 19.7974L35.0298 15.2984C35.0298 14.1904 34.3125 13.4243 33.2383 13.4243L28.6719 13.4243C27.6128 13.4243 26.8804 14.1904 26.8804 15.2984L26.8804 19.7974C26.8804 20.8413 27.5977 21.5586 28.6719 21.5586ZM41.6318 21.5586L46.2134 21.5586C47.2573 21.5586 48.0049 20.8413 48.0049 19.7974L48.0049 15.2984C48.0049 14.1904 47.2876 13.4243 46.2134 13.4243L41.6318 13.4243C40.5879 13.4243 39.8555 14.1904 39.8555 15.2984L39.8555 19.7974C39.8555 20.8413 40.5728 21.5586 41.6318 21.5586ZM54.5918 21.5586L59.2373 21.5586C60.2627 21.5586 60.98 20.8413 60.98 19.7974L60.98 15.2984C60.98 14.1904 60.2627 13.4243 59.2373 13.4243L54.6069 13.4243C53.5967 13.4243 52.8794 14.1904 52.8794 15.2984L52.8794 19.7974C52.8794 20.8413 53.5967 21.5586 54.5918 21.5586ZM15.6631 33.8701L20.2783 33.8701C21.2886 33.8701 22.021 33.1528 22.021 32.1089L22.021 27.6099C22.021 26.5171 21.3037 25.751 20.2783 25.751L15.6631 25.751C14.6528 25.751 13.9053 26.5171 13.9053 27.6099L13.9053 32.1089C13.9053 33.1528 14.6226 33.8701 15.6631 33.8701ZM28.6719 33.8701L33.2383 33.8701C34.2637 33.8701 35.0298 33.1528 35.0298 32.1089L35.0298 27.6099C35.0298 26.5171 34.3125 25.751 33.2383 25.751L28.6719 25.751C27.6128 25.751 26.8804 26.5171 26.8804 27.6099L26.8804 32.1089C26.8804 33.1528 27.5977 33.8701 28.6719 33.8701ZM41.6655 33.8701L46.2134 33.8701C47.291 33.8701 48.0083 33.1528 48.0386 32.1089L48.0386 27.6099C48.0386 26.5171 47.3213 25.751 46.2134 25.751L41.6655 25.751C40.5879 25.751 39.8706 26.5171 39.8555 27.6099L39.8555 32.1089C39.8706 33.1528 40.5728 33.8701 41.6655 33.8701ZM81.0142 21.5586L85.5957 21.5586C86.6548 21.5586 87.3721 20.8413 87.3721 19.7974L87.3721 15.2984C87.3721 14.1904 86.6548 13.4243 85.6445 13.4243L80.999 13.4243C80.0039 13.4243 79.2866 14.1904 79.2866 15.2984L79.2866 19.7974C79.2866 20.8413 79.94 21.5586 81.0142 21.5586ZM80.999 33.8701L85.6445 33.8701C86.6548 33.8701 87.3721 33.1528 87.3721 32.1089L87.3721 27.6099C87.3721 26.5171 86.6548 25.751 85.6445 25.751L81.0142 25.751C80.0039 25.751 79.2866 26.5171 79.2866 27.6099L79.2866 32.1089C79.2866 33.1528 80.0039 33.8701 80.999 33.8701ZM80.999 46.1631L85.5957 46.1631C86.6548 46.1631 87.3721 45.4458 87.3721 44.4204L87.3721 39.9365C87.3721 38.8286 86.6548 38.0625 85.6445 38.0625L81.0142 38.0625C80.0039 38.0625 79.2866 38.8286 79.2866 39.9365L79.2866 44.4204C79.2866 45.4458 80.0039 46.1631 80.999 46.1631Z" fill="#000000" fill-opacity="0.85"/>
 </g>
</svg>
