<?xml version="1.0" encoding="UTF-8"?>
<!--Generator: Apple Native CoreSVG 232.5-->
<!DOCTYPE svg
PUBLIC "-//W3C//DTD SVG 1.1//EN"
       "http://www.w3.org/Graphics/SVG/1.1/DTD/svg11.dtd">
<svg version="1.1" xmlns="http://www.w3.org/2000/svg" xmlns:xlink="http://www.w3.org/1999/xlink" width="59.5083" height="100.561">
 <g>
  <rect height="100.561" opacity="0" width="59.5083" x="0" y="0"/>
  <path d="M12.6909 100.493L46.8174 100.493C54.6704 100.493 59.5083 95.8086 59.5083 88.1763L59.5083 12.3169C59.5083 4.68457 54.6704 0 46.8174 0L12.6909 0C4.82276 0 0 4.68457 0 12.3169L0 88.1763C0 95.8086 4.82276 100.493 12.6909 100.493ZM13.4136 94.4634C8.50636 94.4634 6.04494 92.0845 6.04494 87.3457L6.04494 13.1626C6.04494 8.42384 8.50636 6.0298 13.4136 6.0298L46.1284 6.0298C51.002 6.0298 53.4634 8.42384 53.4634 13.1626L53.4634 87.3457C53.4634 92.0845 51.002 94.4634 46.1284 94.4634Z" fill="#000000" fill-opacity="0.85"/>
  <path d="M15.1065 87.3233L19.5903 87.3233C20.6646 87.3233 21.4644 86.606 21.4644 85.5957L21.4644 80.9653C21.4644 79.94 20.6646 79.2227 19.5903 79.2227L15.1065 79.2227C14.0474 79.2227 13.3301 79.94 13.3301 80.9653L13.3301 85.5957C13.3301 86.606 14.0474 87.3233 15.1065 87.3233ZM27.3843 87.3233L31.917 87.3233C32.9761 87.3233 33.791 86.606 33.791 85.5957L33.791 80.9653C33.791 79.94 32.9761 79.2227 31.917 79.2227L27.3843 79.2227C26.374 79.2227 25.6568 79.94 25.6568 80.9653L25.6568 85.5957C25.6568 86.606 26.374 87.3233 27.3843 87.3233ZM39.711 87.3233L44.1948 87.3233C45.3027 87.3233 46.0689 86.606 46.0689 85.5957L46.0689 80.9653C46.0689 79.94 45.3027 79.2227 44.1948 79.2227L39.711 79.2227C38.6856 79.2227 37.9683 79.94 37.9683 80.9653L37.9683 85.5957C37.9683 86.606 38.6856 87.3233 39.711 87.3233ZM15.1065 47.9746L19.5903 47.9746C20.6646 47.9746 21.4644 47.2573 21.4644 46.2134L21.4644 41.6167C21.4644 40.5728 20.6646 39.8555 19.5903 39.8555L15.1065 39.8555C14.0474 39.8555 13.3301 40.5728 13.3301 41.6167L13.3301 46.2134C13.3301 47.2573 14.0474 47.9746 15.1065 47.9746ZM27.3843 47.9746L31.917 47.9746C32.9761 47.9746 33.791 47.2573 33.791 46.2134L33.791 41.6167C33.791 40.5728 32.9761 39.8555 31.917 39.8555L27.3843 39.8555C26.374 39.8555 25.6568 40.5728 25.6568 41.6167L25.6568 46.2134C25.6568 47.2573 26.374 47.9746 27.3843 47.9746ZM15.1065 34.981L19.5903 34.981C20.6646 34.981 21.4644 34.2637 21.4644 33.2383L21.4644 28.6079C21.4644 27.564 20.6646 26.8467 19.5903 26.8467L15.1065 26.8467C14.0474 26.8467 13.3301 27.564 13.3301 28.6079L13.3301 33.2383C13.3301 34.2637 14.0474 34.981 15.1065 34.981ZM27.3843 34.981L31.917 34.981C32.9761 34.981 33.791 34.2637 33.791 33.2383L33.791 28.6079C33.791 27.564 32.9761 26.8467 31.917 26.8467L27.3843 26.8467C26.374 26.8467 25.6568 27.564 25.6568 28.6079L25.6568 33.2383C25.6568 34.2637 26.374 34.981 27.3843 34.981ZM39.711 34.981L44.1948 34.981C45.3027 34.981 46.0689 34.2637 46.0689 33.2383L46.0689 28.6079C46.0689 27.564 45.3027 26.8467 44.1948 26.8467L39.711 26.8467C38.6856 26.8467 37.9683 27.564 37.9683 28.6079L37.9683 33.2383C37.9683 34.2637 38.6856 34.981 39.711 34.981ZM15.1065 22.0059L19.5903 22.0059C20.6646 22.0059 21.4644 21.2886 21.4644 20.2446L21.4644 15.6328C21.4644 14.5889 20.6646 13.8716 19.5903 13.8716L15.1065 13.8716C14.0474 13.8716 13.3301 14.5889 13.3301 15.6328L13.3301 20.2446C13.3301 21.2886 14.0474 22.0059 15.1065 22.0059ZM27.3843 22.0059L31.917 22.0059C32.9761 22.0059 33.791 21.2886 33.791 20.2446L33.791 15.6328C33.791 14.5889 32.9761 13.8716 31.917 13.8716L27.3843 13.8716C26.374 13.8716 25.6568 14.5889 25.6568 15.6328L25.6568 20.2446C25.6568 21.2886 26.374 22.0059 27.3843 22.0059ZM39.711 22.0059L44.1948 22.0059C45.3027 22.0059 46.0689 21.2886 46.0689 20.2446L46.0689 15.6328C46.0689 14.5889 45.3027 13.8716 44.1948 13.8716L39.711 13.8716C38.6856 13.8716 37.9683 14.5889 37.9683 15.6328L37.9683 20.2446C37.9683 21.2886 38.6856 22.0059 39.711 22.0059Z" fill="#000000" fill-opacity="0.85"/>
 </g>
</svg>
