<?xml version="1.0" encoding="UTF-8"?>
<!--Generator: Apple Native CoreSVG 232.5-->
<!DOCTYPE svg
PUBLIC "-//W3C//DTD SVG 1.1//EN"
       "http://www.w3.org/Graphics/SVG/1.1/DTD/svg11.dtd">
<svg version="1.1" xmlns="http://www.w3.org/2000/svg" xmlns:xlink="http://www.w3.org/1999/xlink" width="114.35" height="88.5371">
 <g>
  <rect height="88.5371" opacity="0" width="114.35" x="0" y="0"/>
  <path d="M14.3936 88.5371L99.9409 88.5371C109.514 88.5371 114.35 83.6558 114.35 74.2632L114.35 14.4019C114.35 5.00928 109.514 0.127929 99.9409 0.127929L14.3936 0.127929C4.86963 0.127929 0 4.93018 0 14.4019L0 74.2632C0 83.7349 4.86963 88.5371 14.3936 88.5371ZM14.5064 82.4922C9.00294 82.4922 6.04494 79.6016 6.04494 73.9634L6.04494 14.7017C6.04494 9.06349 9.00294 6.17287 14.5064 6.17287L99.8433 6.17287C105.237 6.17287 108.305 9.06349 108.305 14.7017L108.305 73.9634C108.305 79.6016 105.237 82.4922 99.8433 82.4922Z" fill="#000000" fill-opacity="0.85"/>
  <path d="M19.2105 25.6782L24.1807 25.6782C25.521 25.6782 26.5986 24.7471 26.5986 23.4404L26.5986 18.354C26.5986 16.9985 25.521 16.1011 24.1807 16.1011L19.2105 16.1011C17.9375 16.1011 16.9878 17.0322 16.9878 18.354L16.9878 23.4404C16.9878 24.7134 17.9375 25.6782 19.2105 25.6782ZM36.9399 25.6782L41.9102 25.6782C43.2993 25.6782 44.3281 24.7471 44.3281 23.4404L44.3281 18.354C44.3281 16.9985 43.2993 16.1011 41.9102 16.1011L36.9399 16.1011C35.667 16.1011 34.7173 17.0322 34.7173 18.354L34.7173 23.4404C34.7173 24.7134 35.667 25.6782 36.9399 25.6782ZM54.6543 25.6782L59.6094 25.6782C60.9648 25.6782 61.9937 24.7471 61.9937 23.4404L61.9937 18.354C61.9937 16.9985 60.9648 16.1011 59.6094 16.1011L54.6543 16.1011C53.3325 16.1011 52.4165 17.0322 52.4165 18.354L52.4165 23.4404C52.4165 24.7134 53.3325 25.6782 54.6543 25.6782ZM72.335 25.6782L77.2749 25.6782C78.6792 25.6782 79.6777 24.7471 79.6777 23.4404L79.6777 18.354C79.6777 16.9985 78.6792 16.1011 77.2749 16.1011L72.335 16.1011C71.0317 16.1011 70.082 17.0322 70.082 18.354L70.082 23.4404C70.082 24.7134 71.0317 25.6782 72.335 25.6782ZM90.0342 25.6782L94.959 25.6782C96.3447 25.6782 97.3433 24.7471 97.3433 23.4404L97.3433 18.354C97.3433 16.9985 96.3447 16.1011 94.959 16.1011L90.0342 16.1011C88.7124 16.1011 87.7964 17.0322 87.7964 18.354L87.7964 23.4404C87.7964 24.7134 88.7124 25.6782 90.0342 25.6782ZM19.2105 42.064L24.1807 42.064C25.521 42.064 26.5986 41.1177 26.5986 39.811L26.5986 34.7246C26.5986 33.3691 25.521 32.4868 24.1807 32.4868L19.2105 32.4868C17.9375 32.4868 16.9878 33.4028 16.9878 34.7246L16.9878 39.811C16.9878 41.084 17.9375 42.064 19.2105 42.064ZM36.9399 42.064L41.9102 42.064C43.2993 42.064 44.3281 41.1177 44.3281 39.811L44.3281 34.7246C44.3281 33.3691 43.2993 32.4868 41.9102 32.4868L36.9399 32.4868C35.667 32.4868 34.7173 33.4028 34.7173 34.7246L34.7173 39.811C34.7173 41.084 35.667 42.064 36.9399 42.064ZM54.6543 42.064L59.6094 42.064C60.9648 42.064 61.9937 41.1177 61.9937 39.811L61.9937 34.7246C61.9937 33.3691 60.9648 32.4868 59.6094 32.4868L54.6543 32.4868C53.3325 32.4868 52.4165 33.4028 52.4165 34.7246L52.4165 39.811C52.4165 41.084 53.3325 42.064 54.6543 42.064ZM72.335 42.064L77.2749 42.064C78.6792 42.064 79.6777 41.1177 79.6777 39.811L79.6777 34.7246C79.6777 33.3691 78.6792 32.4868 77.2749 32.4868L72.335 32.4868C71.0317 32.4868 70.082 33.4028 70.082 34.7246L70.082 39.811C70.082 41.084 71.0317 42.064 72.335 42.064ZM19.2105 72.564L24.1807 72.564C25.521 72.564 26.5986 71.6177 26.5986 70.311L26.5986 65.2246C26.5986 63.8691 25.521 62.9531 24.1807 62.9531L19.2105 62.9531C17.9375 62.9531 16.9878 63.9028 16.9878 65.2246L16.9878 70.311C16.9878 71.584 17.9375 72.564 19.2105 72.564ZM36.9399 72.564L41.9102 72.564C43.2993 72.564 44.3281 71.6177 44.3281 70.311L44.3281 65.2246C44.3281 63.8691 43.2993 62.9531 41.9102 62.9531L36.9399 62.9531C35.667 62.9531 34.7173 63.9028 34.7173 65.2246L34.7173 70.311C34.7173 71.584 35.667 72.564 36.9399 72.564ZM54.6543 72.564L59.6094 72.564C60.9648 72.564 61.9937 71.6177 61.9937 70.311L61.9937 65.2246C61.9937 63.8691 60.9648 62.9531 59.6094 62.9531L54.6543 62.9531C53.3325 62.9531 52.4165 63.9028 52.4165 65.2246L52.4165 70.311C52.4165 71.584 53.3325 72.564 54.6543 72.564ZM72.335 72.564L77.2749 72.564C78.6792 72.564 79.6777 71.6177 79.6777 70.311L79.6777 65.2246C79.6777 63.8691 78.6792 62.9531 77.2749 62.9531L72.335 62.9531C71.0317 62.9531 70.082 63.9028 70.082 65.2246L70.082 70.311C70.082 71.584 71.0317 72.564 72.335 72.564ZM90.0342 72.564L94.959 72.564C96.3447 72.564 97.3433 71.6177 97.3433 70.311L97.3433 65.2246C97.3433 63.8691 96.3447 62.9531 94.959 62.9531L90.0342 62.9531C88.7124 62.9531 87.7964 63.9028 87.7964 65.2246L87.7964 70.311C87.7964 71.584 88.7124 72.564 90.0342 72.564Z" fill="#000000" fill-opacity="0.85"/>
 </g>
</svg>
