<?xml version="1.0" encoding="UTF-8"?>
<!--Generator: Apple Native CoreSVG 232.5-->
<!DOCTYPE svg
PUBLIC "-//W3C//DTD SVG 1.1//EN"
       "http://www.w3.org/Graphics/SVG/1.1/DTD/svg11.dtd">
<svg version="1.1" xmlns="http://www.w3.org/2000/svg" xmlns:xlink="http://www.w3.org/1999/xlink" width="114.35" height="88.4395">
 <g>
  <rect height="88.4395" opacity="0" width="114.35" x="0" y="0"/>
  <path d="M114.35 14.2739L114.35 74.169C114.35 83.5615 109.514 88.4092 99.9409 88.4092L14.3936 88.4092C4.86963 88.4092 0 83.6069 0 74.169L0 14.2739C0 4.83594 4.86963 0 14.3936 0L99.9409 0C109.514 0 114.35 4.88135 114.35 14.2739ZM14.5064 6.04494C10.0303 6.04494 7.23803 7.97935 6.35194 11.7354L4.79444 11.7354C3.8213 11.7354 3.04346 12.5132 3.04346 13.4527L3.04346 74.9717C3.04346 75.9297 3.85499 76.7226 4.82813 76.7226L6.35564 76.7226C7.24628 80.4629 10.0369 82.3794 14.5064 82.3794L99.8433 82.3794C104.224 82.3794 107.07 80.4629 107.985 76.7226L109.682 76.7226C110.621 76.7226 111.399 75.9297 111.399 74.9717L111.399 13.4527C111.399 12.5132 110.621 11.7354 109.682 11.7354L107.988 11.7354C107.078 7.97935 104.23 6.04494 99.8433 6.04494Z" fill="#000000" fill-opacity="0.85"/>
  <path d="M4.82813 76.7226L68.3198 76.7226C71.5688 76.7226 73.3584 74.8843 73.3584 71.6167L73.3584 16.8413C73.3584 13.5586 71.5688 11.7354 68.3198 11.7354L4.79444 11.7354C3.8213 11.7354 3.04346 12.5132 3.04346 13.4527L3.04346 74.9717C3.04346 75.9297 3.85499 76.7226 4.82813 76.7226ZM84.0537 76.7226L109.682 76.7226C110.621 76.7226 111.399 75.9297 111.399 74.9717L111.399 13.4527C111.399 12.5132 110.621 11.7354 109.682 11.7354L84.0537 11.7354C80.8384 11.7354 79.0488 13.5586 79.0488 16.8413L79.0488 71.6167C79.0488 74.8843 80.8384 76.7226 84.0537 76.7226Z" fill="#000000" fill-opacity="0.85"/>
 </g>
</svg>
