<?xml version="1.0" encoding="UTF-8"?>
<!--Generator: Apple Native CoreSVG 232.5-->
<!DOCTYPE svg
PUBLIC "-//W3C//DTD SVG 1.1//EN"
       "http://www.w3.org/Graphics/SVG/1.1/DTD/svg11.dtd">
<svg version="1.1" xmlns="http://www.w3.org/2000/svg" xmlns:xlink="http://www.w3.org/1999/xlink" width="98.9063" height="114.087">
 <g>
  <rect height="114.087" opacity="0" width="98.9063" x="0" y="0"/>
  <path d="M49.5752 7.06593C51.5791 7.06593 53.061 5.60254 53.061 3.56494C53.061 1.57617 51.5303 0 49.5752 0C47.6353 0 46.0405 1.59473 46.0405 3.56494C46.0405 5.52002 47.5713 7.06593 49.5752 7.06593ZM26.5381 20.3608C28.5757 20.3608 30.0728 18.8486 30.0728 16.811C30.0728 14.8223 28.5269 13.2764 26.5381 13.2764C24.6318 13.2764 23.0034 14.9048 23.0034 16.811C23.0034 18.8301 24.5493 20.3608 26.5381 20.3608ZM72.5635 20.3608C74.6162 20.3608 76.0982 18.8486 76.0982 16.811C76.0982 14.8223 74.5674 13.2764 72.5635 13.2764C70.6572 13.2764 69.0288 14.9048 69.0288 16.811C69.0288 18.8301 70.5747 20.3608 72.5635 20.3608ZM3.53467 33.8023C5.53858 33.8023 7.03565 32.3203 7.03565 30.2676C7.03565 28.3125 5.48975 26.7666 3.53467 26.7666C1.57959 26.7666 0 28.3462 0 30.2676C0 32.2715 1.5459 33.8023 3.53467 33.8023ZM95.4053 33.8023C97.458 33.8023 98.9063 32.3203 98.9063 30.2676C98.9063 28.2637 97.4243 26.7666 95.4053 26.7666C93.4653 26.7666 91.8706 28.3613 91.8706 30.2676C91.8706 32.2715 93.4165 33.8023 95.4053 33.8023ZM3.53467 60.52C5.53858 60.52 7.03565 59.0567 7.03565 57.0191C7.03565 55.0303 5.48975 53.4844 3.53467 53.4844C1.57959 53.4844 0 55.064 0 57.0191C0 58.9741 1.5459 60.52 3.53467 60.52ZM95.4053 60.52C97.458 60.52 98.9063 59.0567 98.9063 57.0191C98.9063 55 97.4243 53.4844 95.4053 53.4844C93.4653 53.4844 91.8706 55.1128 91.8706 57.0191C91.8706 58.9741 93.4165 60.52 95.4053 60.52ZM3.53467 87.2564C5.53858 87.2564 7.03565 85.7744 7.03565 83.7217C7.03565 81.7666 5.48975 80.2207 3.53467 80.2207C1.59473 80.2207 0 81.8154 0 83.7217C0 85.7407 1.51563 87.2564 3.53467 87.2564ZM95.4053 87.2564C97.4732 87.2564 98.9063 85.8233 98.9063 83.7217C98.9063 81.7666 97.3604 80.2207 95.4053 80.2207C93.4653 80.2207 91.8706 81.8154 91.8706 83.7217C91.8706 85.7256 93.4165 87.2564 95.4053 87.2564ZM26.5381 100.728C28.5757 100.728 30.0728 99.2647 30.0728 97.2271C30.0728 95.2383 28.5269 93.6621 26.5381 93.6621C24.6318 93.6621 23.0034 95.2568 23.0034 97.2271C23.0034 99.1821 24.5493 100.728 26.5381 100.728ZM72.5635 100.728C74.6162 100.728 76.0982 99.2647 76.0982 97.2271C76.0982 95.2383 74.5674 93.6621 72.5635 93.6621C70.6572 93.6621 69.0288 95.2568 69.0288 97.2271C69.0288 99.1821 70.5747 100.728 72.5635 100.728ZM49.5752 114.023C51.5791 114.023 53.061 112.511 53.061 110.473C53.061 108.484 51.5303 106.938 49.5752 106.938C47.6353 106.938 46.0405 108.567 46.0405 110.473C46.0405 112.492 47.5713 114.023 49.5752 114.023Z" fill="#000000" fill-opacity="0.85"/>
  <path d="M49.5752 33.8023C51.5791 33.8023 53.061 32.3203 53.061 30.2676C53.061 28.3125 51.5303 26.7666 49.5752 26.7666C47.605 26.7666 46.0405 28.3462 46.0405 30.2676C46.0405 32.2715 47.5713 33.8023 49.5752 33.8023ZM26.5381 47.1611C28.5757 47.1611 30.0728 45.6489 30.0728 43.6113C30.0728 41.6226 28.5269 40.0767 26.5381 40.0767C24.6318 40.0767 23.0034 41.6714 23.0034 43.6113C23.0034 45.6152 24.5493 47.1611 26.5381 47.1611ZM72.5635 47.1611C74.6162 47.1611 76.0982 45.6489 76.0982 43.6113C76.0982 41.6226 74.5674 40.0767 72.5635 40.0767C70.6572 40.0767 69.0288 41.6714 69.0288 43.6113C69.0288 45.6152 70.5747 47.1611 72.5635 47.1611ZM26.5381 73.9277C28.5757 73.9277 30.0728 72.4644 30.0728 70.4268C30.0728 68.438 28.5269 66.877 26.5381 66.877C24.6318 66.877 23.0034 68.4717 23.0034 70.4268C23.0034 72.4155 24.5493 73.9277 26.5381 73.9277ZM72.5635 73.9277C74.6162 73.9277 76.0982 72.4644 76.0982 70.4268C76.0982 68.438 74.5674 66.877 72.5635 66.877C70.6572 66.877 69.0288 68.4717 69.0288 70.4268C69.0288 72.4155 70.5747 73.9277 72.5635 73.9277ZM49.5752 87.2564C51.5791 87.2564 53.061 85.7744 53.061 83.7217C53.061 81.7666 51.5303 80.2207 49.5752 80.2207C47.6353 80.2207 46.0405 81.8154 46.0405 83.7217C46.0405 85.7407 47.5562 87.2564 49.5752 87.2564Z" fill="#000000" fill-opacity="0.85"/>
  <path d="M49.5752 60.52C51.5791 60.52 53.061 59.0567 53.061 57.0191C53.061 55.0303 51.5303 53.4844 49.5752 53.4844C47.605 53.4844 46.0405 55.064 46.0405 57.0191C46.0405 58.9741 47.5713 60.52 49.5752 60.52Z" fill="#000000" fill-opacity="0.85"/>
 </g>
</svg>
