<?xml version="1.0" encoding="UTF-8"?>
<!--Generator: Apple Native CoreSVG 232.5-->
<!DOCTYPE svg
PUBLIC "-//W3C//DTD SVG 1.1//EN"
       "http://www.w3.org/Graphics/SVG/1.1/DTD/svg11.dtd">
<svg version="1.1" xmlns="http://www.w3.org/2000/svg" xmlns:xlink="http://www.w3.org/1999/xlink" width="135.317" height="86.0254">
 <g>
  <rect height="86.0254" opacity="0" width="135.317" x="0" y="0"/>
  <path d="M19.3401 86.0254L115.977 86.0254C129.969 86.0254 136.865 77.5991 135.025 62.3276L129.706 18.0005C128.317 6.26075 121.623 0 110.655 0L24.6472 0C13.6941 0 7.00072 6.26075 5.61156 18.0005L0.292714 62.3276C-1.54762 77.5991 5.34789 86.0254 19.3401 86.0254ZM35.1267 57.125C33.6008 57.125 32.4353 56.4277 32.4353 55.4004L32.4353 40.5357C27.1584 39.2608 23.1882 34.5596 23.1882 28.9004C23.1882 22.3755 28.5193 17.0107 35.1267 17.0107C41.6516 17.0107 47.0164 22.3418 47.0164 28.9004C47.0164 34.5259 43.0461 39.2608 37.8333 40.4346L37.8333 55.4004C37.8333 56.4277 36.634 57.125 35.1267 57.125ZM35.1267 66.9707C25.5237 66.9707 18.7663 61.8652 18.7663 54.5708C18.7663 49.2686 22.3122 45.1382 27.9309 43.2959L27.9309 48.5103C25.3 49.7798 23.6775 51.9194 23.6775 54.5708C23.6775 59.2666 28.3918 62.5498 35.1267 62.5498C41.843 62.5498 46.5085 59.2666 46.5085 54.5708C46.5085 51.9531 44.9348 49.8135 42.3225 48.544L42.3225 43.2959C47.8586 45.1719 51.4197 49.2686 51.4197 54.5708C51.4197 61.8652 44.6809 66.9707 35.1267 66.9707ZM63.7341 39.4243C59.9539 39.4243 56.9246 36.4102 56.9246 32.6299C56.9246 28.8008 59.9539 25.8018 63.7341 25.8018C67.533 25.8018 70.5623 28.8008 70.5623 32.6299C70.5623 36.4102 67.533 39.4243 63.7341 39.4243ZM84.7961 39.4243C81.0159 39.4243 77.9866 36.4102 77.9866 32.6299C77.9866 28.8008 81.0159 25.8018 84.7961 25.8018C88.5764 25.8018 91.6394 28.8008 91.6394 32.6299C91.6394 36.4102 88.5764 39.4243 84.7961 39.4243ZM105.809 39.4243C102.029 39.4243 98.9661 36.4102 98.9661 32.6299C98.9661 28.8008 102.029 25.8018 105.809 25.8018C109.556 25.8018 112.604 28.8008 112.604 32.6299C112.604 36.4102 109.556 39.4243 105.809 39.4243ZM70.7722 60.4038C66.9583 60.4038 63.929 57.3897 63.929 53.6094C63.929 49.814 66.9583 46.7813 70.7722 46.7813C74.5037 46.7813 77.533 49.814 77.533 53.6094C77.533 57.3897 74.5037 60.4038 70.7722 60.4038ZM91.8005 60.4038C88.0203 60.4038 84.991 57.3897 84.991 53.6094C84.991 49.814 88.0203 46.7813 91.8005 46.7813C95.5808 46.7813 98.6287 49.814 98.6287 53.6094C98.6287 57.3897 95.5808 60.4038 91.8005 60.4038ZM112.814 60.4038C109.033 60.4038 106.004 57.3897 106.004 53.6094C106.004 49.814 109.033 46.7813 112.814 46.7813C116.613 46.7813 119.642 49.814 119.642 53.6094C119.642 57.3897 116.613 60.4038 112.814 60.4038Z" fill="#000000" fill-opacity="0.85"/>
 </g>
</svg>
