<?xml version="1.0" encoding="UTF-8"?>
<!--Generator: Apple Native CoreSVG 232.5-->
<!DOCTYPE svg
PUBLIC "-//W3C//DTD SVG 1.1//EN"
       "http://www.w3.org/Graphics/SVG/1.1/DTD/svg11.dtd">
<svg version="1.1" xmlns="http://www.w3.org/2000/svg" xmlns:xlink="http://www.w3.org/1999/xlink" width="90.1437" height="97.334">
 <g>
  <rect height="97.334" opacity="0" width="90.1437" x="0" y="0"/>
  <path d="M51.2704 76.2774C51.2704 88.21 40.2454 97.2701 25.6863 97.2701C11.0296 97.2701 0.00468214 88.21 0.00468214 76.2774C0.00468214 67.0378 6.5776 59.5309 16.3343 56.6101L16.3343 62.9731C10.1098 65.4204 6.06475 70.333 6.06475 76.2774C6.06475 84.8145 14.4739 91.2403 25.6863 91.2403C36.8685 91.2403 45.2103 84.8145 45.2103 76.2774C45.2103 70.275 41.119 65.3247 34.8177 62.9067L34.8177 56.5613C44.6218 59.4448 51.2704 66.9848 51.2704 76.2774Z" fill="#000000" fill-opacity="0.85"/>
  <path d="M25.5516 79.7539C27.9315 79.7539 29.8197 78.6524 29.8197 77.0708L29.8197 28.5571L21.3812 28.5571L21.3812 77.0708C21.3812 78.6524 23.1868 79.7539 25.5516 79.7539ZM25.5516 39.3701C36.3973 39.3701 45.1483 30.5215 45.1483 19.5816C45.1483 8.78467 36.3299 0 25.5516 0C14.6907 0 5.8084 8.85206 5.8084 19.5816C5.8084 30.5889 14.6907 39.3701 25.5516 39.3701Z" fill="#000000" fill-opacity="0.85"/>
  <path d="M76.578 42.0513C78.1932 42.0513 79.5238 40.7695 79.5238 39.1206L79.5238 24.1992L87.1649 24.1992C90.075 24.1992 90.9793 21.2993 89.3138 19.1201L78.89 5.61817C77.6742 4.05714 75.4598 3.97803 74.1986 5.61817L63.8084 19.1201C62.0755 21.3667 63.1146 24.1992 65.9388 24.1992L73.6473 24.1992L73.6473 39.1206C73.6473 40.7695 74.929 42.0513 76.578 42.0513Z" fill="#000000" fill-opacity="0.85"/>
 </g>
</svg>
