<?xml version="1.0" encoding="UTF-8"?>
<!--Generator: Apple Native CoreSVG 232.5-->
<!DOCTYPE svg
PUBLIC "-//W3C//DTD SVG 1.1//EN"
       "http://www.w3.org/Graphics/SVG/1.1/DTD/svg11.dtd">
<svg version="1.1" xmlns="http://www.w3.org/2000/svg" xmlns:xlink="http://www.w3.org/1999/xlink" width="87.2471" height="97.334">
 <g>
  <rect height="97.334" opacity="0" width="87.2471" x="0" y="0"/>
  <path d="M51.2657 76.2774C51.2657 88.21 40.2408 97.2701 25.6817 97.2701C11.0249 97.2701 0 88.21 0 76.2774C0 67.0378 6.57292 59.5309 16.3296 56.6101L16.3296 62.9731C10.1052 65.4204 6.06007 70.333 6.06007 76.2774C6.06007 84.8145 14.4693 91.2403 25.6817 91.2403C36.8638 91.2403 45.2056 84.8145 45.2056 76.2774C45.2056 70.275 41.1144 65.3247 34.813 62.9067L34.813 56.5613C44.6171 59.4448 51.2657 66.9848 51.2657 76.2774Z" fill="#000000" fill-opacity="0.85"/>
  <path d="M25.5469 79.7539C27.9268 79.7539 29.815 78.6524 29.815 77.0708L29.815 28.5571L21.3765 28.5571L21.3765 77.0708C21.3765 78.6524 23.1821 79.7539 25.5469 79.7539ZM25.5469 39.3701C36.3926 39.3701 45.1436 30.5215 45.1436 19.5816C45.1436 8.78467 36.3252 0 25.5469 0C14.6861 0 5.80372 8.85206 5.80372 19.5816C5.80372 30.5889 14.6861 39.3701 25.5469 39.3701Z" fill="#000000" fill-opacity="0.85"/>
  <path d="M49.583 41.2066C49.583 42.8555 50.9136 44.1709 52.5625 44.1709L67.4351 44.1709L67.4351 51.8794C67.4351 54.7036 70.2828 55.7427 72.5142 54.0098L86.0162 43.6196C87.6563 42.3433 87.5772 40.1104 86.0162 38.9282L72.5142 28.5044C70.335 26.8237 67.4351 27.7432 67.4351 30.6196L67.4351 38.2944L52.5625 38.2944C50.9136 38.2944 49.583 39.5762 49.583 41.2066Z" fill="#000000" fill-opacity="0.85"/>
 </g>
</svg>
