<?xml version="1.0" encoding="UTF-8"?>
<!--Generator: Apple Native CoreSVG 232.5-->
<!DOCTYPE svg
PUBLIC "-//W3C//DTD SVG 1.1//EN"
       "http://www.w3.org/Graphics/SVG/1.1/DTD/svg11.dtd">
<svg version="1.1" xmlns="http://www.w3.org/2000/svg" xmlns:xlink="http://www.w3.org/1999/xlink" width="87.3854" height="97.334">
 <g>
  <rect height="97.334" opacity="0" width="87.3854" x="0" y="0"/>
  <path d="M87.3853 76.2774C87.3853 88.21 76.3604 97.2701 61.7862 97.2701C47.1294 97.2701 36.1045 88.21 36.1045 76.2774C36.1045 67.033 42.6842 59.5232 52.4493 56.6057L52.4493 62.9677C46.2161 65.4126 42.1646 70.3282 42.1646 76.2774C42.1646 84.8145 50.5738 91.2403 61.7862 91.2403C72.9835 91.2403 81.3253 84.8145 81.3253 76.2774C81.3253 70.2767 77.2362 65.3274 70.9327 62.9086L70.9327 56.5634C80.7399 59.4484 87.3853 66.987 87.3853 76.2774Z" fill="#000000" fill-opacity="0.85"/>
  <path d="M61.6514 79.7539C64.0313 79.7539 65.9195 78.6524 65.9195 77.0708L65.9195 28.5571L57.481 28.5571L57.481 77.0708C57.481 78.6524 59.2867 79.7539 61.6514 79.7539ZM61.6514 39.3701C72.5308 39.3701 81.2632 30.5215 81.2632 19.5816C81.2632 8.78467 72.4634 0 61.6514 0C50.8057 0 41.9571 8.85206 41.9571 19.5816C41.9571 30.5889 50.8057 39.3701 61.6514 39.3701Z" fill="#000000" fill-opacity="0.85"/>
  <path d="M37.6153 41.2066C37.6153 39.5762 36.3335 38.2944 34.6846 38.2944L19.7632 38.2944L19.7632 30.6196C19.7632 27.7432 16.8633 26.8237 14.6992 28.5044L1.18216 38.9282C-0.378879 40.1104-0.409153 42.3433 1.18216 43.6196L14.6992 54.0098C16.9307 55.7427 19.7632 54.7036 19.7632 51.8794L19.7632 44.1709L34.6846 44.1709C36.3335 44.1709 37.6153 42.8555 37.6153 41.2066Z" fill="#000000" fill-opacity="0.85"/>
 </g>
</svg>
