<?xml version="1.0" encoding="UTF-8"?>
<!--Generator: Apple Native CoreSVG 232.5-->
<!DOCTYPE svg
PUBLIC "-//W3C//DTD SVG 1.1//EN"
       "http://www.w3.org/Graphics/SVG/1.1/DTD/svg11.dtd">
<svg version="1.1" xmlns="http://www.w3.org/2000/svg" xmlns:xlink="http://www.w3.org/1999/xlink" width="96.2451" height="88.5371">
 <g>
  <rect height="88.5371" opacity="0" width="96.2451" x="0" y="0"/>
  <path d="M21.0376 88.5371L75.2075 88.5371C84.3574 88.5371 89.2271 83.7232 89.2271 74.6523L89.2271 22.3071L83.1821 22.3071L83.1821 74.8613C83.1821 80.0581 80.3018 82.814 75.2295 82.814L21.0156 82.814C15.834 82.814 13.063 80.0581 13.063 74.8613L13.063 22.3071L7.03321 22.3071L7.03321 74.6523C7.03321 83.8023 11.8877 88.5371 21.0376 88.5371ZM31.7007 44.4966L64.5781 44.4966C66.4624 44.4966 67.6851 43.2471 67.6851 41.2954L67.6851 39.8389C67.6851 37.8872 66.4624 36.6714 64.5781 36.6714L31.7007 36.6714C29.8164 36.6714 28.6274 37.8872 28.6274 39.8389L28.6274 41.2954C28.6274 43.2471 29.8164 44.4966 31.7007 44.4966ZM8.35401 25.0611L87.9063 25.0611C93.2461 25.0611 96.2451 21.6494 96.2451 16.3433L96.2451 8.86085C96.2451 3.53955 93.2461 0.127929 87.9063 0.127929L8.35401 0.127929C3.20117 0.127929 0 3.53955 0 8.86085L0 16.3433C0 21.6494 3.01416 25.0611 8.35401 25.0611ZM9.67482 19.353C7.188 19.353 6.04494 18.0703 6.04494 15.5986L6.04494 9.59034C6.04494 7.11866 7.188 5.85109 9.67482 5.85109L86.604 5.85109C89.0908 5.85109 90.2153 7.11866 90.2153 9.59034L90.2153 15.5986C90.2153 18.0703 89.0908 19.353 86.604 19.353Z" fill="#000000" fill-opacity="0.85"/>
 </g>
</svg>
