<?xml version="1.0" encoding="UTF-8"?>
<!--Generator: Apple Native CoreSVG 232.5-->
<!DOCTYPE svg
PUBLIC "-//W3C//DTD SVG 1.1//EN"
       "http://www.w3.org/Graphics/SVG/1.1/DTD/svg11.dtd">
<svg version="1.1" xmlns="http://www.w3.org/2000/svg" xmlns:xlink="http://www.w3.org/1999/xlink" width="97.8462" height="106.717">
 <g>
  <rect height="106.717" opacity="0" width="97.8462" x="0" y="0"/>
  <path d="M45.104 104.906C47.7915 106.381 50.1187 106.381 52.7759 104.906L65.4688 97.7363C67.2979 96.687 67.7476 94.8731 66.8819 93.273C66.0498 91.7065 64.064 91.2905 62.2988 92.3062L52.0693 98.0137L52.0693 86.8452C52.0693 84.7988 50.7388 83.2998 48.9399 83.2998C47.1074 83.2998 45.792 84.7988 45.792 86.8452L45.792 98.0137L35.5474 92.3062C33.8159 91.2905 31.8452 91.7065 30.9795 93.273C30.0986 94.8731 30.5483 96.687 32.4111 97.7363ZM13.4209 87.1475C15.2197 88.148 17.2022 87.7808 18.0679 86.1655C18.9151 84.5991 18.2363 82.6655 16.5571 81.7021L9.33108 77.728L18.0464 72.8374C19.8789 71.8369 20.5913 69.8208 19.6245 68.3218C18.624 66.7739 16.7612 66.3394 15.0298 67.2725L6.15431 72.2002L6.15431 64.0664C6.15431 62.0352 4.8086 60.5361 3.07716 60.5361C1.24805 60.5361 0 62.0352 0 64.0664L0 72.5044C0 78.6865 1.83252 80.7378 6.08936 83.0986ZM3.07716 48.4907C4.90626 48.4907 6.15431 46.9766 6.15431 44.9453L6.15431 33.7759L15.8081 39.1939C17.4722 40.127 19.3687 39.7261 20.3877 38.1782C21.3545 36.6641 20.6236 34.648 18.7573 33.6626L9.29592 28.3745L19.3189 22.7486C21.2793 21.6504 21.8184 19.6006 20.8818 18.1133C19.8965 16.6445 18.0606 16.2842 16.4033 17.229L5.03224 23.6167C1.81543 25.4575 0 27.9434 0 32.1826L0 44.9453C0 46.9766 1.34571 48.4907 3.07716 48.4907ZM48.9399 21.8296C50.7388 21.8296 52.0693 20.3643 52.0693 18.333L52.0693 7.87356L60.4829 12.5703C62.2261 13.5825 64.2642 13.1548 65.0811 11.6338C65.9317 10.1128 65.4937 8.25 63.6191 7.18555L53.4927 1.48242C50.0278-0.49414 47.8184-0.49414 44.3535 1.48242L34.2271 7.18555C32.3677 8.25 31.9482 10.1128 32.7651 11.6338C33.582 13.1548 35.6201 13.5825 37.3633 12.5703L45.792 7.84328L45.792 18.333C45.792 20.3643 47.1074 21.8296 48.9399 21.8296ZM94.769 48.4907C96.5493 48.4907 97.8462 46.9766 97.8462 44.9453L97.8462 32.1826C97.8462 27.6216 96.4199 25.6445 92.8477 23.6167L81.4429 17.229C79.8008 16.2842 77.9497 16.6445 77.0132 18.1133C76.0278 19.6006 76.6006 21.6504 78.561 22.7486L88.584 28.3745L79.104 33.6626C77.2715 34.648 76.4917 36.6641 77.4922 38.1782C78.4927 39.7261 80.4077 40.127 82.0532 39.1939L91.6919 33.7759L91.6919 44.9453C91.6919 46.9766 92.9888 48.4907 94.769 48.4907ZM84.4404 87.1475L91.7568 83.0986C96.0137 80.7378 97.8462 78.6865 97.8462 72.5044L97.8462 64.0664C97.8462 62.0352 96.5982 60.5361 94.769 60.5361C93.0376 60.5361 91.6919 62.0352 91.6919 64.0664L91.6919 72.249L82.8164 67.2725C81.1187 66.3394 79.2373 66.7739 78.2705 68.3218C77.27 69.8208 78.001 71.8369 79.8149 72.8374L88.4512 77.728L81.2891 81.7021C79.6587 82.6655 78.9463 84.5991 79.812 86.1655C80.644 87.7808 82.6602 88.148 84.4404 87.1475ZM48.9399 71.5762C50.7388 71.5762 52.0693 70.0772 52.0693 68.0459L52.0693 55.9531L63.0815 49.7827C64.8955 48.7822 65.5474 46.751 64.562 45.252C63.5952 43.7192 61.7778 43.2847 60.0801 44.2178L48.9399 50.4185L37.815 44.2178C36.1021 43.2847 34.2998 43.7192 33.2993 45.252C32.2988 46.751 32.9658 48.7822 34.7983 49.7827L45.792 55.9531L45.792 68.0459C45.792 70.0772 47.1074 71.5762 48.9399 71.5762Z" fill="#000000" fill-opacity="0.85"/>
 </g>
</svg>
