<?xml version="1.0" encoding="UTF-8"?>
<!--Generator: Apple Native CoreSVG 232.5-->
<!DOCTYPE svg
PUBLIC "-//W3C//DTD SVG 1.1//EN"
       "http://www.w3.org/Graphics/SVG/1.1/DTD/svg11.dtd">
<svg version="1.1" xmlns="http://www.w3.org/2000/svg" xmlns:xlink="http://www.w3.org/1999/xlink" width="97.9595" height="97.9932">
 <g>
  <rect height="97.9932" opacity="0" width="97.9595" x="0" y="0"/>
  <path d="M48.9722 97.9443C75.8247 97.9443 97.9595 75.7759 97.9595 48.9722C97.9595 22.1348 75.791 0 48.9385 0C22.1348 0 0 22.1348 0 48.9722C0 75.7759 22.1685 97.9443 48.9722 97.9443ZM48.9722 91.6113C25.3501 91.6113 6.36671 72.5942 6.36671 48.9722C6.36671 25.3501 25.3164 6.31789 48.9385 6.31789C72.5605 6.31789 91.6265 25.3501 91.6265 48.9722C91.6265 72.5942 72.5942 91.6113 48.9722 91.6113Z" fill="#000000" fill-opacity="0.85"/>
  <path d="M27.6001 51.2183C27.6001 63.1983 37.0898 72.7066 48.9385 72.7066C60.8325 72.7066 70.2769 63.1983 70.2769 51.3193C70.2769 49.8911 69.0322 48.6802 67.6191 48.6802C66.1606 48.6802 64.9312 49.8911 64.9312 51.3193C64.9312 60.229 57.8481 67.376 48.9385 67.376C40.0288 67.376 32.9458 60.293 32.9458 51.3193C32.9458 42.4097 40.0288 35.3418 48.9385 35.3418C50.1938 35.3418 51.377 35.4512 52.3193 35.6548L46.0508 41.8374C45.4951 42.4268 45.229 43.023 45.229 43.8145C45.229 45.1753 46.3237 46.2515 47.7149 46.2515C48.3784 46.2515 49.0234 45.9365 49.4395 45.5542L59.2905 35.5518C60.2842 34.5615 60.2622 32.7427 59.2905 31.7222L49.5825 21.8223C49.106 21.2817 48.4273 20.9365 47.6997 20.9365C46.2598 20.9365 45.1987 22.0313 45.1987 23.4712C45.1987 24.1196 45.4346 24.7984 45.9111 25.2749L50.9521 30.3496C50.1831 30.2891 49.2373 30.1309 48.3286 30.1309C37.1758 30.1309 27.6001 39.3882 27.6001 51.2183Z" fill="#000000" fill-opacity="0.85"/>
 </g>
</svg>
