<?xml version="1.0" encoding="UTF-8"?>
<!--Generator: Apple Native CoreSVG 232.5-->
<!DOCTYPE svg
PUBLIC "-//W3C//DTD SVG 1.1//EN"
       "http://www.w3.org/Graphics/SVG/1.1/DTD/svg11.dtd">
<svg version="1.1" xmlns="http://www.w3.org/2000/svg" xmlns:xlink="http://www.w3.org/1999/xlink" width="97.9595" height="97.9932">
 <g>
  <rect height="97.9932" opacity="0" width="97.9595" x="0" y="0"/>
  <path d="M48.9722 97.9443C75.8247 97.9443 97.9595 75.7759 97.9595 48.9722C97.9595 22.1348 75.791 0 48.9385 0C22.1348 0 0 22.1348 0 48.9722C0 75.7759 22.1685 97.9443 48.9722 97.9443ZM48.9722 91.6113C25.3501 91.6113 6.36671 72.5942 6.36671 48.9722C6.36671 25.3501 25.3164 6.31789 48.9385 6.31789C72.5605 6.31789 91.6265 25.3501 91.6265 48.9722C91.6265 72.5942 72.5942 91.6113 48.9722 91.6113Z" fill="#000000" fill-opacity="0.85"/>
  <path d="M19.7012 48.9756C19.7012 50.52 20.7808 51.5659 22.2578 51.5659L46.562 51.5659L55.6069 51.1651L45.9975 60.0147L41.6465 64.1821C41.0688 64.6772 40.8061 65.3223 40.8061 66.1323C40.8061 67.6733 41.8706 68.6704 43.3325 68.6704C44.0684 68.6704 44.8667 68.2461 45.4443 67.687L62.4229 50.9175C63.019 50.3701 63.2852 49.6729 63.2852 48.9756C63.2852 48.2598 62.9854 47.5811 62.4229 47.0151L45.335 30.0537C44.7842 29.4878 44.0903 29.1948 43.3628 29.1948C41.938 29.1948 40.8061 30.1919 40.8061 31.6992C40.8061 32.4419 41.0688 33.1543 41.6465 33.6831L45.8882 37.8608L55.5732 46.8013L46.562 46.4004L22.2578 46.4004C20.7808 46.4004 19.7012 47.4648 19.7012 48.9756ZM70.0254 69.7334C71.5698 69.7334 72.6494 68.6875 72.6494 67.207L72.6494 30.6582C72.6494 29.1777 71.5698 28.1318 70.0254 28.1318C68.5635 28.1318 67.499 29.1777 67.499 30.6582L67.499 67.207C67.499 68.6875 68.5635 69.7334 70.0254 69.7334Z" fill="#000000" fill-opacity="0.85"/>
 </g>
</svg>
