<?xml version="1.0" encoding="UTF-8"?>
<!--Generator: Apple Native CoreSVG 232.5-->
<!DOCTYPE svg
PUBLIC "-//W3C//DTD SVG 1.1//EN"
       "http://www.w3.org/Graphics/SVG/1.1/DTD/svg11.dtd">
<svg version="1.1" xmlns="http://www.w3.org/2000/svg" xmlns:xlink="http://www.w3.org/1999/xlink" width="71.3472" height="71.3389">
 <g>
  <rect height="71.3389" opacity="0" width="71.3472" x="0" y="0"/>
  <path d="M71.3472 53.6104L71.2529 3.65675C71.2529 1.55469 69.8701 0.0708014 67.6821 0.0708014L17.6982 0.0708014C15.645 0.0708014 14.2285 1.65577 14.2285 3.43946C14.2285 5.22316 15.7983 6.68019 17.5786 6.68019L38.7334 6.68019L61.2295 6.11086L52.6318 13.9185L1.03418 65.5835C0.367188 66.2505 0 67.1011 0 67.918C0 69.7017 1.56983 71.3389 3.42091 71.3389C4.2715 71.3389 5.05812 71.0391 5.75539 70.3232L57.4053 18.7071L65.25 10.0908L64.6435 30.2144L64.6435 53.7451C64.6435 55.5103 66.146 57.1289 67.9785 57.1289C69.7773 57.1289 71.3472 55.6113 71.3472 53.6104Z" fill="#000000" fill-opacity="0.85"/>
 </g>
</svg>
