<?xml version="1.0" encoding="UTF-8"?>
<!--Generator: Apple Native CoreSVG 232.5-->
<!DOCTYPE svg
PUBLIC "-//W3C//DTD SVG 1.1//EN"
       "http://www.w3.org/Graphics/SVG/1.1/DTD/svg11.dtd">
<svg version="1.1" xmlns="http://www.w3.org/2000/svg" xmlns:xlink="http://www.w3.org/1999/xlink" width="88.4092" height="88.5371">
 <g>
  <rect height="88.5371" opacity="0" width="88.4092" x="0" y="0"/>
  <path d="M14.3936 88.5371L74.0005 88.5371C83.5733 88.5371 88.4092 83.6558 88.4092 74.2632L88.4092 14.4019C88.4092 5.00928 83.5733 0.127929 74.0005 0.127929L14.3936 0.127929C4.86963 0.127929 0 4.93018 0 14.4019L0 74.2632C0 83.7349 4.86963 88.5371 14.3936 88.5371ZM14.5064 82.4922C9.00294 82.4922 6.04494 79.6016 6.04494 73.9634L6.04494 14.7017C6.04494 9.06349 9.00294 6.17287 14.5064 6.17287L73.9028 6.17287C79.2969 6.17287 82.3643 9.06349 82.3643 14.7017L82.3643 73.9634C82.3643 79.6016 79.2969 82.4922 73.9028 82.4922Z" fill="#000000" fill-opacity="0.85"/>
  <path d="M60.0723 32.377C58.4082 32.377 57.2949 33.5088 57.2949 35.3379L57.2949 46.0557L57.7852 54.1118L51.6167 47.561L30.5449 26.4893C30.0127 25.9419 29.2969 25.5933 28.3521 25.5933C26.6729 25.5933 25.5747 26.6914 25.5747 28.4043C25.5747 29.1992 25.9233 29.9487 26.4556 30.481L47.5913 51.583L54.2095 57.834L47.1494 57.3101L35.3716 57.3101C33.5425 57.3101 32.377 58.4233 32.377 60.0874C32.377 61.7363 33.5088 62.8193 35.3042 62.8193L59.7505 62.8193C61.6353 62.8193 62.8682 61.9233 62.8682 59.7539L62.8682 35.3901C62.8682 33.6099 61.7363 32.377 60.0723 32.377Z" fill="#000000" fill-opacity="0.85"/>
 </g>
</svg>
