<?xml version="1.0" encoding="UTF-8"?>
<!--Generator: Apple Native CoreSVG 232.5-->
<!DOCTYPE svg
PUBLIC "-//W3C//DTD SVG 1.1//EN"
       "http://www.w3.org/Graphics/SVG/1.1/DTD/svg11.dtd">
<svg version="1.1" xmlns="http://www.w3.org/2000/svg" xmlns:xlink="http://www.w3.org/1999/xlink" width="88.4092" height="88.5371">
 <g>
  <rect height="88.5371" opacity="0" width="88.4092" x="0" y="0"/>
  <path d="M88.4092 14.4019L88.4092 74.2632C88.4092 83.6558 83.5733 88.5371 74.0005 88.5371L14.3936 88.5371C4.86963 88.5371 0 83.7349 0 74.2632L0 14.4019C0 4.93018 4.86963 0.127929 14.3936 0.127929L74.0005 0.127929C83.5733 0.127929 88.4092 5.00928 88.4092 14.4019ZM48.5298 45.3296C46.5591 45.3296 45.3633 46.2744 45.3633 48.4961L45.3633 65.4839C45.3633 67.0318 46.5928 68.2461 48.1406 68.2461C49.6699 68.2461 50.918 67.0318 50.918 65.4839L50.918 62.5127L50.5474 54.1602L64.6206 68.646C65.7676 69.8604 67.6304 69.8604 68.7622 68.6797C69.9429 67.5327 69.8755 65.6514 68.7285 64.5195L54.2915 50.5322L62.2183 50.854L65.4468 50.8843C67.0283 50.8843 68.2578 49.6548 68.2578 48.1406C68.2578 46.5439 67.0283 45.3296 65.4468 45.3296ZM19.6958 19.7144C18.5151 20.8462 18.5825 22.709 19.7295 23.8745L34.1665 37.8467L26.2397 37.5249L23.0112 37.5098C21.4634 37.5098 20.2002 38.7241 20.2002 40.2534C20.2002 41.8013 21.4634 43.0645 23.0112 43.0645L39.9282 43.0645C41.8989 43.0645 43.1284 42.1196 43.1284 39.8643L43.1284 22.9102C43.1284 21.3623 41.8652 20.1328 40.3174 20.1328C38.7881 20.1328 37.5737 21.3623 37.5737 22.9102L37.5737 25.8813L37.9106 34.2187L23.8374 19.748C22.6753 18.5185 20.8276 18.5185 19.6958 19.7144Z" fill="#000000" fill-opacity="0.85"/>
 </g>
</svg>
