<?xml version="1.0" encoding="UTF-8"?>
<!--Generator: Apple Native CoreSVG 232.5-->
<!DOCTYPE svg
PUBLIC "-//W3C//DTD SVG 1.1//EN"
       "http://www.w3.org/Graphics/SVG/1.1/DTD/svg11.dtd">
<svg version="1.1" xmlns="http://www.w3.org/2000/svg" xmlns:xlink="http://www.w3.org/1999/xlink" width="72.7974" height="98.2842">
 <g>
  <rect height="98.2842" opacity="0" width="72.7974" x="0" y="0"/>
  <path d="M72.7974 43.1387C72.7974 42.2241 72.4976 41.4712 71.812 40.7368L38.8604 7.84231C38.1597 7.12306 37.3394 6.75588 36.4063 6.75588C35.4731 6.75588 34.6377 7.12306 33.937 7.84231L1.03418 40.7368C0.333497 41.4712 0 42.2241 0 43.1387C0 44.9712 1.34912 46.3575 3.16993 46.3575C4.06935 46.3575 4.9839 46.0576 5.51955 45.4883L20.2851 30.8575L35.438 14.5591L33.4873 13.855L33.1353 27.1495L33.1353 95.0469C33.1353 96.9351 34.4878 98.2842 36.4063 98.2842C38.3096 98.2842 39.6773 96.9351 39.6773 95.0469L39.6773 27.1495L39.3101 13.855L37.3931 14.5591L52.5122 30.8575L67.2778 45.4883C67.8623 46.0576 68.728 46.3575 69.6274 46.3575C71.4482 46.3575 72.7974 44.9712 72.7974 43.1387ZM72.7974 3.50001C72.7974 1.59668 71.4819 0.180176 69.6123 0.180176L3.26759 0.180176C1.34912 0.180176 0 1.59668 0 3.50001C0 5.40333 1.34912 6.78615 3.26759 6.78615L69.6123 6.78615C71.4819 6.78615 72.7974 5.40333 72.7974 3.50001Z" fill="#000000" fill-opacity="0.85"/>
 </g>
</svg>
