<?xml version="1.0" encoding="UTF-8"?>
<!--Generator: Apple Native CoreSVG 232.5-->
<!DOCTYPE svg
PUBLIC "-//W3C//DTD SVG 1.1//EN"
       "http://www.w3.org/Graphics/SVG/1.1/DTD/svg11.dtd">
<svg version="1.1" xmlns="http://www.w3.org/2000/svg" xmlns:xlink="http://www.w3.org/1999/xlink" width="97.9595" height="97.9932">
 <g>
  <rect height="97.9932" opacity="0" width="97.9595" x="0" y="0"/>
  <path d="M97.9595 48.9722C97.9595 75.7759 75.8247 97.9443 48.9722 97.9443C22.1685 97.9443 0 75.7759 0 48.9722C0 22.1348 22.1348 0 48.9385 0C75.791 0 97.9595 22.1348 97.9595 48.9722ZM39.8941 29.9321C38.0464 29.9321 36.8657 31.0488 36.8657 32.7651C36.8657 34.478 38.0649 35.6099 39.9614 35.6099L51.8589 35.6099L59.0874 35.086L52.3008 41.4717L30.8584 62.8955C30.2773 63.4614 29.895 64.2446 29.895 65.0396C29.895 66.8047 31.0757 67.9365 32.7734 67.9365C33.752 67.9365 34.4678 67.5879 35.0674 67.022L56.4272 45.6284L62.7642 38.9092L62.2739 47.1338L62.2739 57.9712C62.2739 59.834 63.4058 61.0332 65.1523 61.0332C66.835 61.0332 68.0005 59.7329 68.0005 57.9189L68.0005 33.0986C68.0005 30.877 66.7339 29.9321 64.7969 29.9321Z" fill="#000000" fill-opacity="0.85"/>
 </g>
</svg>
