<?xml version="1.0" encoding="UTF-8"?>
<!--Generator: Apple Native CoreSVG 232.5-->
<!DOCTYPE svg
PUBLIC "-//W3C//DTD SVG 1.1//EN"
       "http://www.w3.org/Graphics/SVG/1.1/DTD/svg11.dtd">
<svg version="1.1" xmlns="http://www.w3.org/2000/svg" xmlns:xlink="http://www.w3.org/1999/xlink" width="97.9595" height="97.9932">
 <g>
  <rect height="97.9932" opacity="0" width="97.9595" x="0" y="0"/>
  <path d="M48.9722 97.9443C75.8247 97.9443 97.9595 75.7759 97.9595 48.9722C97.9595 22.1348 75.791 0 48.9385 0C22.1348 0 0 22.1348 0 48.9722C0 75.7759 22.1685 97.9443 48.9722 97.9443ZM48.9722 91.6113C25.3501 91.6113 6.36671 72.5942 6.36671 48.9722C6.36671 25.3501 25.3164 6.31789 48.9385 6.31789C72.5605 6.31789 91.6265 25.3501 91.6265 48.9722C91.6265 72.5942 72.5942 91.6113 48.9722 91.6113Z" fill="#000000" fill-opacity="0.85"/>
  <path d="M28.1885 69.7334C29.6504 69.7334 30.7149 68.6875 30.7149 67.207L30.7149 30.6582C30.7149 29.1777 29.6504 28.1318 28.1885 28.1318C26.6777 28.1318 25.5645 29.1777 25.5645 30.6582L25.5645 67.207C25.5645 68.6875 26.6777 69.7334 28.1885 69.7334ZM78.5464 48.9756C78.5464 47.4648 77.4331 46.4004 75.9561 46.4004L51.6519 46.4004L42.6407 46.8013L52.3257 37.8608L56.5674 33.6831C57.145 33.1543 57.4077 32.4419 57.4077 31.6992C57.4077 30.1919 56.3096 29.1948 54.8511 29.1948C54.1235 29.1948 53.4297 29.4878 52.9126 30.0537L35.8247 47.0151C35.2285 47.5811 34.9287 48.2598 34.9287 48.9756C34.9287 49.6729 35.1948 50.3701 35.8247 50.9175L52.8032 67.687C53.3472 68.2461 54.1455 68.6704 54.9151 68.6704C56.3618 68.6704 57.4077 67.6733 57.4077 66.1323C57.4077 65.3223 57.145 64.6772 56.5674 64.1821L52.2163 60.0147L42.607 51.1651L51.6519 51.5659L75.9561 51.5659C77.4331 51.5659 78.5464 50.52 78.5464 48.9756Z" fill="#000000" fill-opacity="0.85"/>
 </g>
</svg>
