<?xml version="1.0" encoding="UTF-8"?>
<!--Generator: Apple Native CoreSVG 232.5-->
<!DOCTYPE svg
PUBLIC "-//W3C//DTD SVG 1.1//EN"
       "http://www.w3.org/Graphics/SVG/1.1/DTD/svg11.dtd">
<svg version="1.1" xmlns="http://www.w3.org/2000/svg" xmlns:xlink="http://www.w3.org/1999/xlink" width="87.7075" height="103.331">
 <g>
  <rect height="103.331" opacity="0" width="87.7075" x="0" y="0"/>
  <path d="M43.8369 103.215C45.376 103.215 47.0195 102.686 48.9893 100.604L84.8276 62.1841C86.7393 60.1563 87.7075 58.7114 87.7075 56.667C87.7075 53.7334 85.3818 51.7764 82.5947 51.7764L62.1216 51.7764L62.1216 10.4131C62.1216 3.73828 58.4961 0 51.9678 0L35.4907 0C28.9775 0 25.3369 3.73828 25.3369 10.4131L25.3369 51.7764L4.91065 51.7764C2.12354 51.7764 0 53.7334 0 56.5996C0 58.6441 0.90088 60.3096 2.64405 62.1841L38.7183 100.604C40.6729 102.671 42.3315 103.215 43.8369 103.215Z" fill="#000000" fill-opacity="0.85"/>
 </g>
</svg>
