<?xml version="1.0" encoding="UTF-8"?>
<!--Generator: Apple Native CoreSVG 232.5-->
<!DOCTYPE svg
PUBLIC "-//W3C//DTD SVG 1.1//EN"
       "http://www.w3.org/Graphics/SVG/1.1/DTD/svg11.dtd">
<svg version="1.1" xmlns="http://www.w3.org/2000/svg" xmlns:xlink="http://www.w3.org/1999/xlink" width="91.4829" height="97.2041">
 <g>
  <rect height="97.2041" opacity="0" width="91.4829" x="0" y="0"/>
  <path d="M91.4829 67.3535C91.4829 49.4732 79.1997 37.2485 58.6142 37.2485L21.0034 37.2485L7.31984 37.7505L7.9717 39.3306L19.5479 28.9522L35.0064 13.7295C35.5571 13.145 35.8906 12.3989 35.8906 11.4473C35.8906 9.5591 34.5903 8.19484 32.5894 8.19484C31.791 8.19484 30.8696 8.59572 30.2363 9.22902L1.10157 38.0991C0.367188 38.7998 0 39.6201 0 40.5532C0 41.4527 0.367188 42.2881 1.10157 42.9888L30.2363 71.8589C30.8696 72.5259 31.791 72.8779 32.5894 72.8779C34.5903 72.8779 35.8906 71.5288 35.8906 69.6406C35.8906 68.6738 35.5571 67.9429 35.0064 67.3584L19.5479 52.1543L7.9717 41.7422L7.31984 43.3374L21.0034 43.8242L59.0439 43.8242C75.4824 43.8242 84.9072 53.2764 84.9072 67.0318C84.9072 80.8208 75.4824 90.6621 59.0439 90.6621L45.6489 90.6621C43.6445 90.6621 42.3257 92.1157 42.3257 93.9331C42.3257 95.7354 43.6597 97.2041 45.6641 97.2041L59.123 97.2041C79.4204 97.2041 91.4829 85.2676 91.4829 67.3535Z" fill="#000000" fill-opacity="0.85"/>
 </g>
</svg>
