<?xml version="1.0" encoding="UTF-8"?>
<!--Generator: Apple Native CoreSVG 232.5-->
<!DOCTYPE svg
PUBLIC "-//W3C//DTD SVG 1.1//EN"
       "http://www.w3.org/Graphics/SVG/1.1/DTD/svg11.dtd">
<svg version="1.1" xmlns="http://www.w3.org/2000/svg" xmlns:xlink="http://www.w3.org/1999/xlink" width="97.9595" height="97.9932">
 <g>
  <rect height="97.9932" opacity="0" width="97.9595" x="0" y="0"/>
  <path d="M97.9595 48.9722C97.9595 75.7759 75.8247 97.9443 48.9722 97.9443C22.1685 97.9443 0 75.7759 0 48.9722C0 22.1348 22.1348 0 48.9385 0C75.791 0 97.9595 22.1348 97.9595 48.9722ZM55.1387 50.8638C55.1387 51.6099 55.3711 52.2549 55.8999 52.7837L61.9219 58.6221L64.9902 61.5591L61.856 61.4126L26.9346 61.4126C25.5064 61.4126 24.4116 62.4922 24.4116 63.9878C24.4116 65.4683 25.4761 66.627 26.9346 66.627L61.8223 66.627L64.9902 66.5479L61.9219 69.3838L55.9673 75.2559C55.4688 75.8184 55.1387 76.4297 55.1387 77.1758C55.1387 78.6074 56.2334 79.7022 57.665 79.7022C58.3403 79.7022 59.0225 79.4024 59.6035 78.8735L72.7158 65.8809C73.814 64.8013 73.7315 63.2046 72.7158 62.1587L59.6035 49.1509C59.0899 48.6558 58.3892 48.3711 57.665 48.3711C56.1846 48.3711 55.1387 49.417 55.1387 50.8638ZM38.292 19.2813L25.1611 32.1729C24.1152 33.2188 24.1455 34.9839 25.1611 35.9961L38.292 49.0039C38.8545 49.4653 39.5215 49.75 40.1968 49.75C41.6773 49.75 42.772 48.689 42.772 47.2573C42.772 46.5264 42.4756 45.8662 41.9131 45.3374L35.9888 39.499L32.9541 36.562L36.0547 36.7085L70.9424 36.7085C72.4043 36.7085 73.5327 35.5615 73.5327 34.0996C73.5327 32.6191 72.4531 31.5093 70.9424 31.5093L36.0884 31.5093L32.9878 31.5732L35.9888 28.7373L41.9131 22.8652C42.4756 22.3364 42.772 21.6426 42.772 20.9453C42.772 19.48 41.6773 18.4189 40.1968 18.4189C39.5366 18.4189 38.8208 18.7188 38.292 19.2813Z" fill="#000000" fill-opacity="0.85"/>
 </g>
</svg>
