<?xml version="1.0" encoding="UTF-8"?>
<!--Generator: Apple Native CoreSVG 232.5-->
<!DOCTYPE svg
PUBLIC "-//W3C//DTD SVG 1.1//EN"
       "http://www.w3.org/Graphics/SVG/1.1/DTD/svg11.dtd">
<svg version="1.1" xmlns="http://www.w3.org/2000/svg" xmlns:xlink="http://www.w3.org/1999/xlink" width="98.7788" height="121.636">
 <g>
  <rect height="121.636" opacity="0" width="98.7788" x="0" y="0"/>
  <path d="M98.7788 14.4087L98.7788 83.4419C98.7788 92.9473 93.9277 97.8506 84.5049 97.8506L75.1123 97.8506L75.1123 38.0776C75.1123 28.5386 70.3101 23.669 60.8384 23.669L23.6665 23.669L23.6665 14.4087C23.6665 4.86963 28.4688 0 37.9404 0L84.5049 0C93.9277 0 98.7788 4.86963 98.7788 14.4087ZM49.8384 9.6128C47.9019 9.6128 47.0161 10.8438 47.0161 12.1909L47.0161 13.1104C47.0161 14.4238 47.9019 15.7036 49.8384 15.7036L72.5918 15.7036C74.4946 15.7036 75.4292 14.4238 75.4292 13.1104L75.4292 12.1909C75.4292 10.8438 74.4946 9.6128 72.5918 9.6128Z" fill="#000000" fill-opacity="0.85"/>
  <path d="M0 107.111C0 116.65 4.80225 121.52 14.2739 121.52L60.8384 121.52C70.3101 121.52 75.1123 116.616 75.1123 107.111L75.1123 38.0776C75.1123 28.5386 70.3101 23.669 60.8384 23.669L14.2739 23.669C4.80225 23.669 0 28.5049 0 38.0776ZM6.04494 106.979L6.04494 38.1753C6.04494 32.7056 8.93556 29.7139 14.54 29.7139L60.5386 29.7139C66.1431 29.7139 69.0674 32.7056 69.0674 38.1753L69.0674 106.979C69.0674 112.483 66.1431 115.475 60.5386 115.475L14.54 115.475C8.93556 115.475 6.04494 112.483 6.04494 106.979Z" fill="#000000" fill-opacity="0.85"/>
  <path d="M15.5523 72.5513C15.5523 73.9644 16.5493 75.0103 17.9893 75.0103L42.8706 75.0103L50.8877 74.7593L45.352 79.8164L39.6284 85.4727C39.1484 85.9678 38.8521 86.5337 38.8521 87.2612C38.8521 88.5732 39.834 89.6377 41.1948 89.6377C41.9038 89.6377 42.4697 89.3565 42.9009 88.9102L57.375 74.4326C57.9595 73.8482 58.3081 73.3008 58.3081 72.521C58.3081 71.8877 58.0083 71.3101 57.375 70.6768L42.9009 56.1655C42.4697 55.7344 41.9038 55.4717 41.1948 55.4717C39.834 55.4717 38.8521 56.5176 38.8521 57.8145C38.8521 58.542 39.1821 59.1231 39.6284 59.603L45.352 65.293L50.8691 70.3315L42.8706 70.0991L17.9893 70.0991C16.5796 70.0991 15.5523 71.0474 15.5523 72.5513Z" fill="#000000" fill-opacity="0.85"/>
 </g>
</svg>
