<?xml version="1.0" encoding="UTF-8"?>
<!--Generator: Apple Native CoreSVG 232.5-->
<!DOCTYPE svg
PUBLIC "-//W3C//DTD SVG 1.1//EN"
       "http://www.w3.org/Graphics/SVG/1.1/DTD/svg11.dtd">
<svg version="1.1" xmlns="http://www.w3.org/2000/svg" xmlns:xlink="http://www.w3.org/1999/xlink" width="71.3472" height="71.3389">
 <g>
  <rect height="71.3389" opacity="0" width="71.3472" x="0" y="0"/>
  <path d="M71.3472 17.833C71.3472 15.7983 69.7773 14.3296 67.9785 14.3296C66.146 14.3296 64.6435 15.8994 64.6435 17.6982L64.6435 41.1953L65.25 61.3188L57.4053 52.7363L5.75539 1.10157C5.05812 0.404298 4.2715 0.0708014 3.42091 0.0708014C1.56983 0.0708014 0 1.75684 0 3.5254C0 4.30861 0.367188 5.19288 1.03418 5.85988L52.6318 57.4912L61.2295 65.3325L38.7334 64.7632L17.5786 64.7632C15.7983 64.7632 14.2285 66.2353 14.2285 68.0039C14.2285 69.7876 15.645 71.3389 17.6982 71.3389L67.6821 71.3389C69.8701 71.3389 71.2529 69.8887 71.2529 67.8018Z" fill="#000000" fill-opacity="0.85"/>
 </g>
</svg>
