<?xml version="1.0" encoding="UTF-8"?>
<!--Generator: Apple Native CoreSVG 232.5-->
<!DOCTYPE svg
PUBLIC "-//W3C//DTD SVG 1.1//EN"
       "http://www.w3.org/Graphics/SVG/1.1/DTD/svg11.dtd">
<svg version="1.1" xmlns="http://www.w3.org/2000/svg" xmlns:xlink="http://www.w3.org/1999/xlink" width="80.7363" height="104.094">
 <g>
  <rect height="104.094" opacity="0" width="80.7363" x="0" y="0"/>
  <path d="M37.3975 35.231C37.3975 40.936 40.1338 43.7026 45.8389 43.7026L80.7363 43.7026L80.7363 89.7187C80.7363 99.2241 75.9341 104.094 66.4624 104.094L14.2739 104.094C4.80225 104.094 0 99.2578 0 89.7187L0 14.4356C0 4.93018 4.88135 0.0268549 14.2739 0.0268549L37.3975 0.0268549ZM37.5908 54.8672L37.5908 75.2705L37.8232 83.9809L31.5269 77.6055L27.3848 73.3506C26.8677 72.8335 26.0879 72.5186 25.3906 72.5186C23.8613 72.5186 22.7666 73.6133 22.7666 75.0903C22.7666 76.0737 23.2363 76.707 23.8628 77.2813L38.3066 90.9839C39.041 91.6509 39.686 91.9473 40.3682 91.9473C41.0503 91.9473 41.6953 91.6509 42.4297 90.9839L56.8735 77.2813C57.5 76.707 57.9697 76.0737 57.9697 75.0903C57.9697 73.6133 56.8413 72.5186 55.3457 72.5186C54.6147 72.5186 53.8686 72.8335 53.3516 73.3506L49.2095 77.6055L42.9131 83.9809L43.1792 75.2705L43.1792 54.8672C43.1792 53.3716 41.8975 52.1572 40.3682 52.1572C38.8389 52.1572 37.5908 53.3716 37.5908 54.8672ZM48.1187 3.98438L76.7788 32.9814C78.6079 34.8291 79.8423 36.4038 80.0747 38.0122L46.1216 38.0122C44.0576 38.0122 43.0728 37.0273 43.0728 34.9971L43.0728 0.66992C44.7149 0.951171 46.3233 2.15527 48.1187 3.98438Z" fill="#000000" fill-opacity="0.85"/>
 </g>
</svg>
