<?xml version="1.0" encoding="UTF-8"?>
<!--Generator: Apple Native CoreSVG 232.5-->
<!DOCTYPE svg
PUBLIC "-//W3C//DTD SVG 1.1//EN"
       "http://www.w3.org/Graphics/SVG/1.1/DTD/svg11.dtd">
<svg version="1.1" xmlns="http://www.w3.org/2000/svg" xmlns:xlink="http://www.w3.org/1999/xlink" width="97.9595" height="97.9932">
 <g>
  <rect height="97.9932" opacity="0" width="97.9595" x="0" y="0"/>
  <path d="M48.9722 97.9443C75.8247 97.9443 97.9595 75.7759 97.9595 48.9722C97.9595 22.1348 75.791 0 48.9385 0C22.1348 0 0 22.1348 0 48.9722C0 75.7759 22.1685 97.9443 48.9722 97.9443ZM48.9722 91.6113C25.3501 91.6113 6.36671 72.5942 6.36671 48.9722C6.36671 25.3501 25.3164 6.31789 48.9385 6.31789C72.5605 6.31789 91.6265 25.3501 91.6265 48.9722C91.6265 72.5942 72.5942 91.6113 48.9722 91.6113Z" fill="#000000" fill-opacity="0.85"/>
  <path d="M18.8472 48.9722C18.8472 49.772 19.1436 50.7066 20.3203 51.8345L41.8765 72.0522C42.9038 72.9634 43.793 73.4702 44.9448 73.4702C46.5059 73.4702 47.582 72.3369 47.582 70.7573L47.582 59.2852L70.8062 59.2852C74.5122 59.2852 76.6069 57.273 76.6069 53.6646L76.6069 44.4194C76.6069 40.7773 74.5122 38.7651 70.8062 38.7651L47.582 38.7651L47.582 27.2393C47.582 25.6934 46.5059 24.4741 44.8774 24.4741C43.7593 24.4741 43.0049 24.9658 41.8765 26.0117L20.3203 46.0762C19.1436 47.2041 18.8472 48.1387 18.8472 48.9722Z" fill="#000000" fill-opacity="0.85"/>
 </g>
</svg>
