<?xml version="1.0" encoding="UTF-8"?>
<!--Generator: Apple Native CoreSVG 232.5-->
<!DOCTYPE svg
PUBLIC "-//W3C//DTD SVG 1.1//EN"
       "http://www.w3.org/Graphics/SVG/1.1/DTD/svg11.dtd">
<svg version="1.1" xmlns="http://www.w3.org/2000/svg" xmlns:xlink="http://www.w3.org/1999/xlink" width="88.4092" height="88.5371">
 <g>
  <rect height="88.5371" opacity="0" width="88.4092" x="0" y="0"/>
  <path d="M14.3936 88.5371L74.0005 88.5371C83.5733 88.5371 88.4092 83.6558 88.4092 74.2632L88.4092 14.4019C88.4092 5.00928 83.5733 0.127929 74.0005 0.127929L14.3936 0.127929C4.86963 0.127929 0 4.93018 0 14.4019L0 74.2632C0 83.7349 4.86963 88.5371 14.3936 88.5371ZM14.5064 82.4922C9.00294 82.4922 6.04494 79.6016 6.04494 73.9634L6.04494 14.7017C6.04494 9.06349 9.00294 6.17287 14.5064 6.17287L73.9028 6.17287C79.2969 6.17287 82.3643 9.06349 82.3643 14.7017L82.3643 73.9634C82.3643 79.6016 79.2969 82.4922 73.9028 82.4922Z" fill="#000000" fill-opacity="0.85"/>
  <path d="M23.4678 43.0645L40.0293 43.0645C41.9326 43.0645 43.1284 42.1533 43.1284 39.9653L43.1284 23.3667C43.1284 21.8711 41.8989 20.6904 40.4033 20.6904C38.9229 20.6904 37.727 21.8711 37.727 23.3667L37.727 26.3042L38.0791 34.4883L24.2603 20.2568C23.1318 19.0762 21.3027 19.0762 20.2046 20.2231C19.1064 21.3364 19.1401 23.1504 20.2383 24.2637L34.4209 38.0151L26.6626 37.6934L23.4678 37.6631C21.9722 37.6631 20.7578 38.8589 20.7578 40.3545C20.7578 41.835 21.9722 43.0645 23.4678 43.0645ZM48.0547 67.7036C49.5352 67.7036 50.731 66.523 50.731 65.0274L50.731 62.0899L50.3789 53.9058L64.1978 68.1221C65.3262 69.3179 67.1401 69.3179 68.2534 68.1558C69.3516 67.0576 69.3179 65.1948 68.2197 64.1304L54.0371 50.3789L61.7954 50.7007L64.9902 50.7158C66.4859 50.7158 67.7002 49.5352 67.7002 48.0396C67.7002 46.5103 66.4859 45.3296 64.9902 45.3296L48.4287 45.3296C46.5254 45.3296 45.3296 46.2407 45.3296 48.395L45.3296 65.0274C45.3296 66.523 46.5591 67.7036 48.0547 67.7036Z" fill="#000000" fill-opacity="0.85"/>
 </g>
</svg>
