<?xml version="1.0" encoding="UTF-8"?>
<!--Generator: Apple Native CoreSVG 232.5-->
<!DOCTYPE svg
PUBLIC "-//W3C//DTD SVG 1.1//EN"
       "http://www.w3.org/Graphics/SVG/1.1/DTD/svg11.dtd">
<svg version="1.1" xmlns="http://www.w3.org/2000/svg" xmlns:xlink="http://www.w3.org/1999/xlink" width="131.471" height="89.6279">
 <g>
  <rect height="89.6279" opacity="0" width="131.471" x="0" y="0"/>
  <path d="M45.1914 89.6279C46.8892 89.6279 48.0107 88.7505 48.4082 87.2212C53.5757 70.1709 62.2769 64.0762 77.5518 64.0762L80.0664 64.1553L80.0664 83.625C80.0664 86.4121 81.9897 88.5357 84.856 88.5357C86.9004 88.5357 88.5659 87.6348 90.4404 85.8916L128.894 49.8325C130.961 47.8628 131.471 46.2192 131.471 44.6987C131.471 43.1597 130.976 41.5161 128.894 39.5464L90.4404 3.70801C88.4126 1.79639 86.9678 0.828123 84.9233 0.828123C81.9897 0.828123 80.0664 3.15381 80.0664 5.94092L80.0664 25.4575L78.3779 25.4575C61.1538 25.4575 48.3081 35.0693 45.3413 55.768L44.9404 55.768C41.7378 33.7822 28.7031 25.4575 12.9497 25.4575C12.5694 25.4575 11.8184 25.4575 10.4878 25.4575C4.91504 25.4575 2.45654 27.7241 2.45654 33.8189L2.45654 57.1738C2.45654 62.1011 4.88135 64.2481 10.1997 64.2481C11.5132 64.2481 12.7256 64.2481 14.0879 64.2481C29.0073 64.2481 37.9932 72.4234 42.0083 87.1875C42.3569 88.7505 43.4448 89.6279 45.1914 89.6279ZM43.0122 77.9756C37.5737 63.0791 27.7373 58.4507 13.6987 58.3833C12.6919 58.3833 11.6817 58.3833 10.7085 58.3833C9.20021 58.3833 8.50148 57.5601 8.50148 55.8867L8.50148 33.8189C8.50148 32.1455 9.20021 31.2886 10.7759 31.2886C11.6314 31.2886 12.3823 31.2886 13.2378 31.2886C30.3603 31.4234 42.7729 42.9287 43.4131 77.9756ZM86.8555 80.6562C86.3706 80.6562 86.1113 80.3179 86.1113 79.8027L86.1113 59.9224C86.1113 58.8599 85.6499 58.4321 84.5874 58.4321L77.4136 58.3833C62.0205 58.3833 52.5059 63.8237 47.3892 77.9756L47.0034 77.9756C47.5273 45.3682 58.7642 31.1504 78.3042 31.1504L84.5874 31.1655C85.6499 31.1655 86.1113 30.7378 86.1113 29.6904L86.1113 9.26125C86.1113 8.81008 86.4346 8.50197 86.8706 8.50197C87.2881 8.50197 87.5776 8.75783 87.8823 9.01369L123.859 43.0899C124.567 43.7495 124.82 44.209 124.82 44.6987C124.82 45.1885 124.583 45.6294 123.859 46.3076L87.8672 80.1108C87.4683 80.4946 87.145 80.6562 86.8555 80.6562Z" fill="#000000" fill-opacity="0.85"/>
 </g>
</svg>
