<?xml version="1.0" encoding="UTF-8"?>
<!--Generator: Apple Native CoreSVG 232.5-->
<!DOCTYPE svg
PUBLIC "-//W3C//DTD SVG 1.1//EN"
       "http://www.w3.org/Graphics/SVG/1.1/DTD/svg11.dtd">
<svg version="1.1" xmlns="http://www.w3.org/2000/svg" xmlns:xlink="http://www.w3.org/1999/xlink" width="97.9595" height="97.9932">
 <g>
  <rect height="97.9932" opacity="0" width="97.9595" x="0" y="0"/>
  <path d="M48.9722 97.9443C75.8247 97.9443 97.9595 75.7759 97.9595 48.9722C97.9595 22.1348 75.791 0 48.9385 0C22.1348 0 0 22.1348 0 48.9722C0 75.7759 22.1685 97.9443 48.9722 97.9443ZM48.9722 91.6113C25.3501 91.6113 6.36671 72.5942 6.36671 48.9722C6.36671 25.3501 25.3164 6.31789 48.9385 6.31789C72.5605 6.31789 91.6265 25.3501 91.6265 48.9722C91.6265 72.5942 72.5942 91.6113 48.9722 91.6113Z" fill="#000000" fill-opacity="0.85"/>
  <path d="M53.9522 24.813C42.8506 24.813 35.9673 32.791 35.9673 43.9141L35.9673 60.2661L36.1138 65.8496L33.48 62.522L26.9473 55.8394C26.4336 55.3105 25.7363 54.9316 24.9229 54.9316C23.3447 54.9316 22.1152 56.1123 22.1152 57.6719C22.1152 58.5005 22.4116 59.1489 22.9775 59.6812L36.1611 72.6358C36.8398 73.3145 37.6836 73.7119 38.625 73.7119C39.585 73.7119 40.395 73.3145 41.0737 72.6358L54.3398 59.6626C54.8721 59.1152 55.1533 58.4668 55.1533 57.6382C55.1533 56.1123 53.9727 54.9316 52.3608 54.9316C51.5996 54.9316 50.8838 55.2432 50.355 55.8057L43.145 63.1992L41.1362 65.8496L41.335 60.2661L41.335 43.9141C41.335 36.1006 45.9058 30.4014 53.6826 30.4014C61.5942 30.4014 66.5879 35.9995 66.5879 43.9478C66.5879 44.8364 66.5879 50.9634 66.5879 51.1738C66.5879 52.7856 67.5664 54.0186 69.2979 54.0186C71.063 54.0186 72.0415 52.7856 72.0415 51.1064C72.0415 50.8623 72.0415 44.8364 72.0415 43.9478C72.0415 32.8247 65.0049 24.813 53.9522 24.813Z" fill="#000000" fill-opacity="0.85"/>
 </g>
</svg>
