<?xml version="1.0" encoding="UTF-8"?>
<!--Generator: Apple Native CoreSVG 232.5-->
<!DOCTYPE svg
PUBLIC "-//W3C//DTD SVG 1.1//EN"
       "http://www.w3.org/Graphics/SVG/1.1/DTD/svg11.dtd">
<svg version="1.1" xmlns="http://www.w3.org/2000/svg" xmlns:xlink="http://www.w3.org/1999/xlink" width="97.9595" height="97.9932">
 <g>
  <rect height="97.9932" opacity="0" width="97.9595" x="0" y="0"/>
  <path d="M97.9595 49.021C97.9595 75.8584 75.8247 97.9932 48.9722 97.9932C22.1685 97.9932 0 75.8584 0 49.021C0 22.2173 22.1348 0.0488281 48.9385 0.0488281C75.791 0.0488281 97.9595 22.2173 97.9595 49.021ZM45.1314 23.0112C45.1314 23.6934 45.4009 24.3906 45.8774 24.916L50.9521 30.043C50.1831 29.9487 49.2373 29.8394 48.3286 29.8394C36.9551 29.8394 27.1772 39.25 27.1772 51.3008C27.1772 63.5352 36.854 73.2793 48.9722 73.2793C61.1206 73.2793 70.752 63.5352 70.752 51.4356C70.752 49.9399 69.4736 48.6953 68.042 48.6953C66.501 48.6953 65.2529 49.9399 65.2529 51.4356C65.2529 60.5474 58.0352 67.814 48.9722 67.814C39.8941 67.814 32.6763 60.5625 32.6763 51.4356C32.6763 42.3726 39.8941 35.1362 48.9722 35.1362C50.2275 35.1362 51.4106 35.2456 52.353 35.4492L46.0171 41.7515C45.4614 42.3071 45.1616 42.9858 45.1616 43.7437C45.1616 45.1567 46.29 46.3154 47.7485 46.3154C48.4121 46.3154 49.0757 45.9517 49.5068 45.5357L59.5449 35.3462C60.5723 34.3223 60.5503 32.5186 59.5449 31.4155L49.6499 21.3135C49.1734 20.7544 48.4609 20.4092 47.7334 20.4092C46.2261 20.4092 45.1314 21.5376 45.1314 23.0112Z" fill="#000000" fill-opacity="0.85"/>
 </g>
</svg>
