<?xml version="1.0" encoding="UTF-8"?>
<!--Generator: Apple Native CoreSVG 232.5-->
<!DOCTYPE svg
PUBLIC "-//W3C//DTD SVG 1.1//EN"
       "http://www.w3.org/Graphics/SVG/1.1/DTD/svg11.dtd">
<svg version="1.1" xmlns="http://www.w3.org/2000/svg" xmlns:xlink="http://www.w3.org/1999/xlink" width="88.4092" height="88.5371">
 <g>
  <rect height="88.5371" opacity="0" width="88.4092" x="0" y="0"/>
  <path d="M14.3936 88.5371L74.0005 88.5371C83.5733 88.5371 88.4092 83.6558 88.4092 74.2632L88.4092 14.4019C88.4092 5.00928 83.5733 0.127929 74.0005 0.127929L14.3936 0.127929C4.86963 0.127929 0 4.93018 0 14.4019L0 74.2632C0 83.7349 4.86963 88.5371 14.3936 88.5371ZM14.5064 82.4922C9.00294 82.4922 6.04494 79.6016 6.04494 73.9634L6.04494 14.7017C6.04494 9.06349 9.00294 6.17287 14.5064 6.17287L73.9028 6.17287C79.2969 6.17287 82.3643 9.06349 82.3643 14.7017L82.3643 73.9634C82.3643 79.6016 79.2969 82.4922 73.9028 82.4922Z" fill="#000000" fill-opacity="0.85"/>
  <path d="M44.1953 72.0537C45.7061 72.0537 46.7705 70.9404 46.7705 69.4634L46.7705 45.1592L46.3848 36.148L54.9028 45.5049L59.4878 50.0899C60.0469 50.6675 60.729 50.9151 61.4717 50.9151C62.9453 50.9151 63.9912 49.7832 63.9912 48.3887C63.9912 47.6006 63.6377 46.9219 63.0078 46.2769L46.1221 29.332C45.5899 28.7358 44.9111 28.4512 44.1953 28.4512C43.4981 28.4512 42.8008 28.7173 42.2686 29.332L25.3257 46.3862C24.8608 46.9336 24.5005 47.6983 24.5005 48.3735C24.5005 49.8506 25.4976 50.9151 27.0386 50.9151C27.8486 50.9151 28.4448 50.6675 28.9888 50.0899L32.998 45.833L42.0059 36.1143L41.605 45.1592L41.605 69.4634C41.605 70.9404 42.6509 72.0537 44.1953 72.0537ZM25.979 24.2222L62.5127 24.2222C63.9932 24.2222 65.0391 23.1577 65.0391 21.6958C65.0391 20.1514 63.9932 19.0718 62.5127 19.0718L25.979 19.0718C24.4834 19.0718 23.4375 20.1514 23.4375 21.6958C23.4375 23.1577 24.4834 24.2222 25.979 24.2222Z" fill="#000000" fill-opacity="0.85"/>
 </g>
</svg>
