<?xml version="1.0" encoding="UTF-8"?>
<!--Generator: Apple Native CoreSVG 232.5-->
<!DOCTYPE svg
PUBLIC "-//W3C//DTD SVG 1.1//EN"
       "http://www.w3.org/Graphics/SVG/1.1/DTD/svg11.dtd">
<svg version="1.1" xmlns="http://www.w3.org/2000/svg" xmlns:xlink="http://www.w3.org/1999/xlink" width="99.1226" height="87.2852">
 <g>
  <rect height="87.2852" opacity="0" width="99.1226" x="0" y="0"/>
  <path d="M99.1226 13.4629L99.1226 73.1206C99.1226 82.7959 94.5508 87.2852 84.6988 87.2852L14.4238 87.2852C4.60547 87.2852 0 82.7959 0 73.1206L0 47.6392C0 41.2471 1.8169 37.9566 6.64503 34.2988L43.5401 6.24366C49.5313 1.74268 54.2544 0.0942379 61.4566 0.0942379L85.6529 0.0942379C94.4414 0.0942379 99.1226 4.72656 99.1226 13.4629ZM56.7666 51.3325C54.478 51.3325 53.582 53.2202 54.7559 55.1216L65.333 72.5313C66.5186 74.4595 68.8037 74.4107 69.9253 72.5313L80.6153 55.0913C81.7891 53.2051 80.8257 51.3325 78.5708 51.3325ZM61.4566 6.12404C55.5547 6.12404 52.002 7.19826 47.564 10.6851L11.5503 38.2446C9.35159 39.876 10.0552 42.9922 12.9155 42.9922L85.5064 42.9922C90.1651 42.9922 93.0928 40.147 93.0928 35.3535L93.0928 13.7627C93.0928 8.85988 90.2896 6.12404 85.5064 6.12404Z" fill="#000000" fill-opacity="0.85"/>
  <path d="M69.9253 14.4761L80.6153 31.916C81.7891 33.8174 80.8257 35.69 78.5708 35.69L56.7666 35.69C54.478 35.69 53.582 33.7871 54.7559 31.9009L65.333 14.4761C66.5186 12.5479 68.8037 12.6118 69.9253 14.4761Z" fill="#000000" fill-opacity="0.85"/>
 </g>
</svg>
