<?xml version="1.0" encoding="UTF-8"?>
<!--Generator: Apple Native CoreSVG 232.5-->
<!DOCTYPE svg
PUBLIC "-//W3C//DTD SVG 1.1//EN"
       "http://www.w3.org/Graphics/SVG/1.1/DTD/svg11.dtd">
<svg version="1.1" xmlns="http://www.w3.org/2000/svg" xmlns:xlink="http://www.w3.org/1999/xlink" width="91.4829" height="97.2041">
 <g>
  <rect height="97.2041" opacity="0" width="91.4829" x="0" y="0"/>
  <path d="M0 67.3535C0 85.2676 12.0288 97.2041 32.3599 97.2041L45.8188 97.2041C47.8232 97.2041 49.1572 95.7354 49.1572 93.9331C49.1572 92.1157 47.8535 90.6621 45.8491 90.6621L32.439 90.6621C16.0005 90.6621 6.54201 80.8208 6.54201 67.0318C6.54201 53.2764 16.0005 43.8242 32.439 43.8242L70.4458 43.8242L84.1631 43.3374L83.5264 41.7422L71.9014 52.1543L56.4766 67.3584C55.8921 67.9429 55.5923 68.6738 55.5923 69.6406C55.5923 71.5288 56.8926 72.8779 58.8599 72.8779C59.6919 72.8779 60.6133 72.5259 61.2466 71.8589L90.3965 42.9888C91.1157 42.2881 91.4829 41.4527 91.4829 40.5532C91.4829 39.6201 91.1157 38.7998 90.3965 38.0991L61.2466 9.22902C60.6133 8.59572 59.6919 8.19484 58.8599 8.19484C56.8926 8.19484 55.5923 9.5591 55.5923 11.4473C55.5923 12.3989 55.8921 13.145 56.4766 13.7295L71.9014 28.9522L83.5264 39.3306L84.1631 37.7505L70.4458 37.2485L32.8838 37.2485C12.2495 37.2485 0 49.4732 0 67.3535Z" fill="#000000" fill-opacity="0.85"/>
 </g>
</svg>
