<?xml version="1.0" encoding="UTF-8"?>
<!--Generator: Apple Native CoreSVG 232.5-->
<!DOCTYPE svg
PUBLIC "-//W3C//DTD SVG 1.1//EN"
       "http://www.w3.org/Graphics/SVG/1.1/DTD/svg11.dtd">
<svg version="1.1" xmlns="http://www.w3.org/2000/svg" xmlns:xlink="http://www.w3.org/1999/xlink" width="51.4093" height="97.1179">
 <g>
  <rect height="97.1179" opacity="0" width="51.4093" x="0" y="0"/>
  <path d="M13.8077 93.1444C15.8609 93.1444 17.0113 91.9115 17.0113 89.7943L17.0113 50.2035L14.2003 50.2035C18.1319 63.1483 31.1153 73.4217 46.794 78.0677C48.9264 78.8055 50.5973 77.6771 51.1363 76.242C51.7276 74.7616 51.2291 72.9744 49.0968 72.0682C31.7081 66.0692 17.0113 53.2137 17.0113 36.0037L17.0113 15.2479L10.5704 15.2479L10.5704 89.7943C10.5704 91.9115 11.7056 93.1444 13.8077 93.1444ZM2.84969 20.8504L24.7169 20.8504C27.5479 20.8504 28.336 18.8968 26.753 16.6048L16.1031 1.42221C14.7677-0.457187 12.8326-0.490878 11.4786 1.42221L0.828693 16.5863C-0.788009 18.8968 7.79875e-05 20.8504 2.84969 20.8504Z" fill="#000000" fill-opacity="0.85"/>
 </g>
</svg>
