<?xml version="1.0" encoding="UTF-8"?>
<!--Generator: Apple Native CoreSVG 232.5-->
<!DOCTYPE svg
PUBLIC "-//W3C//DTD SVG 1.1//EN"
       "http://www.w3.org/Graphics/SVG/1.1/DTD/svg11.dtd">
<svg version="1.1" xmlns="http://www.w3.org/2000/svg" xmlns:xlink="http://www.w3.org/1999/xlink" width="125.251" height="100.561">
 <g>
  <rect height="100.561" opacity="0" width="125.251" x="0" y="0"/>
  <path d="M78.4668 100.493L112.56 100.493C120.413 100.493 125.251 95.8086 125.251 88.1763L125.251 12.3169C125.251 4.68457 120.413 0 112.56 0L78.4668 0C70.5987 0 65.7422 4.68457 65.7422 12.3169L65.7422 88.1763C65.7422 95.8086 70.5987 100.493 78.4668 100.493Z" fill="#000000" fill-opacity="0.85"/>
  <path d="M3.271 87.9185C5.17433 87.9185 6.54201 86.5694 6.54201 84.666L6.54201 77.0625C6.54201 60.2153 16.8086 53.4932 31.169 53.4932L36.3442 53.4932L48.8858 53.1597L48.8858 51.2427L36.4976 62.8223L30.8389 67.9722C30.0034 68.6729 29.8013 69.5757 29.8013 70.4751C29.8013 72.2774 31.1875 73.6602 33.02 73.6602C33.9195 73.6602 34.7027 73.3267 35.6709 72.3921L55.2808 52.71C56.0152 52.0093 56.4009 51.189 56.4009 50.2559C56.4009 49.3228 56.0152 48.4873 55.2808 47.8018L35.4219 27.8857C34.6875 27.1514 33.9195 26.8516 33.02 26.8516C31.1875 26.8516 29.8013 28.2007 29.8013 30.0215C29.8013 30.9209 30.0337 31.854 30.8389 32.5396L36.4976 37.6895L48.8858 49.2539L48.8858 47.3521L36.3442 47.0186L31.169 47.0186C14.2285 47.0186 0 55.4468 0 77.0777L0 84.666C0 86.5694 1.36768 87.9185 3.271 87.9185Z" fill="#000000" fill-opacity="0.85"/>
 </g>
</svg>
