<?xml version="1.0" encoding="UTF-8"?>
<!--Generator: Apple Native CoreSVG 232.5-->
<!DOCTYPE svg
PUBLIC "-//W3C//DTD SVG 1.1//EN"
       "http://www.w3.org/Graphics/SVG/1.1/DTD/svg11.dtd">
<svg version="1.1" xmlns="http://www.w3.org/2000/svg" xmlns:xlink="http://www.w3.org/1999/xlink" width="131.471" height="89.6279">
 <g>
  <rect height="89.6279" opacity="0" width="131.471" x="0" y="0"/>
  <path d="M45.1914 89.6279C46.8892 89.6279 48.0107 88.7505 48.4082 87.2212C53.5757 70.1709 62.2769 64.0762 77.5518 64.0762L80.0664 64.1553L80.0664 83.625C80.0664 86.4121 81.9897 88.5357 84.856 88.5357C86.9004 88.5357 88.5659 87.6348 90.4404 85.8916L128.894 49.8325C130.961 47.8628 131.471 46.2192 131.471 44.6987C131.471 43.1597 130.976 41.5161 128.894 39.5464L90.4404 3.70801C88.4126 1.79639 86.9678 0.828123 84.9233 0.828123C81.9897 0.828123 80.0664 3.15381 80.0664 5.94092L80.0664 25.4575L78.3779 25.4575C61.1538 25.4575 48.3081 35.0693 45.3413 55.768L44.9404 55.768C41.7378 33.7822 28.7031 25.4575 12.9497 25.4575C12.5694 25.4575 11.8184 25.4575 10.4878 25.4575C4.91504 25.4575 2.45654 27.7241 2.45654 33.8189L2.45654 57.1738C2.45654 62.1011 4.88135 64.2481 10.1997 64.2481C11.5132 64.2481 12.7256 64.2481 14.0879 64.2481C29.0073 64.2481 37.9932 72.4234 42.0083 87.1875C42.3569 88.7505 43.4448 89.6279 45.1914 89.6279Z" fill="#000000" fill-opacity="0.85"/>
 </g>
</svg>
