<?xml version="1.0" encoding="UTF-8"?>
<!--Generator: Apple Native CoreSVG 232.5-->
<!DOCTYPE svg
PUBLIC "-//W3C//DTD SVG 1.1//EN"
       "http://www.w3.org/Graphics/SVG/1.1/DTD/svg11.dtd">
<svg version="1.1" xmlns="http://www.w3.org/2000/svg" xmlns:xlink="http://www.w3.org/1999/xlink" width="97.9595" height="97.9932">
 <g>
  <rect height="97.9932" opacity="0" width="97.9595" x="0" y="0"/>
  <path d="M97.9595 48.9722C97.9595 75.7759 75.8247 97.9443 48.9722 97.9443C22.1685 97.9443 0 75.7759 0 48.9722C0 22.1348 22.1348 0 48.9385 0C75.791 0 97.9595 22.1348 97.9595 48.9722ZM56.6133 41.5317C55.9531 41.5317 55.2188 41.8652 54.7236 42.3569C53.6255 43.4551 53.6255 44.917 54.7051 45.9629C55.2373 46.4614 55.8486 46.7427 56.5762 46.7427L65.0039 46.6265L69.1948 46.5742L66.9224 48.6514L42.2222 73.3516C41.1763 74.3823 41.1763 75.8931 42.2407 76.9727C43.2715 77.9883 44.8462 78.0674 45.877 76.9727L70.5923 52.3399L72.752 50.0337L72.602 54.2095L72.5044 62.6489C72.5347 63.3462 72.7671 64.0215 73.2959 64.5537C74.3115 65.5693 75.8223 65.5693 76.8716 64.5537C77.3667 64.0923 77.5991 63.3765 77.6328 62.6152L77.7676 44.1338C77.7676 42.5894 76.5718 41.4912 75.1099 41.4912ZM52.1616 21.0659L27.4951 45.7476L25.4028 47.9863L25.4854 43.8779L25.5527 35.4688C25.5864 34.7109 25.3052 34.0171 24.7915 33.5337C23.7422 32.4844 22.2163 32.4844 21.1856 33.5337C20.7056 34.0288 20.4058 34.7783 20.4058 35.5059L20.2524 53.9199C20.2524 55.4155 21.5493 56.6484 22.9775 56.6299L41.4741 56.5254C42.2354 56.4917 42.8384 56.1919 43.3638 55.6968C44.4131 54.6812 44.4131 53.189 43.3823 52.1582C42.8804 51.626 42.2051 51.3784 41.4624 51.3784L33.0869 51.4307L28.8623 51.5283L31.1836 49.4023L55.8315 24.7359C56.8472 23.7051 56.9111 22.1607 55.8315 21.0811C54.8159 20.0503 53.2412 20.02 52.1616 21.0659Z" fill="#000000" fill-opacity="0.85"/>
 </g>
</svg>
