<?xml version="1.0" encoding="UTF-8"?>
<!--Generator: Apple Native CoreSVG 232.5-->
<!DOCTYPE svg
PUBLIC "-//W3C//DTD SVG 1.1//EN"
       "http://www.w3.org/Graphics/SVG/1.1/DTD/svg11.dtd">
<svg version="1.1" xmlns="http://www.w3.org/2000/svg" xmlns:xlink="http://www.w3.org/1999/xlink" width="88.4092" height="88.5371">
 <g>
  <rect height="88.5371" opacity="0" width="88.4092" x="0" y="0"/>
  <path d="M88.4092 14.4019L88.4092 74.2632C88.4092 83.6558 83.5733 88.5371 74.0005 88.5371L14.3936 88.5371C4.86963 88.5371 0 83.7349 0 74.2632L0 14.4019C0 4.93018 4.86963 0.127929 14.3936 0.127929L74.0005 0.127929C83.5733 0.127929 88.4092 5.00928 88.4092 14.4019ZM23.0112 45.3296C21.4634 45.3296 20.2002 46.5439 20.2002 48.1406C20.2002 49.6548 21.4634 50.8843 23.0112 50.8843L26.2397 50.854L34.1665 50.5322L19.7295 64.5195C18.5825 65.6514 18.5151 67.5327 19.6958 68.6797C20.8276 69.8604 22.6753 69.8604 23.8374 68.646L37.9106 54.1602L37.5737 62.5127L37.5737 65.4839C37.5737 67.0318 38.7881 68.2461 40.3174 68.2461C41.8652 68.2461 43.1284 67.0318 43.1284 65.4839L43.1284 48.4961C43.1284 46.2744 41.8989 45.3296 39.9282 45.3296ZM64.6206 19.748L50.5474 34.2187L50.918 25.8813L50.918 22.9102C50.918 21.3623 49.6699 20.1328 48.1406 20.1328C46.5928 20.1328 45.3633 21.3623 45.3633 22.9102L45.3633 39.8643C45.3633 42.1196 46.5591 43.0645 48.5298 43.0645L65.4468 43.0645C67.0283 43.0645 68.2578 41.8013 68.2578 40.2534C68.2578 38.7241 67.0283 37.5098 65.4468 37.5098L62.2183 37.5249L54.2915 37.8467L68.7285 23.8745C69.8755 22.709 69.9429 20.8462 68.7622 19.7144C67.6304 18.5185 65.7676 18.5185 64.6206 19.748Z" fill="#000000" fill-opacity="0.85"/>
 </g>
</svg>
