<?xml version="1.0" encoding="UTF-8"?>
<!--Generator: Apple Native CoreSVG 232.5-->
<!DOCTYPE svg
PUBLIC "-//W3C//DTD SVG 1.1//EN"
       "http://www.w3.org/Graphics/SVG/1.1/DTD/svg11.dtd">
<svg version="1.1" xmlns="http://www.w3.org/2000/svg" xmlns:xlink="http://www.w3.org/1999/xlink" width="88.4092" height="88.5371">
 <g>
  <rect height="88.5371" opacity="0" width="88.4092" x="0" y="0"/>
  <path d="M14.3936 88.5371L74.0005 88.5371C83.5733 88.5371 88.4092 83.6558 88.4092 74.2632L88.4092 14.4019C88.4092 5.00928 83.5733 0.127929 74.0005 0.127929L14.3936 0.127929C4.86963 0.127929 0 4.93018 0 14.4019L0 74.2632C0 83.7349 4.86963 88.5371 14.3936 88.5371ZM14.5064 82.4922C9.00294 82.4922 6.04494 79.6016 6.04494 73.9634L6.04494 14.7017C6.04494 9.06349 9.00294 6.17287 14.5064 6.17287L73.9028 6.17287C79.2969 6.17287 82.3643 9.06349 82.3643 14.7017L82.3643 73.9634C82.3643 79.6016 79.2969 82.4922 73.9028 82.4922Z" fill="#000000" fill-opacity="0.85"/>
  <path d="M20.8931 27.8003C19.8623 28.8125 19.9111 30.544 20.8931 31.5225L33.7695 44.2759C34.2983 44.7373 34.999 45.022 35.6558 45.022C37.0874 45.022 38.1148 43.9946 38.1148 42.5815C38.1148 41.8994 37.8184 41.2393 37.3384 40.7441L31.4663 34.9731L28.4317 32.0547L31.4986 32.2012L65.8101 32.2012C67.2383 32.2012 68.2993 31.0879 68.2993 29.6748C68.2993 28.2466 67.2534 27.1553 65.8101 27.1553L31.5322 27.1553L28.4654 27.2344L31.4663 24.3984L37.3384 18.6123C37.8184 18.1172 38.1148 17.4234 38.1148 16.7749C38.1148 15.3281 37.0874 14.3008 35.6558 14.3008C34.9805 14.3008 34.2647 14.6006 33.7695 15.1294ZM67.5498 60.7974C68.5806 59.7515 68.5317 58.1885 67.5498 57.1763L54.6397 44.4229C54.1782 43.9277 53.4775 43.6431 52.7534 43.6431C51.3066 43.6431 50.2944 44.6553 50.2944 46.0835C50.2944 46.7808 50.5605 47.4258 51.0557 47.9209L57.0102 53.6919L60.0112 56.6104L56.9106 56.4639L22.6328 56.4639C21.2383 56.4639 20.1436 57.5098 20.1436 58.9565C20.1436 60.3848 21.1895 61.5098 22.6328 61.5098L56.8769 61.5098L60.0112 61.4307L57.0102 64.2666L51.0894 70.0527C50.6094 70.5815 50.2944 71.1929 50.2944 71.8901C50.2944 73.3032 51.3892 74.3643 52.7534 74.3643C53.395 74.3643 54.1108 74.0645 54.6397 73.5693Z" fill="#000000" fill-opacity="0.85"/>
 </g>
</svg>
