<?xml version="1.0" encoding="UTF-8"?>
<!--Generator: Apple Native CoreSVG 232.5-->
<!DOCTYPE svg
PUBLIC "-//W3C//DTD SVG 1.1//EN"
       "http://www.w3.org/Graphics/SVG/1.1/DTD/svg11.dtd">
<svg version="1.1" xmlns="http://www.w3.org/2000/svg" xmlns:xlink="http://www.w3.org/1999/xlink" width="134.369" height="99.1709">
 <g>
  <rect height="99.1709" opacity="0" width="134.369" x="0" y="0"/>
  <path d="M53.8018 10.8032L53.8018 12.6233L24.1963 40.2525C21.0864 43.1367 19.8218 46.3447 19.8218 49.5274C19.8218 52.6763 21.0864 55.8843 24.2149 58.7686L53.8018 86.5494L53.8018 88.4722C53.8018 91.2744 51.8784 93.398 49.0122 93.398C46.9678 93.398 45.3023 92.4971 43.4277 90.7539L4.98975 54.6797C3.12598 52.9439 2.39698 51.2212 2.39698 49.5611C2.39698 47.8184 3.12598 46.1294 4.98975 44.4087L43.4277 8.57033C45.4556 6.6587 46.9004 5.72413 48.9448 5.72413C51.8784 5.72413 53.8018 8.00099 53.8018 10.8032Z" fill="#000000" fill-opacity="0.85"/>
  <path d="M72.1123 93.3643C74.96 93.3643 76.9019 91.2407 76.9019 88.4385L76.9019 68.9688L78.6055 68.9688C98.9854 68.9688 111.539 74.2686 119.354 90.0689C120.745 92.7852 122.537 93.3643 124.391 93.3643C126.679 93.3643 128.693 91.3687 128.693 87.896C128.693 50.6465 111.76 30.2861 78.6055 30.2861L76.9019 30.2861L76.9019 10.7695C76.9019 7.9673 74.96 5.69044 72.0601 5.69044C69.982 5.69044 68.5371 6.62501 66.5093 8.53663L28.0899 44.375C26.2261 46.0957 25.4634 47.7998 25.4634 49.5274C25.4634 51.1875 26.2261 52.9102 28.0899 54.646L66.5093 90.7202C68.3687 92.4634 70.0342 93.3643 72.1123 93.3643Z" fill="#000000" fill-opacity="0.85"/>
 </g>
</svg>
