<?xml version="1.0" encoding="UTF-8"?>
<!--Generator: Apple Native CoreSVG 232.5-->
<!DOCTYPE svg
PUBLIC "-//W3C//DTD SVG 1.1//EN"
       "http://www.w3.org/Graphics/SVG/1.1/DTD/svg11.dtd">
<svg version="1.1" xmlns="http://www.w3.org/2000/svg" xmlns:xlink="http://www.w3.org/1999/xlink" width="77.0801" height="79.4336">
 <g>
  <rect height="79.4336" opacity="0" width="77.0801" x="0" y="0"/>
  <path d="M77.0801 5.07911C77.0801 2.01074 74.751 0.0825197 71.1084 0.0825197L5.938 0.0488281C2.29541 0.0488281 0 1.97705 0 5.04542C0 6.68067 0.712404 7.97413 1.56787 9.76759L33.0508 74.8882C34.708 78.2212 36.291 79.4336 38.5308 79.4336C40.7705 79.4336 42.3872 78.2212 44.0293 74.8882L75.4937 9.76759C76.3828 8.00782 77.0801 6.69923 77.0801 5.07911ZM70.0395 6.81251C70.0395 7.09864 69.8813 7.38478 69.7383 7.71974L39.4648 70.7666C39.2578 71.147 38.9751 71.5239 38.5308 71.5239C38.105 71.5239 37.8223 71.147 37.6152 70.7666L7.34181 7.68605C7.19875 7.35109 7.05568 7.08009 7.05568 6.77882C7.05568 6.36476 7.29299 6.09376 7.91066 6.09376L69.1357 6.12746C69.7383 6.12746 70.0395 6.39845 70.0395 6.81251Z" fill="#000000" fill-opacity="0.85"/>
 </g>
</svg>
