<?xml version="1.0" encoding="UTF-8"?>
<!--Generator: Apple Native CoreSVG 232.5-->
<!DOCTYPE svg
PUBLIC "-//W3C//DTD SVG 1.1//EN"
       "http://www.w3.org/Graphics/SVG/1.1/DTD/svg11.dtd">
<svg version="1.1" xmlns="http://www.w3.org/2000/svg" xmlns:xlink="http://www.w3.org/1999/xlink" width="88.4092" height="88.9072">
 <g>
  <rect height="88.9072" opacity="0" width="88.4092" x="0" y="0"/>
  <path d="M88.4092 14.2739L88.4092 74.1353C88.4092 83.5278 83.5733 88.4092 74.0005 88.4092L14.3936 88.4092C4.86963 88.4092 0 83.6069 0 74.1353L0 14.2739C0 4.80225 4.86963 0 14.3936 0L74.0005 0C83.5733 0 88.4092 4.88135 88.4092 14.2739ZM33.9238 19.6221L21.3159 32.4404C20.6035 33.1377 20.2397 34.0791 20.2397 34.9565C20.2397 35.8491 20.585 36.7114 21.3159 37.4727L33.9575 50.3921C34.52 50.9243 35.2022 51.2544 36.0679 51.2544C37.6611 51.2544 38.8941 49.9424 38.8941 48.3272C38.8941 47.4648 38.5454 46.7827 37.9644 46.1714L30.8755 39.2627L28.6714 37.6211L33.5796 37.8013L49.4268 37.8013C57.2422 37.8013 62.4312 42.5357 62.4312 49.585C62.4312 57.0083 57.1899 61.9448 49.3931 61.9448L42.3555 61.9448C40.6055 61.9448 39.4097 63.0918 39.4097 64.7896C39.4097 66.4839 40.6392 67.6006 42.4229 67.6006L49.3931 67.6006C60.5703 67.6006 68.1021 60.4678 68.1021 49.585C68.1021 39.1099 60.604 32.1455 49.4268 32.1455L33.5796 32.1455L28.6377 32.3442L31.5191 30.0405L37.9644 23.7417C38.5454 23.2129 38.8941 22.4482 38.8941 21.6685C38.8941 20.0381 37.7251 18.7412 36.0342 18.7412C35.1685 18.7412 34.52 19.041 33.9238 19.6221Z" fill="#000000" fill-opacity="0.85"/>
 </g>
</svg>
