<?xml version="1.0" encoding="UTF-8"?>
<!--Generator: Apple Native CoreSVG 232.5-->
<!DOCTYPE svg
PUBLIC "-//W3C//DTD SVG 1.1//EN"
       "http://www.w3.org/Graphics/SVG/1.1/DTD/svg11.dtd">
<svg version="1.1" xmlns="http://www.w3.org/2000/svg" xmlns:xlink="http://www.w3.org/1999/xlink" width="106.992" height="87.7227">
 <g>
  <rect height="87.7227" opacity="0" width="106.992" x="0" y="0"/>
  <path d="M106.992 43.8369C106.992 42.2979 106.497 40.6729 104.381 38.6846L65.9614 2.8462C63.9336 0.934571 62.4888 0 60.4443 0C57.5108 0 55.5537 2.27686 55.5537 5.07911L55.5537 24.5957L14.8491 24.5957C7.78517 24.5957 3.77735 28.4907 3.77735 35.3931L3.77735 52.481C3.77735 59.3833 7.78517 63.2783 14.8491 63.2783L55.5537 63.2783L55.5537 82.7481C55.5537 85.5503 57.5108 87.6738 60.377 87.6738C62.4214 87.6738 64.1021 86.773 65.9614 85.0298L104.381 48.9556C106.448 46.9858 106.992 45.3423 106.992 43.8369ZM100.307 43.8369C100.307 44.3267 100.119 44.7676 99.395 45.4458L63.3545 79.2339C62.9893 79.6177 62.666 79.7793 62.3428 79.7793C61.8916 79.7793 61.5987 79.4409 61.5987 78.9409L61.5987 59.0605C61.5987 57.998 61.1709 57.5703 60.1084 57.5703L14.9165 57.5703C11.4282 57.5703 9.50051 55.6577 9.50051 52.1812L9.50051 35.6929C9.50051 32.2163 11.4282 30.3037 14.9165 30.3037L60.1084 30.3037C61.1709 30.3037 61.5987 29.876 61.5987 28.8135L61.5987 8.39943C61.5987 7.94826 61.9219 7.62502 62.3916 7.62502C62.7754 7.62502 63.0987 7.88088 63.4185 8.13674L99.395 42.228C100.055 42.8726 100.307 43.3472 100.307 43.8369Z" fill="#000000" fill-opacity="0.85"/>
 </g>
</svg>
