<?xml version="1.0" encoding="UTF-8"?>
<!--Generator: Apple Native CoreSVG 232.5-->
<!DOCTYPE svg
PUBLIC "-//W3C//DTD SVG 1.1//EN"
       "http://www.w3.org/Graphics/SVG/1.1/DTD/svg11.dtd">
<svg version="1.1" xmlns="http://www.w3.org/2000/svg" xmlns:xlink="http://www.w3.org/1999/xlink" width="97.9595" height="97.9932">
 <g>
  <rect height="97.9932" opacity="0" width="97.9595" x="0" y="0"/>
  <path d="M97.9595 48.9722C97.9595 75.7759 75.8247 97.9443 48.9722 97.9443C22.1685 97.9443 0 75.7759 0 48.9722C0 22.1348 22.1348 0 48.9385 0C75.791 0 97.9595 22.1348 97.9595 48.9722ZM67.8882 30.2842L67.8882 67.5811C67.8882 69.1104 68.9863 70.1748 70.4819 70.1748C72.0938 70.1748 73.1919 69.1104 73.1919 67.5811L73.1919 30.2842C73.1919 28.7549 72.0938 27.6904 70.4819 27.6904C68.9863 27.6904 67.8882 28.7549 67.8882 30.2842ZM40.604 31.3438C40.604 32.1201 40.8667 32.8662 41.478 33.395L45.7685 37.6064L55.6743 46.7339L46.4609 46.333L21.7339 46.333C20.1895 46.333 19.0913 47.4312 19.0913 48.9756C19.0913 50.5874 20.1895 51.667 21.7339 51.667L46.4609 51.667L55.708 51.2324L45.8628 60.2842L41.478 64.4702C40.8667 64.9653 40.604 65.644 40.604 66.4878C40.604 68.0625 41.7173 69.0933 43.2466 69.0933C43.9673 69.0933 44.7993 68.6538 45.377 68.0762L62.7109 50.9697C63.3408 50.4038 63.6069 49.7066 63.6069 48.9756C63.6069 48.2261 63.2734 47.5625 62.7109 46.9478L45.2676 29.6646C44.7168 29.0649 43.9893 28.772 43.2617 28.772C41.7847 28.772 40.604 29.8027 40.604 31.3438Z" fill="#000000" fill-opacity="0.85"/>
 </g>
</svg>
