<?xml version="1.0" encoding="UTF-8"?>
<!--Generator: Apple Native CoreSVG 232.5-->
<!DOCTYPE svg
PUBLIC "-//W3C//DTD SVG 1.1//EN"
       "http://www.w3.org/Graphics/SVG/1.1/DTD/svg11.dtd">
<svg version="1.1" xmlns="http://www.w3.org/2000/svg" xmlns:xlink="http://www.w3.org/1999/xlink" width="97.9595" height="97.9932">
 <g>
  <rect height="97.9932" opacity="0" width="97.9595" x="0" y="0"/>
  <path d="M97.9595 49.021C97.9595 75.8584 75.8247 97.9932 48.9722 97.9932C22.1685 97.9932 0 75.8584 0 49.021C0 22.2173 22.1348 0.0488281 48.9385 0.0488281C75.791 0.0488281 97.9595 22.2173 97.9595 49.021ZM46.0425 19.8267L25.4356 41.7905C24.4907 42.8516 23.9653 43.7407 23.9653 44.9111C23.9653 46.5396 25.1323 47.6646 26.7642 47.6646L38.4385 47.6646L38.4385 71.2964C38.4385 75.1035 40.5181 77.2471 44.1939 77.2471L53.626 77.2471C57.3018 77.2471 59.3999 75.1035 59.3999 71.2964L59.3999 47.6646L71.1279 47.6646C72.7075 47.6646 73.9941 46.5396 73.9941 44.8589C73.9941 43.707 73.4688 42.9526 72.3892 41.7905L51.9356 19.8267C50.7739 18.6011 49.8394 18.3198 48.9722 18.3198C48.1387 18.3198 47.1856 18.6011 46.0425 19.8267Z" fill="#000000" fill-opacity="0.85"/>
 </g>
</svg>
