<?xml version="1.0" encoding="UTF-8"?>
<!--Generator: Apple Native CoreSVG 232.5-->
<!DOCTYPE svg
PUBLIC "-//W3C//DTD SVG 1.1//EN"
       "http://www.w3.org/Graphics/SVG/1.1/DTD/svg11.dtd">
<svg version="1.1" xmlns="http://www.w3.org/2000/svg" xmlns:xlink="http://www.w3.org/1999/xlink" width="88.4092" height="88.5371">
 <g>
  <rect height="88.5371" opacity="0" width="88.4092" x="0" y="0"/>
  <path d="M88.4092 14.4019L88.4092 74.2632C88.4092 83.6558 83.5733 88.5371 74.0005 88.5371L14.3936 88.5371C4.86963 88.5371 0 83.7349 0 74.2632L0 14.4019C0 4.93018 4.86963 0.127929 14.3936 0.127929L74.0005 0.127929C83.5733 0.127929 88.4092 5.00928 88.4092 14.4019ZM28.3555 25.2041C26.4185 25.2041 25.1855 26.1489 25.1855 28.3706L25.1855 53.1909C25.1855 55.0049 26.3174 56.3052 28 56.3052C29.7466 56.3052 30.8784 55.106 30.8784 53.2432L30.8784 42.4058L30.3882 34.1812L36.7251 40.9004L58.085 62.294C58.6846 62.8599 59.4004 63.2085 60.3789 63.2085C62.0918 63.2085 63.2573 62.0767 63.2573 60.3115C63.2573 59.5166 62.875 58.7334 62.294 58.1675L40.8516 36.7437L34.065 30.3579L41.2935 30.8819L53.1909 30.8819C55.0874 30.8819 56.2866 29.75 56.2866 28.0371C56.2866 26.3208 55.106 25.2041 53.2583 25.2041Z" fill="#000000" fill-opacity="0.85"/>
 </g>
</svg>
