<?xml version="1.0" encoding="UTF-8"?>
<!--Generator: Apple Native CoreSVG 232.5-->
<!DOCTYPE svg
PUBLIC "-//W3C//DTD SVG 1.1//EN"
       "http://www.w3.org/Graphics/SVG/1.1/DTD/svg11.dtd">
<svg version="1.1" xmlns="http://www.w3.org/2000/svg" xmlns:xlink="http://www.w3.org/1999/xlink" width="97.9595" height="97.9629">
 <g>
  <rect height="97.9629" opacity="0" width="97.9595" x="0" y="0"/>
  <path d="M97.9595 48.9722C97.9595 75.8096 75.8247 97.9595 48.9722 97.9595C22.1685 97.9595 0 75.8096 0 48.9722C0 22.1685 22.1348 0 48.9385 0C75.791 0 97.9595 22.1685 97.9595 48.9722ZM22.7593 38.9429L15.3535 49.7144C14.3262 51.2183 14.6597 52.9346 16.5981 52.9346L22.102 52.9346C24.377 66.6758 35.3452 76.0376 49.1406 76.0376C55.5 76.0376 61.9048 73.6133 66.3565 69.6367C68.2681 68.0806 68.6572 66.0493 67.2744 64.648C65.895 63.1978 64.1753 63.415 62.582 64.6714C58.3481 68.2114 54.2051 69.8613 49.1406 69.8613C38.6314 69.8613 30.0884 62.6538 28.0088 52.9346L33.4942 52.9346C35.4175 52.9346 35.8452 51.1729 34.8179 49.7144L27.311 38.9429C26.0684 37.1631 24.0576 37.126 22.7593 38.9429ZM31.8574 28.1089C29.9458 29.6987 29.5903 31.73 30.9395 33.1314C32.2852 34.5816 34.0386 34.3306 35.6319 33.1079C39.8657 29.583 44.0088 27.8843 49.0732 27.8843C59.5825 27.8843 68.1255 35.0918 70.2051 44.8447L64.4839 44.8447C62.5942 44.8447 62.1665 46.6065 63.1938 48.065L70.6821 58.8027C71.9434 60.5825 73.9541 60.6685 75.2676 58.8027L82.6582 48.065C83.6856 46.561 83.3521 44.8447 81.4136 44.8447L76.1118 44.8447C73.8032 31.1035 62.8687 21.7417 49.0732 21.7417C42.7139 21.7417 36.3091 24.166 31.8574 28.1089Z" fill="#000000" fill-opacity="0.85"/>
 </g>
</svg>
