<?xml version="1.0" encoding="UTF-8"?>
<!--Generator: Apple Native CoreSVG 232.5-->
<!DOCTYPE svg
PUBLIC "-//W3C//DTD SVG 1.1//EN"
       "http://www.w3.org/Graphics/SVG/1.1/DTD/svg11.dtd">
<svg version="1.1" xmlns="http://www.w3.org/2000/svg" xmlns:xlink="http://www.w3.org/1999/xlink" width="92.2188" height="92.3047">
 <g>
  <rect height="92.3047" opacity="0" width="92.2188" x="0" y="0"/>
  <path d="M88.7978 38.5332C90.814 38.5332 92.2188 37.0005 92.2188 35.0669L92.2188 5.96925C92.2188 2.21485 89.9551 0 86.2007 0L57.1182 0C55.1357 0 53.6182 1.38623 53.6182 3.40235C53.6182 5.41847 55.166 6.78615 57.1182 6.78615L65.2461 6.78615L81.791 5.97609L66.582 20.6494L50.665 36.5815C49.998 37.2485 49.6309 38.1177 49.6309 39.103C49.6309 41.1714 51.2007 42.5391 53.269 42.5391C54.1533 42.5391 55.0039 42.2393 55.6372 41.5723L71.4448 25.6333L86.2124 10.4278L85.4141 26.939L85.4141 35.0669C85.4141 37.0493 86.834 38.5332 88.7978 38.5332ZM35.0669 92.271C37.083 92.271 38.5669 90.8848 38.5669 88.8687C38.5366 86.8525 37.0039 85.4849 35.0669 85.4849L26.9727 85.4849L10.4126 86.2949L25.5879 71.6216L41.5537 55.6895C42.2056 55.0376 42.5391 54.1533 42.5391 53.168C42.5391 51.0996 41.0181 49.7319 38.9009 49.7319C38.0317 49.7319 37.2148 50.0317 36.5815 50.6987L20.7402 66.6377L5.99123 81.8432L6.77101 65.332L6.77101 57.2041C6.77101 55.2217 5.36964 53.7378 3.38722 53.7378C1.40479 53.7378 0 55.2705 0 57.2041L0 86.3017C0 90.0562 2.21485 92.271 5.96925 92.271Z" fill="#000000" fill-opacity="0.85"/>
 </g>
</svg>
