<?xml version="1.0" encoding="UTF-8"?>
<!--Generator: Apple Native CoreSVG 232.5-->
<!DOCTYPE svg
PUBLIC "-//W3C//DTD SVG 1.1//EN"
       "http://www.w3.org/Graphics/SVG/1.1/DTD/svg11.dtd">
<svg version="1.1" xmlns="http://www.w3.org/2000/svg" xmlns:xlink="http://www.w3.org/1999/xlink" width="119.848" height="89.0987">
 <g>
  <rect height="89.0987" opacity="0" width="119.848" x="0" y="0"/>
  <path d="M94.5166 82.2295C108.763 82.2295 119.848 72.0742 119.848 59.2066C119.848 49.2554 114.272 40.5352 104.63 36.8945C105 15.6016 89.7954 0 70.3848 0C57.0918 0 47.9102 7.24658 42.4595 15.9883C30.7959 11.9883 17.8008 21.0737 17.7231 34.5034C6.96045 35.8374 0 45.2163 0 56.8731C0 70.835 12.0493 82.1841 28.1431 82.1841ZM94.4863 76.1846L28.1279 76.1543C15.46 76.1543 6.04494 67.4243 6.04494 56.8731C6.04494 47.0166 11.9985 39.2529 22.3198 39.2529C22.9429 39.2529 23.1719 38.9263 23.1719 38.3369C23.1719 23.9487 34.0874 18.5064 44.3242 22.2168C44.8648 22.4121 45.1914 22.2656 45.4693 21.7588C50.2661 13.2661 57.6172 6.04494 70.3848 6.04494C86.3853 6.04494 97.7871 18.6646 98.7837 33.8477C98.915 35.8516 98.7534 38.2158 98.6338 40.3443C98.6001 40.9033 98.8291 41.2451 99.3545 41.3765C108.211 43.5112 113.803 50.3233 113.803 59.2066C113.803 68.7578 105.401 76.1846 94.4863 76.1846Z" fill="#000000" fill-opacity="0.85"/>
  <path d="M36.4063 46.9556C35.6113 48.19 35.9448 49.5659 37.4453 49.5659L41.6797 49.5659C43.5083 60.207 52.0147 67.5044 62.7217 67.5044C67.707 67.5044 72.7041 65.6021 76.2246 62.4859C77.668 61.2329 77.9898 59.6397 76.9253 58.4741C75.8306 57.3945 74.4849 57.5444 73.1763 58.5161C69.8818 61.3037 66.6631 62.627 62.7217 62.627C54.6084 62.627 48.0034 57.0947 46.3701 49.5659L50.5557 49.5659C52.0899 49.5659 52.5176 48.1109 51.6099 46.9556L45.8325 38.5669C44.8374 37.166 43.1787 37.1289 42.1499 38.5669ZM48.5181 34.1797C49.5791 35.2593 50.9434 35.1094 52.1997 34.1226C55.5127 31.3164 58.7803 30.0117 62.688 30.0117C70.8198 30.0117 77.4063 35.5777 79.0396 43.1216L74.7192 43.1216C73.1851 43.1216 72.7573 44.543 73.6802 45.7319L79.4424 54.0869C80.4375 55.4878 82.0962 55.5249 83.1099 54.0869L88.8687 45.7319C89.6636 44.4976 89.3301 43.1216 87.8296 43.1216L83.7485 43.1216C81.9199 32.4468 73.4287 25.1343 62.688 25.1343C57.7212 25.1343 52.6904 27.0703 49.2036 30.2017C47.7603 31.4395 47.4385 33.0479 48.5181 34.1797Z" fill="#000000" fill-opacity="0.85"/>
 </g>
</svg>
