<?xml version="1.0" encoding="UTF-8"?>
<!--Generator: Apple Native CoreSVG 232.5-->
<!DOCTYPE svg
PUBLIC "-//W3C//DTD SVG 1.1//EN"
       "http://www.w3.org/Graphics/SVG/1.1/DTD/svg11.dtd">
<svg version="1.1" xmlns="http://www.w3.org/2000/svg" xmlns:xlink="http://www.w3.org/1999/xlink" width="114.35" height="88.4395">
 <g>
  <rect height="88.4395" opacity="0" width="114.35" x="0" y="0"/>
  <path d="M114.35 14.2739L114.35 74.169C114.35 83.5615 109.514 88.4092 99.9409 88.4092L14.3936 88.4092C4.86963 88.4092 0 83.6069 0 74.169L0 14.2739C0 4.83594 4.86963 0 14.3936 0L99.9409 0C109.514 0 114.35 4.88135 114.35 14.2739ZM93.4683 34.9663L72.1372 56.2974L67.3652 61.3994L67.7441 48.6934L67.7441 43.4775C67.7441 41.7461 66.6309 40.6143 64.9668 40.6143C63.3213 40.6143 62.1894 41.7461 62.1894 43.4775L62.1894 67.2759C62.1894 68.9736 63.355 70.1543 65.0864 70.1543L90.416 70.1543C92.0952 70.1543 93.2944 69.0073 93.2944 67.3433C93.2944 65.6978 92.0278 64.5996 90.416 64.5996L85.1665 64.5996L70.9966 64.9937L76.0313 60.1914L97.396 38.8267C98.1304 38.1411 98.3965 37.4439 98.3965 36.728C98.3965 35.2324 97.1299 33.9473 95.5669 33.9473C94.9185 33.9473 94.2363 34.2471 93.4683 34.9663ZM25.4531 18.3257C23.7402 18.3257 22.5747 19.4238 22.5747 21.103C22.5747 22.7334 23.8076 23.8804 25.4531 23.8804L30.6875 23.8804L44.8574 23.4526L39.8042 28.2734L18.4731 49.6045C17.7388 50.3052 17.439 50.9873 17.439 51.7031C17.439 53.1987 18.7393 54.499 20.2871 54.499C20.9507 54.499 21.6328 54.1992 22.3672 53.4649L43.7168 32.1338L48.5039 27.0469L48.125 39.7378L48.125 44.9536C48.125 46.7002 49.2231 47.832 50.9023 47.832C52.5479 47.832 53.6797 46.7002 53.6797 44.9536L53.6797 21.1704C53.6797 19.4575 52.5142 18.3257 50.7676 18.3257Z" fill="#000000" fill-opacity="0.85"/>
 </g>
</svg>
