<?xml version="1.0" encoding="UTF-8"?>
<!--Generator: Apple Native CoreSVG 232.5-->
<!DOCTYPE svg
PUBLIC "-//W3C//DTD SVG 1.1//EN"
       "http://www.w3.org/Graphics/SVG/1.1/DTD/svg11.dtd">
<svg version="1.1" xmlns="http://www.w3.org/2000/svg" xmlns:xlink="http://www.w3.org/1999/xlink" width="97.9595" height="97.9932">
 <g>
  <rect height="97.9932" opacity="0" width="97.9595" x="0" y="0"/>
  <path d="M97.9595 48.9722C97.9595 75.7759 75.8247 97.9443 48.9722 97.9443C22.1685 97.9443 0 75.7759 0 48.9722C0 22.1348 22.1348 0 48.9385 0C75.791 0 97.9595 22.1348 97.9595 48.9722ZM58.1904 34.0342C58.1904 34.9302 58.5205 35.582 59.0679 36.1782L63.7241 40.7671L69.9185 46.3145L60.6328 45.9995L37.2442 45.9995L27.9585 46.3145L34.1714 40.7671L38.8276 36.1782C39.3901 35.582 39.7051 34.9302 39.7051 34.0342C39.7051 32.4678 38.5361 31.2012 36.9395 31.2012C36.0771 31.2012 35.3916 31.5161 34.8779 32.0635L20.2515 46.6597C19.5322 47.4277 19.1987 48.1064 19.1987 48.9268C19.1987 49.7285 19.5322 50.3921 20.2515 51.1602L34.8779 65.7901C35.3916 66.3374 36.0771 66.6187 36.9395 66.6187C38.5361 66.6187 39.7051 65.4194 39.7051 63.8193C39.7051 62.9233 39.3565 62.2715 38.8276 61.709L34.1714 57.0864L27.9922 51.5391L37.2442 51.8877L60.6328 51.8877L69.8848 51.5391L63.7241 57.0864L59.0679 61.709C58.5391 62.2715 58.1904 62.9233 58.1904 63.8193C58.1904 65.4194 59.3745 66.6187 60.9561 66.6187C61.8184 66.6187 62.5191 66.3374 63.0176 65.7901L77.6441 51.1602C78.3784 50.3921 78.7119 49.7285 78.7119 48.9268C78.7119 48.1064 78.3784 47.4277 77.6441 46.6597L63.0176 32.0635C62.5191 31.5161 61.8184 31.2012 60.9561 31.2012C59.3745 31.2012 58.1904 32.4678 58.1904 34.0342Z" fill="#000000" fill-opacity="0.85"/>
 </g>
</svg>
