<?xml version="1.0" encoding="UTF-8"?>
<!--Generator: Apple Native CoreSVG 232.5-->
<!DOCTYPE svg
PUBLIC "-//W3C//DTD SVG 1.1//EN"
       "http://www.w3.org/Graphics/SVG/1.1/DTD/svg11.dtd">
<svg version="1.1" xmlns="http://www.w3.org/2000/svg" xmlns:xlink="http://www.w3.org/1999/xlink" width="97.9595" height="97.9932">
 <g>
  <rect height="97.9932" opacity="0" width="97.9595" x="0" y="0"/>
  <path d="M97.9595 49.021C97.9595 75.8584 75.8247 97.9932 48.9722 97.9932C22.1685 97.9932 0 75.8584 0 49.021C0 22.2173 22.1348 0.0488281 48.9385 0.0488281C75.791 0.0488281 97.9595 22.2173 97.9595 49.021ZM34.5034 23.166L13.2637 42.978C12.1055 44.0908 11.8428 44.9243 11.8428 45.8252C11.8428 46.6587 12.1055 47.5259 13.2637 48.6387L34.5034 68.4727C35.5493 69.4175 36.3711 69.9731 37.4893 69.9731C39.0874 69.9731 40.1113 68.9409 40.1113 67.7993L40.1113 65.1558L24.5425 50.811C22.8252 49.2251 22.0674 47.5816 22.0674 45.8252C22.0674 44.0689 22.8369 42.3462 24.5425 40.8057L40.1113 26.4829L40.1113 23.8848C40.1113 22.7095 39.0874 21.6436 37.4556 21.6436C36.3374 21.6436 35.583 22.1841 34.5034 23.166ZM47.8755 23.166L26.6694 42.978C25.4927 44.1245 25.2603 44.9243 25.2603 45.8252C25.2603 46.6587 25.4927 47.4922 26.6694 48.6387L47.8755 68.4727C48.9028 69.4478 49.8257 69.9731 50.8765 69.9731C52.4072 69.9731 53.4985 68.8398 53.4985 67.2568L53.4985 56.5054L54.4312 56.5054C65.7412 56.5054 72.8442 59.4414 76.9546 68.1563C77.6821 69.6011 78.7061 69.9731 79.7568 69.9731C81.0552 69.9731 82.0606 68.8853 82.0606 67.0024C82.0606 46.3696 72.6397 35.2847 54.4312 35.2847L53.4985 35.2847L53.4985 24.4273C53.4985 22.9453 52.4072 21.6436 50.8428 21.6436C49.7583 21.6436 48.9702 22.1538 47.8755 23.166Z" fill="#000000" fill-opacity="0.85"/>
 </g>
</svg>
