<?xml version="1.0" encoding="UTF-8"?>
<!--Generator: Apple Native CoreSVG 232.5-->
<!DOCTYPE svg
PUBLIC "-//W3C//DTD SVG 1.1//EN"
       "http://www.w3.org/Graphics/SVG/1.1/DTD/svg11.dtd">
<svg version="1.1" xmlns="http://www.w3.org/2000/svg" xmlns:xlink="http://www.w3.org/1999/xlink" width="97.9595" height="97.9932">
 <g>
  <rect height="97.9932" opacity="0" width="97.9595" x="0" y="0"/>
  <path d="M97.9595 48.9722C97.9595 75.7759 75.8247 97.9443 48.9722 97.9443C22.1685 97.9443 0 75.7759 0 48.9722C0 22.1348 22.1348 0 48.9385 0C75.791 0 97.9595 22.1348 97.9595 48.9722ZM50.9614 30.8897C50.9614 31.752 51.3438 32.4527 51.8726 33.0488L59.6211 40.7485L65.8003 46.311L56.5483 45.9624L26.229 45.9624C24.5313 45.9624 23.2681 47.1616 23.2681 48.9385C23.2681 50.6211 24.501 51.8506 26.229 51.8506L56.5483 51.8506L65.7851 51.5508L59.6211 57.083L51.8726 64.7978C51.3101 65.3452 50.9614 66.0459 50.9614 66.9082C50.9614 68.5083 52.1455 69.7412 53.7607 69.7412C54.6079 69.7412 55.2749 69.4111 55.8223 68.8789L73.541 51.1416C74.2451 50.4712 74.5938 49.7891 74.5938 48.9233C74.5938 48.0879 74.294 47.4429 73.541 46.6899L55.8223 28.919C55.2749 28.3867 54.6079 28.0903 53.7607 28.0903C52.1455 28.0903 50.9614 29.3047 50.9614 30.8897Z" fill="#000000" fill-opacity="0.85"/>
 </g>
</svg>
