<?xml version="1.0" encoding="UTF-8"?>
<!--Generator: Apple Native CoreSVG 232.5-->
<!DOCTYPE svg
PUBLIC "-//W3C//DTD SVG 1.1//EN"
       "http://www.w3.org/Graphics/SVG/1.1/DTD/svg11.dtd">
<svg version="1.1" xmlns="http://www.w3.org/2000/svg" xmlns:xlink="http://www.w3.org/1999/xlink" width="88.4092" height="88.5371">
 <g>
  <rect height="88.5371" opacity="0" width="88.4092" x="0" y="0"/>
  <path d="M14.3936 88.5371L74.0005 88.5371C83.5733 88.5371 88.4092 83.6558 88.4092 74.2632L88.4092 14.4019C88.4092 5.00928 83.5733 0.127929 74.0005 0.127929L14.3936 0.127929C4.86963 0.127929 0 4.93018 0 14.4019L0 74.2632C0 83.7349 4.86963 88.5371 14.3936 88.5371ZM14.5064 82.4922C9.00294 82.4922 6.04494 79.6016 6.04494 73.9634L6.04494 14.7017C6.04494 9.06349 9.00294 6.17287 14.5064 6.17287L73.9028 6.17287C79.2969 6.17287 82.3643 9.06349 82.3643 14.7017L82.3643 73.9634C82.3643 79.6016 79.2969 82.4922 73.9028 82.4922Z" fill="#000000" fill-opacity="0.85"/>
  <path d="M44.2964 15.084C43.4946 15.084 42.7974 15.4512 42.0967 16.1519L27.7734 30.4414C27.2749 30.9551 26.96 31.6221 26.96 32.4355C26.96 33.9985 28.1592 35.1489 29.6919 35.1489C30.5542 35.1489 31.2061 34.8189 31.7686 34.2715L36.29 29.6826L41.7515 23.6231L41.4365 32.6729L41.4365 55.7397L41.7515 64.8047L36.29 58.7451L31.7686 54.1563C31.2061 53.5601 30.5542 53.2788 29.6919 53.2788C28.1592 53.2788 26.96 54.4292 26.96 55.9771C26.96 56.772 27.2749 57.4727 27.7734 57.9712L42.0967 72.2759C42.7974 72.9766 43.4946 73.3438 44.2964 73.3438C45.0493 73.3438 45.728 72.9766 46.4624 72.2759L60.8042 57.9712C61.3027 57.4727 61.5991 56.772 61.5991 55.9771C61.5991 54.4292 60.4336 53.2788 58.9009 53.2788C58.0386 53.2788 57.3716 53.5938 56.8428 54.1563L52.2876 58.7451L46.8413 64.771L47.1563 55.7397L47.1563 32.6729L46.8413 23.6568L52.2876 29.6826L56.8428 34.2715C57.3716 34.7852 58.0386 35.1489 58.9009 35.1489C60.4336 35.1489 61.5991 33.9985 61.5991 32.4355C61.5991 31.6221 61.3027 30.9551 60.8042 30.4414L46.4624 16.1519C45.728 15.4512 45.0493 15.084 44.2964 15.084Z" fill="#000000" fill-opacity="0.85"/>
 </g>
</svg>
