<?xml version="1.0" encoding="UTF-8"?>
<!--Generator: Apple Native CoreSVG 232.5-->
<!DOCTYPE svg
PUBLIC "-//W3C//DTD SVG 1.1//EN"
       "http://www.w3.org/Graphics/SVG/1.1/DTD/svg11.dtd">
<svg version="1.1" xmlns="http://www.w3.org/2000/svg" xmlns:xlink="http://www.w3.org/1999/xlink" width="88.4092" height="88.5371">
 <g>
  <rect height="88.5371" opacity="0" width="88.4092" x="0" y="0"/>
  <path d="M88.4092 14.4019L88.4092 74.2632C88.4092 83.6558 83.5733 88.5371 74.0005 88.5371L14.3936 88.5371C4.86963 88.5371 0 83.7349 0 74.2632L0 14.4019C0 4.93018 4.86963 0.127929 14.3936 0.127929L74.0005 0.127929C83.5733 0.127929 88.4092 5.00928 88.4092 14.4019ZM63.1792 48.2764L63.1792 51.2998L63.5313 59.772L51.4146 47.1904C50.1851 45.9087 48.27 45.9424 47.0708 47.1567C45.9053 48.3223 45.939 50.3047 47.1045 51.4517L59.6523 63.5347L51.5908 63.2129L48.3101 63.1826C46.7285 63.1826 45.4316 64.4458 45.4316 66.0274C45.4316 67.6089 46.7285 68.9058 48.3101 68.9058L65.6011 68.9058C67.6392 68.9058 68.9024 67.9273 68.9024 65.6045L68.9024 48.2764C68.9024 46.6797 67.6055 45.4316 66.0239 45.4316C64.4424 45.4316 63.1792 46.6797 63.1792 48.2764ZM22.8569 19.5893C20.8188 19.5893 19.5893 20.5527 19.5893 22.8755L19.5893 40.2188C19.5893 41.8003 20.8374 43.0635 22.4341 43.0635C24.0156 43.0635 25.3125 41.8003 25.3125 40.2188L25.3125 37.1802L24.9605 28.708L37.0771 41.2896C38.273 42.5864 40.2217 42.5527 41.3872 41.3233C42.5527 40.1577 42.5191 38.1753 41.3535 37.0435L28.8394 24.9605L36.9009 25.2822L40.1816 25.2974C41.7632 25.2974 43.0264 24.0493 43.0264 22.4526C43.0264 20.8711 41.7632 19.5893 40.1816 19.5893Z" fill="#000000" fill-opacity="0.85"/>
 </g>
</svg>
