<?xml version="1.0" encoding="UTF-8"?>
<!--Generator: Apple Native CoreSVG 232.5-->
<!DOCTYPE svg
PUBLIC "-//W3C//DTD SVG 1.1//EN"
       "http://www.w3.org/Graphics/SVG/1.1/DTD/svg11.dtd">
<svg version="1.1" xmlns="http://www.w3.org/2000/svg" xmlns:xlink="http://www.w3.org/1999/xlink" width="97.9595" height="97.9932">
 <g>
  <rect height="97.9932" opacity="0" width="97.9595" x="0" y="0"/>
  <path d="M48.9722 97.9443C75.8247 97.9443 97.9595 75.7759 97.9595 48.9722C97.9595 22.1348 75.791 0 48.9385 0C22.1348 0 0 22.1348 0 48.9722C0 75.7759 22.1685 97.9443 48.9722 97.9443ZM48.9722 91.6113C25.3501 91.6113 6.36671 72.5942 6.36671 48.9722C6.36671 25.3501 25.3164 6.31789 48.9385 6.31789C72.5605 6.31789 91.6265 25.3501 91.6265 48.9722C91.6265 72.5942 72.5942 91.6113 48.9722 91.6113Z" fill="#000000" fill-opacity="0.85"/>
  <path d="M25.584 32.5283C24.5718 33.5405 24.6206 35.272 25.584 36.2505L38.4941 49.0039C39.0078 49.4653 39.6748 49.75 40.3652 49.75C41.7632 49.75 42.8394 48.7227 42.8394 47.3096C42.8394 46.6274 42.543 45.9673 42.0479 45.4722L36.1758 39.7012L33.1563 36.7827L36.208 36.9292L70.4858 36.9292C71.9141 36.9292 73.0088 35.8159 73.0088 34.4028C73.0088 32.9746 71.978 31.8833 70.4858 31.8833L36.2417 31.8833L33.19 31.9624L36.1758 29.1265L42.0479 23.3403C42.543 22.8452 42.8394 22.1514 42.8394 21.5029C42.8394 20.0562 41.7632 19.0288 40.3652 19.0288C39.7051 19.0288 38.9893 19.3286 38.4941 19.8574ZM72.2593 65.5254C73.3052 64.4795 73.2227 62.9165 72.2593 61.9043L59.3491 49.1509C58.8877 48.6558 58.2022 48.3711 57.478 48.3711C56.0161 48.3711 55.0039 49.3833 55.0039 50.8115C55.0039 51.5088 55.2852 52.1538 55.7651 52.6489L61.7012 58.4199L64.7207 61.3384L61.6352 61.1919L27.3574 61.1919C25.9629 61.1919 24.8682 62.2378 24.8682 63.6846C24.8682 65.1128 25.8989 66.2378 27.3574 66.2378L61.6016 66.2378L64.7207 66.1587L61.7012 68.9946L55.7988 74.7808C55.334 75.3096 55.0039 75.9209 55.0039 76.6182C55.0039 78.0313 56.0986 79.0923 57.478 79.0923C58.1045 79.0923 58.8355 78.7925 59.3491 78.2974Z" fill="#000000" fill-opacity="0.85"/>
 </g>
</svg>
