<?xml version="1.0" encoding="UTF-8"?>
<!--Generator: Apple Native CoreSVG 232.5-->
<!DOCTYPE svg
PUBLIC "-//W3C//DTD SVG 1.1//EN"
       "http://www.w3.org/Graphics/SVG/1.1/DTD/svg11.dtd">
<svg version="1.1" xmlns="http://www.w3.org/2000/svg" xmlns:xlink="http://www.w3.org/1999/xlink" width="88.0713" height="88.1201">
 <g>
  <rect height="88.1201" opacity="0" width="88.0713" x="0" y="0"/>
  <path d="M82.6309 5.48926C87.1421 9.98536 88.0713 16.2227 88.0713 25.1021L88.0713 62.9356C88.0713 71.8149 87.1421 78.0557 82.6309 82.5669C78.1196 87.0933 71.7998 88.0713 62.9356 88.0713L25.1021 88.0713C16.2715 88.0713 9.98194 87.0933 5.44043 82.5669C0.929198 78.0859 0 71.8149 0 62.9356L0 24.8228C0 16.2866 0.944334 10.0308 5.47071 5.51953C9.98194 0.993162 16.3169 0 24.8228 0L62.9356 0C71.7998 0 78.0894 0.978026 82.6309 5.48926ZM34.9053 24.9956C33.0425 24.9956 31.877 26.1123 31.877 27.8286C31.877 29.5415 33.0762 30.6734 34.9727 30.6734L46.8701 30.6734L54.0835 30.1494L47.312 36.5352L25.8882 57.959C25.3223 58.5249 24.9399 59.3081 24.9399 60.103C24.9399 61.8682 26.0718 63 27.7847 63C28.7481 63 29.5127 62.6514 30.0786 62.0855L51.4385 40.6919L57.7603 33.9727L57.2852 42.1973L57.2852 53.0347C57.2852 54.8975 58.417 56.0967 60.1973 56.0967C61.8799 56.0967 63.0117 54.7964 63.0117 52.9824L63.0117 28.1621C63.0117 25.9404 61.7788 24.9956 59.8418 24.9956Z" fill="#000000" fill-opacity="0.85"/>
 </g>
</svg>
