<?xml version="1.0" encoding="UTF-8"?>
<!--Generator: Apple Native CoreSVG 232.5-->
<!DOCTYPE svg
PUBLIC "-//W3C//DTD SVG 1.1//EN"
       "http://www.w3.org/Graphics/SVG/1.1/DTD/svg11.dtd">
<svg version="1.1" xmlns="http://www.w3.org/2000/svg" xmlns:xlink="http://www.w3.org/1999/xlink" width="88.4092" height="88.5371">
 <g>
  <rect height="88.5371" opacity="0" width="88.4092" x="0" y="0"/>
  <path d="M14.3936 88.5371L74.0005 88.5371C83.5733 88.5371 88.4092 83.6558 88.4092 74.2632L88.4092 14.4019C88.4092 5.00928 83.5733 0.127929 74.0005 0.127929L14.3936 0.127929C4.86963 0.127929 0 4.93018 0 14.4019L0 74.2632C0 83.7349 4.86963 88.5371 14.3936 88.5371ZM14.5064 82.4922C9.00294 82.4922 6.04494 79.6016 6.04494 73.9634L6.04494 14.7017C6.04494 9.06349 9.00294 6.17287 14.5064 6.17287L73.9028 6.17287C79.2969 6.17287 82.3643 9.06349 82.3643 14.7017L82.3643 73.9634C82.3643 79.6016 79.2969 82.4922 73.9028 82.4922Z" fill="#000000" fill-opacity="0.85"/>
  <path d="M44.2627 68.4766C45.957 68.4766 47.1226 67.2959 47.1226 65.6016L47.1226 37.2974L46.8228 28.2324L52.2876 34.292L59.2905 41.3623C59.8193 41.9248 60.4863 42.2246 61.3184 42.2246C62.8814 42.2246 64.0806 41.0103 64.0806 39.5112C64.0806 38.7129 63.8145 38.0459 63.2671 37.5474L46.4624 20.7275C45.7617 20.0269 45.1133 19.7085 44.2627 19.7085C43.4795 19.7085 42.8159 20.0083 42.0967 20.7275L25.2734 37.5474C24.7598 38.0459 24.5273 38.7129 24.5273 39.5112C24.5273 41.0103 25.6929 42.2246 27.2559 42.2246C28.0879 42.2246 28.7549 41.8911 29.2837 41.3623L36.3203 34.292L41.7026 28.2964L41.4028 37.2974L41.4028 65.6016C41.4028 67.2959 42.6172 68.4766 44.2627 68.4766Z" fill="#000000" fill-opacity="0.85"/>
 </g>
</svg>
