<?xml version="1.0" encoding="UTF-8"?>
<!--Generator: Apple Native CoreSVG 232.5-->
<!DOCTYPE svg
PUBLIC "-//W3C//DTD SVG 1.1//EN"
       "http://www.w3.org/Graphics/SVG/1.1/DTD/svg11.dtd">
<svg version="1.1" xmlns="http://www.w3.org/2000/svg" xmlns:xlink="http://www.w3.org/1999/xlink" width="127.436" height="94.6318">
 <g>
  <rect height="94.6318" opacity="0" width="127.436" x="0" y="0"/>
  <path d="M60.4692 33.9771C60.4692 35.166 61.3467 36.0923 62.6182 36.2422C85.9341 38.6333 88.8794 41.2808 91.668 65.3897C91.8516 66.6275 92.8081 67.4375 93.96 67.4375C95.1304 67.4375 96.0869 66.6275 96.2705 65.3897C99.0591 41.2808 101.971 38.6333 125.287 36.2422C126.592 36.0923 127.436 35.166 127.436 33.9771C127.436 32.7881 126.592 31.8467 125.287 31.6968C102.004 29.3208 99.0591 26.6245 96.2705 2.56445C96.0869 1.34521 95.1641 0.535154 93.96 0.535154C92.7744 0.535154 91.8516 1.34521 91.668 2.56445C88.6236 26.5083 85.9375 28.6963 62.603 31.6968C61.3467 31.8467 60.4692 32.7881 60.4692 33.9771ZM56.2847 76.5215C56.2847 77.3316 56.832 77.98 57.7095 78.1787C70.4482 80.6284 70.4805 80.3154 72.1538 92.5034C72.3037 93.4146 72.9487 94.063 73.8262 94.063C74.7373 94.063 75.3823 93.4483 75.5322 92.5371C77.3672 79.6304 78.0254 80.1148 89.9092 78.1787C90.8203 78.0137 91.4165 77.3652 91.4165 76.5215C91.4165 75.6963 90.854 75.0142 89.9429 74.8491C77.9243 72.4902 77.4009 73.1768 75.5322 60.4722C75.3823 59.5947 74.7036 58.9648 73.8262 58.9648C72.9487 58.9648 72.3037 59.6133 72.1538 60.5244C70.4805 72.7124 70.4146 72.6353 57.8442 74.8491C56.8657 75.0142 56.2847 75.6289 56.2847 76.5215Z" fill="#000000" fill-opacity="0.85"/>
  <path d="M0 69.1338C0 69.9658 0.40088 70.9023 1.03418 71.5356L22.7642 93.5303C23.4648 94.2647 24.2852 94.6318 25.2183 94.6318C26.1177 94.6318 26.9531 94.2647 27.6387 93.5303L49.4175 71.5356C50.0508 70.9023 50.4028 69.9658 50.4028 69.1338C50.4028 67.1665 49.0537 65.8813 47.1655 65.8813C46.1987 65.8813 45.4341 66.1811 44.8833 66.7505L36.8193 75.0688L28.1221 84.5898L28.4893 73.6284L28.4893 21.0034L28.1221 10.042L36.8193 19.563L44.8833 27.8814C45.4341 28.4507 46.1987 28.7505 47.1655 28.7505C49.0537 28.7505 50.4028 27.4653 50.4028 25.4981C50.4028 24.666 50.0508 23.7295 49.4175 23.0962L27.6387 1.10157C26.9531 0.367188 26.1177 0 25.2183 0C24.2852 0 23.4648 0.367188 22.7642 1.10157L1.03418 23.0962C0.40088 23.7295 0 24.666 0 25.4981C0 27.4653 1.34912 28.7505 3.23731 28.7505C4.20411 28.7505 5.01759 28.4321 5.51955 27.8814L13.6172 19.563L22.2808 10.042L21.9136 21.0034L21.9136 73.6284L22.2808 84.5898L13.6172 75.0688L5.51955 66.7505C5.01759 66.1997 4.20411 65.8813 3.23731 65.8813C1.34912 65.8813 0 67.1665 0 69.1338Z" fill="#000000" fill-opacity="0.85"/>
 </g>
</svg>
