<?xml version="1.0" encoding="UTF-8"?>
<!--Generator: Apple Native CoreSVG 232.5-->
<!DOCTYPE svg
PUBLIC "-//W3C//DTD SVG 1.1//EN"
       "http://www.w3.org/Graphics/SVG/1.1/DTD/svg11.dtd">
<svg version="1.1" xmlns="http://www.w3.org/2000/svg" xmlns:xlink="http://www.w3.org/1999/xlink" width="88.4092" height="88.5371">
 <g>
  <rect height="88.5371" opacity="0" width="88.4092" x="0" y="0"/>
  <path d="M14.3936 88.5371L74.0005 88.5371C83.5733 88.5371 88.4092 83.6558 88.4092 74.2632L88.4092 14.4019C88.4092 5.00928 83.5733 0.127929 74.0005 0.127929L14.3936 0.127929C4.86963 0.127929 0 4.93018 0 14.4019L0 74.2632C0 83.7349 4.86963 88.5371 14.3936 88.5371ZM14.5064 82.4922C9.00294 82.4922 6.04494 79.6016 6.04494 73.9634L6.04494 14.7017C6.04494 9.06349 9.00294 6.17287 14.5064 6.17287L73.9028 6.17287C79.2969 6.17287 82.3643 9.06349 82.3643 14.7017L82.3643 73.9634C82.3643 79.6016 79.2969 82.4922 73.9028 82.4922Z" fill="#000000" fill-opacity="0.85"/>
  <path d="M22.8906 46.4902C22.8906 58.4702 32.3652 67.9785 44.229 67.9785C56.1079 67.9785 65.5523 58.4702 65.5523 46.5913C65.5523 45.1631 64.3076 43.9521 62.9097 43.9521C61.436 43.9521 60.2065 45.1631 60.2065 46.5913C60.2065 55.501 53.1235 62.6479 44.229 62.6479C35.3042 62.6479 28.2212 55.5649 28.2212 46.5913C28.2212 37.6817 35.3042 30.6138 44.229 30.6138C45.4692 30.6138 46.6675 30.7232 47.5947 30.9268L41.3262 37.1094C40.7705 37.6987 40.5044 38.2949 40.5044 39.0864C40.5044 40.4473 41.5991 41.5234 43.0054 41.5234C43.6538 41.5234 44.2988 41.2085 44.7149 40.8262L54.5659 30.8237C55.5747 29.8335 55.5527 28.0147 54.5659 26.9941L44.8731 17.0942C44.3814 16.5537 43.7178 16.2085 42.9751 16.2085C41.584 16.2085 40.4893 17.3032 40.4893 18.7432C40.4893 19.3916 40.71 20.0703 41.1865 20.5469L46.2275 25.6216C45.4736 25.561 44.5127 25.4028 43.6191 25.4028C32.4663 25.4028 22.8906 34.6602 22.8906 46.4902Z" fill="#000000" fill-opacity="0.85"/>
 </g>
</svg>
