<?xml version="1.0" encoding="UTF-8"?>
<!--Generator: Apple Native CoreSVG 232.5-->
<!DOCTYPE svg
PUBLIC "-//W3C//DTD SVG 1.1//EN"
       "http://www.w3.org/Graphics/SVG/1.1/DTD/svg11.dtd">
<svg version="1.1" xmlns="http://www.w3.org/2000/svg" xmlns:xlink="http://www.w3.org/1999/xlink" width="97.9595" height="97.9932">
 <g>
  <rect height="97.9932" opacity="0" width="97.9595" x="0" y="0"/>
  <path d="M97.9595 48.9722C97.9595 75.7759 75.8247 97.9443 48.9722 97.9443C22.1685 97.9443 0 75.7759 0 48.9722C0 22.1348 22.1348 0 48.9385 0C75.791 0 97.9595 22.1348 97.9595 48.9722ZM29.895 32.8442C29.895 33.6392 30.2773 34.4224 30.8584 34.9883L52.3008 56.3633L59.0874 62.7827L51.8589 62.2739L39.9614 62.2739C38.0649 62.2739 36.8657 63.4058 36.8657 65.1035C36.8657 66.8198 38.0464 67.9365 39.8941 67.9365L64.7969 67.9365C66.7339 67.9365 68.0005 66.9917 68.0005 64.7852L68.0005 39.9649C68.0005 38.1021 66.835 36.8355 65.1523 36.8355C63.4058 36.8355 62.2739 38.0161 62.2739 39.8975L62.2739 50.75L62.7642 58.9746L56.4272 52.2554L35.0674 30.8618C34.4678 30.2959 33.752 29.9321 32.7734 29.9321C31.0757 29.9321 29.895 31.064 29.895 32.8442Z" fill="#000000" fill-opacity="0.85"/>
 </g>
</svg>
