<?xml version="1.0" encoding="UTF-8"?>
<!--Generator: Apple Native CoreSVG 232.5-->
<!DOCTYPE svg
PUBLIC "-//W3C//DTD SVG 1.1//EN"
       "http://www.w3.org/Graphics/SVG/1.1/DTD/svg11.dtd">
<svg version="1.1" xmlns="http://www.w3.org/2000/svg" xmlns:xlink="http://www.w3.org/1999/xlink" width="97.9595" height="97.9932">
 <g>
  <rect height="97.9932" opacity="0" width="97.9595" x="0" y="0"/>
  <path d="M97.9595 48.9722C97.9595 75.7759 75.8247 97.9443 48.9722 97.9443C22.1685 97.9443 0 75.7759 0 48.9722C0 22.1348 22.1348 0 48.9385 0C75.791 0 97.9595 22.1348 97.9595 48.9722ZM46.7725 20.2549L32.1763 34.8477C31.644 35.3613 31.314 36.062 31.314 36.9092C31.314 38.5059 32.5469 39.6748 34.147 39.6748C35.043 39.6748 35.71 39.3599 36.2573 38.7974L40.8462 34.1411L46.4424 27.9619L46.0786 37.2476L46.0786 60.6362L46.4424 69.9219L40.8462 63.7275L36.2573 59.0713C35.71 58.4902 35.043 58.1939 34.147 58.1939C32.5469 58.1939 31.314 59.3779 31.314 60.9595C31.314 61.7881 31.644 62.5225 32.1763 63.021L46.7725 77.6138C47.5068 78.3482 48.2192 78.7154 49.0396 78.7154C49.8413 78.7154 50.5049 78.3482 51.273 77.6138L65.9028 63.021C66.4502 62.5225 66.7315 61.7881 66.7315 60.9595C66.7315 59.3779 65.5322 58.1939 63.9321 58.1939C63.0513 58.1939 62.3843 58.5239 61.8218 59.0713L57.1992 63.7275L51.6519 69.8882L52.0005 60.6362L52.0005 37.2476L51.6519 27.9956L57.1992 34.1411L61.8218 38.7974C62.3843 39.3262 63.0513 39.6748 63.9321 39.6748C65.5322 39.6748 66.7315 38.5059 66.7315 36.9092C66.7315 36.062 66.4502 35.3613 65.9028 34.8477L51.273 20.2549C50.5049 19.5356 49.8413 19.1685 49.0396 19.1685C48.2192 19.1685 47.5068 19.5356 46.7725 20.2549Z" fill="#000000" fill-opacity="0.85"/>
 </g>
</svg>
