<?xml version="1.0" encoding="UTF-8"?>
<!--Generator: Apple Native CoreSVG 232.5-->
<!DOCTYPE svg
PUBLIC "-//W3C//DTD SVG 1.1//EN"
       "http://www.w3.org/Graphics/SVG/1.1/DTD/svg11.dtd">
<svg version="1.1" xmlns="http://www.w3.org/2000/svg" xmlns:xlink="http://www.w3.org/1999/xlink" width="97.9595" height="97.9932">
 <g>
  <rect height="97.9932" opacity="0" width="97.9595" x="0" y="0"/>
  <path d="M48.9722 97.9443C75.8247 97.9443 97.9595 75.7759 97.9595 48.9722C97.9595 22.1348 75.791 0 48.9385 0C22.1348 0 0 22.1348 0 48.9722C0 75.7759 22.1685 97.9443 48.9722 97.9443ZM48.9722 91.6113C25.3501 91.6113 6.36671 72.5942 6.36671 48.9722C6.36671 25.3501 25.3164 6.31789 48.9385 6.31789C72.5605 6.31789 91.6265 25.3501 91.6265 48.9722C91.6265 72.5942 72.5942 91.6113 48.9722 91.6113Z" fill="#000000" fill-opacity="0.85"/>
  <path d="M33.0464 60.7788C34.7105 60.7788 35.8237 59.6133 35.8237 57.8179L35.8237 47.1001L35.3335 39.044L41.502 45.5948L62.5737 66.6665C63.106 67.1987 63.8369 67.5474 64.7666 67.5474C66.4458 67.5474 67.5776 66.4492 67.5776 64.7515C67.5776 63.9565 67.1953 63.207 66.6631 62.6597L45.5425 41.5391L38.9243 35.3218L45.9693 35.8306L57.7471 35.8306C59.5762 35.8306 60.7417 34.7324 60.7417 33.0532C60.7417 31.4043 59.6099 30.3213 57.8145 30.3213L33.3682 30.3213C31.4834 30.3213 30.2505 31.2324 30.2505 33.3867L30.2505 57.7505C30.2505 59.5122 31.3975 60.7788 33.0464 60.7788Z" fill="#000000" fill-opacity="0.85"/>
 </g>
</svg>
