<?xml version="1.0" encoding="UTF-8"?>
<!--Generator: Apple Native CoreSVG 232.5-->
<!DOCTYPE svg
PUBLIC "-//W3C//DTD SVG 1.1//EN"
       "http://www.w3.org/Graphics/SVG/1.1/DTD/svg11.dtd">
<svg version="1.1" xmlns="http://www.w3.org/2000/svg" xmlns:xlink="http://www.w3.org/1999/xlink" width="72.7974" height="91.4492">
 <g>
  <rect height="91.4492" opacity="0" width="72.7974" x="0" y="0"/>
  <path d="M36.4063 91.4492C38.3096 91.4492 39.6773 90.1001 39.6773 88.2119L39.6773 20.3936L39.3101 7.09914L37.3594 7.80324L52.5122 24.1016L67.2778 38.7324C67.8623 39.3018 68.728 39.6016 69.6274 39.6016C71.4482 39.6016 72.7974 38.2153 72.7974 36.3828C72.7974 35.4834 72.4976 34.7153 71.812 33.981L38.8604 1.08643C38.1597 0.367188 37.3394 0 36.4063 0C35.4731 0 34.6377 0.367188 33.937 1.08643L1.03418 33.981C0.333497 34.7153 0 35.4834 0 36.3828C0 38.2153 1.34912 39.6016 3.16993 39.6016C4.06935 39.6016 4.9839 39.3018 5.51955 38.7324L20.2851 24.1016L35.4043 7.80324L33.4873 7.09914L33.1353 20.3936L33.1353 88.2119C33.1353 90.1001 34.4878 91.4492 36.4063 91.4492Z" fill="#000000" fill-opacity="0.85"/>
 </g>
</svg>
