<?xml version="1.0" encoding="UTF-8"?>
<!--Generator: Apple Native CoreSVG 232.5-->
<!DOCTYPE svg
PUBLIC "-//W3C//DTD SVG 1.1//EN"
       "http://www.w3.org/Graphics/SVG/1.1/DTD/svg11.dtd">
<svg version="1.1" xmlns="http://www.w3.org/2000/svg" xmlns:xlink="http://www.w3.org/1999/xlink" width="97.9595" height="97.9932">
 <g>
  <rect height="97.9932" opacity="0" width="97.9595" x="0" y="0"/>
  <path d="M48.9722 97.9443C75.8247 97.9443 97.9595 75.7759 97.9595 48.9722C97.9595 22.1348 75.791 0 48.9385 0C22.1348 0 0 22.1348 0 48.9722C0 75.7759 22.1685 97.9443 48.9722 97.9443ZM48.9722 91.6113C25.3501 91.6113 6.36671 72.5942 6.36671 48.9722C6.36671 25.3501 25.3164 6.31789 48.9385 6.31789C72.5605 6.31789 91.6265 25.3501 91.6265 48.9722C91.6265 72.5942 72.5942 91.6113 48.9722 91.6113Z" fill="#000000" fill-opacity="0.85"/>
  <path d="M49.0732 75.4463C55.2979 75.4463 61.5679 73.0557 65.9673 69.1465C67.8115 67.624 68.167 65.6602 66.8853 64.2925C65.5396 62.9097 63.8384 63.127 62.2788 64.3159C58.1123 67.8408 54.0366 69.4722 49.0732 69.4722C38.751 69.4722 30.3613 62.3994 28.3491 52.8335L33.7485 52.8335C35.5708 52.8335 36.0322 51.1055 35.0049 49.6992L27.6851 39.1636C26.4575 37.4175 24.499 37.3315 23.2681 39.1636L16.0308 49.6992C14.9883 51.1694 15.3706 52.8335 17.208 52.8335L22.6108 52.8335C24.8521 66.2529 35.5659 75.4463 49.0732 75.4463ZM49.0059 22.3179C42.7998 22.3179 36.4961 24.6748 32.1304 28.584C30.2861 30.1064 29.9307 32.0855 31.2275 33.438C32.5581 34.8208 34.2593 34.6187 35.7852 33.4297C39.9517 29.9234 44.0274 28.2735 49.0059 28.2735C59.313 28.2735 67.7026 35.3462 69.7485 44.897L64.1621 44.897C62.3062 44.897 61.8784 46.625 62.8721 48.0313L70.2256 58.582C71.4531 60.3281 73.3965 60.3989 74.6426 58.582L81.8799 48.0313C82.9224 46.6099 82.5401 44.897 80.669 44.897L75.4531 44.897C73.2456 31.4775 62.5469 22.3179 49.0059 22.3179Z" fill="#000000" fill-opacity="0.85"/>
 </g>
</svg>
