<?xml version="1.0" encoding="UTF-8"?>
<!--Generator: Apple Native CoreSVG 232.5-->
<!DOCTYPE svg
PUBLIC "-//W3C//DTD SVG 1.1//EN"
       "http://www.w3.org/Graphics/SVG/1.1/DTD/svg11.dtd">
<svg version="1.1" xmlns="http://www.w3.org/2000/svg" xmlns:xlink="http://www.w3.org/1999/xlink" width="71.3472" height="71.3389">
 <g>
  <rect height="71.3389" opacity="0" width="71.3472" x="0" y="0"/>
  <path d="M0 53.6104C0 55.6113 1.55127 57.1289 3.3838 57.1289C5.21632 57.1289 6.70363 55.5103 6.70363 53.7451L6.70363 30.2144L6.09718 10.0908L13.9419 18.7071L65.5732 70.3232C66.2891 71.0391 67.0908 71.3389 67.8926 71.3389C69.7437 71.3389 71.3472 69.7017 71.3472 67.918C71.3472 67.1011 70.9951 66.2505 70.3281 65.5835L18.7305 13.9185L10.1328 6.11086L32.6138 6.68019L53.7837 6.68019C55.5488 6.68019 57.1338 5.22316 57.1338 3.43946C57.1338 1.65577 55.7173 0.0708014 53.6489 0.0708014L3.66505 0.0708014C1.47705 0.0708014 0.0942379 1.55469 0.0942379 3.65675Z" fill="#000000" fill-opacity="0.85"/>
 </g>
</svg>
