<?xml version="1.0" encoding="UTF-8"?>
<!--Generator: Apple Native CoreSVG 232.5-->
<!DOCTYPE svg
PUBLIC "-//W3C//DTD SVG 1.1//EN"
       "http://www.w3.org/Graphics/SVG/1.1/DTD/svg11.dtd">
<svg version="1.1" xmlns="http://www.w3.org/2000/svg" xmlns:xlink="http://www.w3.org/1999/xlink" width="80.7363" height="104.094">
 <g>
  <rect height="104.094" opacity="0" width="80.7363" x="0" y="0"/>
  <path d="M14.2739 104.094L66.4624 104.094C75.9341 104.094 80.7363 99.2241 80.7363 89.7187L80.7363 43.9146C80.7363 38.6299 80.0342 36.3042 76.7788 32.9814L48.1187 3.98438C44.9829 0.796387 42.4214 0.0268549 37.6943 0.0268549L14.2739 0.0268549C4.88135 0.0268549 0 4.93018 0 14.4356L0 89.7187C0 99.2578 4.80225 104.094 14.2739 104.094ZM14.54 98.0488C8.93556 98.0488 6.04494 95.0908 6.04494 89.5874L6.04494 14.5669C6.04494 9.17286 8.93556 6.07179 14.5737 6.07179L37.4375 6.07179L37.4375 35.4702C37.4375 41.0625 40.2261 43.6963 45.6484 43.6963L74.6914 43.6963L74.6914 89.5874C74.6914 95.0908 71.8008 98.0488 66.1626 98.0488ZM46.27 37.9731C44.0142 37.9731 43.1455 37.0859 43.1455 34.8149L43.1455 7.29787L73.4653 37.9731Z" fill="#000000" fill-opacity="0.85"/>
  <path d="M43.2466 87.9165L43.2466 67.21L43.0142 58.3125L49.3442 64.7891L53.5874 69.1299C54.0894 69.6807 54.8691 69.9956 55.6338 69.9956C57.1631 69.9956 58.3252 68.8823 58.3252 67.3379C58.3252 66.3208 57.8555 65.6875 57.1953 65.0796L42.4971 51.1411C41.729 50.4404 41.084 50.1592 40.3682 50.1592C39.6523 50.1592 39.0073 50.4404 38.2393 51.1411L23.541 65.0796C22.8809 65.6875 22.4111 66.3208 22.4111 67.3379C22.4111 68.8823 23.5396 69.9956 25.1025 69.9956C25.8335 69.9956 26.647 69.6807 27.1489 69.1299L31.3921 64.7891L37.7373 58.3125L37.4897 67.21L37.4897 87.9165C37.4897 89.4644 38.8203 90.7124 40.3682 90.7124C41.916 90.7124 43.2466 89.4644 43.2466 87.9165Z" fill="#000000" fill-opacity="0.85"/>
 </g>
</svg>
