<?xml version="1.0" encoding="UTF-8"?>
<!--Generator: Apple Native CoreSVG 232.5-->
<!DOCTYPE svg
PUBLIC "-//W3C//DTD SVG 1.1//EN"
       "http://www.w3.org/Graphics/SVG/1.1/DTD/svg11.dtd">
<svg version="1.1" xmlns="http://www.w3.org/2000/svg" xmlns:xlink="http://www.w3.org/1999/xlink" width="110.413" height="89.5387">
 <g>
  <rect height="89.5387" opacity="0" width="110.413" x="0" y="0"/>
  <path d="M84.5728 88.4251L109.334 63.3172C110.031 62.6385 110.413 61.7171 110.413 60.7757C110.413 58.8387 109.064 57.5233 107.161 57.5233C106.194 57.5233 105.463 57.8231 104.754 58.5169L93.6743 69.8323L85.0562 79.3265L85.3897 68.4256L85.3897 3.33527C85.3897 1.44708 84.022 0.000304195 82.0884 0.000304195C80.1211 0.000304195 78.7686 1.44708 78.7686 3.33527L78.7686 68.4256L79.1358 79.3265L70.5025 69.8323L59.4229 58.5169C58.729 57.8231 57.9492 57.5233 57.0161 57.5233C55.1128 57.5233 53.73 58.8387 53.73 60.7757C53.73 61.7171 54.146 62.6385 54.8584 63.3172L79.6192 88.4251C80.9717 89.8602 83.1226 89.909 84.5728 88.4251Z" fill="#000000" fill-opacity="0.85"/>
  <path d="M25.8892 1.10187L1.09473 26.1575C0.416017 26.8548 0 27.7913 0 28.6839C0 30.6209 1.34912 31.9852 3.26759 31.9852C4.21925 31.9852 4.99904 31.6517 5.69288 30.9427L16.7876 19.6273L25.4058 10.1668L25.0386 21.0677L25.0386 86.158C25.0386 88.0799 26.4063 89.493 28.3584 89.493C30.292 89.493 31.6597 88.0799 31.6597 86.158L31.6597 21.0677L31.3262 10.1668L39.9107 19.6273L51.0391 30.9427C51.7329 31.6517 52.4639 31.9852 53.4307 31.9852C55.3491 31.9852 56.6983 30.6209 56.6983 28.6839C56.6983 27.7913 56.3159 26.8548 55.6035 26.1575L30.8428 1.10187C29.4751-0.318056 27.3057-0.415712 25.8892 1.10187Z" fill="#000000" fill-opacity="0.85"/>
 </g>
</svg>
