<?xml version="1.0" encoding="UTF-8"?>
<!--Generator: Apple Native CoreSVG 232.5-->
<!DOCTYPE svg
PUBLIC "-//W3C//DTD SVG 1.1//EN"
       "http://www.w3.org/Graphics/SVG/1.1/DTD/svg11.dtd">
<svg version="1.1" xmlns="http://www.w3.org/2000/svg" xmlns:xlink="http://www.w3.org/1999/xlink" width="106.695" height="106.825">
 <g>
  <rect height="106.825" opacity="0" width="106.695" x="0" y="0"/>
  <path d="M106.694 43.2522C106.746 41.135 105.146 39.6814 103.175 39.7488L67.9246 39.924C66.9461 39.924 66.0432 40.2795 65.3982 40.9397C63.9969 42.2922 64.0305 44.241 65.3982 45.5749C66.0652 46.2419 66.8147 46.5569 67.7713 46.5569L83.6458 46.4036L96.426 45.8308L88.4734 53.2512L40.6995 101.025C39.3621 102.363 39.2981 104.345 40.6995 105.728C42.0823 107.095 44.0159 107.08 45.3533 105.728L93.1609 57.9539L100.612 49.9675L100.039 62.7629L99.8704 78.6072C99.8704 79.5974 100.2 80.362 100.867 81.029C102.186 82.3967 104.086 82.4304 105.488 81.029C106.099 80.384 106.503 79.4812 106.503 78.4538Z" fill="#000000" fill-opacity="0.85"/>
  <path d="M0.0315173 63.4934C-0.0358657 65.5432 1.5491 67.0945 3.53494 67.0271L38.7366 66.803C39.7639 66.803 40.6819 66.4324 41.3455 65.821C42.7132 64.4348 42.6795 62.5046 41.3455 61.1858C40.6785 60.4851 39.8802 60.1887 38.8899 60.1887L23.0491 60.3571L10.284 60.945L18.2366 53.5095L65.9954 5.70189C67.3328 4.34934 67.4119 2.36692 65.9954 1.03293C64.6614-0.383577 62.6453-0.304476 61.3079 1.03293L13.534 48.8068L6.09843 56.7443L6.68632 43.9455L6.83964 28.1047C6.83964 27.1482 6.5247 26.365 5.8577 25.6828C4.52372 24.3791 2.57498 24.3454 1.2073 25.6828C0.595973 26.343 0.191675 27.2947 0.191675 28.2732Z" fill="#000000" fill-opacity="0.85"/>
 </g>
</svg>
