<?xml version="1.0" encoding="UTF-8"?>
<!--Generator: Apple Native CoreSVG 232.5-->
<!DOCTYPE svg
PUBLIC "-//W3C//DTD SVG 1.1//EN"
       "http://www.w3.org/Graphics/SVG/1.1/DTD/svg11.dtd">
<svg version="1.1" xmlns="http://www.w3.org/2000/svg" xmlns:xlink="http://www.w3.org/1999/xlink" width="90.6738" height="72.8613">
 <g>
  <rect height="72.8613" opacity="0" width="90.6738" x="0" y="0"/>
  <path d="M0 36.4063C0 37.3394 0.40088 38.1597 1.12012 38.8604L33.981 71.7783C34.7153 72.479 35.4834 72.8125 36.3828 72.8125C38.2153 72.8125 39.6353 71.4482 39.6353 69.6274C39.6353 68.728 39.3169 67.8286 38.7324 67.2778L24.1016 52.5274L7.42971 37.0347L6.63137 38.9883L21.0371 39.6773L87.4365 39.6773C89.3247 39.6773 90.6738 38.3096 90.6738 36.4063C90.6738 34.4878 89.3247 33.1353 87.4365 33.1353L21.0371 33.1353L6.63137 33.8242L7.42971 35.8115L24.1016 20.2851L38.7324 5.53468C39.332 4.91993 39.6353 4.08448 39.6353 3.18507C39.6353 1.34912 38.2153 0 36.3828 0C35.4834 0 34.6699 0.299805 33.7319 1.26807L1.12012 33.9521C0.40088 34.6377 0 35.4731 0 36.4063Z" fill="#000000" fill-opacity="0.85"/>
 </g>
</svg>
