<?xml version="1.0" encoding="UTF-8"?>
<!--Generator: Apple Native CoreSVG 232.5-->
<!DOCTYPE svg
PUBLIC "-//W3C//DTD SVG 1.1//EN"
       "http://www.w3.org/Graphics/SVG/1.1/DTD/svg11.dtd">
<svg version="1.1" xmlns="http://www.w3.org/2000/svg" xmlns:xlink="http://www.w3.org/1999/xlink" width="97.9595" height="97.9932">
 <g>
  <rect height="97.9932" opacity="0" width="97.9595" x="0" y="0"/>
  <path d="M48.9722 97.9443C75.8247 97.9443 97.9595 75.7759 97.9595 48.9722C97.9595 22.1348 75.791 0 48.9385 0C22.1348 0 0 22.1348 0 48.9722C0 75.7759 22.1685 97.9443 48.9722 97.9443ZM48.9722 91.6113C25.3501 91.6113 6.36671 72.5942 6.36671 48.9722C6.36671 25.3501 25.3164 6.31789 48.9385 6.31789C72.5605 6.31789 91.6265 25.3501 91.6265 48.9722C91.6265 72.5942 72.5942 91.6113 48.9722 91.6113Z" fill="#000000" fill-opacity="0.85"/>
  <path d="M48.9048 65.2212C49.5869 65.2212 50.2842 64.8877 50.8316 64.3403L67.7173 47.3618C68.3623 46.7505 68.667 46.0718 68.667 45.25C68.667 43.8555 67.6548 42.7573 66.1963 42.7573C65.4385 42.7573 64.7412 43.0049 64.1787 43.5488L59.9102 47.8999L51.0942 57.4907L51.4951 48.5132L51.4951 24.209C51.4951 22.6831 50.3818 21.6186 48.9048 21.6186C47.3604 21.6186 46.3296 22.6831 46.3296 24.209L46.3296 48.5132L46.7153 57.5244L37.7227 47.8056L33.6983 43.5488C33.1694 43.0049 32.5733 42.7573 31.7144 42.7573C30.2222 42.7573 29.21 43.7881 29.21 45.2651C29.21 45.9404 29.6006 46.7539 30.0503 47.2373L46.978 64.3403C47.5405 64.9214 48.2227 65.2212 48.9048 65.2212ZM30.6885 74.5518L67.2222 74.5518C68.7178 74.5518 69.7485 73.4873 69.7485 71.9766C69.7485 70.5146 68.7178 69.4502 67.2222 69.4502L30.6885 69.4502C29.1929 69.4502 28.1284 70.5146 28.1284 71.9766C28.1284 73.4873 29.1929 74.5518 30.6885 74.5518Z" fill="#000000" fill-opacity="0.85"/>
 </g>
</svg>
