<?xml version="1.0" encoding="UTF-8"?>
<!--Generator: Apple Native CoreSVG 232.5-->
<!DOCTYPE svg
PUBLIC "-//W3C//DTD SVG 1.1//EN"
       "http://www.w3.org/Graphics/SVG/1.1/DTD/svg11.dtd">
<svg version="1.1" xmlns="http://www.w3.org/2000/svg" xmlns:xlink="http://www.w3.org/1999/xlink" width="88.4092" height="88.5371">
 <g>
  <rect height="88.5371" opacity="0" width="88.4092" x="0" y="0"/>
  <path d="M88.4092 14.4019L88.4092 74.2632C88.4092 83.6558 83.5733 88.5371 74.0005 88.5371L14.3936 88.5371C4.86963 88.5371 0 83.7349 0 74.2632L0 14.4019C0 4.93018 4.86963 0.127929 14.3936 0.127929L74.0005 0.127929C83.5733 0.127929 88.4092 5.00928 88.4092 14.4019ZM41.3018 22.1455L41.3018 50.8725L41.6353 60.1431L36.1519 54.0127L29.0293 46.8413C28.4668 46.2451 27.7661 45.9604 26.9341 45.9604C25.3189 45.9604 24.1196 47.1597 24.1196 48.7598C24.1196 49.5918 24.3521 50.2588 24.8843 50.791L42.0293 67.8989C42.7974 68.6519 43.4458 68.9854 44.2627 68.9854C45.147 68.9854 45.7954 68.6182 46.5298 67.8989L63.6563 50.791C64.2222 50.2588 64.4883 49.5918 64.4883 48.7598C64.4883 47.1597 63.2554 45.9604 61.6401 45.9604C60.8081 45.9604 60.1074 46.2266 59.5449 46.8413L52.4561 54.0127L46.8901 60.1919L47.2236 50.8725L47.2236 22.1455C47.2236 20.3838 46.0244 19.1846 44.2627 19.1846C42.5498 19.1846 41.3018 20.3838 41.3018 22.1455Z" fill="#000000" fill-opacity="0.85"/>
 </g>
</svg>
