<?xml version="1.0" encoding="UTF-8"?>
<!--Generator: Apple Native CoreSVG 232.5-->
<!DOCTYPE svg
PUBLIC "-//W3C//DTD SVG 1.1//EN"
       "http://www.w3.org/Graphics/SVG/1.1/DTD/svg11.dtd">
<svg version="1.1" xmlns="http://www.w3.org/2000/svg" xmlns:xlink="http://www.w3.org/1999/xlink" width="72.7974" height="98.2237">
 <g>
  <rect height="98.2237" opacity="0" width="72.7974" x="0" y="0"/>
  <path d="M72.7974 55.2651C72.7974 53.4326 71.4482 52.0464 69.6274 52.0464C68.728 52.0464 67.8623 52.3462 67.2778 52.9155L52.5122 67.5464L37.3931 83.8447L39.3101 84.5488L39.6773 71.2544L39.6773 3.35694C39.6773 1.50245 38.3096 0.11963 36.4063 0.11963C34.4878 0.11963 33.1353 1.50245 33.1353 3.35694L33.1353 71.2544L33.4873 84.5488L35.438 83.8447L20.2851 67.5464L5.51955 52.9155C4.9839 52.3462 4.06935 52.0464 3.16993 52.0464C1.34912 52.0464 0 53.4326 0 55.2651C0 56.1797 0.333497 56.9326 1.03418 57.667L33.937 90.5615C34.6377 91.2808 35.4731 91.648 36.4063 91.648C37.3394 91.648 38.1597 91.2808 38.8604 90.5615L71.812 57.667C72.4976 56.9326 72.7974 56.1797 72.7974 55.2651ZM72.7974 94.9038C72.7974 93.0005 71.4819 91.6177 69.6123 91.6177L3.26759 91.6177C1.34912 91.6177 0 93.0005 0 94.9038C0 96.8071 1.34912 98.2237 3.26759 98.2237L69.6123 98.2237C71.4819 98.2237 72.7974 96.8071 72.7974 94.9038Z" fill="#000000" fill-opacity="0.85"/>
 </g>
</svg>
