<?xml version="1.0" encoding="UTF-8"?>
<!--Generator: Apple Native CoreSVG 232.5-->
<!DOCTYPE svg
PUBLIC "-//W3C//DTD SVG 1.1//EN"
       "http://www.w3.org/Graphics/SVG/1.1/DTD/svg11.dtd">
<svg version="1.1" xmlns="http://www.w3.org/2000/svg" xmlns:xlink="http://www.w3.org/1999/xlink" width="88.4092" height="88.5371">
 <g>
  <rect height="88.5371" opacity="0" width="88.4092" x="0" y="0"/>
  <path d="M88.4092 14.4019L88.4092 74.2632C88.4092 83.6558 83.5733 88.5371 74.0005 88.5371L14.3936 88.5371C4.86963 88.5371 0 83.7349 0 74.2632L0 14.4019C0 4.93018 4.86963 0.127929 14.3936 0.127929L74.0005 0.127929C83.5733 0.127929 88.4092 5.00928 88.4092 14.4019ZM50.3955 46.1358C50.3955 46.8818 50.6616 47.5269 51.1567 48.0557L57.1787 53.8941L60.2319 56.8311L57.1128 56.6846L22.21 56.6846C20.7817 56.6846 19.6685 57.7642 19.6685 59.2598C19.6685 60.7402 20.7329 61.8989 22.21 61.8989L57.0791 61.8989L60.2319 61.8198L57.1787 64.6558L51.2241 70.5278C50.7104 71.0903 50.3955 71.7017 50.3955 72.4478C50.3955 73.8794 51.5239 74.9741 52.9219 74.9741C53.582 74.9741 54.2979 74.6743 54.8604 74.1455L67.9575 61.1528C69.0708 60.0733 68.9883 58.4766 67.9575 57.4307L54.8604 44.4229C54.3652 43.9277 53.6797 43.6431 52.9219 43.6431C51.4263 43.6431 50.3955 44.689 50.3955 46.1358ZM33.5488 14.5532L20.418 27.4448C19.3721 28.4907 19.3872 30.2559 20.418 31.2681L33.5488 44.2759C34.1113 44.7373 34.7632 45.022 35.4873 45.022C36.919 45.022 38.0137 43.9609 38.0137 42.5293C38.0137 41.7983 37.7324 41.1382 37.2036 40.6094L31.2642 34.771L28.211 31.834L31.2964 31.9805L66.1992 31.9805C67.6611 31.9805 68.7744 30.8335 68.7744 29.3716C68.7744 27.8911 67.71 26.7812 66.1992 26.7812L31.3301 26.7812L28.2447 26.8452L31.2642 24.0093L37.2036 18.1372C37.7324 17.6084 38.0137 16.9146 38.0137 16.2173C38.0137 14.752 36.919 13.6909 35.4873 13.6909C34.7935 13.6909 34.0776 13.9907 33.5488 14.5532Z" fill="#000000" fill-opacity="0.85"/>
 </g>
</svg>
