<?xml version="1.0" encoding="UTF-8"?>
<!--Generator: Apple Native CoreSVG 232.5-->
<!DOCTYPE svg
PUBLIC "-//W3C//DTD SVG 1.1//EN"
       "http://www.w3.org/Graphics/SVG/1.1/DTD/svg11.dtd">
<svg version="1.1" xmlns="http://www.w3.org/2000/svg" xmlns:xlink="http://www.w3.org/1999/xlink" width="97.9595" height="97.9932">
 <g>
  <rect height="97.9932" opacity="0" width="97.9595" x="0" y="0"/>
  <path d="M48.9722 97.9443C75.8247 97.9443 97.9595 75.7759 97.9595 48.9722C97.9595 22.1348 75.791 0 48.9385 0C22.1348 0 0 22.1348 0 48.9722C0 75.7759 22.1685 97.9443 48.9722 97.9443ZM48.9722 91.6113C25.3501 91.6113 6.36671 72.5942 6.36671 48.9722C6.36671 25.3501 25.3164 6.31789 48.9385 6.31789C72.5605 6.31789 91.6265 25.3501 91.6265 48.9722C91.6265 72.5942 72.5942 91.6113 48.9722 91.6113Z" fill="#000000" fill-opacity="0.85"/>
  <path d="M73.3804 54.8232C73.3804 43.7705 65.3838 36.8535 54.2944 36.8535L37.8936 36.8535L32.3589 37L35.6865 34.3662L42.3355 27.8335C42.8828 27.3384 43.2617 26.6226 43.2617 25.794C43.2617 24.231 42.0962 23.0352 40.5029 23.0352C39.6743 23.0352 39.0444 23.2979 38.5122 23.8638L25.5391 37.0474C24.894 37.7261 24.4478 38.5698 24.4478 39.5112C24.4478 40.4712 24.894 41.2813 25.5391 41.96L38.5459 55.2109C39.0781 55.7583 39.708 56.0396 40.5366 56.0396C42.0962 56.0396 43.2617 54.8589 43.2617 53.2471C43.2617 52.5195 42.9502 51.77 42.3692 51.2412L35.0093 44.065L32.3589 42.0225L37.8936 42.2212L54.2944 42.2212C62.1079 42.2212 67.792 46.792 67.792 54.5689C67.792 62.4805 62.1938 67.4741 54.2607 67.4741C53.3569 67.4741 47.2451 67.4741 47.0195 67.4741C45.3892 67.4741 44.1563 68.4526 44.1563 70.2178C44.1563 71.9492 45.3892 72.9277 47.0869 72.9277C47.3311 72.9277 53.3569 72.9277 54.2607 72.9277C65.3501 72.9277 73.3804 65.8911 73.3804 54.8232Z" fill="#000000" fill-opacity="0.85"/>
 </g>
</svg>
