<?xml version="1.0" encoding="UTF-8"?>
<!--Generator: Apple Native CoreSVG 232.5-->
<!DOCTYPE svg
PUBLIC "-//W3C//DTD SVG 1.1//EN"
       "http://www.w3.org/Graphics/SVG/1.1/DTD/svg11.dtd">
<svg version="1.1" xmlns="http://www.w3.org/2000/svg" xmlns:xlink="http://www.w3.org/1999/xlink" width="97.9595" height="97.9932">
 <g>
  <rect height="97.9932" opacity="0" width="97.9595" x="0" y="0"/>
  <path d="M97.9595 48.9722C97.9595 75.7759 75.8247 97.9443 48.9722 97.9443C22.1685 97.9443 0 75.7759 0 48.9722C0 22.1348 22.1348 0 48.9385 0C75.791 0 97.9595 22.1348 97.9595 48.9722ZM20.2036 44.1338L20.3384 62.6152C20.3721 63.3765 20.6382 64.0923 21.0996 64.5537C22.1489 65.5693 23.6934 65.5693 24.709 64.5537C25.2378 64.0215 25.4365 63.3462 25.4854 62.6489L25.3692 54.2095L25.2529 50.0337L27.4126 52.3399L52.1279 76.9727C53.1587 78.0674 54.6997 77.9883 55.7642 76.9727C56.8135 75.8931 56.8135 74.3823 55.749 73.3516L31.0825 48.6514L28.7764 46.5742L32.9859 46.6265L41.395 46.7427C42.1226 46.7427 42.7676 46.4614 43.2998 45.9629C44.3457 44.917 44.3457 43.4551 43.2661 42.3569C42.771 41.8652 42.0518 41.5317 41.3916 41.5317L22.8799 41.4912C21.4331 41.4912 20.2036 42.5894 20.2036 44.1338ZM42.1397 21.0811C41.0938 22.1607 41.124 23.7051 42.1397 24.7359L66.8213 49.4023L69.1274 51.5283L64.918 51.4307L56.5425 51.3784C55.751 51.3784 55.0908 51.626 54.6074 52.1582C53.5918 53.189 53.5918 54.6812 54.6411 55.6968C55.1328 56.1919 55.7695 56.4917 56.5308 56.5254L75.0273 56.6299C76.4556 56.6484 77.7036 55.4155 77.7036 53.9199L77.5991 35.5059C77.5991 34.7783 77.2993 34.0288 76.8042 33.5337C75.7886 32.4844 74.2627 32.4844 73.2134 33.5337C72.6997 34.0171 72.3848 34.7109 72.4185 35.4688L72.4707 43.8779L72.602 47.9863L70.5098 45.7476L45.8096 21.0659C44.7485 20.02 43.1553 20.0503 42.1397 21.0811Z" fill="#000000" fill-opacity="0.85"/>
 </g>
</svg>
