<?xml version="1.0" encoding="UTF-8"?>
<!--Generator: Apple Native CoreSVG 232.5-->
<!DOCTYPE svg
PUBLIC "-//W3C//DTD SVG 1.1//EN"
       "http://www.w3.org/Graphics/SVG/1.1/DTD/svg11.dtd">
<svg version="1.1" xmlns="http://www.w3.org/2000/svg" xmlns:xlink="http://www.w3.org/1999/xlink" width="109.281" height="110.067">
 <g>
  <rect height="110.067" opacity="0" width="109.281" x="0" y="0"/>
  <path d="M1.51972 58.2032L17.1901 72.0445C20.0529 74.6734 23.8991 72.6978 23.8991 69.025L23.8991 58.2799L51.362 58.2799L51.362 85.9918L40.5681 85.9918C36.9289 85.9918 34.9684 89.8043 37.5637 92.6671L51.405 108.337C53.2927 110.444 56.1501 110.361 57.9401 108.304L71.7326 92.6671C74.3615 89.8043 72.4011 85.9918 68.7282 85.9918L57.9831 85.9918L57.9831 58.2799L85.382 58.2799L85.382 69.025C85.382 72.6978 89.1945 74.6734 92.091 72.0445L107.728 58.2369C109.767 56.3829 109.819 53.5592 107.761 51.7017L92.091 37.8604C89.1945 35.2803 85.382 37.2408 85.382 40.88L85.382 51.6588L57.9831 51.6588L57.9831 23.8829L68.7282 23.8829C72.4011 23.8829 74.3615 20.0704 71.7326 17.2227L57.9065 1.55232C56.0827-0.538993 53.2253-0.501883 51.3713 1.57087L37.5637 17.2227C34.9684 20.0704 36.9289 23.8829 40.5681 23.8829L51.362 23.8829L51.362 51.6588L23.8991 51.6588L23.8991 40.88C23.8991 37.2408 20.0529 35.2803 17.1901 37.8604L1.55341 51.668C-0.470516 53.4918-0.553036 56.3155 1.51972 58.2032Z" fill="#000000" fill-opacity="0.85"/>
 </g>
</svg>
