<?xml version="1.0" encoding="UTF-8"?>
<!--Generator: Apple Native CoreSVG 232.5-->
<!DOCTYPE svg
PUBLIC "-//W3C//DTD SVG 1.1//EN"
       "http://www.w3.org/Graphics/SVG/1.1/DTD/svg11.dtd">
<svg version="1.1" xmlns="http://www.w3.org/2000/svg" xmlns:xlink="http://www.w3.org/1999/xlink" width="80.7363" height="104.094">
 <g>
  <rect height="104.094" opacity="0" width="80.7363" x="0" y="0"/>
  <path d="M37.3975 35.231C37.3975 40.936 40.1338 43.7026 45.8389 43.7026L80.7363 43.7026L80.7363 89.7187C80.7363 99.2241 75.9341 104.094 66.4624 104.094L14.2739 104.094C4.80225 104.094 0 99.2578 0 89.7187L0 14.4356C0 4.93018 4.88135 0.0268549 14.2739 0.0268549L37.3975 0.0268549ZM38.3066 52.7837L23.8628 66.5015C23.2363 67.0757 22.7666 67.709 22.7666 68.6924C22.7666 70.1694 23.8613 71.2642 25.3906 71.2642C26.0879 71.2642 26.8677 70.9341 27.3848 70.417L31.5269 66.1773L37.8232 59.7681L37.5908 68.4971L37.5908 88.9155C37.5908 90.396 38.8389 91.6255 40.3682 91.6255C41.8975 91.6255 43.1792 90.396 43.1792 88.9155L43.1792 68.4971L42.9131 59.7681L49.2095 66.1773L53.3516 70.417C53.8686 70.9341 54.6147 71.2642 55.3457 71.2642C56.8413 71.2642 57.9697 70.1694 57.9697 68.6924C57.9697 67.709 57.5 67.0757 56.8735 66.5015L42.4297 52.7837C41.6953 52.1167 41.0503 51.8355 40.3682 51.8355C39.686 51.8355 39.041 52.1167 38.3066 52.7837ZM48.1187 3.98438L76.7788 32.9814C78.6079 34.8291 79.8423 36.4038 80.0747 38.0122L46.1216 38.0122C44.0576 38.0122 43.0728 37.0273 43.0728 34.9971L43.0728 0.66992C44.7149 0.951171 46.3233 2.15527 48.1187 3.98438Z" fill="#000000" fill-opacity="0.85"/>
 </g>
</svg>
