<?xml version="1.0" encoding="UTF-8"?>
<!--Generator: Apple Native CoreSVG 232.5-->
<!DOCTYPE svg
PUBLIC "-//W3C//DTD SVG 1.1//EN"
       "http://www.w3.org/Graphics/SVG/1.1/DTD/svg11.dtd">
<svg version="1.1" xmlns="http://www.w3.org/2000/svg" xmlns:xlink="http://www.w3.org/1999/xlink" width="97.9595" height="97.9932">
 <g>
  <rect height="97.9932" opacity="0" width="97.9595" x="0" y="0"/>
  <path d="M48.9722 97.9443C75.8247 97.9443 97.9595 75.7759 97.9595 48.9722C97.9595 22.1348 75.791 0 48.9385 0C22.1348 0 0 22.1348 0 48.9722C0 75.7759 22.1685 97.9443 48.9722 97.9443ZM48.9722 91.6113C25.3501 91.6113 6.36671 72.5942 6.36671 48.9722C6.36671 25.3501 25.3164 6.31789 48.9385 6.31789C72.5605 6.31789 91.6265 25.3501 91.6265 48.9722C91.6265 72.5942 72.5942 91.6113 48.9722 91.6113Z" fill="#000000" fill-opacity="0.85"/>
  <path d="M24.4478 54.8232C24.4478 65.8911 32.4932 72.9277 43.5825 72.9277C44.4712 72.9277 50.4971 72.9277 50.7412 72.9277C52.4541 72.9277 53.687 71.9492 53.687 70.2178C53.687 68.4526 52.4541 67.4741 50.8086 67.4741C50.5981 67.4741 44.4712 67.4741 43.5825 67.4741C35.6343 67.4741 30.0361 62.4805 30.0361 54.5689C30.0361 46.792 35.7354 42.2212 43.5488 42.2212L59.9346 42.2212L65.4844 42.0225L62.8188 44.065L55.4741 51.2412C54.8779 51.77 54.5664 52.5195 54.5664 53.2471C54.5664 54.8589 55.7471 56.0396 57.3066 56.0396C58.1353 56.0396 58.75 55.7583 59.2822 55.2109L72.3042 41.96C72.9492 41.2813 73.3804 40.4712 73.3804 39.5112C73.3804 38.5698 72.9492 37.7261 72.3042 37.0474L59.3159 23.8638C58.7837 23.2979 58.169 23.0352 57.3403 23.0352C55.7471 23.0352 54.5664 24.231 54.5664 25.794C54.5664 26.6226 54.9453 27.3384 55.5078 27.8335L62.1416 34.3662L65.4844 37L59.9346 36.8535L43.5488 36.8535C32.4595 36.8535 24.4478 43.7705 24.4478 54.8232Z" fill="#000000" fill-opacity="0.85"/>
 </g>
</svg>
