<?xml version="1.0" encoding="UTF-8"?>
<!--Generator: Apple Native CoreSVG 232.5-->
<!DOCTYPE svg
PUBLIC "-//W3C//DTD SVG 1.1//EN"
       "http://www.w3.org/Graphics/SVG/1.1/DTD/svg11.dtd">
<svg version="1.1" xmlns="http://www.w3.org/2000/svg" xmlns:xlink="http://www.w3.org/1999/xlink" width="91.3174" height="75.3936">
 <g>
  <rect height="75.3936" opacity="0" width="91.3174" x="0" y="0"/>
  <path d="M87.8174 74.7515C89.8149 74.7515 90.6841 73.4697 91.0176 71.8916C91.25 70.669 91.3174 68.167 91.3174 65.3501C91.3174 42.7163 81.833 33.1504 59.6689 33.1504L21.6934 33.1504L9.95754 33.6221L24.3843 20.1118L38.8115 5.54982C39.4111 4.93507 39.711 4.09962 39.711 3.2002C39.711 1.34912 38.2944 0 36.4619 0C35.5474 0 34.7153 0.314942 33.7622 1.2832L1.16553 33.9219C0.40088 34.6528 0 35.5371 0 36.4365C0 37.3696 0.40088 38.2202 1.16553 39L34.0112 71.8877C34.7793 72.5884 35.5474 72.9219 36.4619 72.9219C38.2944 72.9219 39.711 71.5728 39.711 69.7217C39.711 68.8223 39.3809 67.9228 38.8115 67.3384L24.3843 52.7764L9.92385 39.2661L21.6934 39.7715L59.3809 39.7715C77.5127 39.7715 84.644 47.2656 84.644 65.6987C84.644 68.3418 84.5312 70.1196 84.5312 71.4351C84.5312 73.4024 85.8989 74.7515 87.8174 74.7515Z" fill="#000000" fill-opacity="0.85"/>
 </g>
</svg>
