<?xml version="1.0" encoding="UTF-8"?>
<!--Generator: Apple Native CoreSVG 232.5-->
<!DOCTYPE svg
PUBLIC "-//W3C//DTD SVG 1.1//EN"
       "http://www.w3.org/Graphics/SVG/1.1/DTD/svg11.dtd">
<svg version="1.1" xmlns="http://www.w3.org/2000/svg" xmlns:xlink="http://www.w3.org/1999/xlink" width="97.9595" height="97.9932">
 <g>
  <rect height="97.9932" opacity="0" width="97.9595" x="0" y="0"/>
  <path d="M48.9722 97.9443C75.8247 97.9443 97.9595 75.7759 97.9595 48.9722C97.9595 22.1348 75.791 0 48.9385 0C22.1348 0 0 22.1348 0 48.9722C0 75.7759 22.1685 97.9443 48.9722 97.9443ZM48.9722 91.6113C25.3501 91.6113 6.36671 72.5942 6.36671 48.9722C6.36671 25.3501 25.3164 6.31789 48.9385 6.31789C72.5605 6.31789 91.6265 25.3501 91.6265 48.9722C91.6265 72.5942 72.5942 91.6113 48.9722 91.6113Z" fill="#000000" fill-opacity="0.85"/>
  <path d="M42.0874 73.1045C53.1738 73.1045 60.0908 65.1416 60.0908 54.0186L60.0908 37.6514L59.9107 32.083L62.5445 35.4444L69.0772 42.0933C69.606 42.6221 70.2881 43.0195 71.1167 43.0195C72.6797 43.0195 73.9092 41.8203 73.9092 40.2608C73.9092 39.4321 73.6128 38.7837 73.0469 38.2363L59.8633 25.2969C59.2183 24.6182 58.3408 24.2056 57.3994 24.2056C56.4732 24.2056 55.6294 24.6182 54.9844 25.2969L41.6997 38.27C41.1523 38.8174 40.8711 39.4658 40.8711 40.2944C40.8711 41.8203 42.0855 43.0195 43.6636 43.0195C44.4248 43.0195 45.1406 42.6743 45.7031 42.127L52.8794 34.7671L54.8882 32.083L54.7231 37.6514L54.7231 54.0186C54.7231 61.832 50.1187 67.5313 42.3418 67.5313C34.4639 67.5313 29.4365 61.918 29.4365 53.9849C29.4365 53.1299 29.4365 46.9692 29.4365 46.7588C29.4365 45.147 28.458 43.9141 26.7266 43.9141C24.9951 43.9141 23.9829 45.147 23.9829 46.811C23.9829 47.0552 23.9829 53.1299 23.9829 53.9849C23.9829 65.1079 31.0195 73.1045 42.0874 73.1045Z" fill="#000000" fill-opacity="0.85"/>
 </g>
</svg>
