<?xml version="1.0" encoding="UTF-8"?>
<!--Generator: Apple Native CoreSVG 232.5-->
<!DOCTYPE svg
PUBLIC "-//W3C//DTD SVG 1.1//EN"
       "http://www.w3.org/Graphics/SVG/1.1/DTD/svg11.dtd">
<svg version="1.1" xmlns="http://www.w3.org/2000/svg" xmlns:xlink="http://www.w3.org/1999/xlink" width="97.0039" height="89.9326">
 <g>
  <rect height="89.9326" opacity="0" width="97.0039" x="0" y="0"/>
  <path d="M1.81396 31.1235C1.81396 51.4702 19.5937 71.46 46.4214 88.8262C47.2803 89.3701 48.5366 89.9326 49.3921 89.9326C50.2813 89.9326 51.5039 89.3701 52.4116 88.8262C79.2241 71.46 97.0039 51.4702 97.0039 31.1235C97.0039 14.4136 85.502 2.53955 70.1021 2.53955C61.2656 2.53955 53.5933 7.06348 49.3921 14.064C45.2583 7.09717 37.5522 2.53955 28.6973 2.53955C13.3159 2.53955 1.81396 14.4136 1.81396 31.1235ZM7.85889 31.1235C7.85889 17.6963 16.6812 8.56935 28.6299 8.56935C37.7373 8.56935 43.3403 14.1914 46.7109 19.7857C47.7417 21.3906 48.4355 21.8672 49.3921 21.8672C50.3823 21.8672 51.0088 21.3569 52.1221 19.7857C55.6123 14.2588 61.1294 8.56935 70.1543 8.56935C82.1367 8.56935 90.9741 17.6963 90.9741 31.1235C90.9741 49.4238 71.8603 68.7769 50.2661 83.1382C49.8838 83.4194 49.5874 83.6182 49.3921 83.6182C49.2305 83.6182 48.9492 83.4194 48.5669 83.1382C26.9575 68.7769 7.85889 49.4238 7.85889 31.1235Z" fill="#000000" fill-opacity="0.85"/>
  <path d="M51.4141 31.6284C51.4141 30.0806 50.0649 28.7837 48.502 28.7837C46.9541 28.7837 45.6235 30.0806 45.6235 31.6284L45.6235 52.3013L45.8711 61.1987L39.5259 54.7222L35.562 50.6792C35.0786 50.1436 34.2803 49.8135 33.5342 49.8135C31.9863 49.8135 30.8579 50.9419 30.8579 52.4863C30.8579 53.5034 31.3125 54.1367 31.9878 54.7295L46.373 68.3701C47.1411 69.1045 47.7861 69.3521 48.502 69.3521C49.2178 69.3521 49.8628 69.1045 50.6309 68.3701L65.0161 54.7295C65.6914 54.1367 66.146 53.5034 66.146 52.4863C66.146 50.9419 64.9839 49.8135 63.4697 49.8135C62.6899 49.8135 61.959 50.1436 61.4419 50.6792L57.478 54.7222L51.148 61.1987L51.4141 52.3013Z" fill="#000000" fill-opacity="0.85"/>
 </g>
</svg>
