<?xml version="1.0" encoding="UTF-8"?>
<!--Generator: Apple Native CoreSVG 232.5-->
<!DOCTYPE svg
PUBLIC "-//W3C//DTD SVG 1.1//EN"
       "http://www.w3.org/Graphics/SVG/1.1/DTD/svg11.dtd">
<svg version="1.1" xmlns="http://www.w3.org/2000/svg" xmlns:xlink="http://www.w3.org/1999/xlink" width="91.3174" height="79.083">
 <g>
  <rect height="79.083" opacity="0" width="91.3174" x="0" y="0"/>
  <path d="M87.8174 0C85.8989 0 84.5312 1.34912 84.5312 3.28272C84.5312 4.63185 84.644 6.39112 84.644 9.05274C84.644 27.501 77.5127 34.9951 59.3809 34.9951L21.6934 34.9951L9.92385 35.5005L24.3843 21.9565L38.8115 7.39455C39.3809 6.81008 39.711 5.94435 39.711 5.04494C39.711 3.19386 38.2944 1.84473 36.4619 1.84473C35.5474 1.84473 34.7793 2.14454 34.0112 2.84522L1.16553 35.7666C0.40088 36.4976 0 37.3818 0 38.2813C0 39.2144 0.40088 40.065 1.16553 40.8447L33.7622 73.4834C34.7153 74.4028 35.5474 74.7666 36.4619 74.7666C38.2944 74.7666 39.711 73.4175 39.711 71.5664C39.711 70.667 39.4111 69.8164 38.8115 69.1831L24.3843 54.6211L9.95754 41.1445L21.6934 41.6162L59.6689 41.6162C81.833 41.6162 91.3174 32.0503 91.3174 9.41651C91.3174 6.55079 91.25 4.08253 91.0176 2.84131C90.6841 1.29688 89.8149 0 87.8174 0Z" fill="#000000" fill-opacity="0.85"/>
 </g>
</svg>
