<?xml version="1.0" encoding="UTF-8"?>
<!--Generator: Apple Native CoreSVG 232.5-->
<!DOCTYPE svg
PUBLIC "-//W3C//DTD SVG 1.1//EN"
       "http://www.w3.org/Graphics/SVG/1.1/DTD/svg11.dtd">
<svg version="1.1" xmlns="http://www.w3.org/2000/svg" xmlns:xlink="http://www.w3.org/1999/xlink" width="81.8413" height="77.1104">
 <g>
  <rect height="77.1104" opacity="0" width="81.8413" x="0" y="0"/>
  <path d="M74.3545 0.0639647C72.7344 0.0639647 71.4595 0.72754 69.666 1.6167L4.54542 33.1147C1.2124 34.7568 0 36.3398 0 38.5796C0 40.8193 1.2124 42.436 4.54542 44.0933L69.666 75.5425C71.4932 76.4316 72.7681 77.1104 74.3882 77.1104C77.4565 77.1104 79.3511 74.8149 79.3511 71.1572L79.3511 6.00196C79.3511 2.34424 77.4229 0.0639647 74.3545 0.0639647ZM72.6362 7.07082C73.0351 7.07082 73.3061 7.40578 73.3061 7.97462L73.3398 69.1997C73.3398 69.8174 73.0688 70.0884 72.6548 70.0884C72.3686 70.0884 72.0825 69.9453 71.7812 69.7871L8.66701 39.48C8.28664 39.3218 7.90969 38.9902 7.90969 38.5796C7.90969 38.1689 8.28664 37.8525 8.66701 37.6792L71.7627 7.40578C72.0488 7.21388 72.335 7.07082 72.6362 7.07082Z" fill="#000000" fill-opacity="0.85"/>
 </g>
</svg>
