<?xml version="1.0" encoding="UTF-8"?>
<!--Generator: Apple Native CoreSVG 232.5-->
<!DOCTYPE svg
PUBLIC "-//W3C//DTD SVG 1.1//EN"
       "http://www.w3.org/Graphics/SVG/1.1/DTD/svg11.dtd">
<svg version="1.1" xmlns="http://www.w3.org/2000/svg" xmlns:xlink="http://www.w3.org/1999/xlink" width="97.9595" height="99.1651">
 <g>
  <rect height="99.1651" opacity="0" width="97.9595" x="0" y="0"/>
  <path d="M97.9595 48.9722C97.9595 75.8247 75.8247 97.9595 48.9722 97.9595C22.1685 97.9595 0 75.8247 0 48.9722C0 22.1685 22.1348 0 48.9385 0C75.791 0 97.9595 22.1685 97.9595 48.9722ZM38.667 24.478L26.0742 37.2964C25.3618 38.0088 24.9829 38.9351 24.9829 39.8125C24.9829 40.7539 25.3281 41.6011 26.0742 42.3286L38.7007 55.2481C39.2632 55.7803 39.9453 56.1104 40.8262 56.1104C42.4194 56.1104 43.6187 54.7983 43.6187 53.1831C43.6187 52.3545 43.3037 51.6387 42.7075 51.0273L35.6338 44.1524L33.4146 42.4771L38.2891 42.6909L54.1362 42.6909C62.0005 42.6909 67.1743 47.4067 67.1743 54.4898C67.1743 61.8643 61.9331 66.8008 54.1025 66.8008L47.0986 66.8008C45.3486 66.8008 44.168 67.9815 44.168 69.6455C44.168 71.3735 45.3823 72.4566 47.166 72.4566L54.1025 72.4566C65.3286 72.4566 72.8452 65.3389 72.8452 54.4898C72.8452 43.9658 65.3472 37.0352 54.1362 37.0352L38.2891 37.0352L33.3809 37.2002L36.2774 34.9302L42.7075 28.6314C43.3037 28.084 43.6187 27.3379 43.6187 26.5396C43.6187 24.894 42.4683 23.6123 40.7925 23.6123C39.9116 23.6123 39.2632 23.9121 38.667 24.478Z" fill="#000000" fill-opacity="0.85"/>
 </g>
</svg>
