<?xml version="1.0" encoding="UTF-8"?>
<!--Generator: Apple Native CoreSVG 232.5-->
<!DOCTYPE svg
PUBLIC "-//W3C//DTD SVG 1.1//EN"
       "http://www.w3.org/Graphics/SVG/1.1/DTD/svg11.dtd">
<svg version="1.1" xmlns="http://www.w3.org/2000/svg" xmlns:xlink="http://www.w3.org/1999/xlink" width="80.0822" height="103.476">
 <g>
  <rect height="103.476" opacity="0" width="80.0822" x="0" y="0"/>
  <path d="M40.0655 103.344C57.6324 103.344 69.1866 91.7749 69.1866 74.1255L69.1866 64.291C69.1866 62.6084 67.8712 61.293 66.1886 61.293C64.5059 61.293 63.1568 62.6084 63.1568 64.291L63.1568 74.1255C63.1568 87.9551 53.8277 97.2993 40.0655 97.2993C26.2511 97.2993 16.8917 87.9551 16.8917 74.1255L16.8917 29.1699C16.8917 15.4229 26.2511 6.0298 40.0655 6.0298C53.8277 6.0298 63.1568 15.4229 63.1568 29.1699L63.1568 35.5L69.1866 35.5L69.1866 29.1699C69.1866 11.5542 57.6324 0 40.0655 0C22.4161 0 10.8619 11.5542 10.8619 29.1699L10.8619 74.1255C10.8619 91.7749 22.4161 103.344 40.0655 103.344ZM77.2325 30.7427L55.3316 30.7427C52.5494 30.7427 51.7276 32.6963 53.3106 34.9883L63.9605 50.186C65.2808 52.0503 67.2159 52.084 68.5699 50.186L79.2535 35.022C80.8702 32.6963 80.0821 30.7427 77.2325 30.7427Z" fill="#000000" fill-opacity="0.85"/>
 </g>
</svg>
