<?xml version="1.0" encoding="UTF-8"?>
<!--Generator: Apple Native CoreSVG 232.5-->
<!DOCTYPE svg
PUBLIC "-//W3C//DTD SVG 1.1//EN"
       "http://www.w3.org/Graphics/SVG/1.1/DTD/svg11.dtd">
<svg version="1.1" xmlns="http://www.w3.org/2000/svg" xmlns:xlink="http://www.w3.org/1999/xlink" width="80.7363" height="104.094">
 <g>
  <rect height="104.094" opacity="0" width="80.7363" x="0" y="0"/>
  <path d="M14.2739 104.094L66.4624 104.094C75.9341 104.094 80.7363 99.2241 80.7363 89.7187L80.7363 43.9146C80.7363 38.6299 80.0342 36.3042 76.7788 32.9814L48.1187 3.98438C44.9829 0.796387 42.4214 0.0268549 37.6943 0.0268549L14.2739 0.0268549C4.88135 0.0268549 0 4.93018 0 14.4356L0 89.7187C0 99.2578 4.80225 104.094 14.2739 104.094ZM14.54 98.0488C8.93556 98.0488 6.04494 95.0908 6.04494 89.5874L6.04494 14.5669C6.04494 9.17286 8.93556 6.07179 14.5737 6.07179L37.4375 6.07179L37.4375 35.4702C37.4375 41.0625 40.2261 43.6963 45.6484 43.6963L74.6914 43.6963L74.6914 89.5874C74.6914 95.0908 71.8008 98.0488 66.1626 98.0488ZM46.27 37.9731C44.0142 37.9731 43.1455 37.0859 43.1455 34.8149L43.1455 7.29787L73.4653 37.9731Z" fill="#000000" fill-opacity="0.85"/>
  <path d="M43.2466 52.9702C43.2466 51.4072 41.916 50.1592 40.3682 50.1592C38.8203 50.1592 37.4897 51.4072 37.4897 52.9702L37.4897 73.6616L37.7373 82.5591L31.3921 76.0825L27.1489 71.7417C26.647 71.1909 25.8335 70.876 25.1025 70.876C23.5396 70.876 22.4111 72.0044 22.4111 73.5488C22.4111 74.5659 22.8809 75.1992 23.541 75.792L38.2393 89.7305C39.0073 90.4312 39.6523 90.7124 40.3682 90.7124C41.084 90.7124 41.729 90.4312 42.4971 89.7305L57.1953 75.792C57.8555 75.1992 58.3252 74.5659 58.3252 73.5488C58.3252 72.0044 57.1631 70.876 55.6338 70.876C54.8691 70.876 54.0894 71.1909 53.5874 71.7417L49.3442 76.0825L43.0142 82.5591L43.2466 73.6616Z" fill="#000000" fill-opacity="0.85"/>
 </g>
</svg>
