<?xml version="1.0" encoding="UTF-8"?>
<!--Generator: Apple Native CoreSVG 232.5-->
<!DOCTYPE svg
PUBLIC "-//W3C//DTD SVG 1.1//EN"
       "http://www.w3.org/Graphics/SVG/1.1/DTD/svg11.dtd">
<svg version="1.1" xmlns="http://www.w3.org/2000/svg" xmlns:xlink="http://www.w3.org/1999/xlink" width="97.0039" height="89.9326">
 <g>
  <rect height="89.9326" opacity="0" width="97.0039" x="0" y="0"/>
  <path d="M97.0039 31.1235C97.0039 51.4702 79.2241 71.46 52.4116 88.8262C51.5039 89.3701 50.2813 89.9326 49.3921 89.9326C48.5366 89.9326 47.2803 89.3701 46.4214 88.8262C19.5937 71.46 1.81396 51.4702 1.81396 31.1235C1.81396 14.4136 13.3159 2.53955 28.3755 2.53955C37.5522 2.53955 45.2583 7.74073 49.3921 15.6729C53.5933 7.70704 61.2656 2.53955 70.4238 2.53955C85.502 2.53955 97.0039 14.4136 97.0039 31.1235ZM45.5376 30.3413L45.5376 51.3359L45.77 60.3867L39.3911 53.8428L35.3413 49.7139C34.8242 49.1631 34.0259 48.8145 33.2461 48.8145C31.6309 48.8145 30.4688 49.9766 30.4688 51.5884C30.4688 52.624 30.957 53.2573 31.6323 53.8989L46.3208 67.7603C47.1074 68.5132 47.7524 68.7759 48.502 68.7759C49.2515 68.7759 49.8965 68.5132 50.6831 67.7603L65.3716 53.8989C66.0469 53.2573 66.5352 52.624 66.5352 51.5884C66.5352 49.9766 65.3057 48.8145 63.7578 48.8145C62.9443 48.8145 62.2134 49.1631 61.6626 49.7139L57.6128 53.8428L51.2339 60.3867L51.5 51.3359L51.5 30.3413C51.5 28.7598 50.1172 27.4292 48.502 27.4292C46.8867 27.4292 45.5376 28.7598 45.5376 30.3413Z" fill="#000000" fill-opacity="0.85"/>
 </g>
</svg>
