<?xml version="1.0" encoding="UTF-8"?>
<!--Generator: Apple Native CoreSVG 232.5-->
<!DOCTYPE svg
PUBLIC "-//W3C//DTD SVG 1.1//EN"
       "http://www.w3.org/Graphics/SVG/1.1/DTD/svg11.dtd">
<svg version="1.1" xmlns="http://www.w3.org/2000/svg" xmlns:xlink="http://www.w3.org/1999/xlink" width="97.9595" height="97.9932">
 <g>
  <rect height="97.9932" opacity="0" width="97.9595" x="0" y="0"/>
  <path d="M97.9595 48.9722C97.9595 75.7759 75.8247 97.9443 48.9722 97.9443C22.1685 97.9443 0 75.7759 0 48.9722C0 22.1348 22.1348 0 48.9385 0C75.791 0 97.9595 22.1348 97.9595 48.9722ZM46.0449 26.8735L46.0449 55.6006L46.3784 64.8711L40.9102 58.7407L33.7725 51.5693C33.21 50.9731 32.4907 50.6885 31.6773 50.6885C30.062 50.6885 28.8628 51.8877 28.8628 53.4878C28.8628 54.3198 29.0952 54.9868 29.6274 55.5191L46.7725 72.627C47.5405 73.3799 48.189 73.7134 49.0059 73.7134C49.8565 73.7134 50.5386 73.3462 51.273 72.627L68.4146 55.5191C68.9468 54.9868 69.2466 54.3198 69.2466 53.4878C69.2466 51.8877 68.0137 50.6885 66.3984 50.6885C65.5513 50.6885 64.8506 50.9546 64.3032 51.5693L57.1992 58.7407L51.6333 64.9199L51.9668 55.6006L51.9668 26.8735C51.9668 25.1118 50.7676 23.9126 49.0059 23.9126C47.3081 23.9126 46.0449 25.1118 46.0449 26.8735Z" fill="#000000" fill-opacity="0.85"/>
 </g>
</svg>
