<?xml version="1.0" encoding="UTF-8"?>
<!--Generator: Apple Native CoreSVG 232.5-->
<!DOCTYPE svg
PUBLIC "-//W3C//DTD SVG 1.1//EN"
       "http://www.w3.org/Graphics/SVG/1.1/DTD/svg11.dtd">
<svg version="1.1" xmlns="http://www.w3.org/2000/svg" xmlns:xlink="http://www.w3.org/1999/xlink" width="97.9595" height="97.9932">
 <g>
  <rect height="97.9932" opacity="0" width="97.9595" x="0" y="0"/>
  <path d="M48.9722 97.9443C75.8247 97.9443 97.9595 75.7759 97.9595 48.9722C97.9595 22.1348 75.791 0 48.9385 0C22.1348 0 0 22.1348 0 48.9722C0 75.7759 22.1685 97.9443 48.9722 97.9443ZM48.9722 91.6113C25.3501 91.6113 6.36671 72.5942 6.36671 48.9722C6.36671 25.3501 25.3164 6.31789 48.9385 6.31789C72.5605 6.31789 91.6265 25.3501 91.6265 48.9722C91.6265 72.5942 72.5942 91.6113 48.9722 91.6113Z" fill="#000000" fill-opacity="0.85"/>
  <path d="M69.8355 47.7578C71.3311 47.7578 72.5454 46.562 72.5454 45.0664L72.5454 28.4678C72.5454 26.2798 71.3648 25.3687 69.4463 25.3687L52.8999 25.3687C51.4043 25.3687 50.1899 26.5981 50.1899 28.0938C50.1899 29.5742 51.4043 30.77 52.8999 30.77L56.0796 30.7398L63.853 30.418L51.728 42.1118C50.6147 43.1914 50.5811 45.0542 51.6943 46.1524C52.8262 47.3145 54.6216 47.3482 55.7686 46.1187L67.4961 33.96L67.1592 42.1441L67.1592 45.0664C67.1592 46.562 68.355 47.7578 69.8355 47.7578ZM45.0259 72.5674C46.5215 72.5674 47.7022 71.3379 47.7022 69.8574C47.7022 68.3618 46.5215 67.166 45.0259 67.166L41.8311 67.1963L34.0728 67.5181L46.1641 55.8242C47.2774 54.7446 47.311 52.897 46.1978 51.7837C45.0996 50.6367 43.2705 50.603 42.1421 51.8174L30.3809 63.9912L30.7666 55.8071L30.7666 52.8696C30.7666 51.374 29.5371 50.1934 28.0566 50.1934C26.561 50.1934 25.3652 51.374 25.3652 52.8696L25.3652 69.4683C25.3652 71.6563 26.5273 72.5674 28.4458 72.5674Z" fill="#000000" fill-opacity="0.85"/>
 </g>
</svg>
