<?xml version="1.0" encoding="UTF-8"?>
<!--Generator: Apple Native CoreSVG 232.5-->
<!DOCTYPE svg
PUBLIC "-//W3C//DTD SVG 1.1//EN"
       "http://www.w3.org/Graphics/SVG/1.1/DTD/svg11.dtd">
<svg version="1.1" xmlns="http://www.w3.org/2000/svg" xmlns:xlink="http://www.w3.org/1999/xlink" width="97.9595" height="99.1651">
 <g>
  <rect height="99.1651" opacity="0" width="97.9595" x="0" y="0"/>
  <path d="M97.9595 48.9722C97.9595 75.8247 75.8247 97.9595 48.9722 97.9595C22.1685 97.9595 0 75.8247 0 48.9722C0 22.1685 22.1348 0 48.9385 0C75.791 0 97.9595 22.1685 97.9595 48.9722ZM36.6245 43.3667L36.6245 59.2139L36.8232 64.1558L34.5044 61.2593L28.2207 54.7954C27.6919 54.248 26.9273 53.8843 26.1138 53.8843C24.5474 53.8843 23.2202 55.0835 23.2202 56.7441C23.2202 57.5913 23.4712 58.2734 24.0522 58.8359L36.8857 71.4624C37.6167 72.1748 38.5244 72.5537 39.4356 72.5537C40.3281 72.5537 41.1904 72.2085 41.9517 71.4624L54.8711 58.8023C55.4185 58.2734 55.7183 57.5576 55.7183 56.7256C55.7183 55.0835 54.4214 53.8843 52.791 53.8843C51.9439 53.8843 51.1978 54.248 50.6353 54.7954L43.7417 61.9028L42.0664 64.1221L42.2651 59.2139L42.2651 43.3667C42.2651 35.5361 46.981 30.3623 54.064 30.3623C61.4873 30.3623 66.4238 35.6035 66.4238 43.4004L66.4238 50.4043C66.4238 52.1543 67.5557 53.3687 69.2349 53.3687C70.9629 53.3687 72.0796 52.1206 72.0796 50.3369L72.0796 43.4004C72.0796 32.2231 64.9468 24.6577 54.064 24.6577C43.5552 24.6577 36.6245 32.1895 36.6245 43.3667Z" fill="#000000" fill-opacity="0.85"/>
 </g>
</svg>
