<?xml version="1.0" encoding="UTF-8"?>
<!--Generator: Apple Native CoreSVG 232.5-->
<!DOCTYPE svg
PUBLIC "-//W3C//DTD SVG 1.1//EN"
       "http://www.w3.org/Graphics/SVG/1.1/DTD/svg11.dtd">
<svg version="1.1" xmlns="http://www.w3.org/2000/svg" xmlns:xlink="http://www.w3.org/1999/xlink" width="114.35" height="88.4395">
 <g>
  <rect height="88.4395" opacity="0" width="114.35" x="0" y="0"/>
  <path d="M114.35 14.2739L114.35 74.169C114.35 83.5615 109.514 88.4092 99.9409 88.4092L14.3936 88.4092C4.86963 88.4092 0 83.6069 0 74.169L0 14.2739C0 4.83594 4.86963 0 14.3936 0L99.9409 0C109.514 0 114.35 4.88135 114.35 14.2739ZM21.1699 40.7349C19.3071 40.7349 18.1416 41.8516 18.1416 43.5342C18.1416 45.2808 19.3408 46.4126 21.2373 46.4126L31.6187 46.4126L38.8472 45.9038L32.0605 52.2744L14.1084 70.208C13.5425 70.7739 13.1602 71.5571 13.1602 72.352C13.1602 74.1172 14.292 75.249 16.0386 75.249C17.002 75.249 17.7178 74.9004 18.2989 74.3345L36.187 56.4312L42.5239 49.7119L42.0337 57.9028L42.0337 67.2729C42.0337 69.1357 43.1807 70.335 44.9121 70.335C46.5947 70.335 47.7603 69.0347 47.7603 67.2056L47.7603 43.9014C47.7603 41.6797 46.4937 40.7349 44.5567 40.7349Z" fill="#000000" fill-opacity="0.85"/>
 </g>
</svg>
