<?xml version="1.0" encoding="UTF-8"?>
<!--Generator: Apple Native CoreSVG 232.5-->
<!DOCTYPE svg
PUBLIC "-//W3C//DTD SVG 1.1//EN"
       "http://www.w3.org/Graphics/SVG/1.1/DTD/svg11.dtd">
<svg version="1.1" xmlns="http://www.w3.org/2000/svg" xmlns:xlink="http://www.w3.org/1999/xlink" width="88.4092" height="88.5371">
 <g>
  <rect height="88.5371" opacity="0" width="88.4092" x="0" y="0"/>
  <path d="M88.4092 14.4019L88.4092 74.2632C88.4092 83.6558 83.5733 88.5371 74.0005 88.5371L14.3936 88.5371C4.86963 88.5371 0 83.7349 0 74.2632L0 14.4019C0 4.93018 4.86963 0.127929 14.3936 0.127929L74.0005 0.127929C83.5733 0.127929 88.4092 5.00928 88.4092 14.4019ZM33.9238 19.7012L21.3159 32.5195C20.6035 33.2656 20.2397 34.1582 20.2397 35.0845C20.2397 35.9771 20.585 36.8394 21.3159 37.6006L33.9575 50.52C34.52 51.0523 35.2022 51.3672 36.0679 51.3672C37.6611 51.3672 38.8941 50.0552 38.8941 48.4399C38.8941 47.5928 38.5454 46.8955 37.9644 46.2842L30.8755 39.3906L28.6714 37.749L33.5796 37.9141L49.4268 37.9141C57.2422 37.9141 62.4312 42.6299 62.4312 49.7129C62.4312 57.1362 57.1899 62.0728 49.3931 62.0728L42.3555 62.0728C40.6055 62.0728 39.4097 63.2046 39.4097 64.8838C39.4097 66.6118 40.6392 67.7285 42.4229 67.7285L49.3931 67.7285C60.5703 67.7285 68.1021 60.5957 68.1021 49.7129C68.1021 39.2041 60.604 32.2734 49.4268 32.2734L33.5796 32.2734L28.6377 32.4722L31.5191 30.1533L37.9644 23.8696C38.5454 23.3408 38.8941 22.5762 38.8941 21.7964C38.8941 20.1172 37.7251 18.8691 36.0342 18.8691C35.1685 18.8691 34.52 19.1353 33.9238 19.7012Z" fill="#000000" fill-opacity="0.85"/>
 </g>
</svg>
