<?xml version="1.0" encoding="UTF-8"?>
<!--Generator: Apple Native CoreSVG 232.5-->
<!DOCTYPE svg
PUBLIC "-//W3C//DTD SVG 1.1//EN"
       "http://www.w3.org/Graphics/SVG/1.1/DTD/svg11.dtd">
<svg version="1.1" xmlns="http://www.w3.org/2000/svg" xmlns:xlink="http://www.w3.org/1999/xlink" width="88.4092" height="88.9072">
 <g>
  <rect height="88.9072" opacity="0" width="88.4092" x="0" y="0"/>
  <path d="M14.3936 88.4092L74.0005 88.4092C83.5733 88.4092 88.4092 83.5278 88.4092 74.1353L88.4092 14.2739C88.4092 4.88135 83.5733 0 74.0005 0L14.3936 0C4.86963 0 0 4.80225 0 14.2739L0 74.1353C0 83.6069 4.86963 88.4092 14.3936 88.4092ZM14.5064 82.3794C9.00294 82.3794 6.04494 79.4736 6.04494 73.8355L6.04494 14.5737C6.04494 8.96925 9.00294 6.04494 14.5064 6.04494L73.9028 6.04494C79.2969 6.04494 82.3643 8.96925 82.3643 14.5737L82.3643 73.8355C82.3643 79.4736 79.2969 82.3794 73.9028 82.3794Z" fill="#000000" fill-opacity="0.85"/>
  <path d="M37.3965 68.2637C48.4644 68.2637 55.3662 60.2857 55.3662 49.1963L55.3662 32.8106L55.2012 27.2608L57.835 30.6035L64.3862 37.2373C64.8814 37.7998 65.5635 38.1787 66.3921 38.1787C68.0039 38.1787 69.1997 36.9981 69.1997 35.4048C69.1997 34.5762 68.9033 33.9614 68.3374 33.4292L55.1387 20.4409C54.4937 19.7622 53.6499 19.3647 52.6899 19.3647C51.7637 19.3647 50.9048 19.7622 50.2598 20.4409L36.9751 33.4629C36.4429 33.9951 36.1465 34.6099 36.1465 35.4385C36.1465 36.9981 37.376 38.1787 38.9541 38.1787C39.7153 38.1787 40.4312 37.8672 40.9937 37.271L48.1548 29.9263L50.1787 27.2608L50.0137 32.8106L50.0137 49.1963C50.0137 57.0098 45.4092 62.6753 37.6509 62.6753C29.7393 62.6753 24.7271 57.1108 24.7271 49.1626C24.7271 48.2739 24.7271 42.147 24.7271 41.9365C24.7271 40.291 23.7485 39.0581 22.0171 39.0581C20.2705 39.0581 19.2583 40.291 19.2583 42.0039C19.2583 42.2481 19.2583 48.2739 19.2583 49.1626C19.2583 60.252 26.3101 68.2637 37.3965 68.2637Z" fill="#000000" fill-opacity="0.85"/>
 </g>
</svg>
