<?xml version="1.0" encoding="UTF-8"?>
<!--Generator: Apple Native CoreSVG 232.5-->
<!DOCTYPE svg
PUBLIC "-//W3C//DTD SVG 1.1//EN"
       "http://www.w3.org/Graphics/SVG/1.1/DTD/svg11.dtd">
<svg version="1.1" xmlns="http://www.w3.org/2000/svg" xmlns:xlink="http://www.w3.org/1999/xlink" width="88.4092" height="89.6484">
 <g>
  <rect height="89.6484" opacity="0" width="88.4092" x="0" y="0"/>
  <path d="M88.4092 14.2739L88.4092 74.1353C88.4092 83.5278 83.5733 88.4092 74.0005 88.4092L14.3936 88.4092C4.86963 88.4092 0 83.6069 0 74.1353L0 14.2739C0 4.80225 4.86963 0 14.3936 0L74.0005 0C83.5733 0 88.4092 4.88135 88.4092 14.2739ZM49.4663 21.6685C49.4663 22.4331 49.7964 23.2129 50.3774 23.7417L56.8076 30.0254L59.7041 32.3442L54.7959 32.1455L38.9487 32.1455C27.7378 32.1455 20.2397 39.0762 20.2397 49.585C20.2397 60.4678 27.7715 67.6006 38.9824 67.6006L45.9189 67.6006C47.7026 67.6006 48.9321 66.4839 48.9321 64.7559C48.9321 63.0767 47.7363 61.9448 45.9863 61.9448L38.9824 61.9448C31.1519 61.9448 25.9107 57.0083 25.9107 49.585C25.9107 42.502 31.0845 37.7861 38.9487 37.7861L54.7959 37.7861L59.6704 37.6211L57.4512 39.2476L50.3774 46.1563C49.7964 46.7676 49.4663 47.4497 49.4663 48.312C49.4663 49.9273 50.6655 51.2393 52.2739 51.2393C53.1397 51.2393 53.8218 50.9243 54.3843 50.3921L67.0259 37.4727C67.7568 36.7114 68.1021 35.8491 68.1021 34.9565C68.1021 34.0303 67.7232 33.1377 67.0259 32.3916L54.418 19.5732C53.8218 19.0073 53.1733 18.7412 52.3076 18.7412C50.6167 18.7412 49.4663 19.9893 49.4663 21.6685Z" fill="#000000" fill-opacity="0.85"/>
 </g>
</svg>
