<?xml version="1.0" encoding="UTF-8"?>
<!--Generator: Apple Native CoreSVG 232.5-->
<!DOCTYPE svg
PUBLIC "-//W3C//DTD SVG 1.1//EN"
       "http://www.w3.org/Graphics/SVG/1.1/DTD/svg11.dtd">
<svg version="1.1" xmlns="http://www.w3.org/2000/svg" xmlns:xlink="http://www.w3.org/1999/xlink" width="117.924" height="94.4844">
 <g>
  <rect height="94.4844" opacity="0" width="117.924" x="0" y="0"/>
  <path d="M77.7666 3.96875L81.8242 8.52979C84.188 11.1528 85.2842 11.707 89.2324 11.707L103.53 11.707C113.036 11.707 117.924 16.5547 117.924 25.9473L117.924 77.2368C117.924 86.6294 113.036 91.5108 103.53 91.5108L14.3936 91.5108C4.86963 91.5108 0 86.6294 0 77.2368L0 25.9473C0 16.5547 4.86963 11.707 14.3936 11.707L27.9712 11.707C31.8555 11.707 33.0459 11.0737 35.3643 8.52979L39.4219 3.96875C41.9541 1.20752 44.2022 0 49.0801 0L68.1235 0C72.9863 0 75.2495 1.20752 77.7666 3.96875ZM33.1904 39.3198L25.9531 49.8369C24.9595 51.3223 25.293 52.9712 27.1792 52.9712L32.582 52.9712C34.8232 66.4243 45.522 75.584 59.0293 75.584C65.2539 75.584 71.5391 73.2271 75.9233 69.3179C77.7676 67.8291 78.1567 65.8164 76.8076 64.4639C75.4619 63.0474 73.8096 63.2647 72.2349 64.4385C68.0835 67.9785 63.9927 69.6284 59.0293 69.6284C48.7222 69.6284 40.3325 62.5557 38.2866 52.9712L43.686 52.9712C45.542 52.9712 45.9883 51.2769 44.961 49.8369L37.6074 39.3198C36.4136 37.5737 34.4702 37.5029 33.1904 39.3198ZM42.0679 28.7554C40.2236 30.2441 39.8345 32.2231 41.1836 33.5757C42.563 34.9922 44.1817 34.8086 45.7564 33.5859C49.8892 30.0274 53.9985 28.4297 58.9619 28.4297C69.269 28.4297 77.6587 35.5024 79.7046 45.0684L74.0845 45.0684C72.2622 45.0684 71.8008 46.7964 72.8281 48.2026L80.148 58.7383C81.3755 60.4844 83.334 60.5703 84.6138 58.7383L91.836 48.2026C92.8296 46.7173 92.5112 45.0684 90.625 45.0684L85.4092 45.0684C83.1831 31.6152 72.4692 22.4556 58.9619 22.4556C52.7373 22.4556 46.4522 24.8462 42.0679 28.7554Z" fill="#000000" fill-opacity="0.85"/>
 </g>
</svg>
