<?xml version="1.0" encoding="UTF-8"?>
<!--Generator: Apple Native CoreSVG 232.5-->
<!DOCTYPE svg
PUBLIC "-//W3C//DTD SVG 1.1//EN"
       "http://www.w3.org/Graphics/SVG/1.1/DTD/svg11.dtd">
<svg version="1.1" xmlns="http://www.w3.org/2000/svg" xmlns:xlink="http://www.w3.org/1999/xlink" width="88.4092" height="89.6484">
 <g>
  <rect height="89.6484" opacity="0" width="88.4092" x="0" y="0"/>
  <path d="M88.4092 14.2739L88.4092 74.1353C88.4092 83.5278 83.5733 88.4092 74.0005 88.4092L14.3936 88.4092C4.86963 88.4092 0 83.6069 0 74.1353L0 14.2739C0 4.80225 4.86963 0 14.3936 0L74.0005 0C83.5733 0 88.4092 4.88135 88.4092 14.2739ZM31.8662 38.4619L31.8662 54.3428L32.0801 59.251L29.7612 56.3696L23.4624 49.9395C22.9487 49.3433 22.169 48.9946 21.4043 48.9946C19.8042 48.9946 18.477 50.2275 18.477 51.8545C18.477 52.7202 18.7129 53.3687 19.3091 53.9649L32.1274 66.5728C32.8735 67.2852 33.7661 67.6489 34.6773 67.6489C35.585 67.6489 36.4321 67.3189 37.1934 66.5728L50.1128 53.9312C50.6753 53.3687 50.9751 52.6865 50.9751 51.8208C50.9751 50.2275 49.6631 48.9946 48.0479 48.9946C47.1856 48.9946 46.4546 49.3433 45.8921 49.9395L38.9834 57.0132L37.3569 59.2173L37.522 54.3428L37.522 38.4619C37.522 30.6465 42.2378 25.4575 49.3208 25.4575C56.7441 25.4575 61.6807 30.7139 61.6807 38.4956L61.6807 45.5332C61.6807 47.2832 62.8125 48.479 64.5254 48.479C66.2046 48.479 67.3213 47.2495 67.3213 45.481L67.3213 38.4956C67.3213 27.3184 60.2036 19.7866 49.3208 19.7866C38.8306 19.7866 31.8662 27.2847 31.8662 38.4619Z" fill="#000000" fill-opacity="0.85"/>
 </g>
</svg>
