<?xml version="1.0" encoding="UTF-8"?>
<!--Generator: Apple Native CoreSVG 232.5-->
<!DOCTYPE svg
PUBLIC "-//W3C//DTD SVG 1.1//EN"
       "http://www.w3.org/Graphics/SVG/1.1/DTD/svg11.dtd">
<svg version="1.1" xmlns="http://www.w3.org/2000/svg" xmlns:xlink="http://www.w3.org/1999/xlink" width="97.9595" height="97.9932">
 <g>
  <rect height="97.9932" opacity="0" width="97.9595" x="0" y="0"/>
  <path d="M48.9722 97.9443C75.8247 97.9443 97.9595 75.7759 97.9595 48.9722C97.9595 22.1348 75.791 0 48.9385 0C22.1348 0 0 22.1348 0 48.9722C0 75.7759 22.1685 97.9443 48.9722 97.9443ZM48.9722 91.6113C25.3501 91.6113 6.36671 72.5942 6.36671 48.9722C6.36671 25.3501 25.3164 6.31789 48.9385 6.31789C72.5605 6.31789 91.6265 25.3501 91.6265 48.9722C91.6265 72.5942 72.5942 91.6113 48.9722 91.6113Z" fill="#000000" fill-opacity="0.85"/>
  <path d="M33.0464 37.105C31.3975 37.105 30.2505 38.3379 30.2505 40.1182L30.2505 64.4819C30.2505 66.6514 31.4834 67.5474 33.3682 67.5474L57.8145 67.5474C59.6099 67.5474 60.7417 66.4644 60.7417 64.8154C60.7417 63.1514 59.5762 62.0381 57.7471 62.0381L45.9693 62.0381L38.9243 62.562L45.5425 56.311L66.6631 35.209C67.1953 34.6768 67.5776 33.9273 67.5776 33.1323C67.5776 31.4194 66.4458 30.3213 64.7666 30.3213C63.8369 30.3213 63.106 30.6699 62.5737 31.2173L41.502 52.289L35.3335 58.8398L35.8237 50.7837L35.8237 40.0659C35.8237 38.2368 34.7105 37.105 33.0464 37.105Z" fill="#000000" fill-opacity="0.85"/>
 </g>
</svg>
