<?xml version="1.0" encoding="UTF-8"?>
<!--Generator: Apple Native CoreSVG 232.5-->
<!DOCTYPE svg
PUBLIC "-//W3C//DTD SVG 1.1//EN"
       "http://www.w3.org/Graphics/SVG/1.1/DTD/svg11.dtd">
<svg version="1.1" xmlns="http://www.w3.org/2000/svg" xmlns:xlink="http://www.w3.org/1999/xlink" width="97.9595" height="97.9932">
 <g>
  <rect height="97.9932" opacity="0" width="97.9595" x="0" y="0"/>
  <path d="M48.9722 97.9443C75.8247 97.9443 97.9595 75.7759 97.9595 48.9722C97.9595 22.1348 75.791 0 48.9385 0C22.1348 0 0 22.1348 0 48.9722C0 75.7759 22.1685 97.9443 48.9722 97.9443ZM48.9722 91.6113C25.3501 91.6113 6.36671 72.5942 6.36671 48.9722C6.36671 25.3501 25.3164 6.31789 48.9385 6.31789C72.5605 6.31789 91.6265 25.3501 91.6265 48.9722C91.6265 72.5942 72.5942 91.6113 48.9722 91.6113Z" fill="#000000" fill-opacity="0.85"/>
  <path d="M37.6426 69.4341C39.1885 69.4341 40.2124 68.4019 40.2124 67.3276L40.2124 64.6504L24.9653 50.6611C23.2817 49.0752 22.5576 47.4653 22.5576 45.7427C22.5576 44.02 23.2783 42.3833 24.9653 40.8579L40.2124 26.8418L40.2124 24.2437C40.2124 23.0835 39.1885 22.0698 37.6089 22.0698C36.5396 22.0698 35.77 22.543 34.7393 23.5249L13.9072 42.9966C12.749 44.0757 12.4863 44.9092 12.4863 45.7427C12.4863 46.5762 12.749 47.4434 13.9072 48.5225L34.7393 67.9673C35.7363 68.9121 36.5732 69.4341 37.6426 69.4341ZM50.7754 69.4341C52.2539 69.4341 53.2964 68.3008 53.2964 66.7852L53.2964 56.187L54.2441 56.187C65.352 56.187 72.354 59.0894 76.3784 67.6509C77.0723 69.062 78.0625 69.4341 79.0796 69.4341C80.3442 69.4341 81.3496 68.3799 81.3496 66.5645C81.3496 46.2871 72.0635 35.4565 54.2441 35.4565L53.2964 35.4565L53.2964 24.7861C53.2964 23.3042 52.2539 22.0698 50.7417 22.0698C49.6572 22.0698 48.9028 22.5464 47.8418 23.5249L27.0586 42.9966C25.8818 44.1094 25.6006 44.9092 25.6006 45.7427C25.6006 46.5762 25.8818 47.4097 27.0586 48.5225L47.8418 67.9673C48.8355 68.9424 49.7246 69.4341 50.7754 69.4341Z" fill="#000000" fill-opacity="0.85"/>
 </g>
</svg>
