<?xml version="1.0" encoding="UTF-8"?>
<!--Generator: Apple Native CoreSVG 232.5-->
<!DOCTYPE svg
PUBLIC "-//W3C//DTD SVG 1.1//EN"
       "http://www.w3.org/Graphics/SVG/1.1/DTD/svg11.dtd">
<svg version="1.1" xmlns="http://www.w3.org/2000/svg" xmlns:xlink="http://www.w3.org/1999/xlink" width="97.9595" height="97.9932">
 <g>
  <rect height="97.9932" opacity="0" width="97.9595" x="0" y="0"/>
  <path d="M48.9722 97.9443C75.8247 97.9443 97.9595 75.7759 97.9595 48.9722C97.9595 22.1348 75.791 0 48.9385 0C22.1348 0 0 22.1348 0 48.9722C0 75.7759 22.1685 97.9443 48.9722 97.9443ZM48.9722 91.6113C25.3501 91.6113 6.36671 72.5942 6.36671 48.9722C6.36671 25.3501 25.3164 6.31789 48.9385 6.31789C72.5605 6.31789 91.6265 25.3501 91.6265 48.9722C91.6265 72.5942 72.5942 91.6113 48.9722 91.6113Z" fill="#000000" fill-opacity="0.85"/>
  <path d="M28.0566 47.7578C29.5371 47.7578 30.7666 46.562 30.7666 45.0664L30.7666 42.1441L30.3809 33.96L42.1421 46.1187C43.2705 47.3482 45.0996 47.3145 46.1978 46.1524C47.311 45.0542 47.2774 43.1914 46.1641 42.1118L34.0728 30.418L41.8311 30.7398L45.0259 30.77C46.5215 30.77 47.7022 29.5742 47.7022 28.0938C47.7022 26.5981 46.5215 25.3687 45.0259 25.3687L28.4458 25.3687C26.5273 25.3687 25.3652 26.2798 25.3652 28.4678L25.3652 45.0664C25.3652 46.562 26.561 47.7578 28.0566 47.7578ZM52.8999 72.5674L69.4463 72.5674C71.3648 72.5674 72.5454 71.6563 72.5454 69.4683L72.5454 52.8696C72.5454 51.374 71.3311 50.1934 69.8355 50.1934C68.355 50.1934 67.1592 51.374 67.1592 52.8696L67.1592 55.8071L67.4961 63.9912L55.7686 51.8174C54.6216 50.603 52.8262 50.6367 51.6943 51.7837C50.5811 52.897 50.6147 54.7446 51.728 55.8242L63.853 67.5181L56.0796 67.1963L52.8999 67.166C51.4043 67.166 50.1899 68.3618 50.1899 69.8574C50.1899 71.3379 51.4043 72.5674 52.8999 72.5674Z" fill="#000000" fill-opacity="0.85"/>
 </g>
</svg>
