<?xml version="1.0" encoding="UTF-8"?>
<!--Generator: Apple Native CoreSVG 232.5-->
<!DOCTYPE svg
PUBLIC "-//W3C//DTD SVG 1.1//EN"
       "http://www.w3.org/Graphics/SVG/1.1/DTD/svg11.dtd">
<svg version="1.1" xmlns="http://www.w3.org/2000/svg" xmlns:xlink="http://www.w3.org/1999/xlink" width="97.9595" height="97.9932">
 <g>
  <rect height="97.9932" opacity="0" width="97.9595" x="0" y="0"/>
  <path d="M97.9595 48.9722C97.9595 75.7759 75.8247 97.9443 48.9722 97.9443C22.1685 97.9443 0 75.7759 0 48.9722C0 22.1348 22.1348 0 48.9385 0C75.791 0 97.9595 22.1348 97.9595 48.9722ZM62.8281 30.8618L41.4683 52.2554L35.1465 58.9746L35.6216 50.75L35.6216 39.8975C35.6216 38.0161 34.4898 36.8355 32.7583 36.8355C31.0757 36.8355 29.895 38.1021 29.895 39.9649L29.895 64.7852C29.895 66.9917 31.1616 67.9365 33.1138 67.9365L58.0015 67.9365C59.8643 67.9365 61.0298 66.8198 61.0298 65.1035C61.0298 63.4058 59.8306 62.2739 57.9492 62.2739L46.0366 62.2739L38.8233 62.7827L45.5948 56.3633L67.0523 34.9883C67.6182 34.4224 68.0005 33.6392 68.0005 32.8442C68.0005 31.064 66.835 29.9321 65.1221 29.9321C64.1587 29.9321 63.4092 30.2959 62.8281 30.8618Z" fill="#000000" fill-opacity="0.85"/>
 </g>
</svg>
