<?xml version="1.0" encoding="UTF-8"?>
<!--Generator: Apple Native CoreSVG 232.5-->
<!DOCTYPE svg
PUBLIC "-//W3C//DTD SVG 1.1//EN"
       "http://www.w3.org/Graphics/SVG/1.1/DTD/svg11.dtd">
<svg version="1.1" xmlns="http://www.w3.org/2000/svg" xmlns:xlink="http://www.w3.org/1999/xlink" width="97.9595" height="97.9932">
 <g>
  <rect height="97.9932" opacity="0" width="97.9595" x="0" y="0"/>
  <path d="M48.9722 97.9443C75.8247 97.9443 97.9595 75.7759 97.9595 48.9722C97.9595 22.1348 75.791 0 48.9385 0C22.1348 0 0 22.1348 0 48.9722C0 75.7759 22.1685 97.9443 48.9722 97.9443ZM48.9722 91.6113C25.3501 91.6113 6.36671 72.5942 6.36671 48.9722C6.36671 25.3501 25.3164 6.31789 48.9385 6.31789C72.5605 6.31789 91.6265 25.3501 91.6265 48.9722C91.6265 72.5942 72.5942 91.6113 48.9722 91.6113Z" fill="#000000" fill-opacity="0.85"/>
  <path d="M64.7969 37.105C63.1177 37.105 62.0195 38.2368 62.0195 40.0659L62.0195 50.7837L62.4946 58.8398L56.3413 52.289L35.2544 31.2173C34.6885 30.6699 34.0064 30.3213 33.0615 30.3213C31.3975 30.3213 30.2505 31.4194 30.2505 33.1323C30.2505 33.9273 30.6328 34.6768 31.1802 35.209L52.3008 56.311L58.9189 62.562L51.8589 62.0381L40.0962 62.0381C38.2671 62.0381 37.1016 63.1514 37.1016 64.8154C37.1016 66.4644 38.2334 67.5474 40.0288 67.5474L64.4751 67.5474C66.3447 67.5474 67.5776 66.6514 67.5776 64.4819L67.5776 40.1182C67.5776 38.3379 66.4458 37.105 64.7969 37.105Z" fill="#000000" fill-opacity="0.85"/>
 </g>
</svg>
