<?xml version="1.0" encoding="UTF-8"?>
<!--Generator: Apple Native CoreSVG 232.5-->
<!DOCTYPE svg
PUBLIC "-//W3C//DTD SVG 1.1//EN"
       "http://www.w3.org/Graphics/SVG/1.1/DTD/svg11.dtd">
<svg version="1.1" xmlns="http://www.w3.org/2000/svg" xmlns:xlink="http://www.w3.org/1999/xlink" width="101.055" height="116.053">
 <g>
  <rect height="116.053" opacity="0" width="101.055" x="0" y="0"/>
  <path d="M27.3828 74.3952C28.9795 74.0129 29.8789 72.529 29.4292 70.9172L25.2974 54.7483C24.9185 53.364 24.3862 52.4074 23.3286 51.7961C22.2559 51.1511 21.2134 51.1628 19.7954 51.5754L3.77637 56.0559C2.09716 56.5056 1.28027 58.0383 1.72997 59.5676C2.14599 61.1492 3.67871 62.0823 5.29053 61.5652L20.2261 57.1994L23.8711 72.3C24.2349 73.9455 25.8501 74.8113 27.3828 74.3952ZM12.644 103.295L40.1328 103.295C41.8828 103.295 43.1982 102.047 43.1982 100.364C43.1982 98.6814 41.8828 97.3996 40.1328 97.3996L12.6929 97.3996C8.77882 97.3996 6.1089 94.1623 6.1089 90.6203C6.1089 89.5749 6.33107 88.3493 6.97413 87.2248L24.6592 55.5705L19.5019 52.5422L1.68555 84.343C0.574219 86.3703 0 88.529 0 90.6203C0 97.5832 4.96387 103.295 12.644 103.295ZM74.5327 52.218L79.6748 49.2233L61.4356 16.6257C59.0967 12.3908 54.8281 10.2624 50.5596 10.2624C46.2725 10.2624 42.0225 12.4245 39.6196 16.6257L25.583 41.6667C24.6162 43.3493 25.1484 44.9797 26.6138 45.8454C28.1279 46.6775 29.8931 46.1604 30.7588 44.6613L44.7954 19.5075C46.1152 17.2063 48.3071 16.2551 50.5596 16.2551C52.812 16.2551 54.9702 17.2365 56.2261 19.5075ZM74.7925 53.0871C76.2104 53.466 77.2529 53.5114 78.3257 52.8664C79.3833 52.2214 79.9155 51.3322 80.2944 49.9143L84.3926 33.7453C84.8423 32.1335 83.9614 30.6496 82.3799 30.2673C80.8472 29.8513 79.2319 30.717 78.8682 32.3625L75.2231 47.4631L60.2539 43.0974C58.6758 42.614 57.1431 43.5134 56.6934 45.1101C56.2773 46.6242 57.0942 48.1569 58.7397 48.6067ZM52.5088 103.295L88.4111 103.295C96.0913 103.295 101.055 97.5832 101.055 90.6203C101.055 88.529 100.53 86.404 99.3848 84.343L85.6734 59.885C84.8076 58.2849 83.0274 57.8723 81.5957 58.7531C80.1304 59.6189 79.6167 61.384 80.4336 62.883L94.0625 87.2248C94.6904 88.3493 94.98 89.5749 94.98 90.6203C94.98 94.1623 92.2427 97.3996 88.3286 97.3996L52.5088 97.3996ZM63.4644 115.173C64.6602 116.387 66.4102 116.305 67.5083 115.173C68.6738 114.06 68.6738 112.261 67.4595 111.065L56.2329 100.364L67.4595 89.6628C68.6738 88.467 68.6738 86.6682 67.5083 85.5549C66.4102 84.3894 64.6602 84.3405 63.4644 85.5549L51.5283 97.1911C50.4893 98.1965 50.0127 99.1413 50.0127 100.364C50.0127 101.587 50.4893 102.498 51.5283 103.503Z" fill="#000000" fill-opacity="0.85"/>
 </g>
</svg>
