<?xml version="1.0" encoding="UTF-8"?>
<!--Generator: Apple Native CoreSVG 232.5-->
<!DOCTYPE svg
PUBLIC "-//W3C//DTD SVG 1.1//EN"
       "http://www.w3.org/Graphics/SVG/1.1/DTD/svg11.dtd">
<svg version="1.1" xmlns="http://www.w3.org/2000/svg" xmlns:xlink="http://www.w3.org/1999/xlink" width="119.848" height="89.0987">
 <g>
  <rect height="89.0987" opacity="0" width="119.848" x="0" y="0"/>
  <path d="M104.63 36.8945C114.272 40.5352 119.848 49.2554 119.848 59.2066C119.848 72.0742 108.763 82.2295 94.5166 82.2295L28.1431 82.1841C12.0493 82.1841 0 70.835 0 56.8731C0 45.2163 6.96045 35.8374 17.7231 34.5034C17.8008 21.0737 30.7959 11.9883 42.4595 15.9883C47.9102 7.24658 57.0918 0 70.3848 0C89.7954 0 105 15.6016 104.63 36.8945ZM41.7422 38.3799L35.8486 46.9556C35.02 48.19 35.3535 49.6333 36.9214 49.6333L41.2383 49.6333C43.0855 60.4951 51.794 67.961 62.7217 67.961C67.8081 67.961 72.9063 66.0249 76.479 62.8413C77.9898 61.5547 78.3115 59.9277 77.2134 58.7285C76.085 57.6304 74.7207 57.7803 73.3296 58.7857C70.0166 61.5918 66.7305 62.915 62.7217 62.915C54.4736 62.915 47.749 57.2969 46.0484 49.6333L50.335 49.6333C51.8877 49.6333 52.3491 48.1445 51.4229 46.9556L45.5108 38.3799C44.4819 36.979 42.7896 36.8931 41.7422 38.3799ZM48.9492 29.8462C47.4722 31.1177 47.1167 32.7598 48.2149 33.9253C49.3096 35.0235 50.7564 34.8735 52.0313 33.8682C55.3931 31.0132 58.7129 29.7237 62.688 29.7237C70.9883 29.7237 77.6943 35.3906 79.3613 43.0542L74.9399 43.0542C73.3872 43.0542 72.9258 44.5093 73.8672 45.7319L79.7642 54.2739C80.793 55.6748 82.4702 55.7456 83.5327 54.2739L89.4263 45.7319C90.2398 44.4639 89.9063 43.0542 88.3535 43.0542L84.2051 43.0542C82.3428 32.1587 73.6494 24.6929 62.688 24.6929C57.6353 24.6929 52.5034 26.6626 48.9492 29.8462Z" fill="#000000" fill-opacity="0.85"/>
 </g>
</svg>
