<?xml version="1.0" encoding="UTF-8"?>
<!--Generator: Apple Native CoreSVG 232.5-->
<!DOCTYPE svg
PUBLIC "-//W3C//DTD SVG 1.1//EN"
       "http://www.w3.org/Graphics/SVG/1.1/DTD/svg11.dtd">
<svg version="1.1" xmlns="http://www.w3.org/2000/svg" xmlns:xlink="http://www.w3.org/1999/xlink" width="88.4092" height="88.5371">
 <g>
  <rect height="88.5371" opacity="0" width="88.4092" x="0" y="0"/>
  <path d="M14.3936 88.5371L74.0005 88.5371C83.5733 88.5371 88.4092 83.6558 88.4092 74.2632L88.4092 14.4019C88.4092 5.00928 83.5733 0.127929 74.0005 0.127929L14.3936 0.127929C4.86963 0.127929 0 4.93018 0 14.4019L0 74.2632C0 83.7349 4.86963 88.5371 14.3936 88.5371ZM14.5064 82.4922C9.00294 82.4922 6.04494 79.6016 6.04494 73.9634L6.04494 14.7017C6.04494 9.06349 9.00294 6.17287 14.5064 6.17287L73.9028 6.17287C79.2969 6.17287 82.3643 9.06349 82.3643 14.7017L82.3643 73.9634C82.3643 79.6016 79.2969 82.4922 73.9028 82.4922Z" fill="#000000" fill-opacity="0.85"/>
  <path d="M69.3604 44.1953C69.3604 43.3936 69.0269 42.7485 68.3076 42.0293L50.9107 24.5801C50.397 24.0815 49.73 23.7852 48.9165 23.7852C47.3535 23.7852 46.2031 24.9507 46.2031 26.4985C46.2031 27.3457 46.5669 28.0127 47.0806 28.5752L54.7768 36.189L60.8027 41.6504L51.7715 41.3203L21.9087 41.3203C20.2632 41.3203 19.0674 42.501 19.0674 44.2105C19.0674 45.8257 20.2481 47.0215 21.9087 47.0215L51.7715 47.0215L60.7724 46.7554L54.7768 52.1865L47.0806 59.8003C46.5332 60.3291 46.2031 60.9961 46.2031 61.8584C46.2031 63.3911 47.3535 64.5903 48.9165 64.5903C49.73 64.5903 50.397 64.2603 50.9107 63.7617L68.3076 46.3613C68.978 45.7095 69.3604 45.0274 69.3604 44.1953Z" fill="#000000" fill-opacity="0.85"/>
 </g>
</svg>
