<?xml version="1.0" encoding="UTF-8"?>
<!--Generator: Apple Native CoreSVG 232.5-->
<!DOCTYPE svg
PUBLIC "-//W3C//DTD SVG 1.1//EN"
       "http://www.w3.org/Graphics/SVG/1.1/DTD/svg11.dtd">
<svg version="1.1" xmlns="http://www.w3.org/2000/svg" xmlns:xlink="http://www.w3.org/1999/xlink" width="97.9595" height="97.9932">
 <g>
  <rect height="97.9932" opacity="0" width="97.9595" x="0" y="0"/>
  <path d="M97.9595 48.9722C97.9595 75.7759 75.8247 97.9443 48.9722 97.9443C22.1685 97.9443 0 75.7759 0 48.9722C0 22.1348 22.1348 0 48.9385 0C75.791 0 97.9595 22.1348 97.9595 48.9722ZM33.1138 29.9321C31.1616 29.9321 29.895 30.877 29.895 33.0986L29.895 57.9189C29.895 59.7329 31.0757 61.0332 32.7583 61.0332C34.4898 61.0332 35.6216 59.834 35.6216 57.9712L35.6216 47.1338L35.1465 38.9092L41.4683 45.6284L62.8281 67.022C63.4092 67.5879 64.1587 67.9365 65.1221 67.9365C66.835 67.9365 68.0005 66.8047 68.0005 65.0396C68.0005 64.2446 67.6182 63.4614 67.0523 62.8955L45.5948 41.4717L38.8233 35.086L46.0366 35.6099L57.9492 35.6099C59.8306 35.6099 61.0298 34.478 61.0298 32.7651C61.0298 31.0488 59.8643 29.9321 58.0015 29.9321Z" fill="#000000" fill-opacity="0.85"/>
 </g>
</svg>
