<?xml version="1.0" encoding="UTF-8"?>
<!--Generator: Apple Native CoreSVG 232.5-->
<!DOCTYPE svg
PUBLIC "-//W3C//DTD SVG 1.1//EN"
       "http://www.w3.org/Graphics/SVG/1.1/DTD/svg11.dtd">
<svg version="1.1" xmlns="http://www.w3.org/2000/svg" xmlns:xlink="http://www.w3.org/1999/xlink" width="97.9595" height="97.9932">
 <g>
  <rect height="97.9932" opacity="0" width="97.9595" x="0" y="0"/>
  <path d="M48.9722 97.9443C75.8247 97.9443 97.9595 75.7759 97.9595 48.9722C97.9595 22.1348 75.791 0 48.9385 0C22.1348 0 0 22.1348 0 48.9722C0 75.7759 22.1685 97.9443 48.9722 97.9443ZM48.9722 91.6113C25.3501 91.6113 6.36671 72.5942 6.36671 48.9722C6.36671 25.3501 25.3164 6.31789 48.9385 6.31789C72.5605 6.31789 91.6265 25.3501 91.6265 48.9722C91.6265 72.5942 72.5942 91.6113 48.9722 91.6113Z" fill="#000000" fill-opacity="0.85"/>
  <path d="M48.9722 24.4365C47.3418 24.4365 46.1123 25.6021 46.1123 27.2964L46.1123 55.6006L46.4121 64.6167L41.0298 58.6059L33.9932 51.5356C33.4458 50.9731 32.7788 50.6885 31.9653 50.6885C30.4175 50.6885 29.252 51.854 29.252 53.3867C29.252 54.1851 29.4844 54.8521 29.9829 55.3506L46.8062 72.1367C47.5405 72.8711 48.189 73.2046 48.9722 73.2046C49.7891 73.2046 50.4863 72.8374 51.1719 72.1367L67.9917 55.3506C68.4902 54.8521 68.79 54.1851 68.79 53.3867C68.79 51.854 67.5908 50.6885 66.043 50.6885C65.1958 50.6885 64.5288 50.9546 64.0151 51.5356L57.0122 58.6059L51.5474 64.6655L51.8472 55.6006L51.8472 27.2964C51.8472 25.6021 50.6665 24.4365 48.9722 24.4365Z" fill="#000000" fill-opacity="0.85"/>
 </g>
</svg>
