<?xml version="1.0" encoding="UTF-8"?>
<!--Generator: Apple Native CoreSVG 232.5-->
<!DOCTYPE svg
PUBLIC "-//W3C//DTD SVG 1.1//EN"
       "http://www.w3.org/Graphics/SVG/1.1/DTD/svg11.dtd">
<svg version="1.1" xmlns="http://www.w3.org/2000/svg" xmlns:xlink="http://www.w3.org/1999/xlink" width="88.0713" height="88.1201">
 <g>
  <rect height="88.1201" opacity="0" width="88.0713" x="0" y="0"/>
  <path d="M82.6309 5.48926C78.0894 0.978026 71.7998 0 62.9356 0L24.8228 0C16.3169 0 9.98194 0.993162 5.47071 5.51953C0.944334 10.0308 0 16.2866 0 24.8228L0 62.9356C0 71.8149 0.929198 78.0859 5.44043 82.5669C9.98194 87.0933 16.2715 88.0713 25.1021 88.0713L62.9356 88.0713C71.7998 88.0713 78.1196 87.0933 82.6309 82.5669C87.1421 78.0557 88.0713 71.8149 88.0713 62.9356L88.0713 25.1021C88.0713 16.2227 87.1421 9.98536 82.6309 5.48926ZM82.0415 23.7988L82.0415 64.2573C82.0415 70.0435 81.1494 75.147 78.1709 78.1069C75.1958 81.1309 70.0283 82.0415 64.2725 82.0415L23.814 82.0415C18.0581 82.0415 12.8755 81.1157 9.86671 78.1069C6.90675 75.147 6.04494 70.0435 6.04494 64.2573L6.04494 24.1118C6.04494 18.0733 6.90675 12.9092 9.85157 9.9004C12.8604 6.91017 18.1221 6.0298 24.1118 6.0298L64.2725 6.0298C70.0283 6.0298 75.1958 6.95558 78.1709 9.94923C81.1797 12.9243 82.0415 18.0278 82.0415 23.7988Z" fill="#000000" fill-opacity="0.85"/>
  <path d="M44.0845 19.5C42.439 19.5 41.2583 20.6655 41.2583 22.3599L41.2583 50.664L41.5244 59.6802L36.1421 53.6694L29.1055 46.5991C28.5767 46.0366 27.9097 45.752 27.0776 45.752C25.5147 45.752 24.3491 46.9175 24.3491 48.4502C24.3491 49.2485 24.5815 49.9155 25.1289 50.4141L41.9522 67.2002C42.6714 67.9346 43.3013 68.2681 44.0845 68.2681C44.9351 68.2681 45.5835 67.9009 46.2842 67.2002L63.1226 50.4141C63.6362 49.9155 63.9024 49.2485 63.9024 48.4502C63.9024 46.9175 62.7031 45.752 61.1401 45.752C60.3081 45.752 59.6411 46.0181 59.1123 46.5991L52.1094 53.6694L46.6782 59.729L46.9444 50.664L46.9444 22.3599C46.9444 20.6655 45.7788 19.5 44.0845 19.5Z" fill="#000000" fill-opacity="0.85"/>
 </g>
</svg>
