<?xml version="1.0" encoding="UTF-8"?>
<!--Generator: Apple Native CoreSVG 232.5-->
<!DOCTYPE svg
PUBLIC "-//W3C//DTD SVG 1.1//EN"
       "http://www.w3.org/Graphics/SVG/1.1/DTD/svg11.dtd">
<svg version="1.1" xmlns="http://www.w3.org/2000/svg" xmlns:xlink="http://www.w3.org/1999/xlink" width="88.4092" height="88.5371">
 <g>
  <rect height="88.5371" opacity="0" width="88.4092" x="0" y="0"/>
  <path d="M14.3936 88.5371L74.0005 88.5371C83.5733 88.5371 88.4092 83.6558 88.4092 74.2632L88.4092 14.4019C88.4092 5.00928 83.5733 0.127929 74.0005 0.127929L14.3936 0.127929C4.86963 0.127929 0 4.93018 0 14.4019L0 74.2632C0 83.7349 4.86963 88.5371 14.3936 88.5371ZM14.5064 82.4922C9.00294 82.4922 6.04494 79.6016 6.04494 73.9634L6.04494 14.7017C6.04494 9.06349 9.00294 6.17287 14.5064 6.17287L73.9028 6.17287C79.2969 6.17287 82.3643 9.06349 82.3643 14.7017L82.3643 73.9634C82.3643 79.6016 79.2969 82.4922 73.9028 82.4922Z" fill="#000000" fill-opacity="0.85"/>
  <path d="M60.0723 56.0508C61.7363 56.0508 62.8682 54.7842 62.8682 53.0225L62.8682 28.6587C62.8682 26.5044 61.6353 25.5933 59.7505 25.5933L35.3042 25.5933C33.5088 25.5933 32.377 26.6763 32.377 28.3252C32.377 30.0044 33.5425 31.1026 35.3716 31.1026L47.1494 31.1026L54.2095 30.5938L47.5913 36.8111L26.4556 57.9316C25.9233 58.479 25.5747 59.2285 25.5747 60.0234C25.5747 61.7212 26.6729 62.8193 28.3521 62.8193C29.2969 62.8193 30.0127 62.4707 30.5449 61.9385L51.6167 40.8667L57.7852 34.3159L57.2949 42.3721L57.2949 53.0898C57.2949 54.8853 58.4082 56.0508 60.0723 56.0508Z" fill="#000000" fill-opacity="0.85"/>
 </g>
</svg>
