<?xml version="1.0" encoding="UTF-8"?>
<!--Generator: Apple Native CoreSVG 232.5-->
<!DOCTYPE svg
PUBLIC "-//W3C//DTD SVG 1.1//EN"
       "http://www.w3.org/Graphics/SVG/1.1/DTD/svg11.dtd">
<svg version="1.1" xmlns="http://www.w3.org/2000/svg" xmlns:xlink="http://www.w3.org/1999/xlink" width="97.9595" height="97.9932">
 <g>
  <rect height="97.9932" opacity="0" width="97.9595" x="0" y="0"/>
  <path d="M48.9722 97.9443C75.8247 97.9443 97.9595 75.7759 97.9595 48.9722C97.9595 22.1348 75.791 0 48.9385 0C22.1348 0 0 22.1348 0 48.9722C0 75.7759 22.1685 97.9443 48.9722 97.9443ZM48.9722 91.6113C25.3501 91.6113 6.36671 72.5942 6.36671 48.9722C6.36671 25.3501 25.3164 6.31789 48.9385 6.31789C72.5605 6.31789 91.6265 25.3501 91.6265 48.9722C91.6265 72.5942 72.5942 91.6113 48.9722 91.6113Z" fill="#000000" fill-opacity="0.85"/>
  <path d="M23.8745 48.9233C23.8745 49.7554 24.2568 50.4375 24.9087 51.0894L42.3057 68.4898C42.8042 68.9883 43.4712 69.3184 44.2998 69.3184C45.8477 69.3184 46.9981 68.1191 46.9981 66.5864C46.9981 65.7241 46.668 65.0571 46.1206 64.5283L38.4732 56.9146L32.4287 51.4834L41.4634 51.7495L71.3076 51.7495C73.002 51.7495 74.1675 50.5537 74.1675 48.9385C74.1675 47.229 72.938 46.0483 71.3076 46.0483L41.4634 46.0483L32.4473 46.3784L38.4732 40.917L46.1206 33.3032C46.6494 32.7407 46.9981 32.0737 46.9981 31.2266C46.9981 29.6787 45.8477 28.5132 44.2998 28.5132C43.4712 28.5132 42.8042 28.8096 42.3057 29.3081L24.9087 46.7573C24.1743 47.4766 23.8745 48.1216 23.8745 48.9233Z" fill="#000000" fill-opacity="0.85"/>
 </g>
</svg>
