<?xml version="1.0" encoding="UTF-8"?>
<!--Generator: Apple Native CoreSVG 232.5-->
<!DOCTYPE svg
PUBLIC "-//W3C//DTD SVG 1.1//EN"
       "http://www.w3.org/Graphics/SVG/1.1/DTD/svg11.dtd">
<svg version="1.1" xmlns="http://www.w3.org/2000/svg" xmlns:xlink="http://www.w3.org/1999/xlink" width="97.9595" height="97.9932">
 <g>
  <rect height="97.9932" opacity="0" width="97.9595" x="0" y="0"/>
  <path d="M97.9595 49.021C97.9595 75.8584 75.8247 97.9932 48.9722 97.9932C22.1685 97.9932 0 75.8584 0 49.021C0 22.2173 22.1348 0.0488281 48.9385 0.0488281C75.791 0.0488281 97.9595 22.2173 97.9595 49.021ZM30.333 69.9219C28.8188 69.9219 27.7056 71.02 27.7056 72.5156C27.7056 74.0938 28.8188 75.2256 30.333 75.2256L67.645 75.2256C69.1743 75.2256 70.2388 74.0938 70.2388 72.5156C70.2388 71.02 69.1743 69.9219 67.645 69.9219ZM46.2622 23.7676L46.2622 48.4946L46.6968 57.7266L37.502 47.8022L33.4439 43.5117C32.915 42.9004 32.2852 42.6377 31.3926 42.6377C29.8667 42.6377 28.8208 43.7173 28.8208 45.2617C28.8208 45.9556 29.1963 46.7539 29.6948 47.2676L46.9443 64.7109C47.5405 65.3594 48.2227 65.6406 48.9385 65.6406C49.6543 65.6406 50.3516 65.3071 50.9326 64.7109L68.1401 47.4106C68.8189 46.7656 69.1235 46.0684 69.1235 45.1978C69.1235 43.7847 68.0776 42.6377 66.5855 42.6377C65.7603 42.6377 65.063 42.9004 64.5005 43.5117L60.2134 47.8965L51.1953 57.708L51.5962 48.4946L51.5962 23.7676C51.5962 22.2231 50.4492 21.0913 48.9385 21.0913C47.3267 21.0913 46.2622 22.2231 46.2622 23.7676Z" fill="#000000" fill-opacity="0.85"/>
 </g>
</svg>
