<?xml version="1.0" encoding="UTF-8"?>
<!--Generator: Apple Native CoreSVG 232.5-->
<!DOCTYPE svg
PUBLIC "-//W3C//DTD SVG 1.1//EN"
       "http://www.w3.org/Graphics/SVG/1.1/DTD/svg11.dtd">
<svg version="1.1" xmlns="http://www.w3.org/2000/svg" xmlns:xlink="http://www.w3.org/1999/xlink" width="97.9595" height="97.9932">
 <g>
  <rect height="97.9932" opacity="0" width="97.9595" x="0" y="0"/>
  <path d="M97.9595 48.9722C97.9595 75.7759 75.8247 97.9443 48.9722 97.9443C22.1685 97.9443 0 75.7759 0 48.9722C0 22.1348 22.1348 0 48.9385 0C75.791 0 97.9595 22.1348 97.9595 48.9722ZM56.0835 29.7656L56.0835 36.5894L41.2627 36.5894C32.1631 36.5894 27.9297 40.8682 27.9297 50.0586L27.9297 64.6865C27.9297 66.8408 29.0464 68.1865 30.9985 68.1528C32.9321 68.1191 34.0825 66.8408 34.0825 64.6865L34.0825 50.3281C34.0825 45.0454 36.3403 42.8213 41.3789 42.8213L56.0835 42.791L56.0835 49.6636C56.0835 52.5264 59.0474 53.6094 61.1626 51.9253L72.5469 42.9658C75.0513 40.96 75.0513 38.4356 72.5469 36.4297L61.1626 27.5039C59.0474 25.8198 56.0835 26.9028 56.0835 29.7656Z" fill="#000000" fill-opacity="0.85"/>
 </g>
</svg>
