<?xml version="1.0" encoding="UTF-8"?>
<!--Generator: Apple Native CoreSVG 232.5-->
<!DOCTYPE svg
PUBLIC "-//W3C//DTD SVG 1.1//EN"
       "http://www.w3.org/Graphics/SVG/1.1/DTD/svg11.dtd">
<svg version="1.1" xmlns="http://www.w3.org/2000/svg" xmlns:xlink="http://www.w3.org/1999/xlink" width="88.4092" height="89.5508">
 <g>
  <rect height="89.5508" opacity="0" width="88.4092" x="0" y="0"/>
  <path d="M14.3936 88.4092L74.0005 88.4092C83.5733 88.4092 88.4092 83.5278 88.4092 74.1353L88.4092 14.2739C88.4092 4.88135 83.5733 0 74.0005 0L14.3936 0C4.86963 0 0 4.80225 0 14.2739L0 74.1353C0 83.6069 4.86963 88.4092 14.3936 88.4092ZM14.5064 82.3643C9.00294 82.3643 6.04494 79.4736 6.04494 73.8355L6.04494 14.5737C6.04494 8.96925 9.00294 6.04494 14.5064 6.04494L73.9028 6.04494C79.2969 6.04494 82.3643 8.96925 82.3643 14.5737L82.3643 73.8355C82.3643 79.4736 79.2969 82.3643 73.9028 82.3643Z" fill="#000000" fill-opacity="0.85"/>
  <path d="M49.2275 19.9722C38.1597 19.9722 31.2578 27.9351 31.2578 39.0581L31.2578 55.4253L31.3892 60.9936L28.7554 57.666L22.2378 50.9834C21.7427 50.4546 21.0269 50.0908 20.1982 50.0908C18.6201 50.0908 17.4058 51.2563 17.4058 52.8496C17.4058 53.6782 17.687 54.293 18.2529 54.8403L31.4517 67.8135C32.1304 68.4585 32.9741 68.8711 33.9004 68.8711C34.8755 68.8711 35.6856 68.4585 36.3643 67.8135L49.6152 54.8066C50.1475 54.2744 50.4439 53.6445 50.4439 52.8159C50.4439 51.2563 49.2481 50.0908 47.6362 50.0908C46.875 50.0908 46.1592 50.4023 45.6455 50.9497L38.4692 58.3433L36.4116 60.9936L36.6255 55.4253L36.6255 39.0581C36.6255 31.2446 41.1963 25.5454 48.9731 25.5454C56.8848 25.5454 61.8633 31.1587 61.8633 39.0918C61.8633 39.9805 61.8633 46.1074 61.8633 46.3179C61.8633 47.9297 62.8418 49.1963 64.6221 49.1963C66.3535 49.1963 67.332 47.9297 67.332 46.2656C67.332 46.0215 67.332 39.9805 67.332 39.0918C67.332 27.9688 60.2954 19.9722 49.2275 19.9722Z" fill="#000000" fill-opacity="0.85"/>
 </g>
</svg>
