<?xml version="1.0" encoding="UTF-8"?>
<!--Generator: Apple Native CoreSVG 232.5-->
<!DOCTYPE svg
PUBLIC "-//W3C//DTD SVG 1.1//EN"
       "http://www.w3.org/Graphics/SVG/1.1/DTD/svg11.dtd">
<svg version="1.1" xmlns="http://www.w3.org/2000/svg" xmlns:xlink="http://www.w3.org/1999/xlink" width="114.35" height="88.4395">
 <g>
  <rect height="88.4395" opacity="0" width="114.35" x="0" y="0"/>
  <path d="M14.3936 88.4092L99.9409 88.4092C109.514 88.4092 114.35 83.5615 114.35 74.169L114.35 14.2739C114.35 4.88135 109.514 0 99.9409 0L14.3936 0C4.86963 0 0 4.83594 0 14.2739L0 74.169C0 83.6069 4.86963 88.4092 14.3936 88.4092ZM14.5064 82.3794C9.00294 82.3794 6.04494 79.4736 6.04494 73.8355L6.04494 14.6074C6.04494 8.96925 9.00294 6.04494 14.5064 6.04494L99.8433 6.04494C105.237 6.04494 108.305 8.96925 108.305 14.6074L108.305 73.8355C108.305 79.4736 105.237 82.3794 99.8433 82.3794Z" fill="#000000" fill-opacity="0.85"/>
  <path d="M44.624 18.4111C42.9448 18.4111 41.8467 19.543 41.8467 21.3721L41.8467 30.5737L42.3369 38.645L36.1685 32.0791L18.4859 14.4116C17.9536 13.8794 17.2715 13.5156 16.3267 13.5156C14.6138 13.5156 13.5156 14.6626 13.5156 16.3604C13.5156 17.1553 13.898 17.8711 14.4302 18.4033L32.1279 36.1011L38.7461 42.3521L31.686 41.8433L21.4243 41.8433C19.5952 41.8433 18.4297 42.9414 18.4297 44.6206C18.4297 46.2695 19.5767 47.3526 21.3569 47.3526L44.3023 47.3526C46.1719 47.3526 47.4048 46.4414 47.4048 44.2534L47.4048 21.4395C47.4048 19.6441 46.273 18.4111 44.624 18.4111Z" fill="#000000" fill-opacity="0.85"/>
 </g>
</svg>
