<?xml version="1.0" encoding="UTF-8"?>
<!--Generator: Apple Native CoreSVG 232.5-->
<!DOCTYPE svg
PUBLIC "-//W3C//DTD SVG 1.1//EN"
       "http://www.w3.org/Graphics/SVG/1.1/DTD/svg11.dtd">
<svg version="1.1" xmlns="http://www.w3.org/2000/svg" xmlns:xlink="http://www.w3.org/1999/xlink" width="103.287" height="109.772">
 <g>
  <rect height="109.772" opacity="0" width="103.287" x="0" y="0"/>
  <path d="M103.287 103.668L103.287 65.127C103.287 59.6948 100.953 57.3609 95.5694 57.3609L37.065 57.3609C33.6914 57.3609 31.79 59.8267 31.79 62.6241C31.79 64.5171 32.6524 66.2486 34.5235 67.5386L93.6753 108.467C94.999 109.345 96.4541 109.724 97.8604 109.724C100.755 109.724 103.287 107.789 103.287 103.668ZM97.1895 101.651C97.1895 102.407 96.437 102.535 95.9219 102.181L39.9893 64.3218C39.501 64.0288 39.6626 63.5069 40.1543 63.5069L94.835 63.5069C96.8208 63.5069 97.1895 63.8604 97.1895 65.8799ZM103.287 6.05616C103.287 1.91993 100.755 0 97.8604 0C96.4541 0 94.999 0.378907 93.6753 1.25635L34.5235 42.1851C32.6524 43.46 31.79 45.2065 31.79 47.0659C31.79 49.8818 33.6914 52.3477 37.065 52.3477L95.5694 52.3477C100.953 52.3477 103.287 50.0137 103.287 44.5967ZM97.1895 8.05764L97.1895 43.8286C97.1895 45.8296 96.8208 46.2168 94.835 46.2168L40.1543 46.2168C39.6626 46.2168 39.501 45.6611 39.9893 45.4019L95.9219 7.5425C96.437 7.14016 97.1895 7.26809 97.1895 8.05764Z" fill="#000000" fill-opacity="0.85"/>
  <path d="M20.8252 84.0323L14.1025 84.0323L14.1025 25.6914L20.7949 25.6914C23.6865 25.6914 24.4409 23.2446 22.7568 20.9341L14.0601 8.72022C12.6523 6.7417 11.0645 6.77539 9.65674 8.72022L0.89258 20.9341C-0.791505 23.2446-0.0708014 25.6914 2.90674 25.6914L9.51318 25.6914L9.51318 84.0323L2.93702 84.0323C-0.0219733 84.0323-0.776368 86.4639 0.941408 88.7559L9.67188 100.988C11.0796 102.948 12.6675 102.982 14.0752 100.988L22.8208 88.7559C24.4561 86.4639 23.7354 84.0323 20.8252 84.0323Z" fill="#000000" fill-opacity="0.85"/>
 </g>
</svg>
