<?xml version="1.0" encoding="UTF-8"?>
<!--Generator: Apple Native CoreSVG 232.5-->
<!DOCTYPE svg
PUBLIC "-//W3C//DTD SVG 1.1//EN"
       "http://www.w3.org/Graphics/SVG/1.1/DTD/svg11.dtd">
<svg version="1.1" xmlns="http://www.w3.org/2000/svg" xmlns:xlink="http://www.w3.org/1999/xlink" width="97.9595" height="97.9932">
 <g>
  <rect height="97.9932" opacity="0" width="97.9595" x="0" y="0"/>
  <path d="M48.9722 97.9443C75.8247 97.9443 97.9595 75.7759 97.9595 48.9722C97.9595 22.1348 75.791 0 48.9385 0C22.1348 0 0 22.1348 0 48.9722C0 75.7759 22.1685 97.9443 48.9722 97.9443ZM48.9722 91.6113C25.3501 91.6113 6.36671 72.5942 6.36671 48.9722C6.36671 25.3501 25.3164 6.31789 48.9385 6.31789C72.5605 6.31789 91.6265 25.3501 91.6265 48.9722C91.6265 72.5942 72.5942 91.6113 48.9722 91.6113Z" fill="#000000" fill-opacity="0.85"/>
  <path d="M23.9898 70.0288C25.022 70.0288 25.9854 69.6904 26.728 68.2119C31.0908 59.5273 37.9566 56.5459 49.2817 56.5459L50.2295 56.5459L50.2295 67.3462C50.2295 68.8618 51.2568 70.0288 52.8027 70.0288C53.9546 70.0288 54.8589 69.5034 55.8374 68.5923L77.0586 48.728C78.2202 47.6489 78.5317 46.7144 78.5317 45.8809C78.5317 45.0474 78.2354 44.1128 77.0586 43.0337L55.8374 23.2705C54.7578 22.2583 53.9883 21.7329 52.8364 21.7329C51.2568 21.7329 50.2295 22.9858 50.2295 24.5166L50.2295 35.3252L49.2817 35.3252C31.0884 35.3252 21.6372 46.459 21.6372 67.0581C21.6372 68.9746 22.7739 70.0288 23.9898 70.0288Z" fill="#000000" fill-opacity="0.85"/>
 </g>
</svg>
