<?xml version="1.0" encoding="UTF-8"?>
<!--Generator: Apple Native CoreSVG 232.5-->
<!DOCTYPE svg
PUBLIC "-//W3C//DTD SVG 1.1//EN"
       "http://www.w3.org/Graphics/SVG/1.1/DTD/svg11.dtd">
<svg version="1.1" xmlns="http://www.w3.org/2000/svg" xmlns:xlink="http://www.w3.org/1999/xlink" width="106.992" height="87.7227">
 <g>
  <rect height="87.7227" opacity="0" width="106.992" x="0" y="0"/>
  <path d="M0 43.8369C0 45.3423 0.543946 46.9858 2.61133 48.9556L41.0308 85.0298C42.8901 86.773 44.5708 87.6738 46.6152 87.6738C49.4815 87.6738 51.4048 85.5503 51.4048 82.7481L51.4048 63.2783L92.1431 63.2783C99.207 63.2783 103.215 59.3833 103.215 52.481L103.215 35.3931C103.215 28.4907 99.207 24.5957 92.1431 24.5957L51.4048 24.5957L51.4048 5.07911C51.4048 2.27686 49.4815 0 46.5479 0C44.5034 0 43.0586 0.934571 41.0308 2.8462L2.61133 38.6846C0.495118 40.6729 0 42.2979 0 43.8369ZM6.65138 43.8369C6.65138 43.3472 6.90382 42.8726 7.61232 42.228L43.5889 8.13674C43.8936 7.88088 44.2168 7.62502 44.6006 7.62502C45.0703 7.62502 45.3599 7.94826 45.3599 8.39943L45.3599 28.8135C45.3599 29.876 45.8213 30.3037 46.8838 30.3037L92.0908 30.3037C95.564 30.3037 97.5068 32.2163 97.5068 35.6929L97.5068 52.1812C97.5068 55.6577 95.564 57.5703 92.0908 57.5703L46.8838 57.5703C45.8213 57.5703 45.3599 57.998 45.3599 59.0605L45.3599 78.9409C45.3599 79.4409 45.1006 79.7793 44.6494 79.7793C44.3262 79.7793 44.0029 79.6177 43.6377 79.2339L7.61232 45.4458C6.88869 44.7676 6.65138 44.3267 6.65138 43.8369Z" fill="#000000" fill-opacity="0.85"/>
 </g>
</svg>
