<?xml version="1.0" encoding="UTF-8"?>
<!--Generator: Apple Native CoreSVG 232.5-->
<!DOCTYPE svg
PUBLIC "-//W3C//DTD SVG 1.1//EN"
       "http://www.w3.org/Graphics/SVG/1.1/DTD/svg11.dtd">
<svg version="1.1" xmlns="http://www.w3.org/2000/svg" xmlns:xlink="http://www.w3.org/1999/xlink" width="71.3472" height="71.3389">
 <g>
  <rect height="71.3389" opacity="0" width="71.3472" x="0" y="0"/>
  <path d="M0 17.833L0.0942379 67.8018C0.0942379 69.8887 1.47705 71.3389 3.66505 71.3389L53.6489 71.3389C55.7173 71.3389 57.1338 69.7876 57.1338 68.0039C57.1338 66.2353 55.5488 64.7632 53.7837 64.7632L32.6138 64.7632L10.1328 65.3325L18.7305 57.4912L70.3281 5.85988C70.9951 5.19288 71.3472 4.30861 71.3472 3.5254C71.3472 1.75684 69.7437 0.0708014 67.8926 0.0708014C67.0908 0.0708014 66.2891 0.404298 65.5732 1.10157L13.9419 52.7363L6.09718 61.3188L6.70363 41.1953L6.70363 17.6982C6.70363 15.8994 5.21632 14.3296 3.3838 14.3296C1.55127 14.3296 0 15.7983 0 17.833Z" fill="#000000" fill-opacity="0.85"/>
 </g>
</svg>
