<?xml version="1.0" encoding="UTF-8"?>
<!--Generator: Apple Native CoreSVG 232.5-->
<!DOCTYPE svg
PUBLIC "-//W3C//DTD SVG 1.1//EN"
       "http://www.w3.org/Graphics/SVG/1.1/DTD/svg11.dtd">
<svg version="1.1" xmlns="http://www.w3.org/2000/svg" xmlns:xlink="http://www.w3.org/1999/xlink" width="97.9595" height="97.9932">
 <g>
  <rect height="97.9932" opacity="0" width="97.9595" x="0" y="0"/>
  <path d="M48.9722 97.9443C75.8247 97.9443 97.9595 75.7759 97.9595 48.9722C97.9595 22.1348 75.791 0 48.9385 0C22.1348 0 0 22.1348 0 48.9722C0 75.7759 22.1685 97.9443 48.9722 97.9443ZM48.9722 91.6113C25.3501 91.6113 6.36671 72.5942 6.36671 48.9722C6.36671 25.3501 25.3164 6.31789 48.9385 6.31789C72.5605 6.31789 91.6265 25.3501 91.6265 48.9722C91.6265 72.5942 72.5942 91.6113 48.9722 91.6113Z" fill="#000000" fill-opacity="0.85"/>
  <path d="M64.7969 60.7788C66.4458 60.7788 67.5776 59.5122 67.5776 57.7505L67.5776 33.3867C67.5776 31.2324 66.3447 30.3213 64.4751 30.3213L40.0288 30.3213C38.2334 30.3213 37.1016 31.4043 37.1016 33.0532C37.1016 34.7324 38.2671 35.8306 40.0962 35.8306L51.8589 35.8306L58.9189 35.3218L52.3008 41.5391L31.1802 62.6597C30.6328 63.207 30.2505 63.9565 30.2505 64.7515C30.2505 66.4492 31.3975 67.5474 33.0615 67.5474C34.0064 67.5474 34.6885 67.1987 35.2544 66.6665L56.3413 45.5948L62.4946 39.044L62.0195 47.1001L62.0195 57.8179C62.0195 59.6133 63.1177 60.7788 64.7969 60.7788Z" fill="#000000" fill-opacity="0.85"/>
 </g>
</svg>
