<?xml version="1.0" encoding="UTF-8"?>
<!--Generator: Apple Native CoreSVG 232.5-->
<!DOCTYPE svg
PUBLIC "-//W3C//DTD SVG 1.1//EN"
       "http://www.w3.org/Graphics/SVG/1.1/DTD/svg11.dtd">
<svg version="1.1" xmlns="http://www.w3.org/2000/svg" xmlns:xlink="http://www.w3.org/1999/xlink" width="88.4092" height="88.5371">
 <g>
  <rect height="88.5371" opacity="0" width="88.4092" x="0" y="0"/>
  <path d="M88.4092 14.4019L88.4092 74.2632C88.4092 83.6558 83.5733 88.5371 74.0005 88.5371L14.3936 88.5371C4.86963 88.5371 0 83.7349 0 74.2632L0 14.4019C0 4.93018 4.86963 0.127929 14.3936 0.127929L74.0005 0.127929C83.5733 0.127929 88.4092 5.00928 88.4092 14.4019ZM53.4473 29.3062C53.4473 30.2022 53.7622 30.854 54.3247 31.4502L58.981 36.0391L65.1938 41.5864L55.9082 41.2715L32.5196 41.2715L23.2339 41.5864L29.4282 36.0391L34.0845 31.4502C34.6318 30.854 34.9619 30.2022 34.9619 29.3062C34.9619 27.7397 33.7778 26.4731 32.1963 26.4731C31.334 26.4731 30.6333 26.7881 30.1348 27.3355L15.5083 41.9316C14.7739 42.6997 14.4404 43.3784 14.4404 44.1987C14.4404 45.0005 14.7739 45.6641 15.5083 46.4321L30.1348 61.062C30.6333 61.6094 31.334 61.8906 32.1963 61.8906C33.7778 61.8906 34.9619 60.6914 34.9619 59.0913C34.9619 58.1953 34.6133 57.5435 34.0845 56.981L29.4282 52.3584L23.2676 46.811L32.5196 47.1597L55.9082 47.1597L65.1602 46.811L58.981 52.3584L54.3247 56.981C53.7959 57.5435 53.4473 58.1953 53.4473 59.0913C53.4473 60.6914 54.6162 61.8906 56.2129 61.8906C57.0752 61.8906 57.7608 61.6094 58.2744 61.062L72.9009 46.4321C73.6201 45.6641 73.9536 45.0005 73.9536 44.1987C73.9536 43.3784 73.6201 42.6997 72.9009 41.9316L58.2744 27.3355C57.7608 26.7881 57.0752 26.4731 56.2129 26.4731C54.6162 26.4731 53.4473 27.7397 53.4473 29.3062Z" fill="#000000" fill-opacity="0.85"/>
 </g>
</svg>
