<?xml version="1.0" encoding="UTF-8"?>
<!--Generator: Apple Native CoreSVG 232.5-->
<!DOCTYPE svg
PUBLIC "-//W3C//DTD SVG 1.1//EN"
       "http://www.w3.org/Graphics/SVG/1.1/DTD/svg11.dtd">
<svg version="1.1" xmlns="http://www.w3.org/2000/svg" xmlns:xlink="http://www.w3.org/1999/xlink" width="73.5781" height="85.2666">
 <g>
  <rect height="85.2666" opacity="0" width="73.5781" x="0" y="0"/>
  <path d="M36.7983 85.2666C38.7319 85.2666 40.0996 83.9141 40.0996 81.9805L40.0996 27.1997L39.8335 16.6597L53.1382 30.9229L67.4966 45.2105C68.1113 45.8404 69.041 46.189 69.9556 46.189C71.8218 46.189 73.2046 44.8028 73.2046 42.9365C73.2046 41.9463 72.7617 41.1143 71.9668 40.2857L39.2827 7.65871C38.582 6.92433 37.7129 6.50832 36.7983 6.50832C35.8652 6.50832 35.0298 6.92433 34.3291 7.65871L1.6416 40.2857C0.88037 41.1143 0.422361 41.9463 0.422361 42.9365C0.422361 44.8028 1.77149 46.189 3.67139 46.189C4.60108 46.189 5.48194 45.8404 6.14552 45.2105L20.4736 30.9229L33.7783 16.626L33.4785 27.1997L33.4785 81.9805C33.4785 83.9141 34.8462 85.2666 36.7983 85.2666ZM3.2002 6.62111L70.3105 6.62111C72.2441 6.62111 73.5781 5.25343 73.5781 3.31983C73.5781 1.38623 72.2441 0 70.3105 0L3.2002 0C1.3003 0 0 1.38623 0 3.31983C0 5.25343 1.3003 6.62111 3.2002 6.62111Z" fill="#000000" fill-opacity="0.85"/>
 </g>
</svg>
