<?xml version="1.0" encoding="UTF-8"?>
<!--Generator: Apple Native CoreSVG 232.5-->
<!DOCTYPE svg
PUBLIC "-//W3C//DTD SVG 1.1//EN"
       "http://www.w3.org/Graphics/SVG/1.1/DTD/svg11.dtd">
<svg version="1.1" xmlns="http://www.w3.org/2000/svg" xmlns:xlink="http://www.w3.org/1999/xlink" width="106.992" height="87.7227">
 <g>
  <rect height="87.7227" opacity="0" width="106.992" x="0" y="0"/>
  <path d="M60.377 87.6738C62.4214 87.6738 64.1021 86.773 65.9614 85.0298L104.381 48.9556C106.448 46.9858 106.992 45.3423 106.992 43.8369C106.992 42.2979 106.497 40.6729 104.381 38.6846L65.9614 2.8462C63.9336 0.934571 62.4888 0 60.4443 0C57.5108 0 55.5537 2.27686 55.5537 5.07911L55.5537 24.5957L53.8652 24.5957C20.7104 24.5957 3.77735 44.9561 3.77735 82.2056C3.77735 85.6782 5.77638 87.6738 8.08009 87.6738C9.93409 87.6738 11.711 87.0947 13.1172 84.3784C20.9322 68.5781 33.4854 63.2783 53.8652 63.2783L55.5537 63.2783L55.5537 82.7481C55.5537 85.5503 57.5108 87.6738 60.377 87.6738Z" fill="#000000" fill-opacity="0.85"/>
 </g>
</svg>
