<?xml version="1.0" encoding="UTF-8"?>
<!--Generator: Apple Native CoreSVG 232.5-->
<!DOCTYPE svg
PUBLIC "-//W3C//DTD SVG 1.1//EN"
       "http://www.w3.org/Graphics/SVG/1.1/DTD/svg11.dtd">
<svg version="1.1" xmlns="http://www.w3.org/2000/svg" xmlns:xlink="http://www.w3.org/1999/xlink" width="88.4092" height="89.5508">
 <g>
  <rect height="89.5508" opacity="0" width="88.4092" x="0" y="0"/>
  <path d="M14.3936 88.4092L74.0005 88.4092C83.5733 88.4092 88.4092 83.5278 88.4092 74.1353L88.4092 14.2739C88.4092 4.88135 83.5733 0 74.0005 0L14.3936 0C4.86963 0 0 4.80225 0 14.2739L0 74.1353C0 83.6069 4.86963 88.4092 14.3936 88.4092ZM14.5064 82.3643C9.00294 82.3643 6.04494 79.4736 6.04494 73.8355L6.04494 14.5737C6.04494 8.96925 9.00294 6.04494 14.5064 6.04494L73.9028 6.04494C79.2969 6.04494 82.3643 8.96925 82.3643 14.5737L82.3643 73.8355C82.3643 79.4736 79.2969 82.3643 73.9028 82.3643Z" fill="#000000" fill-opacity="0.85"/>
  <path d="M19.772 49.9824C19.772 61.0689 27.7686 68.0718 38.8579 68.0718C39.7617 68.0718 45.7876 68.0718 46.0317 68.0718C47.7295 68.0718 48.9624 67.1084 48.9624 65.3618C48.9624 63.6304 47.7295 62.6182 46.0991 62.6182C45.8735 62.6182 39.7617 62.6182 38.8579 62.6182C30.9248 62.6182 25.3604 57.6245 25.3604 49.7129C25.3604 41.936 31.0259 37.3652 38.8242 37.3652L55.2251 37.3652L60.7598 37.2002L58.1094 39.2241L50.7495 46.3853C50.1685 46.9141 49.8569 47.6636 49.8569 48.4248C49.8569 50.0029 51.0225 51.2324 52.5972 51.2324C53.4107 51.2324 54.0405 50.936 54.5728 50.4038L67.5796 37.104C68.2583 36.4404 68.6709 35.6152 68.6709 34.689C68.6709 33.729 68.2583 32.8701 67.5796 32.2065L54.6065 19.0415C54.0742 18.4756 53.4443 18.1792 52.6157 18.1792C51.0225 18.1792 49.8569 19.375 49.8569 20.9868C49.8569 21.7666 50.2358 22.4976 50.7832 22.9775L57.4321 29.5103L60.7598 32.1777L55.2251 32.0127L38.8242 32.0127C27.7349 32.0127 19.772 38.9146 19.772 49.9824Z" fill="#000000" fill-opacity="0.85"/>
 </g>
</svg>
