<?xml version="1.0" encoding="UTF-8"?>
<!--Generator: Apple Native CoreSVG 232.5-->
<!DOCTYPE svg
PUBLIC "-//W3C//DTD SVG 1.1//EN"
       "http://www.w3.org/Graphics/SVG/1.1/DTD/svg11.dtd">
<svg version="1.1" xmlns="http://www.w3.org/2000/svg" xmlns:xlink="http://www.w3.org/1999/xlink" width="116.775" height="88.5371">
 <g>
  <rect height="88.5371" opacity="0" width="116.775" x="0" y="0"/>
  <path d="M33.0918 88.5371L83.6348 88.5371C92.7847 88.5371 96.8511 83.9844 98.2554 74.9741L106.192 21.9854L100.147 22.3071L92.2441 74.8613C91.4209 80.3159 88.5605 82.814 83.5371 82.814L33.2383 82.814C28.0566 82.814 25.3208 80.3159 24.5313 74.8613L16.6128 22.3071L10.583 21.9854L18.52 74.9741C19.8755 84.0938 23.9907 88.5371 33.0918 88.5371ZM8.35401 25.0611L108.421 25.0611C113.761 25.0611 116.775 21.6494 116.775 16.3433L116.775 8.86085C116.775 3.53955 113.761 0.127929 108.421 0.127929L8.35401 0.127929C3.20117 0.127929 0 3.53955 0 8.86085L0 16.3433C0 21.6494 3.01416 25.0611 8.35401 25.0611ZM9.67482 19.353C7.188 19.353 6.04494 18.0703 6.04494 15.5986L6.04494 9.59034C6.04494 7.11866 7.188 5.85109 9.67482 5.85109L107.134 5.85109C109.606 5.85109 110.73 7.11866 110.73 9.59034L110.73 15.5986C110.73 18.0703 109.606 19.353 107.134 19.353Z" fill="#000000" fill-opacity="0.85"/>
  <path d="M61.3765 70.166L61.3765 49.7725L61.0952 40.9239L67.4404 47.3667L71.4043 51.4282C71.9214 51.9453 72.6523 52.2603 73.4321 52.2603C74.9463 52.2603 76.1421 51.1655 76.1421 49.6211C76.1421 48.604 75.6538 47.9707 74.9785 47.3779L60.5933 33.7188C59.8252 33.0181 59.2139 32.7217 58.4644 32.7217C57.7485 32.7217 57.1035 33.0181 56.3354 33.7188L41.9502 47.3779C41.2749 47.9707 40.8203 48.604 40.8203 49.6211C40.8203 51.1655 41.9824 52.2603 43.5303 52.2603C44.2427 52.2603 45.041 51.9453 45.5581 51.4282L49.4883 47.3667L55.8184 40.9239L55.5859 49.7725L55.5859 70.166C55.5859 71.729 56.9165 73.0107 58.4644 73.0107C60.0122 73.0107 61.3765 71.729 61.3765 70.166Z" fill="#000000" fill-opacity="0.85"/>
 </g>
</svg>
