<?xml version="1.0" encoding="UTF-8"?>
<!--Generator: Apple Native CoreSVG 232.5-->
<!DOCTYPE svg
PUBLIC "-//W3C//DTD SVG 1.1//EN"
       "http://www.w3.org/Graphics/SVG/1.1/DTD/svg11.dtd">
<svg version="1.1" xmlns="http://www.w3.org/2000/svg" xmlns:xlink="http://www.w3.org/1999/xlink" width="106.992" height="87.7227">
 <g>
  <rect height="87.7227" opacity="0" width="106.992" x="0" y="0"/>
  <path d="M60.377 87.6738C62.4214 87.6738 64.1021 86.773 65.9614 85.0298L104.381 48.9556C106.448 46.9858 106.992 45.3423 106.992 43.8369C106.992 42.2979 106.497 40.6729 104.381 38.6846L65.9614 2.8462C63.9336 0.934571 62.4888 0 60.4443 0C57.5108 0 55.5537 2.27686 55.5537 5.07911L55.5537 24.5957L53.8652 24.5957C20.7104 24.5957 3.77735 44.9561 3.77735 82.2056C3.77735 85.6782 5.77638 87.6738 8.08009 87.6738C9.93409 87.6738 11.711 87.0947 13.1172 84.3784C20.9322 68.5781 33.4854 63.2783 53.8652 63.2783L55.5537 63.2783L55.5537 82.7481C55.5537 85.5503 57.5108 87.6738 60.377 87.6738ZM62.3428 79.7793C61.8916 79.7793 61.5987 79.4409 61.5987 78.9409L61.5987 59.0605C61.5987 57.998 61.1709 57.5703 60.1084 57.5703L54.6856 57.5703C31.0684 57.5703 16.3037 65.2183 10.2847 78.8818C10.1079 79.3144 9.94972 79.5972 9.61476 79.5972C9.29836 79.5972 9.13674 79.375 9.13674 78.9541C9.78029 51.1846 22.6543 30.3037 54.6856 30.3037L60.1084 30.3037C61.1709 30.3037 61.5987 29.876 61.5987 28.8135L61.5987 8.39943C61.5987 7.94826 61.9219 7.62502 62.3916 7.62502C62.7754 7.62502 63.0987 7.88088 63.4185 8.13674L99.395 42.228C100.055 42.8726 100.307 43.3472 100.307 43.8369C100.307 44.3267 100.119 44.7676 99.395 45.4458L63.3545 79.2339C62.9893 79.6177 62.666 79.7793 62.3428 79.7793Z" fill="#000000" fill-opacity="0.85"/>
 </g>
</svg>
