<?xml version="1.0" encoding="UTF-8"?>
<!--Generator: Apple Native CoreSVG 232.5-->
<!DOCTYPE svg
PUBLIC "-//W3C//DTD SVG 1.1//EN"
       "http://www.w3.org/Graphics/SVG/1.1/DTD/svg11.dtd">
<svg version="1.1" xmlns="http://www.w3.org/2000/svg" xmlns:xlink="http://www.w3.org/1999/xlink" width="97.9595" height="97.9932">
 <g>
  <rect height="97.9932" opacity="0" width="97.9595" x="0" y="0"/>
  <path d="M97.9595 49.021C97.9595 75.8584 75.8247 97.9932 48.9722 97.9932C22.1685 97.9932 0 75.8584 0 49.021C0 22.2173 22.1348 0.0488281 48.9385 0.0488281C75.791 0.0488281 97.9595 22.2173 97.9595 49.021ZM41.7417 25.604L19.7778 46.0576C18.5523 47.2529 18.271 48.1538 18.271 49.021C18.271 49.8545 18.5523 50.8228 19.7778 51.9507L41.7417 72.5576C42.8027 73.5024 43.6919 74.043 44.8774 74.043C46.5059 74.043 47.6157 72.9097 47.6157 71.2627L47.6157 59.5884L71.2627 59.5884C75.0698 59.5884 77.1982 57.4751 77.1982 53.8145L77.1982 44.3672C77.1982 40.7065 75.0698 38.5933 71.2627 38.5933L47.6157 38.5933L47.6157 26.9141C47.6157 25.3345 46.5059 23.999 44.8101 23.999C43.6582 23.999 42.9038 24.5396 41.7417 25.604Z" fill="#000000" fill-opacity="0.85"/>
 </g>
</svg>
