<?xml version="1.0" encoding="UTF-8"?>
<!--Generator: Apple Native CoreSVG 232.5-->
<!DOCTYPE svg
PUBLIC "-//W3C//DTD SVG 1.1//EN"
       "http://www.w3.org/Graphics/SVG/1.1/DTD/svg11.dtd">
<svg version="1.1" xmlns="http://www.w3.org/2000/svg" xmlns:xlink="http://www.w3.org/1999/xlink" width="88.4092" height="88.5371">
 <g>
  <rect height="88.5371" opacity="0" width="88.4092" x="0" y="0"/>
  <path d="M88.4092 14.4019L88.4092 74.2632C88.4092 83.6558 83.5733 88.5371 74.0005 88.5371L14.3936 88.5371C4.86963 88.5371 0 83.7349 0 74.2632L0 14.4019C0 4.93018 4.86963 0.127929 14.3936 0.127929L74.0005 0.127929C83.5733 0.127929 88.4092 5.00928 88.4092 14.4019ZM42.2012 28.3667L24.9517 45.7764C24.438 46.2598 24.0776 47.1221 24.0776 47.7822C24.0776 49.3267 25.1235 50.44 26.6831 50.44C27.5269 50.44 28.1719 50.1773 28.7007 49.5659L32.7437 45.2754L41.9385 35.3511L41.519 44.583L41.519 69.3101C41.519 70.8545 42.5835 71.9863 44.1953 71.9863C45.7398 71.9863 46.8379 70.8545 46.8379 69.3101L46.8379 44.583L46.437 35.3696L55.4551 45.1812L59.791 49.5659C60.3047 50.1773 61.0508 50.44 61.8272 50.44C63.3345 50.44 64.3989 49.2593 64.3989 47.8125C64.3989 47.0093 64.0606 46.312 63.3818 45.667L46.1895 28.3667C45.6235 27.7705 44.9448 27.437 44.1953 27.437C43.4795 27.437 42.7671 27.7183 42.2012 28.3667ZM25.5898 17.852C24.0605 17.852 22.9961 18.9502 22.9961 20.562C22.9961 22.0576 24.0605 23.1558 25.5898 23.1558L62.9019 23.1558C64.416 23.1558 65.4956 22.0576 65.4956 20.562C65.4956 18.9502 64.416 17.852 62.9019 17.852Z" fill="#000000" fill-opacity="0.85"/>
 </g>
</svg>
