<?xml version="1.0" encoding="UTF-8"?>
<!--Generator: Apple Native CoreSVG 232.5-->
<!DOCTYPE svg
PUBLIC "-//W3C//DTD SVG 1.1//EN"
       "http://www.w3.org/Graphics/SVG/1.1/DTD/svg11.dtd">
<svg version="1.1" xmlns="http://www.w3.org/2000/svg" xmlns:xlink="http://www.w3.org/1999/xlink" width="88.4092" height="88.5371">
 <g>
  <rect height="88.5371" opacity="0" width="88.4092" x="0" y="0"/>
  <path d="M14.3936 88.5371L74.0005 88.5371C83.5733 88.5371 88.4092 83.6558 88.4092 74.2632L88.4092 14.4019C88.4092 5.00928 83.5733 0.127929 74.0005 0.127929L14.3936 0.127929C4.86963 0.127929 0 4.93018 0 14.4019L0 74.2632C0 83.7349 4.86963 88.5371 14.3936 88.5371ZM14.5064 82.4922C9.00294 82.4922 6.04494 79.6016 6.04494 73.9634L6.04494 14.7017C6.04494 9.06349 9.00294 6.17287 14.5064 6.17287L73.9028 6.17287C79.2969 6.17287 82.3643 9.06349 82.3643 14.7017L82.3643 73.9634C82.3643 79.6016 79.2969 82.4922 73.9028 82.4922Z" fill="#000000" fill-opacity="0.85"/>
  <path d="M65.126 43.0298C66.6065 43.0298 67.836 41.834 67.836 40.3384L67.836 23.7398C67.836 21.5518 66.6401 20.6406 64.7368 20.6406L48.1753 20.6406C46.6948 20.6406 45.4653 21.8701 45.4653 23.3657C45.4653 24.8462 46.6948 26.042 48.1753 26.042L51.3701 26.0117L59.1435 25.69L47.0034 37.3838C45.9053 38.4634 45.8716 40.3262 46.9697 41.4243C48.1167 42.5864 49.897 42.6201 51.0591 41.3906L62.7866 29.232L62.4497 37.416L62.4497 40.3384C62.4497 41.834 63.6304 43.0298 65.126 43.0298ZM40.3164 67.8394C41.7969 67.8394 42.9927 66.6099 42.9927 65.1294C42.9927 63.6338 41.7969 62.438 40.3164 62.438L37.1216 62.4683L29.3482 62.79L41.4546 51.0962C42.5527 50.0166 42.5864 48.169 41.4883 47.0557C40.375 45.9087 38.561 45.875 37.4326 47.0894L25.7051 59.2632L26.042 51.0791L26.042 48.1416C26.042 46.646 24.8276 45.4653 23.332 45.4653C21.8516 45.4653 20.6558 46.646 20.6558 48.1416L20.6558 64.7402C20.6558 66.9282 21.8179 67.8394 23.7212 67.8394Z" fill="#000000" fill-opacity="0.85"/>
 </g>
</svg>
