<?xml version="1.0" encoding="UTF-8"?>
<!--Generator: Apple Native CoreSVG 232.5-->
<!DOCTYPE svg
PUBLIC "-//W3C//DTD SVG 1.1//EN"
       "http://www.w3.org/Graphics/SVG/1.1/DTD/svg11.dtd">
<svg version="1.1" xmlns="http://www.w3.org/2000/svg" xmlns:xlink="http://www.w3.org/1999/xlink" width="114.35" height="88.4395">
 <g>
  <rect height="88.4395" opacity="0" width="114.35" x="0" y="0"/>
  <path d="M14.3936 88.4092L99.9409 88.4092C109.514 88.4092 114.35 83.5615 114.35 74.169L114.35 14.2739C114.35 4.88135 109.514 0 99.9409 0L14.3936 0C4.86963 0 0 4.83594 0 14.2739L0 74.169C0 83.6069 4.86963 88.4092 14.3936 88.4092ZM14.5064 82.3794C9.00294 82.3794 6.04494 79.4736 6.04494 73.8355L6.04494 14.6074C6.04494 8.96925 9.00294 6.04494 14.5064 6.04494L99.8433 6.04494C105.237 6.04494 108.305 8.96925 108.305 14.6074L108.305 73.8355C108.305 79.4736 105.237 82.3794 99.8433 82.3794Z" fill="#000000" fill-opacity="0.85"/>
  <path d="M69.7256 70.0469C71.3896 70.0469 72.5029 68.8662 72.5029 67.0859L72.5029 57.8355L72.0127 49.813L78.1812 56.3638L95.8638 74.0127C96.396 74.5449 97.0781 74.8936 98.0566 74.8936C99.7358 74.8936 100.834 73.7954 100.834 72.0825C100.834 71.3027 100.452 70.5381 99.9043 70.0058L82.2217 52.3081L75.6035 46.0908L82.6484 46.6148L92.959 46.6148C94.7393 46.6148 95.9048 45.5015 95.9048 43.8374C95.9048 42.1733 94.7729 41.0903 93.0112 41.0903L70.0474 41.0903C68.1626 41.0903 66.9634 42.0015 66.9634 44.1709L66.9634 67.0186C66.9634 68.7803 68.0766 70.0469 69.7256 70.0469Z" fill="#000000" fill-opacity="0.85"/>
 </g>
</svg>
