<?xml version="1.0" encoding="UTF-8"?>
<!--Generator: Apple Native CoreSVG 232.5-->
<!DOCTYPE svg
PUBLIC "-//W3C//DTD SVG 1.1//EN"
       "http://www.w3.org/Graphics/SVG/1.1/DTD/svg11.dtd">
<svg version="1.1" xmlns="http://www.w3.org/2000/svg" xmlns:xlink="http://www.w3.org/1999/xlink" width="97.9595" height="97.9932">
 <g>
  <rect height="97.9932" opacity="0" width="97.9595" x="0" y="0"/>
  <path d="M97.9595 49.021C97.9595 75.8584 75.8247 97.9932 48.9722 97.9932C22.1685 97.9932 0 75.8584 0 49.021C0 22.2173 22.1348 0.0488281 48.9385 0.0488281C75.791 0.0488281 97.9595 22.2173 97.9595 49.021ZM49.3872 26.4575L49.3872 38.3726L25.2988 38.3726C21.4243 38.3726 19.2285 40.5044 19.2285 44.2813L19.2285 53.9155C19.2285 57.6773 21.4243 59.8091 25.2988 59.8091L49.3872 59.8091L49.3872 71.7192C49.3872 73.3999 50.5308 74.5518 52.1592 74.5518C53.3784 74.5518 54.3535 74.0264 55.4146 73.0479L77.8687 52.0181C79.0606 50.8901 79.3418 49.8545 79.3418 49.021C79.3418 48.1538 79.0606 47.2007 77.8687 45.9902L55.4146 25.1289C54.2676 24.0308 53.397 23.4902 52.2603 23.4902C50.5308 23.4902 49.3872 24.8106 49.3872 26.4575Z" fill="#000000" fill-opacity="0.85"/>
 </g>
</svg>
