<?xml version="1.0" encoding="UTF-8"?>
<!--Generator: Apple Native CoreSVG 232.5-->
<!DOCTYPE svg
PUBLIC "-//W3C//DTD SVG 1.1//EN"
       "http://www.w3.org/Graphics/SVG/1.1/DTD/svg11.dtd">
<svg version="1.1" xmlns="http://www.w3.org/2000/svg" xmlns:xlink="http://www.w3.org/1999/xlink" width="97.9595" height="97.9932">
 <g>
  <rect height="97.9932" opacity="0" width="97.9595" x="0" y="0"/>
  <path d="M48.9722 97.9443C75.8247 97.9443 97.9595 75.7759 97.9595 48.9722C97.9595 22.1348 75.791 0 48.9385 0C22.1348 0 0 22.1348 0 48.9722C0 75.7759 22.1685 97.9443 48.9722 97.9443ZM48.9722 91.6113C25.3501 91.6113 6.36671 72.5942 6.36671 48.9722C6.36671 25.3501 25.3164 6.31789 48.9385 6.31789C72.5605 6.31789 91.6265 25.3501 91.6265 48.9722C91.6265 72.5942 72.5942 91.6113 48.9722 91.6113Z" fill="#000000" fill-opacity="0.85"/>
  <path d="M28.3525 65.3975C28.3525 67.4844 29.4356 68.7964 31.3355 68.7627C33.2202 68.729 34.3032 67.4844 34.3032 65.3975L34.3032 50.2944C34.3032 45.064 36.5274 42.9072 41.5137 42.9072L55.3628 42.8921L55.3628 50.7398C55.3628 53.4746 58.4126 54.6519 60.6289 52.7808L72.0381 43.0518C74.4077 41.0274 74.4077 38.7573 72.0381 36.7178L60.6289 27.0376C58.4126 25.1328 55.3628 26.3589 55.3628 29.0752L55.3628 36.8774L41.3823 36.8774C32.4849 36.8774 28.3525 41.0552 28.3525 50.04Z" fill="#000000" fill-opacity="0.85"/>
 </g>
</svg>
