<?xml version="1.0" encoding="UTF-8"?>
<!--Generator: Apple Native CoreSVG 232.5-->
<!DOCTYPE svg
PUBLIC "-//W3C//DTD SVG 1.1//EN"
       "http://www.w3.org/Graphics/SVG/1.1/DTD/svg11.dtd">
<svg version="1.1" xmlns="http://www.w3.org/2000/svg" xmlns:xlink="http://www.w3.org/1999/xlink" width="98.104" height="74.9287">
 <g>
  <rect height="74.9287" opacity="0" width="98.104" x="0" y="0"/>
  <path d="M55.1455 72.7974C56.0449 72.7974 56.813 72.4976 57.5474 71.812L90.4419 38.8604C91.1611 38.1597 91.5283 37.3394 91.5283 36.4063C91.5283 35.5068 91.1611 34.6714 90.4419 33.937L57.5474 1.03418C56.813 0.333497 56.0449 0 55.1455 0C53.313 0 51.9267 1.38282 51.9267 3.16993C51.9267 4.08448 52.2266 4.9839 52.7959 5.55324L67.4267 20.2851L83.7251 35.438L84.4292 33.521L71.1347 33.1353L3.23731 33.1353C1.34912 33.1353 0 34.4878 0 36.4063C0 38.3096 1.34912 39.711 3.23731 39.711L71.1347 39.711L84.4292 39.3101L83.7251 37.4268L67.4267 52.5122L52.7959 67.2778C52.2266 67.8623 51.9267 68.7617 51.9267 69.6274C51.9267 71.4482 53.313 72.7974 55.1455 72.7974ZM94.7842 72.7974C96.6875 72.7974 98.104 71.4819 98.104 69.6123L98.104 3.30128C98.104 1.38282 96.6875 0 94.7842 0C92.8657 0 91.4829 1.38282 91.4829 3.30128L91.4829 69.6123C91.4829 71.4819 92.8657 72.7974 94.7842 72.7974Z" fill="#000000" fill-opacity="0.85"/>
 </g>
</svg>
