<?xml version="1.0" encoding="UTF-8"?>
<!--Generator: Apple Native CoreSVG 232.5-->
<!DOCTYPE svg
PUBLIC "-//W3C//DTD SVG 1.1//EN"
       "http://www.w3.org/Graphics/SVG/1.1/DTD/svg11.dtd">
<svg version="1.1" xmlns="http://www.w3.org/2000/svg" xmlns:xlink="http://www.w3.org/1999/xlink" width="81.875" height="77.1104">
 <g>
  <rect height="77.1104" opacity="0" width="81.875" x="0" y="0"/>
  <path d="M7.52051 77.1104C9.14063 77.1104 10.4155 76.4316 12.209 75.5425L77.3296 44.0933C80.6626 42.436 81.875 40.8193 81.875 38.5796C81.875 36.3398 80.6626 34.7568 77.3296 33.1147L12.209 1.6167C10.3818 0.72754 9.10694 0.0639647 7.48682 0.0639647C4.41846 0.0639647 2.49023 2.34424 2.49023 6.00196L2.52393 71.1572C2.52393 74.8149 4.45215 77.1104 7.52051 77.1104ZM9.22023 70.0884C8.80617 70.0884 8.53517 69.7871 8.53517 69.1997L8.53517 7.97462C8.53517 7.34181 8.80617 7.07082 9.22023 7.07082C9.50636 7.07082 9.79249 7.21388 10.0938 7.40578L73.208 37.6792C73.5884 37.8525 73.9653 38.1689 73.9653 38.5796C73.9653 38.9902 73.5884 39.3218 73.208 39.48L10.0938 69.7871C9.79249 69.9453 9.50636 70.0884 9.22023 70.0884Z" fill="#000000" fill-opacity="0.85"/>
 </g>
</svg>
