<?xml version="1.0" encoding="UTF-8"?>
<!--Generator: Apple Native CoreSVG 232.5-->
<!DOCTYPE svg
PUBLIC "-//W3C//DTD SVG 1.1//EN"
       "http://www.w3.org/Graphics/SVG/1.1/DTD/svg11.dtd">
<svg version="1.1" xmlns="http://www.w3.org/2000/svg" xmlns:xlink="http://www.w3.org/1999/xlink" width="97.9595" height="97.9932">
 <g>
  <rect height="97.9932" opacity="0" width="97.9595" x="0" y="0"/>
  <path d="M48.9722 97.9443C75.8247 97.9443 97.9595 75.7759 97.9595 48.9722C97.9595 22.1348 75.791 0 48.9385 0C22.1348 0 0 22.1348 0 48.9722C0 75.7759 22.1685 97.9443 48.9722 97.9443ZM48.9722 91.6113C25.3501 91.6113 6.36671 72.5942 6.36671 48.9722C6.36671 25.3501 25.3164 6.31789 48.9385 6.31789C72.5605 6.31789 91.6265 25.3501 91.6265 48.9722C91.6265 72.5942 72.5942 91.6113 48.9722 91.6113Z" fill="#000000" fill-opacity="0.85"/>
  <path d="M74.0513 48.9233C74.0513 48.1216 73.7515 47.4766 73.0171 46.7573L55.6201 29.3081C55.1216 28.8096 54.4546 28.5132 53.626 28.5132C52.0781 28.5132 50.9277 29.6787 50.9277 31.2266C50.9277 32.0737 51.2764 32.7407 51.8052 33.3032L59.4526 40.917L65.5122 46.3784L56.4961 46.0483L26.6182 46.0483C24.9727 46.0483 23.7583 47.229 23.7583 48.9385C23.7583 50.5537 24.9575 51.7495 26.6182 51.7495L56.4961 51.7495L65.4971 51.4834L59.4526 56.9146L51.8052 64.5283C51.2427 65.0571 50.9277 65.7241 50.9277 66.5864C50.9277 68.1191 52.0781 69.3184 53.626 69.3184C54.4546 69.3184 55.1216 68.9883 55.6201 68.4898L73.0171 51.0894C73.7026 50.4375 74.0513 49.7554 74.0513 48.9233Z" fill="#000000" fill-opacity="0.85"/>
 </g>
</svg>
