<?xml version="1.0" encoding="UTF-8"?>
<!--Generator: Apple Native CoreSVG 232.5-->
<!DOCTYPE svg
PUBLIC "-//W3C//DTD SVG 1.1//EN"
       "http://www.w3.org/Graphics/SVG/1.1/DTD/svg11.dtd">
<svg version="1.1" xmlns="http://www.w3.org/2000/svg" xmlns:xlink="http://www.w3.org/1999/xlink" width="88.4092" height="88.5371">
 <g>
  <rect height="88.5371" opacity="0" width="88.4092" x="0" y="0"/>
  <path d="M14.3936 88.5371L74.0005 88.5371C83.5733 88.5371 88.4092 83.6558 88.4092 74.2632L88.4092 14.4019C88.4092 5.00928 83.5733 0.127929 74.0005 0.127929L14.3936 0.127929C4.86963 0.127929 0 4.93018 0 14.4019L0 74.2632C0 83.7349 4.86963 88.5371 14.3936 88.5371ZM14.5064 82.4922C9.00294 82.4922 6.04494 79.6016 6.04494 73.9634L6.04494 14.7017C6.04494 9.06349 9.00294 6.17287 14.5064 6.17287L73.9028 6.17287C79.2969 6.17287 82.3643 9.06349 82.3643 14.7017L82.3643 73.9634C82.3643 79.6016 79.2969 82.4922 73.9028 82.4922Z" fill="#000000" fill-opacity="0.85"/>
  <path d="M44.2627 19.7085C42.6172 19.7085 41.4028 20.874 41.4028 22.5684L41.4028 50.8725L41.7026 59.8887L36.3203 53.8779L29.2837 46.8076C28.7549 46.2451 28.0879 45.9604 27.2559 45.9604C25.6929 45.9604 24.5273 47.126 24.5273 48.6587C24.5273 49.457 24.7598 50.124 25.2734 50.6226L42.0967 67.4087C42.8159 68.1431 43.4795 68.4766 44.2627 68.4766C45.1133 68.4766 45.7617 68.1094 46.4624 67.4087L63.2671 50.6226C63.8145 50.124 64.0806 49.457 64.0806 48.6587C64.0806 47.126 62.8814 45.9604 61.3184 45.9604C60.4863 45.9604 59.8193 46.2266 59.2905 46.8076L52.2876 53.8779L46.8228 59.9375L47.1226 50.8725L47.1226 22.5684C47.1226 20.874 45.957 19.7085 44.2627 19.7085Z" fill="#000000" fill-opacity="0.85"/>
 </g>
</svg>
