<?xml version="1.0" encoding="UTF-8"?>
<!--Generator: Apple Native CoreSVG 232.5-->
<!DOCTYPE svg
PUBLIC "-//W3C//DTD SVG 1.1//EN"
       "http://www.w3.org/Graphics/SVG/1.1/DTD/svg11.dtd">
<svg version="1.1" xmlns="http://www.w3.org/2000/svg" xmlns:xlink="http://www.w3.org/1999/xlink" width="88.4092" height="88.5371">
 <g>
  <rect height="88.5371" opacity="0" width="88.4092" x="0" y="0"/>
  <path d="M88.4092 14.4019L88.4092 74.2632C88.4092 83.6558 83.5733 88.5371 74.0005 88.5371L14.3936 88.5371C4.86963 88.5371 0 83.7349 0 74.2632L0 14.4019C0 4.93018 4.86963 0.127929 14.3936 0.127929L74.0005 0.127929C83.5733 0.127929 88.4092 5.00928 88.4092 14.4019ZM40.3882 18.2192C40.3882 18.9014 40.6426 19.6138 41.1343 20.0903L46.209 25.2324C45.4399 25.1719 44.4941 25.0288 43.5855 25.0288C32.2119 25.0288 22.4341 34.4731 22.4341 46.5239C22.4341 58.7583 32.1108 68.5025 44.229 68.5025C56.3623 68.5025 66.0088 58.7583 66.0088 46.6436C66.0088 45.1631 64.7305 43.9185 63.2837 43.9185C61.7578 43.9185 60.5098 45.1631 60.5098 46.6436C60.5098 55.7368 53.292 63.0034 44.229 63.0034C35.1509 63.0034 27.9331 55.7856 27.9331 46.6436C27.9331 37.5806 35.1509 30.3594 44.229 30.3594C45.4692 30.3594 46.6675 30.4536 47.5947 30.6724L41.2588 36.9409C40.7031 37.5303 40.4033 38.1753 40.4033 38.9517C40.4033 40.3799 41.5317 41.4898 43.0054 41.4898C43.6538 41.4898 44.3325 41.1411 44.7485 40.7588L54.8018 30.5542C55.8291 29.5454 55.8071 27.6929 54.8018 26.6387L44.9068 16.5366C44.4151 15.9775 43.7178 15.6323 42.9751 15.6323C41.5166 15.6323 40.3882 16.7607 40.3882 18.2192Z" fill="#000000" fill-opacity="0.85"/>
 </g>
</svg>
