<?xml version="1.0" encoding="UTF-8"?>
<!--Generator: Apple Native CoreSVG 232.5-->
<!DOCTYPE svg
PUBLIC "-//W3C//DTD SVG 1.1//EN"
       "http://www.w3.org/Graphics/SVG/1.1/DTD/svg11.dtd">
<svg version="1.1" xmlns="http://www.w3.org/2000/svg" xmlns:xlink="http://www.w3.org/1999/xlink" width="126.493" height="79.6865">
 <g>
  <rect height="79.6865" opacity="0" width="126.493" x="0" y="0"/>
  <path d="M24.75 79.6377L77.0772 79.6377C88.4614 79.6377 95.0757 73.1582 95.0757 61.7891L95.0757 17.8149C95.0757 6.4795 88.4614 0 77.0772 0L24.75 0C13.7212 0 6.76661 6.4795 6.76661 17.8149L6.76661 61.7891C6.76661 73.1582 13.3657 79.6377 24.75 79.6377ZM25.875 73.96C17.3677 73.96 12.7964 69.6128 12.7964 60.8325L12.7964 18.79C12.7964 9.99122 17.3677 5.64406 25.875 5.64406L75.9673 5.64406C84.4409 5.64406 89.0308 9.99122 89.0308 18.79L89.0308 60.8325C89.0308 69.6128 84.4409 73.96 75.9673 73.96ZM94.104 27.146L94.104 34.2437L117.422 15.3115C118.164 14.7427 118.714 14.332 119.335 14.332C120.194 14.332 120.65 14.9868 120.65 16.1245L120.65 63.5132C120.65 64.6357 120.194 65.272 119.335 65.272C118.714 65.272 118.164 64.8613 117.422 64.3262L94.104 45.3789L94.104 52.458L114.456 69.3472C116.334 70.8677 118.27 71.915 120.227 71.915C123.994 71.915 126.493 69.165 126.493 65.0024L126.493 14.6353C126.493 10.4727 123.994 7.72265 120.227 7.72265C118.27 7.72265 116.334 8.75488 114.456 10.2905Z" fill="#000000" fill-opacity="0.85"/>
  <path d="M34.2207 59.751C35.1133 59.751 35.728 59.4546 36.23 58.9038L58.0508 37.0679L65.71 28.9404L65.0127 42.7085L65.0127 51.813C65.0127 53.2783 66.0957 54.4775 67.6065 54.4775C69.1997 54.4775 70.3872 53.3457 70.3872 51.813L70.3872 23.7866C70.3872 21.7891 69.4541 20.8374 67.4263 20.8374L39.2114 20.8374C37.6636 20.8374 36.5015 22.0854 36.5015 23.6484C36.5015 25.1592 37.7007 26.2573 39.2114 26.2573L48.5347 26.2573L62.3516 25.4995L54.1416 33.1738L32.3696 55.0132C31.7549 55.6431 31.4248 56.2915 31.4248 57.1235C31.4248 58.6494 32.6392 59.751 34.2207 59.751Z" fill="#000000" fill-opacity="0.85"/>
 </g>
</svg>
