<?xml version="1.0" encoding="UTF-8"?>
<!--Generator: Apple Native CoreSVG 232.5-->
<!DOCTYPE svg
PUBLIC "-//W3C//DTD SVG 1.1//EN"
       "http://www.w3.org/Graphics/SVG/1.1/DTD/svg11.dtd">
<svg version="1.1" xmlns="http://www.w3.org/2000/svg" xmlns:xlink="http://www.w3.org/1999/xlink" width="88.4092" height="88.5371">
 <g>
  <rect height="88.5371" opacity="0" width="88.4092" x="0" y="0"/>
  <path d="M14.3936 88.5371L74.0005 88.5371C83.5733 88.5371 88.4092 83.6558 88.4092 74.2632L88.4092 14.4019C88.4092 5.00928 83.5733 0.127929 74.0005 0.127929L14.3936 0.127929C4.86963 0.127929 0 4.93018 0 14.4019L0 74.2632C0 83.7349 4.86963 88.5371 14.3936 88.5371ZM14.5064 82.4922C9.00294 82.4922 6.04494 79.6016 6.04494 73.9634L6.04494 14.7017C6.04494 9.06349 9.00294 6.17287 14.5064 6.17287L73.9028 6.17287C79.2969 6.17287 82.3643 9.06349 82.3643 14.7017L82.3643 73.9634C82.3643 79.6016 79.2969 82.4922 73.9028 82.4922Z" fill="#000000" fill-opacity="0.85"/>
  <path d="M28.3218 56.0508C30.001 56.0508 31.0991 54.8853 31.0991 53.0898L31.0991 42.3721L30.624 34.3159L36.7925 40.8667L57.8643 61.9385C58.4302 62.4707 59.1123 62.8193 60.0571 62.8193C61.7363 62.8193 62.8682 61.7212 62.8682 60.0234C62.8682 59.2285 62.4858 58.479 61.9385 57.9316L40.8179 36.8111L34.1997 30.5938L41.2598 31.1026L53.0376 31.1026C54.8516 31.1026 56.0171 30.0044 56.0171 28.3252C56.0171 26.6763 54.8853 25.5933 53.0898 25.5933L28.6436 25.5933C26.7739 25.5933 25.5747 26.5044 25.5747 28.6587L25.5747 53.0225C25.5747 54.7842 26.6729 56.0508 28.3218 56.0508Z" fill="#000000" fill-opacity="0.85"/>
 </g>
</svg>
