<?xml version="1.0" encoding="UTF-8"?>
<!--Generator: Apple Native CoreSVG 232.5-->
<!DOCTYPE svg
PUBLIC "-//W3C//DTD SVG 1.1//EN"
       "http://www.w3.org/Graphics/SVG/1.1/DTD/svg11.dtd">
<svg version="1.1" xmlns="http://www.w3.org/2000/svg" xmlns:xlink="http://www.w3.org/1999/xlink" width="98.104" height="74.9287">
 <g>
  <rect height="74.9287" opacity="0" width="98.104" x="0" y="0"/>
  <path d="M3.28614 72.7974C5.23829 72.7974 6.62111 71.4819 6.62111 69.6123L6.62111 3.30128C6.62111 1.38282 5.23829 0 3.28614 0C1.38282 0 0 1.38282 0 3.30128L0 69.6123C0 71.4819 1.38282 72.7974 3.28614 72.7974ZM42.9248 72.7974C44.791 72.7974 46.1924 71.4482 46.1924 69.6274C46.1924 68.7617 45.8589 67.8623 45.3081 67.2778L30.6773 52.5122L14.3789 37.4268L13.6748 39.3101L26.9693 39.711L94.8667 39.711C96.7212 39.711 98.104 38.3096 98.104 36.4063C98.104 34.4878 96.7212 33.1353 94.8667 33.1353L26.9693 33.1353L13.6748 33.521L14.3789 35.438L30.6773 20.2851L45.3081 5.55324C45.8589 4.9839 46.1924 4.08448 46.1924 3.16993C46.1924 1.38282 44.791 0 42.9248 0C42.0591 0 41.291 0.333497 40.5718 1.03418L7.67727 33.937C6.94289 34.6714 6.54201 35.5068 6.54201 36.4063C6.54201 37.3394 6.94289 38.1597 7.67727 38.8604L40.5718 71.812C41.291 72.4976 42.0591 72.7974 42.9248 72.7974Z" fill="#000000" fill-opacity="0.85"/>
 </g>
</svg>
