<?xml version="1.0" encoding="UTF-8"?>
<!--Generator: Apple Native CoreSVG 232.5-->
<!DOCTYPE svg
PUBLIC "-//W3C//DTD SVG 1.1//EN"
       "http://www.w3.org/Graphics/SVG/1.1/DTD/svg11.dtd">
<svg version="1.1" xmlns="http://www.w3.org/2000/svg" xmlns:xlink="http://www.w3.org/1999/xlink" width="97.9595" height="97.9932">
 <g>
  <rect height="97.9932" opacity="0" width="97.9595" x="0" y="0"/>
  <path d="M48.9722 97.9443C75.8247 97.9443 97.9595 75.7759 97.9595 48.9722C97.9595 22.1348 75.791 0 48.9385 0C22.1348 0 0 22.1348 0 48.9722C0 75.7759 22.1685 97.9443 48.9722 97.9443ZM48.9722 91.6113C25.3501 91.6113 6.36671 72.5942 6.36671 48.9722C6.36671 25.3501 25.3164 6.31789 48.9385 6.31789C72.5605 6.31789 91.6265 25.3501 91.6265 48.9722C91.6265 72.5942 72.5942 91.6113 48.9722 91.6113Z" fill="#000000" fill-opacity="0.85"/>
  <path d="M44.3521 70.0288C45.898 70.0288 46.959 68.8618 46.959 67.3462L46.959 56.5459L47.9219 56.5459C59.1982 56.5459 66.0977 59.5273 70.4419 68.2119C71.2183 69.6904 72.1328 70.0288 73.1802 70.0288C74.396 70.0288 75.5513 68.9746 75.5513 67.0581C75.5513 46.459 66.1152 35.3252 47.9219 35.3252L46.959 35.3252L46.959 24.5166C46.959 22.9858 45.898 21.7329 44.3335 21.7329C43.2153 21.7329 42.4307 22.2583 41.3662 23.2705L20.1113 43.0337C18.9531 44.1128 18.6719 45.0474 18.6719 45.8809C18.6719 46.7144 18.9834 47.6489 20.1113 48.728L41.3662 68.5923C42.3296 69.5034 43.249 70.0288 44.3521 70.0288Z" fill="#000000" fill-opacity="0.85"/>
 </g>
</svg>
