<?xml version="1.0" encoding="UTF-8"?>
<!--Generator: Apple Native CoreSVG 232.5-->
<!DOCTYPE svg
PUBLIC "-//W3C//DTD SVG 1.1//EN"
       "http://www.w3.org/Graphics/SVG/1.1/DTD/svg11.dtd">
<svg version="1.1" xmlns="http://www.w3.org/2000/svg" xmlns:xlink="http://www.w3.org/1999/xlink" width="97.9595" height="97.9932">
 <g>
  <rect height="97.9932" opacity="0" width="97.9595" x="0" y="0"/>
  <path d="M97.9595 49.021C97.9595 75.8584 75.8247 97.9932 48.9722 97.9932C22.1685 97.9932 0 75.8584 0 49.021C0 22.2173 22.1348 0.0488281 48.9385 0.0488281C75.791 0.0488281 97.9595 22.2173 97.9595 49.021ZM48.3096 21.3926L38.4146 31.4946C37.394 32.5488 37.4058 34.4014 38.4146 35.4102L48.4526 45.5811C48.8687 45.9971 49.5811 46.3457 50.1958 46.3457C51.7031 46.3457 52.7979 45.2022 52.7979 43.7739C52.7979 43.0313 52.4981 42.3862 51.9424 41.7969L45.6402 35.5283C46.5674 35.3096 47.7319 35.2153 48.9722 35.2153C58.0991 35.2153 65.2681 42.4028 65.2681 51.4995C65.2681 60.6079 58.0991 67.8594 48.9722 67.8594C39.9092 67.8594 32.7066 60.5928 32.7066 51.4995C32.7066 50.019 31.4771 48.7744 29.9175 48.7744C28.4707 48.7744 27.2075 50.019 27.2075 51.4995C27.2075 63.6143 36.8389 73.3584 48.9722 73.3584C61.0903 73.3584 70.7671 63.6143 70.7671 51.3799C70.7671 39.3291 61.0044 29.8848 49.6157 29.8848C48.7222 29.8848 47.7764 29.9941 47.041 30.0884L52.1157 24.9463C52.5586 24.4697 52.813 23.7725 52.813 23.0752C52.813 21.6167 51.7183 20.4546 50.2261 20.4546C49.4985 20.4546 48.8198 20.8335 48.3096 21.3926Z" fill="#000000" fill-opacity="0.85"/>
 </g>
</svg>
