<?xml version="1.0" encoding="UTF-8"?>
<!--Generator: Apple Native CoreSVG 232.5-->
<!DOCTYPE svg
PUBLIC "-//W3C//DTD SVG 1.1//EN"
       "http://www.w3.org/Graphics/SVG/1.1/DTD/svg11.dtd">
<svg version="1.1" xmlns="http://www.w3.org/2000/svg" xmlns:xlink="http://www.w3.org/1999/xlink" width="97.9595" height="97.9932">
 <g>
  <rect height="97.9932" opacity="0" width="97.9595" x="0" y="0"/>
  <path d="M97.9595 48.9722C97.9595 75.7759 75.8247 97.9443 48.9722 97.9443C22.1685 97.9443 0 75.7759 0 48.9722C0 22.1348 22.1348 0 48.9385 0C75.791 0 97.9595 22.1348 97.9595 48.9722ZM24.6665 30.2842L24.6665 67.5811C24.6665 69.1104 25.7647 70.1748 27.3428 70.1748C28.8569 70.1748 29.9702 69.1104 29.9702 67.5811L29.9702 30.2842C29.9702 28.7549 28.8569 27.6904 27.3428 27.6904C25.7647 27.6904 24.6665 28.7549 24.6665 30.2842ZM52.5908 29.6646L35.1323 46.9478C34.585 47.5625 34.2178 48.2261 34.2178 48.9756C34.2178 49.7066 34.5176 50.4038 35.1323 50.9697L52.4663 68.0762C53.044 68.6538 53.8574 69.0933 54.6118 69.0933C56.1411 69.0933 57.2056 68.0625 57.2056 66.4878C57.2056 65.644 56.9917 64.9653 56.3804 64.4702L51.9956 60.2842L42.1504 51.2324L51.3823 51.667L76.1094 51.667C77.6538 51.667 78.7671 50.5874 78.7671 48.9756C78.7671 47.4312 77.6538 46.333 76.1094 46.333L51.3823 46.333L42.1841 46.7339L52.0899 37.6064L56.3804 33.395C56.9917 32.8662 57.2056 32.1201 57.2056 31.3438C57.2056 29.8027 56.0737 28.772 54.5967 28.772C53.8692 28.772 53.1416 29.0649 52.5908 29.6646Z" fill="#000000" fill-opacity="0.85"/>
 </g>
</svg>
