<?xml version="1.0" encoding="UTF-8"?>
<!--Generator: Apple Native CoreSVG 232.5-->
<!DOCTYPE svg
PUBLIC "-//W3C//DTD SVG 1.1//EN"
       "http://www.w3.org/Graphics/SVG/1.1/DTD/svg11.dtd">
<svg version="1.1" xmlns="http://www.w3.org/2000/svg" xmlns:xlink="http://www.w3.org/1999/xlink" width="120.038" height="88.5371">
 <g>
  <rect height="88.5371" opacity="0" width="120.038" x="0" y="0"/>
  <path d="M0.915931 34.0112C2.21623 35.3115 3.98137 35.1616 5.26311 33.8984L10.7226 28.5181L19.0844 19.7319L19.0844 74.2632C19.0844 83.7349 23.9877 88.5371 33.4931 88.5371L75.9486 88.5371C78.0204 88.5371 79.2685 87.4087 79.2348 85.5391C79.2011 83.6206 78.0204 82.4922 75.9486 82.4922L33.6244 82.4922C28.121 82.4922 25.1293 79.6016 25.1293 73.9634L25.1293 19.6646L33.5551 28.5181L38.9994 33.8984C40.266 35.1162 42.0649 35.3267 43.3466 34.0112C44.6586 32.7329 44.5458 30.9307 43.2641 29.6338L25.9765 12.395C23.5444 9.98144 20.7519 9.98144 18.3197 12.395L1.03214 29.6338C-0.283291 30.9307-0.362392 32.7329 0.915931 34.0112ZM40.8036 3.12598C40.8373 5.01075 42.018 6.17287 44.0898 6.17287L86.4477 6.17287C91.9662 6.17287 94.9242 9.06349 94.9242 14.7017L94.9242 69.0005L86.4985 60.1133L81.0541 54.7666C79.7875 53.5488 78.0224 53.3384 76.6918 54.6201C75.3949 55.9321 75.4926 57.7344 76.7743 59.0313L94.0619 76.2363C96.5277 78.6836 99.3017 78.6836 101.768 76.2363L119.006 59.0313C120.322 57.7344 120.401 55.9321 119.122 54.6201C117.856 53.3535 116.057 53.4697 114.775 54.7666L109.331 60.1133L100.954 68.9331L100.954 14.4019C100.954 4.93018 96.0844 0.127929 86.5605 0.127929L44.0898 0.127929C42.018 0.127929 40.7699 1.25635 40.8036 3.12598Z" fill="#000000" fill-opacity="0.85"/>
 </g>
</svg>
