<?xml version="1.0" encoding="UTF-8"?>
<!--Generator: Apple Native CoreSVG 232.5-->
<!DOCTYPE svg
PUBLIC "-//W3C//DTD SVG 1.1//EN"
       "http://www.w3.org/Graphics/SVG/1.1/DTD/svg11.dtd">
<svg version="1.1" xmlns="http://www.w3.org/2000/svg" xmlns:xlink="http://www.w3.org/1999/xlink" width="106.666" height="106.825">
 <g>
  <rect height="106.825" opacity="0" width="106.666" x="0" y="0"/>
  <path d="M106.649 63.4934L106.489 28.2732C106.489 27.2947 106.118 26.343 105.473 25.6828C104.106 24.3454 102.157 24.3791 100.823 25.6828C100.156 26.365 99.8409 27.1482 99.8409 28.1047L99.9942 43.9455L100.631 56.7443L93.1466 48.8068L45.3727 1.03293C44.0353-0.304476 42.0192-0.383577 40.6852 1.03293C39.2687 2.36692 39.3478 4.34934 40.6852 5.70189L88.4439 53.5095L96.3966 60.945L83.6314 60.3571L67.7906 60.1887C66.8004 60.1887 66.0021 60.4851 65.3351 61.1858C64.0011 62.5046 63.9674 64.4348 65.3351 65.821C65.9986 66.4324 66.9166 66.803 67.944 66.803L103.146 67.0271C105.131 67.0945 106.716 65.5432 106.649 63.4934Z" fill="#000000" fill-opacity="0.85"/>
  <path d="M0.00205304 43.2522L0.211039 78.4538C0.211039 79.4812 0.581646 80.384 1.19297 81.029C2.59435 82.4304 4.49425 82.3967 5.8131 81.029C6.4801 80.362 6.81018 79.5974 6.81018 78.6072L6.64172 62.7629L6.0841 49.9675L13.5196 57.9539L61.3273 105.728C62.6647 107.08 64.5983 107.095 65.9811 105.728C67.3824 104.345 67.3185 102.363 65.9811 101.025L18.2072 53.2512L10.2545 45.8308L23.0348 46.4036L38.9093 46.5569C39.8658 46.5569 40.6153 46.2419 41.2823 45.5749C42.65 44.241 42.6837 42.2922 41.2823 40.9397C40.6373 40.2795 39.7345 39.924 38.756 39.924L3.50548 39.7488C1.53477 39.6814-0.06533 41.135 0.00205304 43.2522Z" fill="#000000" fill-opacity="0.85"/>
 </g>
</svg>
