<?xml version="1.0" encoding="UTF-8"?>
<!--Generator: Apple Native CoreSVG 232.5-->
<!DOCTYPE svg
PUBLIC "-//W3C//DTD SVG 1.1//EN"
       "http://www.w3.org/Graphics/SVG/1.1/DTD/svg11.dtd">
<svg version="1.1" xmlns="http://www.w3.org/2000/svg" xmlns:xlink="http://www.w3.org/1999/xlink" width="114.35" height="109.764">
 <g>
  <rect height="109.764" opacity="0" width="114.35" x="0" y="0"/>
  <path d="M0 84.8766C0 94.3483 4.86963 99.1506 14.3936 99.1506L99.9409 99.1506C109.514 99.1506 114.35 94.2692 114.35 84.8766L114.35 25.0153C114.35 15.6227 109.514 10.7414 99.9409 10.7414L63.1577 10.7414C61.4937 10.7414 60.1109 12.0905 60.1109 13.7394C60.1109 15.4035 61.4937 16.7863 63.1577 16.7863L99.8433 16.7863C105.237 16.7863 108.305 19.6769 108.305 25.3151L108.305 84.5768C108.305 90.215 105.237 93.1056 99.8433 93.1056L14.5064 93.1056C9.00294 93.1056 6.04494 90.215 6.04494 84.5768L6.04494 25.3151C6.04494 19.6769 9.00294 16.7863 14.5064 16.7863L28.1196 16.7863L28.1196 24.7092C28.1196 27.5251 30.0732 28.3469 32.3652 26.7302L47.563 16.0803C49.4273 14.7599 49.4609 12.8249 47.563 11.5046L32.3989 0.839519C30.0732-0.810874 28.1196 0.0260405 28.1196 2.87566L28.1196 10.7414L14.3936 10.7414C4.86963 10.7414 0 15.5436 0 25.0153Z" fill="#000000" fill-opacity="0.85"/>
 </g>
</svg>
