<?xml version="1.0" encoding="UTF-8"?>
<!--Generator: Apple Native CoreSVG 232.5-->
<!DOCTYPE svg
PUBLIC "-//W3C//DTD SVG 1.1//EN"
       "http://www.w3.org/Graphics/SVG/1.1/DTD/svg11.dtd">
<svg version="1.1" xmlns="http://www.w3.org/2000/svg" xmlns:xlink="http://www.w3.org/1999/xlink" width="88.4092" height="88.5371">
 <g>
  <rect height="88.5371" opacity="0" width="88.4092" x="0" y="0"/>
  <path d="M88.4092 14.4019L88.4092 74.2632C88.4092 83.6558 83.5733 88.5371 74.0005 88.5371L14.3936 88.5371C4.86963 88.5371 0 83.7349 0 74.2632L0 14.4019C0 4.93018 4.86963 0.127929 14.3936 0.127929L74.0005 0.127929C83.5733 0.127929 88.4092 5.00928 88.4092 14.4019ZM37.4277 24.1909L19.709 41.9619C18.9409 42.7148 18.6411 43.3599 18.6411 44.1953C18.6411 45.061 19.0234 45.7432 19.709 46.4136L37.4277 64.1509C37.96 64.6831 38.6606 65.0132 39.4741 65.0132C41.1382 65.0132 42.2734 63.7803 42.2734 62.1802C42.2734 61.3179 41.9585 60.6172 41.3623 60.0698L33.6289 52.355L27.4497 46.8228L36.7202 47.1226L67.0059 47.1226C68.7676 47.1226 69.9668 45.8931 69.9668 44.2105C69.9668 42.4336 68.7188 41.2344 67.0059 41.2344L36.7202 41.2344L27.4683 41.583L33.6289 36.0205L41.3623 28.3208C41.9248 27.7246 42.2734 27.0239 42.2734 26.1616C42.2734 24.5767 41.1382 23.3623 39.4741 23.3623C38.6606 23.3623 37.96 23.6587 37.4277 24.1909Z" fill="#000000" fill-opacity="0.85"/>
 </g>
</svg>
