<?xml version="1.0" encoding="UTF-8"?>
<!--Generator: Apple Native CoreSVG 232.5-->
<!DOCTYPE svg
PUBLIC "-//W3C//DTD SVG 1.1//EN"
       "http://www.w3.org/Graphics/SVG/1.1/DTD/svg11.dtd">
<svg version="1.1" xmlns="http://www.w3.org/2000/svg" xmlns:xlink="http://www.w3.org/1999/xlink" width="108.715" height="108.771">
 <g>
  <rect height="108.771" opacity="0" width="108.715" x="0" y="0"/>
  <path d="M64.5919 5.10976L103.654 44.1723C110.412 50.9296 110.355 57.7895 103.71 64.4491L64.4943 103.729C57.8161 110.389 50.9899 110.4 44.2326 103.628L5.1061 64.5165C-1.65123 57.744-1.71861 50.9633 5.00502 44.2396L44.2848 5.02383C51.0236-1.69981 57.8043-1.67784 64.5919 5.10976ZM61.5026 35.1547L61.5026 41.9784L46.6667 41.9784C37.5485 41.9784 33.3336 46.2572 33.3336 55.4477L33.3336 70.0756C33.3336 72.2299 34.4166 73.5756 36.4176 73.5419C38.3512 73.5082 39.5016 72.2299 39.5016 70.0756L39.5016 55.7172C39.5016 50.4345 41.7106 48.2104 46.7492 48.2104L61.5026 48.1801L61.5026 55.0526C61.5026 57.9154 64.4176 58.9985 66.5817 57.3144L77.966 48.3549C80.4704 46.349 80.4704 43.8246 77.966 41.8188L66.5817 32.893C64.4176 31.2089 61.5026 32.2919 61.5026 35.1547Z" fill="#000000" fill-opacity="0.85"/>
 </g>
</svg>
