<?xml version="1.0" encoding="UTF-8"?>
<!--Generator: Apple Native CoreSVG 232.5-->
<!DOCTYPE svg
PUBLIC "-//W3C//DTD SVG 1.1//EN"
       "http://www.w3.org/Graphics/SVG/1.1/DTD/svg11.dtd">
<svg version="1.1" xmlns="http://www.w3.org/2000/svg" xmlns:xlink="http://www.w3.org/1999/xlink" width="92.6442" height="85.155">
 <g>
  <rect height="85.155" opacity="0" width="92.6442" x="0" y="0"/>
  <path d="M10.503 64.1859L17.0787 64.1859L17.0787 24.1498C17.0787 15.3998 22.2813 9.51744 29.8878 9.51744C37.5279 9.51744 43.0587 15.181 43.0587 24.1498L43.0587 57.7332C43.0587 70.6825 51.1397 79.243 62.7867 79.243C74.3849 79.243 82.1715 70.6825 82.1715 57.7332L82.1715 17.785L75.5958 17.785L75.5958 58.0384C75.5958 66.7547 70.3932 72.6522 62.7867 72.6522C55.1466 72.6522 49.6007 66.9735 49.6007 58.0384L49.6007 24.4549C49.6007 11.5057 41.5348 2.94515 29.8878 2.94515C18.2896 2.94515 10.503 11.5057 10.503 24.4549ZM2.84969 61.3377C7.79875e-05 61.3377-0.788009 63.2914 0.828693 65.5833L11.4786 80.7474C12.8326 82.6791 14.7677 82.6454 16.1031 80.7474L26.753 65.5497C28.336 63.2914 27.5479 61.3377 24.7169 61.3377ZM67.961 20.8504L89.7945 20.8504C92.6105 20.8504 93.4322 18.8968 91.8155 16.62L81.1993 1.42221C79.879-0.457187 77.9439-0.490878 76.5899 1.42221L65.94 16.5863C64.2896 18.8968 65.1114 20.8504 67.961 20.8504Z" fill="#000000" fill-opacity="0.85"/>
 </g>
</svg>
