<?xml version="1.0" encoding="UTF-8"?>
<!--Generator: Apple Native CoreSVG 232.5-->
<!DOCTYPE svg
PUBLIC "-//W3C//DTD SVG 1.1//EN"
       "http://www.w3.org/Graphics/SVG/1.1/DTD/svg11.dtd">
<svg version="1.1" xmlns="http://www.w3.org/2000/svg" xmlns:xlink="http://www.w3.org/1999/xlink" width="88.4092" height="88.5371">
 <g>
  <rect height="88.5371" opacity="0" width="88.4092" x="0" y="0"/>
  <path d="M14.3936 88.5371L74.0005 88.5371C83.5733 88.5371 88.4092 83.6558 88.4092 74.2632L88.4092 14.4019C88.4092 5.00928 83.5733 0.127929 74.0005 0.127929L14.3936 0.127929C4.86963 0.127929 0 4.93018 0 14.4019L0 74.2632C0 83.7349 4.86963 88.5371 14.3936 88.5371ZM14.5064 82.4922C9.00294 82.4922 6.04494 79.6016 6.04494 73.9634L6.04494 14.7017C6.04494 9.06349 9.00294 6.17287 14.5064 6.17287L73.9028 6.17287C79.2969 6.17287 82.3643 9.06349 82.3643 14.7017L82.3643 73.9634C82.3643 79.6016 79.2969 82.4922 73.9028 82.4922Z" fill="#000000" fill-opacity="0.85"/>
  <path d="M23.332 43.0298C24.8276 43.0298 26.042 41.834 26.042 40.3384L26.042 37.416L25.7051 29.232L37.4326 41.3906C38.561 42.6201 40.375 42.5864 41.4883 41.4243C42.5864 40.3262 42.5527 38.4634 41.4546 37.3838L29.3482 25.69L37.1216 26.0117L40.3164 26.042C41.7969 26.042 42.9927 24.8462 42.9927 23.3657C42.9927 21.8701 41.7969 20.6406 40.3164 20.6406L23.7212 20.6406C21.8179 20.6406 20.6558 21.5518 20.6558 23.7398L20.6558 40.3384C20.6558 41.834 21.8516 43.0298 23.332 43.0298ZM48.1753 67.8394L64.7368 67.8394C66.6401 67.8394 67.836 66.9282 67.836 64.7402L67.836 48.1416C67.836 46.646 66.6065 45.4653 65.126 45.4653C63.6304 45.4653 62.4497 46.646 62.4497 48.1416L62.4497 51.0791L62.7866 59.2632L51.0591 47.0894C49.897 45.875 48.1167 45.9087 46.9697 47.0557C45.8716 48.169 45.9053 50.0166 47.0034 51.0962L59.1435 62.79L51.3701 62.4683L48.1753 62.438C46.6948 62.438 45.4653 63.6338 45.4653 65.1294C45.4653 66.6099 46.6948 67.8394 48.1753 67.8394Z" fill="#000000" fill-opacity="0.85"/>
 </g>
</svg>
