<?xml version="1.0" encoding="UTF-8"?>
<!--Generator: Apple Native CoreSVG 232.5-->
<!DOCTYPE svg
PUBLIC "-//W3C//DTD SVG 1.1//EN"
       "http://www.w3.org/Graphics/SVG/1.1/DTD/svg11.dtd">
<svg version="1.1" xmlns="http://www.w3.org/2000/svg" xmlns:xlink="http://www.w3.org/1999/xlink" width="88.4092" height="88.5371">
 <g>
  <rect height="88.5371" opacity="0" width="88.4092" x="0" y="0"/>
  <path d="M14.3936 88.5371L74.0005 88.5371C83.5733 88.5371 88.4092 83.6558 88.4092 74.2632L88.4092 14.4019C88.4092 5.00928 83.5733 0.127929 74.0005 0.127929L14.3936 0.127929C4.86963 0.127929 0 4.93018 0 14.4019L0 74.2632C0 83.7349 4.86963 88.5371 14.3936 88.5371ZM14.5064 82.4922C9.00294 82.4922 6.04494 79.6016 6.04494 73.9634L6.04494 14.7017C6.04494 9.06349 9.00294 6.17287 14.5064 6.17287L73.9028 6.17287C79.2969 6.17287 82.3643 9.06349 82.3643 14.7017L82.3643 73.9634C82.3643 79.6016 79.2969 82.4922 73.9028 82.4922Z" fill="#000000" fill-opacity="0.85"/>
  <path d="M15.957 44.2476C15.957 45.792 17.0215 46.8379 18.5137 46.8379L42.8179 46.8379L51.8628 46.437L42.2383 55.2866L37.8872 59.4541C37.3096 59.9492 37.062 60.5942 37.062 61.4043C37.062 62.9453 38.1265 63.9424 39.5884 63.9424C40.3091 63.9424 41.1226 63.5181 41.7002 62.959L58.6787 46.1895C59.2598 45.6421 59.5596 44.9448 59.5596 44.2476C59.5596 43.5317 59.2261 42.853 58.6787 42.2871L41.5757 25.3257C41.0249 24.7598 40.3311 24.4668 39.6035 24.4668C38.1938 24.4668 37.062 25.4639 37.062 26.9712C37.062 27.7139 37.3096 28.4263 37.8872 28.9551L42.144 33.1328L51.8291 42.0732L42.8179 41.6724L18.5137 41.6724C17.0215 41.6724 15.957 42.7368 15.957 44.2476ZM66.2813 65.0054C67.8257 65.0054 68.8902 63.9595 68.8902 62.479L68.8902 25.9302C68.8902 24.4497 67.8257 23.4038 66.2813 23.4038C64.8193 23.4038 63.7549 24.4497 63.7549 25.9302L63.7549 62.479C63.7549 63.9595 64.8193 65.0054 66.2813 65.0054Z" fill="#000000" fill-opacity="0.85"/>
 </g>
</svg>
