<?xml version="1.0" encoding="UTF-8"?>
<!--Generator: Apple Native CoreSVG 232.5-->
<!DOCTYPE svg
PUBLIC "-//W3C//DTD SVG 1.1//EN"
       "http://www.w3.org/Graphics/SVG/1.1/DTD/svg11.dtd">
<svg version="1.1" xmlns="http://www.w3.org/2000/svg" xmlns:xlink="http://www.w3.org/1999/xlink" width="97.0039" height="89.9326">
 <g>
  <rect height="89.9326" opacity="0" width="97.0039" x="0" y="0"/>
  <path d="M97.0039 31.1235C97.0039 51.4702 79.2241 71.46 52.4116 88.8262C51.5039 89.3701 50.2813 89.9326 49.3921 89.9326C48.5366 89.9326 47.2803 89.3701 46.4214 88.8262C19.5937 71.46 1.81396 51.4702 1.81396 31.1235C1.81396 14.4136 13.3159 2.53955 28.3755 2.53955C37.5522 2.53955 45.2583 7.74073 49.3921 15.6729C53.5933 7.70704 61.2656 2.53955 70.4238 2.53955C85.502 2.53955 97.0039 14.4136 97.0039 31.1235ZM46.3208 28.7818L31.6323 42.6616C30.957 43.3032 30.4688 43.9365 30.4688 44.9536C30.4688 46.584 31.6309 47.7124 33.2461 47.7124C34.0259 47.7124 34.8242 47.3638 35.3413 46.8467L39.3911 42.6841L45.77 36.1739L45.5376 45.2061L45.5376 65.9214C45.5376 67.5029 46.8867 68.8184 48.502 68.8184C50.1172 68.8184 51.5 67.5029 51.5 65.9214L51.5 45.2061L51.2339 36.1739L57.6128 42.6841L61.6626 46.8467C62.2134 47.3638 62.9443 47.7124 63.7578 47.7124C65.3057 47.7124 66.5352 46.584 66.5352 44.9536C66.5352 43.9365 66.0469 43.3032 65.3716 42.6616L50.6831 28.7818C49.8965 28.0474 49.2515 27.751 48.502 27.751C47.7524 27.751 47.1074 28.0474 46.3208 28.7818Z" fill="#000000" fill-opacity="0.85"/>
 </g>
</svg>
