<?xml version="1.0" encoding="UTF-8"?>
<!--Generator: Apple Native CoreSVG 232.5-->
<!DOCTYPE svg
PUBLIC "-//W3C//DTD SVG 1.1//EN"
       "http://www.w3.org/Graphics/SVG/1.1/DTD/svg11.dtd">
<svg version="1.1" xmlns="http://www.w3.org/2000/svg" xmlns:xlink="http://www.w3.org/1999/xlink" width="88.4092" height="88.5371">
 <g>
  <rect height="88.5371" opacity="0" width="88.4092" x="0" y="0"/>
  <path d="M14.3936 88.5371L74.0005 88.5371C83.5733 88.5371 88.4092 83.6558 88.4092 74.2632L88.4092 14.4019C88.4092 5.00928 83.5733 0.127929 74.0005 0.127929L14.3936 0.127929C4.86963 0.127929 0 4.93018 0 14.4019L0 74.2632C0 83.7349 4.86963 88.5371 14.3936 88.5371ZM14.5064 82.4922C9.00294 82.4922 6.04494 79.6016 6.04494 73.9634L6.04494 14.7017C6.04494 9.06349 9.00294 6.17287 14.5064 6.17287L73.9028 6.17287C79.2969 6.17287 82.3643 9.06349 82.3643 14.7017L82.3643 73.9634C82.3643 79.6016 79.2969 82.4922 73.9028 82.4922Z" fill="#000000" fill-opacity="0.85"/>
  <path d="M68.6709 50.0952C68.6709 39.0425 60.6592 32.1255 49.5698 32.1255L33.1841 32.1255L27.6343 32.272L30.9771 29.6382L37.6108 23.1055C38.1734 22.6104 38.5523 21.8945 38.5523 21.0659C38.5523 19.5029 37.3867 18.3071 35.7783 18.3071C34.9497 18.3071 34.335 18.5698 33.8027 19.1357L20.8145 32.3193C20.1694 32.998 19.772 33.8418 19.772 34.7832C19.772 35.7432 20.1694 36.5532 20.8145 37.2319L33.8364 50.4829C34.3687 51.0303 34.9834 51.3115 35.812 51.3115C37.3867 51.3115 38.5523 50.1309 38.5523 48.519C38.5523 47.7915 38.2407 47.042 37.6445 46.5132L30.2998 39.3369L27.6343 37.2944L33.1841 37.4932L49.5698 37.4932C57.3833 37.4932 63.0825 42.064 63.0825 49.8408C63.0825 57.7524 57.4844 62.7461 49.5361 62.7461C48.6475 62.7461 42.5205 62.7461 42.3101 62.7461C40.6646 62.7461 39.4316 63.7246 39.4316 65.4898C39.4316 67.2212 40.6646 68.1997 42.3775 68.1997C42.6216 68.1997 48.6475 68.1997 49.5361 68.1997C60.6255 68.1997 68.6709 61.1631 68.6709 50.0952Z" fill="#000000" fill-opacity="0.85"/>
 </g>
</svg>
