<?xml version="1.0" encoding="UTF-8"?>
<!--Generator: Apple Native CoreSVG 232.5-->
<!DOCTYPE svg
PUBLIC "-//W3C//DTD SVG 1.1//EN"
       "http://www.w3.org/Graphics/SVG/1.1/DTD/svg11.dtd">
<svg version="1.1" xmlns="http://www.w3.org/2000/svg" xmlns:xlink="http://www.w3.org/1999/xlink" width="97.9595" height="97.9932">
 <g>
  <rect height="97.9932" opacity="0" width="97.9595" x="0" y="0"/>
  <path d="M97.9595 48.9722C97.9595 75.7759 75.8247 97.9443 48.9722 97.9443C22.1685 97.9443 0 75.7759 0 48.9722C0 22.1348 22.1348 0 48.9385 0C75.791 0 97.9595 22.1348 97.9595 48.9722ZM27.7695 50.0576C26.2065 50.0576 24.9585 51.272 24.9585 52.8687C24.9585 54.3828 26.2065 55.6123 27.7695 55.6123L30.9829 55.582L38.9248 55.2603L24.4727 69.2476C23.3408 70.3794 23.2734 72.2608 24.439 73.4077C25.5708 74.5884 27.4336 74.5884 28.5957 73.374L42.6538 58.8882L42.3169 67.2407L42.3169 70.2119C42.3169 71.7598 43.5313 72.9741 45.0606 72.9741C46.6235 72.9741 47.8716 71.7598 47.8716 70.2119L47.8716 53.2241C47.8716 51.0024 46.6421 50.0576 44.6714 50.0576ZM69.3638 24.4761L55.2905 38.9468L55.6426 30.6094L55.6426 27.6382C55.6426 26.0903 54.4131 24.8608 52.8989 24.8608C51.3359 24.8608 50.0879 26.0903 50.0879 27.6382L50.0879 44.5923C50.0879 46.8477 51.3023 47.7925 53.2881 47.7925L70.19 47.7925C71.7378 47.7925 73.001 46.5293 73.001 44.9814C73.001 43.4521 71.7378 42.2378 70.19 42.2378L66.9614 42.2529L59.0347 42.5747L73.4868 28.6025C74.6187 27.437 74.6861 25.5742 73.5205 24.4424C72.3735 23.2466 70.5259 23.2466 69.3638 24.4761Z" fill="#000000" fill-opacity="0.85"/>
 </g>
</svg>
