<?xml version="1.0" encoding="UTF-8"?>
<!--Generator: Apple Native CoreSVG 232.5-->
<!DOCTYPE svg
PUBLIC "-//W3C//DTD SVG 1.1//EN"
       "http://www.w3.org/Graphics/SVG/1.1/DTD/svg11.dtd">
<svg version="1.1" xmlns="http://www.w3.org/2000/svg" xmlns:xlink="http://www.w3.org/1999/xlink" width="170.724" height="111.391">
 <g>
  <rect height="111.391" opacity="0" width="170.724" x="0" y="0"/>
  <path d="M51.896 68.044L51.896 102.713C51.896 107.646 48.1846 111.342 43.2861 111.342L8.51221 111.342C3.62891 111.342 0 107.646 0 102.713L0 68.044C0 63.1118 3.62891 59.3818 8.51221 59.3818L43.2861 59.3818C48.1846 59.3818 51.896 63.1118 51.896 68.044ZM111.312 68.044L111.312 102.713C111.312 107.646 107.6 111.342 102.702 111.342L67.9429 111.342C63.0444 111.342 59.4155 107.646 59.4155 102.713L59.4155 68.044C59.4155 63.1118 63.0444 59.3818 67.9429 59.3818L102.702 59.3818C107.6 59.3818 111.312 63.1118 111.312 68.044ZM8.51221 64.7832C6.71778 64.7832 5.38624 66.1333 5.38624 68.044L5.38624 102.713C5.38624 104.59 6.71778 105.94 8.51221 105.94L43.2861 105.94C45.1445 105.94 46.4946 104.59 46.4946 102.713L46.4946 68.044C46.4946 66.1333 45.1445 64.7832 43.2861 64.7832ZM67.9429 64.7832C66.1333 64.7832 64.8169 66.1333 64.8169 68.044L64.8169 102.713C64.8169 104.59 66.1333 105.94 67.9429 105.94L102.702 105.94C104.56 105.94 105.925 104.59 105.925 102.713L105.925 68.044C105.925 66.1333 104.56 64.7832 102.702 64.7832ZM111.312 8.61329L111.312 43.3315C111.312 48.2485 107.6 51.9111 102.702 51.9111L67.9429 51.9111C63.0444 51.9111 59.4155 48.2485 59.4155 43.3315L59.4155 8.61329C59.4155 3.69629 63.0444 0 67.9429 0L102.702 0C107.6 0 111.312 3.69629 111.312 8.61329ZM67.9429 5.40138C66.1333 5.40138 64.8169 6.75147 64.8169 8.61329L64.8169 43.3315C64.8169 45.1597 66.1333 46.5249 67.9429 46.5249L102.702 46.5249C104.56 46.5249 105.925 45.1597 105.925 43.3315L105.925 8.61329C105.925 6.75147 104.56 5.40138 102.702 5.40138Z" fill="#000000" fill-opacity="0.85"/>
  <path d="M170.724 68.044L170.724 102.713C170.724 107.646 167.08 111.342 162.181 111.342L127.407 111.342C122.524 111.342 118.828 107.646 118.828 102.713L118.828 68.044C118.828 63.1118 122.524 59.3818 127.407 59.3818L162.181 59.3818C167.08 59.3818 170.724 63.1118 170.724 68.044ZM134.662 73.4038L134.662 97.2861C134.662 99.0679 136.774 100.174 138.537 99.1538L157.935 87.5469C159.563 86.5938 159.597 84.1856 157.968 83.1987L138.537 71.5698C136.759 70.5493 134.662 71.6558 134.662 73.4038Z" fill="#000000" fill-opacity="0.85"/>
 </g>
</svg>
