<?xml version="1.0" encoding="UTF-8"?>
<!--Generator: Apple Native CoreSVG 232.5-->
<!DOCTYPE svg
PUBLIC "-//W3C//DTD SVG 1.1//EN"
       "http://www.w3.org/Graphics/SVG/1.1/DTD/svg11.dtd">
<svg version="1.1" xmlns="http://www.w3.org/2000/svg" xmlns:xlink="http://www.w3.org/1999/xlink" width="97.9595" height="97.9932">
 <g>
  <rect height="97.9932" opacity="0" width="97.9595" x="0" y="0"/>
  <path d="M97.9595 49.021C97.9595 75.8584 75.8247 97.9932 48.9722 97.9932C22.1685 97.9932 0 75.8584 0 49.021C0 22.2173 22.1348 0.0488281 48.9385 0.0488281C75.791 0.0488281 97.9595 22.2173 97.9595 49.021ZM41.2651 22.9116L19.5874 43.064C18.4106 44.1616 18.1143 45.0625 18.1143 45.9297C18.1143 46.8306 18.4258 47.7315 19.5874 48.8442L41.2651 69.0977C42.2773 70.0274 43.1816 70.5679 44.3335 70.5679C45.9316 70.5679 47.0264 69.3672 47.0264 67.8516L47.0264 56.8306L47.9893 56.8306C59.4526 56.8306 66.4868 59.8794 70.917 68.7173C71.7085 70.2295 72.6567 70.5679 73.7227 70.5679C74.9722 70.5679 76.1611 69.5137 76.1611 67.5635C76.1611 46.5415 66.5718 35.1533 47.9893 35.1533L47.0264 35.1533L47.0264 24.1426C47.0264 22.5933 45.9316 21.3252 44.2998 21.3252C43.148 21.3252 42.3633 21.832 41.2651 22.9116Z" fill="#000000" fill-opacity="0.85"/>
 </g>
</svg>
