<?xml version="1.0" encoding="UTF-8"?>
<!--Generator: Apple Native CoreSVG 232.5-->
<!DOCTYPE svg
PUBLIC "-//W3C//DTD SVG 1.1//EN"
       "http://www.w3.org/Graphics/SVG/1.1/DTD/svg11.dtd">
<svg version="1.1" xmlns="http://www.w3.org/2000/svg" xmlns:xlink="http://www.w3.org/1999/xlink" width="88.4092" height="88.5371">
 <g>
  <rect height="88.5371" opacity="0" width="88.4092" x="0" y="0"/>
  <path d="M14.3936 88.5371L74.0005 88.5371C83.5733 88.5371 88.4092 83.6558 88.4092 74.2632L88.4092 14.4019C88.4092 5.00928 83.5733 0.127929 74.0005 0.127929L14.3936 0.127929C4.86963 0.127929 0 4.93018 0 14.4019L0 74.2632C0 83.7349 4.86963 88.5371 14.3936 88.5371ZM14.5064 82.4922C9.00294 82.4922 6.04494 79.6016 6.04494 73.9634L6.04494 14.7017C6.04494 9.06349 9.00294 6.17287 14.5064 6.17287L73.9028 6.17287C79.2969 6.17287 82.3643 9.06349 82.3643 14.7017L82.3643 73.9634C82.3643 79.6016 79.2969 82.4922 73.9028 82.4922Z" fill="#000000" fill-opacity="0.85"/>
  <path d="M64.9902 43.0645C66.4859 43.0645 67.7002 41.835 67.7002 40.3545C67.7002 38.8589 66.4859 37.6631 64.9902 37.6631L61.7954 37.6934L54.0371 38.0151L68.2197 24.2637C69.3179 23.1504 69.3516 21.3364 68.2534 20.2231C67.1401 19.0762 65.3262 19.0762 64.1978 20.2568L50.3789 34.4883L50.731 26.3042L50.731 23.3667C50.731 21.8711 49.5352 20.6904 48.0547 20.6904C46.5591 20.6904 45.3296 21.8711 45.3296 23.3667L45.3296 39.9653C45.3296 42.1533 46.5254 43.0645 48.4287 43.0645ZM40.4033 67.7036C41.8989 67.7036 43.1284 66.523 43.1284 65.0274L43.1284 48.395C43.1284 46.2407 41.9326 45.3296 40.0293 45.3296L23.4678 45.3296C21.9722 45.3296 20.7578 46.5103 20.7578 48.0396C20.7578 49.5352 21.9722 50.7158 23.4678 50.7158L26.6626 50.7007L34.4209 50.3789L20.2383 64.1304C19.1401 65.1948 19.1064 67.0576 20.2046 68.1558C21.3027 69.3179 23.1318 69.3179 24.2603 68.1221L38.0791 53.9058L37.727 62.0899L37.727 65.0274C37.727 66.523 38.9229 67.7036 40.4033 67.7036Z" fill="#000000" fill-opacity="0.85"/>
 </g>
</svg>
