<?xml version="1.0" encoding="UTF-8"?>
<!--Generator: Apple Native CoreSVG 232.5-->
<!DOCTYPE svg
PUBLIC "-//W3C//DTD SVG 1.1//EN"
       "http://www.w3.org/Graphics/SVG/1.1/DTD/svg11.dtd">
<svg version="1.1" xmlns="http://www.w3.org/2000/svg" xmlns:xlink="http://www.w3.org/1999/xlink" width="59.0767" height="94.0235">
 <g>
  <rect height="94.0235" opacity="0" width="59.0767" x="0" y="0"/>
  <path d="M29.5552 94.0235C30.4546 94.0235 31.29 93.69 32.0093 92.9707L58.0913 66.624C58.7246 65.9907 59.0767 65.0357 59.0767 64.2373C59.0767 62.2363 57.7275 60.936 55.8394 60.936C54.9062 60.936 54.1416 61.2695 53.5571 61.854L41.1563 74.4756L32.459 84.0151L32.8262 73.02L32.8262 21.0034L32.459 10.0083L41.1563 19.5479L53.5571 32.1694C54.1416 32.7539 54.9062 33.0874 55.8394 33.0874C57.7275 33.0874 59.0767 31.7871 59.0767 29.7861C59.0767 28.9878 58.7246 28.0327 58.0913 27.3994L32.0093 1.05274C31.29 0.333497 30.4546 0 29.5552 0C28.6221 0 27.8018 0.333497 27.1011 1.05274L1.03418 27.3994C0.40088 28.0327 0 28.9878 0 29.7861C0 31.7871 1.34912 33.0874 3.23731 33.0874C4.20411 33.0874 4.9839 32.7539 5.51955 32.1694L17.9541 19.5479L26.6177 10.0083L26.2842 21.0034L26.2842 73.02L26.6177 84.0151L17.9541 74.4756L5.51955 61.854C4.9839 61.2695 4.20411 60.936 3.23731 60.936C1.34912 60.936 0 62.2363 0 64.2373C0 65.0357 0.40088 65.9907 1.03418 66.624L27.1011 92.9707C27.8018 93.69 28.6221 94.0235 29.5552 94.0235Z" fill="#000000" fill-opacity="0.85"/>
 </g>
</svg>
