<?xml version="1.0" encoding="UTF-8"?>
<!--Generator: Apple Native CoreSVG 232.5-->
<!DOCTYPE svg
PUBLIC "-//W3C//DTD SVG 1.1//EN"
       "http://www.w3.org/Graphics/SVG/1.1/DTD/svg11.dtd">
<svg version="1.1" xmlns="http://www.w3.org/2000/svg" xmlns:xlink="http://www.w3.org/1999/xlink" width="114.35" height="88.4395">
 <g>
  <rect height="88.4395" opacity="0" width="114.35" x="0" y="0"/>
  <path d="M87.8232 85.7681L87.8232 38.3565C87.8232 30.7861 83.6089 26.6055 75.9375 26.6055L3.2002 26.6055L3.2002 32.0591L75.5703 32.0591C79.8613 32.0591 82.3696 34.6011 82.3696 38.9107L82.3696 85.7681ZM61.8394 28.4614L56.3857 28.4614L56.3857 85.7681L61.8394 85.7681ZM14.3936 88.4092L99.9409 88.4092C109.514 88.4092 114.35 83.5615 114.35 74.169L114.35 14.2739C114.35 4.88135 109.514 0 99.9409 0L14.3936 0C4.86963 0 0 4.83594 0 14.2739L0 74.169C0 83.6069 4.86963 88.4092 14.3936 88.4092ZM14.5064 82.3794C9.00294 82.3794 6.04494 79.4736 6.04494 73.8355L6.04494 14.6074C6.04494 8.96925 9.00294 6.04494 14.5064 6.04494L99.8433 6.04494C105.237 6.04494 108.305 8.96925 108.305 14.6074L108.305 73.8355C108.305 79.4736 105.237 82.3794 99.8433 82.3794Z" fill="#000000" fill-opacity="0.85"/>
 </g>
</svg>
