<?xml version="1.0" encoding="UTF-8"?>
<!--Generator: Apple Native CoreSVG 232.5-->
<!DOCTYPE svg
PUBLIC "-//W3C//DTD SVG 1.1//EN"
       "http://www.w3.org/Graphics/SVG/1.1/DTD/svg11.dtd">
<svg version="1.1" xmlns="http://www.w3.org/2000/svg" xmlns:xlink="http://www.w3.org/1999/xlink" width="97.9595" height="97.9932">
 <g>
  <rect height="97.9932" opacity="0" width="97.9595" x="0" y="0"/>
  <path d="M48.9722 97.9443C75.8247 97.9443 97.9595 75.7759 97.9595 48.9722C97.9595 22.1348 75.791 0 48.9385 0C22.1348 0 0 22.1348 0 48.9722C0 75.7759 22.1685 97.9443 48.9722 97.9443ZM48.9722 91.6113C25.3501 91.6113 6.36671 72.5942 6.36671 48.9722C6.36671 25.3501 25.3164 6.31789 48.9385 6.31789C72.5605 6.31789 91.6265 25.3501 91.6265 48.9722C91.6265 72.5942 72.5942 91.6113 48.9722 91.6113Z" fill="#000000" fill-opacity="0.85"/>
  <path d="M24.5718 70.8023C25.7676 70.8023 26.8472 70.2026 27.1773 68.7441L35.29 34.0186L35.5898 34.0186L43.9199 68.7441C44.25 70.2026 45.2808 70.8023 46.4917 70.8023C47.9688 70.8023 49.3296 69.6773 48.7822 67.417L39.0122 29.3047C38.5659 27.543 37.3516 26.5273 35.6387 26.5273C33.9746 26.5273 32.6289 27.5464 32.1978 29.3047L22.1768 67.417C21.6294 69.6773 23.1099 70.8023 24.5718 70.8023ZM27.6914 58.5015L43.3164 58.5015L43.3164 54.4595L27.6914 54.4595ZM62.9053 68.8438C69.6338 68.8438 74.2559 64.8516 74.2559 58.48C74.2559 53.6982 71.8228 50.4956 66.103 47.5591L61.5606 45.2188C59.0972 43.9761 56.294 42.2554 56.294 38.5181C56.294 35.0064 58.9219 32.8867 62.6089 32.8867C66.5283 32.8867 68.8076 35.5938 68.9609 39.5498C69.062 40.855 70.0405 41.6314 71.1958 41.6314C72.5532 41.6314 73.7861 40.6343 73.5166 38.5845C73.0752 32.9292 69.189 28.7251 62.6089 28.7251C56.1431 28.7251 51.5479 32.6148 51.5479 38.6865C51.5479 44.0391 54.6206 47.23 59.3389 49.5571L63.8106 51.7778C66.8057 53.251 69.4795 55.354 69.4795 58.7832C69.4795 62.2832 67.0737 64.6519 62.9053 64.6519C58.2031 64.6519 55.9844 62.0796 55.7485 57.8643C55.6289 56.4917 54.7178 55.7827 53.5625 55.7827C52.2051 55.7827 51.0059 56.8809 51.2603 58.8296C51.7842 64.7476 55.9902 68.8438 62.9053 68.8438ZM62.8867 73.9927C63.7456 73.9927 64.5557 73.2163 64.5557 72.2935L64.5557 25.5278C64.5557 24.6016 63.7456 23.8252 62.8867 23.8252C61.9302 23.8252 61.1387 24.6016 61.1387 25.5278L61.1387 72.2935C61.1387 73.2163 61.9302 73.9927 62.8867 73.9927Z" fill="#000000" fill-opacity="0.85"/>
 </g>
</svg>
