<?xml version="1.0" encoding="UTF-8"?>
<!--Generator: Apple Native CoreSVG 232.5-->
<!DOCTYPE svg
PUBLIC "-//W3C//DTD SVG 1.1//EN"
       "http://www.w3.org/Graphics/SVG/1.1/DTD/svg11.dtd">
<svg version="1.1" xmlns="http://www.w3.org/2000/svg" xmlns:xlink="http://www.w3.org/1999/xlink" width="97.9595" height="97.9932">
 <g>
  <rect height="97.9932" opacity="0" width="97.9595" x="0" y="0"/>
  <path d="M97.9595 48.9722C97.9595 75.7759 75.8247 97.9443 48.9722 97.9443C22.1685 97.9443 0 75.7759 0 48.9722C0 22.1348 22.1348 0 48.9385 0C75.791 0 97.9595 22.1348 97.9595 48.9722ZM61.4419 25.0527L61.4419 28.3696C55.6665 28.9473 51.6338 32.8066 51.6338 38.4995C51.6338 43.9531 54.7739 47.1626 59.5933 49.5908L61.4419 50.5151L61.4419 64.7563C57.9473 64.2158 56.1377 61.79 55.9844 58.0664C55.8496 56.6602 54.9048 55.9023 53.7495 55.9023C52.3399 55.9023 51.0732 57.0493 51.3613 59.0654C51.8179 64.5591 55.4312 68.5425 61.4419 69.1504L61.4419 72.7686C61.4419 73.7251 62.252 74.5352 63.2271 74.5352C64.1348 74.5352 64.9448 73.7251 64.9448 72.7686L64.9448 69.1841C70.8667 68.5728 74.8472 64.6597 74.8472 58.667C74.8472 53.7842 72.3316 50.5967 66.5259 47.5254L64.9448 46.6919L64.9448 32.8984C67.6719 33.604 69.2827 36.0298 69.4175 39.3477C69.5186 40.6865 70.5493 41.5117 71.7197 41.5117C73.0957 41.5117 74.3623 40.4658 74.1079 38.3486C73.6851 33.148 70.523 29.1914 64.9448 28.4336L64.9448 25.0527C64.9448 24.0776 64.1348 23.2676 63.2271 23.2676C62.252 23.2676 61.4419 24.0776 61.4419 25.0527ZM31.8423 28.9155L21.7017 67.8062C21.0718 70.1338 22.6348 71.2774 24.1152 71.2774C25.3447 71.2774 26.4732 70.6441 26.7881 69.167L29.2627 58.7373L41.2769 58.7373L43.8188 69.167C44.1489 70.6441 45.2134 71.2774 46.458 71.2774C48.0024 71.2774 49.397 70.1338 48.8496 67.8062L38.8775 28.9155C38.4463 27.0864 37.1646 26.0371 35.4517 26.0371C33.6865 26.0371 32.3071 27.105 31.8423 28.9155ZM65.4194 52.6084C68.0591 54.063 69.936 55.9302 69.936 58.9854C69.936 62.0425 68.1231 64.2461 64.9448 64.7563L64.9448 52.3526ZM40.4028 54.5791L30.1856 54.5791L35.0693 33.7642L35.3691 33.7642ZM61.4419 44.8208L60.7485 44.4556C58.6743 43.2651 56.5635 41.6792 56.5635 38.3311C56.5635 35.2319 58.5161 33.2437 61.4419 32.7822Z" fill="#000000" fill-opacity="0.85"/>
 </g>
</svg>
