<?xml version="1.0" encoding="UTF-8"?>
<!--Generator: Apple Native CoreSVG 232.5-->
<!DOCTYPE svg
PUBLIC "-//W3C//DTD SVG 1.1//EN"
       "http://www.w3.org/Graphics/SVG/1.1/DTD/svg11.dtd">
<svg version="1.1" xmlns="http://www.w3.org/2000/svg" xmlns:xlink="http://www.w3.org/1999/xlink" width="88.4092" height="88.5371">
 <g>
  <rect height="88.5371" opacity="0" width="88.4092" x="0" y="0"/>
  <path d="M88.4092 14.4019L88.4092 74.2632C88.4092 83.6558 83.5733 88.5371 74.0005 88.5371L14.3936 88.5371C4.86963 88.5371 0 83.7349 0 74.2632L0 14.4019C0 4.93018 4.86963 0.127929 14.3936 0.127929L74.0005 0.127929C83.5733 0.127929 88.4092 5.00928 88.4092 14.4019ZM56.6836 20.3247L56.6836 23.6416C50.9082 24.2192 46.8906 28.0786 46.8906 33.7715C46.8906 39.2251 50.0308 42.4346 54.8501 44.8628L56.6836 45.7871L56.6836 60.0283C53.2041 59.4878 51.3945 57.062 51.2261 53.3384C51.1065 51.9321 50.1616 51.1743 49.0064 51.1743C47.6152 51.1743 46.3301 52.3213 46.6182 54.3374C47.0596 59.8311 50.6729 63.8145 56.6836 64.4224L56.6836 68.0405C56.6836 68.9971 57.4937 69.8071 58.4839 69.8071C59.3916 69.8071 60.2017 68.9971 60.2017 68.0405L60.2017 64.4561C66.1421 63.8447 70.0889 59.9316 70.0889 53.939C70.0889 49.0562 67.5884 45.8687 61.8013 42.7974L60.2017 41.9639L60.2017 28.1704C62.9473 28.876 64.5732 31.3018 64.708 34.6196C64.794 35.9585 65.8062 36.7837 66.9614 36.7837C68.3526 36.7837 69.6377 35.7378 69.3833 33.6206C68.9605 28.4199 65.7647 24.4634 60.2017 23.7056L60.2017 20.3247C60.2017 19.3496 59.3916 18.5396 58.4839 18.5396C57.4937 18.5396 56.6836 19.3496 56.6836 20.3247ZM27.1177 24.1875L16.9434 63.0781C16.3286 65.4058 17.9102 66.5493 19.4058 66.5493C20.5864 66.5493 21.7149 65.916 22.0449 64.439L24.5195 54.0093L36.5674 54.0093L39.0757 64.439C39.3906 65.916 40.4702 66.5493 41.7148 66.5493C43.2593 66.5493 44.6538 65.4058 44.0913 63.0781L34.168 24.1875C33.688 22.3584 32.4063 21.3091 30.7085 21.3091C28.9282 21.3091 27.5977 22.377 27.1177 24.1875ZM60.6948 47.8804C63.3159 49.335 65.1777 51.2022 65.1777 54.2573C65.1777 57.3145 63.3648 59.5181 60.2017 60.0283L60.2017 47.6245ZM35.6445 49.8511L25.4424 49.8511L30.311 29.0361L30.6108 29.0361ZM56.6836 40.0928L56.0054 39.7275C53.9312 38.5371 51.8052 36.9512 51.8052 33.603C51.8052 30.5039 53.7578 28.5156 56.6836 28.0542Z" fill="#000000" fill-opacity="0.85"/>
 </g>
</svg>
