<?xml version="1.0" encoding="UTF-8"?>
<!--Generator: Apple Native CoreSVG 232.5-->
<!DOCTYPE svg
PUBLIC "-//W3C//DTD SVG 1.1//EN"
       "http://www.w3.org/Graphics/SVG/1.1/DTD/svg11.dtd">
<svg version="1.1" xmlns="http://www.w3.org/2000/svg" xmlns:xlink="http://www.w3.org/1999/xlink" width="107.333" height="97.9932">
 <g>
  <rect height="97.9932" opacity="0" width="107.333" x="0" y="0"/>
  <path d="M58.3575 97.9443C85.1612 97.9443 107.33 75.7759 107.33 48.9722C107.33 22.1348 85.1612 0 58.3575 0C31.5201 0 9.38533 22.1011 9.38533 48.9385L15.7032 48.9385C15.7032 25.3164 34.7354 6.35158 58.3575 6.35158C81.9796 6.35158 101.012 25.3501 101.012 48.9722C101.012 72.5942 81.9796 91.6787 58.3575 91.6113C43.5182 91.5928 30.6148 84.0068 22.9474 72.5923C21.8121 71.0444 20.047 70.561 18.4806 71.479C16.9967 72.397 16.5655 74.4165 17.8018 76.0655C26.943 89.0161 41.5392 97.9443 58.3575 97.9443ZM2.84969 40.0024C7.79875e-05 40.0024-0.788009 41.9561 0.828693 44.2666L11.4786 59.4307C12.8326 61.3438 14.7677 61.3101 16.1031 59.4307L26.753 44.2329C28.336 41.9561 27.5479 40.0024 24.7169 40.0024Z" fill="#000000" fill-opacity="0.85"/>
  <path d="M33.9908 70.8023C35.1529 70.8023 36.2662 70.2026 36.5963 68.7441L44.7091 34.0186L45.0089 34.0186L53.3053 68.7441C53.6353 70.2026 54.6661 70.8023 55.877 70.8023C57.3878 70.8023 58.7486 69.6773 58.1676 67.417L48.4312 29.3047C47.985 27.543 46.7369 26.5273 45.0577 26.5273C43.3936 26.5273 42.0479 27.5464 41.6168 29.3047L31.5958 67.417C31.0333 69.6773 32.5289 70.8023 33.9908 70.8023ZM37.1104 58.5015L52.7017 58.5015L52.7017 54.4595L37.1104 54.4595ZM72.2906 68.8438C79.0528 68.8438 83.6412 64.8516 83.6412 58.48C83.6412 53.6982 81.2081 50.4956 75.5221 47.5591L70.9796 45.2188C68.5162 43.9761 65.713 42.2554 65.713 38.5181C65.713 35.0064 68.3072 32.8867 71.9942 32.8867C75.9474 32.8867 78.2266 35.5938 78.38 39.5498C78.481 40.855 79.4596 41.6314 80.5811 41.6314C81.9723 41.6314 83.2052 40.6343 82.9356 38.5845C82.4942 32.9292 78.608 28.7251 71.9942 28.7251C65.5621 28.7251 60.9332 32.6148 60.9332 38.6865C60.9332 44.0391 64.0059 47.23 68.7579 49.5571L73.2296 51.7778C76.2247 53.251 78.8648 55.354 78.8648 58.7832C78.8648 62.2832 76.4591 64.6519 72.2906 64.6519C67.6222 64.6519 65.4034 62.0796 65.1676 57.8643C65.0479 56.4917 64.1031 55.7827 62.9815 55.7827C61.6241 55.7827 60.4249 56.8809 60.6793 58.8296C61.2032 64.7476 65.4093 68.8438 72.2906 68.8438ZM72.2721 73.9927C73.1646 73.9927 73.941 73.2163 73.941 72.2935L73.941 25.5278C73.941 24.6016 73.1646 23.8252 72.2721 23.8252C71.3492 23.8252 70.5577 24.6016 70.5577 25.5278L70.5577 72.2935C70.5577 73.2163 71.3492 73.9927 72.2721 73.9927Z" fill="#000000" fill-opacity="0.85"/>
 </g>
</svg>
