<?xml version="1.0" encoding="UTF-8"?>
<!--Generator: Apple Native CoreSVG 232.5-->
<!DOCTYPE svg
PUBLIC "-//W3C//DTD SVG 1.1//EN"
       "http://www.w3.org/Graphics/SVG/1.1/DTD/svg11.dtd">
<svg version="1.1" xmlns="http://www.w3.org/2000/svg" xmlns:xlink="http://www.w3.org/1999/xlink" width="88.4092" height="88.5371">
 <g>
  <rect height="88.5371" opacity="0" width="88.4092" x="0" y="0"/>
  <path d="M88.4092 14.4019L88.4092 74.2632C88.4092 83.6558 83.5733 88.5371 74.0005 88.5371L14.3936 88.5371C4.86963 88.5371 0 83.7349 0 74.2632L0 14.4019C0 4.93018 4.86963 0.127929 14.3936 0.127929L74.0005 0.127929C83.5733 0.127929 88.4092 5.00928 88.4092 14.4019ZM41.1333 23.498L34.417 43.2554L27.2222 43.2554C25.9355 43.2554 25.1592 44.148 25.1592 45.3218C25.1592 46.4956 25.9355 47.3882 27.2222 47.3882L33.0142 47.3882L31.477 51.8482L27.2222 51.8482C25.9355 51.8482 25.1592 52.7744 25.1592 53.9483C25.1592 55.1221 25.9355 55.981 27.2222 55.981L30.123 55.981L27.2427 64.3379C27.0254 64.9375 26.9766 65.335 26.9766 65.6836C26.9766 67.105 28.0713 68.0718 29.5855 68.0718C30.8149 68.0718 31.6807 67.457 32.0933 66.1265L35.4688 55.981L53.001 55.981L56.3765 66.1602C56.7891 67.4907 57.5874 68.0718 58.8691 68.0718C60.3984 68.0718 61.4932 67.105 61.4932 65.6836C61.4932 65.335 61.3921 64.9375 61.1934 64.3379L58.313 55.981L61.2022 55.981C62.4736 55.981 63.2652 55.1221 63.2652 53.9483C63.2652 52.7744 62.4736 51.8482 61.2022 51.8482L56.9439 51.8482L55.4219 47.3882L61.2022 47.3882C62.4736 47.3882 63.2652 46.4956 63.2652 45.3218C63.2652 44.148 62.4736 43.2554 61.2022 43.2554L54.0039 43.2554L47.2539 23.498C46.7554 22.0547 45.7769 21.189 44.2105 21.189C42.6104 21.189 41.647 22.021 41.1333 23.498ZM51.6992 51.8482L36.7554 51.8482L38.2251 47.3882L50.2109 47.3882ZM48.894 43.2554L39.542 43.2554L44.2105 29.0371Z" fill="#000000" fill-opacity="0.85"/>
 </g>
</svg>
