<?xml version="1.0" encoding="UTF-8"?>
<!--Generator: Apple Native CoreSVG 232.5-->
<!DOCTYPE svg
PUBLIC "-//W3C//DTD SVG 1.1//EN"
       "http://www.w3.org/Graphics/SVG/1.1/DTD/svg11.dtd">
<svg version="1.1" xmlns="http://www.w3.org/2000/svg" xmlns:xlink="http://www.w3.org/1999/xlink" width="134.851" height="105.017">
 <g>
  <rect height="105.017" opacity="0" width="134.851" x="0" y="0"/>
  <path d="M3.52686 95.6318C5.25831 95.6318 6.27736 94.8149 6.95607 92.8579L16.1231 67.9121L52.6738 67.9121L61.8071 92.8579C62.5532 94.7998 63.52 95.6318 65.3643 95.6318C67.3955 95.6318 68.8911 94.335 68.8911 92.4722C68.8911 91.9097 68.8086 91.3437 68.396 90.3198L38.7617 12.0147C37.96 9.77784 36.5737 8.71338 34.5054 8.71338C32.2046 8.71338 30.8032 9.81153 29.9863 12.0483L0.44629 90.3989C0.0825197 91.3437 0 91.9551 0 92.521C0 94.335 1.41651 95.6318 3.52686 95.6318ZM18.3125 61.8438L34.2915 18.3184L34.603 18.3184L50.4844 61.8438ZM105.619 104.986C107.078 104.986 108.09 103.956 108.09 102.479L108.09 93.7793C123.332 93.0483 134.851 84.6065 134.851 71.1528C134.851 59.3359 126.77 52.8906 111.182 49.2436L108.09 48.5552L108.09 16.6597C117.829 17.3535 124.752 22.7759 126.684 30.9009C127.22 32.7686 128.303 33.8667 130.181 33.8667C132.077 33.8667 133.411 32.6338 133.411 30.707C133.411 29.919 133.295 29.2437 133.13 28.4404C130.724 18.2505 120.728 11.2295 108.09 10.4683L108.09 2.52295C108.09 1.06104 107.078 0 105.619 0C104.191 0 103.179 1.06104 103.179 2.52295L103.179 10.502C88.9966 11.3828 78.1841 20.0068 78.1841 32.3355C78.1841 43.3862 85.8872 50.4297 101.042 53.5527L103.179 54.0156L103.179 87.6216C91.8081 86.894 84.6724 80.7358 82.9649 72.2681C82.377 70.3076 81.2115 69.3291 79.5322 69.3291C77.6543 69.3291 76.3203 70.6934 76.3203 72.5899C76.3203 73.3442 76.4365 74.1289 76.6167 74.9473C79.1055 85.999 89.8408 93.0181 103.179 93.7607L103.179 102.479C103.179 103.956 104.191 104.986 105.619 104.986ZM103.179 47.3257L101.842 47.0093C90.1616 44.1221 84.96 39.2427 84.96 31.98C84.96 24.0088 92.3096 17.522 103.179 16.6782ZM108.09 55.1963L110.027 55.6035C123.381 58.7217 128.105 63.6714 128.105 71.6582C128.105 80.3721 121.089 87.0102 108.09 87.6367Z" fill="#000000" fill-opacity="0.85"/>
 </g>
</svg>
