<?xml version="1.0" encoding="UTF-8"?>
<!--Generator: Apple Native CoreSVG 232.5-->
<!DOCTYPE svg
PUBLIC "-//W3C//DTD SVG 1.1//EN"
       "http://www.w3.org/Graphics/SVG/1.1/DTD/svg11.dtd">
<svg version="1.1" xmlns="http://www.w3.org/2000/svg" xmlns:xlink="http://www.w3.org/1999/xlink" width="135.434" height="93.293">
 <g>
  <rect height="93.293" opacity="0" width="135.434" x="0" y="0"/>
  <path d="M46.7632 74.9488C47.0766 76.0326 47.4273 77.0632 47.8288 78.0224L11.7276 87.6329C9.47071 88.2627 7.93116 86.9507 7.93116 85.0103C7.93116 83.5567 8.81886 82.4063 10.3853 81.9903L46.1206 72.4719ZM44.2076 62.0766L11.7276 70.6856C9.43702 71.3003 7.93116 70.0035 7.93116 68.063C7.93116 66.6431 8.81886 65.459 10.3853 65.043L43.6463 56.1837C43.7685 58.1645 43.9521 60.1273 44.2076 62.0766ZM43.3462 45.2855L11.7276 53.7417C9.5044 54.3379 7.93116 53.0259 7.93116 51.1192C7.93116 49.6656 8.81886 48.5152 10.3853 48.0655L43.5082 39.2289C43.4062 41.2298 43.3528 43.2462 43.3462 45.2855ZM44.6488 27.9925L11.7276 36.7945C9.45216 37.3755 7.93116 36.0786 7.93116 34.1719C7.93116 32.7183 8.81886 31.5679 10.3853 31.1519L45.8701 21.688C45.3772 23.7827 44.9703 25.8823 44.6488 27.9925Z" fill="#000000" fill-opacity="0.85"/>
  <path d="M51.315 46.6221C51.315 55.9229 52.0103 64.3892 54.4165 72.753C57.0738 81.8662 62.6216 85.2793 73.2203 85.2793L75.6251 85.2793C102.494 85.2793 127.503 67.4409 127.503 46.6221C127.503 25.8218 102.494 7.96485 75.6251 7.96485L73.2203 7.96485C62.6553 7.96485 57.1075 11.3779 54.4165 20.4912C52.0103 28.8887 51.315 37.355 51.315 46.6221ZM57.3365 46.6221C57.3365 36.7114 58.1329 29.377 60.1719 22.1284C61.9415 16.2373 65.8624 13.9712 73.2203 13.9712L75.6251 13.9712C98.9605 13.9712 121.481 29.209 121.481 46.6221C121.481 64.02 98.9605 79.2578 75.6251 79.2578L73.2203 79.2578C65.5948 79.2578 61.896 76.9009 60.1719 71.1343C58.1329 63.8184 57.3365 56.5664 57.3365 46.6221Z" fill="#000000" fill-opacity="0.85"/>
  <path d="M71.2808 64.6753C72.5743 64.6753 73.4249 64.0606 73.9874 62.4487L77.6187 52.2749L93.8072 52.2749L97.4048 62.4487C97.9673 64.0606 98.8179 64.6753 100.157 64.6753C101.671 64.6753 102.732 63.7119 102.732 62.2652C102.732 61.6875 102.616 61.2495 102.383 60.4697L89.5303 26.2256C88.8668 24.4302 87.5176 23.5308 85.67 23.5308C83.8072 23.5308 82.5591 24.4302 81.8619 26.2256L69.0425 60.4697C68.7427 61.2495 68.6602 61.6875 68.6602 62.25C68.6602 63.7271 69.6573 64.6753 71.2808 64.6753ZM79.0889 47.9063L85.5689 29.8579L85.857 29.8579L92.3033 47.9063Z" fill="#000000" fill-opacity="0.85"/>
 </g>
</svg>
