<?xml version="1.0" encoding="UTF-8"?>
<!--Generator: Apple Native CoreSVG 232.5-->
<!DOCTYPE svg
PUBLIC "-//W3C//DTD SVG 1.1//EN"
       "http://www.w3.org/Graphics/SVG/1.1/DTD/svg11.dtd">
<svg version="1.1" xmlns="http://www.w3.org/2000/svg" xmlns:xlink="http://www.w3.org/1999/xlink" width="97.9595" height="100.858">
 <g>
  <rect height="100.858" opacity="0" width="97.9595" x="0" y="0"/>
  <path d="M0 50.4044C0 67.2227 8.92822 81.8189 21.8789 90.96C23.5278 92.1964 25.5474 91.7652 26.4653 90.2476C27.3833 88.7149 26.8999 86.9161 25.3672 85.8145C13.9375 78.147 6.36671 65.2437 6.33302 50.4044C6.26564 26.7823 25.3501 7.75009 48.9722 7.75009C72.5942 7.75009 91.6938 26.7823 91.6265 50.4044C91.5928 65.2437 84.0068 78.147 72.5923 85.8145C71.0596 86.9161 70.5762 88.7149 71.479 90.2476C72.397 91.7652 74.4317 92.1964 76.0806 90.96C89.0161 81.8189 97.9595 67.2227 97.9595 50.4044C97.9595 23.567 75.8247 1.4322 48.9722 1.4322C22.1685 1.4322 0 23.567 0 50.4044ZM86.1914 93.8145L71.1704 78.004C69.1831 75.9493 67.1875 76.8873 66.6587 79.4708L62.8955 97.4215C62.4341 99.7774 63.7578 101.15 66.1509 100.805L84.4282 98.2437C87.2676 97.8311 88.1299 95.9181 86.1914 93.8145Z" fill="#000000" fill-opacity="0.85"/>
  <path d="M32.938 70.4239C34.3325 70.4239 35.2842 69.7569 35.8652 67.9801L39.9141 56.6109L58 56.6109L62.0488 67.9801C62.6299 69.7266 63.5479 70.4239 65.0215 70.4239C66.6704 70.4239 67.8325 69.3106 67.8325 67.8116C67.8325 67.1817 67.6675 66.6949 67.4014 65.8629L53.1206 27.7716C52.4048 25.8077 50.9883 24.8072 48.9385 24.8072C46.8921 24.8072 45.5093 25.8077 44.7598 27.7716L30.5127 65.8629C30.2129 66.6949 30.0815 67.1817 30.0815 67.7628C30.0815 69.3595 31.1948 70.4239 32.938 70.4239ZM41.5191 51.9019L48.7246 31.6886L49.1558 31.6886L56.3613 51.9019Z" fill="#000000" fill-opacity="0.85"/>
 </g>
</svg>
