<?xml version="1.0" encoding="UTF-8"?>
<!--Generator: Apple Native CoreSVG 232.5-->
<!DOCTYPE svg
PUBLIC "-//W3C//DTD SVG 1.1//EN"
       "http://www.w3.org/Graphics/SVG/1.1/DTD/svg11.dtd">
<svg version="1.1" xmlns="http://www.w3.org/2000/svg" xmlns:xlink="http://www.w3.org/1999/xlink" width="84.2851" height="102.202">
 <g>
  <rect height="102.202" opacity="0" width="84.2851" x="0" y="0"/>
  <path d="M3.9714 30.4211L8.16329 31.9514C11.6086 33.2312 14.6736 31.7004 15.9382 28.1726L22.6111 9.8513C23.906 6.29319 22.5217 3.24338 19.0915 1.9636L14.8996 0.448463C11.4543-0.831324 8.45333 0.684303 7.12472 4.2761L0.500693 22.5486C-0.827922 26.0915 0.541221 29.1565 3.9714 30.4211ZM65.1448 30.4211L69.3855 31.9514C72.8308 33.2312 75.8469 31.7004 77.1267 28.1726L83.7844 9.8513C85.113 6.29319 83.6951 3.24338 80.2986 1.9636L76.073 0.448463C72.6428-0.831324 69.6907 0.684303 68.362 4.2761L61.6892 22.5637C60.4245 26.0915 61.7786 29.2053 65.1448 30.4211ZM9.29074 101.865L13.7722 101.865C17.4314 101.865 19.757 99.426 19.757 95.6692L19.757 76.2063C19.757 72.4158 17.4314 69.9773 13.7722 69.9773L9.29074 69.9773C5.68038 69.9773 3.33956 72.4158 3.33956 76.2063L3.33956 95.6692C3.33956 99.426 5.68038 101.865 9.29074 101.865ZM70.4641 101.865L74.9607 101.865C78.6047 101.865 80.9456 99.426 80.9456 95.6692L80.9456 76.2063C80.9456 72.4158 78.6047 69.9773 74.9607 69.9773L70.4641 69.9773C66.8689 69.9773 64.5432 72.4158 64.5432 76.2063L64.5432 95.6692C64.5432 99.426 66.8689 101.865 70.4641 101.865ZM16.8532 19.2224L67.5413 19.2224L67.5413 13.1775L16.8532 13.1775ZM39.0359 13.1775L39.0359 38.8469C39.4367 39.113 39.7702 39.3791 40.1374 39.7126L41.9817 41.5232L44.0803 39.3908C44.3801 39.0573 44.7473 38.7912 45.0808 38.5588L45.0808 13.1775ZM39.0359 88.9753L45.0808 88.9753L45.0808 63.3059C44.7136 63.0398 44.3313 62.7097 43.9641 62.4099L42.1687 60.6296L40.0852 62.7317C39.7854 63.0315 39.403 63.3616 39.0359 63.594ZM16.8532 88.9753L67.5413 88.9753L67.5413 82.9304L16.8532 82.9304Z" fill="#000000" fill-opacity="0.85"/>
  <path d="M32.4372 60.7068C33.3786 61.6179 34.7917 61.7561 35.7551 60.8079L42.1687 54.4431L48.3396 60.5955C49.2507 61.4729 50.6604 61.4392 51.6018 60.5955C52.4792 59.7517 52.4792 58.2444 51.6018 57.3635L45.3855 51.1775L51.7839 44.8279C52.7624 43.8796 52.594 42.4211 51.6828 41.446C50.7229 40.4709 49.2795 40.3664 48.3161 41.3449L41.9817 47.7097L35.7317 41.5271C34.8508 40.6648 33.4109 40.6496 32.4997 41.5271C31.592 42.4011 31.6223 43.8293 32.4997 44.7405L38.716 50.9753L32.3513 57.3401C31.3728 58.3186 31.4773 59.7468 32.4372 60.7068Z" fill="#000000" fill-opacity="0.85"/>
 </g>
</svg>
