<?xml version="1.0" encoding="UTF-8"?>
<!--Generator: Apple Native CoreSVG 232.5-->
<!DOCTYPE svg
PUBLIC "-//W3C//DTD SVG 1.1//EN"
       "http://www.w3.org/Graphics/SVG/1.1/DTD/svg11.dtd">
<svg version="1.1" xmlns="http://www.w3.org/2000/svg" xmlns:xlink="http://www.w3.org/1999/xlink" width="84.2851" height="102.202">
 <g>
  <rect height="102.202" opacity="0" width="84.2851" x="0" y="0"/>
  <path d="M3.9714 30.4211L8.16329 31.9514C11.6086 33.2312 14.6736 31.7004 15.9382 28.1726L22.6111 9.8513C23.906 6.29319 22.5217 3.24338 19.0915 1.9636L14.8996 0.448463C11.4543-0.831324 8.45333 0.684303 7.12472 4.2761L0.500693 22.5486C-0.827922 26.0915 0.541221 29.1565 3.9714 30.4211ZM65.1448 30.4211L69.3855 31.9514C72.8308 33.2312 75.8469 31.7004 77.1267 28.1726L83.7844 9.8513C85.113 6.29319 83.6951 3.24338 80.2986 1.9636L76.073 0.448463C72.6428-0.831324 69.6907 0.684303 68.362 4.2761L61.6892 22.5637C60.4245 26.0915 61.7786 29.2053 65.1448 30.4211ZM9.29074 101.865L13.7722 101.865C17.4314 101.865 19.757 99.426 19.757 95.6692L19.757 76.2063C19.757 72.4158 17.4314 69.9773 13.7722 69.9773L9.29074 69.9773C5.68038 69.9773 3.33956 72.4158 3.33956 76.2063L3.33956 95.6692C3.33956 99.426 5.68038 101.865 9.29074 101.865ZM70.4641 101.865L74.9607 101.865C78.6047 101.865 80.9456 99.426 80.9456 95.6692L80.9456 76.2063C80.9456 72.4158 78.6047 69.9773 74.9607 69.9773L70.4641 69.9773C66.8689 69.9773 64.5432 72.4158 64.5432 76.2063L64.5432 95.6692C64.5432 99.426 66.8689 101.865 70.4641 101.865ZM16.8532 19.2224L29.55 19.2224C29.7673 18.904 30.0671 18.5369 30.3181 18.2673L32.5295 16.1233L30.6096 14.1848C30.3401 13.9001 30.0554 13.5144 29.8718 13.1775L16.8532 13.1775ZM67.5413 19.2224L67.5413 13.1775L54.5701 13.1775C54.3528 13.4958 54.053 13.8479 53.7834 14.1325L51.6057 16.3103L53.4617 18.1999C53.7649 18.5032 54.0647 18.8704 54.2483 19.2224ZM39.1032 88.9753L45.1482 88.9753L45.1482 28.469C44.781 28.2366 44.3952 27.9856 44.0432 27.6184L42.1687 25.7624L40.0549 27.9402C39.74 28.2737 39.4704 28.491 39.1032 28.6897ZM16.8532 88.9753L67.5413 88.9753L67.5413 82.9304L16.8532 82.9304Z" fill="#000000" fill-opacity="0.85"/>
  <path d="M32.2639 25.9792C33.2087 26.8904 34.6823 27.0437 35.6306 26.0803L42.1687 19.5422L48.2302 25.5852C49.1111 26.4963 50.5359 26.4929 51.4621 25.5852C52.3396 24.696 52.3396 23.219 51.4621 22.323L45.3855 16.3103L51.9236 9.80247C52.9021 8.83909 52.7336 7.38059 51.8225 6.43577C50.8625 5.52463 49.4192 5.35617 48.4407 6.33469L41.9817 12.8425L35.8562 6.81467C34.9602 5.95237 33.5656 5.92209 32.6731 6.81467C31.7317 7.67356 31.7956 9.10179 32.6731 10.0129L38.716 16.1233L32.1779 22.6125C31.1994 23.5911 31.3376 25.0193 32.2639 25.9792Z" fill="#000000" fill-opacity="0.85"/>
 </g>
</svg>
