<?xml version="1.0" encoding="UTF-8"?>
<!--Generator: Apple Native CoreSVG 232.5-->
<!DOCTYPE svg
PUBLIC "-//W3C//DTD SVG 1.1//EN"
       "http://www.w3.org/Graphics/SVG/1.1/DTD/svg11.dtd">
<svg version="1.1" xmlns="http://www.w3.org/2000/svg" xmlns:xlink="http://www.w3.org/1999/xlink" width="84.2851" height="102.202">
 <g>
  <rect height="102.202" opacity="0" width="84.2851" x="0" y="0"/>
  <path d="M19.757 76.2063L19.757 82.9304L30.8117 82.9304C30.5439 83.8911 30.4084 84.9089 30.4084 85.9621C30.4084 87.0092 30.5411 88.0206 30.8039 88.9753L19.757 88.9753L19.757 95.6692C19.757 99.426 17.4314 101.865 13.7722 101.865L9.29074 101.865C5.68038 101.865 3.33956 99.426 3.33956 95.6692L3.33956 76.2063C3.33956 72.4158 5.68038 69.9773 9.29074 69.9773L13.7722 69.9773C17.4314 69.9773 19.757 72.4158 19.757 76.2063ZM80.9456 76.2063L80.9456 95.6692C80.9456 99.426 78.6047 101.865 74.9607 101.865L70.4641 101.865C66.8689 101.865 64.5432 99.426 64.5432 95.6692L64.5432 88.9753L53.3882 88.9753C53.648 88.0206 53.779 87.0092 53.779 85.9621C53.779 84.9089 53.6452 83.8911 53.3805 82.9304L64.5432 82.9304L64.5432 76.2063C64.5432 72.4158 66.8689 69.9773 70.4641 69.9773L74.9607 69.9773C78.6047 69.9773 80.9456 72.4158 80.9456 76.2063ZM42.135 27.9172C43.1823 27.9172 44.1938 27.7831 45.1482 27.5177L45.1482 74.6782C44.1938 74.4143 43.1823 74.281 42.135 74.281C41.0823 74.281 40.0645 74.4149 39.1032 74.6799L39.1032 27.516C40.0645 27.7825 41.0823 27.9172 42.135 27.9172ZM14.8996 0.448463L19.0915 1.9636C22.5217 3.24338 23.906 6.29319 22.6111 9.8513L21.3996 13.1775L30.805 13.1775C30.5415 14.1278 30.4084 15.1342 30.4084 16.1755C30.4084 17.2339 30.5439 18.2568 30.8118 19.2224L19.198 19.2224L15.9382 28.1726C14.6736 31.7004 11.6086 33.2312 8.16329 31.9514L3.9714 30.4211C0.541221 29.1565-0.827922 26.0915 0.500693 22.5486L7.12472 4.2761C8.45333 0.684303 11.4543-0.831324 14.8996 0.448463ZM76.073 0.448463L80.2986 1.9636C83.6951 3.24338 85.113 6.29319 83.7844 9.8513L77.1267 28.1726C75.8469 31.7004 72.8308 33.2312 69.3855 31.9514L65.1448 30.4211C61.7786 29.2053 60.4245 26.0915 61.6892 22.5637L62.9084 19.2224L53.3803 19.2224C53.6452 18.2568 53.779 17.2339 53.779 16.1755C53.779 15.1342 53.6476 14.1278 53.3871 13.1775L65.1141 13.1775L68.362 4.2761C69.6907 0.684303 72.6428-0.831324 76.073 0.448463Z" fill="#000000" fill-opacity="0.85"/>
  <path d="M42.135 27.9172C48.6516 27.9172 53.779 22.7258 53.779 16.1755C53.779 9.67063 48.6516 4.52805 42.135 4.52805C35.5998 4.52805 30.4084 9.67063 30.4084 16.1755C30.4084 22.7258 35.5998 27.9172 42.135 27.9172ZM42.135 22.8039C38.4226 22.8039 35.488 19.9031 35.488 16.1755C35.488 12.5119 38.4226 9.59252 42.135 9.59252C45.8288 9.59252 48.7146 12.5119 48.7146 16.1755C48.7146 19.9031 45.8288 22.8039 42.135 22.8039ZM42.135 97.6702C48.6516 97.6702 53.779 92.5124 53.779 85.9621C53.779 79.4421 48.6516 74.281 42.135 74.281C35.5998 74.281 30.4084 79.4421 30.4084 85.9621C30.4084 92.5124 35.5998 97.6702 42.135 97.6702ZM42.135 92.5906C38.4226 92.5906 35.488 89.656 35.488 85.9621C35.488 82.2649 38.4226 79.3791 42.135 79.3791C45.8288 79.3791 48.7146 82.2649 48.7146 85.9621C48.7146 89.656 45.8288 92.5906 42.135 92.5906Z" fill="#000000" fill-opacity="0.85"/>
 </g>
</svg>
