<?xml version="1.0" encoding="UTF-8"?>
<!--Generator: Apple Native CoreSVG 232.5-->
<!DOCTYPE svg
PUBLIC "-//W3C//DTD SVG 1.1//EN"
       "http://www.w3.org/Graphics/SVG/1.1/DTD/svg11.dtd">
<svg version="1.1" xmlns="http://www.w3.org/2000/svg" xmlns:xlink="http://www.w3.org/1999/xlink" width="97.9595" height="97.9932">
 <g>
  <rect height="97.9932" opacity="0" width="97.9595" x="0" y="0"/>
  <path d="M97.9595 48.9722C97.9595 75.7759 75.8247 97.9443 48.9722 97.9443C22.1685 97.9443 0 75.7759 0 48.9722C0 22.1348 22.1348 0 48.9385 0C75.791 0 97.9595 22.1348 97.9595 48.9722ZM36.6123 26.0762C34.4766 26.0762 33.1914 27.3579 33.1914 29.5576L33.1914 67.8408C33.1914 69.9731 34.4766 71.3037 36.6123 71.3037L51.2188 71.3037C61.2105 71.3037 67.5703 66.4561 67.5703 58.6821C67.5703 52.6357 63.5562 48.3843 57.1543 47.5542L57.1543 47.3066C61.832 46.1768 64.8628 42.1948 64.8628 37.2261C64.8628 30.5347 59.3687 26.0762 51.1953 26.0762ZM61.2661 58.5068C61.2661 63.9146 57.1968 66.5122 48.6621 66.5122L39.2666 66.5122L39.2666 50.2993L51.1255 50.2993C57.4897 50.2993 61.2661 53.3399 61.2661 58.5068ZM58.8096 38.2383C58.8096 42.8296 54.8447 45.7773 48.3184 45.7773L39.2666 45.7773L39.2666 30.8526L49.9775 30.8526C55.5552 30.8526 58.8096 33.6035 58.8096 38.2383Z" fill="#000000" fill-opacity="0.85"/>
 </g>
</svg>
