<?xml version="1.0" encoding="UTF-8"?>
<!--Generator: Apple Native CoreSVG 232.5-->
<!DOCTYPE svg
PUBLIC "-//W3C//DTD SVG 1.1//EN"
       "http://www.w3.org/Graphics/SVG/1.1/DTD/svg11.dtd">
<svg version="1.1" xmlns="http://www.w3.org/2000/svg" xmlns:xlink="http://www.w3.org/1999/xlink" width="88.4092" height="88.5371">
 <g>
  <rect height="88.5371" opacity="0" width="88.4092" x="0" y="0"/>
  <path d="M14.3936 88.5371L74.0005 88.5371C83.5733 88.5371 88.4092 83.6558 88.4092 74.2632L88.4092 14.4019C88.4092 5.00928 83.5733 0.127929 74.0005 0.127929L14.3936 0.127929C4.86963 0.127929 0 4.93018 0 14.4019L0 74.2632C0 83.7349 4.86963 88.5371 14.3936 88.5371ZM14.5064 82.4922C9.00294 82.4922 6.04494 79.6016 6.04494 73.9634L6.04494 14.7017C6.04494 9.06349 9.00294 6.17287 14.5064 6.17287L73.9028 6.17287C79.2969 6.17287 82.3643 9.06349 82.3643 14.7017L82.3643 73.9634C82.3643 79.6016 79.2969 82.4922 73.9028 82.4922Z" fill="#000000" fill-opacity="0.85"/>
  <path d="M32.0899 66.1191L46.3931 66.1191C56.1978 66.1191 62.4043 61.3726 62.4043 53.7671C62.4043 47.8403 58.4912 43.6563 52.209 42.8599L52.209 42.5972C56.8008 41.5161 59.7642 37.6016 59.7642 32.7188C59.7642 26.1958 54.4048 21.7896 46.3848 21.7896L32.0899 21.7896C30.04 21.7896 28.8374 23.0527 28.8374 25.1851L28.8374 62.7573C28.8374 64.8223 30.04 66.1191 32.0899 66.1191ZM34.6919 41.1167L34.6919 26.4463L45.2007 26.4463C50.6772 26.4463 53.898 29.1787 53.898 33.6973C53.898 38.2363 50.0005 41.1167 43.5938 41.1167ZM34.6919 61.4624L34.6919 45.5039L46.3335 45.5039C52.5781 45.5039 56.2871 48.5259 56.2871 53.5767C56.2871 58.8984 52.2852 61.4624 43.9375 61.4624Z" fill="#000000" fill-opacity="0.85"/>
 </g>
</svg>
