<?xml version="1.0" encoding="UTF-8"?>
<!--Generator: Apple Native CoreSVG 232.5-->
<!DOCTYPE svg
PUBLIC "-//W3C//DTD SVG 1.1//EN"
       "http://www.w3.org/Graphics/SVG/1.1/DTD/svg11.dtd">
<svg version="1.1" xmlns="http://www.w3.org/2000/svg" xmlns:xlink="http://www.w3.org/1999/xlink" width="87.669" height="77.7852">
 <g>
  <rect height="77.7852" opacity="0" width="87.669" x="0" y="0"/>
  <path d="M5.76758 77.7549L16.5977 77.7549C20.4522 77.7549 22.3652 75.8569 22.3652 71.9536L22.3652 5.76758C22.3652 1.77832 20.4522 0 16.5977 0L5.76758 0C1.91309 0 0 1.91309 0 5.76758L0 71.9536C0 75.8569 1.91309 77.7549 5.76758 77.7549ZM81.4097 76.1538C84.7676 76.1538 87.669 73.6665 87.669 68.6973L87.669 9.0088C87.669 4.05469 84.7676 1.51855 81.4097 1.51855C79.6499 1.51855 78.0991 2.16846 76.3999 3.15869L26.2202 32.6826C23.4043 34.355 22.1211 36.3389 22.1211 38.8379C22.1211 41.3184 23.4194 43.3814 26.2202 45.0235L76.3999 74.5137C78.0689 75.5039 79.6499 76.1538 81.4097 76.1538Z" fill="#000000" fill-opacity="0.85"/>
 </g>
</svg>
