<?xml version="1.0" encoding="UTF-8"?>
<!--Generator: Apple Native CoreSVG 232.5-->
<!DOCTYPE svg
PUBLIC "-//W3C//DTD SVG 1.1//EN"
       "http://www.w3.org/Graphics/SVG/1.1/DTD/svg11.dtd">
<svg version="1.1" xmlns="http://www.w3.org/2000/svg" xmlns:xlink="http://www.w3.org/1999/xlink" width="136.959" height="78.5938">
 <g>
  <rect height="78.5938" opacity="0" width="136.959" x="0" y="0"/>
  <path d="M3.16651 78.5938C4.95021 78.5938 6.36671 77.2446 6.36671 75.4946L6.36671 3.18165C6.36671 1.43164 4.95021 0.0488281 3.16651 0.0488281C1.41651 0.0488281 0 1.43164 0 3.18165L0 75.4946C0 77.2446 1.41651 78.5938 3.16651 78.5938ZM65.4112 76.6558C68.7691 76.6558 71.6704 74.1196 71.6704 69.1504L71.6704 9.47706C71.6704 4.50782 68.7691 1.97168 65.4112 1.97168C63.6514 1.97168 62.1006 2.62158 60.3862 3.61182L10.2217 33.1357C7.40578 34.8081 6.12257 36.8257 6.12257 39.3062C6.12257 41.7715 7.42092 43.8345 10.2217 45.4766L60.3862 75.0156C62.0703 75.9907 63.6514 76.6558 65.4112 76.6558ZM63.9776 69.8325C63.5449 69.8325 63.0484 69.7012 62.3784 69.2871L14.5537 40.9912C13.7188 40.5249 13.2525 40.062 13.2525 39.3062C13.2525 38.5166 13.67 38.1328 14.5537 37.6362L62.3784 9.34035C63.0786 8.92629 63.5449 8.79494 63.9776 8.79494C64.7671 8.79494 65.7046 9.37404 65.7046 10.8198L65.7046 67.8076C65.7046 69.2534 64.7671 69.8325 63.9776 69.8325ZM130.715 76.6558C134.073 76.6558 136.959 74.1196 136.959 69.1504L136.959 9.47706C136.959 4.50782 134.073 1.97168 130.715 1.97168C128.94 1.97168 127.389 2.62158 125.69 3.61182L75.5254 33.1357C72.7095 34.8081 71.4112 36.8257 71.4112 39.3062C71.4112 41.7715 72.7246 43.8345 75.5254 45.4766L125.69 75.0156C127.374 75.9907 128.94 76.6558 130.715 76.6558ZM129.281 69.8325C128.849 69.8325 128.352 69.7012 127.667 69.2871L79.8575 40.9912C79.0225 40.5249 78.5562 40.062 78.5562 39.3062C78.5562 38.5166 78.9737 38.1328 79.8575 37.6362L127.667 9.34035C128.382 8.92629 128.849 8.79494 129.281 8.79494C130.071 8.79494 131.008 9.37404 131.008 10.8198L131.008 67.8076C131.008 69.2534 130.071 69.8325 129.281 69.8325Z" fill="#000000" fill-opacity="0.85"/>
 </g>
</svg>
