<?xml version="1.0" encoding="UTF-8"?>
<!--Generator: Apple Native CoreSVG 232.5-->
<!DOCTYPE svg
PUBLIC "-//W3C//DTD SVG 1.1//EN"
       "http://www.w3.org/Graphics/SVG/1.1/DTD/svg11.dtd">
<svg version="1.1" xmlns="http://www.w3.org/2000/svg" xmlns:xlink="http://www.w3.org/1999/xlink" width="97.9595" height="97.9932">
 <g>
  <rect height="97.9932" opacity="0" width="97.9595" x="0" y="0"/>
  <path d="M48.9722 97.9443C75.8247 97.9443 97.9595 75.7759 97.9595 48.9722C97.9595 22.1348 75.791 0 48.9385 0C22.1348 0 0 22.1348 0 48.9722C0 75.7759 22.1685 97.9443 48.9722 97.9443ZM48.9722 91.6113C25.3501 91.6113 6.36671 72.5942 6.36671 48.9722C6.36671 25.3501 25.3164 6.31789 48.9385 6.31789C72.5605 6.31789 91.6265 25.3501 91.6265 48.9722C91.6265 72.5942 72.5942 91.6113 48.9722 91.6113Z" fill="#000000" fill-opacity="0.85"/>
  <path d="M41.0942 78.8413L56.7979 78.8413C65.4522 78.8413 69.6548 74.5107 69.606 65.7402C69.4595 55.4126 69.4106 47.9253 69.1665 42.3726C68.4526 26.0693 64.0059 21.4458 48.9385 21.4458C33.8862 21.4458 29.4732 26.0693 28.7256 42.3726C28.4815 47.9253 28.4326 55.4126 28.2861 65.7402C28.2373 74.5107 32.44 78.8413 41.0942 78.8413ZM40.7017 68.751C38.523 68.751 37.1255 67.3384 37.1255 65.1934L37.1255 52.5518C37.1255 50.4067 38.523 48.9605 40.7017 48.9605L57.2241 48.9605C59.4028 48.9605 60.7666 50.4067 60.7666 52.5518L60.7666 65.1934C60.7666 67.3384 59.4028 68.751 57.2241 68.751ZM37.1255 58.7564L60.7666 58.7564L60.7666 55.8618L37.1255 55.8618ZM48.9385 15.7192C44.4258 15.7192 41.208 18.9185 41.208 23.2256L44.4766 23.2256C44.4766 20.7456 46.3389 18.9878 48.9385 18.9878C51.5381 18.9878 53.4155 20.7456 53.4155 23.2256L56.6201 23.2256C56.6201 18.9185 53.436 15.7192 48.9385 15.7192Z" fill="#000000" fill-opacity="0.85"/>
 </g>
</svg>
