<?xml version="1.0" encoding="UTF-8"?>
<!--Generator: Apple Native CoreSVG 232.5-->
<!DOCTYPE svg
PUBLIC "-//W3C//DTD SVG 1.1//EN"
       "http://www.w3.org/Graphics/SVG/1.1/DTD/svg11.dtd">
<svg version="1.1" xmlns="http://www.w3.org/2000/svg" xmlns:xlink="http://www.w3.org/1999/xlink" width="97.9595" height="97.9932">
 <g>
  <rect height="97.9932" opacity="0" width="97.9595" x="0" y="0"/>
  <path d="M97.9595 48.9722C97.9595 75.7759 75.8247 97.9443 48.9722 97.9443C22.1685 97.9443 0 75.7759 0 48.9722C0 22.1348 22.1348 0 48.9385 0C75.791 0 97.9595 22.1348 97.9595 48.9722ZM71.8486 31.5034L47.1323 46.0537C46.3223 46.5488 45.7481 47.1231 45.4331 47.7949L45.4331 34.356C45.4331 31.916 44.0254 30.749 42.3818 30.749C41.4961 30.749 40.7485 30.9932 39.9233 31.5034L15.2222 46.0537C13.8496 46.8486 13.1777 47.854 13.1777 49.0513C13.1777 50.2822 13.8496 51.2876 15.2222 52.0825L39.9233 66.6328C40.7485 67.1431 41.4961 67.3872 42.3818 67.3872C44.0254 67.3872 45.4331 66.2202 45.4331 63.7803L45.4331 50.3565C45.7481 51.0283 46.3223 51.5874 47.1323 52.0825L71.8486 66.6328C72.689 67.1431 73.4854 67.3872 74.3408 67.3872C75.9356 67.3872 77.4072 66.2202 77.4072 63.7803L77.4072 34.356C77.4072 31.916 75.9356 30.749 74.3408 30.749C73.4854 30.749 72.689 30.9932 71.8486 31.5034Z" fill="#000000" fill-opacity="0.85"/>
 </g>
</svg>
