<?xml version="1.0" encoding="UTF-8"?>
<!--Generator: Apple Native CoreSVG 232.5-->
<!DOCTYPE svg
PUBLIC "-//W3C//DTD SVG 1.1//EN"
       "http://www.w3.org/Graphics/SVG/1.1/DTD/svg11.dtd">
<svg version="1.1" xmlns="http://www.w3.org/2000/svg" xmlns:xlink="http://www.w3.org/1999/xlink" width="116.064" height="77.7852">
 <g>
  <rect height="77.7852" opacity="0" width="116.064" x="0" y="0"/>
  <path d="M59.3037 76.1538C62.6279 76.1538 65.5479 73.6665 65.5479 68.6973L65.5479 9.0088C65.5479 4.05469 62.6279 1.51855 59.3037 1.51855C57.5288 1.51855 55.978 2.16846 54.2788 3.15869L4.11426 32.6826C1.29834 34.355 0 36.3389 0 38.8379C0 41.3184 1.31348 43.3814 4.11426 45.0235L54.2788 74.5137C55.9292 75.5039 57.5288 76.1538 59.3037 76.1538ZM86.8828 77.7549L97.6792 77.7549C101.567 77.7549 103.48 75.8569 103.48 71.9536L103.48 5.76758C103.48 1.77832 101.567 0 97.6792 0L86.8828 0C82.9946 0 81.1152 1.91309 81.1152 5.76758L81.1152 71.9536C81.1152 75.8569 82.9946 77.7549 86.8828 77.7549Z" fill="#000000" fill-opacity="0.85"/>
 </g>
</svg>
