<?xml version="1.0" encoding="UTF-8"?>
<!--Generator: Apple Native CoreSVG 232.5-->
<!DOCTYPE svg
PUBLIC "-//W3C//DTD SVG 1.1//EN"
       "http://www.w3.org/Graphics/SVG/1.1/DTD/svg11.dtd">
<svg version="1.1" xmlns="http://www.w3.org/2000/svg" xmlns:xlink="http://www.w3.org/1999/xlink" width="142.033" height="74.7783">
 <g>
  <rect height="74.7783" opacity="0" width="142.033" x="0" y="0"/>
  <path d="M59.2886 74.7783C62.6128 74.7783 65.5479 72.2573 65.5479 67.3218L65.5479 7.59962C65.5479 2.6792 62.6128 0.143066 59.2886 0.143066C57.5288 0.143066 55.978 0.792968 54.2637 1.7832L4.09913 31.3071C1.2832 32.9795 0 34.9634 0 37.4439C0 39.9429 1.29834 41.9722 4.09913 43.6143L54.2637 73.1382C55.9141 74.1284 57.5288 74.7783 59.2886 74.7783ZM57.8213 67.9702C57.3887 67.9702 56.8921 67.8574 56.2559 67.4585L8.39748 39.1626C7.56252 38.6812 7.09621 38.2334 7.09621 37.4439C7.09621 36.6729 7.54738 36.2554 8.39748 35.7739L56.2559 7.46291C56.9561 7.09767 57.3887 6.95119 57.8213 6.95119C58.6445 6.95119 59.5483 7.4966 59.5483 8.97609L59.5483 65.9453C59.5483 67.4248 58.6445 67.9702 57.8213 67.9702ZM124.592 74.7783C127.917 74.7783 130.836 72.2573 130.836 67.3218L130.836 7.59962C130.836 2.6792 127.917 0.143066 124.592 0.143066C122.817 0.143066 121.267 0.792968 119.567 1.7832L69.4029 31.3071C66.5869 32.9795 65.2886 34.9634 65.2886 37.4439C65.2886 39.9429 66.6021 41.9722 69.4029 43.6143L119.567 73.1382C121.218 74.1284 122.817 74.7783 124.592 74.7783ZM123.125 67.9702C122.726 67.9702 122.23 67.8574 121.544 67.4585L73.7012 39.1626C72.8662 38.6812 72.4336 38.2334 72.4336 37.4439C72.4336 36.6729 72.8511 36.2554 73.7012 35.7739L121.544 7.46291C122.26 7.09767 122.726 6.95119 123.125 6.95119C123.948 6.95119 124.852 7.4966 124.852 8.97609L124.852 65.9453C124.852 67.4248 123.948 67.9702 123.125 67.9702Z" fill="#000000" fill-opacity="0.85"/>
 </g>
</svg>
