<?xml version="1.0" encoding="UTF-8"?>
<!--Generator: Apple Native CoreSVG 232.5-->
<!DOCTYPE svg
PUBLIC "-//W3C//DTD SVG 1.1//EN"
       "http://www.w3.org/Graphics/SVG/1.1/DTD/svg11.dtd">
<svg version="1.1" xmlns="http://www.w3.org/2000/svg" xmlns:xlink="http://www.w3.org/1999/xlink" width="97.9595" height="97.9932">
 <g>
  <rect height="97.9932" opacity="0" width="97.9595" x="0" y="0"/>
  <path d="M48.9722 97.9443C75.8247 97.9443 97.9595 75.7759 97.9595 48.9722C97.9595 22.1348 75.791 0 48.9385 0C22.1348 0 0 22.1348 0 48.9722C0 75.7759 22.1685 97.9443 48.9722 97.9443ZM48.9722 91.6113C25.3501 91.6113 6.36671 72.5942 6.36671 48.9722C6.36671 25.3501 25.3164 6.31789 48.9385 6.31789C72.5605 6.31789 91.6265 25.3501 91.6265 48.9722C91.6265 72.5942 72.5942 91.6113 48.9722 91.6113Z" fill="#000000" fill-opacity="0.85"/>
  <path d="M42.4795 67.0166C44.0557 67.0166 45.4785 65.8008 45.4785 63.4771L45.4785 34.5498C45.4785 32.2261 44.0557 31.0103 42.4795 31.0103C41.6426 31.0103 40.9102 31.3335 40.0698 31.7949L15.7949 46.0757C14.5049 46.8369 13.897 47.8423 13.897 49.0059C13.897 50.1846 14.5049 51.19 15.7949 51.9512L40.0698 66.2319C40.9102 66.6934 41.6426 67.0166 42.4795 67.0166ZM73.9634 67.0166C75.5396 67.0166 76.9136 65.8008 76.9136 63.4771L76.9136 34.5498C76.9136 32.2261 75.5396 31.0103 73.9634 31.0103C73.1416 31.0103 72.3115 31.3335 71.5386 31.7949L47.294 46.0757C45.9551 46.8369 45.332 47.8423 45.332 49.0059C45.332 50.1846 45.9551 51.19 47.294 51.9512L71.5386 66.2319C72.3115 66.6934 73.1416 67.0166 73.9634 67.0166Z" fill="#000000" fill-opacity="0.85"/>
 </g>
</svg>
