<?xml version="1.0" encoding="UTF-8"?>
<!--Generator: Apple Native CoreSVG 232.5-->
<!DOCTYPE svg
PUBLIC "-//W3C//DTD SVG 1.1//EN"
       "http://www.w3.org/Graphics/SVG/1.1/DTD/svg11.dtd">
<svg version="1.1" xmlns="http://www.w3.org/2000/svg" xmlns:xlink="http://www.w3.org/1999/xlink" width="88.4092" height="88.5371">
 <g>
  <rect height="88.5371" opacity="0" width="88.4092" x="0" y="0"/>
  <path d="M14.3936 88.5371L74.0005 88.5371C83.5733 88.5371 88.4092 83.6558 88.4092 74.2632L88.4092 14.4019C88.4092 5.00928 83.5733 0.127929 74.0005 0.127929L14.3936 0.127929C4.86963 0.127929 0 4.93018 0 14.4019L0 74.2632C0 83.7349 4.86963 88.5371 14.3936 88.5371ZM14.5064 82.4922C9.00294 82.4922 6.04494 79.6016 6.04494 73.9634L6.04494 14.7017C6.04494 9.06349 9.00294 6.17287 14.5064 6.17287L73.9028 6.17287C79.2969 6.17287 82.3643 9.06349 82.3643 14.7017L82.3643 73.9634C82.3643 79.6016 79.2969 82.4922 73.9028 82.4922Z" fill="#000000" fill-opacity="0.85"/>
  <path d="M44.6318 72.3867C45.7417 72.3867 46.6157 71.5767 46.6157 70.3574L46.6157 66.5713L47.5078 66.5713C56.4385 66.5713 62.0488 61.8179 62.0488 54.3618C62.0488 49.0259 58.7471 45.0606 53.8052 43.5772C57.4487 41.8496 59.897 38.0981 59.897 33.978C59.897 27.4971 54.8306 22.8564 47.3867 22.8564L46.6157 22.8564L46.6157 18.9941C46.6157 17.8237 45.7417 17.0137 44.6318 17.0137C43.5557 17.0137 42.6665 17.8237 42.6665 18.9941L42.6665 22.8564L35.0547 22.8564C33.2778 22.8564 31.9995 24.0708 31.9995 25.8814L31.9995 63.5801C31.9995 65.3569 33.2441 66.5713 35.0547 66.5713L42.6665 66.5713L42.6665 70.3574C42.6665 71.5767 43.5557 72.3867 44.6318 72.3867ZM36.9815 61.9785L36.9815 46.3325L42.6665 46.3325L42.6665 61.9448ZM46.6157 61.9111L46.6157 46.3662C53.5098 46.5869 57.0703 49.3193 57.0703 54.1934C57.0703 59.0708 53.6157 61.7578 46.6157 61.9111ZM36.9663 41.7583L36.9815 27.3701L42.6665 27.3701L42.6665 41.7583ZM46.6157 41.605L46.6157 27.4375C51.9439 27.6919 54.8394 30.1162 54.8394 34.2544C54.8394 38.4868 52.0566 41.1821 46.6157 41.605Z" fill="#000000" fill-opacity="0.85"/>
 </g>
</svg>
