<?xml version="1.0" encoding="UTF-8"?>
<!--Generator: Apple Native CoreSVG 232.5-->
<!DOCTYPE svg
PUBLIC "-//W3C//DTD SVG 1.1//EN"
       "http://www.w3.org/Graphics/SVG/1.1/DTD/svg11.dtd">
<svg version="1.1" xmlns="http://www.w3.org/2000/svg" xmlns:xlink="http://www.w3.org/1999/xlink" width="97.9595" height="97.9932">
 <g>
  <rect height="97.9932" opacity="0" width="97.9595" x="0" y="0"/>
  <path d="M48.9722 97.9443C75.8247 97.9443 97.9595 75.7759 97.9595 48.9722C97.9595 22.1348 75.791 0 48.9385 0C22.1348 0 0 22.1348 0 48.9722C0 75.7759 22.1685 97.9443 48.9722 97.9443ZM48.9722 91.6113C25.3501 91.6113 6.36671 72.5942 6.36671 48.9722C6.36671 25.3501 25.3164 6.31789 48.9385 6.31789C72.5605 6.31789 91.6265 25.3501 91.6265 48.9722C91.6265 72.5942 72.5942 91.6113 48.9722 91.6113Z" fill="#000000" fill-opacity="0.85"/>
  <path d="M49.3565 77.1148C50.4663 77.1148 51.3252 76.3047 51.3252 75.0855L51.3252 71.2993L52.2173 71.2993C61.1631 71.2993 66.7583 66.5459 66.7583 59.0899C66.7583 53.7539 63.4566 49.7886 58.5147 48.3052C62.1397 46.5776 64.5728 42.8262 64.5728 38.7061C64.5728 32.2251 59.5552 27.5845 52.1113 27.5845L51.3252 27.5845L51.3252 23.7222C51.3252 22.5518 50.4663 21.7417 49.3565 21.7417C48.2651 21.7417 47.376 22.5518 47.376 23.7222L47.376 27.5845L39.7642 27.5845C37.9873 27.5845 36.709 28.7988 36.709 30.6094L36.709 68.3081C36.709 70.085 37.9536 71.2993 39.7642 71.2993L47.376 71.2993L47.376 75.0855C47.376 76.3047 48.2651 77.1148 49.3565 77.1148ZM41.7061 66.7065L41.7061 51.0606L47.376 51.0606L47.376 66.6729ZM51.3252 66.6392L51.3252 51.0942C58.2344 51.315 61.7798 54.0474 61.7798 58.9214C61.7798 63.7988 58.3403 66.4858 51.3252 66.6392ZM41.6421 46.4863L41.7061 32.0982L47.376 32.0982L47.376 46.4863ZM51.3252 46.333L51.3252 32.1655C56.6533 32.4199 59.564 34.8442 59.564 38.9824C59.564 43.2148 56.7661 45.9102 51.3252 46.333Z" fill="#000000" fill-opacity="0.85"/>
 </g>
</svg>
