<?xml version="1.0" encoding="UTF-8"?>
<!--Generator: Apple Native CoreSVG 232.5-->
<!DOCTYPE svg
PUBLIC "-//W3C//DTD SVG 1.1//EN"
       "http://www.w3.org/Graphics/SVG/1.1/DTD/svg11.dtd">
<svg version="1.1" xmlns="http://www.w3.org/2000/svg" xmlns:xlink="http://www.w3.org/1999/xlink" width="88.4092" height="88.5371">
 <g>
  <rect height="88.5371" opacity="0" width="88.4092" x="0" y="0"/>
  <path d="M88.4092 14.4019L88.4092 74.2632C88.4092 83.6558 83.5733 88.5371 74.0005 88.5371L14.3936 88.5371C4.86963 88.5371 0 83.7349 0 74.2632L0 14.4019C0 4.93018 4.86963 0.127929 14.3936 0.127929L74.0005 0.127929C83.5733 0.127929 88.4092 5.00928 88.4092 14.4019ZM42.6328 18.4517L42.6328 22.3662L34.8525 22.3662C33.042 22.3662 31.7451 23.6143 31.7451 25.4922L31.7451 63.9541C31.7451 65.7984 33.0083 67.0615 34.8525 67.0615L42.6328 67.0615L42.6328 70.915C42.6328 72.1528 43.5557 72.9966 44.6655 72.9966C45.8091 72.9966 46.6831 72.1528 46.6831 70.915L46.6831 67.0615L47.5938 67.0615C56.7266 67.0615 62.438 62.207 62.438 54.5825C62.438 49.1118 59.0689 45.0606 54.0259 43.5435C57.752 41.7822 60.2525 37.9634 60.2525 33.7422C60.2525 27.1079 55.1001 22.3662 47.4878 22.3662L46.6831 22.3662L46.6831 18.4517C46.6831 17.2476 45.8091 16.4038 44.6655 16.4038C43.5557 16.4038 42.6328 17.2476 42.6328 18.4517ZM42.6328 62.3003L36.8467 62.334L36.8467 46.3999L42.6328 46.3999ZM57.3247 54.3955C57.3247 59.3589 53.8179 62.0981 46.6831 62.2666L46.6831 46.4336C53.7119 46.6543 57.3247 49.439 57.3247 54.3955ZM42.6328 41.7061L36.8316 41.7061L36.8467 27.0147L42.6328 27.0147ZM55.0415 34.0337C55.0415 38.3521 52.21 41.0811 46.6831 41.5039L46.6831 27.1157C52.0972 27.3701 55.0415 29.8281 55.0415 34.0337Z" fill="#000000" fill-opacity="0.85"/>
 </g>
</svg>
