<?xml version="1.0" encoding="UTF-8"?>
<!--Generator: Apple Native CoreSVG 232.5-->
<!DOCTYPE svg
PUBLIC "-//W3C//DTD SVG 1.1//EN"
       "http://www.w3.org/Graphics/SVG/1.1/DTD/svg11.dtd">
<svg version="1.1" xmlns="http://www.w3.org/2000/svg" xmlns:xlink="http://www.w3.org/1999/xlink" width="90.4185" height="128.338">
 <g>
  <rect height="128.338" opacity="0" width="90.4185" x="0" y="0"/>
  <path d="M31.024 23.347C30.5954 25.1689 30.3421 27.0834 30.276 29.0754C28.6115 28.5852 26.8157 28.3345 24.919 28.3345C13.544 28.3345 5.74171 37.4028 5.74171 48.5742C5.74171 63.8086 13.938 76.3438 24.919 76.3438C32.1175 76.3438 38.1226 70.9419 41.3805 62.9029C42.7668 64.4332 44.2711 65.7754 45.8685 66.9242C42.4224 74.1898 36.9195 79.4599 30.3126 81.3204L31.7134 86.6114C32.126 88.0967 31.3194 89.5435 29.5088 89.5435L26.9654 89.5435C27.9938 96.0793 33.8809 97.762 33.8809 106.115C33.8809 114.727 26.041 116.45 26.041 125.882C26.041 127.194 24.8823 128.338 23.5181 128.338C22.1724 128.338 21.1299 127.194 21.1299 125.882C21.1299 113.222 29.0034 112.776 29.0034 106.115C29.0034 99.5422 22.7859 98.6476 21.9717 89.5435L19.0606 89.5435C17.2837 89.5435 16.4097 88.0967 16.856 86.6114L18.3369 80.9161C7.57485 77.1491 0 64.1907 0 48.5742C0 33.8291 10.1065 22.6416 24.919 22.6416C27.063 22.6416 29.1081 22.876 31.024 23.347Z" fill="#000000" fill-opacity="0.85"/>
  <path d="M60.2647 71.732C77.2173 71.732 90.4185 53.7925 90.4185 30.999C90.4185 13.1895 78.1753 0.0151366 60.2647 0.0151366C42.3692 0.0151366 30.1934 13.1895 30.1934 30.999C30.1934 53.7925 43.3457 71.732 60.2647 71.732ZM60.2647 66.0728C46.4297 66.0728 35.9014 50.0488 35.9014 30.999C35.9014 16.9282 45.9683 5.73829 60.2647 5.73829C74.5459 5.73829 84.7256 16.9282 84.7256 30.999C84.7256 50.0488 74.0659 66.0728 60.2647 66.0728ZM54.3218 69.1802L52.2993 76.834C51.8193 78.439 52.7456 80.0542 54.6909 80.0542L65.9175 80.0542C67.8628 80.0542 68.7554 78.439 68.3242 76.834L66.2681 69.1802ZM59.1792 127.791C60.6748 127.791 61.9229 126.527 61.9229 125.032C61.9229 114.081 71.7154 111.379 71.7154 100.872C71.7154 90.3448 62.7608 87.564 62.8281 77.8472L57.3931 77.8809C57.3594 90.5835 66.314 92.5889 66.314 100.872C66.314 109.332 56.5029 110.564 56.5029 125.032C56.5029 126.527 57.6987 127.791 59.1792 127.791Z" fill="#000000" fill-opacity="0.85"/>
 </g>
</svg>
