<?xml version="1.0" encoding="UTF-8"?>
<!--Generator: Apple Native CoreSVG 232.5-->
<!DOCTYPE svg
PUBLIC "-//W3C//DTD SVG 1.1//EN"
       "http://www.w3.org/Graphics/SVG/1.1/DTD/svg11.dtd">
<svg version="1.1" xmlns="http://www.w3.org/2000/svg" xmlns:xlink="http://www.w3.org/1999/xlink" width="60.1914" height="128.308">
 <g>
  <rect height="128.308" opacity="0" width="60.1914" x="0" y="0"/>
  <path d="M30.0713 71.7168C47.0239 71.7168 60.1914 53.7774 60.1914 30.9839C60.1914 13.1743 47.982 0 30.0713 0C12.1606 0 0 13.1743 0 30.9839C0 53.7774 13.1187 71.7168 30.0713 71.7168ZM24.1133 69.1651L22.0908 76.8189C21.6782 78.4239 22.5522 80.0391 24.4976 80.0391L35.7241 80.0391C37.6543 80.0391 38.562 78.4239 38.1157 76.8189L36.0259 69.1651ZM28.9859 127.775C30.4815 127.775 31.6958 126.512 31.6958 125.017C31.6958 114.066 41.4732 111.364 41.4732 100.857C41.4732 90.3296 32.5523 87.5489 32.6196 77.8321L27.1997 77.8321C27.166 90.5684 36.0869 92.5738 36.0869 100.857C36.0869 109.317 26.2759 110.549 26.2759 125.017C26.2759 126.512 27.4902 127.775 28.9859 127.775Z" fill="#000000" fill-opacity="0.85"/>
 </g>
</svg>
