<?xml version="1.0" encoding="UTF-8"?>
<!--Generator: Apple Native CoreSVG 232.5-->
<!DOCTYPE svg
PUBLIC "-//W3C//DTD SVG 1.1//EN"
       "http://www.w3.org/Graphics/SVG/1.1/DTD/svg11.dtd">
<svg version="1.1" xmlns="http://www.w3.org/2000/svg" xmlns:xlink="http://www.w3.org/1999/xlink" width="98.5397" height="98.6203">
 <g>
  <rect height="98.6203" opacity="0" width="98.5397" x="0" y="0"/>
  <path d="M7.13974 91.4386C16.9107 101.371 30.7022 100.965 41.753 90.442L50.9571 81.5782C47.0875 83.4498 42.7906 82.9376 38.4444 78.6251L19.9142 60.0612C15.568 55.7486 15.1285 51.4606 17.0001 47.6061L8.12118 56.8253C-2.40567 67.8946-2.63126 81.5397 7.13974 91.4386ZM41.7022 73.7203C46.5396 78.5577 51.2154 78.7042 56.1505 73.7203L73.7271 56.0948C78.7447 51.1261 78.6471 46.5328 73.8248 41.6954L56.8678 24.7535C52.0304 19.9161 47.4522 19.8336 42.4835 24.836L24.8429 42.4127C19.9078 47.3966 20.0055 52.0387 24.8429 56.8609ZM35.9488 52.3605C34.1993 50.5958 34.1993 47.9606 35.9488 46.211C37.7135 44.4615 40.3487 44.5104 42.0982 46.2599C43.7164 47.9117 43.7652 50.5958 42.0982 52.2628C40.2511 54.11 37.631 54.0275 35.9488 52.3605ZM46.3004 42.0577C44.5509 40.3082 44.5509 37.6241 46.2179 35.9234C47.9674 34.1588 50.6026 34.1588 52.3673 35.9234C54.068 37.6241 54.1168 40.2442 52.3033 42.0577C50.6515 43.6759 47.9186 43.6759 46.3004 42.0577ZM62.6549 52.3605C60.9542 54.0275 58.2701 54.0275 56.5206 52.2628C54.9024 50.6598 54.9024 47.9117 56.5206 46.2599C58.3189 44.4615 60.9542 44.5104 62.6549 46.211C64.4044 47.9606 64.4044 50.5958 62.6549 52.3605ZM46.2179 62.6144C44.5509 60.9474 44.4684 58.3121 46.3004 56.5138C47.9674 54.8131 50.6515 54.8619 52.3033 56.5138C54.068 58.2296 54.1168 60.9474 52.3673 62.6144C50.5538 64.379 47.9674 64.379 46.2179 62.6144ZM81.6793 51.1842L90.4488 41.7613C100.866 30.5524 101.25 17.0318 91.4488 7.14805C81.629-2.76943 67.9469-2.22402 56.8019 8.1295L47.4278 16.899C51.2335 15.0274 56.0773 15.898 60.4234 20.2442L78.9386 38.7594C83.2848 43.0719 83.5509 47.3297 81.6793 51.1842Z" fill="#000000" fill-opacity="0.85"/>
 </g>
</svg>
