<?xml version="1.0" encoding="UTF-8"?>
<!--Generator: Apple Native CoreSVG 232.5-->
<!DOCTYPE svg
PUBLIC "-//W3C//DTD SVG 1.1//EN"
       "http://www.w3.org/Graphics/SVG/1.1/DTD/svg11.dtd">
<svg version="1.1" xmlns="http://www.w3.org/2000/svg" xmlns:xlink="http://www.w3.org/1999/xlink" width="93.5493" height="74.3731">
 <g>
  <rect height="74.3731" opacity="0" width="93.5493" x="0" y="0"/>
  <path d="M0 74.0464L7.83789 74.0464L7.83789 0L0 0ZM15.4771 74.0464L19.9575 74.0464L19.9575 0L15.4771 0ZM27.4536 74.0464L40.2905 74.0464L40.2905 0L27.4536 0ZM44.9663 74.0464L53.1611 74.0464L53.1611 0L44.9663 0ZM58.0171 74.0464L70.7412 74.0464L70.7412 0L58.0171 0ZM74.6509 74.0464L84.6221 74.0464L84.6221 0L74.6509 0ZM87.0972 74.0464L93.5493 74.0464L93.5493 0L87.0972 0Z" fill="#000000" fill-opacity="0.85"/>
 </g>
</svg>
