<?xml version="1.0" encoding="UTF-8"?>
<!--Generator: Apple Native CoreSVG 232.5-->
<!DOCTYPE svg
PUBLIC "-//W3C//DTD SVG 1.1//EN"
       "http://www.w3.org/Graphics/SVG/1.1/DTD/svg11.dtd">
<svg version="1.1" xmlns="http://www.w3.org/2000/svg" xmlns:xlink="http://www.w3.org/1999/xlink" width="97.9595" height="97.9932">
 <g>
  <rect height="97.9932" opacity="0" width="97.9595" x="0" y="0"/>
  <path d="M0 48.9722C0 71.9131 16.1772 91.4429 37.6465 96.5786C39.1753 92.583 40.1519 88.291 40.5054 83.9839L38.0459 83.7651C36.958 83.686 36.1748 82.7969 36.1899 81.7544C36.2388 80.6816 37.0977 79.8076 38.2647 79.8867L40.6484 80.1055C40.6753 77.1357 40.4277 74.1997 39.8638 71.23L37.5557 71.7974C36.4678 72.0449 35.4893 71.3394 35.208 70.3457C34.9756 69.3066 35.5415 68.2339 36.6411 67.9712L38.9038 67.4341C38.0923 64.5317 36.9795 61.6445 35.5132 58.8701L33.4629 59.9609C32.4575 60.4712 31.415 60.0654 30.8862 59.1543C30.3052 58.2315 30.5747 57.0391 31.5918 56.4649L33.5327 55.4531C31.8037 52.7578 29.8188 50.2695 27.6235 48.0557L26.1372 49.6699C25.2969 50.4766 24.1753 50.4277 23.3804 49.6665C22.6377 48.9424 22.5098 47.7197 23.3315 46.898L24.7725 45.3628C22.6143 43.4605 20.2793 41.8965 17.7861 40.4873L16.6211 43.0108C16.0923 44.0161 14.9858 44.2822 14.0293 43.7988C13.0239 43.334 12.6333 42.1602 13.1924 41.1094L14.3877 38.6348C10.5234 36.8027 6.31396 35.5415 2.12305 34.8394C0.729004 39.3247 0 44.0508 0 48.9722ZM48.9722 97.9443C69.418 97.9443 87.1968 85.0552 94.4185 67.0693C89.958 66.2998 85.5801 64.9038 81.4649 62.9741L80.4478 64.9795C79.9863 66.0303 78.7603 66.2813 77.8374 65.8316C76.9146 65.333 76.4751 64.1743 77.0527 63.1875L78.0664 61.2041C75.1084 59.5625 72.3272 57.6836 69.7378 55.4663L68.0845 57.1499C67.3115 57.9717 66.1528 57.8774 65.395 57.165C64.585 56.4375 64.4907 55.2148 65.2974 54.4756L66.9356 52.7583C64.4961 50.3306 62.3159 47.5947 60.3731 44.5239L58.0967 45.7783C57.0947 46.3897 55.9512 45.9131 55.5234 45.0542C54.9946 44.1128 55.2119 42.9238 56.1987 42.4136L58.4414 41.1743C56.7275 37.9688 55.4312 34.6807 54.5371 31.3135L51.791 31.9483C50.6729 32.2446 49.6943 31.5913 49.5142 30.5488C49.2144 29.5249 49.6792 28.4522 50.8311 28.1709L53.6597 27.5024C53.0132 24.2886 52.7354 20.9922 52.7925 17.7446L50.459 17.5562C49.3071 17.5108 48.5576 16.6401 48.6401 15.5825C48.6553 14.5064 49.4805 13.6323 50.6172 13.644L52.9204 13.8325C53.4053 9.25928 54.2993 4.75 55.9629 0.503418C53.6377 0.180176 51.3125 0 48.9385 0C28.4775 0 10.7998 12.8857 3.52588 30.8682C7.9375 31.6563 12.2666 32.9175 16.3482 34.9146L17.3315 32.9951C17.8267 31.9443 18.9854 31.7271 19.9756 32.2441C20.9321 32.6904 21.2739 33.8003 20.7603 34.8023L19.7803 36.7183C22.6187 38.2925 25.2988 40.104 27.7871 42.269L29.6948 40.2822C30.5015 39.4605 31.6753 39.5884 32.4517 40.3682C33.1607 41.0957 33.3223 42.2173 32.4971 43.0576L30.6231 44.9619C33.1299 47.4907 35.4111 50.2266 37.3389 53.3311L39.6304 52.0952C40.6172 51.5176 41.7422 51.9756 42.271 52.8682C42.7847 53.7759 42.5674 54.9649 41.5132 55.5088L39.2857 56.7144C40.9507 59.8374 42.2134 63.0884 43.1411 66.3394L45.5132 65.772C46.6499 65.4907 47.5947 66.1626 47.8911 67.2051C48.1572 68.229 47.5913 69.3018 46.5068 69.583L44.0523 70.1841C44.6987 73.5327 44.9766 76.8965 44.9194 80.23L47.3691 80.4336C48.4722 80.4976 49.2554 81.417 49.2066 82.4258C49.1763 83.4834 48.3325 84.376 47.1958 84.312L44.7578 84.1084C44.3706 88.6665 43.3789 93.1421 41.7793 97.4072C44.1045 97.749 46.5459 97.9443 48.9722 97.9443ZM97.9595 48.9722C97.9595 25.9639 81.6323 6.40039 60.0469 1.29834C58.5366 5.35791 57.5264 9.66846 57.188 14.0059L59.7671 14.2246C60.855 14.2886 61.6382 15.2114 61.5894 16.269C61.5742 17.3604 60.7642 18.167 59.5972 18.0879L57.0635 17.8843C57.0366 20.7192 57.2656 23.5879 57.8145 26.438L59.7671 25.9902C60.855 25.709 61.7661 26.3809 62.0625 27.4082C62.2949 28.4473 61.8301 29.4863 60.6968 29.7827L58.7559 30.2002C59.6011 33.1885 60.7324 36.1431 62.2476 39.0186L64.2827 37.9277C65.2544 37.3501 66.3643 37.8232 66.8594 38.7007C67.3882 39.7095 67.1372 40.7822 66.1201 41.3565L64.1455 42.4019C65.8745 45.0786 67.8071 47.4844 69.9014 49.6645L71.6758 47.8296C72.4824 47.0229 73.7051 47.102 74.4326 47.7656C75.2393 48.5083 75.3032 49.7461 74.4815 50.6353L72.7861 52.3911C75.0454 54.3608 77.4478 56.0444 80.0606 57.4687L81.207 54.9976C81.6685 54.0259 82.8272 53.7261 83.7837 54.1758C84.7554 54.7231 85.1797 55.8481 84.6206 56.8989L83.459 59.3062C87.3721 61.1533 91.5327 62.4111 95.8399 63.0493C97.2002 58.5674 97.9595 53.875 97.9595 48.9722Z" fill="#000000" fill-opacity="0.85"/>
 </g>
</svg>
