<?xml version="1.0" encoding="UTF-8"?>
<!--Generator: Apple Native CoreSVG 232.5-->
<!DOCTYPE svg
PUBLIC "-//W3C//DTD SVG 1.1//EN"
       "http://www.w3.org/Graphics/SVG/1.1/DTD/svg11.dtd">
<svg version="1.1" xmlns="http://www.w3.org/2000/svg" xmlns:xlink="http://www.w3.org/1999/xlink" width="134.631" height="70.137">
 <g>
  <rect height="70.137" opacity="0" width="134.631" x="0" y="0"/>
  <path d="M2.29688 53.2868L24.6821 68.8512C26.979 70.4611 30.2407 70.3634 32.8306 68.5954L54.7983 53.2868C57.8799 51.1549 57.8799 47.925 54.7983 45.7931L32.6621 30.3834C30.207 28.713 26.979 28.6188 24.6821 30.195L2.29688 45.7931C-0.754395 47.925-0.754395 51.1549 2.29688 53.2868ZM41.0327 24.2311L63.4819 39.7956C65.7637 41.4206 69.0103 41.2926 71.5664 39.506L93.5982 24.2311C96.6494 22.1144 96.6494 18.8693 93.5982 16.7526L71.4131 1.34291C68.9766-0.391464 65.7637-0.436873 63.4819 1.15444L41.0327 16.7526C38.0151 18.8693 38.0151 22.1144 41.0327 24.2311ZM79.8662 53.2868L102.098 68.7502C104.515 70.4274 107.761 70.3971 110.183 68.6964L132.368 53.2868C135.385 51.1549 135.385 47.925 132.368 45.7931L110.183 30.3834C107.761 28.713 104.548 28.6188 102.251 30.195L79.8662 45.7931C76.7998 47.925 76.7998 51.1549 79.8662 53.2868Z" fill="#000000" fill-opacity="0.85"/>
 </g>
</svg>
