<?xml version="1.0" encoding="UTF-8"?>
<!--Generator: Apple Native CoreSVG 232.5-->
<!DOCTYPE svg
PUBLIC "-//W3C//DTD SVG 1.1//EN"
       "http://www.w3.org/Graphics/SVG/1.1/DTD/svg11.dtd">
<svg version="1.1" xmlns="http://www.w3.org/2000/svg" xmlns:xlink="http://www.w3.org/1999/xlink" width="97.9595" height="97.9932">
 <g>
  <rect height="97.9932" opacity="0" width="97.9595" x="0" y="0"/>
  <path d="M97.9595 48.9722C97.9595 75.7759 75.8247 97.9443 48.9722 97.9443C22.1685 97.9443 0 75.7759 0 48.9722C0 22.1348 22.1348 0 48.9385 0C75.791 0 97.9595 22.1348 97.9595 48.9722ZM24.5156 38.7954C26.6152 39.2231 28.6323 39.8613 30.6006 40.7285L31.0469 39.9219C31.4746 39.1035 32.3638 38.8594 33.1484 39.2231C33.9028 39.5381 34.2598 40.5552 33.8472 41.3399L33.3857 42.207C34.6973 42.9058 35.9263 43.7998 37.0728 44.7207L37.9956 43.835C38.5884 43.2119 39.4556 43.2456 40.1611 43.8535C40.8633 44.4429 40.9087 45.4263 40.2856 46.0308L39.4302 46.9351C40.5649 48.1372 41.6206 49.3999 42.5298 50.8125L43.6108 50.2383C44.4141 49.7617 45.2998 50.1069 45.7427 50.8765C46.2007 51.6123 45.9565 52.6143 45.1231 53.0571L44.1211 53.6011C44.8652 55.0591 45.4326 56.5357 45.9058 58.0762L46.98 57.7647C47.8169 57.5659 48.669 58.061 48.898 58.8945C49.0781 59.8408 48.5562 60.6963 47.7529 60.895L46.645 61.1729C46.9194 62.6797 47.0356 64.2691 47.0391 65.7759L48.1353 65.8213C49.0361 65.9004 49.6289 66.6885 49.6138 67.5405C49.5835 68.3775 48.9116 69.083 47.9956 69.0376L46.896 68.9736C46.5879 71.1221 46.1216 73.2705 45.3926 75.3364C46.5982 75.5317 47.7852 75.6143 49.0059 75.6143C59.9233 75.6143 69.5191 68.6924 73.5938 59.0781C71.3965 58.6841 69.3306 58.061 67.3623 57.1787L66.8823 58.0376C66.4883 58.8223 65.5654 59.1826 64.7959 58.77C64.0112 58.3726 63.688 57.4043 64.082 56.6045L64.562 55.7188C63.2319 54.9863 61.9356 54.0586 60.7368 53.0855L59.9673 53.8701C59.4082 54.4595 58.4551 54.4375 57.7715 53.8516C57.1636 53.2925 57.0054 52.2788 57.625 51.6406L58.3794 50.8897C57.2446 49.6875 56.2564 48.4063 55.332 47.061L54.3335 47.6201C53.5151 48.0781 52.6108 47.7212 52.1865 47.0156C51.8262 46.2275 52.0215 45.2593 52.7876 44.8687L53.7593 44.3247C53.0303 42.8145 52.3955 41.2891 51.9712 39.7148L50.6948 40.0264C49.8276 40.2891 49.0396 39.7485 48.8106 38.9116C48.5967 38.0781 49.0059 37.1924 49.9556 36.9634L51.2505 36.6519C50.9575 35.1787 50.875 33.6567 50.8565 32.1836L49.8091 32.1382C48.8779 32.0591 48.3003 31.3047 48.3306 30.4341C48.3457 29.6309 49.0664 28.8765 50.001 28.9219L50.981 28.9858C51.2066 26.8374 51.7402 24.7075 52.4356 22.5894C51.2974 22.4277 50.1255 22.3452 48.9722 22.3452C38.0884 22.3452 28.5264 29.2671 24.5156 38.7954ZM22.4126 48.9873C22.4126 61.2232 31.1226 71.792 42.5889 74.7471C43.2993 72.8125 43.7319 70.8628 44.0064 68.8491L42.9053 68.7549C42.0044 68.6758 41.3965 67.9063 41.4268 67.103C41.4756 66.2661 42.144 65.4629 43.0938 65.5083L44.1006 65.6025C44.082 64.3735 43.9507 63.1445 43.7891 61.8633L42.7939 62.1109C41.9268 62.3399 41.0747 61.7505 40.9097 60.9658C40.7109 60.0498 41.2026 59.1943 42.021 58.9956L43.0161 58.7666C42.5767 57.4888 42.0918 56.2598 41.4605 55.0308L40.6372 55.5005C39.8862 55.9248 38.9517 55.6504 38.5239 54.8623C38.0811 54.1113 38.3589 53.1397 39.1587 52.7305L39.9365 52.291C39.125 51.1597 38.3018 50.0586 37.3286 49.0855L36.7007 49.7437C36.0776 50.333 35.1279 50.2993 34.4712 49.7251C33.8818 49.166 33.7876 48.1187 34.4224 47.4653L35.0352 46.8711C34.0991 46.1118 33.0991 45.398 32.0654 44.8306L31.5283 45.898C31.1006 46.7012 30.1812 46.9453 29.4756 46.5967C28.6118 46.2363 28.3003 45.2681 28.7617 44.4009L29.2803 43.3521C27.4282 42.4546 25.4971 41.8989 23.5322 41.5352C22.8184 43.894 22.4126 46.4331 22.4126 48.9873ZM53.8706 29.1104L55.0728 29.2046C55.9248 29.2837 56.5361 30.0684 56.4873 30.8564C56.4722 31.791 55.8003 32.4966 54.8692 32.4512L53.7764 32.3569C53.8135 33.5186 53.9263 34.7139 54.1216 35.9092L54.8472 35.7476C55.7481 35.5186 56.5361 36.0254 56.7651 36.9263C57.0278 37.8086 56.4873 38.5815 55.6538 38.8106L54.8609 39.0396C55.2852 40.3174 55.77 41.5801 56.4502 42.8428L57.2398 42.3916C58.0396 41.9336 58.9776 42.2905 59.3716 43.0298C59.7959 43.8818 59.5518 44.7188 58.752 45.1431L57.959 45.5825C58.752 46.6987 59.5601 47.7661 60.481 48.7393L61.2285 47.9614C61.919 47.2559 62.7861 47.3232 63.4917 47.9463C64.0776 48.502 64.209 49.519 63.522 50.2061L62.7744 50.9688C63.7778 51.7803 64.7813 52.543 65.9126 53.1289L66.4009 52.1289C66.7949 51.3442 67.7969 51.0142 68.4839 51.4116C69.3174 51.8394 69.5952 52.7402 69.1675 53.5586L68.6641 54.6074C70.565 55.4712 72.5147 56.0269 74.5435 56.3384C75.291 54.0132 75.6328 51.5415 75.6328 48.9873C75.6328 36.6875 66.8218 26.085 55.3218 23.1299C54.6113 25.1133 54.1299 27.0967 53.8706 29.1104Z" fill="#000000" fill-opacity="0.85"/>
 </g>
</svg>
