<?xml version="1.0" encoding="UTF-8"?>
<!--Generator: Apple Native CoreSVG 232.5-->
<!DOCTYPE svg
PUBLIC "-//W3C//DTD SVG 1.1//EN"
       "http://www.w3.org/Graphics/SVG/1.1/DTD/svg11.dtd">
<svg version="1.1" xmlns="http://www.w3.org/2000/svg" xmlns:xlink="http://www.w3.org/1999/xlink" width="97.9595" height="97.9932">
 <g>
  <rect height="97.9932" opacity="0" width="97.9595" x="0" y="0"/>
  <path d="M97.9595 48.9722C97.9595 75.7759 75.8247 97.9443 48.9722 97.9443C22.1685 97.9443 0 75.7759 0 48.9722C0 22.1348 22.1348 0 48.9385 0C75.791 0 97.9595 22.1348 97.9595 48.9722ZM33.1353 41.4678C33.1841 52.5225 28.686 64.9429 37.0303 72.0479C40.4595 74.251 44.6123 75.5654 49.0059 75.5654C50.188 75.5654 51.355 75.5166 52.522 75.3667C42.7056 62.9004 37.7368 49.8833 35.9419 39.6831C34.9688 40.2202 34.0444 40.8516 33.1353 41.4678ZM38.6143 38.1475C40.2593 48.1152 45.2954 61.7031 55.8257 74.6426C62.2368 72.915 67.7119 68.792 71.2427 63.3237C68.9492 51.3399 48.1255 47.1812 43.4478 36.1592C41.8164 36.6929 40.2305 37.3882 38.6143 38.1475ZM22.6299 52.3775C23.4063 58.0029 25.9961 63.1553 29.7881 67.1255C27.7822 59.9712 29.6143 51.3989 30.0386 43.9414C27.1846 46.4419 24.7515 49.2202 22.6299 52.3775ZM46.4468 35.228C50.4981 43.8672 68.208 47.8828 73.3208 59.5147C74.7471 56.2632 75.5991 52.7339 75.5991 48.9722C75.5991 44.9585 74.6328 41.1216 72.9292 37.6685C67.7446 35.1997 62.3799 33.9502 56.4561 33.9502C53.0181 33.9502 49.6592 34.4014 46.4468 35.228ZM22.458 47.3882C24.6958 44.6367 27.1812 42.1851 30.042 39.9624C29.978 37.8442 28.8936 34.6685 27.0918 33.9917C24.4448 37.814 22.6465 42.9111 22.458 47.3882ZM28.9995 31.5469C31.1162 32.5737 32.396 35.6719 32.8726 37.9653C33.7329 37.4316 34.5747 36.8643 35.4536 36.4248C34.9468 32.1748 35.0664 28.6489 35.5161 26.1216C33.0913 27.5747 30.8989 29.3882 28.9995 31.5469ZM38.7793 24.4312C38.1968 26.561 37.7017 30.1323 38.2539 35.002C39.6563 34.2949 41.1445 33.7124 42.6445 33.1787C42.5957 32.6939 42.5957 32.1265 42.5957 31.5557C42.5957 27.8462 44.3032 24.6284 47.1255 22.4277C44.1958 22.6348 41.416 23.3638 38.7793 24.4312ZM45.7075 32.3452C49.1338 31.3721 52.7402 30.936 56.4561 30.936C61.2534 30.936 65.9868 31.6939 70.2554 33.228C66.1338 27.7002 59.9546 23.7617 52.9268 22.667C48.0938 24.647 45.4248 27.6436 45.7075 32.3452Z" fill="#000000" fill-opacity="0.85"/>
 </g>
</svg>
