<?xml version="1.0" encoding="UTF-8"?>
<!--Generator: Apple Native CoreSVG 232.5-->
<!DOCTYPE svg
PUBLIC "-//W3C//DTD SVG 1.1//EN"
       "http://www.w3.org/Graphics/SVG/1.1/DTD/svg11.dtd">
<svg version="1.1" xmlns="http://www.w3.org/2000/svg" xmlns:xlink="http://www.w3.org/1999/xlink" width="97.9595" height="97.9932">
 <g>
  <rect height="97.9932" opacity="0" width="97.9595" x="0" y="0"/>
  <path d="M48.9722 97.9443C75.8247 97.9443 97.9595 75.7759 97.9595 48.9722C97.9595 22.1348 75.791 0 48.9385 0C22.1348 0 0 22.1348 0 48.9722C0 75.7759 22.1685 97.9443 48.9722 97.9443ZM48.9722 91.6113C25.3501 91.6113 6.36671 72.5942 6.36671 48.9722C6.36671 25.3501 25.3164 6.31789 48.9385 6.31789C72.5605 6.31789 91.6265 25.3501 91.6265 48.9722C91.6265 72.5942 72.5942 91.6113 48.9722 91.6113Z" fill="#000000" fill-opacity="0.85"/>
  <path d="M22.9668 47.4067C25.1523 44.7227 27.604 42.3047 30.3975 40.1494C30.3335 38.2183 29.2827 34.9565 27.5147 34.3135C24.9014 38.0684 23.1553 43.0122 22.9668 47.4067ZM33.1607 38.186C33.9873 37.6523 34.8291 37.1187 35.6743 36.6792C35.2012 32.5303 35.3023 29.0718 35.752 26.5967C33.3794 28.0313 31.2207 29.811 29.3887 31.8872C31.438 32.9292 32.6841 35.96 33.1607 38.186ZM38.4072 35.29C39.8096 34.583 41.2793 34.0342 42.7456 33.5005C42.6968 33.0156 42.6968 32.4483 42.6968 31.9111C42.6968 28.269 44.3706 25.1187 47.1255 22.9702C44.7383 23.1099 41.5508 23.8389 38.9478 24.9399C38.3652 27.0361 37.9038 30.5215 38.4072 35.29ZM45.7412 32.667C49.1001 31.7275 52.6543 31.2915 56.2876 31.2915C60.9502 31.2915 65.5977 32.0493 69.7651 33.5161C65.7261 28.1231 59.6665 24.2705 52.7583 23.2095C48.0703 25.0884 45.3237 28.3882 45.7412 32.667ZM23.1387 52.2764C23.8965 57.8159 26.419 62.8335 30.1436 66.7363C28.1377 59.7168 29.9697 51.3316 30.3941 44.0274C27.6074 46.4756 25.208 49.1865 23.1387 52.2764ZM33.4233 41.6211C33.4722 52.4214 29.0752 64.5537 37.1651 71.5391C40.5269 73.7085 44.646 75.023 48.9722 75.023C50.1206 75.023 51.2691 74.959 52.4024 74.8091C42.8066 62.6123 37.9238 49.8496 36.1626 39.8701C35.2232 40.3887 34.2988 41.0049 33.4233 41.6211ZM38.7827 38.3682C40.3941 48.1152 45.3291 61.4336 55.6235 74.1338C61.9336 72.4248 67.3228 68.3843 70.7524 63.002C68.459 51.2725 48.0918 47.2149 43.5337 36.4136C41.9175 36.9136 40.3652 37.6089 38.7827 38.3682ZM46.4468 35.4976C50.4458 43.9683 67.7666 47.9165 72.7969 59.294C74.2046 56.1099 75.023 52.6328 75.023 48.9722C75.023 45.0108 74.0752 41.2412 72.3867 37.8555C67.3218 35.4541 62.0918 34.2383 56.2876 34.2383C52.9321 34.2383 49.6406 34.6895 46.4468 35.4976Z" fill="#000000" fill-opacity="0.85"/>
 </g>
</svg>
