<?xml version="1.0" encoding="UTF-8"?>
<!--Generator: Apple Native CoreSVG 232.5-->
<!DOCTYPE svg
PUBLIC "-//W3C//DTD SVG 1.1//EN"
       "http://www.w3.org/Graphics/SVG/1.1/DTD/svg11.dtd">
<svg version="1.1" xmlns="http://www.w3.org/2000/svg" xmlns:xlink="http://www.w3.org/1999/xlink" width="124.166" height="73.834">
 <g>
  <rect height="73.834" opacity="0" width="124.166" x="0" y="0"/>
  <path d="M0 8.56837C0 13.4268 3.69483 17.0728 8.54982 17.0728L115.601 17.0728C120.471 17.0728 124.166 13.4268 124.166 8.56837C124.166 3.64258 120.471 0 115.601 0L8.54982 0C3.69483 0 0 3.64258 0 8.56837ZM5.97755 8.56837C5.97755 6.98927 7.13917 5.87648 8.78566 5.87648L115.38 5.87648C117.026 5.87648 118.188 6.98927 118.188 8.56837C118.188 10.0986 117.026 11.1963 115.38 11.1963L8.78566 11.1963C7.13917 11.1963 5.97755 10.0986 5.97755 8.56837ZM34.4009 62.7813L89.7984 62.7813C107.431 62.7813 116.438 54.2661 116.438 37.5425L116.438 14.228L110.408 14.228L110.408 37.5425C110.408 50.2676 103.436 56.7515 89.7984 56.7515L34.4009 56.7515C20.7295 56.7515 13.7573 50.2676 13.7573 37.5425L13.7573 14.228L7.71241 14.228L7.71241 37.5425C7.71241 54.2661 16.7344 62.7813 34.4009 62.7813ZM21.4136 73.125C22.9463 73.7398 24.6963 72.8892 25.2622 71.3262L29.231 60.3814L23.5835 58.3164L19.6148 69.2764C19.0488 70.8091 19.8657 72.6231 21.4136 73.125ZM102.771 73.125C104.334 72.6231 105.117 70.8091 104.551 69.2764L100.582 58.3164L94.9195 60.3814L98.8882 71.3262C99.4541 72.8892 101.204 73.7398 102.771 73.125Z" fill="#000000" fill-opacity="0.85"/>
 </g>
</svg>
