<?xml version="1.0" encoding="UTF-8"?>
<!--Generator: Apple Native CoreSVG 232.5-->
<!DOCTYPE svg
PUBLIC "-//W3C//DTD SVG 1.1//EN"
       "http://www.w3.org/Graphics/SVG/1.1/DTD/svg11.dtd">
<svg version="1.1" xmlns="http://www.w3.org/2000/svg" xmlns:xlink="http://www.w3.org/1999/xlink" width="97.9595" height="97.9932">
 <g>
  <rect height="97.9932" opacity="0" width="97.9595" x="0" y="0"/>
  <path d="M97.9595 48.9722C97.9595 75.7759 75.8247 97.9443 48.9722 97.9443C22.1685 97.9443 0 75.7759 0 48.9722C0 22.1348 22.1348 0 48.9385 0C75.791 0 97.9595 22.1348 97.9595 48.9722ZM30.6362 33.9155C26.6797 33.9155 23.5425 34.397 21.291 36.5659C19.1558 38.7837 18.6895 41.8569 18.6895 45.7798L18.6895 52.1494C18.6895 56.0874 19.1558 59.1607 21.291 61.3784C23.5425 63.5474 26.5855 63.98 30.6362 63.98L64.126 63.98C68.1128 63.98 71.186 63.5474 73.355 61.3784C75.5088 59.1607 76.0391 56.0723 76.0391 52.1494L76.0391 45.7798C76.0391 41.8721 75.5088 38.7837 73.355 36.5659C71.1709 34.397 68.0337 33.9155 64.126 33.9155ZM70.044 39.9595C70.9614 40.8618 71.4834 42.7222 71.4834 45.145L71.4834 52.7505C71.4834 55.2222 70.9614 57.0825 70.044 57.9849C69.0591 58.9546 67.229 59.4243 64.7608 59.4243L29.9678 59.4243C27.4658 59.4243 25.6694 58.9546 24.6846 58C23.7334 57.0977 23.3613 55.3164 23.3613 52.7505L23.3613 45.145C23.3613 42.5942 23.7334 40.7979 24.6846 39.9107C25.6846 38.9258 27.5147 38.4712 29.9678 38.4712L64.7608 38.4712C67.1802 38.4712 69.0591 38.9409 70.044 39.9595ZM30.1211 41.0376C28.4697 41.0376 27.4092 41.2935 26.7813 41.8877C26.2173 42.4888 25.9277 43.4819 25.9277 45.2124L25.9277 52.6646C25.9277 54.3799 26.2173 55.4219 26.7813 55.9893C27.3789 56.6021 28.4697 56.8242 30.1211 56.8242L64.626 56.8242C66.311 56.8242 67.3345 56.6021 67.9473 55.9893C68.5635 55.373 68.8833 54.2856 68.8833 52.6646L68.8833 45.2124C68.8833 43.5913 68.5635 42.5039 67.9473 41.8877C67.3193 41.3086 66.2959 41.0376 64.626 41.0376ZM78.3423 55.0352C80.1455 54.9038 82.666 52.5147 82.666 48.9722C82.666 45.4297 80.1455 43.0405 78.3423 42.8941Z" fill="#000000" fill-opacity="0.85"/>
 </g>
</svg>
