<?xml version="1.0" encoding="UTF-8"?>
<!--Generator: Apple Native CoreSVG 232.5-->
<!DOCTYPE svg
PUBLIC "-//W3C//DTD SVG 1.1//EN"
       "http://www.w3.org/Graphics/SVG/1.1/DTD/svg11.dtd">
<svg version="1.1" xmlns="http://www.w3.org/2000/svg" xmlns:xlink="http://www.w3.org/1999/xlink" width="140.217" height="63.4307">
 <g>
  <rect height="63.4307" opacity="0" width="140.217" x="0" y="0"/>
  <path d="M25.1021 63.4307L100.921 63.4307C109.771 63.4307 116.09 62.4375 120.602 57.9263C125.128 53.4151 126.057 47.208 126.057 38.3286L126.057 25.1777C126.057 16.2984 125.128 10.061 120.602 5.56494C116.075 1.05371 109.771 0.075683 100.921 0.075683L24.8228 0.075683C16.3169 0.075683 9.98194 1.06885 5.47071 5.59522C0.944334 10.1065 0 16.3623 0 24.8648L0 38.3286C0 47.208 0.929198 53.4302 5.44043 57.9263C9.98194 62.4375 16.2715 63.4307 25.1021 63.4307ZM23.814 57.3857C18.0581 57.3857 12.8755 56.4751 9.86671 53.5C6.90675 50.4912 6.04494 45.3877 6.04494 39.6167L6.04494 24.1538C6.04494 18.1489 6.90675 12.9849 9.85157 9.97609C12.8604 6.95216 18.1221 6.10548 24.1118 6.10548L102.243 6.10548C107.999 6.10548 113.182 7.03126 116.142 9.99122C119.15 13 120.012 18.0698 120.012 23.8408L120.012 39.6167C120.012 45.3877 119.135 50.4912 116.142 53.5C113.182 56.4902 107.999 57.3857 102.243 57.3857ZM131.714 43.6411C135.329 43.4121 140.217 38.7529 140.217 31.7363C140.217 24.7383 135.329 20.0791 131.714 19.8501Z" fill="#000000" fill-opacity="0.85"/>
 </g>
</svg>
