<?xml version="1.0" encoding="UTF-8"?>
<!--Generator: Apple Native CoreSVG 232.5-->
<!DOCTYPE svg
PUBLIC "-//W3C//DTD SVG 1.1//EN"
       "http://www.w3.org/Graphics/SVG/1.1/DTD/svg11.dtd">
<svg version="1.1" xmlns="http://www.w3.org/2000/svg" xmlns:xlink="http://www.w3.org/1999/xlink" width="97.9595" height="97.9932">
 <g>
  <rect height="97.9932" opacity="0" width="97.9595" x="0" y="0"/>
  <path d="M48.9722 97.9443C75.8247 97.9443 97.9595 75.7759 97.9595 48.9722C97.9595 22.1348 75.791 0 48.9385 0C22.1348 0 0 22.1348 0 48.9722C0 75.7759 22.1685 97.9443 48.9722 97.9443ZM48.9722 91.6113C25.3501 91.6113 6.36671 72.5942 6.36671 48.9722C6.36671 25.3501 25.3164 6.31789 48.9385 6.31789C72.5605 6.31789 91.6265 25.3501 91.6265 48.9722C91.6265 72.5942 72.5942 91.6113 48.9722 91.6113Z" fill="#000000" fill-opacity="0.85"/>
  <path d="M31.0103 63.6582L63.8379 63.6582C67.7573 63.6582 70.7632 63.2105 72.8648 61.124C75 58.9399 75.4966 55.9375 75.4966 52.0972L75.4966 45.8472C75.4966 42.0068 75 38.9707 72.8648 36.8203C70.7481 34.7188 67.6934 34.2373 63.8379 34.2373L31.0103 34.2373C27.1699 34.2373 24.085 34.7188 21.9009 36.8203C19.7993 38.9707 19.3667 41.9766 19.3667 45.8472L19.3667 52.0972C19.3667 55.9526 19.7993 58.9399 21.9009 61.124C24.085 63.2105 27.0757 63.6582 31.0103 63.6582ZM30.3906 59.2222C27.9224 59.2222 26.1597 58.7676 25.2085 57.8467C24.2573 56.9443 23.8853 55.1816 23.8853 52.6831L23.8853 45.2124C23.8853 42.729 24.2573 40.9663 25.2085 40.064C26.1748 39.1128 27.9712 38.6582 30.3906 38.6582L64.4727 38.6582C66.8584 38.6582 68.7036 39.1431 69.6548 40.1279C70.5723 41.0151 71.0606 42.8569 71.0606 45.2124L71.0606 52.6831C71.0606 55.0874 70.5723 56.9292 69.6548 57.8164C68.7036 58.7676 66.9072 59.2222 64.4727 59.2222ZM30.544 56.6895L64.3379 56.6895C65.9893 56.6895 67.0127 56.4673 67.6255 55.8545C68.208 55.272 68.5278 54.1997 68.5278 52.5972L68.5278 45.2798C68.5278 43.6773 68.208 42.605 67.6255 42.0225C66.9976 41.4434 65.9741 41.1572 64.3379 41.1572L30.544 41.1572C28.8926 41.1572 27.8506 41.4131 27.2227 42.0225C26.6738 42.5899 26.3843 43.583 26.3843 45.2798L26.3843 52.5972C26.3843 54.2939 26.6738 55.3208 27.2227 55.8545C27.8355 56.4673 28.8926 56.6895 30.544 56.6895ZM77.751 54.9155C79.5357 54.769 81.9888 52.4473 81.9888 48.9722C81.9888 45.4971 79.5357 43.1265 77.751 43.0288Z" fill="#000000" fill-opacity="0.85"/>
 </g>
</svg>
