<?xml version="1.0" encoding="UTF-8"?>
<!--Generator: Apple Native CoreSVG 232.5-->
<!DOCTYPE svg
PUBLIC "-//W3C//DTD SVG 1.1//EN"
       "http://www.w3.org/Graphics/SVG/1.1/DTD/svg11.dtd">
<svg version="1.1" xmlns="http://www.w3.org/2000/svg" xmlns:xlink="http://www.w3.org/1999/xlink" width="96.6222" height="112.447">
 <g>
  <rect height="112.447" opacity="0" width="96.6222" x="0" y="0"/>
  <path d="M55.8653 22.1387L62.3424 24.5166L69.4503 4.93067C70.1627 2.91651 69.3829 1.0791 67.4664 0.321291C65.5347-0.372558 63.7496 0.535159 63.022 2.56788ZM56.5591 9.1958C28.0855 2.57959 6.67047 21.3906 0.284242 39.0913C-0.529236 41.2202 0.504946 42.9854 2.09821 43.6001C3.43708 44.0952 4.5655 43.5025 5.63826 42.6738C10.5274 39.0928 15.0025 37.813 20.0772 39.6836C24.1275 41.1465 26.2017 44.1831 27.3131 46.7959C27.8941 48.0757 29.2496 48.1245 29.6402 46.7588C34.6837 30.0752 44.9322 16.3311 56.5591 9.1958ZM64.3453 8.46728C51.5342 15.7568 39.5274 31.6856 34.3443 49.4014C33.9537 50.8345 35.1021 51.8062 36.6768 51.1646C40.6436 49.2656 45.0694 48.5772 49.1939 50.0772C53.3336 51.5586 56.2813 54.9507 58.1319 58.9526C58.8965 60.438 60.3262 60.4868 60.9747 59.1211C68.419 42.2158 69.4498 22.2495 64.3453 8.46728ZM70.0323 14.063C74.3155 26.9888 73.3101 44.0581 66.526 60.2041C65.9635 61.4688 66.9586 62.3662 68.2755 61.6978C70.838 60.3999 74.358 59.4273 78.3746 60.8902C83.483 62.7456 86.0992 66.6485 87.5386 72.4771C87.8165 73.8159 88.3673 74.9932 89.6387 75.4546C91.2657 76.0508 93.1993 75.3233 93.9488 73.1607C100.402 55.4937 96.1246 27.3433 70.0323 14.063ZM24.6895 107.854C24.0142 109.639 24.9371 111.589 26.7222 112.264C28.4888 112.876 30.5064 111.9 31.1329 110.168L53.2222 49.5737L46.7789 47.2109Z" fill="#000000" fill-opacity="0.85"/>
 </g>
</svg>
