<?xml version="1.0" encoding="UTF-8"?>
<!--Generator: Apple Native CoreSVG 232.5-->
<!DOCTYPE svg
PUBLIC "-//W3C//DTD SVG 1.1//EN"
       "http://www.w3.org/Graphics/SVG/1.1/DTD/svg11.dtd">
<svg version="1.1" xmlns="http://www.w3.org/2000/svg" xmlns:xlink="http://www.w3.org/1999/xlink" width="152.514" height="81.0449">
 <g>
  <rect height="81.0449" opacity="0" width="152.514" x="0" y="0"/>
  <path d="M0.198731 36.561L36.7461 36.561C37.4888 34.5859 39.3848 33.2827 41.6748 33.2827L110.806 33.2827C113.126 33.2827 115.025 34.5859 115.768 36.561L152.315 36.561C150.086 12.5439 132.627 0 101.437 0L51.0923 0C19.9209 0 2.46192 12.5439 0.198731 36.561ZM101.437 80.9473C134.013 80.9473 152.26 66.6172 152.514 40.6753L115.768 40.6753C115.025 42.6655 113.126 43.9536 110.806 43.9536L41.6748 43.9536C39.3848 43.9536 37.4888 42.6655 36.7461 40.6753L0 40.6753C0.220704 66.0073 19.2456 80.9473 51.0923 80.9473ZM76.2402 60.6441C73.5059 60.6929 71.2598 58.398 71.2598 55.7124C71.2598 52.978 73.5059 50.7319 76.2402 50.7319C78.9746 50.7319 81.2207 52.978 81.2207 55.7124C81.2207 58.2515 78.9746 60.5615 76.2402 60.6441Z" fill="#000000" fill-opacity="0.85"/>
 </g>
</svg>
