<?xml version="1.0" encoding="UTF-8"?>
<!--Generator: Apple Native CoreSVG 232.5-->
<!DOCTYPE svg
PUBLIC "-//W3C//DTD SVG 1.1//EN"
       "http://www.w3.org/Graphics/SVG/1.1/DTD/svg11.dtd">
<svg version="1.1" xmlns="http://www.w3.org/2000/svg" xmlns:xlink="http://www.w3.org/1999/xlink" width="129.821" height="87.2891">
 <g>
  <rect height="87.2891" opacity="0" width="129.821" x="0" y="0"/>
  <path d="M40.2593 0.0336915C18.1563 0.0336915 0 25.3662 0 56.459C0 71.1231 3.93164 87.2891 8.52686 87.2891C12.3926 87.2891 15.4385 82.1504 15.708 77.2119C8.54004 75.1358 3.26465 68.52 3.26465 60.6987C3.26465 56.0884 5.03272 51.9697 8.24219 48.7031C9.78125 27.0835 23.7095 8.09229 39.771 8.09229C49.3467 8.09229 53.7178 15.2383 53.7178 28.4829L15.5313 48.4155C9.98487 51.3184 7.43897 55.8545 7.43897 60.6987C7.43897 67.7842 13.2363 73.6421 20.3823 73.6421C23.8408 73.6421 26.2485 72.7632 31.2241 70.0557L50.3906 59.5337C58.791 54.9336 61.7612 49.3535 61.7612 37.4946L61.7612 27.1123C61.7612 10.4731 54.4839 0.0336915 40.2593 0.0336915ZM20.1465 69.0249C15.5195 69.0249 11.7866 65.2769 11.7866 60.6836C11.7866 56.0903 15.5195 52.3272 20.1465 52.3272C24.7246 52.3272 28.4878 56.0903 28.4878 60.6836C28.4878 65.2617 24.7246 69.0249 20.1465 69.0249ZM20.1465 66.0562C23.0845 66.0562 25.4854 63.6216 25.4854 60.6836C25.4854 57.7153 23.0845 55.2808 20.1465 55.2808C17.1597 55.2808 14.7739 57.7153 14.7739 60.6836C14.7739 63.6216 17.1597 66.0562 20.1465 66.0562ZM89.5772 0.0336915C75.3526 0.0336915 68.0601 10.4731 68.0601 27.1123L68.0601 37.4946C68.0601 49.3535 71.0454 54.9336 79.397 59.5337L98.5972 70.0557C103.573 72.7632 105.98 73.6421 109.439 73.6421C116.6 73.6421 122.382 67.7842 122.382 60.6987C122.382 55.8545 119.836 51.3184 114.256 48.4155L76.1035 28.4829C76.1035 15.2383 80.4746 8.09229 90.0503 8.09229C106.127 8.09229 120.04 27.0835 121.579 48.7031C124.804 51.9697 126.557 56.0884 126.557 60.6987C126.557 68.52 121.248 75.1358 114.08 77.2119C114.364 82.1504 117.429 87.2891 121.31 87.2891C125.905 87.2891 129.821 71.1231 129.821 56.459C129.821 25.3662 111.665 0.0336915 89.5772 0.0336915ZM109.675 69.0249C105.097 69.0249 101.334 65.2617 101.334 60.6836C101.334 56.0903 105.097 52.3272 109.675 52.3272C114.302 52.3272 118.05 56.0903 118.05 60.6836C118.05 65.2769 114.302 69.0249 109.675 69.0249ZM109.675 66.0562C112.662 66.0562 115.047 63.6216 115.047 60.6836C115.047 57.7153 112.662 55.2808 109.675 55.2808C106.737 55.2808 104.302 57.7153 104.302 60.6836C104.302 63.6216 106.737 66.0562 109.675 66.0562Z" fill="#000000" fill-opacity="0.85"/>
  <path d="M20.1465 69.0249C15.5195 69.0249 11.7866 65.2769 11.7866 60.6836C11.7866 56.0903 15.5195 52.3272 20.1465 52.3272C24.7246 52.3272 28.4878 56.0903 28.4878 60.6836C28.4878 65.2617 24.7246 69.0249 20.1465 69.0249ZM20.1465 66.0562C23.0845 66.0562 25.4854 63.6216 25.4854 60.6836C25.4854 57.7153 23.0845 55.2808 20.1465 55.2808C17.1597 55.2808 14.7739 57.7153 14.7739 60.6836C14.7739 63.6216 17.1597 66.0562 20.1465 66.0562ZM109.675 69.0249C105.097 69.0249 101.334 65.2617 101.334 60.6836C101.334 56.0903 105.097 52.3272 109.675 52.3272C114.302 52.3272 118.05 56.0903 118.05 60.6836C118.05 65.2769 114.302 69.0249 109.675 69.0249ZM109.675 66.0562C112.662 66.0562 115.047 63.6216 115.047 60.6836C115.047 57.7153 112.662 55.2808 109.675 55.2808C106.737 55.2808 104.302 57.7153 104.302 60.6836C104.302 63.6216 106.737 66.0562 109.675 66.0562Z" fill="#000000" fill-opacity="0.2125"/>
 </g>
</svg>
