<?xml version="1.0" encoding="UTF-8"?>
<!--Generator: Apple Native CoreSVG 232.5-->
<!DOCTYPE svg
PUBLIC "-//W3C//DTD SVG 1.1//EN"
       "http://www.w3.org/Graphics/SVG/1.1/DTD/svg11.dtd">
<svg version="1.1" xmlns="http://www.w3.org/2000/svg" xmlns:xlink="http://www.w3.org/1999/xlink" width="95.5571" height="95.1748">
 <g>
  <rect height="95.1748" opacity="0" width="95.5571" x="0" y="0"/>
  <path d="M29.1597 95.1109L66.0845 95.1109C85.4512 95.1109 95.5571 85.1294 95.5571 65.9512L95.5571 29.1748C95.5571 9.99658 85.4512 0 66.0845 0L29.1597 0C9.98145 0 0 9.99658 0 29.1748L0 65.9512C0 85.1294 9.98145 95.1109 29.1597 95.1109ZM47.7617 71.1489C34.7481 71.1489 24.2246 60.6592 24.2246 47.563C24.2246 38.8311 28.9492 31.0791 36.4419 26.8765L36.4419 47.563C36.4419 53.8501 41.4258 58.77 47.7617 58.77C54 58.77 59.1001 53.7373 59.1001 47.563C59.1001 41.3735 53.8872 36.1118 47.7617 36.1118C45.5645 36.1118 43.3638 36.8442 41.5234 38.1963L41.5234 24.856C43.3638 24.27 45.4819 24.0747 47.7617 24.0747C60.565 24.0747 71.3325 34.5645 71.3325 47.563C71.3325 60.415 60.8091 71.1489 47.7617 71.1489ZM47.7617 53.8013C44.4077 53.8013 41.606 50.9995 41.606 47.563C41.606 44.2393 44.5205 41.4375 47.7617 41.4375C51.0029 41.4375 53.936 44.3706 53.936 47.563C53.936 50.853 51.0855 53.8013 47.7617 53.8013Z" fill="#000000" fill-opacity="0.85"/>
 </g>
</svg>
