<?xml version="1.0" encoding="UTF-8"?>
<!--Generator: Apple Native CoreSVG 232.5-->
<!DOCTYPE svg
PUBLIC "-//W3C//DTD SVG 1.1//EN"
       "http://www.w3.org/Graphics/SVG/1.1/DTD/svg11.dtd">
<svg version="1.1" xmlns="http://www.w3.org/2000/svg" xmlns:xlink="http://www.w3.org/1999/xlink" width="58.8735" height="99.3477">
 <g>
  <rect height="99.3477" opacity="0" width="58.8735" x="0" y="0"/>
  <path d="M20.5068 0C6.93555 0 0 10 0 25.7905L0 35.6997C0 46.9692 2.83887 52.2749 10.7998 56.6948L29.1514 66.7285C33.8306 69.271 36.1592 70.1499 39.4712 70.1499C46.2417 70.1499 51.7612 64.5547 51.7612 57.8599C51.7612 53.2109 49.3618 48.855 44.0596 46.1138L7.68653 27.1123C7.68653 14.5024 11.8438 7.66797 20.9951 7.66797C36.272 7.66797 49.5503 25.7954 51.0068 46.3374C54.085 49.4912 55.7402 53.4297 55.7402 57.8599C55.7402 65.2569 50.7241 71.5611 43.8677 73.5396C44.1187 78.2676 47.0518 83.1284 50.7559 83.1284C55.1372 83.1284 58.8735 67.7134 58.8735 53.7666C58.8735 24.1572 41.5659 0 20.5068 0ZM39.6733 65.7466C35.3242 65.7466 31.7227 62.145 31.7227 57.7959C31.7227 53.398 35.3242 49.815 39.6733 49.815C44.0899 49.815 47.6426 53.398 47.6426 57.7959C47.6426 62.1602 44.0899 65.7466 39.6733 65.7466ZM39.6733 62.9243C42.5137 62.9243 44.7866 60.5874 44.7866 57.7959C44.7866 54.9893 42.5137 52.6524 39.6733 52.6524C36.8818 52.6524 34.5449 54.9893 34.5449 57.7959C34.5449 60.5874 36.8818 62.9243 39.6733 62.9243ZM52.3794 99.3291L52.3794 81.0913L48.6289 81.0913L48.6289 99.3291Z" fill="#000000" fill-opacity="0.85"/>
  <path d="M39.6733 65.7466C35.3242 65.7466 31.7227 62.145 31.7227 57.7959C31.7227 53.398 35.3242 49.815 39.6733 49.815C44.0899 49.815 47.6426 53.398 47.6426 57.7959C47.6426 62.1602 44.0899 65.7466 39.6733 65.7466ZM39.6733 62.9243C42.5137 62.9243 44.7866 60.5874 44.7866 57.7959C44.7866 54.9893 42.5137 52.6524 39.6733 52.6524C36.8818 52.6524 34.5449 54.9893 34.5449 57.7959C34.5449 60.5874 36.8818 62.9243 39.6733 62.9243Z" fill="#000000" fill-opacity="0.2125"/>
 </g>
</svg>
