<?xml version="1.0" encoding="UTF-8"?>
<!--Generator: Apple Native CoreSVG 232.5-->
<!DOCTYPE svg
PUBLIC "-//W3C//DTD SVG 1.1//EN"
       "http://www.w3.org/Graphics/SVG/1.1/DTD/svg11.dtd">
<svg version="1.1" xmlns="http://www.w3.org/2000/svg" xmlns:xlink="http://www.w3.org/1999/xlink" width="161.113" height="73.836">
 <g>
  <rect height="73.836" opacity="0" width="161.113" x="0" y="0"/>
  <path d="M32.708 46.3901C39.0391 49.0674 46.3164 46.0147 49.0576 39.7813L58.1636 19.0606C60.8897 12.8574 57.8858 5.41846 51.5698 2.67725C45.2085 0.0488281 37.9951 2.97022 35.1563 9.38037L26.084 30.0405C23.3276 36.3716 26.377 43.6338 32.708 46.3901ZM37.4141 42.9448C32.9556 42.9448 29.3945 39.3989 29.3945 34.8765C29.3945 30.3877 32.9893 26.8081 37.4141 26.8081C41.9517 26.8081 45.4976 30.3877 45.4976 34.8765C45.4976 39.3989 41.9517 42.9448 37.4141 42.9448ZM37.4141 39.9424C40.3452 39.9424 42.5103 37.7251 42.5103 34.8765C42.5103 32.0952 40.3452 29.8106 37.4141 29.8106C34.5806 29.8106 32.397 32.0952 32.397 34.8765C32.397 37.7251 34.5806 39.9424 37.4141 39.9424ZM76.4795 33.1421C74.1475 25.1797 68.0845 21.356 63.0669 17.2105C62.8228 18.4277 62.481 19.5776 61.9776 20.7461L52.8716 41.4517C49.1655 49.8286 39.4483 53.7637 31.0376 50.2378C23.0981 46.7017 19.1143 37.8965 21.75 29.9116C18.1377 34.4937 17.1611 41.7007 20.1836 50.1602C25.8462 65.939 40.2207 68.9395 54.336 63.3931L62.8374 60.0474C74.3731 55.4624 79.9043 44.7417 76.4795 33.1421ZM128.39 46.3901C134.703 43.6338 137.786 36.3716 135.029 30.0405L125.957 9.38037C123.103 2.97022 115.905 0.0488281 109.543 2.67725C103.228 5.41846 100.209 12.8574 102.95 19.0606L112.056 39.7813C114.797 46.0147 122.074 49.0674 128.39 46.3901ZM123.699 42.9448C119.162 42.9448 115.601 39.3989 115.601 34.8765C115.601 30.3877 119.162 26.8081 123.699 26.8081C128.124 26.8081 131.704 30.3877 131.704 34.8765C131.704 39.3989 128.158 42.9448 123.699 42.9448ZM123.699 39.9424C126.518 39.9424 128.716 37.7251 128.716 34.8765C128.716 32.0952 126.518 29.8106 123.699 29.8106C120.753 29.8106 118.569 32.0952 118.569 34.8765C118.569 37.7251 120.753 39.9424 123.699 39.9424ZM84.585 33.1421C81.209 44.7417 86.7066 55.4624 98.2759 60.0474L106.777 63.3931C120.893 68.9395 135.267 65.939 140.896 50.1602C143.952 41.7007 142.96 34.4937 139.363 29.9116C141.999 37.8965 138.015 46.7017 130.042 50.2378C121.665 53.7637 111.933 49.8286 108.242 41.4517L99.1358 20.7461C98.6323 19.5776 98.2905 18.4277 98.0464 17.2105C92.98 21.356 86.9658 25.1797 84.585 33.1421Z" fill="#000000" fill-opacity="0.85"/>
  <path d="M16.2568 51.5527C14.1655 45.7925 13.6924 40.1148 14.8828 34.565C6.34277 36.8213 0 44.6021 0 53.8628C0 64.9102 8.87696 73.836 19.8569 73.836C24.9419 73.836 29.5083 71.9317 33.0156 68.8032C25.4116 66.3213 19.4224 60.4448 16.2568 51.5527ZM144.856 51.5527C141.657 60.4448 135.702 66.3213 128.083 68.8032C131.605 71.9317 136.171 73.836 141.256 73.836C152.221 73.836 161.113 64.9102 161.113 53.8628C161.113 44.6021 154.771 36.8213 146.231 34.565C147.406 40.1148 146.914 45.7925 144.856 51.5527Z" fill="#000000" fill-opacity="0.425"/>
  <path d="M37.4141 42.9448C32.9556 42.9448 29.3945 39.3989 29.3945 34.8765C29.3945 30.3877 32.9893 26.8081 37.4141 26.8081C41.9517 26.8081 45.4976 30.3877 45.4976 34.8765C45.4976 39.3989 41.9517 42.9448 37.4141 42.9448ZM37.4141 39.9424C40.3452 39.9424 42.5103 37.7251 42.5103 34.8765C42.5103 32.0952 40.3452 29.8106 37.4141 29.8106C34.5806 29.8106 32.397 32.0952 32.397 34.8765C32.397 37.7251 34.5806 39.9424 37.4141 39.9424ZM123.699 42.9448C119.162 42.9448 115.601 39.3989 115.601 34.8765C115.601 30.3877 119.162 26.8081 123.699 26.8081C128.124 26.8081 131.704 30.3877 131.704 34.8765C131.704 39.3989 128.158 42.9448 123.699 42.9448ZM123.699 39.9424C126.518 39.9424 128.716 37.7251 128.716 34.8765C128.716 32.0952 126.518 29.8106 123.699 29.8106C120.753 29.8106 118.569 32.0952 118.569 34.8765C118.569 37.7251 120.753 39.9424 123.699 39.9424Z" fill="#000000" fill-opacity="0.2125"/>
 </g>
</svg>
