<?xml version="1.0" encoding="UTF-8"?>
<!--Generator: Apple Native CoreSVG 232.5-->
<!DOCTYPE svg
PUBLIC "-//W3C//DTD SVG 1.1//EN"
       "http://www.w3.org/Graphics/SVG/1.1/DTD/svg11.dtd">
<svg version="1.1" xmlns="http://www.w3.org/2000/svg" xmlns:xlink="http://www.w3.org/1999/xlink" width="65.0912" height="96.2266">
 <g>
  <rect height="96.2266" opacity="0" width="65.0912" x="0" y="0"/>
  <path d="M22.6079 73.7481L60.2485 73.7481C61.9023 73.7481 63.1923 72.6753 63.3911 70.9087L65.0781 53.5449C65.2431 51.3994 63.8369 49.9409 61.6948 49.9409L22.6079 49.9409C16.0327 49.9409 10.7455 55.292 10.7455 61.9009C10.7455 68.4458 16.0327 73.7481 22.6079 73.7481ZM22.6079 66.7178C25.332 66.7178 27.5224 64.5796 27.5224 61.8555C27.5224 59.1314 25.332 56.9258 22.6079 56.9258C19.8837 56.9258 17.7119 59.1314 17.7119 61.8555C17.7119 64.5796 19.8837 66.7178 22.6079 66.7178ZM49.9189 96.1929L54.27 96.1929L55.9335 80.377L51.5185 80.377ZM22.6079 69.8516C18.1611 69.8516 14.5781 66.3023 14.5781 61.8555C14.5781 57.4087 18.1611 53.792 22.6079 53.792C27.0883 53.792 30.6713 57.4087 30.6713 61.8555C30.6713 66.3023 27.0883 69.8516 22.6079 69.8516ZM42.2763 0C20.4374 0 0.0131247 19.7188 0.0131247 47.6948C0.0131247 66.1929 5.98383 91.5962 15.7734 91.7393C18.267 91.7393 19.956 89.1397 19.956 83.7261C19.956 81.8692 19.8281 80.1402 19.3769 77.8281C11.9697 76.3179 6.35736 69.7627 6.35736 61.9009C6.35736 58.9541 7.14545 56.2212 8.50776 53.7998C8.06 51.6816 7.80414 49.4287 7.80414 47.4253C7.80414 25.415 25.8896 7.77588 41.7695 7.77588C51.6347 7.77588 56.6103 15.5161 55.2885 28.355L49.7724 81.6182C49.2504 86.9136 56.9438 86.9136 57.4169 82.3892L62.8808 28.0283C64.6757 10.0488 57.1508 0 42.2763 0Z" fill="#000000" fill-opacity="0.85"/>
  <path d="M22.6079 66.7178C25.332 66.7178 27.5224 64.5796 27.5224 61.8555C27.5224 59.1314 25.332 56.9258 22.6079 56.9258C19.8837 56.9258 17.7119 59.1314 17.7119 61.8555C17.7119 64.5796 19.8837 66.7178 22.6079 66.7178ZM22.6079 69.8516C18.1611 69.8516 14.5781 66.3023 14.5781 61.8555C14.5781 57.4087 18.1611 53.792 22.6079 53.792C27.0883 53.792 30.6713 57.4087 30.6713 61.8555C30.6713 66.3023 27.0883 69.8516 22.6079 69.8516Z" fill="#000000" fill-opacity="0.2125"/>
 </g>
</svg>
