<?xml version="1.0" encoding="UTF-8"?>
<!--Generator: Apple Native CoreSVG 232.5-->
<!DOCTYPE svg
PUBLIC "-//W3C//DTD SVG 1.1//EN"
       "http://www.w3.org/Graphics/SVG/1.1/DTD/svg11.dtd">
<svg version="1.1" xmlns="http://www.w3.org/2000/svg" xmlns:xlink="http://www.w3.org/1999/xlink" width="76.5162" height="82.6367">
 <g>
  <rect height="82.6367" opacity="0" width="76.5162" x="0" y="0"/>
  <path d="M17.095 60.1577C26.5916 60.1577 33.492 51.9829 31.7913 41.6543L28.8294 23.7363C28.3748 20.8994 29.2757 19.1836 31.9275 17.9326C37.6599 15.1709 43.9251 13.4502 51.8406 12.2564C56.616 11.5845 59.1888 8.02149 59.1888 3.11328C59.1888 1.0625 58.1179 0 55.1258 0C45.2097 0 35.3762 1.56934 25.3289 5.06494C7.96413 11.0962-2.1477 21.6216 0.386482 35.313L2.86842 48.6455C4.30641 56.4854 10.9524 60.1577 17.095 60.1577ZM17.095 53.3076C12.5657 53.3076 8.96754 49.7432 8.96754 45.1836C8.96754 40.624 12.5657 37.0747 17.095 37.0747C21.6209 37.0747 25.1853 40.6577 25.1853 45.1836C25.1853 49.7095 21.6209 53.3076 17.095 53.3076ZM17.095 50.1587C19.8645 50.1587 22.0515 47.9868 22.0515 45.1836C22.0515 42.4141 19.8645 40.2085 17.095 40.2085C14.2883 40.2085 12.1165 42.4141 12.1165 45.1836C12.1165 47.9868 14.2883 50.1587 17.095 50.1587ZM17.095 64.5611C9.93873 64.5611 3.76588 60.8736 0.593513 55.1099C1.42213 70.3555 14.9841 78.5215 31.4378 78.5215C35.6961 78.5215 38.7371 77.9507 41.677 76.4488C47.6731 66.0073 51.9348 55.0322 54.6306 43.19C51.6048 36.7813 44.4754 32.4439 34.2835 29.8189L36.1458 40.9336C38.2556 53.7442 29.4964 64.5611 17.095 64.5611Z" fill="#000000" fill-opacity="0.85"/>
  <path d="M76.5052 62.7979C76.5052 52.4048 68.6258 45.0484 59.0188 43.8179C56.1765 56.2901 51.6487 68.0567 45.1946 79.0689C48.3528 81.2305 52.3875 82.5542 56.8499 82.5542C68.6619 82.5542 76.5052 74.6284 76.5052 62.7979Z" fill="#000000" fill-opacity="0.425"/>
  <path d="M17.095 53.3076C12.5657 53.3076 8.96754 49.7432 8.96754 45.1836C8.96754 40.624 12.5657 37.0747 17.095 37.0747C21.6209 37.0747 25.1853 40.6577 25.1853 45.1836C25.1853 49.7095 21.6209 53.3076 17.095 53.3076ZM17.095 50.1587C19.8645 50.1587 22.0515 47.9868 22.0515 45.1836C22.0515 42.4141 19.8645 40.2085 17.095 40.2085C14.2883 40.2085 12.1165 42.4141 12.1165 45.1836C12.1165 47.9868 14.2883 50.1587 17.095 50.1587Z" fill="#000000" fill-opacity="0.2125"/>
 </g>
</svg>
