<?xml version="1.0" encoding="UTF-8"?>
<!--Generator: Apple Native CoreSVG 232.5-->
<!DOCTYPE svg
PUBLIC "-//W3C//DTD SVG 1.1//EN"
       "http://www.w3.org/Graphics/SVG/1.1/DTD/svg11.dtd">
<svg version="1.1" xmlns="http://www.w3.org/2000/svg" xmlns:xlink="http://www.w3.org/1999/xlink" width="81.4063" height="77.4258">
 <g>
  <rect height="77.4258" opacity="0" width="81.4063" x="0" y="0"/>
  <path d="M34.3901 48.6094C40.999 51.4331 48.6519 48.2002 51.5396 41.6738L61.0698 19.9092C63.9575 13.3794 60.792 5.59863 54.1831 2.71094C47.5103-0.0825197 39.8877 3.01904 36.936 9.75586L27.4243 31.4448C24.5029 38.0689 27.7324 45.7066 34.3901 48.6094ZM39.2915 44.999C34.5889 44.999 30.8814 41.2578 30.8814 36.5249C30.8814 31.8408 34.6226 28.0659 39.2915 28.0659C44.0733 28.0659 47.8145 31.8408 47.8145 36.5249C47.8145 41.2578 44.0733 44.999 39.2915 44.999ZM39.2915 41.8501C42.3843 41.8501 44.647 39.5015 44.647 36.5249C44.647 33.582 42.3843 31.1997 39.2915 31.1997C36.3115 31.1997 34.0152 33.582 34.0152 36.5249C34.0152 39.5015 36.3115 41.8501 39.2915 41.8501ZM80.3623 34.708C77.8687 26.3399 71.5279 22.3208 66.251 17.98C65.9732 19.2612 65.6162 20.46 65.0791 21.6773L55.5337 43.4419C51.6475 52.2617 41.4419 56.3584 32.6221 52.6524C24.2398 48.9546 20.0606 39.7065 22.8613 31.3125C19.0503 36.1084 18.0098 43.6909 21.2124 52.5747C27.1191 69.1533 42.2446 72.3003 57.0772 66.4761L66.0029 62.9351C78.1431 58.1548 83.9185 46.897 80.3623 34.708Z" fill="#000000" fill-opacity="0.85"/>
  <path d="M17.0718 54.0498C14.8677 47.9966 14.376 42.041 15.6489 36.2134C6.63574 38.5523 0 46.7236 0 56.4912C0 68.0757 9.3501 77.4258 20.8521 77.4258C26.1812 77.4258 31.0103 75.4575 34.6792 72.1489C26.6997 69.5694 20.4175 63.3999 17.0718 54.0498Z" fill="#000000" fill-opacity="0.425"/>
  <path d="M39.2915 44.999C34.5889 44.999 30.8814 41.2578 30.8814 36.5249C30.8814 31.8408 34.6226 28.0659 39.2915 28.0659C44.0733 28.0659 47.8145 31.8408 47.8145 36.5249C47.8145 41.2578 44.0733 44.999 39.2915 44.999ZM39.2915 41.8501C42.3843 41.8501 44.647 39.5015 44.647 36.5249C44.647 33.582 42.3843 31.1997 39.2915 31.1997C36.3115 31.1997 34.0152 33.582 34.0152 36.5249C34.0152 39.5015 36.3115 41.8501 39.2915 41.8501Z" fill="#000000" fill-opacity="0.2125"/>
 </g>
</svg>
