<?xml version="1.0" encoding="UTF-8"?>
<!--Generator: Apple Native CoreSVG 232.5-->
<!DOCTYPE svg
PUBLIC "-//W3C//DTD SVG 1.1//EN"
       "http://www.w3.org/Graphics/SVG/1.1/DTD/svg11.dtd">
<svg version="1.1" xmlns="http://www.w3.org/2000/svg" xmlns:xlink="http://www.w3.org/1999/xlink" width="121.685" height="87.0166">
 <g>
  <rect height="87.0166" opacity="0" width="121.685" x="0" y="0"/>
  <path d="M0 43.499C0 59.833 7.87305 74.3745 23.2363 81.7783C30.6939 85.417 40.273 87.0166 53.812 87.0166L67.8882 87.0166C81.4121 87.0166 90.9912 85.417 98.4488 81.7783C113.812 74.3745 121.685 59.833 121.685 43.499C121.685 28.8472 113.669 14.3848 98.4488 7.04492C90.9912 3.40625 81.4121 1.80664 67.8882 1.80664L53.812 1.80664C40.273 1.80664 30.6939 3.40625 23.2363 7.04492C7.98242 14.3848 0 28.8472 0 43.499ZM6.06007 43.499C6.06007 27.4063 17.063 13.7261 33.7891 9.7256C39.1416 8.47121 45.7149 7.83644 53.812 7.83644L67.8882 7.83644C80.6206 7.83644 89.3086 9.31642 95.8179 12.5054C108.063 18.4102 115.625 30.2466 115.625 43.499C115.625 64.0654 101.827 78.6279 79.7754 80.4009C76.2261 80.7915 72.2861 80.9868 67.8882 80.9868L53.812 80.9868C41.0645 80.9868 32.3765 79.5068 25.8672 76.3179C13.2798 70.2666 6.06007 58.3477 6.06007 43.499ZM8.18555 25.813L113.548 25.813L113.548 21.6987L8.18555 21.6987ZM60.8838 60.4038C66.2617 60.4038 70.6782 56.0513 70.6782 50.8535C70.6782 45.4233 66.1641 40.9429 60.8838 40.9429C58.9273 40.9429 57.1694 41.4649 55.5698 42.6704L55.5698 34.9116L51.1382 36.8345L51.1382 50.8535C51.1382 56.1675 55.3745 60.4038 60.8838 60.4038ZM60.8838 56.0513C57.9658 56.0513 55.5698 53.6553 55.5698 50.8535C55.5698 47.9356 58.0147 45.5059 60.8838 45.5059C63.7681 45.5059 66.1641 47.9995 66.1641 50.8535C66.1641 53.6553 63.7681 56.0513 60.8838 56.0513Z" fill="#000000" fill-opacity="0.85"/>
 </g>
</svg>
