<?xml version="1.0" encoding="UTF-8"?>
<!--Generator: Apple Native CoreSVG 232.5-->
<!DOCTYPE svg
PUBLIC "-//W3C//DTD SVG 1.1//EN"
       "http://www.w3.org/Graphics/SVG/1.1/DTD/svg11.dtd">
<svg version="1.1" xmlns="http://www.w3.org/2000/svg" xmlns:xlink="http://www.w3.org/1999/xlink" width="95.5571" height="95.1748">
 <g>
  <rect height="95.1748" opacity="0" width="95.5571" x="0" y="0"/>
  <path d="M29.1597 95.1109L66.0845 95.1109C85.4512 95.1109 95.5571 85.1294 95.5571 65.9512L95.5571 29.1748C95.5571 9.99658 85.4512 0 66.0845 0L29.1597 0C9.98145 0 0 9.99658 0 29.1748L0 65.9512C0 85.1294 9.98145 95.1109 29.1597 95.1109ZM28.4487 89.0811C13.7222 89.0811 6.04494 81.3701 6.04494 66.6621L6.04494 28.4639C6.04494 13.7222 13.7222 6.04494 28.4487 6.04494L67.4063 6.04494C81.9106 6.04494 89.5122 13.5523 89.5122 27.8379L89.5122 67.273C89.5122 81.5737 81.9106 89.0811 67.4063 89.0811ZM47.7617 70.6587C60.5396 70.6587 70.8423 60.1607 70.8423 47.563C70.8423 34.8189 60.2954 24.5649 47.7617 24.5649C45.5156 24.5649 43.4649 24.7603 41.6582 25.2974L41.6582 38.3833C43.4649 37.0649 45.5982 36.3325 47.7617 36.3325C53.7524 36.3325 58.8794 41.5083 58.8794 47.563C58.8794 53.6177 53.8652 58.5493 47.7617 58.5493C41.5454 58.5493 36.6777 53.7153 36.6777 47.563L36.6777 27.2993C29.3384 31.4009 24.7149 39.0181 24.7149 47.563C24.7149 60.4048 35.0024 70.6587 47.7617 70.6587ZM47.7617 53.6665C51.0181 53.6665 53.8164 50.7857 53.8164 47.563C53.8164 44.438 50.9356 41.5571 47.7617 41.5571C44.5879 41.5571 41.7407 44.2915 41.7407 47.563C41.7407 50.9321 44.4751 53.6665 47.7617 53.6665Z" fill="#000000" fill-opacity="0.85"/>
 </g>
</svg>
