<?xml version="1.0" encoding="UTF-8"?>
<!--Generator: Apple Native CoreSVG 232.5-->
<!DOCTYPE svg
PUBLIC "-//W3C//DTD SVG 1.1//EN"
       "http://www.w3.org/Graphics/SVG/1.1/DTD/svg11.dtd">
<svg version="1.1" xmlns="http://www.w3.org/2000/svg" xmlns:xlink="http://www.w3.org/1999/xlink" width="81.4063" height="77.4258">
 <g>
  <rect height="77.4258" opacity="0" width="81.4063" x="0" y="0"/>
  <path d="M47.0161 48.6094C53.6738 45.7066 56.8696 38.0689 53.9668 31.4448L44.4702 9.75586C41.4849 3.01904 33.896-0.0825197 27.208 2.71094C20.5991 5.59863 17.4487 13.3794 20.3213 19.9092L29.8667 41.6738C32.7393 48.2002 40.4072 51.4331 47.0161 48.6094ZM42.0996 44.999C37.3179 44.999 33.5767 41.2578 33.5767 36.5249C33.5767 31.8408 37.3179 28.0659 42.0996 28.0659C46.7686 28.0659 50.5098 31.8408 50.5098 36.5249C50.5098 41.2578 46.8023 44.999 42.0996 44.999ZM42.0996 41.8501C45.0796 41.8501 47.376 39.5015 47.376 36.5249C47.376 33.582 45.0796 31.1997 42.0996 31.1997C39.022 31.1997 36.7105 33.582 36.7105 36.5249C36.7105 39.5015 39.022 41.8501 42.0996 41.8501ZM1.04395 34.708C-2.51221 46.897 3.26318 58.1548 15.4033 62.9351L24.3291 66.4761C39.1465 72.3003 54.2383 69.1533 60.1939 52.5747C63.3965 43.6909 62.356 36.1084 58.5449 31.3125C61.3306 39.7065 57.1177 48.9546 48.7691 52.6524C39.9492 56.3584 29.7437 52.2617 25.8574 43.4419L16.3271 21.6773C15.7749 20.46 15.3994 19.2612 15.1401 17.98C9.84473 22.3208 3.48877 26.3399 1.04395 34.708Z" fill="#000000" fill-opacity="0.85"/>
  <path d="M64.3345 54.0498C60.9888 63.3999 54.7066 69.5694 46.7119 72.1489C50.3809 75.4575 55.1914 77.4258 60.5205 77.4258C72.0562 77.4258 81.4063 68.0757 81.4063 56.4912C81.4063 46.7236 74.7554 38.5523 65.7573 36.2134C66.9966 42.041 66.5235 47.9966 64.3345 54.0498Z" fill="#000000" fill-opacity="0.425"/>
  <path d="M42.0996 44.999C37.3179 44.999 33.5767 41.2578 33.5767 36.5249C33.5767 31.8408 37.3179 28.0659 42.0996 28.0659C46.7686 28.0659 50.5098 31.8408 50.5098 36.5249C50.5098 41.2578 46.8023 44.999 42.0996 44.999ZM42.0996 41.8501C45.0796 41.8501 47.376 39.5015 47.376 36.5249C47.376 33.582 45.0796 31.1997 42.0996 31.1997C39.022 31.1997 36.7105 33.582 36.7105 36.5249C36.7105 39.5015 39.022 41.8501 42.0996 41.8501Z" fill="#000000" fill-opacity="0.2125"/>
 </g>
</svg>
