<?xml version="1.0" encoding="UTF-8"?>
<!--Generator: Apple Native CoreSVG 232.5-->
<!DOCTYPE svg
PUBLIC "-//W3C//DTD SVG 1.1//EN"
       "http://www.w3.org/Graphics/SVG/1.1/DTD/svg11.dtd">
<svg version="1.1" xmlns="http://www.w3.org/2000/svg" xmlns:xlink="http://www.w3.org/1999/xlink" width="64.8931" height="91.7578">
 <g>
  <rect height="91.7578" opacity="0" width="64.8931" x="0" y="0"/>
  <path d="M42.2832 0C19.0874 0 0 26.6543 0 59.313C0 74.6792 4.11182 91.6753 8.93604 91.6753C13.0122 91.6753 16.2383 86.3111 16.5078 81.0947C8.96436 78.9209 3.42627 71.9785 3.42627 63.7818C3.42627 58.9273 5.27686 54.5947 8.66651 51.148C10.2881 28.4541 24.8848 8.5166 41.7612 8.5166C51.8101 8.5166 56.4253 16.0044 56.4253 29.9175L16.3311 50.8452C10.5068 53.9131 7.81446 58.6597 7.81446 63.7818C7.81446 71.1939 13.8897 77.3784 21.3774 77.3784C25.0649 77.3784 27.5703 76.4019 32.79 73.5967L52.9517 62.5191C61.7612 57.6748 64.8931 51.8169 64.8931 39.3872L64.8931 28.4492C64.8931 10.9951 57.2251 0 42.2832 0ZM21.1567 72.4986C16.2856 72.4986 12.3911 68.5552 12.3911 63.7178C12.3911 58.8955 16.2856 54.937 21.1567 54.937C25.9639 54.937 29.9224 58.8955 29.9224 63.7178C29.9224 68.5401 25.9639 72.4986 21.1567 72.4986ZM21.1567 69.3496C24.2412 69.3496 26.7886 66.8174 26.7886 63.7178C26.7886 60.6519 24.2412 58.0708 21.1567 58.0708C18.0083 58.0708 15.5249 60.6519 15.5249 63.7178C15.5249 66.8174 18.0083 69.3496 21.1567 69.3496Z" fill="#000000" fill-opacity="0.85"/>
  <path d="M21.1567 72.4986C16.2856 72.4986 12.3911 68.5552 12.3911 63.7178C12.3911 58.8955 16.2856 54.937 21.1567 54.937C25.9639 54.937 29.9224 58.8955 29.9224 63.7178C29.9224 68.5401 25.9639 72.4986 21.1567 72.4986ZM21.1567 69.3496C24.2412 69.3496 26.7886 66.8174 26.7886 63.7178C26.7886 60.6519 24.2412 58.0708 21.1567 58.0708C18.0083 58.0708 15.5249 60.6519 15.5249 63.7178C15.5249 66.8174 18.0083 69.3496 21.1567 69.3496Z" fill="#000000" fill-opacity="0.2125"/>
 </g>
</svg>
