<?xml version="1.0" encoding="UTF-8"?>
<!--Generator: Apple Native CoreSVG 232.5-->
<!DOCTYPE svg
PUBLIC "-//W3C//DTD SVG 1.1//EN"
       "http://www.w3.org/Graphics/SVG/1.1/DTD/svg11.dtd">
<svg version="1.1" xmlns="http://www.w3.org/2000/svg" xmlns:xlink="http://www.w3.org/1999/xlink" width="121.685" height="87.0166">
 <g>
  <rect height="87.0166" opacity="0" width="121.685" x="0" y="0"/>
  <path d="M53.812 87.0166L67.8882 87.0166C81.4121 87.0166 90.9912 85.417 98.4488 81.7783C113.812 74.3745 121.685 59.833 121.685 43.499C121.685 36.9981 120.416 30.7832 117.937 25.1694L3.74805 25.1694C1.26953 30.7832 0 36.9981 0 43.499C0 59.833 7.87305 74.3745 23.2363 81.7783C30.6939 85.417 40.273 87.0166 53.812 87.0166ZM60.8838 60.9951C55.2549 60.9951 50.9512 56.6914 50.9512 51.2427L50.9512 36.9356L55.4351 34.979L55.4351 42.9063C57.1172 41.667 58.8936 41.145 60.8838 41.145C66.2652 41.145 70.8804 45.7114 70.8804 51.2427C70.8804 56.5752 66.3814 60.9951 60.8838 60.9951ZM60.8838 56.5752C63.8355 56.5752 66.2652 54.1118 66.2652 51.2427C66.2652 48.3213 63.8355 45.794 60.8838 45.794C57.9473 45.794 55.4351 48.2573 55.4351 51.2427C55.4351 54.1118 57.8984 56.5752 60.8838 56.5752ZM5.88184 21.0552L115.803 21.0552C111.954 14.4365 106.14 8.91895 98.4488 5.26856C90.9912 1.58105 81.4121 0.0151366 67.8882 0.0151366L53.812 0.0151366C40.273 0.0151366 30.6939 1.58105 23.2363 5.26856C15.5449 8.91895 9.73096 14.4365 5.88184 21.0552Z" fill="#000000" fill-opacity="0.85"/>
 </g>
</svg>
