<?xml version="1.0" encoding="UTF-8"?>
<!--Generator: Apple Native CoreSVG 232.5-->
<!DOCTYPE svg
PUBLIC "-//W3C//DTD SVG 1.1//EN"
       "http://www.w3.org/Graphics/SVG/1.1/DTD/svg11.dtd">
<svg version="1.1" xmlns="http://www.w3.org/2000/svg" xmlns:xlink="http://www.w3.org/1999/xlink" width="97.9595" height="97.9932">
 <g>
  <rect height="97.9932" opacity="0" width="97.9595" x="0" y="0"/>
  <path d="M97.9595 49.021C97.9595 75.8584 75.8247 97.9932 48.9722 97.9932C22.1685 97.9932 0 75.8584 0 49.021C0 22.2173 22.1348 0.0488281 48.9385 0.0488281C75.791 0.0488281 97.9595 22.2173 97.9595 49.021ZM25.0337 45.4165C21.0796 45.4165 18.7339 47.7622 18.7339 51.7432L18.7339 66.7881C18.7339 67.9819 19.4766 68.6421 20.6216 68.6421L21.8828 68.6421C23.0278 68.6421 23.752 67.9819 23.752 66.7881L23.752 63.0303C23.9995 63.0791 24.584 63.0791 25.064 63.0791L72.8955 63.0791C73.3755 63.0791 73.9448 63.0791 74.2075 63.0303L74.2075 66.7881C74.2075 67.9819 74.9316 68.6421 76.0615 68.6421L77.3379 68.6421C78.5166 68.6421 79.2256 67.9819 79.2256 66.7881L79.2256 51.7432C79.2256 47.7622 76.8799 45.4165 72.9258 45.4165ZM30.7612 29.3813C26.8579 29.3813 24.6353 31.4946 24.6353 35.7378L24.6353 42.5283L30.3604 42.5283L30.3604 39.3257C30.3604 37.1704 31.5776 35.8857 33.7852 35.8857L43.2051 35.8857C45.3452 35.8857 46.5962 37.1704 46.5962 39.3257L46.5962 42.5283L52.0195 42.5283L52.0195 39.3257C52.0195 37.1704 53.2705 35.8857 55.7236 35.8857L63.8462 35.8857C66.3667 35.8857 67.6177 37.1704 67.6177 39.3257L67.6177 42.5283L73.3428 42.5283L73.3428 35.7378C73.3428 31.4946 71.0864 29.3813 67.1982 29.3813Z" fill="#000000" fill-opacity="0.85"/>
 </g>
</svg>
