<?xml version="1.0" encoding="UTF-8"?>
<!--Generator: Apple Native CoreSVG 232.5-->
<!DOCTYPE svg
PUBLIC "-//W3C//DTD SVG 1.1//EN"
       "http://www.w3.org/Graphics/SVG/1.1/DTD/svg11.dtd">
<svg version="1.1" xmlns="http://www.w3.org/2000/svg" xmlns:xlink="http://www.w3.org/1999/xlink" width="97.9595" height="97.9932">
 <g>
  <rect height="97.9932" opacity="0" width="97.9595" x="0" y="0"/>
  <path d="M97.9595 48.9722C97.9595 75.7759 75.8247 97.9443 48.9722 97.9443C22.1685 97.9443 0 75.7759 0 48.9722C0 22.1348 22.1348 0 48.9385 0C75.791 0 97.9595 22.1348 97.9595 48.9722ZM6.36671 48.9722C6.36671 72.5942 25.3501 91.6113 48.9722 91.6113C72.5942 91.6113 91.6265 72.5942 91.6265 48.9722C91.6265 25.3501 72.5605 6.31789 48.9385 6.31789C25.3164 6.31789 6.36671 25.3501 6.36671 48.9722Z" fill="#000000" fill-opacity="0.85"/>
  <path d="M48.9722 77.4092C44.564 77.4092 41.4858 74.4102 41.0532 70.3794L56.9063 70.3794C56.4922 74.4102 53.3804 77.4092 48.9722 77.4092ZM59.5562 66.6445L26.7915 66.6445C24.8579 66.6445 23.7261 65.5835 23.7261 64.0425C23.7261 61.293 26.3882 58.9795 28.6226 56.5044C30.853 54.0703 31.0015 49.1533 31.4878 44.8814C31.5907 42.8708 31.8047 40.9868 32.1569 39.2557ZM56.3643 26.9404C63.2359 29.2139 66.0342 35.7373 66.5054 44.8814C66.958 49.1533 67.0576 54.0855 69.3369 56.5044C71.6538 58.9458 74.2334 61.293 74.2334 64.0425C74.2334 64.9321 73.8562 65.6617 73.1699 66.1179L36.8221 29.7589C38.1167 28.5132 39.6936 27.5659 41.5801 26.9404C42.4912 23.3677 45.229 20.6416 48.9722 20.6416C52.7305 20.6416 55.4868 23.3677 56.3643 26.9404Z" fill="#000000" fill-opacity="0.85"/>
  <path d="M72.0684 74.773C72.7773 75.4971 74.0303 75.5122 74.7393 74.773C75.4971 73.9663 75.4971 72.8447 74.7393 72.102L25.8423 23.1411C25.0996 22.3984 23.8804 22.3984 23.1377 23.1411C22.3648 23.8804 22.4136 25.103 23.1377 25.8272Z" fill="#000000" fill-opacity="0.85"/>
 </g>
</svg>
