<?xml version="1.0" encoding="UTF-8"?>
<!--Generator: Apple Native CoreSVG 232.5-->
<!DOCTYPE svg
PUBLIC "-//W3C//DTD SVG 1.1//EN"
       "http://www.w3.org/Graphics/SVG/1.1/DTD/svg11.dtd">
<svg version="1.1" xmlns="http://www.w3.org/2000/svg" xmlns:xlink="http://www.w3.org/1999/xlink" width="90.7764" height="99.2627">
 <g>
  <rect height="99.2627" opacity="0" width="90.7764" x="0" y="0"/>
  <path d="M0 77.7944C0 80.6626 2.14405 82.5371 5.69288 82.5371L28.7808 82.5371C29.0806 91.6885 35.8633 99.2139 45.3789 99.2139C54.9131 99.2139 61.6958 91.7222 61.9956 82.5371L85.0835 82.5371C88.5986 82.5371 90.7764 80.6626 90.7764 77.7944C90.7764 72.8813 86.0078 68.5928 81.9448 64.2622C77.9653 59.9697 77.5557 51.2046 76.7261 43.5157C75.9302 26.8052 70.9951 15.3867 58.582 11.3501C57.1943 4.80225 52.1816 0 45.3789 0C38.5947 0 33.5483 4.80225 32.1943 11.3501C19.7812 15.3867 14.8462 26.8052 14.0503 43.5157C13.2207 51.2046 12.811 59.9697 8.83155 64.2622C4.73486 68.5928 0 72.8813 0 77.7944ZM7.20217 76.8291L7.20217 76.2734C7.79348 74.3276 11.0713 70.8564 13.8526 67.8428C18.2915 63.0586 19.0889 54.3531 20.0127 44.1202C20.9331 25.9912 26.5391 18.9619 35.0249 16.6519C36.4424 16.2832 37.2471 15.6821 37.3716 14.2915C37.7149 9.28907 40.6748 5.58839 45.3789 5.58839C50.1016 5.58839 53.0278 9.28907 53.4048 14.2915C53.5293 15.6821 54.3003 16.2832 55.7178 16.6519C64.2373 18.9619 69.8433 25.9912 70.7637 44.1202C71.6875 54.3531 72.4849 63.0586 76.8901 67.8428C79.7051 70.8564 82.9492 74.3276 83.5405 76.2734L83.5405 76.8291ZM34.6572 82.5371L56.1191 82.5371C55.7285 89.4653 51.3931 93.8579 45.3789 93.8579C39.3833 93.8579 35.0142 89.4653 34.6572 82.5371Z" fill="#000000" fill-opacity="0.85"/>
 </g>
</svg>
