<?xml version="1.0" encoding="UTF-8"?>
<!--Generator: Apple Native CoreSVG 232.5-->
<!DOCTYPE svg
PUBLIC "-//W3C//DTD SVG 1.1//EN"
       "http://www.w3.org/Graphics/SVG/1.1/DTD/svg11.dtd">
<svg version="1.1" xmlns="http://www.w3.org/2000/svg" xmlns:xlink="http://www.w3.org/1999/xlink" width="109.658" height="105.552">
 <g>
  <rect height="105.552" opacity="0" width="109.658" x="0" y="0"/>
  <path d="M30.5543 37.7306C30.0079 40.4916 29.6412 43.6586 29.4611 47.2649C28.571 57.4978 27.7399 66.2033 23.3346 70.9875C20.5197 74.0012 17.2604 77.4724 16.6843 79.4182L16.6843 79.9738L72.8224 79.9738L78.5338 85.6818L71.4289 85.6818C71.1291 94.8669 64.3615 102.359 54.8459 102.359C45.2965 102.359 38.529 94.8332 38.2292 85.6818L15.1413 85.6818C11.611 85.6818 9.43327 83.8073 9.43327 80.9392C9.43327 76.0261 14.217 71.7375 18.3136 67.4069C22.278 63.1145 22.654 54.3493 23.4836 46.6604C23.7305 41.4761 24.3758 36.8013 25.5213 32.7005ZM44.1056 85.6818C44.4811 92.6101 48.8317 97.0026 54.8459 97.0026C60.8263 97.0026 65.1955 92.6101 65.5524 85.6818ZM68.0641 14.4948C80.4621 18.5314 85.3786 29.9499 86.2082 46.6604C87.0041 54.3493 87.4137 63.1145 91.3781 67.4069C95.4748 71.7375 100.21 76.0261 100.21 80.9392C100.21 82.0937 99.8622 83.0872 99.2103 83.8584L86.631 71.2839C86.5384 71.1839 86.4475 71.0854 86.3571 70.9875C81.9181 66.2033 81.1208 57.4978 80.2306 47.2649C79.2765 29.1359 73.6706 22.1066 65.1999 19.7966C63.7824 19.4279 62.9626 18.8269 62.8532 17.4362C62.4948 12.4338 59.55 8.73311 54.8459 8.73311C50.1081 8.73311 47.1969 12.4338 46.8049 17.4362C46.6955 18.8269 45.9094 19.4279 44.4919 19.7966C42.1706 20.4271 40.0642 21.4092 38.2191 22.8903L33.9689 18.6418C36.1169 16.8484 38.6583 15.4604 41.6276 14.4948C43.0304 7.94697 48.0431 3.14472 54.8459 3.14472C61.6149 3.14472 66.6613 7.94697 68.0641 14.4948Z" fill="#000000" fill-opacity="0.85"/>
  <path d="M10.8542 10.9226L99.6393 99.6403C100.786 100.821 102.668 100.821 103.766 99.6403C104.928 98.4934 104.913 96.6794 103.766 95.5139L15.0143 6.78096C13.8976 5.66426 12.0651 5.63399 10.8542 6.78096C9.74088 7.89424 9.74088 9.80929 10.8542 10.9226Z" fill="#000000" fill-opacity="0.85"/>
 </g>
</svg>
