<?xml version="1.0" encoding="UTF-8"?>
<!--Generator: Apple Native CoreSVG 232.5-->
<!DOCTYPE svg
PUBLIC "-//W3C//DTD SVG 1.1//EN"
       "http://www.w3.org/Graphics/SVG/1.1/DTD/svg11.dtd">
<svg version="1.1" xmlns="http://www.w3.org/2000/svg" xmlns:xlink="http://www.w3.org/1999/xlink" width="169.932" height="99.2627">
 <g>
  <rect height="99.2627" opacity="0" width="169.932" x="0" y="0"/>
  <path d="M17.44 82.082C18.624 80.7481 18.2417 78.9526 16.9077 77.4653C10.0469 70.1143 6.09718 60.3926 6.09718 49.6069C6.09718 38.8213 10.0469 29.0845 16.9077 21.7485C18.2417 20.2612 18.624 18.4658 17.44 17.1318C16.2407 15.7153 14.1421 15.7793 12.7256 17.3154C4.68066 25.8018 0 37.1875 0 49.6069C0 62.0264 4.68066 73.3633 12.7256 81.8985C14.1421 83.4346 16.2407 83.4649 17.44 82.082ZM152.477 82.082C153.691 83.4649 155.79 83.4346 157.206 81.8985C165.236 73.3633 169.932 62.0264 169.932 49.6069C169.932 37.1875 165.236 25.8018 157.206 17.3154C155.79 15.7793 153.691 15.7153 152.477 17.1318C151.308 18.4658 151.69 20.2612 153.024 21.7485C159.885 29.0845 163.819 38.8213 163.819 49.6069C163.819 60.3926 159.885 70.1143 153.024 77.4653C151.69 78.9526 151.308 80.7481 152.477 82.082Z" fill="#000000" fill-opacity="0.85"/>
  <path d="M30.8545 68.3779C32.0386 67.044 31.5703 65.3159 30.3408 63.7612C26.9722 60.0688 25.3594 55.0332 25.3594 49.6069C25.3594 44.1807 26.9722 39.0962 30.3408 35.4526C31.5703 33.898 32.0386 32.1699 30.8545 30.8359C29.6216 29.4194 27.3882 29.4346 26.0728 31.0869C21.7339 36.0879 19.2622 42.5806 19.2622 49.6069C19.2622 56.6333 21.7339 63.126 26.0728 68.127C27.3882 69.7642 29.6216 69.7608 30.8545 68.3779ZM139.043 68.3779C140.31 69.7608 142.51 69.7642 143.859 68.127C148.183 63.126 150.669 56.6333 150.669 49.6069C150.669 42.5806 148.183 36.0879 143.859 31.0869C142.51 29.4346 140.31 29.4194 139.043 30.8359C137.893 32.1699 138.361 33.898 139.576 35.4526C142.911 39.0962 144.557 44.1807 144.557 49.6069C144.557 55.0332 142.911 60.0688 139.576 63.7612C138.361 65.3159 137.893 67.044 139.043 68.3779Z" fill="#000000" fill-opacity="0.85"/>
  <path d="M39.5776 77.7944C39.5776 80.6626 41.7217 82.5371 45.2705 82.5371L68.3584 82.5371C68.6582 91.6885 75.4258 99.2139 84.9414 99.2139C94.4907 99.2139 101.273 91.7222 101.573 82.5371L124.661 82.5371C128.176 82.5371 130.354 80.6626 130.354 77.7944C130.354 72.8813 125.585 68.5928 121.522 64.2622C117.543 59.9697 117.133 51.2046 116.304 43.5157C115.508 26.8052 110.573 15.3867 98.1597 11.3501C96.772 4.80225 91.7442 0 84.9414 0C78.1724 0 73.126 4.80225 71.772 11.3501C59.3589 15.3867 54.4238 26.8052 53.6128 43.5157C52.7832 51.2046 52.3735 59.9697 48.4092 64.2622C44.3125 68.5928 39.5776 72.8813 39.5776 77.7944ZM46.7798 76.8291L46.7798 76.2734C47.356 74.3276 50.649 70.8564 53.4302 67.8428C57.8692 63.0586 58.6665 54.3531 59.5904 44.1202C60.5108 25.9912 66.1167 18.9619 74.5874 16.6519C76.02 16.2832 76.8247 15.6821 76.9492 14.2915C77.2925 9.28907 80.2373 5.58839 84.9414 5.58839C89.6792 5.58839 92.6055 9.28907 92.9824 14.2915C93.1069 15.6821 93.8779 16.2832 95.3291 16.6519C103.8 18.9619 109.421 25.9912 110.326 44.1202C111.25 54.3531 112.063 63.0586 116.468 67.8428C119.268 70.8564 122.527 74.3276 123.103 76.2734L123.103 76.8291ZM74.2349 82.5371L95.6817 82.5371C95.3399 89.4653 90.9707 93.8579 84.9414 93.8579C78.961 93.8579 74.5918 89.4653 74.2349 82.5371Z" fill="#000000" fill-opacity="0.85"/>
 </g>
</svg>
