<?xml version="1.0" encoding="UTF-8"?>
<!--Generator: Apple Native CoreSVG 232.5-->
<!DOCTYPE svg
PUBLIC "-//W3C//DTD SVG 1.1//EN"
       "http://www.w3.org/Graphics/SVG/1.1/DTD/svg11.dtd">
<svg version="1.1" xmlns="http://www.w3.org/2000/svg" xmlns:xlink="http://www.w3.org/1999/xlink" width="97.9595" height="97.9932">
 <g>
  <rect height="97.9932" opacity="0" width="97.9595" x="0" y="0"/>
  <path d="M48.9722 97.9443C75.8247 97.9443 97.9595 75.7759 97.9595 48.9722C97.9595 22.1348 75.791 0 48.9385 0C22.1348 0 0 22.1348 0 48.9722C0 75.7759 22.1685 97.9443 48.9722 97.9443ZM48.9722 91.6113C25.3501 91.6113 6.36671 72.5942 6.36671 48.9722C6.36671 25.3501 25.3164 6.31789 48.9385 6.31789C72.5605 6.31789 91.6265 25.3501 91.6265 48.9722C91.6265 72.5942 72.5942 91.6113 48.9722 91.6113Z" fill="#000000" fill-opacity="0.85"/>
  <path d="M26.7915 66.6445L71.2017 66.6445C73.1016 66.6445 74.2334 65.5835 74.2334 64.0425C74.2334 61.293 71.6538 58.9458 69.3369 56.5044C67.0576 54.0855 66.958 49.1533 66.5054 44.8814C66.0342 35.7373 63.2359 29.2139 56.3643 26.9404C55.4868 23.3677 52.7305 20.6416 48.9722 20.6416C45.229 20.6416 42.4912 23.3677 41.5801 26.9404C34.7236 29.2139 31.9556 35.7373 31.4878 44.8814C31.0015 49.1533 30.853 54.0703 28.6226 56.5044C26.3882 58.9795 23.7261 61.293 23.7261 64.0425C23.7261 65.5835 24.8579 66.6445 26.7915 66.6445ZM48.9722 77.4092C53.3804 77.4092 56.4922 74.4102 56.9063 70.3794L41.0532 70.3794C41.4858 74.4102 44.564 77.4092 48.9722 77.4092Z" fill="#000000" fill-opacity="0.85"/>
 </g>
</svg>
