<?xml version="1.0" encoding="UTF-8"?>
<!--Generator: Apple Native CoreSVG 232.5-->
<!DOCTYPE svg
PUBLIC "-//W3C//DTD SVG 1.1//EN"
       "http://www.w3.org/Graphics/SVG/1.1/DTD/svg11.dtd">
<svg version="1.1" xmlns="http://www.w3.org/2000/svg" xmlns:xlink="http://www.w3.org/1999/xlink" width="157.726" height="97.4297">
 <g>
  <rect height="97.4297" opacity="0" width="157.726" x="0" y="0"/>
  <path d="M30.5132 97.4146C47.334 97.4146 60.9927 83.7559 60.9927 66.9351C60.9927 50.0806 47.3677 36.4556 30.5132 36.4556C13.6587 36.4556 0 50.0806 0 66.9351C0 83.7896 13.6587 97.4146 30.5132 97.4146ZM30.5132 91.5044C16.874 91.5044 5.94386 80.5894 5.94386 66.9351C5.94386 53.3599 16.9077 42.3657 30.5132 42.3657C44.0884 42.3657 55.0825 53.375 55.0825 66.9351C55.0825 80.5405 44.0884 91.5044 30.5132 91.5044ZM127.246 97.4297C144.067 97.4297 157.726 83.7861 157.726 66.9502C157.726 50.1108 144.067 36.4858 127.246 36.4858C110.407 36.4858 96.7144 50.1108 96.7144 66.9502C96.7144 83.8047 110.407 97.4297 127.246 97.4297ZM127.246 91.5195C113.622 91.5195 102.658 80.6196 102.658 66.9502C102.658 53.375 113.622 42.396 127.246 42.396C140.803 42.396 151.815 53.4575 151.815 66.9502C151.815 80.5557 140.803 91.5195 127.246 91.5195ZM83.7212 2.96094C83.7212 4.57618 85.0366 5.85792 86.667 5.85792L99.9038 5.85792C100.325 5.85792 100.483 5.97072 100.614 6.26027L124.099 67.2158L129.574 65.3042L105.303 2.77198C104.561 0.791505 103.237 0.0151366 100.874 0.0151366L86.667 0.0151366C85.0366 0.0151366 83.7212 1.33057 83.7212 2.96094ZM113.255 31.9185L113.255 26.4312L61.5391 34.2148L61.5391 39.7022ZM73.3066 70.4702L73.3066 64.9678L31.1982 64.9678L31.1982 70.4702ZM79.1318 76.5635C84.3418 76.5635 88.5532 72.3369 88.5532 67.1758C88.5532 61.9658 84.3418 57.7881 79.1318 57.7881C73.9033 57.7881 69.7593 61.9321 69.7256 67.1758C69.6582 72.3032 73.8696 76.5635 79.1318 76.5635ZM79.1958 71.2969C76.8608 71.2969 75.0259 69.4434 75.0259 67.2095C75.0259 64.8931 76.8608 63.0547 79.1958 63.0547C81.4819 63.0547 83.2832 64.8594 83.2832 67.2095C83.2832 69.4619 81.4819 71.2969 79.1958 71.2969ZM30.5132 72.4048C33.5293 72.4048 36.0015 69.9512 36.0015 66.9351C36.0015 63.8853 33.563 61.4468 30.5132 61.4468C27.4634 61.4468 25.0771 63.8516 25.0435 66.9351C25.0098 69.9512 27.4297 72.4048 30.5132 72.4048ZM127.246 72.4536C130.311 72.4536 132.716 69.9814 132.716 66.9502C132.716 63.9004 130.345 61.4956 127.246 61.4956C124.196 61.4956 121.791 63.8667 121.758 66.9502C121.724 69.9814 124.163 72.4536 127.246 72.4536ZM78.8642 59.6914L83.71 62.5293L113.43 29.8701L106.893 29.1987ZM28.2227 64.7056L33.0498 67.5283L62.4961 37.8711L58.0493 34.3311ZM72.8745 63.3242L77.7017 59.8916L55.2754 18.4658L49.5859 19.7256ZM41.0454 17.8979C41.0454 19.5283 42.3608 20.8101 43.9761 20.8101L62.0757 20.8101C63.6909 20.8101 65.0064 19.5283 65.0064 17.8979C65.0064 16.3164 63.6572 14.9673 62.0757 14.9673L43.9761 14.9673C42.3945 14.9673 41.0454 16.3164 41.0454 17.8979Z" fill="#000000" fill-opacity="0.85"/>
 </g>
</svg>
