<?xml version="1.0" encoding="UTF-8"?>
<!--Generator: Apple Native CoreSVG 232.5-->
<!DOCTYPE svg
PUBLIC "-//W3C//DTD SVG 1.1//EN"
       "http://www.w3.org/Graphics/SVG/1.1/DTD/svg11.dtd">
<svg version="1.1" xmlns="http://www.w3.org/2000/svg" xmlns:xlink="http://www.w3.org/1999/xlink" width="123.266" height="95.0635">
 <g>
  <rect height="95.0635" opacity="0" width="123.266" x="0" y="0"/>
  <path d="M0 72.0679C0 85.1611 11.7681 95.0635 26.4824 95.0635C41.1631 95.0635 52.8672 85.1611 52.8672 72.0679L52.8672 18.2793C52.8672 9.81299 47.2178 4.14355 38.2666 4.14355C31.4419 4.14355 25.9004 7.67285 23.2568 13.7026L2.33887 61.3921C0.518554 65.5918 0 68.7153 0 72.0679ZM12.2197 52.9707L28.4443 16.2022C30.2105 12.1143 33.7881 9.71339 38.0796 9.71339C43.7246 9.69825 47.2266 13.3887 47.2266 18.894L47.2266 58.2134C42.6465 52.6074 34.9961 49.0723 26.4824 49.0723C21.2588 49.0723 16.2554 50.5249 12.2197 52.9707ZM6.01613 72.0679C6.01613 61.8145 14.7964 54.7466 26.4824 54.7466C38.1348 54.7466 47.102 61.8145 47.102 72.0679C47.102 82.3364 38.165 89.374 26.4824 89.374C14.7964 89.374 6.01613 82.3062 6.01613 72.0679ZM123.266 72.0679C123.266 68.7153 122.713 65.5918 120.878 61.3921L100.009 13.7026C97.3164 7.67285 91.8086 4.14355 84.9839 4.14355C76.0479 4.14355 70.3833 9.81299 70.3833 18.2793L70.3833 72.0679C70.3833 85.1611 82.1025 95.0635 96.7832 95.0635C111.464 95.0635 123.266 85.1611 123.266 72.0679ZM111.046 52.9707C107.01 50.5249 101.992 49.0723 96.7832 49.0723C88.2695 49.0723 80.5855 52.6074 76.0054 58.2134L76.0054 18.894C76.0054 13.3887 79.541 9.69825 85.186 9.71339C89.4439 9.74366 92.9912 12.1143 94.7876 16.2022ZM117.216 72.0679C117.216 82.3062 108.436 89.374 96.7832 89.374C85.0669 89.374 76.1485 82.3364 76.1485 72.0679C76.1485 61.8145 85.082 54.7466 96.7832 54.7466C108.436 54.7466 117.216 61.8145 117.216 72.0679ZM50.519 59.3863C53.4268 57.5645 57.4897 56.4229 61.6875 56.4229C66.5625 56.4229 70.169 57.3438 73.043 59.3189L73.043 53.542C69.8203 52.0991 65.9932 51.3584 61.6875 51.3584C57.7559 51.3584 53.8765 52.2188 50.519 53.7105ZM50.519 45.3262C53.4268 43.4556 57.4897 42.3628 61.6875 42.3628C66.5625 42.3628 70.169 43.2349 73.043 45.2588L73.043 39.4819C69.8203 38.0239 65.9932 37.2832 61.6875 37.2832C57.7559 37.2832 53.8765 38.1587 50.519 39.6353ZM50.519 31.2173C53.4268 29.3955 57.4897 28.2539 61.6875 28.2539C66.5625 28.2539 70.169 29.1748 73.043 31.1499L73.043 25.4067C69.8203 23.9639 65.9932 23.1894 61.6875 23.1894C57.7559 23.1894 53.8765 24.0835 50.519 25.5752Z" fill="#000000" fill-opacity="0.85"/>
 </g>
</svg>
