<?xml version="1.0" encoding="UTF-8"?>
<!--Generator: Apple Native CoreSVG 232.5-->
<!DOCTYPE svg
PUBLIC "-//W3C//DTD SVG 1.1//EN"
       "http://www.w3.org/Graphics/SVG/1.1/DTD/svg11.dtd">
<svg version="1.1" xmlns="http://www.w3.org/2000/svg" xmlns:xlink="http://www.w3.org/1999/xlink" width="111.813" height="127.39">
 <g>
  <rect height="127.39" opacity="0" width="111.813" x="0" y="0"/>
  <path d="M80.0524 31.7078C73.2579 31.7078 68.0011 35.0794 63.402 45.4588C50.3351 31.5994 27.6134 18.2884 4.74377 16.5643C1.05041 16.3319 0.196891 18.8988 0.0992345 21.4129C-1.56922 46.1302 17.9957 66.6121 44.1319 68.5584C37.3395 84.6439 26.0485 98.9676 14.4044 109.894C12.8888 111.279 13.1315 113.143 14.2277 114.81C19.7555 123.289 36.9806 128.347 48.735 124.273C50.8873 123.478 51.4664 122.496 51.4664 120.405L51.4664 101.441C65.2218 101.082 86.3107 92.8587 82.3292 66.3377L81.5953 61.8446C91.7633 59.5731 98.3502 53.4525 98.3502 47.4881C98.3502 40.012 90.214 31.7078 80.0524 31.7078ZM84.9825 47.849C83.4132 47.849 82.1368 46.5911 82.1368 45.0369C82.1368 43.5013 83.4132 42.1912 84.9825 42.1912C86.5031 42.1912 87.7946 43.5013 87.7946 45.0369C87.7946 46.5911 86.5031 47.849 84.9825 47.849ZM93.129 54.0301L108.938 56.1908C111.804 56.6034 113.049 52.4134 110.149 51.1942L95.9127 45.2664ZM73.7687 26.9417C67.5001 15.2723 59.4318 6.85725 48.7506 0.797676C45.6114-0.972346 42.5294 0.305977 41.6403 3.61702C39.982 8.97932 39.0729 14.8597 38.9161 20.6912C47.6598 25.0789 55.5651 30.5106 61.9772 36.264C65.4977 31.1712 69.463 28.2449 73.7687 26.9417Z" fill="#000000" fill-opacity="0.85"/>
 </g>
</svg>
