<?xml version="1.0" encoding="UTF-8"?>
<!--Generator: Apple Native CoreSVG 232.5-->
<!DOCTYPE svg
PUBLIC "-//W3C//DTD SVG 1.1//EN"
       "http://www.w3.org/Graphics/SVG/1.1/DTD/svg11.dtd">
<svg version="1.1" xmlns="http://www.w3.org/2000/svg" xmlns:xlink="http://www.w3.org/1999/xlink" width="111.823" height="127.65">
 <g>
  <rect height="127.65" opacity="0" width="111.823" x="0" y="0"/>
  <path d="M80.3962 31.194C73.6354 31.194 68.2775 34.5319 63.611 44.6906C50.5255 30.9508 27.8898 17.7746 5.12126 16.0504C1.12467 15.7843 0.218906 18.673 0.12125 21.2209C-1.54721 45.6838 17.6437 66.0646 42.7995 68.6208C36.4298 83.0973 26.8151 97.8439 14.5275 109.466C12.8771 110.986 13.1872 113.086 14.3171 114.786C19.8971 123.385 37.3244 128.477 49.1799 124.369C51.5192 123.54 52.0983 122.338 52.0983 120.213L52.0983 101.537C65.9733 101.077 86.9762 92.6667 82.9948 66.112L82.2946 61.9069C92.3952 59.5343 99.0158 53.3278 99.0158 47.3297C99.0158 39.6852 90.6774 31.194 80.3962 31.194ZM80.6842 36.6813C88.2116 36.6813 93.5285 42.3346 93.5285 47.3297C93.5285 51.1315 88.4757 55.5343 78.7155 57.0192C77.5231 57.1657 76.6457 58.0583 76.777 59.1984L77.6388 66.5343C80.4499 91.2384 61.0465 95.7716 48.6891 95.9152C47.4699 95.9337 46.5773 96.7741 46.5773 97.9816L46.5773 119.187C46.5773 119.614 46.4274 119.929 45.9357 120.008C36.1755 122.368 24.3893 118.663 19.5671 112.846C19.2707 112.52 19.1696 112.119 19.5148 111.807C32.7135 99.2365 42.7272 82.9963 49.2384 67.3068C50.0148 65.3937 49.2873 63.9049 47.3102 63.8224C23.0085 62.8581 5.22869 45.7531 5.60857 22.4455C5.6237 21.8039 5.73991 21.6388 6.43034 21.7214C27.9743 24.0334 48.3346 36.3542 59.3346 48.2292C60.8673 49.8073 62.0563 50.5905 63.5856 50.5905C65.9269 50.5905 67.1833 49.4064 68.4011 46.9523C72.1867 39.2463 75.0705 36.6813 80.6842 36.6813ZM72.3708 35.654L77.5246 33.904C70.8434 18.5446 61.7594 7.9772 49.0944 0.807766C45.9552-0.977393 42.8732 0.30093 41.984 3.61197C39.467 12.0446 38.5055 21.0133 39.6169 29.9606L45.5422 32.6506C44.0417 23.3703 44.55 15.1374 46.7673 7.24528C46.9137 6.51774 47.5505 6.30046 48.1769 6.66423C58.7819 13.2155 66.4274 22.2384 72.3708 35.654ZM84.361 47.9787C85.8815 47.9787 87.173 46.7209 87.173 45.1667C87.173 43.631 85.8815 42.321 84.361 42.321C82.758 42.321 81.5153 43.631 81.5153 45.1667C81.5153 46.7209 82.758 47.9787 84.361 47.9787ZM93.151 54.1598L108.96 56.3205C111.826 56.7331 113.071 52.5431 110.171 51.3239L95.9347 45.3961Z" fill="#000000" fill-opacity="0.85"/>
 </g>
</svg>
