<?xml version="1.0" encoding="UTF-8"?>
<!--Generator: Apple Native CoreSVG 232.5-->
<!DOCTYPE svg
PUBLIC "-//W3C//DTD SVG 1.1//EN"
       "http://www.w3.org/Graphics/SVG/1.1/DTD/svg11.dtd">
<svg version="1.1" xmlns="http://www.w3.org/2000/svg" xmlns:xlink="http://www.w3.org/1999/xlink" width="97.9595" height="97.9932">
 <g>
  <rect height="97.9932" opacity="0" width="97.9595" x="0" y="0"/>
  <path d="M48.9722 97.9443C75.8247 97.9443 97.9595 75.7759 97.9595 48.9722C97.9595 22.1348 75.791 0 48.9385 0C22.1348 0 0 22.1348 0 48.9722C0 75.7759 22.1685 97.9443 48.9722 97.9443ZM48.9722 91.6113C25.3501 91.6113 6.36671 72.5942 6.36671 48.9722C6.36671 25.3501 25.3164 6.31789 48.9385 6.31789C72.5605 6.31789 91.6265 25.3501 91.6265 48.9722C91.6265 72.5942 72.5942 91.6113 48.9722 91.6113Z" fill="#000000" fill-opacity="0.85"/>
  <path d="M63.7139 32.7598C60.3159 32.7598 57.627 34.4439 55.2686 39.7891C48.6865 32.7393 37.167 25.9375 25.5869 25.0772C23.6704 24.9609 23.2866 26.2427 23.2378 27.5039C22.3472 39.98 32.2993 50.3755 45.5581 51.3452C42.1553 59.4575 36.3921 66.8447 30.439 72.4106C29.6812 73.0371 29.8193 74.0391 30.3564 74.8389C33.1582 79.1323 41.8799 81.6563 47.8149 79.624C48.8726 79.2266 49.1924 78.7129 49.1924 77.7026L49.1924 68.106C56.2012 67.9004 66.6719 63.7686 64.8472 50.2837L64.4819 48.0044C67.6387 47.2568 70.0884 45.8291 71.5195 44.1724L78.3237 45.1524C79.7046 45.3174 80.3682 43.1939 78.9048 42.6348L72.9121 40.1646C72.5298 36.5361 68.6387 32.7598 63.7139 32.7598ZM42.8594 27.2466C47.3262 29.501 51.3115 32.2588 54.5747 35.1362C56.3862 32.5571 58.373 31.0654 60.5132 30.4155C57.3462 24.4741 53.2549 20.1758 47.8472 17.0982C46.2642 16.2056 44.7417 16.8843 44.2837 18.4893C43.4487 21.252 42.9453 24.2266 42.8594 27.2466ZM64.5825 39.4595C64.5825 38.6074 65.3369 37.9019 66.1704 37.9019C67.0562 37.9019 67.792 38.6074 67.792 39.4595C67.792 40.3755 67.0562 41.0474 66.1704 41.0474C65.3369 41.0474 64.5825 40.3755 64.5825 39.4595Z" fill="#000000" fill-opacity="0.85"/>
 </g>
</svg>
