<?xml version="1.0" encoding="UTF-8"?>
<!--Generator: Apple Native CoreSVG 232.5-->
<!DOCTYPE svg
PUBLIC "-//W3C//DTD SVG 1.1//EN"
       "http://www.w3.org/Graphics/SVG/1.1/DTD/svg11.dtd">
<svg version="1.1" xmlns="http://www.w3.org/2000/svg" xmlns:xlink="http://www.w3.org/1999/xlink" width="57.6387" height="110.903">
 <g>
  <rect height="110.903" opacity="0" width="57.6387" x="0" y="0"/>
  <path d="M4.58644 98.4507L28.7539 98.4507C46.6524 98.4507 57.6387 89.7119 57.6387 75.3154C57.6387 63.3208 49.0674 55.3784 37.0928 54.0044L37.0928 53.7046C46.5547 51.9419 53.165 43.8984 53.165 34.1787C53.165 21.6397 43.1856 13.2461 28.4141 13.2461L4.58644 13.2461C1.78711 13.2461 0 14.9878 0 17.8325L0 93.8794C0 96.709 1.78711 98.4507 4.58644 98.4507ZM7.01027 51.4258L7.01027 19.4663L26.9771 19.4663C38.8027 19.4663 46.1548 25.2256 46.1548 34.8223C46.1548 45.2642 38.2451 51.4258 25.0937 51.4258ZM7.01027 92.2305L7.01027 57.71L26.6201 57.71C41.8149 57.71 50.5425 63.9541 50.5425 75.061C50.5425 86.0132 42.1348 92.2305 27.7886 92.2305ZM17.3364 17.2534L17.3364 4.13086C17.3364 2.75147 16.208 1.58935 14.8135 1.58935C13.3853 1.58935 12.272 2.75147 12.272 4.13086L12.272 17.2534ZM31.7031 17.2534L31.7031 4.13086C31.7031 2.75147 30.5899 1.58935 29.1616 1.58935C27.7671 1.58935 26.6387 2.75147 26.6387 4.13086L26.6387 17.2534ZM17.3364 94.5376L12.272 94.5376L12.272 108.396C12.272 109.79 13.3853 110.903 14.8135 110.903C16.208 110.903 17.3364 109.79 17.3364 108.396ZM31.7031 94.5376L26.6387 94.5376L26.6387 108.396C26.6387 109.79 27.7671 110.903 29.1616 110.903C30.5899 110.903 31.7031 109.79 31.7031 108.396Z" fill="#000000" fill-opacity="0.85"/>
 </g>
</svg>
