<?xml version="1.0" encoding="UTF-8"?>
<!--Generator: Apple Native CoreSVG 232.5-->
<!DOCTYPE svg
PUBLIC "-//W3C//DTD SVG 1.1//EN"
       "http://www.w3.org/Graphics/SVG/1.1/DTD/svg11.dtd">
<svg version="1.1" xmlns="http://www.w3.org/2000/svg" xmlns:xlink="http://www.w3.org/1999/xlink" width="100.933" height="99.1807">
 <g>
  <rect height="99.1807" opacity="0" width="100.933" x="0" y="0"/>
  <path d="M18.4194 99.1167L29.6509 99.1167C31.5234 99.1167 32.7544 97.8857 32.7544 95.9341L32.7544 14.4546C32.7544 12.5181 31.5234 11.272 29.6509 11.272L18.4194 11.272C16.5957 11.272 15.3799 12.5181 15.3799 14.4546L15.3799 95.9341C15.3799 97.8857 16.5957 99.1167 18.4194 99.1167ZM40.1148 99.1167L51.3799 99.1167C53.1851 99.1167 54.416 97.8857 54.416 95.9341L54.416 14.4546C54.416 12.5181 53.1851 11.272 51.3799 11.272L40.1148 11.272C38.2725 11.272 37.0415 12.5181 37.0415 14.4546L37.0415 95.9341C37.0415 97.8857 38.2725 99.1167 40.1148 99.1167ZM61.7915 99.1167L73.0415 99.1167C74.9292 99.1167 76.145 97.8857 76.145 95.9341L76.145 14.4546C76.145 12.5181 74.9292 11.272 73.0415 11.272L61.7915 11.272C60.0015 11.272 58.7857 12.5181 58.7857 14.4546L58.7857 95.9341C58.7857 97.8857 60.0015 99.1167 61.7915 99.1167ZM83.5205 99.1167L94.752 99.1167C96.5908 99.1167 97.8067 97.8857 97.8067 95.9341L97.8067 14.4546C97.8067 12.5181 96.5908 11.272 94.752 11.272L83.5205 11.272C81.6968 11.272 80.4473 12.5181 80.4473 14.4546L80.4473 95.9341C80.4473 97.8857 81.6968 99.1167 83.5205 99.1167Z" fill="#000000" fill-opacity="0.85"/>
  <path d="M0.328124 3.01319C0.328124 4.66212 1.71094 6.04494 3.35987 6.04494L97.9009 6.04494C99.5498 6.04494 100.933 4.66212 100.933 3.01319C100.933 1.34912 99.5498 0 97.9009 0L3.35987 0C1.71094 0 0.328124 1.34912 0.328124 3.01319ZM3.35987 17.5396C4.92432 17.5396 6.19581 16.2681 6.19581 14.7188C6.19581 13.1357 4.92432 11.898 3.35987 11.898C1.77686 11.898 0.505373 13.1357 0.505373 14.7188C0.505373 16.2681 1.77686 17.5396 3.35987 17.5396ZM3.35987 28.9585C4.92432 28.9585 6.19581 27.6533 6.19581 26.104C6.19581 24.5547 4.92432 23.2681 3.35987 23.2681C1.77686 23.2681 0.505373 24.5547 0.505373 26.104C0.505373 27.6533 1.77686 28.9585 3.35987 28.9585ZM3.35987 40.374C4.92432 40.374 6.19581 39.1025 6.19581 37.5381C6.19581 35.9551 4.92432 34.7173 3.35987 34.7173C1.77686 34.7173 0.505373 35.9551 0.505373 37.5381C0.505373 39.1025 1.77686 40.374 3.35987 40.374ZM3.35987 51.793C4.92432 51.793 6.19581 50.4878 6.19581 48.9233C6.19581 47.374 4.92432 46.1025 3.35987 46.1025C1.77686 46.1025 0.505373 47.374 0.505373 48.9233C0.505373 50.4878 1.77686 51.793 3.35987 51.793ZM3.35987 63.1934C4.92432 63.1934 6.19581 61.9219 6.19581 60.3726C6.19581 58.7744 4.92432 57.5366 3.35987 57.5366C1.77686 57.5366 0.505373 58.7744 0.505373 60.3726C0.505373 61.9219 1.77686 63.1934 3.35987 63.1934ZM3.35987 74.6123C4.92432 74.6123 6.19581 73.3071 6.19581 71.7578C6.19581 70.1934 4.92432 68.9219 3.35987 68.9219C1.77686 68.9219 0.505373 70.1934 0.505373 71.7578C0.505373 73.3071 1.77686 74.6123 3.35987 74.6123ZM3.35987 99.1167C4.95997 99.1167 6.37306 97.7676 6.37306 96.1186L6.37306 83.3691C6.37306 81.7202 5.02394 80.3711 3.35987 80.3711C1.71094 80.3711 0.358397 81.7202 0.358397 83.3691L0.358397 96.1186C0.358397 97.7676 1.74121 99.1167 3.35987 99.1167Z" fill="#000000" fill-opacity="0.85"/>
 </g>
</svg>
