<?xml version="1.0" encoding="UTF-8"?>
<!--Generator: Apple Native CoreSVG 232.5-->
<!DOCTYPE svg
PUBLIC "-//W3C//DTD SVG 1.1//EN"
       "http://www.w3.org/Graphics/SVG/1.1/DTD/svg11.dtd">
<svg version="1.1" xmlns="http://www.w3.org/2000/svg" xmlns:xlink="http://www.w3.org/1999/xlink" width="100.933" height="99.1921">
 <g>
  <rect height="99.1921" opacity="0" width="100.933" x="0" y="0"/>
  <path d="M15.3345 89.6576C15.3345 91.6078 15.8262 92.8793 16.9712 93.994L21.6968 98.5751C22.8638 99.7118 25.1138 99.2723 25.1138 97.3036L25.1138 20.8402C25.1138 18.8563 24.6372 17.6034 23.4922 16.4701L18.7515 11.9227C17.5845 10.7372 15.3345 11.1766 15.3345 13.1605ZM39.6294 89.6576C39.6294 91.6078 40.0723 92.8793 41.251 93.994L45.9766 98.5751C47.1436 99.7118 49.3599 99.2723 49.3599 97.3036L49.3599 20.8402C49.3599 18.8563 48.917 17.6034 47.7383 16.4701L43.0127 11.9227C41.8457 10.7372 39.6294 11.1766 39.6294 13.1605ZM63.8755 89.6576C63.8755 91.6078 64.3521 92.8793 65.4971 93.994L70.2378 98.5751C71.4048 99.7118 73.6548 99.2723 73.6548 97.3036L73.6548 20.8402C73.6548 18.8563 73.1631 17.6034 72.0181 16.4701L67.2925 11.9227C66.1255 10.7372 63.8755 11.1766 63.8755 13.1605ZM88.1553 89.6576C88.1553 91.6078 88.6133 92.8793 89.792 93.994L94.5176 98.5751C95.6846 99.7118 97.9009 99.2723 97.9009 97.3036L97.9009 20.8402C97.9009 18.8563 97.458 17.6034 96.2793 16.4701L91.5537 11.9227C90.3867 10.7372 88.1553 11.1766 88.1553 13.1605Z" fill="#000000" fill-opacity="0.85"/>
  <path d="M0.328124 3.01892C0.328124 4.66785 1.71094 6.05067 3.35987 6.05067L97.9009 6.05067C99.5498 6.05067 100.933 4.66785 100.933 3.01892C100.933 1.35485 99.5498 0.00572985 97.9009 0.00572985L3.35987 0.00572985C1.71094 0.00572985 0.328124 1.35485 0.328124 3.01892ZM3.35987 17.5453C4.92432 17.5453 6.19581 16.2738 6.19581 14.7245C6.19581 13.1415 4.92432 11.9037 3.35987 11.9037C1.77686 11.9037 0.505373 13.1415 0.505373 14.7245C0.505373 16.2738 1.77686 17.5453 3.35987 17.5453ZM3.35987 28.9642C4.92432 28.9642 6.19581 27.6591 6.19581 26.1097C6.19581 24.5604 4.92432 23.2738 3.35987 23.2738C1.77686 23.2738 0.505373 24.5604 0.505373 26.1097C0.505373 27.6591 1.77686 28.9642 3.35987 28.9642ZM3.35987 40.3798C4.92432 40.3798 6.19581 39.1083 6.19581 37.5438C6.19581 35.9608 4.92432 34.723 3.35987 34.723C1.77686 34.723 0.505373 35.9608 0.505373 37.5438C0.505373 39.1083 1.77686 40.3798 3.35987 40.3798ZM3.35987 51.7987C4.92432 51.7987 6.19581 50.4935 6.19581 48.9291C6.19581 47.3798 4.92432 46.1083 3.35987 46.1083C1.77686 46.1083 0.505373 47.3798 0.505373 48.9291C0.505373 50.4935 1.77686 51.7987 3.35987 51.7987ZM3.35987 63.1991C4.92432 63.1991 6.19581 61.9276 6.19581 60.3783C6.19581 58.7801 4.92432 57.5424 3.35987 57.5424C1.77686 57.5424 0.505373 58.7801 0.505373 60.3783C0.505373 61.9276 1.77686 63.1991 3.35987 63.1991ZM3.35987 74.618C4.92432 74.618 6.19581 73.3129 6.19581 71.7635C6.19581 70.1991 4.92432 68.9276 3.35987 68.9276C1.77686 68.9276 0.505373 70.1991 0.505373 71.7635C0.505373 73.3129 1.77686 74.618 3.35987 74.618ZM3.35987 99.1224C4.95997 99.1224 6.37306 97.7733 6.37306 96.1244L6.37306 83.3749C6.37306 81.7259 5.02394 80.3768 3.35987 80.3768C1.71094 80.3768 0.358397 81.7259 0.358397 83.3749L0.358397 96.1244C0.358397 97.7733 1.74121 99.1224 3.35987 99.1224Z" fill="#000000" fill-opacity="0.85"/>
 </g>
</svg>
