<?xml version="1.0" encoding="UTF-8"?>
<!--Generator: Apple Native CoreSVG 232.5-->
<!DOCTYPE svg
PUBLIC "-//W3C//DTD SVG 1.1//EN"
       "http://www.w3.org/Graphics/SVG/1.1/DTD/svg11.dtd">
<svg version="1.1" xmlns="http://www.w3.org/2000/svg" xmlns:xlink="http://www.w3.org/1999/xlink" width="98.0908" height="98.1211">
 <g>
  <rect height="98.1211" opacity="0" width="98.0908" x="0" y="0"/>
  <path d="M0 49.0361C0 76.0723 21.9849 98.0571 49.0361 98.0571C76.0723 98.0571 98.0908 76.0723 98.0908 49.0361C98.0908 24.2817 79.5884 3.71143 55.7197 0.495118C56.7417 1.85059 57.4219 3.59326 57.4219 5.48242C57.4219 7.81787 56.4302 9.89063 54.898 11.396C73.104 14.252 87.1074 30.0117 87.1074 49.0361C87.1074 70.0493 70.0679 87.1074 49.0361 87.1074C28.023 87.1074 10.9497 70.0493 10.9497 49.0361C10.9497 28.023 28.023 10.9497 49.0361 10.9497C52.04 10.9497 54.5034 8.50147 54.5034 5.48242C54.5034 2.46338 52.04 0 49.0361 0C21.9849 0 0 21.9849 0 49.0361Z" fill="#000000" fill-opacity="0.85"/>
  <path d="M29.21 52.294C29.21 53.2993 29.9712 54.0117 31.0068 54.0117L46.4028 54.0117L38.1392 76.2754C37.2012 78.8267 39.8721 80.2446 41.5342 78.1699L66.5005 46.8408C66.94 46.2852 67.1421 45.7261 67.1421 45.2647C67.1421 44.2593 66.3809 43.562 65.3604 43.562L49.9492 43.562L58.228 21.2495C59.166 18.7134 56.4951 17.3291 54.833 19.355L29.8667 50.7329C29.4273 51.2886 29.21 51.8325 29.21 52.294Z" fill="#000000" fill-opacity="0.85"/>
 </g>
</svg>
