<?xml version="1.0" encoding="UTF-8"?>
<!--Generator: Apple Native CoreSVG 232.5-->
<!DOCTYPE svg
PUBLIC "-//W3C//DTD SVG 1.1//EN"
       "http://www.w3.org/Graphics/SVG/1.1/DTD/svg11.dtd">
<svg version="1.1" xmlns="http://www.w3.org/2000/svg" xmlns:xlink="http://www.w3.org/1999/xlink" width="113.544" height="89.3818">
 <g>
  <rect height="89.3818" opacity="0" width="113.544" x="0" y="0"/>
  <path d="M82.9673 1.15429C89.0073 1.95751 94.0064 4.9414 96.6128 10.4287C98.273 14.0269 101.544 23.2705 103.287 32.0596L107.513 37.5029C111.688 42.9536 113.544 47.3467 113.544 55.7954L113.544 83.0879C113.544 86.6255 110.822 89.3818 107.251 89.3818L101.625 89.3818C98.0689 89.3818 95.3462 86.6255 95.3462 83.0879L95.3462 75.0995C84.5787 75.805 69.0175 76.2871 56.7798 76.2871C44.5382 76.2871 29.0054 75.8056 18.2319 75.1008L18.2319 83.0879C18.2319 86.6255 15.4756 89.3818 11.9194 89.3818L6.32764 89.3818C2.75635 89.3818 0 86.6255 0 83.0879L0 55.7954C0 47.3467 1.85693 42.9536 6.06494 37.5029L10.2573 32.0596C12.0337 23.2705 15.2715 14.0269 16.9653 10.4287C19.5381 4.9414 24.5708 1.89013 30.6108 1.15429C33.9277 0.74853 44.8179 0.470698 56.7798 0.470698C68.7603 0.470698 79.6655 0.714839 82.9673 1.15429ZM62.147 14.3037L41.648 40.0542C41.2876 40.5273 41.0889 40.9214 41.0889 41.3828C41.0889 42.1255 41.749 42.688 42.5557 42.688L55.2676 42.688L48.4268 61.0435C47.5899 63.0996 49.8296 64.2515 51.2105 62.5742L71.627 36.8237C72.0698 36.3843 72.2837 35.9229 72.2837 35.4951C72.2837 34.7373 71.5899 34.126 70.7832 34.126L58.105 34.126L64.9121 15.8193C65.6851 13.7295 63.479 12.6113 62.147 14.3037Z" fill="#000000" fill-opacity="0.85"/>
 </g>
</svg>
