<?xml version="1.0" encoding="UTF-8"?>
<!--Generator: Apple Native CoreSVG 232.5-->
<!DOCTYPE svg
PUBLIC "-//W3C//DTD SVG 1.1//EN"
       "http://www.w3.org/Graphics/SVG/1.1/DTD/svg11.dtd">
<svg version="1.1" xmlns="http://www.w3.org/2000/svg" xmlns:xlink="http://www.w3.org/1999/xlink" width="97.0039" height="89.9326">
 <g>
  <rect height="89.9326" opacity="0" width="97.0039" x="0" y="0"/>
  <path d="M1.81396 31.1235C1.81396 51.4702 19.5937 71.46 46.4214 88.8262C47.2803 89.3701 48.5366 89.9326 49.3921 89.9326C50.2813 89.9326 51.5039 89.3701 52.4116 88.8262C79.2241 71.46 97.0039 51.4702 97.0039 31.1235C97.0039 14.4136 85.502 2.53955 70.1021 2.53955C61.2656 2.53955 53.5933 7.06348 49.3921 14.064C45.2583 7.09717 37.5522 2.53955 28.6973 2.53955C13.3159 2.53955 1.81396 14.4136 1.81396 31.1235ZM7.85889 31.1235C7.85889 17.6963 16.6812 8.56935 28.6299 8.56935C37.7373 8.56935 43.3403 14.1914 46.7109 19.7857C47.7417 21.3906 48.4355 21.8672 49.3921 21.8672C50.3823 21.8672 51.0088 21.3569 52.1221 19.7857C55.6123 14.2588 61.1294 8.56935 70.1543 8.56935C82.1367 8.56935 90.9741 17.6963 90.9741 31.1235C90.9741 49.4238 71.8603 68.7769 50.2661 83.1382C49.8838 83.4194 49.5874 83.6182 49.3921 83.6182C49.2305 83.6182 48.9492 83.4194 48.5669 83.1382C26.9575 68.7769 7.85889 49.4238 7.85889 31.1235Z" fill="#000000" fill-opacity="0.85"/>
  <path d="M33.0991 51.4526C33.0991 52.1953 33.7256 52.7241 34.5322 52.7241L46.9897 52.7241L40.2686 70.7393C39.5142 72.7617 41.6528 73.8648 42.9849 72.2212L63.061 46.9795C63.4214 46.5401 63.6504 46.0786 63.6504 45.6846C63.6504 44.9419 62.9902 44.3643 62.1836 44.3643L49.7598 44.3643L56.4473 26.4131C57.1865 24.3569 55.0479 23.2725 53.7344 24.916L33.6245 50.1577C33.2979 50.6309 33.0991 51.0249 33.0991 51.4526Z" fill="#000000" fill-opacity="0.85"/>
 </g>
</svg>
