<?xml version="1.0" encoding="UTF-8"?>
<!--Generator: Apple Native CoreSVG 232.5-->
<!DOCTYPE svg
PUBLIC "-//W3C//DTD SVG 1.1//EN"
       "http://www.w3.org/Graphics/SVG/1.1/DTD/svg11.dtd">
<svg version="1.1" xmlns="http://www.w3.org/2000/svg" xmlns:xlink="http://www.w3.org/1999/xlink" width="78.3692" height="97.9785">
 <g>
  <rect height="97.9785" opacity="0" width="78.3692" x="0" y="0"/>
  <path d="M43.0405 2.59082C49.9458 4.9829 65.1045 10.6699 72.0132 13.3921C76.5083 15.207 78.3692 16.8789 78.3692 22.0444L78.3692 58.8003C78.3692 75.4214 69.7515 81.834 42.3921 96.9902C41.3076 97.5645 40.0718 97.9785 39.1846 97.9785C38.2822 97.9785 37.0952 97.5982 35.9771 96.9902C9.01514 81.1553 0 75.4214 0 58.8003L0 22.0444C0 16.8789 1.89453 15.1431 6.35596 13.3921C13.2495 10.6885 28.4536 5.00634 35.3472 2.59082C36.6167 2.18506 37.8779 1.89209 39.1846 1.89209C40.4912 1.89209 41.7524 2.15136 43.0405 2.59082ZM45.9443 14.6035L17.9024 49.7979C17.3955 50.4326 17.1328 51.0591 17.1328 51.5845C17.1328 52.7061 18.0068 53.4673 19.125 53.4673L36.5024 53.4673L27.1445 78.5811C26.0601 81.395 29.0728 82.9409 30.9302 80.6221L58.9722 45.4277C59.4639 44.793 59.7266 44.1665 59.7266 43.6563C59.7266 42.5195 58.8862 41.7583 57.7495 41.7583L40.3906 41.7583L49.7149 16.6934C50.833 13.8306 47.7866 12.2847 45.9443 14.6035Z" fill="#000000" fill-opacity="0.85"/>
 </g>
</svg>
