<?xml version="1.0" encoding="UTF-8"?>
<!--Generator: Apple Native CoreSVG 232.5-->
<!DOCTYPE svg
PUBLIC "-//W3C//DTD SVG 1.1//EN"
       "http://www.w3.org/Graphics/SVG/1.1/DTD/svg11.dtd">
<svg version="1.1" xmlns="http://www.w3.org/2000/svg" xmlns:xlink="http://www.w3.org/1999/xlink" width="114.35" height="88.4766">
 <g>
  <rect height="88.4766" opacity="0" width="114.35" x="0" y="0"/>
  <path d="M48.0186 5.45752L48.0186 12.4849L66.3648 12.4849L66.3648 5.45752C66.3648 2.04932 68.3013 0 71.8154 0L87.0371 0C90.585 0 92.5366 2.04932 92.5366 5.45752L92.5366 12.4849L99.9409 12.4849C109.514 12.4849 114.35 17.3325 114.35 26.7251L114.35 74.1538C114.35 83.5464 109.514 88.3941 99.9409 88.3941L14.3936 88.3941C4.86963 88.3941 0 83.5918 0 74.1538L0 26.7251C0 17.2871 4.86963 12.4849 14.3936 12.4849L21.8467 12.4849L21.8467 5.45752C21.8467 2.04932 23.7647 0 27.2974 0L42.5342 0C46.0669 0 48.0186 2.04932 48.0186 5.45752ZM62.5083 26.8228L42.0093 52.5732C41.6489 53.0464 41.4351 53.4404 41.4351 53.8682C41.4351 54.6597 42.1104 55.207 42.917 55.207L55.6289 55.207L48.773 73.5776C47.9849 75.6338 50.2246 76.7857 51.5566 75.0596L72.022 49.3428C72.416 48.9033 72.645 48.4419 72.645 48.0142C72.645 47.2715 71.9512 46.6602 71.1445 46.6602L58.4512 46.6602L65.2734 28.3535C66.0464 26.2637 63.8403 25.1118 62.5083 26.8228Z" fill="#000000" fill-opacity="0.85"/>
 </g>
</svg>
