<?xml version="1.0" encoding="UTF-8"?>
<!--Generator: Apple Native CoreSVG 232.5-->
<!DOCTYPE svg
PUBLIC "-//W3C//DTD SVG 1.1//EN"
       "http://www.w3.org/Graphics/SVG/1.1/DTD/svg11.dtd">
<svg version="1.1" xmlns="http://www.w3.org/2000/svg" xmlns:xlink="http://www.w3.org/1999/xlink" width="131.121" height="62.4502">
 <g>
  <rect height="62.4502" opacity="0" width="131.121" x="0" y="0"/>
  <path d="M1.3357 52.0317C-2.34936 56.7627 2.32106 60.7339 6.73854 58.169L41.927 37.8784L85.448 61.2359C86.9622 62.0005 88.2742 62.4502 89.5374 62.4502C91.284 62.4502 92.8806 61.6519 94.3948 59.7066L129.924 14.6899C133.164 10.6211 129.317 5.71337 124.484 8.45849L89.4011 28.8198L45.7859 5.43213C44.3357 4.61524 42.9866 4.24805 41.7874 4.24805C39.992 4.24805 38.4475 5.04639 36.9485 6.96143ZM9.93728 50.7026C9.44217 50.9653 9.20974 50.5376 9.52469 50.1587L41.3411 11.0728C41.8582 10.4058 42.3416 10.3233 43.0574 10.7056L87.719 34.5786C89.5125 35.5166 90.1624 35.2842 91.6223 34.3799L121.462 15.834C121.901 15.5562 122.299 16.0293 121.969 16.3931L90.0056 55.6255C89.5037 56.2588 88.9866 56.375 88.2893 55.9775L43.6092 32.1196C41.8157 31.1665 41.1658 31.3804 39.6907 32.2847Z" fill="#000000" fill-opacity="0.85"/>
 </g>
</svg>
