<?xml version="1.0" encoding="UTF-8"?>
<!--Generator: Apple Native CoreSVG 232.5-->
<!DOCTYPE svg
PUBLIC "-//W3C//DTD SVG 1.1//EN"
       "http://www.w3.org/Graphics/SVG/1.1/DTD/svg11.dtd">
<svg version="1.1" xmlns="http://www.w3.org/2000/svg" xmlns:xlink="http://www.w3.org/1999/xlink" width="66.044" height="107.111">
 <g>
  <rect height="107.111" opacity="0" width="66.044" x="0" y="0"/>
  <path d="M20.9195 104.665L64.9561 48.2359C65.6802 47.377 66.044 46.5821 66.044 45.6407C66.044 44.2999 65.0181 43.1866 63.3609 43.1866L35.5459 43.1866L50.3086 4.45662C51.8833 0.411206 47.6777-1.67229 45.1397 1.649L1.08789 58.0445C0.378907 58.9522 0 59.7472 0 60.6397C0 62.0294 1.02588 63.1275 2.68311 63.1275L30.5132 63.1275L15.7354 101.839C14.1758 105.869 18.3814 107.953 20.9195 104.665ZM23.3462 94.2852L39.1436 57.4718L9.43703 57.4718L43.7285 12.61L42.6641 12.044L26.9004 48.8424L56.5732 48.8424L22.2969 93.7042Z" fill="#000000" fill-opacity="0.85"/>
 </g>
</svg>
