<?xml version="1.0" encoding="UTF-8"?>
<!--Generator: Apple Native CoreSVG 232.5-->
<!DOCTYPE svg
PUBLIC "-//W3C//DTD SVG 1.1//EN"
       "http://www.w3.org/Graphics/SVG/1.1/DTD/svg11.dtd">
<svg version="1.1" xmlns="http://www.w3.org/2000/svg" xmlns:xlink="http://www.w3.org/1999/xlink" width="97.9595" height="97.9932">
 <g>
  <rect height="97.9932" opacity="0" width="97.9595" x="0" y="0"/>
  <path d="M97.9595 49.021C97.9595 75.8584 75.8247 97.9932 48.9722 97.9932C22.1685 97.9932 0 75.8584 0 49.021C0 22.2173 22.1348 0.0488281 48.9385 0.0488281C75.791 0.0488281 97.9595 22.2173 97.9595 49.021ZM34.1343 37.2393L17.1304 59.148C15.3047 61.5698 17.6475 63.7256 19.9985 62.4356L36.7398 53.1602L59.1782 65.1968C59.9277 65.6128 60.6587 65.8638 61.3071 65.8638C62.188 65.8638 63.0689 65.4478 63.8521 64.4473L80.8325 42.5015C82.5386 40.2666 80.4736 37.9121 77.9946 39.2661L61.2129 48.5264L38.7627 36.4595C38.0283 36.0586 37.3125 35.8228 36.6455 35.8228C35.7647 35.8228 34.9512 36.2725 34.1343 37.2393Z" fill="#000000" fill-opacity="0.85"/>
 </g>
</svg>
