<?xml version="1.0" encoding="UTF-8"?>
<!--Generator: Apple Native CoreSVG 232.5-->
<!DOCTYPE svg
PUBLIC "-//W3C//DTD SVG 1.1//EN"
       "http://www.w3.org/Graphics/SVG/1.1/DTD/svg11.dtd">
<svg version="1.1" xmlns="http://www.w3.org/2000/svg" xmlns:xlink="http://www.w3.org/1999/xlink" width="97.9595" height="97.9932">
 <g>
  <rect height="97.9932" opacity="0" width="97.9595" x="0" y="0"/>
  <path d="M48.9722 97.9443C75.8247 97.9443 97.9595 75.7759 97.9595 48.9722C97.9595 22.1348 75.791 0 48.9385 0C22.1348 0 0 22.1348 0 48.9722C0 75.7759 22.1685 97.9443 48.9722 97.9443ZM48.9722 91.6113C25.3501 91.6113 6.36671 72.5942 6.36671 48.9722C6.36671 25.3501 25.3164 6.31789 48.9385 6.31789C72.5605 6.31789 91.6265 25.3501 91.6265 48.9722C91.6265 72.5942 72.5942 91.6113 48.9722 91.6113Z" fill="#000000" fill-opacity="0.85"/>
  <path d="M21.8779 65.7246C21.8779 67.4185 23.1963 68.7031 24.8901 68.7031L27.5908 68.7031C29.2661 68.7031 30.5845 67.4185 30.5845 65.7246L30.5845 61.9194C35.75 62.2275 43.1465 62.4717 48.9722 62.4717C54.8281 62.4717 62.2061 62.2275 67.3413 61.9194L67.3413 65.7246C67.3413 67.4185 68.6748 68.7031 70.3838 68.7031L73.0693 68.7031C74.7446 68.7031 76.063 67.4185 76.063 65.7246L76.063 52.6875C76.063 48.7007 75.1455 46.5825 73.167 43.9844L71.1719 41.4067C70.2778 37.1689 68.7524 32.751 68.0049 31.0454C66.7539 28.4307 64.3496 27.0566 61.4585 26.6475C59.8994 26.4522 54.6616 26.3394 48.9722 26.3394C43.2944 26.3394 38.0903 26.4522 36.4824 26.6475C33.625 27.023 31.2358 28.4307 29.9849 31.0454C29.1885 32.751 27.648 37.1689 26.8027 41.4067L24.7739 43.9844C22.8291 46.5825 21.8779 48.7007 21.8779 52.6875ZM41.1426 46.044C41.1426 45.7813 41.2251 45.5186 41.4541 45.271L51.3594 32.5103C52.166 31.4561 53.419 32.1465 52.9727 33.3657L49.8091 41.8076L55.9277 41.8076C56.4229 41.8076 56.8018 42.1563 56.8018 42.6514C56.8018 42.8804 56.6519 43.1616 56.4902 43.4058L46.6372 56.1362C45.8306 57.2056 44.5254 56.4815 44.9868 55.2471L48.1504 46.7715L42.0015 46.7715C41.5064 46.7715 41.1426 46.4717 41.1426 46.044Z" fill="#000000" fill-opacity="0.85"/>
 </g>
</svg>
