<?xml version="1.0" encoding="UTF-8"?>
<!--Generator: Apple Native CoreSVG 232.5-->
<!DOCTYPE svg
PUBLIC "-//W3C//DTD SVG 1.1//EN"
       "http://www.w3.org/Graphics/SVG/1.1/DTD/svg11.dtd">
<svg version="1.1" xmlns="http://www.w3.org/2000/svg" xmlns:xlink="http://www.w3.org/1999/xlink" width="90.4226" height="107.081">
 <g>
  <rect height="107.081" opacity="0" width="90.4226" x="0" y="0"/>
  <path d="M56.2819 75.5852L33.0919 104.65C30.4528 107.904 26.3483 105.854 27.8742 101.824L42.6422 61.9517ZM62.4811 4.44166L47.6847 44.4163L75.5485 44.4163C77.1906 44.4163 78.1828 45.5632 78.1828 46.9041C78.1828 47.8455 77.7887 48.6404 77.0949 49.4993L66.2529 63.088L33.9765 30.8116L57.2784 1.63404C59.9176-1.65356 63.9884 0.396247 62.4811 4.44166ZM14.8219 61.8342C13.1647 61.8342 12.1388 60.7361 12.1388 59.3465C12.1388 58.4539 12.5665 57.6589 13.2604 56.7512L23.9936 43.3116L42.5247 61.8342Z" fill="#000000" fill-opacity="0.85"/>
  <path d="M80.152 92.3093C81.299 93.4563 83.1803 93.4563 84.2785 92.3093C85.3952 91.2263 85.4254 89.3635 84.2785 88.1829L10.0368 13.9412C8.95034 12.8396 6.97475 12.8093 5.8766 13.9412C4.77845 15.0393 4.77845 16.9695 5.8766 18.0676Z" fill="#000000" fill-opacity="0.85"/>
 </g>
</svg>
