<?xml version="1.0" encoding="UTF-8"?>
<!--Generator: Apple Native CoreSVG 232.5-->
<!DOCTYPE svg
PUBLIC "-//W3C//DTD SVG 1.1//EN"
       "http://www.w3.org/Graphics/SVG/1.1/DTD/svg11.dtd">
<svg version="1.1" xmlns="http://www.w3.org/2000/svg" xmlns:xlink="http://www.w3.org/1999/xlink" width="90.4226" height="107.111">
 <g>
  <rect height="107.111" opacity="0" width="90.4226" x="0" y="0"/>
  <path d="M28.7714 48.1022L21.6095 57.4718L38.1453 57.4718L47.3685 66.6908L37.4564 89.8388L51.7763 71.0966L56.0056 75.324L33.1256 104.665C30.5538 107.953 26.3483 105.869 27.9078 101.839L42.7194 63.1275L14.8556 63.1275C13.1984 63.1275 12.1725 62.0294 12.1725 60.6397C12.1725 59.7472 12.5514 58.9522 13.2941 58.0445L24.4364 43.7691ZM62.5148 4.45662L47.7184 43.1866L75.567 43.1866C77.2243 43.1866 78.2165 44.2999 78.2165 45.6407C78.2165 46.5821 77.8527 47.377 77.1286 48.2359L65.8498 62.6998L61.5086 58.3586L68.7794 48.8424L51.9923 48.8424L42.9475 39.7975L52.9279 16.4995L38.5107 35.3608L34.2921 31.1421L57.3121 1.649C59.8839-1.67229 64.0558 0.411206 62.5148 4.45662Z" fill="#000000" fill-opacity="0.85"/>
  <path d="M80.152 92.3243C81.299 93.4713 83.1803 93.4713 84.2785 92.3243C85.3952 91.2413 85.4254 89.3785 84.2785 88.1978L10.0368 13.9561C8.95034 12.8546 6.97475 12.8243 5.8766 13.9561C4.77845 15.0543 4.77845 16.9845 5.8766 18.0826Z" fill="#000000" fill-opacity="0.85"/>
 </g>
</svg>
