<?xml version="1.0" encoding="UTF-8"?>
<!--Generator: Apple Native CoreSVG 232.5-->
<!DOCTYPE svg
PUBLIC "-//W3C//DTD SVG 1.1//EN"
       "http://www.w3.org/Graphics/SVG/1.1/DTD/svg11.dtd">
<svg version="1.1" xmlns="http://www.w3.org/2000/svg" xmlns:xlink="http://www.w3.org/1999/xlink" width="118.576" height="111.088">
 <g>
  <rect height="111.088" opacity="0" width="118.576" x="0" y="0"/>
  <path d="M109.565 25.7908C107.701 24.9528 105.633 24.4922 103.456 24.4922C100.497 24.4922 97.7371 25.3371 95.4124 26.8117C93.1656 23.2134 88.9032 21.0708 83.1211 21.0708C76.0365 21.0708 68.913 24.3681 62.6407 29.6091C69.4929 36.9952 75.256 45.8114 79.0599 54.5067C83.8511 52.6372 87.624 50.1631 90.4475 47.4359C91.9693 49.9908 94.2369 52.0471 96.9559 53.3125C92.7725 56.3888 87.5982 58.9918 81.4499 60.85C83.0979 65.7692 83.9834 70.5133 83.9834 74.8032C83.9834 90.6123 73.1533 102.001 57.9605 102.001C57.5772 102.001 57.1967 101.994 56.8321 101.949C58.6171 99.48 59.6592 96.4399 59.6592 93.148C59.6592 91.7353 59.4666 90.3688 59.0917 89.0791C68.1314 88.4903 74.2036 80.6261 74.2036 70.0903C74.2036 67.7174 73.9463 65.2651 73.4234 62.7745C68.7501 63.6685 63.5986 64.1367 58.0244 64.1367C52.4474 64.1367 47.2536 63.6541 42.5071 62.7428C41.9783 65.2442 41.7173 67.7073 41.7173 70.0903C41.7173 72.9878 42.1776 75.6832 43.0441 78.0724C39.0468 78.4551 35.5174 80.3712 33.0534 83.234C32.3335 80.6164 31.9526 77.7914 31.9526 74.8032C31.9526 70.4957 32.8486 65.7303 34.5126 60.7901C16.3007 55.2158 5.97363 43.3314 5.97363 31.6699C5.97363 25.2181 8.15921 19.867 12.3201 16.2356C12.6744 21.3862 15.6109 25.8262 19.854 28.2607C19.1411 29.8426 18.7725 31.6499 18.7725 33.6314C18.7725 40.1321 24.0367 49.464 36.8951 54.5003C40.7127 45.805 46.4946 36.9893 53.3665 29.6038C49.4332 26.2828 45.1485 23.7629 40.7476 22.3578C41.9014 20.2163 42.5537 17.7578 42.5537 15.1353C42.5537 14.8622 42.5465 14.5909 42.5129 14.3267C47.9002 16.7379 53.1541 20.4473 58.0077 24.9507C67.0583 16.5918 77.4751 10.9458 87.541 10.9458C99.8918 10.9458 107.585 16.9995 109.565 25.7908ZM44.1286 56.6832C48.1882 57.5807 52.8101 58.0899 58.0244 58.0899C63.1623 58.0899 67.7489 57.5833 71.8085 56.693C69.0943 48.4664 64.1403 40.3056 57.9981 33.8857C51.8339 40.303 46.8573 48.4599 44.1286 56.6832Z" fill="#000000" fill-opacity="0.85"/>
  <path d="M27.3999 24.2969C32.5103 24.2969 36.5615 20.2456 36.5615 15.1353C36.5615 10.0737 32.48 5.95849 27.3999 5.95849C22.3384 5.95849 18.2231 10.0737 18.2231 15.1353C18.2231 20.2153 22.3384 24.2969 27.3999 24.2969ZM103.456 48.8228C108.551 48.8228 112.603 44.7378 112.603 39.6611C112.603 34.5659 108.502 30.4507 103.456 30.4507C98.3457 30.4507 94.2793 34.5659 94.2793 39.6611C94.2793 44.7075 98.3457 48.8228 103.456 48.8228ZM44.5391 102.294C49.6006 102.294 53.6856 98.2432 53.6856 93.148C53.6856 88.0376 49.5855 83.9712 44.5391 83.9712C39.4287 83.9712 35.3286 88.0376 35.3286 93.148C35.3286 98.228 39.4287 102.294 44.5391 102.294Z" fill="#000000" fill-opacity="0.85"/>
 </g>
</svg>
