<?xml version="1.0" encoding="UTF-8"?>
<!--Generator: Apple Native CoreSVG 232.5-->
<!DOCTYPE svg
PUBLIC "-//W3C//DTD SVG 1.1//EN"
       "http://www.w3.org/Graphics/SVG/1.1/DTD/svg11.dtd">
<svg version="1.1" xmlns="http://www.w3.org/2000/svg" xmlns:xlink="http://www.w3.org/1999/xlink" width="97.9595" height="97.9932">
 <g>
  <rect height="97.9932" opacity="0" width="97.9595" x="0" y="0"/>
  <path d="M48.9722 97.9443C75.8247 97.9443 97.9595 75.7759 97.9595 48.9722C97.9595 22.1348 75.791 0 48.9385 0C22.1348 0 0 22.1348 0 48.9722C0 75.7759 22.1685 97.9443 48.9722 97.9443ZM48.9722 91.6113C25.3501 91.6113 6.36671 72.5942 6.36671 48.9722C6.36671 25.3501 25.3164 6.31789 48.9385 6.31789C72.5605 6.31789 91.6265 25.3501 91.6265 48.9722C91.6265 72.5942 72.5942 91.6113 48.9722 91.6113Z" fill="#000000" fill-opacity="0.85"/>
  <path d="M24.8115 73.0913L28.7231 73.0913C30.666 73.0913 31.6274 72.0693 31.6274 70.2358L31.6274 31.6587C31.6274 29.8252 30.666 28.8184 28.7231 28.8184L24.8115 28.8184C22.8198 28.8184 21.8247 29.8252 21.8247 31.6587L21.8247 70.2358C21.8247 72.0693 22.8198 73.0913 24.8115 73.0913ZM37.5762 73.0913L46.4194 73.0913C48.4263 73.0913 49.3389 72.0693 49.3389 70.2358L49.3389 39.4644C49.3389 37.6309 48.4263 36.5415 46.4194 36.5415L37.5762 36.5415C35.667 36.5415 34.6719 37.6309 34.6719 39.4644L34.6719 70.2358C34.6719 72.0693 35.667 73.0913 37.5762 73.0913ZM39.3311 44.1543C38.543 44.1543 38.0513 43.543 38.0513 42.8711C38.0513 42.1621 38.5918 41.5879 39.3311 41.5879L44.7622 41.5879C45.4863 41.5879 46.0454 42.1621 46.0454 42.8711C46.0454 43.5278 45.4863 44.1543 44.7622 44.1543ZM39.3311 68.146C38.5918 68.146 38.0513 67.6021 38.0513 66.8291C38.0513 66.0898 38.543 65.5459 39.3311 65.5459L44.7622 65.5459C45.4863 65.5459 46.0454 66.105 46.0454 66.8291C46.0454 67.6021 45.4863 68.146 44.7622 68.146ZM55.3062 73.0913L60.3999 73.0913C62.3428 73.0913 63.3193 72.0693 63.3193 70.2358L63.3193 25.7905C63.3193 23.9233 62.3428 22.8862 60.3999 22.8862L55.3062 22.8862C53.3296 22.8862 52.3867 23.9233 52.3867 25.7905L52.3867 70.2358C52.3867 72.0693 53.3296 73.0913 55.3062 73.0913ZM71.8848 73.0762L75.0557 72.394C76.9649 72.0522 77.6973 70.8198 77.374 68.9863L70.1807 32.3667C69.8389 30.4844 68.7158 29.5601 66.8067 29.9995L63.6357 30.7422C61.7603 31.148 60.9605 32.3013 61.3174 34.1348L68.5259 70.8369C68.8828 72.6367 70.0093 73.4668 71.8848 73.0762Z" fill="#000000" fill-opacity="0.85"/>
 </g>
</svg>
