<?xml version="1.0" encoding="UTF-8"?>
<!--Generator: Apple Native CoreSVG 232.5-->
<!DOCTYPE svg
PUBLIC "-//W3C//DTD SVG 1.1//EN"
       "http://www.w3.org/Graphics/SVG/1.1/DTD/svg11.dtd">
<svg version="1.1" xmlns="http://www.w3.org/2000/svg" xmlns:xlink="http://www.w3.org/1999/xlink" width="63.7012" height="102.631">
 <g>
  <rect height="102.631" opacity="0" width="63.7012" x="0" y="0"/>
  <path d="M4.41895 102.481C6.35743 102.481 7.60694 101.432 10.8511 98.2583L31.4566 77.5069C31.6856 77.293 32.0493 77.293 32.2446 77.5069L52.8501 98.2583C56.0942 101.417 57.3286 102.481 59.2822 102.481C62.0391 102.481 63.7012 100.62 63.7012 97.4473L63.7012 13.1055C63.7012 4.46387 59.3047 0 50.7456 0L12.9556 0C4.39649 0 0 4.46387 0 13.1055L0 97.4473C0 100.62 1.66211 102.481 4.41895 102.481Z" fill="#000000" fill-opacity="0.85"/>
 </g>
</svg>
