<?xml version="1.0" encoding="UTF-8"?>
<!--Generator: Apple Native CoreSVG 232.5-->
<!DOCTYPE svg
PUBLIC "-//W3C//DTD SVG 1.1//EN"
       "http://www.w3.org/Graphics/SVG/1.1/DTD/svg11.dtd">
<svg version="1.1" xmlns="http://www.w3.org/2000/svg" xmlns:xlink="http://www.w3.org/1999/xlink" width="96.586" height="118.797">
 <g>
  <rect height="118.797" opacity="0" width="96.586" x="0" y="0"/>
  <path d="M90.9141 25.6696L90.9141 99.9875C90.9141 109.527 86.0782 114.362 76.6402 114.362L40.4188 114.362C50.0696 113.405 59.9792 111.858 70.3921 109.356C79.4263 107.084 84.2246 101.387 84.2246 91.1305L84.2246 16.9216C84.2246 15.3751 84.0919 13.9203 83.8369 12.5635C88.5313 14.5786 90.9141 18.9738 90.9141 25.6696Z" fill="#000000" fill-opacity="0.85"/>
  <path d="M78.5679 16.9216L78.5679 91.1305C78.5679 98.7975 75.5796 102.263 69.0093 103.883C51.0532 108.147 34.7954 109.555 18.3286 110.161C10.4004 110.517 5.65675 106.44 5.65675 98.9885L5.65675 24.1794C5.65675 16.2951 10.3364 12.1662 17.7622 11.8444C34.7954 11.1672 51.0532 8.90741 65.4971 6.02801C73.6914 4.26971 78.5679 8.49139 78.5679 16.9216ZM41.5913 78.4059C36.0913 79.1266 30.7085 79.8288 23.0571 80.1169C21.4453 80.2516 20.6724 81.2116 20.6724 82.4714C20.6724 83.7648 21.6323 84.8073 23.0571 84.7399C30.8096 84.4182 36.2783 83.6823 42.2012 82.8942C43.5586 82.6769 44.3164 81.6462 44.3164 80.5397C44.3164 79.2985 43.3228 78.1213 41.5913 78.4059ZM60.8608 58.735C48.8467 61.2404 37.103 62.985 23.0571 63.5949C21.4453 63.696 20.6724 64.6896 20.6724 65.9157C20.6724 67.2092 21.6323 68.2365 23.0571 68.1843C37.103 67.5593 48.8467 65.8146 61.2163 63.2722C63.0151 62.905 63.5674 61.9753 63.5674 60.8166C63.5674 59.5417 62.5923 58.4167 60.8608 58.735ZM60.8608 42.1457C48.8467 44.6359 37.103 46.3957 23.0571 47.0056C21.4453 47.0915 20.6724 48.1003 20.6724 49.3264C20.6724 50.6198 21.6323 51.6472 23.0571 51.5949C37.103 50.9699 48.8467 49.2253 61.2163 46.6677C63.0151 46.3156 63.5674 45.3859 63.5674 44.2272C63.5674 42.9523 62.5923 41.8273 60.8608 42.1457ZM60.8608 25.59C48.8467 28.0466 37.103 29.8063 23.0571 30.4162C21.4453 30.5021 20.6724 31.5109 20.6724 32.7707C20.6724 34.0642 21.6323 35.0578 23.0571 35.0056C37.103 34.3806 48.8467 32.6696 61.2163 30.0783C63.0151 29.7263 63.5674 28.7966 63.5674 27.6379C63.5674 26.363 62.5923 25.238 60.8608 25.59Z" fill="#000000" fill-opacity="0.85"/>
 </g>
</svg>
