<?xml version="1.0" encoding="UTF-8"?>
<!--Generator: Apple Native CoreSVG 232.5-->
<!DOCTYPE svg
PUBLIC "-//W3C//DTD SVG 1.1//EN"
       "http://www.w3.org/Graphics/SVG/1.1/DTD/svg11.dtd">
<svg version="1.1" xmlns="http://www.w3.org/2000/svg" xmlns:xlink="http://www.w3.org/1999/xlink" width="97.9595" height="97.9932">
 <g>
  <rect height="97.9932" opacity="0" width="97.9595" x="0" y="0"/>
  <path d="M97.9595 49.021C97.9595 75.8584 75.8247 97.9932 48.9722 97.9932C22.1685 97.9932 0 75.8584 0 49.021C0 22.2173 22.1348 0.0488281 48.9385 0.0488281C75.791 0.0488281 97.9595 22.2173 97.9595 49.021ZM38.7066 23.2105C34.0811 23.2105 31.648 25.6924 31.648 30.333L31.648 72.689C31.648 74.3579 32.5859 75.4424 34.0191 75.4424C35.1104 75.4424 35.7368 74.8276 37.4902 73.1265L48.7583 61.793C48.8897 61.6616 49.0698 61.6616 49.2012 61.793L60.4878 73.1265C62.2227 74.8276 62.8491 75.4424 63.9404 75.4424C65.3735 75.4424 66.3115 74.3579 66.3115 72.689L66.3115 30.333C66.3115 25.6924 63.8784 23.2105 59.2529 23.2105Z" fill="#000000" fill-opacity="0.85"/>
 </g>
</svg>
