<?xml version="1.0" encoding="UTF-8"?>
<!--Generator: Apple Native CoreSVG 232.5-->
<!DOCTYPE svg
PUBLIC "-//W3C//DTD SVG 1.1//EN"
       "http://www.w3.org/Graphics/SVG/1.1/DTD/svg11.dtd">
<svg version="1.1" xmlns="http://www.w3.org/2000/svg" xmlns:xlink="http://www.w3.org/1999/xlink" width="97.9595" height="97.9932">
 <g>
  <rect height="97.9932" opacity="0" width="97.9595" x="0" y="0"/>
  <path d="M97.9595 49.021C97.9595 75.8584 75.8247 97.9932 48.9722 97.9932C22.1685 97.9932 0 75.8584 0 49.021C0 22.2173 22.1348 0.0488281 48.9385 0.0488281C75.791 0.0488281 97.9595 22.2173 97.9595 49.021ZM55.4072 22.4263C53.3818 22.4263 52.4541 23.4819 52.4541 25.398L52.4541 70.7412C52.4541 72.6084 53.3818 73.6641 55.4072 73.6641L60.6206 73.6641C62.6123 73.6641 63.6074 72.6084 63.6074 70.7412L63.6074 44.3105L68.9487 71.376C69.2905 73.2095 70.4658 74.0581 72.3599 73.6489L75.6133 72.9668C77.541 72.5913 78.3071 71.3252 77.9839 69.458L70.6035 32.0752C70.2617 30.1777 69.105 29.2197 67.1621 29.6592L63.6074 30.5147L63.6074 25.398C63.6074 23.4819 62.6123 22.4263 60.6206 22.4263ZM24.269 28.5117C22.2437 28.5117 21.2148 29.5186 21.2148 31.4009L21.2148 70.7412C21.2148 72.6084 22.2437 73.6641 24.269 73.6641L28.2817 73.6641C30.2432 73.6641 31.2383 72.6084 31.2383 70.7412L31.2383 31.4009C31.2383 29.5186 30.2432 28.5117 28.2817 28.5117ZM37.3066 36.4033C35.3789 36.4033 34.3501 37.5264 34.3501 39.3599L34.3501 70.7412C34.3501 72.6084 35.3789 73.6641 37.3066 73.6641L46.3521 73.6641C48.3926 73.6641 49.3052 72.6084 49.3052 70.7412L49.3052 39.3599C49.3052 37.5264 48.3926 36.4033 46.3521 36.4033ZM45.9595 67.2671C45.9595 68.04 45.3853 68.6177 44.6426 68.6177L39.0952 68.6177C38.3711 68.6177 37.7969 68.04 37.7969 67.2671C37.7969 66.4941 38.3071 65.9502 39.0952 65.9502L44.6426 65.9502C45.3853 65.9502 45.9595 66.5581 45.9595 67.2671ZM45.9595 42.8677C45.9595 43.5093 45.3853 44.1846 44.6426 44.1846L39.0952 44.1846C38.3071 44.1846 37.7969 43.5733 37.7969 42.8677C37.7969 42.1099 38.3711 41.5508 39.0952 41.5508L44.6426 41.5508C45.3853 41.5508 45.9595 42.1099 45.9595 42.8677Z" fill="#000000" fill-opacity="0.85"/>
 </g>
</svg>
