<?xml version="1.0" encoding="UTF-8"?>
<!--Generator: Apple Native CoreSVG 232.5-->
<!DOCTYPE svg
PUBLIC "-//W3C//DTD SVG 1.1//EN"
       "http://www.w3.org/Graphics/SVG/1.1/DTD/svg11.dtd">
<svg version="1.1" xmlns="http://www.w3.org/2000/svg" xmlns:xlink="http://www.w3.org/1999/xlink" width="94.23" height="113.26">
 <g>
  <rect height="113.26" opacity="0" width="94.23" x="0" y="0"/>
  <path d="M54.5025 113.009C71.6118 113.009 82.272 106.915 82.272 96.6973L82.272 72.7481C89.8321 66.3311 94.23 55.8765 94.23 44.3359C94.23 17.7388 76.897 0 51.0508 0C25.3477 0 8.13086 17.3447 8.13086 43.3408C8.13086 44.9151 8.16455 46.2149 8.32617 47.5298L2.32373 58.3779C0.705567 61.1411 0 63.7647 0 66.2954C0 71.0977 3.0459 75.1118 8.20996 76.1763L8.20996 85.6118C8.20996 93.5532 13.6577 97.6602 21.1021 96.857L31.2554 95.7979L26.9756 91.0181L26.9756 96.6973C26.9756 106.866 37.5313 113.009 54.5025 113.009ZM54.5025 106.964C41.1675 106.964 32.8267 102.522 32.8267 95.6631L32.8267 90.4448C32.8267 89.731 32.4243 89.4717 31.8081 89.5054L20.3491 90.8154C16.4771 91.2329 14.2549 89.3257 14.2549 85.0562L14.2549 71.6978C14.2549 71.2432 13.9771 70.9653 13.3877 70.9653L11.853 70.9653C8.30079 70.9653 6.17287 69.0967 6.17287 66.1826C6.17287 64.7583 6.64259 63.0142 7.55177 61.4063L14.5698 48.7442C14.292 46.8701 14.1758 45.0415 14.1758 43.2095C14.1758 20.9273 28.8965 6.04494 51.0508 6.04494C73.333 6.04494 88.1851 21.3027 88.1851 44.3359C88.1851 55.1978 83.6709 64.7529 76.1631 69.7686L76.2119 95.6631C76.2119 102.522 67.856 106.964 54.5025 106.964Z" fill="#000000" fill-opacity="0.85"/>
  <path d="M34.4278 49.7544C40.5225 49.7544 44.8023 45.9644 44.8023 40.5513C44.8023 38.6201 44.1255 36.9097 42.9673 35.7178C42.3189 35.1182 42.0713 34.4732 42.0713 33.9746C42.0713 32.9995 42.9302 32.2232 43.9727 32.2232C44.4004 32.2232 44.9966 32.3057 45.4546 32.7671C46.0352 33.2232 46.5401 34.3203 46.7134 34.9009C50.522 34.167 52.396 31.8301 52.396 27.9712C52.396 26.9287 53.2246 26.0547 54.2334 26.0547C55.2573 26.0547 56.1348 26.9624 56.1348 27.9561C56.1836 33.4805 53.4424 36.9507 48.2866 38.2017C48.5039 38.9849 48.5562 39.8018 48.5562 40.6035C48.5562 45.4644 46.0274 49.273 41.9243 51.3003C44.273 52.8086 47.1973 53.5913 50.4229 53.5913C51.6319 53.5913 53.041 53.46 54.3897 53.231C54.0698 52.4263 53.9116 51.5576 53.9116 50.6738C53.9116 38.5894 72.6494 36.271 72.6494 25.044C72.6494 19.6323 68.3071 15.396 62.8301 15.396C61.0283 15.396 60.2793 15.4751 59.5152 15.667C57.6646 13.2056 54.7197 11.7359 51.7315 11.7359C46.6016 11.7359 42.8692 14.7564 42.7598 19.7329C42.7598 20.8428 41.9649 21.604 40.8584 21.604C39.7031 21.604 38.8779 20.7266 38.9756 19.5864C39.021 17.5088 39.6069 15.9297 40.3257 14.5391C39.4351 14.332 38.5176 14.2344 37.6304 14.2344C31.7861 14.2344 27.3545 18.0176 27.3545 22.9775C27.3545 26.3228 29.7417 28.6782 32.9487 28.6782C34.0552 28.6782 34.9326 29.522 34.9326 30.561C34.9326 31.6187 34.0215 32.4658 32.9487 32.4658C28.8423 32.4658 25.6568 30.4253 24.3467 27.2349C22.5083 29.7334 21.4629 32.8076 21.4629 35.8818C21.4629 43.814 26.669 49.7544 34.4278 49.7544ZM71.4204 63.8462C76.5054 63.8462 79.9741 57.8135 79.9741 48.8955C79.9741 48.1397 79.9741 47.271 79.9253 46.4478C78.021 47.3721 75.7412 47.793 73.2139 47.6919C72.1563 47.606 71.3799 46.7656 71.3799 45.772C71.3799 44.7446 72.2876 43.8369 73.2813 43.9043C78.8911 44.125 82.6001 40.9834 82.6001 35.9292C82.6001 31.2808 80.1187 27.4673 76.1489 25.6167C75.103 39.0025 57.3252 40.8394 57.3252 50.6216C57.3252 53.7832 59.6382 55.9785 63.2695 55.9785L64.2778 55.9785C64.9868 60.6943 67.7769 63.8462 71.4204 63.8462Z" fill="#000000" fill-opacity="0.85"/>
 </g>
</svg>
