<?xml version="1.0" encoding="UTF-8"?>
<!--Generator: Apple Native CoreSVG 232.5-->
<!DOCTYPE svg
PUBLIC "-//W3C//DTD SVG 1.1//EN"
       "http://www.w3.org/Graphics/SVG/1.1/DTD/svg11.dtd">
<svg version="1.1" xmlns="http://www.w3.org/2000/svg" xmlns:xlink="http://www.w3.org/1999/xlink" width="94.23" height="113.26">
 <g>
  <rect height="113.26" opacity="0" width="94.23" x="0" y="0"/>
  <path d="M94.23 44.3359C94.23 55.8765 89.8321 66.3311 82.272 72.7481L82.272 96.6973C82.272 106.915 71.6118 113.009 54.5025 113.009C37.9878 113.009 27.4995 107.222 27.0093 97.5279L27.043 96.2476L21.1021 96.857C13.6577 97.7393 8.20996 93.5532 8.20996 85.6118L8.20996 76.1763C3.0459 75.1118 0 71.0977 0 66.2954C0 63.7647 0.754395 61.1714 2.32373 58.3779L8.32617 47.5298C8.16455 46.2149 8.13086 44.9151 8.13086 43.3408C8.13086 17.3447 25.3477 0 51.0508 0C76.897 0 94.23 17.7388 94.23 44.3359ZM57.4785 50.9248C57.4785 54.105 59.8252 56.334 63.5239 56.334L64.5659 56.334C65.2749 61.1694 68.1323 64.3887 71.8281 64.3887C77.0479 64.3887 80.6177 58.27 80.6177 49.1836C80.6177 48.3941 80.6177 47.4917 80.5689 46.6685C78.6123 47.5928 76.2988 48.0137 73.7041 47.9277C72.6128 47.8267 71.8364 46.9526 71.8364 45.959C71.8364 44.898 72.7627 43.9717 73.7564 44.0391C79.501 44.2935 83.2774 41.0845 83.2774 35.8955C83.2774 31.1611 80.7285 27.314 76.6914 25.396C75.627 39.0698 57.4785 40.959 57.4785 50.9248ZM42.625 19.3438C42.625 20.521 41.8301 21.2822 40.69 21.2822C39.4824 21.2822 38.6236 20.3711 38.7212 19.2124C38.7852 17.0859 39.3862 15.4732 40.1387 14.0488C39.2144 13.8906 38.2969 13.7778 37.3423 13.7778C31.397 13.7778 26.8794 17.6099 26.8794 22.6895C26.8794 26.0532 29.3189 28.4575 32.5747 28.4575C33.6997 28.4575 34.6109 29.335 34.6109 30.4414C34.6109 31.4839 33.666 32.3799 32.5747 32.3799C28.3521 32.3799 25.1328 30.3057 23.7891 27.0479C21.9321 29.565 20.853 32.7066 20.853 35.8482C20.853 43.9824 26.145 50.0576 34.106 50.0576C40.3203 50.0576 44.7012 46.1514 44.7012 40.6372C44.7012 38.6875 43.9907 36.9097 42.7988 35.7178C42.1504 35.1182 41.918 34.4395 41.918 33.9072C41.918 32.9136 42.7617 32.1221 43.8194 32.1221C44.2993 32.1221 44.8618 32.2383 45.3687 32.6997C45.9341 33.1558 46.4541 34.2192 46.6275 34.7998C50.522 34.0659 52.4297 31.6953 52.4297 27.7842C52.4297 26.6929 53.292 25.8003 54.3345 25.8003C55.3921 25.8003 56.2696 26.7266 56.2696 27.7539C56.3184 33.3794 53.5098 36.9507 48.2529 38.2017C48.4702 39.0186 48.5376 39.854 48.5376 40.7046C48.5376 45.6514 45.9937 49.5611 41.771 51.6221C44.1719 53.1304 47.1299 53.9468 50.4229 53.9468C51.6319 53.9468 53.1084 53.8154 54.4907 53.5864C54.1558 52.7481 53.979 51.8794 53.979 50.9619C53.979 38.5894 73.1245 36.271 73.1245 24.7896C73.1245 19.2769 68.6963 14.9058 63.0845 14.9058C61.2642 14.9058 60.4663 14.9849 59.7173 15.1919C57.833 12.7153 54.8208 11.2271 51.7315 11.2271C46.5342 11.2271 42.7344 14.2998 42.625 19.3438Z" fill="#000000" fill-opacity="0.85"/>
 </g>
</svg>
