<?xml version="1.0" encoding="UTF-8"?>
<!--Generator: Apple Native CoreSVG 232.5-->
<!DOCTYPE svg
PUBLIC "-//W3C//DTD SVG 1.1//EN"
       "http://www.w3.org/Graphics/SVG/1.1/DTD/svg11.dtd">
<svg version="1.1" xmlns="http://www.w3.org/2000/svg" xmlns:xlink="http://www.w3.org/1999/xlink" width="121.871" height="103.395">
 <g>
  <rect height="103.395" opacity="0" width="121.871" x="0" y="0"/>
  <path d="M25.4902 74.8467C37.4917 74.8467 44.3887 66.8609 44.3887 56.9854C44.3887 53.5508 42.9761 49.8282 40.7539 47.6397C39.1773 46.1304 38.2002 45.6353 38.2002 43.875C38.2002 42.3272 39.3657 41.2324 41.1309 41.2324C42.3823 41.2324 43.1992 41.5996 44.4727 42.7046C46.1529 44.1895 47.5772 46.2583 48.4595 48.6504C55.9942 46.8472 59.0684 42.1817 59.0684 34.5513C59.0684 32.8872 60.4512 31.5044 62.1001 31.5044C63.7491 31.5044 65.1133 32.8872 65.1133 34.5513C65.1773 44.8428 60.3633 51.7569 50.1675 54.313C50.25 55.2139 50.3325 56.1182 50.3325 57.0865C50.3325 65.6573 46.4986 72.5459 39.8711 76.7608C44.7085 80.4239 51.1553 82.3296 57.8999 82.3296C59.1963 82.3296 60.7603 82.2017 63.4995 82.0435C62.9321 79.9048 62.6543 77.8067 62.6543 75.7305C62.6543 48.2251 100.967 52.6099 100.967 25.5518C100.967 14.8037 90.9243 7.29053 80.357 7.29053C79.0928 7.26025 77.4078 7.51611 75.7832 7.97558C72.316 2.88428 66.3081 0 60.4336 0C50.188 0 43.167 6.87451 42.8101 16.3975C42.7427 18.2671 41.461 19.3955 39.812 19.3955C38.0957 19.3955 36.7652 18.0801 36.8325 16.1313C37.0244 12.4492 37.8779 9.10547 39.3291 6.24316C36.9131 5.47217 34.4365 5.10352 31.9448 5.10352C20.4614 5.10352 12.4409 12.5439 12.4409 21.0996C12.4409 27.2334 16.9063 32.5654 24.2852 32.5654C25.919 32.5654 27.2832 33.9634 27.2832 35.5635C27.2832 37.1973 25.919 38.6104 24.2852 38.6104C15.8462 38.6104 10.0503 34.5039 7.53271 28.5752C2.83691 33.6704 0 40.7471 0 47.8862C0 63.5445 10.2158 74.8467 25.4902 74.8467ZM100.235 103.331C111.216 103.331 116.75 89.6524 116.75 74.3213C116.75 72.1241 116.637 70.0279 116.558 68.0328C112.579 70.1241 107.732 71.1158 102.166 70.8614C100.483 70.7603 99.1187 69.5459 99.1187 67.8633C99.1187 66.2144 100.483 64.7305 102.166 64.8501C113.965 65.4751 121.871 58.6914 121.871 47.9624C121.871 38.1514 116.31 30.3858 107.481 27.0142C103.308 57.5991 68.9873 53.1206 68.2764 74.8291C68.0557 81.9146 73.4136 87.4829 81.5122 87.4829C84.1172 87.4829 85.3516 87.4004 86.6363 87.3516C87.5474 95.9551 92.4996 103.331 100.235 103.331Z" fill="#000000" fill-opacity="0.85"/>
 </g>
</svg>
