<?xml version="1.0" encoding="UTF-8"?>
<!--Generator: Apple Native CoreSVG 232.5-->
<!DOCTYPE svg
PUBLIC "-//W3C//DTD SVG 1.1//EN"
       "http://www.w3.org/Graphics/SVG/1.1/DTD/svg11.dtd">
<svg version="1.1" xmlns="http://www.w3.org/2000/svg" xmlns:xlink="http://www.w3.org/1999/xlink" width="133.725" height="93.6289">
 <g>
  <rect height="93.6289" opacity="0" width="133.725" x="0" y="0"/>
  <path d="M6.41944 27.0347C8.09034 27.5029 9.65675 26.75 10.3726 25.0186C12.4317 19.7271 15.1826 14.7705 18.5615 10.2988C19.6748 8.88233 19.4946 7.0498 18.1421 5.89941C16.6582 4.71533 14.6758 4.89892 13.5254 6.45019C9.74561 11.3901 6.66455 16.9277 4.43701 22.834C3.67236 24.7153 4.65088 26.4502 6.41944 27.0347ZM4.61134 59.9609C6.33107 59.6089 7.39211 58.0913 7.11085 56.2134C6.5923 53.1963 6.36671 49.9688 6.36671 46.79C6.36671 43.544 6.5923 40.3838 7.11085 37.2993C7.39211 35.4551 6.33107 33.9712 4.57765 33.5703C2.82422 33.2334 1.1416 34.2373 0.82666 36.2197C0.259277 39.7017 0 43.2139 0 46.79C0 50.3848 0.259277 53.9121 0.82666 57.3452C1.1416 59.3091 2.84278 60.3467 4.61134 59.9609ZM18.1421 87.6167C19.4946 86.4478 19.6748 84.6338 18.5615 83.1836C15.1826 78.7271 12.4317 73.7554 10.3726 68.479C9.65675 66.7476 8.09034 65.9795 6.41944 66.4966C4.65088 67.0811 3.67236 68.7671 4.43701 70.6636C6.66455 76.5547 9.74561 82.0923 13.5254 87.0474C14.6758 88.6172 16.6582 88.8008 18.1421 87.6167ZM127.305 27.0347C129.074 26.4502 130.052 24.7153 129.336 22.834C127.094 16.9277 124.013 11.3901 120.199 6.45019C119.049 4.89892 117.066 4.71533 115.583 5.89941C114.23 7.0498 114.084 8.88233 115.163 10.2988C118.576 14.7705 121.342 19.7271 123.386 25.0186C124.068 26.75 125.668 27.5029 127.305 27.0347ZM129.113 59.9609C130.916 60.3467 132.632 59.3091 132.898 57.3452C133.465 53.9121 133.725 50.3848 133.725 46.79C133.725 43.2139 133.465 39.7017 132.898 36.2197C132.632 34.2373 130.949 33.2334 129.147 33.5703C127.394 33.9712 126.366 35.4551 126.614 37.2993C127.132 40.3838 127.358 43.544 127.358 46.79C127.358 49.9688 127.132 53.1963 126.614 56.2134C126.366 58.0913 127.394 59.6089 129.113 59.9609ZM115.583 87.6167C117.066 88.8008 119.049 88.6172 120.199 87.0474C124.013 82.0923 127.094 76.5547 129.336 70.6636C130.052 68.7671 129.074 67.0811 127.305 66.4966C125.668 65.9795 124.068 66.7476 123.386 68.479C121.342 73.7554 118.576 78.7271 115.163 83.1836C114.084 84.6338 114.23 86.4478 115.583 87.6167Z" fill="#000000" fill-opacity="0.85"/>
  <path d="M66.8623 93.565C92.479 93.565 113.686 72.3916 113.686 46.79C113.686 21.1733 92.479 0 66.8286 0C41.2271 0 20.0723 21.1397 20.0723 46.79C20.0723 72.3916 41.2456 93.565 66.8623 93.565ZM66.8623 87.2471C44.4795 87.2471 26.439 69.2065 26.439 46.79C26.439 24.3399 44.4458 6.29933 66.8286 6.29933C89.2451 6.29933 107.319 24.3399 107.353 46.79C107.387 69.1729 89.3125 87.2471 66.8623 87.2471Z" fill="#000000" fill-opacity="0.85"/>
 </g>
</svg>
