<?xml version="1.0" encoding="UTF-8"?>
<!--Generator: Apple Native CoreSVG 232.5-->
<!DOCTYPE svg
PUBLIC "-//W3C//DTD SVG 1.1//EN"
       "http://www.w3.org/Graphics/SVG/1.1/DTD/svg11.dtd">
<svg version="1.1" xmlns="http://www.w3.org/2000/svg" xmlns:xlink="http://www.w3.org/1999/xlink" width="111.212" height="111.61">
 <g>
  <rect height="111.61" opacity="0" width="111.212" x="0" y="0"/>
  <path d="M3.37208 100.68C5.3799 100.68 6.74416 99.2969 6.74416 97.1426L6.74416 63.3955L22.48 63.3955C23.106 63.3955 23.9658 63.3652 24.5464 63.3198L44.7515 98.4009C45.6846 100.035 46.5688 100.713 48.1841 100.713C50.1397 100.713 51.5444 99.376 51.5444 97.5737C51.5444 96.7905 51.3609 96.0747 50.8438 95.1382L31.5567 62.2822C43.5576 59.3926 50.666 50.4551 50.666 38.1084C50.666 22.7778 40.0078 13.2895 23.0713 13.2895L3.60938 13.2895C1.33399 13.2895 0 14.7061 0 17.0488L0 97.1426C0 99.2969 1.33399 100.68 3.37208 100.68ZM6.74416 57.3403L6.74416 19.3633L22.293 19.3633C35.6655 19.3633 43.7012 26.251 43.7012 38.2954C43.7012 50.335 35.8374 57.3403 22.5474 57.3403ZM84.7027 97.2031C99.4082 97.2031 111.212 88.8941 111.212 74.9854C111.212 63.9648 104.527 57.356 89.5552 53.5825L81.5069 51.5098C71.0537 48.9238 66.1446 44.3276 66.1446 37.2549C66.1446 29.2212 73.5786 22.7544 84.6084 22.7544C94.3023 22.7544 101.386 27.9175 103.291 36.4956C103.931 38.5791 104.98 39.4448 106.697 39.4448C108.679 39.4448 109.9 38.1411 109.9 35.8623C109.9 35.2393 109.818 34.5186 109.638 33.6816C107.273 23.2388 97.1558 16.2007 84.6084 16.2007C70.2251 16.2007 59.4341 25.0439 59.4341 37.6104C59.4341 48.0855 66.1187 54.6826 80.4121 58.3179L88.4605 60.3721C99.9526 63.3369 104.535 67.5845 104.535 75.4082C104.535 84.7388 96.8467 90.6494 84.7852 90.6494C73.6651 90.6494 66.0743 85.106 64.3902 75.9204C63.8174 73.9077 62.6822 72.8921 60.9658 72.8921C59.0322 72.8921 57.7656 74.3574 57.7656 76.5083C57.7656 77.229 57.8482 77.9009 58.0469 78.6704C60.5088 90.1924 71.5933 97.2031 84.7027 97.2031ZM84.5039 111.61C86.0855 111.61 87.3672 110.347 87.3672 108.766L87.3672 5.40381C87.3672 3.80713 86.0855 2.52539 84.5039 2.52539C82.9072 2.52539 81.6592 3.80713 81.6592 5.40381L81.6592 108.766C81.6592 110.347 82.9072 111.61 84.5039 111.61Z" fill="#000000" fill-opacity="0.85"/>
 </g>
</svg>
