<?xml version="1.0" encoding="UTF-8"?>
<!--Generator: Apple Native CoreSVG 232.5-->
<!DOCTYPE svg
PUBLIC "-//W3C//DTD SVG 1.1//EN"
       "http://www.w3.org/Graphics/SVG/1.1/DTD/svg11.dtd">
<svg version="1.1" xmlns="http://www.w3.org/2000/svg" xmlns:xlink="http://www.w3.org/1999/xlink" width="88.4092" height="88.5371">
 <g>
  <rect height="88.5371" opacity="0" width="88.4092" x="0" y="0"/>
  <path d="M88.4092 14.4019L88.4092 74.2632C88.4092 83.6558 83.5733 88.5371 74.0005 88.5371L14.3936 88.5371C4.86963 88.5371 0 83.7349 0 74.2632L0 14.4019C0 4.93018 4.86963 0.127929 14.3936 0.127929L74.0005 0.127929C83.5733 0.127929 88.4092 5.00928 88.4092 14.4019ZM58.2363 20.3701L58.2363 23.7207C52.4273 24.2647 48.4097 28.124 48.4097 33.8355C48.4097 39.2891 51.5835 42.48 56.4365 44.9419L58.2363 45.8662L58.2363 60.0737C54.7569 59.5669 52.9473 57.1074 52.7451 53.3687C52.6255 52.0112 51.6807 51.2534 50.5254 51.2534C49.1494 51.2534 47.8677 52.3853 48.1372 54.3677C48.6123 59.895 52.2256 63.8936 58.2363 64.5015L58.2363 68.0859C58.2363 69.0762 59.0464 69.8862 60.0029 69.8862C60.9443 69.8862 61.7544 69.0762 61.7544 68.0859L61.7544 64.5352C67.6948 63.9238 71.6416 59.9771 71.6416 53.9844C71.6416 49.1353 69.1074 45.9141 63.354 42.8765L61.7544 42.0093L61.7544 28.2495C64.4815 28.9214 66.0923 31.3809 66.2271 34.665C66.313 36.0376 67.3252 36.8291 68.4805 36.8291C69.9053 36.8291 71.1904 35.8169 70.9024 33.666C70.5132 28.4502 67.2837 24.5088 61.7544 23.7695L61.7544 20.3701C61.7544 19.4287 60.9443 18.6187 60.0029 18.6187C59.0464 18.6187 58.2363 19.4287 58.2363 20.3701ZM23.6773 22.1543C21.7773 22.1543 20.728 23.5708 20.728 25.6694L20.728 63.9839C20.728 65.5283 21.8228 66.5894 23.3672 66.5894C24.9116 66.5894 26.0064 65.5283 26.0064 63.9839L26.0064 47.228L30.7939 47.228C31.166 47.228 31.4893 47.228 32.0161 47.1792L39.2202 64.9473C39.6514 66.0942 40.5996 66.5742 41.6304 66.5742C43.355 66.5742 45.1133 65.2354 44.1382 62.896L37.0957 46.167C41.5254 44.7827 43.8926 39.6572 43.8926 34.3989C43.8926 26.5962 39.919 22.1543 31.8164 22.1543ZM62.1616 47.8921C64.7642 49.3501 66.7305 51.2476 66.7305 54.2876C66.7305 57.3599 64.9175 59.582 61.7544 60.0737L61.7544 47.7373ZM38.5771 34.5674C38.5771 39.7158 36.3213 43.1001 31.3901 43.1001L26.0064 43.1001L26.0064 26.4658L31.2656 26.4658C36.1631 26.4658 38.5771 29.4526 38.5771 34.5674ZM58.2363 40.1719L57.6592 39.8589C55.585 38.7021 53.3579 37.064 53.3579 33.6821C53.3579 30.5493 55.3106 28.5796 58.2363 28.0996Z" fill="#000000" fill-opacity="0.85"/>
 </g>
</svg>
