<?xml version="1.0" encoding="UTF-8"?>
<!--Generator: Apple Native CoreSVG 232.5-->
<!DOCTYPE svg
PUBLIC "-//W3C//DTD SVG 1.1//EN"
       "http://www.w3.org/Graphics/SVG/1.1/DTD/svg11.dtd">
<svg version="1.1" xmlns="http://www.w3.org/2000/svg" xmlns:xlink="http://www.w3.org/1999/xlink" width="107.333" height="97.9932">
 <g>
  <rect height="97.9932" opacity="0" width="107.333" x="0" y="0"/>
  <path d="M58.3575 97.9443C85.1612 97.9443 107.33 75.7759 107.33 48.9722C107.33 22.1348 85.1612 0 58.3575 0C31.5201 0 9.38533 22.1011 9.38533 48.9385L15.7032 48.9385C15.7032 25.3164 34.7354 6.35158 58.3575 6.35158C81.9796 6.35158 101.012 25.3501 101.012 48.9722C101.012 72.5942 81.9796 91.6787 58.3575 91.6113C43.5182 91.5928 30.6148 84.0068 22.9474 72.5923C21.8121 71.0444 20.047 70.561 18.4806 71.479C16.9967 72.397 16.5655 74.4165 17.8018 76.0655C26.943 89.0161 41.5392 97.9443 58.3575 97.9443ZM2.84969 40.0024C7.79875e-05 40.0024-0.788009 41.9561 0.828693 44.2666L11.4786 59.4307C12.8326 61.3438 14.7677 61.3101 16.1031 59.4307L26.753 44.2329C28.336 41.9561 27.5479 40.0024 24.7169 40.0024Z" fill="#000000" fill-opacity="0.85"/>
  <path d="M37.3087 70.8306C38.8194 70.8306 39.8468 69.7695 39.8468 68.2588L39.8468 51.8096L44.6007 51.8096C44.9879 51.8096 45.2623 51.8096 45.838 51.7944L52.8585 69.1733C53.3048 70.3355 54.2193 70.8003 55.2164 70.8003C56.8888 70.8003 58.5645 69.4614 57.672 67.2231L50.7491 50.8159C55.0777 49.4316 57.4264 44.4072 57.4264 39.25C57.4264 31.6343 53.505 27.2935 45.5894 27.2935L37.6187 27.2935C35.7862 27.2935 34.7706 28.6763 34.7706 30.7075L34.7706 68.2588C34.7706 69.7695 35.7979 70.8306 37.3087 70.8306ZM39.8468 47.7827L39.8468 31.4702L45.0538 31.4702C49.8839 31.4702 52.2642 34.3897 52.2642 39.4033C52.2642 44.4658 50.0421 47.7827 45.1632 47.7827ZM73.2335 68.8438C79.962 68.8438 84.5841 64.8516 84.5841 58.48C84.5841 53.6982 82.151 50.4956 76.4312 47.5591L71.8888 45.2188C69.4254 43.9761 66.6222 42.2554 66.6222 38.5181C66.6222 35.0064 69.2501 32.8867 72.922 32.8867C76.8414 32.8867 79.1358 35.5938 79.2891 39.5498C79.3902 40.855 80.3687 41.6314 81.524 41.6314C82.8663 41.6314 84.0992 40.6343 83.8448 38.5845C83.4034 32.9292 79.5172 28.7251 72.922 28.7251C66.4713 28.7251 61.8609 32.6148 61.8609 38.6865C61.8609 44.0391 64.9488 47.23 69.6671 49.5571L74.1236 51.7778C77.1339 53.251 79.8077 55.354 79.8077 58.7832C79.8077 62.2832 77.3868 64.6519 73.2335 64.6519C68.5313 64.6519 66.3126 62.0796 66.0768 57.8643C65.9571 56.4917 65.046 55.7827 63.8907 55.7827C62.5333 55.7827 61.3341 56.8809 61.5885 58.8296C62.1124 64.7476 66.3184 68.8438 73.2335 68.8438ZM73.1998 73.9927C74.0738 73.9927 74.8839 73.2163 74.8839 72.2935L74.8839 25.5278C74.8839 24.6016 74.0738 23.8252 73.1998 23.8252C72.2584 23.8252 71.4669 24.6016 71.4669 25.5278L71.4669 72.2935C71.4669 73.2163 72.2584 73.9927 73.1998 73.9927Z" fill="#000000" fill-opacity="0.85"/>
 </g>
</svg>
