<?xml version="1.0" encoding="UTF-8"?>
<!--Generator: Apple Native CoreSVG 232.5-->
<!DOCTYPE svg
PUBLIC "-//W3C//DTD SVG 1.1//EN"
       "http://www.w3.org/Graphics/SVG/1.1/DTD/svg11.dtd">
<svg version="1.1" xmlns="http://www.w3.org/2000/svg" xmlns:xlink="http://www.w3.org/1999/xlink" width="97.9595" height="97.9932">
 <g>
  <rect height="97.9932" opacity="0" width="97.9595" x="0" y="0"/>
  <path d="M97.9595 49.021C97.9595 75.8584 75.8247 97.9932 48.9722 97.9932C22.1685 97.9932 0 75.8584 0 49.021C0 22.2173 22.1348 0.0488281 48.9385 0.0488281C75.791 0.0488281 97.9595 22.2173 97.9595 49.021ZM55.6602 49.834L55.6602 51.8999C55.6602 53.5855 54.665 54.6143 52.9981 54.6143L45.0288 54.6143C43.3467 54.6143 42.3516 53.5855 42.3516 51.8999L42.3516 49.834C35.2764 49.3911 28.3174 48.1182 20.8584 45.4746L20.8584 64.4229C20.8584 69.3818 23.2983 71.7881 28.2085 71.7881L69.8032 71.7881C74.7285 71.7881 77.2022 69.3818 77.2022 64.4229L77.2022 45.4746C69.7095 48.1182 62.7354 49.3911 55.6602 49.834ZM40.6812 22.0591C36.7461 22.0591 34.2607 24.3794 34.2607 28.1714L34.2607 31.4219L28.2085 31.4219C23.2983 31.4219 20.8584 33.813 20.8584 38.7534L20.8584 41.5122C30.1948 45.2485 39.1172 46.5098 49.0059 46.5098C58.8945 46.5098 67.8169 45.2485 77.2022 41.5122L77.2022 38.7534C77.2022 33.813 74.7285 31.4219 69.8032 31.4219L63.7661 31.4219L63.7661 28.1714C63.7661 24.3794 61.2808 22.0591 57.3457 22.0591ZM59.7041 28.3247L59.7041 31.4219L38.3228 31.4219L38.3228 28.3247C38.3228 26.7944 39.2285 25.9375 40.8867 25.9375L57.1401 25.9375C58.7647 25.9375 59.7041 26.7944 59.7041 28.3247Z" fill="#000000" fill-opacity="0.85"/>
 </g>
</svg>
