<?xml version="1.0" encoding="UTF-8"?>
<!--Generator: Apple Native CoreSVG 232.5-->
<!DOCTYPE svg
PUBLIC "-//W3C//DTD SVG 1.1//EN"
       "http://www.w3.org/Graphics/SVG/1.1/DTD/svg11.dtd">
<svg version="1.1" xmlns="http://www.w3.org/2000/svg" xmlns:xlink="http://www.w3.org/1999/xlink" width="110.721" height="93.1035">
 <g>
  <rect height="93.1035" opacity="0" width="110.721" x="0" y="0"/>
  <path d="M47.9268 60.3267C44.7207 60.3267 42.855 58.5132 42.855 55.3374L42.855 51.4277C28.5903 50.5117 14.4653 47.6577 0 42.2241L0 35.9839C17.52 43.5376 35.4067 46.2334 55.3438 46.2334C75.3296 46.2334 93.2163 43.5376 110.721 35.9839L110.721 42.2241C96.2559 47.6577 82.146 50.5117 67.8662 51.4277L67.8662 55.3374C67.8662 58.5132 66.0005 60.3267 62.7793 60.3267ZM13.9072 93.0547L96.814 93.0547C106.119 93.0547 110.721 88.5654 110.721 79.2974L110.721 31.1216C110.721 21.8687 106.119 17.3643 96.814 17.3643L13.9072 17.3643C4.63575 17.3643 0 21.8687 0 31.1216L0 79.2974C0 88.5654 4.63575 93.0547 13.9072 93.0547ZM31.3296 20.7192L37.1724 20.7192L37.1724 11.562C37.1724 7.74513 39.521 5.5547 43.5415 5.5547L67.1646 5.5547C71.2002 5.5547 73.5 7.74513 73.5 11.562L73.5 20.667L79.3579 20.667L79.3579 11.9175C79.3579 3.96387 74.9326 0 67.0181 0L43.6392 0C36.0767 0 31.3296 3.96387 31.3296 11.9175Z" fill="#000000" fill-opacity="0.85"/>
 </g>
</svg>
