<?xml version="1.0" encoding="UTF-8"?>
<!--Generator: Apple Native CoreSVG 232.5-->
<!DOCTYPE svg
PUBLIC "-//W3C//DTD SVG 1.1//EN"
       "http://www.w3.org/Graphics/SVG/1.1/DTD/svg11.dtd">
<svg version="1.1" xmlns="http://www.w3.org/2000/svg" xmlns:xlink="http://www.w3.org/1999/xlink" width="145.5" height="118.85">
 <g>
  <rect height="118.85" opacity="0" width="145.5" x="0" y="0"/>
  <path d="M111.636 25.0923L73.8638 25.0923C58.4449 25.0923 49.4927 34.2803 49.4927 49.4146L49.4927 78.2827C49.4927 82.8944 50.3206 86.945 51.9177 90.3397L39.1031 101.579C36.9302 103.485 35.6031 104.482 33.7217 104.482C31.1397 104.482 29.565 102.635 29.565 99.7075L29.565 86.5093L26.4341 86.5093C13.2188 86.5093 5.69044 78.895 5.69044 65.7993L5.69044 26.5015C5.69044 13.4209 13.2188 5.77296 26.4341 5.77296L90.9443 5.77296C103.718 5.77296 111.127 12.8942 111.636 25.0923Z" fill="#000000" fill-opacity="0.85"/>
  <path d="M79.3667 58.1387C77.6504 58.1387 76.4209 56.857 76.4209 55.208C76.4209 53.5254 77.6504 52.2622 79.3667 52.2622L115.843 52.2622C117.526 52.2622 118.823 53.5254 118.823 55.208C118.823 56.857 117.526 58.1387 115.843 58.1387ZM79.3667 75.8477C77.6504 75.8477 76.4209 74.6519 76.4209 72.9693C76.4209 71.3203 77.6504 69.9712 79.3667 69.9712L106.162 69.9712C107.811 69.9712 109.16 71.3203 109.16 72.9693C109.16 74.6519 107.811 75.8477 106.162 75.8477ZM73.8638 96.854L94.0552 96.854L109.804 110.35C111.965 112.208 113.258 113.193 115.045 113.193C117.597 113.193 119.078 111.36 119.078 108.558L119.078 96.854L121.144 96.854C133.33 96.854 139.81 90.2696 139.81 78.2524L139.81 49.4146C139.81 37.3638 133.33 30.749 121.144 30.749L73.8638 30.749C61.6631 30.749 55.1831 37.3638 55.1831 49.4146L55.1831 78.2827C55.1831 90.3487 61.6631 96.854 73.8638 96.854Z" fill="#000000" fill-opacity="0.85"/>
 </g>
</svg>
