<?xml version="1.0" encoding="UTF-8"?>
<!--Generator: Apple Native CoreSVG 232.5-->
<!DOCTYPE svg
PUBLIC "-//W3C//DTD SVG 1.1//EN"
       "http://www.w3.org/Graphics/SVG/1.1/DTD/svg11.dtd">
<svg version="1.1" xmlns="http://www.w3.org/2000/svg" xmlns:xlink="http://www.w3.org/1999/xlink" width="134.119" height="107.536">
 <g>
  <rect height="107.536" opacity="0" width="134.119" x="0" y="0"/>
  <path d="M105.998 20.8447L105.998 25.0923L99.9526 25.0923L99.9526 20.9238C99.9526 11.5083 94.7354 6.14601 85.2085 6.14601L20.7739 6.14601C11.1377 6.14601 6.04494 11.5083 6.04494 20.9238L6.04494 60.0635C6.04494 69.4941 11.1377 74.8076 20.7739 74.8076L26.6738 74.8076C28.7051 74.8076 29.5186 75.606 29.5186 77.686L29.5186 91.9941L45.6128 76.7881C46.946 75.452 47.9499 74.9669 49.5371 74.8441C49.6958 77.0676 50.1017 79.0754 50.757 80.8526L50.5611 80.8526L33.4126 95.9219C31.2061 97.8286 29.8789 98.8257 28.0161 98.8257C25.4004 98.8257 23.8745 96.978 23.8745 94.0508L23.8745 80.8526L20.7437 80.8526C7.47949 80.8526 0 73.2383 0 60.1426L0 20.8447C0 7.76416 7.47949 0.116211 20.7437 0.116211L85.2539 0.116211C98.5029 0.116211 105.998 7.79444 105.998 20.8447Z" fill="#000000" fill-opacity="0.85"/>
  <path d="M74.1177 52.6167L109.696 52.6167C111.312 52.6167 112.541 51.3872 112.541 49.8057C112.541 48.1904 111.312 46.9609 109.696 46.9609L74.1177 46.9609C72.4688 46.9609 71.273 48.1904 71.273 49.8057C71.273 51.3872 72.4688 52.6167 74.1177 52.6167ZM74.1177 69.8355L100.269 69.8355C101.851 69.8355 103.148 68.6734 103.148 67.0581C103.148 65.4766 101.851 64.1797 100.269 64.1797L74.1177 64.1797C72.4688 64.1797 71.273 65.4766 71.273 67.0581C71.273 68.6734 72.4688 69.8355 74.1177 69.8355ZM68.1397 91.1973L88.3648 91.1973L104.113 104.693C106.274 106.551 107.568 107.536 109.321 107.536C111.873 107.536 113.354 105.704 113.354 102.901L113.354 91.1973L115.454 91.1973C127.639 91.1973 134.119 84.6128 134.119 72.5957L134.119 43.7578C134.119 31.707 127.639 25.0923 115.454 25.0923L68.1397 25.0923C55.939 25.0923 49.459 31.707 49.459 43.7578L49.459 72.626C49.459 84.6919 55.939 91.1973 68.1397 91.1973ZM68.4073 85.1675C59.5181 85.1675 55.5528 80.9629 55.5528 72.377L55.5679 43.9917C55.5679 35.4209 59.5181 31.1372 68.4073 31.1372L115.205 31.1372C124.06 31.1372 128.059 35.4209 128.059 43.9917L128.059 72.2979C128.059 80.9326 124.045 85.1675 115.205 85.1675L110.606 85.1675C108.976 85.1675 107.694 86.1343 107.694 88.2027L107.694 100.572L92.2803 86.8701C90.8809 85.5835 89.771 85.1675 88.0869 85.1675Z" fill="#000000" fill-opacity="0.85"/>
 </g>
</svg>
