<?xml version="1.0" encoding="UTF-8"?>
<!--Generator: Apple Native CoreSVG 232.5-->
<!DOCTYPE svg
PUBLIC "-//W3C//DTD SVG 1.1//EN"
       "http://www.w3.org/Graphics/SVG/1.1/DTD/svg11.dtd">
<svg version="1.1" xmlns="http://www.w3.org/2000/svg" xmlns:xlink="http://www.w3.org/1999/xlink" width="105.998" height="104.823">
 <g>
  <rect height="104.823" opacity="0" width="105.998" x="0" y="0"/>
  <path d="M77.9663 104.823C80.582 104.823 82.1231 102.927 82.1231 99.9995L82.1231 86.835L85.2539 86.835C98.5029 86.835 105.998 79.2207 105.998 66.1064L105.998 26.8423C105.998 13.7129 98.5029 6.09863 85.2539 6.09863L20.7437 6.09863C7.47949 6.09863 0 13.792 0 26.8423L0 66.1064C0 79.1416 7.47949 86.835 20.7437 86.835L55.4365 86.835L72.5849 101.886C74.7915 103.811 76.1186 104.823 77.9663 104.823ZM76.479 97.9917L60.3848 82.7368C58.7715 81.1353 57.6616 80.8052 55.4267 80.8052L20.7739 80.8052C11.2471 80.8052 6.04494 75.4429 6.04494 66.0273L6.04494 26.8726C6.04494 17.457 11.2471 12.1436 20.7739 12.1436L85.2085 12.1436C94.8599 12.1436 99.9526 17.457 99.9526 26.8726L99.9526 66.0273C99.9526 75.4429 94.8599 80.8052 85.2085 80.8052L79.3237 80.8052C77.2773 80.8052 76.479 81.6035 76.479 83.6348Z" fill="#000000" fill-opacity="0.85"/>
 </g>
</svg>
