<?xml version="1.0" encoding="UTF-8"?>
<!--Generator: Apple Native CoreSVG 232.5-->
<!DOCTYPE svg
PUBLIC "-//W3C//DTD SVG 1.1//EN"
       "http://www.w3.org/Graphics/SVG/1.1/DTD/svg11.dtd">
<svg version="1.1" xmlns="http://www.w3.org/2000/svg" xmlns:xlink="http://www.w3.org/1999/xlink" width="105.998" height="107.368">
 <g>
  <rect height="107.368" opacity="0" width="105.998" x="0" y="0"/>
  <path d="M52.939 0C51.1655 0 49.584 0.776368 48.0547 3.34327L38.8096 18.3101L20.7437 18.3101C7.47949 18.3101 0 25.9243 0 39.0386L0 78.3027C0 91.417 7.47949 99.0464 20.7437 99.0464L85.2539 99.0464C98.5029 99.0464 105.998 91.353 105.998 78.3027L105.998 39.0386C105.998 25.9883 98.5029 18.3101 85.2539 18.3101L67.0532 18.3101L57.8081 3.34327C56.294 0.776368 54.6973 0 52.939 0ZM52.939 6.13087L61.6987 21.4141C62.9165 23.7251 63.8159 24.3399 66.4502 24.3399L85.2085 24.3399C94.7354 24.3399 99.9526 29.6685 99.9526 39.084L99.9526 78.2236C99.9526 87.6543 94.7354 93.0015 85.2085 93.0015L20.7739 93.0015C11.1377 93.0015 6.04494 87.6543 6.04494 78.2236L6.04494 39.084C6.04494 29.6685 11.1377 24.3399 20.7739 24.3399L39.4126 24.3399C42.0469 24.3399 42.9463 23.7251 44.1641 21.4141Z" fill="#000000" fill-opacity="0.85"/>
 </g>
</svg>
