<?xml version="1.0" encoding="UTF-8"?>
<!--Generator: Apple Native CoreSVG 232.5-->
<!DOCTYPE svg
PUBLIC "-//W3C//DTD SVG 1.1//EN"
       "http://www.w3.org/Graphics/SVG/1.1/DTD/svg11.dtd">
<svg version="1.1" xmlns="http://www.w3.org/2000/svg" xmlns:xlink="http://www.w3.org/1999/xlink" width="97.9595" height="97.9932">
 <g>
  <rect height="97.9932" opacity="0" width="97.9595" x="0" y="0"/>
  <path d="M97.9595 49.021C97.9595 75.8584 75.8247 97.9932 48.9722 97.9932C22.1685 97.9932 0 75.8584 0 49.021C0 22.2173 22.1348 0.0488281 48.9385 0.0488281C75.791 0.0488281 97.9595 22.2173 97.9595 49.021ZM32.2603 26.7183C25.5298 26.7183 21.583 30.6836 21.583 37.3467L21.583 57.6577C21.583 64.3882 25.5298 68.3687 32.2603 68.3687L50.8618 68.3687L60.0127 76.4927C60.8784 77.3433 61.4561 77.707 62.251 77.707C63.3457 77.707 64.0396 76.8936 64.0396 75.6675L64.0396 68.3687L65.6992 68.3687C72.4297 68.3687 76.3765 64.4033 76.3765 57.6577L76.3765 37.3467C76.3765 30.6533 72.4297 26.7183 65.6992 26.7183Z" fill="#000000" fill-opacity="0.85"/>
 </g>
</svg>
