<?xml version="1.0" encoding="UTF-8"?>
<!--Generator: Apple Native CoreSVG 232.5-->
<!DOCTYPE svg
PUBLIC "-//W3C//DTD SVG 1.1//EN"
       "http://www.w3.org/Graphics/SVG/1.1/DTD/svg11.dtd">
<svg version="1.1" xmlns="http://www.w3.org/2000/svg" xmlns:xlink="http://www.w3.org/1999/xlink" width="145.5" height="118.85">
 <g>
  <rect height="118.85" opacity="0" width="145.5" x="0" y="0"/>
  <path d="M111.636 25.0923L73.8638 25.0923C58.4449 25.0923 49.4927 34.2803 49.4927 49.4146L49.4927 78.2827C49.4927 82.8944 50.3206 86.945 51.9177 90.3397L39.1031 101.579C36.9302 103.485 35.6031 104.482 33.7217 104.482C31.1397 104.482 29.565 102.635 29.565 99.7075L29.565 86.5093L26.4341 86.5093C13.2188 86.5093 5.69044 78.895 5.69044 65.7993L5.69044 26.5015C5.69044 13.4209 13.2188 5.77296 26.4341 5.77296L90.9443 5.77296C103.718 5.77296 111.127 12.8942 111.636 25.0923Z" fill="#000000" fill-opacity="0.85"/>
  <path d="M139.81 49.4146L139.81 78.2524C139.81 90.2696 133.33 96.854 121.144 96.854L119.078 96.854L119.078 108.558C119.078 111.36 117.597 113.193 115.045 113.193C113.258 113.193 111.965 112.208 109.804 110.35L94.0552 96.854L73.8638 96.854C61.6631 96.854 55.1831 90.3487 55.1831 78.2827L55.1831 49.4146C55.1831 37.3638 61.6631 30.749 73.8638 30.749L121.144 30.749C133.33 30.749 139.81 37.3638 139.81 49.4146ZM93.4639 77.8472C93.4639 79.959 95.313 81.7525 97.4703 81.7525C99.6612 81.7525 101.51 79.9927 101.51 77.8472C101.51 75.6714 99.6949 73.9268 97.4703 73.9268C95.2793 73.9268 93.4639 75.7051 93.4639 77.8472ZM94.3326 48.7813L94.8125 66.065C94.8462 67.8872 95.7911 68.9112 97.5039 68.9112C99.1495 68.9112 100.109 67.9209 100.162 66.065L100.642 48.815C100.709 46.9068 99.3448 45.5459 97.4703 45.5459C95.5957 45.5459 94.2652 46.8731 94.3326 48.7813Z" fill="#000000" fill-opacity="0.85"/>
 </g>
</svg>
