<?xml version="1.0" encoding="UTF-8"?>
<!--Generator: Apple Native CoreSVG 232.5-->
<!DOCTYPE svg
PUBLIC "-//W3C//DTD SVG 1.1//EN"
       "http://www.w3.org/Graphics/SVG/1.1/DTD/svg11.dtd">
<svg version="1.1" xmlns="http://www.w3.org/2000/svg" xmlns:xlink="http://www.w3.org/1999/xlink" width="71.6592" height="102.909">
 <g>
  <rect height="102.909" opacity="0" width="71.6592" x="0" y="0"/>
  <path d="M0 94.9307C0 99.9419 2.74659 102.909 7.46973 102.909L64.1895 102.909C68.9278 102.909 71.6592 99.9419 71.6592 94.9307L71.6592 8.07276C71.6592 3.06153 68.9278 0.0942379 64.1895 0.0942379L7.46973 0.0942379C2.74659 0.0942379 0 3.06153 0 8.07276ZM20.04 96.8794L20.04 81.1011C20.04 79.0669 21.3687 77.7383 23.4028 77.7383L49.2105 77.7383C51.2446 77.7383 52.5733 79.0669 52.5733 81.1011L52.5733 96.8794ZM18.0654 26.0879L18.0654 16.0249C18.0654 14.9404 18.7559 14.1675 19.8252 14.1675L30.1357 14.1675C31.2202 14.1675 31.9629 14.9404 31.9629 16.0249L31.9629 26.0879C31.9629 27.1909 31.2202 27.9302 30.1357 27.9302L19.8252 27.9302C18.7559 27.9302 18.0654 27.1909 18.0654 26.0879ZM40.6201 26.0879L40.6201 16.0249C40.6201 14.9404 41.3106 14.1675 42.4287 14.1675L52.6904 14.1675C53.7749 14.1675 54.5176 14.9404 54.5176 16.0249L54.5176 26.0879C54.5176 27.1909 53.7749 27.9302 52.6904 27.9302L42.4287 27.9302C41.3106 27.9302 40.6201 27.1909 40.6201 26.0879ZM18.0654 46.6455L18.0654 36.5825C18.0654 35.498 18.7559 34.7251 19.8252 34.7251L30.1357 34.7251C31.2202 34.7251 31.9629 35.498 31.9629 36.5825L31.9629 46.6455C31.9629 47.7637 31.2202 48.5029 30.1357 48.5029L19.8252 48.5029C18.7559 48.5029 18.0654 47.7637 18.0654 46.6455ZM40.6201 46.6455L40.6201 36.5825C40.6201 35.498 41.3106 34.7251 42.4287 34.7251L52.6904 34.7251C53.7749 34.7251 54.5176 35.498 54.5176 36.5825L54.5176 46.6455C54.5176 47.7637 53.7749 48.5029 52.6904 48.5029L42.4287 48.5029C41.3106 48.5029 40.6201 47.7637 40.6201 46.6455ZM18.0654 67.2183L18.0654 57.1401C18.0654 56.0371 18.7559 55.2978 19.8252 55.2978L30.1357 55.2978C31.2202 55.2978 31.9629 56.0371 31.9629 57.1401L31.9629 67.2183C31.9629 68.2876 31.2202 69.0605 30.1357 69.0605L19.8252 69.0605C18.7559 69.0605 18.0654 68.2876 18.0654 67.2183ZM40.6201 67.2183L40.6201 57.1401C40.6201 56.0371 41.3106 55.2978 42.4287 55.2978L52.6904 55.2978C53.7749 55.2978 54.5176 56.0371 54.5176 57.1401L54.5176 67.2183C54.5176 68.2876 53.7749 69.0605 52.6904 69.0605L42.4287 69.0605C41.3106 69.0605 40.6201 68.2876 40.6201 67.2183Z" fill="#000000" fill-opacity="0.85"/>
 </g>
</svg>
