<?xml version="1.0" encoding="UTF-8"?>
<!--Generator: Apple Native CoreSVG 232.5-->
<!DOCTYPE svg
PUBLIC "-//W3C//DTD SVG 1.1//EN"
       "http://www.w3.org/Graphics/SVG/1.1/DTD/svg11.dtd">
<svg version="1.1" xmlns="http://www.w3.org/2000/svg" xmlns:xlink="http://www.w3.org/1999/xlink" width="97.9595" height="97.9932">
 <g>
  <rect height="97.9932" opacity="0" width="97.9595" x="0" y="0"/>
  <path d="M48.9722 97.9443C75.8247 97.9443 97.9595 75.7759 97.9595 48.9722C97.9595 22.1348 75.791 0 48.9385 0C22.1348 0 0 22.1348 0 48.9722C0 75.7759 22.1685 97.9443 48.9722 97.9443ZM48.9722 91.6113C25.3501 91.6113 6.36671 72.5942 6.36671 48.9722C6.36671 25.3501 25.3164 6.31789 48.9385 6.31789C72.5605 6.31789 91.6265 25.3501 91.6265 48.9722C91.6265 72.5942 72.5942 91.6113 48.9722 91.6113Z" fill="#000000" fill-opacity="0.85"/>
  <path d="M22.4155 35.3731C22.4155 36.3413 23.1397 37.1548 24.2949 37.1548L73.6309 37.1548C74.7861 37.1548 75.5254 36.3413 75.5254 35.3731C75.5254 34.7466 75.165 34.1387 74.3701 33.7075L52.0029 20.8613C51.023 20.2568 49.9976 19.9639 48.9385 19.9639C47.8794 19.9639 46.8877 20.2568 45.9229 20.8613L23.522 33.7075C22.7608 34.1387 22.4155 34.7466 22.4155 35.3731ZM25.6836 65.7974C25.6836 66.6714 26.2578 67.2305 27.1807 67.2305L33.8496 67.2305C34.7388 67.2305 35.313 66.6865 35.313 65.7974L35.313 65.2383C35.313 64.4316 34.7236 63.7749 33.8496 63.7749L32.2656 63.7749L32.2656 43.419L33.8496 43.419C34.7388 43.419 35.313 42.9087 35.313 42.0195L35.313 41.4605C35.313 40.5864 34.7236 39.9971 33.8496 39.9971L27.1807 39.9971C26.273 39.9971 25.6836 40.5864 25.6836 41.4605L25.6836 42.0195C25.6836 42.8936 26.2578 43.419 27.1807 43.419L28.8101 43.419L28.8101 63.7749L27.1807 63.7749C26.273 63.7749 25.6836 64.4316 25.6836 65.2383ZM38.082 65.7974C38.082 66.6865 38.5923 67.2305 39.4815 67.2305L46.1992 67.2305C47.1372 67.2305 47.7114 66.6865 47.7114 65.7974L47.7114 65.2383C47.7114 64.4316 47.0884 63.7749 46.1992 63.7749L44.6152 63.7749L44.6152 43.419L46.1992 43.419C47.1372 43.419 47.7114 42.9087 47.7114 42.0195L47.7114 41.4605C47.7114 40.5864 47.0884 39.9971 46.1992 39.9971L39.4815 39.9971C38.6226 39.9971 38.082 40.5864 38.082 41.4605L38.082 42.0195C38.082 42.9087 38.5923 43.419 39.4815 43.419L41.1445 43.419L41.1445 63.7749L39.4815 63.7749C38.6226 63.7749 38.082 64.4316 38.082 65.2383ZM50.4316 65.7974C50.4316 66.6714 50.9907 67.2305 51.9136 67.2305L58.5977 67.2305C59.4531 67.2305 60.1099 66.6714 60.1099 65.7974L60.1099 65.2383C60.1099 64.4316 59.438 63.7749 58.5977 63.7749L56.98 63.7749L56.98 43.419L58.5977 43.419C59.4531 43.419 60.1099 42.8936 60.1099 42.0195L60.1099 41.4605C60.1099 40.5864 59.438 39.9971 58.5977 39.9971L51.9136 39.9971C51.021 39.9971 50.4316 40.5864 50.4316 41.4605L50.4316 42.0195C50.4316 42.8936 50.9907 43.419 51.9136 43.419L53.543 43.419L53.543 63.7749L51.9136 63.7749C51.021 63.7749 50.4316 64.4316 50.4316 65.2383ZM62.7964 65.7974C62.7964 66.6714 63.3555 67.2305 64.2783 67.2305L70.9624 67.2305C71.8516 67.2305 72.4443 66.6865 72.4443 65.7974L72.4443 65.2383C72.4443 64.4316 71.8027 63.7749 70.9624 63.7749L69.3784 63.7749L69.3784 43.419L70.9624 43.419C71.8516 43.419 72.4443 42.9087 72.4443 42.0195L72.4443 41.4605C72.4443 40.5864 71.8027 39.9971 70.9624 39.9971L64.2783 39.9971C63.3857 39.9971 62.7964 40.5864 62.7964 41.4605L62.7964 42.0195C62.7964 42.8936 63.3555 43.419 64.2783 43.419L65.9414 43.419L65.9414 63.7749L64.2783 63.7749C63.3857 63.7749 62.7964 64.4316 62.7964 65.2383ZM21.5835 71.8999C21.5835 72.8716 22.3901 73.6631 23.3618 73.6631L74.564 73.6631C75.5356 73.6631 76.3574 72.8716 76.3574 71.8999C76.3574 70.8794 75.5996 70.0727 74.564 70.0727L23.3618 70.0727C22.3599 70.0727 21.5835 70.8794 21.5835 71.8999Z" fill="#000000" fill-opacity="0.85"/>
 </g>
</svg>
