<?xml version="1.0" encoding="UTF-8"?>
<!--Generator: Apple Native CoreSVG 232.5-->
<!DOCTYPE svg
PUBLIC "-//W3C//DTD SVG 1.1//EN"
       "http://www.w3.org/Graphics/SVG/1.1/DTD/svg11.dtd">
<svg version="1.1" xmlns="http://www.w3.org/2000/svg" xmlns:xlink="http://www.w3.org/1999/xlink" width="97.9595" height="97.9932">
 <g>
  <rect height="97.9932" opacity="0" width="97.9595" x="0" y="0"/>
  <path d="M97.9595 49.021C97.9595 75.8584 75.8247 97.9932 48.9722 97.9932C22.1685 97.9932 0 75.8584 0 49.021C0 22.2173 22.1348 0.0488281 48.9385 0.0488281C75.791 0.0488281 97.9595 22.2173 97.9595 49.021ZM23.4854 27.0767C19.9483 27.0767 17.98 29.1982 17.98 32.8701L17.98 78.3398C25.73 86.5718 36.6978 91.6753 48.9722 91.6753C53.311 91.6753 57.4731 91.0405 61.4063 89.8384L61.4063 32.8701C61.4063 29.1982 59.4565 27.0767 55.9009 27.0767ZM64.7608 39.728L64.7608 88.668C72.7417 85.499 79.5103 79.9424 84.2144 72.9209L84.2144 45.4541C84.2144 41.7974 82.2461 39.728 78.709 39.728ZM36.1001 75.2183L36.1001 80.5908C36.1001 81.2021 35.6538 81.6113 35.1099 81.6113L29.606 81.6113C29.0283 81.6113 28.6343 81.2021 28.6343 80.5908L28.6343 75.2183C28.6343 74.6592 29.0283 74.1977 29.606 74.1977L35.1099 74.1977C35.6538 74.1977 36.1001 74.6592 36.1001 75.2183ZM50.5366 75.2183L50.5366 80.5908C50.5366 81.2021 50.124 81.6113 49.5464 81.6113L44.0425 81.6113C43.4649 81.6113 43.0708 81.2021 43.0708 80.5908L43.0708 75.2183C43.0708 74.6592 43.4649 74.1977 44.0425 74.1977L49.5464 74.1977C50.124 74.1977 50.5366 74.6592 50.5366 75.2183ZM77.6597 72.0444L77.6597 76.7905C77.6597 77.2183 77.3145 77.6123 76.8867 77.6123L72.0396 77.6123C71.5444 77.6123 71.169 77.2183 71.169 76.7905L71.169 72.0444C71.169 71.6167 71.5444 71.2227 72.0396 71.2227L76.8867 71.2227C77.3145 71.2227 77.6597 71.6167 77.6597 72.0444ZM36.1001 62.4106L36.1001 67.7646C36.1001 68.3423 35.6538 68.77 35.1099 68.77L29.606 68.77C29.0283 68.77 28.6343 68.3423 28.6343 67.7646L28.6343 62.4106C28.6343 61.833 29.0283 61.4053 29.606 61.4053L35.1099 61.4053C35.6538 61.4053 36.1001 61.833 36.1001 62.4106ZM50.5366 62.4106L50.5366 67.7646C50.5366 68.3423 50.124 68.77 49.5464 68.77L44.0425 68.77C43.4649 68.77 43.0708 68.3423 43.0708 67.7646L43.0708 62.4106C43.0708 61.833 43.4649 61.4053 44.0425 61.4053L49.5464 61.4053C50.124 61.4053 50.5366 61.833 50.5366 62.4106ZM77.6597 60.4575L77.6597 65.1699C77.6597 65.6313 77.3145 65.9917 76.8867 65.9917L72.0396 65.9917C71.5444 65.9917 71.169 65.6313 71.169 65.1699L71.169 60.4575C71.169 60.0112 71.5444 59.6357 72.0396 59.6357L76.8867 59.6357C77.3145 59.6357 77.6597 60.0112 77.6597 60.4575ZM36.1001 49.5693L36.1001 54.957C36.1001 55.501 35.6538 55.9624 35.1099 55.9624L29.606 55.9624C29.0283 55.9624 28.6343 55.501 28.6343 54.957L28.6343 49.5693C28.6343 48.9917 29.0283 48.564 29.606 48.564L35.1099 48.564C35.6538 48.564 36.1001 48.9917 36.1001 49.5693ZM50.5366 49.5693L50.5366 54.957C50.5366 55.501 50.124 55.9624 49.5464 55.9624L44.0425 55.9624C43.4649 55.9624 43.0708 55.501 43.0708 54.957L43.0708 49.5693C43.0708 48.9917 43.4649 48.564 44.0425 48.564L49.5464 48.564C50.124 48.564 50.5366 48.9917 50.5366 49.5693ZM77.6597 48.8672L77.6597 53.5981C77.6597 54.0596 77.3145 54.4199 76.8867 54.4199L72.0396 54.4199C71.5444 54.4199 71.169 54.0596 71.169 53.5981L71.169 48.8672C71.169 48.4395 71.5444 48.0454 72.0396 48.0454L76.8867 48.0454C77.3145 48.0454 77.6597 48.4395 77.6597 48.8672ZM36.1001 36.7954L36.1001 42.1831C36.1001 42.7607 35.6538 43.1885 35.1099 43.1885L29.606 43.1885C29.0283 43.1885 28.6343 42.7607 28.6343 42.1831L28.6343 36.7954C28.6343 36.2178 29.0283 35.79 29.606 35.79L35.1099 35.79C35.6538 35.79 36.1001 36.2178 36.1001 36.7954ZM50.5366 36.7954L50.5366 42.1831C50.5366 42.7607 50.124 43.1885 49.5464 43.1885L44.0425 43.1885C43.4649 43.1885 43.0708 42.7607 43.0708 42.1831L43.0708 36.7954C43.0708 36.2178 43.4649 35.79 44.0425 35.79L49.5464 35.79C50.124 35.79 50.5366 36.2178 50.5366 36.7954Z" fill="#000000" fill-opacity="0.85"/>
 </g>
</svg>
