<?xml version="1.0" encoding="UTF-8"?>
<!--Generator: Apple Native CoreSVG 232.5-->
<!DOCTYPE svg
PUBLIC "-//W3C//DTD SVG 1.1//EN"
       "http://www.w3.org/Graphics/SVG/1.1/DTD/svg11.dtd">
<svg version="1.1" xmlns="http://www.w3.org/2000/svg" xmlns:xlink="http://www.w3.org/1999/xlink" width="124.116" height="117.417">
 <g>
  <rect height="117.417" opacity="0" width="124.116" x="0" y="0"/>
  <path d="M120.416 62.2173C122.946 61.0015 124.116 59.4116 124.116 57.7007C124.116 55.9897 122.961 54.4101 120.416 53.5395L95.8071 45.0659L106.4 23.4248C106.843 22.4902 107.039 21.522 107.039 20.7002C107.039 18.3896 105.275 16.6602 102.965 16.6602C102.113 16.6602 101.193 16.8218 100.274 17.3135L77.9946 28.2031L66.4365 3.45215C65.416 1.18213 63.7993 0 62.0581 0C60.3169 0 58.7339 1.18213 57.6797 3.45215L46.1553 28.2031L23.8423 17.3135C22.9229 16.8218 22.0034 16.6602 21.1514 16.6602C18.8408 16.6602 17.0776 18.3896 17.0776 20.7002C17.0776 21.522 17.2729 22.4902 17.7495 23.4248L28.3091 45.0659L3.69971 53.5395C1.18897 54.3765 0 56.0234 0 57.7344C0 59.4116 1.2041 61.0015 3.69971 62.2173L27.2905 73.4639L14.6313 100.168C14.1211 101.185 13.877 102.168 13.877 103.088C13.877 105.075 15.2949 106.561 17.1997 106.561C18.0552 106.561 18.9932 106.249 19.9648 105.671L49.9048 87.9546L58.2134 113.583C58.956 115.811 60.4297 117.057 62.0581 117.057C63.7202 117.057 65.1602 115.811 65.9028 113.583L74.2451 87.9546L104.151 105.671C105.123 106.249 106.095 106.527 106.916 106.527C108.803 106.527 110.273 105.109 110.273 103.122C110.273 102.202 109.995 101.185 109.485 100.168L96.8257 73.4639Z" fill="#000000" fill-opacity="0.85"/>
 </g>
</svg>
