<?xml version="1.0" encoding="UTF-8"?>
<!--Generator: Apple Native CoreSVG 232.5-->
<!DOCTYPE svg
PUBLIC "-//W3C//DTD SVG 1.1//EN"
       "http://www.w3.org/Graphics/SVG/1.1/DTD/svg11.dtd">
<svg version="1.1" xmlns="http://www.w3.org/2000/svg" xmlns:xlink="http://www.w3.org/1999/xlink" width="105.059" height="111.773">
 <g>
  <rect height="111.773" opacity="0" width="105.059" x="0" y="0"/>
  <path d="M6.33643 86.5737C6.33643 89.5557 7.21534 91.8911 8.82666 93.5127L8.82666 105.306C8.82666 108.813 11.5493 111.6 15.1206 111.6L20.7461 111.6C24.3023 111.6 27.0586 108.844 27.0586 105.306L27.0586 97.6265C34.9033 98.1636 43.4385 98.4414 52.499 98.4414C61.5596 98.4414 70.1587 98.1636 78.0186 97.6416L78.0186 105.306C78.0186 108.844 80.7564 111.6 84.3125 111.6L89.938 111.6C93.4942 111.6 96.2656 108.813 96.2656 105.306L96.2656 93.5127C97.877 91.8911 98.7559 89.5557 98.7559 86.5737L98.7559 11.8677C98.7559 5.82618 95.1812 2.57617 88.9946 1.84033C78.7139 0.619629 65.6695 0 52.499 0C39.3135 0 26.2656 0.668457 16.064 1.84033C9.87745 2.57617 6.33643 5.82618 6.33643 11.8677ZM52.499 93.3467C38.6431 93.3467 26.5454 92.7422 17.2886 91.6226C13.002 91.1191 11.4009 89.0918 11.4009 85.2866L11.4009 13.1548C11.4009 9.39845 13.3237 7.30372 17.2886 6.81886C26.4258 5.71437 39.0659 5.0796 52.499 5.09474C65.6192 5.12501 78.2442 5.71437 87.7549 6.81886C92.0415 7.30714 93.6763 9.36476 93.6763 13.1548L93.6763 85.2866C93.6763 89.0918 92.0415 91.1343 87.7549 91.6226C78.1094 92.7422 66.042 93.3467 52.499 93.3467ZM20.7861 65.8179C40.0108 68.4483 64.7988 68.4971 84.3062 65.8179C87.2007 65.3867 88.6807 63.6777 88.6807 60.6333L88.6807 17.2637C88.6807 13.9497 87.0659 12.0537 83.8833 11.7422C63.5215 9.71339 41.7896 9.73195 21.2427 11.7422C18.0786 12.0537 16.4116 13.9497 16.4116 17.2637L16.4116 60.6333C16.4116 63.6777 17.9102 65.3867 20.7861 65.8179ZM6.33643 44.8936L6.33643 17.7939L4.07862 17.7939C1.57129 17.7939 0 19.291 0 21.5913L0 41.1299C0 43.4302 1.57129 44.8936 4.07862 44.8936ZM98.7559 44.8936L100.98 44.8936C103.472 44.8936 105.059 43.4302 105.059 41.1299L105.059 21.5913C105.059 19.291 103.472 17.7939 100.98 17.7939L98.7559 17.7939ZM24.6787 84.9609C27.7905 84.9609 30.1026 82.6152 30.1026 79.5371C30.1026 76.4253 27.7905 74.0981 24.6787 74.0981C21.5669 74.0981 19.2246 76.4253 19.2246 79.5371C19.2246 82.6152 21.5669 84.9609 24.6787 84.9609ZM40.772 83.3848L64.1016 83.3848C66.4102 83.3848 68.0166 81.7783 68.0166 79.4697C68.0166 77.1426 66.4102 75.5698 64.1016 75.5698L40.772 75.5698C38.4297 75.5698 36.8233 77.1426 36.8233 79.4697C36.8233 81.7783 38.4297 83.3848 40.772 83.3848ZM80.3799 84.9609C83.4917 84.9609 85.8526 82.6152 85.8526 79.5371C85.8526 76.4253 83.4917 74.0981 80.3799 74.0981C77.3018 74.0981 74.9898 76.4253 74.9898 79.5371C74.9898 82.6152 77.3018 84.9609 80.3799 84.9609Z" fill="#000000" fill-opacity="0.85"/>
 </g>
</svg>
