<?xml version="1.0" encoding="UTF-8"?>
<!--Generator: Apple Native CoreSVG 232.5-->
<!DOCTYPE svg
PUBLIC "-//W3C//DTD SVG 1.1//EN"
       "http://www.w3.org/Graphics/SVG/1.1/DTD/svg11.dtd">
<svg version="1.1" xmlns="http://www.w3.org/2000/svg" xmlns:xlink="http://www.w3.org/1999/xlink" width="103.756" height="110.995">
 <g>
  <rect height="110.995" opacity="0" width="103.756" x="0" y="0"/>
  <path d="M12.6152 110.957L18.2407 110.957C21.812 110.957 24.5684 108.185 24.5684 104.663L24.5684 96.7539C33.7066 97.4375 43.0347 97.7642 51.8555 97.7642C60.6611 97.7642 70.0347 97.4712 79.2217 96.7691L79.2217 104.663C79.2217 108.185 81.9444 110.957 85.5156 110.957L91.1411 110.957C94.6973 110.957 97.4536 108.17 97.4536 104.663L97.4536 11.8677C97.4536 5.82618 93.8941 2.57617 87.7412 1.84033C77.3257 0.619629 64.4497 0 51.8555 0C39.3135 0 26.4526 0.634766 16.064 1.84033C9.87745 2.57617 6.33643 5.82618 6.33643 11.8677L6.33643 104.663C6.33643 108.17 9.05909 110.957 12.6152 110.957ZM19.6187 65.4287C16.6231 64.9976 15.0571 63.2212 15.0571 60.042L15.0571 15.7744C15.0571 12.3071 16.7915 10.3438 20.1089 9.99854C41.3482 7.81983 62.6909 7.8501 83.7149 9.99854C87.0659 10.3438 88.7329 12.3071 88.7329 15.7744L88.7329 60.042C88.7329 63.2212 87.2007 64.9976 84.1714 65.4287C63.9531 68.0742 39.5205 68.0591 19.6187 65.4287ZM23.0547 85.874C19.7896 85.874 17.3613 83.4273 17.3613 80.1807C17.3613 76.9155 19.7896 74.4722 23.0547 74.4722C26.335 74.4722 28.7481 76.9155 28.7481 80.1807C28.7481 83.4273 26.335 85.874 23.0547 85.874ZM40.772 84.0283C38.4297 84.0283 36.8233 82.4219 36.8233 80.1133C36.8233 77.7861 38.4297 76.2134 40.772 76.2134L62.8145 76.2134C65.1231 76.2134 66.7144 77.7861 66.7144 80.1133C66.7144 82.4219 65.1231 84.0283 62.8145 84.0283ZM80.7017 85.874C77.4551 85.874 75.0571 83.4273 75.0571 80.1807C75.0571 76.9155 77.4551 74.4722 80.7017 74.4722C83.982 74.4722 86.4439 76.9155 86.4439 80.1807C86.4439 83.4273 83.982 85.874 80.7017 85.874ZM6.33643 44.2349L6.33643 17.7939L4.07862 17.7939C1.57129 17.7939 0 19.291 0 21.5913L0 40.4863C0 42.7866 1.57129 44.2349 4.07862 44.2349ZM97.4536 44.2349L99.6778 44.2349C102.185 44.2349 103.756 42.7866 103.756 40.4863L103.756 21.5913C103.756 19.291 102.185 17.7939 99.6778 17.7939L97.4536 17.7939Z" fill="#000000" fill-opacity="0.85"/>
 </g>
</svg>
