<?xml version="1.0" encoding="UTF-8"?>
<!--Generator: Apple Native CoreSVG 232.5-->
<!DOCTYPE svg
PUBLIC "-//W3C//DTD SVG 1.1//EN"
       "http://www.w3.org/Graphics/SVG/1.1/DTD/svg11.dtd">
<svg version="1.1" xmlns="http://www.w3.org/2000/svg" xmlns:xlink="http://www.w3.org/1999/xlink" width="99.4019" height="120.893">
 <g>
  <rect height="120.893" opacity="0" width="99.4019" x="0" y="0"/>
  <path d="M6.33643 110.831C6.33643 114.338 9.05909 117.125 12.6152 117.125L18.2407 117.125C21.812 117.125 24.5684 114.369 24.5684 110.831L24.5684 102.938C33.582 103.557 41.6621 103.917 49.6782 103.917C57.6943 103.917 65.7407 103.591 74.7881 102.938L74.7881 110.831C74.7881 114.369 77.5108 117.125 81.0669 117.125L86.6924 117.125C90.2637 117.125 93.02 114.338 93.02 110.831L93.02 11.8003C93.02 5.77735 89.4453 2.49365 83.2588 1.80664C72.9863 0.585938 61.2305 0 49.6782 0C38.1597 0 26.4375 0.585938 16.064 1.80664C9.87745 2.49365 6.33643 5.77735 6.33643 11.8003ZM14.8027 38.9736L14.8027 15.4224C14.8027 12.3442 16.5034 10.3809 19.3643 10.0356C29.9443 8.9126 39.8096 8.3418 49.6782 8.3418C59.5132 8.3418 69.4458 8.94629 79.9922 10.0356C82.853 10.3809 84.5537 12.3442 84.5537 15.4224L84.5537 38.9736ZM14.8027 44.9522L84.5537 44.9522L84.5537 67.8867C84.5537 70.9648 82.853 72.9131 79.9922 73.2246C70.1626 74.3174 59.8716 74.8731 49.6782 74.8731C39.4512 74.8731 29.1939 74.3359 19.3643 73.2246C16.5034 72.9131 14.8027 70.9648 14.8027 67.8867ZM23.4004 92.9741C20.356 92.9741 17.98 90.6284 17.98 87.584C17.98 84.5059 20.356 82.1636 23.4004 82.1636C26.4785 82.1636 28.7905 84.5059 28.7905 87.584C28.7905 90.6284 26.4785 92.9741 23.4004 92.9741ZM40.4253 91.3643C38.2178 91.3643 36.6113 89.7578 36.6113 87.5503C36.6113 85.3091 38.1841 83.7363 40.4253 83.7363L58.8975 83.7363C61.1724 83.7363 62.7451 85.3091 62.7451 87.5503C62.7451 89.7578 61.1387 91.3643 58.8975 91.3643ZM76.0015 92.9741C72.9233 92.9741 70.6113 90.6284 70.6113 87.584C70.6113 84.5059 72.9233 82.1636 76.0015 82.1636C79.0459 82.1636 81.4068 84.5059 81.4068 87.584C81.4068 90.6284 79.0459 92.9741 76.0015 92.9741ZM8.85938 55.7959L8.85938 30.9639L4.07862 30.9639C1.57129 30.9639 0 32.4458 0 34.7461L0 52.0322C0 54.2988 1.57129 55.7959 4.07862 55.7959ZM90.5425 55.7959L95.3233 55.7959C97.8154 55.7959 99.4019 54.2988 99.4019 52.0322L99.4019 34.7461C99.4019 32.4458 97.8154 30.9639 95.3233 30.9639L90.5425 30.9639Z" fill="#000000" fill-opacity="0.85"/>
 </g>
</svg>
