<?xml version="1.0" encoding="UTF-8"?>
<!--Generator: Apple Native CoreSVG 232.5-->
<!DOCTYPE svg
PUBLIC "-//W3C//DTD SVG 1.1//EN"
       "http://www.w3.org/Graphics/SVG/1.1/DTD/svg11.dtd">
<svg version="1.1" xmlns="http://www.w3.org/2000/svg" xmlns:xlink="http://www.w3.org/1999/xlink" width="109.998" height="83.086">
 <g>
  <rect height="83.086" opacity="0" width="109.998" x="0" y="0"/>
  <path d="M38.999 0C11.6475 0 0 12.7192 0 38.1533L0 69.147C0 78.2988 4.79053 83.0371 13.9912 83.0371L96.0064 83.0371C105.192 83.0371 109.998 78.2349 109.998 69.147L109.998 38.1533C109.998 12.7192 98.335 0 70.9985 0ZM39.0293 6.04494L70.9194 6.04494C94.3027 6.04494 103.953 16.4634 103.953 37.8433L103.953 68.8472C103.953 74.2295 101.028 76.9922 95.8413 76.9922L14.1563 76.9922C8.81105 76.9922 6.04494 74.2295 6.04494 68.8472L6.04494 37.8433C6.04494 16.4634 15.6797 6.04494 39.0293 6.04494Z" fill="#000000" fill-opacity="0.85"/>
 </g>
</svg>
