<?xml version="1.0" encoding="UTF-8"?>
<!--Generator: Apple Native CoreSVG 232.5-->
<!DOCTYPE svg
PUBLIC "-//W3C//DTD SVG 1.1//EN"
       "http://www.w3.org/Graphics/SVG/1.1/DTD/svg11.dtd">
<svg version="1.1" xmlns="http://www.w3.org/2000/svg" xmlns:xlink="http://www.w3.org/1999/xlink" width="114.359" height="125.491">
 <g>
  <rect height="125.491" opacity="0" width="114.359" x="0" y="0"/>
  <path d="M17.7583 29.6338L17.7583 95.7412C17.7583 105.782 21.7112 114.317 28.4246 119.582C14.5868 119.566 5.65675 109.374 5.65675 95.7412L5.65675 29.6338C5.65675 15.9951 14.5902 5.82277 28.3982 5.7944C21.7008 11.0587 17.7583 19.586 17.7583 29.6338Z" fill="#000000" fill-opacity="0.85"/>
  <path d="M68.0186 29.6338L68.0186 45.5889L56.2261 55.7696C51.9302 59.4981 51.8057 65.7642 56.1958 69.5718L68.0186 79.7531L68.0186 95.7412C68.0186 109.701 59.1988 119.685 45.7261 119.685C32.2686 119.685 23.4488 109.701 23.4488 95.7412L23.4488 29.6338C23.4488 15.6406 32.2686 5.65675 45.7261 5.65675C59.1988 5.65675 68.0186 15.6406 68.0186 29.6338Z" fill="#000000" fill-opacity="0.85"/>
  <path d="M59.9429 65.2876L74.2232 77.5562C76.5557 79.6446 79.9644 78.4371 79.9644 75.104L79.9644 65.9029L105.472 65.9029C107.301 65.9029 108.669 64.4864 108.669 62.7212C108.669 60.8584 107.301 59.5059 105.472 59.5059L79.9644 59.5059L79.9644 50.2373C79.9644 46.9903 76.6416 45.6294 74.2232 47.7515L59.9429 60.0537C58.1797 61.524 58.1343 63.7383 59.9429 65.2876Z" fill="#000000" fill-opacity="0.85"/>
 </g>
</svg>
