<?xml version="1.0" encoding="UTF-8"?>
<!--Generator: Apple Native CoreSVG 232.5-->
<!DOCTYPE svg
PUBLIC "-//W3C//DTD SVG 1.1//EN"
       "http://www.w3.org/Graphics/SVG/1.1/DTD/svg11.dtd">
<svg version="1.1" xmlns="http://www.w3.org/2000/svg" xmlns:xlink="http://www.w3.org/1999/xlink" width="121.484" height="114.178">
 <g>
  <rect height="114.178" opacity="0" width="121.484" x="0" y="0"/>
  <path d="M121.484 23.9771L121.484 90.0845C121.484 104.534 111.498 114.028 96.2617 114.028L81.4638 114.028C67.9912 114.028 59.1377 104.044 59.1377 90.0845L59.1377 71.6973L65.1675 66.5111L65.1675 90.0845C65.1675 100.379 71.6562 107.983 81.4638 107.983C91.2378 107.983 97.6963 100.379 97.6963 90.0845L97.6963 23.9771C97.6963 13.6826 91.2378 6.04494 81.4638 6.04494C71.6562 6.04494 65.1675 13.6826 65.1675 23.9771L65.1675 47.5153L59.1377 42.3271L59.1377 23.9771C59.1377 9.98389 67.9912 0 81.4638 0L96.2617 0C111.498 0 121.484 9.49366 121.484 23.9771ZM103.741 23.9771L103.741 90.0845C103.741 97.4492 101.273 103.707 96.9524 107.956C108.091 107.691 115.455 100.649 115.455 90.0845L115.455 23.9771C115.455 13.4115 108.089 6.33681 96.9487 6.07188C101.271 10.3245 103.741 16.5925 103.741 23.9771Z" fill="#000000" fill-opacity="0.85"/>
  <path d="M68.3711 61.0528C71.1186 58.7866 70.9941 55.1621 68.3559 52.9751L54.1245 40.688C50.518 37.6455 45.3965 39.8174 45.3965 44.5806L45.3965 52.02L21.7026 52.02C18.8554 52.02 16.6733 54.2173 16.6733 57.0645C16.6733 59.814 18.8554 62.0264 21.7026 62.0264L45.3965 62.0264L45.3965 69.4473C45.3965 74.3115 50.604 76.3487 54.1245 73.3062Z" fill="#000000" fill-opacity="0.85"/>
 </g>
</svg>
