<?xml version="1.0" encoding="UTF-8"?>
<!--Generator: Apple Native CoreSVG 232.5-->
<!DOCTYPE svg
PUBLIC "-//W3C//DTD SVG 1.1//EN"
       "http://www.w3.org/Graphics/SVG/1.1/DTD/svg11.dtd">
<svg version="1.1" xmlns="http://www.w3.org/2000/svg" xmlns:xlink="http://www.w3.org/1999/xlink" width="114.013" height="120.911">
 <g>
  <rect height="120.911" opacity="0" width="114.013" x="0" y="0"/>
  <path d="M114.013 66.8194L114.013 81.6324C114.013 96.8531 104.519 106.874 90.0845 106.874L23.9434 106.874C9.49366 106.874 0 96.8531 0 81.6324L0 66.8194C0 53.3467 9.96876 44.5269 23.9434 44.5269L42.3259 44.5269L47.5121 50.5567L23.9434 50.5567C13.6489 50.5567 6.04494 57.0455 6.04494 66.8194C6.04494 76.5933 13.6489 83.0518 23.9434 83.0518L90.0845 83.0518C100.345 83.0518 107.983 76.5933 107.983 66.8194C107.983 57.0455 100.345 50.5567 90.0845 50.5567L66.4813 50.5567L71.6862 44.5269L90.0845 44.5269C104.044 44.5269 114.013 53.3467 114.013 66.8194ZM90.0845 89.0967L23.9434 89.0967C16.5739 89.0967 10.3184 86.6398 6.07213 82.3268C6.33953 93.4809 13.4128 100.844 23.9434 100.844L90.0845 100.844C100.605 100.844 107.694 93.4746 107.956 82.3125C103.711 86.6343 97.4541 89.0967 90.0845 89.0967Z" fill="#000000" fill-opacity="0.85"/>
  <path d="M61.0376 53.7603L73.3062 39.48C76.3335 35.9746 74.3115 30.752 69.4136 30.752L62.0264 30.752L62.0264 7.05813C62.0264 4.24465 59.814 2.06252 57.0308 2.06252C54.2173 2.06252 52.02 4.24465 52.02 7.05813L52.02 30.752L44.5806 30.752C39.8023 30.752 37.6118 35.8736 40.688 39.48L52.9414 53.7452C55.1621 56.3648 58.7529 56.4742 61.0376 53.7603Z" fill="#000000" fill-opacity="0.85"/>
 </g>
</svg>
