<?xml version="1.0" encoding="UTF-8"?>
<!--Generator: Apple Native CoreSVG 232.5-->
<!DOCTYPE svg
PUBLIC "-//W3C//DTD SVG 1.1//EN"
       "http://www.w3.org/Graphics/SVG/1.1/DTD/svg11.dtd">
<svg version="1.1" xmlns="http://www.w3.org/2000/svg" xmlns:xlink="http://www.w3.org/1999/xlink" width="97.9595" height="97.9932">
 <g>
  <rect height="97.9932" opacity="0" width="97.9595" x="0" y="0"/>
  <path d="M97.9595 48.9722C97.9595 75.7759 75.8247 97.9443 48.9722 97.9443C22.1685 97.9443 0 75.7759 0 48.9722C0 22.1348 22.1348 0 48.9385 0C75.791 0 97.9595 22.1348 97.9595 48.9722ZM28.6787 48.6992C28.6787 62.8516 36.7676 72.1055 49.2061 72.1055C57.8657 72.1055 64.9644 67.6187 66.9365 60.8618C67.2026 59.9492 67.27 59.4321 67.27 58.8662C67.27 57.1265 66.2358 56.0806 64.5264 56.0806C63.27 56.0806 62.4751 56.7256 61.8872 58.1773C60.2266 63.5933 55.543 66.854 49.2734 66.854C40.7661 66.854 34.9561 59.478 34.9561 48.6992C34.9561 37.9204 40.7661 30.5259 49.2734 30.5259C55.543 30.5259 60.2417 33.7715 61.8872 39.2212C62.4751 40.6729 63.27 41.2842 64.5264 41.2842C66.2358 41.2842 67.27 40.2383 67.27 38.4985C67.27 37.8652 67.2026 37.4155 66.9365 36.5181C64.9155 29.8252 57.8052 25.2593 49.2061 25.2593C36.8013 25.2593 28.6787 34.5469 28.6787 48.6992Z" fill="#000000" fill-opacity="0.85"/>
 </g>
</svg>
