<?xml version="1.0" encoding="UTF-8"?>
<!--Generator: Apple Native CoreSVG 232.5-->
<!DOCTYPE svg
PUBLIC "-//W3C//DTD SVG 1.1//EN"
       "http://www.w3.org/Graphics/SVG/1.1/DTD/svg11.dtd">
<svg version="1.1" xmlns="http://www.w3.org/2000/svg" xmlns:xlink="http://www.w3.org/1999/xlink" width="75.3042" height="107.543">
 <g>
  <rect height="107.543" opacity="0" width="75.3042" x="0" y="0"/>
  <path d="M10.3106 98.5518L64.9937 98.5518C71.1568 98.5518 75.3042 94.2461 75.3042 87.7144L75.3042 10.8525C75.3042 4.3208 71.1568 0 64.9937 0L10.3106 0C4.14746 0 0 4.3208 0 10.8525L0 87.7144C0 94.2461 4.14746 98.5518 10.3106 98.5518ZM10.5195 92.522C7.81593 92.522 6.04494 90.6299 6.04494 87.7261L6.04494 10.8408C6.04494 7.93702 7.81593 6.04494 10.5195 6.04494L64.7847 6.04494C67.4732 6.04494 69.2593 7.93702 69.2593 10.8408L69.2593 87.7261C69.2593 90.6299 67.4732 92.522 64.7847 92.522ZM35.1123 95.2305L40.1919 95.2305L40.1919 3.09913L35.1123 3.09913ZM25.3521 55.8252C27.9722 55.8252 30.1343 53.6968 30.1343 51.0615C30.1343 48.3926 27.9722 46.2642 25.3521 46.2642C22.7168 46.2642 20.5547 48.3926 20.5547 51.0615C20.5547 53.6968 22.7168 55.8252 25.3521 55.8252ZM49.8731 55.8252C52.5083 55.8252 54.6704 53.6968 54.6704 51.0615C54.6704 48.3926 52.5083 46.2642 49.8731 46.2642C47.2529 46.2642 45.0908 48.3926 45.0908 51.0615C45.0908 53.6968 47.2529 55.8252 49.8731 55.8252ZM13.3379 107.373C15.3101 107.373 16.6489 106.001 16.6489 104.028L16.6489 94.9556L10.0269 94.9556L10.0269 104.028C10.0269 106.001 11.3657 107.373 13.3379 107.373ZM61.9512 107.373C63.9385 107.373 65.2622 106.001 65.2622 104.028L65.2622 94.9556L58.6402 94.9556L58.6402 104.028C58.6402 106.001 59.979 107.373 61.9512 107.373Z" fill="#000000" fill-opacity="0.85"/>
 </g>
</svg>
