<?xml version="1.0" encoding="UTF-8"?>
<!--Generator: Apple Native CoreSVG 232.5-->
<!DOCTYPE svg
PUBLIC "-//W3C//DTD SVG 1.1//EN"
       "http://www.w3.org/Graphics/SVG/1.1/DTD/svg11.dtd">
<svg version="1.1" xmlns="http://www.w3.org/2000/svg" xmlns:xlink="http://www.w3.org/1999/xlink" width="75.3042" height="108.83">
 <g>
  <rect height="108.83" opacity="0" width="75.3042" x="0" y="0"/>
  <path d="M10.3106 99.8389L34.7993 99.8389L34.7993 0L10.3106 0C4.14746 0 0 4.3208 0 10.8374L0 89.0015C0 95.5332 4.14746 99.8389 10.3106 99.8389ZM23.4302 56.4688C20.7949 56.4688 18.6328 54.3404 18.6328 51.7051C18.6328 49.0362 20.7949 46.9077 23.4302 46.9077C26.0503 46.9077 28.2124 49.0362 28.2124 51.7051C28.2124 54.3404 26.0503 56.4688 23.4302 56.4688ZM64.9937 99.8389C71.1568 99.8389 75.3042 95.5332 75.3042 89.0015L75.3042 10.8374C75.3042 4.3208 71.1568 0 64.9937 0L40.4898 0L40.4898 99.8389ZM51.7949 56.4688C49.1748 56.4688 47.0127 54.3404 47.0127 51.7051C47.0127 49.0362 49.1748 46.9077 51.7949 46.9077C54.4302 46.9077 56.5923 49.0362 56.5923 51.7051C56.5923 54.3404 54.4302 56.4688 51.7949 56.4688ZM13.3379 108.66C15.3101 108.66 16.6489 107.288 16.6489 105.315L16.6489 96.2427L10.0269 96.2427L10.0269 105.315C10.0269 107.288 11.3657 108.66 13.3379 108.66ZM61.9512 108.66C63.9385 108.66 65.2622 107.288 65.2622 105.315L65.2622 96.2427L58.6402 96.2427L58.6402 105.315C58.6402 107.288 59.979 108.66 61.9512 108.66Z" fill="#000000" fill-opacity="0.85"/>
 </g>
</svg>
