<?xml version="1.0" encoding="UTF-8"?>
<!--Generator: Apple Native CoreSVG 232.5-->
<!DOCTYPE svg
PUBLIC "-//W3C//DTD SVG 1.1//EN"
       "http://www.w3.org/Graphics/SVG/1.1/DTD/svg11.dtd">
<svg version="1.1" xmlns="http://www.w3.org/2000/svg" xmlns:xlink="http://www.w3.org/1999/xlink" width="89.0739" height="108.811">
 <g>
  <rect height="108.811" opacity="0" width="89.0739" x="0" y="0"/>
  <path d="M48.6147 70.1563L47.9398 70.1563L47.9398 108.807L41.2503 108.807L41.2503 70.1563L34.5282 70.1563C30.64 70.1563 28.9613 68.4927 28.9613 64.6196L28.9613 50.5209ZM60.18 26.5713L60.18 59.2286L28.9613 28.0386L28.9613 26.5713C28.9613 22.7319 30.64 21.0498 34.5282 21.0498L54.6283 21.0498C58.5013 21.0498 60.18 22.7319 60.18 26.5713ZM53.5868 5.53662L53.5868 16.0029L35.5697 16.0029L35.5697 5.53662C35.5697 1.64844 37.2669 0 41.1551 0L48.0013 0C51.8744 0 53.5868 1.64844 53.5868 5.53662Z" fill="#000000" fill-opacity="0.85"/>
  <path d="M79.078 93.4917C80.2098 94.6236 82.1063 94.6236 83.2044 93.4917C84.2874 92.375 84.3363 90.4971 83.2044 89.3652L10.0448 16.2393C8.95833 15.1377 7.01643 15.0586 5.88459 16.2393C4.78645 17.3374 4.78645 19.2339 5.88459 20.3657Z" fill="#000000" fill-opacity="0.85"/>
 </g>
</svg>
