<?xml version="1.0" encoding="UTF-8"?>
<!--Generator: Apple Native CoreSVG 232.5-->
<!DOCTYPE svg
PUBLIC "-//W3C//DTD SVG 1.1//EN"
       "http://www.w3.org/Graphics/SVG/1.1/DTD/svg11.dtd">
<svg version="1.1" xmlns="http://www.w3.org/2000/svg" xmlns:xlink="http://www.w3.org/1999/xlink" width="31.2188" height="108.811">
 <g>
  <rect height="108.811" opacity="0" width="31.2188" x="0" y="0"/>
  <path d="M12.2739 108.807L18.9634 108.807L18.9634 62.8858L12.2739 62.8858ZM5.55176 70.1563L25.667 70.1563C29.5064 70.1563 31.2188 68.4927 31.2188 64.6196L31.2188 26.5713C31.2188 22.7319 29.5064 21.0498 25.667 21.0498L5.55176 21.0498C1.67871 21.0498 0 22.7319 0 26.5713L0 64.6196C0 68.4927 1.67871 70.1563 5.55176 70.1563Z" fill="#000000" fill-opacity="0.85"/>
  <path d="M6.59326 16.0029L24.6255 16.0029L24.6255 5.53662C24.6255 1.64844 22.8794 0 19.04 0L12.1787 0C8.30566 0 6.59326 1.64844 6.59326 5.53662Z" fill="#000000" fill-opacity="0.425"/>
 </g>
</svg>
