<?xml version="1.0" encoding="UTF-8"?>
<!--Generator: Apple Native CoreSVG 232.5-->
<!DOCTYPE svg
PUBLIC "-//W3C//DTD SVG 1.1//EN"
       "http://www.w3.org/Graphics/SVG/1.1/DTD/svg11.dtd">
<svg version="1.1" xmlns="http://www.w3.org/2000/svg" xmlns:xlink="http://www.w3.org/1999/xlink" width="132.401" height="88.5371">
 <g>
  <rect height="88.5371" opacity="0" width="132.401" x="0" y="0"/>
  <path d="M124.035 74.2632C124.035 83.7349 119.165 88.5371 109.641 88.5371L41.6856 88.5371C32.1617 88.5371 27.3257 83.6558 27.3257 74.2632L27.3257 52.6597L33.3555 52.6597L33.3555 74.5059C33.3555 79.7886 36.2359 82.4922 41.3081 82.4922L110.071 82.4922C115.234 82.4922 117.99 79.7886 117.99 74.5059L117.99 52.6597L124.035 52.6597ZM124.035 14.4019L124.035 35.9263L117.99 35.9263L117.99 14.1592C117.99 8.87648 115.234 6.17287 110.071 6.17287L41.3081 6.17287C36.2359 6.17287 33.3555 8.87648 33.3555 14.1592L33.3555 35.9263L27.3257 35.9263L27.3257 14.4019C27.3257 5.00928 32.1617 0.127929 41.6856 0.127929L109.641 0.127929C119.165 0.127929 124.035 4.93018 124.035 14.4019Z" fill="#000000" fill-opacity="0.85"/>
  <path d="M19.4322 82.1104C19.4322 84.9732 17.1133 87.3106 14.2656 87.3106C11.4028 87.3106 9.05031 84.9732 9.05031 82.1104C9.05031 79.2476 11.4028 76.9439 14.2656 76.9439C17.1133 76.9439 19.4322 79.2476 19.4322 82.1104Z" fill="#000000" fill-opacity="0.85"/>
  <path d="M19.4322 63.1528C19.4322 66.0156 17.1133 68.3345 14.2656 68.3345C11.4028 68.3345 9.05031 66.0156 9.05031 63.1528C9.05031 60.2715 11.4028 57.9526 14.2656 57.9526C17.1133 57.9526 19.4322 60.2715 19.4322 63.1528Z" fill="#000000" fill-opacity="0.85"/>
  <path d="M19.4322 25.2344C19.4322 28.082 17.1133 30.4346 14.2656 30.4346C11.4028 30.4346 9.05031 28.082 9.05031 25.2344C9.05031 22.3716 11.4028 20.0527 14.2656 20.0527C17.1133 20.0527 19.4322 22.3716 19.4322 25.2344Z" fill="#000000" fill-opacity="0.85"/>
  <path d="M19.4322 6.24316C19.4322 9.13965 17.1133 11.4434 14.2656 11.4434C11.4028 11.4434 9.05031 9.13965 9.05031 6.24316C9.05031 3.38037 11.4028 1.07665 14.2656 1.07665C17.1133 1.07665 19.4322 3.38037 19.4322 6.24316Z" fill="#000000" fill-opacity="0.85"/>
  <path d="M14.2354 50.1128C16.458 50.1128 18.4063 48.877 19.3325 47.0029L124.035 47.0029C125.53 47.0029 126.745 45.7886 126.745 44.293C126.745 42.7974 125.53 41.6167 124.035 41.6167L19.3999 41.6167C18.4888 39.6602 16.458 38.3755 14.2354 38.3755C10.9971 38.3755 8.33302 40.9907 8.33302 44.2441C8.33302 47.4824 10.9971 50.1128 14.2354 50.1128Z" fill="#000000" fill-opacity="0.85"/>
 </g>
</svg>
