<?xml version="1.0" encoding="UTF-8"?>
<!--Generator: Apple Native CoreSVG 232.5-->
<!DOCTYPE svg
PUBLIC "-//W3C//DTD SVG 1.1//EN"
       "http://www.w3.org/Graphics/SVG/1.1/DTD/svg11.dtd">
<svg version="1.1" xmlns="http://www.w3.org/2000/svg" xmlns:xlink="http://www.w3.org/1999/xlink" width="132.469" height="88.5371">
 <g>
  <rect height="88.5371" opacity="0" width="132.469" x="0" y="0"/>
  <path d="M105.109 74.2632C105.109 83.6558 100.289 88.5371 90.7158 88.5371L22.7754 88.5371C13.27 88.5371 8.36671 83.7349 8.36671 74.2632L8.36671 52.6597L14.4116 52.6597L14.4116 74.5059C14.4116 79.7886 17.2012 82.4922 22.3643 82.4922L91.127 82.4922C96.1655 82.4922 99.0796 79.7886 99.0796 74.5059L99.0796 52.6597L105.109 52.6597ZM105.109 14.4019L105.109 35.9263L99.0796 35.9263L99.0796 14.1592C99.0796 8.87648 96.1655 6.17287 91.127 6.17287L22.3643 6.17287C17.2012 6.17287 14.4116 8.87648 14.4116 14.1592L14.4116 35.9263L8.36671 35.9263L8.36671 14.4019C8.36671 4.93018 13.27 0.127929 22.7754 0.127929L90.7158 0.127929C100.289 0.127929 105.109 5.00928 105.109 14.4019Z" fill="#000000" fill-opacity="0.85"/>
  <path d="M123.351 82.1104C123.351 84.9732 121.047 87.3106 118.185 87.3106C115.322 87.3106 112.969 84.9732 112.969 82.1104C112.969 79.2476 115.322 76.9439 118.185 76.9439C121.047 76.9439 123.351 79.2476 123.351 82.1104Z" fill="#000000" fill-opacity="0.85"/>
  <path d="M123.351 63.1528C123.351 66.0156 121.047 68.3345 118.185 68.3345C115.322 68.3345 112.969 66.0156 112.969 63.1528C112.969 60.2715 115.322 57.9526 118.185 57.9526C121.047 57.9526 123.351 60.2715 123.351 63.1528Z" fill="#000000" fill-opacity="0.85"/>
  <path d="M123.351 25.2344C123.351 28.082 121.047 30.4346 118.185 30.4346C115.322 30.4346 112.969 28.082 112.969 25.2344C112.969 22.3716 115.322 20.0527 118.185 20.0527C121.047 20.0527 123.351 22.3716 123.351 25.2344Z" fill="#000000" fill-opacity="0.85"/>
  <path d="M123.351 6.24316C123.351 9.13965 121.047 11.4434 118.185 11.4434C115.322 11.4434 112.969 9.13965 112.969 6.24316C112.969 3.38037 115.322 1.07665 118.185 1.07665C121.047 1.07665 123.351 3.38037 123.351 6.24316Z" fill="#000000" fill-opacity="0.85"/>
  <path d="M118.2 50.1128C121.453 50.1128 124.068 47.4824 124.068 44.2441C124.068 40.9907 121.453 38.3755 118.2 38.3755C115.943 38.3755 113.961 39.6602 113.017 41.6167L8.36671 41.6167C6.88624 41.6167 5.69044 42.7974 5.69044 44.293C5.69044 45.7886 6.88624 47.0029 8.36671 47.0029L113.069 47.0029C114.044 48.877 115.943 50.1128 118.2 50.1128Z" fill="#000000" fill-opacity="0.85"/>
 </g>
</svg>
