<?xml version="1.0" encoding="UTF-8"?>
<!--Generator: Apple Native CoreSVG 232.5-->
<!DOCTYPE svg
PUBLIC "-//W3C//DTD SVG 1.1//EN"
       "http://www.w3.org/Graphics/SVG/1.1/DTD/svg11.dtd">
<svg version="1.1" xmlns="http://www.w3.org/2000/svg" xmlns:xlink="http://www.w3.org/1999/xlink" width="96.6939" height="88.5371">
 <g>
  <rect height="88.5371" opacity="0" width="96.6939" x="0" y="0"/>
  <path d="M14.3936 88.5371L82.3188 88.5371C91.8579 88.5371 96.6939 83.6558 96.6939 74.2632L96.6939 14.4019C96.6939 5.00928 91.8579 0.127929 82.3188 0.127929L14.3936 0.127929C4.86963 0.127929 0 4.93018 0 14.4019L0 74.2632C0 83.7349 4.86963 88.5371 14.3936 88.5371ZM13.9639 82.4922C8.80079 82.4922 6.04494 79.7886 6.04494 74.5059L6.04494 29.8384C6.04494 24.5894 8.80079 21.8521 13.9639 21.8521L82.6963 21.8521C87.7685 21.8521 90.6489 24.5894 90.6489 29.8384L90.6489 74.5059C90.6489 79.7886 87.7685 82.4922 82.6963 82.4922ZM38.6758 39.1846L41.5566 39.1846C43.084 39.1846 43.4849 38.8174 43.4849 37.3052L43.4849 34.4395C43.4849 32.9272 43.084 32.5264 41.5566 32.5264L38.6758 32.5264C37.1484 32.5264 36.7139 32.9272 36.7139 34.4395L36.7139 37.3052C36.7139 38.8174 37.1484 39.1846 38.6758 39.1846ZM55.2197 39.1846L58.1006 39.1846C59.6279 39.1846 60.0625 38.8174 60.0625 37.3052L60.0625 34.4395C60.0625 32.9272 59.6279 32.5264 58.1006 32.5264L55.2197 32.5264C53.6924 32.5264 53.2578 32.9272 53.2578 34.4395L53.2578 37.3052C53.2578 38.8174 53.6924 39.1846 55.2197 39.1846ZM71.7637 39.1846L74.6445 39.1846C76.1719 39.1846 76.6064 38.8174 76.6064 37.3052L76.6064 34.4395C76.6064 32.9272 76.1719 32.5264 74.6445 32.5264L71.7637 32.5264C70.2363 32.5264 69.8506 32.9272 69.8506 34.4395L69.8506 37.3052C69.8506 38.8174 70.2363 39.1846 71.7637 39.1846ZM22.1318 55.4844L24.979 55.4844C26.54 55.4844 26.9409 55.1172 26.9409 53.605L26.9409 50.7393C26.9409 49.227 26.54 48.8599 24.979 48.8599L22.1318 48.8599C20.5708 48.8599 20.1699 49.227 20.1699 50.7393L20.1699 53.605C20.1699 55.1172 20.5708 55.4844 22.1318 55.4844ZM38.6758 55.4844L41.5566 55.4844C43.084 55.4844 43.4849 55.1172 43.4849 53.605L43.4849 50.7393C43.4849 49.227 43.084 48.8599 41.5566 48.8599L38.6758 48.8599C37.1484 48.8599 36.7139 49.227 36.7139 50.7393L36.7139 53.605C36.7139 55.1172 37.1484 55.4844 38.6758 55.4844ZM55.2197 55.4844L58.1006 55.4844C59.6279 55.4844 60.0625 55.1172 60.0625 53.605L60.0625 50.7393C60.0625 49.227 59.6279 48.8599 58.1006 48.8599L55.2197 48.8599C53.6924 48.8599 53.2578 49.227 53.2578 50.7393L53.2578 53.605C53.2578 55.1172 53.6924 55.4844 55.2197 55.4844ZM71.7637 55.4844L74.6445 55.4844C76.1719 55.4844 76.6064 55.1172 76.6064 53.605L76.6064 50.7393C76.6064 49.227 76.1719 48.8599 74.6445 48.8599L71.7637 48.8599C70.2363 48.8599 69.8506 49.227 69.8506 50.7393L69.8506 53.605C69.8506 55.1172 70.2363 55.4844 71.7637 55.4844ZM22.1318 71.8179L24.979 71.8179C26.54 71.8179 26.9409 71.417 26.9409 69.9199L26.9409 67.0391C26.9409 65.5269 26.54 65.1597 24.979 65.1597L22.1318 65.1597C20.5708 65.1597 20.1699 65.5269 20.1699 67.0391L20.1699 69.9199C20.1699 71.417 20.5708 71.8179 22.1318 71.8179ZM38.6758 71.8179L41.5566 71.8179C43.084 71.8179 43.4849 71.417 43.4849 69.9199L43.4849 67.0391C43.4849 65.5269 43.084 65.1597 41.5566 65.1597L38.6758 65.1597C37.1484 65.1597 36.7139 65.5269 36.7139 67.0391L36.7139 69.9199C36.7139 71.417 37.1484 71.8179 38.6758 71.8179ZM55.2197 71.8179L58.1006 71.8179C59.6279 71.8179 60.0625 71.417 60.0625 69.9199L60.0625 67.0391C60.0625 65.5269 59.6279 65.1597 58.1006 65.1597L55.2197 65.1597C53.6924 65.1597 53.2578 65.5269 53.2578 67.0391L53.2578 69.9199C53.2578 71.417 53.6924 71.8179 55.2197 71.8179Z" fill="#000000" fill-opacity="0.85"/>
 </g>
</svg>
