<?xml version="1.0" encoding="UTF-8"?>
<!--Generator: Apple Native CoreSVG 232.5-->
<!DOCTYPE svg
PUBLIC "-//W3C//DTD SVG 1.1//EN"
       "http://www.w3.org/Graphics/SVG/1.1/DTD/svg11.dtd">
<svg version="1.1" xmlns="http://www.w3.org/2000/svg" xmlns:xlink="http://www.w3.org/1999/xlink" width="97.9595" height="97.9932">
 <g>
  <rect height="97.9932" opacity="0" width="97.9595" x="0" y="0"/>
  <path d="M97.9595 49.021C97.9595 75.8584 75.8247 97.9932 48.9722 97.9932C22.1685 97.9932 0 75.8584 0 49.021C0 22.2173 22.1348 0.0488281 48.9385 0.0488281C75.791 0.0488281 97.9595 22.2173 97.9595 49.021ZM30.6245 25.0269C25.4448 25.0269 22.7793 27.6772 22.7793 32.7896L22.7793 65.2525C22.7793 70.3984 25.4448 73.0303 30.6245 73.0303L67.335 73.0303C72.5147 73.0303 75.1651 70.3984 75.1651 65.2525L75.1651 32.7896C75.1651 27.6924 72.5147 25.0269 67.335 25.0269ZM71.2529 41.1284L71.2529 65.3755C71.2529 67.9951 70.0659 69.1636 67.4497 69.1636L30.4609 69.1636C27.9273 69.1636 26.6914 67.9951 26.6914 65.3755L26.6914 41.1284C26.6914 38.3052 28.1763 36.854 30.9473 36.854L67.0122 36.854C69.7041 36.854 71.2529 38.3052 71.2529 41.1284ZM34.647 59.9209C33.6416 59.9209 33.3267 60.1231 33.3267 61.125L33.3267 62.9688C33.3267 63.9741 33.6416 64.2251 34.647 64.2251L36.4722 64.2251C37.4927 64.2251 37.7588 63.9741 37.7588 62.9688L37.7588 61.125C37.7588 60.1231 37.4927 59.9209 36.4722 59.9209ZM43.5825 59.9209C42.5772 59.9209 42.3262 60.1231 42.3262 61.125L42.3262 62.9688C42.3262 63.9741 42.5772 64.2251 43.5825 64.2251L45.3926 64.2251C46.4282 64.2251 46.6978 63.9741 46.6978 62.9688L46.6978 61.125C46.6978 60.1231 46.4282 59.9209 45.3926 59.9209ZM52.5518 59.9209C51.5313 59.9209 51.2803 60.1231 51.2803 61.125L51.2803 62.9688C51.2803 63.9741 51.5313 64.2251 52.5518 64.2251L54.377 64.2251C55.3823 64.2251 55.6333 63.9741 55.6333 62.9688L55.6333 61.125C55.6333 60.1231 55.3823 59.9209 54.377 59.9209ZM34.647 51.0981C33.6416 51.0981 33.3267 51.334 33.3267 52.3394L33.3267 54.1982C33.3267 55.1851 33.6416 55.4024 34.647 55.4024L36.4722 55.4024C37.4927 55.4024 37.7588 55.1851 37.7588 54.1982L37.7588 52.3394C37.7588 51.334 37.4927 51.0981 36.4722 51.0981ZM43.5825 51.0981C42.5772 51.0981 42.3262 51.334 42.3262 52.3394L42.3262 54.1982C42.3262 55.1851 42.5772 55.4024 43.5825 55.4024L45.3926 55.4024C46.4282 55.4024 46.6978 55.1851 46.6978 54.1982L46.6978 52.3394C46.6978 51.334 46.4282 51.0981 45.3926 51.0981ZM52.5518 51.0981C51.5313 51.0981 51.2803 51.334 51.2803 52.3394L51.2803 54.1982C51.2803 55.1851 51.5313 55.4024 52.5518 55.4024L54.377 55.4024C55.3823 55.4024 55.6333 55.1851 55.6333 54.1982L55.6333 52.3394C55.6333 51.334 55.3823 51.0981 54.377 51.0981ZM61.521 51.0981C60.4517 51.0981 60.1856 51.334 60.1856 52.3394L60.1856 54.1982C60.1856 55.1851 60.4517 55.4024 61.521 55.4024L63.2974 55.4024C64.3179 55.4024 64.6328 55.1851 64.6328 54.1982L64.6328 52.3394C64.6328 51.334 64.3179 51.0981 63.2974 51.0981ZM43.5825 42.2754C42.5772 42.2754 42.3262 42.5449 42.3262 43.5317L42.3262 45.4092C42.3262 46.3774 42.5772 46.6133 43.5825 46.6133L45.3926 46.6133C46.4282 46.6133 46.6978 46.3774 46.6978 45.4092L46.6978 43.5317C46.6978 42.5449 46.4282 42.2754 45.3926 42.2754ZM52.5518 42.2754C51.5313 42.2754 51.2803 42.5449 51.2803 43.5317L51.2803 45.4092C51.2803 46.3774 51.5313 46.6133 52.5518 46.6133L54.377 46.6133C55.3823 46.6133 55.6333 46.3774 55.6333 45.4092L55.6333 43.5317C55.6333 42.5449 55.3823 42.2754 54.377 42.2754ZM61.521 42.2754C60.4517 42.2754 60.1856 42.5449 60.1856 43.5317L60.1856 45.4092C60.1856 46.3774 60.4517 46.6133 61.521 46.6133L63.2974 46.6133C64.3179 46.6133 64.6328 46.3774 64.6328 45.4092L64.6328 43.5317C64.6328 42.5449 64.3179 42.2754 63.2974 42.2754Z" fill="#000000" fill-opacity="0.85"/>
 </g>
</svg>
