<?xml version="1.0" encoding="UTF-8"?>
<!--Generator: Apple Native CoreSVG 232.5-->
<!DOCTYPE svg
PUBLIC "-//W3C//DTD SVG 1.1//EN"
       "http://www.w3.org/Graphics/SVG/1.1/DTD/svg11.dtd">
<svg version="1.1" xmlns="http://www.w3.org/2000/svg" xmlns:xlink="http://www.w3.org/1999/xlink" width="114.35" height="88.4395">
 <g>
  <rect height="88.4395" opacity="0" width="114.35" x="0" y="0"/>
  <path d="M14.3936 88.4092L54.4028 88.4092L54.4028 82.3794L14.5064 82.3794C9.00294 82.3794 6.04494 79.4736 6.04494 73.8355L6.04494 47.0498L0 47.0498L0 74.169C0 83.6069 4.86963 88.4092 14.3936 88.4092ZM60.0933 88.4092L99.9409 88.4092C109.514 88.4092 114.35 83.5615 114.35 74.169L114.35 47.0498L108.305 47.0498L108.305 73.8355C108.305 79.4736 105.237 82.3794 99.8433 82.3794L60.0933 82.3794ZM108.305 41.3931L114.35 41.3931L114.35 14.2739C114.35 4.88135 109.514 0 99.9409 0L60.0933 0L60.0933 6.04494L99.8433 6.04494C105.237 6.04494 108.305 8.96925 108.305 14.6074ZM0 41.3931L6.04494 41.3931L6.04494 14.6074C6.04494 8.96925 9.00294 6.04494 14.5064 6.04494L54.4028 6.04494L54.4028 0L14.3936 0C4.86963 0 0 4.83594 0 14.2739Z" fill="#000000" fill-opacity="0.85"/>
  <path d="M16.7251 11.7354C13.2891 11.7354 11.7202 13.3379 11.7202 16.8413L11.7202 41.3931L35.8696 41.3931C37.104 31.9077 44.7896 24.2559 54.4028 22.9912L54.4028 11.7354ZM97.6094 11.7354L60.0933 11.7354L60.0933 22.9912C69.5601 24.2559 77.2456 31.9077 78.48 41.3931L102.648 41.3931L102.648 16.8413C102.648 13.3379 101.079 11.7354 97.6094 11.7354ZM16.7251 76.7226L54.4028 76.7226L54.4028 65.4668C44.7896 64.187 37.104 56.5015 35.8696 47.0498L11.7202 47.0498L11.7202 71.6167C11.7202 75.1201 13.2891 76.7226 16.7251 76.7226ZM97.6094 76.7226C101.079 76.7226 102.648 75.1201 102.648 71.6167L102.648 47.0498L78.48 47.0498C77.2456 56.5015 69.5601 64.187 60.0933 65.4668L60.0933 76.7226Z" fill="#000000" fill-opacity="0.85"/>
  <path d="M57.2236 58.917C65.2007 58.917 71.8477 52.2852 71.8477 44.1953C71.8477 36.2183 65.2007 29.605 57.2236 29.605C49.1338 29.605 42.5357 36.2183 42.5357 44.1953C42.5357 52.2852 49.1338 58.917 57.2236 58.917Z" fill="#000000" fill-opacity="0.85"/>
 </g>
</svg>
