<?xml version="1.0" encoding="UTF-8"?>
<!--Generator: Apple Native CoreSVG 232.5-->
<!DOCTYPE svg
PUBLIC "-//W3C//DTD SVG 1.1//EN"
       "http://www.w3.org/Graphics/SVG/1.1/DTD/svg11.dtd">
<svg version="1.1" xmlns="http://www.w3.org/2000/svg" xmlns:xlink="http://www.w3.org/1999/xlink" width="103.276" height="98.3799">
 <g>
  <rect height="98.3799" opacity="0" width="103.276" x="0" y="0"/>
  <path d="M20.2211 42.1007C11.7561 46.5701 6.01124 55.4594 6.01124 65.6514C6.01124 80.458 17.9219 92.3687 32.6948 92.3687C37.9424 92.3687 42.8389 90.8477 46.9533 88.201C48.365 89.7224 49.9383 91.0888 51.6493 92.2747C46.3157 96.1261 39.7654 98.3799 32.6948 98.3799C14.6729 98.3799 0 83.7071 0 65.6514C0 52.5356 7.81362 41.1693 19.0571 36.0132C19.2358 38.1116 19.6271 40.1489 20.2211 42.1007ZM65.3897 65.6514C65.3897 74.4013 61.9482 82.3567 56.3274 88.2138C54.6097 87.1564 53.0373 85.8899 51.6293 84.4602C56.4193 79.6331 59.3784 72.9847 59.3784 65.6514C59.3784 65.3401 59.3731 65.0301 59.332 64.7294C61.3995 64.2659 63.3776 63.573 65.2431 62.677ZM64.0846 56.5773C62.322 57.5252 60.4346 58.2688 58.4443 58.7605C57.2553 54.2081 54.8647 50.1467 51.6458 46.9074C53.0506 45.4852 54.6176 44.2231 56.329 43.1679C59.9142 46.9009 62.614 51.4827 64.0846 56.5773ZM51.642 39.101C49.9354 40.2836 48.3662 41.6455 46.9578 43.1608C42.8406 40.5189 37.9417 39.0015 32.6948 39.0015C30.3244 39.0015 28.0277 39.3098 25.8544 39.9183C25.312 38.0182 25.0061 36.0204 24.9638 33.9537C27.4337 33.312 30.0276 32.9902 32.6948 32.9902C39.7554 32.9902 46.3057 35.2485 51.642 39.101Z" fill="#000000" fill-opacity="0.2125"/>
  <path d="M103.276 65.6514C103.276 83.7071 88.6035 98.3799 70.6153 98.3799C52.5747 98.3799 37.8867 83.7071 37.8867 65.6514C37.8867 64.6534 37.932 63.6656 38.0372 62.6941C39.9025 63.5849 41.8793 64.2739 43.9445 64.735C43.9033 65.0341 43.898 65.3421 43.898 65.6514C43.898 80.458 55.8574 92.3687 70.6153 92.3687C85.3731 92.3687 97.2652 80.3941 97.2652 65.6514C97.2652 55.406 91.4674 46.5154 82.9889 42.0674C83.5808 40.1127 83.9689 38.0721 84.1429 35.9699C95.4207 41.1082 103.276 52.5004 103.276 65.6514ZM78.2349 33.9282C78.1941 35.9951 77.8901 37.9944 77.3495 39.8968C75.2056 39.3019 72.9444 39.0015 70.6153 39.0015C58.2534 39.0015 47.855 47.4036 44.8341 58.7688C42.8453 58.2817 40.9583 57.5441 39.1959 56.602C43.1217 42.994 55.7268 32.9902 70.6153 32.9902C73.242 32.9902 75.7981 33.3034 78.2349 33.9282Z" fill="#000000" fill-opacity="0.425"/>
  <path d="M51.6323 65.6826C69.6543 65.6826 84.2935 51.0435 84.2935 32.9878C84.2935 14.981 69.6543 0.308105 51.6323 0.308105C33.5918 0.308105 18.9038 14.981 18.9038 32.9878C18.9038 51.0435 33.5918 65.6826 51.6323 65.6826ZM51.6323 59.6714C36.8745 59.6714 24.9151 47.7608 24.9151 32.9878C24.9151 18.2788 36.8745 6.30421 51.6323 6.30421C66.3076 6.30421 78.2822 18.2637 78.2822 32.9878C78.2822 47.7305 66.3716 59.6714 51.6323 59.6714Z" fill="#000000" fill-opacity="0.85"/>
 </g>
</svg>
