<?xml version="1.0" encoding="UTF-8"?>
<!--Generator: Apple Native CoreSVG 232.5-->
<!DOCTYPE svg
PUBLIC "-//W3C//DTD SVG 1.1//EN"
       "http://www.w3.org/Graphics/SVG/1.1/DTD/svg11.dtd">
<svg version="1.1" xmlns="http://www.w3.org/2000/svg" xmlns:xlink="http://www.w3.org/1999/xlink" width="97.9595" height="97.9932">
 <g>
  <rect height="97.9932" opacity="0" width="97.9595" x="0" y="0"/>
  <path d="M48.9722 73.2368C62.3076 73.2368 73.2368 62.3076 73.2368 48.9722C73.2368 35.6367 62.3076 24.7075 48.9722 24.7075C35.6216 24.7075 24.7075 35.6367 24.7075 48.9722C24.7075 62.3076 35.6367 73.2368 48.9722 73.2368ZM48.9722 68.0039C38.4932 68.0039 29.9404 59.4175 29.9404 48.9722C29.9404 38.4932 38.4932 29.9404 48.9722 29.9404C59.4663 29.9404 68.0039 38.4932 68.0039 48.9722C68.0039 59.4175 59.4663 68.0039 48.9722 68.0039ZM41.7989 72.8311L44.4229 68.2466L3.56202 44.7061L0.937989 49.2417ZM66.3262 66.9985L63.751 62.4629L22.7808 86.0977L25.4048 90.6519ZM73.2217 43.1162L68.0039 43.0522L68.0376 90.2798L73.2217 90.2798ZM56.1455 25.0342L53.5366 29.6187L94.4312 53.1929L97.0064 48.6235ZM31.6484 30.897L34.2573 35.4663L75.2276 11.8467L72.5698 7.26221ZM24.7075 54.7339L29.9404 54.7491L29.9404 7.61914L24.7378 7.61914ZM48.9722 97.9443C75.8247 97.9443 97.9595 75.7759 97.9595 48.9722C97.9595 22.1348 75.791 0 48.9385 0C22.1348 0 0 22.1348 0 48.9722C0 75.7759 22.1685 97.9443 48.9722 97.9443ZM48.9722 91.6113C25.3501 91.6113 6.36671 72.5942 6.36671 48.9722C6.36671 25.3501 25.3164 6.31789 48.9385 6.31789C72.5605 6.31789 91.6265 25.3501 91.6265 48.9722C91.6265 72.5942 72.5942 91.6113 48.9722 91.6113Z" fill="#000000" fill-opacity="0.85"/>
 </g>
</svg>
