<?xml version="1.0" encoding="UTF-8"?>
<!--Generator: Apple Native CoreSVG 232.5-->
<!DOCTYPE svg
PUBLIC "-//W3C//DTD SVG 1.1//EN"
       "http://www.w3.org/Graphics/SVG/1.1/DTD/svg11.dtd">
<svg version="1.1" xmlns="http://www.w3.org/2000/svg" xmlns:xlink="http://www.w3.org/1999/xlink" width="114.35" height="88.4395">
 <g>
  <rect height="88.4395" opacity="0" width="114.35" x="0" y="0"/>
  <path d="M14.3936 88.4092L54.4028 88.4092L54.4028 82.3794L14.5064 82.3794C9.00294 82.3794 6.04494 79.4736 6.04494 73.8355L6.04494 47.0498L0 47.0498L0 74.169C0 83.6069 4.86963 88.4092 14.3936 88.4092ZM60.0933 88.4092L99.9409 88.4092C109.514 88.4092 114.35 83.5615 114.35 74.169L114.35 47.0498L108.305 47.0498L108.305 73.8355C108.305 79.4736 105.237 82.3794 99.8433 82.3794L60.0933 82.3794ZM108.305 41.3931L114.35 41.3931L114.35 14.2739C114.35 4.88135 109.514 0 99.9409 0L60.0933 0L60.0933 6.04494L99.8433 6.04494C105.237 6.04494 108.305 8.96925 108.305 14.6074ZM0 41.3931L6.04494 41.3931L6.04494 14.6074C6.04494 8.96925 9.00294 6.04494 14.5064 6.04494L54.4028 6.04494L54.4028 0L14.3936 0C4.86963 0 0 4.83594 0 14.2739Z" fill="#000000" fill-opacity="0.85"/>
  <path d="M83.5293 47.1289L78.4497 47.1289C77.0015 57.5859 67.999 65.748 57.2573 65.748C46.4063 65.748 37.3364 57.6162 35.9219 47.1289L30.8423 47.1289C32.3057 60.3901 43.6509 70.7603 57.2573 70.7603C70.7358 70.7603 81.9985 60.3413 83.5293 47.1289ZM78.4834 41.4385L83.5293 41.4385C82.145 28.2749 70.7661 17.8071 57.2573 17.8071C43.6509 17.8071 32.2266 28.2749 30.8423 41.4385L35.8882 41.4385C37.2573 31.0303 46.4063 22.8193 57.2573 22.8193C68.0444 22.8193 77.1328 31.0303 78.4834 41.4385Z" fill="#000000" fill-opacity="0.85"/>
 </g>
</svg>
