<?xml version="1.0" encoding="UTF-8"?>
<!--Generator: Apple Native CoreSVG 232.5-->
<!DOCTYPE svg
PUBLIC "-//W3C//DTD SVG 1.1//EN"
       "http://www.w3.org/Graphics/SVG/1.1/DTD/svg11.dtd">
<svg version="1.1" xmlns="http://www.w3.org/2000/svg" xmlns:xlink="http://www.w3.org/1999/xlink" width="97.9595" height="97.9932">
 <g>
  <rect height="97.9932" opacity="0" width="97.9595" x="0" y="0"/>
  <path d="M97.9595 48.9722C97.9595 75.7759 75.8247 97.9443 48.9722 97.9443C22.1685 97.9443 0 75.7759 0 48.9722C0 22.1348 22.1348 0 48.9385 0C75.791 0 97.9595 22.1348 97.9595 48.9722ZM47.731 24.4204L42.4478 31.2441L36.2925 24.9878C35.4639 24.0649 34.1436 24.2149 33.7949 25.2876C32.4766 28.2358 31.8081 31.1016 31.8081 34.0127C31.8081 43.0776 37.9097 50.3145 47.1533 51.1397L47.1533 78.3345C47.1533 79.3584 47.9634 80.0674 48.9536 80.0674C62.1055 80.0674 74.2051 71.8154 78.2158 60.0513C78.6958 58.7275 78.1519 57.7559 76.7271 57.7559C64.6611 57.7559 55.1299 64.5918 50.7876 74.1177L50.7876 51.1397C60.0313 50.2808 66.084 43.0776 66.084 34.0127C66.084 31.1016 65.4981 28.2358 64.2134 25.2876C63.7637 24.2149 62.4282 24.0649 61.5996 24.9878L55.478 31.2441L50.2437 24.4204C49.5684 23.4639 48.4248 23.4639 47.731 24.4204ZM19.6763 60.0513C23.2373 70.5962 33.2891 78.3193 44.8579 79.7002C44.6592 79.3062 44.5615 78.7959 44.5615 78.3345L44.5615 69.918C39.6821 62.6333 31.2993 57.7559 21.1802 57.7559C19.7065 57.7559 19.1963 58.7275 19.6763 60.0513Z" fill="#000000" fill-opacity="0.85"/>
 </g>
</svg>
