<?xml version="1.0" encoding="UTF-8"?>
<!--Generator: Apple Native CoreSVG 232.5-->
<!DOCTYPE svg
PUBLIC "-//W3C//DTD SVG 1.1//EN"
       "http://www.w3.org/Graphics/SVG/1.1/DTD/svg11.dtd">
<svg version="1.1" xmlns="http://www.w3.org/2000/svg" xmlns:xlink="http://www.w3.org/1999/xlink" width="85.1826" height="113.372">
 <g>
  <rect height="113.372" opacity="0" width="85.1826" x="0" y="0"/>
  <path d="M42.5913 0C16.4678 0 0 15.8413 0 41.5425L0 71.7656C0 97.4819 16.4678 113.323 42.5913 113.323C68.6997 113.323 85.1826 97.4819 85.1826 71.7656L85.1826 41.5425C85.1826 15.8413 68.6997 0 42.5913 0ZM42.5913 6.07521C65.0195 6.07521 79.0703 19.1289 79.0703 40.5772L79.0703 72.7461C79.0703 94.1943 65.0195 107.214 42.5913 107.214C20.1631 107.214 6.09718 94.1943 6.09718 72.7461L6.09718 40.5772C6.09718 19.1289 20.1631 6.07521 42.5913 6.07521Z" fill="#000000" fill-opacity="0.85"/>
  <path d="M42.5913 11.7656C62.7949 11.7656 73.3799 21.6231 73.3799 40.5772L73.3799 72.7461C73.3799 91.7002 62.7949 101.558 42.5913 101.558C22.3877 101.558 11.7876 91.7002 11.7876 72.7461L11.7876 40.5772C11.7876 21.6231 22.3877 11.7656 42.5913 11.7656Z" fill="#000000" fill-opacity="0.85"/>
 </g>
</svg>
