<?xml version="1.0" encoding="UTF-8"?>
<!--Generator: Apple Native CoreSVG 232.5-->
<!DOCTYPE svg
PUBLIC "-//W3C//DTD SVG 1.1//EN"
       "http://www.w3.org/Graphics/SVG/1.1/DTD/svg11.dtd">
<svg version="1.1" xmlns="http://www.w3.org/2000/svg" xmlns:xlink="http://www.w3.org/1999/xlink" width="101.653" height="99.5381">
 <g>
  <rect height="99.5381" opacity="0" width="101.653" x="0" y="0"/>
  <path d="M34.8228 70.4004L66.8149 70.4004C72.7124 70.4004 76.0532 66.8355 76.0532 61.1924L76.0532 51.3291L95.6489 51.3291C99.0508 51.3291 101.653 49.3301 101.653 46.1758C101.653 44.2593 100.708 42.71 98.874 41.1235L56.4951 3.73682C54.2476 1.78223 52.7134 0.82227 50.8189 0.82227C48.9243 0.82227 47.3901 1.78223 45.1577 3.73682L2.77881 41.1421C0.877443 42.811 0 44.2593 0 46.1758C0 49.3301 2.58692 51.3291 5.98878 51.3291L25.5996 51.3291L25.5996 61.1924C25.5996 66.8355 28.9404 70.4004 34.8228 70.4004ZM35.3467 64.6924C33.2827 64.6924 31.8316 63.29 31.8316 61.1924L31.8316 47.1299C31.8316 46.0337 31.4375 45.606 30.3076 45.606L8.68898 45.606C8.13527 45.606 7.87942 45.3838 7.87942 45.0337C7.87942 44.7627 7.99221 44.5068 8.30861 44.2056L49.1577 8.5508C49.8965 7.84231 50.2954 7.605 50.8189 7.605C51.3423 7.605 51.7563 7.84231 52.4951 8.5508L93.3291 44.2056C93.6455 44.5068 93.7583 44.7627 93.7583 45.0337C93.7583 45.3838 93.5024 45.606 92.9639 45.606L71.3301 45.606C70.249 45.606 69.8213 46.0337 69.8213 47.1299L69.8213 61.1924C69.8213 63.2564 68.3364 64.6924 66.3061 64.6924ZM33.0562 99.5381L68.248 99.5381C73.2007 99.5381 76.0903 96.7915 76.0903 91.8389L76.0903 85.4922C76.0903 80.521 73.2007 77.5405 68.248 77.5405L33.0562 77.5405C28.1523 77.5405 25.2476 80.5547 25.2476 85.4922L25.2476 91.8389C25.2476 96.7578 28.1523 99.5381 33.0562 99.5381ZM33.8008 94.1367C32.001 94.1367 30.9707 93.2276 30.9707 91.3975L30.9707 85.9488C30.9707 84.1187 32.001 82.9419 33.8008 82.9419L67.5186 82.9419C69.3184 82.9419 70.3823 84.1187 70.3823 85.9488L70.3823 91.3975C70.3823 93.2276 69.3184 94.1367 67.5186 94.1367Z" fill="#000000" fill-opacity="0.85"/>
 </g>
</svg>
