<?xml version="1.0" encoding="UTF-8"?>
<!--Generator: Apple Native CoreSVG 232.5-->
<!DOCTYPE svg
PUBLIC "-//W3C//DTD SVG 1.1//EN"
       "http://www.w3.org/Graphics/SVG/1.1/DTD/svg11.dtd">
<svg version="1.1" xmlns="http://www.w3.org/2000/svg" xmlns:xlink="http://www.w3.org/1999/xlink" width="105.998" height="105.197">
 <g>
  <rect height="105.197" opacity="0" width="105.998" x="0" y="0"/>
  <path d="M105.998 27.0293L105.998 66.2935C105.998 79.3286 98.5029 86.9883 85.2539 86.9883L49.461 86.9883L31.7886 102.769C30.0537 104.387 28.8799 105.197 27.3389 105.197C25.146 105.197 23.8408 103.604 23.8408 101.152L23.8408 86.9883L20.7437 86.9883C7.47949 86.9883 0 79.4077 0 66.2935L0 27.0293C0 13.8999 7.47949 6.28565 20.7437 6.28565L85.2539 6.28565C98.5029 6.28565 105.998 13.979 105.998 27.0293ZM19.9326 59.7344C18.6392 59.7344 17.5781 60.7954 17.5781 62.1226C17.5781 63.4312 18.6392 64.4585 19.9326 64.4585L28.6138 64.4585C29.9224 64.4585 30.9497 63.4312 30.9497 62.1226C30.9497 60.7954 29.9224 59.7344 28.6138 59.7344ZM39.48 59.7344C38.1865 59.7344 37.1592 60.7954 37.1592 62.1226C37.1592 63.4312 38.1865 64.4585 39.48 64.4585L65.2691 64.4585C66.5625 64.4585 67.6235 63.4312 67.6235 62.1226C67.6235 60.7954 66.5625 59.7344 65.2691 59.7344ZM76.1689 59.7344C74.8604 59.7344 73.7993 60.7954 73.7993 62.1226C73.7993 63.4312 74.8604 64.4585 76.1689 64.4585L86.1475 64.4585C87.4409 64.4585 88.4683 63.4312 88.4683 62.1226C88.4683 60.7954 87.4409 59.7344 86.1475 59.7344ZM19.9326 47.4624C18.6392 47.4624 17.5781 48.5234 17.5781 49.7983C17.5781 51.1255 18.6392 52.1865 19.9326 52.1865L41.5742 52.1865C42.8828 52.1865 43.9439 51.1255 43.9439 49.7983C43.9439 48.5234 42.8828 47.4624 41.5742 47.4624ZM52.4741 47.4624C51.1807 47.4624 50.1196 48.5234 50.1196 49.7983C50.1196 51.1255 51.1807 52.1865 52.4741 52.1865L86.1475 52.1865C87.4409 52.1865 88.4683 51.1255 88.4683 49.7983C88.4683 48.5234 87.4409 47.4624 86.1475 47.4624Z" fill="#000000" fill-opacity="0.85"/>
 </g>
</svg>
