<?xml version="1.0" encoding="UTF-8"?>
<!--Generator: Apple Native CoreSVG 232.5-->
<!DOCTYPE svg
PUBLIC "-//W3C//DTD SVG 1.1//EN"
       "http://www.w3.org/Graphics/SVG/1.1/DTD/svg11.dtd">
<svg version="1.1" xmlns="http://www.w3.org/2000/svg" xmlns:xlink="http://www.w3.org/1999/xlink" width="133.025" height="121.34">
 <g>
  <rect height="121.34" opacity="0" width="133.025" x="0" y="0"/>
  <path d="M66.4805 121.276C89.2618 121.276 99.854 115.917 99.854 103.952L99.854 21.1392C99.854 7.74415 87.6529 0 66.4805 0C45.3721 0 33.2046 7.74415 33.2046 21.1392L33.2046 103.952C33.2046 115.917 43.7632 121.276 66.4805 121.276ZM66.5445 50.2158C61.6231 50.2158 54.3291 50.603 51.8169 50.603C48.148 50.603 46.4575 49.1685 46.1309 45.2774L45.3765 36.5767C44.7232 29.5586 49.0816 26.523 66.5445 26.523C84.0073 26.523 88.3169 29.5586 87.7124 36.5767L86.958 45.2774C86.5825 49.1685 84.9258 50.603 81.2232 50.603C78.7447 50.603 70.8399 50.2158 66.5445 50.2158ZM66.5445 103.143C49.7793 103.143 44.8037 100.71 45.6929 93.5606L46.2368 89.1372C46.9458 83.3433 51.7935 81.3833 66.5445 81.3833C81.2466 81.3833 86.0943 83.3433 86.8184 89.1372L87.3623 93.5606C88.2852 100.71 83.2759 103.143 66.5445 103.143ZM35.9043 46.0855L35.9043 35.916L29.6699 35.916C27.3091 35.916 25.5459 37.5362 25.5459 39.7422L25.5459 42.2105C25.5459 44.4165 27.3091 46.0855 29.6699 46.0855ZM97.1358 46.0855L103.37 46.0855C105.78 46.0855 107.494 44.4165 107.494 42.2105L107.494 39.7422C107.494 37.5362 105.78 35.916 103.37 35.916L97.1358 35.916Z" fill="#000000" fill-opacity="0.85"/>
  <path d="M133.025 94.521L133.025 72.6831C133.025 70.4282 131.152 69.48 129.266 70.6387L111.826 81.3286C109.947 82.4839 109.898 84.7691 111.826 85.9546L129.236 96.5318C131.137 97.7056 133.025 96.8096 133.025 94.521Z" fill="#000000" fill-opacity="0.85"/>
 </g>
</svg>
