<?xml version="1.0" encoding="UTF-8"?>
<!--Generator: Apple Native CoreSVG 232.5-->
<!DOCTYPE svg
PUBLIC "-//W3C//DTD SVG 1.1//EN"
       "http://www.w3.org/Graphics/SVG/1.1/DTD/svg11.dtd">
<svg version="1.1" xmlns="http://www.w3.org/2000/svg" xmlns:xlink="http://www.w3.org/1999/xlink" width="163.53" height="100.695">
 <g>
  <rect height="100.695" opacity="0" width="163.53" x="0" y="0"/>
  <path d="M56.1267 13.601C45.928 13.6786 39.4647 13.953 36.294 14.3618C33.1729 14.749 31.4541 16.0923 30.0601 18.5083C28.4639 21.2949 26.1807 27.8989 24.8726 33.8418C24.5274 35.4214 25.105 36.2564 26.9639 36.1436C32.9344 35.737 39.474 35.4022 49.2437 35.246C49.2427 35.2504 49.2417 35.2549 49.2407 35.2593L45.8247 39.6938C40.9649 46.0288 38.6045 51.6597 38.6045 61.4522L38.6045 81.4857C33.294 81.299 28.2344 81.0598 23.9224 80.7871L23.9224 88.7446C23.9224 92.2822 21.166 95.0386 17.6436 95.0386L12.0181 95.0386C8.46192 95.0386 5.69044 92.2822 5.69044 88.7446L5.69044 61.4522C5.69044 53.0034 7.54737 48.6104 11.7554 43.1597L15.9478 37.7163C17.7393 28.9273 20.9619 19.6836 22.6709 16.0855C25.2437 10.5981 30.2612 7.54688 36.3164 6.81104C39.5764 6.41041 50.2337 6.1345 62.0187 6.1281C59.5983 8.05586 57.5825 10.5463 56.1267 13.601ZM17.2993 60.1113C17.2993 63.9673 20.1939 66.8955 24.0986 66.8955C27.9546 66.8955 30.8828 63.9673 30.8828 60.1113C30.8828 56.2065 27.9546 53.312 24.0986 53.312C20.1939 53.312 17.2993 56.2065 17.2993 60.1113Z" fill="#000000" fill-opacity="0.85"/>
  <path d="M63.4434 33.8418C64.7515 27.8989 67.0684 21.2949 68.6646 18.5083C70.0586 16.0923 71.7774 14.749 74.8985 14.3618C78.6514 13.8735 87.1338 13.5772 101.075 13.5772C114.967 13.5772 123.464 13.8062 127.236 14.3618C130.357 14.7827 132.042 16.0923 133.47 18.5083C135.1 21.2612 137.267 27.8989 138.657 33.8418C139.07 35.4214 138.425 36.2564 136.581 36.1436C128.233 35.5762 118.808 35.1484 101.075 35.1484C83.3081 35.1484 73.8672 35.5762 65.5347 36.1436C63.7095 36.2564 63.0982 35.4214 63.4434 33.8418ZM65.8697 68.6392C61.7105 68.6392 58.6138 65.5088 58.6138 61.3984C58.6138 57.2393 61.7105 54.1426 65.8697 54.1426C69.98 54.1426 73.0767 57.2393 73.0767 61.3984C73.0767 65.5088 69.98 68.6392 65.8697 68.6392ZM88.4986 67.1553C85.4356 67.1553 83.3526 65.0723 83.3526 61.9756C83.3526 58.9126 85.4356 56.8296 88.4986 56.8296L113.602 56.8296C116.699 56.8296 118.782 58.9126 118.782 61.9756C118.782 65.0723 116.699 67.1553 113.602 67.1553ZM136.28 68.6392C132.154 68.6392 129.039 65.5088 129.039 61.3984C129.039 57.2393 132.154 54.1426 136.28 54.1426C140.39 54.1426 143.521 57.2393 143.521 61.3984C143.521 65.5088 140.39 68.6392 136.28 68.6392ZM101.075 81.9439C117.133 81.9439 138.88 81.1138 148.112 80.0396C154.265 79.3526 157.839 76.0689 157.839 70.0459L157.839 61.4522C157.839 53.0034 155.982 48.6104 151.774 43.1597L147.582 37.7163C145.806 28.9273 142.568 19.6836 140.874 16.0855C138.301 10.5981 133.269 7.61426 127.229 6.81104C123.927 6.37158 113.037 6.12744 101.075 6.12744C89.0791 6.12744 78.189 6.40528 74.8872 6.81104C68.8321 7.54688 63.8482 10.5981 61.2266 16.0855C59.5664 19.6836 56.3101 28.9273 54.5523 37.7163L50.3262 43.1597C46.1519 48.6104 44.2949 53.0034 44.2949 61.4522L44.2949 70.0459C44.2949 76.0689 47.836 79.3526 54.0225 80.0396C63.2207 81.1138 85.0015 81.9439 101.075 81.9439ZM50.5889 95.0386L56.2144 95.0386C59.7705 95.0386 62.4932 92.2822 62.4932 88.7446L62.4932 76.8892L44.2949 68.2144L44.2949 88.7446C44.2949 92.2822 47.0176 95.0386 50.5889 95.0386ZM145.935 95.0386L151.527 95.0386C155.083 95.0386 157.839 92.2822 157.839 88.7446L157.839 68.2144L139.607 76.8892L139.607 88.7446C139.607 92.2822 142.364 95.0386 145.935 95.0386Z" fill="#000000" fill-opacity="0.85"/>
 </g>
</svg>
