<?xml version="1.0" encoding="UTF-8"?>
<!--Generator: Apple Native CoreSVG 232.5-->
<!DOCTYPE svg
PUBLIC "-//W3C//DTD SVG 1.1//EN"
       "http://www.w3.org/Graphics/SVG/1.1/DTD/svg11.dtd">
<svg version="1.1" xmlns="http://www.w3.org/2000/svg" xmlns:xlink="http://www.w3.org/1999/xlink" width="92.3398" height="124.008">
 <g>
  <rect height="124.008" opacity="0" width="92.3398" x="0" y="0"/>
  <path d="M11.7919 112.142C19.1416 119.525 28.6479 123.959 38.9541 123.959C40.9145 123.959 42.1997 122.681 42.1997 120.931C42.1694 119.361 40.9331 118.251 38.7553 118.116C30.2934 117.794 22.163 114.414 15.8325 108.117C9.52047 101.786 6.13961 93.6743 5.81783 85.1939C5.66451 82.7803 4.60689 81.832 2.80122 81.832C1.32075 81.8018-0.12603 82.8814 0.00873634 84.9463C0.43159 95.2525 4.39009 104.823 11.7919 112.142Z" fill="#000000" fill-opacity="0.85"/>
  <path d="M23.6591 100.241C28.3554 104.938 34.6919 107.367 39.3906 107.367C41.2314 107.367 42.4458 106.19 42.4306 104.59C42.4306 102.955 41.3208 101.816 38.9594 101.528C34.9272 101.319 31.0634 99.5459 27.6997 96.2007C24.437 92.9043 22.6826 89.0034 22.3725 84.7168C22.0844 82.5425 21.2675 81.5708 19.3745 81.5708C17.7255 81.5557 16.3798 82.8374 16.6005 84.8989C17.0234 90.75 19.4868 96.0537 23.6591 100.241Z" fill="#000000" fill-opacity="0.85"/>
  <path d="M60.3032 94.7197C78.0088 94.7197 86.5249 90.4566 86.5249 80.2407L86.5249 16.8467C86.5249 6.21338 76.7402 0 60.3032 0C43.7836 0 33.9838 6.21338 33.9838 16.8467L33.9838 80.2407C33.9838 90.4566 42.5639 94.7197 60.3032 94.7197ZM60.2544 39.6558C56.8969 39.6558 50.7754 39.979 48.8559 39.979C45.8437 39.979 44.4614 38.7397 44.1533 35.5205L43.5976 28.8828C43.1245 23.1782 46.4336 20.7993 60.2544 20.7993C74.0751 20.7993 77.3842 23.1782 76.9111 28.8828L76.3217 35.5205C76.0473 38.7397 74.6313 39.979 71.6528 39.979C69.6997 39.979 64.0795 39.6558 60.2544 39.6558ZM60.2544 80.5815C47.1298 80.5815 43.0249 78.6924 43.8501 72.8228L44.2778 69.4199C44.938 64.7256 48.6792 63.1968 60.2544 63.1968C71.8295 63.1968 75.5708 64.7256 76.1972 69.4199L76.6586 72.8228C77.4502 78.6924 73.3789 80.5815 60.2544 80.5815ZM83.207 36.645L88.5639 36.645C90.7632 36.645 92.331 35.1226 92.331 33.1455L92.331 31.169C92.331 29.1582 90.7632 27.6543 88.5639 27.6543L83.207 27.6543ZM37.2714 36.645L37.2714 27.6543L31.9448 27.6543C29.7304 27.6543 28.1474 29.1582 28.1474 31.169L28.1474 33.1455C28.1474 35.1226 29.7304 36.645 31.9448 36.645Z" fill="#000000" fill-opacity="0.85"/>
 </g>
</svg>
