<?xml version="1.0" encoding="UTF-8"?>
<!--Generator: Apple Native CoreSVG 232.5-->
<!DOCTYPE svg
PUBLIC "-//W3C//DTD SVG 1.1//EN"
       "http://www.w3.org/Graphics/SVG/1.1/DTD/svg11.dtd">
<svg version="1.1" xmlns="http://www.w3.org/2000/svg" xmlns:xlink="http://www.w3.org/1999/xlink" width="107.864" height="121.34">
 <g>
  <rect height="121.34" opacity="0" width="107.864" x="0" y="0"/>
  <path d="M53.9395 121.276C76.7207 121.276 87.2642 115.917 87.2642 103.952L87.2642 21.1392C87.2642 7.74415 75.1118 0 53.9395 0C32.8159 0 20.6148 7.74415 20.6148 21.1392L20.6148 103.952C20.6148 115.917 31.207 121.276 53.9395 121.276ZM53.9546 50.2158C49.0332 50.2158 41.7393 50.603 39.2608 50.603C35.5581 50.603 33.9165 49.1685 33.541 45.2774L32.8203 36.5767C32.1821 29.5586 36.4917 26.523 53.9546 26.523C71.4512 26.523 75.7759 29.5586 75.1226 36.5767L74.3682 45.2774C74.0415 49.1685 72.3511 50.603 68.6821 50.603C66.1699 50.603 58.2837 50.2158 53.9546 50.2158ZM53.9546 103.143C37.2232 103.143 32.2139 100.71 33.1367 93.5606L33.6807 89.1372C34.4048 83.3433 39.2525 81.3833 53.9546 81.3833C68.7056 81.3833 73.5381 83.3433 74.2622 89.1372L74.8062 93.5606C75.729 100.71 70.7197 103.143 53.9546 103.143ZM23.3384 70.2207L0.899416 92.4375C-0.299805 93.6367-0.299805 95.6529 0.899416 96.8706C2.11719 98.0699 4.09962 98.1035 5.33253 96.8706L23.3384 78.9859ZM84.5406 70.2207L84.5406 78.9859L102.531 96.8706C103.798 98.1035 105.762 98.0699 106.964 96.8706C108.164 95.6529 108.164 93.6367 106.964 92.4375Z" fill="#000000" fill-opacity="0.85"/>
 </g>
</svg>
