<?xml version="1.0" encoding="UTF-8"?>
<!--Generator: Apple Native CoreSVG 232.5-->
<!DOCTYPE svg
PUBLIC "-//W3C//DTD SVG 1.1//EN"
       "http://www.w3.org/Graphics/SVG/1.1/DTD/svg11.dtd">
<svg version="1.1" xmlns="http://www.w3.org/2000/svg" xmlns:xlink="http://www.w3.org/1999/xlink" width="169.152" height="116.043">
 <g>
  <rect height="116.043" opacity="0" width="169.152" x="0" y="0"/>
  <path d="M12.063 85.9152L19.3774 85.9152C19.1148 84.5866 18.916 83.2243 18.916 81.7794C18.916 71.5084 27.0352 63.4079 37.2876 63.4079C47.5586 63.4079 55.6592 71.5084 55.6592 81.7794C55.6592 83.2243 55.479 84.5866 55.1978 85.9152L116.678 85.9152C116.431 84.5866 116.217 83.2243 116.217 81.7794C116.217 71.5084 124.351 63.4079 134.588 63.4079C144.875 63.4079 152.96 71.5084 152.96 81.7794C152.96 83.2243 152.795 84.5866 152.499 85.9152L158.671 85.9152C165.233 85.9152 169.152 81.8654 169.152 75.0929L169.152 55.57C169.152 48.9913 166.844 43.8771 158.927 41.5143L148.808 38.6198C142.733 31.2784 132.012 20.3663 111.998 20.3663L100.689 20.3663C80.9356 20.3663 73.2759 22.2135 61.5518 29.5514L41.98 41.8444L19.9068 44.5416C7.32325 46.0807 0 53.2994 0 64.2091L0 73.5592C0 81.754 4.07862 85.9152 12.063 85.9152ZM37.2876 95.1193C44.7632 95.1193 50.646 89.2365 50.646 81.7794C50.646 74.3375 44.7295 68.421 37.2876 68.421C29.8643 68.421 23.9629 74.3375 23.9629 81.7794C23.9629 89.2028 29.8643 95.1193 37.2876 95.1193ZM134.588 95.1193C142.045 95.1193 147.962 89.2028 147.962 81.7794C147.962 74.3375 142.045 68.421 134.588 68.421C127.214 68.421 121.264 74.3712 121.264 81.7794C121.264 89.2028 127.18 95.1193 134.588 95.1193Z" fill="#000000" fill-opacity="0.85"/>
  <path d="M75.208 93.3859C72.9194 93.3859 72.0235 95.3224 73.1973 97.2086L83.8081 114.633C84.96 116.562 87.2637 116.464 88.4004 114.633L99.0904 97.1935C100.249 95.2921 99.3008 93.3859 97.0459 93.3859Z" fill="#000000" fill-opacity="0.85"/>
 </g>
</svg>
