<?xml version="1.0" encoding="UTF-8"?>
<!--Generator: Apple Native CoreSVG 232.5-->
<!DOCTYPE svg
PUBLIC "-//W3C//DTD SVG 1.1//EN"
       "http://www.w3.org/Graphics/SVG/1.1/DTD/svg11.dtd">
<svg version="1.1" xmlns="http://www.w3.org/2000/svg" xmlns:xlink="http://www.w3.org/1999/xlink" width="99.1226" height="87.2852">
 <g>
  <rect height="87.2852" opacity="0" width="99.1226" x="0" y="0"/>
  <path d="M84.6988 87.2852C94.5171 87.2852 99.1226 82.7959 99.1226 73.1206L99.1226 47.6392C99.1226 41.2471 97.3057 37.9566 92.4776 34.2988L55.5825 6.24366C49.5913 1.74268 44.8682 0.0942379 37.666 0.0942379L13.4697 0.0942379C4.68116 0.0942379 0 4.72656 0 13.4629L0 73.1206C0 82.7959 4.58692 87.2852 14.4238 87.2852ZM86.207 42.9922L13.6162 42.9922C8.95753 42.9922 6.04494 40.147 6.04494 35.3535L6.04494 13.7627C6.04494 8.85988 8.83302 6.12404 13.6162 6.12404L37.666 6.12404C43.5679 6.12404 47.1206 7.19826 51.5586 10.6851L87.5723 38.2446C89.771 39.876 89.0825 42.9922 86.207 42.9922Z" fill="#000000" fill-opacity="0.85"/>
 </g>
</svg>
