<?xml version="1.0" encoding="UTF-8"?>
<!--Generator: Apple Native CoreSVG 232.5-->
<!DOCTYPE svg
PUBLIC "-//W3C//DTD SVG 1.1//EN"
       "http://www.w3.org/Graphics/SVG/1.1/DTD/svg11.dtd">
<svg version="1.1" xmlns="http://www.w3.org/2000/svg" xmlns:xlink="http://www.w3.org/1999/xlink" width="154.869" height="120.963">
 <g>
  <rect height="120.963" opacity="0" width="154.869" x="0" y="0"/>
  <path d="M39.2175 88.8366L44.0906 86.0245C43.4338 85.2853 42.7585 84.4298 42.2146 83.4616C38.2829 76.6539 40.551 68.1827 47.3249 64.2477C54.1814 60.3278 62.6223 62.5807 66.554 69.4069C67.0979 70.36 67.5222 71.298 67.8035 72.3336L108.521 48.8414C107.83 48.0382 107.204 47.1979 106.63 46.2296C102.695 39.4371 104.948 30.9996 111.789 27.0157C118.578 23.1144 127.083 25.4161 131.018 32.1901C131.494 33.192 131.922 34.1637 132.249 35.1505L136.337 32.7779C140.714 30.2706 141.731 26.0524 139.175 21.5968L131.675 8.59971C129.239 4.25206 125.676 1.76621 119.493 3.22617L111.686 5.13877C104.838 2.59287 93.5427-0.50332 80.3503 7.16123L72.8928 11.4532C59.7727 19.0758 55.3391 23.1944 50.4241 32.5362L42.1736 48.1398L28.6482 58.3297C20.8484 64.2115 18.7131 71.8195 22.9548 79.0753L26.5329 85.2701C29.6345 90.6701 33.9978 91.9044 39.2175 88.8366ZM59.4548 85.2291C64.4353 82.3971 66.0432 76.2296 63.1809 71.3165C60.3337 66.4034 54.1965 64.7736 49.2834 67.6207C44.3855 70.4679 42.7102 76.6237 45.5574 81.5519C48.3708 86.465 54.5569 88.0763 59.4548 85.2291ZM123.934 48.046C128.798 45.214 130.458 39.0314 127.626 34.1334C124.779 29.2203 118.612 27.5416 113.714 30.3888C108.819 33.2696 107.14 39.422 109.954 44.3199C112.801 49.233 118.987 50.8444 123.934 48.046Z" fill="#000000" fill-opacity="0.85"/>
  <path d="M26.9553 119.434C27.8059 120.899 29.6721 121.364 31.0701 120.599L153.35 49.9645C154.733 49.215 155.314 47.379 154.463 45.9322C153.567 44.4181 151.686 43.9835 150.352 44.7667L28.0383 115.368C26.6555 116.151 26.1233 118.017 26.9553 119.434ZM20.1648 94.2487L10.8342 78.0006C9.40939 75.6124 6.70284 76.1818 5.84737 78.5177L0.249232 92.4367C-0.468054 94.2941 0.399134 95.8331 2.38449 96.1178L17.1955 98.257C19.7116 98.7101 21.5071 96.588 20.1648 94.2487Z" fill="#000000" fill-opacity="0.85"/>
 </g>
</svg>
