<?xml version="1.0" encoding="UTF-8"?>
<!--Generator: Apple Native CoreSVG 232.5-->
<!DOCTYPE svg
PUBLIC "-//W3C//DTD SVG 1.1//EN"
       "http://www.w3.org/Graphics/SVG/1.1/DTD/svg11.dtd">
<svg version="1.1" xmlns="http://www.w3.org/2000/svg" xmlns:xlink="http://www.w3.org/1999/xlink" width="113.544" height="89.3818">
 <g>
  <rect height="89.3818" opacity="0" width="113.544" x="0" y="0"/>
  <path d="M19.1821 28.1851C20.4565 22.2422 22.7734 15.6382 24.3696 12.8516C25.7637 10.4355 27.4824 9.09229 30.6035 8.70508C34.3901 8.2168 42.8726 7.92041 56.7798 7.92041C70.7056 7.92041 79.188 8.14942 82.9409 8.70508C86.062 9.12598 87.7471 10.4355 89.1748 12.8516C90.8047 15.6045 93.0054 22.2422 94.396 28.1851C94.7749 29.7646 94.1299 30.5996 92.3047 30.4868C83.9722 29.9194 74.5464 29.4917 56.7798 29.4917C39.0317 29.4917 29.606 29.9194 21.2734 30.4868C19.4146 30.5996 18.8032 29.7646 19.1821 28.1851ZM21.5596 62.9824C17.4492 62.9824 14.3189 59.8521 14.3189 55.7417C14.3189 51.5825 17.4492 48.4858 21.5596 48.4858C25.6851 48.4858 28.8154 51.5825 28.8154 55.7417C28.8154 59.8521 25.6851 62.9824 21.5596 62.9824ZM44.2373 61.4985C41.1406 61.4985 39.0576 59.4155 39.0576 56.3188C39.0576 53.2559 41.1406 51.1728 44.2373 51.1728L69.3408 51.1728C72.4038 51.1728 74.4868 53.2559 74.4868 56.3188C74.4868 59.4155 72.4038 61.4985 69.3408 61.4985ZM91.9849 62.9824C87.8594 62.9824 84.7627 59.8521 84.7627 55.7417C84.7627 51.5825 87.8594 48.4858 91.9849 48.4858C96.1289 48.4858 99.2256 51.5825 99.2256 55.7417C99.2256 59.8521 96.1289 62.9824 91.9849 62.9824ZM56.7798 76.2871C72.8379 76.2871 94.6187 75.457 103.817 74.3828C110.003 73.6958 113.544 70.4121 113.544 64.3892L113.544 55.7954C113.544 47.3467 111.688 42.9536 107.513 37.5029L103.287 32.0596C101.544 23.2705 98.273 14.0269 96.6128 10.4287C94.0064 4.9414 89.0073 1.95751 82.9673 1.15429C79.6655 0.714839 68.7603 0.470698 56.7798 0.470698C44.8179 0.470698 33.9277 0.74853 30.6108 1.15429C24.5708 1.89013 19.5381 4.9414 16.9653 10.4287C15.2715 14.0269 12.0337 23.2705 10.2573 32.0596L6.06494 37.5029C1.85693 42.9536 0 47.3467 0 55.7954L0 64.3892C0 70.4121 3.57471 73.6958 9.72754 74.3828C18.9595 75.457 40.7065 76.2871 56.7798 76.2871ZM6.32764 89.3818L11.9194 89.3818C15.4756 89.3818 18.2319 86.6255 18.2319 83.0879L18.2319 71.2324L0 62.5576L0 83.0879C0 86.6255 2.75635 89.3818 6.32764 89.3818ZM101.625 89.3818L107.251 89.3818C110.822 89.3818 113.544 86.6255 113.544 83.0879L113.544 62.5576L95.3462 71.2324L95.3462 83.0879C95.3462 86.6255 98.0689 89.3818 101.625 89.3818Z" fill="#000000" fill-opacity="0.85"/>
 </g>
</svg>
