<?xml version="1.0" encoding="UTF-8"?>
<!--Generator: Apple Native CoreSVG 232.5-->
<!DOCTYPE svg
PUBLIC "-//W3C//DTD SVG 1.1//EN"
       "http://www.w3.org/Graphics/SVG/1.1/DTD/svg11.dtd">
<svg version="1.1" xmlns="http://www.w3.org/2000/svg" xmlns:xlink="http://www.w3.org/1999/xlink" width="128.82" height="116.882">
 <g>
  <rect height="116.882" opacity="0" width="128.82" x="0" y="0"/>
  <path d="M128.82 52.1188L128.82 45.7844C126.869 46.7341 124.868 47.8488 122.785 49.1774L105.151 60.2648L85.3208 62.6877C73.9312 64.0617 67.2832 70.6086 67.2832 80.4523L67.2832 88.8898C67.2832 96.236 71.0469 100.033 78.2315 100.033L90.5845 100.033L90.5845 94.4787L78.4859 94.4787C74.6343 94.4787 72.8379 92.4953 72.8379 88.2985L72.8379 80.4523C72.8379 73.6218 77.5557 69.2038 86.003 68.1599L106.999 65.6022L125.682 54.0129C126.78 53.3176 127.817 52.6711 128.82 52.1188ZM128.82 100.033L128.82 94.4787L111.883 94.4787L111.883 100.033ZM101.097 109.941C109.181 109.941 115.47 103.572 115.47 95.5373C115.47 87.4348 109.181 81.1306 101.097 81.1306C93.0283 81.1306 86.709 87.4348 86.709 95.5373C86.709 103.572 93.0283 109.941 101.097 109.941ZM101.097 104.386C96.0752 104.386 92.2637 100.526 92.2637 95.5373C92.2637 90.5305 96.0752 86.6853 101.097 86.6853C106.07 86.6853 109.916 90.5305 109.916 95.5373C109.916 100.526 106.07 104.386 101.097 104.386ZM25.7241 109.941C33.793 109.941 40.1123 103.572 40.1123 95.5373C40.1123 87.4348 33.793 81.1306 25.7241 81.1306C17.6401 81.1306 11.3208 87.4348 11.3208 95.5373C11.3208 103.572 17.6401 109.941 25.7241 109.941ZM25.7241 104.386C20.7173 104.386 16.8755 100.526 16.8755 95.5373C16.8755 90.5305 20.7173 86.6853 25.7241 86.6853C30.7158 86.6853 34.5576 90.5305 34.5576 95.5373C34.5576 100.526 30.7158 104.386 25.7241 104.386ZM0 40.9235L0 46.4782L5.19581 46.4782C17.1587 46.4782 26.8872 51.4099 35.2066 62.861L45.8462 65.6174C49.8047 66.6428 51.1665 69.0656 51.1665 72.6584L51.1665 89.0944C51.1665 92.5441 49.4492 94.4787 46.3633 94.4787L36.0801 94.4787L36.0801 100.033L47.209 100.033C53.148 100.033 56.7212 96.3962 56.7212 90.2619L56.7212 72.6584C56.7212 66.7365 54.6084 62.1174 47.4346 59.9684L38.3862 57.3517C32.9155 50.7463 23.2422 40.9235 5.19581 40.9235ZM0 94.4787L0 100.033L15.021 100.033L15.021 94.4787Z" fill="#000000" fill-opacity="0.85"/>
  <path d="M68.8452 19.6789C62.7988 28.655 59.6484 39.0539 59.7798 49.3835C59.8809 50.9616 61.0127 52.0598 62.4712 52.0598C63.9819 51.9924 65.043 50.8454 65.0127 49.2673C64.73 40.342 67.5318 30.8576 73.1299 22.5842C78.7466 14.3073 86.4175 8.15498 94.8359 5.1208C96.2827 4.5583 96.9834 3.06269 96.4663 1.61933C95.9224 0.224791 94.457-0.325991 92.9463 0.1911C83.3003 3.966 74.8731 10.7971 68.8452 19.6789Z" fill="#000000" fill-opacity="0.85"/>
  <path d="M81.1231 28.0319C76.5855 34.6354 74.3325 42.1384 74.6187 49.3718C74.7163 50.9499 75.833 51.9655 77.2949 52.0144C78.7232 51.9807 79.8667 50.8488 79.8667 49.2033C79.5991 43.1506 81.5674 36.7307 85.4937 30.8581C89.3223 25.1657 94.6343 20.9025 100.376 18.8703C101.856 18.2556 102.459 16.76 101.976 15.4479C101.395 14.0837 99.9663 13.4841 98.5195 13.9675C91.8115 16.3029 85.6641 21.2936 81.1231 28.0319Z" fill="#000000" fill-opacity="0.85"/>
  <path d="M93.3438 36.2419C90.5874 40.2863 89.1494 45.1574 89.3936 49.3415C89.4087 50.8337 90.5859 52.0144 92.0479 51.9655C93.7051 51.9504 94.7393 50.6418 94.709 49.0114C94.5474 45.8278 95.667 42.1979 97.7412 39.1506C99.8189 36.0695 102.753 33.6989 105.674 32.7141C107.222 32.1481 108.096 30.6677 107.53 29.0627C106.98 27.7809 105.502 27.1511 104.059 27.6345C99.9727 29.0876 96.0293 32.2497 93.3438 36.2419Z" fill="#000000" fill-opacity="0.85"/>
 </g>
</svg>
