<?xml version="1.0" encoding="UTF-8"?>
<!--Generator: Apple Native CoreSVG 232.5-->
<!DOCTYPE svg
PUBLIC "-//W3C//DTD SVG 1.1//EN"
       "http://www.w3.org/Graphics/SVG/1.1/DTD/svg11.dtd">
<svg version="1.1" xmlns="http://www.w3.org/2000/svg" xmlns:xlink="http://www.w3.org/1999/xlink" width="94.7638" height="103.728">
 <g>
  <rect height="103.728" opacity="0" width="94.7638" x="0" y="0"/>
  <path d="M15.4029 53.2749C15.4029 55.5464 17.213 57.2925 19.5636 57.2925L23.1534 57.2925C25.4249 57.2925 27.171 55.5464 27.171 53.2749L27.171 49.0938L76.9215 49.0938L76.9215 53.2749C76.9215 55.5464 78.6676 57.2925 80.9693 57.2925L84.5592 57.2925C86.8946 57.2925 88.6559 55.5464 88.6559 53.2749L88.6559 33.1665C88.6559 27.7383 87.7335 24.7544 84.7428 21.3867L81.7018 17.8896L78.3058 8.18311C76.5143 3.07959 73.2071 0.946289 68.9337 0.439453C66.7701 0.146484 59.7911 0 52.0538 0C44.3165 0 37.2887 0.146484 35.1891 0.439453C30.8853 0.946289 27.5445 3.07959 25.7867 8.18311L22.3907 17.8896L19.3497 21.3867C16.3741 24.7544 15.4029 27.7383 15.4029 33.1665ZM30.3287 17.4224C28.921 17.4224 28.4142 16.311 28.8873 14.9707L30.8102 9.21045C31.6788 6.69874 33.0323 5.69386 35.2848 5.38575C37.5728 5.14161 43.1349 4.92774 52.0538 4.92774C60.9728 4.92774 66.4859 5.14161 68.7892 5.38575C71.0416 5.69386 72.3951 6.71387 73.2486 9.21045L75.2354 14.9707C75.6935 16.311 75.1715 17.4224 73.7789 17.4224ZM26.2638 37.1558C24.4586 37.1558 23.13 35.8608 23.13 34.0557L23.13 28.9995C23.13 27.2769 24.4586 26.0122 26.2638 26.0122C28.0201 26.0122 29.315 27.2432 29.315 28.9995L29.315 34.0557C29.315 35.8608 28.0201 37.1558 26.2638 37.1558ZM44.7481 35.7935C43.337 35.7935 42.4967 34.8252 42.4967 33.2979L42.4967 29.791C42.4967 28.3125 43.337 27.3931 44.7481 27.3931L59.1222 27.3931C60.5182 27.3931 61.4562 28.3125 61.4562 29.791L61.4562 33.2979C61.4562 34.8252 60.5182 35.7935 59.1222 35.7935ZM78.0309 37.1558C76.3233 37.1558 74.9796 35.8608 74.9796 34.0557L74.9796 28.9995C74.9796 27.3408 76.3233 26.0122 78.0309 26.0122C79.836 26.0122 81.131 27.2432 81.131 28.9995L81.131 34.0557C81.131 35.8608 79.836 37.1558 78.0309 37.1558ZM39.7672 65.1797L36.2682 62.5327C34.9767 61.6016 33.505 61.1436 31.9205 61.1436L24.9337 61.1436C23.1016 61.1436 22.3995 63.3814 23.8863 64.4287L30.9483 69.6099C33.171 71.228 32.8932 73.3682 30.3101 74.5132L7.31404 84.4663C-1.56145 88.2735-2.39495 94.0777 5.00886 99.5367L8.52302 102.12C9.81453 103.1 11.3013 103.573 12.9195 103.573L19.8424 103.573C21.7384 103.573 22.3917 101.335 20.9537 100.288L13.8614 95.0576C11.6539 93.4732 11.9317 91.3145 14.4659 90.2032L37.5108 80.2163C46.3375 76.4092 47.1559 70.6841 39.7672 65.1797ZM89.7701 65.3682L86.256 62.7363C84.9493 61.7564 83.4776 61.3472 81.8932 61.3472L74.9366 61.3472C73.0743 61.3472 72.3722 63.5361 73.859 64.6323L80.9513 69.7984C83.11 71.3828 82.8321 73.5567 80.2979 74.668L57.253 84.6548C48.4415 88.4771 47.5929 94.2173 54.9967 99.6914L58.5108 102.274C59.8023 103.254 61.274 103.728 62.8585 103.728L69.8302 103.728C71.6773 103.728 72.3644 101.505 70.8927 100.442L63.8307 95.2461C61.6568 93.628 61.9044 91.503 64.4688 90.3579L87.4835 80.4048C96.3404 76.5977 97.1285 70.8237 89.7701 65.3682Z" fill="#000000" fill-opacity="0.85"/>
 </g>
</svg>
