<?xml version="1.0" encoding="UTF-8"?>
<!--Generator: Apple Native CoreSVG 232.5-->
<!DOCTYPE svg
PUBLIC "-//W3C//DTD SVG 1.1//EN"
       "http://www.w3.org/Graphics/SVG/1.1/DTD/svg11.dtd">
<svg version="1.1" xmlns="http://www.w3.org/2000/svg" xmlns:xlink="http://www.w3.org/1999/xlink" width="107.864" height="121.34">
 <g>
  <rect height="121.34" opacity="0" width="107.864" x="0" y="0"/>
  <path d="M53.9243 121.276C76.7056 121.276 87.2642 115.917 87.2642 103.952L87.2642 21.1392C87.2642 7.74415 75.0967 0 53.9243 0C32.8159 0 20.6148 7.74415 20.6148 21.1392L20.6148 103.952C20.6148 115.917 31.207 121.276 53.9243 121.276ZM53.9883 50.2158C49.0669 50.2158 41.773 50.603 39.2608 50.603C35.5918 50.603 33.9014 49.1685 33.541 45.2774L32.8203 36.5767C32.167 29.5586 36.4917 26.523 53.9883 26.523C71.4512 26.523 75.7608 29.5586 75.1226 36.5767L74.4019 45.2774C74.0264 49.1685 72.3697 50.603 68.667 50.603C66.1885 50.603 58.2837 50.2158 53.9883 50.2158ZM53.9883 103.143C37.2232 103.143 32.2139 100.71 33.1367 93.5606L33.6807 89.1372C34.3897 83.3433 39.2373 81.3833 53.9883 81.3833C68.6904 81.3833 73.5381 83.3433 74.2622 89.1372L74.8062 93.5606C75.729 100.71 70.7197 103.143 53.9883 103.143ZM84.5254 33.1553L84.5254 41.9053L102.565 59.7901C103.798 61.023 105.747 60.9893 106.964 59.7901C108.164 58.5723 108.164 56.5899 106.964 55.357ZM84.5254 70.2207L84.5254 78.9859L102.565 96.8706C103.798 98.1035 105.747 98.0699 106.964 96.8706C108.164 95.6529 108.164 93.6367 106.964 92.4375Z" fill="#000000" fill-opacity="0.85"/>
 </g>
</svg>
