<?xml version="1.0" encoding="UTF-8"?>
<!--Generator: Apple Native CoreSVG 232.5-->
<!DOCTYPE svg
PUBLIC "-//W3C//DTD SVG 1.1//EN"
       "http://www.w3.org/Graphics/SVG/1.1/DTD/svg11.dtd">
<svg version="1.1" xmlns="http://www.w3.org/2000/svg" xmlns:xlink="http://www.w3.org/1999/xlink" width="169.152" height="116.043">
 <g>
  <rect height="116.043" opacity="0" width="169.152" x="0" y="0"/>
  <path d="M50.646 81.7794C50.646 89.2365 44.7632 95.1193 37.2876 95.1193C29.8643 95.1193 23.9629 89.2028 23.9629 81.7794C23.9629 74.3375 29.8643 68.421 37.2876 68.421C44.7295 68.421 50.646 74.3375 50.646 81.7794ZM147.962 81.7794C147.962 89.2028 142.045 95.1193 134.588 95.1193C127.18 95.1193 121.264 89.2028 121.264 81.7794C121.264 74.3712 127.214 68.421 134.588 68.421C142.045 68.421 147.962 74.3375 147.962 81.7794ZM148.808 38.6198L158.927 41.5143C166.844 43.8771 169.152 48.9913 169.152 55.57L169.152 75.0929C169.152 81.8654 165.233 85.9152 158.671 85.9152L152.499 85.9152C152.795 84.5866 152.96 83.2243 152.96 81.7794C152.96 71.5084 144.875 63.4079 134.588 63.4079C124.351 63.4079 116.217 71.5084 116.217 81.7794C116.217 83.2243 116.431 84.5866 116.678 85.9152L55.1978 85.9152C55.479 84.5866 55.6592 83.2243 55.6592 81.7794C55.6592 71.5084 47.5586 63.4079 37.2876 63.4079C27.0352 63.4079 18.916 71.5084 18.916 81.7794C18.916 83.2243 19.1148 84.5866 19.3774 85.9152L12.063 85.9152C4.07862 85.9152 0 81.754 0 73.5592L0 64.2091C0 53.2994 7.32325 46.0807 19.9068 44.5416L41.98 41.8444L61.5518 29.5514C73.2759 22.2135 80.9356 20.3663 100.689 20.3663L111.998 20.3663C132.012 20.3663 142.733 31.2784 148.808 38.6198ZM83.8081 51.8107L73.1973 69.2203C72.0235 71.1217 72.9194 73.0431 75.208 73.0431L97.0459 73.0431C99.3008 73.0431 100.249 71.1705 99.0904 69.2843L88.4004 51.8107C87.2637 49.965 84.96 49.9161 83.8081 51.8107Z" fill="#000000" fill-opacity="0.85"/>
  <path d="M99.0904 97.1935L88.4004 114.633C87.2637 116.464 84.96 116.562 83.8081 114.633L73.1973 97.2086C72.0235 95.3224 72.9194 93.3859 75.208 93.3859L97.0459 93.3859C99.3008 93.3859 100.249 95.2921 99.0904 97.1935Z" fill="#000000" fill-opacity="0.85"/>
 </g>
</svg>
