<?xml version="1.0" encoding="UTF-8"?>
<!--Generator: Apple Native CoreSVG 232.5-->
<!DOCTYPE svg
PUBLIC "-//W3C//DTD SVG 1.1//EN"
       "http://www.w3.org/Graphics/SVG/1.1/DTD/svg11.dtd">
<svg version="1.1" xmlns="http://www.w3.org/2000/svg" xmlns:xlink="http://www.w3.org/1999/xlink" width="82.876" height="121.34">
 <g>
  <rect height="121.34" opacity="0" width="82.876" x="0" y="0"/>
  <path d="M3.13282 97.6216C5.03615 97.6216 6.26564 96.4224 6.26564 94.4551L6.26564 53.021C6.26564 51.0537 5.03615 49.8545 3.13282 49.8545C1.27832 49.8545 0 51.0537 0 52.9722L0 94.5191C0 96.4224 1.27832 97.6216 3.13282 97.6216ZM3.13282 63.9751L18.7041 63.9751L18.7041 58.8955L3.13282 58.8955ZM49.5362 121.276C72.3174 121.276 82.876 115.917 82.876 103.952L82.876 21.1392C82.876 7.74415 70.7085 0 49.5362 0C28.3941 0 16.2266 7.74415 16.2266 21.1392L16.2266 103.952C16.2266 115.917 26.7852 121.276 49.5362 121.276ZM49.5664 50.2158C44.6451 50.2158 37.3511 50.603 34.8726 50.603C31.17 50.603 29.5132 49.1685 29.1529 45.2774L28.3985 36.5767C27.7788 29.5586 32.1036 26.523 49.5664 26.523C67.0293 26.523 71.3726 29.5586 70.7344 36.5767L69.98 45.2774C69.6382 49.1685 67.9478 50.603 64.2788 50.603C61.7666 50.603 53.8955 50.2158 49.5664 50.2158ZM49.5664 103.143C32.835 103.143 27.8257 100.71 28.7486 93.5606L29.2925 89.1372C30.0015 83.3433 34.8492 81.3833 49.5664 81.3833C64.3023 81.3833 69.1499 83.3433 69.8741 89.1372L70.418 93.5606C71.3072 100.71 66.3316 103.143 49.5664 103.143Z" fill="#000000" fill-opacity="0.85"/>
 </g>
</svg>
