<?xml version="1.0" encoding="UTF-8"?>
<!--Generator: Apple Native CoreSVG 232.5-->
<!DOCTYPE svg
PUBLIC "-//W3C//DTD SVG 1.1//EN"
       "http://www.w3.org/Graphics/SVG/1.1/DTD/svg11.dtd">
<svg version="1.1" xmlns="http://www.w3.org/2000/svg" xmlns:xlink="http://www.w3.org/1999/xlink" width="82.876" height="121.34">
 <g>
  <rect height="121.34" opacity="0" width="82.876" x="0" y="0"/>
  <path d="M79.7432 97.6216C81.5977 97.6216 82.876 96.4224 82.876 94.5191L82.876 52.9722C82.876 51.0537 81.5977 49.8545 79.7432 49.8545C77.8736 49.8545 76.6104 51.0537 76.6104 53.021L76.6104 94.4551C76.6104 96.4224 77.8736 97.6216 79.7432 97.6216ZM79.7432 63.9751L79.7432 58.8955L64.1719 58.8955L64.1719 63.9751ZM33.3096 121.276C56.0908 121.276 66.6494 115.917 66.6494 103.952L66.6494 21.1392C66.6494 7.74415 54.482 0 33.3096 0C12.1675 0 0 7.74415 0 21.1392L0 103.952C0 115.917 10.5586 121.276 33.3096 121.276ZM33.3399 50.2158C28.4185 50.2158 21.1245 50.603 18.646 50.603C14.9434 50.603 13.2529 49.1685 12.9263 45.2774L12.1568 36.5767C11.5523 29.5586 15.877 26.523 33.3399 26.523C50.8027 26.523 55.1123 29.5586 54.5078 36.5767L53.7383 45.2774C53.4116 49.1685 51.7212 50.603 48.0523 50.603C45.5401 50.603 37.6353 50.2158 33.3399 50.2158ZM33.3399 103.143C16.5933 103.143 11.5991 100.71 12.522 93.5606L13.0322 89.1372C13.7749 83.3433 18.5889 81.3833 33.3399 81.3833C48.0757 81.3833 52.9234 83.3433 53.6323 89.1372L54.1577 93.5606C55.0806 100.71 50.0713 103.143 33.3399 103.143Z" fill="#000000" fill-opacity="0.85"/>
 </g>
</svg>
