<?xml version="1.0" encoding="UTF-8"?>
<!--Generator: Apple Native CoreSVG 232.5-->
<!DOCTYPE svg
PUBLIC "-//W3C//DTD SVG 1.1//EN"
       "http://www.w3.org/Graphics/SVG/1.1/DTD/svg11.dtd">
<svg version="1.1" xmlns="http://www.w3.org/2000/svg" xmlns:xlink="http://www.w3.org/1999/xlink" width="128.82" height="105.307">
 <g>
  <rect height="105.307" opacity="0" width="128.82" x="0" y="0"/>
  <path d="M128.82 46.3311L128.82 39.9966C126.869 40.9463 124.868 42.061 122.785 43.3897L105.151 54.4771L85.3208 56.8999C73.9312 58.2739 67.2832 64.8208 67.2832 74.6646L67.2832 83.1021C67.2832 90.4483 71.0469 94.2456 78.2315 94.2456L90.5845 94.2456L90.5845 88.6909L78.4859 88.6909C74.6343 88.6909 72.8379 86.7075 72.8379 82.5108L72.8379 74.6646C72.8379 67.834 77.5557 63.416 86.003 62.3721L106.999 59.8145L125.682 48.2251C126.78 47.5298 127.817 46.8833 128.82 46.3311ZM128.82 94.2456L128.82 88.6909L111.883 88.6909L111.883 94.2456ZM101.097 104.153C109.181 104.153 115.47 97.7847 115.47 89.7495C115.47 81.647 109.181 75.3428 101.097 75.3428C93.0283 75.3428 86.709 81.647 86.709 89.7495C86.709 97.7847 93.0283 104.153 101.097 104.153ZM101.097 98.5982C96.0752 98.5982 92.2637 94.7378 92.2637 89.7495C92.2637 84.7427 96.0752 80.8975 101.097 80.8975C106.07 80.8975 109.916 84.7427 109.916 89.7495C109.916 94.7378 106.07 98.5982 101.097 98.5982ZM25.7241 104.153C33.793 104.153 40.1123 97.7847 40.1123 89.7495C40.1123 81.647 33.793 75.3428 25.7241 75.3428C17.6401 75.3428 11.3208 81.647 11.3208 89.7495C11.3208 97.7847 17.6401 104.153 25.7241 104.153ZM25.7241 98.5982C20.7173 98.5982 16.8755 94.7378 16.8755 89.7495C16.8755 84.7427 20.7173 80.8975 25.7241 80.8975C30.7158 80.8975 34.5576 84.7427 34.5576 89.7495C34.5576 94.7378 30.7158 98.5982 25.7241 98.5982ZM0 35.1358L0 40.6905L5.19581 40.6905C17.1587 40.6905 26.8872 45.6221 35.2066 57.0733L45.8462 59.8296C49.8047 60.855 51.1665 63.2779 51.1665 66.8706L51.1665 83.3067C51.1665 86.7564 49.4492 88.6909 46.3633 88.6909L36.0801 88.6909L36.0801 94.2456L47.209 94.2456C53.148 94.2456 56.7212 90.6084 56.7212 84.4741L56.7212 66.8706C56.7212 60.9488 54.6084 56.3296 47.4346 54.1807L38.3862 51.564C32.9155 44.9585 23.2422 35.1358 5.19581 35.1358ZM0 88.6909L0 94.2456L15.021 94.2456L15.021 88.6909Z" fill="#000000" fill-opacity="0.85"/>
  <path d="M64.395 32.7886C66.2393 32.7886 67.3643 31.667 67.3828 29.6123L67.9453 3.54688C67.979 1.51075 66.4497 0 64.3613 0C62.2393 0 60.7925 1.47705 60.811 3.51319L61.3399 29.6123C61.3735 31.6333 62.4834 32.7886 64.395 32.7886ZM64.395 47.9312C66.8638 47.9312 68.9419 45.9761 68.9419 43.5191C68.9419 41.0806 66.8975 39.1406 64.395 39.1406C61.9077 39.1406 59.8633 41.1143 59.8633 43.5191C59.8633 45.9424 61.9414 47.9312 64.395 47.9312Z" fill="#000000" fill-opacity="0.85"/>
 </g>
</svg>
