<?xml version="1.0" encoding="UTF-8"?>
<!--Generator: Apple Native CoreSVG 232.5-->
<!DOCTYPE svg
PUBLIC "-//W3C//DTD SVG 1.1//EN"
       "http://www.w3.org/Graphics/SVG/1.1/DTD/svg11.dtd">
<svg version="1.1" xmlns="http://www.w3.org/2000/svg" xmlns:xlink="http://www.w3.org/1999/xlink" width="107.864" height="121.34">
 <g>
  <rect height="121.34" opacity="0" width="107.864" x="0" y="0"/>
  <path d="M84.5406 33.1553L84.5406 41.9053L102.531 59.7901C103.798 61.023 105.762 60.9893 106.964 59.7901C108.164 58.5723 108.164 56.5899 106.964 55.357ZM53.9395 121.276C76.7207 121.276 87.2642 115.917 87.2642 103.952L87.2642 21.1392C87.2642 7.74415 75.1118 0 53.9395 0C32.8159 0 20.6148 7.74415 20.6148 21.1392L20.6148 103.952C20.6148 115.917 31.207 121.276 53.9395 121.276ZM53.9395 115.078C35.5611 115.078 26.8467 111.51 26.8467 103.698L26.8467 21.1392C26.8467 11.6753 36.7622 6.23195 53.9395 6.23195C71.1655 6.23195 81.0322 11.6753 81.0322 21.1392L81.0322 103.698C81.0322 111.51 72.3667 115.078 53.9395 115.078ZM53.9546 50.5191C58.1978 50.5191 65.9341 50.8911 68.3941 50.8911C71.9956 50.8911 73.6524 49.4902 73.9453 45.6665L74.6997 37.168C75.3194 30.3032 71.1294 27.3198 53.9546 27.3198C36.8135 27.3198 32.6236 30.3032 33.2432 37.168L33.9639 45.6665C34.2905 49.4902 35.9136 50.8911 39.564 50.8911C41.9751 50.8911 49.1343 50.5191 53.9546 50.5191ZM53.9546 102.331C70.3643 102.331 75.2725 99.9653 74.3833 92.9844L73.8394 88.647C73.1641 82.9541 68.4024 81.0615 53.9546 81.0615C39.5406 81.0615 34.794 82.9541 34.1035 88.647L33.5596 92.9844C32.6704 99.9653 37.5786 102.331 53.9546 102.331ZM23.3384 70.2207L0.899416 92.4375C-0.299805 93.6367-0.299805 95.6529 0.899416 96.8706C2.11719 98.0699 4.09962 98.1035 5.33253 96.8706L23.3384 78.9859Z" fill="#000000" fill-opacity="0.85"/>
 </g>
</svg>
