<?xml version="1.0" encoding="UTF-8"?>
<!--Generator: Apple Native CoreSVG 232.5-->
<!DOCTYPE svg
PUBLIC "-//W3C//DTD SVG 1.1//EN"
       "http://www.w3.org/Graphics/SVG/1.1/DTD/svg11.dtd">
<svg version="1.1" xmlns="http://www.w3.org/2000/svg" xmlns:xlink="http://www.w3.org/1999/xlink" width="169.152" height="75.376">
 <g>
  <rect height="75.376" opacity="0" width="169.152" x="0" y="0"/>
  <path d="M63.4956 35.7661C57.25 35.7661 53.1074 33.6157 49.2412 28.5371L35.6372 10.5674C32.9785 7.09376 30.6553 6.0298 25.417 6.0298L12.9209 6.0298C11.272 6.0298 9.92286 4.64698 9.92286 2.99805C9.92286 1.34912 11.272 0 12.9209 0L25.417 0C32.2334 0 36.5528 1.95166 40.3062 6.90235L54.023 24.7593C56.9746 28.5596 59.0723 29.7363 63.4956 29.7363L73.6138 29.7363L73.6138 24.7232C73.6138 22.0283 76.0357 21.23 78.0635 22.5757L90.1343 30.3462C92.1065 31.606 92.0728 33.8999 90.1983 35.1109L78.0298 42.9151C76.0357 44.2271 73.6138 43.4287 73.6138 40.7676L73.6138 35.7661ZM12.063 65.5816L19.3774 65.5816C19.1148 64.253 18.916 62.8906 18.916 61.4458C18.916 51.1748 27.0352 43.0742 37.2876 43.0742C47.5586 43.0742 55.6592 51.1748 55.6592 61.4458C55.6592 62.8906 55.479 64.253 55.1978 65.5816L116.678 65.5816C116.431 64.253 116.217 62.8906 116.217 61.4458C116.217 51.1748 124.351 43.0742 134.588 43.0742C144.875 43.0742 152.96 51.1748 152.96 61.4458C152.96 62.8906 152.795 64.253 152.499 65.5816L158.671 65.5816C165.233 65.5816 169.152 61.5318 169.152 54.7593L169.152 35.2363C169.152 28.6577 166.844 23.5435 158.927 21.1807L148.808 18.2861C142.733 10.9448 132.012 0.03272 111.998 0.03272L100.689 0.03272C80.9356 0.03272 73.2759 1.87989 61.5518 9.21778L41.98 21.5108L19.9068 24.208C7.32325 25.7471 0 32.9658 0 43.8755L0 53.2256C0 61.4204 4.07862 65.5816 12.063 65.5816ZM37.2876 74.7857C44.7632 74.7857 50.646 68.9029 50.646 61.4458C50.646 54.0039 44.7295 48.0874 37.2876 48.0874C29.8643 48.0874 23.9629 54.0039 23.9629 61.4458C23.9629 68.8692 29.8643 74.7857 37.2876 74.7857ZM134.588 74.7857C142.045 74.7857 147.962 68.8692 147.962 61.4458C147.962 54.0039 142.045 48.0874 134.588 48.0874C127.214 48.0874 121.264 54.0376 121.264 61.4458C121.264 68.8692 127.18 74.7857 134.588 74.7857Z" fill="#000000" fill-opacity="0.85"/>
 </g>
</svg>
