<?xml version="1.0" encoding="UTF-8"?>
<!--Generator: Apple Native CoreSVG 232.5-->
<!DOCTYPE svg
PUBLIC "-//W3C//DTD SVG 1.1//EN"
       "http://www.w3.org/Graphics/SVG/1.1/DTD/svg11.dtd">
<svg version="1.1" xmlns="http://www.w3.org/2000/svg" xmlns:xlink="http://www.w3.org/1999/xlink" width="136.817" height="71.5889">
 <g>
  <rect height="71.5889" opacity="0" width="136.817" x="0" y="0"/>
  <path d="M3.10304 71.5889L8.89064 71.5889C11.1997 71.5889 12.377 70.5059 13.0708 68.7393L39.9785 2.30762C40.4956 1.10498 39.8657 0.0673831 38.5957 0.0673831L35.9971 0.0673831C34.6968 0.0673831 33.8799 0.655276 33.3291 1.77198L0.472175 67.3193C-0.607417 69.3252 0.17237 71.5889 3.10304 71.5889ZM127.941 71.5889L133.748 71.5889C136.66 71.5889 137.424 69.3252 136.36 67.3193L103.522 1.77198C102.952 0.655276 102.135 0.0673831 100.835 0.0673831L98.2212 0.0673831C96.9512 0.0673831 96.355 1.10498 96.8384 2.30762L123.746 68.7393C124.44 70.5059 125.617 71.5889 127.941 71.5889Z" fill="#000000" fill-opacity="0.85"/>
  <path d="M38.0308 56.0322C38.0308 57.8911 39.499 59.3745 41.3731 59.3745L44.3736 59.3745C46.2661 59.3745 47.7007 57.9063 47.7007 56.0322L47.7007 52.6055L88.6446 52.6055L88.6446 56.0322C88.6446 57.9063 90.1128 59.3745 92.0205 59.3745L94.9722 59.3745C96.8799 59.3745 98.3482 57.9063 98.3482 56.0322L98.3482 39.5156C98.3482 35.0488 97.5166 32.5786 95.1035 29.8154L92.6065 26.9077L89.7964 18.9136C88.3164 14.6958 85.6172 12.938 82.0645 12.5137C80.3252 12.3032 74.5552 12.1567 68.1802 12.1567C61.8237 12.1567 56.0537 12.3032 54.2808 12.5137C50.728 12.938 48.0625 14.6958 46.5488 18.9136L43.7725 26.9077L41.2417 29.8154C38.8286 32.5786 38.0308 35.0488 38.0308 39.5156ZM50.2471 26.479C49.1172 26.479 48.6778 25.5815 49.0684 24.4888L50.6646 19.7607C51.3867 17.6362 52.4995 16.8384 54.395 16.6128C56.2925 16.3535 60.8828 16.1885 68.1802 16.1885C75.4961 16.1885 80.0528 16.3535 81.9502 16.6128C83.8457 16.8384 84.9737 17.6362 85.6807 19.7607L87.3106 24.4888C87.7012 25.5815 87.228 26.479 86.0982 26.479ZM46.9214 42.7808C45.4463 42.7808 44.3804 41.7148 44.3804 40.2397L44.3804 36.0962C44.3804 34.6548 45.4463 33.5889 46.9214 33.5889C48.3965 33.5889 49.4624 34.6211 49.4624 36.0962L49.4624 40.2397C49.4624 41.7148 48.3965 42.7808 46.9214 42.7808ZM62.166 41.6172C61.0176 41.6172 60.2935 40.8779 60.2935 39.647L60.2935 36.6924C60.2935 35.4766 61.0176 34.7373 62.166 34.7373L74.0059 34.7373C75.188 34.7373 75.9273 35.4766 75.9273 36.6924L75.9273 39.647C75.9273 40.8779 75.188 41.6172 74.0059 41.6172ZM89.5923 42.7808C88.1997 42.7808 87.085 41.666 87.085 40.2397L87.085 36.0962C87.085 34.6699 88.1997 33.5889 89.5923 33.5889C91.0674 33.5889 92.1333 34.6211 92.1333 36.0962L92.1333 40.2397C92.1333 41.7148 91.0674 42.7808 89.5923 42.7808Z" fill="#000000" fill-opacity="0.85"/>
 </g>
</svg>
