<?xml version="1.0" encoding="UTF-8"?>
<!--Generator: Apple Native CoreSVG 232.5-->
<!DOCTYPE svg
PUBLIC "-//W3C//DTD SVG 1.1//EN"
       "http://www.w3.org/Graphics/SVG/1.1/DTD/svg11.dtd">
<svg version="1.1" xmlns="http://www.w3.org/2000/svg" xmlns:xlink="http://www.w3.org/1999/xlink" width="133.025" height="121.34">
 <g>
  <rect height="121.34" opacity="0" width="133.025" x="0" y="0"/>
  <path d="M66.4805 121.276C89.2618 121.276 99.854 115.917 99.854 103.952L99.854 21.1392C99.854 7.74415 87.6529 0 66.4805 0C45.3721 0 33.2046 7.74415 33.2046 21.1392L33.2046 103.952C33.2046 115.917 43.7632 121.276 66.4805 121.276ZM66.4805 115.078C48.1172 115.078 39.4365 111.51 39.4365 103.698L39.4365 21.1392C39.4365 11.6753 49.3032 6.23195 66.4805 6.23195C83.7217 6.23195 93.6221 11.6753 93.6221 21.1392L93.6221 103.698C93.6221 111.51 84.9077 115.078 66.4805 115.078ZM66.5445 50.5191C70.7388 50.5191 78.5239 50.8911 80.9351 50.8911C84.5703 50.8911 86.1934 49.4902 86.5352 45.6665L87.2896 37.168C87.8755 30.3032 83.6856 27.3198 66.5445 27.3198C49.4034 27.3198 45.1797 30.3032 45.7842 37.168L46.5537 45.6665C46.8467 49.4902 48.5034 50.8911 52.105 50.8911C54.5498 50.8911 61.7241 50.5191 66.5445 50.5191ZM66.5445 102.331C82.9204 102.331 87.8286 99.9653 86.9395 92.9844L86.3955 88.647C85.7051 82.9541 80.9585 81.0615 66.5445 81.0615C52.0816 81.0615 47.335 82.9541 46.6597 88.647L46.1006 92.9844C45.2451 99.9653 50.1197 102.331 66.5445 102.331ZM35.9043 46.0855L35.9043 35.916L29.6699 35.916C27.3091 35.916 25.5459 37.5362 25.5459 39.7422L25.5459 42.2105C25.5459 44.4165 27.3091 46.0855 29.6699 46.0855ZM97.1358 46.0855L103.37 46.0855C105.78 46.0855 107.494 44.4165 107.494 42.2105L107.494 39.7422C107.494 37.5362 105.78 35.916 103.37 35.916L97.1358 35.916Z" fill="#000000" fill-opacity="0.85"/>
  <path d="M133.025 94.521L133.025 72.6831C133.025 70.4282 131.152 69.48 129.266 70.6387L111.826 81.3286C109.947 82.4839 109.898 84.7691 111.826 85.9546L129.236 96.5318C131.137 97.7056 133.025 96.8096 133.025 94.521Z" fill="#000000" fill-opacity="0.85"/>
 </g>
</svg>
