<?xml version="1.0" encoding="UTF-8"?>
<!--Generator: Apple Native CoreSVG 232.5-->
<!DOCTYPE svg
PUBLIC "-//W3C//DTD SVG 1.1//EN"
       "http://www.w3.org/Graphics/SVG/1.1/DTD/svg11.dtd">
<svg version="1.1" xmlns="http://www.w3.org/2000/svg" xmlns:xlink="http://www.w3.org/1999/xlink" width="169.152" height="85.4698">
 <g>
  <rect height="85.4698" opacity="0" width="169.152" x="0" y="0"/>
  <path d="M148.808 22.6895L158.927 25.584C166.844 27.9468 169.152 33.0611 169.152 39.6397L169.152 59.1963C169.152 65.9351 165.233 69.9849 158.671 69.9849L149.932 69.9849C147.896 76.419 141.952 80.9512 134.757 80.9512C127.55 80.9512 121.613 76.419 119.581 69.9849L52.6171 69.9849C50.5845 76.419 44.648 80.9512 37.4409 80.9512C30.246 80.9512 24.3119 76.419 22.2798 69.9849L12.063 69.9849C4.07862 69.9849 0 65.8238 0 57.6289L0 48.2788C0 37.3692 7.32325 30.1504 19.9068 28.6113L37.5411 26.4565L41.7462 31.9902L20.69 34.5923C11.251 35.749 6.04494 40.6519 6.04494 48.2788L6.04494 56.9854C6.04494 61.731 8.05177 63.94 12.3511 63.94L21.5666 63.94C22.0896 55.5118 28.8709 49.0816 37.4409 49.0816C46.0255 49.0816 52.8073 55.5118 53.3304 63.94L118.867 63.94C119.39 55.5118 126.172 49.0816 134.757 49.0816C143.327 49.0816 150.122 55.5118 150.646 63.94L157.725 63.94C161.179 63.94 163.107 61.7461 163.107 57.9092L163.107 39.6397C163.107 35.5772 161.568 32.8311 157.122 31.7232L145.325 28.689C136.127 15.9683 125.279 10.4658 111.998 10.4658L100.689 10.4658C82.1582 10.4658 75.5581 12.0772 64.7671 18.7818L56.0517 24.2144L52.3661 19.3906L61.5518 13.6211C73.2759 6.28321 80.9356 4.42091 100.689 4.42091L111.998 4.42091C132.012 4.42091 142.733 15.3482 148.808 22.6895ZM27.5435 65.0239C27.5435 70.5947 31.8701 74.9214 37.4409 74.9214C43.0269 74.9214 47.3384 70.5947 47.3384 65.0239C47.3384 59.438 43.0269 55.1114 37.4409 55.1114C31.8701 55.1114 27.5435 59.438 27.5435 65.0239ZM124.859 65.0239C124.859 70.5947 129.186 74.9214 134.757 74.9214C140.328 74.9214 144.654 70.5947 144.654 65.0239C144.654 59.438 140.328 55.1114 134.757 55.1114C129.186 55.1114 124.859 59.438 124.859 65.0239Z" fill="#000000" fill-opacity="0.85"/>
  <path d="M12.9209 11.0767L25.417 11.0767C30.6553 11.0767 32.9785 12.1406 35.6372 15.6143L49.2412 33.584C53.1074 38.6626 57.25 40.813 63.4956 40.813L73.6138 40.813L73.6138 45.8145C73.6138 48.4756 76.0357 49.2739 78.0298 47.9619L90.1983 40.1577C92.0728 38.9468 92.1065 36.6528 90.1343 35.3931L78.0635 27.6226C76.0357 26.2769 73.6138 27.0752 73.6138 29.77L73.6138 34.7832L63.4956 34.7832C59.0723 34.7832 56.9746 33.6065 54.023 29.8062L40.3062 11.9492C36.5528 6.99854 32.2334 5.04688 25.417 5.04688L12.9209 5.04688C11.272 5.04688 9.92286 6.396 9.92286 8.04493C9.92286 9.69386 11.272 11.0767 12.9209 11.0767Z" fill="#000000" fill-opacity="0.85"/>
 </g>
</svg>
