<?xml version="1.0" encoding="UTF-8"?>
<!--Generator: Apple Native CoreSVG 232.5-->
<!DOCTYPE svg
PUBLIC "-//W3C//DTD SVG 1.1//EN"
       "http://www.w3.org/Graphics/SVG/1.1/DTD/svg11.dtd">
<svg version="1.1" xmlns="http://www.w3.org/2000/svg" xmlns:xlink="http://www.w3.org/1999/xlink" width="99.1226" height="87.2852">
 <g>
  <rect height="87.2852" opacity="0" width="99.1226" x="0" y="0"/>
  <path d="M14.4238 87.2852L84.6988 87.2852C94.5508 87.2852 99.1226 82.7959 99.1226 73.1206L99.1226 13.4629C99.1226 4.72656 94.4414 0.0942379 85.6529 0.0942379L61.4566 0.0942379C54.2544 0.0942379 49.5313 1.74268 43.5401 6.24366L6.64503 34.2988C1.8169 37.9566 0 41.2471 0 47.6392L0 73.1206C0 82.7959 4.60547 87.2852 14.4238 87.2852ZM12.9155 42.9922C10.0552 42.9922 9.35159 39.876 11.5503 38.2446L47.564 10.6851C52.002 7.19826 55.5547 6.12404 61.4566 6.12404L85.5064 6.12404C90.2896 6.12404 93.0928 8.85988 93.0928 13.7627L93.0928 35.3535C93.0928 40.147 90.1651 42.9922 85.5064 42.9922Z" fill="#000000" fill-opacity="0.85"/>
 </g>
</svg>
