<?xml version="1.0" encoding="UTF-8"?>
<!--Generator: Apple Native CoreSVG 232.5-->
<!DOCTYPE svg
PUBLIC "-//W3C//DTD SVG 1.1//EN"
       "http://www.w3.org/Graphics/SVG/1.1/DTD/svg11.dtd">
<svg version="1.1" xmlns="http://www.w3.org/2000/svg" xmlns:xlink="http://www.w3.org/1999/xlink" width="169.152" height="140.26">
 <g>
  <rect height="140.26" opacity="0" width="169.152" x="0" y="0"/>
  <path d="M148.808 50.0845L158.927 52.979C166.844 55.3418 169.152 60.4561 169.152 67.0347L169.152 86.5913C169.152 93.3301 165.233 97.3799 158.671 97.3799L149.932 97.3799C147.896 103.814 141.952 108.346 134.757 108.346C127.55 108.346 121.613 103.814 119.581 97.3799L52.6171 97.3799C50.5845 103.814 44.648 108.346 37.4409 108.346C30.246 108.346 24.3119 103.814 22.2798 97.3799L12.063 97.3799C4.07862 97.3799 0 93.2188 0 85.0239L0 75.6738C0 64.7642 7.32325 57.5454 19.9068 56.0064L41.98 53.3091L61.5518 41.0161C64.7011 39.045 67.5571 37.469 70.4341 36.2291L70.4341 42.6655C70.4341 42.7625 70.4349 42.8589 70.4452 42.9492C68.6285 43.8634 66.77 44.9324 64.7671 46.1768L44.0298 59.103L20.69 61.9873C11.251 63.1441 6.04494 68.0469 6.04494 75.6738L6.04494 84.3804C6.04494 89.126 8.05177 91.335 12.3511 91.335L21.5666 91.335C22.0896 82.9068 28.8709 76.4766 37.4409 76.4766C46.0255 76.4766 52.8073 82.9068 53.3304 91.335L118.867 91.335C119.39 82.9068 126.172 76.4766 134.757 76.4766C143.327 76.4766 150.122 82.9068 150.646 91.335L157.725 91.335C161.179 91.335 163.107 89.1411 163.107 85.3042L163.107 67.0347C163.107 62.9722 161.568 60.2261 157.122 59.1182L145.325 56.084C136.943 44.4912 127.19 38.8934 115.467 38.008L115.467 31.9344C133.271 33.1033 143.094 43.1799 148.808 50.0845ZM27.5435 92.419C27.5435 97.9898 31.8701 102.316 37.4409 102.316C43.0269 102.316 47.3384 97.9898 47.3384 92.419C47.3384 86.833 43.0269 82.5064 37.4409 82.5064C31.8701 82.5064 27.5435 86.833 27.5435 92.419ZM124.859 92.419C124.859 97.9898 129.186 102.316 134.757 102.316C140.328 102.316 144.654 97.9898 144.654 92.419C144.654 86.833 140.328 82.5064 134.757 82.5064C129.186 82.5064 124.859 86.833 124.859 92.419Z" fill="#000000" fill-opacity="0.85"/>
  <path d="M80.4531 20.5776L85.5327 20.544L85.5327 13.437C85.5327 8.13184 88.3711 5.06446 92.9336 5.06446C97.5298 5.06446 100.334 8.13184 100.334 13.437L100.334 20.544L105.399 20.5776L105.399 13.7925C105.399 5.52979 100.368 0 92.9336 0C85.5181 0 80.4531 5.52979 80.4531 13.7925ZM80.9888 47.8901L104.912 47.8901C108.217 47.8901 109.81 46.2451 109.81 42.6655L109.81 23.8379C109.81 20.228 108.217 18.6133 104.912 18.6133L80.9888 18.6133C77.6685 18.6133 76.0908 20.228 76.0908 23.8379L76.0908 42.6655C76.0908 46.2451 77.6685 47.8901 80.9888 47.8901Z" fill="#000000" fill-opacity="0.85"/>
 </g>
</svg>
