<?xml version="1.0" encoding="UTF-8"?>
<!--Generator: Apple Native CoreSVG 232.5-->
<!DOCTYPE svg
PUBLIC "-//W3C//DTD SVG 1.1//EN"
       "http://www.w3.org/Graphics/SVG/1.1/DTD/svg11.dtd">
<svg version="1.1" xmlns="http://www.w3.org/2000/svg" xmlns:xlink="http://www.w3.org/1999/xlink" width="113.544" height="89.3818">
 <g>
  <rect height="89.3818" opacity="0" width="113.544" x="0" y="0"/>
  <path d="M0 66.2358C0 72.5566 3.49561 76.6436 10.0405 76.6436L103.553 76.6436C110.049 76.6436 113.544 72.5566 113.544 66.2358L113.544 51.9844C113.544 43.5693 112.043 38.9556 107.513 33.7256L102.778 28.2822L97.4849 13.2217C94.7017 5.25927 89.6148 1.92041 82.9673 1.15429C79.6655 0.74853 68.7603 0.470698 56.7798 0.470698C44.8179 0.470698 33.9277 0.74853 30.6108 1.15429C23.9297 1.92041 18.8579 5.25927 16.0596 13.2217L10.7661 28.2822L6.06494 33.7256C1.50146 38.9556 0 43.5693 0 51.9844ZM5.06446 64.9487L5.06446 51.9844C5.06446 45.2378 5.98194 41.7104 10.0986 36.8145L15.4819 30.4077L20.5801 15.4819C22.7334 9.21045 26.2876 6.90235 31.207 6.31983C34.2866 5.9292 44.3652 5.53516 56.7798 5.53516C69.2129 5.53516 79.2578 5.9292 82.3374 6.31983C87.2568 6.90235 90.811 9.21045 92.9644 15.4819L98.0625 30.4077L103.479 36.8145C107.563 41.7104 108.48 45.2378 108.48 51.9844L108.48 64.9487C108.48 69.0181 106.615 71.564 102.279 71.564L11.2651 71.564C6.96339 71.564 5.06446 69.0181 5.06446 64.9487ZM24.2969 28.9116L89.2476 28.9116C91.3086 28.9116 92.105 27.3154 91.3877 25.3101L88.4614 16.7954C87.145 12.9404 85.1519 11.4424 81.6538 10.9912C78.2227 10.5366 70.0205 10.2402 56.7798 10.2402C43.5239 10.2402 35.3555 10.5366 31.8906 10.9912C28.4263 11.4424 26.3994 12.9404 25.083 16.7954L22.1568 25.3101C21.4732 27.3154 22.2359 28.9116 24.2969 28.9116ZM18.3277 58.1216C20.9292 58.1216 22.8438 56.2222 22.8438 53.5869L22.8438 46.0762C22.8438 43.4409 20.9292 41.5752 18.3277 41.5752C15.6773 41.5752 13.7778 43.4746 13.7778 46.0762L13.7778 53.5869C13.7778 56.1885 15.6773 58.1216 18.3277 58.1216ZM45.9067 56.0757L67.3247 56.0757C69.438 56.0757 70.7852 54.7134 70.7852 52.5024L70.7852 47.1152C70.7852 44.9194 69.438 43.6245 67.3247 43.6245L45.9067 43.6245C43.876 43.6245 42.5288 44.9194 42.5288 47.1152L42.5288 52.5024C42.5288 54.7134 43.876 56.0757 45.9067 56.0757ZM95.5386 58.1216C98.189 58.1216 100.122 56.2222 100.122 53.5869L100.122 46.0762C100.122 43.4409 98.189 41.5752 95.5386 41.5752C92.9858 41.5752 91.0376 43.5234 91.0376 46.0762L91.0376 53.5869C91.0376 56.1582 92.9858 58.1216 95.5386 58.1216ZM8.81787 89.3818L14.4097 89.3818C17.9658 89.3818 20.7222 86.6255 20.7222 83.0879L20.7222 74.5952L2.49023 72.0762L2.49023 83.0879C2.49023 86.5952 5.24658 89.3818 8.81787 89.3818ZM99.1348 89.3818L104.76 89.3818C108.332 89.3818 111.054 86.6255 111.054 83.0879L111.054 72.0762L92.856 74.5952L92.856 83.0879C92.856 86.6255 95.5786 89.3818 99.1348 89.3818Z" fill="#000000" fill-opacity="0.85"/>
 </g>
</svg>
