<?xml version="1.0" encoding="UTF-8"?>
<!--Generator: Apple Native CoreSVG 232.5-->
<!DOCTYPE svg
PUBLIC "-//W3C//DTD SVG 1.1//EN"
       "http://www.w3.org/Graphics/SVG/1.1/DTD/svg11.dtd">
<svg version="1.1" xmlns="http://www.w3.org/2000/svg" xmlns:xlink="http://www.w3.org/1999/xlink" width="93.353" height="115.663">
 <g>
  <rect height="115.663" opacity="0" width="93.353" x="0" y="0"/>
  <path d="M46.6841 104.039C56.4785 104.039 69.0308 103.682 77.8906 103.145L77.8906 109.712C77.8906 112.581 80.1553 114.845 83.043 114.845L88.167 114.845C91.0698 114.845 93.353 112.581 93.353 109.712L93.353 87.2833C93.353 80.3785 91.8648 76.7516 88.396 72.2994L84.936 67.8966C83.5166 60.6851 80.8648 53.1353 79.4976 50.2057C77.3154 45.71 73.2593 43.2179 68.3003 42.6134C65.6333 42.2564 56.5059 42.0426 46.6841 42.0426C36.8623 42.0426 27.7349 42.2564 25.0527 42.6134C20.1089 43.2179 16.0039 45.71 13.8706 50.2057C12.5034 53.1353 9.85156 60.6851 8.41699 67.8966L4.95703 72.2994C1.50342 76.7516 0 80.3785 0 87.2833L0 109.712C0 112.581 2.2832 114.845 5.18604 114.845L10.3101 114.845C13.2129 114.845 15.4624 112.581 15.4624 109.712L15.4624 103.145C24.3374 103.682 36.8897 104.039 46.6841 104.039ZM15.9224 64.7428C16.9712 59.8487 18.8638 54.4537 20.167 52.1891C21.3169 50.1939 22.731 49.1251 25.273 48.7833C28.3608 48.3775 35.2993 48.1637 46.6841 48.1637C58.0537 48.1637 64.9922 48.3101 68.0952 48.7833C70.6372 49.1251 72.0024 50.1939 73.2012 52.1891C74.523 54.42 76.2808 59.8487 77.4307 64.7428C77.7456 66.026 77.2471 66.7179 75.7637 66.6016C68.9263 66.1319 61.2129 65.7716 46.6841 65.7716C32.1401 65.7716 24.4419 66.1319 17.6045 66.6016C16.106 66.7179 15.6411 66.026 15.9224 64.7428ZM17.8755 93.1905C14.5195 93.1905 11.9448 90.6007 11.9448 87.2447C11.9448 83.8551 14.5195 81.3477 17.8755 81.3477C21.2651 81.3477 23.7725 83.8551 23.7725 87.2447C23.7725 90.6007 21.2651 93.1905 17.8755 93.1905ZM36.4399 91.9576C33.9023 91.9576 32.1797 90.235 32.1797 87.7428C32.1797 85.2052 33.9023 83.5162 36.4399 83.5162L56.9282 83.5162C59.4507 83.5162 61.1734 85.2052 61.1734 87.7428C61.1734 90.235 59.4507 91.9576 56.9282 91.9576ZM75.4775 93.1905C72.0879 93.1905 69.5806 90.6007 69.5806 87.2447C69.5806 83.8551 72.0879 81.3477 75.4775 81.3477C78.8486 81.3477 81.3745 83.8551 81.3745 87.2447C81.3745 90.6007 78.8486 93.1905 75.4775 93.1905Z" fill="#000000" fill-opacity="0.85"/>
  <path d="M46.2769 25.4356C35.4912 25.4356 25.7881 21.4859 18.4185 14.6251C16.9312 13.3062 15.1694 12.9088 13.8018 14.0928C12.4189 15.2921 12.4189 17.3907 13.9702 18.8072C22.4902 26.8858 33.8574 31.5328 46.2769 31.5328C58.6963 31.5328 70.0972 26.8858 78.5835 18.8072C80.1533 17.3907 80.1533 15.2921 78.7368 14.0928C77.418 12.9088 75.6563 13.3062 74.1353 14.6251C66.7842 21.4859 57.0962 25.4356 46.2769 25.4356Z" fill="#000000" fill-opacity="0.85"/>
  <path d="M46.4653 6.17341C41.0391 6.17341 36.2373 4.29304 32.311 1.19197C30.6924 0.0264356 29.0283-0.490656 27.6943 0.678293C26.2778 1.91121 26.2441 4.14461 27.915 5.47518C32.9312 9.79891 39.439 12.2706 46.4653 12.2706C53.4917 12.2706 59.9995 9.79891 65.0156 5.47518C66.6865 4.14461 66.6528 1.91121 65.2363 0.678293C63.9024-0.490656 62.1743-0.0375291 60.6196 1.19197C56.9761 4.56061 51.8916 6.17341 46.4653 6.17341Z" fill="#000000" fill-opacity="0.85"/>
 </g>
</svg>
