<?xml version="1.0" encoding="UTF-8"?>
<!--Generator: Apple Native CoreSVG 232.5-->
<!DOCTYPE svg
PUBLIC "-//W3C//DTD SVG 1.1//EN"
       "http://www.w3.org/Graphics/SVG/1.1/DTD/svg11.dtd">
<svg version="1.1" xmlns="http://www.w3.org/2000/svg" xmlns:xlink="http://www.w3.org/1999/xlink" width="107.864" height="121.34">
 <g>
  <rect height="121.34" opacity="0" width="107.864" x="0" y="0"/>
  <path d="M53.9243 121.276C76.7056 121.276 87.2642 115.917 87.2642 103.952L87.2642 21.1392C87.2642 7.74415 75.0967 0 53.9243 0C32.8159 0 20.6148 7.74415 20.6148 21.1392L20.6148 103.952C20.6148 115.917 31.207 121.276 53.9243 121.276ZM53.9243 115.078C35.5611 115.078 26.8467 111.51 26.8467 103.698L26.8467 21.1392C26.8467 11.6753 36.7471 6.23195 53.9243 6.23195C71.1655 6.23195 81.0322 11.6753 81.0322 21.1392L81.0322 103.698C81.0322 111.51 72.3516 115.078 53.9243 115.078ZM53.9883 50.5191C58.1826 50.5191 65.9678 50.8911 68.3789 50.8911C72.0142 50.8911 73.6372 49.4902 73.979 45.6665L74.6997 37.168C75.3194 30.3032 71.1294 27.3198 53.9883 27.3198C36.8135 27.3198 32.6236 30.3032 33.228 37.168L33.9639 45.6665C34.2905 49.4902 35.9473 50.8911 39.5489 50.8911C42.0088 50.8911 49.168 50.5191 53.9883 50.5191ZM53.9883 102.331C70.3643 102.331 75.2725 99.9653 74.3833 92.9844L73.8394 88.647C73.1489 82.9541 68.4024 81.0615 53.9883 81.0615C39.5254 81.0615 34.7788 82.9541 34.1035 88.647L33.5445 92.9844C32.6553 99.9653 37.5786 102.331 53.9883 102.331ZM23.3384 70.2207L0.899416 92.4375C-0.299805 93.6367-0.299805 95.6529 0.899416 96.8706C2.10206 98.0699 4.09962 98.1035 5.33253 96.8706L23.3384 78.9859Z" fill="#000000" fill-opacity="0.85"/>
 </g>
</svg>
