<?xml version="1.0" encoding="UTF-8"?>
<!--Generator: Apple Native CoreSVG 232.5-->
<!DOCTYPE svg
PUBLIC "-//W3C//DTD SVG 1.1//EN"
       "http://www.w3.org/Graphics/SVG/1.1/DTD/svg11.dtd">
<svg version="1.1" xmlns="http://www.w3.org/2000/svg" xmlns:xlink="http://www.w3.org/1999/xlink" width="169.152" height="75.3106">
 <g>
  <rect height="75.3106" opacity="0" width="169.152" x="0" y="0"/>
  <path d="M50.646 61.4131C50.646 68.8701 44.7632 74.7529 37.2876 74.7529C29.8643 74.7529 23.9629 68.8364 23.9629 61.4131C23.9629 53.9712 29.8643 48.0547 37.2876 48.0547C44.7295 48.0547 50.646 53.9712 50.646 61.4131ZM147.962 61.4131C147.962 68.8364 142.045 74.7529 134.588 74.7529C127.18 74.7529 121.264 68.8364 121.264 61.4131C121.264 54.0049 127.214 48.0547 134.588 48.0547C142.045 48.0547 147.962 53.9712 147.962 61.4131ZM148.808 18.2534L158.927 21.148C166.844 23.5107 169.152 28.625 169.152 35.2036L169.152 54.7266C169.152 61.499 165.233 65.5488 158.671 65.5488L152.499 65.5488C152.795 64.2202 152.96 62.8579 152.96 61.4131C152.96 51.1421 144.875 43.0415 134.588 43.0415C124.351 43.0415 116.217 51.1421 116.217 61.4131C116.217 62.8579 116.431 64.2202 116.678 65.5488L55.1978 65.5488C55.479 64.2202 55.6592 62.8579 55.6592 61.4131C55.6592 51.1421 47.5586 43.0415 37.2876 43.0415C27.0352 43.0415 18.916 51.1421 18.916 61.4131C18.916 62.8579 19.1148 64.2202 19.3774 65.5488L12.063 65.5488C4.07862 65.5488 0 61.3877 0 53.1929L0 43.8428C0 32.9331 7.32325 25.7144 19.9068 24.1753L41.98 21.478L61.5518 9.18506C73.2759 1.84717 80.9356 0 100.689 0L111.998 0C132.012 0 142.733 10.9121 148.808 18.2534ZM83.8081 31.4443L73.1973 48.854C72.0235 50.7554 72.9194 52.6768 75.208 52.6768L97.0459 52.6768C99.3008 52.6768 100.249 50.8042 99.0904 48.918L88.4004 31.4443C87.2637 29.5986 84.96 29.5498 83.8081 31.4443Z" fill="#000000" fill-opacity="0.85"/>
 </g>
</svg>
