<?xml version="1.0" encoding="UTF-8"?>
<!--Generator: Apple Native CoreSVG 232.5-->
<!DOCTYPE svg
PUBLIC "-//W3C//DTD SVG 1.1//EN"
       "http://www.w3.org/Graphics/SVG/1.1/DTD/svg11.dtd">
<svg version="1.1" xmlns="http://www.w3.org/2000/svg" xmlns:xlink="http://www.w3.org/1999/xlink" width="93.1831" height="115.663">
 <g>
  <rect height="115.663" opacity="0" width="93.1831" x="0" y="0"/>
  <path d="M46.5596 104.393C59.7891 104.393 77.3672 103.709 84.7891 102.83C90.063 102.241 93.1831 99.4303 93.1831 94.2491L93.1831 87.046C93.1831 80.1412 91.5855 76.3795 88.1621 71.9762L84.8486 67.7232C83.3989 60.628 80.7959 53.2852 79.4287 50.4044C77.2769 45.7774 73.0069 43.2818 67.9956 42.6285C65.3135 42.253 56.5044 42.0426 46.5596 42.0426C36.6147 42.0426 27.8394 42.2867 25.1572 42.6285C20.146 43.2481 15.876 45.7774 13.7241 50.4044C12.3232 53.2852 9.76904 60.628 8.27051 67.7232L4.99072 71.9762C1.53369 76.3795 0 80.1412 0 87.046L0 94.2491C0 99.4303 3.08985 102.241 8.36377 102.83C15.7856 103.709 33.3638 104.393 46.5596 104.393ZM46.5596 99.1598C33.293 99.1598 16.0518 98.6041 9.45362 97.7774C6.27833 97.3717 5.23292 96.0904 5.23292 93.2164L5.23292 87.046C5.23292 81.7154 5.99562 79.1749 9.09522 75.1358L13.106 69.901C14.2373 63.7711 16.874 56.024 18.4097 52.732C19.7363 49.9322 22.1118 48.2857 25.7383 47.8497C28.2319 47.5567 36.3052 47.2115 46.5596 47.2115C56.8477 47.2115 65.0557 47.5567 67.3286 47.8497C71.041 48.3194 73.4165 49.9659 74.7583 52.732C76.3125 56.024 78.8818 63.7711 80.0283 69.901L84.0576 75.1358C87.1724 79.1749 87.9502 81.7154 87.9502 87.046L87.9502 93.2164C87.9502 96.0904 86.8745 97.4205 83.6992 97.7774C77.1011 98.525 59.875 99.1598 46.5596 99.1598ZM17.4605 66.3434C17.1826 67.5592 17.6441 68.2662 19.1426 68.1197C25.6802 67.6651 33.0903 67.3536 46.5596 67.3536C60.0439 67.3536 67.4878 67.6651 74.0254 68.1197C75.4751 68.2662 75.9702 67.5592 75.6924 66.3434C74.5947 61.5992 72.8672 56.5645 71.6128 54.3336C70.4814 52.4244 69.1162 51.4195 66.6567 51.0963C63.6699 50.6905 57.0161 50.4581 46.5596 50.4581C36.1367 50.4581 29.4492 50.6905 26.4775 51.0963C24.0518 51.4195 22.6226 52.4244 21.5552 54.3336C20.3496 56.5645 18.5581 61.5992 17.4605 66.3434ZM17.9092 92.8707C21.2651 92.8707 23.7388 90.3297 23.7388 87.0074C23.7388 83.6666 21.2651 81.193 17.9092 81.193C14.6021 81.193 12.0947 83.6666 12.0947 87.0074C12.0947 90.3297 14.6021 92.8707 17.9092 92.8707ZM36.1773 91.6866L56.9419 91.6866C59.4492 91.6866 61.1382 89.9976 61.1382 87.4903C61.1382 85.0352 59.4492 83.3614 56.9419 83.3614L36.1773 83.3614C33.7036 83.3614 32.0147 85.0352 32.0147 87.4903C32.0147 89.9976 33.7036 91.6866 36.1773 91.6866ZM75.21 92.8707C78.5508 92.8707 81.0581 90.3297 81.0581 87.0074C81.0581 83.6666 78.5508 81.193 75.21 81.193C71.8877 81.193 69.4141 83.6666 69.4141 87.0074C69.4141 90.3297 71.8877 92.8707 75.21 92.8707ZM7.58057 114.845L12.3472 114.845C15.2012 114.845 17.4356 112.611 17.4356 109.775L17.4356 100.987L2.57471 98.9264L2.57471 109.775C2.57471 112.581 4.77539 114.845 7.58057 114.845ZM80.7686 114.845L85.5352 114.845C88.374 114.845 90.541 112.581 90.541 109.775L90.541 98.9264L75.6651 100.987L75.6651 109.775C75.6651 112.611 77.8994 114.845 80.7686 114.845Z" fill="#000000" fill-opacity="0.85"/>
  <path d="M46.1524 25.4356C35.3667 25.4356 25.645 21.4859 18.294 14.6251C16.8067 13.3062 15.0449 12.9088 13.6924 14.0928C12.3096 15.2921 12.3096 17.3907 13.8457 18.8072C22.3472 26.8858 33.7481 31.5328 46.1524 31.5328C58.5718 31.5328 69.9727 26.8858 78.459 18.8072C80.044 17.3907 80.044 15.2921 78.6275 14.0928C77.2935 12.9088 75.5132 13.3062 74.0107 14.6251C66.6748 21.4859 56.9717 25.4356 46.1524 25.4356Z" fill="#000000" fill-opacity="0.85"/>
  <path d="M46.356 6.17341C40.9146 6.17341 36.1128 4.29304 32.1865 1.19197C30.583 0.0264356 28.9038-0.490656 27.585 0.678293C26.1685 1.91121 26.1348 4.14461 27.8057 5.47518C32.8066 9.79891 39.3296 12.2706 46.356 12.2706C53.3823 12.2706 59.8901 9.79891 64.8911 5.47518C66.5435 4.14461 66.5098 1.91121 65.127 0.678293C63.793-0.490656 62.0649-0.0375291 60.5103 1.19197C56.8179 4.56061 51.7822 6.17341 46.356 6.17341Z" fill="#000000" fill-opacity="0.85"/>
 </g>
</svg>
