<?xml version="1.0" encoding="UTF-8"?>
<!--Generator: Apple Native CoreSVG 232.5-->
<!DOCTYPE svg
PUBLIC "-//W3C//DTD SVG 1.1//EN"
       "http://www.w3.org/Graphics/SVG/1.1/DTD/svg11.dtd">
<svg version="1.1" xmlns="http://www.w3.org/2000/svg" xmlns:xlink="http://www.w3.org/1999/xlink" width="128.82" height="131.552">
 <g>
  <rect height="131.552" opacity="0" width="128.82" x="0" y="0"/>
  <path d="M38.3862 64.6867L47.4346 67.3034C48.6235 67.6595 49.6734 68.0835 50.5855 68.5761L55.4273 73.4188C56.3619 75.3309 56.7212 77.5513 56.7212 79.9933L56.7212 97.5968C56.7212 103.731 53.148 107.368 47.209 107.368L39.4101 107.368C37.5663 113.16 32.2105 117.276 25.7241 117.276C19.2256 117.276 13.8674 113.16 12.0231 107.368L0 107.368L0 101.814L11.3724 101.814C11.8828 94.2248 17.9974 88.4655 25.7241 88.4655C33.4364 88.4655 39.5503 94.2248 40.0607 101.814L46.3633 101.814C49.4492 101.814 51.1665 99.8791 51.1665 96.4294L51.1665 79.9933C51.1665 76.4006 49.8047 73.9777 45.8462 72.9523L35.2066 70.196C26.8872 58.7448 17.1587 53.8132 5.19581 53.8132L0 53.8132L0 48.2585L5.19581 48.2585C23.2422 48.2585 32.9155 58.0812 38.3862 64.6867ZM72.8379 90.8326L72.8379 95.6335C72.8379 99.8302 74.6343 101.814 78.4859 101.814L83.817 101.814L99.1318 117.131C93.5419 116.408 89.0638 112.562 87.4112 107.368L78.2315 107.368C71.0469 107.368 67.2832 103.571 67.2832 96.2248L67.2832 87.7873C67.2832 86.9751 67.3285 86.1855 67.4344 85.4281ZM16.8755 102.872C16.8755 107.861 20.7173 111.721 25.7241 111.721C30.7158 111.721 34.5576 107.861 34.5576 102.872C34.5576 97.8654 30.7158 94.0202 25.7241 94.0202C20.7173 94.0202 16.8755 97.8654 16.8755 102.872ZM115.419 101.814L128.82 101.814L128.82 107.368L114.771 107.368C114.546 108.1 114.259 108.802 113.911 109.465L109.619 105.173C109.816 104.446 109.916 103.673 109.916 102.872C109.916 97.8654 106.07 94.0202 101.097 94.0202C100.285 94.0202 99.504 94.1208 98.7705 94.3205L94.4843 90.0328C96.4489 89.024 98.6956 88.4655 101.097 88.4655C108.824 88.4655 114.911 94.2248 115.419 101.814ZM128.82 59.4538C127.817 60.006 126.78 60.6525 125.682 61.3478L106.999 72.9372L86.003 75.4948C84.1864 75.7193 82.5423 76.0998 81.0919 76.636L76.8566 72.3994C79.2601 71.2129 82.101 70.4111 85.3208 70.0226L105.151 67.5998L122.785 56.5124C124.868 55.1838 126.869 54.069 128.82 53.1193ZM56.4141 10.8834L66.8775 21.6095L68.8897 13.2189C69.2315 11.8888 70.4859 11.9494 70.794 13.1886L73.02 21.6584L82.1885 13.0236C83.086 12.0959 84.1939 13.0119 83.8033 14.1012L78.1641 30.1364L85.9956 33.3727C86.7315 33.6657 86.7315 34.7096 85.9654 34.9538L77.0713 37.6193L85.8155 53.9323C86.5513 55.2726 85.1773 56.362 84.0205 55.3366L69.2769 42.11L60.7213 56.2587L58.7496 54.2863L58.625 44.4977L50.7488 46.2829L47.6615 43.1946L54.8062 38.3703L46.9863 37.7809C45.5855 37.6681 45.3901 36.2301 46.7085 35.7267L53.7403 33.1588L41.9214 25.984C40.667 25.2179 41.1484 23.7311 42.5899 23.9601L55.1294 25.6945L52.4942 22.256C51.6153 21.0993 52.5244 20.2018 53.6509 20.7726L58.4937 22.9162L54.7505 11.9274C54.3111 10.6056 55.5015 9.93716 56.4141 10.8834Z" fill="#000000" fill-opacity="0.85"/>
  <path d="M114.76 125.64C115.907 126.806 117.74 126.836 118.902 125.64C120.015 124.478 120.034 122.679 118.902 121.514L16.7188 19.3459C15.5835 18.1955 13.7695 18.1838 12.5586 19.3459C11.4605 20.444 11.3931 22.3068 12.5586 23.4723Z" fill="#000000" fill-opacity="0.85"/>
 </g>
</svg>
