<?xml version="1.0" encoding="UTF-8"?>
<!--Generator: Apple Native CoreSVG 232.5-->
<!DOCTYPE svg
PUBLIC "-//W3C//DTD SVG 1.1//EN"
       "http://www.w3.org/Graphics/SVG/1.1/DTD/svg11.dtd">
<svg version="1.1" xmlns="http://www.w3.org/2000/svg" xmlns:xlink="http://www.w3.org/1999/xlink" width="152.751" height="95.0713">
 <g>
  <rect height="95.0713" opacity="0" width="152.751" x="0" y="0"/>
  <path d="M0 58.4453C0 60.7339 1.92139 61.6299 3.82276 60.4561L21.2476 49.8789C23.127 48.6934 23.0781 46.4233 21.2476 45.2529L3.77393 34.563C1.87256 33.4043 0 34.3525 0 36.6074ZM152.751 58.4453L152.751 36.6074C152.751 34.3525 150.878 33.438 148.943 34.563L131.503 45.2529C129.657 46.4419 129.608 48.6597 131.503 49.8789L148.928 60.4561C150.848 61.5962 152.751 60.7339 152.751 58.4453Z" fill="#000000" fill-opacity="0.85"/>
  <path d="M30.9473 25.3779L33.0811 25.3779C34.3023 25.3779 35.19 24.4751 35.19 23.2539L35.19 2.17286C35.19 0.951663 34.3023 0.0488281 33.0811 0.0488281L30.9473 0.0488281C29.7261 0.0488281 28.8384 0.951663 28.8384 2.17286L28.8384 23.2539C28.8384 24.4751 29.7261 25.3779 30.9473 25.3779ZM30.9473 60.2002L33.0811 60.2002C34.3023 60.2002 35.19 59.3125 35.19 58.0913L35.19 37.0288C35.19 35.8076 34.3023 34.9199 33.0811 34.9199L30.9473 34.9199C29.7261 34.9199 28.8384 35.8076 28.8384 37.0288L28.8384 58.0913C28.8384 59.3125 29.7261 60.2002 30.9473 60.2002ZM30.9473 95.0713L33.0811 95.0713C34.3023 95.0713 35.19 94.1836 35.19 92.981L35.19 71.8662C35.19 70.645 34.3023 69.7573 33.0811 69.7573L30.9473 69.7573C29.7261 69.7573 28.8384 70.645 28.8384 71.8662L28.8384 92.981C28.8384 94.1836 29.7261 95.0713 30.9473 95.0713ZM119.636 25.3779L121.788 25.3779C123.024 25.3779 123.912 24.4751 123.912 23.2539L123.912 2.17286C123.912 0.951663 123.024 0.0488281 121.788 0.0488281L119.636 0.0488281C118.433 0.0488281 117.545 0.951663 117.545 2.17286L117.545 23.2539C117.545 24.4751 118.433 25.3779 119.636 25.3779ZM119.636 60.2002L121.788 60.2002C123.024 60.2002 123.912 59.3125 123.912 58.0913L123.912 37.0288C123.912 35.8076 123.024 34.9199 121.788 34.9199L119.636 34.9199C118.433 34.9199 117.545 35.8076 117.545 37.0288L117.545 58.0913C117.545 59.3125 118.433 60.2002 119.636 60.2002ZM119.636 95.0713L121.788 95.0713C123.024 95.0713 123.912 94.1836 123.912 92.981L123.912 71.8662C123.912 70.645 123.024 69.7573 121.788 69.7573L119.636 69.7573C118.433 69.7573 117.545 70.645 117.545 71.8662L117.545 92.981C117.545 94.1836 118.433 95.0713 119.636 95.0713ZM76.3247 92.4038C93.0801 92.4038 101.222 88.3613 101.222 78.688L101.222 37.2774L103.175 37.2774C105.221 37.2774 106.737 35.856 106.703 33.9986L106.669 32.1382C106.602 30.2471 105.221 28.8291 103.142 28.8291L101.222 28.8291L101.222 18.5791C101.222 8.52199 91.98 2.66408 76.3584 2.69777C60.8194 2.69777 51.5586 8.4883 51.5586 18.5791L51.5586 28.8291L49.6392 28.8291C47.5747 28.8291 46.1753 30.2471 46.1416 32.1045L46.1079 33.9986C46.0742 35.856 47.5747 37.2774 49.6206 37.2774L51.5586 37.2774L51.5586 78.688C51.5586 88.3613 59.667 92.4038 76.3247 92.4038ZM76.3584 87.0024C63.0137 86.9687 57.0459 84.4824 57.0459 78.5532L57.0459 18.6128C57.0459 11.9292 63.792 8.13626 76.3247 8.13626C88.9736 8.13626 95.7837 11.9292 95.7837 18.5791L95.7837 78.5532C95.7837 84.4824 89.752 86.9687 76.3584 87.0024ZM76.3736 40.3892C79.5103 40.4229 85.2764 40.7124 87.0274 40.7461C89.7852 40.7461 91.1489 39.5928 91.4082 36.6094L91.9302 30.4282C92.3696 25.1802 89.3638 22.9546 76.4072 22.9209C63.4507 22.9209 60.3775 25.1802 60.8506 30.4619L61.4063 36.5757C61.6807 39.5928 62.9434 40.7461 65.7534 40.7124C67.5381 40.7461 72.8179 40.4229 76.3736 40.3892ZM76.3736 78.606C88.6001 78.5874 92.4019 76.8179 91.6929 71.4048L91.2988 68.2227C90.7246 63.835 87.2041 62.4409 76.4072 62.4746C65.5767 62.4409 62.0562 63.8687 61.4971 68.2227L61.1031 71.3711C60.3452 76.8516 64.1807 78.5874 76.3736 78.606Z" fill="#000000" fill-opacity="0.85"/>
 </g>
</svg>
