<?xml version="1.0" encoding="UTF-8"?>
<!--Generator: Apple Native CoreSVG 232.5-->
<!DOCTYPE svg
PUBLIC "-//W3C//DTD SVG 1.1//EN"
       "http://www.w3.org/Graphics/SVG/1.1/DTD/svg11.dtd">
<svg version="1.1" xmlns="http://www.w3.org/2000/svg" xmlns:xlink="http://www.w3.org/1999/xlink" width="116.565" height="91.3955">
 <g>
  <rect height="91.3955" opacity="0" width="116.565" x="0" y="0"/>
  <path d="M23.898 91.3281L87.8203 91.3281C104.003 91.3281 116.565 79.104 116.565 63.5796C116.565 47.8633 103.668 36.0566 86.3335 36.0869C79.8848 23.0601 68.3037 14.9565 53.3814 14.9565C34.6782 14.9565 18.9922 29.8052 17.3286 49.1362C7.59326 51.8286 0.592774 59.7441 0.592774 70.2017C0.592774 81.8687 9.1211 91.3281 23.898 91.3281ZM23.8306 85.2983C12.9883 85.2983 6.65285 79.0459 6.65285 70.355C6.65285 62.7334 11.6748 57.0835 20.0542 54.8931C22.3648 54.2852 23.1934 53.2578 23.3433 50.9858C24.4546 34.085 37.6895 20.9863 53.3814 20.9863C66.1445 20.9863 75.6689 28.165 81.1831 39.5469C82.1396 41.5913 83.3437 42.2852 85.8682 42.2852C100.955 42.2852 110.505 51.9375 110.505 63.7446C110.505 75.727 100.708 85.2983 88.1758 85.2983ZM6.76025 44.1611C10.4746 44.1611 13.4414 41.1943 13.4414 37.4312C13.4414 33.7168 10.4746 30.7349 6.76025 30.7349C2.99707 30.7349 0 33.7168 0 37.4312C0 41.1943 2.99707 44.1611 6.76025 44.1611ZM78.2061 12.6753C81.6611 12.6753 84.5269 9.82471 84.5269 6.35449C84.5269 2.88428 81.6611 0 78.2061 0C74.7358 0 71.9004 2.88428 71.9004 6.35449C71.9004 9.82471 74.7358 12.6753 78.2061 12.6753ZM98.4902 29.3276C103.688 29.3276 107.891 25.1553 107.891 19.8447C107.891 14.5981 103.688 10.4106 98.4902 10.4106C93.1797 10.4106 88.9434 14.5981 88.9434 19.8447C88.9434 25.1553 93.1797 29.3276 98.4902 29.3276Z" fill="#000000" fill-opacity="0.85"/>
  <path d="M45.5254 75.103C51.8765 75.103 55.4312 70.4224 55.8687 65.2754C55.9629 63.7329 55.0435 62.773 53.7534 62.773C52.561 62.773 51.9346 63.4668 51.6045 64.8696C50.9312 68.1772 49.2544 71.0713 45.5254 71.0713C40.0254 71.0713 38.315 65.1235 38.315 59.0693C38.315 53.1602 40.1382 47.2627 45.5068 47.2627C49.2207 47.2627 50.7812 50.1231 51.5186 53.4307C51.8335 54.8486 52.46 55.5274 53.6675 55.5274C54.9575 55.5274 55.8618 54.6011 55.7676 53.0249C55.3452 47.8779 51.7754 43.231 45.4395 43.231C37.4502 43.231 33.9277 50.4673 33.9277 59.0693C33.9277 67.419 37.1387 75.103 45.5254 75.103ZM69.2642 75.103C76.314 75.103 80.7759 68.897 80.7759 59.1519C80.7759 49.3731 76.314 43.231 69.2188 43.231C62.1504 43.231 57.6397 49.3731 57.6397 59.1519C57.6397 68.897 62.1504 75.103 69.2642 75.103ZM69.2642 71.0713C64.8618 71.0713 62.0908 66.5864 62.0908 59.1519C62.0908 51.7476 64.8316 47.2627 69.2188 47.2627C73.6025 47.2627 76.3433 51.7476 76.3433 59.1519C76.3433 66.5864 73.6177 71.0713 69.2642 71.0713Z" fill="#000000" fill-opacity="0.85"/>
 </g>
</svg>
