<?xml version="1.0" encoding="UTF-8"?>
<!--Generator: Apple Native CoreSVG 232.5-->
<!DOCTYPE svg
PUBLIC "-//W3C//DTD SVG 1.1//EN"
       "http://www.w3.org/Graphics/SVG/1.1/DTD/svg11.dtd">
<svg version="1.1" xmlns="http://www.w3.org/2000/svg" xmlns:xlink="http://www.w3.org/1999/xlink" width="116.565" height="91.3955">
 <g>
  <rect height="91.3955" opacity="0" width="116.565" x="0" y="0"/>
  <path d="M23.898 91.3281L87.8203 91.3281C104.003 91.3281 116.565 79.104 116.565 63.5796C116.565 47.8633 103.668 36.0566 86.3335 36.0869C79.8848 23.0601 68.3037 14.9565 53.3814 14.9565C34.6782 14.9565 18.9922 29.8052 17.3286 49.1362C7.59326 51.8286 0.592774 59.7441 0.592774 70.2017C0.592774 81.8687 9.1211 91.3281 23.898 91.3281ZM23.8306 85.2983C12.9883 85.2983 6.65285 79.0459 6.65285 70.355C6.65285 62.7334 11.6748 57.0835 20.0542 54.8931C22.3648 54.2852 23.1934 53.2578 23.3433 50.9858C24.4546 34.085 37.6895 20.9863 53.3814 20.9863C66.1445 20.9863 75.6689 28.165 81.1831 39.5469C82.1396 41.5913 83.3437 42.2852 85.8682 42.2852C100.955 42.2852 110.505 51.9375 110.505 63.7446C110.505 75.727 100.708 85.2983 88.1758 85.2983ZM6.76025 44.1611C10.4746 44.1611 13.4414 41.1943 13.4414 37.4312C13.4414 33.7168 10.4746 30.7349 6.76025 30.7349C2.99707 30.7349 0 33.7168 0 37.4312C0 41.1943 2.99707 44.1611 6.76025 44.1611ZM78.2061 12.6753C81.6611 12.6753 84.5269 9.82471 84.5269 6.35449C84.5269 2.88428 81.6611 0 78.2061 0C74.7358 0 71.9004 2.88428 71.9004 6.35449C71.9004 9.82471 74.7358 12.6753 78.2061 12.6753ZM98.4902 29.3276C103.688 29.3276 107.891 25.1553 107.891 19.8447C107.891 14.5981 103.688 10.4106 98.4902 10.4106C93.1797 10.4106 88.9434 14.5981 88.9434 19.8447C88.9434 25.1553 93.1797 29.3276 98.4902 29.3276Z" fill="#000000" fill-opacity="0.85"/>
  <path d="M42.1362 75.103C48.4385 75.103 52.042 70.4224 52.4307 65.2754C52.5249 63.7329 51.6206 62.773 50.3643 62.773C49.1567 62.773 48.4966 63.4668 48.1816 64.8696C47.5083 68.1772 45.8501 71.0713 42.1362 71.0713C36.6026 71.0713 34.877 65.1235 34.877 59.0693C34.877 53.1602 36.7153 47.2627 42.1025 47.2627C45.8164 47.2627 47.3921 50.1231 48.0806 53.4307C48.3955 54.8486 49.0708 55.5274 50.2632 55.5274C51.5195 55.5274 52.4238 54.6011 52.3296 53.0249C51.9409 47.8779 48.3525 43.231 42.0352 43.231C34.0122 43.231 30.4898 50.4673 30.4898 59.0693C30.4898 67.419 33.7344 75.103 42.1362 75.103ZM65.875 75.103C72.9097 75.103 77.353 68.897 77.353 59.1519C77.353 49.3731 72.9097 43.231 65.7959 43.231C58.7124 43.231 54.2505 49.3731 54.2505 59.1519C54.2505 68.897 58.7124 75.103 65.875 75.103ZM65.875 71.0713C61.4238 71.0713 58.668 66.5864 58.668 59.1519C58.668 51.7476 61.4087 47.2627 65.7959 47.2627C70.1982 47.2627 72.9541 51.7476 72.9541 59.1519C72.9541 66.5864 70.2285 71.0713 65.875 71.0713ZM80.6548 76.9199L88.5952 76.9199C89.4658 76.9199 90.1714 76.147 90.1714 75.2764C90.1714 74.4243 89.4321 73.6851 88.5952 73.6851L84.2603 73.6851L86.1255 71.6011C87.9878 69.6665 89.4155 67.7993 89.4155 65.8311C89.4155 63.127 87.2754 61.1704 84.2412 61.1704C81.0269 61.1704 79.0366 63.585 79.0366 65.8511C79.0366 66.8901 79.8096 67.562 80.6953 67.562C81.7007 67.562 82.1773 66.853 82.4097 66.1846C82.7178 64.9995 83.312 64.4053 84.29 64.4053C85.2647 64.4053 85.8926 65.0635 85.8926 65.8833C85.8926 67.1123 84.8032 68.3364 83.5625 69.6831L79.7271 73.8887C79.3784 74.2524 79.1309 74.8486 79.1309 75.3589C79.1309 76.2598 79.7876 76.9199 80.6548 76.9199Z" fill="#000000" fill-opacity="0.85"/>
 </g>
</svg>
