<?xml version="1.0" encoding="UTF-8"?>
<!--Generator: Apple Native CoreSVG 232.5-->
<!DOCTYPE svg
PUBLIC "-//W3C//DTD SVG 1.1//EN"
       "http://www.w3.org/Graphics/SVG/1.1/DTD/svg11.dtd">
<svg version="1.1" xmlns="http://www.w3.org/2000/svg" xmlns:xlink="http://www.w3.org/1999/xlink" width="133.682" height="101.075">
 <g>
  <rect height="101.075" opacity="0" width="133.682" x="0" y="0"/>
  <path d="M132.936 81.1187C136.561 67.4121 126.643 61.5337 102.095 61.5337C89.448 61.5337 76.6311 62.7275 66.4514 64.7969L67.8611 66.7539C70.3347 45.0942 63.4031 26.436 49.4324 19.0996L50.5305 23.6978C55.0779 8.62892 45.9812 0 37.4573 0C30.9861 0 25.4461 4.92383 28.1067 15.8106L46.3904 90.2315C48.0911 97.1621 52.804 100.993 59.637 100.993L114.712 100.993C124.18 100.993 128.957 96.3706 132.936 81.1187Z" fill="#000000" fill-opacity="0.85"/>
  <path d="M24.7229 48.6016L19.281 27.4995C18.7034 25.2934 16.5984 24.8403 15.0759 26.4604L0.895759 41.1914C-0.668696 42.7407-0.12475 44.9922 2.06617 45.6187L21.5115 51.5049C23.6941 52.1802 25.3005 50.8076 24.7229 48.6016Z" fill="#000000" fill-opacity="0.85"/>
  <path d="M75.3523 31.9267C75.9451 34.1665 78.0164 34.5034 79.554 32.8984L93.783 18.2651C95.3323 16.6821 94.7093 14.4643 92.6311 13.8379L73.0393 7.87254C70.9241 7.21239 69.3328 8.6035 69.9104 10.791Z" fill="#000000" fill-opacity="0.85"/>
 </g>
</svg>
