<?xml version="1.0" encoding="UTF-8"?>
<!--Generator: Apple Native CoreSVG 232.5-->
<!DOCTYPE svg
PUBLIC "-//W3C//DTD SVG 1.1//EN"
       "http://www.w3.org/Graphics/SVG/1.1/DTD/svg11.dtd">
<svg version="1.1" xmlns="http://www.w3.org/2000/svg" xmlns:xlink="http://www.w3.org/1999/xlink" width="106.843" height="101.143">
 <g>
  <rect height="101.143" opacity="0" width="106.843" x="0" y="0"/>
  <path d="M106.117 81.1524C109.742 67.4458 99.8242 61.5674 75.2754 61.5674C62.8799 61.5674 50.5229 62.6079 39.9204 64.5088L41.6855 66.7539C43.4145 45.7598 36.9092 27.4722 25.1387 19.9151L25.8999 23.6221C29.647 9.25392 21.0928 0 11.147 0C3.06687 0-1.82961 5.82179 0.644022 15.8443L18.9277 90.2652C20.6284 97.1958 25.3413 101.026 32.1406 101.026L87.8779 101.026C97.3613 101.026 102.138 96.4043 106.117 81.1524ZM100.353 79.5523C96.9248 92.7241 93.8311 94.9814 87.8779 94.9814L32.1406 94.9814C28.373 94.9814 25.7588 92.7476 24.7925 88.7695L6.40771 14.3384C5.11474 9.02345 7.50683 6.04494 11.2261 6.04494C16.6714 6.04494 21.7798 10.9868 20.5185 20.4693C20.1514 23.0025 20.3418 23.8428 21.8794 25.0083C31.5024 31.4351 36.957 47.7588 36.1426 66.4058C36.0972 68.9907 37.665 70.5469 40.2197 70.4072C47.0122 69.5625 59.5273 67.6123 75.2754 67.6123C96.2266 67.6123 102.559 71.0586 100.353 79.5523Z" fill="#000000" fill-opacity="0.85"/>
  <path d="M83.168 43.4365C91.5703 43.4365 97.3491 38.7944 97.3491 32.0205C97.3491 27.0669 93.544 23.0479 88.3985 22.4282L88.3985 22.4736C92.6431 21.7295 95.9668 17.8081 95.9668 13.3125C95.9668 7.48829 90.7066 3.19971 83.3735 3.19971C76.9209 3.19971 71.7383 6.38038 70.6504 11.4233C70.5679 11.9336 70.5342 12.3394 70.5342 12.9507C70.5342 14.3233 71.5127 15.3018 72.9409 15.3018C74.2461 15.3018 75.041 14.6904 75.4116 13.355C76.188 9.88673 79.2588 7.74367 83.3062 7.74367C87.771 7.74367 90.7407 10.1275 90.7407 13.8447C90.7407 17.6143 87.5049 20.4409 83.2622 20.4409L80.2437 20.4409C78.9502 20.4409 77.9751 21.3521 77.9751 22.6758C77.9751 23.9844 78.9048 24.9292 80.2437 24.9292L83.5518 24.9292C88.5488 24.9292 92.1079 27.7861 92.1079 31.8521C92.1079 36.0171 88.5151 38.8286 83.2354 38.8286C78.9253 38.8286 75.5869 36.7344 74.585 33.2324C74.1167 31.9912 73.3101 31.4438 72.1294 31.4438C70.7651 31.4438 69.7227 32.3921 69.7227 33.8472C69.7227 34.3608 69.7564 34.6387 69.8389 35.1035C70.8745 39.9512 76.6362 43.4365 83.168 43.4365Z" fill="#000000" fill-opacity="0.85"/>
 </g>
</svg>
