<?xml version="1.0" encoding="UTF-8"?>
<!--Generator: Apple Native CoreSVG 232.5-->
<!DOCTYPE svg
PUBLIC "-//W3C//DTD SVG 1.1//EN"
       "http://www.w3.org/Graphics/SVG/1.1/DTD/svg11.dtd">
<svg version="1.1" xmlns="http://www.w3.org/2000/svg" xmlns:xlink="http://www.w3.org/1999/xlink" width="106.243" height="101.075">
 <g>
  <rect height="101.075" opacity="0" width="106.243" x="0" y="0"/>
  <path d="M25.138 55.0566C25.138 61.2144 19.4065 64.7788 19.4065 69.4087C19.4065 72.0234 20.0867 73.4629 21.6677 75.5962C23.5877 78.1611 20.0256 80.6807 18.1545 78.2773C15.9353 75.5024 14.9856 72.9683 14.9856 69.6445C14.9856 63.4312 20.6497 59.5356 20.6497 55.0566C20.6497 50.4531 14.9856 46.6821 14.9856 40.3594C14.9856 37.1787 15.9353 34.6445 18.1848 31.7754C20.1687 29.2778 23.6819 31.8276 21.7771 34.3774C20.0867 36.6504 19.4065 38.1235 19.4065 40.5801C19.4065 45.3682 25.138 48.9932 25.138 55.0566ZM40.3577 55.0566C40.3577 61.2144 34.6262 64.7788 34.6262 69.4087C34.6262 72.0234 35.3064 73.4629 36.8875 75.5962C38.8074 78.1611 35.2454 80.6807 33.3406 78.2773C31.1213 75.5024 30.2053 72.9683 30.2053 69.6445C30.2053 63.4312 35.8694 59.5356 35.8694 55.0566C35.8694 50.4531 30.2053 46.6821 30.2053 40.3594C30.2053 37.1787 31.1213 34.6445 33.4046 31.7754C35.3548 29.2778 38.8679 31.8276 36.9968 34.3774C35.3064 36.6504 34.6262 38.1235 34.6262 40.5801C34.6262 45.3682 40.3577 48.9932 40.3577 55.0566ZM55.5437 55.0566C55.5437 61.2144 49.8123 64.7788 49.8123 69.4087C49.8123 72.0234 50.4925 73.4629 52.0735 75.5962C53.9934 78.1611 50.4651 80.6807 48.5603 78.2773C46.3411 75.5024 45.3914 72.9683 45.3914 69.6445C45.3914 63.4312 51.0554 59.5356 51.0554 55.0566C51.0554 50.4531 45.3914 46.6821 45.3914 40.3594C45.3914 37.1787 46.3411 34.6445 48.5906 31.7754C50.5745 29.2778 54.0877 31.8276 52.1829 34.3774C50.4925 36.6504 49.8123 38.1235 49.8123 40.5801C49.8123 45.3682 55.5437 48.9932 55.5437 55.0566ZM0.731208 81.1187C4.71021 96.3706 9.48658 100.993 18.9548 100.993L74.0301 100.993C80.8631 100.993 85.576 97.1621 87.2766 90.2315L105.56 15.8106C108.221 4.92383 102.681 0 96.2097 0C87.6858 0 78.5891 8.62892 83.1365 23.6978L84.2195 19.0996C70.2639 26.436 63.3323 45.0942 65.8059 66.7539L67.2156 64.7969C57.0359 62.7275 44.219 61.5337 31.5725 61.5337C7.00855 61.5337-2.89428 67.4121 0.731208 81.1187Z" fill="#000000" fill-opacity="0.85"/>
 </g>
</svg>
