<?xml version="1.0" encoding="UTF-8"?>
<!--Generator: Apple Native CoreSVG 232.5-->
<!DOCTYPE svg
PUBLIC "-//W3C//DTD SVG 1.1//EN"
       "http://www.w3.org/Graphics/SVG/1.1/DTD/svg11.dtd">
<svg version="1.1" xmlns="http://www.w3.org/2000/svg" xmlns:xlink="http://www.w3.org/1999/xlink" width="134.25" height="101.143">
 <g>
  <rect height="101.143" opacity="0" width="134.25" x="0" y="0"/>
  <path d="M0.734211 81.1524C4.71322 96.4043 9.48958 101.026 18.9578 101.026L74.6766 101.026C81.5096 101.026 86.2225 97.1958 87.9232 90.2652L106.207 15.8443C108.681 5.82179 103.784 0 95.6703 0C85.7245 0 77.2039 9.25392 80.9359 23.6221L81.6971 19.9151C69.9417 27.4722 63.4364 45.7598 65.1654 66.7539L66.8968 64.5088C56.328 62.6079 43.971 61.5674 31.5755 61.5674C7.01156 61.5674-2.89128 67.4458 0.734211 81.1524ZM6.4979 79.5523C4.25864 71.0586 10.6244 67.6123 31.5755 67.6123C47.3236 67.6123 59.8387 69.5625 66.6161 70.4072C69.1859 70.5469 70.7538 68.9907 70.6747 66.4058C69.8939 47.7588 75.3485 31.4351 84.9378 25.0083C86.4754 23.8428 86.6844 23.0025 86.2987 20.4693C85.0711 10.9868 90.1795 6.04494 95.6249 6.04494C99.3441 6.04494 101.736 9.02345 100.428 14.3384L82.0584 88.7695C81.077 92.7476 78.4627 94.9814 74.6766 94.9814L18.9578 94.9814C13.0199 94.9814 9.92612 92.7241 6.4979 79.5523Z" fill="#000000" fill-opacity="0.85"/>
  <path d="M109.523 48.6352C108.946 50.8413 110.552 52.2139 112.735 51.5386L132.18 45.6523C134.371 45.0259 134.915 42.7744 133.366 41.2251L119.185 26.4941C117.663 24.874 115.543 25.3271 114.965 27.5332Z" fill="#000000" fill-opacity="0.85"/>
  <path d="M58.8939 31.9604L64.3358 10.8247C64.9134 8.63719 63.3373 7.24608 61.2069 7.90623L41.6302 13.8716C39.5521 14.498 38.929 16.7158 40.4784 18.2988L54.6922 32.9321C56.245 34.5371 58.3163 34.2002 58.8939 31.9604Z" fill="#000000" fill-opacity="0.85"/>
 </g>
</svg>
