<?xml version="1.0" encoding="UTF-8"?>
<!--Generator: Apple Native CoreSVG 232.5-->
<!DOCTYPE svg
PUBLIC "-//W3C//DTD SVG 1.1//EN"
       "http://www.w3.org/Graphics/SVG/1.1/DTD/svg11.dtd">
<svg version="1.1" xmlns="http://www.w3.org/2000/svg" xmlns:xlink="http://www.w3.org/1999/xlink" width="106.254" height="114.79">
 <g>
  <rect height="114.79" opacity="0" width="106.254" x="0" y="0"/>
  <path d="M105.517 87.9762C109.143 74.2697 99.2582 68.3913 74.6757 68.3913C62.0292 68.3913 49.1972 69.5851 39.0326 71.6545L40.4423 73.6115C42.9159 51.9518 35.9692 33.2936 22.0136 25.9572L23.0966 30.5554C27.6591 15.4865 18.5624 6.85758 10.0233 6.85758C3.56729 6.85758-1.98789 11.7814 0.687892 22.6681L18.9716 97.089C20.6723 104.02 25.3852 107.85 32.2182 107.85L87.2782 107.85C96.7616 107.85 101.538 103.228 105.517 87.9762Z" fill="#000000" fill-opacity="0.85"/>
  <path d="M37.162 16.631C36.9296 17.9445 37.4247 18.8893 38.5312 19.2902C39.8246 19.6759 41.1064 18.9972 41.3539 17.6364C42.413 10.4787 38.936 3.24674 33.0815 0.343904C31.5253-0.45102 30.269 0.234529 29.8075 1.35611C29.4438 2.41373 29.725 3.55729 30.8349 4.13834C35.4902 6.27995 37.891 11.3073 37.162 16.631ZM51.0404 53.4328C50.5942 54.9889 51.3891 55.9826 52.4316 56.279C53.5414 56.5602 54.8837 56.0314 55.2475 54.6891C57.7074 45.4992 53.9072 32.1755 43.8837 27.4323C42.3461 26.7047 41.1723 27.2824 40.6737 28.2389C40.224 29.1838 40.3554 30.5109 41.7499 31.257C50.6347 35.9528 53.0238 46.1222 51.0404 53.4328Z" fill="#000000" fill-opacity="0.85"/>
 </g>
</svg>
