<?xml version="1.0" encoding="UTF-8"?>
<!--Generator: Apple Native CoreSVG 232.5-->
<!DOCTYPE svg
PUBLIC "-//W3C//DTD SVG 1.1//EN"
       "http://www.w3.org/Graphics/SVG/1.1/DTD/svg11.dtd">
<svg version="1.1" xmlns="http://www.w3.org/2000/svg" xmlns:xlink="http://www.w3.org/1999/xlink" width="106.843" height="101.143">
 <g>
  <rect height="101.143" opacity="0" width="106.843" x="0" y="0"/>
  <path d="M0.726356 81.1524C4.70536 96.4043 9.48173 101.026 18.95 101.026L74.6688 101.026C81.5018 101.026 86.2147 97.1958 87.9153 90.2652L106.199 15.8443C108.673 5.82179 103.776 0 95.6624 0C85.7166 0 77.1961 9.25392 80.928 23.6221L81.6893 19.9151C69.9339 27.4722 63.4285 45.7598 65.1575 66.7539L66.889 64.5088C56.3201 62.6079 43.9632 61.5674 31.5677 61.5674C7.0037 61.5674-2.89914 67.4458 0.726356 81.1524ZM6.49004 79.5523C4.25078 71.0586 10.6165 67.6123 31.5677 67.6123C47.3157 67.6123 59.8309 69.5625 66.6082 70.4072C69.178 70.5469 70.7459 68.9907 70.6668 66.4058C69.8861 47.7588 75.3406 31.4351 84.93 25.0083C86.4676 23.8428 86.6766 23.0025 86.2908 20.4693C85.0633 10.9868 90.1717 6.04494 95.617 6.04494C99.3362 6.04494 101.728 9.02345 100.42 14.3384L82.0506 88.7695C81.0691 92.7476 78.4549 94.9814 74.6688 94.9814L18.95 94.9814C13.012 94.9814 9.91827 92.7241 6.49004 79.5523Z" fill="#000000" fill-opacity="0.85"/>
  <path d="M23.5642 43.4365C31.9666 43.4365 37.7303 38.7944 37.7303 32.0205C37.7303 27.0669 33.9402 23.0479 28.7796 22.4282L28.7796 22.4736C33.0393 21.7295 36.3631 17.8081 36.3631 13.3125C36.3631 7.48829 31.1214 3.19971 23.7698 3.19971C17.3172 3.19971 12.1346 6.38038 11.0804 11.4233C10.9641 11.9336 10.9305 12.3394 10.9305 12.9507C10.9305 14.3233 11.909 15.3018 13.3557 15.3018C14.6424 15.3018 15.4222 14.6904 15.8079 13.355C16.618 9.88673 19.6888 7.74367 23.7024 7.74367C28.1673 7.74367 31.137 10.1275 31.137 13.8447C31.137 17.6143 27.9012 20.4409 23.6585 20.4409L20.6399 20.4409C19.365 20.4409 18.3714 21.3521 18.3714 22.6758C18.3714 23.9844 19.3011 24.9292 20.6399 24.9292L23.9817 24.9292C28.9451 24.9292 32.5042 27.7861 32.5042 31.8521C32.5042 36.0171 28.9114 38.8286 23.6316 38.8286C19.3216 38.8286 16.0169 36.7344 14.9661 33.2324C14.5467 31.9912 13.7063 31.4438 12.5442 31.4438C11.1614 31.4438 10.1189 32.3921 10.1189 33.8472C10.1189 34.3608 10.1526 34.6387 10.2688 35.1035C11.2556 39.9512 17.0662 43.4365 23.5642 43.4365Z" fill="#000000" fill-opacity="0.85"/>
 </g>
</svg>
