<?xml version="1.0" encoding="UTF-8"?>
<!--Generator: Apple Native CoreSVG 232.5-->
<!DOCTYPE svg
PUBLIC "-//W3C//DTD SVG 1.1//EN"
       "http://www.w3.org/Graphics/SVG/1.1/DTD/svg11.dtd">
<svg version="1.1" xmlns="http://www.w3.org/2000/svg" xmlns:xlink="http://www.w3.org/1999/xlink" width="106.843" height="101.143">
 <g>
  <rect height="101.143" opacity="0" width="106.843" x="0" y="0"/>
  <path d="M106.117 81.1524C109.742 67.4458 99.8242 61.5674 75.2754 61.5674C62.8799 61.5674 50.5229 62.6079 39.9204 64.5088L41.6855 66.7539C43.4145 45.7598 36.9092 27.4722 25.1387 19.9151L25.8999 23.6221C29.647 9.25392 21.0928 0 11.147 0C3.06687 0-1.82961 5.82179 0.644022 15.8443L18.9277 90.2652C20.6284 97.1958 25.3413 101.026 32.1406 101.026L87.8779 101.026C97.3613 101.026 102.138 96.4043 106.117 81.1524ZM100.353 79.5523C96.9248 92.7241 93.8311 94.9814 87.8779 94.9814L32.1406 94.9814C28.373 94.9814 25.7588 92.7476 24.7925 88.7695L6.40771 14.3384C5.11474 9.02345 7.50683 6.04494 11.2261 6.04494C16.6714 6.04494 21.7798 10.9868 20.5185 20.4693C20.1514 23.0025 20.3418 23.8428 21.8794 25.0083C31.5024 31.4351 36.957 47.7588 36.1426 66.4058C36.0972 68.9907 37.665 70.5469 40.2197 70.4072C47.0122 69.5625 59.5273 67.6123 75.2754 67.6123C96.2266 67.6123 102.559 71.0586 100.353 79.5523Z" fill="#000000" fill-opacity="0.85"/>
 </g>
</svg>
