<?xml version="1.0" encoding="UTF-8"?>
<!--Generator: Apple Native CoreSVG 232.5-->
<!DOCTYPE svg
PUBLIC "-//W3C//DTD SVG 1.1//EN"
       "http://www.w3.org/Graphics/SVG/1.1/DTD/svg11.dtd">
<svg version="1.1" xmlns="http://www.w3.org/2000/svg" xmlns:xlink="http://www.w3.org/1999/xlink" width="106.243" height="101.075">
 <g>
  <rect height="101.075" opacity="0" width="106.243" x="0" y="0"/>
  <path d="M0.731208 81.1187C4.71021 96.3706 9.48658 100.993 18.9548 100.993L74.0301 100.993C80.8631 100.993 85.576 97.1621 87.2766 90.2315L105.56 15.8106C108.221 4.92383 102.681 0 96.2097 0C87.6858 0 78.5891 8.62892 83.1365 23.6978L84.2195 19.0996C70.2639 26.436 63.3323 45.0942 65.8059 66.7539L67.2156 64.7969C57.0359 62.7275 44.219 61.5337 31.5725 61.5337C7.00855 61.5337-2.89428 67.4121 0.731208 81.1187Z" fill="#000000" fill-opacity="0.85"/>
  <path d="M13.2913 43.794L36.093 43.794C37.5364 43.794 38.5823 42.7666 38.5823 41.3721C38.5823 39.959 37.5213 38.9165 36.093 38.9165L18.617 38.9468L18.617 38.8306L30.2268 26.1182C33.926 22.1445 36.3191 18.7803 36.3191 14.2354C36.3191 7.57422 31.2776 3.16602 23.3567 3.16602C17.1487 3.16602 11.7117 6.95948 10.5193 12.105C10.4031 12.7163 10.3054 13.1743 10.3054 13.7183C10.3054 15.1919 11.2502 16.1553 12.7273 16.1553C14.1301 16.1553 14.824 15.3418 15.3967 14.1714C16.2659 10.8804 19.1091 7.99122 23.5588 7.99122C28.0574 7.99122 31.0862 10.6143 31.0862 14.5269C31.0862 17.625 28.8362 20.3106 26.0212 23.3662L11.6458 39.0278C10.9553 39.7671 10.6067 40.4644 10.6067 41.3418C10.6067 42.834 11.634 43.794 13.2913 43.794Z" fill="#000000" fill-opacity="0.85"/>
 </g>
</svg>
