<?xml version="1.0" encoding="UTF-8"?>
<!--Generator: Apple Native CoreSVG 232.5-->
<!DOCTYPE svg
PUBLIC "-//W3C//DTD SVG 1.1//EN"
       "http://www.w3.org/Graphics/SVG/1.1/DTD/svg11.dtd">
<svg version="1.1" xmlns="http://www.w3.org/2000/svg" xmlns:xlink="http://www.w3.org/1999/xlink" width="106.843" height="101.143">
 <g>
  <rect height="101.143" opacity="0" width="106.843" x="0" y="0"/>
  <path d="M106.199 15.8443L87.9153 90.2652C86.2147 97.1958 81.5018 101.026 74.6688 101.026L18.95 101.026C9.48173 101.026 4.70536 96.4043 0.726356 81.1524C-2.13827 70.3223 3.44302 64.3795 18.0678 62.3791C16.9357 64.2729 15.889 66.3314 15.6764 68.7457C7.40741 70.3576 4.97238 73.7957 6.49004 79.5523C9.91827 92.7241 13.012 94.9814 18.95 94.9814L74.6688 94.9814C78.4549 94.9814 81.0691 92.7476 82.0506 88.7695L100.42 14.3384C101.728 9.02345 99.3362 6.04494 95.617 6.04494C90.1717 6.04494 85.0633 10.9868 86.2908 20.4693C86.6766 23.0025 86.4676 23.8428 84.93 25.0083C75.3406 31.4351 69.8861 47.7588 70.6668 66.4058C70.7459 68.9907 69.178 70.5469 66.6082 70.4072C62.8703 69.9414 57.3872 69.1392 50.5296 68.5203C50.8469 66.5114 52.1546 64.666 53.4312 62.6573C57.4529 63.0551 61.339 63.5695 65.0078 64.1961C64.0115 45.0872 69.9048 28.5559 80.356 20.8741C78.3161 8.0837 86.3667 0 95.6624 0C103.776 0 108.673 5.82179 106.199 15.8443ZM48.5651 62.2271C47.4912 64.0082 46.4759 65.9325 46.1559 68.1629C42.8938 67.9138 39.3392 67.7319 35.5379 67.6713C36.124 65.6736 37.5804 63.7965 38.8384 61.6976C42.1243 61.793 45.3789 61.9713 48.5651 62.2271ZM33.7646 61.5903C32.6468 63.4074 31.51 65.3563 31.0599 67.6178C26.8374 67.6249 23.2334 67.7793 20.2152 68.1001C20.6875 65.9783 22.2142 64.0179 23.5455 61.8209C26.0068 61.6483 28.6864 61.5674 31.5677 61.5674C32.3008 61.5674 33.0338 61.571 33.7646 61.5903Z" fill="#000000" fill-opacity="0.85"/>
  <path d="M25.7767 55.0903C25.7767 49.0269 20.0452 45.4019 20.0452 40.6138C20.0452 38.1572 20.7254 36.6841 22.4158 34.4111C24.3206 31.8613 20.8074 29.3115 18.8235 31.8091C16.574 34.6782 15.6243 37.2124 15.6243 40.3931C15.6243 46.7158 21.2884 50.4868 21.2884 55.0903C21.2884 59.5693 15.6243 63.4648 15.6243 69.6782C15.6243 73.002 16.574 75.5361 18.7933 78.311C20.6644 80.7144 24.2264 78.1948 22.3216 75.6299C20.7254 73.4966 20.0452 72.0571 20.0452 69.4424C20.0452 64.8125 25.7767 61.2481 25.7767 55.0903ZM40.9964 55.0903C40.9964 49.0269 35.2649 45.4019 35.2649 40.6138C35.2649 38.1572 35.9451 36.6841 37.6355 34.4111C39.5066 31.8613 35.9935 29.3115 34.0433 31.8091C31.7601 34.6782 30.844 37.2124 30.844 40.3931C30.844 46.7158 36.5081 50.4868 36.5081 55.0903C36.5081 59.5693 30.844 63.4648 30.844 69.6782C30.844 73.002 31.7601 75.5361 33.9793 78.311C35.8841 80.7144 39.4461 78.1948 37.5413 75.6299C35.9451 73.4966 35.2649 72.0571 35.2649 69.4424C35.2649 64.8125 40.9964 61.2481 40.9964 55.0903ZM56.1824 55.0903C56.1824 49.0269 50.451 45.4019 50.451 40.6138C50.451 38.1572 51.1312 36.6841 52.8216 34.4111C54.7264 31.8613 51.2132 29.3115 49.2293 31.8091C46.9798 34.6782 46.0301 37.2124 46.0301 40.3931C46.0301 46.7158 51.6941 50.4868 51.6941 55.0903C51.6941 59.5693 46.0301 63.4648 46.0301 69.6782C46.0301 73.002 46.9798 75.5361 49.199 78.311C51.1038 80.7144 54.6321 78.1948 52.7273 75.6299C51.1312 73.4966 50.451 72.0571 50.451 69.4424C50.451 64.8125 56.1824 61.2481 56.1824 55.0903Z" fill="#000000" fill-opacity="0.85"/>
 </g>
</svg>
