<?xml version="1.0" encoding="UTF-8"?>
<!--Generator: Apple Native CoreSVG 232.5-->
<!DOCTYPE svg
PUBLIC "-//W3C//DTD SVG 1.1//EN"
       "http://www.w3.org/Graphics/SVG/1.1/DTD/svg11.dtd">
<svg version="1.1" xmlns="http://www.w3.org/2000/svg" xmlns:xlink="http://www.w3.org/1999/xlink" width="106.254" height="101.075">
 <g>
  <rect height="101.075" opacity="0" width="106.254" x="0" y="0"/>
  <path d="M60.8232 55.0566C60.8232 61.2144 55.0917 64.7788 55.0917 69.4087C55.0917 72.0234 55.7719 73.4629 57.3681 75.5962C59.2729 78.1611 55.7109 80.6807 53.8061 78.2773C51.5868 75.5024 50.6708 72.9683 50.6708 69.6445C50.6708 63.4312 56.3349 59.5356 56.3349 55.0566C56.3349 50.4531 50.6708 46.6821 50.6708 40.3594C50.6708 37.1787 51.5868 34.6445 53.8852 31.7754C55.8202 29.2778 59.3671 31.8276 57.4623 34.3774C55.7719 36.6504 55.0917 38.1235 55.0917 40.5801C55.0917 45.3682 60.8232 48.9932 60.8232 55.0566ZM76.0092 55.0566C76.0092 61.2144 70.2778 64.7788 70.2778 69.4087C70.2778 72.0234 70.9916 73.4629 72.5878 75.5962C74.4589 78.1611 70.9306 80.6807 69.0258 78.2773C66.8066 75.5024 65.8569 72.9683 65.8569 69.6445C65.8569 63.4312 71.5209 59.5356 71.5209 55.0566C71.5209 50.4531 65.8569 46.6821 65.8569 40.3594C65.8569 37.1787 66.8066 34.6445 69.1049 31.7754C71.04 29.2778 74.5532 31.8276 72.6484 34.3774C70.9916 36.6504 70.2778 38.1235 70.2778 40.5801C70.2778 45.3682 76.0092 48.9932 76.0092 55.0566ZM91.2289 55.0566C91.2289 61.2144 85.4975 64.7788 85.4975 69.4087C85.4975 72.0234 86.1777 73.4629 87.7739 75.5962C89.6786 78.1611 86.1166 80.6807 84.2455 78.2773C81.9926 75.5024 81.0766 72.9683 81.0766 69.6445C81.0766 63.4312 86.7406 59.5356 86.7406 55.0566C86.7406 50.4531 81.0766 46.6821 81.0766 40.3594C81.0766 37.1787 81.9926 34.6445 84.2909 31.7754C86.226 29.2778 89.7729 31.8276 87.8681 34.3774C86.1777 36.6504 85.4975 38.1235 85.4975 40.5801C85.4975 45.3682 91.2289 48.9932 91.2289 55.0566ZM105.517 81.1187C109.143 67.4121 99.2582 61.5337 74.6757 61.5337C62.0292 61.5337 49.1972 62.7275 39.0326 64.7969L40.4423 66.7539C42.9159 45.0942 35.9692 26.436 22.0136 19.0996L23.0966 23.6978C27.6591 8.62892 18.5624 0 10.0233 0C3.56729 0-1.98789 4.92383 0.687892 15.8106L18.9716 90.2315C20.6723 97.1621 25.3852 100.993 32.2182 100.993L87.2782 100.993C96.7616 100.993 101.538 96.3706 105.517 81.1187Z" fill="#000000" fill-opacity="0.85"/>
 </g>
</svg>
