<?xml version="1.0" encoding="UTF-8"?>
<!--Generator: Apple Native CoreSVG 232.5-->
<!DOCTYPE svg
PUBLIC "-//W3C//DTD SVG 1.1//EN"
       "http://www.w3.org/Graphics/SVG/1.1/DTD/svg11.dtd">
<svg version="1.1" xmlns="http://www.w3.org/2000/svg" xmlns:xlink="http://www.w3.org/1999/xlink" width="106.254" height="137.741">
 <g>
  <rect height="137.741" opacity="0" width="106.254" x="0" y="0"/>
  <path d="M105.517 81.1187C109.143 67.4273 99.2582 61.5337 74.6757 61.5337C62.0292 61.5337 49.1972 62.7275 39.0326 64.8306L40.4423 66.7539C42.9159 45.1279 35.9692 26.436 22.0136 19.1333L23.0966 23.6978C27.6591 8.62892 18.5624 0 10.0233 0C3.56729 0-1.98789 4.95752 0.687892 15.8106L18.9716 90.2315C20.6723 97.1621 25.3852 101.026 32.2182 101.026L87.2782 101.026C96.7616 101.026 101.538 96.3858 105.517 81.1187Z" fill="#000000" fill-opacity="0.85"/>
  <path d="M72.975 134.508C72.975 136.796 74.8627 137.677 76.7641 136.519L94.1737 125.926C96.102 124.756 96.0531 122.471 94.1737 121.349L76.7338 110.659C74.8476 109.485 72.975 110.449 72.975 112.704Z" fill="#000000" fill-opacity="0.85"/>
  <path d="M47.1337 134.508L47.1337 112.704C47.1337 110.449 45.2611 109.485 43.3598 110.659L25.9013 121.349C24.0556 122.471 24.0067 124.756 25.9013 125.926L43.3109 136.519C45.2123 137.677 47.1337 136.796 47.1337 134.508Z" fill="#000000" fill-opacity="0.85"/>
 </g>
</svg>
