<?xml version="1.0" encoding="UTF-8"?>
<!--Generator: Apple Native CoreSVG 232.5-->
<!DOCTYPE svg
PUBLIC "-//W3C//DTD SVG 1.1//EN"
       "http://www.w3.org/Graphics/SVG/1.1/DTD/svg11.dtd">
<svg version="1.1" xmlns="http://www.w3.org/2000/svg" xmlns:xlink="http://www.w3.org/1999/xlink" width="106.843" height="101.143">
 <g>
  <rect height="101.143" opacity="0" width="106.843" x="0" y="0"/>
  <path d="M106.117 81.1524C109.742 67.4458 99.8242 61.5674 75.2754 61.5674C62.8799 61.5674 50.5229 62.6079 39.9204 64.5088L41.6855 66.7539C43.4145 45.7598 36.9092 27.4722 25.1387 19.9151L25.8999 23.6221C29.647 9.25392 21.0928 0 11.147 0C3.06687 0-1.82961 5.82179 0.644022 15.8443L18.9277 90.2652C20.6284 97.1958 25.3413 101.026 32.1406 101.026L87.8779 101.026C97.3613 101.026 102.138 96.4043 106.117 81.1524ZM100.353 79.5523C96.9248 92.7241 93.8311 94.9814 87.8779 94.9814L32.1406 94.9814C28.373 94.9814 25.7588 92.7476 24.7925 88.7695L6.40771 14.3384C5.11474 9.02345 7.50683 6.04494 11.2261 6.04494C16.6714 6.04494 21.7798 10.9868 20.5185 20.4693C20.1514 23.0025 20.3418 23.8428 21.8794 25.0083C31.5024 31.4351 36.957 47.7588 36.1426 66.4058C36.0972 68.9907 37.665 70.5469 40.2197 70.4072C47.0122 69.5625 59.5273 67.6123 75.2754 67.6123C96.2266 67.6123 102.559 71.0586 100.353 79.5523Z" fill="#000000" fill-opacity="0.85"/>
  <path d="M54.9731 32.5161C54.9731 39.5576 61.2891 46.5723 67.5102 46.5723C72.8799 46.5723 75.7876 41.9551 78.4873 33.1929L80.0444 32.9941L80.0444 42.6216C80.0444 46.5415 82.0566 48.5503 85.8301 48.5503C92.8379 48.5503 99.8525 42.2681 99.8525 36.0132C99.8525 30.5947 95.2354 27.751 86.4243 25.0024L86.2593 23.4487L95.9019 23.4487C99.8369 23.4487 101.767 21.4702 101.767 17.6968C101.767 10.6553 95.5483 3.60692 89.2935 3.60692C83.8599 3.60692 81.0161 8.2915 78.2827 17.1025L76.7593 17.249L76.7593 7.5913C76.7593 3.70507 74.7808 1.67773 70.9922 1.67773C63.9355 1.67773 56.8872 7.97851 56.8872 14.1997C56.8872 19.5996 61.5869 22.4282 70.3828 25.1768L70.4653 26.7642L60.8867 26.7642C56.9853 26.7642 54.9731 28.7764 54.9731 32.5161ZM73.4795 25.0972C73.4795 22.3662 75.6465 20.1689 78.3472 20.1689C81.0781 20.1689 83.2905 22.3662 83.2905 25.0972C83.2905 27.8467 81.0781 30.0103 78.3472 30.0103C75.6616 30.0103 73.4795 27.8467 73.4795 25.0972Z" fill="#000000" fill-opacity="0.85"/>
 </g>
</svg>
