<?xml version="1.0" encoding="UTF-8"?>
<!--Generator: Apple Native CoreSVG 232.5-->
<!DOCTYPE svg
PUBLIC "-//W3C//DTD SVG 1.1//EN"
       "http://www.w3.org/Graphics/SVG/1.1/DTD/svg11.dtd">
<svg version="1.1" xmlns="http://www.w3.org/2000/svg" xmlns:xlink="http://www.w3.org/1999/xlink" width="106.843" height="101.143">
 <g>
  <rect height="101.143" opacity="0" width="106.843" x="0" y="0"/>
  <path d="M0.726356 81.1524C4.70536 96.4043 9.48173 101.026 18.95 101.026L74.6688 101.026C81.5018 101.026 86.2147 97.1958 87.9153 90.2652L106.199 15.8443C108.673 5.82179 103.776 0 95.6624 0C85.7166 0 77.1961 9.25392 80.928 23.6221L81.6893 19.9151C69.9339 27.4722 63.4285 45.7598 65.1575 66.7539L66.889 64.5088C56.3201 62.6079 43.9632 61.5674 31.5677 61.5674C7.0037 61.5674-2.89914 67.4458 0.726356 81.1524ZM6.49004 79.5523C4.25078 71.0586 10.6165 67.6123 31.5677 67.6123C47.3157 67.6123 59.8309 69.5625 66.6082 70.4072C69.178 70.5469 70.7459 68.9907 70.6668 66.4058C69.8861 47.7588 75.3406 31.4351 84.93 25.0083C86.4676 23.8428 86.6766 23.0025 86.2908 20.4693C85.0633 10.9868 90.1717 6.04494 95.617 6.04494C99.3362 6.04494 101.728 9.02345 100.42 14.3384L82.0506 88.7695C81.0691 92.7476 78.4549 94.9814 74.6688 94.9814L18.95 94.9814C13.012 94.9814 9.91827 92.7241 6.49004 79.5523Z" fill="#000000" fill-opacity="0.85"/>
  <path d="M26.8621 44.7149C28.6609 44.7149 29.7068 43.5679 29.7068 41.6157L29.7068 6.34425C29.7068 4.313 28.5516 3.19971 26.6551 3.19971C25.2908 3.19971 24.4285 3.56348 22.8841 4.62794L13.929 10.561C13.1004 11.1235 12.804 11.7349 12.804 12.582C12.804 13.7559 13.7791 14.7344 14.8553 14.7344C15.3875 14.7344 15.8001 14.6182 16.7264 13.9732L23.7395 9.43459L24.137 9.43459L24.137 41.6157C24.137 43.5493 25.198 44.7149 26.8621 44.7149Z" fill="#000000" fill-opacity="0.85"/>
 </g>
</svg>
