<?xml version="1.0" encoding="UTF-8"?>
<!--Generator: Apple Native CoreSVG 232.5-->
<!DOCTYPE svg
PUBLIC "-//W3C//DTD SVG 1.1//EN"
       "http://www.w3.org/Graphics/SVG/1.1/DTD/svg11.dtd">
<svg version="1.1" xmlns="http://www.w3.org/2000/svg" xmlns:xlink="http://www.w3.org/1999/xlink" width="97.9595" height="97.9932">
 <g>
  <rect height="97.9932" opacity="0" width="97.9595" x="0" y="0"/>
  <path d="M97.9595 49.021C97.9595 75.8584 75.8247 97.9932 48.9722 97.9932C22.1685 97.9932 0 75.8584 0 49.021C0 22.2173 22.1348 0.0488281 48.9385 0.0488281C75.791 0.0488281 97.9595 22.2173 97.9595 49.021ZM36.9653 73.8779C36.9653 76.2959 38.8613 78.1431 41.2456 78.1431C43.6636 78.1431 45.5596 76.2959 45.5596 73.8779C45.5596 71.4263 43.6636 69.564 41.2456 69.564C38.8613 69.564 36.9653 71.4263 36.9653 73.8779ZM59.8315 73.8779C59.8315 76.2959 61.8101 78.1431 64.1943 78.1431C66.5972 78.1431 68.5083 76.2959 68.5083 73.8779C68.5083 71.4263 66.5972 69.564 64.1943 69.564C61.8101 69.564 59.8315 71.4263 59.8315 73.8779ZM19.9038 26.7588C18.6592 26.7588 17.7817 27.6362 17.7817 28.9297C17.7817 30.1895 18.6592 31.0669 19.9038 31.0669L28.5034 31.0669L32.731 60.4126C33.2412 63.9321 35.4692 65.8652 39.5864 65.8652L68.4321 65.8652C69.6768 65.8652 70.5205 65.0215 70.5205 63.6943C70.5205 62.4194 69.6768 61.5757 68.4321 61.5757L39.8506 61.5757C38.0645 61.5757 37.0694 60.7539 36.8589 59.04L36.5122 56.1216L69.0591 56.1216C72.5918 56.1216 74.2539 54.0874 74.7608 50.6675L76.8838 36.4053C76.9663 36.1577 77.0303 35.7183 77.0303 35.5381C77.0303 34.4385 76.2725 33.6958 74.9741 33.6958L33.1768 33.6958L32.6616 29.6909C32.4141 27.936 30.9707 26.7588 29.0542 26.7588Z" fill="#000000" fill-opacity="0.85"/>
 </g>
</svg>
