<?xml version="1.0" encoding="UTF-8"?>
<!--Generator: Apple Native CoreSVG 232.5-->
<!DOCTYPE svg
PUBLIC "-//W3C//DTD SVG 1.1//EN"
       "http://www.w3.org/Graphics/SVG/1.1/DTD/svg11.dtd">
<svg version="1.1" xmlns="http://www.w3.org/2000/svg" xmlns:xlink="http://www.w3.org/1999/xlink" width="97.9595" height="97.9932">
 <g>
  <rect height="97.9932" opacity="0" width="97.9595" x="0" y="0"/>
  <path d="M48.9722 97.9443C75.8247 97.9443 97.9595 75.7759 97.9595 48.9722C97.9595 22.1348 75.791 0 48.9385 0C22.1348 0 0 22.1348 0 48.9722C0 75.7759 22.1685 97.9443 48.9722 97.9443ZM48.9722 91.6113C25.3501 91.6113 6.36671 72.5942 6.36671 48.9722C6.36671 25.3501 25.3164 6.31789 48.9385 6.31789C72.5605 6.31789 91.6265 25.3501 91.6265 48.9722C91.6265 72.5942 72.5942 91.6113 48.9722 91.6113Z" fill="#000000" fill-opacity="0.85"/>
  <path d="M39.6875 65.4946L68.0093 65.4946C69.2202 65.4946 70.0454 64.6357 70.0454 63.376C70.0454 62.1499 69.2202 61.2725 68.0093 61.2725L39.9365 61.2725C38.1841 61.2725 37.2227 60.5029 37.0122 58.8228L36.6807 55.938L68.6025 55.938C72.083 55.938 73.6777 53.9375 74.1846 50.585L76.2739 36.5772C76.3565 36.3633 76.4204 35.9238 76.4204 35.7437C76.4204 34.6441 75.6626 33.9688 74.3828 33.9688L33.3975 33.9688L32.8823 29.9976C32.6499 28.2612 31.2588 27.1514 29.376 27.1514L20.3789 27.1514C19.168 27.1514 18.3242 27.9951 18.3242 29.27C18.3242 30.4961 19.168 31.3399 20.3789 31.3399L28.8589 31.3399L33.0191 60.1431C33.4956 63.5801 35.6563 65.4946 39.6875 65.4946ZM41.3467 77.5181C43.731 77.5181 45.5596 75.6558 45.5596 73.3389C45.5596 70.9546 43.731 69.0923 41.3467 69.0923C39.0298 69.0923 37.1675 70.9546 37.1675 73.3389C37.1675 75.6558 39.0298 77.5181 41.3467 77.5181ZM63.8726 77.5181C66.208 77.5181 68.0855 75.6558 68.0855 73.3389C68.0855 70.9546 66.208 69.0923 63.8726 69.0923C61.522 69.0923 59.6108 70.9546 59.6108 73.3389C59.6108 75.6558 61.522 77.5181 63.8726 77.5181Z" fill="#000000" fill-opacity="0.85"/>
 </g>
</svg>
