<?xml version="1.0" encoding="UTF-8"?>
<!--Generator: Apple Native CoreSVG 232.5-->
<!DOCTYPE svg
PUBLIC "-//W3C//DTD SVG 1.1//EN"
       "http://www.w3.org/Graphics/SVG/1.1/DTD/svg11.dtd">
<svg version="1.1" xmlns="http://www.w3.org/2000/svg" xmlns:xlink="http://www.w3.org/1999/xlink" width="97.9595" height="97.9932">
 <g>
  <rect height="97.9932" opacity="0" width="97.9595" x="0" y="0"/>
  <path d="M97.9595 49.021C97.9595 75.8584 75.8247 97.9932 48.9722 97.9932C22.1685 97.9932 0 75.8584 0 49.021C0 22.2173 22.1348 0.0488281 48.9385 0.0488281C75.791 0.0488281 97.9595 22.2173 97.9595 49.021ZM17.7188 33.6553C17.7188 38.7588 20.5557 42.7847 24.9888 44.2749C26.1255 44.6909 26.5869 45.5161 26.5264 46.7588C26.3379 48.2925 26.3076 49.5938 26.3076 50.5332C26.3076 58.1406 22.8223 59.7515 23.8511 63.2588L26.8145 74.1577C27.397 76.4273 28.8062 77.5015 30.6802 77.5015L32.8897 77.5015C35.4473 77.5015 37.0215 76.1563 37.0215 73.8276C37.0215 72.1406 35.7149 70.6607 33.376 70.3003L33.376 64.5772C33.376 62.0786 34.0039 60.6441 35.3931 58.354C39.103 59.8628 42.3403 60.3965 45.77 60.3965C49.562 60.3965 53.6353 59.8189 56.2935 59.1387C56.834 61.2466 57.4653 63.6323 57.4653 65.4917C57.4653 68.6299 57.1387 71.0718 57.1387 73.5298C57.1387 76.1563 58.4907 77.5015 61.0786 77.5015L63.5625 77.5015C66.1201 77.5015 67.6943 76.0889 67.6943 73.8276C67.6943 71.9873 66.6421 70.6607 64.5576 70.3525L64.5576 67.9277C64.5576 54.8584 74.1817 58.4785 74.3838 41.6787C78.8086 41.4429 81.9976 38.5352 81.9976 36.4019C81.9976 33.4282 78.8169 30.2964 75.2539 27.7471C74.4878 25.1069 73.1558 22.8491 71.9302 22.8491C70.8106 22.8491 69.2007 24.6729 68.0493 27.6397C66.0928 29.4229 64.4209 31.9331 63.0977 34.2398L61.7578 36.332C61.0186 37.7046 60.4072 38.4541 59.439 38.4541C50.2857 38.4541 46.4033 37.1021 37.6006 37.1021C33.2012 37.1021 30.5459 38.7031 28.9614 40.6831C28.1582 41.7119 27.5991 41.9561 26.1577 41.4946C22.9556 40.3984 20.7988 37.4756 20.7988 33.6553C20.7988 28.5571 24.875 25.0181 30.6231 25.0181C32.7866 25.0181 35.0444 25.4878 37.5986 26.5132C39.8047 27.4024 40.7984 24.4233 38.8179 23.583C35.915 22.4229 33.1958 21.9043 30.6231 21.9043C22.9688 21.9043 17.7188 26.73 17.7188 33.6553ZM75.2017 32.645C75.5908 33.0186 75.5693 33.6567 75.2261 34.0459C74.8828 34.4688 74.2481 34.459 73.8589 34.1006C73.4024 33.7085 73.4273 33.1411 73.7705 32.7334C74.1289 32.3442 74.7451 32.2529 75.2017 32.645Z" fill="#000000" fill-opacity="0.85"/>
 </g>
</svg>
