<?xml version="1.0" encoding="UTF-8"?>
<!--Generator: Apple Native CoreSVG 232.5-->
<!DOCTYPE svg
PUBLIC "-//W3C//DTD SVG 1.1//EN"
       "http://www.w3.org/Graphics/SVG/1.1/DTD/svg11.dtd">
<svg version="1.1" xmlns="http://www.w3.org/2000/svg" xmlns:xlink="http://www.w3.org/1999/xlink" width="97.9595" height="97.9932">
 <g>
  <rect height="97.9932" opacity="0" width="97.9595" x="0" y="0"/>
  <path d="M48.9722 97.9443C75.8247 97.9443 97.9595 75.7759 97.9595 48.9722C97.9595 22.1348 75.791 0 48.9385 0C22.1348 0 0 22.1348 0 48.9722C0 75.7759 22.1685 97.9443 48.9722 97.9443ZM48.9722 91.6113C25.3501 91.6113 6.36671 72.5942 6.36671 48.9722C6.36671 25.3501 25.3164 6.31789 48.9385 6.31789C72.5605 6.31789 91.6265 25.3501 91.6265 48.9722C91.6265 72.5942 72.5942 91.6113 48.9722 91.6113Z" fill="#000000" fill-opacity="0.85"/>
  <path d="M31.0542 76.895L33.2114 76.895C35.7354 76.895 37.2759 75.5498 37.2759 73.2886C37.2759 71.6353 36.0029 70.189 33.6978 69.8286L33.6978 64.1914C33.6978 61.7417 34.3257 60.3408 35.6812 58.103C39.3052 59.5781 42.5088 60.1118 45.8711 60.1118C49.562 60.1118 53.5342 59.5679 56.1587 58.8877C56.6992 60.9619 57.312 63.2803 57.312 65.1211C57.312 68.1431 56.9854 70.5327 56.9854 72.9907C56.9854 75.5498 58.3223 76.895 60.8579 76.895L63.2744 76.895C65.7647 76.895 67.3389 75.4824 67.3389 73.2886C67.3389 71.4819 66.3018 70.189 64.2359 69.8472L64.2359 67.5234C64.2359 54.6748 73.7066 58.2612 73.8599 41.7495C78.2173 41.5474 81.354 38.6734 81.354 36.6074C81.354 33.7012 78.2744 30.6367 74.7451 28.1397C74.0127 25.4995 72.6992 23.3428 71.4888 23.3428C70.3877 23.3428 68.8267 25.0991 67.709 28.0137C65.771 29.7295 64.1328 32.2246 62.8096 34.479L61.4883 36.5713C60.7642 37.8765 60.1714 38.5923 59.252 38.5923C50.2857 38.5923 46.4707 37.3076 37.855 37.3076C33.523 37.3076 30.9199 38.875 29.3692 40.7876C28.5811 41.8164 28.0557 42.0606 26.648 41.5654C23.5132 40.5366 21.375 37.6475 21.375 33.9282C21.375 28.9312 25.3501 25.4443 31.0122 25.4443C33.1421 25.4443 35.3325 25.8955 37.853 26.9058C40.0068 27.7612 40.9668 24.8496 39.0386 24.043C36.2031 22.9165 33.5176 22.398 31.0122 22.398C23.5112 22.398 18.3775 27.1226 18.3775 33.9282C18.3775 38.897 21.1655 42.8555 25.4976 44.312C26.6157 44.728 27.0772 45.501 27.0166 46.7285C26.813 48.21 26.7979 49.5449 26.7979 50.4507C26.7979 57.9048 23.3799 59.5005 24.375 62.8731L27.271 73.6187C27.8535 75.8208 29.229 76.895 31.0542 76.895ZM73.335 34.291C72.9273 33.9478 72.937 33.3467 73.2954 32.9575C73.6387 32.5684 74.2549 32.5596 74.6777 32.918C75.0669 33.3101 75.0269 33.9297 74.6836 34.3189C74.3252 34.708 73.7241 34.6983 73.335 34.291Z" fill="#000000" fill-opacity="0.85"/>
 </g>
</svg>
