<?xml version="1.0" encoding="UTF-8"?>
<!--Generator: Apple Native CoreSVG 232.5-->
<!DOCTYPE svg
PUBLIC "-//W3C//DTD SVG 1.1//EN"
       "http://www.w3.org/Graphics/SVG/1.1/DTD/svg11.dtd">
<svg version="1.1" xmlns="http://www.w3.org/2000/svg" xmlns:xlink="http://www.w3.org/1999/xlink" width="127.46" height="111.028">
 <g>
  <rect height="111.028" opacity="0" width="127.46" x="0" y="0"/>
  <path d="M24.2398 111.028L29.5786 111.028C35.1826 111.028 38.8501 107.834 38.8501 102.725C38.8501 98.1734 36.1475 95.7271 32.6201 94.9727L32.6201 86.8262C32.6201 81.8457 33.4263 78.9698 34.9243 75.8501C40.124 78.1148 48.0664 79.4703 55.0103 79.4703C61.4322 79.4703 68.4131 78.7378 74.2891 77.3892C75.003 80.7242 75.9136 84.0874 75.9136 85.1563C75.9136 91.8423 75.2451 95.0718 75.2451 101.075C75.2451 107.546 78.5996 111.028 84.8184 111.028L90.0542 111.028C95.5235 111.028 99.3594 107.699 99.3594 102.725C99.3594 98.1734 96.6568 95.7271 93.0957 94.9575L93.0957 91.0596C93.0957 67.1958 111.728 74.086 112.439 40.4209C121.062 39.6577 127.46 33.586 127.46 28.7666C127.46 23.1055 121.501 16.3311 115.204 12.4536C113.735 6.29883 109.968 1.93457 106.893 1.93457C103.921 1.93457 100.642 5.71192 98.1236 11.3257C94.5371 14.5064 90.6997 19.6856 87.9908 24.2266L84.9756 29.2251C83.898 31.1094 82.9483 31.9683 81.3116 31.9683C64.0386 31.9683 56.3662 29.3096 38.814 29.3096C29.314 29.3096 23.6563 32.9194 20.3643 37.6255C18.9614 39.626 17.3379 39.4658 15.3325 38.5547C9.32569 36.1753 5.52101 30.6074 5.52101 23.6792C5.52101 13.4692 13.6987 6.33204 25.1211 6.33204C29.4365 6.33204 33.8462 7.25636 38.8823 9.29542C42.8823 10.8887 44.7183 5.60693 41.124 4.10791C35.4058 1.83642 30.0479 0.811031 25.1211 0.811031C10.1773 0.811031 0 10.1514 0 23.6792C0 33.1489 5.125 40.6133 13.0332 43.7608C15.3032 44.7764 15.9468 45.876 15.8374 48.3159C15.5093 52.6895 15.5093 55.1934 15.5093 56.7778C15.5093 70.6387 8.68994 75.0669 10.5708 82.0869L16.6157 104.216C17.919 108.989 20.5791 111.028 24.2398 111.028ZM25.5942 105.507C23.771 105.507 22.4243 104.406 21.6651 101.549L15.957 80.625C14.9048 76.8184 21.0303 72.5855 21.0303 56.7778C21.0303 50.27 21.3081 34.8306 38.814 34.8306C54.9883 34.8306 66.6568 37.4893 82.3106 37.4893C85.2539 37.4893 87.7735 35.7124 89.8077 32.1777L92.961 26.7446C95.8267 21.8296 99.0406 17.2451 101.776 15.2232C104.363 9.7671 105.694 7.64259 106.856 7.64259C107.551 7.64259 109.319 10.3413 110.458 15.3472C116.546 19.1235 121.939 24.9649 121.939 28.6133C121.939 31.0816 116.957 35.2402 110.008 35.2402L109.54 35.2402C107.829 35.2402 106.952 36.1968 106.952 37.9448L106.952 38.4805C106.952 70.5567 87.5747 60.9507 87.5747 91.0596L87.5747 97.3658C87.5747 98.3443 88.1407 98.9102 89.1529 98.9102L89.9546 98.9102C92.5371 98.9102 93.8384 100.22 93.8384 102.216C93.8384 104.356 92.4429 105.507 89.7661 105.507L85.3272 105.507C82.3252 105.507 80.7813 103.903 80.7813 100.719C80.7813 95.9746 81.4346 92.7451 81.4346 85.1563C81.4346 82.5884 79.0992 75.5078 79.0992 71.6304C79.0992 69.8023 80.0757 67.5156 81.0894 65.0152C82.4805 61.6821 77.3301 59.6289 75.9019 63.1001C74.5532 66.4961 73.5479 69.4195 73.5479 71.9204C68.9058 73.1226 61.7232 73.9492 55.0103 73.9492C48.6778 73.9492 41.8823 72.7774 37.668 71.0415C39.2393 68.4903 40.9229 65.6768 41.5728 63.8584C42.7198 60.5825 37.9146 58.3257 36.1563 62.0562C34.2051 66.3828 32.1983 69.4453 30.5982 72.2783C28.165 76.5064 27.0991 79.2427 27.0991 84.439L27.0991 97.3658C27.0991 98.3745 27.6348 98.9102 28.6133 98.9102L29.4151 98.9102C31.9976 98.9102 33.3291 100.287 33.3291 102.216C33.3291 104.405 31.9336 105.507 29.2905 105.507ZM110.704 26.7163C112.292 26.7163 113.666 25.4248 113.666 23.7881C113.666 22.1514 112.292 20.811 110.704 20.811C109.067 20.811 107.727 22.1514 107.727 23.7881C107.727 25.4248 109.067 26.7163 110.704 26.7163Z" fill="#000000" fill-opacity="0.85"/>
 </g>
</svg>
