<?xml version="1.0" encoding="UTF-8"?>
<!--Generator: Apple Native CoreSVG 232.5-->
<!DOCTYPE svg
PUBLIC "-//W3C//DTD SVG 1.1//EN"
       "http://www.w3.org/Graphics/SVG/1.1/DTD/svg11.dtd">
<svg version="1.1" xmlns="http://www.w3.org/2000/svg" xmlns:xlink="http://www.w3.org/1999/xlink" width="126.293" height="109.876">
 <g>
  <rect height="109.876" opacity="0" width="126.293" x="0" y="0"/>
  <path d="M25.1191 109.876L29.5786 109.876C34.6924 109.876 37.6826 107.325 37.6826 102.74C37.6826 99.3745 35.1821 96.5728 30.5884 95.7173L30.5884 84.5064C30.5884 79.5596 31.7163 76.7173 34.5352 72.2769C41.9351 75.1851 48.1675 76.2862 55.0103 76.2862C62.4312 76.2862 70.4785 75.1983 75.6773 73.7974C76.7466 77.9141 77.9453 82.5459 77.9453 86.3238C77.9453 92.4673 77.2769 97.3731 77.2769 102.209C77.2769 107.325 79.9727 109.876 85.1065 109.876L90.0542 109.876C95.0821 109.876 98.2071 107.157 98.2071 102.74C98.2071 99.0528 96.0806 96.5054 91.9283 95.8555L91.9283 91.0596C91.9283 65.3325 110.983 72.4771 111.305 39.437C120.063 38.9805 126.293 33.2642 126.293 29.1035C126.293 23.2402 120.045 17.1094 112.936 12.0459C111.483 6.75537 108.782 2.42481 106.384 2.42481C104.175 2.42481 100.998 5.98145 98.8345 11.7822C95.0274 15.4043 91.6314 20.3106 89.0235 24.7842L86.5323 28.8848C85.0318 31.5996 83.7452 33.1206 81.9029 33.1206C63.7842 33.1206 56.1792 30.4771 38.814 30.4771C30.126 30.4771 24.8423 33.6641 21.6851 37.895C20.1475 39.8281 19.0142 40.2442 16.3652 39.2656C9.93556 37.1558 5.52101 31.2173 5.52101 23.6792C5.52101 13.4507 13.6651 6.34718 25.1211 6.34718C29.4365 6.34718 33.8462 7.25636 38.916 9.29542C42.8823 10.8701 44.7183 5.60693 41.124 4.10791C35.4058 1.83642 30.0479 0.811031 25.1211 0.811031C10.1773 0.811031 0 10.1177 0 23.6792C0 33.5718 5.54785 41.3394 14.0659 44.251C16.3696 45.0982 17.1143 46.6543 17.0049 49.1953C16.6616 53.1646 16.6616 55.3281 16.6616 56.7778C16.6616 71.9932 9.84229 74.9473 11.7046 81.7989L17.5474 103.37C18.7647 107.803 21.4097 109.876 25.1191 109.876ZM111.534 25.9194C109.999 25.9194 108.759 24.729 108.759 23.1782C108.759 21.6426 109.999 20.4033 111.534 20.4033C113.036 20.4033 114.275 21.6426 114.275 23.1782C114.275 24.729 113.036 25.9194 111.534 25.9194Z" fill="#000000" fill-opacity="0.85"/>
 </g>
</svg>
