<?xml version="1.0" encoding="UTF-8"?>
<!--Generator: Apple Native CoreSVG 232.5-->
<!DOCTYPE svg
PUBLIC "-//W3C//DTD SVG 1.1//EN"
       "http://www.w3.org/Graphics/SVG/1.1/DTD/svg11.dtd">
<svg version="1.1" xmlns="http://www.w3.org/2000/svg" xmlns:xlink="http://www.w3.org/1999/xlink" width="97.9595" height="97.9932">
 <g>
  <rect height="97.9932" opacity="0" width="97.9595" x="0" y="0"/>
  <path d="M48.9722 97.9443C75.8247 97.9443 97.9595 75.7759 97.9595 48.9722C97.9595 22.1348 75.791 0 48.9385 0C22.1348 0 0 22.1348 0 48.9722C0 75.7759 22.1685 97.9443 48.9722 97.9443ZM48.9722 91.6113C25.3501 91.6113 6.36671 72.5942 6.36671 48.9722C6.36671 25.3501 25.3164 6.31789 48.9385 6.31789C72.5605 6.31789 91.6265 25.3501 91.6265 48.9722C91.6265 72.5942 72.5942 91.6113 48.9722 91.6113Z" fill="#000000" fill-opacity="0.85"/>
  <path d="M30.46 49.1001C30.46 62.0669 36.749 70.501 46.9224 71.668L46.9224 75.7105C46.9224 76.9634 47.8301 77.7583 48.9551 77.7583C50.1104 77.7583 50.9692 76.9634 50.9692 75.7105L50.9692 71.7168C58.3491 71.252 63.6597 67.1353 65.5776 61.2759C65.8252 60.5401 66.0357 59.7251 66.0357 58.8916C66.0357 57.4819 65.0757 56.458 63.6777 56.458C62.3657 56.458 61.48 57.2495 61.1245 58.5767C60.1865 63.2163 56.3076 66.4907 50.9692 67.0195L50.9692 31.4937C56.0449 32.105 59.8867 35.6924 60.9038 40.2007C61.293 41.6626 62.0322 42.2554 63.4268 42.2554C64.8701 42.2554 65.8301 41.2954 65.7998 39.7915C65.7998 39.022 65.6045 38.2676 65.3418 37.5469C63.4087 31.5967 57.8877 27.2949 50.9692 26.7324L50.9692 23.0449C50.9692 21.792 50.1104 21.0308 48.9551 21.0308C47.7661 21.0308 46.9224 21.792 46.9224 23.0449L46.9224 26.7812C36.7676 27.9331 30.46 36.3589 30.46 49.1001ZM35.6255 49.1001C35.6255 39.4107 39.8228 32.8106 46.9224 31.6099L46.9224 66.8882C39.8379 65.6689 35.6255 58.9663 35.6255 49.1001Z" fill="#000000" fill-opacity="0.85"/>
 </g>
</svg>
