<?xml version="1.0" encoding="UTF-8"?>
<!--Generator: Apple Native CoreSVG 232.5-->
<!DOCTYPE svg
PUBLIC "-//W3C//DTD SVG 1.1//EN"
       "http://www.w3.org/Graphics/SVG/1.1/DTD/svg11.dtd">
<svg version="1.1" xmlns="http://www.w3.org/2000/svg" xmlns:xlink="http://www.w3.org/1999/xlink" width="107.333" height="97.9932">
 <g>
  <rect height="97.9932" opacity="0" width="107.333" x="0" y="0"/>
  <path d="M58.3575 97.9443C85.1612 97.9443 107.33 75.7759 107.33 48.9722C107.33 22.1348 85.1612 0 58.3575 0C31.5201 0 9.38533 22.1011 9.38533 48.9385L15.7032 48.9385C15.7032 25.3164 34.7354 6.35158 58.3575 6.35158C81.9796 6.35158 101.012 25.3501 101.012 48.9722C101.012 72.5942 81.9796 91.6787 58.3575 91.6113C43.5182 91.5928 30.6148 84.0068 22.9474 72.5923C21.8121 71.0444 20.047 70.561 18.4806 71.479C16.9967 72.397 16.5655 74.4165 17.8018 76.0655C26.943 89.0161 41.5392 97.9443 58.3575 97.9443ZM2.84969 40.0024C7.79875e-05 40.0024-0.788009 41.9561 0.828693 44.2666L11.4786 59.4307C12.8326 61.3438 14.7677 61.3101 16.1031 59.4307L26.753 44.2329C28.336 41.9561 27.5479 40.0024 24.7169 40.0024Z" fill="#000000" fill-opacity="0.85"/>
  <path d="M39.8302 49.1001C39.8302 62.0669 46.168 70.501 56.3414 71.668L56.3414 75.7105C56.3414 76.9634 57.2154 77.7583 58.3404 77.7583C59.5294 77.7583 60.3731 76.9634 60.3731 75.7105L60.3731 71.7168C67.7682 71.252 73.0787 67.1353 74.9815 61.2759C75.2442 60.5401 75.4547 59.7251 75.4547 58.8916C75.4547 57.4819 74.461 56.458 73.0631 56.458C71.7848 56.458 70.899 57.2495 70.5435 58.5767C69.6055 63.2163 65.693 66.4907 60.3731 67.0195L60.3731 31.4937C65.4303 32.105 69.3057 35.6924 70.3228 40.2007C70.712 41.6626 71.4513 42.2554 72.8121 42.2554C74.2555 42.2554 75.2491 41.2954 75.1851 39.7915C75.1851 39.022 75.0235 38.2676 74.7608 37.5469C72.8277 31.5967 67.273 27.2949 60.3731 26.7324L60.3731 23.0449C60.3731 21.792 59.5294 21.0308 58.3404 21.0308C57.1851 21.0308 56.3414 21.792 56.3414 23.0449L56.3414 26.7812C46.1529 27.9331 39.8302 36.3589 39.8302 49.1001ZM45.0108 49.1001C45.0108 39.4107 49.2418 32.8106 56.3414 31.6099L56.3414 66.8882C49.2232 65.6689 45.0108 58.9663 45.0108 49.1001Z" fill="#000000" fill-opacity="0.85"/>
 </g>
</svg>
