<?xml version="1.0" encoding="UTF-8"?>
<!--Generator: Apple Native CoreSVG 232.5-->
<!DOCTYPE svg
PUBLIC "-//W3C//DTD SVG 1.1//EN"
       "http://www.w3.org/Graphics/SVG/1.1/DTD/svg11.dtd">
<svg version="1.1" xmlns="http://www.w3.org/2000/svg" xmlns:xlink="http://www.w3.org/1999/xlink" width="127.636" height="82.3926">
 <g>
  <rect height="82.3926" opacity="0" width="127.636" x="0" y="0"/>
  <path d="M112.6 82.3438L123.058 82.3438C125.797 82.3438 127.636 80.4678 127.636 77.6724L127.636 4.67139C127.636 1.87598 125.797 0 123.058 0L112.6 0C109.86 0 107.988 1.87598 107.988 4.67139L107.988 77.6724C107.988 80.4678 109.86 82.3438 112.6 82.3438Z" fill="#000000" fill-opacity="0.85"/>
  <path d="M76.6216 82.3438L87.0269 82.3438C89.7515 82.3438 91.6392 80.4678 91.6392 77.6724L91.6392 23.7163C91.6392 20.9209 89.7515 19.0449 87.0269 19.0449L76.6216 19.0449C73.8482 19.0449 72.0093 20.9209 72.0093 23.7163L72.0093 77.6724C72.0093 80.4678 73.8482 82.3438 76.6216 82.3438Z" fill="#000000" fill-opacity="0.85"/>
  <path d="M40.6245 82.3438L51.0147 82.3438C53.7881 82.3438 55.627 80.4678 55.627 77.6724L55.627 41.165C55.627 38.3696 53.7881 36.4937 51.0147 36.4937L40.6245 36.4937C37.8511 36.4937 36.0122 38.3696 36.0122 41.165L36.0122 77.6724C36.0122 80.4678 37.8511 82.3438 40.6245 82.3438Z" fill="#000000" fill-opacity="0.85"/>
  <path d="M4.61231 82.3438L15.0025 82.3438C17.7759 82.3438 19.6299 80.4678 19.6299 77.6724L19.6299 56.2178C19.6299 53.4375 17.7759 51.5801 15.0025 51.5801L4.61231 51.5801C1.83887 51.5801 0 53.4375 0 56.2178L0 77.6724C0 80.4678 1.83887 82.3438 4.61231 82.3438Z" fill="#000000" fill-opacity="0.85"/>
 </g>
</svg>
