<?xml version="1.0" encoding="UTF-8"?>
<!--Generator: Apple Native CoreSVG 232.5-->
<!DOCTYPE svg
PUBLIC "-//W3C//DTD SVG 1.1//EN"
       "http://www.w3.org/Graphics/SVG/1.1/DTD/svg11.dtd">
<svg version="1.1" xmlns="http://www.w3.org/2000/svg" xmlns:xlink="http://www.w3.org/1999/xlink" width="107.333" height="97.9932">
 <g>
  <rect height="97.9932" opacity="0" width="107.333" x="0" y="0"/>
  <path d="M58.3575 97.9443C85.1612 97.9443 107.33 75.7759 107.33 48.9722C107.33 22.1348 85.1612 0 58.3575 0C31.5201 0 9.38533 22.1011 9.38533 48.9385L15.7032 48.9385C15.7032 25.3164 34.7354 6.35158 58.3575 6.35158C81.9796 6.35158 101.012 25.3501 101.012 48.9722C101.012 72.5942 81.9796 91.6787 58.3575 91.6113C43.5182 91.5928 30.6148 84.0068 22.9474 72.5923C21.8121 71.0444 20.047 70.561 18.4806 71.479C16.9967 72.397 16.5655 74.4165 17.8018 76.0655C26.943 89.0161 41.5392 97.9443 58.3575 97.9443ZM2.84969 40.0024C7.79875e-05 40.0024-0.788009 41.9561 0.828693 44.2666L11.4786 59.4307C12.8326 61.3438 14.7677 61.3101 16.1031 59.4307L26.753 44.2329C28.336 41.9561 27.5479 40.0024 24.7169 40.0024Z" fill="#000000" fill-opacity="0.85"/>
  <path d="M42.8663 48.9722C42.8663 58.7769 48.1046 65.2359 56.276 66.1924L56.276 69.9907C56.276 71.1494 57.1534 71.9898 58.3238 71.9898C59.4791 71.9898 60.3228 71.1494 60.3228 69.9907L60.3228 66.2261C66.3272 65.6148 70.6764 62.19 72.1412 57.708C72.2389 57.186 72.3888 56.6909 72.3888 56.2261C72.3888 54.835 71.3917 53.9204 70.0308 53.9204C68.8941 53.9204 68.2086 54.5352 67.7472 55.7139C66.5787 58.8604 63.9879 61.0405 60.3228 61.5996L60.3228 36.375C63.9542 36.919 66.545 39.148 67.6495 42.1665C68.19 43.522 68.9244 44.103 70.0645 44.103C71.4254 44.103 72.3702 43.1733 72.3702 41.7637C72.3702 41.2837 72.2052 40.8223 72.1075 40.334C70.6578 35.8823 66.2633 32.3784 60.3228 31.7671L60.3228 28.0327C60.3228 26.8589 59.4791 26 58.3238 26C57.1534 26 56.276 26.8589 56.276 28.0327L56.276 31.8008C48.1046 32.7573 42.8663 39.2197 42.8663 48.9722ZM47.796 48.9873C47.796 42.0322 51.0435 37.4326 56.276 36.4273L56.276 61.5322C51.0284 60.5757 47.796 56.0098 47.796 48.9873Z" fill="#000000" fill-opacity="0.85"/>
 </g>
</svg>
