<?xml version="1.0" encoding="UTF-8"?>
<!--Generator: Apple Native CoreSVG 232.5-->
<!DOCTYPE svg
PUBLIC "-//W3C//DTD SVG 1.1//EN"
       "http://www.w3.org/Graphics/SVG/1.1/DTD/svg11.dtd">
<svg version="1.1" xmlns="http://www.w3.org/2000/svg" xmlns:xlink="http://www.w3.org/1999/xlink" width="88.4092" height="88.5371">
 <g>
  <rect height="88.5371" opacity="0" width="88.4092" x="0" y="0"/>
  <path d="M88.4092 14.4019L88.4092 74.2632C88.4092 83.6558 83.5733 88.5371 74.0005 88.5371L14.3936 88.5371C4.86963 88.5371 0 83.7349 0 74.2632L0 14.4019C0 4.93018 4.86963 0.127929 14.3936 0.127929L74.0005 0.127929C83.5733 0.127929 88.4092 5.00928 88.4092 14.4019ZM42.1138 22.8481L42.1138 26.6836C33.7554 27.6738 28.4009 34.271 28.4009 44.2441C28.4009 54.2695 33.7554 60.8633 42.1138 61.8535L42.1138 65.7041C42.1138 66.9116 42.9912 67.7705 44.1802 67.7705C45.4028 67.7705 46.2466 66.9116 46.2466 65.7041L46.2466 61.8872C52.3858 61.2422 56.8359 57.75 58.2857 53.1821C58.4321 52.645 58.5484 52.165 58.5484 51.6514C58.5484 50.2417 57.5361 49.2935 56.1416 49.2935C54.9863 49.2935 54.2334 49.9419 53.772 51.1206C52.6035 54.3345 49.979 56.5483 46.2466 57.126L46.2466 31.3774C49.9453 31.9551 52.5698 34.2329 53.7231 37.3189C54.2485 38.708 55.0166 39.2739 56.1753 39.2739C57.5698 39.2739 58.5147 38.3106 58.5147 36.8672C58.5147 36.3687 58.3984 35.9072 58.2671 35.4189C56.8023 30.8662 52.3218 27.2949 46.2466 26.6499L46.2466 22.8481C46.2466 21.6558 45.4028 20.748 44.1802 20.748C42.9912 20.748 42.1138 21.6558 42.1138 22.8481ZM42.1138 57.0249C36.7651 56.0684 33.4805 51.4165 33.4805 44.2593C33.4805 37.1846 36.7803 32.4839 42.1138 31.4785Z" fill="#000000" fill-opacity="0.85"/>
 </g>
</svg>
