<?xml version="1.0" encoding="UTF-8"?>
<!--Generator: Apple Native CoreSVG 232.5-->
<!DOCTYPE svg
PUBLIC "-//W3C//DTD SVG 1.1//EN"
       "http://www.w3.org/Graphics/SVG/1.1/DTD/svg11.dtd">
<svg version="1.1" xmlns="http://www.w3.org/2000/svg" xmlns:xlink="http://www.w3.org/1999/xlink" width="88.4092" height="88.5371">
 <g>
  <rect height="88.5371" opacity="0" width="88.4092" x="0" y="0"/>
  <path d="M14.3936 88.5371L74.0005 88.5371C83.5733 88.5371 88.4092 83.6558 88.4092 74.2632L88.4092 14.4019C88.4092 5.00928 83.5733 0.127929 74.0005 0.127929L14.3936 0.127929C4.86963 0.127929 0 4.93018 0 14.4019L0 74.2632C0 83.7349 4.86963 88.5371 14.3936 88.5371ZM14.5064 82.4922C9.00294 82.4922 6.04494 79.6016 6.04494 73.9634L6.04494 14.7017C6.04494 9.06349 9.00294 6.17287 14.5064 6.17287L73.9028 6.17287C79.2969 6.17287 82.3643 9.06349 82.3643 14.7017L82.3643 73.9634C82.3643 79.6016 79.2969 82.4922 73.9028 82.4922Z" fill="#000000" fill-opacity="0.85"/>
  <path d="M28.7563 44.2441C28.7563 54.0488 34.0098 60.5078 42.1812 61.4644L42.1812 65.2627C42.1812 66.4214 43.0249 67.2617 44.1802 67.2617C45.3691 67.2617 46.2129 66.4214 46.2129 65.2627L46.2129 61.4981C52.2173 60.8867 56.5816 57.4619 57.9976 52.98C58.1441 52.458 58.2603 51.9629 58.2603 51.4981C58.2603 50.1069 57.2817 49.1924 55.9209 49.1924C54.7993 49.1924 54.0649 49.8071 53.6035 50.9858C52.4688 54.1323 49.8779 56.3125 46.2129 56.8716L46.2129 31.647C49.8442 32.1909 52.4502 34.4199 53.5547 37.4385C54.0952 38.794 54.8145 39.375 55.9546 39.375C57.3154 39.375 58.2266 38.4453 58.2266 37.0356C58.2266 36.5557 58.1104 36.0942 57.9639 35.606C56.5479 31.1543 52.1685 27.6504 46.2129 27.0391L46.2129 23.3047C46.2129 22.1309 45.3691 21.272 44.1802 21.272C43.0249 21.272 42.1812 22.1309 42.1812 23.3047L42.1812 27.0728C34.0098 28.0293 28.7563 34.4917 28.7563 44.2441ZM33.7012 44.2593C33.7012 37.3042 36.9487 32.7046 42.1812 31.6992L42.1812 56.8042C36.9185 55.8477 33.7012 51.2817 33.7012 44.2593Z" fill="#000000" fill-opacity="0.85"/>
 </g>
</svg>
