<?xml version="1.0" encoding="UTF-8"?>
<!--Generator: Apple Native CoreSVG 232.5-->
<!DOCTYPE svg
PUBLIC "-//W3C//DTD SVG 1.1//EN"
       "http://www.w3.org/Graphics/SVG/1.1/DTD/svg11.dtd">
<svg version="1.1" xmlns="http://www.w3.org/2000/svg" xmlns:xlink="http://www.w3.org/1999/xlink" width="105.998" height="105.197">
 <g>
  <rect height="105.197" opacity="0" width="105.998" x="0" y="0"/>
  <path d="M105.998 27.0293L105.998 66.2935C105.998 79.3286 98.5029 86.9883 85.2539 86.9883L49.461 86.9883L31.7886 102.769C30.0537 104.387 28.8799 105.197 27.3389 105.197C25.146 105.197 23.8408 103.604 23.8408 101.152L23.8408 86.9883L20.7437 86.9883C7.47949 86.9883 0 79.4077 0 66.2935L0 27.0293C0 13.8999 7.47949 6.28565 20.7437 6.28565L85.2539 6.28565C98.5029 6.28565 105.998 13.979 105.998 27.0293ZM48.6929 26.1123L34.1426 64.9331C33.8091 65.814 33.7266 66.3345 33.7266 66.9341C33.7266 68.5459 34.8735 69.6289 36.6841 69.6289C38.1123 69.6289 39.0488 68.9956 39.6973 67.1177L43.8135 55.5615L62.1875 55.5615L66.3037 67.1177C66.9522 68.9805 67.9038 69.6289 69.396 69.6289C71.1123 69.6289 72.2744 68.5156 72.2744 66.9492C72.2744 66.3345 72.1919 65.814 71.8584 64.9331L57.3081 26.1123C56.5586 24.0811 55.0747 23.0806 52.9912 23.0806C50.8926 23.0806 49.4424 24.0811 48.6929 26.1123ZM60.5488 50.6841L45.4522 50.6841L52.7925 30.1304L53.2085 30.1304Z" fill="#000000" fill-opacity="0.85"/>
 </g>
</svg>
