<?xml version="1.0" encoding="UTF-8"?>
<!--Generator: Apple Native CoreSVG 232.5-->
<!DOCTYPE svg
PUBLIC "-//W3C//DTD SVG 1.1//EN"
       "http://www.w3.org/Graphics/SVG/1.1/DTD/svg11.dtd">
<svg version="1.1" xmlns="http://www.w3.org/2000/svg" xmlns:xlink="http://www.w3.org/1999/xlink" width="120.062" height="88.5371">
 <g>
  <rect height="88.5371" opacity="0" width="120.062" x="0" y="0"/>
  <path d="M17.2554 88.5371L102.821 88.5371C112.394 88.5371 117.23 83.6558 117.23 74.2632L117.23 58.7993C117.23 56.896 116.117 55.7676 114.198 55.7676C112.28 55.7676 111.185 56.896 111.185 58.7993L111.185 73.9634C111.185 79.6016 108.084 82.4922 102.724 82.4922L17.3867 82.4922C11.8833 82.4922 8.9253 79.6016 8.9253 73.9634L8.9253 58.7993C8.9253 56.896 7.76319 55.7676 5.87842 55.7676C4.00879 55.7676 2.88037 56.896 2.88037 58.7993L2.88037 74.2632C2.88037 83.7349 7.75 88.5371 17.2554 88.5371ZM17.2554 0.127929C7.75 0.127929 2.88037 4.93018 2.88037 14.4019L2.88037 28.2568C2.88037 30.1602 4.00879 31.3223 5.87842 31.3223C7.76319 31.3223 8.9253 30.1602 8.9253 28.2568L8.9253 14.7017C8.9253 9.06349 11.8833 6.17287 17.3867 6.17287L102.724 6.17287C108.084 6.17287 111.185 9.06349 111.185 14.7017L111.185 28.2568C111.185 30.1602 112.313 31.3223 114.198 31.3223C116.15 31.3223 117.23 30.1602 117.23 28.2568L117.23 14.4019C117.23 5.00928 112.394 0.127929 102.821 0.127929ZM5.87842 49.2837C9.12159 49.2837 11.7568 46.645 11.7568 43.3867C11.7568 40.1772 9.12159 37.5571 5.87842 37.5571C2.66895 37.5571 0 40.1772 0 43.3867C0 46.645 2.66895 49.2837 5.87842 49.2837ZM114.198 49.2837C117.393 49.2837 120.062 46.645 120.062 43.3867C120.062 40.1772 117.393 37.5571 114.198 37.5571C110.94 37.5571 108.305 40.1436 108.305 43.3867C108.305 46.645 110.94 49.2837 114.198 49.2837Z" fill="#000000" fill-opacity="0.85"/>
  <path d="M44.0547 67.0757C45.4492 67.0757 46.3672 66.4424 46.9482 64.6318L50.9971 53.2627L69.083 53.2627L73.1318 64.6318C73.728 66.3784 74.6645 67.0757 76.1045 67.0757C77.7534 67.0757 78.9155 65.9624 78.9155 64.4634C78.9155 63.8486 78.7993 63.3467 78.4995 62.5146L64.2373 24.4233C63.4878 22.4595 62.0713 21.459 60.0215 21.459C57.9902 21.459 56.6074 22.4595 55.8765 24.4233L41.5957 62.5146C41.3296 63.3467 41.1797 63.8486 41.1797 64.4146C41.1797 66.0264 42.3115 67.0757 44.0547 67.0757ZM52.6357 48.5537L59.8564 28.3555L60.2725 28.3555L67.478 48.5537Z" fill="#000000" fill-opacity="0.85"/>
 </g>
</svg>
