<?xml version="1.0" encoding="UTF-8"?>
<!--Generator: Apple Native CoreSVG 232.5-->
<!DOCTYPE svg
PUBLIC "-//W3C//DTD SVG 1.1//EN"
       "http://www.w3.org/Graphics/SVG/1.1/DTD/svg11.dtd">
<svg version="1.1" xmlns="http://www.w3.org/2000/svg" xmlns:xlink="http://www.w3.org/1999/xlink" width="119.537" height="92.8613">
 <g>
  <rect height="92.8613" opacity="0" width="119.537" x="0" y="0"/>
  <path d="M26.7241 46.4063L26.9583 50.9333C16.3464 51.7355 10.605 56.4223 10.605 63.6611C10.605 71.2842 16.9688 76.3516 26.0298 76.3516C29.6833 76.3516 33.0867 75.5397 36.084 74.0256C37.0129 75.3489 38.0485 76.589 39.1814 77.7385C35.1007 80.5227 30.0241 82.1895 24.6821 82.1895C12.293 82.1895 3.72607 74.7691 3.72607 63.8345C3.72607 53.1089 11.6636 46.7393 26.3223 45.5454L26.7706 45.5054ZM37.0686 17.457C35.6442 19.1849 34.3597 21.0282 33.2529 22.9861C32.3347 22.8799 31.3735 22.8257 30.3735 22.8257C21.4375 22.8257 15.2759 26.647 12.3643 35.1065C11.8101 36.4605 10.877 37.0718 9.48243 37.0718C7.72901 37.0718 6.47754 35.8843 6.47754 33.9541C6.47754 32.8999 6.87158 31.4165 7.46778 30.0728C10.6318 22.2422 19.2446 16.8193 30.5083 16.8193C32.8677 16.8193 35.0435 17.0295 37.0686 17.457Z" fill="#000000" fill-opacity="0.85"/>
  <path d="M73.1304 92.8125C98.4609 92.8125 119.537 71.7368 119.537 46.4063C119.537 21.0908 98.4121 0 73.0816 0C47.7661 0 26.7241 21.0757 26.7241 46.4063C26.7241 71.7368 47.7998 92.8125 73.1304 92.8125ZM73.1304 86.6851C50.707 86.6851 32.9004 68.8447 32.9004 46.4063C32.9004 23.9678 50.6582 6.09376 73.0816 6.09376C95.4897 6.09376 113.345 23.9678 113.443 46.4063C113.492 68.8145 95.5689 86.6851 73.1304 86.6851ZM77.7485 89.0537L85.6851 88.9863L85.6851 34.1577C85.6851 19.0034 76.2954 9.07471 60.5718 7.68653C58.4859 7.5332 56.3931 7.49268 54.3457 7.59521L45.8272 16.0669C48.8745 15.0855 52.2417 14.6157 56.1528 14.6157C69.4751 14.6157 77.3594 22.2202 77.3594 34.9326L77.3594 42.1104L50.9902 43.8662C42.8672 44.4453 36.4341 46.3745 31.8291 49.5898L33.5283 58.2608C36.8853 53.8023 43.2393 51.105 52.085 50.4434L77.3594 48.6538L77.3594 59.0337C77.3594 71.1411 67.7285 81.0039 54.897 82.8115L61.561 88.001C68.8657 85.3291 74.6738 80.4033 77.2954 74.1797L77.7485 74.1797Z" fill="#000000" fill-opacity="0.85"/>
 </g>
</svg>
