<?xml version="1.0" encoding="UTF-8"?>
<!--Generator: Apple Native CoreSVG 232.5-->
<!DOCTYPE svg
PUBLIC "-//W3C//DTD SVG 1.1//EN"
       "http://www.w3.org/Graphics/SVG/1.1/DTD/svg11.dtd">
<svg version="1.1" xmlns="http://www.w3.org/2000/svg" xmlns:xlink="http://www.w3.org/1999/xlink" width="80.7363" height="104.094">
 <g>
  <rect height="104.094" opacity="0" width="80.7363" x="0" y="0"/>
  <path d="M0 89.7187C0 99.2578 4.80225 104.094 14.2739 104.094L66.4624 104.094C75.9341 104.094 80.7363 99.2578 80.7363 89.7187L80.7363 14.4356C80.7363 4.93018 75.9341 0.0268549 66.4624 0.0268549L14.2739 0.0268549C4.80225 0.0268549 0 4.93018 0 14.4356ZM6.04494 89.5874L6.04494 14.5669C6.04494 9.06349 8.93556 6.07179 14.5737 6.07179L66.1626 6.07179C71.8008 6.07179 74.6914 9.06349 74.6914 14.5669L74.6914 89.5874C74.6914 95.0908 71.8008 98.0488 66.1626 98.0488L14.5737 98.0488C8.93556 98.0488 6.04494 95.0908 6.04494 89.5874Z" fill="#000000" fill-opacity="0.85"/>
  <path d="M16.625 73.7085C14.729 73.7085 13.5874 74.9326 13.5874 76.8926L13.5874 85.8188C13.5874 87.7485 14.729 88.9878 16.625 88.9878L39.2554 88.9878C41.0689 88.9878 42.229 87.7485 42.229 85.8188L42.229 76.8926C42.229 74.9326 41.0689 73.7085 39.2554 73.7085Z" fill="#000000" fill-opacity="0.85"/>
  <path d="M16.625 54.1743C14.729 54.1743 13.5874 55.3496 13.5874 57.2456L13.5874 66.2544C13.5874 68.1992 14.729 69.4048 16.625 69.4048L55.8345 69.4048C57.6816 69.4048 58.8081 68.1992 58.8081 66.2544L58.8081 57.2456C58.8081 55.3496 57.6816 54.1743 55.8345 54.1743Z" fill="#000000" fill-opacity="0.85"/>
  <path d="M16.625 34.5762C14.729 34.5762 13.5874 35.8003 13.5874 37.7114L13.5874 46.6865C13.5874 48.5825 14.729 49.8218 16.625 49.8218L64.1787 49.8218C66.041 49.8218 67.1826 48.5825 67.1826 46.6226L67.1826 37.7114C67.1826 35.8003 66.041 34.5762 64.1787 34.5762Z" fill="#000000" fill-opacity="0.85"/>
  <path d="M16.625 14.978C14.729 14.978 13.5874 16.2022 13.5874 18.1621L13.5874 27.0884C13.5874 29.0181 14.729 30.2573 16.625 30.2573L47.3892 30.2573C49.2363 30.2573 50.3628 29.0181 50.3628 27.0884L50.3628 18.1621C50.3628 16.2022 49.2363 14.978 47.3892 14.978Z" fill="#000000" fill-opacity="0.85"/>
 </g>
</svg>
