<?xml version="1.0" encoding="UTF-8"?>
<!--Generator: Apple Native CoreSVG 232.5-->
<!DOCTYPE svg
PUBLIC "-//W3C//DTD SVG 1.1//EN"
       "http://www.w3.org/Graphics/SVG/1.1/DTD/svg11.dtd">
<svg version="1.1" xmlns="http://www.w3.org/2000/svg" xmlns:xlink="http://www.w3.org/1999/xlink" width="80.7363" height="104.094">
 <g>
  <rect height="104.094" opacity="0" width="80.7363" x="0" y="0"/>
  <path d="M13.9609 104.094L77.7534 104.094C79.4326 104.094 80.7363 102.809 80.7363 101.096C80.7363 99.8105 79.8823 98.6601 78.7134 98.229C72.1221 94.9853 70.6709 86.8296 76.8921 80.2417C78.793 78.2197 80.7363 75.6152 80.7363 70.9595L80.7363 14.4692C80.7363 4.96387 75.9341 0.0605464 66.4624 0.0605464L14.2739 0.0605464C4.80225 0.0605464 0 4.93018 0 14.4692L0 90.2773C0 99.3369 4.85108 104.094 13.9609 104.094ZM6.04494 79.1103L6.04494 14.6006C6.04494 9.09718 8.93556 6.10548 14.54 6.10548L66.1626 6.10548C71.8008 6.10548 74.6914 9.09718 74.6914 14.6006L74.6914 70.2183C74.6914 74.2475 72.5117 76.4272 68.4302 76.4272L14.5186 76.4272C10.8452 76.4272 8.17824 77.3379 6.04494 79.1103ZM14.2944 98.0488C8.98439 98.0488 6.04494 95.1851 6.04494 90.1982C6.04494 85.4404 9.30617 82.4722 14.5825 82.4722L65.7852 82.4722C66.8892 82.4722 67.8384 82.3477 68.6899 82.1138C65.7744 87.7822 66.5283 93.7588 70.206 98.0488ZM11.958 79.6274L17.0376 79.6274L17.0376 4.42823L11.958 4.42823ZM31.355 62.0493C32.5811 62.0493 33.398 61.4834 33.9453 59.8935L37.6875 49.4712L54.1982 49.4712L57.9253 59.8935C58.4541 61.4531 59.2559 62.0493 60.561 62.0493C62.0078 62.0493 63.0015 61.1045 63.0015 59.7402C63.0015 59.2114 62.919 58.7583 62.6528 58.0459L49.6104 23.2398C48.9619 21.4966 47.7139 20.6309 45.9336 20.6309C44.1231 20.6309 42.9087 21.4966 42.2603 23.2398L29.1841 58.0459C28.9517 58.7583 28.8355 59.2114 28.8355 59.7099C28.8355 61.1196 29.814 62.0493 31.355 62.0493ZM39.0904 45.271L45.7686 26.7676L46.1172 26.7676L52.7466 45.271Z" fill="#000000" fill-opacity="0.85"/>
 </g>
</svg>
