<?xml version="1.0" encoding="UTF-8"?>
<!--Generator: Apple Native CoreSVG 232.5-->
<!DOCTYPE svg
PUBLIC "-//W3C//DTD SVG 1.1//EN"
       "http://www.w3.org/Graphics/SVG/1.1/DTD/svg11.dtd">
<svg version="1.1" xmlns="http://www.w3.org/2000/svg" xmlns:xlink="http://www.w3.org/1999/xlink" width="68.082" height="97.3955">
 <g>
  <rect height="97.3955" opacity="0" width="68.082" x="0" y="0"/>
  <path d="M31.5103 97.2642C49.1563 97.2642 63.0693 83.3511 63.0693 65.7202C63.0693 48.0254 49.1563 34.146 31.4614 34.146C13.8306 34.146 0 48.0254 0 65.7202C0 83.3511 13.8794 97.2642 31.5103 97.2642ZM31.5103 90.98C17.2398 90.98 6.29933 80.0244 6.29933 65.7202C6.29933 51.4195 17.2246 40.4453 31.4614 40.4453C45.7959 40.4453 56.77 51.4195 56.77 65.7202C56.77 80.0244 45.8296 90.98 31.5103 90.98ZM56.77 65.7202L63.0693 65.7202L63.0693 12.1377L56.77 12.1377ZM59.9028 16.3736C64.4614 16.3736 68.082 12.7041 68.082 8.19435C68.082 3.66944 64.4614 0 59.9028 0C55.3628 0 51.6934 3.66944 51.6934 8.19435C51.6934 12.7041 55.3628 16.3736 59.9028 16.3736Z" fill="#000000" fill-opacity="0.85"/>
 </g>
</svg>
