<?xml version="1.0" encoding="UTF-8"?>
<!--Generator: Apple Native CoreSVG 232.5-->
<!DOCTYPE svg
PUBLIC "-//W3C//DTD SVG 1.1//EN"
       "http://www.w3.org/Graphics/SVG/1.1/DTD/svg11.dtd">
<svg version="1.1" xmlns="http://www.w3.org/2000/svg" xmlns:xlink="http://www.w3.org/1999/xlink" width="104.178" height="90.5361">
 <g>
  <rect height="90.5361" opacity="0" width="104.178" x="0" y="0"/>
  <path d="M61.0566 18.7798L82.5527 40.4189L91.3325 31.6206C92.7119 30.2563 94.4922 31.0278 94.9756 32.9731L101.46 60.981C101.91 62.8032 100.411 64.2197 98.6528 63.77L70.6636 57.2852C68.7183 56.8018 67.9468 55.04 69.3262 53.6758L78.0185 44.938L57.0395 23.6694C56.373 23.0029 55.688 22.6377 55.0366 22.6377C54.419 22.6377 53.7642 22.9878 53.0674 23.6694L34.1148 42.7134C32.148 44.7139 30.1963 45.6182 28.1284 45.6182C26.0606 45.6182 24.1763 44.7476 22.1421 42.7134L6.06007 26.6387L6.06007 17.6684L26.1592 37.8086C26.856 38.5054 27.4771 38.8555 28.1284 38.8555C28.7798 38.8555 29.416 38.5054 30.0977 37.8086L49.0654 18.7798C50.9985 16.7642 52.9688 15.8599 55.0366 15.8599C57.1382 15.8599 59.0713 16.7944 61.0566 18.7798Z" fill="#000000" fill-opacity="0.85"/>
  <path d="M0.0151366 87.2539C0.0151366 89.2646 1.32031 90.5361 3.33106 90.5361L101.146 90.5361C102.78 90.5361 104.178 89.2812 104.178 87.5684C104.178 85.874 102.78 84.5854 101.146 84.5854L7.21535 84.5854C6.34132 84.5854 6.06007 84.2891 6.06007 83.4302L6.06007 3.40235C6.06007 1.80225 4.77149 0.374025 3.07716 0.374025C1.31885 0.374025 0.0151366 1.80225 0.0151366 3.40235Z" fill="#000000" fill-opacity="0.85"/>
 </g>
</svg>
