<?xml version="1.0" encoding="UTF-8"?>
<!--Generator: Apple Native CoreSVG 232.5-->
<!DOCTYPE svg
PUBLIC "-//W3C//DTD SVG 1.1//EN"
       "http://www.w3.org/Graphics/SVG/1.1/DTD/svg11.dtd">
<svg version="1.1" xmlns="http://www.w3.org/2000/svg" xmlns:xlink="http://www.w3.org/1999/xlink" width="97.9595" height="97.9932">
 <g>
  <rect height="97.9932" opacity="0" width="97.9595" x="0" y="0"/>
  <path d="M48.9722 97.9443C75.8247 97.9443 97.9595 75.7759 97.9595 48.9722C97.9595 22.1348 75.791 0 48.9385 0C22.1348 0 0 22.1348 0 48.9722C0 75.7759 22.1685 97.9443 48.9722 97.9443ZM48.9722 91.6113C25.3501 91.6113 6.36671 72.5942 6.36671 48.9722C6.36671 25.3501 25.3164 6.31789 48.9385 6.31789C72.5605 6.31789 91.6265 25.3501 91.6265 48.9722C91.6265 72.5942 72.5942 91.6113 48.9722 91.6113Z" fill="#000000" fill-opacity="0.85"/>
  <path d="M23.1802 68.0313C23.1802 70.0234 24.4971 71.3403 26.5078 71.3403L73.6616 71.3403C74.8389 71.3403 75.8325 70.377 75.8325 69.1694C75.8325 67.977 74.8691 66.9683 73.6616 66.9683L27.8804 66.9683C27.6465 66.9683 27.6011 66.9565 27.6011 66.7041L27.6011 27.7525C27.6011 26.5449 26.6074 25.5513 25.3999 25.5513C24.2075 25.5513 23.1802 26.5449 23.1802 27.7525ZM60.4946 38.6382L60.4946 54.189C60.4946 55.6104 62.0171 56.3042 63.3223 55.5127L75.2368 47.9966C76.4258 47.2725 76.4258 45.6187 75.2705 44.9282L63.2583 37.4155C61.9497 36.6392 60.4946 37.2051 60.4946 38.6382ZM25.6157 48.667L61.3838 48.667L61.3838 44.2461L25.6157 44.2461Z" fill="#000000" fill-opacity="0.85"/>
 </g>
</svg>
