<?xml version="1.0" encoding="UTF-8"?>
<!--Generator: Apple Native CoreSVG 232.5-->
<!DOCTYPE svg
PUBLIC "-//W3C//DTD SVG 1.1//EN"
       "http://www.w3.org/Graphics/SVG/1.1/DTD/svg11.dtd">
<svg version="1.1" xmlns="http://www.w3.org/2000/svg" xmlns:xlink="http://www.w3.org/1999/xlink" width="120.313" height="91.5264">
 <g>
  <rect height="91.5264" opacity="0" width="120.313" x="0" y="0"/>
  <path d="M96.1934 90.9453L110.926 90.9453C117.134 90.9453 120.313 87.9194 120.313 81.856L120.313 9.10791C120.313 3.04444 117.134 0 110.926 0L96.1934 0C90.0523 0 86.8731 3.04444 86.8731 9.10791L86.8731 81.856C86.8731 87.9194 90.0523 90.9453 96.1934 90.9453Z" fill="#000000" fill-opacity="0.85"/>
  <path d="M52.7813 90.9453L67.5137 90.9453C73.7222 90.9453 76.8677 87.9194 76.8677 81.856L76.8677 23.29C76.8677 17.2266 73.7222 14.167 67.5137 14.167L52.7813 14.167C46.6065 14.167 43.4272 17.2266 43.4272 23.29L43.4272 81.856C43.4272 87.9194 46.6065 90.9453 52.7813 90.9453Z" fill="#000000" fill-opacity="0.85"/>
  <path d="M9.35401 90.9453L24.0527 90.9453C30.2612 90.9453 33.4404 87.9194 33.4404 81.856L33.4404 37.3325C33.4404 31.269 30.2612 28.2095 24.0527 28.2095L9.35401 28.2095C3.1792 28.2095 0 31.269 0 37.3325L0 81.856C0 87.9194 3.1792 90.9453 9.35401 90.9453Z" fill="#000000" fill-opacity="0.85"/>
 </g>
</svg>
