<?xml version="1.0" encoding="UTF-8"?>
<!--Generator: Apple Native CoreSVG 232.5-->
<!DOCTYPE svg
PUBLIC "-//W3C//DTD SVG 1.1//EN"
       "http://www.w3.org/Graphics/SVG/1.1/DTD/svg11.dtd">
<svg version="1.1" xmlns="http://www.w3.org/2000/svg" xmlns:xlink="http://www.w3.org/1999/xlink" width="121.227" height="91.5264">
 <g>
  <rect height="91.5264" opacity="0" width="121.227" x="0" y="0"/>
  <path d="M97.1065 91.3682L110.926 91.3682C117.726 91.3682 121.227 88.0542 121.227 81.4331L121.227 9.95362C121.227 3.33252 117.726 0 110.926 0L97.1065 0C90.3555 0 86.8731 3.33252 86.8731 9.95362L86.8731 81.4331C86.8731 88.0542 90.3555 91.3682 97.1065 91.3682ZM97.9707 85.645C94.3203 85.645 92.8506 84.1787 92.8506 80.5015L92.8506 10.8853C92.8506 7.22316 94.3203 5.70802 97.9707 5.70802L110.095 5.70802C113.779 5.70802 115.249 7.22316 115.249 10.8853L115.249 80.5015C115.249 84.1787 113.779 85.645 110.095 85.645Z" fill="#000000" fill-opacity="0.85"/>
  <path d="M53.6792 91.3682L67.5137 91.3682C74.2984 91.3682 77.7656 88.0542 77.7656 81.4331L77.7656 24.1206C77.7656 17.5147 74.2984 14.167 67.5137 14.167L53.6792 14.167C46.8945 14.167 43.4272 17.5147 43.4272 24.1206L43.4272 81.4331C43.4272 88.0542 46.8945 91.3682 53.6792 91.3682ZM54.5435 85.645C50.8594 85.645 49.4048 84.1787 49.4048 80.5015L49.4048 25.0674C49.4048 21.3901 50.8594 19.8902 54.5435 19.8902L66.668 19.8902C70.3672 19.8902 71.7881 21.3901 71.7881 25.0674L71.7881 80.5015C71.7881 84.1787 70.3672 85.645 66.668 85.645Z" fill="#000000" fill-opacity="0.85"/>
  <path d="M10.252 91.3682L24.0527 91.3682C30.8374 91.3682 34.3384 88.0542 34.3384 81.4331L34.3384 38.1631C34.3384 31.5571 30.8374 28.2095 24.0527 28.2095L10.252 28.2095C3.46729 28.2095 0 31.5571 0 38.1631L0 81.4331C0 88.0542 3.46729 91.3682 10.252 91.3682ZM11.0977 85.645C7.43214 85.645 5.97755 84.1787 5.97755 80.5015L5.97755 39.0947C5.97755 35.3989 7.43214 33.9326 11.0977 33.9326L23.207 33.9326C26.9063 33.9326 28.3608 35.3989 28.3608 39.0947L28.3608 80.5015C28.3608 84.1787 26.9063 85.645 23.207 85.645Z" fill="#000000" fill-opacity="0.85"/>
 </g>
</svg>
