<?xml version="1.0" encoding="UTF-8"?>
<!--Generator: Apple Native CoreSVG 232.5-->
<!DOCTYPE svg
PUBLIC "-//W3C//DTD SVG 1.1//EN"
       "http://www.w3.org/Graphics/SVG/1.1/DTD/svg11.dtd">
<svg version="1.1" xmlns="http://www.w3.org/2000/svg" xmlns:xlink="http://www.w3.org/1999/xlink" width="107.664" height="89.0957">
 <g>
  <rect height="89.0957" opacity="0" width="107.664" x="0" y="0"/>
  <path d="M0 86.0825C0 87.8106 1.39795 89.0654 2.99805 89.0654L104.632 89.0654C106.266 89.0654 107.664 87.8106 107.664 86.0825C107.664 84.3882 106.266 83.0996 104.632 83.0996L2.99805 83.0996C1.39795 83.0996 0 84.3882 0 86.0825Z" fill="#000000" fill-opacity="0.85"/>
  <path d="M83.1939 71.8174C83.1939 74.355 84.812 75.8755 87.4624 75.8755L99.5288 75.8755C102.115 75.8755 103.797 74.355 103.797 71.8174L103.797 37.7861C103.797 35.2637 102.115 33.6943 99.5288 33.6943L87.4624 33.6943C84.812 33.6943 83.1939 35.2637 83.1939 37.7861Z" fill="#000000" fill-opacity="0.85"/>
  <path d="M56.729 71.8174C56.729 74.355 58.396 75.8755 60.9673 75.8755L73.064 75.8755C75.6841 75.8755 77.3662 74.355 77.3662 71.8174L77.3662 15.3726C77.3662 12.8501 75.6841 11.3145 73.064 11.3145L60.9673 11.3145C58.396 11.3145 56.729 12.8501 56.729 15.3726Z" fill="#000000" fill-opacity="0.85"/>
  <path d="M30.2827 71.8174C30.2827 74.355 31.916 75.8755 34.5176 75.8755L46.6177 75.8755C49.2192 75.8755 50.8862 74.355 50.8862 71.8174L50.8862 4.05811C50.8862 1.53565 49.2192 0 46.6177 0L34.5176 0C31.916 0 30.2827 1.53565 30.2827 4.05811Z" fill="#000000" fill-opacity="0.85"/>
  <path d="M3.83301 71.8174C3.83301 74.355 5.48487 75.8755 8.10157 75.8755L20.168 75.8755C22.773 75.8755 24.4702 74.355 24.4702 71.8174L24.4702 26.7578C24.4702 24.269 22.773 22.6997 20.168 22.6997L8.10157 22.6997C5.48487 22.6997 3.83301 24.269 3.83301 26.7578Z" fill="#000000" fill-opacity="0.85"/>
 </g>
</svg>
