<?xml version="1.0" encoding="UTF-8"?>
<!--Generator: Apple Native CoreSVG 232.5-->
<!DOCTYPE svg
PUBLIC "-//W3C//DTD SVG 1.1//EN"
       "http://www.w3.org/Graphics/SVG/1.1/DTD/svg11.dtd">
<svg version="1.1" xmlns="http://www.w3.org/2000/svg" xmlns:xlink="http://www.w3.org/1999/xlink" width="97.9595" height="97.9932">
 <g>
  <rect height="97.9932" opacity="0" width="97.9595" x="0" y="0"/>
  <path d="M97.9595 49.021C97.9595 75.8584 75.8247 97.9932 48.9722 97.9932C22.1685 97.9932 0 75.8584 0 49.021C0 22.2173 22.1348 0.0488281 48.9385 0.0488281C75.791 0.0488281 97.9595 22.2173 97.9595 49.021ZM22.7168 27.4121L22.7168 68.4692C22.7168 70.5625 24.0522 71.9131 26.0967 71.9131L74.231 71.9131C75.4419 71.9131 76.4692 70.9009 76.4692 69.6748C76.4692 68.415 75.457 67.3877 74.231 67.3877L27.7725 67.3877C27.4038 67.3877 27.2573 67.2412 27.2573 66.854L27.2573 41.0195L34.0591 47.7676C35.125 48.8335 36.2398 49.3774 37.5869 49.3774C38.8818 49.3774 40.0151 48.8672 41.0962 47.7676L50.5244 38.2466C50.9385 37.8965 51.3374 37.9302 51.6387 38.2466L61.5918 48.3916L57.7397 52.2891C56.667 53.2827 57.248 54.8657 58.7671 55.2632L72.7964 58.4829C74.2144 58.8467 75.4067 57.6729 75.0581 56.2886L71.7896 42.2104C71.4072 40.6543 69.8208 40.1221 68.7817 41.1948L64.8237 45.1597L54.6094 34.7651C53.5923 33.6992 52.4102 33.125 51.0815 33.125C49.8018 33.125 48.6196 33.6655 47.5537 34.7651L38.144 44.2222C37.7603 44.6059 37.4775 44.6059 37.0449 44.2222L27.2573 34.4883L27.2573 27.4121C27.2573 26.186 26.23 25.125 25.0039 25.125C23.7778 25.125 22.7168 26.186 22.7168 27.4121Z" fill="#000000" fill-opacity="0.85"/>
 </g>
</svg>
