<?xml version="1.0" encoding="UTF-8"?>
<!--Generator: Apple Native CoreSVG 232.5-->
<!DOCTYPE svg
PUBLIC "-//W3C//DTD SVG 1.1//EN"
       "http://www.w3.org/Graphics/SVG/1.1/DTD/svg11.dtd">
<svg version="1.1" xmlns="http://www.w3.org/2000/svg" xmlns:xlink="http://www.w3.org/1999/xlink" width="97.9595" height="97.9932">
 <g>
  <rect height="97.9932" opacity="0" width="97.9595" x="0" y="0"/>
  <path d="M48.9722 97.9443C75.8247 97.9443 97.9595 75.7759 97.9595 48.9722C97.9595 22.1348 75.791 0 48.9385 0C22.1348 0 0 22.1348 0 48.9722C0 75.7759 22.1685 97.9443 48.9722 97.9443ZM48.9722 91.6113C25.3501 91.6113 6.36671 72.5942 6.36671 48.9722C6.36671 25.3501 25.3164 6.31789 48.9385 6.31789C72.5605 6.31789 91.6265 25.3501 91.6265 48.9722C91.6265 72.5942 72.5942 91.6113 48.9722 91.6113Z" fill="#000000" fill-opacity="0.85"/>
  <path d="M22.667 68.0313C22.667 70.0234 23.9839 71.3403 25.9761 71.3403L73.1299 71.3403C74.3071 71.3403 75.3345 70.377 75.3345 69.1694C75.3345 67.977 74.3223 66.9683 73.1299 66.9683L27.3486 66.9683C27.1148 66.9683 27.103 66.9043 27.103 66.7041L27.103 27.7525C27.103 26.5449 26.0757 25.5513 24.8682 25.5513C23.6758 25.5513 22.667 26.5449 22.667 27.7525ZM26.2744 56.4429L36.6397 46.1499C37.0537 45.7324 37.4038 45.7324 37.7539 46.1499L46.9951 55.4048C48.0947 56.4521 49.1909 56.9775 50.437 56.9775C51.7319 56.9775 52.8804 56.4521 53.8975 55.4048L63.9585 45.1787L67.8491 49.0762C68.8882 50.1304 70.3735 49.583 70.7559 48.1279L73.957 34.3379C74.3359 32.9873 73.1133 31.8472 71.729 32.1772L58.0215 35.311C56.5361 35.6597 55.9551 37.2764 56.9941 38.2026L60.8125 42.0815L50.979 52.0244C50.6592 52.4419 50.3125 52.4419 49.9473 52.0581L40.6387 42.6719C39.6065 41.606 38.4917 41.1143 37.1968 41.1143C35.8682 41.1143 34.8023 41.606 33.77 42.6719L23.1924 53.2817Z" fill="#000000" fill-opacity="0.85"/>
 </g>
</svg>
