<?xml version="1.0" encoding="UTF-8"?>
<!--Generator: Apple Native CoreSVG 232.5-->
<!DOCTYPE svg
PUBLIC "-//W3C//DTD SVG 1.1//EN"
       "http://www.w3.org/Graphics/SVG/1.1/DTD/svg11.dtd">
<svg version="1.1" xmlns="http://www.w3.org/2000/svg" xmlns:xlink="http://www.w3.org/1999/xlink" width="107.664" height="89.0957">
 <g>
  <rect height="89.0957" opacity="0" width="107.664" x="0" y="0"/>
  <path d="M2.99805 89.0654L104.632 89.0654C106.266 89.0654 107.664 87.8106 107.664 86.0825C107.664 84.3882 106.266 83.0996 104.632 83.0996L2.99805 83.0996C1.39795 83.0996 0 84.3882 0 86.0825C0 87.8106 1.39795 89.0654 2.99805 89.0654Z" fill="#000000" fill-opacity="0.85"/>
  <path d="M83.1939 71.8174C83.1939 74.355 84.8423 75.8755 87.4439 75.8755L99.4951 75.8755C102.13 75.8755 103.797 74.355 103.797 71.8174L103.797 4.05811C103.797 1.53565 102.13 0 99.4951 0L87.4439 0C84.8423 0 83.1939 1.53565 83.1939 4.05811Z" fill="#000000" fill-opacity="0.85"/>
  <path d="M56.729 71.8174C56.729 74.355 58.396 75.8755 60.9673 75.8755L73.064 75.8755C75.6841 75.8755 77.3662 74.355 77.3662 71.8174L77.3662 18.356C77.3662 15.8335 75.6841 14.313 73.064 14.313L60.9673 14.313C58.396 14.313 56.729 15.8335 56.729 18.356Z" fill="#000000" fill-opacity="0.85"/>
  <path d="M30.2827 71.8174C30.2827 74.355 31.9009 75.8755 34.5176 75.8755L46.6177 75.8755C49.2041 75.8755 50.8862 74.355 50.8862 71.8174L50.8862 32.6689C50.8862 30.1987 49.2041 28.6445 46.6177 28.6445L34.5176 28.6445C31.9009 28.6445 30.2827 30.1987 30.2827 32.6689Z" fill="#000000" fill-opacity="0.85"/>
  <path d="M3.83301 71.8174C3.83301 74.355 5.48487 75.8755 8.13526 75.8755L20.2017 75.8755C22.773 75.8755 24.4702 74.355 24.4702 71.8174L24.4702 47.0005C24.4702 44.478 22.773 42.9087 20.2017 42.9087L8.13526 42.9087C5.48487 42.9087 3.83301 44.478 3.83301 47.0005Z" fill="#000000" fill-opacity="0.85"/>
 </g>
</svg>
