<?xml version="1.0" encoding="UTF-8"?>
<!--Generator: Apple Native CoreSVG 232.5-->
<!DOCTYPE svg
PUBLIC "-//W3C//DTD SVG 1.1//EN"
       "http://www.w3.org/Graphics/SVG/1.1/DTD/svg11.dtd">
<svg version="1.1" xmlns="http://www.w3.org/2000/svg" xmlns:xlink="http://www.w3.org/1999/xlink" width="97.9595" height="97.9932">
 <g>
  <rect height="97.9932" opacity="0" width="97.9595" x="0" y="0"/>
  <path d="M97.9595 49.021C97.9595 75.8584 75.8247 97.9932 48.9722 97.9932C22.1685 97.9932 0 75.8584 0 49.021C0 22.2173 22.1348 0.0488281 48.9385 0.0488281C75.791 0.0488281 97.9595 22.2173 97.9595 49.021ZM22.1245 27.4121L22.1245 68.4692C22.1245 70.5625 23.4751 71.9131 25.5195 71.9131L73.605 71.9131C74.8159 71.9131 75.877 70.9009 75.877 69.6748C75.877 68.415 74.8462 67.3877 73.605 67.3877L27.1465 67.3877C26.793 67.3877 26.6802 67.2412 26.6802 66.854L26.6802 55.7979L36.419 46.1314C36.833 45.7476 37.1831 45.7476 37.5332 46.1314L46.9277 55.5884C48.0273 56.688 49.1909 57.2285 50.4707 57.2285C51.7842 57.2285 52.9815 56.6543 54.0322 55.5884L64.2466 45.209L68.2046 49.1738C69.2437 50.2466 70.8149 49.6992 71.2124 48.1582L74.4658 34.0649C74.8447 32.6807 73.5884 31.522 72.1704 31.8706L58.1748 35.1055C56.6709 35.4541 56.041 37.0708 57.1138 38.0645L60.9995 41.9619L51.0127 52.1069C50.6929 52.5244 50.3462 52.5244 49.981 52.1406L40.5039 42.6011C39.438 41.4863 38.3047 40.9761 36.9761 40.9761C35.6138 40.9761 34.5479 41.52 33.4819 42.6011L26.6802 49.3154L26.6802 27.4121C26.6802 26.186 25.6191 25.125 24.3931 25.125C23.1519 25.125 22.1245 26.186 22.1245 27.4121Z" fill="#000000" fill-opacity="0.85"/>
 </g>
</svg>
