<?xml version="1.0" encoding="UTF-8"?>
<!--Generator: Apple Native CoreSVG 232.5-->
<!DOCTYPE svg
PUBLIC "-//W3C//DTD SVG 1.1//EN"
       "http://www.w3.org/Graphics/SVG/1.1/DTD/svg11.dtd">
<svg version="1.1" xmlns="http://www.w3.org/2000/svg" xmlns:xlink="http://www.w3.org/1999/xlink" width="119.848" height="89.0987">
 <g>
  <rect height="89.0987" opacity="0" width="119.848" x="0" y="0"/>
  <path d="M94.5166 82.2295C108.763 82.2295 119.848 72.0742 119.848 59.2066C119.848 49.2554 114.272 40.5352 104.63 36.8945C105 15.6016 89.7954 0 70.3848 0C57.0918 0 47.9102 7.24658 42.4595 15.9883C30.7959 11.9883 17.8008 21.0737 17.7231 34.5034C6.96045 35.8374 0 45.2163 0 56.8731C0 70.835 12.0493 82.1841 28.1431 82.1841ZM94.4863 76.1846L28.1279 76.1543C15.46 76.1543 6.04494 67.4243 6.04494 56.8731C6.04494 47.0166 11.9985 39.2529 22.3198 39.2529C22.9429 39.2529 23.1719 38.9263 23.1719 38.3369C23.1719 23.9487 34.0874 18.5064 44.3242 22.2168C44.8648 22.4121 45.1914 22.2656 45.4693 21.7588C50.2661 13.2661 57.6172 6.04494 70.3848 6.04494C86.3853 6.04494 97.7871 18.6646 98.7837 33.8477C98.915 35.8516 98.7534 38.2158 98.6338 40.3443C98.6001 40.9033 98.8291 41.2451 99.3545 41.3765C108.211 43.5112 113.803 50.3233 113.803 59.2066C113.803 68.7578 105.401 76.1846 94.4863 76.1846Z" fill="#000000" fill-opacity="0.85"/>
  <path d="M55.7759 64.4629C57.0088 64.4629 58.0733 63.8936 58.8194 62.7163L79.334 29.1607C79.7315 28.5459 80.1846 27.6651 80.1846 26.8296C80.1846 25.105 78.7075 23.8569 76.9575 23.8569C75.8931 23.8569 74.8472 24.4902 74.2324 25.585L55.626 56.5083L46.2588 44.6743C45.5279 43.6924 44.5947 43.1753 43.4326 43.1753C41.7652 43.1753 40.3403 44.5093 40.3403 46.335C40.3403 47.1636 40.6553 47.9585 41.2515 48.7232L52.5977 62.7651C53.5425 63.9609 54.543 64.4629 55.7759 64.4629Z" fill="#000000" fill-opacity="0.85"/>
 </g>
</svg>
