<?xml version="1.0" encoding="UTF-8"?>
<!--Generator: Apple Native CoreSVG 232.5-->
<!DOCTYPE svg
PUBLIC "-//W3C//DTD SVG 1.1//EN"
       "http://www.w3.org/Graphics/SVG/1.1/DTD/svg11.dtd">
<svg version="1.1" xmlns="http://www.w3.org/2000/svg" xmlns:xlink="http://www.w3.org/1999/xlink" width="105.998" height="104.823">
 <g>
  <rect height="104.823" opacity="0" width="105.998" x="0" y="0"/>
  <path d="M28.0161 104.823C29.8789 104.823 31.2061 103.811 33.4126 101.886L50.5611 86.835L85.2539 86.835C98.5029 86.835 105.998 79.1416 105.998 66.1064L105.998 26.8423C105.998 13.792 98.5029 6.09863 85.2539 6.09863L20.7437 6.09863C7.47949 6.09863 0 13.7129 0 26.8423L0 66.1064C0 79.2207 7.47949 86.835 20.7437 86.835L23.8745 86.835L23.8745 99.9995C23.8745 102.927 25.4004 104.823 28.0161 104.823ZM29.5186 97.9917L29.5186 83.6348C29.5186 81.6035 28.7051 80.8052 26.6738 80.8052L20.7739 80.8052C11.1377 80.8052 6.04494 75.4429 6.04494 66.0273L6.04494 26.8726C6.04494 17.457 11.1377 12.1436 20.7739 12.1436L85.2085 12.1436C94.7354 12.1436 99.9526 17.457 99.9526 26.8726L99.9526 66.0273C99.9526 75.4429 94.7354 80.8052 85.2085 80.8052L50.5557 80.8052C48.336 80.8052 47.211 81.1353 45.6128 82.7368Z" fill="#000000" fill-opacity="0.85"/>
  <path d="M47.7632 69.6602C48.9961 69.6602 50.0303 69.0606 50.7764 67.9253L74.4834 30.8653C74.918 30.1646 75.3711 29.2988 75.3711 28.4971C75.3711 26.8447 73.8721 25.686 72.3057 25.686C71.3237 25.686 70.3603 26.3159 69.6782 27.3687L47.5796 62.2949L36.3257 48.4209C35.4751 47.252 34.6094 46.937 33.5635 46.937C31.9297 46.937 30.6665 48.2373 30.6665 49.9014C30.6665 50.7485 30.9815 51.5469 31.5137 52.293L44.5781 67.9253C45.5298 69.1431 46.4814 69.6602 47.7632 69.6602Z" fill="#000000" fill-opacity="0.85"/>
 </g>
</svg>
