<?xml version="1.0" encoding="UTF-8"?>
<!--Generator: Apple Native CoreSVG 232.5-->
<!DOCTYPE svg
PUBLIC "-//W3C//DTD SVG 1.1//EN"
       "http://www.w3.org/Graphics/SVG/1.1/DTD/svg11.dtd">
<svg version="1.1" xmlns="http://www.w3.org/2000/svg" xmlns:xlink="http://www.w3.org/1999/xlink" width="97.9595" height="97.9932">
 <g>
  <rect height="97.9932" opacity="0" width="97.9595" x="0" y="0"/>
  <path d="M48.9722 97.9443C75.8247 97.9443 97.9595 75.7759 97.9595 48.9722C97.9595 22.1348 75.791 0 48.9385 0C22.1348 0 0 22.1348 0 48.9722C0 75.7759 22.1685 97.9443 48.9722 97.9443ZM48.9722 91.6113C25.3501 91.6113 6.36671 72.5942 6.36671 48.9722C6.36671 25.3501 25.3164 6.31789 48.9385 6.31789C72.5605 6.31789 91.6265 25.3501 91.6265 48.9722C91.6265 72.5942 72.5942 91.6113 48.9722 91.6113Z" fill="#000000" fill-opacity="0.85"/>
  <path d="M43.6768 72.1655C44.9097 72.1655 45.9439 71.5659 46.7085 70.4307L70.4155 33.3706C70.8164 32.6362 71.2847 31.8042 71.2847 31.0025C71.2847 29.335 69.7705 28.1914 68.2041 28.1914C67.2559 28.1914 66.3076 28.8213 65.5767 29.874L43.5269 64.8003L32.2578 50.9263C31.3736 49.7573 30.5415 49.4424 29.4771 49.4424C27.877 49.4424 26.5649 50.7427 26.5649 52.4067C26.5649 53.2539 26.9136 54.0523 27.4609 54.7832L40.5103 70.4307C41.4434 71.6484 42.4136 72.1655 43.6768 72.1655Z" fill="#000000" fill-opacity="0.85"/>
 </g>
</svg>
