<?xml version="1.0" encoding="UTF-8"?>
<!--Generator: Apple Native CoreSVG 232.5-->
<!DOCTYPE svg
PUBLIC "-//W3C//DTD SVG 1.1//EN"
       "http://www.w3.org/Graphics/SVG/1.1/DTD/svg11.dtd">
<svg version="1.1" xmlns="http://www.w3.org/2000/svg" xmlns:xlink="http://www.w3.org/1999/xlink" width="97.9595" height="97.9932">
 <g>
  <rect height="97.9932" opacity="0" width="97.9595" x="0" y="0"/>
  <path d="M97.9595 48.9722C97.9595 75.7759 75.8247 97.9443 48.9722 97.9443C22.1685 97.9443 0 75.7759 0 48.9722C0 22.1348 22.1348 0 48.9385 0C75.791 0 97.9595 22.1348 97.9595 48.9722ZM65.8984 29.4512L43.4595 65.021L32.0034 50.9263C31.0855 49.7236 30.2534 49.375 29.1553 49.375C27.4878 49.375 26.1421 50.7427 26.1421 52.4404C26.1421 53.3062 26.5059 54.1533 27.0718 54.918L40.3418 70.8198C41.3086 72.0899 42.3276 72.6069 43.6094 72.6069C44.876 72.6069 45.9439 72.0073 46.7422 70.8198L70.8721 33.0674C71.3066 32.3145 71.7598 31.4487 71.7598 30.647C71.7598 28.9273 70.2271 27.7349 68.5933 27.7349C67.6113 27.7349 66.6294 28.3648 65.8984 29.4512Z" fill="#000000" fill-opacity="0.85"/>
 </g>
</svg>
