<?xml version="1.0" encoding="UTF-8"?>
<!--Generator: Apple Native CoreSVG 232.5-->
<!DOCTYPE svg
PUBLIC "-//W3C//DTD SVG 1.1//EN"
       "http://www.w3.org/Graphics/SVG/1.1/DTD/svg11.dtd">
<svg version="1.1" xmlns="http://www.w3.org/2000/svg" xmlns:xlink="http://www.w3.org/1999/xlink" width="114.35" height="88.4395">
 <g>
  <rect height="88.4395" opacity="0" width="114.35" x="0" y="0"/>
  <path d="M114.35 14.2739L114.35 74.169C114.35 83.5615 109.514 88.4092 99.9409 88.4092L14.3936 88.4092C4.86963 88.4092 0 83.6069 0 74.169L0 14.2739C0 4.83594 4.86963 0 14.3936 0L99.9409 0C109.514 0 114.35 4.88135 114.35 14.2739ZM74.1499 24.708L51.6958 60.2778L40.2061 46.168C39.3218 44.9805 38.4561 44.6318 37.3916 44.6318C35.6904 44.6318 34.3784 45.9995 34.3784 47.6973C34.3784 48.563 34.7085 49.4102 35.3081 50.1748L48.5596 66.0767C49.5449 67.3467 50.5303 67.8638 51.8457 67.8638C53.1123 67.8638 54.1802 67.2642 54.9448 66.0767L79.1084 28.3242C79.543 27.5713 79.9961 26.7056 79.9961 25.9038C79.9961 24.1841 78.4634 22.9917 76.8296 22.9917C75.814 22.9917 74.832 23.6216 74.1499 24.708Z" fill="#000000" fill-opacity="0.85"/>
 </g>
</svg>
