<?xml version="1.0" encoding="UTF-8"?>
<!--Generator: Apple Native CoreSVG 232.5-->
<!DOCTYPE svg
PUBLIC "-//W3C//DTD SVG 1.1//EN"
       "http://www.w3.org/Graphics/SVG/1.1/DTD/svg11.dtd">
<svg version="1.1" xmlns="http://www.w3.org/2000/svg" xmlns:xlink="http://www.w3.org/1999/xlink" width="109.143" height="109.211">
 <g>
  <rect height="109.211" opacity="0" width="109.143" x="0" y="0"/>
  <path d="M62.5341 4.18983L70.5683 12.16C71.4101 12.9681 72.1543 13.2274 73.2553 13.2274L84.5439 13.2274C92.4399 13.2274 95.8838 16.7538 95.8838 24.5824L95.8838 35.9047C95.8838 36.9721 96.207 37.7499 96.9848 38.5429L104.97 46.577C110.517 52.1088 110.551 57.0194 104.97 62.536L96.9848 70.5853C96.207 71.412 95.8838 72.1561 95.8838 73.2572L95.8838 84.5458C95.8838 92.4418 92.4062 95.8856 84.5439 95.8856L73.2553 95.8856C72.1543 95.8856 71.4101 96.1937 70.5683 96.9867L62.5341 104.972C57.0175 110.519 52.0917 110.553 46.5751 104.972L38.541 96.9867C37.7329 96.1937 36.955 95.8856 35.8876 95.8856L24.5805 95.8856C16.7031 95.8856 13.2255 92.4081 13.2255 84.5458L13.2255 73.2572C13.2255 72.1561 12.936 71.412 12.1582 70.5853L4.1728 62.536C-1.35894 57.0194-1.39263 52.1088 4.1728 46.577L12.1582 38.5429C12.936 37.7499 13.2255 36.9721 13.2255 35.9047L13.2255 24.5824C13.2255 16.6864 16.7031 13.2274 24.5805 13.2274L35.8876 13.2274C36.955 13.2274 37.7631 12.953 38.541 12.16L46.56 4.18983C52.0917-1.38733 56.9873-1.40588 62.5341 4.18983ZM71.5053 35.0448L49.0664 70.6146L37.6103 56.5048C36.6923 55.3173 35.8603 54.9349 34.7807 54.9349C33.0947 54.9349 31.749 56.2875 31.749 58.0341C31.749 58.8661 32.0976 59.7318 32.6635 60.5116L45.9487 76.4135C46.9155 77.6835 47.9194 78.1669 49.2163 78.1669C50.4677 78.1669 51.5356 77.5673 52.3491 76.4135L76.479 38.6273C76.8984 37.893 77.3667 37.0272 77.3667 36.2069C77.3667 34.5057 75.8339 33.3285 74.2338 33.3285C73.2182 33.3285 72.2211 33.9247 71.5053 35.0448Z" fill="#000000" fill-opacity="0.85"/>
 </g>
</svg>
