<?xml version="1.0" encoding="UTF-8"?>
<!--Generator: Apple Native CoreSVG 232.5-->
<!DOCTYPE svg
PUBLIC "-//W3C//DTD SVG 1.1//EN"
       "http://www.w3.org/Graphics/SVG/1.1/DTD/svg11.dtd">
<svg version="1.1" xmlns="http://www.w3.org/2000/svg" xmlns:xlink="http://www.w3.org/1999/xlink" width="107.868" height="98.4463">
 <g>
  <rect height="98.4463" opacity="0" width="107.868" x="0" y="0"/>
  <path d="M55.2817 80.7002L104.971 80.7002C106.583 80.7002 107.868 79.4673 107.868 77.8555C107.868 76.21 106.583 74.977 104.971 74.977L55.2817 74.977C53.6699 74.977 52.4033 76.21 52.4033 77.8555C52.4033 79.4673 53.6699 80.7002 55.2817 80.7002Z" fill="#000000" fill-opacity="0.85"/>
  <path d="M20.5908 98.4463C31.8535 98.4463 41.1665 89.1519 41.1665 77.9043C41.1665 66.5591 31.8232 57.2461 20.5908 57.2461C9.29444 57.2461 0 66.5591 0 77.9043C0 89.1519 9.29785 98.4463 20.5908 98.4463ZM18.1309 89.1987C17.272 89.1987 16.7095 88.7036 16.0981 88.0586L10.145 81.0244C9.71729 80.5781 9.5708 80.0679 9.5708 79.3623C9.5708 78.1582 10.5391 77.1748 11.7212 77.1748C12.5127 77.1748 13.1357 77.5015 13.6343 78.1836L18.0483 83.5322L27.3452 68.7954C27.8555 67.9888 28.5425 67.5459 29.2852 67.5459C30.501 67.5459 31.5366 68.5293 31.5366 69.6323C31.5366 70.2402 31.3413 70.7168 30.9473 71.3433L20.273 87.9795C19.7813 88.7861 19.084 89.1987 18.1309 89.1987Z" fill="#000000" fill-opacity="0.85"/>
  <path d="M55.2817 23.6494L104.971 23.6494C106.583 23.6494 107.868 22.4165 107.868 20.7861C107.868 19.1743 106.583 17.9414 104.971 17.9414L55.2817 17.9414C53.6699 17.9414 52.4033 19.1743 52.4033 20.7861C52.4033 22.4165 53.6699 23.6494 55.2817 23.6494Z" fill="#000000" fill-opacity="0.85"/>
  <path d="M20.5908 41.313C31.8535 41.313 41.1665 32.0186 41.1665 20.7861C41.1665 9.45947 31.8232 0.146484 20.5908 0.146484C9.29444 0.146484 0 9.45947 0 20.7861C0 32.0186 9.29785 41.313 20.5908 41.313ZM18.1309 32.0654C17.272 32.0654 16.7095 31.604 16.0981 30.9253L10.145 23.9248C9.71729 23.4937 9.5708 22.9683 9.5708 22.2627C9.5708 21.0586 10.5391 20.0415 11.7212 20.0415C12.5127 20.0415 13.1357 20.4019 13.6343 21.0503L18.0483 26.4141L27.3452 11.6621C27.8555 10.8892 28.5425 10.4463 29.2852 10.4463C30.501 10.4463 31.5366 11.4297 31.5366 12.5142C31.5366 13.1069 31.3413 13.6172 30.9473 14.2588L20.273 30.8799C19.7813 31.6528 19.084 32.0654 18.1309 32.0654Z" fill="#000000" fill-opacity="0.85"/>
 </g>
</svg>
