<?xml version="1.0" encoding="UTF-8"?>
<!--Generator: Apple Native CoreSVG 232.5-->
<!DOCTYPE svg
PUBLIC "-//W3C//DTD SVG 1.1//EN"
       "http://www.w3.org/Graphics/SVG/1.1/DTD/svg11.dtd">
<svg version="1.1" xmlns="http://www.w3.org/2000/svg" xmlns:xlink="http://www.w3.org/1999/xlink" width="81.6939" height="83.6992">
 <g>
  <rect height="83.6992" opacity="0" width="81.6939" x="0" y="0"/>
  <path d="M29.9136 83.6992C31.4683 83.6992 32.6743 82.9986 33.5283 81.6914L80.791 7.82424C81.458 6.74123 81.6939 5.95461 81.6939 5.14943C81.6939 3.11476 80.3447 1.76563 78.3252 1.76563C76.8565 1.76563 76.0396 2.24903 75.1855 3.60499L29.7637 75.1733L6.72219 46.3721C5.80421 45.1172 4.88624 44.5849 3.53712 44.5849C1.4502 44.5849 0 46.0351 0 48.0547C0 48.9053 0.367188 49.8569 1.08301 50.7564L26.1523 81.6392C27.2539 83.044 28.3589 83.6992 29.9136 83.6992Z" fill="#000000" fill-opacity="0.85"/>
 </g>
</svg>
