<?xml version="1.0" encoding="UTF-8"?>
<!--Generator: Apple Native CoreSVG 232.5-->
<!DOCTYPE svg
PUBLIC "-//W3C//DTD SVG 1.1//EN"
       "http://www.w3.org/Graphics/SVG/1.1/DTD/svg11.dtd">
<svg version="1.1" xmlns="http://www.w3.org/2000/svg" xmlns:xlink="http://www.w3.org/1999/xlink" width="105.998" height="105.197">
 <g>
  <rect height="105.197" opacity="0" width="105.998" x="0" y="0"/>
  <path d="M105.998 27.0293L105.998 66.2935C105.998 79.3286 98.5029 86.9883 85.2539 86.9883L49.461 86.9883L31.7886 102.769C30.0537 104.387 28.8799 105.197 27.3389 105.197C25.146 105.197 23.8408 103.604 23.8408 101.152L23.8408 86.9883L20.7437 86.9883C7.47949 86.9883 0 79.4077 0 66.2935L0 27.0293C0 13.8999 7.47949 6.28565 20.7437 6.28565L85.2539 6.28565C98.5029 6.28565 105.998 13.979 105.998 27.0293ZM69.9663 27.1143L47.4937 62.6689L36.0376 48.5742C35.1533 47.3867 34.2876 47.0229 33.208 47.0229C31.522 47.0229 30.21 48.3906 30.21 50.0884C30.21 50.9692 30.5249 51.8013 31.0908 52.5659L44.376 68.4678C45.3765 69.7529 46.3467 70.27 47.6773 70.27C48.9439 70.27 49.9966 69.6704 50.7764 68.4678L74.9063 30.7305C75.3594 29.9961 75.8276 29.0967 75.8276 28.3101C75.8276 26.5752 74.2949 25.398 72.6611 25.398C71.6455 25.398 70.6484 26.0127 69.9663 27.1143Z" fill="#000000" fill-opacity="0.85"/>
 </g>
</svg>
