<?xml version="1.0" encoding="UTF-8"?>
<!--Generator: Apple Native CoreSVG 232.5-->
<!DOCTYPE svg
PUBLIC "-//W3C//DTD SVG 1.1//EN"
       "http://www.w3.org/Graphics/SVG/1.1/DTD/svg11.dtd">
<svg version="1.1" xmlns="http://www.w3.org/2000/svg" xmlns:xlink="http://www.w3.org/1999/xlink" width="118.79" height="121.714">
 <g>
  <rect height="121.714" opacity="0" width="118.79" x="0" y="0"/>
  <path d="M90.2484 13.2232L28.5411 13.2232C28.8194 10.1133 30.9472 8.25976 34.2715 8.25976L84.5181 8.25976C87.8424 8.25976 89.9702 10.1133 90.2484 13.2232Z" fill="#000000" fill-opacity="0.85"/>
  <path d="M99.8986 26.0538C98.6693 25.8763 97.3699 25.7984 96.02 25.7984L22.7695 25.7984C21.4202 25.7984 20.1211 25.8758 18.8922 26.0524C19.3835 22.4249 21.9308 20.3633 25.9795 20.3633L92.8437 20.3633C96.8929 20.3633 99.4135 22.4254 99.8986 26.0538Z" fill="#000000" fill-opacity="0.85"/>
  <path d="M22.7695 113.338L96.02 113.338C105.559 113.338 110.429 108.472 110.429 99.064L110.429 48.4331C110.429 39.0405 105.559 34.1592 96.02 34.1592L22.7695 34.1592C13.2305 34.1592 8.36084 38.9951 8.36084 48.4331L8.36084 99.064C8.36084 108.502 13.2305 113.338 22.7695 113.338ZM22.9009 107.308C17.3975 107.308 14.4058 104.384 14.4058 98.7305L14.4058 48.7666C14.4058 43.1284 17.3975 40.189 22.9009 40.189L95.9072 40.189C101.268 40.189 104.384 43.1284 104.384 48.7666L104.384 98.7305C104.384 104.384 101.268 107.308 95.9072 107.308Z" fill="#000000" fill-opacity="0.85"/>
  <path d="M54.1499 96.9175C55.3828 96.9175 56.4019 96.3179 57.148 95.2315L80.8887 58.1226C81.2895 57.437 81.7427 56.5899 81.7427 55.7696C81.7427 54.1358 80.2436 52.9922 78.6772 52.9922C77.6953 52.9922 76.7319 53.5733 76.0498 54.6748L54 89.5859L42.731 75.7119C41.8467 74.5581 40.981 74.2095 39.9351 74.2095C38.3501 74.2095 37.0381 75.4946 37.0381 77.2075C37.0381 78.0059 37.3867 78.853 37.9189 79.584L50.9497 95.2315C51.9165 96.4492 52.853 96.9175 54.1499 96.9175Z" fill="#000000" fill-opacity="0.85"/>
 </g>
</svg>
