<?xml version="1.0" encoding="UTF-8"?>
<!--Generator: Apple Native CoreSVG 232.5-->
<!DOCTYPE svg
PUBLIC "-//W3C//DTD SVG 1.1//EN"
       "http://www.w3.org/Graphics/SVG/1.1/DTD/svg11.dtd">
<svg version="1.1" xmlns="http://www.w3.org/2000/svg" xmlns:xlink="http://www.w3.org/1999/xlink" width="107.868" height="98.4766">
 <g>
  <rect height="98.4766" opacity="0" width="107.868" x="0" y="0"/>
  <path d="M55.2817 80.7153L104.971 80.7153C106.583 80.7153 107.868 79.4824 107.868 77.8706C107.868 76.2251 106.583 74.9922 104.971 74.9922L55.2817 74.9922C53.6699 74.9922 52.4033 76.2251 52.4033 77.8706C52.4033 79.4824 53.6699 80.7153 55.2817 80.7153Z" fill="#000000" fill-opacity="0.85"/>
  <path d="M20.5908 98.4766C31.8232 98.4766 41.1665 89.1484 41.1665 77.8706C41.1665 66.5405 31.8232 57.2612 20.5908 57.2612C9.2793 57.2612 0 66.6045 0 77.8706C0 89.1333 9.29785 98.4766 20.5908 98.4766ZM20.5908 92.9219C12.3716 92.9219 5.5547 86.041 5.5547 77.8706C5.5547 69.6816 12.4204 62.7857 20.5908 62.7857C28.7461 62.7857 35.6421 69.6968 35.6421 77.8706C35.6421 86.041 28.7461 92.9219 20.5908 92.9219Z" fill="#000000" fill-opacity="0.85"/>
  <path d="M55.2817 23.6646L104.971 23.6646C106.583 23.6646 107.868 22.4316 107.868 20.8013C107.868 19.1895 106.583 17.9565 104.971 17.9565L55.2817 17.9565C53.6699 17.9565 52.4033 19.1895 52.4033 20.8013C52.4033 22.4316 53.6699 23.6646 55.2817 23.6646Z" fill="#000000" fill-opacity="0.85"/>
  <path d="M20.5908 41.3281C31.8535 41.3281 41.1665 32.0337 41.1665 20.8013C41.1665 9.47461 31.8232 0.161621 20.5908 0.161621C9.29444 0.161621 0 9.47461 0 20.8013C0 32.0337 9.29785 41.3281 20.5908 41.3281ZM18.1309 32.0806C17.272 32.0806 16.7095 31.6191 16.0981 30.9404L10.145 23.9399C9.71729 23.5088 9.5708 22.9834 9.5708 22.2778C9.5708 21.0737 10.5391 20.0566 11.7212 20.0566C12.5127 20.0566 13.1357 20.417 13.6343 21.0654L18.0483 26.4292L27.3452 11.6773C27.8555 10.9043 28.5425 10.4614 29.2852 10.4614C30.501 10.4614 31.5366 11.4448 31.5366 12.5293C31.5366 13.1221 31.3413 13.6323 30.9473 14.2739L20.273 30.895C19.7813 31.668 19.084 32.0806 18.1309 32.0806Z" fill="#000000" fill-opacity="0.85"/>
 </g>
</svg>
