<?xml version="1.0" encoding="UTF-8"?>
<!--Generator: Apple Native CoreSVG 232.5-->
<!DOCTYPE svg
PUBLIC "-//W3C//DTD SVG 1.1//EN"
       "http://www.w3.org/Graphics/SVG/1.1/DTD/svg11.dtd">
<svg version="1.1" xmlns="http://www.w3.org/2000/svg" xmlns:xlink="http://www.w3.org/1999/xlink" width="22.1182" height="84.7197">
 <g>
  <rect height="84.7197" opacity="0" width="22.1182" x="0" y="0"/>
  <path d="M6.85207 82.2251L20.6797 47.5772C21.3467 45.9063 22.1182 43.8379 22.1182 42.2647C22.1182 40.6763 21.3467 38.6079 20.6797 36.937L6.85207 2.28907C6.28615 0.823733 5.01955 0 3.72755 0C1.58838 0 0 1.55469 0 3.6753C0 4.72804 0.587893 6.16652 0.921389 7.13332L15.9214 44.7627L15.9214 39.7515L0.921389 77.3809C0.587893 78.3477 0 79.7676 0 80.8389C0 82.9932 1.58838 84.5479 3.72755 84.5479C5.01955 84.5479 6.28615 83.6904 6.85207 82.2251Z" fill="#000000" fill-opacity="0.85"/>
 </g>
</svg>
