<?xml version="1.0" encoding="UTF-8"?>
<!--Generator: Apple Native CoreSVG 232.5-->
<!DOCTYPE svg
PUBLIC "-//W3C//DTD SVG 1.1//EN"
       "http://www.w3.org/Graphics/SVG/1.1/DTD/svg11.dtd">
<svg version="1.1" xmlns="http://www.w3.org/2000/svg" xmlns:xlink="http://www.w3.org/1999/xlink" width="97.9595" height="97.9932">
 <g>
  <rect height="97.9932" opacity="0" width="97.9595" x="0" y="0"/>
  <path d="M48.9722 97.9443C75.8247 97.9443 97.9595 75.7759 97.9595 48.9722C97.9595 22.1348 75.791 0 48.9385 0C22.1348 0 0 22.1348 0 48.9722C0 75.7759 22.1685 97.9443 48.9722 97.9443ZM48.9722 91.6113C25.3501 91.6113 6.36671 72.5942 6.36671 48.9722C6.36671 25.3501 25.3164 6.31789 48.9385 6.31789C72.5605 6.31789 91.6265 25.3501 91.6265 48.9722C91.6265 72.5942 72.5942 91.6113 48.9722 91.6113Z" fill="#000000" fill-opacity="0.85"/>
  <path d="M38.1724 72.9605C39.1846 73.9541 41.1182 73.9019 42.228 72.8594L63.3276 52.6255C65.5054 50.6314 65.5205 47.3047 63.3276 45.2954L42.228 25.0615C41.0171 23.918 39.3008 23.9297 38.2061 24.9605C37.0068 26.0435 36.9731 27.9551 38.1689 29.0347L58.9941 48.9268L38.1689 68.8862C37.0068 69.9658 37.0371 71.7798 38.1724 72.9605Z" fill="#000000" fill-opacity="0.85"/>
 </g>
</svg>
