<?xml version="1.0" encoding="UTF-8"?>
<!--Generator: Apple Native CoreSVG 232.5-->
<!DOCTYPE svg
PUBLIC "-//W3C//DTD SVG 1.1//EN"
       "http://www.w3.org/Graphics/SVG/1.1/DTD/svg11.dtd">
<svg version="1.1" xmlns="http://www.w3.org/2000/svg" xmlns:xlink="http://www.w3.org/1999/xlink" width="133.157" height="91.7648">
 <g>
  <rect height="91.7648" opacity="0" width="133.157" x="0" y="0"/>
  <path d="M53.1558 91.6338C55.0928 92.1509 56.8765 91.0982 57.461 89.146L82.2012 4.34332C82.7183 2.57476 81.8677 0.791067 79.9155 0.273976C78.0122-0.243115 76.3447 0.491262 75.6777 2.76178L51.0386 87.2764C50.4692 89.2471 51.1177 91.0982 53.1558 91.6338Z" fill="#000000" fill-opacity="0.85"/>
  <path d="M0 45.858C0 46.8921 0.449708 47.8775 1.27002 48.6119L34.75 78.8272C36.3013 80.2286 38.3848 80.1983 39.6548 78.7784C40.94 77.3096 40.7227 75.2413 39.2539 73.9224L8.2886 45.858L39.2539 17.7784C40.7227 16.4747 40.94 14.3575 39.6548 12.9376C38.3848 11.5025 36.3013 11.4874 34.75 12.8887L1.27002 43.0704C0.449708 43.8233 0 44.8238 0 45.858ZM133.157 45.858C133.157 44.8238 132.741 43.8233 131.92 43.0704L98.4405 12.8887C96.8555 11.4874 94.8208 11.5025 93.5357 12.9376C92.2656 14.3575 92.4492 16.4747 93.9029 17.7784L124.917 45.858L93.9029 73.9224C92.4492 75.2413 92.2656 77.3096 93.5357 78.7784C94.8208 80.1983 96.8555 80.2286 98.4405 78.8272L131.92 48.6119C132.741 47.8775 133.157 46.8921 133.157 45.858Z" fill="#000000" fill-opacity="0.85"/>
 </g>
</svg>
