<?xml version="1.0" encoding="UTF-8"?>
<!--Generator: Apple Native CoreSVG 232.5-->
<!DOCTYPE svg
PUBLIC "-//W3C//DTD SVG 1.1//EN"
       "http://www.w3.org/Graphics/SVG/1.1/DTD/svg11.dtd">
<svg version="1.1" xmlns="http://www.w3.org/2000/svg" xmlns:xlink="http://www.w3.org/1999/xlink" width="88.4092" height="88.5371">
 <g>
  <rect height="88.5371" opacity="0" width="88.4092" x="0" y="0"/>
  <path d="M88.4092 14.4019L88.4092 74.2632C88.4092 83.6558 83.5733 88.5371 74.0005 88.5371L14.3936 88.5371C4.86963 88.5371 0 83.7349 0 74.2632L0 14.4019C0 4.93018 4.86963 0.127929 14.3936 0.127929L74.0005 0.127929C83.5733 0.127929 88.4092 5.00928 88.4092 14.4019ZM49.5386 20.3335L28.439 40.5674C26.2461 42.5767 26.2612 45.9033 28.439 47.8975L49.5386 68.1314C50.6484 69.1738 52.582 69.2261 53.5942 68.2324C54.7295 67.0518 54.7261 65.2378 53.5977 64.1582L32.7725 44.1987L53.5977 24.3067C54.7598 23.2271 54.7261 21.3154 53.5606 20.2324C52.4658 19.2017 50.7495 19.1899 49.5386 20.3335Z" fill="#000000" fill-opacity="0.85"/>
 </g>
</svg>
