<?xml version="1.0" encoding="UTF-8"?>
<!--Generator: Apple Native CoreSVG 232.5-->
<!DOCTYPE svg
PUBLIC "-//W3C//DTD SVG 1.1//EN"
       "http://www.w3.org/Graphics/SVG/1.1/DTD/svg11.dtd">
<svg version="1.1" xmlns="http://www.w3.org/2000/svg" xmlns:xlink="http://www.w3.org/1999/xlink" width="97.9595" height="97.9932">
 <g>
  <rect height="97.9932" opacity="0" width="97.9595" x="0" y="0"/>
  <path d="M97.9595 48.9722C97.9595 75.7759 75.8247 97.9443 48.9722 97.9443C22.1685 97.9443 0 75.7759 0 48.9722C0 22.1348 22.1348 0 48.9385 0C75.791 0 97.9595 22.1348 97.9595 48.9722ZM37.918 24.5308C36.7188 25.6323 36.6851 27.5776 37.9146 28.7246L59.1626 49.0059L37.9146 69.3208C36.7188 70.4189 36.7339 72.3154 37.8843 73.5147C38.9639 74.542 40.9497 74.5049 42.1084 73.3799L63.6157 52.8057C65.8272 50.7442 65.876 47.3164 63.6157 45.2061L42.1084 24.6504C40.8638 23.4731 39.0801 23.4175 37.918 24.5308Z" fill="#000000" fill-opacity="0.85"/>
 </g>
</svg>
