<?xml version="1.0" encoding="UTF-8"?>
<!--Generator: Apple Native CoreSVG 232.5-->
<!DOCTYPE svg
PUBLIC "-//W3C//DTD SVG 1.1//EN"
       "http://www.w3.org/Graphics/SVG/1.1/DTD/svg11.dtd">
<svg version="1.1" xmlns="http://www.w3.org/2000/svg" xmlns:xlink="http://www.w3.org/1999/xlink" width="22.1182" height="84.7197">
 <g>
  <rect height="84.7197" opacity="0" width="22.1182" x="0" y="0"/>
  <path d="M15.2661 82.2251C15.832 83.6904 17.0986 84.5479 18.3721 84.5479C20.4961 84.5479 22.1182 82.9932 22.1182 80.8389C22.1182 79.7676 21.5303 78.3477 21.1631 77.3809L6.1631 39.7515L6.1631 44.7627L21.1631 7.13332C21.5303 6.16652 22.1182 4.72804 22.1182 3.6753C22.1182 1.55469 20.4961 0 18.3721 0C17.0986 0 15.832 0.823733 15.2661 2.28907L1.43848 36.937C0.771487 38.6079 0 40.6763 0 42.2647C0 43.8379 0.771487 45.9063 1.43848 47.5772Z" fill="#000000" fill-opacity="0.85"/>
 </g>
</svg>
