<?xml version="1.0" encoding="UTF-8"?>
<!--Generator: Apple Native CoreSVG 232.5-->
<!DOCTYPE svg
PUBLIC "-//W3C//DTD SVG 1.1//EN"
       "http://www.w3.org/Graphics/SVG/1.1/DTD/svg11.dtd">
<svg version="1.1" xmlns="http://www.w3.org/2000/svg" xmlns:xlink="http://www.w3.org/1999/xlink" width="52.4912" height="81.461">
 <g>
  <rect height="81.461" opacity="0" width="52.4912" x="0" y="0"/>
  <path d="M0.0151366 78.0401C0.0151366 79.9434 1.49903 81.4273 3.41749 81.4273C4.3506 81.4273 5.13722 81.0484 5.81935 80.3477L44.7788 43.357C45.5401 42.5957 45.9678 41.7486 45.9678 40.7212C45.9678 39.6939 45.5249 38.813 44.7974 38.0703L5.80421 1.01563C5.08839 0.382325 4.3506 0 3.33839 0C1.49903 0 0 1.4502 0 3.38722C0 4.30519 0.31836 5.15577 1.00049 5.80421L40.2441 43.0943L40.2441 38.2842L1.00049 75.6382C0.333497 76.3052 0.0151366 77.1221 0.0151366 78.0401ZM45.8701 78.1934C45.8701 80.0781 47.2529 81.4273 49.1563 81.4273C51.0747 81.4273 52.4912 80.0781 52.4912 78.1934L52.4912 3.30128C52.4912 1.38282 51.0747 0 49.1563 0C47.2529 0 45.8701 1.38282 45.8701 3.30128Z" fill="#000000" fill-opacity="0.85"/>
 </g>
</svg>
