<?xml version="1.0" encoding="UTF-8"?>
<!--Generator: Apple Native CoreSVG 232.5-->
<!DOCTYPE svg
PUBLIC "-//W3C//DTD SVG 1.1//EN"
       "http://www.w3.org/Graphics/SVG/1.1/DTD/svg11.dtd">
<svg version="1.1" xmlns="http://www.w3.org/2000/svg" xmlns:xlink="http://www.w3.org/1999/xlink" width="89.5899" height="81.4912">
 <g>
  <rect height="81.4912" opacity="0" width="89.5899" x="0" y="0"/>
  <path d="M83.7856 80.3477C84.4492 80.981 85.2695 81.3936 86.2026 81.3936C88.106 81.3936 89.5899 79.9434 89.5899 78.0249C89.5899 77.1221 89.2193 76.2412 88.6196 75.6382L49.6641 38.5386L49.6641 42.8247L88.6196 5.80421C89.2193 5.17091 89.5899 4.2715 89.5899 3.38722C89.5899 1.48389 88.106 0 86.2026 0C85.2695 0 84.498 0.382325 83.8159 1.01563L44.8564 38.0703C44.0952 38.7305 43.6035 39.6939 43.6035 40.7212C43.6035 41.7149 44.0649 42.5806 44.8262 43.3418Z" fill="#000000" fill-opacity="0.85"/>
  <path d="M40.1821 80.3477C40.8306 80.981 41.6323 81.3936 42.5991 81.3936C44.5025 81.3936 45.9527 79.9434 45.9527 78.0249C45.9527 77.1221 45.6006 76.2412 45.001 75.6382L6.02687 38.5386L6.02687 42.8247L45.001 5.80421C45.6006 5.17091 45.9527 4.2715 45.9527 3.38722C45.9527 1.48389 44.5025 0 42.5991 0C41.6323 0 40.8608 0.382325 40.1973 1.01563L1.23779 38.0703C0.476563 38.7305 0 39.6939 0 40.7212C0 41.7149 0.427735 42.5806 1.18897 43.3418Z" fill="#000000" fill-opacity="0.85"/>
 </g>
</svg>
