<?xml version="1.0" encoding="UTF-8"?>
<!--Generator: Apple Native CoreSVG 232.5-->
<!DOCTYPE svg
PUBLIC "-//W3C//DTD SVG 1.1//EN"
       "http://www.w3.org/Graphics/SVG/1.1/DTD/svg11.dtd">
<svg version="1.1" xmlns="http://www.w3.org/2000/svg" xmlns:xlink="http://www.w3.org/1999/xlink" width="58.3399" height="81.333">
 <g>
  <rect height="81.333" opacity="0" width="58.3399" x="0" y="0"/>
  <path d="M0 40.6421C0 41.6206 0.348634 42.4224 1.09473 43.1533L40.1182 80.2837C40.7515 80.9507 41.5684 81.2842 42.5352 81.2842C44.4234 81.2842 45.9224 79.8643 45.9224 77.9307C45.9224 76.9639 45.5215 76.1621 44.9522 75.5591L8.23977 40.6421L44.9522 5.72511C45.5215 5.10695 45.9224 4.28663 45.9224 3.35352C45.9224 1.41993 44.4234 0 42.5352 0C41.5684 0 40.7515 0.31836 40.1182 0.951663L1.09473 38.1309C0.348634 38.813 0 39.6636 0 40.6421Z" fill="#000000" fill-opacity="0.85"/>
 </g>
</svg>
