<?xml version="1.0" encoding="UTF-8"?>
<!--Generator: Apple Native CoreSVG 232.5-->
<!DOCTYPE svg
PUBLIC "-//W3C//DTD SVG 1.1//EN"
       "http://www.w3.org/Graphics/SVG/1.1/DTD/svg11.dtd">
<svg version="1.1" xmlns="http://www.w3.org/2000/svg" xmlns:xlink="http://www.w3.org/1999/xlink" width="88.4092" height="88.5371">
 <g>
  <rect height="88.5371" opacity="0" width="88.4092" x="0" y="0"/>
  <path d="M88.4092 14.4019L88.4092 74.2632C88.4092 83.6558 83.5733 88.5371 74.0005 88.5371L14.3936 88.5371C4.86963 88.5371 0 83.7349 0 74.2632L0 14.4019C0 4.93018 4.86963 0.127929 14.3936 0.127929L74.0005 0.127929C83.5733 0.127929 88.4092 5.00928 88.4092 14.4019ZM33.2085 19.8027C31.9756 20.9043 31.9419 22.8496 33.1563 23.9966L54.4043 44.2778L33.1563 64.5928C31.9756 65.6909 31.9907 67.5874 33.1748 68.7866C34.2056 69.814 36.2066 69.7769 37.3501 68.6519L58.8726 48.0777C61.1177 46.0161 61.1328 42.5884 58.8726 40.478L37.3501 19.9224C36.1055 18.7451 34.3218 18.6895 33.2085 19.8027Z" fill="#000000" fill-opacity="0.85"/>
 </g>
</svg>
