<?xml version="1.0" encoding="UTF-8"?>
<!--Generator: Apple Native CoreSVG 232.5-->
<!DOCTYPE svg
PUBLIC "-//W3C//DTD SVG 1.1//EN"
       "http://www.w3.org/Graphics/SVG/1.1/DTD/svg11.dtd">
<svg version="1.1" xmlns="http://www.w3.org/2000/svg" xmlns:xlink="http://www.w3.org/1999/xlink" width="97.9595" height="97.9932">
 <g>
  <rect height="97.9932" opacity="0" width="97.9595" x="0" y="0"/>
  <path d="M97.9595 48.9722C97.9595 75.7759 75.8247 97.9443 48.9722 97.9443C22.1685 97.9443 0 75.7759 0 48.9722C0 22.1348 22.1348 0 48.9385 0C75.791 0 97.9595 22.1348 97.9595 48.9722ZM54.2817 25.0615L33.1821 45.2954C30.9893 47.3047 31.0044 50.6314 33.1821 52.6255L54.2817 72.8594C55.4067 73.9019 57.3252 73.9541 58.3374 72.9605C59.4878 71.7798 59.4692 69.9658 58.356 68.8862L37.5156 48.9268L58.356 29.0347C59.5029 27.9551 59.4692 26.0435 58.3037 24.9605C57.209 23.9297 55.4927 23.918 54.2817 25.0615Z" fill="#000000" fill-opacity="0.85"/>
 </g>
</svg>
