<?xml version="1.0" encoding="UTF-8"?>
<!--Generator: Apple Native CoreSVG 232.5-->
<!DOCTYPE svg
PUBLIC "-//W3C//DTD SVG 1.1//EN"
       "http://www.w3.org/Graphics/SVG/1.1/DTD/svg11.dtd">
<svg version="1.1" xmlns="http://www.w3.org/2000/svg" xmlns:xlink="http://www.w3.org/1999/xlink" width="97.9595" height="97.9932">
 <g>
  <rect height="97.9932" opacity="0" width="97.9595" x="0" y="0"/>
  <path d="M48.9722 97.9443C75.8247 97.9443 97.9595 75.7759 97.9595 48.9722C97.9595 22.1348 75.791 0 48.9385 0C22.1348 0 0 22.1348 0 48.9722C0 75.7759 22.1685 97.9443 48.9722 97.9443ZM48.9722 91.6113C25.3501 91.6113 6.36671 72.5942 6.36671 48.9722C6.36671 25.3501 25.3164 6.31789 48.9385 6.31789C72.5605 6.31789 91.6265 25.3501 91.6265 48.9722C91.6265 72.5942 72.5942 91.6113 48.9722 91.6113Z" fill="#000000" fill-opacity="0.85"/>
  <path d="M58.3037 72.9605C59.4541 71.7798 59.4356 69.9658 58.3223 68.8862L37.4819 48.9268L58.3223 29.0347C59.4692 27.9551 59.4356 26.0435 58.27 24.9605C57.1753 23.9297 55.459 23.918 54.248 25.0615L33.1636 45.2954C30.9556 47.3047 30.9858 50.6314 33.1636 52.6255L54.248 72.8594C55.373 73.9019 57.2915 73.9541 58.3037 72.9605Z" fill="#000000" fill-opacity="0.85"/>
 </g>
</svg>
