<?xml version="1.0" encoding="UTF-8"?>
<!--Generator: Apple Native CoreSVG 232.5-->
<!DOCTYPE svg
PUBLIC "-//W3C//DTD SVG 1.1//EN"
       "http://www.w3.org/Graphics/SVG/1.1/DTD/svg11.dtd">
<svg version="1.1" xmlns="http://www.w3.org/2000/svg" xmlns:xlink="http://www.w3.org/1999/xlink" width="52.4912" height="81.461">
 <g>
  <rect height="81.461" opacity="0" width="52.4912" x="0" y="0"/>
  <path d="M52.461 78.0401C52.461 77.1221 52.1577 76.3052 51.4908 75.6382L12.2471 38.2842L12.2471 43.0943L51.4908 5.80421C52.1729 5.15577 52.4912 4.30519 52.4912 3.38722C52.4912 1.4502 50.9771 0 49.1529 0C48.107 0 47.4028 0.382325 46.687 1.01563L7.69387 38.0703C6.96633 38.813 6.47463 39.6939 6.47463 40.7212C6.47463 41.7486 6.93605 42.5957 7.69728 43.357L46.6568 80.3477C47.3389 81.0484 48.107 81.4273 49.0738 81.4273C50.9771 81.4273 52.461 79.9434 52.461 78.0401ZM6.62111 78.1934L6.62111 3.30128C6.62111 1.38282 5.23829 0 3.28614 0C1.38282 0 0 1.38282 0 3.30128L0 78.1934C0 80.0781 1.38282 81.4273 3.28614 81.4273C5.23829 81.4273 6.62111 80.0781 6.62111 78.1934Z" fill="#000000" fill-opacity="0.85"/>
 </g>
</svg>
