<?xml version="1.0" encoding="UTF-8"?>
<!--Generator: Apple Native CoreSVG 232.5-->
<!DOCTYPE svg
PUBLIC "-//W3C//DTD SVG 1.1//EN"
       "http://www.w3.org/Graphics/SVG/1.1/DTD/svg11.dtd">
<svg version="1.1" xmlns="http://www.w3.org/2000/svg" xmlns:xlink="http://www.w3.org/1999/xlink" width="88.4092" height="88.5371">
 <g>
  <rect height="88.5371" opacity="0" width="88.4092" x="0" y="0"/>
  <path d="M88.4092 14.4019L88.4092 74.2632C88.4092 83.6558 83.5733 88.5371 74.0005 88.5371L14.3936 88.5371C4.86963 88.5371 0 83.7349 0 74.2632L0 14.4019C0 4.93018 4.86963 0.127929 14.3936 0.127929L74.0005 0.127929C83.5733 0.127929 88.4092 5.00928 88.4092 14.4019ZM19.7236 34.6899C18.5986 35.8672 18.6289 37.6323 19.8433 38.9107L40.4326 60.4331C42.8647 63.0151 45.6641 63 48.0962 60.4331L68.6856 38.9107C69.8999 37.6323 69.9639 35.8335 68.8052 34.6899C67.6025 33.5059 65.6943 33.4268 64.5811 34.6377L44.2813 55.8672L23.9478 34.6377C22.8345 33.4268 20.8926 33.4722 19.7236 34.6899Z" fill="#000000" fill-opacity="0.85"/>
 </g>
</svg>
