<?xml version="1.0" encoding="UTF-8"?>
<!--Generator: Apple Native CoreSVG 232.5-->
<!DOCTYPE svg
PUBLIC "-//W3C//DTD SVG 1.1//EN"
       "http://www.w3.org/Graphics/SVG/1.1/DTD/svg11.dtd">
<svg version="1.1" xmlns="http://www.w3.org/2000/svg" xmlns:xlink="http://www.w3.org/1999/xlink" width="65.4028" height="88.7461">
 <g>
  <rect height="88.7461" opacity="0" width="65.4028" x="0" y="0"/>
  <path d="M32.7241 88.7461C34.7774 88.7461 36.1787 87.2471 36.1787 85.1602L36.1787 50.771L64.6079 5.67579C65.189 4.81007 65.4028 4.12794 65.4028 3.26563C65.4028 1.48194 63.9341 0.163084 61.9819 0.163084C60.6328 0.163084 59.644 0.69873 58.834 2.05957L32.8892 44.2612L32.5928 44.2612L6.63283 2.05957C5.78908 0.69873 4.8003 0.163084 3.42091 0.163084C1.53272 0.163084 0 1.48194 0 3.26563C0 4.12794 0.262696 4.81007 0.794923 5.67579L29.3032 50.771L29.3032 85.1602C29.3032 87.2471 30.6895 88.7461 32.7241 88.7461ZM10.0132 51.4702L56.3589 51.4702C57.8208 51.4702 58.7842 50.4058 58.7842 48.9775C58.7842 47.5493 57.8208 46.4849 56.3589 46.4849L10.0132 46.4849C8.55127 46.4849 7.58789 47.5796 7.58789 48.9775C7.58789 50.3906 8.55127 51.4702 10.0132 51.4702ZM10.0132 67.3404L56.3589 67.3404C57.8208 67.3404 58.7842 66.2759 58.7842 64.8477C58.7842 63.4194 57.8848 62.3062 56.3589 62.3062L10.0132 62.3062C8.55127 62.3062 7.58789 63.4194 7.58789 64.8477C7.58789 66.2119 8.55127 67.3404 10.0132 67.3404Z" fill="#000000" fill-opacity="0.85"/>
 </g>
</svg>
