<?xml version="1.0" encoding="UTF-8"?>
<!--Generator: Apple Native CoreSVG 232.5-->
<!DOCTYPE svg
PUBLIC "-//W3C//DTD SVG 1.1//EN"
       "http://www.w3.org/Graphics/SVG/1.1/DTD/svg11.dtd">
<svg version="1.1" xmlns="http://www.w3.org/2000/svg" xmlns:xlink="http://www.w3.org/1999/xlink" width="96.0772" height="92.6641">
 <g>
  <rect height="92.6641" opacity="0" width="96.0772" x="0" y="0"/>
  <path d="M74.8975 92.6641C86.4917 92.6641 96.0772 83.0298 96.0772 71.4053C96.0772 59.8145 86.4917 50.1802 74.8975 50.1802C63.145 50.1802 53.6235 59.8145 53.6235 71.4053C53.6235 83.0298 63.145 92.6641 74.8975 92.6641ZM74.8975 86.7388C66.229 86.7388 59.5152 80.0552 59.5152 71.4053C59.5152 62.9136 66.229 55.9707 74.8975 55.9707C83.4683 55.9707 90.2158 62.9136 90.2158 71.4053C90.2158 80.0552 83.4683 86.7388 74.8975 86.7388Z" fill="#000000" fill-opacity="0.85"/>
  <path d="M21.2739 92.6641C32.8833 92.6641 42.4873 83.0298 42.4873 71.4053C42.4873 59.8145 32.8833 50.1802 21.2739 50.1802C9.52148 50.1802 0 59.8145 0 71.4053C0 83.0298 9.52148 92.6641 21.2739 92.6641ZM21.2739 86.7388C12.6392 86.7388 5.89162 80.0552 5.89162 71.4053C5.89162 62.9136 12.6392 55.9707 21.2739 55.9707C29.8447 55.9707 36.6074 62.9136 36.6074 71.4053C36.6074 80.0552 29.8447 86.7388 21.2739 86.7388Z" fill="#000000" fill-opacity="0.85"/>
  <path d="M74.8975 42.5444C86.4917 42.5444 96.0772 32.9102 96.0772 21.2856C96.0772 9.66113 86.4917 0.0605464 74.8975 0.0605464C63.145 0.0605464 53.6235 9.66113 53.6235 21.2856C53.6235 32.9102 63.145 42.5444 74.8975 42.5444ZM74.8975 36.5854C66.229 36.5854 59.5152 29.8867 59.5152 21.2856C59.5152 12.7603 66.229 5.85109 74.8975 5.85109C83.4683 5.85109 90.2158 12.7603 90.2158 21.2856C90.2158 29.8867 83.4683 36.5854 74.8975 36.5854Z" fill="#000000" fill-opacity="0.85"/>
  <path d="M21.2739 42.5444C32.8833 42.5444 42.4873 32.9102 42.4873 21.2856C42.4873 9.66113 32.8833 0.0605464 21.2739 0.0605464C9.52148 0.0605464 0 9.66113 0 21.2856C0 32.9102 9.52148 42.5444 21.2739 42.5444ZM21.2739 36.5854C12.6392 36.5854 5.89162 29.8867 5.89162 21.2856C5.89162 12.7603 12.6392 5.85109 21.2739 5.85109C29.8447 5.85109 36.6074 12.7603 36.6074 21.2856C36.6074 29.8867 29.8447 36.5854 21.2739 36.5854Z" fill="#000000" fill-opacity="0.85"/>
 </g>
</svg>
