<?xml version="1.0" encoding="UTF-8"?>
<!--Generator: Apple Native CoreSVG 232.5-->
<!DOCTYPE svg
PUBLIC "-//W3C//DTD SVG 1.1//EN"
       "http://www.w3.org/Graphics/SVG/1.1/DTD/svg11.dtd">
<svg version="1.1" xmlns="http://www.w3.org/2000/svg" xmlns:xlink="http://www.w3.org/1999/xlink" width="97.9595" height="97.9932">
 <g>
  <rect height="97.9932" opacity="0" width="97.9595" x="0" y="0"/>
  <path d="M97.9595 48.9722C97.9595 75.7759 75.8247 97.9443 48.9722 97.9443C22.1685 97.9443 0 75.7759 0 48.9722C0 22.1348 22.1348 0 48.9385 0C75.791 0 97.9595 22.1348 97.9595 48.9722ZM22.4126 49.021C22.4126 63.4424 34.5659 75.6143 48.9722 75.6143C63.4424 75.6143 75.5654 63.4761 75.5654 49.021C75.5654 34.5845 63.3936 22.4126 48.9722 22.4126C34.502 22.4126 22.4126 34.5508 22.4126 49.021ZM69.4531 49.021C69.4531 60.2422 60.1934 69.5205 48.9722 69.5205C37.8184 69.5205 28.5064 60.2085 28.5064 49.021C28.5064 37.7847 37.7359 28.5064 48.9722 28.5064C60.1597 28.5064 69.4531 37.8184 69.4531 49.021Z" fill="#000000" fill-opacity="0.85"/>
 </g>
</svg>
