<?xml version="1.0" encoding="UTF-8"?>
<!--Generator: Apple Native CoreSVG 232.5-->
<!DOCTYPE svg
PUBLIC "-//W3C//DTD SVG 1.1//EN"
       "http://www.w3.org/Graphics/SVG/1.1/DTD/svg11.dtd">
<svg version="1.1" xmlns="http://www.w3.org/2000/svg" xmlns:xlink="http://www.w3.org/1999/xlink" width="59.5083" height="100.561">
 <g>
  <rect height="100.561" opacity="0" width="59.5083" x="0" y="0"/>
  <path d="M59.5083 12.3169L59.5083 88.1763C59.5083 95.8086 54.6704 100.493 46.8174 100.493L12.6909 100.493C4.82276 100.493 0 95.8086 0 88.1763L0 12.3169C0 4.68457 4.82276 0 12.6909 0L46.8174 0C54.6704 0 59.5083 4.68457 59.5083 12.3169ZM11.2876 50.2222C11.2876 60.419 19.6138 68.7451 29.7803 68.7451C39.9468 68.7451 48.2881 60.419 48.2881 50.2222C48.2881 40.0557 39.9468 31.7295 29.7803 31.7295C19.6138 31.7295 11.2876 40.0557 11.2876 50.2222Z" fill="#000000" fill-opacity="0.85"/>
 </g>
</svg>
