<?xml version="1.0" encoding="UTF-8"?>
<!--Generator: Apple Native CoreSVG 232.5-->
<!DOCTYPE svg
PUBLIC "-//W3C//DTD SVG 1.1//EN"
       "http://www.w3.org/Graphics/SVG/1.1/DTD/svg11.dtd">
<svg version="1.1" xmlns="http://www.w3.org/2000/svg" xmlns:xlink="http://www.w3.org/1999/xlink" width="97.9595" height="97.9932">
 <g>
  <rect height="97.9932" opacity="0" width="97.9595" x="0" y="0"/>
  <path d="M48.9385 2.03272L48.9385 6.06543L63.2041 6.06543C58.689 4.17823 53.8911 2.77735 48.9385 2.03272ZM48.9385 9.21436L48.9385 15.2007L76.8432 15.2007C75.4365 13.0005 73.8262 10.9585 72.061 9.21436ZM48.9385 19.6367L48.9385 25.6045L86.6304 25.6045C85.895 23.5474 85.0503 21.5205 84.0508 19.6367ZM48.9385 30.0254L48.9385 36.0269L93.04 36.0269C92.7119 33.9849 92.2744 31.9732 91.7275 30.0254ZM48.9385 40.4478L48.9385 46.4155L93.7603 46.4155C93.6963 44.4375 93.5718 42.4107 93.3379 40.4478ZM48.9385 50.8364L48.9385 56.8379L93.3379 56.8379C93.5718 54.9053 93.6963 52.8784 93.7603 50.8364ZM48.9385 61.2739L48.9385 67.2754L91.7275 67.2754C92.2744 65.2939 92.7119 63.3311 93.04 61.2739ZM48.9385 71.6963L48.9385 77.6641L84.0508 77.6641C85.0503 75.7954 85.895 73.7686 86.6304 71.6963ZM48.9385 82.7285L48.9385 88.73L72.061 88.73C73.8262 86.9522 75.4365 84.959 76.8432 82.7285ZM48.9385 91.8638L48.9385 95.8779C53.8911 95.1333 58.689 93.7964 63.2041 91.8638ZM48.9722 97.9443C75.8247 97.9443 97.9595 75.7759 97.9595 48.9722C97.9595 22.1348 75.791 0 48.9385 0C22.1348 0 0 22.1348 0 48.9722C0 75.7759 22.1685 97.9443 48.9722 97.9443ZM48.9722 91.6113C25.3501 91.6113 6.36671 72.5942 6.36671 48.9722C6.36671 25.3501 25.3164 6.31789 48.9385 6.31789C72.5605 6.31789 91.6265 25.3501 91.6265 48.9722C91.6265 72.5942 72.5942 91.6113 48.9722 91.6113Z" fill="#000000" fill-opacity="0.85"/>
 </g>
</svg>
