<?xml version="1.0" encoding="UTF-8"?>
<!--Generator: Apple Native CoreSVG 232.5-->
<!DOCTYPE svg
PUBLIC "-//W3C//DTD SVG 1.1//EN"
       "http://www.w3.org/Graphics/SVG/1.1/DTD/svg11.dtd">
<svg version="1.1" xmlns="http://www.w3.org/2000/svg" xmlns:xlink="http://www.w3.org/1999/xlink" width="105.403" height="105.435">
 <g>
  <rect height="105.435" opacity="0" width="105.403" x="0" y="0"/>
  <path d="M17.4231 28.7202C12.7983 35.5419 10.1053 43.7916 10.1053 52.693C10.1053 76.3151 29.1038 95.3322 52.7259 95.3322C61.6207 95.3322 69.8704 92.6281 76.6927 87.9876L81.1099 92.4046C73.0962 98.2348 63.2697 101.665 52.7259 101.665C25.8733 101.665 3.73857 79.4967 3.73857 52.693C3.73857 42.1314 7.16148 32.298 12.9868 24.2842ZM101.698 52.693C101.698 63.277 98.2415 73.1382 92.3695 81.1675L87.9544 76.7509C92.6352 69.917 95.365 61.6349 95.365 52.693C95.365 29.071 76.2806 10.0387 52.6922 10.0387C43.7549 10.0387 35.4842 12.7631 28.6612 17.4376L24.2384 13.0133C32.2558 7.16192 42.1047 3.72086 52.6922 3.72086C79.4959 3.72086 101.698 25.8556 101.698 52.693Z" fill="#000000" fill-opacity="0.85"/>
  <path d="M95.2967 99.5217C96.4285 100.653 98.325 100.62 99.4231 99.488C100.6 98.2922 100.57 96.4933 99.4231 95.3615L10.0237 5.89811C8.90703 4.7814 7.07451 4.73599 5.86357 5.89811C4.75028 6.99625 4.75028 8.92643 5.86357 10.0246Z" fill="#000000" fill-opacity="0.85"/>
 </g>
</svg>
