<?xml version="1.0" encoding="UTF-8"?>
<!--Generator: Apple Native CoreSVG 232.5-->
<!DOCTYPE svg
PUBLIC "-//W3C//DTD SVG 1.1//EN"
       "http://www.w3.org/Graphics/SVG/1.1/DTD/svg11.dtd">
<svg version="1.1" xmlns="http://www.w3.org/2000/svg" xmlns:xlink="http://www.w3.org/1999/xlink" width="114.35" height="88.4395">
 <g>
  <rect height="88.4395" opacity="0" width="114.35" x="0" y="0"/>
  <path d="M14.3936 88.4092L99.9409 88.4092C109.514 88.4092 114.35 83.5615 114.35 74.169L114.35 14.2739C114.35 4.88135 109.514 0 99.9409 0L14.3936 0C4.86963 0 0 4.83594 0 14.2739L0 74.169C0 83.6069 4.86963 88.4092 14.3936 88.4092ZM14.5064 82.3794C9.00294 82.3794 6.04494 79.4736 6.04494 73.8355L6.04494 14.6074C6.04494 8.96925 9.00294 6.04494 14.5064 6.04494L99.8433 6.04494C105.237 6.04494 108.305 8.96925 108.305 14.6074L108.305 73.8355C108.305 79.4736 105.237 82.3794 99.8433 82.3794Z" fill="#000000" fill-opacity="0.85"/>
  <path d="M56.5557 70.7603C71.1826 70.7603 83.0078 58.9199 83.0078 44.2744C83.0078 29.6475 71.1826 17.8071 56.5557 17.8071C41.9102 17.8071 30.0698 29.6475 30.0698 44.2744C30.0698 58.9199 41.9102 70.7603 56.5557 70.7603ZM56.5557 65.748C44.5259 65.748 35.0669 56.3042 35.0669 44.2744C35.0669 32.2295 44.5259 22.8193 56.5557 22.8193C68.5855 22.8193 78.0107 32.2295 78.0107 44.2744C78.0107 56.3042 68.5855 65.748 56.5557 65.748ZM36.7354 55.7666L67.4902 25.0269L63.0137 21.4526L35.0479 49.4185ZM50.7842 67.6768L78.5313 39.9297L76.689 33.77L46.4473 63.978Z" fill="#000000" fill-opacity="0.85"/>
 </g>
</svg>
