<?xml version="1.0" encoding="UTF-8"?>
<!--Generator: Apple Native CoreSVG 232.5-->
<!DOCTYPE svg
PUBLIC "-//W3C//DTD SVG 1.1//EN"
       "http://www.w3.org/Graphics/SVG/1.1/DTD/svg11.dtd">
<svg version="1.1" xmlns="http://www.w3.org/2000/svg" xmlns:xlink="http://www.w3.org/1999/xlink" width="97.9595" height="97.9932">
 <g>
  <rect height="97.9932" opacity="0" width="97.9595" x="0" y="0"/>
  <path d="M49.0059 2.03272C44.0684 2.77735 39.2705 4.17823 34.7403 6.06543L49.0059 6.06543ZM49.0059 9.21436L25.8984 9.21436C24.1333 10.9585 22.523 13.0005 21.1162 15.2007L49.0059 15.2007ZM49.0059 19.6367L13.8936 19.6367C12.9092 21.5205 12.0645 23.5474 11.3291 25.6045L49.0059 25.6045ZM49.0059 30.0254L6.23194 30.0254C5.68506 31.9732 5.23243 33.9849 4.90431 36.0269L49.0059 36.0269ZM49.0059 40.4478L4.62159 40.4478C4.38771 42.4107 4.24806 44.4375 4.19923 46.4155L49.0059 46.4155ZM49.0059 50.8364L4.19923 50.8364C4.24806 52.8784 4.38771 54.9053 4.62159 56.8379L49.0059 56.8379ZM49.0059 61.2739L4.90431 61.2739C5.23243 63.3311 5.68506 65.2939 6.23194 67.2754L49.0059 67.2754ZM49.0059 71.6963L11.3291 71.6963C12.0645 73.7686 12.9092 75.7954 13.8936 77.6641L49.0059 77.6641ZM49.0059 82.7285L21.1162 82.7285C22.523 84.959 24.1333 86.9522 25.8984 88.73L49.0059 88.73ZM49.0059 91.8638L34.7403 91.8638C39.2705 93.7964 44.0684 95.1333 49.0059 95.8779ZM48.9722 97.9443C75.8247 97.9443 97.9595 75.7759 97.9595 48.9722C97.9595 22.1348 75.791 0 48.9385 0C22.1348 0 0 22.1348 0 48.9722C0 75.7759 22.1685 97.9443 48.9722 97.9443ZM48.9722 91.6113C25.3501 91.6113 6.36671 72.5942 6.36671 48.9722C6.36671 25.3501 25.3164 6.31789 48.9385 6.31789C72.5605 6.31789 91.6265 25.3501 91.6265 48.9722C91.6265 72.5942 72.5942 91.6113 48.9722 91.6113Z" fill="#000000" fill-opacity="0.85"/>
 </g>
</svg>
