<?xml version="1.0" encoding="UTF-8"?>
<!--Generator: Apple Native CoreSVG 232.5-->
<!DOCTYPE svg
PUBLIC "-//W3C//DTD SVG 1.1//EN"
       "http://www.w3.org/Graphics/SVG/1.1/DTD/svg11.dtd">
<svg version="1.1" xmlns="http://www.w3.org/2000/svg" xmlns:xlink="http://www.w3.org/1999/xlink" width="113.026" height="115.476">
 <g>
  <rect height="115.476" opacity="0" width="113.026" x="0" y="0"/>
  <path d="M56.5449 115.393C68.1543 115.393 77.7246 105.759 77.7246 94.1343C77.7246 82.5435 68.1543 72.9092 56.5449 72.9092C44.8076 72.9092 35.2373 82.5435 35.2373 94.1343C35.2373 105.759 44.8076 115.393 56.5449 115.393Z" fill="#000000" fill-opacity="0.85"/>
  <path d="M91.8462 78.9385C103.422 78.9385 113.026 69.3042 113.026 57.6797C113.026 46.0889 103.422 36.4546 91.8462 36.4546C80.0938 36.4546 70.5386 46.0889 70.5386 57.6797C70.5386 69.3042 80.0938 78.9385 91.8462 78.9385ZM91.8462 72.998C83.1777 72.998 76.4639 66.3144 76.4639 57.6797C76.4639 49.1543 83.1777 42.23 91.8462 42.23C100.417 42.23 107.146 49.1543 107.146 57.6797C107.146 66.3144 100.417 72.998 91.8462 72.998Z" fill="#000000" fill-opacity="0.85"/>
  <path d="M21.2739 78.9385C32.8833 78.9385 42.4873 69.3042 42.4873 57.6797C42.4873 46.0889 32.8833 36.4546 21.2739 36.4546C9.52148 36.4546 0 46.0889 0 57.6797C0 69.3042 9.52148 78.9385 21.2739 78.9385ZM21.2739 72.998C12.6392 72.998 5.89162 66.3144 5.89162 57.6797C5.89162 49.1543 12.6392 42.23 21.2739 42.23C29.8447 42.23 36.6074 49.1543 36.6074 57.6797C36.6074 66.3144 29.8447 72.998 21.2739 72.998Z" fill="#000000" fill-opacity="0.85"/>
  <path d="M56.4961 42.4688C68.1055 42.4688 77.7095 32.8345 77.7095 21.2251C77.7095 9.60059 68.1055 0 56.4961 0C44.7773 0 35.2222 9.60059 35.2222 21.2251C35.2222 32.8345 44.7773 42.4688 56.4961 42.4688ZM56.4961 36.5098C47.8613 36.5098 41.1138 29.8262 41.1138 21.2251C41.1138 12.6997 47.8613 5.7754 56.4961 5.7754C65.1006 5.7754 71.8296 12.6997 71.8296 21.2251C71.8296 29.8262 65.1006 36.5098 56.4961 36.5098Z" fill="#000000" fill-opacity="0.85"/>
 </g>
</svg>
