<?xml version="1.0" encoding="UTF-8"?>
<!--Generator: Apple Native CoreSVG 232.5-->
<!DOCTYPE svg
PUBLIC "-//W3C//DTD SVG 1.1//EN"
       "http://www.w3.org/Graphics/SVG/1.1/DTD/svg11.dtd">
<svg version="1.1" xmlns="http://www.w3.org/2000/svg" xmlns:xlink="http://www.w3.org/1999/xlink" width="100.424" height="95.8128">
 <g>
  <rect height="95.8128" opacity="0" width="100.424" x="0" y="0"/>
  <path d="M86.1816 95.7858C94.0278 95.7858 100.424 89.3068 100.424 81.5431C100.424 73.6969 94.0278 67.2702 86.1816 67.2702C78.354 67.2702 71.9575 73.6969 71.9575 81.5431C71.9575 89.3068 78.354 95.7858 86.1816 95.7858ZM86.1816 90.2716C81.2476 90.2716 77.4902 86.4132 77.4902 81.5094C77.4902 76.6544 81.2476 72.7169 86.1816 72.7169C91.1006 72.7169 94.959 76.6544 94.959 81.5094C94.959 86.4132 91.1006 90.2716 86.1816 90.2716Z" fill="#000000" fill-opacity="0.85"/>
  <path d="M50.2441 95.7858C58.0078 95.7858 64.4868 89.3068 64.4868 81.5431C64.4868 73.6969 58.0078 67.2702 50.2441 67.2702C42.4165 67.2702 35.9375 73.6969 35.9375 81.5431C35.9375 89.3068 42.4165 95.7858 50.2441 95.7858ZM50.2441 90.2716C45.3101 90.2716 41.4517 86.4132 41.4517 81.5094C41.4517 76.6544 45.3101 72.7169 50.2441 72.7169C55.1479 72.7169 58.9878 76.6544 58.9878 81.5094C58.9878 86.4132 55.1479 90.2716 50.2441 90.2716Z" fill="#000000" fill-opacity="0.85"/>
  <path d="M14.2578 95.7858C22.0703 95.7858 28.4668 89.3068 28.4668 81.5431C28.4668 73.6969 22.0703 67.2702 14.2578 67.2702C6.39648 67.2702 0 73.6969 0 81.5431C0 89.3068 6.39648 95.7858 14.2578 95.7858ZM14.2578 90.2716C9.33887 90.2716 5.49904 86.4132 5.49904 81.5094C5.49904 76.6544 9.33887 72.7169 14.2578 72.7169C19.1768 72.7169 22.9678 76.6544 22.9678 81.5094C22.9678 86.4132 19.1768 90.2716 14.2578 90.2716Z" fill="#000000" fill-opacity="0.85"/>
  <path d="M86.1816 62.1583C94.0278 62.1583 100.424 55.6793 100.424 47.9157C100.424 40.1032 94.0278 33.6427 86.1816 33.6764C78.354 33.7101 71.9575 40.1032 71.9575 47.9157C71.9575 55.6793 78.354 62.1583 86.1816 62.1583ZM86.1816 56.6593C81.2476 56.6593 77.4902 52.7858 77.4902 47.882C77.4902 43.027 81.2476 39.0895 86.1816 39.0895C91.1006 39.0895 94.959 43.027 94.959 47.882C94.959 52.7858 91.1006 56.6593 86.1816 56.6593Z" fill="#000000" fill-opacity="0.85"/>
  <path d="M50.2441 62.1583C58.0078 62.1583 64.4868 55.6793 64.4868 47.9157C64.4868 40.1032 58.0078 33.6427 50.2441 33.6764C42.4165 33.7101 35.9375 40.1032 35.9375 47.9157C35.9375 55.6793 42.4165 62.1583 50.2441 62.1583ZM50.2441 56.6593C45.3101 56.6593 41.4517 52.7858 41.4517 47.882C41.4517 43.027 45.3101 39.0895 50.2441 39.0895C55.1479 39.0895 58.9878 43.027 58.9878 47.882C58.9878 52.7858 55.1479 56.6593 50.2441 56.6593Z" fill="#000000" fill-opacity="0.85"/>
  <path d="M14.2578 62.1583C22.0703 62.1583 28.4668 55.6793 28.4668 47.9157C28.4668 40.1032 22.0703 33.6427 14.2578 33.6764C6.39648 33.7101 0 40.1032 0 47.9157C0 55.6793 6.39648 62.1583 14.2578 62.1583ZM14.2578 56.6593C9.33887 56.6593 5.49904 52.7858 5.49904 47.882C5.49904 43.027 9.33887 39.0895 14.2578 39.0895C19.1768 39.0895 22.9678 43.027 22.9678 47.882C22.9678 52.7858 19.1768 56.6593 14.2578 56.6593Z" fill="#000000" fill-opacity="0.85"/>
  <path d="M86.1816 28.5343C94.0278 28.5343 100.424 22.0704 100.424 14.2731C100.424 6.42689 94.0278-0.0335603 86.1816 0.000131183C78.354 0.0338227 71.9575 6.42689 71.9575 14.2731C71.9575 22.0704 78.354 28.5343 86.1816 28.5343ZM86.1816 23.0016C81.2476 23.0016 77.4902 19.1432 77.4902 14.2731C77.4902 9.36928 81.2476 5.46547 86.1816 5.46547C91.1006 5.46547 94.959 9.36928 94.959 14.2731C94.959 19.1432 91.1006 23.0016 86.1816 23.0016Z" fill="#000000" fill-opacity="0.85"/>
  <path d="M50.2441 28.5343C58.0078 28.5343 64.4868 22.0704 64.4868 14.2731C64.4868 6.42689 58.0078-0.0335603 50.2441 0.000131183C42.4165 0.0338227 35.9375 6.42689 35.9375 14.2731C35.9375 22.0704 42.4165 28.5343 50.2441 28.5343ZM50.2441 22.8483C45.3774 22.8483 41.605 19.0421 41.605 14.2731C41.605 9.47035 45.3774 5.60024 50.2441 5.60024C55.0806 5.60024 58.7856 9.47035 58.8193 14.2731C58.8867 19.0421 55.0806 22.8483 50.2441 22.8483Z" fill="#000000" fill-opacity="0.85"/>
  <path d="M14.2578 28.5006C22.0703 28.5006 28.4668 22.0704 28.4668 14.2916C28.4668 6.49427 22.0703 0.000131183 14.2578 0.000131183C6.39648 0.000131183 0 6.49427 0 14.2916C0 22.0704 6.39648 28.5006 14.2578 28.5006ZM14.2578 22.8483C9.39112 22.8483 5.6338 19.0421 5.6338 14.2731C5.6338 9.47035 9.39112 5.60024 14.2578 5.60024C19.0757 5.60024 22.8818 9.47035 22.8818 14.2731C22.8818 19.0421 19.0757 22.8483 14.2578 22.8483Z" fill="#000000" fill-opacity="0.85"/>
 </g>
</svg>
