<?xml version="1.0" encoding="UTF-8"?>
<!--Generator: Apple Native CoreSVG 232.5-->
<!DOCTYPE svg
PUBLIC "-//W3C//DTD SVG 1.1//EN"
       "http://www.w3.org/Graphics/SVG/1.1/DTD/svg11.dtd">
<svg version="1.1" xmlns="http://www.w3.org/2000/svg" xmlns:xlink="http://www.w3.org/1999/xlink" width="96.0772" height="92.6641">
 <g>
  <rect height="92.6641" opacity="0" width="96.0772" x="0" y="0"/>
  <path d="M74.8975 92.6641C86.4917 92.6641 96.0772 83.0298 96.0772 71.4053C96.0772 59.8145 86.4917 50.1802 74.8975 50.1802C63.145 50.1802 53.6235 59.8145 53.6235 71.4053C53.6235 83.0298 63.145 92.6641 74.8975 92.6641Z" fill="#000000" fill-opacity="0.85"/>
  <path d="M21.2739 92.6641C32.8833 92.6641 42.4873 83.0298 42.4873 71.4053C42.4873 59.8145 32.8833 50.1802 21.2739 50.1802C9.52148 50.1802 0 59.8145 0 71.4053C0 83.0298 9.52148 92.6641 21.2739 92.6641Z" fill="#000000" fill-opacity="0.85"/>
  <path d="M74.8975 42.5444C86.4917 42.5444 96.0772 32.9102 96.0772 21.2856C96.0772 9.66113 86.4917 0.0605464 74.8975 0.0605464C63.145 0.0605464 53.6235 9.66113 53.6235 21.2856C53.6235 32.9102 63.145 42.5444 74.8975 42.5444Z" fill="#000000" fill-opacity="0.85"/>
  <path d="M21.2739 42.5444C32.8833 42.5444 42.4873 32.9102 42.4873 21.2856C42.4873 9.66113 32.8833 0.0605464 21.2739 0.0605464C9.52148 0.0605464 0 9.66113 0 21.2856C0 32.9102 9.52148 42.5444 21.2739 42.5444Z" fill="#000000" fill-opacity="0.85"/>
 </g>
</svg>
