<?xml version="1.0" encoding="UTF-8"?>
<!--Generator: Apple Native CoreSVG 232.5-->
<!DOCTYPE svg
PUBLIC "-//W3C//DTD SVG 1.1//EN"
       "http://www.w3.org/Graphics/SVG/1.1/DTD/svg11.dtd">
<svg version="1.1" xmlns="http://www.w3.org/2000/svg" xmlns:xlink="http://www.w3.org/1999/xlink" width="79.5332" height="107.581">
 <g>
  <rect height="107.581" opacity="0" width="79.5332" x="0" y="0"/>
  <path d="M13.2075 107.581L66.3257 107.581C74.4766 107.581 79.5332 102.678 79.5332 94.7964L79.5332 12.8267C79.5332 4.93018 74.4766 0.00829995 66.3257 0.00829995L13.2075 0.00829995C5.05664 0.00829995 0 4.93018 0 12.8267L0 94.7964C0 102.678 5.05664 107.581 13.2075 107.581ZM13.8965 101.536C8.83448 101.536 6.04494 98.7988 6.04494 93.8716L6.04494 13.7363C6.04494 8.80909 8.83448 6.0381 13.8965 6.0381L65.6367 6.0381C70.665 6.0381 73.5034 8.80909 73.5034 13.7363L73.5034 93.8716C73.5034 98.7988 70.665 101.536 65.6367 101.536Z" fill="#000000" fill-opacity="0.85"/>
  <path d="M39.7573 78.0151C53.1211 78.0151 64.0098 67.1753 64.0098 53.7476C64.0098 40.4175 53.1211 29.5776 39.7573 29.5776C26.4121 29.5776 15.5234 40.4175 15.5234 53.7476C15.5234 67.1753 26.4121 78.0151 39.7573 78.0151Z" fill="#000000" fill-opacity="0.85"/>
 </g>
</svg>
