<?xml version="1.0" encoding="UTF-8"?>
<!--Generator: Apple Native CoreSVG 232.5-->
<!DOCTYPE svg
PUBLIC "-//W3C//DTD SVG 1.1//EN"
       "http://www.w3.org/Graphics/SVG/1.1/DTD/svg11.dtd">
<svg version="1.1" xmlns="http://www.w3.org/2000/svg" xmlns:xlink="http://www.w3.org/1999/xlink" width="133.017" height="97.9932">
 <g>
  <rect height="97.9932" opacity="0" width="133.017" x="0" y="0"/>
  <path d="M0 49.0176C0 50.6328 1.31543 52.0156 2.91212 52.0156L130.12 52.0156C131.702 52.0156 133.017 50.6328 133.017 49.0176C133.017 47.3872 131.702 46.0381 130.12 46.0381L2.91212 46.0381C1.31543 46.0381 0 47.3872 0 49.0176ZM66.5498 97.9443C93.3535 97.9443 115.522 75.7759 115.522 48.9722C115.522 22.1348 93.3198 0 66.5161 0C39.6636 0 17.5625 22.1348 17.5625 48.9722C17.5625 75.7759 39.6973 97.9443 66.5498 97.9443ZM66.5498 91.6113C42.9278 91.6113 23.8955 72.5942 23.8955 48.9722C23.8955 25.3501 42.8941 6.31789 66.5161 6.31789C90.1045 6.31789 109.189 25.3501 109.189 48.9722C109.189 72.5942 90.1382 91.6113 66.5498 91.6113Z" fill="#000000" fill-opacity="0.85"/>
 </g>
</svg>
