<?xml version="1.0" encoding="UTF-8"?>
<!--Generator: Apple Native CoreSVG 232.5-->
<!DOCTYPE svg
PUBLIC "-//W3C//DTD SVG 1.1//EN"
       "http://www.w3.org/Graphics/SVG/1.1/DTD/svg11.dtd">
<svg version="1.1" xmlns="http://www.w3.org/2000/svg" xmlns:xlink="http://www.w3.org/1999/xlink" width="101.856" height="94.6162">
 <g>
  <rect height="94.6162" opacity="0" width="101.856" x="0" y="0"/>
  <path d="M33.396 31.6753C42.0405 31.6753 49.2505 24.499 49.2505 15.8545C49.2505 7.20996 42.0405 0 33.396 0C24.7515 0 17.5566 7.20996 17.5566 15.8545C17.5566 24.499 24.7515 31.6753 33.396 31.6753ZM33.396 25.6304C28.0645 25.6304 23.5864 21.1523 23.5864 15.8545C23.5864 10.5078 28.0645 6.04494 33.396 6.04494C38.7427 6.04494 43.2056 10.5078 43.2056 15.8545C43.2056 21.1523 38.7427 25.6304 33.396 25.6304ZM68.4605 31.6753C77.105 31.6753 84.315 24.499 84.315 15.8545C84.315 7.20996 77.105 0 68.4605 0C59.8159 0 52.6211 7.20996 52.6211 15.8545C52.6211 24.499 59.8159 31.6753 68.4605 31.6753ZM68.4605 25.6304C63.1289 25.6304 58.6509 21.1523 58.6509 15.8545C58.6509 10.5078 63.1289 6.04494 68.4605 6.04494C73.8071 6.04494 78.27 10.5078 78.27 15.8545C78.27 21.1523 73.8071 25.6304 68.4605 25.6304ZM15.8545 63.1382C24.5176 63.1382 31.7275 55.9282 31.7275 47.2837C31.7275 38.6392 24.5176 31.4292 15.8545 31.4292C7.20996 31.4292 0 38.6392 0 47.2837C0 55.9282 7.20996 63.1382 15.8545 63.1382ZM15.8545 57.0933C10.5078 57.0933 6.04494 52.6152 6.04494 47.2837C6.04494 41.937 10.5078 37.4741 15.8545 37.4741C21.186 37.4741 25.6977 41.937 25.6977 47.2837C25.6977 52.6152 21.186 57.0933 15.8545 57.0933ZM86.0171 63.1382C94.6616 63.1382 101.856 55.9282 101.856 47.2837C101.856 38.6392 94.6616 31.4292 86.0171 31.4292C77.3726 31.4292 70.1289 38.6392 70.1289 47.2837C70.1289 55.9282 77.3726 63.1382 86.0171 63.1382ZM86.0171 57.0933C80.6704 57.0933 76.1739 52.6152 76.1739 47.2837C76.1739 41.937 80.6704 37.4741 86.0171 37.4741C91.3486 37.4741 95.8267 41.937 95.8267 47.2837C95.8267 52.6152 91.3486 57.0933 86.0171 57.0933ZM33.396 94.5674C42.0405 94.5674 49.2505 87.3574 49.2505 78.7129C49.2505 70.0347 42.0405 62.8584 33.396 62.8584C24.7515 62.8584 17.5566 70.0347 17.5566 78.7129C17.5566 87.3574 24.7515 94.5674 33.396 94.5674ZM33.396 88.5225C28.0645 88.5225 23.5864 84.0444 23.5864 78.7129C23.5864 73.3662 28.0645 68.9033 33.396 68.9033C38.7427 68.9033 43.2056 73.3662 43.2056 78.7129C43.2056 84.0444 38.7427 88.5225 33.396 88.5225ZM68.4605 94.5674C77.105 94.5674 84.315 87.3574 84.315 78.7129C84.315 70.0347 77.105 62.8584 68.4605 62.8584C59.8159 62.8584 52.6211 70.0347 52.6211 78.7129C52.6211 87.3574 59.8159 94.5674 68.4605 94.5674ZM68.4605 88.5225C63.1289 88.5225 58.6509 84.0444 58.6509 78.7129C58.6509 73.3662 63.1289 68.9033 68.4605 68.9033C73.8071 68.9033 78.27 73.3662 78.27 78.7129C78.27 84.0444 73.8071 88.5225 68.4605 88.5225Z" fill="#000000" fill-opacity="0.85"/>
 </g>
</svg>
