<?xml version="1.0" encoding="UTF-8"?>
<!--Generator: Apple Native CoreSVG 232.5-->
<!DOCTYPE svg
PUBLIC "-//W3C//DTD SVG 1.1//EN"
       "http://www.w3.org/Graphics/SVG/1.1/DTD/svg11.dtd">
<svg version="1.1" xmlns="http://www.w3.org/2000/svg" xmlns:xlink="http://www.w3.org/1999/xlink" width="88.4092" height="88.5371">
 <g>
  <rect height="88.5371" opacity="0" width="88.4092" x="0" y="0"/>
  <path d="M14.3936 88.5371L74.0005 88.5371C83.5733 88.5371 88.4092 83.6558 88.4092 74.2632L88.4092 14.4019C88.4092 5.00928 83.5733 0.127929 74.0005 0.127929L14.3936 0.127929C4.86963 0.127929 0 4.93018 0 14.4019L0 74.2632C0 83.7349 4.86963 88.5371 14.3936 88.5371ZM14.5064 82.4922C9.00294 82.4922 6.04494 79.6016 6.04494 73.9634L6.04494 14.7017C6.04494 9.06349 9.00294 6.17287 14.5064 6.17287L73.9028 6.17287C79.2969 6.17287 82.3643 9.06349 82.3643 14.7017L82.3643 73.9634C82.3643 79.6016 79.2969 82.4922 73.9028 82.4922Z" fill="#000000" fill-opacity="0.85"/>
  <path d="M27.2002 64.3989C28.1113 64.3989 28.8457 64.0654 29.4722 63.4053L44.229 48.6148L59.0532 63.4053C59.6797 64.0317 60.3955 64.3989 61.2915 64.3989C63.0195 64.3989 64.3501 63.0498 64.3501 61.3369C64.3501 60.4561 64.0503 59.7739 63.4053 59.1289L48.5845 44.293L63.439 29.4048C64.1177 28.7261 64.3838 28.0776 64.3838 27.2153C64.3838 25.5361 63.0532 24.187 61.3252 24.187C60.4966 24.187 59.8481 24.4868 59.1392 25.1807L44.229 40.0049L29.4048 25.2144C28.7783 24.5542 28.1113 24.2544 27.2002 24.2544C25.5059 24.2544 24.1265 25.5698 24.1265 27.249C24.1265 28.0962 24.46 28.8272 25.0713 29.4385L39.9072 44.293L25.0713 59.1626C24.46 59.7739 24.1265 60.4897 24.1265 61.3369C24.1265 63.0498 25.5059 64.3989 27.2002 64.3989Z" fill="#000000" fill-opacity="0.85"/>
 </g>
</svg>
