<?xml version="1.0" encoding="UTF-8"?>
<!--Generator: Apple Native CoreSVG 232.5-->
<!DOCTYPE svg
PUBLIC "-//W3C//DTD SVG 1.1//EN"
       "http://www.w3.org/Graphics/SVG/1.1/DTD/svg11.dtd">
<svg version="1.1" xmlns="http://www.w3.org/2000/svg" xmlns:xlink="http://www.w3.org/1999/xlink" width="97.9595" height="97.9932">
 <g>
  <rect height="97.9932" opacity="0" width="97.9595" x="0" y="0"/>
  <path d="M48.9722 97.9443C75.8247 97.9443 97.9595 75.7759 97.9595 48.9722C97.9595 22.1348 75.791 0 48.9385 0C22.1348 0 0 22.1348 0 48.9722C0 75.7759 22.1685 97.9443 48.9722 97.9443ZM48.9722 91.6113C25.3501 91.6113 6.36671 72.5942 6.36671 48.9722C6.36671 25.3501 25.3164 6.31789 48.9385 6.31789C72.5605 6.31789 91.6265 25.3501 91.6265 48.9722C91.6265 72.5942 72.5942 91.6113 48.9722 91.6113Z" fill="#000000" fill-opacity="0.85"/>
  <path d="M35.0064 52.0503C33.8814 52.0503 33.0225 51.2402 33.0225 50.1001C33.0225 48.9448 33.8814 48.1348 35.0064 48.1348L46.9883 48.1348L46.9883 31.9859C46.9883 30.8794 47.8472 30.0357 48.9385 30.0357C50.124 30.0357 51.0015 30.8794 51.0015 31.9859L51.0015 50.1001C51.0015 51.2066 50.0449 52.0503 48.9385 52.0503ZM48.9722 75.2232C63.3394 75.2232 75.2232 63.3242 75.2232 48.9722C75.2232 34.605 63.3394 22.7212 48.9385 22.7212C34.5864 22.7212 22.7363 34.605 22.7363 48.9722C22.7363 63.3242 34.6201 75.2232 48.9722 75.2232Z" fill="#000000" fill-opacity="0.85"/>
 </g>
</svg>
