<?xml version="1.0" encoding="UTF-8"?>
<!--Generator: Apple Native CoreSVG 232.5-->
<!DOCTYPE svg
PUBLIC "-//W3C//DTD SVG 1.1//EN"
       "http://www.w3.org/Graphics/SVG/1.1/DTD/svg11.dtd">
<svg version="1.1" xmlns="http://www.w3.org/2000/svg" xmlns:xlink="http://www.w3.org/1999/xlink" width="97.9595" height="97.9932">
 <g>
  <rect height="97.9932" opacity="0" width="97.9595" x="0" y="0"/>
  <path d="M48.9722 97.9443C75.8247 97.9443 97.9595 75.7759 97.9595 48.9722C97.9595 22.1348 75.791 0 48.9385 0C22.1348 0 0 22.1348 0 48.9722C0 75.7759 22.1685 97.9443 48.9722 97.9443ZM48.9722 91.6113C25.3501 91.6113 6.36671 72.5942 6.36671 48.9722C6.36671 25.3501 25.3164 6.31789 48.9385 6.31789C72.5605 6.31789 91.6265 25.3501 91.6265 48.9722C91.6265 72.5942 72.5942 91.6113 48.9722 91.6113Z" fill="#000000" fill-opacity="0.85"/>
  <path d="M22.436 53.7612L48.9385 53.7612C50.4492 53.7612 51.645 52.6143 51.645 51.0698L51.645 16.8428C51.645 15.3472 50.4492 14.2153 48.9385 14.2153C47.4731 14.2153 46.311 15.3472 46.311 16.8428L46.311 48.4424L22.436 48.4424C20.8916 48.4424 19.7598 49.5894 19.7598 51.0698C19.7598 52.6143 20.8916 53.7612 22.436 53.7612Z" fill="#000000" fill-opacity="0.85"/>
 </g>
</svg>
