<?xml version="1.0" encoding="UTF-8"?>
<!--Generator: Apple Native CoreSVG 232.5-->
<!DOCTYPE svg
PUBLIC "-//W3C//DTD SVG 1.1//EN"
       "http://www.w3.org/Graphics/SVG/1.1/DTD/svg11.dtd">
<svg version="1.1" xmlns="http://www.w3.org/2000/svg" xmlns:xlink="http://www.w3.org/1999/xlink" width="97.9595" height="97.9932">
 <g>
  <rect height="97.9932" opacity="0" width="97.9595" x="0" y="0"/>
  <path d="M97.9595 48.9722C97.9595 75.7759 75.8247 97.9443 48.9722 97.9443C22.1685 97.9443 0 75.7759 0 48.9722C0 22.1348 22.1348 0 48.9385 0C75.791 0 97.9595 22.1348 97.9595 48.9722ZM22.1787 48.9722C22.1787 63.6123 34.332 75.7319 48.9722 75.7319C63.6274 75.7319 75.7808 63.6123 75.7808 48.9722C75.7808 34.3169 63.6274 22.1787 48.9385 22.1787C34.2983 22.1787 22.1787 34.3169 22.1787 48.9722ZM51.0689 31.6641L51.0689 50.1338C51.0689 51.2739 50.0786 52.1177 48.9385 52.1177L34.752 52.1177C33.5781 52.1177 32.7007 51.3076 32.7007 50.1338C32.7007 48.9448 33.5781 48.1011 34.752 48.1011L46.936 48.1011L46.936 31.6641C46.936 30.5239 47.8135 29.6465 48.9385 29.6465C50.1577 29.6465 51.0689 30.5239 51.0689 31.6641Z" fill="#000000" fill-opacity="0.85"/>
 </g>
</svg>
