<?xml version="1.0" encoding="UTF-8"?>
<!--Generator: Apple Native CoreSVG 232.5-->
<!DOCTYPE svg
PUBLIC "-//W3C//DTD SVG 1.1//EN"
       "http://www.w3.org/Graphics/SVG/1.1/DTD/svg11.dtd">
<svg version="1.1" xmlns="http://www.w3.org/2000/svg" xmlns:xlink="http://www.w3.org/1999/xlink" width="97.9595" height="97.9932">
 <g>
  <rect height="97.9932" opacity="0" width="97.9595" x="0" y="0"/>
  <path d="M48.9722 97.9443C75.8247 97.9443 97.9595 75.7759 97.9595 48.9722C97.9595 22.1348 75.791 0 48.9385 0C22.1348 0 0 22.1348 0 48.9722C0 75.7759 22.1685 97.9443 48.9722 97.9443ZM48.9722 91.6113C25.3501 91.6113 6.36671 72.5942 6.36671 48.9722C6.36671 25.3501 25.3164 6.31789 48.9385 6.31789C72.5605 6.31789 91.6265 25.3501 91.6265 48.9722C91.6265 72.5942 72.5942 91.6113 48.9722 91.6113Z" fill="#000000" fill-opacity="0.85"/>
  <path d="M32.8862 53.7759L62.5933 53.7759C70.1162 53.7759 75.957 47.9922 75.957 40.811C75.957 33.416 69.8535 28.0415 61.9434 28.0415C58.9346 22.0982 53.6055 18.1685 46.5645 18.1685C37.8057 18.1685 30.5606 25.2417 29.7456 34.0845C25.4253 35.29 22.0513 38.9219 22.0513 43.9175C22.0513 49.3291 26.0098 53.7759 32.8862 53.7759ZM41.874 67.6851C41.4834 68.4629 41.9009 69.0942 42.7915 69.0942L47.2036 69.0942L43.2788 78.6865C43.0532 79.2017 43.2114 79.6377 43.5649 79.7842C43.8882 79.8818 44.3057 79.7842 44.6323 79.3818L55.8902 66.4688C56.5249 65.6792 56.2202 64.8154 55.2168 64.8154L49.9561 64.8154L53.064 58.8286C53.4326 58.1333 53.1465 57.4868 52.3687 57.4868L47.4487 57.4868C46.5581 57.4868 46.1523 57.8101 45.8594 58.4902Z" fill="#000000" fill-opacity="0.85"/>
 </g>
</svg>
