<?xml version="1.0" encoding="UTF-8"?>
<!--Generator: Apple Native CoreSVG 232.5-->
<!DOCTYPE svg
PUBLIC "-//W3C//DTD SVG 1.1//EN"
       "http://www.w3.org/Graphics/SVG/1.1/DTD/svg11.dtd">
<svg version="1.1" xmlns="http://www.w3.org/2000/svg" xmlns:xlink="http://www.w3.org/1999/xlink" width="97.9595" height="97.9932">
 <g>
  <rect height="97.9932" opacity="0" width="97.9595" x="0" y="0"/>
  <path d="M97.9595 49.021C97.9595 75.8584 75.8247 97.9932 48.9722 97.9932C22.1685 97.9932 0 75.8584 0 49.021C0 22.2173 22.1348 0.0488281 48.9385 0.0488281C75.791 0.0488281 97.9595 22.2173 97.9595 49.021ZM26.5615 75.4434C26.5615 77.1626 27.9541 78.5703 29.6733 78.5703C31.3438 78.5703 32.7515 77.1626 32.7515 75.4434C32.7515 73.773 31.3438 72.3652 29.6733 72.3652C27.9541 72.3652 26.5615 73.773 26.5615 75.4434ZM40.3193 75.4434C40.3193 77.1626 41.7119 78.5703 43.4312 78.5703C45.1353 78.5703 46.543 77.1626 46.543 75.4434C46.543 73.773 45.1353 72.3652 43.4312 72.3652C41.7119 72.3652 40.3193 73.773 40.3193 75.4434ZM54.0435 75.4434C54.0435 77.1626 55.4849 78.5703 57.1553 78.5703C58.8408 78.5703 60.2671 77.1626 60.2671 75.4434C60.2671 73.773 58.8408 72.3652 57.1553 72.3652C55.4849 72.3652 54.0435 73.773 54.0435 75.4434ZM35.2559 61.2363L31.7476 67.2378C31.2222 68.127 31.5337 69.3682 32.4902 69.9121C33.4316 70.4409 34.6055 70.0923 35.1309 69.1694L38.6392 63.168C39.1494 62.2788 38.8379 61.0562 37.8965 60.4785C36.9551 59.9834 35.7661 60.3135 35.2559 61.2363ZM49.0137 61.2363L45.5391 67.2378C44.9951 68.127 45.3066 69.3682 46.2481 69.9121C47.1558 70.4409 48.3784 70.0923 48.8887 69.1694L52.3633 63.168C52.9072 62.2788 52.6108 61.0562 51.6543 60.4785C50.7466 59.9834 49.5239 60.3135 49.0137 61.2363ZM62.7378 61.2363L59.2295 67.2378C58.7192 68.127 59.0308 69.3682 59.9873 69.9121C60.9136 70.4409 62.1026 70.0923 62.6128 69.1694L66.1211 63.168C66.6465 62.2788 66.3687 61.0562 65.3784 60.4785C64.4522 59.9834 63.2632 60.3135 62.7378 61.2363ZM29.3901 35.1753C24.9688 36.4146 21.5273 40.1323 21.5273 45.2105C21.5273 50.708 25.5869 55.2744 32.583 55.2744L62.8814 55.2744C70.5576 55.2744 76.5483 49.3711 76.5483 42.0552C76.5483 34.5068 70.3101 28.9976 62.2315 28.9976C59.1704 22.9683 53.7402 18.9375 46.5459 18.9375C37.6187 18.9375 30.2051 26.1304 29.3901 35.1753Z" fill="#000000" fill-opacity="0.85"/>
 </g>
</svg>
