<?xml version="1.0" encoding="UTF-8"?>
<!--Generator: Apple Native CoreSVG 232.5-->
<!DOCTYPE svg
PUBLIC "-//W3C//DTD SVG 1.1//EN"
       "http://www.w3.org/Graphics/SVG/1.1/DTD/svg11.dtd">
<svg version="1.1" xmlns="http://www.w3.org/2000/svg" xmlns:xlink="http://www.w3.org/1999/xlink" width="115.653" height="109.595">
 <g>
  <rect height="109.595" opacity="0" width="115.653" x="0" y="0"/>
  <path d="M93.1504 101.522L28.4746 101.522C27.0835 101.522 25.9736 102.553 25.9736 103.948C25.9736 105.342 27.0835 106.422 28.4746 106.422L93.1504 106.422C94.5415 106.422 95.6514 105.342 95.6514 103.948C95.6514 102.553 94.5415 101.522 93.1504 101.522Z" fill="#000000" fill-opacity="0.85"/>
  <path d="M93.1504 84.9546L28.4746 84.9546C27.0835 84.9546 25.9736 86.0005 25.9736 87.395C25.9736 88.7896 27.0835 89.8203 28.4746 89.8203L93.1504 89.8203C94.5415 89.8203 95.6514 88.7896 95.6514 87.395C95.6514 86.0005 94.5415 84.9546 93.1504 84.9546Z" fill="#000000" fill-opacity="0.85"/>
  <path d="M27.2788 72.9907L88.2075 72.9907C103.845 72.9907 115.653 61.1504 115.653 46.4292C115.653 31.2769 103.154 20.1724 86.8892 20.1724C80.7856 7.8999 69.7905 0 55.3462 0C37.3198 0 22.4858 14.4043 20.9048 32.5347C11.9609 35.0469 4.99561 42.501 4.99561 52.7583C4.99561 63.9067 13.167 72.9907 27.2788 72.9907Z" fill="#000000" fill-opacity="0.85"/>
 </g>
</svg>
