<?xml version="1.0" encoding="UTF-8"?>
<!--Generator: Apple Native CoreSVG 232.5-->
<!DOCTYPE svg
PUBLIC "-//W3C//DTD SVG 1.1//EN"
       "http://www.w3.org/Graphics/SVG/1.1/DTD/svg11.dtd">
<svg version="1.1" xmlns="http://www.w3.org/2000/svg" xmlns:xlink="http://www.w3.org/1999/xlink" width="115.653" height="124.065">
 <g>
  <rect height="124.065" opacity="0" width="115.653" x="0" y="0"/>
  <path d="M94.4478 117.933C95.6401 118.578 97.0347 118.166 97.7285 116.961L104.606 105.033C105.349 103.795 104.966 102.435 103.823 101.722C102.627 101.04 101.3 101.422 100.557 102.694L93.646 114.656C92.937 115.86 93.2368 117.221 94.4478 117.933Z" fill="#000000" fill-opacity="0.85"/>
  <path d="M84.8389 104.261C86.0161 104.94 87.4107 104.542 88.1045 103.29L94.9819 91.4102C95.7398 90.1236 95.3423 88.7627 94.1987 88.0654C93.0029 87.4019 91.6758 87.7842 90.9331 89.0371L84.022 101.018C83.3281 102.237 83.6279 103.598 84.8389 104.261Z" fill="#000000" fill-opacity="0.85"/>
  <path d="M69.6455 99.6128L59.2881 99.6128L59.4629 101.492L65.8286 89.2944C66.4146 88.2202 65.9751 87.375 64.8858 87.375L56.8027 87.375C55.3867 87.375 54.8833 87.8633 54.4438 88.9038L47.7427 104.207C47.1904 105.458 47.8184 106.175 49.0576 106.175L57.334 106.175L57.9687 103.264L50.0166 122.583C49.7573 123.248 49.9189 123.8 50.3735 123.996C50.8281 124.176 51.3955 124.014 51.9023 123.432L70.5327 101.994C71.4673 100.904 71.0464 99.6128 69.6455 99.6128Z" fill="#000000" fill-opacity="0.85"/>
  <path d="M27.4092 117.933C28.5864 118.578 29.981 118.166 30.6748 116.961L37.5522 105.033C38.3101 103.795 37.9277 102.435 36.7353 101.722C35.5884 101.04 34.2612 101.422 33.5034 102.694L26.5586 114.656C25.8984 115.86 26.1982 117.221 27.4092 117.933Z" fill="#000000" fill-opacity="0.85"/>
  <path d="M17.7852 104.261C18.9624 104.94 20.3569 104.542 21.0508 103.29L27.9434 91.4102C28.686 90.1236 28.3037 88.7627 27.1265 88.0654C25.9644 87.4019 24.6372 87.7842 23.8794 89.0371L16.9683 101.018C16.2744 102.237 16.5742 103.598 17.7852 104.261Z" fill="#000000" fill-opacity="0.85"/>
  <path d="M27.2788 80.2261L88.2075 80.2261C103.845 80.2261 115.653 68.3858 115.653 53.6646C115.653 38.5122 103.154 27.4077 86.8892 27.4077C80.7856 15.1353 69.7905 7.23536 55.3462 7.23536C37.3198 7.23536 22.4858 21.6397 20.9048 39.77C11.9609 42.2822 4.99561 49.7363 4.99561 59.9937C4.99561 71.1421 13.167 80.2261 27.2788 80.2261Z" fill="#000000" fill-opacity="0.85"/>
 </g>
</svg>
