<?xml version="1.0" encoding="UTF-8"?>
<!--Generator: Apple Native CoreSVG 232.5-->
<!DOCTYPE svg
PUBLIC "-//W3C//DTD SVG 1.1//EN"
       "http://www.w3.org/Graphics/SVG/1.1/DTD/svg11.dtd">
<svg version="1.1" xmlns="http://www.w3.org/2000/svg" xmlns:xlink="http://www.w3.org/1999/xlink" width="135.159" height="120.515">
 <g>
  <rect height="120.515" opacity="0" width="135.159" x="0" y="0"/>
  <path d="M86.877 103.952C88.0542 104.665 88.4517 106.025 87.6938 107.263L80.8164 119.191C80.1226 120.429 78.728 120.827 77.5508 120.163C76.3398 119.451 76.04 118.09 76.7339 116.919L83.645 104.924C84.3877 103.686 85.7148 103.304 86.877 103.952Z" fill="#000000" fill-opacity="0.85"/>
  <path d="M71.5518 90.2466C72.6953 90.9253 73.0776 92.2861 72.335 93.5576L65.4575 105.452C64.7485 106.705 63.354 107.103 62.1768 106.458C60.9658 105.76 60.666 104.399 61.3599 103.18L68.2861 91.2334C69.0288 89.9468 70.356 89.5644 71.5518 90.2466Z" fill="#000000" fill-opacity="0.85"/>
  <path d="M48.0435 103.986C49.2207 104.683 49.603 106.044 48.8115 107.297L41.9341 119.21C41.2402 120.463 39.8457 120.86 38.7021 120.197C37.4912 119.484 37.1577 118.124 37.8516 116.938L44.7627 104.958C45.5542 103.72 46.8813 103.322 48.0435 103.986Z" fill="#000000" fill-opacity="0.85"/>
  <path d="M32.6694 90.2803C33.8467 90.959 34.2441 92.3198 33.4863 93.5913L26.5752 105.486C25.8814 106.724 24.4868 107.136 23.3433 106.491C22.1323 105.794 21.7988 104.433 22.4927 103.214L29.4038 91.2671C30.1802 89.9805 31.5225 89.5981 32.6694 90.2803Z" fill="#000000" fill-opacity="0.85"/>
  <path d="M104.029 3.41501C104.029 5.57908 100.91 10.2549 100.91 16.4883C100.91 28.4453 108.061 35.2392 120.655 35.2392C127.01 35.2392 131.07 32.4926 133.1 32.4926C134.42 32.4926 135.159 33.6211 135.159 35.1772C135.159 41.8024 127.201 55.4592 110.734 57.2933C110.132 42.7634 98.7556 31.8362 83.6182 30.4585C82.3733 28.4268 80.9954 26.552 79.4934 24.8497C81.3236 12.2096 91.4096 2.08184 101.217 1.29148C103.061 1.16697 104.029 2.0073 104.029 3.41501Z" fill="#000000" fill-opacity="0.85"/>
  <path d="M28.3882 81.7827L81.5566 81.7827C94.9966 81.7827 105.527 71.6211 105.527 58.5649C105.527 45.4668 94.7861 35.6284 80.4741 35.5761C74.6401 24.3696 64.6958 18.0371 52.9097 18.0371C37.3735 18.0371 24.1997 30.3906 22.8257 46.3911C14.3433 48.7754 8.93017 55.6401 8.93017 64.0674C8.93017 74.5205 16.8945 81.7827 28.3882 81.7827Z" fill="#000000" fill-opacity="0.85"/>
 </g>
</svg>
