<?xml version="1.0" encoding="UTF-8"?>
<!--Generator: Apple Native CoreSVG 232.5-->
<!DOCTYPE svg
PUBLIC "-//W3C//DTD SVG 1.1//EN"
       "http://www.w3.org/Graphics/SVG/1.1/DTD/svg11.dtd">
<svg version="1.1" xmlns="http://www.w3.org/2000/svg" xmlns:xlink="http://www.w3.org/1999/xlink" width="97.9595" height="97.9932">
 <g>
  <rect height="97.9932" opacity="0" width="97.9595" x="0" y="0"/>
  <path d="M48.9722 97.9443C75.8247 97.9443 97.9595 75.7759 97.9595 48.9722C97.9595 22.1348 75.791 0 48.9385 0C22.1348 0 0 22.1348 0 48.9722C0 75.7759 22.1685 97.9443 48.9722 97.9443ZM48.9722 91.6113C25.3501 91.6113 6.36671 72.5942 6.36671 48.9722C6.36671 25.3501 25.3164 6.31789 48.9385 6.31789C72.5605 6.31789 91.6265 25.3501 91.6265 48.9722C91.6265 72.5942 72.5942 91.6113 48.9722 91.6113Z" fill="#000000" fill-opacity="0.85"/>
  <path d="M33.1406 53.6245L62.8477 53.6245C70.3706 53.6245 76.2266 47.8408 76.2266 40.6934C76.2266 33.2798 70.1079 27.8901 62.1978 27.8901C59.2041 21.9468 53.8599 18.0508 46.834 18.0508C38.0601 18.0508 30.8301 25.0903 30 33.9331C25.6797 35.1724 22.3057 38.7705 22.3057 43.7813C22.3057 49.1777 26.2642 53.6245 33.1406 53.6245ZM39.7427 75.0913L47.7129 61.3496C48.2905 60.3931 47.9453 59.2715 46.9888 58.7275C46.0962 58.2324 44.9932 58.5288 44.4492 59.4854L36.4605 73.1782C35.9165 74.1011 36.228 75.2564 37.1694 75.8003C38.0772 76.2954 39.1987 75.999 39.7427 75.0913ZM61.1236 75.0913L69.1123 61.3496C69.69 60.3931 69.3447 59.2715 68.3882 58.7275C67.4956 58.2324 66.3926 58.5288 65.815 59.4854L57.8599 73.1782C57.3159 74.1011 57.6275 75.2564 58.584 75.8003C59.4766 76.2954 60.5982 75.999 61.1236 75.0913ZM50.4331 75.0913L58.3882 61.3496C58.9658 60.3931 58.6358 59.2715 57.6792 58.7275C56.7715 58.2324 55.6836 58.5288 55.106 59.4854L47.1509 73.1782C46.5918 74.1011 46.9033 75.2564 47.8599 75.8003C48.7676 76.2954 49.8892 75.999 50.4331 75.0913ZM29.0337 75.0913L36.9888 61.3496C37.5664 60.3931 37.2212 59.2715 36.2647 58.7275C35.4058 58.2324 34.2842 58.5288 33.7402 59.4854L25.7363 73.1782C25.1924 74.1011 25.5039 75.2564 26.4605 75.8003C27.353 76.2954 28.4898 75.999 29.0337 75.0913Z" fill="#000000" fill-opacity="0.85"/>
 </g>
</svg>
