<?xml version="1.0" encoding="UTF-8"?>
<!--Generator: Apple Native CoreSVG 232.5-->
<!DOCTYPE svg
PUBLIC "-//W3C//DTD SVG 1.1//EN"
       "http://www.w3.org/Graphics/SVG/1.1/DTD/svg11.dtd">
<svg version="1.1" xmlns="http://www.w3.org/2000/svg" xmlns:xlink="http://www.w3.org/1999/xlink" width="134.254" height="120.64">
 <g>
  <rect height="120.64" opacity="0" width="134.254" x="0" y="0"/>
  <path d="M86.2301 104.082C87.4074 104.78 87.7897 106.14 87.047 107.393L80.1359 119.306C79.4606 120.559 78.0324 120.957 76.8888 120.293C75.6779 119.581 75.3444 118.22 76.0383 117.034L82.9494 105.054C83.7409 103.816 85.068 103.419 86.2301 104.082Z" fill="#000000" fill-opacity="0.85"/>
  <path d="M70.8561 90.3767C72.0485 91.0554 72.4308 92.4162 71.673 93.6877L64.7956 105.582C64.1017 106.82 62.7072 107.233 61.53 106.588C60.319 105.875 60.0192 104.514 60.7131 103.31L67.6242 91.3484C68.382 90.0769 69.7092 89.6945 70.8561 90.3767Z" fill="#000000" fill-opacity="0.85"/>
  <path d="M47.3815 104.116C48.5251 104.813 48.9225 106.174 48.1647 107.427L41.2873 119.34C40.5934 120.593 39.1989 120.99 38.0217 120.312C36.8444 119.614 36.5109 118.254 37.2048 117.068L44.1159 105.088C44.8586 103.835 46.1857 103.452 47.3815 104.116Z" fill="#000000" fill-opacity="0.85"/>
  <path d="M32.0226 90.4104C33.1999 91.0891 33.5485 92.4499 32.8058 93.7214L25.9284 105.616C25.2194 106.854 23.84 107.266 22.6476 106.621C21.4704 105.909 21.1369 104.548 21.8459 103.344L28.757 91.382C29.4997 90.1106 30.8268 89.7282 32.0226 90.4104Z" fill="#000000" fill-opacity="0.85"/>
  <path d="M101.876 4.30488C101.876 6.87276 99.925 9.51827 99.925 15.7355C99.925 27.343 106.956 34.3874 119.483 34.3874C124.991 34.3874 127.853 32.8605 130.435 32.8605C133.335 32.8605 134.996 35.4714 133.929 38.4543C131.508 46.738 121.539 58.0017 104.941 58.0017C104.92 58.0017 104.9 58.0016 104.88 57.9987C104.85 56.0554 104.564 54.1946 104.042 52.4403C104.332 52.477 104.636 52.4821 104.941 52.4821C117.51 52.4821 125.986 44.4636 128.386 38.4489L128.09 38.198C125.496 39.0969 121.91 39.7619 118.382 39.7619C104.219 39.7619 94.4679 30.5852 94.4679 16.7009C94.4679 12.4836 95.3517 9.0002 96.3332 6.65645L95.9323 6.34151C89.5661 8.96408 81.8737 16.2009 81.8737 28.2858C81.8737 30.8196 82.1775 33.2193 82.7661 35.4446C81.7586 35.3128 80.7223 35.2466 79.6672 35.2331C78.7334 33.4638 77.6859 31.8014 76.5218 30.2706C76.4561 29.6836 76.4401 29.0776 76.4401 28.466C76.4401 13.1574 86.6066 3.18184 95.717 0.626655C99.1813-0.429501 101.876 1.06953 101.876 4.30488Z" fill="#000000" fill-opacity="0.85"/>
  <path d="M27.3034 82.3674L80.4382 82.3674C94.2013 82.3674 104.915 71.9953 104.915 58.6799C104.915 45.383 94.0431 35.4167 79.6672 35.2331C73.9997 24.4943 64.1427 17.694 51.8249 17.694C35.9806 17.694 22.8034 30.2092 21.2677 46.1794C13.1774 48.552 7.34196 55.2956 7.34196 64.2126C7.34196 74.5969 15.1735 82.3674 27.3034 82.3674ZM27.1686 76.4167C18.1716 76.4167 13.2775 71.0563 13.2775 64.3474C13.2775 58.4636 17.0163 53.6013 24.3605 51.5608C26.3259 51.0168 27.0383 50.1696 27.1882 48.2126C28.2507 34.2194 39.0881 23.6447 51.8249 23.6447C62.2663 23.6447 70.0177 29.611 74.5739 38.757C75.4816 40.5236 76.4718 41.1013 78.5534 41.1013C91.0788 41.1013 98.946 49.0969 98.946 58.8601C98.946 68.5964 90.9186 76.4167 80.5241 76.4167Z" fill="#000000" fill-opacity="0.85"/>
 </g>
</svg>
