<?xml version="1.0" encoding="UTF-8"?>
<!--Generator: Apple Native CoreSVG 232.5-->
<!DOCTYPE svg
PUBLIC "-//W3C//DTD SVG 1.1//EN"
       "http://www.w3.org/Graphics/SVG/1.1/DTD/svg11.dtd">
<svg version="1.1" xmlns="http://www.w3.org/2000/svg" xmlns:xlink="http://www.w3.org/1999/xlink" width="97.9595" height="97.9932">
 <g>
  <rect height="97.9932" opacity="0" width="97.9595" x="0" y="0"/>
  <path d="M48.9722 97.9443C75.8247 97.9443 97.9595 75.7759 97.9595 48.9722C97.9595 22.1348 75.791 0 48.9385 0C22.1348 0 0 22.1348 0 48.9722C0 75.7759 22.1685 97.9443 48.9722 97.9443ZM48.9722 91.6113C25.3501 91.6113 6.36671 72.5942 6.36671 48.9722C6.36671 25.3501 25.3164 6.31789 48.9385 6.31789C72.5605 6.31789 91.6265 25.3501 91.6265 48.9722C91.6265 72.5942 72.5942 91.6113 48.9722 91.6113Z" fill="#000000" fill-opacity="0.85"/>
  <path d="M32.8862 55.3789L62.5933 55.3789C70.1162 55.3789 75.957 49.6104 75.957 42.4629C75.957 35.0679 69.8535 29.6597 61.9434 29.6597C58.9346 23.7163 53.6055 19.8203 46.5645 19.8203C37.8057 19.8203 30.5606 26.8447 29.7456 35.7363C25.4253 36.9419 22.0513 40.5737 22.0513 45.5357C22.0513 50.9321 26.0098 55.3789 32.8862 55.3789ZM34.0635 69.7642L37.8936 63.1528C38.4375 62.2637 38.126 61.0747 37.1694 60.5645C36.3106 60.0356 35.1553 60.3506 34.645 61.2734L30.7998 67.8511C30.2559 68.7739 30.5674 69.9629 31.5239 70.4731C32.3828 71.002 33.5381 70.687 34.0635 69.7642ZM42.3389 77.0967L46.1841 70.5191C46.728 69.5962 46.4165 68.4409 45.46 67.897C44.6011 67.4019 43.4307 67.7168 42.9204 68.606L39.0566 75.2173C38.5464 76.1401 38.8579 77.2954 39.7993 77.8394C40.6733 78.3345 41.7949 78.0195 42.3389 77.0967ZM54.9751 69.7305L58.8203 63.1191C59.3643 62.23 59.0527 61.041 58.0962 60.5308C57.2222 60.002 56.0669 60.3169 55.5566 61.2398L51.7266 67.8174C51.1826 68.7402 51.4941 69.9292 52.4356 70.4395C53.3096 70.9683 54.4649 70.6533 54.9751 69.7305ZM63.2808 77.0967L67.1597 70.5191C67.6397 69.5962 67.3584 68.4409 66.4019 67.897C65.5278 67.4019 64.3574 67.7168 63.8623 68.606L60.0322 75.2173C59.5034 76.1401 59.7998 77.2954 60.7412 77.8394C61.6152 78.3345 62.7857 78.0195 63.2808 77.0967Z" fill="#000000" fill-opacity="0.85"/>
 </g>
</svg>
