<?xml version="1.0" encoding="UTF-8"?>
<!--Generator: Apple Native CoreSVG 232.5-->
<!DOCTYPE svg
PUBLIC "-//W3C//DTD SVG 1.1//EN"
       "http://www.w3.org/Graphics/SVG/1.1/DTD/svg11.dtd">
<svg version="1.1" xmlns="http://www.w3.org/2000/svg" xmlns:xlink="http://www.w3.org/1999/xlink" width="150.733" height="136.469">
 <g>
  <rect height="136.469" opacity="0" width="150.733" x="0" y="0"/>
  <path d="M88.8618 119.503C90.0391 120.167 90.4214 121.543 89.6787 122.814L82.7676 134.694C82.0923 135.947 80.6641 136.344 79.5205 135.681C78.3096 135.002 77.9761 133.641 78.6699 132.422L85.581 120.475C86.3726 119.204 87.6997 118.806 88.8618 119.503Z" fill="#000000" fill-opacity="0.85"/>
  <path d="M73.4878 105.764C74.6802 106.477 75.0625 107.837 74.3047 109.075L67.4273 121.003C66.7334 122.208 65.3389 122.654 64.1616 121.975C62.9507 121.278 62.6509 119.917 63.3447 118.731L70.2559 106.751C71.0137 105.464 72.3408 105.116 73.4878 105.764Z" fill="#000000" fill-opacity="0.85"/>
  <path d="M50.0132 119.537C51.1567 120.201 51.5542 121.562 50.7964 122.848L43.9189 134.728C43.2251 135.98 41.8306 136.378 40.6533 135.714C39.4761 135.036 39.1426 133.675 39.8364 132.456L46.7476 120.509C47.4902 119.237 48.8174 118.84 50.0132 119.537Z" fill="#000000" fill-opacity="0.85"/>
  <path d="M34.6543 105.798C35.8315 106.51 36.1802 107.871 35.4375 109.109L28.5601 121.037C27.8511 122.241 26.4717 122.688 25.2793 122.009C24.102 121.296 23.7686 119.936 24.4775 118.765L31.3887 106.785C32.1313 105.498 33.4585 105.149 34.6543 105.798Z" fill="#000000" fill-opacity="0.85"/>
  <path d="M127.744 72.5947L136.172 81.0376C137.401 82.2856 137.356 84.2227 136.172 85.4033C134.973 86.5723 133.036 86.6514 131.806 85.437L123.345 76.9605C122.146 75.7612 122.161 73.794 123.345 72.5947C124.544 71.4443 126.511 71.4292 127.744 72.5947ZM124.408 50.0176C124.408 60.7345 117.269 69.8247 107.524 72.7382C107.447 70.812 107.109 68.9703 106.554 67.2291C113.753 64.8605 118.819 58.1154 118.819 50.0176C118.819 39.8672 110.888 31.9204 100.786 31.9204C90.6694 31.9204 82.7041 39.8672 82.7041 50.0176C82.7041 50.235 82.7078 50.4515 82.7357 50.661C82.6042 50.6429 82.4668 50.6406 82.3291 50.6392C81.0606 48.2344 79.5832 46.0268 77.9056 44.0614C80.5347 33.864 89.8196 26.2983 100.786 26.2983C113.792 26.2983 124.408 36.9634 124.408 50.0176ZM150.733 50.0176C150.733 51.7188 149.35 53.1016 147.667 53.1016L135.725 53.1016C134.106 53.1016 132.656 51.7188 132.656 50.0176C132.656 48.3652 134.106 46.9487 135.725 46.9487L147.667 46.9487C149.35 46.9487 150.733 48.3652 150.733 50.0176ZM136.172 14.647C137.356 15.8462 137.401 17.832 136.172 19.0801L127.778 27.4893C126.511 28.7222 124.544 28.6582 123.345 27.4893C122.161 26.29 122.146 24.3228 123.345 23.1235L131.806 14.647C133.036 13.4326 134.973 13.4629 136.172 14.647ZM69.751 14.647L78.2275 23.1235C79.3931 24.2891 79.3628 26.3237 78.1938 27.4893C76.9946 28.6582 74.9936 28.6885 73.7944 27.4893L65.3852 19.0464C64.1709 17.832 64.2349 15.8462 65.4189 14.647C66.6182 13.4629 68.5552 13.4663 69.751 14.647ZM103.934 3.08399L103.934 14.9814C103.934 16.6338 102.469 18.0317 100.801 18.0317C99.1338 18.0317 97.7021 16.6338 97.7021 14.9814L97.7021 3.08399C97.7021 1.41651 99.1338-1.42109e-14 100.801-1.42109e-14C102.469-1.42109e-14 103.934 1.41651 103.934 3.08399Z" fill="#000000" fill-opacity="0.85"/>
  <path d="M29.9351 97.8037L83.0698 97.8037C96.8818 97.8037 107.592 87.398 107.592 74.0674C107.592 60.8193 96.7051 50.7891 82.3291 50.6392C76.6465 39.8667 66.7744 33.0513 54.4565 33.0513C38.6123 33.0513 25.4048 45.5815 23.8843 61.5518C15.7602 63.9243 9.94335 70.7168 9.94335 79.6338C9.94335 89.9995 17.7412 97.8037 29.9351 97.8037ZM29.8003 91.7739C20.8184 91.7739 15.9883 86.4624 15.9883 79.7686C15.9883 73.8662 19.6631 69.0527 26.9922 66.9785C29.0215 66.4683 29.6851 65.606 29.835 63.6001C30.9312 49.6558 41.7686 39.0811 54.4565 39.0811C64.8828 39.0811 72.5854 45.0474 77.1904 54.1597C78.0644 55.9263 79.1035 56.5376 81.1851 56.5376C93.6465 56.5376 101.562 64.5332 101.562 74.2813C101.562 83.9536 93.52 91.7739 83.1558 91.7739Z" fill="#000000" fill-opacity="0.85"/>
 </g>
</svg>
