<?xml version="1.0" encoding="UTF-8"?>
<!--Generator: Apple Native CoreSVG 232.5-->
<!DOCTYPE svg
PUBLIC "-//W3C//DTD SVG 1.1//EN"
       "http://www.w3.org/Graphics/SVG/1.1/DTD/svg11.dtd">
<svg version="1.1" xmlns="http://www.w3.org/2000/svg" xmlns:xlink="http://www.w3.org/1999/xlink" width="150.672" height="136.58">
 <g>
  <rect height="136.58" opacity="0" width="150.672" x="0" y="0"/>
  <path d="M89.1533 119.574C90.3306 120.253 90.7129 121.647 89.9702 122.885L83.0591 134.813C82.3838 136.018 80.9556 136.43 79.812 135.785C78.6011 135.073 78.2676 133.712 78.9614 132.508L85.8877 120.546C86.6641 119.274 87.9912 118.892 89.1533 119.574Z" fill="#000000" fill-opacity="0.85"/>
  <path d="M73.7793 105.85C74.9717 106.547 75.354 107.923 74.5962 109.195L67.7188 121.074C67.0249 122.327 65.6304 122.725 64.4531 122.061C63.2422 121.382 62.9424 119.988 63.6362 118.802L70.5474 106.822C71.3052 105.584 72.6323 105.187 73.7793 105.85Z" fill="#000000" fill-opacity="0.85"/>
  <path d="M50.3047 119.608C51.4482 120.287 51.8457 121.681 51.0879 122.919L44.2105 134.847C43.5166 136.051 42.1221 136.464 40.9448 135.819C39.7676 135.106 39.4341 133.746 40.1279 132.542L47.0391 120.58C47.7817 119.308 49.124 118.926 50.3047 119.608Z" fill="#000000" fill-opacity="0.85"/>
  <path d="M34.9458 105.884C36.123 106.581 36.4717 107.942 35.729 109.229L28.8516 121.108C28.1577 122.361 26.7632 122.758 25.5708 122.095C24.3936 121.416 24.0601 120.021 24.769 118.836L31.6802 106.855C32.4228 105.618 33.75 105.22 34.9458 105.884Z" fill="#000000" fill-opacity="0.85"/>
  <path d="M127.65 72.5493L136.126 80.9922C137.326 82.1914 137.311 84.1284 136.126 85.2788C134.942 86.4629 133.005 86.5117 131.84 85.3125L123.33 76.8696C122.146 75.7007 122.146 73.7334 123.33 72.5493C124.514 71.3989 126.481 71.3989 127.65 72.5493ZM124.377 49.9873C124.377 58.8684 119.392 66.6784 112.095 70.7255C110.54 57.2883 99.5019 47.2889 85.1397 46.0117C83.5769 43.4717 81.7852 41.1475 79.7775 39.0876C83.7259 31.4962 91.6697 26.2832 100.756 26.2832C113.712 26.2832 124.377 36.9634 124.377 49.9873ZM150.672 50.0024C150.672 51.7036 149.32 53.0562 147.637 53.0562L135.694 53.0562C134.076 53.0562 132.641 51.7036 132.641 50.0024C132.641 48.335 134.076 46.9487 135.694 46.9487L147.637 46.9487C149.32 46.9487 150.672 48.335 150.672 50.0024ZM136.126 14.6807C137.311 15.8648 137.326 17.8355 136.126 19.0347L127.684 27.4439C126.481 28.6616 124.514 28.6279 123.33 27.4439C122.146 26.2598 122.146 24.3076 123.33 23.1572L131.84 14.6807C133.005 13.4478 134.942 13.5117 136.126 14.6807ZM69.7695 14.6807L78.2124 23.1572C79.3628 24.2739 79.3628 26.2935 78.1787 27.4439C76.9946 28.6279 75.0425 28.6279 73.8584 27.4439L65.4492 19.001C64.25 17.8355 64.2988 15.8648 65.4829 14.6807C66.667 13.5117 68.604 13.4814 69.7695 14.6807ZM103.855 3.05372L103.855 14.9663C103.855 16.6035 102.438 17.9863 100.771 17.9863C99.1035 17.9863 97.687 16.6035 97.687 14.9663L97.687 3.05372C97.687 1.43506 99.1035-1.42109e-14 100.771-1.42109e-14C102.438-1.42109e-14 103.855 1.43506 103.855 3.05372Z" fill="#000000" fill-opacity="0.85"/>
  <path d="M29.9233 97.5376L83.0581 97.5376C96.7017 97.5376 107.296 87.2329 107.296 74.0522C107.296 60.9238 96.4912 50.9912 82.1489 50.8936C76.5337 40.1548 66.7441 33.3545 54.4263 33.3545C38.7505 33.3545 25.5918 45.7686 24.1235 61.7725C16.0483 64.0928 10.1977 70.769 10.1977 79.6187C10.1977 89.8682 17.9282 97.5376 29.9233 97.5376Z" fill="#000000" fill-opacity="0.85"/>
 </g>
</svg>
