<?xml version="1.0" encoding="UTF-8"?>
<!--Generator: Apple Native CoreSVG 232.5-->
<!DOCTYPE svg
PUBLIC "-//W3C//DTD SVG 1.1//EN"
       "http://www.w3.org/Graphics/SVG/1.1/DTD/svg11.dtd">
<svg version="1.1" xmlns="http://www.w3.org/2000/svg" xmlns:xlink="http://www.w3.org/1999/xlink" width="97.9595" height="97.9932">
 <g>
  <rect height="97.9932" opacity="0" width="97.9595" x="0" y="0"/>
  <path d="M48.9722 97.9443C75.8247 97.9443 97.9595 75.7759 97.9595 48.9722C97.9595 22.1348 75.791 0 48.9385 0C22.1348 0 0 22.1348 0 48.9722C0 75.7759 22.1685 97.9443 48.9722 97.9443ZM48.9722 91.6113C25.3501 91.6113 6.36671 72.5942 6.36671 48.9722C6.36671 25.3501 25.3164 6.31789 48.9385 6.31789C72.5605 6.31789 91.6265 25.3501 91.6265 48.9722C91.6265 72.5942 72.5942 91.6113 48.9722 91.6113Z" fill="#000000" fill-opacity="0.85"/>
  <path d="M32.8862 55.7158L62.5933 55.7158C70.1162 55.7158 75.957 49.9321 75.957 42.7847C75.957 35.3897 69.8535 29.9815 61.9434 29.9815C58.9346 24.0381 53.6055 20.1421 46.5645 20.1421C37.8057 20.1421 30.5606 27.1665 29.7456 36.0581C25.4253 37.2637 22.0513 40.8955 22.0513 45.8574C22.0513 51.2539 26.0098 55.7158 32.8862 55.7158ZM31.7778 74.3716C32.5288 74.3716 32.9902 73.6846 32.9565 72.9487L32.8403 69.7769L35.46 71.5127C36.0493 71.9067 36.8711 71.7232 37.2617 71.1675C37.7046 70.5967 37.4453 69.7075 36.6421 69.3472L33.9028 67.9263L36.6421 66.4531C37.4116 66.0591 37.6372 65.3535 37.2954 64.6851C36.9536 64.0469 36.0645 63.9761 35.46 64.3364L32.8403 66.0757L32.9565 62.9341C32.9902 62.1309 32.5288 61.5112 31.7778 61.5112C30.9898 61.5112 30.4946 62.1309 30.5283 62.9004L30.6782 66.0757L28.0064 64.3364C27.4204 63.9458 26.5986 64.0132 26.272 64.6851C25.8662 65.2861 26.1035 66.0591 26.8428 66.4868L29.6123 67.9263L26.8428 69.3472C26.0547 69.7227 25.8662 70.5293 26.1743 71.1187C26.5313 71.8057 27.3716 71.937 28.0064 71.5127L30.6782 69.7769L30.562 72.9487C30.5283 73.6846 30.9898 74.3716 31.7778 74.3716ZM47.7852 74.3716C48.5361 74.3716 48.9824 73.6846 48.9639 72.9487L48.8325 69.7769L51.4522 71.5127C52.0078 71.9067 52.8633 71.7232 53.2539 71.1675C53.7119 70.5967 53.4375 69.7075 52.6494 69.3472L49.895 67.9263L52.6494 66.4531C53.4038 66.0591 53.6445 65.3535 53.2876 64.6851C52.9609 64.0469 52.0718 63.9761 51.4522 64.3364L48.8325 66.0757L48.9639 62.9341C48.9824 62.1309 48.5361 61.5112 47.7852 61.5112C46.9819 61.5112 46.502 62.1309 46.5205 62.9004L46.6856 66.0757L43.9985 64.3364C43.4126 63.9458 42.5908 64.0132 42.2642 64.6851C41.8584 65.2861 42.0957 66.0591 42.835 66.4868L45.6045 67.9263L42.835 69.3472C42.0469 69.7227 41.8584 70.5293 42.1816 71.1187C42.5234 71.8057 43.3638 71.937 43.9985 71.5127L46.6856 69.7769L46.5542 72.9487C46.5205 73.6846 46.9819 74.3716 47.7852 74.3716ZM63.7437 74.3716C64.5283 74.3716 64.9898 73.6846 64.9561 72.9487L64.8399 69.7769L67.4595 71.5127C68.0151 71.9067 68.8706 71.7232 69.2461 71.1675C69.6704 70.5967 69.4146 69.7075 68.6416 69.3472L65.9024 67.9263L68.6416 66.4531C69.3809 66.0591 69.6519 65.3535 69.2798 64.6851C68.9194 64.0469 68.064 63.9458 67.4595 64.3364L64.8399 66.0757L64.9561 62.9341C64.9898 62.1309 64.5283 61.5112 63.7437 61.5112C62.9893 61.5112 62.4941 62.1309 62.5278 62.9004L62.6777 66.0757L59.9907 64.3364C59.4199 63.9458 58.5982 64.0132 58.2227 64.6851C57.8506 65.2861 58.0693 66.0591 58.8423 66.4868L61.5967 67.9263L58.8423 69.3472C58.0239 69.7227 57.8809 70.5293 58.1738 71.1187C58.5308 71.8057 59.356 71.937 59.9907 71.5127L62.6777 69.7769L62.5615 72.9487C62.5278 73.6846 62.9893 74.3716 63.7437 74.3716Z" fill="#000000" fill-opacity="0.85"/>
 </g>
</svg>
