<?xml version="1.0" encoding="UTF-8"?>
<!--Generator: Apple Native CoreSVG 232.5-->
<!DOCTYPE svg
PUBLIC "-//W3C//DTD SVG 1.1//EN"
       "http://www.w3.org/Graphics/SVG/1.1/DTD/svg11.dtd">
<svg version="1.1" xmlns="http://www.w3.org/2000/svg" xmlns:xlink="http://www.w3.org/1999/xlink" width="115.653" height="113.055">
 <g>
  <rect height="113.055" opacity="0" width="115.653" x="0" y="0"/>
  <path d="M76.666 111.776L91.6035 85.9434C92.3276 84.6905 91.9639 83.2959 90.7866 82.6997C89.6733 82.0698 88.2974 82.3662 87.5884 83.6377L72.7031 109.418C71.9756 110.656 72.3091 112.017 73.4526 112.729C74.5776 113.408 76.0059 112.995 76.666 111.776Z" fill="#000000" fill-opacity="0.85"/>
  <path d="M57.3032 111.757L72.1548 86.0108C72.8975 84.6905 72.5488 83.3633 71.3716 82.6997C70.1758 82.0025 68.8486 82.3662 68.0908 83.6714L53.2207 109.485C52.5605 110.656 52.8267 112.017 54.0376 112.729C55.2148 113.408 56.6094 112.995 57.3032 111.757Z" fill="#000000" fill-opacity="0.85"/>
  <path d="M37.8848 111.757L52.7363 86.0108C53.479 84.6905 53.1304 83.3633 51.9531 82.6997C50.7573 82.0025 49.4302 82.3662 48.6724 83.6714L33.8022 109.485C33.1421 110.656 33.4082 112.017 34.6191 112.729C35.7964 113.408 37.1909 112.995 37.8848 111.757Z" fill="#000000" fill-opacity="0.85"/>
  <path d="M18.4023 111.757L33.2725 86.0108C34.0303 84.6905 33.6328 83.3633 32.4556 82.6997C31.2935 82.0025 29.9663 82.3662 29.2236 83.6714L14.3047 109.485C13.6445 110.656 13.9443 112.017 15.1216 112.729C16.2988 113.408 17.6934 112.995 18.4023 111.757Z" fill="#000000" fill-opacity="0.85"/>
  <path d="M27.2788 74.7207L88.2075 74.7207C103.845 74.7207 115.653 62.8804 115.653 48.1592C115.653 33.0068 103.154 21.9024 86.8892 21.9024C80.7856 9.62989 69.7905 1.72999 55.3462 1.72999C37.3198 1.72999 22.4858 16.1343 20.9048 34.2647C11.9609 36.7769 4.99561 44.231 4.99561 54.4883C4.99561 65.6367 13.167 74.7207 27.2788 74.7207ZM27.2114 68.7549C16.5659 68.7549 10.9614 62.4888 10.9614 54.6416C10.9614 47.9195 15.1816 42.2373 23.6641 39.9947C25.9258 39.3833 26.7207 38.356 26.9043 36.1665C27.9668 19.9575 40.6411 7.69583 55.3462 7.69583C67.3921 7.69583 76.4282 14.4014 81.7017 25.2984C82.6582 27.3277 83.8809 28.0215 86.3076 28.0215C100.609 28.0215 109.687 37.1519 109.687 48.3394C109.687 59.6196 100.479 68.7549 88.5293 68.7549Z" fill="#000000" fill-opacity="0.85"/>
 </g>
</svg>
