<?xml version="1.0" encoding="UTF-8"?>
<!--Generator: Apple Native CoreSVG 232.5-->
<!DOCTYPE svg
PUBLIC "-//W3C//DTD SVG 1.1//EN"
       "http://www.w3.org/Graphics/SVG/1.1/DTD/svg11.dtd">
<svg version="1.1" xmlns="http://www.w3.org/2000/svg" xmlns:xlink="http://www.w3.org/1999/xlink" width="97.9595" height="97.9932">
 <g>
  <rect height="97.9932" opacity="0" width="97.9595" x="0" y="0"/>
  <path d="M97.9595 49.021C97.9595 75.8584 75.8247 97.9932 48.9722 97.9932C22.1685 97.9932 0 75.8584 0 49.021C0 22.2173 22.1348 0.0488281 48.9385 0.0488281C75.791 0.0488281 97.9595 22.2173 97.9595 49.021ZM30.168 72.2105C29.1289 72.2105 28.27 73.0205 28.27 74.0933C28.27 75.2149 29.1289 76.0435 30.168 76.0435L67.7427 76.0435C68.8457 76.0435 69.6895 75.2149 69.6895 74.0933C69.6895 73.0054 68.8457 72.2105 67.7427 72.2105ZM30.168 62.0591C29.1289 62.0591 28.27 62.9365 28.27 64.0093C28.27 65.0972 29.1289 65.8921 30.168 65.8921L67.7427 65.8921C68.8457 65.8921 69.6895 65.0972 69.6895 64.0093C69.6895 62.8877 68.8457 62.0591 67.7427 62.0591ZM29.5957 35.0982C25.1743 36.3374 21.6992 40.0215 21.6992 45.0845C21.6992 50.6157 25.7925 55.1973 32.7886 55.1973L63.0532 55.1973C70.7632 55.1973 76.7202 49.294 76.7202 41.978C76.7202 34.4297 70.4819 28.9204 62.4033 28.9204C59.376 22.876 53.9307 18.8452 46.7515 18.8452C37.7905 18.8452 30.4107 26.0532 29.5957 35.0982Z" fill="#000000" fill-opacity="0.85"/>
 </g>
</svg>
