<?xml version="1.0" encoding="UTF-8"?>
<!--Generator: Apple Native CoreSVG 232.5-->
<!DOCTYPE svg
PUBLIC "-//W3C//DTD SVG 1.1//EN"
       "http://www.w3.org/Graphics/SVG/1.1/DTD/svg11.dtd">
<svg version="1.1" xmlns="http://www.w3.org/2000/svg" xmlns:xlink="http://www.w3.org/1999/xlink" width="97.9595" height="97.9932">
 <g>
  <rect height="97.9932" opacity="0" width="97.9595" x="0" y="0"/>
  <path d="M48.9722 97.9443C75.8247 97.9443 97.9595 75.7759 97.9595 48.9722C97.9595 22.1348 75.791 0 48.9385 0C22.1348 0 0 22.1348 0 48.9722C0 75.7759 22.1685 97.9443 48.9722 97.9443ZM48.9722 91.6113C25.3501 91.6113 6.36671 72.5942 6.36671 48.9722C6.36671 25.3501 25.3164 6.31789 48.9385 6.31789C72.5605 6.31789 91.6265 25.3501 91.6265 48.9722C91.6265 72.5942 72.5942 91.6113 48.9722 91.6113Z" fill="#000000" fill-opacity="0.85"/>
  <path d="M33.8276 53.5234L63.5161 53.5234C71.0728 53.5234 76.8799 47.7549 76.8799 40.5923C76.8799 33.1787 70.7764 27.8042 62.8662 27.8042C59.8911 21.8608 54.562 17.9497 47.521 17.9497C38.7285 17.9497 31.5171 24.9893 30.7022 33.8472C26.3818 35.0864 23.0078 38.6694 23.0078 43.6802C23.0078 49.0767 26.9512 53.5234 33.8276 53.5234ZM36.6514 66.5718L39.749 61.2637C40.2407 60.3745 39.9629 59.1856 39.0064 58.6265C38.1323 58.1465 36.9771 58.4951 36.4668 59.3843L33.3691 64.7075C32.8926 65.563 33.1704 66.7856 34.0781 67.2959C34.9858 67.8247 36.1411 67.4609 36.6514 66.5718ZM50.1211 66.5718L53.2188 61.2637C53.7441 60.3745 53.4663 59.1856 52.5098 58.6265C51.6357 58.1465 50.4468 58.4951 49.9702 59.3843L46.8726 64.7075C46.3623 65.563 46.6401 66.7856 47.5967 67.2959C48.4556 67.8247 49.6445 67.4609 50.1211 66.5718ZM63.5908 66.5718L66.6885 61.2637C67.1802 60.3745 66.9024 59.1856 65.9795 58.6265C65.0718 58.1465 63.9165 58.4951 63.4063 59.3843L60.3086 64.7075C59.832 65.563 60.1099 66.7856 61.0327 67.2959C61.9253 67.8247 63.0806 67.4609 63.5908 66.5718ZM31.0039 78.4873C31.5933 78.4873 32.1001 77.9805 32.0664 77.3086L31.9502 75.0562L33.77 76.2515C34.2617 76.5781 34.9673 76.3794 35.3091 75.9399C35.6812 75.418 35.5869 74.6602 34.8359 74.2847L32.9302 73.3706L34.8359 72.3706C35.4741 72.0439 35.6358 71.3721 35.3765 70.835C35.065 70.2759 34.292 70.1934 33.77 70.52L31.9502 71.6665L32.0664 69.4629C32.1001 68.7573 31.5933 68.2505 31.0039 68.2505C30.3286 68.2505 29.8706 68.791 29.9043 69.4629L29.9868 71.6665L28.1821 70.5049C27.6939 70.1631 26.9546 70.2422 26.6431 70.8013C26.3687 71.2407 26.4292 72.0474 27.1348 72.3892L28.9883 73.3706L27.1348 74.2847C26.4141 74.645 26.2373 75.3506 26.5791 75.8726C26.8906 76.4956 27.6602 76.5781 28.1821 76.2515L29.9868 75.0562L29.938 77.3086C29.938 77.9468 30.3286 78.4873 31.0039 78.4873ZM44.4736 78.4873C45.063 78.4873 45.5698 77.9805 45.5361 77.3086L45.4536 75.0562L47.2398 76.2515C47.7315 76.5781 48.4858 76.3794 48.7788 75.9399C49.1846 75.418 49.0566 74.6602 48.3057 74.2847L46.4336 73.3706L48.3057 72.3706C48.9775 72.0439 49.1055 71.3721 48.8462 70.835C48.5684 70.2759 47.7617 70.1934 47.2398 70.52L45.4536 71.6665L45.5361 69.4629C45.5698 68.7573 45.063 68.2505 44.4736 68.2505C43.832 68.2505 43.3403 68.791 43.374 69.4629L43.4902 71.6665L41.6519 70.5049C41.1636 70.1631 40.458 70.2422 40.1465 70.8013C39.8384 71.2407 39.9326 72.0474 40.6045 72.3892L42.4917 73.3706L40.6045 74.2847C39.9175 74.645 39.7407 75.3506 40.0488 75.8726C40.3604 76.4956 41.1299 76.5781 41.6519 76.2515L43.4902 75.0562L43.4077 77.3086C43.4077 77.9468 43.832 78.4873 44.4736 78.4873ZM57.9585 78.4873C58.5327 78.4873 59.0396 77.9805 59.0059 77.3086L58.9233 75.0562L60.7095 76.2515C61.2163 76.5781 61.9219 76.3794 62.2485 75.9399C62.6543 75.418 62.5264 74.645 61.7754 74.2847L59.8696 73.3706L61.7754 72.3706C62.4136 72.0591 62.5752 71.3721 62.3159 70.835C62.0044 70.2759 61.2315 70.1934 60.7095 70.52L58.9233 71.6665L59.0059 69.4629C59.0396 68.7573 58.5327 68.2505 57.9585 68.2505C57.2681 68.2505 56.8101 68.791 56.8438 69.4629L56.9263 71.6665L55.1216 70.5049C54.6333 70.1631 53.8941 70.2422 53.5825 70.8013C53.3081 71.2407 53.3687 72.0474 54.0742 72.3892L55.9277 73.3706L54.0742 74.2847C53.3535 74.645 53.1768 75.3506 53.5186 75.8726C53.8301 76.4956 54.5996 76.5781 55.1216 76.2515L56.9263 75.0562L56.8774 77.3086C56.8774 77.9468 57.2681 78.4873 57.9585 78.4873Z" fill="#000000" fill-opacity="0.85"/>
 </g>
</svg>
