<?xml version="1.0" encoding="UTF-8"?>
<!--Generator: Apple Native CoreSVG 232.5-->
<!DOCTYPE svg
PUBLIC "-//W3C//DTD SVG 1.1//EN"
       "http://www.w3.org/Graphics/SVG/1.1/DTD/svg11.dtd">
<svg version="1.1" xmlns="http://www.w3.org/2000/svg" xmlns:xlink="http://www.w3.org/1999/xlink" width="97.9595" height="97.9932">
 <g>
  <rect height="97.9932" opacity="0" width="97.9595" x="0" y="0"/>
  <path d="M97.9595 49.021C97.9595 75.8584 75.8247 97.9932 48.9722 97.9932C22.1685 97.9932 0 75.8584 0 49.021C0 22.2173 22.1348 0.0488281 48.9385 0.0488281C75.791 0.0488281 97.9595 22.2173 97.9595 49.021ZM43.8716 61.5581L35.4937 75.9282C34.9834 76.8848 35.2949 78.0737 36.27 78.6177C37.1777 79.1465 38.333 78.7827 38.877 77.875L47.2549 63.4898C47.7651 62.5332 47.4536 61.3779 46.4785 60.8003C45.6045 60.3203 44.4492 60.5679 43.8716 61.5581ZM66.3384 61.5581L57.9942 75.9282C57.4502 76.8848 57.7617 78.0737 58.752 78.6177C59.6109 79.1465 60.7998 78.7827 61.3438 77.875L69.7217 63.4898C70.2808 62.5332 69.9356 61.3779 68.979 60.8003C68.0527 60.3203 66.8823 60.5679 66.3384 61.5581ZM32.6138 61.5581L28.7163 68.2705C28.1387 69.1782 28.4839 70.4009 29.4404 70.9263C30.3667 71.4736 31.522 71.1587 32.1148 70.2022L36.0122 63.4898C36.5225 62.5669 36.2109 61.3779 35.2544 60.8003C34.3281 60.3203 33.1729 60.6016 32.6138 61.5581ZM55.1294 61.5581L51.1983 68.2705C50.6543 69.1782 50.9507 70.4009 51.9409 70.9263C52.8486 71.4736 54.0039 71.1587 54.5479 70.2022L58.4453 63.4898C59.023 62.5669 58.7114 61.3779 57.7212 60.8003C56.8286 60.3203 55.6397 60.6016 55.1294 61.5581ZM29.3564 35.4971C24.9351 36.7363 21.4937 40.4541 21.4937 45.5322C21.4937 51.0298 25.5532 55.5625 32.5493 55.5625L62.8477 55.5625C70.5391 55.5625 76.5147 49.6929 76.5147 42.377C76.5147 34.8286 70.2764 29.3193 62.1978 29.3193C59.1367 23.29 53.7065 19.2593 46.5122 19.2593C37.585 19.2593 30.1865 26.4522 29.3564 35.4971Z" fill="#000000" fill-opacity="0.85"/>
 </g>
</svg>
