<?xml version="1.0" encoding="UTF-8"?>
<!--Generator: Apple Native CoreSVG 232.5-->
<!DOCTYPE svg
PUBLIC "-//W3C//DTD SVG 1.1//EN"
       "http://www.w3.org/Graphics/SVG/1.1/DTD/svg11.dtd">
<svg version="1.1" xmlns="http://www.w3.org/2000/svg" xmlns:xlink="http://www.w3.org/1999/xlink" width="97.9595" height="97.9932">
 <g>
  <rect height="97.9932" opacity="0" width="97.9595" x="0" y="0"/>
  <path d="M48.9722 97.9443C75.8247 97.9443 97.9595 75.7759 97.9595 48.9722C97.9595 22.1348 75.791 0 48.9385 0C22.1348 0 0 22.1348 0 48.9722C0 75.7759 22.1685 97.9443 48.9722 97.9443ZM48.9722 91.6113C25.3501 91.6113 6.36671 72.5942 6.36671 48.9722C6.36671 25.3501 25.3164 6.31789 48.9385 6.31789C72.5605 6.31789 91.6265 25.3501 91.6265 48.9722C91.6265 72.5942 72.5942 91.6113 48.9722 91.6113Z" fill="#000000" fill-opacity="0.85"/>
  <path d="M30.9297 66.7105L64.2231 66.7105C72.6099 66.7105 79.1714 60.3628 79.1714 52.2808C79.1714 44.0523 72.3994 37.9268 63.4233 38.0093C60.1216 31.1987 54.0903 26.9829 46.2866 26.9829C36.4839 26.9829 28.3716 34.8003 27.5264 44.7393C22.4668 46.125 18.7881 50.3008 18.7881 55.7105C18.7881 61.9961 23.5078 66.7105 30.9297 66.7105Z" fill="#000000" fill-opacity="0.85"/>
 </g>
</svg>
