<?xml version="1.0" encoding="UTF-8"?>
<!--Generator: Apple Native CoreSVG 232.5-->
<!DOCTYPE svg
PUBLIC "-//W3C//DTD SVG 1.1//EN"
       "http://www.w3.org/Graphics/SVG/1.1/DTD/svg11.dtd">
<svg version="1.1" xmlns="http://www.w3.org/2000/svg" xmlns:xlink="http://www.w3.org/1999/xlink" width="97.9595" height="97.9932">
 <g>
  <rect height="97.9932" opacity="0" width="97.9595" x="0" y="0"/>
  <path d="M48.9722 97.9443C75.8247 97.9443 97.9595 75.7759 97.9595 48.9722C97.9595 22.1348 75.791 0 48.9385 0C22.1348 0 0 22.1348 0 48.9722C0 75.7759 22.1685 97.9443 48.9722 97.9443ZM48.9722 91.6113C25.3501 91.6113 6.36671 72.5942 6.36671 48.9722C6.36671 25.3501 25.3164 6.31789 48.9385 6.31789C72.5605 6.31789 91.6265 25.3501 91.6265 48.9722C91.6265 72.5942 72.5942 91.6113 48.9722 91.6113Z" fill="#000000" fill-opacity="0.85"/>
  <path d="M32.8862 55.3789L62.5933 55.3789C70.1162 55.3789 75.957 49.6104 75.957 42.4629C75.957 35.0679 69.8535 29.6597 61.9434 29.6597C58.9346 23.7163 53.6055 19.8203 46.5645 19.8203C37.8057 19.8203 30.5606 26.8447 29.7456 35.7363C25.4253 36.9419 22.0513 40.5737 22.0513 45.5357C22.0513 50.9321 26.0098 55.3789 32.8862 55.3789ZM32.4365 69.7305L36.2666 63.1191C36.7769 62.23 36.4653 61.041 35.5425 60.5308C34.6499 60.002 33.5283 60.3169 32.9692 61.2398L29.1392 67.8174C28.5952 68.7402 28.9067 69.9292 29.8633 70.4395C30.7559 70.9683 31.8774 70.6533 32.4365 69.7305ZM39.064 77.2349L47.2886 63.1191C47.7988 62.1963 47.4873 61.041 46.5459 60.5308C45.6719 60.002 44.5503 60.2832 44.0064 61.2398L35.7817 75.3555C35.2715 76.2446 35.583 77.4336 36.5396 77.959C37.3984 78.4727 38.52 78.1577 39.064 77.2349ZM54.4131 69.7305L58.2432 63.1191C58.8023 62.23 58.4907 61.041 57.5342 60.5308C56.6602 60.002 55.5049 60.3169 54.9946 61.2398L51.1309 67.8174C50.6206 68.7402 50.9321 69.9292 51.8735 70.4395C52.7476 70.9683 53.8692 70.6533 54.4131 69.7305ZM61.0557 77.2349L69.2803 63.1191C69.8242 62.1963 69.479 61.041 68.5562 60.5308C67.6636 60.002 66.542 60.2832 65.9829 61.2398L57.8071 75.3555C57.2632 76.2446 57.5596 77.4336 58.5161 77.959C59.3901 78.4727 60.5454 78.1577 61.0557 77.2349Z" fill="#000000" fill-opacity="0.85"/>
 </g>
</svg>
