<?xml version="1.0" encoding="UTF-8"?>
<!--Generator: Apple Native CoreSVG 232.5-->
<!DOCTYPE svg
PUBLIC "-//W3C//DTD SVG 1.1//EN"
       "http://www.w3.org/Graphics/SVG/1.1/DTD/svg11.dtd">
<svg version="1.1" xmlns="http://www.w3.org/2000/svg" xmlns:xlink="http://www.w3.org/1999/xlink" width="97.9595" height="97.9932">
 <g>
  <rect height="97.9932" opacity="0" width="97.9595" x="0" y="0"/>
  <path d="M97.9595 49.021C97.9595 75.8584 75.8247 97.9932 48.9722 97.9932C22.1685 97.9932 0 75.8584 0 49.021C0 22.2173 22.1348 0.0488281 48.9385 0.0488281C75.791 0.0488281 97.9595 22.2173 97.9595 49.021ZM27.0698 44.7695C21.9243 46.1401 18.1782 50.417 18.1782 55.9277C18.1782 62.4004 22.9839 67.1821 30.5742 67.1821L64.5449 67.1821C73.1001 67.1821 79.7813 60.6997 79.7813 52.4307C79.7813 44.0337 72.8897 37.7886 63.7114 37.9048C60.3423 30.9258 54.1763 26.624 46.2344 26.624C36.2144 26.624 27.9487 34.5947 27.0698 44.7695Z" fill="#000000" fill-opacity="0.85"/>
 </g>
</svg>
