<?xml version="1.0" encoding="UTF-8"?>
<!--Generator: Apple Native CoreSVG 232.5-->
<!DOCTYPE svg
PUBLIC "-//W3C//DTD SVG 1.1//EN"
       "http://www.w3.org/Graphics/SVG/1.1/DTD/svg11.dtd">
<svg version="1.1" xmlns="http://www.w3.org/2000/svg" xmlns:xlink="http://www.w3.org/1999/xlink" width="97.9595" height="97.9932">
 <g>
  <rect height="97.9932" opacity="0" width="97.9595" x="0" y="0"/>
  <path d="M97.9595 49.021C97.9595 75.8584 75.8247 97.9932 48.9722 97.9932C22.1685 97.9932 0 75.8584 0 49.021C0 22.2173 22.1348 0.0488281 48.9385 0.0488281C75.791 0.0488281 97.9595 22.2173 97.9595 49.021ZM39.478 63.9522C38.6699 63.9522 38.3433 64.1929 38.0688 64.7754L34.7183 72.4751C34.395 73.1704 34.7788 73.7041 35.4893 73.7041L39.3203 73.7041L35.9966 81.7524C35.6768 82.5537 36.6665 82.9897 37.2524 82.3652L46.8262 71.4609C47.3633 70.769 47.0889 70.0366 46.2319 70.0366L41.6685 70.0366L44.2427 65.1323C44.5811 64.437 44.3252 63.9522 43.6602 63.9522ZM23.7315 43C19.8169 44.3032 16.9683 47.5933 16.9683 52.0415C16.9683 57.1787 20.8814 61.1118 26.9141 61.1118L52.6221 61.1118C59.4243 61.1118 64.6909 55.9243 64.6909 49.3291C64.6909 42.835 59.4209 37.8696 52.4268 37.6929C49.6318 32.5274 44.7979 29.187 38.7788 29.187C31.0523 29.187 24.5615 35.314 23.7315 43ZM64.1509 19.6567C58.7334 20.1582 53.5786 26.2544 53.0059 32.9912C53.437 33.5352 53.8496 34.1128 54.2319 34.6567C61.6724 35.5239 67.1865 40.9507 67.8096 48.0342C76.7324 46.9653 81.2891 40.4443 81.2891 36.7144C81.2891 35.9043 80.9438 35.4092 80.3174 35.4092C79.3306 35.4092 77.1724 36.7378 74.1768 36.7378C67.9658 36.7378 64.0127 33.0137 64.0127 27.2456C64.0127 24.1055 65.5889 21.7803 65.5889 20.7261C65.5889 20.0205 65.0635 19.6265 64.1509 19.6567Z" fill="#000000" fill-opacity="0.85"/>
 </g>
</svg>
