<?xml version="1.0" encoding="UTF-8"?>
<!--Generator: Apple Native CoreSVG 232.5-->
<!DOCTYPE svg
PUBLIC "-//W3C//DTD SVG 1.1//EN"
       "http://www.w3.org/Graphics/SVG/1.1/DTD/svg11.dtd">
<svg version="1.1" xmlns="http://www.w3.org/2000/svg" xmlns:xlink="http://www.w3.org/1999/xlink" width="150.733" height="102.182">
 <g>
  <rect height="102.182" opacity="0" width="150.733" x="0" y="0"/>
  <path d="M127.744 72.5947L136.172 81.0376C137.401 82.2856 137.356 84.2378 136.172 85.4033C134.973 86.5874 133.036 86.6851 131.806 85.437L123.345 76.9942C122.146 75.7949 122.161 73.794 123.345 72.5947C124.544 71.4443 126.511 71.4292 127.744 72.5947ZM124.408 50.0327C124.408 60.7497 117.269 69.8397 107.524 72.7533C107.447 70.8229 107.109 68.9775 106.553 67.2329C113.752 64.8727 118.819 58.1459 118.819 50.0327C118.819 39.9009 110.888 31.9204 100.786 31.9204C90.6694 31.9204 82.7041 39.9009 82.7041 50.0327C82.7041 50.2451 82.7076 50.4566 82.7349 50.6609C82.6037 50.6429 82.4665 50.6406 82.3291 50.6392C81.0604 48.2416 79.5828 46.0379 77.9049 44.0741C80.5332 33.8697 89.8187 26.3135 100.786 26.3135C113.792 26.3135 124.408 36.9634 124.408 50.0327ZM150.733 50.0327C150.733 51.7188 149.35 53.1353 147.667 53.1353L135.725 53.1353C134.106 53.1353 132.656 51.7188 132.656 50.0327C132.656 48.3989 134.106 46.9487 135.725 46.9487L147.667 46.9487C149.35 46.9487 150.733 48.3989 150.733 50.0327ZM136.172 14.647C137.356 15.895 137.401 17.8657 136.172 19.0801L127.778 27.523C126.511 28.7559 124.544 28.6733 123.345 27.523C122.161 26.29 122.146 24.3228 123.345 23.1572L131.806 14.647C133.036 13.4326 134.973 13.5117 136.172 14.647ZM69.751 14.647L78.2275 23.1572C79.3931 24.2891 79.3628 26.3237 78.1938 27.523C76.9946 28.6733 74.9936 28.7222 73.7944 27.523L65.3852 19.0464C64.1709 17.8657 64.2349 15.895 65.4189 14.647C66.6182 13.5117 68.5552 13.4663 69.751 14.647ZM103.934 3.08399L103.934 15.0303C103.934 16.6338 102.469 18.0654 100.801 18.0654C99.1338 18.0654 97.7021 16.6338 97.7021 15.0303L97.7021 3.08399C97.7021 1.4502 99.1338 0 100.801 0C102.469 0 103.934 1.4502 103.934 3.08399Z" fill="#000000" fill-opacity="0.85"/>
  <path d="M29.9351 97.8037L83.0698 97.8037C96.8818 97.8037 107.592 87.4316 107.592 74.0825C107.592 60.8193 96.7051 50.7891 82.3291 50.6392C76.6465 39.9004 66.7744 33.0513 54.4565 33.0513C38.6123 33.0513 25.4048 45.5815 23.8843 61.5854C15.7602 63.958 9.94335 70.7168 9.94335 79.6338C9.94335 90.0332 17.7412 97.8037 29.9351 97.8037ZM29.8003 91.7739C20.8184 91.7739 15.9883 86.4624 15.9883 79.7686C15.9883 73.8999 19.6631 69.0527 26.9922 67.0122C29.0215 66.4683 29.6851 65.606 29.835 63.6001C30.9312 49.6709 41.7686 39.0962 54.4565 39.0962C64.8828 39.0962 72.5854 45.0625 77.1904 54.1934C78.0644 55.96 79.1035 56.5376 81.1851 56.5376C93.6465 56.5376 101.562 64.5332 101.562 74.2813C101.562 83.9687 93.52 91.7739 83.1558 91.7739Z" fill="#000000" fill-opacity="0.85"/>
 </g>
</svg>
