<?xml version="1.0" encoding="UTF-8"?>
<!--Generator: Apple Native CoreSVG 232.5-->
<!DOCTYPE svg
PUBLIC "-//W3C//DTD SVG 1.1//EN"
       "http://www.w3.org/Graphics/SVG/1.1/DTD/svg11.dtd">
<svg version="1.1" xmlns="http://www.w3.org/2000/svg" xmlns:xlink="http://www.w3.org/1999/xlink" width="150.672" height="140.382">
 <g>
  <rect height="140.382" opacity="0" width="150.672" x="0" y="0"/>
  <path d="M64.811 108.686L60.019 117.693L68.9912 117.693C70.3921 117.693 70.7793 118.936 69.8447 119.991L52.1421 139.739C51.7026 140.337 51.1352 140.499 50.6807 140.303C50.1924 140.108 50.0308 139.589 50.3237 138.891L56.4885 124.121L48.9795 124.121C47.7739 124.121 47.146 123.403 47.6645 122.186L53.7632 108.295C54.2026 107.288 54.6572 106.8 56.0395 106.8L63.8682 106.8C64.9575 106.8 65.397 107.611 64.811 108.686Z" fill="#000000" fill-opacity="0.85"/>
  <path d="M127.684 74.4956L136.093 82.9385C137.292 84.1377 137.277 86.0747 136.093 87.2588C134.909 88.4429 133.005 88.458 131.806 87.2588L123.33 78.7822C122.146 77.6133 122.179 75.6797 123.33 74.4956C124.48 73.3115 126.481 73.2778 127.684 74.4956ZM124.603 51.937C124.603 60.924 119.613 68.7386 112.249 72.7605C110.755 59.2421 99.7266 49.2116 85.2661 47.8955C83.6818 45.2988 81.882 42.9611 79.8854 40.914C83.8385 33.3605 91.7496 28.2178 100.884 28.2178C113.99 28.2178 124.603 38.8306 124.603 51.937ZM150.672 51.937C150.672 53.6382 149.32 54.9907 147.637 54.9907L135.694 54.9907C134.076 54.9907 132.641 53.6382 132.641 51.937C132.641 50.2358 134.076 48.8833 135.694 48.8833L147.637 48.8833C149.32 48.8833 150.672 50.2358 150.672 51.937ZM136.093 16.6489C137.277 17.833 137.292 19.77 136.093 20.9692L127.684 29.3784C126.481 30.5962 124.48 30.5625 123.33 29.3784C122.179 28.1943 122.146 26.2607 123.33 25.0918L131.806 16.6489C133.005 15.416 134.909 15.4648 136.093 16.6489ZM69.7695 16.6001L78.2124 25.0615C79.3965 26.2456 79.3628 28.1792 78.2124 29.3633C77.062 30.5322 75.0762 30.5659 73.8584 29.3633L65.4829 20.9541C64.25 19.7212 64.2988 17.769 65.4829 16.6001C66.667 15.416 68.5703 15.4009 69.7695 16.6001ZM103.855 5.02198L103.855 16.9009C103.855 18.5381 102.472 19.9546 100.771 19.9546C99.0698 19.9546 97.687 18.5381 97.687 16.9009L97.687 5.02198C97.687 3.36963 99.0698 1.96826 100.771 1.96826C102.472 1.96826 103.855 3.36963 103.855 5.02198Z" fill="#000000" fill-opacity="0.85"/>
  <path d="M30.0698 99.2046L83.2046 99.2046C96.6445 99.2046 107.175 89.0093 107.175 75.9531C107.175 62.9038 96.4341 53.0654 82.1221 53.0132C76.2881 41.7729 66.3437 35.4741 54.5576 35.4741C39.0215 35.4741 25.8476 47.7939 24.4736 63.813C15.9912 66.1973 10.5781 73.062 10.5781 81.4893C10.5781 91.9575 18.5425 99.2046 30.0698 99.2046Z" fill="#000000" fill-opacity="0.85"/>
 </g>
</svg>
