<?xml version="1.0" encoding="UTF-8"?>
<!--Generator: Apple Native CoreSVG 232.5-->
<!DOCTYPE svg
PUBLIC "-//W3C//DTD SVG 1.1//EN"
       "http://www.w3.org/Graphics/SVG/1.1/DTD/svg11.dtd">
<svg version="1.1" xmlns="http://www.w3.org/2000/svg" xmlns:xlink="http://www.w3.org/1999/xlink" width="97.9595" height="97.9932">
 <g>
  <rect height="97.9932" opacity="0" width="97.9595" x="0" y="0"/>
  <path d="M97.9595 49.021C97.9595 75.8584 75.8247 97.9932 48.9722 97.9932C22.1685 97.9932 0 75.8584 0 49.021C0 22.2173 22.1348 0.0488281 48.9385 0.0488281C75.791 0.0488281 97.9595 22.2173 97.9595 49.021ZM30.1729 63.3198L30.2891 66.5137L27.5835 64.7407C26.979 64.3652 26.1084 64.4175 25.7817 65.1045C25.376 65.6904 25.6284 66.5308 26.3862 66.9248L29.1895 68.398L26.3862 69.8374C25.5645 70.2617 25.376 71.0684 25.6992 71.6577C26.0562 72.3784 26.915 72.4946 27.5835 72.1192L30.2891 70.3159L30.2065 73.5064C30.1729 74.291 30.6006 74.9629 31.4375 74.9629C32.1733 74.9629 32.6685 74.291 32.6348 73.5064L32.5186 70.3159L35.1719 72.1192C35.7612 72.4795 36.6167 72.3296 37.0073 71.7066C37.4839 71.1358 37.2095 70.2129 36.3877 69.8374L33.5811 68.398L36.3877 66.8911C37.1758 66.5308 37.4165 65.7915 37.0259 65.1045C36.6992 64.4512 35.7764 64.3804 35.1719 64.7407L32.5186 66.5137L32.6348 63.3384C32.6685 62.5352 32.1733 61.8633 31.4375 61.8633C30.6006 61.8633 30.1392 62.5352 30.1729 63.3198ZM46.4683 63.3198L46.6182 66.5137L43.8975 64.7407C43.3267 64.3652 42.4712 64.4175 42.1294 65.1045C41.6899 65.6904 41.9424 66.5308 42.7153 66.9248L45.5371 68.398L42.7153 69.8374C41.8936 70.2617 41.6899 71.0684 42.0469 71.6577C42.4038 72.3784 43.2627 72.4946 43.8975 72.1192L46.6182 70.3159L46.502 73.5064C46.4683 74.291 46.9634 74.9629 47.7515 74.9629C48.5361 74.9629 48.9824 74.291 48.9639 73.5064L48.8325 70.3159L51.4858 72.1192C52.0752 72.4795 52.9644 72.3296 53.355 71.7066C53.7979 71.1358 53.5386 70.2129 52.7017 69.8374L49.9287 68.398L52.7017 66.8911C53.5049 66.5308 53.7305 65.7915 53.3887 65.1045C53.0469 64.4512 52.124 64.3804 51.4858 64.7407L48.8325 66.5137L48.9639 63.3384C48.9824 62.5352 48.5361 61.8633 47.7515 61.8633C46.9634 61.8633 46.4346 62.5352 46.4683 63.3198ZM62.8159 63.3198L62.9658 66.5137L60.2114 64.7407C59.6406 64.3652 58.7852 64.4175 58.4248 65.1045C58.0527 65.6904 58.2564 66.5308 59.0293 66.9248L61.8662 68.398L59.0293 69.8374C58.2109 70.2617 58.0679 71.0684 58.3608 71.6577C58.7178 72.3784 59.5918 72.4946 60.2114 72.1192L62.9658 70.3159L62.8496 73.5064C62.8159 74.291 63.2774 74.9629 64.0654 74.9629C64.8501 74.9629 65.3452 74.291 65.3115 73.5064L65.1616 70.3159L67.8335 72.1192C68.3892 72.4795 69.2783 72.3296 69.669 71.7066C70.0933 71.1358 69.8374 70.2129 69.0645 69.8374L66.2427 68.398L69.0645 66.8911C69.8037 66.5308 70.0747 65.7915 69.7026 65.1045C69.3423 64.4512 68.4531 64.3652 67.8335 64.7407L65.1616 66.5137L65.3115 63.3384C65.3452 62.5352 64.8501 61.8633 64.0654 61.8633C63.2774 61.8633 62.7822 62.5352 62.8159 63.3198ZM29.3564 35.8862C24.9351 37.0918 21.4937 40.8096 21.4937 45.8877C21.4937 51.3853 25.5532 55.918 32.5493 55.918L62.8477 55.918C70.5391 55.918 76.5147 50.082 76.5147 42.7324C76.5147 35.1841 70.2764 29.7085 62.1978 29.7085C59.1367 23.6455 53.7065 19.6484 46.5122 19.6484C37.585 19.6484 30.1865 26.8076 29.3564 35.8862Z" fill="#000000" fill-opacity="0.85"/>
 </g>
</svg>
