<?xml version="1.0" encoding="UTF-8"?>
<!--Generator: Apple Native CoreSVG 232.5-->
<!DOCTYPE svg
PUBLIC "-//W3C//DTD SVG 1.1//EN"
       "http://www.w3.org/Graphics/SVG/1.1/DTD/svg11.dtd">
<svg version="1.1" xmlns="http://www.w3.org/2000/svg" xmlns:xlink="http://www.w3.org/1999/xlink" width="115.653" height="113.055">
 <g>
  <rect height="113.055" opacity="0" width="115.653" x="0" y="0"/>
  <path d="M77.9868 111.757L92.9243 85.9097C93.6484 84.6568 93.2998 83.3296 92.1411 82.666C91.0464 81.9688 89.6519 82.3325 88.9092 83.604L74.0391 109.384C73.3301 110.622 73.6636 111.983 74.8071 112.695C75.9658 113.374 77.293 112.995 77.9868 111.757Z" fill="#000000" fill-opacity="0.85"/>
  <path d="M66.5679 97.8867L73.4453 85.9585C74.2031 84.7207 73.8057 83.3599 72.6284 82.6475C71.4814 81.999 70.1543 82.3477 69.3965 83.6192L62.4854 95.6148C61.7915 96.7852 62.0913 98.146 63.3023 98.8584C64.4795 99.5371 65.874 99.0908 66.5679 97.8867Z" fill="#000000" fill-opacity="0.85"/>
  <path d="M39.1382 111.776L54.0571 85.9434C54.7661 84.6905 54.4512 83.3633 53.3076 82.6997C52.1792 82.0025 50.751 82.3662 50.0269 83.6377L35.1904 109.418C34.4966 110.656 34.7964 112.017 35.9736 112.729C37.1172 113.408 38.4443 112.995 39.1382 111.776Z" fill="#000000" fill-opacity="0.85"/>
  <path d="M27.7007 97.9204L34.5781 85.9922C35.3545 84.7544 34.9722 83.3936 33.7949 82.6812C32.6328 82.0327 31.3057 82.3814 30.5142 83.6529L23.603 95.6485C22.9092 96.8189 23.2427 98.1797 24.4536 98.8921C25.5972 99.5708 26.9917 99.1245 27.7007 97.9204Z" fill="#000000" fill-opacity="0.85"/>
  <path d="M27.2788 74.7207L88.2075 74.7207C103.845 74.7207 115.653 62.8804 115.653 48.1592C115.653 33.0068 103.154 21.9024 86.8892 21.9024C80.7856 9.62989 69.7905 1.72999 55.3462 1.72999C37.3198 1.72999 22.4858 16.1343 20.9048 34.2647C11.9609 36.7769 4.99561 44.231 4.99561 54.4883C4.99561 65.6367 13.167 74.7207 27.2788 74.7207Z" fill="#000000" fill-opacity="0.85"/>
 </g>
</svg>
