<?xml version="1.0" encoding="UTF-8"?>
<!--Generator: Apple Native CoreSVG 232.5-->
<!DOCTYPE svg
PUBLIC "-//W3C//DTD SVG 1.1//EN"
       "http://www.w3.org/Graphics/SVG/1.1/DTD/svg11.dtd">
<svg version="1.1" xmlns="http://www.w3.org/2000/svg" xmlns:xlink="http://www.w3.org/1999/xlink" width="134.254" height="125.308">
 <g>
  <rect height="125.308" opacity="0" width="134.254" x="0" y="0"/>
  <path d="M61.8727 93.6116L57.0695 102.653L66.0378 102.653C67.405 102.653 67.8073 103.91 66.9064 104.966L49.2038 124.68C48.7306 125.263 48.1632 125.425 47.7087 125.229C47.2389 125.083 47.0773 124.531 47.3854 123.85L53.5171 109.062L46.0412 109.062C44.8019 109.062 44.2077 108.345 44.7111 107.127L50.8097 93.221C51.2492 92.263 51.7038 91.7259 53.0675 91.7259L60.881 91.7259C61.9704 91.7259 62.4098 92.5374 61.8727 93.6116Z" fill="#000000" fill-opacity="0.85"/>
  <path d="M101.876 6.66924C101.876 9.23711 99.925 11.9163 99.925 18.0999C99.925 29.7073 106.956 36.7854 119.483 36.7854C124.991 36.7854 127.853 35.2737 130.435 35.2737C133.335 35.2737 134.996 37.8509 133.929 40.8338C131.508 49.1512 121.539 60.4148 104.941 60.4148C104.921 60.4148 104.901 60.4148 104.882 60.412C104.853 58.4578 104.565 56.5852 104.039 54.8196C104.33 54.8565 104.635 54.8616 104.941 54.8616C117.51 54.8616 125.986 46.8768 128.386 40.8621L128.09 40.6111C125.496 41.4949 121.91 42.1414 118.382 42.1414C104.219 42.1414 94.4679 32.9983 94.4679 19.0652C94.4679 14.8968 95.3517 11.3982 96.3332 9.03594L95.9323 8.75469C89.5661 11.3284 81.8737 18.5804 81.8737 30.699C81.8737 33.2301 82.1783 35.6278 82.7681 37.8518C81.76 37.7214 80.723 37.6573 79.6672 37.6463C78.734 35.8781 77.6872 34.2167 76.524 32.6867C76.457 32.0827 76.4401 31.4595 76.4401 30.8304C76.4401 15.5369 86.6066 5.56133 95.717 3.00614C99.1813 1.94999 101.876 3.48271 101.876 6.66924Z" fill="#000000" fill-opacity="0.85"/>
  <path d="M27.3034 84.7654L80.4382 84.7654C94.2013 84.7654 104.915 74.3597 104.915 61.0594C104.915 47.7962 94.0431 37.7962 79.6672 37.6463C73.9997 26.9075 64.1427 20.1072 51.8249 20.1072C35.9806 20.1072 22.8034 32.5887 21.2677 48.5926C13.1774 50.9651 7.34196 57.7088 7.34196 66.6258C7.34196 76.9612 15.1735 84.7654 27.3034 84.7654ZM27.1686 78.8299C18.1716 78.8299 13.2775 73.4695 13.2775 66.7454C13.2775 60.8279 17.0163 55.9808 24.3605 53.9402C26.3259 53.43 27.0383 52.5677 27.1882 50.5921C28.2507 36.6326 39.0881 26.0579 51.8249 26.0579C62.2663 26.0579 70.0177 32.0242 74.5739 41.1214C75.4816 42.888 76.4718 43.4993 78.5534 43.4993C91.0788 43.4993 98.946 51.4949 98.946 61.2581C98.946 70.9607 90.9186 78.8299 80.5241 78.8299Z" fill="#000000" fill-opacity="0.85"/>
 </g>
</svg>
