<?xml version="1.0" encoding="UTF-8"?>
<!--Generator: Apple Native CoreSVG 232.5-->
<!DOCTYPE svg
PUBLIC "-//W3C//DTD SVG 1.1//EN"
       "http://www.w3.org/Graphics/SVG/1.1/DTD/svg11.dtd">
<svg version="1.1" xmlns="http://www.w3.org/2000/svg" xmlns:xlink="http://www.w3.org/1999/xlink" width="97.9595" height="97.9932">
 <g>
  <rect height="97.9932" opacity="0" width="97.9595" x="0" y="0"/>
  <path d="M97.9595 49.021C97.9595 75.8584 75.8247 97.9932 48.9722 97.9932C22.1685 97.9932 0 75.8584 0 49.021C0 22.2173 22.1348 0.0488281 48.9385 0.0488281C75.791 0.0488281 97.9595 22.2173 97.9595 49.021ZM47.3813 57.7715C46.457 57.7715 46.0176 58.061 45.7583 58.7598L41.6719 68.1567C41.2812 68.9009 41.6987 69.5811 42.623 69.5811L47.1362 69.5811L43.144 79.3789C42.9336 79.9092 43.0767 80.2964 43.4453 80.5254C43.7686 80.5742 44.1558 80.5254 44.5127 80.0405L56.0923 66.873C56.7271 66.0498 56.4072 65.2012 55.3853 65.2012L49.9898 65.2012L53.165 59.1133C53.5186 58.3843 53.2476 57.7715 52.4697 57.7715ZM33.1572 59.9815L29.2598 66.6939C28.7007 67.6504 29.0459 68.8394 29.9688 69.417C30.9102 69.897 32.0654 69.582 32.6431 68.6592L36.5405 61.9131C37.0845 61.0054 36.773 59.8164 35.7827 59.2388C34.8564 58.7437 33.7012 59.0586 33.1572 59.9815ZM65.3164 59.9815L61.419 66.6939C60.875 67.6504 61.2202 68.8394 62.1616 69.417C63.103 69.897 64.2583 69.582 64.8023 68.6592L68.6997 61.9131C69.2774 61.0054 68.8985 59.8164 67.9907 59.2388C67.0493 58.7437 65.8941 59.0586 65.3164 59.9815ZM29.3564 33.8115C24.9351 35.0845 21.4937 38.75 21.4937 43.8804C21.4937 49.3779 25.5532 53.9258 32.5493 53.9258L62.8477 53.9258C70.5391 53.9258 76.5147 48.0225 76.5147 40.7402C76.5147 33.1919 70.2764 27.6489 62.1978 27.6489C59.1367 21.6045 53.7065 17.6074 46.5122 17.6074C37.585 17.6074 30.1865 24.8003 29.3564 33.8115Z" fill="#000000" fill-opacity="0.85"/>
 </g>
</svg>
