<?xml version="1.0" encoding="UTF-8"?>
<!--Generator: Apple Native CoreSVG 232.5-->
<!DOCTYPE svg
PUBLIC "-//W3C//DTD SVG 1.1//EN"
       "http://www.w3.org/Graphics/SVG/1.1/DTD/svg11.dtd">
<svg version="1.1" xmlns="http://www.w3.org/2000/svg" xmlns:xlink="http://www.w3.org/1999/xlink" width="97.9595" height="97.9932">
 <g>
  <rect height="97.9932" opacity="0" width="97.9595" x="0" y="0"/>
  <path d="M48.9722 97.9443C75.8247 97.9443 97.9595 75.7759 97.9595 48.9722C97.9595 22.1348 75.791 0 48.9385 0C22.1348 0 0 22.1348 0 48.9722C0 75.7759 22.1685 97.9443 48.9722 97.9443ZM48.9722 91.6113C25.3501 91.6113 6.36671 72.5942 6.36671 48.9722C6.36671 25.3501 25.3164 6.31789 48.9385 6.31789C72.5605 6.31789 91.6265 25.3501 91.6265 48.9722C91.6265 72.5942 72.5942 91.6113 48.9722 91.6113Z" fill="#000000" fill-opacity="0.85"/>
  <path d="M26.3872 69.022L53.021 69.022C60.0605 69.022 65.519 63.6914 65.519 56.8252C65.519 50.0903 60.0757 45.0005 52.7734 44.79C49.918 39.4478 44.9561 36.0166 38.6997 36.0166C30.7022 36.0166 24.0195 42.332 23.1104 50.3042C19.083 51.6226 16.1065 55.0591 16.1065 59.6167C16.1065 64.9307 20.1812 69.022 26.3872 69.022ZM82.5093 43.958C82.5093 43.1177 82.1641 42.5889 81.4736 42.5889C80.4531 42.5889 78.2832 43.9815 75.1597 43.9815C68.7754 43.9815 64.6792 40.0991 64.6792 34.1729C64.6792 30.9199 66.3008 28.5005 66.3008 27.4126C66.3008 26.7105 65.7754 26.2827 64.8174 26.3281C59.2114 26.8447 53.9102 33.148 53.3711 40.1406C53.8174 40.6509 54.23 41.2285 54.6274 41.8213C62.2261 42.7188 67.981 48.2886 68.5703 55.5942C77.8584 54.48 82.5093 47.7031 82.5093 43.958Z" fill="#000000" fill-opacity="0.85"/>
 </g>
</svg>
