<?xml version="1.0" encoding="UTF-8"?>
<!--Generator: Apple Native CoreSVG 232.5-->
<!DOCTYPE svg
PUBLIC "-//W3C//DTD SVG 1.1//EN"
       "http://www.w3.org/Graphics/SVG/1.1/DTD/svg11.dtd">
<svg version="1.1" xmlns="http://www.w3.org/2000/svg" xmlns:xlink="http://www.w3.org/1999/xlink" width="97.9595" height="97.9932">
 <g>
  <rect height="97.9932" opacity="0" width="97.9595" x="0" y="0"/>
  <path d="M48.9722 97.9443C75.8247 97.9443 97.9595 75.7759 97.9595 48.9722C97.9595 22.1348 75.791 0 48.9385 0C22.1348 0 0 22.1348 0 48.9722C0 75.7759 22.1685 97.9443 48.9722 97.9443ZM48.9722 91.6113C25.3501 91.6113 6.36671 72.5942 6.36671 48.9722C6.36671 25.3501 25.3164 6.31789 48.9385 6.31789C72.5605 6.31789 91.6265 25.3501 91.6265 48.9722C91.6265 72.5942 72.5942 91.6113 48.9722 91.6113Z" fill="#000000" fill-opacity="0.85"/>
  <path d="M33.1104 54.9463L62.7988 54.9463C70.3555 54.9463 76.1626 49.2114 76.1626 42.0151C76.1626 34.6353 70.0591 29.2607 62.1489 29.2607C59.1738 23.3174 53.8447 19.3726 46.8037 19.3726C38.0112 19.3726 30.7998 26.4121 29.9849 35.2886C25.6646 36.5093 22.2568 40.126 22.2568 45.103C22.2568 50.4995 26.2339 54.9463 33.1104 54.9463ZM30.5235 65.4878L67.4209 65.4878C68.4902 65.4878 69.334 64.6929 69.334 63.605C69.334 62.5356 68.4902 61.7559 67.4209 61.7559L30.5235 61.7559C29.4844 61.7559 28.6592 62.5659 28.6592 63.605C28.6592 64.6929 29.4844 65.4878 30.5235 65.4878ZM30.5235 75.3848L67.4209 75.3848C68.4902 75.3848 69.334 74.5898 69.334 73.5205C69.334 72.4663 68.4902 71.6714 67.4209 71.6714L30.5235 71.6714C29.4844 71.6714 28.6592 72.4814 28.6592 73.5205C28.6592 74.5898 29.4844 75.3848 30.5235 75.3848Z" fill="#000000" fill-opacity="0.85"/>
 </g>
</svg>
