<?xml version="1.0" encoding="UTF-8"?>
<!--Generator: Apple Native CoreSVG 232.5-->
<!DOCTYPE svg
PUBLIC "-//W3C//DTD SVG 1.1//EN"
       "http://www.w3.org/Graphics/SVG/1.1/DTD/svg11.dtd">
<svg version="1.1" xmlns="http://www.w3.org/2000/svg" xmlns:xlink="http://www.w3.org/1999/xlink" width="68.5878" height="111.718">
 <g>
  <rect height="111.718" opacity="0" width="68.5878" x="0" y="0"/>
  <path d="M36.5341 99.7605C52.3412 99.7605 63.7773 91.6653 67.7411 79.5965C68.2177 78.1165 68.4921 76.6517 68.5864 75.1531C68.6352 73.2498 67.3954 71.8401 65.3491 71.8401C63.4306 71.8401 62.4487 72.9383 61.8608 74.887C59.5048 85.9324 49.5951 93.3347 36.5678 93.3347C18.6122 93.3347 7.33344 78.7224 7.33344 55.5218C7.33344 32.7991 18.5703 18.5486 36.5341 18.5486C49.078 18.5486 58.9911 26.7049 61.4379 37.6258C62.0444 39.7767 63.0077 40.6878 64.9262 40.6878C66.9423 40.6878 68.2123 39.2933 68.1484 37.2806C68.039 35.8914 67.8251 34.6302 67.4125 33.3689C63.1659 20.4251 51.0766 12.1077 36.5341 12.1077C14.1454 12.1077 0.00139098 28.9285 0.00139098 55.5218C0.00139098 82.5628 14.1537 99.7605 36.5341 99.7605ZM29.1742 108.349C28.1806 112.117 33.2973 112.991 34.1747 109.605L61.7314 5.26738C62.6425 1.74735 57.5932 0.57352 56.6821 4.05644ZM10.4477 108.095C9.43889 111.862 14.5556 112.721 15.433 109.351L43.0048 5.01298C43.916 1.49295 38.8329 0.319124 37.9555 3.80204Z" fill="#000000" fill-opacity="0.85"/>
 </g>
</svg>
