<?xml version="1.0" encoding="UTF-8"?>
<!--Generator: Apple Native CoreSVG 232.5-->
<!DOCTYPE svg
PUBLIC "-//W3C//DTD SVG 1.1//EN"
       "http://www.w3.org/Graphics/SVG/1.1/DTD/svg11.dtd">
<svg version="1.1" xmlns="http://www.w3.org/2000/svg" xmlns:xlink="http://www.w3.org/1999/xlink" width="88.4092" height="88.5371">
 <g>
  <rect height="88.5371" opacity="0" width="88.4092" x="0" y="0"/>
  <path d="M88.4092 14.4019L88.4092 74.2632C88.4092 83.6558 83.5733 88.5371 74.0005 88.5371L14.3936 88.5371C4.86963 88.5371 0 83.7349 0 74.2632L0 14.4019C0 4.93018 4.86963 0.127929 14.3936 0.127929L74.0005 0.127929C83.5733 0.127929 88.4092 5.00928 88.4092 14.4019ZM53.5566 17.9902L52.1172 23.5059C50.6592 22.7534 49.043 22.272 47.3291 21.915L47.9907 19.3896C48.0733 19.1084 48.1558 18.7632 48.1558 18.418C48.1558 17.2256 47.3608 16.3852 46.1231 16.3852C45.0806 16.3852 44.2856 16.8955 43.9893 17.9902L42.9824 21.7197C31.772 22.2773 24.7808 31.0518 24.7808 44.6113C24.7808 53.0523 27.3638 59.6797 32.001 63.6182L30.085 70.8516C30.0024 71.1817 29.9688 71.4478 29.9688 71.7476C29.9688 73.0191 30.8242 73.8594 31.9863 73.8594C33.044 73.8594 33.8389 73.3643 34.0864 72.2393L35.7398 65.9927C37.2129 66.7334 38.814 67.2486 40.543 67.523L39.686 70.8853C39.6035 71.2002 39.5698 71.4478 39.5698 71.7627C39.5698 73.0645 40.3428 73.8594 41.5537 73.8594C42.5962 73.8594 43.3911 73.3643 43.6538 72.2393L44.8594 67.7705C52.7984 67.5161 58.646 63.4043 60.6616 57.0752C60.9243 56.3394 61.1348 55.4268 61.1348 54.6572C61.1348 53.1802 60.19 52.0855 58.6304 52.0855C57.2695 52.0855 56.4409 53.064 56.104 54.2749C55.1021 58.9263 51.3311 62.2832 46.1192 62.7852L54.2778 32.0498C55.0957 32.9585 55.7622 34.2207 56.0064 35.584C56.3735 36.7139 57.064 37.647 58.4585 37.647C59.9356 37.647 60.8838 36.6533 60.8838 35.0669C60.8838 34.3125 60.7036 33.5581 60.4409 32.7886C59.5401 30.0879 57.9404 27.7476 55.856 25.8955L57.5581 19.3896C57.6743 19.0596 57.7232 18.7632 57.7232 18.418C57.7232 17.2256 56.9131 16.3852 55.6904 16.3852C54.6631 16.3852 53.8716 16.8501 53.5566 17.9902ZM50.8086 28.4541L41.769 62.8408C39.9575 62.5664 38.4238 61.9502 36.9995 61.0142L46.0879 26.7134C47.832 26.9541 49.4331 27.5669 50.8086 28.4541ZM33.5977 57.3931C31.3184 54.3086 30.0996 49.9263 30.0996 44.6113C30.0996 34.7368 34.3809 28.0425 41.6553 26.8701Z" fill="#000000" fill-opacity="0.85"/>
 </g>
</svg>
