<?xml version="1.0" encoding="UTF-8"?>
<!--Generator: Apple Native CoreSVG 232.5-->
<!DOCTYPE svg
PUBLIC "-//W3C//DTD SVG 1.1//EN"
       "http://www.w3.org/Graphics/SVG/1.1/DTD/svg11.dtd">
<svg version="1.1" xmlns="http://www.w3.org/2000/svg" xmlns:xlink="http://www.w3.org/1999/xlink" width="107.333" height="97.9932">
 <g>
  <rect height="97.9932" opacity="0" width="107.333" x="0" y="0"/>
  <path d="M58.3575 97.9443C85.1612 97.9443 107.33 75.7759 107.33 48.9722C107.33 22.1348 85.1612 0 58.3575 0C31.5201 0 9.38533 22.1011 9.38533 48.9385L15.7032 48.9385C15.7032 25.3164 34.7354 6.35158 58.3575 6.35158C81.9796 6.35158 101.012 25.3501 101.012 48.9722C101.012 72.5942 81.9796 91.6787 58.3575 91.6113C43.5182 91.5928 30.6148 84.0068 22.9474 72.5923C21.8121 71.0444 20.047 70.561 18.4806 71.479C16.9967 72.397 16.5655 74.4165 17.8018 76.0655C26.943 89.0161 41.5392 97.9443 58.3575 97.9443ZM2.84969 40.0024C7.79875e-05 40.0024-0.788009 41.9561 0.828693 44.2666L11.4786 59.4307C12.8326 61.3438 14.7677 61.3101 16.1031 59.4307L26.753 44.2329C28.336 41.9561 27.5479 40.0024 24.7169 40.0024Z" fill="#000000" fill-opacity="0.85"/>
  <path d="M39.2984 49.3057C39.2984 57.5933 41.8477 64.0523 46.3839 67.9385L44.5167 75.0034C44.4342 75.3184 44.4005 75.5845 44.4005 75.8657C44.4005 77.1035 45.2559 77.9439 46.3507 77.9439C47.3595 77.9439 48.1207 77.4487 48.4171 76.3574L50.0367 70.2305C51.4762 70.9375 53.0772 71.4678 54.7725 71.7271L53.8819 75.0371C53.7994 75.3521 53.7657 75.5845 53.7657 75.8809C53.7657 77.1489 54.5724 77.9439 55.7159 77.9439C56.7398 77.9439 57.5011 77.4487 57.7823 76.3574L58.9356 71.9898C66.7398 71.7354 72.419 67.7095 74.4498 61.5151C74.6974 60.7642 74.9229 59.9004 74.9229 59.1309C74.9229 57.7212 73.9444 56.6602 72.4708 56.6602C71.1436 56.6602 70.3487 57.605 70.0118 58.7822C69.0098 63.3662 65.3062 66.6558 60.1617 67.124L68.1856 36.98C69.0035 37.8735 69.6363 39.1357 69.8956 40.499C70.2813 41.5952 70.9044 42.4946 72.2652 42.4946C73.7086 42.4946 74.6383 41.5347 74.6383 39.9971C74.6383 39.2612 74.4767 38.5068 74.214 37.771C73.3282 35.1377 71.7809 32.8311 69.7301 31.0127L71.3985 24.6416C71.481 24.2964 71.5636 24 71.5636 23.7036C71.5636 22.5298 70.7535 21.6895 69.5645 21.6895C68.6046 21.6895 67.7794 22.1694 67.4981 23.2759L66.0587 28.6904C64.6681 27.938 63.0367 27.4565 61.3565 27.1333L62.0333 24.6416C62.1158 24.3452 62.1983 24 62.1983 23.7036C62.1983 22.5298 61.4371 21.6895 60.1993 21.6895C59.1754 21.6895 58.4141 22.2148 58.1666 23.2759L57.1934 26.938C46.1549 27.4468 39.2984 36.0342 39.2984 49.3057ZM44.464 49.3057C44.464 39.6182 48.7115 33.0586 55.8848 31.9199L47.962 61.9004C45.7164 58.8345 44.464 54.5532 44.464 49.3057ZM51.2628 65.3867L60.1641 31.7783C61.8932 32.0039 63.4605 32.6167 64.8512 33.4854L55.9801 67.1797C54.1534 66.9053 52.6197 66.3228 51.2628 65.3867Z" fill="#000000" fill-opacity="0.85"/>
 </g>
</svg>
