<?xml version="1.0" encoding="UTF-8"?>
<!--Generator: Apple Native CoreSVG 232.5-->
<!DOCTYPE svg
PUBLIC "-//W3C//DTD SVG 1.1//EN"
       "http://www.w3.org/Graphics/SVG/1.1/DTD/svg11.dtd">
<svg version="1.1" xmlns="http://www.w3.org/2000/svg" xmlns:xlink="http://www.w3.org/1999/xlink" width="108.412" height="114.279">
 <g>
  <rect height="114.279" opacity="0" width="108.412" x="0" y="0"/>
  <path d="M4.92756 91.826L26.4461 113.393C27.6268 114.574 29.5789 114.574 30.7445 113.393C31.91 112.164 31.9066 110.309 30.7445 109.129L16.9188 95.2542L89.4842 22.6888L103.295 36.5296C104.491 37.7254 106.327 37.7591 107.507 36.5633C108.706 35.3826 108.722 33.5281 107.507 32.2986L85.9583 10.78C79.3358 4.17262 71.2376 4.22145 64.6117 10.8811L5.02864 70.4641C-1.59734 77.0901-1.67986 85.1883 4.92756 91.826ZM82.7655 27.803L79.1444 31.5403L94.0174 46.3797C95.0633 47.4593 96.6786 47.4593 97.6722 46.4134C98.7333 45.4012 98.7669 43.7708 97.7059 42.7097ZM73.2489 37.3347L69.5975 41.0569L84.4705 55.8963C85.5467 56.9573 87.162 56.9573 88.1405 55.93C89.1375 54.9026 89.1712 53.3025 88.1742 52.2752ZM63.7357 46.8513L60.1146 50.5887L74.9539 65.4768C75.9998 66.4739 77.6151 66.4739 78.6239 65.5105C79.6849 64.4646 79.7186 62.8191 78.6424 61.7918ZM54.2528 56.3831L50.5828 60.053L65.4559 74.9598C66.5169 76.0208 68.1322 76.0208 69.1107 74.9598C70.1229 73.9324 70.1566 72.2986 69.1444 71.305ZM44.721 65.9148L41.0511 69.5848L55.9393 84.5252C56.9515 85.5374 58.5667 85.5374 59.5941 84.5252C60.6214 83.4944 60.6551 81.8489 59.6278 80.8216ZM35.2044 75.4466L31.5194 79.1014L46.3924 94.0418C47.4686 95.0691 49.0838 95.0691 50.0623 94.0418C51.0594 92.9808 51.0931 91.3807 50.0809 90.3533ZM25.6576 84.9632L22.0028 88.6331L36.8758 103.589C37.888 104.586 39.5033 104.586 40.5457 103.589C41.5731 102.543 41.5916 100.897 40.5643 99.8699Z" fill="#000000" fill-opacity="0.85"/>
 </g>
</svg>
