<?xml version="1.0" encoding="UTF-8"?>
<!--Generator: Apple Native CoreSVG 232.5-->
<!DOCTYPE svg
PUBLIC "-//W3C//DTD SVG 1.1//EN"
       "http://www.w3.org/Graphics/SVG/1.1/DTD/svg11.dtd">
<svg version="1.1" xmlns="http://www.w3.org/2000/svg" xmlns:xlink="http://www.w3.org/1999/xlink" width="108.412" height="111.772">
 <g>
  <rect height="111.772" opacity="0" width="108.412" x="0" y="0"/>
  <path d="M5.02864 67.9573C-1.59734 74.5833-1.67986 82.6814 4.92756 89.304L26.4461 110.887C27.6268 112.067 29.5789 112.067 30.7445 110.887C31.91 109.657 31.9251 107.803 30.7445 106.607L9.76498 85.6272C5.36215 81.2244 5.24935 76.1985 9.6639 71.8177L68.472 13.0095C72.8529 8.62869 77.9461 8.6741 82.2816 13.0432L103.295 34.0227C104.491 35.2185 106.327 35.2522 107.507 34.0564C108.706 32.8606 108.722 31.0061 107.507 29.7918L85.9583 8.2732C79.3358 1.65064 71.2376 1.71461 64.6117 8.37428ZM11.9539 92.3181L16.2186 96.5979L93.3988 19.4329L89.119 15.1531ZM83.6971 26.2278L80.076 29.9314L94.0174 43.8728C95.0633 44.9524 96.6786 44.9524 97.6722 43.9065C98.7333 42.8943 98.7669 41.2639 97.7059 40.1878ZM74.1805 35.7595L70.4954 39.448L84.4705 53.3894C85.5467 54.4505 87.162 54.4505 88.1405 53.4231C89.1375 52.3958 89.1712 50.7957 88.1742 49.7683ZM64.6488 45.2761L61.0125 48.9798L74.9539 62.9549C75.9998 63.9671 77.6151 63.9671 78.6239 62.9886C79.6849 61.9578 79.7186 60.3123 78.6424 59.2849ZM55.1507 54.8079L51.4808 58.4778L65.4559 72.4378C66.5169 73.5139 68.1322 73.5139 69.1107 72.4378C70.1229 71.4104 70.1566 69.8255 69.1444 68.783ZM45.619 64.3245L41.9642 68.0096L55.9393 82.0183C56.9515 83.0306 58.5667 83.0306 59.5941 82.0183C60.6214 80.9724 60.6551 79.3421 59.6278 78.3147ZM36.1024 73.8714L32.4173 77.5262L46.3924 91.5349C47.4686 92.5623 49.0838 92.5623 50.0623 91.5349C51.0594 90.4739 51.0931 88.8738 50.0809 87.8465ZM26.5555 83.388L22.9007 87.0579L36.8758 101.067C37.888 102.079 39.5033 102.079 40.5457 101.067C41.5731 100.07 41.5916 98.3904 40.5643 97.3631Z" fill="#000000" fill-opacity="0.85"/>
 </g>
</svg>
