<?xml version="1.0" encoding="UTF-8"?>
<!--Generator: Apple Native CoreSVG 232.5-->
<!DOCTYPE svg
PUBLIC "-//W3C//DTD SVG 1.1//EN"
       "http://www.w3.org/Graphics/SVG/1.1/DTD/svg11.dtd">
<svg version="1.1" xmlns="http://www.w3.org/2000/svg" xmlns:xlink="http://www.w3.org/1999/xlink" width="92.0244" height="92.1523">
 <g>
  <rect height="92.1523" opacity="0" width="92.0244" x="0" y="0"/>
  <path d="M27.7305 33.585L27.7305 58.5522L16.7959 58.5522C7.55518 58.5522 0 65.939 0 75.2436C0 84.5483 7.55518 92.1035 16.7959 92.1035C26.0518 92.1035 33.6069 84.5483 33.6069 75.2436L33.6069 64.3276L58.4175 64.3276L58.4175 75.2436C58.4175 84.5483 65.9727 92.1035 75.2285 92.1035C84.4692 92.1035 92.0244 84.5483 92.0244 75.2436C92.0244 65.939 84.4692 58.5522 75.2285 58.5522L64.294 58.5522L64.294 33.585L75.2285 33.585C84.4692 33.585 92.0244 26.1983 92.0244 16.8936C92.0244 7.58887 84.4692 0 75.2285 0C65.9727 0 58.4175 7.58887 58.4175 16.8936L58.4175 27.8096L33.6069 27.8096L33.6069 16.8936C33.6069 7.58887 26.0518 0 16.7959 0C7.55518 0 0 7.58887 0 16.8936C0 26.1983 7.55518 33.585 16.7959 33.585ZM16.7959 27.8618C10.8193 27.8618 5.87648 22.9189 5.87648 16.8936C5.87648 10.853 10.8193 5.87648 16.7959 5.87648C22.7876 5.87648 27.7305 10.853 27.7305 16.8936L27.7305 27.8618ZM75.2285 27.8618L64.294 27.8618L64.294 16.8936C64.294 10.853 69.2368 5.87648 75.2285 5.87648C81.2051 5.87648 86.1479 10.853 86.1479 16.8936C86.1479 22.9189 81.2051 27.8618 75.2285 27.8618ZM33.6069 58.6196L33.6069 33.5176L58.4175 33.5176L58.4175 58.6196ZM16.7959 64.2266L27.7305 64.2266L27.7305 75.21C27.7305 81.2505 22.7876 86.1933 16.7959 86.1933C10.8193 86.1933 5.87648 81.2505 5.87648 75.21C5.87648 69.1694 10.8193 64.2266 16.7959 64.2266ZM75.2285 64.2266C81.2051 64.2266 86.1479 69.1694 86.1479 75.21C86.1479 81.2505 81.2051 86.1933 75.2285 86.1933C69.2368 86.1933 64.294 81.2505 64.294 75.21L64.294 64.2266Z" fill="#000000" fill-opacity="0.85"/>
 </g>
</svg>
