<?xml version="1.0" encoding="UTF-8"?>
<!--Generator: Apple Native CoreSVG 232.5-->
<!DOCTYPE svg
PUBLIC "-//W3C//DTD SVG 1.1//EN"
       "http://www.w3.org/Graphics/SVG/1.1/DTD/svg11.dtd">
<svg version="1.1" xmlns="http://www.w3.org/2000/svg" xmlns:xlink="http://www.w3.org/1999/xlink" width="97.9595" height="97.9932">
 <g>
  <rect height="97.9932" opacity="0" width="97.9595" x="0" y="0"/>
  <path d="M48.9722 97.9443C75.8247 97.9443 97.9595 75.7759 97.9595 48.9722C97.9595 22.1348 75.791 0 48.9385 0C22.1348 0 0 22.1348 0 48.9722C0 75.7759 22.1685 97.9443 48.9722 97.9443ZM48.9722 91.6113C25.3501 91.6113 6.36671 72.5942 6.36671 48.9722C6.36671 25.3501 25.3164 6.31789 48.9385 6.31789C72.5605 6.31789 91.6265 25.3501 91.6265 48.9722C91.6265 72.5942 72.5942 91.6113 48.9722 91.6113Z" fill="#000000" fill-opacity="0.85"/>
  <path d="M38.0845 43.6172L38.0845 54.3608L33.5596 54.3608C28.1157 54.3608 23.6738 58.769 23.6738 64.1304C23.6738 69.5894 28.1006 74.0161 33.5596 74.0161C38.936 74.0161 43.3662 69.5557 43.3662 64.1304L43.3662 59.5415L54.0693 59.5415L54.0693 64.1304C54.0693 69.5557 58.4658 74.0161 63.8911 74.0161C69.3164 74.0161 73.728 69.5894 73.728 64.1304C73.728 58.769 69.2861 54.3608 63.8911 54.3608L59.3174 54.3608L59.3174 43.6172L63.8911 43.6172C69.2861 43.6172 73.728 39.209 73.728 33.7988C73.728 28.3735 69.3164 23.9619 63.8911 23.9619C58.4658 23.9619 54.0693 28.4072 54.0693 33.7988L54.0693 38.3877L43.3662 38.3877L43.3662 33.7988C43.3662 28.4072 38.936 23.9619 33.5596 23.9619C28.1006 23.9619 23.6738 28.3735 23.6738 33.7988C23.6738 39.209 28.1157 43.6172 33.5596 43.6172ZM43.3662 54.3945L43.3662 43.5835L54.0693 43.5835L54.0693 54.3945ZM33.5596 38.4214C30.9756 38.4214 28.937 36.3677 28.937 33.7988C28.937 31.2974 31.0093 29.1763 33.5596 29.1763C36.0459 29.1763 38.0845 31.3125 38.0845 33.7988L38.0845 38.4214ZM63.8911 38.4214L59.3174 38.4214L59.3174 33.7988C59.3174 31.3125 61.3711 29.1763 63.8911 29.1763C66.3926 29.1763 68.5137 31.2974 68.5137 33.7988C68.5137 36.3677 66.4263 38.4214 63.8911 38.4214ZM33.5596 59.4893L38.0845 59.4893L38.0845 64.1118C38.0845 66.6504 36.0459 68.7192 33.5596 68.7192C30.9756 68.7192 28.937 66.6807 28.937 64.1118C28.937 61.5952 31.0093 59.4893 33.5596 59.4893ZM63.8911 59.4893C66.3926 59.4893 68.5137 61.5952 68.5137 64.1118C68.5137 66.6807 66.4263 68.7192 63.8911 68.7192C61.3711 68.7192 59.3174 66.6504 59.3174 64.1118L59.3174 59.4893Z" fill="#000000" fill-opacity="0.85"/>
 </g>
</svg>
