<?xml version="1.0" encoding="UTF-8"?>
<!--Generator: Apple Native CoreSVG 232.5-->
<!DOCTYPE svg
PUBLIC "-//W3C//DTD SVG 1.1//EN"
       "http://www.w3.org/Graphics/SVG/1.1/DTD/svg11.dtd">
<svg version="1.1" xmlns="http://www.w3.org/2000/svg" xmlns:xlink="http://www.w3.org/1999/xlink" width="88.4092" height="88.5371">
 <g>
  <rect height="88.5371" opacity="0" width="88.4092" x="0" y="0"/>
  <path d="M88.4092 14.4019L88.4092 74.2632C88.4092 83.6558 83.5733 88.5371 74.0005 88.5371L14.3936 88.5371C4.86963 88.5371 0 83.7349 0 74.2632L0 14.4019C0 4.93018 4.86963 0.127929 14.3936 0.127929L74.0005 0.127929C83.5733 0.127929 88.4092 5.00928 88.4092 14.4019ZM49.4121 28.7827L49.4121 33.439L38.5894 33.439L38.5894 28.7827C38.5894 23.2564 34.0581 18.71 28.5469 18.71C22.9531 18.71 18.4741 23.2378 18.4741 28.7827C18.4741 34.3125 22.9834 38.8218 28.5469 38.8218L33.1392 38.8218L33.1392 49.7002L28.5469 49.7002C22.9834 49.7002 18.4741 54.1943 18.4741 59.7056C18.4741 65.2842 22.9531 69.7969 28.5469 69.7969C34.0581 69.7969 38.5894 65.2505 38.5894 59.7056L38.5894 55.0493L49.4121 55.0493L49.4121 59.7056C49.4121 65.2505 53.9097 69.7969 59.4546 69.7969C65.0147 69.7969 69.5274 65.2842 69.5274 59.7056C69.5274 54.1943 64.9995 49.7002 59.4546 49.7002L54.8286 49.7002L54.8286 38.8218L59.4546 38.8218C64.9995 38.8218 69.5274 34.3125 69.5274 28.7827C69.5274 23.2378 65.0147 18.71 59.4546 18.71C53.9097 18.71 49.4121 23.2564 49.4121 28.7827ZM33.1392 59.6719C33.1392 62.2441 31.0669 64.3467 28.5469 64.3467C25.9443 64.3467 23.8569 62.2744 23.8569 59.6719C23.8569 57.1216 25.978 54.9819 28.5469 54.9819L33.1392 54.9819ZM64.1445 59.6719C64.1445 62.2744 62.0386 64.3467 59.4546 64.3467C56.916 64.3467 54.8286 62.2441 54.8286 59.6719L54.8286 54.9819L59.4546 54.9819C62.0049 54.9819 64.1445 57.1216 64.1445 59.6719ZM49.4121 49.7339L38.5894 49.7339L38.5894 38.7881L49.4121 38.7881ZM33.1392 28.7827L33.1392 33.4727L28.5469 33.4727C25.9443 33.4727 23.8569 31.3853 23.8569 28.7827C23.8569 26.2476 25.978 24.0928 28.5469 24.0928C31.0669 24.0928 33.1392 26.2627 33.1392 28.7827ZM64.1445 28.7827C64.1445 31.3853 62.0386 33.4727 59.4546 33.4727L54.8286 33.4727L54.8286 28.7827C54.8286 26.2627 56.916 24.0928 59.4546 24.0928C62.0049 24.0928 64.1445 26.2476 64.1445 28.7827Z" fill="#000000" fill-opacity="0.85"/>
 </g>
</svg>
