<?xml version="1.0" encoding="UTF-8"?>
<!--Generator: Apple Native CoreSVG 232.5-->
<!DOCTYPE svg
PUBLIC "-//W3C//DTD SVG 1.1//EN"
       "http://www.w3.org/Graphics/SVG/1.1/DTD/svg11.dtd">
<svg version="1.1" xmlns="http://www.w3.org/2000/svg" xmlns:xlink="http://www.w3.org/1999/xlink" width="66.3648" height="103.939">
 <g>
  <rect height="103.939" opacity="0" width="66.3648" x="0" y="0"/>
  <path d="M33.1504 103.939C54.9453 103.939 66.3648 90.9868 66.3648 66.3985C66.3648 51.2764 65.73 37.8179 64.8814 28.6968C63.0864 8.53174 53.7398 0.131348 33.1504 0.131348C12.5947 0.131348 3.26318 8.53174 1.43457 28.6968C0.570801 37.8179 0 51.2764 0 66.3985C0 90.9868 11.3555 103.939 33.1504 103.939ZM33.1504 97.9087C15.2564 97.9087 6.04494 87.2105 6.04494 66.3985C6.04494 52.2041 6.53664 38.7525 7.44923 29.2627C8.94435 12.3096 15.6602 6.17628 33.1504 6.17628C50.6406 6.17628 57.3901 12.3096 58.8853 29.2627C59.7642 38.7525 60.3198 52.2041 60.3198 66.3985C60.3198 87.2105 51.0596 97.9087 33.1504 97.9087ZM4.72755 34.8989L61.6406 34.8989L61.6406 29.8345L4.72755 29.8345ZM30.6611 32.312L35.7407 32.3154L35.7407 3.91944L30.6611 3.88575Z" fill="#000000" fill-opacity="0.85"/>
 </g>
</svg>
