<?xml version="1.0" encoding="UTF-8"?>
<!--Generator: Apple Native CoreSVG 232.5-->
<!DOCTYPE svg
PUBLIC "-//W3C//DTD SVG 1.1//EN"
       "http://www.w3.org/Graphics/SVG/1.1/DTD/svg11.dtd">
<svg version="1.1" xmlns="http://www.w3.org/2000/svg" xmlns:xlink="http://www.w3.org/1999/xlink" width="81.3936" height="91.21">
 <g>
  <rect height="91.21" opacity="0" width="81.3936" x="0" y="0"/>
  <path d="M1.0459 40.1484C0.412598 40.8457 0 41.6323 0 42.5654C0 44.4839 1.4502 45.9527 3.35352 45.9527C4.30519 45.9527 5.17091 45.582 5.75539 44.9824L42.855 6.02687L38.5537 6.02687L75.6231 44.9824C76.2564 45.582 77.1221 45.9527 78.0249 45.9527C79.9434 45.9527 81.3936 44.4839 81.3936 42.5654C81.3936 41.6323 80.9961 40.8608 80.3628 40.1787L43.3418 1.21924C42.648 0.458008 41.6997 0 40.7061 0C39.6636 0 38.7979 0.427735 38.0366 1.18897Z" fill="#000000" fill-opacity="0.85"/>
 </g>
</svg>
