<?xml version="1.0" encoding="UTF-8"?>
<!--Generator: Apple Native CoreSVG 232.5-->
<!DOCTYPE svg
PUBLIC "-//W3C//DTD SVG 1.1//EN"
       "http://www.w3.org/Graphics/SVG/1.1/DTD/svg11.dtd">
<svg version="1.1" xmlns="http://www.w3.org/2000/svg" xmlns:xlink="http://www.w3.org/1999/xlink" width="83.1909" height="125.451">
 <g>
  <rect height="125.451" opacity="0" width="83.1909" x="0" y="0"/>
  <path d="M14.3936 104.391L38.4116 104.391L38.4116 20.9776L14.3936 20.9776C4.86963 20.9776 0 25.8135 0 35.2363L0 90.1509C0 99.5889 4.86963 104.391 14.3936 104.391ZM14.5064 98.3613C9.00294 98.3613 6.04494 95.4556 6.04494 89.8174L6.04494 35.5698C6.04494 29.9317 9.00294 27.0074 14.5064 27.0074L32.3667 27.0074L32.3667 98.3613ZM68.7822 104.391C78.355 104.391 83.1909 99.5098 83.1909 90.1509L83.1909 35.2363C83.1909 25.8438 78.355 20.9776 68.7822 20.9776L44.7119 20.9776L44.7119 104.391ZM68.6846 98.3613L50.7569 98.3613L50.7569 27.0074L68.6846 27.0074C74.0449 27.0074 77.146 29.9317 77.146 35.5698L77.146 89.8174C77.146 95.4556 74.0449 98.3613 68.6846 98.3613ZM41.5542 0C39.7842 0 38.4116 1.40625 38.4116 3.14258L38.4116 20.9776L44.7119 20.9776L44.7119 3.14258C44.7119 1.40625 43.3394 0 41.5542 0ZM41.5542 125.369C43.3394 125.369 44.7119 123.996 44.7119 122.211L44.7119 104.391L38.4116 104.391L38.4116 122.211C38.4116 123.996 39.7842 125.369 41.5542 125.369Z" fill="#000000" fill-opacity="0.85"/>
 </g>
</svg>
