<?xml version="1.0" encoding="UTF-8"?>
<!--Generator: Apple Native CoreSVG 232.5-->
<!DOCTYPE svg
PUBLIC "-//W3C//DTD SVG 1.1//EN"
       "http://www.w3.org/Graphics/SVG/1.1/DTD/svg11.dtd">
<svg version="1.1" xmlns="http://www.w3.org/2000/svg" xmlns:xlink="http://www.w3.org/1999/xlink" width="94.7608" height="94.8701">
 <g>
  <rect height="94.8701" opacity="0" width="94.7608" x="0" y="0"/>
  <path d="M0 64.0454C0 65.814 1.21436 67.0772 2.99805 67.0772L8.43604 67.0772L8.43604 83.1367C8.43604 85.1475 9.74122 86.419 11.7671 86.419L27.7476 86.419L27.7476 91.857C27.7476 93.6406 28.9956 94.8701 30.7793 94.8701C32.563 94.8701 33.7925 93.6406 33.7925 91.857L33.7925 86.419L44.3823 86.419L44.3823 91.857C44.3823 93.6406 45.5967 94.8701 47.3804 94.8701C49.1641 94.8701 50.4121 93.6406 50.4121 91.857L50.4121 86.419L60.9834 86.419L60.9834 91.857C60.9834 93.6406 62.1978 94.8701 63.9815 94.8701C65.7988 94.8701 67.0132 93.6406 67.0132 91.857L67.0132 86.419L83.0088 86.419C85.0196 86.419 86.3247 85.1475 86.3247 83.1367L86.3247 67.0435L91.7627 67.0435C93.5464 67.0435 94.7608 65.7954 94.7608 64.0117C94.7608 62.228 93.5464 60.9985 91.7627 60.9985L86.3247 60.9985L86.3247 50.4087L91.7627 50.4087C93.5464 50.4087 94.7608 49.1944 94.7608 47.4107C94.7608 45.627 93.5464 44.3789 91.7627 44.3789L86.3247 44.3789L86.3247 33.8076L91.7627 33.8076C93.5464 33.8076 94.7608 32.5596 94.7608 30.7759C94.7608 28.9922 93.5464 27.7778 91.7627 27.7778L86.3247 27.7778L86.3247 11.8613C86.3247 9.85059 85.0196 8.54541 83.0088 8.54541L67.0132 8.54541L67.0132 3.14112C67.0132 1.35742 65.7988 0.0942379 63.9815 0.0942379C62.1978 0.0942379 60.9834 1.35742 60.9834 3.14112L60.9834 8.54541L50.4121 8.54541L50.4121 3.14112C50.4121 1.35742 49.1641 0.0942379 47.3804 0.0942379C45.5967 0.0942379 44.3823 1.35742 44.3823 3.14112L44.3823 8.54541L33.7925 8.54541L33.7925 3.14112C33.7925 1.35742 32.563 0.0942379 30.7793 0.0942379C28.9956 0.0942379 27.7476 1.35742 27.7476 3.14112L27.7476 8.54541L11.7671 8.54541C9.74122 8.54541 8.43604 9.85059 8.43604 11.8613L8.43604 27.8115L2.99805 27.8115C1.21436 27.8115 0 29.0259 0 30.8096C0 32.5933 1.21436 33.8413 2.99805 33.8413L8.43604 33.8413L8.43604 44.3975L2.99805 44.3975C1.21436 44.3975 0 45.6607 0 47.4443C0 49.228 1.21436 50.4424 2.99805 50.4424L8.43604 50.4424L8.43604 61.0322L2.99805 61.0322C1.21436 61.0322 0 62.2617 0 64.0454ZM14.481 79.1397L14.481 15.8584C14.481 14.9658 14.8716 14.5752 15.7305 14.5752L79.0303 14.5752C79.9043 14.5752 80.2798 14.9658 80.2798 15.8584L80.2798 79.1397C80.2798 80.0322 79.9043 80.3892 79.0303 80.3892L15.7305 80.3892C14.8716 80.3892 14.481 80.0322 14.481 79.1397ZM28.0088 70.0913L66.8496 70.0913C68.9614 70.0913 70.0122 69.0557 70.0122 66.8765L70.0122 28.0879C70.0122 25.9424 68.9614 24.9068 66.8496 24.9068L28.0088 24.9068C25.897 24.9068 24.8125 25.9424 24.8125 28.0879L24.8125 66.8765C24.8125 69.0557 25.897 70.0913 28.0088 70.0913ZM29.877 63.9307L29.877 31.0674C29.877 30.3804 30.335 29.9712 30.9732 29.9712L63.8516 29.9712C64.5234 29.9712 64.9326 30.3804 64.9326 31.0674L64.9326 63.9307C64.9326 64.584 64.5234 65.0269 63.8516 65.0269L30.9732 65.0269C30.335 65.0269 29.877 64.584 29.877 63.9307Z" fill="#000000" fill-opacity="0.85"/>
 </g>
</svg>
