<?xml version="1.0" encoding="UTF-8"?>
<!--Generator: Apple Native CoreSVG 232.5-->
<!DOCTYPE svg
PUBLIC "-//W3C//DTD SVG 1.1//EN"
       "http://www.w3.org/Graphics/SVG/1.1/DTD/svg11.dtd">
<svg version="1.1" xmlns="http://www.w3.org/2000/svg" xmlns:xlink="http://www.w3.org/1999/xlink" width="143.441" height="101.432">
 <g>
  <rect height="101.432" opacity="0" width="143.441" x="0" y="0"/>
  <path d="M128.434 24.2534L128.434 55.9956C127.455 55.8333 126.433 55.7559 125.378 55.7559C124.354 55.7559 123.355 55.8308 122.389 55.9765L122.389 38.8018L21.0191 38.8018L21.0191 76.9727C21.0191 82.626 24.0108 85.5166 29.5142 85.5166L72.2739 85.5166L72.2739 91.5464L29.3828 91.5464C19.8774 91.5464 14.9741 86.7442 14.9741 77.3062L14.9741 24.2534C14.9741 14.8154 19.8774 9.9795 29.3828 9.9795L114.025 9.9795C123.598 9.9795 128.434 14.8457 128.434 24.2534ZM29.5142 16.0093C24.0108 16.0093 21.0191 18.9336 21.0191 24.5869L21.0191 27.8843L122.389 27.8843L122.389 24.5869C122.389 18.9336 119.321 16.0093 113.927 16.0093Z" fill="#000000" fill-opacity="0.85"/>
  <path d="M125.518 95.7749C132.558 95.7749 137.751 91.4981 137.751 85.625C137.751 80.9561 134.438 77.4673 129.934 77.0884L129.934 78.646C133.964 77.5044 136.384 74.4585 136.384 70.5186C136.384 65.2466 131.731 61.4126 125.378 61.4126C120.425 61.4126 116.335 63.7984 114.838 67.5816C114.489 68.4185 114.321 69.2774 114.321 70.0723C114.321 71.4785 115.25 72.4385 116.657 72.4385C117.928 72.4385 118.641 71.8003 118.959 70.5323C119.698 67.7881 122.03 66.0879 125.277 66.0879C128.931 66.0879 131.341 68.0323 131.341 70.8741C131.341 73.8286 128.83 75.8067 125.037 75.8067L122.353 75.8067C120.996 75.8067 120.066 76.77 120.066 78.0938C120.066 79.4175 120.996 80.3472 122.353 80.3472L125.07 80.3472C129.882 80.3472 132.574 82.2495 132.574 85.625C132.574 88.8169 129.705 91.0659 125.552 91.0659C121.804 91.0659 119.037 89.2866 118.361 86.5459C118.028 85.293 117.233 84.6699 116.01 84.6699C114.57 84.6699 113.588 85.6787 113.588 87.1035C113.588 87.9102 113.787 88.7539 114.154 89.4815C115.933 93.4263 120.113 95.7749 125.518 95.7749Z" fill="#000000" fill-opacity="0.85"/>
  <path d="M90.6406 95.4229L109.242 95.4229C110.603 95.4229 111.661 94.4444 111.661 93.0869C111.661 91.6773 110.603 90.6651 109.242 90.6651L96.0166 90.6651L96.0166 90.4663L103.321 83.0137C108.802 77.4947 110.39 74.7466 110.39 71.2173C110.39 65.6372 105.621 61.4126 99.2798 61.4126C94.3428 61.4126 90.1719 64.1641 88.707 68.2036C88.4175 69.0117 88.1919 69.8501 88.1919 70.7105C88.1919 72.1504 89.1704 73.1104 90.5278 73.1104C91.769 73.1104 92.5757 72.4385 92.8638 71.1114C92.9463 70.5996 93.0591 70.167 93.2358 69.7495C94.2881 67.4414 96.5171 66.0879 99.2798 66.0879C102.618 66.0879 105.313 68.4903 105.313 71.3858C105.313 73.6739 104.246 75.3389 99.793 79.8643L89.3203 90.5454C88.4243 91.3926 88.0908 92.1387 88.0908 93.0044C88.0908 94.4444 89.1484 95.4229 90.6406 95.4229Z" fill="#000000" fill-opacity="0.85"/>
  <path d="M80.4351 95.6807C81.9795 95.6807 82.9917 94.6836 82.9917 93.1426L82.9917 64.19C82.9917 62.6118 81.9121 61.5323 80.2817 61.5323C79.4194 61.5323 78.7744 61.7798 77.8867 62.3828L70.1353 67.2891C69.2207 67.855 68.7744 68.6162 68.7744 69.5274C68.7744 70.8023 69.7983 71.7134 71.0918 71.7134C71.6206 71.7134 72.0854 71.5635 72.584 71.2149L77.7319 68.0718L77.9644 68.0718L77.9644 93.1426C77.9644 94.6534 78.9917 95.6807 80.4351 95.6807Z" fill="#000000" fill-opacity="0.85"/>
 </g>
</svg>
