<?xml version="1.0" encoding="UTF-8"?>
<!--Generator: Apple Native CoreSVG 232.5-->
<!DOCTYPE svg
PUBLIC "-//W3C//DTD SVG 1.1//EN"
       "http://www.w3.org/Graphics/SVG/1.1/DTD/svg11.dtd">
<svg version="1.1" xmlns="http://www.w3.org/2000/svg" xmlns:xlink="http://www.w3.org/1999/xlink" width="113.459" height="81.6611">
 <g>
  <rect height="81.6611" opacity="0" width="113.459" x="0" y="0"/>
  <path d="M20.7583 65.7217L32.7212 65.7217C35.6021 65.7217 37.5215 63.7837 37.5215 61.0342L37.5215 51.9858C37.5215 49.2178 35.6021 47.2983 32.7212 47.2983L20.7583 47.2983C17.8926 47.2983 15.9732 49.2178 15.9732 51.9858L15.9732 61.0342C15.9732 63.7837 17.8926 65.7217 20.7583 65.7217ZM3.18311 28.9165L110.401 28.9165L110.401 17.999L3.18311 17.999ZM14.3936 81.6611L99.0508 81.6611C108.624 81.6611 113.459 76.8286 113.459 67.4209L113.459 14.3682C113.459 4.96045 108.624 0.0942379 99.0508 0.0942379L14.3936 0.0942379C4.86963 0.0942379 0 4.93018 0 14.3682L0 67.4209C0 76.8589 4.86963 81.6611 14.3936 81.6611ZM14.5064 75.6313C9.00294 75.6313 6.04494 72.7407 6.04494 67.0874L6.04494 14.7017C6.04494 9.04835 9.00294 6.12404 14.5064 6.12404L98.9531 6.12404C104.298 6.12404 107.415 9.04835 107.415 14.7017L107.415 67.0874C107.415 72.7407 104.298 75.6313 98.9531 75.6313Z" fill="#000000" fill-opacity="0.85"/>
 </g>
</svg>
