<?xml version="1.0" encoding="UTF-8"?>
<!--Generator: Apple Native CoreSVG 232.5-->
<!DOCTYPE svg
PUBLIC "-//W3C//DTD SVG 1.1//EN"
       "http://www.w3.org/Graphics/SVG/1.1/DTD/svg11.dtd">
<svg version="1.1" xmlns="http://www.w3.org/2000/svg" xmlns:xlink="http://www.w3.org/1999/xlink" width="113.459" height="81.6611">
 <g>
  <rect height="81.6611" opacity="0" width="113.459" x="0" y="0"/>
  <path d="M19.4712 67.0088C16.6055 67.0088 14.686 65.0708 14.686 62.3364L14.686 53.273C14.686 50.5049 16.6055 48.5855 19.4712 48.5855L31.4341 48.5855C34.3149 48.5855 36.2344 50.5049 36.2344 53.273L36.2344 62.3364C36.2344 65.0708 34.3149 67.0088 31.4341 67.0088ZM0 29.5088L0 18.5913L113.459 18.5913L113.459 29.5088ZM14.3936 81.6611L99.0508 81.6611C108.624 81.6611 113.459 76.8286 113.459 67.4209L113.459 14.3682C113.459 4.96045 108.624 0.0942379 99.0508 0.0942379L14.3936 0.0942379C4.86963 0.0942379 0 4.93018 0 14.3682L0 67.4209C0 76.8589 4.86963 81.6611 14.3936 81.6611Z" fill="#000000" fill-opacity="0.85"/>
 </g>
</svg>
