<?xml version="1.0" encoding="UTF-8"?>
<!--Generator: Apple Native CoreSVG 232.5-->
<!DOCTYPE svg
PUBLIC "-//W3C//DTD SVG 1.1//EN"
       "http://www.w3.org/Graphics/SVG/1.1/DTD/svg11.dtd">
<svg version="1.1" xmlns="http://www.w3.org/2000/svg" xmlns:xlink="http://www.w3.org/1999/xlink" width="97.9595" height="97.9932">
 <g>
  <rect height="97.9932" opacity="0" width="97.9595" x="0" y="0"/>
  <path d="M97.9595 48.9722C97.9595 75.7759 75.8247 97.9443 48.9722 97.9443C22.1685 97.9443 0 75.7759 0 48.9722C0 22.1348 22.1348 0 48.9385 0C75.791 0 97.9595 22.1348 97.9595 48.9722ZM20.7793 43.3403L20.7793 62.1475C20.7793 66.8775 23.231 69.2617 27.897 69.2617L70.0474 69.2617C74.7285 69.2617 77.1802 66.8472 77.1802 62.1475L77.1802 43.3403ZM38.8057 55.145L38.8057 59.6709C38.8057 61.0381 37.8442 61.981 36.4282 61.981L30.4526 61.981C29.0855 61.981 28.1089 61.0381 28.1089 59.6709L28.1089 55.145C28.1089 53.7778 29.0855 52.8501 30.4526 52.8501L36.4282 52.8501C37.8442 52.8501 38.8057 53.7778 38.8057 55.145ZM27.897 28.75C23.231 28.75 20.7793 31.1006 20.7793 35.8306L20.7793 37.8799L77.1802 37.8799L77.1802 35.8306C77.1802 31.1494 74.7285 28.75 70.0474 28.75Z" fill="#000000" fill-opacity="0.85"/>
 </g>
</svg>
