<?xml version="1.0" encoding="UTF-8"?>
<!--Generator: Apple Native CoreSVG 232.5-->
<!DOCTYPE svg
PUBLIC "-//W3C//DTD SVG 1.1//EN"
       "http://www.w3.org/Graphics/SVG/1.1/DTD/svg11.dtd">
<svg version="1.1" xmlns="http://www.w3.org/2000/svg" xmlns:xlink="http://www.w3.org/1999/xlink" width="97.9595" height="97.9932">
 <g>
  <rect height="97.9932" opacity="0" width="97.9595" x="0" y="0"/>
  <path d="M48.9722 97.9443C75.8247 97.9443 97.9595 75.7759 97.9595 48.9722C97.9595 22.1348 75.791 0 48.9385 0C22.1348 0 0 22.1348 0 48.9722C0 75.7759 22.1685 97.9443 48.9722 97.9443ZM48.9722 91.6113C25.3501 91.6113 6.36671 72.5942 6.36671 48.9722C6.36671 25.3501 25.3164 6.31789 48.9385 6.31789C72.5605 6.31789 91.6265 25.3501 91.6265 48.9722C91.6265 72.5942 72.5942 91.6113 48.9722 91.6113Z" fill="#000000" fill-opacity="0.85"/>
  <path d="M63.7954 27.7905L58.8906 32.5791C58.3315 33.2022 57.4341 33.2022 56.8262 32.5791C56.2368 31.9898 56.2705 31.1074 56.8262 30.4844L61.1719 26.1235C57.4863 24.1353 53.3159 22.9551 48.9385 22.9551C34.7715 22.9551 22.9365 34.8389 22.9365 49.021C22.9365 53.3682 24.0679 57.5352 26.0713 61.1567L30.4844 56.8447C31.0737 56.2554 31.9561 56.2554 32.5791 56.8447C33.1685 57.4341 33.2022 58.3501 32.5791 58.958L27.7231 63.814C28.2451 64.6323 28.8159 65.353 29.4878 66.0552L66.0552 29.5552C65.3345 28.917 64.5801 28.3276 63.7954 27.7905ZM54.9844 36.519L51.3745 40.0952C50.7852 40.6846 49.918 40.6846 49.3438 40.0952C48.7207 39.5396 48.7207 38.6387 49.3438 38.0156L52.8897 34.4395C53.479 33.8652 54.395 33.8652 54.9844 34.4395C55.5737 35.0288 55.5737 35.96 54.9844 36.519ZM47.5171 43.9863L43.9224 47.6148C43.3667 48.1704 42.3984 48.1704 41.8428 47.6148C41.2534 46.9917 41.2534 46.0757 41.8428 45.5166L45.4189 41.9404C45.978 41.3174 46.9277 41.3174 47.5171 41.9404C48.0728 42.4961 48.0728 43.4458 47.5171 43.9863ZM40.0464 51.4233L36.5005 55.0029C35.9448 55.626 34.9951 55.5923 34.4058 55.0029C33.8315 54.4775 33.8315 53.5127 34.4058 52.9385L37.9668 49.3774C38.5898 48.7544 39.4722 48.7544 40.0464 49.3774C40.6357 49.9517 40.6021 50.834 40.0464 51.4233ZM71.8057 36.8364L67.4937 41.0996C66.8858 41.689 65.9883 41.689 65.3989 41.0996C64.7759 40.4766 64.7759 39.5606 65.3989 38.9863L70.1875 34.1826C69.6318 33.398 69.0762 32.6436 68.3892 31.9229L31.8892 68.4566C32.5576 69.0947 33.312 69.6655 34.0816 70.2212L39.0537 65.3316C39.6279 64.7422 40.544 64.7422 41.1333 65.3316C41.7227 65.9546 41.7227 66.8369 41.1333 67.4263L36.7539 71.8731C40.4243 73.8916 44.5762 75.0718 48.9385 75.0718C63.1206 75.0718 74.9893 63.1729 74.9893 49.021C74.9893 44.6587 73.8091 40.458 71.8057 36.8364ZM63.5386 45.0361L59.9624 48.582C59.3394 49.2051 58.4722 49.2051 57.8828 48.582C57.2935 47.9927 57.3272 47.1255 57.8828 46.5361L61.459 42.8926C61.9995 42.3184 62.9492 42.3369 63.5386 42.8926C64.1279 43.4819 64.1279 44.4468 63.5386 45.0361ZM56.0376 52.4732L52.4614 56.0679C51.9024 56.6572 50.9863 56.6572 50.3633 56.0679C49.8076 55.5122 49.8076 54.5591 50.3633 54.0034L53.9917 50.3936C54.5322 49.8379 55.4819 49.8379 56.0376 50.3936C56.6607 50.9829 56.6607 51.9326 56.0376 52.4732ZM48.6006 59.9439L45.0547 63.52C44.4653 64.0791 43.5005 64.0791 43.0088 63.52C42.3858 62.9307 42.3858 61.9995 43.0088 61.4253L46.5547 57.8643C47.1441 57.2749 48.0264 57.2749 48.6006 57.8643C49.19 58.4048 49.19 59.3208 48.6006 59.9439Z" fill="#000000" fill-opacity="0.85"/>
 </g>
</svg>
