<?xml version="1.0" encoding="UTF-8"?>
<!--Generator: Apple Native CoreSVG 232.5-->
<!DOCTYPE svg
PUBLIC "-//W3C//DTD SVG 1.1//EN"
       "http://www.w3.org/Graphics/SVG/1.1/DTD/svg11.dtd">
<svg version="1.1" xmlns="http://www.w3.org/2000/svg" xmlns:xlink="http://www.w3.org/1999/xlink" width="104.704" height="107.369">
 <g>
  <rect height="107.369" opacity="0" width="104.704" x="0" y="0"/>
  <path d="M104.704 80.5537C104.704 78.7735 103.493 77.6753 101.706 77.6753L31.2651 77.6753C30.3726 77.6753 30.0156 77.3184 30.0156 76.4258L30.0156 6.167C30.0156 4.34619 28.8316 3.01904 26.999 3.01904C25.2002 3.01904 23.9707 4.34619 23.9707 6.167L23.9707 80.1011C23.9707 82.1118 25.2573 83.3833 27.2681 83.3833L101.706 83.3833C103.493 83.3833 104.704 82.2852 104.704 80.5537ZM0 29.8345C0 31.6333 1.21094 32.7129 2.96436 32.7129L73.4385 32.7129C74.3462 32.7129 74.688 33.1035 74.688 33.9624L74.688 104.206C74.688 106.042 75.8721 107.369 77.6709 107.369C79.5034 107.369 80.7329 106.042 80.7329 104.206L80.7329 30.3208C80.7329 28.3101 79.4614 26.9897 77.4507 26.9897L2.96436 26.9897C1.21094 26.9897 0 28.103 0 29.8345Z" fill="#000000" fill-opacity="0.85"/>
 </g>
</svg>
