<?xml version="1.0" encoding="UTF-8"?>
<!--Generator: Apple Native CoreSVG 232.5-->
<!DOCTYPE svg
PUBLIC "-//W3C//DTD SVG 1.1//EN"
       "http://www.w3.org/Graphics/SVG/1.1/DTD/svg11.dtd">
<svg version="1.1" xmlns="http://www.w3.org/2000/svg" xmlns:xlink="http://www.w3.org/1999/xlink" width="93.9673" height="114.965">
 <g>
  <rect height="114.965" opacity="0" width="93.9673" x="0" y="0"/>
  <path d="M88.4795 36.5961C89.6719 36.5961 90.7144 35.5351 90.7144 34.2939L90.7144 28.5941C90.7144 16.5131 82.6206 8.67666 70.1611 8.67666L69.3731 8.67666L69.3731 2.64248C69.3731-0.0386758 67.189-0.725688 65.1108 0.793357L54.0689 8.6752C52.353 9.93643 52.3193 11.3593 54.0689 12.6542L65.1108 20.5023C67.189 22.0214 69.3731 21.3158 69.3731 18.7206L69.3731 12.9106L70.1275 12.9106C79.8872 12.9106 86.1924 19.1083 86.1924 28.6244L86.1924 34.2939C86.1924 35.5351 87.2534 36.5961 88.4795 36.5961ZM5.67481 78.3197C4.49756 78.3197 3.43994 79.3808 3.43994 80.6069L3.43994 86.3217C3.43994 98.4028 11.5337 106.239 23.9932 106.239L24.7813 106.239L24.7813 112.273C24.7813 114.955 26.9653 115.593 29.0435 114.089L40.0855 106.241C41.8013 104.979 41.835 103.523 40.0855 102.262L29.0435 94.3984C26.9653 92.8945 24.7813 93.6 24.7813 96.1615L24.7813 102.005L24.0269 102.005C14.2671 102.005 7.96192 95.8075 7.96192 86.2426L7.96192 80.6069C7.96192 79.3808 6.90089 78.3197 5.67481 78.3197Z" fill="#000000" fill-opacity="0.85"/>
  <path d="M93.9673 76.4467C93.9673 74.7152 92.7227 73.5985 90.9878 73.5985L32.0757 73.5985C31.2017 73.5985 30.8262 73.2416 30.8262 72.349L30.8262 13.8193C30.8262 11.9833 29.6421 10.6562 27.8433 10.6562C26.0107 10.6562 24.7813 11.9833 24.7813 13.8193L24.7813 76.0243C24.7813 78.0351 26.0527 79.3217 28.1123 79.3217L90.9878 79.3217C92.7227 79.3217 93.9673 78.1596 93.9673 76.4467ZM0 38.267C0 39.9648 1.24463 41.0815 2.93067 41.0815L62.0786 41.0815C62.9526 41.0815 63.3281 41.4721 63.3281 42.3461L63.3281 101.097C63.3281 102.917 64.5122 104.245 66.311 104.245C68.1587 104.245 69.3731 102.917 69.3731 101.097L69.3731 38.6894C69.3731 36.6786 68.0679 35.3734 66.0571 35.3734L2.93067 35.3734C1.24463 35.3734 0 36.5541 0 38.267Z" fill="#000000" fill-opacity="0.85"/>
 </g>
</svg>
