<?xml version="1.0" encoding="UTF-8"?>
<!--Generator: Apple Native CoreSVG 232.5-->
<!DOCTYPE svg
PUBLIC "-//W3C//DTD SVG 1.1//EN"
       "http://www.w3.org/Graphics/SVG/1.1/DTD/svg11.dtd">
<svg version="1.1" xmlns="http://www.w3.org/2000/svg" xmlns:xlink="http://www.w3.org/1999/xlink" width="110.721" height="93.1035">
 <g>
  <rect height="93.1035" opacity="0" width="110.721" x="0" y="0"/>
  <path d="M79.3579 11.9175L79.3579 17.3643L96.814 17.3643C106.119 17.3643 110.721 21.8687 110.721 31.1216L110.721 79.2974C110.721 88.5654 106.119 93.0547 96.814 93.0547L13.9072 93.0547C4.63575 93.0547 0 88.5654 0 79.2974L0 31.1216C0 21.8687 4.63575 17.3643 13.9072 17.3643L31.3296 17.3643L31.3296 11.9175C31.3296 3.96387 36.0767 0 43.6392 0L67.0181 0C74.9326 0 79.3579 3.96387 79.3579 11.9175ZM51.2251 32.853C48.7129 32.853 47.0493 34.5317 47.0493 37.0776L47.0493 46.7778L37.2817 46.7778C34.7695 46.7778 33.106 48.4751 33.106 50.9536L33.106 59.292C33.106 61.7857 34.8032 63.4829 37.2817 63.4829L47.0493 63.4829L47.0493 73.2168C47.0493 75.729 48.7129 77.3926 51.2251 77.3926L59.5449 77.3926C62.0234 77.3926 63.7207 75.729 63.7207 73.2168L63.7207 63.4829L73.4546 63.4829C75.9668 63.4829 77.6641 61.7857 77.6641 59.292L77.6641 50.9536C77.6641 48.4751 75.9668 46.7778 73.4546 46.7778L63.7207 46.7778L63.7207 37.0776C63.7207 34.5317 62.0234 32.853 59.5449 32.853ZM43.5415 5.5547C39.521 5.5547 37.1724 7.74513 37.1724 11.562L37.1724 17.3643L73.5 17.3643L73.5 11.562C73.5 7.74513 71.2002 5.5547 67.1646 5.5547Z" fill="#000000" fill-opacity="0.85"/>
 </g>
</svg>
