<?xml version="1.0" encoding="UTF-8"?>
<!--Generator: Apple Native CoreSVG 232.5-->
<!DOCTYPE svg
PUBLIC "-//W3C//DTD SVG 1.1//EN"
       "http://www.w3.org/Graphics/SVG/1.1/DTD/svg11.dtd">
<svg version="1.1" xmlns="http://www.w3.org/2000/svg" xmlns:xlink="http://www.w3.org/1999/xlink" width="110.721" height="93.1035">
 <g>
  <rect height="93.1035" opacity="0" width="110.721" x="0" y="0"/>
  <path d="M13.9072 93.0547L96.814 93.0547C106.119 93.0547 110.721 88.5654 110.721 79.2974L110.721 31.1216C110.721 21.8687 106.119 17.3643 96.814 17.3643L13.9072 17.3643C4.63575 17.3643 0 21.8687 0 31.1216L0 79.2974C0 88.5654 4.63575 93.0547 13.9072 93.0547ZM13.9595 87.0889C8.64455 87.0889 6.04494 84.5264 6.04494 79.043L6.04494 31.376C6.04494 25.9263 8.64455 23.3301 13.9595 23.3301L96.7466 23.3301C102.077 23.3301 104.676 25.9263 104.676 31.376L104.676 79.043C104.676 84.5264 102.077 87.0889 96.7466 87.0889ZM31.3296 20.7192L37.1724 20.7192L37.1724 11.562C37.1724 7.74513 39.521 5.5547 43.5415 5.5547L67.1646 5.5547C71.2002 5.5547 73.5 7.74513 73.5 11.562L73.5 20.667L79.3579 20.667L79.3579 11.9175C79.3579 3.96387 74.9326 0 67.0181 0L43.6392 0C36.0767 0 31.3296 3.96387 31.3296 11.9175Z" fill="#000000" fill-opacity="0.85"/>
  <path d="M32.563 59.3794C32.563 61.915 34.2871 63.6392 36.8228 63.6392L46.8594 63.6392L46.8594 73.6421C46.8594 76.23 48.5498 77.9356 51.1191 77.9356L59.6323 77.9356C62.2017 77.9356 63.8921 76.23 63.8921 73.6421L63.8921 63.6392L73.9287 63.6392C76.4981 63.6392 78.2222 61.915 78.2222 59.3794L78.2222 50.8662C78.2222 48.2969 76.4981 46.5728 73.9287 46.5728L63.8921 46.5728L63.8921 36.6035C63.8921 34.0005 62.2017 32.3101 59.6323 32.3101L51.1191 32.3101C48.5498 32.3101 46.8594 34.0005 46.8594 36.6035L46.8594 46.5728L36.8228 46.5728C34.2534 46.5728 32.563 48.2969 32.563 50.8662Z" fill="#000000" fill-opacity="0.85"/>
 </g>
</svg>
