<?xml version="1.0" encoding="UTF-8"?>
<!--Generator: Apple Native CoreSVG 232.5-->
<!DOCTYPE svg
PUBLIC "-//W3C//DTD SVG 1.1//EN"
       "http://www.w3.org/Graphics/SVG/1.1/DTD/svg11.dtd">
<svg version="1.1" xmlns="http://www.w3.org/2000/svg" xmlns:xlink="http://www.w3.org/1999/xlink" width="103.135" height="103.267">
 <g>
  <rect height="103.267" opacity="0" width="103.135" x="0" y="0"/>
  <path d="M0 59.8218C0 67.8057 4.23145 72.0557 12.1143 72.0557L31.0981 72.0557L31.0981 91.0396C31.0981 98.9375 35.3633 103.154 43.3472 103.154L59.8032 103.154C67.7871 103.154 72.0523 98.9375 72.0523 91.0396L72.0523 72.0557L91.0059 72.0557C98.9038 72.0557 103.135 67.8057 103.135 59.8218L103.135 43.3506C103.135 35.3667 98.9038 31.1167 91.0059 31.1167L72.0523 31.1167L72.0523 12.1143C72.0523 4.23145 67.7871 0 59.8032 0L43.3472 0C35.3633 0 31.0981 4.23145 31.0981 12.1143L31.0981 31.1167L12.1143 31.1167C4.23145 31.1167 0 35.3667 0 43.3506ZM6.04494 59.6753L6.04494 43.4971C6.04494 39.4512 8.36818 37.1465 12.4478 37.1465L37.1431 37.1465L37.1431 12.4478C37.1431 8.36818 39.4326 6.04494 43.4785 6.04494L59.6719 6.04494C63.7178 6.04494 66.0073 8.36818 66.0073 12.4478L66.0073 37.1465L90.6724 37.1465C94.7671 37.1465 97.0903 39.4512 97.0903 43.4971L97.0903 59.6753C97.0903 63.7212 94.7671 66.0259 90.6724 66.0259L66.0073 66.0259L66.0073 90.7397C66.0073 94.8193 63.7178 97.124 59.6719 97.124L43.4785 97.124C39.4326 97.124 37.1431 94.8193 37.1431 90.7397L37.1431 66.0259L12.4478 66.0259C8.36818 66.0259 6.04494 63.7212 6.04494 59.6753Z" fill="#000000" fill-opacity="0.85"/>
 </g>
</svg>
