<?xml version="1.0" encoding="UTF-8"?>
<!--Generator: Apple Native CoreSVG 232.5-->
<!DOCTYPE svg
PUBLIC "-//W3C//DTD SVG 1.1//EN"
       "http://www.w3.org/Graphics/SVG/1.1/DTD/svg11.dtd">
<svg version="1.1" xmlns="http://www.w3.org/2000/svg" xmlns:xlink="http://www.w3.org/1999/xlink" width="97.9595" height="97.9932">
 <g>
  <rect height="97.9932" opacity="0" width="97.9595" x="0" y="0"/>
  <path d="M48.9722 97.9443C75.8247 97.9443 97.9595 75.7759 97.9595 48.9722C97.9595 22.1348 75.791 0 48.9385 0C22.1348 0 0 22.1348 0 48.9722C0 75.7759 22.1685 97.9443 48.9722 97.9443ZM48.9722 91.6113C25.3501 91.6113 6.36671 72.5942 6.36671 48.9722C6.36671 25.3501 25.3164 6.31789 48.9385 6.31789C72.5605 6.31789 91.6265 25.3501 91.6265 48.9722C91.6265 72.5942 72.5942 91.6113 48.9722 91.6113Z" fill="#000000" fill-opacity="0.85"/>
  <path d="M30.1621 48.9756C30.1621 62.9292 37.5391 71.5654 49.0596 71.5654C57.46 71.5654 63.4307 67.208 65.374 60.7139C65.6216 60.0874 65.7378 59.397 65.7866 58.688C65.8018 57.2632 64.8081 56.3032 63.3496 56.3032C62.0376 56.3032 61.2461 57.0308 60.8755 58.3882C59.8364 63.1626 55.6763 66.5044 50.1543 66.8833L50.1543 59.5156C50.1543 54.4649 52.9898 50.8301 57.3369 50.8301C58.813 50.8301 59.436 51.2222 60.1885 51.2222C61.3018 51.2222 62.0815 50.5098 62.0815 49.4673C62.0815 47.9063 60.1841 46.7949 57.5322 46.7949C54.5269 46.7949 51.7251 48.2783 50.1055 51.1289L50.1055 48.9722C50.1055 47.667 49.2617 46.8604 48.1064 46.8604C46.9326 46.8604 46.1226 47.7344 46.1226 48.9722L46.1226 66.5498C39.353 65.1133 35.3276 58.5083 35.3276 48.9116C35.3276 38.1343 40.564 31.2041 49.041 31.2041C54.8628 31.2041 59.3833 34.9902 60.6548 40.0459C61.0405 41.3022 61.7495 42.1309 63.144 42.1309C64.6362 42.1309 65.502 41.2012 65.502 39.7124C65.502 38.8975 65.3858 38.0488 65.1382 37.2827C63.21 31.0225 56.6602 26.522 49.0596 26.522C37.5088 26.522 30.1621 35.229 30.1621 48.9756Z" fill="#000000" fill-opacity="0.85"/>
 </g>
</svg>
