<?xml version="1.0" encoding="UTF-8"?>
<!--Generator: Apple Native CoreSVG 232.5-->
<!DOCTYPE svg
PUBLIC "-//W3C//DTD SVG 1.1//EN"
       "http://www.w3.org/Graphics/SVG/1.1/DTD/svg11.dtd">
<svg version="1.1" xmlns="http://www.w3.org/2000/svg" xmlns:xlink="http://www.w3.org/1999/xlink" width="88.4092" height="88.5371">
 <g>
  <rect height="88.5371" opacity="0" width="88.4092" x="0" y="0"/>
  <path d="M88.4092 14.4019L88.4092 74.2632C88.4092 83.6558 83.5733 88.5371 74.0005 88.5371L14.3936 88.5371C4.86963 88.5371 0 83.7349 0 74.2632L0 14.4019C0 4.93018 4.86963 0.127929 14.3936 0.127929L74.0005 0.127929C83.5733 0.127929 88.4092 5.00928 88.4092 14.4019ZM25.0298 44.2476C25.0298 58.523 32.5601 67.3613 44.3838 67.3613C52.9375 67.3613 59.0093 62.9028 61.0537 56.2891C61.2525 55.6138 61.3687 54.9385 61.4175 54.1807C61.4478 52.7373 60.4541 51.7437 58.9131 51.7437C57.5825 51.7437 56.7573 52.4712 56.3867 53.8809C55.3477 58.7227 51.1201 62.1318 45.4785 62.5107L45.4785 55.0234C45.4785 49.8565 48.3662 46.1694 52.7808 46.1694C54.2905 46.1694 54.9136 46.5615 55.6509 46.5615C56.813 46.5615 57.6265 45.8154 57.6265 44.7393C57.6265 43.1445 55.6953 41.9995 52.9761 41.9995C49.9033 41.9995 47.0679 43.5166 45.4297 46.4346L45.4297 44.2441C45.4297 42.9053 44.5708 42.0649 43.3481 42.0649C42.1558 42.0649 41.312 42.9727 41.312 44.2441L41.312 62.1772C34.4565 60.6733 30.3638 53.9673 30.3638 44.1836C30.3638 33.1856 35.686 26.1206 44.3501 26.1206C50.2393 26.1206 54.8271 29.9741 56.166 35.0972C56.5518 36.3721 57.2793 37.2344 58.7075 37.2344C60.2485 37.2344 61.148 36.2861 61.148 34.7637C61.148 33.8999 61.0317 33.0664 60.7691 32.2666C58.7734 25.8867 52.104 21.27 44.3838 21.27C32.5449 21.27 25.0298 30.2129 25.0298 44.2476Z" fill="#000000" fill-opacity="0.85"/>
 </g>
</svg>
