<?xml version="1.0" encoding="UTF-8"?>
<!--Generator: Apple Native CoreSVG 232.5-->
<!DOCTYPE svg
PUBLIC "-//W3C//DTD SVG 1.1//EN"
       "http://www.w3.org/Graphics/SVG/1.1/DTD/svg11.dtd">
<svg version="1.1" xmlns="http://www.w3.org/2000/svg" xmlns:xlink="http://www.w3.org/1999/xlink" width="68.5878" height="87.8027">
 <g>
  <rect height="87.8027" opacity="0" width="68.5878" x="0" y="0"/>
  <path d="M36.5341 87.8027C52.3412 87.8027 63.7773 79.7075 67.7411 67.6387C68.2177 66.1587 68.4921 64.6939 68.5864 63.1953C68.6352 61.292 67.3954 59.8823 65.3491 59.8823C63.4306 59.8823 62.4487 60.9805 61.8608 62.9292C59.5048 73.9746 49.5951 81.3769 36.5678 81.3769C18.6122 81.3769 7.33344 66.7646 7.33344 43.564C7.33344 20.8413 18.5703 6.59084 36.5341 6.59084C49.078 6.59084 58.9911 14.7471 61.4379 25.668C62.0444 27.8188 63.0077 28.73 64.9262 28.73C66.9423 28.73 68.2123 27.3355 68.1484 25.3228C68.039 23.9336 67.8251 22.6724 67.4125 21.4111C63.1659 8.46728 51.0766 0.149903 36.5341 0.149903C14.1454 0.149903 0.00139098 16.9707 0.00139098 43.564C0.00139098 70.605 14.1537 87.8027 36.5341 87.8027ZM32.1537 84.9209L37.2333 84.9209L37.2333 65.1182C37.2333 53.9663 44.0151 46.0874 53.7231 46.0874C55.9819 46.0874 57.4516 46.5957 58.4213 46.8145C61.6718 47.0635 62.2509 43.0112 59.2968 41.7583C57.6318 40.9688 55.5815 40.6641 53.5546 40.6641C45.4125 40.6641 39.4623 45.4272 37.1728 52.9692L37.0868 52.9692L37.0868 43.6987C37.0868 42.0264 36.0898 40.9805 34.6313 40.9805C33.1508 40.9805 32.1537 42.0264 32.1537 43.6987Z" fill="#000000" fill-opacity="0.85"/>
 </g>
</svg>
