<?xml version="1.0" encoding="UTF-8"?>
<!--Generator: Apple Native CoreSVG 232.5-->
<!DOCTYPE svg
PUBLIC "-//W3C//DTD SVG 1.1//EN"
       "http://www.w3.org/Graphics/SVG/1.1/DTD/svg11.dtd">
<svg version="1.1" xmlns="http://www.w3.org/2000/svg" xmlns:xlink="http://www.w3.org/1999/xlink" width="97.9595" height="97.9932">
 <g>
  <rect height="97.9932" opacity="0" width="97.9595" x="0" y="0"/>
  <path d="M97.9595 48.9722C97.9595 75.7759 75.8247 97.9443 48.9722 97.9443C22.1685 97.9443 0 75.7759 0 48.9722C0 22.1348 22.1348 0 48.9385 0C75.791 0 97.9595 22.1348 97.9595 48.9722ZM29.7729 48.9756C29.7729 63.251 37.3184 72.0894 49.0933 72.0894C57.6621 72.0894 63.7525 67.6309 65.7632 61.0171C65.9956 60.3418 66.1118 59.6665 66.1758 58.9087C66.1909 57.4653 65.1973 56.4717 63.6714 56.4717C62.3257 56.4717 61.5156 57.1992 61.1299 58.6089C60.0571 63.4507 55.8447 66.8599 50.2217 67.2388L50.2217 59.7515C50.2217 54.5845 53.1245 50.8975 57.5391 50.8975C59.0337 50.8975 59.6567 51.2896 60.4092 51.2896C61.5713 51.2896 62.3696 50.5435 62.3696 49.4673C62.3696 47.8726 60.4385 46.7275 57.7344 46.7275C54.6465 46.7275 51.811 48.2446 50.1729 51.1626L50.1729 48.9722C50.1729 47.6333 49.2954 46.793 48.1064 46.793C46.8989 46.793 46.0552 47.7007 46.0552 48.9722L46.0552 66.9053C39.1997 65.4014 35.1069 58.6953 35.1069 48.9116C35.1069 37.9136 40.4443 30.8486 49.0596 30.8486C54.9824 30.8486 59.5703 34.7022 60.9092 39.8252C61.3101 41.1001 62.0376 41.9624 63.4658 41.9624C64.9917 41.9624 65.8911 41.0142 65.8911 39.4917C65.8911 38.6279 65.7749 37.7944 65.5122 36.9946C63.5317 30.6147 56.8472 25.998 49.0933 25.998C37.2881 25.998 29.7729 34.9409 29.7729 48.9756Z" fill="#000000" fill-opacity="0.85"/>
 </g>
</svg>
