<?xml version="1.0" encoding="UTF-8"?>
<!--Generator: Apple Native CoreSVG 232.5-->
<!DOCTYPE svg
PUBLIC "-//W3C//DTD SVG 1.1//EN"
       "http://www.w3.org/Graphics/SVG/1.1/DTD/svg11.dtd">
<svg version="1.1" xmlns="http://www.w3.org/2000/svg" xmlns:xlink="http://www.w3.org/1999/xlink" width="122.693" height="91.3985">
 <g>
  <rect height="91.3985" opacity="0" width="122.693" x="0" y="0"/>
  <path d="M59.6279 69.4932L63.3565 69.4932C88.1338 69.4932 103.696 53.1289 103.696 28.3941L103.696 18.8149C103.696 7.875 86.5098 0.131348 61.5073 0.131348C36.4898 0.131348 19.3037 7.875 19.3037 18.8149L19.3037 28.3941C19.3037 52.5527 34.8169 69.4932 59.6279 69.4932ZM61.5073 31.6221C40.4917 31.6221 25.1802 26.0225 25.1802 18.8149C25.1802 11.6411 40.4917 6.02296 61.5073 6.02296C82.5415 6.02296 97.853 11.6411 97.853 18.8149C97.853 26.0225 82.5415 31.6221 61.5073 31.6221ZM98.8462 47.8355L102.764 47.8355C112.79 47.8355 119 42.3496 119 33.5127C119 24.7246 112.756 19.2051 102.764 19.2051L100.502 19.2051L100.502 25.0327L102.764 25.0327C109.192 25.0327 113.139 28.2735 113.139 33.5127C113.139 38.7183 109.192 42.0078 102.764 42.0078L98.8462 42.0078ZM61.3389 91.3985C97.1011 91.3985 122.693 81.3057 122.693 66.8364C122.693 60.8945 118.247 55.6245 110.376 51.5161C108.052 52.3584 105.677 52.815 102.862 52.8823C95.4468 66.5742 81.3892 74.5401 63.3565 74.5401L59.6279 74.5401C39.9834 74.5401 24.9453 64.6372 18.1597 48.7437C6.59717 53.1519 0 59.4898 0 66.8364C0 81.3057 25.6255 91.3985 61.3389 91.3985Z" fill="#000000" fill-opacity="0.85"/>
 </g>
</svg>
