<?xml version="1.0" encoding="UTF-8"?>
<!--Generator: Apple Native CoreSVG 232.5-->
<!DOCTYPE svg
PUBLIC "-//W3C//DTD SVG 1.1//EN"
       "http://www.w3.org/Graphics/SVG/1.1/DTD/svg11.dtd">
<svg version="1.1" xmlns="http://www.w3.org/2000/svg" xmlns:xlink="http://www.w3.org/1999/xlink" width="88.4092" height="88.5371">
 <g>
  <rect height="88.5371" opacity="0" width="88.4092" x="0" y="0"/>
  <path d="M14.3936 88.5371L74.0005 88.5371C83.5733 88.5371 88.4092 83.6558 88.4092 74.2632L88.4092 14.4019C88.4092 5.00928 83.5733 0.127929 74.0005 0.127929L14.3936 0.127929C4.86963 0.127929 0 4.93018 0 14.4019L0 74.2632C0 83.7349 4.86963 88.5371 14.3936 88.5371ZM14.5064 82.4922C9.00294 82.4922 6.04494 79.6016 6.04494 73.9634L6.04494 14.7017C6.04494 9.06349 9.00294 6.17287 14.5064 6.17287L73.9028 6.17287C79.2969 6.17287 82.3643 9.06349 82.3643 14.7017L82.3643 73.9634C82.3643 79.6016 79.2969 82.4922 73.9028 82.4922Z" fill="#000000" fill-opacity="0.85"/>
  <path d="M34.6821 70.6924C36.855 70.6924 38.103 69.5977 38.103 68.0498C38.103 66.5205 36.9746 65.4932 35.4605 65.4932C32.0645 65.4932 30.4048 63.9712 30.4048 59.4492L30.4048 52.1089C30.4048 47.7026 27.7647 44.4834 23.5786 43.9258L23.5786 44.5811C27.7647 44.0723 30.4048 40.853 30.4048 36.4316L30.4048 29.125C30.4048 24.6182 32.0645 23.0474 35.4605 23.0474C36.9746 23.0474 38.103 22.0537 38.103 20.5396C38.103 18.9766 36.855 17.8481 34.6821 17.8481C28.5293 17.8481 24.8501 21.3726 24.8501 28.4414L24.8501 35.3774C24.8501 39.1958 23.8384 40.2227 20.9243 40.9937C17.6855 41.856 17.7344 46.6997 20.9243 47.5469C23.8384 48.3818 24.8501 49.3784 24.8501 53.1968L24.8501 60.1328C24.8501 67.2017 28.5293 70.6924 34.6821 70.6924ZM53.7827 70.6924C59.9019 70.6924 63.6148 67.2017 63.6148 60.1328L63.6148 53.1968C63.6148 49.3784 64.6265 48.3516 67.5068 47.5469C70.7305 46.7485 70.7456 41.8374 67.5068 40.9937C64.6567 40.1772 63.6148 39.1958 63.6148 35.3774L63.6148 28.4414C63.6148 21.3726 59.9019 17.8481 53.7827 17.8481C51.6099 17.8481 50.3281 18.9766 50.3281 20.5396C50.3281 22.0537 51.4902 23.0474 53.0044 23.0474C56.3818 23.0474 58.0601 24.6182 58.0601 29.125L58.0601 36.4316C58.0601 40.853 60.7002 44.0723 64.8525 44.5811L64.8525 43.9258C60.7002 44.4834 58.0601 47.7026 58.0601 52.1089L58.0601 59.4492C58.0601 63.9712 56.3818 65.4932 53.0044 65.4932C51.4902 65.4932 50.3281 66.5205 50.3281 68.0498C50.3281 69.5977 51.6099 70.6924 53.7827 70.6924Z" fill="#000000" fill-opacity="0.85"/>
 </g>
</svg>
