<?xml version="1.0" encoding="UTF-8"?>
<!--Generator: Apple Native CoreSVG 232.5-->
<!DOCTYPE svg
PUBLIC "-//W3C//DTD SVG 1.1//EN"
       "http://www.w3.org/Graphics/SVG/1.1/DTD/svg11.dtd">
<svg version="1.1" xmlns="http://www.w3.org/2000/svg" xmlns:xlink="http://www.w3.org/1999/xlink" width="88.1934" height="101.261">
 <g>
  <rect height="101.261" opacity="0" width="88.1934" x="0" y="0"/>
  <path d="M0 50.606C0 52.8174 1.24805 54.5317 4.23878 54.978C10.6567 55.8452 13.4883 58.9819 13.4883 67.2822L13.4883 82.2593C13.4883 95.2681 18.9224 101.261 31.561 101.261C32.1455 101.261 32.7334 101.16 33.1831 101.04C34.4395 100.617 35.1485 99.6538 35.1485 98.3452C35.1485 96.8345 34.4395 96.0395 33.0484 95.7514C32.666 95.6841 32.2988 95.6167 31.8491 95.583C23.3433 95.1938 19.9561 91.3301 19.9561 81.6611L19.9561 64.2241C19.9561 55.8511 15.1714 51.2764 7.61476 50.8013C7.43801 50.8013 7.43801 50.5454 7.61476 50.5454C15.1714 50.0552 19.9561 45.4805 19.9561 37.1074L19.9561 19.6367C19.9561 9.93409 23.3433 6.13771 31.8491 5.74855C32.4336 5.71486 32.9204 5.64747 33.3179 5.52785C34.5069 5.20607 35.1485 4.34376 35.1485 2.96778C35.1485 1.57667 34.4058 0.662112 33.0484 0.272951C32.5127 0.104493 31.9434 0.0522465 31.2393 0.0522465C18.8887 0.0522465 13.4883 6.09717 13.4883 19.0386L13.4883 34.0644C13.4883 42.2974 10.6567 45.4678 4.23878 46.335C1.24805 46.7661 0 48.4282 0 50.606ZM88.1934 50.606C88.1934 48.4282 86.9116 46.7661 83.9209 46.335C77.5366 45.4375 74.6714 42.2974 74.6714 34.0644L74.6714 19.0386C74.6714 6.09717 69.271 0.0522465 56.9204 0.0522465C56.2163 0.0522465 55.6807 0.104493 55.145 0.272951C53.7202 0.662112 53.0112 1.57667 53.0112 2.96778C53.0112 4.34376 53.7202 5.17237 54.8755 5.52785C55.273 5.64747 55.7261 5.71486 56.3106 5.74855C64.7827 6.00294 68.2373 9.93409 68.2373 19.6367L68.2373 37.1074C68.2373 45.5142 73.022 50.5454 80.5449 50.5454C80.7217 50.5454 80.7217 50.8013 80.5449 50.8013C73.022 50.8013 68.2373 55.8174 68.2373 64.2241L68.2373 81.6611C68.2373 91.3301 64.8164 95.1938 56.3106 95.583C55.8609 95.6167 55.5274 95.6841 55.145 95.7514C53.7539 95.9722 53.0112 96.8345 53.0112 98.3452C53.0112 99.7212 53.7876 100.718 55.0103 101.04C55.46 101.16 56.0142 101.261 56.5986 101.261C69.2373 101.261 74.6714 95.2681 74.6714 82.2593L74.6714 67.2822C74.6714 58.9819 77.5366 55.8604 83.9209 54.978C86.9116 54.5317 88.1934 52.8174 88.1934 50.606Z" fill="#000000" fill-opacity="0.85"/>
 </g>
</svg>
