<?xml version="1.0" encoding="UTF-8"?>
<!--Generator: Apple Native CoreSVG 232.5-->
<!DOCTYPE svg
PUBLIC "-//W3C//DTD SVG 1.1//EN"
       "http://www.w3.org/Graphics/SVG/1.1/DTD/svg11.dtd">
<svg version="1.1" xmlns="http://www.w3.org/2000/svg" xmlns:xlink="http://www.w3.org/1999/xlink" width="117.995" height="104.053">
 <g>
  <rect height="104.053" opacity="0" width="117.995" x="0" y="0"/>
  <path d="M12.2241 4.20117L16.5073 4.20117L16.5073 10.2461L12.2241 10.2461C11.2271 12.3526 9.01271 13.7871 6.52393 13.7871C2.9336 13.7871 0 10.8535 0 7.21436C0 3.62403 2.9336 0.660157 6.52393 0.660157C9.01271 0.660157 11.2271 2.15869 12.2241 4.20117ZM117.995 7.21436C117.995 10.8535 115.061 13.7871 111.456 13.7871C108.982 13.7871 106.768 12.3526 105.771 10.2461L101.487 10.2461L101.487 4.20117L105.771 4.20117C106.768 2.15869 108.982 0.660157 111.456 0.660157C115.061 0.660157 117.995 3.62403 117.995 7.21436ZM86.9658 10.2461L31.0288 10.2461L31.0288 4.20117L86.9658 4.20117Z" fill="#000000" fill-opacity="0.85"/>
  <path d="M19.5957 101.583L27.9556 101.583C29.7456 101.583 31.0288 100.27 31.0288 98.3853L31.0288 3.21631C31.0288 1.33203 29.7456 0 27.9556 0L19.5957 0C17.7905 0 16.5073 1.33203 16.5073 3.21631L16.5073 98.3853C16.5073 100.27 17.7905 101.583 19.5957 101.583ZM90.0391 101.583L98.399 101.583C100.204 101.583 101.487 100.27 101.487 98.3853L101.487 3.21631C101.487 1.33203 100.204 0 98.399 0L90.0391 0C88.249 0 86.9658 1.33203 86.9658 3.21631L86.9658 98.3853C86.9658 100.27 88.249 101.583 90.0391 101.583Z" fill="#000000" fill-opacity="0.85"/>
 </g>
</svg>
