<?xml version="1.0" encoding="UTF-8"?>
<!--Generator: Apple Native CoreSVG 232.5-->
<!DOCTYPE svg
PUBLIC "-//W3C//DTD SVG 1.1//EN"
       "http://www.w3.org/Graphics/SVG/1.1/DTD/svg11.dtd">
<svg version="1.1" xmlns="http://www.w3.org/2000/svg" xmlns:xlink="http://www.w3.org/1999/xlink" width="97.9595" height="97.9932">
 <g>
  <rect height="97.9932" opacity="0" width="97.9595" x="0" y="0"/>
  <path d="M48.9722 97.9443C75.8247 97.9443 97.9595 75.7759 97.9595 48.9722C97.9595 22.1348 75.791 0 48.9385 0C22.1348 0 0 22.1348 0 48.9722C0 75.7759 22.1685 97.9443 48.9722 97.9443ZM48.9722 91.6113C25.3501 91.6113 6.36671 72.5942 6.36671 48.9722C6.36671 25.3501 25.3164 6.31789 48.9385 6.31789C72.5605 6.31789 91.6265 25.3501 91.6265 48.9722C91.6265 72.5942 72.5942 91.6113 48.9722 91.6113Z" fill="#000000" fill-opacity="0.85"/>
  <path d="M35.752 70.6738L48.3696 70.6738C61.6616 70.6738 69.3833 62.8091 69.3833 48.5376C69.3833 34.6733 61.6987 26.6909 48.3696 26.6909L35.752 26.6909C33.8521 26.6909 32.8364 28.04 32.8364 30.0864L32.8364 67.2783C32.8364 69.3247 33.8521 70.6738 35.752 70.6738ZM38.6909 65.8301L38.6909 31.5347L47.6875 31.5347C57.4663 31.5347 63.2207 37.668 63.2207 48.6538C63.2207 60.0469 57.5303 65.8301 47.6875 65.8301Z" fill="#000000" fill-opacity="0.85"/>
 </g>
</svg>
