<?xml version="1.0" encoding="UTF-8"?>
<!--Generator: Apple Native CoreSVG 232.5-->
<!DOCTYPE svg
PUBLIC "-//W3C//DTD SVG 1.1//EN"
       "http://www.w3.org/Graphics/SVG/1.1/DTD/svg11.dtd">
<svg version="1.1" xmlns="http://www.w3.org/2000/svg" xmlns:xlink="http://www.w3.org/1999/xlink" width="97.9595" height="97.9932">
 <g>
  <rect height="97.9932" opacity="0" width="97.9595" x="0" y="0"/>
  <path d="M97.9595 48.9722C97.9595 75.7759 75.8247 97.9443 48.9722 97.9443C22.1685 97.9443 0 75.7759 0 48.9722C0 22.1348 22.1348 0 48.9385 0C75.791 0 97.9595 22.1348 97.9595 48.9722ZM35.5313 26.2495C33.564 26.2495 32.5146 27.6323 32.5146 29.731L32.5146 67.6338C32.5146 69.7476 33.564 71.1304 35.5313 71.1304L48.4033 71.1304C61.9834 71.1304 69.8921 63.0972 69.8921 48.5376C69.8921 34.3853 62.0542 26.2495 48.4033 26.2495ZM63.5425 48.6538C63.5425 60.2827 57.751 66.1519 47.7212 66.1519L38.5562 66.1519L38.5562 31.2129L47.7212 31.2129C57.7022 31.2129 63.5425 37.481 63.5425 48.6538Z" fill="#000000" fill-opacity="0.85"/>
 </g>
</svg>
