<?xml version="1.0" encoding="UTF-8"?>
<!--Generator: Apple Native CoreSVG 232.5-->
<!DOCTYPE svg
PUBLIC "-//W3C//DTD SVG 1.1//EN"
       "http://www.w3.org/Graphics/SVG/1.1/DTD/svg11.dtd">
<svg version="1.1" xmlns="http://www.w3.org/2000/svg" xmlns:xlink="http://www.w3.org/1999/xlink" width="88.4092" height="88.5371">
 <g>
  <rect height="88.5371" opacity="0" width="88.4092" x="0" y="0"/>
  <path d="M14.3936 88.5371L74.0005 88.5371C83.5733 88.5371 88.4092 83.6558 88.4092 74.2632L88.4092 14.4019C88.4092 5.00928 83.5733 0.127929 74.0005 0.127929L14.3936 0.127929C4.86963 0.127929 0 4.93018 0 14.4019L0 74.2632C0 83.7349 4.86963 88.5371 14.3936 88.5371ZM14.5064 82.4922C9.00294 82.4922 6.04494 79.6016 6.04494 73.9634L6.04494 14.7017C6.04494 9.06349 9.00294 6.17287 14.5064 6.17287L73.9028 6.17287C79.2969 6.17287 82.3643 9.06349 82.3643 14.7017L82.3643 73.9634C82.3643 79.6016 79.2969 82.4922 73.9028 82.4922Z" fill="#000000" fill-opacity="0.85"/>
  <path d="M31.0274 65.9458L43.6602 65.9458C56.937 65.9458 64.6587 58.0811 64.6587 43.8096C64.6587 29.9453 56.9893 21.9629 43.6602 21.9629L31.0274 21.9629C29.1426 21.9629 28.1118 23.312 28.1118 25.3584L28.1118 62.5503C28.1118 64.5967 29.1426 65.9458 31.0274 65.9458ZM33.9663 61.102L33.9663 26.8067L42.978 26.8067C52.7568 26.8067 58.5112 32.9399 58.5112 43.9258C58.5112 55.3188 52.8057 61.102 42.978 61.102Z" fill="#000000" fill-opacity="0.85"/>
 </g>
</svg>
