<?xml version="1.0" encoding="UTF-8"?>
<!--Generator: Apple Native CoreSVG 232.5-->
<!DOCTYPE svg
PUBLIC "-//W3C//DTD SVG 1.1//EN"
       "http://www.w3.org/Graphics/SVG/1.1/DTD/svg11.dtd">
<svg version="1.1" xmlns="http://www.w3.org/2000/svg" xmlns:xlink="http://www.w3.org/1999/xlink" width="88.4092" height="88.5371">
 <g>
  <rect height="88.5371" opacity="0" width="88.4092" x="0" y="0"/>
  <path d="M88.4092 14.4019L88.4092 74.2632C88.4092 83.6558 83.5733 88.5371 74.0005 88.5371L14.3936 88.5371C4.86963 88.5371 0 83.7349 0 74.2632L0 14.4019C0 4.93018 4.86963 0.127929 14.3936 0.127929L74.0005 0.127929C83.5733 0.127929 88.4092 5.00928 88.4092 14.4019ZM50.3628 37.0147L50.3628 62.4551C50.3628 63.8462 51.4424 64.9595 52.8335 64.9595C54.2432 64.9595 55.3379 63.8462 55.3379 62.4551L55.3379 47.1069C55.3379 43.1572 56.8496 39.7329 60.833 39.7329C61.8721 39.7329 63.0088 39.5947 63.6841 39.1719C64.3154 38.8501 64.7212 38.2388 64.7212 37.3833C64.7212 36.5093 64.4434 35.898 63.9517 35.4819C63.2832 34.938 62.438 34.7207 61.5034 34.7207C58.375 34.7207 56.0786 37.2769 55.353 40.5903L55.188 40.5903L55.188 37.0147C55.188 35.6875 54.0933 34.6265 52.7661 34.6265C51.4087 34.6265 50.3628 35.6875 50.3628 37.0147ZM22.9453 25.8818L22.9453 62.3052C22.9453 63.7334 24.1074 64.8955 25.5356 64.8955C26.9639 64.8955 28.1782 63.7334 28.1782 62.3052L28.1782 53.9868L31.0386 51.1904L39.8467 63.4907C40.9077 65.0689 42.5718 65.1211 43.6851 64.3901C44.6636 63.644 45.1284 62.2158 43.9546 60.54L34.855 47.8608L43.8335 38.6011C44.9771 37.3936 44.6958 36.0361 43.8672 35.3052C42.9561 34.4092 41.3779 34.1397 40.167 35.5039L28.3062 48.3921L28.1782 48.3921L28.1782 25.8818C28.1782 24.4536 26.9639 23.2578 25.5356 23.2578C24.1074 23.2578 22.9453 24.4536 22.9453 25.8818ZM63.7525 61.2866C63.7525 63.1997 65.2193 64.6665 67.1172 64.6665C68.9292 64.6665 70.4297 63.1997 70.4297 61.2866C70.4297 59.4897 68.9292 57.9893 67.1172 57.9893C65.2193 57.9893 63.7525 59.4897 63.7525 61.2866Z" fill="#000000" fill-opacity="0.85"/>
 </g>
</svg>
