<?xml version="1.0" encoding="UTF-8"?>
<!--Generator: Apple Native CoreSVG 232.5-->
<!DOCTYPE svg
PUBLIC "-//W3C//DTD SVG 1.1//EN"
       "http://www.w3.org/Graphics/SVG/1.1/DTD/svg11.dtd">
<svg version="1.1" xmlns="http://www.w3.org/2000/svg" xmlns:xlink="http://www.w3.org/1999/xlink" width="88.4092" height="88.5371">
 <g>
  <rect height="88.5371" opacity="0" width="88.4092" x="0" y="0"/>
  <path d="M14.3936 88.5371L74.0005 88.5371C83.5733 88.5371 88.4092 83.6558 88.4092 74.2632L88.4092 14.4019C88.4092 5.00928 83.5733 0.127929 74.0005 0.127929L14.3936 0.127929C4.86963 0.127929 0 4.93018 0 14.4019L0 74.2632C0 83.7349 4.86963 88.5371 14.3936 88.5371ZM14.5064 82.4922C9.00294 82.4922 6.04494 79.6016 6.04494 73.9634L6.04494 14.7017C6.04494 9.06349 9.00294 6.17287 14.5064 6.17287L73.9028 6.17287C79.2969 6.17287 82.3643 9.06349 82.3643 14.7017L82.3643 73.9634C82.3643 79.6016 79.2969 82.4922 73.9028 82.4922Z" fill="#000000" fill-opacity="0.85"/>
  <path d="M25.9922 64.4727C27.3716 64.4727 28.5337 63.3442 28.5337 61.9497L28.5337 53.7661L31.3604 51.022L40.0337 63.1016C41.061 64.646 42.6729 64.7134 43.7524 63.9673C44.6973 63.2549 45.1621 61.8604 44.022 60.252L35.0757 47.8086L43.9009 38.687C45.0108 37.5283 44.7295 36.2046 43.9346 35.4922C43.0571 34.6113 41.5127 34.3604 40.3354 35.6724L28.6616 48.3247L28.5337 48.3247L28.5337 26.2373C28.5337 24.8428 27.3716 23.6807 25.9922 23.6807C24.5977 23.6807 23.4692 24.8428 23.4692 26.2373L23.4692 61.9497C23.4692 63.3442 24.5977 64.4727 25.9922 64.4727ZM52.6987 64.5518C54.0899 64.5518 55.1509 63.457 55.1509 62.0996L55.1509 47.0396C55.1509 43.1572 56.6289 39.8003 60.5449 39.8003C61.5503 39.8003 62.6533 39.647 63.2949 39.2393C63.9263 38.9512 64.332 38.3399 64.332 37.5181C64.332 36.6777 64.0542 36.0664 63.5625 35.6504C62.9277 35.125 62.0825 34.9229 61.1817 34.9229C58.1206 34.9229 55.8428 37.4116 55.166 40.6577L55.001 40.6577L55.001 37.1494C55.001 35.856 53.94 34.8286 52.6314 34.8286C51.3228 34.8286 50.2954 35.856 50.2954 37.1494L50.2954 62.0996C50.2954 63.457 51.3565 64.5518 52.6987 64.5518ZM66.6758 64.2437C68.439 64.2437 69.9209 62.8106 69.9209 60.9648C69.9209 59.1865 68.439 57.7197 66.6758 57.7197C64.8301 57.7197 63.397 59.1865 63.397 60.9648C63.397 62.8106 64.8301 64.2437 66.6758 64.2437Z" fill="#000000" fill-opacity="0.85"/>
 </g>
</svg>
