<?xml version="1.0" encoding="UTF-8"?>
<!--Generator: Apple Native CoreSVG 232.5-->
<!DOCTYPE svg
PUBLIC "-//W3C//DTD SVG 1.1//EN"
       "http://www.w3.org/Graphics/SVG/1.1/DTD/svg11.dtd">
<svg version="1.1" xmlns="http://www.w3.org/2000/svg" xmlns:xlink="http://www.w3.org/1999/xlink" width="111.507" height="82.7285">
 <g>
  <rect height="82.7285" opacity="0" width="111.507" x="0" y="0"/>
  <path d="M66.0317 5.70802C67.6436 5.70802 68.8765 4.47511 68.8765 2.8296C68.8765 1.23291 67.6436 0 66.0317 0L2.87842 0C1.2666 0 0 1.23291 0 2.8296C0 4.47511 1.2666 5.70802 2.87842 5.70802ZM66.0317 31.3242C67.6436 31.3242 68.8765 30.0913 68.8765 28.4458C68.8765 26.8491 67.6436 25.6162 66.0317 25.6162L2.87842 25.6162C1.2666 25.6162 0 26.8491 0 28.4458C0 30.0913 1.2666 31.3242 2.87842 31.3242ZM66.0317 56.9404C67.6436 56.9404 68.8765 55.6738 68.8765 54.0772C68.8765 52.4653 67.6436 51.2324 66.0317 51.2324L2.87842 51.2324C1.2666 51.2324 0 52.4653 0 54.0772C0 55.6738 1.2666 56.9404 2.87842 56.9404ZM41.0957 82.523C42.7075 82.523 43.9404 81.29 43.9404 79.6934C43.9404 78.0815 42.7075 76.8149 41.0957 76.8149L2.87842 76.8149C1.2666 76.8149 0 78.0815 0 79.6934C0 81.29 1.2666 82.523 2.87842 82.523Z" fill="#000000" fill-opacity="0.85"/>
  <path d="M104.419 55.1846C107.727 57.3955 111.507 56.1343 111.507 52.1065L111.507 30.5664C111.507 26.377 107.892 25.082 104.419 27.4395L89.3774 37.6538C86.791 39.437 86.6934 43.3184 89.3774 45.1353Z" fill="#000000" fill-opacity="0.85"/>
 </g>
</svg>
