<?xml version="1.0" encoding="UTF-8"?>
<!--Generator: Apple Native CoreSVG 232.5-->
<!DOCTYPE svg
PUBLIC "-//W3C//DTD SVG 1.1//EN"
       "http://www.w3.org/Graphics/SVG/1.1/DTD/svg11.dtd">
<svg version="1.1" xmlns="http://www.w3.org/2000/svg" xmlns:xlink="http://www.w3.org/1999/xlink" width="108.949" height="130.629">
 <g>
  <rect height="130.629" opacity="0" width="108.949" x="0" y="0"/>
  <path d="M71.0231 16.6983L36.3154 16.6983C31.4228 16.6983 28.4312 19.604 28.4312 24.6499L28.4312 97.9688C28.4312 102.996 31.4228 105.92 36.3154 105.92L78.4946 105.92C83.3872 105.92 86.3789 102.996 86.3789 97.9688L86.3789 62.5361C88.5073 62.5168 90.5256 62.2526 92.4087 61.7611L92.4087 98.2686C92.4087 105.732 88.9777 110.34 82.5366 111.594L82.5366 116.846C82.5366 118.615 81.3223 119.878 79.5049 119.878C77.7212 119.878 76.5068 118.615 76.5068 116.846L76.5068 111.965L38.3032 111.965L38.3032 116.846C38.3032 118.615 37.0737 119.878 35.3052 119.878C33.5215 119.878 32.2583 118.615 32.2583 116.846L32.2583 111.588C25.8299 110.325 22.3862 105.72 22.3862 98.2686L22.3862 24.3164C22.3862 15.437 27.3232 10.6685 36.2026 10.6685L74.5249 10.6685C73.3211 12.6503 72.1375 14.6859 71.0231 16.6983ZM54.3306 95.7896C54.3306 97.2867 53.145 98.4571 51.6294 98.4571L36.9512 98.4571C35.4692 98.4571 34.2837 97.2867 34.2837 95.7896C34.2837 94.274 35.4692 93.1035 36.9512 93.1035L51.6294 93.1035C53.145 93.1035 54.3306 94.274 54.3306 95.7896ZM80.5112 95.7896C80.5112 97.2867 79.3408 98.4571 77.8437 98.4571L63.1807 98.4571C61.6499 98.4571 60.4795 97.2867 60.4795 95.7896C60.4795 94.274 61.6499 93.1035 63.1807 93.1035L77.8437 93.1035C79.3408 93.1035 80.5112 94.274 80.5112 95.7896ZM54.3306 83.9307C54.3306 85.4463 53.145 86.583 51.6294 86.583L36.9512 86.583C35.4692 86.583 34.2837 85.4463 34.2837 83.9307C34.2837 82.3999 35.4692 81.2632 36.9512 81.2632L51.6294 81.2632C53.145 81.2632 54.3306 82.3999 54.3306 83.9307ZM80.5112 83.9307C80.5112 85.4463 79.3408 86.583 77.8437 86.583L63.1807 86.583C61.6499 86.583 60.4795 85.4463 60.4795 83.9307C60.4795 82.3999 61.6499 81.2632 63.1807 81.2632L77.8437 81.2632C79.3408 81.2632 80.5112 82.3999 80.5112 83.9307ZM54.3306 72.0567C54.3306 73.5723 53.145 74.7241 51.6294 74.7241L36.9512 74.7241C35.4692 74.7241 34.2837 73.5723 34.2837 72.0567C34.2837 70.5596 35.4692 69.3892 36.9512 69.3892L51.6294 69.3892C53.145 69.3892 54.3306 70.5596 54.3306 72.0567ZM80.5112 72.0567C80.5112 73.5723 79.3408 74.7241 77.8437 74.7241L63.1807 74.7241C61.6499 74.7241 60.4795 73.5723 60.4795 72.0567C60.4795 70.5596 61.6499 69.3892 63.1807 69.3892L77.8437 69.3892C79.3408 69.3892 80.5112 70.5596 80.5112 72.0567ZM47.9072 29.9512C47.9072 33.5479 44.9639 36.5064 41.4009 36.5064C37.8193 36.5064 34.9097 33.5479 34.9097 29.9512C34.9097 26.4185 37.8193 23.4937 41.4009 23.4937C44.9639 23.4937 47.9072 26.4185 47.9072 29.9512Z" fill="#000000" fill-opacity="0.85"/>
  <path d="M85.877 56.8823C96.3047 56.8823 103.292 50.1421 103.292 39.9771C103.292 35.2217 101.322 30.5596 99.4419 26.4688C96.6519 20.4829 92.3765 13.313 88.4297 7.27833C87.6753 6.19727 86.936 5.69044 85.877 5.69044C84.8667 5.69044 84.0938 6.19727 83.3731 7.27833C79.396 13.313 75.1172 20.4829 72.312 26.4688C70.4805 30.5596 68.5103 35.2217 68.5103 39.9771C68.5103 50.1421 75.4492 56.8823 85.877 56.8823Z" fill="#000000" fill-opacity="0.85"/>
 </g>
</svg>
