<?xml version="1.0" encoding="UTF-8"?>
<!--Generator: Apple Native CoreSVG 232.5-->
<!DOCTYPE svg
PUBLIC "-//W3C//DTD SVG 1.1//EN"
       "http://www.w3.org/Graphics/SVG/1.1/DTD/svg11.dtd">
<svg version="1.1" xmlns="http://www.w3.org/2000/svg" xmlns:xlink="http://www.w3.org/1999/xlink" width="103.104" height="130.629">
 <g>
  <rect height="130.629" opacity="0" width="103.104" x="0" y="0"/>
  <path d="M61.3535 24.1279C59.4615 28.2051 56.9741 33.8794 56.9741 39.9771C56.9741 53.3233 66.5201 62.5576 80.0313 62.5576C82.3386 62.5576 84.5286 62.2903 86.563 61.7611L86.563 98.2686C86.563 105.732 83.132 110.34 76.691 111.594L76.691 116.846C76.691 118.615 75.4766 119.878 73.6592 119.878C71.8755 119.878 70.6612 118.615 70.6612 116.846L70.6612 111.965L32.4575 111.965L32.4575 116.846C32.4575 118.615 31.2281 119.878 29.4595 119.878C27.6758 119.878 26.4126 118.615 26.4126 116.846L26.4126 111.588C19.9843 110.325 16.5405 105.72 16.5405 98.2686L16.5405 24.3164C16.5405 15.437 21.4776 10.6685 30.357 10.6685L68.6792 10.6685C65.9451 15.1812 63.308 19.9467 61.3535 24.1279ZM30.3609 94.1026C28.8452 94.1026 27.6411 95.3067 27.6411 96.856C27.6411 98.3868 28.8452 99.5909 30.3609 99.5909L45.3272 99.5909C46.8916 99.5909 48.0957 98.3868 48.0957 96.856C48.0957 95.3067 46.8916 94.1026 45.3272 94.1026ZM57.7764 94.1026C56.2271 94.1026 55.023 95.3067 55.023 96.856C55.023 98.3868 56.2271 99.5909 57.7764 99.5909L72.7427 99.5909C74.2583 99.5909 75.4776 98.3868 75.4776 96.856C75.4776 95.3067 74.2583 94.1026 72.7427 94.1026ZM30.3609 81.9927C28.8452 81.9927 27.6411 83.1782 27.6411 84.7276C27.6411 86.2769 28.8452 87.4624 30.3609 87.4624L45.3272 87.4624C46.8916 87.4624 48.0957 86.2769 48.0957 84.7276C48.0957 83.1782 46.8916 81.9927 45.3272 81.9927ZM57.7764 81.9927C56.2271 81.9927 55.023 83.1782 55.023 84.7276C55.023 86.2769 56.2271 87.4624 57.7764 87.4624L72.7427 87.4624C74.2583 87.4624 75.4776 86.2769 75.4776 84.7276C75.4776 83.1782 74.2583 81.9927 72.7427 81.9927ZM30.3609 69.8643C28.8452 69.8643 27.6411 71.0835 27.6411 72.5991C27.6411 74.1485 28.8452 75.334 30.3609 75.334L45.3272 75.334C46.8916 75.334 48.0957 74.1485 48.0957 72.5991C48.0957 71.0835 46.8916 69.8643 45.3272 69.8643ZM57.7764 69.8643C56.2271 69.8643 55.023 71.0835 55.023 72.5991C55.023 74.1485 56.2271 75.334 57.7764 75.334L72.7427 75.334C74.2583 75.334 75.4776 74.1485 75.4776 72.5991C75.4776 71.0835 74.2583 69.8643 72.7427 69.8643ZM28.252 28.9522C28.252 32.6499 31.2442 35.6607 34.8779 35.6607C38.5269 35.6607 41.5528 32.6499 41.5528 28.9522C41.5528 25.3521 38.5269 22.3599 34.8779 22.3599C31.2442 22.3599 28.252 25.3521 28.252 28.9522Z" fill="#000000" fill-opacity="0.85"/>
  <path d="M80.0313 56.8823C90.459 56.8823 97.4468 50.1421 97.4468 39.9771C97.4468 35.2217 95.4766 30.5596 93.5962 26.4688C90.8062 20.4829 86.5308 13.313 82.584 7.27833C81.8296 6.19727 81.0904 5.69044 80.0313 5.69044C79.021 5.69044 78.2481 6.19727 77.5274 7.27833C73.5503 13.313 69.2715 20.4829 66.4663 26.4688C64.6348 30.5596 62.6646 35.2217 62.6646 39.9771C62.6646 50.1421 69.6036 56.8823 80.0313 56.8823Z" fill="#000000" fill-opacity="0.85"/>
 </g>
</svg>
