<?xml version="1.0" encoding="UTF-8"?>
<!--Generator: Apple Native CoreSVG 232.5-->
<!DOCTYPE svg
PUBLIC "-//W3C//DTD SVG 1.1//EN"
       "http://www.w3.org/Graphics/SVG/1.1/DTD/svg11.dtd">
<svg version="1.1" xmlns="http://www.w3.org/2000/svg" xmlns:xlink="http://www.w3.org/1999/xlink" width="105.985" height="88.5371">
 <g>
  <rect height="88.5371" opacity="0" width="105.985" x="0" y="0"/>
  <path d="M72.4351 5.34131L101.709 35.4966C104.705 38.5259 105.985 41.2437 105.985 44.2139C105.985 47.1655 104.735 49.9473 101.709 52.9766L72.4014 82.7129C68.5943 86.6245 64.147 88.5034 58.6157 88.5034L16.8989 88.5371C7.39356 88.5371 2.49023 83.7349 2.49023 74.2632L2.49023 14.4019C2.49023 4.93018 7.39356 0.127929 16.8989 0.127929L58.6494 0.127929C64.1807 0.127929 68.6431 1.36572 72.4351 5.34131ZM59.7544 25.751L45.4888 39.9492L31.2905 25.7847C30.6304 25.1431 29.9634 24.8096 29.0523 24.8096C27.2905 24.8096 25.9111 26.1738 25.9111 27.9053C25.9111 28.7676 26.2109 29.5171 26.856 30.1621L41.0474 44.3721L26.856 58.5483C26.2109 59.1934 25.9111 59.9429 25.9111 60.8052C25.9111 62.5703 27.2905 63.9531 29.0523 63.9531C29.9634 63.9531 30.7163 63.6196 31.3916 62.9932L45.4888 48.7798L59.6348 62.9932C60.2612 63.6196 61.0781 63.9531 61.9404 63.9531C63.7207 63.9531 65.1338 62.5703 65.1338 60.8052C65.1338 59.9092 64.834 59.1597 64.189 58.5146L49.979 44.3721L64.2227 30.1284C64.9014 29.416 65.1675 28.7339 65.1675 27.8379C65.1675 26.1401 63.7544 24.7573 61.9927 24.7573C61.1792 24.7573 60.4634 25.0571 59.7544 25.751Z" fill="#000000" fill-opacity="0.85"/>
 </g>
</svg>
