<?xml version="1.0" encoding="UTF-8"?>
<!--Generator: Apple Native CoreSVG 232.5-->
<!DOCTYPE svg
PUBLIC "-//W3C//DTD SVG 1.1//EN"
       "http://www.w3.org/Graphics/SVG/1.1/DTD/svg11.dtd">
<svg version="1.1" xmlns="http://www.w3.org/2000/svg" xmlns:xlink="http://www.w3.org/1999/xlink" width="95.7588" height="116.673">
 <g>
  <rect height="116.673" opacity="0" width="95.7588" x="0" y="0"/>
  <path d="M3.27735 115.889L92.4141 115.889C94.3155 115.889 95.7588 114.415 95.7588 112.578C95.7588 110.722 94.2852 109.267 92.4141 109.267L3.27735 109.267C1.43994 109.267 0 110.707 0 112.578C0 114.415 1.43994 115.889 3.27735 115.889Z" fill="#000000" fill-opacity="0.85"/>
  <path d="M31.1441 56.5195L64.645 56.5195C71.5821 56.5195 75.5996 52.6553 75.5996 45.7183L75.5996 11.0708C75.5996 4.25 71.5821 0 64.645 0L31.1138 0C24.2407 0 20.1743 4.0293 20.1592 11.0708L20.1743 45.4824C20.1743 52.4531 24.2407 56.5195 31.1441 56.5195ZM29.6875 81.7388L66.0562 81.7388C68.6914 81.7388 70.4175 80.0952 70.4175 77.6787C70.4175 76.4732 69.8467 75.126 68.8853 73.9204L58.4336 61.5327L37.2915 61.5327L26.9932 73.9204C25.9644 75.1445 25.3413 76.4732 25.3413 77.6787C25.3413 80.0952 27.0523 81.7388 29.6875 81.7388Z" fill="#000000" fill-opacity="0.85"/>
 </g>
</svg>
