<?xml version="1.0" encoding="UTF-8"?>
<!--Generator: Apple Native CoreSVG 232.5-->
<!DOCTYPE svg
PUBLIC "-//W3C//DTD SVG 1.1//EN"
       "http://www.w3.org/Graphics/SVG/1.1/DTD/svg11.dtd">
<svg version="1.1" xmlns="http://www.w3.org/2000/svg" xmlns:xlink="http://www.w3.org/1999/xlink" width="97.9595" height="99.1416">
 <g>
  <rect height="99.1416" opacity="0" width="97.9595" x="0" y="0"/>
  <path d="M0.389162 73.8877L0.389162 91.6948C0.389162 96.7402 2.85791 99.1416 7.95558 99.1416L26.5322 99.1416C14.9458 94.0112 6.04834 85.3428 0.389162 73.8877ZM97.7051 73.8877C92.0459 85.3428 83.1485 94.0112 71.5806 99.1416L90.1235 99.1416C95.2363 99.1416 97.7051 96.7402 97.7051 91.6948ZM48.9722 98.5186C75.8247 98.5186 97.9595 76.3501 97.9595 49.5464C97.9595 22.709 75.791 0.574219 48.9536 0.574219C22.1348 0.574219 0 22.709 0 49.5464C0 76.3501 22.1685 98.5186 48.9722 98.5186ZM48.9722 92.1855C25.3501 92.1855 6.36671 73.1685 6.36671 49.5464C6.36671 25.9243 25.3164 6.89211 48.9536 6.89211C72.5757 6.89211 91.6265 25.9243 91.6265 49.5464C91.6265 73.1685 72.6094 92.1855 48.9722 92.1855Z" fill="#000000" fill-opacity="0.85"/>
  <path d="M32.4512 36.9024L47.1802 51.6162C48.2749 52.7446 49.9356 52.6958 51 51.6162L74.5371 28.0943C75.6016 27.0484 75.6353 25.3843 74.5068 24.3233C73.4238 23.3076 71.8608 23.2437 70.7812 24.3233L49.0732 46.0312L36.271 33.1465C35.1426 32.0518 33.5308 32.082 32.4814 33.1314C31.4355 34.1621 31.3716 35.8076 32.4512 36.9024Z" fill="#000000" fill-opacity="0.85"/>
 </g>
</svg>
