<?xml version="1.0" encoding="UTF-8"?>
<!--Generator: Apple Native CoreSVG 232.5-->
<!DOCTYPE svg
PUBLIC "-//W3C//DTD SVG 1.1//EN"
       "http://www.w3.org/Graphics/SVG/1.1/DTD/svg11.dtd">
<svg version="1.1" xmlns="http://www.w3.org/2000/svg" xmlns:xlink="http://www.w3.org/1999/xlink" width="108.738" height="108.771">
 <g>
  <rect height="108.771" opacity="0" width="108.738" x="0" y="0"/>
  <path d="M103.62 64.5165C110.393 57.744 110.46 50.9633 103.721 44.2396L64.4417 5.02383C57.718-1.69981 50.9221-1.67784 44.1497 5.10976L5.08718 44.1723C-1.68529 50.9296-1.62816 57.7895 5.03151 64.4491L44.2322 103.729C50.9256 110.389 57.7366 110.4 64.5091 103.628ZM54.3875 6.51749L54.3875 102.205C52.3504 102.205 50.3318 101.25 48.3435 99.247L9.48318 60.4169C5.49149 56.4403 5.61941 52.2148 9.47976 48.3544L48.3772 9.45694C50.3318 7.50235 52.3504 6.4838 54.3875 6.51749Z" fill="#000000" fill-opacity="0.85"/>
 </g>
</svg>
