<?xml version="1.0" encoding="UTF-8"?>
<!--Generator: Apple Native CoreSVG 232.5-->
<!DOCTYPE svg
PUBLIC "-//W3C//DTD SVG 1.1//EN"
       "http://www.w3.org/Graphics/SVG/1.1/DTD/svg11.dtd">
<svg version="1.1" xmlns="http://www.w3.org/2000/svg" xmlns:xlink="http://www.w3.org/1999/xlink" width="108.715" height="108.771">
 <g>
  <rect height="108.771" opacity="0" width="108.715" x="0" y="0"/>
  <path d="M5.1061 64.5165L44.2326 103.628C50.9899 110.4 57.8161 110.389 64.4943 103.729L103.71 64.4491C110.355 57.7895 110.412 50.9296 103.654 44.1723L64.5919 5.10976C57.8043-1.67784 51.0236-1.69981 44.2848 5.02383L5.00502 44.2396C-1.71861 50.9633-1.65123 57.744 5.1061 64.5165ZM54.339 6.51749C56.3761 6.4838 58.361 7.50235 60.3644 9.45694L99.2619 48.3544C103.107 52.2148 103.235 56.4403 99.2433 60.4169L60.3981 99.247C58.361 101.25 56.3761 102.205 54.339 102.205Z" fill="#000000" fill-opacity="0.85"/>
 </g>
</svg>
