<?xml version="1.0" encoding="UTF-8"?>
<!--Generator: Apple Native CoreSVG 232.5-->
<!DOCTYPE svg
PUBLIC "-//W3C//DTD SVG 1.1//EN"
       "http://www.w3.org/Graphics/SVG/1.1/DTD/svg11.dtd">
<svg version="1.1" xmlns="http://www.w3.org/2000/svg" xmlns:xlink="http://www.w3.org/1999/xlink" width="112.836" height="110.588">
 <g>
  <rect height="110.588" opacity="0" width="112.836" x="0" y="0"/>
  <path d="M83.4976 20.0586L83.4976 21.4185L43.7319 21.4185C31.0757 21.4185 23.6665 28.7266 23.6665 41.3491L23.6665 83.6406L20.0503 83.6406C10.5112 83.6406 5.64161 78.8047 5.64161 69.3667L5.64161 20.0586C5.64161 10.6206 10.5112 5.78468 20.0503 5.78468L69.104 5.78468C78.5943 5.78468 83.4976 10.666 83.4976 20.0586Z" fill="#000000" fill-opacity="0.85"/>
  <path d="M107.179 41.3491L107.179 90.6573C107.179 100.05 102.276 104.931 92.7857 104.931L43.7319 104.931C34.1929 104.931 29.3233 100.095 29.3233 90.6573L29.3233 41.3491C29.3233 31.8775 34.1929 27.0752 43.7319 27.0752L92.7857 27.0752C102.276 27.0752 107.179 31.9414 107.179 41.3491ZM41.3613 86.1343C41.3613 89.938 44.3804 93.0244 48.169 93.0244C51.9087 93.0244 54.9614 89.938 54.9614 86.1343C54.9614 82.3457 51.9087 79.3267 48.169 79.3267C44.3804 79.3267 41.3613 82.3457 41.3613 86.1343ZM81.5073 86.1343C81.5073 89.938 84.5601 93.0244 88.315 93.0244C92.0547 93.0244 95.1411 89.938 95.1411 86.1343C95.1411 82.3457 92.0547 79.3267 88.315 79.3267C84.5601 79.3267 81.5073 82.3457 81.5073 86.1343ZM61.4175 65.9956C61.4175 69.8482 64.4702 72.9497 68.2251 72.9497C71.9649 72.9497 75.0816 69.8482 75.0816 65.9956C75.0816 62.2559 71.9649 59.2368 68.2251 59.2368C64.4702 59.2368 61.4175 62.2559 61.4175 65.9956ZM41.3277 45.8755C41.3277 49.7129 44.3804 52.7168 48.169 52.7657C51.9087 52.8633 55.0254 49.7129 55.0254 45.8755C55.0254 42.1206 51.9087 39.083 48.169 39.083C44.3804 39.083 41.3277 42.1206 41.3277 45.8755ZM81.4434 45.8755C81.4434 49.7129 84.5601 52.7168 88.315 52.7657C92.0547 52.8633 95.1411 49.7129 95.1411 45.8755C95.1411 42.1206 92.0547 39.083 88.315 39.083C84.5601 39.083 81.4434 42.1206 81.4434 45.8755Z" fill="#000000" fill-opacity="0.85"/>
 </g>
</svg>
