<?xml version="1.0" encoding="UTF-8"?>
<!--Generator: Apple Native CoreSVG 232.5-->
<!DOCTYPE svg
PUBLIC "-//W3C//DTD SVG 1.1//EN"
       "http://www.w3.org/Graphics/SVG/1.1/DTD/svg11.dtd">
<svg version="1.1" xmlns="http://www.w3.org/2000/svg" xmlns:xlink="http://www.w3.org/1999/xlink" width="101.504" height="99.2744">
 <g>
  <rect height="99.2744" opacity="0" width="101.504" x="0" y="0"/>
  <path d="M77.8223 14.4019L77.8223 21.4185L71.7773 21.4185L71.7773 14.7354C71.7773 9.09718 68.71 6.17287 63.3159 6.17287L14.5064 6.17287C9.00294 6.17287 6.04494 9.09718 6.04494 14.7354L6.04494 63.3765C6.04494 69.0298 9.00294 71.9541 14.5064 71.9541L23.6816 71.9541L23.6816 77.9839L14.3936 77.9839C4.83594 77.9839 0 73.148 0 63.71L0 14.4019C0 4.96387 4.83594 0.127929 14.3936 0.127929L63.4473 0.127929C72.9526 0.127929 77.8223 5.00928 77.8223 14.4019Z" fill="#000000" fill-opacity="0.85"/>
  <path d="M38.0903 99.2744L87.1441 99.2744C96.6343 99.2744 101.504 94.3931 101.504 85.0005L101.504 35.6924C101.504 26.2847 96.6343 21.4185 87.1441 21.4185L38.0903 21.4185C28.5176 21.4185 23.6816 26.2207 23.6816 35.6924L23.6816 85.0005C23.6816 94.4385 28.5176 99.2744 38.0903 99.2744ZM38.188 93.2295C32.7183 93.2295 29.7266 90.3052 29.7266 84.667L29.7266 36.0259C29.7266 30.3726 32.7183 27.4483 38.188 27.4483L86.9976 27.4483C92.3916 27.4483 95.459 30.3726 95.459 36.0259L95.459 84.667C95.459 90.3052 92.3916 93.2295 86.9976 93.2295Z" fill="#000000" fill-opacity="0.85"/>
  <path d="M42.9502 47.3784C46.5889 47.4273 49.6382 44.378 49.6382 40.6416C49.6382 36.9053 46.5889 33.9688 42.9502 33.9688C39.2476 33.9688 36.2285 36.9053 36.2285 40.6416C36.2285 44.378 39.2476 47.3296 42.9502 47.3784ZM82.3179 47.3784C85.9565 47.4273 88.9907 44.378 88.9907 40.6416C88.9907 36.9053 85.9565 33.9688 82.3179 33.9688C78.6304 33.9688 75.5474 36.9053 75.5474 40.6416C75.5474 44.378 78.6304 47.3296 82.3179 47.3784ZM62.6172 67.1245C66.2559 67.1245 69.3052 64.0904 69.3052 60.3389C69.3052 56.7002 66.2559 53.7149 62.6172 53.7149C58.9297 53.7149 55.9292 56.7002 55.9292 60.3389C55.9292 64.0904 58.9297 67.1245 62.6172 67.1245ZM42.9502 86.8101C46.5889 86.8101 49.6231 83.791 49.6231 80.0884C49.6231 76.4009 46.5889 73.4155 42.9502 73.4155C39.2476 73.4155 36.2622 76.4009 36.2622 80.0884C36.2622 83.791 39.2476 86.8101 42.9502 86.8101ZM82.3179 86.8101C85.9565 86.8101 88.9907 83.791 88.9907 80.0884C88.9907 76.4009 85.9565 73.4155 82.3179 73.4155C78.6304 73.4155 75.5962 76.4009 75.5962 80.0884C75.5962 83.791 78.6304 86.8101 82.3179 86.8101Z" fill="#000000" fill-opacity="0.85"/>
 </g>
</svg>
