<?xml version="1.0" encoding="UTF-8"?>
<!--Generator: Apple Native CoreSVG 232.5-->
<!DOCTYPE svg
PUBLIC "-//W3C//DTD SVG 1.1//EN"
       "http://www.w3.org/Graphics/SVG/1.1/DTD/svg11.dtd">
<svg version="1.1" xmlns="http://www.w3.org/2000/svg" xmlns:xlink="http://www.w3.org/1999/xlink" width="88.4092" height="88.5371">
 <g>
  <rect height="88.5371" opacity="0" width="88.4092" x="0" y="0"/>
  <path d="M14.3936 88.5371L74.0005 88.5371C83.5733 88.5371 88.4092 83.6558 88.4092 74.2632L88.4092 14.4019C88.4092 5.00928 83.5733 0.127929 74.0005 0.127929L14.3936 0.127929C4.86963 0.127929 0 4.93018 0 14.4019L0 74.2632C0 83.7349 4.86963 88.5371 14.3936 88.5371ZM14.5064 82.4922C9.00294 82.4922 6.04494 79.6016 6.04494 73.9634L6.04494 14.7017C6.04494 9.06349 9.00294 6.17287 14.5064 6.17287L73.9028 6.17287C79.2969 6.17287 82.3643 9.06349 82.3643 14.7017L82.3643 73.9634C82.3643 79.6016 79.2969 82.4922 73.9028 82.4922Z" fill="#000000" fill-opacity="0.85"/>
  <path d="M66.8525 29.3408C71.0283 29.4048 74.4717 25.8975 74.4717 21.5752C74.4717 17.3657 71.0283 13.9561 66.8525 13.9561C62.5942 13.9561 59.0869 17.3657 59.0869 21.5752C59.0869 25.8975 62.5942 29.2583 66.8525 29.3408ZM21.6543 74.6182C25.815 74.6182 29.3071 71.1748 29.3071 66.9165C29.3071 62.6582 25.815 59.2334 21.6543 59.2334C17.396 59.2334 13.9712 62.6582 13.9712 66.9165C13.9712 71.1748 17.396 74.6182 21.6543 74.6182Z" fill="#000000" fill-opacity="0.85"/>
 </g>
</svg>
