<?xml version="1.0" encoding="UTF-8"?>
<!--Generator: Apple Native CoreSVG 232.5-->
<!DOCTYPE svg
PUBLIC "-//W3C//DTD SVG 1.1//EN"
       "http://www.w3.org/Graphics/SVG/1.1/DTD/svg11.dtd">
<svg version="1.1" xmlns="http://www.w3.org/2000/svg" xmlns:xlink="http://www.w3.org/1999/xlink" width="95.9756" height="105.263">
 <g>
  <rect height="105.263" opacity="0" width="95.9756" x="0" y="0"/>
  <path d="M47.9878 44.7715C76.7603 44.7715 95.9756 35.874 95.9756 22.479C95.9756 9.08399 76.7603 0.152835 47.9878 0.152835C19.1816 0.152835 0 9.08399 0 22.479C0 35.874 19.1816 44.7715 47.9878 44.7715ZM47.9878 38.7417C22.8433 38.7417 6.04494 32.103 6.04494 22.479C6.04494 12.855 22.8433 6.18264 47.9878 6.18264C73.1323 6.18264 89.9307 12.855 89.9307 22.479C89.9307 32.103 73.1323 38.7417 47.9878 38.7417ZM47.9878 69.2212C77.5049 69.2212 95.9756 60.9336 95.9756 41.3223L95.9756 22.479L89.9307 22.479L89.9307 41.3223C89.9307 57.1675 73.7725 63.1763 47.9878 63.1763C22.2031 63.1763 6.04494 57.1675 6.04494 41.3223L6.04494 22.479L0 22.479L0 41.3223C0 60.9336 18.437 69.2212 47.9878 69.2212ZM18.9693 47.2993L18.9693 37.669L13.8897 37.669L13.8897 47.2993C13.8897 48.6939 15.0518 49.856 16.4463 49.856C17.8408 49.856 18.9693 48.6939 18.9693 47.2993ZM33.9444 50.7861L33.9444 41.1558L28.8799 41.1558L28.8799 50.7861C28.8799 52.1807 29.9932 53.3277 31.3877 53.3277C32.7822 53.3277 33.9444 52.1807 33.9444 50.7861ZM50.1216 52.0405L50.1216 42.4102L45.042 42.4102L45.042 52.0405C45.042 53.4351 46.2041 54.5635 47.5986 54.5635C48.9932 54.5635 50.1216 53.4351 50.1216 52.0405ZM66.3325 50.7861L66.3325 41.1558L61.2529 41.1558L61.2529 50.7861C61.2529 52.1807 62.415 53.3277 63.8096 53.3277C65.2041 53.3277 66.3325 52.1807 66.3325 50.7861ZM81.3076 47.2993L81.3076 37.669L76.2432 37.669L76.2432 47.2993C76.2432 48.6939 77.3565 49.856 78.751 49.856C80.1455 49.856 81.3076 48.6939 81.3076 47.2993Z" fill="#000000" fill-opacity="0.85"/>
  <path d="M85.3076 91.7495C85.3076 90.003 83.812 88.3355 81.5181 89.1221C72.7188 91.8467 62.5962 93.3706 52.7036 93.3706C42.811 93.3706 32.6733 91.8467 23.9077 89.1221L22.102 94.5909C31.4858 97.4688 42.2417 99.0787 52.7036 99.0787C63.1504 99.0787 73.9063 97.4351 83.2901 94.5909C84.8242 94.1109 85.3076 92.8965 85.3076 91.7495ZM25.3291 103.266L31.9605 83.1558C32.8565 80.4966 30.2612 78.607 27.9727 79.4136L11.8315 85.0493C9.80566 85.7095 9.03613 87.8565 10.2334 89.6836L19.9316 103.828C21.3091 105.857 24.4819 105.79 25.3291 103.266Z" fill="#000000" fill-opacity="0.85"/>
 </g>
</svg>
