<?xml version="1.0" encoding="UTF-8"?>
<!--Generator: Apple Native CoreSVG 232.5-->
<!DOCTYPE svg
PUBLIC "-//W3C//DTD SVG 1.1//EN"
       "http://www.w3.org/Graphics/SVG/1.1/DTD/svg11.dtd">
<svg version="1.1" xmlns="http://www.w3.org/2000/svg" xmlns:xlink="http://www.w3.org/1999/xlink" width="104.862" height="96.0244">
 <g>
  <rect height="96.0244" opacity="0" width="104.862" x="0" y="0"/>
  <path d="M60.2423 47.9878C60.2423 76.7603 69.1397 95.9756 82.5348 95.9756C95.9298 95.9756 104.861 76.7603 104.861 47.9878C104.861 19.1816 95.9298 0 82.5348 0C69.1397 0 60.2423 19.1816 60.2423 47.9878ZM66.2721 47.9878C66.2721 22.8433 72.9107 6.0298 82.5348 6.0298C92.1588 6.0298 98.816 22.8433 98.816 47.9878C98.816 73.0986 92.1588 89.9307 82.5348 89.9307C72.9107 89.9307 66.2721 73.0986 66.2721 47.9878ZM35.7926 47.9878C35.7926 77.4898 44.0802 95.9756 63.6915 95.9756L82.5348 95.9756L82.5348 89.9307L63.6915 89.9307C47.8463 89.9307 41.8375 73.7573 41.8375 47.9878C41.8375 22.2031 47.8463 6.0298 63.6915 6.0298L82.5348 6.0298L82.5348 0L63.6915 0C44.0802 0 35.7926 18.437 35.7926 47.9878ZM57.7145 18.9693L67.3448 18.9693L67.3448 13.8897L57.7145 13.8897C56.3199 13.8897 55.1578 15.0518 55.1578 16.4463C55.1578 17.8408 56.3199 18.9693 57.7145 18.9693ZM54.2276 33.9444L63.858 33.9444L63.858 28.8648L54.2276 28.8648C52.8331 28.8648 51.671 29.9932 51.671 31.3877C51.671 32.7822 52.8331 33.9444 54.2276 33.9444ZM52.9732 50.1216L62.5885 50.1216L62.5885 45.042L52.9732 45.042C51.5787 45.042 50.4503 46.2041 50.4503 47.5986C50.4503 48.9932 51.5787 50.1216 52.9732 50.1216ZM54.2276 66.3325L63.858 66.3325L63.858 61.2529L54.2276 61.2529C52.8331 61.2529 51.671 62.415 51.671 63.8096C51.671 65.2041 52.8331 66.3325 54.2276 66.3325ZM57.7145 81.3076L67.3448 81.3076L67.3448 76.228L57.7145 76.228C56.3199 76.228 55.1578 77.3565 55.1578 78.751C55.1578 80.1455 56.3199 81.3076 57.7145 81.3076Z" fill="#000000" fill-opacity="0.85"/>
  <path d="M13.2491 85.3076C15.0108 85.3076 16.6783 83.812 15.8766 81.5181C13.1671 72.7188 11.6432 62.5962 11.6432 52.7036C11.6432 42.7959 13.1671 32.6733 15.8766 23.874L10.4229 22.102C7.545 31.4858 5.92 42.2417 5.92 52.7036C5.92 63.1504 7.57869 73.9063 10.4229 83.2901C10.8878 84.8242 12.1173 85.3076 13.2491 85.3076ZM1.95174 25.0649L21.8429 32.2734C24.502 33.2334 26.422 30.6533 25.6944 28.3648L20.5416 12.0015C19.9303 10.0244 17.8136 9.19433 15.9713 10.3579L1.48347 19.6187C-0.560963 20.9507-0.572681 24.1235 1.95174 25.0649Z" fill="#000000" fill-opacity="0.85"/>
 </g>
</svg>
