<?xml version="1.0" encoding="UTF-8"?>
<!--Generator: Apple Native CoreSVG 232.5-->
<!DOCTYPE svg
PUBLIC "-//W3C//DTD SVG 1.1//EN"
       "http://www.w3.org/Graphics/SVG/1.1/DTD/svg11.dtd">
<svg version="1.1" xmlns="http://www.w3.org/2000/svg" xmlns:xlink="http://www.w3.org/1999/xlink" width="103.608" height="96.0244">
 <g>
  <rect height="96.0244" opacity="0" width="103.608" x="0" y="0"/>
  <path d="M61.463 47.9878C61.463 76.0127 70.0186 94.7061 82.5348 94.7061C95.0509 94.7061 103.607 76.0127 103.607 47.9878C103.607 19.9478 95.0509 1.2207 82.5348 1.2207C70.0186 1.2207 61.463 19.9478 61.463 47.9878ZM35.7926 47.9878C35.7926 77.4898 44.0802 95.9756 63.6915 95.9756L70.6471 95.9756C66.6817 92.7256 63.3848 87.7398 60.9552 81.3076L53.5914 81.3076C52.1969 81.3076 51.0499 80.1455 51.0499 78.751C51.0499 77.3565 52.1969 76.228 53.5914 76.228L59.2828 76.228C58.2745 72.8814 57.5523 69.1426 57.1129 66.3325L50.1046 66.3325C48.7252 66.3325 47.5631 65.2041 47.5631 63.8096C47.5631 62.415 48.7252 61.2529 50.1046 61.2529L56.4981 61.2529C56.0806 57.5947 55.8399 53.1489 55.8062 50.1216L48.8502 50.1216C47.4557 50.1216 46.3272 48.9932 46.3272 47.5986C46.3272 46.2041 47.4557 45.042 48.8502 45.042L55.8399 45.042C55.8736 41.5166 56.1143 37.6025 56.5655 33.9444L50.1046 33.9444C48.7252 33.9444 47.5631 32.7822 47.5631 31.3877C47.5631 29.9932 48.7252 28.8648 50.1046 28.8648L57.2476 28.8648C57.8267 25.4136 58.5221 22.0972 59.5035 18.9693L53.5914 18.9693C52.1969 18.9693 51.0499 17.8408 51.0499 16.4463C51.0499 15.0518 52.1969 13.8897 53.5914 13.8897L61.2432 13.8897C63.6392 7.81299 66.835 3.09668 70.6471 0L63.6915 0C44.0802 0 35.7926 18.437 35.7926 47.9878Z" fill="#000000" fill-opacity="0.85"/>
  <path d="M14.1392 85.9488C15.9347 85.9488 17.6475 84.438 16.7667 82.1104C13.3219 72.7642 11.6432 63.2373 11.6432 52.7036C11.6432 42.2036 13.3219 32.6279 16.7667 23.2969L11.3922 21.3364C7.74861 31.3125 5.92 41.5366 5.92 52.7036C5.92 63.8706 7.7823 74.0796 11.3922 84.0708C11.857 85.4014 13.0074 85.9488 14.1392 85.9488ZM1.95174 24.439L21.8429 31.6812C24.502 32.6226 26.422 30.0425 25.6944 27.7539L20.5416 11.4243C19.9303 9.43213 17.8136 8.5835 15.9713 9.73193L1.48347 19.0264C-0.560963 20.3398-0.572681 23.5464 1.95174 24.439Z" fill="#000000" fill-opacity="0.85"/>
 </g>
</svg>
