<?xml version="1.0" encoding="UTF-8"?>
<!--Generator: Apple Native CoreSVG 232.5-->
<!DOCTYPE svg
PUBLIC "-//W3C//DTD SVG 1.1//EN"
       "http://www.w3.org/Graphics/SVG/1.1/DTD/svg11.dtd">
<svg version="1.1" xmlns="http://www.w3.org/2000/svg" xmlns:xlink="http://www.w3.org/1999/xlink" width="97.9595" height="97.9932">
 <g>
  <rect height="97.9932" opacity="0" width="97.9595" x="0" y="0"/>
  <path d="M48.9722 97.9443C75.8247 97.9443 97.9595 75.7759 97.9595 48.9722C97.9595 22.1348 75.791 0 48.9385 0C22.1348 0 0 22.1348 0 48.9722C0 75.7759 22.1685 97.9443 48.9722 97.9443ZM48.9722 91.6113C25.3501 91.6113 6.36671 72.5942 6.36671 48.9722C6.36671 25.3501 25.3164 6.31789 48.9385 6.31789C72.5605 6.31789 91.6265 25.3501 91.6265 48.9722C91.6265 72.5942 72.5942 91.6113 48.9722 91.6113Z" fill="#000000" fill-opacity="0.85"/>
  <path d="M65.5176 21.9199L32.1724 21.9199C28.8384 21.9199 26.6157 24.2705 26.6157 27.8115L26.6157 35.0747L71.0894 35.0747L71.0894 27.8115C71.0894 24.2705 68.8667 21.9199 65.5176 21.9199ZM34.4917 30.7437C33.8355 30.0664 33.7974 29.0107 34.4409 28.3057C35.0845 27.6343 36.1553 27.5962 36.8267 28.2735C37.4981 28.8833 37.521 29.9878 36.8774 30.6592C36.2339 31.3643 35.1782 31.3535 34.4917 30.7437ZM42.6094 31.9111C41.2456 31.9111 40.2388 30.8218 40.2388 29.4917C40.2388 28.1582 41.2456 27.0723 42.6094 27.0723C43.9092 27.0723 44.9648 28.1582 44.9648 29.4917C44.9648 30.8218 43.9092 31.9111 42.6094 31.9111ZM26.6157 66.3423L71.0894 66.3423L71.0894 38.2085L26.6157 38.2085ZM42.7305 45.3682C41.9458 45.3682 41.4087 44.7822 41.4087 44.0127C41.4087 43.228 41.9458 42.6421 42.7305 42.6421L55.1782 42.6421C55.9629 42.6421 56.4849 43.228 56.4849 44.0127C56.4849 44.7822 55.9629 45.3682 55.1782 45.3682ZM71.0894 69.4761L26.6157 69.4761L26.6157 69.998C26.6157 73.5391 28.8384 75.856 32.1724 75.856L65.5176 75.856C68.8667 75.856 71.0894 73.5391 71.0894 69.998Z" fill="#000000" fill-opacity="0.85"/>
 </g>
</svg>
