<?xml version="1.0" encoding="UTF-8"?>
<!--Generator: Apple Native CoreSVG 232.5-->
<!DOCTYPE svg
PUBLIC "-//W3C//DTD SVG 1.1//EN"
       "http://www.w3.org/Graphics/SVG/1.1/DTD/svg11.dtd">
<svg version="1.1" xmlns="http://www.w3.org/2000/svg" xmlns:xlink="http://www.w3.org/1999/xlink" width="120.284" height="109.721">
 <g>
  <rect height="109.721" opacity="0" width="120.284" x="0" y="0"/>
  <path d="M23.6743 100.049L42.0137 100.049C48.0073 100.049 51.4258 96.5635 51.4258 90.4688L51.4258 19.2334C51.4258 13.1387 48.0073 9.70166 42.0137 9.70166L23.6743 9.70166C17.7144 9.70166 14.2622 13.1387 14.2622 19.2334L14.2622 90.4688C14.2622 96.5635 17.7144 100.049 23.6743 100.049ZM92.5479 83.3057L110.872 83.3057C116.881 83.3057 120.284 79.8535 120.284 73.7588L120.284 35.9434C120.284 29.8486 116.881 26.3965 110.872 26.3965L92.5479 26.3965C86.5391 26.3965 83.1206 29.8486 83.1206 35.9434L83.1206 73.7588C83.1206 79.8535 86.5391 83.3057 92.5479 83.3057Z" fill="#000000" fill-opacity="0.85"/>
  <path d="M2.77735 109.717C4.30665 109.717 5.58839 108.555 5.58839 107.06L5.58839 2.64258C5.58839 1.16211 4.30665 0 2.77735 0C1.28174 0 0 1.16211 0 2.64258L0 107.06C0 108.555 1.28174 109.717 2.77735 109.717ZM71.6358 109.717C73.1314 109.717 74.4131 108.555 74.4131 107.06L74.4131 2.64258C74.4131 1.16211 73.1314 0 71.6358 0C70.1553 0 68.8399 1.16211 68.8399 2.64258L68.8399 107.06C68.8399 108.555 70.1553 109.717 71.6358 109.717Z" fill="#000000" fill-opacity="0.85"/>
 </g>
</svg>
