<?xml version="1.0" encoding="UTF-8"?>
<!--Generator: Apple Native CoreSVG 232.5-->
<!DOCTYPE svg
PUBLIC "-//W3C//DTD SVG 1.1//EN"
       "http://www.w3.org/Graphics/SVG/1.1/DTD/svg11.dtd">
<svg version="1.1" xmlns="http://www.w3.org/2000/svg" xmlns:xlink="http://www.w3.org/1999/xlink" width="96.689" height="109.721">
 <g>
  <rect height="109.721" opacity="0" width="96.689" x="0" y="0"/>
  <path d="M21.3853 107.06C21.3853 108.555 20.1035 109.717 18.6079 109.717C17.1274 109.717 15.7969 108.555 15.7969 107.06L15.7969 98.1709L21.3853 98.1709ZM80.9107 107.06C80.9107 108.555 79.5952 109.717 78.0996 109.717C76.6191 109.717 75.3223 108.555 75.3223 107.06L75.3223 83.3057L80.9107 83.3057ZM80.9107 2.64258L80.9107 26.3965L75.3223 26.3965L75.3223 2.64258C75.3223 1.16211 76.6191 0 78.0996 0C79.5952 0 80.9107 1.16211 80.9107 2.64258ZM21.3853 2.64258L21.3853 11.5649L15.7969 11.5649L15.7969 2.64258C15.7969 1.16211 17.1274 0 18.6079 0C20.1035 0 21.3853 1.16211 21.3853 2.64258Z" fill="#000000" fill-opacity="0.85"/>
  <path d="M9.41212 98.1709L27.7515 98.1709C33.7451 98.1709 37.1636 94.7002 37.1636 88.6055L37.1636 21.1118C37.1636 15.0171 33.7451 11.5649 27.7515 11.5649L9.41212 11.5649C3.41846 11.5649 0 15.0171 0 21.1118L0 88.6055C0 94.7002 3.41846 98.1709 9.41212 98.1709ZM68.9375 83.3057L87.2769 83.3057C93.2705 83.3057 96.689 79.8535 96.689 73.7588L96.689 35.9434C96.689 29.8486 93.2705 26.3965 87.2769 26.3965L68.9375 26.3965C62.9439 26.3965 59.5254 29.8486 59.5254 35.9434L59.5254 73.7588C59.5254 79.8535 62.9439 83.3057 68.9375 83.3057Z" fill="#000000" fill-opacity="0.85"/>
 </g>
</svg>
