<?xml version="1.0" encoding="UTF-8"?>
<!--Generator: Apple Native CoreSVG 232.5-->
<!DOCTYPE svg
PUBLIC "-//W3C//DTD SVG 1.1//EN"
       "http://www.w3.org/Graphics/SVG/1.1/DTD/svg11.dtd">
<svg version="1.1" xmlns="http://www.w3.org/2000/svg" xmlns:xlink="http://www.w3.org/1999/xlink" width="113.361" height="100.415">
 <g>
  <rect height="100.415" opacity="0" width="113.361" x="0" y="0"/>
  <path d="M11.9839 84.7227L2.69141 84.7227C1.16211 84.7227 0 83.4072 0 81.9116C0 80.4312 1.16211 79.1343 2.69141 79.1343L11.9839 79.1343ZM113.346 81.9116C113.346 83.4072 112.166 84.7227 110.67 84.7227L101.362 84.7227L101.362 79.1343L110.67 79.1343C112.166 79.1343 113.346 80.4312 113.346 81.9116ZM28.6939 21.2168L2.69141 21.2168C1.16211 21.2168 0 19.9351 0 18.4395C0 16.959 1.16211 15.6284 2.69141 15.6284L28.6939 15.6284ZM112.127 18.4395C112.127 19.9351 110.931 21.2168 109.45 21.2168L84.6675 21.2168L84.6675 15.6284L109.45 15.6284C110.931 15.6284 112.127 16.959 112.127 18.4395Z" fill="#000000" fill-opacity="0.85"/>
  <path d="M38.2407 36.8604L75.1206 36.8604C81.2154 36.8604 84.6675 33.4419 84.6675 27.4482L84.6675 9.41212C84.6675 3.40332 81.2154 0 75.1206 0L38.2407 0C32.146 0 28.6939 3.40332 28.6939 9.41212L28.6939 27.4482C28.6939 33.4419 32.146 36.8604 38.2407 36.8604ZM38.3721 31.1523C35.8936 31.1523 34.4019 29.6606 34.4019 27.1484L34.4019 9.74562C34.4019 7.19972 35.8936 5.70802 38.3721 5.70802L74.9741 5.70802C77.4678 5.70802 78.9444 7.19972 78.9444 9.74562L78.9444 27.1484C78.9444 29.6606 77.4678 31.1523 74.9741 31.1523ZM21.5308 100.366L91.8306 100.366C97.9253 100.366 101.362 96.9141 101.362 90.9541L101.362 72.918C101.362 66.9092 97.9253 63.457 91.8306 63.457L21.5308 63.457C15.436 63.457 11.9839 66.9092 11.9839 72.918L11.9839 90.9541C11.9839 96.9141 15.436 100.366 21.5308 100.366ZM21.6621 94.6582C19.1836 94.6582 17.707 93.1328 17.707 90.6206L17.707 73.2178C17.707 70.7056 19.1836 69.1802 21.6621 69.1802L91.6841 69.1802C94.1626 69.1802 95.6543 70.7056 95.6543 73.2178L95.6543 90.6206C95.6543 93.1328 94.1626 94.6582 91.6841 94.6582Z" fill="#000000" fill-opacity="0.85"/>
 </g>
</svg>
