<?xml version="1.0" encoding="UTF-8"?>
<!--Generator: Apple Native CoreSVG 232.5-->
<!DOCTYPE svg
PUBLIC "-//W3C//DTD SVG 1.1//EN"
       "http://www.w3.org/Graphics/SVG/1.1/DTD/svg11.dtd">
<svg version="1.1" xmlns="http://www.w3.org/2000/svg" xmlns:xlink="http://www.w3.org/1999/xlink" width="88.4092" height="88.5371">
 <g>
  <rect height="88.5371" opacity="0" width="88.4092" x="0" y="0"/>
  <path d="M88.4092 14.4019L88.4092 74.2632C88.4092 83.6558 83.5733 88.5371 74.0005 88.5371L14.3936 88.5371C4.86963 88.5371 0 83.7349 0 74.2632L0 14.4019C0 4.93018 4.86963 0.127929 14.3936 0.127929L74.0005 0.127929C83.5733 0.127929 88.4092 5.00928 88.4092 14.4019ZM39.2607 62.6543C39.2607 65.2495 41.4131 67.2705 44.1465 67.2705C47.0972 67.2705 49.1973 65.2344 49.1973 62.6392C49.1973 59.771 47.1309 57.7046 44.1465 57.7046C41.4131 57.7046 39.2607 59.8013 39.2607 62.6543ZM23.7105 41.0928C21.5225 41.0928 20.106 42.2734 20.106 44.3267C20.106 46.3613 21.5899 47.5269 23.7105 47.5269L64.751 47.5269C66.8867 47.5269 68.3369 46.3613 68.3369 44.3267C68.3369 42.2734 66.939 41.0928 64.751 41.0928ZM39.2607 26.2988C39.2607 28.8941 41.4131 30.8814 44.1465 30.8814C47.0972 30.8814 49.1973 28.8789 49.1973 26.2837C49.1973 23.3818 47.1309 21.3154 44.1465 21.3154C41.4131 21.3154 39.2607 23.4307 39.2607 26.2988Z" fill="#000000" fill-opacity="0.85"/>
 </g>
</svg>
