<?xml version="1.0" encoding="UTF-8"?>
<!--Generator: Apple Native CoreSVG 232.5-->
<!DOCTYPE svg
PUBLIC "-//W3C//DTD SVG 1.1//EN"
       "http://www.w3.org/Graphics/SVG/1.1/DTD/svg11.dtd">
<svg version="1.1" xmlns="http://www.w3.org/2000/svg" xmlns:xlink="http://www.w3.org/1999/xlink" width="88.4092" height="88.5371">
 <g>
  <rect height="88.5371" opacity="0" width="88.4092" x="0" y="0"/>
  <path d="M14.3936 88.5371L74.0005 88.5371C83.5733 88.5371 88.4092 83.6558 88.4092 74.2632L88.4092 14.4019C88.4092 5.00928 83.5733 0.127929 74.0005 0.127929L14.3936 0.127929C4.86963 0.127929 0 4.93018 0 14.4019L0 74.2632C0 83.7349 4.86963 88.5371 14.3936 88.5371ZM14.5064 82.4922C9.00294 82.4922 6.04494 79.6016 6.04494 73.9634L6.04494 14.7017C6.04494 9.06349 9.00294 6.17287 14.5064 6.17287L73.9028 6.17287C79.2969 6.17287 82.3643 9.06349 82.3643 14.7017L82.3643 73.9634C82.3643 79.6016 79.2969 82.4922 73.9028 82.4922Z" fill="#000000" fill-opacity="0.85"/>
  <path d="M44.1465 31.1172C47.0112 31.1172 49.0777 29.167 49.0777 26.6392C49.0777 23.8384 47.0298 21.8394 44.1465 21.8394C41.4805 21.8394 39.3804 23.8872 39.3804 26.6543C39.3804 29.1821 41.4805 31.1172 44.1465 31.1172ZM24.0996 47.4258L64.377 47.4258C66.4302 47.4258 67.8467 46.294 67.8467 44.3267C67.8467 42.3257 66.4976 41.1938 64.377 41.1938L24.0996 41.1938C21.979 41.1938 20.5811 42.3257 20.5811 44.3267C20.5811 46.294 22.0313 47.4258 24.0996 47.4258ZM44.1465 66.7617C47.0112 66.7617 49.0777 64.7778 49.0777 62.25C49.0777 59.4829 47.0298 57.4839 44.1465 57.4839C41.4805 57.4839 39.3804 59.498 39.3804 62.2651C39.3804 64.793 41.4805 66.7617 44.1465 66.7617Z" fill="#000000" fill-opacity="0.85"/>
 </g>
</svg>
