<?xml version="1.0" encoding="UTF-8"?>
<!--Generator: Apple Native CoreSVG 232.5-->
<!DOCTYPE svg
PUBLIC "-//W3C//DTD SVG 1.1//EN"
       "http://www.w3.org/Graphics/SVG/1.1/DTD/svg11.dtd">
<svg version="1.1" xmlns="http://www.w3.org/2000/svg" xmlns:xlink="http://www.w3.org/1999/xlink" width="97.9595" height="97.9932">
 <g>
  <rect height="97.9932" opacity="0" width="97.9595" x="0" y="0"/>
  <path d="M97.9595 48.9722C97.9595 75.7759 75.8247 97.9443 48.9722 97.9443C22.1685 97.9443 0 75.7759 0 48.9722C0 22.1348 22.1348 0 48.9385 0C75.791 0 97.9595 22.1348 97.9595 48.9722ZM44.0039 67.3823C44.0039 69.9776 46.1714 71.9986 48.9048 71.9986C51.8555 71.9986 53.9556 69.9624 53.9556 67.3672C53.9556 64.499 51.8892 62.4326 48.9048 62.4326C46.1714 62.4326 44.0039 64.5293 44.0039 67.3823ZM28.4536 45.8208C26.2319 45.8208 24.8491 47.0015 24.8491 49.0547C24.8491 51.0894 26.2993 52.2549 28.4536 52.2549L69.5093 52.2549C71.6299 52.2549 73.0801 51.0894 73.0801 49.0547C73.0801 47.0015 71.6973 45.8208 69.5093 45.8208ZM44.0039 31.0269C44.0039 33.6221 46.1714 35.6094 48.9048 35.6094C51.8555 35.6094 53.9556 33.6069 53.9556 31.0117C53.9556 28.1099 51.8892 26.0435 48.9048 26.0435C46.1714 26.0435 44.0039 28.1587 44.0039 31.0269Z" fill="#000000" fill-opacity="0.85"/>
 </g>
</svg>
