<?xml version="1.0" encoding="UTF-8"?>
<!--Generator: Apple Native CoreSVG 232.5-->
<!DOCTYPE svg
PUBLIC "-//W3C//DTD SVG 1.1//EN"
       "http://www.w3.org/Graphics/SVG/1.1/DTD/svg11.dtd">
<svg version="1.1" xmlns="http://www.w3.org/2000/svg" xmlns:xlink="http://www.w3.org/1999/xlink" width="80.7363" height="104.094">
 <g>
  <rect height="104.094" opacity="0" width="80.7363" x="0" y="0"/>
  <path d="M20.604 23.6563L61.3672 23.6563C62.7769 23.6563 63.8042 22.5952 63.8042 21.2344C63.8042 19.9072 62.7769 18.8462 61.3672 18.8462L20.604 18.8462C19.1455 18.8462 18.1182 19.9072 18.1182 21.2344C18.1182 22.5952 19.1455 23.6563 20.604 23.6563ZM20.604 37.4531L45.5464 37.4531C46.9224 37.4531 47.9834 36.3921 47.9834 35.0313C47.9834 33.7041 46.9224 32.6431 45.5464 32.6431L20.604 32.6431C19.1455 32.6431 18.1182 33.7041 18.1182 35.0313C18.1182 36.3921 19.1455 37.4531 20.604 37.4531ZM21.3818 88.9565L59.3882 88.9565C63.6851 88.9565 65.852 86.8047 65.852 82.5078L65.852 52.9224C65.852 48.6104 63.6851 46.4399 59.3882 46.4399L21.3818 46.4399C17.1709 46.4399 14.8843 48.6104 14.8843 52.9224L14.8843 82.5078C14.8843 86.8047 17.1709 88.9565 21.3818 88.9565ZM0 89.7187C0 99.2578 4.80225 104.094 14.2739 104.094L66.4624 104.094C75.9341 104.094 80.7363 99.2578 80.7363 89.7187L80.7363 14.4356C80.7363 4.93018 75.9341 0.0268549 66.4624 0.0268549L14.2739 0.0268549C4.80225 0.0268549 0 4.93018 0 14.4356ZM6.04494 89.5874L6.04494 14.5669C6.04494 9.06349 8.93556 6.07179 14.5737 6.07179L66.1626 6.07179C71.8008 6.07179 74.6914 9.06349 74.6914 14.5669L74.6914 89.5874C74.6914 95.0908 71.8008 98.0488 66.1626 98.0488L14.5737 98.0488C8.93556 98.0488 6.04494 95.0908 6.04494 89.5874Z" fill="#000000" fill-opacity="0.85"/>
 </g>
</svg>
