<?xml version="1.0" encoding="UTF-8"?>
<!--Generator: Apple Native CoreSVG 232.5-->
<!DOCTYPE svg
PUBLIC "-//W3C//DTD SVG 1.1//EN"
       "http://www.w3.org/Graphics/SVG/1.1/DTD/svg11.dtd">
<svg version="1.1" xmlns="http://www.w3.org/2000/svg" xmlns:xlink="http://www.w3.org/1999/xlink" width="97.9595" height="97.9932">
 <g>
  <rect height="97.9932" opacity="0" width="97.9595" x="0" y="0"/>
  <path d="M97.9595 48.9722C97.9595 75.7759 75.8247 97.9443 48.9722 97.9443C22.1685 97.9443 0 75.7759 0 48.9722C0 22.1348 22.1348 0 48.9385 0C75.791 0 97.9595 22.1348 97.9595 48.9722ZM36.9639 20.7813C31.8062 20.7813 29.1104 23.4956 29.1104 28.7022L29.1104 67.5606C29.1104 72.8345 31.7759 75.4815 36.9639 75.4815L63.1729 75.4815C68.3945 75.4815 71.0264 72.7671 71.0264 67.5606L71.0264 45.2334L51.4341 45.2334C48.3003 45.2334 46.7764 43.7432 46.7764 40.5757L46.7764 20.7813ZM50.2993 40.0151C50.2993 41.1279 50.8667 41.6768 51.9458 41.6768L70.6392 41.6768C70.523 40.7656 69.8628 39.8848 68.8472 38.854L53.1069 22.9419C52.125 21.9263 51.1953 21.2661 50.2993 21.1196Z" fill="#000000" fill-opacity="0.85"/>
 </g>
</svg>
