<?xml version="1.0" encoding="UTF-8"?>
<!--Generator: Apple Native CoreSVG 232.5-->
<!DOCTYPE svg
PUBLIC "-//W3C//DTD SVG 1.1//EN"
       "http://www.w3.org/Graphics/SVG/1.1/DTD/svg11.dtd">
<svg version="1.1" xmlns="http://www.w3.org/2000/svg" xmlns:xlink="http://www.w3.org/1999/xlink" width="80.7363" height="104.094">
 <g>
  <rect height="104.094" opacity="0" width="80.7363" x="0" y="0"/>
  <path d="M20.8223 25.7227C19.3638 25.7227 18.3179 24.5943 18.3179 23.1997C18.3179 21.8389 19.3638 20.7778 20.8223 20.7778L59.9478 20.7778C61.3726 20.7778 62.4336 21.8389 62.4336 23.1997C62.4336 24.5943 61.3726 25.7227 59.9478 25.7227ZM20.8223 43.21C19.3638 43.21 18.3179 42.0967 18.3179 40.7022C18.3179 39.3413 19.3638 38.2803 20.8223 38.2803L59.9478 38.2803C61.3726 38.2803 62.4336 39.3413 62.4336 40.7022C62.4336 42.0967 61.3726 43.21 59.9478 43.21ZM20.8223 60.7124C19.3638 60.7124 18.3179 59.6177 18.3179 58.2568C18.3179 56.8623 19.3638 55.7676 20.8223 55.7676L39.6455 55.7676C41.1226 55.7676 42.1499 56.8623 42.1499 58.2568C42.1499 59.6177 41.1226 60.7124 39.6455 60.7124ZM0 89.7187C0 99.2578 4.80225 104.094 14.2739 104.094L66.4624 104.094C75.9341 104.094 80.7363 99.2578 80.7363 89.7187L80.7363 14.4356C80.7363 4.93018 75.9341 0.0268549 66.4624 0.0268549L14.2739 0.0268549C4.80225 0.0268549 0 4.93018 0 14.4356Z" fill="#000000" fill-opacity="0.85"/>
 </g>
</svg>
