<?xml version="1.0" encoding="UTF-8"?>
<!--Generator: Apple Native CoreSVG 232.5-->
<!DOCTYPE svg
PUBLIC "-//W3C//DTD SVG 1.1//EN"
       "http://www.w3.org/Graphics/SVG/1.1/DTD/svg11.dtd">
<svg version="1.1" xmlns="http://www.w3.org/2000/svg" xmlns:xlink="http://www.w3.org/1999/xlink" width="110.092" height="132.717">
 <g>
  <rect height="132.717" opacity="0" width="110.092" x="0" y="0"/>
  <path d="M104.436 19.9492L104.436 88.9824C104.436 98.4878 99.6333 103.391 90.1616 103.391L86.4595 103.391L86.4595 72.4121C86.4595 66.9102 85.4409 62.8784 80.6851 58.0215L53.1426 30.1572C47.7857 24.6992 44.1582 23.5527 38.6846 23.5527L29.3233 23.5527L29.3233 19.9492C29.3233 10.4102 34.1255 5.54053 43.5972 5.54053L90.1616 5.54053C99.6333 5.54053 104.436 10.4102 104.436 19.9492ZM55.4951 15.1533C53.5737 15.1533 52.6729 16.3843 52.6729 17.7315L52.6729 18.6509C52.6729 19.9644 53.5737 21.2442 55.4951 21.2442L78.2637 21.2442C80.1514 21.2442 81.086 19.9644 81.086 18.6509L81.086 17.7315C81.086 16.3843 80.1514 15.1533 78.2637 15.1533Z" fill="#000000" fill-opacity="0.85"/>
  <path d="M5.65675 112.651C5.65675 122.19 10.4927 127.06 19.9307 127.06L66.4951 127.06C75.9668 127.06 80.7691 122.157 80.7691 112.651L80.7691 72.4121L47.126 72.4121C41.4024 72.4121 38.6846 69.6304 38.6846 63.9404L38.6846 29.2095L19.9307 29.2095C10.5381 29.2095 5.65675 34.0791 5.65675 43.6182ZM47.2891 66.7217L79.8028 66.7217C79.4019 65.1655 78.3696 63.7256 76.6753 61.979L49.1177 34.0996C47.3897 32.3716 45.8672 31.1338 44.375 30.7178L44.375 63.8076C44.375 65.7705 45.3262 66.7217 47.2891 66.7217Z" fill="#000000" fill-opacity="0.85"/>
 </g>
</svg>
