<?xml version="1.0" encoding="UTF-8"?>
<!--Generator: Apple Native CoreSVG 232.5-->
<!DOCTYPE svg
PUBLIC "-//W3C//DTD SVG 1.1//EN"
       "http://www.w3.org/Graphics/SVG/1.1/DTD/svg11.dtd">
<svg version="1.1" xmlns="http://www.w3.org/2000/svg" xmlns:xlink="http://www.w3.org/1999/xlink" width="80.7363" height="104.094">
 <g>
  <rect height="104.094" opacity="0" width="80.7363" x="0" y="0"/>
  <path d="M14.2739 104.094L66.4624 104.094C75.9341 104.094 80.7363 99.2241 80.7363 89.7187L80.7363 43.9146C80.7363 38.6299 80.0342 36.3042 76.7788 32.9814L48.1187 3.98438C44.9829 0.796387 42.4214 0.0268549 37.6943 0.0268549L14.2739 0.0268549C4.88135 0.0268549 0 4.93018 0 14.4356L0 89.7187C0 99.2578 4.80225 104.094 14.2739 104.094ZM14.54 98.0488C8.93556 98.0488 6.04494 95.0908 6.04494 89.5874L6.04494 14.5669C6.04494 9.17286 8.93556 6.07179 14.5737 6.07179L37.4375 6.07179L37.4375 35.4702C37.4375 41.0625 40.2261 43.6963 45.6484 43.6963L74.6914 43.6963L74.6914 89.5874C74.6914 95.0908 71.8008 98.0488 66.1626 98.0488ZM46.27 37.9731C44.0142 37.9731 43.1455 37.0859 43.1455 34.8149L43.1455 7.29787L73.4653 37.9731Z" fill="#000000" fill-opacity="0.85"/>
  <path d="M59.2451 59.1406L20.8828 59.1406C19.4732 59.1406 18.4121 60.2017 18.4121 61.5288C18.4121 62.8897 19.4732 63.9507 20.8828 63.9507L59.2451 63.9507C60.6211 63.9507 61.6484 62.8897 61.6484 61.5288C61.6484 60.2017 60.6211 59.1406 59.2451 59.1406ZM59.2451 76.2725L20.8828 76.2725C19.4732 76.2725 18.4121 77.3672 18.4121 78.728C18.4121 80.0552 19.4732 81.0825 20.8828 81.0825L59.2451 81.0825C60.6211 81.0825 61.6484 80.0552 61.6484 78.728C61.6484 77.3672 60.6211 76.2725 59.2451 76.2725Z" fill="#000000" fill-opacity="0.85"/>
 </g>
</svg>
