<?xml version="1.0" encoding="UTF-8"?>
<!--Generator: Apple Native CoreSVG 232.5-->
<!DOCTYPE svg
PUBLIC "-//W3C//DTD SVG 1.1//EN"
       "http://www.w3.org/Graphics/SVG/1.1/DTD/svg11.dtd">
<svg version="1.1" xmlns="http://www.w3.org/2000/svg" xmlns:xlink="http://www.w3.org/1999/xlink" width="97.9595" height="97.9932">
 <g>
  <rect height="97.9932" opacity="0" width="97.9595" x="0" y="0"/>
  <path d="M48.9722 97.9443C75.8247 97.9443 97.9595 75.7759 97.9595 48.9722C97.9595 22.1348 75.791 0 48.9385 0C22.1348 0 0 22.1348 0 48.9722C0 75.7759 22.1685 97.9443 48.9722 97.9443ZM48.9722 91.6113C25.3501 91.6113 6.36671 72.5942 6.36671 48.9722C6.36671 25.3501 25.3164 6.31789 48.9385 6.31789C72.5605 6.31789 91.6265 25.3501 91.6265 48.9722C91.6265 72.5942 72.5942 91.6113 48.9722 91.6113Z" fill="#000000" fill-opacity="0.85"/>
  <path d="M37.1997 74.939L62.8696 74.939C67.9868 74.939 70.5361 72.292 70.5361 67.1714L70.5361 45.2671L51.3818 45.2671C48.3003 45.2671 46.8101 43.8106 46.8101 40.7441L46.8101 21.3389L37.1997 21.3389C32.1616 21.3389 29.5332 23.9707 29.5332 29.0913L29.5332 67.1714C29.5332 72.3257 32.1314 74.939 37.1997 74.939ZM51.8936 41.8115L70.1978 41.8115C70.0816 40.9341 69.4063 40.0718 68.4243 39.0898L52.9722 23.4658C52.0239 22.4839 51.1279 21.8086 50.2808 21.6773L50.2808 40.1685C50.2808 41.2476 50.8145 41.8115 51.8936 41.8115Z" fill="#000000" fill-opacity="0.85"/>
 </g>
</svg>
