<?xml version="1.0" encoding="UTF-8"?>
<!--Generator: Apple Native CoreSVG 232.5-->
<!DOCTYPE svg
PUBLIC "-//W3C//DTD SVG 1.1//EN"
       "http://www.w3.org/Graphics/SVG/1.1/DTD/svg11.dtd">
<svg version="1.1" xmlns="http://www.w3.org/2000/svg" xmlns:xlink="http://www.w3.org/1999/xlink" width="80.7363" height="104.094">
 <g>
  <rect height="104.094" opacity="0" width="80.7363" x="0" y="0"/>
  <path d="M28.3447 49.2964C34.1655 49.2964 38.4185 45.0889 38.4185 39.2749C38.4185 33.4258 34.6455 29.5566 29.2427 29.5566C26.5791 29.5566 24.1885 30.4927 22.4478 32.6392L21.6074 32.6392C22.0889 30.5752 23.3179 28.5786 25.1782 26.9658C27.0098 25.3599 29.0317 24.4356 31.4224 23.981C32.8506 23.6475 33.418 23.186 33.418 22.2329C33.418 21.3438 32.7915 20.7139 31.6362 20.7139C28.4624 20.7139 24.3711 22.7124 21.5913 25.7329C18.8267 28.7568 17.3081 32.6108 17.3081 36.9126C17.3081 44.7856 22.2026 49.2964 28.3447 49.2964ZM53.479 49.2778C59.251 49.2778 63.5527 45.0552 63.5527 39.2412C63.5527 33.3921 59.7798 29.523 54.377 29.523C51.6797 29.523 49.3228 30.459 47.582 32.6055L46.708 32.6055C47.1895 30.5752 48.4185 28.6123 50.1777 26.9995C52.043 25.3262 54.1323 24.4356 56.523 23.9473C57.9512 23.6138 58.5523 23.1524 58.5523 22.2144C58.5523 21.3252 57.9258 20.6802 56.7705 20.6802C53.5967 20.6802 49.4043 22.7461 46.7105 25.6992C43.9272 28.7231 42.4087 32.5772 42.4087 36.8789C42.4087 44.752 47.2881 49.2778 53.479 49.2778ZM20.9473 66.7847L59.9321 66.7847C61.3569 66.7847 62.3843 65.6899 62.3843 64.3291C62.3843 63.002 61.3569 61.9746 59.9321 61.9746L20.9473 61.9746C19.5376 61.9746 18.4766 63.002 18.4766 64.3291C18.4766 65.6899 19.5376 66.7847 20.9473 66.7847ZM20.9473 81.7056L39.6792 81.7056C41.104 81.7056 42.1314 80.6782 42.1314 79.3511C42.1314 77.9902 41.104 76.8955 39.6792 76.8955L20.9473 76.8955C19.5376 76.8955 18.4766 77.9902 18.4766 79.3511C18.4766 80.6782 19.5376 81.7056 20.9473 81.7056ZM0 89.7187C0 99.2578 4.80225 104.094 14.2739 104.094L66.4624 104.094C75.9341 104.094 80.7363 99.2578 80.7363 89.7187L80.7363 14.4356C80.7363 4.93018 75.9341 0.0268549 66.4624 0.0268549L14.2739 0.0268549C4.80225 0.0268549 0 4.93018 0 14.4356ZM6.04494 89.5874L6.04494 14.5669C6.04494 9.06349 8.93556 6.07179 14.5737 6.07179L66.1626 6.07179C71.8008 6.07179 74.6914 9.06349 74.6914 14.5669L74.6914 89.5874C74.6914 95.0908 71.8008 98.0488 66.1626 98.0488L14.5737 98.0488C8.93556 98.0488 6.04494 95.0908 6.04494 89.5874Z" fill="#000000" fill-opacity="0.85"/>
 </g>
</svg>
