<?xml version="1.0" encoding="UTF-8"?>
<!--Generator: Apple Native CoreSVG 232.5-->
<!DOCTYPE svg
PUBLIC "-//W3C//DTD SVG 1.1//EN"
       "http://www.w3.org/Graphics/SVG/1.1/DTD/svg11.dtd">
<svg version="1.1" xmlns="http://www.w3.org/2000/svg" xmlns:xlink="http://www.w3.org/1999/xlink" width="98.7788" height="121.636">
 <g>
  <rect height="121.636" opacity="0" width="98.7788" x="0" y="0"/>
  <path d="M67.9209 4.09571L94.6831 31.1123C97.77 34.2666 98.7788 37.3335 98.7788 42.0073L98.7788 83.4419C98.7788 92.9473 93.9277 97.8506 84.5049 97.8506L75.1123 97.8506L75.1123 91.8057L84.1714 91.8057C89.8096 91.8057 92.7339 88.814 92.7339 83.3105L92.7339 40.2456L67.9902 40.2456C62.8897 40.2456 60.3975 37.9233 60.3975 32.6528L60.3975 6.04494L38.2402 6.04494C32.5869 6.04494 29.6963 9.14601 29.6963 14.54L29.6963 23.669L23.6665 23.669L23.6665 14.4087C23.6665 4.90332 28.5327 0 37.9404 0L57.5347 0C61.6846 0 64.9536 1.06104 67.9209 4.09571ZM65.9185 31.9048C65.9185 33.9014 66.708 34.7246 68.7046 34.7246L90.9404 34.7246L65.9185 9.4634Z" fill="#000000" fill-opacity="0.85"/>
  <path d="M0 107.111C0 116.65 4.80225 121.52 14.2739 121.52L60.8384 121.52C70.3101 121.52 75.1123 116.616 75.1123 107.111L75.1123 67.523C75.1123 62.272 74.4102 59.9312 71.1548 56.6084L42.4946 27.6265C39.3589 24.4233 36.7974 23.669 32.0703 23.669L14.2739 23.669C4.88135 23.669 0 28.5386 0 38.0776ZM6.04494 106.979L6.04494 38.1753C6.04494 32.815 8.93556 29.7139 14.5737 29.7139L32.3906 29.7139L32.3906 59.0786C32.3906 64.6709 35.2129 67.3384 40.6016 67.3384L69.0674 67.3384L69.0674 106.979C69.0674 112.483 66.1431 115.475 60.5386 115.475L14.54 115.475C8.93556 115.475 6.04494 112.483 6.04494 106.979ZM41.2568 61.6152C39.001 61.6152 38.0986 60.7129 38.0986 58.457L38.0986 31.5508L67.8413 61.6152Z" fill="#000000" fill-opacity="0.85"/>
 </g>
</svg>
