<?xml version="1.0" encoding="UTF-8"?>
<!--Generator: Apple Native CoreSVG 232.5-->
<!DOCTYPE svg
PUBLIC "-//W3C//DTD SVG 1.1//EN"
       "http://www.w3.org/Graphics/SVG/1.1/DTD/svg11.dtd">
<svg version="1.1" xmlns="http://www.w3.org/2000/svg" xmlns:xlink="http://www.w3.org/1999/xlink" width="80.7363" height="104.094">
 <g>
  <rect height="104.094" opacity="0" width="80.7363" x="0" y="0"/>
  <path d="M15.8941 43.9023C14.5855 43.9023 13.7905 43.1563 13.7905 41.9116C13.7905 41.6152 13.8731 41.083 14.0566 40.6333L22.0366 19.3525C22.5874 17.8315 23.5322 17.082 25.001 17.082C26.5859 17.082 27.5342 17.8315 28.085 19.3525L36.0649 40.6333C36.2149 41.1167 36.2974 41.6152 36.2974 41.9116C36.2974 43.1563 35.5361 43.9023 34.1939 43.9023C33.1968 43.9023 32.5332 43.3364 32.1694 42.1035L29.9575 36.21L20.0967 36.21L17.9522 42.1035C17.5884 43.3701 16.9248 43.9023 15.8941 43.9023ZM21.1441 32.7627L28.9439 32.7627L25.1357 21.8882L24.9185 21.8882ZM46.353 25.1812C44.9097 25.1812 43.8823 24.1201 43.8823 22.7593C43.8823 21.4321 44.9097 20.3711 46.353 20.3711L65.0151 20.3711C66.3911 20.3711 67.4522 21.4321 67.4522 22.7593C67.4522 24.1201 66.3911 25.1812 65.0151 25.1812ZM46.353 42.313C44.9097 42.313 43.8823 41.252 43.8823 39.8911C43.8823 38.564 44.9097 37.5029 46.353 37.5029L65.0151 37.5029C66.3911 37.5029 67.4522 38.564 67.4522 39.8911C67.4522 41.252 66.3911 42.313 65.0151 42.313ZM12.9712 85.7822L12.9712 60.2739C12.9712 55.9771 15.3067 53.8252 19.5025 53.8252L61.2676 53.8252C65.5645 53.8252 67.7651 55.9771 67.7651 60.2739L67.7651 85.4604L63.7563 85.4604L52.9009 73.2461C51.9009 72.0996 50.48 71.6484 49.1685 71.6484C47.9849 71.6484 46.707 72.1484 45.4478 73.231L34.7568 82.6021L30.5713 78.7734C29.583 77.8677 28.418 77.3862 27.3809 77.3862C26.3438 77.3862 25.3067 77.8037 24.273 78.7734L16.98 85.7822ZM30.9771 73.1553C34.0698 73.1553 36.6138 70.5776 36.6138 67.5186C36.6138 64.3921 34.0698 61.9492 30.9771 61.8818C27.8506 61.8145 25.3403 64.3921 25.3403 67.5186C25.3403 70.5776 27.8506 73.1553 30.9771 73.1553ZM0 89.7187C0 99.2578 4.80225 104.094 14.2739 104.094L66.4624 104.094C75.9341 104.094 80.7363 99.2578 80.7363 89.7187L80.7363 14.4356C80.7363 4.93018 75.9341 0.0268549 66.4624 0.0268549L14.2739 0.0268549C4.80225 0.0268549 0 4.93018 0 14.4356Z" fill="#000000" fill-opacity="0.85"/>
 </g>
</svg>
