<?xml version="1.0" encoding="UTF-8"?>
<!--Generator: Apple Native CoreSVG 232.5-->
<!DOCTYPE svg
PUBLIC "-//W3C//DTD SVG 1.1//EN"
       "http://www.w3.org/Graphics/SVG/1.1/DTD/svg11.dtd">
<svg version="1.1" xmlns="http://www.w3.org/2000/svg" xmlns:xlink="http://www.w3.org/1999/xlink" width="80.7363" height="104.094">
 <g>
  <rect height="104.094" opacity="0" width="80.7363" x="0" y="0"/>
  <path d="M21.2114 26.1338L59.5586 26.1338C60.9497 26.1338 61.9771 25.0728 61.9771 23.7119C61.9771 22.3848 60.9497 21.3237 59.5586 21.3237L21.2114 21.3237C19.7866 21.3237 18.7593 22.3848 18.7593 23.7119C18.7593 25.0728 19.7866 26.1338 21.2114 26.1338ZM21.2114 43.2656L59.5586 43.2656C60.9497 43.2656 61.9771 42.2046 61.9771 40.8438C61.9771 39.5166 60.9497 38.4556 59.5586 38.4556L21.2114 38.4556C19.7866 38.4556 18.7593 39.5166 18.7593 40.8438C18.7593 42.2046 19.7866 43.2656 21.2114 43.2656ZM21.2114 60.4126L39.6792 60.4126C41.104 60.4126 42.1314 59.3853 42.1314 58.0581C42.1314 56.6636 41.104 55.6025 39.6792 55.6025L21.2114 55.6025C19.7866 55.6025 18.7593 56.6636 18.7593 58.0581C18.7593 59.3853 19.7866 60.4126 21.2114 60.4126ZM0 89.7187C0 99.2578 4.80225 104.094 14.2739 104.094L66.4624 104.094C75.9341 104.094 80.7363 99.2578 80.7363 89.7187L80.7363 14.4356C80.7363 4.93018 75.9341 0.0268549 66.4624 0.0268549L14.2739 0.0268549C4.80225 0.0268549 0 4.93018 0 14.4356ZM6.04494 89.5874L6.04494 14.5669C6.04494 9.06349 8.93556 6.07179 14.5737 6.07179L66.1626 6.07179C71.8008 6.07179 74.6914 9.06349 74.6914 14.5669L74.6914 89.5874C74.6914 95.0908 71.8008 98.0488 66.1626 98.0488L14.5737 98.0488C8.93556 98.0488 6.04494 95.0908 6.04494 89.5874Z" fill="#000000" fill-opacity="0.85"/>
 </g>
</svg>
