<?xml version="1.0" encoding="UTF-8"?>
<!--Generator: Apple Native CoreSVG 232.5-->
<!DOCTYPE svg
PUBLIC "-//W3C//DTD SVG 1.1//EN"
       "http://www.w3.org/Graphics/SVG/1.1/DTD/svg11.dtd">
<svg version="1.1" xmlns="http://www.w3.org/2000/svg" xmlns:xlink="http://www.w3.org/1999/xlink" width="127.057" height="107.271">
 <g>
  <rect height="107.271" opacity="0" width="127.057" x="0" y="0"/>
  <path d="M8.13135 106.677L17.3203 106.677C22.4966 106.677 25.6738 103.294 25.6738 99.0498C25.6738 95.0337 23.3941 92.9966 19.2212 92.6748C17.1904 92.5215 17.1636 89.9302 19.0191 89.7617C30.6758 88.5083 37.3423 81.7925 38.6675 70.9361C45.8067 76.1724 58.9556 77.105 70.2007 75.2549C70.0005 81.9903 69.002 92.6675 69.002 97.6397C69.002 103.082 72.4624 106.677 77.7583 106.677L85.8404 106.677C90.9981 106.677 94.0996 103.294 94.0996 99.3628C94.0996 95.69 92.4761 93.6983 86.8965 92.6748C85.8794 92.4795 85.3389 91.732 85.583 90.6089C86.4654 85.8672 89.7212 74.752 91.272 70.3301C94.4292 61.2739 98.9688 54.3291 98.9688 44.7949C98.9688 39.6128 100.469 37.0196 101.577 35.5078C105.389 37.8819 108.342 38.8267 111.753 38.8267C119.573 38.8267 127.057 30.5879 127.057 22.458C127.057 18.0278 123.166 17.5903 118.204 14.541C113.998 11.8906 111.935 8.80372 108.898 7.0254C107.701 12.7373 103.291 22.4107 95.3511 22.4107C90.3384 22.4107 86.7417 18.4541 84.5122 14.2329C80.6397 19.6123 79.3799 24.5215 69.3613 28.271L27.5947 31.6484C26.3692 31.7275 25.3657 32.0845 24.7764 32.3438L21.0083 27.7979C15.6567 21.3838 6.86378 28.7647 12.3482 35.1431L16.4917 39.9971C14.5503 44.8394 13.582 50.1587 13.582 56.7276C13.582 67.3067 12.7671 70.1641 9.15089 73.0884C2.48389 78.3408 0 82.2085 0 88.6626L0 98.1973C0 103.251 3.31055 106.677 8.13135 106.677ZM111.434 23.0254C109.763 23.0254 108.49 21.7339 108.49 20.1309C108.49 18.4942 109.763 17.2549 111.434 17.2549C113.022 17.2549 114.294 18.4942 114.294 20.1309C114.294 21.7339 113.022 23.0254 111.434 23.0254ZM95.3511 18.6182C101.94 18.6182 105.417 7.18018 105.417 4.20801C105.417 1.47168 103.991 0 101.308 0L89.4429 0C86.7603 0 85.2852 1.47168 85.2852 4.20801C85.2852 7.18018 88.7774 18.6182 95.3511 18.6182Z" fill="#000000" fill-opacity="0.85"/>
 </g>
</svg>
