<?xml version="1.0" encoding="UTF-8"?>
<!--Generator: Apple Native CoreSVG 232.5-->
<!DOCTYPE svg
PUBLIC "-//W3C//DTD SVG 1.1//EN"
       "http://www.w3.org/Graphics/SVG/1.1/DTD/svg11.dtd">
<svg version="1.1" xmlns="http://www.w3.org/2000/svg" xmlns:xlink="http://www.w3.org/1999/xlink" width="129.055" height="108.284">
 <g>
  <rect height="108.284" opacity="0" width="129.055" x="0" y="0"/>
  <path d="M9.13038 108.149L18.3194 108.149C23.9185 108.149 27.6719 104.157 27.6719 99.523C27.6719 97.0576 26.5303 93.9346 23.2173 92.6094C33.0967 89.1709 38.7827 82.8418 40.4112 72.9844C47.4829 77.5772 58.8189 78.2119 70.2007 76.8282C69.9331 83.3091 68.9834 93.8516 68.9834 98.3487C68.9834 104.723 72.4287 108.284 78.6226 108.284L86.7149 108.284C93.0401 108.284 96.6739 104.157 96.6739 98.9468C96.6739 95.6763 95.1465 91.4131 88.9844 89.3418C89.2203 85.4531 92.2349 73.8164 93.7452 69.501C96.2925 62.4058 100.967 55.7154 100.967 46.4204C100.967 41.5601 102.145 39.3374 103.066 37.4029C106.489 39.5225 109.543 40.2989 112.752 40.2989C120.961 40.2989 129.055 31.5176 129.055 22.8115C129.055 18.1367 122.048 14.6382 118.041 12.1714C113.691 9.27149 110.435 5.41846 106.485 3.33545L104.99 8.54005C107.911 10.3652 110.729 13.7583 114.859 16.3784C119.283 19.2124 123.212 20.3379 123.212 23.4751C123.212 28.3228 118.064 34.4224 112.752 34.4224C109.932 34.4224 107.516 33.6494 103.543 30.836C102.035 29.7935 100.555 30.0376 99.6436 31.4321C96.2202 36.4434 95.124 40.3804 95.124 46.4204C95.124 53.583 90.9922 59.2207 88.0708 67.9126C86.52 72.6426 83.0742 85.6861 83.0742 90.7212C83.0742 91.9707 83.6079 93.0098 85.0025 93.4478C89.8565 94.4029 90.7974 97.0088 90.7974 98.6587C90.7974 100.948 89.2705 102.273 86.7149 102.273L78.8667 102.273C76.2134 102.273 74.8936 100.822 74.8936 98.128C74.8936 88.9649 76.5757 76.4058 76.5909 71.9556C76.5909 70.2276 75.043 69.2827 73.1988 69.8823C60.6338 73.9507 46.9365 71.5777 39.0283 65.4741C37.3643 64.125 35.2676 65.1255 35.2676 67.0606C35.2676 79.7476 28.937 85.9639 15.4282 89.2373C13.1563 89.8369 13.1563 93.1919 15.4282 93.5894C19.479 94.251 21.7954 95.9937 21.7954 98.6587C21.7954 100.896 20.1187 102.273 17.728 102.273L9.74025 102.273C7.3799 102.273 5.84279 100.635 5.84279 98.128L5.84279 88.5596C5.84279 84.4248 7.32277 81.9248 13.0552 77.378C18.1485 73.3101 19.4585 68.4131 19.4585 57.2007C19.4585 50.9644 20.2515 44.8062 22.6275 41.0855L16.1865 33.7354C13.8799 31.0752 17.4004 28.3897 19.6245 31.0161L25.7573 38.208C26.7422 37.5396 27.9815 37.1641 29.4483 37.0664L71.3237 33.5542C87.4546 27.8257 86.8062 20.1123 92.3409 14.061L88.8594 9.4292C80.3179 17.5425 81.8877 23.29 70.1397 27.7451L30.794 31.104C29.3662 31.2017 28.1421 31.4238 27.1973 31.6309L23.4966 27.1709C17.1309 19.6045 5.01904 28.5606 12.0264 36.9185L15.9678 41.6377C14.397 46.2778 13.582 51.3428 13.582 57.2007C13.582 67.4917 12.8008 70.1621 9.50636 72.7984C2.73829 78.1031 0 82.3599 0 88.5596L0 98.6704C0 104.3 3.7334 108.149 9.13038 108.149ZM96.9414 20.5806C104.159 20.5806 107.939 8.10987 107.939 4.80078C107.939 1.8252 106.378 0.185058 103.392 0.185058L90.5093 0.185058C87.5386 0.185058 85.9287 1.8252 85.9287 4.80078C85.9287 8.10987 89.7427 20.5806 96.9414 20.5806ZM96.9414 15.3814C93.9517 15.3814 91.753 8.93898 91.3975 6.32374C91.3301 5.75978 91.687 5.38429 92.2964 5.38429L101.635 5.38429C102.23 5.38429 102.571 5.75978 102.519 6.32374C102.164 8.93898 99.916 15.3814 96.9414 15.3814ZM109.346 23.3203C111.136 23.3203 112.611 21.8418 112.611 20.0029C112.611 18.1792 111.136 16.7529 109.346 16.7529C107.537 16.7529 106.062 18.1792 106.062 20.0029C106.062 21.8418 107.537 23.3203 109.346 23.3203Z" fill="#000000" fill-opacity="0.85"/>
 </g>
</svg>
