<?xml version="1.0" encoding="UTF-8"?>
<!--Generator: Apple Native CoreSVG 232.5-->
<!DOCTYPE svg
PUBLIC "-//W3C//DTD SVG 1.1//EN"
       "http://www.w3.org/Graphics/SVG/1.1/DTD/svg11.dtd">
<svg version="1.1" xmlns="http://www.w3.org/2000/svg" xmlns:xlink="http://www.w3.org/1999/xlink" width="60.8086" height="109.899">
 <g>
  <rect height="109.899" opacity="0" width="60.8086" x="0" y="0"/>
  <path d="M30.6426 98.2983C47.4341 98.2983 60.8086 89.4473 60.8086 74.6211C60.8086 62.9087 53.1997 55.8672 36.2056 51.8379L26.9434 49.6558C14.7378 46.8105 9.07277 41.8154 9.07277 34.0659C9.07277 25.2798 17.7256 18.2188 30.5332 18.2188C41.8061 18.2188 50.0415 23.8633 52.2427 33.1939C52.7817 35.0972 53.9878 36.1431 55.8994 36.1431C58.1294 36.1431 59.2866 34.7114 59.2866 32.5606C59.2866 31.855 59.1738 31.0703 58.9751 30.252C56.3027 19.1846 44.8618 11.665 30.5332 11.665C14.2373 11.665 1.92773 21.0689 1.92773 34.4551C1.92773 45.5547 9.52978 52.5693 25.751 56.479L34.998 58.6611C48.2612 61.833 53.6787 66.5317 53.6787 75.0776C53.6787 85.2583 44.7529 91.7295 30.7251 91.7295C17.8862 91.7295 9.0093 85.6929 7.04396 75.6084C6.47121 73.6108 5.25343 72.5952 3.38722 72.5952C1.22119 72.5952 0 74.0757 0 76.2603C0 76.9927 0.0825197 77.7471 0.296387 78.52C3.08496 90.791 15.6763 98.2983 30.6426 98.2983ZM30.459 109.899C32.0405 109.899 33.3223 108.603 33.3223 107.021L33.3223 3.65918C33.3223 2.0625 32.0405 0.81445 30.459 0.81445C28.8623 0.81445 27.6143 2.0625 27.6143 3.65918L27.6143 107.021C27.6143 108.603 28.8623 109.899 30.459 109.899Z" fill="#000000" fill-opacity="0.85"/>
 </g>
</svg>
