<?xml version="1.0" encoding="UTF-8"?>
<!--Generator: Apple Native CoreSVG 232.5-->
<!DOCTYPE svg
PUBLIC "-//W3C//DTD SVG 1.1//EN"
       "http://www.w3.org/Graphics/SVG/1.1/DTD/svg11.dtd">
<svg version="1.1" xmlns="http://www.w3.org/2000/svg" xmlns:xlink="http://www.w3.org/1999/xlink" width="97.9595" height="97.9932">
 <g>
  <rect height="97.9932" opacity="0" width="97.9595" x="0" y="0"/>
  <path d="M48.9722 97.9443C75.8247 97.9443 97.9595 75.7759 97.9595 48.9722C97.9595 22.1348 75.791 0 48.9385 0C22.1348 0 0 22.1348 0 48.9722C0 75.7759 22.1685 97.9443 48.9722 97.9443ZM48.9722 91.6113C25.3501 91.6113 6.36671 72.5942 6.36671 48.9722C6.36671 25.3501 25.3164 6.31789 48.9385 6.31789C72.5605 6.31789 91.6265 25.3501 91.6265 48.9722C91.6265 72.5942 72.5942 91.6113 48.9722 91.6113Z" fill="#000000" fill-opacity="0.85"/>
  <path d="M48.9385 76.4443C50.0298 76.4443 50.8701 75.6528 50.8701 74.5278L50.8701 70.8677C58.6201 70.2412 64.3467 65.7256 64.3467 58.7764C64.3467 52.499 60.2315 48.707 51.9019 47.0723L50.8701 46.8501L50.8701 32.1372C55.0518 32.6812 58.0381 35.1289 58.9087 38.7031C59.2607 39.9712 60.0068 40.7324 61.2969 40.7324C62.6392 40.7324 63.6177 39.7876 63.6177 38.3814C63.6177 37.9385 63.5015 37.4805 63.419 37.0039C62.2402 31.8667 57.2261 28.1929 50.8701 27.5815L50.8701 24.1973C50.8701 23.0571 50.0298 22.2808 48.9385 22.2808C47.8018 22.2808 47.022 23.042 47.022 24.1973L47.022 27.5815C39.7666 28.2754 34.4023 32.8384 34.4023 39.2217C34.4023 45.0747 38.4653 48.6797 46.4985 50.5537L47.022 50.6817L47.022 66.3457C42.0674 65.7866 38.8286 62.9819 38.1382 59.1353C37.7339 57.7627 36.9692 57.0723 35.7163 57.0723C34.3892 57.0723 33.4443 58.0171 33.4443 59.4385C33.4443 59.915 33.5269 60.3731 33.6582 60.8159C34.9194 66.4463 40.2671 70.2412 47.022 70.7852L47.022 74.5278C47.022 75.6831 47.832 76.4443 48.9385 76.4443ZM47.022 45.8564L46.7105 45.7588C41.6499 44.4136 39.2124 42.3394 39.2124 39.0195C39.2124 35.5112 42.3872 32.7485 47.022 32.1372ZM50.8701 51.6567L51.9443 51.9009C57.3921 53.2949 59.5181 55.4634 59.5181 59.0122C59.5181 62.9146 56.3804 65.8506 50.8701 66.3457Z" fill="#000000" fill-opacity="0.85"/>
 </g>
</svg>
