<?xml version="1.0" encoding="UTF-8"?>
<!--Generator: Apple Native CoreSVG 232.5-->
<!DOCTYPE svg
PUBLIC "-//W3C//DTD SVG 1.1//EN"
       "http://www.w3.org/Graphics/SVG/1.1/DTD/svg11.dtd">
<svg version="1.1" xmlns="http://www.w3.org/2000/svg" xmlns:xlink="http://www.w3.org/1999/xlink" width="97.9595" height="97.9932">
 <g>
  <rect height="97.9932" opacity="0" width="97.9595" x="0" y="0"/>
  <path d="M97.9595 48.9722C97.9595 75.7759 75.8247 97.9443 48.9722 97.9443C22.1685 97.9443 0 75.7759 0 48.9722C0 22.1348 22.1348 0 48.9385 0C75.791 0 97.9595 22.1348 97.9595 48.9722ZM46.9883 23.6733L46.9883 27.125C39.5981 27.8188 34.1143 32.4829 34.1143 39.0195C34.1143 45.0073 38.2632 48.6797 46.4648 50.6211L46.9883 50.749L46.9883 66.6675C41.9663 66.1084 38.6939 63.2363 37.9849 59.356C37.5654 57.916 36.7671 57.2256 35.4956 57.2256C34.1348 57.2256 33.1563 58.2041 33.1563 59.6592C33.1563 60.1509 33.2388 60.6275 33.355 61.0703C34.6499 66.8355 40.0986 70.6826 46.9883 71.2417L46.9883 75.0366C46.9883 76.2256 47.832 77.0205 48.9722 77.0205C50.0972 77.0205 50.9712 76.2105 50.9712 75.0366L50.9712 71.3242C58.8408 70.6826 64.7022 66.0811 64.7022 58.9785C64.7022 52.5513 60.501 48.6733 51.9878 47.0049L50.9712 46.7827L50.9712 31.8154C55.2202 32.3594 58.2402 34.8408 59.1294 38.4824C59.4966 39.7691 60.2612 40.564 61.585 40.564C62.9609 40.564 63.9732 39.6006 63.9732 38.1606C63.9732 37.7026 63.8569 37.2261 63.7744 36.7495C62.562 31.5112 57.4468 27.7363 50.9712 27.125L50.9712 23.6733C50.9712 22.5146 50.0972 21.6895 48.9722 21.6895C47.8018 21.6895 46.9883 22.4844 46.9883 23.6733ZM52.0303 51.9868C57.5942 53.396 59.7388 55.6318 59.7388 59.1992C59.7388 63.1689 56.5825 66.1724 50.9712 66.6675L50.9712 51.709ZM46.9883 45.7554L46.6768 45.6729C41.5488 44.2939 39.0776 42.186 39.0776 38.7988C39.0776 35.2568 42.3013 32.4268 46.9883 31.8154Z" fill="#000000" fill-opacity="0.85"/>
 </g>
</svg>
