<?xml version="1.0" encoding="UTF-8"?>
<!--Generator: Apple Native CoreSVG 232.5-->
<!DOCTYPE svg
PUBLIC "-//W3C//DTD SVG 1.1//EN"
       "http://www.w3.org/Graphics/SVG/1.1/DTD/svg11.dtd">
<svg version="1.1" xmlns="http://www.w3.org/2000/svg" xmlns:xlink="http://www.w3.org/1999/xlink" width="97.9595" height="97.9932">
 <g>
  <rect height="97.9932" opacity="0" width="97.9595" x="0" y="0"/>
  <path d="M48.9722 97.9443C75.8247 97.9443 97.9595 75.7759 97.9595 48.9722C97.9595 22.1348 75.791 0 48.9385 0C22.1348 0 0 22.1348 0 48.9722C0 75.7759 22.1685 97.9443 48.9722 97.9443ZM48.9722 91.6113C25.3501 91.6113 6.36671 72.5942 6.36671 48.9722C6.36671 25.3501 25.3164 6.31789 48.9385 6.31789C72.5605 6.31789 91.6265 25.3501 91.6265 48.9722C91.6265 72.5942 72.5942 91.6113 48.9722 91.6113Z" fill="#000000" fill-opacity="0.85"/>
  <path d="M32.521 50.6846C32.521 59.3174 38.2324 65.1738 45.7105 65.1738C49.7446 65.1738 53.2905 63.4448 55.4424 60.4043L55.4424 63.1445C55.4424 64.5845 56.4058 65.5479 57.8457 65.5479C59.2217 65.5479 60.1362 64.5845 60.1362 63.1445L60.1362 32.3853L63.458 32.3853C64.5947 32.3853 65.3897 31.5903 65.3897 30.4385C65.3897 29.3472 64.6284 28.4883 63.458 28.4883L60.1362 28.4883L60.1362 25.8301C60.1362 24.3042 59.1729 23.3408 57.6807 23.3408C56.2222 23.3408 55.2588 24.3042 55.2588 25.8301L55.2588 28.4883L46.3267 28.4883C45.1563 28.4883 44.395 29.3472 44.395 30.4385C44.395 31.5903 45.1748 32.3853 46.3267 32.3853L55.2588 32.3853L55.2588 40.8486C53.1743 37.9243 49.6958 36.1802 45.6768 36.1802C38.2139 36.1802 32.521 42.0181 32.521 50.6846ZM37.4844 50.7183C37.4844 44.7295 41.2271 40.7695 46.3877 40.7695C51.4893 40.7695 55.2539 45.0342 55.2539 50.7183C55.2539 56.4209 51.4893 60.6519 46.3877 60.6519C41.2271 60.6519 37.4844 56.7256 37.4844 50.7183ZM34.648 70.2861C34.648 71.4077 35.4917 72.3003 36.6133 72.3003L59.6543 72.3003C60.7759 72.3003 61.6348 71.4077 61.6348 70.2861C61.6348 69.1309 60.8096 68.3208 59.6543 68.3208L36.6133 68.3208C35.458 68.3208 34.648 69.1646 34.648 70.2861Z" fill="#000000" fill-opacity="0.85"/>
 </g>
</svg>
