<?xml version="1.0" encoding="UTF-8"?>
<!--Generator: Apple Native CoreSVG 232.5-->
<!DOCTYPE svg
PUBLIC "-//W3C//DTD SVG 1.1//EN"
       "http://www.w3.org/Graphics/SVG/1.1/DTD/svg11.dtd">
<svg version="1.1" xmlns="http://www.w3.org/2000/svg" xmlns:xlink="http://www.w3.org/1999/xlink" width="107.333" height="97.9932">
 <g>
  <rect height="97.9932" opacity="0" width="107.333" x="0" y="0"/>
  <path d="M58.3575 97.9443C85.1612 97.9443 107.33 75.7759 107.33 48.9722C107.33 22.1348 85.1612 0 58.3575 0C31.5201 0 9.38533 22.1011 9.38533 48.9385L15.7032 48.9385C15.7032 25.3164 34.7354 6.35158 58.3575 6.35158C81.9796 6.35158 101.012 25.3501 101.012 48.9722C101.012 72.5942 81.9796 91.6787 58.3575 91.6113C43.5182 91.5928 30.6148 84.0068 22.9474 72.5923C21.8121 71.0444 20.047 70.561 18.4806 71.479C16.9967 72.397 16.5655 74.4165 17.8018 76.0655C26.943 89.0161 41.5392 97.9443 58.3575 97.9443ZM2.84969 40.0024C7.79875e-05 40.0024-0.788009 41.9561 0.828693 44.2666L11.4786 59.4307C12.8326 61.3438 14.7677 61.3101 16.1031 59.4307L26.753 44.2329C28.336 41.9561 27.5479 40.0024 24.7169 40.0024Z" fill="#000000" fill-opacity="0.85"/>
  <path d="M41.9063 50.6846C41.9063 59.3174 47.6514 65.1738 55.0958 65.1738C59.1637 65.1738 62.7096 63.4448 64.8614 60.4043L64.8614 63.1445C64.8614 64.5845 65.8248 65.5479 67.2159 65.5479C68.6407 65.5479 69.5553 64.5845 69.5553 63.1445L69.5553 32.3853L72.877 32.3853C74.0138 32.3853 74.775 31.5903 74.775 30.4385C74.775 29.3472 74.0475 28.4883 72.877 28.4883L69.5553 28.4883L69.5553 25.8301C69.5553 24.3042 68.5582 23.3408 67.0997 23.3408C65.6412 23.3408 64.6778 24.3042 64.6778 25.8301L64.6778 28.4883L55.7457 28.4883C54.5601 28.4883 53.7989 29.3472 53.7989 30.4385C53.7989 31.5903 54.5938 32.3853 55.7457 32.3853L64.6778 32.3853L64.6778 40.8486C62.5597 37.9243 59.0811 36.1802 55.0621 36.1802C47.6178 36.1802 41.9063 42.0181 41.9063 50.6846ZM46.8697 50.7183C46.8697 44.7295 50.6461 40.7695 55.773 40.7695C60.8746 40.7695 64.6392 45.0342 64.6392 50.7183C64.6392 56.4209 60.8746 60.6519 55.773 60.6519C50.6461 60.6519 46.8697 56.7256 46.8697 50.7183ZM44.067 70.2861C44.067 71.4077 44.9107 72.3003 45.9986 72.3003L69.0396 72.3003C70.1949 72.3003 71.0538 71.4077 71.0538 70.2861C71.0538 69.1309 70.2286 68.3208 69.0396 68.3208L45.9986 68.3208C44.877 68.3208 44.067 69.1646 44.067 70.2861Z" fill="#000000" fill-opacity="0.85"/>
 </g>
</svg>
