<?xml version="1.0" encoding="UTF-8"?>
<!--Generator: Apple Native CoreSVG 232.5-->
<!DOCTYPE svg
PUBLIC "-//W3C//DTD SVG 1.1//EN"
       "http://www.w3.org/Graphics/SVG/1.1/DTD/svg11.dtd">
<svg version="1.1" xmlns="http://www.w3.org/2000/svg" xmlns:xlink="http://www.w3.org/1999/xlink" width="63.1055" height="95.7178">
 <g>
  <rect height="95.7178" opacity="0" width="63.1055" x="0" y="0"/>
  <path d="M25.0244 79.814C34.9766 79.814 42.4605 74.7466 45.8853 66.4336L46.084 66.4336L46.084 77.2085C46.084 79.1641 47.4331 80.4795 49.3213 80.4795C51.1758 80.4795 52.5064 79.1641 52.5064 77.2085L52.5064 3.42091C52.5064 1.33057 51.1236 0 49.1377 0C47.167 0 45.7505 1.33057 45.7505 3.42091L45.7505 37.7007L45.5855 37.7007C42.3813 29.4971 34.916 24.46 25.0244 24.46C11.5054 24.46 0 35.0625 0 52.1445C0 69.2114 11.5054 79.814 25.0244 79.814ZM26.3755 73.7319C15.4956 73.7319 6.95803 65.3594 6.95803 52.1445C6.95803 38.9483 15.4956 30.5757 26.3755 30.5757C37.2315 30.5757 45.6514 39.6182 45.6514 52.1445C45.6514 64.6709 37.2315 73.7319 26.3755 73.7319ZM23.8281 12.0562C23.8281 13.4019 24.9077 14.5303 26.2534 14.5303L60.6802 14.5303C61.9771 14.5303 63.1055 13.4019 63.1055 12.0562C63.1055 10.7593 61.9771 9.63086 60.6802 9.63086L26.2534 9.63086C24.9077 9.63086 23.8281 10.7593 23.8281 12.0562ZM4.19141 90.2144C4.19141 91.5938 5.30469 92.7559 6.68409 92.7559L52.9888 92.7559C54.3682 92.7559 55.4966 91.5938 55.4966 90.2144C55.4966 88.8838 54.3682 87.7217 52.9888 87.7217L6.68409 87.7217C5.30469 87.7217 4.19141 88.8838 4.19141 90.2144Z" fill="#000000" fill-opacity="0.85"/>
 </g>
</svg>
