<?xml version="1.0" encoding="UTF-8"?>
<!--Generator: Apple Native CoreSVG 232.5-->
<!DOCTYPE svg
PUBLIC "-//W3C//DTD SVG 1.1//EN"
       "http://www.w3.org/Graphics/SVG/1.1/DTD/svg11.dtd">
<svg version="1.1" xmlns="http://www.w3.org/2000/svg" xmlns:xlink="http://www.w3.org/1999/xlink" width="115.374" height="101.755">
 <g>
  <rect height="101.755" opacity="0" width="115.374" x="0" y="0"/>
  <path d="M2.99805 101.706C4.72609 101.706 6.06007 100.372 6.06007 98.6929L6.06007 8.61769C6.06007 7.05519 7.07033 6.04494 8.53517 6.04494L106.838 6.04494C108.303 6.04494 109.313 7.05519 109.313 8.61769L109.313 98.6929C109.313 100.372 110.647 101.706 112.342 101.706C114.04 101.706 115.374 100.372 115.374 98.6929L115.374 8.14455C115.374 3.27735 112.014 0 106.951 0L8.38869 0C3.35987 0 0 3.27735 0 8.14455L0 98.6929C0 100.372 1.33399 101.706 2.99805 101.706Z" fill="#000000" fill-opacity="0.85"/>
  <path d="M59.9058 100.148L102.97 100.148C103.701 100.148 104.267 99.5488 104.267 98.8364L104.267 12.355C104.267 11.624 103.701 11.043 102.97 11.043L59.9058 11.043C59.1597 11.043 58.5938 11.624 58.5938 12.355L58.5938 98.8364C58.5938 99.5488 59.1597 100.148 59.9058 100.148ZM69.4321 62.7168C68.1709 62.7168 67.2549 61.8008 67.2549 60.5059L67.2549 51.9761C67.2549 50.6812 68.1709 49.7988 69.4321 49.7988C70.7271 49.7988 71.6245 50.6812 71.6245 51.9761L71.6245 60.5059C71.6245 61.8008 70.7271 62.7168 69.4321 62.7168Z" fill="#000000" fill-opacity="0.85"/>
 </g>
</svg>
