<?xml version="1.0" encoding="UTF-8"?>
<!--Generator: Apple Native CoreSVG 232.5-->
<!DOCTYPE svg
PUBLIC "-//W3C//DTD SVG 1.1//EN"
       "http://www.w3.org/Graphics/SVG/1.1/DTD/svg11.dtd">
<svg version="1.1" xmlns="http://www.w3.org/2000/svg" xmlns:xlink="http://www.w3.org/1999/xlink" width="115.374" height="101.755">
 <g>
  <rect height="101.755" opacity="0" width="115.374" x="0" y="0"/>
  <path d="M2.99805 101.706C4.72609 101.706 6.06007 100.372 6.06007 98.6929L6.06007 8.61769C6.06007 7.05519 7.07033 6.04494 8.53517 6.04494L106.838 6.04494C108.303 6.04494 109.313 7.05519 109.313 8.61769L109.313 98.6929C109.313 100.372 110.647 101.706 112.342 101.706C114.04 101.706 115.374 100.372 115.374 98.6929L115.374 8.14455C115.374 3.27735 112.014 0 106.951 0L8.38869 0C3.35987 0 0 3.27735 0 8.14455L0 98.6929C0 100.372 1.33399 101.706 2.99805 101.706Z" fill="#000000" fill-opacity="0.85"/>
  <path d="M12.4038 100.303L53.8589 100.303C54.5899 100.303 55.1709 99.7373 55.1709 98.9912L55.1709 12.5435C55.1709 11.8125 54.5899 11.2466 53.8589 11.2466L12.4038 11.2466C11.6729 11.2466 11.107 11.8125 11.107 12.5435L11.107 98.9912C11.107 99.7373 11.6729 100.303 12.4038 100.303ZM19.0781 37.792C18.4097 37.792 17.9517 37.334 17.9517 36.6133L17.9517 19.27C17.9517 18.5493 18.4097 18.0913 19.0781 18.0913L47.1997 18.0913C47.853 18.0913 48.311 18.5493 48.311 19.27L48.311 36.6133C48.311 37.334 47.853 37.792 47.1997 37.792ZM19.0781 65.6084C18.4097 65.6084 17.9517 65.1655 17.9517 64.4297L17.9517 47.1016C17.9517 46.3809 18.4097 45.9566 19.0781 45.9566L47.1997 45.9566C47.853 45.9566 48.311 46.3809 48.311 47.1016L48.311 64.4297C48.311 65.1655 47.853 65.6084 47.1997 65.6084ZM19.0781 93.4585C18.4097 93.4585 17.9517 93.0005 17.9517 92.2798L17.9517 74.9365C17.9517 74.2158 18.4097 73.7915 19.0781 73.7915L47.1997 73.7915C47.853 73.7915 48.311 74.2158 48.311 74.9365L48.311 92.2798C48.311 93.0005 47.853 93.4585 47.1997 93.4585ZM61.481 100.148L102.97 100.148C103.701 100.148 104.267 99.5488 104.267 98.8364L104.267 12.355C104.267 11.624 103.701 11.043 102.97 11.043L61.481 11.043C60.7837 11.043 60.2027 11.624 60.2027 12.355L60.2027 98.8364C60.2027 99.5488 60.7837 100.148 61.481 100.148ZM68.1738 37.5884C67.5205 37.5884 67.0625 37.1455 67.0625 36.4248L67.0625 19.0816C67.0625 18.3609 67.5205 17.9365 68.1738 17.9365L96.2954 17.9365C96.9639 17.9365 97.3882 18.3609 97.3882 19.0816L97.3882 36.4248C97.3882 37.1455 96.9639 37.5884 96.2954 37.5884ZM68.1738 65.4199C67.5205 65.4199 67.0625 64.9771 67.0625 64.2749L67.0625 46.9131C67.0625 46.211 67.5205 45.7681 68.1738 45.7681L96.2954 45.7681C96.9639 45.7681 97.3882 46.211 97.3882 46.9131L97.3882 64.2749C97.3882 64.9771 96.9639 65.4199 96.2954 65.4199ZM68.1738 93.2549C67.5205 93.2549 67.0625 92.812 67.0625 92.1099L67.0625 74.7481C67.0625 74.0459 67.5205 73.603 68.1738 73.603L96.2954 73.603C96.9639 73.603 97.3882 74.0459 97.3882 74.7481L97.3882 92.1099C97.3882 92.812 96.9639 93.2549 96.2954 93.2549Z" fill="#000000" fill-opacity="0.85"/>
 </g>
</svg>
