<?xml version="1.0" encoding="UTF-8"?>
<!--Generator: Apple Native CoreSVG 232.5-->
<!DOCTYPE svg
PUBLIC "-//W3C//DTD SVG 1.1//EN"
       "http://www.w3.org/Graphics/SVG/1.1/DTD/svg11.dtd">
<svg version="1.1" xmlns="http://www.w3.org/2000/svg" xmlns:xlink="http://www.w3.org/1999/xlink" width="139.119" height="101.755">
 <g>
  <rect height="101.755" opacity="0" width="139.119" x="0" y="0"/>
  <path d="M2.99805 101.706C4.72609 101.706 6.06007 100.372 6.06007 98.6929L6.06007 8.61769C6.06007 7.05519 7.07033 6.04494 8.53517 6.04494L130.584 6.04494C132.033 6.04494 133.059 7.05519 133.059 8.61769L133.059 98.6929C133.059 100.372 134.393 101.706 136.105 101.706C137.785 101.706 139.119 100.372 139.119 98.6929L139.119 8.14455C139.119 3.27735 135.777 0 130.73 0L8.38869 0C3.35987 0 0 3.27735 0 8.14455L0 98.6929C0 100.372 1.33399 101.706 2.99805 101.706Z" fill="#000000" fill-opacity="0.85"/>
  <path d="M12.4038 31.2803L126.733 31.2803C127.446 31.2803 128.012 30.6992 128.012 30.002L128.012 12.355C128.012 11.624 127.446 11.043 126.733 11.043L12.4038 11.043C11.6729 11.043 11.107 11.624 11.107 12.355L11.107 30.002C11.107 30.6992 11.6729 31.2803 12.4038 31.2803ZM59.084 23.3633C57.7891 23.3633 56.8579 22.4473 56.8579 21.1861C56.8579 19.876 57.7891 18.96 59.084 18.96L80.0835 18.96C81.3447 18.96 82.2759 19.876 82.2759 21.1861C82.2759 22.4473 81.3447 23.3633 80.0835 23.3633Z" fill="#000000" fill-opacity="0.85"/>
 </g>
</svg>
