<?xml version="1.0" encoding="UTF-8"?>
<!--Generator: Apple Native CoreSVG 232.5-->
<!DOCTYPE svg
PUBLIC "-//W3C//DTD SVG 1.1//EN"
       "http://www.w3.org/Graphics/SVG/1.1/DTD/svg11.dtd">
<svg version="1.1" xmlns="http://www.w3.org/2000/svg" xmlns:xlink="http://www.w3.org/1999/xlink" width="115.374" height="101.755">
 <g>
  <rect height="101.755" opacity="0" width="115.374" x="0" y="0"/>
  <path d="M2.99805 101.706C4.72609 101.706 6.06007 100.372 6.06007 98.6929L6.06007 8.61769C6.06007 7.05519 7.07033 6.04494 8.53517 6.04494L106.838 6.04494C108.303 6.04494 109.313 7.05519 109.313 8.61769L109.313 98.6929C109.313 100.372 110.647 101.706 112.342 101.706C114.04 101.706 115.374 100.372 115.374 98.6929L115.374 8.14455C115.374 3.27735 112.014 0 106.951 0L8.38869 0C3.35987 0 0 3.27735 0 8.14455L0 98.6929C0 100.372 1.33399 101.706 2.99805 101.706Z" fill="#000000" fill-opacity="0.85"/>
  <path d="M12.4038 31.2803L102.97 31.2803C103.701 31.2803 104.267 30.6992 104.267 30.002L104.267 12.355C104.267 11.624 103.701 11.043 102.97 11.043L12.4038 11.043C11.6729 11.043 11.107 11.624 11.107 12.355L11.107 30.002C11.107 30.6992 11.6729 31.2803 12.4038 31.2803ZM47.8306 23.3633C46.5357 23.3633 45.6382 22.4473 45.6382 21.1861C45.6382 19.876 46.5357 18.96 47.8306 18.96L67.543 18.96C68.8379 18.96 69.7354 19.876 69.7354 21.1861C69.7354 22.4473 68.8379 23.3633 67.543 23.3633Z" fill="#000000" fill-opacity="0.85"/>
 </g>
</svg>
