<?xml version="1.0" encoding="UTF-8"?>
<!--Generator: Apple Native CoreSVG 232.5-->
<!DOCTYPE svg
PUBLIC "-//W3C//DTD SVG 1.1//EN"
       "http://www.w3.org/Graphics/SVG/1.1/DTD/svg11.dtd">
<svg version="1.1" xmlns="http://www.w3.org/2000/svg" xmlns:xlink="http://www.w3.org/1999/xlink" width="70.5996" height="101.755">
 <g>
  <rect height="101.755" opacity="0" width="70.5996" x="0" y="0"/>
  <path d="M2.99805 101.706C4.72609 101.706 6.06007 100.372 6.06007 98.6929L6.06007 8.61769C6.06007 7.05519 7.07033 6.04494 8.53517 6.04494L62.0796 6.04494C63.5293 6.04494 64.5396 7.05519 64.5396 8.61769L64.5396 98.6929C64.5396 100.372 65.8736 101.706 67.6016 101.706C69.2808 101.706 70.5996 100.372 70.5996 98.6929L70.5996 8.14455C70.5996 3.27735 67.2735 0 62.211 0L8.38869 0C3.35987 0 0 3.27735 0 8.14455L0 98.6929C0 100.372 1.33399 101.706 2.99805 101.706Z" fill="#000000" fill-opacity="0.85"/>
  <path d="M12.4038 100.148L58.2295 100.148C58.9268 100.148 59.5078 99.5488 59.5078 98.8364L59.5078 12.355C59.5078 11.624 58.9268 11.043 58.2295 11.043L12.4038 11.043C11.6729 11.043 11.107 11.624 11.107 12.355L11.107 98.8364C11.107 99.5488 11.6729 100.148 12.4038 100.148ZM48.2954 59.8311C46.2983 59.8311 44.7222 58.2398 44.7222 56.2578C44.7222 54.2271 46.2983 52.6846 48.2954 52.6846C50.311 52.6846 51.8687 54.2271 51.8687 56.2578C51.8687 58.2398 50.311 59.8311 48.2954 59.8311Z" fill="#000000" fill-opacity="0.85"/>
 </g>
</svg>
