<?xml version="1.0" encoding="UTF-8"?>
<!--Generator: Apple Native CoreSVG 232.5-->
<!DOCTYPE svg
PUBLIC "-//W3C//DTD SVG 1.1//EN"
       "http://www.w3.org/Graphics/SVG/1.1/DTD/svg11.dtd">
<svg version="1.1" xmlns="http://www.w3.org/2000/svg" xmlns:xlink="http://www.w3.org/1999/xlink" width="70.5996" height="101.755">
 <g>
  <rect height="101.755" opacity="0" width="70.5996" x="0" y="0"/>
  <path d="M70.5996 98.6929L70.5996 8.14455C70.5996 3.27735 67.2735 0 62.211 0L8.38869 0C3.35987 0 0 3.27735 0 8.14455L0 98.6929C0 100.372 1.33399 101.706 2.99805 101.706C4.72609 101.706 6.06007 100.372 6.06007 98.6929L6.06007 8.61769C6.06007 7.05519 7.07033 6.04494 8.53517 6.04494L62.0796 6.04494C63.5293 6.04494 64.5396 7.05519 64.5396 8.61769L64.5396 98.6929C64.5396 100.372 65.8736 101.706 67.6016 101.706C69.2808 101.706 70.5996 100.372 70.5996 98.6929Z" fill="#000000" fill-opacity="0.85"/>
  <path d="M59.5078 99.2105L59.5078 11.9658C59.5078 11.1406 58.8325 10.728 58.0562 11.0733L41.6309 18.6055C40.6255 19.0332 40.3037 19.4424 40.3037 20.4361L40.3037 90.7066C40.3037 91.7339 40.6709 92.1245 41.7554 92.6011L58.0562 100.069C58.8325 100.415 59.5078 100.002 59.5078 99.2105Z" fill="#000000" fill-opacity="0.85"/>
 </g>
</svg>
