<?xml version="1.0" encoding="UTF-8"?>
<!--Generator: Apple Native CoreSVG 232.5-->
<!DOCTYPE svg
PUBLIC "-//W3C//DTD SVG 1.1//EN"
       "http://www.w3.org/Graphics/SVG/1.1/DTD/svg11.dtd">
<svg version="1.1" xmlns="http://www.w3.org/2000/svg" xmlns:xlink="http://www.w3.org/1999/xlink" width="88.4092" height="88.4766">
 <g>
  <rect height="88.4766" opacity="0" width="88.4092" x="0" y="0"/>
  <path d="M0 85.1118C0 87.1226 1.30518 88.3941 3.31592 88.3941L85.1118 88.3941C87.1226 88.3941 88.4092 87.1226 88.4092 85.1118L88.4092 3.31592C88.4092 1.30518 87.1226 0 85.1118 0L3.31592 0C1.30518 0 0 1.30518 0 3.31592ZM6.04494 81.0996L6.04494 7.27931C6.04494 6.42042 6.42042 6.0298 7.29445 6.0298L81.1147 6.0298C82.0073 6.0298 82.3643 6.42042 82.3643 7.27931L82.3643 81.0996C82.3643 82.0073 82.0073 82.3643 81.1147 82.3643L7.29445 82.3643C6.42042 82.3643 6.04494 82.0073 6.04494 81.0996Z" fill="#000000" fill-opacity="0.85"/>
  <path d="M44.2964 58.9434C52.3784 58.9434 59.105 52.2808 59.105 44.165C59.105 36.019 52.3784 29.3413 44.2964 29.3413C36.1504 29.3413 29.4541 36.019 29.4541 44.165C29.4541 52.2808 36.1807 58.9434 44.2964 58.9434Z" fill="#000000" fill-opacity="0.85"/>
 </g>
</svg>
