<?xml version="1.0" encoding="UTF-8"?>
<!--Generator: Apple Native CoreSVG 232.5-->
<!DOCTYPE svg
PUBLIC "-//W3C//DTD SVG 1.1//EN"
       "http://www.w3.org/Graphics/SVG/1.1/DTD/svg11.dtd">
<svg version="1.1" xmlns="http://www.w3.org/2000/svg" xmlns:xlink="http://www.w3.org/1999/xlink" width="116.555" height="116.619">
 <g>
  <rect height="116.619" opacity="0" width="116.555" x="0" y="0"/>
  <path d="M58.2852 104.102C83.4487 104.102 103.955 83.5464 103.955 58.334C103.955 33.1367 83.4487 12.5664 58.2852 12.5664C33.1065 12.5664 12.6001 33.1367 12.6001 58.334C12.6001 83.5464 33.1065 104.102 58.2852 104.102ZM58.2852 98.0347C36.3521 98.0347 18.8203 80.417 18.8203 58.334C18.8203 36.251 36.3521 18.6333 58.2852 18.6333C80.2183 18.6333 97.7349 36.251 97.7349 58.334C97.7349 80.417 80.2183 98.0347 58.2852 98.0347ZM58.2549 116.619C59.8296 116.619 60.9951 115.375 60.9951 113.845L60.9951 81.2275C60.9951 79.6982 59.8296 78.4873 58.2549 78.4873C56.7407 78.4873 55.5415 79.6982 55.5415 81.2275L55.5415 113.845C55.5415 115.375 56.7407 116.619 58.2549 116.619ZM2.77393 61.0777L35.3916 61.0777C36.9209 61.0777 38.1655 59.8784 38.1655 58.3643C38.1655 56.7896 36.9209 55.624 35.3916 55.624L2.77393 55.624C1.24463 55.624 0 56.7896 0 58.3643C0 59.8784 1.24463 61.0777 2.77393 61.0777ZM58.2549 38.2144C59.8296 38.2144 60.9951 36.9697 60.9951 35.4404L60.9951 2.82276C60.9951 1.29346 59.8296 0.0488281 58.2549 0.0488281C56.7407 0.0488281 55.5415 1.29346 55.5415 2.82276L55.5415 35.4404C55.5415 36.9697 56.7407 38.2144 58.2549 38.2144ZM81.1636 61.0777L113.796 61.0777C115.326 61.0777 116.555 59.8784 116.555 58.3643C116.555 56.7896 115.326 55.624 113.796 55.624L81.1636 55.624C79.6494 55.624 78.4048 56.7896 78.4048 58.3643C78.4048 59.8784 79.6494 61.0777 81.1636 61.0777Z" fill="#000000" fill-opacity="0.85"/>
  <path d="M58.334 66.3169C62.7085 66.3169 66.2832 62.7085 66.2832 58.2852C66.2832 53.9107 62.7085 50.3359 58.334 50.3359C53.9107 50.3359 50.3023 53.9107 50.3023 58.2852C50.3023 62.7085 53.9107 66.3169 58.334 66.3169Z" fill="#000000" fill-opacity="0.85"/>
 </g>
</svg>
