<?xml version="1.0" encoding="UTF-8"?>
<!--Generator: Apple Native CoreSVG 232.5-->
<!DOCTYPE svg
PUBLIC "-//W3C//DTD SVG 1.1//EN"
       "http://www.w3.org/Graphics/SVG/1.1/DTD/svg11.dtd">
<svg version="1.1" xmlns="http://www.w3.org/2000/svg" xmlns:xlink="http://www.w3.org/1999/xlink" width="139.525" height="116.771">
 <g>
  <rect height="116.771" opacity="0" width="139.525" x="0" y="0"/>
  <path d="M104.939 52.8804L104.835 54.9127C104.506 55.0648 104.193 55.2392 103.893 55.4297C102.283 54.3253 100.466 53.7371 98.549 53.6495C98.5853 53.3993 98.5876 53.1401 98.5876 52.8804C98.5876 29.2583 79.6228 10.2261 55.9333 10.2261C32.2776 10.2261 13.3464 29.2583 13.3464 52.8804C13.3464 76.5025 32.345 95.5196 55.967 95.5196C61.8312 95.5196 67.4137 94.3442 72.4902 92.211L76.4672 97.2271C70.2318 100.209 63.2715 101.853 55.967 101.853C29.1296 101.853 6.99485 79.7178 6.99485 52.8804C6.99485 26.0279 29.0959 3.8931 55.967 3.8931C82.8044 3.8931 104.939 26.0279 104.939 52.8804Z" fill="#000000" fill-opacity="0.85"/>
  <path d="M70.8093 52.8619C70.8093 61.0113 64.0828 67.689 56.0007 67.689C47.885 67.689 41.1584 61.0113 41.1584 52.8619C41.1584 44.7647 47.8547 38.087 56.0007 38.087C64.0828 38.087 70.8093 44.7647 70.8093 52.8619Z" fill="#000000" fill-opacity="0.85"/>
  <path d="M116.99 109.372C132.413 103.765 137.479 91.5943 131.319 74.5938L128.98 68.0957C126.734 61.8238 122.253 59.1011 118.771 60.3067C117.99 60.6485 117.731 61.2007 117.99 61.982L119.189 65.2549C119.65 66.4776 119.189 67.3179 118.48 67.5992C117.655 67.8619 116.799 67.4829 116.368 66.2603L115.526 63.9976C114.208 60.2715 110.906 58.7242 107.65 59.896C106.17 60.4331 105.727 61.2632 106.2 62.5176L107.823 66.9287C108.254 68.1177 107.857 69.0069 107.133 69.2696C106.289 69.5508 105.433 69.1568 104.987 67.9678L103.51 63.8648C101.997 59.6167 98.7742 58.5425 95.6492 59.6656C94.282 60.2027 93.7634 61.1304 94.2029 62.3023L97.2385 70.751C97.6848 72.0074 97.2722 72.8291 96.5632 73.1255C95.7717 73.4068 94.8826 73.0127 94.4514 71.7564L84.7175 44.9356C83.6921 42.2315 81.4055 41.1387 79.1594 41.9839C76.7634 42.8511 75.6892 45.1646 76.6506 47.835L90.6516 86.2413C90.9631 87.127 90.554 87.8628 89.9192 88.0582C89.3635 88.272 88.7742 88.1221 88.0046 87.3526L78.2776 76.9805C76.7488 75.3843 75.2502 75.0728 73.7146 75.6285C71.2244 76.5713 70.4177 78.8057 71.135 80.8716C71.3791 81.6075 71.8186 82.2608 72.2732 82.7945L84.6619 98.4747C94.2449 110.491 105.811 113.454 116.99 109.372Z" fill="#000000" fill-opacity="0.85"/>
 </g>
</svg>
