<?xml version="1.0" encoding="UTF-8"?>
<!--Generator: Apple Native CoreSVG 232.5-->
<!DOCTYPE svg
PUBLIC "-//W3C//DTD SVG 1.1//EN"
       "http://www.w3.org/Graphics/SVG/1.1/DTD/svg11.dtd">
<svg version="1.1" xmlns="http://www.w3.org/2000/svg" xmlns:xlink="http://www.w3.org/1999/xlink" width="88.4092" height="88.5371">
 <g>
  <rect height="88.5371" opacity="0" width="88.4092" x="0" y="0"/>
  <path d="M88.4092 14.4019L88.4092 74.2632C88.4092 83.6558 83.5733 88.5371 74.0005 88.5371L14.3936 88.5371C4.86963 88.5371 0 83.7349 0 74.2632L0 14.4019C0 4.93018 4.86963 0.127929 14.3936 0.127929L74.0005 0.127929C83.5733 0.127929 88.4092 5.00928 88.4092 14.4019ZM28.6646 44.1314C28.6646 52.7925 35.7329 59.8272 44.3115 59.8272C52.875 59.8272 59.9434 52.7925 59.9434 44.1314C59.9434 35.6167 52.875 28.582 44.3115 28.582C35.7329 28.582 28.6646 35.6167 28.6646 44.1314Z" fill="#000000" fill-opacity="0.85"/>
 </g>
</svg>
