<?xml version="1.0" encoding="UTF-8"?>
<!--Generator: Apple Native CoreSVG 232.5-->
<!DOCTYPE svg
PUBLIC "-//W3C//DTD SVG 1.1//EN"
       "http://www.w3.org/Graphics/SVG/1.1/DTD/svg11.dtd">
<svg version="1.1" xmlns="http://www.w3.org/2000/svg" xmlns:xlink="http://www.w3.org/1999/xlink" width="72.8223" height="73.2686">
 <g>
  <rect height="73.2686" opacity="0" width="72.8223" x="0" y="0"/>
  <path d="M1.64062 2.99805C1.64062 4.64698 3.03857 6.0298 4.6875 6.0298C38.9272 6.0298 66.7773 33.895 66.7773 68.1348C66.7773 69.7837 68.1602 71.1665 69.8242 71.1665C71.4731 71.1665 72.8223 69.7837 72.8223 68.1348C72.8223 30.5669 42.2251 0 4.6875 0C3.03857 0 1.64062 1.34912 1.64062 2.99805Z" fill="#000000" fill-opacity="0.85"/>
  <path d="M1.64062 23.6372C1.64062 25.3013 3.03857 26.6504 4.6875 26.6504C27.6143 26.6504 46.1719 45.208 46.1719 68.1348C46.1719 69.7837 47.521 71.1665 49.1699 71.1665C50.8189 71.1665 52.2017 69.7837 52.2017 68.1348C52.2017 41.895 30.9121 20.6055 4.6875 20.6055C3.03857 20.6055 1.64062 21.9883 1.64062 23.6372Z" fill="#000000" fill-opacity="0.85"/>
  <path d="M1.64062 43.022C1.64062 44.686 3.03857 46.0352 4.6875 46.0352C16.8418 46.0352 26.7871 55.9805 26.7871 68.1348C26.7871 69.7837 28.1362 71.1665 29.7852 71.1665C31.4341 71.1665 32.8169 69.7837 32.8169 68.1348C32.8169 52.6489 20.1397 39.9902 4.6875 39.9902C3.03857 39.9902 1.64062 41.3731 1.64062 43.022Z" fill="#000000" fill-opacity="0.85"/>
  <path d="M6.67969 72.8374C10.3218 72.8374 13.3071 69.8184 13.3071 66.21C13.3071 62.519 10.3706 59.5791 6.67969 59.5791C3.05274 59.5791 0 62.6655 0 66.3565C0 69.8184 3.13525 72.8374 6.67969 72.8374Z" fill="#000000" fill-opacity="0.85"/>
 </g>
</svg>
