<?xml version="1.0" encoding="UTF-8"?>
<!--Generator: Apple Native CoreSVG 232.5-->
<!DOCTYPE svg
PUBLIC "-//W3C//DTD SVG 1.1//EN"
       "http://www.w3.org/Graphics/SVG/1.1/DTD/svg11.dtd">
<svg version="1.1" xmlns="http://www.w3.org/2000/svg" xmlns:xlink="http://www.w3.org/1999/xlink" width="76.9678" height="92.8785">
 <g>
  <rect height="92.8785" opacity="0" width="76.9678" x="0" y="0"/>
  <path d="M54.1045 91.8919C55.2549 93.1434 57.2861 93.2933 58.7027 91.8245C70.1875 79.9842 76.9678 64.1146 76.9678 46.6102C76.9678 29.1058 70.4063 12.9837 58.7027 1.36211C57.2861-0.121776 55.2549 0.0281268 54.1045 1.29473C52.9541 2.59503 53.2202 4.44269 54.5542 5.84406C65.1074 16.2816 70.8706 30.7244 70.8706 46.6102C70.8706 62.4808 64.8887 76.6712 54.5542 87.3426C53.2202 88.7288 52.9541 90.6253 54.1045 91.8919Z" fill="#000000" fill-opacity="0.85"/>
  <path d="M40.2505 79.0701C41.4497 80.453 43.5484 80.453 44.9986 78.9168C53.0435 70.4154 57.6904 59.0145 57.6904 46.6102C57.6904 34.1907 53.168 22.6653 44.9986 14.3035C43.5484 12.7186 41.4346 12.7186 40.2505 14.1351C39.0664 15.4691 39.4639 17.2645 40.7827 18.7518C47.7681 25.9783 51.5933 35.7908 51.5933 46.6102C51.5933 57.3958 47.6436 67.1175 40.7827 74.4686C39.4639 75.9559 39.0664 77.7176 40.2505 79.0701Z" fill="#000000" fill-opacity="0.85"/>
  <path d="M26.8359 65.3812C28.0689 66.764 30.3023 66.7977 31.6328 65.1453C35.9566 60.1444 38.4619 53.6365 38.4619 46.6102C38.4619 39.5838 35.9566 33.012 31.6328 28.0599C30.3023 26.389 28.0689 26.4227 26.8359 27.8392C25.667 29.158 26.1841 30.8372 27.3496 32.4407C30.624 36.1937 32.3647 41.1839 32.3647 46.6102C32.3647 52.0364 30.7183 57.0721 27.3496 60.7645C26.1201 62.3192 25.667 64.0472 26.8359 65.3812Z" fill="#000000" fill-opacity="0.85"/>
  <path d="M0 46.5125C0 51.0672 3.9502 54.9197 8.60254 54.9197C13.2549 54.9197 17.1074 51.0672 17.1074 46.4149C17.1074 41.7137 13.3525 37.8611 8.60254 37.8611C3.90137 37.8611 0 41.8113 0 46.5125Z" fill="#000000" fill-opacity="0.85"/>
 </g>
</svg>
