<?xml version="1.0" encoding="UTF-8"?>
<!--Generator: Apple Native CoreSVG 232.5-->
<!DOCTYPE svg
PUBLIC "-//W3C//DTD SVG 1.1//EN"
       "http://www.w3.org/Graphics/SVG/1.1/DTD/svg11.dtd">
<svg version="1.1" xmlns="http://www.w3.org/2000/svg" xmlns:xlink="http://www.w3.org/1999/xlink" width="97.9595" height="97.9932">
 <g>
  <rect height="97.9932" opacity="0" width="97.9595" x="0" y="0"/>
  <path d="M48.9722 97.9443C75.8247 97.9443 97.9595 75.7759 97.9595 48.9722C97.9595 22.1348 75.791 0 48.9385 0C22.1348 0 0 22.1348 0 48.9722C0 75.7759 22.1685 97.9443 48.9722 97.9443ZM48.9722 91.6113C25.3501 91.6113 6.36671 72.5942 6.36671 48.9722C6.36671 25.3501 25.3164 6.31789 48.9385 6.31789C72.5605 6.31789 91.6265 25.3501 91.6265 48.9722C91.6265 72.5942 72.5942 91.6113 48.9722 91.6113Z" fill="#000000" fill-opacity="0.85"/>
  <path d="M48.9233 67.7554C59.2578 67.7554 67.7705 59.2241 67.7705 48.9722C67.7705 38.6865 59.2578 30.1738 48.9233 30.1738C38.7202 30.1738 30.1738 38.6865 30.1738 48.9722C30.1738 59.2241 38.7202 67.7554 48.9233 67.7554ZM57.5425 21.1035L50.9556 12.6865C49.979 11.3867 48.1001 11.3867 47.0562 12.6865L40.4356 21.1035C38.9941 22.9019 39.9067 25.2676 42.2339 25.2676L55.7139 25.2676C58.0376 25.2676 58.9502 22.8496 57.5425 21.1035ZM76.8745 57.5425L85.2915 50.9556C86.5913 49.979 86.5913 48.0664 85.2915 47.041L76.8745 40.4204C75.061 38.9941 72.7105 39.8731 72.7105 42.2339L72.7105 55.6802C72.7105 58.0039 75.1284 58.9165 76.8745 57.5425ZM57.5425 76.8745C58.9502 75.1284 58.0376 72.7105 55.7139 72.7105L42.2339 72.7105C39.9067 72.7105 38.9941 75.061 40.4356 76.8745L47.0562 85.2915C48.1001 86.5913 49.979 86.5913 50.9556 85.2915ZM21.1035 57.5425C22.8833 58.9165 25.2676 58.0039 25.2676 55.6802L25.2676 42.2339C25.2676 39.8731 22.9507 38.9941 21.1035 40.4204L12.6865 47.041C11.3867 48.0664 11.3867 49.979 12.6865 50.9556Z" fill="#000000" fill-opacity="0.85"/>
 </g>
</svg>
