<?xml version="1.0" encoding="UTF-8"?>
<!--Generator: Apple Native CoreSVG 232.5-->
<!DOCTYPE svg
PUBLIC "-//W3C//DTD SVG 1.1//EN"
       "http://www.w3.org/Graphics/SVG/1.1/DTD/svg11.dtd">
<svg version="1.1" xmlns="http://www.w3.org/2000/svg" xmlns:xlink="http://www.w3.org/1999/xlink" width="65.8594" height="97.084">
 <g>
  <rect height="97.084" opacity="0" width="65.8594" x="0" y="0"/>
  <path d="M32.9297 97.084C52.6973 97.084 65.8594 84.2149 65.8594 64.9507C65.8594 55.957 62.3081 46.3462 58.8218 38.6563C53.6275 27.1763 45.8482 14.6455 38.7193 3.65576C37.207 1.35547 35.4927 0.0385731 32.9297 0.0385731C30.3667 0.0385731 28.6523 1.35547 27.1401 3.65576C20.0112 14.6455 12.2319 27.1763 7.03759 38.6563C3.58496 46.3462 0 55.957 0 64.9507C0 84.2149 13.1621 97.084 32.9297 97.084ZM32.9297 90.9077C16.8574 90.9077 6.17628 80.5347 6.17628 64.9507C6.17628 57.291 9.22218 49.1338 12.5772 41.6358C17.8945 29.5054 25.0454 18.5498 31.9873 8.05031C32.5562 7.19875 33.3857 7.19875 33.8906 8.05031C40.814 18.5498 47.9834 29.5054 53.2485 41.6021C56.6372 49.1338 59.7168 57.291 59.7168 64.9507C59.7168 80.5347 49.002 90.9077 32.9297 90.9077Z" fill="#000000" fill-opacity="0.85"/>
 </g>
</svg>
