<?xml version="1.0" encoding="UTF-8"?>
<!--Generator: Apple Native CoreSVG 232.5-->
<!DOCTYPE svg
PUBLIC "-//W3C//DTD SVG 1.1//EN"
       "http://www.w3.org/Graphics/SVG/1.1/DTD/svg11.dtd">
<svg version="1.1" xmlns="http://www.w3.org/2000/svg" xmlns:xlink="http://www.w3.org/1999/xlink" width="100.554" height="119.53">
 <g>
  <rect height="119.53" opacity="0" width="100.554" x="0" y="0"/>
  <path d="M23.1524 52.5578C23.1025 52.6558 23.0579 52.7573 23.0133 52.8589C19.6584 60.3569 16.5788 68.5142 16.5788 76.1738C16.5788 91.7578 27.2785 102.131 43.3659 102.131C52.236 102.131 59.4595 98.9714 64.1385 93.5077L68.6093 97.9745C62.8439 104.528 54.0704 108.307 43.3659 108.307C23.5983 108.307 10.4362 95.438 10.4362 76.1738C10.4362 67.1802 13.9875 57.5693 17.4738 49.8794C17.7765 49.2084 18.0882 48.5338 18.4363 47.8457ZM49.1554 14.8789C56.2692 25.8687 64.0636 38.3994 69.2428 49.8794C72.7106 57.5693 76.2956 67.1802 76.2956 76.1738C76.2956 78.4283 76.1151 80.5951 75.7484 82.6548L70.0693 76.9793C70.1008 76.7209 70.1041 76.4482 70.1041 76.1738C70.1041 68.5142 67.0397 60.3569 63.6847 52.8252C58.4196 40.7285 51.2501 29.773 44.3268 19.2735C43.8219 18.4219 42.9587 18.4219 42.4235 19.2735C38.4851 25.2303 34.4794 31.3339 30.7904 37.7255L26.2322 33.1703C29.8696 26.8974 33.81 20.6739 37.5612 14.8789C39.0734 12.5786 40.7692 11.2617 43.3659 11.2617C45.88 11.2617 47.6432 12.5786 49.1554 14.8789ZM90.1179 13.9121C90.1179 21.7017 84.029 27.7905 76.2209 27.7905C68.4616 27.7905 62.3576 21.7017 62.3576 13.9121C62.3576 6.10401 68.4616 0 76.2209 0C84.029 0 90.1179 6.10401 90.1179 13.9121ZM67.7438 13.9121C67.7438 18.6768 71.4714 22.4043 76.2209 22.4043C81.0192 22.4043 84.7316 18.6768 84.7316 13.9121C84.7316 9.11378 81.0192 5.40138 76.2209 5.40138C71.4714 5.40138 67.7438 9.11378 67.7438 13.9121Z" fill="#000000" fill-opacity="0.85"/>
  <path d="M82.2672 104.554C83.4328 105.701 85.2653 105.716 86.3937 104.554C87.5558 103.374 87.5593 101.56 86.3937 100.428L10.0251 24.0591C8.90836 22.9424 7.07583 22.9121 5.86489 24.0591C4.76675 25.2061 4.73305 27.0537 5.86489 28.2007Z" fill="#000000" fill-opacity="0.85"/>
 </g>
</svg>
