<?xml version="1.0" encoding="UTF-8"?>
<!--Generator: Apple Native CoreSVG 232.5-->
<!DOCTYPE svg
PUBLIC "-//W3C//DTD SVG 1.1//EN"
       "http://www.w3.org/Graphics/SVG/1.1/DTD/svg11.dtd">
<svg version="1.1" xmlns="http://www.w3.org/2000/svg" xmlns:xlink="http://www.w3.org/1999/xlink" width="105.372" height="76.7959">
 <g>
  <rect height="76.7959" opacity="0" width="105.372" x="0" y="0"/>
  <path d="M105.372 14.4019L105.372 62.522C105.372 71.9146 100.536 76.7959 91.0117 76.7959L14.3936 76.7959C4.86963 76.7959 0 71.96 0 62.522L0 14.4019C0 4.96387 4.86963 0.127929 14.3936 0.127929L91.0117 0.127929C100.536 0.127929 105.372 5.00928 105.372 14.4019ZM31.502 17.6939C28.148 22.8916 24.4653 29.0225 22.0391 34.2017C20.3994 37.7402 18.7139 41.7642 18.7139 45.8897C18.7139 54.6065 24.7451 60.4424 33.7246 60.4424C42.689 60.4424 48.7051 54.6065 48.7051 45.8897C48.7051 41.7642 47.0161 37.7402 45.3462 34.2017C42.9839 29.0225 39.3013 22.8916 35.8984 17.6939C35.2266 16.7139 34.6035 16.3047 33.7246 16.3047C32.7969 16.3047 32.1738 16.7139 31.502 17.6939ZM59.3189 53.7832C59.3189 56.8394 61.7285 59.2979 64.8335 59.2979C67.8897 59.2979 70.333 56.8394 70.333 53.7832C70.333 50.7271 67.8897 48.2686 64.8335 48.2686C61.7285 48.2686 59.3189 50.7271 59.3189 53.7832ZM76.4863 53.7832C76.4863 56.8394 78.9297 59.2979 81.9859 59.2979C85.042 59.2979 87.5005 56.8394 87.5005 53.7832C87.5005 50.7271 85.042 48.2686 81.9859 48.2686C78.9297 48.2686 76.4863 50.7271 76.4863 53.7832ZM59.3189 38.3735C59.3189 41.4297 61.7285 43.8882 64.8335 43.8882C67.8897 43.8882 70.333 41.4297 70.333 38.3735C70.333 35.3174 67.8897 32.8589 64.8335 32.8589C61.7285 32.8589 59.3189 35.3174 59.3189 38.3735ZM76.4863 38.3735C76.4863 41.4297 78.9297 43.8882 81.9859 43.8882C85.042 43.8882 87.5005 41.4297 87.5005 38.3735C87.5005 35.3174 85.042 32.8589 81.9859 32.8589C78.9297 32.8589 76.4863 35.3174 76.4863 38.3735ZM59.3189 22.9639C59.3189 26.02 61.7285 28.4785 64.8335 28.4785C67.8897 28.4785 70.333 26.02 70.333 22.9639C70.333 19.9077 67.8897 17.4492 64.8335 17.4492C61.7285 17.4492 59.3189 19.9077 59.3189 22.9639ZM76.4863 22.9639C76.4863 26.02 78.9297 28.4785 81.9859 28.4785C85.042 28.4785 87.5005 26.02 87.5005 22.9639C87.5005 19.9077 85.042 17.4492 81.9859 17.4492C78.9297 17.4492 76.4863 19.9077 76.4863 22.9639Z" fill="#000000" fill-opacity="0.85"/>
 </g>
</svg>
