<?xml version="1.0" encoding="UTF-8"?>
<!--Generator: Apple Native CoreSVG 232.5-->
<!DOCTYPE svg
PUBLIC "-//W3C//DTD SVG 1.1//EN"
       "http://www.w3.org/Graphics/SVG/1.1/DTD/svg11.dtd">
<svg version="1.1" xmlns="http://www.w3.org/2000/svg" xmlns:xlink="http://www.w3.org/1999/xlink" width="97.9595" height="97.9932">
 <g>
  <rect height="97.9932" opacity="0" width="97.9595" x="0" y="0"/>
  <path d="M48.9722 97.9443C75.8247 97.9443 97.9595 75.7759 97.9595 48.9722C97.9595 22.1348 75.791 0 48.9385 0C22.1348 0 0 22.1348 0 48.9722C0 75.7759 22.1685 97.9443 48.9722 97.9443ZM48.9722 91.6113C25.3501 91.6113 6.36671 72.5942 6.36671 48.9722C6.36671 25.3501 25.3164 6.31789 48.9385 6.31789C72.5605 6.31789 91.6265 25.3501 91.6265 48.9722C91.6265 72.5942 72.5942 91.6113 48.9722 91.6113Z" fill="#000000" fill-opacity="0.85"/>
  <path d="M65.5176 21.9199L32.1724 21.9199C28.8384 21.9199 26.6157 24.2705 26.6157 27.8115L26.6157 35.0747L71.0894 35.0747L71.0894 27.8115C71.0894 24.2705 68.8667 21.9199 65.5176 21.9199ZM35.6592 31.9111C34.3594 31.9111 33.2734 30.8218 33.2734 29.4917C33.2734 28.1582 34.3594 27.0723 35.6592 27.0723C36.9893 27.0723 38.0449 28.1582 38.0449 29.4917C38.0449 30.8218 36.9893 31.9111 35.6592 31.9111ZM42.6094 31.9111C41.2456 31.9111 40.2388 30.8218 40.2388 29.4917C40.2388 28.1582 41.2456 27.0723 42.6094 27.0723C43.9092 27.0723 44.9648 28.1582 44.9648 29.4917C44.9648 30.8218 43.9092 31.9111 42.6094 31.9111ZM56.6065 30.8472C55.8218 30.8472 55.251 30.2764 55.251 29.4917C55.251 28.7373 55.8218 28.1362 56.6065 28.1362L63.4956 28.1362C64.25 28.1362 64.8511 28.7373 64.8511 29.4917C64.8511 30.2764 64.25 30.8472 63.4956 30.8472ZM32.1724 75.856L65.5176 75.856C68.8667 75.856 71.0894 73.5391 71.0894 69.998L71.0894 38.2085L26.6157 38.2085L26.6157 69.998C26.6157 73.5391 28.8384 75.856 32.1724 75.856ZM38.9102 68.5586C36.5835 68.5586 34.9976 67.0064 34.9976 64.6191L34.9976 47.2095C34.9976 44.8525 36.5835 43.2666 38.9102 43.2666L58.7798 43.2666C61.1216 43.2666 62.7075 44.8525 62.7075 47.2095L62.7075 64.6191C62.7075 67.0064 61.1216 68.5586 58.7798 68.5586ZM39.2134 65.7769L58.4917 65.7769C59.4141 65.7769 59.8921 65.2651 59.8921 64.3311L59.8921 47.4976C59.8921 46.5635 59.4141 46.0332 58.4917 46.0332L39.2134 46.0332C38.2759 46.0332 37.7979 46.5635 37.7979 47.4976L37.7979 64.3311C37.7979 65.2651 38.2759 65.7769 39.2134 65.7769Z" fill="#000000" fill-opacity="0.85"/>
 </g>
</svg>
