<?xml version="1.0" encoding="UTF-8"?>
<!--Generator: Apple Native CoreSVG 232.5-->
<!DOCTYPE svg
PUBLIC "-//W3C//DTD SVG 1.1//EN"
       "http://www.w3.org/Graphics/SVG/1.1/DTD/svg11.dtd">
<svg version="1.1" xmlns="http://www.w3.org/2000/svg" xmlns:xlink="http://www.w3.org/1999/xlink" width="77.0762" height="111.86">
 <g>
  <rect height="111.86" opacity="0" width="77.0762" x="0" y="0"/>
  <path d="M77.0762 37.3023C77.0762 61.1577 60.0689 62.3428 49.6753 82.4771L45.9922 89.3394C41.52 97.8067 34.2109 102.376 24.5479 102.376C11.9277 102.376 3.72607 94.0396 3.72607 81.1533L3.72607 37.6792C3.72607 15.1992 18.7856 0 40.9307 0C62.6445 0 77.0762 14.8897 77.0762 37.3023ZM16.876 36.103L16.876 60.1504C16.876 61.7134 18.1577 63.0288 19.7056 63.0288C21.2686 63.0288 22.584 61.7134 22.584 60.1504L22.584 47.9971L38.4268 47.9971C42.186 47.9971 44.6641 50.3472 44.6641 53.7461C44.6641 55.4414 43.792 57.7041 42.5293 59.2412L36.6245 66.6748C36.126 67.3232 35.8599 68.0054 35.8599 68.7515C35.8599 70.3296 37.2056 71.5659 38.7534 71.5659C39.6494 71.5659 40.4512 71.1162 41.1299 70.2725L47.4775 62.2158C49.3735 59.8281 50.6314 56.2988 50.6314 53.4531C50.6314 46.7446 45.7549 42.2739 38.314 42.2739L22.584 42.2739L22.584 36.103C22.584 25.9863 29.5962 19.2402 40.791 19.2402C51.7397 19.2402 58.3276 25.8921 58.3276 36.103C58.3276 37.666 59.6245 38.9815 61.1724 38.9815C62.7354 38.9815 64.0508 37.666 64.0508 36.103C64.0508 22.564 55.0376 13.5171 40.791 13.5171C26.2983 13.5171 16.876 22.6397 16.876 36.103Z" fill="#000000" fill-opacity="0.85"/>
 </g>
</svg>
