<?xml version="1.0" encoding="UTF-8"?>
<!--Generator: Apple Native CoreSVG 232.5-->
<!DOCTYPE svg
PUBLIC "-//W3C//DTD SVG 1.1//EN"
       "http://www.w3.org/Graphics/SVG/1.1/DTD/svg11.dtd">
<svg version="1.1" xmlns="http://www.w3.org/2000/svg" xmlns:xlink="http://www.w3.org/1999/xlink" width="114.188" height="76.0068">
 <g>
  <rect height="76.0068" opacity="0" width="114.188" x="0" y="0"/>
  <path d="M29.7939 75.958L84.3941 75.958C104.328 75.958 114.188 66.6602 114.188 47.9292L114.188 31.7227L0 31.7227L0 47.9292C0 66.6602 9.875 75.958 29.7939 75.958ZM57.1016 48.7632C54.6802 48.7632 52.7319 46.815 52.7319 44.4087C52.7319 42.0025 54.6802 40.0054 57.1016 40.0054C59.5078 40.0054 61.4898 42.0025 61.4898 44.4087C61.4898 46.815 59.5078 48.7632 57.1016 48.7632ZM0 27.6235L114.188 27.6235L114.188 26.083C114.188 8.70654 103.771 0 84.4463 0L29.7939 0C10.4849 0 0 8.70654 0 26.083Z" fill="#000000" fill-opacity="0.85"/>
 </g>
</svg>
