<?xml version="1.0" encoding="UTF-8"?>
<!--Generator: Apple Native CoreSVG 232.5-->
<!DOCTYPE svg
PUBLIC "-//W3C//DTD SVG 1.1//EN"
       "http://www.w3.org/Graphics/SVG/1.1/DTD/svg11.dtd">
<svg version="1.1" xmlns="http://www.w3.org/2000/svg" xmlns:xlink="http://www.w3.org/1999/xlink" width="92.6807" height="92.1455">
 <g>
  <rect height="92.1455" opacity="0" width="92.6807" x="0" y="0"/>
  <path d="M20.561 37.8438C31.5327 37.9263 40.7871 29.3052 40.7871 18.8486C40.7871 8.53858 31.5327 0 20.561 0C11.2134 0 4.79834 5.49513 1.37402 10.6113C0.424317 12.0679 0 13.6406 0 15.4087L0 22.4351C0 24.2183 0.442871 25.791 1.37402 27.2476C4.73095 32.3486 11.2134 37.6973 20.561 37.8438ZM8.28125 26.0859C7.18164 26.0859 6.32617 25.2305 6.32617 24.0669L6.32617 13.6978C6.32617 12.5645 7.18164 11.6939 8.28125 11.6939C9.46338 11.6939 10.3003 12.5645 10.3003 13.6978L10.3003 24.0669C10.3003 25.2305 9.46338 26.0859 8.28125 26.0859ZM27.6548 75.2827L31.6992 75.2827C34.4356 75.2827 36.0186 73.9844 36.0186 71.4028L36.0186 37.0508C32.479 39.7871 28.0874 41.604 23.3843 42.0552L23.3843 71.4028C23.3843 73.9844 25.0313 75.2827 27.6548 75.2827ZM27.6426 91.9839L31.7417 91.9839L31.7417 70.2671L27.6426 70.2671ZM72.1197 37.8438C81.4673 37.6973 87.9497 32.3486 91.3067 27.2476C92.2227 25.791 92.6807 24.2183 92.6807 22.4351L92.6807 15.4087C92.6807 13.6406 92.2564 12.0679 91.3067 10.6113C87.8824 5.49513 81.4673 0 72.1197 0C61.148 0 51.8936 8.53858 51.8936 18.8486C51.8936 29.3052 61.148 37.9263 72.1197 37.8438ZM84.3658 26.0859C83.2022 26.0859 82.3804 25.2305 82.3804 24.0669L82.3804 13.6978C82.3804 12.5645 83.2022 11.6939 84.3658 11.6939C85.4991 11.6939 86.3545 12.5645 86.3545 13.6978L86.3545 24.0669C86.3545 25.2305 85.4991 26.0859 84.3658 26.0859ZM60.9815 75.2827L65.0259 75.2827C67.6494 75.2827 69.2964 73.9844 69.2964 71.4028L69.2964 42.0552C64.5933 41.604 60.2017 39.7871 56.6621 37.0508L56.6621 71.4028C56.6621 73.9844 58.2451 75.2827 60.9815 75.2827ZM65.0381 91.9839L65.0381 70.2671L60.9239 70.2671L60.9239 91.9839Z" fill="#000000" fill-opacity="0.85"/>
 </g>
</svg>
