<?xml version="1.0" encoding="UTF-8"?>
<!--Generator: Apple Native CoreSVG 232.5-->
<!DOCTYPE svg
PUBLIC "-//W3C//DTD SVG 1.1//EN"
       "http://www.w3.org/Graphics/SVG/1.1/DTD/svg11.dtd">
<svg version="1.1" xmlns="http://www.w3.org/2000/svg" xmlns:xlink="http://www.w3.org/1999/xlink" width="97.9595" height="97.9932">
 <g>
  <rect height="97.9932" opacity="0" width="97.9595" x="0" y="0"/>
  <path d="M48.9722 97.9443C75.8247 97.9443 97.9595 75.7759 97.9595 48.9722C97.9595 22.1348 75.791 0 48.9385 0C22.1348 0 0 22.1348 0 48.9722C0 75.7759 22.1685 97.9443 48.9722 97.9443ZM48.9722 91.6113C25.3501 91.6113 6.36671 72.5942 6.36671 48.9722C6.36671 25.3501 25.3164 6.31789 48.9385 6.31789C72.5605 6.31789 91.6265 25.3501 91.6265 48.9722C91.6265 72.5942 72.5942 91.6113 48.9722 91.6113Z" fill="#000000" fill-opacity="0.85"/>
  <path d="M29.2715 68.9683L68.6206 68.9683C71.2998 68.9683 72.8911 67.4326 72.8911 64.7871L72.8911 61.6807C72.8911 59.02 71.2998 57.4844 68.6206 57.4844L29.2715 57.4844C26.5923 57.4844 25.001 59.02 25.001 61.6807L25.001 64.7871C25.001 67.4326 26.5923 68.9683 29.2715 68.9683ZM28.2661 51.0898L69.5923 51.0898C71.3672 51.0898 72.4482 50.1553 72.4482 48.5605C72.4482 47.8062 72.0845 47.0669 71.416 46.3159L51.6816 24.0498C50.9575 23.1943 50.0078 22.6992 48.9385 22.6992C47.8843 22.6992 46.9009 23.2617 46.2105 24.0498L26.4424 46.3159C25.7402 47.0332 25.4102 47.8062 25.4287 48.5605C25.5298 50.1553 26.4575 51.0898 28.2661 51.0898Z" fill="#000000" fill-opacity="0.85"/>
 </g>
</svg>
