<?xml version="1.0" encoding="UTF-8"?>
<!--Generator: Apple Native CoreSVG 232.5-->
<!DOCTYPE svg
PUBLIC "-//W3C//DTD SVG 1.1//EN"
       "http://www.w3.org/Graphics/SVG/1.1/DTD/svg11.dtd">
<svg version="1.1" xmlns="http://www.w3.org/2000/svg" xmlns:xlink="http://www.w3.org/1999/xlink" width="97.9595" height="97.9932">
 <g>
  <rect height="97.9932" opacity="0" width="97.9595" x="0" y="0"/>
  <path d="M97.9595 48.9722C97.9595 75.7759 75.8247 97.9443 48.9722 97.9443C22.1685 97.9443 0 75.7759 0 48.9722C0 22.1348 22.1348 0 48.9385 0C75.791 0 97.9595 22.1348 97.9595 48.9722ZM28.916 57.7051C26.1694 57.7051 24.5596 59.2744 24.5596 62.0024L24.5596 65.1763C24.5596 67.8892 26.1694 69.4434 28.916 69.4434L69.0435 69.4434C71.79 69.4434 73.3999 67.8892 73.3999 65.1763L73.3999 62.0024C73.3999 59.2744 71.79 57.7051 69.0435 57.7051ZM46.1768 23.5933L26.0195 46.2822C25.2988 47.0332 24.9536 47.8062 24.9873 48.5942C25.0884 50.2227 26.0498 51.1909 27.877 51.1909L70.0488 51.1909C71.8423 51.1909 72.9722 50.2227 72.9722 48.5942C72.9722 47.8062 72.5933 47.0669 71.9063 46.2822L51.7676 23.5933C51.0586 22.7041 50.0752 22.209 48.9722 22.209C47.8843 22.209 46.8672 22.8052 46.1768 23.5933Z" fill="#000000" fill-opacity="0.85"/>
 </g>
</svg>
