<?xml version="1.0" encoding="UTF-8"?>
<!--Generator: Apple Native CoreSVG 232.5-->
<!DOCTYPE svg
PUBLIC "-//W3C//DTD SVG 1.1//EN"
       "http://www.w3.org/Graphics/SVG/1.1/DTD/svg11.dtd">
<svg version="1.1" xmlns="http://www.w3.org/2000/svg" xmlns:xlink="http://www.w3.org/1999/xlink" width="86.7994" height="17.3018">
 <g>
  <rect height="17.3018" opacity="0" width="86.7994" x="0" y="0"/>
  <path d="M78.1729 17.2192C82.9366 17.2192 86.7994 13.3901 86.7994 8.62647C86.7994 3.8628 82.9366 0 78.1729 0C73.4092 0 69.5464 3.8628 69.5464 8.62647C69.5464 13.3901 73.4092 17.2192 78.1729 17.2192Z" fill="#000000" fill-opacity="0.85"/>
  <path d="M43.3921 17.2192C48.1558 17.2192 51.9849 13.3901 51.9849 8.62647C51.9849 3.8628 48.1558 0 43.3921 0C38.6436 0 34.7808 3.8628 34.7808 8.62647C34.7808 13.3901 38.6436 17.2192 43.3921 17.2192Z" fill="#000000" fill-opacity="0.85"/>
  <path d="M8.62647 17.2192C13.3901 17.2192 17.2192 13.3901 17.2192 8.62647C17.2192 3.8628 13.3901 0 8.62647 0C3.8628 0 0 3.8628 0 8.62647C0 13.3901 3.8628 17.2192 8.62647 17.2192Z" fill="#000000" fill-opacity="0.85"/>
 </g>
</svg>
