<?xml version="1.0" encoding="UTF-8"?>
<!--Generator: Apple Native CoreSVG 232.5-->
<!DOCTYPE svg
PUBLIC "-//W3C//DTD SVG 1.1//EN"
       "http://www.w3.org/Graphics/SVG/1.1/DTD/svg11.dtd">
<svg version="1.1" xmlns="http://www.w3.org/2000/svg" xmlns:xlink="http://www.w3.org/1999/xlink" width="105.998" height="104.823">
 <g>
  <rect height="104.823" opacity="0" width="105.998" x="0" y="0"/>
  <path d="M28.0161 104.823C29.8789 104.823 31.2061 103.811 33.4126 101.886L50.5611 86.835L85.2539 86.835C98.5029 86.835 105.998 79.1416 105.998 66.1064L105.998 26.8423C105.998 13.792 98.5029 6.09863 85.2539 6.09863L20.7437 6.09863C7.47949 6.09863 0 13.7129 0 26.8423L0 66.1064C0 79.2207 7.47949 86.835 20.7437 86.835L23.8745 86.835L23.8745 99.9995C23.8745 102.927 25.4004 104.823 28.0161 104.823ZM29.5186 97.9917L29.5186 83.6348C29.5186 81.6035 28.7051 80.8052 26.6738 80.8052L20.7739 80.8052C11.1377 80.8052 6.04494 75.4429 6.04494 66.0273L6.04494 26.8726C6.04494 17.457 11.1377 12.1436 20.7739 12.1436L85.2085 12.1436C94.7354 12.1436 99.9526 17.457 99.9526 26.8726L99.9526 66.0273C99.9526 75.4429 94.7354 80.8052 85.2085 80.8052L50.5557 80.8052C48.336 80.8052 47.211 81.1353 45.6128 82.7368Z" fill="#000000" fill-opacity="0.85"/>
  <path d="M53.0552 32.3394C56.4785 32.3394 59.23 29.5542 59.23 26.1646C59.23 22.7261 56.4785 19.9106 53.0552 19.9106C49.6167 19.9106 46.8652 22.7261 46.8652 26.1646C46.8652 29.5542 49.6167 32.3394 53.0552 32.3394Z" fill="#000000" fill-opacity="0.85"/>
  <path d="M53.0552 52.6416C56.4785 52.6416 59.23 49.8901 59.23 46.4668C59.23 43.0283 56.4785 40.2769 53.0552 40.2769C49.6167 40.2769 46.8652 43.0283 46.8652 46.4668C46.8652 49.8901 49.6167 52.6416 53.0552 52.6416Z" fill="#000000" fill-opacity="0.85"/>
  <path d="M53.0552 72.959C56.4785 72.959 59.23 70.1924 59.23 66.769C59.23 63.3306 56.4785 60.5791 53.0552 60.5791C49.6167 60.5791 46.8652 63.3306 46.8652 66.769C46.8652 70.1924 49.6167 72.959 53.0552 72.959Z" fill="#000000" fill-opacity="0.85"/>
 </g>
</svg>
