<?xml version="1.0" encoding="UTF-8"?>
<!--Generator: Apple Native CoreSVG 232.5-->
<!DOCTYPE svg
PUBLIC "-//W3C//DTD SVG 1.1//EN"
       "http://www.w3.org/Graphics/SVG/1.1/DTD/svg11.dtd">
<svg version="1.1" xmlns="http://www.w3.org/2000/svg" xmlns:xlink="http://www.w3.org/1999/xlink" width="105.998" height="105.197">
 <g>
  <rect height="105.197" opacity="0" width="105.998" x="0" y="0"/>
  <path d="M105.998 27.0293L105.998 66.2935C105.998 79.3286 98.5029 86.9883 85.2539 86.9883L49.461 86.9883L31.7886 102.769C30.0537 104.387 28.8799 105.197 27.3389 105.197C25.146 105.197 23.8408 103.604 23.8408 101.152L23.8408 86.9883L20.7437 86.9883C7.47949 86.9883 0 79.4077 0 66.2935L0 27.0293C0 13.8999 7.47949 6.28565 20.7437 6.28565L85.2539 6.28565C98.5029 6.28565 105.998 13.979 105.998 27.0293ZM69.7603 46.605C69.7603 50.2456 72.6651 53.1504 76.3057 53.1504C79.9312 53.1504 82.8662 50.2456 82.8662 46.605C82.8662 42.9795 79.9312 40.0747 76.3057 40.0747C72.6651 40.0747 69.7603 42.9795 69.7603 46.605ZM46.4609 46.605C46.4609 50.2456 49.3994 53.1504 53.04 53.1504C56.6318 53.1504 59.5703 50.2456 59.5703 46.605C59.5703 42.9795 56.6318 40.0747 53.04 40.0747C49.3994 40.0747 46.4609 42.9795 46.4609 46.605ZM23.165 46.605C23.165 50.2456 26.1338 53.1504 29.7407 53.1504C33.3511 53.1504 36.271 50.2456 36.271 46.605C36.271 42.9795 33.3511 40.0747 29.7407 40.0747C26.1338 40.0747 23.165 42.9795 23.165 46.605Z" fill="#000000" fill-opacity="0.85"/>
 </g>
</svg>
