<?xml version="1.0" encoding="UTF-8"?>
<!--Generator: Apple Native CoreSVG 232.5-->
<!DOCTYPE svg
PUBLIC "-//W3C//DTD SVG 1.1//EN"
       "http://www.w3.org/Graphics/SVG/1.1/DTD/svg11.dtd">
<svg version="1.1" xmlns="http://www.w3.org/2000/svg" xmlns:xlink="http://www.w3.org/1999/xlink" width="108.986" height="99.4151">
 <g>
  <rect height="99.4151" opacity="0" width="108.986" x="0" y="0"/>
  <path d="M108.986 43.9155C108.986 68.0352 85.6616 87.8428 52.394 87.8428C51.0933 87.8428 49.8228 87.7334 48.5523 87.624C47.8687 87.6089 47.2305 87.7925 46.3701 88.3482C37.812 93.9268 24.9834 99.3999 19.4722 99.3999C15.9395 99.3999 15.0317 96.5659 16.9663 94.1699C18.8369 91.8194 22.9629 87.084 25.3491 83.0308C25.77 82.2378 25.541 81.5205 24.7329 81.0996C9.52832 73.125 0 59.3892 0 43.9155C0 19.6426 24.1704 0 54.4932 0C84.8159 0 108.986 19.6426 108.986 43.9155ZM70.7647 44.1582C70.7647 47.8931 73.7788 50.9072 77.5137 50.9072C81.1812 50.9072 84.2476 47.8931 84.2476 44.1582C84.2476 40.4233 81.1812 37.4092 77.5137 37.4092C73.7788 37.4092 70.7647 40.4233 70.7647 44.1582ZM47.7593 44.1582C47.7593 47.8931 50.7583 50.9072 54.4932 50.9072C58.228 50.9072 61.2422 47.8931 61.2422 44.1582C61.2422 40.4233 58.228 37.4092 54.4932 37.4092C50.7583 37.4092 47.7593 40.4233 47.7593 44.1582ZM24.7725 44.1582C24.7725 47.8931 27.8052 50.9072 31.5215 50.9072C35.2227 50.9072 38.2217 47.8931 38.2217 44.1582C38.2217 40.4233 35.189 37.4092 31.5215 37.4092C27.8052 37.4092 24.7725 40.4233 24.7725 44.1582Z" fill="#000000" fill-opacity="0.85"/>
 </g>
</svg>
