<?xml version="1.0" encoding="UTF-8"?>
<!--Generator: Apple Native CoreSVG 232.5-->
<!DOCTYPE svg
PUBLIC "-//W3C//DTD SVG 1.1//EN"
       "http://www.w3.org/Graphics/SVG/1.1/DTD/svg11.dtd">
<svg version="1.1" xmlns="http://www.w3.org/2000/svg" xmlns:xlink="http://www.w3.org/1999/xlink" width="131.062" height="84.4659">
 <g>
  <rect height="84.4659" opacity="0" width="131.062" x="0" y="0"/>
  <path d="M50.1851 84.417L97.0474 84.417C102.69 84.417 105.988 81.2998 105.988 75.7207L105.988 65.1538C105.988 64.8946 106.119 64.7818 106.36 64.7818L112.443 64.7818C112.702 64.7818 112.815 64.8946 112.815 65.1538L112.815 72.0454C112.815 76.6851 115.887 79.5396 120.875 79.5396L123.035 79.5396C127.99 79.5396 131.062 76.7188 131.062 72.0454L131.062 37.2456C131.062 32.5874 127.99 29.7515 123.035 29.7515L120.875 29.7515C115.887 29.7515 112.815 32.606 112.815 37.2456L112.815 43.5274C112.815 43.7681 112.702 43.8994 112.443 43.8994L106.36 43.8994C106.119 43.8994 105.988 43.7681 105.988 43.5274L105.988 32.9258C105.988 27.9307 102.849 24.874 97.6582 24.874L92.938 24.874L84.6138 15.8325C82.876 13.8843 81.1348 13.1753 78.8633 13.1753L41.9531 13.1753C39.6328 13.1753 37.9068 13.9517 36.1538 15.8325L27.8447 24.874L21.4746 24.874C16.3667 24.874 13.1939 27.9307 13.1939 32.9258L13.1939 64.5991C13.1939 69.628 16.333 72.6846 21.4746 72.6846L36.0767 72.6846L44.4346 81.7598C46.1724 83.6744 47.7788 84.417 50.1851 84.417ZM2.99805 67.6309C4.68068 67.6309 6.04494 66.2144 6.04494 64.5991L6.04494 51.8262L16.0215 51.8262L16.0215 45.7813L6.04494 45.7813L6.04494 32.9595C6.04494 31.3106 4.66212 29.9614 2.99805 29.9614C1.34912 29.9614 0 31.3443 0 32.9595L0 64.5991C0 66.2481 1.38282 67.6309 2.99805 67.6309ZM59.8892 16.8052L65.9678 16.8052L65.9678 6.06007L81.9204 6.06007C83.5845 6.06007 84.9336 4.61329 84.9336 2.99805C84.9336 1.34912 83.5845 0 81.9204 0L43.854 0.0151366C42.2051 0.0151366 40.856 1.39795 40.856 3.04688C40.856 4.69581 42.2388 6.06007 43.854 6.06007L59.8892 6.06007Z" fill="#000000" fill-opacity="0.85"/>
 </g>
</svg>
