<?xml version="1.0" encoding="UTF-8"?>
<!--Generator: Apple Native CoreSVG 232.5-->
<!DOCTYPE svg
PUBLIC "-//W3C//DTD SVG 1.1//EN"
       "http://www.w3.org/Graphics/SVG/1.1/DTD/svg11.dtd">
<svg version="1.1" xmlns="http://www.w3.org/2000/svg" xmlns:xlink="http://www.w3.org/1999/xlink" width="132.349" height="84.4659">
 <g>
  <rect height="84.4659" opacity="0" width="132.349" x="0" y="0"/>
  <path d="M50.1851 84.417L97.0474 84.417C102.69 84.417 105.988 81.2998 105.988 75.7207L105.988 65.1538C105.988 64.8946 106.119 64.7818 106.36 64.7818L112.443 64.7818C112.702 64.7818 112.815 64.8946 112.815 65.1538L112.815 72.0454C112.815 76.6851 115.887 79.5396 120.875 79.5396L124.322 79.5396C129.277 79.5396 132.349 76.7188 132.349 72.0454L132.349 37.2456C132.349 32.5874 129.277 29.7515 124.322 29.7515L120.875 29.7515C115.887 29.7515 112.815 32.606 112.815 37.2456L112.815 43.5274C112.815 43.7681 112.702 43.8994 112.443 43.8994L106.36 43.8994C106.119 43.8994 105.988 43.7681 105.988 43.5274L105.988 32.9258C105.988 27.9307 102.849 24.874 97.6582 24.874L92.938 24.874L84.6138 15.8325C82.876 13.8843 81.1348 13.1753 78.8633 13.1753L41.9531 13.1753C39.6328 13.1753 37.9068 13.9517 36.1538 15.8325L27.8447 24.874L21.4746 24.874C16.3667 24.874 13.1939 27.9307 13.1939 32.9258L13.1939 64.5991C13.1939 69.628 16.333 72.6846 21.4746 72.6846L36.0767 72.6846L44.4346 81.7598C46.1724 83.6744 47.7788 84.417 50.1851 84.417ZM50.8623 78.3872C49.7495 78.3872 49.2901 78.1953 48.5948 77.4697L38.6924 66.6397L21.5083 66.6397C20.0655 66.6397 19.2085 65.813 19.2085 64.3482L19.2085 33.2105C19.2085 31.7456 20.0655 30.919 21.5083 30.919L30.5279 30.919L40.3477 20.19C41.043 19.397 41.5513 19.2051 42.563 19.2051L78.2198 19.2051C79.2652 19.2051 79.792 19.397 80.4536 20.19L90.3223 30.919L97.6245 30.919C99.0825 30.919 99.9732 31.7793 99.9732 33.2105L99.9732 47.5572C99.9732 49.042 100.86 49.9444 102.296 49.9444L116.54 49.9444C117.961 49.9444 118.863 49.042 118.863 47.5572L118.863 37.4966C118.863 36.4361 119.585 35.7964 120.942 35.7964L124.289 35.7964C125.612 35.7964 126.334 36.4698 126.334 37.4966L126.334 71.7608C126.334 72.8364 125.612 73.5098 124.289 73.5098L120.942 73.5098C119.585 73.5098 118.863 72.8701 118.863 71.7608L118.863 61.0904C118.863 59.6055 117.961 58.7183 116.54 58.7183L102.296 58.7183C100.86 58.7183 99.9732 59.6055 99.9732 61.0904L99.9732 75.5034C99.9732 77.3721 98.9766 78.3872 97.0137 78.3872ZM2.99805 67.6309C4.68068 67.6309 6.04494 66.2144 6.04494 64.5991L6.04494 51.8262L16.0215 51.8262L16.0215 45.7813L6.04494 45.7813L6.04494 32.9595C6.04494 31.3106 4.66212 29.9614 2.99805 29.9614C1.34912 29.9614 0 31.3443 0 32.9595L0 64.5991C0 66.2481 1.38282 67.6309 2.99805 67.6309ZM59.8892 16.8052L65.9678 16.8052L65.9678 6.06007L81.9204 6.06007C83.5845 6.06007 84.9336 4.61329 84.9336 2.99805C84.9336 1.34912 83.5845 0 81.9204 0L43.854 0.0151366C42.2051 0.0151366 40.856 1.39795 40.856 3.04688C40.856 4.69581 42.2388 6.06007 43.854 6.06007L59.8892 6.06007Z" fill="#000000" fill-opacity="0.85"/>
 </g>
</svg>
