<?xml version="1.0" encoding="UTF-8"?>
<!--Generator: Apple Native CoreSVG 232.5-->
<!DOCTYPE svg
PUBLIC "-//W3C//DTD SVG 1.1//EN"
       "http://www.w3.org/Graphics/SVG/1.1/DTD/svg11.dtd">
<svg version="1.1" xmlns="http://www.w3.org/2000/svg" xmlns:xlink="http://www.w3.org/1999/xlink" width="86.1363" height="99.3487">
 <g>
  <rect height="99.3487" opacity="0" width="86.1363" x="0" y="0"/>
  <path d="M76.4204 14.2739L76.4204 62.9863L70.3755 62.9863L70.3755 14.5737C70.3755 8.93556 67.3081 6.04494 61.9141 6.04494L24.2222 6.04494C18.7188 6.04494 15.7271 8.93556 15.7271 14.5737L15.7271 84.625C15.7271 90.2632 18.7188 93.1538 24.2222 93.1538L61.9141 93.1538C67.3081 93.1538 70.3755 90.2632 70.3755 84.625L70.3755 82.3994L76.4204 82.3994L76.4204 84.9248C76.4204 94.3174 71.5845 99.1988 62.0606 99.1988L24.0908 99.1988C14.5855 99.1988 9.68213 94.3965 9.68213 84.9248L9.68213 14.2739C9.68213 4.80225 14.5855 0 24.0908 0L62.0606 0C71.5845 0 76.4204 4.88135 76.4204 14.2739Z" fill="#000000" fill-opacity="0.85"/>
  <path d="M33.9121 46.5581C33.9121 49.7539 31.3999 52.2813 28.2529 52.2813C25.106 52.2813 22.5938 49.7539 22.5938 46.5581C22.5938 43.4751 25.106 40.8989 28.2529 40.8989C31.3999 40.8989 33.9121 43.4751 33.9121 46.5581ZM48.7442 46.5581C48.7442 49.7539 46.2656 52.2813 43.0513 52.2813C39.9043 52.2813 37.4258 49.7539 37.4258 46.5581C37.4258 43.4751 39.9043 40.8989 43.0513 40.8989C46.2656 40.8989 48.7442 43.4751 48.7442 46.5581ZM63.5425 46.5581C63.5425 49.7539 61.064 52.2813 57.917 52.2813C54.7363 52.2813 52.273 49.7539 52.273 46.5581C52.273 43.4751 54.7363 40.8989 57.917 40.8989C61.064 40.8989 63.5425 43.4751 63.5425 46.5581ZM33.9121 32.2969C33.9121 35.4287 31.3999 37.9409 28.2529 37.9409C25.106 37.9409 22.5938 35.4287 22.5938 32.2969C22.5938 29.1162 25.106 26.604 28.2529 26.604C31.3999 26.604 33.9121 29.1162 33.9121 32.2969ZM48.7442 32.2969C48.7442 35.4287 46.2656 37.9409 43.0513 37.9409C39.9043 37.9409 37.4258 35.4287 37.4258 32.2969C37.4258 29.1162 39.9043 26.604 43.0513 26.604C46.2656 26.604 48.7442 29.1162 48.7442 32.2969ZM63.5425 32.2969C63.5425 35.4287 61.064 37.9409 57.917 37.9409C54.7363 37.9409 52.273 35.4287 52.273 32.2969C52.273 29.1162 54.7363 26.604 57.917 26.604C61.064 26.604 63.5425 29.1162 63.5425 32.2969ZM33.9121 18.0845C33.9121 21.1338 31.3999 23.6797 28.2529 23.6797C25.106 23.6797 22.5938 21.1338 22.5938 18.0845C22.5938 14.8887 25.106 12.3765 28.2529 12.3765C31.3999 12.3765 33.9121 14.8887 33.9121 18.0845ZM48.7442 18.0845C48.7442 21.1338 46.2656 23.6797 43.0513 23.6797C39.9043 23.6797 37.4258 21.1338 37.4258 18.0845C37.4258 14.8887 39.9043 12.3765 43.0513 12.3765C46.2656 12.3765 48.7442 14.8887 48.7442 18.0845ZM63.5425 18.0845C63.5425 21.1338 61.064 23.6797 57.917 23.6797C54.7363 23.6797 52.273 21.1338 52.273 18.0845C52.273 14.8887 54.7363 12.3765 57.917 12.3765C61.064 12.3765 63.5425 14.8887 63.5425 18.0845Z" fill="#000000" fill-opacity="0.85"/>
  <path d="M43.0513 86.4976C50.7412 86.4976 56.8804 80.3433 56.8804 72.7022C56.8804 65.1099 50.7412 58.9556 43.0513 58.9556C35.4102 58.9556 29.2559 65.1099 29.2559 72.7022C29.2559 80.3433 35.4102 86.4976 43.0513 86.4976ZM45.0049 78.0449L76.4204 78.0449C79.3452 78.0449 81.7329 75.6758 81.7329 72.7022C81.7329 69.7437 79.3452 67.3897 76.4204 67.3897L45.0049 67.3897C42.0952 67.3897 39.6772 69.7437 39.6772 72.7022C39.6772 75.6758 42.0952 78.0449 45.0049 78.0449Z" fill="#000000" fill-opacity="0.85"/>
 </g>
</svg>
