<?xml version="1.0" encoding="UTF-8"?>
<!--Generator: Apple Native CoreSVG 232.5-->
<!DOCTYPE svg
PUBLIC "-//W3C//DTD SVG 1.1//EN"
       "http://www.w3.org/Graphics/SVG/1.1/DTD/svg11.dtd">
<svg version="1.1" xmlns="http://www.w3.org/2000/svg" xmlns:xlink="http://www.w3.org/1999/xlink" width="91.689" height="99.3487">
 <g>
  <rect height="99.3487" opacity="0" width="91.689" x="0" y="0"/>
  <path d="M79.1968 14.2739L79.1968 64.2735L56.1286 64.2735C53.5368 61.5855 49.8871 59.9209 45.8277 59.9209C37.9321 59.9209 31.542 66.2959 31.542 74.1914C31.542 82.0869 37.9321 88.4619 45.8277 88.4619C49.9037 88.4619 53.5665 86.7838 56.1593 84.0757L79.1968 84.0757L79.1968 84.9922C79.1968 94.3174 74.3609 99.1988 64.8369 99.1988L26.8672 99.1988C17.3281 99.1988 12.4585 94.3965 12.4585 84.9922L12.4585 14.2739C12.4585 4.80225 17.3281 0 26.8672 0L64.8369 0C74.3609 0 79.1968 4.88135 79.1968 14.2739ZM24.6929 47.0484C24.6929 50.3452 27.2725 52.9585 30.5542 52.9585C33.7871 52.9585 36.4004 50.3452 36.4004 47.0484C36.4004 43.8306 33.7871 41.2022 30.5542 41.2022C27.2725 41.2022 24.6929 43.8306 24.6929 47.0484ZM40.0152 47.0484C40.0152 50.3452 42.5947 52.9585 45.8277 52.9585C49.1431 52.9585 51.7075 50.3452 51.7075 47.0484C51.7075 43.8306 49.1431 41.2022 45.8277 41.2022C42.5947 41.2022 40.0152 43.8306 40.0152 47.0484ZM55.3526 47.0484C55.3526 50.3452 57.9019 52.9585 61.1836 52.9585C64.4502 52.9585 66.9961 50.3452 66.9961 47.0484C66.9961 43.8306 64.4502 41.2022 61.1836 41.2022C57.9019 41.2022 55.3526 43.8306 55.3526 47.0484ZM24.6929 32.2969C24.6929 35.5298 27.2725 38.1431 30.5542 38.1431C33.7871 38.1431 36.4004 35.5298 36.4004 32.2969C36.4004 29.0151 33.7871 26.4019 30.5542 26.4019C27.2725 26.4019 24.6929 29.0151 24.6929 32.2969ZM40.0152 32.2969C40.0152 35.5298 42.5947 38.1431 45.8277 38.1431C49.1431 38.1431 51.7075 35.5298 51.7075 32.2969C51.7075 29.0151 49.1431 26.4019 45.8277 26.4019C42.5947 26.4019 40.0152 29.0151 40.0152 32.2969ZM55.3526 32.2969C55.3526 35.5298 57.9019 38.1431 61.1836 38.1431C64.4502 38.1431 66.9961 35.5298 66.9961 32.2969C66.9961 29.0151 64.4502 26.4019 61.1836 26.4019C57.9019 26.4019 55.3526 29.0151 55.3526 32.2969ZM24.6929 17.6094C24.6929 20.7783 27.2725 23.3916 30.5542 23.3916C33.7871 23.3916 36.4004 20.7783 36.4004 17.6094C36.4004 14.3125 33.7871 11.6992 30.5542 11.6992C27.2725 11.6992 24.6929 14.3125 24.6929 17.6094ZM40.0152 17.6094C40.0152 20.7783 42.5947 23.3916 45.8277 23.3916C49.1431 23.3916 51.7075 20.7783 51.7075 17.6094C51.7075 14.3125 49.1431 11.6992 45.8277 11.6992C42.5947 11.6992 40.0152 14.3125 40.0152 17.6094ZM55.3526 17.6094C55.3526 20.7783 57.9019 23.3916 61.1836 23.3916C64.4502 23.3916 66.9961 20.7783 66.9961 17.6094C66.9961 14.3125 64.4502 11.6992 61.1836 11.6992C57.9019 11.6992 55.3526 14.3125 55.3526 17.6094Z" fill="#000000" fill-opacity="0.85"/>
  <path d="M45.8277 79.7212L81.771 79.7212C84.8306 79.7212 87.2857 77.2173 87.2857 74.1914C87.2857 71.1319 84.8306 68.6768 81.771 68.6768L45.8277 68.6768C42.8169 68.6768 40.2979 71.1319 40.2979 74.1914C40.2979 77.2173 42.8169 79.7212 45.8277 79.7212Z" fill="#000000" fill-opacity="0.85"/>
 </g>
</svg>
