<?xml version="1.0" encoding="UTF-8"?>
<!--Generator: Apple Native CoreSVG 232.5-->
<!DOCTYPE svg
PUBLIC "-//W3C//DTD SVG 1.1//EN"
       "http://www.w3.org/Graphics/SVG/1.1/DTD/svg11.dtd">
<svg version="1.1" xmlns="http://www.w3.org/2000/svg" xmlns:xlink="http://www.w3.org/1999/xlink" width="116.157" height="82.5332">
 <g>
  <rect height="82.5332" opacity="0" width="116.157" x="0" y="0"/>
  <path d="M14.3936 82.5332L102.729 82.5332C111.257 82.5332 116.157 77.6519 116.157 68.2593L116.157 14.2925C116.157 4.88477 111.224 0.0185549 101.764 0.0185549L13.4282 0.0185549C4.91504 0.0185549 0 4.88477 0 14.2925L0 68.2593C0 77.6519 4.94873 82.5332 14.3936 82.5332ZM14.252 76.7427C8.82765 76.7427 5.7754 73.7241 5.7754 68.1802L5.7754 14.2891C5.7754 8.77882 8.82765 5.79396 14.252 5.79396L101.872 5.79396C107.296 5.79396 110.382 8.77882 110.382 14.3228L110.382 68.2139C110.382 73.7241 107.296 76.7427 101.872 76.7427ZM58.0391 53.2852C60.9673 53.2852 63.7222 52.1738 66.3994 49.7407L112.528 8.26222L108.54 4.24024L62.9536 45.3076C61.3037 46.7959 59.7261 47.4761 58.0391 47.4761C56.3672 47.4761 54.7896 46.7959 53.1245 45.3076L7.5381 4.24024L3.54981 8.26222L49.6938 49.7407C52.3711 52.1738 55.1108 53.2852 58.0391 53.2852ZM8.30079 77.1763L43.8164 41.627L39.8281 37.6841L4.32764 73.1392ZM107.89 77.21L111.863 73.1577L76.3443 37.6841L72.3223 41.627Z" fill="#000000" fill-opacity="0.85"/>
 </g>
</svg>
