<?xml version="1.0" encoding="UTF-8"?>
<!--Generator: Apple Native CoreSVG 232.5-->
<!DOCTYPE svg
PUBLIC "-//W3C//DTD SVG 1.1//EN"
       "http://www.w3.org/Graphics/SVG/1.1/DTD/svg11.dtd">
<svg version="1.1" xmlns="http://www.w3.org/2000/svg" xmlns:xlink="http://www.w3.org/1999/xlink" width="97.9595" height="97.9932">
 <g>
  <rect height="97.9932" opacity="0" width="97.9595" x="0" y="0"/>
  <path d="M97.9595 49.021C97.9595 75.8584 75.8247 97.9932 48.9722 97.9932C22.1685 97.9932 0 75.8584 0 49.021C0 22.2173 22.1348 0.0488281 48.9385 0.0488281C75.791 0.0488281 97.9595 22.2173 97.9595 49.021ZM53.4595 53.5C52.0249 54.7393 50.5347 55.3589 49.0479 55.3589C47.5459 55.3589 46.0557 54.7393 44.6548 53.5L41.0298 50.2656L22.2427 69.0342C23.1738 69.669 24.4653 70.0444 26.2534 70.0444L71.812 70.0444C73.6001 70.0444 74.9067 69.605 75.853 69.0342L57.0508 50.2656ZM19.3853 35.2398L19.3853 62.8023C19.3853 64.3648 19.6748 65.4995 20.1748 66.5064L38.5391 48.105L20.0772 31.6704C19.7271 32.3438 19.3853 33.6738 19.3853 35.2398ZM59.5078 48.105L77.9395 66.4761C78.4209 65.4995 78.6465 64.3159 78.6465 62.8023L78.6465 35.2398C78.6465 33.6738 78.3535 32.4043 77.9732 31.7192ZM26.7437 27.9976C24.7803 27.9976 23.376 28.3242 22.1299 29.1089L46.6773 50.9688C47.4854 51.7129 48.2852 51.9756 49.0479 51.9756C49.8291 51.9756 50.5952 51.7129 51.4033 50.9688L75.9844 29.1729C74.7197 28.3882 73.2515 27.9976 71.3555 27.9976Z" fill="#000000" fill-opacity="0.85"/>
 </g>
</svg>
