<?xml version="1.0" encoding="UTF-8"?>
<!--Generator: Apple Native CoreSVG 232.5-->
<!DOCTYPE svg
PUBLIC "-//W3C//DTD SVG 1.1//EN"
       "http://www.w3.org/Graphics/SVG/1.1/DTD/svg11.dtd">
<svg version="1.1" xmlns="http://www.w3.org/2000/svg" xmlns:xlink="http://www.w3.org/1999/xlink" width="116.157" height="112.902">
 <g>
  <rect height="112.902" opacity="0" width="116.157" x="0" y="0"/>
  <path d="M101.764 30.3877L62.0239 30.3877L62.0239 52.1631C62.0239 54.2398 60.2134 56.0318 58.0693 56.0318C55.959 56.0318 54.1333 54.2398 54.1333 52.1631L54.1333 30.3877L14.3936 30.3877C10.3608 30.3877 7.36378 31.2144 4.90528 32.9722L53.1245 75.7442C54.8232 77.2476 56.4009 77.9126 58.0693 77.9126C59.7715 77.9126 61.3491 77.2476 62.999 75.7442L111.218 32.9722C108.793 31.2144 105.812 30.3877 101.764 30.3877ZM1.61767 106.185L38.0835 69.8316L1.52002 37.3833C0.695312 38.6626 0 41.3042 0 44.6616L0 98.6284C0 101.859 0.579101 104.287 1.61767 106.185ZM13.4282 112.902L102.729 112.902C106.505 112.902 109.167 111.978 110.978 110.663L73.8648 73.52L66.4785 80.1099C63.7525 82.4907 60.979 83.688 58.0693 83.688C55.1782 83.688 52.4048 82.4907 49.6938 80.1099L42.2925 73.52L5.17969 110.663C7.00489 111.978 9.63331 112.902 13.4282 112.902ZM114.54 106.185C115.56 104.287 116.157 101.859 116.157 98.6284L116.157 44.6616C116.157 41.3042 115.462 38.6626 114.652 37.3833L78.0889 69.8316Z" fill="#000000" fill-opacity="0.85"/>
  <path d="M58.0693 34.0293C59.7183 34.0293 61.1011 32.6802 61.1011 31.0313L61.1011 30.2481C61.1011 22.5786 66.1807 16.374 76.2446 14.3892L77.4063 20.2764C77.8374 22.6611 79.6597 23.1597 81.4448 21.3897L91.5523 10.8579C92.94 9.40284 92.5913 7.69336 90.7085 6.85303L77.4761 0.959963C75.211-0.0488281 73.7036 1.10987 74.1499 3.44581L75.2476 9.28418C66.7676 11.146 59.8677 16.2744 58.0693 21.1411C56.2896 16.2744 49.3896 11.146 40.876 9.28418L42.0225 3.44581C42.4536 1.10987 40.9614-0.0488281 38.6811 0.959963L25.4302 6.85303C23.581 7.69336 23.1836 9.40284 24.6201 10.8579L34.7124 21.3897C36.4976 23.1597 38.3198 22.6611 38.751 20.2764L39.9277 14.3892C49.9766 16.374 55.0562 22.5786 55.0562 30.2481L55.0562 31.0313C55.0562 32.6802 56.4053 34.0293 58.0693 34.0293Z" fill="#000000" fill-opacity="0.85"/>
 </g>
</svg>
