<?xml version="1.0" encoding="UTF-8"?>
<!--Generator: Apple Native CoreSVG 232.5-->
<!DOCTYPE svg
PUBLIC "-//W3C//DTD SVG 1.1//EN"
       "http://www.w3.org/Graphics/SVG/1.1/DTD/svg11.dtd">
<svg version="1.1" xmlns="http://www.w3.org/2000/svg" xmlns:xlink="http://www.w3.org/1999/xlink" width="97.9595" height="97.9932">
 <g>
  <rect height="97.9932" opacity="0" width="97.9595" x="0" y="0"/>
  <path d="M48.9722 97.9443C75.8247 97.9443 97.9595 75.7759 97.9595 48.9722C97.9595 22.1348 75.791 0 48.9385 0C22.1348 0 0 22.1348 0 48.9722C0 75.7759 22.1685 97.9443 48.9722 97.9443ZM48.9722 91.6113C25.3501 91.6113 6.36671 72.5942 6.36671 48.9722C6.36671 25.3501 25.3164 6.31789 48.9385 6.31789C72.5605 6.31789 91.6265 25.3501 91.6265 48.9722C91.6265 72.5942 72.5942 91.6113 48.9722 91.6113Z" fill="#000000" fill-opacity="0.85"/>
  <path d="M29.728 60.7661L68.085 60.7661C69.9849 60.7661 71.3003 59.7876 71.3003 57.9214C71.3003 56.0215 70.0523 55.0093 68.085 55.0093L29.728 55.0093C27.7271 55.0093 26.479 56.0215 26.479 57.9214C26.479 59.7876 27.7944 60.7661 29.728 60.7661ZM29.728 43.0664L68.085 43.0664C69.9849 43.0664 71.3003 42.0879 71.3003 40.188C71.3003 38.2881 70.0523 37.291 68.085 37.291L29.728 37.291C27.7271 37.291 26.479 38.2881 26.479 40.188C26.479 42.0879 27.7944 43.0664 29.728 43.0664Z" fill="#000000" fill-opacity="0.85"/>
 </g>
</svg>
