<?xml version="1.0" encoding="UTF-8"?>
<!--Generator: Apple Native CoreSVG 232.5-->
<!DOCTYPE svg
PUBLIC "-//W3C//DTD SVG 1.1//EN"
       "http://www.w3.org/Graphics/SVG/1.1/DTD/svg11.dtd">
<svg version="1.1" xmlns="http://www.w3.org/2000/svg" xmlns:xlink="http://www.w3.org/1999/xlink" width="88.4092" height="88.5371">
 <g>
  <rect height="88.5371" opacity="0" width="88.4092" x="0" y="0"/>
  <path d="M88.4092 14.4019L88.4092 74.2632C88.4092 83.6558 83.5733 88.5371 74.0005 88.5371L14.3936 88.5371C4.86963 88.5371 0 83.7349 0 74.2632L0 14.4019C0 4.93018 4.86963 0.127929 14.3936 0.127929L74.0005 0.127929C83.5733 0.127929 88.4092 5.00928 88.4092 14.4019ZM24.6631 50.3486C22.6284 50.3486 21.2793 51.4282 21.2793 53.3804C21.2793 55.314 22.6958 56.3262 24.6631 56.3262L63.731 56.3262C65.6831 56.3262 67.0659 55.314 67.0659 53.3804C67.0659 51.4282 65.7505 50.3486 63.731 50.3486ZM24.6631 32.2598C22.6284 32.2598 21.2793 33.3057 21.2793 35.273C21.2793 37.2251 22.6958 38.2373 24.6631 38.2373L63.731 38.2373C65.6831 38.2373 67.0659 37.2251 67.0659 35.273C67.0659 33.3057 65.7505 32.2598 63.731 32.2598Z" fill="#000000" fill-opacity="0.85"/>
 </g>
</svg>
