<?xml version="1.0" encoding="UTF-8"?>
<!--Generator: Apple Native CoreSVG 232.5-->
<!DOCTYPE svg
PUBLIC "-//W3C//DTD SVG 1.1//EN"
       "http://www.w3.org/Graphics/SVG/1.1/DTD/svg11.dtd">
<svg version="1.1" xmlns="http://www.w3.org/2000/svg" xmlns:xlink="http://www.w3.org/1999/xlink" width="133.495" height="107.104">
 <g>
  <rect height="107.104" opacity="0" width="133.495" x="0" y="0"/>
  <path d="M88.9357 95.3258C88.9357 96.9747 87.5529 98.3238 85.9039 98.3238L56.5416 98.3238L62.5714 92.294L85.9039 92.294C87.5529 92.294 88.9357 93.6768 88.9357 95.3258Z" fill="#000000" fill-opacity="0.85"/>
  <path d="M127.799 95.3258C127.799 96.9747 126.45 98.3238 124.786 98.3238L98.5055 98.3238C96.8566 98.3238 95.4586 96.9747 95.4586 95.3258C95.4586 93.6768 96.8566 92.294 98.5055 92.294L124.786 92.294C126.45 92.294 127.799 93.6768 127.799 95.3258Z" fill="#000000" fill-opacity="0.85"/>
  <path d="M19.4044 47.1392L58.7296 86.4645L96.6969 48.4786C100.664 44.5265 100.597 38.8888 96.5621 34.8844L70.9845 9.23935C66.9801 5.20468 61.3087 5.17098 57.3566 9.13827ZM10.7242 76.754L29.0812 95.1261C35.588 101.569 43.3741 101.817 49.5812 95.6095L54.7198 90.4557L15.3946 51.1153L10.2071 56.2203C4.00011 62.461 4.23253 70.2472 10.7242 76.754Z" fill="#000000" fill-opacity="0.85"/>
 </g>
</svg>
