<?xml version="1.0" encoding="UTF-8"?>
<!--Generator: Apple Native CoreSVG 232.5-->
<!DOCTYPE svg
PUBLIC "-//W3C//DTD SVG 1.1//EN"
       "http://www.w3.org/Graphics/SVG/1.1/DTD/svg11.dtd">
<svg version="1.1" xmlns="http://www.w3.org/2000/svg" xmlns:xlink="http://www.w3.org/1999/xlink" width="97.9258" height="97.9593">
 <g>
  <rect height="97.9593" opacity="0" width="97.9258" x="0" y="0"/>
  <path d="M48.9385 97.9274C75.791 97.9274 97.9258 75.759 97.9258 48.9553C97.9258 22.1179 75.978 0.424494 49.7505 0.00164094C47.5996-0.0506055 45.9961 1.14862 45.9961 3.04852C45.9961 4.77997 47.2105 6.21503 49.3613 6.26728C72.8975 6.75752 91.5591 25.3332 91.5928 48.9553C91.6265 72.5773 72.5605 91.5944 48.9385 91.5944C24.6729 91.5944 6.33302 71.9338 6.33302 48.8542C6.33302 46.673 4.81544 45.4889 3.09913 45.4889C1.21436 45.4889 0 46.9982 0 49.2433C0.0336915 75.6916 22.1348 97.9274 48.9385 97.9274Z" fill="#000000" fill-opacity="0.85"/>
  <path d="M45.8735 49.8571C47.7734 49.8571 49.126 48.4103 49.126 46.6047C49.126 45.7541 48.7739 44.8698 48.1069 44.2028L20.3028 16.4475L11.9419 8.74872C17.6948 9.20527 25 9.17158 28.7549 9.17158C30.4526 9.17158 31.8018 7.78876 31.8018 6.10614C31.8018 4.42352 30.4526 3.05926 28.7549 3.05926L6.11964 3.05926C3.71436 3.05926 2.3955 4.31414 2.3955 6.7497L2.3955 29.4001C2.3955 31.0827 3.77832 32.4318 5.44239 32.4318C7.09132 32.4318 8.44044 31.0827 8.44044 29.4001C8.44044 25.6975 8.44044 18.0705 8.11866 12.572L15.7046 20.9211L43.5391 48.8044C44.2397 49.4899 45.0229 49.8571 45.8735 49.8571Z" fill="#000000" fill-opacity="0.85"/>
 </g>
</svg>
