<?xml version="1.0" encoding="UTF-8"?>
<!--Generator: Apple Native CoreSVG 232.5-->
<!DOCTYPE svg
PUBLIC "-//W3C//DTD SVG 1.1//EN"
       "http://www.w3.org/Graphics/SVG/1.1/DTD/svg11.dtd">
<svg version="1.1" xmlns="http://www.w3.org/2000/svg" xmlns:xlink="http://www.w3.org/1999/xlink" width="88.5747" height="88.5371">
 <g>
  <rect height="88.5371" opacity="0" width="88.5747" x="0" y="0"/>
  <path d="M0 74.2632C0 83.7349 4.86963 88.5371 14.3936 88.5371L18.7109 88.5371L18.7109 78.8862C18.7109 77.4614 19.7905 76.397 21.2339 76.397C22.6924 76.397 23.7568 77.4614 23.7568 78.8862L23.7568 88.5371L34.0923 88.5371L34.0923 78.8862C34.0923 77.4614 35.1719 76.397 36.6152 76.397C38.0586 76.397 39.1382 77.4614 39.1382 78.8862L39.1382 88.5371L49.5039 88.5371L49.5039 78.8862C49.5039 77.4614 50.5684 76.397 52.0117 76.397C53.4702 76.397 54.5347 77.4614 54.5347 78.8862L54.5347 88.5371L64.8701 88.5371L64.8701 78.8862C64.8701 77.4614 65.9497 76.397 67.3931 76.397C68.8364 76.397 69.916 77.4614 69.916 78.8862L69.916 88.5371L74.166 88.5371C83.7051 88.5371 88.5747 83.6558 88.5747 74.2632L88.5747 14.4019C88.5747 5.00928 83.7051 0.127929 74.166 0.127929L69.916 0.127929L69.916 9.77881C69.916 11.2036 68.8364 12.2681 67.3931 12.2681C65.9497 12.2681 64.8701 11.2036 64.8701 9.77881L64.8701 0.127929L54.5347 0.127929L54.5347 9.77881C54.5347 11.2036 53.4702 12.2681 52.0117 12.2681C50.5684 12.2681 49.5039 11.2036 49.5039 9.77881L49.5039 0.127929L39.1382 0.127929L39.1382 9.77881C39.1382 11.2036 38.0586 12.2681 36.6152 12.2681C35.1719 12.2681 34.0923 11.2036 34.0923 9.77881L34.0923 0.127929L23.7568 0.127929L23.7568 9.77881C23.7568 11.2036 22.6924 12.2681 21.2339 12.2681C19.7905 12.2681 18.7109 11.2036 18.7109 9.77881L18.7109 0.127929L14.3936 0.127929C4.86963 0.127929 0 4.93018 0 14.4019ZM18.27 60.0269L18.27 28.6382C18.27 25.9644 20.1138 24.2031 22.8027 24.2031L65.7871 24.2031C68.5098 24.2031 70.2861 25.9644 70.2861 28.6382L70.2861 60.0269C70.2861 62.7007 68.5098 64.4619 65.7871 64.4619L22.8027 64.4619C20.1138 64.4619 18.27 62.7007 18.27 60.0269Z" fill="#000000" fill-opacity="0.85"/>
 </g>
</svg>
