<?xml version="1.0" encoding="UTF-8"?>
<!--Generator: Apple Native CoreSVG 232.5-->
<!DOCTYPE svg
PUBLIC "-//W3C//DTD SVG 1.1//EN"
       "http://www.w3.org/Graphics/SVG/1.1/DTD/svg11.dtd">
<svg version="1.1" xmlns="http://www.w3.org/2000/svg" xmlns:xlink="http://www.w3.org/1999/xlink" width="97.9595" height="97.9932">
 <g>
  <rect height="97.9932" opacity="0" width="97.9595" x="0" y="0"/>
  <path d="M97.9595 48.9722C97.9595 75.7759 75.8247 97.9443 48.9722 97.9443C22.1685 97.9443 0 75.7759 0 48.9722C0 22.1348 22.1348 0 48.9385 0C75.791 0 97.9595 22.1348 97.9595 48.9722ZM26.9102 29.0952C25.0996 29.0952 24.1548 30.2759 24.1548 32.0191L24.1548 65.8613C24.1548 67.5371 25.0659 68.8003 26.9102 68.8003L42.4858 68.8003C43.9966 68.8003 45.0391 67.9229 45.0391 66.4458C45.0391 64.834 43.8096 64.0425 42.4858 64.0425L29.7886 64.0425L29.7886 50.8721L41.9707 50.8721C43.2642 50.8721 44.209 50.0806 44.209 48.6035C44.209 47.0591 43.2979 46.3164 41.9707 46.3164L29.7886 46.3164L29.7886 33.8716L42.4858 33.8716C43.8096 33.8716 45.0391 33.0952 45.0391 31.4497C45.0391 30.0064 43.978 29.0952 42.4858 29.0952ZM53.3301 29.0952C51.8867 29.0952 50.8257 30.0586 50.8257 31.4834C50.8257 32.9268 51.8867 33.8716 53.3301 33.8716L68.1436 33.8716L68.1436 34.0703L51.3125 63.667C51.0313 64.2446 50.7012 65.144 50.7012 66.082C50.7012 67.773 51.897 68.8003 53.5693 68.8003L72.6201 68.8003C74.0449 68.8003 74.9898 67.7881 74.9898 66.4121C74.9898 64.9873 74.0449 64.0425 72.6201 64.0425L57.1196 64.0425L57.1196 63.6265L73.688 34.3262C74.0703 33.6812 74.3364 33.0361 74.3364 32.0845C74.3364 30.1274 72.9756 29.0952 71.2832 29.0952Z" fill="#000000" fill-opacity="0.85"/>
 </g>
</svg>
