<?xml version="1.0" encoding="UTF-8"?>
<!--Generator: Apple Native CoreSVG 232.5-->
<!DOCTYPE svg
PUBLIC "-//W3C//DTD SVG 1.1//EN"
       "http://www.w3.org/Graphics/SVG/1.1/DTD/svg11.dtd">
<svg version="1.1" xmlns="http://www.w3.org/2000/svg" xmlns:xlink="http://www.w3.org/1999/xlink" width="97.9595" height="97.9932">
 <g>
  <rect height="97.9932" opacity="0" width="97.9595" x="0" y="0"/>
  <path d="M97.9595 48.9722C97.9595 75.7759 75.8247 97.9443 48.9722 97.9443C22.1685 97.9443 0 75.7759 0 48.9722C0 22.1348 22.1348 0 48.9385 0C75.791 0 97.9595 22.1348 97.9595 48.9722ZM31.6694 42.3203L26.9077 42.3203C25.7187 42.3203 24.8599 43.1304 24.8599 44.3867C24.8599 45.542 25.7187 46.4531 26.9077 46.4531L31.0884 46.4531C30.9907 47.3203 30.957 48.1841 30.957 49.1001C30.957 49.979 30.957 50.7603 31.0547 51.5903L26.9077 51.5903C25.7187 51.5903 24.8599 52.4004 24.8599 53.6231C24.8599 54.812 25.7187 55.7232 26.9077 55.7232L31.6021 55.7232C33.5083 65.7026 39.9556 72.293 49.8565 72.293C58.25 72.293 64.5982 68.4644 66.8867 61.5791C67.1494 60.7944 67.3599 59.9946 67.3599 59.1275C67.3599 57.669 66.3662 56.6265 64.9194 56.6265C63.5889 56.6265 62.6694 57.4028 62.314 58.7974C61.1553 64.2422 56.2236 67.4609 49.9912 67.4609C43.2349 67.4609 38.7598 62.7183 37.1231 55.7232L51.6304 55.7232C52.8193 55.7232 53.7119 54.812 53.7119 53.6231C53.7119 52.4004 52.8193 51.5903 51.6304 51.5903L36.4072 51.5903C36.3247 50.7603 36.291 49.9453 36.291 49.1001C36.291 48.1841 36.3735 47.3203 36.4375 46.4531L51.6304 46.4531C52.8193 46.4531 53.7119 45.542 53.7119 44.3867C53.7119 43.1304 52.8193 42.3203 51.6304 42.3203L37.2207 42.3203C38.9248 35.6147 43.4116 31.0034 49.9912 31.0034C55.9692 31.0034 60.7881 34.5317 62.0933 39.98C62.4824 41.4941 63.2554 42.1021 64.6499 42.1021C66.1607 42.1021 67.1543 41.1084 67.1089 39.5557C67.1089 38.7676 66.9136 38.0132 66.666 37.2436C64.4483 30.623 57.999 26.1562 49.8565 26.1562C40.375 26.1562 33.7256 32.477 31.6694 42.3203Z" fill="#000000" fill-opacity="0.85"/>
 </g>
</svg>
