<?xml version="1.0" encoding="UTF-8"?>
<!--Generator: Apple Native CoreSVG 232.5-->
<!DOCTYPE svg
PUBLIC "-//W3C//DTD SVG 1.1//EN"
       "http://www.w3.org/Graphics/SVG/1.1/DTD/svg11.dtd">
<svg version="1.1" xmlns="http://www.w3.org/2000/svg" xmlns:xlink="http://www.w3.org/1999/xlink" width="97.9595" height="97.9932">
 <g>
  <rect height="97.9932" opacity="0" width="97.9595" x="0" y="0"/>
  <path d="M48.9722 97.9443C75.8247 97.9443 97.9595 75.7759 97.9595 48.9722C97.9595 22.1348 75.791 0 48.9385 0C22.1348 0 0 22.1348 0 48.9722C0 75.7759 22.1685 97.9443 48.9722 97.9443ZM48.9722 91.6113C25.3501 91.6113 6.36671 72.5942 6.36671 48.9722C6.36671 25.3501 25.3164 6.31789 48.9385 6.31789C72.5605 6.31789 91.6265 25.3501 91.6265 48.9722C91.6265 72.5942 72.5942 91.6113 48.9722 91.6113Z" fill="#000000" fill-opacity="0.85"/>
  <path d="M27.333 68.3775L42.6206 68.3775C44.064 68.3775 45.0913 67.5337 45.0913 66.0903C45.0913 64.5459 43.9106 63.7544 42.6206 63.7544L30.1104 63.7544L30.1104 50.8047L42.1055 50.8047C43.3652 50.8047 44.2764 50.0469 44.2764 48.6035C44.2764 47.1265 43.3989 46.3838 42.1055 46.3838L30.1104 46.3838L30.1104 34.1597L42.6206 34.1597C43.9106 34.1597 45.0913 33.3833 45.0913 31.8052C45.0913 30.3804 44.0303 29.5029 42.6206 29.5029L27.333 29.5029C25.5747 29.5029 24.6299 30.665 24.6299 32.356L24.6299 65.5396C24.6299 67.1631 25.541 68.3775 27.333 68.3775ZM53.4346 68.3775L72.145 68.3775C73.4873 68.3775 74.4321 67.3989 74.4321 66.0566C74.4321 64.6992 73.4873 63.7544 72.145 63.7544L56.8989 63.7544L56.8989 63.3721L73.1792 34.5806C73.4941 33.9693 73.794 33.3394 73.794 32.4063C73.794 30.5166 72.4668 29.5029 70.793 29.5029L53.2105 29.5029C51.7857 29.5029 50.7583 30.4478 50.7583 31.8389C50.7583 33.2149 51.7857 34.1597 53.2105 34.1597L67.7881 34.1597L67.7881 34.3247L51.2603 63.4126C50.9639 63.9565 50.6489 64.8223 50.6489 65.7603C50.6489 67.3838 51.7959 68.3775 53.4346 68.3775Z" fill="#000000" fill-opacity="0.85"/>
 </g>
</svg>
