<?xml version="1.0" encoding="UTF-8"?>
<!--Generator: Apple Native CoreSVG 232.5-->
<!DOCTYPE svg
PUBLIC "-//W3C//DTD SVG 1.1//EN"
       "http://www.w3.org/Graphics/SVG/1.1/DTD/svg11.dtd">
<svg version="1.1" xmlns="http://www.w3.org/2000/svg" xmlns:xlink="http://www.w3.org/1999/xlink" width="81.9361" height="87.9678">
 <g>
  <rect height="87.9678" opacity="0" width="81.9361" x="0" y="0"/>
  <path d="M48.5483 87.919C64.6021 87.919 77.2896 80.4727 81.3701 67.1826C81.707 66.231 81.857 65.2002 81.857 64.417C81.857 62.4834 80.6694 61.2168 78.6904 61.2168C76.9741 61.2168 75.9365 62.1836 75.2139 64.1997C71.8291 75.3623 61.9072 81.4258 48.582 81.4258C30.8091 81.4258 17.8501 66.7612 17.8501 43.6465C17.8501 21.0098 30.7031 6.54201 48.5483 6.54201C61.749 6.54201 71.7129 14.1006 75.1768 25.1689C75.8657 27.0757 76.9253 28.1519 78.7358 28.1519C80.6509 28.1519 81.9361 26.8818 81.9361 24.9634C81.9361 24.2105 81.7861 23.1797 81.3853 22.1978C77.3638 9.39111 65.2813 0 48.5483 0C26.376 0 10.7236 17.0044 10.7236 43.6465C10.7236 70.6572 26.354 87.919 48.5483 87.919ZM2.53467 38.2417L54.4097 38.2417C55.8867 38.2417 56.9629 37.1436 56.9629 35.7339C56.9629 34.1929 55.9019 33.1772 54.4097 33.1772L2.53467 33.1772C1.06104 33.1772 0 34.1929 0 35.7339C0 37.1436 1.10987 38.2417 2.53467 38.2417ZM2.53467 55.0899L54.4097 55.0899C55.9019 55.0899 56.9629 54.0068 56.9629 52.582C56.9629 51.0713 55.8867 50.0254 54.4097 50.0254L2.53467 50.0254C1.10987 50.0254 0 51.0713 0 52.582C0 54.0068 1.06104 55.0899 2.53467 55.0899Z" fill="#000000" fill-opacity="0.85"/>
 </g>
</svg>
