<?xml version="1.0" encoding="UTF-8"?>
<!--Generator: Apple Native CoreSVG 232.5-->
<!DOCTYPE svg
PUBLIC "-//W3C//DTD SVG 1.1//EN"
       "http://www.w3.org/Graphics/SVG/1.1/DTD/svg11.dtd">
<svg version="1.1" xmlns="http://www.w3.org/2000/svg" xmlns:xlink="http://www.w3.org/1999/xlink" width="145.023" height="107.149">
 <g>
  <rect height="107.149" opacity="0" width="145.023" x="0" y="0"/>
  <path d="M69.4278 104.138L69.4278 12.2964C69.4278 4.39453 65.0786 0 57.1802 0L19.1416 0C11.1455 0 6.95801 4.34912 6.95801 12.2964L6.95801 104.138ZM19.8447 50.4165C16.4468 50.4165 14.2984 48.418 14.2984 45.1768L14.2984 12.6777C14.2984 9.43653 16.4468 7.4043 19.8447 7.4043L56.4771 7.4043C59.8901 7.4043 62.0874 9.43653 62.0874 12.6777L62.0874 45.1768C62.0874 48.418 59.8901 50.4165 56.4771 50.4165ZM0 104.039C0 105.721 1.31543 107.119 2.94923 107.119L73.3237 107.119C74.9575 107.119 76.3555 105.721 76.3555 104.039C76.3555 102.438 74.9575 101.089 73.3237 101.089L2.94923 101.089C1.34912 101.089 0 102.405 0 104.039ZM83.5322 33.0371L88.1602 33.0371L88.1753 22.3755C88.1753 21.104 87.1177 20.0312 85.8799 20.0312C84.541 20.0312 83.5322 21.104 83.5322 22.3755ZM99.8667 33.0371L99.8667 22.3755C99.8667 21.104 98.8579 20.0312 97.5528 20.0312C96.2661 20.0312 95.2237 21.104 95.2237 22.3755L95.2388 33.0371ZM67.5147 63.0806L69.9009 63.0806C72.5254 63.0806 74.2139 64.6831 74.2139 67.4727L74.2139 84.1646C74.2139 90.3413 78.0498 94.1621 84.2417 94.1621C90.3697 94.1621 94.1719 90.3413 94.1719 84.1646L94.1719 58.5269C94.1719 53.7837 97.4825 52.3711 99.9742 50.3862C103.066 48.0068 105.001 45.0107 105.001 40.8164L105.001 33.6284C105.001 32.4565 104.332 31.7275 103.303 31.7275L79.6392 31.7275C78.6104 31.7275 77.957 32.4565 77.957 33.6284L77.957 40.8164C77.957 45.0107 79.8916 48.0068 82.9683 50.3862C85.46 52.3711 88.7705 53.7837 88.7705 58.5269L88.7705 84.1646C88.7705 86.998 87.0264 88.7759 84.2417 88.7759C81.3594 88.7759 79.6153 86.998 79.6153 84.1646L79.6153 67.4727C79.6153 61.3398 75.8687 57.6943 69.9009 57.6943L67.5147 57.6943Z" fill="#000000" fill-opacity="0.85"/>
  <path d="M143.713 51.7925L118.355 36.582C116.617 35.565 114.335 36.4321 114.335 38.271L114.335 69.5928C114.335 71.4956 116.516 72.3965 118.355 71.2817L143.713 56.2295C145.466 55.167 145.399 52.8213 143.713 51.7925Z" fill="#000000" fill-opacity="0.85"/>
 </g>
</svg>
