<?xml version="1.0" encoding="UTF-8"?>
<!--Generator: Apple Native CoreSVG 232.5-->
<!DOCTYPE svg
PUBLIC "-//W3C//DTD SVG 1.1//EN"
       "http://www.w3.org/Graphics/SVG/1.1/DTD/svg11.dtd">
<svg version="1.1" xmlns="http://www.w3.org/2000/svg" xmlns:xlink="http://www.w3.org/1999/xlink" width="100.337" height="88.4395">
 <g>
  <rect height="88.4395" opacity="0" width="100.337" x="0" y="0"/>
  <path d="M50.1592 88.3418C78.2393 88.3418 100.337 66.293 100.337 39.8125C100.337 25.8457 94.1929 13.2158 85.3399 4.78711C81.8257 1.50195 78.0151 0 72.77 0L27.5332 0C22.3369 0 18.5112 1.50195 14.9971 4.78711C6.11035 13.2158 0 25.8457 0 39.8125C0 66.293 22.0977 88.3418 50.1592 88.3418ZM50.1592 81.9902C24.7134 81.9902 6.36671 63.6436 6.36671 39.8125C6.36671 27.3296 11.3115 17.0493 19.3628 9.43751C21.895 7.03322 23.6909 6.36671 27.5332 6.36671L72.77 6.36671C76.6123 6.36671 78.4233 7.03322 80.9404 9.43751C88.9917 17.0493 93.9702 27.3296 93.9702 39.8125C93.9702 63.6436 75.5898 81.9902 50.1592 81.9902Z" fill="#000000" fill-opacity="0.85"/>
  <path d="M37.1812 28.3447C41.5234 28.3447 45.0693 24.7988 45.0693 20.4565C45.0693 16.0806 41.5234 12.5347 37.1812 12.5347C32.8052 12.5347 29.2593 16.0806 29.2593 20.4565C29.2593 24.7988 32.8052 28.3447 37.1812 28.3447ZM63.1558 28.3447C67.5317 28.3447 71.0776 24.7988 71.0776 20.4565C71.0776 16.0806 67.5317 12.5347 63.1558 12.5347C58.7798 12.5347 55.2339 16.0806 55.2339 20.4565C55.2339 24.7988 58.7798 28.3447 63.1558 28.3447ZM24.1392 50.8897C30.2393 50.8897 35.1826 45.9126 35.1826 39.8125C35.1826 33.7275 30.2393 28.7505 24.1392 28.7505C18.0205 28.7505 13.0772 33.7275 13.0772 39.8125C13.0772 45.9126 18.0205 50.8897 24.1392 50.8897ZM50.1592 50.8897C56.2778 50.8897 61.2212 45.9126 61.2212 39.8125C61.2212 33.7275 56.2778 28.7505 50.1592 28.7505C44.0591 28.7505 39.1157 33.7275 39.1157 39.8125C39.1157 45.9126 44.0591 50.8897 50.1592 50.8897ZM76.1978 50.8897C82.2827 50.8897 87.2598 45.9126 87.2598 39.8125C87.2598 33.7275 82.2827 28.7505 76.1978 28.7505C70.0977 28.7505 65.1357 33.7275 65.1357 39.8125C65.1357 45.9126 70.0977 50.8897 76.1978 50.8897ZM37.1323 73.6939C43.251 73.6939 48.1943 68.7168 48.1943 62.6167C48.1943 56.5317 43.251 51.5547 37.1323 51.5547C31.0322 51.5547 26.104 56.5317 26.104 62.6167C26.104 68.7168 31.0322 73.6939 37.1323 73.6939ZM63.1709 73.6939C69.3047 73.6939 74.2329 68.7168 74.2329 62.6167C74.2329 56.5317 69.3047 51.5547 63.1709 51.5547C57.0859 51.5547 52.1089 56.5317 52.1089 62.6167C52.1089 68.7168 57.0859 73.6939 63.1709 73.6939Z" fill="#000000" fill-opacity="0.85"/>
 </g>
</svg>
