<?xml version="1.0" encoding="UTF-8"?>
<!--Generator: Apple Native CoreSVG 232.5-->
<!DOCTYPE svg
PUBLIC "-//W3C//DTD SVG 1.1//EN"
       "http://www.w3.org/Graphics/SVG/1.1/DTD/svg11.dtd">
<svg version="1.1" xmlns="http://www.w3.org/2000/svg" xmlns:xlink="http://www.w3.org/1999/xlink" width="97.9595" height="97.9932">
 <g>
  <rect height="97.9932" opacity="0" width="97.9595" x="0" y="0"/>
  <path d="M97.9595 48.9722C97.9595 75.7759 75.8247 97.9443 48.9722 97.9443C22.1685 97.9443 0 75.7759 0 48.9722C0 22.1348 22.1348 0 48.9385 0C75.791 0 97.9595 22.1348 97.9595 48.9722ZM53.5835 67.5737L48.9385 72.2373L44.3086 67.5737C43.5322 66.8159 42.3433 66.7822 41.5518 67.5737C40.7754 68.3838 40.8091 69.5728 41.5518 70.3491L46.1968 74.9941L41.5518 79.5903C40.8091 80.3818 40.7754 81.6045 41.5518 82.3809C42.3433 83.1572 43.5322 83.1387 44.3086 82.3809L48.9385 77.7173L53.5835 82.3809C54.3599 83.1387 55.5488 83.1572 56.3403 82.3809C57.1167 81.6045 57.083 80.3818 56.3403 79.5903L51.6953 74.9941L56.3403 70.3491C57.083 69.5728 57.1167 68.3838 56.3403 67.5737C55.5488 66.7822 54.3599 66.8159 53.5835 67.5737ZM14.5518 48.9722C14.5518 57.2393 21.2564 63.8799 29.5234 63.8799C37.7266 63.8799 44.4312 57.2393 44.4312 48.9722C44.4312 40.7051 37.7266 34.0493 29.5234 34.0493C21.2564 34.0493 14.5518 40.7051 14.5518 48.9722ZM53.5132 48.9722C53.5132 57.2393 60.2178 63.8799 68.4849 63.8799C76.7031 63.8799 83.4077 57.2393 83.4077 48.9722C83.4077 40.7051 76.7031 34.0493 68.4849 34.0493C60.2178 34.0493 53.5132 40.7051 53.5132 48.9722ZM53.5835 15.4844L48.9385 20.148L44.3086 15.4844C43.4985 14.6929 42.3433 14.6929 41.5518 15.4844C40.8091 16.2607 40.8091 17.4834 41.5518 18.2749L46.1968 22.8711L41.5518 27.5161C40.8091 28.2925 40.8091 29.5151 41.5518 30.2915C42.3433 31.0493 43.5322 31.0493 44.3086 30.2915L48.9385 25.6279L53.5835 30.2915C54.3599 31.0493 55.5488 31.0493 56.3403 30.2915C57.1167 29.5151 57.1167 28.3262 56.3403 27.5161L51.6953 22.8711L56.3403 18.2749C57.1167 17.4497 57.1167 16.2607 56.3403 15.4844C55.5488 14.6929 54.3936 14.6929 53.5835 15.4844Z" fill="#000000" fill-opacity="0.85"/>
 </g>
</svg>
