<?xml version="1.0" encoding="UTF-8"?>
<!--Generator: Apple Native CoreSVG 232.5-->
<!DOCTYPE svg
PUBLIC "-//W3C//DTD SVG 1.1//EN"
       "http://www.w3.org/Graphics/SVG/1.1/DTD/svg11.dtd">
<svg version="1.1" xmlns="http://www.w3.org/2000/svg" xmlns:xlink="http://www.w3.org/1999/xlink" width="122.525" height="107.927">
 <g>
  <rect height="107.927" opacity="0" width="122.525" x="0" y="0"/>
  <path d="M61.2549 107.814C95.6001 107.814 122.525 80.9834 122.525 48.5796C122.525 31.4575 115.066 16.0933 104.23 5.79737C99.9492 1.79492 95.4399 0 89.0498 0L33.4448 0C27.0547 0 22.5454 1.79492 18.2803 5.79737C7.44385 16.0933 0 31.4575 0 48.5796C0 80.9834 26.8945 107.814 61.2549 107.814ZM61.2549 101.462C29.5103 101.462 6.38185 78.334 6.38185 48.5796C6.38185 32.9229 12.6265 19.9268 22.7285 10.4292C25.7085 7.64455 28.9815 6.36671 33.4448 6.36671L89.0498 6.36671C93.4795 6.36671 96.8013 7.64455 99.7813 10.4292C109.883 19.9268 116.143 32.9229 116.143 48.5796C116.143 78.334 92.9844 101.462 61.2549 101.462Z" fill="#000000" fill-opacity="0.85"/>
  <path d="M45.1333 34.2275C50.2988 34.2275 54.5518 29.9712 54.5518 24.8242C54.5518 19.6099 50.2988 15.3721 45.1333 15.3721C39.919 15.3721 35.6812 19.6099 35.6812 24.8242C35.6812 29.9712 39.919 34.2275 45.1333 34.2275ZM77.3765 34.2275C82.6245 34.2275 86.8286 29.9712 86.8286 24.8242C86.8286 19.6099 82.6245 15.3721 77.3765 15.3721C72.2109 15.3721 67.958 19.6099 67.958 24.8242C67.958 29.9712 72.2109 34.2275 77.3765 34.2275ZM28.9141 61.6987C36.1841 61.6987 42.0635 55.8345 42.0635 48.5796C42.0635 41.3062 36.1841 35.4756 28.9141 35.4756C21.7383 35.4756 15.7949 41.3062 15.7949 48.5796C15.7949 55.8345 21.7383 61.6987 28.9141 61.6987ZM61.2549 61.6987C68.4644 61.6987 74.374 55.8345 74.374 48.5796C74.374 41.3062 68.4644 35.4756 61.2549 35.4756C54.0303 35.4756 48.1206 41.3062 48.1206 48.5796C48.1206 55.8345 54.0303 61.6987 61.2549 61.6987ZM93.5806 61.6987C100.79 61.6987 106.7 55.8345 106.7 48.5796C106.7 41.3062 100.79 35.4756 93.5806 35.4756C86.3257 35.4756 80.4312 41.3062 80.4312 48.5796C80.4312 55.8345 86.3257 61.6987 93.5806 61.6987ZM45.1333 89.4746C52.3428 89.4746 58.2524 83.6138 58.2524 76.3252C58.2524 69.0703 52.3428 63.2061 45.1333 63.2061C37.8599 63.2061 31.999 69.0703 31.999 76.3252C31.999 83.6138 37.8599 89.4746 45.1333 89.4746ZM77.3765 89.4746C84.6348 89.4746 90.4956 83.6138 90.4956 76.3252C90.4956 69.0703 84.6348 63.2061 77.3765 63.2061C70.1519 63.2061 64.3062 69.0703 64.3062 76.3252C64.3062 83.6138 70.1519 89.4746 77.3765 89.4746Z" fill="#000000" fill-opacity="0.85"/>
 </g>
</svg>
