<?xml version="1.0" encoding="UTF-8"?>
<!--Generator: Apple Native CoreSVG 232.5-->
<!DOCTYPE svg
PUBLIC "-//W3C//DTD SVG 1.1//EN"
       "http://www.w3.org/Graphics/SVG/1.1/DTD/svg11.dtd">
<svg version="1.1" xmlns="http://www.w3.org/2000/svg" xmlns:xlink="http://www.w3.org/1999/xlink" width="108.33" height="101.837">
 <g>
  <rect height="101.837" opacity="0" width="108.33" x="0" y="0"/>
  <path d="M54.165 101.739C84.0283 101.739 108.33 77.4224 108.33 47.5742C108.33 28.3364 98.2368 11.4443 83.9355 2.50195C81.2246 0.766113 78.5103 0 75.1445 0L33.1856 0C29.8047 0 27.1055 0.766113 24.3945 2.50195C10.0933 11.4443 0 28.3364 0 47.5742C0 77.4224 24.3018 101.739 54.165 101.739ZM54.165 95.3726C27.5088 95.3726 6.36671 74.2642 6.36671 47.5742C6.36671 30.7149 14.8076 16.1841 27.4497 7.97609C29.1485 6.80275 30.8994 6.35158 33.1856 6.35158L75.1445 6.35158C77.4307 6.35158 79.1816 6.80275 80.8804 7.97609C93.5562 16.1841 101.963 30.7149 101.963 47.5742C101.963 74.2642 80.8213 95.3726 54.165 95.3726Z" fill="#000000" fill-opacity="0.85"/>
  <path d="M37.9629 27.3985C41.6856 27.3985 44.6792 24.4234 44.6792 20.7158C44.6792 17.0083 41.6856 13.9995 37.9629 13.9995C34.2891 13.9995 31.2954 17.0083 31.2954 20.7158C31.2954 24.4234 34.2891 27.3985 37.9629 27.3985ZM54.165 27.3985C57.8726 27.3985 60.8477 24.4234 60.8477 20.7158C60.8477 17.0083 57.8726 13.9995 54.165 13.9995C50.4575 13.9995 47.4824 17.0083 47.4824 20.7158C47.4824 24.4234 50.4575 27.3985 54.165 27.3985ZM70.3672 27.3985C74.0747 27.3985 77.0347 24.4234 77.0347 20.7158C77.0347 17.0083 74.0747 13.9995 70.3672 13.9995C66.6445 13.9995 63.6509 17.0083 63.6509 20.7158C63.6509 24.4234 66.6445 27.3985 70.3672 27.3985ZM54.165 43.6006C57.8726 43.6006 60.8477 40.5918 60.8477 36.918C60.8477 33.2105 57.8726 30.2017 54.165 30.2017C50.4575 30.2017 47.4824 33.2105 47.4824 36.918C47.4824 40.5918 50.4575 43.6006 54.165 43.6006ZM29.4888 62.2276C37.5386 62.2276 44.1084 55.6729 44.1084 47.5742C44.1084 39.4942 37.5386 32.9395 29.4888 32.9395C21.375 32.9395 14.8052 39.4942 14.8052 47.5742C14.8052 55.6729 21.375 62.2276 29.4888 62.2276ZM78.8413 62.2276C86.9551 62.2276 93.5249 55.6729 93.5249 47.5742C93.5249 39.4942 86.9551 32.9395 78.8413 32.9395C70.7915 32.9395 64.2217 39.4942 64.2217 47.5742C64.2217 55.6729 70.7915 62.2276 78.8413 62.2276ZM33.3511 80.5664C36.7017 80.5664 39.4326 77.8506 39.4326 74.5186C39.4326 71.2017 36.7017 68.437 33.3511 68.437C30.0191 68.437 27.3032 71.2017 27.3032 74.5186C27.3032 77.8506 30.0191 80.5664 33.3511 80.5664ZM54.165 84.8262C59.8374 84.8262 64.4727 80.1909 64.4727 74.5186C64.4727 68.8613 59.8374 64.211 54.165 64.211C48.4927 64.211 43.8574 68.8613 43.8574 74.5186C43.8574 80.1909 48.4927 84.8262 54.165 84.8262ZM74.979 80.5664C78.311 80.5664 81.0269 77.8506 81.0269 74.5186C81.0269 71.2017 78.311 68.437 74.979 68.437C71.6284 68.437 68.8975 71.2017 68.8975 74.5186C68.8975 77.8506 71.6284 80.5664 74.979 80.5664Z" fill="#000000" fill-opacity="0.85"/>
 </g>
</svg>
