<?xml version="1.0" encoding="UTF-8"?>
<!--Generator: Apple Native CoreSVG 232.5-->
<!DOCTYPE svg
PUBLIC "-//W3C//DTD SVG 1.1//EN"
       "http://www.w3.org/Graphics/SVG/1.1/DTD/svg11.dtd">
<svg version="1.1" xmlns="http://www.w3.org/2000/svg" xmlns:xlink="http://www.w3.org/1999/xlink" width="79.6714" height="97.9785">
 <g>
  <rect height="97.9785" opacity="0" width="79.6714" x="0" y="0"/>
  <path d="M43.0405 2.59082C49.9458 4.9829 65.1045 10.6699 72.0132 13.3921C76.5083 15.207 78.3692 16.8789 78.3692 22.0444L78.3692 58.8003C78.3692 75.4214 69.7515 81.834 42.3921 96.9902C41.3076 97.5645 40.0718 97.9785 39.1846 97.9785C38.2822 97.9785 37.0952 97.5982 35.9771 96.9902C9.01514 81.1553 0 75.4214 0 58.8003L0 22.0444C0 16.8789 1.89453 15.1431 6.35596 13.3921C13.2495 10.6885 28.4536 5.00634 35.3472 2.59082C36.6167 2.18506 37.8779 1.89209 39.1846 1.89209C40.4912 1.89209 41.7524 2.15136 43.0405 2.59082ZM34.5181 67.7759C34.5181 70.2329 36.6636 72.2891 39.1997 72.2891C41.7207 72.2891 43.8662 70.2515 43.8662 67.7759C43.8662 65.27 41.7544 63.229 39.1997 63.229C36.6299 63.229 34.5181 65.3037 34.5181 67.7759ZM35.5146 26.8906L36.0771 53.5474C36.1108 55.6357 37.2207 56.8247 39.1997 56.8247C41.0962 56.8247 42.2549 55.6694 42.2886 53.5474L42.836 26.9243C42.8696 24.8359 41.3218 23.3252 39.166 23.3252C36.9766 23.3252 35.481 24.8022 35.5146 26.8906Z" fill="#000000" fill-opacity="0.85"/>
 </g>
</svg>
