<?xml version="1.0" encoding="UTF-8"?>
<!--Generator: Apple Native CoreSVG 232.5-->
<!DOCTYPE svg
PUBLIC "-//W3C//DTD SVG 1.1//EN"
       "http://www.w3.org/Graphics/SVG/1.1/DTD/svg11.dtd">
<svg version="1.1" xmlns="http://www.w3.org/2000/svg" xmlns:xlink="http://www.w3.org/1999/xlink" width="79.9771" height="92.5977">
 <g>
  <rect height="92.5977" opacity="0" width="79.9771" x="0" y="0"/>
  <path d="M74.4244 66.2988C76.3731 66.2988 77.7559 64.9834 77.7896 62.937L78.0777 3.8423C78.0777 3.8423 78.0777 3.8423 78.0777 3.8423C78.0777 1.70997 76.3882 0.290042 74.3907 0.290042C72.3443 0.290042 70.6699 1.70997 70.6699 3.8423C70.6699 3.8423 70.6699 3.8423 70.6699 3.8423L71.0254 62.937C71.0591 64.9834 72.4117 66.2988 74.4244 66.2988ZM74.3907 92.5977C77.4913 92.5977 79.9771 90.063 79.9771 86.9961C79.9771 83.8955 77.4913 81.4097 74.3907 81.4097C71.2901 81.4097 68.7554 83.8955 68.7554 86.9961C68.7554 90.063 71.2901 92.5977 74.3907 92.5977Z" fill="#000000" fill-opacity="0.85"/>
  <path d="M40.0054 66.2988C41.9878 66.2988 43.3369 64.9834 43.3706 62.937L43.6587 3.8423C43.6587 3.8423 43.6587 3.8423 43.6587 3.8423C43.6587 1.70997 42.0181 0.290042 39.9717 0.290042C37.9741 0.290042 36.2847 1.70997 36.2847 3.8423C36.2847 3.8423 36.2847 3.8423 36.2847 3.8423L36.6402 62.937C36.6738 64.9834 38.0415 66.2988 40.0054 66.2988ZM39.9717 92.5977C43.106 92.5977 45.607 90.063 45.607 86.9961C45.607 83.8955 43.106 81.4097 39.9717 81.4097C36.9048 81.4097 34.3853 83.8955 34.3853 86.9961C34.3853 90.063 36.9048 92.5977 39.9717 92.5977Z" fill="#000000" fill-opacity="0.85"/>
  <path d="M5.62013 66.2988C7.61769 66.2988 8.96682 64.9834 9.00051 62.937L9.28859 3.8423C9.28859 3.8423 9.28859 3.8423 9.28859 3.8423C9.28859 1.70997 7.63283 0.290042 5.60157 0.290042C3.55518 0.290042 1.89942 1.70997 1.89942 3.8423C1.89942 3.8423 1.89942 3.8423 1.89942 3.8423L2.25489 62.937C2.28858 64.9834 3.62256 66.2988 5.62013 66.2988ZM5.60157 92.5977C8.68703 92.5977 11.188 90.063 11.188 86.9961C11.188 83.8955 8.68703 81.4097 5.60157 81.4097C2.53467 81.4097 0 83.8955 0 86.9961C0 90.063 2.53467 92.5977 5.60157 92.5977Z" fill="#000000" fill-opacity="0.85"/>
 </g>
</svg>
