<?xml version="1.0" encoding="UTF-8"?>
<!--Generator: Apple Native CoreSVG 232.5-->
<!DOCTYPE svg
PUBLIC "-//W3C//DTD SVG 1.1//EN"
       "http://www.w3.org/Graphics/SVG/1.1/DTD/svg11.dtd">
<svg version="1.1" xmlns="http://www.w3.org/2000/svg" xmlns:xlink="http://www.w3.org/1999/xlink" width="88.4092" height="88.5371">
 <g>
  <rect height="88.5371" opacity="0" width="88.4092" x="0" y="0"/>
  <path d="M88.4092 14.4019L88.4092 74.2632C88.4092 83.6558 83.5733 88.5371 74.0005 88.5371L14.3936 88.5371C4.86963 88.5371 0 83.7349 0 74.2632L0 14.4019C0 4.93018 4.86963 0.127929 14.3936 0.127929L74.0005 0.127929C83.5733 0.127929 88.4092 5.00928 88.4092 14.4019ZM39.5625 64.126C39.5625 66.583 41.708 68.6392 44.229 68.6392C46.75 68.6392 48.8955 66.6167 48.8955 64.126C48.8955 61.6201 46.7837 59.5942 44.229 59.5942C41.6743 59.5942 39.5625 61.6538 39.5625 64.126ZM40.5439 23.2407L41.1064 49.8975C41.1401 51.9858 42.25 53.1748 44.229 53.1748C46.1406 53.1748 47.2842 52.0195 47.3179 49.8975L47.8804 23.2744C47.8989 21.186 46.3511 19.6753 44.1953 19.6753C42.0059 19.6753 40.5254 21.1523 40.5439 23.2407Z" fill="#000000" fill-opacity="0.85"/>
 </g>
</svg>
