<?xml version="1.0" encoding="UTF-8"?>
<!--Generator: Apple Native CoreSVG 232.5-->
<!DOCTYPE svg
PUBLIC "-//W3C//DTD SVG 1.1//EN"
       "http://www.w3.org/Graphics/SVG/1.1/DTD/svg11.dtd">
<svg version="1.1" xmlns="http://www.w3.org/2000/svg" xmlns:xlink="http://www.w3.org/1999/xlink" width="66.2871" height="97.3897">
 <g>
  <rect height="97.3897" opacity="0" width="66.2871" x="0" y="0"/>
  <path d="M57.5454 26.6289L57.5454 38.1081C63.1061 38.7064 66.2871 42.5184 66.2871 48.9326L66.2871 83.8164C66.2871 90.835 62.4785 94.7715 55.9214 94.7715L10.3657 94.7715C3.80859 94.7715 0 90.835 0 83.8164L0 48.9326C0 42.5242 3.17518 38.7134 8.72656 38.1099L8.72656 26.6289C8.72656 9.43505 19.9058 0 33.1191 0C46.3813 0 57.5454 9.43505 57.5454 26.6289ZM29.3657 79.8242C29.3657 81.8247 31.0884 83.5254 33.0855 83.5254C35.1987 83.5254 36.9214 81.8247 36.9214 79.8242C36.9214 77.7412 35.1987 76.0894 33.0855 76.0894C31.0547 76.0894 29.3657 77.7598 29.3657 79.8242ZM30.2275 51.1504L30.6553 69.4741C30.689 71.106 31.5967 72.1079 33.1191 72.1079C34.6416 72.1079 35.5645 71.106 35.5981 69.4741L36.0259 51.1841C36.0596 49.5523 34.8335 48.3296 33.1191 48.3296C31.3862 48.3296 30.1938 49.5186 30.2275 51.1504ZM14.7495 25.9785L14.7495 38.0112L51.5713 38.0112L51.5713 25.9785C51.5713 13.2349 43.4307 5.72316 33.1191 5.72316C22.7925 5.72316 14.7495 13.2349 14.7495 25.9785Z" fill="#000000" fill-opacity="0.85"/>
 </g>
</svg>
