<?xml version="1.0" encoding="UTF-8"?>
<!--Generator: Apple Native CoreSVG 232.5-->
<!DOCTYPE svg
PUBLIC "-//W3C//DTD SVG 1.1//EN"
       "http://www.w3.org/Graphics/SVG/1.1/DTD/svg11.dtd">
<svg version="1.1" xmlns="http://www.w3.org/2000/svg" xmlns:xlink="http://www.w3.org/1999/xlink" width="98.0108" height="94.9961">
 <g>
  <rect height="94.9961" opacity="0" width="98.0108" x="0" y="0"/>
  <path d="M76.1025 6.0625L94.2002 25.7197C97.1924 28.9932 98.0108 31.1856 98.0108 35.9775L98.0108 59.0034C98.0108 63.7617 97.1924 65.9727 94.2002 69.2461L76.1025 88.9185C72.6377 92.5972 69.9653 94.9473 62.9014 94.9473L35.1094 94.9473C28.0606 94.9473 25.3545 92.5972 21.9233 88.9185L3.82569 69.2461C0.784668 65.9727 0 63.7617 0 59.0034L0 35.9775C0 31.1856 0.784668 28.9932 3.82569 25.7197L21.9233 6.0625C25.3545 2.36865 28.0606 0 35.1094 0L62.9014 0C69.9653 0 72.6377 2.36865 76.1025 6.0625ZM44.3633 67.3555C44.3633 69.8125 46.5088 71.8687 49.0298 71.8687C51.5659 71.8687 53.7114 69.8462 53.7114 67.3555C53.7114 64.8496 51.5996 62.8237 49.0298 62.8237C46.4751 62.8237 44.3633 64.8833 44.3633 67.3555ZM45.3599 26.4702L45.8735 53.127C45.9072 55.2153 47.0659 56.4043 49.0298 56.4043C50.9414 56.4043 52.085 55.249 52.1187 53.127L52.6812 26.5039C52.7149 24.4155 51.1519 22.9048 48.9961 22.9048C46.8218 22.9048 45.3262 24.3818 45.3599 26.4702Z" fill="#000000" fill-opacity="0.85"/>
 </g>
</svg>
