<?xml version="1.0" encoding="UTF-8"?>
<!--Generator: Apple Native CoreSVG 232.5-->
<!DOCTYPE svg
PUBLIC "-//W3C//DTD SVG 1.1//EN"
       "http://www.w3.org/Graphics/SVG/1.1/DTD/svg11.dtd">
<svg version="1.1" xmlns="http://www.w3.org/2000/svg" xmlns:xlink="http://www.w3.org/1999/xlink" width="97.9595" height="97.9932">
 <g>
  <rect height="97.9932" opacity="0" width="97.9595" x="0" y="0"/>
  <path d="M97.9595 48.9722C97.9595 75.7759 75.8247 97.9443 48.9722 97.9443C22.1685 97.9443 0 75.7759 0 48.9722C0 22.1348 22.1348 0 48.9385 0C75.791 0 97.9595 22.1348 97.9595 48.9722ZM44.3057 68.854C44.3057 71.311 46.4512 73.3672 48.9722 73.3672C51.5083 73.3672 53.6538 71.3447 53.6538 68.854C53.6538 66.3482 51.542 64.3223 48.9722 64.3223C46.4175 64.3223 44.3057 66.3818 44.3057 68.854ZM45.3022 27.9688L45.8311 54.6255C45.8496 56.7139 47.0083 57.9028 48.9722 57.9028C50.8838 57.9028 52.0274 56.7476 52.061 54.6255L52.6235 28.0024C52.6572 25.9141 51.0942 24.4033 48.9385 24.4033C46.7642 24.4033 45.2686 25.8804 45.3022 27.9688Z" fill="#000000" fill-opacity="0.85"/>
 </g>
</svg>
