<?xml version="1.0" encoding="UTF-8"?>
<!--Generator: Apple Native CoreSVG 232.5-->
<!DOCTYPE svg
PUBLIC "-//W3C//DTD SVG 1.1//EN"
       "http://www.w3.org/Graphics/SVG/1.1/DTD/svg11.dtd">
<svg version="1.1" xmlns="http://www.w3.org/2000/svg" xmlns:xlink="http://www.w3.org/1999/xlink" width="111.188" height="80.2432">
 <g>
  <rect height="80.2432" opacity="0" width="111.188" x="0" y="0"/>
  <path d="M18.9121 80.2432L92.291 80.2432C103.217 80.2432 111.188 72.291 111.188 61.4321C111.188 50.5581 103.217 42.5874 92.291 42.5874L18.9121 42.5874C7.9707 42.5874 0 50.5581 0 61.4321C0 72.291 7.9707 80.2432 18.9121 80.2432ZM18.9121 36.897L92.291 36.897C96.7144 36.897 100.777 37.9526 104.27 39.8535L91.6006 10.5898C88.6944 3.74658 82.9336 0.0942379 75.1675 0.0942379L36.0205 0.0942379C28.2695 0.0942379 22.4936 3.74658 19.5874 10.5898L6.86963 39.8535C10.3955 37.9526 14.4736 36.897 18.9121 36.897ZM85.6499 61.5298C85.6499 58.3423 88.4434 55.5186 91.7402 55.5186C94.9429 55.5186 97.7026 58.3423 97.7026 61.5298C97.7026 64.8452 94.9429 67.5342 91.7402 67.5225C88.4434 67.4771 85.6499 64.9395 85.6499 61.5298Z" fill="#000000" fill-opacity="0.85"/>
 </g>
</svg>
