<?xml version="1.0" encoding="UTF-8"?>
<!--Generator: Apple Native CoreSVG 232.5-->
<!DOCTYPE svg
PUBLIC "-//W3C//DTD SVG 1.1//EN"
       "http://www.w3.org/Graphics/SVG/1.1/DTD/svg11.dtd">
<svg version="1.1" xmlns="http://www.w3.org/2000/svg" xmlns:xlink="http://www.w3.org/1999/xlink" width="99.0957" height="104.25">
 <g>
  <rect height="104.25" opacity="0" width="99.0957" x="0" y="0"/>
  <path d="M0 52.9859C0 63.4346 8.20899 71.3404 19.0806 71.3404L80.0152 71.3404C90.8867 71.3404 99.0957 63.4346 99.0957 52.9859C99.0957 49.8775 98.232 47.0469 97.1206 44.5244L81.9995 9.62208C79.3306 3.35108 74.0884 0 66.9029 0L32.1929 0C25.041 0 19.7314 3.35108 17.0625 9.62208L1.94483 44.5244C0.739259 47.2656 0 50.0171 0 52.9859ZM12.4878 35.9189L22.9053 11.3618C24.5737 7.37306 27.7915 5.33741 32.311 5.33741L66.8638 5.33741C71.3833 5.33741 74.6162 7.37306 76.2696 11.3618L86.6568 35.9189C84.5708 35.0454 82.3418 34.5674 80.0454 34.5674L19.0957 34.5674C16.7842 34.5674 14.5401 35.0454 12.4878 35.9189ZM5.99269 52.9859C5.99269 45.8687 11.5371 40.5938 19.0806 40.5938L80.0152 40.5938C87.5586 40.5938 93.103 45.8687 93.103 52.9859C93.103 60.4097 87.9107 65.3477 80.0152 65.3477L19.0806 65.3477C11.5068 65.3477 5.99269 60.0879 5.99269 52.9859ZM74.4434 52.9859C74.4434 55.9629 76.8496 58.4029 79.9209 58.4146C82.834 58.4112 85.3345 55.9292 85.3345 52.9859C85.3345 50.0425 82.8003 47.542 79.9209 47.542C76.9776 47.542 74.4434 50.0425 74.4434 52.9859ZM45.9585 93.1914L52.0034 93.1914L52.0034 67.6802L45.9585 67.6802ZM9.57618 95.9927L88.3858 95.9927C90.0347 95.9927 91.4175 94.6436 91.4175 92.9947C91.4175 91.3457 90.0347 89.9629 88.3858 89.9629L9.57618 89.9629C7.92725 89.9629 6.57812 91.3457 6.57812 92.9947C6.57812 94.6436 7.92725 95.9927 9.57618 95.9927ZM49.0054 103.527C54.6616 103.527 59.3648 98.8243 59.3648 93.1343C59.3648 87.4781 54.6616 82.7749 49.0054 82.7749C43.3003 82.7749 38.6123 87.4781 38.6123 93.1343C38.6123 98.8243 43.3003 103.527 49.0054 103.527Z" fill="#000000" fill-opacity="0.85"/>
 </g>
</svg>
