<?xml version="1.0" encoding="UTF-8"?>
<!--Generator: Apple Native CoreSVG 232.5-->
<!DOCTYPE svg
PUBLIC "-//W3C//DTD SVG 1.1//EN"
       "http://www.w3.org/Graphics/SVG/1.1/DTD/svg11.dtd">
<svg version="1.1" xmlns="http://www.w3.org/2000/svg" xmlns:xlink="http://www.w3.org/1999/xlink" width="113.134" height="81.3281">
 <g>
  <rect height="81.3281" opacity="0" width="113.134" x="0" y="0"/>
  <path d="M0 60.6538C0 72.2236 9.1045 81.3281 21.4527 81.3281L91.6812 81.3281C104.029 81.3281 113.134 72.2236 113.134 60.6538C113.134 57.1733 112.09 54.0381 110.835 51.1133L93.4116 10.9302C90.3706 3.81397 84.396 0.127929 76.4883 0.127929L36.6455 0.127929C28.7227 0.127929 22.748 3.81397 19.7222 10.9302L2.23438 51.1133C1.02881 53.9893 0 57.1733 0 60.6538ZM6.04494 60.6538C6.04494 52.4155 12.436 46.0093 21.4527 46.0093L91.6812 46.0093C100.698 46.0093 107.089 52.4155 107.089 60.6538C107.089 69.5357 100.698 75.2983 91.6812 75.2983L21.4527 75.2983C12.436 75.2983 6.04494 68.8921 6.04494 60.6538ZM13.0772 41.8848L25.5532 12.5386C27.5147 7.83937 31.4126 5.45021 36.7031 5.45021L76.4307 5.45021C81.7212 5.45021 85.6528 7.83937 87.5806 12.5386L100.026 41.8696C97.5347 40.6611 94.7148 39.9644 91.6812 39.9644L21.4527 39.9644C18.3887 39.9644 15.5352 40.6611 13.0772 41.8848ZM85.6162 60.6538C85.6162 63.981 88.3574 66.5117 91.5718 66.5117C94.707 66.5117 97.4146 63.8867 97.4146 60.6538C97.4146 57.5186 94.707 54.7959 91.5718 54.7959C88.3574 54.7959 85.6162 57.5186 85.6162 60.6538Z" fill="#000000" fill-opacity="0.85"/>
 </g>
</svg>
