<?xml version="1.0" encoding="UTF-8"?>
<!--Generator: Apple Native CoreSVG 232.5-->
<!DOCTYPE svg
PUBLIC "-//W3C//DTD SVG 1.1//EN"
       "http://www.w3.org/Graphics/SVG/1.1/DTD/svg11.dtd">
<svg version="1.1" xmlns="http://www.w3.org/2000/svg" xmlns:xlink="http://www.w3.org/1999/xlink" width="97.9595" height="97.9932">
 <g>
  <rect height="97.9932" opacity="0" width="97.9595" x="0" y="0"/>
  <path d="M97.9595 48.9722C97.9595 75.7759 75.8247 97.9443 48.9722 97.9443C22.1685 97.9443 0 75.7759 0 48.9722C0 22.1348 22.1348 0 48.9385 0C75.791 0 97.9595 22.1348 97.9595 48.9722ZM6.36671 48.9722C6.36671 72.5942 25.3501 91.6113 48.9722 91.6113C72.5942 91.6113 91.6265 72.5942 91.6265 48.9722C91.6265 25.3501 72.5605 6.31789 48.9385 6.31789C25.3164 6.31789 6.36671 25.3501 6.36671 48.9722Z" fill="#000000" fill-opacity="0.85"/>
  <path d="M36.295 43.3922C35.5384 45.0904 35.1279 46.9795 35.1406 48.9756C35.1709 56.436 41.2979 62.7246 48.9385 62.7246C50.8988 62.7246 52.7676 62.3053 54.458 61.5484L60.8091 67.897C57.1976 69.1861 53.205 69.9595 48.9385 69.9595C29.6431 69.9595 15.7407 53.919 15.7407 48.9756C15.7407 46.1469 20.172 39.7177 27.618 34.7185ZM82.1177 48.9756C82.1177 51.7883 77.6665 58.1937 70.2404 63.1875L61.5514 54.4959C62.3254 52.8002 62.7515 50.928 62.7515 48.9756C62.7515 41.3013 56.5303 35.208 48.9385 35.208C46.9718 35.208 45.1002 35.6117 43.4092 36.3481L37.0769 30.0138C40.68 28.7375 44.668 27.9732 48.9385 27.9732C68.3047 27.9732 82.1177 44.0137 82.1177 48.9756Z" fill="#000000" fill-opacity="0.85"/>
  <path d="M72.0684 74.773C72.7773 75.4971 74.0303 75.5122 74.7393 74.773C75.4971 73.9663 75.4971 72.8447 74.7393 72.102L25.8423 23.1411C25.0996 22.3984 23.8804 22.3984 23.1377 23.1411C22.3648 23.8804 22.4136 25.103 23.1377 25.8272Z" fill="#000000" fill-opacity="0.85"/>
 </g>
</svg>
