<?xml version="1.0" encoding="UTF-8"?>
<!--Generator: Apple Native CoreSVG 232.5-->
<!DOCTYPE svg
PUBLIC "-//W3C//DTD SVG 1.1//EN"
       "http://www.w3.org/Graphics/SVG/1.1/DTD/svg11.dtd">
<svg version="1.1" xmlns="http://www.w3.org/2000/svg" xmlns:xlink="http://www.w3.org/1999/xlink" width="131.131" height="82.8926">
 <g>
  <rect height="82.8926" opacity="0" width="131.131" x="0" y="0"/>
  <path d="M65.5825 82.8926C104.067 82.8926 131.131 51.2651 131.131 41.4707C131.131 31.6426 103.927 0.0639647 65.5825 0.0639647C27.5596 0.0639647 0 31.6426 0 41.4707C0 51.2651 27.4351 82.8926 65.5825 82.8926ZM65.5825 76.7822C32.3604 76.7822 6.72853 48.6279 6.72853 41.4707C6.72853 35.0396 32.3604 6.14406 65.5825 6.14406C98.7188 6.14406 124.418 35.0396 124.418 41.4707C124.418 48.6279 98.7188 76.7822 65.5825 76.7822ZM65.5825 68.7842C80.6773 68.7842 92.96 56.3481 92.96 41.4707C92.96 26.2329 80.6773 14.1724 65.5825 14.1724C50.3447 14.1724 38.1377 26.2329 38.1377 41.4707C38.1377 56.3481 50.3447 68.7842 65.5825 68.7842ZM65.6128 50.1743C60.7315 50.1743 56.7661 46.2695 56.7661 41.4707C56.7661 36.623 60.7315 32.7671 65.6128 32.7671C70.4302 32.7671 74.3652 36.623 74.3652 41.4707C74.3652 46.2695 70.4302 50.1743 65.6128 50.1743Z" fill="#000000" fill-opacity="0.85"/>
 </g>
</svg>
