<?xml version="1.0" encoding="UTF-8"?>
<!--Generator: Apple Native CoreSVG 232.5-->
<!DOCTYPE svg
PUBLIC "-//W3C//DTD SVG 1.1//EN"
       "http://www.w3.org/Graphics/SVG/1.1/DTD/svg11.dtd">
<svg version="1.1" xmlns="http://www.w3.org/2000/svg" xmlns:xlink="http://www.w3.org/1999/xlink" width="97.9595" height="97.9932">
 <g>
  <rect height="97.9932" opacity="0" width="97.9595" x="0" y="0"/>
  <path d="M48.9722 97.9443C75.8247 97.9443 97.9595 75.7759 97.9595 48.9722C97.9595 22.1348 75.791 0 48.9385 0C22.1348 0 0 22.1348 0 48.9722C0 75.7759 22.1685 97.9443 48.9722 97.9443ZM48.9722 91.6113C25.3501 91.6113 6.36671 72.5942 6.36671 48.9722C6.36671 25.3501 25.3164 6.31789 48.9385 6.31789C72.5605 6.31789 91.6265 25.3501 91.6265 48.9722C91.6265 72.5942 72.5942 91.6113 48.9722 91.6113Z" fill="#000000" fill-opacity="0.85"/>
  <path d="M48.9385 69.9595C68.3687 69.9595 82.1177 53.919 82.1177 48.9756C82.1177 44.0137 68.3047 27.9732 48.9385 27.9732C29.3755 27.9732 15.7407 44.0137 15.7407 48.9756C15.7407 53.919 29.6431 69.9595 48.9385 69.9595ZM48.9385 62.7246C41.2979 62.7246 35.1709 56.436 35.1406 48.9756C35.0918 41.3013 41.2979 35.208 48.9385 35.208C56.5303 35.208 62.7515 41.3013 62.7515 48.9756C62.7515 56.436 56.5303 62.7246 48.9385 62.7246ZM49.0024 54.6113C52.04 54.6113 54.6382 51.9946 54.6382 48.9756C54.6382 45.9077 52.04 43.3062 49.0024 43.3062C45.9009 43.3062 43.2539 45.9077 43.2539 48.9756C43.2539 51.9946 45.9009 54.6113 49.0024 54.6113Z" fill="#000000" fill-opacity="0.85"/>
 </g>
</svg>
