<?xml version="1.0" encoding="UTF-8"?>
<!--Generator: Apple Native CoreSVG 232.5-->
<!DOCTYPE svg
PUBLIC "-//W3C//DTD SVG 1.1//EN"
       "http://www.w3.org/Graphics/SVG/1.1/DTD/svg11.dtd">
<svg version="1.1" xmlns="http://www.w3.org/2000/svg" xmlns:xlink="http://www.w3.org/1999/xlink" width="88.4092" height="88.5371">
 <g>
  <rect height="88.5371" opacity="0" width="88.4092" x="0" y="0"/>
  <path d="M14.3936 88.5371L74.0005 88.5371C83.5733 88.5371 88.4092 83.6558 88.4092 74.2632L88.4092 14.4019C88.4092 5.00928 83.5733 0.127929 74.0005 0.127929L14.3936 0.127929C4.86963 0.127929 0 4.93018 0 14.4019L0 74.2632C0 83.7349 4.86963 88.5371 14.3936 88.5371ZM14.5064 82.4922C9.00294 82.4922 6.04494 79.6016 6.04494 73.9634L6.04494 14.7017C6.04494 9.06349 9.00294 6.17287 14.5064 6.17287L73.9028 6.17287C79.2969 6.17287 82.3643 9.06349 82.3643 14.7017L82.3643 73.9634C82.3643 79.6016 79.2969 82.4922 73.9028 82.4922Z" fill="#000000" fill-opacity="0.85"/>
  <path d="M44.229 65.2314C63.6592 65.2314 77.4082 49.1909 77.4082 44.2476C77.4082 39.2857 63.5801 23.2451 44.229 23.2451C24.666 23.2451 11.0161 39.2857 11.0161 44.2476C11.0161 49.1909 24.9336 65.2314 44.229 65.2314ZM44.229 57.9966C36.5732 57.9966 30.4463 51.708 30.4312 44.2476C30.3672 36.5732 36.5732 30.48 44.229 30.48C51.8057 30.48 58.0269 36.5732 58.0269 44.2476C58.0269 51.708 51.8057 57.9966 44.229 57.9966ZM44.3115 49.8833C47.3306 49.8833 49.9136 47.2666 49.9136 44.2476C49.9136 41.1797 47.3306 38.5781 44.3115 38.5781C41.1763 38.5781 38.5444 41.1797 38.5444 44.2476C38.5444 47.2666 41.1763 49.8833 44.3115 49.8833Z" fill="#000000" fill-opacity="0.85"/>
 </g>
</svg>
