<?xml version="1.0" encoding="UTF-8"?>
<!--Generator: Apple Native CoreSVG 232.5-->
<!DOCTYPE svg
PUBLIC "-//W3C//DTD SVG 1.1//EN"
       "http://www.w3.org/Graphics/SVG/1.1/DTD/svg11.dtd">
<svg version="1.1" xmlns="http://www.w3.org/2000/svg" xmlns:xlink="http://www.w3.org/1999/xlink" width="131.131" height="100.486">
 <g>
  <rect height="100.486" opacity="0" width="131.131" x="0" y="0"/>
  <path d="M30.0335 25.8718C15.7349 34.7499 6.72853 46.4554 6.72853 50.2676C6.72853 57.4248 32.3604 85.5791 65.5825 85.5791C72.8829 85.5791 79.8223 84.2125 86.172 81.9542L91.1354 86.9127C83.439 89.8588 74.8412 91.6894 65.5825 91.6894C27.4351 91.6894 0 60.062 0 50.2676C0 44.4707 9.58758 31.1073 25.305 21.148ZM131.131 50.2676C131.131 56.0433 121.72 69.4112 106.054 79.3804L101.368 74.6961C115.506 65.979 124.418 54.4824 124.418 50.2676C124.418 43.8364 98.7188 14.9409 65.5825 14.9409C58.3601 14.9409 51.4965 16.3065 45.2106 18.5619L40.2617 13.615C47.9261 10.6815 56.4527 8.86082 65.5825 8.86082C103.927 8.86082 131.131 40.4394 131.131 50.2676ZM57.237 53.0482C58.0964 55.5718 60.1061 57.5781 62.6548 58.4605L78.5078 74.2977C74.658 76.3895 70.255 77.581 65.5825 77.581C50.3447 77.581 38.1377 65.145 38.1377 50.2676C38.1377 45.5264 39.3195 41.0929 41.409 37.2359ZM92.96 50.2676C92.96 54.8612 91.789 59.2222 89.7195 63.0526L73.7638 47.1035C72.8899 44.844 71.0924 43.0575 68.8371 42.1787L52.7487 26.0968C56.5661 24.092 60.9332 22.9692 65.5825 22.9692C80.6773 22.9692 92.96 35.0298 92.96 50.2676Z" fill="#000000" fill-opacity="0.85"/>
  <path d="M103.967 92.6133C105.099 93.7788 106.894 93.8462 108.093 92.6133C109.323 91.3501 109.225 89.6523 108.093 88.4868L25.4199 5.88084C24.3369 4.76413 22.4556 4.71872 21.2598 5.88084C20.1616 6.97898 20.1616 8.89403 21.2598 10.0073Z" fill="#000000" fill-opacity="0.85"/>
 </g>
</svg>
