<?xml version="1.0" encoding="UTF-8"?>
<!--Generator: Apple Native CoreSVG 232.5-->
<!DOCTYPE svg
PUBLIC "-//W3C//DTD SVG 1.1//EN"
       "http://www.w3.org/Graphics/SVG/1.1/DTD/svg11.dtd">
<svg version="1.1" xmlns="http://www.w3.org/2000/svg" xmlns:xlink="http://www.w3.org/1999/xlink" width="152.539" height="110.32">
 <g>
  <rect height="110.32" opacity="0" width="152.539" x="0" y="0"/>
  <path d="M43.5504 31.9565C42.065 31.654 40.5274 31.4993 38.9541 31.4993C25.8623 31.4993 15.2354 42.0959 15.2354 55.1692C15.2354 68.261 25.8623 78.8391 38.9541 78.8391C51.9937 78.8391 62.5903 68.2273 62.5903 55.1692C62.5903 53.5766 62.4323 52.0199 62.126 50.5159L68.7887 57.1727C67.7898 72.7995 54.8179 85.1233 38.9541 85.1233C23.3036 85.1233 10.4208 73.1555 9.07215 57.8572L3.23828 57.8572C1.11817 57.8572 0 56.7844 0 54.6609L0 53.0827C0 50.9441 1.11817 49.8899 3.23828 49.8899L9.43079 49.8899C11.7913 36.5209 23.0641 26.2133 36.8921 25.3041ZM143.095 49.8899L149.319 49.8899C151.455 49.8899 152.539 50.9441 152.539 53.0827L152.539 54.6609C152.539 56.7844 151.455 57.8572 149.319 57.8572L143.452 57.8572C142.261 71.4363 132.011 82.3906 118.781 84.6514L112.928 78.8033C113.16 78.8355 113.398 78.8391 113.637 78.8391C126.71 78.8391 137.289 68.261 137.289 55.1692C137.289 42.0959 126.71 31.4993 113.637 31.4993C100.564 31.4993 89.9336 42.1296 89.9336 55.1692C89.9336 55.4023 89.937 55.6347 89.9686 55.8599L81.212 47.1095C82.3537 47.33 83.4877 47.6439 84.5338 48.0647C87.7001 34.9428 99.5339 25.1999 113.637 25.1999C128.372 25.1999 140.625 35.8593 143.095 49.8899Z" fill="#000000" fill-opacity="0.85"/>
  <path d="M123.195 104.447C124.327 105.578 126.223 105.578 127.321 104.447C128.483 103.284 128.453 101.452 127.321 100.305L32.9385 5.97093C31.8218 4.85423 29.9741 4.80882 28.7783 5.97093C27.6802 7.06908 27.6802 8.98412 28.7783 10.0974Z" fill="#000000" fill-opacity="0.85"/>
 </g>
</svg>
