<?xml version="1.0" encoding="UTF-8"?>
<!--Generator: Apple Native CoreSVG 232.5-->
<!DOCTYPE svg
PUBLIC "-//W3C//DTD SVG 1.1//EN"
       "http://www.w3.org/Graphics/SVG/1.1/DTD/svg11.dtd">
<svg version="1.1" xmlns="http://www.w3.org/2000/svg" xmlns:xlink="http://www.w3.org/1999/xlink" width="110.921" height="87.5">
 <g>
  <rect height="87.5" opacity="0" width="110.921" x="0" y="0"/>
  <path d="M25.8345 87.5C40.209 87.5 51.6504 69.5244 51.6504 43.7256C51.6504 17.8931 40.209 0 25.8345 0C11.4414 0 0 17.8931 0 43.7256C0 69.5244 11.4414 87.5 25.8345 87.5ZM25.8345 82.1138C14.6719 82.1626 5.53273 66.2251 5.53273 43.7256C5.53273 21.3877 14.6567 5.4839 25.8345 5.38624C37.1099 5.33741 46.249 21.2261 46.249 43.7256C46.249 66.0938 37.1099 82.0161 25.8345 82.1138ZM14.9546 60.523C22.8364 60.523 28.0899 55.0254 28.0899 46.7041C28.0899 38.499 22.8364 32.9678 14.9546 32.9678C7.03907 32.9678 1.80079 38.499 1.80079 46.7041C1.80079 55.0254 7.03907 60.523 14.9546 60.523ZM11.1275 45.271C9.41505 45.0269 8.34083 43.0029 8.74659 40.8999C9.18604 38.8457 10.7857 37.3286 12.4155 37.6553C14.1279 37.9819 15.1567 39.9385 14.7324 41.9927C14.3569 44.0806 12.7759 45.5488 11.1275 45.271ZM85.0864 87.5C99.4947 87.5 110.921 69.5244 110.921 43.7256C110.921 17.8931 99.4947 0 85.0864 0C70.7119 0 59.2857 17.8931 59.2857 43.7256C59.2857 69.5244 70.7119 87.5 85.0864 87.5ZM85.0864 82.0801C73.8902 82.0952 64.7173 66.1914 64.7173 43.7256C64.7173 21.3877 73.8262 5.4839 85.0864 5.41993C96.2944 5.4048 105.467 21.2935 105.467 43.7256C105.467 66.1274 96.2944 82.0161 85.0864 82.0801ZM74.1729 60.523C82.0547 60.523 87.3755 55.0254 87.3755 46.7041C87.3755 38.499 82.0547 32.9678 74.1729 32.9678C66.291 32.9678 61.0039 38.499 61.0039 46.7041C61.0039 55.0254 66.291 60.523 74.1729 60.523ZM70.3306 45.271C68.6519 44.9932 67.5591 43.0029 67.9986 40.8999C68.438 38.8457 70.0039 37.3286 71.6675 37.6553C73.3799 37.9634 74.375 39.9385 73.9507 41.9927C73.5601 44.0806 71.9942 45.5488 70.3306 45.271Z" fill="#000000" fill-opacity="0.85"/>
 </g>
</svg>
