<?xml version="1.0" encoding="UTF-8"?>
<!--Generator: Apple Native CoreSVG 232.5-->
<!DOCTYPE svg
PUBLIC "-//W3C//DTD SVG 1.1//EN"
       "http://www.w3.org/Graphics/SVG/1.1/DTD/svg11.dtd">
<svg version="1.1" xmlns="http://www.w3.org/2000/svg" xmlns:xlink="http://www.w3.org/1999/xlink" width="97.9595" height="97.9932">
 <g>
  <rect height="97.9932" opacity="0" width="97.9595" x="0" y="0"/>
  <path d="M97.9595 49.021C97.9595 75.8584 75.8247 97.9932 48.9722 97.9932C22.1685 97.9932 0 75.8584 0 49.021C0 22.2173 22.1348 0.0488281 48.9385 0.0488281C75.791 0.0488281 97.9595 22.2173 97.9595 49.021ZM37.8999 26.2646C35.9326 26.2646 34.8833 27.7148 34.8833 29.7798L34.8833 68.2231C34.8833 70.2915 35.978 71.708 37.9639 71.708C39.98 71.708 41.0933 70.3589 41.0933 68.2231L41.0933 51.4092L59.9688 51.4092C61.5435 51.4092 62.6113 50.4863 62.6113 48.9199C62.6113 47.3384 61.5435 46.4121 59.9688 46.4121L41.0933 46.4121L41.0933 31.4976L61.8462 31.4976C63.436 31.4976 64.4888 30.4063 64.4888 28.9072C64.4888 27.292 63.436 26.2646 61.8462 26.2646Z" fill="#000000" fill-opacity="0.85"/>
 </g>
</svg>
