<?xml version="1.0" encoding="UTF-8"?>
<!--Generator: Apple Native CoreSVG 232.5-->
<!DOCTYPE svg
PUBLIC "-//W3C//DTD SVG 1.1//EN"
       "http://www.w3.org/Graphics/SVG/1.1/DTD/svg11.dtd">
<svg version="1.1" xmlns="http://www.w3.org/2000/svg" xmlns:xlink="http://www.w3.org/1999/xlink" width="97.9595" height="97.9932">
 <g>
  <rect height="97.9932" opacity="0" width="97.9595" x="0" y="0"/>
  <path d="M97.9595 48.9722C97.9595 75.7759 75.8247 97.9443 48.9722 97.9443C22.1685 97.9443 0 75.7759 0 48.9722C0 22.1348 22.1348 0 48.9385 0C75.791 0 97.9595 22.1348 97.9595 48.9722ZM48.4155 33.4199L46.8853 43.9185L34.4873 43.9185C32.8755 43.9185 31.6274 45.0991 31.6274 46.7632C31.6274 48.3413 32.8755 49.5068 34.5361 49.5068L46.0869 49.5068L44.0566 63.4785C43.2671 69.2026 40.917 71.6841 36.5112 71.6841C33.4688 71.6841 32.6773 71.2178 31.2173 71.2178C29.624 71.2178 28.6201 72.3008 28.6201 73.8521C28.6201 76.0601 31.2168 77.3096 36.0718 77.3096C43.7315 77.3096 48.4732 72.8643 49.645 64.4268L51.7915 49.5068L66.0752 49.5068C67.8032 49.5068 69.0025 48.3716 69.0025 46.7632C69.0025 45.0991 67.7544 43.9185 66.0264 43.9185L52.6538 43.9185L54.0039 34.417C54.7935 28.6441 57.1587 26.1626 61.5156 26.1626C64.6709 26.1626 65.6626 26.5347 66.8096 26.5347C68.3423 26.5347 69.3916 25.4854 69.3916 23.9526C69.3916 21.7446 66.6065 20.5708 61.9551 20.5708C54.2954 20.5708 49.5688 25.0498 48.4155 33.4199Z" fill="#000000" fill-opacity="0.85"/>
 </g>
</svg>
