<?xml version="1.0" encoding="UTF-8"?>
<!--Generator: Apple Native CoreSVG 232.5-->
<!DOCTYPE svg
PUBLIC "-//W3C//DTD SVG 1.1//EN"
       "http://www.w3.org/Graphics/SVG/1.1/DTD/svg11.dtd">
<svg version="1.1" xmlns="http://www.w3.org/2000/svg" xmlns:xlink="http://www.w3.org/1999/xlink" width="97.9595" height="97.9932">
 <g>
  <rect height="97.9932" opacity="0" width="97.9595" x="0" y="0"/>
  <path d="M48.9722 97.9443C75.8247 97.9443 97.9595 75.7759 97.9595 48.9722C97.9595 22.1348 75.791 0 48.9385 0C22.1348 0 0 22.1348 0 48.9722C0 75.7759 22.1685 97.9443 48.9722 97.9443ZM48.9722 91.6113C25.3501 91.6113 6.36671 72.5942 6.36671 48.9722C6.36671 25.3501 25.3164 6.31789 48.9385 6.31789C72.5605 6.31789 91.6265 25.3501 91.6265 48.9722C91.6265 72.5942 72.5942 91.6113 48.9722 91.6113Z" fill="#000000" fill-opacity="0.85"/>
  <path d="M29.0093 73.3618C29.0093 75.5176 31.5386 76.7334 36.2925 76.7334C43.7988 76.7334 48.4058 72.3892 49.5777 64.1387L51.6904 49.4732L65.7197 49.4732C67.3804 49.4732 68.5459 48.3716 68.5459 46.7969C68.5459 45.1851 67.3315 44.0532 65.6709 44.0532L52.5191 44.0532L53.8506 34.6714C54.6401 28.9995 56.9566 26.5518 61.2612 26.5518C64.3491 26.5518 65.3223 26.9238 66.4204 26.9238C67.9194 26.9238 68.9351 25.9082 68.9351 24.4429C68.9351 22.2871 66.2173 21.147 61.667 21.147C54.1758 21.147 49.5688 25.54 48.4155 33.7232L46.9189 44.0532L34.7417 44.0532C33.1636 44.0532 31.9492 45.1851 31.9492 46.7969C31.9492 48.3413 33.1636 49.4732 34.8057 49.4732L46.1543 49.4732L44.1577 63.209C43.3682 68.8472 41.0366 71.2949 36.6983 71.2949C33.7383 71.2949 32.9653 70.8286 31.5542 70.8286C29.9795 70.8286 29.0093 71.8779 29.0093 73.3618Z" fill="#000000" fill-opacity="0.85"/>
 </g>
</svg>
