<?xml version="1.0" encoding="UTF-8"?>
<!--Generator: Apple Native CoreSVG 232.5-->
<!DOCTYPE svg
PUBLIC "-//W3C//DTD SVG 1.1//EN"
       "http://www.w3.org/Graphics/SVG/1.1/DTD/svg11.dtd">
<svg version="1.1" xmlns="http://www.w3.org/2000/svg" xmlns:xlink="http://www.w3.org/1999/xlink" width="59.0039" height="85.1592">
 <g>
  <rect height="85.1592" opacity="0" width="59.0039" x="0" y="0"/>
  <path d="M9.98439 85.1592C20.6748 85.1592 27.5147 79.084 29.2725 66.8091L35.7578 21.563C37.0845 12.2002 41.1655 8.07716 48.3545 8.07716C53.1802 8.07716 54.7393 8.7422 56.2871 8.7422C57.9024 8.7422 58.9737 7.6963 58.9737 5.99171C58.9737 3.01904 53.73 2.11475 48.9893 2.11475C38.2988 2.11475 31.459 8.18994 29.7012 20.4497L23.2647 65.7446C21.9229 75.1074 17.8081 79.1816 10.6192 79.1816C5.82716 79.1816 4.45313 78.4863 2.7505 78.4863C1.07129 78.4863 0 79.5322 0 81.2065C0 84.2734 5.25879 85.1592 9.98439 85.1592ZM7.66065 43.2734L55.2192 43.2734C57.0635 43.2734 58.3301 42.0708 58.3301 40.3091C58.3301 38.5776 57.0298 37.311 55.1704 37.311L7.61183 37.311C5.76758 37.311 4.50098 38.5137 4.50098 40.3091C4.50098 42.0405 5.80128 43.2734 7.66065 43.2734Z" fill="#000000" fill-opacity="0.85"/>
 </g>
</svg>
