<?xml version="1.0" encoding="UTF-8"?>
<!--Generator: Apple Native CoreSVG 232.5-->
<!DOCTYPE svg
PUBLIC "-//W3C//DTD SVG 1.1//EN"
       "http://www.w3.org/Graphics/SVG/1.1/DTD/svg11.dtd">
<svg version="1.1" xmlns="http://www.w3.org/2000/svg" xmlns:xlink="http://www.w3.org/1999/xlink" width="88.4092" height="88.5371">
 <g>
  <rect height="88.5371" opacity="0" width="88.4092" x="0" y="0"/>
  <path d="M88.4092 14.4019L88.4092 74.2632C88.4092 83.6558 83.5733 88.5371 74.0005 88.5371L14.3936 88.5371C4.86963 88.5371 0 83.7349 0 74.2632L0 14.4019C0 4.93018 4.86963 0.127929 14.3936 0.127929L74.0005 0.127929C83.5733 0.127929 88.4092 5.00928 88.4092 14.4019ZM33.1416 21.4878C31.1895 21.4878 30.125 22.9043 30.125 25.0029L30.125 63.4463C30.125 65.481 31.2197 66.916 33.2207 66.916C35.2368 66.916 36.3687 65.5332 36.3687 63.4463L36.3687 46.5986L55.2105 46.5986C56.8003 46.5986 57.8682 45.7095 57.8682 44.1431C57.8682 42.5615 56.8003 41.5864 55.2105 41.5864L36.3687 41.5864L36.3687 26.7207L57.103 26.7207C58.6777 26.7207 59.7456 25.6294 59.7456 24.0967C59.7456 22.4814 58.6777 21.4878 57.103 21.4878Z" fill="#000000" fill-opacity="0.85"/>
 </g>
</svg>
