<?xml version="1.0" encoding="UTF-8"?>
<!--Generator: Apple Native CoreSVG 232.5-->
<!DOCTYPE svg
PUBLIC "-//W3C//DTD SVG 1.1//EN"
       "http://www.w3.org/Graphics/SVG/1.1/DTD/svg11.dtd">
<svg version="1.1" xmlns="http://www.w3.org/2000/svg" xmlns:xlink="http://www.w3.org/1999/xlink" width="97.9595" height="97.9932">
 <g>
  <rect height="97.9932" opacity="0" width="97.9595" x="0" y="0"/>
  <path d="M48.9722 97.9443C75.8247 97.9443 97.9595 75.7759 97.9595 48.9722C97.9595 22.1348 75.791 0 48.9385 0C22.1348 0 0 22.1348 0 48.9722C0 75.7759 22.1685 97.9443 48.9722 97.9443ZM48.9722 91.6113C25.3501 91.6113 6.36671 72.5942 6.36671 48.9722C6.36671 25.3501 25.3164 6.31789 48.9385 6.31789C72.5605 6.31789 91.6265 25.3501 91.6265 48.9722C91.6265 72.5942 72.5942 91.6113 48.9722 91.6113Z" fill="#000000" fill-opacity="0.85"/>
  <path d="M48.9385 73.0264C58.7954 73.0264 65.5103 66.315 65.5103 63.2588C65.5103 62.2837 64.584 61.9131 63.8008 62.3408C60.5088 64.5664 55.9429 66.7939 48.9385 66.7939C41.9492 66.7939 37.3984 64.5176 34.125 62.3408C33.3081 61.9131 32.3818 62.2837 32.3818 63.2588C32.3818 66.315 39.0967 73.0264 48.9385 73.0264ZM34.3794 44.4448C37.2437 44.4448 39.8115 41.7373 39.8115 38.1035C39.8115 34.436 37.2925 31.7285 34.3794 31.7285C31.5 31.7285 29.0112 34.436 29.0112 38.1035C29.0112 41.7373 31.5303 44.4448 34.3794 44.4448ZM63.5464 44.4448C66.3955 44.4448 68.9483 41.7373 68.9483 38.1035C68.9483 34.436 66.4443 31.7285 63.5464 31.7285C60.667 31.7285 58.148 34.436 58.148 38.1035C58.148 41.7373 60.6821 44.4448 63.5464 44.4448Z" fill="#000000" fill-opacity="0.85"/>
 </g>
</svg>
