<?xml version="1.0" encoding="UTF-8"?>
<!--Generator: Apple Native CoreSVG 232.5-->
<!DOCTYPE svg
PUBLIC "-//W3C//DTD SVG 1.1//EN"
       "http://www.w3.org/Graphics/SVG/1.1/DTD/svg11.dtd">
<svg version="1.1" xmlns="http://www.w3.org/2000/svg" xmlns:xlink="http://www.w3.org/1999/xlink" width="105.728" height="105.448">
 <g>
  <rect height="105.448" opacity="0" width="105.728" x="0" y="0"/>
  <path d="M87.1521 98.1247C81.8621 101.845 75.4766 104.158 69.1181 104.158C61.0087 104.158 56.5399 99.528 56.5399 91.1408L56.5399 67.4958ZM54.1579 65.1124C48.6337 87.9891 41.6631 99.901 28.9999 99.901C15.0521 99.901 1.49941 84.3327 1.49941 68.923C1.49941 60.8136 6.12978 56.3112 14.517 56.3112L43.8187 56.3112L43.8187 54.7677ZM100.096 76.6242C100.096 79.8947 99.2401 83.1453 97.7046 86.1983L62.3163 50.7847C87.1266 56.3959 100.096 63.4593 100.096 76.6242ZM43.7753 54.7242C18.7471 49.0655 5.75672 42.0128 5.75672 28.8199C5.75672 25.5077 6.63469 22.2178 8.2026 19.1321ZM104.338 36.506C104.338 44.6154 99.7079 49.0841 91.3207 49.0841L61.933 49.0841L61.933 50.4011L51.7337 40.1945C57.23 17.3653 64.2282 5.52795 76.8378 5.52795C90.8007 5.52795 104.338 21.13 104.338 36.506ZM49.3129 14.337L49.3129 37.772L18.817 7.25424C24.0835 3.58187 30.4224 1.29956 36.7348 1.28576C44.8104 1.28576 49.3129 5.94983 49.3129 14.337Z" fill="#000000" fill-opacity="0.85"/>
  <path d="M95.7196 99.5582C96.8666 100.705 98.7143 100.672 99.8461 99.5397C101.005 98.3776 100.993 96.545 99.8461 95.3981L10.413 5.98352C9.29629 4.86682 7.46377 4.78772 6.25283 5.98352C5.15468 7.08167 5.15468 8.96302 6.25283 10.11Z" fill="#000000" fill-opacity="0.85"/>
 </g>
</svg>
