<?xml version="1.0" encoding="UTF-8"?>
<!--Generator: Apple Native CoreSVG 232.5-->
<!DOCTYPE svg
PUBLIC "-//W3C//DTD SVG 1.1//EN"
       "http://www.w3.org/Graphics/SVG/1.1/DTD/svg11.dtd">
<svg version="1.1" xmlns="http://www.w3.org/2000/svg" xmlns:xlink="http://www.w3.org/1999/xlink" width="97.8428" height="114.878">
 <g>
  <rect height="114.878" opacity="0" width="97.8428" x="0" y="0"/>
  <path d="M48.9121 114.878C77.1016 114.878 97.8428 109.017 97.8428 99.2788C97.8428 93.2774 89.9688 88.7881 76.7222 86.148L73.5068 91.1807C85.1924 92.9654 92.1499 95.8951 92.1499 99.2788C92.1499 104.558 74.6494 109.155 48.9121 109.155C23.1934 109.155 5.69288 104.558 5.69288 99.2788C5.69288 95.8951 12.6655 92.9654 24.336 91.1807L21.0869 86.148C7.87403 88.7881 0 93.2774 0 99.2788C0 109.017 20.7564 114.878 48.9121 114.878ZM17.8267 83.5557L22.437 94.3492C23.0181 95.6158 24.5542 95.8819 25.5698 94.3677L31.3067 85.8628C32.2061 84.5323 31.812 83.0752 30.0957 82.7417L19.959 81.0225C18.0962 80.689 17.2607 82.1763 17.8267 83.5557ZM80.0313 83.5557C80.5972 82.1763 79.7129 80.689 77.8838 81.0225L67.7471 82.7417C66.0308 83.0752 65.6367 84.5323 66.5024 85.8628L72.273 94.3677C73.2886 95.8819 74.8062 95.6158 75.3721 94.3492Z" fill="#000000" fill-opacity="0.85"/>
  <path d="M45.9917 27.3237L45.9917 10.2886C45.9917 3.45557 42.7803 0.112793 36.1426 0.112793C24.7651 0.195312 12.9985 10.2612 12.9985 20.0947C12.9985 29.3594 21.7212 34.2998 36.3535 39.7183L38.7637 34.3135C25.9634 29.417 18.7066 26.3325 18.7066 20.0947C18.7066 13.4209 27.9146 5.82081 36.1426 5.82081C39.4624 5.82081 40.2349 6.52931 40.2349 10.2886L40.2349 29.0064ZM59.8794 35.2393L76.8657 35.2393C83.6651 35.2393 87.0415 32.0278 87.0415 25.5029C87.0415 14.0767 76.8443 2.27979 67.0108 2.27979C57.8252 2.27979 52.8057 11.0327 47.4849 25.6651L52.8897 28.1089C57.7036 15.2901 60.773 7.97267 67.0108 7.97267C73.7334 7.97267 81.2998 17.1924 81.2998 25.5029C81.2998 28.7773 80.7041 29.4673 76.8657 29.4673L58.1177 29.4673ZM51.9639 49.1758L51.9639 66.2261C51.9639 73.0591 55.1265 76.3042 61.7002 76.3042C73.1416 76.3042 84.9234 66.2046 84.9234 56.3711C84.9234 47.1216 76.1553 42.166 61.5381 36.7964L59.1094 42.1675C71.8643 47.0488 79.2153 50.1333 79.2153 56.3711C79.2153 63.0449 69.9282 70.6602 61.7002 70.5474C58.3316 70.5474 57.7207 69.9365 57.7207 66.2261L57.7207 47.4932ZM37.9634 41.1777L20.9771 41.1777C14.144 41.1777 10.8804 44.438 10.8804 50.9629C10.8804 62.4531 20.98 74.1861 30.832 74.1861C40.0816 74.1861 45.0523 65.4668 50.4219 50.8159L44.9868 48.3569C40.1055 61.2398 37.0698 68.4141 30.832 68.4141C24.0757 68.4141 16.6221 59.3037 16.6221 50.9629C16.6221 47.5943 17.2666 46.9195 20.9771 46.9195L39.6948 46.9195ZM48.9121 51.9092C56.5025 51.9092 62.6802 45.8477 62.6802 38.2725C62.6802 30.6333 56.5025 24.523 48.9121 24.523C41.3067 24.523 35.2266 30.6333 35.2266 38.2725C35.2266 45.8477 41.3067 51.9092 48.9121 51.9092ZM48.9121 46.2534C44.4326 46.2534 40.8672 42.7368 40.8672 38.2725C40.8672 33.7442 44.4326 30.1787 48.9121 30.1787C53.3916 30.1787 57.0244 33.7442 57.0244 38.2725C57.0244 42.7368 53.3916 46.2534 48.9121 46.2534Z" fill="#000000" fill-opacity="0.85"/>
 </g>
</svg>
