<?xml version="1.0" encoding="UTF-8"?>
<!--Generator: Apple Native CoreSVG 232.5-->
<!DOCTYPE svg
PUBLIC "-//W3C//DTD SVG 1.1//EN"
       "http://www.w3.org/Graphics/SVG/1.1/DTD/svg11.dtd">
<svg version="1.1" xmlns="http://www.w3.org/2000/svg" xmlns:xlink="http://www.w3.org/1999/xlink" width="124.328" height="113.767">
 <g>
  <rect height="113.767" opacity="0" width="124.328" x="0" y="0"/>
  <path d="M62.1472 24.4864C72.926 24.4864 83.8933 17.168 83.8933 7.93311C83.8933 4.88184 82.2717 3.1792 78.8328 2.0459C74.5652 0.680175 68.4109 0.0302732 62.1472 0C55.9021 0.0302732 49.7629 0.680175 45.4954 2.0459C42.0715 3.1792 40.4499 4.85157 40.4499 7.93311C40.4499 17.168 51.3533 24.4864 62.1472 24.4864ZM62.1472 19.4219C53.5378 19.4219 46.345 14.4297 45.533 8.15382C45.4993 7.64552 45.6609 7.28028 46.5915 6.93361C50.7834 5.73292 56.3972 5.04591 62.1472 5.04591C67.9158 5.04591 73.4959 5.73292 77.7366 6.93361C78.6824 7.29542 78.844 7.64552 78.8103 8.15382C77.9983 14.4297 70.7903 19.4219 62.1472 19.4219ZM59.1492 21.6245L59.1492 55.3775L65.179 55.3775L65.179 21.6245ZM62.1472 58.1475C66.9812 58.1475 71.4871 59.397 74.5212 61.2139L79.2742 58.0425C75.2615 54.7788 69.073 52.7461 62.1472 52.7461C55.2888 52.7461 49.1863 54.7451 45.1736 57.9414L50.095 61.0454C53.1292 59.2959 57.4666 58.1475 62.1472 58.1475ZM62.1472 93.7984C75.4295 93.7984 84.1804 88.0025 84.1804 79.3877C84.1804 70.773 75.4295 64.9922 62.1472 64.9922C48.8835 64.9922 40.114 70.773 40.114 79.3877C40.114 88.0025 48.8835 93.7984 62.1472 93.7984ZM62.1472 88.4121C52.0769 88.4121 45.5154 84.73 45.5154 79.3877C45.5154 74.0454 52.0769 70.3936 62.1472 70.3936C72.2024 70.3936 78.7791 74.0454 78.7791 79.3877C78.7791 84.73 72.2024 88.4121 62.1472 88.4121ZM62.1472 64.9922L16.7473 41.729C2.12621 34.2476-6.56618 53.146 6.16576 59.4151L43.1472 77.6992L44.2908 72.4766L8.38891 54.7886C1.31762 51.2564 5.7102 41.9258 14.3928 46.3403L54.9914 67.0977ZM41.6956 81.9038L41.6956 76.1826L15.0847 88.5283C0.92161 95.0972 11.0383 113.538 23.7737 107.018L52.9793 92.0537L47.9402 88.7544L21.3855 102.391C14.5144 105.945 9.69604 96.709 17.3567 93.1885ZM62.1472 64.9922L69.3367 67.0977L109.92 46.3403C118.618 41.9258 123.011 51.2564 115.924 54.7886L80.0222 72.4766L81.1472 77.6992L118.147 59.4151C130.879 53.146 122.202 34.2476 107.566 41.729ZM82.5838 81.9038L106.971 93.1885C114.632 96.709 109.765 105.945 102.894 102.391L76.3391 88.7544L71.3001 92.0537L100.539 107.018C113.29 113.538 123.373 95.0972 109.21 88.5283L82.5838 76.1826Z" fill="#000000" fill-opacity="0.85"/>
 </g>
</svg>
