<?xml version="1.0" encoding="UTF-8"?>
<!--Generator: Apple Native CoreSVG 232.5-->
<!DOCTYPE svg
PUBLIC "-//W3C//DTD SVG 1.1//EN"
       "http://www.w3.org/Graphics/SVG/1.1/DTD/svg11.dtd">
<svg version="1.1" xmlns="http://www.w3.org/2000/svg" xmlns:xlink="http://www.w3.org/1999/xlink" width="97.8428" height="114.878">
 <g>
  <rect height="114.878" opacity="0" width="97.8428" x="0" y="0"/>
  <path d="M48.9121 114.878C77.1016 114.878 97.8428 109.017 97.8428 99.2788C97.8428 93.2774 89.9688 88.7881 76.7222 86.148L73.5068 91.1807C85.1924 92.9654 92.1499 95.8951 92.1499 99.2788C92.1499 104.558 74.6494 109.155 48.9121 109.155C23.1934 109.155 5.69288 104.558 5.69288 99.2788C5.69288 95.8951 12.6655 92.9654 24.336 91.1807L21.0869 86.148C7.87403 88.7881 0 93.2774 0 99.2788C0 109.017 20.7564 114.878 48.9121 114.878ZM17.8267 83.5557L22.437 94.3492C23.0181 95.6158 24.5205 95.8819 25.5698 94.3677L31.3067 85.8628C32.2398 84.5323 31.812 83.0752 30.0957 82.7417L19.959 81.0225C18.0962 80.689 17.2607 82.1763 17.8267 83.5557ZM80.0313 83.5557C80.5972 82.1763 79.7129 80.689 77.8838 81.0225L67.7471 82.7417C66.0308 83.0752 65.603 84.5323 66.5024 85.8628L72.273 94.3677C73.3223 95.8819 74.8062 95.6158 75.3721 94.3492Z" fill="#000000" fill-opacity="0.85"/>
  <path d="M10.8804 50.9629C10.8804 62.4531 20.98 74.1861 30.832 74.1861C39.4077 74.1861 44.311 66.6494 49.2393 53.2822C50.3887 53.2974 51.1577 53.1729 51.9639 52.939L51.9639 66.2261C51.9639 73.0591 55.1265 76.3042 61.7002 76.3042C73.1416 76.3042 84.9234 66.2046 84.9234 56.3711C84.9234 48.0835 77.8467 42.8584 64.0347 37.9941C64.0347 36.8482 63.9253 36.0454 63.6577 35.2393L76.8657 35.2393C83.6651 35.2393 87.0415 32.0278 87.0415 25.5029C87.0415 14.0767 76.8443 2.27979 67.0108 2.27979C58.585 2.27979 53.6328 10.1382 48.6675 23.1499C47.5029 23.1499 46.749 23.2593 45.9917 23.4932L45.9917 10.2886C45.9917 3.45557 42.7803 0.112793 36.1426 0.112793C24.7651 0.195312 12.9985 10.2612 12.9985 20.0947C12.9985 28.7007 20.5386 33.5737 33.771 38.5171C33.771 39.6328 33.8804 40.4204 34.0991 41.1777L20.9771 41.1777C14.144 41.1777 10.8804 44.438 10.8804 50.9629ZM48.9121 46.2681C44.4859 46.2681 40.8526 42.7324 40.8526 38.2725C40.8526 33.7334 44.4859 30.1641 48.9121 30.1641C53.3872 30.1641 57.0391 33.7334 57.0391 38.2725C57.0391 42.7324 53.3872 46.2681 48.9121 46.2681Z" fill="#000000" fill-opacity="0.85"/>
 </g>
</svg>
