<?xml version="1.0" encoding="UTF-8"?>
<!--Generator: Apple Native CoreSVG 232.5-->
<!DOCTYPE svg
PUBLIC "-//W3C//DTD SVG 1.1//EN"
       "http://www.w3.org/Graphics/SVG/1.1/DTD/svg11.dtd">
<svg version="1.1" xmlns="http://www.w3.org/2000/svg" xmlns:xlink="http://www.w3.org/1999/xlink" width="101.138" height="117.628">
 <g>
  <rect height="117.628" opacity="0" width="101.138" x="0" y="0"/>
  <path d="M50.5767 117.628C63.3316 117.628 65.3706 107.716 73.7549 107.716C82.3008 107.716 83.6157 117.628 98.1841 117.628L98.4282 117.628C99.9087 117.628 101.138 116.398 101.138 114.903C101.138 113.422 99.9087 112.227 98.4282 112.227L98.1841 112.227C92.7022 112.227 89.542 109.893 85.8799 107.305C82.7061 105.01 78.9478 102.314 73.7549 102.314C68.397 102.314 64.5898 105.157 61.416 107.534C58.0469 110.088 55.2134 112.227 50.5767 112.227C45.9248 112.227 43.0913 110.088 39.7222 107.534C36.5483 105.157 32.7412 102.314 27.3833 102.314C22.1904 102.314 18.4321 105.01 15.2583 107.305C11.5962 109.893 8.46973 112.227 2.95411 112.227L2.70997 112.227C1.22949 112.227 0 113.422 0 114.903C0 116.398 1.22949 117.628 2.70997 117.628L2.95411 117.628C17.5225 117.628 18.8374 107.716 27.3833 107.716C35.7676 107.716 37.8066 117.628 50.5767 117.628ZM2.59228 75.4155L19.6797 106.678L24.3013 103.601L7.45801 73.1148C5.07081 68.7227 6.05225 66.6504 9.44922 65.0967L43.8306 49.2876C46.2651 48.168 48.0733 47.3413 50.5767 47.3413C53.0649 47.3413 54.873 48.168 57.3413 49.2876L91.689 65.0967C95.0859 66.6504 96.0674 68.7227 93.6802 73.1148L76.8369 103.601L81.6943 106.356L98.5459 75.4155C102.469 68.2276 100.715 63.314 93.833 60.1939L59.4854 44.3848C57.2378 43.3814 54.4326 41.94 50.5767 41.94C46.7393 41.94 43.9341 43.3814 41.6528 44.3848L7.30517 60.1939C0.457025 63.314-1.29737 68.2276 2.59228 75.4155ZM12.2974 59.0308L18.1299 56.5327L23.2183 20.7744C23.6172 18.0527 25.1943 16.5059 27.8149 16.5059L73.436 16.5059C76.124 16.5059 77.7197 17.9331 78.1001 20.4189L83.106 56.7012L88.9385 59.0308L83.52 19.9946C82.7236 14.2666 79.085 11.1196 73.436 11.1196L27.8149 11.1196C22.252 11.1196 18.647 14.521 17.7495 20.6533ZM30.2778 35.1118L45.687 35.1118C46.9551 35.1118 47.7954 34.3423 47.7954 33.2764L47.7954 25.1309C47.7954 24.0649 46.9551 23.2954 45.687 23.2954L30.2778 23.2954C29.2119 23.2954 28.5064 24.0649 28.5064 25.1309L28.5064 33.2764C28.5064 34.3423 29.2119 35.1118 30.2778 35.1118ZM55.1597 35.1118L70.6177 35.1118C71.8706 35.1118 72.7109 34.3423 72.7109 33.2764L72.7109 25.1309C72.7109 24.0649 71.8706 23.2954 70.6177 23.2954L55.1597 23.2954C54.1274 23.2954 53.4219 24.0649 53.4219 25.1309L53.4219 33.2764C53.4219 34.3423 54.1274 35.1118 55.1597 35.1118ZM30.3052 15.0225L35.6914 15.0225L35.6914 7.78321C35.6914 6.28517 36.5498 5.42677 37.9839 5.42677L63.2334 5.42677C64.6675 5.42677 65.5259 6.28517 65.5259 7.78321L65.5259 15.0225L70.9121 15.0225L70.9121 7.46143C70.9121 2.94532 68.0562 0.0405282 63.5552 0.0405282L37.6621 0.0405282C33.1611 0.0405282 30.3052 2.94532 30.3052 7.46143Z" fill="#000000" fill-opacity="0.85"/>
 </g>
</svg>
