<?xml version="1.0" encoding="UTF-8"?>
<!--Generator: Apple Native CoreSVG 232.5-->
<!DOCTYPE svg
PUBLIC "-//W3C//DTD SVG 1.1//EN"
       "http://www.w3.org/Graphics/SVG/1.1/DTD/svg11.dtd">
<svg version="1.1" xmlns="http://www.w3.org/2000/svg" xmlns:xlink="http://www.w3.org/1999/xlink" width="97.9595" height="97.9932">
 <g>
  <rect height="97.9932" opacity="0" width="97.9595" x="0" y="0"/>
  <path d="M97.9595 48.9722C97.9595 75.7759 75.8247 97.9443 48.9722 97.9443C22.1685 97.9443 0 75.7759 0 48.9722C0 22.1348 22.1348 0 48.9385 0C75.791 0 97.9595 22.1348 97.9595 48.9722ZM37.3189 66.1382L27.4082 75.9697C25.9517 77.3926 26.1387 79.3037 27.3442 80.3779C28.4976 81.3057 30.1309 81.3276 31.5537 79.9385L41.0435 70.5464C41.8584 69.7129 42.0386 69.5513 42.5606 68.312L46.5982 57.7769L45.7124 57.3189C43.4326 56.0796 41.8667 54.8252 40.8379 53.4883ZM47.6758 31.2656L37.3071 32.0132C35.7227 32.1294 34.5962 33.2222 34.3672 34.8403L32.9814 45.3369C32.7676 47.1655 33.6045 48.3594 35.2344 48.5059C36.7886 48.686 37.8814 47.7363 38.0952 45.9751L39.3648 37.3862L43.5674 37.1084C44.5557 37.0259 45.3892 37.6909 45.1113 38.8662L42.7793 47.2935C41.3599 52.1563 44.4951 53.478 46.9888 54.9126L58.3306 61.3008L51.0483 67.5728C49.543 68.8828 49.4522 70.5801 50.4136 71.6392C51.4541 72.7925 53.1177 72.9004 54.6719 71.5903L64.8452 62.9644C66.1856 61.7891 65.9414 59.356 64.3233 58.2144L53.2896 50.9624L55.4566 43.3838C55.7798 42.1968 57.0982 42.0503 57.7481 43.0234L60.9927 47.7363C61.7437 48.8477 63.0991 49.2232 64.3233 48.686L73.6968 44.5591C75.251 43.8569 75.8858 42.4526 75.1685 40.9356C74.4966 39.4824 73.0772 39.0884 71.4776 39.7905L63.9966 43.1143L58.9756 36.0122C56.2681 32.2944 52.978 30.9053 47.6758 31.2656ZM50.6426 23.0337C50.6426 26.5747 53.4966 29.395 57.0039 29.395C60.5112 29.395 63.3501 26.5747 63.3501 23.0337C63.3501 19.5264 60.5112 16.6538 57.0039 16.6538C53.4966 16.6538 50.6426 19.5264 50.6426 23.0337Z" fill="#000000" fill-opacity="0.85"/>
 </g>
</svg>
