<?xml version="1.0" encoding="UTF-8"?>
<!--Generator: Apple Native CoreSVG 232.5-->
<!DOCTYPE svg
PUBLIC "-//W3C//DTD SVG 1.1//EN"
       "http://www.w3.org/Graphics/SVG/1.1/DTD/svg11.dtd">
<svg version="1.1" xmlns="http://www.w3.org/2000/svg" xmlns:xlink="http://www.w3.org/1999/xlink" width="68.5366" height="119.958">
 <g>
  <rect height="119.958" opacity="0" width="68.5366" x="0" y="0"/>
  <path d="M29.0859 47.5419C34.7451 47.5419 39.3452 42.957 39.3452 37.1967C39.3452 31.5039 34.7451 26.9189 29.0859 26.9189C23.3408 26.9189 18.7559 31.5039 18.7559 37.1967C18.7559 42.957 23.3408 47.5419 29.0859 47.5419ZM4.85938 119.926L29.3433 119.926C32.2949 119.926 33.6807 118.521 34.1538 115.896L38.3145 93.0122L57.7217 93.0122L53.9063 114.102C53.3355 117.462 55.5698 119.697 58.0484 119.926C60.4292 120.17 63.0239 119.043 63.6099 115.896L68.3565 89.4409C68.9761 85.7534 66.8242 83.4887 64.1807 83.2109L46.9253 81.3032L48.3936 64.9907C48.4424 64.1606 49.1109 63.6386 49.877 63.6386L63.6587 63.6386C66.3023 63.6386 68.5366 61.3706 68.5366 58.6967L68.5366 31.7832C68.5366 29.7778 67.2974 27.9677 65.4536 27.2504C63.6587 26.5146 61.5557 26.8413 60.1211 28.2758L33.29 55.1894C30.9243 57.5703 29.4072 60.5556 29.0654 64.2246L24.8408 110.155L4.85938 110.155C2.12158 110.155 0 112.276 0 115.014C0 117.707 2.12158 119.926 4.85938 119.926ZM58.7656 43.5932L58.7656 53.7851L48.5064 53.7851ZM49.1729 29.1918L59.9409 38.8149L62.2749 36.2031L51.6382 26.5463ZM21.6182 9.1684L46.8696 31.9565C48.3716 33.312 50.2407 33.1469 51.6787 31.6147L54.3574 28.8872C55.8594 27.3701 55.6421 25.3999 54.1587 24.0292L28.7456 1.1435C27.2134-0.242243 25.2583-0.0957588 23.8877 1.42133L21.3403 4.37446C20.0034 5.89155 20.0825 7.77924 21.6182 9.1684Z" fill="#000000" fill-opacity="0.85"/>
 </g>
</svg>
