<?xml version="1.0" encoding="UTF-8"?>
<!--Generator: Apple Native CoreSVG 232.5-->
<!DOCTYPE svg
PUBLIC "-//W3C//DTD SVG 1.1//EN"
       "http://www.w3.org/Graphics/SVG/1.1/DTD/svg11.dtd">
<svg version="1.1" xmlns="http://www.w3.org/2000/svg" xmlns:xlink="http://www.w3.org/1999/xlink" width="88.5611" height="101.9">
 <g>
  <rect height="101.9" opacity="0" width="88.5611" x="0" y="0"/>
  <path d="M16.2993 20.7627C22.0259 20.7627 26.6563 16.1323 26.6563 10.3906C26.6563 4.66406 22.0259 0 16.2993 0C10.5576 0 5.89356 4.66406 5.89356 10.3906C5.89356 16.1323 10.5576 20.7627 16.2993 20.7627ZM32.6421 101.165C34.959 101.833 37.749 100.643 38.5303 97.8037L45.7066 71.7422C46.604 68.4302 45.2334 66.0493 41.8911 65.1182L20.9971 59.1812L22.627 40.8482C22.7095 40.2773 23.3779 39.9356 23.8023 40.2959L33.4756 47.2583C35.2031 48.4976 37.3887 48.4976 39.1348 47.2583L55.9995 35.189C58.1851 33.6567 58.707 30.6377 57.1563 28.437C55.6089 26.2515 52.5747 25.7783 50.3892 27.2954L36.3447 37.4082L24.7485 29.0903C22.3189 27.2954 19.3672 26.0562 15.7285 26.0562C9.5962 26.0562 4.98096 29.9204 4.60547 35.3843L2.99073 57.9907C2.53272 64.7276 5.7959 69.7031 13.2988 70.811L35.023 73.9429L29.2173 95.2276C28.4512 98.0816 30.0171 100.447 32.6421 101.165ZM76.1426 41.8843C82.9639 41.8843 88.5611 36.2871 88.5611 29.4473C88.5611 22.5923 82.9639 17.0625 76.1426 17.0625C69.2691 17.0625 63.7056 22.5923 63.7056 29.4473C63.7056 36.2871 69.2691 41.8843 76.1426 41.8843ZM76.1426 37.4634C71.5293 37.4634 68.1265 34.0605 68.1265 29.4473C68.1265 24.8862 71.5293 21.4985 76.1426 21.4985C80.7373 21.4985 84.1402 24.8862 84.1402 29.4473C84.1402 34.0605 80.7373 37.4634 76.1426 37.4634ZM44.7451 101.18L71.4937 101.18C73.7925 101.18 74.3467 98.2852 72.5547 97.0742L62.7505 90.5869C63.8482 89.0093 64.4527 87.3306 64.9375 85.3843L76.0874 41.0371L71.6362 40.0098L60.5654 84.3721C58.7588 91.666 52.3472 96.6465 44.7451 96.6465C43.4551 96.6465 42.5103 97.6738 42.5103 98.9302C42.5103 100.153 43.4551 101.18 44.7451 101.18ZM9.35547 83.2764L18.8638 81.2525C19.9331 81.0571 20.5444 80.1309 20.5444 79.0313C20.5444 77.898 19.7832 77.0728 18.7661 76.9414L2.76514 74.2002C0.31836 73.8062-0.375488 75.7715 0.378907 77.4419L1.27637 79.2183C2.86426 82.5523 5.45069 84.1099 9.35547 83.2764ZM2.46875 101.18L23.0361 101.18C24.375 101.18 25.3198 100.168 25.3198 98.9302C25.3198 97.6587 24.375 96.6465 23.0361 96.6465C19.7564 96.6465 17.3066 95.3467 16.4312 91.3716L13.7471 79.1553L9.35986 80.1001L11.5488 90.2534L1.2124 97.0742C-0.613284 98.2852-0.104493 101.18 2.46875 101.18Z" fill="#000000" fill-opacity="0.85"/>
 </g>
</svg>
