<?xml version="1.0" encoding="UTF-8"?>
<!--Generator: Apple Native CoreSVG 232.5-->
<!DOCTYPE svg
PUBLIC "-//W3C//DTD SVG 1.1//EN"
       "http://www.w3.org/Graphics/SVG/1.1/DTD/svg11.dtd">
<svg version="1.1" xmlns="http://www.w3.org/2000/svg" xmlns:xlink="http://www.w3.org/1999/xlink" width="71.5523" height="111.724">
 <g>
  <rect height="111.724" opacity="0" width="71.5523" x="0" y="0"/>
  <path d="M29.7827 20.5894C35.4756 20.5894 40.0942 15.9707 40.0942 10.3115C40.0942 4.61865 35.4756 0 29.7827 0C24.0898 0 19.4712 4.61865 19.4712 10.3115C19.4712 15.9707 24.0898 20.5894 29.7827 20.5894ZM2.3169 45.2598C-3.27832 53.0405 1.67871 63.5928 12.7866 61.9292L30.207 59.3042L23.334 79.7583C21.0659 86.4126 30.3789 89.169 32.4517 82.9053L41.5742 55.2749C42.667 51.9966 40.6279 48.7671 36.7637 48.7671L19.5723 48.7671L28.5923 36.7315C29.5049 35.5073 30.0908 35.376 31.2661 35.376L66.8057 35.376C69.4004 35.376 71.5523 33.273 71.5523 30.6294C71.5523 28.0044 69.4492 25.8828 66.8057 25.8828L21.6113 25.8828C18.2993 25.8828 15.0547 27.5952 12.9668 30.4341ZM6.50781 108.388C6.50781 110.361 7.88867 111.645 9.92627 111.645L46.2144 111.645C48.2671 111.645 49.5991 110.361 49.5991 108.388L49.5991 93.418C49.5991 91.4629 48.2671 90.1797 46.2144 90.1797L9.92627 90.1797C7.88867 90.1797 6.50781 91.4629 6.50781 93.418Z" fill="#000000" fill-opacity="0.85"/>
 </g>
</svg>
