<?xml version="1.0" encoding="UTF-8"?>
<!--Generator: Apple Native CoreSVG 232.5-->
<!DOCTYPE svg
PUBLIC "-//W3C//DTD SVG 1.1//EN"
       "http://www.w3.org/Graphics/SVG/1.1/DTD/svg11.dtd">
<svg version="1.1" xmlns="http://www.w3.org/2000/svg" xmlns:xlink="http://www.w3.org/1999/xlink" width="114.043" height="113.351">
 <g>
  <rect height="113.351" opacity="0" width="114.043" x="0" y="0"/>
  <path d="M12.396 5.82903L20.3433 5.82903C20.168 4.34026 20.3481 2.81437 20.9258 1.40812L12.396 1.40812C11.1548 1.40812 10.1611 2.40178 10.1611 3.64299C10.1611 4.86907 11.1548 5.82903 12.396 5.82903ZM41.2486 5.82903L86.6768 5.82903L89.1778 2.16594C89.3428 1.93693 89.4927 1.67082 89.6729 1.40812L38.2861 1.40812C38.4512 1.67082 38.6314 1.95207 38.7964 2.21476ZM107.646 5.82903L111.857 5.82903C113.083 5.82903 114.043 4.86907 114.043 3.64299C114.043 2.40178 113.083 1.40812 111.857 1.40812L107.064 1.40812C107.641 2.81437 107.852 4.30656 107.646 5.82903ZM64.312 31.9506C70.0386 31.9506 74.7027 27.3202 74.7027 21.5785C74.7027 15.8671 70.0386 11.203 64.312 11.203C58.5703 11.203 53.94 15.8671 53.94 21.5785C53.94 27.3202 58.5703 31.9506 64.312 31.9506ZM39.1445 74.4286C44.8862 81.3271 54.1504 80.3657 58.8145 73.3696L102.608 7.81828C104.125 5.50138 103.49 2.45207 101.222 0.934977C98.9878-0.582113 95.8897 0.00382475 94.3389 2.32072L74.5225 32.1034C72.2881 35.5282 68.4053 37.3232 64.312 37.3232C60.0049 37.3232 55.5698 35.2841 52.7798 31.0932L33.6655 2.32072C32.1484 0.00382475 29.1143-0.582113 26.7974 0.934977C24.499 2.45207 23.8945 5.50138 25.4116 7.81828L48.833 42.9335C49.9258 44.5483 49.9595 46.7187 48.833 48.3974L42.3101 58.2172L28.0703 45.8549C26.0801 44.0751 22.9819 43.9775 20.8115 46.163L1.45313 65.5888C-0.473145 67.579-0.473145 70.5795 1.45313 72.5209C3.60498 74.56 6.55664 74.3159 8.35156 72.5209L24.3189 56.6513ZM50.8233 111.143C52.3555 108.845 51.7544 105.973 49.4375 104.407L32.0659 92.7617L41.793 82.0092C39.6226 80.9653 37.6021 79.3808 35.7734 77.2289L32.3335 73.1879L20.5034 90.9365C18.9863 93.1708 19.5723 96.2841 21.8555 97.8349L44.0864 112.514C46.3696 114.065 49.4038 113.378 50.8233 111.143Z" fill="#000000" fill-opacity="0.85"/>
 </g>
</svg>
