<?xml version="1.0" encoding="UTF-8"?>
<!--Generator: Apple Native CoreSVG 232.5-->
<!DOCTYPE svg
PUBLIC "-//W3C//DTD SVG 1.1//EN"
       "http://www.w3.org/Graphics/SVG/1.1/DTD/svg11.dtd">
<svg version="1.1" xmlns="http://www.w3.org/2000/svg" xmlns:xlink="http://www.w3.org/1999/xlink" width="108.657" height="100.574">
 <g>
  <rect height="100.574" opacity="0" width="108.657" x="0" y="0"/>
  <path d="M80.9863 20.6231C86.6454 20.6231 91.2304 16.0381 91.2304 10.2778C91.2304 4.58496 86.6454 0 80.9863 0C75.226 0 70.641 4.58496 70.641 10.2778C70.641 16.0381 75.226 20.6231 80.9863 20.6231ZM56.6845 97.6709L66.309 97.6709L66.309 66.8443C66.309 65.8828 66.0312 64.8052 65.3779 63.9414L54.8256 49.7505L68.2167 36.2954C69.1293 35.3491 70.4511 35.3491 71.3637 36.2954L84.0864 49.1309C84.9501 50.062 86.2719 50.4526 87.5112 50.4526C88.7504 50.4526 89.9897 49.9795 90.8871 49.1309L105.127 34.876C106.137 33.8657 106.561 32.6416 106.561 31.4512C106.561 27.2266 101.342 24.9434 98.2436 28.0264L87.5112 38.7739L69.3583 20.7676C67.0263 18.4844 64.7094 17.2114 60.9916 17.2114L40.8149 17.2114C39.0385 17.2114 37.8295 17.6846 36.5566 18.9238L22.726 32.7241C19.579 35.8711 21.8959 41.042 26.0868 41.042C27.2773 41.042 28.5014 40.52 29.4628 39.5737L42.2343 26.8511L50.6835 26.8511C51.4008 26.8511 51.6786 27.5044 51.123 28.0264L40.8149 38.3833C36.5263 42.6719 36.4775 48.7066 40.8149 53.0137L56.6845 68.8345ZM35.2279 52.9297L28.4189 62.0977L4.80215 62.0977C2.20743 62.0977 0.00674222 64.1704 0.00674222 66.8931C0.00674222 69.5518 2.20743 71.6397 4.80215 71.6397L30.7846 71.6397C32.1703 71.6397 33.3793 71.1177 34.4872 70.0249L43.0878 61.458L37.7216 56.1558C36.7113 55.0967 35.9115 54.0864 35.2279 52.9297ZM102.141 85.3374C102.141 86.5635 103.134 87.5723 104.293 87.5723C105.534 87.5723 106.561 86.5635 106.561 85.3374L106.561 31.4512L102.141 31.4512ZM3.32022 36.606C2.09414 36.606 1.08535 37.6147 1.08535 38.7734C1.08535 40.0147 2.09414 41.042 3.32022 41.042L26.0868 41.042L26.0868 36.606ZM96.351 100.492C101.12 100.492 103.932 99.3164 107.292 97.7168C108.455 97.2031 108.946 95.9434 108.485 94.9043C108.109 93.7642 106.831 93.0786 105.421 93.7759C102.699 95.1616 100.456 96.0557 96.351 96.0557L13.2514 96.0557C12.059 96.0557 11.0316 97.0308 11.0316 98.2232C11.0316 99.4307 12.0253 100.492 13.2514 100.492Z" fill="#000000" fill-opacity="0.85"/>
 </g>
</svg>
