<?xml version="1.0" encoding="UTF-8"?>
<!--Generator: Apple Native CoreSVG 232.5-->
<!DOCTYPE svg
PUBLIC "-//W3C//DTD SVG 1.1//EN"
       "http://www.w3.org/Graphics/SVG/1.1/DTD/svg11.dtd">
<svg version="1.1" xmlns="http://www.w3.org/2000/svg" xmlns:xlink="http://www.w3.org/1999/xlink" width="153.58" height="96.5596">
 <g>
  <rect height="96.5596" opacity="0" width="153.58" x="0" y="0"/>
  <path d="M126.69 25.8325C133.802 25.8325 139.555 19.8955 139.555 12.9971C139.555 5.8208 133.802 0 126.69 0C119.513 0 113.787 5.8208 113.787 12.9971C113.787 20.2725 119.513 25.8325 126.69 25.8325ZM49.9044 93.9043C52.3829 96.5108 56.6378 96.27 59.6383 93.1231L80.1686 71.9732C80.8522 71.2559 81.3405 71.0606 82.3693 71.4849L98.7907 77.7012C109.035 81.6177 118.523 77.833 123.237 69.2984L133.179 51.1987C137.205 43.9097 135.886 36.3765 128.958 32.6738C122.206 28.9898 115.243 31.7612 111.184 39.2456L97.8112 63.6065L86.4777 59.4492C80.7882 57.3799 76.1242 58.0484 71.6554 62.7124L50.3439 84.7412C47.3922 87.8057 47.67 91.606 49.9044 93.9043Z" fill="#000000" fill-opacity="0.85"/>
  <path d="M0.688584 14.0879L13.7276 30.8194C14.2984 31.5703 15.1656 31.7017 15.9654 31.2588C18.9879 29.6743 23.4986 28.5513 27.0631 28.5513C30.6764 28.5513 35.172 29.6743 38.1271 31.2588C39.0094 31.7017 39.8917 31.5703 40.4137 30.8194L53.4713 14.0879C54.5475 12.6665 54.3488 11.2149 53.0436 10.1572C47.5631 6.05225 37.3546 2.95411 27.0631 2.95411C16.8053 2.95411 6.61192 6.05225 1.15001 10.1572C-0.222551 11.2149-0.353898 12.6817 0.688584 14.0879ZM14.5035 40.9282C13.0655 39.0322 12.4762 37.2525 12.4762 35.2354C12.4762 30.9483 16.1114 29.5039 16.1114 26.9395C16.1114 24.3565 12.4762 22.9761 12.4762 18.5425C12.4762 16.5742 13.0655 14.7944 14.5338 12.9321C16.046 11.1235 18.7438 13.0332 17.2955 14.9395C16.2213 16.4229 15.8829 17.2832 15.8829 18.5425C15.8829 21.8174 19.4996 22.8208 19.4996 26.9395C19.4996 31.0698 15.8829 32.1221 15.8829 35.2354C15.8829 36.6411 16.2213 37.4038 17.2652 38.8755C18.6495 40.7481 16.0006 42.6763 14.5035 40.9282ZM25.6149 40.9282C24.2594 39.0322 23.6212 37.2525 23.6212 35.2354C23.6212 30.9483 27.2565 29.5039 27.2565 26.9395C27.2565 24.3565 23.6212 22.9761 23.6212 18.5425C23.6212 16.5742 24.2106 14.7944 25.6451 12.9321C27.1573 11.1235 29.8888 13.0332 28.4742 14.9395C27.3663 16.4229 27.0279 17.2832 27.0279 18.5425C27.0279 21.8174 30.6783 22.8208 30.6783 26.9395C30.6783 31.0698 27.0279 32.1221 27.0279 35.2354C27.0279 36.6411 27.3663 37.4038 28.4103 38.8755C29.7945 40.7481 27.1119 42.6763 25.6149 40.9282ZM36.8273 40.9282C35.4044 39.0322 34.7662 37.2525 34.7662 35.2354C34.7662 30.9483 38.4352 29.5039 38.4352 26.9395C38.4352 24.3565 34.7662 22.9761 34.7662 18.5425C34.7662 16.5742 35.3556 14.7944 36.8912 12.9321C38.3697 11.1235 41.0338 13.0332 39.6193 14.9395C38.545 16.4229 38.1881 17.2832 38.1881 18.5425C38.1881 21.8174 41.8234 22.8208 41.8234 26.9395C41.8234 31.0698 38.1881 32.1221 38.1881 35.2354C38.1881 36.6411 38.545 37.4038 39.5553 38.8755C40.9733 40.7481 38.3058 42.6763 36.8273 40.9282ZM56.6075 20.4185C56.6075 22 57.8707 23.2632 59.4523 23.2632L80.066 23.2632L80.066 31.9033C80.066 34.7798 83.1007 36.0547 85.2648 34.1196L98.4264 22.8652C100.033 21.4355 99.9874 19.457 98.4264 18.1064L85.2648 6.85205C83.153 4.98437 80.066 6.05712 80.066 9.03467L80.066 17.6748L59.4523 17.6748C57.8707 17.6748 56.6075 18.8892 56.6075 20.4185Z" fill="#000000" fill-opacity="0.85"/>
 </g>
</svg>
