<?xml version="1.0" encoding="UTF-8"?>
<!--Generator: Apple Native CoreSVG 232.5-->
<!DOCTYPE svg
PUBLIC "-//W3C//DTD SVG 1.1//EN"
       "http://www.w3.org/Graphics/SVG/1.1/DTD/svg11.dtd">
<svg version="1.1" xmlns="http://www.w3.org/2000/svg" xmlns:xlink="http://www.w3.org/1999/xlink" width="82.856" height="116.92">
 <g>
  <rect height="116.92" opacity="0" width="82.856" x="0" y="0"/>
  <path d="M41.2324 20.7964C46.9253 20.7964 51.5894 16.0986 51.5894 10.4209C51.5894 4.69775 46.9253 0 41.2324 0C35.5244 0 30.8267 4.69775 30.8267 10.4209C30.8267 16.0986 35.5244 20.7964 41.2324 20.7964ZM3.86426 57.3174C6.3125 57.7417 8.97119 56.5513 9.60596 53.6484L13.6353 35.6235L20.8115 35.6235C21.7241 35.6235 22.3774 36.3745 22.1333 37.272L17.3379 55.7515C15.3477 63.2544 20.2896 70.6748 29.7339 68.3091L47.1694 63.9717L43.8086 80.7876C43.2715 83.3486 44.9839 85.9737 47.5601 86.5293C49.7944 87.0025 52.6821 85.5679 53.3018 82.7139L58.1309 58.459C58.8482 54.9517 55.8628 52.293 52.9111 52.5708L37.4321 54.0879L41.9985 36.814C42.1939 36.0967 42.9448 35.6235 43.6621 35.9014L61.4243 42.6382C64.6538 43.8774 67.9321 42.0186 67.9321 38.6577L67.9321 16.2163C67.9321 13.5728 65.7954 11.3872 63.0391 11.3872C60.3955 11.3872 58.1797 13.5728 58.1797 16.2163L58.1797 31.042L49.126 27.5347C46.1743 26.4268 42.9448 25.8711 39.7153 25.8711L9.68848 25.8711C7.42041 25.8711 5.479 27.4858 4.99072 29.6865L0.131348 51.5269C-0.473145 54.1704 1.19043 56.8442 3.86426 57.3174ZM25.7534 115.644C27.9878 116.117 30.9092 114.6 31.4463 111.843L36.2905 87.5733C36.3882 87.1641 36.3882 86.627 36.3882 86.2027L36.3882 71.2139L30.7813 72.5659C28.6597 73.1216 26.6694 73.2529 24.8257 73.1216L26.666 86.3828L21.938 109.853C21.416 112.512 23.0947 115.122 25.7534 115.644ZM44.2666 106.102L75.8257 106.102C77.0518 106.102 78.0454 105.108 78.0454 103.867C78.0454 102.641 77.0518 101.681 75.8257 101.681L44.2666 101.681C43.0405 101.681 42.0469 102.641 42.0469 103.867C42.0469 105.108 43.0405 106.102 44.2666 106.102ZM39.3887 116.785L80.6211 116.785C81.8623 116.785 82.856 115.792 82.856 114.55C82.856 113.324 81.8623 112.364 80.6211 112.364L39.3887 112.364C38.1475 112.364 37.1875 113.324 37.1875 114.55C37.1875 115.792 38.1475 116.785 39.3887 116.785Z" fill="#000000" fill-opacity="0.85"/>
 </g>
</svg>
