<?xml version="1.0" encoding="UTF-8"?>
<!--Generator: Apple Native CoreSVG 232.5-->
<!DOCTYPE svg
PUBLIC "-//W3C//DTD SVG 1.1//EN"
       "http://www.w3.org/Graphics/SVG/1.1/DTD/svg11.dtd">
<svg version="1.1" xmlns="http://www.w3.org/2000/svg" xmlns:xlink="http://www.w3.org/1999/xlink" width="82.3857" height="116.371">
 <g>
  <rect height="116.371" opacity="0" width="82.3857" x="0" y="0"/>
  <path d="M37.417 30.0659C43.0947 30.0659 47.6948 25.481 47.6948 19.7544C47.6948 14.0615 43.0947 9.47657 37.417 9.47657C31.6567 9.47657 27.0718 14.0615 27.0718 19.7544C27.0718 25.481 31.6567 30.0659 37.417 30.0659ZM11.1904 115.395C13.8642 115.853 16.3276 114.106 16.8496 111.35L21.352 87.0952L40.3164 76.7754C40.7929 76.4942 41.2661 76.6255 41.48 77.1172L51.0522 100.178C51.6079 101.418 52.4717 102.281 53.5644 102.852L75.0293 114.775C77.7368 116.326 80.5908 115.053 81.7475 112.931C83.103 110.584 82.2056 107.501 79.8398 106.164L59.8281 95.105L46.2905 40.9058C45.4907 37.6763 42.6855 35.3594 39.2119 35.3594L10.1953 35.3594L23.7817 6.45899C25.6255 2.56104 22.8354 0 19.9814 0C18.3667 0 16.7856 0.830078 15.9858 2.82031L0.326632 43.6318C-0.394072 45.4976 0.134738 47.353 1.35544 48.5889L13.4736 60.7559C15.3325 62.5811 18.498 62.5811 20.3569 60.7559L25.7383 55.3408C26.4555 54.6235 27.5332 54.6235 27.811 55.6826L30.729 67.3277L13.9468 79.919C12.7563 80.8013 12.2343 82.2359 11.9565 83.5576L7.24363 109.638C6.77048 112.214 8.53171 114.857 11.1904 115.395ZM21.9228 45.1304L16.8984 50.1851L11.8437 45.1304Z" fill="#000000" fill-opacity="0.85"/>
 </g>
</svg>
