<?xml version="1.0" encoding="UTF-8"?>
<!--Generator: Apple Native CoreSVG 232.5-->
<!DOCTYPE svg
PUBLIC "-//W3C//DTD SVG 1.1//EN"
       "http://www.w3.org/Graphics/SVG/1.1/DTD/svg11.dtd">
<svg version="1.1" xmlns="http://www.w3.org/2000/svg" xmlns:xlink="http://www.w3.org/1999/xlink" width="108.715" height="108.771">
 <g>
  <rect height="108.771" opacity="0" width="108.715" x="0" y="0"/>
  <path d="M5.1061 64.5165L44.2326 103.628C50.9899 110.4 57.8161 110.389 64.4943 103.729L103.71 64.4491C110.355 57.7895 110.412 50.9296 103.654 44.1723L64.5919 5.10976C57.8043-1.67784 51.0236-1.69981 44.2848 5.02383L5.00502 44.2396C-1.71861 50.9633-1.65123 57.744 5.1061 64.5165ZM9.43814 60.3832C5.54752 56.474 5.49527 52.3124 9.47183 48.351L48.317 9.49063C52.3239 5.49894 56.4249 5.53263 60.3644 9.45694L99.2619 48.3544C103.107 52.2148 103.235 56.4403 99.2433 60.4169L60.3981 99.247C56.3913 103.239 52.1774 103.141 48.3507 99.3144Z" fill="#000000" fill-opacity="0.85"/>
  <path d="M65.6876 83.8891C67.171 83.8891 68.609 82.8485 68.609 81.0233C68.609 80.2758 68.4137 79.641 68.0382 78.8749L62.3673 67.3344C61.8117 66.2196 61.2072 65.3441 60.7038 64.6454L57.2707 59.6986L57.5182 58.9594C58.5436 55.9506 58.9865 54.0126 59.1818 51.0375L59.734 43.1039C60.0119 39.0106 57.6647 35.7592 53.2228 35.7592C50.1803 35.7592 47.715 37.288 44.8004 40.0629L40.172 44.4086C38.6432 45.8432 38.2189 47.0453 38.0875 48.8856L37.5016 55.474C37.3703 57.3666 38.4479 58.6059 40.1603 58.7523C41.7599 58.8349 42.9503 57.8734 43.1457 55.8495L43.713 48.7274L46.1847 46.6278C46.9323 45.9931 47.8415 46.3534 47.7438 47.473L47.2741 53.4149C46.9811 56.7167 48.5319 59.0453 50.1281 61.0321L55.713 68.0971C56.2653 68.747 56.3478 69.0214 56.6256 69.5131L62.736 81.9325C63.3859 83.33 64.445 83.8891 65.6876 83.8891ZM39.549 83.9345C40.4767 83.9345 41.3068 83.5775 41.8624 82.9242L50.6164 72.4613C51.5778 71.3046 51.6603 71.2558 51.9044 70.1815L52.4684 67.8246L47.6764 61.7934L46.1964 68.8144L38.0656 78.4438C37.3854 79.2553 36.796 79.9911 36.796 81.1479C36.796 82.8603 37.9528 83.9345 39.549 83.9345ZM67.1476 52.58L73.7785 52.58C75.7536 52.58 76.9254 51.5023 76.9254 49.7563C76.9254 48.0775 75.7536 46.9511 73.7785 46.9511L66.7233 46.9511L62.0763 41.7973L61.5543 49.2328L63.6623 51.3256C64.6388 52.3358 65.5026 52.58 67.1476 52.58ZM56.7824 33.6156C60.2038 33.6156 63.0241 30.7802 63.0241 27.4228C63.0241 23.9188 60.2038 21.1811 56.7824 21.1811C53.3273 21.1811 50.5895 23.9188 50.5895 27.4228C50.5895 30.7802 53.3273 33.6156 56.7824 33.6156Z" fill="#000000" fill-opacity="0.85"/>
 </g>
</svg>
