<?xml version="1.0" encoding="UTF-8"?>
<!--Generator: Apple Native CoreSVG 232.5-->
<!DOCTYPE svg
PUBLIC "-//W3C//DTD SVG 1.1//EN"
       "http://www.w3.org/Graphics/SVG/1.1/DTD/svg11.dtd">
<svg version="1.1" xmlns="http://www.w3.org/2000/svg" xmlns:xlink="http://www.w3.org/1999/xlink" width="91.3496" height="97.1826">
 <g>
  <rect height="97.1826" opacity="0" width="91.3496" x="0" y="0"/>
  <path d="M78.468 26.6323C85.5954 26.6323 91.3489 20.6953 91.3489 13.7969C91.3489 6.62061 85.5954 0.766113 78.468 0.766113C71.2917 0.766113 65.5652 6.62061 65.5652 13.7969C65.5652 21.0386 71.2917 26.6323 78.468 26.6323ZM69.9114 76.0225C72.1355 74.3589 74.2165 71.5083 76.1999 67.8496L84.9724 51.9497C89.0168 44.6118 87.6799 37.1275 80.7361 33.4248C74.0329 29.707 67.0705 32.5459 62.9773 39.9815L53.8059 56.6235ZM1.7131 94.5913C4.19161 97.2315 8.4465 96.9722 11.4807 93.8589L31.947 72.7241C32.6643 72.0069 33.1189 71.8115 34.1477 72.2359L51.4485 78.7588C55.3967 80.2691 59.5202 79.9458 62.6267 79.2842L50.9646 64.8472L38.2561 60.2002C32.6154 58.1309 27.9514 58.7993 23.4489 63.4634L2.15255 85.4771C-0.765418 88.5264-0.521278 92.3418 1.7131 94.5913ZM80.4431 95.1319C82.2937 93.6904 82.425 91.5366 80.6872 89.4082L69.9114 76.0225C67.7239 77.5532 65.2165 78.6983 62.6267 79.2842L74.8659 94.2647C76.5364 96.2652 78.6194 96.6895 80.4431 95.1319Z" fill="#000000" fill-opacity="0.85"/>
  <path d="M24.2487 48.3345C37.7038 48.3345 48.219 37.2149 48.219 24.3457C48.219 10.8604 37.7038 0 24.2487 0C10.8122 0 0.000695108 10.8604 0.000695108 24.3457C0.000695108 37.2149 10.8122 48.3345 24.2487 48.3345Z" fill="#000000" fill-opacity="0.85"/>
 </g>
</svg>
