<?xml version="1.0" encoding="UTF-8"?>
<!--Generator: Apple Native CoreSVG 232.5-->
<!DOCTYPE svg
PUBLIC "-//W3C//DTD SVG 1.1//EN"
       "http://www.w3.org/Graphics/SVG/1.1/DTD/svg11.dtd">
<svg version="1.1" xmlns="http://www.w3.org/2000/svg" xmlns:xlink="http://www.w3.org/1999/xlink" width="79.5177" height="121.005">
 <g>
  <rect height="121.005" opacity="0" width="79.5177" x="0" y="0"/>
  <path d="M27.4681 38.7539C33.1761 38.7539 37.8739 34.105 37.8739 28.2993C37.8739 22.6065 33.1761 17.9912 27.4681 17.9912C21.7264 17.9912 17.1112 22.6065 17.1112 28.2993C17.1112 34.105 21.7264 38.7539 27.4681 38.7539ZM0.00227081 61.8823C0.00227081 65.6152 3.86653 67.3462 6.85188 65.8291L23.4725 57.4776C24.2723 57.0532 25.1849 57.5264 25.3651 58.375L30.2093 77.752L22.6087 96.7534L4.70003 96.7534C2.12385 96.7534 0.00227081 98.8565 0.00227081 101.418C0.00227081 103.979 2.12385 106.051 4.70003 106.051L25.5116 106.051C27.6331 106.051 28.9701 105.218 30.014 103.325L40.1419 84.6016L45.8011 99.5098L27.8284 111.579C25.7069 113.014 25.0872 115.999 26.5067 118.038C27.9412 120.126 30.6488 120.828 32.9657 119.277L54.2166 105.169C55.8162 104.125 56.5824 102.544 55.8651 99.7051L43.3226 49.5991C43.0448 48.5249 43.3226 47.5938 44.4979 46.9741L76.9056 30.7778C79.2225 29.6699 80.1991 26.8311 79.0086 24.5142C77.8182 22.1821 75.0619 21.2544 72.7147 22.4111L9.36409 54.1016L9.36409 38.2808C9.36409 35.7197 7.32503 33.647 4.70003 33.647C2.12385 33.647 0.00227081 35.7197 0.00227081 38.2808ZM65.5047 18.3818C70.5931 18.3818 74.6712 14.2886 74.6712 9.21533C74.6712 4.17578 70.5931 0 65.5047 0C60.3675 0 56.2894 4.17578 56.2894 9.21533C56.2894 14.2886 60.3675 18.3818 65.5047 18.3818Z" fill="#000000" fill-opacity="0.85"/>
 </g>
</svg>
