<?xml version="1.0" encoding="UTF-8"?>
<!--Generator: Apple Native CoreSVG 232.5-->
<!DOCTYPE svg
PUBLIC "-//W3C//DTD SVG 1.1//EN"
       "http://www.w3.org/Graphics/SVG/1.1/DTD/svg11.dtd">
<svg version="1.1" xmlns="http://www.w3.org/2000/svg" xmlns:xlink="http://www.w3.org/1999/xlink" width="99.7788" height="132.628">
 <g>
  <rect height="132.628" opacity="0" width="99.7788" x="0" y="0"/>
  <path d="M89.501 44.4429C95.1939 44.4429 99.7788 39.8579 99.7788 34.1314C99.7788 28.4385 95.1939 23.8535 89.501 23.8535C83.7744 23.8535 79.1558 28.4385 79.1558 34.1314C79.1558 39.8579 83.7744 44.4429 89.501 44.4429ZM4.89307 57.7915L28.5435 57.7915L43.273 71.169C43.8018 71.6304 43.5205 72.4219 42.8267 72.4219L25.9824 72.4219C24.5479 72.4219 23.1133 72.7334 22.1182 73.7437L4.50244 91.4234C2.59473 93.3648 2.5459 96.3501 4.50244 98.3067C6.41016 100.214 9.47803 100.184 11.3857 98.3067L27.2217 82.4859L46.5498 85.6665C52.731 86.6616 59.0435 84.7842 63.5122 80.2178L74.4248 69.3238C75.3374 68.4112 76.6104 68.9331 76.6104 70.1875L76.6104 77.6905L63.4634 90.8526C61.586 92.7603 61.6196 95.8282 63.4634 97.7359C64.4097 98.667 65.6489 99.1704 66.9707 99.1704C68.21 99.1704 69.4492 98.667 70.3955 97.7359L84.9771 83.1543C85.8745 82.2417 86.3965 80.9199 86.3965 79.6807L86.3965 57.9717C86.3965 54.8399 85.4014 52.294 83.5576 50.4688L54.0518 21.0606L54.0518 34.8423L67.1172 47.9077C68.0147 48.8052 67.9507 49.7852 67.1172 50.6153L54.1841 63.5821L33.2075 48.8389C32.2949 48.2193 31.5776 48.0054 30.2559 48.0054L4.89307 48.0054C2.18555 48.0054 0 50.1909 0 52.8985C0 55.5571 2.18555 57.7915 4.89307 57.7915ZM57.1694 106.201C63.8965 106.201 68.96 101.142 69.0928 94.5059L64.6719 94.5059C64.5239 98.6968 61.3384 101.765 57.1694 101.765C52.9585 101.765 49.6485 99.1197 49.6485 94.2774L49.6485 2.18604C49.6485 0.993654 48.6548 0 47.4473 0C46.2549 0 45.2275 0.993654 45.2275 2.18604L45.2275 94.2774C45.2275 101.715 50.355 106.201 57.1694 106.201ZM66.8882 132.579C68.148 132.579 69.1079 131.585 69.1079 130.344L69.1079 72.6167L64.687 72.6167L64.687 130.344C64.687 131.585 65.647 132.579 66.8882 132.579Z" fill="#000000" fill-opacity="0.85"/>
 </g>
</svg>
