<?xml version="1.0" encoding="UTF-8"?>
<!--Generator: Apple Native CoreSVG 232.5-->
<!DOCTYPE svg
PUBLIC "-//W3C//DTD SVG 1.1//EN"
       "http://www.w3.org/Graphics/SVG/1.1/DTD/svg11.dtd">
<svg version="1.1" xmlns="http://www.w3.org/2000/svg" xmlns:xlink="http://www.w3.org/1999/xlink" width="104.141" height="114.105">
 <g>
  <rect height="114.105" opacity="0" width="104.141" x="0" y="0"/>
  <path d="M70.6966 20.5894C76.4231 20.5894 81.0081 16.0044 81.0081 10.3115C81.0081 4.58496 76.4231 0 70.6966 0C64.97 0 60.385 4.58496 60.385 10.3115C60.385 16.0044 64.97 20.5894 70.6966 20.5894ZM19.1897 70.1646L46.5427 70.1646L71.823 73.7207C81.2976 75.0425 88.117 70.9307 88.117 61.8955L88.117 44.7866C88.117 43.938 89.0296 43.5962 89.6004 44.1821L94.2981 48.9287L94.2981 65.1587C94.2981 67.9302 96.615 70.1646 99.24 70.1646C101.948 70.1646 104.133 67.9302 104.133 65.1587L104.133 46.8257C104.133 45.5376 103.66 44.2647 102.665 43.3184L90.678 31.3955C87.1219 27.9219 82.5706 25.8828 77.4822 25.8828L30.5906 25.8828C27.9319 25.8828 25.6638 28.166 25.6638 30.8247C25.6638 33.5811 27.8494 35.7666 30.5906 35.7666L66.637 35.7666C68.0716 35.7666 69.1155 36.8594 69.1155 38.2451L69.1155 60.2808L19.1897 60.2808C16.3997 60.2808 14.2141 62.4512 14.2141 65.1587C14.2141 67.9302 16.4822 70.1646 19.1897 70.1646ZM79.7991 112.197C81.7068 114.105 84.805 114.105 86.6975 112.197C88.6389 110.289 88.5901 107.206 86.6975 105.265L70.9744 89.3462L76.7058 78.2554C74.9968 78.4019 73.138 78.2705 71.2 78.0264L64.4295 77.0952L60.242 88.6778C59.5735 90.439 59.9827 92.3804 61.4173 93.815ZM4.8523 49.1577C11.0183 55.2749 17.9656 54.6216 20.5754 52.0454C23.1028 49.4019 23.2981 42.9917 17.1995 36.8106C10.9358 30.5957 4.47681 30.7759 1.86695 33.4346C-0.742915 36.0444-1.32885 42.8789 4.8523 49.1577Z" fill="#000000" fill-opacity="0.85"/>
 </g>
</svg>
