<?xml version="1.0" encoding="UTF-8"?>
<!--Generator: Apple Native CoreSVG 232.5-->
<!DOCTYPE svg
PUBLIC "-//W3C//DTD SVG 1.1//EN"
       "http://www.w3.org/Graphics/SVG/1.1/DTD/svg11.dtd">
<svg version="1.1" xmlns="http://www.w3.org/2000/svg" xmlns:xlink="http://www.w3.org/1999/xlink" width="120.453" height="93.6367">
 <g>
  <rect height="93.6367" opacity="0" width="120.453" x="0" y="0"/>
  <path d="M80.1665 20.7627C85.9385 20.7627 90.5723 16.1138 90.5723 10.3569C90.5723 4.61524 85.9385 0 80.1665 0C74.4248 0 69.8096 4.61524 69.8096 10.3569C69.8096 16.1138 74.4248 20.7627 80.1665 20.7627ZM46.8428 93.0508C48.9644 93.8321 51.6231 93.2798 53.0088 90.4898L65.1758 66.1709C66.1221 64.3272 65.8628 62.1416 64.2632 60.5606L49.584 45.8325L68.1611 36.5835C69.0098 36.1104 70.0049 36.3394 70.6734 36.9927L81.7476 47.9844C82.5962 48.833 83.8355 49.3887 85.1084 49.3887L107.062 49.3887C109.735 49.3887 111.906 47.2671 111.906 44.5259C111.906 41.8521 109.735 39.6665 107.062 39.6665L87.1138 39.6665L66.6441 19.1328C64.2295 16.7031 60.9024 15.3477 57.4136 15.3477L17.0112 15.3477C14.3374 15.3477 12.1519 17.5332 12.1519 20.207C12.1519 22.8843 14.3374 25.0698 17.0112 25.0698L47.481 25.0698C48.0332 25.0698 48.1983 25.8999 47.7251 26.144L38.6563 30.6465C33.8457 33.0122 31.4463 37.5147 31.4463 42.0962C31.4463 46.0278 33.2075 49.9409 36.7974 52.5357L54.6084 65.5025L44.3154 86.1524C42.6856 89.4458 44.4131 92.0894 46.8428 93.0508ZM4.8291 73.7075L29.148 73.7075C31.0557 73.7075 32.7344 72.6299 33.5679 71.064L39.2017 59.7105L34.2598 56.0869C32.4531 54.7686 30.936 53.1572 29.7944 51.4668L25.7383 63.9854L4.8291 63.9854C2.18555 63.9854 0 66.1709 0 68.8447C0 71.5034 2.18555 73.7075 4.8291 73.7075ZM109.753 2.85351C103.597 2.85351 99.0542 7.36279 99.0542 13.5039C99.0542 22.3897 106.842 32.5215 107.994 33.8125L111.464 33.8125C112.649 32.5215 120.453 22.3897 120.453 13.5039C120.453 7.36279 115.895 2.85351 109.753 2.85351ZM109.753 7.27442C113.36 7.27442 116.017 9.96485 116.017 13.5039C116.017 18.4824 112.01 25.4053 109.753 28.8691C107.482 25.4053 103.475 18.4824 103.475 13.5039C103.475 9.96485 106.132 7.27442 109.753 7.27442ZM107.519 44.5259L111.906 44.5259L111.906 32.3589L107.519 32.3589Z" fill="#000000" fill-opacity="0.85"/>
 </g>
</svg>
