<?xml version="1.0" encoding="UTF-8"?>
<!--Generator: Apple Native CoreSVG 232.5-->
<!DOCTYPE svg
PUBLIC "-//W3C//DTD SVG 1.1//EN"
       "http://www.w3.org/Graphics/SVG/1.1/DTD/svg11.dtd">
<svg version="1.1" xmlns="http://www.w3.org/2000/svg" xmlns:xlink="http://www.w3.org/1999/xlink" width="108.715" height="108.771">
 <g>
  <rect height="108.771" opacity="0" width="108.715" x="0" y="0"/>
  <path d="M64.5919 5.10976L103.654 44.1723C110.412 50.9296 110.355 57.7895 103.71 64.4491L64.4943 103.729C57.8161 110.389 50.9899 110.4 44.2326 103.628L5.1061 64.5165C-1.65123 57.744-1.71861 50.9633 5.00502 44.2396L44.2848 5.02383C51.0236-1.69981 57.8043-1.67784 64.5919 5.10976ZM45.9186 69.7421L37.3146 79.9423C36.5368 80.8817 36.0451 81.5839 36.0451 82.6127C36.0451 84.1786 37.0856 85.2865 38.6515 85.2865C39.5304 85.2865 40.3302 84.9447 40.9162 84.2611L50.1281 73.2914C51.1383 72.037 51.172 72.037 51.4162 71.0116L51.9953 68.6732L47.3346 62.8036ZM44.3913 39.6234L39.5036 44.2284C38.0084 45.6293 37.5807 46.85 37.3854 48.724L36.7843 55.6356C36.653 57.4794 37.6481 58.6698 39.3302 58.8012C40.945 58.8988 42.0714 57.8734 42.2179 56.0111L42.8341 48.4345L45.7033 45.9374C46.5753 45.1444 47.6461 45.7758 47.5485 46.9071L47.0602 53.4638C46.8009 56.8783 48.3029 59.2406 49.9479 61.3251L55.8595 68.7655C56.442 69.4306 56.5583 69.7538 56.8698 70.2943L63.3068 83.2846C63.8625 84.5727 64.8087 85.2074 66.1271 85.2074C67.7267 85.2074 68.9357 84.0356 68.9357 82.4394C68.9357 81.7558 68.7555 81.1059 68.3649 80.3246L62.3673 68.2133C61.8454 67.0346 61.256 66.0917 60.7038 65.3778L56.9625 60.1381L57.3043 59.2035C58.2472 56.0297 58.8551 54.0126 59.0353 50.9735L59.5875 42.6342C59.8991 38.1772 57.338 35.2221 53.0275 35.2221C49.9025 35.2221 47.4035 36.7846 44.3913 39.6234ZM62.0275 48.9398L64.1842 51.0814C65.1422 52.0429 65.942 52.3358 67.6359 52.3358L74.6085 52.3358C76.5197 52.3358 77.6764 51.2919 77.6764 49.6586C77.6764 47.995 76.486 46.9511 74.6085 46.9511L67.1139 46.9511L62.5158 41.8798ZM50.5255 26.0438C50.5255 29.4501 53.361 32.3192 56.7824 32.3192C60.1886 32.3192 63.1066 29.4164 63.1066 26.0438C63.1066 22.5248 60.2863 19.7196 56.7824 19.7196C53.3122 19.7196 50.5255 22.5399 50.5255 26.0438Z" fill="#000000" fill-opacity="0.85"/>
 </g>
</svg>
