<?xml version="1.0" encoding="UTF-8"?>
<!--Generator: Apple Native CoreSVG 232.5-->
<!DOCTYPE svg
PUBLIC "-//W3C//DTD SVG 1.1//EN"
       "http://www.w3.org/Graphics/SVG/1.1/DTD/svg11.dtd">
<svg version="1.1" xmlns="http://www.w3.org/2000/svg" xmlns:xlink="http://www.w3.org/1999/xlink" width="93.251" height="123.103">
 <g>
  <rect height="123.103" opacity="0" width="93.251" x="0" y="0"/>
  <path d="M82.9429 45.3278C88.6206 45.3278 93.251 40.6637 93.251 34.8883C93.251 29.1954 88.6206 24.5651 82.9429 24.5651C77.1675 24.5651 72.5034 29.1954 72.5034 34.8883C72.5034 40.6637 77.1675 45.3278 82.9429 45.3278ZM40.3013 82.7159L57.917 95.5851L47.6426 116.055C46.4522 118.387 47.4136 121.387 49.8281 122.611C52.0137 123.671 54.9653 123.051 56.2534 120.426L68.2588 96.4C69.333 94.2179 68.9273 92.1115 67.2637 90.4967L58.1948 81.9987L73.625 81.9987C76.4302 81.9987 78.4844 79.8131 78.4844 77.1696L78.4844 57.8414C78.4844 49.8839 72.0742 43.3761 64.0342 43.3761L46.2383 43.3761L49.3062 32.5611C50.0234 30.0187 48.6377 27.3751 46.043 26.6241C43.4668 25.8429 40.8233 27.3751 40.106 29.9025L35.3106 46.8009C34.398 50.0304 36.2905 52.9821 39.7153 52.9821L57.0532 52.9821C57.2485 52.9821 57.395 53.2599 57.1997 53.4064L42.0962 61.0406C33.5982 65.3292 32.5391 77.0231 40.3013 82.7159ZM58.5703 72.5543L68.1763 67.9728C68.6006 67.8077 69.1226 68.0856 69.1226 68.5587L69.1226 72.5543ZM33.3472 81.6251L29.1143 94.0343L4.9419 94.0343C2.20068 94.0343 0 96.2047 0 98.8634C0 101.62 2.20068 103.805 4.9419 103.805L32.603 103.805C34.398 103.805 36.1929 102.761 37.0078 101.015L42.6113 89.8082L37.7149 86.2521C35.9385 84.9 34.4399 83.319 33.3472 81.6251ZM42.9766 20.462L46.4658 20.462C49.2442 17.0338 52.3408 11.4366 52.3408 7.70519C52.3408 3.13683 49.2256 0.0215886 44.7549 0.0215886C40.1714 0.0215886 37.0225 3.13683 37.0225 7.70519C37.0225 11.8761 40.1343 17.379 42.9766 20.462ZM42.4375 70.3693L46.9258 70.3693L46.9258 19.17L42.4375 19.17Z" fill="#000000" fill-opacity="0.85"/>
 </g>
</svg>
