<?xml version="1.0" encoding="UTF-8"?>
<!--Generator: Apple Native CoreSVG 232.5-->
<!DOCTYPE svg
PUBLIC "-//W3C//DTD SVG 1.1//EN"
       "http://www.w3.org/Graphics/SVG/1.1/DTD/svg11.dtd">
<svg version="1.1" xmlns="http://www.w3.org/2000/svg" xmlns:xlink="http://www.w3.org/1999/xlink" width="133.265" height="96.6641">
 <g>
  <rect height="96.6641" opacity="0" width="133.265" x="0" y="0"/>
  <path d="M51.7193 51.9317C53.6963 51.9317 55.3433 50.2847 55.3433 48.3076C55.3433 46.3306 53.6963 44.6836 51.7193 44.6836C49.7422 44.6836 48.0952 46.3306 48.0952 48.3076C48.0952 50.2847 49.7422 51.9317 51.7193 51.9317ZM66.625 51.9317C68.6021 51.9317 70.2491 50.2847 70.2491 48.3076C70.2491 46.3306 68.6021 44.6836 66.625 44.6836C64.648 44.6836 63.001 46.3306 63.001 48.3076C63.001 50.2847 64.648 51.9317 66.625 51.9317ZM81.4971 51.9317C83.4742 51.9317 85.1211 50.2847 85.1211 48.3076C85.1211 46.3306 83.4742 44.6836 81.4971 44.6836C79.5201 44.6836 77.8731 46.3306 77.8731 48.3076C77.8731 50.2847 79.5201 51.9317 81.4971 51.9317Z" fill="#000000" fill-opacity="0.85"/>
  <path d="M0 58.1577C0 60.2153 1.68213 61.8975 3.72461 61.8975C5.83106 61.8975 7.51319 60.2153 7.51319 58.1577L7.51319 41.4917C7.51319 40.7559 8.10254 40.1665 8.83838 40.1665C9.59278 40.1665 10.1821 40.7559 10.1821 41.4917L10.1821 92.062C10.1821 94.3487 12.0107 96.1773 14.3125 96.1773C16.6328 96.1773 18.4614 94.3487 18.4614 92.062L18.4614 61.207C18.4614 60.4863 19.0845 59.8633 19.8203 59.8633C20.5747 59.8633 21.1978 60.4863 21.1978 61.207L21.1978 92.062C21.1978 94.3487 23.0264 96.1773 25.3281 96.1773C27.6148 96.1773 29.4771 94.3487 29.4771 92.062L29.4771 41.4917C29.4771 40.7559 30.0664 40.1665 30.8023 40.1665C31.523 40.1665 32.146 40.7559 32.146 41.4917L32.146 58.1577C32.146 60.2153 33.7944 61.8975 35.9009 61.8975C37.9922 61.8975 39.6255 60.2153 39.6255 58.1577L39.6255 39.5503C39.6255 30.0386 32.7236 23.7598 22.8159 23.7598L16.8584 23.7598C6.95069 23.7598 0 30.0386 0 39.5503ZM19.8203 18.6816C25.0098 18.6816 29.1704 14.521 29.1704 9.33155C29.1704 4.16065 25.0098 0 19.8203 0C14.6494 0 10.4888 4.16065 10.4888 9.33155C10.4888 14.521 14.6494 18.6816 19.8203 18.6816ZM93.606 58.1577C93.606 60.2153 95.273 61.8975 97.3306 61.8975C99.4371 61.8975 101.119 60.2153 101.119 58.1577L101.119 41.4917C101.119 40.7559 101.709 40.1665 102.463 40.1665C103.199 40.1665 103.788 40.7559 103.788 41.4917L103.788 92.062C103.788 94.3487 105.617 96.1773 107.903 96.1773C110.224 96.1773 112.067 94.3487 112.067 92.062L112.067 61.207C112.067 60.4863 112.69 59.8633 113.411 59.8633C114.181 59.8633 114.804 60.4863 114.804 61.207L114.804 92.062C114.804 94.3487 116.632 96.1773 118.919 96.1773C121.206 96.1773 123.083 94.3487 123.083 92.062L123.083 41.4917C123.083 40.7559 123.672 40.1665 124.393 40.1665C125.129 40.1665 125.752 40.7559 125.752 41.4917L125.752 58.1577C125.752 60.2153 127.4 61.8975 129.507 61.8975C131.583 61.8975 133.265 60.2153 133.265 58.1577L133.265 39.5503C133.265 30.0386 126.315 23.7598 116.407 23.7598L110.449 23.7598C100.542 23.7598 93.606 30.0386 93.606 39.5503ZM113.411 18.6816C118.616 18.6816 122.776 14.521 122.776 9.33155C122.776 4.16065 118.616 0 113.411 0C108.255 0 104.095 4.16065 104.095 9.33155C104.095 14.521 108.255 18.6816 113.411 18.6816Z" fill="#000000" fill-opacity="0.85"/>
 </g>
</svg>
