<?xml version="1.0" encoding="UTF-8"?>
<!--Generator: Apple Native CoreSVG 232.5-->
<!DOCTYPE svg
PUBLIC "-//W3C//DTD SVG 1.1//EN"
       "http://www.w3.org/Graphics/SVG/1.1/DTD/svg11.dtd">
<svg version="1.1" xmlns="http://www.w3.org/2000/svg" xmlns:xlink="http://www.w3.org/1999/xlink" width="63.5385" height="106.095">
 <g>
  <rect height="106.095" opacity="0" width="63.5385" x="0" y="0"/>
  <path d="M31.7693 20.1367C37.3865 20.1367 41.862 15.7251 41.862 10.0928C41.862 4.44531 37.3865 0 31.7693 0C26.1369 0 21.6916 4.44531 21.6916 10.0928C21.6916 15.7251 26.1369 20.1367 31.7693 20.1367ZM31.7693 65.8736C33.7712 65.8736 34.6281 67.271 35.6604 70.6807C37.1843 75.5064 42.0857 95.4507 43.7156 101.305C44.5002 104.166 45.9719 105.436 48.176 105.436C51.1648 105.436 52.9631 102.74 52.1448 99.7696C51.8181 98.4966 44.844 69.6485 43.9245 63.6963C43.1399 58.1738 42.884 46.6529 42.884 42.4946C42.884 41.7891 43.7024 41.5112 44.1755 42.1494C47.4592 46.7163 54.3606 56.4683 55.6033 58.0005C57.0227 59.6758 59.2908 59.9688 61.1345 58.94C63.4734 57.7124 64.0593 55.2085 63.0642 53.3833C62.6282 52.6055 62.091 51.8731 61.5119 51.0044L49.6526 33.7026C45.2854 27.3403 39.8811 25.4302 31.7693 25.4302C23.6574 25.4302 18.238 27.3403 13.886 33.7026L2.02658 51.0044C1.44748 51.8731 0.895229 52.6055 0.474331 53.3833C-0.520786 55.2085 0.0163231 57.7124 2.40402 58.94C4.24777 59.9688 6.51584 59.6758 7.90158 58.0005C9.14426 56.4683 16.0793 46.75 19.363 42.1494C19.8025 41.5298 20.6394 41.7891 20.6394 42.5283C20.6394 46.6865 20.3498 58.1738 19.5803 63.6963C18.6946 69.6485 11.7204 98.4966 11.3786 99.7696C10.5754 102.74 12.3737 105.436 15.3474 105.436C17.5666 105.436 19.0383 104.166 19.823 101.305C21.4529 95.4507 26.3542 75.5064 27.8781 70.6807C28.9104 67.271 29.7673 65.8736 31.7693 65.8736Z" fill="#000000" fill-opacity="0.85"/>
 </g>
</svg>
