<?xml version="1.0" encoding="UTF-8"?>
<!--Generator: Apple Native CoreSVG 232.5-->
<!DOCTYPE svg
PUBLIC "-//W3C//DTD SVG 1.1//EN"
       "http://www.w3.org/Graphics/SVG/1.1/DTD/svg11.dtd">
<svg version="1.1" xmlns="http://www.w3.org/2000/svg" xmlns:xlink="http://www.w3.org/1999/xlink" width="153.58" height="98.584">
 <g>
  <rect height="98.584" opacity="0" width="153.58" x="0" y="0"/>
  <path d="M126.69 26.8447C133.802 26.8447 139.555 20.9077 139.555 14.0093C139.555 6.83301 133.802 1.01221 126.69 1.01221C119.513 1.01221 113.787 6.83301 113.787 14.0093C113.787 21.2847 119.513 26.8447 126.69 26.8447ZM49.9044 94.9165C52.3829 97.523 56.6378 97.2822 59.6383 94.1353L80.1686 72.9854C80.8522 72.2681 81.3405 72.0728 82.3693 72.4971L98.7907 78.7134C109.035 82.6299 118.523 78.8452 123.237 70.3106L133.179 52.211C137.205 44.9219 135.886 37.3887 128.958 33.686C122.206 30.002 115.243 32.7734 111.184 40.2578L97.8112 64.6187L86.4777 60.4614C80.7882 58.3921 76.1242 59.0606 71.6554 63.7246L50.3439 85.7534C47.3922 88.8179 47.67 92.6182 49.9044 94.9165Z" fill="#000000" fill-opacity="0.85"/>
  <path d="M0.688584 15.1001L13.7276 31.8316C14.2984 32.5825 15.1656 32.7139 15.9654 32.271C18.9879 30.6865 23.4986 29.5635 27.0631 29.5635C30.6764 29.5635 35.172 30.6865 38.1271 32.271C39.0094 32.7139 39.8917 32.5825 40.4137 31.8316L53.4713 15.1001C54.5475 13.6787 54.3488 12.2271 53.0436 11.1694C47.5631 7.06446 37.3546 3.96632 27.0631 3.96632C16.8053 3.96632 6.61192 7.06446 1.15001 11.1694C-0.222551 12.2271-0.353898 13.6939 0.688584 15.1001ZM14.5035 41.9404C13.0655 40.0444 12.4762 38.2647 12.4762 36.2476C12.4762 31.9605 16.1114 30.5161 16.1114 27.9517C16.1114 25.3687 12.4762 23.9883 12.4762 19.5547C12.4762 17.5864 13.0655 15.8067 14.5338 13.9443C16.046 12.1358 18.7438 14.0454 17.2955 15.9517C16.2213 17.4351 15.8829 18.2954 15.8829 19.5547C15.8829 22.8296 19.4996 23.833 19.4996 27.9517C19.4996 32.082 15.8829 33.1343 15.8829 36.2476C15.8829 37.6533 16.2213 38.416 17.2652 39.8877C18.6495 41.7603 16.0006 43.6885 14.5035 41.9404ZM25.6149 41.9404C24.2594 40.0444 23.6212 38.2647 23.6212 36.2476C23.6212 31.9605 27.2565 30.5161 27.2565 27.9517C27.2565 25.3687 23.6212 23.9883 23.6212 19.5547C23.6212 17.5864 24.2106 15.8067 25.6451 13.9443C27.1573 12.1358 29.8888 14.0454 28.4742 15.9517C27.3663 17.4351 27.0279 18.2954 27.0279 19.5547C27.0279 22.8296 30.6783 23.833 30.6783 27.9517C30.6783 32.082 27.0279 33.1343 27.0279 36.2476C27.0279 37.6533 27.3663 38.416 28.4103 39.8877C29.7945 41.7603 27.1119 43.6885 25.6149 41.9404ZM36.8273 41.9404C35.4044 40.0444 34.7662 38.2647 34.7662 36.2476C34.7662 31.9605 38.4352 30.5161 38.4352 27.9517C38.4352 25.3687 34.7662 23.9883 34.7662 19.5547C34.7662 17.5864 35.3556 15.8067 36.8912 13.9443C38.3697 12.1358 41.0338 14.0454 39.6193 15.9517C38.545 17.4351 38.1881 18.2954 38.1881 19.5547C38.1881 22.8296 41.8234 23.833 41.8234 27.9517C41.8234 32.082 38.1881 33.1343 38.1881 36.2476C38.1881 37.6533 38.545 38.416 39.5553 39.8877C40.9733 41.7603 38.3058 43.6885 36.8273 41.9404ZM78.3844 0C76.8702 0 75.607 1.22949 75.607 2.81104L75.607 23.4248L67.0006 23.4248C63.9894 23.4248 62.9166 26.5117 64.7843 28.6235L76.0387 41.77C77.3893 43.3462 79.3678 43.3765 80.7975 41.77L92.0519 28.6235C93.9869 26.4443 92.7272 23.4248 89.8356 23.4248L81.1954 23.4248L81.1954 2.81104C81.1954 1.22949 79.9811 0 78.3844 0Z" fill="#000000" fill-opacity="0.85"/>
 </g>
</svg>
