<?xml version="1.0" encoding="UTF-8"?>
<!--Generator: Apple Native CoreSVG 232.5-->
<!DOCTYPE svg
PUBLIC "-//W3C//DTD SVG 1.1//EN"
       "http://www.w3.org/Graphics/SVG/1.1/DTD/svg11.dtd">
<svg version="1.1" xmlns="http://www.w3.org/2000/svg" xmlns:xlink="http://www.w3.org/1999/xlink" width="106.099" height="109.599">
 <g>
  <rect height="109.599" opacity="0" width="106.099" x="0" y="0"/>
  <path d="M51.5762 20.5894C57.2876 20.5894 61.9063 15.937 61.9063 10.3115C61.9063 4.58496 57.2876 0 51.5762 0C45.8833 0 41.2983 4.58496 41.2983 10.3115C41.2983 15.937 45.8833 20.5894 51.5762 20.5894ZM14.6021 98.1675C12.041 100.729 12.5967 103.876 14.5044 105.588C16.2168 107.105 19.1685 107.432 21.5342 105.066L39.6533 86.9468C40.0137 86.5864 40.145 86.4248 40.4868 85.8203L49.5454 68.7808C50.6973 66.5747 54.0078 66.2954 56.1934 67.9253L76.646 83.4395L76.646 104.349C76.646 107.578 78.6362 109.568 81.5879 109.568C84.5244 109.568 86.5147 107.578 86.5147 104.349L86.5147 81.0737C86.5147 79.6392 85.959 78.4151 84.6709 77.2583L61.8692 57.686L61.8692 36.4014C61.8692 35.2261 62.669 34.2647 64.1035 34.0356L101.926 28.2939C104.57 27.8696 106.429 25.3086 106.004 22.6499C105.629 19.9761 103.102 18.1323 100.443 18.5415L25.1055 29.9424L25.1055 14.854L15.3193 14.854L15.3193 35.7144C15.3193 38.7822 17.8467 40.9678 20.9634 40.4946L37.2725 38.0313C38.7407 37.8023 39.8184 38.7334 39.8184 40.2168L39.8184 59.4624L32.0039 80.7959ZM16.5586 20.2202C22.1538 20.2202 28.5503 17.6104 32.2798 13.2109C33.3525 11.9766 33.3525 10.3936 32.2647 9.11035C28.5503 4.74121 22.1538 2.11621 16.5586 2.11621C10.9971 2.11621 4.58545 4.74121 0.85254 9.11035C-0.28418 10.3936-0.28418 11.9766 0.85254 13.2749C4.58545 17.6104 10.9971 20.2202 16.5586 20.2202Z" fill="#000000" fill-opacity="0.85"/>
 </g>
</svg>
