<?xml version="1.0" encoding="UTF-8"?>
<!--Generator: Apple Native CoreSVG 232.5-->
<!DOCTYPE svg
PUBLIC "-//W3C//DTD SVG 1.1//EN"
       "http://www.w3.org/Graphics/SVG/1.1/DTD/svg11.dtd">
<svg version="1.1" xmlns="http://www.w3.org/2000/svg" xmlns:xlink="http://www.w3.org/1999/xlink" width="124.253" height="108.827">
 <g>
  <rect height="108.827" opacity="0" width="124.253" x="0" y="0"/>
  <path d="M62.7461 20.7627C68.4878 20.7627 73.103 16.1323 73.103 10.3906C73.103 4.64893 68.4878 0 62.7461 0C57.0044 0 52.3403 4.64893 52.3403 10.3906C52.3403 16.1323 57.0044 20.7627 62.7461 20.7627ZM103.734 35.7295C106.393 35.7295 108.594 33.5928 108.594 30.8516C108.594 28.1777 106.393 26.0562 103.734 26.0562L52.731 26.0562C48.082 26.0562 44.0376 28.5195 41.9009 32.7441L20.3721 75.8355L8.22022 63.6533C6.32764 61.7608 3.22949 61.8096 1.38574 63.6533C-0.473145 65.561-0.439453 68.5952 1.38574 70.5029L18.5283 87.6944C20.5523 89.7149 23.7632 89.4068 25.4268 86.9922L39.4712 66.4736C40.2373 65.2832 41.9009 65.0879 42.9785 65.8877L60.2827 79.1475L60.2827 103.271C60.2827 105.945 62.4194 108.082 65.127 108.082C67.8194 108.082 69.9712 105.945 69.9712 103.271L69.9712 76.7178C69.9712 75.4448 69.4341 74.2207 68.5366 73.3233L51.7359 56.4771L60.7559 38.4033C61.6685 36.627 63.2193 35.7295 65.0293 35.7295ZM72.3521 57.4385L91.6802 57.4385C94.354 57.4385 96.4756 55.2041 96.4756 52.6431C96.4756 49.9356 94.354 47.75 91.6802 47.75L74.3423 47.75L66.6426 40.084L65.5127 40.084C65.0396 40.084 64.7315 40.2793 64.5025 40.7188L60.8335 47.9102L68.961 56.0191C69.9224 56.9468 71.1128 57.4385 72.3521 57.4385ZM100.047 47.1792C100.047 51.7944 105.511 55.5947 112.15 55.5947C118.838 55.5947 124.253 51.7944 124.253 47.1792C124.253 42.4815 118.838 38.73 112.15 38.73C105.511 38.73 100.047 42.4815 100.047 47.1792Z" fill="#000000" fill-opacity="0.85"/>
 </g>
</svg>
