<?xml version="1.0" encoding="UTF-8"?>
<!--Generator: Apple Native CoreSVG 232.5-->
<!DOCTYPE svg
PUBLIC "-//W3C//DTD SVG 1.1//EN"
       "http://www.w3.org/Graphics/SVG/1.1/DTD/svg11.dtd">
<svg version="1.1" xmlns="http://www.w3.org/2000/svg" xmlns:xlink="http://www.w3.org/1999/xlink" width="91.9184" height="90.1925">
 <g>
  <rect height="90.1925" opacity="0" width="91.9184" x="0" y="0"/>
  <path d="M18.6113 23.4371C24.3379 23.4371 28.9228 18.8521 28.9228 13.1255C28.9228 7.43267 24.3379 2.81402 18.6113 2.81402C12.8847 2.81402 8.29978 7.43267 8.29978 13.1255C8.29978 18.8521 12.8847 23.4371 18.6113 23.4371ZM0.128396 43.4756L2.88474 60.5172C3.94724 66.69 12.373 65.4473 11.3779 59.3233L8.93309 44.5381L18.6787 40.7413C20.2226 40.1402 21.5259 40.4112 22.1455 41.7969L31.0342 59.3941C33.6929 64.6778 35.8935 66.2774 38.0791 67.8433L66.7959 88.9293C71.7598 92.5714 77.6885 85.4 72.0898 81.2696L49.7798 64.8814C48.6265 64.0362 48.7392 62.5074 49.9902 61.8087L65.2031 53.0211L85.144 62.5294C90.7461 65.1729 95.2031 57.3819 88.6396 54.2618L67.4072 44.1373C64.8882 42.9434 62.4736 43.2886 60.3555 44.5279L50.3589 50.3672C49.022 51.1485 47.9849 50.8033 47.4663 49.7173L39.4414 33.3443C38.645 31.7364 38.8857 30.2227 40.5644 29.4229L47.8872 26.0806C50.3169 24.9542 51.2143 24.1544 51.8525 21.8677L56.4863 5.73882C58.1836-0.253857 50.1636-2.44282 48.4326 3.53472L43.8999 19.3975L3.31248 37.2388C0.601541 38.399-0.37844 40.4566 0.128396 43.4756Z" fill="#000000" fill-opacity="0.85"/>
 </g>
</svg>
