<?xml version="1.0" encoding="UTF-8"?>
<!--Generator: Apple Native CoreSVG 232.5-->
<!DOCTYPE svg
PUBLIC "-//W3C//DTD SVG 1.1//EN"
       "http://www.w3.org/Graphics/SVG/1.1/DTD/svg11.dtd">
<svg version="1.1" xmlns="http://www.w3.org/2000/svg" xmlns:xlink="http://www.w3.org/1999/xlink" width="79.5697" height="104.706">
 <g>
  <rect height="104.706" opacity="0" width="79.5697" x="0" y="0"/>
  <path d="M49.646 20.6231C55.3725 20.6231 59.9575 16.023 59.9575 10.3115C59.9575 4.58496 55.3725 0 49.646 0C43.9194 0 39.3344 4.58496 39.3344 10.3115C39.3344 16.023 43.9194 20.6231 49.646 20.6231ZM33.4614 62.0288L51.7993 72.3301L39.9355 82.5C37.5293 84.5459 37.457 87.2905 38.9892 89.0484C40.6157 90.855 43.3754 91.1128 45.8945 88.9693L62.3164 74.9922C64.5053 73.0996 64.1787 69.082 61.5014 67.3662L43.5996 55.5967L47.1523 43.2227C47.6557 41.3706 49.7705 41.1265 50.8598 42.7041L56.0947 50.3838C57.3188 52.1148 59.5229 52.8018 61.5317 51.8706L76.6167 45.1524C79.2299 43.9771 80.2251 41.7207 79.0986 39.3213C77.9384 36.9858 75.7006 36.2988 73.0722 37.459L61.0434 42.773L52.7778 31.3452C48.4741 25.4116 43.1416 23.0576 34.4599 23.6958L17.7451 24.8862C15.1318 25.0815 13.3369 26.7637 12.9765 29.4898L10.7421 46.4487C10.3178 49.355 11.7407 51.3486 14.3203 51.6265C16.9335 51.8706 18.6005 50.3838 18.9912 47.4624L21.0454 33.541L27.8393 33.0679C29.4589 32.9214 30.8818 34.0864 30.3598 35.915L26.4619 49.562C24.1938 57.5264 29.353 59.6817 33.4614 62.0288ZM1.59761 103.172C3.41938 104.686 6.08149 104.745 8.39009 102.519L23.8169 87.2383C25.1049 85.9351 25.3828 85.6572 26.1826 83.667L32.7929 66.646L31.3027 65.8277C27.6523 63.8408 25.1098 61.8506 23.4731 59.6836L17.7231 80.104L1.7104 96.083C-0.710988 98.4253-0.389209 101.429 1.59761 103.172Z" fill="#000000" fill-opacity="0.85"/>
 </g>
</svg>
