<?xml version="1.0" encoding="UTF-8"?>
<!--Generator: Apple Native CoreSVG 232.5-->
<!DOCTYPE svg
PUBLIC "-//W3C//DTD SVG 1.1//EN"
       "http://www.w3.org/Graphics/SVG/1.1/DTD/svg11.dtd">
<svg version="1.1" xmlns="http://www.w3.org/2000/svg" xmlns:xlink="http://www.w3.org/1999/xlink" width="108.072" height="104.144">
 <g>
  <rect height="104.144" opacity="0" width="108.072" x="0" y="0"/>
  <path d="M60.0874 20.7627C65.7803 20.7627 70.4444 16.0649 70.4444 10.3721C70.4444 4.66406 65.7803 0 60.0874 0C54.3794 0 49.6817 4.66406 49.6817 10.3721C49.6817 16.0649 54.3794 20.7627 60.0874 20.7627ZM73.4903 103.066C75.5142 102.236 77.0498 100.163 76.25 97.2905L69.0737 72.2544C68.6983 71.064 68.0147 70.1177 66.8882 69.4492L51.9312 60.6734L59.0435 39.5352C59.5654 37.9053 61.2778 37.7402 62.4683 38.9155L73.0694 49.4678C74.0005 50.3501 75.1421 50.8721 76.3814 50.8721C77.6543 50.8721 78.8599 50.4629 79.8062 49.4678L94.1099 35.1152C95.9199 33.2378 96.0362 30.3198 94.1099 28.4121C92.251 26.5532 89.2656 26.5044 87.3579 28.4121L76.3814 39.3887L67.2149 29.8955C62.9902 25.5093 58.4878 24.627 49.6817 24.627L4.79541 24.627C2.18555 24.627 0 26.7485 0 29.4224C0 32.0171 2.18555 34.169 4.79541 34.169L38.1494 34.169C39.5352 34.169 40.8081 35.3106 40.1397 37.2183L34.5933 53.8574C32.6367 59.7608 35.3931 66.0884 41.1011 68.5669L60.4292 77.0498L67.0835 99.7691C68.0449 103.16 71.1245 103.96 73.4903 103.066ZM12.896 101.523C14.1655 103.288 16.5498 104.159 19.148 102.754L40.4663 90.9292C41.5103 90.3584 42.2915 89.4121 42.7007 88.1729L46.8545 75.8579L39.3667 72.6099C38.4541 72.1856 37.5752 71.7007 36.7266 71.145L34.0562 83.5088L14.5479 94.4365C11.438 96.228 11.3857 99.4844 12.896 101.523ZM78.7622 60.7232L108.072 60.7232L108.072 56.2871L78.7622 56.2871C77.521 56.2871 76.561 57.2622 76.561 58.4883C76.561 59.7144 77.521 60.7232 78.7622 60.7232ZM6.90478 26.8189L11.0039 26.8189L11.0039 20.1309L6.90478 20.1309ZM8.97119 1.67871C3.98047 1.67871 0 5.65918 0 10.6836C0 15.2651 3.98047 20.729 8.97119 21.8706C13.9619 20.729 17.9087 15.2651 17.9087 10.6836C17.9087 5.65918 13.9619 1.67871 8.97119 1.67871Z" fill="#000000" fill-opacity="0.85"/>
 </g>
</svg>
