<?xml version="1.0" encoding="UTF-8"?>
<!--Generator: Apple Native CoreSVG 232.5-->
<!DOCTYPE svg
PUBLIC "-//W3C//DTD SVG 1.1//EN"
       "http://www.w3.org/Graphics/SVG/1.1/DTD/svg11.dtd">
<svg version="1.1" xmlns="http://www.w3.org/2000/svg" xmlns:xlink="http://www.w3.org/1999/xlink" width="97.9595" height="97.9932">
 <g>
  <rect height="97.9932" opacity="0" width="97.9595" x="0" y="0"/>
  <path d="M97.9595 48.9722C97.9595 75.7759 75.8247 97.9443 48.9722 97.9443C22.1685 97.9443 0 75.7759 0 48.9722C0 22.1348 22.1348 0 48.9385 0C75.791 0 97.9595 22.1348 97.9595 48.9722ZM48.9722 35.3745C47.4937 35.3745 46.1465 35.1084 44.8667 34.5308C42.7134 34.7749 40.7739 35.2783 38.7114 36.041L30.1934 39.6089C28.2251 40.4053 27.6357 42.0503 28.1392 43.3721C28.5601 44.7461 30.0283 45.7295 32.022 44.896L40.1626 41.6128C40.9507 41.3013 41.6226 41.7105 41.6226 42.5288C41.6226 45.8755 41.769 51.9507 41.3784 54.3989C40.8076 57.7715 36.77 72.915 36.5259 74.4858C36.0039 78.0825 41.3399 79.4531 42.335 75.5064L47.0225 57.6436C47.3154 56.5391 48.0444 55.9868 48.9722 55.9868C49.8999 55.9868 50.6289 56.5391 50.937 57.6436L55.6094 75.5064C56.6045 79.4531 61.9404 78.0825 61.4185 74.4858C61.1743 72.915 57.1519 57.7715 56.5996 54.3989C56.1753 51.9507 56.3555 45.8755 56.3555 42.5288C56.3555 41.7105 56.9937 41.3013 57.7817 41.6128L65.9561 44.896C67.9497 45.7295 69.418 44.7461 69.854 43.3721C70.3086 42.0503 69.7529 40.4053 67.751 39.6089L59.2329 36.041C57.1704 35.2783 55.231 34.7749 53.0928 34.5308C51.8467 35.1084 50.4507 35.3745 48.9722 35.3745ZM42.1816 25.312C42.1816 29.0415 45.2764 32.1025 49.0059 32.1025C52.7993 32.1025 55.8115 29.0415 55.8115 25.312C55.8115 21.4697 52.7993 18.4238 49.0059 18.4238C45.2764 18.4238 42.1816 21.4697 42.1816 25.312Z" fill="#000000" fill-opacity="0.85"/>
 </g>
</svg>
