<?xml version="1.0" encoding="UTF-8"?>
<!--Generator: Apple Native CoreSVG 232.5-->
<!DOCTYPE svg
PUBLIC "-//W3C//DTD SVG 1.1//EN"
       "http://www.w3.org/Graphics/SVG/1.1/DTD/svg11.dtd">
<svg version="1.1" xmlns="http://www.w3.org/2000/svg" xmlns:xlink="http://www.w3.org/1999/xlink" width="101.742" height="87.2549">
 <g>
  <rect height="87.2549" opacity="0" width="101.742" x="0" y="0"/>
  <path d="M51.1301 20.7627C56.823 20.7627 61.487 16.0986 61.487 10.3232C61.487 4.63037 56.823 0 51.1301 0C45.3547 0 40.7243 4.63037 40.7243 10.3232C40.7243 16.0986 45.3547 20.7627 51.1301 20.7627ZM6.93087 64.96L30.7917 66.9653C35.0652 67.356 35.9475 67.6338 40.0407 68.7603L69.1062 76.9317L95.2502 86.4888C97.5183 87.2886 100.601 86.4888 101.514 83.586C102.265 81.0737 101.123 78.3174 98.6111 77.4048L72.531 67.9116C72.1067 67.7651 71.258 67.4385 70.9162 67.292L50.6418 59.9692C53.3342 54.7983 57.0031 46.4805 57.9494 37.4605C58.0622 36.4165 58.7156 35.8945 59.6618 35.8945L94.5329 35.8945C97.2405 35.8945 99.3284 33.709 99.3284 31.0503C99.3284 28.3428 97.2405 26.2061 94.5329 26.2061L56.2859 26.2061C49.8908 26.2061 49.3049 26.1724 42.3239 24.2647L6.16476 14.2344C3.57003 13.5322 0.94503 15.0493 0.178917 17.6104C-0.523232 20.2051 0.993858 22.8789 3.57003 23.5962L37.2995 32.9092C38.133 33.1231 38.7038 33.8066 38.6213 34.8018C37.5285 43.3149 33.3864 51.5352 31.2009 55.2715L12.1506 55.2715L12.1506 35.8945C12.1506 33.2358 9.88253 31.0503 7.27267 31.0503C4.61398 31.0503 2.42843 33.2358 2.42843 35.8945L2.42843 60.0669C2.42843 62.9209 3.70138 64.6484 6.93087 64.96Z" fill="#000000" fill-opacity="0.85"/>
 </g>
</svg>
