<?xml version="1.0" encoding="UTF-8"?>
<!--Generator: Apple Native CoreSVG 232.5-->
<!DOCTYPE svg
PUBLIC "-//W3C//DTD SVG 1.1//EN"
       "http://www.w3.org/Graphics/SVG/1.1/DTD/svg11.dtd">
<svg version="1.1" xmlns="http://www.w3.org/2000/svg" xmlns:xlink="http://www.w3.org/1999/xlink" width="130.922" height="101.921">
 <g>
  <rect height="101.921" opacity="0" width="130.922" x="0" y="0"/>
  <path d="M49.0772 14.5815C53.1065 14.5815 56.3359 11.4009 56.3359 7.32276C56.3359 3.29346 53.1065 0 49.0772 0C45.0327 0 41.7695 3.29346 41.7695 7.32276C41.7695 11.4009 45.0327 14.5815 49.0772 14.5815ZM4.79541 79.3179L30.7778 79.3179C32.2124 79.3179 32.8169 79.2017 33.876 78.9575L60.291 72.5659C60.6548 72.4683 60.9849 72.7984 60.9512 73.1773L59.2051 87.6358L48.8818 80.2793C46.7114 78.7134 43.6621 79.2354 42.1299 81.4209C40.5303 83.5913 40.9883 86.6255 43.189 88.2066L59.0923 99.4121C62.6148 101.891 66.8882 101.091 67.8008 97.4707L80.8989 44.8862C81.0943 44.2666 81.7139 43.8911 82.3335 44.0376L125.166 52.5357C128.835 53.2866 130.922 50.5454 130.922 47.8228C130.922 45.75 129.732 43.5982 127.058 43.0762L84.8306 34.5933C72.3032 32.1148 64.5073 30.9243 55.585 30.9243L43.6621 30.9243L43.6621 18.7573C43.6621 16.0161 41.4614 13.9131 38.8179 13.9131C36.0767 13.9131 33.9248 16.0161 33.9248 18.7573L33.9248 35.7197C33.9248 38.3784 36.0767 40.5791 38.8179 40.5791L58.8482 40.5791C59.7608 40.5791 60.3955 41.3638 60.1514 42.2427L56.2534 57.2485C55.6489 59.6631 53.9702 61.5068 51.5894 62.3706L30.6953 69.6445L4.79541 69.6445C2.10303 69.6445 0 71.8301 0 74.5225C0 77.2451 2.10303 79.3179 4.79541 79.3179ZM76.228 27.6768C81.9058 27.6768 86.5698 23.0127 86.5698 17.2373C86.5698 11.5444 81.9058 6.91407 76.228 6.91407C70.4527 6.91407 65.8223 11.5444 65.8223 17.2373C65.8223 23.0127 70.4527 27.6768 76.228 27.6768Z" fill="#000000" fill-opacity="0.85"/>
 </g>
</svg>
