<?xml version="1.0" encoding="UTF-8"?>
<!--Generator: Apple Native CoreSVG 232.5-->
<!DOCTYPE svg
PUBLIC "-//W3C//DTD SVG 1.1//EN"
       "http://www.w3.org/Graphics/SVG/1.1/DTD/svg11.dtd">
<svg version="1.1" xmlns="http://www.w3.org/2000/svg" xmlns:xlink="http://www.w3.org/1999/xlink" width="114.868" height="109.62">
 <g>
  <rect height="109.62" opacity="0" width="114.868" x="0" y="0"/>
  <path d="M81.8604 32.7591L81.8604 44.2566C87.3811 44.8653 90.5532 48.6896 90.5532 55.078L90.5532 89.9466C90.5532 96.9652 86.7446 100.902 80.2212 100.902L51.0126 100.902C51.0438 100.001 50.9394 99.035 50.6895 98.0135L50.0035 95.1785L80.1436 95.1785C82.773 95.1785 84.478 93.3152 84.478 90.3475L84.478 54.6771C84.478 51.6942 82.773 49.8646 80.1436 49.8646L46.5774 49.8646L42.5659 48.1942C43.2952 46.9562 43.8273 45.6012 44.113 44.1566L75.8374 44.1566L75.8374 32.1424C75.8374 19.3802 67.7305 11.887 57.4341 11.887C47.4929 11.887 39.6229 18.8312 39.0714 30.7504C37.439 29.4554 35.4952 28.5371 33.3639 28.1091C35.1703 13.8829 45.4288 6.17901 57.4341 6.17901C70.6812 6.17901 81.8604 15.5804 81.8604 32.7591Z" fill="#000000" fill-opacity="0.85"/>
  <path d="M30.605 49.6795C35.1611 49.6795 38.707 46.0999 38.707 41.6414C38.707 37.1375 35.1611 33.5242 30.605 33.5242C26.2105 33.5242 22.5181 37.1375 22.5181 41.6414C22.5181 46.0999 26.2105 49.6795 30.605 49.6795ZM30.5713 78.0423C31.6607 78.0423 32.585 78.6922 32.9082 79.9886L38.4712 101.192C39.6919 105.819 45.9707 104.204 45.3511 99.9725C45.0093 98.0784 40.2915 80.1165 39.6079 76.1126C39.1348 73.2738 39.3335 66.0452 39.3335 62.0252C39.3335 61.1429 40.1182 60.5535 41.0191 60.9476L50.648 64.8436C53.0811 65.8387 54.7935 64.6937 55.3272 63.1092C55.8945 61.5096 55.2075 59.5413 52.8335 58.5833L42.7935 54.4329C40.3252 53.4261 38.0171 52.8924 35.4766 52.5657C33.9527 53.2259 32.3277 53.6082 30.5713 53.6082C28.815 53.6082 27.2388 53.2259 25.7149 52.5657C23.1743 52.8924 20.8325 53.4261 18.398 54.4329L8.32423 58.5833C5.9839 59.5413 5.29689 61.5096 5.86427 63.1092C6.36427 64.6937 8.11036 65.8387 10.5435 64.8436L20.1724 60.9476C21.0733 60.5535 21.8579 61.1429 21.8579 62.0252C21.8579 66.0452 22.0567 73.2738 21.5835 76.1126C20.8999 80.1165 16.1821 98.0784 15.8403 99.9725C15.187 104.204 21.4995 105.819 22.7051 101.192L28.2495 79.9886C28.6065 78.6922 29.4819 78.0423 30.5713 78.0423Z" fill="#000000" fill-opacity="0.85"/>
 </g>
</svg>
