<?xml version="1.0" encoding="UTF-8"?>
<!--Generator: Apple Native CoreSVG 232.5-->
<!DOCTYPE svg
PUBLIC "-//W3C//DTD SVG 1.1//EN"
       "http://www.w3.org/Graphics/SVG/1.1/DTD/svg11.dtd">
<svg version="1.1" xmlns="http://www.w3.org/2000/svg" xmlns:xlink="http://www.w3.org/1999/xlink" width="102.335" height="85.2852">
 <g>
  <rect height="85.2852" opacity="0" width="102.335" x="0" y="0"/>
  <path d="M78.4228 20.7627C84.1645 20.7627 88.8286 16.1475 88.8286 10.4058C88.8286 4.66406 84.1645 0 78.4228 0C72.6811 0 68.0659 4.66406 68.0659 10.4058C68.0659 16.1475 72.6811 20.7627 78.4228 20.7627ZM45.5234 84.6504C48.3622 84.6504 50.5478 82.3335 50.5478 79.562L50.5478 57.4439C50.5478 55.3408 49.6015 53.8726 48.3622 52.6333L33.683 37.9053L51.4453 33.4028C52.3427 33.1738 53.1088 33.812 53.1088 34.7246L53.1088 44.1841C53.1088 45.521 53.6157 46.794 54.5771 47.7554L69.6958 62.9414C71.686 64.898 74.9155 64.898 76.9057 62.9414C78.8471 61 78.8959 57.7217 76.9057 55.7651L63.1879 42.1299L63.1879 32.5391L70.7734 41.1836C71.7685 42.2764 73.1542 42.9448 74.5888 42.9448L97.3266 42.9448C100.132 42.9448 102.332 40.7105 102.332 37.8716C102.332 35.0513 100.132 32.8657 97.3266 32.8657L76.9057 32.8657L64.7875 18.9038C61.0361 14.5967 55.2456 12.8691 49.684 14.2397L23.7993 20.7627C13.6376 23.3237 11.8764 35.915 19.9501 42.4717L40.4687 59.2051L40.4687 79.562C40.4687 82.3335 42.7031 84.6504 45.5234 84.6504ZM1.48577 83.167C3.42718 85.1236 6.7055 85.1236 8.69574 83.167L26.3603 65.5025C27.2729 64.5562 27.5507 63.7075 27.8286 62.1904L29.0004 55.523L17.7158 46.3413L17.7158 59.8096L1.48577 75.9907C-0.519597 77.9473-0.470769 81.2105 1.48577 83.167Z" fill="#000000" fill-opacity="0.85"/>
 </g>
</svg>
