<?xml version="1.0" encoding="UTF-8"?>
<!--Generator: Apple Native CoreSVG 232.5-->
<!DOCTYPE svg
PUBLIC "-//W3C//DTD SVG 1.1//EN"
       "http://www.w3.org/Graphics/SVG/1.1/DTD/svg11.dtd">
<svg version="1.1" xmlns="http://www.w3.org/2000/svg" xmlns:xlink="http://www.w3.org/1999/xlink" width="111.363" height="134.527">
 <g>
  <rect height="134.527" opacity="0" width="111.363" x="0" y="0"/>
  <path d="M88.8284 44.8163C95.907 44.8163 101.66 38.8793 101.66 31.9808C101.66 24.8046 95.907 18.9838 88.8284 18.9838C81.6184 18.9838 75.9256 24.8046 75.9256 31.9808C75.9256 39.2562 81.6184 44.8163 88.8284 44.8163ZM12.0095 112.888C14.5032 115.495 18.7429 115.254 21.7771 112.107L42.2737 90.9569C42.9573 90.2396 43.4456 90.0443 44.5081 90.4686L60.8958 96.6849C71.1399 100.601 80.6619 96.8168 85.3426 88.2821L95.2991 70.1825C99.3098 62.8934 98.0252 55.3602 91.0628 51.6576C84.3596 47.9735 77.3484 50.745 73.2888 58.2294L59.95 82.5902L48.5828 78.433C42.927 76.3637 38.2444 77.0321 33.7605 81.6962L12.449 103.725C9.49733 106.789 9.77516 110.59 12.0095 112.888Z" fill="#000000" fill-opacity="0.85"/>
  <path d="M0.794179 29.4012C1.87719 30.4994 3.6726 30.4994 4.78589 29.4012L18.3987 15.7396L23.9851 21.3412C25.9236 23.2797 28.8372 22.0941 28.9988 19.2782L30.2546 3.21618C30.3523 1.2694 29.0876-0.119765 27.0466 0.00816418L10.9509 1.24547C8.25463 1.42564 6.91576 4.20446 8.92162 6.24401L14.4895 11.8304L0.827871 25.4584C-0.270276 26.5565-0.270276 28.3217 0.794179 29.4012ZM16.845 37.6488C16.845 39.2304 18.0745 40.4935 19.656 40.4935L38.9934 40.4935L38.9934 48.3529C38.9934 51.12 41.8699 52.3309 43.9885 50.475L56.1809 39.9711C57.6931 38.5868 57.6477 36.7665 56.1809 35.4462L43.9885 24.9423C41.9373 23.1537 38.9934 24.1776 38.9934 27.0643L38.9934 34.9051L19.656 34.9051C18.0745 34.9051 16.845 36.1195 16.845 37.6488ZM0.794179 45.9301C-0.270276 46.9945-0.270276 48.7411 0.827871 49.8729L14.4895 63.5009L8.92162 69.0873C6.91576 71.1268 8.25463 73.8905 10.9509 74.0858L27.0466 75.2895C29.0876 75.4511 30.3523 74.0619 30.2546 72.1151L28.9988 56.0531C28.8372 53.2372 25.9236 52.0516 23.9851 53.9901L18.3987 59.5765L4.78589 45.9301C3.6726 44.8319 1.87719 44.8319 0.794179 45.9301Z" fill="#000000" fill-opacity="0.85"/>
 </g>
</svg>
