<?xml version="1.0" encoding="UTF-8"?>
<!--Generator: Apple Native CoreSVG 232.5-->
<!DOCTYPE svg
PUBLIC "-//W3C//DTD SVG 1.1//EN"
       "http://www.w3.org/Graphics/SVG/1.1/DTD/svg11.dtd">
<svg version="1.1" xmlns="http://www.w3.org/2000/svg" xmlns:xlink="http://www.w3.org/1999/xlink" width="97.9595" height="97.9932">
 <g>
  <rect height="97.9932" opacity="0" width="97.9595" x="0" y="0"/>
  <path d="M97.9595 48.9722C97.9595 75.7759 75.8247 97.9443 48.9722 97.9443C22.1685 97.9443 0 75.7759 0 48.9722C0 22.1348 22.1348 0 48.9385 0C75.791 0 97.9595 22.1348 97.9595 48.9722ZM52.562 21.2388L49.501 31.6948L45.1738 33.5132C40.6748 35.335 34.3203 38.061 26.1104 41.9522L22.6401 43.6309C20.8232 44.4981 20.0874 45.7441 20.3652 47.4785L22.3857 59.1284C23.0239 63.2085 28.5303 62.3193 27.9258 58.2427L26.397 48.5898L33.5796 45.6704C34.2261 45.4751 34.6436 45.6367 34.8691 46.1704L40.9155 58.3169C42.7407 61.8394 44.2578 62.9356 45.6587 64.0098L64.7222 77.8941C68.0781 80.3491 71.9072 75.6611 68.1978 72.8643L53.6065 61.6758C52.9937 61.2246 52.9937 60.4014 53.689 60.0293L63.6582 54.1919L76.9126 60.479C80.5464 62.2134 83.6582 56.6919 79.2061 54.6274L65.0811 48.1602C63.4141 47.394 61.9087 47.4277 60.3579 48.374L53.5405 52.4756C52.8906 52.8628 52.229 52.686 51.936 52.0581L46.0918 40.1675C45.8511 39.6221 46.0127 39.272 46.5581 38.9824L51.5571 36.6421C52.8452 36.0376 54.2681 35.5796 54.647 34.1685L57.9707 22.8115C59.1494 18.7988 53.6919 17.2749 52.562 21.2388ZM26.5479 28.1304C26.5479 31.8062 29.5215 34.7798 33.1636 34.7798C36.8579 34.7798 39.9141 31.7573 39.9141 28.1304C39.9141 24.3535 36.8916 21.3159 33.1636 21.3159C29.4878 21.3159 26.5479 24.3535 26.5479 28.1304Z" fill="#000000" fill-opacity="0.85"/>
 </g>
</svg>
