<?xml version="1.0" encoding="UTF-8"?>
<!--Generator: Apple Native CoreSVG 232.5-->
<!DOCTYPE svg
PUBLIC "-//W3C//DTD SVG 1.1//EN"
       "http://www.w3.org/Graphics/SVG/1.1/DTD/svg11.dtd">
<svg version="1.1" xmlns="http://www.w3.org/2000/svg" xmlns:xlink="http://www.w3.org/1999/xlink" width="88.5152" height="84.417">
 <g>
  <rect height="84.417" opacity="0" width="88.5152" x="0" y="0"/>
  <path d="M28.8858 20.7627C34.6914 20.7627 39.2915 16.1138 39.2915 10.3569C39.2915 4.61524 34.6914 0 28.8858 0C23.1441 0 18.544 4.61524 18.544 10.3569C18.544 16.1138 23.1441 20.7627 28.8858 20.7627ZM3.76709 57.1607C1.6792 65.0054 6.66993 69.9961 12.772 69.9961C14.7285 69.9961 16.7676 69.5078 18.7578 68.4151L44.5752 54.6973L73.1187 69.001C76.5923 70.7134 79.3823 69.3276 80.46 67.0933C81.5342 64.9077 80.8657 61.9072 77.5235 60.2437L47.6582 45.2529C45.7017 44.2578 43.5801 44.1602 41.5259 45.0576L22.2466 53.4243L26.1294 39.8379C26.8316 37.5059 28.9834 35.7935 31.4619 35.7935L69.8892 35.7935C72.5967 35.7935 74.7671 33.6079 74.7671 30.9004C74.7671 28.2266 72.5967 26.0073 69.8892 26.0073L27.8906 26.0073C18.3975 26.0073 10.6504 31.4863 8.46485 39.6914ZM2.23487 84.3496L86.2803 84.3496C87.5215 84.3496 88.5152 83.3897 88.5152 82.1636C88.5152 80.9224 87.5215 79.9287 86.2803 79.9287L2.23487 79.9287C0.959963 79.9287 0 80.9224 0 82.1636C0 83.3897 0.959963 84.3496 2.23487 84.3496Z" fill="#000000" fill-opacity="0.85"/>
 </g>
</svg>
