<?xml version="1.0" encoding="UTF-8"?>
<!--Generator: Apple Native CoreSVG 232.5-->
<!DOCTYPE svg
PUBLIC "-//W3C//DTD SVG 1.1//EN"
       "http://www.w3.org/Graphics/SVG/1.1/DTD/svg11.dtd">
<svg version="1.1" xmlns="http://www.w3.org/2000/svg" xmlns:xlink="http://www.w3.org/1999/xlink" width="117.267" height="106.309">
 <g>
  <rect height="106.309" opacity="0" width="117.267" x="0" y="0"/>
  <path d="M32.1156 21.5845C37.5458 21.5845 41.9657 17.1343 41.9657 11.7344C41.9657 6.3042 37.5458 1.91797 32.1156 1.91797C26.6703 1.91797 22.2992 6.3042 22.2992 11.7344C22.2992 17.1343 26.6703 21.5845 32.1156 21.5845ZM89.1137 19.6665C94.5439 19.6665 98.9638 15.2314 98.9638 9.81641C98.9638 4.41992 94.5439 0 89.1137 0C83.6684 0 79.2973 4.41992 79.2973 9.81641C79.2973 15.2314 83.6684 19.6665 89.1137 19.6665ZM4.58097 33.9414L14.475 34.7412C15.2646 34.79 15.7377 35.2632 15.7377 36.1353L15.7377 54.231C15.7377 57.8696 16.9281 61.4409 19.1625 64.2461L30.8901 79.3496L24.9042 99.2486C24.1044 101.874 25.6215 104.664 28.1337 105.381C30.6459 106.083 33.4023 104.893 34.266 102.039L40.9692 79.6763C41.1005 79.2671 41.1645 78.9102 41.1645 78.501L59.3022 101.434C60.9506 103.537 64.0976 103.946 66.0878 102.298C68.2397 100.488 68.6303 97.521 66.9516 95.3994L34.559 54.4263L36.0273 39.8784C36.1738 38.8345 37.1049 38.2974 38.0175 38.7368L49.2719 44.3809C50.0532 44.79 51.4086 45.0982 52.5014 45.0982L69.8393 45.0982C70.9809 45.0982 72.1713 44.6738 72.9863 43.9566L81.1913 36.9268C82.0214 36.2095 83.0165 36.5664 83.3769 37.4976L88.0073 50.3179L68.5512 55.6353C66.6098 56.1572 65.0927 57.8696 64.8974 59.9238L62.727 82.3013C62.4189 85.482 65.2392 87.6338 67.6049 87.6338C70.0834 87.6338 72.2201 85.8086 72.4643 83.2476L74.308 64.6065L87.9433 62.5337L81.4355 75.647C80.7182 77.0664 80.3427 78.6323 80.9135 80.1006L89.8847 102.478C90.9623 105.186 93.9443 106.132 96.2612 105.186C98.7245 104.19 99.9638 101.321 98.9687 98.8394L90.9926 78.9102L102.003 63.251C104.793 59.3379 105.818 54.3135 104.955 49.6157L103.242 40.2051C103.013 38.9321 104.008 38.1172 105.199 38.4927L110.843 40.4004C114.692 41.7222 117.595 39.3565 117.238 35.4922L114.97 12.9009C114.71 9.94434 112.198 8.18799 109.667 8.45068C107.088 8.69824 104.973 10.9429 105.232 13.896L106.749 28.8042L93.2758 24.2866C87.7631 22.4277 81.9086 23.4531 77.3574 27.3696L68.0781 35.376L53.0722 35.376L38.5883 28.1509C36.4179 27.0093 34.266 26.4385 31.8364 26.2432L11.5468 24.7261L16.2597 10.5352C17.1571 7.91016 15.7377 5.15381 13.2255 4.29004C10.6645 3.44141 7.87443 4.81201 7.04435 7.38818L0.258707 27.4824C-0.73641 30.5166 1.40031 33.6973 4.58097 33.9414Z" fill="#000000" fill-opacity="0.85"/>
 </g>
</svg>
