<?xml version="1.0" encoding="UTF-8"?>
<!--Generator: Apple Native CoreSVG 232.5-->
<!DOCTYPE svg
PUBLIC "-//W3C//DTD SVG 1.1//EN"
       "http://www.w3.org/Graphics/SVG/1.1/DTD/svg11.dtd">
<svg version="1.1" xmlns="http://www.w3.org/2000/svg" xmlns:xlink="http://www.w3.org/1999/xlink" width="70.1218" height="120.91">
 <g>
  <rect height="120.91" opacity="0" width="70.1218" x="0" y="0"/>
  <path d="M39.1954 20.7627C44.8883 20.7627 49.5187 16.0986 49.5187 10.3232C49.5187 4.63037 44.8883 0 39.1954 0C33.42 0 28.756 4.63037 28.756 10.3232C28.756 16.0986 33.42 20.7627 39.1954 20.7627ZM50.2882 48.8848C52.2447 50.9238 56.0114 50.7925 57.7238 48.085L69.256 29.5566C72.8121 23.8638 64.4757 19.2974 61.1974 24.5322L52.8307 38.0059L46.2589 31.4155C39.9615 25.1519 33.0631 23.8638 23.4874 24.9565L6.5587 26.8491C4.37316 27.1084 2.67589 28.8394 2.41661 30.9424L0.0508891 49.6021C-0.715224 55.5879 8.58263 57.169 9.41271 50.7437L11.3053 35.8203L20.1451 34.8403C21.3844 34.7275 22.2482 35.5425 22.0528 36.9282L19.8185 55.2124C18.7257 63.8418 23.7013 68.8477 32.2633 68.228L49.7325 66.9888L44.5128 86.0391C42.7516 92.4492 52.0309 94.6836 53.6793 88.4688L60.5626 63.106C61.4113 59.8765 59.2408 57.105 55.6207 57.105L37.5807 57.105L39.8487 41.5435C40.0778 39.9961 41.4635 39.9624 42.3424 40.9087ZM24.5314 71.6211L23.3746 88.7466L14.4523 111.075C12.8863 115.056 15.7252 117.842 18.6769 117.842C20.5358 117.842 22.3795 116.817 23.3258 114.451L32.4283 91.5518C32.5411 91.21 32.6725 90.8345 32.7364 90.4927L35.4254 72.436L32.5748 72.6314C29.5895 72.8267 26.8483 72.436 24.5314 71.6211Z" fill="#000000" fill-opacity="0.85"/>
 </g>
</svg>
