<?xml version="1.0" encoding="UTF-8"?>
<!--Generator: Apple Native CoreSVG 232.5-->
<!DOCTYPE svg
PUBLIC "-//W3C//DTD SVG 1.1//EN"
       "http://www.w3.org/Graphics/SVG/1.1/DTD/svg11.dtd">
<svg version="1.1" xmlns="http://www.w3.org/2000/svg" xmlns:xlink="http://www.w3.org/1999/xlink" width="91.8174" height="106.966">
 <g>
  <rect height="106.966" opacity="0" width="91.8174" x="0" y="0"/>
  <path d="M0 101.629C0 103.482 1.50733 104.94 3.31104 104.94C5.14845 104.94 6.65577 103.482 6.65577 101.629L6.65577 3.31104C6.65577 1.47364 5.14845 0 3.31104 0C1.50733 0 0 1.47364 0 3.31104Z" fill="#000000" fill-opacity="0.85"/>
  <path d="M83.9776 102.702L69.6773 85.6607C68.273 83.982 68.0625 83.6216 67.5069 81.8452L66.3418 78.2222L73.8853 68.7676L76.2593 79.833L90.4131 96.6118C94.8213 101.902 87.6045 107.062 83.9776 102.702ZM48.9771 101.298C46.1045 107.144 37.4346 103.536 40.585 97.1675L50.3189 77.501C51.0396 76.0479 52.0986 74.4634 53.0264 73.1299L59.189 64.376L58.7495 63.0425C57.1162 58.1006 56.4663 55.1489 56.1397 50.271L55.1782 36.5078C54.7051 29.9395 58.5996 25.1035 65.148 25.1035C70.1572 25.1035 73.5181 27.6157 78.1333 32.1333L85.4224 39.3399C87.7276 41.6113 88.5391 43.4736 88.7832 46.5869L89.6807 57.8379C89.8946 60.6616 88.374 62.6065 85.7608 62.689C83.1323 62.8843 81.563 61.3638 81.3189 58.3599L80.2749 45.9859L76.7222 42.8237C75.4527 41.667 73.6529 42.4028 73.7656 43.7969L74.5318 54.2178C74.9409 59.5015 73.732 61.9834 70.0781 66.5161L60.4571 78.6006C59.4468 79.8399 59.3491 80.3281 58.94 81.0943ZM32.5181 43.6924L43.5215 43.6924L50.7261 35.7251L51.4956 47.0083L48.4063 50.1128C46.8892 51.6299 45.5488 52.103 42.7588 52.103L32.5181 52.103C29.6607 52.103 27.832 50.4883 27.832 47.8901C27.832 45.3594 29.6943 43.6924 32.5181 43.6924ZM59.94 20.7241C54.2134 20.7241 49.6284 16.1055 49.6284 10.4126C49.6284 4.68604 54.2134 0.101075 59.94 0.101075C65.6665 0.101075 70.2515 4.68604 70.2515 10.4126C70.2515 16.1055 65.6665 20.7241 59.94 20.7241Z" fill="#000000" fill-opacity="0.85"/>
 </g>
</svg>
