<?xml version="1.0" encoding="UTF-8"?>
<!--Generator: Apple Native CoreSVG 232.5-->
<!DOCTYPE svg
PUBLIC "-//W3C//DTD SVG 1.1//EN"
       "http://www.w3.org/Graphics/SVG/1.1/DTD/svg11.dtd">
<svg version="1.1" xmlns="http://www.w3.org/2000/svg" xmlns:xlink="http://www.w3.org/1999/xlink" width="78.6123" height="114.938">
 <g>
  <rect height="114.938" opacity="0" width="78.6123" x="0" y="0"/>
  <path d="M38.0029 22.5386C43.6958 22.5386 48.3599 17.9082 48.3599 12.0991C48.3599 6.43995 43.6958 1.77589 38.0029 1.77589C32.2275 1.77589 27.5972 6.43995 27.5972 12.0991C27.5972 17.9082 32.2275 22.5386 38.0029 22.5386ZM4.85938 113.898C6.93213 114.991 9.98145 114.552 11.4009 112.006L23.3726 90.4282L30.4966 74.4341C30.6128 74.1529 31.0103 74.0366 31.273 74.2691L50.3501 88.1114L50.3501 109.64C50.3501 112.317 52.502 114.469 55.1455 114.469C57.853 114.469 59.9561 112.317 59.9561 109.64L59.9561 85.9746C59.9561 84.604 59.5654 83.1695 58.4878 82.1743L38.6714 63.4507L40.5303 48.3809C40.5791 47.8252 41.3301 47.7764 41.5103 48.2495L45.9302 58.7378C46.7114 60.5967 48.4087 61.6895 50.3501 61.6895L70.7222 61.6895C73.3809 61.6895 75.5327 59.5679 75.5327 56.9092C75.5327 54.2354 73.3809 52.1138 70.7222 52.1138L53.4971 52.1138L46.6475 35.9849C44.8525 31.8242 42.1787 29.4736 36.1104 27.7949L33.354 27.0137C26.7485 25.1397 22.2461 24.9072 16.9136 27.209L9.60596 30.3408L9.60596 12.5298C9.60596 9.91993 7.42041 7.78321 4.79541 7.78321C2.15186 7.78321 0 9.91993 0 12.5298L0 38.2193C0 41.6441 3.55615 43.5029 6.70313 42.1172L20.2896 36.1802C20.894 35.936 21.4497 36.3267 21.3672 36.98L14.5479 86.5943L2.95166 107.376C1.7124 109.64 2.51221 112.708 4.85938 113.898ZM67.9165 44.564L72.3526 44.564L72.3526 2.20118C72.3526 0.975099 71.3438 0 70.1177 0C68.8765 0 67.9165 0.975099 67.9165 2.20118ZM63.3945 47.7442L76.8257 47.7442C78.4068 47.7442 78.8936 46.4224 78.4321 45.124C77.1812 41.4165 73.918 38.938 70.1177 38.938C66.3023 38.938 63.0391 41.4165 61.8032 45.124C61.3418 46.4224 61.8135 47.7442 63.3945 47.7442Z" fill="#000000" fill-opacity="0.85"/>
 </g>
</svg>
