<?xml version="1.0" encoding="UTF-8"?>
<!--Generator: Apple Native CoreSVG 232.5-->
<!DOCTYPE svg
PUBLIC "-//W3C//DTD SVG 1.1//EN"
       "http://www.w3.org/Graphics/SVG/1.1/DTD/svg11.dtd">
<svg version="1.1" xmlns="http://www.w3.org/2000/svg" xmlns:xlink="http://www.w3.org/1999/xlink" width="94.1924" height="118.756">
 <g>
  <rect height="118.756" opacity="0" width="94.1924" x="0" y="0"/>
  <path d="M55.8628 20.7778C61.5708 20.7778 66.2349 16.1626 66.2349 10.3081C66.2349 4.61524 61.5708 0.0151366 55.8628 0.0151366C50.1211 0.0151366 45.4722 4.61524 45.4722 10.3081C45.4722 16.1626 50.1211 20.7778 55.8628 20.7778ZM9.63965 77.9473L40.9546 77.9473C45.3106 77.9473 47.2183 73.1182 44.7549 70.1328L34.9536 58.0972L62.9751 56.2534L89.3145 56.2534C91.958 56.2534 94.1924 54.1167 94.1924 51.4429C94.1924 48.833 91.958 46.6138 89.3145 46.6138L40.6128 46.6138L52.1265 35.0664C52.6484 34.5781 53.3169 34.2666 54.0039 34.3491L88.4844 38.8027C91.3047 39.1597 93.8657 37.0078 93.8657 34.0562C93.8657 31.6753 92.1045 29.6025 89.6748 29.3096L17.4844 20.1919C15.9673 19.9966 14.5815 20.5337 13.5039 21.5137L1.41943 33.583C-0.488281 35.4907-0.424317 38.3936 1.41943 40.3501C3.13184 42.145 6.29395 42.3403 8.23535 40.3501L18.6108 29.978L29.8804 31.3975C30.9243 31.5103 31.3638 32.6367 30.5977 33.3877L19.9629 43.9063C15.8208 47.9844 15.6069 54.5747 19.9629 58.9458L29.2759 68.3716L9.63965 68.3716C6.9961 68.3716 4.84424 70.4932 4.84424 73.1519C4.84424 75.7617 6.9961 77.9473 9.63965 77.9473ZM56.8086 118.756C58.0347 118.756 58.9946 117.796 58.9946 116.57L58.9946 67.0986C58.9946 65.8574 58.0347 64.8975 56.8086 64.8975C55.5674 64.8975 54.5737 65.8574 54.5737 67.0986L54.5737 116.57C54.5737 117.796 55.5674 118.756 56.8086 118.756Z" fill="#000000" fill-opacity="0.85"/>
 </g>
</svg>
