<?xml version="1.0" encoding="UTF-8"?>
<!--Generator: Apple Native CoreSVG 232.5-->
<!DOCTYPE svg
PUBLIC "-//W3C//DTD SVG 1.1//EN"
       "http://www.w3.org/Graphics/SVG/1.1/DTD/svg11.dtd">
<svg version="1.1" xmlns="http://www.w3.org/2000/svg" xmlns:xlink="http://www.w3.org/1999/xlink" width="121.332" height="90.4776">
 <g>
  <rect height="90.4776" opacity="0" width="121.332" x="0" y="0"/>
  <path d="M80.752 20.7627C86.4785 20.7627 91.1426 16.0986 91.1426 10.3418C91.1426 4.63037 86.4785 0 80.752 0C75.0103 0 70.3799 4.63037 70.3799 10.3418C70.3799 16.0986 75.0103 20.7627 80.752 20.7627ZM45.4082 89.3628C47.2368 90.4068 50.3989 89.9673 51.7847 87.211L63.7075 63.4966C64.6201 61.6528 64.312 59.4824 62.7949 57.999L48.4424 43.6128L66.5464 34.5288C67.4439 34.0708 68.4541 34.3149 69.1074 34.9531L78.4204 44.3301L78.4204 63.7407C78.4204 66.3657 80.606 68.4873 83.231 68.4873C85.8257 68.4873 87.9776 66.3657 87.9776 63.7407L87.9776 42.3735C87.9776 41.0855 87.6846 39.9439 86.5918 38.9487L65.127 17.5815C62.6973 15.1519 59.5166 13.8638 56.0918 13.8638L37.8565 13.8638C33.0947 13.8638 31.7241 19.0498 34.6118 21.8887L40.335 27.5479L38.0029 28.4941C29.3433 32.0352 26.8311 43.4175 35.0024 49.3545L53.3843 62.8281L43.3203 82.9863C42.1299 85.3184 43.061 88.1387 45.4082 89.3628ZM4.74658 70.917L28.5435 70.917C30.4512 70.917 31.9683 69.7266 32.7344 68.2432L38.2554 57.1978L32.4312 52.8906C31.0791 51.9292 29.9224 50.8213 29.0098 49.6494L25.085 61.375L4.74658 61.375C2.12158 61.375 0 63.4966 0 66.1704C0 68.7651 2.12158 70.917 4.74658 70.917ZM105.239 87.3579L119.18 87.3579C120.369 87.3579 121.332 86.3945 121.332 85.1719L121.332 82.791C121.332 81.5347 120.369 80.541 119.18 80.541L103.192 80.541L57.1577 34.6006L53.2168 36.854L102.62 86.2417C103.574 87.1963 104.16 87.3579 105.239 87.3579Z" fill="#000000" fill-opacity="0.85"/>
 </g>
</svg>
