<?xml version="1.0" encoding="UTF-8"?>
<!--Generator: Apple Native CoreSVG 232.5-->
<!DOCTYPE svg
PUBLIC "-//W3C//DTD SVG 1.1//EN"
       "http://www.w3.org/Graphics/SVG/1.1/DTD/svg11.dtd">
<svg version="1.1" xmlns="http://www.w3.org/2000/svg" xmlns:xlink="http://www.w3.org/1999/xlink" width="91.3727" height="96.5596">
 <g>
  <rect height="96.5596" opacity="0" width="91.3727" x="0" y="0"/>
  <path d="M78.5208 25.8325C85.6482 25.8325 91.368 19.8955 91.368 12.9971C91.368 5.8208 85.6482 0 78.5208 0C71.3445 0 65.6331 5.8208 65.6331 12.9971C65.6331 20.2725 71.3445 25.8325 78.5208 25.8325ZM1.75077 93.9043C4.1956 96.5108 8.45048 96.27 11.4847 93.1231L31.9661 71.9732C32.6497 71.2559 33.1868 71.0606 34.2156 71.4849L50.637 77.7012C60.8812 81.6177 70.3694 77.833 75.0838 69.2984L85.0252 51.1987C89.0511 43.9097 87.7327 36.3765 80.7552 32.6738C74.0521 28.9898 67.0897 31.7612 62.9964 39.2456L49.6575 63.6065L38.2752 59.4492C32.6346 57.3799 27.9705 58.0484 23.5018 62.7124L2.19023 84.7412C-0.795127 87.8057-0.517295 91.606 1.75077 93.9043Z" fill="#000000" fill-opacity="0.85"/>
  <path d="M8.18486 46.0781C9.57939 46.0781 10.4974 45.4111 11.1121 43.6191L15.1609 32.2651L33.2132 32.2651L37.2957 43.6191C37.8767 45.3809 38.7947 46.0781 40.2684 46.0781C41.9173 46.0781 43.0457 44.9648 43.0457 43.4658C43.0457 42.8359 42.9295 42.3491 42.6634 41.5171L28.3675 3.42579C27.6517 1.46192 26.2015 0.461426 24.1853 0.461426C22.139 0.461426 20.7224 1.46192 20.0066 3.42579L5.75956 41.5171C5.45975 42.3491 5.34354 42.8359 5.34354 43.417C5.34354 45.0137 6.44169 46.0781 8.18486 46.0781ZM16.7659 27.5562L23.9866 7.34279L24.4026 7.34279L31.6082 27.5562Z" fill="#000000" fill-opacity="0.85"/>
 </g>
</svg>
