<?xml version="1.0" encoding="UTF-8"?>
<!--Generator: Apple Native CoreSVG 232.5-->
<!DOCTYPE svg
PUBLIC "-//W3C//DTD SVG 1.1//EN"
       "http://www.w3.org/Graphics/SVG/1.1/DTD/svg11.dtd">
<svg version="1.1" xmlns="http://www.w3.org/2000/svg" xmlns:xlink="http://www.w3.org/1999/xlink" width="102.819" height="118.068">
 <g>
  <rect height="118.068" opacity="0" width="102.819" x="0" y="0"/>
  <path d="M77.7051 21.1704C83.3643 21.1704 88.0469 16.5064 88.0469 10.7983C88.0469 5.10547 83.3643 0.407717 77.7051 0.407717C71.9971 0.407717 67.2993 5.10547 67.2993 10.7983C67.2993 16.5064 71.9971 21.1704 77.7051 21.1704ZM59.0928 88.314C61.8491 88.314 63.9522 86.1436 63.9522 83.4697L63.9522 60.5703C63.9522 59.2485 63.5127 57.9605 62.6153 57.1607L50.0391 44.6182L61.2446 33.3638C61.9619 32.6465 63.1221 32.6465 63.8394 33.3638L71.6841 41.2271C72.563 42.1397 73.836 42.6128 75.0752 42.6128L97.9595 42.6128C100.667 42.6128 102.819 40.4761 102.819 37.7197C102.819 35.0762 100.667 32.8906 97.9595 32.8906L77.0654 32.8906L60.0542 15.7817C57.9024 13.5962 54.7857 12.3569 51.7515 12.3569L33.8276 12.3569C28.9834 12.3569 27.564 17.6743 30.5982 20.7236L38.5742 28.666L32.1792 34.9297C28.1348 38.9102 28.1348 45.6958 32.1792 49.6426L40.6284 58.0093L40.6284 84.5962C40.6284 87.27 42.7163 89.4556 45.4575 89.4556C48.1314 89.4556 50.3169 87.27 50.3169 84.5962L50.3169 58.6777L54.2637 62.5606L54.2637 83.4697C54.2637 86.1436 56.4341 88.314 59.0928 88.314ZM2.23487 33.3999L48.0962 33.3999L48.0962 28.979L2.23487 28.979C0.993654 28.979 0 29.9727 0 31.1987C0 32.4063 0.993654 33.3999 2.23487 33.3999ZM100.305 85.5581C101.512 85.5581 102.54 84.5308 102.54 83.3233L102.54 38.0327L98.1187 38.0327L98.1187 83.3233C98.1187 84.5308 99.1123 85.5581 100.305 85.5581ZM77.086 118.068C78.312 118.068 79.3208 117.075 79.3208 115.849C79.3208 114.607 78.312 113.647 77.086 113.647C73.7168 113.647 72.7437 113.077 69.8965 110.263L19.3023 59.6353C18.3457 58.7124 17.0151 58.7124 16.1563 59.605C15.2637 60.479 15.2637 61.8096 16.1563 62.7173L67.2593 113.805C70.4263 116.987 73.5684 118.068 77.086 118.068ZM89.3692 115.507C90.6104 115.507 91.5703 114.514 91.5703 113.272C91.5703 112.046 90.6104 111.086 89.3692 111.086C86 111.086 85.0083 110.501 82.1612 107.687L31.5669 57.0928C30.6104 56.1362 29.2984 56.1362 28.4209 57.044C27.5469 57.9365 27.5469 59.2485 28.4209 60.1563L79.5088 111.244C82.6909 114.411 85.8179 115.507 89.3692 115.507Z" fill="#000000" fill-opacity="0.85"/>
 </g>
</svg>
