<?xml version="1.0" encoding="UTF-8"?>
<!--Generator: Apple Native CoreSVG 232.5-->
<!DOCTYPE svg
PUBLIC "-//W3C//DTD SVG 1.1//EN"
       "http://www.w3.org/Graphics/SVG/1.1/DTD/svg11.dtd">
<svg version="1.1" xmlns="http://www.w3.org/2000/svg" xmlns:xlink="http://www.w3.org/1999/xlink" width="124.683" height="114.875">
 <g>
  <rect height="114.875" opacity="0" width="124.683" x="0" y="0"/>
  <path d="M104.863 27.8022C110.067 27.8022 114.179 23.5928 114.179 18.4219C114.179 13.2324 110.067 9.09033 104.863 9.09033C99.7071 9.09033 95.4976 13.2324 95.4976 18.4219C95.4976 23.5928 99.7071 27.8022 104.863 27.8022ZM99.355 105.283C101.69 105.283 103.485 103.454 103.485 101.167L103.485 70.3125C103.485 69.5918 104.142 68.9688 104.863 68.9688C105.599 68.9688 106.222 69.5918 106.222 70.3125L106.222 101.167C106.222 103.454 108.069 105.283 110.371 105.283C112.657 105.283 114.501 103.454 114.501 101.167L114.501 50.5972C114.501 49.8428 115.09 49.2871 115.86 49.2871C116.581 49.2871 117.17 49.8428 117.17 50.5972L117.17 67.2295C117.17 69.3696 118.837 71.0366 120.943 71.0366C123.001 71.0366 124.683 69.3696 124.683 67.2295L124.683 48.6558C124.683 39.1929 117.732 32.8652 107.858 32.8652L101.867 32.8652C91.9595 32.8652 85.0088 39.1929 85.0088 48.6558L85.0088 67.2295C85.0088 69.3696 86.7061 71.0366 88.7823 71.0366C90.8736 71.0366 92.5708 69.3696 92.5708 67.2295L92.5708 50.5972C92.5708 49.8428 93.1451 49.2871 93.8809 49.2871C94.6016 49.2871 95.2246 49.8428 95.2246 50.5972L95.2246 101.167C95.2246 103.454 97.0533 105.283 99.355 105.283Z" fill="#000000" fill-opacity="0.85"/>
  <path d="M66.6988 114.811C68.3965 114.811 69.7456 113.563 69.7456 111.88L69.7456 2.94581C69.7456 1.26319 68.3965 0 66.6988 0C65.0161 0 63.7007 1.26319 63.7007 2.94581L63.7007 111.88C63.7007 113.563 65.0161 114.811 66.6988 114.811Z" fill="#000000" fill-opacity="0.85"/>
  <path d="M25.814 27.8022C30.9849 27.8022 35.1455 23.5928 35.1455 18.4219C35.1455 13.2324 30.9849 9.09033 25.814 9.09033C20.6094 9.09033 16.4639 13.2324 16.4639 18.4219C16.4639 23.5928 20.6094 27.8022 25.814 27.8022ZM20.3062 105.283C22.6079 105.283 24.4365 103.454 24.4365 101.167L24.4365 83.461C24.4365 82.7066 25.0596 82.1172 25.814 82.1172C26.5347 82.1172 27.1577 82.7066 27.1577 83.461L27.1577 101.167C27.1577 103.454 28.9526 105.283 31.2881 105.283C33.5747 105.283 35.4185 103.454 35.4185 101.167L35.4185 83.461L41.875 83.461C43.9683 83.461 44.9028 81.6675 44.2461 79.5508L35.3862 51.1983C34.7817 49.2197 37.4019 48.4351 38.0215 50.4624L43.4517 67.876C45.1455 73.2993 53.044 71.166 51.3501 65.645L46.2954 49.5195C43.0171 38.937 39.3164 32.7559 27.1577 32.7559L24.4365 32.7559C12.2778 32.7559 8.54346 38.937 5.25 49.5195L0.244141 65.645C-1.46484 71.166 6.41504 73.2993 8.14258 67.876L13.5728 50.4624C14.1924 48.4351 16.8125 49.2197 16.1743 51.1983L7.34815 79.5508C6.69141 81.6675 7.62598 83.461 9.68555 83.461L16.1421 83.461L16.1421 101.167C16.1421 103.454 18.0044 105.283 20.3062 105.283Z" fill="#000000" fill-opacity="0.85"/>
 </g>
</svg>
