<?xml version="1.0" encoding="UTF-8"?>
<!--Generator: Apple Native CoreSVG 232.5-->
<!DOCTYPE svg
PUBLIC "-//W3C//DTD SVG 1.1//EN"
       "http://www.w3.org/Graphics/SVG/1.1/DTD/svg11.dtd">
<svg version="1.1" xmlns="http://www.w3.org/2000/svg" xmlns:xlink="http://www.w3.org/1999/xlink" width="113.467" height="96.5596">
 <g>
  <rect height="96.5596" opacity="0" width="113.467" x="0" y="0"/>
  <path d="M89.5848 25.8325C96.6786 25.8325 102.432 19.8955 102.432 12.9971C102.432 5.8208 96.6786 0 89.5848 0C82.3748 0 76.6971 5.8208 76.6971 12.9971C76.6971 20.2725 82.3748 25.8325 89.5848 25.8325ZM12.7811 93.9043C15.2596 96.5108 19.5145 96.27 22.5487 93.1231L43.0301 71.9732C43.7288 71.2559 44.2171 71.0606 45.2796 71.4849L61.701 77.7012C71.9115 81.6177 81.4334 77.833 86.1141 69.2984L96.0555 51.1987C100.081 43.9097 98.7967 36.3765 91.8192 32.6738C85.1161 28.9898 78.12 31.7612 74.0604 39.2456L60.7215 63.6065L49.3543 59.4492C43.6986 57.3799 39.0008 58.0484 34.5321 62.7124L13.2205 84.7412C10.2689 87.8057 10.5467 91.606 12.7811 93.9043Z" fill="#000000" fill-opacity="0.85"/>
  <path d="M0.854306 15.0449L16.0877 34.5938C16.7562 35.4424 17.7547 35.6226 18.7381 35.0972C22.2708 33.2163 27.5394 31.8945 31.6966 31.8945C35.8875 31.8945 41.1561 33.2163 44.6888 35.0972C45.6385 35.6226 46.6859 35.4424 47.3392 34.5938L62.5726 15.0449C63.8963 13.3726 63.6673 11.606 62.0286 10.3799C55.6927 5.59961 43.7733 1.95751 31.6966 1.95751C19.6536 1.95751 7.73419 5.59961 1.36456 10.3799C-0.240423 11.606-0.45429 13.3726 0.854306 15.0449ZM17.0521 46.3311C15.3665 44.1538 14.6458 42.1079 14.6458 39.7456C14.6458 34.7275 18.9412 33.0576 18.9412 30.0132C18.9412 26.9385 14.6458 25.3477 14.6458 20.2017C14.6458 17.9033 15.3514 15.9063 17.1009 13.665C18.8001 11.5532 21.8685 13.7661 20.2029 15.9756C18.93 17.7217 18.5579 18.7622 18.5579 20.2017C18.5579 24.0356 22.8196 25.2158 22.8196 30.0132C22.8196 34.8745 18.5579 35.9907 18.5579 39.7456C18.5579 41.313 18.93 42.2896 20.1727 43.9751C21.8079 46.166 18.7361 48.3486 17.0521 46.3311ZM30.095 46.3311C28.4246 44.1538 27.6888 42.1079 27.6888 39.7456C27.6888 34.7275 31.9656 33.0576 31.9656 30.0132C31.9656 26.9385 27.6888 25.3477 27.6888 20.2017C27.6888 17.9033 28.3607 15.9063 30.1253 13.665C31.8245 11.5532 34.9266 13.7661 33.2459 15.9756C31.973 17.7217 31.6009 18.7622 31.6009 20.2017C31.6009 24.0356 35.8441 25.2158 35.8441 30.0132C35.8441 34.8745 31.6009 35.9907 31.6009 39.7456C31.6009 41.313 31.973 42.2896 33.2308 43.9751C34.8172 46.166 31.7791 48.3486 30.095 46.3311ZM43.1868 46.3311C41.4676 44.1538 40.7806 42.1079 40.7806 39.7456C40.7806 34.7275 45.0423 33.0576 45.0423 30.0132C45.0423 26.9385 40.7806 25.3477 40.7806 20.2017C40.7806 17.9033 41.4525 15.9063 43.202 13.665C44.9012 11.5532 48.0033 13.7661 46.3377 15.9756C45.0311 17.7217 44.6927 18.7622 44.6927 20.2017C44.6927 24.0356 48.9207 25.2158 48.9207 30.0132C48.9207 34.8745 44.6927 35.9907 44.6927 39.7456C44.6927 41.313 45.0311 42.2896 46.2738 43.9751C47.909 46.166 44.8372 48.3486 43.1868 46.3311Z" fill="#000000" fill-opacity="0.85"/>
 </g>
</svg>
