<?xml version="1.0" encoding="UTF-8"?>
<!--Generator: Apple Native CoreSVG 232.5-->
<!DOCTYPE svg
PUBLIC "-//W3C//DTD SVG 1.1//EN"
       "http://www.w3.org/Graphics/SVG/1.1/DTD/svg11.dtd">
<svg version="1.1" xmlns="http://www.w3.org/2000/svg" xmlns:xlink="http://www.w3.org/1999/xlink" width="115.146" height="111.391">
 <g>
  <rect height="111.391" opacity="0" width="115.146" x="0" y="0"/>
  <path d="M87.2022 54.5464C92.9439 54.5464 97.5591 49.916 97.5591 44.1743C97.5591 38.4326 92.9439 33.7837 87.2022 33.7837C81.4268 33.7837 76.7964 38.4326 76.7964 44.1743C76.7964 49.916 81.4268 54.5464 87.2022 54.5464ZM54.5078 92.086L72.8984 92.086L92.3394 72.645C93.3008 71.6836 94.8516 71.7139 95.7642 72.645L103.74 80.6026L95.4863 88.9053C91.2617 93.1787 97.6568 99.6377 101.945 95.3643L113.478 83.8657C115.385 81.958 115.336 79.168 113.478 77.3091L100.038 63.918C97.4126 61.3233 93.9878 59.8399 90.3491 59.8399L55.3955 59.8399L55.3955 69.0889L67.0254 69.0889C67.874 69.0889 68.2647 69.9375 67.6787 70.5571L54.5078 83.6944ZM7.3623 92.086L56.9951 92.086L56.9951 4.95703C56.9951 1.44971 51.8731-0.0673831 49.6387 3.96191L4.13281 85.8711C2.32275 89.1831 4.13281 92.086 7.3623 92.086ZM9.81836 87.6499C8.91456 87.6499 8.70411 86.8555 9.00538 86.332L50.9937 10.6646C51.502 9.7759 52.5742 10.0435 52.5742 10.8599L52.5742 87.6499ZM2.23487 111.391L6.84864 111.391C19.4805 111.391 22.6221 103.334 31.9312 103.334C41.1914 103.334 44.333 111.391 56.98 111.391C69.5933 111.391 72.7686 103.334 82.0288 103.334C91.3042 103.334 94.4644 111.391 107.078 111.391L111.725 111.391C112.951 111.391 113.926 110.431 113.926 109.189C113.926 107.963 112.951 106.97 111.725 106.97L107.078 106.97C97.4453 106.97 94.1353 98.9131 82.0288 98.9131C69.9224 98.9131 66.6274 106.97 56.98 106.97C47.3325 106.97 44.0376 98.9131 31.9312 98.9131C19.791 98.9131 16.5147 106.97 6.84864 106.97L2.23487 106.97C1.00879 106.97 0 107.963 0 109.189C0 110.431 1.00879 111.391 2.23487 111.391Z" fill="#000000" fill-opacity="0.85"/>
 </g>
</svg>
