<?xml version="1.0" encoding="UTF-8"?>
<!--Generator: Apple Native CoreSVG 232.5-->
<!DOCTYPE svg
PUBLIC "-//W3C//DTD SVG 1.1//EN"
       "http://www.w3.org/Graphics/SVG/1.1/DTD/svg11.dtd">
<svg version="1.1" xmlns="http://www.w3.org/2000/svg" xmlns:xlink="http://www.w3.org/1999/xlink" width="142.748" height="50.7373">
 <g>
  <rect height="50.7373" opacity="0" width="142.748" x="0" y="0"/>
  <path d="M18.8838 20.6231C24.6104 20.6231 29.1953 16.0381 29.1953 10.3115C29.1953 4.63379 24.6104 0 18.8838 0C13.1909 0 8.60596 4.63379 8.60596 10.3115C8.60596 16.0381 13.1909 20.6231 18.8838 20.6231ZM50.106 49.4307L63.6924 49.4307C74.9619 49.4307 78.1275 43.0205 77.1963 35.6489L74.0493 10.7256L98.417 10.7256C101.158 10.7256 103.31 8.5249 103.31 5.78369C103.31 3.07617 101.158 0.924316 98.417 0.924316L67.9995 0.924316C65.2095 0.924316 63.0879 2.88086 63.0879 6.19287L63.0879 31.3755L54.9653 31.3755C50.6431 31.3755 46.9741 29.8247 44.9014 26.4824C44.398 25.7163 44.398 24.5747 45.3106 23.5308L57.5112 9.06201C60.3652 5.71973 58.0972 0.924316 53.9551 0.924316L36.8125 0.924316C34.105 0.924316 31.9194 3.07617 31.9194 5.78369C31.9194 8.57373 34.0225 10.7256 36.8125 10.7256L43.7598 10.7256L36.6323 19.1411C31.5591 25.1606 27.0264 29.3516 19.4409 32.7275L12.0205 36.0396L14.3374 27.8193C15.1035 25.1118 13.3423 22.4531 10.8301 21.8823C8.17139 21.2139 5.5127 22.8135 4.84424 25.356L0.229004 43.3472C-1.04395 48.2066 3.22949 50.6699 7.46924 48.811L22.8018 42.0254C24.3677 41.3906 25.2651 41.4546 26.4556 42.3858C31.3975 46.5767 39.291 49.4307 50.106 49.4307ZM102.544 38.4053L137.839 38.4053C140.547 38.4053 142.748 36.2349 142.748 33.4634C142.748 30.771 140.547 28.5855 137.839 28.5855L102.071 28.5855C101.71 28.5855 101.237 28.5855 100.715 28.6343L80.9009 30.2642L81.5694 35.0259C81.9263 37.8008 81.8472 40.3921 81.2461 42.7056Z" fill="#000000" fill-opacity="0.85"/>
 </g>
</svg>
