<?xml version="1.0" encoding="UTF-8"?>
<!--Generator: Apple Native CoreSVG 232.5-->
<!DOCTYPE svg
PUBLIC "-//W3C//DTD SVG 1.1//EN"
       "http://www.w3.org/Graphics/SVG/1.1/DTD/svg11.dtd">
<svg version="1.1" xmlns="http://www.w3.org/2000/svg" xmlns:xlink="http://www.w3.org/1999/xlink" width="112.182" height="114.587">
 <g>
  <rect height="114.587" opacity="0" width="112.182" x="0" y="0"/>
  <path d="M71.0113 28.2588C76.7042 28.2588 81.4019 23.5947 81.4019 17.9019C81.4019 12.1938 76.7042 7.49609 71.0113 7.49609C65.3033 7.49609 60.6392 12.1938 60.6392 17.9019C60.6392 23.5947 65.3033 28.2588 71.0113 28.2588ZM38.9165 89.5166C41.0684 90.9697 44.1514 90.5117 45.7022 88.375L56.9078 72.7007L67.5088 74.4956L57.0694 90.0874C55.586 92.3555 56.108 95.5025 58.44 96.8242C61.1963 98.4541 63.8399 97.5415 65.1919 95.5025L79.334 74.2178C81.1441 71.3975 80.2129 67.0415 76.1197 66.0464L56.6636 61.3823C54.7862 60.9092 54.0689 59.3096 55.1768 57.6309L63.3819 45.3662C63.9527 44.4839 65.0303 44.2886 65.9092 44.9082L77.8321 53.0796C78.4366 53.4551 79.0225 53.7329 79.7398 53.8457L106.424 58.7236C108.805 59.1631 111.644 57.6309 112.117 54.7769C112.542 52.1821 110.829 49.6211 108.234 49.1817L82.5298 44.4839L42.9122 17.4087L54.2642 9.28614C56.4986 7.72022 56.9717 4.6709 55.4546 2.53418C53.8248 0.348634 50.7906-0.173339 48.6539 1.34375L31.6578 13.5107C28.8374 15.5498 28.8037 19.5303 31.7066 21.4868L46.1753 31.4194C47.0054 32.0391 47.2041 33.083 46.6148 33.8828L34.5454 51.4649C29.521 58.7876 32.6529 68.69 42.5367 70.3198L46.1753 70.9395L37.7749 82.667C36.209 84.8677 36.6822 87.9356 38.9165 89.5166ZM0.810577 74.2915C-0.164522 75.1504-0.366672 76.7031 0.874541 77.7979C23.1577 97.5689 63.2286 114.587 103.946 114.587C105.187 114.587 106.147 113.627 106.147 112.401C106.147 111.16 105.187 110.166 103.946 110.166C64.2374 110.166 25.4297 93.729 3.77298 74.3892C2.76078 73.5083 1.57181 73.6128 0.810577 74.2915ZM3.47464 93.9707C7.57767 93.9707 13.2637 92.5025 17.9551 89.3858L10.8863 82.8838C8.36038 86.2681 6.29984 87.9146 2.5972 89.6812C1.41995 90.333 0.939969 91.3755 1.22464 92.3877C1.40823 93.2281 2.23685 93.9707 3.47464 93.9707Z" fill="#000000" fill-opacity="0.85"/>
 </g>
</svg>
