<?xml version="1.0" encoding="UTF-8"?>
<!--Generator: Apple Native CoreSVG 232.5-->
<!DOCTYPE svg
PUBLIC "-//W3C//DTD SVG 1.1//EN"
       "http://www.w3.org/Graphics/SVG/1.1/DTD/svg11.dtd">
<svg version="1.1" xmlns="http://www.w3.org/2000/svg" xmlns:xlink="http://www.w3.org/1999/xlink" width="92.1382" height="111.805">
 <g>
  <rect height="111.805" opacity="0" width="92.1382" x="0" y="0"/>
  <path d="M46.1255 23.4756C51.8369 23.4756 56.4673 18.8452 56.4673 13.1035C56.4673 7.37696 51.8369 2.71289 46.1255 2.71289C40.3838 2.71289 35.7197 7.37696 35.7197 13.1035C35.7197 18.8452 40.3838 23.4756 46.1255 23.4756ZM85.6792 32.6856C83.7529 30.7593 80.7373 30.793 78.8111 32.6856L67.2149 44.1992L55.6187 32.5205C53.3506 30.2036 49.7305 28.769 46.1255 28.769L14.9233 28.769C12.7715 28.769 11.0103 30.042 10.2593 32.1299L2.80518 54.5562C1.64844 58.0298 3.66895 60.3955 6.06836 60.9815C8.31787 61.586 10.9614 60.6245 12.0054 57.5903L18.4307 38.5064L28.7388 38.5064C29.7002 38.5064 30.3535 39.3399 30.0269 40.3013L23.6992 59.3027C21.6265 65.4839 23.519 71.4209 30.436 74.4551L50.7256 83.3438L57.5752 107.336C58.4238 110.306 61.1953 111.219 63.5122 110.614C65.8931 109.98 67.8496 107.794 66.937 104.628L59.419 78.4019C59.0098 77.0161 58.3262 76.021 56.7266 75.3037L40.9058 68.3228L49.3213 43.0088C49.6817 41.9649 50.9209 41.5742 51.7207 42.4043L63.7412 54.5562C65.6338 56.4487 68.7808 56.4487 70.6885 54.5562L85.6792 39.584C87.6358 37.5938 87.6358 34.6421 85.6792 32.6856ZM25.3442 76.6089L22.9331 90.3247L2.51221 101.726C-0.390625 103.325-0.506836 106.359 0.799805 108.511C2.03906 110.501 4.6001 111.741 7.30762 110.224L29.7827 97.7788C31.1533 96.979 31.6567 96.0664 32.1148 94.5982L36.415 81.8252L28.6831 78.4492C27.4624 77.9273 26.3394 77.2774 25.3442 76.6089ZM89.6646 23.7026C91.1734 22.9482 92.1382 21.5186 92.1382 20.0181L92.1382 4.44385C92.1382 1.97022 90.3145 0 87.8374 0L76.6192 0C74.1607 0 72.2544 1.97022 72.2544 4.44385L72.2544 20.0181C72.2544 21.5186 73.2344 22.9482 74.7617 23.7026L82.2207 27.5298ZM80.0347 36.0767L84.4556 36.0767L84.4556 22.4414L80.0347 22.4414Z" fill="#000000" fill-opacity="0.85"/>
 </g>
</svg>
