<?xml version="1.0" encoding="UTF-8"?>
<!--Generator: Apple Native CoreSVG 232.5-->
<!DOCTYPE svg
PUBLIC "-//W3C//DTD SVG 1.1//EN"
       "http://www.w3.org/Graphics/SVG/1.1/DTD/svg11.dtd">
<svg version="1.1" xmlns="http://www.w3.org/2000/svg" xmlns:xlink="http://www.w3.org/1999/xlink" width="90.3106" height="118.836">
 <g>
  <rect height="118.836" opacity="0" width="90.3106" x="0" y="0"/>
  <path d="M64.0498 20.9141C69.7915 20.9141 74.4405 16.2651 74.4405 10.5083C74.4405 4.7666 69.7915 0.166503 64.0498 0.166503C58.3081 0.166503 53.6778 4.7666 53.6778 10.5083C53.6778 16.2651 58.3081 20.9141 64.0498 20.9141ZM31.1201 58.6895L48.8487 76.4854L48.8487 104.376L58.5708 104.376L58.5708 75.0508C58.5708 73.6465 58.2593 72.3247 57.2979 71.0855L45.3599 55.918L55.5215 40.3565C56.19 39.3311 57.5943 39.3311 58.1465 40.4878L61.5074 47.2886C62.356 48.8882 64.0347 49.9961 65.8785 49.9961L85.4507 49.9961C88.1245 49.9961 90.3101 47.8106 90.3101 45.103C90.3101 42.4292 88.1245 40.2437 85.4507 40.2437L68.8789 40.2437L63.7569 29.8379C61.7027 25.7598 57.5118 23.1499 52.878 23.1499L26.8467 23.1499C25.232 23.1499 23.666 23.9497 22.7534 25.3355L13.0161 39.9995C11.5479 42.2002 12.1524 45.2344 14.3867 46.7026C16.5723 48.2197 19.6065 47.6152 21.1387 45.332L29.4414 32.8721L37.4815 32.8721C38.1011 32.8721 38.4917 33.458 38.1011 34.0625L29.8809 46.4248C27.335 50.2402 27.8418 55.396 31.1201 58.6895ZM1.69777 65.8657L20.8609 82.6177C23.895 85.3252 27.2559 83.8906 28.7393 81.5737L36.2168 70.0249L28.128 61.9209C28.0303 61.7896 27.9478 61.707 27.8013 61.5606L22.8999 71.4121L8.07424 58.4942C6.084 56.7817 2.98586 56.9131 1.22463 58.9673C-0.570294 61.0064-0.374981 64.0894 1.69777 65.8657ZM25.8853 107.621L59.5435 107.621C64.7666 107.621 68.9375 106.558 72.2378 103.716C73.4117 102.756 73.3477 101.5 72.7549 100.656C72.1099 99.7412 70.7002 99.2915 69.4068 100.255C66.8037 102.291 64.0391 103.185 59.5435 103.185L25.8853 103.185C21.3408 103.185 18.625 102.291 15.9883 100.255C14.7959 99.3438 13.521 99.6436 12.8574 100.438C12.0322 101.267 11.916 102.64 13.1572 103.716C16.4575 106.558 20.6133 107.621 25.8853 107.621ZM25.8853 118.836C28.0894 118.836 29.9517 117.007 29.9517 114.803C29.9517 112.584 28.0894 110.722 25.8853 110.722C23.666 110.722 21.8037 112.584 21.8037 114.803C21.8037 117.007 23.666 118.836 25.8853 118.836ZM59.5435 118.836C61.7627 118.836 63.5913 117.007 63.5913 114.803C63.5913 112.584 61.7627 110.722 59.5435 110.722C57.3242 110.722 55.4619 112.584 55.4619 114.803C55.4619 117.007 57.3242 118.836 59.5435 118.836Z" fill="#000000" fill-opacity="0.85"/>
 </g>
</svg>
