<?xml version="1.0" encoding="UTF-8"?>
<!--Generator: Apple Native CoreSVG 232.5-->
<!DOCTYPE svg
PUBLIC "-//W3C//DTD SVG 1.1//EN"
       "http://www.w3.org/Graphics/SVG/1.1/DTD/svg11.dtd">
<svg version="1.1" xmlns="http://www.w3.org/2000/svg" xmlns:xlink="http://www.w3.org/1999/xlink" width="101.553" height="110.191">
 <g>
  <rect height="110.191" opacity="0" width="101.553" x="0" y="0"/>
  <path d="M47.5469 20.6231C53.2397 20.6231 57.8247 16.0381 57.8247 10.2778C57.8247 4.58496 53.2397 0 47.5469 0C41.7866 0 37.2016 4.58496 37.2016 10.2778C37.2016 16.0381 41.7866 20.6231 47.5469 20.6231ZM3.78708 108.088C5.61228 109.865 8.59763 110.191 10.6855 108.088L31.497 87.3408C32.77 86.1167 32.999 85.1065 32.8677 83.2476L31.6772 69.5991C31.5947 68.8565 32.3037 68.5415 32.7988 68.9878L47.8735 81.9746L55.6357 106.049C56.5332 108.87 59.3872 109.947 61.7866 109.245C64.543 108.43 65.8462 105.689 64.9824 103.064L56.9575 77.7012C56.7134 76.9839 56.289 76.1841 55.7182 75.6621L39.6684 59.7774L49.9765 39.1914C50.416 38.3125 51.4448 38.1172 52.147 38.8345L63.6943 50.4795C64.2163 51.0015 64.9824 51.4409 65.7334 51.6699L88.8769 58.6021C90.7695 59.1729 93.9502 58.4067 94.9604 55.2261C95.7114 52.665 94.2432 49.875 91.6333 49.0938L69.729 42.6348L57.2353 29.9946C54.3965 27.1558 51.103 25.9165 47.2202 25.9165L14.1592 25.9165C12.2666 25.9165 10.603 26.9605 9.78806 28.624L0.523895 47.0547C-0.651398 49.4356 0.182098 52.4209 2.70944 53.5962C5.22165 54.7866 8.07565 53.9043 9.31491 51.3921L17.1445 35.7363L26.9306 35.7363C28.0234 35.7363 28.6919 36.8106 28.1699 37.8394L20.9936 52.2407C18.4477 57.3291 17.7002 63.2661 19.1347 68.8613L22.5595 82.3013L3.70456 101.059C1.79684 102.902 1.86081 106.162 3.78708 108.088ZM90.2475 86.4771C96.5112 86.4771 101.551 81.4038 101.551 75.189C101.551 68.9439 96.5112 63.9194 90.2475 63.9194C84.0327 63.9194 78.9932 68.9439 78.9932 75.189C78.9932 81.4038 84.0327 86.4771 90.2475 86.4771Z" fill="#000000" fill-opacity="0.85"/>
 </g>
</svg>
