<?xml version="1.0" encoding="UTF-8"?>
<!--Generator: Apple Native CoreSVG 232.5-->
<!DOCTYPE svg
PUBLIC "-//W3C//DTD SVG 1.1//EN"
       "http://www.w3.org/Graphics/SVG/1.1/DTD/svg11.dtd">
<svg version="1.1" xmlns="http://www.w3.org/2000/svg" xmlns:xlink="http://www.w3.org/1999/xlink" width="130.031" height="80.9815">
 <g>
  <rect height="80.9815" opacity="0" width="130.031" x="0" y="0"/>
  <path d="M10.4174 58.8535C16.1103 58.8535 20.7744 54.2232 20.7744 48.4815C20.7744 42.7549 16.1103 38.0908 10.4174 38.0908C4.67574 38.0908 0.0116778 42.7549 0.0116778 48.4815C0.0116778 54.2232 4.67574 58.8535 10.4174 58.8535ZM21.9477 62.4683C20.0888 67.2149 21.8989 72.0928 25.8305 74.8643C32.271 79.333 38.2265 80.9815 47.7837 80.9815L62.936 80.9815C74.6147 80.9815 77.7768 71.815 73.7812 64.1167L61.5654 40.564L61.5654 4.9419C61.5654 2.13672 59.3799 0 56.5258 0C53.7695 0 51.6816 2.13672 51.6816 4.9419L51.6816 41.7544C51.6816 42.4229 51.7304 42.9448 51.8618 43.418L58.7602 63.1216L49.8227 63.1216C44.081 63.1216 40.7539 61.522 36.2363 58.7993C35.061 58.082 34.7192 57.0044 35.2563 55.6187L46.3154 27.3042C47.3105 24.792 46.0224 21.8403 43.4765 20.894C40.8027 19.8989 38.0464 21.1382 37.0512 23.7329ZM79.8955 73.4194L97.8559 67.5415L125.926 62.4683C128.634 61.9951 130.429 59.5166 129.956 56.7266C129.434 53.9888 126.873 52.2427 124.165 52.7158L94.0952 58.1694L77.5112 61.207L77.9321 61.9512C80.1548 65.7061 80.5605 69.8667 79.8955 73.4194Z" fill="#000000" fill-opacity="0.85"/>
 </g>
</svg>
