<?xml version="1.0" encoding="UTF-8"?>
<!--Generator: Apple Native CoreSVG 232.5-->
<!DOCTYPE svg
PUBLIC "-//W3C//DTD SVG 1.1//EN"
       "http://www.w3.org/Graphics/SVG/1.1/DTD/svg11.dtd">
<svg version="1.1" xmlns="http://www.w3.org/2000/svg" xmlns:xlink="http://www.w3.org/1999/xlink" width="114.868" height="109.62">
 <g>
  <rect height="109.62" opacity="0" width="114.868" x="0" y="0"/>
  <path d="M81.8604 32.744L81.8604 44.2259C87.3811 44.8321 90.5532 48.6424 90.5532 55.0477L90.5532 89.9315C90.5532 96.95 86.7446 100.887 80.2212 100.887L51.0126 100.887C51.0426 99.9905 50.938 99.0293 50.6895 98.0135L45.167 75.1898C44.8623 73.7874 44.9566 71.3958 44.9566 68.6707L48.5361 70.1214C54.0596 72.2718 59.1924 69.5555 60.7246 64.8436C62.208 60.3963 60.0879 55.4642 54.9942 53.3694L42.5659 48.1942C43.3002 46.9477 43.8347 45.5824 44.1183 44.1263L75.8374 44.1263L75.8374 32.0936C75.8374 19.3499 67.7305 11.8382 57.4341 11.8382C47.4803 11.8382 39.6029 18.8173 39.0696 30.749C37.437 29.4543 35.493 28.5362 33.3614 28.1087C35.1609 13.8536 45.4233 6.11505 57.4341 6.11505C70.6812 6.11505 81.8604 15.5501 81.8604 32.744Z" fill="#000000" fill-opacity="0.85"/>
  <path d="M30.605 49.6795C35.1611 49.6795 38.707 46.0999 38.707 41.6414C38.707 37.1375 35.1611 33.5242 30.605 33.5242C26.2105 33.5242 22.5181 37.1375 22.5181 41.6414C22.5181 46.0999 26.2105 49.6795 30.605 49.6795ZM30.5713 78.0423C31.6607 78.0423 32.585 78.6922 32.9082 79.9886L38.4712 101.192C39.6919 105.819 45.9707 104.204 45.3511 99.9725C45.0093 98.0784 40.2915 80.1165 39.6079 76.1126C39.1348 73.2738 39.3335 66.0452 39.3335 62.0252C39.3335 61.1429 40.1182 60.5535 41.0191 60.9476L50.648 64.8436C53.0811 65.8387 54.7935 64.6937 55.3272 63.1092C55.8945 61.5096 55.2075 59.5413 52.8335 58.5833L42.7935 54.4329C40.3252 53.4261 38.0171 52.8924 35.4766 52.5657C33.9527 53.2259 32.3277 53.6082 30.5713 53.6082C28.815 53.6082 27.2388 53.2259 25.7149 52.5657C23.1743 52.8924 20.8325 53.4261 18.398 54.4329L8.32423 58.5833C5.9839 59.5413 5.29689 61.5096 5.86427 63.1092C6.36427 64.6937 8.11036 65.8387 10.5435 64.8436L20.1724 60.9476C21.0733 60.5535 21.8579 61.1429 21.8579 62.0252C21.8579 66.0452 22.0567 73.2738 21.5835 76.1126C20.8999 80.1165 16.1821 98.0784 15.8403 99.9725C15.187 104.204 21.4995 105.819 22.7051 101.192L28.2495 79.9886C28.6065 78.6922 29.4819 78.0423 30.5713 78.0423Z" fill="#000000" fill-opacity="0.85"/>
 </g>
</svg>
