<?xml version="1.0" encoding="UTF-8"?>
<!--Generator: Apple Native CoreSVG 232.5-->
<!DOCTYPE svg
PUBLIC "-//W3C//DTD SVG 1.1//EN"
       "http://www.w3.org/Graphics/SVG/1.1/DTD/svg11.dtd">
<svg version="1.1" xmlns="http://www.w3.org/2000/svg" xmlns:xlink="http://www.w3.org/1999/xlink" width="78.1684" height="105.57">
 <g>
  <rect height="105.57" opacity="0" width="78.1684" x="0" y="0"/>
  <path d="M55.3476 20.8589C61.0742 20.8589 65.6592 16.2588 65.6592 10.5474C65.6592 4.85449 61.0742 0.269532 55.3476 0.269532C49.6362 0.269532 45.0361 4.85449 45.0361 10.5474C45.0361 16.2588 49.6362 20.8589 55.3476 20.8589ZM37.5605 105.57C58.5166 105.57 72.5136 91.5733 72.5136 70.6021C72.5136 59.5415 67.2368 53.1802 57.4878 53.1802L51.0508 53.1802C49.852 53.1802 49.1499 52.3721 49.5893 50.9898L54.021 37.5483C56.0415 31.374 53.0967 25.8765 46.3598 24.1641L26.4663 19.1616C24.5737 18.6885 23.1694 18.9849 21.4116 19.9951L2.0737 30.9092C-0.130405 32.1519-0.667515 35.4453 0.898404 37.5332C2.40036 39.6397 5.0776 40.0757 7.53757 38.8062L25.3095 29.4058L35.7016 32.1587C37.7675 32.7295 38.5942 34.1758 37.8955 36.1255L32.4384 51.4072C29.9599 58.4859 34.1206 64.5811 41.0307 64.5811L59.5127 64.5811C63.3178 64.5811 65.9243 66.8726 65.9243 70.6021C65.9243 87.6143 54.6064 98.9658 37.5942 98.9658C20.5669 98.9658 9.18161 87.6143 9.18161 70.5869C9.18161 65.2608 10.6181 60.5156 13.0869 56.4644C15.7763 52.0459 10.0224 48.8779 7.32273 53.2529C4.37399 58.1748 2.57711 64.0566 2.57711 70.5869C2.57711 91.5733 16.5405 105.57 37.5605 105.57ZM72.9326 105.57C75.8203 105.57 78.1675 103.223 78.1675 100.32C78.1675 97.4326 75.8203 95.0855 72.9326 95.0855C70.0298 95.0855 67.6826 97.4326 67.6826 100.32C67.6826 103.223 70.0298 105.57 72.9326 105.57Z" fill="#000000" fill-opacity="0.85"/>
 </g>
</svg>
