<?xml version="1.0" encoding="UTF-8"?>
<!--Generator: Apple Native CoreSVG 232.5-->
<!DOCTYPE svg
PUBLIC "-//W3C//DTD SVG 1.1//EN"
       "http://www.w3.org/Graphics/SVG/1.1/DTD/svg11.dtd">
<svg version="1.1" xmlns="http://www.w3.org/2000/svg" xmlns:xlink="http://www.w3.org/1999/xlink" width="91.6737" height="113.272">
 <g>
  <rect height="113.272" opacity="0" width="91.6737" x="0" y="0"/>
  <path d="M10.4438 20.7627C16.103 20.7627 20.767 16.0986 20.767 10.3232C20.767 4.63037 16.103 0 10.4438 0C4.6684 0 0.00433816 4.63037 0.00433816 10.3232C0.00433816 16.0986 4.6684 20.7627 10.4438 20.7627ZM4.97993 59.7368L24.6499 59.7368L25.8403 60.9121C28.2211 63.293 31.4204 64.4834 34.5673 64.4834C37.1923 64.4834 39.7045 63.6836 41.9389 62.02L65.687 44.2427L89.3037 30.0518C91.5717 28.6997 92.3379 25.7783 91.0498 23.48C89.6152 21.2119 86.6787 20.5098 84.3955 21.8804L39.4267 48.8091L26.9179 36.2666C26.5913 35.9736 26.7866 35.5493 27.1958 35.5493L38.6606 35.5493C41.3344 35.5493 43.5048 33.4277 43.5048 30.769L43.5048 9.76221C43.5048 7.05469 41.3344 4.90283 38.6606 4.90283C36.0019 4.90283 33.85 7.05469 33.85 9.76221L33.85 26.0225L9.72651 26.0225C4.50678 26.0225 0.169377 30.2808 0.169377 35.5493L0.169377 54.9263C0.169377 57.5025 2.27241 59.7368 4.97993 59.7368ZM9.39985 50.3413L9.39985 45.7598C9.39985 45.1065 10.166 44.7495 10.6391 45.2378L15.7123 50.3413ZM35.2846 112.648C37.7631 113.121 40.5043 111.491 41.0263 108.848L45.8369 84.773C45.9682 84.1533 45.9682 83.6651 45.8857 82.9966L44.9731 65.2363C41.604 67.7451 38.0747 68.8379 34.5673 68.8379C34.1279 68.8379 33.6396 68.8228 33.1513 68.7891L36.1484 83.8115L31.5332 106.94C31.0112 109.565 32.7236 112.126 35.2846 112.648ZM41.0903 16.9385C45.0556 16.9385 48.3491 13.7427 48.3491 9.76221C48.3491 5.73291 45.0556 2.53711 41.0903 2.53711C37.1435 2.53711 33.85 5.73291 33.85 9.76221C33.85 13.7427 37.1435 16.9385 41.0903 16.9385Z" fill="#000000" fill-opacity="0.85"/>
 </g>
</svg>
