<?xml version="1.0" encoding="UTF-8"?>
<!--Generator: Apple Native CoreSVG 232.5-->
<!DOCTYPE svg
PUBLIC "-//W3C//DTD SVG 1.1//EN"
       "http://www.w3.org/Graphics/SVG/1.1/DTD/svg11.dtd">
<svg version="1.1" xmlns="http://www.w3.org/2000/svg" xmlns:xlink="http://www.w3.org/1999/xlink" width="153.58" height="98.5904">
 <g>
  <rect height="98.5904" opacity="0" width="153.58" x="0" y="0"/>
  <path d="M126.69 26.8479C133.802 26.8479 139.555 20.9109 139.555 14.0125C139.555 6.83619 133.802 1.01539 126.69 1.01539C119.513 1.01539 113.787 6.83619 113.787 14.0125C113.787 21.2879 119.513 26.8479 126.69 26.8479ZM49.9044 94.9197C52.3829 97.5261 56.6378 97.2854 59.6383 94.1385L80.1686 72.9885C80.8522 72.2713 81.3405 72.0759 82.3693 72.5003L98.7907 78.7166C109.035 82.6331 118.523 78.8484 123.237 70.3137L133.179 52.2141C137.205 44.9251 135.886 37.3919 128.958 33.6892C122.206 30.0051 115.243 32.7766 111.184 40.261L97.8112 64.6218L86.4777 60.4646C80.7882 58.3953 76.1242 59.0637 71.6554 63.7278L50.3439 85.7566C47.3922 88.8211 47.67 92.6214 49.9044 94.9197Z" fill="#000000" fill-opacity="0.85"/>
  <path d="M0.688584 15.1033L13.7276 31.8347C14.2984 32.5857 15.1656 32.7171 15.9654 32.2742C18.9879 30.6897 23.4986 29.5667 27.0631 29.5667C30.6764 29.5667 35.172 30.6897 38.1271 32.2742C39.0094 32.7171 39.8917 32.5857 40.4137 31.8347L53.4713 15.1033C54.5475 13.6819 54.3488 12.2302 53.0436 11.1726C47.5631 7.06764 37.3546 3.96949 27.0631 3.96949C16.8053 3.96949 6.61192 7.06764 1.15001 11.1726C-0.222551 12.2302-0.353898 13.697 0.688584 15.1033ZM14.5035 41.9436C13.0655 40.0476 12.4762 38.2678 12.4762 36.2508C12.4762 31.9636 16.1114 30.5193 16.1114 27.9549C16.1114 25.3718 12.4762 23.9915 12.4762 19.5579C12.4762 17.5896 13.0655 15.8098 14.5338 13.9475C16.046 12.1389 18.7438 14.0486 17.2955 15.9549C16.2213 17.4382 15.8829 18.2986 15.8829 19.5579C15.8829 22.8328 19.4996 23.8362 19.4996 27.9549C19.4996 32.0852 15.8829 33.1375 15.8829 36.2508C15.8829 37.6565 16.2213 38.4192 17.2652 39.8909C18.6495 41.7634 16.0006 43.6917 14.5035 41.9436ZM25.6149 41.9436C24.2594 40.0476 23.6212 38.2678 23.6212 36.2508C23.6212 31.9636 27.2565 30.5193 27.2565 27.9549C27.2565 25.3718 23.6212 23.9915 23.6212 19.5579C23.6212 17.5896 24.2106 15.8098 25.6451 13.9475C27.1573 12.1389 29.8888 14.0486 28.4742 15.9549C27.3663 17.4382 27.0279 18.2986 27.0279 19.5579C27.0279 22.8328 30.6783 23.8362 30.6783 27.9549C30.6783 32.0852 27.0279 33.1375 27.0279 36.2508C27.0279 37.6565 27.3663 38.4192 28.4103 39.8909C29.7945 41.7634 27.1119 43.6917 25.6149 41.9436ZM36.8273 41.9436C35.4044 40.0476 34.7662 38.2678 34.7662 36.2508C34.7662 31.9636 38.4352 30.5193 38.4352 27.9549C38.4352 25.3718 34.7662 23.9915 34.7662 19.5579C34.7662 17.5896 35.3556 15.8098 36.8912 13.9475C38.3697 12.1389 41.0338 14.0486 39.6193 15.9549C38.545 17.4382 38.1881 18.2986 38.1881 19.5579C38.1881 22.8328 41.8234 23.8362 41.8234 27.9549C41.8234 32.0852 38.1881 33.1375 38.1881 36.2508C38.1881 37.6565 38.545 38.4192 39.5553 39.8909C40.9733 41.7634 38.3058 43.6917 36.8273 41.9436ZM78.3844 42.9705C79.9811 42.9705 81.1954 41.741 81.1954 40.1594L81.1954 19.512L89.8356 19.512C92.7272 19.512 93.9869 16.5261 92.0519 14.3469L80.7975 1.20044C79.3678-0.406002 77.3893-0.394284 76.0387 1.20044L64.7843 14.3469C62.9166 16.4587 63.9894 19.512 67.0006 19.512L75.607 19.512L75.607 40.1594C75.607 41.741 76.8702 42.9705 78.3844 42.9705Z" fill="#000000" fill-opacity="0.85"/>
 </g>
</svg>
