<?xml version="1.0" encoding="UTF-8"?>
<!--Generator: Apple Native CoreSVG 232.5-->
<!DOCTYPE svg
PUBLIC "-//W3C//DTD SVG 1.1//EN"
       "http://www.w3.org/Graphics/SVG/1.1/DTD/svg11.dtd">
<svg version="1.1" xmlns="http://www.w3.org/2000/svg" xmlns:xlink="http://www.w3.org/1999/xlink" width="67.2601" height="128.087">
 <g>
  <rect height="128.087" opacity="0" width="67.2601" x="0" y="0"/>
  <path d="M53.1581 32.9893C58.851 32.9893 63.4814 28.3252 63.4814 22.5498C63.4814 16.8906 58.851 12.2266 53.1581 12.2266C47.3827 12.2266 42.7187 16.8906 42.7187 22.5498C42.7187 28.3252 47.3827 32.9893 53.1581 32.9893ZM28.8818 127.55C31.5068 127.55 33.6923 125.413 33.6923 122.77L33.6923 99.0552L44.9667 82.4214C45.3305 81.8438 46.1405 82.0239 46.2382 82.7515L47.9809 97.6695C48.0785 98.4693 48.2402 98.9087 48.6005 99.8062L57.9623 124.482C59.0888 127.452 61.8451 128.087 64.0795 127.272C66.3139 126.408 68.0263 124.125 66.8998 121.091L57.6542 96.5918L57.6542 51.3486C57.6542 46.2754 55.5326 41.0068 50.6396 39.0166L47.6391 37.7774C42.1415 35.5093 36.9555 36.1626 32.3066 39.4898L21.0522 47.5972L7.55265 41.8862L32.8276 6.85059L41.5238 6.85059C43.4335 6.85059 44.9828 5.30128 44.9828 3.44043C44.9828 1.48194 43.4335 0 41.5238 0L33.4335 0C32.6908 0 31.9784 0.375488 31.5321 0.971681L0.995026 43.2549C-0.638276 45.5078-0.368743 48.9712 2.61124 50.2339L19.7489 57.5635C20.5302 57.8716 21.0522 57.9204 22.1298 57.9204L33.5795 57.9204C35.4047 57.9204 36.0092 59.1109 36.0092 60.4326L36.0092 73.5796L24.5595 95.3037C24.1352 96.1035 24.0375 96.708 24.0375 97.6206L24.0375 122.77C24.0375 125.413 26.1742 127.55 28.8818 127.55Z" fill="#000000" fill-opacity="0.85"/>
 </g>
</svg>
