<?xml version="1.0" encoding="UTF-8"?>
<!--Generator: Apple Native CoreSVG 232.5-->
<!DOCTYPE svg
PUBLIC "-//W3C//DTD SVG 1.1//EN"
       "http://www.w3.org/Graphics/SVG/1.1/DTD/svg11.dtd">
<svg version="1.1" xmlns="http://www.w3.org/2000/svg" xmlns:xlink="http://www.w3.org/1999/xlink" width="63.9919" height="106.764">
 <g>
  <rect height="106.764" opacity="0" width="63.9919" x="0" y="0"/>
  <path d="M7.81697 102.601L22.1358 85.5596C23.5216 83.8809 23.7657 83.5205 24.3214 81.7442L25.4713 78.1211L17.9278 68.6665L15.5201 79.732L1.38142 96.5108C-3.02678 101.801 4.20857 106.96 7.81697 102.601ZM42.8023 101.197C45.7237 107.043 54.36 103.435 51.2096 97.0664L41.4757 77.3999C40.7398 75.9468 39.7296 74.3623 38.8018 73.0288L32.6241 64.2749L33.0636 62.9414C34.6783 57.9995 35.3282 55.0479 35.6886 50.1699L36.65 36.4067C37.1231 29.8384 33.2135 25.0024 26.6466 25.0024C21.671 25.0024 18.2613 27.5147 13.6612 32.0322L6.37215 39.2388C4.06697 41.5103 3.25545 43.3726 3.01131 46.4859L2.14754 57.7368C1.91853 60.5606 3.45418 62.5054 6.03377 62.5879C8.66219 62.7832 10.2315 61.2627 10.4757 58.2588L11.5533 45.8848L15.0723 42.7227C16.3604 41.5659 18.1417 42.3018 18.0626 43.6958L17.2965 54.1167C16.8721 59.4004 18.0963 61.8823 21.7164 66.4151L31.3712 78.4995C32.3477 79.7388 32.4303 80.2271 32.8546 80.9932ZM59.295 43.5913L48.273 43.5913L41.1021 35.624L40.3175 46.9072L43.422 50.0117C44.939 51.5288 46.2457 52.002 49.0694 52.002L59.295 52.002C62.1187 52.002 63.981 50.3872 63.981 47.7891C63.981 45.2583 62.085 43.5913 59.295 43.5913ZM31.8883 20.6231C37.566 20.6231 42.1661 16.0044 42.1661 10.3115C42.1661 4.58496 37.566 0 31.8883 0C26.1617 0 21.5767 4.58496 21.5767 10.3115C21.5767 16.0044 26.1617 20.6231 31.8883 20.6231Z" fill="#000000" fill-opacity="0.85"/>
 </g>
</svg>
