<?xml version="1.0" encoding="UTF-8"?>
<!--Generator: Apple Native CoreSVG 232.5-->
<!DOCTYPE svg
PUBLIC "-//W3C//DTD SVG 1.1//EN"
       "http://www.w3.org/Graphics/SVG/1.1/DTD/svg11.dtd">
<svg version="1.1" xmlns="http://www.w3.org/2000/svg" xmlns:xlink="http://www.w3.org/1999/xlink" width="82.0405" height="103.823">
 <g>
  <rect height="103.823" opacity="0" width="82.0405" x="0" y="0"/>
  <path d="M31.8218 96.125C33.6655 95.5879 34.8071 95.0171 35.5733 93.5977L46.0581 74.7461C46.208 74.4497 46.3848 74.3032 46.7485 74.3032L72.3521 74.3032L72.3521 98.4082C72.3521 101.149 74.5225 103.237 77.1475 103.237C79.8887 103.237 82.0405 101.149 82.0405 98.4082L82.0405 70.0298C82.0405 66.8491 80.3281 64.9717 76.9859 64.6787L55.4873 62.7222L55.4873 35.6958C55.4873 30.4121 51.7847 26.0562 45.2617 26.0562L42.9937 26.0562C39.1445 26.0562 36.1929 26.7246 32.4077 29.5635L16.4253 41.5352C13.6841 43.5254 13.8794 47.5698 16.6694 49.4136L36.1929 62.3804L36.1929 63.6196L27.6797 87.2027L3.55615 93.8267C0.995117 94.544-0.521973 97.169 0.180176 99.7149C0.961426 102.438 3.36084 103.823 6.11719 103.106ZM27.6797 45.1401L34.9199 39.7402C35.4907 39.3648 36.1929 39.6426 36.1929 40.3599L36.1929 50.7993ZM45.2617 20.7627C50.9209 20.7627 55.585 16.0986 55.585 10.3232C55.585 4.66406 50.9209 0 45.2617 0C39.4863 0 34.8223 4.66406 34.8223 10.3232C34.8223 16.0986 39.4863 20.7627 45.2617 20.7627Z" fill="#000000" fill-opacity="0.85"/>
 </g>
</svg>
