<?xml version="1.0" encoding="UTF-8"?>
<!--Generator: Apple Native CoreSVG 232.5-->
<!DOCTYPE svg
PUBLIC "-//W3C//DTD SVG 1.1//EN"
       "http://www.w3.org/Graphics/SVG/1.1/DTD/svg11.dtd">
<svg version="1.1" xmlns="http://www.w3.org/2000/svg" xmlns:xlink="http://www.w3.org/1999/xlink" width="153.58" height="137.562">
 <g>
  <rect height="137.562" opacity="0" width="153.58" x="0" y="0"/>
  <path d="M126.69 46.3338C133.802 46.3338 139.555 40.3968 139.555 33.4983C139.555 26.322 133.802 20.5012 126.69 20.5012C119.513 20.5012 113.787 26.322 113.787 33.4983C113.787 40.7737 119.513 46.3338 126.69 46.3338ZM49.9044 114.406C52.3829 117.012 56.6378 116.771 59.6383 113.624L80.1686 92.4744C80.8522 91.7571 81.3405 91.5618 82.3693 91.9861L98.7907 98.2024C109.035 102.119 118.523 98.3343 123.237 89.7996L133.179 71.7C137.205 64.4109 135.886 56.8777 128.958 53.1751C122.206 49.491 115.243 52.2625 111.184 59.7469L97.8112 84.1077L86.4777 79.9505C80.7882 77.8811 76.1242 78.5496 71.6554 83.2137L50.3439 105.242C47.3922 108.307 47.67 112.107 49.9044 114.406Z" fill="#000000" fill-opacity="0.85"/>
  <path d="M0.688584 34.5891L13.7276 51.3206C14.2984 52.0716 15.1656 52.2029 15.9654 51.76C18.9879 50.1756 23.4986 49.0525 27.0631 49.0525C30.6764 49.0525 35.172 50.1756 38.1271 51.76C39.0094 52.2029 39.8917 52.0716 40.4137 51.3206L53.4713 34.5891C54.5475 33.1678 54.3488 31.7161 53.0436 30.6585C47.5631 26.5535 37.3546 23.4554 27.0631 23.4554C16.8053 23.4554 6.61192 26.5535 1.15001 30.6585C-0.222551 31.7161-0.353898 33.1829 0.688584 34.5891ZM14.5035 61.4295C13.0655 59.5335 12.4762 57.7537 12.4762 55.7366C12.4762 51.4495 16.1114 50.0052 16.1114 47.4407C16.1114 44.8577 12.4762 43.4773 12.4762 39.0437C12.4762 37.0755 13.0655 35.2957 14.5338 33.4334C16.046 31.6248 18.7438 33.5345 17.2955 35.4407C16.2213 36.9241 15.8829 37.7845 15.8829 39.0437C15.8829 42.3186 19.4996 43.3221 19.4996 47.4407C19.4996 51.5711 15.8829 52.6233 15.8829 55.7366C15.8829 57.1424 16.2213 57.9051 17.2652 59.3767C18.6495 61.2493 16.0006 63.1775 14.5035 61.4295ZM25.6149 61.4295C24.2594 59.5335 23.6212 57.7537 23.6212 55.7366C23.6212 51.4495 27.2565 50.0052 27.2565 47.4407C27.2565 44.8577 23.6212 43.4773 23.6212 39.0437C23.6212 37.0755 24.2106 35.2957 25.6451 33.4334C27.1573 31.6248 29.8888 33.5345 28.4742 35.4407C27.3663 36.9241 27.0279 37.7845 27.0279 39.0437C27.0279 42.3186 30.6783 43.3221 30.6783 47.4407C30.6783 51.5711 27.0279 52.6233 27.0279 55.7366C27.0279 57.1424 27.3663 57.9051 28.4103 59.3767C29.7945 61.2493 27.1119 63.1775 25.6149 61.4295ZM36.8273 61.4295C35.4044 59.5335 34.7662 57.7537 34.7662 55.7366C34.7662 51.4495 38.4352 50.0052 38.4352 47.4407C38.4352 44.8577 34.7662 43.4773 34.7662 39.0437C34.7662 37.0755 35.3556 35.2957 36.8912 33.4334C38.3697 31.6248 41.0338 33.5345 39.6193 35.4407C38.545 36.9241 38.1881 37.7845 38.1881 39.0437C38.1881 42.3186 41.8234 43.3221 41.8234 47.4407C41.8234 51.5711 38.1881 52.6233 38.1881 55.7366C38.1881 57.1424 38.545 57.9051 39.5553 59.3767C40.9733 61.2493 38.3058 63.1775 36.8273 61.4295ZM62.5099 32.6365C63.8556 32.6214 64.9655 31.5267 64.9655 30.1473L64.9655 16.7903L72.2858 16.7903C74.8322 16.7903 75.8561 14.2205 74.1837 12.3343L64.6114 1.05838C63.3619-0.36789 61.6461-0.337616 60.442 1.05838L50.7535 12.304C49.1183 14.1009 50.1051 16.7903 52.7037 16.7903L60.0055 16.7903L60.0392 30.1473C60.0392 31.5418 61.1002 32.7039 62.5099 32.6365ZM70.608 38.574C70.6232 40.0208 71.7516 41.097 73.0485 41.097L86.4205 41.097L86.4054 48.3987C86.4054 50.9114 89.0763 51.9876 90.944 50.3152L102.137 40.6756C103.612 39.4598 103.5 37.7591 102.137 36.6072L90.9591 26.885C89.1437 25.2649 86.4205 26.2703 86.4205 28.8015L86.4054 36.1033L73.0485 36.1033C71.6876 36.1033 70.608 37.2317 70.608 38.574ZM62.4762 44.5603C61.0665 44.5603 60.0055 45.6551 60.0055 47.0833L60.0055 60.4065L52.7037 60.4065C50.0377 60.4065 49.0846 63.096 50.7198 64.9266L60.4757 76.1385C61.6798 77.4671 63.3619 77.5984 64.5778 76.1722L74.1837 64.8289C75.7887 62.9764 74.7985 60.4065 72.2858 60.4065L64.9655 60.4065L64.9655 47.0833C64.9655 45.7039 63.7882 44.6092 62.4762 44.5603Z" fill="#000000" fill-opacity="0.85"/>
 </g>
</svg>
