<?xml version="1.0" encoding="UTF-8"?>
<!--Generator: Apple Native CoreSVG 232.5-->
<!DOCTYPE svg
PUBLIC "-//W3C//DTD SVG 1.1//EN"
       "http://www.w3.org/Graphics/SVG/1.1/DTD/svg11.dtd">
<svg version="1.1" xmlns="http://www.w3.org/2000/svg" xmlns:xlink="http://www.w3.org/1999/xlink" width="93.231" height="114.519">
 <g>
  <rect height="114.519" opacity="0" width="93.231" x="0" y="0"/>
  <path d="M44.169 20.6231C49.8618 20.6231 54.4468 16.0381 54.4468 10.2778C54.4468 4.6001 49.8618 0 44.169 0C38.4238 0 33.8237 4.6001 33.8237 10.2778C33.8237 16.0381 38.4238 20.6231 44.169 20.6231ZM1.7124 112.981C3.70264 114.694 6.80078 114.596 8.64453 112.508L25.5581 93.1953C26.4707 92.1362 26.9775 90.9795 27.1089 89.6577L29.2607 68.6343C29.3247 68.023 30 67.7754 30.4126 68.2554L44.169 84.1602L44.169 109.279C44.169 111.986 46.3545 114.221 49.1109 114.221C51.7695 114.221 54.0527 111.986 54.0527 109.279L54.0527 82.5303C54.0527 81.2085 53.6133 80.2959 53.0088 79.4136L38.5737 58.3091L45.6035 37.3174C45.9942 36.1909 46.7451 35.7515 47.8716 35.7515L85.8897 35.7515C88.5332 35.7515 90.8316 33.5659 90.8316 30.8584C90.8316 28.1509 88.5332 25.9165 85.8897 25.9165L28.6411 25.9165C24.6606 25.9165 21.4312 27.0581 18.2017 30.2539L8.83985 39.6982C5.69287 42.8638 7.40528 48.0498 11.7427 48.0498L20.5674 48.0498L18.6597 53.709C17.6646 56.7432 17.2065 59.8901 17.2065 62.958L17.2065 87.8628L1.23926 106.049C-0.570801 108.104-0.375488 111.187 1.7124 112.981ZM85.8897 40.7422C89.919 40.7422 93.231 37.4302 93.231 33.2881C93.231 29.2285 89.919 25.9165 85.8897 25.9165C81.7476 25.9165 78.4053 29.2285 78.4053 33.2881C78.4053 37.4302 81.7476 40.7422 85.8897 40.7422Z" fill="#000000" fill-opacity="0.85"/>
 </g>
</svg>
