<?xml version="1.0" encoding="UTF-8"?>
<!--Generator: Apple Native CoreSVG 232.5-->
<!DOCTYPE svg
PUBLIC "-//W3C//DTD SVG 1.1//EN"
       "http://www.w3.org/Graphics/SVG/1.1/DTD/svg11.dtd">
<svg version="1.1" xmlns="http://www.w3.org/2000/svg" xmlns:xlink="http://www.w3.org/1999/xlink" width="83.0845" height="115.56">
 <g>
  <rect height="115.56" opacity="0" width="83.0845" x="0" y="0"/>
  <path d="M19.6148 35.6846C25.3076 35.6846 29.8926 31.0996 29.8926 25.3545C29.8926 19.6616 25.3076 15.0767 19.6148 15.0767C13.9033 15.0767 9.26954 19.6616 9.26954 25.3545C9.26954 31.0996 13.9033 35.6846 19.6148 35.6846ZM45.8477 85.5967L60.5606 65.3711L69.8736 82.3672C73.0205 96.9488 73.3809 108.121 73.3809 109.833C73.3809 112.77 75.5816 114.955 78.2403 114.955C80.9966 114.955 83.0845 112.77 83.0845 109.98C83.0845 109.491 82.5679 96.814 79.3667 79.6597L79.2017 78.8111C75.5088 59.1445 62.6973 22.8843 30.4512 1.46826C28.8213 0.473145 27.417 0 25.7534 0L4.85938 0C2.18555 0 0 2.18555 0 4.85938C0 7.64942 2.18555 9.83496 4.85938 9.83496L25.3628 9.83496C30.4512 13.3423 34.8711 17.1426 38.9004 21.2358C39.4712 21.7578 39.5352 22.6065 39.1445 23.2412L22.7192 51.2964C20.6987 54.8189 23.1284 58.668 26.9439 58.668L49.355 58.668L37.5786 80.3281L37.1055 81.1919L22.6065 107.681C21.2847 110.062 22.1333 113.096 24.5142 114.335C26.7485 115.526 29.7676 115.004 31.2022 112.379ZM35.3931 48.9155L39.0317 42.7007C39.6177 41.6231 40.7441 41.8521 41.2324 42.5693L45.4907 48.9155Z" fill="#000000" fill-opacity="0.85"/>
 </g>
</svg>
