<?xml version="1.0" encoding="UTF-8"?>
<!--Generator: Apple Native CoreSVG 232.5-->
<!DOCTYPE svg
PUBLIC "-//W3C//DTD SVG 1.1//EN"
       "http://www.w3.org/Graphics/SVG/1.1/DTD/svg11.dtd">
<svg version="1.1" xmlns="http://www.w3.org/2000/svg" xmlns:xlink="http://www.w3.org/1999/xlink" width="82.5137" height="105.106">
 <g>
  <rect height="105.106" opacity="0" width="82.5137" x="0" y="0"/>
  <path d="M41.2324 20.5894C46.959 20.5894 51.544 15.9893 51.544 10.3115C51.544 4.58496 46.959 0 41.2324 0C35.521 0 30.936 4.58496 30.936 10.3115C30.936 15.9893 35.521 20.5894 41.2324 20.5894ZM41.2324 65.3794C43.2681 65.3794 44.1924 66.7095 45.1909 70.1865C46.6475 74.9448 51.7173 94.9229 53.2124 100.811C53.896 103.672 55.4351 104.941 57.6543 104.941C60.6279 104.941 62.4077 102.246 61.6231 99.2754C61.2964 98.0025 54.2735 69.1543 53.4365 63.2022C52.5845 57.1035 52.4297 43.8135 52.4448 39.7202C52.4751 36.73 53.7818 34.9502 56.2197 34.4585C58.4541 33.9517 76.5918 31.8589 79.0098 31.1953C81.1245 30.6514 82.5137 28.9424 82.5137 26.7871C82.5137 24.1367 80.5469 22.4731 78.5449 22.4731C77.6543 22.4731 76.8277 22.6685 75.7974 22.8789C68.71 24.1856 52.6182 25.8677 41.2324 25.8677C29.9292 25.8677 13.77 24.2529 6.68262 22.8789C5.68604 22.6685 4.82568 22.4731 3.96875 22.4731C1.89942 22.4731 0 24.1367 0 26.7871C0 28.9424 1.32178 30.771 3.47022 31.1953C5.97412 31.7056 24.0259 34.0191 26.2603 34.4585C28.6982 34.898 30.0386 36.73 30.0874 39.7202C30.1514 43.8135 29.9292 57.1035 29.0435 63.2022C28.1729 69.1543 21.1836 98.0025 20.8569 99.2754C20.0386 102.246 21.8521 104.941 24.8257 104.941C27.0298 104.941 28.5166 103.672 29.3013 100.811C30.916 94.9566 35.8325 75.0122 37.3413 70.1865C38.3887 66.7769 39.2456 65.3794 41.2324 65.3794Z" fill="#000000" fill-opacity="0.85"/>
 </g>
</svg>
