<?xml version="1.0" encoding="UTF-8"?>
<!--Generator: Apple Native CoreSVG 232.5-->
<!DOCTYPE svg
PUBLIC "-//W3C//DTD SVG 1.1//EN"
       "http://www.w3.org/Graphics/SVG/1.1/DTD/svg11.dtd">
<svg version="1.1" xmlns="http://www.w3.org/2000/svg" xmlns:xlink="http://www.w3.org/1999/xlink" width="84.8999" height="114.219">
 <g>
  <rect height="114.219" opacity="0" width="84.8999" x="0" y="0"/>
  <path d="M34.0176 20.7627C39.7105 20.7627 44.3257 16.0986 44.3257 10.3232C44.3257 4.63037 39.7105 0 34.0176 0C28.2422 0 23.5781 4.63037 23.5781 10.3232C23.5781 16.0986 28.2422 20.7627 34.0176 20.7627ZM55.7905 113.429C58.5318 113.429 60.6533 111.244 60.6533 108.57L60.6533 81.5923C60.6533 80.4356 60.0488 78.836 58.5318 77.8408L41.1939 66.2935L41.1939 36.9502C41.1939 36.3306 41.7158 35.7598 42.3692 35.7598L80.0606 35.7598C82.7529 35.7598 84.8897 33.5591 84.8897 30.9155C84.8897 28.2417 82.7529 26.0562 80.0606 26.0562L26.4658 26.0562C21.9146 26.0562 19.4512 27.686 17.1191 30.5737L4.47901 46.1016C1.42969 49.8193 3.89307 55.1856 7.83985 55.1856L21.8169 55.1856L21.8169 61.8887C21.8169 66.2935 24.2954 70.4356 28.2759 72.5723L50.9312 84.773L50.9312 108.57C50.9312 111.244 53.1167 113.429 55.7905 113.429ZM16.875 45.79L22.0947 39.2974L22.0947 45.79ZM1.15186 111.766C3.01074 113.838 6.02979 113.966 8.08399 112.175L27.1343 95.5054C28.0806 94.6568 28.4561 94.2661 28.7979 93.3838L33.9619 80.5772L26.166 76.4014C25.3999 75.9619 24.6338 75.4434 23.9165 74.9063L20.0068 88.8511L1.625 104.916C-0.331542 106.628-0.560546 109.809 1.15186 111.766Z" fill="#000000" fill-opacity="0.85"/>
 </g>
</svg>
