<?xml version="1.0" encoding="UTF-8"?>
<!--Generator: Apple Native CoreSVG 232.5-->
<!DOCTYPE svg
PUBLIC "-//W3C//DTD SVG 1.1//EN"
       "http://www.w3.org/Graphics/SVG/1.1/DTD/svg11.dtd">
<svg version="1.1" xmlns="http://www.w3.org/2000/svg" xmlns:xlink="http://www.w3.org/1999/xlink" width="98.124" height="105.397">
 <g>
  <rect height="105.397" opacity="0" width="98.124" x="0" y="0"/>
  <path d="M66.7266 20.7627C72.4683 20.7627 77.065 16.1475 77.065 10.3721C77.065 4.63037 72.4683 0 66.7266 0C60.9512 0 56.3023 4.63037 56.3023 10.3721C56.3023 16.1475 60.9512 20.7627 66.7266 20.7627ZM34.398 105.393C37.0415 105.393 39.3096 103.208 39.3096 100.485L39.3096 55.8765C50.1548 54.1304 59.5503 46.9541 64.0679 37.168C64.4585 36.1729 65.585 35.6846 67.4927 36.353L91.5186 44.4419C94.8457 45.5347 97.1441 43.7246 97.8613 41.3926C98.6123 39.0269 97.7486 36.124 94.6655 35.1138L22.6553 11.0879C19.3281 9.96143 17.0112 11.8052 16.2939 14.1221C15.543 16.5029 16.4253 19.3418 19.5234 20.4009L45.4082 29.0606C46.5986 29.4697 47.2031 30.8892 46.437 32.1284C43.6958 36.4658 39.6177 39.0757 34.398 39.0757L9.83496 39.0757L9.83496 14.3999C9.83496 11.5122 7.87842 9.52198 4.89307 9.52198C1.94141 9.52198 0 11.5122 0 14.3999L0 43.5781C0 46.8076 1.59961 48.3247 4.07813 48.749L25.8359 52.3692L29.4898 73.834L29.4898 100.485C29.4898 103.208 31.6753 105.393 34.398 105.393Z" fill="#000000" fill-opacity="0.85"/>
 </g>
</svg>
