<?xml version="1.0" encoding="UTF-8"?>
<!--Generator: Apple Native CoreSVG 232.5-->
<!DOCTYPE svg
PUBLIC "-//W3C//DTD SVG 1.1//EN"
       "http://www.w3.org/Graphics/SVG/1.1/DTD/svg11.dtd">
<svg version="1.1" xmlns="http://www.w3.org/2000/svg" xmlns:xlink="http://www.w3.org/1999/xlink" width="142.234" height="112.229">
 <g>
  <rect height="112.229" opacity="0" width="142.234" x="0" y="0"/>
  <path d="M128.343 36.7695L140.184 54.0713C140.797 54.94 141.3 55.6724 141.77 56.4502C142.765 58.2754 142.179 60.7793 139.84 62.0068C137.947 63.0357 135.713 62.7427 134.309 61.0674C133.051 59.5352 126.165 49.7832 122.847 45.2163C122.408 44.5781 121.59 44.856 121.59 45.5615C121.59 49.7197 121.845 61.2407 122.63 66.7632C123.501 72.7153 130.49 101.563 130.85 102.836C131.669 105.807 129.855 108.502 126.882 108.502C124.677 108.502 123.191 107.233 122.406 104.372C120.791 98.5176 115.841 78.5733 114.366 73.7476C113.319 70.3379 112.428 68.9404 110.475 68.9404C108.473 68.9404 107.582 70.3379 106.584 73.7476C105.06 78.5733 100.11 98.5176 98.5285 104.372C97.7102 107.233 96.2722 108.502 94.0529 108.502C91.0793 108.502 89.2321 105.807 90.0842 102.836C90.4108 101.563 97.4001 72.7153 98.2707 66.7632C99.0554 61.2407 99.3449 49.7534 99.3449 45.5952C99.3449 44.856 98.4929 44.5967 98.0534 45.2163C96.6509 47.1613 94.6106 50.0209 92.6278 52.7892C92.2789 51.6191 91.638 50.5139 90.7458 49.5649C89.3324 47.9907 87.3895 47.201 85.459 47.162L92.5915 36.7695C96.9435 30.4072 102.348 28.4971 110.475 28.4971C118.587 28.4971 123.957 30.4072 128.343 36.7695ZM120.568 13.1597C120.568 18.792 116.092 23.2036 110.475 23.2036C104.842 23.2036 100.397 18.792 100.397 13.1597C100.397 7.5122 104.842 3.06689 110.475 3.06689C116.092 3.06689 120.568 7.5122 120.568 13.1597Z" fill="#000000" fill-opacity="0.85"/>
  <path d="M49.6579 36.7695L56.7803 47.1605C54.838 47.1947 52.8813 47.9844 51.4548 49.5649C50.577 50.5108 49.9428 51.6176 49.5958 52.7917C47.612 50.0159 45.5718 47.1509 44.1808 45.2163C43.7077 44.5781 42.8893 44.856 42.8893 45.5615C42.8893 49.7197 43.1452 61.2407 43.9299 66.7632C44.8493 72.7153 51.8234 101.563 52.1501 102.836C52.9684 105.807 51.1701 108.502 48.1813 108.502C45.9772 108.502 44.5055 107.233 43.7209 104.372C42.091 98.5176 37.1896 78.5733 35.6657 73.7476C34.6335 70.3379 33.7765 68.9404 31.7746 68.9404C29.7726 68.9404 28.9157 70.3379 27.8835 73.7476C26.3595 78.5733 21.4582 98.5176 19.8283 104.372C19.0436 107.233 17.5719 108.502 15.3527 108.502C12.3791 108.502 10.5807 105.807 11.384 102.836C11.7258 101.563 18.6999 72.7153 19.5856 66.7632C20.3552 61.2407 20.6447 49.7534 20.6447 45.5952C20.6447 44.856 19.8078 44.5967 19.3683 45.2163C16.0846 49.8169 9.14958 59.5352 7.90691 61.0674C6.52116 62.7427 4.2531 63.0357 2.40935 62.0068C0.0216505 60.7793-0.515459 58.2754 0.479659 56.4502C0.900557 55.6724 1.4528 54.94 2.0319 54.0713L13.8913 36.7695C18.2433 30.4072 23.6628 28.4971 31.7746 28.4971C39.8864 28.4971 45.2907 30.4072 49.6579 36.7695ZM41.8674 13.1597C41.8674 18.792 37.3918 23.2036 31.7746 23.2036C26.1423 23.2036 21.6969 18.792 21.6969 13.1597C21.6969 7.5122 26.1423 3.06689 31.7746 3.06689C37.3918 3.06689 41.8674 7.5122 41.8674 13.1597Z" fill="#000000" fill-opacity="0.85"/>
  <path d="M71.1247 56.2173C75.2702 56.2173 78.6833 52.8379 78.6833 48.6924C78.6833 44.562 75.2702 41.1826 71.1247 41.1826C66.9641 41.1826 63.6149 44.562 63.6149 48.6924C63.6149 52.8379 66.9641 56.2173 71.1247 56.2173ZM61.0119 108.502C62.8254 108.502 64.2634 107.489 64.8527 105.168C65.863 101.597 68.7658 89.3477 69.7121 86.3472C70.3957 84.3604 70.5573 84.1836 71.1247 84.1836C71.6584 84.1836 71.82 84.3604 72.5036 86.3472C73.4348 89.3477 76.3376 101.597 77.3815 105.168C77.9372 107.489 79.424 108.502 81.1887 108.502C83.8019 108.502 85.3864 106.066 84.718 103.633C84.4738 102.818 80.3469 85.2022 79.6784 81.4995C79.2053 78.5176 79.0588 72.5806 79.0588 70.2149C79.0588 68.814 79.5285 67.8862 80.3132 66.94C83.7531 62.6665 88.0602 57.7734 88.5822 56.9585C89.6935 55.3403 89.2844 53.4443 88.0114 52.1226C86.5886 50.5044 84.1706 50.5381 82.9128 51.8447L77.8884 57.1958C75.7702 59.4453 73.9787 60.5195 71.1247 60.5195C68.2556 60.5195 66.4641 59.4453 64.3459 57.1958L59.3215 51.8447C58.0788 50.5381 55.6271 50.5044 54.2043 52.1226C52.9313 53.4443 52.5407 55.3403 53.6183 56.9585C54.1403 57.7734 58.4777 62.6665 61.9362 66.94C62.6872 67.8862 63.1418 68.814 63.1418 70.2149C63.1418 72.5806 63.029 78.5176 62.5558 81.4995C61.9025 85.2022 57.7267 102.818 57.4826 103.633C56.8478 106.066 58.3986 108.502 61.0119 108.502Z" fill="#000000" fill-opacity="0.85"/>
 </g>
</svg>
