<?xml version="1.0" encoding="UTF-8"?>
<!--Generator: Apple Native CoreSVG 232.5-->
<!DOCTYPE svg
PUBLIC "-//W3C//DTD SVG 1.1//EN"
       "http://www.w3.org/Graphics/SVG/1.1/DTD/svg11.dtd">
<svg version="1.1" xmlns="http://www.w3.org/2000/svg" xmlns:xlink="http://www.w3.org/1999/xlink" width="75.2859" height="111.542">
 <g>
  <rect height="111.542" opacity="0" width="75.2859" x="0" y="0"/>
  <path d="M64.4274 20.7476C70.1202 20.7476 74.7843 16.0835 74.7843 10.3081C74.7843 4.61524 70.1202 0 64.4274 0C58.652 0 53.9879 4.61524 53.9879 10.3081C53.9879 16.0835 58.652 20.7476 64.4274 20.7476ZM40.2672 94.4278C42.9899 94.4278 45.2579 92.1934 45.2579 89.5498L45.2579 64.645C45.2579 63.4697 44.8487 62.4107 44.1315 61.562L32.8771 47.7315C32.1598 46.8491 32.4039 45.8877 33.2526 45.4146L46.9703 38.2871C47.9654 37.7651 48.9606 38.1406 49.1559 39.3311L50.3463 47.7315C50.5904 49.5752 51.6344 50.8482 53.6246 51.8096L67.1285 58.6104C70.7404 60.4087 73.7037 58.8916 74.5861 56.5293C75.4835 54.3589 74.7965 51.5654 71.8263 50.0483L59.7233 43.8975L57.7667 29.5449C56.7228 21.8955 48.2736 17.1978 40.1847 21.4224L22.3736 30.7202C14.1534 35.0088 13.0455 44.3555 19.1441 50.4878L35.4718 66.7329L35.4718 89.5498C35.4718 92.1934 37.6725 94.4278 40.2672 94.4278ZM2.23057 63.6836C4.1046 67.0259 7.54796 67.9907 10.9728 67.2549L21.2169 64.9868C22.6515 64.6787 23.5641 63.6499 23.5641 62.1328C23.5641 60.6646 22.5201 59.6206 21.1344 59.3765L3.60118 56.3423C0.649517 55.8203-0.867574 58.186 0.518169 60.6157ZM11.0934 64.4595L24.0045 102.757L28.422 101.234L15.6422 63.0869ZM40.151 111.162C50.525 111.162 58.4274 103.128 58.4274 92.919C58.4274 86.0757 54.8102 80.2578 49.3307 77.1074L49.3307 83.0845C51.9791 85.5073 53.5836 89.0498 53.5836 92.919C53.5836 100.319 47.5846 106.303 40.151 106.303C32.9313 106.303 26.7858 100.172 26.7858 92.919C26.7858 88.9859 28.5704 85.3457 31.3468 82.874L31.3468 77.0098C25.7848 80.0288 21.942 85.9932 21.942 92.919C21.942 103.113 30.0733 111.162 40.151 111.162ZM51.7858 101.65L56.3009 103.173L68.715 65.8916C69.1427 64.5933 68.4674 63.2964 67.3238 62.9326C66.0001 62.5503 64.8111 63.1987 64.3497 64.4971ZM14.192 107.753C12.402 108.95 12.9576 111.459 14.9532 111.459L65.3673 111.459C67.2838 111.459 67.8395 108.822 66.1774 107.753L55.1417 100.521L45.1534 107.441L35.2159 107.441L25.13 100.521Z" fill="#000000" fill-opacity="0.85"/>
 </g>
</svg>
