<?xml version="1.0" encoding="UTF-8"?>
<!--Generator: Apple Native CoreSVG 232.5-->
<!DOCTYPE svg
PUBLIC "-//W3C//DTD SVG 1.1//EN"
       "http://www.w3.org/Graphics/SVG/1.1/DTD/svg11.dtd">
<svg version="1.1" xmlns="http://www.w3.org/2000/svg" xmlns:xlink="http://www.w3.org/1999/xlink" width="101.905" height="97.3643">
 <g>
  <rect height="97.3643" opacity="0" width="101.905" x="0" y="0"/>
  <path d="M29.0724 20.7627C34.799 20.7627 39.4294 16.0986 39.4294 10.3232C39.4294 4.63037 34.799 0 29.0724 0C23.3644 0 18.6667 4.63037 18.6667 10.3232C18.6667 16.0986 23.3644 20.7627 29.0724 20.7627ZM99.3215 87.2852L68.0217 70.3716L49.9328 57.7803C48.5959 56.8677 47.3229 55.6773 46.279 54.3555C48.1227 53.2139 48.8737 51.126 48.3517 49.0869L44.7805 34.6367C43.5075 29.5635 38.9074 26.0562 33.6877 26.0562L22.3693 26.0562C18.9108 26.0562 16.5114 26.8897 14.2468 29.1392L1.39275 42.0083C-0.188309 43.5894-0.417313 45.9888 0.675461 47.8965L9.69548 63.7173L9.69548 91.5435C9.69548 94.1533 11.881 96.3877 14.5246 96.3877C17.1984 96.3877 19.384 94.1533 19.384 91.5435L19.384 67.6641L47.0788 69.6543L63.8307 79.1475L94.7702 95.7681C97.6242 97.2852 100.381 95.8657 101.376 93.8604C102.566 91.4946 101.654 88.5244 99.3215 87.2852ZM10.9196 46.2969L19.2863 37.8662L25.7941 54.6484L20.6569 57.585L17.3937 57.585Z" fill="#000000" fill-opacity="0.85"/>
 </g>
</svg>
