<?xml version="1.0" encoding="UTF-8"?>
<!--Generator: Apple Native CoreSVG 232.5-->
<!DOCTYPE svg
PUBLIC "-//W3C//DTD SVG 1.1//EN"
       "http://www.w3.org/Graphics/SVG/1.1/DTD/svg11.dtd">
<svg version="1.1" xmlns="http://www.w3.org/2000/svg" xmlns:xlink="http://www.w3.org/1999/xlink" width="150.129" height="109.62">
 <g>
  <rect height="109.62" opacity="0" width="150.129" x="0" y="0"/>
  <path d="M125.846 32.7928L125.846 42.8948C125.846 45.1502 124.451 46.2113 122.851 46.2113C121.199 46.2113 119.838 45.0491 119.838 42.8948L119.838 32.1761C119.838 19.3987 111.746 11.9207 101.419 11.9207C91.1231 11.9207 83.0162 19.3987 83.0162 32.1761L83.0162 44.4415C87.8404 45.4325 90.5699 49.1521 90.5699 55.078L90.5699 89.9466C90.5699 96.9652 86.7613 100.902 80.2042 100.902L51.0289 100.902C51.0603 100.001 50.956 99.035 50.7061 98.0135L50.0202 95.1785L80.1602 95.1785C82.7896 95.1785 84.461 93.3152 84.461 90.3475L84.461 54.6771C84.461 51.6942 82.7896 49.8646 80.1602 49.8646L46.594 49.8646L42.5826 48.1942C43.3118 46.9562 43.844 45.6012 44.1297 44.1566L77.0269 44.1566L77.0269 32.7928C77.0269 15.6141 88.1724 6.2127 101.419 6.2127C114.682 6.2127 125.846 15.6141 125.846 32.7928Z" fill="#000000" fill-opacity="0.85"/>
  <path d="M30.6216 49.6795C35.129 49.6795 38.69 46.0999 38.69 41.6414C38.69 37.1375 35.129 33.5242 30.6216 33.5242C26.2271 33.5242 22.5347 37.1375 22.5347 41.6414C22.5347 46.0999 26.2271 49.6795 30.6216 49.6795ZM30.588 78.0423C31.6773 78.0423 32.6016 78.6922 32.9249 79.9886L38.4542 101.192C39.6934 105.819 45.9874 104.204 45.3189 99.9725C45.0259 98.0784 40.3082 80.1165 39.6094 76.1126C39.1514 73.2738 39.3165 66.0452 39.3165 62.0252C39.3165 61.1429 40.1011 60.5535 41.0357 60.9476L50.6646 64.8436C53.0977 65.8387 54.8101 64.6937 55.3438 63.1092C55.9112 61.5096 55.209 59.5413 52.835 58.5833L42.7764 54.4329C40.3267 53.4261 38.0001 52.8924 35.4444 52.5657C33.9693 53.2259 32.3443 53.6082 30.588 53.6082C28.8316 53.6082 27.2554 53.2259 25.7315 52.5657C23.191 52.8924 20.8492 53.4261 18.4146 54.4329L8.34088 58.5833C6.00055 59.5413 5.31354 61.5096 5.88092 63.1092C6.38092 64.6937 8.07819 65.8387 10.5264 64.8436L20.189 60.9476C21.0899 60.5535 21.8594 61.1429 21.8594 62.0252C21.8594 66.0452 22.0733 73.2738 21.6002 76.1126C20.9166 80.1165 16.15 98.0784 15.857 99.9725C15.1885 104.204 21.5162 105.819 22.7217 101.192L28.2662 79.9886C28.608 78.6922 29.4986 78.0423 30.588 78.0423Z" fill="#000000" fill-opacity="0.85"/>
 </g>
</svg>
