<?xml version="1.0" encoding="UTF-8"?>
<!--Generator: Apple Native CoreSVG 232.5-->
<!DOCTYPE svg
PUBLIC "-//W3C//DTD SVG 1.1//EN"
       "http://www.w3.org/Graphics/SVG/1.1/DTD/svg11.dtd">
<svg version="1.1" xmlns="http://www.w3.org/2000/svg" xmlns:xlink="http://www.w3.org/1999/xlink" width="96.2981" height="109.538">
 <g>
  <rect height="109.538" opacity="0" width="96.2981" x="0" y="0"/>
  <path d="M76.0636 20.6231C81.7565 20.6231 86.3414 16.0381 86.3414 10.2778C86.3414 4.6001 81.7565 0 76.0636 0C70.3033 0 65.7184 4.6001 65.7184 10.2778C65.7184 16.0381 70.3033 20.6231 76.0636 20.6231ZM39.3487 60.9526L63.5211 79.3985L56.0182 102.576C54.9405 105.918 57.0133 108.284 59.5255 108.903C61.7599 109.425 64.3849 108.464 65.38 105.332L73.7955 79.3345C74.4 77.457 74.0733 75.3877 72.7516 74.1148L56.4913 57.8848L75.151 39.1763C75.9508 38.3462 77.19 38.3613 78.0201 39.1763L84.4791 45.5713L75.6393 54.4111C73.6827 56.4014 73.7316 59.4844 75.6393 61.3921C77.4342 63.1533 80.63 63.3486 82.5714 61.3921L94.8546 49.0786C96.796 47.1221 96.7623 44.103 94.8546 42.1465L82.9957 30.1748C80.1417 27.3359 76.7169 25.9165 72.6388 25.9165L15.6007 25.9165C12.9268 25.9165 10.6925 28.1021 10.6925 30.8096C10.6925 33.5171 12.9268 35.7515 15.6007 35.7515L48.3688 35.7515C50.0323 35.7515 50.7984 37.4639 49.608 38.6392L40.1148 48.1475C35.8414 52.4209 36.4459 58.7671 39.3487 60.9526ZM37.9596 65.3897L35.5333 80.0518L12.7955 80.0518C9.97519 80.0518 7.78964 82.2525 7.78964 84.9937C7.78964 87.7012 9.97519 89.9019 12.7955 89.9019L39.4801 89.9019C42.0563 89.9019 43.7535 88.6138 44.422 86.3457L48.3468 73.332ZM10.6925 52.1768C16.547 52.1768 21.3761 47.3662 21.3761 41.4932C21.3761 35.6387 16.547 30.8096 10.6925 30.8096C4.80429 30.8096 0.00887782 35.6387 0.00887782 41.4932C0.00887782 47.3662 4.80429 52.1768 10.6925 52.1768Z" fill="#000000" fill-opacity="0.85"/>
 </g>
</svg>
