<?xml version="1.0" encoding="UTF-8"?>
<!--Generator: Apple Native CoreSVG 232.5-->
<!DOCTYPE svg
PUBLIC "-//W3C//DTD SVG 1.1//EN"
       "http://www.w3.org/Graphics/SVG/1.1/DTD/svg11.dtd">
<svg version="1.1" xmlns="http://www.w3.org/2000/svg" xmlns:xlink="http://www.w3.org/1999/xlink" width="60.9512" height="119.735">
 <g>
  <rect height="119.735" opacity="0" width="60.9512" x="0" y="0"/>
  <path d="M6.94727 116.668C9.68848 116.668 11.7578 114.58 11.7578 112.003L11.7578 89.2656L25.0967 75.063C25.3106 74.834 25.6743 74.834 25.8882 75.0967L38.6714 92.187L49.5015 113.716C52.502 119.735 60.9512 115.428 58.0484 109.671L35.8325 65.127C33.812 61.1314 32.8169 55.75 32.3589 50.3164C32.2124 48.5552 33.354 47.6914 34.8862 48.4575L43.6621 52.9111L51.7847 69.1714C54.6572 74.9131 63.3809 71.0152 60.2827 64.8828L51.458 47.2671C50.9546 46.3057 50.2676 45.5884 49.3062 45.1304L36.6812 38.8027C32.9297 36.895 29.0654 36.1777 25.5093 35.2954C21.416 34.3003 17.7773 33.0122 15.314 29.5049L9.55713 21.1382L9.55713 4.68262C9.55713 2.13672 7.37158 0 4.74658 0C2.15186 0 0 2.13672 0 4.68262L0 22.6553C0 23.6992 0.229004 24.4165 0.848633 25.3291L10.9277 39.8467C11.8403 41.1836 12.396 42.0322 12.5913 44.2666C12.9668 49.5352 14.1235 59.3213 16.2603 66.3999L3.14697 84.6016C2.51221 85.5479 2.2832 86.4453 2.2832 87.3579L2.2832 112.003C2.2832 114.58 4.3374 116.668 6.94727 116.668ZM28.8784 29.5679C34.5713 29.5679 39.1563 24.9829 39.1563 19.2227C39.1563 13.5449 34.5713 8.94483 28.8784 8.94483C23.1182 8.94483 18.5332 13.5449 18.5332 19.2227C18.5332 24.9829 23.1182 29.5679 28.8784 29.5679Z" fill="#000000" fill-opacity="0.85"/>
 </g>
</svg>
