<?xml version="1.0" encoding="UTF-8"?>
<!--Generator: Apple Native CoreSVG 232.5-->
<!DOCTYPE svg
PUBLIC "-//W3C//DTD SVG 1.1//EN"
       "http://www.w3.org/Graphics/SVG/1.1/DTD/svg11.dtd">
<svg version="1.1" xmlns="http://www.w3.org/2000/svg" xmlns:xlink="http://www.w3.org/1999/xlink" width="109.083" height="74.0576">
 <g>
  <rect height="74.0576" opacity="0" width="109.083" x="0" y="0"/>
  <path d="M89.8291 20.7627C95.6011 20.7627 100.216 16.1475 100.216 10.3906C100.216 4.63379 95.6011 0 89.8291 0C84.0874 0 79.4536 4.63379 79.4536 10.3906C79.4536 16.1475 84.0874 20.7627 89.8291 20.7627ZM6.36913 69.6343L34.293 62.6533L34.293 69.1948C34.293 71.8384 36.4785 73.9902 39.1035 73.9902C41.7773 73.9902 43.9478 71.8384 43.9478 69.1948L43.9478 60.877L64.2373 57.8428C67.9736 57.3208 71.6426 55.6572 74.7407 53.3403L92.2925 40.1782C92.9609 39.7051 93.9072 39.7876 94.249 40.6025L99.4199 51.0571L99.4199 69.1948C99.4199 72 101.425 73.9902 104.279 73.9902C107.118 73.9902 109.075 72 109.075 69.1948L109.075 49.9004C109.075 49.1494 108.913 48.3496 108.553 47.6812L100.235 31.0942C98.5864 27.7822 95.3267 25.7432 91.6392 25.7432L87.3809 25.7432C83.2388 25.7432 79.1455 27.1138 75.8184 29.626L62.0366 39.8853L41.811 35.8408C37.5864 34.9922 34.293 36.8359 34.293 41.3047L34.293 52.6719L4.0371 60.355C0.905262 61.1362-0.285168 63.5357 0.0566285 65.7852C0.480945 68.2822 2.79784 70.5469 6.36913 69.6343ZM43.9478 50.3399L43.9478 46.686L50.5532 48.71ZM66.8472 73.9902L86.1416 73.9902C90.1221 73.9902 93.3364 70.7608 93.3364 66.7315C93.3364 62.7847 90.1221 59.5064 86.1416 59.5064L66.8472 59.5064C62.8027 59.5064 59.6069 62.7847 59.6069 66.7315C59.6069 70.7608 62.8027 73.9902 66.8472 73.9902ZM86.1113 70.8228C83.8721 70.8228 82.0537 68.9707 82.0537 66.6978C82.0537 64.4922 83.8721 62.6738 86.1113 62.6738C88.3843 62.6738 90.169 64.4922 90.169 66.6978C90.169 68.9707 88.3843 70.8228 86.1113 70.8228Z" fill="#000000" fill-opacity="0.85"/>
 </g>
</svg>
