<?xml version="1.0" encoding="UTF-8"?>
<!--Generator: Apple Native CoreSVG 232.5-->
<!DOCTYPE svg
PUBLIC "-//W3C//DTD SVG 1.1//EN"
       "http://www.w3.org/Graphics/SVG/1.1/DTD/svg11.dtd">
<svg version="1.1" xmlns="http://www.w3.org/2000/svg" xmlns:xlink="http://www.w3.org/1999/xlink" width="113.911" height="88.3672">
 <g>
  <rect height="88.3672" opacity="0" width="113.911" x="0" y="0"/>
  <path d="M59.5562 32.8911C65.2827 32.8911 69.9468 28.2607 69.9468 22.519C69.9468 16.7925 65.2827 12.1284 59.5562 12.1284C53.8145 12.1284 49.1841 16.7925 49.1841 22.519C49.1841 28.2607 53.8145 32.8911 59.5562 32.8911ZM37.0859 55.459C47.2398 57.023 49.5977 63.0376 56.9463 63.0376C57.2393 63.0376 57.4951 63.0376 57.8032 62.9736L62.3462 50.106C62.8833 48.5889 63.7319 48.0181 65.3316 48.0181L107.574 48.0181C110.331 48.0181 112.647 45.7012 112.647 42.896C112.647 40.2036 110.331 37.8716 107.574 37.8716L28.0122 37.8716L21.4067 16.2939C20.5918 13.5527 17.8018 12.0205 15.1768 12.8355C12.5332 13.6689 11.0649 16.5381 11.8159 19.0503L19.2363 43.8086C19.9233 46.1255 21.7183 48.0181 24.2119 48.0181L37.7832 48.0181C38.8086 48.0181 39.4468 48.833 39.1201 49.8281ZM31.3242 14.8594C35.4175 14.8594 38.7446 11.5474 38.7446 7.4541C38.7446 3.37598 35.4175 0 31.3242 0C27.2461 0 23.9341 3.37598 23.9341 7.4541C23.9341 11.5474 27.2461 14.8594 31.3242 14.8594ZM2.23487 74.9292L6.8335 74.9292C19.4468 74.9292 22.6221 66.9063 31.8975 66.9063C41.1577 66.9063 44.333 74.9292 56.9463 74.9292C69.5781 74.9292 72.7197 66.9063 82.0288 66.9063C91.2891 66.9063 94.4307 74.9292 107.078 74.9292L111.691 74.9292C112.917 74.9292 113.911 73.9693 113.911 72.728C113.911 71.502 112.917 70.5083 111.691 70.5083L107.078 70.5083C97.4302 70.5083 94.1353 62.4854 82.0288 62.4854C69.8887 62.4854 66.5786 70.5083 56.9463 70.5083C47.2988 70.5083 44.0376 62.4854 31.8975 62.4854C19.791 62.4854 16.481 70.5083 6.8335 70.5083L2.23487 70.5083C0.959963 70.5083 0 71.502 0 72.728C0 73.9693 0.959963 74.9292 2.23487 74.9292ZM3.59522 88.2915C5.02491 88.2915 6.12794 87.1885 6.12794 85.7588C6.12794 84.3628 5.02491 83.2598 3.59522 83.2598C2.19922 83.2598 1.09619 84.3628 1.09619 85.7588C1.09619 87.1885 2.19922 88.2915 3.59522 88.2915ZM12.7295 86.6919C14.1255 86.6919 15.2285 85.5738 15.2285 84.1929C15.2285 82.7632 14.1255 81.645 12.7295 81.645C11.2998 81.645 10.1968 82.7632 10.1968 84.1929C10.1968 85.5738 11.2998 86.6919 12.7295 86.6919ZM21.1836 82.7451C22.6133 82.7451 23.7315 81.6607 23.7315 80.2461C23.7315 78.8164 22.6133 77.732 21.1836 77.732C19.7876 77.732 18.6846 78.8164 18.6846 80.2461C18.6846 81.6607 19.7876 82.7451 21.1836 82.7451ZM30.2607 80.6572C31.6904 80.6572 32.8086 79.5391 32.8086 78.1094C32.8086 76.7285 31.6904 75.6104 30.2607 75.6104C28.8799 75.6104 27.7617 76.7285 27.7617 78.1094C27.7617 79.5391 28.8799 80.6572 30.2607 80.6572ZM39.3228 82.7451C40.7524 82.7451 41.8218 81.6607 41.8218 80.2461C41.8218 78.8164 40.7524 77.732 39.3228 77.732C37.8931 77.732 36.8237 78.8164 36.8237 80.2461C36.8237 81.6607 37.8931 82.7451 39.3228 82.7451ZM47.8897 86.6919C49.3042 86.6919 50.4224 85.5738 50.4224 84.1929C50.4224 82.7632 49.3042 81.645 47.8897 81.645C46.4937 81.645 45.3755 82.7632 45.3755 84.1929C45.3755 85.5738 46.4937 86.6919 47.8897 86.6919ZM57.0288 88.2915C58.4248 88.2915 59.5278 87.1885 59.5278 85.7588C59.5278 84.3628 58.4248 83.2598 57.0288 83.2598C55.5991 83.2598 54.4961 84.3628 54.4961 85.7588C54.4961 87.1885 55.5991 88.2915 57.0288 88.2915ZM66.1343 86.6919C67.564 86.6919 68.6333 85.5738 68.6333 84.1929C68.6333 82.7632 67.564 81.645 66.1343 81.645C64.7046 81.645 63.6353 82.7632 63.6353 84.1929C63.6353 85.5738 64.7046 86.6919 66.1343 86.6919ZM74.7012 82.7451C76.1309 82.7451 77.2339 81.6607 77.2339 80.2461C77.2339 78.8164 76.1309 77.732 74.7012 77.732C73.3052 77.732 72.2022 78.8164 72.2022 80.2461C72.2022 81.6607 73.3052 82.7451 74.7012 82.7451ZM83.7632 80.6572C85.1777 80.6572 86.2622 79.5391 86.2622 78.1094C86.2622 76.7285 85.1777 75.6104 83.7632 75.6104C82.3335 75.6104 81.249 76.7285 81.249 78.1094C81.249 79.5391 82.3335 80.6572 83.7632 80.6572ZM92.8403 82.7451C94.2549 82.7451 95.3394 81.6607 95.3394 80.2461C95.3394 78.8164 94.2549 77.732 92.8403 77.732C91.4107 77.732 90.3262 78.8164 90.3262 80.2461C90.3262 81.6607 91.4107 82.7451 92.8403 82.7451ZM101.328 86.6919C102.758 86.6919 103.827 85.5738 103.827 84.1929C103.827 82.7632 102.758 81.645 101.328 81.645C99.8984 81.645 98.8291 82.7632 98.8291 84.1929C98.8291 85.5738 99.8984 86.6919 101.328 86.6919ZM110.35 88.2915C111.779 88.2915 112.882 87.1885 112.882 85.7588C112.882 84.3628 111.779 83.2598 110.35 83.2598C108.954 83.2598 107.851 84.3628 107.851 85.7588C107.851 87.1885 108.954 88.2915 110.35 88.2915Z" fill="#000000" fill-opacity="0.85"/>
 </g>
</svg>
