<?xml version="1.0" encoding="UTF-8"?>
<!--Generator: Apple Native CoreSVG 232.5-->
<!DOCTYPE svg
PUBLIC "-//W3C//DTD SVG 1.1//EN"
       "http://www.w3.org/Graphics/SVG/1.1/DTD/svg11.dtd">
<svg version="1.1" xmlns="http://www.w3.org/2000/svg" xmlns:xlink="http://www.w3.org/1999/xlink" width="97.9595" height="97.9932">
 <g>
  <rect height="97.9932" opacity="0" width="97.9595" x="0" y="0"/>
  <path d="M48.9722 97.9443C75.8247 97.9443 97.9595 75.7759 97.9595 48.9722C97.9595 22.1348 75.791 0 48.9385 0C22.1348 0 0 22.1348 0 48.9722C0 75.7759 22.1685 97.9443 48.9722 97.9443ZM48.9722 91.6113C25.3501 91.6113 6.36671 72.5942 6.36671 48.9722C6.36671 25.3501 25.3164 6.31789 48.9385 6.31789C72.5605 6.31789 91.6265 25.3501 91.6265 48.9722C91.6265 72.5942 72.5942 91.6113 48.9722 91.6113Z" fill="#000000" fill-opacity="0.85"/>
  <path d="M24.96 70.8403L73.0635 70.8403C75.6265 70.8403 77.1978 69.2725 77.1978 66.7583L77.1978 31.3325C77.1978 28.7847 75.6265 27.2354 73.0635 27.2354L24.96 27.2354C22.3784 27.2354 20.8257 28.7847 20.8257 31.3325L20.8257 66.7583C20.8257 69.2725 22.3784 70.8403 24.96 70.8403ZM25.7998 67.3511C24.7778 67.3511 24.1953 66.7012 24.1953 65.6826L24.1953 61.9453C24.1953 61.1421 24.7324 60.5747 25.645 60.5747L30.0068 60.5747C30.8218 60.5747 31.3438 61.1421 31.3438 61.9453L31.3438 65.9014C31.3438 66.7466 30.8218 67.3511 30.0068 67.3511ZM25.645 57.1782C24.7324 57.1782 24.1953 56.5435 24.1953 55.8262L24.1953 51.9795C24.1953 51.0669 24.7324 50.5147 25.645 50.5147L30.0068 50.5147C30.8218 50.5147 31.3438 51.0669 31.3438 51.9795L31.3438 55.8262C31.3438 56.5435 30.8218 57.1782 30.0068 57.1782ZM25.645 47.2495C24.7324 47.2495 24.1953 46.6148 24.1953 45.8975L24.1953 42.0171C24.1953 41.1382 24.7324 40.5523 25.645 40.5523L30.0068 40.5523C30.8218 40.5523 31.3438 41.1382 31.3438 42.0171L31.3438 45.8975C31.3438 46.6148 30.8218 47.2495 30.0068 47.2495ZM25.645 37.3545C24.7324 37.3545 24.1953 36.7197 24.1953 35.9873L24.1953 32.1406C24.1953 31.2954 24.7324 30.6909 25.645 30.6909L30.0068 30.6909C30.8218 30.6909 31.3438 31.2954 31.3438 32.1406L31.3438 35.9873C31.3438 36.7197 30.8218 37.3545 30.0068 37.3545ZM67.9981 67.3511C67.2017 67.3511 66.6797 66.7466 66.6797 65.9014L66.6797 61.9453C66.6797 61.1421 67.2017 60.5747 67.9981 60.5747L72.3784 60.5747C73.291 60.5747 73.8433 61.1421 73.8433 61.9453L73.8433 65.6826C73.8433 66.7012 73.2456 67.3511 72.2236 67.3511ZM67.9981 57.1782C67.2017 57.1782 66.6797 56.5435 66.6797 55.8262L66.6797 51.9795C66.6797 51.0669 67.2017 50.5147 67.9981 50.5147L72.3784 50.5147C73.291 50.5147 73.8433 51.0669 73.8433 51.9795L73.8433 55.8262C73.8433 56.5435 73.291 57.1782 72.3784 57.1782ZM67.9981 47.2495C67.2017 47.2495 66.6797 46.6148 66.6797 45.8975L66.6797 42.0171C66.6797 41.1382 67.2017 40.5523 67.9981 40.5523L72.3784 40.5523C73.291 40.5523 73.8433 41.1382 73.8433 42.0171L73.8433 45.8975C73.8433 46.6148 73.291 47.2495 72.3784 47.2495ZM67.9981 37.3545C67.2017 37.3545 66.6797 36.7197 66.6797 35.9873L66.6797 32.1406C66.6797 31.2954 67.2017 30.6909 67.9981 30.6909L72.3784 30.6909C73.291 30.6909 73.8433 31.2954 73.8433 32.1406L73.8433 35.9873C73.8433 36.7197 73.291 37.3545 72.3784 37.3545ZM37.0772 47.1704C36.1646 47.1704 35.646 46.5356 35.646 45.8032L35.646 32.1406C35.646 31.2954 36.1646 30.6909 37.0772 30.6909L60.9951 30.6909C61.7764 30.6909 62.2983 31.2954 62.2983 32.1406L62.2983 45.8032C62.2983 46.5356 61.7764 47.1704 60.9951 47.1704ZM37.0772 67.3511C36.1646 67.3511 35.646 66.7163 35.646 65.9839L35.646 52.3027C35.646 51.4912 36.1646 50.8379 37.0772 50.8379L60.9951 50.8379C61.7764 50.8379 62.2983 51.4912 62.2983 52.3027L62.2983 65.9839C62.2983 66.7163 61.7764 67.3511 60.9951 67.3511Z" fill="#000000" fill-opacity="0.85"/>
 </g>
</svg>
