<?xml version="1.0" encoding="UTF-8"?>
<!--Generator: Apple Native CoreSVG 232.5-->
<!DOCTYPE svg
PUBLIC "-//W3C//DTD SVG 1.1//EN"
       "http://www.w3.org/Graphics/SVG/1.1/DTD/svg11.dtd">
<svg version="1.1" xmlns="http://www.w3.org/2000/svg" xmlns:xlink="http://www.w3.org/1999/xlink" width="122.686" height="117.433">
 <g>
  <rect height="117.433" opacity="0" width="122.686" x="0" y="0"/>
  <path d="M99.7393 42.3335C100.501 42.3335 101.075 41.8047 101.191 41.1108C103.252 29.8564 103.079 30.2827 114.216 28.1191C114.91 27.9878 115.424 27.4624 115.424 26.6489C115.424 25.8877 114.877 25.3623 114.216 25.1973C103.045 22.9663 103.252 23.3403 101.191 12.2056C101.075 11.5117 100.501 10.9829 99.7393 10.9829C98.9107 10.9829 98.3853 11.478 98.2539 12.2056C96.1592 23.4077 96.0445 23.0674 85.2959 25.1973C84.6021 25.3623 84.0884 25.8877 84.0884 26.6489C84.0884 27.4624 84.5684 27.9878 85.2959 28.1191C96.0445 30.2153 96.1592 29.875 98.2539 41.1108C98.3853 41.8384 98.9107 42.3335 99.7393 42.3335ZM50.8858 117.433C51.5005 117.433 51.9282 117.017 52.0747 116.375C54.0698 107.009 54.0698 107.009 63.2779 105.172C63.9195 105.025 64.3657 104.598 64.3657 103.919C64.3657 103.289 63.9195 102.828 63.2779 102.715C54.0698 100.829 54.0698 100.829 52.0747 91.5118C51.9282 90.855 51.5005 90.439 50.8858 90.439C50.2222 90.439 49.7945 90.855 49.6631 91.5118C47.7017 100.814 47.7168 100.829 38.4937 102.715C37.8032 102.828 37.3721 103.289 37.3721 103.919C37.3721 104.598 37.8032 105.025 38.4937 105.172C47.7168 107.009 47.7017 107.073 49.6631 116.375C49.7945 117.017 50.2222 117.433 50.8858 117.433ZM26.1612 102.108C26.7085 102.108 27.0537 101.809 27.1363 101.25C28.7407 93.6192 28.7407 93.6192 36.2617 92.1089C36.8208 91.9927 37.1846 91.6963 37.1846 91.085C37.1846 90.5376 36.8208 90.1284 36.2617 90.0762C28.7407 88.5811 28.7407 88.5811 27.1363 80.9356C27.0537 80.3916 26.7085 80.0615 26.1612 80.0615C25.565 80.0615 25.2197 80.3916 25.1524 80.9356C23.5479 88.5508 23.5479 88.5811 16.0269 90.0762C15.4678 90.1284 15.104 90.5376 15.104 91.085C15.104 91.6963 15.4678 91.9927 16.0269 92.1089C23.5479 93.6192 23.5479 93.6494 25.1524 101.25C25.2197 101.809 25.565 102.108 26.1612 102.108Z" fill="#000000" fill-opacity="0.85"/>
  <path d="M96.3321 97.7007C97.607 97.7007 98.6494 96.7071 98.6494 95.4322L98.6494 86.8077L103.407 91.5464C104.288 92.4424 105.648 92.4761 106.541 91.5313C107.535 90.6538 107.535 89.2627 106.556 88.3482L101.866 83.6548L110.442 83.6548C111.687 83.6548 112.744 82.5972 112.744 81.3374C112.744 80.0928 111.687 79.1143 110.442 79.1143L101.817 79.1143L106.56 74.3418C107.471 73.4307 107.471 72.0698 106.544 71.189C105.648 70.2778 104.272 70.2139 103.376 71.1587L98.6494 75.8823L98.6494 67.2764C98.6494 66.0469 97.607 65.0044 96.3321 65.0044C95.0723 65.0044 94.0938 66.0469 94.0938 67.2764L94.0938 75.8823L89.355 71.1587C88.4742 70.2778 87.0796 70.2778 86.1685 71.189C85.2085 72.0698 85.2085 73.4307 86.1197 74.3418L90.8618 79.1143L82.2373 79.1143C81.0264 79.1143 80.0479 80.0928 80.0479 81.3374C80.0479 82.5972 81.0264 83.6548 82.2373 83.6548L90.8467 83.6548L86.1382 88.3482C85.2085 89.293 85.2085 90.6236 86.1382 91.5313C87.0645 92.4761 88.4253 92.4761 89.3399 91.5464L94.0938 86.8077L94.0938 95.4322C94.0938 96.7071 95.0723 97.7007 96.3321 97.7007ZM96.396 61.6406C98.2198 61.6406 99.6343 60.1924 99.6343 58.335C99.6343 56.5112 98.2198 55.063 96.396 55.063C94.5386 55.063 93.124 56.5112 93.124 58.335C93.124 60.1924 94.5386 61.6406 96.396 61.6406ZM112.198 68.6016C113.921 68.6016 115.317 67.2393 115.317 65.4829C115.317 63.7603 113.921 62.398 112.198 62.398C110.476 62.398 109.113 63.7603 109.113 65.4829C109.113 67.2393 110.476 68.6016 112.198 68.6016ZM119.414 84.6245C121.237 84.6245 122.686 83.1763 122.686 81.3526C122.686 79.5288 121.237 78.1143 119.414 78.1143C117.556 78.1143 116.142 79.5288 116.142 81.3526C116.142 83.1763 117.556 84.6245 119.414 84.6245ZM112.198 100.341C113.921 100.341 115.317 98.9449 115.317 97.2559C115.317 95.4995 113.921 94.1372 112.198 94.1372C110.476 94.1372 109.113 95.4995 109.113 97.2559C109.113 98.9449 110.476 100.341 112.198 100.341ZM96.396 107.642C98.2198 107.642 99.6343 106.228 99.6343 104.404C99.6343 102.546 98.2198 101.098 96.396 101.098C94.5386 101.098 93.124 102.546 93.124 104.404C93.124 106.228 94.5386 107.642 96.396 107.642ZM80.5601 100.307C82.2827 100.307 83.645 98.9449 83.645 97.2559C83.645 95.4995 82.2827 94.1372 80.5601 94.1372C78.8374 94.1372 77.4414 95.4995 77.4414 97.2559C77.4414 98.9449 78.8374 100.307 80.5601 100.307ZM73.3447 84.6245C75.2022 84.6245 76.6504 83.1763 76.6167 81.3526C76.6504 79.5288 75.2022 78.1143 73.3447 78.1143C71.521 78.1143 70.1065 79.5288 70.1065 81.3526C70.1065 83.1763 71.521 84.6245 73.3447 84.6245ZM80.5601 68.6016C82.2827 68.6016 83.645 67.2393 83.645 65.4829C83.645 63.7603 82.2827 62.398 80.5601 62.398C78.8374 62.398 77.4414 63.7603 77.4414 65.4829C77.4414 67.2393 78.8374 68.6016 80.5601 68.6016Z" fill="#000000" fill-opacity="0.85"/>
  <path d="M36.8906 51.0669C38.2144 51.0669 39.2451 50.1035 39.2451 48.7612L39.2114 42.2329L43.8291 46.9112C44.6914 47.856 46.2627 47.856 47.2075 46.9112C48.085 46 48.1035 44.4439 47.2075 43.5479L42.4502 39.0127L49.0088 39.0127C50.3023 39.0127 51.3633 37.9517 51.3633 36.6431C51.3633 35.3496 50.3023 34.3223 49.0088 34.3223L42.4956 34.3223L47.1587 29.8023C48.1035 28.8726 48.0698 27.335 47.1587 26.3901C46.2139 25.5127 44.6914 25.4453 43.7466 26.3901L39.2451 31.0044L39.2114 24.5586C39.2114 23.1978 38.2178 22.2344 36.8569 22.2344C35.5972 22.2344 34.5361 23.1978 34.5361 24.5586L34.5698 31.0044L30.0161 26.3901C29.0713 25.479 27.5825 25.479 26.604 26.3901C25.7266 27.3013 25.6929 28.9063 26.604 29.8023L31.2856 34.3223L24.7725 34.3223C23.479 34.3223 22.418 35.3496 22.418 36.6431C22.418 37.9517 23.479 39.0127 24.7725 39.0127L31.3311 39.0127L26.6074 43.5479C25.6929 44.4776 25.6963 45.9663 26.6074 46.9112C27.5186 47.8223 29.0713 47.8897 29.9859 46.9112L34.5361 42.2329L34.5698 48.7612C34.5698 50.1035 35.5484 51.0669 36.8906 51.0669ZM36.9395 15.5493C38.334 15.5493 39.4624 14.3872 39.4624 12.9927L39.4624 2.58692C39.4624 1.19238 38.334 0.0639647 36.9395 0.0639647C35.5601 0.0639647 34.398 1.19238 34.398 2.58692L34.398 12.9927C34.398 14.3872 35.5601 15.5493 36.9395 15.5493ZM47.648 18.3814C48.8926 19.1275 50.4033 18.6963 51.1192 17.4668L56.3389 8.49903C57.0513 7.2544 56.6016 5.7251 55.4243 5.02783C54.1797 4.29688 52.6841 4.71289 51.938 5.95752L46.7334 14.9439C46.0361 16.1397 46.4707 17.7329 47.648 18.3814ZM55.5093 26.2427C56.2402 27.4873 57.7847 27.8208 58.9805 27.1724L67.9668 21.9863C69.1929 21.3076 69.6089 19.7598 68.8965 18.5337C68.2144 17.3042 66.6699 16.9067 65.459 17.6191L56.4238 22.8052C55.2769 23.4536 54.7969 25.0957 55.5093 26.2427ZM58.3901 36.9849C58.3901 38.4282 59.5371 39.5078 60.898 39.5078L71.3037 39.5264C72.6983 39.5264 73.8941 38.3794 73.8941 37.0186C73.8941 35.5903 72.6983 34.4619 71.3374 34.4619L60.898 34.4282C59.5371 34.4282 58.3599 35.624 58.3901 36.9849ZM55.5093 47.6782C54.7969 48.9566 55.3106 50.4673 56.4238 51.1646L65.4253 56.3843C66.6699 57.0816 68.2144 56.6319 68.8965 55.4883C69.6089 54.21 69.1592 52.7144 67.9668 52.0171L58.9805 46.7637C57.8184 46.1152 56.1577 46.501 55.5093 47.6782ZM47.648 55.5396C46.437 56.3194 46.0698 57.8638 46.7334 59.0108L51.9194 68.0122C52.6167 69.2232 54.2134 69.6729 55.4243 68.9605C56.6353 68.2783 56.9839 66.7339 56.3052 65.523L51.1192 56.4693C50.437 55.3408 48.8438 54.8272 47.648 55.5396ZM36.9395 58.4541C35.5601 58.4541 34.398 59.5825 34.398 60.9771L34.398 71.3828C34.398 72.7774 35.5601 73.8907 36.9395 73.8907C38.334 73.8907 39.4624 72.7774 39.4624 71.3828L39.4624 60.9771C39.4624 59.5825 38.334 58.4541 36.9395 58.4541ZM26.2124 55.5733C24.9678 54.8272 23.457 55.3071 22.7749 56.5029L17.5552 65.4893C16.8091 66.7339 17.2588 68.2783 18.4697 68.9268C19.7144 69.6729 21.21 69.2569 21.9072 68.0122L27.127 59.0445C27.8579 57.8301 27.4234 56.2217 26.2124 55.5733ZM18.3511 47.7119C17.6387 46.501 16.0757 46.1338 14.9136 46.7974L5.87842 51.9834C4.66748 52.6958 4.28516 54.2437 4.96387 55.4546C5.67969 56.6655 7.22413 57.0479 8.43507 56.3843L17.4365 51.1831C18.6172 50.501 19.0635 48.9077 18.3511 47.7119ZM15.5039 37.0186C15.5039 35.5264 14.3233 34.4619 12.9624 34.4619L2.59034 34.4282C1.16211 34.4282 0 35.624 0 36.9849C0 38.4131 1.16211 39.5078 2.55665 39.5078L12.9624 39.5264C14.3233 39.5264 15.5342 38.3794 15.5039 37.0186ZM18.3511 26.2764C19.0635 24.9981 18.5835 23.4873 17.4365 22.8389L8.46876 17.6191C7.22413 16.873 5.67969 17.3228 4.96387 18.5151C4.28516 19.7783 4.70117 21.2739 5.87842 21.9526L14.9136 27.2061C16.042 27.8545 17.7026 27.4873 18.3511 26.2764ZM26.2124 18.4151C27.457 17.6841 27.8242 16.106 27.127 14.9775L21.9409 5.95752C21.2774 4.74658 19.6807 4.29688 18.4697 4.99414C17.2251 5.7251 16.8765 7.2544 17.5889 8.48048L22.7749 17.5005C23.4233 18.6626 25.0503 19.1275 26.2124 18.4151Z" fill="#000000" fill-opacity="0.85"/>
 </g>
</svg>
