<?xml version="1.0" encoding="UTF-8"?>
<!--Generator: Apple Native CoreSVG 232.5-->
<!DOCTYPE svg
PUBLIC "-//W3C//DTD SVG 1.1//EN"
       "http://www.w3.org/Graphics/SVG/1.1/DTD/svg11.dtd">
<svg version="1.1" xmlns="http://www.w3.org/2000/svg" xmlns:xlink="http://www.w3.org/1999/xlink" width="97.9595" height="97.9932">
 <g>
  <rect height="97.9932" opacity="0" width="97.9595" x="0" y="0"/>
  <path d="M97.9595 49.021C97.9595 75.8584 75.8247 97.9932 48.9722 97.9932C22.1685 97.9932 0 75.8584 0 49.021C0 22.2173 22.1348 0.0488281 48.9385 0.0488281C75.791 0.0488281 97.9595 22.2173 97.9595 49.021ZM22.6812 22.6812C21.9082 23.4878 21.9385 24.7105 22.6812 25.4194L72.5771 75.3457C73.3013 76.0547 74.5728 76.085 75.3154 75.3457C76.0732 74.5054 76.0732 73.3501 75.3154 72.6074L25.4194 22.6812C24.6768 21.9385 23.4727 21.9385 22.6812 22.6812ZM27.8174 73.6826C27.8174 74.71 28.6982 75.6025 29.8164 75.6025C31.002 75.6025 31.7295 74.7437 31.7295 73.6826L31.7295 58.4605C32.7666 58.0547 34.7954 57.4082 38.1172 57.4082C44.0511 57.4082 48.4905 59.3796 53.3991 60.6958L27.8174 35.1063ZM33.7197 26.4645L68.1071 60.8392C68.2697 60.7731 68.4323 60.7021 68.5962 60.6275C70.5293 59.6777 71.4302 58.4399 71.4302 56.5083L71.4302 31.8433C71.4302 30.4961 70.7246 29.5732 69.0068 29.5732C67.648 29.5732 65.375 30.6777 61.1641 30.6777C52.4981 30.6777 46.9214 26.1704 37.8731 26.1704C36.0963 26.1704 34.7862 26.2712 33.7197 26.4645Z" fill="#000000" fill-opacity="0.85"/>
 </g>
</svg>
