<?xml version="1.0" encoding="UTF-8"?>
<!--Generator: Apple Native CoreSVG 232.5-->
<!DOCTYPE svg
PUBLIC "-//W3C//DTD SVG 1.1//EN"
       "http://www.w3.org/Graphics/SVG/1.1/DTD/svg11.dtd">
<svg version="1.1" xmlns="http://www.w3.org/2000/svg" xmlns:xlink="http://www.w3.org/1999/xlink" width="88.4092" height="88.5371">
 <g>
  <rect height="88.5371" opacity="0" width="88.4092" x="0" y="0"/>
  <path d="M14.3936 88.5371L74.0005 88.5371C83.5733 88.5371 88.4092 83.6558 88.4092 74.2632L88.4092 14.4019C88.4092 5.00928 83.5733 0.127929 74.0005 0.127929L14.3936 0.127929C4.86963 0.127929 0 4.93018 0 14.4019L0 74.2632C0 83.7349 4.86963 88.5371 14.3936 88.5371ZM14.5064 82.4922C9.00294 82.4922 6.04494 79.6016 6.04494 73.9634L6.04494 14.7017C6.04494 9.06349 9.00294 6.17287 14.5064 6.17287L73.9028 6.17287C79.2969 6.17287 82.3643 9.06349 82.3643 14.7017L82.3643 73.9634C82.3643 79.6016 79.2969 82.4922 73.9028 82.4922Z" fill="#000000" fill-opacity="0.85"/>
  <path d="M25.4624 70.3169C26.5991 70.3169 27.3604 69.4429 27.3604 68.4492L27.3604 53.5151C28.3452 53.1094 30.374 52.4629 33.5947 52.4629C42.3618 52.4629 47.77 56.8506 56.4443 56.8506C59.9282 56.8506 61.6421 56.4902 63.4639 55.5811C65.3633 54.6987 66.2305 53.4946 66.2305 51.6304L66.2305 27.4219C66.2305 26.127 65.5586 25.2378 63.8745 25.2378C62.5342 25.2378 60.2949 26.3237 56.1851 26.3237C47.7212 26.3237 42.2456 21.9023 33.3506 21.9023C29.6968 21.9023 28.0283 22.3569 26.3462 23.1079C24.4653 23.9263 23.5493 25.292 23.5493 27.0889L23.5493 68.4492C23.5493 69.4092 24.3779 70.3169 25.4624 70.3169Z" fill="#000000" fill-opacity="0.85"/>
 </g>
</svg>
