<?xml version="1.0" encoding="UTF-8"?>
<!--Generator: Apple Native CoreSVG 232.5-->
<!DOCTYPE svg
PUBLIC "-//W3C//DTD SVG 1.1//EN"
       "http://www.w3.org/Graphics/SVG/1.1/DTD/svg11.dtd">
<svg version="1.1" xmlns="http://www.w3.org/2000/svg" xmlns:xlink="http://www.w3.org/1999/xlink" width="180.783" height="109.647">
 <g>
  <rect height="109.647" opacity="0" width="180.783" x="0" y="0"/>
  <path d="M87.4821 68.0957L67.3877 102.873C66.6079 104.271 64.9253 104.721 63.5273 103.938C62.1631 103.139 61.6645 101.374 62.4629 99.9949L84.1955 62.4076ZM122.509 5.07942C125.481 5.3758 129.384 6.96516 132.763 8.95539C144.743 15.9295 149.333 26.7728 161.44 33.7601C166.707 36.784 171.293 37.8465 173.412 39.0218C175.523 40.2747 176.423 42.2923 175.133 44.5086L155.186 79.0867C153.413 82.1536 150.836 82.9857 147.835 82.7196C144.878 82.408 141.009 80.8338 137.645 78.8099C125.65 71.8358 121.011 61.0413 108.968 54.0052C104.449 51.4715 100.446 50.2205 98.2568 49.4476L96.5814 52.3473L93.2975 46.6655L115.222 8.74593C116.996 5.67903 119.542 4.8133 122.509 5.07942ZM125.575 60.6121C129.084 64.3836 132.435 68.2039 136.721 71.3743L143.341 59.8885C138.905 56.7298 135.815 53.805 131.966 49.5506ZM143.341 59.8885C144.042 60.4207 145.045 61.0032 146.145 61.6414C149.524 63.5863 152.713 64.9954 156.198 65.8455L163.008 54.1102C160.916 53.5579 157.04 52.307 152.922 49.8909C151.908 49.3353 150.977 48.6634 150.118 48.138ZM107.346 33.8031L101.267 44.2601C105.285 45.5023 109.063 47.4842 111.797 49.0467C112.582 49.5198 113.333 49.929 114.084 50.4359L120.704 38.9383C119.589 38.1654 118.865 37.6551 117.224 36.7308C112.804 34.1903 109.112 33.4193 107.346 33.8031ZM120.704 38.9383C125.171 42.1912 128.161 45.5081 131.966 49.5506L138.743 37.7664C135.182 33.9681 132.079 30.5013 127.515 27.2367ZM138.743 37.7664C142.312 41.7078 145.973 45.3226 150.118 48.138L156.307 37.304C151.645 34.2616 148.151 30.7493 144.834 27.222ZM114.123 22.0677C115.957 21.6502 119.615 22.4212 123.985 24.9466C125.071 25.6116 126.343 26.3914 127.515 27.2367L133.719 16.4261C132.543 15.5775 131.271 14.7137 129.885 13.9139C128.585 13.1663 124.423 10.7791 120.639 10.7235Z" fill="#000000" fill-opacity="0.85"/>
  <path d="M117.27 103.938C118.586 103.139 119.084 101.374 118.286 99.9949L65.5605 8.74593C63.8022 5.67903 61.2407 4.8133 58.2397 5.07942C55.2832 5.3758 51.3803 6.96516 48.0346 8.95539C36.0547 15.9295 31.416 26.7728 19.3086 33.7601C14.0571 36.784 9.47068 37.8465 7.35252 39.0218C5.2407 40.2747 4.37497 42.2923 5.61619 44.5086L25.563 79.0867C27.3364 82.1536 29.9131 82.9857 32.914 82.7196C35.8857 82.408 39.7886 80.8338 43.104 78.8099C55.1328 71.8358 59.7378 61.0413 71.8301 54.0052C76.2998 51.4715 80.3369 50.2205 82.5259 49.4476L113.376 102.873C114.175 104.271 115.857 104.721 117.27 103.938ZM53.2344 27.2367L47.0303 16.4261C48.2207 15.5775 49.4936 14.7137 50.8642 13.9139C52.1792 13.1663 56.3257 10.7791 60.1592 10.7235L66.6748 22.0677C64.8261 21.6502 61.1343 22.4212 56.7637 24.9466C55.6929 25.6116 54.4062 26.3914 53.2344 27.2367ZM66.6802 50.4359L60.0449 38.9383C61.1748 38.1654 61.9175 37.6551 63.5254 36.7308C67.9785 34.1903 71.6367 33.4193 73.4516 33.8031L79.4824 44.2601C75.4795 45.5023 71.686 47.4842 68.9516 49.0467C68.167 49.5198 67.416 49.929 66.6802 50.4359ZM48.7827 49.5506L42.0058 37.7664C45.5669 33.9681 48.7036 30.5013 53.2344 27.2367L60.0449 38.9383C55.6269 42.1912 52.6367 45.5081 48.7827 49.5506ZM30.6645 48.138L24.4756 37.304C29.1528 34.2616 32.6313 30.7493 35.9297 27.222L42.0058 37.7664C38.4365 41.7078 34.81 45.3226 30.6645 48.138ZM44.0615 71.3743L37.4414 59.8885C41.8442 56.7298 44.9341 53.805 48.7827 49.5506L55.1738 60.6121C51.6802 64.3836 48.3481 68.2039 44.0615 71.3743ZM24.5664 65.8455L17.7895 54.1102C19.8672 53.5579 23.709 52.307 27.876 49.8909C28.8745 49.3353 29.7871 48.6634 30.6645 48.138L37.4414 59.8885C36.7407 60.4207 35.7524 61.0032 34.6528 61.6414C31.2397 63.5863 28.0693 64.9954 24.5664 65.8455Z" fill="#000000" fill-opacity="0.85"/>
 </g>
</svg>
