<?xml version="1.0" encoding="UTF-8"?>
<!--Generator: Apple Native CoreSVG 232.5-->
<!DOCTYPE svg
PUBLIC "-//W3C//DTD SVG 1.1//EN"
       "http://www.w3.org/Graphics/SVG/1.1/DTD/svg11.dtd">
<svg version="1.1" xmlns="http://www.w3.org/2000/svg" xmlns:xlink="http://www.w3.org/1999/xlink" width="97.9595" height="97.9932">
 <g>
  <rect height="97.9932" opacity="0" width="97.9595" x="0" y="0"/>
  <path d="M97.9595 49.021C97.9595 75.8584 75.8247 97.9932 48.9722 97.9932C22.1685 97.9932 0 75.8584 0 49.021C0 22.2173 22.1348 0.0488281 48.9385 0.0488281C75.791 0.0488281 97.9595 22.2173 97.9595 49.021ZM30.7002 27.4434C28.8008 28.2803 27.8174 29.6611 27.8174 31.4766L27.8174 73.6826C27.8174 74.71 28.6982 75.6025 29.8164 75.6025C31.002 75.6025 31.7295 74.7437 31.7295 73.6826L31.7295 58.4605C32.7666 58.0547 34.7954 57.4082 38.1172 57.4082C47.0376 57.4082 52.5806 61.8633 61.4082 61.8633C64.9932 61.8633 66.707 61.4878 68.5962 60.6275C70.5293 59.6777 71.4302 58.4399 71.4302 56.5083L71.4302 31.8433C71.4302 30.4961 70.7246 29.5732 69.0068 29.5732C67.648 29.5732 65.375 30.6777 61.1641 30.6777C52.4981 30.6777 46.9214 26.1704 37.8731 26.1704C34.0996 26.1704 32.4312 26.625 30.7002 27.4434Z" fill="#000000" fill-opacity="0.85"/>
 </g>
</svg>
