<?xml version="1.0" encoding="UTF-8"?>
<!--Generator: Apple Native CoreSVG 232.5-->
<!DOCTYPE svg
PUBLIC "-//W3C//DTD SVG 1.1//EN"
       "http://www.w3.org/Graphics/SVG/1.1/DTD/svg11.dtd">
<svg version="1.1" xmlns="http://www.w3.org/2000/svg" xmlns:xlink="http://www.w3.org/1999/xlink" width="88.4092" height="88.5371">
 <g>
  <rect height="88.5371" opacity="0" width="88.4092" x="0" y="0"/>
  <path d="M88.4092 14.4019L88.4092 74.2632C88.4092 83.6558 83.5733 88.5371 74.0005 88.5371L14.3936 88.5371C4.86963 88.5371 0 83.7349 0 74.2632L0 14.4019C0 4.93018 4.86963 0.127929 14.3936 0.127929L74.0005 0.127929C83.5733 0.127929 88.4092 5.00928 88.4092 14.4019ZM25.957 22.6328C24.0576 23.4697 23.0928 24.8691 23.0928 26.6997L23.0928 68.8906C23.0928 69.8994 23.9888 70.8257 25.0732 70.8257C26.2437 70.8257 27.0049 69.9331 27.0049 68.8906L27.0049 53.6836C28.0234 53.2627 30.0859 52.6314 33.3589 52.6314C42.2944 52.6314 47.8374 57.0713 56.665 57.0713C60.25 57.0713 61.9824 56.7109 63.853 55.8169C65.7861 54.9009 66.687 53.648 66.687 51.7314L66.687 27.0327C66.687 25.7041 65.9815 24.7813 64.2637 24.7813C62.8897 24.7813 60.6167 25.9009 56.4209 25.9009C47.7734 25.9009 42.1782 21.3936 33.1148 21.3936C29.375 21.3936 27.6729 21.8481 25.957 22.6328Z" fill="#000000" fill-opacity="0.85"/>
 </g>
</svg>
