<?xml version="1.0" encoding="UTF-8"?>
<!--Generator: Apple Native CoreSVG 232.5-->
<!DOCTYPE svg
PUBLIC "-//W3C//DTD SVG 1.1//EN"
       "http://www.w3.org/Graphics/SVG/1.1/DTD/svg11.dtd">
<svg version="1.1" xmlns="http://www.w3.org/2000/svg" xmlns:xlink="http://www.w3.org/1999/xlink" width="79.8643" height="113.049">
 <g>
  <rect height="113.049" opacity="0" width="79.8643" x="0" y="0"/>
  <path d="M37.8189 104.162C63.0249 104.162 79.8643 87.0635 79.8643 61.1875C79.8643 18.1221 43.2627 0 17.145 0C13.1606 0 10.791 1.38428 10.791 4.00977C10.791 5.04884 11.2524 6.10645 12.2021 7.21778C18.0884 14.2271 23.9443 22.7817 23.9966 31.9922C23.9966 34.5225 23.5103 36.8389 21.7661 39.5127L23.9199 39.0396C21.6621 32.0889 15.3604 27.3438 10.6992 27.3438C9.10596 27.3438 8.05664 28.5059 8.05664 30.2339C8.05664 31.5186 8.39844 34.4971 8.39844 36.6758C8.39844 48.4912 0 54.3428 0 71.6367C0 91.1987 14.9653 104.162 37.8189 104.162ZM38.1406 98.7944C18.5913 98.7944 5.41652 87.8018 5.41652 71.6367C5.41652 55.3638 13.8926 50.8975 13.8926 37.188C13.8926 35.3594 13.5776 33.4688 13.1836 31.6709L12.1968 33.291C15.9736 35.0479 19.6314 39.1817 21.3906 45.5381C21.5859 46.3516 22.0508 46.7793 22.7227 46.7793C25.8755 46.7793 28.8589 38.7359 28.8589 32.459C28.8589 22.0156 24.252 12.5972 16.0122 3.95948L15.0269 5.21925C49.438 5.40675 74.1699 28.6675 74.1699 61.019C74.1699 83.5049 59.6768 98.7944 38.1406 98.7944ZM38.6997 90.4263C49.897 90.4263 55.3189 82.2144 55.3189 72.9097C55.3189 63.7363 49.9341 53.6064 39.6948 48.6982C39.2857 48.5366 39.0078 48.7808 39.0566 49.1899C40.023 57.0615 38.8325 64.0596 36.3506 67.4238C35.1148 64.728 33.6196 62.3169 31.4341 60.4209C31.1074 60.1431 30.8296 60.2744 30.7471 60.6987C29.9507 66.0044 24.1196 68.9746 24.1196 77.2354C24.1196 85.1206 29.917 90.4263 38.6997 90.4263Z" fill="#000000" fill-opacity="0.85"/>
 </g>
</svg>
