<?xml version="1.0" encoding="UTF-8"?>
<!--Generator: Apple Native CoreSVG 232.5-->
<!DOCTYPE svg
PUBLIC "-//W3C//DTD SVG 1.1//EN"
       "http://www.w3.org/Graphics/SVG/1.1/DTD/svg11.dtd">
<svg version="1.1" xmlns="http://www.w3.org/2000/svg" xmlns:xlink="http://www.w3.org/1999/xlink" width="88.4551" height="98.6455">
 <g>
  <rect height="98.6455" opacity="0" width="88.4551" x="0" y="0"/>
  <path d="M64.7295 3.09913C64.7295 4.81544 63.399 6.26564 61.563 6.26564L60.9068 6.26564L60.9068 42.8443L85.212 77.7437C87.5371 81.0791 88.4551 84.0664 88.4551 86.4356C88.4551 93.21 83.8345 98.5782 76.1543 98.5782L12.3008 98.5782C4.60547 98.5782 0 93.21 0 86.4356C0 84.0664 0.783205 81.2324 2.93994 78.1665L27.5483 42.8443L27.5483 6.26564L26.8584 6.26564C25.0073 6.26564 23.7256 4.81544 23.7256 3.09913C23.7256 1.38282 25.0073 0 26.8584 0L61.563 0C63.399 0 64.7295 1.38282 64.7295 3.09913ZM33.5596 41.3223L33.5596 45.9302L43.1611 45.9302C44.4546 45.9302 45.4483 44.9365 45.4483 43.6094C45.4483 42.3833 44.4209 41.3223 43.1611 41.3223ZM33.5596 28.1025L33.5596 32.7256L43.1611 32.7256C44.4546 32.7256 45.4483 31.6983 45.4483 30.3711C45.4483 29.1299 44.3872 28.1025 43.1275 28.1025ZM33.5596 14.8643L33.5596 19.4873L43.1275 19.4873C44.4209 19.4873 45.4146 18.4785 45.4146 17.1514C45.4146 15.9253 44.3687 14.8643 43.0938 14.8643Z" fill="#000000" fill-opacity="0.85"/>
 </g>
</svg>
