<?xml version="1.0" encoding="UTF-8"?>
<!--Generator: Apple Native CoreSVG 232.5-->
<!DOCTYPE svg
PUBLIC "-//W3C//DTD SVG 1.1//EN"
       "http://www.w3.org/Graphics/SVG/1.1/DTD/svg11.dtd">
<svg version="1.1" xmlns="http://www.w3.org/2000/svg" xmlns:xlink="http://www.w3.org/1999/xlink" width="97.9595" height="97.9932">
 <g>
  <rect height="97.9932" opacity="0" width="97.9595" x="0" y="0"/>
  <path d="M97.9595 49.021C97.9595 75.8584 75.8247 97.9932 48.9722 97.9932C22.1685 97.9932 0 75.8584 0 49.021C0 22.2173 22.1348 0.0488281 48.9385 0.0488281C75.791 0.0488281 97.9595 22.2173 97.9595 49.021ZM41.2505 76.2803C41.2505 79.6748 43.1025 81.5757 46.3506 81.5757L51.5601 81.5757C54.8418 81.5757 56.7275 79.6748 56.7275 76.2803L56.7275 64.0252L41.2505 48.5434ZM22.6812 22.6812C21.9082 23.4878 21.9385 24.7105 22.6812 25.4194L72.5771 75.3457C73.3013 76.0547 74.5728 76.085 75.3154 75.3457C76.0732 74.5054 76.0732 73.3501 75.3154 72.6074L25.4194 22.6812C24.6768 21.9385 23.4727 21.9385 22.6812 22.6812ZM35.5444 25.6934L35.5444 28.2886L56.7275 49.4638L56.7275 44.5874C56.7275 41.4658 57.4077 39.3545 58.5308 37.6606L60.1235 35.1587C61.4907 33.044 62.415 31.1768 62.415 28.6411L62.415 25.6934ZM40.7119 16.4663C37.272 16.4663 35.5444 18.2578 35.5444 21.7466L35.5444 22.814L62.415 22.814L62.415 21.7466C62.415 18.2578 60.6875 16.4663 57.1836 16.4663Z" fill="#000000" fill-opacity="0.85"/>
 </g>
</svg>
