<?xml version="1.0" encoding="UTF-8"?>
<!--Generator: Apple Native CoreSVG 232.5-->
<!DOCTYPE svg
PUBLIC "-//W3C//DTD SVG 1.1//EN"
       "http://www.w3.org/Graphics/SVG/1.1/DTD/svg11.dtd">
<svg version="1.1" xmlns="http://www.w3.org/2000/svg" xmlns:xlink="http://www.w3.org/1999/xlink" width="89.8765" height="106.803">
 <g>
  <rect height="106.803" opacity="0" width="89.8765" x="0" y="0"/>
  <path d="M7.23292 62.5571C7.23292 85.0962 24.3618 106.803 53.7959 106.803C67.1953 106.803 76.4488 100.706 76.4488 93.1904C76.4488 89.1699 73.5513 86.5161 68.5908 86.127C67.4844 85.9922 66.499 86.3931 66.3457 87.6865C65.7276 94.8184 61.5884 99.6338 55.3081 99.6338C50.8194 99.6338 48.1455 96.9819 48.1455 93.5034C48.1455 81.1206 81.7095 79.3872 81.7095 57.7109C81.7095 47.2783 74.0235 40.1929 64.6797 40.1929C55.52 40.1929 48.0445 45.5386 44.9966 53.5615C45.438 41.6255 38.4854 34.7764 29.0366 34.7764C15.419 34.7764 7.23292 47.3057 7.23292 62.5571ZM12.9561 62.5571C12.9561 49 19.1953 40.4995 28.6812 40.4995C37.0908 40.4995 41.7564 47.3677 42.0796 57.4722C42.1621 60.0879 45.4683 60.1704 46.3677 58.311C50.2691 50.2495 57.1455 45.9009 64.5786 45.9009C71.0117 45.9009 76.0015 50.4819 76.0015 58.0327C76.0015 75.5654 42.5234 76.4844 42.5234 93.5034C42.5234 96.5854 44.023 99.1426 46.7173 100.47C25.3892 97.7593 12.9561 81.5591 12.9561 62.5571ZM18.3076 9.44825C34.5835 9.44825 48.9614 32.2075 72.315 32.2075C83.4961 32.2075 89.8765 25.7222 89.8765 16.313C89.8765 13.1929 89.001 9.56445 87.3189 6.3164C85.6397 3.0742 80.6206 5.21825 82.4834 8.82422C83.8657 11.4458 84.6436 14.3433 84.6436 16.7964C84.6436 23.1235 80.3433 26.8061 72.315 26.8061C51.8701 26.8061 37.5225 4.06201 18.3076 4.06201C6.70557 4.06201 0 11.5034 0 20.4063C0 23.4439 0.732422 26.5908 2.3623 29.7041C4.04151 32.8975 8.97804 30.6709 7.18263 27.2114C5.88282 24.6792 5.28175 22.2109 5.28175 20.0171C5.28175 13.9287 9.9004 9.44825 18.3076 9.44825ZM42.5864 53.8242L45.0571 54.5552L47.9541 52.6284C49.7544 38.063 59.8145 29.6055 59.8145 16.7397C59.8145 8.66406 54.2544 2.35107 46.9566 2.35107C40.5108 2.35107 35.2925 7.11816 34.9004 13.665L39.9497 15.127C40.1382 10.7998 42.8975 7.73731 46.9566 7.73731C51.2935 7.73731 54.4131 11.2798 54.4131 16.7397C54.4131 27.5288 43.7383 36.3569 42.5864 53.8242Z" fill="#000000" fill-opacity="0.85"/>
 </g>
</svg>
