<?xml version="1.0" encoding="UTF-8"?>
<!--Generator: Apple Native CoreSVG 232.5-->
<!DOCTYPE svg
PUBLIC "-//W3C//DTD SVG 1.1//EN"
       "http://www.w3.org/Graphics/SVG/1.1/DTD/svg11.dtd">
<svg version="1.1" xmlns="http://www.w3.org/2000/svg" xmlns:xlink="http://www.w3.org/1999/xlink" width="69.6817" height="88.1563">
 <g>
  <rect height="88.1563" opacity="0" width="69.6817" x="0" y="0"/>
  <path d="M11.9439 88.0923C24.832 88.0923 31.8638 81.1987 34.2866 66.5078L41.8394 21.8403C43.6777 11.0234 48.7608 6.26564 58.1372 6.26564C61.3399 6.26564 64.293 6.93752 66.2564 7.34474C67.3696 7.45412 68.1983 7.24513 68.7608 6.7212C69.3281 6.39942 69.6817 5.73927 69.6817 4.91749C69.6817 3.23828 68.4404 2.15186 66.6382 1.45459C64.584 0.627929 61.146 0 57.7329 0C44.8447 0 37.5029 6.99463 35.0684 21.3115L27.5493 65.7246C25.689 76.9375 20.958 81.7593 11.4048 81.7593C9.22315 81.7593 7.29054 81.3452 6.25685 81.0288C5.02589 80.7358 3.99513 80.4614 2.96778 80.4614C1.08301 80.4614 0 81.6421 0 83.2085C0 84.9331 1.15186 86.0835 3.03321 86.7319C5.4795 87.6528 8.37403 88.0923 11.9439 88.0923ZM10.2925 44.0215L61.0879 44.0215C62.8496 44.0215 63.9478 43.0059 63.9478 41.3267C63.9478 39.5952 62.8496 38.4819 61.0879 38.4819L10.2925 38.4819C8.49708 38.4819 7.41407 39.6104 7.41407 41.3267C7.41407 42.957 8.49708 44.0215 10.2925 44.0215Z" fill="#000000" fill-opacity="0.85"/>
 </g>
</svg>
