<?xml version="1.0" encoding="UTF-8"?>
<!--Generator: Apple Native CoreSVG 232.5-->
<!DOCTYPE svg
PUBLIC "-//W3C//DTD SVG 1.1//EN"
       "http://www.w3.org/Graphics/SVG/1.1/DTD/svg11.dtd">
<svg version="1.1" xmlns="http://www.w3.org/2000/svg" xmlns:xlink="http://www.w3.org/1999/xlink" width="103.497" height="112.138">
 <g>
  <rect height="112.138" opacity="0" width="103.497" x="0" y="0"/>
  <path d="M9.86867 40.3106L93.6284 40.3106C99.7568 40.3106 103.497 36.604 103.497 30.5615L103.497 11.8023C103.497 5.75979 99.7568 2.05325 93.6284 2.05325L9.86867 2.05325C3.74024 2.05325 0 5.75979 0 11.8023L0 30.5615C0 36.604 3.74024 40.3106 9.86867 40.3106ZM49.0049 50.7359L54.5596 50.7359L54.5596 37.728L49.0049 37.728ZM9.86867 85.8111L93.6284 85.8111C99.7568 85.8111 103.497 82.1197 103.497 76.0772L103.497 57.3028C103.497 51.2754 99.7568 47.5689 93.6284 47.5689L9.86867 47.5689C3.74024 47.5689 0 51.2754 0 57.3028L0 76.0772C0 82.1197 3.74024 85.8111 9.86867 85.8111ZM48.9409 95.7134L54.5747 95.7134L54.5747 82.2095L48.9409 82.2095ZM49.4028 110.919C50.7012 112.559 52.9307 112.529 54.2139 110.919L64.5933 97.7061C66.3633 95.4292 65.2871 92.4737 62.3955 92.4737L41.1875 92.4737C38.2436 92.4737 37.1186 95.3956 38.9712 97.7061Z" fill="#000000" fill-opacity="0.85"/>
 </g>
</svg>
