<?xml version="1.0" encoding="UTF-8"?>
<!--Generator: Apple Native CoreSVG 232.5-->
<!DOCTYPE svg
PUBLIC "-//W3C//DTD SVG 1.1//EN"
       "http://www.w3.org/Graphics/SVG/1.1/DTD/svg11.dtd">
<svg version="1.1" xmlns="http://www.w3.org/2000/svg" xmlns:xlink="http://www.w3.org/1999/xlink" width="133.725" height="93.6289">
 <g>
  <rect height="93.6289" opacity="0" width="133.725" x="0" y="0"/>
  <path d="M0 46.79C0 61.9658 5.05957 75.9024 13.5254 87.0962C14.6909 88.6963 16.6431 88.8462 18.1421 87.647C19.4912 86.4966 19.6748 84.6978 18.5615 83.1836C10.9126 73.1064 6.36671 60.4668 6.36671 46.79C6.36671 33.0796 10.9126 20.4736 18.5615 10.2988C19.6748 8.88233 19.4946 7.0498 18.1421 5.89941C16.6582 4.71533 14.6758 4.89892 13.5254 6.45019C5.05957 17.6743 0 31.6143 0 46.79ZM133.725 46.79C133.725 31.6143 128.699 17.6743 120.199 6.45019C119.049 4.89892 117.066 4.71533 115.583 5.89941C114.23 7.0498 114.084 8.88233 115.163 10.2988C122.846 20.4736 127.358 33.0796 127.358 46.79C127.358 60.4668 122.846 73.1064 115.163 83.1836C114.084 84.6978 114.233 86.4966 115.583 87.647C117.097 88.8462 119.034 88.6963 120.199 87.0962C128.699 75.9024 133.725 61.9658 133.725 46.79Z" fill="#000000" fill-opacity="0.85"/>
  <path d="M66.8623 89.1113C86.5581 89.1113 103.365 75.2427 107.66 57.2695C104.9 61.1333 100.075 63.4683 94.7647 63.4683C89.8618 63.4683 85.3648 61.5068 82.4468 58.1597C81.3877 56.9238 80.2427 56.8901 79.2139 58.1597C76.4644 61.4058 71.8511 63.4683 66.8286 63.4683C61.8213 63.4683 57.2569 61.4058 54.4434 58.1597C53.4146 56.8901 52.3032 56.9238 51.2256 58.1597C48.3413 61.5068 43.8291 63.4683 38.9263 63.4683C33.5825 63.4683 28.7574 61.1333 26.0127 57.2695C30.4273 75.3101 47.2002 89.1113 66.8623 89.1113ZM66.8623 93.565C92.479 93.565 113.686 72.3916 113.686 46.79C113.686 21.1733 92.479 0 66.8286 0C41.2271 0 20.0723 21.1397 20.0723 46.79C20.0723 72.3916 41.2456 93.565 66.8623 93.565ZM66.8623 87.2471C44.4795 87.2471 26.439 69.2065 26.439 46.79C26.439 24.3399 44.4458 6.29933 66.8286 6.29933C89.2451 6.29933 107.319 24.3399 107.353 46.79C107.387 69.1729 89.3125 87.2471 66.8623 87.2471Z" fill="#000000" fill-opacity="0.85"/>
 </g>
</svg>
