<?xml version="1.0" encoding="UTF-8"?>
<!--Generator: Apple Native CoreSVG 232.5-->
<!DOCTYPE svg
PUBLIC "-//W3C//DTD SVG 1.1//EN"
       "http://www.w3.org/Graphics/SVG/1.1/DTD/svg11.dtd">
<svg version="1.1" xmlns="http://www.w3.org/2000/svg" xmlns:xlink="http://www.w3.org/1999/xlink" width="97.9595" height="97.9932">
 <g>
  <rect height="97.9932" opacity="0" width="97.9595" x="0" y="0"/>
  <path d="M48.9722 97.9443C75.8247 97.9443 97.9595 75.7759 97.9595 48.9722C97.9595 22.1348 75.791 0 48.9385 0C22.1348 0 0 22.1348 0 48.9722C0 75.7759 22.1685 97.9443 48.9722 97.9443ZM48.9722 91.6113C25.3501 91.6113 6.36671 72.5942 6.36671 48.9722C6.36671 25.3501 25.3164 6.31789 48.9385 6.31789C72.5605 6.31789 91.6265 25.3501 91.6265 48.9722C91.6265 72.5942 72.5942 91.6113 48.9722 91.6113Z" fill="#000000" fill-opacity="0.85"/>
  <path d="M28.4028 71.1099L70.0317 71.1099C74.2798 71.1099 76.7095 68.6953 76.7095 64.0581L76.7095 42.9331L21.25 42.9331L21.25 64.0581C21.25 68.7105 23.7134 71.1099 28.4028 71.1099ZM21.25 39.4775L76.7095 39.4775L76.7095 37.2925C76.7095 32.6704 74.2461 30.2256 69.5566 30.2256L45.27 30.2256C43.334 30.2256 42.44 29.8467 41.2075 28.7642L39.7544 27.562C38.1279 26.2017 37.0772 25.8228 34.6948 25.8228L27.4263 25.8228C23.4458 25.8228 21.25 28.0186 21.25 32.3579Z" fill="#000000" fill-opacity="0.85"/>
 </g>
</svg>
