<?xml version="1.0" encoding="UTF-8"?>
<!--Generator: Apple Native CoreSVG 232.5-->
<!DOCTYPE svg
PUBLIC "-//W3C//DTD SVG 1.1//EN"
       "http://www.w3.org/Graphics/SVG/1.1/DTD/svg11.dtd">
<svg version="1.1" xmlns="http://www.w3.org/2000/svg" xmlns:xlink="http://www.w3.org/1999/xlink" width="109.42" height="88.2344">
 <g>
  <rect height="88.2344" opacity="0" width="109.42" x="0" y="0"/>
  <path d="M0 73.4771C0 82.9487 4.86963 87.751 14.3936 87.751L95.9922 87.751C104.551 87.751 109.42 82.8696 109.42 73.4771L109.42 32.7266L0 32.7266ZM0 27.6621L109.42 27.6621L109.42 23.2549C109.42 13.8623 104.517 8.99609 95.0269 8.99609L47.8189 8.99609C44.0899 8.99609 42.1333 8.30566 39.6011 6.02441L36.7739 3.61328C33.5664 0.77295 31.3638 0 26.4541 0L12.5684 0C4.46241 0 0 4.42871 0 13.3501Z" fill="#000000" fill-opacity="0.85"/>
 </g>
</svg>
