<?xml version="1.0" encoding="UTF-8"?>
<!--Generator: Apple Native CoreSVG 232.5-->
<!DOCTYPE svg
PUBLIC "-//W3C//DTD SVG 1.1//EN"
       "http://www.w3.org/Graphics/SVG/1.1/DTD/svg11.dtd">
<svg version="1.1" xmlns="http://www.w3.org/2000/svg" xmlns:xlink="http://www.w3.org/1999/xlink" width="109.42" height="88.2344">
 <g>
  <rect height="88.2344" opacity="0" width="109.42" x="0" y="0"/>
  <path d="M14.3936 87.751L95.9922 87.751C104.551 87.751 109.42 82.8696 109.42 73.4771L109.42 23.2549C109.42 13.8623 104.517 8.99609 95.0269 8.99609L47.8189 8.99609C44.0899 8.99609 42.1333 8.30566 39.6011 6.02441L36.7739 3.61328C33.5664 0.77295 31.3638 0 26.4541 0L12.5684 0C4.46241 0 0 4.42871 0 13.3501L0 73.4771C0 82.9487 4.86963 87.751 14.3936 87.751ZM14.5064 81.7061C9.00294 81.7061 6.04494 78.8154 6.04494 73.1773L6.04494 13.7442C6.04494 8.56203 8.65968 5.96583 13.7256 5.96583L24.9971 5.96583C28.5679 5.96583 30.4453 6.70509 33.0869 9.04689L35.8989 11.4917C38.9668 14.1587 41.4033 15.0259 46.3281 15.0259L94.8804 15.0259C100.274 15.0259 103.391 17.9502 103.391 23.5884L103.391 73.2109C103.391 78.8154 100.274 81.7061 94.8804 81.7061ZM3.61964 33.0484L105.828 33.0484L105.828 27.3403L3.61964 27.3403Z" fill="#000000" fill-opacity="0.85"/>
 </g>
</svg>
