<?xml version="1.0" encoding="UTF-8"?>
<!--Generator: Apple Native CoreSVG 232.5-->
<!DOCTYPE svg
PUBLIC "-//W3C//DTD SVG 1.1//EN"
       "http://www.w3.org/Graphics/SVG/1.1/DTD/svg11.dtd">
<svg version="1.1" xmlns="http://www.w3.org/2000/svg" xmlns:xlink="http://www.w3.org/1999/xlink" width="97.0402" height="97.0003">
 <g>
  <rect height="97.0003" opacity="0" width="97.0402" x="0" y="0"/>
  <path d="M10.047 94.6867C19.3155 97.4596 29.628 97.7223 39.8985 95.5084L1.50251 57.1124C-0.711353 67.3981-0.512622 77.7106 2.32429 86.9489C3.78425 91.8053 5.19051 93.2116 10.047 94.6867ZM75.713 75.6686C83.921 67.5128 89.7921 57.862 93.2472 47.8844L49.1265 3.7638C39.1187 7.18861 29.5318 13.0748 21.2784 21.298C13.0704 29.4537 7.23299 39.1046 3.74422 49.0973L47.8648 93.2028C57.9063 89.778 67.4932 83.8917 75.713 75.6686ZM41.2603 68.7946C40.5177 69.5187 39.3624 69.5187 38.6046 68.7609L28.1861 58.3424C27.4771 57.6183 27.4771 56.463 28.1861 55.7203C28.9137 54.9288 30.1329 54.9288 30.8419 55.6867L34.7628 59.6076L39.0118 55.3097L35.0909 51.4225C34.3971 50.7135 34.3971 49.5094 35.0909 48.7819C35.8487 48.0241 37.0377 48.0241 37.7804 48.7482L41.6676 52.7028L45.9469 48.4049L42.026 44.5177C41.3018 43.7936 41.2681 42.6046 42.026 41.8468C42.7535 41.1193 43.9913 41.1193 44.6515 41.8283L48.5723 45.734L52.8853 41.4699L48.9307 37.6129C48.2369 36.8888 48.2032 35.6847 48.9307 34.942C49.6734 34.1994 50.8624 34.1994 51.5865 34.9235L55.5074 38.8292L59.7901 34.5651L55.8844 30.6442C55.1417 29.9352 55.108 28.7799 55.8844 28.0221C56.5782 27.3283 57.7974 27.3283 58.4913 27.9884L68.9434 38.4708C69.6524 39.1984 69.6524 40.3688 68.9434 41.0963C68.2159 41.8541 66.9967 41.8205 66.2691 41.0626L62.4122 37.2208L58.1329 41.4699L62.0387 45.3756C62.7813 46.1183 62.7813 47.2736 62.0387 48.0651C61.2471 48.7589 60.0919 48.7252 59.3829 48.0314L55.5074 44.1593L51.2281 48.4049L55.1339 52.2804C55.8614 52.9894 55.8614 54.1784 55.1339 54.9699C54.3424 55.7125 53.1871 55.6788 52.4781 54.9362L48.5723 51.0792L44.3233 55.3097L48.1651 59.2003C48.9229 59.8942 48.9229 61.1471 48.1651 61.8898C47.4376 62.5836 46.2672 62.5836 45.543 61.8561L41.6676 57.9992L37.4034 62.2633L41.2603 66.1051C42.003 66.8629 42.003 68.0519 41.2603 68.7946ZM94.7159 10.0329C93.2071 5.16127 91.8497 3.80384 86.9781 2.27991C77.7247-0.493034 67.4122-0.725457 57.1417 1.5221L95.4889 39.8541C97.7516 29.5988 97.504 19.2863 94.7159 10.0329Z" fill="#000000" fill-opacity="0.85"/>
 </g>
</svg>
