<?xml version="1.0" encoding="UTF-8"?>
<!--Generator: Apple Native CoreSVG 232.5-->
<!DOCTYPE svg
PUBLIC "-//W3C//DTD SVG 1.1//EN"
       "http://www.w3.org/Graphics/SVG/1.1/DTD/svg11.dtd">
<svg version="1.1" xmlns="http://www.w3.org/2000/svg" xmlns:xlink="http://www.w3.org/1999/xlink" width="97.4535" height="97.4379">
 <g>
  <rect height="97.4379" opacity="0" width="97.4535" x="0" y="0"/>
  <path d="M76.0864 76.071C94.7861 57.3039 101.396 30.9816 95.123 10.218C93.5805 5.26387 92.1894 3.83906 87.1865 2.33027C66.4868-3.99199 40.1157 2.61836 21.3183 21.3332C2.61859 40.1003-3.99176 66.5017 2.3305 87.2014C3.82415 92.1555 5.2641 93.5803 10.2182 95.0891C30.997 101.381 57.289 94.7859 76.0864 76.071ZM71.6869 71.6716C54.7509 88.6447 32.4003 94.8156 12.2714 89.1906C9.40766 88.3859 9.0185 88.0119 8.19526 85.0471C2.64106 65.0158 8.77485 42.6384 25.7177 25.7326C42.6874 8.75949 65.016 2.60715 85.0322 8.16134C87.997 9.03341 88.3862 9.42257 89.1909 12.2863C94.8647 32.3664 88.6298 54.7658 71.6869 71.6716ZM56.5161 3.28585L51.5107 8.29123L89.0746 45.8889L94.1137 40.8801ZM3.3349 56.5158L40.8652 94.1286L45.9042 89.0896L8.34028 51.5256ZM28.7499 58.4231L38.9999 68.6545C39.7392 69.3972 40.8759 69.3972 41.6337 68.6545C42.3427 67.9152 42.3427 66.76 41.6337 65.987L31.4174 55.7556C30.6782 55.0314 29.4589 55.0314 28.7499 55.7556C28.0258 56.5285 28.0258 57.6501 28.7499 58.4231ZM35.52 51.5891L45.7851 61.8693C46.5244 62.5632 47.6948 62.5632 48.4189 61.8693C49.1279 61.1301 49.1279 59.926 48.4189 59.2019L38.1874 48.9856C37.4482 48.2614 36.2592 48.2614 35.52 48.9856C34.8261 49.6945 34.8261 50.8801 35.52 51.5891ZM42.3203 44.8191L52.5854 55.0691C53.2944 55.7932 54.4799 55.7932 55.2192 55.0691C55.913 54.2961 55.913 53.1408 55.2192 52.4353L44.9389 42.1853C44.2485 41.4914 43.0444 41.4914 42.3203 42.1853C41.5961 42.9245 41.5961 44.0798 42.3203 44.8191ZM49.0903 38.0676L59.3217 48.299C60.0947 48.9929 61.2499 48.9929 61.9892 48.299C62.747 47.5261 62.747 46.4045 61.9892 45.6652L51.7578 35.4001C50.9848 34.6911 49.8632 34.6911 49.0903 35.4001C48.3964 36.1242 48.3964 37.3283 49.0903 38.0676ZM55.9243 31.2673L66.122 41.4651C66.8647 42.2229 68.0502 42.2229 68.7592 41.4651C69.517 40.7561 69.517 39.6042 68.7592 38.8615L58.5429 28.5813C57.7851 27.8723 56.6484 27.8723 55.9243 28.5813C55.1816 29.3391 55.1816 30.5095 55.9243 31.2673ZM36.2372 63.7858L63.8349 36.237L61.2162 33.6184L33.6337 61.2312Z" fill="#000000" fill-opacity="0.85"/>
 </g>
</svg>
