<?xml version="1.0" encoding="UTF-8"?>
<!--Generator: Apple Native CoreSVG 232.5-->
<!DOCTYPE svg
PUBLIC "-//W3C//DTD SVG 1.1//EN"
       "http://www.w3.org/Graphics/SVG/1.1/DTD/svg11.dtd">
<svg version="1.1" xmlns="http://www.w3.org/2000/svg" xmlns:xlink="http://www.w3.org/1999/xlink" width="64.9253" height="118.552">
 <g>
  <rect height="118.552" opacity="0" width="64.9253" x="0" y="0"/>
  <path d="M16.0972 111.9C20.002 111.9 22.6016 109.666 22.5376 105.768L21.561 51.3276C21.5308 49.5581 22.1875 48.3945 23.7163 47.7109C30.0557 44.894 32.521 41.8398 32.1641 33.4463L30.8423 3.90479C30.7598 1.89258 29.5659 0.732422 27.6397 0.732422C25.7959 0.732422 24.6846 1.92627 24.6846 4.01758L24.9961 32.729C24.9961 34.4985 23.9219 35.4819 22.3862 35.4819C20.832 35.4819 19.6904 34.5322 19.6904 32.8755L19.2022 3.13867C19.1685 1.16016 18.0083 0 16.0972 0C14.1709 0 13.0444 1.16016 13.0107 3.13867L12.5225 32.8755C12.5225 34.5322 11.3809 35.4819 9.82666 35.4819C8.29102 35.4819 7.21338 34.4985 7.21338 32.729L7.50977 4.01758C7.50977 1.92627 6.41699 0.732422 4.53955 0.732422C2.62842 0.732422 1.41943 1.89258 1.33691 3.90479L0.0488281 33.4463C-0.341797 41.8398 2.13867 44.894 8.46289 47.7109C9.9917 48.3945 10.6484 49.5581 10.6333 51.3276L9.6753 105.768C9.62647 109.666 12.1772 111.9 16.0972 111.9ZM53.1455 70.9116L51.9839 105.221C51.8071 109.666 54.4859 111.9 58.3721 111.9C62.3408 111.9 64.9253 109.801 64.9253 105.94L64.9253 3.40479C64.9253 1.11133 63.4282 0 61.7461 0C59.9663 0 58.8364 0.961426 57.4556 2.98389C49.6094 13.9585 44.6304 33.9468 44.6304 53.8867L44.6304 56.7637C44.6304 60.3145 45.7905 62.6685 48.2319 64.3252L50.7647 66.0664C52.5073 67.3022 53.2583 68.8208 53.1455 70.9116Z" fill="#000000" fill-opacity="0.85"/>
 </g>
</svg>
