<?xml version="1.0" encoding="UTF-8"?>
<!--Generator: Apple Native CoreSVG 232.5-->
<!DOCTYPE svg
PUBLIC "-//W3C//DTD SVG 1.1//EN"
       "http://www.w3.org/Graphics/SVG/1.1/DTD/svg11.dtd">
<svg version="1.1" xmlns="http://www.w3.org/2000/svg" xmlns:xlink="http://www.w3.org/1999/xlink" width="142.101" height="74.7783">
 <g>
  <rect height="74.7783" opacity="0" width="142.101" x="0" y="0"/>
  <path d="M17.4746 74.7783C19.2344 74.7783 20.8491 74.1284 22.4995 73.1382L72.6641 43.6143C75.4649 41.9722 76.7969 39.9429 76.7969 37.4439C76.7969 34.9634 75.48 32.9795 72.6641 31.3071L22.4995 1.7832C20.7852 0.792968 19.2344 0.143066 17.4746 0.143066C14.1504 0.143066 11.2153 2.6792 11.2153 7.59962L11.2153 67.3218C11.2153 72.2573 14.1504 74.7783 17.4746 74.7783ZM18.9268 67.9702C18.1035 67.9702 17.2149 67.4248 17.2149 65.9453L17.2149 8.97609C17.2149 7.4966 18.1035 6.95119 18.9268 6.95119C19.3745 6.95119 19.8071 7.09767 20.5073 7.46291L68.3657 35.7739C69.2158 36.2554 69.667 36.6729 69.667 37.4439C69.667 38.2334 69.2007 38.6812 68.3657 39.1626L20.5073 67.4585C19.856 67.8574 19.3745 67.9702 18.9268 67.9702ZM82.7783 74.7783C84.5381 74.7783 86.1529 74.1284 87.7881 73.1382L138.001 43.6143C140.769 41.9722 142.101 39.9429 142.101 37.4439C142.101 34.9634 140.784 32.9795 138.001 31.3071L87.7881 1.7832C86.1226 0.792968 84.5381 0.143066 82.7783 0.143066C79.4541 0.143066 76.5191 2.6792 76.5191 7.59962L76.5191 67.3218C76.5191 72.2573 79.4541 74.7783 82.7783 74.7783ZM84.2305 67.9702C83.4073 67.9702 82.5186 67.4248 82.5186 65.9453L82.5186 8.97609C82.5186 7.4966 83.4073 6.95119 84.2305 6.95119C84.6782 6.95119 85.1109 7.09767 85.8111 7.46291L133.669 35.7739C134.52 36.2554 134.971 36.6729 134.971 37.4439C134.971 38.2334 134.504 38.6812 133.669 39.1626L85.8111 67.4585C85.1597 67.8574 84.6782 67.9702 84.2305 67.9702Z" fill="#000000" fill-opacity="0.85"/>
 </g>
</svg>
