<?xml version="1.0" encoding="UTF-8"?>
<!--Generator: Apple Native CoreSVG 232.5-->
<!DOCTYPE svg
PUBLIC "-//W3C//DTD SVG 1.1//EN"
       "http://www.w3.org/Graphics/SVG/1.1/DTD/svg11.dtd">
<svg version="1.1" xmlns="http://www.w3.org/2000/svg" xmlns:xlink="http://www.w3.org/1999/xlink" width="122.207" height="96.0791">
 <g>
  <rect height="96.0791" opacity="0" width="122.207" x="0" y="0"/>
  <path d="M56.7798 96.0791C90.1528 96.0791 115.178 73.4312 122.06 42.5889C122.753 39.5996 120.943 37.4775 117.792 37.4775L72.1943 37.4775L72.1943 43.2866L118.735 43.2866L116.54 41.2856C109.809 70.3774 86.3383 90.2886 56.7798 90.2886C26.4482 90.2886 5.74266 71.1807 5.74266 43.917C5.74266 22.0645 21.6059 5.83937 42.2915 5.83937C58.2695 5.83937 70.0615 16.6245 70.0615 31.269C70.0615 43.5176 61.977 52.6645 51.0351 52.6645C41.9316 52.6645 35.3017 46.4185 35.3017 38.4702C35.3017 32.0508 39.6889 27.1079 45.6572 27.1079C50.5361 27.1079 53.6538 30.1231 53.6538 34.2105C53.6538 37.4409 51.6674 39.7051 48.7788 39.7051C46.4507 39.7051 45.6191 38.5806 45.0366 37.4409C44.624 36.668 44.0429 36.1763 42.9702 36.1763C41.7138 36.1763 40.4995 37.1548 40.4995 38.9014C40.4995 41.8027 43.3198 45.5142 48.6694 45.5142C54.7783 45.5142 59.4629 40.9863 59.4629 34.2105C59.4629 26.8809 53.5088 21.2988 45.6572 21.2988C36.7802 21.2988 29.4926 28.8574 29.4926 38.4702C29.4926 49.6606 38.7197 58.4399 51.0351 58.4399C67.7109 58.4399 75.852 43.7324 75.852 31.269C75.852 13.3604 61.5488 0.0639647 42.2915 0.0639647C18.3266 0.0639647 0.0160805 18.7515 0.0160805 43.917C0.0160805 74.4902 23.0527 96.0791 56.7798 96.0791ZM65.7846 9.52441L49.6176 25.7251L52.8344 29.0025L69.0166 12.8203ZM40.4589 1.52393L40.4589 25.6699L45.0146 25.6699L45.0146 1.52393ZM15.6611 12.0698L34.0761 30.5186L37.2593 27.2075L18.9082 8.78906ZM4.19334 41.5225L32.2954 41.5225L32.2954 36.9331L4.19334 36.9331ZM14.3882 74.7998L37.6513 51.5855L34.4043 48.3535L11.2505 71.5225ZM47.7641 92.396L52.3535 92.396L52.3535 56.5855L47.7641 56.5855ZM91.5239 82.5664L94.7221 79.3008L64.9966 49.5566L61.7495 52.7886Z" fill="#000000" fill-opacity="0.85"/>
 </g>
</svg>
