<?xml version="1.0" encoding="UTF-8"?>
<!--Generator: Apple Native CoreSVG 232.5-->
<!DOCTYPE svg
PUBLIC "-//W3C//DTD SVG 1.1//EN"
       "http://www.w3.org/Graphics/SVG/1.1/DTD/svg11.dtd">
<svg version="1.1" xmlns="http://www.w3.org/2000/svg" xmlns:xlink="http://www.w3.org/1999/xlink" width="107.333" height="97.9932">
 <g>
  <rect height="97.9932" opacity="0" width="107.333" x="0" y="0"/>
  <path d="M58.3575 97.9443C85.1612 97.9443 107.33 75.7759 107.33 48.9722C107.33 22.1348 85.1612 0 58.3575 0C31.5201 0 9.38533 22.1011 9.38533 48.9385L15.7032 48.9385C15.7032 25.3164 34.7354 6.35158 58.3575 6.35158C81.9796 6.35158 101.012 25.3501 101.012 48.9722C101.012 72.5942 81.9796 91.6787 58.3575 91.6113C43.5182 91.5928 30.6148 84.0068 22.9474 72.5923C21.8121 71.0444 20.047 70.561 18.4806 71.479C16.9967 72.397 16.5655 74.4165 17.8018 76.0655C26.943 89.0161 41.5392 97.9443 58.3575 97.9443ZM2.84969 40.0024C7.79875e-05 40.0024-0.788009 41.9561 0.828693 44.2666L11.4786 59.4307C12.8326 61.3438 14.7677 61.3101 16.1031 59.4307L26.753 44.2329C28.336 41.9561 27.5479 40.0024 24.7169 40.0024Z" fill="#000000" fill-opacity="0.85"/>
  <path d="M49.7486 72.6026C51.2594 72.6026 52.2716 71.5718 52.2716 70.0493L52.2716 64.211L63.0416 64.211C64.2306 64.211 65.0069 63.3335 65.0069 62.1782C65.0069 61.023 64.2306 60.1792 63.0416 60.1792L52.2716 60.1792L52.2716 51.645L69.0948 51.645C70.4708 51.645 71.483 50.7002 71.483 49.2754C71.483 47.8657 70.4708 46.9546 69.0948 46.9546L52.2716 46.9546L52.2716 32.3643L70.8712 32.3643C72.2623 32.3643 73.2594 31.4194 73.2594 30.0098C73.2594 28.5664 72.2623 27.6216 70.8712 27.6216L49.7149 27.6216C48.2042 27.6216 47.2257 28.6338 47.2257 30.2271L47.2257 60.1792L43.4254 60.1792C42.2027 60.1792 41.4112 61.023 41.4112 62.1782C41.4112 63.3335 42.2027 64.211 43.4254 64.211L47.2257 64.211L47.2257 70.0527C47.2257 71.5938 48.2867 72.6026 49.7486 72.6026Z" fill="#000000" fill-opacity="0.85"/>
 </g>
</svg>
