<?xml version="1.0" encoding="UTF-8"?>
<!--Generator: Apple Native CoreSVG 232.5-->
<!DOCTYPE svg
PUBLIC "-//W3C//DTD SVG 1.1//EN"
       "http://www.w3.org/Graphics/SVG/1.1/DTD/svg11.dtd">
<svg version="1.1" xmlns="http://www.w3.org/2000/svg" xmlns:xlink="http://www.w3.org/1999/xlink" width="88.4092" height="88.5371">
 <g>
  <rect height="88.5371" opacity="0" width="88.4092" x="0" y="0"/>
  <path d="M88.4092 14.4019L88.4092 74.2632C88.4092 83.6558 83.5733 88.5371 74.0005 88.5371L14.3936 88.5371C4.86963 88.5371 0 83.7349 0 74.2632L0 14.4019C0 4.93018 4.86963 0.127929 14.3936 0.127929L74.0005 0.127929C83.5733 0.127929 88.4092 5.00928 88.4092 14.4019ZM35.418 22.437C33.8398 22.437 32.8276 23.4829 32.8276 25.1099L32.8276 55.6719L28.9263 55.6719C27.7036 55.6719 26.9272 56.5493 26.9272 57.7383C26.9272 58.9273 27.7036 59.8384 28.9263 59.8384L32.8276 59.8384L32.8276 65.7661C32.8276 67.356 33.9561 68.3833 35.4517 68.3833C36.9961 68.3833 38.0269 67.334 38.0269 65.7778L38.0269 59.8384L48.999 59.8384C50.2217 59.8384 51.0654 58.9273 51.0654 57.7383C51.0654 56.5493 50.2217 55.6719 48.999 55.6719L38.0269 55.6719L38.0269 47.0029L55.1719 47.0029C56.6304 47.0029 57.6611 46.0244 57.6611 44.5811C57.6611 43.104 56.6304 42.1592 55.1719 42.1592L38.0269 42.1592L38.0269 27.3145L56.9971 27.3145C58.4067 27.3145 59.4863 26.3359 59.4863 24.8926C59.4863 23.3818 58.4067 22.437 56.9971 22.437Z" fill="#000000" fill-opacity="0.85"/>
 </g>
</svg>
