<?xml version="1.0" encoding="UTF-8"?>
<!--Generator: Apple Native CoreSVG 232.5-->
<!DOCTYPE svg
PUBLIC "-//W3C//DTD SVG 1.1//EN"
       "http://www.w3.org/Graphics/SVG/1.1/DTD/svg11.dtd">
<svg version="1.1" xmlns="http://www.w3.org/2000/svg" xmlns:xlink="http://www.w3.org/1999/xlink" width="97.9595" height="97.9932">
 <g>
  <rect height="97.9932" opacity="0" width="97.9595" x="0" y="0"/>
  <path d="M48.9722 97.9443C75.8247 97.9443 97.9595 75.7759 97.9595 48.9722C97.9595 22.1348 75.791 0 48.9385 0C22.1348 0 0 22.1348 0 48.9722C0 75.7759 22.1685 97.9443 48.9722 97.9443ZM48.9722 91.6113C25.3501 91.6113 6.36671 72.5942 6.36671 48.9722C6.36671 25.3501 25.3164 6.31789 48.9385 6.31789C72.5605 6.31789 91.6265 25.3501 91.6265 48.9722C91.6265 72.5942 72.5942 91.6113 48.9722 91.6113Z" fill="#000000" fill-opacity="0.85"/>
  <path d="M40.3633 72.6026C41.8403 72.6026 42.8526 71.5718 42.8526 70.0493L42.8526 64.211L53.6226 64.211C54.8115 64.211 55.6216 63.3335 55.6216 62.1782C55.6216 61.023 54.8115 60.1792 53.6226 60.1792L42.8526 60.1792L42.8526 51.645L59.6758 51.645C61.0518 51.645 62.0977 50.7002 62.0977 49.2754C62.0977 47.8657 61.0518 46.9546 59.6758 46.9546L42.8526 46.9546L42.8526 32.3643L61.4522 32.3643C62.8433 32.3643 63.8403 31.4194 63.8403 30.0098C63.8403 28.5664 62.8433 27.6216 61.4522 27.6216L40.3296 27.6216C38.7852 27.6216 37.8066 28.6338 37.8066 30.2271L37.8066 60.1792L34.0063 60.1792C32.8174 60.1792 32.0259 61.023 32.0259 62.1782C32.0259 63.3335 32.8174 64.211 34.0063 64.211L37.8066 64.211L37.8066 70.0527C37.8066 71.5938 38.9014 72.6026 40.3633 72.6026Z" fill="#000000" fill-opacity="0.85"/>
 </g>
</svg>
