<?xml version="1.0" encoding="UTF-8"?>
<!--Generator: Apple Native CoreSVG 232.5-->
<!DOCTYPE svg
PUBLIC "-//W3C//DTD SVG 1.1//EN"
       "http://www.w3.org/Graphics/SVG/1.1/DTD/svg11.dtd">
<svg version="1.1" xmlns="http://www.w3.org/2000/svg" xmlns:xlink="http://www.w3.org/1999/xlink" width="134.459" height="128.868">
 <g>
  <rect height="128.868" opacity="0" width="134.459" x="0" y="0"/>
  <path d="M30.8486 50.2473L30.8384 111.949L85.8182 111.949L85.8146 105.168L91.8193 111.168L91.8193 111.949L92.6008 111.949L97.7806 117.124C97.2378 117.653 96.5035 117.979 95.7002 117.979L20.8447 117.979C19.1806 117.979 17.8955 116.581 17.8955 114.898C17.8955 113.264 19.2295 111.949 20.8447 111.949L24.8383 111.949L24.8383 44.242ZM85.8026 82.6902L85.771 23.2687C85.771 19.1027 83.4936 16.9044 79.4101 16.9044L37.1836 16.9044C32.9233 16.9044 30.853 19.1061 30.853 23.2687L30.8523 27.7575L24.885 21.7922C25.3502 14.7116 29.5463 10.8595 37.0859 10.8595L79.5229 10.8595C87.4853 10.8595 91.8193 15.254 91.8193 23.1559L91.8193 68.5538L92.2925 68.5538C98.2602 68.5538 102.007 72.1994 102.007 78.3322L102.007 95.0241C102.007 97.8576 103.751 99.6354 106.633 99.6354C109.418 99.6354 111.177 97.8576 111.177 95.0241L111.177 58.6461L103.368 49.4577C101.549 47.3239 101.377 45.0436 103.113 42.6471L109.313 33.8629C109.793 33.1505 109.842 32.3219 109.411 31.5944L103.456 21.9991C101.465 18.8278 106.004 16.005 108.01 19.173L114.76 30.0279C115.964 31.9562 116.563 33.733 116.563 36.0724L116.563 95.0241C116.563 100.704 113.348 104.392 108.059 104.94L96.6206 93.5047L96.6206 78.3322C96.6206 75.5426 94.917 73.9401 92.2925 73.9401L91.8193 73.9401L91.8193 88.705ZM43.7478 63.1359L41.4912 63.1359C38.5259 63.1359 36.5405 61.2736 36.5405 58.4767L36.5405 55.9345ZM80.1172 27.8273L80.1172 58.4767C80.1172 61.2736 78.083 63.1359 75.1025 63.1359L66.242 63.1359L36.5405 33.4439L36.5405 27.8273C36.5405 25.0153 38.541 23.0856 41.4912 23.0856L75.1025 23.0856C78.0678 23.0856 80.1172 25.0153 80.1172 27.8273Z" fill="#000000" fill-opacity="0.85"/>
  <path d="M110.743 123.01C111.924 124.142 113.771 124.142 114.87 123.01C116.062 121.814 116.05 119.982 114.87 118.85L10.0195 14.0519C8.90279 12.9352 7.07026 12.8898 5.85932 14.0519C4.74604 15.15 4.74604 17.0802 5.85932 18.1784Z" fill="#000000" fill-opacity="0.85"/>
 </g>
</svg>
