<?xml version="1.0" encoding="UTF-8"?>
<!--Generator: Apple Native CoreSVG 232.5-->
<!DOCTYPE svg
PUBLIC "-//W3C//DTD SVG 1.1//EN"
       "http://www.w3.org/Graphics/SVG/1.1/DTD/svg11.dtd">
<svg version="1.1" xmlns="http://www.w3.org/2000/svg" xmlns:xlink="http://www.w3.org/1999/xlink" width="129.997" height="128.868">
 <g>
  <rect height="128.868" opacity="0" width="129.997" x="0" y="0"/>
  <path d="M32.2275 51.6251L32.2275 56.0363C32.2275 59.2775 34.3423 61.276 37.7553 61.276L41.8864 61.276L87.3232 106.676L87.3232 111.949L91.2529 111.949C92.853 111.949 94.2661 113.298 94.2661 114.898C94.2661 116.581 92.853 117.979 91.2529 117.979L20.8447 117.979C19.2446 117.979 17.8955 116.581 17.8955 114.898C17.8955 113.264 19.2783 111.949 20.8447 111.949L24.8872 111.949L24.8872 44.2908ZM103.514 19.173L110.297 30.0279C111.468 31.9562 112.067 33.733 112.067 36.0724L112.067 95.0241C112.067 99.3025 110.259 102.451 107.098 103.978L102.723 99.6051C105.167 99.3729 106.681 97.6528 106.681 95.0241L106.681 58.6461L98.8716 49.4577C97.0527 47.3239 96.9145 45.0436 98.6172 42.6471L104.817 33.8629C105.297 33.1505 105.346 32.3219 104.915 31.5944L98.9594 21.9991C96.9687 18.8278 101.541 16.005 103.514 19.173ZM64.3815 61.276L74.4062 61.276C77.7856 61.276 79.9829 59.2775 79.9829 56.0363L79.9829 23.5373C79.9829 20.296 77.7856 18.2638 74.4062 18.2638L37.7553 18.2638C34.3423 18.2638 32.2275 20.296 32.2275 23.5373L32.2275 29.1323L24.9317 21.8389C25.3757 14.7282 29.5301 10.8595 37.0859 10.8595L75.0757 10.8595C82.9892 10.8595 87.3232 15.254 87.3232 23.1559L87.3232 68.5538L87.7964 68.5538C93.7978 68.5538 97.5107 72.1994 97.5107 78.3322L97.5107 94.3946L92.1245 89.01L92.1245 78.3322C92.1245 75.5426 90.4209 73.9401 87.7964 73.9401L87.3232 73.9401L87.3232 84.2103Z" fill="#000000" fill-opacity="0.85"/>
  <path d="M110.743 123.01C111.924 124.142 113.771 124.142 114.87 123.01C116.062 121.814 116.05 119.982 114.87 118.85L10.0195 14.0519C8.90279 12.9352 7.07026 12.8898 5.85932 14.0519C4.74604 15.15 4.74604 17.0802 5.85932 18.1784Z" fill="#000000" fill-opacity="0.85"/>
 </g>
</svg>
