<?xml version="1.0" encoding="UTF-8"?>
<!--Generator: Apple Native CoreSVG 232.5-->
<!DOCTYPE svg
PUBLIC "-//W3C//DTD SVG 1.1//EN"
       "http://www.w3.org/Graphics/SVG/1.1/DTD/svg11.dtd">
<svg version="1.1" xmlns="http://www.w3.org/2000/svg" xmlns:xlink="http://www.w3.org/1999/xlink" width="138.048" height="107.149">
 <g>
  <rect height="107.149" opacity="0" width="138.048" x="0" y="0"/>
  <path d="M69.4287 104.138L69.4287 12.2964C69.4287 4.39453 65.0796 0 57.1812 0L19.1426 0C11.1465 0 6.95899 4.34912 6.95899 12.2964L6.95899 104.138ZM19.8457 50.4165C16.4478 50.4165 14.2993 48.418 14.2993 45.1768L14.2993 12.6777C14.2993 9.43653 16.4478 7.4043 19.8457 7.4043L56.478 7.4043C59.8911 7.4043 62.0884 9.43653 62.0884 12.6777L62.0884 45.1768C62.0884 48.418 59.8911 50.4165 56.478 50.4165ZM0.000974937 104.039C0.000974937 105.721 1.31641 107.119 2.9502 107.119L73.3247 107.119C74.9585 107.119 76.3565 105.721 76.3565 104.039C76.3565 102.438 74.9585 101.089 73.3247 101.089L2.9502 101.089C1.3501 101.089 0.000974937 102.405 0.000974937 104.039ZM66.5166 63.0806L69.9019 63.0806C72.5264 63.0806 74.2149 64.6831 74.2149 67.4727L74.2149 84.1646C74.2149 90.3413 78.0508 94.1621 84.2427 94.1621C90.3706 94.1621 94.1729 90.3413 94.1729 84.1646L94.1729 25.2129C94.1729 22.8735 93.5733 21.0967 92.354 19.1684L85.6192 8.31346C83.6133 5.14548 79.0742 7.96824 81.065 11.1396L87.0049 20.7348C87.4512 21.4624 87.4024 22.291 86.9224 23.0034L80.7075 31.7876C78.9863 34.1841 79.1582 36.4644 80.9619 38.5981L88.7715 47.7866L88.7715 84.1646C88.7715 86.998 87.0274 88.7759 84.2427 88.7759C81.3604 88.7759 79.6162 86.998 79.6162 84.1646L79.6162 67.4727C79.6162 61.3398 75.8697 57.6943 69.9019 57.6943L66.5166 57.6943Z" fill="#000000" fill-opacity="0.85"/>
  <path d="M136.722 51.4033L111.412 36.1929C109.674 35.1758 107.393 36.043 107.393 37.8818L107.393 69.2036C107.393 71.1065 109.573 72.0073 111.412 70.8926L136.722 55.8403C138.523 54.7778 138.456 52.4321 136.722 51.4033Z" fill="#000000" fill-opacity="0.85"/>
 </g>
</svg>
