<?xml version="1.0" encoding="UTF-8"?>
<!--Generator: Apple Native CoreSVG 232.5-->
<!DOCTYPE svg
PUBLIC "-//W3C//DTD SVG 1.1//EN"
       "http://www.w3.org/Graphics/SVG/1.1/DTD/svg11.dtd">
<svg version="1.1" xmlns="http://www.w3.org/2000/svg" xmlns:xlink="http://www.w3.org/1999/xlink" width="97.9595" height="98.1211">
 <g>
  <rect height="98.1211" opacity="0" width="97.9595" x="0" y="0"/>
  <path d="M97.9595 49.1338C97.9595 75.9863 75.8247 98.1211 48.9722 98.1211C22.1685 98.1211 0 75.9863 0 49.1338C0 22.3301 22.1348 0.161621 48.9385 0.161621C75.791 0.161621 97.9595 22.3301 97.9595 49.1338ZM34.3203 19.7407C30.1733 19.7407 27.8784 22.002 27.8784 26.1826L27.8784 73.2979L26.436 73.2979C25.4307 73.2979 24.5532 74.0708 24.5532 75.0459C24.5532 76.0664 25.4307 76.959 26.436 76.959L64.228 76.959C65.5464 76.959 66.3867 76.0664 66.3867 75.0459C66.3867 74.0708 65.5464 73.2979 64.228 73.2979L63.0615 73.2979L63.0615 66.4722L70.5757 66.4722C74.5396 66.4722 76.5703 64.4717 76.5703 60.6055L76.5703 32.9248C76.5703 31.231 76.0786 29.9243 75.252 28.5269L71.6607 22.7232C70.3809 20.7192 67.5029 22.5127 68.7153 24.5166L72.5742 30.645L68.8447 35.9336C67.7383 37.4375 67.8208 38.7173 69.0132 40.1387L73.1333 45.0029L73.1333 60.5112C73.1333 62.1899 72.2207 63.0352 70.5606 63.0352L63.0615 63.0352L63.0615 26.1826C63.0615 22.0171 60.8154 19.7407 56.6045 19.7407ZM56.6162 28.7051L56.6162 45.0674C56.6162 46.418 55.6782 47.3223 54.2568 47.3223L36.7319 47.3223C35.2651 47.3223 34.3423 46.418 34.3423 45.0674L34.3423 28.7051C34.3423 27.3545 35.2651 26.499 36.7319 26.499L54.2568 26.499C55.6782 26.499 56.6162 27.3545 56.6162 28.7051Z" fill="#000000" fill-opacity="0.85"/>
 </g>
</svg>
