<?xml version="1.0" encoding="UTF-8"?>
<!--Generator: Apple Native CoreSVG 232.5-->
<!DOCTYPE svg
PUBLIC "-//W3C//DTD SVG 1.1//EN"
       "http://www.w3.org/Graphics/SVG/1.1/DTD/svg11.dtd">
<svg version="1.1" xmlns="http://www.w3.org/2000/svg" xmlns:xlink="http://www.w3.org/1999/xlink" width="97.9595" height="97.9932">
 <g>
  <rect height="97.9932" opacity="0" width="97.9595" x="0" y="0"/>
  <path d="M97.9595 48.9722C97.9595 75.7759 75.8247 97.9443 48.9722 97.9443C22.1685 97.9443 0 75.7759 0 48.9722C0 22.1348 22.1348 0 48.9385 0C75.791 0 97.9595 22.1348 97.9595 48.9722ZM28.2715 48.6992C28.2715 63.2285 36.5674 72.6524 49.3223 72.6524C61.1074 72.6524 68.25 65.4072 68.25 54.7764L68.25 51.1108C68.25 48.9785 67.0322 47.7153 64.9824 47.7153L50.9429 47.7153C49.4507 47.7153 48.5396 48.7241 48.5396 50.1001C48.5396 51.3901 49.4507 52.4849 50.9429 52.4849L61.9946 52.4849L61.9946 55.4722C61.9946 62.7158 57.54 67.3403 49.3897 67.3403C40.5811 67.3403 34.6279 59.8247 34.6279 48.6992C34.6279 37.6074 40.5474 30.0581 49.2886 30.0581C55.7617 30.0581 60.5547 33.398 62.2607 39.0176C62.8486 40.4844 63.5981 41.1294 64.9336 41.1294C66.6431 41.1294 67.6924 40.0347 67.6924 38.2949C67.6924 37.5674 67.5425 36.9932 67.3252 36.2842C65.4287 30.3418 59.1177 24.7124 49.1875 24.7124C36.5674 24.7124 28.2715 34.2036 28.2715 48.6992Z" fill="#000000" fill-opacity="0.85"/>
 </g>
</svg>
