<?xml version="1.0" encoding="UTF-8"?>
<!--Generator: Apple Native CoreSVG 232.5-->
<!DOCTYPE svg
PUBLIC "-//W3C//DTD SVG 1.1//EN"
       "http://www.w3.org/Graphics/SVG/1.1/DTD/svg11.dtd">
<svg version="1.1" xmlns="http://www.w3.org/2000/svg" xmlns:xlink="http://www.w3.org/1999/xlink" width="139.271" height="86.8301">
 <g>
  <rect height="86.8301" opacity="0" width="139.271" x="0" y="0"/>
  <path d="M29.6909 33.5947C29.6909 31.6914 30.9204 30.4619 32.9063 30.4619L43.2715 30.4619L43.2715 20.0381C43.2715 18.0859 44.4336 16.8564 46.3369 16.8564C48.2217 16.8564 49.4175 18.0859 49.4175 20.0381L49.4175 30.4619L59.3936 30.4619C61.5142 30.4619 62.8296 31.6914 62.8296 33.5947C62.8296 35.5654 61.5142 36.8286 59.3936 36.8286L49.4175 36.8286L49.4175 47.2373C49.4175 49.2046 48.2217 50.4526 46.3369 50.4526C44.4336 50.4526 43.2715 49.2046 43.2715 47.2373L43.2715 36.8286L32.9063 36.8286C30.9204 36.8286 29.6909 35.5654 29.6909 33.5947ZM100.49 32.6524C96.7432 32.6524 93.6465 29.6533 93.6465 25.8731C93.6465 22.0439 96.7432 19.0298 100.49 19.0298C104.289 19.0298 107.318 22.0439 107.318 25.8731C107.318 29.6533 104.289 32.6524 100.49 32.6524ZM85.3316 47.5752C81.6001 47.5752 78.5034 44.561 78.5034 40.7959C78.5034 36.9854 81.6001 33.9526 85.3316 33.9526C89.1118 33.9526 92.1748 36.9854 92.1748 40.7959C92.1748 44.561 89.1118 47.5752 85.3316 47.5752ZM17.7256 86.8301C23.7793 86.8301 28.46 84.4795 32.4404 79.583L41.4902 68.6323C42.8355 67.0127 44.27 66.2954 45.8408 66.2954L93.4307 66.2954C95.0166 66.2954 96.4512 67.0127 97.7964 68.6323L106.846 79.583C110.827 84.4795 115.507 86.8301 121.546 86.8301C132.198 86.8301 139.271 79.7109 139.271 68.8301C139.271 64.1138 138.133 58.6499 136.214 52.2905C133.235 42.2808 128.026 28.7031 122.97 17.9898C118.892 9.47315 116.864 5.84766 106.982 3.59473C97.5903 1.44971 84.8008 0.109375 69.6602 0.109375C54.5044 0.109375 41.6812 1.44971 32.2896 3.59473C22.4072 5.84766 20.3799 9.47315 16.3169 17.9898C11.2456 28.7031 6.03613 42.2808 3.05762 52.2905C1.13818 58.6499 0 64.1138 0 68.8301C0 79.7109 7.07373 86.8301 17.7256 86.8301Z" fill="#000000" fill-opacity="0.85"/>
 </g>
</svg>
