<?xml version="1.0" encoding="UTF-8"?>
<!--Generator: Apple Native CoreSVG 232.5-->
<!DOCTYPE svg
PUBLIC "-//W3C//DTD SVG 1.1//EN"
       "http://www.w3.org/Graphics/SVG/1.1/DTD/svg11.dtd">
<svg version="1.1" xmlns="http://www.w3.org/2000/svg" xmlns:xlink="http://www.w3.org/1999/xlink" width="122.836" height="109.312">
 <g>
  <rect height="109.312" opacity="0" width="122.836" x="0" y="0"/>
  <path d="M110.373 61.306C110.373 34.5023 88.2387 12.3338 61.435 12.3338C34.5976 12.3338 12.4965 34.5023 12.4965 61.306C12.4965 74.1141 17.5375 85.8666 25.7338 94.6288C27.3827 96.4461 30.1586 96.8959 32.3735 94.6659L40.5448 86.5585C41.7104 85.4081 41.6952 83.4442 40.5448 82.2635C39.3793 81.1283 37.4003 81.098 36.2499 82.2635L29.2743 89.2694C22.7572 81.7738 18.8481 72.0829 18.8481 61.306C18.8481 37.7176 37.8129 18.6669 61.435 18.6669C85.0234 18.6669 104.022 37.7176 104.022 61.306C104.022 72.0829 100.079 81.7738 93.5619 89.2694L86.5864 82.2635C85.4697 81.098 83.4906 81.1283 82.2914 82.2635C81.1747 83.4442 81.1259 85.4081 82.2914 86.5585L90.4965 94.6659C92.7113 96.8959 95.4872 96.4461 97.1513 94.6288C105.332 85.8666 110.373 74.1141 110.373 61.306ZM94.018 58.308C92.3691 58.308 91.0199 59.6571 91.0199 61.306C91.0199 62.9701 92.3691 64.3529 94.018 64.3529L107.188 64.3529L107.188 58.308ZM64.433 28.6556L64.433 15.5003L58.4032 15.5003L58.4032 28.6556C58.4032 30.3045 59.786 31.6874 61.435 31.6874C63.0839 31.6874 64.433 30.3045 64.433 28.6556ZM40.4438 36.1024L31.1186 26.7923L26.8539 31.057L36.164 40.3822C37.2992 41.5628 39.2782 41.5326 40.4438 40.3822C41.5942 39.183 41.6093 37.2528 40.4438 36.1024ZM28.7172 58.308L15.5619 58.308L15.5619 64.3529L28.7172 64.3529C30.3661 64.3529 31.7489 62.9701 31.7489 61.306C31.7489 59.6571 30.3661 58.308 28.7172 58.308Z" fill="#000000" fill-opacity="0.85"/>
  <path d="M55.3666 66.9808C58.226 69.8216 62.4223 69.8216 65.2968 66.9808C65.7616 66.4823 66.5229 65.4549 66.9843 64.8099L84.1054 40.8709C84.7353 39.9564 84.6308 39.015 84.0077 38.3397C83.3324 37.7318 82.391 37.5785 81.4765 38.242L57.5375 55.3631C56.8925 55.8246 55.8315 56.5858 55.3666 57.0658C52.5409 59.9251 52.5409 64.1366 55.3666 66.9808Z" fill="#000000" fill-opacity="0.85"/>
  <path d="M108.151 0.771819C106.6-0.778962 104.807 0.209318 104.413 1.95053L100.688 19.3314C100.246 21.2074 101.54 22.5965 103.544 22.1385L120.907 18.4295C122.651 18.0355 123.606 16.2757 122.055 14.6913Z" fill="#000000" fill-opacity="0.85"/>
 </g>
</svg>
