<?xml version="1.0" encoding="UTF-8"?>
<!--Generator: Apple Native CoreSVG 232.5-->
<!DOCTYPE svg
PUBLIC "-//W3C//DTD SVG 1.1//EN"
       "http://www.w3.org/Graphics/SVG/1.1/DTD/svg11.dtd">
<svg version="1.1" xmlns="http://www.w3.org/2000/svg" xmlns:xlink="http://www.w3.org/1999/xlink" width="97.8921" height="84.6445">
 <g>
  <rect height="84.6445" opacity="0" width="97.8921" x="0" y="0"/>
  <path d="M0 48.9722C0 61.7803 5.04102 73.5327 13.2373 82.2949C14.8862 84.1123 17.6621 84.562 19.8921 82.332L28.0483 74.2246C29.2139 73.0742 29.1987 71.1104 28.0483 69.9297C26.8828 68.7944 24.9038 68.7642 23.7686 69.9297L16.793 76.9355C10.3096 69.4399 6.36671 59.749 6.36671 48.9722C6.36671 25.3838 25.3164 6.33302 48.9385 6.33302C72.5605 6.33302 91.5254 25.3838 91.5254 48.9722C91.5254 59.749 87.5825 69.4399 81.0991 76.9355L74.1236 69.9297C72.9732 68.7642 71.0093 68.7944 69.8438 69.9297C68.6934 71.1104 68.6631 73.0742 69.8438 74.2246L78 82.332C80.23 84.562 83.0059 84.1123 84.6548 82.2949C92.836 73.5327 97.8921 61.7803 97.8921 48.9722C97.8921 22.1685 75.791 0 48.9385 0C22.1348 0 0 22.1685 0 48.9722ZM16.3555 45.9741L3.16651 45.9741L3.16651 52.0191L16.3555 52.0191C18.0044 52.0191 19.3535 50.6362 19.3535 48.9722C19.3535 47.3232 18.0044 45.9741 16.3555 45.9741ZM45.9404 16.3218C45.9404 17.9707 47.2896 19.3535 48.9385 19.3535C50.6025 19.3535 51.9854 17.9707 51.9854 16.3218L51.9854 3.16651L45.9404 3.16651ZM69.9297 23.7686C68.7642 24.9189 68.7793 26.8491 69.9297 28.0483C71.1104 29.1987 73.0742 29.229 74.2246 28.0483L83.501 18.7232L79.2549 14.4585ZM81.6226 45.9741C79.9736 45.9741 78.6245 47.3232 78.6245 48.9722C78.6245 50.6362 79.9736 52.0191 81.6226 52.0191L94.8267 52.0191L94.8267 45.9741Z" fill="#000000" fill-opacity="0.85"/>
  <path d="M54.9883 54.647C57.8325 51.8027 57.8325 47.5913 54.9883 44.7319C54.5083 44.252 53.481 43.4907 52.8359 43.0293L28.9121 25.9082C27.9824 25.2446 27.0225 25.398 26.3657 26.0059C25.7427 26.6812 25.6045 27.6226 26.2832 28.5371L43.3892 52.4761C43.8506 53.1211 44.6118 54.1484 45.0918 54.647C47.9512 57.4878 52.1475 57.4878 54.9883 54.647Z" fill="#000000" fill-opacity="0.85"/>
 </g>
</svg>
