<?xml version="1.0" encoding="UTF-8"?>
<!--Generator: Apple Native CoreSVG 232.5-->
<!DOCTYPE svg
PUBLIC "-//W3C//DTD SVG 1.1//EN"
       "http://www.w3.org/Graphics/SVG/1.1/DTD/svg11.dtd">
<svg version="1.1" xmlns="http://www.w3.org/2000/svg" xmlns:xlink="http://www.w3.org/1999/xlink" width="97.9595" height="97.9932">
 <g>
  <rect height="97.9932" opacity="0" width="97.9595" x="0" y="0"/>
  <path d="M48.9722 97.9443C75.8247 97.9443 97.9595 75.7759 97.9595 48.9722C97.9595 22.1348 75.791 0 48.9385 0C22.1348 0 0 22.1348 0 48.9722C0 75.7759 22.1685 97.9443 48.9722 97.9443ZM48.9722 91.6113C25.3501 91.6113 6.36671 72.5942 6.36671 48.9722C6.36671 25.3501 25.3164 6.31789 48.9385 6.31789C72.5605 6.31789 91.6265 25.3501 91.6265 48.9722C91.6265 72.5942 72.5942 91.6113 48.9722 91.6113Z" fill="#000000" fill-opacity="0.85"/>
  <path d="M41.9536 42.3657C39.1431 45.1763 39.1431 49.4214 41.9536 52.2471C42.4336 52.7271 43.4609 53.4883 44.106 53.9834L68.0298 71.0708C68.9595 71.7495 69.9194 71.5811 70.5762 70.9883C71.1992 70.3315 71.3374 69.3564 70.6587 68.4419L53.5864 44.5029C53.0913 43.8579 52.3638 42.8306 51.8501 42.3657C49.0244 39.4912 44.8281 39.4912 41.9536 42.3657ZM28.0244 73.3906C30.0015 73.3906 31.6485 71.7437 31.6485 69.7666C31.6485 67.7895 30.0015 66.1426 28.0244 66.1426C26.0474 66.1426 24.4004 67.7895 24.4004 69.7666C24.4004 71.7437 26.0474 73.3906 28.0244 73.3906ZM19.3335 52.5962C21.3106 52.5962 22.9575 50.9492 22.9575 48.9722C22.9575 46.9951 21.3106 45.3481 19.3335 45.3481C17.3565 45.3481 15.7095 46.9951 15.7095 48.9722C15.7095 50.9492 17.3565 52.5962 19.3335 52.5962ZM28.0244 31.8018C30.0015 31.8018 31.6485 30.1548 31.6485 28.1778C31.6485 26.167 30.0015 24.5537 28.0244 24.5537C26.0474 24.5537 24.4004 26.167 24.4004 28.1778C24.4004 30.1548 26.0474 31.8018 28.0244 31.8018ZM48.9385 23.0098C50.9307 23.0098 52.5625 21.378 52.5625 19.3858C52.5625 17.4087 50.9307 15.7769 48.9385 15.7769C46.9614 15.7769 45.3296 17.4087 45.3296 19.3858C45.3296 21.378 46.9614 23.0098 48.9385 23.0098ZM69.8677 31.8018C71.8447 31.8018 73.4917 30.1548 73.4917 28.1778C73.4917 26.167 71.8447 24.5537 69.8677 24.5537C67.8906 24.5537 66.2436 26.167 66.2436 28.1778C66.2436 30.1548 67.8906 31.8018 69.8677 31.8018ZM78.4912 52.5962C80.4683 52.5962 82.1152 50.9492 82.1152 48.9722C82.1152 46.9951 80.4683 45.3481 78.4912 45.3481C76.5142 45.3481 74.8672 46.9951 74.8672 48.9722C74.8672 50.9492 76.5142 52.5962 78.4912 52.5962Z" fill="#000000" fill-opacity="0.85"/>
 </g>
</svg>
