<?xml version="1.0" encoding="UTF-8"?>
<!--Generator: Apple Native CoreSVG 232.5-->
<!DOCTYPE svg
PUBLIC "-//W3C//DTD SVG 1.1//EN"
       "http://www.w3.org/Graphics/SVG/1.1/DTD/svg11.dtd">
<svg version="1.1" xmlns="http://www.w3.org/2000/svg" xmlns:xlink="http://www.w3.org/1999/xlink" width="97.9595" height="97.9932">
 <g>
  <rect height="97.9932" opacity="0" width="97.9595" x="0" y="0"/>
  <path d="M48.9722 97.9443C75.8247 97.9443 97.9595 75.7759 97.9595 48.9722C97.9595 22.1348 75.791 0 48.9385 0C22.1348 0 0 22.1348 0 48.9722C0 75.7759 22.1685 97.9443 48.9722 97.9443ZM48.9722 91.6113C25.3501 91.6113 6.36671 72.5942 6.36671 48.9722C6.36671 25.3501 25.3164 6.31789 48.9385 6.31789C72.5605 6.31789 91.6265 25.3501 91.6265 48.9722C91.6265 72.5942 72.5942 91.6113 48.9722 91.6113Z" fill="#000000" fill-opacity="0.85"/>
  <path d="M55.9385 42.3657C53.0977 39.4912 48.8677 39.4912 46.0269 42.3657C45.562 42.8306 44.8008 43.8579 44.3057 44.5029L27.2334 68.4419C26.5547 69.3564 26.6929 70.3315 27.3159 70.9883C27.9727 71.5811 28.9326 71.7495 29.8472 71.0708L53.7861 53.9834C54.4312 53.4883 55.4585 52.7271 55.9385 52.2471C58.7827 49.4214 58.7827 45.1763 55.9385 42.3657ZM19.4009 52.5962C21.378 52.5962 23.0098 50.9492 23.0098 48.9722C23.0098 46.9951 21.378 45.3481 19.4009 45.3481C17.4238 45.3481 15.7769 46.9951 15.7769 48.9722C15.7769 50.9492 17.4238 52.5962 19.4009 52.5962ZM28.0244 31.8018C30.0015 31.8018 31.6485 30.1548 31.6485 28.1778C31.6485 26.167 30.0015 24.5537 28.0244 24.5537C26.0474 24.5537 24.4004 26.167 24.4004 28.1778C24.4004 30.1548 26.0474 31.8018 28.0244 31.8018ZM48.9385 23.0098C50.9307 23.0098 52.5625 21.378 52.5625 19.3858C52.5625 17.4087 50.9307 15.7769 48.9385 15.7769C46.9614 15.7769 45.3296 17.4087 45.3296 19.3858C45.3296 21.378 46.9614 23.0098 48.9385 23.0098ZM69.8677 31.8018C71.8447 31.8018 73.4917 30.1548 73.4917 28.1778C73.4917 26.167 71.8447 24.5537 69.8677 24.5537C67.8906 24.5537 66.2436 26.167 66.2436 28.1778C66.2436 30.1548 67.8906 31.8018 69.8677 31.8018ZM78.5586 52.5962C80.5356 52.5962 82.1826 50.9492 82.1826 48.9722C82.1826 46.9951 80.5356 45.3481 78.5586 45.3481C76.5815 45.3481 74.9346 46.9951 74.9346 48.9722C74.9346 50.9492 76.5815 52.5962 78.5586 52.5962ZM69.8677 73.3906C71.8447 73.3906 73.4917 71.7437 73.4917 69.7666C73.4917 67.7895 71.8447 66.1426 69.8677 66.1426C67.8906 66.1426 66.2436 67.7895 66.2436 69.7666C66.2436 71.7437 67.8906 73.3906 69.8677 73.3906Z" fill="#000000" fill-opacity="0.85"/>
 </g>
</svg>
