<?xml version="1.0" encoding="UTF-8"?>
<!--Generator: Apple Native CoreSVG 232.5-->
<!DOCTYPE svg
PUBLIC "-//W3C//DTD SVG 1.1//EN"
       "http://www.w3.org/Graphics/SVG/1.1/DTD/svg11.dtd">
<svg version="1.1" xmlns="http://www.w3.org/2000/svg" xmlns:xlink="http://www.w3.org/1999/xlink" width="117.159" height="135.859">
 <g>
  <rect height="135.859" opacity="0" width="117.159" x="0" y="0"/>
  <path d="M65.1397 41.9292C65.1397 43.5782 66.4888 44.961 68.1377 44.961C69.7866 44.961 71.1695 43.5782 71.1695 41.9292L71.1695 28.9053C71.1695 26.9903 69.8574 25.6074 67.9981 25.6074C41.334 25.6074 19.1992 47.7759 19.1992 74.5796C19.1992 87.3877 24.2402 99.1402 32.4214 107.902C34.0855 109.72 36.8613 110.169 39.0762 107.939L47.2813 99.8321C48.4468 98.6817 48.398 96.7178 47.2813 95.5371C46.082 94.4019 44.1367 94.3716 42.9863 95.5371L36.0108 102.543C29.4937 95.0474 25.5508 85.3565 25.5508 74.5796C25.5508 52.0069 42.9678 33.5894 65.1397 32.0601ZM35.5547 71.5816L22.3843 71.5816L22.3843 77.6265L35.5547 77.6265C37.2036 77.6265 38.5527 76.2437 38.5527 74.5796C38.5527 72.9307 37.2036 71.5816 35.5547 71.5816ZM100.078 46.46L105.301 42.9214C97.8745 34.3272 87.688 28.5616 76.5264 26.5254C76.7251 27.2749 76.8262 28.0733 76.8262 28.9053L76.8262 33.0118C85.8301 34.8609 94.0005 39.5367 100.078 46.46ZM110.691 77.3003L116.822 78.4493C117.245 73.1304 116.822 67.6651 115.397 62.2452C113.934 56.8741 111.61 51.9019 108.604 47.482L103.459 51.024C105.938 54.7769 107.912 58.9625 109.191 63.5469C110.456 68.1197 110.912 72.7984 110.691 77.3003ZM104.106 107.668C108.804 102.584 113.851 94.5079 115.897 84.0352L109.815 82.856C108.176 91.5079 104.321 98.2007 100.335 102.61L93.3228 95.5371C92.1724 94.3716 90.1934 94.4019 89.0278 95.5371C87.8775 96.7178 87.8623 98.6817 89.0278 99.8321L97.0747 107.83C99.3687 110.124 102.284 109.674 104.106 107.668Z" fill="#000000" fill-opacity="0.85"/>
  <path d="M74.2061 80.2544C77.0318 77.4102 77.0318 73.1988 74.2061 70.3394C73.7412 69.8594 72.6802 69.0982 72.0689 68.6367L48.0962 51.5157C47.1817 50.8521 46.2402 51.0054 45.5986 51.6133C44.9419 52.2886 44.8374 53.23 45.4824 54.1446L62.5884 78.0835C63.0498 78.7286 63.811 79.7559 64.2759 80.2544C67.1504 83.0953 71.3467 83.0953 74.2061 80.2544Z" fill="#000000" fill-opacity="0.85"/>
  <path d="M65.1397 2.30569L65.1397 18.2813C65.1397 20.3257 66.7344 21.21 68.6206 20.0025L80.419 12.3462C82.0054 11.2735 82.0054 9.65676 80.419 8.55373L68.6509 0.599629C66.689-0.717267 65.1397 0.26125 65.1397 2.30569ZM0 73.9361C0 93.4883 8.3501 111.047 21.6455 123.226L25.7534 119.136C13.5713 108.142 6.06007 92.1646 6.06007 73.9361C6.06007 39.0235 32.6455 12.502 66.8506 12.502L66.8506 6.44191C29.9121 6.44191 0 36.3389 0 73.9361ZM25.6592 112.812L14.3291 124.108C12.8286 125.542 13.3926 127.345 15.5786 127.792L29.3218 130.743C31.2534 131.107 32.439 129.952 32.0264 128.023L29.3423 114.141C28.896 111.8 27.126 111.345 25.6592 112.812Z" fill="#000000" fill-opacity="0.85"/>
 </g>
</svg>
