<?xml version="1.0" encoding="UTF-8"?>
<!--Generator: Apple Native CoreSVG 232.5-->
<!DOCTYPE svg
PUBLIC "-//W3C//DTD SVG 1.1//EN"
       "http://www.w3.org/Graphics/SVG/1.1/DTD/svg11.dtd">
<svg version="1.1" xmlns="http://www.w3.org/2000/svg" xmlns:xlink="http://www.w3.org/1999/xlink" width="122.825" height="109.312">
 <g>
  <rect height="109.312" opacity="0" width="122.825" x="0" y="0"/>
  <path d="M12.4908 61.306C12.4908 74.1141 17.5318 85.8666 25.7281 94.6288C27.377 96.4461 30.1529 96.8959 32.3677 94.6659L40.5391 86.5585C41.7046 85.4081 41.6895 83.4442 40.5391 82.2635C39.3736 81.1283 37.3946 81.098 36.2442 82.2635L29.2686 89.2694C22.7515 81.7738 18.8423 72.0829 18.8423 61.306C18.8423 37.7176 37.8072 18.6669 61.4293 18.6669C85.0176 18.6669 104.016 37.7176 104.016 61.306C104.016 72.0829 100.073 81.7738 93.5562 89.2694L86.5806 82.2635C85.4639 81.098 83.4849 81.1283 82.2857 82.2635C81.169 83.4442 81.1202 85.4081 82.2857 86.5585L90.4908 94.6659C92.7056 96.8959 95.4815 96.4461 97.1456 94.6288C105.327 85.8666 110.368 74.1141 110.368 61.306C110.368 34.5023 88.233 12.3338 61.4293 12.3338C34.5918 12.3338 12.4908 34.5023 12.4908 61.306ZM28.8125 58.308L15.6573 58.308L15.6573 64.3529L28.8125 64.3529C30.4615 64.3529 31.8443 62.9701 31.8443 61.306C31.8443 59.6571 30.4615 58.308 28.8125 58.308ZM58.3975 28.6556C58.3975 30.3045 59.7803 31.6874 61.4293 31.6874C63.0782 31.6874 64.4273 30.3045 64.4273 28.6556L64.4273 15.5003L58.3975 15.5003ZM82.3868 36.1024C81.2212 37.2528 81.2701 39.183 82.3868 40.3822C83.586 41.5326 85.565 41.5628 86.6817 40.3822L95.9766 31.057L91.712 26.7923ZM94.1133 58.308C92.4644 58.308 91.1153 59.6571 91.1153 61.306C91.1153 62.9701 92.4644 64.3529 94.1133 64.3529L107.269 64.3529L107.269 58.308Z" fill="#000000" fill-opacity="0.85"/>
  <path d="M67.4791 66.9808C70.3233 64.1366 70.3233 59.9251 67.4791 57.0658C66.9991 56.5858 65.9717 55.8246 65.3267 55.3631L41.3877 38.242C40.4732 37.5785 39.5132 37.7318 38.8565 38.3397C38.2334 39.015 38.0953 39.9564 38.774 40.8709L55.8462 64.8099C56.3414 65.4549 57.1026 66.4823 57.5674 66.9808C60.4083 69.8216 64.6045 69.8216 67.4791 66.9808Z" fill="#000000" fill-opacity="0.85"/>
  <path d="M14.7134 0.771819L0.775438 14.6913C-0.775343 16.2757 0.194382 18.0355 1.9727 18.4295L19.335 22.1385C21.3238 22.5965 22.585 21.2074 22.191 19.3314L18.418 1.95053C18.0577 0.209318 16.2642-0.778962 14.7134 0.771819Z" fill="#000000" fill-opacity="0.85"/>
 </g>
</svg>
