<?xml version="1.0" encoding="UTF-8"?>
<!--Generator: Apple Native CoreSVG 232.5-->
<!DOCTYPE svg
PUBLIC "-//W3C//DTD SVG 1.1//EN"
       "http://www.w3.org/Graphics/SVG/1.1/DTD/svg11.dtd">
<svg version="1.1" xmlns="http://www.w3.org/2000/svg" xmlns:xlink="http://www.w3.org/1999/xlink" width="131.32" height="104.476">
 <g>
  <rect height="104.476" opacity="0" width="131.32" x="0" y="0"/>
  <path d="M34.1484 75.2407L41.2017 75.2407C44.0205 75.2407 46.1255 73.6275 46.7637 70.8945L48.2217 64.4512C48.5498 64.3418 48.9116 64.1836 49.2246 64.0591L54.939 67.5156C57.2778 68.9048 59.9756 68.6118 61.9087 66.6636L66.874 61.6948C68.8897 59.6943 69.1524 57.0151 67.6958 54.6914L64.1904 49.127C64.3301 48.7651 64.5034 48.437 64.6279 48.0752L71.0039 46.565C73.688 45.9116 75.3501 43.773 75.3501 40.9541L75.3501 34.2529C75.3501 31.4678 73.7217 29.3291 71.0039 28.6421L64.6279 27.1318C64.5034 26.77 64.3301 26.4419 64.1904 26.0801L67.6958 20.5156C69.1524 18.1919 68.8897 15.5464 66.874 13.5122L61.9087 8.57715C59.9756 6.62891 57.2778 6.30225 54.939 7.7251L49.2246 11.1631C48.8779 11.0234 48.5498 10.8989 48.188 10.7896L46.7637 4.3125C46.1592 1.62842 44.0205 0 41.2017 0L34.1484 0C31.3296 0 29.2246 1.62842 28.5864 4.3125L27.1284 10.7896C26.7666 10.8989 26.4385 11.0234 26.0918 11.1631L20.4111 7.7251C18.0723 6.30225 15.3745 6.62891 13.4414 8.57715L8.47608 13.5122C6.46045 15.5464 6.23145 18.2256 7.6543 20.5156L11.1445 26.0801C11.02 26.4419 10.8467 26.77 10.7222 27.1318L4.3125 28.6421C1.62842 29.3291 0 31.4678 0 34.2529L0 40.9541C0 43.773 1.62842 45.9116 4.3125 46.565L10.7222 48.0752C10.8467 48.437 11.02 48.7651 11.1445 49.127L7.6543 54.6914C6.19775 57.0151 6.46045 59.6943 8.47608 61.6948L13.4414 66.6636C15.3745 68.6118 18.0386 68.9048 20.3774 67.5156L26.1255 64.0591C26.4385 64.1836 26.8003 64.3418 27.1284 64.4512L28.5864 70.8945C29.2246 73.6275 31.3296 75.2407 34.1484 75.2407ZM34.8643 69.8882C34.0733 69.8882 33.6626 69.5078 33.4556 68.7017L31.4619 60.3096C29.4058 59.7876 27.4692 58.8647 25.8814 58.0127L18.5669 62.5151C17.8213 62.9746 17.2827 62.8955 16.7139 62.3418L12.7305 58.4224C12.1768 57.8838 12.1128 57.3486 12.5874 56.603L17.041 49.3223C16.4097 47.8726 15.3672 45.9023 14.8115 43.7417L6.50538 41.7817C5.69923 41.6084 5.334 41.1641 5.334 40.3731L5.334 34.834C5.334 34.043 5.69923 33.6323 6.50538 33.459L14.8115 31.499C15.3672 29.3047 16.4097 27.3682 17.041 25.8848L12.5874 18.604C12.1128 17.8921 12.1768 17.3569 12.7305 16.7847L16.7139 12.8989C17.2827 12.3452 17.8213 12.2813 18.5669 12.6919L25.8814 17.1943C27.4692 16.3423 29.4058 15.4194 31.4619 14.8975L33.4556 6.53907C33.6626 5.73292 34.0733 5.35255 34.8643 5.35255L40.4858 5.35255C41.2769 5.35255 41.6875 5.73292 41.8945 6.53907L43.8882 14.8975C45.9443 15.4194 47.8657 16.3423 49.4688 17.1943L56.7832 12.6919C57.4951 12.2813 58.0674 12.3452 58.6362 12.8989L62.6045 16.7847C63.1733 17.3569 63.2373 17.8921 62.7627 18.604L58.3091 25.8848C58.9253 27.3682 59.9829 29.3047 60.5386 31.499L68.8447 33.459C69.6509 33.6323 70.0161 34.043 70.0161 34.834L70.0161 40.3731C70.0161 41.1641 69.6509 41.6084 68.8447 41.7817L60.5386 43.7417C59.9829 45.9023 58.9253 47.8726 58.3091 49.3223L62.7627 56.603C63.2373 57.3486 63.1733 57.8838 62.6045 58.4224L58.6362 62.3418C58.0674 62.8955 57.4951 62.9746 56.7832 62.5151L49.4688 58.0127C47.8657 58.8647 45.9443 59.7876 43.8882 60.3096L41.8945 68.7017C41.6875 69.5078 41.2769 69.8882 40.4858 69.8882ZM37.6675 52.3413C45.709 52.3413 52.3042 45.7275 52.3042 37.6035C52.3042 29.5469 45.709 22.9668 37.6675 22.9668C29.5098 22.9668 22.9634 29.5469 22.9634 37.6035C22.9634 45.6939 29.5098 52.3413 37.6675 52.3413ZM37.6675 46.7192C32.6543 46.7192 28.5518 42.6689 28.5518 37.6035C28.5518 32.6392 32.6543 28.5552 37.6675 28.5552C42.6318 28.5552 46.6821 32.6392 46.6821 37.6035C46.6821 42.6353 42.6318 46.7192 37.6675 46.7192ZM96.9243 104.442L102.358 104.442C104.99 104.442 106.97 103.042 107.395 100.73L108.413 95.4053C108.809 95.2808 109.137 95.1714 109.435 95.0318L113.933 97.9072C115.967 99.2022 118.357 98.9243 120.204 97.0098L124.023 93.2061C125.855 91.3252 126.2 88.9356 124.838 86.9014L121.944 82.5039C122.068 82.1572 122.193 81.8931 122.336 81.5313L127.609 80.4302C129.887 79.9385 131.32 78.0103 131.32 75.3936L131.32 70.0459C131.32 67.4629 129.887 65.501 127.609 65.0093L122.336 63.9419C122.193 63.5801 122.068 63.2822 121.944 62.9356L124.838 58.5381C126.2 56.5039 125.855 54.148 124.023 52.2671L120.204 48.4297C118.357 46.5488 115.967 46.2373 113.933 47.5322L109.435 50.4077C109.137 50.2681 108.809 50.1587 108.413 50.0342L107.395 44.7427C106.97 42.397 104.99 40.9976 102.358 40.9976L96.9243 40.9976C94.2925 40.9976 92.312 42.397 91.854 44.7427L90.8355 50.0342C90.4736 50.1587 90.1455 50.2681 89.814 50.4077L85.3154 47.5322C83.2813 46.2373 80.9253 46.5488 79.0781 48.4297L75.2593 52.2671C73.4273 54.148 73.082 56.5039 74.4107 58.5381L77.3198 62.9356C77.1802 63.2822 77.0557 63.5801 76.9463 63.9419L71.6734 65.0093C69.3613 65.501 67.9282 67.4629 67.9282 70.0459L67.9282 75.3936C67.9282 78.0103 69.3613 79.9385 71.6734 80.4302L76.9463 81.5313C77.0557 81.8931 77.1802 82.1572 77.3198 82.5039L74.4107 86.9014C73.082 88.9356 73.4273 91.3252 75.2593 93.2061L79.0781 97.0098C80.9253 98.9243 83.2813 99.2022 85.3154 97.9072L89.814 95.0318C90.1455 95.1714 90.4736 95.2808 90.8355 95.4053L91.854 100.73C92.312 103.042 94.2925 104.442 96.9243 104.442ZM97.8609 99.3101C97.0933 99.3101 96.6641 98.9565 96.5025 98.3169L94.8994 91.3159C93.0977 90.8765 91.4458 90.2231 89.772 89.1538L83.7256 93.0415C83.1987 93.3613 82.5894 93.2974 82.0625 92.7891L79.5474 90.2217C78.9868 89.646 78.9077 89.1191 79.2764 88.5586L83.063 82.5982C82.5513 81.396 81.46 79.5083 81.002 77.4185L74.0347 75.8677C73.395 75.7398 73.0264 75.2432 73.0264 74.543L73.0264 70.8965C73.0264 70.1963 73.395 69.6997 74.0347 69.5718L81.002 68.021C81.46 65.9312 82.5513 64.0772 83.063 62.8413L79.2764 56.8809C78.9077 56.354 78.9868 55.7935 79.5474 55.2178L82.0625 52.6841C82.5894 52.1421 83.1987 52.0781 83.7256 52.4317L89.772 56.2857C91.4458 55.25 93.0977 54.563 94.8994 54.1235L96.5025 47.1226C96.6641 46.4829 97.0933 46.1294 97.8609 46.1294L101.388 46.1294C102.155 46.1294 102.584 46.4829 102.746 47.1226L104.349 54.1235C106.151 54.563 107.803 55.25 109.477 56.2857L115.523 52.4317C116.084 52.0781 116.659 52.1421 117.186 52.6841L119.735 55.2178C120.262 55.7935 120.341 56.354 120.006 56.8809L116.186 62.8413C116.731 64.0772 117.789 65.9312 118.262 68.021L125.214 69.5718C125.854 69.6997 126.222 70.1963 126.222 70.8965L126.222 74.543C126.222 75.2432 125.854 75.7398 125.214 75.8677L118.262 77.4185C117.789 79.5083 116.731 81.396 116.186 82.5982L120.006 88.5586C120.341 89.1191 120.262 89.646 119.735 90.2217L117.186 92.7891C116.659 93.2974 116.084 93.3613 115.523 93.0415L109.477 89.1538C107.803 90.2231 106.151 90.8765 104.349 91.3159L102.746 98.3169C102.584 98.9565 102.155 99.3101 101.388 99.3101ZM99.6319 83.7857C105.685 83.7857 110.664 78.8067 110.664 72.7197C110.664 66.6665 105.685 61.7212 99.6319 61.7212C93.5112 61.7212 88.5508 66.6665 88.5508 72.7197C88.5508 78.773 93.5112 83.7857 99.6319 83.7857ZM99.6319 78.8745C96.2329 78.8745 93.4956 76.1187 93.4956 72.7197C93.4956 69.3545 96.2329 66.6509 99.6319 66.6509C102.93 66.6509 105.686 69.3545 105.686 72.7197C105.686 76.085 102.93 78.8745 99.6319 78.8745Z" fill="#000000" fill-opacity="0.85"/>
 </g>
</svg>
