<?xml version="1.0" encoding="UTF-8"?>
<!--Generator: Apple Native CoreSVG 232.5-->
<!DOCTYPE svg
PUBLIC "-//W3C//DTD SVG 1.1//EN"
       "http://www.w3.org/Graphics/SVG/1.1/DTD/svg11.dtd">
<svg version="1.1" xmlns="http://www.w3.org/2000/svg" xmlns:xlink="http://www.w3.org/1999/xlink" width="131.844" height="105.233">
 <g>
  <rect height="105.233" opacity="0" width="131.844" x="0" y="0"/>
  <path d="M34.4028 75.4917L41.1343 75.4917C43.2759 75.4917 44.6699 74.3198 45.1885 72.313L47.0356 64.6499C48.1607 64.2373 49.2671 63.8247 50.2573 63.2774L57.0044 67.4448C58.7671 68.5122 60.6865 68.3052 62.1294 66.8623L66.9077 62.0806C68.3472 60.6226 68.561 58.6543 67.4751 56.8882L63.3262 50.2573C63.8213 49.2183 64.3164 48.1455 64.6616 47.0391L72.3247 45.1919C74.3989 44.7222 75.5371 43.2793 75.5371 41.1865L75.5371 34.5039C75.5371 32.4297 74.3989 30.9683 72.3247 30.4834L64.7139 28.6025C64.3164 27.4102 63.8213 26.3374 63.3936 25.3994L67.4751 18.6675C68.5425 16.8677 68.4668 14.9854 66.96 13.5425L62.1294 8.79444C60.6865 7.40381 58.8345 7.07715 57.0718 8.14453L50.2573 12.3457C49.3008 11.8169 48.1943 11.3706 47.0356 11.0068L45.1885 3.24267C44.6699 1.2207 43.2759 0.0488281 41.1343 0.0488281L34.4028 0.0488281C32.2612 0.0488281 30.8335 1.2207 30.3486 3.24267L28.5166 10.9395C27.3765 11.3521 26.2363 11.7495 25.2612 12.312L18.4805 8.14453C16.7178 7.07715 14.8657 7.37012 13.4077 8.79444L8.57715 13.5425C7.07031 14.9854 7.00977 16.8677 8.07715 18.6675L12.1436 25.3994C11.7158 26.3374 11.2358 27.4102 10.8232 28.6025L3.17871 30.4834C1.13818 30.9683 0 32.4297 0 34.5039L0 41.1865C0 43.2793 1.13818 44.7222 3.17871 45.1919L10.8906 47.0391C11.2358 48.1455 11.7158 49.2183 12.2109 50.2573L8.07715 56.8882C6.97608 58.6543 7.20508 60.6226 8.64453 62.0806L13.4077 66.8623C14.8657 68.3052 16.77 68.5122 18.5327 67.4448L25.2949 63.2774C26.27 63.8247 27.3765 64.2373 28.5166 64.6499L30.3486 72.313C30.8335 74.3198 32.2612 75.4917 34.4028 75.4917ZM37.7534 50.6182C30.6821 50.6182 24.8887 44.8398 24.8887 37.7197C24.8887 30.6821 30.6821 24.9224 37.7534 24.9224C44.8398 24.9224 50.6333 30.6821 50.6333 37.7197C50.6333 44.8398 44.8398 50.6182 37.7534 50.6182ZM96.958 105.233L102.358 105.233C104.346 105.233 105.597 104.223 105.939 102.555L107.414 95.875C108.487 95.4624 109.459 95.1172 110.348 94.6221L116.133 98.3096C117.591 99.249 119.203 99.0908 120.56 97.7339L124.345 93.9151C125.702 92.5581 125.912 90.8794 124.939 89.4365L121.285 83.6694C121.747 82.7954 122.126 81.8389 122.471 80.8672L129.184 79.3433C130.886 78.9863 131.844 77.7354 131.844 75.7959L131.844 70.4146C131.844 68.4751 130.886 67.2241 129.184 66.8335L122.504 65.3096C122.126 64.2368 121.747 63.2954 121.319 62.4585L124.939 56.6392C125.912 55.1289 125.788 53.585 124.412 52.228L120.56 48.4277C119.203 47.1382 117.61 46.8604 116.167 47.7661L110.348 51.4873C109.492 51.0596 108.487 50.6133 107.414 50.3018L105.939 43.521C105.597 41.8525 104.346 40.8086 102.358 40.8086L96.958 40.8086C95.0034 40.8086 93.7525 41.8525 93.377 43.521L91.8682 50.2495C90.8628 50.6133 89.8237 50.9585 88.9346 51.4536L83.1152 47.7661C81.6909 46.894 80.1133 47.1045 78.7564 48.4277L74.9375 52.228C73.5469 53.585 73.4375 55.1289 74.377 56.6392L77.9634 62.4585C77.5693 63.2954 77.1904 64.2368 76.8115 65.3096L70.1655 66.8335C68.4297 67.2241 67.438 68.4751 67.438 70.4146L67.438 75.7959C67.438 77.7354 68.4297 78.9863 70.1655 79.3433L76.8789 80.8672C77.1904 81.8389 77.5693 82.7954 78.0156 83.6694L74.377 89.4365C73.4038 90.8794 73.648 92.5581 74.9712 93.9151L78.7564 97.7339C80.1133 99.0908 81.7246 99.249 83.1826 98.3096L88.9683 94.6221C89.8574 95.1172 90.8628 95.4624 91.8682 95.875L93.377 102.555C93.7525 104.223 95.0034 105.233 96.958 105.233ZM99.6504 82.832C94.2642 82.832 89.8394 78.4072 89.8394 72.9873C89.8394 67.6348 94.2642 63.21 99.6504 63.21C105.052 63.21 109.477 67.6348 109.477 72.9873C109.477 78.4072 105.052 82.832 99.6504 82.832Z" fill="#000000" fill-opacity="0.85"/>
 </g>
</svg>
