<?xml version="1.0" encoding="UTF-8"?>
<!--Generator: Apple Native CoreSVG 232.5-->
<!DOCTYPE svg
PUBLIC "-//W3C//DTD SVG 1.1//EN"
       "http://www.w3.org/Graphics/SVG/1.1/DTD/svg11.dtd">
<svg version="1.1" xmlns="http://www.w3.org/2000/svg" xmlns:xlink="http://www.w3.org/1999/xlink" width="104.33" height="102.796">
 <g>
  <rect height="102.796" opacity="0" width="104.33" x="0" y="0"/>
  <path d="M52.1235 96.8426C53.356 96.8426 54.6641 96.8089 55.8965 96.681L58.4341 101.43C58.9595 102.48 59.8892 102.96 61.1958 102.746C62.4688 102.533 63.1392 101.768 63.3008 100.476L64.1192 95.2361C66.5318 94.6199 68.9107 93.7293 71.1953 92.6956L75.0918 96.1492C75.9624 96.9373 77.0572 97.1849 78.2661 96.513C79.2984 95.9691 79.7295 94.972 79.4331 93.6653L78.3858 88.5262C80.4229 87.0984 82.3843 85.4637 84.1504 83.6859L88.9478 85.6678C90.1485 86.1595 91.1758 85.9236 92.1372 84.8763C92.9336 83.9451 92.9741 82.8504 92.2871 81.7845L89.5357 77.2835C90.9566 75.2581 92.2344 73.0408 93.3238 70.7713L98.5943 70.9515C99.7881 71.0491 100.8 70.5018 101.146 69.2405C101.555 68.0618 101.206 67.0496 100.256 66.2649L96.1646 62.9915C96.7959 60.5789 97.2017 58.0838 97.4273 55.4759L102.371 53.8729C103.632 53.4788 104.33 52.6199 104.33 51.3738C104.33 50.094 103.632 49.2689 102.371 48.8597L97.4273 47.2718C97.2017 44.679 96.7808 42.2024 96.1646 39.7562L100.256 36.449C101.127 35.7435 101.54 34.7649 101.146 33.556C100.8 32.2947 99.7881 31.7474 98.5943 31.845L93.3238 31.9915C92.2193 29.6766 90.9566 27.5384 89.5357 25.4305L92.2871 20.9295C92.9102 19.9461 92.9185 18.8514 92.1372 17.9202C91.1758 16.8089 90.1485 16.6219 88.9815 17.1287L84.1504 19.0281C82.3843 17.3328 80.4229 15.6644 78.3858 14.2366L79.4331 9.13115C79.711 7.77226 79.2984 6.79374 78.2661 6.28349C77.0572 5.61161 75.9927 5.77665 75.0918 6.59843L71.1953 10.0184C68.9107 9.03349 66.5318 8.17656 64.1192 7.52666L63.3008 2.32011C63.1392 1.02861 62.4385 0.263956 61.1655 0.0500887C59.8892-0.163779 58.9107 0.316203 58.4341 1.31816L55.8965 6.08183C54.6641 5.9539 53.356 5.90507 52.1235 5.90507C50.8423 5.90507 49.6133 5.9539 48.332 6.08183L45.8281 1.31816C45.3179 0.316203 44.3731-0.163779 43.0664 0.0500887C41.7935 0.263956 41.1904 1.02861 40.9614 2.32011L40.1431 7.46269C37.7305 8.17656 35.3516 9.00322 33.0181 10.0184L29.1704 6.64726C28.2207 5.77665 27.1748 5.61161 25.9624 6.28349C24.9639 6.79374 24.5513 7.77226 24.8291 9.13115L25.8428 14.2366C23.8394 15.6644 21.8442 17.3328 20.0479 19.0281L15.2808 17.1287C14.1138 16.6219 13.0864 16.8089 12.125 17.9202C11.3438 18.8514 11.273 19.9461 11.9111 20.8992L14.7114 25.4305C13.3359 27.5384 12.0767 29.6766 10.9385 31.9915L5.66797 31.845C4.44043 31.7474 3.49219 32.2947 3.1167 33.556C2.67725 34.7649 3.02246 35.7132 4.00586 36.449L8.09766 39.7562C7.48145 42.2024 7.04542 44.679 6.86866 47.2718L1.85742 48.8597C0.565919 49.2503 0 50.0789 0 51.3738C0 52.6688 0.565919 53.4637 1.85742 53.8729L6.86866 55.491C7.04542 58.0838 7.45118 60.5789 8.09766 62.9915L4.00586 66.2649C3.05274 67.0042 2.67725 68.0164 3.1167 69.2405C3.46192 70.5018 4.44043 71.0491 5.66797 70.9515L10.9385 70.7713C12.0615 73.0408 13.3359 75.2581 14.6963 77.2835L11.9751 81.7845C11.3521 82.8504 11.2949 83.9451 12.125 84.8763C13.0864 85.9236 14.1138 86.1595 15.3145 85.6678L20.0479 83.6859C21.8442 85.4637 23.8394 87.0984 25.8428 88.5262L24.8291 93.6653C24.585 94.972 24.9639 95.9691 25.9624 96.513C27.2051 97.1849 28.2358 96.9373 29.1704 96.1492L33.0181 92.6956C35.3516 93.7293 37.7305 94.6199 40.1431 95.3001L40.9614 100.476C41.1904 101.768 41.7935 102.533 43.0967 102.746C44.3731 102.96 45.3027 102.48 45.8281 101.43L48.332 96.681C49.5493 96.8089 50.8423 96.8426 52.1235 96.8426ZM52.1235 90.8128C30.1563 90.8128 13.252 73.3831 13.252 51.4075C13.252 29.3983 30.1563 11.9349 52.1235 11.9349C74.0757 11.9349 91.0928 29.3983 91.0928 51.4075C91.0928 73.3831 74.0757 90.8128 52.1235 90.8128ZM44.6265 44.0394L49.1773 41.2098L32.6416 12.7771L27.9375 15.4046ZM62.3008 53.8768L95.2256 53.8768L95.2256 48.5613L62.3008 48.5613ZM49.4868 61.5784L44.9546 58.7151L27.6611 87.1814L32.3467 89.9251ZM52.1016 63.1409C58.5913 63.1409 63.8501 57.931 63.8501 51.4412C63.8501 44.9363 58.5913 39.6927 52.1016 39.6927C45.5967 39.6927 40.3867 44.9363 40.3867 51.4412C40.3867 57.931 45.5967 63.1409 52.1016 63.1409ZM52.1016 57.4212C48.6924 57.4212 46.0576 54.8689 46.0576 51.4412C46.0576 47.9983 48.6924 45.3636 52.1016 45.3636C55.5444 45.3636 58.1792 47.9983 58.1792 51.4412C58.1792 54.8689 55.5444 57.4212 52.1016 57.4212Z" fill="#000000" fill-opacity="0.85"/>
 </g>
</svg>
