<?xml version="1.0" encoding="UTF-8"?>
<!--Generator: Apple Native CoreSVG 232.5-->
<!DOCTYPE svg
PUBLIC "-//W3C//DTD SVG 1.1//EN"
       "http://www.w3.org/Graphics/SVG/1.1/DTD/svg11.dtd">
<svg version="1.1" xmlns="http://www.w3.org/2000/svg" xmlns:xlink="http://www.w3.org/1999/xlink" width="106.918" height="88.3506">
 <g>
  <rect height="88.3506" opacity="0" width="106.918" x="0" y="0"/>
  <path d="M103.598 0C101.781 0 100.245 1.53614 100.245 3.35352L100.245 40.7974L73.5132 40.7974L73.5132 3.35352C73.5132 1.53614 71.9956 0 70.1782 0C68.376 0 66.8247 1.53614 66.8247 3.35352L66.8247 40.7974L40.0933 40.7974L40.0933 3.35352C40.0933 1.53614 38.5908 0 36.7735 0C34.9561 0 33.4199 1.53614 33.4199 3.35352L33.4199 40.7974L6.68849 40.7974L6.68849 3.35352C6.68849 1.53614 5.17091 0 3.31983 0C1.51758 0 0 1.53614 0 3.35352L0 44.1509C0 45.9683 1.51758 47.4707 3.31983 47.4707L33.4199 47.4707L33.4199 84.9483C33.4199 86.7505 34.9561 88.2681 36.7735 88.2681C38.5908 88.2681 40.0933 86.7505 40.0933 84.9483L40.0933 47.4707L66.8247 47.4707L66.8247 84.9483C66.8247 86.7505 68.376 88.2681 70.1782 88.2681C71.9956 88.2681 73.5132 86.7505 73.5132 84.9483L73.5132 47.4707L100.245 47.4707L100.245 84.9483C100.245 86.7505 101.781 88.2681 103.598 88.2681C105.416 88.2681 106.918 86.7505 106.918 84.9483L106.918 3.35352C106.918 1.53614 105.416 0 103.598 0Z" fill="#000000" fill-opacity="0.85"/>
 </g>
</svg>
