<?xml version="1.0" encoding="UTF-8"?>
<!--Generator: Apple Native CoreSVG 232.5-->
<!DOCTYPE svg
PUBLIC "-//W3C//DTD SVG 1.1//EN"
       "http://www.w3.org/Graphics/SVG/1.1/DTD/svg11.dtd">
<svg version="1.1" xmlns="http://www.w3.org/2000/svg" xmlns:xlink="http://www.w3.org/1999/xlink" width="102.827" height="102.778">
 <g>
  <rect height="102.778" opacity="0" width="102.827" x="0" y="0"/>
  <path d="M46.4819 102.76L56.3452 102.76C59.772 102.76 62.2896 100.737 63.1079 97.3359L65.2832 87.9478L67.6025 87.1079L75.8037 92.1875C78.7354 94.0684 81.9585 93.6558 84.417 91.1973L91.2832 84.3799C93.7568 81.9214 94.1543 78.6646 92.2886 75.7363L87.1265 67.584L88.0151 65.3169L97.4033 63.1079C100.771 62.2896 102.827 59.7534 102.827 56.3452L102.827 46.6167C102.827 43.2085 100.805 40.6572 97.4033 39.854L88.0674 37.6113L87.1602 35.2769L92.3223 27.1245C94.188 24.1963 93.7905 20.9731 91.3169 18.4961L84.4507 11.6299C82.0259 9.20508 78.8027 8.80762 75.8711 10.6396L67.6699 15.7344L65.2832 14.8272L63.1079 5.42383C62.2896 2.02246 59.772 0 56.3452 0L46.4819 0C43.0552 0 40.5376 2.02246 39.7192 5.42383L37.5254 14.8272L35.1084 15.7344L26.9409 10.6396C24.0093 8.80762 20.7524 9.20508 18.3276 11.6299L11.4951 18.4961C9.02148 20.9731 8.59033 24.1963 10.4897 27.1245L15.603 35.2769L14.7295 37.6113L5.42383 39.854C2.02246 40.6572 0 43.2085 0 46.6167L0 56.3452C0 59.7534 2.05615 62.2896 5.42383 63.1079L14.7969 65.3169L15.6367 67.584L10.5234 75.7363C8.62402 78.6646 9.05518 81.9214 11.5288 84.3799L18.3613 91.1973C20.8047 93.6558 24.0615 94.0684 27.0083 92.1875L35.1758 87.1079L37.5254 87.9478L39.7192 97.3359C40.5376 100.737 43.0552 102.76 46.4819 102.76ZM47.127 96.8833C45.9639 96.8833 45.3125 96.3447 45.0903 95.2607L42.2969 83.3633C39.6211 82.6763 37.0498 81.6255 35.041 80.5039L24.6689 86.9409C23.7803 87.562 22.8731 87.4341 22.0449 86.606L16.0713 80.6475C15.2769 79.8379 15.1978 79.0098 15.8003 78.0234L22.2373 67.7036C21.2656 65.7588 20.1323 63.1724 19.3965 60.5117L7.51417 57.7368C6.41505 57.5146 5.87648 56.8633 5.87648 55.7002L5.87648 47.228C5.87648 46.0313 6.38136 45.4136 7.51417 45.1914L19.3628 42.3828C20.0986 39.5874 21.3516 36.9487 22.1699 35.1724L15.7666 24.8374C15.1304 23.8174 15.2095 22.9893 16.0039 22.1611L22.0112 16.2549C22.8394 15.4268 23.6792 15.2988 24.6689 15.9351L34.9736 22.271C36.9824 21.2354 39.6885 20.166 42.3154 19.3965L45.0903 7.51417C45.3125 6.41505 45.9639 5.87648 47.127 5.87648L55.7002 5.87648C56.8784 5.87648 57.5146 6.38478 57.7031 7.51417L60.5454 19.4639C63.2852 20.1997 65.7251 21.2691 67.7559 22.3047L78.1094 15.9351C79.1328 15.2988 79.939 15.4268 80.8008 16.2549L86.7593 22.1611C87.6025 22.9893 87.6328 23.8174 87.0117 24.8374L80.6084 35.1724C81.4907 36.9487 82.6948 39.5723 83.4307 42.3828L95.3281 45.1914C96.4121 45.4136 96.9507 46.0313 96.9507 47.228L96.9507 55.7002C96.9507 56.8633 96.3784 57.5146 95.3281 57.7368L83.397 60.5117C82.6763 63.1875 81.5918 65.7588 80.541 67.7036L86.978 78.0234C87.5806 79.0098 87.5352 79.8379 86.707 80.6475L80.7671 86.606C79.9053 87.4341 79.0317 87.562 78.1094 86.9409L67.7222 80.5039C65.7437 81.6255 63.2515 82.6763 60.5454 83.3633L57.7031 95.2607C57.5146 96.3901 56.8784 96.8833 55.7002 96.8833ZM51.4287 70.0474C61.6489 70.0474 70.0776 61.6187 70.0776 51.3648C70.0776 41.2085 61.6489 32.7798 51.4287 32.7798C41.2236 32.7798 32.7461 41.2085 32.7461 51.3648C32.7461 61.6001 41.1748 70.0474 51.4287 70.0474ZM51.4287 64.2046C44.4356 64.2046 38.6226 58.3916 38.6226 51.3648C38.6226 44.4356 44.4507 38.6226 51.4287 38.6226C58.3545 38.6226 64.1675 44.4356 64.1675 51.3648C64.1675 58.373 58.3545 64.2046 51.4287 64.2046Z" fill="#000000" fill-opacity="0.85"/>
 </g>
</svg>
