<?xml version="1.0" encoding="UTF-8"?>
<!--Generator: Apple Native CoreSVG 232.5-->
<!DOCTYPE svg
PUBLIC "-//W3C//DTD SVG 1.1//EN"
       "http://www.w3.org/Graphics/SVG/1.1/DTD/svg11.dtd">
<svg version="1.1" xmlns="http://www.w3.org/2000/svg" xmlns:xlink="http://www.w3.org/1999/xlink" width="92.4668" height="103.381">
 <g>
  <rect height="103.381" opacity="0" width="92.4668" x="0" y="0"/>
  <path d="M7.40625 88.0342C7.40625 95.6133 11.9189 99.7857 19.5132 99.7857L42.644 99.7857L42.644 56.1348L7.40625 56.1348ZM49.7891 99.7857L72.9536 99.7857C80.5142 99.7857 85.0606 95.6133 85.0606 88.0342L85.0606 56.1348L49.7891 56.1348ZM0 44.3008C0 49.1319 2.77832 51.4097 7.64307 51.4097L42.644 51.4097L42.644 25.9321L35.8745 25.9321C27.7695 25.9321 22.7627 21.1436 22.7627 15.2124C22.7627 10.1138 26.4873 7.03419 31.7222 7.03419C37.9565 7.03419 42.644 11.8828 42.644 19.5938L42.644 25.9321L49.7891 25.9321L49.7891 19.5938C49.7891 11.8828 54.4766 7.03419 60.7109 7.03419C65.9458 7.03419 69.6704 10.1138 69.6704 15.2124C69.6704 21.1436 64.6973 25.9321 56.5586 25.9321L49.7891 25.9321L49.7891 51.4097L84.8237 51.4097C89.6885 51.4097 92.4668 49.1319 92.4668 44.3008L92.4668 33.041C92.4668 28.21 89.6885 25.9321 84.8237 25.9321L71.6338 25.9321C74.8291 23.3223 76.75 19.5391 76.75 14.9546C76.75 6.14795 69.9907 0 61.0327 0C54.0757 0 48.5327 3.97168 46.209 10.6357C43.9004 3.97168 38.3911 0 31.4004 0C22.4761 0 15.6831 6.14795 15.6831 14.9546C15.6831 19.5391 17.604 23.3223 20.833 25.9321L7.64307 25.9321C2.94678 25.9321 0 28.21 0 33.041Z" fill="#000000" fill-opacity="0.85"/>
 </g>
</svg>
