<?xml version="1.0" encoding="UTF-8"?>
<!--Generator: Apple Native CoreSVG 232.5-->
<!DOCTYPE svg
PUBLIC "-//W3C//DTD SVG 1.1//EN"
       "http://www.w3.org/Graphics/SVG/1.1/DTD/svg11.dtd">
<svg version="1.1" xmlns="http://www.w3.org/2000/svg" xmlns:xlink="http://www.w3.org/1999/xlink" width="97.9595" height="97.9932">
 <g>
  <rect height="97.9932" opacity="0" width="97.9595" x="0" y="0"/>
  <path d="M97.9595 49.021C97.9595 75.8584 75.8247 97.9932 48.9722 97.9932C22.1685 97.9932 0 75.8584 0 49.021C0 22.2173 22.1348 0.0488281 48.9385 0.0488281C75.791 0.0488281 97.9595 22.2173 97.9595 49.021ZM28.688 51.0386L28.688 67.6851C28.688 71.6421 31.0723 73.8091 34.9805 73.8091L47.1182 73.8091L47.1182 51.0386ZM50.8413 51.0386L50.8413 73.8091L62.979 73.8091C66.8721 73.8091 69.2564 71.6421 69.2564 67.6851L69.2564 51.0386ZM48.9722 27.3608C47.7446 23.8218 44.8789 21.7476 41.2422 21.7476C36.605 21.7476 33.1143 24.957 33.1143 29.5523C33.1143 31.8975 34.0957 33.9111 35.7573 35.2632L28.8418 35.2632C26.3716 35.2632 24.8511 36.5376 24.8511 38.9927L24.8511 44.8355C24.8511 47.3882 26.3042 48.5649 28.8418 48.5649L47.1182 48.5649L47.1182 35.2632L43.6055 35.2632C39.3628 35.2632 36.7315 32.8218 36.7315 29.6567C36.7315 27.0283 38.6763 25.3833 41.3955 25.3833C44.6953 25.3833 47.1182 27.9692 47.1182 31.9829L47.1182 35.2632L50.8413 35.2632L50.8413 31.9829C50.8413 27.9692 53.2642 25.3833 56.5825 25.3833C59.3018 25.3833 61.2129 27.0283 61.2129 29.6567C61.2129 32.8218 58.5967 35.2632 54.354 35.2632L50.8413 35.2632L50.8413 48.5649L69.1362 48.5649C71.689 48.5649 73.0933 47.3882 73.0933 44.8355L73.0933 38.9927C73.0933 36.5376 71.689 35.2632 69.1362 35.2632L62.2022 35.2632C63.8975 33.9111 64.8452 31.8975 64.8452 29.5523C64.8452 24.957 61.3545 21.7476 56.751 21.7476C53.1143 21.7476 50.2149 23.8218 48.9722 27.3608Z" fill="#000000" fill-opacity="0.85"/>
 </g>
</svg>
