<?xml version="1.0" encoding="UTF-8"?>
<!--Generator: Apple Native CoreSVG 232.5-->
<!DOCTYPE svg
PUBLIC "-//W3C//DTD SVG 1.1//EN"
       "http://www.w3.org/Graphics/SVG/1.1/DTD/svg11.dtd">
<svg version="1.1" xmlns="http://www.w3.org/2000/svg" xmlns:xlink="http://www.w3.org/1999/xlink" width="97.9595" height="97.9932">
 <g>
  <rect height="97.9932" opacity="0" width="97.9595" x="0" y="0"/>
  <path d="M51.8555 85.7905C60.6885 85.7905 68.2939 71.9805 70.311 68.6602C72.7105 64.7471 71.584 60.8189 71.584 58.2983C71.584 56.2529 76.7598 52.9507 76.7598 48.5815C76.7598 44.103 66.7349 41.2451 66.7349 38.4707C66.7349 36.8477 67.9976 35.2383 69.4336 35.2383C71.7183 35.2383 76.7949 42.0405 79.834 42.0405C81.7568 42.0405 81.7368 40.3316 82.8413 40.3316C85.4526 40.3316 86.0703 54.0576 93.0703 57.5444C94.731 55.3906 95.7583 52.4863 95.7583 48.9722C95.7583 24.002 75.1909 2.04639 48.9385 2.18604C35.9805 2.26514 30.0796 6.62062 30.0796 12.0635C30.0796 18.687 24.7793 20.1973 24.7793 24.0093C24.7793 26.2993 26.3521 27.835 28.7466 27.835C34.3198 27.835 34.1802 21.7886 37.5 21.7886C39.8603 21.8374 41.7866 24.833 44.8516 24.833C46.3569 24.833 47.0776 23.9439 47.2661 22.7363C47.5303 21.9805 47.7627 21.5967 48.4395 21.5967C51.625 21.5967 55.4702 25.188 55.4702 27.4878C55.4702 29.5386 54.689 31.3433 53.2227 31.3433C50.9648 31.3433 45.4961 28.5132 40.6738 28.5132C29.8574 28.5132 20.8477 36.4131 20.8477 45.5542C20.8477 53.4746 25.4932 58.0562 33.6426 58.0562C38.8081 58.0562 42.6401 61.5801 42.6401 66.355C42.6401 73.5967 41.8589 85.7905 51.8555 85.7905ZM63.9331 19.5137C62.2021 19.5137 61.4849 20.396 59.9526 20.396C58.4995 20.396 57.3916 19.3521 57.3916 17.8838C57.3916 15.6006 59.6597 14.3276 63.5728 14.3276C66.8848 14.3276 69.397 16.04 69.397 18.2744C69.397 19.5137 68.5972 20.5088 67.5532 20.5088C65.8408 20.5088 64.9282 19.5137 63.9331 19.5137ZM48.9722 97.9443C75.8247 97.9443 97.9595 75.7759 97.9595 48.9722C97.9595 22.1348 75.791 0 48.9385 0C22.1348 0 0 22.1348 0 48.9722C0 75.7759 22.1685 97.9443 48.9722 97.9443ZM48.9722 92.7114C24.9946 92.7114 5.23292 72.9497 5.23292 48.9722C5.23292 24.9946 24.9609 5.23292 48.9385 5.23292C72.916 5.23292 92.7266 24.9946 92.7266 48.9722C92.7266 72.9497 72.9497 92.7114 48.9722 92.7114Z" fill="#000000" fill-opacity="0.85"/>
 </g>
</svg>
