<?xml version="1.0" encoding="UTF-8"?>
<!--Generator: Apple Native CoreSVG 232.5-->
<!DOCTYPE svg
PUBLIC "-//W3C//DTD SVG 1.1//EN"
       "http://www.w3.org/Graphics/SVG/1.1/DTD/svg11.dtd">
<svg version="1.1" xmlns="http://www.w3.org/2000/svg" xmlns:xlink="http://www.w3.org/1999/xlink" width="97.9595" height="97.9932">
 <g>
  <rect height="97.9932" opacity="0" width="97.9595" x="0" y="0"/>
  <path d="M48.9722 96.0122C61.9409 96.0122 73.1309 76.6401 73.1309 49.0698C73.1309 21.4136 61.9746 2.04151 48.9722 2.04151C35.9849 2.04151 24.8135 21.4136 24.8135 49.0698C24.8135 76.6401 36.0186 96.0122 48.9722 96.0122ZM48.9722 6.61769C59.0269 6.61769 67.9199 25.8423 67.9199 49.0698C67.9199 71.6343 59.0269 91.4023 48.9722 91.4023C38.9326 91.4023 30.0244 71.6343 30.0244 49.0698C30.0244 25.8423 38.9326 6.61769 48.9722 6.61769ZM46.4644 2.75538L46.4644 95.0693L51.5288 95.0693L51.5288 2.75538ZM48.9722 68.4971C34.1602 68.4971 21.2085 72.3008 14.3423 78.2212L18.2295 81.4263C24.8413 76.3901 35.4302 73.5767 48.9722 73.5767C62.5142 73.5767 73.1182 76.3901 79.7148 81.4263L83.6172 78.2212C76.751 72.3008 63.7993 68.4971 48.9722 68.4971ZM94.3584 46.4155L3.60108 46.4155L3.60108 51.4951L94.3584 51.4951ZM48.9722 29.6763C63.7993 29.6763 76.751 25.8877 83.6172 19.9673L79.7148 16.7622C73.1182 21.7647 62.5142 24.6118 48.9722 24.6118C35.4302 24.6118 24.8413 21.7647 18.2295 16.7622L14.3423 19.9673C21.2085 25.8877 34.1602 29.6763 48.9722 29.6763ZM48.9722 97.9443C75.8247 97.9443 97.9595 75.7759 97.9595 48.9722C97.9595 22.1348 75.791 0 48.9385 0C22.1348 0 0 22.1348 0 48.9722C0 75.7759 22.1685 97.9443 48.9722 97.9443ZM48.9722 92.7114C24.9946 92.7114 5.23292 72.9497 5.23292 48.9722C5.23292 24.9946 24.9609 5.23292 48.9385 5.23292C72.916 5.23292 92.7266 24.9946 92.7266 48.9722C92.7266 72.9497 72.9497 92.7114 48.9722 92.7114Z" fill="#000000" fill-opacity="0.85"/>
 </g>
</svg>
