<?xml version="1.0" encoding="UTF-8"?>
<!--Generator: Apple Native CoreSVG 232.5-->
<!DOCTYPE svg
PUBLIC "-//W3C//DTD SVG 1.1//EN"
       "http://www.w3.org/Graphics/SVG/1.1/DTD/svg11.dtd">
<svg version="1.1" xmlns="http://www.w3.org/2000/svg" xmlns:xlink="http://www.w3.org/1999/xlink" width="97.9595" height="97.9932">
 <g>
  <rect height="97.9932" opacity="0" width="97.9595" x="0" y="0"/>
  <path d="M51.023 87.6108C57.7666 87.6108 75.3213 64.4829 75.3213 55.7105C75.3213 50.5327 64.2876 40.9673 58.4448 40.9673C55.813 40.9673 51.8579 44.4155 49.2803 44.4155C46.792 44.4155 40.165 39.1221 40.165 37.0093C40.165 36.0195 41.564 34.9404 42.6733 34.9404C44.3315 34.9404 49.0884 39.4815 51.9658 39.4815C55.8252 39.4815 58.3291 36.9624 58.3291 32.9565C58.3291 31.4917 57.7129 30.0908 56.2769 28.1177C61.6968 25.3682 72.2041 19.77 74.9439 12.7627L71.3062 10.7251C69.2178 17.2559 57.648 22.7158 51.7905 25.7515C50.898 26.2129 50.4634 27.1611 51.2583 28.2559C53.3511 31.1602 54.2148 32.4111 54.2148 33.5913C54.2148 34.6148 53.4321 35.3823 52.3901 35.3823C50.5972 35.3823 45.3203 30.8262 42.6733 30.8262C39.6289 30.8262 36.0659 34.1113 36.0659 37.0093C36.0659 41.1987 44.8418 48.5147 49.2803 48.5147C52.0601 48.5147 56.8218 45.0327 58.4448 45.0327C61.8945 45.0327 71.2222 52.8501 71.2222 55.7105C71.2222 61.7144 55.4121 83.5117 50.937 83.5117C49.6172 83.5117 47.9287 82.2861 47.9287 81.1011C47.9287 80.5488 48.0903 80.0523 48.6275 78.3281C49.1157 76.7656 49.833 74.6929 49.7842 72.4248C49.7354 69.5234 47.4956 67.4439 41.6162 63.27C40.5908 62.5376 39.5015 61.79 38.4273 60.9751C36.7739 59.7275 36.0635 58.5962 36.0635 57.273C36.0635 56.5776 36.2251 55.8486 36.7134 54.3198C37.1831 52.7119 37.4307 51.5669 37.4307 50.7788C37.4307 48.7783 36.459 47.4346 34.1152 45.4326C33.7734 45.1885 33.5293 44.9292 33.2363 44.6851L25.4087 37.7026C15.9912 29.3105 15.3286 23.6152 19.208 16.9395L15.2705 16.1294C11.1875 22.9785 11.6797 31.0855 22.6973 40.793L30.4458 47.6289C32.2676 49.2705 33.3315 49.9658 33.3315 50.8799C33.3315 52.0903 31.9644 54.3853 31.9644 57.273C31.9644 59.9351 33.271 62.2739 35.9482 64.2642C42.1304 68.9243 45.6851 70.9805 45.6851 72.5073C45.7339 75.6069 43.8145 78.0635 43.8145 81.2964C43.8145 84.3931 47.6553 87.6108 51.023 87.6108ZM48.9722 97.9443C75.8247 97.9443 97.9595 75.7759 97.9595 48.9722C97.9595 22.1348 75.791 0 48.9385 0C22.1348 0 0 22.1348 0 48.9722C0 75.7759 22.1685 97.9443 48.9722 97.9443ZM48.9722 92.7114C24.9946 92.7114 5.23292 72.9497 5.23292 48.9722C5.23292 24.9946 24.9609 5.23292 48.9385 5.23292C72.916 5.23292 92.7266 24.9946 92.7266 48.9722C92.7266 72.9497 72.9497 92.7114 48.9722 92.7114Z" fill="#000000" fill-opacity="0.85"/>
 </g>
</svg>
