<?xml version="1.0" encoding="UTF-8"?>
<!--Generator: Apple Native CoreSVG 232.5-->
<!DOCTYPE svg
PUBLIC "-//W3C//DTD SVG 1.1//EN"
       "http://www.w3.org/Graphics/SVG/1.1/DTD/svg11.dtd">
<svg version="1.1" xmlns="http://www.w3.org/2000/svg" xmlns:xlink="http://www.w3.org/1999/xlink" width="97.9595" height="97.9932">
 <g>
  <rect height="97.9932" opacity="0" width="97.9595" x="0" y="0"/>
  <path d="M51.8555 86.1123C60.8755 86.1123 68.582 72.1489 70.5991 68.8286C73.0322 64.8145 71.9058 60.7852 71.9058 58.2983C71.9058 56.4214 77.0815 53.0855 77.0815 48.5815C77.0815 43.9683 67.0566 40.9233 67.0566 38.5718C67.0566 37.2031 68.1997 35.5601 69.4336 35.5601C71.5498 35.5601 76.6265 42.3623 79.834 42.3623C81.7568 42.3623 82.0249 40.6533 83.1543 40.6533C84.4424 40.6533 85.8159 54.7012 92.0547 57.9522L93.7119 54.2773C87.7378 52 89.7603 36.1484 83.6914 36.1484C81.543 36.1484 80.5425 38.0527 79.3945 38.0527C78.6606 38.0527 77.2549 36.8423 74.4346 34.5288C73.0186 33.4058 71.6748 32.0132 69.1895 32.0132C66.2393 32.0132 63.2656 35.4482 63.2656 38.6206C63.2656 44.0337 72.9824 46.1509 72.9824 48.5815C72.9824 49.8106 72.4824 50.7954 70.6304 52.9067C68.6284 55.1528 67.8066 56.5454 67.8066 58.2983C67.8066 59.1133 67.8892 59.8794 67.938 60.6118C68.2124 64.1104 68.0054 65.3765 66.9111 67.1357C64.5591 70.8145 58.1777 81.9981 51.8555 81.9981C45.8838 81.9981 46.4175 73.6641 46.4175 66.355C46.4175 59.4683 40.9351 54.2637 33.6426 54.2637C27.605 54.2637 24.625 51.2803 24.625 45.5542C24.625 37.937 32.4966 32.2905 40.6738 32.2905C45.6948 32.2905 49.7324 35.1358 53.8574 35.1358C56.9927 35.1358 59.0605 30.7827 59.0605 27.0181C59.0605 22.5982 49.9561 17.8413 46.9961 17.8413C44.8003 17.8413 43.9565 19.0908 43.2617 22.0308L44.2383 21.8726L42.6606 20.7427C40.7158 19.4106 38.9683 18.5317 37.2339 18.5317C32.4858 18.5317 32.3057 24.6338 29.6035 24.6338C28.8022 24.6338 28.3022 24.1489 28.3022 23.3594C28.3022 20.8931 33.6025 16.5894 33.6362 10.0049L33.6699 6.48878L29.7578 6.48878L29.7578 10.293C29.7578 16.7427 24.4424 19.3604 24.4424 23.6812C24.4424 26.4224 26.3081 28.1567 29.248 28.1567C34.7256 28.1567 34.5356 22.1104 37.5 22.1104C39.6582 22.1592 41.7007 25.1548 44.8516 25.1548C46.9614 25.1548 47.8237 23.895 48.3315 21.1304L46.9644 21.479C49.5645 22.4473 55.1484 25.0332 55.1484 27.4878C55.1484 29.0147 54.5356 31.0215 53.2227 31.0215C51.0322 31.0215 45.5298 28.1914 40.6738 28.1914C30.2803 28.1914 20.5259 35.7022 20.5259 45.5542C20.5259 53.6094 25.2725 58.3779 33.6426 58.3779C38.6211 58.3779 42.3184 61.7334 42.3184 66.355C42.3184 73.5967 41.5186 86.1123 51.8555 86.1123ZM64.5244 19.3267C65.5532 19.3267 66.4844 20.3218 68.2305 20.3218C69.3081 20.3218 70.1079 19.3267 70.1079 18.0537C70.1079 15.752 67.5283 14.0059 64.1489 14.0059C60.1499 14.0059 57.8481 15.3125 57.8481 17.6294C57.8481 19.1314 58.9746 20.209 60.4766 20.209C62.0273 20.209 62.7446 19.3267 64.5244 19.3267ZM48.9722 97.9443C75.8247 97.9443 97.9595 75.7759 97.9595 48.9722C97.9595 22.1348 75.791 0 48.9385 0C22.1348 0 0 22.1348 0 48.9722C0 75.7759 22.1685 97.9443 48.9722 97.9443ZM48.9722 92.7114C24.9946 92.7114 5.23292 72.9497 5.23292 48.9722C5.23292 24.9946 24.9609 5.23292 48.9385 5.23292C72.916 5.23292 92.7266 24.9946 92.7266 48.9722C92.7266 72.9497 72.9497 92.7114 48.9722 92.7114Z" fill="#000000" fill-opacity="0.85"/>
 </g>
</svg>
