<?xml version="1.0" encoding="UTF-8"?>
<!--Generator: Apple Native CoreSVG 232.5-->
<!DOCTYPE svg
PUBLIC "-//W3C//DTD SVG 1.1//EN"
       "http://www.w3.org/Graphics/SVG/1.1/DTD/svg11.dtd">
<svg version="1.1" xmlns="http://www.w3.org/2000/svg" xmlns:xlink="http://www.w3.org/1999/xlink" width="93.082" height="107.702">
 <g>
  <rect height="107.702" opacity="0" width="93.082" x="0" y="0"/>
  <path d="M23.7866 20.6777L28.0513 16.3828L12.6319 0.981936C11.4512-0.217286 9.53272-0.217286 8.35206 0.981936C7.18653 2.1626 7.18653 4.07765 8.35206 5.27687ZM85.2373 77.815L81.0855 73.5469C73.1856 81.5293 62.1826 86.3564 49.895 86.3564C25.3687 86.3564 6.04494 67.0479 6.04494 42.4912C6.04494 30.2524 10.8872 19.2495 18.7871 11.3833L14.4517 7.28369C5.49072 16.248 0 28.6675 0 42.4912C0 70.2246 22.1616 92.4014 49.895 92.4014C63.7861 92.4014 76.2393 86.8281 85.2373 77.815ZM75.7119 64.0771L71.2334 68.1245L87.9365 84.8276C89.1172 85.9932 91.0171 85.9932 92.1826 84.8276C93.3819 83.6621 93.3819 81.7134 92.1826 80.5479ZM46.8633 90.835L46.8633 103.687L52.8931 103.687L52.8931 90.835ZM33.4253 107.702L66.5986 107.702C68.2476 107.702 69.5967 106.353 69.5967 104.704C69.5967 103.04 68.2476 101.657 66.5986 101.657L33.4253 101.657C31.7764 101.657 30.3935 103.04 30.3935 104.704C30.3935 106.353 31.7764 107.702 33.4253 107.702ZM49.895 78.3193C69.6704 78.3193 85.6895 62.3003 85.6895 42.4912C85.6895 22.731 69.6704 6.69678 49.895 6.69678C30.1011 6.69678 14.0669 22.731 14.0669 42.4912C14.0669 62.3003 30.1011 78.3193 49.895 78.3193ZM49.895 72.6113C32.481 72.6113 19.7901 59.9053 19.7901 42.4912C19.7901 25.0923 32.481 12.4199 49.895 12.4199C67.3091 12.4199 79.9814 25.0923 79.9814 42.4912C79.9814 59.9053 67.3091 72.6113 49.895 72.6113Z" fill="#000000" fill-opacity="0.85"/>
 </g>
</svg>
