<?xml version="1.0" encoding="UTF-8"?>
<!--Generator: Apple Native CoreSVG 232.5-->
<!DOCTYPE svg
PUBLIC "-//W3C//DTD SVG 1.1//EN"
       "http://www.w3.org/Graphics/SVG/1.1/DTD/svg11.dtd">
<svg version="1.1" xmlns="http://www.w3.org/2000/svg" xmlns:xlink="http://www.w3.org/1999/xlink" width="97.9595" height="116.717">
 <g>
  <rect height="116.717" opacity="0" width="97.9595" x="0" y="0"/>
  <path d="M0 58.3793C0 85.2168 22.1685 107.352 48.9722 107.352C75.8247 107.352 97.9595 85.2168 97.9595 58.3793C97.9595 34.6132 80.5967 14.5395 57.9722 10.2441L57.9722 2.8564C57.9722 0.0253384 56.0186-0.79644 53.7603 0.820262L38.5625 11.4365C36.6645 12.7719 36.6309 14.707 38.5625 16.061L53.7266 26.7109C56.0186 28.3613 57.9722 27.5395 57.9722 24.6899L57.9722 16.727C77.2466 20.8051 91.5928 37.8623 91.5928 58.3793C91.5928 82.0014 72.5942 101.019 48.9722 101.019C25.3501 101.019 6.29933 82.0014 6.33302 58.3793C6.36671 43.5586 13.9072 30.5459 25.3672 22.9878C26.8999 21.8676 27.3833 20.1025 26.4653 18.5361C25.5474 17.0185 23.5278 16.5722 21.8789 17.8237C8.73974 26.6518 0 41.5947 0 58.3793Z" fill="#000000" fill-opacity="0.85"/>
  <path d="M34.8149 78.517C42.0415 78.517 46.8892 72.9306 46.8892 65.458C46.8892 58.6406 42.771 53.2612 36.272 53.2612C31.6958 53.2612 28.2412 56.0761 27.0357 60.2026L26.9009 60.2026C26.9009 56.3945 27.2056 53.6132 27.8486 51.3169C28.8604 47.4902 30.9209 44.0859 34.8755 44.0859C37.7559 44.0859 39.7759 45.6733 40.9106 48.291C41.5068 49.3603 42.189 50.1601 43.4419 50.1601C45.0537 50.1601 45.7441 49.0468 45.7441 47.8916C45.7441 47.1001 45.5791 46.3305 45.2036 45.6098C43.6411 41.9228 39.6338 39.6313 34.9429 39.6313C26.8462 39.6313 23.3677 46.7485 22.4775 54.4209C21.6025 58.8974 21.7964 64.4121 22.9346 68.311C24.6235 74.1045 28.6089 78.517 34.8149 78.517ZM34.7476 74.017C30.416 74.017 27.8169 69.7846 27.8169 65.4194C27.8169 61.123 30.6382 57.4917 34.7661 57.4917C39.0859 57.4917 41.6177 61.2426 41.6177 65.6601C41.6177 70.1196 38.9731 74.017 34.7476 74.017ZM65.311 78.4682C74.8579 78.4682 78.0117 68.3476 78.0117 59.0009C78.0117 49.5483 74.7485 39.5825 65.311 39.5825C55.7827 39.5825 52.5801 49.6879 52.5801 59.0009C52.5801 68.521 55.9072 78.4682 65.311 78.4682ZM65.311 73.9497C60.1836 73.9497 58.0874 66.7783 58.0874 59.0009C58.0874 51.2119 60.1836 44.1045 65.311 44.1045C70.4722 44.1045 72.5532 51.2573 72.5532 59.0009C72.5532 66.7783 70.5024 73.9497 65.311 73.9497Z" fill="#000000" fill-opacity="0.85"/>
 </g>
</svg>
