<?xml version="1.0" encoding="UTF-8"?>
<!--Generator: Apple Native CoreSVG 232.5-->
<!DOCTYPE svg
PUBLIC "-//W3C//DTD SVG 1.1//EN"
       "http://www.w3.org/Graphics/SVG/1.1/DTD/svg11.dtd">
<svg version="1.1" xmlns="http://www.w3.org/2000/svg" xmlns:xlink="http://www.w3.org/1999/xlink" width="97.9595" height="116.717">
 <g>
  <rect height="116.717" opacity="0" width="97.9595" x="0" y="0"/>
  <path d="M0 58.3793C0 85.2168 22.1685 107.352 48.9722 107.352C75.8247 107.352 97.9595 85.2168 97.9595 58.3793C97.9595 34.6132 80.5967 14.5395 57.9722 10.2441L57.9722 2.8564C57.9722 0.0253384 56.0186-0.79644 53.7603 0.820262L38.5625 11.4365C36.6645 12.7719 36.6309 14.707 38.5625 16.061L53.7266 26.7109C56.0186 28.3613 57.9722 27.5395 57.9722 24.6899L57.9722 16.727C77.2466 20.8051 91.5928 37.8623 91.5928 58.3793C91.5928 82.0014 72.5942 101.019 48.9722 101.019C25.3501 101.019 6.29933 82.0014 6.33302 58.3793C6.36671 43.5586 13.9072 30.5459 25.3672 22.9878C26.8999 21.8676 27.3833 20.1025 26.4653 18.5361C25.5474 17.0185 23.5278 16.5722 21.8789 17.8237C8.73974 26.6518 0 41.5947 0 58.3793Z" fill="#000000" fill-opacity="0.85"/>
  <path d="M49.5596 78.581C57.0405 78.581 61.7466 72.9321 61.7466 65.4814C61.7466 58.8325 57.8086 53.2475 51.2422 53.2475C47.9439 53.2475 45.0127 54.7763 43.5278 57.4179L43.4082 57.4179L44.4653 44.9834L57.749 44.9834C59.0728 44.9834 59.9805 44.0908 59.9805 42.7334C59.9805 41.3759 59.1065 40.4985 57.749 40.4985L43.2256 40.4985C41.0801 40.4985 40.0747 41.6235 39.9097 43.769L38.6724 58.9956C38.541 60.7959 39.4824 62.0893 41.1919 62.0893C42.5425 62.0893 43.1807 61.4091 43.9907 60.4677C45.3442 58.5385 47.3677 57.3803 49.6992 57.3803C54.0562 57.3803 56.4751 61.1953 56.4751 65.6162C56.4751 70.1752 53.9971 74.0961 49.5562 74.0961C46.1607 74.0961 43.75 71.8588 42.8071 68.8808C42.3237 67.6801 41.48 67.0722 40.4224 67.0722C39.0161 67.0722 38.1387 67.9648 38.1387 69.3559C38.1387 69.8813 38.2515 70.4672 38.3828 70.9741C39.6641 75.707 44.687 78.581 49.5596 78.581Z" fill="#000000" fill-opacity="0.85"/>
 </g>
</svg>
