<?xml version="1.0" encoding="UTF-8"?>
<!--Generator: Apple Native CoreSVG 232.5-->
<!DOCTYPE svg
PUBLIC "-//W3C//DTD SVG 1.1//EN"
       "http://www.w3.org/Graphics/SVG/1.1/DTD/svg11.dtd">
<svg version="1.1" xmlns="http://www.w3.org/2000/svg" xmlns:xlink="http://www.w3.org/1999/xlink" width="97.9595" height="116.717">
 <g>
  <rect height="116.717" opacity="0" width="97.9595" x="0" y="0"/>
  <path d="M0 58.3793C0 85.2168 22.1685 107.352 48.9722 107.352C75.8247 107.352 97.9595 85.2168 97.9595 58.3793C97.9595 34.6132 80.5967 14.5395 57.9722 10.2441L57.9722 2.8564C57.9722 0.0253384 56.0186-0.79644 53.7603 0.820262L38.5625 11.4365C36.6645 12.7719 36.6309 14.707 38.5625 16.061L53.7266 26.7109C56.0186 28.3613 57.9722 27.5395 57.9722 24.6899L57.9722 16.727C77.2466 20.8051 91.5928 37.8623 91.5928 58.3793C91.5928 82.0014 72.5942 101.019 48.9722 101.019C25.3501 101.019 6.29933 82.0014 6.33302 58.3793C6.36671 43.5586 13.9072 30.5459 25.3672 22.9878C26.8999 21.8676 27.3833 20.1025 26.4653 18.5361C25.5474 17.0185 23.5278 16.5722 21.8789 17.8237C8.73974 26.6518 0 41.5947 0 58.3793Z" fill="#000000" fill-opacity="0.85"/>
  <path d="M36.7847 78.1904C38.4941 78.1904 39.5064 76.9643 39.5064 75.2885L39.5064 42.8852C39.5064 40.9921 38.3106 39.8789 36.4175 39.8789C34.873 39.8789 33.79 40.561 32.5942 41.4755L26.1685 46.1977C25.3735 46.7602 24.8784 47.4238 24.8784 48.3989C24.8784 49.5576 25.7373 50.4502 26.8623 50.4502C27.4434 50.4502 27.8525 50.3003 28.3325 49.9516L34.0293 45.7329L34.0815 45.7329L34.0815 75.2885C34.0815 76.9794 35.0786 78.1904 36.7847 78.1904ZM60.7315 78.4531C70.2446 78.4531 73.4321 68.3476 73.4321 59.0009C73.4321 49.5483 70.169 39.5673 60.7315 39.5673C51.1694 39.5673 48.0156 49.6879 48.0156 59.0009C48.0156 68.4873 51.3125 78.4531 60.7315 78.4531ZM60.7315 73.9648C55.5889 73.9648 53.5078 66.7783 53.5078 59.0009C53.5078 51.227 55.604 44.1196 60.7315 44.1196C65.8926 44.1196 67.9399 51.291 67.9399 59.0009C67.9399 66.7783 65.9229 73.9648 60.7315 73.9648Z" fill="#000000" fill-opacity="0.85"/>
 </g>
</svg>
