<?xml version="1.0" encoding="UTF-8"?>
<!--Generator: Apple Native CoreSVG 232.5-->
<!DOCTYPE svg
PUBLIC "-//W3C//DTD SVG 1.1//EN"
       "http://www.w3.org/Graphics/SVG/1.1/DTD/svg11.dtd">
<svg version="1.1" xmlns="http://www.w3.org/2000/svg" xmlns:xlink="http://www.w3.org/1999/xlink" width="97.9595" height="116.717">
 <g>
  <rect height="116.717" opacity="0" width="97.9595" x="0" y="0"/>
  <path d="M0 58.3793C0 85.2168 22.1685 107.352 48.9722 107.352C75.8247 107.352 97.9595 85.2168 97.9595 58.3793C97.9595 34.6132 80.5967 14.5395 57.9722 10.2441L57.9722 2.8564C57.9722 0.0253384 56.0186-0.79644 53.7603 0.820262L38.5625 11.4365C36.6645 12.7719 36.6309 14.707 38.5625 16.061L53.7266 26.7109C56.0186 28.3613 57.9722 27.5395 57.9722 24.6899L57.9722 16.727C77.2466 20.8051 91.5928 37.8623 91.5928 58.3793C91.5928 82.0014 72.5942 101.019 48.9722 101.019C25.3501 101.019 6.29933 82.0014 6.33302 58.3793C6.36671 43.5586 13.9072 30.5459 25.3672 22.9878C26.8999 21.8676 27.3833 20.1025 26.4653 18.5361C25.5474 17.0185 23.5278 16.5722 21.8789 17.8237C8.73974 26.6518 0 41.5947 0 58.3793Z" fill="#000000" fill-opacity="0.85"/>
  <path d="M29.0313 61.5459L70.0405 61.5459C72.0786 61.5459 73.5254 60.3535 73.5254 58.4316C73.5254 56.4458 72.1763 55.2348 70.0405 55.2348L29.0313 55.2348C26.8955 55.2348 25.5127 56.4458 25.5127 58.4316C25.5127 60.3535 26.9932 61.5459 29.0313 61.5459Z" fill="#000000" fill-opacity="0.85"/>
 </g>
</svg>
