<?xml version="1.0" encoding="UTF-8"?>
<!--Generator: Apple Native CoreSVG 232.5-->
<!DOCTYPE svg
PUBLIC "-//W3C//DTD SVG 1.1//EN"
       "http://www.w3.org/Graphics/SVG/1.1/DTD/svg11.dtd">
<svg version="1.1" xmlns="http://www.w3.org/2000/svg" xmlns:xlink="http://www.w3.org/1999/xlink" width="97.9595" height="116.636">
 <g>
  <rect height="116.636" opacity="0" width="97.9595" x="0" y="0"/>
  <path d="M0 58.3388C0 85.1762 22.1685 107.311 48.9722 107.311C75.8247 107.311 97.9595 85.1762 97.9595 58.3388C97.9595 41.5541 89.2046 26.6112 76.0806 17.7831C74.4317 16.5316 72.397 16.9779 71.479 18.4955C70.5762 20.0619 71.0596 21.8271 72.5923 22.9472C84.0522 30.5053 91.5928 43.518 91.6265 58.3388C91.6602 81.9608 72.5942 100.978 48.9722 100.978C25.3501 100.978 6.36671 81.9608 6.36671 58.3388C6.36671 37.8066 20.728 20.7494 40.0024 16.6864L40.0024 24.6982C40.0024 27.5141 41.9561 28.3359 44.2481 26.7192L59.4458 16.0692C61.3101 14.7826 61.3438 12.8476 59.4458 11.4936L44.2817 0.843654C41.9561-0.806739 40.0024 0.0150395 40.0024 2.86465L40.0024 10.2035C17.3477 14.4838 0 34.5575 0 58.3388Z" fill="#000000" fill-opacity="0.85"/>
  <path d="M36.2378 78.1498C37.9473 78.1498 38.9595 76.9237 38.9595 75.248L38.9595 42.8446C38.9595 40.9516 37.7788 39.8383 35.8857 39.8383C34.3413 39.8383 33.2432 40.5204 32.0474 41.435L25.6367 46.1571C24.8267 46.7196 24.3315 47.3832 24.3315 48.3583C24.3315 49.517 25.1904 50.4096 26.3154 50.4096C26.9116 50.4096 27.3394 50.2597 27.7856 49.9111L33.4824 45.6923L33.5347 45.6923L33.5347 75.248C33.5347 76.9389 34.5469 78.1498 36.2378 78.1498ZM60.1846 78.4125C69.6978 78.4125 72.8853 68.307 72.8853 58.9604C72.8853 49.5077 69.6221 39.5268 60.1846 39.5268C50.6226 39.5268 47.4688 49.6474 47.4688 58.9604C47.4688 68.4467 50.7808 78.4125 60.1846 78.4125ZM60.1846 73.9242C55.0571 73.9242 52.961 66.7377 52.961 58.9604C52.961 51.1864 55.0571 44.079 60.1846 44.079C65.3457 44.079 67.3931 51.2504 67.3931 58.9604C67.3931 66.7377 65.376 73.9242 60.1846 73.9242Z" fill="#000000" fill-opacity="0.85"/>
 </g>
</svg>
