<?xml version="1.0" encoding="UTF-8"?>
<!--Generator: Apple Native CoreSVG 232.5-->
<!DOCTYPE svg
PUBLIC "-//W3C//DTD SVG 1.1//EN"
       "http://www.w3.org/Graphics/SVG/1.1/DTD/svg11.dtd">
<svg version="1.1" xmlns="http://www.w3.org/2000/svg" xmlns:xlink="http://www.w3.org/1999/xlink" width="97.9595" height="116.636">
 <g>
  <rect height="116.636" opacity="0" width="97.9595" x="0" y="0"/>
  <path d="M0 58.3388C0 85.1762 22.1685 107.311 48.9722 107.311C75.8247 107.311 97.9595 85.1762 97.9595 58.3388C97.9595 41.5541 89.2046 26.6112 76.0806 17.7831C74.4317 16.5316 72.397 16.9779 71.479 18.4955C70.5762 20.0619 71.0596 21.8271 72.5923 22.9472C84.0522 30.5053 91.5928 43.518 91.6265 58.3388C91.6602 81.9608 72.5942 100.978 48.9722 100.978C25.3501 100.978 6.36671 81.9608 6.36671 58.3388C6.36671 37.8066 20.728 20.7494 40.0024 16.6864L40.0024 24.6982C40.0024 27.5141 41.9561 28.3359 44.2481 26.7192L59.4458 16.0692C61.3101 14.7826 61.3438 12.8476 59.4458 11.4936L44.2817 0.843654C41.9561-0.806739 40.0024 0.0150395 40.0024 2.86465L40.0024 10.2035C17.3477 14.4838 0 34.5575 0 58.3388Z" fill="#000000" fill-opacity="0.85"/>
  <path d="M27.9717 78.1195C29.2012 78.1195 29.8799 77.5385 30.3936 76.3764L43.4917 46.5243C43.938 45.5121 44.2866 44.4848 44.2866 43.3901C44.2866 41.4179 42.9409 40.4579 41.2534 40.4579L23.6577 40.4579C22.3491 40.4579 21.438 41.3691 21.438 42.6625C21.438 43.9711 22.3491 44.8486 23.6577 44.8486L38.9409 44.8486L38.9409 45.0507L25.9136 73.8383C25.6475 74.5204 25.4487 75.162 25.4487 75.8778C25.4487 77.2538 26.4795 78.1195 27.9717 78.1195ZM61.4424 78.5404C68.9234 78.5404 73.6445 72.8915 73.6445 65.4408C73.6445 58.7919 69.6914 53.2069 63.1738 53.2069C59.793 53.2069 56.8955 54.7021 55.3921 57.3774L55.2573 57.3774L56.3482 44.9428L69.6318 44.9428C70.9404 44.9428 71.8633 44.0653 71.8633 42.6928C71.8633 41.3354 71.0044 40.4579 69.6318 40.4579L55.1084 40.4579C52.9629 40.4579 51.9575 41.5492 51.7925 43.7133L50.5703 58.9213C50.3901 60.7216 51.3501 62.0151 53.0747 62.0151C54.4404 62.0151 55.0635 61.3837 55.8736 60.3935C57.2422 58.498 59.2505 57.3398 61.6157 57.3398C65.9053 57.3398 68.3916 61.1547 68.3916 65.5419C68.3916 70.1347 65.8799 74.0219 61.4878 74.0219C58.0435 74.0219 55.6817 71.8183 54.7237 68.8402C54.2066 67.6396 53.3965 67.0316 52.3389 67.0316C50.9141 67.0316 50.0215 67.9394 50.0215 69.349C50.0215 69.8559 50.1343 70.4267 50.2808 70.9672C51.5469 75.6513 56.6035 78.5404 61.4424 78.5404Z" fill="#000000" fill-opacity="0.85"/>
 </g>
</svg>
