<?xml version="1.0" encoding="UTF-8"?>
<!--Generator: Apple Native CoreSVG 232.5-->
<!DOCTYPE svg
PUBLIC "-//W3C//DTD SVG 1.1//EN"
       "http://www.w3.org/Graphics/SVG/1.1/DTD/svg11.dtd">
<svg version="1.1" xmlns="http://www.w3.org/2000/svg" xmlns:xlink="http://www.w3.org/1999/xlink" width="97.9595" height="116.636">
 <g>
  <rect height="116.636" opacity="0" width="97.9595" x="0" y="0"/>
  <path d="M0 58.3388C0 85.1762 22.1685 107.311 48.9722 107.311C75.8247 107.311 97.9595 85.1762 97.9595 58.3388C97.9595 41.5541 89.2046 26.6112 76.0806 17.7831C74.4317 16.5316 72.397 16.9779 71.479 18.4955C70.5762 20.0619 71.0596 21.8271 72.5923 22.9472C84.0522 30.5053 91.5928 43.518 91.6265 58.3388C91.6602 81.9608 72.5942 100.978 48.9722 100.978C25.3501 100.978 6.36671 81.9608 6.36671 58.3388C6.36671 37.8066 20.728 20.7494 40.0024 16.6864L40.0024 24.6982C40.0024 27.5141 41.9561 28.3359 44.2481 26.7192L59.4458 16.0692C61.3101 14.7826 61.3438 12.8476 59.4458 11.4936L44.2817 0.843654C41.9561-0.806739 40.0024 0.0150395 40.0024 2.86465L40.0024 10.2035C17.3477 14.4838 0 34.5575 0 58.3388Z" fill="#000000" fill-opacity="0.85"/>
  <path d="M37.7417 78.1498C39.1177 78.1498 40.2832 77.3095 40.2832 75.5106L40.2832 69.7773L42.978 69.7773C44.4736 69.7773 45.1978 68.829 45.1978 67.6215C45.1978 66.3129 44.4063 65.4169 42.978 65.4169L40.2832 65.4169L40.2832 43.8988C40.2832 41.3422 38.6191 39.9662 36.0962 39.9662C33.5581 39.9662 32.2495 41.3876 31.042 43.6445C27.7827 49.0068 22.6567 57.788 19.8809 63.0775C19.3369 64.2885 18.8721 65.5331 18.8721 66.8754C18.8721 68.6151 20.1016 69.7773 21.9424 69.7773L35.2339 69.7773L35.2339 75.5106C35.2339 77.2758 36.3843 78.1498 37.7417 78.1498ZM35.2861 65.5517L23.6079 65.5517L23.6079 65.2856C26.5322 59.3017 31.2207 51.1615 35.0908 44.7558L35.2861 44.7558ZM62.7036 78.5404C70.1846 78.5404 74.9058 72.8915 74.9058 65.4408C74.9058 58.7919 70.9527 53.2069 64.4014 53.2069C61.0542 53.2069 58.1719 54.7021 56.6533 57.3774L56.5186 57.3774L57.6094 44.9428L70.8931 44.9428C72.2017 44.9428 73.1245 44.0653 73.1245 42.6928C73.1245 41.3354 72.2319 40.4579 70.8931 40.4579L56.3359 40.4579C54.2056 40.4579 53.1851 41.5492 53.0537 43.7133L51.7979 58.9213C51.6514 60.7216 52.5928 62.0151 54.3023 62.0151C55.7017 62.0151 56.3247 61.3837 57.1348 60.3935C58.5034 58.498 60.5117 57.3398 62.8433 57.3398C67.1816 57.3398 69.6343 61.1547 69.6343 65.5419C69.6343 70.1347 67.1411 74.0219 62.7153 74.0219C59.3047 74.0219 56.9429 71.8183 55.9512 68.8402C55.4341 67.6396 54.624 67.0316 53.5664 67.0316C52.1753 67.0316 51.2979 67.9394 51.2979 69.349C51.2979 69.8559 51.3618 70.4267 51.542 70.9672C52.8081 75.6513 57.8311 78.5404 62.7036 78.5404Z" fill="#000000" fill-opacity="0.85"/>
 </g>
</svg>
