<?xml version="1.0" encoding="UTF-8"?>
<!--Generator: Apple Native CoreSVG 232.5-->
<!DOCTYPE svg
PUBLIC "-//W3C//DTD SVG 1.1//EN"
       "http://www.w3.org/Graphics/SVG/1.1/DTD/svg11.dtd">
<svg version="1.1" xmlns="http://www.w3.org/2000/svg" xmlns:xlink="http://www.w3.org/1999/xlink" width="97.9595" height="116.636">
 <g>
  <rect height="116.636" opacity="0" width="97.9595" x="0" y="0"/>
  <path d="M0 58.3388C0 85.1762 22.1685 107.311 48.9722 107.311C75.8247 107.311 97.9595 85.1762 97.9595 58.3388C97.9595 41.5541 89.2046 26.6112 76.0806 17.7831C74.4317 16.5316 72.397 16.9779 71.479 18.4955C70.5762 20.0619 71.0596 21.8271 72.5923 22.9472C84.0522 30.5053 91.5928 43.518 91.6265 58.3388C91.6602 81.9608 72.5942 100.978 48.9722 100.978C25.3501 100.978 6.36671 81.9608 6.36671 58.3388C6.36671 37.8066 20.728 20.7494 40.0024 16.6864L40.0024 24.6982C40.0024 27.5141 41.9561 28.3359 44.2481 26.7192L59.4458 16.0692C61.3101 14.7826 61.3438 12.8476 59.4458 11.4936L44.2817 0.843654C41.9561-0.806739 40.0024 0.0150395 40.0024 2.86465L40.0024 10.2035C17.3477 14.4838 0 34.5575 0 58.3388Z" fill="#000000" fill-opacity="0.85"/>
  <path d="M33.4932 78.4276C43.6445 78.4276 46.7764 68.1791 46.7764 58.4184C46.7764 48.7284 42.9981 39.557 33.6885 39.557C26.583 39.557 21.6294 45.1049 21.6294 52.5824C21.6294 59.2802 25.7812 64.8315 32.3477 64.8315C36.9912 64.8315 40.5098 61.8515 41.6294 57.8412L41.6025 57.8412C41.6025 57.9389 41.6177 58.1796 41.6177 58.3866C41.7119 64.9374 40.1919 73.9428 33.6768 73.9428C30.5322 73.9428 28.7158 72.2309 27.5288 69.7074C26.9326 68.4613 26.2993 67.8383 24.9976 67.8383C23.5205 67.8383 22.6953 68.8505 22.6953 70.1254C22.6953 71.2421 23.3355 72.5087 24.2197 73.5595C25.9341 76.3456 29.2476 78.4276 33.4932 78.4276ZM33.7373 60.5336C29.4058 60.5336 26.9346 56.6698 26.9346 52.4291C26.9346 48.1581 29.4092 44.0756 33.8047 44.0756C38.0269 44.0756 40.769 48.0707 40.769 52.5756C40.769 56.8988 37.8687 60.5336 33.7373 60.5336ZM65.5181 78.4276C75.0161 78.4276 78.2188 68.307 78.2188 58.9604C78.2188 49.5077 74.9556 39.5419 65.5181 39.5419C55.9898 39.5419 52.7871 49.6474 52.7871 58.9604C52.7871 68.4804 56.1143 78.4276 65.5181 78.4276ZM65.5181 73.9091C60.3906 73.9091 58.2608 66.7377 58.2608 58.9604C58.2608 51.1713 60.3906 44.0639 65.5181 44.0639C70.6455 44.0639 72.7603 51.2167 72.7603 58.9604C72.7603 66.7377 70.7095 73.9091 65.5181 73.9091Z" fill="#000000" fill-opacity="0.85"/>
 </g>
</svg>
