<?xml version="1.0" encoding="UTF-8"?>
<!--Generator: Apple Native CoreSVG 232.5-->
<!DOCTYPE svg
PUBLIC "-//W3C//DTD SVG 1.1//EN"
       "http://www.w3.org/Graphics/SVG/1.1/DTD/svg11.dtd">
<svg version="1.1" xmlns="http://www.w3.org/2000/svg" xmlns:xlink="http://www.w3.org/1999/xlink" width="97.9595" height="116.636">
 <g>
  <rect height="116.636" opacity="0" width="97.9595" x="0" y="0"/>
  <path d="M0 58.3388C0 85.1762 22.1685 107.311 48.9722 107.311C75.8247 107.311 97.9595 85.1762 97.9595 58.3388C97.9595 41.5541 89.2046 26.6112 76.0806 17.7831C74.4317 16.5316 72.397 16.9779 71.479 18.4955C70.5762 20.0619 71.0596 21.8271 72.5923 22.9472C84.0522 30.5053 91.5928 43.518 91.6265 58.3388C91.6602 81.9608 72.5942 100.978 48.9722 100.978C25.3501 100.978 6.36671 81.9608 6.36671 58.3388C6.36671 37.8066 20.728 20.7494 40.0024 16.6864L40.0024 24.6982C40.0024 27.5141 41.9561 28.3359 44.2481 26.7192L59.4458 16.0692C61.3101 14.7826 61.3438 12.8476 59.4458 11.4936L44.2817 0.843654C41.9561-0.806739 40.0024 0.0150395 40.0024 2.86465L40.0024 10.2035C17.3477 14.4838 0 34.5575 0 58.3388Z" fill="#000000" fill-opacity="0.85"/>
  <path d="M34.2681 78.4765C41.4946 78.4765 46.3423 72.8901 46.3423 65.4174C46.3423 58.6 42.2241 53.2206 35.7251 53.2206C31.1489 53.2206 27.6944 56.0356 26.4888 60.162L26.354 60.162C26.354 56.3539 26.6738 53.5727 27.3018 51.2763C28.3135 47.4496 30.3892 44.0453 34.3438 44.0453C37.2241 44.0453 39.229 45.6327 40.3638 48.2504C40.96 49.3197 41.6421 50.1195 42.9102 50.1195C44.522 50.1195 45.1973 49.0063 45.1973 47.851C45.1973 47.0595 45.0322 46.2899 44.6719 45.5692C43.1094 41.8822 39.1021 39.5907 34.396 39.5907C26.2993 39.5907 22.8208 46.7079 21.9307 54.3803C21.0557 58.8569 21.2495 64.3715 22.4028 68.2704C24.0918 74.0639 28.0772 78.4765 34.2681 78.4765ZM34.2158 73.9765C29.8692 73.9765 27.2852 69.744 27.2852 65.3788C27.2852 61.0824 30.0913 57.4511 34.2192 57.4511C38.5391 57.4511 41.0708 61.2021 41.0708 65.6195C41.0708 70.079 38.4414 73.9765 34.2158 73.9765ZM64.7642 78.4276C74.311 78.4276 77.48 68.307 77.48 58.9604C77.48 49.5077 74.2168 39.5419 64.7642 39.5419C55.2358 39.5419 52.0483 49.6474 52.0483 58.9604C52.0483 68.4804 55.3604 78.4276 64.7642 78.4276ZM64.7642 73.9091C59.6367 73.9091 57.5405 66.7377 57.5405 58.9604C57.5405 51.1713 59.6367 44.0639 64.7642 44.0639C69.9404 44.0639 72.0063 51.2167 72.0063 58.9604C72.0063 66.7377 69.9556 73.9091 64.7642 73.9091Z" fill="#000000" fill-opacity="0.85"/>
 </g>
</svg>
