<?xml version="1.0" encoding="UTF-8"?>
<!--Generator: Apple Native CoreSVG 232.5-->
<!DOCTYPE svg
PUBLIC "-//W3C//DTD SVG 1.1//EN"
       "http://www.w3.org/Graphics/SVG/1.1/DTD/svg11.dtd">
<svg version="1.1" xmlns="http://www.w3.org/2000/svg" xmlns:xlink="http://www.w3.org/1999/xlink" width="97.9595" height="116.636">
 <g>
  <rect height="116.636" opacity="0" width="97.9595" x="0" y="0"/>
  <path d="M0 58.3388C0 85.1762 22.1685 107.311 48.9722 107.311C75.8247 107.311 97.9595 85.1762 97.9595 58.3388C97.9595 41.5541 89.2046 26.6112 76.0806 17.7831C74.4317 16.5316 72.397 16.9779 71.479 18.4955C70.5762 20.0619 71.0596 21.8271 72.5923 22.9472C84.0522 30.5053 91.5928 43.518 91.6265 58.3388C91.6602 81.9608 72.5942 100.978 48.9722 100.978C25.3501 100.978 6.36671 81.9608 6.36671 58.3388C6.36671 37.8066 20.728 20.7494 40.0024 16.6864L40.0024 24.6982C40.0024 27.5141 41.9561 28.3359 44.2481 26.7192L59.4458 16.0692C61.3101 14.7826 61.3438 12.8476 59.4458 11.4936L44.2817 0.843654C41.9561-0.806739 40.0024 0.0150395 40.0024 2.86465L40.0024 10.2035C17.3477 14.4838 0 34.5575 0 58.3388Z" fill="#000000" fill-opacity="0.85"/>
  <path d="M33.4985 78.4125C40.5249 78.4125 46.0108 74.141 46.0108 67.3739C46.0108 61.8495 42.3755 58.7382 37.626 58.2987L37.626 58.2768C41.9111 57.3305 44.7109 53.9696 44.7109 49.5097C44.7109 43.4042 39.7891 39.6733 33.3066 39.6733C28.0044 39.6733 23.6196 42.6586 22.4395 46.9623C22.2476 47.5448 22.1348 48.2704 22.1348 48.9018C22.1348 50.1884 22.8286 51.1855 24.437 51.1855C25.8247 51.1855 26.4917 50.5321 26.9077 49.2421C27.7598 46.0097 30.0122 44.0907 33.3403 44.0907C37.0508 44.0907 39.522 46.4174 39.522 50.1127C39.522 54.0404 36.6719 56.4125 32.665 56.4125L30.7041 56.4125C29.377 56.4125 28.5518 57.2377 28.5518 58.4941C28.5518 59.7875 29.4107 60.5302 30.7041 60.5302L32.7627 60.5302C37.2778 60.5302 40.5371 62.5268 40.5371 67.2323C40.5371 71.123 37.6719 73.8939 33.5322 73.8939C29.6753 73.8939 27.1587 71.8183 26.2949 68.6938C25.8115 67.5722 24.9946 66.7875 23.8579 66.7875C22.3506 66.7875 21.4058 67.7441 21.4058 69.1874C21.4058 69.849 21.5337 70.4955 21.7407 71.1269C23.1128 75.9828 28.3833 78.4125 33.4985 78.4125ZM64.3433 78.4276C73.8228 78.4276 77.044 68.3407 77.044 58.9604C77.044 49.5077 73.7622 39.5419 64.3433 39.5419C54.7813 39.5419 51.5938 49.6474 51.5938 58.9604C51.5938 68.4804 54.9058 78.4276 64.3433 78.4276ZM64.3433 73.9091C59.1821 73.9091 57.086 66.7377 57.086 58.9604C57.086 51.1713 59.1821 44.0639 64.3433 44.0639C69.4707 44.0639 71.5518 51.2167 71.5518 58.9604C71.5518 66.7377 69.501 73.9091 64.3433 73.9091Z" fill="#000000" fill-opacity="0.85"/>
 </g>
</svg>
