<?xml version="1.0" encoding="UTF-8"?>
<!--Generator: Apple Native CoreSVG 232.5-->
<!DOCTYPE svg
PUBLIC "-//W3C//DTD SVG 1.1//EN"
       "http://www.w3.org/Graphics/SVG/1.1/DTD/svg11.dtd">
<svg version="1.1" xmlns="http://www.w3.org/2000/svg" xmlns:xlink="http://www.w3.org/1999/xlink" width="97.9595" height="116.636">
 <g>
  <rect height="116.636" opacity="0" width="97.9595" x="0" y="0"/>
  <path d="M0 58.3388C0 85.1762 22.1685 107.311 48.9722 107.311C75.8247 107.311 97.9595 85.1762 97.9595 58.3388C97.9595 41.5541 89.2046 26.6112 76.0806 17.7831C74.4317 16.5316 72.397 16.9779 71.479 18.4955C70.5762 20.0619 71.0596 21.8271 72.5923 22.9472C84.0522 30.5053 91.5928 43.518 91.6265 58.3388C91.6602 81.9608 72.5942 100.978 48.9722 100.978C25.3501 100.978 6.36671 81.9608 6.36671 58.3388C6.36671 37.8066 20.728 20.7494 40.0024 16.6864L40.0024 24.6982C40.0024 27.5141 41.9561 28.3359 44.2481 26.7192L59.4458 16.0692C61.3101 14.7826 61.3438 12.8476 59.4458 11.4936L44.2817 0.843654C41.9561-0.806739 40.0024 0.0150395 40.0024 2.86465L40.0024 10.2035C17.3477 14.4838 0 34.5575 0 58.3388Z" fill="#000000" fill-opacity="0.85"/>
  <path d="M36.2378 78.1498C37.9473 78.1498 38.9595 76.9237 38.9595 75.248L38.9595 42.8446C38.9595 40.9516 37.7788 39.8383 35.8857 39.8383C34.3413 39.8383 33.2432 40.5204 32.0474 41.435L25.6367 46.1571C24.8267 46.7196 24.3315 47.3832 24.3315 48.3583C24.3315 49.517 25.1904 50.4096 26.3154 50.4096C26.9116 50.4096 27.3394 50.2597 27.7856 49.9111L33.4824 45.6923L33.5347 45.6923L33.5347 75.248C33.5347 76.9389 34.5469 78.1498 36.2378 78.1498ZM59.4893 78.4276C66.9702 78.4276 71.6763 72.8275 71.6763 65.3617C71.6763 58.7128 67.772 53.1278 61.1719 53.1278C57.8736 53.1278 54.9424 54.6718 53.4575 57.2983L53.3379 57.2983L54.4287 44.8637L67.6787 44.8637C68.9873 44.8637 69.895 43.9711 69.895 42.6288C69.895 41.2714 69.0361 40.3788 67.6787 40.3788L53.1553 40.3788C51.0098 40.3788 50.0044 41.4701 49.8579 43.6493L48.5869 58.8422C48.4556 60.6762 49.397 61.9696 51.1216 61.9696C52.4722 61.9696 53.1104 61.2895 53.9053 60.3144C55.2739 58.4189 57.2822 57.2607 59.6289 57.2607C63.9858 57.2607 66.4048 61.0756 66.4048 65.5116C66.4048 70.0556 63.9116 73.9765 59.5195 73.9765C56.0752 73.9765 53.6983 71.7392 52.7368 68.7611C52.2383 67.5605 51.4434 66.9189 50.3369 66.9189C48.9458 66.9189 48.0684 67.8451 48.0684 69.2362C48.0684 69.7616 48.166 70.3476 48.3125 70.8544C49.5786 75.5873 54.6167 78.4276 59.4893 78.4276Z" fill="#000000" fill-opacity="0.85"/>
 </g>
</svg>
