<?xml version="1.0" encoding="UTF-8"?>
<!--Generator: Apple Native CoreSVG 232.5-->
<!DOCTYPE svg
PUBLIC "-//W3C//DTD SVG 1.1//EN"
       "http://www.w3.org/Graphics/SVG/1.1/DTD/svg11.dtd">
<svg version="1.1" xmlns="http://www.w3.org/2000/svg" xmlns:xlink="http://www.w3.org/1999/xlink" width="130.37" height="134.28">
 <g>
  <rect height="134.28" opacity="0" width="130.37" x="0" y="0"/>
  <path d="M126.307 45.8711L78.0195 23.7388C72.9937 21.4473 69.0923 20.4942 65.1758 20.5767C61.2778 20.4942 57.3765 21.4473 52.3169 23.7388L4.06348 45.8711C1.36231 47.1055 0 49.2779 0 51.5259C0 53.7891 1.36231 55.9278 4.06348 57.1958L26.3755 67.3594L56.0273 53.0088C55.5073 52.5308 55.2734 51.9888 55.2734 51.5108C55.2734 48.8281 59.9648 46.4693 65.2954 46.4693C70.6597 46.4693 75.2686 48.8281 75.2686 51.5108C75.2686 54.3062 70.6597 56.6988 65.2954 56.6988C63.5327 56.6988 61.8608 56.4243 60.4146 55.9732L31.7095 69.9126L52.3169 79.3618C57.3916 81.6719 61.2778 82.5728 65.1758 82.524C69.0923 82.5728 72.9937 81.6719 78.0195 79.3618L126.307 57.1958C129.008 55.9278 130.37 53.7891 130.37 51.5259C130.37 49.2779 129.008 47.1055 126.307 45.8711ZM31.5747 76.0796L31.5747 105.283C39.4751 110.172 50.9365 113.397 65.1758 113.397C93.4849 113.397 110.95 100.74 110.95 88.1236L110.95 70.4639L80.3941 84.4746C74.8628 87.0205 69.9595 88.2632 65.1758 88.2144C60.4106 88.2632 55.4736 87.0205 49.9424 84.4746ZM19.4053 70.4942L19.4053 88.1236C19.4053 92.1748 21.9224 97.1455 26.5439 101.441L26.5439 73.7891ZM26.5439 115.415L31.5747 115.415L31.5747 105.283C29.6782 104.136 27.9536 102.839 26.5439 101.441ZM22.7168 115.636L22.7168 128.614C22.7168 132.108 24.9043 134.28 28.3984 134.28L29.6865 134.28C33.1958 134.28 35.3682 132.108 35.3682 128.614L35.3682 115.636C35.3682 112.142 33.1958 109.969 29.6865 109.969L28.3984 109.969C24.9043 109.969 22.7168 112.142 22.7168 115.636Z" fill="#000000" fill-opacity="0.85"/>
 </g>
</svg>
