<?xml version="1.0" encoding="UTF-8"?>
<!--Generator: Apple Native CoreSVG 232.5-->
<!DOCTYPE svg
PUBLIC "-//W3C//DTD SVG 1.1//EN"
       "http://www.w3.org/Graphics/SVG/1.1/DTD/svg11.dtd">
<svg version="1.1" xmlns="http://www.w3.org/2000/svg" xmlns:xlink="http://www.w3.org/1999/xlink" width="65.2266" height="62.3194">
 <g>
  <rect height="62.3194" opacity="0" width="65.2266" x="0" y="0"/>
  <path d="M3.18165 62.3194C4.26124 62.3194 4.9922 61.9404 5.77199 61.5581L61.6084 36.4458C63.6987 35.4605 65.2266 33.8721 65.2266 31.5645C65.2266 29.2754 63.6533 27.6196 61.5327 26.6528L5.77199 0.742677C5.02589 0.345215 4.32862 0.0336915 3.31641 0.0336915C1.34912 0.0336915 0 1.36768 0 3.35011C0 5.02101 0.83887 6.01808 2.40528 6.76759L56.3672 31.0962L56.3672 31.5576L2.40528 55.5518C0.83887 56.2861 0 57.2983 0 58.9693C0 61.0191 1.31543 62.3194 3.18165 62.3194Z" fill="#000000" fill-opacity="0.85"/>
 </g>
</svg>
