<?xml version="1.0" encoding="UTF-8"?>
<!--Generator: Apple Native CoreSVG 232.5-->
<!DOCTYPE svg
PUBLIC "-//W3C//DTD SVG 1.1//EN"
       "http://www.w3.org/Graphics/SVG/1.1/DTD/svg11.dtd">
<svg version="1.1" xmlns="http://www.w3.org/2000/svg" xmlns:xlink="http://www.w3.org/1999/xlink" width="88.4092" height="88.5371">
 <g>
  <rect height="88.5371" opacity="0" width="88.4092" x="0" y="0"/>
  <path d="M88.4092 14.4019L88.4092 74.2632C88.4092 83.6558 83.5733 88.5371 74.0005 88.5371L14.3936 88.5371C4.86963 88.5371 0 83.7349 0 74.2632L0 14.4019C0 4.93018 4.86963 0.127929 14.3936 0.127929L74.0005 0.127929C83.5733 0.127929 88.4092 5.00928 88.4092 14.4019ZM28.4307 27.583C28.4307 29.0635 29.1616 30.0117 30.7432 30.7764L56.3862 44.0269L56.3862 44.3047L30.7432 57.353C29.1279 58.1328 28.4307 59.0137 28.4307 60.5127C28.4307 62.3081 29.8286 63.6421 31.6763 63.6421C32.4746 63.6421 32.9917 63.4282 33.6367 63.147L62.6519 47.7339C64.2183 46.8867 64.9341 45.8897 64.9341 44.2593C64.9341 42.7788 64.1509 41.6655 62.6519 40.7998L33.6367 25.0312C32.958 24.7012 32.4746 24.5024 31.6089 24.5024C29.7949 24.5024 28.4307 25.8364 28.4307 27.583Z" fill="#000000" fill-opacity="0.85"/>
 </g>
</svg>
