<?xml version="1.0" encoding="UTF-8"?>
<!--Generator: Apple Native CoreSVG 232.5-->
<!DOCTYPE svg
PUBLIC "-//W3C//DTD SVG 1.1//EN"
       "http://www.w3.org/Graphics/SVG/1.1/DTD/svg11.dtd">
<svg version="1.1" xmlns="http://www.w3.org/2000/svg" xmlns:xlink="http://www.w3.org/1999/xlink" width="88.4092" height="88.5371">
 <g>
  <rect height="88.5371" opacity="0" width="88.4092" x="0" y="0"/>
  <path d="M14.3936 88.5371L74.0005 88.5371C83.5733 88.5371 88.4092 83.6558 88.4092 74.2632L88.4092 14.4019C88.4092 5.00928 83.5733 0.127929 74.0005 0.127929L14.3936 0.127929C4.86963 0.127929 0 4.93018 0 14.4019L0 74.2632C0 83.7349 4.86963 88.5371 14.3936 88.5371ZM14.5064 82.4922C9.00294 82.4922 6.04494 79.6016 6.04494 73.9634L6.04494 14.7017C6.04494 9.06349 9.00294 6.17287 14.5064 6.17287L73.9028 6.17287C79.2969 6.17287 82.3643 9.06349 82.3643 14.7017L82.3643 73.9634C82.3643 79.6016 79.2969 82.4922 73.9028 82.4922Z" fill="#000000" fill-opacity="0.85"/>
  <path d="M44.9463 72.6411C46.1016 72.6411 46.9453 71.8613 46.9453 70.5933L46.9453 66.9888C56.417 66.3101 62.0708 59.5899 62.0708 48.9146L62.0708 46.2461C62.0708 44.4492 61.0132 43.501 59.3931 43.501L46.9453 43.501L46.9453 26.7354C51.8931 27.2979 55.6743 30.6968 56.6426 35.1294C57.0957 36.6856 57.8198 37.2632 59.1655 37.2632C60.5938 37.2632 61.5234 36.2847 61.5234 34.8447C61.5234 34.0112 61.3584 33.3999 61.1294 32.6489C59.2417 26.729 53.8452 22.5366 46.9453 21.9556L46.9453 18.7061C46.9453 17.4531 46.1016 16.6919 44.9463 16.6919C43.7759 16.6919 42.8984 17.4531 42.8984 18.7061L42.8984 22.0381C32.7437 23.1562 26.4023 31.582 26.4023 44.3232C26.4023 57.3574 32.6763 65.8218 42.8984 66.94L42.8984 70.5933C42.8984 71.8613 43.8062 72.6411 44.9463 72.6411ZM42.8984 62.1113C35.8442 60.8955 31.5679 54.2231 31.5679 44.3232C31.5679 34.585 35.8325 28.0337 42.8984 26.833ZM46.9453 62.2612L46.9453 48.1275L57.0737 48.1275L57.0737 49.6255C57.0737 56.7471 53.0923 61.5488 46.9453 62.2612Z" fill="#000000" fill-opacity="0.85"/>
 </g>
</svg>
