<?xml version="1.0" encoding="UTF-8"?>
<!--Generator: Apple Native CoreSVG 232.5-->
<!DOCTYPE svg
PUBLIC "-//W3C//DTD SVG 1.1//EN"
       "http://www.w3.org/Graphics/SVG/1.1/DTD/svg11.dtd">
<svg version="1.1" xmlns="http://www.w3.org/2000/svg" xmlns:xlink="http://www.w3.org/1999/xlink" width="68.7925" height="109.256">
 <g>
  <rect height="109.256" opacity="0" width="68.7925" x="0" y="0"/>
  <path d="M36.5024 98.5781C56.6734 98.5781 68.7925 85.3384 68.7925 63.5991L68.7925 58.1782C68.7925 55.6924 67.3457 54.2119 64.9121 54.2119L37.251 54.2119L37.251 60.4321L61.8125 60.4321L61.8125 64.9536C61.8125 81.5303 51.7803 92.1523 36.5361 92.1523C18.5957 92.1523 7.33205 77.5029 7.33205 54.3208C7.33205 31.5982 18.5049 17.3174 36.5024 17.3174C48.8428 17.3174 58.6162 25.0361 60.9199 35.7686C61.5415 37.9194 62.4897 38.8306 64.4082 38.8306C66.4243 38.8306 67.6943 37.436 67.6152 35.4385C67.585 34.0981 67.356 32.7729 66.9434 31.5117C63.0552 19.3032 51.2148 10.8765 36.5024 10.8765C14.1289 10.8765 0 27.7124 0 54.3208C0 81.3467 14.1372 98.5781 36.5024 98.5781ZM35.9268 109.256C37.3247 109.256 38.4194 108.18 38.4194 106.714L38.4194 3.35254C38.4194 1.9209 37.3247 0.85986 35.9268 0.85986C34.5137 0.85986 33.4189 1.9209 33.4189 3.35254L33.4189 106.714C33.4189 108.18 34.5137 109.256 35.9268 109.256Z" fill="#000000" fill-opacity="0.85"/>
 </g>
</svg>
