<?xml version="1.0" encoding="UTF-8"?>
<!--Generator: Apple Native CoreSVG 232.5-->
<!DOCTYPE svg
PUBLIC "-//W3C//DTD SVG 1.1//EN"
       "http://www.w3.org/Graphics/SVG/1.1/DTD/svg11.dtd">
<svg version="1.1" xmlns="http://www.w3.org/2000/svg" xmlns:xlink="http://www.w3.org/1999/xlink" width="125.942" height="107.712">
 <g>
  <rect height="107.712" opacity="0" width="125.942" x="0" y="0"/>
  <path d="M107.638 4.34961L108.386 16.4102C108.468 17.1797 108.187 17.626 107.241 18.2305C106.023 19.042 105.7 19.6885 105.7 21.8301L105.7 51.0576C113.449 51.9888 118.016 55.9912 118.016 62.0986C118.016 65.9697 116.585 68.8994 116.585 72.3862C116.585 76.8833 123.143 79.5552 123.143 89.1831C123.143 98.6748 115.043 104.622 102.25 104.622C94.7555 104.622 88.8732 102.586 85.3006 98.9827C87.8856 95.5631 89.3267 91.2567 89.3267 86.3174C89.3267 81.3624 88.2497 77.8702 87.0018 75.3457C87.5582 74.384 87.9156 73.4347 87.9156 72.3862C87.9156 68.8994 86.4693 65.9697 86.4693 62.0986C86.4693 55.9912 91.0357 51.9888 98.751 51.0576L98.751 21.8301C98.751 19.6885 98.4615 19.042 97.2442 18.2305C96.313 17.626 96.0166 17.1797 96.0992 16.4102L96.8467 4.34961C96.8955 3.49414 97.4883 2.90137 98.2461 2.90137L106.239 2.90137C106.997 2.90137 107.589 3.49414 107.638 4.34961ZM95.8653 86.0762C94.8902 86.0762 93.9825 86.9536 93.9825 87.9927C93.9825 89.0317 94.8565 89.8418 95.8653 89.8418L108.537 89.8418C109.546 89.8418 110.42 89.0317 110.42 87.9927C110.42 86.9199 109.546 86.0762 108.537 86.0762ZM97.0083 70.9702C97.0083 73.8276 99.3252 76.1782 102.25 76.1782C105.126 76.1782 107.428 73.8276 107.428 70.9702C107.428 68.0791 105.126 65.7437 102.25 65.7437C99.3589 65.7437 97.0083 68.0791 97.0083 70.9702Z" fill="#000000" fill-opacity="0.85"/>
  <path d="M67.3599 3.57324L71.5254 7.23535C72.1822 7.80957 72.524 8.54883 72.46 9.39746L71.4986 19.3584C71.3672 20.6499 71.0894 21.1602 70.1211 21.4717C69.1363 21.8101 69.0572 22.1113 69.0572 23.6367L69.0386 53.1025C69.0386 54.9478 69.291 58.0298 70.8599 58.0298C71.6343 58.0298 72.3364 57.0347 73.2862 55.728C74.5069 53.9399 76.1587 51.9214 78.9556 51.9214C81.7881 51.9214 83.7652 54.0938 83.7652 57.2007C83.7652 61.8413 80.46 64.9024 80.46 68.9834C80.46 72.4937 86.5147 76.3013 86.5147 86.3174C86.5147 97.5484 78.1597 104.9 65.5581 104.9C61.8053 104.9 58.429 104.248 55.5494 103.022C56.3336 100.953 56.2468 98.4621 55.2515 96.1768L46.7576 76.8667C48.4944 73.2846 50.6563 71.0809 50.6563 68.9834C50.6563 64.9024 47.336 61.8413 47.336 57.2007C47.336 54.0938 49.313 51.9214 52.1607 51.9214C54.9575 51.9214 56.5943 53.9399 57.8638 55.728C58.7798 57.0347 59.482 58.0298 60.2412 58.0298C61.8101 58.0298 62.0777 54.9478 62.0777 53.1025L62.044 23.6367C62.044 22.1113 61.9649 21.8101 60.9951 21.4717C60.0269 21.1602 59.749 20.6499 59.6026 19.3584L58.6411 9.39746C58.5923 8.54883 58.919 7.80957 59.5757 7.23535L63.7564 3.57324C64.3003 3.11182 64.9722 2.90137 65.5581 2.90137C66.1626 2.90137 66.8008 3.11182 67.3599 3.57324ZM58.4756 71.4819L54.1856 83.2778C53.874 84.167 54.3506 85.2363 55.2398 85.5327C56.1929 85.8628 57.1983 85.4014 57.5283 84.4785L61.8335 72.7163C62.1787 71.7935 61.6685 70.7241 60.7793 70.4429C59.8262 70.0977 58.8208 70.5591 58.4756 71.4819ZM70.3858 70.4429C69.4966 70.7241 68.9527 71.7935 69.2979 72.7163L73.6031 84.4785C73.9331 85.4014 74.9385 85.8628 75.8916 85.5327C76.7808 85.2363 77.291 84.167 76.9795 83.2778L72.6895 71.4819C72.3443 70.5591 71.3389 70.0977 70.3858 70.4429Z" fill="#000000" fill-opacity="0.85"/>
  <path d="M3.44142 97.2881C1.88038 100.868 3.20557 104.784 7.61281 104.784C9.16896 104.784 10.5684 104.15 12.5152 102.534L26.3784 90.9736C27.1426 90.3677 27.624 90.0967 28.0381 90.0967C28.4707 90.0967 28.9336 90.3677 29.6826 90.9736L43.561 102.534C45.5264 104.15 46.9072 104.784 48.4819 104.784C52.8555 104.784 54.2295 100.868 52.6348 97.2881L31.5371 49.2808L31.5371 25.8828C31.5371 14.7349 33.4077 6.41895 33.4077 4.87159C33.4077 3.64063 32.6685 2.90137 31.5049 2.90137C30.7168 2.90137 30.0449 3.37793 28.8882 4.64746L18.1275 16.9858C17.3242 17.9204 17.5078 18.9595 18.5098 19.4546C22.8218 21.3101 24.5542 22.1333 24.5542 25.8828L24.5542 49.1865ZM36.4736 81.6474C35.3066 81.6474 34.3232 80.6303 34.3232 79.5307C34.3232 78.3149 35.3706 77.249 36.4736 77.249C37.7197 77.249 38.7031 78.251 38.7031 79.5307C38.7031 80.664 37.7197 81.6474 36.4736 81.6474ZM36.7715 82.2993C35.6045 82.2993 34.5537 81.3125 34.5537 80.1152C34.5537 78.9331 35.6045 77.8823 36.7715 77.8823C37.9839 77.8823 39.0347 78.8843 39.0347 80.1152C39.0347 81.2822 37.9839 82.2993 36.7715 82.2993ZM37.002 82.899C35.8047 82.899 34.8701 81.9307 34.8701 80.7486C34.8701 79.5513 35.8687 78.5005 37.002 78.5005C38.2666 78.5005 39.2349 79.5362 39.2349 80.7486C39.2349 81.8819 38.1841 82.899 37.002 82.899Z" fill="#000000" fill-opacity="0.85"/>
 </g>
</svg>
