<?xml version="1.0" encoding="UTF-8"?>
<!--Generator: Apple Native CoreSVG 232.5-->
<!DOCTYPE svg
PUBLIC "-//W3C//DTD SVG 1.1//EN"
       "http://www.w3.org/Graphics/SVG/1.1/DTD/svg11.dtd">
<svg version="1.1" xmlns="http://www.w3.org/2000/svg" xmlns:xlink="http://www.w3.org/1999/xlink" width="125.664" height="107.338">
 <g>
  <rect height="107.338" opacity="0" width="125.664" x="0" y="0"/>
  <path d="M107.651 4.1626L108.383 16.2231C108.466 17.0601 108.117 17.5064 107.171 18.1445C105.954 18.9224 105.698 19.5689 105.698 21.6431L105.698 50.7847C113.447 51.7007 118.028 55.7368 118.028 61.9116C118.028 65.7827 116.582 68.7461 116.582 72.1992C116.582 76.644 123.14 79.3008 123.14 88.9961C123.14 98.5552 115.007 104.57 102.113 104.57C94.5057 104.57 88.556 102.477 84.975 98.7841C85.9452 97.531 86.7438 96.1438 87.3622 94.6412C89.8754 98.1011 94.9964 100.066 102.113 100.066C112.488 100.066 118.637 95.8892 118.637 88.9961C118.637 81.044 112.06 77.9829 112.06 72.1016C112.06 68.6987 113.525 65.1309 113.525 61.9116C113.525 56.751 108.874 54.9429 102.113 54.9429C95.3662 54.9429 90.7006 56.751 90.7006 61.9116C90.7006 65.1309 92.1655 68.6987 92.1655 72.1016C92.1655 75.3027 90.2216 77.6684 88.451 80.4451C88.0192 78.3522 87.3741 76.6412 86.674 75.2346C87.2601 74.244 87.6435 73.2739 87.6435 72.1992C87.6435 68.7461 86.2123 65.7827 86.2123 61.9116C86.2123 55.7368 90.7636 51.7007 98.4789 50.7847L98.4789 21.6431C98.4789 19.6025 98.2231 18.9561 97.0395 18.1445C96.1083 17.5064 95.7597 17.0601 95.8422 16.2231L96.5595 4.1626C96.6235 3.23975 97.2836 2.57959 98.06 2.57959L106.117 2.57959C106.927 2.57959 107.587 3.23975 107.651 4.1626ZM110.096 87.8057C110.096 88.811 109.255 89.5874 108.28 89.5874L95.8779 89.5874C94.8876 89.5874 94.0473 88.811 94.0473 87.8057C94.0473 86.8003 94.9213 85.9414 95.8779 85.9414L108.28 85.9414C109.255 85.9414 110.096 86.7666 110.096 87.8057ZM107.205 70.7832C107.205 73.5732 104.936 75.8901 102.113 75.8901C99.2553 75.8901 96.9721 73.5732 96.9721 70.7832C96.9721 67.9595 99.289 65.6577 102.113 65.6577C104.936 65.6577 107.205 67.9595 107.205 70.7832Z" fill="#000000" fill-opacity="0.85"/>
  <path d="M67.3237 3.28516L71.5043 6.9624C72.1796 7.55518 72.5214 8.32813 72.4574 9.21045L71.496 19.1714C71.331 20.564 71.0195 21.1079 70.0175 21.4194C69.1 21.7241 69.0698 21.958 69.0698 23.4497L69.0361 52.8145C69.0361 55.0488 69.3559 57.7231 70.7377 57.7231C71.4447 57.7231 72.1991 56.7803 73.0629 55.4888C74.2162 53.5845 75.9692 51.5996 78.8183 51.5996C81.7182 51.5996 83.7778 53.8394 83.7778 57.0137C83.7778 61.688 80.4575 64.749 80.4575 68.7964C80.4575 72.2393 86.5121 76.0806 86.5121 86.1304C86.5121 97.4136 78.184 104.848 65.4208 104.848C61.5655 104.848 58.1122 104.166 55.1795 102.892C55.7794 101.437 55.9246 99.7399 55.5549 98.009C58.1816 99.4755 61.5181 100.262 65.4208 100.262C75.641 100.262 81.9599 94.8857 81.9599 86.1304C81.9599 77.04 75.9692 74.1104 75.9692 68.7695C75.9692 63.8613 79.308 60.9316 79.308 56.98C79.308 56.48 78.9662 56.0776 78.5185 56.0776C76.2455 56.0776 75.2402 62.0615 70.6215 62.0615C68.3031 62.0615 66.3066 60.2925 65.8129 56.4365L65.059 56.4365C64.599 60.2588 62.6362 62.0615 60.3178 62.0615C55.6166 62.0615 54.6113 56.0776 52.3232 56.0776C51.8906 56.0776 51.5336 56.48 51.5336 56.98C51.5336 60.9316 54.8876 63.8613 54.8876 68.7695C54.8876 73.4291 50.3162 76.2534 49.1519 82.937L46.4386 76.7727C48.1858 73.1054 50.3993 70.8781 50.3993 68.7964C50.3993 64.749 47.079 61.688 47.079 57.0137C47.079 53.8394 49.1235 51.5996 52.0234 51.5996C54.8876 51.5996 56.6254 53.5845 57.8276 55.4888C58.6576 56.7803 59.412 57.7231 60.1679 57.7231C61.516 57.7231 61.8696 54.9629 61.8696 52.8145L61.8022 23.4497C61.8022 21.9766 61.6591 21.6416 60.8578 21.4194C59.871 21.1079 59.5072 20.5303 59.4096 19.1714L58.4482 9.21045C58.3505 8.36182 58.7446 7.52149 59.3676 6.9624L63.582 3.28516C64.0585 2.85742 64.7455 2.57959 65.4208 2.57959C66.1601 2.57959 66.8134 2.85742 67.3237 3.28516ZM61.2182 70.5776C62.1073 70.8589 62.5654 71.8945 62.2538 72.7837L58.0497 84.3252C57.7045 85.2144 56.7328 85.6758 55.8285 85.3457C54.9394 85.0493 54.4814 84.0137 54.7929 83.1582L58.997 71.583C59.3422 70.6939 60.3139 70.2324 61.2182 70.5776ZM71.9086 71.583L76.1127 83.1582C76.4242 84.0137 75.9325 85.0493 75.0434 85.3457C74.1391 85.6758 73.1674 85.2144 72.8222 84.3252L68.6181 72.7837C68.3066 71.8945 68.7983 70.8589 69.6874 70.5776C70.5917 70.2324 71.5634 70.6939 71.9086 71.583Z" fill="#000000" fill-opacity="0.85"/>
  <path d="M3.15079 97.0337C1.55606 100.681 2.94864 104.731 7.45695 104.731C8.97941 104.731 10.3788 104.15 12.4452 102.448L26.3236 90.8877C27.0727 90.2818 27.5356 90.0293 27.8671 90.0293C28.2475 90.0293 28.6767 90.2818 29.4257 90.8877L43.3041 102.448C45.4042 104.15 46.7699 104.731 48.3261 104.731C52.7856 104.731 54.227 100.681 52.5986 97.0337L31.5497 49.0937L31.5497 25.6958C31.5497 14.5479 33.4052 6.23194 33.4052 4.68457C33.4052 3.38623 32.6322 2.57959 31.3827 2.57959C30.5609 2.57959 29.8554 3.07129 28.665 4.35938L17.8891 16.7129C17.0336 17.6997 17.2172 18.8735 18.3202 19.4023C22.5985 21.3252 24.2821 22.0474 24.2821 25.6958L24.2821 48.9321ZM7.21476 98.7295L27.2411 52.6274L28.5082 52.6274L48.5531 98.7295C49.1205 100.026 48.0229 100.615 47.1254 99.8794L31.8442 87.1489C30.3271 85.9097 29.0878 85.2598 27.8671 85.2598C26.6952 85.2598 25.456 85.9097 23.9052 87.1489L8.62394 99.8794C7.76017 100.615 6.64738 100.026 7.21476 98.7295ZM33.4784 76.7178C34.642 76.7178 35.6254 75.7529 35.6254 74.6196C35.6254 73.4072 34.6908 72.4204 33.4784 72.4204C32.3451 72.4204 31.3617 73.4712 31.3617 74.6196C31.3617 75.7495 32.33 76.7178 33.4784 76.7178ZM35.9906 82.7036C37.1693 82.7036 38.1864 81.7202 38.1864 80.5718C38.1864 79.3745 37.1693 78.4063 35.9906 78.4063C34.8573 78.4063 33.8402 79.4233 33.8402 80.5718C33.8402 81.7354 34.8573 82.7036 35.9906 82.7036ZM38.4355 88.6558C39.6479 88.6558 40.665 87.6387 40.665 86.5391C40.665 85.3604 39.6816 84.3433 38.4355 84.3433C37.3998 84.3433 36.3861 85.3755 36.3861 86.5391C36.3861 87.6724 37.3022 88.6558 38.4355 88.6558Z" fill="#000000" fill-opacity="0.85"/>
 </g>
</svg>
