<?xml version="1.0" encoding="UTF-8"?>
<!--Generator: Apple Native CoreSVG 232.5-->
<!DOCTYPE svg
PUBLIC "-//W3C//DTD SVG 1.1//EN"
       "http://www.w3.org/Graphics/SVG/1.1/DTD/svg11.dtd">
<svg version="1.1" xmlns="http://www.w3.org/2000/svg" xmlns:xlink="http://www.w3.org/1999/xlink" width="101.504" height="99.2744">
 <g>
  <rect height="99.2744" opacity="0" width="101.504" x="0" y="0"/>
  <path d="M101.504 35.6924L101.504 85.0005C101.504 94.4385 96.668 99.2744 87.1441 99.2744L38.0903 99.2744C28.5513 99.2744 23.6816 94.3931 23.6816 85.0005L23.6816 77.9839L29.7266 77.9839L29.7266 84.667C29.7266 90.3052 32.8276 93.2295 38.188 93.2295L86.9976 93.2295C92.501 93.2295 95.459 90.3052 95.459 84.667L95.459 36.0259C95.459 30.3726 92.501 27.4483 86.9976 27.4483L77.8223 27.4483L77.8223 21.4185L87.144 21.4185C96.668 21.4185 101.504 26.2207 101.504 35.6924Z" fill="#000000" fill-opacity="0.85"/>
  <path d="M63.4473 0.127929L14.3936 0.127929C4.86963 0.127929 0 5.00928 0 14.4019L0 63.71C0 73.1177 4.86963 77.9839 14.3936 77.9839L63.4473 77.9839C72.9863 77.9839 77.8223 73.148 77.8223 63.71L77.8223 14.4019C77.8223 4.96387 72.9863 0.127929 63.4473 0.127929ZM63.3159 6.17287C68.8193 6.17287 71.7773 9.09718 71.7773 14.7354L71.7773 63.3765C71.7773 69.0298 68.8193 71.9541 63.3159 71.9541L14.5064 71.9541C9.14601 71.9541 6.04494 69.0298 6.04494 63.3765L6.04494 14.7354C6.04494 9.09718 9.14601 6.17287 14.5064 6.17287Z" fill="#000000" fill-opacity="0.85"/>
  <path d="M23.7515 61.2603C25.6817 61.2603 26.7798 60.0308 26.7798 57.9438L26.7798 40.4531L50.9937 40.4531L50.9937 57.9438C50.9937 60.0122 52.1558 61.2603 53.9883 61.2603C55.937 61.2603 57.0503 60.0308 57.0503 57.9438L57.0503 19.6035C57.0503 17.52 55.937 16.3208 53.9883 16.3208C52.1558 16.3208 50.9937 17.5537 50.9937 19.6035L50.9937 35.5942L26.7798 35.5942L26.7798 19.6035C26.7798 17.52 25.6817 16.3208 23.7515 16.3208C21.8853 16.3208 20.772 17.5537 20.772 19.6035L20.772 57.9438C20.772 60.0122 21.8853 61.2603 23.7515 61.2603Z" fill="#000000" fill-opacity="0.85"/>
 </g>
</svg>
