<?xml version="1.0" encoding="UTF-8"?>
<!--Generator: Apple Native CoreSVG 232.5-->
<!DOCTYPE svg
PUBLIC "-//W3C//DTD SVG 1.1//EN"
       "http://www.w3.org/Graphics/SVG/1.1/DTD/svg11.dtd">
<svg version="1.1" xmlns="http://www.w3.org/2000/svg" xmlns:xlink="http://www.w3.org/1999/xlink" width="97.9595" height="97.9932">
 <g>
  <rect height="97.9932" opacity="0" width="97.9595" x="0" y="0"/>
  <path d="M48.9722 97.9443C75.8247 97.9443 97.9595 75.7759 97.9595 48.9722C97.9595 22.1348 75.791 0 48.9385 0C22.1348 0 0 22.1348 0 48.9722C0 75.7759 22.1685 97.9443 48.9722 97.9443ZM48.9722 91.6113C25.3501 91.6113 6.36671 72.5942 6.36671 48.9722C6.36671 25.3501 25.3164 6.31789 48.9385 6.31789C72.5605 6.31789 91.6265 25.3501 91.6265 48.9722C91.6265 72.5942 72.5942 91.6113 48.9722 91.6113Z" fill="#000000" fill-opacity="0.85"/>
  <path d="M27.0454 74.2564C29.1973 76.4082 31.4907 76.228 33.6543 73.8169L57.2656 47.2959L50.1636 40.2544L23.5483 63.6436C21.0396 65.8105 20.9233 68.0855 23.0752 70.2373ZM70.9746 53.3008C71.8638 54.1714 72.8203 54.2236 73.7246 53.353L81.2876 45.8237C82.1582 44.9868 82.1245 43.9629 81.269 43.0737L79.3564 41.1948C78.2739 40.1123 77.7217 39.981 76.4507 40.0786L74.1216 40.2808L71.9937 38.19L72.7026 34.9385C73.0967 33.2632 72.5679 31.751 70.9766 30.126L65.7002 24.9321C58.8711 18.167 46.5899 17.4497 39.875 24.2285C38.73 25.2944 38.8648 26.4546 39.5366 27.2881C40.1108 27.7949 40.9443 28.1182 41.7896 27.8218C46.5982 26.6514 50.7603 26.5132 54.397 28.9155L52.4507 33.7227C51.6997 35.6406 52.0752 37.0449 53.3179 38.3179L58.9463 43.9614C59.896 44.9111 60.8643 45.125 62.3511 44.8472L66.0874 44.0625L68.2002 46.2544L68.0132 48.5649C67.9458 49.8208 67.9829 50.4893 69.0469 51.4893Z" fill="#000000" fill-opacity="0.85"/>
 </g>
</svg>
