<?xml version="1.0" encoding="UTF-8"?>
<!--Generator: Apple Native CoreSVG 232.5-->
<!DOCTYPE svg
PUBLIC "-//W3C//DTD SVG 1.1//EN"
       "http://www.w3.org/Graphics/SVG/1.1/DTD/svg11.dtd">
<svg version="1.1" xmlns="http://www.w3.org/2000/svg" xmlns:xlink="http://www.w3.org/1999/xlink" width="85.6734" height="107.821">
 <g>
  <rect height="107.821" opacity="0" width="85.6734" x="0" y="0"/>
  <path d="M41.8359 103.726C58.2783 103.726 69.979 94.8115 76.0493 77.6514L84.8701 52.7398C85.4107 51.2461 85.6734 49.771 85.6734 48.4273C85.6734 43.6753 82.1001 40.2891 77.4072 40.2891C74.25 40.2891 71.3438 42.2305 69.7593 46.0122L65.6167 56.3525C65.5039 56.5781 65.3423 56.7246 65.147 56.7246C64.9028 56.7246 64.8052 56.5293 64.8052 56.2851L64.8052 14.7183C64.8052 9.29297 61.4526 5.93701 56.4834 5.93701C54.4815 5.93701 52.6597 6.66943 51.3076 8.06006C50.8696 3.18213 47.8438 0 43.1611 0C38.5308 0 35.3164 3.31006 34.811 7.99268C33.5601 6.63574 31.772 5.93701 29.9233 5.93701C25.2236 5.93701 22.0059 9.25928 22.0059 14.4976L22.0059 20.4624C20.6875 19.0195 18.7007 18.3022 16.6802 18.3022C11.9653 18.3022 8.67675 21.7256 8.67675 27.0161L8.67675 68.4297C8.67675 91.0391 22.3774 103.726 41.8359 103.726ZM41.6826 98.4707C24.8516 98.4707 13.7749 87.792 13.7749 67.9209L13.7749 27.4727C13.7749 24.9644 15.1992 23.2759 17.5679 23.2759C19.9028 23.2759 21.5493 24.9644 21.5493 27.4727L21.5493 51.9849C21.5493 53.625 22.7266 54.5733 23.9712 54.5733C25.2983 54.5733 26.4941 53.625 26.4941 51.9849L26.4941 15.0737C26.4941 12.5654 27.9185 10.8584 30.2534 10.8584C32.6221 10.8584 34.2349 12.5654 34.2349 15.0737L34.2349 49.4946C34.2349 51.1348 35.4121 52.083 36.6904 52.083C38.0176 52.083 39.1797 51.1348 39.1797 49.4946L39.1797 9.26124C39.1797 6.75294 40.7925 4.9214 43.1611 4.9214C45.4019 4.9214 46.9541 6.75294 46.9541 9.26124L46.9541 49.5098C46.9541 50.9463 47.958 52.083 49.4097 52.083C50.7974 52.083 51.8838 50.9463 51.8838 49.5098L51.8838 15.0737C51.8838 12.5654 53.4966 10.8584 55.8467 10.8584C58.1816 10.8584 59.6582 12.5654 59.6582 15.0737L59.6582 62.6211C59.6582 64.8203 61.0288 66.0698 62.8828 66.0698C64.4893 66.0698 65.8027 65.3491 66.729 63.2407L73.4424 47.688C74.4761 45.2251 76.4795 44.2959 78.4912 45.0366C80.668 45.7959 81.3296 47.9053 80.3599 50.54L71.3335 75.9756C65.7852 91.5816 55.3813 98.4707 41.6826 98.4707Z" fill="#000000" fill-opacity="0.85"/>
 </g>
</svg>
