<?xml version="1.0" encoding="UTF-8"?>
<!--Generator: Apple Native CoreSVG 232.5-->
<!DOCTYPE svg
PUBLIC "-//W3C//DTD SVG 1.1//EN"
       "http://www.w3.org/Graphics/SVG/1.1/DTD/svg11.dtd">
<svg version="1.1" xmlns="http://www.w3.org/2000/svg" xmlns:xlink="http://www.w3.org/1999/xlink" width="97.9595" height="97.9932">
 <g>
  <rect height="97.9932" opacity="0" width="97.9595" x="0" y="0"/>
  <path d="M48.9722 97.9443C75.8247 97.9443 97.9595 75.7759 97.9595 48.9722C97.9595 22.1348 75.791 0 48.9385 0C22.1348 0 0 22.1348 0 48.9722C0 75.7759 22.1685 97.9443 48.9722 97.9443ZM48.9722 91.6113C25.3501 91.6113 6.36671 72.5942 6.36671 48.9722C6.36671 25.3501 25.3164 6.31789 48.9385 6.31789C72.5605 6.31789 91.6265 25.3501 91.6265 48.9722C91.6265 72.5942 72.5942 91.6113 48.9722 91.6113Z" fill="#000000" fill-opacity="0.85"/>
  <path d="M21.0542 56.9546C21.0542 64.9102 25.8545 71.5439 32.458 71.5439L37.7578 71.5439C32.7271 68.1074 30.5249 62.8374 30.6074 56.6953C30.7202 49.7822 33.3047 45.2647 35.46 42.3384L31.4849 42.3384C25.4976 42.3384 21.0542 48.7769 21.0542 56.9546ZM33.669 56.7441C33.5679 66.5181 41.3921 73.918 53.8027 73.9819L57.4614 74.0156C60.8911 74.0645 63.4453 73.8203 64.8916 73.4482C66.9912 72.8926 69.0723 71.6753 69.0723 69.106C69.0723 68.1631 68.7642 67.2993 68.4409 66.7959C68.2456 66.439 68.2759 66.1611 68.6025 65.9995C70.2105 65.353 71.6113 63.7871 71.6113 61.6909C71.6113 60.4854 71.2847 59.396 70.6499 58.6821C70.3418 58.2764 70.4058 57.8823 70.8604 57.6231C72.1299 56.9058 72.9111 55.4443 72.9111 53.6563C72.9111 52.4692 72.5542 51.1021 71.8218 50.4673C71.416 50.0767 71.4951 49.8511 71.9683 49.4605C72.7495 48.7432 73.2681 47.5225 73.2681 46.0459C73.2681 43.4243 71.2847 41.2944 68.6514 41.2944L59.2681 41.2944C56.8418 41.2944 55.2676 40.0923 55.2676 38.0903C55.2676 34.5293 59.7378 27.9595 59.7378 23.2603C59.7378 20.8037 58.1113 19.3574 56.0454 19.3574C54.126 19.3574 53.1831 20.6421 52.1763 22.6592C48.2061 30.3823 42.8569 36.6289 38.8565 42.0454C35.4268 46.5645 33.7363 50.4673 33.669 56.7441Z" fill="#000000" fill-opacity="0.85"/>
 </g>
</svg>
