<?xml version="1.0" encoding="UTF-8"?>
<!--Generator: Apple Native CoreSVG 232.5-->
<!DOCTYPE svg
PUBLIC "-//W3C//DTD SVG 1.1//EN"
       "http://www.w3.org/Graphics/SVG/1.1/DTD/svg11.dtd">
<svg version="1.1" xmlns="http://www.w3.org/2000/svg" xmlns:xlink="http://www.w3.org/1999/xlink" width="87.8433" height="107.821">
 <g>
  <rect height="107.821" opacity="0" width="87.8433" x="0" y="0"/>
  <path d="M42.9209 103.726C59.3633 103.726 70.2856 94.4898 77.1343 77.6514L87.0215 52.8071C89.1685 47.5537 86.833 43.1958 83.1992 41.4024C79.542 39.646 74.6235 40.5264 71.8096 45.6904L66.7017 56.3525C66.5552 56.5781 66.4273 56.7246 66.2319 56.7246C65.9878 56.7246 65.7925 56.5141 65.8901 56.1758L71.9351 16.5708C72.8428 10.9854 69.9634 6.94922 65.0347 6.10889C59.7573 5.29883 55.6738 8.04492 54.6196 13.8174L52.5493 26.6157L53.0142 26.6157L53.0142 9.13672C53.0142 3.78369 49.3584 0 44.2461 0C38.8745 0 35.2744 3.88477 35.2744 9.37257L35.2744 19.8154L36.147 19.6621L35.228 12.3047C34.1299 7.25146 30.0312 4.72949 25.4648 5.51416C20.1641 6.3999 17.4648 10.7578 18.1333 15.9644L19.2427 24.9561L20.6255 24.6714C19.1167 19.2583 15.3144 17.4131 10.8945 18.1675C5.56492 19.0566 2.92479 22.9683 3.69774 28.3989L9.6621 70.6821C12.6172 91.8545 23.4624 103.726 42.9209 103.726ZM42.7676 98.4707C25.9365 98.4707 17.4224 88.6074 14.7939 70.1734L8.50439 27.582C8.18114 25.2471 9.45556 23.4541 11.708 23.082C13.7534 22.7739 15.4707 24.2183 15.9555 26.2217L22.7178 52.4629C23.1152 53.9854 24.3076 54.5513 25.5185 54.3037C26.8003 54.0899 27.6963 52.958 27.5312 51.6157L23.0444 15.1812C22.7246 12.73 23.8677 10.8496 26.2632 10.4775C28.5376 10.1206 30.3154 11.6323 30.6235 13.9185L35.3081 50.1631C35.458 51.4683 36.6016 52.312 37.9927 52.1133C39.623 51.8472 40.2192 50.7896 40.2192 49.4858L40.2192 9.13672C40.2192 6.75294 41.8774 5.04591 44.2461 5.04591C46.4868 5.04591 48.0693 6.75294 48.0693 9.13672L48.0693 49.6831C48.0693 51.0557 49.1826 52.083 50.4912 52.083C51.8486 52.1133 52.7935 51.2359 53.0259 49.833L59.3994 14.6343C59.8691 11.9878 61.7261 10.6631 63.9297 11.02C66.1064 11.313 67.396 13.2271 67.0542 15.7539L60.5898 61.124C60.0459 64.8203 62.1138 66.0698 63.9678 66.0698C65.5742 66.0698 66.7192 65.2818 67.814 63.2407L75.6275 47.8565C76.7285 45.4795 78.7505 44.6851 80.6426 45.4258C82.6509 46.1177 83.5147 48.1934 82.5112 50.7085L72.4185 75.9756C66.1929 91.2598 56.4663 98.4707 42.7676 98.4707Z" fill="#000000" fill-opacity="0.85"/>
 </g>
</svg>
