<?xml version="1.0" encoding="UTF-8"?>
<!--Generator: Apple Native CoreSVG 232.5-->
<!DOCTYPE svg
PUBLIC "-//W3C//DTD SVG 1.1//EN"
       "http://www.w3.org/Graphics/SVG/1.1/DTD/svg11.dtd">
<svg version="1.1" xmlns="http://www.w3.org/2000/svg" xmlns:xlink="http://www.w3.org/1999/xlink" width="81.0982" height="105.803">
 <g>
  <rect height="105.803" opacity="0" width="81.0982" x="0" y="0"/>
  <path d="M38.2879 102.563C53.6638 102.563 64.0095 95.5542 70.1521 80.2769C73.3484 72.8838 75.9417 64.5254 78.6394 55.2539C79.576 52.1363 80.826 48.4102 80.826 46.6416C80.826 44.126 78.9485 42.5347 76.4412 42.5347C73.846 42.5347 72.1302 44.0942 70.3045 47.9004L63.8235 62.5366C63.0305 64.4019 62.0525 64.9727 61.1048 64.9727C59.9163 64.9727 58.7312 64.2354 58.9905 62.1934L64.596 12.9004C64.9226 9.87451 62.929 8.14013 60.6878 7.7124C58.2815 7.28466 55.6092 8.49365 55.1175 11.4253L49.2644 47.8057C47.8553 47.2114 46.2845 46.7603 44.6463 46.4219L44.6463 4.6543C44.6463 2.05274 42.4539 0 39.8001 0C37.1311 0 34.9539 2.05274 34.9539 4.6543L34.9539 45.8545C33.1795 45.9673 31.4051 46.2114 29.7249 46.501L25.0891 9.8335C24.6951 6.67285 22.1389 5.44873 19.699 5.82764C17.3753 6.14258 15.198 8.06055 15.5432 11.1016L20.0325 49.6245C18.2244 50.4663 16.7024 51.3872 15.305 52.3418L9.43679 23.2827C8.81375 20.2651 6.30642 19.1353 3.98269 19.4956C1.72292 19.8745-0.371807 21.7925 0.055928 24.8892L5.61257 68.8911C8.33523 90.4932 19.6599 102.563 38.2879 102.563Z" fill="#000000" fill-opacity="0.85"/>
 </g>
</svg>
