<?xml version="1.0" encoding="UTF-8"?>
<!--Generator: Apple Native CoreSVG 232.5-->
<!DOCTYPE svg
PUBLIC "-//W3C//DTD SVG 1.1//EN"
       "http://www.w3.org/Graphics/SVG/1.1/DTD/svg11.dtd">
<svg version="1.1" xmlns="http://www.w3.org/2000/svg" xmlns:xlink="http://www.w3.org/1999/xlink" width="82.6436" height="93.1331">
 <g>
  <rect height="93.1331" opacity="0" width="82.6436" x="0" y="0"/>
  <path d="M60.7273 90.7428C79.0071 84.1051 87.5164 67.4972 79.7947 46.2399L76.4085 36.8961C72.5662 26.3307 65.7298 22.0909 57.4876 24.9786C55.3138 22.0758 51.889 21.0201 48.1409 22.357C46.7249 22.8942 45.4588 23.6568 44.2264 24.6114C41.948 21.5401 38.2723 20.3834 34.4046 21.7692C33.2547 22.1901 32.1233 22.8517 31.0559 23.6412L25.2776 7.83166C23.3294 2.44493 18.4495 0.306259 13.635 2.04747C8.71121 3.83751 6.39089 8.57775 8.33914 13.9796L22.906 54.0167C23.0037 54.2457 22.9549 54.4562 22.7107 54.5538C22.5491 54.6363 22.3538 54.5538 22.177 54.3771L14.6932 46.0685C11.9519 43.0865 8.6702 42.2345 5.62576 43.3155C1.45486 44.8546-1.18381 48.9059 0.550565 53.5719C0.974882 54.8214 1.83035 56.3336 2.81717 57.568L19.6438 77.964C31.1951 91.9821 45.2127 96.3937 60.7273 90.7428ZM59.0818 85.7994C46.2283 90.5021 34.035 87.5192 23.4973 74.7438L6.68583 54.4C6.16727 53.7687 5.7952 53.1862 5.47196 52.2955C4.81034 50.506 5.66044 48.4723 7.71268 47.713C9.366 47.1456 10.844 47.777 12.2952 49.3224L23.5022 61.2194C25.0701 62.9 26.5638 63.1105 28.0389 62.57C29.8103 61.9469 30.6219 60.1534 29.9012 58.2052L13.0701 11.9484C12.2015 9.60168 13.1258 7.45861 15.3142 6.65393C17.5213 5.86438 19.491 6.97375 20.3596 9.30529L32.2893 42.0905C32.7845 43.4293 34.1824 44.1315 35.5213 43.6364C36.8567 43.1412 37.4143 41.7198 36.9529 40.4147L32.5667 28.4161C33.4017 27.6754 34.4808 26.9801 35.4842 26.608C38.097 25.6569 40.2434 26.8033 41.2737 29.6349L44.8772 39.4806C45.4026 41.0045 46.8308 41.4879 48.0906 41.0231C49.2864 40.5919 50.0813 39.3287 49.5071 37.7711L46.303 29.0192C47.138 28.2784 48.2171 27.568 49.2205 27.2111C51.8333 26.2599 53.9798 27.4064 55.01 30.2379L57.4314 36.8673C58.0057 38.4098 59.4187 38.9083 60.6785 38.4435C61.8743 38.0123 62.6355 36.7003 62.095 35.1915L60.0208 29.5851C64.743 27.8781 68.9334 31.3043 71.7972 39.2491L74.8279 47.5079C81.6233 66.192 74.9178 80.0426 59.0818 85.7994Z" fill="#000000" fill-opacity="0.85"/>
 </g>
</svg>
