<?xml version="1.0" encoding="UTF-8"?>
<!--Generator: Apple Native CoreSVG 232.5-->
<!DOCTYPE svg
PUBLIC "-//W3C//DTD SVG 1.1//EN"
       "http://www.w3.org/Graphics/SVG/1.1/DTD/svg11.dtd">
<svg version="1.1" xmlns="http://www.w3.org/2000/svg" xmlns:xlink="http://www.w3.org/1999/xlink" width="97.9595" height="97.9932">
 <g>
  <rect height="97.9932" opacity="0" width="97.9595" x="0" y="0"/>
  <path d="M97.9595 48.9722C97.9595 75.7759 75.8247 97.9443 48.9722 97.9443C22.1685 97.9443 0 75.7759 0 48.9722C0 22.1348 22.1348 0 48.9385 0C75.791 0 97.9595 22.1348 97.9595 48.9722ZM52.2959 22.2144C48.2734 30.0908 42.8232 36.521 38.7217 42.0234C35.2246 46.6436 33.5156 50.5801 33.4482 57.0103C33.3472 66.9712 41.3247 74.5059 53.9712 74.6035L57.731 74.6372C61.2129 74.6675 63.8008 74.4082 65.2656 74.0361C67.4478 73.4805 69.5474 72.2295 69.5474 69.6416C69.5474 68.6499 69.2544 67.8013 68.9312 67.249C68.7358 66.8735 68.751 66.5957 69.0928 66.4678C70.7192 65.7876 72.1538 64.2217 72.1538 62.0581C72.1538 60.8525 71.7935 59.7295 71.1587 58.9819C70.8657 58.5425 70.9146 58.1821 71.3691 57.9229C72.6724 57.1719 73.4688 55.7105 73.4688 53.8701C73.4688 52.6343 73.1118 51.2334 72.3643 50.5801C71.9399 50.2232 72.0376 49.9487 72.5107 49.6069C73.3071 48.856 73.8442 47.5527 73.8442 46.0913C73.8442 43.436 71.7935 41.2725 69.1416 41.2725L59.5713 41.2725C57.0625 41.2725 55.4546 40.0029 55.4546 37.9824C55.4546 34.3052 60.0259 27.6006 60.0259 22.8491C60.0259 20.3589 58.3809 18.8452 56.2661 18.8452C54.3281 18.8452 53.3364 20.1636 52.2959 22.2144ZM31.1968 42.2827C25.0747 42.2827 20.5454 48.8897 20.5454 57.2207C20.5454 65.3447 25.4316 72.1318 32.2036 72.1318L37.5557 72.1318C32.439 68.5942 30.2031 63.2383 30.2856 56.9614C30.3984 49.9287 33.0352 45.3101 35.2393 42.2827Z" fill="#000000" fill-opacity="0.85"/>
 </g>
</svg>
