<?xml version="1.0" encoding="UTF-8"?>
<!--Generator: Apple Native CoreSVG 232.5-->
<!DOCTYPE svg
PUBLIC "-//W3C//DTD SVG 1.1//EN"
       "http://www.w3.org/Graphics/SVG/1.1/DTD/svg11.dtd">
<svg version="1.1" xmlns="http://www.w3.org/2000/svg" xmlns:xlink="http://www.w3.org/1999/xlink" width="115.119" height="104.484">
 <g>
  <rect height="104.484" opacity="0" width="115.119" x="0" y="0"/>
  <path d="M29.8482 21.6168L30.1826 22.532C16.6389 31.804 10.7434 45.4984 10.5123 60.8712C10.4786 62.296 9.51524 63.3419 8.1544 63.3756C6.84238 63.4093 5.66513 62.1681 5.66513 60.7736C5.66513 43.2327 13.1662 27.2151 28.8837 17.3694C28.9983 18.7535 29.3192 20.1777 29.8482 21.6168Z" fill="#000000" fill-opacity="0.85"/>
  <path d="M87.5817 96.4181C105.846 89.7804 114.371 73.1725 106.634 51.9151L103.229 42.5714C99.4054 32.006 92.569 27.7662 84.3419 30.6539C82.1681 27.7511 78.7433 26.6954 74.9952 28.0323C73.5792 28.5694 72.2794 29.3321 71.0807 30.2867C68.8024 27.2154 65.1266 26.025 61.2589 27.4444C60.109 27.8653 58.9625 28.527 57.8951 29.3165L52.132 13.5069C50.1837 8.12022 45.2887 5.98155 40.4742 7.72276C35.5504 9.5128 33.2452 14.253 35.1935 19.6549L49.7604 59.692C49.8429 59.921 49.7941 60.1314 49.565 60.2291C49.3697 60.2779 49.193 60.2291 49.0314 60.0187L41.5138 51.7438C38.7726 48.7618 35.5094 47.9098 32.465 48.9908C28.3092 50.5299 25.6554 54.5812 27.3561 59.2472C27.8292 60.4967 28.6847 62.0089 29.6564 63.2433L46.4982 83.6056C58.0494 97.6574 72.067 102.069 87.5817 96.4181ZM85.9362 91.4747C73.0675 96.1774 60.8893 93.1945 50.3517 80.4191L33.5402 60.0753C33.0216 59.444 32.6344 58.8614 32.3263 57.9708C31.6647 56.1813 32.4996 54.1476 34.567 53.3883C36.2203 52.8209 37.6984 53.4523 39.1495 54.9977L50.3229 66.8946C51.9244 68.5753 53.4181 68.7858 54.8932 68.2452C56.6647 67.6222 57.4611 65.8287 56.7404 63.8805L39.9244 17.6236C39.0558 15.277 39.9801 13.1339 42.1534 12.3292C44.3756 11.5397 46.3453 12.649 47.214 14.9806L59.1437 47.7657C59.6237 49.1046 61.0367 49.8068 62.3756 49.3116C63.7111 48.8165 64.2687 47.3951 63.7736 46.09L59.421 34.0914C60.256 33.3507 61.3199 32.6554 62.3385 32.2833C64.9513 31.3321 67.0978 32.4786 68.128 35.3102L71.7164 45.1222C72.257 46.6798 73.6852 47.1632 74.9298 46.6984C76.1256 46.2672 76.9205 45.004 76.3615 43.4464L73.1574 34.6944C73.9923 33.9537 75.0563 33.2433 76.0748 32.8863C78.6876 31.9352 80.8341 33.0817 81.8644 35.9132L84.2706 42.5426C84.8448 44.0851 86.2731 44.5836 87.5177 44.1188C88.7286 43.6876 89.4747 42.3756 88.9494 40.8668L86.8751 35.2604C91.5973 33.5533 95.7877 36.9796 98.6515 44.9244L101.682 53.1832C108.463 71.8673 101.738 85.7179 85.9362 91.4747Z" fill="#000000" fill-opacity="0.85"/>
 </g>
</svg>
