<?xml version="1.0" encoding="UTF-8"?>
<!--Generator: Apple Native CoreSVG 232.5-->
<!DOCTYPE svg
PUBLIC "-//W3C//DTD SVG 1.1//EN"
       "http://www.w3.org/Graphics/SVG/1.1/DTD/svg11.dtd">
<svg version="1.1" xmlns="http://www.w3.org/2000/svg" xmlns:xlink="http://www.w3.org/1999/xlink" width="126.23" height="100.189">
 <g>
  <rect height="100.189" opacity="0" width="126.23" x="0" y="0"/>
  <path d="M40.2267 38.349C40.2267 39.7924 39.0948 40.9242 37.6363 40.9242L11.9908 40.9242C10.5137 40.9242 9.36677 39.7924 9.36677 38.349C9.36677 36.8569 10.5137 35.725 11.9908 35.725L37.6363 35.725C39.0948 35.725 40.2267 36.8569 40.2267 38.349Z" fill="#000000" fill-opacity="0.85"/>
  <path d="M45.6972 23.2914L11.9908 23.2914C10.5137 23.2914 9.36677 22.1596 9.36677 20.7162C9.36677 19.2729 10.5137 18.0922 11.9908 18.0922L43.8049 18.0922Z" fill="#000000" fill-opacity="0.85"/>
  <path d="M49.3892 0.696686C46.6885 1.66685 44.6263 3.45137 43.3918 5.70744L11.9908 5.70744C10.5137 5.70744 9.36677 4.52677 9.36677 3.08341C9.36677 1.64005 10.5137 0.508211 11.9908 0.508211L49.989 0.508211Z" fill="#000000" fill-opacity="0.85"/>
  <path d="M99.1915 91.3539C118.69 84.2299 125.149 68.7216 117.339 47.2812L114.378 39.079C111.444 31.1132 105.844 27.6581 101.45 29.2695C100.44 29.6112 100.098 30.3437 100.44 31.2714L101.946 35.435C102.524 36.9877 102.029 38.0907 101.057 38.4208C100.067 38.7997 98.9791 38.2743 98.4166 36.7367L97.3829 33.9252C95.6402 29.1889 91.4899 27.1869 87.3883 28.6518C85.5177 29.3354 84.9469 30.4096 85.5328 31.9721L87.5768 37.5668C88.1056 39.1044 87.6105 40.1738 86.6876 40.5375C85.6637 40.9164 84.5758 40.391 83.9981 38.8534L82.1495 33.6982C80.1964 28.3759 76.1773 26.9599 72.1886 28.4247C70.4308 29.0595 69.796 30.2314 70.3331 31.745L74.2325 42.4179C74.795 43.9555 74.2813 45.0585 73.3434 45.4037C72.3194 45.7675 71.2315 45.2421 70.669 43.7045L58.3102 9.70744C57.0894 6.3383 54.1681 4.96769 51.2872 5.99308C48.3018 7.08585 46.9381 10.0038 48.1588 13.4067L65.8507 61.9916C66.2599 63.1552 65.7228 64.0561 64.9566 64.3491C64.2359 64.5781 63.4513 64.3945 62.5504 63.4448L50.1832 50.3163C48.2638 48.3144 46.3595 47.9203 44.4298 48.6074C41.2745 49.7455 40.2203 52.5507 41.1632 55.2177C41.5235 56.1674 42.0304 56.9335 42.5641 57.6474L58.3033 77.52C70.3751 92.7607 85.0426 96.4946 99.1915 91.3539Z" fill="#000000" fill-opacity="0.85"/>
 </g>
</svg>
