<?xml version="1.0" encoding="UTF-8"?>
<!--Generator: Apple Native CoreSVG 232.5-->
<!DOCTYPE svg
PUBLIC "-//W3C//DTD SVG 1.1//EN"
       "http://www.w3.org/Graphics/SVG/1.1/DTD/svg11.dtd">
<svg version="1.1" xmlns="http://www.w3.org/2000/svg" xmlns:xlink="http://www.w3.org/1999/xlink" width="91.1426" height="92.5442">
 <g>
  <rect height="92.5442" opacity="0" width="91.1426" x="0" y="0"/>
  <path d="M80.6807 82.151C92.3242 70.4923 94.2622 55.9342 86.4272 39.4913L75.0625 15.6505C74.3721 14.1905 73.52 12.9933 72.5703 12.0436C69.2109 8.68418 64.2974 8.81895 60.9785 12.1227C58.7373 14.3639 58.0503 17.7921 59.6128 21.5587L63.9892 31.8385C64.0869 32.064 64.0718 32.2745 63.9404 32.4058C63.7451 32.5675 63.5346 32.5186 63.3545 32.357L33.9585 2.97617C30.1514-0.864651 25.4062-0.849515 21.897 2.64463C20.4809 4.02695 19.6997 5.84873 19.7417 7.77988C15.98 4.6583 11.6123 4.54404 8.28514 7.85606C5.00682 11.1495 5.07566 15.7545 8.01707 19.4186C6.1533 19.3429 4.4326 20.1241 3.11766 21.4391C-0.204612 24.7462-0.152365 29.3717 3.53514 33.0441L7.77097 37.295C5.80613 37.1857 3.93211 38.0646 2.4824 39.5143C-0.858424 42.8551-0.738795 47.6188 2.9824 51.3248L32.2763 80.6339C48.272 96.6144 66.9136 95.903 80.6807 82.151ZM76.854 78.545C64.9497 90.4342 49.5722 90.7398 35.5234 76.6422L6.92528 48.0592C5.13915 46.2916 4.96923 44.0626 6.62743 42.4044C8.28563 40.7462 10.6391 40.7916 12.3916 42.5592L29.7646 59.8834C30.9131 61.0319 32.3901 60.9005 33.2861 60.0045C34.2495 59.0597 34.3808 57.5641 33.2173 56.4156L7.13768 30.2872C5.37011 28.5348 5.16649 26.3243 6.8247 24.6813C8.4829 22.9894 10.8701 23.0348 12.6225 24.7872L36.9595 49.1578C38.1079 50.3063 39.6338 50.1412 40.5146 49.2452C41.4595 48.3155 41.6094 46.8048 40.4609 45.6564L12.0088 17.2042C10.2412 15.4366 10.0679 13.0226 11.7598 11.3644C13.3389 9.76671 15.7412 9.93663 17.5088 11.7042L45.9761 40.1715C46.9512 41.1954 48.4922 41.2828 49.4824 40.2775C50.5063 39.2687 50.4526 37.694 49.4775 36.7037L25.0918 12.3331C23.3393 10.5655 23.2602 8.24571 24.9033 6.55382C26.5952 4.89562 28.8393 5.06554 30.5918 6.83311L64.2129 40.4542C65.7705 42.0304 67.6396 41.921 68.9346 40.6261C70.0493 39.5113 70.4956 38.0514 69.6401 35.9059L63.4004 20.1778C62.3887 17.6627 63.1548 15.6173 65.1025 14.6998C67.2002 13.7335 69.1328 14.7638 70.3281 17.3009L81.9287 41.6354C89.043 56.6217 86.5185 68.8316 76.854 78.545Z" fill="#000000" fill-opacity="0.85"/>
 </g>
</svg>
