<?xml version="1.0" encoding="UTF-8"?>
<!--Generator: Apple Native CoreSVG 232.5-->
<!DOCTYPE svg
PUBLIC "-//W3C//DTD SVG 1.1//EN"
       "http://www.w3.org/Graphics/SVG/1.1/DTD/svg11.dtd">
<svg version="1.1" xmlns="http://www.w3.org/2000/svg" xmlns:xlink="http://www.w3.org/1999/xlink" width="133.725" height="93.6289">
 <g>
  <rect height="93.6289" opacity="0" width="133.725" x="0" y="0"/>
  <path d="M0 46.79C0 61.9658 5.05957 75.9024 13.5254 87.0962C14.6909 88.6963 16.6431 88.8462 18.1421 87.647C19.4912 86.4966 19.6748 84.6978 18.5615 83.1836C10.9126 73.1064 6.36671 60.4668 6.36671 46.79C6.36671 33.0796 10.9126 20.4736 18.5615 10.2988C19.6748 8.88233 19.4946 7.0498 18.1421 5.89941C16.6582 4.71533 14.6758 4.89892 13.5254 6.45019C5.05957 17.6743 0 31.6143 0 46.79ZM133.725 46.79C133.725 31.6143 128.699 17.6743 120.199 6.45019C119.049 4.89892 117.066 4.71533 115.583 5.89941C114.23 7.0498 114.084 8.88233 115.163 10.2988C122.846 20.4736 127.358 33.0796 127.358 46.79C127.358 60.4668 122.846 73.1064 115.163 83.1836C114.084 84.6978 114.233 86.4966 115.583 87.647C117.097 88.8462 119.034 88.6963 120.199 87.0962C128.699 75.9024 133.725 61.9658 133.725 46.79Z" fill="#000000" fill-opacity="0.85"/>
  <path d="M66.8623 93.565C92.479 93.565 113.686 72.3916 113.686 46.79C113.686 21.1733 92.479 0 66.8286 0C41.2271 0 20.0723 21.1397 20.0723 46.79C20.0723 72.3916 41.2456 93.565 66.8623 93.565ZM66.8623 87.2471C44.4795 87.2471 26.439 69.2065 26.439 46.79C26.439 24.3399 44.4458 6.29933 66.8286 6.29933C89.2451 6.29933 107.319 24.3399 107.353 46.79C107.387 69.1729 89.3125 87.2471 66.8623 87.2471Z" fill="#000000" fill-opacity="0.85"/>
  <path d="M47.6397 56.3823C47.6397 69.0835 55.7935 76.1772 66.7949 76.1772C75.5801 76.1772 81.9439 72.2212 85.6279 62.7403C87.5005 58.4033 88.9722 53.4751 90.4961 48.1055C91.0469 46.3403 91.7393 44.3291 91.7393 43.3809C91.7393 41.8975 90.6162 40.9175 89.1109 40.9175C87.6104 40.9175 86.6001 41.7949 85.5728 43.937L81.7339 52.6143C81.335 53.6865 80.7442 54.0435 80.1836 54.0435C79.4312 54.0435 78.9414 53.562 78.9414 52.4141L78.9414 23.4898C78.9414 21.939 77.6348 20.6323 76.0689 20.6323C74.4844 20.6323 73.2114 21.939 73.2114 23.4898L73.2114 43.8862C72.3731 43.585 71.4707 43.2617 70.5532 43.0698L70.5532 18.8384C70.5532 17.2539 69.2803 15.9658 67.6958 15.9658C66.1114 15.9658 64.8233 17.2539 64.8233 18.8384L64.8233 42.7466C63.8115 42.8628 62.7696 42.9234 61.8706 43.1001L61.8706 21.6211C61.8706 20.0366 60.5 18.7637 58.9492 18.7637C57.3648 18.7637 56.0767 20.0366 56.0767 21.6211L56.0767 44.9927C55.0313 45.4253 54.1963 45.9741 53.4033 46.5195L53.4033 30.4199C53.4033 28.8355 52.0967 27.544 50.5157 27.544C48.9312 27.544 47.6397 28.8355 47.6397 30.4199Z" fill="#000000" fill-opacity="0.85"/>
 </g>
</svg>
