<?xml version="1.0" encoding="UTF-8"?>
<!--Generator: Apple Native CoreSVG 232.5-->
<!DOCTYPE svg
PUBLIC "-//W3C//DTD SVG 1.1//EN"
       "http://www.w3.org/Graphics/SVG/1.1/DTD/svg11.dtd">
<svg version="1.1" xmlns="http://www.w3.org/2000/svg" xmlns:xlink="http://www.w3.org/1999/xlink" width="88.4092" height="88.5371">
 <g>
  <rect height="88.5371" opacity="0" width="88.4092" x="0" y="0"/>
  <path d="M88.4092 14.4019L88.4092 74.2632C88.4092 83.6558 83.5733 88.5371 74.0005 88.5371L14.3936 88.5371C4.86963 88.5371 0 83.7349 0 74.2632L0 14.4019C0 4.93018 4.86963 0.127929 14.3936 0.127929L74.0005 0.127929C83.5733 0.127929 88.4092 5.00928 88.4092 14.4019ZM41.7974 14.4746L41.7974 39.5352C40.752 39.6177 39.71 39.7456 38.7437 39.9224L38.7437 17.3433C38.7437 15.6914 37.3208 14.3511 35.669 14.3511C34.0322 14.3511 32.6431 15.6914 32.6431 17.3433L32.6431 41.9009C31.564 42.3823 30.6953 42.9312 29.8872 43.4766L29.8872 26.5986C29.8872 24.9468 28.4946 23.5542 26.8613 23.5542C25.1421 23.5542 23.7681 24.9468 23.7681 26.5986L23.7681 53.7959C23.7681 67.0244 32.3262 74.5073 43.9038 74.5073C53.0781 74.5073 59.6963 70.398 63.5674 60.6138C65.541 56.0562 67.1138 50.9409 68.7236 45.2832C69.3081 43.3833 70.0679 41.1851 70.0679 40.1357C70.0679 38.585 68.8926 37.5527 67.3198 37.5527C65.6846 37.5527 64.6406 38.4824 63.5459 40.8115L59.52 49.8594C59.0874 50.999 58.4966 51.3223 57.936 51.3223C57.1499 51.3223 56.6265 50.8257 56.6265 49.6592L56.6265 19.313C56.6265 17.6611 55.2676 16.2871 53.6343 16.2871C51.9487 16.2871 50.6084 17.6611 50.6084 19.313L50.6084 40.7422C49.7363 40.4409 48.8003 40.1177 47.8491 39.8433L47.8491 14.4746C47.8491 12.8565 46.5239 11.4336 44.8384 11.4336C43.1528 11.4336 41.7974 12.8565 41.7974 14.4746Z" fill="#000000" fill-opacity="0.85"/>
 </g>
</svg>
