<?xml version="1.0" encoding="UTF-8"?>
<!--Generator: Apple Native CoreSVG 232.5-->
<!DOCTYPE svg
PUBLIC "-//W3C//DTD SVG 1.1//EN"
       "http://www.w3.org/Graphics/SVG/1.1/DTD/svg11.dtd">
<svg version="1.1" xmlns="http://www.w3.org/2000/svg" xmlns:xlink="http://www.w3.org/1999/xlink" width="76.9982" height="99.5069">
 <g>
  <rect height="99.5069" opacity="0" width="76.9982" x="0" y="0"/>
  <path d="M43.8231 99.5069C63.2967 99.5069 76.9974 86.8052 76.9974 64.211L76.9974 54.229C76.9974 43.0137 72.0384 36.6792 63.2894 36.5815C62.2572 33.1045 59.3846 30.9409 55.3924 30.9409C53.9125 30.9409 52.451 31.2153 50.9593 31.7188C49.89 28.0059 46.8338 25.689 42.7069 25.689C41.5082 25.689 40.2001 25.896 38.9222 26.2832L38.9222 9.43311C38.9222 3.71973 35.0628 0.0419915 29.952 0.0419915C24.7166 0.0419915 20.869 3.71973 20.869 9.43311L20.869 52.0327C20.869 52.3105 20.7713 52.4722 20.5121 52.4722C20.3319 52.4722 20.1703 52.3594 20.0575 52.1001L15.8812 41.7783C14.2967 38.0454 11.5404 36.1157 8.31577 36.0855C3.84848 36.0855-0.0143141 39.0068 0.00082248 43.9507C-0.0177324 45.2979 0.278655 47.0239 0.788909 48.4873L9.62484 73.3989C15.6952 90.544 27.3622 99.5069 43.8231 99.5069ZM43.9916 94.2974C30.2928 94.2974 19.889 87.3628 14.3407 71.708L5.50132 46.8638C5.22691 46.086 5.06529 45.3906 5.06529 44.4512C5.06529 42.5488 6.56187 40.9326 8.74204 40.9326C10.493 40.9326 11.6966 42.0303 12.4862 43.978L18.9789 58.9883C19.8714 61.1153 21.1849 61.8511 22.7914 61.8511C24.6454 61.8511 26.0008 60.4331 26.0008 58.3872L26.0008 9.14502C26.0008 6.67042 27.617 4.96339 29.952 4.96339C32.287 4.96339 33.7752 6.67042 33.7752 9.14502L33.7752 44.0366C33.7752 45.458 34.8768 46.5947 36.2645 46.5947C37.7162 46.5947 38.7201 45.458 38.7201 44.0366L38.7201 31.3057C39.7318 30.8848 41.0062 30.5767 42.0736 30.5767C44.848 30.5767 46.4945 32.3848 46.4945 35.4268L46.4945 45.877C46.4945 47.502 47.6566 48.4654 48.9837 48.4654C50.2621 48.4654 51.4393 47.502 51.4393 45.877L51.4393 36.5576C52.451 36.1367 53.7254 35.8623 54.7591 35.8623C57.5335 35.8623 59.18 37.6367 59.18 40.6787L59.18 47.7661C59.18 49.3726 60.3758 50.3208 61.703 50.3208C62.9476 50.3208 64.1249 49.3726 64.1249 47.7661L64.1249 41.7876C69.1366 41.7876 71.8993 46.4429 71.8993 54.8726L71.8993 63.687C71.8993 83.5733 60.8226 94.2974 43.9916 94.2974Z" fill="#000000" fill-opacity="0.85"/>
 </g>
</svg>
