<?xml version="1.0" encoding="UTF-8"?>
<!--Generator: Apple Native CoreSVG 232.5-->
<!DOCTYPE svg
PUBLIC "-//W3C//DTD SVG 1.1//EN"
       "http://www.w3.org/Graphics/SVG/1.1/DTD/svg11.dtd">
<svg version="1.1" xmlns="http://www.w3.org/2000/svg" xmlns:xlink="http://www.w3.org/1999/xlink" width="109.037" height="110.659">
 <g>
  <rect height="110.659" opacity="0" width="109.037" x="0" y="0"/>
  <path d="M30.4154 50.1911L30.4154 54.7701C31.2759 54.1678 32.2127 53.579 33.2416 53.0151L76.6256 96.3651C70.7413 102.222 63.0637 104.991 53.3983 104.991C34.7704 104.991 20.6893 93.0343 20.6893 71.3194L20.6893 40.4726ZM59.7567 7.3082L59.7567 48.8502C61.3949 49.1886 62.9506 49.6397 64.3749 50.234L64.3749 15.1266C64.3749 12.4727 66.5521 10.2804 69.2211 10.2804C71.89 10.2804 74.0673 12.4727 74.0673 15.1266L74.0673 64.6217C74.0673 66.6637 74.9931 67.401 76.2152 67.401C77.1479 67.401 78.141 66.8302 78.9003 64.9649L85.4149 50.3287C87.1767 46.5226 88.9565 44.963 91.518 44.963C94.059 44.963 95.9027 46.5543 95.9027 49.0699C95.9027 50.8385 94.6864 54.5646 93.7499 57.6822C91.0679 66.8996 88.4892 75.2145 85.2841 82.5736L50.0155 47.3126L50.0155 7.3082C50.0155 4.65439 52.2416 2.42831 54.9105 2.42831C57.5644 2.42831 59.7567 4.65439 59.7567 7.3082ZM44.8354 11.9732L44.8354 42.1335L35.143 32.4432L35.143 11.9732C35.143 9.31942 37.3202 7.12704 39.9892 7.12704C42.6581 7.12704 44.8354 9.31942 44.8354 11.9732ZM30.4154 26.962L30.4154 27.7167L24.8698 22.1723C25.0973 22.1331 25.3315 22.1158 25.5692 22.1158C28.2382 22.1158 30.4154 24.2931 30.4154 26.962Z" fill="#000000" fill-opacity="0.85"/>
  <path d="M92.1293 104.805C93.2763 105.903 95.1576 105.937 96.2709 104.805C97.4179 103.609 97.4364 101.811 96.2709 100.679L10.0214 14.4293C8.90468 13.3126 7.05702 13.2672 5.86121 14.4293C4.74793 15.5611 4.74793 17.4576 5.86121 18.5558Z" fill="#000000" fill-opacity="0.85"/>
 </g>
</svg>
