<?xml version="1.0" encoding="UTF-8"?>
<!--Generator: Apple Native CoreSVG 232.5-->
<!DOCTYPE svg
PUBLIC "-//W3C//DTD SVG 1.1//EN"
       "http://www.w3.org/Graphics/SVG/1.1/DTD/svg11.dtd">
<svg version="1.1" xmlns="http://www.w3.org/2000/svg" xmlns:xlink="http://www.w3.org/1999/xlink" width="97.9595" height="97.9932">
 <g>
  <rect height="97.9932" opacity="0" width="97.9595" x="0" y="0"/>
  <path d="M97.9595 48.9722C97.9595 75.7759 75.8247 97.9443 48.9722 97.9443C22.1685 97.9443 0 75.7759 0 48.9722C0 22.1348 22.1348 0 48.9385 0C75.791 0 97.9595 22.1348 97.9595 48.9722ZM32.1333 23.5278C29.9663 24.0835 27.8667 25.3345 27.8667 27.9224C27.8667 28.9141 28.1597 29.7627 28.4829 30.3149C28.6782 30.6719 28.6143 30.9834 28.3213 31.1113C26.6797 31.7764 25.2603 33.3574 25.2603 35.5059C25.2603 36.7114 25.6206 37.8345 26.2554 38.582C26.5483 39.0215 26.4995 39.3818 26.0298 39.6411C24.7417 40.3921 23.9116 41.8535 23.9116 43.6939C23.9116 44.9297 24.3023 46.3306 25.001 46.999C25.4741 47.3408 25.3765 47.6152 24.9033 47.9722C24.1069 48.708 23.5698 50.0112 23.5698 51.4727C23.5698 54.1279 25.6206 56.2915 28.2725 56.2915L37.8428 56.2915C40.3516 56.2915 41.9595 57.561 41.9595 59.563C41.9595 63.2588 37.3882 69.9634 37.3882 74.7149C37.3882 77.2051 39.0332 78.7188 41.148 78.7188C43.0859 78.7188 44.0776 77.4004 45.0693 75.3496C49.1406 67.4732 54.542 61.0581 58.6924 55.5405C62.1558 50.9204 63.8984 46.999 63.9658 40.5537C64.0669 30.5928 56.0894 23.0615 43.4429 22.9605L39.6831 22.9268C36.186 22.8931 33.6133 23.1558 32.1333 23.5278ZM59.8433 25.4321C64.9751 28.9697 67.2109 34.3408 67.1284 40.6025C67.0156 47.6504 64.3301 52.2691 62.1748 55.2813L66.2173 55.2813C72.3057 55.2813 76.8687 48.6895 76.8687 40.3433C76.8687 32.2344 71.9824 25.4321 65.2105 25.4321Z" fill="#000000" fill-opacity="0.85"/>
 </g>
</svg>
