<?xml version="1.0" encoding="UTF-8"?>
<!--Generator: Apple Native CoreSVG 232.5-->
<!DOCTYPE svg
PUBLIC "-//W3C//DTD SVG 1.1//EN"
       "http://www.w3.org/Graphics/SVG/1.1/DTD/svg11.dtd">
<svg version="1.1" xmlns="http://www.w3.org/2000/svg" xmlns:xlink="http://www.w3.org/1999/xlink" width="130.505" height="124.06">
 <g>
  <rect height="124.06" opacity="0" width="130.505" x="0" y="0"/>
  <path d="M2.94952 34.1106L17.0609 37.138C18.4066 37.4378 19.2049 38.6673 18.9388 39.9793C18.7064 41.3099 17.3607 42.0896 16.1126 41.8572L1.95245 38.8636C0.65899 38.5975-0.157906 37.3528 0.0256877 36.0745C0.209282 34.7102 1.53643 33.8108 2.94952 34.1106ZM14.4129 12.3182L24.6668 22.5232C25.6151 23.4866 25.5814 24.9974 24.6668 25.9456C23.7371 26.909 22.159 26.909 21.2107 25.9456L11.0057 15.7405C9.99346 14.7283 10.0423 13.2664 11.0057 12.3182C11.9539 11.3699 13.4158 11.3059 14.4129 12.3182ZM37.5511 3.81083L40.5936 17.9373C40.8934 19.1365 39.9637 20.4974 38.6517 20.7635C37.3211 21.0633 36.0765 20.1487 35.7767 18.8855L32.7342 4.79277C32.4344 3.47733 33.3641 2.19901 34.6609 1.9329C35.9393 1.66678 37.2513 2.46512 37.5511 3.81083Z" fill="#000000" fill-opacity="0.85"/>
  <path d="M110.606 38.4646C111.857 39.6975 113.663 43.1946 115.162 46.0648C119.873 54.5433 123.911 62.2737 126.886 69.7464C133.326 84.8934 130.962 97.1819 120.081 108.096C114.403 113.76 107.742 117.258 100.767 118.155C103.452 116.5 106.002 114.451 108.389 112.072C120.867 99.5901 123.64 85.0047 116.474 67.9212C113.399 60.014 109.208 51.8792 104.463 43.3821C104.059 42.6268 103.652 41.8578 103.242 41.099C103.441 40.1588 103.898 39.3645 104.618 38.6448C106.423 36.8733 108.841 36.7 110.606 38.4646ZM71.2069 29.8758L81.9292 40.6084C81.7615 41.912 81.8322 43.3355 82.1605 44.888L85.0379 51.4387L63.937 30.3254C64.0548 30.1683 64.187 30.0187 64.3299 29.8758C66.1805 28.01 69.3074 28.01 71.2069 29.8758Z" fill="#000000" fill-opacity="0.85"/>
  <path d="M57.4959 107.389C72.8514 122.711 91.2703 121.204 104.412 108.096C115.278 97.1819 117.641 84.8934 111.201 69.7464C108.227 62.2737 104.156 54.5433 99.4779 46.0648C97.9451 43.1946 96.1883 39.6975 94.9217 38.4646C93.1571 36.7 90.7205 36.8733 88.9339 38.6448C87.0999 40.4788 86.9705 42.7976 88.4036 46.742L94.1463 61.7103C94.9173 63.5452 94.6683 64.658 93.9764 65.3499C93.1414 66.1849 91.9412 66.3279 90.4598 64.8802L55.5228 29.8758C53.6234 28.01 50.5115 28.01 48.6458 29.8758C46.7464 31.7752 46.7464 34.8533 48.6458 36.7527L73.4652 61.5721C72.0291 62.1429 70.6048 62.9544 69.1956 63.8636L39.8323 34.4851C37.9818 32.6009 34.8548 32.6009 32.9554 34.4851C31.1048 36.3846 31.1048 39.4778 32.9554 41.3772L61.9129 70.3196C60.785 71.658 59.7059 73.0789 58.7362 74.451L32.6019 48.3167C30.7025 46.4324 27.6243 46.4324 25.7249 48.3167C23.8592 50.2161 23.8592 53.3094 25.7249 55.1936L54.0667 83.5355C53.39 85.3924 52.9691 87.1585 52.6727 88.8118L32.9974 69.1517C31.1468 67.2522 28.0198 67.2522 26.1204 69.1517C24.2698 71.0359 24.2698 74.0955 26.1204 75.9949Z" fill="#000000" fill-opacity="0.85"/>
 </g>
</svg>
