<?xml version="1.0" encoding="UTF-8"?>
<!--Generator: Apple Native CoreSVG 232.5-->
<!DOCTYPE svg
PUBLIC "-//W3C//DTD SVG 1.1//EN"
       "http://www.w3.org/Graphics/SVG/1.1/DTD/svg11.dtd">
<svg version="1.1" xmlns="http://www.w3.org/2000/svg" xmlns:xlink="http://www.w3.org/1999/xlink" width="105.612" height="80.9169">
 <g>
  <rect height="80.9169" opacity="0" width="105.612" x="0" y="0"/>
  <path d="M0 46.0424C0 66.4809 13.3096 80.8652 37.042 80.8652L47.482 80.8652C59.2681 80.8652 65.9292 75.6435 66.0117 66.4702C69.6841 65.374 71.9605 62.3701 71.9605 58.1826C71.9605 56.6201 71.6372 55.0459 71.1524 53.539C75.0269 52.4023 77.46 49.1508 77.46 44.8286C77.46 43.581 77.2681 42.2241 76.8321 40.8823L94.5088 40.8823C100.567 40.8823 104.376 36.8427 104.376 31.4355C104.376 25.9374 100.567 21.9433 94.5088 21.9433L49.8013 21.9433C49.5572 21.9433 49.3619 21.8305 49.3619 21.5527C49.3619 21.3574 49.4746 21.1469 49.7339 21.0678L60.586 16.666C64.5293 15.0175 66.523 12.1298 66.5532 8.72504C66.5532 4.06244 63.4854-0.0142208 58.2637 0.000915809C56.8828-0.0176391 55.0591 0.245056 53.5132 0.852967L27.3506 10.1132C9.33838 16.4951 0 28.6992 0 46.0424ZM5.42677 46.2446C5.42677 31.8286 12.7334 20.8876 29.124 15.0615L55.2529 5.78266C56.0459 5.47456 56.7749 5.34663 57.7446 5.34663C59.7783 5.34663 61.4736 6.90717 61.4736 9.20014C61.4736 11.0336 60.312 12.2675 58.2666 13.1396L42.46 19.8764C40.2842 20.8666 39.5147 22.2963 39.5147 23.9516C39.5147 25.9033 40.9663 27.3413 43.1099 27.3413L94.8306 27.3413C97.4668 27.3413 99.2529 28.9726 99.2529 31.4355C99.2529 33.9169 97.4668 35.4843 94.8306 35.4843L58.1929 35.4843C56.7227 35.4843 55.5034 36.6044 55.5034 38.1235C55.5034 39.56 56.7227 40.6953 58.1929 40.6953L71.5772 40.6953C72.0132 41.7221 72.3364 43.0791 72.3364 44.1767C72.3364 47.079 70.4155 48.8417 67.2456 48.8417L56.3037 48.8417C54.5811 48.8417 53.5352 50.0527 53.5352 51.4135C53.5352 52.7744 54.5811 53.9853 56.3037 53.9853L66.0474 53.9853C66.4985 55.0459 66.773 56.4331 66.773 57.5156C66.773 60.4365 64.8858 62.1469 61.7495 62.1469L54.3018 62.1469C52.6128 62.1469 51.5972 63.4252 51.5972 64.7861C51.5972 66.1469 52.6128 67.3242 54.3018 67.3242L60.5698 67.3242C60.5698 72.6103 55.6401 75.5009 46.8047 75.5009L37.5845 75.5009C16.6577 75.5009 5.42677 63.8906 5.42677 46.2446Z" fill="#000000" fill-opacity="0.85"/>
 </g>
</svg>
