<?xml version="1.0" encoding="UTF-8"?>
<!--Generator: Apple Native CoreSVG 232.5-->
<!DOCTYPE svg
PUBLIC "-//W3C//DTD SVG 1.1//EN"
       "http://www.w3.org/Graphics/SVG/1.1/DTD/svg11.dtd">
<svg version="1.1" xmlns="http://www.w3.org/2000/svg" xmlns:xlink="http://www.w3.org/1999/xlink" width="128.312" height="120.296">
 <g>
  <rect height="120.296" opacity="0" width="128.312" x="0" y="0"/>
  <path d="M2.96237 32.2287L17.0737 35.256C18.4194 35.5558 19.2177 36.7853 18.9516 38.0973C18.7192 39.4279 17.3735 40.2077 16.1255 39.9753L1.9653 36.9816C0.671839 36.7155-0.145057 35.4709 0.038537 34.1926C0.222131 32.8283 1.54928 31.9289 2.96237 32.2287ZM14.4258 10.4362L24.6797 20.6413C25.6279 21.6047 25.5942 23.1154 24.6797 24.0637C23.75 25.027 22.1718 25.027 21.2236 24.0637L11.0185 13.8586C10.0063 12.8464 10.0551 11.3845 11.0185 10.4362C11.9668 9.48796 13.4287 9.424 14.4258 10.4362ZM37.5639 1.92889L40.6064 16.0554C40.9062 17.2546 39.9765 18.6154 38.6645 18.8815C37.334 19.1813 36.0893 18.2668 35.7895 17.0036L32.747 2.91082C32.4472 1.59539 33.3769 0.317069 34.6738 0.0509553C35.9521-0.215159 37.2641 0.583183 37.5639 1.92889Z" fill="#000000" fill-opacity="0.85"/>
  <path d="M109.75 32.3488C110.7 33.2985 111.552 34.4958 112.209 35.9557L123.592 59.7966C131.427 76.2394 129.504 90.7976 117.846 102.441C112.051 108.243 105.379 111.726 98.3981 112.586C100.945 111.067 103.381 109.133 105.679 106.836C106.944 105.57 108.096 104.269 109.11 102.928C110.79 101.784 112.418 100.418 113.985 98.8503C123.699 89.1369 126.189 76.9269 119.06 61.9406L107.459 37.6061C106.279 35.0353 104.347 34.0388 102.283 35.0051C100.301 35.9225 99.5688 37.968 100.547 40.4831L102.699 45.9076L100.042 40.3351C99.3515 38.8752 98.5181 37.6779 97.5835 36.7282C97.1584 36.3073 96.7097 35.9413 96.2434 35.6297C96.5877 34.4081 97.2296 33.3233 98.125 32.4279C101.462 29.1242 106.391 28.9894 109.75 32.3488ZM71.1387 23.2477L85.3763 37.4944C84.1505 39.0181 83.5758 40.9966 83.8171 43.2172L67.7383 27.1384C65.9707 25.3708 63.7417 25.2009 62.0835 26.8591C61.282 27.6605 60.8785 28.6244 60.8829 29.6045L58.938 27.6608C58.3569 27.0746 57.7539 26.5781 57.1351 26.1813C57.4612 24.9739 58.1278 23.8655 59.0434 22.9499C62.5527 19.4557 67.2978 19.4406 71.1387 23.2477ZM46.8764 27.3444C45.4604 28.7453 44.6792 30.5485 44.7212 32.4645C44.2746 32.0954 43.8198 31.7684 43.3589 31.4876C43.7456 30.2989 44.4345 29.1688 45.4316 28.1613C46.2589 27.334 47.153 26.7205 48.0876 26.3143C47.6693 26.6096 47.2653 26.9556 46.8764 27.3444Z" fill="#000000" fill-opacity="0.85"/>
  <path d="M105.679 106.836C117.304 95.2106 119.26 80.6188 111.425 64.2096L100.042 40.3351C99.3515 38.8752 98.5181 37.6779 97.5835 36.7282C94.1904 33.3688 89.2954 33.5036 85.958 36.841C83.7168 39.0485 83.0483 42.4767 84.6108 46.277L88.9536 56.5231C89.0664 56.7487 89.0512 56.9591 88.9048 57.0905C88.7431 57.2858 88.5141 57.237 88.3525 57.0568L58.938 27.6608C55.1308 23.82 50.3857 23.8351 46.8764 27.3444C45.4604 28.7453 44.6792 30.5485 44.7212 32.4645C40.9443 29.3429 36.5766 29.2287 33.2646 32.5895C30.0049 35.8342 30.04 40.4391 33.0302 44.1032C31.1665 44.0275 29.3969 44.8088 28.082 46.1237C24.7749 49.4308 24.8608 54.0563 28.5332 57.7775L32.7505 61.9797C30.8193 61.8703 28.8965 62.7492 27.4467 64.2326C24.1396 67.5397 24.2407 72.3034 27.9804 76.0095L57.2558 105.319C73.2363 121.314 91.9267 120.588 105.679 106.836ZM101.818 103.23C89.9292 115.119 74.5854 115.424 60.5029 101.342L31.9048 72.7438C30.1372 70.9763 29.9487 68.7809 31.5918 67.0891C33.25 65.446 35.6372 65.4763 37.4048 67.2438L54.729 84.6018C55.8774 85.7653 57.3882 85.5852 58.2842 84.6892C59.229 83.7595 59.3789 82.2639 58.2304 81.1003L32.102 54.9719C30.3496 53.2194 30.146 51.009 31.8227 49.3659C33.4809 47.7077 35.8344 47.7531 37.602 49.5207L61.9389 73.8425C63.0874 75.006 64.5981 74.8596 65.4941 73.9299C66.4238 73.0002 66.5888 71.5046 65.4404 70.341L36.9731 41.8889C35.2207 40.1213 35.081 37.7072 36.7392 36.0642C38.3369 34.4514 40.7055 34.6701 42.4731 36.4225L70.9404 64.8898C71.9643 65.8801 73.4902 65.9675 74.4956 64.9621C75.4707 63.9533 75.4658 62.4123 74.4419 61.3884L50.0713 37.0178C48.3037 35.2502 48.2583 32.9304 49.9165 31.2722C51.5747 29.5954 53.8037 29.7502 55.5561 31.5515L89.1924 65.1725C90.7348 66.715 92.6191 66.6393 93.914 65.3259C95.0625 64.196 95.4751 62.7512 94.6196 60.6242L88.3647 44.8625C87.3867 42.381 88.1343 40.3019 90.082 39.3845C92.1797 38.4182 94.1123 39.4484 95.2925 41.9855L106.893 66.3688C114.022 81.3063 111.532 93.5163 101.818 103.23Z" fill="#000000" fill-opacity="0.85"/>
 </g>
</svg>
