<?xml version="1.0" encoding="UTF-8"?>
<!--Generator: Apple Native CoreSVG 232.5-->
<!DOCTYPE svg
PUBLIC "-//W3C//DTD SVG 1.1//EN"
       "http://www.w3.org/Graphics/SVG/1.1/DTD/svg11.dtd">
<svg version="1.1" xmlns="http://www.w3.org/2000/svg" xmlns:xlink="http://www.w3.org/1999/xlink" width="74.3194" height="96.961">
 <g>
  <rect height="96.961" opacity="0" width="74.3194" x="0" y="0"/>
  <path d="M32.1216 0.377443C11.3843 0.377443 0 12.7505 0 35.5581L0 44.2671C0 52.77 4.10156 57.9341 8.78906 57.9341C9.86328 57.9341 10.4004 57.3819 10.4004 56.3716L10.4004 51.9336C10.4004 50.3135 11.2744 49.4429 12.2798 49.4429C13.3525 49.4429 14.1777 50.3135 14.1777 51.9336L14.1777 54.9404C14.1777 59.9849 17.4492 63.2901 21.7949 63.2901C23.7969 63.2901 24.6758 62.5088 24.6758 60.7998L24.6758 54.8633C24.6758 53.2432 25.501 52.3726 26.5215 52.3726C27.5791 52.3726 28.4531 53.2432 28.4531 54.8633L28.4531 60.3604C28.4531 66.0396 31.7398 68.71 35.9878 68.71C37.8433 68.71 38.8535 67.8462 38.8535 66.2197L38.8535 54.8633C38.8535 53.2432 39.6939 52.3726 40.6992 52.3726C41.772 52.3726 42.6309 53.2432 42.6309 54.8633L42.6309 91.0459C42.6309 94.6592 44.8989 96.961 47.9751 96.961C51.1558 96.961 53.417 94.6592 53.417 91.0459L53.417 39.3408C53.417 38.1284 54.2505 37.4565 55.0806 37.4565C55.835 37.4565 56.5034 37.8843 57.0288 39.1304L64.1612 55.6953C65.2505 58.2007 66.8921 59.2632 68.9531 59.2632C72.3526 59.2632 74.3194 56.9834 74.3194 54.1851C74.3194 53.1377 74.0904 52.2251 73.7822 51.3984L65.8452 27.3301C59.6821 8.89502 47.1831 0.377443 32.1216 0.377443Z" fill="#000000" fill-opacity="0.85"/>
 </g>
</svg>
