<?xml version="1.0" encoding="UTF-8"?>
<!--Generator: Apple Native CoreSVG 232.5-->
<!DOCTYPE svg
PUBLIC "-//W3C//DTD SVG 1.1//EN"
       "http://www.w3.org/Graphics/SVG/1.1/DTD/svg11.dtd">
<svg version="1.1" xmlns="http://www.w3.org/2000/svg" xmlns:xlink="http://www.w3.org/1999/xlink" width="74.3194" height="97.1826">
 <g>
  <rect height="97.1826" opacity="0" width="74.3194" x="0" y="0"/>
  <path d="M42.1826 97.1826C62.9351 97.1826 74.3194 84.8096 74.3194 62.002L74.3194 53.293C74.3194 44.8052 70.169 39.6411 65.5303 39.6411C64.4561 39.6411 63.9038 40.1782 63.9038 41.1885L63.9038 45.6265C63.9038 47.2617 63.0449 48.1172 62.0396 48.1172C60.9668 48.1172 60.1265 47.2617 60.1265 45.6265L60.1265 42.6196C60.1265 37.5752 56.8701 34.27 52.5244 34.27C50.5225 34.27 49.6436 35.085 49.6436 36.7603L49.6436 42.6968C49.6436 44.332 48.8032 45.1875 47.7979 45.1875C46.7251 45.1875 45.8662 44.332 45.8662 42.6968L45.8662 37.1997C45.8662 31.5357 42.5459 28.8501 38.3316 28.8501C36.4424 28.8501 35.4507 29.729 35.4507 31.3403L35.4507 42.6968C35.4507 44.332 34.5918 45.1875 33.5864 45.1875C32.5137 45.1875 31.6733 44.332 31.6733 42.6968L31.6733 6.51416C31.6733 2.90088 29.3716 0.632811 26.3442 0.632811C23.1636 0.632811 20.8687 2.90088 20.8687 6.51416L20.8687 58.2193C20.8687 59.4654 20.0689 60.1035 19.2388 60.1035C18.4844 60.1035 17.8159 59.6758 17.2754 58.4297L10.1431 41.8648C9.05371 39.3594 7.39356 38.3306 5.33252 38.3306C1.9668 38.3306 0 40.6104 0 43.3902C0 44.4224 0.229004 45.335 0.488281 46.1616L8.47412 70.23C14.6372 88.6651 27.1362 97.1826 42.1826 97.1826Z" fill="#000000" fill-opacity="0.85"/>
 </g>
</svg>
