<?xml version="1.0" encoding="UTF-8"?>
<!--Generator: Apple Native CoreSVG 232.5-->
<!DOCTYPE svg
PUBLIC "-//W3C//DTD SVG 1.1//EN"
       "http://www.w3.org/Graphics/SVG/1.1/DTD/svg11.dtd">
<svg version="1.1" xmlns="http://www.w3.org/2000/svg" xmlns:xlink="http://www.w3.org/1999/xlink" width="88.4092" height="89.6113">
 <g>
  <rect height="89.6113" opacity="0" width="88.4092" x="0" y="0"/>
  <path d="M14.3936 89.6113L74.0005 89.6113C83.5733 89.6113 88.4092 84.7788 88.4092 75.3711L88.4092 15.4912C88.4092 6.0835 83.5733 1.21728 74.0005 1.21728L14.3936 1.21728C4.86963 1.21728 0 6.05322 0 15.4912L0 75.3711C0 84.8091 4.86963 89.6113 14.3936 89.6113ZM14.5064 83.5815C9.00294 83.5815 6.04494 80.6909 6.04494 75.0376L6.04494 15.8247C6.04494 10.1714 9.00294 7.24708 14.5064 7.24708L73.9028 7.24708C79.2969 7.24708 82.3643 10.1714 82.3643 15.8247L82.3643 75.0376C82.3643 80.6909 79.2969 83.5815 73.9028 83.5815Z" fill="#000000" fill-opacity="0.85"/>
  <path d="M23.4839 54.6948C23.4839 67.7363 31.8735 75.0171 43.1968 75.0171C52.2178 75.0171 58.7012 70.9751 62.52 61.3257C64.4111 56.854 65.9653 51.8399 67.5415 46.3169C68.0923 44.4844 68.7847 42.3384 68.7847 41.3228C68.7847 39.8057 67.6279 38.8071 66.1226 38.8071C64.5547 38.8071 63.5107 39.7031 62.4497 41.9649L58.5249 50.8442C58.0586 51.9653 57.5015 52.2734 56.9409 52.2734C56.1885 52.2734 55.665 51.792 55.665 50.644L55.665 20.9229C55.665 19.3047 54.3398 17.9644 52.6914 17.9644C51.0732 17.9644 49.7817 19.3047 49.7817 20.9229L49.7817 41.8955C48.8945 41.5942 48.0073 41.271 47.0562 41.0791L47.0562 16.1367C47.0562 14.5523 45.7495 13.1631 44.0977 13.1631C42.4795 13.1631 41.124 14.5523 41.124 16.1367L41.124 40.7222C40.1123 40.8047 39.0703 40.9326 38.104 41.1094L38.104 18.9868C38.104 17.3687 36.7485 16.062 35.1304 16.062C33.5122 16.062 32.1567 17.3687 32.1567 18.9868L32.1567 43.0357C31.1113 43.502 30.2427 44.0508 29.416 44.5962L29.416 28.04C29.416 26.437 28.0757 25.063 26.4761 25.063C24.8242 25.063 23.4839 26.437 23.4839 28.04Z" fill="#000000" fill-opacity="0.85"/>
 </g>
</svg>
