<?xml version="1.0" encoding="UTF-8"?>
<!--Generator: Apple Native CoreSVG 232.5-->
<!DOCTYPE svg
PUBLIC "-//W3C//DTD SVG 1.1//EN"
       "http://www.w3.org/Graphics/SVG/1.1/DTD/svg11.dtd">
<svg version="1.1" xmlns="http://www.w3.org/2000/svg" xmlns:xlink="http://www.w3.org/1999/xlink" width="91.5328" height="99.6348">
 <g>
  <rect height="99.6348" opacity="0" width="91.5328" x="0" y="0"/>
  <path d="M0 65.7041C0 79.5064 8.50342 91.1011 20.0527 91.1011L29.1006 91.1011C20.4175 85.1133 16.6982 75.8994 16.7437 65.231C16.8379 53.2359 21.4077 45.1768 25.2134 40.1304L18.3369 40.1304C7.93262 40.1304 0 51.3345 0 65.7041ZM22.4526 65.3135C22.4526 82.3638 35.8389 95.5127 57.5449 95.5127L63.898 95.5127C69.9395 95.5127 74.3848 95.1187 76.9307 94.4317C80.5577 93.5342 84.0987 91.2964 84.0987 86.8882C84.0987 85.0747 83.6255 83.7681 83.0396 82.773C82.6641 82.1685 82.7466 81.7105 83.3023 81.4663C86.2085 80.2271 88.5928 77.5767 88.5928 73.8858C88.5928 71.7793 87.9883 69.917 86.9595 68.6289C86.4375 67.9116 86.5166 67.2886 87.399 66.8155C89.4566 65.6216 90.9283 62.9629 90.9283 59.9405C90.9283 57.7666 90.2261 55.4649 88.9869 54.3384C88.251 53.6851 88.3975 53.2271 89.1787 52.5249C90.6016 51.3008 91.5328 49.2246 91.5328 46.5625C91.5328 42.0718 88.0371 38.3809 83.4151 38.3809L66.9844 38.3809C62.8355 38.3809 60.0454 36.2407 60.0454 32.794C60.0454 26.5571 67.8667 15.0601 67.8667 6.84473C67.8667 2.51563 65.0581 0 61.4312 0C58.0669 0 56.4336 2.27149 54.6538 5.76709C47.7114 19.2881 38.4522 30.2144 31.397 39.541C25.3892 47.4785 22.4526 54.3384 22.4526 65.3135Z" fill="#000000" fill-opacity="0.85"/>
 </g>
</svg>
