<?xml version="1.0" encoding="UTF-8"?>
<!--Generator: Apple Native CoreSVG 232.5-->
<!DOCTYPE svg
PUBLIC "-//W3C//DTD SVG 1.1//EN"
       "http://www.w3.org/Graphics/SVG/1.1/DTD/svg11.dtd">
<svg version="1.1" xmlns="http://www.w3.org/2000/svg" xmlns:xlink="http://www.w3.org/1999/xlink" width="109.037" height="110.659">
 <g>
  <rect height="110.659" opacity="0" width="109.037" x="0" y="0"/>
  <path d="M25.4569 45.2365L25.4569 69.3399C25.4569 89.211 36.5336 99.8897 53.3646 99.8897C61.1225 99.8897 67.8236 97.6803 73.1817 92.924L76.8357 96.5751C70.7165 102.25 62.887 105.145 53.518 105.145C34.0595 105.145 20.3588 92.4581 20.3588 69.8487L20.3588 40.1423ZM62.9897 9.47909C64.3417 8.08846 66.1635 7.35604 68.1654 7.35604C73.1347 7.35604 76.4872 10.712 76.4872 16.1373L76.4872 57.7042C76.4872 57.9483 76.5849 58.1436 76.829 58.1436C77.0243 58.1436 77.1859 57.9971 77.2987 57.7716L81.4413 47.4312C83.0258 43.6495 85.932 41.7081 89.0893 41.7081C93.7821 41.7081 97.3554 45.0943 97.3554 49.8463C97.3554 51.19 97.0927 52.6651 96.5522 54.1588L87.7314 79.0704C87.2072 80.5521 86.6411 81.9723 86.0183 83.3076L82.2013 79.4914C82.4902 78.824 82.7581 78.1187 83.0155 77.3946L92.0419 51.9591C93.0116 49.3243 92.35 47.2149 90.1732 46.4557C88.1615 45.7149 86.1581 46.6441 85.1244 49.107L78.411 64.6598C77.4848 66.7682 76.1713 67.4889 74.5648 67.4889C72.7108 67.4889 71.3402 66.2394 71.3402 64.0401L71.3402 16.4928C71.3402 13.9845 69.8637 12.2774 67.5287 12.2774C65.1786 12.2774 63.5658 13.9845 63.5658 16.4928L63.5658 50.9288C63.5658 52.3653 62.4794 53.5021 61.0917 53.5021C59.64 53.5021 58.6361 52.3653 58.6361 50.9288L58.6361 10.6803C58.6361 8.17197 57.0839 6.34043 54.8432 6.34043C52.4745 6.34043 50.8617 8.17197 50.8617 10.6803L50.8617 48.1586L45.9169 43.2148L45.9169 16.4928C45.9169 13.9845 44.3041 12.2774 41.9354 12.2774C39.6005 12.2774 38.1762 13.9845 38.1762 16.4928L38.1762 35.4758L33.2313 30.532L33.2313 28.8917C33.2313 26.3834 31.5849 24.6949 29.2499 24.6949C28.6692 24.6949 28.1452 24.7964 27.686 24.9878L23.772 21.0747C25.0378 20.1993 26.6004 19.7213 28.3622 19.7213C30.3827 19.7213 32.3695 20.4386 33.6879 21.8814L33.6879 15.9166C33.6879 10.6783 36.9057 7.35604 41.6054 7.35604C43.454 7.35604 45.2421 8.05477 46.4931 9.41171C46.9984 4.72909 50.2128 1.41903 54.8432 1.41903C59.5258 1.41903 62.5517 4.60116 62.9897 9.47909ZM36.1707 55.9419C36.0024 55.9757 35.829 55.9923 35.6532 55.9923C34.4086 55.9923 33.2313 55.044 33.2313 53.4039L33.2313 53.0048Z" fill="#000000" fill-opacity="0.85"/>
  <path d="M92.1293 104.805C93.2763 105.903 95.1576 105.937 96.2709 104.805C97.4179 103.609 97.4364 101.811 96.2709 100.679L10.0214 14.4293C8.90468 13.3126 7.05702 13.2672 5.86121 14.4293C4.74793 15.5611 4.74793 17.4576 5.86121 18.5558Z" fill="#000000" fill-opacity="0.85"/>
 </g>
</svg>
