<?xml version="1.0" encoding="UTF-8"?>
<!--Generator: Apple Native CoreSVG 232.5-->
<!DOCTYPE svg
PUBLIC "-//W3C//DTD SVG 1.1//EN"
       "http://www.w3.org/Graphics/SVG/1.1/DTD/svg11.dtd">
<svg version="1.1" xmlns="http://www.w3.org/2000/svg" xmlns:xlink="http://www.w3.org/1999/xlink" width="112.61" height="133.339">
 <g>
  <rect height="133.339" opacity="0" width="112.61" x="0" y="0"/>
  <path d="M15.0756 100.35C17.1532 109.675 16.8031 110.037 26.7523 112.039C27.3148 112.155 27.6483 112.421 27.6483 113.002C27.6483 113.583 27.3148 113.849 26.7523 113.999C16.788 115.813 16.6703 116.174 15.0756 125.669C14.9628 126.201 14.663 126.52 14.1459 126.52C13.6288 126.52 13.3139 126.201 13.1976 125.669C11.5424 116.174 11.5829 115.967 1.53944 113.999C0.976934 113.849 0.628301 113.583 0.628301 113.002C0.628301 112.421 0.976934 112.155 1.53944 112.039C11.5829 110.037 11.1049 109.675 13.1976 100.35C13.3139 99.8028 13.6288 99.4995 14.1459 99.4995C14.663 99.4995 14.9628 99.8028 15.0756 100.35ZM71.9633 3.35547C73.6064 15.1934 73.9535 14.9932 86.0727 17.3452C86.6689 17.4614 87.1 17.8437 87.1 18.4888C87.1 19.1372 86.6689 19.5347 85.953 19.6172C73.8861 21.7671 73.6064 21.8179 71.9633 33.6558C71.9145 34.3379 71.4496 34.7539 70.786 34.7539C70.2201 34.7539 69.7553 34.3379 69.6913 33.708C67.9623 21.8667 67.8476 22.0366 55.5819 19.6172C55.0009 19.5347 54.5546 19.1035 54.5546 18.4888C54.5546 17.8437 55.0009 17.4277 55.5819 17.3452C67.8476 15.3486 67.996 15.2642 69.6913 3.32178C69.7553 2.6582 70.2201 2.22705 70.786 2.22705C71.4496 2.22705 71.9145 2.6582 71.9633 3.35547ZM39.2431 0.749514C40.9721 8.22998 40.6523 8.47558 48.5399 10.0615C49.0688 10.1777 49.3686 10.4775 49.3686 10.9761C49.3686 11.4561 49.0688 11.7559 48.5399 11.8721C40.622 13.2695 40.5009 13.5 39.2431 21.2178C39.1269 21.7314 38.8271 21.9336 38.3773 21.9336C37.9276 21.9336 37.5941 21.6978 37.5116 21.2178C36.1898 13.5 36.1781 13.458 28.2148 11.8721C27.6523 11.7559 27.3861 11.4224 27.3861 10.9761C27.3861 10.5112 27.6523 10.1777 28.2148 10.0615C36.1781 8.47558 35.7826 8.22998 37.5116 0.749514C37.5941 0.269532 37.9276 0 38.3773 0C38.8607 0 39.1269 0.235841 39.2431 0.749514Z" fill="#000000" fill-opacity="0.85"/>
  <path d="M91.9735 43.104C93.225 44.3369 95.0307 47.834 96.5297 50.7041C101.241 59.1826 105.279 66.9131 108.253 74.3858C114.693 89.5327 112.33 101.821 101.449 112.735C95.7665 118.403 89.1063 121.902 82.1307 122.797C84.8176 121.142 87.3686 119.091 89.7563 116.711C102.235 104.23 105.008 89.6441 97.8422 72.5606C94.7665 64.6534 90.5756 56.5186 85.8305 48.0215C85.4257 47.2644 85.0191 46.4936 84.6105 45.7331C84.8106 44.7953 85.2674 44.0025 85.9858 43.2842C87.7909 41.5127 90.2089 41.3394 91.9735 43.104ZM52.5746 34.5151L63.2923 45.2431C63.1273 46.5454 63.2086 47.9612 63.5619 49.4937L66.4056 56.0781L45.3048 34.9648C45.4226 34.8076 45.5547 34.6581 45.6977 34.5151C47.5482 32.6494 50.6752 32.6494 52.5746 34.5151Z" fill="#000000" fill-opacity="0.85"/>
  <path d="M38.8637 112.028C54.2191 127.35 72.6381 125.844 85.7802 112.735C96.6454 101.821 99.0092 89.5327 92.5692 74.3858C89.5946 66.9131 85.5234 59.1826 80.8456 50.7041C79.3466 47.834 77.5561 44.3369 76.2895 43.104C74.5248 41.3394 72.0883 41.5127 70.3017 43.2842C68.4677 45.1182 68.3383 47.437 69.7714 51.3814L75.5141 66.3496C76.2851 68.1846 76.036 69.2974 75.3441 69.9893C74.5092 70.8242 73.309 70.9673 71.8612 69.5195L36.8905 34.5151C34.9911 32.6494 31.8793 32.6494 30.0136 34.5151C28.1141 36.4146 28.1141 39.4927 30.0136 41.3921L54.8329 66.2114C53.3969 66.7822 51.9726 67.5938 50.5634 68.5029L21.2001 39.1245C19.3495 37.2402 16.2225 37.2402 14.3231 39.1245C12.4725 41.0239 12.4725 44.1172 14.3231 46.0166L43.2807 74.959C42.1527 76.2974 41.0736 77.7183 40.1039 79.0903L13.9696 52.9561C12.0702 51.0718 8.99208 51.0718 7.09266 52.9561C5.22694 54.8555 5.22694 57.9487 7.09266 59.833L35.4682 88.1748C34.7577 90.0318 34.3368 91.7979 34.0404 93.4512L14.3651 73.791C12.5145 71.8916 9.38758 71.8916 7.48817 73.791C5.63758 75.6753 5.63758 78.7349 7.48817 80.6343Z" fill="#000000" fill-opacity="0.85"/>
 </g>
</svg>
