<?xml version="1.0" encoding="UTF-8"?>
<!--Generator: Apple Native CoreSVG 232.5-->
<!DOCTYPE svg
PUBLIC "-//W3C//DTD SVG 1.1//EN"
       "http://www.w3.org/Graphics/SVG/1.1/DTD/svg11.dtd">
<svg version="1.1" xmlns="http://www.w3.org/2000/svg" xmlns:xlink="http://www.w3.org/1999/xlink" width="112.836" height="110.588">
 <g>
  <rect height="110.588" opacity="0" width="112.836" x="0" y="0"/>
  <path d="M83.4976 20.0586L83.4976 21.4185L43.7319 21.4185C31.0757 21.4185 23.6665 28.7266 23.6665 41.3491L23.6665 83.6406L20.0503 83.6406C10.5112 83.6406 5.64161 78.8047 5.64161 69.3667L5.64161 20.0586C5.64161 10.6206 10.5112 5.78468 20.0503 5.78468L69.104 5.78468C78.5943 5.78468 83.4976 10.666 83.4976 20.0586Z" fill="#000000" fill-opacity="0.85"/>
  <path d="M107.179 41.3491L107.179 90.6573C107.179 100.05 102.276 104.931 92.7857 104.931L43.7319 104.931C34.1929 104.931 29.3233 100.095 29.3233 90.6573L29.3233 41.3491C29.3233 31.8775 34.1929 27.0752 43.7319 27.0752L92.7857 27.0752C102.276 27.0752 107.179 31.9414 107.179 41.3491ZM65.7803 39.7735L65.7803 61.8355C64.8325 61.8994 63.8999 62.0274 63.0464 62.189L63.0464 42.3374C63.0464 40.8472 61.8189 39.6533 60.396 39.6533C58.9395 39.6533 57.6968 40.8472 57.6968 42.3374L57.6968 63.9385C56.7119 64.3072 56.0049 64.8072 55.2759 65.2735L55.2759 50.4243C55.2759 49.0015 54.0484 47.7739 52.6441 47.7739C51.0864 47.7739 49.9414 49.0015 49.9414 50.4243L49.9414 74.3789C49.9414 86.0552 57.4136 92.6255 67.6426 92.6255C75.6856 92.6255 81.5142 89.0313 84.8936 80.417C86.6719 76.4082 88.0156 71.8604 89.4453 66.92C89.9473 65.2373 90.6211 63.2901 90.6211 62.357C90.6211 60.9527 89.5772 60.0669 88.1846 60.0669C86.7632 60.0669 85.8843 60.9141 84.8872 62.9468L81.3159 70.8784C80.9624 71.8565 80.4844 72.1831 79.9727 72.1831C79.232 72.1831 78.8062 71.7168 78.8062 70.6934L78.8062 43.999C78.8062 42.5762 77.6089 41.3823 76.1558 41.3823C74.6655 41.3823 73.4717 42.5762 73.4717 43.999L73.4717 62.8809C72.7612 62.6099 71.9043 62.3692 71.0996 62.1099L71.0996 39.7735C71.0996 38.3169 69.8872 37.1231 68.4644 37.1231C66.9404 37.1231 65.7803 38.3169 65.7803 39.7735Z" fill="#000000" fill-opacity="0.85"/>
 </g>
</svg>
