<?xml version="1.0" encoding="UTF-8"?>
<!--Generator: Apple Native CoreSVG 232.5-->
<!DOCTYPE svg
PUBLIC "-//W3C//DTD SVG 1.1//EN"
       "http://www.w3.org/Graphics/SVG/1.1/DTD/svg11.dtd">
<svg version="1.1" xmlns="http://www.w3.org/2000/svg" xmlns:xlink="http://www.w3.org/1999/xlink" width="105.612" height="80.9167">
 <g>
  <rect height="80.9167" opacity="0" width="105.612" x="0" y="0"/>
  <path d="M105.612 46.0423C105.612 28.6991 96.2739 16.495 78.2617 10.1131L52.084 0.852872C50.5532 0.278653 48.7295-0.0177341 47.3672 0.000820829C42.127-0.0143158 39.0591 4.06235 39.0591 8.72495C39.1079 12.1297 41.1167 15.0174 45.0112 16.6659L55.897 21.0677C56.1377 21.1468 56.2505 21.3573 56.2505 21.5526C56.2505 21.8304 56.0889 21.9432 55.8447 21.9432L11.1035 21.9432C5.04493 21.9432 1.2207 25.9373 1.2207 31.4354C1.2207 36.8426 5.04493 40.8822 11.1035 40.8822L28.7651 40.8822C28.3779 42.224 28.1372 43.5809 28.1372 44.8285C28.1372 49.1507 30.5703 52.4022 34.4448 53.5389C33.9751 55.0458 33.6519 56.62 33.6519 58.1825C33.6519 62.37 35.9468 65.3739 39.6006 66.4701C39.6831 75.6434 46.3291 80.8651 58.1152 80.8651L68.5703 80.8651C92.3028 80.8651 105.612 66.4808 105.612 46.0423ZM100.186 46.2445C100.186 63.8905 88.9395 75.5008 68.0278 75.5008L58.7925 75.5008C49.957 75.5008 45.0576 72.6102 45.0576 67.3241L51.3106 67.3241C52.9995 67.3241 54.0152 66.1468 54.0152 64.786C54.0152 63.4251 52.9995 62.1468 51.3106 62.1468L43.8628 62.1468C40.7266 62.1468 38.8394 60.4364 38.8394 57.5155C38.8394 56.433 39.1138 55.0458 39.5835 53.9852L49.3423 53.9852C51.065 53.9852 52.062 52.7743 52.062 51.4134C52.062 50.0526 51.065 48.8416 49.3423 48.8416L38.3516 48.8416C35.1817 48.8416 33.2759 47.079 33.2759 44.1766C33.2759 43.079 33.5991 41.722 34.02 40.6952L47.4194 40.6952C48.8897 40.6952 50.1089 39.5599 50.1089 38.1234C50.1089 36.6043 48.8897 35.4842 47.4194 35.4842L10.7817 35.4842C8.17921 35.4842 6.35939 33.9168 6.35939 31.4354C6.35939 28.9725 8.17921 27.3412 10.7817 27.3412L62.4873 27.3412C64.646 27.3412 66.0825 25.9032 66.0825 23.9515C66.0825 22.2962 65.3281 20.8666 63.1372 19.8763L47.3457 13.1395C45.3189 12.3011 44.1236 11.0335 44.1236 9.20005C44.1236 6.90708 45.8189 5.34653 47.8677 5.34653C48.8223 5.34653 49.5513 5.47446 50.3594 5.78257L76.4883 15.0614C92.8789 20.8876 100.186 31.8285 100.186 46.2445Z" fill="#000000" fill-opacity="0.85"/>
 </g>
</svg>
