<?xml version="1.0" encoding="UTF-8"?>
<!--Generator: Apple Native CoreSVG 232.5-->
<!DOCTYPE svg
PUBLIC "-//W3C//DTD SVG 1.1//EN"
       "http://www.w3.org/Graphics/SVG/1.1/DTD/svg11.dtd">
<svg version="1.1" xmlns="http://www.w3.org/2000/svg" xmlns:xlink="http://www.w3.org/1999/xlink" width="102.648" height="78.3389">
 <g>
  <rect height="78.3389" opacity="0" width="102.648" x="0" y="0"/>
  <path d="M102.648 44.5723C102.648 28.7749 93.71 15.6714 74.374 9.19678L49.085 0.869143C48.1944 0.51221 47.2666 0.283206 46.1704 0.283206C43.2256 0.283206 40.833 2.39649 40.833 5.92725C40.833 8.10108 41.9258 9.81006 44.5777 10.9634L61.9575 18.4712C63.2862 19.0117 63.7139 19.7139 63.7139 20.4834C63.7139 21.396 62.9932 22.2295 61.7471 22.2295L7.44385 22.2295C3.63525 22.2295 1.2207 24.6372 1.2207 27.9492C1.2207 31.187 3.63525 33.5864 7.44385 33.5864L45.4365 33.5864C47.1543 33.5864 48.0435 34.4605 48.0435 35.6157C48.0435 36.6548 47.1543 37.5776 45.4365 37.5776L33.5127 37.5776C31.8037 37.5776 30.876 38.5542 30.876 40.5562C30.876 44.9658 33.6929 48.4663 39.6314 48.4663L45.4365 48.4663C47.1543 48.4663 48.0435 49.3403 48.0435 50.4956C48.0435 51.5498 47.1543 52.4575 45.4365 52.4575L39.1919 52.4575C37.419 52.4575 36.5889 53.3853 36.5889 55.4361C36.5889 60.0259 40.0557 63.395 45.3628 63.395L48.4976 63.395C50.249 63.395 51.1045 64.3179 51.1045 65.4243C51.1045 66.4785 50.249 67.3863 48.4976 67.3863L43.8491 67.3863C42.79 67.3863 42.2041 68.021 42.2041 69.1104C42.2041 73.9781 47.646 78.3389 56.5733 78.3389L65.6577 78.3389C89.6709 78.3389 102.648 66.3687 102.648 44.5723Z" fill="#000000" fill-opacity="0.85"/>
 </g>
</svg>
