<?xml version="1.0" encoding="UTF-8"?>
<!--Generator: Apple Native CoreSVG 232.5-->
<!DOCTYPE svg
PUBLIC "-//W3C//DTD SVG 1.1//EN"
       "http://www.w3.org/Graphics/SVG/1.1/DTD/svg11.dtd">
<svg version="1.1" xmlns="http://www.w3.org/2000/svg" xmlns:xlink="http://www.w3.org/1999/xlink" width="76.997" height="99.8135">
 <g>
  <rect height="99.8135" opacity="0" width="76.997" x="0" y="0"/>
  <path d="M33.1408 0.348634C13.6823 0.348634 0.000175236 13.0352 0.000175236 35.6445L0.000175236 45.5928C0.000175236 56.8418 4.95916 63.1763 13.7082 63.2588C14.7404 66.7173 17.5793 68.9146 21.6052 68.9146C23.0851 68.9146 24.5466 68.6402 26.0046 68.1367C27.1076 71.8496 30.1789 74.1665 34.2907 74.1665C35.5046 74.1665 36.7975 73.9595 38.0905 73.5723L38.0905 90.4224C38.0905 96.1358 41.9348 99.8135 47.0456 99.8135C52.281 99.8135 56.0949 96.1358 56.0949 90.4224L56.0949 47.7891C56.0949 47.545 56.2414 47.3496 56.4855 47.3496C56.6657 47.3496 56.8273 47.4961 56.9064 47.7217L61.1164 58.0772C62.7009 61.8101 65.4572 63.7398 68.6818 63.7549C73.1306 63.7549 77.0271 60.8486 76.9968 55.8711C76.9816 54.5576 76.7189 52.8316 76.2087 51.3345L67.3728 26.4229C61.3176 9.2627 49.6354 0.348634 33.1408 0.348634ZM32.9724 5.55812C46.7048 5.55812 57.1237 12.4927 62.6569 28.0986L71.4963 52.9917C71.7707 53.7695 71.9323 54.4649 71.9323 55.3706C71.9323 57.3066 70.4357 58.9229 68.2556 58.9229C66.5046 58.9229 65.301 57.7764 64.4777 55.8438L58.0187 40.8335C57.1262 38.7251 55.779 38.0044 54.2062 38.0044C52.3522 38.0044 50.9631 39.3887 50.9631 41.4683L50.9631 90.7105C50.9631 93.1851 49.3957 94.8921 47.0456 94.8921C44.7106 94.8921 43.2224 93.1851 43.2224 90.7105L43.2224 55.8189C43.2224 54.3975 42.1208 53.2456 40.6994 53.2456C39.2814 53.2456 38.2775 54.3975 38.2775 55.8189L38.2775 68.5498C37.2658 68.9707 35.9914 69.2451 34.924 69.2451C32.1496 69.2451 30.5031 67.4707 30.5031 64.4287L30.5031 53.9785C30.5031 52.3384 29.341 51.3901 28.0139 51.3901C26.7355 51.3901 25.5583 52.3384 25.5583 53.9785L25.5583 63.2979C24.5466 63.7188 23.2722 63.9932 22.2385 63.9932C19.4304 63.9932 17.8176 62.2188 17.8176 59.1768L17.8176 52.0894C17.8176 50.4829 16.6218 49.5347 15.2946 49.5347C14.0163 49.5347 12.8727 50.4829 12.8727 52.0894L12.8727 58.0679C7.87616 58.0679 5.09833 53.4126 5.09833 44.9492L5.09833 36.1685C5.09833 16.2822 16.175 5.55812 32.9724 5.55812Z" fill="#000000" fill-opacity="0.85"/>
 </g>
</svg>
