<?xml version="1.0" encoding="UTF-8"?>
<!--Generator: Apple Native CoreSVG 232.5-->
<!DOCTYPE svg
PUBLIC "-//W3C//DTD SVG 1.1//EN"
       "http://www.w3.org/Graphics/SVG/1.1/DTD/svg11.dtd">
<svg version="1.1" xmlns="http://www.w3.org/2000/svg" xmlns:xlink="http://www.w3.org/1999/xlink" width="88.0713" height="88.1201">
 <g>
  <rect height="88.1201" opacity="0" width="88.0713" x="0" y="0"/>
  <path d="M82.6309 5.48926C87.1421 9.98536 88.0713 16.2227 88.0713 25.1021L88.0713 62.9356C88.0713 71.8149 87.1421 78.0557 82.6309 82.5669C78.1196 87.0933 71.7998 88.0713 62.9356 88.0713L25.1021 88.0713C16.2715 88.0713 9.98194 87.0933 5.44043 82.5669C0.929198 78.0859 0 71.8149 0 62.9356L0 24.8228C0 16.2866 0.944334 10.0308 5.47071 5.51953C9.98194 0.993162 16.3169 0 24.8228 0L62.9356 0C71.7998 0 78.0894 0.978026 82.6309 5.48926ZM41.7974 14.2661L41.7974 39.3267C40.752 39.4092 39.71 39.5371 38.7437 39.7139L38.7437 17.1348C38.7437 15.4829 37.3208 14.1426 35.669 14.1426C34.0322 14.1426 32.6431 15.4829 32.6431 17.1348L32.6431 41.6924C31.564 42.1738 30.6953 42.7227 29.8872 43.2681L29.8872 26.3901C29.8872 24.7383 28.4946 23.3457 26.8613 23.3457C25.1421 23.3457 23.7681 24.7383 23.7681 26.3901L23.7681 53.5874C23.7681 66.8159 32.3262 74.2988 43.9038 74.2988C53.0781 74.2988 59.6963 70.1895 63.5674 60.4053C65.541 55.8477 67.1138 50.7324 68.7236 45.0747C69.3081 43.1748 70.0679 40.9766 70.0679 39.9273C70.0679 38.3765 68.8926 37.3442 67.3198 37.3442C65.6846 37.3442 64.6406 38.2739 63.5459 40.603L59.52 49.6509C59.0874 50.7905 58.4966 51.1138 57.936 51.1138C57.1499 51.1138 56.6265 50.6172 56.6265 49.4507L56.6265 19.1045C56.6265 17.4526 55.2676 16.0786 53.6343 16.0786C51.9487 16.0786 50.6084 17.4526 50.6084 19.1045L50.6084 40.5337C49.7363 40.2324 48.8003 39.9092 47.8491 39.6348L47.8491 14.2661C47.8491 12.648 46.5239 11.2251 44.8384 11.2251C43.1528 11.2251 41.7974 12.648 41.7974 14.2661Z" fill="#000000" fill-opacity="0.85"/>
 </g>
</svg>
