<?xml version="1.0" encoding="UTF-8"?>
<!--Generator: Apple Native CoreSVG 232.5-->
<!DOCTYPE svg
PUBLIC "-//W3C//DTD SVG 1.1//EN"
       "http://www.w3.org/Graphics/SVG/1.1/DTD/svg11.dtd">
<svg version="1.1" xmlns="http://www.w3.org/2000/svg" xmlns:xlink="http://www.w3.org/1999/xlink" width="120.058" height="102.781">
 <g>
  <rect height="102.781" opacity="0" width="120.058" x="0" y="0"/>
  <path d="M0 85.9688C0 90.9546 3.35596 95.1797 9.58106 95.1797L110.51 95.1797C116.735 95.1797 120.058 90.9546 120.058 85.9688C120.058 82.3198 118.007 78.5025 114.141 76.3403L60.0532 46.1167L5.93213 76.3403C2.05078 78.5025 0 82.3198 0 85.9688ZM6.1089 85.6655C6.1089 84.0176 7.00099 82.5313 9.00929 81.4219L60.0532 52.9937L111.097 81.4219C113.09 82.5313 113.982 84.0176 113.982 85.6655C113.982 87.6787 112.643 89.2022 109.771 89.2022L10.2866 89.2022C7.46388 89.2022 6.1089 87.6787 6.1089 85.6655ZM57.1074 49.022L62.9502 49.022L62.9502 44.7393C62.9502 39.815 65.6436 37.7427 69.4976 34.6665C73.5586 31.4136 79.2066 27.2241 79.2066 17.9815C79.2066 7.18653 71.6294 0 60.2974 0C49.0781 0 41.5986 7.91895 41.5986 19.7881C41.5986 21.6172 42.8315 22.8501 44.4771 22.8501C46.0737 22.8501 47.3067 21.6172 47.3067 20.1099C47.3067 11.4981 52.5225 5.74171 60.2974 5.74171C68.2188 5.74171 73.5171 10.6309 73.5171 17.9815C73.5171 24.2817 70.1094 27.1826 66.6074 29.9893C62.2769 33.4595 57.1074 36.5659 57.1074 44.7393Z" fill="#000000" fill-opacity="0.85"/>
 </g>
</svg>
