<?xml version="1.0" encoding="UTF-8"?>
<!--Generator: Apple Native CoreSVG 232.5-->
<!DOCTYPE svg
PUBLIC "-//W3C//DTD SVG 1.1//EN"
       "http://www.w3.org/Graphics/SVG/1.1/DTD/svg11.dtd">
<svg version="1.1" xmlns="http://www.w3.org/2000/svg" xmlns:xlink="http://www.w3.org/1999/xlink" width="97.9595" height="97.9932">
 <g>
  <rect height="97.9932" opacity="0" width="97.9595" x="0" y="0"/>
  <path d="M48.9722 97.9443C75.8247 97.9443 97.9595 75.7759 97.9595 48.9722C97.9595 22.1348 75.791 0 48.9385 0C22.1348 0 0 22.1348 0 48.9722C0 75.7759 22.1685 97.9443 48.9722 97.9443ZM48.9722 91.6113C25.3501 91.6113 6.36671 72.5942 6.36671 48.9722C6.36671 25.3501 25.3164 6.31789 48.9385 6.31789C72.5605 6.31789 91.6265 25.3501 91.6265 48.9722C91.6265 72.5942 72.5942 91.6113 48.9722 91.6113Z" fill="#000000" fill-opacity="0.85"/>
  <path d="M50.6592 69.8252C52.2554 69.8252 53.8228 69.0288 56.7744 69.0288C59.7378 69.0288 60.5981 69.8252 62.9048 69.8252C66.3648 69.8252 68.1831 68.4766 68.1831 66.2656C68.1831 62.2734 63.5347 59.5913 56.7407 59.5913C53.3565 59.5913 51.7637 59.8843 49.8897 60.3574L47.4331 54.7876C44.9531 49.0615 40.8921 45.7007 35.3745 45.7007L32.6704 45.7007C31.7915 45.7007 31.251 45.3589 31.251 44.5254C31.251 43.1851 33.1704 42.8281 35.1607 42.8281C41.8618 42.8281 46.8237 46.5356 49.8696 53.9541L51.4624 57.8989C52.9912 57.5454 54.7607 57.4292 56.5303 57.4292C57.8789 57.4292 58.918 57.4814 60.2481 57.6733C61.6641 56.6328 63.2568 55.4526 65.4609 54.0186C68.0791 56.064 71.3232 57.3569 74.6299 57.3569C80.8496 57.3569 83.6816 55.9258 83.6816 50.1807C83.6816 42.6245 77.9424 37.0078 71.2847 37.3477L65.144 28.9175C61.8506 24.3984 57.6128 22.186 53.4087 22.186C50.0093 22.186 45.2173 24.1055 45.2173 26.7944C45.2173 28.6802 48.8189 31.083 51.7905 32.8257L65.2734 40.8335C63.8242 42.249 62.7451 42.8618 61.6221 42.8618C59.8911 42.8618 58.2173 42.0332 55.4375 40.3765C48.3457 36.3237 42.835 32.251 35.4385 32.251C27.7002 32.251 21.8442 36.6455 18.7075 45.0962C16.2056 45.1904 14.335 46.7378 14.335 49.1607C14.335 51.8394 16.4497 53.4692 19.4214 53.5483C22.7114 58.251 28.1987 60.1787 34.8862 60.1787C35.2129 60.1787 35.5698 60.145 35.8779 60.145L45.2007 67.5571C47.457 69.3623 48.8862 69.8252 50.6592 69.8252ZM33.5347 71.2837C37.8989 71.2837 40.6904 70.5293 43.0239 69.0156L35.7959 63.2017C35.4204 63.2017 35.0635 63.2354 34.5449 63.2354C33.5278 63.2354 31.501 62.9575 29.6504 62.9575C27.0474 62.9575 25.6362 64.2456 25.6362 66.2207C25.6362 69.2817 28.5459 71.2837 33.5347 71.2837ZM73.8926 48.9097C72.9126 48.9097 72.1465 48.0122 72.1465 47.0996C72.1465 46.0708 72.9614 45.2373 73.9111 45.2373C74.9365 45.2373 75.6875 46.022 75.6875 46.9834C75.6875 47.9482 74.8574 48.9097 73.8926 48.9097Z" fill="#000000" fill-opacity="0.85"/>
 </g>
</svg>
