<?xml version="1.0" encoding="UTF-8"?>
<!--Generator: Apple Native CoreSVG 232.5-->
<!DOCTYPE svg
PUBLIC "-//W3C//DTD SVG 1.1//EN"
       "http://www.w3.org/Graphics/SVG/1.1/DTD/svg11.dtd">
<svg version="1.1" xmlns="http://www.w3.org/2000/svg" xmlns:xlink="http://www.w3.org/1999/xlink" width="101.587" height="93.2803">
 <g>
  <rect height="93.2803" opacity="0" width="101.587" x="0" y="0"/>
  <path d="M17.6519 79.5307L83.8862 79.5307C85.9487 79.5307 87.1626 77.5542 86.0615 75.6265L53.0293 17.5376C51.9434 15.6553 49.6099 15.6553 48.5391 17.5376L15.4917 75.6265C14.357 77.5879 15.5894 79.5307 17.6519 79.5307ZM24.1934 73.8076C23.6529 73.8076 23.3716 73.3462 23.6495 72.8545L50.2495 26.0967C50.4971 25.605 51.0747 25.605 51.3374 26.0967L77.9038 72.8545C78.1816 73.3462 77.9155 73.8076 77.3598 73.8076Z" fill="#000000" fill-opacity="0.85"/>
  <path d="M12.3008 92.3496L89.2861 92.3496C96.9663 92.3496 101.587 86.9814 101.587 80.207C101.587 77.9575 100.934 75.6255 99.7129 73.4619L61.2168 6.05372C58.8897 1.9585 54.877 0 50.7935 0C46.6948 0 42.6484 1.9585 40.355 6.05372L1.87402 73.4619C0.570801 75.6592 0 77.9575 0 80.207C0 86.9814 4.60547 92.3496 12.3008 92.3496ZM12.3496 86.4092C8.37159 86.4092 6.1089 83.5151 6.1089 80.1431C6.1089 78.9429 6.41017 77.5288 7.09864 76.2461L45.5308 8.90187C46.6924 6.85304 48.7749 6.04152 50.7935 6.04152C52.812 6.04152 54.8457 6.85304 56.0073 8.90187L94.4394 76.2798C95.1431 77.5625 95.4629 78.9429 95.4629 80.1431C95.4629 83.5151 93.1328 86.4092 89.2036 86.4092Z" fill="#000000" fill-opacity="0.85"/>
 </g>
</svg>
