<?xml version="1.0" encoding="UTF-8"?>
<!--Generator: Apple Native CoreSVG 232.5-->
<!DOCTYPE svg
PUBLIC "-//W3C//DTD SVG 1.1//EN"
       "http://www.w3.org/Graphics/SVG/1.1/DTD/svg11.dtd">
<svg version="1.1" xmlns="http://www.w3.org/2000/svg" xmlns:xlink="http://www.w3.org/1999/xlink" width="97.4463" height="101.173">
 <g>
  <rect height="101.173" opacity="0" width="97.4463" x="0" y="0"/>
  <path d="M0 52.4678C0 67.0288 4.20264 83.0278 11.3198 95.4893C12.2227 97.0894 13.9878 97.5239 15.6856 96.5908C17.2217 95.7402 17.6563 93.9902 16.6592 92.1948C10.0557 80.1597 6.33302 65.7539 6.33302 52.4678C6.33302 24.8384 23.3096 6.33302 48.7232 6.33302C74.103 6.33302 91.1133 24.8384 91.1133 52.4678C91.1133 65.7539 87.3569 80.1597 80.7383 92.1948C79.7563 93.9902 80.1909 95.7402 81.7271 96.5908C83.4097 97.5239 85.2236 97.0894 86.0928 95.4893C93.21 83.0278 97.4463 67.0288 97.4463 52.4678C97.4463 20.8838 78.061 0 48.7232 0C19.3516 0 0 20.8838 0 52.4678ZM13.6636 94.1929C15.1841 99.2632 19.4243 101.518 24.5738 100.013C29.6138 98.5225 31.9478 94.1694 30.4087 89.0689L23.1992 65.3164C21.6939 60.2798 17.4536 57.9912 12.2891 59.4966C7.24904 61.0205 4.91505 65.3399 6.45412 70.4741ZM83.7339 94.1929L90.9585 70.4741C92.4976 65.3062 90.1973 61.0205 85.1235 59.4966C79.959 57.9912 75.7524 60.2798 74.2134 65.3164L67.0039 89.0689C65.4648 94.2031 67.7988 98.5225 72.8389 100.013C78.022 101.518 82.2285 99.2632 83.7339 94.1929Z" fill="#000000" fill-opacity="0.85"/>
 </g>
</svg>
