<?xml version="1.0" encoding="UTF-8"?>
<!--Generator: Apple Native CoreSVG 232.5-->
<!DOCTYPE svg
PUBLIC "-//W3C//DTD SVG 1.1//EN"
       "http://www.w3.org/Graphics/SVG/1.1/DTD/svg11.dtd">
<svg version="1.1" xmlns="http://www.w3.org/2000/svg" xmlns:xlink="http://www.w3.org/1999/xlink" width="123.24" height="84.0219">
 <g>
  <rect height="84.0219" opacity="0" width="123.24" x="0" y="0"/>
  <path d="M2.99805 20.5515C1.39795 20.5515 0 21.9646 0 23.5984C0 25.2624 1.43164 26.5964 2.99805 26.5964L38.6123 26.6301C38.8784 24.6477 39.1446 22.5676 39.5454 20.5515ZM2.99805 38.9548C1.39795 38.9548 0 40.3747 0 42.0202C0 43.654 1.39795 44.9846 2.99805 44.9846L37.8565 44.9846C37.8228 43.7805 37.8228 40.1926 37.8565 38.9548ZM2.99805 57.3767C1.39795 57.3767 0 58.7629 0 60.4084C0 62.0422 1.39795 63.4065 2.99805 63.4065L39.5454 63.4402C39.1446 61.3904 38.8784 59.3591 38.6123 57.4104ZM16.3496 78.7136C13.2319 81.821 17.4038 85.9241 20.5737 82.9328C29.3604 73.9148 30.9654 57.7234 25.0532 42.6394L24.2163 40.4773C18.8906 26.7937 19.6519 12.7517 26.5923 5.24435C29.71 2.15206 25.5718-1.95098 22.3345 1.04024C13.5479 10.092 11.9614 26.216 17.8887 41.3L18.7593 43.4621C24.1187 57.198 23.3237 71.1877 16.3496 78.7136Z" fill="#000000" fill-opacity="0.85"/>
  <path d="M43.4795 41.9865C43.397 51.8039 44.2237 60.6101 46.7207 69.4148C49.4873 78.883 55.3179 82.4021 66.3843 82.4021L68.816 82.4021C96.9336 82.4021 123.24 63.7712 123.24 41.9865C123.24 20.2019 96.9336 1.48849 68.816 1.48849L66.3843 1.48849C55.3516 1.48849 49.521 5.04122 46.7207 14.5246C44.2237 23.363 43.397 32.1692 43.4795 41.9865ZM49.5093 41.9865C49.4605 31.4582 50.3545 23.7839 52.5181 16.1921C54.3819 9.92404 58.5367 7.49973 66.3843 7.49973L68.816 7.49973C93.4068 7.49973 117.21 23.6345 117.21 41.9865C117.21 60.3386 93.4068 76.406 68.816 76.406L66.3843 76.406C58.3028 76.406 54.3028 73.8757 52.5181 67.781C50.3545 60.174 49.4605 52.5149 49.5093 41.9865Z" fill="#000000" fill-opacity="0.85"/>
 </g>
</svg>
