<?xml version="1.0" encoding="UTF-8"?>
<!--Generator: Apple Native CoreSVG 232.5-->
<!DOCTYPE svg
PUBLIC "-//W3C//DTD SVG 1.1//EN"
       "http://www.w3.org/Graphics/SVG/1.1/DTD/svg11.dtd">
<svg version="1.1" xmlns="http://www.w3.org/2000/svg" xmlns:xlink="http://www.w3.org/1999/xlink" width="97.9595" height="97.9932">
 <g>
  <rect height="97.9932" opacity="0" width="97.9595" x="0" y="0"/>
  <path d="M97.9595 49.021C97.9595 75.8584 75.8247 97.9932 48.9722 97.9932C22.1685 97.9932 0 75.8584 0 49.021C0 22.2173 22.1348 0.0488281 48.9385 0.0488281C75.791 0.0488281 97.9595 22.2173 97.9595 49.021ZM22.335 48.9268C22.335 57.7485 24.5205 65.3384 28.3174 71.9673C29.0786 73.291 30.4126 73.8955 31.728 73.624C32.9439 74.8467 34.7222 75.2627 36.6958 74.6211C39.7622 73.7876 41.1582 71.1792 40.2422 68.1465L36.4624 55.6162C35.5313 52.5347 32.9531 51.1353 29.8565 52.0513C29.1138 52.2988 28.4234 52.6289 27.8794 53.0415C27.7178 51.6997 27.7027 50.3394 27.7027 48.9268C27.7027 34.9658 36.2354 25.6216 49.0059 25.6216C61.8101 25.6216 70.3765 34.9995 70.3765 48.9268C70.3765 50.3394 70.3276 51.7334 70.1997 53.1089C69.6558 52.6626 68.9316 52.2988 68.1216 52.0513C65.0923 51.1353 62.5142 52.5347 61.5981 55.6162L57.7847 68.1802C56.8872 71.2129 58.2495 73.7876 61.3311 74.6211C63.3232 75.229 65.0679 74.8467 66.2988 73.624C67.6143 73.8955 68.9483 73.291 69.728 71.9673C73.5586 65.2036 75.7442 57.6475 75.7442 48.9268C75.7442 31.7676 65.0454 20.2539 49.0059 20.2539C33.0151 20.2539 22.335 31.7339 22.335 48.9268Z" fill="#000000" fill-opacity="0.85"/>
 </g>
</svg>
