<?xml version="1.0" encoding="UTF-8"?>
<!--Generator: Apple Native CoreSVG 232.5-->
<!DOCTYPE svg
PUBLIC "-//W3C//DTD SVG 1.1//EN"
       "http://www.w3.org/Graphics/SVG/1.1/DTD/svg11.dtd">
<svg version="1.1" xmlns="http://www.w3.org/2000/svg" xmlns:xlink="http://www.w3.org/1999/xlink" width="88.4092" height="88.5371">
 <g>
  <rect height="88.5371" opacity="0" width="88.4092" x="0" y="0"/>
  <path d="M88.4092 14.4019L88.4092 74.2632C88.4092 83.6558 83.5733 88.5371 74.0005 88.5371L14.3936 88.5371C4.86963 88.5371 0 83.7349 0 74.2632L0 14.4019C0 4.93018 4.86963 0.127929 14.3936 0.127929L74.0005 0.127929C83.5733 0.127929 88.4092 5.00928 88.4092 14.4019ZM17.4609 68.7705C16.0176 68.7705 14.9902 69.8315 14.9902 71.1924C14.9902 72.5195 16.0176 73.5806 17.4609 73.5806L53.5064 73.5806C54.9312 73.5806 55.9585 72.5195 55.9585 71.1924C55.9585 69.8315 54.9312 68.7705 53.5064 68.7705ZM17.4609 52.4346C16.0176 52.4346 14.9902 53.4956 14.9902 54.8228C14.9902 56.1836 16.0176 57.2446 17.4609 57.2446L67.0176 57.2446C68.3936 57.2446 69.4209 56.1836 69.4209 54.8228C69.4209 53.4956 68.3936 52.4346 67.0176 52.4346ZM28.0137 16.8105C26.8384 14.6553 24.7305 13.0356 22.0635 13.0356C17.999 13.0356 14.9902 16.2061 14.9902 20.4575C14.9902 27.1836 22.2349 33.1738 26.9932 36.2134C27.3721 36.4458 27.7695 36.6748 28.0474 36.6748C28.3437 36.6748 28.7378 36.4424 29.1318 36.2134C33.8516 33.3188 41.0859 27.1836 41.0859 20.4575C41.0859 16.2061 38.062 13.0356 33.8965 13.0356C31.3794 13.0356 29.2344 14.6553 28.0137 16.8105Z" fill="#000000" fill-opacity="0.85"/>
 </g>
</svg>
