<?xml version="1.0" encoding="UTF-8"?>
<!--Generator: Apple Native CoreSVG 232.5-->
<!DOCTYPE svg
PUBLIC "-//W3C//DTD SVG 1.1//EN"
       "http://www.w3.org/Graphics/SVG/1.1/DTD/svg11.dtd">
<svg version="1.1" xmlns="http://www.w3.org/2000/svg" xmlns:xlink="http://www.w3.org/1999/xlink" width="113.399" height="108.649">
 <g>
  <rect height="108.649" opacity="0" width="113.399" x="0" y="0"/>
  <path d="M17.7396 28.9711C16.0731 32.2418 15.1493 36.1366 15.1493 40.4816C15.1493 58.7819 34.2479 78.1349 55.8573 92.4962C56.2396 92.7775 56.5209 92.9762 56.6825 92.9762C56.8778 92.9762 57.1742 92.7775 57.5565 92.4962C62.2878 89.3497 66.9 85.9635 71.2002 82.3906L75.5281 86.7151C70.7423 90.6471 65.4281 94.4755 59.702 98.1842C58.7943 98.7282 57.5717 99.2907 56.6825 99.2907C55.827 99.2907 54.5707 98.7282 53.7118 98.1842C26.8842 80.818 9.10438 60.8283 9.10438 40.4816C9.10438 34.4135 10.6212 28.9831 13.3057 24.5406ZM104.294 40.4816C104.294 52.5879 97.9998 64.5678 87.2166 75.9389L82.8267 71.5508C92.1077 61.5934 98.2645 50.8679 98.2645 40.4816C98.2645 27.0543 89.4271 17.9274 77.4447 17.9274C68.4198 17.9274 62.9027 23.6168 59.4125 29.1437C58.2992 30.715 57.6727 31.2252 56.6825 31.2252C55.726 31.2252 55.0321 30.7487 54.0014 29.1437C50.6308 23.5495 45.0277 17.9274 35.9203 17.9274C33.8406 17.9274 31.8557 18.2039 30.0035 18.7479L25.2777 14.0239C28.5239 12.6429 32.134 11.8976 35.9877 11.8976C44.8427 11.8976 52.5487 16.4552 56.6825 23.422C60.8837 16.4215 68.556 11.8976 77.3925 11.8976C92.7924 11.8976 104.294 23.7716 104.294 40.4816Z" fill="#000000" fill-opacity="0.85"/>
  <path d="M93.2543 97.3273C94.3861 98.508 96.2675 98.508 97.3808 97.3273C98.5277 96.1803 98.5126 94.3815 97.3808 93.2008L10.0214 5.87513C8.90468 4.75843 7.04188 4.72815 5.86121 5.87513C4.74793 6.98841 4.74793 8.90346 5.86121 10.0016Z" fill="#000000" fill-opacity="0.85"/>
 </g>
</svg>
