<?xml version="1.0" encoding="UTF-8"?>
<!--Generator: Apple Native CoreSVG 232.5-->
<!DOCTYPE svg
PUBLIC "-//W3C//DTD SVG 1.1//EN"
       "http://www.w3.org/Graphics/SVG/1.1/DTD/svg11.dtd">
<svg version="1.1" xmlns="http://www.w3.org/2000/svg" xmlns:xlink="http://www.w3.org/1999/xlink" width="77.0762" height="111.86">
 <g>
  <rect height="111.86" opacity="0" width="77.0762" x="0" y="0"/>
  <path d="M3.72607 81.1533C3.72607 94.0396 11.9277 102.376 24.5479 102.376C34.2109 102.376 41.52 97.8067 45.9922 89.3394L49.6753 82.4771C60.0689 62.3428 77.0762 61.1577 77.0762 37.3023C77.0762 14.8897 62.6445 0 40.9307 0C18.7856 0 3.72607 15.1992 3.72607 37.6792ZM9.44923 80.8315L9.44923 37.6792C9.44923 18.5156 22.0684 5.70802 40.9307 5.70802C59.1733 5.70802 71.353 18.4248 71.353 37.3023C71.353 58.0654 55.272 60.1431 44.5972 79.853L40.9243 86.4624C37.3213 93.168 31.9424 96.5332 24.7837 96.5332C15.3721 96.5332 9.44923 90.4605 9.44923 80.8315Z" fill="#000000" fill-opacity="0.85"/>
  <path d="M18.1294 67.5347C18.1294 72.1284 21.6201 75.1494 26.8335 75.1494C33.9038 75.1157 38.8877 69.3047 38.8877 61.8672C38.8877 47.7441 23.8526 45.688 23.8526 35.1704C23.8526 26.5962 30.6626 20.2056 40.791 20.2056C51.0962 20.2056 57.6841 26.8574 57.6841 37.0835C57.6841 38.6314 58.981 39.9468 60.5288 39.9468C62.0767 39.9468 63.4072 38.6314 63.4072 37.0835C63.4072 23.5293 54.3941 14.4976 40.791 14.4976C27.2974 14.4976 18.1294 23.231 18.1294 35.1704C18.1294 46.0234 27.9727 49.5962 27.9727 54.5898C27.9727 60.7866 18.1294 58.9941 18.1294 67.5347Z" fill="#000000" fill-opacity="0.85"/>
 </g>
</svg>
