<?xml version="1.0" encoding="UTF-8"?>
<!--Generator: Apple Native CoreSVG 232.5-->
<!DOCTYPE svg
PUBLIC "-//W3C//DTD SVG 1.1//EN"
       "http://www.w3.org/Graphics/SVG/1.1/DTD/svg11.dtd">
<svg version="1.1" xmlns="http://www.w3.org/2000/svg" xmlns:xlink="http://www.w3.org/1999/xlink" width="105.849" height="102.492">
 <g>
  <rect height="102.492" opacity="0" width="105.849" x="0" y="0"/>
  <path d="M32.5137 81.1685C32.5137 94.0733 40.7002 102.425 53.3692 102.425C62.9985 102.425 70.3076 97.8218 74.7647 89.3545L78.4478 82.4922C88.8565 62.3916 105.849 61.1729 105.849 37.3511C105.849 14.9048 91.4321 0 69.7183 0C47.5733 0 32.5137 15.1992 32.5137 37.6792ZM38.2217 80.8467L38.2217 37.6792C38.2217 18.5156 50.8897 5.72316 69.7183 5.72316C87.9458 5.72316 100.141 18.4248 100.141 37.3511C100.141 58.0654 84.0444 60.1582 73.3696 79.9019L69.6968 86.4775C66.1089 93.1831 60.73 96.582 53.5899 96.582C44.1445 96.582 38.2217 90.4756 38.2217 80.8467ZM46.9019 67.5835C46.9019 72.1621 50.3926 75.1646 55.606 75.1646C62.6763 75.1309 67.6753 69.3047 67.6753 61.9009C67.6753 47.793 52.625 45.7031 52.625 35.1856C52.625 26.5962 59.4351 20.2544 69.5786 20.2544C79.8838 20.2544 86.4717 26.8574 86.4717 37.1172C86.4717 38.6802 87.7871 39.9619 89.3501 39.9619C90.898 39.9619 92.1797 38.6802 92.1797 37.1172C92.1797 23.5444 83.1817 14.5313 69.5786 14.5313C56.0698 14.5313 46.9019 23.231 46.9019 35.1856C46.9019 46.0234 56.7603 49.6113 56.7603 54.6387C56.7603 60.7866 46.9019 59.0278 46.9019 67.5835Z" fill="#000000" fill-opacity="0.85"/>
  <path d="M7.53711 20.8931C11.6812 20.8931 15.0405 17.5488 15.0405 13.4048C15.0405 9.21192 11.6812 5.86767 7.53711 5.86767C3.34424 5.86767 0 9.21192 0 13.4048C0 17.5488 3.34424 20.8931 7.53711 20.8931Z" fill="#000000" fill-opacity="0.85"/>
  <path d="M7.53711 46.0869C11.6812 46.0869 15.0405 42.7427 15.0405 38.5986C15.0405 34.4058 11.6812 31.0615 7.53711 31.0615C3.34424 31.0615 0 34.4058 0 38.5986C0 42.7427 3.34424 46.0869 7.53711 46.0869Z" fill="#000000" fill-opacity="0.85"/>
  <path d="M7.53711 71.3482C11.6812 71.3482 15.0405 68.0039 15.0405 63.8447C15.0405 59.667 11.6812 56.3076 7.53711 56.3076C3.34424 56.3076 0 59.667 0 63.8447C0 68.0039 3.34424 71.3482 7.53711 71.3482Z" fill="#000000" fill-opacity="0.85"/>
  <path d="M7.53711 96.542C11.6812 96.542 15.0405 93.1978 15.0405 89.0386C15.0405 84.8608 11.6812 81.5015 7.53711 81.5015C3.34424 81.5015 0 84.8608 0 89.0386C0 93.1978 3.34424 96.542 7.53711 96.542Z" fill="#000000" fill-opacity="0.85"/>
 </g>
</svg>
