<?xml version="1.0" encoding="UTF-8"?>
<!--Generator: Apple Native CoreSVG 232.5-->
<!DOCTYPE svg
PUBLIC "-//W3C//DTD SVG 1.1//EN"
       "http://www.w3.org/Graphics/SVG/1.1/DTD/svg11.dtd">
<svg version="1.1" xmlns="http://www.w3.org/2000/svg" xmlns:xlink="http://www.w3.org/1999/xlink" width="73.335" height="111.86">
 <g>
  <rect height="111.86" opacity="0" width="73.335" x="0" y="0"/>
  <path d="M73.335 37.3023C73.335 61.1577 56.3091 62.3428 45.9004 82.4771L42.2173 89.3394C37.794 97.8067 30.4849 102.376 20.8218 102.376C8.18653 102.376 0 94.0396 0 81.1533L0 37.6792C0 15.1992 15.0259 0 37.2046 0C58.9185 0 73.335 14.8897 73.335 37.3023ZM13.8794 34.9834C13.8794 46.0234 23.9922 49.6636 23.9922 54.7583C23.9922 61.041 13.8794 59.2485 13.8794 67.9912C13.8794 72.6709 17.5049 75.793 22.8379 75.793C30.0767 75.7593 35.1279 69.7798 35.1279 62.189C35.1279 47.7441 19.7896 45.688 19.7896 34.9834C19.7896 26.2407 26.7007 19.749 37.0313 19.749C47.5234 19.749 54.2461 26.5357 54.2461 36.915C54.2461 38.5303 55.5952 39.8794 57.1919 39.8794C58.8071 39.8794 60.1563 38.5303 60.1563 36.915C60.1563 23.0728 50.9224 13.854 37.0313 13.854C23.2344 13.854 13.8794 22.7744 13.8794 34.9834Z" fill="#000000" fill-opacity="0.85"/>
 </g>
</svg>
