<?xml version="1.0" encoding="UTF-8"?>
<!--Generator: Apple Native CoreSVG 232.5-->
<!DOCTYPE svg
PUBLIC "-//W3C//DTD SVG 1.1//EN"
       "http://www.w3.org/Graphics/SVG/1.1/DTD/svg11.dtd">
<svg version="1.1" xmlns="http://www.w3.org/2000/svg" xmlns:xlink="http://www.w3.org/1999/xlink" width="113.399" height="108.649">
 <g>
  <rect height="108.649" opacity="0" width="113.399" x="0" y="0"/>
  <path d="M75.5281 86.7151C70.7423 90.6471 65.4281 94.4755 59.702 98.1842C58.7943 98.7282 57.5717 99.2907 56.6825 99.2907C55.827 99.2907 54.5707 98.7282 53.7118 98.1842C26.8842 80.818 9.10438 60.8283 9.10438 40.4816C9.10438 34.409 10.6234 28.9751 13.2956 24.5306ZM104.294 40.4816C104.294 52.5879 97.9998 64.5678 87.2166 75.9389L25.2393 13.9855C28.4139 12.6282 31.9304 11.8976 35.6659 11.8976C44.8427 11.8976 52.5487 17.0988 56.6825 25.0309C60.8837 17.0651 68.556 11.8976 77.7143 11.8976C92.7924 11.8976 104.294 23.7716 104.294 40.4816Z" fill="#000000" fill-opacity="0.85"/>
  <path d="M93.2543 97.3273C94.3861 98.508 96.2675 98.508 97.3808 97.3273C98.5277 96.1803 98.5126 94.3815 97.3808 93.2008L10.0214 5.87513C8.90468 4.75843 7.04188 4.72815 5.86121 5.87513C4.74793 6.98841 4.74793 8.90346 5.86121 10.0016Z" fill="#000000" fill-opacity="0.85"/>
 </g>
</svg>
