<?xml version="1.0" encoding="UTF-8"?>
<!--Generator: Apple Native CoreSVG 232.5-->
<!DOCTYPE svg
PUBLIC "-//W3C//DTD SVG 1.1//EN"
       "http://www.w3.org/Graphics/SVG/1.1/DTD/svg11.dtd">
<svg version="1.1" xmlns="http://www.w3.org/2000/svg" xmlns:xlink="http://www.w3.org/1999/xlink" width="140.508" height="62.2725">
 <g>
  <rect height="62.2725" opacity="0" width="140.508" x="0" y="0"/>
  <path d="M13.9072 54.4024L126.582 54.4024C135.608 54.4024 140.508 49.5362 140.508 40.645L140.508 13.7573C140.508 4.86621 135.608 0 126.582 0L13.9072 0C4.94873 0 0 4.86621 0 13.7573L0 40.645C0 49.5362 4.94873 54.4024 13.9072 54.4024ZM26.2173 37.5811C20.3257 37.5811 15.5791 32.8345 15.5791 26.9766C15.5791 21.085 20.3257 16.3233 26.2173 16.3233C32.0567 16.3233 36.8032 21.085 36.8032 26.9766C36.8032 32.8345 32.0567 37.5811 26.2173 37.5811ZM49.7305 37.5694C47.5733 37.5694 46.1402 36.1851 46.1402 34.0581L46.1402 20.3477C46.1402 18.2207 47.5733 16.8027 49.7305 16.8027L90.7588 16.8027C92.9346 16.8027 94.334 18.2207 94.334 20.3477L94.334 34.0581C94.334 36.1851 92.9346 37.5694 90.7588 37.5694ZM114.291 37.5811C108.466 37.5811 103.72 32.8345 103.72 26.9766C103.72 21.085 108.466 16.3233 114.291 16.3233C120.148 16.3233 124.895 21.085 124.895 26.9766C124.895 32.8345 120.148 37.5811 114.291 37.5811ZM35.001 51.8443L10.8398 51.8443L10.8398 58.7647C10.8398 60.8394 12.2393 62.2237 14.3291 62.2237L31.5117 62.2237C33.6353 62.2237 35.001 60.8394 35.001 58.7647ZM105.507 51.8443L105.507 58.7647C105.507 60.8394 106.873 62.2237 108.996 62.2237L126.145 62.2237C128.269 62.2237 129.668 60.8394 129.668 58.7647L129.668 51.8443Z" fill="#000000" fill-opacity="0.85"/>
 </g>
</svg>
