<?xml version="1.0" encoding="UTF-8"?>
<!--Generator: Apple Native CoreSVG 232.5-->
<!DOCTYPE svg
PUBLIC "-//W3C//DTD SVG 1.1//EN"
       "http://www.w3.org/Graphics/SVG/1.1/DTD/svg11.dtd">
<svg version="1.1" xmlns="http://www.w3.org/2000/svg" xmlns:xlink="http://www.w3.org/1999/xlink" width="136.487" height="118.731">
 <g>
  <rect height="118.731" opacity="0" width="136.487" x="0" y="0"/>
  <path d="M71.7529 14.8316L71.7529 29.2083C69.7238 29.5926 67.8039 30.073 65.9961 30.6483L65.9961 15.0386C65.9961 10.8579 63.5952 8.41994 59.2949 8.41994L18.1485 8.41994C13.8482 8.41994 11.4136 10.8579 11.4136 15.0386L11.4136 74.6587C11.4136 78.8394 13.8482 81.2622 18.1485 81.2622L38.2962 81.2622C38.6041 83.2286 39.0738 85.1497 39.6779 87.0191L17.7393 87.0191C9.94728 87.0191 5.65675 82.71 5.65675 74.8657L5.65675 14.8316C5.65675 7.00587 9.94728 2.67823 17.7393 2.67823L59.6704 2.67823C67.4624 2.67823 71.7529 7.00587 71.7529 14.8316ZM48.5788 41.8946C46.274 44.3411 44.3406 47.0782 42.7609 50.0277C41.5689 49.3543 40.1876 48.9732 38.7124 48.9732C34.1162 48.9732 30.4409 52.6484 30.4409 57.2144C30.4409 61.4613 33.66 64.9642 37.8935 65.3662C37.5504 67.5215 37.4028 69.7439 37.4028 72.0029C37.4028 73.1254 37.4395 74.2427 37.5771 75.3413C28.0236 74.7761 20.4981 66.8693 20.4981 57.2144C20.4981 47.1289 28.6304 38.9966 38.7124 38.9966C42.3568 38.9966 45.7449 40.0553 48.5788 41.8946ZM48.3486 24.667C48.3486 30.0449 43.9473 34.3521 38.6787 34.3521C33.395 34.3521 28.9937 30.0449 28.9937 24.667C28.9937 19.3833 33.3648 15.0459 38.6787 15.0459C44.0264 15.0459 48.3486 19.3833 48.3486 24.667ZM33.0591 24.667C33.0591 27.7832 35.5962 30.2715 38.6787 30.2715C41.7798 30.2715 44.2832 27.7832 44.2832 24.667C44.2832 21.6148 41.7798 19.1113 38.6787 19.1113C35.5962 19.1113 33.0591 21.6148 33.0591 24.667Z" fill="#000000" fill-opacity="0.85"/>
  <path d="M86.9297 113.075C103.899 113.075 110.33 110.745 116.397 105.068C125.38 96.8701 130.83 84.8447 130.83 72.0029C130.83 60.7852 126.721 50.6763 119.174 43.5405C117.557 41.6441 114.921 41.4282 113.001 42.8916C108.943 47.3345 101.933 50.375 86.9297 50.375C71.9756 50.375 64.9312 47.3345 60.8584 42.8916C58.938 41.4282 56.3511 41.6104 54.7007 43.5405C47.1538 50.6763 43.0596 60.7515 43.0596 72.0029C43.0596 84.8447 48.4458 96.8701 57.4287 105.068C63.5445 110.745 70.0088 113.075 86.9297 113.075ZM86.9297 106.723C72.563 106.723 66.9986 105.314 61.7793 100.399C53.8897 93.1934 49.46 82.9399 49.46 72.0029C49.46 62.5781 52.7481 53.4883 60.6128 46.4136L56.001 47.5928C60.9463 53.314 71.0059 56.7417 86.9297 56.7417C102.887 56.7417 112.947 53.314 117.907 47.5742L113.213 46.4136C121.145 53.4546 124.463 62.5596 124.463 72.0029C124.463 82.9399 119.951 93.1934 112.095 100.399C106.827 105.314 101.296 106.723 86.9297 106.723Z" fill="#000000" fill-opacity="0.425"/>
  <path d="M86.9297 45.4292C99.5303 45.4292 108.04 43.0181 108.04 39.4927C108.04 35.9336 99.5303 33.541 86.9297 33.541C74.3106 33.541 65.8345 35.9336 65.8345 39.4927C65.8345 43.0181 74.3106 45.4292 86.9297 45.4292Z" fill="#000000" fill-opacity="0.85"/>
 </g>
</svg>
