<?xml version="1.0" encoding="UTF-8"?>
<!--Generator: Apple Native CoreSVG 232.5-->
<!DOCTYPE svg
PUBLIC "-//W3C//DTD SVG 1.1//EN"
       "http://www.w3.org/Graphics/SVG/1.1/DTD/svg11.dtd">
<svg version="1.1" xmlns="http://www.w3.org/2000/svg" xmlns:xlink="http://www.w3.org/1999/xlink" width="118.934" height="121.582">
 <g>
  <rect height="121.582" opacity="0" width="118.934" x="0" y="0"/>
  <path d="M66.6756 15.5684L60.8034 15.5684C60.1601 12.8691 58.0869 11.3496 54.7486 11.3496L17.6568 11.3496C13.6226 11.3496 11.3985 13.6226 11.3985 17.544L11.3985 74.3237C11.3985 78.2451 13.6226 80.4507 17.6568 80.4507L38.1016 80.4507L38.1016 86.1924L17.2661 86.1924C9.80079 86.1924 5.64161 82.0938 5.64161 74.5308L5.64161 17.3032C5.64161 9.74025 9.83448 5.60792 17.2661 5.60792L55.1392 5.60792C62.0233 5.60792 66.0817 9.10763 66.6756 15.5684ZM38.1016 40.6678L38.1016 50.4388C37.5004 50.2834 36.8633 50.2056 36.2027 50.2056C31.8994 50.2056 28.5962 53.5088 28.5962 57.6724C28.5962 61.7686 31.8657 65.0718 36.2027 65.0718C36.8644 65.0718 37.5014 64.9949 38.1016 64.8415L38.1016 74.532C37.4802 74.6037 36.846 74.6377 36.2027 74.6377C26.6323 74.6377 19.0152 67.0357 19.0152 57.5899C19.0152 48.2114 26.6509 40.5606 36.2027 40.5606C36.8458 40.5606 37.48 40.595 38.1016 40.6678ZM42.9772 20.2382C41.9804 21.206 41.1343 22.3255 40.4551 23.5951C39.5111 22.2839 37.9729 21.4365 36.2027 21.4365C33.2632 21.4365 30.9551 23.7969 30.9551 26.7178C30.9551 29.6387 33.2632 31.9468 36.2027 31.9468C36.9096 31.9468 37.5796 31.8146 38.1881 31.5703C38.1295 32.2698 38.1016 32.9916 38.1016 33.7329L38.1016 35.8874C37.4891 36.0134 36.8541 36.0796 36.2027 36.0796C31.0469 36.0796 26.8408 31.855 26.8408 26.7178C26.8408 21.5469 31.0469 17.3223 36.2027 17.3223C38.8816 17.3223 41.283 18.4415 42.9772 20.2382Z" fill="#000000" fill-opacity="0.85"/>
  <path d="M43.7769 33.7329L43.7769 103.481C43.7769 111.623 47.9141 115.892 56.0523 115.892L100.949 115.892C109.121 115.892 113.277 111.623 113.277 103.481L113.277 33.7329C113.277 25.5122 109.136 21.2588 100.949 21.2588L56.0523 21.2588C47.8653 21.2588 43.7769 25.5122 43.7769 33.7329ZM49.7881 33.7818C49.7881 29.4654 51.98 27.3037 56.2544 27.3037L100.732 27.3037C105.055 27.3037 107.247 29.4654 107.247 33.7818L107.247 103.399C107.247 107.67 105.006 109.862 100.732 109.862L56.2544 109.862C51.9952 109.862 49.7881 107.67 49.7881 103.399ZM78.4932 55.9556C84.2837 55.9556 89.0269 51.2613 89.0269 45.4859C89.0269 39.729 84.3326 35.1475 78.4932 35.1475C72.7515 35.1475 68.042 39.6802 68.042 45.4859C68.042 51.3404 72.7212 55.9556 78.4932 55.9556ZM78.4932 51.5161C75.1885 51.5161 72.5454 48.8242 72.5454 45.4859C72.5454 42.1172 75.1397 39.5196 78.4932 39.5196C81.7827 39.5196 84.4746 42.23 84.4746 45.4859C84.4746 48.8242 81.8467 51.5161 78.4932 51.5161ZM78.4932 102.131C89.1831 102.131 97.7583 93.5591 97.7583 82.8355C97.7583 72.1455 89.1831 63.604 78.4932 63.604C67.8521 63.604 59.2618 72.1792 59.2618 82.8355C59.2618 93.5254 67.8521 102.131 78.4932 102.131ZM78.4932 91.3628C73.7994 91.3628 69.9507 87.6572 69.9507 82.8355C69.9507 77.9649 73.7202 74.2407 78.4932 74.2407C83.3335 74.2407 87.0845 77.9649 87.0845 82.8355C87.0845 87.6572 83.3335 91.3628 78.4932 91.3628Z" fill="#000000" fill-opacity="0.85"/>
 </g>
</svg>
