<?xml version="1.0" encoding="UTF-8"?>
<!--Generator: Apple Native CoreSVG 232.5-->
<!DOCTYPE svg
PUBLIC "-//W3C//DTD SVG 1.1//EN"
       "http://www.w3.org/Graphics/SVG/1.1/DTD/svg11.dtd">
<svg version="1.1" xmlns="http://www.w3.org/2000/svg" xmlns:xlink="http://www.w3.org/1999/xlink" width="126.346" height="123.561">
 <g>
  <rect height="123.561" opacity="0" width="126.346" x="0" y="0"/>
  <path d="M71.5691 14.3859C69.5364 14.6376 67.6221 14.9862 65.8086 15.4308C65.134 12.4958 62.8784 10.8345 59.3286 10.8345L18.1821 10.8345C13.8819 10.8345 11.4473 13.2725 11.4473 17.4531L11.4473 77.0732C11.4473 81.2539 13.8819 83.6768 18.1821 83.6768L38.0996 83.6768L38.0996 87.3887C38.0996 88.0942 38.1116 88.7888 38.1787 89.4336L17.773 89.4336C9.98097 89.4336 5.69044 85.1245 5.69044 77.2803L5.69044 17.2461C5.69044 9.42042 9.98097 5.09278 17.773 5.09278L59.7041 5.09278C66.4868 5.09278 70.6164 8.37192 71.5691 14.3859ZM38.9567 41.4217C38.4102 44.0483 38.0996 46.9775 38.0996 50.2305L38.0996 51.4199C33.8089 51.739 30.4746 55.28 30.4746 59.6289C30.4746 63.9328 33.7805 67.4724 38.0996 67.7893L38.0996 77.7804C28.3157 77.4593 20.5318 69.4482 20.5318 59.6289C20.5318 49.5435 28.6641 41.4111 38.7461 41.4111C38.8172 41.4111 38.8883 41.4115 38.9567 41.4217ZM48.094 24.7952C47.2262 25.5851 46.3896 26.4385 45.5733 27.3408C43.5576 29.7226 41.6625 32.7693 40.2876 36.6252C39.7762 36.722 39.2488 36.7666 38.7124 36.7666C33.4287 36.7666 29.0274 32.4595 29.0274 27.0816C29.0274 21.7979 33.3984 17.4605 38.7124 17.4605C43.2622 17.4605 47.0698 20.6002 48.094 24.7952ZM33.0928 27.0816C33.0928 30.1978 35.6299 32.686 38.7124 32.686C41.8135 32.686 44.3169 30.1978 44.3169 27.0816C44.3169 24.0293 41.8135 21.5259 38.7124 21.5259C35.6299 21.5259 33.0928 24.0293 33.0928 27.0816Z" fill="#000000" fill-opacity="0.85"/>
  <path d="M82.2154 117.919C108.726 117.919 120.656 108.651 120.656 87.3887L120.656 50.2305C120.656 40.7178 117.747 34.6983 114.538 30.9697C113.411 29.6865 111.768 29.6948 110.5 30.8667C106.194 35.3467 94.8159 38.3325 82.2154 38.3325C69.6299 38.3325 58.252 35.3467 53.9463 30.8667C52.6782 29.6948 51.001 29.6865 49.8594 30.9697C46.6987 34.6983 43.7564 40.7178 43.7564 50.2305L43.7564 87.3887C43.7564 108.651 55.7198 117.919 82.2154 117.919ZM82.2154 111.874C59.1387 111.874 49.7862 104.109 49.7862 86.668L49.7862 50.5337C49.7862 45.6314 50.791 41.2339 53.4336 37.3584C58.7901 42.2627 69.4248 44.3623 82.2154 44.3623C95.021 44.3623 105.656 42.2627 111.012 37.3584C113.621 41.2339 114.611 45.6314 114.611 50.5337L114.611 86.668C114.611 104.109 105.273 111.874 82.2154 111.874Z" fill="#000000" fill-opacity="0.425"/>
  <path d="M82.2154 32.6421C94.7305 32.6421 105.289 29.9228 105.289 26.0439C105.289 22.0825 94.7305 19.397 82.2154 19.397C69.6817 19.397 59.1236 22.0825 59.1236 26.0439C59.1236 29.9228 69.6817 32.6421 82.2154 32.6421Z" fill="#000000" fill-opacity="0.85"/>
 </g>
</svg>
