<?xml version="1.0" encoding="UTF-8"?>
<!--Generator: Apple Native CoreSVG 232.5-->
<!DOCTYPE svg
PUBLIC "-//W3C//DTD SVG 1.1//EN"
       "http://www.w3.org/Graphics/SVG/1.1/DTD/svg11.dtd">
<svg version="1.1" xmlns="http://www.w3.org/2000/svg" xmlns:xlink="http://www.w3.org/1999/xlink" width="118.154" height="121.282">
 <g>
  <rect height="121.282" opacity="0" width="118.154" x="0" y="0"/>
  <path d="M66.0854 15.6021L55.3741 15.6021C49.8542 15.6021 45.4545 17.2007 42.4126 20.1767C40.7665 18.4479 38.4194 17.4385 35.9077 17.4385C31.1611 17.4385 26.9688 21.0435 26.9688 26.2461C26.9688 31.166 30.8784 35.1362 35.9077 35.1362C36.4625 35.1362 37.0036 35.0876 37.5244 34.9867L37.5244 42.6036C36.9929 42.5479 36.4532 42.5215 35.9077 42.5215C26.7315 42.5215 19.1851 50.0225 19.1851 59.1987C19.1851 68.5181 26.7617 75.876 35.9077 75.876C36.4527 75.876 36.9923 75.8497 37.5244 75.7947L37.5244 86.0947L15.8745 86.0947C9.39308 86.0947 5.69044 82.4712 5.69044 75.8887L5.69044 15.7652C5.69044 9.26515 9.39308 5.64161 15.8745 5.64161L55.9224 5.64161C62.3665 5.64161 66.028 9.20307 66.0854 15.6021ZM37.5244 51.8245L37.5244 66.7758C37.0042 66.8922 36.4629 66.9517 35.9077 66.9517C31.6651 66.9517 28.2642 63.5357 28.2642 59.293C28.2642 55.0503 31.6651 51.6494 35.9077 51.6494C36.4629 51.6494 37.0042 51.7086 37.5244 51.8245ZM40.1079 23.0896C38.7341 25.3545 37.89 28.1063 37.627 31.2925C37.0915 31.4836 36.5125 31.5845 35.9077 31.5845C32.9683 31.5845 30.6485 29.231 30.6485 26.2915C30.6485 23.2695 32.9683 21.0171 35.9077 21.0171C37.6405 21.0171 39.1617 21.8098 40.1079 23.0896Z" fill="#000000" fill-opacity="0.85"/>
  <path d="M37.5244 42.6036L37.5244 51.8245C37.0042 51.7086 36.4629 51.6494 35.9077 51.6494C31.6651 51.6494 28.2642 55.0503 28.2642 59.293C28.2642 63.5357 31.6651 66.9517 35.9077 66.9517C36.4629 66.9517 37.0042 66.8922 37.5244 66.7758L37.5244 75.7947C36.9923 75.8497 36.4527 75.876 35.9077 75.876C26.7617 75.876 19.1851 68.5181 19.1851 59.1987C19.1851 50.0225 26.7315 42.5215 35.9077 42.5215C36.4532 42.5215 36.9929 42.5479 37.5244 42.6036ZM42.4126 20.1767C41.5214 21.0269 40.7517 22.0004 40.1079 23.0896C39.1617 21.8098 37.6405 21.0171 35.9077 21.0171C32.9683 21.0171 30.6485 23.2695 30.6485 26.2915C30.6485 29.231 32.9683 31.5845 35.9077 31.5845C36.5125 31.5845 37.0915 31.4836 37.627 31.2925C37.5563 32.0291 37.5244 32.7947 37.5244 33.583L37.5244 34.9867C37.0036 35.0876 36.4625 35.1362 35.9077 35.1362C30.8784 35.1362 26.9688 31.166 26.9688 26.2461C26.9688 21.0435 31.1611 17.4385 35.9077 17.4385C38.4194 17.4385 40.7665 18.4479 42.4126 20.1767Z" fill="#000000" fill-opacity="0.2125"/>
  <path d="M43.2149 33.583L43.2149 103.332C43.2149 111.439 47.3369 115.592 55.3741 115.592L100.305 115.592C108.36 115.592 112.464 111.439 112.464 103.332L112.464 33.583C112.464 25.396 108.391 21.2588 100.305 21.2588L55.3741 21.2588C47.3218 21.2588 43.2149 25.396 43.2149 33.583ZM77.8301 55.1319C71.9756 55.1319 67.293 50.4981 67.293 44.6065C67.293 38.7334 71.9908 34.1148 77.8301 34.1148C83.7032 34.1148 88.3858 38.7637 88.3858 44.6065C88.3858 50.4341 83.688 55.1319 77.8301 55.1319ZM77.8301 102.796C67.0542 102.796 58.3594 94.1538 58.3594 83.2954C58.3594 72.4185 67.0542 63.8062 77.8301 63.8062C88.6245 63.8062 97.3194 72.4185 97.3194 83.2954C97.3194 94.1538 88.6245 102.796 77.8301 102.796ZM77.8301 50.8389C81.3033 50.8389 84.0625 47.9971 84.0625 44.6065C84.0625 41.167 81.2544 38.4229 77.8301 38.4229C74.3604 38.4229 71.6163 41.0694 71.6163 44.6065C71.6163 47.9971 74.3755 50.8389 77.8301 50.8389ZM77.8301 92.1411C82.8389 92.1411 86.6758 88.2183 86.6758 83.2954C86.6758 78.2715 82.8389 74.416 77.8301 74.416C72.8736 74.416 69.003 78.2715 69.003 83.2954C69.003 88.2183 72.9864 92.1411 77.8301 92.1411Z" fill="#000000" fill-opacity="0.85"/>
  <path d="M77.8301 55.1319C71.9756 55.1319 67.293 50.4981 67.293 44.6065C67.293 38.7334 71.9908 34.1148 77.8301 34.1148C83.7032 34.1148 88.3858 38.7637 88.3858 44.6065C88.3858 50.4341 83.688 55.1319 77.8301 55.1319ZM77.8301 102.796C67.0542 102.796 58.3594 94.1538 58.3594 83.2954C58.3594 72.4185 67.0542 63.8062 77.8301 63.8062C88.6245 63.8062 97.3194 72.4185 97.3194 83.2954C97.3194 94.1538 88.6245 102.796 77.8301 102.796ZM77.8301 50.8389C81.3033 50.8389 84.0625 47.9971 84.0625 44.6065C84.0625 41.167 81.2544 38.4229 77.8301 38.4229C74.3604 38.4229 71.6163 41.0694 71.6163 44.6065C71.6163 47.9971 74.3755 50.8389 77.8301 50.8389ZM77.8301 92.1411C82.8389 92.1411 86.6758 88.2183 86.6758 83.2954C86.6758 78.2715 82.8389 74.416 77.8301 74.416C72.8736 74.416 69.003 78.2715 69.003 83.2954C69.003 88.2183 72.9864 92.1411 77.8301 92.1411Z" fill="#000000" fill-opacity="0.2125"/>
 </g>
</svg>
