<?xml version="1.0" encoding="UTF-8"?>
<!--Generator: Apple Native CoreSVG 232.5-->
<!DOCTYPE svg
PUBLIC "-//W3C//DTD SVG 1.1//EN"
       "http://www.w3.org/Graphics/SVG/1.1/DTD/svg11.dtd">
<svg version="1.1" xmlns="http://www.w3.org/2000/svg" xmlns:xlink="http://www.w3.org/1999/xlink" width="72.6738" height="99.0947">
 <g>
  <rect height="99.0947" opacity="0" width="72.6738" x="0" y="0"/>
  <path d="M0 12.8984L0 86.1626C0 94.6948 4.31738 99.0611 12.7822 99.0611L59.9253 99.0611C68.3902 99.0611 72.6738 94.6948 72.6738 86.1626L72.6738 12.8984C72.6738 4.35108 68.4053 0 59.9253 0L12.7822 0C4.30225 0 0 4.35108 0 12.8984ZM36.3462 85.6123C25.0147 85.6123 15.8804 76.5454 15.8804 65.1499C15.8804 53.7207 25.0147 44.6201 36.3462 44.669C47.6929 44.7026 56.8272 53.7207 56.8272 65.1499C56.8272 76.5454 47.6929 85.6123 36.3462 85.6123ZM36.3462 35.5552C30.1953 35.5552 25.2686 30.6587 25.2686 24.5078C25.2686 18.3232 30.2105 13.4453 36.3462 13.4941C42.4785 13.543 47.4053 18.3872 47.439 24.5078C47.4912 30.6436 42.4634 35.5552 36.3462 35.5552ZM36.3462 74.4165C41.5469 74.4165 45.6279 70.2681 45.6279 65.1499C45.6279 59.8516 41.5469 55.8008 36.3462 55.8008C31.127 55.8008 27.0796 59.8516 27.0796 65.1499C27.0796 70.2681 31.2734 74.4165 36.3462 74.4165ZM36.3462 31.0298C39.9624 31.0298 42.8833 28.0752 42.8833 24.5078C42.8833 20.9067 39.9136 18.001 36.3462 18.001C32.6963 18.001 29.8242 20.7754 29.8242 24.5078C29.8242 28.0752 32.7114 31.0298 36.3462 31.0298Z" fill="#000000" fill-opacity="0.85"/>
  <path d="M36.3462 85.6123C25.0147 85.6123 15.8804 76.5454 15.8804 65.1499C15.8804 53.7207 25.0147 44.6201 36.3462 44.669C47.6929 44.7026 56.8272 53.7207 56.8272 65.1499C56.8272 76.5454 47.6929 85.6123 36.3462 85.6123ZM36.3462 35.5552C30.1953 35.5552 25.2686 30.6587 25.2686 24.5078C25.2686 18.3232 30.2105 13.4453 36.3462 13.4941C42.4785 13.543 47.4053 18.3872 47.439 24.5078C47.4912 30.6436 42.4634 35.5552 36.3462 35.5552ZM36.3462 74.4165C41.5469 74.4165 45.6279 70.2681 45.6279 65.1499C45.6279 59.8516 41.5469 55.8008 36.3462 55.8008C31.127 55.8008 27.0796 59.8516 27.0796 65.1499C27.0796 70.2681 31.2734 74.4165 36.3462 74.4165ZM36.3462 31.0298C39.9624 31.0298 42.8833 28.0752 42.8833 24.5078C42.8833 20.9067 39.9136 18.001 36.3462 18.001C32.6963 18.001 29.8242 20.7754 29.8242 24.5078C29.8242 28.0752 32.7114 31.0298 36.3462 31.0298Z" fill="#000000" fill-opacity="0.2125"/>
 </g>
</svg>
