<?xml version="1.0" encoding="UTF-8"?>
<!--Generator: Apple Native CoreSVG 232.5-->
<!DOCTYPE svg
PUBLIC "-//W3C//DTD SVG 1.1//EN"
       "http://www.w3.org/Graphics/SVG/1.1/DTD/svg11.dtd">
<svg version="1.1" xmlns="http://www.w3.org/2000/svg" xmlns:xlink="http://www.w3.org/1999/xlink" width="133.725" height="93.6289">
 <g>
  <rect height="93.6289" opacity="0" width="133.725" x="0" y="0"/>
  <path d="M0 46.79C0 61.9658 5.05957 75.9024 13.5254 87.0962C14.6909 88.6963 16.6431 88.8462 18.1421 87.647C19.4912 86.4966 19.6748 84.6978 18.5615 83.1836C10.9126 73.1064 6.36671 60.4668 6.36671 46.79C6.36671 33.0796 10.9126 20.4736 18.5615 10.2988C19.6748 8.88233 19.4946 7.0498 18.1421 5.89941C16.6582 4.71533 14.6758 4.89892 13.5254 6.45019C5.05957 17.6743 0 31.6143 0 46.79ZM133.725 46.79C133.725 31.6143 128.699 17.6743 120.199 6.45019C119.049 4.89892 117.066 4.71533 115.583 5.89941C114.23 7.0498 114.084 8.88233 115.163 10.2988C122.846 20.4736 127.358 33.0796 127.358 46.79C127.358 60.4668 122.846 73.1064 115.163 83.1836C114.084 84.6978 114.233 86.4966 115.583 87.647C117.097 88.8462 119.034 88.6963 120.199 87.0962C128.699 75.9024 133.725 61.9658 133.725 46.79Z" fill="#000000" fill-opacity="0.85"/>
  <path d="M66.8623 93.565C92.479 93.565 113.686 72.3916 113.686 46.79C113.686 21.1733 92.479 0 66.8286 0C41.2271 0 20.0723 21.1397 20.0723 46.79C20.0723 72.3916 41.2456 93.565 66.8623 93.565ZM66.8623 87.2471C44.4795 87.2471 26.439 69.2065 26.439 46.79C26.439 24.3399 44.4458 6.29933 66.8286 6.29933C89.2451 6.29933 107.319 24.3399 107.353 46.79C107.387 69.1729 89.3125 87.2471 66.8623 87.2471Z" fill="#000000" fill-opacity="0.85"/>
  <path d="M51.626 68.9868C53.5747 68.9868 54.6729 67.7236 54.6729 65.6704L54.6729 48.1797L78.8867 48.1797L78.8867 65.6704C78.8867 67.7051 80.0488 68.9868 81.8814 68.9868C83.8301 68.9868 84.9434 67.7236 84.9434 65.6704L84.9434 27.3301C84.9434 25.2466 83.8301 24.0137 81.8814 24.0137C80.0488 24.0137 78.8867 25.2803 78.8867 27.3301L78.8867 43.2871L54.6729 43.2871L54.6729 27.3301C54.6729 25.2466 53.5747 24.0137 51.626 24.0137C49.7783 24.0137 48.6651 25.2803 48.6651 27.3301L48.6651 65.6704C48.6651 67.7051 49.7783 68.9868 51.626 68.9868Z" fill="#000000" fill-opacity="0.85"/>
 </g>
</svg>
