<?xml version="1.0" encoding="UTF-8"?>
<!--Generator: Apple Native CoreSVG 232.5-->
<!DOCTYPE svg
PUBLIC "-//W3C//DTD SVG 1.1//EN"
       "http://www.w3.org/Graphics/SVG/1.1/DTD/svg11.dtd">
<svg version="1.1" xmlns="http://www.w3.org/2000/svg" xmlns:xlink="http://www.w3.org/1999/xlink" width="124.189" height="123.561">
 <g>
  <rect height="123.561" opacity="0" width="124.189" x="0" y="0"/>
  <path d="M15.0132 15.6548C18.9771 19.6128 29.1914 22.4219 40.5596 22.4219C43.133 22.4219 45.6558 22.2718 48.0603 21.9915C46.3387 23.4031 44.7778 24.9796 43.3858 26.7148C38.5064 32.7681 35.9424 40.478 35.9424 50.2305L35.9424 87.3887C35.9424 89.9142 36.0963 92.3004 36.444 94.5132C15.2732 93.5797 5.70557 85.0982 5.70557 66.9151L5.70557 33.2539C5.70557 24.6201 8.33985 19.104 11.2564 15.773C12.334 14.606 13.8276 14.5503 15.0132 15.6548Z" fill="#000000" fill-opacity="0.425"/>
  <path d="M61.4912 11.3389C61.4912 14.8457 52.7359 17.3208 40.5444 17.3208C28.3716 17.3208 19.5825 14.8457 19.5825 11.3389C19.5825 7.74952 28.3716 5.3418 40.5444 5.3418C52.7359 5.3418 61.4912 7.74952 61.4912 11.3389Z" fill="#000000" fill-opacity="0.85"/>
  <path d="M80.043 117.919C106.554 117.919 118.483 108.651 118.483 87.3887L118.483 50.2305C118.483 40.7178 115.575 34.6983 112.365 30.9697C111.239 29.6865 109.58 29.6948 108.327 30.8667C104.006 35.3467 92.6436 38.3325 80.043 38.3325C67.4239 38.3325 56.0796 35.3467 51.7403 30.8667C50.4722 29.6948 48.8286 29.6865 47.687 30.9697C44.4927 34.6983 41.584 40.7178 41.584 50.2305L41.584 87.3887C41.584 108.651 53.4986 117.919 80.043 117.919Z" fill="#000000" fill-opacity="0.425"/>
  <path d="M80.043 32.6421C92.5581 32.6421 103.116 29.9228 103.116 26.0439C103.116 22.0825 92.5581 19.397 80.043 19.397C67.5093 19.397 56.9512 22.0825 56.9512 26.0439C56.9512 29.9228 67.5093 32.6421 80.043 32.6421Z" fill="#000000" fill-opacity="0.85"/>
 </g>
</svg>
