<?xml version="1.0" encoding="UTF-8"?>
<!--Generator: Apple Native CoreSVG 232.5-->
<!DOCTYPE svg
PUBLIC "-//W3C//DTD SVG 1.1//EN"
       "http://www.w3.org/Graphics/SVG/1.1/DTD/svg11.dtd">
<svg version="1.1" xmlns="http://www.w3.org/2000/svg" xmlns:xlink="http://www.w3.org/1999/xlink" width="76.8994" height="98.6094">
 <g>
  <rect height="98.6094" opacity="0" width="76.8994" x="0" y="0"/>
  <path d="M38.4404 98.5069C64.936 98.5069 76.8994 89.2544 76.8994 67.9917L76.8994 30.8335C76.8994 21.3208 73.9907 15.3013 70.7964 11.5728C69.6548 10.2896 67.9776 10.2827 66.7432 11.4697C62.4038 15.9497 51.0259 18.9355 38.4404 18.9355C25.8399 18.9355 14.4619 15.9497 10.1562 11.4697C8.88818 10.2827 7.24463 10.2896 6.11816 11.5728C2.90869 15.3013 0 21.3208 0 30.8335L0 67.9917C0 89.2544 11.9297 98.5069 38.4404 98.5069ZM38.4404 92.4771C15.3823 92.4771 6.04494 84.6968 6.04494 67.2559L6.04494 31.1216C6.04494 26.2344 7.03468 21.8369 9.64356 17.9614C15 22.8657 25.6685 24.9653 38.4404 24.9653C51.231 24.9653 61.8994 22.8657 67.2222 17.9614C69.8647 21.8369 70.8696 26.2344 70.8696 31.1216L70.8696 67.2559C70.8696 84.6968 61.5171 92.4771 38.4404 92.4771Z" fill="#000000" fill-opacity="0.425"/>
  <path d="M38.4404 13.2451C51.8643 13.2451 61.5322 10.5259 61.5322 6.63183C61.5322 2.68555 51.8643 0 38.4404 0C25.0015 0 15.3672 2.68555 15.3672 6.63183C15.3672 10.5259 25.0015 13.2451 38.4404 13.2451Z" fill="#000000" fill-opacity="0.85"/>
 </g>
</svg>
