<?xml version="1.0" encoding="UTF-8"?>
<!--Generator: Apple Native CoreSVG 232.5-->
<!DOCTYPE svg
PUBLIC "-//W3C//DTD SVG 1.1//EN"
       "http://www.w3.org/Graphics/SVG/1.1/DTD/svg11.dtd">
<svg version="1.1" xmlns="http://www.w3.org/2000/svg" xmlns:xlink="http://www.w3.org/1999/xlink" width="136.487" height="124.151">
 <g>
  <rect height="124.151" opacity="0" width="136.487" x="0" y="0"/>
  <path d="M76.4531 17.3457C79.2724 20.6067 81.8691 25.7046 82.4368 33.4007C80.3297 33.4873 78.3101 33.6558 76.3799 33.9051C76.0429 30.1952 74.9923 26.8014 72.9277 23.7344C67.5562 28.6387 56.9028 30.7046 44.1309 30.7046C31.3252 30.7046 20.6568 28.6387 15.3003 23.7344C12.6914 27.6099 11.7017 32.0073 11.7017 36.8945L11.7017 73.044C11.7017 89.9445 20.5101 97.701 41.8136 98.1994C42.7403 100.318 43.8193 102.359 45.0827 104.276C44.7805 104.294 44.4566 104.295 44.1309 104.295C19.9014 104.295 5.65675 97.0005 5.65675 73.731L5.65675 36.6065C5.65675 27.0938 8.56543 21.0405 11.7749 17.3457C12.9014 16.0288 14.5601 16.0371 15.813 17.2427C20.1675 21.7227 31.5117 24.6748 44.1309 24.6748C56.7163 24.6748 68.0943 21.7227 72.3999 17.2427C73.668 16.0371 75.3115 16.0288 76.4531 17.3457Z" fill="#000000" fill-opacity="0.425"/>
  <path d="M67.189 12.3862C67.189 16.2988 56.6309 19.0181 44.1309 19.0181C31.582 19.0181 21.0239 16.2988 21.0239 12.3862C21.0239 8.4585 31.582 5.77296 44.1309 5.77296C56.6309 5.77296 67.189 8.4585 67.189 12.3862Z" fill="#000000" fill-opacity="0.85"/>
  <path d="M86.9297 118.461C103.899 118.461 110.33 116.131 116.397 110.455C125.38 102.256 130.83 90.2798 130.83 77.438C130.83 66.2051 126.721 56.0625 119.174 48.9268C117.557 47.064 114.921 46.8145 113.001 48.3115C108.943 52.7207 101.933 55.7613 86.9297 55.7613C71.9756 55.7613 64.9312 52.7207 60.8584 48.3115C58.938 46.8145 56.3511 47.0454 54.7007 48.9268C47.1538 56.0625 43.0596 66.1714 43.0596 77.438C43.0596 90.2798 48.4458 102.256 57.4287 110.455C63.5445 116.131 70.0088 118.461 86.9297 118.461ZM86.9297 112.125C72.563 112.125 66.9986 110.7 61.7793 105.819C53.8897 98.5796 49.46 88.3262 49.46 77.438C49.46 67.9795 52.7481 58.8745 60.6128 51.7998L56.001 52.9942C60.9463 58.7002 71.0059 62.128 86.9297 62.128C102.887 62.128 112.947 58.7002 117.907 52.9605L113.213 51.7998C121.145 58.856 124.463 67.9458 124.463 77.438C124.463 88.3262 119.951 98.5796 112.095 105.819C106.827 110.7 101.296 112.125 86.9297 112.125Z" fill="#000000" fill-opacity="0.425"/>
  <path d="M86.9297 50.8491C99.5303 50.8491 108.04 48.4043 108.04 44.9126C108.04 41.3535 99.5303 38.9424 86.9297 38.9424C74.3106 38.9424 65.8345 41.3535 65.8345 44.9126C65.8345 48.4043 74.3106 50.8491 86.9297 50.8491Z" fill="#000000" fill-opacity="0.85"/>
 </g>
</svg>
