<?xml version="1.0" encoding="UTF-8"?>
<!--Generator: Apple Native CoreSVG 232.5-->
<!DOCTYPE svg
PUBLIC "-//W3C//DTD SVG 1.1//EN"
       "http://www.w3.org/Graphics/SVG/1.1/DTD/svg11.dtd">
<svg version="1.1" xmlns="http://www.w3.org/2000/svg" xmlns:xlink="http://www.w3.org/1999/xlink" width="171.949" height="88.9165">
 <g>
  <rect height="88.9165" opacity="0" width="171.949" x="0" y="0"/>
  <path d="M129.748 22.5603C130.516 23.9431 132.412 24.4265 133.829 23.6096L164.361 6.03148C165.778 5.24828 166.295 3.35179 165.429 1.91672C164.661 0.533909 162.716 0.0505091 161.333 0.818578L130.782 18.3967C129.399 19.1799 128.882 21.1101 129.748 22.5603ZM130.699 44.4338C130.699 46.0828 132.048 47.4319 133.697 47.4319L168.917 47.4319C170.566 47.4319 171.949 46.0828 171.949 44.4338C171.949 42.7849 170.566 41.4021 168.917 41.4021L133.697 41.4021C132.048 41.4021 130.699 42.7849 130.699 44.4338ZM129.748 66.3074C128.882 67.7576 129.399 69.6052 130.797 70.4861L161.363 88.0642C162.716 88.866 164.646 88.3337 165.429 86.9509C166.295 85.5007 165.778 83.6531 164.346 82.7873L133.814 65.2092C132.412 64.3923 130.531 64.9245 129.748 66.3074Z" fill="#000000" fill-opacity="0.85"/>
  <path d="M2.99805 58.7688L46.8081 58.7688C52.1709 58.7688 57.7446 59.4963 63.2193 60.9851C77.0635 64.5447 88.2832 72.8801 101.648 85.6453C107.371 91.5872 116.549 89.05 116.549 80.1096L116.549 8.75805C116.549-0.182393 107.371-2.71951 101.648 3.20726C83.2232 21.0867 66.8281 30.0989 46.8081 30.0989L2.99805 30.0989ZM2.99805 64.031C4.68068 64.031 6.04494 62.6482 6.04494 60.9841L6.04494 27.7859C6.04494 26.1369 4.68068 24.7878 2.99805 24.7878C1.34912 24.7878 0 26.1369 0 27.7859L0 60.9841C0 62.6482 1.34912 64.031 2.99805 64.031ZM11.1558 67.0066C11.1558 74.4475 17.2715 80.5295 24.7124 80.5295L52.398 80.5295C59.8389 80.5295 65.9698 74.4475 65.9698 67.0066C65.9698 59.5657 59.8389 53.4348 52.398 53.4348L24.7124 53.4348C17.2715 53.4348 11.1558 59.5657 11.1558 67.0066ZM17.2007 67.0066C17.2007 62.8972 20.6031 59.4646 24.7124 59.4646L52.398 59.4646C56.5073 59.4646 59.9248 62.8972 59.9248 67.0066C59.9248 71.116 56.5073 74.466 52.398 74.466L24.7124 74.466C20.6031 74.466 17.2007 71.116 17.2007 67.0066Z" fill="#000000" fill-opacity="0.85"/>
 </g>
</svg>
