<?xml version="1.0" encoding="UTF-8"?>
<!--Generator: Apple Native CoreSVG 232.5-->
<!DOCTYPE svg
PUBLIC "-//W3C//DTD SVG 1.1//EN"
       "http://www.w3.org/Graphics/SVG/1.1/DTD/svg11.dtd">
<svg version="1.1" xmlns="http://www.w3.org/2000/svg" xmlns:xlink="http://www.w3.org/1999/xlink" width="56.2124" height="88.2578">
 <g>
  <rect height="88.2578" opacity="0" width="56.2124" x="0" y="0"/>
  <path d="M56.2124 7.26954L56.2124 8.38721C56.2124 19.6924 43.7915 32.5977 36.2442 40.0474C33.728 42.5635 33.5747 45.3306 36.2442 48.0152C43.7915 55.4985 56.2124 68.4526 56.2124 79.6753L56.2124 80.9395C56.2124 85.5435 53.4273 88.1753 49.0103 88.1753L7.20215 88.1753C2.78516 88.1753 0 85.5435 0 80.9395L0 79.6753C0 68.4526 12.4395 55.4985 19.9531 48.0152C22.6714 45.3306 22.5029 42.5635 19.9531 40.0474C12.4395 32.5977 0 19.6924 0 8.38721L0 7.26954C0 2.65039 2.78516 0 7.20215 0L49.0103 0C53.4273 0 56.2124 2.65039 56.2124 7.26954ZM13.9844 23.5068C12.6675 23.5068 12.0898 24.8272 13.1626 25.9605C16.4019 29.5581 21.1885 34.0464 24.9443 37.314C26.2715 38.4575 26.5898 39.3081 26.5898 41.085L26.5898 61.7319C26.5898 62.5435 26.4063 62.7876 25.7749 63.3701L9.563 79.228C8.26807 80.4556 8.80176 82.5186 10.5684 82.5186L45.6289 82.5186C47.3955 82.5186 47.9292 80.4556 46.6343 79.228L30.4224 63.3701C29.8062 62.7876 29.6563 62.5435 29.6563 61.7319L29.6563 41.085C29.6563 39.3081 29.9409 38.4575 31.2681 37.314C35.0425 34.0464 39.8291 29.5581 43.0498 25.9605C44.1226 24.8272 43.5449 23.5068 42.228 23.5068Z" fill="#000000" fill-opacity="0.85"/>
 </g>
</svg>
