<?xml version="1.0" encoding="UTF-8"?>
<!--Generator: Apple Native CoreSVG 232.5-->
<!DOCTYPE svg
PUBLIC "-//W3C//DTD SVG 1.1//EN"
       "http://www.w3.org/Graphics/SVG/1.1/DTD/svg11.dtd">
<svg version="1.1" xmlns="http://www.w3.org/2000/svg" xmlns:xlink="http://www.w3.org/1999/xlink" width="100.498" height="133.017">
 <g>
  <rect height="133.017" opacity="0" width="100.498" x="0" y="0"/>
  <path d="M78.3384 29.6489L78.3384 30.7666C78.3384 42.0718 65.9175 54.9771 58.3701 62.4268C55.854 64.9429 55.7007 67.71 58.3701 70.3946C60.6039 72.6094 63.2645 75.3034 65.9035 78.2977C62.2038 81.6512 59.9249 86.7248 59.8567 92.8983L52.5484 85.7495C51.9321 85.167 51.7822 84.9229 51.7822 84.1113L51.7822 63.4644C51.7822 61.6875 52.0669 60.8369 53.3941 59.6934C57.1685 56.4258 61.9551 51.9375 65.1758 48.3399C66.2486 47.2066 65.6709 45.8862 64.354 45.8862L36.1104 45.8862C34.7935 45.8862 34.2158 47.2066 35.2886 48.3399C38.5278 51.9375 43.3145 56.4258 47.0703 59.6934C48.3975 60.8369 48.7158 61.6875 48.7158 63.4644L48.7158 84.1113C48.7158 84.9229 48.5322 85.167 47.9009 85.7495L31.689 101.607C30.3941 102.835 30.9278 104.898 32.6944 104.898L55.4653 104.898L55.4653 110.555L29.3281 110.555C24.9111 110.555 22.126 107.923 22.126 103.319L22.126 102.055C22.126 90.832 34.5654 77.8779 42.0791 70.3946C44.7974 67.71 44.6289 64.9429 42.0791 62.4268C34.5654 54.9771 22.126 42.0718 22.126 30.7666L22.126 29.6489C22.126 25.0298 24.9111 22.3794 29.3281 22.3794L71.1362 22.3794C75.5532 22.3794 78.3384 25.0298 78.3384 29.6489Z" fill="#000000" fill-opacity="0.85"/>
  <path d="M65.4995 99.9985L70.564 99.9649L70.564 92.8731C70.564 87.6016 73.4175 84.4854 77.9649 84.4854C82.5762 84.4854 85.3657 87.6016 85.3657 92.8731L85.3657 99.9649L90.4453 99.9985L90.4453 93.2285C90.4453 84.9507 85.4141 79.4209 77.9649 79.4209C70.5645 79.4209 65.4995 84.9507 65.4995 93.2285ZM66.02 127.36L89.9434 127.36C93.2637 127.36 94.8413 125.715 94.8413 122.135L94.8413 103.259C94.8413 99.6641 93.2637 98.0342 89.9434 98.0342L66.02 98.0342C62.7149 98.0342 61.1221 99.6641 61.1221 103.259L61.1221 122.135C61.1221 125.715 62.7149 127.36 66.02 127.36Z" fill="#000000" fill-opacity="0.85"/>
 </g>
</svg>
