<?xml version="1.0" encoding="UTF-8"?>
<!--Generator: Apple Native CoreSVG 232.5-->
<!DOCTYPE svg
PUBLIC "-//W3C//DTD SVG 1.1//EN"
       "http://www.w3.org/Graphics/SVG/1.1/DTD/svg11.dtd">
<svg version="1.1" xmlns="http://www.w3.org/2000/svg" xmlns:xlink="http://www.w3.org/1999/xlink" width="191.791" height="82.4365">
 <g>
  <rect height="82.4365" opacity="0" width="191.791" x="0" y="0"/>
  <path d="M56.5404 28.5142L37.5719 28.5142C36.2189 28.5142 35.5929 28.6538 34.7834 29.1621L10.3044 45.0537L35.3665 45.0537L35.1877 45.1934C32.8789 46.9794 34.4711 50.1934 36.9695 50.3203L14.2057 50.3203L14.2057 71.0098C14.2057 74.7368 16.0138 76.5449 19.6886 76.5449L45.186 76.5449C46.4677 80.3715 49.743 82.4214 54.6808 82.4214L18.508 82.4214C11.9631 82.4214 8.29557 78.8736 8.29557 72.4111L8.29557 50.3203L3.15836 50.3203C-0.0989683 50.3203-0.93442 46.647 1.20621 45.148L31.7433 24.874C33.4572 23.7544 35.2033 23.2627 37.5719 23.2627L63.2633 23.2627ZM44.5661 50.3203L37.2809 50.3203C37.9578 50.2902 38.6902 50.0279 39.4221 49.4546L44.5661 45.4497Z" fill="#000000" fill-opacity="0.85"/>
  <path d="M160.048 24.874L190.6 45.148C192.759 46.647 191.905 50.3203 188.667 50.3203L183.496 50.3203L183.496 72.4111C183.496 78.8736 179.828 82.4214 173.299 82.4214L137.062 82.4214C142.025 82.4214 145.287 80.3715 146.561 76.5449L172.103 76.5449C175.778 76.5449 177.586 74.7368 177.586 71.0098L177.586 50.3203L154.785 50.3203C157.289 50.1934 158.864 46.9794 156.555 45.1934L156.376 45.0537L181.487 45.0537L157.023 29.1621C156.198 28.6538 155.572 28.5142 154.235 28.5142L135.202 28.5142L128.479 23.2627L154.329 23.2627C156.618 23.2627 158.398 23.7544 160.048 24.874ZM152.32 49.4546C153.058 50.0279 153.795 50.2902 154.473 50.3203L147.176 50.3203L147.176 45.4497Z" fill="#000000" fill-opacity="0.85"/>
  <path d="M39.4221 49.4546L93.3713 7.37355C94.1271 6.80959 95.0178 6.40724 95.8713 6.40724C96.7736 6.40724 97.6794 6.80959 98.4201 7.37355L152.336 49.4546C155.967 52.2876 159.568 47.5244 156.555 45.1934L101.63 2.29004C99.7795 0.833496 97.8683 0 95.8713 0C93.923 0 91.9933 0.833496 90.1276 2.29004L35.2028 45.1934C32.1745 47.5244 35.8058 52.2876 39.4221 49.4546ZM54.696 82.4214L137.062 82.4214C143.607 82.4214 147.192 78.8736 147.192 72.4111L147.192 40.1558L141.3 39.2505L141.3 71.0098C141.3 74.7368 139.541 76.5449 135.847 76.5449L55.9103 76.5449C52.217 76.5449 50.4426 74.7368 50.4426 71.0098L50.4426 39.2505L44.5661 40.1558L44.5661 72.4111C44.5661 78.8736 48.1847 82.4214 54.696 82.4214ZM83.0363 78.4463L108.721 78.4463L108.721 53.7266C108.721 52.0122 107.475 50.7813 105.746 50.7813L86.0153 50.7813C84.3498 50.7813 83.0363 52.0122 83.0363 53.7266Z" fill="#000000" fill-opacity="0.85"/>
 </g>
</svg>
