<?xml version="1.0" encoding="UTF-8"?>
<!--Generator: Apple Native CoreSVG 232.5-->
<!DOCTYPE svg
PUBLIC "-//W3C//DTD SVG 1.1//EN"
       "http://www.w3.org/Graphics/SVG/1.1/DTD/svg11.dtd">
<svg version="1.1" xmlns="http://www.w3.org/2000/svg" xmlns:xlink="http://www.w3.org/1999/xlink" width="97.9595" height="97.9932">
 <g>
  <rect height="97.9932" opacity="0" width="97.9595" x="0" y="0"/>
  <path d="M48.9722 97.9443C75.8247 97.9443 97.9595 75.7759 97.9595 48.9722C97.9595 22.1348 75.791 0 48.9385 0C22.1348 0 0 22.1348 0 48.9722C0 75.7759 22.1685 97.9443 48.9722 97.9443ZM48.9722 91.6113C25.3501 91.6113 6.36671 72.5942 6.36671 48.9722C6.36671 25.3501 25.3164 6.31789 48.9385 6.31789C72.5605 6.31789 91.6265 25.3501 91.6265 48.9722C91.6265 72.5942 72.5942 91.6113 48.9722 91.6113Z" fill="#000000" fill-opacity="0.85"/>
  <path d="M25.7246 50.0649L48.0479 32.6763C48.3037 32.4356 48.6489 32.3379 48.9048 32.3379C49.1943 32.3379 49.5059 32.4356 49.7954 32.6763L72.1186 50.0649C73.8296 51.4155 75.623 49.1152 74.1294 47.9331L51.4775 30.1704C50.7603 29.6182 49.7837 29.2124 48.9048 29.2124C48.0259 29.2124 47.1016 29.5845 46.3506 30.1704L23.6802 47.9331C22.1865 49.1001 23.98 51.4155 25.7246 50.0649ZM31.9868 63.4439L65.8076 63.4439C68.4898 63.4439 69.9614 61.9453 69.9614 59.2598L69.9614 51.605C69.2661 51.1909 68.6045 50.7246 67.8081 50.1572L48.9048 35.3672L29.9526 50.1572C29.1899 50.7246 28.562 51.1909 27.833 51.605L27.833 59.2598C27.833 61.9453 29.3198 63.4439 31.9868 63.4439ZM43.6333 60.5239L43.5845 51.6108C43.5845 50.9019 44.1099 50.395 44.8491 50.395L53.0127 50.395C53.7485 50.395 54.2251 50.9019 54.2251 51.6108L54.2251 60.5239ZM22.0586 45.8081L30.5669 39.1772L26.8233 39.1772C25.8301 39.1772 25.1128 39.3691 24.436 39.8237L11.8452 48.0879C11.0015 48.7178 11.3501 50.1611 12.6436 50.1611L20.7402 50.1611C20.2568 48.7163 20.4336 47.0542 22.0586 45.8081ZM25.1489 59.2598L25.1489 52.5322L14.7246 52.5659L14.7246 59.2598C14.7246 61.9453 16.2114 63.4439 18.897 63.4439L26.3359 63.4439C25.5732 62.3023 25.1489 60.9199 25.1489 59.2598ZM75.751 45.8081C77.3945 47.0391 77.5864 48.7163 77.103 50.1611L85.2148 50.1611C86.4932 50.1611 86.8418 48.77 85.9307 48.0879L73.3735 39.8237C72.7119 39.3691 72.0317 39.1772 70.9863 39.1772L67.2427 39.1772ZM72.6455 59.2598C72.6455 60.9199 72.27 62.3023 71.4736 63.4439L78.8975 63.4439C81.583 63.4439 83.085 61.9453 83.085 59.2598L83.085 52.5659L72.6455 52.5322Z" fill="#000000" fill-opacity="0.85"/>
 </g>
</svg>
