<?xml version="1.0" encoding="UTF-8"?>
<!--Generator: Apple Native CoreSVG 232.5-->
<!DOCTYPE svg
PUBLIC "-//W3C//DTD SVG 1.1//EN"
       "http://www.w3.org/Graphics/SVG/1.1/DTD/svg11.dtd">
<svg version="1.1" xmlns="http://www.w3.org/2000/svg" xmlns:xlink="http://www.w3.org/1999/xlink" width="149.325" height="104.487">
 <g>
  <rect height="104.487" opacity="0" width="149.325" x="0" y="0"/>
  <path d="M4.79824 52.8599L50.4784 29.5147C51.6854 28.8867 53.0004 28.8867 54.2899 29.5147L100 52.8599C104.299 55.0259 106.547 49.8164 103.032 47.9839L57.1752 24.0879C53.7802 22.3247 50.9848 22.3247 47.5932 24.103L1.68397 47.9839C-1.76379 49.8164 0.484751 55.0259 4.79824 52.8599ZM22.0409 104.277L82.7729 104.277C89.0351 104.277 92.5932 100.756 92.5932 94.5425L92.5932 55.271C91.748 54.8653 90.9701 54.4292 90.1249 53.9898L52.3353 34.7085L14.4935 54.0537C13.7308 54.4595 13.017 54.8013 12.2206 55.2071L12.2206 94.5425C12.2206 100.786 15.7787 104.277 22.0409 104.277ZM38.4291 98.4526L38.4291 67.1709C38.4291 65.2041 39.724 63.9092 41.6908 63.9092L62.9833 63.9092C64.9501 63.9092 66.245 65.2041 66.245 67.1709L66.245 98.4526ZM116.138 104.277C117.72 104.277 119.001 102.913 119.001 101.331L119.001 26.2822C119.641 26.1392 120.548 25.9995 121.75 25.9995C129.176 25.9995 133.744 29.6753 141.043 29.6753C144.034 29.6753 145.416 29.3638 146.986 28.6279C148.584 27.8399 149.323 26.8125 149.323 25.1065L149.323 4.72852C149.323 3.5918 148.779 2.83057 147.302 2.83057C146.12 2.83057 144.295 3.74317 140.848 3.74317C133.695 3.74317 129.059 0 121.57 0C118.455 0 117.087 0.424317 115.642 1.04736C114.048 1.70752 113.226 2.89649 113.226 4.48633L113.226 101.331C113.226 102.913 114.541 104.277 116.138 104.277ZM3.76845 104.277L134.116 104.277C135.697 104.277 136.994 102.913 136.994 101.331C136.994 99.7495 135.697 98.4526 134.116 98.4526L3.76845 98.4526C2.1869 98.4526 0.871466 99.7495 0.871466 101.331C0.871466 102.913 2.1869 104.277 3.76845 104.277Z" fill="#000000" fill-opacity="0.85"/>
 </g>
</svg>
