<?xml version="1.0" encoding="UTF-8"?>
<!--Generator: Apple Native CoreSVG 232.5-->
<!DOCTYPE svg
PUBLIC "-//W3C//DTD SVG 1.1//EN"
       "http://www.w3.org/Graphics/SVG/1.1/DTD/svg11.dtd">
<svg version="1.1" xmlns="http://www.w3.org/2000/svg" xmlns:xlink="http://www.w3.org/1999/xlink" width="97.9595" height="97.9932">
 <g>
  <rect height="97.9932" opacity="0" width="97.9595" x="0" y="0"/>
  <path d="M48.9722 97.9443C75.8247 97.9443 97.9595 75.7759 97.9595 48.9722C97.9595 22.1348 75.791 0 48.9385 0C22.1348 0 0 22.1348 0 48.9722C0 75.7759 22.1685 97.9443 48.9722 97.9443ZM48.9722 91.6113C25.3501 91.6113 6.36671 72.5942 6.36671 48.9722C6.36671 25.3501 25.3164 6.31789 48.9385 6.31789C72.5605 6.31789 91.6265 25.3501 91.6265 48.9722C91.6265 72.5942 72.5942 91.6113 48.9722 91.6113Z" fill="#000000" fill-opacity="0.85"/>
  <path d="M20.543 48.7095L40.6948 38.4307C41.2251 38.1563 41.7134 38.1563 42.2285 38.4307L62.4106 48.7095C64.4248 49.7334 65.4336 47.3066 63.8169 46.4326L43.6011 35.8877C42.0737 35.1182 40.8311 35.1484 39.3223 35.9365L19.1216 46.4326C17.52 47.2764 18.5103 49.7334 20.543 48.7095ZM20.0762 71.2607L71.9248 71.2607C72.6524 71.2607 73.3091 70.6494 73.3091 69.8428C73.3091 69.085 72.6826 68.4585 71.9248 68.4585L58.8975 68.4585C59.0708 68.0259 59.1011 67.563 59.1011 67.0059L59.1011 49.5606C58.7627 49.3989 58.3906 49.1885 58.0337 49.0269L41.4692 40.5308L24.8711 49.042C24.5142 49.2036 24.1758 49.3989 23.8677 49.5606L23.8677 67.0059C23.8677 67.563 23.9131 68.0747 24.1201 68.4585L20.0762 68.4585C19.3823 68.4585 18.7222 69.0698 18.7222 69.8428C18.7222 70.6646 19.3823 71.2607 20.0762 71.2607ZM35.2935 68.4585L35.2935 54.9893C35.2935 54.0581 35.898 53.5361 36.7315 53.5361L46.1431 53.5361C47.0103 53.5361 47.5962 54.0581 47.5962 54.9893L47.5962 68.4585ZM62.8926 69.7031L65.646 69.7031L65.646 37.0132C65.917 36.9341 66.3008 36.919 66.7417 36.919C69.9561 36.919 71.9312 38.5151 75.2178 38.5151C76.479 38.5151 77.1592 38.3501 77.8579 38.042C78.6274 37.6665 78.9692 37.19 78.9692 36.4019L78.9692 27.4981C78.9692 26.897 78.5972 26.5029 77.937 26.5029C77.3511 26.5029 76.6187 26.9121 75.0864 26.9121C72.0405 26.9121 70.0317 25.2822 66.6929 25.2822C65.3223 25.2822 64.6724 25.4775 64.0679 25.7554C63.2983 26.0332 62.8926 26.6226 62.8926 27.3955Z" fill="#000000" fill-opacity="0.85"/>
 </g>
</svg>
