<?xml version="1.0" encoding="UTF-8"?>
<!--Generator: Apple Native CoreSVG 232.5-->
<!DOCTYPE svg
PUBLIC "-//W3C//DTD SVG 1.1//EN"
       "http://www.w3.org/Graphics/SVG/1.1/DTD/svg11.dtd">
<svg version="1.1" xmlns="http://www.w3.org/2000/svg" xmlns:xlink="http://www.w3.org/1999/xlink" width="112.617" height="107.75">
 <g>
  <rect height="107.75" opacity="0" width="112.617" x="0" y="0"/>
  <path d="M68.7002 94.671L43.8833 94.671L43.8833 61.7145C43.8833 59.6803 45.2456 58.3517 47.2798 58.3517L65.3374 58.3517C67.3716 58.3517 68.7002 59.6803 68.7002 61.7145ZM13.9932 90.7877C13.9932 97.0148 17.7466 100.701 24.041 100.701L88.7193 100.701C95.0137 100.701 98.7334 97.0148 98.7334 90.7877L98.7334 48.9826L59.3535 15.9606C57.377 14.2921 55.2705 14.341 53.3277 15.9606L13.9932 48.9523ZM0 46.4611C0 47.9938 1.19922 49.4289 3.2002 49.4289C4.24952 49.4289 5.0547 48.8932 5.83791 48.2599L54.4575 7.45619C55.6528 6.38881 57.0015 6.31313 58.3027 7.45619L106.847 48.2599C107.596 48.8932 108.401 49.4289 109.451 49.4289C111.216 49.4289 112.617 48.3156 112.617 46.5621C112.617 45.4152 112.235 44.6657 111.376 43.9381L61.6358 2.09143C58.3858-0.697144 54.4536-0.697144 51.1245 2.09143L1.25977 43.9381C0.382325 44.6657 0 45.5499 0 46.4611ZM88.3091 27.0582L98.7334 35.8507L98.7334 13.4283C98.7334 11.6432 97.5781 10.5031 95.8233 10.5031L91.2192 10.5031C89.4981 10.5031 88.3091 11.6432 88.3091 13.4283Z" fill="#000000" fill-opacity="0.85"/>
 </g>
</svg>
