<?xml version="1.0" encoding="UTF-8"?>
<!--Generator: Apple Native CoreSVG 232.5-->
<!DOCTYPE svg
PUBLIC "-//W3C//DTD SVG 1.1//EN"
       "http://www.w3.org/Graphics/SVG/1.1/DTD/svg11.dtd">
<svg version="1.1" xmlns="http://www.w3.org/2000/svg" xmlns:xlink="http://www.w3.org/1999/xlink" width="97.9595" height="97.9932">
 <g>
  <rect height="97.9932" opacity="0" width="97.9595" x="0" y="0"/>
  <path d="M97.9595 48.9722C97.9595 75.7759 75.8247 97.9443 48.9722 97.9443C22.1685 97.9443 0 75.7759 0 48.9722C0 22.1348 22.1348 0 48.9385 0C75.791 0 97.9595 22.1348 97.9595 48.9722ZM32.8159 51.2017C31.5967 51.2017 30.7529 52.0942 30.7529 53.2041C30.7529 54.4268 31.5967 55.3042 32.8159 55.3042L36.2002 55.3042C35.148 56.7505 34.6445 58.5352 34.6445 60.0606C34.6445 67.1734 40.9121 71.7261 49.1338 71.7261C54.8599 71.7261 59.8403 69.2329 62.0532 64.7813C62.6074 63.9004 62.9072 62.9219 62.9863 61.9248C63.1108 60.4546 62.1694 59.3482 60.5796 59.3482C59.5708 59.3482 58.7271 59.8247 58.2251 61.1367C57.0581 64.8355 53.4131 66.9614 49.063 66.9614C43.8003 66.9614 39.7207 64.4194 39.7207 59.877C39.7207 58.1782 40.4834 56.4238 42.103 55.3042L65.0913 55.3042C66.3106 55.3042 67.1206 54.4268 67.1206 53.2041C67.1206 52.0942 66.3106 51.2017 65.0913 51.2017ZM35.9214 32.5708C35.3672 33.4668 35.0674 34.4116 34.9883 35.4272C34.894 36.8638 35.8052 37.9702 37.395 37.9702C38.4038 37.9702 39.2476 37.4937 39.7495 36.1816C40.9653 32.4829 44.5615 30.3721 48.9116 30.3721C54.1743 30.3721 58.2539 32.9326 58.2539 37.4414C58.2539 39.1401 57.4912 40.8945 55.8716 42.0479L32.8833 42.0479C31.6641 42.0479 30.854 42.8916 30.854 44.1143C30.854 45.2241 31.6641 46.1318 32.8833 46.1318L65.1587 46.1318C66.3779 46.1318 67.2217 45.2241 67.2217 44.1143C67.2217 42.8916 66.3779 42.0479 65.1587 42.0479L61.7744 42.0479C62.8267 40.5679 63.3301 38.7832 63.3301 37.273C63.3301 30.145 57.0625 25.5923 48.8408 25.5923C43.1148 25.5923 38.2437 28.1006 35.9214 32.5708Z" fill="#000000" fill-opacity="0.85"/>
 </g>
</svg>
