<?xml version="1.0" encoding="UTF-8"?>
<!--Generator: Apple Native CoreSVG 232.5-->
<!DOCTYPE svg
PUBLIC "-//W3C//DTD SVG 1.1//EN"
       "http://www.w3.org/Graphics/SVG/1.1/DTD/svg11.dtd">
<svg version="1.1" xmlns="http://www.w3.org/2000/svg" xmlns:xlink="http://www.w3.org/1999/xlink" width="84.6841" height="90.9209">
 <g>
  <rect height="90.9209" opacity="0" width="84.6841" x="0" y="0"/>
  <path d="M31.1597 90.8081L53.4907 90.8081C74.1685 90.8081 84.6841 79.4141 84.6841 61.0127C84.6841 47.0444 72.7994 26.1714 57.2061 5.0171C54.7925 1.8086 52.9976 0 48.708 0L35.9761 0C31.6865 0 29.8916 1.8086 27.4629 5.0171C11.8848 26.1714 0 47.0444 0 61.0127C0 79.4141 10.5156 90.8081 31.1597 90.8081ZM6.04494 61.0127C6.04494 49.0825 16.272 30.5459 32.2886 8.17336C33.3848 6.70168 34.1577 6.04494 36.1074 6.04494L48.5615 6.04494C50.5264 6.04494 51.2656 6.70168 52.3467 8.17336C68.4121 30.5459 78.6392 49.0825 78.6392 61.0127C78.6392 75.6143 70.335 84.7783 53.4907 84.7783L31.1597 84.7783C14.3154 84.7783 6.04494 75.6143 6.04494 61.0127ZM17.8823 23.1099L16.917 29.1397L67.752 29.1397L66.7715 23.1099ZM4.76661 63.3843L32.8926 63.3843L32.8926 57.3394L4.76661 57.3394ZM42.3286 71.8755C48.8184 71.8755 53.8667 66.812 53.8667 60.3037C53.8667 53.8628 48.8184 48.7656 42.3286 48.7656C35.854 48.7656 30.772 53.8628 30.772 60.3037C30.772 66.812 35.854 71.8755 42.3286 71.8755ZM42.3286 66.4893C38.8789 66.4893 36.1582 63.8023 36.1582 60.3037C36.1582 56.8877 38.8789 54.167 42.3286 54.167C45.7935 54.167 48.4805 56.8877 48.4805 60.3037C48.4805 63.8023 45.7935 66.4893 42.3286 66.4893ZM51.7461 63.3843L80.4644 63.3843L80.4644 57.3394L51.7461 57.3394Z" fill="#000000" fill-opacity="0.85"/>
 </g>
</svg>
