<?xml version="1.0" encoding="UTF-8"?>
<!--Generator: Apple Native CoreSVG 232.5-->
<!DOCTYPE svg
PUBLIC "-//W3C//DTD SVG 1.1//EN"
       "http://www.w3.org/Graphics/SVG/1.1/DTD/svg11.dtd">
<svg version="1.1" xmlns="http://www.w3.org/2000/svg" xmlns:xlink="http://www.w3.org/1999/xlink" width="84.482" height="90.9209">
 <g>
  <rect height="90.9209" opacity="0" width="84.482" x="0" y="0"/>
  <path d="M15.3604 22.5522L69.0879 22.5522C65.5235 16.8564 61.4556 10.9688 57.1202 5.0171C54.6914 1.8086 52.8965 0 48.607 0L35.875 0C31.5855 0 29.7905 1.8086 27.377 5.0171C22.9927 10.9688 18.9585 16.8564 15.3604 22.5522ZM42.2427 48.7656C47.7539 48.7656 52.2852 52.4312 53.6309 57.5264L84.3321 57.5264C83.3907 49.6865 79.2251 39.6738 72.9771 28.7842L11.4863 28.7842C5.25684 39.6738 1.10645 49.6865 0.116211 57.5264L30.8208 57.5264C32.1665 52.4312 36.7163 48.7656 42.2427 48.7656ZM42.2427 66.8784C45.7598 66.8784 48.4805 64.1577 48.4805 60.5918C48.4805 57.1084 45.7598 54.3203 42.2427 54.3203C38.7105 54.3203 35.9712 57.1084 35.9712 60.5918C35.9712 64.1577 38.7105 66.8784 42.2427 66.8784ZM31.0586 90.8081L53.3897 90.8081C72.9961 90.8081 83.4781 80.4668 84.482 63.7583L53.6309 63.7583C52.3189 68.7676 47.7876 72.4331 42.2427 72.4331C36.7163 72.4331 32.1328 68.7676 30.8208 63.7583L0 63.7583C0.970218 80.4668 11.4673 90.8081 31.0586 90.8081Z" fill="#000000" fill-opacity="0.85"/>
 </g>
</svg>
