<?xml version="1.0" encoding="UTF-8"?>
<!--Generator: Apple Native CoreSVG 232.5-->
<!DOCTYPE svg
PUBLIC "-//W3C//DTD SVG 1.1//EN"
       "http://www.w3.org/Graphics/SVG/1.1/DTD/svg11.dtd">
<svg version="1.1" xmlns="http://www.w3.org/2000/svg" xmlns:xlink="http://www.w3.org/1999/xlink" width="115.272" height="103.422">
 <g>
  <rect height="103.422" opacity="0" width="115.272" x="0" y="0"/>
  <path d="M62.1834 75.5206C50.1153 80.9042 39.6565 90.1489 24.7393 90.1489C18.459 90.1489 12.9429 88.6807 7.39503 85.4429C5.39063 84.3228 5.30811 82.273 6.20753 80.9238C6.95704 79.7583 8.48976 79.1436 10.1167 80.0732C15.082 82.9238 19.5117 84.104 24.7393 84.104C39.558 84.104 49.9755 73.689 63.5552 68.5084C62.8554 70.7543 62.349 73.1081 62.1834 75.5206Z" fill="#000000" fill-opacity="0.85"/>
  <path d="M74.6743 45.7268C56.4728 47.7495 44.5355 63.9619 24.773 63.9619C18.4927 63.9619 12.9766 62.4751 7.42872 59.271C5.42432 58.1172 5.3418 56.1011 6.24122 54.752C6.99073 53.5713 8.52345 52.9717 10.1504 53.9014C15.1157 56.7183 19.5454 57.9321 24.773 57.9321C44.3773 57.9321 56.2786 39.704 77.9964 39.4957Z" fill="#000000" fill-opacity="0.85"/>
  <path d="M95.7056 17.9605C97.7437 19.148 97.8262 21.1641 96.8931 22.5283C96.1099 23.6602 94.6109 24.2598 92.9839 23.3452C88.0186 20.5132 83.5552 19.3482 78.3613 19.3482C57.9932 19.3482 45.8169 37.7564 24.7393 37.7564C18.459 37.7564 12.9429 36.3032 7.39503 33.0991C5.39063 31.9453 5.30811 29.9292 6.20753 28.5801C6.95704 27.3994 8.48976 26.7998 10.1167 27.7295C15.082 30.5464 19.5117 31.7266 24.7393 31.7266C44.4663 31.7266 56.3936 13.3032 78.3613 13.3032C84.6568 13.3032 90.1577 14.7715 95.7056 17.9605Z" fill="#000000" fill-opacity="0.85"/>
  <path d="M88.6992 97.7315C100.346 97.7315 109.63 88.6729 109.63 77.3042C109.63 70.9717 106.471 64.7402 103.695 59.5747L92.5488 38.8115C91.5435 36.9019 90.5449 36.1255 88.6992 36.1255C86.8198 36.1255 85.855 36.9019 84.8496 38.7813L73.7222 59.5747C70.961 64.7402 67.8023 70.9717 67.8023 77.3042C67.8023 88.6729 77.0864 97.7315 88.6992 97.7315ZM88.6992 92.6333C79.9092 92.6333 72.9004 85.8838 72.9004 77.3042C72.9004 72.1524 75.5269 67.1167 78.2393 61.9815L88.169 43.501C88.4434 42.9673 89.0225 42.9673 89.2818 43.501L99.1255 61.9815C101.872 67.1167 104.517 72.1524 104.517 77.3042C104.517 85.8838 97.4893 92.6333 88.6992 92.6333Z" fill="#000000" fill-opacity="0.85"/>
 </g>
</svg>
