<?xml version="1.0" encoding="UTF-8"?>
<!--Generator: Apple Native CoreSVG 232.5-->
<!DOCTYPE svg
PUBLIC "-//W3C//DTD SVG 1.1//EN"
       "http://www.w3.org/Graphics/SVG/1.1/DTD/svg11.dtd">
<svg version="1.1" xmlns="http://www.w3.org/2000/svg" xmlns:xlink="http://www.w3.org/1999/xlink" width="120.892" height="103.422">
 <g>
  <rect height="103.422" opacity="0" width="120.892" x="0" y="0"/>
  <path d="M67.8035 75.5206C55.7354 80.9042 45.2767 90.1489 30.3594 90.1489C24.0791 90.1489 18.563 88.6807 13.0152 85.4429C11.0108 84.3228 10.9283 82.273 11.8277 80.9238C12.5772 79.7583 14.1099 79.1436 15.7369 80.0732C20.7022 82.9238 25.1319 84.104 30.3594 84.104C45.1782 84.104 55.5956 73.689 69.1753 68.5084C68.4756 70.7543 67.9691 73.1081 67.8035 75.5206Z" fill="#000000" fill-opacity="0.85"/>
  <path d="M80.2944 45.7268C62.093 47.7495 50.1557 63.9619 30.3931 63.9619C24.1128 63.9619 18.5967 62.4751 13.0489 59.271C11.0445 58.1172 10.9619 56.1011 11.8614 54.752C12.6109 53.5713 14.1436 52.9717 15.7705 53.9014C20.7359 56.7183 25.1656 57.9321 30.3931 57.9321C49.9975 57.9321 61.8987 39.704 83.6166 39.4957Z" fill="#000000" fill-opacity="0.85"/>
  <path d="M101.326 17.9605C103.364 19.148 103.446 21.1641 102.513 22.5283C101.73 23.6602 100.231 24.2598 98.604 23.3452C93.6387 20.5132 89.1753 19.3482 83.9815 19.3482C63.6133 19.3482 51.4371 37.7564 30.3594 37.7564C24.0791 37.7564 18.563 36.3032 13.0152 33.0991C11.0108 31.9453 10.9283 29.9292 11.8277 28.5801C12.5772 27.3994 14.1099 26.7998 15.7369 27.7295C20.7022 30.5464 25.1319 31.7266 30.3594 31.7266C50.0865 31.7266 62.0137 13.3032 83.9815 13.3032C90.2769 13.3032 95.7779 14.7715 101.326 17.9605Z" fill="#000000" fill-opacity="0.85"/>
  <path d="M94.3194 97.7315C105.966 97.7315 115.25 88.6729 115.25 77.3042C115.25 70.9717 112.091 64.7402 109.315 59.5747L98.169 38.8115C97.1636 36.9019 96.1651 36.1255 94.3194 36.1255C92.44 36.1255 91.4751 36.9019 90.4698 38.7813L79.3423 59.5747C76.5811 64.7402 73.4224 70.9717 73.4224 77.3042C73.4224 88.6729 82.7066 97.7315 94.3194 97.7315Z" fill="#000000" fill-opacity="0.85"/>
 </g>
</svg>
