<?xml version="1.0" encoding="UTF-8"?>
<!--Generator: Apple Native CoreSVG 232.5-->
<!DOCTYPE svg
PUBLIC "-//W3C//DTD SVG 1.1//EN"
       "http://www.w3.org/Graphics/SVG/1.1/DTD/svg11.dtd">
<svg version="1.1" xmlns="http://www.w3.org/2000/svg" xmlns:xlink="http://www.w3.org/1999/xlink" width="73.4585" height="107.123">
 <g>
  <rect height="107.123" opacity="0" width="73.4585" x="0" y="0"/>
  <path d="M12.0781 10.7031C13.8008 10.7031 15.2119 9.292 15.2119 7.56934C15.2119 5.84669 13.8008 4.42041 12.0781 4.42041C10.3555 4.42041 8.94434 5.84669 8.94434 7.56934C8.94434 9.292 10.3555 10.7031 12.0781 10.7031ZM36.8565 6.30127C38.5791 6.30127 39.9903 4.89014 39.9903 3.16748C39.9903 1.41113 38.5791 0 36.8565 0C35.1338 0 33.7075 1.41113 33.7075 3.16748C33.7075 4.89014 35.1338 6.30127 36.8565 6.30127ZM61.6197 10.7031C63.3423 10.7031 64.7535 9.292 64.7535 7.56934C64.7535 5.84669 63.3423 4.42041 61.6197 4.42041C59.897 4.42041 58.4859 5.84669 58.4859 7.56934C58.4859 9.292 59.897 10.7031 61.6197 10.7031Z" fill="#000000" fill-opacity="0.85"/>
  <path d="M20.2149 22.1138C21.9375 22.1138 23.3486 20.7026 23.3486 18.98C23.3486 17.2573 21.9375 15.8462 20.2149 15.8462C18.4585 15.8462 17.0474 17.2573 17.0474 18.98C17.0474 20.7026 18.4585 22.1138 20.2149 22.1138ZM36.8565 20.3677C38.5791 20.3677 39.9903 18.9566 39.9903 17.2339C39.9903 15.5112 38.5791 14.1001 36.8565 14.1001C35.1338 14.1001 33.7075 15.5112 33.7075 17.2339C33.7075 18.9566 35.1338 20.3677 36.8565 20.3677ZM53.5166 22.1138C55.2393 22.1138 56.6504 20.7026 56.6504 18.98C56.6504 17.2573 55.2393 15.8462 53.5166 15.8462C51.7603 15.8462 50.3828 17.2573 50.3828 18.98C50.3828 20.7026 51.7603 22.1138 53.5166 22.1138Z" fill="#000000" fill-opacity="0.85"/>
  <path d="M13.4898 48.2139L59.9536 48.2139C56.8404 43.3262 53.4073 38.3628 49.7032 33.332C47.6719 30.5918 46.0083 28.8809 42.1314 28.8809L31.312 28.8809C27.4688 28.8809 25.8052 30.5918 23.7402 33.332C20.0361 38.3628 16.603 43.3262 13.4898 48.2139ZM0.250977 77.6836L26.9585 77.6836C28.1392 73.4253 31.9986 70.3794 36.7403 70.3794C41.4146 70.3794 45.2588 73.4253 46.5034 77.6836L73.2227 77.6836C72.2662 71.2212 68.8179 63.0152 63.7383 54.1729L9.73877 54.1729C4.62549 63.0152 1.20752 71.2212 0.250977 77.6836ZM36.7403 85.6988C39.6226 85.6988 41.7759 83.5606 41.7759 80.6446C41.7759 77.7471 39.6226 75.6089 36.7403 75.6089C33.7905 75.6089 31.6861 77.7471 31.6861 80.6446C31.6861 83.5606 33.7905 85.6988 36.7403 85.6988ZM26.8677 107.041L46.5757 107.041C63.5118 107.041 72.5591 98.0899 73.4585 83.6578L46.4849 83.6578C45.2403 87.8824 41.3809 90.9283 36.7403 90.9283C31.9986 90.9283 28.1729 87.8824 26.9619 83.6578L0 83.6578C0.88428 98.0899 9.93165 107.041 26.8677 107.041Z" fill="#000000" fill-opacity="0.85"/>
 </g>
</svg>
