<?xml version="1.0" encoding="UTF-8"?>
<!--Generator: Apple Native CoreSVG 232.5-->
<!DOCTYPE svg
PUBLIC "-//W3C//DTD SVG 1.1//EN"
       "http://www.w3.org/Graphics/SVG/1.1/DTD/svg11.dtd">
<svg version="1.1" xmlns="http://www.w3.org/2000/svg" xmlns:xlink="http://www.w3.org/1999/xlink" width="97.9595" height="97.9932">
 <g>
  <rect height="97.9932" opacity="0" width="97.9595" x="0" y="0"/>
  <path d="M97.9595 49.021C97.9595 75.8584 75.8247 97.9932 48.9722 97.9932C22.1685 97.9932 0 75.8584 0 49.021C0 22.2173 22.1348 0.0488281 48.9385 0.0488281C75.791 0.0488281 97.9595 22.2173 97.9595 49.021ZM38.6206 34.374C37.8765 34.167 36.917 34.0728 36.2251 34.0728C31.061 34.0728 26.8482 37.7871 26.3882 42.9443C21.7612 44.7461 18.1885 49.1929 18.1885 54.7744C18.1885 62.5454 23.5127 67.1821 30.9883 67.1821L69.3418 67.1821C75.4082 67.1821 79.8384 62.6426 79.8384 56.8555C79.8384 51.7656 76.3784 47.6758 71.8257 46.8135C71.9199 46.1704 71.9502 45.3911 71.9502 44.8003C71.9502 34.7466 64.1626 26.624 53.5923 26.624C47.4097 26.624 41.9141 29.5723 38.6206 34.374Z" fill="#000000" fill-opacity="0.85"/>
 </g>
</svg>
