<?xml version="1.0" encoding="UTF-8"?>
<!--Generator: Apple Native CoreSVG 232.5-->
<!DOCTYPE svg
PUBLIC "-//W3C//DTD SVG 1.1//EN"
       "http://www.w3.org/Graphics/SVG/1.1/DTD/svg11.dtd">
<svg version="1.1" xmlns="http://www.w3.org/2000/svg" xmlns:xlink="http://www.w3.org/1999/xlink" width="88.4092" height="88.5371">
 <g>
  <rect height="88.5371" opacity="0" width="88.4092" x="0" y="0"/>
  <path d="M88.4092 14.4019L88.4092 74.2632C88.4092 83.6558 83.5733 88.5371 74.0005 88.5371L14.3936 88.5371C4.86963 88.5371 0 83.7349 0 74.2632L0 14.4019C0 4.93018 4.86963 0.127929 14.3936 0.127929L74.0005 0.127929C83.5733 0.127929 88.4092 5.00928 88.4092 14.4019ZM33.8774 29.5972C33.1333 29.3901 32.1587 29.2622 31.4819 29.2622C26.3179 29.2622 22.105 32.9766 21.6299 38.1675C17.0181 39.9356 13.4302 44.416 13.4302 49.9639C13.4302 57.7349 18.7695 62.4053 26.2451 62.4053L64.5986 62.4053C70.6499 62.4053 75.0801 57.8169 75.0801 52.0635C75.0801 46.9888 71.6353 42.8652 67.0825 42.0029C67.1768 41.3599 67.2256 40.6143 67.2256 40.0234C67.2256 29.9546 59.4043 21.8472 48.8491 21.8472C42.6665 21.8472 37.1558 24.7466 33.8774 29.5972Z" fill="#000000" fill-opacity="0.85"/>
 </g>
</svg>
