<?xml version="1.0" encoding="UTF-8"?>
<!--Generator: Apple Native CoreSVG 232.5-->
<!DOCTYPE svg
PUBLIC "-//W3C//DTD SVG 1.1//EN"
       "http://www.w3.org/Graphics/SVG/1.1/DTD/svg11.dtd">
<svg version="1.1" xmlns="http://www.w3.org/2000/svg" xmlns:xlink="http://www.w3.org/1999/xlink" width="119.848" height="133.225">
 <g>
  <rect height="133.225" opacity="0" width="119.848" x="0" y="0"/>
  <path d="M104.63 54.8911C114.272 58.3398 119.848 66.3394 119.848 75.7788C119.848 87.1714 111.469 95.811 97.2959 95.811L71.542 95.811L71.542 89.7661L97.2471 89.7661C108.122 89.7661 113.803 83.8735 113.803 75.7788C113.803 67.4072 108.211 61.4473 99.3545 59.3731C98.8291 59.2603 98.6001 58.8999 98.6338 58.3257C98.7534 56.1973 98.915 53.8482 98.7837 51.8628C97.7871 36.646 86.3853 24.0264 70.3848 24.0264C57.6172 24.0264 50.2661 31.2813 45.4693 39.7891C45.1914 40.2959 44.8648 40.3784 44.3242 40.1982C34.0386 37.2383 23.1719 41.9639 23.1719 56.3335C23.1719 56.9229 22.9429 57.2832 22.3198 57.2832C11.9985 57.2832 6.04494 64.2925 6.04494 73.6338C6.04494 82.668 12.4326 89.7661 24.3682 89.7661L48.0337 89.7661L48.0337 95.811L24.417 95.811C9.02198 95.811 0 86.0112 0 73.6338C0 62.4585 6.96045 53.834 17.7231 52.5337C17.8008 39.0703 31.4058 30.749 42.4595 33.9849C47.9102 25.228 57.0918 17.9966 70.3848 17.9966C89.7954 17.9966 105 33.583 104.63 54.8911Z" fill="#000000" fill-opacity="0.85"/>
  <path d="M59.8047 124.467C60.5542 124.467 61.1841 124.167 61.937 123.466L79.1069 106.992C79.7066 106.46 80.0064 105.827 80.0064 105.01C80.0064 103.511 78.7769 102.349 77.2744 102.349C76.5586 102.349 75.7788 102.697 75.2129 103.278L66.898 111.578L62.5669 116.041L62.7842 108.977L62.7842 65.6597C62.7842 64.0781 61.4199 62.729 59.8047 62.729C58.1895 62.729 56.8066 64.0781 56.8066 65.6597L56.8066 108.977L57.0239 116.089L52.6626 111.578L44.3477 103.278C43.7818 102.697 42.9683 102.349 42.2525 102.349C40.6861 102.349 39.5542 103.511 39.5542 105.01C39.5542 105.827 39.8203 106.46 40.4536 106.992L57.6387 123.466C58.4067 124.167 59.0215 124.467 59.8047 124.467Z" fill="#000000" fill-opacity="0.85"/>
 </g>
</svg>
