<?xml version="1.0" encoding="UTF-8"?>
<!--Generator: Apple Native CoreSVG 232.5-->
<!DOCTYPE svg
PUBLIC "-//W3C//DTD SVG 1.1//EN"
       "http://www.w3.org/Graphics/SVG/1.1/DTD/svg11.dtd">
<svg version="1.1" xmlns="http://www.w3.org/2000/svg" xmlns:xlink="http://www.w3.org/1999/xlink" width="119.848" height="112.854">
 <g>
  <rect height="112.854" opacity="0" width="119.848" x="0" y="0"/>
  <path d="M25.3567 40.5324C23.97 43.0875 23.1719 46.324 23.1719 50.2145C23.1719 50.8038 22.9429 51.1305 22.3198 51.1305C11.9985 51.1305 6.04494 58.8942 6.04494 68.7506C6.04494 79.3019 15.46 88.0319 28.1279 88.0319L72.9156 88.0523L78.9647 94.0964L28.1431 94.0617C12.0493 94.0617 0 82.7125 0 68.7506C0 57.0939 6.96045 47.715 17.7231 46.381C17.7458 42.454 18.873 38.8985 20.7711 35.9505ZM104.63 48.7721C114.272 52.4127 119.848 61.1329 119.848 71.0841C119.848 81.999 111.872 90.9623 100.744 93.4056L95.361 88.0249C105.851 87.6577 113.803 80.3763 113.803 71.0841C113.803 62.2008 108.211 55.3888 99.3545 53.254C98.8291 53.1227 98.6001 52.7809 98.6338 52.2218C98.7534 50.0934 98.915 47.7291 98.7837 45.7252C97.7871 30.5421 86.3853 17.9225 70.3848 17.9225C57.6172 17.9225 50.2661 25.1437 45.4693 33.6364C45.1914 34.1432 44.8648 34.2897 44.3242 34.0944C43.0332 33.6264 41.7314 33.3041 40.4423 33.1287L34.4119 27.1008C37.0469 26.72 39.7881 26.9497 42.4595 27.8658C47.9102 19.1241 57.0918 11.8776 70.3848 11.8776C89.7954 11.8776 105 27.4791 104.63 48.7721Z" fill="#000000" fill-opacity="0.85"/>
  <path d="M98.9297 106.979C100.095 108.11 101.909 108.11 103.056 106.979C104.173 105.862 104.222 103.984 103.056 102.852L20.8843 20.6803C19.7642 19.545 17.8223 19.567 16.7241 20.6803C15.626 21.7785 15.6445 23.7272 16.7241 24.8068Z" fill="#000000" fill-opacity="0.85"/>
 </g>
</svg>
