<?xml version="1.0" encoding="UTF-8"?>
<!--Generator: Apple Native CoreSVG 232.5-->
<!DOCTYPE svg
PUBLIC "-//W3C//DTD SVG 1.1//EN"
       "http://www.w3.org/Graphics/SVG/1.1/DTD/svg11.dtd">
<svg version="1.1" xmlns="http://www.w3.org/2000/svg" xmlns:xlink="http://www.w3.org/1999/xlink" width="119.848" height="108.148">
 <g>
  <rect height="108.148" opacity="0" width="119.848" x="0" y="0"/>
  <path d="M104.63 42.353C114.272 45.8691 119.848 54.3252 119.848 63.5625C119.848 74.8018 111.181 83.273 97.6177 83.273L62.8364 83.273L62.8364 105.251C62.8364 106.833 61.4873 108.148 59.8721 108.148C58.2568 108.148 56.874 106.833 56.874 105.251L56.874 83.273L25.0606 83.273C9.66553 83.273 0 73.6265 0 61.4175C0 50.4106 6.96045 41.3296 17.7231 39.9956C17.8008 26.5322 31.4058 18.2109 42.4595 21.4468C47.9102 12.6899 57.0918 5.45848 70.3848 5.45848C89.7954 5.45848 105 21.0449 104.63 42.353ZM57.7061 41.0903L40.521 57.8862C39.9551 58.4521 39.6216 59.0517 39.6216 59.8686C39.6216 61.3677 40.7534 62.5298 42.3198 62.5298C43.0357 62.5298 43.8828 62.1997 44.4151 61.6001L54.4649 51.2285L57.0762 48.5161L56.874 55.5796L56.874 81.9219C56.874 83.5557 58.2686 84.8106 59.8721 84.8106C61.457 84.8106 62.8364 83.5557 62.8364 81.9219L62.8364 55.5796L62.6343 48.5313L65.2305 51.2285L75.2803 61.6001C75.8125 62.1997 76.626 62.5298 77.3418 62.5298C78.8443 62.5298 80.0737 61.3677 80.0737 59.8686C80.0737 59.0517 79.7403 58.4521 79.1743 57.8862L62.0044 41.0903C61.27 40.3559 60.6216 40.0898 59.8721 40.0898C59.0889 40.0898 58.4404 40.3559 57.7061 41.0903Z" fill="#000000" fill-opacity="0.85"/>
 </g>
</svg>
