<?xml version="1.0" encoding="UTF-8"?>
<!--Generator: Apple Native CoreSVG 232.5-->
<!DOCTYPE svg
PUBLIC "-//W3C//DTD SVG 1.1//EN"
       "http://www.w3.org/Graphics/SVG/1.1/DTD/svg11.dtd">
<svg version="1.1" xmlns="http://www.w3.org/2000/svg" xmlns:xlink="http://www.w3.org/1999/xlink" width="119.848" height="119.132">
 <g>
  <rect height="119.132" opacity="0" width="119.848" x="0" y="0"/>
  <path d="M104.63 47.8447C114.272 51.2935 119.848 59.293 119.848 68.7324C119.848 80.125 111.469 88.7647 97.2959 88.7647L71.542 88.7647L71.542 82.7197L97.2471 82.7197C108.122 82.7197 113.803 76.8272 113.803 68.7324C113.803 60.3609 108.211 54.4009 99.3545 52.3267C98.8291 52.2139 98.6001 51.8535 98.6338 51.2793C98.7534 49.1509 98.915 46.8018 98.7837 44.8164C97.7871 29.5996 86.3853 16.98 70.3848 16.98C57.6172 16.98 50.2661 24.2349 45.4693 32.7427C45.1914 33.2495 44.8648 33.332 44.3242 33.1519C34.0386 30.1919 23.1719 34.9175 23.1719 49.2871C23.1719 49.8765 22.9429 50.2368 22.3198 50.2368C11.9985 50.2368 6.04494 57.2461 6.04494 66.5874C6.04494 75.6216 12.4326 82.7197 24.3682 82.7197L48.0337 82.7197L48.0337 88.7647L24.417 88.7647C9.02198 88.7647 0 78.9649 0 66.5874C0 55.4121 6.96045 46.7876 17.7231 45.4873C17.8008 32.0239 31.4058 23.7026 42.4595 26.9385C47.9102 18.1816 57.0918 10.9502 70.3848 10.9502C89.7954 10.9502 105 26.5366 104.63 47.8447Z" fill="#000000" fill-opacity="0.85"/>
  <path d="M59.8047 110.374C61.4199 110.374 62.7842 109.043 62.7842 107.462L62.7842 62.5694L62.5669 54.3384L66.898 58.8345L75.2129 67.1157C75.7788 67.6817 76.5586 68.0303 77.2744 68.0303C78.7769 68.0303 80.0064 66.9019 80.0064 65.3692C80.0064 64.5859 79.7066 63.919 79.1069 63.3867L61.937 46.9126C61.1841 46.2119 60.5542 45.9458 59.8047 45.9458C59.0215 45.9458 58.4067 46.2119 57.6387 46.9126L40.4536 63.3867C39.8203 63.919 39.5542 64.5859 39.5542 65.3692C39.5542 66.9019 40.6861 68.0303 42.2525 68.0303C42.9683 68.0303 43.7818 67.6817 44.3477 67.1157L52.6626 58.8345L57.0239 54.3233L56.8066 62.5694L56.8066 107.462C56.8066 109.043 58.1895 110.374 59.8047 110.374Z" fill="#000000" fill-opacity="0.85"/>
 </g>
</svg>
