<?xml version="1.0" encoding="UTF-8"?>
<!--Generator: Apple Native CoreSVG 232.5-->
<!DOCTYPE svg
PUBLIC "-//W3C//DTD SVG 1.1//EN"
       "http://www.w3.org/Graphics/SVG/1.1/DTD/svg11.dtd">
<svg version="1.1" xmlns="http://www.w3.org/2000/svg" xmlns:xlink="http://www.w3.org/1999/xlink" width="107.333" height="97.9932">
 <g>
  <rect height="97.9932" opacity="0" width="107.333" x="0" y="0"/>
  <path d="M58.3575 97.9443C85.1612 97.9443 107.33 75.7759 107.33 48.9722C107.33 22.1348 85.1612 0 58.3575 0C31.5201 0 9.38533 22.1011 9.38533 48.9385L15.7032 48.9385C15.7032 25.3164 34.7354 6.35158 58.3575 6.35158C81.9796 6.35158 101.012 25.3501 101.012 48.9722C101.012 72.5942 81.9796 91.6787 58.3575 91.6113C43.5182 91.5928 30.6148 84.0068 22.9474 72.5923C21.8121 71.0444 20.047 70.561 18.4806 71.479C16.9967 72.397 16.5655 74.4165 17.8018 76.0655C26.943 89.0161 41.5392 97.9443 58.3575 97.9443ZM2.84969 40.0024C7.79875e-05 40.0024-0.788009 41.9561 0.828693 44.2666L11.4786 59.4307C12.8326 61.3438 14.7677 61.3101 16.1031 59.4307L26.753 44.2329C28.336 41.9561 27.5479 40.0024 24.7169 40.0024Z" fill="#000000" fill-opacity="0.85"/>
  <path d="M64.8292 72.6026C66.1226 72.6026 67.1837 71.6797 67.1837 70.3003C67.1837 69.502 66.7979 68.8232 66.1563 68.2456L50.462 53.6489L52.5186 53.6489C62.1832 53.6489 66.9952 49.0195 67.8844 42.7461L72.2472 42.7461C73.4327 42.7461 74.2428 41.8384 74.2428 40.7319C74.2428 39.5732 73.4327 38.6992 72.2472 38.6992L67.9181 38.6992C67.6217 35.9634 66.6183 33.5357 64.7193 31.7173L72.0333 31.7173C73.2037 31.7173 74.0475 30.7759 74.0475 29.6846C74.0475 28.5107 73.2037 27.6704 72.0333 27.6704L62.3512 27.6704C60.8375 27.6704 59.2867 27.6704 57.773 27.6704L44.835 27.6704C43.4962 27.6704 42.484 28.6641 42.484 30.0064C42.484 31.2661 43.4962 32.3608 44.835 32.3608L54.5323 32.3608C58.7872 32.3608 61.8868 34.79 62.648 38.6992L44.7374 38.6992C43.6007 38.6992 42.7569 39.5732 42.7569 40.7319C42.7569 41.8384 43.6007 42.7461 44.7374 42.7461L62.7003 42.7461C61.897 46.8877 58.2994 48.9736 52.7589 48.9736L45.4483 48.9736C43.9005 48.9736 42.7535 49.9707 42.7535 51.5825C42.7535 52.8643 43.3531 53.5093 44.148 54.2705L62.5538 71.5112C63.401 72.3399 64.0006 72.6026 64.8292 72.6026Z" fill="#000000" fill-opacity="0.85"/>
 </g>
</svg>
