<?xml version="1.0" encoding="UTF-8"?>
<!--Generator: Apple Native CoreSVG 232.5-->
<!DOCTYPE svg
PUBLIC "-//W3C//DTD SVG 1.1//EN"
       "http://www.w3.org/Graphics/SVG/1.1/DTD/svg11.dtd">
<svg version="1.1" xmlns="http://www.w3.org/2000/svg" xmlns:xlink="http://www.w3.org/1999/xlink" width="88.4092" height="88.5371">
 <g>
  <rect height="88.5371" opacity="0" width="88.4092" x="0" y="0"/>
  <path d="M14.3936 88.5371L74.0005 88.5371C83.5733 88.5371 88.4092 83.6558 88.4092 74.2632L88.4092 14.4019C88.4092 5.00928 83.5733 0.127929 74.0005 0.127929L14.3936 0.127929C4.86963 0.127929 0 4.93018 0 14.4019L0 74.2632C0 83.7349 4.86963 88.5371 14.3936 88.5371ZM14.5064 82.4922C9.00294 82.4922 6.04494 79.6016 6.04494 73.9634L6.04494 14.7017C6.04494 9.06349 9.00294 6.17287 14.5064 6.17287L73.9028 6.17287C79.2969 6.17287 82.3643 9.06349 82.3643 14.7017L82.3643 73.9634C82.3643 79.6016 79.2969 82.4922 73.9028 82.4922Z" fill="#000000" fill-opacity="0.85"/>
  <path d="M50.7007 67.8745C51.9941 67.8745 53.0889 66.9517 53.0889 65.5723C53.0889 64.7739 52.6543 64.0952 52.0278 63.5176L36.3521 48.9209L38.4238 48.9209C48.0733 48.9209 52.9004 44.2915 53.7896 38.0181L58.1187 38.0181C59.3228 38.0181 60.148 37.1104 60.148 36.0039C60.148 34.8452 59.3228 33.9712 58.1187 33.9712L53.8233 33.9712C53.5269 31.2354 52.5083 28.8076 50.6245 26.9893L57.8897 26.9893C59.1089 26.9893 59.919 26.0479 59.919 24.9565C59.919 23.7827 59.1089 22.9424 57.8897 22.9424L48.2412 22.9424C46.709 22.9424 45.1768 22.9424 43.6445 22.9424L30.6914 22.9424C29.3862 22.9424 28.3403 23.936 28.3403 25.2783C28.3403 26.5381 29.3862 27.6328 30.6914 27.6328L40.3887 27.6328C44.6587 27.6328 47.7769 30.062 48.5381 33.9712L30.6426 33.9712C29.457 33.9712 28.6133 34.8452 28.6133 36.0039C28.6133 37.1104 29.457 38.0181 30.6426 38.0181L48.6055 38.0181C47.7871 42.1597 44.1558 44.2456 38.6641 44.2456L31.3535 44.2456C29.7905 44.2456 28.6587 45.2427 28.6587 46.8545C28.6587 48.1362 29.2583 48.7813 30.0532 49.5425L48.4102 66.7832C49.2725 67.6118 49.8721 67.8745 50.7007 67.8745Z" fill="#000000" fill-opacity="0.85"/>
 </g>
</svg>
