<?xml version="1.0" encoding="UTF-8"?>
<!--Generator: Apple Native CoreSVG 232.5-->
<!DOCTYPE svg
PUBLIC "-//W3C//DTD SVG 1.1//EN"
       "http://www.w3.org/Graphics/SVG/1.1/DTD/svg11.dtd">
<svg version="1.1" xmlns="http://www.w3.org/2000/svg" xmlns:xlink="http://www.w3.org/1999/xlink" width="88.4092" height="88.5371">
 <g>
  <rect height="88.5371" opacity="0" width="88.4092" x="0" y="0"/>
  <path d="M88.4092 14.4019L88.4092 74.2632C88.4092 83.6558 83.5733 88.5371 74.0005 88.5371L14.3936 88.5371C4.86963 88.5371 0 83.7349 0 74.2632L0 14.4019C0 4.93018 4.86963 0.127929 14.3936 0.127929L74.0005 0.127929C83.5733 0.127929 88.4092 5.00928 88.4092 14.4019ZM48.3086 22.501C46.7275 22.501 45.1768 22.501 43.6108 22.501L30.4033 22.501C29.0645 22.501 27.9849 23.5283 27.9849 24.8892C27.9849 26.1826 29.0645 27.311 30.4033 27.311L40.269 27.311C44.625 27.311 47.8105 29.7739 48.5718 33.7505L30.3545 33.7505C29.1353 33.7505 28.2578 34.6431 28.2578 35.8506C28.2578 36.9756 29.1353 37.917 30.3545 37.917L48.6728 37.917C47.8208 42.126 44.1221 44.2456 38.5293 44.2456L31.0991 44.2456C29.4688 44.2456 28.3032 45.2764 28.3032 46.9556C28.3032 48.271 28.9365 48.916 29.7314 49.711L48.4438 67.2734C49.3398 68.1358 49.9731 68.3833 50.8203 68.3833C52.1475 68.3833 53.2759 67.4605 53.2759 66.0288C53.2759 65.2153 52.8228 64.5181 52.1812 63.9067L36.2324 49.0557L38.3228 49.0557C48.1743 49.0557 53.0874 44.3252 53.9766 37.917L58.4404 37.917C59.6782 37.917 60.5034 36.9756 60.5034 35.8506C60.5034 34.6431 59.6782 33.7505 58.4404 33.7505L54.044 33.7505C53.7139 30.981 52.7105 28.4858 50.7778 26.6338L58.1777 26.6338C59.4307 26.6338 60.2744 25.6587 60.2744 24.5337C60.2744 23.3262 59.4307 22.501 58.1777 22.501Z" fill="#000000" fill-opacity="0.85"/>
 </g>
</svg>
