<?xml version="1.0" encoding="UTF-8"?>
<!--Generator: Apple Native CoreSVG 232.5-->
<!DOCTYPE svg
PUBLIC "-//W3C//DTD SVG 1.1//EN"
       "http://www.w3.org/Graphics/SVG/1.1/DTD/svg11.dtd">
<svg version="1.1" xmlns="http://www.w3.org/2000/svg" xmlns:xlink="http://www.w3.org/1999/xlink" width="97.9595" height="97.9932">
 <g>
  <rect height="97.9932" opacity="0" width="97.9595" x="0" y="0"/>
  <path d="M97.9595 48.9722C97.9595 75.7759 75.8247 97.9443 48.9722 97.9443C22.1685 97.9443 0 75.7759 0 48.9722C0 22.1348 22.1348 0 48.9385 0C75.791 0 97.9595 22.1348 97.9595 48.9722ZM54.9004 40.0239L49.0361 45.5835L43.1753 40.0239C38.8447 35.9492 34.9585 33.7622 30.1851 33.7471C21.6245 33.7471 15.7666 39.9165 15.7666 48.9722C15.7666 57.9942 21.6245 64.1182 30.1851 64.1182C34.9248 64.1182 38.811 61.9951 43.1753 57.8867L49.0361 52.3609L54.9004 57.8867C59.4985 62.2442 63.2754 64.1182 67.8569 64.1182C76.4512 64.1182 82.3545 57.9942 82.3545 48.9722C82.3545 39.9165 76.4512 33.7471 67.8569 33.7471C63.272 33.7471 59.48 35.6362 54.9004 40.0239ZM39.6401 43.5962L45.501 48.9722L39.6401 54.333C36.0776 57.6094 33.4326 59.1733 30.1851 59.1733C24.5298 59.1733 20.73 55.0923 20.73 48.9722C20.73 42.8521 24.5298 38.6919 30.1851 38.6919C33.2627 38.707 35.8589 40.0859 39.6401 43.5962ZM77.376 48.9722C77.376 55.0772 73.5273 59.1733 67.8569 59.1733C64.6094 59.1733 61.9644 57.6094 58.3867 54.333L52.5747 48.9722L58.3867 43.5962C62.168 40.0859 64.7979 38.707 67.8569 38.6919C73.5122 38.6919 77.376 42.8521 77.376 48.9722Z" fill="#000000" fill-opacity="0.85"/>
 </g>
</svg>
