<?xml version="1.0" encoding="UTF-8"?>
<!--Generator: Apple Native CoreSVG 232.5-->
<!DOCTYPE svg
PUBLIC "-//W3C//DTD SVG 1.1//EN"
       "http://www.w3.org/Graphics/SVG/1.1/DTD/svg11.dtd">
<svg version="1.1" xmlns="http://www.w3.org/2000/svg" xmlns:xlink="http://www.w3.org/1999/xlink" width="88.4092" height="88.5371">
 <g>
  <rect height="88.5371" opacity="0" width="88.4092" x="0" y="0"/>
  <path d="M14.3936 88.5371L74.0005 88.5371C83.5733 88.5371 88.4092 83.6558 88.4092 74.2632L88.4092 14.4019C88.4092 5.00928 83.5733 0.127929 74.0005 0.127929L14.3936 0.127929C4.86963 0.127929 0 4.93018 0 14.4019L0 74.2632C0 83.7349 4.86963 88.5371 14.3936 88.5371ZM14.5064 82.4922C9.00294 82.4922 6.04494 79.6016 6.04494 73.9634L6.04494 14.7017C6.04494 9.06349 9.00294 6.17287 14.5064 6.17287L73.9028 6.17287C79.2969 6.17287 82.3643 9.06349 82.3643 14.7017L82.3643 73.9634C82.3643 79.6016 79.2969 82.4922 73.9028 82.4922Z" fill="#000000" fill-opacity="0.85"/>
  <path d="M35.521 71.1943L55.5151 71.1943C57.1084 71.1943 58.3076 70.0171 58.3076 68.4541C58.3076 66.9585 57.1084 65.7476 55.5151 65.7476L48.5069 65.7476L48.5069 38.3814C48.5069 36.3955 47.4609 35.0313 45.5459 35.0313L36.1543 35.0313C34.561 35.0313 33.3618 36.2422 33.3618 37.7378C33.3618 39.2857 34.561 40.4629 36.1543 40.4629L42.5293 40.4629L42.5293 65.7476L35.521 65.7476C33.9277 65.7476 32.7285 66.9585 32.7285 68.4541C32.7285 70.0171 33.9277 71.1943 35.521 71.1943ZM43.9746 26.1236C46.9639 26.1236 49.3233 23.7608 49.3233 20.7715C49.3233 17.7822 46.9639 15.3892 43.9746 15.3892C41.019 15.3892 38.6108 17.7822 38.6108 20.7715C38.6108 23.7608 41.019 26.1236 43.9746 26.1236Z" fill="#000000" fill-opacity="0.85"/>
 </g>
</svg>
