<?xml version="1.0" encoding="UTF-8"?>
<!--Generator: Apple Native CoreSVG 232.5-->
<!DOCTYPE svg
PUBLIC "-//W3C//DTD SVG 1.1//EN"
       "http://www.w3.org/Graphics/SVG/1.1/DTD/svg11.dtd">
<svg version="1.1" xmlns="http://www.w3.org/2000/svg" xmlns:xlink="http://www.w3.org/1999/xlink" width="97.9595" height="97.9932">
 <g>
  <rect height="97.9932" opacity="0" width="97.9595" x="0" y="0"/>
  <path d="M97.9595 48.9722C97.9595 75.7759 75.8247 97.9443 48.9722 97.9443C22.1685 97.9443 0 75.7759 0 48.9722C0 22.1348 22.1348 0 48.9385 0C75.791 0 97.9595 22.1348 97.9595 48.9722ZM40.7105 39.5908C39.0835 39.5908 37.8506 40.8692 37.8506 42.3985C37.8506 44.0137 39.0835 45.2246 40.7105 45.2246L47.1865 45.2246L47.1865 70.8984L40.0772 70.8984C38.4165 70.8984 37.1836 72.1768 37.1836 73.7061C37.1836 75.3213 38.4165 76.5322 40.0772 76.5322L60.4453 76.5322C62.1211 76.5322 63.354 75.3213 63.354 73.7061C63.354 72.1768 62.1211 70.8984 60.4453 70.8984L53.3511 70.8984L53.3511 43.0757C53.3511 41.0376 52.2866 39.5908 50.2891 39.5908ZM43.167 25.0581C43.167 28.1333 45.6274 30.5635 48.6841 30.5635C51.7407 30.5635 54.1675 28.1333 54.1675 25.0581C54.1675 21.9678 51.7407 19.5073 48.6841 19.5073C45.6274 19.5073 43.167 21.9678 43.167 25.0581Z" fill="#000000" fill-opacity="0.85"/>
 </g>
</svg>
