<?xml version="1.0" encoding="UTF-8"?>
<!--Generator: Apple Native CoreSVG 232.5-->
<!DOCTYPE svg
PUBLIC "-//W3C//DTD SVG 1.1//EN"
       "http://www.w3.org/Graphics/SVG/1.1/DTD/svg11.dtd">
<svg version="1.1" xmlns="http://www.w3.org/2000/svg" xmlns:xlink="http://www.w3.org/1999/xlink" width="111.188" height="80.2432">
 <g>
  <rect height="80.2432" opacity="0" width="111.188" x="0" y="0"/>
  <path d="M41.6606 66.502L41.6606 56.2378C41.6606 54.8906 42.7451 53.7725 44.1597 53.7725C45.522 53.7725 46.6401 54.8906 46.6401 56.2378L46.6401 66.502C46.6401 67.8828 45.522 69.001 44.1597 69.001C42.7451 69.001 41.6606 67.8828 41.6606 66.502ZM53.0781 66.502L53.0781 56.2378C53.0781 54.8906 54.1963 53.7725 55.6108 53.7725C56.9732 53.7725 58.0913 54.8906 58.0913 56.2378L58.0913 66.502C58.0913 67.8828 56.9732 69.001 55.6108 69.001C54.1963 69.001 53.0781 67.8828 53.0781 66.502ZM64.5293 66.502L64.5293 56.2378C64.5293 54.8906 65.6475 53.7725 67.0283 53.7725C68.4243 53.7725 69.5425 54.8906 69.5425 56.2378L69.5425 66.502C69.5425 67.8828 68.4243 69.001 67.0283 69.001C65.6475 69.001 64.5293 67.8828 64.5293 66.502ZM75.9805 66.502L75.9805 56.2378C75.9805 54.8906 77.0649 53.7725 78.4795 53.7725C79.8755 53.7725 80.96 54.8906 80.96 56.2378L80.96 66.502C80.96 67.8828 79.8755 69.001 78.4795 69.001C77.0649 69.001 75.9805 67.8828 75.9805 66.502ZM87.4653 66.502L87.4653 56.2378C87.4653 54.8906 88.5498 53.7725 89.9644 53.7725C91.3267 53.7725 92.4111 54.8906 92.4111 56.2378L92.4111 66.502C92.4111 67.8828 91.3267 69.001 89.9644 69.001C88.5498 69.001 87.4653 67.8828 87.4653 66.502ZM18.9121 80.2432L92.291 80.2432C103.217 80.2432 111.188 72.291 111.188 61.4321C111.188 50.5581 103.217 42.5874 92.291 42.5874L18.9121 42.5874C7.9707 42.5874 0 50.5581 0 61.4321C0 72.291 7.9707 80.2432 18.9121 80.2432ZM18.9121 36.897L92.291 36.897C96.7144 36.897 100.777 37.9526 104.27 39.8535L91.6006 10.5898C88.6944 3.74658 82.9336 0.0942379 75.1675 0.0942379L36.0205 0.0942379C28.2695 0.0942379 22.4936 3.74658 19.5874 10.5898L6.86963 39.8535C10.3955 37.9526 14.4736 36.897 18.9121 36.897Z" fill="#000000" fill-opacity="0.85"/>
 </g>
</svg>
