<?xml version="1.0" encoding="UTF-8"?>
<!--Generator: Apple Native CoreSVG 232.5-->
<!DOCTYPE svg
PUBLIC "-//W3C//DTD SVG 1.1//EN"
       "http://www.w3.org/Graphics/SVG/1.1/DTD/svg11.dtd">
<svg version="1.1" xmlns="http://www.w3.org/2000/svg" xmlns:xlink="http://www.w3.org/1999/xlink" width="113.134" height="81.3281">
 <g>
  <rect height="81.3281" opacity="0" width="113.134" x="0" y="0"/>
  <path d="M42.9141 65.6226C42.9141 66.9849 43.9649 68.0693 45.3608 68.0693C46.6743 68.0693 47.7588 66.9849 47.7588 65.6226L47.7588 55.5606C47.7588 54.2319 46.6743 53.1475 45.3608 53.1475C43.9649 53.1475 42.9141 54.2319 42.9141 55.5606ZM54.1108 65.6226C54.1108 66.9849 55.1953 68.0693 56.5762 68.0693C57.9048 68.0693 58.9893 66.9849 58.9893 65.6226L58.9893 55.5606C58.9893 54.2319 57.9048 53.1475 56.5762 53.1475C55.1953 53.1475 54.1108 54.2319 54.1108 55.5606ZM65.3413 65.6226C65.3413 66.9849 66.4107 68.0693 67.773 68.0693C69.1353 68.0693 70.2197 66.9849 70.2197 65.6226L70.2197 55.5606C70.2197 54.2319 69.1353 53.1475 67.773 53.1475C66.4107 53.1475 65.3413 54.2319 65.3413 55.5606ZM76.5566 65.6226C76.5566 66.9849 77.6074 68.0693 79.0034 68.0693C80.3657 68.0693 81.4165 66.9849 81.4165 65.6226L81.4165 55.5606C81.4165 54.2319 80.3657 53.1475 79.0034 53.1475C77.6074 53.1475 76.5566 54.2319 76.5566 55.5606ZM87.7871 65.6226C87.7871 66.9849 88.8379 68.0693 90.2339 68.0693C91.5474 68.0693 92.6318 66.9849 92.6318 65.6226L92.6318 55.5606C92.6318 54.2319 91.5474 53.1475 90.2339 53.1475C88.8379 53.1475 87.7871 54.2319 87.7871 55.5606ZM0 60.6538C0 72.2236 9.1045 81.3281 21.4527 81.3281L91.6812 81.3281C104.029 81.3281 113.134 72.2236 113.134 60.6538C113.134 57.1733 112.09 54.0381 110.835 51.1133L93.4116 10.9302C90.3706 3.81397 84.396 0.127929 76.4883 0.127929L36.6455 0.127929C28.7227 0.127929 22.748 3.81397 19.7222 10.9302L2.23438 51.1133C1.02881 53.9893 0 57.1733 0 60.6538ZM6.04494 60.6538C6.04494 52.4155 12.436 46.0093 21.4527 46.0093L91.6812 46.0093C100.698 46.0093 107.089 52.4155 107.089 60.6538C107.089 69.5357 100.698 75.2983 91.6812 75.2983L21.4527 75.2983C12.436 75.2983 6.04494 68.8921 6.04494 60.6538ZM13.0772 41.8848L25.5532 12.5386C27.5147 7.83937 31.4126 5.45021 36.7031 5.45021L76.4307 5.45021C81.7212 5.45021 85.6528 7.83937 87.5806 12.5386L100.026 41.8696C97.5347 40.6611 94.7148 39.9644 91.6812 39.9644L21.4527 39.9644C18.3887 39.9644 15.5352 40.6611 13.0772 41.8848Z" fill="#000000" fill-opacity="0.85"/>
 </g>
</svg>
