<?xml version="1.0" encoding="UTF-8"?>
<!--Generator: Apple Native CoreSVG 232.5-->
<!DOCTYPE svg
PUBLIC "-//W3C//DTD SVG 1.1//EN"
       "http://www.w3.org/Graphics/SVG/1.1/DTD/svg11.dtd">
<svg version="1.1" xmlns="http://www.w3.org/2000/svg" xmlns:xlink="http://www.w3.org/1999/xlink" width="114.35" height="88.5371">
 <g>
  <rect height="88.5371" opacity="0" width="114.35" x="0" y="0"/>
  <path d="M8.16358 46.8272C6.78956 46.8608 5.64454 45.6821 5.62598 44.2896C5.59229 42.9492 6.771 41.8042 8.12989 41.8042C9.5376 41.8042 10.6489 42.9492 10.6489 44.2896C10.6489 45.6821 9.50391 46.7935 8.16358 46.8272ZM15.478 82.4922L15.478 6.17287L98.8564 6.17287L98.8564 82.4922ZM105.824 48.2349C103.632 48.2349 101.931 46.4517 101.931 44.2593C101.931 42.1157 103.666 40.3477 105.858 40.3477C108.035 40.3477 109.785 42.1157 109.785 44.2593C109.785 46.4517 108.035 48.2349 105.824 48.2349Z" fill="#000000" fill-opacity="0.2125"/>
  <path d="M14.3936 88.5371L99.9409 88.5371C109.514 88.5371 114.35 83.6558 114.35 74.2632L114.35 14.4019C114.35 5.00928 109.514 0.127929 99.9409 0.127929L14.3936 0.127929C4.86963 0.127929 0 4.93018 0 14.4019L0 74.2632C0 83.7349 4.86963 88.5371 14.3936 88.5371ZM8.16358 46.8272C6.78956 46.8608 5.64454 45.6821 5.62598 44.2896C5.59229 42.9492 6.771 41.8042 8.12989 41.8042C9.5376 41.8042 10.6489 42.9492 10.6489 44.2896C10.6489 45.6821 9.50391 46.7935 8.16358 46.8272ZM15.478 82.4922L15.478 6.17287L98.8564 6.17287L98.8564 82.4922ZM105.824 48.2349C103.632 48.2349 101.931 46.4517 101.931 44.2593C101.931 42.1157 103.666 40.3477 105.858 40.3477C108.035 40.3477 109.785 42.1157 109.785 44.2593C109.785 46.4517 108.035 48.2349 105.824 48.2349Z" fill="#000000" fill-opacity="0.85"/>
 </g>
</svg>
