<?xml version="1.0" encoding="UTF-8"?>
<!--Generator: Apple Native CoreSVG 232.5-->
<!DOCTYPE svg
PUBLIC "-//W3C//DTD SVG 1.1//EN"
       "http://www.w3.org/Graphics/SVG/1.1/DTD/svg11.dtd">
<svg version="1.1" xmlns="http://www.w3.org/2000/svg" xmlns:xlink="http://www.w3.org/1999/xlink" width="79.5332" height="107.581">
 <g>
  <rect height="107.581" opacity="0" width="79.5332" x="0" y="0"/>
  <path d="M6.04494 93.8716L6.04494 13.7363C6.04494 8.80909 8.83448 6.0381 13.8965 6.0381L65.6367 6.0381C70.665 6.0381 73.5034 8.80909 73.5034 13.7363L73.5034 93.8716C73.5034 98.7988 70.665 101.536 65.6367 101.536L13.8965 101.536C8.83448 101.536 6.04494 98.7988 6.04494 93.8716Z" fill="#000000" fill-opacity="0.2125"/>
  <path d="M0 94.7964C0 102.678 5.05664 107.581 13.2075 107.581L66.3257 107.581C74.4766 107.581 79.5332 102.678 79.5332 94.7964L79.5332 12.8267C79.5332 4.93018 74.4766 0.00829995 66.3257 0.00829995L13.2075 0.00829995C5.05664 0.00829995 0 4.93018 0 12.8267ZM6.04494 93.8716L6.04494 13.7363C6.04494 8.80909 8.83448 6.0381 13.8965 6.0381L65.6367 6.0381C70.665 6.0381 73.5034 8.80909 73.5034 13.7363L73.5034 93.8716C73.5034 98.7988 70.665 101.536 65.6367 101.536L13.8965 101.536C8.83448 101.536 6.04494 98.7988 6.04494 93.8716ZM26.1812 97.8252L53.3521 97.8252C54.4922 97.8252 55.2988 97.0186 55.2988 95.8784C55.2988 94.7383 54.4922 93.9653 53.3521 93.9653L26.1812 93.9653C25.0747 93.9653 24.2681 94.7383 24.2681 95.8784C24.2681 97.0186 25.0747 97.8252 26.1812 97.8252Z" fill="#000000" fill-opacity="0.85"/>
 </g>
</svg>
