<?xml version="1.0" encoding="UTF-8"?>
<!--Generator: Apple Native CoreSVG 232.5-->
<!DOCTYPE svg
PUBLIC "-//W3C//DTD SVG 1.1//EN"
       "http://www.w3.org/Graphics/SVG/1.1/DTD/svg11.dtd">
<svg version="1.1" xmlns="http://www.w3.org/2000/svg" xmlns:xlink="http://www.w3.org/1999/xlink" width="148.115" height="100.561">
 <g>
  <rect height="100.561" opacity="0" width="148.115" x="0" y="0"/>
  <path d="M17.44 82.731C18.624 81.397 18.2417 79.6016 16.9077 78.1143C10.0469 70.7632 6.09718 61.0415 6.09718 50.2559C6.09718 39.4702 10.0469 29.7334 16.9077 22.3975C18.2417 20.9102 18.624 19.1148 17.44 17.7808C16.2407 16.3643 14.1421 16.4282 12.7256 17.9644C4.68066 26.4507 0 37.8364 0 50.2559C0 62.6753 4.68066 74.0122 12.7256 82.5474C14.1421 84.0835 16.2407 84.1138 17.44 82.731ZM130.675 82.731C131.874 84.1138 133.988 84.0835 135.438 82.5474C143.468 74.0122 148.115 62.6753 148.115 50.2559C148.115 37.8364 143.468 26.4507 135.438 17.9644C133.988 16.4282 131.874 16.3643 130.675 17.7808C129.506 19.1148 129.888 20.9102 131.222 22.3975C138.068 29.7334 142.018 39.4702 142.018 50.2559C142.018 61.0415 138.068 70.7632 131.222 78.1143C129.888 79.6016 129.506 81.397 130.675 82.731Z" fill="#000000" fill-opacity="0.425"/>
  <path d="M30.8545 69.0269C32.0386 67.6929 31.5703 65.9649 30.3408 64.4102C26.9722 60.7178 25.3594 55.6821 25.3594 50.2559C25.3594 44.8296 26.9722 39.7451 30.3408 36.1016C31.5703 34.5469 32.0386 32.8189 30.8545 31.4849C29.6216 30.0684 27.3882 30.0835 26.0728 31.7358C21.7339 36.7368 19.2622 43.2295 19.2622 50.2559C19.2622 57.2822 21.7339 63.7749 26.0728 68.7759C27.3882 70.4131 29.6216 70.4097 30.8545 69.0269ZM117.275 69.0269C118.508 70.4097 120.727 70.4131 122.057 68.7759C126.381 63.7749 128.901 57.2822 128.901 50.2559C128.901 43.2295 126.381 36.7368 122.057 31.7358C120.727 30.0835 118.508 30.0684 117.275 31.4849C116.091 32.8189 116.578 34.5469 117.774 36.1016C121.143 39.7451 122.789 44.8296 122.789 50.2559C122.789 55.6821 121.143 60.7178 117.774 64.4102C116.578 65.9649 116.091 67.6929 117.275 69.0269Z" fill="#000000" fill-opacity="0.425"/>
  <path d="M57.7657 94.4634C52.8584 94.4634 50.397 92.0845 50.397 87.3457L50.397 13.1626C50.397 8.42384 52.8584 6.0298 57.7657 6.0298L63.7735 6.0298C64.5093 6.0298 64.8697 6.40529 64.8697 7.07716L64.8697 7.95802C64.8697 9.81203 66.0855 11.043 67.8907 11.043L80.3555 11.043C82.1607 11.043 83.3579 9.81203 83.3579 7.95802L83.3579 7.07716C83.3579 6.40529 83.7183 6.0298 84.4239 6.0298L90.462 6.0298C95.3203 6.0298 97.7969 8.42384 97.7969 13.1626L97.7969 87.3457C97.7969 92.0845 95.3203 94.4634 90.462 94.4634Z" fill="#000000" fill-opacity="0.2125"/>
  <path d="M57.043 100.493L91.1358 100.493C99.0039 100.493 103.827 95.8086 103.827 88.1763L103.827 12.3169C103.827 4.68457 99.0039 0 91.1358 0L57.043 0C49.19 0 44.3521 4.68457 44.3521 12.3169L44.3521 88.1763C44.3521 95.8086 49.19 100.493 57.043 100.493ZM57.7657 94.4634C52.8584 94.4634 50.397 92.0845 50.397 87.3457L50.397 13.1626C50.397 8.42384 52.8584 6.0298 57.7657 6.0298L63.7735 6.0298C64.5093 6.0298 64.8697 6.40529 64.8697 7.07716L64.8697 7.95802C64.8697 9.81203 66.0855 11.043 67.8907 11.043L80.3555 11.043C82.1607 11.043 83.3579 9.81203 83.3579 7.95802L83.3579 7.07716C83.3579 6.40529 83.7183 6.0298 84.4239 6.0298L90.462 6.0298C95.3203 6.0298 97.7969 8.42384 97.7969 13.1626L97.7969 87.3457C97.7969 92.0845 95.3203 94.4634 90.462 94.4634ZM63.9893 91.0503L84.2569 91.0503C85.3633 91.0503 86.17 90.2437 86.17 89.1035C86.17 87.9785 85.3633 87.2056 84.2569 87.2056L63.9893 87.2056C62.8828 87.2056 62.0576 87.9785 62.0576 89.1035C62.0576 90.2437 62.8828 91.0503 63.9893 91.0503Z" fill="#000000" fill-opacity="0.85"/>
 </g>
</svg>
