<?xml version="1.0" encoding="UTF-8"?>
<!--Generator: Apple Native CoreSVG 232.5-->
<!DOCTYPE svg
PUBLIC "-//W3C//DTD SVG 1.1//EN"
       "http://www.w3.org/Graphics/SVG/1.1/DTD/svg11.dtd">
<svg version="1.1" xmlns="http://www.w3.org/2000/svg" xmlns:xlink="http://www.w3.org/1999/xlink" width="59.4746" height="100.561">
 <g>
  <rect height="100.561" opacity="0" width="59.4746" x="0" y="0"/>
  <path d="M13.4136 94.4634C8.50636 94.4634 6.04494 92.0845 6.04494 87.3457L6.04494 13.1626C6.04494 8.42384 8.50636 6.0298 13.4136 6.0298L46.0947 6.0298C50.9683 6.0298 53.4297 8.42384 53.4297 13.1626L53.4297 87.3457C53.4297 92.0845 50.9683 94.4634 46.0947 94.4634Z" fill="#000000" fill-opacity="0.2125"/>
  <path d="M12.6909 100.493L46.7837 100.493C54.6367 100.493 59.4746 95.8086 59.4746 88.1763L59.4746 12.3169C59.4746 4.68457 54.6367 0 46.7837 0L12.6909 0C4.82276 0 0 4.68457 0 12.3169L0 88.1763C0 95.8086 4.82276 100.493 12.6909 100.493ZM13.4136 94.4634C8.50636 94.4634 6.04494 92.0845 6.04494 87.3457L6.04494 13.1626C6.04494 8.42384 8.50636 6.0298 13.4136 6.0298L46.0947 6.0298C50.9683 6.0298 53.4297 8.42384 53.4297 13.1626L53.4297 87.3457C53.4297 92.0845 50.9683 94.4634 46.0947 94.4634ZM19.6372 91.0503L39.9048 91.0503C41.0112 91.0503 41.8028 90.2437 41.8028 89.1035C41.8028 87.9785 41.0112 87.2056 39.9048 87.2056L19.6372 87.2056C18.5308 87.2056 17.6904 87.9785 17.6904 89.1035C17.6904 90.2437 18.5308 91.0503 19.6372 91.0503ZM24.0503 14.9888L35.458 14.9888C37.0899 14.9888 38.3462 13.7324 38.3462 12.0669C38.3462 10.4199 37.0899 9.17873 35.458 9.17873L24.0503 9.17873C22.3848 9.17873 21.1284 10.4199 21.1284 12.0669C21.1284 13.7324 22.3848 14.9888 24.0503 14.9888Z" fill="#000000" fill-opacity="0.85"/>
 </g>
</svg>
