<?xml version="1.0" encoding="UTF-8"?>
<!--Generator: Apple Native CoreSVG 232.5-->
<!DOCTYPE svg
PUBLIC "-//W3C//DTD SVG 1.1//EN"
       "http://www.w3.org/Graphics/SVG/1.1/DTD/svg11.dtd">
<svg version="1.1" xmlns="http://www.w3.org/2000/svg" xmlns:xlink="http://www.w3.org/1999/xlink" width="97.9595" height="98.2627">
 <g>
  <rect height="98.2627" opacity="0" width="97.9595" x="0" y="0"/>
  <path d="M48.9722 97.9595C75.8247 97.9595 97.9595 75.7759 97.9595 48.9722C97.9595 22.1348 75.791 0 48.9385 0C22.1348 0 0 22.1348 0 48.9722C0 75.7759 22.1685 97.9595 48.9722 97.9595ZM48.9722 91.6265C25.3501 91.6265 6.36671 72.5942 6.36671 48.9722C6.36671 25.3501 25.3164 6.33302 48.9385 6.33302C72.5605 6.33302 91.6265 25.3501 91.6265 48.9722C91.6265 72.5942 72.5942 91.6265 48.9722 91.6265Z" fill="#000000" fill-opacity="0.85"/>
  <path d="M20.2783 63.6104C20.856 62.8711 20.6304 62.0156 20.0005 61.2544C16.8926 57.8501 15.2578 53.5972 15.2578 48.9722C15.2578 44.3472 16.8926 40.0942 20.0005 36.69C20.6304 35.9287 20.856 35.0396 20.2783 34.334C19.689 33.5459 18.5557 33.5459 17.749 34.3525C14.0332 38.2705 12.023 43.4732 12.023 48.9722C12.023 54.4375 14.0332 59.6401 17.749 63.6069C18.5557 64.3984 19.689 64.3984 20.2783 63.6104ZM77.5801 63.6104C78.2031 64.3984 79.3364 64.3984 80.1094 63.6069C83.8252 59.6401 85.8691 54.4375 85.8691 48.9722C85.8691 43.4732 83.8252 38.2705 80.1094 34.3525C79.3364 33.5459 78.2031 33.5459 77.5801 34.334C77.0024 35.0396 77.228 35.9287 77.8916 36.69C80.9658 40.0942 82.6343 44.3472 82.6343 48.9722C82.6343 53.5972 80.9658 57.8501 77.8916 61.2544C77.228 62.0156 77.0024 62.8711 77.5801 63.6104Z" fill="#000000" fill-opacity="0.85"/>
  <path d="M27.1733 57.5137C27.7813 56.7896 27.5977 55.9375 26.9258 55.1274C25.5537 53.5952 24.8164 51.4419 24.8164 48.9722C24.8164 46.5025 25.5537 44.3306 26.9258 42.8169C27.5977 42.0068 27.7813 41.1548 27.1733 40.4458C26.5469 39.6577 25.3799 39.6729 24.6709 40.4829C22.6489 42.8418 21.5293 45.7832 21.5293 48.9722C21.5293 52.1426 22.6489 55.1177 24.6709 57.4277C25.3799 58.2378 26.5469 58.3018 27.1733 57.5137ZM70.6851 57.5137C71.3115 58.3018 72.5122 58.2378 73.1875 57.4277C75.2095 55.1177 76.3628 52.1426 76.3628 48.9722C76.3628 45.7832 75.2095 42.8418 73.1875 40.4829C72.5122 39.6729 71.3115 39.6577 70.6851 40.4458C70.0772 41.1548 70.2607 42.0068 70.9326 42.8169C72.3047 44.3306 73.0757 46.5025 73.0757 48.9722C73.0757 51.4419 72.3047 53.5952 70.9326 55.1274C70.2607 55.9375 70.0772 56.7896 70.6851 57.5137Z" fill="#000000" fill-opacity="0.85"/>
  <path d="M39.5615 77.3711L58.3677 77.3711C62.9102 77.3711 65.749 74.6333 65.749 70.1768L65.749 27.7793C65.749 23.3228 62.9102 20.5698 58.3677 20.5698L39.5615 20.5698C35.019 20.5698 32.1953 23.2925 32.1953 27.7793L32.1953 70.1768C32.1953 74.6333 35.019 77.3711 39.5615 77.3711ZM39.9624 73.646C37.2471 73.646 35.9204 72.3682 35.9204 69.7539L35.9204 28.2022C35.9204 25.5879 37.2319 24.2949 39.9624 24.2949L57.9971 24.2949C60.6973 24.2949 62.0391 25.5879 62.0391 28.2022L62.0391 69.7539C62.0391 72.3682 60.6973 73.646 57.9971 73.646ZM45.6704 29.9307L52.2368 29.9307C53.2505 29.9307 53.9898 29.1275 53.9898 28.1778C53.9898 27.2129 53.2505 26.44 52.2368 26.44L45.6704 26.44C44.6719 26.44 43.9663 27.2129 43.9663 28.1778C43.9663 29.1275 44.6719 29.9307 45.6704 29.9307ZM43.4092 71.9419L54.5537 71.9419C55.3047 71.9419 55.8232 71.3896 55.8232 70.6724C55.8232 69.9028 55.3047 69.3354 54.5537 69.3354L43.4092 69.3354C42.6733 69.3354 42.1362 69.8726 42.1362 70.6724C42.1362 71.4199 42.6582 71.9419 43.4092 71.9419Z" fill="#000000" fill-opacity="0.85"/>
 </g>
</svg>
