<?xml version="1.0" encoding="UTF-8"?>
<!--Generator: Apple Native CoreSVG 232.5-->
<!DOCTYPE svg
PUBLIC "-//W3C//DTD SVG 1.1//EN"
       "http://www.w3.org/Graphics/SVG/1.1/DTD/svg11.dtd">
<svg version="1.1" xmlns="http://www.w3.org/2000/svg" xmlns:xlink="http://www.w3.org/1999/xlink" width="97.9595" height="97.9932">
 <g>
  <rect height="97.9932" opacity="0" width="97.9595" x="0" y="0"/>
  <path d="M97.9595 49.021C97.9595 75.8584 75.8247 97.9932 48.9722 97.9932C22.1685 97.9932 0 75.8584 0 49.021C0 22.2173 22.1348 0.0488281 48.9385 0.0488281C75.791 0.0488281 97.9595 22.2173 97.9595 49.021ZM39.4082 20.0762C34.7647 20.0762 31.8735 22.8325 31.8735 27.4541L31.8735 70.6484C31.8735 75.2061 34.7647 77.9961 39.4082 77.9961L58.5884 77.9961C63.2319 77.9961 66.1382 75.2061 66.1382 70.6484L66.1382 27.4541C66.1382 22.8477 63.2319 20.0762 58.5884 20.0762ZM62.3272 27.8281L62.3272 70.2256C62.3272 72.8735 60.9668 74.1851 58.2178 74.1851L39.8091 74.1851C37.0601 74.1851 35.6846 72.8735 35.6846 70.2256L35.6846 27.8281C35.6846 25.1802 37.0449 23.8872 39.8091 23.8872L58.2178 23.8872C60.9668 23.8872 62.3272 25.1802 62.3272 27.8281ZM43.3418 69.7583C42.5874 69.7583 42.0352 70.3105 42.0352 71.1103C42.0352 71.8765 42.5571 72.4321 43.3418 72.4321L54.7222 72.4321C55.4732 72.4321 55.9766 71.8613 55.9766 71.1103C55.9766 70.3257 55.4732 69.7583 54.7222 69.7583ZM17.1392 34.1133C13.356 38.1323 11.312 43.4697 11.312 49.021C11.312 54.6211 13.356 59.9585 17.1392 63.9439C17.9644 64.7691 19.0977 64.7691 19.7207 63.9473C20.2983 63.2417 20.0879 62.3189 19.4429 61.5239C16.2676 58.0674 14.6143 53.7471 14.6143 49.021C14.6143 44.2949 16.2676 39.9746 19.4429 36.5181C20.0879 35.7232 20.2983 34.834 19.7207 34.0947C19.0977 33.273 17.9644 33.273 17.1392 34.1133ZM78.2051 34.0947C77.6274 34.834 77.8379 35.7232 78.5166 36.5181C81.6431 39.9746 83.3452 44.2949 83.3452 49.021C83.3452 53.7471 81.6431 58.0674 78.5166 61.5239C77.8379 62.3189 77.6274 63.2417 78.2051 63.9473C78.8467 64.7691 79.98 64.7691 80.7866 63.9439C84.5698 59.9585 86.6475 54.6211 86.6475 49.021C86.6475 43.4697 84.5698 38.1323 80.7866 34.1133C79.98 33.273 78.8467 33.273 78.2051 34.0947ZM24.1807 40.4121C22.1401 42.7559 21.0054 45.7983 21.0054 49.021C21.0054 52.2925 22.1401 55.2861 24.1807 57.6787C24.9385 58.5225 26.124 58.5376 26.7993 57.7158C27.3921 56.9917 27.2085 56.1211 26.5029 55.2773C25.1309 53.6963 24.375 51.5244 24.375 49.021C24.375 46.5176 25.1309 44.312 26.5029 42.7647C27.2085 41.9209 27.3921 41.0503 26.7993 40.3262C26.124 39.5044 24.9385 39.5532 24.1807 40.4121ZM71.1265 40.3262C70.5337 41.0503 70.7173 41.9209 71.4229 42.7647C72.7949 44.312 73.5845 46.5176 73.5845 49.021C73.5845 51.5244 72.7949 53.6963 71.4229 55.2773C70.7173 56.1211 70.5337 56.9917 71.1265 57.7158C71.7866 58.5376 73.021 58.5225 73.7451 57.6787C75.7857 55.2861 76.9541 52.2925 76.9541 49.021C76.9541 45.7983 75.7857 42.7559 73.7451 40.4121C73.021 39.5532 71.7866 39.5044 71.1265 40.3262ZM45.6367 26.0659C44.6045 26.0659 43.8989 26.8389 43.8989 27.8374C43.8989 28.8208 44.6045 29.624 45.6367 29.624L52.3379 29.624C53.3701 29.624 54.1094 28.8208 54.1094 27.8374C54.1094 26.8389 53.3701 26.0659 52.3379 26.0659Z" fill="#000000" fill-opacity="0.85"/>
 </g>
</svg>
