<?xml version="1.0" encoding="UTF-8"?>
<!--Generator: Apple Native CoreSVG 232.5-->
<!DOCTYPE svg
PUBLIC "-//W3C//DTD SVG 1.1//EN"
       "http://www.w3.org/Graphics/SVG/1.1/DTD/svg11.dtd">
<svg version="1.1" xmlns="http://www.w3.org/2000/svg" xmlns:xlink="http://www.w3.org/1999/xlink" width="97.9595" height="97.9932">
 <g>
  <rect height="97.9932" opacity="0" width="97.9595" x="0" y="0"/>
  <path d="M97.9595 49.021C97.9595 75.8584 75.8247 97.9932 48.9722 97.9932C22.1685 97.9932 0 75.8584 0 49.021C0 22.2173 22.1348 0.0488281 48.9385 0.0488281C75.791 0.0488281 97.9595 22.2173 97.9595 49.021ZM39.3745 20.0425C34.731 20.0425 31.8398 22.8325 31.8398 27.4541L31.8398 70.6484C31.8398 75.2061 34.731 78.0298 39.3745 78.0298L58.5547 78.0298C63.1983 78.0298 66.1045 75.2061 66.1045 70.6484L66.1045 27.4541C66.1045 22.8477 63.1983 20.0425 58.5547 20.0425ZM43.5186 24.2881L43.5186 24.7378C43.5186 25.9248 44.2661 26.7583 45.4229 26.7583L52.5215 26.7583C53.6934 26.7583 54.4258 25.9248 54.4258 24.7378L54.4258 24.2881C54.4258 23.958 54.5606 23.8535 54.8452 23.8535L58.1841 23.8535C60.9331 23.8535 62.2935 25.1802 62.2935 27.8281L62.2935 70.2256C62.2935 72.8735 60.9331 74.2188 58.1841 74.2188L39.7754 74.2188C37.0264 74.2188 35.666 72.8735 35.666 70.2256L35.666 27.8281C35.666 25.1802 37.0112 23.8535 39.7754 23.8535L43.0654 23.8535C43.4663 23.8535 43.5186 24.022 43.5186 24.2881ZM43.3081 69.7583C42.5537 69.7583 42.0015 70.3105 42.0015 71.1103C42.0015 71.9102 42.5234 72.4321 43.3081 72.4321L54.6885 72.4321C55.4395 72.4321 55.9429 71.895 55.9429 71.1103C55.9429 70.3257 55.4395 69.7583 54.6885 69.7583ZM17.1055 34.1133C13.3223 38.1323 11.2783 43.4697 11.2783 49.021C11.2783 54.6211 13.3223 59.9585 17.1055 63.9439C17.9307 64.7691 19.0791 64.7691 19.687 63.9473C20.2647 63.2417 20.0542 62.3189 19.4092 61.5239C16.2339 58.0674 14.5806 53.7471 14.5806 49.021C14.5806 44.2949 16.2339 39.9746 19.4092 36.5181C20.0542 35.7232 20.2647 34.834 19.687 34.0947C19.0791 33.273 17.9307 33.273 17.1055 34.1133ZM78.1714 34.0947C77.5938 34.834 77.8042 35.7232 78.4829 36.5181C81.6245 39.9746 83.3115 44.2949 83.3115 49.021C83.3115 53.7471 81.6245 58.0674 78.4829 61.5239C77.8042 62.3189 77.5938 63.2417 78.1714 63.9473C78.813 64.7691 79.9614 64.7691 80.7529 63.9439C84.5361 59.9585 86.6138 54.6211 86.6138 49.021C86.6138 43.4697 84.5361 38.1323 80.7529 34.1133C79.9614 33.273 78.813 33.273 78.1714 34.0947ZM24.147 40.4121C22.1065 42.7559 20.9717 45.7983 20.9717 49.021C20.9717 52.2925 22.1065 55.2861 24.147 57.6787C24.9048 58.5225 26.0903 58.5376 26.7656 57.7158C27.3584 56.9917 27.1748 56.1211 26.4692 55.2773C25.0972 53.6963 24.3413 51.5244 24.3413 49.021C24.3413 46.5176 25.0972 44.312 26.4692 42.7647C27.1748 41.9209 27.3584 41.0503 26.7656 40.3262C26.0903 39.5044 24.9048 39.5532 24.147 40.4121ZM71.0928 40.3262C70.5 41.0503 70.6836 41.9209 71.3892 42.7647C72.7612 44.312 73.5508 46.5176 73.5508 49.021C73.5508 51.5244 72.7612 53.6963 71.3892 55.2773C70.6836 56.1211 70.5 56.9917 71.0928 57.7158C71.7681 58.5376 72.9873 58.5225 73.7114 57.6787C75.752 55.2861 76.9204 52.2925 76.9204 49.021C76.9204 45.7983 75.752 42.7559 73.7114 40.4121C72.9873 39.5532 71.7681 39.5044 71.0928 40.3262Z" fill="#000000" fill-opacity="0.85"/>
 </g>
</svg>
