<?xml version="1.0" encoding="UTF-8"?>
<!--Generator: Apple Native CoreSVG 232.5-->
<!DOCTYPE svg
PUBLIC "-//W3C//DTD SVG 1.1//EN"
       "http://www.w3.org/Graphics/SVG/1.1/DTD/svg11.dtd">
<svg version="1.1" xmlns="http://www.w3.org/2000/svg" xmlns:xlink="http://www.w3.org/1999/xlink" width="97.9595" height="97.9932">
 <g>
  <rect height="97.9932" opacity="0" width="97.9595" x="0" y="0"/>
  <path d="M48.9722 97.9443C75.8247 97.9443 97.9595 75.7759 97.9595 48.9722C97.9595 22.1348 75.791 0 48.9385 0C22.1348 0 0 22.1348 0 48.9722C0 75.7759 22.1685 97.9443 48.9722 97.9443ZM48.9722 91.6113C25.3501 91.6113 6.36671 72.5942 6.36671 48.9722C6.36671 25.3501 25.3164 6.31789 48.9385 6.31789C72.5605 6.31789 91.6265 25.3501 91.6265 48.9722C91.6265 72.5942 72.5942 91.6113 48.9722 91.6113Z" fill="#000000" fill-opacity="0.85"/>
  <path d="M20.499 63.6104C21.0767 62.8711 20.8662 62.0156 20.2212 61.2544C17.1133 57.8501 15.4785 53.5972 15.4785 48.9722C15.4785 44.3472 17.1133 40.0942 20.2212 36.69C20.8662 35.9287 21.0767 35.0396 20.499 34.334C19.9097 33.5459 18.7764 33.5459 17.9697 34.3525C14.2691 38.2705 12.2437 43.4732 12.2437 48.9722C12.2437 54.4375 14.2691 59.6401 17.9697 63.5918C18.7764 64.3984 19.9097 64.3984 20.499 63.6104ZM77.4941 63.6104C78.1172 64.3984 79.2505 64.3984 80.0083 63.5918C83.7241 59.6401 85.7832 54.4375 85.7832 48.9722C85.7832 43.4732 83.7241 38.2705 80.0083 34.3525C79.2505 33.5459 78.1172 33.5459 77.4941 34.334C76.9165 35.0396 77.127 35.9287 77.8057 36.69C80.8799 40.0942 82.5483 44.3472 82.5483 48.9722C82.5483 53.5972 80.8799 57.8501 77.8057 61.2544C77.127 62.0156 76.9165 62.8711 77.4941 63.6104Z" fill="#000000" fill-opacity="0.85"/>
  <path d="M27.4092 57.4985C28.002 56.7896 27.8184 55.9375 27.1465 55.1274C25.7744 53.5801 25.0523 51.4419 25.0523 48.9722C25.0523 46.5025 25.7744 44.3306 27.1465 42.8169C27.8184 42.0068 28.002 41.1548 27.4092 40.4458C26.7676 39.6426 25.582 39.6729 24.8916 40.4829C22.8848 42.8267 21.75 45.7681 21.75 48.9722C21.75 52.1274 22.8848 55.1025 24.8916 57.4277C25.582 58.2378 26.7676 58.2866 27.4092 57.4985ZM70.584 57.4985C71.2105 58.2866 72.4111 58.2378 73.1016 57.4277C75.1084 55.1025 76.2769 52.1274 76.2769 48.9722C76.2769 45.7681 75.1084 42.8267 73.1016 40.4829C72.4111 39.6729 71.2105 39.6426 70.584 40.4458C69.9761 41.1548 70.1597 42.0068 70.8315 42.8169C72.2188 44.3306 72.9746 46.5025 72.9746 48.9722C72.9746 51.4419 72.2188 53.5801 70.8315 55.1274C70.1597 55.9375 69.9761 56.7896 70.584 57.4985Z" fill="#000000" fill-opacity="0.85"/>
  <path d="M32.1953 70.2256C32.1953 74.6484 34.9702 77.3897 39.5127 77.3897L58.4468 77.3897C62.9893 77.3897 65.749 74.6484 65.749 70.2256L65.749 27.7339C65.749 23.311 62.9893 20.5698 58.4468 20.5698L39.5127 20.5698C34.9702 20.5698 32.1953 23.311 32.1953 27.7339ZM35.9541 68.417L35.9541 29.5425L62.0054 29.5425L62.0054 68.417ZM49.0059 74.5796C47.8911 74.5796 46.9111 73.6147 46.9111 72.4697C46.9111 71.3247 47.8911 70.375 49.0059 70.375C50.1509 70.375 51.0483 71.3247 51.0483 72.4697C51.0483 73.6147 50.1509 74.5796 49.0059 74.5796ZM44.1548 25.2456C44.1548 24.626 44.6431 24.1865 45.1953 24.1865L52.7642 24.1865C53.335 24.1865 53.8047 24.626 53.8047 25.2456C53.8047 25.835 53.335 26.2559 52.7642 26.2559L45.1953 26.2559C44.6431 26.2559 44.1548 25.835 44.1548 25.2456Z" fill="#000000" fill-opacity="0.85"/>
 </g>
</svg>
