<?xml version="1.0" encoding="UTF-8"?>
<!--Generator: Apple Native CoreSVG 232.5-->
<!DOCTYPE svg
PUBLIC "-//W3C//DTD SVG 1.1//EN"
       "http://www.w3.org/Graphics/SVG/1.1/DTD/svg11.dtd">
<svg version="1.1" xmlns="http://www.w3.org/2000/svg" xmlns:xlink="http://www.w3.org/1999/xlink" width="97.9595" height="97.9932">
 <g>
  <rect height="97.9932" opacity="0" width="97.9595" x="0" y="0"/>
  <path d="M48.9722 97.9443C75.8247 97.9443 97.9595 75.7759 97.9595 48.9722C97.9595 22.1348 75.791 0 48.9385 0C22.1348 0 0 22.1348 0 48.9722C0 75.7759 22.1685 97.9443 48.9722 97.9443ZM48.9722 91.6113C25.3501 91.6113 6.36671 72.5942 6.36671 48.9722C6.36671 25.3501 25.3164 6.31789 48.9385 6.31789C72.5605 6.31789 91.6265 25.3501 91.6265 48.9722C91.6265 72.5942 72.5942 91.6113 48.9722 91.6113Z" fill="#000000" fill-opacity="0.85"/>
  <path d="M30.5469 72.4043C30.5469 77.2515 33.5542 80.2368 38.5513 80.2368L59.4082 80.2368C64.4053 80.2368 67.4126 77.2515 67.4126 72.4043L67.4126 25.5552C67.4126 20.708 64.4053 17.7227 59.4082 17.7227L38.5513 17.7227C33.5542 17.7227 30.5469 20.708 30.5469 25.5552ZM34.5449 70.4424L34.5449 27.5171L63.3994 27.5171L63.3994 70.4424ZM49.0059 77.228C47.7295 77.228 46.6519 76.1807 46.6519 74.874C46.6519 73.5674 47.7295 72.5049 49.0059 72.5049C50.2788 72.5049 51.3076 73.5674 51.3076 74.874C51.3076 76.1807 50.2788 77.228 49.0059 77.228ZM43.6025 22.7925C43.6025 22.0752 44.1211 21.5903 44.8047 21.5903L53.1885 21.5903C53.8721 21.5903 54.3418 22.0752 54.3418 22.7925C54.3418 23.4609 53.8721 23.9946 53.1885 23.9946L44.8047 23.9946C44.1211 23.9946 43.6025 23.4609 43.6025 22.7925Z" fill="#000000" fill-opacity="0.85"/>
 </g>
</svg>
