<?xml version="1.0" encoding="UTF-8"?>
<!--Generator: Apple Native CoreSVG 232.5-->
<!DOCTYPE svg
PUBLIC "-//W3C//DTD SVG 1.1//EN"
       "http://www.w3.org/Graphics/SVG/1.1/DTD/svg11.dtd">
<svg version="1.1" xmlns="http://www.w3.org/2000/svg" xmlns:xlink="http://www.w3.org/1999/xlink" width="97.9595" height="97.9932">
 <g>
  <rect height="97.9932" opacity="0" width="97.9595" x="0" y="0"/>
  <path d="M97.9595 48.9722C97.9595 75.7759 75.8247 97.9443 48.9722 97.9443C22.1685 97.9443 0 75.7759 0 48.9722C0 22.1348 22.1348 0 48.9385 0C75.791 0 97.9595 22.1348 97.9595 48.9722ZM6.36671 48.9722C6.36671 72.5942 25.3501 91.6113 48.9722 91.6113C72.5942 91.6113 91.6265 72.5942 91.6265 48.9722C91.6265 25.3501 72.5605 6.31789 48.9385 6.31789C25.3164 6.31789 6.36671 25.3501 6.36671 48.9722Z" fill="#000000" fill-opacity="0.85"/>
  <path d="M34.5112 41.6091L34.5112 71.8989C34.5112 74.8179 35.9995 76.2236 39.0347 76.2236L58.8945 76.2236C61.9448 76.2236 63.4331 74.8179 63.4331 71.8989L63.4331 70.52L67.2236 74.3091C66.4984 78.0357 63.607 80.2368 59.3291 80.2368L38.5664 80.2368C33.6182 80.2368 30.5469 77.2515 30.5469 72.3555L30.5469 37.6463ZM56.4614 72.9082C56.4614 73.6929 55.8906 74.2148 55.106 74.2148L42.8232 74.2148C42.0537 74.2148 41.4981 73.6929 41.4981 72.9082C41.4981 72.0898 42.0537 71.4888 42.8232 71.4888L55.106 71.4888C55.8906 71.4888 56.4614 72.0898 56.4614 72.9082ZM67.4126 25.6006L67.4126 60.3589L63.4331 56.3781L63.4331 26.0571C63.4331 23.1231 61.9448 21.7022 58.8945 21.7022L39.0347 21.7022C35.9995 21.7022 34.5112 23.1231 34.5112 26.0571L34.5112 27.4473L30.7293 23.6643C31.4412 19.9188 34.3091 17.7227 38.5664 17.7227L59.3291 17.7227C64.311 17.7227 67.4126 20.6895 67.4126 25.6006ZM54.4815 26.1153C54.4815 27.2114 53.6597 28.0332 52.5635 28.0332L45.3774 28.0332C44.2813 28.0332 43.4595 27.2114 43.4595 26.1153C43.4595 25.0528 44.2813 24.231 45.3774 24.231L52.5635 24.231C53.6597 24.231 54.4815 25.0528 54.4815 26.1153Z" fill="#000000" fill-opacity="0.85"/>
  <path d="M72.0684 74.773C72.7773 75.4971 74.0303 75.5122 74.7393 74.773C75.4971 73.9663 75.4971 72.8447 74.7393 72.102L25.8423 23.1411C25.0996 22.3984 23.8804 22.3984 23.1377 23.1411C22.3648 23.8804 22.4136 25.103 23.1377 25.8272Z" fill="#000000" fill-opacity="0.85"/>
 </g>
</svg>
