<?xml version="1.0" encoding="UTF-8"?>
<!--Generator: Apple Native CoreSVG 232.5-->
<!DOCTYPE svg
PUBLIC "-//W3C//DTD SVG 1.1//EN"
       "http://www.w3.org/Graphics/SVG/1.1/DTD/svg11.dtd">
<svg version="1.1" xmlns="http://www.w3.org/2000/svg" xmlns:xlink="http://www.w3.org/1999/xlink" width="59.4746" height="100.561">
 <g>
  <rect height="100.561" opacity="0" width="59.4746" x="0" y="0"/>
  <path d="M12.6909 100.493L46.7837 100.493C54.6367 100.493 59.4746 95.8086 59.4746 88.1763L59.4746 12.3169C59.4746 4.68457 54.6367 0 46.7837 0L12.6909 0C4.82276 0 0 4.68457 0 12.3169L0 88.1763C0 95.8086 4.82276 100.493 12.6909 100.493ZM12.4443 27.2476C8.78907 27.2476 6.65577 25.1968 6.65577 21.7554L6.65577 12.0991C6.65577 8.67286 8.78907 6.62208 12.4443 6.62208L21.4439 6.62208C25.1143 6.62208 27.2476 8.67286 27.2476 12.0991L27.2476 21.7554C27.2476 25.1968 25.1143 27.2476 21.4439 27.2476Z" fill="#000000" fill-opacity="0.85"/>
 </g>
</svg>
