<?xml version="1.0" encoding="UTF-8"?>
<!--Generator: Apple Native CoreSVG 232.5-->
<!DOCTYPE svg
PUBLIC "-//W3C//DTD SVG 1.1//EN"
       "http://www.w3.org/Graphics/SVG/1.1/DTD/svg11.dtd">
<svg version="1.1" xmlns="http://www.w3.org/2000/svg" xmlns:xlink="http://www.w3.org/1999/xlink" width="97.9595" height="97.9932">
 <g>
  <rect height="97.9932" opacity="0" width="97.9595" x="0" y="0"/>
  <path d="M48.9722 97.9443C75.8247 97.9443 97.9595 75.7759 97.9595 48.9722C97.9595 22.1348 75.791 0 48.9385 0C22.1348 0 0 22.1348 0 48.9722C0 75.7759 22.1685 97.9443 48.9722 97.9443ZM48.9722 91.6113C25.3501 91.6113 6.36671 72.5942 6.36671 48.9722C6.36671 25.3501 25.3164 6.31789 48.9385 6.31789C72.5605 6.31789 91.6265 25.3501 91.6265 48.9722C91.6265 72.5942 72.5942 91.6113 48.9722 91.6113Z" fill="#000000" fill-opacity="0.85"/>
  <path d="M38.5664 80.2368L59.3291 80.2368C64.311 80.2368 67.4126 77.2515 67.4126 72.3555L67.4126 25.6006C67.4126 20.6895 64.311 17.7227 59.3291 17.7227L38.5664 17.7227C33.6182 17.7227 30.5469 20.6895 30.5469 25.6006L30.5469 72.3555C30.5469 77.2515 33.6182 80.2368 38.5664 80.2368ZM39.0347 76.2236C35.9995 76.2236 34.5112 74.8179 34.5112 71.8989L34.5112 26.0571C34.5112 23.1231 35.9995 21.7022 39.0347 21.7022L58.8945 21.7022C61.9448 21.7022 63.4331 23.1231 63.4331 26.0571L63.4331 71.8989C63.4331 74.8179 61.9448 76.2236 58.8945 76.2236ZM42.8232 74.2148L55.106 74.2148C55.8906 74.2148 56.4614 73.6929 56.4614 72.9082C56.4614 72.0898 55.8906 71.4888 55.106 71.4888L42.8232 71.4888C42.0537 71.4888 41.4981 72.0898 41.4981 72.9082C41.4981 73.6929 42.0537 74.2148 42.8232 74.2148ZM45.3774 28.0332L52.5635 28.0332C53.6597 28.0332 54.4815 27.2114 54.4815 26.1153C54.4815 25.0528 53.6597 24.231 52.5635 24.231L45.3774 24.231C44.2813 24.231 43.4595 25.0528 43.4595 26.1153C43.4595 27.2114 44.2813 28.0332 45.3774 28.0332Z" fill="#000000" fill-opacity="0.85"/>
 </g>
</svg>
