<?xml version="1.0" encoding="UTF-8"?>
<!--Generator: Apple Native CoreSVG 232.5-->
<!DOCTYPE svg
PUBLIC "-//W3C//DTD SVG 1.1//EN"
       "http://www.w3.org/Graphics/SVG/1.1/DTD/svg11.dtd">
<svg version="1.1" xmlns="http://www.w3.org/2000/svg" xmlns:xlink="http://www.w3.org/1999/xlink" width="100.557" height="59.6094">
 <g>
  <rect height="59.6094" opacity="0" width="100.557" x="0" y="0"/>
  <path d="M13.2114 53.4634C8.43898 53.4634 6.06007 50.9531 6.06007 46.0947L6.06007 13.3984C6.06007 8.54005 8.43898 6.0298 13.2114 6.0298L87.3945 6.0298C92.1333 6.0298 94.5122 8.54005 94.5122 13.3984L94.5122 46.0947C94.5122 50.9531 92.1333 53.4634 87.3945 53.4634Z" fill="#000000" fill-opacity="0.2125"/>
  <path d="M12.3809 59.4932L88.2403 59.4932C95.8726 59.4932 100.557 54.6367 100.557 46.7837L100.557 12.6758C100.557 4.82276 95.8726 0 88.2403 0L12.3809 0C4.7334 0 0 4.82276 0 12.6758L0 46.7837C0 54.6367 4.7334 59.4932 12.3809 59.4932ZM13.2114 53.4634C8.43898 53.4634 6.06007 50.9531 6.06007 46.0947L6.06007 13.3984C6.06007 8.54005 8.43898 6.0298 13.2114 6.0298L87.3945 6.0298C92.1333 6.0298 94.5122 8.54005 94.5122 13.3984L94.5122 46.0947C94.5122 50.9531 92.1333 53.4634 87.3945 53.4634ZM37.3887 50.0166L63.2476 50.0166C64.354 50.0166 65.1607 49.21 65.1607 48.0698C65.1607 46.9448 64.354 46.1719 63.2476 46.1719L37.3887 46.1719C36.2822 46.1719 35.4756 46.9448 35.4756 48.0698C35.4756 49.21 36.2822 50.0166 37.3887 50.0166ZM12.1157 38.3648C13.7964 38.3648 15.0376 37.0899 15.0376 35.4092L15.0376 24.0166C15.0376 22.3696 13.7964 21.1133 12.1157 21.1133C10.4839 21.1133 9.19386 22.3696 9.19386 24.0166L9.19386 35.4092C9.19386 37.0899 10.4839 38.3648 12.1157 38.3648Z" fill="#000000" fill-opacity="0.85"/>
 </g>
</svg>
