<?xml version="1.0" encoding="UTF-8"?>
<!--Generator: Apple Native CoreSVG 232.5-->
<!DOCTYPE svg
PUBLIC "-//W3C//DTD SVG 1.1//EN"
       "http://www.w3.org/Graphics/SVG/1.1/DTD/svg11.dtd">
<svg version="1.1" xmlns="http://www.w3.org/2000/svg" xmlns:xlink="http://www.w3.org/1999/xlink" width="97.9595" height="97.9932">
 <g>
  <rect height="97.9932" opacity="0" width="97.9595" x="0" y="0"/>
  <path d="M97.9595 49.021C97.9595 75.8584 75.8247 97.9932 48.9722 97.9932C22.1685 97.9932 0 75.8584 0 49.021C0 22.2173 22.1348 0.0488281 48.9385 0.0488281C75.791 0.0488281 97.9595 22.2173 97.9595 49.021ZM38.3794 17.1279C33.3301 17.1279 30.1914 20.1621 30.1914 25.208L30.1914 72.8794C30.1914 77.8916 33.3301 80.9443 38.3794 80.9443L59.5835 80.9443C64.6665 80.9443 67.8355 77.8916 67.8355 72.8794L67.8355 25.208C67.8355 20.1621 64.6665 17.1279 59.5835 17.1279ZM63.7549 25.6831L63.7549 72.4043C63.7549 75.3569 62.2329 76.8301 59.1641 76.8301L38.8325 76.8301C35.7637 76.8301 34.2568 75.3569 34.2568 72.4043L34.2568 25.6831C34.2568 22.7305 35.7637 21.2422 38.8325 21.2422L59.1641 21.2422C62.2329 21.2422 63.7549 22.7305 63.7549 25.6831ZM42.7373 71.9604C41.9526 71.9604 41.3633 72.5615 41.3633 73.4136C41.3633 74.1831 41.9526 74.7539 42.7373 74.7539L55.2593 74.7539C56.044 74.7539 56.6484 74.1831 56.6484 73.4136C56.6484 72.5615 56.044 71.9604 55.2593 71.9604ZM45.3438 23.8047C44.2139 23.8047 43.3584 24.6602 43.3584 25.7412C43.3584 26.8711 44.2139 27.6929 45.3438 27.6929L52.6646 27.6929C53.7944 27.6929 54.6499 26.8711 54.6499 25.7412C54.6499 24.6602 53.7944 23.8047 52.6646 23.8047Z" fill="#000000" fill-opacity="0.85"/>
 </g>
</svg>
