<?xml version="1.0" encoding="UTF-8"?>
<!--Generator: Apple Native CoreSVG 232.5-->
<!DOCTYPE svg
PUBLIC "-//W3C//DTD SVG 1.1//EN"
       "http://www.w3.org/Graphics/SVG/1.1/DTD/svg11.dtd">
<svg version="1.1" xmlns="http://www.w3.org/2000/svg" xmlns:xlink="http://www.w3.org/1999/xlink" width="158.348" height="100.561">
 <g>
  <rect height="100.561" opacity="0" width="158.348" x="0" y="0"/>
  <path d="M62.1275 100.493L96.2203 100.493C104.073 100.493 108.911 95.8086 108.911 88.1763L108.911 12.3169C108.911 4.68457 104.073 0 96.2203 0L62.1275 0C54.2593 0 49.4365 4.68457 49.4365 12.3169L49.4365 88.1763C49.4365 95.8086 54.2593 100.493 62.1275 100.493ZM62.8164 94.4634C57.9429 94.4634 55.4815 92.0845 55.4815 87.3457L55.4815 13.1626C55.4815 8.42384 57.9429 6.0298 62.8164 6.0298L95.4976 6.0298C100.405 6.0298 102.866 8.42384 102.866 13.1626L102.866 87.3457C102.866 92.0845 100.405 94.4634 95.4976 94.4634ZM69.0738 91.0503L89.3076 91.0503C90.4141 91.0503 91.2393 90.2437 91.2393 89.1035C91.2393 87.9785 90.4141 87.2056 89.3076 87.2056L69.0738 87.2056C67.9673 87.2056 67.127 87.9785 67.127 89.1035C67.127 90.2437 67.9673 91.0503 69.0738 91.0503ZM73.4868 14.9888L84.8946 14.9888C86.5264 14.9888 87.7827 13.7324 87.7827 12.0669C87.7827 10.4199 86.5264 9.17873 84.8946 9.17873L73.4868 9.17873C71.8213 9.17873 70.565 10.4199 70.565 12.0669C70.565 13.7324 71.8213 14.9888 73.4868 14.9888Z" fill="#000000" fill-opacity="0.85"/>
  <path d="M158.348 31.3862C158.348 29.771 157.032 28.4556 155.402 28.4556L135.516 28.4556L135.516 19.647C135.516 16.5347 132.294 15.4434 130.149 17.3296L116.647 28.9209C115.019 30.3052 114.973 32.4033 116.647 33.833L130.149 45.3906C132.396 47.3443 135.516 46.0845 135.516 43.1069L135.516 34.2984L155.402 34.2984C157.032 34.2984 158.348 33.0166 158.348 31.3862Z" fill="#000000" fill-opacity="0.85"/>
  <path d="M0 31.3862C0 33.0166 1.28174 34.2984 2.91212 34.2984L22.8315 34.2984L22.8315 43.1069C22.8315 46.0845 25.9522 47.3443 28.1987 45.3906L41.7007 33.833C43.3408 32.4033 43.3291 30.3052 41.7007 28.9209L28.1987 17.3296C26.0532 15.4434 22.8315 16.5347 22.8315 19.647L22.8315 28.4556L2.91212 28.4556C1.28174 28.4556 0 29.771 0 31.3862Z" fill="#000000" fill-opacity="0.85"/>
 </g>
</svg>
