<?xml version="1.0" encoding="UTF-8"?>
<!--Generator: Apple Native CoreSVG 232.5-->
<!DOCTYPE svg
PUBLIC "-//W3C//DTD SVG 1.1//EN"
       "http://www.w3.org/Graphics/SVG/1.1/DTD/svg11.dtd">
<svg version="1.1" xmlns="http://www.w3.org/2000/svg" xmlns:xlink="http://www.w3.org/1999/xlink" width="63.2202" height="94.8692">
 <g>
  <rect height="94.8692" opacity="0" width="63.2202" x="0" y="0"/>
  <path d="M0 82.5523C0 90.1846 4.82276 94.8692 12.6909 94.8692L50.5108 94.8692C58.3638 94.8692 63.2202 90.1846 63.2202 82.5523L63.2202 12.3169C63.2202 4.68457 58.3638 0 50.5108 0L12.6909 0C4.82276 0 0 4.68457 0 12.3169ZM6.04494 35.2847L6.04494 13.1626C6.04494 8.42384 8.50636 6.0298 13.4136 6.0298L49.8218 6.0298C54.6802 6.0298 57.1904 8.42384 57.1904 13.1626L57.1904 35.2847C57.1904 40.0571 54.6802 42.436 49.8218 42.436L13.4136 42.436C8.50636 42.436 6.04494 40.0571 6.04494 35.2847ZM31.6572 85.6753C21.6221 85.6753 13.4273 77.5781 13.4273 67.543C13.4273 57.4893 21.6221 49.377 31.6572 49.377C41.6284 49.377 49.8233 57.4893 49.8233 67.543C49.8233 77.5781 41.6284 85.6753 31.6572 85.6753ZM31.6572 79.8198C24.8067 79.8198 19.2676 74.2808 19.2676 67.543C19.2676 60.7715 24.8067 55.2324 31.6572 55.2324C38.4287 55.2324 43.9189 60.7715 43.9189 67.543C43.9189 74.2808 38.4287 79.8198 31.6572 79.8198Z" fill="#000000" fill-opacity="0.85"/>
 </g>
</svg>
