<?xml version="1.0" encoding="UTF-8"?>
<!--Generator: Apple Native CoreSVG 232.5-->
<!DOCTYPE svg
PUBLIC "-//W3C//DTD SVG 1.1//EN"
       "http://www.w3.org/Graphics/SVG/1.1/DTD/svg11.dtd">
<svg version="1.1" xmlns="http://www.w3.org/2000/svg" xmlns:xlink="http://www.w3.org/1999/xlink" width="68.4883" height="122.585">
 <g>
  <rect height="122.585" opacity="0" width="68.4883" x="0" y="0"/>
  <path d="M42.2271 7.94923L42.2271 8.62745L56.2681 8.62745C64.0865 8.62745 68.4883 13.1118 68.4883 21.107L68.4883 88.7144C68.4883 96.6607 64.0865 101.179 56.2681 101.179L36.5952 101.179L36.5952 108.166C36.5952 113.947 39.6123 116.564 45.5 116.564L65.7447 116.564C67.274 116.564 68.4883 117.827 68.4883 119.375C68.4883 120.904 67.274 122.118 65.7447 122.118L45.5 122.118C36.5352 122.118 31.0103 116.994 31.0103 108.166L31.0103 101.179L12.2202 101.179C4.40186 101.179 0 96.6607 0 88.7144L0 21.107C0 13.1118 4.40186 8.62745 12.2202 8.62745L26.231 8.62745L26.231 7.94923C26.231 3.32276 29.5352 0.0336915 34.2442 0C38.938 0.0336915 42.2271 3.32276 42.2271 7.94923ZM12.4746 14.8106C8.41896 14.8106 6.21681 17.0918 6.21681 21.1592L6.21681 88.647C6.21681 92.7295 8.41896 95.0108 12.4746 95.0108L56.0137 95.0108C60.0694 95.0108 62.2715 92.7295 62.2715 88.647L62.2715 21.1592C62.2715 17.0918 60.0694 14.8106 56.0137 14.8106ZM31.2095 8.01662C31.2095 9.71584 32.5449 11.085 34.2442 11.085C35.9282 11.085 37.2486 9.71584 37.2486 8.01662C37.2486 6.36622 35.9282 4.99708 34.2442 4.99708C32.5449 4.99708 31.2095 6.36622 31.2095 8.01662Z" fill="#000000" fill-opacity="0.85"/>
  <path d="M54.9849 31.794L54.9849 82.9439C54.9849 85.7676 53.0772 87.6265 50.2046 87.6265L18.3814 87.6265C15.4937 87.6265 13.6011 85.7676 13.6011 82.9439L13.6011 31.794C13.6011 28.9702 15.4937 27.1265 18.3814 27.1265L50.2046 27.1265C53.0772 27.1265 54.9849 28.9702 54.9849 31.794ZM28.0112 74.2095C26.7886 74.2095 25.9819 75.1021 25.9819 76.2422C25.9819 77.3487 26.7886 78.2076 28.0112 78.2076L40.5747 78.2076C41.7788 78.2076 42.604 77.3487 42.604 76.2422C42.604 75.1021 41.7788 74.2095 40.5747 74.2095ZM24.5122 64.5039C23.2896 64.5039 22.4492 65.3965 22.4492 66.503C22.4492 67.6431 23.2896 68.502 24.5122 68.502L44.4019 68.502C45.5571 68.502 46.4312 67.6431 46.4312 66.503C46.4312 65.3965 45.5571 64.5039 44.4019 64.5039ZM33.0889 36.0069L28.9673 43.6187C27.8106 45.7031 26.605 47.9864 26.605 50.3452C26.605 54.5816 30.0903 57.8228 34.2442 57.8228C38.4468 57.8228 41.8833 54.5816 41.8833 50.3452C41.8833 47.9864 40.6778 45.7031 39.521 43.6187L35.3994 36.0371C34.7207 34.7285 33.7676 34.7622 33.0889 36.0069Z" fill="#000000" fill-opacity="0.85"/>
 </g>
</svg>
