<?xml version="1.0" encoding="UTF-8"?>
<!--Generator: Apple Native CoreSVG 232.5-->
<!DOCTYPE svg
PUBLIC "-//W3C//DTD SVG 1.1//EN"
       "http://www.w3.org/Graphics/SVG/1.1/DTD/svg11.dtd">
<svg version="1.1" xmlns="http://www.w3.org/2000/svg" xmlns:xlink="http://www.w3.org/1999/xlink" width="68.4883" height="122.518">
 <g>
  <rect height="122.518" opacity="0" width="68.4883" x="0" y="0"/>
  <path d="M42.2271 7.94923L42.2271 8.59376L56.2681 8.59376C64.0865 8.59376 68.4883 13.0781 68.4883 21.0733L68.4883 88.6807C68.4883 96.627 64.0865 101.145 56.2681 101.145L36.5952 101.145L36.5952 108.132C36.5952 113.914 39.6123 116.53 45.5 116.53L65.7447 116.53C67.274 116.53 68.4883 117.793 68.4883 119.341C68.4883 120.87 67.274 122.085 65.7447 122.085L45.5 122.085C36.5352 122.085 31.0103 116.96 31.0103 108.132L31.0103 101.145L12.2202 101.145C4.40186 101.145 0 96.627 0 88.6807L0 21.0733C0 13.0781 4.40186 8.59376 12.2202 8.59376L26.231 8.59376L26.231 7.94923C26.231 3.28907 29.5537 0 34.2442 0C38.9043 0 42.2271 3.28907 42.2271 7.94923ZM18.0259 26.4155C15.0708 26.4155 13.1445 28.3267 13.1445 31.1841L13.1445 83.4678C13.1445 86.3589 15.0708 88.2027 18.0259 88.2027L50.5601 88.2027C53.5 88.2027 55.4263 86.3589 55.4263 83.4678L55.4263 31.1841C55.4263 28.3267 53.5 26.4155 50.5601 26.4155ZM31.2095 7.98292C31.2095 9.68215 32.5449 11.0513 34.2442 11.0513C35.9282 11.0513 37.2486 9.68215 37.2486 7.98292C37.2486 6.33253 35.9282 4.96339 34.2442 4.96339C32.5449 4.96339 31.2095 6.33253 31.2095 7.98292Z" fill="#000000" fill-opacity="0.85"/>
  <path d="M27.9102 78.6304L40.6758 78.6304C41.8985 78.6304 42.8062 77.7564 42.8062 76.6314C42.8062 75.4576 41.8985 74.4976 40.6758 74.4976L27.9102 74.4976C26.669 74.4976 25.7949 75.4576 25.7949 76.6314C25.7949 77.7564 26.669 78.6304 27.9102 78.6304ZM24.3101 68.7378L44.5889 68.7378C45.7778 68.7378 46.6856 67.7964 46.6856 66.6377C46.6856 65.4976 45.7778 64.5899 44.5889 64.5899L24.3101 64.5899C23.0537 64.5899 22.1948 65.4976 22.1948 66.6377C22.1948 67.7964 23.0537 68.7378 24.3101 68.7378ZM34.2442 57.7554C38.5142 57.7554 42.0366 54.4468 42.0366 50.1431C42.0366 47.732 40.7974 45.4151 39.6406 43.2632L35.4331 35.5469C34.7207 34.2197 33.7339 34.2534 33.0552 35.5318L28.8477 43.2632C27.6909 45.4151 26.4517 47.732 26.4517 50.1431C26.4517 54.4468 30.0381 57.7554 34.2442 57.7554Z" fill="#000000" fill-opacity="0.85"/>
 </g>
</svg>
