<?xml version="1.0" encoding="UTF-8"?>
<!--Generator: Apple Native CoreSVG 232.5-->
<!DOCTYPE svg
PUBLIC "-//W3C//DTD SVG 1.1//EN"
       "http://www.w3.org/Graphics/SVG/1.1/DTD/svg11.dtd">
<svg version="1.1" xmlns="http://www.w3.org/2000/svg" xmlns:xlink="http://www.w3.org/1999/xlink" width="97.9595" height="97.9932">
 <g>
  <rect height="97.9932" opacity="0" width="97.9595" x="0" y="0"/>
  <path d="M97.9595 48.9722C97.9595 75.7759 75.8247 97.9443 48.9722 97.9443C22.1685 97.9443 0 75.7759 0 48.9722C0 22.1348 22.1348 0 48.9385 0C75.791 0 97.9595 22.1348 97.9595 48.9722ZM54.5713 29.1567L54.5713 57.8989C54.5713 63.2764 51.6958 66.5762 47.1216 66.5762C42.9077 66.5762 39.8692 64.2363 38.8906 60.541C38.2691 59 37.3882 58.3364 36.0273 58.3364C34.2656 58.3364 33.1152 59.5356 33.1152 61.2788C33.1152 61.9609 33.2314 62.6025 33.4487 63.2778C34.9038 68.4268 40.127 71.981 46.8369 71.981C55.792 71.981 60.815 66.8135 60.815 57.9663L60.815 29.1567C60.815 27.0547 59.6831 25.7207 57.667 25.7207C55.6997 25.7207 54.5713 27.1069 54.5713 29.1567Z" fill="#000000" fill-opacity="0.85"/>
 </g>
</svg>
