<?xml version="1.0" encoding="UTF-8"?>
<!--Generator: Apple Native CoreSVG 232.5-->
<!DOCTYPE svg
PUBLIC "-//W3C//DTD SVG 1.1//EN"
       "http://www.w3.org/Graphics/SVG/1.1/DTD/svg11.dtd">
<svg version="1.1" xmlns="http://www.w3.org/2000/svg" xmlns:xlink="http://www.w3.org/1999/xlink" width="97.9595" height="97.9932">
 <g>
  <rect height="97.9932" opacity="0" width="97.9595" x="0" y="0"/>
  <path d="M48.9722 97.9443C75.8247 97.9443 97.9595 75.7759 97.9595 48.9722C97.9595 22.1348 75.791 0 48.9385 0C22.1348 0 0 22.1348 0 48.9722C0 75.7759 22.1685 97.9443 48.9722 97.9443ZM48.9722 91.6113C25.3501 91.6113 6.36671 72.5942 6.36671 48.9722C6.36671 25.3501 25.3164 6.31789 48.9385 6.31789C72.5605 6.31789 91.6265 25.3501 91.6265 48.9722C91.6265 72.5942 72.5942 91.6113 48.9722 91.6113Z" fill="#000000" fill-opacity="0.85"/>
  <path d="M46.8369 71.4907C55.5899 71.4907 60.4932 66.4395 60.4932 57.813L60.4932 29.5459C60.4932 27.4961 59.395 26.1958 57.4463 26.1958C55.5464 26.1958 54.4517 27.5635 54.4517 29.5459L54.4517 57.7456C54.4517 63.022 51.6436 66.2393 47.1216 66.2393C42.96 66.2393 39.9702 63.9482 39.0254 60.3203C38.4375 58.813 37.5752 58.168 36.2481 58.168C34.5537 58.168 33.437 59.3335 33.437 61.0244C33.437 61.6729 33.5532 62.3145 33.7368 62.9561C35.1582 68.0039 40.2954 71.4907 46.8369 71.4907Z" fill="#000000" fill-opacity="0.85"/>
 </g>
</svg>
