<?xml version="1.0" encoding="UTF-8"?>
<!--Generator: Apple Native CoreSVG 232.5-->
<!DOCTYPE svg
PUBLIC "-//W3C//DTD SVG 1.1//EN"
       "http://www.w3.org/Graphics/SVG/1.1/DTD/svg11.dtd">
<svg version="1.1" xmlns="http://www.w3.org/2000/svg" xmlns:xlink="http://www.w3.org/1999/xlink" width="88.4092" height="88.5371">
 <g>
  <rect height="88.5371" opacity="0" width="88.4092" x="0" y="0"/>
  <path d="M88.4092 14.4019L88.4092 74.2632C88.4092 83.6558 83.5733 88.5371 74.0005 88.5371L14.3936 88.5371C4.86963 88.5371 0 83.7349 0 74.2632L0 14.4019C0 4.93018 4.86963 0.127929 14.3936 0.127929L74.0005 0.127929C83.5733 0.127929 88.4092 5.00928 88.4092 14.4019ZM49.8281 24.4287L49.8281 53.1709C49.8281 58.5483 46.9526 61.8481 42.3784 61.8481C38.1494 61.8481 35.1597 59.5083 34.1475 55.813C33.5259 54.272 32.6299 53.6084 31.269 53.6084C29.5073 53.6084 28.3721 54.8076 28.3721 56.5508C28.3721 57.2329 28.4883 57.8745 28.7056 58.5498C30.1606 63.6987 35.3838 67.2529 42.0938 67.2529C51.0337 67.2529 56.0718 62.0855 56.0718 53.2383L56.0718 24.4287C56.0718 22.3267 54.9585 20.9927 52.9087 20.9927C50.9565 20.9927 49.8281 22.3789 49.8281 24.4287Z" fill="#000000" fill-opacity="0.85"/>
 </g>
</svg>
