<?xml version="1.0" encoding="UTF-8"?>
<!--Generator: Apple Native CoreSVG 232.5-->
<!DOCTYPE svg
PUBLIC "-//W3C//DTD SVG 1.1//EN"
       "http://www.w3.org/Graphics/SVG/1.1/DTD/svg11.dtd">
<svg version="1.1" xmlns="http://www.w3.org/2000/svg" xmlns:xlink="http://www.w3.org/1999/xlink" width="97.9595" height="97.9932">
 <g>
  <rect height="97.9932" opacity="0" width="97.9595" x="0" y="0"/>
  <path d="M48.9722 97.9443C75.8247 97.9443 97.9595 75.7759 97.9595 48.9722C97.9595 22.1348 75.791 0 48.9385 0C22.1348 0 0 22.1348 0 48.9722C0 75.7759 22.1685 97.9443 48.9722 97.9443ZM48.9722 91.6113C25.3501 91.6113 6.36671 72.5942 6.36671 48.9722C6.36671 25.3501 25.3164 6.31789 48.9385 6.31789C72.5605 6.31789 91.6265 25.3501 91.6265 48.9722C91.6265 72.5942 72.5942 91.6113 48.9722 91.6113Z" fill="#000000" fill-opacity="0.85"/>
  <path d="M36.1792 71.169C38.1431 71.169 39.2412 69.8872 39.2412 67.8188L39.2412 55.9976L45.4253 49.6636L60.7578 69.5977C61.5981 70.689 62.3511 71.1538 63.4912 71.1538C65.1738 71.1538 66.4185 69.9395 66.4185 68.2788C66.4185 67.4688 66.0581 66.6367 65.4922 65.9209L49.8516 45.6939L64.2446 30.9859C64.9419 30.27 65.208 29.6065 65.208 28.7744C65.208 27.3765 63.9785 26.1958 62.4458 26.1958C61.4522 26.1958 60.8189 26.5293 59.9077 27.4404L39.5039 48.1592L39.2412 48.1592L39.2412 29.5459C39.2412 27.4624 38.1431 26.1958 36.1792 26.1958C34.3467 26.1958 33.1846 27.4624 33.1846 29.5459L33.1846 67.8188C33.1846 69.8872 34.3467 71.169 36.1792 71.169Z" fill="#000000" fill-opacity="0.85"/>
 </g>
</svg>
