<?xml version="1.0" encoding="UTF-8"?>
<!--Generator: Apple Native CoreSVG 232.5-->
<!DOCTYPE svg
PUBLIC "-//W3C//DTD SVG 1.1//EN"
       "http://www.w3.org/Graphics/SVG/1.1/DTD/svg11.dtd">
<svg version="1.1" xmlns="http://www.w3.org/2000/svg" xmlns:xlink="http://www.w3.org/1999/xlink" width="88.4092" height="88.5371">
 <g>
  <rect height="88.5371" opacity="0" width="88.4092" x="0" y="0"/>
  <path d="M14.3936 88.5371L74.0005 88.5371C83.5733 88.5371 88.4092 83.6558 88.4092 74.2632L88.4092 14.4019C88.4092 5.00928 83.5733 0.127929 74.0005 0.127929L14.3936 0.127929C4.86963 0.127929 0 4.93018 0 14.4019L0 74.2632C0 83.7349 4.86963 88.5371 14.3936 88.5371ZM14.5064 82.4922C9.00294 82.4922 6.04494 79.6016 6.04494 73.9634L6.04494 14.7017C6.04494 9.06349 9.00294 6.17287 14.5064 6.17287L73.9028 6.17287C79.2969 6.17287 82.3643 9.06349 82.3643 14.7017L82.3643 73.9634C82.3643 79.6016 79.2969 82.4922 73.9028 82.4922Z" fill="#000000" fill-opacity="0.85"/>
  <path d="M31.4697 66.4409C33.4185 66.4409 34.5318 65.1592 34.5318 63.0908L34.5318 51.2695L40.7007 44.9356L56.0483 64.8696C56.8735 65.9609 57.6416 66.4258 58.7817 66.4258C60.4644 66.4258 61.709 65.2114 61.709 63.5508C61.709 62.7407 61.3335 61.9087 60.8013 61.1929L45.127 40.9658L59.5689 26.2578C60.2173 25.542 60.4834 24.8784 60.4834 24.0464C60.4834 22.6484 59.2691 21.4678 57.7363 21.4678C56.7275 21.4678 56.0942 21.8013 55.1831 22.7124L34.7793 43.4311L34.5318 43.4311L34.5318 24.8179C34.5318 22.7344 33.4185 21.4678 31.4697 21.4678C29.6372 21.4678 28.4751 22.7344 28.4751 24.8179L28.4751 63.0908C28.4751 65.1592 29.6372 66.4409 31.4697 66.4409Z" fill="#000000" fill-opacity="0.85"/>
 </g>
</svg>
