<?xml version="1.0" encoding="UTF-8"?>
<!--Generator: Apple Native CoreSVG 232.5-->
<!DOCTYPE svg
PUBLIC "-//W3C//DTD SVG 1.1//EN"
       "http://www.w3.org/Graphics/SVG/1.1/DTD/svg11.dtd">
<svg version="1.1" xmlns="http://www.w3.org/2000/svg" xmlns:xlink="http://www.w3.org/1999/xlink" width="88.4092" height="88.5371">
 <g>
  <rect height="88.5371" opacity="0" width="88.4092" x="0" y="0"/>
  <path d="M88.4092 14.4019L88.4092 74.2632C88.4092 83.6558 83.5733 88.5371 74.0005 88.5371L14.3936 88.5371C4.86963 88.5371 0 83.7349 0 74.2632L0 14.4019C0 4.93018 4.86963 0.127929 14.3936 0.127929L74.0005 0.127929C83.5733 0.127929 88.4092 5.00928 88.4092 14.4019ZM55.419 22.271L34.626 43.3638L34.3633 43.3638L34.3633 24.4624C34.3633 22.293 33.2315 20.9927 31.2153 20.9927C29.3154 20.9927 28.1196 22.293 28.1196 24.4624L28.1196 63.4463C28.1196 65.6006 29.3154 66.916 31.2153 66.916C33.2315 66.916 34.3633 65.6006 34.3633 63.4463L34.3633 51.4566L40.667 45.0029L56.269 65.2773C57.1431 66.4175 57.9297 66.9009 59.1035 66.9009C60.8535 66.9009 62.1167 65.668 62.1167 63.9399C62.1167 63.0962 61.7227 62.2642 61.1904 61.5146L45.228 40.8984L59.9243 25.936C60.6065 25.1865 60.8726 24.523 60.8726 23.6572C60.8726 22.1919 59.6245 20.9927 58.0244 20.9927C57.0308 20.9927 56.3638 21.3599 55.419 22.271Z" fill="#000000" fill-opacity="0.85"/>
 </g>
</svg>
