<?xml version="1.0" encoding="UTF-8"?>
<!--Generator: Apple Native CoreSVG 232.5-->
<!DOCTYPE svg
PUBLIC "-//W3C//DTD SVG 1.1//EN"
       "http://www.w3.org/Graphics/SVG/1.1/DTD/svg11.dtd">
<svg version="1.1" xmlns="http://www.w3.org/2000/svg" xmlns:xlink="http://www.w3.org/1999/xlink" width="134.492" height="78.1494">
 <g>
  <rect height="78.1494" opacity="0" width="134.492" x="0" y="0"/>
  <path d="M25.231 66.7417L37.5449 75.9961C39.7393 77.6768 42.5903 76.7573 42.5903 73.8472L42.5903 66.7656L109.897 66.7656L109.897 73.8472C109.897 76.7051 112.715 77.7442 114.977 75.9961L127.275 66.7417C128.916 65.5444 128.867 63.2476 127.275 62.084L114.977 52.897C112.715 51.1641 109.897 52.2031 109.897 55.0274L109.897 62.1763L42.5903 62.1763L42.5903 55.0274C42.5903 52.2031 39.8067 51.1641 37.5449 52.897L25.231 62.084C23.6211 63.2813 23.606 65.5444 25.231 66.7417Z" fill="#000000" fill-opacity="0.85"/>
  <path d="M64.9609 36.3828L84.1626 36.3828C95.3008 36.3828 98.7559 32.3608 103.134 24.6987L105.885 19.1836C109.739 10.4854 113.116 6.34474 118.829 6.34474C125.011 6.34474 129.326 13.5332 129.326 20.6509C129.326 27.415 125.473 29.9639 119.779 29.9639C111.657 29.9639 104.929 25.1255 102.491 19.9853L100.015 25.6074C102.353 30.9214 109.729 36.3828 119.423 36.3828C128.193 36.3828 134.492 31.1475 134.492 20.5986C134.492 10.5146 128.408 0 119.319 0C112.541 0 108.004 4.24805 103.793 12.7876L100.829 18.7407C97.4595 25.585 94.5244 29.7954 85.146 29.7954L65.9443 29.7954C54.1919 29.7954 51.9961 25.2026 49.792 16.8467C47.5962 8.72949 43.0938 0 34.4546 0C24.3384 0 17.8677 11.2407 15.5596 22.7979L20.1997 24.4497C22.5718 13.0537 28.1982 6.31447 34.1328 6.31447C40.3149 6.31447 43.6855 12.9053 44.7764 18.688C46.2324 26.7602 40.8774 30.0835 35.2207 30.0835C27.5859 30.0835 21.3145 25.6006 19.1607 20.543L15.6489 25.5518C17.9526 30.5342 24.7803 36.3828 34.6782 36.3828C43.0029 36.3828 49.7998 31.5537 48.9043 21.4771L46.7622 22.7988C48.3433 30.9561 53.1118 36.3828 64.9609 36.3828ZM2.74366 72.8628C4.27296 72.8628 5.35597 71.7158 5.35597 70.1191L5.35597 35.603C5.35597 29.5254 7.50245 28.7559 12.4707 27.8755L19.8999 26.6094L18.7324 20.6689L12.0615 21.9316C3.78028 23.4116 0 26.0991 0 35.603L0.0336915 70.1528C0.0336915 71.7646 1.21094 72.8628 2.74366 72.8628Z" fill="#000000" fill-opacity="0.85"/>
 </g>
</svg>
