<?xml version="1.0" encoding="UTF-8"?>
<!--Generator: Apple Native CoreSVG 232.5-->
<!DOCTYPE svg
PUBLIC "-//W3C//DTD SVG 1.1//EN"
       "http://www.w3.org/Graphics/SVG/1.1/DTD/svg11.dtd">
<svg version="1.1" xmlns="http://www.w3.org/2000/svg" xmlns:xlink="http://www.w3.org/1999/xlink" width="118.585" height="61.1192">
 <g>
  <rect height="61.1192" opacity="0" width="118.585" x="0" y="0"/>
  <path d="M118.585 30.5352C118.585 13.5645 105.021 0 88.1328 0C75.2588 0 63.9507 7.73682 59.4785 19.8076L11.5425 19.8076C10.4546 19.8076 9.57569 20.1528 8.67481 21.02L0.653321 29.0078C-0.112793 29.7739-0.296387 31.1616 0.638184 32.0962L15.8897 47.3628C16.8125 48.2217 18.0015 48.188 18.8906 47.3628L28.5147 37.6563L41.7402 50.897C42.5654 51.707 43.7847 51.707 44.7075 50.7842L58.0542 37.52C63.9087 52.6231 74.8901 61.0366 88.1328 61.0366C104.972 61.0366 118.585 47.457 118.585 30.5352ZM90.8013 30.5352C90.8013 26.1758 94.2969 22.7139 98.6563 22.7139C103.016 22.7139 106.478 26.1421 106.478 30.5352C106.478 34.8945 103.016 38.3901 98.6563 38.3901C94.2969 38.3901 90.8013 34.8945 90.8013 30.5352Z" fill="#000000" fill-opacity="0.85"/>
 </g>
</svg>
