<?xml version="1.0" encoding="UTF-8"?>
<!--Generator: Apple Native CoreSVG 232.5-->
<!DOCTYPE svg
PUBLIC "-//W3C//DTD SVG 1.1//EN"
       "http://www.w3.org/Graphics/SVG/1.1/DTD/svg11.dtd">
<svg version="1.1" xmlns="http://www.w3.org/2000/svg" xmlns:xlink="http://www.w3.org/1999/xlink" width="62.9673" height="119.983">
 <g>
  <rect height="119.983" opacity="0" width="62.9673" x="0" y="0"/>
  <path d="M28.9302 118.33C30.4663 119.645 32.5684 119.829 34.0674 118.363L49.125 103.291C50.5904 101.792 50.5381 99.5884 49.0913 98.1382L40.7056 89.8013L52.5733 77.9976C54.0235 76.6113 53.9258 74.3442 52.4942 72.8452L41.0933 61.3955C55.1113 55.2529 62.9673 44.3911 62.9673 31.4028C62.9673 14.021 48.8975 0 31.5005 0C13.9722 0 0 13.9385 0 31.4028C0 44.2769 7.5498 55.686 19.3848 60.5474L19.3848 107.095C19.3848 108.419 19.7974 109.941 20.9863 111.029ZM31.5005 112.34L25.4448 106.318L25.4448 56.1699C13.9551 53.3399 6.01124 43.3066 6.01124 31.4028C6.01124 17.3828 17.3677 6.06007 31.5005 6.06007C45.5693 6.06007 56.9072 17.3677 56.9072 31.4028C56.9072 43.1939 48.9297 53.3399 35.5386 56.8599L35.5386 64.5283L46.4863 75.4946L35.1963 86.6382L35.1963 92.8667L43.0532 100.641ZM31.5005 29.4385C35.7251 29.4385 39.1533 26.0103 39.1533 21.752C39.1533 17.5274 35.7251 14.1328 31.5005 14.1328C27.2085 14.1328 23.8477 17.5274 23.8477 21.752C23.8477 26.0103 27.2422 29.4385 31.5005 29.4385Z" fill="#000000" fill-opacity="0.85"/>
 </g>
</svg>
