<?xml version="1.0" encoding="UTF-8"?>
<!--Generator: Apple Native CoreSVG 232.5-->
<!DOCTYPE svg
PUBLIC "-//W3C//DTD SVG 1.1//EN"
       "http://www.w3.org/Graphics/SVG/1.1/DTD/svg11.dtd">
<svg version="1.1" xmlns="http://www.w3.org/2000/svg" xmlns:xlink="http://www.w3.org/1999/xlink" width="119.401" height="63.0498">
 <g>
  <rect height="63.0498" opacity="0" width="119.401" x="0" y="0"/>
  <path d="M1.08645 28.9487C-0.262671 30.4663-0.446266 32.5869 1.05276 34.0674L16.0918 49.125C17.5909 50.624 19.8277 50.5718 21.2442 49.0913L29.5811 40.7393L41.4185 52.5733C42.8199 54.0235 45.0718 53.9595 46.5523 52.4942L58.0357 41.0933C64.1294 55.1113 75.0249 62.9673 87.9795 62.9673C105.395 62.9673 119.398 48.9312 119.398 31.5005C119.398 14.0059 105.444 0 87.9795 0C75.1392 0 63.6963 7.5498 58.8687 19.3848L12.2871 19.3848C10.9634 19.3848 9.45608 19.7822 8.38674 21.0049ZM7.04203 31.5005L13.0977 25.4785L63.2124 25.4785C66.0762 13.9551 76.0757 6.01124 87.9795 6.01124C102 6.01124 113.337 17.3677 113.337 31.5005C113.337 45.5693 102.064 56.9072 87.9795 56.9072C76.2222 56.9072 66.0762 48.9297 62.5562 35.5386L54.8692 35.5386L43.9366 46.4712L32.7593 35.1963L26.5493 35.1963L18.7412 43.0532ZM89.9439 31.5005C89.9439 35.7588 93.3721 39.187 97.6304 39.187C101.889 39.187 105.283 35.7588 105.283 31.5005C105.283 27.2085 101.889 23.8477 97.6304 23.8477C93.3721 23.8477 89.9439 27.2422 89.9439 31.5005Z" fill="#000000" fill-opacity="0.85"/>
 </g>
</svg>
