<?xml version="1.0" encoding="UTF-8"?>
<!--Generator: Apple Native CoreSVG 232.5-->
<!DOCTYPE svg
PUBLIC "-//W3C//DTD SVG 1.1//EN"
       "http://www.w3.org/Graphics/SVG/1.1/DTD/svg11.dtd">
<svg version="1.1" xmlns="http://www.w3.org/2000/svg" xmlns:xlink="http://www.w3.org/1999/xlink" width="61.0366" height="118.951">
 <g>
  <rect height="118.951" opacity="0" width="61.0366" x="0" y="0"/>
  <path d="M30.5352 0.374974C13.5308 0.374974 0 13.9057 0 30.8276C0 43.6679 7.73682 55.0097 19.8076 59.4819L19.8076 107.418C19.8076 108.472 20.1528 109.385 20.9863 110.252L28.9741 118.273C29.7739 119.073 31.1616 119.257 32.0962 118.322L47.3477 103.071C48.2217 102.148 48.188 100.959 47.3477 100.07L37.6074 90.4458L50.897 77.2202C51.6733 76.395 51.6733 75.1758 50.7842 74.2529L37.52 60.9062C52.6231 55.0517 61.0366 44.0703 61.0366 30.8276C61.0366 13.9883 47.4233 0.374974 30.5352 0.374974ZM30.5352 28.1255C26.1758 28.1255 22.7139 24.6299 22.7139 20.3042C22.7139 15.9448 26.1421 12.4829 30.5352 12.4829C34.8457 12.4829 38.3565 15.9448 38.3565 20.3042C38.3565 24.6299 34.8457 28.1255 30.5352 28.1255Z" fill="#000000" fill-opacity="0.85"/>
 </g>
</svg>
