<?xml version="1.0" encoding="UTF-8"?>
<!--Generator: Apple Native CoreSVG 232.5-->
<!DOCTYPE svg
PUBLIC "-//W3C//DTD SVG 1.1//EN"
       "http://www.w3.org/Graphics/SVG/1.1/DTD/svg11.dtd">
<svg version="1.1" xmlns="http://www.w3.org/2000/svg" xmlns:xlink="http://www.w3.org/1999/xlink" width="121.341" height="75.835">
 <g>
  <rect height="75.835" opacity="0" width="121.341" x="0" y="0"/>
  <path d="M14.3936 75.7407L106.933 75.7407C116.438 75.7407 121.341 70.8745 121.341 61.4819L121.341 14.2251C121.341 4.86621 116.438 0 106.933 0L14.3936 0C4.83594 0 0 4.80225 0 14.2251L0 61.4819C0 70.9048 4.83594 75.7407 14.3936 75.7407ZM18.2334 25.9775C16.8813 25.9775 16.1118 25.1743 16.1118 23.8223L16.1118 19.5772C16.1118 18.2251 16.8813 17.4067 18.2334 17.4067L22.4785 17.4067C23.8643 17.4067 24.6675 18.2251 24.6675 19.5772L24.6675 23.8223C24.6675 25.1743 23.8643 25.9775 22.4785 25.9775ZM34.2778 25.9775C32.8921 25.9775 32.1074 25.1743 32.1074 23.8223L32.1074 19.5772C32.1074 18.2251 32.8921 17.4067 34.2778 17.4067L38.523 17.4067C39.8599 17.4067 40.6782 18.2251 40.6782 19.5772L40.6782 23.8223C40.6782 25.1743 39.8599 25.9775 38.523 25.9775ZM50.3071 25.9775C48.9702 25.9775 48.1519 25.1743 48.1519 23.8223L48.1519 19.5772C48.1519 18.2251 48.9702 17.4067 50.3071 17.4067L54.5337 17.4067C55.9043 17.4067 56.7227 18.2251 56.7227 19.5772L56.7227 23.8223C56.7227 25.1743 55.9043 25.9775 54.5337 25.9775ZM66.3516 25.9775C64.9995 25.9775 64.1963 25.1743 64.1963 23.8223L64.1963 19.5772C64.1963 18.2251 64.9995 17.4067 66.3516 17.4067L70.5967 17.4067C71.9487 17.4067 72.7671 18.2251 72.7671 19.5772L72.7671 23.8223C72.7671 25.1743 71.9487 25.9775 70.5967 25.9775ZM82.396 25.9775C81.0103 25.9775 80.1919 25.1743 80.1919 23.8223L80.1919 19.5772C80.1919 18.2251 81.0103 17.4067 82.396 17.4067L86.6411 17.4067C87.978 17.4067 88.7627 18.2251 88.7627 19.5772L88.7627 23.8223C88.7627 25.1743 87.978 25.9775 86.6411 25.9775ZM98.4253 25.9775C97.0547 25.9775 96.2363 25.1743 96.2363 23.8223L96.2363 19.5772C96.2363 18.2251 97.0547 17.4067 98.4253 17.4067L102.652 17.4067C104.022 17.4067 104.807 18.2251 104.807 19.5772L104.807 23.8223C104.807 25.1743 104.022 25.9775 102.652 25.9775ZM18.2334 42.022C16.8813 42.022 16.1118 41.2036 16.1118 39.8667L16.1118 35.6064C16.1118 34.2695 16.8813 33.4512 18.2334 33.4512L22.4785 33.4512C23.8643 33.4512 24.6675 34.2695 24.6675 35.6064L24.6675 39.8667C24.6675 41.2036 23.8643 42.022 22.4785 42.022ZM34.2778 42.022C32.8921 42.022 32.1074 41.2036 32.1074 39.8667L32.1074 35.6064C32.1074 34.2695 32.8921 33.4512 34.2778 33.4512L38.523 33.4512C39.8599 33.4512 40.6782 34.2695 40.6782 35.6064L40.6782 39.8667C40.6782 41.2036 39.8599 42.022 38.523 42.022ZM50.3071 42.022C48.9702 42.022 48.1519 41.2036 48.1519 39.8667L48.1519 35.6064C48.1519 34.2695 48.9702 33.4512 50.3071 33.4512L54.5337 33.4512C55.9043 33.4512 56.7227 34.2695 56.7227 35.6064L56.7227 39.8667C56.7227 41.2036 55.9043 42.022 54.5337 42.022ZM66.3516 42.022C64.9995 42.022 64.1963 41.2036 64.1963 39.8667L64.1963 35.6064C64.1963 34.2695 64.9995 33.4512 66.3516 33.4512L70.5967 33.4512C71.9487 33.4512 72.7671 34.2695 72.7671 35.6064L72.7671 39.8667C72.7671 41.2036 71.9487 42.022 70.5967 42.022ZM82.396 42.022C81.0103 42.022 80.1919 41.2036 80.1919 39.8667L80.1919 35.6064C80.1919 34.2695 81.0103 33.4512 82.396 33.4512L86.6411 33.4512C87.978 33.4512 88.7627 34.2695 88.7627 35.6064L88.7627 39.8667C88.7627 41.2036 87.978 42.022 86.6411 42.022ZM98.4253 42.022C97.0547 42.022 96.2363 41.2036 96.2363 39.8667L96.2363 35.6064C96.2363 34.2695 97.0547 33.4512 98.4253 33.4512L102.652 33.4512C104.022 33.4512 104.807 34.2695 104.807 35.6064L104.807 39.8667C104.807 41.2036 104.022 42.022 102.652 42.022ZM18.2334 58.0664C16.8813 58.0664 16.1118 57.2481 16.1118 55.896L16.1118 51.6509C16.1118 50.2988 16.8813 49.4956 18.2334 49.4956L22.4785 49.4956C23.8643 49.4956 24.6675 50.2988 24.6675 51.6509L24.6675 55.896C24.6675 57.2481 23.8643 58.0664 22.4785 58.0664ZM34.6333 58.0664C33.0269 58.0664 32.1074 57.147 32.1074 55.5405L32.1074 51.9727C32.1074 50.3999 33.0269 49.4956 34.6333 49.4956L86.2857 49.4956C87.8584 49.4956 88.7627 50.3999 88.7627 51.9727L88.7627 55.5405C88.7627 57.147 87.8584 58.0664 86.2857 58.0664ZM98.4253 58.0664C97.0547 58.0664 96.2363 57.2481 96.2363 55.896L96.2363 51.6509C96.2363 50.2988 97.0547 49.4956 98.4253 49.4956L102.652 49.4956C104.022 49.4956 104.807 50.2988 104.807 51.6509L104.807 55.896C104.807 57.2481 104.022 58.0664 102.652 58.0664Z" fill="#000000" fill-opacity="0.85"/>
 </g>
</svg>
