<?xml version="1.0" encoding="UTF-8"?>
<!--Generator: Apple Native CoreSVG 232.5-->
<!DOCTYPE svg
PUBLIC "-//W3C//DTD SVG 1.1//EN"
       "http://www.w3.org/Graphics/SVG/1.1/DTD/svg11.dtd">
<svg version="1.1" xmlns="http://www.w3.org/2000/svg" xmlns:xlink="http://www.w3.org/1999/xlink" width="121.341" height="75.835">
 <g>
  <rect height="75.835" opacity="0" width="121.341" x="0" y="0"/>
  <path d="M121.341 14.2251L121.341 61.4819C121.341 70.8745 116.438 75.7407 106.933 75.7407L14.3936 75.7407C4.83594 75.7407 0 70.9048 0 61.4819L0 14.2251C0 4.80225 4.83594 0 14.3936 0L106.933 0C116.438 0 121.341 4.86621 121.341 14.2251ZM17.7383 49.7598C16.8711 49.7598 16.376 50.3189 16.376 51.2954L16.376 56.2178C16.376 57.2432 16.8711 57.7534 17.7383 57.7534L21.0859 57.7534C21.9346 57.7534 22.3809 57.2432 22.3809 56.2178L22.3809 51.2954C22.3809 50.3189 21.9346 49.7598 21.0859 49.7598ZM28.7012 49.7598C27.8003 49.7598 27.3389 50.3189 27.3389 51.2954L27.3389 56.2178C27.3389 57.2432 27.8003 57.7534 28.7012 57.7534L64.8399 57.7534C65.6397 57.7534 66.1348 57.2432 66.1348 56.2178L66.1348 51.2954C66.1348 50.3189 65.6397 49.7598 64.8399 49.7598ZM72.4214 49.7598C71.5391 49.7598 71.0591 50.3189 71.0591 51.2954L71.0591 56.2178C71.0591 57.2432 71.5391 57.7534 72.4214 57.7534L75.7354 57.7534C76.5689 57.7534 77.0977 57.2432 77.0977 56.2178L77.0977 51.2954C77.0977 50.3189 76.5689 49.7598 75.7354 49.7598ZM100.779 20.6992L85.3667 35.4849C83.7988 36.9854 83.7988 38.7217 85.3667 40.2222L100.779 55.0415C102.306 56.4863 104.751 55.8364 104.751 53.5864L104.751 22.1206C104.751 19.9043 102.306 19.2544 100.779 20.6992ZM17.7383 33.7642C16.8711 33.7642 16.376 34.2407 16.376 35.2847L16.376 40.1885C16.376 41.2324 16.8711 41.709 17.7383 41.709L21.0859 41.709C21.9346 41.709 22.3809 41.2324 22.3809 40.1885L22.3809 35.2847C22.3809 34.2407 21.9346 33.7642 21.0859 33.7642ZM28.7012 33.7642C27.8003 33.7642 27.3389 34.2407 27.3389 35.2847L27.3389 40.1885C27.3389 41.2324 27.8003 41.709 28.7012 41.709L32.0303 41.709C32.8975 41.709 33.3286 41.2324 33.3286 40.1885L33.3286 35.2847C33.3286 34.2407 32.8975 33.7642 32.0303 33.7642ZM39.6304 33.7642C38.7632 33.7642 38.2681 34.2407 38.2681 35.2847L38.2681 40.1885C38.2681 41.2324 38.7632 41.709 39.6304 41.709L42.9629 41.709C43.7964 41.709 44.2578 41.2324 44.2578 40.1885L44.2578 35.2847C44.2578 34.2407 43.7964 33.7642 42.9629 33.7642ZM50.5293 33.7642C49.6621 33.7642 49.2007 34.2407 49.2007 35.2847L49.2007 40.1885C49.2007 41.2324 49.6621 41.709 50.5293 41.709L53.8433 41.709C54.7105 41.709 55.2056 41.2324 55.2056 40.1885L55.2056 35.2847C55.2056 34.2407 54.7105 33.7642 53.8433 33.7642ZM61.4097 33.7642C60.5762 33.7642 60.0962 34.2407 60.0962 35.2847L60.0962 40.1885C60.0962 41.2324 60.5762 41.709 61.4097 41.709L64.8399 41.709C65.6397 41.709 66.1348 41.2324 66.1348 40.1885L66.1348 35.2847C66.1348 34.2407 65.6397 33.7642 64.8399 33.7642ZM72.4214 33.7642C71.5391 33.7642 71.0591 34.2407 71.0591 35.2847L71.0591 40.1885C71.0591 41.2324 71.5391 41.709 72.4214 41.709L75.7354 41.709C76.5689 41.709 77.0977 41.2324 77.0977 40.1885L77.0977 35.2847C77.0977 34.2407 76.5689 33.7642 75.7354 33.7642ZM17.7383 17.7197C16.8711 17.7197 16.376 18.23 16.376 19.2554L16.376 24.1777C16.376 25.1543 16.8711 25.7134 17.7383 25.7134L21.0859 25.7134C21.9346 25.7134 22.3809 25.1543 22.3809 24.1777L22.3809 19.2554C22.3809 18.23 21.9346 17.7197 21.0859 17.7197ZM28.7012 17.7197C27.8003 17.7197 27.3389 18.23 27.3389 19.2554L27.3389 24.1777C27.3389 25.1543 27.8003 25.7134 28.7012 25.7134L32.0303 25.7134C32.8975 25.7134 33.3286 25.1543 33.3286 24.1777L33.3286 19.2554C33.3286 18.23 32.8975 17.7197 32.0303 17.7197ZM39.6304 17.7197C38.7632 17.7197 38.2681 18.23 38.2681 19.2554L38.2681 24.1777C38.2681 25.1543 38.7632 25.7134 39.6304 25.7134L42.9629 25.7134C43.7964 25.7134 44.2578 25.1543 44.2578 24.1777L44.2578 19.2554C44.2578 18.23 43.7964 17.7197 42.9629 17.7197ZM50.5293 17.7197C49.6621 17.7197 49.2007 18.23 49.2007 19.2554L49.2007 24.1777C49.2007 25.1543 49.6621 25.7134 50.5293 25.7134L53.8433 25.7134C54.7105 25.7134 55.2056 25.1543 55.2056 24.1777L55.2056 19.2554C55.2056 18.23 54.7105 17.7197 53.8433 17.7197ZM61.4097 17.7197C60.5762 17.7197 60.0962 18.23 60.0962 19.2554L60.0962 24.1777C60.0962 25.1543 60.5762 25.7134 61.4097 25.7134L64.8399 25.7134C65.6397 25.7134 66.1348 25.1543 66.1348 24.1777L66.1348 19.2554C66.1348 18.23 65.6397 17.7197 64.8399 17.7197ZM72.4214 17.7197C71.5391 17.7197 71.0591 18.23 71.0591 19.2554L71.0591 24.1777C71.0591 25.1543 71.5391 25.7134 72.4214 25.7134L75.7354 25.7134C76.5689 25.7134 77.0977 25.1543 77.0977 24.1777L77.0977 19.2554C77.0977 18.23 76.5689 17.7197 75.7354 17.7197Z" fill="#000000" fill-opacity="0.85"/>
 </g>
</svg>
