<?xml version="1.0" encoding="UTF-8"?>
<!--Generator: Apple Native CoreSVG 232.5-->
<!DOCTYPE svg
PUBLIC "-//W3C//DTD SVG 1.1//EN"
       "http://www.w3.org/Graphics/SVG/1.1/DTD/svg11.dtd">
<svg version="1.1" xmlns="http://www.w3.org/2000/svg" xmlns:xlink="http://www.w3.org/1999/xlink" width="121.341" height="75.835">
 <g>
  <rect height="75.835" opacity="0" width="121.341" x="0" y="0"/>
  <path d="M14.3936 75.7407L106.933 75.7407C116.438 75.7407 121.341 70.8745 121.341 61.4819L121.341 14.2251C121.341 4.86621 116.438 0 106.933 0L14.3936 0C4.83594 0 0 4.80225 0 14.2251L0 61.4819C0 70.9048 4.83594 75.7407 14.3936 75.7407ZM14.5064 69.7109C9.00294 69.7109 6.04494 66.7866 6.04494 61.1484L6.04494 14.5586C6.04494 8.92042 9.00294 6.0298 14.5064 6.0298L106.801 6.0298C112.195 6.0298 115.296 8.92042 115.296 14.5586L115.296 61.1484C115.296 66.7866 112.195 69.7109 106.801 69.7109Z" fill="#000000" fill-opacity="0.85"/>
  <path d="M45.894 25.9341L49.1743 25.9341C50.023 25.9341 50.4692 25.4238 50.4692 24.4321L50.4692 19.6445C50.4692 18.6528 50.023 18.1426 49.1743 18.1426L45.894 18.1426C45.0606 18.1426 44.5991 18.6528 44.5991 19.6445L44.5991 24.4321C44.5991 25.4238 45.0606 25.9341 45.894 25.9341ZM56.6362 25.9341L59.898 25.9341C60.7315 25.9341 61.1626 25.4238 61.1626 24.4321L61.1626 19.6445C61.1626 18.6528 60.7315 18.1426 59.898 18.1426L56.6362 18.1426C55.8027 18.1426 55.3076 18.6528 55.3076 19.6445L55.3076 24.4321C55.3076 25.4238 55.8027 25.9341 56.6362 25.9341ZM67.3633 25.9341L70.6099 25.9341C71.4097 25.9341 71.9048 25.4238 71.9048 24.4321L71.9048 19.6445C71.9048 18.6528 71.4097 18.1426 70.6099 18.1426L67.3633 18.1426C66.4961 18.1426 66.0347 18.6528 66.0347 19.6445L66.0347 24.4321C66.0347 25.4238 66.4961 25.9341 67.3633 25.9341ZM78.0415 25.9341L81.2544 25.9341C82.1216 25.9341 82.583 25.4238 82.583 24.4321L82.583 19.6445C82.583 18.6528 82.1216 18.1426 81.2544 18.1426L78.0415 18.1426C77.1743 18.1426 76.7129 18.6528 76.7129 19.6445L76.7129 24.4321C76.7129 25.4238 77.1743 25.9341 78.0415 25.9341ZM88.7012 25.9341L92.0303 25.9341C92.8301 25.9341 93.3252 25.4238 93.3252 24.4321L93.3252 19.6445C93.3252 18.6528 92.8301 18.1426 92.0303 18.1426L88.7012 18.1426C87.8862 18.1426 87.4551 18.6528 87.4551 19.6445L87.4551 24.4321C87.4551 25.4238 87.8862 25.9341 88.7012 25.9341ZM99.4771 25.9341L102.69 25.9341C103.557 25.9341 104.019 25.4238 104.019 24.4321L104.019 19.6445C104.019 18.6528 103.557 18.1426 102.69 18.1426L99.4771 18.1426C98.5947 18.1426 98.1484 18.6528 98.1484 19.6445L98.1484 24.4321C98.1484 25.4238 98.5947 25.9341 99.4771 25.9341ZM45.894 41.6231L49.1743 41.6231C50.023 41.6231 50.4692 41.1314 50.4692 40.1211L50.4692 35.3521C50.4692 34.3418 50.023 33.8501 49.1743 33.8501L45.894 33.8501C45.0606 33.8501 44.5991 34.3418 44.5991 35.3521L44.5991 40.1211C44.5991 41.1314 45.0606 41.6231 45.894 41.6231ZM56.6362 41.6231L59.898 41.6231C60.7315 41.6231 61.1626 41.1314 61.1626 40.1211L61.1626 35.3521C61.1626 34.3418 60.7315 33.8501 59.898 33.8501L56.6362 33.8501C55.8027 33.8501 55.3076 34.3418 55.3076 35.3521L55.3076 40.1211C55.3076 41.1314 55.8027 41.6231 56.6362 41.6231ZM67.3633 41.6231L70.6099 41.6231C71.4097 41.6231 71.9048 41.1314 71.9048 40.1211L71.9048 35.3521C71.9048 34.3418 71.4097 33.8501 70.6099 33.8501L67.3633 33.8501C66.4961 33.8501 66.0347 34.3418 66.0347 35.3521L66.0347 40.1211C66.0347 41.1314 66.4961 41.6231 67.3633 41.6231ZM78.0415 41.6231L81.2544 41.6231C82.1216 41.6231 82.583 41.1314 82.583 40.1211L82.583 35.3521C82.583 34.3418 82.1216 33.8501 81.2544 33.8501L78.0415 33.8501C77.1743 33.8501 76.7129 34.3418 76.7129 35.3521L76.7129 40.1211C76.7129 41.1314 77.1743 41.6231 78.0415 41.6231ZM88.7012 41.6231L92.0303 41.6231C92.8301 41.6231 93.3252 41.1314 93.3252 40.1211L93.3252 35.3521C93.3252 34.3418 92.8301 33.8501 92.0303 33.8501L88.7012 33.8501C87.8862 33.8501 87.4551 34.3418 87.4551 35.3521L87.4551 40.1211C87.4551 41.1314 87.8862 41.6231 88.7012 41.6231ZM99.4771 41.6231L102.69 41.6231C103.557 41.6231 104.019 41.1314 104.019 40.1211L104.019 35.3521C104.019 34.3418 103.557 33.8501 102.69 33.8501L99.4771 33.8501C98.5947 33.8501 98.1484 34.3418 98.1484 35.3521L98.1484 40.1211C98.1484 41.1314 98.5947 41.6231 99.4771 41.6231ZM45.894 57.3306L49.1743 57.3306C50.023 57.3306 50.4692 56.8203 50.4692 55.8286L50.4692 51.041C50.4692 50.0493 50.023 49.5391 49.1743 49.5391L45.894 49.5391C45.0606 49.5391 44.5991 50.0493 44.5991 51.041L44.5991 55.8286C44.5991 56.8203 45.0606 57.3306 45.894 57.3306ZM56.6362 57.3306L92.0303 57.3306C92.8301 57.3306 93.3252 56.8203 93.3252 55.8286L93.3252 51.041C93.3252 50.0493 92.8301 49.5391 92.0303 49.5391L56.6362 49.5391C55.8027 49.5391 55.3076 50.0493 55.3076 51.041L55.3076 55.8286C55.3076 56.8203 55.8027 57.3306 56.6362 57.3306ZM99.4771 57.3306L102.69 57.3306C103.557 57.3306 104.019 56.8203 104.019 55.8286L104.019 51.041C104.019 50.0493 103.557 49.5391 102.69 49.5391L99.4771 49.5391C98.5947 49.5391 98.1484 50.0493 98.1484 51.041L98.1484 55.8286C98.1484 56.8203 98.5947 57.3306 99.4771 57.3306ZM36.2847 35.5522L21.1607 21.021C19.667 19.5947 17.2891 20.2598 17.2891 22.4087L17.2891 53.2983C17.2891 55.481 19.667 56.146 21.1607 54.7197L36.2847 40.1548C37.8189 38.688 37.8189 37.019 36.2847 35.5522Z" fill="#000000" fill-opacity="0.85"/>
 </g>
</svg>
