<?xml version="1.0" encoding="UTF-8"?>
<!--Generator: Apple Native CoreSVG 232.5-->
<!DOCTYPE svg
PUBLIC "-//W3C//DTD SVG 1.1//EN"
       "http://www.w3.org/Graphics/SVG/1.1/DTD/svg11.dtd">
<svg version="1.1" xmlns="http://www.w3.org/2000/svg" xmlns:xlink="http://www.w3.org/1999/xlink" width="121.341" height="126.753">
 <g>
  <rect height="126.753" opacity="0" width="121.341" x="0" y="0"/>
  <path d="M14.3936 101.2L106.933 101.2C116.438 101.2 121.341 96.3335 121.341 86.9409L121.341 39.6841C121.341 30.3252 116.438 25.459 106.933 25.459L14.3936 25.459C4.83594 25.459 0 30.2612 0 39.6841L0 86.9409C0 96.3638 4.83594 101.2 14.3936 101.2ZM14.5064 95.1699C9.00294 95.1699 6.04494 92.2456 6.04494 86.6074L6.04494 40.0176C6.04494 34.3794 9.00294 31.4888 14.5064 31.4888L106.801 31.4888C112.195 31.4888 115.296 34.3794 115.296 40.0176L115.296 86.6074C115.296 92.2456 112.195 95.1699 106.801 95.1699ZM19.0977 51.6724L23.2568 51.6724C24.6089 51.6724 25.3784 50.8877 25.3784 49.5694L25.3784 45.4253C25.3784 44.0733 24.6089 43.2886 23.2568 43.2886L19.0977 43.2886C17.7944 43.2886 17.0098 44.0733 17.0098 45.4253L17.0098 49.5694C17.0098 50.8877 17.7944 51.6724 19.0977 51.6724ZM34.8203 51.6724L38.9795 51.6724C40.2827 51.6724 41.0674 50.8877 41.0674 49.5694L41.0674 45.4253C41.0674 44.0733 40.2827 43.2886 38.9795 43.2886L34.8203 43.2886C33.4683 43.2886 32.6836 44.0733 32.6836 45.4253L32.6836 49.5694C32.6836 50.8877 33.4683 51.6724 34.8203 51.6724ZM50.543 51.6724L54.6533 51.6724C56.0054 51.6724 56.79 50.8877 56.79 49.5694L56.79 45.4253C56.79 44.0733 56.0054 43.2886 54.6533 43.2886L50.543 43.2886C49.1909 43.2886 48.4063 44.0733 48.4063 45.4253L48.4063 49.5694C48.4063 50.8877 49.1909 51.6724 50.543 51.6724ZM66.2168 51.6724L70.376 51.6724C71.728 51.6724 72.4976 50.8877 72.4976 49.5694L72.4976 45.4253C72.4976 44.0733 71.728 43.2886 70.376 43.2886L66.2168 43.2886C64.9136 43.2886 64.1289 44.0733 64.1289 45.4253L64.1289 49.5694C64.1289 50.8877 64.9136 51.6724 66.2168 51.6724ZM81.9395 51.6724L86.0835 51.6724C87.4019 51.6724 88.1865 50.8877 88.1865 49.5694L88.1865 45.4253C88.1865 44.0733 87.4019 43.2886 86.0835 43.2886L81.9395 43.2886C80.5874 43.2886 79.8027 44.0733 79.8027 45.4253L79.8027 49.5694C79.8027 50.8877 80.5874 51.6724 81.9395 51.6724ZM97.6621 51.6724L101.772 51.6724C103.125 51.6724 103.909 50.8877 103.909 49.5694L103.909 45.4253C103.909 44.0733 103.125 43.2886 101.772 43.2886L97.6621 43.2886C96.3101 43.2886 95.5254 44.0733 95.5254 45.4253L95.5254 49.5694C95.5254 50.8877 96.3101 51.6724 97.6621 51.6724ZM19.0977 67.3799L23.2568 67.3799C24.6089 67.3799 25.3784 66.5952 25.3784 65.2583L25.3784 61.1328C25.3784 59.7959 24.6089 59.0112 23.2568 59.0112L19.0977 59.0112C17.7944 59.0112 17.0098 59.7959 17.0098 61.1328L17.0098 65.2583C17.0098 66.5952 17.7944 67.3799 19.0977 67.3799ZM34.8203 67.3799L38.9795 67.3799C40.2827 67.3799 41.0674 66.5952 41.0674 65.2583L41.0674 61.1328C41.0674 59.7959 40.2827 59.0112 38.9795 59.0112L34.8203 59.0112C33.4683 59.0112 32.6836 59.7959 32.6836 61.1328L32.6836 65.2583C32.6836 66.5952 33.4683 67.3799 34.8203 67.3799ZM50.543 67.3799L54.6533 67.3799C56.0054 67.3799 56.79 66.5952 56.79 65.2583L56.79 61.1328C56.79 59.7959 56.0054 59.0112 54.6533 59.0112L50.543 59.0112C49.1909 59.0112 48.4063 59.7959 48.4063 61.1328L48.4063 65.2583C48.4063 66.5952 49.1909 67.3799 50.543 67.3799ZM66.2168 67.3799L70.376 67.3799C71.728 67.3799 72.4976 66.5952 72.4976 65.2583L72.4976 61.1328C72.4976 59.7959 71.728 59.0112 70.376 59.0112L66.2168 59.0112C64.9136 59.0112 64.1289 59.7959 64.1289 61.1328L64.1289 65.2583C64.1289 66.5952 64.9136 67.3799 66.2168 67.3799ZM81.9395 67.3799L86.0835 67.3799C87.4019 67.3799 88.1865 66.5952 88.1865 65.2583L88.1865 61.1328C88.1865 59.7959 87.4019 59.0112 86.0835 59.0112L81.9395 59.0112C80.5874 59.0112 79.8027 59.7959 79.8027 61.1328L79.8027 65.2583C79.8027 66.5952 80.5874 67.3799 81.9395 67.3799ZM97.6621 67.3799L101.772 67.3799C103.125 67.3799 103.909 66.5952 103.909 65.2583L103.909 61.1328C103.909 59.7959 103.125 59.0112 101.772 59.0112L97.6621 59.0112C96.3101 59.0112 95.5254 59.7959 95.5254 61.1328L95.5254 65.2583C95.5254 66.5952 96.3101 67.3799 97.6621 67.3799ZM19.0977 83.1026L23.2568 83.1026C24.6089 83.1026 25.3784 82.3179 25.3784 80.9658L25.3784 76.8218C25.3784 75.5034 24.6089 74.7188 23.2568 74.7188L19.0977 74.7188C17.7944 74.7188 17.0098 75.5034 17.0098 76.8218L17.0098 80.9658C17.0098 82.3179 17.7944 83.1026 19.0977 83.1026ZM35.1421 83.1026L85.7617 83.1026C87.3008 83.1026 88.1865 82.2168 88.1865 80.6441L88.1865 77.1436C88.1865 75.6045 87.3008 74.7188 85.7617 74.7188L35.1421 74.7188C33.5693 74.7188 32.6836 75.6045 32.6836 77.1436L32.6836 80.6441C32.6836 82.2168 33.5693 83.1026 35.1421 83.1026ZM97.6621 83.1026L101.772 83.1026C103.125 83.1026 103.909 82.3179 103.909 80.9658L103.909 76.8218C103.909 75.5034 103.125 74.7188 101.772 74.7188L97.6621 74.7188C96.3101 74.7188 95.5254 75.5034 95.5254 76.8218L95.5254 80.9658C95.5254 82.3179 96.3101 83.1026 97.6621 83.1026Z" fill="#000000" fill-opacity="0.85"/>
  <path d="M60.6538 126.753C62.0737 126.753 63.9097 126 65.3633 125.483L92.1011 115.188C93.521 114.686 94.0718 113.401 94.0718 112.581C94.0718 110.812 92.8355 109.325 90.8833 109.325C89.9956 109.325 88.6919 109.812 87.8413 110.145L58.5078 121.511L62.8672 121.511L33.5152 110.145C32.6646 109.812 31.4282 109.325 30.5068 109.325C28.6558 109.325 27.3184 110.76 27.3184 112.581C27.3184 113.401 27.8354 114.686 29.2891 115.188L55.9932 125.483C57.5142 126.034 59.2524 126.753 60.6538 126.753Z" fill="#000000" fill-opacity="0.85"/>
 </g>
</svg>
