<?xml version="1.0" encoding="UTF-8"?>
<!--Generator: Apple Native CoreSVG 232.5-->
<!DOCTYPE svg
PUBLIC "-//W3C//DTD SVG 1.1//EN"
       "http://www.w3.org/Graphics/SVG/1.1/DTD/svg11.dtd">
<svg version="1.1" xmlns="http://www.w3.org/2000/svg" xmlns:xlink="http://www.w3.org/1999/xlink" width="97.9595" height="97.9932">
 <g>
  <rect height="97.9932" opacity="0" width="97.9595" x="0" y="0"/>
  <path d="M48.9722 97.9443C75.8247 97.9443 97.9595 75.7759 97.9595 48.9722C97.9595 22.1348 75.791 0 48.9385 0C22.1348 0 0 22.1348 0 48.9722C0 75.7759 22.1685 97.9443 48.9722 97.9443ZM48.9722 91.6113C25.3501 91.6113 6.36671 72.5942 6.36671 48.9722C6.36671 25.3501 25.3164 6.31789 48.9385 6.31789C72.5605 6.31789 91.6265 25.3501 91.6265 48.9722C91.6265 72.5942 72.5942 91.6113 48.9722 91.6113Z" fill="#000000" fill-opacity="0.85"/>
  <path d="M21.4951 65.0147C22.9839 65.0147 23.8613 64.1035 23.8613 62.6147L23.8613 54.874L26.1997 50.815L32.853 63.4653C33.2656 64.3091 34.0488 64.9321 35.1367 64.9321C36.1758 64.9321 37.188 64.1255 37.188 62.8135C37.188 62.2661 37.0078 61.7002 36.73 61.1934L29.4082 47.4688L35.8545 36.709C36.2031 36.1279 36.3193 35.7456 36.3193 35.082C36.3193 34.043 35.5767 33.0122 34.2832 33.0122C33.1211 33.0122 32.6597 33.5596 32.1646 34.4185L24.0449 48.5269L23.8276 48.5269L23.8276 35.3482C23.8276 33.8257 23.0024 32.9482 21.48 32.9482C20.0552 32.9482 19.2451 33.9048 19.2451 35.3482L19.2451 62.6147C19.2451 64.2754 20.3247 65.0147 21.4951 65.0147ZM42.6465 64.917C44.0864 64.917 44.9639 63.9722 44.9639 62.5322L44.9639 53.6856L48.6289 53.6856C54.3032 53.6856 56.9199 48.7319 56.9199 43.5459C56.9199 37.9121 54.0542 33.4063 48.8799 33.4063L42.6314 33.4063C41.2368 33.4063 40.3931 34.3174 40.3931 35.8062L40.3931 62.5322C40.3931 63.9722 41.2705 64.917 42.6465 64.917ZM44.9639 49.9688L44.9639 37.1568L47.6875 37.1568C51.1152 37.1568 52.4316 40.0088 52.4316 43.5459C52.4316 46.9922 51.0815 49.9688 47.669 49.9688ZM62.9087 65.0147C64.3823 65.0147 65.1587 64.0547 65.1587 62.4985L65.1587 50.6177L73.8472 50.6177L73.8472 62.4985C73.8472 64.0547 74.6572 65.0147 76.1309 65.0147C77.6567 65.0147 78.4331 64.0547 78.4331 62.4985L78.4331 35.4121C78.4331 33.856 77.6567 32.9482 76.1309 32.9482C74.6909 32.9482 73.8472 33.856 73.8472 35.4121L73.8472 46.7324L65.1587 46.7324L65.1587 35.4121C65.1587 33.856 64.3486 32.9482 62.9087 32.9482C61.398 32.9482 60.6216 33.856 60.6216 35.4121L60.6216 62.4985C60.6216 64.0547 61.398 65.0147 62.9087 65.0147Z" fill="#000000" fill-opacity="0.85"/>
 </g>
</svg>
