<?xml version="1.0" encoding="UTF-8"?>
<!--Generator: Apple Native CoreSVG 232.5-->
<!DOCTYPE svg
PUBLIC "-//W3C//DTD SVG 1.1//EN"
       "http://www.w3.org/Graphics/SVG/1.1/DTD/svg11.dtd">
<svg version="1.1" xmlns="http://www.w3.org/2000/svg" xmlns:xlink="http://www.w3.org/1999/xlink" width="109.998" height="83.086">
 <g>
  <rect height="83.086" opacity="0" width="109.998" x="0" y="0"/>
  <path d="M109.998 13.8565L109.998 44.8838C109.998 70.3179 98.335 83.0371 70.9985 83.0371L38.999 83.0371C11.6475 83.0371 0 70.3179 0 44.8838L0 13.8565C0 4.72315 4.79053 0 13.9912 0L96.0064 0C105.192 0 109.998 4.76856 109.998 13.8565ZM43.6968 24.4238L43.6968 58.1602C43.6968 60.1797 44.874 61.5777 46.8262 61.5777L66.6133 61.5777C68.1426 61.5777 69.4243 60.4829 69.4243 58.9014C69.4243 57.335 68.0938 56.1426 66.6133 56.1426L50.0752 56.1426L50.0752 24.4238C50.0752 22.3555 48.7632 20.939 46.8262 20.939C44.8589 20.939 43.6968 22.3892 43.6968 24.4238Z" fill="#000000" fill-opacity="0.85"/>
 </g>
</svg>
