<?xml version="1.0" encoding="UTF-8"?>
<!--Generator: Apple Native CoreSVG 232.5-->
<!DOCTYPE svg
PUBLIC "-//W3C//DTD SVG 1.1//EN"
       "http://www.w3.org/Graphics/SVG/1.1/DTD/svg11.dtd">
<svg version="1.1" xmlns="http://www.w3.org/2000/svg" xmlns:xlink="http://www.w3.org/1999/xlink" width="109.998" height="83.086">
 <g>
  <rect height="83.086" opacity="0" width="109.998" x="0" y="0"/>
  <path d="M38.999 83.0371L70.9985 83.0371C98.335 83.0371 109.998 70.3179 109.998 44.8838L109.998 13.8565C109.998 4.76856 105.192 0 96.0064 0L13.9912 0C4.79053 0 0 4.72315 0 13.8565L0 44.8838C0 70.3179 11.6475 83.0371 38.999 83.0371ZM39.0293 76.9922C15.6797 76.9922 6.04494 66.5737 6.04494 45.1602L6.04494 14.1899C6.04494 8.80763 8.81105 6.04494 14.1563 6.04494L95.8413 6.04494C101.028 6.04494 103.953 8.80763 103.953 14.1899L103.953 45.1602C103.953 66.5737 94.3027 76.9922 70.9194 76.9922Z" fill="#000000" fill-opacity="0.85"/>
  <path d="M46.9795 61.1548L66.3926 61.1548C67.8545 61.1548 69.1026 60.0938 69.1026 58.5459C69.1026 56.9981 67.8242 55.8545 66.3926 55.8545L50.1426 55.8545L50.1426 24.7456C50.1426 22.7446 48.8643 21.3618 46.9795 21.3618C45.0796 21.3618 43.9512 22.7783 43.9512 24.7456L43.9512 57.8384C43.9512 59.7905 45.0947 61.1548 46.9795 61.1548Z" fill="#000000" fill-opacity="0.85"/>
 </g>
</svg>
