<?xml version="1.0" encoding="UTF-8"?>
<!--Generator: Apple Native CoreSVG 232.5-->
<!DOCTYPE svg
PUBLIC "-//W3C//DTD SVG 1.1//EN"
       "http://www.w3.org/Graphics/SVG/1.1/DTD/svg11.dtd">
<svg version="1.1" xmlns="http://www.w3.org/2000/svg" xmlns:xlink="http://www.w3.org/1999/xlink" width="109.185" height="92.4688">
 <g>
  <rect height="92.4688" opacity="0" width="109.185" x="0" y="0"/>
  <path d="M54.6016 77.8989C61.3077 77.8989 67.5496 77.2599 73.207 76.0274L73.207 78.3902C73.207 87.2202 66.2818 92.4688 54.6016 92.4688C42.9028 92.4688 35.9624 87.2202 35.9624 78.3902L35.9624 76.0218C41.6285 77.258 47.8819 77.8989 54.6016 77.8989Z" fill="#000000" fill-opacity="0.85"/>
  <path d="M54.6016 72.8858C84.9341 72.8858 104.171 59.3941 104.171 40.835C104.171 22.3096 84.9004 8.81787 54.5191 8.81787C24.2505 8.81787 5.04688 22.3096 5.04688 40.835C5.04688 59.3941 24.2505 72.8858 54.6016 72.8858ZM54.6016 66.5005C29.0366 66.5005 11.7202 55.9946 11.7202 40.835C11.7202 25.6753 29.0366 15.2031 54.5191 15.2031C80.1143 15.2031 97.4829 25.6753 97.4829 40.835C97.4829 55.9946 80.148 66.5005 54.6016 66.5005Z" fill="#000000" fill-opacity="0.85"/>
  <path d="M47.3872 55.876L62.8047 55.876C64.2852 55.876 65.3159 54.8604 65.3159 53.417C65.3159 51.9063 64.2852 50.9092 62.8047 50.9092L50.1983 50.9092L50.1983 27.2378C50.1983 25.3867 49.0698 24.2549 47.3872 24.2549C45.7383 24.2549 44.6065 25.4204 44.6065 27.2378L44.6065 52.8931C44.6065 54.6768 45.7046 55.876 47.3872 55.876Z" fill="#000000" fill-opacity="0.85"/>
 </g>
</svg>
