<?xml version="1.0" encoding="UTF-8"?>
<!--Generator: Apple Native CoreSVG 232.5-->
<!DOCTYPE svg
PUBLIC "-//W3C//DTD SVG 1.1//EN"
       "http://www.w3.org/Graphics/SVG/1.1/DTD/svg11.dtd">
<svg version="1.1" xmlns="http://www.w3.org/2000/svg" xmlns:xlink="http://www.w3.org/1999/xlink" width="140.04" height="107.759">
 <g>
  <rect height="107.759" opacity="0" width="140.04" x="0" y="0"/>
  <path d="M123.875 53.855C123.875 83.5742 99.739 107.643 70.0198 107.643C46.2761 107.643 26.0987 92.2608 18.999 70.8882C21.1267 71.1925 23.2279 70.7158 24.929 69.6167C31.3781 88.2936 49.0893 101.613 70.0198 101.613C96.49 101.613 117.845 80.3101 117.845 53.855C117.845 27.3696 96.4749 6.0298 70.0198 6.0298C49.1103 6.0298 31.3643 19.3948 24.917 38.1209C23.2154 37.0241 21.1148 36.5466 18.981 36.8602C26.072 15.4333 46.279 0 70.0198 0C99.7239 0 123.875 24.1055 123.875 53.855Z" fill="#000000" fill-opacity="0.85"/>
  <path d="M17.9392 43.2349L6.90162 51.4907C5.24293 52.7217 5.30689 54.9883 6.90162 56.2041L17.9729 64.5088C20.1521 66.1441 23.074 65.2212 23.074 62.3599L23.074 45.3838C23.074 42.5899 20.1707 41.5659 17.9392 43.2349Z" fill="#000000" fill-opacity="0.85"/>
  <path d="M70.0198 92.1387C91.1746 92.1387 108.337 75.0098 108.337 53.855C108.337 32.6514 91.1746 15.5376 70.0198 15.5376C48.8499 15.5376 31.7361 32.6514 31.7361 53.855C31.7361 75.0098 48.8499 92.1387 70.0198 92.1387ZM70.0198 86.0938C52.1629 86.0938 37.7659 71.7119 37.7659 53.855C37.7659 35.9644 52.1629 21.5825 70.0198 21.5825C87.9104 21.5825 102.292 35.9644 102.292 53.855C102.292 71.7119 87.9104 86.0938 70.0198 86.0938ZM62.3577 72.5108L80.8728 72.5108C82.2674 72.5108 83.4295 71.5171 83.4295 70.0552C83.4295 68.6235 82.2522 67.5322 80.8728 67.5322L65.3186 67.5322L65.3186 37.8301C65.3186 35.9639 64.1414 34.6821 62.3577 34.6821C60.5926 34.6821 59.5652 35.9976 59.5652 37.8301L59.5652 69.3814C59.5652 71.1987 60.6077 72.5108 62.3577 72.5108Z" fill="#000000" fill-opacity="0.85"/>
 </g>
</svg>
