<?xml version="1.0" encoding="UTF-8"?>
<!--Generator: Apple Native CoreSVG 232.5-->
<!DOCTYPE svg
PUBLIC "-//W3C//DTD SVG 1.1//EN"
       "http://www.w3.org/Graphics/SVG/1.1/DTD/svg11.dtd">
<svg version="1.1" xmlns="http://www.w3.org/2000/svg" xmlns:xlink="http://www.w3.org/1999/xlink" width="107.643" height="140.002">
 <g>
  <rect height="140.002" opacity="0" width="107.643" x="0" y="0"/>
  <path d="M107.643 69.9766C107.643 93.7574 92.1985 113.941 70.7918 121.021C71.1127 118.883 70.6354 116.775 69.5307 115.07C88.2307 108.636 101.613 90.9234 101.613 69.9766C101.613 43.4913 80.2427 22.1514 53.8213 22.1514C27.3511 22.1514 6.04494 43.5216 6.04494 69.9766C6.04494 90.8979 19.3698 108.609 38.0589 115.055C36.9426 116.758 36.4544 118.864 36.7582 120.989C15.3768 113.879 0 93.6906 0 69.9766C0 40.2725 24.0718 16.1216 53.8213 16.1216C83.522 16.1216 107.643 40.2423 107.643 69.9766Z" fill="#000000" fill-opacity="0.85"/>
  <path d="M45.3164 116.922C42.4214 116.922 41.5474 119.844 43.1338 122.024L51.4722 133.095C52.688 134.705 54.9209 134.723 56.1856 133.095L64.4229 122.057C66.1104 119.811 65.0865 116.922 62.2588 116.922Z" fill="#000000" fill-opacity="0.85"/>
  <path d="M53.8213 31.6593C32.6665 31.6593 15.5376 48.8067 15.5376 69.9766C15.5376 91.1651 32.6665 108.26 53.8213 108.26C74.9912 108.26 92.105 91.1651 92.105 69.9766C92.105 48.8067 74.9912 31.6593 53.8213 31.6593ZM53.8213 37.7042C71.6782 37.7042 86.0752 52.086 86.0752 69.9766C86.0752 87.8336 71.6782 102.215 53.8213 102.215C35.9307 102.215 21.5825 87.8336 21.5825 69.9766C21.5825 52.086 35.9307 37.7042 53.8213 37.7042ZM46.1255 88.6324L64.6406 88.6324C66.0352 88.6324 67.1973 87.6388 67.1973 86.1768C67.1973 84.7452 66.02 83.6539 64.6406 83.6539L49.0865 83.6539L49.0865 53.9518C49.0865 52.0855 47.9092 50.8038 46.1255 50.8038C44.3604 50.8038 43.333 52.1192 43.333 53.9518L43.333 85.503C43.333 87.3204 44.3906 88.6324 46.1255 88.6324Z" fill="#000000" fill-opacity="0.85"/>
 </g>
</svg>
