<?xml version="1.0" encoding="UTF-8"?>
<!--Generator: Apple Native CoreSVG 232.5-->
<!DOCTYPE svg
PUBLIC "-//W3C//DTD SVG 1.1//EN"
       "http://www.w3.org/Graphics/SVG/1.1/DTD/svg11.dtd">
<svg version="1.1" xmlns="http://www.w3.org/2000/svg" xmlns:xlink="http://www.w3.org/1999/xlink" width="109.963" height="120.681">
 <g>
  <rect height="120.681" opacity="0" width="109.963" x="0" y="0"/>
  <path d="M54.9907 91.6831C61.7263 91.6831 67.9589 91.0452 73.5962 89.8362L73.5962 92.4961C73.5962 101.326 66.6709 106.575 54.9907 106.575C43.292 106.575 36.3516 101.326 36.3516 92.4961L36.3516 89.8318C41.9969 91.0437 48.2408 91.6831 54.9907 91.6831Z" fill="#000000" fill-opacity="0.85"/>
  <path d="M104.306 54.9409C104.306 72.1455 85.7984 86.0264 54.9907 86.0264C24.1494 86.0264 5.69044 72.1455 5.69044 54.9409C5.69044 37.77 24.1494 23.8892 54.9082 23.8892C85.7984 23.8892 104.306 37.77 104.306 54.9409ZM45.0142 41.0742L45.0142 67.2349C45.0142 69.0708 46.1611 70.3374 47.8775 70.3374L63.6016 70.3374C65.1309 70.3374 66.1802 69.2881 66.1802 67.7774C66.1802 66.2329 65.1309 65.2173 63.6016 65.2173L50.7744 65.2173L50.7744 41.0742C50.7744 39.2046 49.6123 38.0054 47.8775 38.0054C46.1797 38.0054 45.0142 39.2383 45.0142 41.0742Z" fill="#000000" fill-opacity="0.85"/>
  <path d="M43.7124 5.07911L52.9146 17.3779C54.1118 19.0181 56.375 19.0029 57.5571 17.3779L66.8115 5.07911C68.4922 2.88477 67.5728 0 64.6626 0L45.8091 0C43.0186 0 41.9795 2.81739 43.7124 5.07911Z" fill="#000000" fill-opacity="0.85"/>
 </g>
</svg>
