<?xml version="1.0" encoding="UTF-8"?>
<!--Generator: Apple Native CoreSVG 232.5-->
<!DOCTYPE svg
PUBLIC "-//W3C//DTD SVG 1.1//EN"
       "http://www.w3.org/Graphics/SVG/1.1/DTD/svg11.dtd">
<svg version="1.1" xmlns="http://www.w3.org/2000/svg" xmlns:xlink="http://www.w3.org/1999/xlink" width="109.998" height="83.086">
 <g>
  <rect height="83.086" opacity="0" width="109.998" x="0" y="0"/>
  <path d="M38.999 83.0371L70.9985 83.0371C98.335 83.0371 109.998 70.3179 109.998 44.8838L109.998 13.8565C109.998 4.76856 105.192 0 96.0064 0L13.9912 0C4.79053 0 0 4.72315 0 13.8565L0 44.8838C0 70.3179 11.6475 83.0371 38.999 83.0371ZM39.0293 76.9922C15.6797 76.9922 6.04494 66.5737 6.04494 45.1602L6.04494 14.1899C6.04494 8.80763 8.81105 6.04494 14.1563 6.04494L95.8413 6.04494C101.028 6.04494 103.953 8.80763 103.953 14.1899L103.953 45.1602C103.953 66.5737 94.3027 76.9922 70.9194 76.9922Z" fill="#000000" fill-opacity="0.85"/>
  <path d="M40.0469 61.3428L54.4087 61.3428C55.7022 61.3428 56.812 60.2178 56.812 58.9092C56.812 57.6157 55.7022 56.4907 54.4087 56.4907L42.9151 56.4907L42.9151 24.0894C42.9151 22.5449 41.6216 21.2363 40.1108 21.2363C38.5361 21.2363 37.2427 22.5449 37.2427 24.0894L37.2427 58.3584C37.2427 60.1992 38.2852 61.3428 40.0469 61.3428ZM69.1074 61.8159C70.6519 61.8159 71.9453 60.5073 71.9453 58.9141L71.9453 24.4346C71.9453 22.4556 70.6856 21.2481 68.7066 21.2481C67.0645 21.2481 65.7373 22.1441 64.7622 22.8867L58.8462 27.6309C58.1826 28.1597 57.6655 28.8755 57.6655 29.9214C57.6655 31.1475 58.4942 32.0215 59.7017 32.0215C60.3467 32.0215 60.7442 31.8413 61.1416 31.5264L66.2544 27.3985L66.2544 58.9141C66.2544 60.5073 67.5479 61.8159 69.1074 61.8159Z" fill="#000000" fill-opacity="0.85"/>
 </g>
</svg>
