<?xml version="1.0" encoding="UTF-8"?>
<!--Generator: Apple Native CoreSVG 232.5-->
<!DOCTYPE svg
PUBLIC "-//W3C//DTD SVG 1.1//EN"
       "http://www.w3.org/Graphics/SVG/1.1/DTD/svg11.dtd">
<svg version="1.1" xmlns="http://www.w3.org/2000/svg" xmlns:xlink="http://www.w3.org/1999/xlink" width="97.9595" height="97.9932">
 <g>
  <rect height="97.9932" opacity="0" width="97.9595" x="0" y="0"/>
  <path d="M48.9722 97.9443C75.8247 97.9443 97.9595 75.7759 97.9595 48.9722C97.9595 22.1348 75.791 0 48.9385 0C22.1348 0 0 22.1348 0 48.9722C0 75.7759 22.1685 97.9443 48.9722 97.9443ZM48.9722 91.6113C25.3501 91.6113 6.36671 72.5942 6.36671 48.9722C6.36671 25.3501 25.3164 6.31789 48.9385 6.31789C72.5605 6.31789 91.6265 25.3501 91.6265 48.9722C91.6265 72.5942 72.5942 91.6113 48.9722 91.6113Z" fill="#000000" fill-opacity="0.85"/>
  <path d="M33.9697 68.7324L48.3315 68.7324C49.625 68.7324 50.7349 67.6563 50.7349 66.2988C50.7349 65.0054 49.625 63.9292 48.3315 63.9292L36.8379 63.9292L36.8379 31.479C36.8379 29.9683 35.5444 28.6748 34.0337 28.6748C32.4927 28.6748 31.1655 29.9683 31.1655 31.479L31.1655 65.7969C31.1655 67.6226 32.208 68.7324 33.9697 68.7324ZM63.0303 69.2056C64.5747 69.2056 65.8682 67.9121 65.8682 66.3525L65.8682 31.8242C65.8682 29.8941 64.6084 28.6865 62.6294 28.6865C60.9873 28.6865 59.6602 29.5825 58.6851 30.3252L52.7691 35.0356C52.1055 35.5981 51.5884 36.314 51.5884 37.3262C51.5884 38.5523 52.4019 39.4448 53.6245 39.4448C54.2695 39.4448 54.667 39.2461 55.0645 38.9649L60.1773 34.8369L60.1773 66.3525C60.1773 67.9121 61.4707 69.2056 63.0303 69.2056Z" fill="#000000" fill-opacity="0.85"/>
 </g>
</svg>
