<?xml version="1.0" encoding="UTF-8"?>
<!--Generator: Apple Native CoreSVG 232.5-->
<!DOCTYPE svg
PUBLIC "-//W3C//DTD SVG 1.1//EN"
       "http://www.w3.org/Graphics/SVG/1.1/DTD/svg11.dtd">
<svg version="1.1" xmlns="http://www.w3.org/2000/svg" xmlns:xlink="http://www.w3.org/1999/xlink" width="97.9595" height="97.9932">
 <g>
  <rect height="97.9932" opacity="0" width="97.9595" x="0" y="0"/>
  <path d="M97.9595 48.9722C97.9595 75.7759 75.8247 97.9443 48.9722 97.9443C22.1685 97.9443 0 75.7759 0 48.9722C0 22.1348 22.1348 0 48.9385 0C75.791 0 97.9595 22.1348 97.9595 48.9722ZM58.4175 30.8789L52.7236 35.4985C52.0112 35.9785 51.543 36.728 51.543 37.6914C51.543 38.9175 52.3228 39.7764 53.5303 39.7764C54.1416 39.7764 54.5239 39.5962 54.9214 39.2813L59.8608 35.3115L59.8608 65.7803C59.8608 67.3584 61.1055 68.6182 62.6651 68.6182C64.1607 68.6182 65.439 67.3584 65.439 65.7803L65.439 32.3965C65.439 30.4815 64.1944 29.2891 62.2305 29.2891C60.6558 29.2891 59.3438 30.1699 58.4175 30.8789ZM31.6924 32.0664L31.6924 65.2583C31.6924 67.0503 32.7012 68.1787 34.4478 68.1787L48.3501 68.1787C49.6436 68.1787 50.7197 67.0689 50.7197 65.8091C50.7197 64.4819 49.6436 63.4058 48.3501 63.4058L37.252 63.4058L37.252 32.0664C37.252 30.5708 36.0073 29.311 34.4966 29.311C32.9858 29.311 31.6924 30.5708 31.6924 32.0664Z" fill="#000000" fill-opacity="0.85"/>
 </g>
</svg>
