<?xml version="1.0" encoding="UTF-8"?>
<!--Generator: Apple Native CoreSVG 232.5-->
<!DOCTYPE svg
PUBLIC "-//W3C//DTD SVG 1.1//EN"
       "http://www.w3.org/Graphics/SVG/1.1/DTD/svg11.dtd">
<svg version="1.1" xmlns="http://www.w3.org/2000/svg" xmlns:xlink="http://www.w3.org/1999/xlink" width="109.998" height="83.086">
 <g>
  <rect height="83.086" opacity="0" width="109.998" x="0" y="0"/>
  <path d="M38.999 0C11.6475 0 0 12.7192 0 38.1533L0 69.147C0 78.2988 4.79053 83.0371 13.9912 83.0371L96.0064 83.0371C105.192 83.0371 109.998 78.2349 109.998 69.147L109.998 38.1533C109.998 12.7192 98.335 0 70.9985 0ZM39.0293 6.04494L70.9194 6.04494C94.3027 6.04494 103.953 16.4634 103.953 37.8433L103.953 68.8472C103.953 74.2295 101.028 76.9922 95.8413 76.9922L14.1563 76.9922C8.81105 76.9922 6.04494 74.2295 6.04494 68.8472L6.04494 37.8433C6.04494 16.4634 15.6797 6.04494 39.0293 6.04494Z" fill="#000000" fill-opacity="0.85"/>
  <path d="M36.1543 61.3428L50.5498 61.3428C51.8433 61.3428 52.9346 60.2178 52.9346 58.9092C52.9346 57.6157 51.8433 56.4907 50.5498 56.4907L39.0562 56.4907L39.0562 24.0894C39.0562 22.5449 37.7627 21.2363 36.2183 21.2363C34.6773 21.2363 33.3838 22.5449 33.3838 24.0894L33.3838 58.3584C33.3838 60.1992 34.4077 61.3428 36.1543 61.3428ZM59.6465 61.3091L76.5142 61.3091C77.8902 61.3091 78.7979 60.3491 78.7979 58.958C78.7979 57.5146 77.8565 56.6069 76.5142 56.6069L64.0186 56.6069L64.0186 56.292L71.9766 45.6694C76.4844 39.8872 77.9561 36.3379 77.9561 32.1167C77.9561 25.7031 73.9668 20.8726 67.4404 20.8726C61.4024 20.8726 57.0596 26.0635 57.0596 31.2358C57.0596 32.585 57.8579 33.6729 59.4292 33.6729C60.7378 33.6729 61.5479 33.0464 61.8848 31.8018C62.7066 28.0308 64.1997 25.4922 67.437 25.4922C70.9268 25.4922 72.6777 28.7647 72.6777 32.3491C72.6777 36.1646 70.458 39.832 67.6582 43.5459L58.3633 55.9331C57.6172 56.8594 56.9619 57.8076 56.9619 58.9731C56.9619 60.3457 57.8848 61.3091 59.6465 61.3091Z" fill="#000000" fill-opacity="0.85"/>
 </g>
</svg>
