<?xml version="1.0" encoding="UTF-8"?>
<!--Generator: Apple Native CoreSVG 232.5-->
<!DOCTYPE svg
PUBLIC "-//W3C//DTD SVG 1.1//EN"
       "http://www.w3.org/Graphics/SVG/1.1/DTD/svg11.dtd">
<svg version="1.1" xmlns="http://www.w3.org/2000/svg" xmlns:xlink="http://www.w3.org/1999/xlink" width="84.9883" height="104.145">
 <g>
  <rect height="104.145" opacity="0" width="84.9883" x="0" y="0"/>
  <path d="M84.9883 13.8565L84.9546 90.3857C84.9546 99.0508 79.8423 104.141 71.0645 104.141L28.1597 104.141C10.9834 104.141 0 93.1577 0 75.9814L0 50.8042C0 44.3569 1.92969 39.2432 5.86817 35.6162L36.7275 7.24707C42.5518 1.88086 48.7061 0 56.1904 0L71.1655 0C79.5762 0 84.9883 5.3667 84.9883 13.8565ZM21.4634 44.1787L21.4634 79.1401C21.4634 81.0332 22.5395 82.1768 24.335 82.1768L39.0186 82.1768C40.3457 82.1768 41.4893 81.0669 41.4893 79.6758C41.4893 78.3486 40.3457 77.2388 39.0186 77.2388L27.3228 77.2388L27.3228 44.1787C27.3228 42.6006 25.9619 41.2734 24.3838 41.2734C22.7905 41.2734 21.4634 42.6006 21.4634 44.1787ZM45.6631 51.46C45.6631 52.8765 46.5439 53.9981 48.1489 53.9981C49.4761 53.9981 50.2861 53.3379 50.6568 52.0259C51.5122 48.1875 53.0054 45.6304 56.2949 45.6304C59.8672 45.6304 61.6182 48.9214 61.6182 52.6406C61.6182 56.5234 59.3647 60.292 56.5313 64.0732L47.0342 76.5986C46.2695 77.5923 45.6143 78.5894 45.6143 79.7886C45.6143 81.1611 46.5708 82.1431 48.3511 82.1431L65.5742 82.1431C67.0176 82.1431 67.9253 81.1831 67.9253 79.7734C67.9253 78.2476 66.9839 77.355 65.5742 77.355L52.8579 77.355L52.8579 77.0063L60.9844 66.249C65.5444 60.3135 67.0835 56.648 67.0835 52.3408C67.0835 45.8262 62.9595 40.8945 56.3135 40.8945C50.1558 40.8945 45.6631 46.2017 45.6631 51.46Z" fill="#000000" fill-opacity="0.85"/>
 </g>
</svg>
