<?xml version="1.0" encoding="UTF-8"?>
<!--Generator: Apple Native CoreSVG 232.5-->
<!DOCTYPE svg
PUBLIC "-//W3C//DTD SVG 1.1//EN"
       "http://www.w3.org/Graphics/SVG/1.1/DTD/svg11.dtd">
<svg version="1.1" xmlns="http://www.w3.org/2000/svg" xmlns:xlink="http://www.w3.org/1999/xlink" width="109.998" height="83.086">
 <g>
  <rect height="83.086" opacity="0" width="109.998" x="0" y="0"/>
  <path d="M109.998 38.1533L109.998 69.147C109.998 78.2349 105.192 83.0371 96.0064 83.0371L13.9912 83.0371C4.79053 83.0371 0 78.2988 0 69.147L0 38.1533C0 12.7192 11.6475 0 38.999 0L70.9985 0C98.335 0 109.998 12.7192 109.998 38.1533ZM32.875 23.7676L32.875 58.6802C32.875 60.5733 33.9175 61.7656 35.7466 61.7656L50.415 61.7656C51.7422 61.7656 52.8672 60.6069 52.8672 59.2647C52.8672 57.9375 51.7422 56.7788 50.415 56.7788L38.7344 56.7788L38.7344 23.7676C38.7344 22.1558 37.3735 20.8286 35.7954 20.8286C34.2022 20.8286 32.875 22.1558 32.875 23.7676ZM57.0596 31.0337C57.0596 32.4165 57.8916 33.5381 59.5303 33.5381C60.8574 33.5381 61.6675 32.8779 62.0532 31.5996C62.9087 27.7764 64.3867 25.2041 67.6914 25.2041C71.2149 25.2041 72.9995 28.5103 72.9995 32.1958C72.9995 36.0635 70.7124 39.832 67.8941 43.6133L58.4307 56.1875C57.6509 57.1475 56.9619 58.1294 56.9619 59.3286C56.9619 60.7349 57.9185 61.7319 59.7476 61.7319L76.9556 61.7319C78.3804 61.7319 79.3067 60.7232 79.3067 59.3135C79.3067 57.8364 78.3467 56.895 76.9556 56.895L64.2393 56.895L64.2393 56.5464L72.332 45.8042C76.9409 39.8535 78.4463 36.2368 78.4463 31.9297C78.4463 25.3814 74.356 20.4497 67.6948 20.4497C61.5371 20.4497 57.0596 25.7417 57.0596 31.0337Z" fill="#000000" fill-opacity="0.85"/>
 </g>
</svg>
