<?xml version="1.0" encoding="UTF-8"?>
<!--Generator: Apple Native CoreSVG 232.5-->
<!DOCTYPE svg
PUBLIC "-//W3C//DTD SVG 1.1//EN"
       "http://www.w3.org/Graphics/SVG/1.1/DTD/svg11.dtd">
<svg version="1.1" xmlns="http://www.w3.org/2000/svg" xmlns:xlink="http://www.w3.org/1999/xlink" width="97.9595" height="97.9932">
 <g>
  <rect height="97.9932" opacity="0" width="97.9595" x="0" y="0"/>
  <path d="M97.9595 48.9722C97.9595 75.7759 75.8247 97.9443 48.9722 97.9443C22.1685 97.9443 0 75.7759 0 48.9722C0 22.1348 22.1348 0 48.9385 0C75.791 0 97.9595 22.1348 97.9595 48.9722ZM26.8164 31.1572L26.8164 66.1187C26.8164 68.0117 27.874 69.1553 29.7031 69.1553L44.3716 69.1553C45.6987 69.1553 46.8237 68.0454 46.8237 66.6543C46.8237 65.3271 45.6987 64.2173 44.3716 64.2173L32.6909 64.2173L32.6909 31.1572C32.6909 29.5942 31.3301 28.252 29.752 28.252C28.1587 28.252 26.8164 29.5942 26.8164 31.1572ZM51.0161 38.4385C51.0161 39.855 51.8482 40.9766 53.4868 40.9766C54.814 40.9766 55.624 40.3164 56.0098 39.0044C56.8653 35.166 58.3433 32.6426 61.648 32.6426C65.1714 32.6426 66.9561 35.8999 66.9561 39.6191C66.9561 43.502 64.6689 47.2705 61.8506 51.0518L52.3872 63.5771C51.6074 64.5859 50.9185 65.5679 50.9185 66.7671C50.9185 68.1733 51.875 69.1216 53.7041 69.1216L70.9121 69.1216C72.3369 69.1216 73.2632 68.1616 73.2632 66.752C73.2632 65.2412 72.3032 64.3335 70.9121 64.3335L58.1958 64.3335L58.1958 63.9849L66.2886 53.2275C70.8823 47.292 72.4365 43.6416 72.4365 39.3193C72.4365 32.8047 68.3125 27.8882 61.6514 27.8882C55.4937 27.8882 51.0161 33.1802 51.0161 38.4385Z" fill="#000000" fill-opacity="0.85"/>
 </g>
</svg>
