<?xml version="1.0" encoding="UTF-8"?>
<!--Generator: Apple Native CoreSVG 232.5-->
<!DOCTYPE svg
PUBLIC "-//W3C//DTD SVG 1.1//EN"
       "http://www.w3.org/Graphics/SVG/1.1/DTD/svg11.dtd">
<svg version="1.1" xmlns="http://www.w3.org/2000/svg" xmlns:xlink="http://www.w3.org/1999/xlink" width="112.488" height="85.625">
 <g>
  <rect height="85.625" opacity="0" width="112.488" x="0" y="0"/>
  <path d="M36.4937 85.5274L75.979 85.5274C103.315 85.5274 112.488 75.332 112.488 50.2534L112.488 35.3076C112.488 10.229 103.315 0 75.979 0L36.4937 0C9.15723 0 0 10.229 0 35.3076L0 50.2534C0 75.332 9.15723 85.5274 36.4937 85.5274ZM36.4937 79.4976C13.1895 79.4976 6.04494 71.603 6.04494 50.2534L6.04494 35.3076C6.04494 13.9732 13.1895 6.04494 36.4937 6.04494L75.979 6.04494C99.2832 6.04494 106.443 13.9732 106.443 35.3076L106.443 50.2534C106.443 71.603 99.2832 79.4976 75.979 79.4976Z" fill="#000000" fill-opacity="0.85"/>
  <path d="M36.0664 62.5483L50.4619 62.5483C51.7554 62.5483 52.8652 61.4722 52.8652 60.1148C52.8652 58.8213 51.7554 57.7451 50.4619 57.7451L38.9683 57.7451L38.9683 25.2949C38.9683 23.7842 37.6748 22.4907 36.1304 22.4907C34.5894 22.4907 33.2959 23.7842 33.2959 25.2949L33.2959 59.6128C33.2959 61.4385 34.3535 62.5483 36.0664 62.5483ZM73.7764 63.0889C75.2686 63.0889 76.4458 62.0869 76.4458 60.2881L76.4458 54.1943L78.7183 54.1943C80.2593 54.1943 81.002 53.2158 81.002 51.8433C81.002 50.5532 80.2476 49.5747 78.7183 49.5747L76.4458 49.5747L76.4458 26.6861C76.4458 23.8467 74.5816 22.4116 72.1494 22.4116C69.3789 22.4116 68.0855 23.8818 66.9453 26.334L57.0127 47.1108C56.334 48.6367 56.0864 49.6943 56.0864 50.9204C56.0864 52.8555 57.395 54.1943 59.4243 54.1943L71.0733 54.1943L71.0733 60.2881C71.0733 62.3008 72.4561 63.0889 73.7764 63.0889ZM71.1743 49.6758L60.9722 49.6758L60.9722 49.4097L70.979 27.6861L71.1743 27.6861Z" fill="#000000" fill-opacity="0.85"/>
 </g>
</svg>
