<?xml version="1.0" encoding="UTF-8"?>
<!--Generator: Apple Native CoreSVG 232.5-->
<!DOCTYPE svg
PUBLIC "-//W3C//DTD SVG 1.1//EN"
       "http://www.w3.org/Graphics/SVG/1.1/DTD/svg11.dtd">
<svg version="1.1" xmlns="http://www.w3.org/2000/svg" xmlns:xlink="http://www.w3.org/1999/xlink" width="97.9595" height="97.9932">
 <g>
  <rect height="97.9932" opacity="0" width="97.9595" x="0" y="0"/>
  <path d="M97.9595 49.021C97.9595 75.8584 75.8247 97.9932 48.9722 97.9932C22.1685 97.9932 0 75.8584 0 49.021C0 22.2173 22.1348 0.0488281 48.9385 0.0488281C75.791 0.0488281 97.9595 22.2173 97.9595 49.021ZM71.3755 33.794L66.9224 37.4912C65.6206 36.3579 64.5767 36.252 63.7583 36.6275C59.2666 38.9033 54.0454 39.8599 48.9722 39.8599C43.9141 39.8599 38.6777 38.9033 34.1675 36.6275C33.334 36.2031 32.3237 36.3276 31.0371 37.4912L26.584 33.794C25.6274 33.0361 24.457 32.9653 23.7295 33.8731C23.0845 34.7622 23.3018 35.9663 24.1943 36.6602L28.7603 40.44C26.9824 43.4873 25.7871 47.5044 25.3291 51.4844L19.9517 51.4878C18.7627 51.4878 18.0537 52.1968 18.0537 53.3335C18.0537 54.4365 18.7627 55.1792 19.9517 55.1792L25.1304 55.1792C25.1978 60.1997 26.3965 64.7085 28.4673 68.3941L23.9907 72.0996C23.0679 72.876 22.8506 74.0161 23.5747 74.8076C24.2383 75.749 25.4273 75.6968 26.3804 74.9356L30.5606 71.5078C34.0391 75.8062 38.9385 78.5523 44.8818 79.1939C46.7222 79.3403 47.5288 78.6602 47.5288 77.3501L47.5288 45.3618C47.5288 44.5669 48.1738 43.9707 48.9722 43.9707C49.7368 43.9707 50.3818 44.5669 50.3818 45.3618L50.3818 77.3501C50.3818 78.6602 51.2222 79.3403 53.0625 79.1939C58.9722 78.5523 63.9053 75.8062 67.3501 71.5078L71.564 74.9356C72.5171 75.6968 73.6724 75.749 74.3696 74.8076C75.0938 74.0161 74.8765 72.876 73.9536 72.0996L69.4434 68.3941C71.5479 64.7085 72.7466 60.1997 72.814 55.1792L77.959 55.1792C79.1816 55.1792 79.9209 54.4365 79.9209 53.3335C79.9209 52.1968 79.1968 51.4878 77.9741 51.4878L72.5816 51.4844C72.1572 47.5044 70.9282 43.4873 69.1992 40.44L73.75 36.6602C74.6089 35.9512 74.8599 34.7622 74.1812 33.8731C73.4385 32.9502 72.332 33.0361 71.3755 33.794ZM42.8564 63.7222C42.8564 66.3252 40.6104 68.4551 38.0562 68.4551C35.4683 68.4551 33.3198 66.3252 33.3198 63.7222C33.3198 61.1494 35.4683 58.9707 38.0562 58.9707C40.6104 58.9707 42.8564 61.1494 42.8564 63.7222ZM64.6211 63.7222C64.6211 66.3252 62.4912 68.4551 59.8848 68.4551C57.3491 68.4551 55.103 66.3252 55.103 63.7222C55.103 61.1494 57.3491 58.9707 59.8848 58.9707C62.4912 58.9707 64.6211 61.1494 64.6211 63.7222ZM41.5112 49.7319C41.5112 51.978 39.6406 53.9312 37.3643 53.9312C35.0845 53.9312 33.1499 51.978 33.1499 49.7319C33.1499 47.4404 35.0845 45.5816 37.3643 45.5816C39.6406 45.5816 41.5112 47.4707 41.5112 49.7319ZM64.8096 49.7319C64.8096 51.978 62.875 53.9312 60.5952 53.9312C58.334 53.9312 56.4146 51.978 56.4146 49.7319C56.4146 47.4707 58.334 45.5816 60.5952 45.5816C62.875 45.5816 64.8096 47.4404 64.8096 49.7319ZM60.3921 15.0435L57.6616 16.3008C55.5181 17.1914 54.2383 18.6934 54.457 20.7998L54.4873 21.1499C52.8223 20.6079 50.9688 20.3218 48.9722 20.3218C46.9419 20.3218 45.0884 20.6079 43.4234 21.1499L43.4873 20.7998C43.7061 18.7271 42.4566 17.2065 40.249 16.3008L37.5523 15.0435C35.2534 14.1089 34.0225 17.6455 36.2388 18.3628L38.7822 19.4365C39.8901 19.854 40.2051 20.4468 40.0737 21.4048L39.9155 22.6367C36.499 24.6841 34.5576 27.8579 34.5576 31.4946C34.5576 32.9629 35.0796 33.9463 36.7769 34.7612C39.7588 36.1587 44.2847 37.0039 48.9722 37.0039C53.626 37.0039 58.1519 36.1587 61.1338 34.7612C62.8311 33.9463 63.353 32.9629 63.353 31.4946C63.353 27.8579 61.4116 24.6841 58.0288 22.6367L57.8706 21.4048C57.7056 20.4468 58.0205 19.854 59.1621 19.4365L61.6719 18.3628C63.9219 17.6455 62.6909 14.1089 60.3921 15.0435Z" fill="#000000" fill-opacity="0.85"/>
 </g>
</svg>
