<?xml version="1.0" encoding="UTF-8"?>
<!--Generator: Apple Native CoreSVG 232.5-->
<!DOCTYPE svg
PUBLIC "-//W3C//DTD SVG 1.1//EN"
       "http://www.w3.org/Graphics/SVG/1.1/DTD/svg11.dtd">
<svg version="1.1" xmlns="http://www.w3.org/2000/svg" xmlns:xlink="http://www.w3.org/1999/xlink" width="107.938" height="112.699">
 <g>
  <rect height="112.699" opacity="0" width="107.938" x="0" y="0"/>
  <path d="M21.4482 98.6624L14.1602 104.706C12.6831 105.902 10.8726 106.037 9.70703 104.578C8.51465 103.169 8.91553 101.385 10.3403 100.174L18.1482 93.7535C19.1151 95.5126 20.2228 97.1472 21.4482 98.6624ZM97.5796 100.174C99.023 101.385 99.4238 103.169 98.2466 104.578C97.0659 106.037 95.2217 105.902 93.7783 104.706L86.48 98.6765C87.7088 97.1573 88.8198 95.5187 89.7894 93.7549ZM12.4471 64.1527C12.2371 65.9683 12.1333 67.7603 12.1333 69.4924C12.1333 69.6788 12.1342 69.8647 12.1535 70.0412L3.18995 70.0554C1.21436 70.0554 0 68.9084 0 67.1013C0 65.3244 1.21436 64.1286 3.12598 64.1286ZM107.938 67.1013C107.938 68.9084 106.69 70.0554 104.749 70.0554L95.785 70.0412C95.8043 69.8647 95.8052 69.6788 95.8052 69.4924C95.8052 67.7603 95.7014 65.9683 95.4914 64.1527L104.813 64.1286C106.69 64.1286 107.938 65.3244 107.938 67.1013ZM14.4883 33.1096L22.2107 39.5252C20.9285 40.8106 19.7384 42.4125 18.6652 44.2541L10.7173 37.6721C9.32275 36.4763 8.87305 34.6775 10.0049 33.2038C11.2007 31.7756 13.0601 31.8801 14.4883 33.1096ZM97.9336 33.2038C99.0655 34.6775 98.6157 36.4763 97.2212 37.6721L89.2733 44.2541C88.2001 42.4125 87.01 40.8106 85.7278 39.5252L93.4502 33.1096C94.8784 31.8801 96.7378 31.7756 97.9336 33.2038Z" fill="#000000" fill-opacity="0.85"/>
  <path d="M85.6875 39.4812C91.7676 45.5525 95.8052 58.6882 95.8052 69.4924C95.8052 93.1672 81.9785 110.033 61.1641 112.386C57.9195 112.716 56.5015 111.499 56.5015 109.172L56.5015 53.1965C56.5015 51.802 55.3545 50.6736 53.96 50.6736C52.5654 50.6736 51.437 51.802 51.437 53.1965L51.437 109.172C51.437 111.499 50.019 112.716 46.7744 112.386C25.96 110.033 12.1333 93.1672 12.1333 69.4924C12.1333 58.6882 16.1709 45.5525 22.251 39.4812C24.7285 37.1452 26.5234 37.0964 28.0913 37.802C35.9385 41.7361 45.0391 43.469 53.96 43.469C62.9146 43.469 72 41.7361 79.8472 37.802C81.4151 37.0964 83.21 37.1452 85.6875 39.4812ZM31.2676 93.363C31.2676 96.2961 33.6299 98.6584 36.5781 98.6584C39.5449 98.6584 41.9072 96.2961 41.9072 93.363C41.9072 90.4451 39.5449 88.0525 36.5781 88.0525C33.6299 88.0525 31.2676 90.4451 31.2676 93.363ZM66.0313 93.363C66.0313 96.2961 68.3936 98.6584 71.3604 98.6584C74.3086 98.6584 76.6709 96.2961 76.6709 93.363C76.6709 90.4451 74.3086 88.0525 71.3604 88.0525C68.3936 88.0525 66.0313 90.4451 66.0313 93.363ZM23.2647 73.9895C23.2647 78.0305 26.5059 81.2717 30.4829 81.2717C34.4414 81.2717 37.7163 78.0305 37.7163 73.9895C37.7163 70.0613 34.4414 66.8201 30.4829 66.8201C26.5059 66.8201 23.2647 70.0613 23.2647 73.9895ZM70.2222 73.9895C70.2222 78.0305 73.4971 81.2717 77.4556 81.2717C81.4478 81.2717 84.6738 78.0305 84.6738 73.9895C84.6738 70.0613 81.4478 66.8201 77.4556 66.8201C73.4971 66.8201 70.2222 70.0613 70.2222 73.9895ZM29.7451 54.3855C29.7451 57.7244 32.5132 60.6086 35.9346 60.6086C39.356 60.6086 42.1426 57.7732 42.1426 54.3855C42.1426 50.9641 39.356 48.1926 35.9346 48.1926C32.5132 48.1926 29.7451 50.9641 29.7451 54.3855ZM65.7959 54.3855C65.7959 57.7732 68.5825 60.6086 72.0191 60.6086C75.4253 60.6086 78.1934 57.7244 78.1934 54.3855C78.1934 50.9641 75.4253 48.1926 72.0191 48.1926C68.5825 48.1926 65.7959 50.9641 65.7959 54.3855Z" fill="#000000" fill-opacity="0.85"/>
  <path d="M28.6982 28.7116C28.6982 31.2575 29.6782 33.051 32.6065 34.4519C37.8565 36.927 45.7803 38.4558 53.96 38.4558C62.1582 38.4558 70.0972 36.927 75.332 34.4519C78.2603 33.051 79.2403 31.2575 79.2403 28.7116C79.2403 17.6213 68.9678 9.15207 53.96 9.15207C38.9858 9.15207 28.6982 17.6213 28.6982 28.7116ZM31.9155 5.468L36.2197 7.38499C38.2588 8.20823 39.0283 9.36155 38.6831 11.1311L38.0972 14.0451L43.6704 14.0114L44.103 11.2033C44.6553 7.08762 42.7759 4.10177 38.5474 2.40793L33.9029 0.224826C30.189-1.16287 28.333 4.27904 31.9155 5.468ZM76.023 5.468C79.6055 4.27904 77.7495-1.16287 74.0356 0.224826L69.3911 2.40793C65.1626 4.10177 63.2832 7.08762 63.8355 11.2033L64.2681 14.0114L69.8413 14.0451L69.2554 11.1311C68.9102 9.36155 69.6797 8.20823 71.7188 7.38499Z" fill="#000000" fill-opacity="0.85"/>
 </g>
</svg>
