<?xml version="1.0" encoding="UTF-8"?>
<!--Generator: Apple Native CoreSVG 232.5-->
<!DOCTYPE svg
PUBLIC "-//W3C//DTD SVG 1.1//EN"
       "http://www.w3.org/Graphics/SVG/1.1/DTD/svg11.dtd">
<svg version="1.1" xmlns="http://www.w3.org/2000/svg" xmlns:xlink="http://www.w3.org/1999/xlink" width="70.7906" height="115.844">
 <g>
  <rect height="115.844" opacity="0" width="70.7906" x="0" y="0"/>
  <path d="M35.4046 64.0835C45.8709 64.0835 55.9334 63.4942 63.7435 62.3457C69.9823 61.396 72.0448 56.9336 70.056 50.5415L57.5589 9.58497C55.5667 3.06299 50.5701 0 43.6253 0L27.1653 0C20.2205 0 15.2239 3.06299 13.2166 9.58497L0.734666 50.5415C-1.26924 56.9336 0.82353 61.396 7.04717 62.3457C14.8572 63.4942 24.9046 64.0835 35.4046 64.0835ZM35.4046 58.48C26.5565 58.48 18.2283 58.0068 8.9793 56.9629C6.07012 56.6397 5.41388 54.7441 6.34991 51.5859L18.367 11.6148C19.5794 7.54493 22.762 5.5547 27.1653 5.5547L43.6253 5.5547C48.0135 5.5547 51.2112 7.54493 52.4573 11.6148L64.4407 51.5859C65.3616 54.7441 64.7054 56.6397 61.8113 56.9629C52.5472 58.0068 44.2342 58.48 35.4046 58.48ZM32.3729 62.0186L32.3729 112.257L38.4178 112.257L38.4178 62.0186ZM14.658 115.278L56.1326 115.278C57.576 115.278 58.5545 114.266 58.5545 112.771C58.5545 109.877 56.2386 107.743 52.4778 107.743L18.3128 107.743C14.5521 107.743 12.2698 109.877 12.2698 112.771C12.2698 114.266 13.2146 115.278 14.658 115.278Z" fill="#000000" fill-opacity="0.85"/>
 </g>
</svg>
