<?xml version="1.0" encoding="UTF-8"?>
<!--Generator: Apple Native CoreSVG 232.5-->
<!DOCTYPE svg
PUBLIC "-//W3C//DTD SVG 1.1//EN"
       "http://www.w3.org/Graphics/SVG/1.1/DTD/svg11.dtd">
<svg version="1.1" xmlns="http://www.w3.org/2000/svg" xmlns:xlink="http://www.w3.org/1999/xlink" width="89.3262" height="113.378">
 <g>
  <rect height="113.378" opacity="0" width="89.3262" x="0" y="0"/>
  <path d="M49.253 61.0816L87.211 23.1236C91.1114 19.2568 89.274 13.5664 84.1446 11.9717C74.0171 8.73389 63.6973 8.03662 51.7915 8.75049L50.1416 6.95752C45.1944 1.67187 38.041 1.35547 32.7066 6.56202C27.4849 11.9453 27.8164 19.2183 33.1021 24.0308L34.8799 25.6958C34.1812 37.5679 34.8633 47.8203 38.0488 57.9815C39.6773 63.1782 45.3677 65.0156 49.253 61.0816ZM45.4785 57.2583C44.6065 58.1455 43.6353 57.9268 42.9517 55.7109C40.0845 46.6362 39.5489 37.0357 40.3638 25.4717C40.416 24.1177 39.8838 22.9185 38.8902 22.0259L36.7266 20.0728C33.7349 17.3066 33.437 13.5757 36.5147 10.3516C39.7388 7.2588 43.4361 7.5381 46.2359 10.5972L48.2041 12.7608C49.1153 13.7544 50.3819 14.2866 51.8032 14.1856C63.1988 13.4531 72.833 13.9888 81.9077 16.8897C84.0225 17.5733 84.2412 18.4956 83.4365 19.3154ZM66.6182 55.8623C75.0425 55.8321 81.9463 48.9619 81.9463 40.5713C81.9463 36.4141 80.2559 32.479 77.2671 29.5474L74.3233 34.6577C75.7202 36.2368 76.5264 38.3174 76.5264 40.5713C76.5264 46.0195 72.0327 50.4458 66.6182 50.4609C64.3491 50.4609 62.2349 49.6397 60.6558 48.2461L55.938 51.5454C58.7837 54.3589 62.5991 55.8623 66.6182 55.8623ZM32.9458 10.8906L36.8247 6.7002L31.1402 1.06446C30.0083-0.0371099 28.2617-0.0673831 27.1299 1.06446C26.0317 2.14747 25.9981 3.90919 27.1299 5.05616ZM7.72999 64.2954L38.1538 36.2862L36.1079 30.0234L3.61865 59.9297ZM6.25489 68.0703C9.76125 68.0703 12.5098 65.3555 12.5098 61.8154C12.5098 58.3394 9.74611 55.5606 6.25489 55.5606C2.74512 55.5606 0 58.3394 0 61.8154C0 65.3555 2.71485 68.0703 6.25489 68.0703ZM25.5493 85.2832L29.814 81.0186L7.57472 58.8804L3.32861 63.1113ZM26.8779 89.6651C30.418 89.6651 33.1328 87.085 33.1328 83.4102C33.1328 79.9341 30.3355 77.1553 26.8779 77.1553C23.3682 77.1553 20.6231 79.9341 20.6231 83.4102C20.6231 86.9502 23.3379 89.6651 26.8779 89.6651ZM23.8462 108.052L29.876 108.052L29.876 83.8628L23.8462 83.8628ZM5.73633 113.378L52.543 113.378C53.9864 113.378 54.9649 112.332 54.9649 110.852C54.9649 107.992 52.5479 105.858 48.585 105.858L9.67921 105.858C5.73145 105.858 3.31445 107.992 3.31445 110.852C3.31445 112.332 4.29296 113.378 5.73633 113.378Z" fill="#000000" fill-opacity="0.85"/>
 </g>
</svg>
