<?xml version="1.0" encoding="UTF-8"?>
<!--Generator: Apple Native CoreSVG 232.5-->
<!DOCTYPE svg
PUBLIC "-//W3C//DTD SVG 1.1//EN"
       "http://www.w3.org/Graphics/SVG/1.1/DTD/svg11.dtd">
<svg version="1.1" xmlns="http://www.w3.org/2000/svg" xmlns:xlink="http://www.w3.org/1999/xlink" width="88.4092" height="73.4395">
 <g>
  <rect height="73.4395" opacity="0" width="88.4092" x="0" y="0"/>
  <path d="M0 70.4077C0 72.0566 1.34912 73.4395 2.99805 73.4395C4.68068 73.4395 6.04494 72.0566 6.04494 70.4077L6.04494 3.12598C6.04494 1.47705 4.68068 0.127929 2.99805 0.127929C1.34912 0.127929 0 1.47705 0 3.12598ZM82.3643 70.4077C82.3643 72.0566 83.7471 73.4395 85.396 73.4395C87.0601 73.4395 88.4092 72.0566 88.4092 70.4077L88.4092 3.12598C88.4092 1.47705 87.0601 0.127929 85.396 0.127929C83.7471 0.127929 82.3643 1.47705 82.3643 3.12598Z" fill="#000000" fill-opacity="0.85"/>
 </g>
</svg>
