<?xml version="1.0" encoding="UTF-8"?>
<!--Generator: Apple Native CoreSVG 232.5-->
<!DOCTYPE svg
PUBLIC "-//W3C//DTD SVG 1.1//EN"
       "http://www.w3.org/Graphics/SVG/1.1/DTD/svg11.dtd">
<svg version="1.1" xmlns="http://www.w3.org/2000/svg" xmlns:xlink="http://www.w3.org/1999/xlink" width="136.809" height="106.247">
 <g>
  <rect height="106.247" opacity="0" width="136.809" x="0" y="0"/>
  <path d="M24.852 20.9947C22.5522 21.5729 21.4082 23.2955 21.4082 26.1813L21.4082 82.17L85.9531 82.17L95.4094 91.6378L4.68507 91.6378C2.06641 91.6378 0 89.5411 0 86.9039C0 84.2516 2.06641 82.17 4.68507 82.17L15.3633 82.17L15.3633 24.6954C15.3633 20.3888 16.9422 17.4534 19.8082 15.9448ZM121.446 24.6954L121.446 82.17L132.124 82.17C134.743 82.17 136.809 84.2516 136.809 86.9039C136.809 89.5411 134.743 91.6378 132.124 91.6378L117.889 91.6378L108.432 82.17L115.416 82.17L115.416 26.1813C115.416 22.5567 113.596 20.7672 109.972 20.7672L47.1038 20.7672L41.0662 14.7223L111.42 14.7223C117.965 14.7223 121.446 18.1017 121.446 24.6954Z" fill="#000000" fill-opacity="0.85"/>
  <path d="M111.193 100.333C112.325 101.514 114.191 101.514 115.319 100.333C116.481 99.2013 116.485 97.3873 115.353 96.2066L25.313 6.05721C24.1963 4.94051 22.3301 4.84627 21.1528 6.05721C20.0059 7.15536 20.0059 9.05185 21.1528 10.1837Z" fill="#000000" fill-opacity="0.85"/>
 </g>
</svg>
