<?xml version="1.0" encoding="UTF-8"?>
<!--Generator: Apple Native CoreSVG 232.5-->
<!DOCTYPE svg
PUBLIC "-//W3C//DTD SVG 1.1//EN"
       "http://www.w3.org/Graphics/SVG/1.1/DTD/svg11.dtd">
<svg version="1.1" xmlns="http://www.w3.org/2000/svg" xmlns:xlink="http://www.w3.org/1999/xlink" width="107.333" height="97.9932">
 <g>
  <rect height="97.9932" opacity="0" width="107.333" x="0" y="0"/>
  <path d="M58.3575 97.9443C85.1612 97.9443 107.33 75.7759 107.33 48.9722C107.33 22.1348 85.1612 0 58.3575 0C31.5201 0 9.38533 22.1011 9.38533 48.9385L15.7032 48.9385C15.7032 25.3164 34.7354 6.35158 58.3575 6.35158C81.9796 6.35158 101.012 25.3501 101.012 48.9722C101.012 72.5942 81.9796 91.6787 58.3575 91.6113C43.5182 91.5928 30.6148 84.0068 22.9474 72.5923C21.8121 71.0444 20.047 70.561 18.4806 71.479C16.9967 72.397 16.5655 74.4165 17.8018 76.0655C26.943 89.0161 41.5392 97.9443 58.3575 97.9443ZM2.84969 40.0024C7.79875e-05 40.0024-0.788009 41.9561 0.828693 44.2666L11.4786 59.4307C12.8326 61.3438 14.7677 61.3101 16.1031 59.4307L26.753 44.2329C28.336 41.9561 27.5479 40.0024 24.7169 40.0024Z" fill="#000000" fill-opacity="0.85"/>
  <path d="M42.5719 71.4878L72.1607 71.4878C73.5333 71.4878 74.4444 70.5278 74.4444 69.2344C74.4444 67.9746 73.4996 67.0332 72.1607 67.0332L64.2476 67.0332C53.6871 67.0332 45.3375 58.9883 45.3375 48.2681C45.3375 41.1699 47.9434 36.2554 52.3375 33.9502L52.3375 46.8975C52.3375 48.083 53.2115 48.8931 54.3365 48.8931C55.4918 48.8931 56.317 48.083 56.317 46.8975L56.317 32.6231C57.1656 32.5103 58.0294 32.4277 58.7769 32.4277C59.6339 32.4277 60.4083 32.5405 61.1153 32.6685L61.1153 46.8975C61.1153 48.083 61.9405 48.8931 63.0807 48.8931C64.2696 48.8931 65.0797 48.083 65.0797 46.8975L65.0797 34.1118C69.0191 36.4136 71.6285 40.8213 71.6807 46.7105C71.7144 48.2363 72.6895 49.2822 74.1026 49.2822C75.4635 49.2822 76.506 48.2212 76.506 46.7441C76.3966 38.1807 71.857 31.4536 65.0797 28.916L65.0797 23.8032C65.0797 22.584 64.2208 21.7739 63.0807 21.7739C61.9405 21.7739 61.1153 22.584 61.1153 23.8032L61.1153 27.9409C60.3746 27.813 59.6002 27.7827 58.8106 27.7827C58.0294 27.7827 57.1656 27.8467 56.317 27.9443L56.317 23.8032C56.317 22.584 55.4766 21.7739 54.3365 21.7739C53.2115 21.7739 52.3375 22.584 52.3375 23.8032L52.3375 28.7544C45.0011 31.2954 40.359 38.1704 40.359 47.8569C40.359 56.3276 44.5645 63.4331 50.71 67.0332L42.6055 67.0332C41.233 67.0332 40.2882 67.9746 40.2882 69.2344C40.2882 70.5615 41.1656 71.4878 42.5719 71.4878Z" fill="#000000" fill-opacity="0.85"/>
 </g>
</svg>
