<?xml version="1.0" encoding="UTF-8"?>
<!--Generator: Apple Native CoreSVG 232.5-->
<!DOCTYPE svg
PUBLIC "-//W3C//DTD SVG 1.1//EN"
       "http://www.w3.org/Graphics/SVG/1.1/DTD/svg11.dtd">
<svg version="1.1" xmlns="http://www.w3.org/2000/svg" xmlns:xlink="http://www.w3.org/1999/xlink" width="113.251" height="113.3">
 <g>
  <rect height="113.3" opacity="0" width="113.251" x="0" y="0"/>
  <path d="M2.70997 53.9155C1.1958 53.9155 0 55.1299 0 56.6255C0 58.1211 1.1958 59.3018 2.70997 59.3018L110.605 59.3018C112.119 59.3018 113.251 58.1211 113.251 56.6255C113.251 55.1299 112.119 53.9155 110.605 53.9155ZM59.3018 2.66114C59.3018 1.13184 58.1211 0 56.6255 0C55.145 0 53.9155 1.13184 53.9155 2.66114L53.9155 110.541C53.9155 112.022 55.145 113.251 56.6255 113.251C58.1211 113.251 59.3018 112.022 59.3018 110.541ZM77.8247 12.604C78.3721 11.1909 77.6748 9.62793 76.3779 9.08057C74.9312 8.54834 73.353 9.18164 72.7871 10.4937L35.4263 100.647C34.894 102.045 35.5762 103.623 36.8882 104.155C38.3198 104.703 39.8643 104.039 40.4942 102.678ZM103.492 13.6162C104.44 12.5855 104.425 10.9214 103.409 9.8418C102.33 8.82617 100.681 8.85986 99.6499 9.8418L9.75928 99.586C8.77734 100.65 8.82617 102.33 9.85694 103.394C10.9214 104.425 12.6006 104.391 13.6314 103.394ZM102.757 40.4302C104.069 39.8643 104.703 38.335 104.106 36.9707C103.608 35.5913 102.06 34.9429 100.647 35.4751L10.5088 72.7568C9.21192 73.353 8.54834 74.8823 9.14453 76.2803C9.64307 77.6597 11.2061 78.2744 12.604 77.7422ZM100.647 77.8247C102.06 78.357 103.605 77.6597 104.17 76.2803C104.703 74.8823 104.088 73.3867 102.675 72.8208L12.604 35.4263C11.2061 34.8789 9.67676 35.5913 9.0957 36.9858C8.54834 38.335 9.17822 39.8003 10.5762 40.3965ZM99.6499 103.458C100.666 104.44 102.33 104.425 103.409 103.394C104.425 102.33 104.425 100.748 103.409 99.6685L13.6314 9.75928C12.6006 8.77734 10.9214 8.82617 9.85694 9.8418C8.82617 10.9214 8.82617 12.5029 9.85694 13.5825ZM72.7871 102.757C73.353 104.103 74.9497 104.703 76.2803 104.106C77.6597 103.608 78.2744 102.042 77.7422 100.696L40.4942 10.5088C39.8643 9.16309 38.3164 8.54834 36.9707 9.14453C35.6064 9.64307 34.9429 11.1421 35.5088 12.5552Z" fill="#000000" fill-opacity="0.85"/>
 </g>
</svg>
