<?xml version="1.0" encoding="UTF-8"?>
<!--Generator: Apple Native CoreSVG 232.5-->
<!DOCTYPE svg
PUBLIC "-//W3C//DTD SVG 1.1//EN"
       "http://www.w3.org/Graphics/SVG/1.1/DTD/svg11.dtd">
<svg version="1.1" xmlns="http://www.w3.org/2000/svg" xmlns:xlink="http://www.w3.org/1999/xlink" width="50.0681" height="106.394">
 <g>
  <rect height="106.394" opacity="0" width="50.0681" x="0" y="0"/>
  <path d="M34.1346 98.2912C31.3631 98.0622 27.8929 98.8284 25.5458 100.263C24.6263 100.803 24.4798 101.625 25.2679 102.331C27.4501 104.333 30.7435 105.816 33.579 106.011C36.5423 106.402 40.0462 105.489 42.3783 103.698C43.0687 103.221 43.1175 102.482 42.4759 101.859C40.3729 99.9026 37.0492 98.5017 34.1346 98.2912ZM44.5096 81.7571C42.9925 84.2102 42.1136 87.6653 42.2416 90.3913C42.4066 93.279 43.7587 96.6365 45.6327 98.7512C46.222 99.4382 46.8973 99.4382 47.4715 98.7175C49.3153 96.4866 50.3104 92.9978 50.0174 90.0007C49.8221 87.2292 48.4515 83.8904 46.5438 81.6594C45.8719 80.841 45.0838 80.8899 44.5096 81.7571ZM20.3651 85.0588C17.6644 84.0974 14.0326 83.9846 11.389 84.8147C10.451 85.1111 10.1883 85.8503 10.6986 86.7209C12.2948 89.2112 15.1302 91.4758 17.7704 92.407C20.5047 93.5149 24.1703 93.53 26.8627 92.4035C27.6996 92.092 27.9134 91.4202 27.4369 90.6472C25.8744 88.2024 23.0389 85.9714 20.3651 85.0588ZM34.5487 71.7473C32.4794 73.6365 30.7181 76.7312 30.1961 79.4538C29.5614 82.3835 29.9706 86.0002 31.2738 88.4148C31.6341 89.2517 32.3397 89.383 33.0638 88.8425C35.347 87.1638 37.2211 84.0354 37.7093 81.0383C38.2953 78.3005 37.7919 74.7141 36.5038 72.1076C36.1097 71.1243 35.3031 70.9778 34.5487 71.7473ZM0.035505 65.9807C0.47154 68.7976 2.15025 72.0725 4.20445 74.1081C6.2401 76.196 9.53355 77.6306 12.4701 77.7434C13.3558 77.7922 13.8324 77.2331 13.701 76.3474C13.2279 73.4143 11.534 70.2707 9.46471 68.4118C7.42564 66.4402 4.2484 64.9079 1.44664 64.5359C0.42613 64.3894-0.129534 64.9636 0.035505 65.9807ZM27.8475 61.9328C25.2679 62.8303 22.4476 64.9485 20.7269 67.2585C18.9994 69.5232 17.9891 72.9446 18.0868 75.9265C18.1693 76.8088 18.7132 77.2214 19.6141 77.0598C22.5135 76.3762 25.514 74.3069 27.0462 71.8284C28.6424 69.3533 29.6864 65.9319 29.5213 63.0964C29.5213 62.0154 28.8646 61.5725 27.8475 61.9328ZM19.784 50.4768C17.5497 52.2868 15.6756 55.3664 15.0746 58.2322C14.9281 59.0202 15.3861 59.613 16.2079 59.6467C19.1747 59.7595 22.5961 58.4563 24.7176 56.5183C26.8695 54.6745 28.7923 51.5159 29.4422 48.6838C29.5887 47.7458 29.0482 47.0891 28.0799 47.1228C25.2259 47.3669 21.9173 48.6516 19.784 50.4768ZM0.114606 43.9592C-0.208636 46.7341 0.587751 50.2532 2.11998 52.8376C3.58482 55.4441 6.39 57.7087 9.14635 58.4748C9.94957 58.7375 10.6249 58.3098 10.7074 57.4241C11.0306 54.7014 10.2308 51.1824 8.66832 48.6584C7.10582 46.217 4.36803 43.9338 1.85582 42.9387C0.921248 42.5447 0.197126 42.9084 0.114606 43.9592ZM22.4242 34.0705C19.6712 35.032 16.8358 37.2444 15.3036 39.7077C14.8119 40.4133 15.0746 41.1526 15.8627 41.4978C18.5853 42.5906 22.2171 42.5906 24.9398 41.4827C27.7718 40.3782 30.641 38.0798 32.0116 35.6501C32.5218 34.862 32.244 34.1228 31.306 33.8113C28.5834 33.03 25.0306 33.1091 22.4242 34.0705ZM6.12388 21.2019C4.86949 23.8874 4.39634 27.4704 4.93345 30.2419C5.44029 33.1296 7.31431 36.2092 9.71031 37.9519C10.367 38.4773 11.0726 38.2786 11.5004 37.4905C12.7699 34.9363 13.1942 31.3987 12.5443 28.5935C11.9584 25.7917 10.1634 22.697 8.14293 20.7742C7.40709 20.1511 6.58531 20.3313 6.12388 21.2019ZM31.2167 19.9778C28.3509 20.5754 25.2377 22.4158 23.4916 24.571C22.9813 25.1638 23.0975 25.9031 23.8031 26.3948C26.285 27.8933 29.8714 28.3664 32.7523 27.6003C35.618 26.9656 38.7616 25.0915 40.5716 22.9582C41.2132 22.1853 41.0633 21.3669 40.1439 20.9729C37.5863 19.8464 34.0521 19.4221 31.2167 19.9778ZM16.9183 4.90843C15.3036 7.35326 14.3421 10.8723 14.5223 13.6589C14.5863 16.5769 16.0209 19.9006 18.1087 22.0339C18.7655 22.657 19.5199 22.5896 20.0267 21.8689C21.5926 19.3484 22.5389 15.8596 22.2948 13.1184C22.0995 10.3503 20.7811 7.06029 18.9711 4.82591C18.2655 4.02269 17.4925 4.12034 16.9183 4.90843ZM41.9623 0.0222003C39.1605 0.47679 35.9833 2.1555 33.993 4.11204C31.9725 6.09886 30.3915 9.39232 30.0345 12.2243C29.952 13.0798 30.4286 13.6203 31.2992 13.5867C34.2626 13.3948 37.5375 11.8323 39.5126 9.59789C41.4354 7.57738 43.0013 4.3513 43.4408 1.46703C43.5536 0.465072 43.0433-0.124284 41.9623 0.0222003Z" fill="#000000" fill-opacity="0.85"/>
 </g>
</svg>
