<?xml version="1.0" encoding="UTF-8"?>
<!--Generator: Apple Native CoreSVG 232.5-->
<!DOCTYPE svg
PUBLIC "-//W3C//DTD SVG 1.1//EN"
       "http://www.w3.org/Graphics/SVG/1.1/DTD/svg11.dtd">
<svg version="1.1" xmlns="http://www.w3.org/2000/svg" xmlns:xlink="http://www.w3.org/1999/xlink" width="109.998" height="83.086">
 <g>
  <rect height="83.086" opacity="0" width="109.998" x="0" y="0"/>
  <path d="M109.998 13.8565L109.998 44.8838C109.998 70.3179 98.335 83.0371 70.9985 83.0371L38.999 83.0371C11.6475 83.0371 0 70.3179 0 44.8838L0 13.8565C0 4.72315 4.79053 0 13.9912 0L96.0064 0C105.192 0 109.998 4.76856 109.998 13.8565ZM59.9072 21.9907C58.0967 21.9907 57.1182 23.2539 57.1182 24.9448L57.1182 58.2876C57.1182 60.0645 58.1304 61.2568 59.9072 61.2568L69.877 61.2568C76.6035 61.2568 80.5469 56.773 80.5469 50.3579C80.5469 45.561 77.7871 41.2002 73.1367 40.7002L73.1367 40.4526C76.7383 39.7725 79.2017 35.6406 79.2017 31.7109C79.2017 25.752 75.3086 21.9907 69.5957 21.9907ZM32.4272 24.209L32.4272 58.2573C32.4272 60.0982 33.4849 61.208 35.1978 61.208L49.4922 61.208C50.7857 61.208 51.9107 60.1318 51.9107 58.8081C51.9107 57.481 50.7857 56.4048 49.4922 56.4048L38.0996 56.4048L38.0996 24.209C38.0996 22.6646 36.7725 21.3711 35.2954 21.3711C33.7544 21.3711 32.4272 22.6646 32.4272 24.209ZM74.8071 49.8745C74.8071 54.2231 72.585 56.8242 68.27 56.8242L62.6441 56.8242L62.6441 43.0444L68.0479 43.0444C72.1387 43.0444 74.8071 45.3272 74.8071 49.8745ZM73.7315 32.5278C73.7315 36.4858 71.4839 39.0161 67.4771 39.0161L62.6441 39.0161L62.6441 26.4419L68.063 26.4419C71.9824 26.4419 73.7315 28.9639 73.7315 32.5278Z" fill="#000000" fill-opacity="0.85"/>
 </g>
</svg>
