<?xml version="1.0" encoding="UTF-8"?>
<!--Generator: Apple Native CoreSVG 232.5-->
<!DOCTYPE svg
PUBLIC "-//W3C//DTD SVG 1.1//EN"
       "http://www.w3.org/Graphics/SVG/1.1/DTD/svg11.dtd">
<svg version="1.1" xmlns="http://www.w3.org/2000/svg" xmlns:xlink="http://www.w3.org/1999/xlink" width="97.9595" height="97.9932">
 <g>
  <rect height="97.9932" opacity="0" width="97.9595" x="0" y="0"/>
  <path d="M48.9722 97.9443C75.8247 97.9443 97.9595 75.7759 97.9595 48.9722C97.9595 22.1348 75.791 0 48.9385 0C22.1348 0 0 22.1348 0 48.9722C0 75.7759 22.1685 97.9443 48.9722 97.9443ZM48.9722 91.6113C25.3501 91.6113 6.36671 72.5942 6.36671 48.9722C6.36671 25.3501 25.3164 6.31789 48.9385 6.31789C72.5605 6.31789 91.6265 25.3501 91.6265 48.9722C91.6265 72.5942 72.5942 91.6113 48.9722 91.6113Z" fill="#000000" fill-opacity="0.85"/>
  <path d="M29.001 68.7324L43.3813 68.7324C44.6899 68.7324 45.7998 67.6563 45.7998 66.2988C45.7998 65.0054 44.6899 63.9292 43.3813 63.9292L31.9028 63.9292L31.9028 31.479C31.9028 29.9683 30.5942 28.6748 29.0835 28.6748C27.5239 28.6748 26.2305 29.9683 26.2305 31.479L26.2305 65.7969C26.2305 67.6226 27.2729 68.7324 29.001 68.7324ZM53.8301 68.7964L63.8486 68.7964C70.6763 68.7964 74.5708 64.2974 74.5708 57.7813C74.5708 52.9844 71.8262 48.605 67.127 48.105L67.127 47.876C70.7959 47.1773 73.2593 43.0454 73.2593 39.0483C73.2593 33.0557 69.3477 29.2944 63.5859 29.2944L53.8301 29.2944C52.0195 29.2944 51.041 30.5239 51.041 32.2485L51.041 65.812C51.041 67.5889 52.0532 68.7964 53.8301 68.7964ZM56.6157 46.4209L56.6157 33.7608L62.0532 33.7608C65.9727 33.7608 67.7554 36.3013 67.7554 39.8989C67.7554 43.8906 65.4741 46.4209 61.4824 46.4209ZM56.6157 64.3301L56.6157 50.4492L62.0044 50.4492C66.1626 50.4492 68.8647 52.7168 68.8647 57.3652C68.8647 61.6802 66.6089 64.3301 62.2603 64.3301Z" fill="#000000" fill-opacity="0.85"/>
 </g>
</svg>
