<?xml version="1.0" encoding="UTF-8"?>
<!--Generator: Apple Native CoreSVG 232.5-->
<!DOCTYPE svg
PUBLIC "-//W3C//DTD SVG 1.1//EN"
       "http://www.w3.org/Graphics/SVG/1.1/DTD/svg11.dtd">
<svg version="1.1" xmlns="http://www.w3.org/2000/svg" xmlns:xlink="http://www.w3.org/1999/xlink" width="97.9595" height="97.9932">
 <g>
  <rect height="97.9932" opacity="0" width="97.9595" x="0" y="0"/>
  <path d="M97.9595 48.9722C97.9595 75.7759 75.8247 97.9443 48.9722 97.9443C22.1685 97.9443 0 75.7759 0 48.9722C0 22.1348 22.1348 0 48.9385 0C75.791 0 97.9595 22.1348 97.9595 48.9722ZM24.9448 29.5288C24.5659 31.96 24.2578 34.9722 24.2578 36.9473C24.2578 53.9849 34.2593 65.3433 49.4502 65.3433C56.4551 65.3433 61.4302 62.314 63.7334 58.9859C65.7622 61.6343 66.7456 64.315 68.1025 68.7358C68.3955 69.7949 69.2105 70.1553 69.9429 70.1553C71.5879 70.1553 72.8828 68.7358 72.8828 66.749C72.8828 63.5029 68.5874 57.9702 66.2402 55.8218C56.4424 46.6421 41.8203 52.0469 37.3843 42.0991C37.0459 41.3667 37.8726 40.7168 38.6909 41.4004C46.5996 48.6318 56.1045 42.8281 66.2402 51.8057C66.9004 52.4507 67.7036 52.1172 67.8535 51.4302C67.936 50.7012 68.0151 49.6118 68.0151 48.5107C68.0151 37.5327 60.4028 32.3467 49.5176 32.3467C45.9277 32.3467 41.9741 33.1079 38.6504 33.1079C34.5493 33.1079 30.3115 32.4717 27.188 28.9966C26.3477 28.0957 25.147 28.2539 24.9448 29.5288Z" fill="#000000" fill-opacity="0.85"/>
 </g>
</svg>
