<?xml version="1.0" encoding="UTF-8"?>
<!--Generator: Apple Native CoreSVG 232.5-->
<!DOCTYPE svg
PUBLIC "-//W3C//DTD SVG 1.1//EN"
       "http://www.w3.org/Graphics/SVG/1.1/DTD/svg11.dtd">
<svg version="1.1" xmlns="http://www.w3.org/2000/svg" xmlns:xlink="http://www.w3.org/1999/xlink" width="97.9595" height="116.636">
 <g>
  <rect height="116.636" opacity="0" width="97.9595" x="0" y="0"/>
  <path d="M0 58.3388C0 85.1762 22.1685 107.311 48.9722 107.311C75.8247 107.311 97.9595 85.1762 97.9595 58.3388C97.9595 41.5541 89.2046 26.6112 76.0806 17.7831C74.4317 16.5316 72.397 16.9779 71.479 18.4955C70.5762 20.0619 71.0596 21.8271 72.5923 22.9472C84.0522 30.5053 91.5928 43.518 91.6265 58.3388C91.6602 81.9608 72.5942 100.978 48.9722 100.978C25.3501 100.978 6.36671 81.9608 6.36671 58.3388C6.36671 37.8066 20.728 20.7494 40.0024 16.6864L40.0024 24.6982C40.0024 27.5141 41.9561 28.3359 44.2481 26.7192L59.4458 16.0692C61.3101 14.7826 61.3438 12.8476 59.4458 11.4936L44.2817 0.843654C41.9561-0.806739 40.0024 0.0150395 40.0024 2.86465L40.0024 10.2035C17.3477 14.4838 0 34.5575 0 58.3388Z" fill="#000000" fill-opacity="0.85"/>
  <path d="M25.4199 42.0336C25.041 44.4159 24.7481 47.3759 24.7481 49.2836C24.7481 65.9994 34.5474 77.0883 49.4316 77.0883C58.0703 77.0883 63.1411 72.2719 64.5181 69.2172L62.2495 69.5199C65.0396 72.4799 66.1577 75.3998 67.7134 80.4472C68.0215 81.454 68.7876 81.8481 69.52 81.8481C71.1314 81.8481 72.4077 80.4472 72.4077 78.5092C72.4077 75.2816 68.1982 69.9174 65.8848 67.7538C56.2739 58.81 41.9888 64.0463 37.605 54.3681C37.2666 53.602 38.0933 52.9521 38.8779 53.6356C46.6333 60.7812 55.9512 55.0297 65.8848 63.8876C66.5601 64.4652 67.3145 64.1991 67.4644 63.4633C67.5469 62.768 67.626 61.7123 67.626 60.6449C67.626 49.8539 60.1821 44.7689 49.4839 44.7689C45.9951 44.7689 42.1089 45.4965 38.8525 45.4965C34.8037 45.4965 30.667 44.9091 27.6108 41.4862C26.8042 40.6005 25.6372 40.7436 25.4199 42.0336Z" fill="#000000" fill-opacity="0.85"/>
 </g>
</svg>
