<?xml version="1.0" encoding="UTF-8"?>
<!--Generator: Apple Native CoreSVG 232.5-->
<!DOCTYPE svg
PUBLIC "-//W3C//DTD SVG 1.1//EN"
       "http://www.w3.org/Graphics/SVG/1.1/DTD/svg11.dtd">
<svg version="1.1" xmlns="http://www.w3.org/2000/svg" xmlns:xlink="http://www.w3.org/1999/xlink" width="101.832" height="91.0225">
 <g>
  <rect height="91.0225" opacity="0" width="101.832" x="0" y="0"/>
  <path d="M0 21.2192C0 57.2212 21.478 80.7383 54.5874 80.7383C77.5859 80.7383 93.794 65.9649 93.794 45.0474C93.794 24.9448 77.4395 10.4644 54.7827 10.4644C46.9297 10.4644 38.8731 12.7104 29.8315 12.7104C21.8731 12.7104 15.2276 10.1885 9.82618 4.03955C7.31202 1.12793 2.58985 0.971189 1.44971 5.69336C0.292969 10.354 0 18.5977 0 21.2192ZM5.72316 21.2192C5.72316 17.1489 5.89308 13.3692 6.39308 10.3994C6.55128 9.49221 6.99903 9.48879 7.62013 10.0762C13.4673 15.7529 22.1973 18.4336 29.8315 18.4336C35.0293 18.4336 39.7842 17.75 44.0811 17.1641C47.9722 16.627 51.4658 16.1875 54.7827 16.1875C74.2647 16.1875 88.0859 28.1904 88.0859 45.0474C88.0859 62.7529 74.3623 75.0303 54.5874 75.0303C24.69 75.0303 5.72316 54.0615 5.72316 21.2192ZM28.1709 32.5205C31.0503 41.1187 39.2495 45.0938 52.7407 48.4707C67.9312 52.1685 75.439 55.7544 82.4731 65.0239C87.2422 71.1382 88.6514 78.1504 91.709 87.9395C92.4263 90.2227 94.0073 91.0225 95.6558 91.0225C99.1631 91.0225 101.832 87.835 101.832 83.7974C101.832 76.8775 93.9995 65.2681 89.0239 59.1333C81.9478 50.7412 71.0015 45.8936 54.6406 42.9824C43.895 40.9053 36.1914 38.3579 30.7275 31.3213C29.4829 29.6606 27.5898 30.7622 28.1709 32.5205Z" fill="#000000" fill-opacity="0.85"/>
 </g>
</svg>
