<?xml version="1.0" encoding="UTF-8"?>
<!--Generator: Apple Native CoreSVG 232.5-->
<!DOCTYPE svg
PUBLIC "-//W3C//DTD SVG 1.1//EN"
       "http://www.w3.org/Graphics/SVG/1.1/DTD/svg11.dtd">
<svg version="1.1" xmlns="http://www.w3.org/2000/svg" xmlns:xlink="http://www.w3.org/1999/xlink" width="97.9595" height="97.9932">
 <g>
  <rect height="97.9932" opacity="0" width="97.9595" x="0" y="0"/>
  <path d="M48.9722 97.9443C75.8247 97.9443 97.9595 75.7759 97.9595 48.9722C97.9595 22.1348 75.791 0 48.9385 0C22.1348 0 0 22.1348 0 48.9722C0 75.7759 22.1685 97.9443 48.9722 97.9443ZM48.9722 91.6113C25.3501 91.6113 6.36671 72.5942 6.36671 48.9722C6.36671 25.3501 25.3164 6.31789 48.9385 6.31789C72.5605 6.31789 91.6265 25.3501 91.6265 48.9722C91.6265 72.5942 72.5942 91.6113 48.9722 91.6113Z" fill="#000000" fill-opacity="0.85"/>
  <path d="M39.4478 70.6738L62.2451 70.6738C63.7525 70.6738 64.8018 69.6953 64.8018 68.1509C64.8018 66.5728 63.7373 65.6094 62.2451 65.6094L42.5098 65.6094L42.5098 29.5459C42.5098 27.4961 41.4302 26.1958 39.4478 26.1958C37.5327 26.1958 36.4531 27.5635 36.4531 29.5459L36.4531 67.3574C36.4531 69.3247 37.5479 70.6738 39.4478 70.6738Z" fill="#000000" fill-opacity="0.85"/>
 </g>
</svg>
