<?xml version="1.0" encoding="UTF-8"?>
<!--Generator: Apple Native CoreSVG 232.5-->
<!DOCTYPE svg
PUBLIC "-//W3C//DTD SVG 1.1//EN"
       "http://www.w3.org/Graphics/SVG/1.1/DTD/svg11.dtd">
<svg version="1.1" xmlns="http://www.w3.org/2000/svg" xmlns:xlink="http://www.w3.org/1999/xlink" width="97.9595" height="97.9932">
 <g>
  <rect height="97.9932" opacity="0" width="97.9595" x="0" y="0"/>
  <path d="M97.9595 48.9722C97.9595 75.7759 75.8247 97.9443 48.9722 97.9443C22.1685 97.9443 0 75.7759 0 48.9722C0 22.1348 22.1348 0 48.9385 0C75.791 0 97.9595 22.1348 97.9595 48.9722ZM36.1987 29.1567L36.1987 67.6792C36.1987 69.7139 37.3272 71.1304 39.2944 71.1304L62.5483 71.1304C64.1079 71.1304 65.1909 70.1182 65.1909 68.5064C65.1909 66.9097 64.0928 65.8975 62.5483 65.8975L42.4424 65.8975L42.4424 29.1567C42.4424 27.0547 41.3443 25.687 39.2944 25.687C37.312 25.687 36.1987 27.1069 36.1987 29.1567Z" fill="#000000" fill-opacity="0.85"/>
 </g>
</svg>
