<?xml version="1.0" encoding="UTF-8"?>
<!--Generator: Apple Native CoreSVG 232.5-->
<!DOCTYPE svg
PUBLIC "-//W3C//DTD SVG 1.1//EN"
       "http://www.w3.org/Graphics/SVG/1.1/DTD/svg11.dtd">
<svg version="1.1" xmlns="http://www.w3.org/2000/svg" xmlns:xlink="http://www.w3.org/1999/xlink" width="97.9595" height="97.9932">
 <g>
  <rect height="97.9932" opacity="0" width="97.9595" x="0" y="0"/>
  <path d="M97.9595 48.9722C97.9595 75.7759 75.8247 97.9443 48.9722 97.9443C22.1685 97.9443 0 75.7759 0 48.9722C0 22.1348 22.1348 0 48.9385 0C75.791 0 97.9595 22.1348 97.9595 48.9722ZM59.6167 29.7593L30.6016 45.5278C29.0688 46.3936 28.3193 47.5068 28.3193 48.9873C28.3193 50.6177 29.0015 51.6148 30.6016 52.4619L59.6167 67.875C60.2617 68.1563 60.7451 68.3701 61.5435 68.3701C63.44 68.3701 64.7891 67.0361 64.7891 65.2407C64.7891 63.7417 64.1406 62.8608 62.5103 62.0811L36.8672 49.0327L36.8672 48.7549L62.5103 35.5044C64.107 34.7398 64.7891 33.7915 64.7891 32.311C64.7891 30.5645 63.4736 29.2305 61.6109 29.2305C60.7451 29.2305 60.2954 29.4292 59.6167 29.7593Z" fill="#000000" fill-opacity="0.85"/>
 </g>
</svg>
