<?xml version="1.0" encoding="UTF-8"?>
<!--Generator: Apple Native CoreSVG 232.5-->
<!DOCTYPE svg
PUBLIC "-//W3C//DTD SVG 1.1//EN"
       "http://www.w3.org/Graphics/SVG/1.1/DTD/svg11.dtd">
<svg version="1.1" xmlns="http://www.w3.org/2000/svg" xmlns:xlink="http://www.w3.org/1999/xlink" width="97.9595" height="97.9932">
 <g>
  <rect height="97.9932" opacity="0" width="97.9595" x="0" y="0"/>
  <path d="M48.9722 97.9443C75.8247 97.9443 97.9595 75.7759 97.9595 48.9722C97.9595 22.1348 75.791 0 48.9385 0C22.1348 0 0 22.1348 0 48.9722C0 75.7759 22.1685 97.9443 48.9722 97.9443ZM48.9722 91.6113C25.3501 91.6113 6.36671 72.5942 6.36671 48.9722C6.36671 25.3501 25.3164 6.31789 48.9385 6.31789C72.5605 6.31789 91.6265 25.3501 91.6265 48.9722C91.6265 72.5942 72.5942 91.6113 48.9722 91.6113Z" fill="#000000" fill-opacity="0.85"/>
  <path d="M61.188 67.9136C63.0171 67.9136 64.3325 66.647 64.3325 64.8853C64.3325 63.4536 63.7178 62.5913 62.1362 61.8267L37.002 49.0327L37.002 48.7549L62.1362 35.7739C63.6841 34.9941 64.3325 34.0796 64.3325 32.6665C64.3325 30.9385 63.0508 29.6719 61.2554 29.6719C60.4233 29.6719 59.9736 29.852 59.3286 30.167L30.9233 45.6289C29.4243 46.4609 28.7085 47.5254 28.7085 48.9873C28.7085 50.5503 29.3569 51.5137 30.9233 52.3609L59.3286 67.4522C59.9399 67.7485 60.4233 67.9136 61.188 67.9136Z" fill="#000000" fill-opacity="0.85"/>
 </g>
</svg>
