<?xml version="1.0" encoding="UTF-8"?>
<!--Generator: Apple Native CoreSVG 232.5-->
<!DOCTYPE svg
PUBLIC "-//W3C//DTD SVG 1.1//EN"
       "http://www.w3.org/Graphics/SVG/1.1/DTD/svg11.dtd">
<svg version="1.1" xmlns="http://www.w3.org/2000/svg" xmlns:xlink="http://www.w3.org/1999/xlink" width="65.2266" height="62.3194">
 <g>
  <rect height="62.3194" opacity="0" width="65.2266" x="0" y="0"/>
  <path d="M62.0635 62.3194C63.896 62.3194 65.2266 61.0191 65.2266 58.9693C65.2266 57.2983 64.4214 56.2861 62.855 55.5518L8.8594 31.5576L8.8594 31.0962L62.855 6.76759C64.4214 6.01808 65.2266 5.02101 65.2266 3.35011C65.2266 1.36768 63.8623 0.0336915 61.9439 0.0336915C60.898 0.0336915 60.2192 0.345215 59.4546 0.742677L3.69386 26.6528C1.57325 27.6196 0 29.2754 0 31.5645C0 33.8721 1.52784 35.4605 3.60304 36.4458L59.4546 61.5581C60.2529 61.9404 60.9653 62.3194 62.0635 62.3194Z" fill="#000000" fill-opacity="0.85"/>
 </g>
</svg>
