<?xml version="1.0" encoding="UTF-8"?>
<!--Generator: Apple Native CoreSVG 232.5-->
<!DOCTYPE svg
PUBLIC "-//W3C//DTD SVG 1.1//EN"
       "http://www.w3.org/Graphics/SVG/1.1/DTD/svg11.dtd">
<svg version="1.1" xmlns="http://www.w3.org/2000/svg" xmlns:xlink="http://www.w3.org/1999/xlink" width="117.178" height="50.4658">
 <g>
  <rect height="50.4658" opacity="0" width="117.178" x="0" y="0"/>
  <path d="M24.1367 44.4209L20.1909 44.4209L20.1909 6.04835L24.1367 6.04835ZM96.9873 44.4209L93.0415 44.4209L93.0415 6.04835L96.9873 6.04835ZM58.6118 26.792C44.9142 26.792 34.5978 18.6858 32.685 6.04835L36.9886 6.04835C38.7158 16.3893 47.2652 22.9995 58.6118 22.9995C69.9123 22.9995 78.4592 16.3893 80.1862 6.04835L84.4962 6.04835C82.6284 18.6858 72.3383 26.792 58.6118 26.792Z" fill="#000000" fill-opacity="0.85"/>
  <path d="M12.5967 50.4658L104.597 50.4658C112.777 50.4658 117.178 46.0493 117.178 37.9365L117.178 12.5479C117.178 4.41992 112.743 0.0185549 104.563 0.0185549L12.563 0.0185549C4.36768 0.0185549 0 4.41992 0 12.5479L0 37.9365C0 46.0493 4.40137 50.4658 12.5967 50.4658ZM13.4053 44.4209C8.74025 44.4209 6.04494 41.8081 6.04494 36.9595L6.04494 13.5249C6.04494 8.67628 8.74025 6.04835 13.439 6.04835L103.739 6.04835C108.438 6.04835 111.115 8.67628 111.115 13.5249L111.115 36.9595C111.115 41.8081 108.438 44.4209 103.706 44.4209ZM58.6118 15.9092C65.5855 15.9092 70.7105 11.5317 71.2778 4.91505L45.9307 4.91505C46.4644 11.5317 51.5894 15.9092 58.6118 15.9092Z" fill="#000000" fill-opacity="0.85"/>
 </g>
</svg>
