<?xml version="1.0" encoding="UTF-8"?>
<!--Generator: Apple Native CoreSVG 232.5-->
<!DOCTYPE svg
PUBLIC "-//W3C//DTD SVG 1.1//EN"
       "http://www.w3.org/Graphics/SVG/1.1/DTD/svg11.dtd">
<svg version="1.1" xmlns="http://www.w3.org/2000/svg" xmlns:xlink="http://www.w3.org/1999/xlink" width="97.9595" height="97.9932">
 <g>
  <rect height="97.9932" opacity="0" width="97.9595" x="0" y="0"/>
  <path d="M48.9722 75.1558C63.4067 75.1558 75.1558 63.4067 75.1558 48.9722C75.1558 34.5527 63.4067 22.7886 48.9722 22.7886C34.5376 22.7886 22.7886 34.5527 22.7886 48.9722C22.7886 63.4067 34.5376 75.1558 48.9722 75.1558ZM48.9722 68.8564C38.0039 68.8564 29.0879 59.9556 29.0879 48.9722C29.0879 37.9888 38.0039 29.0879 48.9722 29.0879C59.9556 29.0879 68.8716 37.9888 68.8716 48.9722C68.8716 59.9556 59.9556 68.8564 48.9722 68.8564ZM11.3428 78.1255L20.1304 86.9131L38.062 68.9966L29.2593 60.1938ZM10.9907 19.8003L29.2441 38.0386L38.0318 29.2358L19.8086 10.9824ZM87.0362 19.9736L78.2485 11.186L60.1987 29.2358L68.9863 38.0386ZM86.7783 77.9673L69.0503 60.2392L60.2139 69.0757L77.9419 86.8037ZM48.9722 97.9443C75.8247 97.9443 97.9595 75.7759 97.9595 48.9722C97.9595 22.1348 75.791 0 48.9385 0C22.1348 0 0 22.1348 0 48.9722C0 75.7759 22.1685 97.9443 48.9722 97.9443ZM48.9722 91.6113C25.3501 91.6113 6.36671 72.5942 6.36671 48.9722C6.36671 25.3501 25.3164 6.31789 48.9385 6.31789C72.5605 6.31789 91.6265 25.3501 91.6265 48.9722C91.6265 72.5942 72.5942 91.6113 48.9722 91.6113Z" fill="#000000" fill-opacity="0.85"/>
 </g>
</svg>
