<?xml version="1.0" encoding="UTF-8"?>
<!--Generator: Apple Native CoreSVG 232.5-->
<!DOCTYPE svg
PUBLIC "-//W3C//DTD SVG 1.1//EN"
       "http://www.w3.org/Graphics/SVG/1.1/DTD/svg11.dtd">
<svg version="1.1" xmlns="http://www.w3.org/2000/svg" xmlns:xlink="http://www.w3.org/1999/xlink" width="77.8911" height="108.961">
 <g>
  <rect height="108.961" opacity="0" width="77.8911" x="0" y="0"/>
  <path d="M0 18.7139C0 35.1914 26.1719 49.2505 26.1719 78.3887L26.1719 83.6777C26.1719 84.978 26.918 85.7393 28.2671 85.7393L49.624 85.7393C50.9732 85.7393 51.7193 84.978 51.7193 83.6777L51.7193 78.3887C51.7193 49.0889 77.8911 35.582 77.8911 18.7139C77.8911 6.77051 63.7153 0 38.9624 0C14.1758 0 0 6.77051 0 18.7139ZM5.72316 18.7139C5.72316 11.1548 17.273 5.72316 38.9624 5.72316C60.603 5.72316 72.168 11.1548 72.168 18.7139C72.168 31.2095 46.0298 47.7891 46.0298 76.8657L46.0298 82.6147L49.2197 80.0161L28.6714 80.0161L31.8613 82.6147L31.8613 76.8657C31.8613 47.8984 5.72316 31.021 5.72316 18.7139ZM4.24366 27.9312L73.6812 27.9312L73.6812 22.8667L4.24366 22.8667ZM27.8135 95.4536L50.1113 95.4536C51.5073 95.4536 52.6104 94.3691 52.6104 92.9395C52.6104 91.5249 51.5073 90.4404 50.1113 90.4404L27.8135 90.4404C26.3838 90.4404 25.2656 91.5249 25.2656 92.9395C25.2656 94.3691 26.3838 95.4536 27.8135 95.4536ZM38.9624 108.583C45.4331 108.583 49.8179 105.279 50.6465 100.121L27.2446 100.121C27.9907 105.279 32.3755 108.583 38.9624 108.583Z" fill="#000000" fill-opacity="0.85"/>
 </g>
</svg>
