<?xml version="1.0" encoding="UTF-8"?>
<!--Generator: Apple Native CoreSVG 232.5-->
<!DOCTYPE svg
PUBLIC "-//W3C//DTD SVG 1.1//EN"
       "http://www.w3.org/Graphics/SVG/1.1/DTD/svg11.dtd">
<svg version="1.1" xmlns="http://www.w3.org/2000/svg" xmlns:xlink="http://www.w3.org/1999/xlink" width="68.6909" height="106.294">
 <g>
  <rect height="106.294" opacity="0" width="68.6909" x="0" y="0"/>
  <path d="M14.2739 0.0419915C4.80225 0.0419915 0 4.93018 0 14.4356L0 91.919C0 101.458 4.80225 106.294 14.2739 106.294L54.417 106.294C63.855 106.294 68.6909 101.458 68.6909 91.919L68.6909 14.4356C68.6909 4.93018 63.855 0.0419915 54.417 0.0419915ZM14.5737 6.07179L54.0835 6.07179C59.7217 6.07179 62.6611 9.06349 62.6611 14.582L62.6611 91.7876C62.6611 97.291 59.7217 100.249 54.0835 100.249L14.5737 100.249C8.93556 100.249 6.04494 97.291 6.04494 91.7876L6.04494 14.582C6.04494 9.06349 8.93556 6.07179 14.5737 6.07179Z" fill="#000000" fill-opacity="0.85"/>
  <path d="M16.7251 63.1191C13.2554 63.1191 11.668 64.688 11.668 68.1577L11.668 89.5537C11.668 93.0234 13.2554 94.5923 16.7251 94.5923L51.7974 94.5923C55.3008 94.5923 56.9033 93.0234 56.9033 89.5537L56.9033 68.1577C56.9033 64.688 55.3008 63.1191 51.7974 63.1191Z" fill="#000000" fill-opacity="0.85"/>
 </g>
</svg>
