<?xml version="1.0" encoding="UTF-8"?>
<!--Generator: Apple Native CoreSVG 232.5-->
<!DOCTYPE svg
PUBLIC "-//W3C//DTD SVG 1.1//EN"
       "http://www.w3.org/Graphics/SVG/1.1/DTD/svg11.dtd">
<svg version="1.1" xmlns="http://www.w3.org/2000/svg" xmlns:xlink="http://www.w3.org/1999/xlink" width="115.249" height="106.945">
 <g>
  <rect height="106.945" opacity="0" width="115.249" x="0" y="0"/>
  <path d="M8.07321 60.4565C10.6177 64.8701 14.5361 65.8349 18.8066 63.4033L81.1968 27.3691C85.4858 24.9037 86.604 20.9853 84.0596 16.5717L77.3433 5.0097C74.7988 0.562429 70.9141-0.417552 66.6587 2.09661L4.18601 38.1494C-0.103056 40.5961-1.18753 44.4472 1.35691 48.8945ZM63.7212 20.6064C62.6924 18.8266 63.2817 16.5551 65.0464 15.5263C66.8901 14.4975 69.1616 15.102 70.1904 16.9155C71.2192 18.6952 70.5996 20.9516 68.771 21.9955C67.0063 23.0244 64.75 22.4199 63.7212 20.6064ZM51.5928 27.6093C50.5639 25.8295 51.123 23.5732 52.918 22.5292C54.7314 21.5004 57.0181 22.1201 58.0317 23.8847C59.0605 25.6645 58.456 27.9697 56.6426 28.9985C54.8476 30.0273 52.6064 29.3891 51.5928 27.6093ZM39.4643 34.6122C38.4355 32.8476 39.0737 30.561 40.8535 29.4985C42.6181 28.4697 44.8745 29.123 45.9033 30.8876C46.9321 32.6674 46.3428 34.954 44.5781 35.9526C42.7983 36.9814 40.5117 36.3769 39.4643 34.6122ZM27.3242 41.6118C26.2954 39.832 26.8999 37.5942 28.7134 36.5654C30.5083 35.4877 32.8437 36.0922 33.8574 37.872C34.8862 39.6704 34.2329 41.9233 32.438 42.9521C30.6245 43.9809 28.3379 43.4252 27.3242 41.6118ZM15.1655 48.6147C14.1367 46.85 14.7563 44.5634 16.5849 43.5346C18.3496 42.5058 20.6362 43.1254 21.665 44.8901C22.7275 46.7036 22.0742 48.9262 20.3095 49.955C18.4658 50.999 16.1943 50.4282 15.1655 48.6147ZM74.0893 4.83733L76.3091 8.67718L84.1826 4.15277C85.2471 3.55315 85.5923 2.21429 84.9473 1.12297C84.3662 0.0619378 82.9936-0.320387 81.9326 0.29436ZM80.3818 15.6879L82.6016 19.5312L90.4111 15.0219C91.6069 14.3735 91.9185 13.1845 91.2061 11.9736C90.5913 10.8788 89.271 10.5639 88.2065 11.1635ZM37.9058 101.752C40.4165 106.132 44.4023 107.145 48.6914 104.699L111.097 68.6796C115.352 66.1992 116.403 62.247 113.926 57.8823L107.209 46.3051C104.665 41.873 100.78 40.893 96.5098 43.392L34.0522 79.4599C29.7969 81.8915 28.6787 85.7426 31.2231 90.1899ZM93.6177 61.8715C92.5889 60.0917 93.1748 57.8691 94.9732 56.8403C96.8169 55.7626 99.0547 56.3671 100.084 58.1469C101.112 59.9452 100.526 62.1982 98.6978 63.227C96.8994 64.2895 94.6465 63.6699 93.6177 61.8715ZM81.4439 68.8896C80.3965 67.1249 81.0498 64.872 82.8784 63.8432C84.6582 62.7807 86.9448 63.3701 87.9585 65.1498C88.9873 66.9633 88.3828 69.2011 86.603 70.2299C84.7744 71.3076 82.5029 70.7182 81.4439 68.8896ZM69.3794 75.9077C68.3506 74.1279 68.9399 71.8715 70.7046 70.8427C72.4844 69.7802 74.8047 70.4033 75.8184 72.183C76.832 73.9326 76.209 76.2343 74.4292 77.2631C72.6797 78.3408 70.4082 77.6723 69.3794 75.9077ZM57.251 82.8769C56.2222 81.0971 56.8604 78.8256 58.6401 77.7968C60.4351 76.768 62.6763 77.3725 63.6899 79.186C64.7188 80.9658 64.1294 83.1581 62.3648 84.2661C60.585 85.2949 58.2647 84.6752 57.251 82.8769ZM45.0923 89.8798C44.0635 88.1 44.7168 85.8437 46.4814 84.7509C48.2612 83.7221 50.5327 84.3754 51.5615 86.1552C52.5903 87.935 52.001 90.2402 50.2363 91.269C48.4263 92.2978 46.1211 91.6596 45.0923 89.8798ZM41.1934 101.992L38.9736 98.0844L31.0664 102.643C30.0019 103.242 29.7056 104.578 30.3354 105.672C31.0478 106.883 32.2368 107.232 33.3501 106.519ZM34.9346 91.1074L32.7148 87.2641L24.8716 91.7734C23.7768 92.3881 23.4316 93.7456 24.0767 94.8217C24.6914 95.8828 26.0117 96.2314 27.0425 95.6318ZM24.2431 65.33L49.6938 65.33L90.0405 42.0229L64.5899 42.0229Z" fill="#000000" fill-opacity="0.85"/>
 </g>
</svg>
