<?xml version="1.0" encoding="UTF-8"?>
<!--Generator: Apple Native CoreSVG 232.5-->
<!DOCTYPE svg
PUBLIC "-//W3C//DTD SVG 1.1//EN"
       "http://www.w3.org/Graphics/SVG/1.1/DTD/svg11.dtd">
<svg version="1.1" xmlns="http://www.w3.org/2000/svg" xmlns:xlink="http://www.w3.org/1999/xlink" width="131.858" height="79.1016">
 <g>
  <rect height="79.1016" opacity="0" width="131.858" x="0" y="0"/>
  <path d="M65.9048 79.0039C104.66 79.0039 131.858 61.3638 131.858 39.5264C131.858 17.689 104.66 0 65.9048 0C27.1494 0 0 17.689 0 39.5264C0 61.3638 27.1494 79.0039 65.9048 79.0039ZM65.9048 65.7979C40.336 65.7979 21.3677 55.1206 21.3677 40.8145C21.3677 26.5757 40.3696 15.8984 65.9048 15.8984C91.4888 15.8984 110.555 26.5757 110.555 40.8145C110.555 55.0869 91.44 65.7979 65.9048 65.7979ZM65.9048 60.7334C88.0904 60.7334 105.49 51.8902 105.49 40.8145C105.49 36.0733 102.285 31.7495 96.855 28.3804C91.6924 36.9224 79.5303 42.8242 65.7095 42.8242C51.9829 42.8242 39.9068 37.0049 34.7105 28.5606C29.4912 31.9146 26.4321 36.1221 26.4321 40.8145C26.4321 51.8902 43.6519 60.7334 65.9048 60.7334Z" fill="#000000" fill-opacity="0.85"/>
 </g>
</svg>
