<?xml version="1.0" encoding="UTF-8"?>
<!--Generator: Apple Native CoreSVG 232.5-->
<!DOCTYPE svg
PUBLIC "-//W3C//DTD SVG 1.1//EN"
       "http://www.w3.org/Graphics/SVG/1.1/DTD/svg11.dtd">
<svg version="1.1" xmlns="http://www.w3.org/2000/svg" xmlns:xlink="http://www.w3.org/1999/xlink" width="85.0401" height="124.787">
 <g>
  <rect height="124.787" opacity="0" width="85.0401" x="0" y="0"/>
  <path d="M16.6245 110.522L68.3667 110.522C78.4024 110.522 85.0401 103.588 85.0401 93.0488L85.0401 68.2998C85.0401 56.6245 83.752 44.2471 81.6001 35.3618C79.1822 24.7471 72.0108 17.8838 62.211 16.855C59.7476 16.6108 51.5122 15.9424 42.4956 15.9424C32.3711 15.9424 25.2622 16.6108 22.7988 16.855C13.0142 17.8838 5.84278 24.7471 3.42481 35.3618C1.27295 44.311 0 56.1817 0 67.7139L0 93.0488C0 103.588 6.60743 110.522 16.6245 110.522ZM17.8149 105.458C9.55128 105.458 5.06446 100.627 5.06446 93.0488L5.06446 67.7139C5.06446 56.4546 6.25489 45.0943 8.32423 36.5391C10.3413 27.9976 15.7695 22.7158 23.2822 21.9497C25.6294 21.6904 32.5059 21.0069 42.4956 21.0069C51.2984 21.0069 59.3652 21.6904 61.7276 21.9497C69.2554 22.7158 74.6836 27.9976 76.7007 36.5391C78.7549 45.064 79.9756 56.9126 79.9756 68.2998L79.9756 93.0488C79.9756 100.627 75.4585 105.458 67.1763 105.458ZM42.4956 78.5845C53.9224 78.5357 62.7827 78.0742 68.4043 77.4849C71.5005 77.1582 72.9751 75.1328 72.9751 72.1714L72.9751 64.5586C72.9751 55.5044 72.1314 49.3525 71.3233 45.3545C70.835 42.9336 69.2442 41.25 66.7407 40.9756C61.4151 40.4014 54.8223 39.9956 42.4956 39.9619C30.2026 39.9956 23.6099 40.4014 18.2842 40.9756C15.7808 41.25 14.1899 42.9336 13.7017 45.3545C12.8936 49.3525 12.0498 55.5044 12.0498 64.5586L12.0498 72.1714C12.0498 75.1328 13.4907 77.1582 16.6206 77.4849C22.2422 78.0742 31.1025 78.5357 42.4956 78.5845ZM20.7178 97.6304C24.2993 97.6304 27.0288 94.9497 27.0288 91.2857C27.0288 87.6553 24.3667 84.9898 20.7178 84.9898C17.0874 84.9898 14.4067 87.6553 14.4067 91.2857C14.4067 94.9497 17.0874 97.6304 20.7178 97.6304ZM64.2095 97.6489C67.7725 97.6489 70.5542 94.916 70.5542 91.2857C70.5542 87.689 67.791 84.9561 64.2095 84.9561C60.5791 84.9561 57.8311 87.689 57.8311 91.2857C57.8311 94.916 60.5791 97.6489 64.2095 97.6489ZM30.1152 33.7124L54.9097 33.7124C56.459 33.7124 57.5098 32.6616 57.5098 31.0972C57.5098 29.5479 56.459 28.5308 54.9097 28.5308L30.1152 28.5308C28.5659 28.5308 27.5151 29.5479 27.5151 31.0972C27.5151 32.6616 28.5659 33.7124 30.1152 33.7124ZM3.46875 9.11475C3.46875 10.7988 4.7251 11.8682 6.25928 11.8682C7.12989 11.8682 7.97022 11.4556 8.7129 10.5513C11.459 7.0088 14.4712 5.73927 20.0982 5.73927L64.9268 5.73927C70.5386 5.73927 73.5322 7.0088 76.312 10.5513C77.021 11.4556 77.895 11.8682 78.7656 11.8682C80.2998 11.8682 81.5562 10.7988 81.5562 9.11475C81.5562 7.86182 80.6787 6.51465 79.3418 5.2417C75.3848 1.43115 70.8721 0.0488281 64.9268 0.0488281L20.0982 0.0488281C14.1377 0.0488281 9.59131 1.43115 5.66797 5.2417C4.3125 6.51465 3.46875 7.86182 3.46875 9.11475ZM36.4243 17.5889L25.959 4.92628L18.3149 4.92628L28.7988 17.5889ZM48.6006 17.5889L56.211 17.5889L66.71 4.92628L59.0508 4.92628ZM18.4829 108.685L10.6113 121.299C9.53858 122.968 10.4683 124.787 12.3999 124.787L14.8164 124.787C16.0171 124.787 16.6284 124.408 17.2549 123.403L26.4165 108.685ZM58.3999 108.685L67.5615 123.403C68.188 124.408 68.7993 124.787 70 124.787L72.4165 124.787C74.3633 124.787 75.1768 122.935 74.104 121.299L66.2998 108.685Z" fill="#000000" fill-opacity="0.85"/>
 </g>
</svg>
