<?xml version="1.0" encoding="UTF-8"?>
<!--Generator: Apple Native CoreSVG 232.5-->
<!DOCTYPE svg
PUBLIC "-//W3C//DTD SVG 1.1//EN"
       "http://www.w3.org/Graphics/SVG/1.1/DTD/svg11.dtd">
<svg version="1.1" xmlns="http://www.w3.org/2000/svg" xmlns:xlink="http://www.w3.org/1999/xlink" width="131.858" height="79.1016">
 <g>
  <rect height="79.1016" opacity="0" width="131.858" x="0" y="0"/>
  <path d="M65.8711 79.0039C104.66 79.0039 131.858 61.3638 131.858 39.5264C131.858 17.689 104.66 0 65.8711 0C27.1494 0 0 17.689 0 39.5264C0 61.3638 27.1494 79.0039 65.8711 79.0039ZM65.8711 73.375C30.7183 73.375 5.64406 58.0777 5.64406 39.5264C5.64406 20.9751 30.7183 5.67775 65.8711 5.67775C101.106 5.67775 126.23 20.9751 126.23 39.5264C126.23 58.0777 101.106 73.375 65.8711 73.375ZM65.8711 65.1543C90.9312 65.1543 109.911 54.7652 109.911 40.8145C109.911 26.8975 90.98 16.542 65.8711 16.542C40.8936 16.542 22.0112 26.8975 22.0112 40.8145C22.0112 54.7989 40.8936 65.1543 65.8711 65.1543ZM65.8711 59.4463C44.6323 59.4463 27.7193 51.0781 27.7193 40.8145C27.7193 30.5357 44.5532 22.2652 65.8711 22.2652C87.2564 22.2652 104.203 30.5508 104.203 40.8145C104.203 51.0781 87.1587 59.4463 65.8711 59.4463ZM65.7769 42.8242C80.2124 42.8242 92.8697 36.2925 97.5337 27.1021C88.8565 22.6719 77.3457 20.249 65.8711 20.0132C54.1826 20.249 42.6416 22.687 33.9458 27.1963C38.6587 36.3716 51.2857 42.8242 65.7769 42.8242Z" fill="#000000" fill-opacity="0.85"/>
 </g>
</svg>
