<?xml version="1.0" encoding="UTF-8"?>
<!--Generator: Apple Native CoreSVG 232.5-->
<!DOCTYPE svg
PUBLIC "-//W3C//DTD SVG 1.1//EN"
       "http://www.w3.org/Graphics/SVG/1.1/DTD/svg11.dtd">
<svg version="1.1" xmlns="http://www.w3.org/2000/svg" xmlns:xlink="http://www.w3.org/1999/xlink" width="68.6909" height="106.294">
 <g>
  <rect height="106.294" opacity="0" width="68.6909" x="0" y="0"/>
  <path d="M68.6909 14.4356L68.6909 91.919C68.6909 101.458 63.855 106.294 54.417 106.294L14.2739 106.294C4.80225 106.294 0 101.458 0 91.919L0 14.4356C0 4.93018 4.80225 0.0419915 14.2739 0.0419915L54.417 0.0419915C63.855 0.0419915 68.6909 4.93018 68.6909 14.4356ZM15.7261 62.4756C12.1367 62.4756 10.5005 64.0781 10.5005 67.6826L10.5005 90.3657C10.5005 93.9551 12.1367 95.5576 15.7261 95.5576L52.7964 95.5576C56.4346 95.5576 58.0557 93.9551 58.0557 90.3657L58.0557 67.6826C58.0557 64.0781 56.4346 62.4756 52.7964 62.4756Z" fill="#000000" fill-opacity="0.85"/>
 </g>
</svg>
