<?xml version="1.0" encoding="UTF-8"?>
<!--Generator: Apple Native CoreSVG 232.5-->
<!DOCTYPE svg
PUBLIC "-//W3C//DTD SVG 1.1//EN"
       "http://www.w3.org/Graphics/SVG/1.1/DTD/svg11.dtd">
<svg version="1.1" xmlns="http://www.w3.org/2000/svg" xmlns:xlink="http://www.w3.org/1999/xlink" width="78.7578" height="124.787">
 <g>
  <rect height="124.787" opacity="0" width="78.7578" x="0" y="0"/>
  <path d="M13.4927 109.456L65.2349 109.456C73.4072 109.456 78.7578 103.809 78.7578 95.1665L78.7578 65.3364C78.7578 54.0503 77.4546 42.436 75.5049 34.3291C73.4761 25.2559 67.4722 18.9688 58.5703 18.041C56.2754 17.8306 48.4478 17.1621 39.3638 17.1621C29.7632 17.1621 22.4673 17.8306 20.1572 18.041C11.2705 18.9688 5.30029 25.2559 3.22266 34.3291C1.27295 42.5151 0.0336915 53.8618 0.0336915 65.0386L0.0336915 95.1665C0.0336915 103.809 5.32031 109.456 13.4927 109.456ZM39.3638 78.7192C28.9023 78.6704 19.6343 78.2427 14.1323 77.6533C11.1035 77.3115 9.69629 75.3687 9.69629 72.4595L9.69629 63.4922C9.69629 54.6924 10.4727 48.7427 11.2808 44.7969C11.769 42.4585 13.3262 40.7935 15.7622 40.5342C20.9531 39.9785 28.0361 39.5728 39.3638 39.5391C50.6914 39.5054 57.7744 39.9785 62.9653 40.5342C65.4014 40.7935 66.9922 42.4585 67.4619 44.7969C68.2549 48.7427 69.0313 54.6924 69.0313 63.4922L69.0313 72.4595C69.0313 75.4024 67.624 77.3452 64.5952 77.6533C57.4658 78.3286 48.2163 78.7378 39.3638 78.7192ZM18.0947 98.1729C14.5654 98.1729 12.0195 95.5596 12.0195 91.9966C12.0195 88.4673 14.5654 85.854 18.0947 85.854C21.6577 85.854 24.2861 88.4673 24.2861 91.9966C24.2861 95.5596 21.5903 98.1729 18.0947 98.1729ZM60.5352 98.2066C56.957 98.2066 54.3252 95.5259 54.3252 91.9966C54.3252 88.501 56.957 85.8203 60.5352 85.8203C64.0308 85.8203 66.6592 88.501 66.6592 91.9966C66.6592 95.5259 63.9971 98.2066 60.5352 98.2066ZM27.2715 31.8677C25.7895 31.8677 24.7388 30.8506 24.7388 29.3687C24.7388 27.8379 25.7895 26.8545 27.2715 26.8545L51.4897 26.8545C52.938 26.8545 53.9888 27.8379 53.9888 29.3687C53.9888 30.8506 52.938 31.8677 51.4897 31.8677ZM0.336903 9.11475C0.336903 10.7988 1.55956 11.8682 3.12743 11.8682C3.99804 11.8682 4.83837 11.4556 5.5625 10.5513C8.34228 7.0088 11.3208 5.73927 16.9663 5.73927L61.7949 5.73927C67.4219 5.73927 70.4004 7.0088 73.1802 10.5513C73.8892 11.4556 74.7632 11.8682 75.6338 11.8682C77.168 11.8682 78.3906 10.7988 78.3906 9.11475C78.3906 7.86182 77.5469 6.51465 76.2251 5.2417C72.2681 1.43115 67.7554 0.0488281 61.7949 0.0488281L16.9663 0.0488281C11.021 0.0488281 6.4746 1.43115 2.55126 5.2417C1.18065 6.51465 0.336903 7.86182 0.336903 9.11475ZM34.8154 19.4859L22.8086 4.92628L15.1831 4.92628L27.2236 19.4859ZM43.9272 19.4859L51.5039 19.4859L63.5444 4.92628L55.9341 4.92628ZM15.3511 108.685L7.47948 121.299C6.40673 122.968 7.33642 124.787 9.26806 124.787L11.6997 124.787C12.8667 124.787 13.4966 124.408 14.1382 123.403L23.2847 108.685ZM55.2344 108.685L64.396 123.403C65.0225 124.408 65.6675 124.787 66.8682 124.787L69.2847 124.787C71.1978 124.787 72.0264 122.935 70.9873 121.299L63.1831 108.685Z" fill="#000000" fill-opacity="0.85"/>
 </g>
</svg>
