<?xml version="1.0" encoding="UTF-8"?>
<!--Generator: Apple Native CoreSVG 232.5-->
<!DOCTYPE svg
PUBLIC "-//W3C//DTD SVG 1.1//EN"
       "http://www.w3.org/Graphics/SVG/1.1/DTD/svg11.dtd">
<svg version="1.1" xmlns="http://www.w3.org/2000/svg" xmlns:xlink="http://www.w3.org/1999/xlink" width="77.8911" height="108.961">
 <g>
  <rect height="108.961" opacity="0" width="77.8911" x="0" y="0"/>
  <path d="M27.8135 95.4536L50.1113 95.4536C51.5073 95.4536 52.6104 94.3691 52.6104 92.9395C52.6104 91.5249 51.5073 90.4404 50.1113 90.4404L27.8135 90.4404C26.3838 90.4404 25.2656 91.5249 25.2656 92.9395C25.2656 94.3691 26.3838 95.4536 27.8135 95.4536ZM38.9624 108.583C45.4331 108.583 49.8179 105.279 50.6465 100.121L27.2446 100.121C27.9907 105.279 32.3755 108.583 38.9624 108.583Z" fill="#000000" fill-opacity="0.85"/>
  <path d="M28.2671 85.147L49.624 85.147C50.9732 85.147 51.7193 84.3857 51.7193 83.0855L51.7193 78.3887C51.7193 54.1753 69.0513 41.0913 75.522 27.9312L2.45166 27.9312C8.97119 40.9785 26.1719 54.3706 26.1719 78.3887L26.1719 83.0855C26.1719 84.3857 26.918 85.147 28.2671 85.147Z" fill="#000000" fill-opacity="0.85"/>
  <path d="M0.632811 22.8667L77.2735 22.8667C77.6538 21.52 77.8911 20.1245 77.8911 18.7139C77.8911 6.77051 63.7153 0 38.9624 0C14.1758 0 0 6.77051 0 18.7139C0 20.1245 0.222167 21.4561 0.632811 22.8667Z" fill="#000000" fill-opacity="0.85"/>
 </g>
</svg>
