<?xml version="1.0" encoding="UTF-8"?>
<!--Generator: Apple Native CoreSVG 232.5-->
<!DOCTYPE svg
PUBLIC "-//W3C//DTD SVG 1.1//EN"
       "http://www.w3.org/Graphics/SVG/1.1/DTD/svg11.dtd">
<svg version="1.1" xmlns="http://www.w3.org/2000/svg" xmlns:xlink="http://www.w3.org/1999/xlink" width="79.167" height="116.68">
 <g>
  <rect height="116.68" opacity="0" width="79.167" x="0" y="0"/>
  <path d="M44.8765 98.2505C44.8765 103.806 48.1148 107.014 53.7461 107.014L70.2637 107.014C75.8951 107.014 79.167 103.806 79.167 98.2168L79.167 18.5908C79.167 13.0015 75.8951 9.79346 70.2637 9.79346L53.7461 9.79346C48.1148 9.79346 44.8765 13.0015 44.8765 18.5571ZM52.5459 104.173L52.5459 114.157C52.5459 115.585 53.6743 116.68 55.1026 116.68C56.5308 116.68 57.6592 115.555 57.6592 114.172L57.6592 104.173ZM66.3843 104.173L66.3843 114.172C66.3843 115.555 67.479 116.68 68.9073 116.68C70.3355 116.68 71.4976 115.585 71.4976 114.157L71.4976 104.173ZM62.0049 30.9766C59.6324 30.9766 57.7364 29.0469 57.7364 26.6743C57.7364 24.2715 59.6324 22.3418 62.0049 22.3418C64.4112 22.3418 66.3072 24.2715 66.3072 26.6743C66.3072 29.0469 64.4112 30.9766 62.0049 30.9766ZM62.0049 46.8745C59.6324 46.8745 57.7364 44.9297 57.7364 42.5269C57.7364 40.1543 59.6324 38.2246 62.0049 38.2246C64.4112 38.2246 66.3072 40.1543 66.3072 42.5269C66.3072 44.9297 64.4112 46.8745 62.0049 46.8745ZM62.0049 62.6782C59.6324 62.6782 57.7364 60.8125 57.7364 58.4248C57.7364 56.0523 59.6324 54.1226 62.0049 54.1226C64.4112 54.1226 66.3072 56.0523 66.3072 58.4248C66.3072 60.8125 64.4112 62.6782 62.0049 62.6782ZM62.0049 78.5308C59.6324 78.5308 57.7364 76.6162 57.7364 74.2285C57.7364 71.8408 59.6324 69.96 62.0049 69.96C64.4112 69.96 66.3072 71.8408 66.3072 74.2285C66.3072 76.6162 64.4112 78.5308 62.0049 78.5308ZM62.0049 94.4136C59.6324 94.4136 57.7364 92.4839 57.7364 90.0962C57.7364 87.7237 59.6324 85.794 62.0049 85.794C64.4112 85.794 66.3072 87.7237 66.3072 90.0962C66.3072 92.4839 64.4112 94.4136 62.0049 94.4136Z" fill="#000000" fill-opacity="0.85"/>
  <path d="M0 98.1494C0 103.72 3.23828 106.913 8.83595 106.913L25.4024 106.913C30.9849 106.913 34.2569 103.72 34.2569 98.1157L34.2569 18.4898C34.2569 12.9004 30.9849 9.70753 25.4024 9.70753L8.83595 9.70753C3.23828 9.70753 0 12.9004 0 18.4561ZM7.68457 12.5337L12.7827 12.5337L12.7827 2.53467C12.7827 1.15186 11.6206 0.00829995 10.1924 0.00829995C8.76416 0.00829995 7.68457 1.13672 7.68457 2.54981ZM21.4893 12.5337L26.5874 12.5337L26.5874 2.54981C26.5874 1.13672 25.459 0.00829995 24.0308 0.00829995C22.6026 0.00829995 21.4893 1.15186 21.4893 2.53467ZM17.1284 30.9126C14.7559 30.9126 12.8599 28.9981 12.8599 26.6255C12.8599 24.2227 14.7559 22.293 17.1284 22.293C19.501 22.293 21.4307 24.2227 21.4307 26.6255C21.4307 28.9981 19.501 30.9126 17.1284 30.9126ZM17.1284 46.7466C14.7559 46.7466 12.8599 44.8657 12.8599 42.478C12.8599 40.0718 14.7559 38.1758 17.1284 38.1758C19.501 38.1758 21.4307 40.0718 21.4307 42.478C21.4307 44.8657 19.501 46.7466 17.1284 46.7466ZM17.1284 62.5503C14.7559 62.5503 12.8599 60.6543 12.8599 58.2818C12.8599 55.9092 14.7559 54.0283 17.1284 54.0283C19.501 54.0283 21.4307 55.9092 21.4307 58.2818C21.4307 60.6543 19.501 62.5503 17.1284 62.5503ZM17.1284 78.482C14.7559 78.482 12.8599 76.5523 12.8599 74.1797C12.8599 71.792 14.7559 69.8321 17.1284 69.8321C19.501 69.8321 21.4307 71.792 21.4307 74.1797C21.4307 76.5523 19.501 78.482 17.1284 78.482ZM17.1284 94.3311C14.7559 94.3311 12.8599 92.4351 12.8599 90.0137C12.8599 87.626 14.7559 85.7451 17.1284 85.7451C19.501 85.7451 21.4307 87.626 21.4307 90.0137C21.4307 92.4351 19.501 94.3311 17.1284 94.3311Z" fill="#000000" fill-opacity="0.85"/>
 </g>
</svg>
