<?xml version="1.0" encoding="UTF-8"?>
<!--Generator: Apple Native CoreSVG 232.5-->
<!DOCTYPE svg
PUBLIC "-//W3C//DTD SVG 1.1//EN"
       "http://www.w3.org/Graphics/SVG/1.1/DTD/svg11.dtd">
<svg version="1.1" xmlns="http://www.w3.org/2000/svg" xmlns:xlink="http://www.w3.org/1999/xlink" width="105.84" height="114.493">
 <g>
  <rect height="114.493" opacity="0" width="105.84" x="0" y="0"/>
  <path d="M30.9907 103.481C24.6143 103.481 19.5542 100.166 19.4902 95.4424L42.4912 95.4424C42.3784 100.166 37.2359 103.481 30.9907 103.481ZM45.3926 89.478C45.3926 90.8589 44.2744 91.9097 42.9575 91.9097L18.9566 91.9097C17.6397 91.9097 16.5552 90.8252 16.5552 89.478C16.5552 88.1123 17.6397 87.0279 18.9566 87.0279L42.9575 87.0279C44.2744 87.0279 45.3926 88.0786 45.3926 89.478ZM41.9347 14.45C38.202 19.6538 36.0322 25.9229 36.0322 32.6694C36.0322 48.7561 42.8892 55.0026 46.8905 71.3815C46.345 74.2237 45.892 77.4397 45.564 81.082C45.4175 82.4932 44.52 83.4951 43.023 83.4951L18.812 83.4951C17.3149 83.4951 16.4024 82.4932 16.271 81.082C13.9019 54.7759 5.01319 50.71 5.01319 36.1582C5.01319 22.9688 16.5 12.1523 30.8931 12.1523C34.8606 12.1523 38.6051 12.9687 41.9347 14.45Z" fill="#000000" fill-opacity="0.85"/>
  <path d="M70.9361 5.04688C54.211 5.04688 41.0303 17.4898 41.0303 32.6694C41.0303 49.3765 51.3838 54.0737 54.1621 85C54.3272 86.5728 55.1153 87.4956 56.895 87.4956L84.9771 87.4956C86.7232 87.4956 87.545 86.5728 87.6914 85C90.4698 54.0737 100.827 49.3765 100.827 32.6694C100.827 17.4898 87.6426 5.04688 70.9361 5.04688ZM56.9907 96.6089L84.9268 96.6089C86.3565 96.6089 87.441 95.5733 87.441 94.1436C87.441 92.7139 86.3565 91.6782 84.9268 91.6782L56.9907 91.6782C55.5611 91.6782 54.5254 92.7139 54.5254 94.1436C54.5254 95.5733 55.5611 96.6089 56.9907 96.6089ZM70.9663 109.428C78.0078 109.428 83.6875 105.951 83.9991 100.792L57.9185 100.792C58.1963 105.951 63.876 109.428 70.9663 109.428Z" fill="#000000" fill-opacity="0.85"/>
 </g>
</svg>
