<?xml version="1.0" encoding="UTF-8"?>
<!--Generator: Apple Native CoreSVG 232.5-->
<!DOCTYPE svg
PUBLIC "-//W3C//DTD SVG 1.1//EN"
       "http://www.w3.org/Graphics/SVG/1.1/DTD/svg11.dtd">
<svg version="1.1" xmlns="http://www.w3.org/2000/svg" xmlns:xlink="http://www.w3.org/1999/xlink" width="112.466" height="78.7188">
 <g>
  <rect height="78.7188" opacity="0" width="112.466" x="0" y="0"/>
  <path d="M109.536 5.92531C111.132 5.87648 112.466 4.60646 112.466 2.99464C112.466 1.47705 111.136 0.0488281 109.536 0.0488281L20.4673 0C18.8672 0 17.5215 1.42823 17.5215 2.9795C17.5215 4.57618 18.8857 5.86134 20.4673 5.87648ZM65.0503 38.3823C85.4707 38.3823 100.199 23.5801 100.143 3.10743L94.3003 3.10743C94.356 20.1475 82.0078 32.5059 65.0503 32.5059C48.0288 32.5059 35.6807 20.1323 35.7364 3.10743L29.9087 3.10743C29.8682 23.5801 44.5474 38.3823 65.0503 38.3823ZM37.7271 77.3731L71.7989 43.2676C68.5616 43.8218 66.9146 43.751 63.1685 43.751L33.5332 73.2583C32.334 74.4424 32.3491 76.1402 33.5484 77.4034C34.7661 78.5723 36.4639 78.6026 37.7271 77.3731ZM26.834 66.5103L51.5699 41.7256C49.52 41.1109 47.5039 40.2974 45.7051 39.3457L22.6402 62.3316C21.4746 63.5645 21.4561 65.2437 22.6402 66.5103C23.8731 67.6792 25.6011 67.7095 26.834 66.5103ZM15.9561 55.6475L37.6607 33.9243C36.1953 32.6123 34.8648 31.1621 33.6504 29.5957L11.7774 51.4536C10.6118 52.6865 10.5747 54.4146 11.7588 55.6138C13.0103 56.8467 14.7232 56.9141 15.9561 55.6475ZM5.02931 44.7544L28.374 21.3946C27.4932 19.461 26.7959 17.4263 26.2671 15.208L0.914553 40.5606C-0.28125 41.8237-0.284669 43.5215 0.865725 44.7207C2.11719 45.9385 3.7964 45.9873 5.02931 44.7544Z" fill="#000000" fill-opacity="0.85"/>
 </g>
</svg>
