<?xml version="1.0" encoding="UTF-8"?>
<!--Generator: Apple Native CoreSVG 232.5-->
<!DOCTYPE svg
PUBLIC "-//W3C//DTD SVG 1.1//EN"
       "http://www.w3.org/Graphics/SVG/1.1/DTD/svg11.dtd">
<svg version="1.1" xmlns="http://www.w3.org/2000/svg" xmlns:xlink="http://www.w3.org/1999/xlink" width="92.0532" height="97.2881">
 <g>
  <rect height="97.2881" opacity="0" width="92.0532" x="0" y="0"/>
  <path d="M46.0098 47.9009C67.5166 47.9009 83.979 53.2603 92.0381 62.4873L92.0381 25.2505C92.0381 10.0591 73.8867 0 46.0098 0C18.1665 0 0 10.0591 0 25.2505L0 62.4873C8.05909 53.2603 24.5029 47.9009 46.0098 47.9009ZM46.0098 97.2393C72.854 97.2393 91.9185 88.5782 91.9185 75.4229C91.9185 62.2525 72.854 53.5913 46.0098 53.5913C19.1992 53.5913 0.134766 62.2525 0.134766 75.4229C0.134766 88.5782 19.1992 97.2393 46.0098 97.2393ZM46.0098 73.6787C35.5098 73.6787 27.0923 68.2368 26.5938 61.7036C32.1958 60.4947 38.793 59.8076 46.0098 59.8076C53.2754 59.8076 59.8237 60.4947 65.4746 61.7188C64.9458 68.2368 56.4946 73.6787 46.0098 73.6787Z" fill="#000000" fill-opacity="0.85"/>
 </g>
</svg>
