<?xml version="1.0" encoding="UTF-8"?>
<!--Generator: Apple Native CoreSVG 232.5-->
<!DOCTYPE svg
PUBLIC "-//W3C//DTD SVG 1.1//EN"
       "http://www.w3.org/Graphics/SVG/1.1/DTD/svg11.dtd">
<svg version="1.1" xmlns="http://www.w3.org/2000/svg" xmlns:xlink="http://www.w3.org/1999/xlink" width="97.9595" height="97.9932">
 <g>
  <rect height="97.9932" opacity="0" width="97.9595" x="0" y="0"/>
  <path d="M97.9595 48.9722C97.9595 75.7759 75.8247 97.9443 48.9722 97.9443C22.1685 97.9443 0 75.7759 0 48.9722C0 22.1348 22.1348 0 48.9385 0C75.791 0 97.9595 22.1348 97.9595 48.9722ZM42.2861 75.082C42.5151 77.6094 45.3706 79.2881 48.9722 79.2881C52.5889 79.2881 55.3955 77.6094 55.6733 75.082ZM41.1362 68.9072C40.1494 68.9072 39.3579 69.7139 39.3579 70.6856C39.3579 71.6572 40.1494 72.4639 41.1362 72.4639L56.8232 72.4639C57.7949 72.4639 58.6353 71.6572 58.6353 70.6856C58.6353 69.7139 57.7949 68.9072 56.8232 68.9072ZM31.584 34.4751C31.584 44.1738 38.228 46.8574 39.2417 64.7651C39.3242 65.6963 39.9253 66.2554 40.7622 66.2554L57.1299 66.2554C58.0342 66.2554 58.669 65.6963 58.7178 64.7651C59.6641 46.8574 66.3604 44.3272 66.3604 34.6284C66.3604 25.8003 58.6841 18.5923 48.9385 18.5923C39.2417 18.5923 31.584 25.647 31.584 34.4751Z" fill="#000000" fill-opacity="0.85"/>
 </g>
</svg>
