<?xml version="1.0" encoding="UTF-8"?>
<!--Generator: Apple Native CoreSVG 232.5-->
<!DOCTYPE svg
PUBLIC "-//W3C//DTD SVG 1.1//EN"
       "http://www.w3.org/Graphics/SVG/1.1/DTD/svg11.dtd">
<svg version="1.1" xmlns="http://www.w3.org/2000/svg" xmlns:xlink="http://www.w3.org/1999/xlink" width="122.234" height="91.1943">
 <g>
  <rect height="91.1943" opacity="0" width="122.234" x="0" y="0"/>
  <path d="M0 88.0532C0 89.7173 1.34912 91.1001 2.99805 91.1001L119.221 91.1001C120.885 91.1001 122.234 89.7173 122.234 88.0532C122.234 86.4043 120.885 85.0552 119.221 85.0552L2.99805 85.0552C1.34912 85.0552 0 86.4043 0 88.0532ZM0 3.04688C0 4.69581 1.34912 6.04494 2.99805 6.04494L119.221 6.04494C120.885 6.04494 122.234 4.69581 122.234 3.04688C122.234 1.38282 120.885 0 119.221 0L2.99805 0C1.34912 0 0 1.38282 0 3.04688Z" fill="#000000" fill-opacity="0.85"/>
  <path d="M47.9971 67.7847L61.1431 58.208L74.2705 67.7847C76.3032 69.3037 78.6543 67.9463 77.7769 65.2686L72.6787 49.8228L86.0083 40.1939C88.1455 38.7017 87.231 36.0947 84.7368 36.0947L68.2251 36.0947L63.3106 20.7315C62.5493 18.3955 59.7217 18.4106 59.0093 20.7315L54.0425 36.0947L37.4971 36.0947C34.9878 36.0947 34.0884 38.7017 36.2105 40.1939L49.6226 49.8228L44.4907 65.2686C43.6133 67.9463 45.9492 69.3037 47.9971 67.7847Z" fill="#000000" fill-opacity="0.85"/>
 </g>
</svg>
