<?xml version="1.0" encoding="UTF-8"?>
<!--Generator: Apple Native CoreSVG 232.5-->
<!DOCTYPE svg
PUBLIC "-//W3C//DTD SVG 1.1//EN"
       "http://www.w3.org/Graphics/SVG/1.1/DTD/svg11.dtd">
<svg version="1.1" xmlns="http://www.w3.org/2000/svg" xmlns:xlink="http://www.w3.org/1999/xlink" width="107.365" height="85.1944">
 <g>
  <rect height="85.1944" opacity="0" width="107.365" x="0" y="0"/>
  <path d="M103.077 66.0181C105.898 66.0181 107.365 64.5513 107.365 61.749L107.365 23.4453C107.365 20.6431 105.898 19.1763 103.077 19.1763C100.275 19.1763 98.8081 20.6431 98.8081 23.4453L98.8081 61.749C98.8081 64.5513 100.275 66.0181 103.077 66.0181Z" fill="#000000" fill-opacity="0.85"/>
  <path d="M78.376 53.8496C81.1631 53.8496 82.6299 52.398 82.6299 49.5772L82.6299 35.6172C82.6299 32.7964 81.1631 31.3447 78.376 31.3447C75.5738 31.3447 74.1221 32.7964 74.1221 35.6172L74.1221 49.5772C74.1221 52.398 75.5738 53.8496 78.376 53.8496Z" fill="#000000" fill-opacity="0.85"/>
  <path d="M53.69 85.1944C56.4771 85.1944 57.9776 83.7276 57.9776 80.9404L57.9776 4.25391C57.9776 1.4668 56.4771 0 53.69 0C50.8877 0 49.3872 1.4668 49.3872 4.25391L49.3872 80.9404C49.3872 83.7276 50.8877 85.1944 53.69 85.1944Z" fill="#000000" fill-opacity="0.85"/>
  <path d="M29.0039 53.8496C31.791 53.8496 33.2427 52.398 33.2427 49.5772L33.2427 35.6172C33.2427 32.7964 31.791 31.3447 29.0039 31.3447C26.2017 31.3447 24.7349 32.7964 24.7349 35.6172L24.7349 49.5772C24.7349 52.398 26.2017 53.8496 29.0039 53.8496Z" fill="#000000" fill-opacity="0.85"/>
  <path d="M4.30274 66.0181C7.08985 66.0181 8.55665 64.5513 8.55665 61.749L8.55665 23.4453C8.55665 20.6431 7.08985 19.1763 4.30274 19.1763C1.4668 19.1763 0 20.6431 0 23.4453L0 61.749C0 64.5513 1.4668 66.0181 4.30274 66.0181Z" fill="#000000" fill-opacity="0.85"/>
 </g>
</svg>
