<?xml version="1.0" encoding="UTF-8"?>
<!--Generator: Apple Native CoreSVG 232.5-->
<!DOCTYPE svg
PUBLIC "-//W3C//DTD SVG 1.1//EN"
       "http://www.w3.org/Graphics/SVG/1.1/DTD/svg11.dtd">
<svg version="1.1" xmlns="http://www.w3.org/2000/svg" xmlns:xlink="http://www.w3.org/1999/xlink" width="84.9883" height="104.145">
 <g>
  <rect height="104.145" opacity="0" width="84.9883" x="0" y="0"/>
  <path d="M48.2608 7.24707L79.0864 35.6162C83.0249 39.2432 84.9883 44.3569 84.9883 50.8042L84.9883 75.9814C84.9883 93.1577 73.9712 104.141 56.7949 104.141L13.8565 104.141C5.11231 104.141 0 99.0508 0 90.3857L0 13.8565C0 5.3667 5.34473 0 13.7554 0L28.7979 0C36.2485 0 42.4028 1.88086 48.2608 7.24707ZM21.3325 79.3364C19.8555 79.3364 18.7944 80.2661 18.7944 81.6909C18.7944 83.1343 19.8555 84.0791 21.3325 84.0791L63.0308 84.0791C64.4775 84.0791 65.5049 83.1343 65.5049 81.6909C65.5049 80.2661 64.4775 79.3364 63.0308 79.3364ZM21.3325 64.4463C19.8555 64.4463 18.7944 65.3911 18.7944 66.8345C18.7944 68.2441 19.8555 69.189 21.3325 69.189L63.0308 69.189C64.4775 69.189 65.5049 68.2441 65.5049 66.8345C65.5049 65.3911 64.4775 64.4463 63.0308 64.4463ZM21.3325 49.6504C19.8555 49.6504 18.7944 50.5952 18.7944 52.0049C18.7944 53.4634 19.8555 54.4082 21.3325 54.4082L63.0308 54.4082C64.4775 54.4082 65.5049 53.4634 65.5049 52.0049C65.5049 50.5952 64.4775 49.6504 63.0308 49.6504Z" fill="#000000" fill-opacity="0.85"/>
 </g>
</svg>
