<?xml version="1.0" encoding="UTF-8"?>
<!--Generator: Apple Native CoreSVG 232.5-->
<!DOCTYPE svg
PUBLIC "-//W3C//DTD SVG 1.1//EN"
       "http://www.w3.org/Graphics/SVG/1.1/DTD/svg11.dtd">
<svg version="1.1" xmlns="http://www.w3.org/2000/svg" xmlns:xlink="http://www.w3.org/1999/xlink" width="97.9595" height="97.9932">
 <g>
  <rect height="97.9932" opacity="0" width="97.9595" x="0" y="0"/>
  <path d="M48.9722 97.9443C59.8525 97.9443 69.9854 94.294 78.165 88.1382C65.9507 86.4209 56.4473 80.3897 50.8149 70.6118C47.5742 64.9048 46.4189 59.4048 46.0332 53.8823C42.3867 56.4448 39.148 59.4517 36.4966 63.98C30.8931 73.6026 31.5669 84.8652 38.0855 96.544C41.5938 97.4512 45.2266 97.9443 48.9722 97.9443ZM30.0059 94.0664C25.1548 82.4097 25.478 70.896 31.2349 60.9668C34.2603 55.8218 37.9927 52.1665 42.2524 49.1475C37.9409 47.2368 34.2051 46.4473 29.8564 46.4473C18.8481 46.4473 9.45117 52.7329 2.6709 64.752C7.19532 77.9165 17.2554 88.6802 30.0059 94.0664ZM0.621092 56.5864C8.20654 46.1641 18.2368 40.4023 29.8564 40.4023C35.855 40.4023 40.8032 41.8433 45.5918 44.1279C45.2397 38.7158 44.1016 34.8135 41.7329 30.7192C36.2456 21.2363 26.227 16.2627 12.7314 16.354C4.82519 24.9815 0 36.4507 0 48.9722C0 51.563 0.255859 54.0898 0.621092 56.5864ZM51.6216 43.1533C56.1431 40.123 58.9595 37.1953 61.313 33.1836C66.7769 23.8555 66.103 12.8418 59.4565 1.27246C56.1099 0.444335 52.5713 0 48.9385 0C37.6206 0 27.0957 3.97851 18.7915 10.5718C31.376 11.9492 41.2227 17.7432 46.9795 27.7549C49.9678 32.9604 51.1719 37.9136 51.6216 43.1533ZM69.0166 52.5117C79.7944 52.5117 89.0366 46.6299 95.7681 35.5884C91.8511 21.2241 81.2407 9.3667 67.4873 3.71631C72.4024 15.1577 72.2373 26.3735 66.5259 36.1631C63.2061 41.9341 58.9419 45.544 54.2447 48.6235C58.5562 50.8018 63.0728 52.5117 69.0166 52.5117ZM84.3076 82.4165C92.7271 73.7251 97.9595 61.8975 97.9595 48.9722C97.9595 47.2041 97.8618 45.5186 97.6631 43.7842C90.0474 53.3687 80.187 58.5415 69.0166 58.5415C62.4072 58.5415 57.0366 56.7725 52.0781 54.333C52.4605 58.7422 53.4102 63.0518 56.0767 67.6475C61.4697 77.0513 71.3218 82.1343 84.3076 82.4165Z" fill="#000000" fill-opacity="0.85"/>
 </g>
</svg>
