<?xml version="1.0" encoding="UTF-8"?>
<!--Generator: Apple Native CoreSVG 232.5-->
<!DOCTYPE svg
PUBLIC "-//W3C//DTD SVG 1.1//EN"
       "http://www.w3.org/Graphics/SVG/1.1/DTD/svg11.dtd">
<svg version="1.1" xmlns="http://www.w3.org/2000/svg" xmlns:xlink="http://www.w3.org/1999/xlink" width="97.9595" height="97.9932">
 <g>
  <rect height="97.9932" opacity="0" width="97.9595" x="0" y="0"/>
  <path d="M48.9722 97.9443C75.8247 97.9443 97.9595 75.7759 97.9595 48.9722C97.9595 22.1348 75.791 0 48.9385 0C22.1348 0 0 22.1348 0 48.9722C0 75.7759 22.1685 97.9443 48.9722 97.9443ZM48.9722 91.6113C25.3501 91.6113 6.36671 72.5942 6.36671 48.9722C6.36671 25.3501 25.3164 6.31789 48.9385 6.31789C72.5605 6.31789 91.6265 25.3501 91.6265 48.9722C91.6265 72.5942 72.5942 91.6113 48.9722 91.6113Z" fill="#000000" fill-opacity="0.85"/>
  <path d="M21.9707 45.6172L76.0864 45.6172C77.7354 45.6172 78.9649 44.5191 78.9649 42.9072C78.9649 41.2954 77.7354 40.231 76.0864 40.231L21.9707 40.231C20.273 40.231 19.0772 41.2954 19.0772 42.9072C19.0772 44.5191 20.273 45.6172 21.9707 45.6172ZM29.1367 61.7339L68.9204 61.7339C70.5693 61.7339 71.7651 60.6206 71.7651 59.0239C71.7651 57.4121 70.5693 56.3325 68.9204 56.3325L29.1367 56.3325C27.439 56.3325 26.2432 57.4121 26.2432 59.0239C26.2432 60.6206 27.439 61.7339 29.1367 61.7339Z" fill="#000000" fill-opacity="0.85"/>
 </g>
</svg>
