<?xml version="1.0" encoding="UTF-8"?>
<!--Generator: Apple Native CoreSVG 232.5-->
<!DOCTYPE svg
PUBLIC "-//W3C//DTD SVG 1.1//EN"
       "http://www.w3.org/Graphics/SVG/1.1/DTD/svg11.dtd">
<svg version="1.1" xmlns="http://www.w3.org/2000/svg" xmlns:xlink="http://www.w3.org/1999/xlink" width="97.9595" height="97.9932">
 <g>
  <rect height="97.9932" opacity="0" width="97.9595" x="0" y="0"/>
  <path d="M97.9595 49.021C97.9595 75.8584 75.8247 97.9932 48.9722 97.9932C22.1685 97.9932 0 75.8584 0 49.021C0 22.2173 22.1348 0.0488281 48.9385 0.0488281C75.791 0.0488281 97.9595 22.2173 97.9595 49.021ZM45.7432 42.6978C48.1592 42.8545 50.0835 43.6997 51.6675 45.2954C55.6948 49.2656 55.2266 54.6148 50.3267 59.417L41.9043 67.8276C37.1358 72.6079 31.8994 73.0273 27.9141 69.0454C23.8496 65.0938 24.2202 59.7935 29.1016 55.0552L35.5034 48.6753C34.9155 47.0249 34.9272 44.6284 35.7236 42.3618L25.9673 52.0356C19.2671 58.7544 18.772 66.2524 24.79 72.2066C30.7373 78.1084 38.2085 77.6807 44.9273 70.9282L53.4458 62.5225C60.2959 55.7026 60.7944 48.1743 54.7427 42.2354C52.7949 40.2168 50.7173 39.0449 48.9531 38.7857C47.7793 39.6108 46.3579 41.167 45.7432 42.6978ZM51.1719 26.8765L42.6719 35.3159C35.8369 42.1021 35.3384 49.6489 41.3901 55.603C43.3379 57.5879 45.4155 58.7935 47.146 59.0376C48.3198 58.2275 49.7749 56.6714 50.3897 55.1255C47.9736 54.9502 46.0493 54.105 44.4502 52.543C40.438 48.5391 40.8574 43.2236 45.8062 38.3877L54.2134 29.9619C58.9971 25.1817 64.2334 24.7774 68.2188 28.7593C72.2495 32.7109 71.9277 37.9961 67.0313 42.7495L60.6294 49.1631C61.2173 50.7798 61.2056 53.21 60.4092 55.4429L70.1167 45.7876C76.8657 39.0352 77.3609 31.5371 71.3276 25.5981C65.3467 19.6812 57.9243 20.1089 51.1719 26.8765Z" fill="#000000" fill-opacity="0.85"/>
 </g>
</svg>
