<?xml version="1.0" encoding="UTF-8"?>
<!--Generator: Apple Native CoreSVG 232.5-->
<!DOCTYPE svg
PUBLIC "-//W3C//DTD SVG 1.1//EN"
       "http://www.w3.org/Graphics/SVG/1.1/DTD/svg11.dtd">
<svg version="1.1" xmlns="http://www.w3.org/2000/svg" xmlns:xlink="http://www.w3.org/1999/xlink" width="119.848" height="89.0987">
 <g>
  <rect height="89.0987" opacity="0" width="119.848" x="0" y="0"/>
  <path d="M94.5166 82.2295C108.763 82.2295 119.848 72.0742 119.848 59.2066C119.848 49.2554 114.272 40.5352 104.63 36.8945C105 15.6016 89.7954 0 70.3848 0C57.0918 0 47.9102 7.24658 42.4595 15.9883C30.7959 11.9883 17.8008 21.0737 17.7231 34.5034C6.96045 35.8374 0 45.2163 0 56.8731C0 70.835 12.0493 82.1841 28.1431 82.1841ZM94.4863 76.1846L28.1279 76.1543C15.46 76.1543 6.04494 67.4243 6.04494 56.8731C6.04494 47.0166 11.9985 39.2529 22.3198 39.2529C22.9429 39.2529 23.1719 38.9263 23.1719 38.3369C23.1719 23.9487 34.0874 18.5064 44.3242 22.2168C44.8648 22.4121 45.1914 22.2656 45.4693 21.7588C50.2661 13.2661 57.6172 6.04494 70.3848 6.04494C86.3853 6.04494 97.7871 18.6646 98.7837 33.8477C98.915 35.8516 98.7534 38.2158 98.6338 40.3443C98.6001 40.9033 98.8291 41.2451 99.3545 41.3765C108.211 43.5112 113.803 50.3233 113.803 59.2066C113.803 68.7578 105.401 76.1846 94.4863 76.1846Z" fill="#000000" fill-opacity="0.85"/>
  <path d="M40.8735 63.0088C46.0479 68.1797 53.3858 68.1494 58.5938 63.0088L68.3662 53.2515C73.5405 48.126 73.4614 40.7847 68.3662 35.565C66.3696 33.4893 64.0112 32.6221 62.5161 32.3794L60.522 34.3399C60.1094 34.8013 59.6109 35.3184 58.8364 36.2798C60.7207 35.7866 63.313 36.6133 65.3062 38.625C68.7627 42.063 68.8115 46.9556 65.1968 50.5366L55.8638 59.9033C52.3618 63.4053 47.3867 63.4204 43.9336 59.9824C40.4468 56.4619 40.4771 51.5357 43.9942 48.0337L48.523 43.5352C48.1001 41.6221 48.228 39.3555 49.2837 36.897L40.8735 45.2886C35.7178 50.4292 35.7178 57.8042 40.8735 63.0088ZM81.5586 22.3726C76.4028 17.1528 69.0127 17.1982 63.8233 22.354L54.0508 32.0962C48.9102 37.2217 48.959 44.627 54.1148 49.8164C56.1113 51.877 58.5068 52.7442 59.9009 53.002L61.9287 51.0078C62.562 50.2583 62.7539 50.0293 63.3599 49.2363C61.5952 49.5576 59.0215 48.6519 57.126 46.7564C53.6392 43.2695 53.6509 38.4107 57.2202 34.875L66.5532 25.5083C70.1343 21.9273 75.0303 21.9273 78.4683 25.4141C81.9214 28.9497 81.9248 33.8457 78.4229 37.3628L73.9092 41.7939C74.3169 43.7593 74.189 46.0259 73.1333 48.4844L81.5586 40.0742C86.6992 34.8848 86.6353 27.5435 81.5586 22.3726Z" fill="#000000" fill-opacity="0.85"/>
 </g>
</svg>
