<?xml version="1.0" encoding="UTF-8"?>
<!--Generator: Apple Native CoreSVG 232.5-->
<!DOCTYPE svg
PUBLIC "-//W3C//DTD SVG 1.1//EN"
       "http://www.w3.org/Graphics/SVG/1.1/DTD/svg11.dtd">
<svg version="1.1" xmlns="http://www.w3.org/2000/svg" xmlns:xlink="http://www.w3.org/1999/xlink" width="114.883" height="82.7285">
 <g>
  <rect height="82.7285" opacity="0" width="114.883" x="0" y="0"/>
  <path d="M2.84473 5.70802L93.8115 5.70802C95.4233 5.70802 96.7236 4.47511 96.7236 2.8296C96.7236 1.23291 95.4233 0 93.8115 0L2.84473 0C1.23291 0 0 1.23291 0 2.8296C0 4.47511 1.23291 5.70802 2.84473 5.70802ZM2.84473 31.3242L35.6933 31.3242C37.3389 31.3242 38.6055 30.0913 38.6055 28.4458C38.6055 26.8491 37.3389 25.6162 35.6933 25.6162L2.84473 25.6162C1.23291 25.6162 0 26.8491 0 28.4458C0 30.0913 1.23291 31.3242 2.84473 31.3242ZM2.84473 56.9404L35.6933 56.9404C37.3389 56.9404 38.6055 55.6738 38.6055 54.0772C38.6055 52.4653 37.3389 51.2324 35.6933 51.2324L2.84473 51.2324C1.23291 51.2324 0 52.4653 0 54.0772C0 55.6738 1.23291 56.9404 2.84473 56.9404ZM2.84473 82.523L35.6933 82.523C37.3389 82.523 38.6055 81.29 38.6055 79.6934C38.6055 78.0815 37.3389 76.8149 35.6933 76.8149L2.84473 76.8149C1.23291 76.8149 0 78.0815 0 79.6934C0 81.29 1.23291 82.523 2.84473 82.523Z" fill="#000000" fill-opacity="0.85"/>
  <path d="M52.6094 81.3989L109.06 81.3989C112.688 81.3989 114.883 79.2383 114.883 75.6431L114.883 32.5566C114.883 29.0591 112.688 26.8345 109.06 26.8345L52.6094 26.8345C48.9805 26.8345 46.7861 29.0591 46.7861 32.5566L46.7861 75.6431C46.7861 79.2383 48.9805 81.3989 52.6094 81.3989ZM52.9092 39.8457C51.8569 39.8457 51.207 39.1621 51.207 38.1738L51.207 32.9541C51.207 31.9019 51.8569 31.188 52.9092 31.188L57.4082 31.188C58.479 31.188 59.1289 31.9019 59.1289 32.9541L59.1289 38.1738C59.1289 39.1621 58.479 39.8457 57.4082 39.8457ZM52.9092 52.2231C51.8569 52.2231 51.207 51.5396 51.207 50.6187L51.207 45.3652C51.207 44.313 51.8569 43.6143 52.9092 43.6143L57.4082 43.6143C58.479 43.6143 59.1289 44.313 59.1289 45.3652L59.1289 50.6187C59.1289 51.5396 58.479 52.2231 57.4082 52.2231ZM52.9092 64.5855C51.8569 64.5855 51.207 63.9356 51.207 62.981L51.207 57.7275C51.207 56.6753 51.8569 55.9766 52.9092 55.9766L57.4082 55.9766C58.479 55.9766 59.1289 56.6753 59.1289 57.7275L59.1289 62.981C59.1289 63.9356 58.479 64.5855 57.4082 64.5855ZM52.9092 77.0117C51.8569 77.0117 51.207 76.3618 51.207 75.3584L51.207 70.105C51.207 69.0679 51.8569 68.354 52.9092 68.354L57.4082 68.354C58.479 68.354 59.1289 69.0679 59.1289 70.105L59.1289 75.3584C59.1289 76.3618 58.479 77.0117 57.4082 77.0117ZM104.261 39.8457C103.19 39.8457 102.525 39.1621 102.525 38.1738L102.525 32.9541C102.525 31.9019 103.19 31.188 104.261 31.188L108.76 31.188C109.797 31.188 110.462 31.9019 110.462 32.9541L110.462 38.1738C110.462 39.1621 109.797 39.8457 108.76 39.8457ZM104.261 52.2231C103.19 52.2231 102.525 51.5396 102.525 50.6187L102.525 45.3652C102.525 44.313 103.19 43.6143 104.261 43.6143L108.76 43.6143C109.797 43.6143 110.462 44.313 110.462 45.3652L110.462 50.6187C110.462 51.5396 109.797 52.2231 108.76 52.2231ZM104.261 64.5855C103.19 64.5855 102.525 63.9356 102.525 62.981L102.525 57.7275C102.525 56.6753 103.19 55.9766 104.261 55.9766L108.76 55.9766C109.797 55.9766 110.462 56.6753 110.462 57.7275L110.462 62.981C110.462 63.9356 109.797 64.5855 108.76 64.5855ZM104.261 77.0117C103.19 77.0117 102.525 76.3618 102.525 75.3584L102.525 70.105C102.525 69.0679 103.19 68.354 104.261 68.354L108.76 68.354C109.797 68.354 110.462 69.0679 110.462 70.105L110.462 75.3584C110.462 76.3618 109.797 77.0117 108.76 77.0117ZM65.0381 75.7246C64.0801 75.7246 63.4639 75.0933 63.4639 74.1167L63.4639 58.6275C63.4639 57.6021 64.0801 56.9859 65.0381 56.9859L96.6309 56.9859C97.5889 56.9859 98.2051 57.6021 98.2051 58.6275L98.2051 74.1167C98.2051 75.0933 97.5889 75.7246 96.6309 75.7246ZM65.0381 51.2812C64.0801 51.2812 63.4639 50.665 63.4639 49.6733L63.4639 34.083C63.4639 33.1065 64.0801 32.4902 65.0381 32.4902L96.6309 32.4902C97.5889 32.4902 98.2051 33.1065 98.2051 34.083L98.2051 49.6733C98.2051 50.665 97.5889 51.2812 96.6309 51.2812Z" fill="#000000" fill-opacity="0.85"/>
 </g>
</svg>
