<?xml version="1.0" encoding="UTF-8"?>
<!--Generator: Apple Native CoreSVG 232.5-->
<!DOCTYPE svg
PUBLIC "-//W3C//DTD SVG 1.1//EN"
       "http://www.w3.org/Graphics/SVG/1.1/DTD/svg11.dtd">
<svg version="1.1" xmlns="http://www.w3.org/2000/svg" xmlns:xlink="http://www.w3.org/1999/xlink" width="114.35" height="88.4395">
 <g>
  <rect height="88.4395" opacity="0" width="114.35" x="0" y="0"/>
  <path d="M114.35 14.2739L114.35 74.169C114.35 83.5615 109.514 88.4092 99.9409 88.4092L14.3936 88.4092C4.86963 88.4092 0 83.6069 0 74.169L0 14.2739C0 4.83594 4.86963 0 14.3936 0L99.9409 0C109.514 0 114.35 4.88135 114.35 14.2739ZM16.4478 67.8784C16.4478 70.3569 18.5205 72.4297 20.9653 72.4297C23.5112 72.4297 25.5503 70.3906 25.5503 67.8784C25.5503 65.3662 23.5112 63.2783 20.9653 63.2783C18.5205 63.2783 16.4478 65.3848 16.4478 67.8784ZM37.0742 65.3892C35.6157 65.3892 34.5513 66.4536 34.5513 67.8784C34.5513 69.2881 35.6494 70.3862 37.0742 70.3862L70.6089 70.3862C72 70.3862 73.0981 69.2881 73.0981 67.8784C73.0981 66.4536 72.0337 65.3892 70.6089 65.3892ZM16.4478 51.7314C16.4478 54.2925 18.4868 56.2979 20.9653 56.2979C23.5112 56.2979 25.5503 54.2925 25.5503 51.7314C25.5503 49.2529 23.5112 47.2139 20.9653 47.2139C18.4868 47.2139 16.4478 49.2866 16.4478 51.7314ZM37.0742 49.291C35.6157 49.291 34.5513 50.3555 34.5513 51.7314C34.5513 53.2236 35.6157 54.2881 37.0742 54.2881L96.0351 54.2881C97.4936 54.2881 98.5581 53.2236 98.5581 51.7314C98.5581 50.3555 97.4936 49.291 96.0351 49.291ZM16.4478 36.1572C16.4478 38.6357 18.5205 40.7085 20.9653 40.7085C23.5112 40.7085 25.5503 38.6694 25.5503 36.1572C25.5503 33.6113 23.5112 31.5908 20.9653 31.5908C18.5205 31.5908 16.4478 33.645 16.4478 36.1572ZM37.0742 33.6343C35.6494 33.6343 34.5513 34.7661 34.5513 36.1572C34.5513 37.5332 35.6494 38.6465 37.0742 38.6465L70.6089 38.6465C72 38.6465 73.0981 37.5332 73.0981 36.1572C73.0981 34.7661 72 33.6343 70.6089 33.6343ZM16.4478 20.5342C16.4478 22.979 18.5205 25.0855 20.9653 25.0855C23.5112 25.0855 25.5503 23.0127 25.5503 20.5342C25.5503 17.9883 23.5112 15.9829 20.9653 15.9829C18.5205 15.9829 16.4478 18.022 16.4478 20.5342ZM37.0742 17.9775C35.6494 17.9775 34.5513 19.0908 34.5513 20.5342C34.5513 21.9253 35.6157 22.9898 37.0742 22.9898L96.0351 22.9898C97.4936 22.9898 98.5581 21.9253 98.5581 20.5342C98.5581 19.0908 97.46 17.9775 96.0351 17.9775Z" fill="#000000" fill-opacity="0.85"/>
 </g>
</svg>
