<?xml version="1.0" encoding="UTF-8"?>
<!--Generator: Apple Native CoreSVG 232.5-->
<!DOCTYPE svg
PUBLIC "-//W3C//DTD SVG 1.1//EN"
       "http://www.w3.org/Graphics/SVG/1.1/DTD/svg11.dtd">
<svg version="1.1" xmlns="http://www.w3.org/2000/svg" xmlns:xlink="http://www.w3.org/1999/xlink" width="120.438" height="70.1035">
 <g>
  <rect height="70.1035" opacity="0" width="120.438" x="0" y="0"/>
  <path d="M50.2832 67.2822L117.425 67.2822C119.138 67.2822 120.438 65.9819 120.438 64.2842C120.438 62.5376 119.138 61.2524 117.425 61.2524L50.2832 61.2524C48.5703 61.2524 47.2852 62.5376 47.2852 64.2842C47.2852 65.9819 48.5703 67.2822 50.2832 67.2822Z" fill="#000000" fill-opacity="0.85"/>
  <path d="M29.5337 70.1035C32.7549 70.1035 35.353 67.4717 35.353 64.2842C35.353 61.0479 32.7549 58.4648 29.5337 58.4648C26.3311 58.4648 23.7144 61.0479 23.7144 64.2842C23.7144 67.4717 26.3311 70.1035 29.5337 70.1035Z" fill="#000000" fill-opacity="0.85"/>
  <path d="M38.4092 38.1079L105.566 38.1079C107.264 38.1079 108.564 36.7891 108.564 35.0762C108.564 33.3784 107.264 32.0781 105.566 32.0781L38.4092 32.0781C36.7114 32.0781 35.4111 33.3784 35.4111 35.0762C35.4111 36.7891 36.7114 38.1079 38.4092 38.1079Z" fill="#000000" fill-opacity="0.85"/>
  <path d="M17.6934 40.8955C20.896 40.8955 23.5127 38.3125 23.5127 35.0762C23.5127 31.8398 20.896 29.2568 17.6934 29.2568C14.457 29.2568 11.874 31.8398 11.874 35.0762C11.874 38.3125 14.457 40.8955 17.6934 40.8955Z" fill="#000000" fill-opacity="0.85"/>
  <path d="M26.5689 8.91505L93.6919 8.91505C95.3897 8.91505 96.7236 7.61475 96.7236 5.90186C96.7236 4.17041 95.3897 2.87011 93.6919 2.87011L26.5689 2.87011C24.8374 2.87011 23.5371 4.17041 23.5371 5.90186C23.5371 7.61475 24.8374 8.91505 26.5689 8.91505Z" fill="#000000" fill-opacity="0.85"/>
  <path d="M5.81934 11.6875C9.05567 11.6875 11.6387 9.1045 11.6387 5.90186C11.6387 2.68067 9.05567 0.0825197 5.81934 0.0825197C2.58301 0.0825197 0 2.68067 0 5.90186C0 9.1045 2.58301 11.6875 5.81934 11.6875Z" fill="#000000" fill-opacity="0.85"/>
 </g>
</svg>
