<?xml version="1.0" encoding="UTF-8"?>
<!--Generator: Apple Native CoreSVG 232.5-->
<!DOCTYPE svg
PUBLIC "-//W3C//DTD SVG 1.1//EN"
       "http://www.w3.org/Graphics/SVG/1.1/DTD/svg11.dtd">
<svg version="1.1" xmlns="http://www.w3.org/2000/svg" xmlns:xlink="http://www.w3.org/1999/xlink" width="91.6104" height="90.3818">
 <g>
  <rect height="90.3818" opacity="0" width="91.6104" x="0" y="0"/>
  <path d="M11.0542 66.6641C11.0542 63.9497 8.83155 61.6782 6.03467 61.6782C3.33545 61.6782 1.08252 63.9497 1.08252 66.6641C1.08252 69.4272 3.33545 71.6162 6.03467 71.6162C8.83155 71.6162 11.0542 69.4272 11.0542 66.6641ZM11.0542 85.396C11.0542 82.6968 8.83155 80.3765 6.03467 80.3765C3.33545 80.3765 1.08252 82.6968 1.08252 85.396C1.08252 88.1592 3.33545 90.3818 6.03467 90.3818C8.83155 90.3818 11.0542 88.1592 11.0542 85.396ZM90.2915 66.6641C90.2915 65.0151 88.9424 63.7519 87.1099 63.7519L20.7212 63.7519C18.8887 63.7519 17.5396 65.0151 17.5396 66.6641C17.5396 68.313 18.8887 69.5947 20.7212 69.5947L87.1099 69.5947C88.9424 69.5947 90.2915 68.313 90.2915 66.6641ZM90.2915 85.396C90.2915 83.7471 88.9424 82.499 87.1099 82.499L20.7212 82.499C18.8887 82.499 17.5396 83.7471 17.5396 85.396C17.5396 87.0449 18.8887 88.3418 20.7212 88.3418L87.1099 88.3418C88.9424 88.3418 90.2915 87.0449 90.2915 85.396ZM13.0864 1.33838C3.89746 1.33838 0 5.74463 0 14.5967L0 37.6045C0 46.4717 3.89746 50.8628 13.0864 50.8628L78.5239 50.8628C87.7129 50.8628 91.6104 46.4717 91.6104 37.6045L91.6104 14.5967C91.6104 5.74463 87.7129 1.33838 78.5239 1.33838ZM6.04494 37.773L6.04494 14.4282C6.04494 9.40138 8.11183 6.98243 13.1201 6.98243L78.4902 6.98243C83.4834 6.98243 85.5654 9.40138 85.5654 14.4282L85.5654 37.773C85.5654 42.7998 83.4834 45.2187 78.4902 45.2187L13.1201 45.2187C8.11183 45.2187 6.04494 42.7998 6.04494 37.773Z" fill="#000000" fill-opacity="0.85"/>
 </g>
</svg>
