<?xml version="1.0" encoding="UTF-8"?>
<!--Generator: Apple Native CoreSVG 232.5-->
<!DOCTYPE svg
PUBLIC "-//W3C//DTD SVG 1.1//EN"
       "http://www.w3.org/Graphics/SVG/1.1/DTD/svg11.dtd">
<svg version="1.1" xmlns="http://www.w3.org/2000/svg" xmlns:xlink="http://www.w3.org/1999/xlink" width="114.35" height="88.4395">
 <g>
  <rect height="88.4395" opacity="0" width="114.35" x="0" y="0"/>
  <path d="M14.3936 88.4092L99.9409 88.4092C109.514 88.4092 114.35 83.5615 114.35 74.169L114.35 14.2739C114.35 4.88135 109.514 0 99.9409 0L14.3936 0C4.86963 0 0 4.83594 0 14.2739L0 74.169C0 83.6069 4.86963 88.4092 14.3936 88.4092ZM14.5064 82.3794C9.00294 82.3794 6.04494 79.4736 6.04494 73.8355L6.04494 14.6074C6.04494 8.96925 9.00294 6.04494 14.5064 6.04494L99.8433 6.04494C105.237 6.04494 108.305 8.96925 108.305 14.6074L108.305 73.8355C108.305 79.4736 105.237 82.3794 99.8433 82.3794Z" fill="#000000" fill-opacity="0.85"/>
  <path d="M21.6763 25.4072C24.1548 25.4072 26.1416 23.4019 26.1416 20.957C26.1416 18.4785 24.1548 16.4917 21.6763 16.4917C19.2651 16.4917 17.2109 18.5122 17.2109 20.957C17.2109 23.3682 19.2651 25.4072 21.6763 25.4072ZM21.6763 40.7422C24.1548 40.7422 26.1416 38.7368 26.1416 36.2769C26.1416 33.7983 24.1548 31.8267 21.6763 31.8267C19.2651 31.8267 17.2109 33.832 17.2109 36.2769C17.2109 38.7031 19.2651 40.7422 21.6763 40.7422ZM21.6763 56.0435C24.1548 56.0435 26.1416 54.0566 26.1416 51.5781C26.1416 49.1333 24.1548 47.1465 21.6763 47.1465C19.2315 47.1465 17.2109 49.167 17.2109 51.5781C17.2109 54.0566 19.2315 56.0435 21.6763 56.0435ZM21.6763 71.8535C24.1548 71.8535 26.1416 69.833 26.1416 67.3882C26.1416 64.9097 24.1548 62.9043 21.6763 62.9043C19.2651 62.9043 17.2109 64.9434 17.2109 67.3882C17.2109 69.7993 19.2651 71.8535 21.6763 71.8535ZM37.4971 23.3452L95.3242 23.3452C96.749 23.3452 97.7798 22.2993 97.7798 20.957C97.7798 19.5659 96.7153 18.5015 95.3242 18.5015L37.4971 18.5015C36.106 18.5015 35.0415 19.5659 35.0415 20.957C35.0415 22.2993 36.0723 23.3452 37.4971 23.3452ZM37.4971 38.6987L70.4219 38.6987C71.7642 38.6987 72.8437 37.6343 72.8437 36.2769C72.8437 34.9346 71.7642 33.8213 70.4219 33.8213L37.4971 33.8213C36.106 33.8213 35.0415 34.9346 35.0415 36.2769C35.0415 37.6343 36.106 38.6987 37.4971 38.6987ZM37.4971 54.0337L95.3242 54.0337C96.749 54.0337 97.7798 52.9878 97.7798 51.5781C97.7798 50.2207 96.749 49.1899 95.3242 49.1899L37.4971 49.1899C36.0723 49.1899 35.0415 50.2207 35.0415 51.5781C35.0415 52.9878 36.0723 54.0337 37.4971 54.0337ZM37.4971 69.8101L70.4219 69.8101C71.7642 69.8101 72.8437 68.7456 72.8437 67.3882C72.8437 66.0122 71.7978 64.9663 70.4219 64.9663L37.4971 64.9663C36.0723 64.9663 35.0415 66.0122 35.0415 67.3882C35.0415 68.7456 36.106 69.8101 37.4971 69.8101Z" fill="#000000" fill-opacity="0.85"/>
 </g>
</svg>
