<?xml version="1.0" encoding="UTF-8"?>
<!--Generator: Apple Native CoreSVG 232.5-->
<!DOCTYPE svg
PUBLIC "-//W3C//DTD SVG 1.1//EN"
       "http://www.w3.org/Graphics/SVG/1.1/DTD/svg11.dtd">
<svg version="1.1" xmlns="http://www.w3.org/2000/svg" xmlns:xlink="http://www.w3.org/1999/xlink" width="96.7373" height="77.964">
 <g>
  <rect height="77.964" opacity="0" width="96.7373" x="0" y="0"/>
  <path d="M30.4263 71.2125L93.7324 71.2125C95.4453 71.2125 96.7305 69.9122 96.7305 68.2144C96.7305 66.4678 95.4453 65.1827 93.7324 65.1827L30.4263 65.1827C28.7285 65.1827 27.3945 66.4678 27.3945 68.2144C27.3945 69.9122 28.7285 71.2125 30.4263 71.2125Z" fill="#000000" fill-opacity="0.85"/>
  <path d="M4.97459 75.6016L8.97703 72.6465L12.8633 75.6016C14.0859 76.5279 15.3306 75.5831 14.8843 74.2593L13.3335 69.4908L17.2685 66.5508C18.311 65.7559 17.9136 64.3462 16.6201 64.3462L11.7202 64.3462L10.0718 59.2173C9.72313 58.1377 8.21238 58.0889 7.86375 59.2173L6.21531 64.3462L1.25144 64.3462C-0.0420184 64.3462-0.458035 65.7559 0.603002 66.5508L4.57175 69.4908L3.03611 74.2593C2.60496 75.5831 3.8159 76.4454 4.97459 75.6016Z" fill="#000000" fill-opacity="0.85"/>
  <path d="M30.4263 42.0381L93.7324 42.0381C95.4453 42.0381 96.7305 40.7193 96.7305 39.0064C96.7305 37.3086 95.4453 36.0083 93.7324 36.0083L30.4263 36.0083C28.7285 36.0083 27.3945 37.3086 27.3945 39.0064C27.3945 40.7193 28.7285 42.0381 30.4263 42.0381Z" fill="#000000" fill-opacity="0.85"/>
  <path d="M4.97459 46.3448L8.97703 43.3897L12.8633 46.3448C14.0859 47.2711 15.3306 46.3262 14.8843 45.0025L13.3335 40.2339L17.2685 37.294C18.311 36.4991 17.9136 35.0894 16.6201 35.0894L11.7202 35.0894L10.0718 29.9605C9.72313 28.8809 8.21238 28.8658 7.86375 29.9605L6.21531 35.0894L1.25144 35.0894C-0.0420184 35.0894-0.458035 36.4991 0.603002 37.294L4.57175 40.2339L3.03611 45.0025C2.60496 46.3262 3.8159 47.1885 4.97459 46.3448Z" fill="#000000" fill-opacity="0.85"/>
  <path d="M30.4263 12.8453L93.7324 12.8453C95.4453 12.8453 96.7305 11.545 96.7305 9.83208C96.7305 8.10063 95.4453 6.80033 93.7324 6.80033L30.4263 6.80033C28.7285 6.80033 27.3945 8.10063 27.3945 9.83208C27.3945 11.545 28.7285 12.8453 30.4263 12.8453Z" fill="#000000" fill-opacity="0.85"/>
  <path d="M4.97459 17.2193L8.97703 14.2793L12.8633 17.2193C14.0859 18.0967 15.3306 17.2159 14.8843 15.8921L13.3335 11.1236L17.2685 8.18364C18.311 7.38872 17.9136 5.94535 16.6201 5.94535L11.7202 5.94535L10.0718 0.835001C9.72313-0.263146 8.21238-0.293419 7.86375 0.835001L6.21531 5.94535L1.25144 5.94535C-0.0420184 5.94535-0.458035 7.38872 0.603002 8.18364L4.57175 11.1236L3.03611 15.8921C2.54099 17.2159 3.8159 18.063 4.97459 17.2193Z" fill="#000000" fill-opacity="0.85"/>
 </g>
</svg>
