<?xml version="1.0" encoding="UTF-8"?>
<!--Generator: Apple Native CoreSVG 232.5-->
<!DOCTYPE svg
PUBLIC "-//W3C//DTD SVG 1.1//EN"
       "http://www.w3.org/Graphics/SVG/1.1/DTD/svg11.dtd">
<svg version="1.1" xmlns="http://www.w3.org/2000/svg" xmlns:xlink="http://www.w3.org/1999/xlink" width="96.7236" height="70.1035">
 <g>
  <rect height="70.1035" opacity="0" width="96.7236" x="0" y="0"/>
  <path d="M26.5689 67.2822L93.6919 67.2822C95.3897 67.2822 96.7236 65.9819 96.7236 64.2842C96.7236 62.5376 95.3897 61.2524 93.6919 61.2524L26.5689 61.2524C24.8374 61.2524 23.5371 62.5376 23.5371 64.2842C23.5371 65.9819 24.8374 67.2822 26.5689 67.2822Z" fill="#000000" fill-opacity="0.85"/>
  <path d="M5.81934 70.1035C9.05567 70.1035 11.6387 67.4717 11.6387 64.2842C11.6387 61.0479 9.05567 58.4648 5.81934 58.4648C2.58301 58.4648 0 61.0479 0 64.2842C0 67.4717 2.58301 70.1035 5.81934 70.1035Z" fill="#000000" fill-opacity="0.85"/>
  <path d="M26.5689 38.1079L93.6919 38.1079C95.3897 38.1079 96.7236 36.7891 96.7236 35.0762C96.7236 33.3784 95.3897 32.0781 93.6919 32.0781L26.5689 32.0781C24.8374 32.0781 23.5371 33.3784 23.5371 35.0762C23.5371 36.7891 24.8374 38.1079 26.5689 38.1079Z" fill="#000000" fill-opacity="0.85"/>
  <path d="M5.81934 40.8955C9.05567 40.8955 11.6387 38.3125 11.6387 35.0762C11.6387 31.8398 9.05567 29.2568 5.81934 29.2568C2.58301 29.2568 0 31.8398 0 35.0762C0 38.3125 2.58301 40.8955 5.81934 40.8955Z" fill="#000000" fill-opacity="0.85"/>
  <path d="M26.5689 8.91505L93.6919 8.91505C95.3897 8.91505 96.7236 7.61475 96.7236 5.90186C96.7236 4.17041 95.3897 2.87011 93.6919 2.87011L26.5689 2.87011C24.8374 2.87011 23.5371 4.17041 23.5371 5.90186C23.5371 7.61475 24.8374 8.91505 26.5689 8.91505Z" fill="#000000" fill-opacity="0.85"/>
  <path d="M5.81934 11.6875C9.05567 11.6875 11.6387 9.1045 11.6387 5.90186C11.6387 2.68067 9.05567 0.0825197 5.81934 0.0825197C2.58301 0.0825197 0 2.68067 0 5.90186C0 9.1045 2.58301 11.6875 5.81934 11.6875Z" fill="#000000" fill-opacity="0.85"/>
 </g>
</svg>
