<?xml version="1.0" encoding="UTF-8"?>
<!--Generator: Apple Native CoreSVG 232.5-->
<!DOCTYPE svg
PUBLIC "-//W3C//DTD SVG 1.1//EN"
       "http://www.w3.org/Graphics/SVG/1.1/DTD/svg11.dtd">
<svg version="1.1" xmlns="http://www.w3.org/2000/svg" xmlns:xlink="http://www.w3.org/1999/xlink" width="97.9595" height="97.9932">
 <g>
  <rect height="97.9932" opacity="0" width="97.9595" x="0" y="0"/>
  <path d="M48.9722 97.9443C75.8247 97.9443 97.9595 75.7759 97.9595 48.9722C97.9595 22.1348 75.791 0 48.9385 0C22.1348 0 0 22.1348 0 48.9722C0 75.7759 22.1685 97.9443 48.9722 97.9443ZM48.9722 91.6113C25.3501 91.6113 6.36671 72.5942 6.36671 48.9722C6.36671 25.3501 25.3164 6.31789 48.9385 6.31789C72.5605 6.31789 91.6265 25.3501 91.6265 48.9722C91.6265 72.5942 72.5942 91.6113 48.9722 91.6113Z" fill="#000000" fill-opacity="0.85"/>
  <path d="M53.1694 76.1807C69.3379 76.1807 77.3018 61.6655 77.3018 53.6899C77.3018 51.2734 74.3145 51.1455 74.0181 53.4424C72.8008 63.2261 65.0947 70.1543 56.4644 70.1543C51.0449 70.1543 46.2686 67.7334 43.3491 63.9707L46.2012 59.6284L49.6929 60.9634L49.8613 65.6152C49.981 67.2891 52.6231 67.1055 52.2896 65.1167C52.0151 63.77 53.4292 63.0444 54.5083 63.8643C55.874 64.979 57.2329 62.5103 55.7695 61.8081C54.5625 61.2476 54.7578 59.7173 56.0928 59.3115C57.7935 58.7559 56.9531 56.3394 55.377 57.0518L51.5552 58.7085L46.9419 55.5552C45.7363 54.7251 44.2461 54.9087 43.3672 56.0503L40.8267 59.2847C40.4243 57.9395 40.2105 56.5269 40.2105 55.0537C40.2105 50.5518 41.8755 45.9859 44.7022 42.6943L44.7358 45.8291C44.7358 47.3462 45.832 48.2959 47.2969 48.3936L52.8428 48.668L54.8379 52.3955C55.7085 53.9566 57.8438 52.478 56.8604 51.0215C55.9917 49.8482 56.8418 48.5737 58.1128 48.8482C59.6738 49.1597 60.083 46.398 58.293 46.4316C56.9732 46.4316 56.3149 44.9722 57.3267 44.0059C58.8389 42.6738 56.8164 40.9663 55.7993 42.2461L52.7485 45.812L49.1172 44.7329L49.5869 38.9849C51.0264 38.3906 52.5449 38.0523 54.2402 38.0523C56.9995 38.0523 56.9507 39.5625 59.5337 39.5625C63.4365 39.5625 71.9258 33.6275 71.9258 29.2969C71.9258 26.5591 67.6406 24.8618 60.4614 24.8618C55.3716 24.8618 53.6406 26.1045 53.314 28.3692C53.0884 30.2935 51.9907 31.3272 50.1001 31.3272C48.8643 31.3272 47.6436 31.4248 46.4414 31.5864L40.5034 28.7227L41.3233 25.0879L45.9937 24.2764C47.6035 24.0137 47.127 21.3682 45.2207 21.9795C43.8403 22.4121 42.9263 21.1748 43.5996 20.0166C44.5191 18.4893 41.9224 17.4199 41.4458 18.917C40.9981 20.2031 39.4829 20.2451 38.9038 18.9439C38.168 17.3711 35.8189 18.4556 36.7871 20.0166L38.8799 23.5825L36.415 28.5274C35.7466 29.7666 36.0396 31.2568 37.3462 32.0044L40.0313 33.5986C32.7495 37.148 27.8013 44.4517 27.8013 53.1528C27.8013 54.7051 27.9629 56.126 28.2524 57.5503L26.8233 56.7456C25.5352 55.9981 24.1275 56.4224 23.2974 57.7105L20.3291 62.3135L16.1318 62.2495C14.1987 62.2158 14.4463 64.8428 16.1992 64.6475C17.5982 64.4858 18.418 65.8545 17.5005 66.8477C16.3218 68.1426 18.6372 69.9478 19.6021 68.2134C20.1963 67.04 21.7568 67.1831 22.0767 68.4692C22.565 70.7256 25.0977 69.8213 24.4746 68.1055L22.8701 63.6978L25.584 61.0967L30.7681 64.6543C34.8174 71.7813 42.9243 76.1807 53.1694 76.1807Z" fill="#000000" fill-opacity="0.85"/>
 </g>
</svg>
