<?xml version="1.0" encoding="UTF-8"?>
<!--Generator: Apple Native CoreSVG 232.5-->
<!DOCTYPE svg
PUBLIC "-//W3C//DTD SVG 1.1//EN"
       "http://www.w3.org/Graphics/SVG/1.1/DTD/svg11.dtd">
<svg version="1.1" xmlns="http://www.w3.org/2000/svg" xmlns:xlink="http://www.w3.org/1999/xlink" width="112.488" height="85.625">
 <g>
  <rect height="85.625" opacity="0" width="112.488" x="0" y="0"/>
  <path d="M112.488 35.3076L112.488 50.2534C112.488 75.332 103.315 85.5274 75.979 85.5274L36.4937 85.5274C9.15723 85.5274 0 75.332 0 50.2534L0 35.3076C0 10.229 9.15723 0 36.4937 0L75.979 0C103.315 0 112.488 10.229 112.488 35.3076ZM76.5029 25.6045L68.7134 55.2222L68.439 55.2222L60.5703 25.6045C59.959 23.2871 58.6016 22.0982 56.3936 22.0982C53.8101 22.0982 52.1831 23.6577 52.1831 26.2749L52.1831 60.79C52.1831 62.4844 53.2441 63.6094 54.8374 63.6094C56.4458 63.6094 57.4732 62.4995 57.4732 60.79L57.4732 31.3863L57.7207 31.3863L65.4649 60.1284C65.8926 61.7485 66.856 62.9678 68.5855 62.9678C70.3672 62.9678 71.2598 61.8276 71.7212 60.0947L79.4502 31.3863L79.6489 31.3863L79.6489 60.79C79.6489 62.5147 80.6729 63.6094 82.2998 63.6094C83.9942 63.6094 84.9541 62.4844 84.9541 60.79L84.9541 26.2749C84.9541 23.5752 83.376 22.0982 80.7588 22.0982C78.438 22.0982 77.0806 23.2568 76.5029 25.6045ZM26.7812 24.9732L26.7812 59.9346C26.7812 61.8276 27.8574 62.9712 29.6865 62.9712L44.3364 62.9712C45.6636 62.9712 46.8071 61.8613 46.8071 60.4365C46.8071 59.1094 45.6636 57.9995 44.3364 57.9995L32.6406 57.9995L32.6406 24.9732C32.6406 23.4102 31.2798 22.0679 29.7354 22.0679C28.1421 22.0679 26.7812 23.4102 26.7812 24.9732Z" fill="#000000" fill-opacity="0.85"/>
 </g>
</svg>
