<?xml version="1.0" encoding="UTF-8"?>
<!--Generator: Apple Native CoreSVG 232.5-->
<!DOCTYPE svg
PUBLIC "-//W3C//DTD SVG 1.1//EN"
       "http://www.w3.org/Graphics/SVG/1.1/DTD/svg11.dtd">
<svg version="1.1" xmlns="http://www.w3.org/2000/svg" xmlns:xlink="http://www.w3.org/1999/xlink" width="98.3257" height="99.4333">
 <g>
  <rect height="99.4333" opacity="0" width="98.3257" x="0" y="0"/>
  <path d="M64.3735 69.0924L53.6387 92.0438C51.0786 97.5497 43.9731 96.3251 43.9731 90.3968L43.8906 52.8236C43.8906 52.2123 43.6465 51.9681 43.0351 51.9681L5.18409 51.8519C-0.757821 51.8182-1.85743 44.7396 3.27246 42.3734L26.7111 31.4566ZM91.0395 12.0795L71.5379 53.7746L42.0766 24.2999L83.5552 4.98082C89.1196 2.39732 93.7812 6.19176 91.0395 12.0795Z" fill="#000000" fill-opacity="0.85"/>
  <path d="M86.1626 83.7655C87.2944 84.8973 89.1909 84.8973 90.2891 83.7655C91.3721 82.6488 91.436 80.7709 90.2891 79.639L16.5317 5.86656C15.4302 4.78013 13.5034 4.73472 12.3716 5.86656C11.2583 6.97984 11.2583 8.89488 12.3716 9.99303Z" fill="#000000" fill-opacity="0.85"/>
 </g>
</svg>
