<?xml version="1.0" encoding="UTF-8"?>
<!--Generator: Apple Native CoreSVG 232.5-->
<!DOCTYPE svg
PUBLIC "-//W3C//DTD SVG 1.1//EN"
       "http://www.w3.org/Graphics/SVG/1.1/DTD/svg11.dtd">
<svg version="1.1" xmlns="http://www.w3.org/2000/svg" xmlns:xlink="http://www.w3.org/1999/xlink" width="97.9595" height="97.9932">
 <g>
  <rect height="97.9932" opacity="0" width="97.9595" x="0" y="0"/>
  <path d="M97.9595 48.9722C97.9595 75.7759 75.8247 97.9443 48.9722 97.9443C22.1685 97.9443 0 75.7759 0 48.9722C0 22.1348 22.1348 0 48.9385 0C75.791 0 97.9595 22.1348 97.9595 48.9722ZM6.36671 48.9722C6.36671 72.5942 25.3501 91.6113 48.9722 91.6113C72.5942 91.6113 91.6265 72.5942 91.6265 48.9722C91.6265 25.3501 72.5605 6.31789 48.9385 6.31789C25.3164 6.31789 6.36671 25.3501 6.36671 48.9722Z" fill="#000000" fill-opacity="0.85"/>
  <path d="M56.3545 63.4441L50.1357 76.666C48.9282 79.2158 45.1255 78.8823 45.1255 75.3389L45.0952 53.5498C45.0952 52.8154 44.6421 52.396 43.9414 52.396L21.9233 52.332C18.5195 52.332 18.001 48.5933 20.6904 47.3218L33.9547 41.0528ZM72.4966 29.124L60.8794 53.8236L43.5697 36.5086L68.1919 24.8716C71.3193 23.3828 74.0308 25.9395 72.4966 29.124Z" fill="#000000" fill-opacity="0.85"/>
  <path d="M72.0684 74.773C72.7773 75.4971 74.0303 75.5122 74.7393 74.773C75.4971 73.9663 75.4971 72.8447 74.7393 72.102L25.8423 23.1411C25.0996 22.3984 23.8804 22.3984 23.1377 23.1411C22.3648 23.8804 22.4136 25.103 23.1377 25.8272Z" fill="#000000" fill-opacity="0.85"/>
 </g>
</svg>
