<?xml version="1.0" encoding="UTF-8"?>
<!--Generator: Apple Native CoreSVG 232.5-->
<!DOCTYPE svg
PUBLIC "-//W3C//DTD SVG 1.1//EN"
       "http://www.w3.org/Graphics/SVG/1.1/DTD/svg11.dtd">
<svg version="1.1" xmlns="http://www.w3.org/2000/svg" xmlns:xlink="http://www.w3.org/1999/xlink" width="93.4409" height="93.5352">
 <g>
  <rect height="93.5352" opacity="0" width="93.4409" x="0" y="0"/>
  <path d="M2.99805 29.9868C4.98048 29.9868 6.04494 28.855 6.04494 26.9063L6.04494 14.7017C6.04494 9.06349 9.00294 6.15773 14.5064 6.15773L26.898 6.15773C28.8955 6.15773 29.9937 5.07472 29.9937 3.12598C29.9937 1.17725 28.8955 0.127929 26.898 0.127929L14.3936 0.127929C4.86963 0.127929 0 4.93018 0 14.3682L0 26.9063C0 28.855 1.08301 29.9868 2.99805 29.9868ZM90.4092 29.9868C92.3916 29.9868 93.4409 28.855 93.4409 26.9063L93.4409 14.3682C93.4409 4.97559 88.5713 0.127929 79.0474 0.127929L66.5093 0.127929C64.5606 0.127929 63.4473 1.17725 63.4473 3.12598C63.4473 5.07472 64.5606 6.15773 66.5093 6.15773L78.9009 6.15773C84.2949 6.15773 87.4111 9.06349 87.4111 14.7017L87.4111 26.9063C87.4111 28.855 88.4941 29.9868 90.4092 29.9868ZM14.3936 93.5352L26.898 93.5352C28.8955 93.5352 29.9937 92.4522 29.9937 90.5371C29.9937 88.5884 28.8955 87.5054 26.898 87.5054L14.5064 87.5054C9.00294 87.5054 6.04494 84.5996 6.04494 78.9614L6.04494 66.7569C6.04494 64.7744 4.96193 63.6763 2.99805 63.6763C1.04932 63.6763 0 64.7744 0 66.7569L0 79.2612C0 88.7329 4.86963 93.5352 14.3936 93.5352ZM66.5093 93.5352L79.0474 93.5352C88.5713 93.5352 93.4409 88.6538 93.4409 79.2612L93.4409 66.7569C93.4409 64.7744 92.3579 63.6763 90.4092 63.6763C88.4605 63.6763 87.4111 64.7744 87.4111 66.7569L87.4111 78.9614C87.4111 84.5996 84.2949 87.5054 78.9009 87.5054L66.5093 87.5054C64.5606 87.5054 63.4473 88.5884 63.4473 90.5371C63.4473 92.4522 64.5606 93.5352 66.5093 93.5352Z" fill="#000000" fill-opacity="0.85"/>
  <path d="M20.2891 50.2158L42.3071 50.231C43.0415 50.231 43.4761 50.6992 43.4761 51.4185L43.4912 73.189C43.4912 76.7661 47.3428 77.0996 48.5352 74.5161L70.896 26.9927C72.3965 23.8081 69.7188 21.2329 66.5913 22.7217L19.0562 45.2056C16.3667 46.4434 16.919 50.2158 20.2891 50.2158Z" fill="#000000" fill-opacity="0.85"/>
 </g>
</svg>
