<?xml version="1.0" encoding="UTF-8"?>
<!--Generator: Apple Native CoreSVG 232.5-->
<!DOCTYPE svg
PUBLIC "-//W3C//DTD SVG 1.1//EN"
       "http://www.w3.org/Graphics/SVG/1.1/DTD/svg11.dtd">
<svg version="1.1" xmlns="http://www.w3.org/2000/svg" xmlns:xlink="http://www.w3.org/1999/xlink" width="98.6514" height="99.8187">
 <g>
  <rect height="99.8187" opacity="0" width="98.6514" x="0" y="0"/>
  <path d="M31.309 35.8391L9.42531 45.9679C9.19972 46.0656 9.23342 46.3668 9.50441 46.3668L41.7164 46.237L49.8591 54.3723L49.7295 86.6256C49.7295 86.8815 49.9971 86.9606 50.125 86.7047L60.3105 64.8142L64.7568 69.2564L53.9868 92.3039C51.4268 97.7946 43.9995 96.8058 43.9658 90.5895L43.8833 53.0163C43.8833 52.506 43.6914 52.3141 43.1811 52.3141L5.36377 52.1979C-0.544443 52.1642-2.08546 44.9323 3.35107 42.4127L26.9086 31.4428ZM91.354 12.3395L71.9099 53.9491L67.444 49.4832L85.0039 11.7438C85.2597 11.2321 84.9433 10.9982 84.499 11.2204L46.6838 28.723L42.2566 24.2958L83.6826 5.00504C89.4189 2.30191 94.1479 6.38444 91.354 12.3395Z" fill="#000000" fill-opacity="0.85"/>
  <path d="M86.3423 83.7712C87.4741 84.903 89.3706 84.903 90.4688 83.7712C91.5518 82.6545 91.6157 80.7765 90.4688 79.6295L16.7114 5.87221C15.6435 4.77065 13.7168 4.74038 12.5513 5.87221C11.438 6.97036 11.438 8.90054 12.5513 9.99869Z" fill="#000000" fill-opacity="0.85"/>
 </g>
</svg>
