<?xml version="1.0" encoding="UTF-8"?>
<!--Generator: Apple Native CoreSVG 232.5-->
<!DOCTYPE svg
PUBLIC "-//W3C//DTD SVG 1.1//EN"
       "http://www.w3.org/Graphics/SVG/1.1/DTD/svg11.dtd">
<svg version="1.1" xmlns="http://www.w3.org/2000/svg" xmlns:xlink="http://www.w3.org/1999/xlink" width="107.326" height="97.9932">
 <g>
  <rect height="97.9932" opacity="0" width="107.326" x="0" y="0"/>
  <path d="M0 48.9722C0 75.7759 22.1685 97.9443 48.9722 97.9443C65.7905 97.9443 80.4204 89.0498 89.5278 76.0655C90.7793 74.4165 90.333 72.397 88.8491 71.479C87.2827 70.561 85.4839 71.0444 84.3975 72.5923C76.6963 83.9731 63.8115 91.5928 48.9722 91.6113C25.3501 91.645 6.33302 72.5942 6.33302 48.9722C6.33302 25.3501 25.3501 6.35158 48.9722 6.35158C69.5381 6.35158 86.5952 20.7129 90.6582 40.0024L82.6128 40.0024C79.7969 40.0024 78.9937 41.9561 80.5918 44.2329L91.2417 59.4307C92.562 61.3101 94.4971 61.3438 95.8511 59.4307L106.467 44.2666C108.118 41.9561 107.296 40.0024 104.48 40.0024L97.1074 40.0024C92.8609 17.3477 72.7534 0 48.9722 0C22.1685 0 0 22.1348 0 48.9722Z" fill="#000000" fill-opacity="0.85"/>
  <path d="M36.7383 73.9785L61.8648 73.9785C65.3399 73.9785 67.0117 72.2544 67.0117 68.4561L67.0117 48.6777C67.0117 44.8794 65.3399 43.1553 61.8648 43.1553L40.4819 43.1216L40.4819 36.5234C40.4819 30.5347 44.0293 26.5747 49.294 26.5747C54.5737 26.5747 58.1211 30.2129 58.1211 35.6777L58.1211 36.7739C58.1211 38.1094 59.0928 38.8403 60.2734 38.8403C61.4321 38.8403 62.3213 38.0454 62.3213 36.7739L62.3213 35.6777C62.3213 27.7676 57.105 22.4756 49.294 22.4756C41.5317 22.4756 36.2817 28.2578 36.2817 36.8789L36.2817 43.1553C33.1284 43.29 31.5913 45.0142 31.5913 48.6441L31.5913 68.4561C31.5913 72.2544 33.2632 73.9785 36.7383 73.9785Z" fill="#000000" fill-opacity="0.85"/>
 </g>
</svg>
