<?xml version="1.0" encoding="UTF-8"?>
<!--Generator: Apple Native CoreSVG 232.5-->
<!DOCTYPE svg
PUBLIC "-//W3C//DTD SVG 1.1//EN"
       "http://www.w3.org/Graphics/SVG/1.1/DTD/svg11.dtd">
<svg version="1.1" xmlns="http://www.w3.org/2000/svg" xmlns:xlink="http://www.w3.org/1999/xlink" width="98.9275" height="108.517">
 <g>
  <rect height="108.517" opacity="0" width="98.9275" x="0" y="0"/>
  <path d="M28.4626 49.3132L26.7728 49.3132C24.1435 49.3132 22.4198 51.1428 22.4198 54.1257L22.4198 89.7961C22.4198 92.7639 24.1435 94.6271 26.7728 94.6271L72.1732 94.6271C72.6851 94.6271 73.1619 94.5565 73.5967 94.4189L78.0875 98.9068C76.5178 99.8599 74.5534 100.35 72.2509 100.35L26.6767 100.35C20.1044 100.35 16.2958 96.4138 16.2958 89.3952L16.2958 54.5266C16.2958 48.8787 18.7751 45.235 23.1878 44.0417ZM73.89 32.2077L73.89 43.7052C79.4108 44.314 82.5829 48.1382 82.5829 54.5266L82.5829 80.9469L76.5077 74.8753L76.5077 54.1257C76.5077 51.1428 74.8026 49.3132 72.1732 49.3132L50.9306 49.3132L45.2192 43.6052L67.8671 43.6052L67.8671 31.591C67.8671 18.8288 59.7601 11.3357 49.4638 11.3357C39.7099 11.3357 31.9499 18.0206 31.1282 29.5225L25.9669 24.3642C28.8044 12.181 38.3911 5.62764 49.4638 5.62764C62.7108 5.62764 73.89 15.029 73.89 32.2077Z" fill="#000000" fill-opacity="0.85"/>
  <path d="M88.9271 102.605C90.059 103.752 91.9218 103.752 93.0536 102.605C94.182 101.458 94.1854 99.6106 93.0536 98.4787L10.0399 15.4987C8.92323 14.3972 7.04188 14.3518 5.87977 15.4987C4.78162 16.6457 4.78162 18.5271 5.87977 19.6403Z" fill="#000000" fill-opacity="0.85"/>
 </g>
</svg>
