<?xml version="1.0" encoding="UTF-8"?>
<!--Generator: Apple Native CoreSVG 232.5-->
<!DOCTYPE svg
PUBLIC "-//W3C//DTD SVG 1.1//EN"
       "http://www.w3.org/Graphics/SVG/1.1/DTD/svg11.dtd">
<svg version="1.1" xmlns="http://www.w3.org/2000/svg" xmlns:xlink="http://www.w3.org/1999/xlink" width="88.4092" height="88.5371">
 <g>
  <rect height="88.5371" opacity="0" width="88.4092" x="0" y="0"/>
  <path d="M14.3936 88.5371L74.0005 88.5371C83.5733 88.5371 88.4092 83.6558 88.4092 74.2632L88.4092 14.4019C88.4092 5.00928 83.5733 0.127929 74.0005 0.127929L14.3936 0.127929C4.86963 0.127929 0 4.93018 0 14.4019L0 74.2632C0 83.7349 4.86963 88.5371 14.3936 88.5371ZM14.5064 82.4922C9.00294 82.4922 6.04494 79.6016 6.04494 73.9634L6.04494 14.7017C6.04494 9.06349 9.00294 6.17287 14.5064 6.17287L73.9028 6.17287C79.2969 6.17287 82.3643 9.06349 82.3643 14.7017L82.3643 73.9634C82.3643 79.6016 79.2969 82.4922 73.9028 82.4922Z" fill="#000000" fill-opacity="0.85"/>
  <path d="M26.5112 63.6489C26.5112 67.4473 28.1982 69.1714 31.6582 69.1714L56.7847 69.1714C60.2935 69.1714 61.9805 67.4473 61.9805 63.6489L61.9805 43.8369C61.9805 40.207 60.4282 38.5166 57.2412 38.3818L57.2412 32.0718C57.2412 23.4507 52.0064 17.7022 44.229 17.7022C36.4517 17.7022 31.2168 23.4507 31.2168 32.0718L31.2168 38.3818C28.0635 38.5166 26.5112 40.207 26.5112 43.8369ZM35.417 38.3482L35.417 31.7163C35.417 25.7612 38.9644 21.8164 44.229 21.8164C49.4937 21.8164 53.041 25.7612 53.041 31.7163L53.041 38.3482Z" fill="#000000" fill-opacity="0.85"/>
 </g>
</svg>
