<?xml version="1.0" encoding="UTF-8"?>
<!--Generator: Apple Native CoreSVG 232.5-->
<!DOCTYPE svg
PUBLIC "-//W3C//DTD SVG 1.1//EN"
       "http://www.w3.org/Graphics/SVG/1.1/DTD/svg11.dtd">
<svg version="1.1" xmlns="http://www.w3.org/2000/svg" xmlns:xlink="http://www.w3.org/1999/xlink" width="113.909" height="98.9307">
 <g>
  <rect height="98.9307" opacity="0" width="113.909" x="0" y="0"/>
  <path d="M9.27785 82.2476L104.597 82.2476C110.372 82.2476 113.909 78.6958 113.909 72.936L113.909 12.4385C113.909 6.66358 110.372 3.14551 104.597 3.14551L9.27785 3.14551C3.55176 3.14551 0 6.66358 0 12.4385L0 72.936C0 78.6958 3.55176 82.2476 9.27785 82.2476ZM8.35646 61.895C6.77052 61.895 6.04494 61.2368 6.04494 59.5684L6.04494 12.5698C6.04494 10.4785 7.36671 9.19045 9.43947 9.19045L104.469 9.19045C106.542 9.19045 107.879 10.4785 107.879 12.5698L107.879 59.5684C107.879 61.2368 107.104 61.895 105.519 61.895ZM42.0015 94.5347L71.9072 94.5347L71.9072 81.6128L42.0015 81.6128ZM41.3906 98.9307L72.5332 98.9307C74.1973 98.9307 75.5464 97.5967 75.5464 95.8838C75.5464 94.186 74.1973 92.8521 72.5332 92.8521L41.3906 92.8521C39.7114 92.8521 38.3286 94.186 38.3286 95.8838C38.3286 97.5967 39.7114 98.9307 41.3906 98.9307Z" fill="#000000" fill-opacity="0.85"/>
  <path d="M39.7202 48.1685C39.7202 50.9214 41.0117 52.2432 43.6182 52.2432L60.1406 52.2432C62.7471 52.2432 64.0049 50.9214 64.0049 48.1685L64.0049 35.458C64.0049 32.7051 62.7471 31.3496 60.1406 31.3496L43.6182 31.3496C41.0117 31.3496 39.7202 32.7051 39.7202 35.458ZM56.729 33.5191L60.8516 33.5191L60.8516 27.2783C60.8516 23.3926 62.9375 20.9463 66.4697 20.9463C69.9868 20.9463 72.1065 23.3926 72.1065 27.2783L72.1065 30.3364C72.1065 31.458 73.0293 32.4146 74.1846 32.4146C75.2876 32.4146 76.2442 31.458 76.2442 30.3364L76.2442 27.2783C76.2442 21.2017 72.3648 16.8609 66.4697 16.8609C60.5933 16.8609 56.729 21.2017 56.729 27.5664Z" fill="#000000" fill-opacity="0.85"/>
 </g>
</svg>
