<?xml version="1.0" encoding="UTF-8"?>
<!--Generator: Apple Native CoreSVG 232.5-->
<!DOCTYPE svg
PUBLIC "-//W3C//DTD SVG 1.1//EN"
       "http://www.w3.org/Graphics/SVG/1.1/DTD/svg11.dtd">
<svg version="1.1" xmlns="http://www.w3.org/2000/svg" xmlns:xlink="http://www.w3.org/1999/xlink" width="66.2871" height="97.2617">
 <g>
  <rect height="97.2617" opacity="0" width="66.2871" x="0" y="0"/>
  <path d="M10.3657 94.7227L55.9214 94.7227C62.4785 94.7227 66.2871 90.7861 66.2871 83.7676L66.2871 48.8989C66.2871 41.8989 62.4785 37.9775 55.9214 37.9775L10.3657 37.9775C3.80859 37.9775 0 41.8989 0 48.8989L0 83.7676C0 90.7861 3.80859 94.7227 10.3657 94.7227ZM10.4434 88.9995C7.81398 88.9995 6.1089 87.1362 6.1089 84.1685L6.1089 48.4981C6.1089 45.5152 7.81398 43.6856 10.4434 43.6856L55.8437 43.6856C58.5068 43.6856 60.1631 45.5152 60.1631 48.4981L60.1631 84.1685C60.1631 87.1362 58.5068 88.9995 55.8437 88.9995ZM8.72656 40.8291L14.7495 40.8291L14.7495 25.9634C14.7495 13.2012 22.7925 5.70802 33.1191 5.70802C43.4307 5.70802 51.5713 13.2012 51.5713 25.9634L51.5713 40.8291L57.5454 40.8291L57.5454 26.5801C57.5454 9.40136 46.3813 0 33.1191 0C19.9058 0 8.72656 9.40136 8.72656 26.5801Z" fill="#000000" fill-opacity="0.85"/>
 </g>
</svg>
