<?xml version="1.0" encoding="UTF-8"?>
<!--Generator: Apple Native CoreSVG 232.5-->
<!DOCTYPE svg
PUBLIC "-//W3C//DTD SVG 1.1//EN"
       "http://www.w3.org/Graphics/SVG/1.1/DTD/svg11.dtd">
<svg version="1.1" xmlns="http://www.w3.org/2000/svg" xmlns:xlink="http://www.w3.org/1999/xlink" width="79.5332" height="107.581">
 <g>
  <rect height="107.581" opacity="0" width="79.5332" x="0" y="0"/>
  <path d="M0 94.7964C0 102.678 5.05664 107.581 13.2075 107.581L66.3257 107.581C74.4766 107.581 79.5332 102.678 79.5332 94.7964L79.5332 12.8267C79.5332 4.93018 74.4766 0.00829995 66.3257 0.00829995L13.2075 0.00829995C5.05664 0.00829995 0 4.93018 0 12.8267ZM6.04494 93.8716L6.04494 13.7363C6.04494 8.80909 8.83448 6.0381 13.8965 6.0381L65.6367 6.0381C70.665 6.0381 73.5034 8.80909 73.5034 13.7363L73.5034 93.8716C73.5034 98.7988 70.665 101.536 65.6367 101.536L13.8965 101.536C8.83448 101.536 6.04494 98.7988 6.04494 93.8716Z" fill="#000000" fill-opacity="0.85"/>
  <path d="M22.5493 66.0776C22.5493 68.8154 23.8071 70.1372 26.4136 70.1372L42.9697 70.1372C45.5762 70.1372 46.834 68.8154 46.834 66.0776L46.834 53.3521C46.834 50.6143 45.5762 49.2588 42.9697 49.2588L26.4136 49.2588C23.8071 49.2588 22.5493 50.6143 22.5493 53.3521ZM39.5581 51.3794L43.6807 51.3794L43.6807 45.1724C43.6807 41.3018 45.7666 38.8218 49.2988 38.8218C52.8159 38.8218 54.9356 41.3018 54.9356 45.1724L54.9356 48.2305C54.9356 49.3521 55.8584 50.3086 57.0137 50.3086C58.1167 50.3086 59.0581 49.3521 59.0581 48.2305L59.0581 45.1724C59.0581 39.1108 55.1602 34.77 49.2988 34.77C43.4224 34.77 39.5581 39.1108 39.5581 45.4605Z" fill="#000000" fill-opacity="0.85"/>
 </g>
</svg>
