<?xml version="1.0" encoding="UTF-8"?>
<!--Generator: Apple Native CoreSVG 232.5-->
<!DOCTYPE svg
PUBLIC "-//W3C//DTD SVG 1.1//EN"
       "http://www.w3.org/Graphics/SVG/1.1/DTD/svg11.dtd">
<svg version="1.1" xmlns="http://www.w3.org/2000/svg" xmlns:xlink="http://www.w3.org/1999/xlink" width="114.35" height="88.4395">
 <g>
  <rect height="88.4395" opacity="0" width="114.35" x="0" y="0"/>
  <path d="M114.35 14.2739L114.35 74.169C114.35 83.5615 109.514 88.4092 99.9409 88.4092L14.3936 88.4092C4.86963 88.4092 0 83.6069 0 74.169L0 14.2739C0 4.83594 4.86963 0 14.3936 0L99.9409 0C109.514 0 114.35 4.88135 114.35 14.2739ZM43.9082 31.9639L43.9082 38.3413C40.6875 38.4609 39.1167 40.2188 39.1167 43.9497L39.1167 64.1509C39.1167 68.0166 40.8223 69.7593 44.3984 69.7593L70.0337 69.7593C73.5762 69.7593 75.2817 68.0166 75.2817 64.1509L75.2817 43.9497C75.2817 40.2188 73.7109 38.4609 70.5239 38.3413L70.5239 31.9639C70.5239 23.1406 65.1543 17.2725 57.2085 17.2725C49.2778 17.2725 43.9082 23.1406 43.9082 31.9639ZM66.189 31.5747L66.189 38.3076L48.2432 38.3076L48.2432 31.5747C48.2432 25.5186 51.8242 21.4727 57.2085 21.4727C62.5742 21.4727 66.189 25.5186 66.189 31.5747Z" fill="#000000" fill-opacity="0.85"/>
 </g>
</svg>
