<?xml version="1.0" encoding="UTF-8"?>
<!--Generator: Apple Native CoreSVG 232.5-->
<!DOCTYPE svg
PUBLIC "-//W3C//DTD SVG 1.1//EN"
       "http://www.w3.org/Graphics/SVG/1.1/DTD/svg11.dtd">
<svg version="1.1" xmlns="http://www.w3.org/2000/svg" xmlns:xlink="http://www.w3.org/1999/xlink" width="97.9595" height="97.9932">
 <g>
  <rect height="97.9932" opacity="0" width="97.9595" x="0" y="0"/>
  <path d="M97.9595 49.021C97.9595 75.8584 75.8247 97.9932 48.9722 97.9932C22.1685 97.9932 0 75.8584 0 49.021C0 22.2173 22.1348 0.0488281 48.9385 0.0488281C75.791 0.0488281 97.9595 22.2173 97.9595 49.021ZM35.6719 36.7559L35.6719 43.167C32.4849 43.3018 30.9141 45.0108 30.9141 48.7417L30.9141 68.9917C30.9141 72.8423 32.6196 74.5664 36.1621 74.5664L61.7974 74.5664C65.3399 74.5664 67.0454 72.8423 67.0454 68.9917L67.0454 48.7417C67.0454 45.0108 65.4595 43.3018 62.2876 43.167L62.2876 36.7559C62.2876 27.9478 56.918 22.0645 48.9722 22.0645C41.0415 22.0645 35.6719 27.9478 35.6719 36.7559ZM57.9526 36.3667L57.9526 43.1333L40.0068 43.1333L40.0068 36.3667C40.0068 30.3257 43.6065 26.2647 48.9722 26.2647C54.3379 26.2647 57.9526 30.3257 57.9526 36.3667Z" fill="#000000" fill-opacity="0.85"/>
 </g>
</svg>
