<?xml version="1.0" encoding="UTF-8"?>
<!--Generator: Apple Native CoreSVG 232.5-->
<!DOCTYPE svg
PUBLIC "-//W3C//DTD SVG 1.1//EN"
       "http://www.w3.org/Graphics/SVG/1.1/DTD/svg11.dtd">
<svg version="1.1" xmlns="http://www.w3.org/2000/svg" xmlns:xlink="http://www.w3.org/1999/xlink" width="79.6714" height="97.9785">
 <g>
  <rect height="97.9785" opacity="0" width="79.6714" x="0" y="0"/>
  <path d="M43.0405 2.59082C49.9458 4.9829 65.1045 10.6699 72.0132 13.3921C76.5083 15.207 78.3692 16.8789 78.3692 22.0444L78.3692 58.8003C78.3692 75.4214 69.7515 81.834 42.3921 96.9902C41.3076 97.5645 40.0718 97.9785 39.1846 97.9785C38.2822 97.9785 37.0952 97.5982 35.9771 96.9902C9.01514 81.1553 0 75.4214 0 58.8003L0 22.0444C0 16.8789 1.89453 15.1431 6.35596 13.3921C13.2495 10.6885 28.4536 5.00634 35.3472 2.59082C36.6167 2.18506 37.8779 1.89209 39.1846 1.89209C40.4912 1.89209 41.7524 2.15136 43.0405 2.59082ZM25.8843 35.6138L25.8843 41.9912C22.7124 42.126 21.1265 43.8838 21.1265 47.6148L21.1265 67.8159C21.1265 71.6665 22.832 73.4243 26.3745 73.4243L52.0098 73.4243C55.5523 73.4243 57.2578 71.6665 57.2578 67.8159L57.2578 47.6148C57.2578 43.8838 55.687 42.126 52.5 41.9912L52.5 35.6138C52.5 26.8057 47.1304 20.8887 39.1997 20.8887C31.2539 20.8887 25.8843 26.8057 25.8843 35.6138ZM48.165 35.2246L48.165 41.9575L30.2192 41.9575L30.2192 35.2246C30.2192 29.1499 33.834 25.1226 39.1997 25.1226C44.5654 25.1226 48.165 29.1499 48.165 35.2246Z" fill="#000000" fill-opacity="0.85"/>
 </g>
</svg>
