<?xml version="1.0" encoding="UTF-8"?>
<!--Generator: Apple Native CoreSVG 232.5-->
<!DOCTYPE svg
PUBLIC "-//W3C//DTD SVG 1.1//EN"
       "http://www.w3.org/Graphics/SVG/1.1/DTD/svg11.dtd">
<svg version="1.1" xmlns="http://www.w3.org/2000/svg" xmlns:xlink="http://www.w3.org/1999/xlink" width="88.0713" height="87.9111">
 <g>
  <rect height="87.9111" opacity="0" width="88.0713" x="0" y="0"/>
  <path d="M5.47071 5.64746C1.0791 10.0391 0 16.0742 0 24.4082L0 25.4111L6.04494 25.4111L6.04494 24.2061C6.04494 18.2012 6.90675 13.0034 9.85157 10.0283C12.8604 7.00441 18.1221 6.15773 24.1118 6.15773L25.5811 6.15773L25.5811 0.127929L24.314 0.127929C15.9951 0.127929 9.88086 1.22217 5.47071 5.64746ZM31.2715 6.15773L56.7998 6.15773L56.7998 0.127929L31.2715 0.127929ZM82.6309 5.61719C78.1904 1.20703 72.1216 0.127929 63.4595 0.127929L62.4566 0.127929L62.4566 6.15773L64.2725 6.15773C70.0283 6.15773 75.1958 7.08351 78.1709 10.0586C81.1797 13.0523 82.0415 18.1221 82.0415 23.9082L82.0415 25.4111L88.0713 25.4111L88.0713 24.7061C88.0713 15.9951 87.0225 9.95997 82.6309 5.61719ZM82.0415 56.9526L88.0713 56.9526L88.0713 31.0864L82.0415 31.0864ZM82.6309 82.4219C87.0225 78.0303 88.0713 72.0439 88.0713 63.333L88.0713 62.6279L82.0415 62.6279L82.0415 64.0972C82.0415 69.917 81.1494 74.9868 78.1709 77.9805C75.1958 80.9707 70.0283 81.8813 64.2725 81.8813L62.4566 81.8813L62.4566 87.9111L63.4595 87.9111C72.1216 87.9111 78.2056 86.832 82.6309 82.4219ZM31.2715 87.9111L56.7998 87.9111L56.7998 81.8813L31.2715 81.8813ZM5.44043 82.4219C9.88086 86.832 15.9497 87.9111 24.5933 87.9111L25.5811 87.9111L25.5811 81.8813L23.814 81.8813C18.0581 81.8813 12.8755 80.9556 9.86671 77.9805C6.90675 74.9868 6.04494 69.917 6.04494 64.0972L6.04494 62.6279L0 62.6279L0 63.333C0 72.0439 1.06396 78.0454 5.44043 82.4219ZM0 56.9526L6.04494 56.9526L6.04494 31.0864L0 31.0864Z" fill="#000000" fill-opacity="0.85"/>
  <path d="M26.333 63.3359C26.333 67.1343 28.0049 68.8584 31.48 68.8584L56.6065 68.8584C60.1152 68.8584 61.8023 67.1343 61.8023 63.3359L61.8023 43.5239C61.8023 39.8941 60.25 38.2036 57.063 38.0689L57.063 31.7588C57.063 23.1377 51.8281 17.3892 44.0508 17.3892C36.3071 17.3892 31.0386 23.1377 31.0386 31.7588L31.0386 38.0689C27.8853 38.2036 26.333 39.8941 26.333 43.5239ZM35.2388 38.0352L35.2388 31.4033C35.2388 25.4483 38.7861 21.5034 44.0508 21.5034C49.3491 21.5034 52.8628 25.4483 52.8628 31.4033L52.8628 38.0352Z" fill="#000000" fill-opacity="0.85"/>
 </g>
</svg>
