<?xml version="1.0" encoding="UTF-8"?>
<!--Generator: Apple Native CoreSVG 232.5-->
<!DOCTYPE svg
PUBLIC "-//W3C//DTD SVG 1.1//EN"
       "http://www.w3.org/Graphics/SVG/1.1/DTD/svg11.dtd">
<svg version="1.1" xmlns="http://www.w3.org/2000/svg" xmlns:xlink="http://www.w3.org/1999/xlink" width="71.2618" height="99.667">
 <g>
  <rect height="99.667" opacity="0" width="71.2618" x="0" y="0"/>
  <path d="M4.22998 68.1011C4.22998 75.6089 7.02686 80.8726 12.4688 83.8848C14.9878 85.2251 16.293 86.6534 17.2393 89.6827L19.0288 95.5581C19.8506 98.3047 21.8057 99.667 24.6685 99.667L46.3189 99.667C49.2642 99.667 51.1182 98.3384 51.9248 95.5581L53.7783 89.6827C54.6944 86.6534 55.9995 85.2251 58.5186 83.8848C63.9605 80.8726 66.7574 75.6089 66.7574 68.1011L66.7574 31.5962C66.7574 24.0732 63.9605 18.8433 58.5186 15.7974C55.9995 14.457 54.6944 13.0288 53.7783 10.0332L51.9248 4.12403C51.1856 1.41113 49.2305 0.0151366 46.3189 0.0151366L24.6685 0.0151366C21.8057 0.0151366 19.8506 1.37744 19.0288 4.12403L17.2393 10.0332C16.3267 12.9951 15.0215 14.4907 12.4688 15.7974C7.06055 18.7422 4.22998 24.0059 4.22998 31.5962ZM9.78468 67.3784L9.78468 32.3525C9.78468 24.3506 14.502 19.5322 22.4028 19.5322L48.5996 19.5322C56.5156 19.5322 61.2027 24.3506 61.2027 32.3525L61.2027 67.3784C61.2027 75.3467 56.5156 80.1499 48.5996 80.1499L22.4028 80.1499C14.502 80.1499 9.78468 75.3467 9.78468 67.3784ZM65.4864 46.6333L67.3955 46.6333C69.7227 46.6333 71.2618 45.0303 71.2618 42.459L71.2618 35.7158C71.2618 33.19 69.7227 31.5718 67.3955 31.5718L65.4864 31.5718Z" fill="#000000" fill-opacity="0.85"/>
  <path d="M27.3999 66.229L43.9561 66.229C46.5962 66.229 47.8692 64.8736 47.8692 62.1206L47.8692 49.3613C47.8692 47.1524 47.0088 45.8643 45.2915 45.418L45.2915 41.8252C45.2915 35.4605 41.3936 31.1196 35.6704 31.1196C29.9624 31.1196 26.083 35.4605 26.083 41.8252L26.083 45.4365C24.3657 45.8643 23.5205 47.1524 23.5205 49.3613L23.5205 62.1206C23.5205 64.8736 24.7935 66.229 27.3999 66.229ZM30.2207 45.2866L30.2207 41.522C30.2207 37.6514 32.3404 35.1714 35.6704 35.1714C39.0005 35.1714 41.1353 37.6514 41.1353 41.522L41.1353 45.2866Z" fill="#000000" fill-opacity="0.85"/>
 </g>
</svg>
