<?xml version="1.0" encoding="UTF-8"?>
<!--Generator: Apple Native CoreSVG 232.5-->
<!DOCTYPE svg
PUBLIC "-//W3C//DTD SVG 1.1//EN"
       "http://www.w3.org/Graphics/SVG/1.1/DTD/svg11.dtd">
<svg version="1.1" xmlns="http://www.w3.org/2000/svg" xmlns:xlink="http://www.w3.org/1999/xlink" width="113.909" height="98.9307">
 <g>
  <rect height="98.9307" opacity="0" width="113.909" x="0" y="0"/>
  <path d="M9.27785 82.2476L104.597 82.2476C110.372 82.2476 113.909 78.6958 113.909 72.936L113.909 12.4385C113.909 6.66358 110.372 3.14551 104.597 3.14551L9.27785 3.14551C3.55176 3.14551 0 6.66358 0 12.4385L0 72.936C0 78.6958 3.55176 82.2476 9.27785 82.2476ZM9.43947 76.2178C7.36671 76.2178 6.04494 74.8809 6.04494 72.8384L6.04494 12.5698C6.04494 10.4785 7.36671 9.19045 9.43947 9.19045L104.469 9.19045C106.542 9.19045 107.879 10.4785 107.879 12.5698L107.879 72.8384C107.879 74.8809 106.542 76.2178 104.469 76.2178ZM42.0015 94.5347L71.9072 94.5347L71.9072 81.6128L42.0015 81.6128ZM41.3906 98.9307L72.5332 98.9307C74.1973 98.9307 75.5464 97.5967 75.5464 95.8838C75.5464 94.186 74.1973 92.8521 72.5332 92.8521L41.3906 92.8521C39.7114 92.8521 38.3286 94.186 38.3286 95.8838C38.3286 97.5967 39.7114 98.9307 41.3906 98.9307Z" fill="#000000" fill-opacity="0.85"/>
  <path d="M39.7202 54.9819C39.7202 57.7197 41.0117 59.0752 43.6182 59.0752L60.1406 59.0752C62.7471 59.0752 64.0049 57.7197 64.0049 54.9819L64.0049 42.2564C64.0049 39.5186 62.7471 38.1968 60.1406 38.1968L43.6182 38.1968C41.0117 38.1968 39.7202 39.5186 39.7202 42.2564ZM56.729 40.3174L60.8516 40.3174L60.8516 34.1104C60.8516 30.2061 62.9375 27.7598 66.4697 27.7598C69.9868 27.7598 72.1065 30.2061 72.1065 34.1104L72.1065 37.1348C72.1065 38.2901 73.0293 39.2466 74.1846 39.2466C75.2876 39.2466 76.2442 38.2901 76.2442 37.1348L76.2442 34.1104C76.2442 28.0488 72.3648 23.708 66.4697 23.708C60.5933 23.708 56.729 28.0488 56.729 34.3984Z" fill="#000000" fill-opacity="0.85"/>
 </g>
</svg>
