<?xml version="1.0" encoding="UTF-8"?>
<!--Generator: Apple Native CoreSVG 232.5-->
<!DOCTYPE svg
PUBLIC "-//W3C//DTD SVG 1.1//EN"
       "http://www.w3.org/Graphics/SVG/1.1/DTD/svg11.dtd">
<svg version="1.1" xmlns="http://www.w3.org/2000/svg" xmlns:xlink="http://www.w3.org/1999/xlink" width="107.326" height="97.9932">
 <g>
  <rect height="97.9932" opacity="0" width="107.326" x="0" y="0"/>
  <path d="M0 48.9722C0 75.7759 22.1685 97.9443 48.9722 97.9443C65.7905 97.9443 80.4204 89.0498 89.5278 76.0655C90.7793 74.4165 90.333 72.397 88.8491 71.479C87.2827 70.561 85.4839 71.0444 84.3975 72.5923C76.6963 83.9731 63.8115 91.5928 48.9722 91.6113C25.3501 91.645 6.33302 72.5942 6.33302 48.9722C6.33302 25.3501 25.3501 6.35158 48.9722 6.35158C69.5381 6.35158 86.5952 20.7129 90.6582 40.0024L82.6128 40.0024C79.7969 40.0024 78.9937 41.9561 80.5918 44.2329L91.2417 59.4307C92.562 61.3101 94.4971 61.3438 95.8511 59.4307L106.467 44.2666C108.118 41.9561 107.296 40.0024 104.48 40.0024L97.1074 40.0024C92.8609 17.3477 72.7534 0 48.9722 0C22.1685 0 0 22.1348 0 48.9722Z" fill="#000000" fill-opacity="0.85"/>
  <path d="M31.2358 68.4561C31.2358 72.2544 32.9077 73.9785 36.3828 73.9785L61.5093 73.9785C64.9844 73.9785 66.6563 72.2544 66.6563 68.4561L66.6563 48.6441C66.6563 45.0142 65.104 43.29 61.9658 43.1553L61.9658 36.8789C61.9658 28.2578 56.7158 22.4756 48.9385 22.4756C41.1763 22.4756 35.9263 28.2578 35.9263 36.8789L35.9263 43.1553C32.773 43.29 31.2358 45.0142 31.2358 48.6441ZM40.1265 43.1216L40.1265 36.5234C40.1265 30.5347 43.6738 26.5747 48.9385 26.5747C54.2183 26.5747 57.7656 30.5347 57.7656 36.5234L57.7656 43.1216Z" fill="#000000" fill-opacity="0.85"/>
 </g>
</svg>
