<?xml version="1.0" encoding="UTF-8"?>
<!--Generator: Apple Native CoreSVG 232.5-->
<!DOCTYPE svg
PUBLIC "-//W3C//DTD SVG 1.1//EN"
       "http://www.w3.org/Graphics/SVG/1.1/DTD/svg11.dtd">
<svg version="1.1" xmlns="http://www.w3.org/2000/svg" xmlns:xlink="http://www.w3.org/1999/xlink" width="80.7363" height="104.094">
 <g>
  <rect height="104.094" opacity="0" width="80.7363" x="0" y="0"/>
  <path d="M14.2739 104.094L66.4624 104.094C75.9341 104.094 80.7363 99.2241 80.7363 89.7187L80.7363 43.9146C80.7363 38.6299 80.0342 36.3042 76.7788 32.9814L48.1187 3.98438C44.9829 0.796387 42.4214 0.0268549 37.6943 0.0268549L14.2739 0.0268549C4.88135 0.0268549 0 4.93018 0 14.4356L0 89.7187C0 99.2578 4.80225 104.094 14.2739 104.094ZM14.54 98.0488C8.93556 98.0488 6.04494 95.0908 6.04494 89.5874L6.04494 14.5669C6.04494 9.17286 8.93556 6.07179 14.5737 6.07179L37.4375 6.07179L37.4375 35.4702C37.4375 41.0625 40.2261 43.6963 45.6484 43.6963L74.6914 43.6963L74.6914 89.5874C74.6914 95.0908 71.8008 98.0488 66.1626 98.0488ZM46.27 37.9731C44.0142 37.9731 43.1455 37.0859 43.1455 34.8149L43.1455 7.29787L73.4653 37.9731Z" fill="#000000" fill-opacity="0.85"/>
  <path d="M25.8394 86.6636C25.8394 89.7632 27.2031 91.1792 30.0772 91.1792L50.7417 91.1792C53.6006 91.1792 54.9795 89.7632 54.9795 86.6636L54.9795 70.3452C54.9795 67.3652 53.7017 65.9492 51.1309 65.8482L51.1309 60.6543C51.1309 53.5689 46.8086 48.8491 40.4019 48.8491C34.0103 48.8491 29.7217 53.5689 29.7217 60.6543L29.7217 65.8482C27.1172 65.9492 25.8394 67.3652 25.8394 70.3452ZM33.1607 65.8145L33.1607 60.3662C33.1607 55.4668 36.0767 52.2207 40.4019 52.2207C44.7422 52.2207 47.6582 55.4668 47.6582 60.3662L47.6582 65.8145Z" fill="#000000" fill-opacity="0.85"/>
 </g>
</svg>
