<?xml version="1.0" encoding="UTF-8"?>
<!--Generator: Apple Native CoreSVG 232.5-->
<!DOCTYPE svg
PUBLIC "-//W3C//DTD SVG 1.1//EN"
       "http://www.w3.org/Graphics/SVG/1.1/DTD/svg11.dtd">
<svg version="1.1" xmlns="http://www.w3.org/2000/svg" xmlns:xlink="http://www.w3.org/1999/xlink" width="101.563" height="97.1943">
 <g>
  <rect height="97.1943" opacity="0" width="101.563" x="0" y="0"/>
  <path d="M10.3657 94.689L55.9214 94.689C62.4785 94.689 66.2871 90.7524 66.2871 83.7339L66.2871 48.8652C66.2871 41.8652 62.4785 37.9439 55.9214 37.9439L10.3657 37.9439C3.80859 37.9439 0 41.8652 0 48.8652L0 83.7339C0 90.7524 3.80859 94.689 10.3657 94.689ZM52.7441 40.8291L58.7334 40.8291L58.7334 25.9634C58.7334 13.186 66.8252 5.70802 77.1367 5.70802C87.4634 5.70802 95.54 13.186 95.54 25.9634L95.54 36.6821C95.54 38.8364 96.9009 39.9985 98.5683 39.9985C100.168 39.9985 101.563 38.9375 101.563 36.6821L101.563 26.5801C101.563 9.40136 90.3501 0 77.1367 0C63.8896 0 52.7441 9.40136 52.7441 26.5801Z" fill="#000000" fill-opacity="0.85"/>
 </g>
</svg>
