<?xml version="1.0" encoding="UTF-8"?>
<!--Generator: Apple Native CoreSVG 232.5-->
<!DOCTYPE svg
PUBLIC "-//W3C//DTD SVG 1.1//EN"
       "http://www.w3.org/Graphics/SVG/1.1/DTD/svg11.dtd">
<svg version="1.1" xmlns="http://www.w3.org/2000/svg" xmlns:xlink="http://www.w3.org/1999/xlink" width="71.2618" height="99.667">
 <g>
  <rect height="99.667" opacity="0" width="71.2618" x="0" y="0"/>
  <path d="M4.22998 68.1011C4.22998 75.6089 7.02686 80.8726 12.4688 83.8848C14.9878 85.2251 16.293 86.6534 17.2393 89.6827L19.0288 95.5581C19.8506 98.3047 21.8057 99.667 24.6685 99.667L46.3189 99.667C49.2642 99.667 51.1182 98.3384 51.9248 95.5581L53.7783 89.6827C54.6944 86.6534 55.9995 85.2251 58.5186 83.8848C63.9605 80.8726 66.7574 75.6089 66.7574 68.1011L66.7574 31.5962C66.7574 24.0732 63.9605 18.8433 58.5186 15.7974C55.9995 14.457 54.6944 13.0288 53.7783 10.0332L51.9248 4.12403C51.1856 1.41113 49.2305 0.0151366 46.3189 0.0151366L24.6685 0.0151366C21.8057 0.0151366 19.8506 1.37744 19.0288 4.12403L17.2393 10.0332C16.3267 12.9951 15.0215 14.4907 12.4688 15.7974C7.06055 18.7422 4.22998 24.0059 4.22998 31.5962ZM9.78468 67.3784L9.78468 32.3525C9.78468 24.3506 14.502 19.5322 22.4028 19.5322L48.5996 19.5322C56.5156 19.5322 61.2027 24.3506 61.2027 32.3525L61.2027 67.3784C61.2027 75.3467 56.5156 80.1499 48.5996 80.1499L22.4028 80.1499C14.502 80.1499 9.78468 75.3467 9.78468 67.3784ZM65.4864 46.6333L67.3955 46.6333C69.7227 46.6333 71.2618 45.0303 71.2618 42.459L71.2618 35.7158C71.2618 33.19 69.7227 31.5718 67.3955 31.5718L65.4864 31.5718Z" fill="#000000" fill-opacity="0.85"/>
  <path d="M18.3799 62.1206C18.3799 64.8736 19.6714 66.229 22.2778 66.229L38.8491 66.229C41.4556 66.229 42.7471 64.8736 42.7471 62.1206L42.7471 49.3613C42.7471 46.6084 41.4556 45.2866 38.8491 45.2866L22.2778 45.2866C19.6714 45.2866 18.3799 46.6084 18.3799 49.3613ZM35.4375 47.4224L39.5601 47.4224L39.5601 41.1665C39.5601 37.2959 41.6797 34.8159 45.2119 34.8159C48.729 34.8159 50.8638 37.2959 50.8638 41.1665L50.8638 44.2398C50.8638 45.395 51.7866 46.3179 52.9419 46.3179C54.0449 46.3179 54.9863 45.395 54.9863 44.2398L54.9863 41.1665C54.9863 35.105 51.0884 30.7642 45.2119 30.7642C39.3018 30.7642 35.4375 35.105 35.4375 41.4697Z" fill="#000000" fill-opacity="0.85"/>
 </g>
</svg>
