<?xml version="1.0" encoding="UTF-8"?>
<!--Generator: Apple Native CoreSVG 232.5-->
<!DOCTYPE svg
PUBLIC "-//W3C//DTD SVG 1.1//EN"
       "http://www.w3.org/Graphics/SVG/1.1/DTD/svg11.dtd">
<svg version="1.1" xmlns="http://www.w3.org/2000/svg" xmlns:xlink="http://www.w3.org/1999/xlink" width="119.729" height="96.2735">
 <g>
  <rect height="96.2735" opacity="0" width="119.729" x="0" y="0"/>
  <path d="M96.5913 14.2857L96.5913 21.2871L90.5615 21.2871L90.5615 14.6191C90.5615 8.98097 87.4453 6.05665 82.0513 6.05665L14.5064 6.05665C9.00294 6.05665 6.04494 8.98097 6.04494 14.6191L6.04494 60.4243C6.04494 66.0625 9.00294 68.9531 14.5064 68.9531L23.1221 68.9531L23.1221 74.9829L14.3936 74.9829C4.83594 74.9829 0 70.1807 0 60.709L0 14.2857C0 4.84766 4.83594 0.0117183 14.3936 0.0117183L82.1978 0.0117183C91.7031 0.0117183 96.5913 4.89307 96.5913 14.2857Z" fill="#000000" fill-opacity="0.85"/>
  <path d="M37.5308 96.2735L105.32 96.2735C114.825 96.2735 119.729 91.3921 119.729 81.9995L119.729 35.5611C119.729 26.1685 114.825 21.2871 105.32 21.2871L37.5308 21.2871C27.958 21.2871 23.1221 26.1231 23.1221 35.5611L23.1221 81.9995C23.1221 91.4712 27.958 96.2735 37.5308 96.2735ZM37.6284 90.2285C32.125 90.2285 29.167 87.3379 29.167 81.6997L29.167 35.8945C29.167 30.2564 32.125 27.3321 37.6284 27.3321L105.188 27.3321C110.583 27.3321 113.684 30.2564 113.684 35.8945L113.684 81.6997C113.684 87.3379 110.583 90.2285 105.188 90.2285Z" fill="#000000" fill-opacity="0.85"/>
  <path d="M53.7227 78.1944C53.7227 81.9927 55.3945 83.7168 58.8696 83.7168L83.9961 83.7168C87.5049 83.7168 89.1768 81.9927 89.1768 78.1944L89.1768 58.3823C89.1768 54.7525 87.6397 53.0283 84.4526 52.8936L84.4526 46.6172C84.4526 37.9961 79.2026 32.2476 71.4404 32.2476C63.6968 32.2476 58.4131 37.9961 58.4131 46.6172L58.4131 52.8936C55.2749 53.0283 53.7227 54.7525 53.7227 58.3823ZM62.6133 52.8599L62.6133 46.2617C62.6133 40.273 66.1607 36.3618 71.4404 36.3618C76.7388 36.3618 80.2524 40.273 80.2524 46.2617L80.2524 52.8599Z" fill="#000000" fill-opacity="0.85"/>
 </g>
</svg>
