<?xml version="1.0" encoding="UTF-8"?>
<!--Generator: Apple Native CoreSVG 232.5-->
<!DOCTYPE svg
PUBLIC "-//W3C//DTD SVG 1.1//EN"
       "http://www.w3.org/Graphics/SVG/1.1/DTD/svg11.dtd">
<svg version="1.1" xmlns="http://www.w3.org/2000/svg" xmlns:xlink="http://www.w3.org/1999/xlink" width="59.4746" height="100.561">
 <g>
  <rect height="100.561" opacity="0" width="59.4746" x="0" y="0"/>
  <path d="M0 88.1763C0 95.8086 4.82276 100.493 12.6909 100.493L46.7837 100.493C54.6367 100.493 59.4746 95.8086 59.4746 88.1763L59.4746 12.3169C59.4746 4.68457 54.6367 0 46.7837 0L12.6909 0C4.82276 0 0 4.68457 0 12.3169ZM6.04494 87.3457L6.04494 13.1626C6.04494 8.42384 8.50636 6.0298 13.4136 6.0298L46.0947 6.0298C50.9683 6.0298 53.4297 8.42384 53.4297 13.1626L53.4297 87.3457C53.4297 92.0845 50.9683 94.4634 46.0947 94.4634L13.4136 94.4634C8.50636 94.4634 6.04494 92.0845 6.04494 87.3457Z" fill="#000000" fill-opacity="0.85"/>
  <path d="M21.5249 66.627L38.0474 66.627C40.6387 66.627 41.9116 65.3052 41.9116 62.5674L41.9116 49.8418C41.9116 47.5991 41.0513 46.3447 39.3491 45.8984L39.3491 42.3057C39.3491 35.9561 35.4697 31.6152 29.7617 31.6152C24.0537 31.6152 20.1895 35.9561 20.1895 42.3057L20.1895 45.9321C18.4722 46.3447 17.6118 47.5991 17.6118 49.8418L17.6118 62.5674C17.6118 65.3052 18.8848 66.627 21.5249 66.627ZM24.312 45.7485L24.312 42.0176C24.312 38.147 26.4317 35.667 29.7617 35.667C33.0581 35.667 35.2114 38.147 35.2114 42.0176L35.2114 45.7485Z" fill="#000000" fill-opacity="0.85"/>
 </g>
</svg>
