<?xml version="1.0" encoding="UTF-8"?>
<!--Generator: Apple Native CoreSVG 232.5-->
<!DOCTYPE svg
PUBLIC "-//W3C//DTD SVG 1.1//EN"
       "http://www.w3.org/Graphics/SVG/1.1/DTD/svg11.dtd">
<svg version="1.1" xmlns="http://www.w3.org/2000/svg" xmlns:xlink="http://www.w3.org/1999/xlink" width="88.1422" height="90.8867">
 <g>
  <rect height="90.8867" opacity="0" width="88.1422" x="0" y="0"/>
  <path d="M1.19291 62.0146C-4.70553 79.1792 11.9585 90.8867 44.0787 90.8867C76.1836 90.8867 92.8814 79.1792 86.9644 62.0146L76.2388 30.5425L76.2388 13.3877C76.2388 6.37256 63.4488 0.797358 44.0787 0.797358C24.7422 0.797358 11.9859 6.37256 11.9859 13.3877L11.9859 30.3623ZM6.90776 63.9263L15.7251 38.2881C20.3409 43.0088 30.5069 45.876 44.0787 45.876C57.1978 45.876 67.6768 43.0088 72.4507 38.2915L81.2344 63.9263C85.4688 76.331 71.1392 84.793 44.0787 84.793C17.003 84.793 2.68853 76.331 6.90776 63.9263ZM18.0308 13.3877C18.0308 9.95655 28.483 6.52052 44.0787 6.52052C59.7569 6.52052 70.209 9.95655 70.209 13.3877C70.209 16.7852 59.7569 20.2549 44.0787 20.2549C28.483 20.2549 18.0308 16.7852 18.0308 13.3877Z" fill="#000000" fill-opacity="0.85"/>
 </g>
</svg>
