<?xml version="1.0" encoding="UTF-8"?>
<!--Generator: Apple Native CoreSVG 232.5-->
<!DOCTYPE svg
PUBLIC "-//W3C//DTD SVG 1.1//EN"
       "http://www.w3.org/Graphics/SVG/1.1/DTD/svg11.dtd">
<svg version="1.1" xmlns="http://www.w3.org/2000/svg" xmlns:xlink="http://www.w3.org/1999/xlink" width="123.779" height="85.5718">
 <g>
  <rect height="85.5718" opacity="0" width="123.779" x="0" y="0"/>
  <path d="M123.779 48.3884L123.779 18.0002C123.779 9.60473 118.431 4.17748 109.956 4.17748L13.7554 4.21117C5.34815 4.21117 0 9.68725 0 18.1165L0 48.3884C0 60.5657 5.05664 67.7693 17.6245 71.4753L59.7583 83.7952C70.7534 87.0247 77.499 85.7669 87.334 80.7087L114.836 66.6277C122.327 62.7752 123.779 58.4592 123.779 48.3884ZM117.734 48.3884C117.734 56.1145 116.639 59.0007 111.066 61.8191L84.0884 75.5784C75.5689 79.9021 70.0659 80.8113 60.0308 77.8293L19.4199 65.7976C9.63478 62.9304 6.04494 57.7898 6.04494 48.3884L6.04494 18.2629C6.04494 13.2698 9.0215 10.2561 13.9019 10.2561L109.843 10.2224C114.709 10.2224 117.734 13.1873 117.734 18.1467Z" fill="#000000" fill-opacity="0.85"/>
  <path d="M27.7573 58.7097L41.7485 58.7097C43.0234 58.7097 44.0659 57.6335 44.0659 56.3435C44.0659 55.1174 43.0234 54.0261 41.7485 54.0261L30.5093 54.0261L30.5093 22.3879C30.5093 20.9446 29.2495 19.6848 27.8062 19.6848C26.314 19.6848 25.0391 20.9446 25.0391 22.3879L25.0391 55.8264C25.0391 57.5998 26.063 58.7097 27.7573 58.7097ZM59.4385 59.4641C66.5474 59.4641 70.7368 55.1775 70.7368 48.3362C70.7368 42.2058 67.5244 39.4646 62.1768 37.3801L59.5855 36.4036C56.2217 35.0955 53.8579 33.2722 53.8579 29.6526C53.8579 26.3025 55.8579 23.9373 59.1675 23.9373C62.6118 23.9373 64.4771 26.4187 64.999 29.3748C65.3662 30.6985 66.2471 31.2239 67.5034 31.2239C68.9922 31.2239 69.9033 30.2673 69.9033 28.8274C69.9033 28.3762 69.8579 27.8494 69.6592 27.073C68.2583 22.1985 64.3164 19.3547 59.1675 19.3547C52.9609 19.3547 48.4702 23.5237 48.4702 30.0232C48.4702 35.9163 51.8867 38.9202 56.8989 40.8665L59.4717 41.8919C62.9565 43.2302 65.3491 44.9255 65.3491 48.8162C65.3491 52.3581 63.1572 54.9119 59.5024 54.9119C55.836 54.9119 53.6475 52.407 53.1104 49.2322C52.8257 47.8142 51.8506 47.2332 50.606 47.2332C49.1172 47.2332 48.2026 48.3245 48.2026 49.8435C48.2026 50.5071 48.2363 50.8152 48.4351 51.5696C49.7603 56.592 53.9649 59.4641 59.4385 59.4641ZM79.7417 58.7249L89.4907 58.7249C96.1162 58.7249 99.9248 54.3757 99.9248 48.0466C99.9248 43.3508 97.2324 39.0911 92.6831 38.5911L92.6831 38.3621C96.2173 37.697 98.647 33.6663 98.647 29.7888C98.647 23.9309 94.8213 20.2556 89.228 20.2556L79.7417 20.2556C77.9985 20.2556 77.02 21.4666 77.02 23.1238L77.02 55.8567C77.02 57.5998 78.0322 58.7249 79.7417 58.7249ZM82.4112 36.9744L82.4112 24.5872L87.729 24.5872C91.5962 24.5872 93.2964 27.0754 93.2964 30.572C93.2964 34.4778 91.0825 36.9744 87.1919 36.9744ZM82.4112 54.427L82.4112 40.8679L87.7139 40.8679C91.7524 40.8679 94.3872 43.1169 94.3872 47.6306C94.3872 51.8596 92.1836 54.427 87.936 54.427Z" fill="#000000" fill-opacity="0.85"/>
 </g>
</svg>
