<?xml version="1.0" encoding="UTF-8"?>
<!--Generator: Apple Native CoreSVG 232.5-->
<!DOCTYPE svg
PUBLIC "-//W3C//DTD SVG 1.1//EN"
       "http://www.w3.org/Graphics/SVG/1.1/DTD/svg11.dtd">
<svg version="1.1" xmlns="http://www.w3.org/2000/svg" xmlns:xlink="http://www.w3.org/1999/xlink" width="109.998" height="83.086">
 <g>
  <rect height="83.086" opacity="0" width="109.998" x="0" y="0"/>
  <path d="M109.998 38.1533L109.998 69.147C109.998 78.2349 105.192 83.0371 96.0064 83.0371L13.9912 83.0371C4.79053 83.0371 0 78.2988 0 69.147L0 38.1533C0 12.7192 11.6475 0 38.999 0L70.9985 0C98.335 0 109.998 12.7192 109.998 38.1533ZM56.1929 21.9268C54.8506 21.9268 53.8233 22.9541 53.8233 24.2778C53.8233 25.6538 54.8506 26.7149 56.1929 26.7149L63.0952 26.7149L63.0952 58.9106C63.0952 60.4702 64.3735 61.7485 65.9331 61.7485C67.459 61.7485 68.7373 60.4702 68.7373 58.9106L68.7373 26.7149L75.1568 26.7149C76.4653 26.7149 77.5264 25.6538 77.5264 24.2778C77.5264 22.9541 76.4653 21.9268 75.1568 21.9268ZM35.5688 24.209L35.5688 58.2573C35.5688 60.0982 36.5928 61.208 38.3394 61.208L52.6338 61.208C53.9273 61.208 55.0186 60.1318 55.0186 58.7744C55.0186 57.481 53.9273 56.4048 52.6338 56.4048L41.2075 56.4048L41.2075 24.209C41.2075 22.6646 39.9141 21.3711 38.4033 21.3711C36.8286 21.3711 35.5688 22.6646 35.5688 24.209Z" fill="#000000" fill-opacity="0.85"/>
 </g>
</svg>
