<?xml version="1.0" encoding="UTF-8"?>
<!--Generator: Apple Native CoreSVG 232.5-->
<!DOCTYPE svg
PUBLIC "-//W3C//DTD SVG 1.1//EN"
       "http://www.w3.org/Graphics/SVG/1.1/DTD/svg11.dtd">
<svg version="1.1" xmlns="http://www.w3.org/2000/svg" xmlns:xlink="http://www.w3.org/1999/xlink" width="97.9595" height="97.9932">
 <g>
  <rect height="97.9932" opacity="0" width="97.9595" x="0" y="0"/>
  <path d="M48.9722 97.9443C75.8247 97.9443 97.9595 75.7759 97.9595 48.9722C97.9595 22.1348 75.791 0 48.9385 0C22.1348 0 0 22.1348 0 48.9722C0 75.7759 22.1685 97.9443 48.9722 97.9443ZM48.9722 91.6113C25.3501 91.6113 6.36671 72.5942 6.36671 48.9722C6.36671 25.3501 25.3164 6.31789 48.9385 6.31789C72.5605 6.31789 91.6265 25.3501 91.6265 48.9722C91.6265 72.5942 72.5942 91.6113 48.9722 91.6113Z" fill="#000000" fill-opacity="0.85"/>
  <path d="M32.1763 68.7324L46.5566 68.7324C47.8652 68.7324 48.9414 67.6563 48.9414 66.2988C48.9414 65.0054 47.8652 63.9292 46.5566 63.9292L35.063 63.9292L35.063 31.479C35.063 29.9683 33.7695 28.6748 32.2251 28.6748C30.6992 28.6748 29.4058 29.9683 29.4058 31.479L29.4058 65.7969C29.4058 67.6226 30.4145 68.7324 32.1763 68.7324ZM59.9233 69.273C61.4981 69.273 62.7427 68.0283 62.7427 66.4351L62.7427 34.0186L69.2144 34.0186C70.523 34.0186 71.5503 32.9575 71.5503 31.6152C71.5503 30.2915 70.523 29.2305 69.2144 29.2305L50.1494 29.2305C48.8071 29.2305 47.7461 30.2915 47.7461 31.6152C47.7461 32.9575 48.8071 34.0186 50.1494 34.0186L57.0855 34.0186L57.0855 66.4351C57.0855 68.0283 58.3301 69.273 59.9233 69.273Z" fill="#000000" fill-opacity="0.85"/>
 </g>
</svg>
