<?xml version="1.0" encoding="UTF-8"?>
<!--Generator: Apple Native CoreSVG 232.5-->
<!DOCTYPE svg
PUBLIC "-//W3C//DTD SVG 1.1//EN"
       "http://www.w3.org/Graphics/SVG/1.1/DTD/svg11.dtd">
<svg version="1.1" xmlns="http://www.w3.org/2000/svg" xmlns:xlink="http://www.w3.org/1999/xlink" width="97.9595" height="97.9932">
 <g>
  <rect height="97.9932" opacity="0" width="97.9595" x="0" y="0"/>
  <path d="M97.9595 48.9722C97.9595 75.7759 75.8247 97.9443 48.9722 97.9443C22.1685 97.9443 0 75.7759 0 48.9722C0 22.1348 22.1348 0 48.9385 0C75.791 0 97.9595 22.1348 97.9595 48.9722ZM50.1157 29.833C48.7886 29.833 47.7612 30.8452 47.7612 32.1538C47.7612 33.4961 48.7886 34.5083 50.1157 34.5083L56.8145 34.5083L56.8145 65.8628C56.8145 67.4409 58.0776 68.6704 59.6221 68.6704C61.148 68.6704 62.3775 67.4409 62.3775 65.8628L62.3775 34.5083L68.627 34.5083C69.9019 34.5083 70.9141 33.4961 70.9141 32.1538C70.9141 30.8452 69.9019 29.833 68.627 29.833ZM29.9477 32.0664L29.9477 65.2583C29.9477 67.0503 30.9565 68.1787 32.6694 68.1787L46.6055 68.1787C47.8652 68.1787 48.9751 67.0689 48.9751 65.7754C48.9751 64.4819 47.8652 63.4058 46.6055 63.4058L35.4736 63.4058L35.4736 32.0664C35.4736 30.5708 34.229 29.311 32.7183 29.311C31.2075 29.311 29.9477 30.5708 29.9477 32.0664Z" fill="#000000" fill-opacity="0.85"/>
 </g>
</svg>
