<?xml version="1.0" encoding="UTF-8"?>
<!--Generator: Apple Native CoreSVG 232.5-->
<!DOCTYPE svg
PUBLIC "-//W3C//DTD SVG 1.1//EN"
       "http://www.w3.org/Graphics/SVG/1.1/DTD/svg11.dtd">
<svg version="1.1" xmlns="http://www.w3.org/2000/svg" xmlns:xlink="http://www.w3.org/1999/xlink" width="112.488" height="85.625">
 <g>
  <rect height="85.625" opacity="0" width="112.488" x="0" y="0"/>
  <path d="M36.4937 85.5274L75.979 85.5274C103.315 85.5274 112.488 75.332 112.488 50.2534L112.488 35.3076C112.488 10.229 103.315 0 75.979 0L36.4937 0C9.15723 0 0 10.229 0 35.3076L0 50.2534C0 75.332 9.15723 85.5274 36.4937 85.5274ZM36.4937 79.4976C13.1895 79.4976 6.04494 71.603 6.04494 50.2534L6.04494 35.3076C6.04494 13.9732 13.1895 6.04494 36.4937 6.04494L75.979 6.04494C99.2832 6.04494 106.443 13.9732 106.443 35.3076L106.443 50.2534C106.443 71.603 99.2832 79.4976 75.979 79.4976Z" fill="#000000" fill-opacity="0.85"/>
  <path d="M31.5 63.2017C33.0259 63.2017 34.0532 62.1104 34.0532 60.4346L34.0532 31.5396L34.3159 31.5396L41.9102 59.8066C42.3193 61.3594 43.249 62.5449 44.9785 62.5449C46.708 62.5449 47.5518 61.4385 47.9795 59.773L55.5737 31.5396L55.8213 31.5396L55.8213 60.4346C55.8213 62.1406 56.7964 63.2017 58.3711 63.2017C60.0318 63.2017 60.9243 62.0952 60.9243 60.4346L60.9243 26.563C60.9243 23.9644 59.4136 22.5059 56.8975 22.5059C54.6104 22.5059 53.3203 23.646 52.7427 25.9263L45.0728 55.0352L44.8472 55.0352L37.0645 25.9263C36.4868 23.6763 35.1143 22.5059 33.0225 22.5059C30.4727 22.5059 28.9316 24.0469 28.9316 26.563L28.9316 60.4346C28.9316 62.0952 29.9253 63.2017 31.5 63.2017ZM78.2588 63.0215C79.8032 63.0215 81.0967 61.728 81.0967 60.1685L81.0967 25.6402C81.0967 23.71 79.8369 22.5024 77.8579 22.5024C76.2007 22.5024 74.8735 23.3984 73.9136 24.1411L67.9976 28.8516C67.3189 29.4141 66.8018 30.1299 66.8018 31.1421C66.8018 32.3682 67.6304 33.2608 68.853 33.2608C69.4981 33.2608 69.8804 33.062 70.293 32.7808L75.3906 28.6528L75.3906 60.1685C75.3906 61.728 76.6841 63.0215 78.2588 63.0215Z" fill="#000000" fill-opacity="0.85"/>
 </g>
</svg>
