<?xml version="1.0" encoding="UTF-8"?>
<!--Generator: Apple Native CoreSVG 232.5-->
<!DOCTYPE svg
PUBLIC "-//W3C//DTD SVG 1.1//EN"
       "http://www.w3.org/Graphics/SVG/1.1/DTD/svg11.dtd">
<svg version="1.1" xmlns="http://www.w3.org/2000/svg" xmlns:xlink="http://www.w3.org/1999/xlink" width="112.488" height="85.625">
 <g>
  <rect height="85.625" opacity="0" width="112.488" x="0" y="0"/>
  <path d="M36.4937 85.5274L75.979 85.5274C103.315 85.5274 112.488 75.332 112.488 50.2534L112.488 35.3076C112.488 10.229 103.315 0 75.979 0L36.4937 0C9.15723 0 0 10.229 0 35.3076L0 50.2534C0 75.332 9.15723 85.5274 36.4937 85.5274ZM36.4937 79.4976C13.1895 79.4976 6.04494 71.603 6.04494 50.2534L6.04494 35.3076C6.04494 13.9732 13.1895 6.04494 36.4937 6.04494L75.979 6.04494C99.2832 6.04494 106.443 13.9732 106.443 35.3076L106.443 50.2534C106.443 71.603 99.2832 79.4976 75.979 79.4976Z" fill="#000000" fill-opacity="0.85"/>
  <path d="M29.0752 63.2017C30.6348 63.2017 31.6436 62.1104 31.6436 60.4346L31.6436 31.5396L31.8911 31.5396L39.5005 59.8066C39.8945 61.3594 40.8731 62.5449 42.5537 62.5449C44.2832 62.5449 45.127 61.4385 45.5884 59.773L53.1978 31.5396L53.3965 31.5396L53.3965 60.4346C53.3965 62.1406 54.3867 63.2017 55.98 63.2017C57.6069 63.2017 58.5484 62.0952 58.5484 60.4346L58.5484 26.563C58.5484 23.9644 57.0039 22.5059 54.4878 22.5059C52.1855 22.5059 50.8955 23.646 50.3179 25.9263L42.6968 55.0352L42.4224 55.0352L34.6548 25.9263C34.0772 23.6763 32.7383 22.5059 30.5977 22.5059C28.0815 22.5059 26.522 24.0469 26.522 26.563L26.522 60.4346C26.522 62.0952 27.5156 63.2017 29.0752 63.2017ZM67.9136 62.5147L84.7813 62.5147C86.1572 62.5147 87.0161 61.5884 87.0161 60.2124C87.0161 58.7354 86.1236 57.8613 84.7813 57.8613L72.252 57.8613L72.252 57.5464L80.2437 46.9238C84.7178 41.1416 86.2232 37.5435 86.2232 33.3374C86.2232 26.9575 82.2002 22.1118 75.6738 22.1118C69.6694 22.1118 65.2778 27.3179 65.2778 32.4414C65.2778 33.8242 66.125 34.9273 67.6626 34.9273C68.9561 34.9273 69.815 34.2857 70.1519 33.0073C70.9737 29.2515 72.4331 26.7466 75.689 26.7466C79.1939 26.7466 80.9448 29.9854 80.9448 33.6035C80.9448 37.4038 78.7251 41.0864 75.9253 44.8003L66.5967 57.1387C65.8843 58.0986 65.229 59.062 65.229 60.2275C65.229 61.6001 66.1519 62.5147 67.9136 62.5147Z" fill="#000000" fill-opacity="0.85"/>
 </g>
</svg>
