<?xml version="1.0" encoding="UTF-8"?>
<!--Generator: Apple Native CoreSVG 232.5-->
<!DOCTYPE svg
PUBLIC "-//W3C//DTD SVG 1.1//EN"
       "http://www.w3.org/Graphics/SVG/1.1/DTD/svg11.dtd">
<svg version="1.1" xmlns="http://www.w3.org/2000/svg" xmlns:xlink="http://www.w3.org/1999/xlink" width="112.488" height="85.625">
 <g>
  <rect height="85.625" opacity="0" width="112.488" x="0" y="0"/>
  <path d="M112.488 35.3076L112.488 50.2534C112.488 75.332 103.315 85.5274 75.979 85.5274L36.4937 85.5274C9.15723 85.5274 0 75.332 0 50.2534L0 35.3076C0 10.229 9.15723 0 36.4937 0L75.979 0C103.315 0 112.488 10.229 112.488 35.3076ZM65.7866 29.1665C65.5122 30.1733 65.4297 31.0523 65.4297 31.8101C65.4297 33.1826 66.2583 34.2437 67.8853 34.2437C69.3218 34.2437 70.0747 33.624 70.4571 32.1538C71.2114 28.9331 72.9522 26.6084 76.2569 26.6084C79.9102 26.6084 81.7451 29.4653 81.7451 33.1187C81.7451 37.0684 79.4219 40.0415 75.3711 40.0415L73.8696 40.0415C72.4483 40.0415 71.5977 40.9644 71.5977 42.2764C71.5977 43.6035 72.5088 44.4439 73.8696 44.4439L75.4688 44.4439C80.0532 44.4439 82.6694 46.9541 82.6694 51.7539C82.6694 55.584 80.6323 58.9712 76.4673 58.9712C72.4571 58.9712 70.479 56.1362 69.9234 53.4478C69.5562 52.0449 68.7393 51.3208 67.355 51.3208C65.7769 51.3208 64.7124 52.3145 64.7124 53.8892C64.7124 54.7109 64.874 55.6655 65.1182 56.4805C66.5225 61.0015 71.1533 63.7407 76.4185 63.7407C83.2549 63.7407 88.3789 59.2149 88.3789 51.877C88.3789 45.9902 85.0615 42.5659 80.5073 42.1265L80.5073 41.98C85.0366 40.8047 87.2222 36.688 87.2222 32.5039C87.2222 25.8999 82.5274 21.8691 76.2569 21.8691C71.1685 21.8691 67.1909 24.7837 65.7866 29.1665ZM49.3784 25.6045L41.5889 55.2222L41.3482 55.2222L33.4121 25.6045C32.8345 23.2871 31.4434 22.0982 29.2354 22.0982C26.6519 22.0982 25.0586 23.6577 25.0586 26.2749L25.0586 60.79C25.0586 62.4844 26.1196 63.6094 27.6792 63.6094C29.2876 63.6094 30.3149 62.4995 30.3149 60.79L30.3149 31.3863L30.5962 31.3863L38.2915 60.1284C38.7529 61.7485 39.6978 62.9678 41.4609 62.9678C43.209 62.9678 44.1201 61.8276 44.5479 60.0947L52.292 31.3863L52.4907 31.3863L52.4907 60.79C52.4907 62.5147 53.5147 63.6094 55.1753 63.6094C56.8359 63.6094 57.7959 62.4844 57.7959 60.79L57.7959 26.2749C57.7959 23.5752 56.2515 22.0982 53.6006 22.0982C51.2798 22.0982 49.9224 23.2568 49.3784 25.6045Z" fill="#000000" fill-opacity="0.85"/>
 </g>
</svg>
