<?xml version="1.0" encoding="UTF-8"?>
<!--Generator: Apple Native CoreSVG 232.5-->
<!DOCTYPE svg
PUBLIC "-//W3C//DTD SVG 1.1//EN"
       "http://www.w3.org/Graphics/SVG/1.1/DTD/svg11.dtd">
<svg version="1.1" xmlns="http://www.w3.org/2000/svg" xmlns:xlink="http://www.w3.org/1999/xlink" width="112.488" height="85.625">
 <g>
  <rect height="85.625" opacity="0" width="112.488" x="0" y="0"/>
  <path d="M36.4937 85.5274L75.979 85.5274C103.315 85.5274 112.488 75.332 112.488 50.2534L112.488 35.3076C112.488 10.229 103.315 0 75.979 0L36.4937 0C9.15723 0 0 10.229 0 35.3076L0 50.2534C0 75.332 9.15723 85.5274 36.4937 85.5274ZM36.4937 79.4976C13.1895 79.4976 6.04494 71.603 6.04494 50.2534L6.04494 35.3076C6.04494 13.9732 13.1895 6.04494 36.4937 6.04494L75.979 6.04494C99.2832 6.04494 106.443 13.9732 106.443 35.3076L106.443 50.2534C106.443 71.603 99.2832 79.4976 75.979 79.4976Z" fill="#000000" fill-opacity="0.85"/>
  <path d="M27.7183 63.2017C29.2593 63.2017 30.2866 62.1104 30.2866 60.4346L30.2866 31.5396L30.5342 31.5396L38.1436 59.8066C38.5376 61.3594 39.4824 62.5449 41.2119 62.5449C42.9263 62.5449 43.77 61.4385 44.1978 59.773L51.8071 31.5396L52.0396 31.5396L52.0396 60.4346C52.0396 62.1406 53.0298 63.2017 54.5894 63.2017C56.25 63.2017 57.1577 62.0952 57.1577 60.4346L57.1577 26.563C57.1577 23.9644 55.647 22.5059 53.1309 22.5059C50.8286 22.5059 49.5386 23.646 48.9609 25.9263L41.3062 55.0352L41.0654 55.0352L33.2979 25.9263C32.7202 23.6763 31.3477 22.5059 29.2407 22.5059C26.6909 22.5059 25.165 24.0469 25.165 26.563L25.165 60.4346C25.165 62.0952 26.1587 63.2017 27.7183 63.2017ZM81.4155 63.0889C82.8926 63.0889 84.0698 62.0869 84.0698 60.2881L84.0698 54.1943L86.3574 54.1943C87.8985 54.1943 88.6411 53.2158 88.6411 51.8433C88.6411 50.5532 87.8867 49.5747 86.3574 49.5747L84.0698 49.5747L84.0698 26.6861C84.0698 23.8467 82.2207 22.4116 79.7886 22.4116C77.0029 22.4116 75.7095 23.8818 74.5845 26.334L64.6519 47.1108C63.9732 48.6367 63.7105 49.6943 63.7105 50.9204C63.7105 52.8555 65.0342 54.1943 67.0635 54.1943L78.6973 54.1943L78.6973 60.2881C78.6973 62.3008 80.1289 63.0889 81.4155 63.0889ZM78.7984 49.6758L68.6113 49.6758L68.6113 49.4097L78.603 27.6861L78.7984 27.6861Z" fill="#000000" fill-opacity="0.85"/>
 </g>
</svg>
