<?xml version="1.0" encoding="UTF-8"?>
<!--Generator: Apple Native CoreSVG 232.5-->
<!DOCTYPE svg
PUBLIC "-//W3C//DTD SVG 1.1//EN"
       "http://www.w3.org/Graphics/SVG/1.1/DTD/svg11.dtd">
<svg version="1.1" xmlns="http://www.w3.org/2000/svg" xmlns:xlink="http://www.w3.org/1999/xlink" width="112.488" height="85.625">
 <g>
  <rect height="85.625" opacity="0" width="112.488" x="0" y="0"/>
  <path d="M112.488 35.3076L112.488 50.2534C112.488 75.332 103.315 85.5274 75.979 85.5274L36.4937 85.5274C9.15723 85.5274 0 75.332 0 50.2534L0 35.3076C0 10.229 9.15723 0 36.4937 0L75.979 0C103.315 0 112.488 10.229 112.488 35.3076ZM48.7402 25.6045L40.9507 55.2222L40.71 55.2222L32.8413 25.6045C32.23 23.2871 30.8237 22.0982 28.6646 22.0982C26.0474 22.0982 24.4541 23.6577 24.4541 26.2749L24.4541 60.79C24.4541 62.4844 25.4814 63.6094 27.0747 63.6094C28.668 63.6094 29.729 62.4995 29.729 60.79L29.729 31.3863L29.9917 31.3863L37.7207 60.1284C38.1147 61.7485 39.0933 62.9678 40.8565 62.9678C42.6382 62.9678 43.5156 61.8276 43.9434 60.0947L51.6724 31.3863L51.9199 31.3863L51.9199 60.79C51.9199 62.5147 52.9287 63.6094 54.522 63.6094C56.25 63.6094 57.1914 62.4844 57.1914 60.79L57.1914 26.2749C57.1914 23.5752 55.6133 22.0982 53.0298 22.0982C50.6753 22.0982 49.3516 23.2568 48.7402 25.6045ZM74.9063 26.0122L64.8052 47.1631C64.1265 48.7378 63.8452 49.814 63.8452 51.0889C63.8452 53.0762 65.2212 54.4487 67.2842 54.4487L79.1538 54.4487L79.1538 60.6099C79.1538 62.69 80.604 63.5117 81.958 63.5117C83.4839 63.5117 84.6797 62.4761 84.6797 60.6099L84.6797 54.4487L87.001 54.4487C88.5757 54.4487 89.3521 53.4365 89.3521 52.0303C89.3521 50.7217 88.564 49.7095 87.001 49.7095L84.6797 49.7095L84.6797 26.398C84.6797 23.4575 82.7632 22.0039 80.2637 22.0039C77.3921 22.0039 76.0649 23.4927 74.9063 26.0122ZM79.2549 49.8106L68.8994 49.8106L68.8994 49.5444L79.0596 27.398L79.2549 27.398Z" fill="#000000" fill-opacity="0.85"/>
 </g>
</svg>
