<?xml version="1.0" encoding="UTF-8"?>
<!--Generator: Apple Native CoreSVG 232.5-->
<!DOCTYPE svg
PUBLIC "-//W3C//DTD SVG 1.1//EN"
       "http://www.w3.org/Graphics/SVG/1.1/DTD/svg11.dtd">
<svg version="1.1" xmlns="http://www.w3.org/2000/svg" xmlns:xlink="http://www.w3.org/1999/xlink" width="147.093" height="93.1202">
 <g>
  <rect height="93.1202" opacity="0" width="147.093" x="0" y="0"/>
  <path d="M126.355 15.3916L119.003 15.3916C118.096 14.5963 116.787 14.2036 115.089 14.2036L32.0039 14.2036C28.3306 14.2036 26.5259 15.9932 26.5259 19.6177L26.5259 75.6065L94.4673 75.6065L94.4673 78.9873C94.4673 81.2493 94.847 83.2941 95.5741 85.0742L9.80273 85.0742C7.18408 85.0742 5.11767 82.9776 5.11767 80.3404C5.11767 77.688 7.18408 75.6065 9.80273 75.6065L20.481 75.6065L20.481 18.1318C20.481 11.5381 24.1821 8.1587 30.5215 8.1587L116.572 8.1587C122.148 8.1587 125.488 10.6004 126.355 15.3916Z" fill="#000000" fill-opacity="0.85"/>
  <path d="M108.854 87.7852L130.711 87.7852C136.554 87.7852 139.794 84.6616 139.794 78.9873L139.794 30.1275C139.794 24.438 136.539 21.2505 130.711 21.2505L108.854 21.2505C103.076 21.2505 99.8022 24.438 99.8022 30.1275L99.8022 78.9873C99.8022 84.6616 103.012 87.7852 108.854 87.7852ZM108.971 82.7207C106.187 82.7207 104.867 81.3672 104.867 78.5645L104.867 30.5503C104.867 27.6836 106.187 26.315 108.971 26.315L130.629 26.315C133.428 26.315 134.729 27.6836 134.729 30.5503L134.729 78.5645C134.729 81.3672 133.428 82.7207 130.629 82.7207ZM113.059 80.2305L126.488 80.2305C127.389 80.2305 128.095 79.6074 128.095 78.6729C128.095 77.8511 127.374 77.1489 126.488 77.1489L113.059 77.1489C112.14 77.1489 111.535 77.8511 111.535 78.6729C111.535 79.6411 112.091 80.2305 113.059 80.2305ZM115.96 32.8282L123.535 32.8282C124.699 32.8282 125.588 31.939 125.588 30.7906C125.588 29.6607 124.699 28.8052 123.535 28.8052L115.96 28.8052C114.812 28.8052 113.941 29.6607 113.941 30.7906C113.941 31.939 114.812 32.8282 115.96 32.8282Z" fill="#000000" fill-opacity="0.85"/>
 </g>
</svg>
