<?xml version="1.0" encoding="UTF-8"?>
<!--Generator: Apple Native CoreSVG 232.5-->
<!DOCTYPE svg
PUBLIC "-//W3C//DTD SVG 1.1//EN"
       "http://www.w3.org/Graphics/SVG/1.1/DTD/svg11.dtd">
<svg version="1.1" xmlns="http://www.w3.org/2000/svg" xmlns:xlink="http://www.w3.org/1999/xlink" width="136.809" height="77.0283">
 <g>
  <rect height="77.0283" opacity="0" width="136.809" x="0" y="0"/>
  <path d="M21.4082 67.5606L21.4082 11.5718C21.4082 7.94728 23.2129 6.15773 26.8374 6.15773L109.972 6.15773C113.596 6.15773 115.416 7.94728 115.416 11.5718L115.416 67.5606Z" fill="#000000" fill-opacity="0.2125"/>
  <path d="M54.665 6.15773L55.9009 6.15773C56.5879 6.15773 56.9483 6.48439 56.9483 7.22365L56.9483 7.73048C56.9483 9.56935 58.1792 10.8003 60.0181 10.8003L76.9038 10.8003C78.709 10.8003 79.8726 9.56935 79.8726 7.73048L79.8726 7.22365C79.8726 6.48439 80.2329 6.15773 80.9722 6.15773L82.1929 6.15773L82.1929 3.04346L54.665 3.04346ZM0 72.2944C0 74.9317 2.06641 77.0283 4.68507 77.0283L132.124 77.0283C134.743 77.0283 136.809 74.9317 136.809 72.2944C136.809 69.6421 134.743 67.5606 132.124 67.5606L121.446 67.5606L121.446 10.0859C121.446 3.49219 117.965 0.112793 111.42 0.112793L25.3887 0.112793C19.0645 0.112793 15.3633 3.49219 15.3633 10.0859L15.3633 67.5606L4.68507 67.5606C2.06641 67.5606 0 69.6421 0 72.2944ZM21.4082 67.5606L21.4082 11.5718C21.4082 7.94728 23.2129 6.15773 26.8374 6.15773L109.972 6.15773C113.596 6.15773 115.416 7.94728 115.416 11.5718L115.416 67.5606Z" fill="#000000" fill-opacity="0.85"/>
 </g>
</svg>
