<?xml version="1.0" encoding="UTF-8"?>
<!--Generator: Apple Native CoreSVG 232.5-->
<!DOCTYPE svg
PUBLIC "-//W3C//DTD SVG 1.1//EN"
       "http://www.w3.org/Graphics/SVG/1.1/DTD/svg11.dtd">
<svg version="1.1" xmlns="http://www.w3.org/2000/svg" xmlns:xlink="http://www.w3.org/1999/xlink" width="118.127" height="55.6113">
 <g>
  <rect height="55.6113" opacity="0" width="118.127" x="0" y="0"/>
  <path d="M95.4966 39.832C92.2754 39.8809 89.4634 37.0352 89.4634 33.7803C89.4634 30.4614 92.2754 27.6646 95.4966 27.6646C98.7666 27.6646 101.53 30.4614 101.53 33.7803C101.53 37.0352 98.7666 39.7495 95.4966 39.832ZM14.3936 55.2407L103.718 55.2407C113.257 55.2407 118.127 50.3594 118.127 40.9668L118.127 14.2402C118.127 4.88135 113.257 0 103.718 0L14.3936 0C4.83594 0 0 4.80225 0 14.2402L0 40.9668C0 50.4385 4.83594 55.2407 14.3936 55.2407Z" fill="#000000" fill-opacity="0.85"/>
 </g>
</svg>
