<?xml version="1.0" encoding="UTF-8"?>
<!--Generator: Apple Native CoreSVG 232.5-->
<!DOCTYPE svg
PUBLIC "-//W3C//DTD SVG 1.1//EN"
       "http://www.w3.org/Graphics/SVG/1.1/DTD/svg11.dtd">
<svg version="1.1" xmlns="http://www.w3.org/2000/svg" xmlns:xlink="http://www.w3.org/1999/xlink" width="118.127" height="55.6113">
 <g>
  <rect height="55.6113" opacity="0" width="118.127" x="0" y="0"/>
  <path d="M95.4966 39.6973C98.6992 39.6148 101.395 36.9678 101.395 33.7803C101.395 30.5288 98.6992 27.7993 95.4966 27.7993C92.3428 27.7993 89.583 30.5288 89.583 33.7803C89.583 36.9678 92.3428 39.7612 95.4966 39.6973ZM14.3936 55.2407L103.718 55.2407C113.257 55.2407 118.127 50.3594 118.127 40.9668L118.127 14.2402C118.127 4.88135 113.257 0 103.718 0L14.3936 0C4.83594 0 0 4.80225 0 14.2402L0 40.9668C0 50.4385 4.83594 55.2407 14.3936 55.2407ZM14.5064 49.1958C9.00294 49.1958 6.04494 46.3052 6.04494 40.667L6.04494 14.5737C6.04494 8.93556 9.00294 6.04494 14.5064 6.04494L103.621 6.04494C109.015 6.04494 112.082 8.93556 112.082 14.5737L112.082 40.667C112.082 46.3052 109.015 49.1958 103.621 49.1958Z" fill="#000000" fill-opacity="0.85"/>
 </g>
</svg>
