<?xml version="1.0" encoding="UTF-8"?>
<!--Generator: Apple Native CoreSVG 232.5-->
<!DOCTYPE svg
PUBLIC "-//W3C//DTD SVG 1.1//EN"
       "http://www.w3.org/Graphics/SVG/1.1/DTD/svg11.dtd">
<svg version="1.1" xmlns="http://www.w3.org/2000/svg" xmlns:xlink="http://www.w3.org/1999/xlink" width="97.5791" height="112.293">
 <g>
  <rect height="112.293" opacity="0" width="97.5791" x="0" y="0"/>
  <path d="M0 104.735C0 109.348 2.77686 112.293 7.20215 112.293L16.2588 112.293C19.0186 112.293 21.0728 110.931 21.9785 108.291L24.5376 100.508L73.0415 100.508L75.6006 108.291C76.5064 110.931 78.6094 112.293 81.354 112.293L90.377 112.293C94.8023 112.293 97.5791 109.348 97.5791 104.735L97.5791 7.74268C97.5791 3.13037 94.8023 0.185058 90.377 0.185058L81.354 0.185058C78.6094 0.185058 76.5064 1.54736 75.6006 4.1875L73.0415 11.9702L24.5376 11.9702L21.9785 4.1875C21.0728 1.54736 19.0186 0.185058 16.2588 0.185058L7.20215 0.185058C2.77686 0.185058 0 3.13037 0 7.74268ZM43.5444 72.1792C41.3218 72.1792 39.8013 70.0879 38.0215 67.5874C35.915 64.6138 34.2481 60.0557 34.2481 55.6929C34.2481 48.6494 38.7725 44.9888 43.2666 44.9888C45.6694 44.9888 47.5806 46.5093 49.0825 46.5093C50.5054 46.5093 52.728 44.876 55.4238 44.876C56.4863 44.876 60.1284 44.9888 62.565 48.4692C62.3511 48.6006 58.6753 50.7256 58.6753 55.3325C58.6753 60.6753 63.3799 62.5225 63.5112 62.5864C63.4624 62.7515 62.8242 65.2183 61.0445 67.7339C59.5088 69.874 57.8906 72.1792 55.4238 72.1792C53.0059 72.1792 52.334 70.7412 49.4917 70.7412C46.8296 70.7412 45.7822 72.1792 43.5444 72.1792ZM49.3115 44.5493C49.0825 44.5493 48.936 44.5308 48.8384 44.4331C48.7896 44.3691 48.7896 44.0913 48.7896 43.8135C48.7896 41.9512 49.6382 40.0703 50.7007 38.895C52.041 37.4082 54.1997 36.2481 56.0132 36.1992C56.062 36.3945 56.062 36.6235 56.062 36.9014C56.062 38.7637 55.2925 40.5957 54.1997 41.9512C53.0059 43.438 50.9297 44.5493 49.3115 44.5493Z" fill="#000000" fill-opacity="0.85"/>
 </g>
</svg>
