<?xml version="1.0" encoding="UTF-8"?>
<!--Generator: Apple Native CoreSVG 232.5-->
<!DOCTYPE svg
PUBLIC "-//W3C//DTD SVG 1.1//EN"
       "http://www.w3.org/Graphics/SVG/1.1/DTD/svg11.dtd">
<svg version="1.1" xmlns="http://www.w3.org/2000/svg" xmlns:xlink="http://www.w3.org/1999/xlink" width="118.127" height="62.5049">
 <g>
  <rect height="62.5049" opacity="0" width="118.127" x="0" y="0"/>
  <path d="M14.3936 62.1343L103.718 62.1343C113.257 62.1343 118.127 57.2529 118.127 47.8604L118.127 14.2739C118.127 4.88135 113.257 0 103.718 0L14.3936 0C4.83594 0 0 4.80225 0 14.2739L0 47.8604C0 57.3321 4.83594 62.1343 14.3936 62.1343ZM16.6514 47.9531C15.1709 47.9194 14.0425 46.791 14.0425 45.3106L14.0425 36.4248C14.0425 34.9292 15.2046 33.7671 16.6514 33.8008C18.0796 33.7671 19.2754 34.9292 19.2754 36.4248L19.2754 45.3442C19.2754 46.7573 18.1133 47.9194 16.6514 47.9531ZM27.8897 47.9531C26.4092 47.9194 25.2471 46.791 25.2471 45.3106L25.2471 36.4248C25.2471 34.9292 26.4277 33.7671 27.8897 33.8008C29.3179 33.7671 30.48 34.9292 30.48 36.4248L30.48 45.3442C30.48 46.7573 29.3516 47.9194 27.8897 47.9531ZM40.3784 43.4766C38.9653 43.4766 37.7695 42.2808 37.7695 40.8677C37.7695 39.4395 38.9653 38.2774 40.3784 38.2774L60.6372 38.2774C62.0655 38.2774 63.2613 39.4395 63.2613 40.8677C63.2613 42.2808 62.0655 43.4766 60.6372 43.4766ZM98.8413 46.5371C95.7852 46.586 93.1719 43.939 93.1719 40.9165C93.1719 37.8301 95.7852 35.2471 98.8413 35.2471C101.845 35.2471 104.395 37.8301 104.395 40.9165C104.395 43.939 101.845 46.4732 98.8413 46.5371Z" fill="#000000" fill-opacity="0.85"/>
 </g>
</svg>
