<?xml version="1.0" encoding="UTF-8"?>
<!--Generator: Apple Native CoreSVG 232.5-->
<!DOCTYPE svg
PUBLIC "-//W3C//DTD SVG 1.1//EN"
       "http://www.w3.org/Graphics/SVG/1.1/DTD/svg11.dtd">
<svg version="1.1" xmlns="http://www.w3.org/2000/svg" xmlns:xlink="http://www.w3.org/1999/xlink" width="114.35" height="88.5371">
 <g>
  <rect height="88.5371" opacity="0" width="114.35" x="0" y="0"/>
  <path d="M114.35 14.4019L114.35 74.2632C114.35 83.6558 109.514 88.5371 99.9409 88.5371L14.3936 88.5371C4.86963 88.5371 0 83.7349 0 74.2632L0 14.4019C0 4.93018 4.86963 0.127929 14.3936 0.127929L99.9409 0.127929C109.514 0.127929 114.35 5.00928 114.35 14.4019ZM6.04494 23.3296L6.04494 73.9634C6.04494 79.6016 9.00294 82.4922 14.5064 82.4922L99.8433 82.4922C105.237 82.4922 108.305 79.6016 108.305 73.9634L108.305 23.3296ZM10.4214 11.7212C10.4214 13.7739 12.1777 15.6128 14.313 15.6128C16.4331 15.6128 18.2232 13.7739 18.2232 11.7212C18.2232 9.66846 16.4331 7.84473 14.313 7.84473C12.1777 7.84473 10.4214 9.66846 10.4214 11.7212ZM23.2695 11.7212C23.2695 13.7891 25.0259 15.6128 27.1612 15.6128C29.2964 15.6128 31.0713 13.7891 31.0713 11.7212C31.0713 9.66846 29.2964 7.84473 27.1612 7.84473C25.0259 7.84473 23.2695 9.66846 23.2695 11.7212ZM36.1328 11.7212C36.1328 13.7891 37.8892 15.5977 40.0093 15.5977C42.1446 15.5977 43.9009 13.7891 43.9009 11.7212C43.9009 9.66846 42.1446 7.84473 40.0093 7.84473C37.8892 7.84473 36.1328 9.66846 36.1328 11.7212Z" fill="#000000" fill-opacity="0.85"/>
 </g>
</svg>
