<?xml version="1.0" encoding="UTF-8"?>
<!--Generator: Apple Native CoreSVG 232.5-->
<!DOCTYPE svg
PUBLIC "-//W3C//DTD SVG 1.1//EN"
       "http://www.w3.org/Graphics/SVG/1.1/DTD/svg11.dtd">
<svg version="1.1" xmlns="http://www.w3.org/2000/svg" xmlns:xlink="http://www.w3.org/1999/xlink" width="82.3496" height="111.021">
 <g>
  <rect height="111.021" opacity="0" width="82.3496" x="0" y="0"/>
  <path d="M0 98.7241C0 102.472 0.951171 104.343 4.26172 105.753C13.6103 109.2 25.1035 110.957 36.6362 110.972C50.1719 110.957 66.0068 108.77 75.9522 103.747C81.0093 101.221 82.3496 98.8599 82.3496 93.5772L82.3496 17.7783C82.3496 11.1397 79.3032 8.01075 72.8818 8.01075L68.1104 8.01075L68.1104 6.29981C68.1104 1.88965 65.7749 0 62.1138 0C60.876 0 59.3301 0.311524 57.5938 0.858888C42.3633 5.69287 27.4487 8.39063 10.9356 8.39063L7.6045 8.39063C2.72461 8.39063 0 11.1641 0 15.7524ZM16.1685 43.6919L16.1685 27.188C16.1685 26.5044 16.6567 25.9185 17.3403 25.8999C28.4297 25.5967 39.1611 23.625 49.4556 20.1797C50.0415 19.981 51.0518 20.1948 51.0518 21.3516L51.0518 38.2398C51.0518 38.6792 50.8076 39.1187 50.3682 39.2803C41.3921 42.9307 29.0357 44.9395 17.3403 44.8335C16.7056 44.8335 16.1685 44.458 16.1685 43.6919ZM16.4942 103.848C35.5625 103.432 54.959 98.9087 65.0811 91.0513C67.2666 89.3726 68.1104 87.8267 68.1104 84.0293L68.1104 14.0557L72.9307 14.0557C75.1699 14.0557 76.3047 15.2881 76.3047 17.8238L76.3047 93.1309C76.3047 96.0606 75.729 97.2559 72.9912 98.522C63.9404 102.694 49.5269 105.368 36.6362 105.383C29.5 105.368 22.9326 104.875 16.4942 103.848Z" fill="#000000" fill-opacity="0.85"/>
 </g>
</svg>
