<?xml version="1.0" encoding="UTF-8"?>
<!--Generator: Apple Native CoreSVG 232.5-->
<!DOCTYPE svg
PUBLIC "-//W3C//DTD SVG 1.1//EN"
       "http://www.w3.org/Graphics/SVG/1.1/DTD/svg11.dtd">
<svg version="1.1" xmlns="http://www.w3.org/2000/svg" xmlns:xlink="http://www.w3.org/1999/xlink" width="82.3496" height="111.021">
 <g>
  <rect height="111.021" opacity="0" width="82.3496" x="0" y="0"/>
  <path d="M67.2886 14.0557L72.9307 14.0557C75.1699 14.0557 76.3047 15.2881 76.3047 17.8238L76.3047 93.1309C76.3047 96.0606 75.729 97.2559 72.9912 98.522C63.9404 102.694 49.5269 105.368 36.6362 105.383C28.5567 105.368 21.0122 104.789 13.8291 103.444L13.8291 103.882C33.8931 104.008 54.5733 99.2271 64.2842 91.6611C67.2666 89.3726 68.1104 87.8267 68.1104 84.0293L68.1104 6.29981C68.1104 1.88965 65.7749 0 62.1138 0C60.876 0 59.3301 0.311524 57.5938 0.858888C42.3633 5.69287 27.4487 8.39063 10.9356 8.39063L7.6045 8.39063C2.72461 8.39063 0 11.1641 0 15.7524L0 98.7241C0 102.472 0.951171 104.343 4.26172 105.753C13.6103 109.2 25.7471 110.957 36.6362 110.972C50.1719 110.957 66.0068 108.77 75.9522 103.747C81.0093 101.221 82.3496 98.8599 82.3496 93.5772L82.3496 17.7783C82.3496 11.1397 79.3032 8.01075 72.8818 8.01075L67.2886 8.01075ZM6.04494 96.3032L6.04494 17.1709C6.04494 15.3799 6.94386 14.3682 8.60694 14.3682L11.2017 14.3682C28.0645 14.3682 44.4097 11.3286 58.9712 6.88039C60.7827 6.31301 62.0806 6.70705 62.0806 8.38722L62.0806 82.6382C62.0806 85.2295 61.7236 86.228 59.521 87.7031C49.501 94.6567 31.7896 98.8106 7.93556 98.167C6.59376 98.1333 6.04494 97.5659 6.04494 96.3032ZM16.4902 27.2891L16.4902 43.4712C16.4902 44.2373 17.0274 44.5791 17.6621 44.5791C29.1367 44.6699 41.2573 42.71 50.0464 39.1792C50.4858 38.9839 50.73 38.5444 50.73 38.105L50.73 21.5874C50.73 20.4644 49.7197 20.2354 49.1675 20.4341C39.0601 23.7935 28.5308 25.7315 17.6621 26.0195C16.9785 26.0532 16.4902 26.6055 16.4902 27.2891Z" fill="#000000" fill-opacity="0.85"/>
 </g>
</svg>
