<?xml version="1.0" encoding="UTF-8"?>
<!--Generator: Apple Native CoreSVG 232.5-->
<!DOCTYPE svg
PUBLIC "-//W3C//DTD SVG 1.1//EN"
       "http://www.w3.org/Graphics/SVG/1.1/DTD/svg11.dtd">
<svg version="1.1" xmlns="http://www.w3.org/2000/svg" xmlns:xlink="http://www.w3.org/1999/xlink" width="57.9294" height="107.713">
 <g>
  <rect height="107.713" opacity="0" width="57.9294" x="0" y="0"/>
  <path d="M28.9571 107.63C45.5103 107.63 55.2125 99.6846 56.6236 83.8667C58.3849 63.4336 58.3512 44.7056 56.5562 23.1538C55.2462 7.96436 45.5103 0 28.9571 0C12.4039 0 2.68318 7.96436 1.37312 23.1538C-0.43694 44.7056-0.455495 63.4336 1.30574 83.8667C2.71687 99.6846 12.4039 107.63 28.9571 107.63ZM28.9234 89.2359C27.4703 89.2359 26.9332 89.9868 25.773 89.9868C24.5826 89.9868 23.8316 88.9092 22.8702 87.5874C21.7589 85.9727 20.9102 83.6069 20.9102 81.3389C20.9102 77.6514 23.3096 75.7739 25.6754 75.7739C26.817 75.7739 27.7144 76.5098 28.7096 76.5098C29.7047 76.5098 30.5382 75.7739 32.0553 75.7739C32.5772 75.7739 34.5186 75.7739 35.7276 77.52C35.6451 77.6177 33.7677 78.7105 33.7677 81.1587C33.7677 83.8999 36.1671 84.8462 36.2008 84.9287C36.2008 84.9775 35.8741 86.3145 34.943 87.6362C34.128 88.7964 33.2642 89.9868 32.0553 89.9868C30.7823 89.9868 30.3917 89.2359 28.9234 89.2359ZM28.5142 75.481C28.5142 72.9351 30.3429 71.0425 32.2843 71.0425C32.69 73.1489 30.7823 75.5786 28.5142 75.481Z" fill="#000000" fill-opacity="0.85"/>
 </g>
</svg>
