<?xml version="1.0" encoding="UTF-8"?>
<!--Generator: Apple Native CoreSVG 232.5-->
<!DOCTYPE svg
PUBLIC "-//W3C//DTD SVG 1.1//EN"
       "http://www.w3.org/Graphics/SVG/1.1/DTD/svg11.dtd">
<svg version="1.1" xmlns="http://www.w3.org/2000/svg" xmlns:xlink="http://www.w3.org/1999/xlink" width="57.9294" height="107.713">
 <g>
  <rect height="107.713" opacity="0" width="57.9294" x="0" y="0"/>
  <path d="M28.9571 107.63C45.5103 107.63 55.2125 99.6846 56.6236 83.8667C58.3849 63.4336 58.3512 44.7056 56.5562 23.1538C55.2462 7.96436 45.5103 0 28.9571 0C12.4039 0 2.68318 7.96436 1.37312 23.1538C-0.43694 44.7056-0.455495 63.4336 1.30574 83.8667C2.71687 99.6846 12.4039 107.63 28.9571 107.63ZM28.9571 101.585C15.9493 101.585 8.39462 95.8731 7.33554 83.8667C5.608 63.3999 5.64169 44.6719 7.40292 23.1538C8.36093 11.7422 15.9493 6.04494 28.9571 6.04494C41.9801 6.04494 49.5684 11.7422 50.5264 23.1538C52.2877 44.6719 52.3214 63.3999 50.5787 83.8667C49.5347 95.8731 41.9801 101.585 28.9571 101.585ZM29.0177 88.936C30.5162 88.936 30.7638 89.6533 31.9693 89.6533C33.2574 89.6533 34.0723 88.5269 34.8233 87.419C35.7359 86.146 36.0626 84.9067 36.0626 84.8579C36.0138 84.8091 33.6329 83.8325 33.6329 81.1553C33.6329 78.7441 35.5069 77.749 35.6231 77.6025C34.4327 75.9204 32.5401 75.9204 31.9693 75.9204C30.6324 75.9204 29.5245 76.6563 28.8375 76.6563C28.0377 76.6563 27.0123 75.9204 25.8219 75.9204C23.5875 75.9204 21.2706 77.7979 21.2706 81.3052C21.2706 83.6187 22.1041 85.853 23.148 87.3364C24.0909 88.6582 24.8907 89.6533 26.0172 89.6533C27.1588 89.6533 27.6471 88.936 29.0177 88.936ZM32.2472 71.4214C30.4522 71.4214 28.6422 73.2466 28.6422 75.6611C30.7638 75.8076 32.6378 73.4116 32.2472 71.4214Z" fill="#000000" fill-opacity="0.85"/>
 </g>
</svg>
