<?xml version="1.0" encoding="UTF-8"?>
<!--Generator: Apple Native CoreSVG 232.5-->
<!DOCTYPE svg
PUBLIC "-//W3C//DTD SVG 1.1//EN"
       "http://www.w3.org/Graphics/SVG/1.1/DTD/svg11.dtd">
<svg version="1.1" xmlns="http://www.w3.org/2000/svg" xmlns:xlink="http://www.w3.org/1999/xlink" width="67.9131" height="98.1856">
 <g>
  <rect height="98.1856" opacity="0" width="67.9131" x="0" y="0"/>
  <path d="M13.3018 98.1367L54.6113 98.1367C62.5991 98.1367 67.9131 93.082 67.9131 85.5674L67.9131 12.5693C67.9131 5.021 62.5991 0 54.6113 0L13.3018 0C5.31397 0 0 5.021 0 12.5693L0 85.5674C0 93.082 5.31397 98.1367 13.3018 98.1367ZM33.9902 80.8184C32.6108 80.8184 31.4487 79.69 31.4487 78.2954L31.4487 68.7236C31.4487 67.3291 32.6108 66.2007 33.9902 66.2007C35.3848 66.2007 36.5132 67.3291 36.5132 68.7236L36.5132 78.2954C36.5132 79.69 35.3848 80.8184 33.9902 80.8184ZM33.9902 57.4326C20.1006 57.4326 8.82422 46.1377 8.82422 32.2666C8.82422 18.4106 20.1006 7.14942 33.9902 7.14942C47.7974 7.14942 59.1226 18.4106 59.1226 32.2666C59.1226 46.1377 47.7974 57.4326 33.9902 57.4326ZM33.9902 52.5215C45.1094 52.5215 54.2114 43.4194 54.2114 32.2666C54.2114 21.1138 45.1094 12.0606 33.9902 12.0606C22.7886 12.0606 13.7354 21.0986 13.7354 32.2666C13.7354 43.4346 22.7886 52.5215 33.9902 52.5215Z" fill="#000000" fill-opacity="0.85"/>
  <path d="M33.9902 80.8184C32.6108 80.8184 31.4487 79.69 31.4487 78.2954L31.4487 68.7236C31.4487 67.3291 32.6108 66.2007 33.9902 66.2007C35.3848 66.2007 36.5132 67.3291 36.5132 68.7236L36.5132 78.2954C36.5132 79.69 35.3848 80.8184 33.9902 80.8184ZM33.9902 57.4326C20.1006 57.4326 8.82422 46.1377 8.82422 32.2666C8.82422 18.4106 20.1006 7.14942 33.9902 7.14942C47.7974 7.14942 59.1226 18.4106 59.1226 32.2666C59.1226 46.1377 47.7974 57.4326 33.9902 57.4326ZM33.9902 52.5215C45.1094 52.5215 54.2114 43.4194 54.2114 32.2666C54.2114 21.1138 45.1094 12.0606 33.9902 12.0606C22.7886 12.0606 13.7354 21.0986 13.7354 32.2666C13.7354 43.4346 22.7886 52.5215 33.9902 52.5215Z" fill="#000000" fill-opacity="0.2125"/>
 </g>
</svg>
