<?xml version="1.0" encoding="UTF-8"?>
<!--Generator: Apple Native CoreSVG 232.5-->
<!DOCTYPE svg
PUBLIC "-//W3C//DTD SVG 1.1//EN"
       "http://www.w3.org/Graphics/SVG/1.1/DTD/svg11.dtd">
<svg version="1.1" xmlns="http://www.w3.org/2000/svg" xmlns:xlink="http://www.w3.org/1999/xlink" width="67.9131" height="98.1856">
 <g>
  <rect height="98.1856" opacity="0" width="67.9131" x="0" y="0"/>
  <path d="M13.3018 98.1367L54.6113 98.1367C62.5991 98.1367 67.9131 93.082 67.9131 85.5674L67.9131 12.5693C67.9131 5.021 62.5991 0 54.6113 0L13.3018 0C5.31397 0 0 5.021 0 12.5693L0 85.5674C0 93.082 5.31397 98.1367 13.3018 98.1367ZM13.9453 92.0918C9.13575 92.0918 6.04494 89.1777 6.04494 84.7217L6.04494 13.3999C6.04494 8.959 9.13575 6.04494 13.9453 6.04494L53.9526 6.04494C58.7773 6.04494 61.8682 8.959 61.8682 13.3999L61.8682 84.7217C61.8682 89.1777 58.7773 92.0918 53.9526 92.0918Z" fill="#000000" fill-opacity="0.85"/>
  <path d="M33.9902 80.1421C35.3848 80.1421 36.5132 78.98 36.5132 77.5855L36.5132 68.0474C36.5132 66.6528 35.3848 65.4907 33.9902 65.4907C32.6108 65.4907 31.4487 66.6528 31.4487 68.0474L31.4487 77.5855C31.4487 78.98 32.6108 80.1421 33.9902 80.1421ZM33.9902 56.5542C46.4766 56.5542 56.7017 46.3931 56.7017 33.8579C56.7017 21.2891 46.4766 11.1128 33.9902 11.1128C21.4214 11.1128 11.2451 21.2891 11.2451 33.8579C11.2451 46.3931 21.4214 56.5542 33.9902 56.5542ZM33.9902 51.6431C24.1094 51.6431 16.1411 43.7051 16.1411 33.8579C16.1411 23.9771 24.1094 16.0239 33.9902 16.0239C43.7886 16.0239 51.7905 24.0259 51.7905 33.8579C51.7905 43.6899 43.7886 51.6431 33.9902 51.6431Z" fill="#000000" fill-opacity="0.425"/>
 </g>
</svg>
