<?xml version="1.0" encoding="UTF-8"?>
<!--Generator: Apple Native CoreSVG 232.5-->
<!DOCTYPE svg
PUBLIC "-//W3C//DTD SVG 1.1//EN"
       "http://www.w3.org/Graphics/SVG/1.1/DTD/svg11.dtd">
<svg version="1.1" xmlns="http://www.w3.org/2000/svg" xmlns:xlink="http://www.w3.org/1999/xlink" width="118.79" height="121.714">
 <g>
  <rect height="121.714" opacity="0" width="118.79" x="0" y="0"/>
  <path d="M90.2484 13.2232L28.5411 13.2232C28.8194 10.1133 30.9472 8.25976 34.2715 8.25976L84.5181 8.25976C87.8424 8.25976 89.9702 10.1133 90.2484 13.2232Z" fill="#000000" fill-opacity="0.85"/>
  <path d="M99.8986 26.0538C98.6693 25.8763 97.3699 25.7984 96.02 25.7984L22.7695 25.7984C21.4202 25.7984 20.1211 25.8758 18.8922 26.0524C19.3835 22.4249 21.9308 20.3633 25.9795 20.3633L92.8437 20.3633C96.8929 20.3633 99.4135 22.4254 99.8986 26.0538Z" fill="#000000" fill-opacity="0.85"/>
  <path d="M22.7695 113.338L96.02 113.338C105.559 113.338 110.429 108.472 110.429 99.064L110.429 48.4331C110.429 39.0405 105.559 34.1592 96.02 34.1592L22.7695 34.1592C13.2305 34.1592 8.36084 38.9951 8.36084 48.4331L8.36084 99.064C8.36084 108.502 13.2305 113.338 22.7695 113.338ZM27.8848 59.1758C26.2881 59.1758 25.1597 57.9278 25.1597 56.4321C25.1597 54.9365 26.2881 53.6885 27.8848 53.6885L60.9839 53.6885C62.4795 53.6885 63.709 54.9365 63.709 56.4321C63.709 57.9278 62.4795 59.1758 60.9839 59.1758ZM27.8848 71.6934C26.2881 71.6934 25.1597 70.4976 25.1597 69.0171C25.1597 67.4541 26.2881 66.2735 27.8848 66.2735L50.9634 66.2735C52.459 66.2735 53.6548 67.4541 53.6548 69.0171C53.6548 70.4976 52.459 71.6934 50.9634 71.6934ZM83.1426 73.9653C76.5811 73.9653 71.2891 68.707 71.2891 62.1455C71.2891 55.5991 76.5811 50.3257 83.1426 50.3257C89.6401 50.3257 94.9321 55.5991 94.9321 62.1455C94.9321 68.707 89.6401 73.9653 83.1426 73.9653Z" fill="#000000" fill-opacity="0.85"/>
 </g>
</svg>
