<?xml version="1.0" encoding="UTF-8"?>
<!--Generator: Apple Native CoreSVG 232.5-->
<!DOCTYPE svg
PUBLIC "-//W3C//DTD SVG 1.1//EN"
       "http://www.w3.org/Graphics/SVG/1.1/DTD/svg11.dtd">
<svg version="1.1" xmlns="http://www.w3.org/2000/svg" xmlns:xlink="http://www.w3.org/1999/xlink" width="63.7232" height="93.0176">
 <g>
  <rect height="93.0176" opacity="0" width="63.7232" x="0" y="0"/>
  <path d="M3.48829 91.4424C5.59376 91.4424 7.01027 90.0259 7.01027 87.8345L7.01027 55.2529C7.01027 33.0781 16.8057 21.9878 31.8691 21.9878C46.9175 21.9878 56.7129 33.0781 56.7129 55.2529L56.7129 87.8345C56.7129 90.0259 58.1294 91.4424 60.2012 91.4424C62.273 91.4424 63.7232 90.0259 63.7232 87.8345L63.7232 54.5205C63.7232 29.0913 50.8726 15.498 31.8691 15.498C12.8169 15.498 0 29.0913 0 54.5205L0 87.8345C0 90.0259 1.41651 91.4424 3.48829 91.4424ZM28.9907 88.6128C28.9907 90.1943 30.2725 91.4424 31.8691 91.4424C33.4507 91.4424 34.6987 90.1943 34.6987 88.6128L34.6987 2.8296C34.6987 1.24805 33.4507 0 31.8691 0C30.2725 0 28.9907 1.24805 28.9907 2.8296Z" fill="#000000" fill-opacity="0.85"/>
 </g>
</svg>
