<?xml version="1.0" encoding="UTF-8"?>
<!--Generator: Apple Native CoreSVG 232.5-->
<!DOCTYPE svg
PUBLIC "-//W3C//DTD SVG 1.1//EN"
       "http://www.w3.org/Graphics/SVG/1.1/DTD/svg11.dtd">
<svg version="1.1" xmlns="http://www.w3.org/2000/svg" xmlns:xlink="http://www.w3.org/1999/xlink" width="88.4092" height="88.5371">
 <g>
  <rect height="88.5371" opacity="0" width="88.4092" x="0" y="0"/>
  <path d="M88.4092 14.4019L88.4092 74.2632C88.4092 83.6558 83.5733 88.5371 74.0005 88.5371L14.3936 88.5371C4.86963 88.5371 0 83.7349 0 74.2632L0 14.4019C0 4.93018 4.86963 0.127929 14.3936 0.127929L74.0005 0.127929C83.5733 0.127929 88.4092 5.00928 88.4092 14.4019ZM41.9756 21.4707L41.9756 27.0586C33.3071 28.0186 27.5435 34.978 27.5435 47.166L27.5435 63.7422C27.5435 65.4331 28.6719 66.4151 30.2012 66.4151C31.7456 66.4151 32.7764 65.4331 32.7764 63.7422L32.7764 47.5601C32.7764 38.3667 36.29 33.1353 41.9756 32.0405L41.9756 64.1314C41.9756 65.5342 42.9053 66.4151 44.229 66.4151C45.418 66.4151 46.4639 65.5342 46.4639 64.1314L46.4639 32.0068C52.2017 33.0005 55.7827 38.2656 55.7827 47.5601L55.7827 63.7422C55.7827 65.4331 56.8135 66.4151 58.3242 66.4151C59.9024 66.4151 60.9483 65.4331 60.9483 63.7422L60.9483 47.166C60.9483 34.9443 55.1172 27.9849 46.4639 27.0249L46.4639 21.4707C46.4639 20.0156 45.418 19.2207 44.229 19.2207C42.9053 19.2207 41.9756 20.0156 41.9756 21.4707Z" fill="#000000" fill-opacity="0.85"/>
 </g>
</svg>
