<?xml version="1.0" encoding="UTF-8"?>
<!--Generator: Apple Native CoreSVG 232.5-->
<!DOCTYPE svg
PUBLIC "-//W3C//DTD SVG 1.1//EN"
       "http://www.w3.org/Graphics/SVG/1.1/DTD/svg11.dtd">
<svg version="1.1" xmlns="http://www.w3.org/2000/svg" xmlns:xlink="http://www.w3.org/1999/xlink" width="97.9595" height="97.9932">
 <g>
  <rect height="97.9932" opacity="0" width="97.9595" x="0" y="0"/>
  <path d="M48.9722 97.9443C75.8247 97.9443 97.9595 75.7759 97.9595 48.9722C97.9595 22.1348 75.791 0 48.9385 0C22.1348 0 0 22.1348 0 48.9722C0 75.7759 22.1685 97.9443 48.9722 97.9443ZM48.9722 91.6113C25.3501 91.6113 6.36671 72.5942 6.36671 48.9722C6.36671 25.3501 25.3164 6.31789 48.9385 6.31789C72.5605 6.31789 91.6265 25.3501 91.6265 48.9722C91.6265 72.5942 72.5942 91.6113 48.9722 91.6113Z" fill="#000000" fill-opacity="0.85"/>
  <path d="M35.1987 70.668C36.7095 70.668 37.7217 69.7046 37.7217 68.0625L37.7217 52.187C37.7217 43.1958 41.1343 38.0654 46.7524 36.9893L46.7524 68.4365C46.7524 69.8057 47.6636 70.668 48.9536 70.668C50.1089 70.668 51.106 69.8057 51.106 68.4365L51.106 36.9707C56.7578 37.9644 60.2715 43.0947 60.2715 52.187L60.2715 68.0625C60.2715 69.7046 61.2686 70.668 62.7608 70.668C64.2378 70.668 65.2686 69.7046 65.2686 68.0625L65.2686 51.8267C65.2686 39.8594 59.5723 33.0684 51.106 32.1421L51.106 26.689C51.106 25.2524 50.1089 24.4912 48.9536 24.4912C47.6636 24.4912 46.7524 25.2524 46.7524 26.689L46.7524 32.1758C38.2861 33.1021 32.6572 39.8931 32.6572 51.8267L32.6572 68.0625C32.6572 69.7046 33.7368 70.668 35.1987 70.668Z" fill="#000000" fill-opacity="0.85"/>
 </g>
</svg>
