<?xml version="1.0" encoding="UTF-8"?>
<!--Generator: Apple Native CoreSVG 232.5-->
<!DOCTYPE svg
PUBLIC "-//W3C//DTD SVG 1.1//EN"
       "http://www.w3.org/Graphics/SVG/1.1/DTD/svg11.dtd">
<svg version="1.1" xmlns="http://www.w3.org/2000/svg" xmlns:xlink="http://www.w3.org/1999/xlink" width="98.3081" height="94.6729">
 <g>
  <rect height="94.6729" opacity="0" width="98.3081" x="0" y="0"/>
  <path d="M4.63966 92.6777C5.69386 92.6777 6.81202 92.2534 8.1172 91.5259L33.2129 77.7837L59.8516 93.2232C61.5186 94.1846 63.211 94.6577 64.8511 94.6577C66.4087 94.6577 67.9815 94.2183 69.4766 93.3428L94.6958 78.7954C97.2017 77.396 98.3081 75.5518 98.3081 72.6284L98.3081 6.91749C98.3081 3.77344 96.5938 2.02881 93.6685 2.02881C92.6143 2.02881 91.4961 2.38916 90.1572 3.1167L64.3994 17.3545L38.2944 1.4126C36.7202 0.488281 35.0415 0 33.3779 0C31.6655 0 29.9531 0.488281 28.4092 1.4126L3.57862 15.8809C1.10645 17.3291 0 19.1733 0 22.0967L0 87.7251C0 90.8692 1.72949 92.6777 4.63966 92.6777ZM30.7505 71.9424L7.53322 84.8237C7.28908 84.9214 7.04494 85.0527 6.80079 85.0527C6.34962 85.0527 6.04494 84.6992 6.04494 84.1504L6.04494 23.5015C6.04494 22.3145 6.43898 21.4995 7.61085 20.8159L29.0835 8.05275C29.6729 7.74123 30.1948 7.4634 30.7505 7.19728ZM36.7954 72.4663L36.7954 7.87453C37.2837 8.10696 37.8696 8.38479 38.3277 8.66262L61.5127 22.8218L61.5127 86.748C60.9048 86.4482 60.2178 86.1367 59.5913 85.7915ZM67.5576 87.3394L67.5576 22.5L90.7749 9.86769C91.0191 9.72121 91.2632 9.63869 91.4888 9.63869C91.9585 9.63869 92.2783 9.97707 92.2783 10.541L92.2783 71.1899C92.2783 72.3955 91.8506 73.2256 90.6973 73.9092L69.5127 86.3306C68.856 86.7095 68.2144 87.0732 67.5576 87.3394Z" fill="#000000" fill-opacity="0.85"/>
 </g>
</svg>
