<?xml version="1.0" encoding="UTF-8"?>
<!--Generator: Apple Native CoreSVG 232.5-->
<!DOCTYPE svg
PUBLIC "-//W3C//DTD SVG 1.1//EN"
       "http://www.w3.org/Graphics/SVG/1.1/DTD/svg11.dtd">
<svg version="1.1" xmlns="http://www.w3.org/2000/svg" xmlns:xlink="http://www.w3.org/1999/xlink" width="88.4092" height="88.5371">
 <g>
  <rect height="88.5371" opacity="0" width="88.4092" x="0" y="0"/>
  <path d="M14.3936 88.5371L74.0005 88.5371C83.5733 88.5371 88.4092 83.6558 88.4092 74.2632L88.4092 14.4019C88.4092 5.00928 83.5733 0.127929 74.0005 0.127929L14.3936 0.127929C4.86963 0.127929 0 4.93018 0 14.4019L0 74.2632C0 83.7349 4.86963 88.5371 14.3936 88.5371ZM14.5064 82.4922C9.00294 82.4922 6.04494 79.6016 6.04494 73.9634L6.04494 14.7017C6.04494 9.06349 9.00294 6.17287 14.5064 6.17287L73.9028 6.17287C79.2969 6.17287 82.3643 9.06349 82.3643 14.7017L82.3643 73.9634C82.3643 79.6016 79.2969 82.4922 73.9028 82.4922Z" fill="#000000" fill-opacity="0.85"/>
  <path d="M33.8984 25.1953C33.8984 29.9605 37.1699 33.9629 41.6016 35.1065L41.6016 63.2998C41.6016 69.581 42.5918 74.4907 44.229 74.4907C45.8999 74.4907 46.8228 69.6636 46.8228 63.2998L46.8228 35.1065C51.3218 33.9966 54.5596 29.9942 54.5596 25.1953C54.5596 19.4819 49.9424 14.8648 44.229 14.8648C38.5493 14.8648 33.8984 19.4819 33.8984 25.1953ZM38.2109 22.5112C38.147 20.6826 39.7954 19.1133 41.5601 19.1133C43.4072 19.1133 44.9614 20.6826 44.9126 22.5112C44.8975 24.3247 43.4072 25.8789 41.5601 25.8789C39.7954 25.8789 38.2261 24.3247 38.2109 22.5112Z" fill="#000000" fill-opacity="0.85"/>
 </g>
</svg>
