<?xml version="1.0" encoding="UTF-8"?>
<!--Generator: Apple Native CoreSVG 232.5-->
<!DOCTYPE svg
PUBLIC "-//W3C//DTD SVG 1.1//EN"
       "http://www.w3.org/Graphics/SVG/1.1/DTD/svg11.dtd">
<svg version="1.1" xmlns="http://www.w3.org/2000/svg" xmlns:xlink="http://www.w3.org/1999/xlink" width="97.9595" height="97.9932">
 <g>
  <rect height="97.9932" opacity="0" width="97.9595" x="0" y="0"/>
  <path d="M97.9595 49.021C97.9595 75.8584 75.8247 97.9932 48.9722 97.9932C22.1685 97.9932 0 75.8584 0 49.021C0 22.2173 22.1348 0.0488281 48.9385 0.0488281C75.791 0.0488281 97.9595 22.2173 97.9595 49.021ZM46.2588 68.3799C46.2588 74.8145 47.2676 79.9111 48.9722 79.9111C50.7105 79.9111 51.667 74.9307 51.667 68.3799L51.667 58.9631L46.2588 53.5533ZM22.6812 22.6812C21.9082 23.4878 21.9385 24.7105 22.6812 25.4194L72.5771 75.3457C73.3013 76.0547 74.5728 76.085 75.3154 75.3457C76.0732 74.5054 76.0732 73.3501 75.3154 72.6074L25.4194 22.6812C24.6768 21.9385 23.4727 21.9385 22.6812 22.6812ZM38.3872 29.5982C38.3872 30.1676 38.4324 30.7255 38.524 31.267L51.667 44.4052L51.667 39.73C56.1997 38.605 59.5723 34.5503 59.5723 29.5982C59.5723 23.75 54.8203 19.0317 48.9722 19.0317C43.1729 19.0317 38.3872 23.75 38.3872 29.5982ZM49.6558 26.8804C49.6406 28.7124 48.1167 30.3154 46.251 30.3154C44.4375 30.3154 42.8496 28.7124 42.8193 26.8804C42.7705 24.9844 44.4375 23.3814 46.251 23.3814C48.1167 23.3814 49.686 24.9844 49.6558 26.8804Z" fill="#000000" fill-opacity="0.85"/>
 </g>
</svg>
