<?xml version="1.0" encoding="UTF-8"?>
<!--Generator: Apple Native CoreSVG 232.5-->
<!DOCTYPE svg
PUBLIC "-//W3C//DTD SVG 1.1//EN"
       "http://www.w3.org/Graphics/SVG/1.1/DTD/svg11.dtd">
<svg version="1.1" xmlns="http://www.w3.org/2000/svg" xmlns:xlink="http://www.w3.org/1999/xlink" width="88.4092" height="88.5371">
 <g>
  <rect height="88.5371" opacity="0" width="88.4092" x="0" y="0"/>
  <path d="M88.4092 14.4019L88.4092 74.2632C88.4092 83.6558 83.5733 88.5371 74.0005 88.5371L14.3936 88.5371C4.86963 88.5371 0 83.7349 0 74.2632L0 14.4019C0 4.93018 4.86963 0.127929 14.3936 0.127929L74.0005 0.127929C83.5733 0.127929 88.4092 5.00928 88.4092 14.4019ZM33.6289 24.8062C33.6289 29.7061 37.0166 33.7608 41.5005 34.938L41.5005 63.5879C41.5005 70.0225 42.5244 75.1006 44.229 75.1006C45.9673 75.1006 46.9238 70.1201 46.9238 63.5879L46.9238 34.938C51.4751 33.7944 54.8291 29.7246 54.8291 24.8062C54.8291 18.9732 50.0772 14.2549 44.229 14.2549C38.4146 14.2549 33.6289 18.9732 33.6289 24.8062ZM44.9126 22.0547C44.8975 23.9356 43.3735 25.5234 41.4927 25.5234C39.6943 25.5234 38.0913 23.9356 38.0762 22.0547C38.0273 20.1924 39.6943 18.6045 41.4927 18.6045C43.3735 18.6045 44.9614 20.1924 44.9126 22.0547Z" fill="#000000" fill-opacity="0.85"/>
 </g>
</svg>
