<?xml version="1.0" encoding="UTF-8"?>
<!--Generator: Apple Native CoreSVG 232.5-->
<!DOCTYPE svg
PUBLIC "-//W3C//DTD SVG 1.1//EN"
       "http://www.w3.org/Graphics/SVG/1.1/DTD/svg11.dtd">
<svg version="1.1" xmlns="http://www.w3.org/2000/svg" xmlns:xlink="http://www.w3.org/1999/xlink" width="32.8555" height="102.189">
 <g>
  <rect height="102.189" opacity="0" width="32.8555" x="0" y="0"/>
  <path d="M32.8555 16.501C32.8555 24.4287 27.2837 31.065 19.8091 32.5489L19.8091 82.9018C19.8091 94.0249 17.9209 99.8848 16.4033 99.8848C14.9346 99.8848 13.0127 93.9761 13.0127 82.9018L13.0127 32.5489C5.52295 31.0313 0 24.4287 0 16.501C0 7.42286 7.29151 0 16.4033 0C25.564 0 32.8555 7.42286 32.8555 16.501ZM5.90919 11.542C5.90919 14.5967 8.53614 17.2085 11.542 17.2085C14.6118 17.2085 17.1563 14.5967 17.1563 11.542C17.1563 8.50587 14.6118 5.92774 11.542 5.92774C8.53614 5.92774 5.90919 8.50587 5.90919 11.542Z" fill="#000000" fill-opacity="0.85"/>
 </g>
</svg>
