<?xml version="1.0" encoding="UTF-8"?>
<!--Generator: Apple Native CoreSVG 232.5-->
<!DOCTYPE svg
PUBLIC "-//W3C//DTD SVG 1.1//EN"
       "http://www.w3.org/Graphics/SVG/1.1/DTD/svg11.dtd">
<svg version="1.1" xmlns="http://www.w3.org/2000/svg" xmlns:xlink="http://www.w3.org/1999/xlink" width="97.9595" height="97.9932">
 <g>
  <rect height="97.9932" opacity="0" width="97.9595" x="0" y="0"/>
  <path d="M97.9595 48.9722C97.9595 75.7759 75.8247 97.9443 48.9722 97.9443C22.1685 97.9443 0 75.7759 0 48.9722C0 22.1348 22.1348 0 48.9385 0C75.791 0 97.9595 22.1348 97.9595 48.9722ZM6.36671 48.9722C6.36671 72.5942 25.3501 91.6113 48.9722 91.6113C72.5942 91.6113 91.6265 72.5942 91.6265 48.9722C91.6265 25.3501 72.5605 6.31789 48.9385 6.31789C25.3164 6.31789 6.36671 25.3501 6.36671 48.9722Z" fill="#000000" fill-opacity="0.85"/>
  <path d="M51.5474 58.6388L51.5474 68.0278C51.5474 74.3916 50.6245 79.2188 48.9385 79.2188C47.3013 79.2188 46.311 74.3091 46.311 68.0278L46.311 53.4044ZM59.2842 29.9234C59.2842 34.7222 55.9976 38.7246 51.5474 39.8345L51.5474 44.4887L38.7646 31.702C38.6612 31.1247 38.6079 30.5302 38.6079 29.9234C38.6079 24.21 43.2588 19.5928 48.9385 19.5928C54.667 19.5928 59.2842 24.21 59.2842 29.9234ZM42.9204 27.2393C42.9507 29.0527 44.5049 30.6069 46.2847 30.6069C48.1167 30.6069 49.6069 29.0527 49.6221 27.2393C49.6523 25.4107 48.1167 23.8413 46.2847 23.8413C44.5049 23.8413 42.8716 25.4107 42.9204 27.2393Z" fill="#000000" fill-opacity="0.85"/>
  <path d="M72.0684 74.773C72.7773 75.4971 74.0303 75.5122 74.7393 74.773C75.4971 73.9663 75.4971 72.8447 74.7393 72.102L25.8423 23.1411C25.0996 22.3984 23.8804 22.3984 23.1377 23.1411C22.3648 23.8804 22.4136 25.103 23.1377 25.8272Z" fill="#000000" fill-opacity="0.85"/>
 </g>
</svg>
