<?xml version="1.0" encoding="UTF-8"?>
<!--Generator: Apple Native CoreSVG 232.5-->
<!DOCTYPE svg
PUBLIC "-//W3C//DTD SVG 1.1//EN"
       "http://www.w3.org/Graphics/SVG/1.1/DTD/svg11.dtd">
<svg version="1.1" xmlns="http://www.w3.org/2000/svg" xmlns:xlink="http://www.w3.org/1999/xlink" width="97.9595" height="97.9932">
 <g>
  <rect height="97.9932" opacity="0" width="97.9595" x="0" y="0"/>
  <path d="M48.9722 97.9443C75.8247 97.9443 97.9595 75.7759 97.9595 48.9722C97.9595 22.1348 75.791 0 48.9385 0C22.1348 0 0 22.1348 0 48.9722C0 75.7759 22.1685 97.9443 48.9722 97.9443ZM48.9722 91.6113C25.3501 91.6113 6.36671 72.5942 6.36671 48.9722C6.36671 25.3501 25.3164 6.31789 48.9385 6.31789C72.5605 6.31789 91.6265 25.3501 91.6265 48.9722C91.6265 72.5942 72.5942 91.6113 48.9722 91.6113Z" fill="#000000" fill-opacity="0.85"/>
  <path d="M38.6079 29.9234C38.6079 34.6885 41.8945 38.6909 46.311 39.8345L46.311 68.0278C46.311 74.3091 47.3013 79.2188 48.9385 79.2188C50.6245 79.2188 51.5474 74.3916 51.5474 68.0278L51.5474 39.8345C55.9976 38.7246 59.2842 34.7222 59.2842 29.9234C59.2842 24.21 54.667 19.5928 48.9385 19.5928C43.2588 19.5928 38.6079 24.21 38.6079 29.9234ZM42.9204 27.2393C42.8716 25.4107 44.5049 23.8413 46.2847 23.8413C48.1167 23.8413 49.6523 25.4107 49.6221 27.2393C49.6069 29.0527 48.1167 30.6069 46.2847 30.6069C44.5049 30.6069 42.9507 29.0527 42.9204 27.2393Z" fill="#000000" fill-opacity="0.85"/>
 </g>
</svg>
