<?xml version="1.0" encoding="UTF-8"?>
<!--Generator: Apple Native CoreSVG 232.5-->
<!DOCTYPE svg
PUBLIC "-//W3C//DTD SVG 1.1//EN"
       "http://www.w3.org/Graphics/SVG/1.1/DTD/svg11.dtd">
<svg version="1.1" xmlns="http://www.w3.org/2000/svg" xmlns:xlink="http://www.w3.org/1999/xlink" width="97.9595" height="97.9932">
 <g>
  <rect height="97.9932" opacity="0" width="97.9595" x="0" y="0"/>
  <path d="M97.9595 49.021C97.9595 75.8584 75.8247 97.9932 48.9722 97.9932C22.1685 97.9932 0 75.8584 0 49.021C0 22.2173 22.1348 0.0488281 48.9385 0.0488281C75.791 0.0488281 97.9595 22.2173 97.9595 49.021ZM55.0996 58.1807C61.1265 58.1621 69.9502 61.0361 69.9502 65.0483C69.9502 69.6514 61.0894 72.9648 48.9722 72.9648C36.8364 72.9648 28.0278 69.7153 28.0278 65.0483C28.0278 61.0361 36.833 58.1621 42.8599 58.1807L42.8599 54.2534C34.898 54.2197 23.1016 58.4023 23.1016 65.4712C23.1016 71.854 33.2051 77.0977 48.9722 77.0977C64.7544 77.0977 74.8579 71.854 74.8579 65.4712C74.8579 58.4023 63.0615 54.2197 55.0996 54.2534ZM39.3066 27.7979C39.3066 32.3257 42.4385 36.1851 46.6851 37.2612L46.6851 57.9248C46.6851 64.2676 47.7344 67.7339 48.9722 67.7339C50.2588 67.7339 51.3081 64.3467 51.3081 57.9248L51.3081 37.2612C55.521 36.1851 58.6377 32.3257 58.6377 27.7979C58.6377 22.4263 54.3775 18.1021 48.9722 18.1021C43.582 18.1021 39.3066 22.4263 39.3066 27.7979ZM49.2183 25.0044C49.2183 26.6968 47.9014 28.0474 46.1939 28.0474C44.6665 28.0474 43.2334 26.6968 43.2334 25.0044C43.2334 23.3457 44.6514 22.0439 46.1939 22.0439C47.9014 22.0439 49.2183 23.3457 49.2183 25.0044Z" fill="#000000" fill-opacity="0.85"/>
 </g>
</svg>
