<?xml version="1.0" encoding="UTF-8"?>
<!--Generator: Apple Native CoreSVG 232.5-->
<!DOCTYPE svg
PUBLIC "-//W3C//DTD SVG 1.1//EN"
       "http://www.w3.org/Graphics/SVG/1.1/DTD/svg11.dtd">
<svg version="1.1" xmlns="http://www.w3.org/2000/svg" xmlns:xlink="http://www.w3.org/1999/xlink" width="90.1514" height="118.999">
 <g>
  <rect height="118.999" opacity="0" width="90.1514" x="0" y="0"/>
  <path d="M90.1514 91.187C90.1514 103.104 71.3858 111.363 45.1187 111.363C18.833 111.363 0 103.104 0 91.187C0 81.1898 13.3303 73.7574 33.2407 71.6723L33.2407 77.6524C18.0711 79.4235 7.41799 84.5938 7.41799 91.187C7.41799 99.4619 23.9263 105.464 45.085 105.464C66.1914 105.464 82.752 99.3794 82.752 91.187C82.752 84.6382 72.0424 79.4327 56.8618 77.6521L56.8618 71.6595C76.8142 73.7269 90.1514 81.1693 90.1514 91.187Z" fill="#000000" fill-opacity="0.85"/>
  <path d="M61.5034 24.9058C61.5034 32.8335 55.9317 39.4697 48.4571 40.9536L48.4571 77.75C48.4571 88.8882 46.5689 94.7329 45.085 94.7329C43.5825 94.7329 41.6943 88.8242 41.6943 77.75L41.6943 40.9536C34.2046 39.4361 28.6479 32.8335 28.6479 24.9058C28.6479 15.8276 35.9395 8.40478 45.085 8.40478C54.2119 8.40478 61.5034 15.8276 61.5034 24.9058ZM34.5757 19.9468C34.5757 23.0015 37.2178 25.6133 40.1899 25.6133C43.2783 25.6133 45.8379 23.0015 45.8379 19.9468C45.8379 16.9107 43.2783 14.3325 40.1899 14.3325C37.2178 14.3325 34.5757 16.9107 34.5757 19.9468Z" fill="#000000" fill-opacity="0.85"/>
 </g>
</svg>
