<?xml version="1.0" encoding="UTF-8"?>
<!--Generator: Apple Native CoreSVG 232.5-->
<!DOCTYPE svg
PUBLIC "-//W3C//DTD SVG 1.1//EN"
       "http://www.w3.org/Graphics/SVG/1.1/DTD/svg11.dtd">
<svg version="1.1" xmlns="http://www.w3.org/2000/svg" xmlns:xlink="http://www.w3.org/1999/xlink" width="82.8919" height="102.189">
 <g>
  <rect height="102.189" opacity="0" width="82.8919" x="0" y="0"/>
  <path d="M44.8105 70.2448L44.8105 82.9018C44.8105 94.0249 42.9223 99.8848 41.4535 99.8848C39.9359 99.8848 38.0478 93.9761 38.0478 82.9018L38.0478 63.4892ZM57.8569 16.501C57.8569 24.4287 52.3002 31.065 44.8105 32.5489L44.8105 47.7953L38.0478 41.0361L38.0478 32.5489C30.5731 31.0313 25.035 24.4287 25.035 16.501C25.035 7.42286 32.2929 0 41.4535 0C50.5653 0 57.8569 7.42286 57.8569 16.501ZM30.9291 11.542C30.9291 14.5967 33.5712 17.2085 36.5434 17.2085C39.6469 17.2085 42.1913 14.5967 42.1913 11.542C42.1913 8.50587 39.6469 5.92774 36.5434 5.92774C33.5712 5.92774 30.9291 8.50587 30.9291 11.542Z" fill="#000000" fill-opacity="0.85"/>
  <path d="M70.517 88.8067C71.664 89.9385 73.5453 89.9385 74.6586 88.8067C75.7416 87.69 75.7905 85.8457 74.6586 84.6802L10.0551 20.1104C8.95351 19.0425 7.02674 18.9634 5.87977 20.1104C4.78162 21.2085 4.78162 23.1236 5.87977 24.2368Z" fill="#000000" fill-opacity="0.85"/>
 </g>
</svg>
