<?xml version="1.0" encoding="UTF-8"?>
<!--Generator: Apple Native CoreSVG 232.5-->
<!DOCTYPE svg
PUBLIC "-//W3C//DTD SVG 1.1//EN"
       "http://www.w3.org/Graphics/SVG/1.1/DTD/svg11.dtd">
<svg version="1.1" xmlns="http://www.w3.org/2000/svg" xmlns:xlink="http://www.w3.org/1999/xlink" width="97.9595" height="97.9932">
 <g>
  <rect height="97.9932" opacity="0" width="97.9595" x="0" y="0"/>
  <path d="M48.9722 97.9443C75.8247 97.9443 97.9595 75.7759 97.9595 48.9722C97.9595 22.1348 75.791 0 48.9385 0C22.1348 0 0 22.1348 0 48.9722C0 75.7759 22.1685 97.9443 48.9722 97.9443ZM48.9722 91.6113C25.3501 91.6113 6.36671 72.5942 6.36671 48.9722C6.36671 25.3501 25.3164 6.31789 48.9385 6.31789C72.5605 6.31789 91.6265 25.3501 91.6265 48.9722C91.6265 72.5942 72.5942 91.6113 48.9722 91.6113Z" fill="#000000" fill-opacity="0.85"/>
  <path d="M39.5088 28.1231C39.5088 32.565 42.5732 36.3233 46.7188 37.332L46.7188 57.7749C46.7188 63.897 47.7344 67.2622 48.9385 67.2622C50.1914 67.2622 51.207 63.9946 51.207 57.7749L51.207 37.332C55.3189 36.3233 58.3833 32.565 58.3833 28.1231C58.3833 22.8862 54.209 18.6631 48.9385 18.6631C43.6831 18.6631 39.5088 22.8862 39.5088 28.1231ZM46.2275 28.3052C44.7339 28.3052 43.3193 27.022 43.3193 25.4121C43.3193 23.772 44.7036 22.5039 46.2275 22.5039C47.9014 22.5039 49.1846 23.772 49.1846 25.4121C49.1846 27.022 47.9014 28.3052 46.2275 28.3052ZM48.9385 76.439C64.3989 76.439 74.3003 71.2813 74.3003 65.0332C74.3003 58.1177 62.7398 54.0361 54.9312 54.0698L54.9312 57.9111C60.8721 57.8774 69.5425 60.7178 69.5425 64.6104C69.5425 69.1797 60.8198 72.4258 48.9385 72.4258C37.0386 72.4258 28.3833 69.21 28.3833 64.6104C28.3833 60.7178 37.02 57.8774 42.9609 57.9111L42.9609 54.0698C35.1524 54.0361 23.5918 58.1177 23.5918 65.0332C23.5918 71.2813 33.4932 76.439 48.9385 76.439Z" fill="#000000" fill-opacity="0.85"/>
 </g>
</svg>
