<?xml version="1.0" encoding="UTF-8"?>
<!--Generator: Apple Native CoreSVG 232.5-->
<!DOCTYPE svg
PUBLIC "-//W3C//DTD SVG 1.1//EN"
       "http://www.w3.org/Graphics/SVG/1.1/DTD/svg11.dtd">
<svg version="1.1" xmlns="http://www.w3.org/2000/svg" xmlns:xlink="http://www.w3.org/1999/xlink" width="126.941" height="49.2822">
 <g>
  <rect height="49.2822" opacity="0" width="126.941" x="0" y="0"/>
  <path d="M15.7251 49.1172L85.0518 49.1172C96.7613 49.1172 100.777 42.8692 100.777 24.583C100.792 6.26318 96.8101 0 85.0518 0L15.7251 0C3.9517 0-0.0150935 6.26318 4.31281e-05 24.583C4.31281e-05 42.8692 3.98198 49.1172 15.7251 49.1172ZM15.7251 21.0371C13.0142 21.0371 10.8438 18.897 10.8438 16.1709C10.8438 13.4937 13.0142 11.3872 15.7251 11.3872C18.4024 11.3872 20.5088 13.4937 20.5088 16.1709C20.5088 18.897 18.4024 21.0371 15.7251 21.0371Z" fill="#000000" fill-opacity="0.85"/>
  <path d="M105.265 38.0801L118.478 38.0801C123.639 38.0801 126.941 34.8906 126.941 30.105L126.941 18.9937C126.941 14.2266 123.639 11.0034 118.478 11.0034L105.265 11.0034C106.077 14.77 106.419 19.269 106.419 24.583C106.419 29.8145 106.013 34.2983 105.265 38.0801Z" fill="#000000" fill-opacity="0.425"/>
 </g>
</svg>
