<?xml version="1.0" encoding="UTF-8"?>
<!--Generator: Apple Native CoreSVG 232.5-->
<!DOCTYPE svg
PUBLIC "-//W3C//DTD SVG 1.1//EN"
       "http://www.w3.org/Graphics/SVG/1.1/DTD/svg11.dtd">
<svg version="1.1" xmlns="http://www.w3.org/2000/svg" xmlns:xlink="http://www.w3.org/1999/xlink" width="104.001" height="105.24">
 <g>
  <rect height="105.24" opacity="0" width="104.001" x="0" y="0"/>
  <path d="M8.8381 88.3624L16.8591 96.3683L22.4524 90.7716C35.1306 78.0529 49.8015 82.4708 62.7126 69.5597L98.1472 34.1251C105.931 26.3073 105.931 14.7946 98.1623 7.05921C90.427-0.724977 78.8806-0.724977 71.0813 7.07434L35.6618 42.5089C22.2942 55.8766 27.1687 70.0573 14.4836 82.7355ZM28.0207 69.7623C30.6877 62.2579 32.237 54.0065 39.7058 46.5529L75.1252 11.1183C80.6306 5.57924 88.677 5.61293 94.1521 11.0695C99.6086 16.5446 99.6272 24.5573 94.1032 30.0812L58.6687 65.5158C51.1814 73.0031 43.1169 74.6871 35.7473 77.4889ZM1.89083 95.2794C-0.663857 97.8341-0.596474 100.941 1.89083 103.38C4.29562 105.848 7.46994 105.882 9.99094 103.346L13.0144 100.371L4.86544 92.2897ZM51.803 53.5499C54.7175 56.4982 59.4758 56.4342 62.4089 53.5011L76.5827 39.2296C79.6135 36.1837 79.5798 31.4894 76.5827 28.6539C73.6496 25.608 68.925 25.7394 65.9768 28.6539L51.803 42.8615C48.8547 45.776 48.8362 50.5831 51.803 53.5499ZM54.4739 50.8605C52.9924 49.379 52.9621 47.0626 54.4739 45.5172L68.6628 31.3097C69.8464 30.1261 71.5705 29.9074 72.9275 30.7023C75.3293 31.901 75.7365 34.7794 73.927 36.5739L59.7717 50.8117C58.2566 52.278 55.9065 52.3082 54.4739 50.8605ZM41.2883 57.8102L47.4568 63.8844C48.469 64.8815 49.8786 64.777 50.7224 63.9181C51.6335 63.007 51.7346 61.631 50.7224 60.6188L44.5691 54.5143C43.5906 53.5846 42.1657 53.6183 41.2883 54.5143C40.4446 55.3917 40.3249 56.8654 41.2883 57.8102ZM68.7693 11.4542L93.7673 36.4371L96.8459 33.34L71.8479 8.29309Z" fill="#000000" fill-opacity="0.85"/>
 </g>
</svg>
