<?xml version="1.0" encoding="UTF-8"?>
<!--Generator: Apple Native CoreSVG 232.5-->
<!DOCTYPE svg
PUBLIC "-//W3C//DTD SVG 1.1//EN"
       "http://www.w3.org/Graphics/SVG/1.1/DTD/svg11.dtd">
<svg version="1.1" xmlns="http://www.w3.org/2000/svg" xmlns:xlink="http://www.w3.org/1999/xlink" width="103.562" height="104.936">
 <g>
  <rect height="104.936" opacity="0" width="103.562" x="0" y="0"/>
  <path d="M71.7708 7.05359L97.8714 33.1727L98.3426 32.6864C105.652 25.411 105.109 14.4896 97.7815 7.19568C90.4539-0.131956 79.5325-0.674439 72.2571 6.56726ZM8.91382 88.0238L16.9011 95.996L22.8684 90.0438C35.4607 77.5458 49.6077 81.455 62.2981 68.7645L94.6917 36.371L68.5388 10.2181L36.1453 42.6454C23.0657 55.725 27.3977 69.4491 14.866 82.0414ZM51.5906 53.5331C48.5227 50.4652 48.575 45.5907 51.5906 42.5751L66.0188 28.0795C69.0344 25.079 73.8787 24.9662 76.8606 28.0795C79.9436 30.9823 79.9436 35.7777 76.8606 38.891L62.4172 53.4506C59.4168 56.4511 54.5574 56.4999 51.5906 53.5331ZM40.8889 57.8793C39.8093 56.8671 40.0115 55.4086 40.8889 54.4823C41.8001 53.5678 43.176 53.5004 44.2219 54.4823L50.4763 60.703C51.5222 61.7001 51.3875 63.1434 50.4763 64.0883C49.5989 64.9657 48.1892 65.0516 47.1096 64.036ZM54.5159 50.5555C55.9485 51.9882 58.1638 52.1937 59.679 50.7274L74.1712 36.1679C75.8225 34.5165 75.3562 32.3466 73.9539 31.0082C72.4841 29.6513 70.3259 29.3534 68.7049 30.9896L54.5159 45.1972C53.0042 46.724 53.0193 49.059 54.5159 50.5555ZM1.86548 103.059C4.27027 105.562 7.51197 105.562 9.98072 103.059L12.989 100.085L4.87378 91.9848L1.86548 94.9931C-0.621827 97.4955-0.621827 100.688 1.86548 103.059Z" fill="#000000" fill-opacity="0.85"/>
 </g>
</svg>
