<?xml version="1.0" encoding="UTF-8"?>
<!--Generator: Apple Native CoreSVG 232.5-->
<!DOCTYPE svg
PUBLIC "-//W3C//DTD SVG 1.1//EN"
       "http://www.w3.org/Graphics/SVG/1.1/DTD/svg11.dtd">
<svg version="1.1" xmlns="http://www.w3.org/2000/svg" xmlns:xlink="http://www.w3.org/1999/xlink" width="105.652" height="102.553">
 <g>
  <rect height="102.553" opacity="0" width="105.652" x="0" y="0"/>
  <path d="M18.9453 69.7803L31.1084 69.7803L31.1084 25.0684L18.9453 25.0684C6.56885 25.0684 0 31.4873 0 43.4815L0 51.3521C0 63.3125 6.56885 69.7803 18.9453 69.7803ZM36.7988 69.7988C51.041 71.2974 68.7046 75.3804 81.5571 82.3809C81.5571 81.9077 81.5571 81.4312 81.5571 80.958L81.5571 13.9614C81.5571 13.436 81.5571 12.978 81.5571 12.4526C68.6035 19.4868 50.2441 23.6709 36.7988 25.0684ZM96.4331 94.6279C101.951 94.6279 105.652 90.8931 105.652 85.4424L105.652 9.21924C105.652 3.73487 101.951 0 96.4331 0C90.9824 0 87.2476 3.73487 87.2476 9.21924L87.2476 85.4424C87.2476 90.8931 90.9824 94.6279 96.4331 94.6279ZM39.0298 102.504C44.8423 102.504 49.1494 98.3467 47.6475 90.918L44.792 76.7237C41.5352 76.1948 37.062 75.8462 27.0093 75.5801C25.5703 75.5498 22.6943 75.4219 19.7544 75.4219L28.4268 94.3711C30.8682 99.6934 33.7744 102.504 39.0298 102.504Z" fill="#000000" fill-opacity="0.85"/>
 </g>
</svg>
