<?xml version="1.0" encoding="UTF-8"?>
<!--Generator: Apple Native CoreSVG 232.5-->
<!DOCTYPE svg
PUBLIC "-//W3C//DTD SVG 1.1//EN"
       "http://www.w3.org/Graphics/SVG/1.1/DTD/svg11.dtd">
<svg version="1.1" xmlns="http://www.w3.org/2000/svg" xmlns:xlink="http://www.w3.org/1999/xlink" width="105.652" height="101.909">
 <g>
  <rect height="101.909" opacity="0" width="105.652" x="0" y="0"/>
  <path d="M0 51.3672C0 63.294 6.53516 69.7466 18.9453 69.7466L36.6455 69.7466C53.7065 71.6089 72.8086 77.0542 86.627 86.7959L86.627 79.9966C72.8965 70.3931 54.4644 65.5908 36.4434 63.7017L18.9453 63.7017C10.0249 63.7017 6.04494 59.8716 6.04494 51.3672L6.04494 43.4478C6.04494 34.8945 10.0249 31.0982 18.9453 31.0982L36.1553 31.0982C54.4121 29.2427 73.0986 24.3057 86.627 14.7695L86.627 8.0039C73.2314 17.7119 52.8608 23.3931 36.8325 25.0684L18.9453 25.0684C6.53516 25.0684 0 31.4536 0 43.4478ZM44.0176 69.1724L38.3213 69.1724L42.4683 90.3364C42.9951 93.1694 41.5845 94.9487 39.6284 95.6221C37.5293 96.3745 34.7905 95.7617 33.3042 92.5855L22.1026 68.3355L15.8809 68.3355L27.3418 93.6079C31.0581 101.877 37.25 102.475 41.8501 101.116C46.3325 99.7539 49.126 95.6738 47.917 89.3765ZM31.4311 28.0376L31.4311 66.7773L37.5098 66.7773L37.5098 28.0376ZM84.4038 83.9868C84.4038 90.3506 88.6812 94.6094 95.0112 94.6094C101.409 94.6094 105.652 90.3506 105.652 83.9868L105.652 10.6074C105.652 4.24366 101.409 0 95.0112 0C88.6812 0 84.4038 4.24366 84.4038 10.6074ZM90.4673 83.9868L90.4673 10.6074C90.4673 7.85646 92.2603 6.0298 95.0112 6.0298C97.7622 6.0298 99.6226 7.85646 99.6226 10.6074L99.6226 83.9868C99.6226 86.7529 97.7622 88.5644 95.0112 88.5644C92.2603 88.5644 90.4673 86.7529 90.4673 83.9868Z" fill="#000000" fill-opacity="0.85"/>
 </g>
</svg>
