<?xml version="1.0" encoding="UTF-8"?>
<!--Generator: Apple Native CoreSVG 232.5-->
<!DOCTYPE svg
PUBLIC "-//W3C//DTD SVG 1.1//EN"
       "http://www.w3.org/Graphics/SVG/1.1/DTD/svg11.dtd">
<svg version="1.1" xmlns="http://www.w3.org/2000/svg" xmlns:xlink="http://www.w3.org/1999/xlink" width="103.186" height="82.6182">
 <g>
  <rect height="82.6182" opacity="0" width="103.186" x="0" y="0"/>
  <path d="M14.3936 74.0166L88.7769 74.0166C98.3496 74.0166 103.186 69.1353 103.186 59.7427L103.186 23.0034C103.186 13.6108 98.3496 8.7295 88.7769 8.7295L14.3936 8.7295C4.86963 8.7295 0 13.5317 0 23.0034L0 59.7427C0 69.2144 4.86963 74.0166 14.3936 74.0166ZM14.5064 67.9717C9.00294 67.9717 6.04494 65.0811 6.04494 59.4429L6.04494 23.3032C6.04494 17.6651 9.00294 14.7744 14.5064 14.7744L88.6792 14.7744C94.0396 14.7744 97.1406 17.6651 97.1406 23.3032L97.1406 59.4429C97.1406 65.0811 94.0396 67.9717 88.6792 67.9717ZM17.1636 11.2861L23.1934 11.2861L23.1934 3.12598C23.1934 1.34229 21.9453 0.127929 20.1616 0.127929C18.3779 0.127929 17.1636 1.34229 17.1636 3.12598ZM32.8594 11.2861L38.9043 11.2861L38.9043 3.12598C38.9043 1.34229 37.6411 0.127929 35.8726 0.127929C34.0889 0.127929 32.8594 1.34229 32.8594 3.12598ZM48.5703 11.2861L54.6152 11.2861L54.6152 3.12598C54.6152 1.34229 53.3521 0.127929 51.5684 0.127929C49.7998 0.127929 48.5703 1.34229 48.5703 3.12598ZM64.2812 11.2861L70.311 11.2861L70.311 3.12598C70.311 1.34229 69.0967 0.127929 67.313 0.127929C65.5293 0.127929 64.2812 1.34229 64.2812 3.12598ZM79.9771 11.2861L86.022 11.2861L86.022 3.12598C86.022 1.34229 84.8076 0.127929 83.0239 0.127929C81.2402 0.127929 79.9771 1.34229 79.9771 3.12598ZM17.1636 71.7544L17.1636 79.5864C17.1636 81.3701 18.3779 82.6182 20.1616 82.6182C21.9453 82.6182 23.1934 81.3701 23.1934 79.5864L23.1934 71.7544ZM32.8594 71.7544L32.8594 79.5864C32.8594 81.3701 34.0889 82.6182 35.8726 82.6182C37.6411 82.6182 38.9043 81.3701 38.9043 79.5864L38.9043 71.7544ZM48.5703 71.7544L48.5703 79.5864C48.5703 81.3701 49.7998 82.6182 51.5684 82.6182C53.3521 82.6182 54.6152 81.3701 54.6152 79.5864L54.6152 71.7544ZM64.2812 71.7544L64.2812 79.5864C64.2812 81.3701 65.5293 82.6182 67.313 82.6182C69.0967 82.6182 70.311 81.3701 70.311 79.5864L70.311 71.7544ZM79.9771 71.7544L79.9771 79.5864C79.9771 81.3701 81.2402 82.6182 83.0239 82.6182C84.8076 82.6182 86.022 81.3701 86.022 79.5864L86.022 71.7544Z" fill="#000000" fill-opacity="0.85"/>
 </g>
</svg>
