<?xml version="1.0" encoding="UTF-8"?>
<!--Generator: Apple Native CoreSVG 232.5-->
<!DOCTYPE svg
PUBLIC "-//W3C//DTD SVG 1.1//EN"
       "http://www.w3.org/Graphics/SVG/1.1/DTD/svg11.dtd">
<svg version="1.1" xmlns="http://www.w3.org/2000/svg" xmlns:xlink="http://www.w3.org/1999/xlink" width="109.503" height="97.9932">
 <g>
  <rect height="97.9932" opacity="0" width="109.503" x="0" y="0"/>
  <path d="M48.5288 65.563C48.5288 67.5972 50.8071 68.5132 52.7251 67.3496L79.5327 51.3901C81.3462 50.2788 81.3125 47.8052 79.5327 46.7612L52.7251 30.6587C50.9082 29.5625 48.5288 30.46 48.5288 32.4605ZM0 37.1499C0 37.9448 0.262696 38.6607 0.72754 39.2569L11.4238 52.2666C12.5137 53.6597 13.4502 54.1768 14.919 54.1768C15.8858 54.1768 16.605 53.9107 17.5381 53.2134L30.4942 43.169C31.2959 42.5694 31.7759 41.6851 31.7759 40.6729C31.7759 38.9229 30.4082 37.6411 28.8115 37.6411C28.0654 37.6411 27.4321 37.8399 26.8359 38.3198L18.0601 45.4087C19.8233 23.4707 38.064 6.31789 60.4971 6.31789C84.1191 6.31789 103.151 25.3501 103.185 48.9722C103.219 72.5942 84.1528 91.6113 60.5308 91.6113C45.2813 91.6113 34.0176 83.6909 28.1201 76.748C27.3067 75.7358 26.3364 75.3687 25.437 75.3687C23.8706 75.3687 22.4541 76.5679 22.4541 78.2842C22.4541 79.1499 22.7876 80.083 23.6045 81.0498C29.8535 88.2769 42.8135 97.9443 60.5308 97.9443C87.3682 97.9443 109.503 75.7759 109.503 48.9722C109.503 22.1348 87.3008 0 60.4971 0C35.4585 0 14.523 19.29 11.9292 43.6802L5.67775 35.6475C5.04786 34.7666 4.19728 34.2007 3.06544 34.2007C1.34912 34.2007 0 35.4336 0 37.1499Z" fill="#000000" fill-opacity="0.85"/>
 </g>
</svg>
