<?xml version="1.0" encoding="UTF-8"?>
<!--Generator: Apple Native CoreSVG 232.5-->
<!DOCTYPE svg
PUBLIC "-//W3C//DTD SVG 1.1//EN"
       "http://www.w3.org/Graphics/SVG/1.1/DTD/svg11.dtd">
<svg version="1.1" xmlns="http://www.w3.org/2000/svg" xmlns:xlink="http://www.w3.org/1999/xlink" width="114.35" height="88.4395">
 <g>
  <rect height="88.4395" opacity="0" width="114.35" x="0" y="0"/>
  <path d="M3.938 15.3198L3.938 20.7061L110.412 20.7061L110.412 15.3198ZM14.3936 88.4092L99.9409 88.4092C109.514 88.4092 114.35 83.5615 114.35 74.169L114.35 14.2739C114.35 4.88135 109.514 0 99.9409 0L14.3936 0C4.86963 0 0 4.83594 0 14.2739L0 74.169C0 83.6069 4.86963 88.4092 14.3936 88.4092ZM14.5064 82.3794C9.00294 82.3794 6.04494 79.4736 6.04494 73.8355L6.04494 14.6074C6.04494 8.96925 9.00294 6.04494 14.5064 6.04494L99.8433 6.04494C105.237 6.04494 108.305 8.96925 108.305 14.6074L108.305 73.8355C108.305 79.4736 105.237 82.3794 99.8433 82.3794Z" fill="#000000" fill-opacity="0.85"/>
  <path d="M57.2085 31.9312C55.5933 31.9312 54.2104 33.2466 54.2104 34.8433L54.2104 52.4551L54.4766 61.521L48.1128 54.9771L42.1436 48.9927C41.544 48.4116 40.7944 48.0933 40.0147 48.0933C38.3877 48.0933 37.2559 49.1914 37.2559 50.8032C37.2559 51.7749 37.7104 52.4536 38.4346 53.1289L55.0273 68.9468C55.8105 69.6626 56.4102 69.9624 57.2085 69.9624C57.9883 69.9624 58.6367 69.6475 59.4048 68.9468L75.9639 53.1289C76.7217 52.4536 77.1763 51.7749 77.1763 50.8032C77.1763 49.1914 76.0107 48.0933 74.3501 48.0933C73.5703 48.0933 72.8545 48.4116 72.2886 48.9927L66.3193 54.9771L59.9556 61.521L60.188 52.4551L60.188 34.8433C60.188 33.2466 58.8389 31.9312 57.2085 31.9312Z" fill="#000000" fill-opacity="0.85"/>
 </g>
</svg>
