<?xml version="1.0" encoding="UTF-8"?>
<!--Generator: Apple Native CoreSVG 232.5-->
<!DOCTYPE svg
PUBLIC "-//W3C//DTD SVG 1.1//EN"
       "http://www.w3.org/Graphics/SVG/1.1/DTD/svg11.dtd">
<svg version="1.1" xmlns="http://www.w3.org/2000/svg" xmlns:xlink="http://www.w3.org/1999/xlink" width="114.35" height="88.4395">
 <g>
  <rect height="88.4395" opacity="0" width="114.35" x="0" y="0"/>
  <path d="M3.938 15.3198L3.938 20.7061L110.412 20.7061L110.412 15.3198ZM14.3936 88.4092L99.9409 88.4092C109.514 88.4092 114.35 83.5615 114.35 74.169L114.35 14.2739C114.35 4.88135 109.514 0 99.9409 0L14.3936 0C4.86963 0 0 4.83594 0 14.2739L0 74.169C0 83.6069 4.86963 88.4092 14.3936 88.4092ZM14.5064 82.3794C9.00294 82.3794 6.04494 79.4736 6.04494 73.8355L6.04494 14.6074C6.04494 8.96925 9.00294 6.04494 14.5064 6.04494L99.8433 6.04494C105.237 6.04494 108.305 8.96925 108.305 14.6074L108.305 73.8355C108.305 79.4736 105.237 82.3794 99.8433 82.3794Z" fill="#000000" fill-opacity="0.85"/>
  <path d="M20.103 70.0078C20.103 72.5469 21.8457 74.2559 24.4487 74.2559L90.0322 74.2559C92.6353 74.2559 94.3931 72.5469 94.3931 70.0078L94.3931 63.1831C94.3931 60.6289 92.6353 58.9351 90.0322 58.9351L24.4487 58.9351C21.8457 58.9351 20.103 60.6289 20.103 63.1831Z" fill="#000000" fill-opacity="0.85"/>
 </g>
</svg>
