<?xml version="1.0" encoding="UTF-8"?>
<!--Generator: Apple Native CoreSVG 232.5-->
<!DOCTYPE svg
PUBLIC "-//W3C//DTD SVG 1.1//EN"
       "http://www.w3.org/Graphics/SVG/1.1/DTD/svg11.dtd">
<svg version="1.1" xmlns="http://www.w3.org/2000/svg" xmlns:xlink="http://www.w3.org/1999/xlink" width="77.2705" height="109.859">
 <g>
  <rect height="109.859" opacity="0" width="77.2705" x="0" y="0"/>
  <path d="M8.60792 100.109L62.1772 109.548C71.46 111.211 77.2705 106.131 77.2705 96.1023L77.2705 36.5007C77.2705 27.7478 72.7358 24.1447 63.6079 22.5451L11.3438 13.3049C4.39649 12.0993 0 15.5935 0 22.2614L0 90.0998C0 95.8064 2.81885 99.1101 8.60792 100.109ZM16.8975 39.2995C15.5249 39.052 14.73 38.07 14.73 36.6755C14.73 35.0603 15.978 33.9201 17.8526 34.2351L57.8193 41.2307C59.2441 41.5305 60.0542 42.3254 60.0542 43.8547C60.0542 45.4699 58.8921 46.6623 56.9687 46.3474ZM16.8975 58.3987C15.5249 58.1511 14.73 57.1692 14.73 55.7746C14.73 54.1931 15.978 53.0529 17.8526 53.3679L57.8193 60.3635C59.2441 60.6296 60.0542 61.4582 60.0542 62.9538C60.0542 64.6028 58.8921 65.7951 56.9687 65.4802ZM21.1812 9.31856L64.5981 16.9372C68.2793 17.6276 71.3828 18.6296 73.9424 20.0105L73.9424 15.0061C73.9424 5.61495 67.6025 1.07686 56.9082 2.99141Z" fill="#000000" fill-opacity="0.85"/>
 </g>
</svg>
