<?xml version="1.0" encoding="UTF-8"?>
<!--Generator: Apple Native CoreSVG 232.5-->
<!DOCTYPE svg
PUBLIC "-//W3C//DTD SVG 1.1//EN"
       "http://www.w3.org/Graphics/SVG/1.1/DTD/svg11.dtd">
<svg version="1.1" xmlns="http://www.w3.org/2000/svg" xmlns:xlink="http://www.w3.org/1999/xlink" width="79.336" height="111.109">
 <g>
  <rect height="111.109" opacity="0" width="79.336" x="0" y="0"/>
  <path d="M8.87745 101.089L63.8198 110.797C73.3569 112.48 79.336 107.265 79.336 96.9967L79.336 36.4298C79.336 27.4073 74.6328 23.7184 65.2505 22.0699L11.6655 12.609C4.53125 11.336 0 14.9649 0 21.8199L0 90.7921C0 96.6671 2.90479 100.057 8.87745 101.089ZM10.252 95.1417C7.38331 94.6754 6.04494 92.9986 6.04494 89.9869L6.04494 22.8355C6.04494 19.6085 8.15089 18.0177 11.6826 18.6422L64.9658 27.9986C70.5181 29.0172 73.291 31.4278 73.291 36.1959L73.291 96.4693C73.291 102.577 69.5689 105.648 63.7202 104.581ZM68.9453 27.213L74.9751 27.213L74.9751 15.5299C74.9751 6.13876 68.6353 1.61581 57.9409 3.51523L6.83985 12.5636L8.99757 17.837L60.0278 9.19297C65.6069 8.21153 68.9453 10.5499 68.9453 15.3883ZM18.252 40.1114L57.5938 47.0397C59.4346 47.3546 60.563 46.1959 60.563 44.5992C60.563 43.1373 59.7866 42.3575 58.3955 42.0763L19.1734 35.2154C17.3662 34.9005 16.1519 36.0069 16.1519 37.5548C16.1519 38.9156 16.9131 39.879 18.252 40.1114ZM18.252 58.8214L57.5938 65.7496C59.4346 66.0646 60.563 64.9059 60.563 63.3092C60.563 61.8624 59.7866 61.0675 58.3955 60.8014L19.1734 53.9405C17.3662 53.6104 16.1519 54.7169 16.1519 56.2647C16.1519 57.6407 16.9131 58.589 18.252 58.8214Z" fill="#000000" fill-opacity="0.85"/>
 </g>
</svg>
