<?xml version="1.0" encoding="UTF-8"?>
<!--Generator: Apple Native CoreSVG 232.5-->
<!DOCTYPE svg
PUBLIC "-//W3C//DTD SVG 1.1//EN"
       "http://www.w3.org/Graphics/SVG/1.1/DTD/svg11.dtd">
<svg version="1.1" xmlns="http://www.w3.org/2000/svg" xmlns:xlink="http://www.w3.org/1999/xlink" width="108.986" height="99.752">
 <g>
  <rect height="99.752" opacity="0" width="108.986" x="0" y="0"/>
  <path d="M20.707 99.7217C26.7539 99.7217 39.0801 94.0347 48.75 87.5601C81.4512 89.5474 108.986 70.4853 108.986 43.9155C108.986 19.6577 84.8159 0 54.4932 0C24.1704 0 0 19.6577 0 43.9155C0 59.8101 10.2236 73.8525 25.6382 81.1631C23.4409 85.3203 19.6118 90.3858 17.4902 93.085C15.0234 96.2305 16.2983 99.7217 20.707 99.7217ZM24.2598 93.5083C23.8692 93.6094 23.7529 93.3467 24.0274 92.9898C26.5347 89.9233 30.5015 85.042 32.2979 81.478C33.3472 79.4839 33.0357 77.7524 30.6978 76.6509C15.396 69.5522 6.24367 57.6152 6.24367 43.9155C6.24367 23.0786 27.6602 6.19484 54.4932 6.19484C81.375 6.19484 102.776 23.0786 102.776 43.9155C102.776 64.7187 81.375 81.6328 54.4932 81.6328C52.9111 81.6328 51.0342 81.5234 48.8237 81.3989C47.2271 81.3838 45.8765 81.8369 44.4146 82.9385C37.5005 87.4204 28.5669 92.3223 24.2598 93.5083Z" fill="#000000" fill-opacity="0.85"/>
 </g>
</svg>
