<?xml version="1.0" encoding="UTF-8"?>
<!--Generator: Apple Native CoreSVG 232.5-->
<!DOCTYPE svg
PUBLIC "-//W3C//DTD SVG 1.1//EN"
       "http://www.w3.org/Graphics/SVG/1.1/DTD/svg11.dtd">
<svg version="1.1" xmlns="http://www.w3.org/2000/svg" xmlns:xlink="http://www.w3.org/1999/xlink" width="108.986" height="99.4151">
 <g>
  <rect height="99.4151" opacity="0" width="108.986" x="0" y="0"/>
  <path d="M19.4722 99.3999C24.9834 99.3999 37.812 93.9268 46.3701 88.3482C47.2305 87.7925 47.8687 87.6089 48.5523 87.624C49.8228 87.7334 51.0933 87.8428 52.394 87.8428C85.6616 87.8428 108.986 68.0352 108.986 43.9155C108.986 19.6426 84.8159 0 54.4932 0C24.1704 0 0 19.6426 0 43.9155C0 59.3892 9.52832 73.125 24.7329 81.0996C25.541 81.5205 25.77 82.2378 25.3491 83.0308C22.9629 87.084 18.8369 91.8194 16.9663 94.1699C15.0317 96.5659 15.9395 99.3999 19.4722 99.3999Z" fill="#000000" fill-opacity="0.85"/>
 </g>
</svg>
