<?xml version="1.0" encoding="UTF-8"?>
<!--Generator: Apple Native CoreSVG 232.5-->
<!DOCTYPE svg
PUBLIC "-//W3C//DTD SVG 1.1//EN"
       "http://www.w3.org/Graphics/SVG/1.1/DTD/svg11.dtd">
<svg version="1.1" xmlns="http://www.w3.org/2000/svg" xmlns:xlink="http://www.w3.org/1999/xlink" width="97.9595" height="97.9932">
 <g>
  <rect height="97.9932" opacity="0" width="97.9595" x="0" y="0"/>
  <path d="M97.9595 49.021C97.9595 75.8584 75.8247 97.9932 48.9722 97.9932C22.1685 97.9932 0 75.8584 0 49.021C0 22.2173 22.1348 0.0488281 48.9385 0.0488281C75.791 0.0488281 97.9595 22.2173 97.9595 49.021ZM21.1553 47.6436C21.1553 55.5386 26.0601 62.4922 33.5239 66.6226C34.1133 66.9038 34.1587 67.4443 33.8657 67.9663C32.9751 69.6113 31.5557 71.3252 30.5303 72.4971C29.2354 74.0059 29.5957 75.5786 31.6113 75.5786C34.3189 75.5786 39.3936 73.5698 44.2983 70.6973C44.8052 70.3521 45.083 70.2358 45.5596 70.2695C46.6421 70.3032 47.7734 70.3672 48.9722 70.3672C64.582 70.3672 76.8042 60.1621 76.8042 47.6436C76.8042 35.125 64.582 24.9385 48.9722 24.9385C33.3623 24.9385 21.1553 35.125 21.1553 47.6436Z" fill="#000000" fill-opacity="0.85"/>
 </g>
</svg>
