<?xml version="1.0" encoding="UTF-8"?>
<!--Generator: Apple Native CoreSVG 232.5-->
<!DOCTYPE svg
PUBLIC "-//W3C//DTD SVG 1.1//EN"
       "http://www.w3.org/Graphics/SVG/1.1/DTD/svg11.dtd">
<svg version="1.1" xmlns="http://www.w3.org/2000/svg" xmlns:xlink="http://www.w3.org/1999/xlink" width="67.2241" height="110.809">
 <g>
  <rect height="110.809" opacity="0" width="67.2241" x="0" y="0"/>
  <path d="M0 51.4448C0 69.8589 12.3135 82.9233 30.7505 84.1377L30.7505 97.4521L11.8027 97.4521C10.2212 97.4521 8.93946 98.7339 8.93946 100.331C8.93946 101.912 10.2212 103.175 11.8027 103.175L55.4214 103.175C57.0029 103.175 58.2998 101.912 58.2998 100.331C58.2998 98.7339 57.0029 97.4521 55.4214 97.4521L36.4736 97.4521L36.4736 84.1377C54.9444 82.9233 67.2241 69.8589 67.2241 51.4448L67.2241 41.8657C67.2241 40.2842 65.9761 39.021 64.3794 39.021C62.7979 39.021 61.5161 40.2842 61.5161 41.8657L61.5161 51.2427C61.5161 67.666 50.5552 78.8374 33.6289 78.8374C16.669 78.8374 5.72316 67.666 5.72316 51.2427L5.72316 41.8657C5.72316 40.2842 4.45997 39.021 2.84473 39.021C1.24805 39.021 0 40.2842 0 41.8657ZM16.8545 49.5205C16.8545 60.0396 23.5664 67.6621 33.6289 67.6621C43.6577 67.6621 50.3696 60.0396 50.3696 49.5205L50.3696 18.1416C50.3696 7.58887 43.6577 0 33.6289 0C23.5664 0 16.8545 7.58887 16.8545 18.1416ZM22.5625 49.5205L22.5625 18.1416C22.5625 10.7485 26.8945 5.61036 33.6289 5.61036C40.3633 5.61036 44.6616 10.7485 44.6616 18.1416L44.6616 49.5205C44.6616 56.9136 40.3633 62.0518 33.6289 62.0518C26.8945 62.0518 22.5625 56.9136 22.5625 49.5205Z" fill="#000000" fill-opacity="0.85"/>
 </g>
</svg>
