<?xml version="1.0" encoding="UTF-8"?>
<!--Generator: Apple Native CoreSVG 232.5-->
<!DOCTYPE svg
PUBLIC "-//W3C//DTD SVG 1.1//EN"
       "http://www.w3.org/Graphics/SVG/1.1/DTD/svg11.dtd">
<svg version="1.1" xmlns="http://www.w3.org/2000/svg" xmlns:xlink="http://www.w3.org/1999/xlink" width="91.6553" height="110.809">
 <g>
  <rect height="110.809" opacity="0" width="91.6553" x="0" y="0"/>
  <path d="M17.948 41.8657L17.948 51.2427C17.948 67.666 28.8938 78.8374 45.8352 78.8374C51.6136 78.8374 56.6989 77.5355 60.8685 75.1405L64.8965 79.1621C60.3521 82.0007 54.8685 83.7317 48.6985 84.1377L48.6985 97.4521L67.6463 97.4521C69.2429 97.4521 70.491 98.7339 70.491 100.331C70.491 101.912 69.2429 103.175 67.6463 103.175L24.0091 103.175C22.4275 103.175 21.1643 101.912 21.1643 100.331C21.1643 98.7339 22.4275 97.4521 24.0091 97.4521L42.9905 97.4521L42.9905 84.1377C24.5046 82.9233 12.24 69.8589 12.24 51.4448L12.24 41.8657C12.24 40.2842 13.488 39.021 15.0696 39.021C16.6663 39.021 17.948 40.2842 17.948 41.8657ZM34.7688 49.0818L34.7688 49.5205C34.7688 56.9136 39.1009 62.0518 45.8352 62.0518C46.4523 62.0518 47.0492 62.0084 47.617 61.9098L52.2026 66.4882C50.2913 67.257 48.1515 67.6621 45.8352 67.6621C35.8064 67.6621 29.0608 60.0396 29.0608 49.5205L29.0608 43.3827ZM79.4641 41.8657L79.4641 51.4448C79.4641 57.4599 78.1502 62.9042 75.7166 67.5356L71.4217 63.2464C72.9431 59.7157 73.741 55.67 73.741 51.2427L73.741 41.8657C73.741 40.2842 75.0042 39.021 76.5857 39.021C78.1673 39.021 79.4641 40.2842 79.4641 41.8657ZM62.6096 18.1416L62.6096 49.5205C62.6096 51.0844 62.461 52.5842 62.1577 53.9946L56.8865 48.7303L56.8865 18.1416C56.8865 10.7485 52.5545 5.61036 45.8352 5.61036C39.1009 5.61036 34.7688 10.7485 34.7688 18.1416L34.7688 26.6419L29.0608 20.9414L29.0608 18.1416C29.0608 7.58887 35.8064 0 45.8352 0C55.8826 0 62.6096 7.58887 62.6096 18.1416Z" fill="#000000" fill-opacity="0.85"/>
  <path d="M81.6633 88.8203C82.7952 89.9522 84.6428 89.9522 85.7898 88.8203C86.9182 87.6245 86.9217 85.8257 85.7898 84.6939L11.8875 10.8252C10.7708 9.74218 8.87428 9.67821 7.71216 10.8252C6.61402 11.9722 6.61402 13.8535 7.71216 14.9668Z" fill="#000000" fill-opacity="0.85"/>
 </g>
</svg>
