<?xml version="1.0" encoding="UTF-8"?>
<!--Generator: Apple Native CoreSVG 232.5-->
<!DOCTYPE svg
PUBLIC "-//W3C//DTD SVG 1.1//EN"
       "http://www.w3.org/Graphics/SVG/1.1/DTD/svg11.dtd">
<svg version="1.1" xmlns="http://www.w3.org/2000/svg" xmlns:xlink="http://www.w3.org/1999/xlink" width="97.9595" height="97.9932">
 <g>
  <rect height="97.9932" opacity="0" width="97.9595" x="0" y="0"/>
  <path d="M97.9595 48.9722C97.9595 75.7759 75.8247 97.9443 48.9722 97.9443C22.1685 97.9443 0 75.7759 0 48.9722C0 22.1348 22.1348 0 48.9385 0C75.791 0 97.9595 22.1348 97.9595 48.9722ZM6.36671 48.9722C6.36671 72.5942 25.3501 91.6113 48.9722 91.6113C72.5942 91.6113 91.6265 72.5942 91.6265 48.9722C91.6265 25.3501 72.5605 6.31789 48.9385 6.31789C25.3164 6.31789 6.36671 25.3501 6.36671 48.9722Z" fill="#000000" fill-opacity="0.85"/>
  <path d="M34.7671 44.2534L34.7671 50.0679C34.7671 58.333 40.3823 63.9482 48.9385 63.9482C51.3993 63.9482 53.6205 63.4854 55.5264 62.6164L58.5796 65.6683C56.4102 66.8874 53.8985 67.6668 51.1397 67.9312L51.1397 74.2705L61.0566 74.2705C62.2305 74.2705 63.1904 75.2642 63.1904 76.4229C63.1904 77.563 62.1968 78.5903 61.0566 78.5903L36.854 78.5903C35.6953 78.5903 34.7017 77.5967 34.7017 76.4229C34.7017 75.2642 35.6953 74.2705 36.854 74.2705L46.8198 74.2705L46.8198 67.9312C37.1182 67.0386 30.5147 59.7529 30.5147 50.0679L30.5147 44.2534C30.5147 43.1133 31.4746 42.1533 32.6148 42.1533C33.7734 42.1533 34.7671 43.1133 34.7671 44.2534ZM67.4414 44.2534L67.4414 50.0679C67.4414 53.1601 66.7652 56.0042 65.5238 58.4694L62.3121 55.2568C62.8803 53.6937 63.1738 51.9495 63.1738 50.0679L63.1738 44.2534C63.1738 43.1133 64.1338 42.1533 65.3076 42.1533C66.4326 42.1533 67.4414 43.1133 67.4414 44.2534ZM51.0533 58.1449C50.3934 58.3226 49.6846 58.4111 48.9385 58.4111C44.0928 58.4111 40.8179 54.6548 40.8179 49.6441L40.8179 47.9134ZM57.0742 28.4395L57.0742 49.6441C57.0742 49.7655 57.0723 49.8863 57.0595 50.0026L40.8179 33.7559L40.8179 28.4395C40.8179 23.4775 44.0928 19.7398 48.9385 19.7398C53.7993 19.7398 57.0742 23.4775 57.0742 28.4395Z" fill="#000000" fill-opacity="0.85"/>
  <path d="M72.0684 74.773C72.7773 75.4971 74.0303 75.5122 74.7393 74.773C75.4971 73.9663 75.4971 72.8447 74.7393 72.102L25.8423 23.1411C25.0996 22.3984 23.8804 22.3984 23.1377 23.1411C22.3648 23.8804 22.4136 25.103 23.1377 25.8272Z" fill="#000000" fill-opacity="0.85"/>
 </g>
</svg>
