<?xml version="1.0" encoding="UTF-8"?>
<!--Generator: Apple Native CoreSVG 232.5-->
<!DOCTYPE svg
PUBLIC "-//W3C//DTD SVG 1.1//EN"
       "http://www.w3.org/Graphics/SVG/1.1/DTD/svg11.dtd">
<svg version="1.1" xmlns="http://www.w3.org/2000/svg" xmlns:xlink="http://www.w3.org/1999/xlink" width="91.6553" height="110.165">
 <g>
  <rect height="110.165" opacity="0" width="91.6553" x="0" y="0"/>
  <path d="M17.948 41.5439L17.948 50.9209C17.948 67.3442 28.8938 78.5156 45.8352 78.5156C51.6136 78.5156 56.6989 77.2137 60.8685 74.8187L64.8965 78.8403C60.3521 81.6789 54.8685 83.4099 48.6985 83.8159L48.6985 97.1304L67.6463 97.1304C69.2429 97.1304 70.491 98.4121 70.491 100.009C70.491 101.59 69.2429 102.854 67.6463 102.854L24.0091 102.854C22.4275 102.854 21.1643 101.59 21.1643 100.009C21.1643 98.4121 22.4275 97.1304 24.0091 97.1304L42.9905 97.1304L42.9905 83.8159C24.5046 82.6016 12.24 69.5371 12.24 51.123L12.24 41.5439C12.24 39.9624 13.488 38.6992 15.0696 38.6992C16.6663 38.6992 17.948 39.9624 17.948 41.5439ZM79.4641 41.5439L79.4641 51.123C79.4641 57.1382 78.1502 62.5824 75.7166 67.2138L71.4217 62.9246C72.9431 59.3939 73.741 55.3483 73.741 50.9209L73.741 41.5439C73.741 39.9624 75.0042 38.6992 76.5857 38.6992C78.1673 38.6992 79.4641 39.9624 79.4641 41.5439ZM51.9233 65.8875C50.1028 66.6277 48.0577 67.0186 45.8352 67.0186C36.3303 67.0186 30.0261 59.8189 30.0261 49.8423L30.0261 44.0248ZM61.6443 17.1763L61.6443 49.8423C61.6443 50.9092 61.5726 51.9443 61.4185 52.9345L30.0261 21.5837L30.0261 17.1763C30.0261 7.16602 36.3303 0 45.8352 0C55.3738 0 61.6443 7.16602 61.6443 17.1763Z" fill="#000000" fill-opacity="0.85"/>
  <path d="M81.6633 88.4985C82.7952 89.6304 84.6428 89.6304 85.7898 88.4985C86.9182 87.3027 86.9217 85.5039 85.7898 84.3721L11.8875 10.5034C10.7708 9.4204 8.87428 9.35643 7.71216 10.5034C6.61402 11.6504 6.61402 13.5317 7.71216 14.645Z" fill="#000000" fill-opacity="0.85"/>
 </g>
</svg>
