<?xml version="1.0" encoding="UTF-8"?>
<!--Generator: Apple Native CoreSVG 232.5-->
<!DOCTYPE svg
PUBLIC "-//W3C//DTD SVG 1.1//EN"
       "http://www.w3.org/Graphics/SVG/1.1/DTD/svg11.dtd">
<svg version="1.1" xmlns="http://www.w3.org/2000/svg" xmlns:xlink="http://www.w3.org/1999/xlink" width="99.4043" height="110.809">
 <g>
  <rect height="110.809" opacity="0" width="99.4043" x="0" y="0"/>
  <path d="M7.53711 25.0513C11.6812 25.0513 15.0405 21.707 15.0405 17.563C15.0405 13.3701 11.6812 10.0259 7.53711 10.0259C3.34424 10.0259 0 13.3701 0 17.563C0 21.707 3.34424 25.0513 7.53711 25.0513Z" fill="#000000" fill-opacity="0.85"/>
  <path d="M7.53711 50.2451C11.6812 50.2451 15.0405 46.9009 15.0405 42.7568C15.0405 38.564 11.6812 35.2197 7.53711 35.2197C3.34424 35.2197 0 38.564 0 42.7568C0 46.9009 3.34424 50.2451 7.53711 50.2451Z" fill="#000000" fill-opacity="0.85"/>
  <path d="M7.53711 75.5064C11.6812 75.5064 15.0405 72.1621 15.0405 68.0029C15.0405 63.8252 11.6812 60.4658 7.53711 60.4658C3.34424 60.4658 0 63.8252 0 68.0029C0 72.1621 3.34424 75.5064 7.53711 75.5064Z" fill="#000000" fill-opacity="0.85"/>
  <path d="M7.53711 100.7C11.6812 100.7 15.0405 97.356 15.0405 93.1968C15.0405 89.019 11.6812 85.6597 7.53711 85.6597C3.34424 85.6597 0 89.019 0 93.1968C0 97.356 3.34424 100.7 7.53711 100.7Z" fill="#000000" fill-opacity="0.85"/>
  <path d="M32.1802 51.4448C32.1802 69.8589 44.46 82.9233 62.9307 84.1377L62.9307 97.4521L43.9829 97.4521C42.4014 97.4521 41.1045 98.7339 41.1045 100.331C41.1045 101.912 42.4014 103.175 43.9829 103.175L87.6016 103.175C89.1831 103.175 90.4649 101.912 90.4649 100.331C90.4649 98.7339 89.1831 97.4521 87.6016 97.4521L68.6538 97.4521L68.6538 84.1377C87.0908 82.9233 99.4043 69.8589 99.4043 51.4448L99.4043 41.8657C99.4043 40.2842 98.1563 39.021 96.5259 39.021C94.9444 39.021 93.6812 40.2842 93.6812 41.8657L93.6812 51.2427C93.6812 67.666 82.7354 78.8374 65.7754 78.8374C48.834 78.8374 37.8882 67.666 37.8882 51.2427L37.8882 41.8657C37.8882 40.2842 36.6065 39.021 35.0249 39.021C33.4282 39.021 32.1802 40.2842 32.1802 41.8657ZM49.0347 49.5205C49.0347 60.0396 55.7466 67.6621 65.7754 67.6621C75.8379 67.6621 82.5498 60.0396 82.5498 49.5205L82.5498 18.1416C82.5498 7.58887 75.8379 0 65.7754 0C55.7466 0 49.0347 7.58887 49.0347 18.1416ZM54.7427 49.5205L54.7427 18.1416C54.7427 10.7485 59.041 5.61036 65.7754 5.61036C72.5098 5.61036 76.8267 10.7485 76.8267 18.1416L76.8267 49.5205C76.8267 56.9136 72.5098 62.0518 65.7754 62.0518C59.041 62.0518 54.7427 56.9136 54.7427 49.5205Z" fill="#000000" fill-opacity="0.85"/>
 </g>
</svg>
