<?xml version="1.0" encoding="UTF-8"?>
<!--Generator: Apple Native CoreSVG 232.5-->
<!DOCTYPE svg
PUBLIC "-//W3C//DTD SVG 1.1//EN"
       "http://www.w3.org/Graphics/SVG/1.1/DTD/svg11.dtd">
<svg version="1.1" xmlns="http://www.w3.org/2000/svg" xmlns:xlink="http://www.w3.org/1999/xlink" width="97.9595" height="97.9932">
 <g>
  <rect height="97.9932" opacity="0" width="97.9595" x="0" y="0"/>
  <path d="M48.9722 97.9443C75.8247 97.9443 97.9595 75.7759 97.9595 48.9722C97.9595 22.1348 75.791 0 48.9385 0C22.1348 0 0 22.1348 0 48.9722C0 75.7759 22.1685 97.9443 48.9722 97.9443ZM48.9722 91.6113C25.3501 91.6113 6.36671 72.5942 6.36671 48.9722C6.36671 25.3501 25.3164 6.31789 48.9385 6.31789C72.5605 6.31789 91.6265 25.3501 91.6265 48.9722C91.6265 72.5942 72.5942 91.6113 48.9722 91.6113Z" fill="#000000" fill-opacity="0.85"/>
  <path d="M48.9722 66.2266C58.4917 66.2266 66.2417 58.5068 66.2417 48.9873C66.2417 39.4829 58.4917 31.7329 48.9722 31.7329C39.4829 31.7329 31.7329 39.4829 31.7329 48.9873C31.7329 58.5068 39.4829 66.2266 48.9722 66.2266ZM49.0361 26.8506C50.811 26.8506 52.1699 25.4917 52.1699 23.6831C52.1699 21.8931 50.811 20.5342 49.0361 20.5342C47.2461 20.5342 45.8872 21.8931 45.8872 23.6831C45.8872 25.4917 47.2461 26.8506 49.0361 26.8506ZM61.7144 30.2129C63.5044 30.2129 64.8633 28.8692 64.8633 27.0791C64.8633 25.2891 63.5044 23.9453 61.7144 23.9453C59.9395 23.9453 58.5806 25.2891 58.5806 27.0791C58.5806 28.8692 59.9395 30.2129 61.7144 30.2129ZM70.9443 39.4917C72.7344 39.4917 74.0781 38.148 74.0781 36.3579C74.0781 34.5679 72.7344 33.2241 70.9443 33.2241C69.1543 33.2241 67.8105 34.5679 67.8105 36.3579C67.8105 38.148 69.1543 39.4917 70.9443 39.4917ZM74.3403 52.106C76.1304 52.106 77.4741 50.7622 77.4741 48.9722C77.4741 47.1821 76.1304 45.8384 74.3403 45.8384C72.5503 45.8384 71.2065 47.1821 71.2065 48.9722C71.2065 50.7622 72.5503 52.106 74.3403 52.106ZM70.9443 64.7202C72.7344 64.7202 74.0781 63.3765 74.0781 61.5864C74.0781 59.7964 72.7344 58.4526 70.9443 58.4526C69.1543 58.4526 67.8105 59.7964 67.8105 61.5864C67.8105 63.3765 69.1543 64.7202 70.9443 64.7202ZM61.7144 73.999C63.5044 73.999 64.8633 72.6553 64.8633 70.8315C64.8633 69.0415 63.5044 67.6978 61.7144 67.6978C59.9395 67.6978 58.5806 69.0415 58.5806 70.8315C58.5806 72.6553 59.9395 73.999 61.7144 73.999ZM49.0361 77.3613C50.811 77.3613 52.1699 76.0176 52.1699 74.2275C52.1699 72.4375 50.811 71.0938 49.0361 71.0938C47.2461 71.0938 45.8872 72.4375 45.8872 74.2275C45.8872 76.0176 47.2461 77.3613 49.0361 77.3613ZM36.3765 73.999C38.1665 73.999 39.5103 72.6553 39.5103 70.8315C39.5103 69.0415 38.1665 67.6978 36.3765 67.6978C34.5864 67.6978 33.2427 69.0415 33.2427 70.8315C33.2427 72.6553 34.5864 73.999 36.3765 73.999ZM27.1128 64.7202C28.9365 64.7202 30.2803 63.3765 30.2803 61.5864C30.2803 59.7964 28.9365 58.4526 27.1128 58.4526C25.3228 58.4526 23.979 59.7964 23.979 61.5864C23.979 63.3765 25.3228 64.7202 27.1128 64.7202ZM23.7505 52.106C25.5405 52.106 26.8843 50.7622 26.8843 48.9722C26.8843 47.1821 25.5405 45.8384 23.7505 45.8384C21.9605 45.8384 20.6167 47.1821 20.6167 48.9722C20.6167 50.7622 21.9605 52.106 23.7505 52.106ZM27.1128 39.4917C28.9365 39.4917 30.2803 38.148 30.2803 36.3579C30.2803 34.5679 28.9365 33.2241 27.1128 33.2241C25.3228 33.2241 23.979 34.5679 23.979 36.3579C23.979 38.148 25.3228 39.4917 27.1128 39.4917ZM36.3765 30.2129C38.1665 30.2129 39.5103 28.8692 39.5103 27.0791C39.5103 25.2891 38.1665 23.9453 36.3765 23.9453C34.5864 23.9453 33.2427 25.2891 33.2427 27.0791C33.2427 28.8692 34.5864 30.2129 36.3765 30.2129Z" fill="#000000" fill-opacity="0.85"/>
 </g>
</svg>
