<?xml version="1.0" encoding="UTF-8"?>
<!--Generator: Apple Native CoreSVG 232.5-->
<!DOCTYPE svg
PUBLIC "-//W3C//DTD SVG 1.1//EN"
       "http://www.w3.org/Graphics/SVG/1.1/DTD/svg11.dtd">
<svg version="1.1" xmlns="http://www.w3.org/2000/svg" xmlns:xlink="http://www.w3.org/1999/xlink" width="88.4092" height="88.5371">
 <g>
  <rect height="88.5371" opacity="0" width="88.4092" x="0" y="0"/>
  <path d="M88.4092 14.4019L88.4092 74.2632C88.4092 83.6558 83.5733 88.5371 74.0005 88.5371L14.3936 88.5371C4.86963 88.5371 0 83.7349 0 74.2632L0 14.4019C0 4.93018 4.86963 0.127929 14.3936 0.127929L74.0005 0.127929C83.5733 0.127929 88.4092 5.00928 88.4092 14.4019ZM50.4409 17.8892L44.6519 33.0913C43.2998 30.2256 40.7305 28.7222 37.5415 28.7222C34.7061 28.7222 32.3472 30.0371 30.8184 32.6992L30.8184 31.5532C30.8184 29.8252 29.791 28.9141 28.4605 28.9141C27.0811 28.9141 26.0386 29.9263 26.0386 31.4521L26.0386 59.1841C26.0386 60.6577 27.1299 61.6245 28.5767 61.6245C30.02 61.6245 31.0659 60.6123 31.0659 59.0527L31.0659 40.5352C31.0659 36.207 33.061 33.2476 36.6924 33.2476C39.6118 33.2476 41.8071 35.6147 41.8071 38.7852L41.8071 40.2002L31.5293 69.5274C31.3643 69.9365 31.2666 70.3643 31.2666 70.7769C31.2666 71.8682 32.1255 72.7271 33.2505 72.7271C34.1919 72.7271 34.9009 72.1494 35.2647 71.1743L41.8223 52.2818L41.8223 59.0527C41.8223 60.6123 42.8833 61.6245 44.3115 61.6245C45.7398 61.6245 46.7671 60.6123 46.7671 59.0527L46.7671 39.9883C46.7671 35.8789 48.959 33.2964 52.3413 33.2964C55.5689 33.2964 57.5723 35.645 57.5723 39.5054L57.5723 59.0679C57.5723 60.6426 58.5996 61.6397 60.0278 61.6397C61.4561 61.6397 62.5171 60.6426 62.5171 59.0679L62.5171 39.0928C62.5171 32.6118 58.8027 28.7373 53.3521 28.7373C52.2529 28.7373 51.3086 28.9595 50.4282 29.355L54.2251 19.4116C54.3413 19.0815 54.4727 18.6689 54.4727 18.2866C54.4727 17.1802 53.5801 16.3701 52.4551 16.3701C51.48 16.3701 50.8384 16.9477 50.4409 17.8892Z" fill="#000000" fill-opacity="0.85"/>
 </g>
</svg>
