<?xml version="1.0" encoding="UTF-8"?>
<!--Generator: Apple Native CoreSVG 232.5-->
<!DOCTYPE svg
PUBLIC "-//W3C//DTD SVG 1.1//EN"
       "http://www.w3.org/Graphics/SVG/1.1/DTD/svg11.dtd">
<svg version="1.1" xmlns="http://www.w3.org/2000/svg" xmlns:xlink="http://www.w3.org/1999/xlink" width="97.9595" height="97.9932">
 <g>
  <rect height="97.9932" opacity="0" width="97.9595" x="0" y="0"/>
  <path d="M97.9595 48.9722C97.9595 75.7759 75.8247 97.9443 48.9722 97.9443C22.1685 97.9443 0 75.7759 0 48.9722C0 22.1348 22.1348 0 48.9385 0C75.791 0 97.9595 22.1348 97.9595 48.9722ZM55.1992 22.6172L49.395 37.8193C48.0244 34.9536 45.4888 33.4502 42.251 33.4502C39.4492 33.4502 37.1055 34.7651 35.5767 37.4272L35.5767 36.2813C35.5767 34.5532 34.5493 33.6421 33.2036 33.6421C31.8394 33.6421 30.7817 34.6543 30.7817 36.1802L30.7817 63.9121C30.7817 65.3858 31.8882 66.3526 33.3198 66.3526C34.7632 66.3526 35.7754 65.3403 35.7754 63.7808L35.7754 45.2632C35.7754 40.9351 37.8042 37.9756 41.4356 37.9756C44.355 37.9756 46.5503 40.3428 46.5503 43.5132L46.5503 44.9282L36.2725 74.2554C36.1074 74.6646 36.0249 75.0923 36.0249 75.5049C36.0249 76.5962 36.8687 77.4551 38.0088 77.4551C38.9351 77.4551 39.6592 76.8775 40.0078 75.9024L46.5806 57.0098L46.5806 63.7808C46.5806 65.3403 47.6079 66.3526 49.0361 66.3526C50.4981 66.3526 51.5254 65.3403 51.5254 63.7808L51.5254 44.7163C51.5254 40.6069 53.7022 38.0244 57.0845 38.0244C60.3272 38.0244 62.3154 40.3731 62.3154 44.2334L62.3154 63.7959C62.3154 65.3706 63.3428 66.3677 64.771 66.3677C66.1992 66.3677 67.2603 65.3706 67.2603 63.7959L67.2603 43.8208C67.2603 37.3398 63.5459 33.4653 58.0952 33.4653C56.9776 33.4653 56.0518 33.6875 55.1865 34.083L58.9834 24.1396C59.0996 23.8096 59.2158 23.397 59.2158 23.0146C59.2158 21.9082 58.3047 21.0981 57.1646 21.0981C56.2383 21.0981 55.5816 21.6758 55.1992 22.6172Z" fill="#000000" fill-opacity="0.85"/>
 </g>
</svg>
