<?xml version="1.0" encoding="UTF-8"?>
<!--Generator: Apple Native CoreSVG 232.5-->
<!DOCTYPE svg
PUBLIC "-//W3C//DTD SVG 1.1//EN"
       "http://www.w3.org/Graphics/SVG/1.1/DTD/svg11.dtd">
<svg version="1.1" xmlns="http://www.w3.org/2000/svg" xmlns:xlink="http://www.w3.org/1999/xlink" width="97.9595" height="97.9932">
 <g>
  <rect height="97.9932" opacity="0" width="97.9595" x="0" y="0"/>
  <path d="M48.9722 97.9443C75.8247 97.9443 97.9595 75.7759 97.9595 48.9722C97.9595 22.1348 75.791 0 48.9385 0C22.1348 0 0 22.1348 0 48.9722C0 75.7759 22.1685 97.9443 48.9722 97.9443ZM48.9722 91.6113C25.3501 91.6113 6.36671 72.5942 6.36671 48.9722C6.36671 25.3501 25.3164 6.31789 48.9385 6.31789C72.5605 6.31789 91.6265 25.3501 91.6265 48.9722C91.6265 72.5942 72.5942 91.6113 48.9722 91.6113Z" fill="#000000" fill-opacity="0.85"/>
  <path d="M33.6079 65.9634C35.0327 65.9634 35.9961 64.9849 35.9961 63.4927L35.9961 45.3828C35.9961 41.0884 38.0064 38.1963 41.5703 38.1963C44.4224 38.1963 46.584 40.5112 46.584 43.648L46.584 44.9956L36.542 73.7315C36.3618 74.1558 36.2793 74.5498 36.2793 74.9473C36.2793 76.02 37.0894 76.8452 38.1958 76.8452C39.1221 76.8452 39.8125 76.2861 40.1611 75.3599L46.6143 56.7403L46.6143 63.4927C46.6143 64.9849 47.6079 65.9634 49.0024 65.9634C50.4307 65.9634 51.4243 64.9849 51.4243 63.4927L51.4243 44.8511C51.4243 40.7603 53.5825 38.2603 56.8975 38.2603C60.0576 38.2603 62.0273 40.5264 62.0273 44.353L62.0273 63.5078C62.0273 65.0151 63.021 65.9937 64.4155 65.9937C65.8101 65.9937 66.8374 65.0151 66.8374 63.5078L66.8374 43.9556C66.8374 37.5942 63.1904 33.8208 57.8745 33.8208C56.7417 33.8208 55.8311 34.043 54.9844 34.4385L58.6953 24.6636C58.8115 24.3184 58.9278 23.9395 58.9278 23.5571C58.9278 22.4844 58.0503 21.708 56.9439 21.708C56.0361 21.708 55.3945 22.252 55.0308 23.1748L49.3613 38.0737C47.9907 35.2905 45.5225 33.8057 42.3521 33.8057C39.6177 33.8057 37.2925 35.0869 35.7974 37.6968L35.7974 36.5356C35.7974 34.875 34.8037 33.9976 33.4917 33.9976C32.1611 33.9976 31.1372 34.9761 31.1372 36.4497L31.1372 63.5903C31.1372 65.0303 32.21 65.9634 33.6079 65.9634Z" fill="#000000" fill-opacity="0.85"/>
 </g>
</svg>
