<?xml version="1.0" encoding="UTF-8"?>
<!--Generator: Apple Native CoreSVG 232.5-->
<!DOCTYPE svg
PUBLIC "-//W3C//DTD SVG 1.1//EN"
       "http://www.w3.org/Graphics/SVG/1.1/DTD/svg11.dtd">
<svg version="1.1" xmlns="http://www.w3.org/2000/svg" xmlns:xlink="http://www.w3.org/1999/xlink" width="88.4092" height="88.5371">
 <g>
  <rect height="88.5371" opacity="0" width="88.4092" x="0" y="0"/>
  <path d="M14.3936 88.5371L74.0005 88.5371C83.5733 88.5371 88.4092 83.6558 88.4092 74.2632L88.4092 14.4019C88.4092 5.00928 83.5733 0.127929 74.0005 0.127929L14.3936 0.127929C4.86963 0.127929 0 4.93018 0 14.4019L0 74.2632C0 83.7349 4.86963 88.5371 14.3936 88.5371ZM14.5064 82.4922C9.00294 82.4922 6.04494 79.6016 6.04494 73.9634L6.04494 14.7017C6.04494 9.06349 9.00294 6.17287 14.5064 6.17287L73.9028 6.17287C79.2969 6.17287 82.3643 9.06349 82.3643 14.7017L82.3643 73.9634C82.3643 79.6016 79.2969 82.4922 73.9028 82.4922Z" fill="#000000" fill-opacity="0.85"/>
  <path d="M28.8984 61.2354C30.3081 61.2354 31.3203 60.2568 31.3203 58.7647L31.3203 40.6548C31.3203 36.3604 33.2817 33.4683 36.8457 33.4683C39.6978 33.4683 41.8745 35.7832 41.8745 38.9199L41.8745 40.2676L31.8174 69.0034C31.6523 69.4277 31.5547 69.8218 31.5547 70.2192C31.5547 71.292 32.3799 72.1172 33.4863 72.1172C34.4126 72.1172 35.103 71.5581 35.4517 70.6318L41.8896 52.0122L41.8896 58.7647C41.8896 60.2568 42.917 61.2354 44.3115 61.2354C45.7061 61.2354 46.6997 60.2568 46.6997 58.7647L46.6997 40.123C46.6997 36.0322 48.8579 33.5322 52.1729 33.5322C55.3481 33.5322 57.3179 35.7983 57.3179 39.625L57.3179 58.7798C57.3179 60.2871 58.3115 61.2656 59.7061 61.2656C61.1006 61.2656 62.1279 60.2871 62.1279 58.7798L62.1279 39.2275C62.1279 32.8662 58.481 29.0928 53.1499 29.0928C52.0659 29.0928 51.1216 29.3149 50.2749 29.7104L53.9707 19.9355C54.0869 19.5903 54.2031 19.2114 54.2031 18.8291C54.2031 17.7563 53.3594 16.98 52.2529 16.98C51.3267 16.98 50.6699 17.5239 50.3213 18.4468L44.6519 33.3457C43.2998 30.5625 40.7979 29.0776 37.6763 29.0776C34.8931 29.0776 32.583 30.3589 31.0879 32.9687L31.0879 31.8076C31.0879 30.147 30.0791 29.2695 28.7822 29.2695C27.4365 29.2695 26.4126 30.248 26.4126 31.7217L26.4126 58.8623C26.4126 60.3023 27.4854 61.2354 28.8984 61.2354Z" fill="#000000" fill-opacity="0.85"/>
 </g>
</svg>
