<?xml version="1.0" encoding="UTF-8"?>
<!--Generator: Apple Native CoreSVG 232.5-->
<!DOCTYPE svg
PUBLIC "-//W3C//DTD SVG 1.1//EN"
       "http://www.w3.org/Graphics/SVG/1.1/DTD/svg11.dtd">
<svg version="1.1" xmlns="http://www.w3.org/2000/svg" xmlns:xlink="http://www.w3.org/1999/xlink" width="118.79" height="105.285">
 <g>
  <rect height="105.285" opacity="0" width="118.79" x="0" y="0"/>
  <path d="M84.5181 105.203L34.2715 105.203C30.935 105.203 28.8038 103.352 28.537 100.224L90.2525 100.224C89.9857 103.352 87.8546 105.203 84.5181 105.203Z" fill="#000000" fill-opacity="0.85"/>
  <path d="M92.8437 93.084L25.9795 93.084C21.9352 93.084 19.389 91.0389 18.8937 87.4107C20.1221 87.5868 21.4207 87.6641 22.7695 87.6641L96.02 87.6641C97.3694 87.6641 98.6684 87.586 99.8973 87.4084C99.4085 91.0381 96.8889 93.084 92.8437 93.084Z" fill="#000000" fill-opacity="0.85"/>
  <path d="M22.7695 10.8936C13.2305 10.8936 8.36084 15.6958 8.36084 25.1675L8.36084 65.0293C8.36084 74.501 13.2305 79.3032 22.7695 79.3032L96.02 79.3032C105.559 79.3032 110.429 74.4219 110.429 65.0293L110.429 25.1675C110.429 15.7749 105.559 10.8936 96.02 10.8936L90.9697 10.8936L90.9697 4.84961C90.9697 1.80176 89.2471 0 86.0747 0L72.498 0C69.3105 0 67.5879 1.80176 67.5879 4.84961L67.5879 10.8936L51.2353 10.8936L51.2353 4.84961C51.2353 1.80176 49.5127 0 46.3589 0L32.73 0C29.625 0 27.8872 1.80176 27.8872 4.84961L27.8872 10.8936ZM29.7158 47.6475C28.2539 47.6475 27.1255 46.4668 27.1255 45.0049C27.1255 43.5767 28.2539 42.4145 29.7158 42.4145L48.5576 42.4145C49.9707 42.4145 51.1665 43.5767 51.1665 45.0049C51.1665 46.4668 49.9707 47.6475 48.5576 47.6475ZM79.6772 57.8374C78.2305 57.8374 77.0684 56.7056 77.0684 55.1948L77.0684 47.6777L69.5024 47.6777C68.0742 47.6777 66.8784 46.4819 66.8784 45.02C66.8784 43.5918 68.0102 42.4448 69.5024 42.4448L77.0684 42.4448L77.0684 34.8638C77.0684 33.3833 78.2305 32.2549 79.6772 32.2549C81.1729 32.2549 82.3013 33.3833 82.3013 34.8638L82.3013 42.4448L89.852 42.4448C91.2803 42.4448 92.4609 43.5918 92.4609 45.02C92.4609 46.4819 91.2803 47.6777 89.852 47.6777L82.3013 47.6777L82.3013 55.1948C82.3013 56.6904 81.1729 57.8374 79.6772 57.8374Z" fill="#000000" fill-opacity="0.85"/>
 </g>
</svg>
