<?xml version="1.0" encoding="UTF-8"?>
<!--Generator: Apple Native CoreSVG 232.5-->
<!DOCTYPE svg
PUBLIC "-//W3C//DTD SVG 1.1//EN"
       "http://www.w3.org/Graphics/SVG/1.1/DTD/svg11.dtd">
<svg version="1.1" xmlns="http://www.w3.org/2000/svg" xmlns:xlink="http://www.w3.org/1999/xlink" width="108.715" height="108.771">
 <g>
  <rect height="108.771" opacity="0" width="108.715" x="0" y="0"/>
  <path d="M5.1061 64.5165L44.2326 103.628C50.9899 110.4 57.8161 110.389 64.4943 103.729L103.71 64.4491C110.355 57.7895 110.412 50.9296 103.654 44.1723L64.5919 5.10976C57.8043-1.67784 51.0236-1.69981 44.2848 5.02383L5.00502 44.2396C-1.71861 50.9633-1.65123 57.744 5.1061 64.5165ZM9.43814 60.3832C5.54752 56.474 5.49527 52.3124 9.47183 48.351L48.317 9.49063C52.3239 5.49894 56.4249 5.53263 60.3644 9.45694L99.2619 48.3544C103.107 52.2148 103.235 56.4403 99.2433 60.4169L60.3981 99.247C56.3913 103.239 52.1774 103.141 48.3507 99.3144Z" fill="#000000" fill-opacity="0.85"/>
  <path d="M33.8883 57.5732L74.879 57.5732C76.9171 57.5732 78.3825 56.3808 78.3825 54.4589C78.3825 52.473 77.0333 51.2621 74.879 51.2621L33.8883 51.2621C31.7677 51.2621 30.3512 52.473 30.3512 54.4589C30.3512 56.3808 31.8502 57.5732 33.8883 57.5732Z" fill="#000000" fill-opacity="0.85"/>
 </g>
</svg>
