<?xml version="1.0" encoding="UTF-8"?>
<!--Generator: Apple Native CoreSVG 232.5-->
<!DOCTYPE svg
PUBLIC "-//W3C//DTD SVG 1.1//EN"
       "http://www.w3.org/Graphics/SVG/1.1/DTD/svg11.dtd">
<svg version="1.1" xmlns="http://www.w3.org/2000/svg" xmlns:xlink="http://www.w3.org/1999/xlink" width="90.3848" height="92.1455">
 <g>
  <rect height="92.1455" opacity="0" width="90.3848" x="0" y="0"/>
  <path d="M2.70997 26.5806L29.1045 26.5806C30.6001 26.5806 31.8145 25.3999 31.8145 23.9043C31.8145 22.4238 30.6001 21.1943 29.1045 21.1943L2.70997 21.1943C1.1958 21.1943 0 22.4238 0 23.9043C0 25.3999 1.1958 26.5806 2.70997 26.5806ZM16.8213 92.1152C18.0693 92.1152 18.8154 91.583 19.8125 90.1396L47.9566 47.1025L75.6978 4.9297C76.2603 4.15333 76.459 3.48975 76.459 2.7251C76.459 1.1958 75.1436 0 73.5654 0C72.2046 0 71.5039 0.44629 70.4395 2.03955L42.6763 44.4028L14.5879 87.1182C14.0591 87.8945 13.793 88.5395 13.793 89.3867C13.793 91.0171 15.1421 92.1152 16.8213 92.1152ZM58.5703 71.4434C58.5703 72.939 59.7661 74.1196 61.2466 74.1196L71.8013 74.1196L71.8013 84.6743C71.8013 86.1548 72.9819 87.3506 74.4775 87.3506C75.9732 87.3506 77.1875 86.1548 77.1875 84.6743L77.1875 74.1196L87.6748 74.1196C89.1704 74.1196 90.3848 72.939 90.3848 71.4434C90.3848 69.9477 89.1704 68.7334 87.6748 68.7334L77.1875 68.7334L77.1875 58.2461C77.1875 56.7319 75.9395 55.5361 74.4775 55.5361C72.9634 55.5361 71.8013 56.7505 71.8013 58.2461L71.8013 68.7334L61.2466 68.7334C59.7661 68.7334 58.5703 69.9477 58.5703 71.4434Z" fill="#000000" fill-opacity="0.85"/>
 </g>
</svg>
