<?xml version="1.0" encoding="UTF-8"?>
<!--Generator: Apple Native CoreSVG 232.5-->
<!DOCTYPE svg
PUBLIC "-//W3C//DTD SVG 1.1//EN"
       "http://www.w3.org/Graphics/SVG/1.1/DTD/svg11.dtd">
<svg version="1.1" xmlns="http://www.w3.org/2000/svg" xmlns:xlink="http://www.w3.org/1999/xlink" width="114.383" height="113.644">
 <g>
  <rect height="113.644" opacity="0" width="114.383" x="0" y="0"/>
  <path d="M20.2032 31.0981L14.54 31.0981C9.03663 31.0981 6.07863 34.0039 6.07863 39.6421L6.07863 86.4038C6.07863 92.042 9.03663 94.9477 14.54 94.9477L84.0869 94.9477L90.12 100.978L14.4273 100.978C4.90332 100.978 0.0336915 96.1753 0.0336915 86.7373L0.0336915 39.3086C0.0336915 29.9554 4.81617 25.1551 14.1783 25.0764ZM48.0186 18.041L48.0186 25.0683L66.3984 25.0683L66.3984 18.041C66.3984 14.6328 68.3013 12.5835 71.8491 12.5835L87.0708 12.5835C90.6187 12.5835 92.5703 14.6328 92.5703 18.041L92.5703 25.0683L99.9746 25.0683C109.547 25.0683 114.383 29.916 114.383 39.3086L114.383 86.7373C114.383 92.0157 112.856 95.8588 109.819 98.2123L105.168 93.5632C107.23 92.1941 108.338 89.7924 108.338 86.4038L108.338 39.6421C108.338 34.0039 105.271 31.0981 99.877 31.0981L42.6813 31.0981L24.667 13.09C25.4126 12.7563 26.3052 12.5835 27.3311 12.5835L42.5679 12.5835C46.1006 12.5835 48.0186 14.6328 48.0186 18.041ZM82.2432 51.7749L82.2432 60.2363L90.6743 60.2363C92.2222 60.2363 93.4854 61.4507 93.4854 63.0474C93.4854 64.5952 92.2222 65.8096 90.6743 65.8096L82.2432 65.8096L82.2432 70.6464L71.8295 60.2363L76.6548 60.2363L76.6548 51.7749C76.6548 50.227 77.918 48.9639 79.4658 48.9639C81.0288 48.9639 82.2432 50.227 82.2432 51.7749ZM48.2749 63.0474C48.2749 64.5952 47.0454 65.8096 45.4976 65.8096L24.3189 65.8096C22.771 65.8096 21.5078 64.5952 21.5078 63.0474C21.5078 61.4507 22.771 60.2363 24.3189 60.2363L45.4976 60.2363C47.0454 60.2363 48.2749 61.4507 48.2749 63.0474Z" fill="#000000" fill-opacity="0.85"/>
  <path d="M103.977 107.726C105.143 108.858 106.975 108.922 108.104 107.726C109.266 106.564 109.284 104.731 108.104 103.6L10.4399 5.95458C9.32325 4.83787 7.45703 4.77391 6.27978 5.95458C5.13281 7.06786 5.13281 8.94921 6.27978 10.0811Z" fill="#000000" fill-opacity="0.85"/>
 </g>
</svg>
