<?xml version="1.0" encoding="UTF-8"?>
<!--Generator: Apple Native CoreSVG 232.5-->
<!DOCTYPE svg
PUBLIC "-//W3C//DTD SVG 1.1//EN"
       "http://www.w3.org/Graphics/SVG/1.1/DTD/svg11.dtd">
<svg version="1.1" xmlns="http://www.w3.org/2000/svg" xmlns:xlink="http://www.w3.org/1999/xlink" width="135.285" height="74.1514">
 <g>
  <rect height="74.1514" opacity="0" width="135.285" x="0" y="0"/>
  <path d="M100.054 2.44824C122.994 5.36426 135.285 18.1211 135.285 39.7168C135.285 59.3516 123.154 70.4741 102.98 70.4741L28.4624 70.4741C20.7764 70.4741 14.2134 71.2368 7.34474 72.9624C3.12598 74.0049 0 72.2988 0 68.0732L0 43.7764C0 41.0615 1.95362 39.0439 4.71729 39.0439L18.2686 39.0439C22.7031 39.0439 24.8564 37.0288 24.3867 32.978L22.8159 17.8692C21.7046 6.7876 28.083 0 40.229 0C56.5298 0.0336915 84.5811 0.528809 100.054 2.44824ZM28.7935 17.1719L32.7905 52.294C33.7788 61.0723 37.7031 64.4443 47.2441 64.4443L103.082 64.4443C119.305 64.4443 129.24 55.4356 129.24 39.7168C129.24 21.5723 119.093 10.8804 99.582 8.51173C84.2476 6.68996 56.5449 6.04494 40.229 6.04494C31.8237 6.04494 28.0156 9.94728 28.7935 17.1719Z" fill="#000000" fill-opacity="0.85"/>
 </g>
</svg>
