<?xml version="1.0" encoding="UTF-8"?>
<!--Generator: Apple Native CoreSVG 232.5-->
<!DOCTYPE svg
PUBLIC "-//W3C//DTD SVG 1.1//EN"
       "http://www.w3.org/Graphics/SVG/1.1/DTD/svg11.dtd">
<svg version="1.1" xmlns="http://www.w3.org/2000/svg" xmlns:xlink="http://www.w3.org/1999/xlink" width="164.477" height="74.1514">
 <g>
  <rect height="74.1514" opacity="0" width="164.477" x="0" y="0"/>
  <path d="M111.424 2.44824C130.454 4.86367 142.131 14.0312 145.553 29.4014L139.28 29.4014C135.996 17.4893 126.422 10.3883 110.953 8.51173C95.6182 6.68996 67.9307 6.04494 51.5996 6.04494C43.228 6.04494 39.3862 9.94728 40.1978 17.1719L44.1611 52.294C45.1494 61.0723 49.0889 64.4443 58.6636 64.4443L114.452 64.4443C127.819 64.4443 136.917 58.3286 139.69 47.3706L145.944 47.3706C143.136 62.223 131.729 70.4741 114.366 70.4741L39.833 70.4741C32.1621 70.4741 25.584 71.2368 18.7153 72.9624C14.5454 74.0049 11.3706 72.2988 11.3706 68.0732L11.3706 43.7764C11.3706 41.0615 13.3393 39.0439 16.0879 39.0439L29.6392 39.0439C34.0889 39.0439 36.227 37.0288 35.8061 32.978L34.2202 17.8692C33.0752 6.7876 39.4687 0 51.5996 0C67.9341 0.0336915 95.9517 0.528809 111.424 2.44824Z" fill="#000000" fill-opacity="0.85"/>
  <path d="M161.129 27.7627L161.129 21.1357C161.129 19.2646 159.622 17.7388 157.75 17.7388C155.879 17.7388 154.372 19.2646 154.372 21.1357L154.372 27.7627C154.372 32.3608 151.416 35.0581 146.381 35.0581L121.982 35.0581L121.982 29.5996C121.982 26.915 120.017 25.9028 117.745 27.481L105.037 36.062C103.139 37.3486 103.139 39.6255 105.037 40.897L117.812 49.478C120.017 50.9888 121.982 50.044 121.982 47.3745L121.982 41.7139L146.381 41.7139C155.671 41.7139 161.129 36.5005 161.129 27.7627Z" fill="#000000" fill-opacity="0.85"/>
 </g>
</svg>
