<?xml version="1.0" encoding="UTF-8"?>
<!--Generator: Apple Native CoreSVG 232.5-->
<!DOCTYPE svg
PUBLIC "-//W3C//DTD SVG 1.1//EN"
       "http://www.w3.org/Graphics/SVG/1.1/DTD/svg11.dtd">
<svg version="1.1" xmlns="http://www.w3.org/2000/svg" xmlns:xlink="http://www.w3.org/1999/xlink" width="97.9595" height="97.9932">
 <g>
  <rect height="97.9932" opacity="0" width="97.9595" x="0" y="0"/>
  <path d="M48.9722 97.9443C75.8247 97.9443 97.9595 75.7759 97.9595 48.9722C97.9595 22.1348 75.791 0 48.9385 0C22.1348 0 0 22.1348 0 48.9722C0 75.7759 22.1685 97.9443 48.9722 97.9443ZM48.9722 91.6113C25.3501 91.6113 6.36671 72.5942 6.36671 48.9722C6.36671 25.3501 25.3164 6.31789 48.9385 6.31789C72.5605 6.31789 91.6265 25.3501 91.6265 48.9722C91.6265 72.5942 72.5942 91.6113 48.9722 91.6113Z" fill="#000000" fill-opacity="0.85"/>
  <path d="M32.8247 54.4346L66.7124 54.4346C68.0068 53.0659 69.0083 51.4937 69.8096 49.6992C70.2339 48.7764 70.1362 47.9546 69.6563 47.4409C69.2285 47.0317 68.523 46.9341 67.6372 47.2607C65.6455 48.0571 63.3052 48.4746 60.4263 48.4746C48.7993 48.4746 41.5816 41.3613 41.5816 29.8574C41.5816 26.938 42.0664 24.02 43.0025 22.2002C43.4639 21.2959 43.3662 20.5078 42.957 19.9336C42.4502 19.3745 41.5156 19.2734 40.4951 19.7617C32.9722 23.1895 27.8755 30.96 27.8755 40.2725C27.8755 45.8096 29.6768 50.7036 32.8247 54.4346ZM24.8916 60.7813L78.1504 60.7813C79.0513 60.7813 79.6929 60.1397 79.6929 59.2539C79.6929 58.3193 79.0513 57.6777 78.1504 57.6777L24.8916 57.6777C24.0059 57.6777 23.334 58.3682 23.334 59.2539C23.334 60.1397 24.0059 60.7813 24.8916 60.7813ZM19.7754 67.2739L73.0005 67.2739C73.9014 67.2739 74.5581 66.6323 74.5581 65.7466C74.5581 64.812 73.9014 64.1704 73.0005 64.1704L19.7754 64.1704C18.9048 64.1704 18.1841 64.8608 18.1841 65.7466C18.1841 66.6323 18.9048 67.2739 19.7754 67.2739ZM24.8916 73.7666L78.1504 73.7666C79.0513 73.7666 79.6929 73.125 79.6929 72.2393C79.6929 71.3047 79.0513 70.6631 78.1504 70.6631L24.8916 70.6631C24.0059 70.6631 23.334 71.3535 23.334 72.2393C23.334 73.125 24.0059 73.7666 24.8916 73.7666Z" fill="#000000" fill-opacity="0.85"/>
 </g>
</svg>
