<?xml version="1.0" encoding="UTF-8"?>
<!--Generator: Apple Native CoreSVG 232.5-->
<!DOCTYPE svg
PUBLIC "-//W3C//DTD SVG 1.1//EN"
       "http://www.w3.org/Graphics/SVG/1.1/DTD/svg11.dtd">
<svg version="1.1" xmlns="http://www.w3.org/2000/svg" xmlns:xlink="http://www.w3.org/1999/xlink" width="94.607" height="115.898">
 <g>
  <rect height="115.898" opacity="0" width="94.607" x="0" y="0"/>
  <path d="M70.7368 20.0405L59.3652 20.0405L59.3652 19.7813L70.8784 4.74561C71.7676 3.59034 72.1279 2.94532 72.1279 2.12696C72.1279 0.776368 71.1074 0 69.6895 0L54.8667 0C53.6104 0 52.7329 0.874025 52.7329 2.08496C52.7329 3.3296 53.6104 4.15479 54.8667 4.15479L65.6338 4.15479L65.6338 4.39893L54.0498 19.416C53.1606 20.5376 52.834 21.1489 52.834 22.0532C52.834 23.3179 53.7871 24.1616 55.2051 24.1616L70.7368 24.1616C71.978 24.1616 72.8706 23.355 72.8706 22.0767C72.8706 20.8657 71.978 20.0405 70.7368 20.0405ZM92.5742 38.2725L84.0049 38.2725L84.0049 38.0469L92.731 26.7212C93.5528 25.667 93.9131 25.0557 93.9131 24.2036C93.9131 22.9541 92.9112 22.2114 91.5943 22.2114L79.8281 22.2114C78.6729 22.2114 77.8291 23.0518 77.8291 24.1616C77.8291 25.4063 78.6729 26.2129 79.8281 26.2129L87.707 26.2129L87.707 26.4234L79.0786 37.6817C78.2569 38.7022 77.9151 39.3472 77.9151 40.2329C77.9151 41.4151 78.8496 42.2251 80.1665 42.2251L92.5742 42.2251C93.7969 42.2251 94.607 41.4673 94.607 40.2564C94.607 39.064 93.7969 38.2725 92.5742 38.2725ZM71.7525 54.3023L64.5972 54.3023L64.5972 54.0918L71.8755 44.6128C72.6333 43.5435 73.0239 42.9658 73.0239 42.1812C73.0239 40.9653 72.0557 40.2564 70.7725 40.2564L60.6074 40.2564C59.4858 40.2564 58.6607 41.0142 58.6607 42.1392C58.6607 43.3164 59.4858 44.0557 60.6074 44.0557L67.0723 44.0557L67.0723 44.2998L59.8916 53.7451C59.0884 54.7622 58.7617 55.3584 58.7617 56.1953C58.7617 57.3589 59.6626 58.1353 60.9121 58.1353L71.7525 58.1353C72.9077 58.1353 73.6841 57.3286 73.6841 56.2188C73.6841 55.1089 72.9077 54.3023 71.7525 54.3023Z" fill="#000000" fill-opacity="0.85"/>
  <path d="M43.8399 108.516C61.5176 108.516 75.7588 99.9253 82.2901 85.1533C83.0327 83.4507 82.8457 82.0025 82.0694 81.2109C81.3115 80.438 80.0435 80.2764 78.4824 80.8692C74.7144 82.3154 70.2676 83.2398 64.501 83.2398C42.2964 83.2398 28.1431 69.5225 28.1431 47.3184C28.1431 41.7886 29.145 36.0923 30.9009 32.4409C31.7412 30.794 31.6284 29.3272 30.874 28.4717C30.0523 27.5488 28.5737 27.2979 26.5513 28.1465C12.2725 34.5527 2.37843 49.4697 2.37843 67.2588C2.37843 90.478 18.9507 108.516 43.8399 108.516ZM43.9072 102.786C22.395 102.786 8.07473 87.086 8.07473 66.8696C8.07473 53.5694 14.9229 42.0298 24.8828 35.0054C23.4688 38.4097 22.6338 43.607 22.6338 48.7183C22.6338 73.0781 38.8115 88.7827 63.2813 88.7827C68.1299 88.7827 72.5879 88.0152 75.1533 87.0894C69.0498 96.7778 57.3286 102.786 43.9072 102.786Z" fill="#000000" fill-opacity="0.85"/>
 </g>
</svg>
