<?xml version="1.0" encoding="UTF-8"?>
<!--Generator: Apple Native CoreSVG 232.5-->
<!DOCTYPE svg
PUBLIC "-//W3C//DTD SVG 1.1//EN"
       "http://www.w3.org/Graphics/SVG/1.1/DTD/svg11.dtd">
<svg version="1.1" xmlns="http://www.w3.org/2000/svg" xmlns:xlink="http://www.w3.org/1999/xlink" width="106.618" height="104.513">
 <g>
  <rect height="104.513" opacity="0" width="106.618" x="0" y="0"/>
  <path d="M88.5908 55.3189C89.3218 55.3189 89.8203 54.8355 89.9028 54.0708C91.7109 40.9883 92.0581 40.9341 105.336 38.604C106.119 38.4878 106.618 38.0718 106.618 37.3257C106.618 36.5947 106.119 36.145 105.456 36.0288C92.1558 33.4292 91.7109 33.6597 89.9028 20.562C89.8203 19.7822 89.3218 19.2988 88.5908 19.2988C87.9087 19.2988 87.4102 19.7822 87.294 20.5283C85.4522 33.7153 85.2515 33.8521 71.7261 36.0288C71.0776 36.1113 70.5791 36.5947 70.5791 37.3257C70.5791 38.0381 71.0776 38.4878 71.7261 38.604C85.2515 41.2222 85.4185 41.0708 87.294 54.1231C87.4102 54.8355 87.9087 55.3189 88.5908 55.3189ZM65.2661 23.3369C65.7158 23.3369 65.9483 23.0859 66.0308 22.6397C67.4234 14.3794 67.5108 14.0327 76.1734 12.4819C76.6348 12.3994 76.9346 12.1333 76.9346 11.6685C76.9346 11.1885 76.6348 10.9224 76.1734 10.8398C67.541 9.10059 67.8945 8.75391 66.0308 0.68213C65.9483 0.235841 65.7158 0 65.2661 0C64.8164 0 64.5503 0.235841 64.4678 0.68213C62.6377 8.75391 63.0669 9.10059 54.3589 10.8398C53.8638 10.9224 53.5977 11.1885 53.5977 11.6685C53.5977 12.1333 53.8638 12.3994 54.3589 12.4819C63.0669 14.2363 63.0449 14.3794 64.4678 22.6397C64.5503 23.0859 64.8164 23.3369 65.2661 23.3369Z" fill="#000000" fill-opacity="0.85"/>
  <path d="M52.2354 99.2666C69.7261 99.2666 83.8999 90.7954 90.3638 76.106C91.0205 74.6089 90.9531 73.2769 90.2105 72.5039C89.5874 71.832 88.3867 71.7041 87.0127 72.2109C82.9902 73.7769 78.4761 74.6338 72.9116 74.6338C50.5049 74.6338 36.2319 60.7969 36.2319 38.3906C36.2319 33.1152 37.1665 27.2319 39.0234 23.3936C39.7627 21.8662 39.7173 20.5191 38.9815 19.731C38.2271 18.8755 36.8496 18.7593 35.0816 19.522C20.8027 25.8272 11.062 40.7778 11.062 58.3311C11.062 81.5166 27.6831 99.2666 52.2354 99.2666Z" fill="#000000" fill-opacity="0.85"/>
 </g>
</svg>
