<?xml version="1.0" encoding="UTF-8"?>
<!--Generator: Apple Native CoreSVG 232.5-->
<!DOCTYPE svg
PUBLIC "-//W3C//DTD SVG 1.1//EN"
       "http://www.w3.org/Graphics/SVG/1.1/DTD/svg11.dtd">
<svg version="1.1" xmlns="http://www.w3.org/2000/svg" xmlns:xlink="http://www.w3.org/1999/xlink" width="107.73" height="117.189">
 <g>
  <rect height="117.189" opacity="0" width="107.73" x="0" y="0"/>
  <path d="M22.498 67.3662L80.2754 67.3662C82.3677 65.1255 84.061 62.5195 85.374 59.5483C86.0981 57.9316 85.9819 56.5137 85.1533 55.6548C84.4292 54.8818 83.146 54.7353 81.6641 55.3096C78.2715 56.6094 74.3989 57.3047 69.4204 57.3047C49.7974 57.3047 37.5889 45.3018 37.5889 25.9097C37.5889 20.9663 38.5166 15.9688 39.9712 12.9014C40.729 11.4043 40.6465 9.95606 39.8433 8.99951C39.04 8.07666 37.479 7.88965 35.7344 8.68945C22.9038 14.4272 14.1431 27.7681 14.1431 43.5532C14.1431 52.8516 17.1362 61.1416 22.498 67.3662Z" fill="#000000" fill-opacity="0.85"/>
  <path d="M3.58887 77.2788L103.924 77.2788C105.334 77.2788 106.41 76.248 106.41 74.8535C106.41 73.459 105.334 72.4131 103.924 72.4131L3.58887 72.4131C2.21289 72.4131 1.08789 73.459 1.08789 74.8535C1.08789 76.248 2.21289 77.2788 3.58887 77.2788ZM8.52832 93.5078C9.82324 93.5078 10.8066 92.4907 10.8066 91.2295C10.8066 89.9346 9.82324 88.9175 8.52832 88.9175C7.2334 88.9175 6.25 89.9346 6.25 91.2295C6.25 92.4907 7.2334 93.5078 8.52832 93.5078ZM29.1338 93.5078C30.4287 93.5078 31.4458 92.4907 31.4458 91.2295C31.4458 89.9346 30.4287 88.9175 29.1338 88.9175C27.8726 88.9175 26.8555 89.9346 26.8555 91.2295C26.8555 92.4907 27.8726 93.5078 29.1338 93.5078ZM49.7881 93.5078C51.083 93.5078 52.0664 92.4907 52.0664 91.2295C52.0664 89.9346 51.083 88.9175 49.7881 88.9175C48.4932 88.9175 47.5098 89.9346 47.5098 91.2295C47.5098 92.4907 48.4932 93.5078 49.7881 93.5078ZM70.3936 93.5078C71.6885 93.5078 72.7056 92.4907 72.7056 91.2295C72.7056 89.9346 71.6885 88.9175 70.3936 88.9175C69.1323 88.9175 68.1152 89.9346 68.1152 91.2295C68.1152 92.4907 69.1323 93.5078 70.3936 93.5078ZM91.0479 93.5078C92.3428 93.5078 93.3262 92.4907 93.3262 91.2295C93.3262 89.9346 92.3428 88.9175 91.0479 88.9175C89.7529 88.9175 88.7695 89.9346 88.7695 91.2295C88.7695 92.4907 89.7529 93.5078 91.0479 93.5078ZM2.27832 105.339C3.57324 105.339 4.59034 104.356 4.59034 103.061C4.59034 101.766 3.57324 100.783 2.27832 100.783C1.01709 100.783 0 101.766 0 103.061C0 104.356 1.01709 105.339 2.27832 105.339ZM22.9326 105.339C24.1939 105.339 25.2109 104.356 25.2109 103.061C25.2109 101.766 24.1939 100.783 22.9326 100.783C21.6377 100.783 20.6055 101.766 20.6055 103.061C20.6055 104.356 21.6377 105.339 22.9326 105.339ZM43.5381 105.339C44.833 105.339 45.8501 104.356 45.8501 103.061C45.8501 101.766 44.833 100.783 43.5381 100.783C42.2769 100.783 41.2598 101.766 41.2598 103.061C41.2598 104.356 42.2769 105.339 43.5381 105.339ZM64.1924 105.339C65.4536 105.339 66.4707 104.356 66.4707 103.061C66.4707 101.766 65.4536 100.783 64.1924 100.783C62.8823 100.783 61.8652 101.766 61.8652 103.061C61.8652 104.356 62.8823 105.339 64.1924 105.339ZM84.7979 105.339C86.0928 105.339 87.1099 104.356 87.1099 103.061C87.1099 101.766 86.0928 100.783 84.7979 100.783C83.5366 100.783 82.5195 101.766 82.5195 103.061C82.5195 104.356 83.5366 105.339 84.7979 105.339ZM105.437 105.339C106.713 105.339 107.73 104.356 107.73 103.061C107.73 101.766 106.713 100.783 105.437 100.783C104.142 100.783 103.125 101.766 103.125 103.061C103.125 104.356 104.142 105.339 105.437 105.339ZM16.6826 117.189C17.9775 117.189 18.9609 116.172 18.9609 114.911C18.9609 113.616 17.9775 112.599 16.6826 112.599C15.3877 112.599 14.4043 113.616 14.4043 114.911C14.4043 116.172 15.3877 117.189 16.6826 117.189ZM37.3218 117.189C38.583 117.189 39.6001 116.172 39.6001 114.911C39.6001 113.616 38.583 112.599 37.3218 112.599C36.0269 112.599 35.0098 113.616 35.0098 114.911C35.0098 116.172 36.0269 117.189 37.3218 117.189ZM57.9424 117.189C59.2373 117.189 60.2207 116.172 60.2207 114.911C60.2207 113.616 59.2373 112.599 57.9424 112.599C56.6475 112.599 55.6641 113.616 55.6641 114.911C55.6641 116.172 56.6475 117.189 57.9424 117.189ZM78.5815 117.189C79.8428 117.189 80.8599 116.172 80.8599 114.911C80.8599 113.616 79.8428 112.599 78.5815 112.599C77.2866 112.599 76.2695 113.616 76.2695 114.911C76.2695 116.172 77.2866 117.189 78.5815 117.189ZM99.2022 117.189C100.497 117.189 101.48 116.172 101.48 114.911C101.48 113.616 100.497 112.599 99.2022 112.599C97.9072 112.599 96.9238 113.616 96.9238 114.911C96.9238 116.172 97.9072 117.189 99.2022 117.189Z" fill="#000000" fill-opacity="0.85"/>
 </g>
</svg>
