<?xml version="1.0" encoding="UTF-8"?>
<!--Generator: Apple Native CoreSVG 232.5-->
<!DOCTYPE svg
PUBLIC "-//W3C//DTD SVG 1.1//EN"
       "http://www.w3.org/Graphics/SVG/1.1/DTD/svg11.dtd">
<svg version="1.1" xmlns="http://www.w3.org/2000/svg" xmlns:xlink="http://www.w3.org/1999/xlink" width="94.1582" height="94.8955">
 <g>
  <rect height="94.8955" opacity="0" width="94.1582" x="0" y="0"/>
  <path d="M73.6904 64.6123C47.8345 64.6123 30.6372 47.6509 30.6372 21.7007C30.6372 15.5357 31.7588 8.72217 33.6226 4.39698C33.9712 3.53125 34.0689 2.95362 34.0689 2.52588C34.0689 1.26807 33.1226 0 31.5059 0C31.0444 0 30.1602 0.116211 29.3433 0.416017C11.8218 7.61231 0 26.5615 0 46.5513C0 74.2329 21.3452 94.6651 49.0049 94.6651C69.3535 94.6651 87.7783 82.2691 93.7725 66.5327C94.106 65.6821 94.1582 64.813 94.1582 64.4038C94.1582 62.8091 92.8867 61.6943 91.5801 61.6943C91.0967 61.6943 90.6807 61.8106 89.98 62.0278C86.2505 63.2334 79.9688 64.6123 73.6904 64.6123Z" fill="#000000" fill-opacity="0.85"/>
 </g>
</svg>
