<?xml version="1.0" encoding="UTF-8"?>
<!--Generator: Apple Native CoreSVG 232.5-->
<!DOCTYPE svg
PUBLIC "-//W3C//DTD SVG 1.1//EN"
       "http://www.w3.org/Graphics/SVG/1.1/DTD/svg11.dtd">
<svg version="1.1" xmlns="http://www.w3.org/2000/svg" xmlns:xlink="http://www.w3.org/1999/xlink" width="112.695" height="112.466">
 <g>
  <rect height="112.466" opacity="0" width="112.695" x="0" y="0"/>
  <path d="M46.1284 6.6377C46.9839 7.52686 46.999 9.04249 46.2564 10.5396C44.7529 13.6069 43.8589 18.6045 43.8589 23.5479C43.8589 42.9399 56.0674 54.9429 75.6719 54.9429C80.6353 54.9429 84.5229 54.2476 87.9004 52.9478C89.3975 52.3735 90.6807 52.52 91.4233 53.293C92.2183 54.1519 92.3682 55.5698 91.6592 57.1865C89.3509 62.4021 85.7903 66.7563 81.3388 70.0513L70.2204 70.0513C76.1677 67.7679 81.031 64.0138 84.2934 59.2959C81.7143 59.9927 78.1489 60.5161 74.6392 60.5161C52.6836 60.5161 38.3379 46.4097 38.3379 24.7456C38.3379 20.6143 38.9102 16.5386 39.9487 13.5283C31.7266 19.7344 26.1025 29.5327 26.1025 40.8359C26.1025 54.2878 33.2509 65.3751 44.9128 70.0513L33.944 70.0513C25.2938 63.5643 20.3794 53.1316 20.3794 41.1914C20.3794 25.4063 29.1401 12.0654 41.9707 6.32764C43.7153 5.52783 45.209 5.71485 46.1284 6.6377Z" fill="#000000" fill-opacity="0.85"/>
  <path d="M9.85889 74.917L110.194 74.917C111.57 74.917 112.695 73.8862 112.695 72.4917C112.695 71.0972 111.57 70.0513 110.194 70.0513L9.85889 70.0513C8.44922 70.0513 7.37305 71.0972 7.37305 72.4917C7.37305 73.8862 8.44922 74.917 9.85889 74.917ZM2.50098 93.7158L102.821 93.7158C104.212 93.7158 105.322 92.6362 105.322 91.2417C105.322 89.8472 104.212 88.8013 102.821 88.8013L2.50098 88.8013C1.10987 88.8013 0 89.8472 0 91.2417C0 92.6362 1.10987 93.7158 2.50098 93.7158ZM9.85889 112.466L110.194 112.466C111.57 112.466 112.695 111.42 112.695 110.025C112.695 108.597 111.57 107.566 110.194 107.566L9.85889 107.566C8.44922 107.566 7.37305 108.597 7.37305 110.025C7.37305 111.42 8.44922 112.466 9.85889 112.466Z" fill="#000000" fill-opacity="0.85"/>
 </g>
</svg>
