<?xml version="1.0" encoding="UTF-8"?>
<!--Generator: Apple Native CoreSVG 232.5-->
<!DOCTYPE svg
PUBLIC "-//W3C//DTD SVG 1.1//EN"
       "http://www.w3.org/Graphics/SVG/1.1/DTD/svg11.dtd">
<svg version="1.1" xmlns="http://www.w3.org/2000/svg" xmlns:xlink="http://www.w3.org/1999/xlink" width="97.9595" height="97.9932">
 <g>
  <rect height="97.9932" opacity="0" width="97.9595" x="0" y="0"/>
  <path d="M97.9595 49.021C97.9595 75.8584 75.8247 97.9932 48.9722 97.9932C22.1685 97.9932 0 75.8584 0 49.021C0 22.2173 22.1348 0.0488281 48.9385 0.0488281C75.791 0.0488281 97.9595 22.2173 97.9595 49.021ZM37.5107 25.4546C27.6089 29.1455 21.0811 40.0859 21.0811 51.2573C21.0811 66.7393 33.0337 78.2017 48.5122 78.2017C59.8706 78.2017 70.2871 71.2681 73.5469 62.4507C74.2896 60.6455 73.1968 59.3403 71.5244 59.9634C69.4922 60.7529 65.8506 61.4063 62.3252 61.4063C47.8706 61.4063 38.1914 51.8618 38.1914 37.3281C38.1914 33.8198 38.9761 30.1421 39.833 27.605C40.5269 25.9614 39.3447 24.7422 37.5107 25.4546ZM61.9287 20.9551C60.4019 29.6704 60.4419 30.2041 51.1914 31.689C50.6626 31.7378 50.3628 32.0713 50.3628 32.5361C50.3628 33.0835 50.6626 33.417 51.1914 33.4658C60.4419 35.2388 60.7603 35.4155 61.9287 44.1997C62.0112 44.6646 62.3447 45.0166 62.7944 45.0166C63.2593 45.0166 63.5776 44.6646 63.6753 44.1997C64.7984 35.3482 65.2412 34.8482 74.3452 33.4658C74.9077 33.417 75.2412 33.1172 75.2412 32.5361C75.2412 32.0713 74.9077 31.7378 74.4126 31.689C65.2901 29.8823 65.2359 29.5693 63.6753 20.9551C63.5776 20.4414 63.2593 20.1382 62.7944 20.1382C62.3447 20.1382 62.0112 20.4414 61.9287 20.9551Z" fill="#000000" fill-opacity="0.85"/>
 </g>
</svg>
