<?xml version="1.0" encoding="UTF-8"?>
<!--Generator: Apple Native CoreSVG 232.5-->
<!DOCTYPE svg
PUBLIC "-//W3C//DTD SVG 1.1//EN"
       "http://www.w3.org/Graphics/SVG/1.1/DTD/svg11.dtd">
<svg version="1.1" xmlns="http://www.w3.org/2000/svg" xmlns:xlink="http://www.w3.org/1999/xlink" width="97.9595" height="97.9932">
 <g>
  <rect height="97.9932" opacity="0" width="97.9595" x="0" y="0"/>
  <path d="M48.9722 97.9443C75.8247 97.9443 97.9595 75.7759 97.9595 48.9722C97.9595 22.1348 75.791 0 48.9385 0C22.1348 0 0 22.1348 0 48.9722C0 75.7759 22.1685 97.9443 48.9722 97.9443ZM48.9722 91.6113C25.3501 91.6113 6.36671 72.5942 6.36671 48.9722C6.36671 25.3501 25.3164 6.31789 48.9385 6.31789C72.5605 6.31789 91.6265 25.3501 91.6265 48.9722C91.6265 72.5942 72.5942 91.6113 48.9722 91.6113Z" fill="#000000" fill-opacity="0.85"/>
  <path d="M50.0449 77.3936C61.6914 77.3936 72.3438 70.273 75.6895 61.2349C75.9067 60.7852 75.9404 60.3018 75.9404 60.0728C75.9404 59.1685 75.2315 58.5303 74.4805 58.5303C74.2144 58.5303 73.9331 58.5488 73.5811 58.7139C71.5151 59.5034 67.8213 60.1904 64.1948 60.1904C49.3848 60.1904 39.5034 50.4439 39.5034 35.5698C39.5034 31.9942 40.2881 28.148 41.2124 25.6108C41.4297 25.1274 41.4448 24.7822 41.4448 24.5684C41.4448 23.8511 40.9229 23.127 40.0186 23.127C39.7222 23.127 39.2388 23.1758 38.7554 23.3931C28.6328 27.1851 21.9517 38.3799 21.9517 49.8057C21.9517 65.6431 34.2261 77.3936 50.0449 77.3936Z" fill="#000000" fill-opacity="0.85"/>
 </g>
</svg>
