<?xml version="1.0" encoding="UTF-8"?>
<!--Generator: Apple Native CoreSVG 232.5-->
<!DOCTYPE svg
PUBLIC "-//W3C//DTD SVG 1.1//EN"
       "http://www.w3.org/Graphics/SVG/1.1/DTD/svg11.dtd">
<svg version="1.1" xmlns="http://www.w3.org/2000/svg" xmlns:xlink="http://www.w3.org/1999/xlink" width="96.5923" height="97.3399">
 <g>
  <rect height="97.3399" opacity="0" width="96.5923" x="0" y="0"/>
  <path d="M76.0278 66.2632C48.4878 66.2632 31.4102 49.7192 31.4102 23.043C31.4102 15.6514 32.5703 9.29005 34.5132 5.27491C35.0791 4.08595 35.2105 3.49317 35.2105 2.74366C35.2105 1.41993 34.0449 0 32.4331 0C32.0576 0 31.251 0.131348 30.1563 0.562501C12.4531 7.61426 0 26.415 0 46.5747C0 75.7896 21.2456 97.084 50.4453 97.084C70.959 97.084 88.3467 85.9512 96.0449 68.2798C96.4946 67.2979 96.5923 66.4507 96.5923 65.9893C96.5923 64.3809 95.292 63.2861 93.9902 63.2861C93.3755 63.2861 92.8501 63.335 91.9507 63.6836C88.374 65.189 81.9175 66.2632 76.0278 66.2632ZM5.91017 46.354C5.91017 30.2149 14.7134 14.9444 28.3892 7.25783C26.7056 12.0562 25.7544 17.7061 25.7544 23.4995C25.7544 53.669 44.4185 71.8179 75.2983 71.8179C80.5396 71.8179 85.2871 71.1563 89.3853 69.7402C81.7363 83.0405 66.9302 91.2075 50.6475 91.2075C24.791 91.2075 5.91017 72.3115 5.91017 46.354Z" fill="#000000" fill-opacity="0.85"/>
 </g>
</svg>
