<?xml version="1.0" encoding="UTF-8"?>
<!--Generator: Apple Native CoreSVG 232.5-->
<!DOCTYPE svg
PUBLIC "-//W3C//DTD SVG 1.1//EN"
       "http://www.w3.org/Graphics/SVG/1.1/DTD/svg11.dtd">
<svg version="1.1" xmlns="http://www.w3.org/2000/svg" xmlns:xlink="http://www.w3.org/1999/xlink" width="97.9595" height="97.9932">
 <g>
  <rect height="97.9932" opacity="0" width="97.9595" x="0" y="0"/>
  <path d="M97.9595 49.021C97.9595 75.8584 75.8247 97.9932 48.9722 97.9932C22.1685 97.9932 0 75.8584 0 49.021C0 22.2173 22.1348 0.0488281 48.9385 0.0488281C75.791 0.0488281 97.9595 22.2173 97.9595 49.021ZM21.6245 67.4404C20.4321 67.4404 19.3711 68.4004 19.3711 69.6079C19.3711 70.8003 20.4658 71.6777 21.6245 71.6777L76.3198 71.6777C77.5425 71.6777 78.5884 70.8003 78.5884 69.6079C78.5884 68.3516 77.5762 67.4404 76.3198 67.4404ZM40.3267 28.7798C32.6504 32.2598 27.4526 40.1987 27.4526 49.6983C27.4526 55.3364 29.2876 60.2979 32.4692 64.0962L67.1016 64.0962C68.396 62.7275 69.4312 61.1064 70.2324 59.2598C70.6416 58.3706 70.5591 57.5151 70.064 56.9678C69.6025 56.5737 68.897 56.4609 67.9927 56.7876C65.9673 57.6177 63.5933 58.0352 60.647 58.0352C48.7993 58.0352 41.4619 50.8023 41.4619 39.0962C41.4619 36.1094 41.9653 33.1392 42.9014 31.252C43.3628 30.3477 43.2803 29.5444 42.856 28.9517C42.3491 28.3775 41.396 28.2915 40.3267 28.7798ZM58.8418 21.4961L58.8418 33.2158L58.9546 35.4243L58.1504 34.605L54.3994 30.8877C53.9868 30.5088 53.4243 30.231 52.8989 30.231C51.7622 30.231 50.9033 31.0376 50.9033 32.1592C50.9033 32.7031 51.0986 33.2134 51.688 33.7691L59.5356 41.3101C60.019 41.7261 60.4771 41.9248 61.0244 41.9248C61.5195 41.9248 61.9961 41.7261 62.4458 41.3101L70.3086 33.7691C70.9131 33.1983 71.0933 32.7031 71.0933 32.1592C71.0933 31.0376 70.2529 30.231 69.0977 30.231C68.6362 30.231 67.9575 30.4297 67.6274 30.8423L64.082 34.4854L63.042 35.5254L63.1548 33.2158L63.1548 21.4961C63.1548 20.27 62.2471 19.209 61.0244 19.209C59.7495 19.209 58.8418 20.27 58.8418 21.4961Z" fill="#000000" fill-opacity="0.85"/>
 </g>
</svg>
