<?xml version="1.0" encoding="UTF-8"?>
<!--Generator: Apple Native CoreSVG 232.5-->
<!DOCTYPE svg
PUBLIC "-//W3C//DTD SVG 1.1//EN"
       "http://www.w3.org/Graphics/SVG/1.1/DTD/svg11.dtd">
<svg version="1.1" xmlns="http://www.w3.org/2000/svg" xmlns:xlink="http://www.w3.org/1999/xlink" width="97.9595" height="97.9932">
 <g>
  <rect height="97.9932" opacity="0" width="97.9595" x="0" y="0"/>
  <path d="M48.9722 97.9443C75.8247 97.9443 97.9595 75.7759 97.9595 48.9722C97.9595 22.1348 75.791 0 48.9385 0C22.1348 0 0 22.1348 0 48.9722C0 75.7759 22.1685 97.9443 48.9722 97.9443ZM48.9722 91.6113C25.3501 91.6113 6.36671 72.5942 6.36671 48.9722C6.36671 25.3501 25.3164 6.31789 48.9385 6.31789C72.5605 6.31789 91.6265 25.3501 91.6265 48.9722C91.6265 72.5942 72.5942 91.6113 48.9722 91.6113Z" fill="#000000" fill-opacity="0.85"/>
  <path d="M48.5459 77.5615C59.6685 77.5615 69.8979 70.7627 73.0903 62.0801C73.8145 60.3608 72.7402 59.0557 71.1016 59.6787C69.1519 60.4683 65.5625 61.1367 62.0708 61.1367C47.9043 61.1367 38.4273 51.7456 38.4273 37.5C38.4273 34.0254 39.1631 30.3999 40.02 27.9453C40.6953 26.2866 39.5317 25.1499 37.7315 25.8472C28.0317 29.4185 21.6387 40.1719 21.6387 51.126C21.6387 66.2861 33.3555 77.5615 48.5459 77.5615ZM62.5064 44.9863C62.9561 44.9863 63.2559 44.6494 63.3535 44.1846C64.4429 35.5537 64.8858 35.0537 73.8027 33.7051C74.3652 33.6074 74.6987 33.3413 74.6987 32.8091C74.6987 32.3442 74.3652 32.0108 73.8701 31.9468C64.9346 30.2075 64.8804 29.9097 63.3535 21.4487C63.2559 20.9688 62.9561 20.6655 62.5064 20.6655C62.0566 20.6655 61.7568 20.9688 61.6743 21.4487C60.1323 29.9619 60.2061 30.4956 51.1577 31.9468C50.6289 32.0108 50.3291 32.3442 50.3291 32.8091C50.3291 33.3076 50.6289 33.6074 51.1577 33.7051C60.2061 35.4443 60.5059 35.6211 61.6743 44.1846C61.7568 44.6494 62.0566 44.9863 62.5064 44.9863Z" fill="#000000" fill-opacity="0.85"/>
 </g>
</svg>
