<?xml version="1.0" encoding="UTF-8"?>
<!--Generator: Apple Native CoreSVG 232.5-->
<!DOCTYPE svg
PUBLIC "-//W3C//DTD SVG 1.1//EN"
       "http://www.w3.org/Graphics/SVG/1.1/DTD/svg11.dtd">
<svg version="1.1" xmlns="http://www.w3.org/2000/svg" xmlns:xlink="http://www.w3.org/1999/xlink" width="125.146" height="99.3379">
 <g>
  <rect height="99.3379" opacity="0" width="125.146" x="0" y="0"/>
  <path d="M48.8042 24.0811C49.7085 24.9702 49.7085 26.565 48.917 28.148C47.2856 31.52 46.3091 37.0884 46.3091 42.419C46.3091 63.8213 59.7012 76.9741 81.3008 76.9741C86.7153 76.9741 91.0273 76.23 94.7768 74.8174C96.2925 74.2734 97.6396 74.3408 98.3823 75.1323C99.2446 76.0552 99.376 77.5068 98.603 79.2398C96.0963 84.9788 92.1766 89.7159 87.2635 93.2744L76.1107 93.2744C82.5016 90.6418 87.7042 86.4656 91.1631 81.2886C88.3095 82.1319 84.2104 82.7007 80.167 82.7007C56.2163 82.7007 40.6533 67.3921 40.6533 43.7852C40.6533 38.9702 41.2373 34.2481 42.5503 31.0425C33.2456 37.8194 26.8657 48.7827 26.8657 61.3604C26.8657 75.9015 34.4481 87.9804 46.9128 93.2744L35.7693 93.2744C26.3457 86.2027 20.9892 74.8254 20.9892 61.7495C20.9892 44.5518 30.4824 30.0576 44.4512 23.7676C46.3423 22.8701 47.8999 23.1094 48.8042 24.0811Z" fill="#000000" fill-opacity="0.85"/>
  <path d="M3.26417 99.2403L121.882 99.2403C123.647 99.2403 125.146 97.9063 125.146 96.2573C125.146 94.5933 123.647 93.2744 121.882 93.2744L3.26417 93.2744C1.49903 93.2744 0 94.5933 0 96.2573C0 97.9063 1.49903 99.2403 3.26417 99.2403Z" fill="#000000" fill-opacity="0.85"/>
  <path d="M87.7891 44.7417C89.4531 44.7417 90.8359 43.2578 90.8359 41.4404L90.8359 15.7378L90.3862 7.81984L94.6504 12.4849L101.541 19.5034C102.122 20.0659 102.853 20.3994 103.569 20.3994C105.083 20.3994 106.211 19.3047 106.211 17.7939C106.211 16.9502 105.9 16.3052 105.206 15.645L89.8506 0.981936C89.0977 0.28125 88.4863 0 87.7891 0C87.0732 0 86.4956 0.28125 85.709 0.981936L70.3535 15.645C69.6597 16.3052 69.3481 16.9502 69.3481 17.7939C69.3481 19.3047 70.4766 20.3994 71.9907 20.3994C72.7065 20.3994 73.4712 20.0659 74.0186 19.5034L81.231 12.1631L85.1733 7.81984L84.7236 15.7378L84.7236 41.4404C84.7236 43.2578 86.1401 44.7417 87.7891 44.7417Z" fill="#000000" fill-opacity="0.85"/>
 </g>
</svg>
