<?xml version="1.0" encoding="UTF-8"?>
<!--Generator: Apple Native CoreSVG 232.5-->
<!DOCTYPE svg
PUBLIC "-//W3C//DTD SVG 1.1//EN"
       "http://www.w3.org/Graphics/SVG/1.1/DTD/svg11.dtd">
<svg version="1.1" xmlns="http://www.w3.org/2000/svg" xmlns:xlink="http://www.w3.org/1999/xlink" width="97.9595" height="97.9932">
 <g>
  <rect height="97.9932" opacity="0" width="97.9595" x="0" y="0"/>
  <path d="M48.9722 97.9443C75.8247 97.9443 97.9595 75.7759 97.9595 48.9722C97.9595 22.1348 75.791 0 48.9385 0C22.1348 0 0 22.1348 0 48.9722C0 75.7759 22.1685 97.9443 48.9722 97.9443ZM48.9722 91.6113C25.3501 91.6113 6.36671 72.5942 6.36671 48.9722C6.36671 25.3501 25.3164 6.31789 48.9385 6.31789C72.5605 6.31789 91.6265 25.3501 91.6265 48.9722C91.6265 72.5942 72.5942 91.6113 48.9722 91.6113Z" fill="#000000" fill-opacity="0.85"/>
  <path d="M60.7363 19.669C59.5137 19.669 58.6211 20.6626 58.6211 21.8701L58.6211 33.4214L58.7188 35.5962L57.9297 34.7583L54.231 31.127C53.8184 30.7481 53.3047 30.4702 52.7642 30.4702C51.6763 30.4702 50.8359 31.2769 50.8359 32.3311C50.8359 32.875 51.0313 33.3853 51.5869 33.9224L59.3149 41.2798C59.7647 41.7109 60.2075 41.9434 60.7363 41.9434C61.2315 41.9434 61.708 41.7109 62.124 41.2798L69.8521 33.9224C70.438 33.3364 70.603 32.875 70.603 32.3311C70.603 31.2769 69.8115 30.4702 68.6748 30.4702C68.2134 30.4702 67.5684 30.669 67.2383 31.0479L63.7603 34.6235L62.7202 35.6973L62.833 33.4214L62.833 21.8701C62.833 20.6626 61.9253 19.669 60.7363 19.669ZM22.1148 71.1201L75.7773 71.1201C76.9663 71.1201 77.9785 70.209 77.9785 69.0352C77.9785 67.8462 77 66.9688 75.7773 66.9688L22.1148 66.9688C20.9409 66.9688 19.9136 67.8613 19.9136 69.0352C19.9136 70.209 20.9746 71.1201 22.1148 71.1201ZM32.791 63.7104L66.6787 63.7104C67.9732 62.3418 68.9746 60.7358 69.7759 58.9565C70.2002 58.0337 70.1177 57.2456 69.6226 56.6831C69.1948 56.3228 68.4893 56.1763 67.6035 56.5518C65.6118 57.2993 63.2715 57.7505 60.3926 57.7505C48.7656 57.7505 41.563 50.6523 41.563 39.1484C41.563 36.229 42.0327 33.2774 42.9688 31.4575C43.4302 30.5869 43.3477 29.75 42.9234 29.1909C42.4165 28.6167 41.4971 28.5156 40.4614 29.0527C32.9385 32.4317 27.8418 40.2359 27.8418 49.5483C27.8418 55.1006 29.6431 59.9795 32.791 63.7104Z" fill="#000000" fill-opacity="0.85"/>
 </g>
</svg>
