<?xml version="1.0" encoding="UTF-8"?>
<!--Generator: Apple Native CoreSVG 232.5-->
<!DOCTYPE svg
PUBLIC "-//W3C//DTD SVG 1.1//EN"
       "http://www.w3.org/Graphics/SVG/1.1/DTD/svg11.dtd">
<svg version="1.1" xmlns="http://www.w3.org/2000/svg" xmlns:xlink="http://www.w3.org/1999/xlink" width="97.9595" height="97.9932">
 <g>
  <rect height="97.9932" opacity="0" width="97.9595" x="0" y="0"/>
  <path d="M97.9595 49.021C97.9595 75.8584 75.8247 97.9932 48.9722 97.9932C22.1685 97.9932 0 75.8584 0 49.021C0 22.2173 22.1348 0.0488281 48.9385 0.0488281C75.791 0.0488281 97.9595 22.2173 97.9595 49.021ZM38.6021 22.8994C28.2437 26.7925 21.4277 38.1743 21.4277 49.8545C21.4277 66.0474 33.9717 78 50.1123 78C62.0132 78 72.8677 70.7446 76.2808 61.5532C76.4981 61.0698 76.5166 60.5527 76.5166 60.3237C76.5166 59.3857 75.8076 58.7661 75.023 58.7661C74.7568 58.7661 74.4907 58.7998 74.0898 58.916C72.0054 59.7056 68.229 60.4414 64.5503 60.4414C49.4185 60.4414 39.3838 50.4927 39.3838 35.3643C39.3838 31.6875 40.1685 27.7739 41.1113 25.1846C41.3286 24.7012 41.3438 24.356 41.3438 24.127C41.3438 23.3911 40.7881 22.6333 39.8838 22.6333C39.5874 22.6333 39.0855 22.7158 38.6021 22.8994Z" fill="#000000" fill-opacity="0.85"/>
 </g>
</svg>
