<?xml version="1.0" encoding="UTF-8"?>
<!--Generator: Apple Native CoreSVG 232.5-->
<!DOCTYPE svg
PUBLIC "-//W3C//DTD SVG 1.1//EN"
       "http://www.w3.org/Graphics/SVG/1.1/DTD/svg11.dtd">
<svg version="1.1" xmlns="http://www.w3.org/2000/svg" xmlns:xlink="http://www.w3.org/1999/xlink" width="94.4722" height="114.17">
 <g>
  <rect height="114.17" opacity="0" width="94.4722" x="0" y="0"/>
  <path d="M70.6021 20.0405L59.2305 20.0405L59.2305 19.7964L70.7437 4.74561C71.6328 3.59034 72.0083 2.94532 72.0083 2.14209C72.0083 0.791505 70.9727 0 69.5547 0L54.7319 0C53.4756 0 52.5981 0.874025 52.5981 2.08496C52.5981 3.3296 53.4756 4.16993 54.7319 4.16993L65.5142 4.16993L65.5142 4.41407L53.915 19.416C53.0259 20.5376 52.6992 21.1489 52.6992 22.0684C52.6992 23.3179 53.6675 24.1616 55.0703 24.1616L70.6021 24.1616C71.8584 24.1616 72.7359 23.355 72.7359 22.0918C72.7359 20.8809 71.8584 20.0405 70.6021 20.0405ZM92.4395 38.2725L83.8701 38.2725L83.8701 38.062L92.5962 26.7363C93.418 25.667 93.7783 25.0708 93.7783 24.2188C93.7783 22.9692 92.7915 22.2114 91.4746 22.2114L79.6934 22.2114C78.5381 22.2114 77.6944 23.0518 77.6944 24.1616C77.6944 25.4063 78.5381 26.2129 79.6934 26.2129L87.5723 26.2129L87.5723 26.4234L78.9439 37.6817C78.1221 38.7173 77.7954 39.3623 77.7954 40.2329C77.7954 41.4302 78.7149 42.2403 80.0318 42.2403L92.4395 42.2403C93.6621 42.2403 94.4722 41.4673 94.4722 40.2564C94.4722 39.0791 93.6621 38.2725 92.4395 38.2725ZM71.6177 54.3023L64.4624 54.3023L64.4624 54.0918L71.7407 44.6128C72.5137 43.5586 72.8892 42.981 72.8892 42.1963C72.8892 40.9805 71.9361 40.2564 70.6377 40.2564L60.4727 40.2564C59.3511 40.2564 58.541 41.0293 58.541 42.1392C58.541 43.3164 59.3511 44.0557 60.4727 44.0557L66.9526 44.0557L66.9526 44.2998L59.7568 53.7603C58.9688 54.7622 58.627 55.3584 58.627 56.2105C58.627 57.3589 59.5278 58.1353 60.7774 58.1353L71.6177 58.1353C72.773 58.1353 73.5645 57.3438 73.5645 56.2188C73.5645 55.1089 72.773 54.3023 71.6177 54.3023Z" fill="#000000" fill-opacity="0.85"/>
  <path d="M43.3833 108.531C60.8926 108.531 75.0479 100.06 81.5454 85.3555C82.2022 83.8735 82.1348 82.5264 81.377 81.7534C80.7354 81.0816 79.5684 80.9536 78.1607 81.4605C74.1568 83.0264 69.624 83.8833 64.0444 83.8833C41.6865 83.8833 27.3648 70.0464 27.3648 47.6553C27.3648 42.3799 28.2993 36.4815 30.1563 32.6431C30.9292 31.1157 30.8501 29.7837 30.1631 28.9805C29.3936 28.125 28.0161 28.0088 26.2144 28.7715C11.9356 35.0767 2.24366 50.0274 2.24366 67.5957C2.24366 90.7813 18.8159 108.531 43.3833 108.531Z" fill="#000000" fill-opacity="0.85"/>
 </g>
</svg>
