<?xml version="1.0" encoding="UTF-8"?>
<!--Generator: Apple Native CoreSVG 232.5-->
<!DOCTYPE svg
PUBLIC "-//W3C//DTD SVG 1.1//EN"
       "http://www.w3.org/Graphics/SVG/1.1/DTD/svg11.dtd">
<svg version="1.1" xmlns="http://www.w3.org/2000/svg" xmlns:xlink="http://www.w3.org/1999/xlink" width="97.9595" height="97.9932">
 <g>
  <rect height="97.9932" opacity="0" width="97.9595" x="0" y="0"/>
  <path d="M67.8144 49.0176C67.8144 67.9976 58.2744 83.6807 42.978 91.1216C22.2344 88.2734 6.29933 70.5171 6.33302 48.9722C6.36671 27.5249 22.0913 9.8628 42.6431 6.85304C58.1465 14.3345 67.8144 30.1304 67.8144 49.0176Z" fill="#000000" fill-opacity="0.2125"/>
  <path d="M97.9595 48.9722C97.9595 22.1348 75.8433 0 49.0059 0C22.2022 0 0 22.1348 0 48.9722C0 75.7759 22.1685 97.9443 48.9722 97.9443C75.8247 97.9443 97.9595 75.7759 97.9595 48.9722ZM67.8144 49.0176C67.8144 67.9976 58.2744 83.6807 42.978 91.1216C22.2344 88.2734 6.29933 70.5171 6.33302 48.9722C6.36671 27.5249 22.0913 9.8628 42.6431 6.85304C58.1465 14.3345 67.8144 30.1304 67.8144 49.0176Z" fill="#000000" fill-opacity="0.85"/>
 </g>
</svg>
