<?xml version="1.0" encoding="UTF-8"?>
<!--Generator: Apple Native CoreSVG 232.5-->
<!DOCTYPE svg
PUBLIC "-//W3C//DTD SVG 1.1//EN"
       "http://www.w3.org/Graphics/SVG/1.1/DTD/svg11.dtd">
<svg version="1.1" xmlns="http://www.w3.org/2000/svg" xmlns:xlink="http://www.w3.org/1999/xlink" width="88.4092" height="88.5371">
 <g>
  <rect height="88.5371" opacity="0" width="88.4092" x="0" y="0"/>
  <path d="M0 63.0361L0 56.9912L56.8633 56.9912L56.8633 0.127929L62.9082 0.127929L62.9082 25.6289L88.4092 25.6289L88.4092 31.6738L62.9082 31.6738L62.9082 56.9912L88.4092 56.9912L88.4092 63.0361L62.9082 63.0361L62.9082 88.5371L56.8633 88.5371L56.8633 63.0361L31.5459 63.0361L31.5459 88.5371L25.501 88.5371L25.501 63.0361ZM14.3936 88.5371L74.0005 88.5371C83.5733 88.5371 88.4092 83.6558 88.4092 74.2632L88.4092 14.4019C88.4092 5.00928 83.5733 0.127929 74.0005 0.127929L14.3936 0.127929C4.86963 0.127929 0 4.93018 0 14.4019L0 74.2632C0 83.7349 4.86963 88.5371 14.3936 88.5371Z" fill="#000000" fill-opacity="0.85"/>
 </g>
</svg>
