<?xml version="1.0" encoding="UTF-8"?>
<!--Generator: Apple Native CoreSVG 232.5-->
<!DOCTYPE svg
PUBLIC "-//W3C//DTD SVG 1.1//EN"
       "http://www.w3.org/Graphics/SVG/1.1/DTD/svg11.dtd">
<svg version="1.1" xmlns="http://www.w3.org/2000/svg" xmlns:xlink="http://www.w3.org/1999/xlink" width="179.638" height="96.2862">
 <g>
  <rect height="96.2862" opacity="0" width="179.638" x="0" y="0"/>
  <path d="M62.7124 59.0247L50.7092 74.8145C46.8158 79.9101 46.7412 86.1891 49.6772 90.6294L13.404 90.6294C5.73112 90.6294 3.549 83.189 8.01677 77.6182L26.1203 55.1206C29.881 55.7617 31.9806 59.6695 37.9948 59.6695C45.0314 59.6695 47.7189 53.98 52.3014 53.98C55.9039 53.98 58.3484 57.5483 62.7124 59.0247ZM59.4587 31.4478L71.8988 46.9403L65.586 55.2446C61.7669 54.4882 58.4912 49.6685 52.3014 49.6685C45.5427 49.6685 42.2575 55.3579 37.9948 55.3579C35.3293 55.3579 32.8791 52.5552 29.1452 51.3833L45.1442 31.4478C47.2409 28.8071 49.7956 27.502 52.3014 27.502C54.8039 27.502 57.3434 28.8071 59.4587 31.4478Z" fill="#000000" fill-opacity="0.85"/>
  <path d="M97.4177 44.1177C102.297 44.1177 105.994 37.5528 113.657 37.5528C121.272 37.5528 124.985 44.1177 129.848 44.1177C133.598 44.1177 136.755 40.0391 141.76 38.4414L120.894 11.0694C116.85 5.73927 110.434 5.67188 106.342 11.0694L85.4909 38.4414C90.5261 40.0425 93.717 44.1177 97.4177 44.1177ZM60.9733 90.6294L166.326 90.6294C173.817 90.6294 175.95 83.3726 172.055 78.2617L145.1 42.898C139.573 44.0708 136.945 48.9951 129.848 48.9951C121.877 48.9951 118.811 42.4302 113.657 42.4302C108.455 42.4302 105.389 48.9951 97.4177 48.9951C90.3215 48.9951 87.6926 44.0708 82.215 42.898L55.2106 78.2617C51.3156 83.3726 53.4489 90.6294 60.9733 90.6294Z" fill="#000000" fill-opacity="0.85"/>
 </g>
</svg>
