<?xml version="1.0" encoding="UTF-8"?>
<!--Generator: Apple Native CoreSVG 232.5-->
<!DOCTYPE svg
PUBLIC "-//W3C//DTD SVG 1.1//EN"
       "http://www.w3.org/Graphics/SVG/1.1/DTD/svg11.dtd">
<svg version="1.1" xmlns="http://www.w3.org/2000/svg" xmlns:xlink="http://www.w3.org/1999/xlink" width="168.247" height="84.9727">
 <g>
  <rect height="84.9727" opacity="0" width="168.247" x="0" y="0"/>
  <path d="M53.7221 25.791L69.8564 45.8469L64.2389 53.2337C63.2406 53.7139 62.1337 54.0127 60.8866 54.0127C53.85 54.0127 51.1473 48.3233 46.5648 48.3233C41.9823 48.3233 39.3285 54.0127 32.2767 54.0127C29.8802 54.0127 28.0145 52.9267 26.4274 51.5994L7.00136 75.7661C5.9037 77.1231 6.48622 78.9429 8.37342 78.9429L47.6593 78.9429C48.0639 82.238 50.6514 84.9727 55.2704 84.9727L7.70106 84.9727C-0.00549857 84.9727-2.15394 77.5322 2.29871 71.9614L39.4076 25.791C41.538 23.1841 44.0927 21.8452 46.5648 21.8452C49.0707 21.8452 51.6405 23.1841 53.7221 25.791ZM44.1185 29.5908L29.1549 48.2063C30.2153 49.0867 31.2321 49.7012 32.2767 49.7012C36.5546 49.7012 39.8397 44.0117 46.5648 44.0117C53.3236 44.0117 56.6088 49.7012 60.8866 49.7012C61.9324 49.7012 62.9504 49.0853 64.0121 48.2032L49.0448 29.5908C48.2518 28.6548 47.4403 28.1363 46.5648 28.1363C45.7382 28.1363 44.893 28.6548 44.1185 29.5908Z" fill="#000000" fill-opacity="0.85"/>
  <path d="M55.2704 84.9727L160.575 84.9727C168.099 84.9727 170.232 77.6821 166.337 72.5713L115.191 5.41261C111.147 0.0825197 104.731 0.0151366 100.605 5.41261L49.5077 72.605C45.6127 77.7158 47.746 84.9727 55.2704 84.9727ZM56.3368 78.9429C54.1366 78.9429 53.6029 77.1567 54.6518 75.7661L105.316 9.17873C106.786 7.25783 109.093 7.29152 110.461 9.14504L161.16 75.7324C162.227 77.1231 161.66 78.9429 159.474 78.9429ZM92.0365 43.2036C99.8392 43.2036 102.853 36.7735 107.921 36.7735C113.007 36.7735 116.021 43.2036 123.824 43.2036C128.744 43.2036 131.8 39.5596 134.674 36.9595L131.671 33.2627C128.846 35.7432 126.527 38.4609 123.824 38.4609C119.012 38.4609 115.4 32.0156 107.921 32.0156C100.46 32.0156 96.848 38.4609 92.0365 38.4609C89.2689 38.4609 86.9203 35.6489 84.0311 33.1685L80.9979 36.8013C83.9662 39.4653 87.0224 43.2036 92.0365 43.2036Z" fill="#000000" fill-opacity="0.85"/>
 </g>
</svg>
