<?xml version="1.0" encoding="UTF-8"?>
<!--Generator: Apple Native CoreSVG 232.5-->
<!DOCTYPE svg
PUBLIC "-//W3C//DTD SVG 1.1//EN"
       "http://www.w3.org/Graphics/SVG/1.1/DTD/svg11.dtd">
<svg version="1.1" xmlns="http://www.w3.org/2000/svg" xmlns:xlink="http://www.w3.org/1999/xlink" width="94.6719" height="113.681">
 <g>
  <rect height="113.681" opacity="0" width="94.6719" x="0" y="0"/>
  <path d="M6.53712 42.4874L88.1196 42.4874C94.1616 42.4874 95.0537 35.8458 91.1826 32.8336L53.1694 2.49573C48.875-0.83191 45.7515-0.83191 41.457 2.49573L3.47413 32.8336C-0.39697 35.8458 0.495118 42.4874 6.53712 42.4874ZM11.7764 36.8771C10.3018 36.8771 9.8389 35.192 11.024 34.2325L44.6904 7.20863C46.1958 6.0182 48.4307 6.0519 49.9023 7.20863L83.6328 34.2325C84.8178 35.192 84.3549 36.8771 82.8803 36.8771ZM3.16651 60.0348L91.5205 60.0348C93.2368 60.0348 94.6719 58.566 94.6719 56.816C94.6719 55.066 93.2368 53.5485 91.5205 53.5485L3.16651 53.5485C1.4502 53.5485 0 55.066 0 56.816C0 58.566 1.4502 60.0348 3.16651 60.0348ZM6.53712 71.1295C0.495118 71.1295-0.39697 77.7374 3.47413 80.7833L41.457 111.121C45.7515 114.464 48.875 114.464 53.1694 111.121L91.1826 80.7833C95.0537 77.7374 94.1616 71.1295 88.1196 71.1295ZM11.7764 76.7399L82.8803 76.7399C84.3549 76.7399 84.8178 78.3913 83.6328 79.3996L49.9023 106.423C48.4307 107.58 46.1958 107.614 44.6904 106.423L11.024 79.3996C9.8389 78.3913 10.3018 76.7399 11.7764 76.7399Z" fill="#000000" fill-opacity="0.85"/>
 </g>
</svg>
