<?xml version="1.0" encoding="UTF-8"?>
<!--Generator: Apple Native CoreSVG 232.5-->
<!DOCTYPE svg
PUBLIC "-//W3C//DTD SVG 1.1//EN"
       "http://www.w3.org/Graphics/SVG/1.1/DTD/svg11.dtd">
<svg version="1.1" xmlns="http://www.w3.org/2000/svg" xmlns:xlink="http://www.w3.org/1999/xlink" width="123.717" height="60.0293">
 <g>
  <rect height="60.0293" opacity="0" width="123.717" x="0" y="0"/>
  <path d="M3.12346 27.3037C21.2851 49.1963 38.5634 60.0293 61.8339 60.0293C85.1533 60.0293 102.432 49.1963 120.593 27.3037C126.177 20.5601 124.039 13.2769 116.059 12.3237C101.281 10.6367 96.3398 0.0219733 82.4614 0.0219733C71.0302 0.0219733 64.6718 8.50489 61.8339 8.50489C59.0297 8.50489 52.6865 0.0219733 41.2553 0.0219733C27.3769 0.0219733 22.4355 10.6367 7.65813 12.3237C-0.322348 13.2769-2.46004 20.5601 3.12346 27.3037ZM6.49505 23.5039C4.29827 21.0025 4.78655 18.0903 8.2675 17.5298L11.5849 16.9033C25.6381 14.3775 32.059 5.84621 41.6225 5.84621C46.391 5.84621 49.9101 8.03029 53.1279 10.2446C56.4413 12.5127 58.9296 14.3291 61.8339 14.3291C64.787 14.3291 67.2114 12.5127 70.5585 10.2446C73.8066 8.03029 77.2953 5.84621 82.0942 5.84621C91.6425 5.84621 98.0785 14.3775 112.117 16.9033L115.434 17.5298C118.93 18.0903 119.418 21.0025 117.222 23.5039C105.938 35.5435 88.4193 54.2051 61.8339 54.2051C35.2973 54.2051 17.7788 35.5435 6.49505 23.5039ZM61.8339 33.7056C68.6445 33.7056 70.289 28.3242 79.685 28.3696C90.2988 28.4639 104.301 32.7627 119.114 21.2944C121.493 19.4776 119.678 17.3423 117.747 18.4165C108.036 24.6553 96.6967 24.3003 86.7699 23.4448C84.2157 23.1484 81.7255 22.8823 79.3632 22.8823C72.2641 22.8823 68.5141 25.3711 65.6889 26.8882C63.9428 27.8716 63.039 28.2183 61.8339 28.2183C60.6777 28.2183 59.7099 27.8716 57.9638 26.8882C55.1723 25.356 51.4374 22.8823 44.3534 22.8823C42.0214 22.8823 39.6557 23.1821 37.2446 23.3809C27.2236 24.27 15.7597 24.667 5.97015 18.4165C4.0385 17.3423 2.22356 19.4776 4.60296 21.2944C19.416 32.729 33.4179 28.4639 44.0317 28.3696C53.4277 28.3242 55.0571 33.7056 61.8339 33.7056Z" fill="#000000" fill-opacity="0.85"/>
 </g>
</svg>
