<?xml version="1.0" encoding="UTF-8"?>
<!--Generator: Apple Native CoreSVG 232.5-->
<!DOCTYPE svg
PUBLIC "-//W3C//DTD SVG 1.1//EN"
       "http://www.w3.org/Graphics/SVG/1.1/DTD/svg11.dtd">
<svg version="1.1" xmlns="http://www.w3.org/2000/svg" xmlns:xlink="http://www.w3.org/1999/xlink" width="97.9595" height="97.9932">
 <g>
  <rect height="97.9932" opacity="0" width="97.9595" x="0" y="0"/>
  <path d="M48.9722 97.9443C75.8247 97.9443 97.9595 75.7759 97.9595 48.9722C97.9595 22.1348 75.791 0 48.9385 0C22.1348 0 0 22.1348 0 48.9722C0 75.7759 22.1685 97.9443 48.9722 97.9443ZM48.9722 91.6113C25.3501 91.6113 6.36671 72.5942 6.36671 48.9722C6.36671 25.3501 25.3164 6.31789 48.9385 6.31789C72.5605 6.31789 91.6265 25.3501 91.6265 48.9722C91.6265 72.5942 72.5942 91.6113 48.9722 91.6113Z" fill="#000000" fill-opacity="0.85"/>
  <path d="M18.2402 64.981C19.5488 64.981 20.3066 64.1372 20.3066 62.7949L20.3066 39.939L20.4717 39.939L25.3218 62.002C25.6333 63.4653 26.4399 64.4707 27.8731 64.4707C29.355 64.4707 30.1128 63.4653 30.4243 61.9868L35.2593 39.939L35.4546 39.939L35.4546 62.7949C35.4546 64.1035 36.2124 64.981 37.4722 64.981C38.7959 64.981 39.5723 64.1372 39.5723 62.7949L39.5723 36.249C39.5723 34.2129 38.188 32.9297 36.1367 32.9297C34.3296 32.9297 33.1777 33.7549 32.7837 35.7168L27.9673 58.332L27.8428 58.332L22.895 35.7168C22.4673 33.6841 21.354 32.9297 19.5606 32.9297C17.1792 32.9297 16.1401 34.5767 16.1401 36.249L16.1401 62.7949C16.1401 64.0884 16.9316 64.981 18.2402 64.981ZM46.5459 64.8833C47.8882 64.8833 48.833 64.0767 48.833 62.4985L48.833 53.6519L52.4981 53.6519C57.9839 53.6519 60.8193 48.8413 60.8193 43.5122C60.8193 38.0855 58.0664 33.3726 52.749 33.3726L46.5156 33.3726C45.2407 33.3726 44.2959 34.1607 44.2959 35.7725L44.2959 62.4985C44.2959 64.1777 45.3755 64.8833 46.5459 64.8833ZM48.833 49.9351L48.833 37.1231L51.5869 37.1231C54.9995 37.1231 56.3311 40.0845 56.3311 43.5122C56.3311 46.9248 54.9995 49.9351 51.5532 49.9351ZM66.7744 64.981C68.2666 64.981 69.0918 63.9536 69.0918 62.4648L69.0918 50.584L77.7314 50.584L77.7314 62.4648C77.7314 63.834 78.4893 64.981 80.0337 64.981C81.4922 64.981 82.3174 64.021 82.3174 62.4648L82.3174 35.3784C82.3174 33.8223 81.4585 32.9297 80.0337 32.9297C78.523 32.9297 77.7314 33.9233 77.7314 35.3784L77.7314 46.6987L69.0918 46.6987L69.0918 35.3784C69.0918 33.8897 68.2666 32.9297 66.7744 32.9297C65.3008 32.9297 64.4907 33.8897 64.4907 35.3784L64.4907 62.4648C64.4907 63.9536 65.3008 64.981 66.7744 64.981Z" fill="#000000" fill-opacity="0.85"/>
 </g>
</svg>
