<?xml version="1.0" encoding="UTF-8"?>
<!--Generator: Apple Native CoreSVG 232.5-->
<!DOCTYPE svg
PUBLIC "-//W3C//DTD SVG 1.1//EN"
       "http://www.w3.org/Graphics/SVG/1.1/DTD/svg11.dtd">
<svg version="1.1" xmlns="http://www.w3.org/2000/svg" xmlns:xlink="http://www.w3.org/1999/xlink" width="97.9595" height="97.9932">
 <g>
  <rect height="97.9932" opacity="0" width="97.9595" x="0" y="0"/>
  <path d="M48.9722 97.9443C75.8247 97.9443 97.9595 75.7759 97.9595 48.9722C97.9595 22.1348 75.791 0 48.9385 0C22.1348 0 0 22.1348 0 48.9722C0 75.7759 22.1685 97.9443 48.9722 97.9443ZM48.9722 91.6113C25.3501 91.6113 6.36671 72.5942 6.36671 48.9722C6.36671 25.3501 25.3164 6.31789 48.9385 6.31789C72.5605 6.31789 91.6265 25.3501 91.6265 48.9722C91.6265 72.5942 72.5942 91.6113 48.9722 91.6113Z" fill="#000000" fill-opacity="0.85"/>
  <path d="M31.9097 69.127C32.8359 69.127 33.5552 68.7935 34.1968 68.1333L48.9385 53.3428L63.7627 68.1333C64.4043 68.7598 65.1201 69.127 66.001 69.127C67.6953 69.127 69.0747 67.7778 69.0747 66.0649C69.0747 65.1841 68.7749 64.502 68.1299 63.8569L53.294 49.021L68.1636 34.1328C68.8423 33.4541 69.1084 32.8057 69.1084 31.9434C69.1084 30.2642 67.729 28.915 66.0347 28.915C65.2061 28.915 64.5576 29.2148 63.8638 29.9087L48.9385 44.7329L34.1294 29.9424C33.4878 29.2822 32.8359 28.9824 31.9097 28.9824C30.2305 28.9824 28.8511 30.2979 28.8511 31.9771C28.8511 32.8242 29.1846 33.5552 29.7959 34.1665L44.6167 49.021L29.7959 63.8906C29.1846 64.502 28.8511 65.2178 28.8511 66.0649C28.8511 67.7778 30.2305 69.127 31.9097 69.127Z" fill="#000000" fill-opacity="0.85"/>
 </g>
</svg>
