<?xml version="1.0" encoding="UTF-8"?>
<!--Generator: Apple Native CoreSVG 232.5-->
<!DOCTYPE svg
PUBLIC "-//W3C//DTD SVG 1.1//EN"
       "http://www.w3.org/Graphics/SVG/1.1/DTD/svg11.dtd">
<svg version="1.1" xmlns="http://www.w3.org/2000/svg" xmlns:xlink="http://www.w3.org/1999/xlink" width="112.617" height="107.739">
 <g>
  <rect height="107.739" opacity="0" width="112.617" x="0" y="0"/>
  <path d="M23.3721 100.695L89.1338 100.695C95.5982 100.695 99.2422 97.0882 99.2422 90.7064L99.2422 36.9178L93.2124 32.6819L93.2124 89.2191C93.2124 92.847 91.4277 94.6653 87.8672 94.6653L24.6387 94.6653C21.0445 94.6653 19.2598 92.847 19.2598 89.2191L19.2598 32.7459L13.23 36.9178L13.23 90.7064C13.23 97.1185 16.874 100.695 23.3721 100.695ZM0 46.4554C0 47.9881 1.19922 49.4232 3.2002 49.4232C4.24952 49.4232 5.0547 48.8875 5.83791 48.2542L54.4575 7.45052C55.6528 6.38314 57.0015 6.30746 58.3027 7.45052L106.847 48.2542C107.596 48.8875 108.401 49.4232 109.451 49.4232C111.216 49.4232 112.617 48.3099 112.617 46.5565C112.617 45.4095 112.235 44.66 111.376 43.9324L61.6358 2.08576C58.3706-0.68768 54.4536-0.702816 51.1245 2.08576L1.25977 43.9324C0.382325 44.66 0 45.5443 0 46.4554ZM88.833 27.0525L99.2422 35.845L99.2422 13.4227C99.2422 11.6375 98.0869 10.4974 96.332 10.4974L91.7432 10.4974C90.022 10.4974 88.833 11.6375 88.833 13.4227Z" fill="#000000" fill-opacity="0.85"/>
  <path d="M69.2901 49.6527C71.607 49.097 72.2451 48.575 72.2451 45.785L72.2451 36.6165C72.2451 34.8216 71.6558 34.0521 69.0947 34.6566L55.3716 38.0091C52.9907 38.5648 52.5142 39.0867 52.5142 41.9256L52.5142 64.43C52.5142 66.5667 52.3526 66.9422 49.8892 67.6107L45.397 68.8314C41.0562 69.9881 37.4629 72.5189 37.4629 77.1561C37.4629 81.2342 40.4668 84.1405 45.2656 84.1405C52.0698 84.1405 56.522 79.2928 56.522 72.3724L56.522 54.7933C56.522 52.9984 56.8823 52.6043 57.96 52.3602Z" fill="#000000" fill-opacity="0.85"/>
 </g>
</svg>
