<?xml version="1.0" encoding="UTF-8"?>
<!--Generator: Apple Native CoreSVG 232.5-->
<!DOCTYPE svg
PUBLIC "-//W3C//DTD SVG 1.1//EN"
       "http://www.w3.org/Graphics/SVG/1.1/DTD/svg11.dtd">
<svg version="1.1" xmlns="http://www.w3.org/2000/svg" xmlns:xlink="http://www.w3.org/1999/xlink" width="97.9595" height="97.9932">
 <g>
  <rect height="97.9932" opacity="0" width="97.9595" x="0" y="0"/>
  <path d="M48.9722 97.9443C75.8247 97.9443 97.9595 75.7759 97.9595 48.9722C97.9595 22.1348 75.791 0 48.9385 0C22.1348 0 0 22.1348 0 48.9722C0 75.7759 22.1685 97.9443 48.9722 97.9443ZM48.9722 91.6113C25.3501 91.6113 6.36671 72.5942 6.36671 48.9722C6.36671 25.3501 25.3164 6.31789 48.9385 6.31789C72.5605 6.31789 91.6265 25.3501 91.6265 48.9722C91.6265 72.5942 72.5942 91.6113 48.9722 91.6113Z" fill="#000000" fill-opacity="0.85"/>
  <path d="M49.9585 37.1436L25.793 63.1728C24.6514 64.397 24.6782 65.8535 25.8213 67.1499L22.4946 71.2612C22.1123 71.7783 22.146 72.4604 22.6445 72.9404L23.377 73.7031C23.8721 74.168 24.5054 74.2353 25.0713 73.8193L29.2466 70.4473C30.4487 71.5601 31.9204 71.6172 33.1109 70.5395L46.3892 58.2461L46.3892 72.9131C46.3892 74.3091 47.4585 75.4272 48.9033 75.4272C50.3145 75.4272 51.4175 74.2788 51.4175 72.9131L51.4175 53.5479L59.0308 46.5137C62.2617 46.9766 65.5801 45.5708 68.5347 42.5488L53.7349 27.7642C50.7466 30.771 49.4805 33.9009 49.9585 37.1436ZM28.626 65.3115L51.4356 41.0322C51.853 41.8115 52.3648 42.5117 53.023 43.2642C53.644 43.9795 54.3779 44.5703 55.0967 44.9878L31.0059 67.7402ZM71.2305 25.0381C66.6812 20.5039 60.7847 20.7295 55.9526 25.5464L70.7676 40.3462C75.5879 35.5142 75.7949 29.5723 71.2305 25.0381Z" fill="#000000" fill-opacity="0.85"/>
 </g>
</svg>
