<?xml version="1.0" encoding="UTF-8"?>
<!--Generator: Apple Native CoreSVG 232.5-->
<!DOCTYPE svg
PUBLIC "-//W3C//DTD SVG 1.1//EN"
       "http://www.w3.org/Graphics/SVG/1.1/DTD/svg11.dtd">
<svg version="1.1" xmlns="http://www.w3.org/2000/svg" xmlns:xlink="http://www.w3.org/1999/xlink" width="57.3906" height="98.3438">
 <g>
  <rect height="98.3438" opacity="0" width="57.3906" x="0" y="0"/>
  <path d="M57.3906 23.9028L57.3906 6.02783C57.3906 3.66699 55.5029 2.1582 53.2246 2.61621L29.1563 7.82764C26.4097 8.43555 24.9277 9.96289 24.9277 12.4097L25.1011 65.9194C25.2544 68.5239 23.9648 70.2832 21.6196 70.7681L13.8862 72.3794C4.46875 74.3394 0 79.0474 0 86.2085C0 93.3613 5.47412 98.3438 13.292 98.3438C20.3184 98.3438 30.6216 93.2822 30.6216 79.4668L30.6216 35.5156C30.6216 32.731 31.2461 31.9971 33.7983 31.4331L54.9927 26.7925C56.4863 26.481 57.3906 25.3779 57.3906 23.9028Z" fill="#000000" fill-opacity="0.85"/>
 </g>
</svg>
