<?xml version="1.0" encoding="UTF-8"?>
<!--Generator: Apple Native CoreSVG 232.5-->
<!DOCTYPE svg
PUBLIC "-//W3C//DTD SVG 1.1//EN"
       "http://www.w3.org/Graphics/SVG/1.1/DTD/svg11.dtd">
<svg version="1.1" xmlns="http://www.w3.org/2000/svg" xmlns:xlink="http://www.w3.org/1999/xlink" width="112.617" height="107.75">
 <g>
  <rect height="107.75" opacity="0" width="112.617" x="0" y="0"/>
  <path d="M59.3535 15.9606L98.7334 48.9826L98.7334 90.7877C98.7334 97.0148 95.0137 100.701 88.7193 100.701L24.041 100.701C17.7466 100.701 13.9932 97.0148 13.9932 90.7877L13.9932 48.9523L53.3277 15.9606C55.2705 14.341 57.377 14.2921 59.3535 15.9606ZM68.3687 38.8029L55.0195 42.0543C52.7212 42.61 52.2295 43.1134 52.2295 45.8512L52.2295 67.8468C52.2295 69.901 52.0493 70.3253 49.687 70.9601L45.2808 72.1134C41.041 73.2365 37.5674 75.7335 37.5674 80.2023C37.5674 84.1945 40.5191 87.0333 45.1831 87.0333C51.7852 87.0333 56.1177 82.2868 56.1177 75.6022L56.1177 58.3971C56.1177 56.6696 56.478 56.3092 57.522 56.0651L68.564 53.3913C70.7798 52.8542 71.4517 52.3659 71.4517 49.6432L71.4517 40.7443C71.4517 38.9831 70.8623 38.1984 68.3687 38.8029ZM61.6358 2.09143L88.3091 24.5318L88.3091 13.4283C88.3091 11.6432 89.4981 10.5031 91.2192 10.5031L95.8233 10.5031C97.5781 10.5031 98.7334 11.6432 98.7334 13.4283L98.7334 33.3019L111.376 43.9381C112.235 44.6657 112.617 45.4152 112.617 46.5621C112.617 48.3156 111.216 49.4289 109.451 49.4289C108.401 49.4289 107.596 48.8932 106.847 48.2599L58.3027 7.45619C57.0015 6.31313 55.6528 6.38881 54.4575 7.45619L5.83791 48.2599C5.0547 48.8932 4.24952 49.4289 3.2002 49.4289C1.19922 49.4289 0 47.9938 0 46.4611C0 45.5499 0.382325 44.6657 1.25977 43.9381L51.1245 2.09143C54.4536-0.697144 58.3858-0.697144 61.6358 2.09143Z" fill="#000000" fill-opacity="0.85"/>
 </g>
</svg>
