<?xml version="1.0" encoding="UTF-8"?>
<!--Generator: Apple Native CoreSVG 232.5-->
<!DOCTYPE svg
PUBLIC "-//W3C//DTD SVG 1.1//EN"
       "http://www.w3.org/Graphics/SVG/1.1/DTD/svg11.dtd">
<svg version="1.1" xmlns="http://www.w3.org/2000/svg" xmlns:xlink="http://www.w3.org/1999/xlink" width="97.5474" height="98.3438">
 <g>
  <rect height="98.3438" opacity="0" width="97.5474" x="0" y="0"/>
  <path d="M2.63917 59.6162L47.2603 59.6162C48.7373 59.6162 49.8994 58.4693 49.8994 57.0073C49.8994 55.5791 48.7036 54.417 47.2603 54.417L2.63917 54.417C1.16211 54.417 0 55.5791 0 57.0073C0 58.4693 1.12842 59.6162 2.63917 59.6162Z" fill="#000000" fill-opacity="0.85"/>
  <path d="M2.63917 42.6421L47.2603 42.6421C48.7373 42.6421 49.8994 41.4463 49.8994 39.9844C49.8994 38.5713 48.7036 37.4429 47.2603 37.4429L2.63917 37.4429C1.16211 37.4429 0 38.5713 0 39.9844C0 41.4463 1.12842 42.6421 2.63917 42.6421Z" fill="#000000" fill-opacity="0.85"/>
  <path d="M2.63917 25.6528L47.2603 25.6528C48.7036 25.6528 49.8994 24.4722 49.8994 23.0439C49.8994 21.6157 48.7036 20.4536 47.2603 20.4536L2.63917 20.4536C1.16211 20.4536 0 21.6157 0 23.0439C0 24.4722 1.16211 25.6528 2.63917 25.6528Z" fill="#000000" fill-opacity="0.85"/>
  <path d="M97.5474 23.9028L97.5474 6.02783C97.5474 3.66699 95.6445 2.1582 93.3662 2.61621L69.2979 7.82764C66.5664 8.43555 65.0693 9.96289 65.0693 12.4097L65.2427 65.9194C65.396 68.5239 64.1064 70.2832 61.7612 70.7681L54.0278 72.3794C44.6104 74.3394 40.1416 79.0474 40.1416 86.2085C40.1416 93.3613 45.6309 98.3438 53.4336 98.3438C60.46 98.3438 70.7632 93.2822 70.7632 79.4668L70.7632 35.5156C70.7632 32.731 71.3877 31.9971 73.9399 31.4331L95.1343 26.7925C96.6279 26.481 97.5474 25.3779 97.5474 23.9028Z" fill="#000000" fill-opacity="0.85"/>
 </g>
</svg>
