<?xml version="1.0" encoding="UTF-8"?>
<!--Generator: Apple Native CoreSVG 232.5-->
<!DOCTYPE svg
PUBLIC "-//W3C//DTD SVG 1.1//EN"
       "http://www.w3.org/Graphics/SVG/1.1/DTD/svg11.dtd">
<svg version="1.1" xmlns="http://www.w3.org/2000/svg" xmlns:xlink="http://www.w3.org/1999/xlink" width="118.922" height="94.1026">
 <g>
  <rect height="94.1026" opacity="0" width="118.922" x="0" y="0"/>
  <path d="M11.4136 79.1509L107.508 79.1509C114.67 79.1509 118.922 74.8652 118.922 67.7373L118.922 11.4287C118.922 4.28565 114.67 0 107.508 0L11.4136 0C4.28565 0 0 4.28565 0 11.4287L0 67.7373C0 74.8652 4.28565 79.1509 11.4136 79.1509ZM11.5752 73.1211C8.07863 73.1211 6.04494 71.1025 6.04494 67.6245L6.04494 11.5264C6.04494 8.06349 8.07863 6.04494 11.5752 6.04494L107.347 6.04494C110.843 6.04494 112.892 8.06349 112.892 11.5264L112.892 67.6245C112.892 71.1025 110.843 73.1211 107.347 73.1211ZM35.4302 94.0386L83.4917 94.0386C85.1709 94.0386 86.5537 92.7198 86.5537 91.0069C86.5537 89.3091 85.1709 87.9751 83.4917 87.9751L35.4302 87.9751C33.7661 87.9751 32.3682 89.3091 32.3682 91.0069C32.3682 92.7198 33.7661 94.0386 35.4302 94.0386Z" fill="#000000" fill-opacity="0.85"/>
  <path d="M73.3443 30.4785C75.5821 29.8892 76.2202 29.416 76.2202 26.7051L76.2202 17.7402C76.2202 15.9605 75.6309 15.1758 73.1489 15.7954L59.6748 19.1025C57.3731 19.6582 56.8965 20.1162 56.8965 22.8911L56.8965 44.9126C56.8965 46.9551 56.7012 47.3306 54.3506 47.9839L49.9492 49.1709C45.7026 50.2974 42.1733 52.7979 42.1733 57.3408C42.1733 61.3247 45.147 64.2007 49.8027 64.2007C56.4673 64.2007 60.8252 59.4136 60.8252 52.6665L60.8252 35.5098C60.8252 33.7788 61.2193 33.3359 62.2481 33.1069Z" fill="#000000" fill-opacity="0.85"/>
 </g>
</svg>
