<?xml version="1.0" encoding="UTF-8"?>
<!--Generator: Apple Native CoreSVG 232.5-->
<!DOCTYPE svg
PUBLIC "-//W3C//DTD SVG 1.1//EN"
       "http://www.w3.org/Graphics/SVG/1.1/DTD/svg11.dtd">
<svg version="1.1" xmlns="http://www.w3.org/2000/svg" xmlns:xlink="http://www.w3.org/1999/xlink" width="136.662" height="54.0918">
 <g>
  <rect height="54.0918" opacity="0" width="136.662" x="0" y="0"/>
  <path d="M36.9268 54.0918C50.2734 54.0918 61.5645 49.5982 68.3232 41.5806C75.082 49.5982 86.3731 54.0918 99.7349 54.0918C120.491 54.0918 136.662 41.5796 136.662 25.5986C136.662 19.6641 134.084 16.0469 129.475 16.0469C127.708 16.0469 126.053 16.8198 124.544 18.2329C122.766 19.9795 119.035 22.0415 115.198 22.0415C102.14 22.0415 99.3989 5.04443 80.042 5.04443C75.4741 5.04443 71.5156 6.35937 68.3232 8.85107C65.146 6.35937 61.1875 5.04443 56.6045 5.04443C37.2627 5.04443 34.5215 22.0415 21.4634 22.0415C17.6265 22.0415 13.8809 19.9795 12.1026 18.2329C10.6089 16.8198 8.95362 16.0469 7.18702 16.0469C2.57813 16.0469 0 19.6641 0 25.5986C0 41.5796 16.1709 54.0918 36.9268 54.0918ZM36.9268 48.0469C19.6758 48.0469 6.04494 38.1284 6.04494 25.459C6.04494 23.3047 7.84083 22.8892 9.24268 23.8047C12.0513 26.2246 16.7539 28.0864 21.4634 28.0864C29.6602 28.0864 35.0669 23.5132 39.9009 19.3628C44.8814 15.1636 49.3379 11.0742 56.6045 11.0742C61.2432 11.0742 64.9624 13.0039 67.0449 16.2671C67.6411 17.3198 68.9902 17.3535 69.5527 16.2671C71.6655 13.0039 75.4185 11.0742 80.042 11.0742C87.3086 11.0742 91.7803 15.1636 96.7607 19.3628C101.58 23.5132 107.001 28.0864 115.198 28.0864C119.908 28.0864 124.61 26.1909 127.505 23.6851C128.94 22.7207 130.617 23.1177 130.617 25.459C130.617 38.1284 116.986 48.0469 99.7349 48.0469C85.3691 48.0469 74.4233 42.4331 69.898 33.1909C69.2529 31.7778 67.4087 31.7441 66.7637 33.1909C62.272 42.4331 51.3262 48.0469 36.9268 48.0469Z" fill="#000000" fill-opacity="0.85"/>
 </g>
</svg>
