<?xml version="1.0" encoding="UTF-8"?>
<!--Generator: Apple Native CoreSVG 232.5-->
<!DOCTYPE svg
PUBLIC "-//W3C//DTD SVG 1.1//EN"
       "http://www.w3.org/Graphics/SVG/1.1/DTD/svg11.dtd">
<svg version="1.1" xmlns="http://www.w3.org/2000/svg" xmlns:xlink="http://www.w3.org/1999/xlink" width="88.4092" height="88.5371">
 <g>
  <rect height="88.5371" opacity="0" width="88.4092" x="0" y="0"/>
  <path d="M88.4092 14.4019L88.4092 74.2632C88.4092 83.6558 83.5733 88.5371 74.0005 88.5371L14.3936 88.5371C4.86963 88.5371 0 83.7349 0 74.2632L0 14.4019C0 4.93018 4.86963 0.127929 14.3936 0.127929L74.0005 0.127929C83.5733 0.127929 88.4092 5.00928 88.4092 14.4019ZM56.2534 24.1069L56.2534 56.8135L55.9722 56.8135L32.9585 23.0708C31.9009 21.5366 30.9746 20.9927 29.5566 20.9927C27.4751 20.9927 26.2861 22.335 26.2861 24.5596L26.2861 63.8018C26.2861 65.7168 27.3506 66.916 29.1797 66.916C31.0274 66.916 32.1406 65.7842 32.1406 63.8018L32.1406 31.4507L32.4219 31.4507L55.4356 64.853C56.5571 66.4512 57.4009 66.916 58.8189 66.916C60.8701 66.916 62.1416 65.6748 62.1416 63.4888L62.1416 24.1069C62.1416 22.1582 61.0435 20.9927 59.147 20.9927C57.3516 20.9927 56.2534 22.2256 56.2534 24.1069Z" fill="#000000" fill-opacity="0.85"/>
 </g>
</svg>
