<?xml version="1.0" encoding="UTF-8"?>
<!--Generator: Apple Native CoreSVG 232.5-->
<!DOCTYPE svg
PUBLIC "-//W3C//DTD SVG 1.1//EN"
       "http://www.w3.org/Graphics/SVG/1.1/DTD/svg11.dtd">
<svg version="1.1" xmlns="http://www.w3.org/2000/svg" xmlns:xlink="http://www.w3.org/1999/xlink" width="97.9595" height="97.9932">
 <g>
  <rect height="97.9932" opacity="0" width="97.9595" x="0" y="0"/>
  <path d="M97.9595 48.9722C97.9595 75.7759 75.8247 97.9443 48.9722 97.9443C22.1685 97.9443 0 75.7759 0 48.9722C0 22.1348 22.1348 0 48.9385 0C75.791 0 97.9595 22.1348 97.9595 48.9722ZM34.144 29.6157L34.144 47.7441L31.5576 47.7441C30.3872 47.7441 29.5098 48.6519 29.5098 49.8442C29.5098 50.9844 30.3535 51.8955 31.5576 51.8955L34.144 51.8955L34.144 70.2617C34.144 71.855 35.2539 72.9009 36.7344 72.9009C38.2149 72.9009 39.2759 71.855 39.2759 70.2617L39.2759 51.8955L47.335 51.8955L57.1289 70.6069C57.8413 72.0689 58.9395 72.9043 60.5698 72.9043C62.4849 72.9043 63.7632 71.6226 63.7632 69.6958L63.7632 51.9292L66.4019 51.9292C67.5874 51.9292 68.4649 50.9541 68.4649 49.8291C68.4649 48.6216 67.5874 47.7627 66.4019 47.7627L63.7632 47.7627L63.7632 29.0835C63.7632 27.4751 62.6685 26.4443 61.1729 26.4443C59.6773 26.4443 58.6314 27.4751 58.6314 29.0835L58.6314 47.7627L50.7119 47.7627L40.7632 28.7383C40.0659 27.2764 38.9526 26.4258 37.3374 26.4258C35.4224 26.4258 34.144 27.7227 34.144 29.6157ZM58.6314 63.4292L52.8237 51.9292L58.6314 51.9292ZM45.2383 47.7441L39.2759 47.7441L39.2759 35.9834Z" fill="#000000" fill-opacity="0.85"/>
 </g>
</svg>
