<?xml version="1.0" encoding="UTF-8"?>
<!--Generator: Apple Native CoreSVG 232.5-->
<!DOCTYPE svg
PUBLIC "-//W3C//DTD SVG 1.1//EN"
       "http://www.w3.org/Graphics/SVG/1.1/DTD/svg11.dtd">
<svg version="1.1" xmlns="http://www.w3.org/2000/svg" xmlns:xlink="http://www.w3.org/1999/xlink" width="107.333" height="97.9932">
 <g>
  <rect height="97.9932" opacity="0" width="107.333" x="0" y="0"/>
  <path d="M58.3575 97.9443C85.1612 97.9443 107.33 75.7759 107.33 48.9722C107.33 22.1348 85.1612 0 58.3575 0C31.5201 0 9.38533 22.1011 9.38533 48.9385L15.7032 48.9385C15.7032 25.3164 34.7354 6.35158 58.3575 6.35158C81.9796 6.35158 101.012 25.3501 101.012 48.9722C101.012 72.5942 81.9796 91.6787 58.3575 91.6113C43.5182 91.5928 30.6148 84.0068 22.9474 72.5923C21.8121 71.0444 20.047 70.561 18.4806 71.479C16.9967 72.397 16.5655 74.4165 17.8018 76.0655C26.943 89.0161 41.5392 97.9443 58.3575 97.9443ZM2.84969 40.0024C7.79875e-05 40.0024-0.788009 41.9561 0.828693 44.2666L11.4786 59.4307C12.8326 61.3438 14.7677 61.3101 16.1031 59.4307L26.753 44.2329C28.336 41.9561 27.5479 40.0024 24.7169 40.0024Z" fill="#000000" fill-opacity="0.85"/>
  <path d="M39.3179 49.8442C39.3179 50.9507 40.128 51.8281 41.3321 51.8281L43.8512 51.8281L43.8512 69.8389C43.8512 71.3799 44.8936 72.377 46.3404 72.377C47.8023 72.377 48.8634 71.3799 48.8634 69.8389L48.8634 51.8281L56.7877 51.8281L66.3609 70.1841C67.0582 71.5786 68.1041 72.3955 69.6856 72.3955C71.5821 72.3955 72.8268 71.166 72.8268 69.273L72.8268 51.8618L75.3644 51.8618C76.5499 51.8618 77.3937 50.9204 77.3937 49.8291C77.3937 48.6553 76.5499 47.8149 75.3644 47.8149L72.8268 47.8149L72.8268 29.4912C72.8268 27.9653 71.7657 26.9531 70.3038 26.9531C68.8419 26.9531 67.8145 27.9653 67.8145 29.4912L67.8145 47.8149L60.0299 47.8149L50.2833 29.1611C49.5709 27.7666 48.5401 26.9497 46.9434 26.9497C45.0621 26.9497 43.8512 28.1641 43.8512 30.0386L43.8512 47.8115L41.3321 47.8115C40.1617 47.8115 39.3179 48.6856 39.3179 49.8442ZM48.8634 47.8115L48.8634 36.2041L54.7247 47.8115ZM62.0743 51.8618L67.8145 51.8618L67.8145 63.1934Z" fill="#000000" fill-opacity="0.85"/>
 </g>
</svg>
