<?xml version="1.0" encoding="UTF-8"?>
<!--Generator: Apple Native CoreSVG 232.5-->
<!DOCTYPE svg
PUBLIC "-//W3C//DTD SVG 1.1//EN"
       "http://www.w3.org/Graphics/SVG/1.1/DTD/svg11.dtd">
<svg version="1.1" xmlns="http://www.w3.org/2000/svg" xmlns:xlink="http://www.w3.org/1999/xlink" width="108.159" height="104.094">
 <g>
  <rect height="104.094" opacity="0" width="108.159" x="0" y="0"/>
  <path d="M0 90.9219C0 99.3975 4.34961 104.094 13.1719 104.094L93.7656 104.094C103.338 104.094 108.159 99.2915 108.159 89.8535L108.159 14.3008C108.159 4.86279 103.338 0.0268549 93.7656 0.0268549L34.625 0.0268549C25.1011 0.0268549 20.2315 4.86279 20.2315 14.3008L20.2315 39.3779L8.83399 39.3779C3.28369 39.3779 0 42.4141 0 47.604ZM6.04494 90.8765L6.04494 48.6484C6.04494 46.5996 7.30079 45.4229 9.39503 45.4229L20.2315 45.4229L20.2315 90.8765C20.2315 95.126 17.2227 98.0488 13.1719 98.0488C9.07228 98.0488 6.04494 95.0249 6.04494 90.8765ZM24.2075 98.0488C25.5694 96.0552 26.2764 93.5532 26.2764 90.6001L26.2764 14.6343C26.2764 8.99611 29.2681 6.07179 34.7715 6.07179L93.6192 6.07179C99.1377 6.07179 102.129 8.99611 102.129 14.6343L102.129 89.52C102.129 95.1582 99.1377 98.0488 93.6192 98.0488ZM39.7285 27.9326L88.7446 27.9326C90.1358 27.9326 91.1968 26.8379 91.1968 25.4771C91.1968 24.1499 90.1358 23.1226 88.7446 23.1226L39.7285 23.1226C38.3189 23.1226 37.2578 24.1499 37.2578 25.4771C37.2578 26.8379 38.3189 27.9326 39.7285 27.9326ZM39.7285 45.4229L88.7446 45.4229C90.1358 45.4229 91.1968 44.3618 91.1968 43.0347C91.1968 41.6587 90.1358 40.6128 88.7446 40.6128L39.7285 40.6128C38.3189 40.6128 37.2578 41.6587 37.2578 43.0347C37.2578 44.3618 38.3189 45.4229 39.7285 45.4229ZM42.8364 80.6914L55.5586 80.6914C59.0576 80.6914 61.2432 78.5059 61.2432 75.022L61.2432 63.8247C61.2432 60.3071 59.0576 58.1216 55.5586 58.1216L42.8364 58.1216C39.3037 58.1216 37.1182 60.3071 37.1182 63.8247L37.1182 75.022C37.1182 78.5059 39.3037 80.6914 42.8364 80.6914ZM70.1836 62.9316L88.6958 62.9316C90.1055 62.9316 91.1328 61.9043 91.1328 60.5771C91.1328 59.1826 90.1055 58.1216 88.6958 58.1216L70.1836 58.1216C68.7739 58.1216 67.7315 59.1826 67.7315 60.5771C67.7315 61.9043 68.7739 62.9316 70.1836 62.9316ZM70.1836 80.6914L88.6958 80.6914C90.1055 80.6914 91.1328 79.6641 91.1328 78.3218C91.1328 76.9609 90.1055 75.8662 88.6958 75.8662L70.1836 75.8662C68.7739 75.8662 67.7315 76.9609 67.7315 78.3218C67.7315 79.6641 68.7739 80.6914 70.1836 80.6914Z" fill="#000000" fill-opacity="0.85"/>
 </g>
</svg>
