<?xml version="1.0" encoding="UTF-8"?>
<!--Generator: Apple Native CoreSVG 232.5-->
<!DOCTYPE svg
PUBLIC "-//W3C//DTD SVG 1.1//EN"
       "http://www.w3.org/Graphics/SVG/1.1/DTD/svg11.dtd">
<svg version="1.1" xmlns="http://www.w3.org/2000/svg" xmlns:xlink="http://www.w3.org/1999/xlink" width="97.9595" height="97.9932">
 <g>
  <rect height="97.9932" opacity="0" width="97.9595" x="0" y="0"/>
  <path d="M97.9595 49.021C97.9595 75.8584 75.8247 97.9932 48.9722 97.9932C22.1685 97.9932 0 75.8584 0 49.021C0 22.2173 22.1348 0.0488281 48.9385 0.0488281C75.791 0.0488281 97.9595 22.2173 97.9595 49.021ZM39.8184 24.021C35.2232 24.021 32.9214 26.3228 32.9214 30.8692L32.9214 69.6748C32.9214 72.0137 32.29 73.2866 30.4497 74.1304L67.749 74.1304C72.3291 74.1304 74.6646 71.8774 74.6646 67.2974L74.6646 30.8692C74.6646 26.3228 72.3291 24.021 67.749 24.021ZM27.3296 42.9707C24.77 42.9707 23.1787 44.4644 23.1787 46.9263L23.1787 68.3359C23.1787 70.1694 24.5356 71.1982 26.1807 71.1982C27.7617 71.1831 29.1221 70.1206 29.1221 68.3359L29.1221 42.9707ZM66.7544 61.7075C66.7544 62.5747 66.1953 63.1489 65.2944 63.1489L56.9717 63.1489C56.1045 63.1489 55.5151 62.5747 55.5151 61.7075C55.5151 60.9194 56.1045 60.2813 56.9717 60.2813L65.2944 60.2813C66.165 60.2813 66.7544 60.9194 66.7544 61.7075ZM52.1143 54.7217L52.1143 60.4565C52.1143 62.1235 51.0552 63.1489 49.3731 63.1489L43.3623 63.1489C41.7627 63.1489 40.7373 62.1235 40.7373 60.4565L40.7373 54.7217C40.7373 53.0547 41.7627 52.0293 43.3623 52.0293L49.3731 52.0293C51.0552 52.0293 52.1143 53.0547 52.1143 54.7217ZM66.7544 53.4707C66.7544 54.2554 66.165 54.8936 65.2944 54.8936L56.9717 54.8936C56.1045 54.8936 55.5151 54.2554 55.5151 53.4707C55.5151 52.6826 56.1045 52.0293 56.9717 52.0293L65.2944 52.0293C66.165 52.0293 66.7544 52.6826 66.7544 53.4707ZM66.7695 44.7393C66.7695 45.5425 66.165 46.1807 65.2944 46.1807L42.273 46.1807C41.4209 46.1807 40.8164 45.5425 40.8164 44.7393C40.8164 43.8872 41.4058 43.2979 42.273 43.2979L65.2944 43.2979C66.1953 43.2979 66.7695 43.8872 66.7695 44.7393ZM66.7695 36.2568C66.7695 37.0786 66.165 37.7319 65.2944 37.7319L42.273 37.7319C41.4209 37.7319 40.8164 37.0786 40.8164 36.2568C40.8164 35.4722 41.4058 34.8828 42.273 34.8828L65.2944 34.8828C66.1953 34.8828 66.7695 35.4722 66.7695 36.2568Z" fill="#000000" fill-opacity="0.85"/>
 </g>
</svg>
