<?xml version="1.0" encoding="UTF-8"?>
<!--Generator: Apple Native CoreSVG 232.5-->
<!DOCTYPE svg
PUBLIC "-//W3C//DTD SVG 1.1//EN"
       "http://www.w3.org/Graphics/SVG/1.1/DTD/svg11.dtd">
<svg version="1.1" xmlns="http://www.w3.org/2000/svg" xmlns:xlink="http://www.w3.org/1999/xlink" width="88.4092" height="88.5371">
 <g>
  <rect height="88.5371" opacity="0" width="88.4092" x="0" y="0"/>
  <path d="M14.3936 88.5371L74.0005 88.5371C83.5733 88.5371 88.4092 83.6558 88.4092 74.2632L88.4092 14.4019C88.4092 5.00928 83.5733 0.127929 74.0005 0.127929L14.3936 0.127929C4.86963 0.127929 0 4.93018 0 14.4019L0 74.2632C0 83.7349 4.86963 88.5371 14.3936 88.5371ZM14.5064 82.4922C9.00294 82.4922 6.04494 79.6016 6.04494 73.9634L6.04494 14.7017C6.04494 9.06349 9.00294 6.17287 14.5064 6.17287L73.9028 6.17287C79.2969 6.17287 82.3643 9.06349 82.3643 14.7017L82.3643 73.9634C82.3643 79.6016 79.2969 82.4922 73.9028 82.4922Z" fill="#000000" fill-opacity="0.85"/>
  <path d="M28.5415 64.4727C29.936 64.4727 31.0982 63.3442 31.0982 61.9497L31.0982 53.7661L33.9434 51.022L42.5981 63.1016C43.6255 64.646 45.271 64.7134 46.3018 63.9673C47.2466 63.2549 47.7114 61.8604 46.5864 60.252L37.6402 47.8086L46.4502 38.687C47.5752 37.5283 47.2788 36.2046 46.4839 35.4922C45.6065 34.6113 44.062 34.3604 42.8848 35.6724L31.2598 48.3247L31.0982 48.3247L31.0982 26.2373C31.0982 24.8428 29.936 23.6807 28.5415 23.6807C27.147 23.6807 26.0186 24.8428 26.0186 26.2373L26.0186 61.9497C26.0186 63.3442 27.147 64.4727 28.5415 64.4727ZM55.2969 64.5518C56.6392 64.5518 57.7002 63.457 57.7002 62.0996L57.7002 47.0396C57.7002 43.1572 59.1782 39.8003 63.0942 39.8003C64.0996 39.8003 65.2178 39.647 65.8779 39.2393C66.4907 38.9512 66.8965 38.3399 66.8965 37.5181C66.8965 36.6777 66.6187 36.0664 66.1118 35.6504C65.4771 35.125 64.6318 34.9229 63.7461 34.9229C60.6699 34.9229 58.4409 37.4116 57.749 40.6577L57.5503 40.6577L57.5503 37.1494C57.5503 35.856 56.523 34.8286 55.2295 34.8286C53.8721 34.8286 52.8447 35.856 52.8447 37.1494L52.8447 62.0996C52.8447 63.457 53.9058 64.5518 55.2969 64.5518Z" fill="#000000" fill-opacity="0.85"/>
 </g>
</svg>
