<?xml version="1.0" encoding="UTF-8"?>
<!--Generator: Apple Native CoreSVG 232.5-->
<!DOCTYPE svg
PUBLIC "-//W3C//DTD SVG 1.1//EN"
       "http://www.w3.org/Graphics/SVG/1.1/DTD/svg11.dtd">
<svg version="1.1" xmlns="http://www.w3.org/2000/svg" xmlns:xlink="http://www.w3.org/1999/xlink" width="88.4092" height="88.5371">
 <g>
  <rect height="88.5371" opacity="0" width="88.4092" x="0" y="0"/>
  <path d="M88.4092 14.4019L88.4092 74.2632C88.4092 83.6558 83.5733 88.5371 74.0005 88.5371L14.3936 88.5371C4.86963 88.5371 0 83.7349 0 74.2632L0 14.4019C0 4.93018 4.86963 0.127929 14.3936 0.127929L74.0005 0.127929C83.5733 0.127929 88.4092 5.00928 88.4092 14.4019ZM53.7334 22.604L51.4302 33.3306L41.5137 33.3306L43.5996 23.3198C43.9483 21.6777 42.771 20.2646 41.1138 20.2646C39.4868 20.2646 38.5049 21.0781 38.1748 22.604L35.9692 33.3306L30.208 33.3306C28.6484 33.3306 27.5015 34.4624 27.5015 36.0068C27.5015 37.3677 28.4648 38.3496 29.8408 38.3496L34.856 38.3496L32.6353 49.2056L26.689 49.2056C25.0957 49.2056 23.9824 50.3374 23.9824 51.8482C23.9824 53.2427 24.9458 54.1909 26.2881 54.1909L31.5439 54.1909L29.3384 64.7236C29.0083 66.3994 30.2192 67.7788 31.9102 67.7788C33.4546 67.7788 34.4028 66.9653 34.7329 65.4732L37.1187 54.2246L47.0352 54.2246L44.833 64.7236C44.4844 66.3994 45.6616 67.7788 47.3189 67.7788C48.9458 67.7788 49.9614 66.9653 50.2764 65.4732L52.6133 54.1909L58.2012 54.1909C59.7944 54.1909 60.9077 53.0591 60.9077 51.5483C60.9077 50.1875 59.9443 49.2056 58.6021 49.2056L53.708 49.2056L55.9927 38.3496L61.7202 38.3496C63.3135 38.3496 64.4268 37.2178 64.4268 35.6733C64.4268 34.3125 63.4634 33.3306 62.1211 33.3306L57.0386 33.3306L59.1616 23.3198C59.4766 21.644 58.2656 20.2646 56.5899 20.2646C55.0454 20.2646 54.0635 21.0781 53.7334 22.604ZM48.332 49.5796L37.8765 49.5796L40.2808 37.9941L50.7549 37.9941Z" fill="#000000" fill-opacity="0.85"/>
 </g>
</svg>
