<?xml version="1.0" encoding="UTF-8"?>
<!--Generator: Apple Native CoreSVG 232.5-->
<!DOCTYPE svg
PUBLIC "-//W3C//DTD SVG 1.1//EN"
       "http://www.w3.org/Graphics/SVG/1.1/DTD/svg11.dtd">
<svg version="1.1" xmlns="http://www.w3.org/2000/svg" xmlns:xlink="http://www.w3.org/1999/xlink" width="97.9595" height="97.9932">
 <g>
  <rect height="97.9932" opacity="0" width="97.9595" x="0" y="0"/>
  <path d="M48.9722 97.9443C75.8247 97.9443 97.9595 75.7759 97.9595 48.9722C97.9595 22.1348 75.791 0 48.9385 0C22.1348 0 0 22.1348 0 48.9722C0 75.7759 22.1685 97.9443 48.9722 97.9443ZM48.9722 91.6113C25.3501 91.6113 6.36671 72.5942 6.36671 48.9722C6.36671 25.3501 25.3164 6.31789 48.9385 6.31789C72.5605 6.31789 91.6265 25.3501 91.6265 48.9722C91.6265 72.5942 72.5942 91.6113 48.9722 91.6113Z" fill="#000000" fill-opacity="0.85"/>
  <path d="M48.9385 71.6304C61.1358 71.6304 69.4605 62.3023 69.4605 48.6992C69.4605 35.0625 61.1358 25.7344 48.9385 25.7344C36.7749 25.7344 28.4502 35.0625 28.4502 48.6992C28.4502 62.3023 36.7749 71.6304 48.9385 71.6304ZM48.9385 66.7192C40.2461 66.7192 34.458 59.5234 34.458 48.6992C34.458 37.8413 40.2461 30.6455 48.9385 30.6455C57.6157 30.6455 63.4189 37.8413 63.4189 48.6992C63.4189 59.5234 57.6157 66.7192 48.9385 66.7192Z" fill="#000000" fill-opacity="0.85"/>
 </g>
</svg>
