<?xml version="1.0" encoding="UTF-8"?>
<!--Generator: Apple Native CoreSVG 232.5-->
<!DOCTYPE svg
PUBLIC "-//W3C//DTD SVG 1.1//EN"
       "http://www.w3.org/Graphics/SVG/1.1/DTD/svg11.dtd">
<svg version="1.1" xmlns="http://www.w3.org/2000/svg" xmlns:xlink="http://www.w3.org/1999/xlink" width="97.9595" height="97.9932">
 <g>
  <rect height="97.9932" opacity="0" width="97.9595" x="0" y="0"/>
  <path d="M97.9595 48.9722C97.9595 75.7759 75.8247 97.9443 48.9722 97.9443C22.1685 97.9443 0 75.7759 0 48.9722C0 22.1348 22.1348 0 48.9385 0C75.791 0 97.9595 22.1348 97.9595 48.9722ZM28.0273 48.6992C28.0273 62.5903 36.5542 72.1055 48.9722 72.1055C61.4238 72.1055 69.9507 62.5903 69.9507 48.6992C69.9507 34.7744 61.4238 25.2593 48.9722 25.2593C36.5542 25.2593 28.0273 34.7744 28.0273 48.6992ZM63.707 48.6992C63.707 59.7256 57.8179 67.0747 48.9722 67.0747C40.1265 67.0747 34.2373 59.7256 34.2373 48.6992C34.2373 37.6543 40.1265 30.29 48.9722 30.29C57.8179 30.29 63.707 37.6543 63.707 48.6992Z" fill="#000000" fill-opacity="0.85"/>
 </g>
</svg>
