<?xml version="1.0" encoding="UTF-8"?>
<!--Generator: Apple Native CoreSVG 232.5-->
<!DOCTYPE svg
PUBLIC "-//W3C//DTD SVG 1.1//EN"
       "http://www.w3.org/Graphics/SVG/1.1/DTD/svg11.dtd">
<svg version="1.1" xmlns="http://www.w3.org/2000/svg" xmlns:xlink="http://www.w3.org/1999/xlink" width="88.4092" height="88.5371">
 <g>
  <rect height="88.5371" opacity="0" width="88.4092" x="0" y="0"/>
  <path d="M88.4092 14.4019L88.4092 74.2632C88.4092 83.6558 83.5733 88.5371 74.0005 88.5371L14.3936 88.5371C4.86963 88.5371 0 83.7349 0 74.2632L0 14.4019C0 4.93018 4.86963 0.127929 14.3936 0.127929L74.0005 0.127929C83.5733 0.127929 88.4092 5.00928 88.4092 14.4019ZM23.2842 43.9712C23.2842 57.8623 31.811 67.3775 44.2139 67.3775C56.6655 67.3775 65.1924 57.8623 65.1924 43.9712C65.1924 30.0464 56.6655 20.5312 44.2139 20.5312C31.811 20.5312 23.2842 30.0464 23.2842 43.9712ZM58.9487 43.9712C58.9487 54.9976 53.0747 62.3467 44.2139 62.3467C35.3682 62.3467 29.4942 54.9976 29.4942 43.9712C29.4942 32.9263 35.3682 25.562 44.2139 25.562C53.0747 25.562 58.9487 32.9263 58.9487 43.9712Z" fill="#000000" fill-opacity="0.85"/>
 </g>
</svg>
