<?xml version="1.0" encoding="UTF-8"?>
<!--Generator: Apple Native CoreSVG 232.5-->
<!DOCTYPE svg
PUBLIC "-//W3C//DTD SVG 1.1//EN"
       "http://www.w3.org/Graphics/SVG/1.1/DTD/svg11.dtd">
<svg version="1.1" xmlns="http://www.w3.org/2000/svg" xmlns:xlink="http://www.w3.org/1999/xlink" width="88.4092" height="88.5371">
 <g>
  <rect height="88.5371" opacity="0" width="88.4092" x="0" y="0"/>
  <path d="M14.3936 88.5371L74.0005 88.5371C83.5733 88.5371 88.4092 83.6558 88.4092 74.2632L88.4092 14.4019C88.4092 5.00928 83.5733 0.127929 74.0005 0.127929L14.3936 0.127929C4.86963 0.127929 0 4.93018 0 14.4019L0 74.2632C0 83.7349 4.86963 88.5371 14.3936 88.5371ZM14.5064 82.4922C9.00294 82.4922 6.04494 79.6016 6.04494 73.9634L6.04494 14.7017C6.04494 9.06349 9.00294 6.17287 14.5064 6.17287L73.9028 6.17287C79.2969 6.17287 82.3643 9.06349 82.3643 14.7017L82.3643 73.9634C82.3643 79.6016 79.2969 82.4922 73.9028 82.4922Z" fill="#000000" fill-opacity="0.85"/>
  <path d="M44.2139 66.9024C56.4111 66.9024 64.751 57.5742 64.751 43.9712C64.751 30.3345 56.4111 21.0063 44.2139 21.0063C32.0654 21.0063 23.7256 30.3345 23.7256 43.9712C23.7256 57.5742 32.0654 66.9024 44.2139 66.9024ZM44.2139 61.9912C35.5366 61.9912 29.7486 54.7954 29.7486 43.9712C29.7486 33.1133 35.5366 25.9175 44.2139 25.9175C52.9063 25.9175 58.6943 33.1133 58.6943 43.9712C58.6943 54.7954 52.9063 61.9912 44.2139 61.9912Z" fill="#000000" fill-opacity="0.85"/>
 </g>
</svg>
