<?xml version="1.0" encoding="UTF-8"?>
<!--Generator: Apple Native CoreSVG 232.5-->
<!DOCTYPE svg
PUBLIC "-//W3C//DTD SVG 1.1//EN"
       "http://www.w3.org/Graphics/SVG/1.1/DTD/svg11.dtd">
<svg version="1.1" xmlns="http://www.w3.org/2000/svg" xmlns:xlink="http://www.w3.org/1999/xlink" width="96.7236" height="93.709">
 <g>
  <rect height="93.709" opacity="0" width="96.7236" x="0" y="0"/>
  <path d="M34.4658 93.645L62.2578 93.645C69.3066 93.645 71.9941 91.3101 75.4439 87.6314L92.898 68.6025C95.939 65.2954 96.7236 63.1182 96.7236 58.3599L96.7236 35.334C96.7236 30.542 95.939 28.3833 92.898 25.0762L75.4439 6.0625C71.9941 2.36865 69.3066 0 62.2578 0L34.4658 0C27.417 0 24.6958 2.36865 21.2798 6.0625L3.82569 25.0762C0.784668 28.3833 0 30.542 0 35.334L0 58.3599C0 63.1182 0.784668 65.2954 3.82569 68.6025L21.2798 87.6314C24.6958 91.3101 27.417 93.645 34.4658 93.645ZM6.80812 46.8301L6.80812 35.9439C6.80812 32.2886 7.24758 30.9619 9.22756 28.7832L25.8325 10.8057C29.0479 7.32765 30.4942 5.99953 36.2095 5.99953L60.5142 5.99953C66.2295 5.99953 67.6421 7.32765 70.8911 10.8057L87.4624 28.7832C89.4761 30.9619 89.9155 32.2886 89.9155 35.9439L89.9155 46.8301Z" fill="#000000" fill-opacity="0.85"/>
 </g>
</svg>
