<?xml version="1.0" encoding="UTF-8"?>
<!--Generator: Apple Native CoreSVG 232.5-->
<!DOCTYPE svg
PUBLIC "-//W3C//DTD SVG 1.1//EN"
       "http://www.w3.org/Graphics/SVG/1.1/DTD/svg11.dtd">
<svg version="1.1" xmlns="http://www.w3.org/2000/svg" xmlns:xlink="http://www.w3.org/1999/xlink" width="170.402" height="74.3682">
 <g>
  <rect height="74.3682" opacity="0" width="170.402" x="0" y="0"/>
  <path d="M2.34424 26.0239L26.3184 64.8218C28.8125 68.7725 32.5288 70.5957 38.4287 70.5957L80.7979 70.5957C87.9776 70.5957 92.5659 68.7671 96.0899 64.3037L128.679 22.4829L149.334 17.2451L155.815 22.7041C158.957 25.3989 163.016 21.3921 159.826 18.5659L153.225 12.8472C151.813 11.6313 150.579 11.1699 147.923 11.8638L88.2461 27.144L79.9658 19.1382C77.8594 17.1143 75.6367 16.4712 72.6582 16.4712L38.4287 16.4712C36.7705 16.4712 35.2891 16.6294 33.9961 17.0098L14.0757 9.94531C3.6958 6.24706-4.0752 15.8413 2.34424 26.0239ZM30.127 56.5405L30.127 30.5415C30.127 24.9756 33.0279 22.0259 38.5601 22.0259L71.5059 22.0259C73.7485 22.0259 75.2319 22.312 76.8872 23.9151L84.6035 31.4024C85.9741 32.7915 87.3516 33.1553 89.3892 32.5962L119.826 24.836L92.9707 59.2373C89.7095 63.4077 86.0659 65.041 80.8281 65.041L38.5601 65.041C33.0279 65.041 30.127 62.1064 30.127 56.5405ZM6.24806 22.02C3.47365 17.3755 6.91114 13.3599 11.6773 14.9678L27.542 20.6494C25.606 22.8872 24.5874 26.0947 24.5874 30.2417L24.5874 51.8037ZM38.7759 2.77735C38.7759 4.30665 40.0425 5.53956 41.5567 5.53956L69.9903 5.53956C71.5044 5.53956 72.8013 4.30665 72.8013 2.77735C72.8013 1.27832 71.5044 0 69.9903 0L41.5567 0C40.0425 0 38.7759 1.27832 38.7759 2.77735ZM53.0171 20.042L58.5264 20.042L58.5264 2.32081L53.0171 2.32081ZM158.221 74.3194C164.918 74.3194 170.402 68.9434 170.402 62.1968C170.402 58.3916 168.577 54.8726 166.691 51.4243L159.283 37.7544C159.084 37.3267 158.645 37.0825 158.221 37.0825C157.744 37.0825 157.436 37.3267 157.222 37.8032L149.716 51.4243C147.879 54.8726 146.039 58.3916 146.039 62.1968C146.039 68.9434 151.504 74.3194 158.221 74.3194Z" fill="#000000" fill-opacity="0.85"/>
 </g>
</svg>
