<?xml version="1.0" encoding="UTF-8"?>
<!--Generator: Apple Native CoreSVG 232.5-->
<!DOCTYPE svg
PUBLIC "-//W3C//DTD SVG 1.1//EN"
       "http://www.w3.org/Graphics/SVG/1.1/DTD/svg11.dtd">
<svg version="1.1" xmlns="http://www.w3.org/2000/svg" xmlns:xlink="http://www.w3.org/1999/xlink" width="100.01" height="89.6533">
 <g>
  <rect height="89.6533" opacity="0" width="100.01" x="0" y="0"/>
  <path d="M27.353 0L3.4546 0C1.51758 0 0 1.4502 0 3.33497C0 5.2046 1.51758 6.68849 3.4546 6.68849L25.9985 6.68849C27.8472 6.68849 29.3286 7.65138 30.0762 9.30812L63.6011 84.2681C65.1807 87.8398 67.9624 89.6533 72.0762 89.6533L96.5552 89.6533C98.4585 89.6533 100.01 88.1694 100.01 86.3183C100.01 84.4824 98.4585 82.9648 96.5552 82.9648L73.5317 82.9648C71.5181 82.9648 70.146 82.1416 69.3647 80.5151L35.9561 5.61914C34.4473 2.17383 31.189 0 27.353 0ZM96.5552 0L62.6777 0C60.7256 0 59.2231 1.41651 59.2231 3.30128C59.2231 5.17091 60.7256 6.62111 62.6777 6.62111L96.5552 6.62111C98.4922 6.62111 99.9761 5.17091 99.9761 3.30128C99.9761 1.41651 98.4922 0 96.5552 0Z" fill="#000000" fill-opacity="0.85"/>
 </g>
</svg>
