<?xml version="1.0" encoding="UTF-8"?>
<!--Generator: Apple Native CoreSVG 232.5-->
<!DOCTYPE svg
PUBLIC "-//W3C//DTD SVG 1.1//EN"
       "http://www.w3.org/Graphics/SVG/1.1/DTD/svg11.dtd">
<svg version="1.1" xmlns="http://www.w3.org/2000/svg" xmlns:xlink="http://www.w3.org/1999/xlink" width="88.4092" height="88.5371">
 <g>
  <rect height="88.5371" opacity="0" width="88.4092" x="0" y="0"/>
  <path d="M14.3936 88.5371L74.0005 88.5371C83.5733 88.5371 88.4092 83.6558 88.4092 74.2632L88.4092 14.4019C88.4092 5.00928 83.5733 0.127929 74.0005 0.127929L14.3936 0.127929C4.86963 0.127929 0 4.93018 0 14.4019L0 74.2632C0 83.7349 4.86963 88.5371 14.3936 88.5371ZM14.5064 82.4922C9.00294 82.4922 6.04494 79.6016 6.04494 73.9634L6.04494 14.7017C6.04494 9.06349 9.00294 6.17287 14.5064 6.17287L73.9028 6.17287C79.2969 6.17287 82.3643 9.06349 82.3643 14.7017L82.3643 73.9634C82.3643 79.6016 79.2969 82.4922 73.9028 82.4922Z" fill="#000000" fill-opacity="0.85"/>
  <path d="M33.7158 66.4409C35.6983 66.4409 36.7627 65.1255 36.7627 63.0908L36.7627 50.6113L47.2749 50.6113C56.1489 50.6113 62.209 44.8208 62.209 36.3208C62.209 27.8511 56.0664 21.9629 47.3086 21.9629L33.6704 21.9629C31.7368 21.9629 30.7212 23.312 30.7212 25.3281L30.7212 63.0908C30.7212 65.0581 31.8159 66.4409 33.7158 66.4409ZM36.7627 45.835L36.7627 26.7544L46.6094 26.7544C52.3828 26.7544 56.2197 30.5542 56.2197 36.3208C56.2197 42.02 52.4014 45.835 46.6094 45.835Z" fill="#000000" fill-opacity="0.85"/>
 </g>
</svg>
