<?xml version="1.0" encoding="UTF-8"?>
<!--Generator: Apple Native CoreSVG 232.5-->
<!DOCTYPE svg
PUBLIC "-//W3C//DTD SVG 1.1//EN"
       "http://www.w3.org/Graphics/SVG/1.1/DTD/svg11.dtd">
<svg version="1.1" xmlns="http://www.w3.org/2000/svg" xmlns:xlink="http://www.w3.org/1999/xlink" width="112.488" height="85.625">
 <g>
  <rect height="85.625" opacity="0" width="112.488" x="0" y="0"/>
  <path d="M112.488 35.3076L112.488 50.2534C112.488 75.332 103.315 85.5274 75.979 85.5274L36.4937 85.5274C9.15723 85.5274 0 75.332 0 50.2534L0 35.3076C0 10.229 9.15723 0 36.4937 0L75.979 0C103.315 0 112.488 10.229 112.488 35.3076ZM68.9546 23.752L62.9526 28.5635C62.2066 29.126 61.6895 29.8755 61.6895 30.9063C61.6895 32.166 62.5518 33.1074 63.8081 33.1074C64.438 33.1074 64.8692 32.9087 65.2666 32.5786L70.4316 28.3985L70.4316 60.4902C70.4316 62.1172 71.7925 63.4443 73.4346 63.4443C75.0127 63.4443 76.3399 62.1172 76.3399 60.4902L76.3399 25.3184C76.3399 23.3208 75.0313 22.0796 73 22.0796C71.2905 22.0796 69.9297 23.0093 68.9546 23.752ZM36.9263 22.5713C35.2773 22.5713 34.021 23.624 34.021 25.6753L34.021 60.3892C34.021 62.2822 35.0518 63.4107 36.96 63.4107C38.9321 63.4107 39.9141 62.188 39.9141 60.3892L39.9141 48.8101L45.687 48.8101C53.0234 48.8101 57.2515 43.208 57.2515 35.7168C57.2515 28.293 53.0454 22.5713 45.9902 22.5713ZM51.4258 35.7168C51.4258 40.5269 49.3013 44.0894 44.5249 44.0894L39.9141 44.0894L39.9141 27.4419L44.5586 27.4419C49.1665 27.4419 51.4258 30.7383 51.4258 35.7168Z" fill="#000000" fill-opacity="0.85"/>
 </g>
</svg>
