<?xml version="1.0" encoding="UTF-8"?>
<!--Generator: Apple Native CoreSVG 232.5-->
<!DOCTYPE svg
PUBLIC "-//W3C//DTD SVG 1.1//EN"
       "http://www.w3.org/Graphics/SVG/1.1/DTD/svg11.dtd">
<svg version="1.1" xmlns="http://www.w3.org/2000/svg" xmlns:xlink="http://www.w3.org/1999/xlink" width="112.488" height="85.625">
 <g>
  <rect height="85.625" opacity="0" width="112.488" x="0" y="0"/>
  <path d="M36.4937 85.5274L75.979 85.5274C103.315 85.5274 112.488 75.332 112.488 50.2534L112.488 35.3076C112.488 10.229 103.315 0 75.979 0L36.4937 0C9.15723 0 0 10.229 0 35.3076L0 50.2534C0 75.332 9.15723 85.5274 36.4937 85.5274ZM36.4937 79.4976C13.1895 79.4976 6.04494 71.603 6.04494 50.2534L6.04494 35.3076C6.04494 13.9732 13.1895 6.04494 36.4937 6.04494L75.979 6.04494C99.2832 6.04494 106.443 13.9732 106.443 35.3076L106.443 50.2534C106.443 71.603 99.2832 79.4976 75.979 79.4976Z" fill="#000000" fill-opacity="0.85"/>
  <path d="M34.7578 62.9878C36.6626 62.9878 37.5772 61.7988 37.5772 60.0674L37.5772 48.6568L43.2827 48.6568C50.4658 48.6568 54.6416 43.1743 54.6416 35.8364C54.6416 28.5962 50.4878 22.979 43.6011 22.979L34.7241 22.979C33.1274 22.979 31.9199 24.0132 31.9199 25.9971L31.9199 60.0674C31.9199 61.8931 32.917 62.9878 34.7578 62.9878ZM37.5772 44.0557L37.5772 27.6963L42.188 27.6963C46.7437 27.6963 48.9692 30.9741 48.9692 35.8364C48.9692 40.5454 46.8784 44.0557 42.1694 44.0557ZM62.3872 62.5147L79.2549 62.5147C80.6309 62.5147 81.5386 61.5884 81.5386 60.2124C81.5386 58.7354 80.5972 57.8613 79.2549 57.8613L66.7593 57.8613L66.7593 57.5464L74.751 46.9238C79.2251 41.1416 80.7305 37.5435 80.7305 33.3374C80.7305 26.9575 76.7075 22.1118 70.1812 22.1118C64.1582 22.1118 59.8003 27.3179 59.8003 32.4414C59.8003 33.8242 60.6323 34.9273 62.1699 34.9273C63.4785 34.9273 64.2886 34.2857 64.6255 33.0073C65.4624 29.2515 66.9404 26.7466 70.1777 26.7466C73.7012 26.7466 75.4336 29.9854 75.4336 33.6035C75.4336 37.4038 73.2324 41.0864 70.4478 44.8003L61.104 57.1387C60.3731 58.0986 59.7515 59.062 59.7515 60.2275C59.7515 61.6001 60.6255 62.5147 62.3872 62.5147Z" fill="#000000" fill-opacity="0.85"/>
 </g>
</svg>
