<?xml version="1.0" encoding="UTF-8"?>
<!--Generator: Apple Native CoreSVG 232.5-->
<!DOCTYPE svg
PUBLIC "-//W3C//DTD SVG 1.1//EN"
       "http://www.w3.org/Graphics/SVG/1.1/DTD/svg11.dtd">
<svg version="1.1" xmlns="http://www.w3.org/2000/svg" xmlns:xlink="http://www.w3.org/1999/xlink" width="112.488" height="85.625">
 <g>
  <rect height="85.625" opacity="0" width="112.488" x="0" y="0"/>
  <path d="M36.4937 85.5274L75.979 85.5274C103.315 85.5274 112.488 75.332 112.488 50.2534L112.488 35.3076C112.488 10.229 103.315 0 75.979 0L36.4937 0C9.15723 0 0 10.229 0 35.3076L0 50.2534C0 75.332 9.15723 85.5274 36.4937 85.5274ZM36.4937 79.4976C13.1895 79.4976 6.04494 71.603 6.04494 50.2534L6.04494 35.3076C6.04494 13.9732 13.1895 6.04494 36.4937 6.04494L75.979 6.04494C99.2832 6.04494 106.443 13.9732 106.443 35.3076L106.443 50.2534C106.443 71.603 99.2832 79.4976 75.979 79.4976Z" fill="#000000" fill-opacity="0.85"/>
  <path d="M34.5576 62.9878C36.4287 62.9878 37.377 61.7988 37.377 60.0674L37.377 48.6568L43.0825 48.6568C50.2319 48.6568 54.4414 43.1743 54.4414 35.8364C54.4414 28.5962 50.2876 22.979 43.3672 22.979L34.5239 22.979C32.9272 22.979 31.686 24.0132 31.686 25.9971L31.686 60.0674C31.686 61.8931 32.7168 62.9878 34.5576 62.9878ZM37.377 44.0557L37.377 27.6963L41.9878 27.6963C46.5435 27.6963 48.769 30.9741 48.769 35.8364C48.769 40.5454 46.6782 44.0557 41.9541 44.0557ZM76.1133 63.0889C77.5903 63.0889 78.7676 62.0869 78.7676 60.2881L78.7676 54.1943L81.0552 54.1943C82.5811 54.1943 83.3389 53.2158 83.3389 51.8433C83.3389 50.5532 82.5694 49.5747 81.0552 49.5747L78.7676 49.5747L78.7676 26.6861C78.7676 23.8467 76.9185 22.4116 74.4863 22.4116C71.7007 22.4116 70.4072 23.8818 69.2671 26.334L59.3496 47.1108C58.6709 48.6367 58.4082 49.6943 58.4082 50.9204C58.4082 52.8555 59.7319 54.1943 61.7461 54.1943L73.395 54.1943L73.395 60.2881C73.395 62.3008 74.7778 63.0889 76.1133 63.0889ZM73.4961 49.6758L63.3091 49.6758L63.3091 49.4097L73.3008 27.6861L73.4961 27.6861Z" fill="#000000" fill-opacity="0.85"/>
 </g>
</svg>
