<?xml version="1.0" encoding="UTF-8"?>
<!--Generator: Apple Native CoreSVG 232.5-->
<!DOCTYPE svg
PUBLIC "-//W3C//DTD SVG 1.1//EN"
       "http://www.w3.org/Graphics/SVG/1.1/DTD/svg11.dtd">
<svg version="1.1" xmlns="http://www.w3.org/2000/svg" xmlns:xlink="http://www.w3.org/1999/xlink" width="112.488" height="85.625">
 <g>
  <rect height="85.625" opacity="0" width="112.488" x="0" y="0"/>
  <path d="M112.488 35.3076L112.488 50.2534C112.488 75.332 103.315 85.5274 75.979 85.5274L36.4937 85.5274C9.15723 85.5274 0 75.332 0 50.2534L0 35.3076C0 10.229 9.15723 0 36.4937 0L75.979 0C103.315 0 112.488 10.229 112.488 35.3076ZM69.4692 26.0122L59.3833 47.1631C58.7046 48.7378 58.4419 49.814 58.4419 51.0889C58.4419 53.0762 59.7993 54.4487 61.8809 54.4487L73.7168 54.4487L73.7168 60.6099C73.7168 62.69 75.167 63.5117 76.5361 63.5117C78.0469 63.5117 79.2578 62.4761 79.2578 60.6099L79.2578 54.4487L81.564 54.4487C83.1387 54.4487 83.9151 53.4365 83.9151 52.0303C83.9151 50.7217 83.127 49.7095 81.564 49.7095L79.2578 49.7095L79.2578 26.398C79.2578 23.4575 77.375 22.0039 74.8418 22.0039C71.9888 22.0039 70.6279 23.4927 69.4692 26.0122ZM34.0337 22.5713C32.3848 22.5713 31.0947 23.624 31.0947 25.6753L31.0947 60.3892C31.0947 62.2822 32.1743 63.4107 34.0674 63.4107C35.9722 63.4107 36.9692 62.188 36.9692 60.3892L36.9692 48.8101L42.7607 48.8101C50.0635 48.8101 54.374 43.208 54.374 35.7168C54.374 28.293 50.1191 22.5713 43.0791 22.5713ZM73.8179 49.8106L63.4624 49.8106L63.4624 49.5444L73.6226 27.398L73.8179 27.398ZM48.5332 35.7168C48.5332 40.5269 46.4087 44.0557 41.5986 44.0557L36.9692 44.0557L36.9692 27.4082L41.6323 27.4082C46.2891 27.4082 48.5332 30.7383 48.5332 35.7168Z" fill="#000000" fill-opacity="0.85"/>
 </g>
</svg>
