<?xml version="1.0" encoding="UTF-8"?>
<!--Generator: Apple Native CoreSVG 232.5-->
<!DOCTYPE svg
PUBLIC "-//W3C//DTD SVG 1.1//EN"
       "http://www.w3.org/Graphics/SVG/1.1/DTD/svg11.dtd">
<svg version="1.1" xmlns="http://www.w3.org/2000/svg" xmlns:xlink="http://www.w3.org/1999/xlink" width="70.2159" height="126.514">
 <g>
  <rect height="126.514" opacity="0" width="70.2159" x="0" y="0"/>
  <path d="M70.2159 73.534C70.2159 53.6874 62.5562 26.1913 42.6846 5.34311C38.2969 0.80551 32.5513-1.55924 25.6558 1.1434L20.9497 2.96859C13.0049 6.11752 10.6475 11.7635 13.9429 19.3714C21.582 36.6971 23.5015 49.3133 23.5015 60.1415C23.5015 64.5394 21.4219 67.0282 17.1465 67.0282L5.14991 67.0282C2.08838 67.0282 0 69.1839 0 72.3802L0 84.9769C0 87.9188 1.86768 89.9735 4.64112 89.9735L13.6172 89.9735C16.3032 89.9735 17.9131 91.4335 17.9131 93.7523C17.9131 95.8773 16.541 99.0438 16.541 102.765C16.541 110.276 20.3584 115.433 28.8833 119.587L38.3277 124.154C46.2988 128.04 53.7989 125.957 58.2779 118.666C66.6748 104.857 70.2159 91.1546 70.2159 73.534Z" fill="#000000" fill-opacity="0.85"/>
 </g>
</svg>
