<?xml version="1.0" encoding="UTF-8"?>
<!--Generator: Apple Native CoreSVG 232.5-->
<!DOCTYPE svg
PUBLIC "-//W3C//DTD SVG 1.1//EN"
       "http://www.w3.org/Graphics/SVG/1.1/DTD/svg11.dtd">
<svg version="1.1" xmlns="http://www.w3.org/2000/svg" xmlns:xlink="http://www.w3.org/1999/xlink" width="70.2159" height="126.514">
 <g>
  <rect height="126.514" opacity="0" width="70.2159" x="0" y="0"/>
  <path d="M0 73.534C0 91.1546 3.54102 104.857 11.9194 118.666C16.4321 125.957 23.917 128.04 31.8882 124.154L41.2988 119.587C49.8726 115.433 53.69 110.276 53.69 102.765C53.69 99.0438 52.3028 95.8773 52.3028 93.7523C52.3028 91.4335 53.9278 89.9735 56.5987 89.9735L65.5899 89.9735C68.3633 89.9735 70.2159 87.9188 70.2159 84.9769L70.2159 72.3802C70.2159 69.1839 68.1275 67.0282 65.0659 67.0282L53.0694 67.0282C48.7754 67.0282 46.6958 64.5394 46.6958 60.1415C46.6958 49.3133 48.6338 36.6971 56.2393 19.3714C59.5684 11.7635 57.1773 6.11752 49.2661 2.96859L44.5415 1.1434C37.6646-1.55924 31.9189 0.80551 27.4976 5.34311C7.65967 26.1913 0 53.6874 0 73.534ZM6.04494 73.534C6.04494 54.9725 12.8692 29.346 32.0318 9.24058C35.1362 6.1024 37.7808 5.05161 42.6973 6.89195L47.5044 8.702C51.3579 10.1834 52.4673 13.1312 50.6929 16.9881C42.2656 35.8143 40.5684 49.5472 40.5684 57.4188C40.5684 79.0013 47.9331 95.2547 47.9331 101.867C47.9331 107.709 45.6587 110.84 38.439 114.45L29.771 118.818C24.6748 121.373 19.9927 120.141 17.0835 115.533C9.13966 102.429 6.04494 90.4657 6.04494 73.534Z" fill="#000000" fill-opacity="0.85"/>
 </g>
</svg>
