<?xml version="1.0" encoding="UTF-8"?>
<!--Generator: Apple Native CoreSVG 232.5-->
<!DOCTYPE svg
PUBLIC "-//W3C//DTD SVG 1.1//EN"
       "http://www.w3.org/Graphics/SVG/1.1/DTD/svg11.dtd">
<svg version="1.1" xmlns="http://www.w3.org/2000/svg" xmlns:xlink="http://www.w3.org/1999/xlink" width="104.864" height="97.9519">
 <g>
  <rect height="97.9519" opacity="0" width="104.864" x="0" y="0"/>
  <path d="M1.70147 87.5966C10.6624 99.2015 29.6297 101.311 40.3109 92.6127C49.2528 85.3993 51.1893 74.2069 43.4613 64.9037C36.721 56.5731 26.7327 54.6869 19.3841 60.6996C12.6448 66.1854 14.9671 73.4652 10.9461 76.7753C7.87091 79.2406 4.17706 77.7841 1.62775 79.9257C-0.234559 81.5336-0.763368 84.4564 1.70147 87.5966ZM8.9681 86.5277C7.95492 85.39 8.04915 84.3129 8.67025 83.7372C9.64144 82.7997 12.6937 83.1644 15.0355 80.8529C19.6507 76.3168 18.0394 69.8407 23.0692 65.6078C27.6707 61.6161 34.5145 62.8436 39.0955 68.2367C44.6375 74.7103 43.0985 82.6722 36.764 88.0077C29.3001 94.4994 16.0614 94.3749 8.9681 86.5277ZM47.0033 75.37C52.2767 74.9657 56.3265 72.5712 61.2313 67.6664C76.3753 52.556 101.088 16.9559 103.218 13.89C108.704 6.04137 99.3685-3.2726 91.5013 2.1732C88.4842 4.28453 52.8656 28.9335 37.7249 44.1752C32.8875 49.0311 30.4744 53.0624 29.991 58.2533L35.9618 59.7474C36.014 56.0619 37.9637 52.3983 41.9559 48.4398C57.2225 33.308 91.9202 9.20105 94.4134 7.36609C96.9969 5.47938 99.8514 8.34216 97.9915 11.0116C96.389 13.3514 71.7318 48.64 56.9364 63.4354C52.6751 67.6815 49.5535 69.1566 46.0179 69.3959ZM56.7659 64.5067L61.7142 63.3192C60.9095 54.0687 51.4608 44.5492 42.3114 43.6771L40.8172 48.6405C47.6424 48.827 56.4632 57.6478 56.7659 64.5067Z" fill="#000000" fill-opacity="0.85"/>
 </g>
</svg>
