<?xml version="1.0" encoding="UTF-8"?>
<!--Generator: Apple Native CoreSVG 232.5-->
<!DOCTYPE svg
PUBLIC "-//W3C//DTD SVG 1.1//EN"
       "http://www.w3.org/Graphics/SVG/1.1/DTD/svg11.dtd">
<svg version="1.1" xmlns="http://www.w3.org/2000/svg" xmlns:xlink="http://www.w3.org/1999/xlink" width="100.831" height="113.994">
 <g>
  <rect height="113.994" opacity="0" width="100.831" x="0" y="0"/>
  <path d="M5.5793 108.068C12.9543 115.416 22.1818 115.529 29.4289 108.282C35.9343 101.776 41.7902 87.3089 46.6272 80.764L58.8068 92.9774C61.9509 96.1703 65.8762 96.14 68.9006 93.0633L73.4631 88.4857C76.5886 85.3417 76.5549 81.6336 73.3772 78.4559L35.2248 40.285C31.9982 37.077 28.2717 37.0736 25.1613 40.1839L20.5837 44.7616C17.507 47.8382 17.4616 51.6624 20.6394 54.8402L32.8493 67.0199C26.3532 71.8416 11.9196 77.7127 5.36544 84.203C-1.84795 91.4652-1.79912 100.726 5.5793 108.068ZM17.5266 102.295C14.2937 102.295 11.7141 99.6971 11.7141 96.4979C11.7141 93.3138 14.2937 90.7342 17.5266 90.7342C20.7258 90.7342 23.2751 93.3138 23.2751 96.4979C23.2751 99.6971 20.7258 102.295 17.5266 102.295ZM78.2795 76.2552L97.0886 57.4613C102.145 52.3895 102.044 46.1864 96.9201 40.995L93.9001 37.9412C89.1701 44.412 74.9255 51.93 72.1423 49.162C71.718 48.7225 71.654 47.8587 72.2888 47.2054C78.1516 41.3123 81.676 35.9139 82.4035 26.4935L58.4411 2.49739C53.9841-1.97478 46.6389-0.506517 44.7141 7.4349C41.6682 20.3284 39.1574 27.5282 35.7517 33.8065Z" fill="#000000" fill-opacity="0.85"/>
 </g>
</svg>
