<?xml version="1.0" encoding="UTF-8"?>
<!--Generator: Apple Native CoreSVG 232.5-->
<!DOCTYPE svg
PUBLIC "-//W3C//DTD SVG 1.1//EN"
       "http://www.w3.org/Graphics/SVG/1.1/DTD/svg11.dtd">
<svg version="1.1" xmlns="http://www.w3.org/2000/svg" xmlns:xlink="http://www.w3.org/1999/xlink" width="97.9595" height="97.9932">
 <g>
  <rect height="97.9932" opacity="0" width="97.9595" x="0" y="0"/>
  <path d="M48.9722 97.9443C75.8247 97.9443 97.9595 75.7759 97.9595 48.9722C97.9595 22.1348 75.791 0 48.9385 0C22.1348 0 0 22.1348 0 48.9722C0 75.7759 22.1685 97.9443 48.9722 97.9443ZM48.9722 91.6113C25.3501 91.6113 6.36671 72.5942 6.36671 48.9722C6.36671 25.3501 25.3164 6.31789 48.9385 6.31789C72.5605 6.31789 91.6265 25.3501 91.6265 48.9722C91.6265 72.5942 72.5942 91.6113 48.9722 91.6113Z" fill="#000000" fill-opacity="0.85"/>
  <path d="M28.0073 72.8062C34.5776 79.2603 43.6113 79.0918 50.0132 72.7388L70.1655 52.6201C70.9907 51.7949 71.0884 50.2388 70.1958 49.3984C69.3066 48.5396 67.7993 48.5547 66.9404 49.4473L46.896 69.458C42.355 74.0479 35.8189 74.0024 31.3486 69.5811C26.7622 65.0923 26.833 58.5899 31.4194 53.9512L58.1421 27.2285C61.0835 24.272 65.2271 24.2012 67.9209 26.8765C70.6636 29.604 70.5254 33.6465 67.52 36.6216L41.4019 62.7549C40.3413 63.8828 39.04 63.834 38.0249 62.8862C36.9609 61.9082 36.9795 60.5059 38.0737 59.4605L56.7358 40.7984C57.6773 39.8721 57.7598 38.5366 56.8184 37.644C55.8921 36.7026 54.5718 36.7515 53.6304 37.6929L34.9683 56.3887C32.2017 59.1856 32.04 63.4458 34.7056 66.1753C37.4351 68.9385 41.5303 68.8257 44.44 65.9463L70.6592 39.7271C75.4868 34.8843 75.667 28.2314 71.0903 23.6396C66.4463 19.0933 59.7935 19.1606 54.9356 24.0034L28.1387 50.7666C21.7217 57.1987 21.752 66.5879 28.0073 72.8062Z" fill="#000000" fill-opacity="0.85"/>
 </g>
</svg>
