<?xml version="1.0" encoding="UTF-8"?>
<!--Generator: Apple Native CoreSVG 232.5-->
<!DOCTYPE svg
PUBLIC "-//W3C//DTD SVG 1.1//EN"
       "http://www.w3.org/Graphics/SVG/1.1/DTD/svg11.dtd">
<svg version="1.1" xmlns="http://www.w3.org/2000/svg" xmlns:xlink="http://www.w3.org/1999/xlink" width="97.9595" height="97.9932">
 <g>
  <rect height="97.9932" opacity="0" width="97.9595" x="0" y="0"/>
  <path d="M48.9722 97.9443C75.8247 97.9443 97.9595 75.7759 97.9595 48.9722C97.9595 22.1348 75.791 0 48.9385 0C22.1348 0 0 22.1348 0 48.9722C0 75.7759 22.1685 97.9443 48.9722 97.9443ZM48.9722 91.6113C25.3501 91.6113 6.36671 72.5942 6.36671 48.9722C6.36671 25.3501 25.3164 6.31789 48.9385 6.31789C72.5605 6.31789 91.6265 25.3501 91.6265 48.9722C91.6265 72.5942 72.5942 91.6113 48.9722 91.6113Z" fill="#000000" fill-opacity="0.85"/>
  <path d="M50.0815 80.21C51.7925 80.21 52.9966 78.8374 53.8823 76.5371L72.5103 27.7954C72.9077 26.7681 73.1064 25.9058 73.1064 25.1143C73.1064 23.5986 72.2173 22.7095 70.7017 22.7095C69.9102 22.7095 69.063 22.9082 68.0205 23.3057L19.1255 42.001C17.0459 42.7856 15.606 43.9898 15.606 45.7007C15.606 47.7974 17.1284 48.582 19.5986 49.3667L36.1948 54.3701C37.6196 54.835 38.5811 54.7256 39.541 53.8179L69.6777 25.249C69.9893 24.9678 70.3345 25.0049 70.6123 25.2036C70.9238 25.4175 70.8633 25.8267 70.5669 26.1382L42.0689 56.376C41.1763 57.3023 41.0181 58.1812 41.4307 59.6885L46.4307 76.0303C47.2339 78.5713 47.936 80.21 50.0815 80.21Z" fill="#000000" fill-opacity="0.85"/>
 </g>
</svg>
