<?xml version="1.0" encoding="UTF-8"?>
<!--Generator: Apple Native CoreSVG 232.5-->
<!DOCTYPE svg
PUBLIC "-//W3C//DTD SVG 1.1//EN"
       "http://www.w3.org/Graphics/SVG/1.1/DTD/svg11.dtd">
<svg version="1.1" xmlns="http://www.w3.org/2000/svg" xmlns:xlink="http://www.w3.org/1999/xlink" width="97.9595" height="100.532">
 <g>
  <rect height="100.532" opacity="0" width="97.9595" x="0" y="0"/>
  <path d="M97.9595 51.5601C97.9595 78.3638 75.8247 100.532 48.9722 100.532C22.1685 100.532 0 78.3638 0 51.5601C0 24.7075 22.1348 2.57275 48.9385 2.57275C75.791 2.57275 97.9595 24.7075 97.9595 51.5601ZM68.5107 25.3023L18.669 44.4019C16.5371 45.1714 15.0635 46.4243 15.0635 48.2026C15.0635 50.3179 16.6196 51.1362 19.1421 51.9058L36.0415 57.0103C37.4849 57.4566 38.4463 57.3657 39.4399 56.4732L70.2017 27.313C70.5317 27.0317 70.877 27.0689 71.1548 27.249C71.4663 27.4815 71.4058 27.8906 71.1094 28.2358L42.0689 59.0835C41.1426 60.0249 40.9844 60.9224 41.397 62.4971L46.498 79.0933C47.3013 81.668 48.0371 83.3403 50.2012 83.3403C51.9795 83.3403 53.2324 81.9678 54.1367 79.6001L73.1353 29.9268C73.5176 28.8657 73.7163 28.0034 73.7163 27.1934C73.7163 25.644 72.7935 24.6875 71.2441 24.6875C70.4341 24.6875 69.5718 24.9199 68.5107 25.3023Z" fill="#000000" fill-opacity="0.85"/>
 </g>
</svg>
