<?xml version="1.0" encoding="UTF-8"?>
<!--Generator: Apple Native CoreSVG 232.5-->
<!DOCTYPE svg
PUBLIC "-//W3C//DTD SVG 1.1//EN"
       "http://www.w3.org/Graphics/SVG/1.1/DTD/svg11.dtd">
<svg version="1.1" xmlns="http://www.w3.org/2000/svg" xmlns:xlink="http://www.w3.org/1999/xlink" width="105.538" height="106.203">
 <g>
  <rect height="106.203" opacity="0" width="105.538" x="0" y="0"/>
  <path d="M60.2549 106.203C63.271 106.203 65.398 103.751 66.9776 99.6689L99.4443 14.7617C100.142 12.9546 100.509 11.3613 100.509 10.0342C100.509 7.31446 98.8887 5.69434 96.169 5.69434C94.8418 5.69434 93.2485 6.06152 91.4414 6.75879L6.2461 39.3604C2.53809 40.7715 0 42.8984 0 45.9482C0 49.6685 2.72169 51.061 7.03077 52.356L43.2383 62.9346L53.7798 98.8843C55.0933 103.332 56.4858 106.203 60.2549 106.203ZM44.9512 57.208L9.76125 46.6782C8.3594 46.2676 8.0093 45.9663 8.0093 45.4731C8.0093 44.9497 8.35598 44.5693 9.51222 44.125L82.082 16.5669C85.0801 15.4351 88.0073 13.9512 90.5913 12.7754C88.2012 14.7007 84.7724 17.3565 82.8286 19.3003ZM60.7637 98.2612C60.2368 98.2612 59.9356 97.8437 59.5249 96.457L48.9649 61.2822L86.9028 23.3746C88.7827 21.4795 91.5395 18.0137 93.4917 15.541C92.3008 18.1773 90.7832 21.0894 89.6514 24.1211L62.0781 96.6909C61.6338 97.8472 61.2871 98.2612 60.7637 98.2612Z" fill="#000000" fill-opacity="0.85"/>
 </g>
</svg>
