<?xml version="1.0" encoding="UTF-8"?>
<!--Generator: Apple Native CoreSVG 232.5-->
<!DOCTYPE svg
PUBLIC "-//W3C//DTD SVG 1.1//EN"
       "http://www.w3.org/Graphics/SVG/1.1/DTD/svg11.dtd">
<svg version="1.1" xmlns="http://www.w3.org/2000/svg" xmlns:xlink="http://www.w3.org/1999/xlink" width="97.9595" height="97.9932">
 <g>
  <rect height="97.9932" opacity="0" width="97.9595" x="0" y="0"/>
  <path d="M97.9595 49.021C97.9595 75.8584 75.8247 97.9932 48.9722 97.9932C22.1685 97.9932 0 75.8584 0 49.021C0 22.2173 22.1348 0.0488281 48.9385 0.0488281C75.791 0.0488281 97.9595 22.2173 97.9595 49.021ZM55.1377 23.5098L27.7832 50.8643C21.1978 57.4497 21.2432 67.0259 27.6333 73.4126C34.3721 79.9863 43.5928 79.8482 50.1294 73.3452L70.6895 52.8037C71.5484 51.9448 71.646 50.3213 70.7534 49.481C69.7969 48.5884 68.2559 48.6372 67.3633 49.5449L46.9448 69.9634C42.2876 74.6206 35.6318 74.6089 31.0606 70.0527C26.3882 65.4629 26.459 58.856 31.1465 54.1348L58.4116 26.8696C61.4356 23.812 65.6499 23.7412 68.3775 26.4688C71.1875 29.2451 71.0493 33.3584 67.9917 36.4497L41.3008 63.0918C40.1729 64.2197 38.9204 64.2046 37.8716 63.2383C36.8076 62.2114 36.8262 60.8394 37.9204 59.7451L56.9717 40.7275C57.9316 39.7525 58.063 38.3984 57.0542 37.4722C56.0942 36.4971 54.7402 36.5796 53.7651 37.521L34.7476 56.606C31.8984 59.4214 31.7856 63.8316 34.5 66.6133C37.2481 69.4776 41.478 69.3276 44.44 66.3657L71.2168 39.5889C76.1944 34.645 76.3257 27.8726 71.648 23.146C66.918 18.5322 60.0967 18.5508 55.1377 23.5098Z" fill="#000000" fill-opacity="0.85"/>
 </g>
</svg>
