<?xml version="1.0" encoding="UTF-8"?>
<!--Generator: Apple Native CoreSVG 232.5-->
<!DOCTYPE svg
PUBLIC "-//W3C//DTD SVG 1.1//EN"
       "http://www.w3.org/Graphics/SVG/1.1/DTD/svg11.dtd">
<svg version="1.1" xmlns="http://www.w3.org/2000/svg" xmlns:xlink="http://www.w3.org/1999/xlink" width="97.9595" height="97.9932">
 <g>
  <rect height="97.9932" opacity="0" width="97.9595" x="0" y="0"/>
  <path d="M97.9595 48.9722C97.9595 75.7759 75.8247 97.9443 48.9722 97.9443C22.1685 97.9443 0 75.7759 0 48.9722C0 22.1348 22.1348 0 48.9385 0C75.791 0 97.9595 22.1348 97.9595 48.9722ZM38.1929 26.2158C36.2256 26.2158 35.1763 27.6323 35.1763 29.7007L35.1763 68.1743C35.1763 70.209 36.3047 71.6441 38.272 71.6441C40.3218 71.6441 41.4199 70.2612 41.4199 68.1743L41.4199 55.5078L52.0855 55.5078C61.1616 55.5078 67.375 49.5825 67.375 40.8955C67.375 32.2236 61.0977 26.2158 52.1191 26.2158ZM61.1987 40.8955C61.1987 46.7144 57.313 50.5967 51.4199 50.5967L41.4199 50.5967L41.4199 31.1455L51.4199 31.1455C57.2944 31.1455 61.1987 35.0278 61.1987 40.8955Z" fill="#000000" fill-opacity="0.85"/>
 </g>
</svg>
