<?xml version="1.0" encoding="UTF-8"?>
<!--Generator: Apple Native CoreSVG 232.5-->
<!DOCTYPE svg
PUBLIC "-//W3C//DTD SVG 1.1//EN"
       "http://www.w3.org/Graphics/SVG/1.1/DTD/svg11.dtd">
<svg version="1.1" xmlns="http://www.w3.org/2000/svg" xmlns:xlink="http://www.w3.org/1999/xlink" width="163.939" height="107.466">
 <g>
  <rect height="107.466" opacity="0" width="163.939" x="0" y="0"/>
  <path d="M4.38624 100.084C7.06447 100.084 8.80618 98.2593 8.80618 95.5171L8.80618 64.5083L30.4385 64.5083C48.0806 64.5083 59.9883 53.1104 59.9883 36.2793C59.9883 19.3809 48.1143 8.0083 30.4722 8.0083L4.38624 8.0083C1.7417 8.0083 0 9.7837 0 12.5747L0 95.5171C0 98.293 1.7417 100.084 4.38624 100.084ZM8.80618 56.3574L8.80618 16.0918L28.9829 16.0918C42.7578 16.0918 51.0137 23.5952 51.0137 36.2793C51.0137 48.8657 42.7275 56.3574 28.9829 56.3574ZM114.967 107.466C141.804 107.466 163.939 85.3311 163.939 58.4937C163.939 31.6899 141.771 9.52148 114.933 9.52148C88.1294 9.52148 65.9946 31.6899 65.9946 58.4937C65.9946 85.3311 88.1631 107.466 114.967 107.466ZM78.1885 37.6333C85.1392 24.6958 99.0269 15.8545 114.899 15.8545C130.787 15.8545 144.693 24.6958 151.693 37.5996C153.146 39.8042 152.37 42.1875 149.822 42.1875L80.0259 42.1875C77.545 42.1875 76.6861 39.8042 78.1885 37.6333ZM114.918 72.3198C109.06 72.3198 104.366 67.6558 104.366 61.7524C104.366 55.9131 109.06 51.249 114.918 51.249C120.788 51.249 125.501 55.9131 125.501 61.7524C125.501 67.6558 120.788 72.3198 114.918 72.3198ZM73.6411 69.0376C72.959 66.6006 74.2139 65.3208 76.42 65.5566C91.6563 66.6079 103.647 80.0444 102.617 95.4175C102.538 97.605 100.955 98.9136 98.6963 97.8862C86.2495 92.7593 76.9058 82.0601 73.6411 69.0376ZM156.225 69.0376C152.96 82.0601 143.666 92.7593 131.17 97.8862C128.96 98.9136 127.344 97.605 127.265 95.4175C126.25 80.1387 138.116 66.6079 153.446 65.5566C155.652 65.3208 156.907 66.6006 156.225 69.0376Z" fill="#000000" fill-opacity="0.85"/>
 </g>
</svg>
