<?xml version="1.0" encoding="UTF-8"?>
<!--Generator: Apple Native CoreSVG 232.5-->
<!DOCTYPE svg
PUBLIC "-//W3C//DTD SVG 1.1//EN"
       "http://www.w3.org/Graphics/SVG/1.1/DTD/svg11.dtd">
<svg version="1.1" xmlns="http://www.w3.org/2000/svg" xmlns:xlink="http://www.w3.org/1999/xlink" width="133.725" height="118.115">
 <g>
  <rect height="118.115" opacity="0" width="133.725" x="0" y="0"/>
  <path d="M33.1988 36.5511C28.9221 42.9678 26.439 50.6965 26.439 59.0333C26.439 81.4498 44.4795 99.4903 66.8623 99.4903C75.1953 99.4903 82.9254 97.0002 89.3442 92.715L93.7646 97.1369C86.1421 102.598 76.8365 105.808 66.8623 105.808C41.2456 105.808 20.0723 84.6349 20.0723 59.0333C20.0723 49.036 23.2859 39.7239 28.7543 32.1051ZM18.8178 22.1653C18.7443 22.2941 18.6578 22.4196 18.5615 22.5421C10.9126 32.7169 6.36671 45.3228 6.36671 59.0333C6.36671 72.7101 10.9126 85.3497 18.5615 95.4269C19.6748 96.941 19.4912 98.7398 18.1421 99.8902C16.6431 101.089 14.6909 100.94 13.5254 99.3395C5.05957 88.1456 0 74.2091 0 59.0333C0 43.8575 5.05957 29.9176 13.5254 18.6934C13.7997 18.3235 14.1214 18.0313 14.4733 17.8194ZM120.199 18.6934C128.699 29.9176 133.725 43.8575 133.725 59.0333C133.725 74.2091 128.699 88.1456 120.199 99.3395C119.938 99.6985 119.637 99.9845 119.31 100.195L114.924 95.8072C114.993 95.6785 115.074 95.5517 115.163 95.4269C122.846 85.3497 127.358 72.7101 127.358 59.0333C127.358 45.3228 122.846 32.7169 115.163 22.5421C114.084 21.1256 114.23 19.2931 115.583 18.1427C117.066 16.9586 119.049 17.1422 120.199 18.6934ZM113.686 59.0333C113.686 68.9938 110.476 78.2841 105.016 85.8952L100.595 81.4734C104.882 75.0612 107.366 67.3443 107.353 59.0333C107.319 36.5831 89.2451 18.5426 66.8286 18.5426C58.5297 18.5426 50.8324 21.0226 44.4382 25.2978L40.0084 20.8665C47.61 15.433 56.8838 12.2433 66.8286 12.2433C92.479 12.2433 113.686 33.4166 113.686 59.0333ZM62.0387 65.4005L60.0122 65.4005L60.0122 77.88C60.0122 79.9146 58.9326 81.2301 56.9502 81.2301C55.0503 81.2301 53.9556 79.8473 53.9556 77.88L53.9556 57.3147ZM85.4434 51.11C85.4434 55.5638 83.7837 59.2737 80.9128 61.7845L76.9696 57.8399C78.5582 56.1891 79.4541 53.8706 79.4541 51.11C79.4541 45.3434 75.6323 41.5436 69.8438 41.5436L60.6786 41.5436L56.0044 36.8677C56.2764 36.7907 56.5774 36.752 56.9048 36.752L70.543 36.752C79.3008 36.752 85.4434 42.6402 85.4434 51.11Z" fill="#000000" fill-opacity="0.85"/>
  <path d="M115.973 112.215C117.105 113.347 119.002 113.347 120.1 112.215C121.277 111.038 121.247 109.22 120.1 108.088L18.3677 6.35652C17.251 5.23982 15.4185 5.16072 14.2075 6.35652C13.1094 7.45467 13.1094 9.35115 14.2075 10.483Z" fill="#000000" fill-opacity="0.85"/>
 </g>
</svg>
