<?xml version="1.0" encoding="UTF-8"?>
<!--Generator: Apple Native CoreSVG 232.5-->
<!DOCTYPE svg
PUBLIC "-//W3C//DTD SVG 1.1//EN"
       "http://www.w3.org/Graphics/SVG/1.1/DTD/svg11.dtd">
<svg version="1.1" xmlns="http://www.w3.org/2000/svg" xmlns:xlink="http://www.w3.org/1999/xlink" width="97.9595" height="97.9932">
 <g>
  <rect height="97.9932" opacity="0" width="97.9595" x="0" y="0"/>
  <path d="M48.9722 97.9443C75.8247 97.9443 97.9595 75.7759 97.9595 48.9722C97.9595 22.1348 75.791 0 48.9385 0C22.1348 0 0 22.1348 0 48.9722C0 75.7759 22.1685 97.9443 48.9722 97.9443ZM48.9722 91.6113C25.3501 91.6113 6.36671 72.5942 6.36671 48.9722C6.36671 25.3501 25.3164 6.31789 48.9385 6.31789C72.5605 6.31789 91.6265 25.3501 91.6265 48.9722C91.6265 72.5942 72.5942 91.6113 48.9722 91.6113Z" fill="#000000" fill-opacity="0.85"/>
  <path d="M38.4253 71.169C40.4077 71.169 41.4873 69.8535 41.4873 67.8188L41.4873 55.3394L51.9844 55.3394C60.8399 55.3394 66.9185 49.5488 66.9185 41.0488C66.9185 32.5791 60.7759 26.6909 52.0181 26.6909L38.3613 26.6909C36.4614 26.6909 35.4307 28.04 35.4307 30.0562L35.4307 67.8188C35.4307 69.7861 36.5254 71.169 38.4253 71.169ZM41.4873 50.563L41.4873 31.4824L51.3189 31.4824C57.1074 31.4824 60.9443 35.2822 60.9443 41.0488C60.9443 46.7481 57.1108 50.563 51.3189 50.563Z" fill="#000000" fill-opacity="0.85"/>
 </g>
</svg>
