<?xml version="1.0" encoding="UTF-8"?>
<!--Generator: Apple Native CoreSVG 232.5-->
<!DOCTYPE svg
PUBLIC "-//W3C//DTD SVG 1.1//EN"
       "http://www.w3.org/Graphics/SVG/1.1/DTD/svg11.dtd">
<svg version="1.1" xmlns="http://www.w3.org/2000/svg" xmlns:xlink="http://www.w3.org/1999/xlink" width="149.526" height="66.7206">
 <g>
  <rect height="66.7206" opacity="0" width="149.526" x="0" y="0"/>
  <path d="M71.2564 33.3359C71.2564 19.5761 56.584 7.03459 41.9014 7.03459L40.7393 7.03459C33.6289 7.03459 30.7393 9.31145 28.8989 16.0014C27.6968 20.8271 27.0469 26.163 27.0469 33.3359C27.0469 40.4599 27.6968 45.7958 28.8989 50.6889C30.7393 57.3603 33.6289 59.6035 40.7393 59.6035L41.9014 59.6035C56.584 59.6035 71.2564 47.0805 71.2564 33.3359ZM65.4995 33.3359C65.4995 44.5053 54.4483 53.8617 41.9014 53.8617L40.7393 53.8617C36.8745 53.8617 35.5479 53.0551 34.4082 49.3281C33.3711 44.7988 32.77 40.0439 32.77 33.3359C32.77 26.579 33.3711 21.873 34.4082 17.3774C35.5479 13.6166 36.8745 12.7763 40.7393 12.7763L41.9014 12.7763C54.4483 12.7763 65.4995 22.1664 65.4995 33.3359ZM78.2696 33.3359C78.2696 47.0805 92.9268 59.6035 107.658 59.6035L108.787 59.6035C115.931 59.6035 118.82 57.3603 120.661 50.6889C121.829 45.7958 122.479 40.4599 122.479 33.3359C122.479 26.163 121.829 20.8271 120.661 16.0014C118.82 9.31145 115.931 7.03459 108.787 7.03459L107.658 7.03459C92.9268 7.03459 78.2696 19.5761 78.2696 33.3359ZM84.0264 33.3359C84.0264 22.1664 95.1114 12.7763 107.658 12.7763L108.787 12.7763C112.685 12.7763 113.963 13.6166 115.118 17.3774C116.188 21.873 116.756 26.579 116.756 33.3359C116.756 40.0439 116.188 44.7988 115.118 49.3281C113.963 53.0551 112.685 53.8617 108.787 53.8617L107.658 53.8617C95.1114 53.8617 84.0264 44.5053 84.0264 33.3359ZM15.8628 12.3369C17.2759 13.1689 18.94 12.7377 19.7568 11.2875C20.604 9.94183 20.1543 8.21038 18.7412 7.41203L6.54933 0.395921C5.2002-0.420975 3.50586 0.0624244 2.72266 1.51262C1.89062 2.84319 2.33691 4.53753 3.75342 5.32074ZM16.8584 30.4574L2.81104 30.4574C1.1958 30.4574 0 31.6869 0 33.3022C0 34.9174 1.1958 36.1469 2.81104 36.1469L16.8584 36.1469C18.4736 36.1469 19.7031 34.9174 19.7031 33.3022C19.7031 31.6869 18.4736 30.4574 16.8584 30.4574ZM15.8628 54.2675L3.75342 61.2836C2.33691 62.1005 1.89062 63.7612 2.72266 65.1254C3.50586 66.5419 5.2002 67.0253 6.54933 66.2421L18.7412 59.226C20.1543 58.394 20.604 56.6811 19.7568 55.3168C18.94 53.9003 17.2759 53.454 15.8628 54.2675ZM133.648 12.3369L145.806 5.32074C147.189 4.53753 147.635 2.84319 146.837 1.51262C146.02 0.0624244 144.359-0.420975 142.961 0.395921L130.785 7.41203C129.405 8.21038 128.956 9.94183 129.788 11.2875C130.571 12.7377 132.25 13.1689 133.648 12.3369ZM132.701 30.4574C131.086 30.4574 129.823 31.6869 129.823 33.3022C129.823 34.9174 131.086 36.1469 132.701 36.1469L146.715 36.1469C148.33 36.1469 149.526 34.9174 149.526 33.3022C149.526 31.6869 148.33 30.4574 146.715 30.4574ZM133.648 54.2675C132.25 53.454 130.571 53.9003 129.788 55.3168C128.956 56.6811 129.405 58.394 130.785 59.226L142.961 66.2421C144.359 67.0253 146.02 66.5419 146.837 65.1254C147.635 63.7612 147.189 62.1005 145.806 61.2836Z" fill="#000000" fill-opacity="0.85"/>
 </g>
</svg>
