<?xml version="1.0" encoding="UTF-8"?>
<!--Generator: Apple Native CoreSVG 232.5-->
<!DOCTYPE svg
PUBLIC "-//W3C//DTD SVG 1.1//EN"
       "http://www.w3.org/Graphics/SVG/1.1/DTD/svg11.dtd">
<svg version="1.1" xmlns="http://www.w3.org/2000/svg" xmlns:xlink="http://www.w3.org/1999/xlink" width="121.266" height="119.96">
 <g>
  <rect height="119.96" opacity="0" width="121.266" x="0" y="0"/>
  <path d="M45.2046 38.5247C45.1846 40.3034 45.0876 42.0871 44.9197 43.8716C40.532 41.9692 37.1068 41.7723 35.4468 43.4409C31.8272 47.0571 36.8208 58.814 48.6455 70.5899C60.4702 82.4634 72.2085 87.4907 75.8281 83.8525C77.5445 82.1451 77.2899 78.5422 75.2226 73.9402C76.9132 73.7793 78.6025 73.6828 80.2871 73.6569C82.9493 80.6219 82.7922 86.9204 76.5698 89.5264L10.5274 117.111C3.87598 119.896-2.19287 113.617 0.772465 107.014L29.8335 42.5967C32.6395 36.4516 38.5901 36.0855 45.2046 38.5247ZM5.60792 109.091C4.52394 111.515 6.14308 113.13 8.52979 112.144L65.5928 88.4043C59.2471 86.2622 51.73 81.186 44.8897 74.3794C37.9668 67.4229 32.8081 59.7256 30.73 53.3125ZM77.8946 68.4914C76.1163 68.5787 74.3286 68.7313 72.5244 68.9614C70.4598 65.6577 67.6625 62.0667 64.1833 58.4348L67.9511 54.6594C71.5099 58.5259 75.2046 63.4902 77.8946 68.4914ZM64.168 50.8991L60.3941 54.6632C56.7524 51.2468 53.1634 48.4972 49.8703 46.472C50.1097 44.5965 50.267 42.7367 50.3601 40.8852C55.2587 43.5338 60.1724 47.2445 64.168 50.8991Z" fill="#000000" fill-opacity="0.85"/>
  <path d="M43.1846 9.16456C45.7056 9.16456 47.7837 7.12013 47.7837 4.56544C47.7837 2.04444 45.7056 0 43.1846 0C40.5811 0 38.5703 2.04444 38.5703 4.56544C38.5703 7.12013 40.5811 9.16456 43.1846 9.16456ZM48.8579 18.9312C48.5918 17.4727 47.5713 16.3525 46.106 16.398C44.708 16.4619 43.3521 17.6426 43.6519 19.2022C45.8037 30.3438 45.8037 42.0845 43.6064 53.6182C43.273 55.1441 44.6626 56.2608 46.0269 56.3399C47.4434 56.3853 48.4673 55.2837 48.7637 53.8101C51.0586 41.8657 51.0586 30.5474 48.8579 18.9312ZM72.9517 17.5059C77.6245 17.5059 81.314 13.7827 81.314 9.12842C81.314 4.42188 77.6245 0.766113 72.9517 0.766113C68.2637 0.766113 64.5742 4.42188 64.5742 9.12842C64.5742 13.7827 68.2637 17.5059 72.9517 17.5059ZM63.7954 32.6748C65.7793 32.6748 67.3506 31.0698 67.3506 29.0859C67.3506 27.1357 65.7793 25.5308 63.7954 25.5308C61.8452 25.5308 60.2065 27.1357 60.2065 29.0859C60.2065 31.0698 61.8452 32.6748 63.7954 32.6748ZM112.251 11.9175C114.186 11.9175 115.757 10.3462 115.757 8.36231C115.757 6.37842 114.186 4.77344 112.251 4.77344C110.282 4.77344 108.695 6.37842 108.695 8.36231C108.695 10.3462 110.282 11.9175 112.251 11.9175ZM98.8355 16.2114L89.8106 25.2363C88.8135 26.2671 88.8135 27.9463 89.8106 28.9771C90.8901 30.023 92.5845 30.023 93.6153 28.9771L102.61 20.0161C103.622 18.9854 103.622 17.2573 102.61 16.2114C101.579 15.2295 99.8511 15.2295 98.8355 16.2114ZM80.9473 34.1636L56.3931 58.6538C55.3809 59.6997 55.3809 61.4277 56.3931 62.4585C57.4238 63.4707 59.1367 63.4707 60.1675 62.4585L84.688 37.8892C85.6665 36.877 85.6514 35.2129 84.688 34.1636C83.6387 33.1851 81.9443 33.1851 80.9473 34.1636ZM116.633 55.126C119.218 55.126 121.263 53.0816 121.263 50.478C121.263 47.9419 119.218 45.8975 116.633 45.8975C114.045 45.8975 112.019 47.9419 112.019 50.478C112.019 53.0816 114.045 55.126 116.633 55.126ZM95.9248 57.1128C99.8316 57.1128 102.95 54.0767 102.95 50.2002C102.95 46.312 99.8316 43.2085 95.9248 43.2085C92.0669 43.2085 89.0459 46.312 89.0459 50.2002C89.0459 54.0767 92.0669 57.1128 95.9248 57.1128ZM114.808 79.9444C117.378 79.9444 119.422 77.9185 119.422 75.3301C119.422 72.7754 117.378 70.731 114.808 70.731C112.253 70.731 110.209 72.7754 110.209 75.3301C110.209 77.9185 112.253 79.9444 114.808 79.9444ZM100.188 69.9785C88.5381 67.7778 77.2534 67.7778 65.2754 70.0391C63.8355 70.3691 62.7002 71.3779 62.7793 72.7608C62.8247 74.1738 63.9414 75.5484 65.501 75.2486C77.0498 73.0664 88.7568 73.0327 99.917 75.1846C101.409 75.4844 102.624 74.1621 102.688 72.7305C102.767 71.25 101.613 70.2446 100.188 69.9785Z" fill="#000000" fill-opacity="0.85"/>
 </g>
</svg>
