<?xml version="1.0" encoding="UTF-8"?>
<!--Generator: Apple Native CoreSVG 232.5-->
<!DOCTYPE svg
PUBLIC "-//W3C//DTD SVG 1.1//EN"
       "http://www.w3.org/Graphics/SVG/1.1/DTD/svg11.dtd">
<svg version="1.1" xmlns="http://www.w3.org/2000/svg" xmlns:xlink="http://www.w3.org/1999/xlink" width="97.9595" height="97.9932">
 <g>
  <rect height="97.9932" opacity="0" width="97.9595" x="0" y="0"/>
  <path d="M48.9722 97.9443C75.8247 97.9443 97.9595 75.7759 97.9595 48.9722C97.9595 22.1348 75.791 0 48.9385 0C22.1348 0 0 22.1348 0 48.9722C0 75.7759 22.1685 97.9443 48.9722 97.9443ZM48.9722 91.6113C25.3501 91.6113 6.36671 72.5942 6.36671 48.9722C6.36671 25.3501 25.3164 6.31789 48.9385 6.31789C72.5605 6.31789 91.6265 25.3501 91.6265 48.9722C91.6265 72.5942 72.5942 91.6113 48.9722 91.6113Z" fill="#000000" fill-opacity="0.85"/>
  <path d="M35.4111 67.7275L40.2568 67.7275C42.5317 67.7275 43.564 66.5 43.564 64.7017L43.564 33.145C43.564 31.3955 42.5317 30.1528 40.2568 30.1528L35.4111 30.1528C33.1851 30.1528 32.1377 31.3955 32.1377 33.145L32.1377 64.7017C32.1377 66.5 33.1851 67.7275 35.4111 67.7275ZM57.6724 67.7275L62.5332 67.7275C64.7105 67.7275 65.773 66.5 65.773 64.7017L65.773 33.145C65.773 31.3955 64.7105 30.1528 62.5332 30.1528L57.6724 30.1528C55.4277 30.1528 54.3955 31.3955 54.3955 33.145L54.3955 64.7017C54.3955 66.5 55.4277 67.7275 57.6724 67.7275Z" fill="#000000" fill-opacity="0.85"/>
 </g>
</svg>
