<?xml version="1.0" encoding="UTF-8"?>
<!--Generator: Apple Native CoreSVG 232.5-->
<!DOCTYPE svg
PUBLIC "-//W3C//DTD SVG 1.1//EN"
       "http://www.w3.org/Graphics/SVG/1.1/DTD/svg11.dtd">
<svg version="1.1" xmlns="http://www.w3.org/2000/svg" xmlns:xlink="http://www.w3.org/1999/xlink" width="97.9595" height="97.9932">
 <g>
  <rect height="97.9932" opacity="0" width="97.9595" x="0" y="0"/>
  <path d="M48.9722 97.9443C75.8247 97.9443 97.9595 75.7759 97.9595 48.9722C97.9595 22.1348 75.791 0 48.9385 0C22.1348 0 0 22.1348 0 48.9722C0 75.7759 22.1685 97.9443 48.9722 97.9443ZM48.9722 91.6113C25.3501 91.6113 6.36671 72.5942 6.36671 48.9722C6.36671 25.3501 25.3164 6.31789 48.9385 6.31789C72.5605 6.31789 91.6265 25.3501 91.6265 48.9722C91.6265 72.5942 72.5942 91.6113 48.9722 91.6113Z" fill="#000000" fill-opacity="0.85"/>
  <path d="M23.3521 44.94C23.3521 49.8833 25.8189 53.5068 29.2183 53.5068C32.5689 53.5068 35.0693 49.8833 35.0693 44.94C35.0693 39.9815 32.5689 36.3242 29.2183 36.3242C25.8189 36.3242 23.3521 39.9815 23.3521 44.94ZM35.1821 30.8604C35.1821 35.8189 37.6826 39.4761 41.0483 39.4761C44.4326 39.4761 46.8994 35.8189 46.8994 30.8604C46.8994 25.9507 44.4326 22.3272 41.0483 22.3272C37.6826 22.3272 35.1821 25.9019 35.1821 30.8604ZM51.0566 30.8604C51.0566 35.8189 53.5386 39.4761 56.8892 39.4761C60.2734 39.4761 62.7891 35.8189 62.7891 30.8604C62.7891 25.9019 60.2734 22.3272 56.8892 22.3272C53.5386 22.3272 51.0566 25.9507 51.0566 30.8604ZM62.8867 44.94C62.8867 49.8833 65.3872 53.5068 68.7529 53.5068C72.1035 53.5068 74.5703 49.8833 74.5703 44.94C74.5703 39.9815 72.1035 36.3242 68.7529 36.3242C65.3872 36.3242 62.8867 39.9815 62.8867 44.94ZM30.4746 64.2134C30.4746 69.061 33.8403 72.501 38.7451 72.501C41.1563 72.501 42.9292 71.8359 44.6079 71.186C46.0542 70.6524 47.3574 70.2012 48.9688 70.2012C50.5649 70.2012 51.8867 70.6524 53.2993 71.186C55.0117 71.8359 56.7847 72.501 59.1924 72.501C64.0669 72.501 67.4815 69.061 67.4815 64.2134C67.4815 59.9233 64.8062 57.6504 62.3496 55.6182C61.0313 54.5288 59.7583 53.5337 58.8726 52.2236C58.231 51.21 57.6753 50.0161 57.1685 48.8779C55.4712 45.145 53.9224 41.3418 48.9688 41.3418C44.0034 41.3418 42.436 45.209 40.8027 48.8779C40.2471 50.001 39.7065 51.146 39.1138 52.1294C38.2129 53.5186 36.9399 54.5288 35.6064 55.6182C33.1348 57.6504 30.4746 59.9233 30.4746 64.2134Z" fill="#000000" fill-opacity="0.85"/>
 </g>
</svg>
