<?xml version="1.0" encoding="UTF-8"?>
<!--Generator: Apple Native CoreSVG 232.5-->
<!DOCTYPE svg
PUBLIC "-//W3C//DTD SVG 1.1//EN"
       "http://www.w3.org/Graphics/SVG/1.1/DTD/svg11.dtd">
<svg version="1.1" xmlns="http://www.w3.org/2000/svg" xmlns:xlink="http://www.w3.org/1999/xlink" width="95.622" height="84.4629">
 <g>
  <rect height="84.4629" opacity="0" width="95.622" x="0" y="0"/>
  <path d="M14.3261 84.4629L71.7123 84.4629C87.5366 84.4629 92.8071 76.9815 94.7299 60.2803C95.9843 49.5835 95.9843 39.0449 94.2905 24.6221C92.3188 6.81641 83.0019-0.112793 63.9907 1.96826L16.6762 7.32422C5.70453 8.54834 0.0131219 14.585 0.0131219 24.8242L0.0131219 70.251C0.0131219 79.2529 5.2602 84.4629 14.3261 84.4629ZM14.3901 78.4668C9.20308 78.4668 5.99068 75.4009 5.99068 70.2207L5.99068 24.8242C5.99068 18.0664 9.88325 14.1587 17.2758 13.3018L64.6391 7.96437C79.6284 6.29591 86.8246 11.3672 88.3129 24.7617C90.0219 39.1089 90.0219 49.5381 88.7524 60.1406C87.1142 74.2915 84.5082 78.4668 71.7123 78.4668Z" fill="#000000" fill-opacity="0.85"/>
  <path d="M21.8403 32.0684L73.3251 32.0684C74.7197 32.0684 75.8481 30.9551 75.8481 29.5606C75.8481 28.166 74.7197 27.0039 73.3251 27.0039L21.8403 27.0039C20.4457 27.0039 19.3325 28.166 19.3325 29.5606C19.3325 30.9551 20.4457 32.0684 21.8403 32.0684ZM21.8403 48.2793L73.3251 48.2793C74.7197 48.2793 75.8481 47.166 75.8481 45.7715C75.8481 44.377 74.7197 43.2148 73.3251 43.2148L21.8403 43.2148C20.4457 43.2148 19.3325 44.377 19.3325 45.7715C19.3325 47.166 20.4457 48.2793 21.8403 48.2793ZM21.8403 64.4902L73.3251 64.4902C74.7197 64.4902 75.8481 63.3618 75.8481 61.9336C75.8481 60.5542 74.7197 59.4258 73.3251 59.4258L21.8403 59.4258C20.4457 59.4258 19.3325 60.5542 19.3325 61.9336C19.3325 63.3618 20.4457 64.4902 21.8403 64.4902Z" fill="#000000" fill-opacity="0.85"/>
 </g>
</svg>
