<?xml version="1.0" encoding="UTF-8"?>
<!--Generator: Apple Native CoreSVG 232.5-->
<!DOCTYPE svg
PUBLIC "-//W3C//DTD SVG 1.1//EN"
       "http://www.w3.org/Graphics/SVG/1.1/DTD/svg11.dtd">
<svg version="1.1" xmlns="http://www.w3.org/2000/svg" xmlns:xlink="http://www.w3.org/1999/xlink" width="81.0786" height="104.145">
 <g>
  <rect height="104.145" opacity="0" width="81.0786" x="0" y="0"/>
  <path d="M27.4644 104.141L67.1397 104.141C75.9175 104.141 81.0298 99.0508 81.0298 90.3857L81.0786 13.8565C81.0786 5.44581 75.7456 0 67.2559 0L20.3672 0C7.83301 0 0 7.88526 0 20.3857L0 29.2187C0 42.1045 3.00049 49.543 9.97461 58.6167L13.5742 63.3662L13.5742 90.3857C13.5742 99.0508 18.6865 104.141 27.4644 104.141ZM27.5098 98.0962C22.6445 98.0962 19.6192 95.1987 19.6192 90.3066L19.6192 61.3501L14.7227 54.8877C8.75734 47.0552 6.04494 40.3379 6.04494 28.9746L6.04494 20.4648C6.04494 11.6294 11.5772 6.0298 20.4463 6.0298L67.2256 6.0298C72.0571 6.0298 75.0488 8.96095 75.0488 13.8867L75 90.3066C75 95.1987 71.9746 98.0962 67.0942 98.0962Z" fill="#000000" fill-opacity="0.85"/>
  <path d="M20.2813 29.7661L62.4575 29.7661C63.8521 29.7661 64.9805 28.6377 64.9805 27.2432C64.9805 25.8486 63.8521 24.6865 62.4575 24.6865L20.2813 24.6865C18.9019 24.6865 17.7734 25.8486 17.7734 27.2432C17.7734 28.6377 18.9019 29.7661 20.2813 29.7661ZM24.6758 47.8662L62.4575 47.8662C63.8521 47.8662 64.9805 46.7041 64.9805 45.3096C64.9805 43.915 63.8521 42.7866 62.4575 42.7866L24.6758 42.7866C23.2813 42.7866 22.1191 43.915 22.1191 45.3096C22.1191 46.7041 23.2813 47.8662 24.6758 47.8662ZM32.1465 65.8501L62.4575 65.8501C63.8521 65.8501 64.9805 64.7217 64.9805 63.3272C64.9805 61.9326 63.8521 60.7705 62.4575 60.7705L32.1465 60.7705C30.752 60.7705 29.5898 61.9326 29.5898 63.3272C29.5898 64.7217 30.752 65.8501 32.1465 65.8501ZM32.1465 83.9502L62.4575 83.9502C63.8521 83.9502 64.9805 82.7881 64.9805 81.3936C64.9805 79.999 63.8521 78.8706 62.4575 78.8706L32.1465 78.8706C30.752 78.8706 29.5898 79.999 29.5898 81.3936C29.5898 82.7881 30.752 83.9502 32.1465 83.9502Z" fill="#000000" fill-opacity="0.85"/>
 </g>
</svg>
