<?xml version="1.0" encoding="UTF-8"?>
<!--Generator: Apple Native CoreSVG 232.5-->
<!DOCTYPE svg
PUBLIC "-//W3C//DTD SVG 1.1//EN"
       "http://www.w3.org/Graphics/SVG/1.1/DTD/svg11.dtd">
<svg version="1.1" xmlns="http://www.w3.org/2000/svg" xmlns:xlink="http://www.w3.org/1999/xlink" width="80.9561" height="104.138">
 <g>
  <rect height="104.138" opacity="0" width="80.9561" x="0" y="0"/>
  <path d="M66.7598 4.80713C76.2041 7.19971 80.9561 12.5967 80.9561 21.2295L80.9072 90.3823C80.9072 99.0474 75.7949 104.138 67.0508 104.138L21.6504 104.138C10.5542 104.138 3.12842 97.7407 1.75781 87.0688C-0.683594 69.1455-0.585938 40.5283 2.08447 20.7007C4.07813 6.11377 13.9443-0.205567 30.5313 0.0825197C43.7915 0.284669 55.5322 1.95654 66.7598 4.80713ZM20.165 69.5176C18.7183 69.5176 17.5225 70.6797 17.5225 72.1079C17.5225 73.5884 18.7183 74.7505 20.165 74.7505L61.9478 74.7505C63.3945 74.7505 64.5903 73.5884 64.5903 72.1079C64.5903 70.6797 63.3945 69.5176 61.9478 69.5176ZM20.165 52.9849C18.7183 52.9849 17.5225 54.1807 17.5225 55.6089C17.5225 57.022 18.7183 58.1841 20.165 58.1841L61.9478 58.1841C63.3945 58.1841 64.5903 57.022 64.5903 55.6089C64.5903 54.1807 63.3945 52.9849 61.9478 52.9849ZM20.165 36.4185C18.7183 36.4185 17.5225 37.6143 17.5225 39.0762C17.5225 40.5044 18.7183 41.6514 20.165 41.6514L61.9478 41.6514C63.3945 41.6514 64.5903 40.5044 64.5903 39.0762C64.5903 37.6143 63.3945 36.4185 61.9478 36.4185Z" fill="#000000" fill-opacity="0.85"/>
 </g>
</svg>
