<?xml version="1.0" encoding="UTF-8"?>
<!--Generator: Apple Native CoreSVG 232.5-->
<!DOCTYPE svg
PUBLIC "-//W3C//DTD SVG 1.1//EN"
       "http://www.w3.org/Graphics/SVG/1.1/DTD/svg11.dtd">
<svg version="1.1" xmlns="http://www.w3.org/2000/svg" xmlns:xlink="http://www.w3.org/1999/xlink" width="110.606" height="101.755">
 <g>
  <rect height="101.755" opacity="0" width="110.606" x="0" y="0"/>
  <path d="M6.06007 2.99805L6.06007 98.6929C6.06007 100.372 4.72609 101.706 3.06202 101.706C1.33399 101.706 0 100.372 0 98.6929L0 2.99805C0 1.33399 1.33399 0 3.06202 0C4.72609 0 6.06007 1.33399 6.06007 2.99805ZM110.606 2.99805L110.606 98.6929C110.606 100.372 109.288 101.706 107.608 101.706C105.88 101.706 104.546 100.372 104.546 98.6929L104.546 87.2788L99.5147 87.2788L99.5147 82.1992L104.546 82.1992L104.546 64.7129L99.5147 64.7129L99.5147 59.6484L104.546 59.6484L104.546 42.1621L99.5147 42.1621L99.5147 37.0977L104.546 37.0977L104.546 19.5776L99.5147 19.5776L99.5147 14.498L104.546 14.498L104.546 2.99805C104.546 1.33399 105.88 0 107.608 0C109.288 0 110.606 1.33399 110.606 2.99805Z" fill="#000000" fill-opacity="0.85"/>
  <path d="M49.2984 31.6934L96.4566 26.1724C98.314 25.9434 99.5147 24.9414 99.5147 23.1934L99.5147 10.6939C99.5147 8.71533 98.314 7.21143 96.4566 7.63916L48.6939 18.1777C47.0435 18.5566 46.2554 19.6294 46.2554 20.916L46.2554 28.9502C46.2554 30.875 47.3213 31.9409 49.2984 31.6934ZM48.6939 48.8965L96.4566 48.8965C98.2837 48.8965 99.5147 47.6958 99.5147 45.9023L99.5147 33.4028C99.5147 31.4849 98.4082 30.1343 96.4566 30.3633L48.6939 35.9331C47.1026 36.0981 46.2554 37.25 46.2554 38.7993L46.2554 46.1162C46.2554 47.812 47.2608 48.8965 48.6939 48.8965ZM48.6939 66.0171L96.4566 71.5869C98.4082 71.8159 99.5147 70.4653 99.5147 68.5474L99.5147 56.0479C99.5147 54.2544 98.2837 53.0537 96.4566 53.0537L48.6939 53.0537C47.2608 53.0537 46.2554 54.1382 46.2554 55.834L46.2554 63.1509C46.2554 64.7002 47.1026 65.8184 48.6939 66.0171ZM48.6939 83.7725L96.4566 94.311C98.314 94.7051 99.5147 93.2349 99.5147 91.2564L99.5147 78.7232C99.5147 76.9937 98.314 76.0068 96.4566 75.7778L49.2984 70.2568C47.3213 70.0093 46.2554 71.0752 46.2554 72.9849L46.2554 81.0191C46.2554 82.3208 47.0435 83.3936 48.6939 83.7725Z" fill="#000000" fill-opacity="0.85"/>
 </g>
</svg>
