<?xml version="1.0" encoding="UTF-8"?>
<!--Generator: Apple Native CoreSVG 232.5-->
<!DOCTYPE svg
PUBLIC "-//W3C//DTD SVG 1.1//EN"
       "http://www.w3.org/Graphics/SVG/1.1/DTD/svg11.dtd">
<svg version="1.1" xmlns="http://www.w3.org/2000/svg" xmlns:xlink="http://www.w3.org/1999/xlink" width="110.606" height="101.755">
 <g>
  <rect height="101.755" opacity="0" width="110.606" x="0" y="0"/>
  <path d="M6.06007 2.99805L6.06007 98.6929C6.06007 100.372 4.72609 101.706 3.06202 101.706C1.33399 101.706 0 100.372 0 98.6929L0 2.99805C0 1.33399 1.33399 0 3.06202 0C4.72609 0 6.06007 1.33399 6.06007 2.99805ZM110.606 2.99805L110.606 98.6929C110.606 100.372 109.288 101.706 107.608 101.706C105.88 101.706 104.546 100.372 104.546 98.6929L104.546 87.2788L99.5147 87.2788L99.5147 82.1992L104.546 82.1992L104.546 64.7129L99.5147 64.7129L99.5147 59.6484L104.546 59.6484L104.546 42.1621L99.5147 42.1621L99.5147 37.0977L104.546 37.0977L104.546 19.5776L99.5147 19.5776L99.5147 14.498L104.546 14.498L104.546 2.99805C104.546 1.33399 105.88 0 107.608 0C109.288 0 110.606 1.33399 110.606 2.99805Z" fill="#000000" fill-opacity="0.85"/>
  <path d="M14.2896 26.312L96.3169 26.312C98.2686 26.312 99.5147 25.0811 99.5147 23.2422L99.5147 10.8672C99.5147 9.04346 98.2686 7.79395 96.3169 7.79395L14.2896 7.79395C12.3379 7.79395 11.107 9.04346 11.107 10.8672L11.107 23.2422C11.107 25.0811 12.3379 26.312 14.2896 26.312ZM14.2896 48.8965L96.3169 48.8965C98.2686 48.8965 99.5147 47.647 99.5147 45.793L99.5147 33.418C99.5147 31.6094 98.2686 30.3784 96.3169 30.3784L14.2896 30.3784C12.3379 30.3784 11.107 31.6094 11.107 33.418L11.107 45.793C11.107 47.647 12.3379 48.8965 14.2896 48.8965ZM14.2896 71.4473L96.3169 71.4473C98.2686 71.4473 99.5147 70.2315 99.5147 68.3589L99.5147 55.9839C99.5147 54.1602 98.2686 52.9292 96.3169 52.9292L14.2896 52.9292C12.3379 52.9292 11.107 54.1602 11.107 55.9839L11.107 68.3589C11.107 70.2315 12.3379 71.4473 14.2896 71.4473ZM14.2896 93.9981L96.3169 93.9981C98.2686 93.9981 99.5147 92.7822 99.5147 90.9434L99.5147 78.5684C99.5147 76.7446 98.2686 75.4951 96.3169 75.4951L14.2896 75.4951C12.3379 75.4951 11.107 76.7446 11.107 78.5684L11.107 90.9434C11.107 92.7822 12.3379 93.9981 14.2896 93.9981Z" fill="#000000" fill-opacity="0.85"/>
 </g>
</svg>
