<?xml version="1.0" encoding="UTF-8"?>
<!--Generator: Apple Native CoreSVG 232.5-->
<!DOCTYPE svg
PUBLIC "-//W3C//DTD SVG 1.1//EN"
       "http://www.w3.org/Graphics/SVG/1.1/DTD/svg11.dtd">
<svg version="1.1" xmlns="http://www.w3.org/2000/svg" xmlns:xlink="http://www.w3.org/1999/xlink" width="118.028" height="121.644">
 <g>
  <rect height="121.644" opacity="0" width="118.028" x="0" y="0"/>
  <path d="M34.9798 13.5874L34.9798 16.9224C34.9798 17.4917 35.0135 18.0913 35.0994 18.6084L32.72 18.6084C27.4036 18.6084 24.6663 21.7686 24.6663 27.085L24.6663 102.124C24.6663 107.643 27.5906 110.601 33.2288 110.601L84.784 110.601C90.4373 110.601 93.3279 107.643 93.3279 102.124L93.3279 62.8651L99.3577 56.8466L99.3577 102.237C99.3577 111.794 94.5555 116.63 85.0838 116.63L32.8953 116.63C23.4573 116.63 18.6214 111.794 18.6214 102.237L18.6214 26.9722C18.6214 17.5679 23.3377 12.5786 32.5398 12.5786L35.0135 12.5786C34.9798 12.8936 34.9798 13.2725 34.9798 13.5874ZM99.3577 26.9722L99.3577 28.8746L93.3279 34.8946L93.3279 27.085C93.3279 21.7686 90.6243 18.6084 85.3079 18.6084L82.8797 18.6084C82.9808 18.0913 83.0145 17.4917 83.0145 16.9224L83.0145 13.5874C83.0145 13.2725 83.0145 12.8936 82.9808 12.5786L85.4393 12.5786C94.6902 12.5786 99.3577 17.5679 99.3577 26.9722ZM68.7679 9.4043L73.9109 9.4043C76.4739 9.4043 78.0013 10.9536 78.0013 13.5723L78.0013 18.5479C78.0013 21.1514 76.4739 22.7158 73.9109 22.7158L44.117 22.7158C41.554 22.7158 40.0267 21.1514 40.0267 18.5479L40.0267 13.5723C40.0267 10.9536 41.554 9.4043 44.117 9.4043L49.2264 9.4043C49.4471 4.21973 53.7342 0 58.9896 0C64.2601 0 68.532 4.21973 68.7679 9.4043ZM54.6507 9.64356C54.6507 11.999 56.5853 13.9976 58.9896 13.9976C61.4427 13.9976 63.3436 11.999 63.3436 9.64356C63.3436 7.19044 61.4427 5.25587 58.9896 5.25587C56.5853 5.25587 54.6507 7.19044 54.6507 9.64356Z" fill="#000000" fill-opacity="0.85"/>
  <path d="M47.1834 83.7866C47.1834 85.1138 46.055 86.2085 44.7278 86.2085L36.8509 86.2085C35.5237 86.2085 34.3953 85.1138 34.3953 83.7866C34.3953 82.4443 35.49 81.3496 36.8509 81.3496L44.7278 81.3496C46.0887 81.3496 47.1834 82.4443 47.1834 83.7866ZM60.5702 67.5986L36.8509 67.5986C35.49 67.5986 34.3953 66.5039 34.3953 65.1431C34.3953 63.8159 35.49 62.7549 36.8509 62.7549L65.4219 62.7549ZM82.5973 45.6076L78.2055 49.9922L36.8509 49.9922C35.5237 49.9922 34.3953 48.8975 34.3953 47.5703C34.3953 46.2432 35.5237 45.1148 36.8509 45.1148L81.1619 45.1148C81.6978 45.1148 82.1957 45.2987 82.5973 45.6076Z" fill="#000000" fill-opacity="0.85"/>
  <path d="M107.548 40.6733L111.013 37.2046C112.756 35.4771 112.786 33.4326 111.122 31.769L110.284 30.9302C108.812 29.4585 106.628 29.6235 105.013 31.2046L101.563 34.6397ZM54.0223 89.2529L63.3475 84.7944L104.207 44.0479L98.1849 38.063L57.3929 78.7793L52.7508 87.8838C52.3567 88.687 53.2459 89.6133 54.0223 89.2529Z" fill="#000000" fill-opacity="0.85"/>
 </g>
</svg>
