<?xml version="1.0" encoding="UTF-8"?>
<!--Generator: Apple Native CoreSVG 232.5-->
<!DOCTYPE svg
PUBLIC "-//W3C//DTD SVG 1.1//EN"
       "http://www.w3.org/Graphics/SVG/1.1/DTD/svg11.dtd">
<svg version="1.1" xmlns="http://www.w3.org/2000/svg" xmlns:xlink="http://www.w3.org/1999/xlink" width="102.09" height="88.6491">
 <g>
  <rect height="88.6491" opacity="0" width="102.09" x="0" y="0"/>
  <path d="M96.3425 80.0179C96.3425 81.6669 94.9933 83.0311 93.3444 83.0311L21.2395 83.0311L27.3074 76.9862L93.3444 76.9862C94.9933 76.9862 96.3425 78.369 96.3425 80.0179Z" fill="#000000" fill-opacity="0.85"/>
  <path d="M17.9269 78.3573L73.2604 23.1366L65.9533 15.7992L10.6535 71.0199L5.84488 81.2425C5.4357 82.2176 6.4899 83.3426 7.44986 82.8998ZM77.1149 19.3158L81.5168 15.0116C83.8288 12.7484 83.9298 10.3959 81.862 8.37682L80.735 7.21617C78.7462 5.24596 76.3483 5.44127 74.1642 7.62535L69.7589 11.9784Z" fill="#000000" fill-opacity="0.85"/>
 </g>
</svg>
