<?xml version="1.0" encoding="UTF-8"?>
<!--Generator: Apple Native CoreSVG 232.5-->
<!DOCTYPE svg
PUBLIC "-//W3C//DTD SVG 1.1//EN"
       "http://www.w3.org/Graphics/SVG/1.1/DTD/svg11.dtd">
<svg version="1.1" xmlns="http://www.w3.org/2000/svg" xmlns:xlink="http://www.w3.org/1999/xlink" width="60.6325" height="91.4492">
 <g>
  <rect height="91.4492" opacity="0" width="60.6325" x="0" y="0"/>
  <path d="M2.99324 91.4492C4.78866 91.4492 5.63925 90.5161 5.95419 88.938L16.0914 39.0684L12.253 42.1607L48.3458 42.1607L44.5074 39.0684L54.6446 88.938C54.9595 90.5161 55.795 91.4492 57.5753 91.4492C60.1202 91.4492 60.9556 89.6724 60.5245 87.6714L50.9093 40.2183C50.4141 37.6719 48.3258 35.9404 45.8013 35.9404L14.8311 35.9404C12.337 35.9404 10.2486 37.7021 9.75349 40.2183L0.107982 87.6714C-0.308034 89.7329 0.606518 91.4492 2.99324 91.4492ZM14.9224 38.6846L45.6646 38.6846L33.7486 2.58692C33.1524 0.944826 32.0123 0 30.3365 0C28.5631 0 27.3067 0.944826 26.7745 2.58692Z" fill="#000000" fill-opacity="0.85"/>
 </g>
</svg>
