<?xml version="1.0" encoding="UTF-8"?>
<!--Generator: Apple Native CoreSVG 232.5-->
<!DOCTYPE svg
PUBLIC "-//W3C//DTD SVG 1.1//EN"
       "http://www.w3.org/Graphics/SVG/1.1/DTD/svg11.dtd">
<svg version="1.1" xmlns="http://www.w3.org/2000/svg" xmlns:xlink="http://www.w3.org/1999/xlink" width="97.9595" height="97.9932">
 <g>
  <rect height="97.9932" opacity="0" width="97.9595" x="0" y="0"/>
  <path d="M46.3887 26.7134L37.4697 53.9243L60.5723 53.9243L51.5894 26.7134C50.7271 24.145 47.251 24.1299 46.3887 26.7134ZM69.269 90.4878C70.4614 90.4424 71.8999 89.0815 71.6001 87.5488L64.5322 55.3384C64.1045 53.23 62.4087 51.6841 60.3677 51.6841L37.6255 51.6841C35.6333 51.6841 33.9038 53.23 33.4761 55.3047L26.4082 87.5488C26.1421 88.8945 27.0718 90.2217 28.3838 90.4541C29.7598 90.7202 31.0869 89.8916 31.353 88.561L38.4141 56.3023L37.749 56.6963L60.293 56.6963L59.5942 56.3023L66.6553 88.561C66.8877 89.772 67.9941 90.5669 69.269 90.4878Z" fill="#000000" fill-opacity="0.85"/>
  <path d="M48.9722 97.9443C75.8247 97.9443 97.9595 75.7759 97.9595 48.9722C97.9595 22.1348 75.791 0 48.9385 0C22.1348 0 0 22.1348 0 48.9722C0 75.7759 22.1685 97.9443 48.9722 97.9443ZM48.9722 91.6113C25.3501 91.6113 6.36671 72.5942 6.36671 48.9722C6.36671 25.3501 25.3164 6.31789 48.9385 6.31789C72.5605 6.31789 91.6265 25.3501 91.6265 48.9722C91.6265 72.5942 72.5942 91.6113 48.9722 91.6113Z" fill="#000000" fill-opacity="0.85"/>
 </g>
</svg>
