<?xml version="1.0" encoding="UTF-8"?>
<!--Generator: Apple Native CoreSVG 232.5-->
<!DOCTYPE svg
PUBLIC "-//W3C//DTD SVG 1.1//EN"
       "http://www.w3.org/Graphics/SVG/1.1/DTD/svg11.dtd">
<svg version="1.1" xmlns="http://www.w3.org/2000/svg" xmlns:xlink="http://www.w3.org/1999/xlink" width="84.1247" height="81.0781">
 <g>
  <rect height="81.0781" opacity="0" width="84.1247" x="0" y="0"/>
  <path d="M42.7018 47.3895L15.4715 74.5717L4.99448 79.1142C4.03452 79.5571 2.98032 78.4321 3.3895 77.457L8.19809 67.2343L35.3861 40.0778ZM70.7899 19.3511L53.9547 36.1565L46.6346 28.8423L63.4827 12.0136ZM78.2796 3.43063L79.4066 4.59128C81.4593 6.61033 81.3734 8.96287 79.0614 11.2261L74.6595 15.5303L67.3035 8.19285L71.7088 3.83981C73.8929 1.65573 76.2757 1.46042 78.2796 3.43063Z" fill="#000000" fill-opacity="0.85"/>
  <path d="M74.1244 71.6938C75.2562 72.8408 77.1527 72.8408 78.2508 71.6938C79.3793 70.5131 79.3978 68.7143 78.2508 67.5673L16.5711 5.88766C15.4544 4.77096 13.5394 4.70699 12.411 5.88766C11.3128 7.00094 11.3128 8.91598 12.411 10.0293Z" fill="#000000" fill-opacity="0.85"/>
 </g>
</svg>
