<?xml version="1.0" encoding="UTF-8"?>
<!--Generator: Apple Native CoreSVG 232.5-->
<!DOCTYPE svg
PUBLIC "-//W3C//DTD SVG 1.1//EN"
       "http://www.w3.org/Graphics/SVG/1.1/DTD/svg11.dtd">
<svg version="1.1" xmlns="http://www.w3.org/2000/svg" xmlns:xlink="http://www.w3.org/1999/xlink" width="81.877" height="108.096">
 <g>
  <rect height="108.096" opacity="0" width="81.877" x="0" y="0"/>
  <path d="M0 11.168L10.4697 11.168L10.4697 4.94239C10.4697 1.72949 8.87501 0 5.98878 0L4.32276 0C1.5459 0 0 1.8877 0 4.94239ZM0 96.0444L3.88331 106.604C4.26563 107.575 5.78468 107.627 6.20069 106.637L10.4697 96.0596L10.4697 16.1997L0 16.1997ZM47.1787 107.511L70.3682 107.511C77.2969 107.511 81.877 102.931 81.877 96.0176L81.877 12.0176C81.877 5.07032 77.2969 0.456545 70.3682 0.456545L47.1787 0.456545C40.2652 0.456545 35.7339 5.03663 35.7339 11.9839L35.7339 95.9839C35.7339 102.931 40.2652 107.511 47.1787 107.511ZM48.1035 101.957C43.8628 101.957 41.2886 99.3369 41.2886 95.2275L41.2886 12.7739C41.2886 8.66456 43.8628 6.04494 48.1035 6.04494L69.4922 6.04494C73.6841 6.04494 76.2886 8.66456 76.2886 12.7739L76.2886 95.1939C76.2886 99.3032 73.6841 101.957 69.4922 101.957ZM78.3887 16.147L78.3887 12.8447L55.5786 12.8447C54.6626 12.8447 53.9536 13.5352 53.9536 14.5034C53.9536 15.3892 54.6289 16.147 55.5449 16.147ZM78.3887 24.0015L78.3887 20.7666L63.3423 20.7666C62.3775 20.7666 61.751 21.4233 61.751 22.4253C61.751 23.3413 62.3589 24.0015 63.3086 24.0015ZM78.3887 31.9234L78.3887 28.6885L63.3423 28.6885C62.3775 28.6885 61.751 29.3604 61.751 30.3623C61.751 31.2632 62.3589 31.9234 63.3086 31.9234ZM78.3887 39.8115L78.3887 36.543L63.3423 36.543C62.3775 36.543 61.751 37.23 61.751 38.1831C61.751 39.1514 62.3589 39.8115 63.3086 39.8115ZM78.3887 47.6997L78.3887 44.4463L63.3423 44.4463C62.3775 44.4463 61.751 45.1519 61.751 46.1387C61.751 47.0059 62.3589 47.6997 63.3086 47.6997ZM78.3887 55.5845L78.3887 52.3833L55.5786 52.3833C54.6626 52.3833 53.9536 53.0552 53.9536 54.0234C53.9536 54.958 54.6289 55.5845 55.5449 55.5845ZM78.3887 63.5552L78.3887 60.3018L63.3423 60.3018C62.3775 60.3018 61.751 60.9434 61.751 61.9116C61.751 62.8462 62.3589 63.5552 63.3086 63.5552ZM78.3887 71.4434L78.3887 68.2236L63.3423 68.2236C62.3775 68.2236 61.751 68.8315 61.751 69.8335C61.751 70.7344 62.3589 71.4434 63.3086 71.4434ZM78.3887 79.313L78.3887 76.0781L63.3423 76.0781C62.3775 76.0781 61.751 76.7534 61.751 77.688C61.751 78.5889 62.3589 79.313 63.3086 79.313ZM78.3887 87.2012L78.3887 83.9663L63.3423 83.9663C62.3775 83.9663 61.751 84.5894 61.751 85.5425C61.751 86.5259 62.3589 87.2012 63.3086 87.2012ZM78.3887 95.0591L78.3887 91.8057L55.5786 91.8057C54.6626 91.8057 53.9536 92.5112 53.9536 93.4644C53.9536 94.3652 54.6289 95.0591 55.5449 95.0591Z" fill="#000000" fill-opacity="0.85"/>
 </g>
</svg>
