<?xml version="1.0" encoding="UTF-8"?>
<!--Generator: Apple Native CoreSVG 232.5-->
<!DOCTYPE svg
PUBLIC "-//W3C//DTD SVG 1.1//EN"
       "http://www.w3.org/Graphics/SVG/1.1/DTD/svg11.dtd">
<svg version="1.1" xmlns="http://www.w3.org/2000/svg" xmlns:xlink="http://www.w3.org/1999/xlink" width="104.164" height="102.355">
 <g>
  <rect height="102.355" opacity="0" width="104.164" x="0" y="0"/>
  <path d="M103.254 47.6983C105.364 41.042 103.848 36.1802 98.2578 32.1104L60.5376 4.36279C54.6914 0.0488281 49.4423 0.0488281 43.5624 4.36279L5.84224 32.1104C0.285592 36.1953-1.2149 41.1514 1.00434 48.0903L15.4472 92.7461C17.5234 99.3198 21.6796 102.355 28.6626 102.355L75.4711 102.355C82.4541 102.355 86.5766 99.3198 88.6865 92.7461ZM52.1064 7.20509L52.1064 96.3096L28.6626 96.3096C24.435 96.3096 22.4062 94.8818 21.0947 90.9136L6.73092 46.2241C5.31002 41.9614 6.05758 39.5151 9.52242 36.9712L47.1938 9.17482C48.9868 7.81789 50.5878 7.20509 52.1064 7.20509Z" fill="#000000" fill-opacity="0.85"/>
 </g>
</svg>
