<?xml version="1.0" encoding="UTF-8"?>
<!--Generator: Apple Native CoreSVG 232.5-->
<!DOCTYPE svg
PUBLIC "-//W3C//DTD SVG 1.1//EN"
       "http://www.w3.org/Graphics/SVG/1.1/DTD/svg11.dtd">
<svg version="1.1" xmlns="http://www.w3.org/2000/svg" xmlns:xlink="http://www.w3.org/1999/xlink" width="104.169" height="102.355">
 <g>
  <rect height="102.355" opacity="0" width="104.169" x="0" y="0"/>
  <path d="M0.919981 47.6983L15.5211 92.7461C17.5972 99.3198 21.7198 102.355 28.7027 102.355L75.545 102.355C82.5279 102.355 86.6505 99.3198 88.7266 92.7461L103.17 48.0903C105.422 41.1514 103.888 36.1953 98.3316 32.1104L60.6114 4.36279C54.7803 0.0336915 49.4673 0.0336915 43.6363 4.36279L5.91608 32.1104C0.359435 36.1953-1.22016 41.042 0.919981 47.6983ZM9.80525 55.6382L94.4424 55.6382L83.0792 90.9136C81.8165 94.8818 79.7725 96.3096 75.545 96.3096L28.7027 96.3096C24.4752 96.3096 22.4312 94.8818 21.1685 90.9136Z" fill="#000000" fill-opacity="0.85"/>
 </g>
</svg>
