<?xml version="1.0" encoding="UTF-8"?>
<!--Generator: Apple Native CoreSVG 232.5-->
<!DOCTYPE svg
PUBLIC "-//W3C//DTD SVG 1.1//EN"
       "http://www.w3.org/Graphics/SVG/1.1/DTD/svg11.dtd">
<svg version="1.1" xmlns="http://www.w3.org/2000/svg" xmlns:xlink="http://www.w3.org/1999/xlink" width="86.1363" height="92.8354">
 <g>
  <rect height="92.8354" opacity="0" width="86.1363" x="0" y="0"/>
  <path d="M16.0469 44.362C26 44.362 32.0449 35.9011 32.0449 22.4646C32.0449 9.02804 25.9663 0.668171 16.0469 0.668171C6.09375 0.668171 0 9.06173 0 22.4646C0 35.9348 6.06006 44.362 16.0469 44.362ZM16.0469 39.1003C9.76222 39.1003 5.99953 32.8728 5.99953 22.4646C5.99953 12.1726 9.79591 5.89621 16.0469 5.89621C22.2676 5.89621 26.0454 12.1237 26.0454 22.4646C26.0454 32.8728 22.3013 39.1003 16.0469 39.1003ZM70.1382 92.1672C80.0913 92.1672 86.1363 83.7063 86.1363 70.3034C86.1363 56.8332 80.0728 48.4733 70.1382 48.4733C60.1851 48.4733 54.0913 56.8669 54.0913 70.3034C54.0913 83.7399 60.1514 92.1672 70.1382 92.1672ZM70.1382 86.9392C63.8535 86.9392 60.0908 80.6779 60.0908 70.3034C60.0908 59.9777 63.8872 53.7351 70.1382 53.7351C76.374 53.7351 80.1367 59.9289 80.1367 70.3034C80.1367 80.6779 76.3926 86.9392 70.1382 86.9392ZM12.834 92.3322C14.2168 93.1154 16.2329 92.9841 17.4019 91.2981L73.9878 4.98508C75.2427 3.16427 74.5352 1.23409 73.1524 0.402057C71.8218-0.328901 69.9741-0.148726 68.7192 1.65694L12.1182 87.8166C10.8296 89.656 11.4058 91.5002 12.834 92.3322Z" fill="#000000" fill-opacity="0.85"/>
 </g>
</svg>
