<?xml version="1.0" encoding="UTF-8"?>
<!--Generator: Apple Native CoreSVG 232.5-->
<!DOCTYPE svg
PUBLIC "-//W3C//DTD SVG 1.1//EN"
       "http://www.w3.org/Graphics/SVG/1.1/DTD/svg11.dtd">
<svg version="1.1" xmlns="http://www.w3.org/2000/svg" xmlns:xlink="http://www.w3.org/1999/xlink" width="119.395" height="113.999">
 <g>
  <rect height="113.999" opacity="0" width="119.395" x="0" y="0"/>
  <path d="M105.171 67.2084C106.584 68.1717 108.3 67.8382 109.316 66.4217C115.581 58.0096 119.395 46.057 119.395 33.8905C119.395 21.7088 115.615 9.68882 109.316 1.34409C108.3-0.106107 106.584-0.405913 105.171 0.557468C103.773 1.50571 103.556 3.25572 104.669 4.81871C110.373 12.641 113.552 23.0209 113.552 33.8905C113.552 44.7601 110.306 55.0726 104.669 62.9622C103.589 64.5101 103.773 66.2601 105.171 67.2084Z" fill="#000000" fill-opacity="0.85"/>
  <path d="M88.0581 54.3885C89.3364 55.2845 91.0864 55.0184 92.1021 53.5682C95.8618 48.682 98.2441 41.5882 98.2441 33.8905C98.2441 26.1776 95.8618 19.1175 92.1021 14.1639C91.0864 12.7474 89.3364 12.4476 88.0581 13.3773C86.5405 14.4266 86.3081 16.2928 87.4888 17.8407C90.6992 22.2918 92.4014 27.6815 92.4014 33.8905C92.4014 40.0843 90.6655 45.4403 87.4888 49.9251C86.3418 51.5067 86.5405 53.3055 88.0581 54.3885Z" fill="#000000" fill-opacity="0.85"/>
  <path d="M19.3506 100.508L82.3589 100.508C88.9956 100.508 91.7148 98.5834 91.7148 94.3319C91.7148 81.7948 76.019 64.5028 50.8472 64.5028C25.6567 64.5028 9.96094 81.7948 9.96094 94.3319C9.96094 98.5834 12.6802 100.508 19.3506 100.508ZM50.8926 55.7474C61.4663 55.7474 70.2119 46.433 70.2119 34.3319C70.2119 22.5892 61.3721 13.4569 50.8926 13.4569C40.4131 13.4569 31.543 22.7088 31.5884 34.3993C31.5884 46.433 40.3525 55.7474 50.8926 55.7474Z" fill="#000000" fill-opacity="0.85"/>
 </g>
</svg>
