<?xml version="1.0" encoding="UTF-8"?>
<!--Generator: Apple Native CoreSVG 232.5-->
<!DOCTYPE svg
PUBLIC "-//W3C//DTD SVG 1.1//EN"
       "http://www.w3.org/Graphics/SVG/1.1/DTD/svg11.dtd">
<svg version="1.1" xmlns="http://www.w3.org/2000/svg" xmlns:xlink="http://www.w3.org/1999/xlink" width="119.622" height="87.085">
 <g>
  <rect height="87.085" opacity="0" width="119.622" x="0" y="0"/>
  <path d="M7.77442 87.0513L73.9644 87.0513C78.7651 87.0513 81.7388 84.6704 81.7388 80.875C81.7388 68.3379 66.0581 51.0459 40.8525 51.0459C15.6807 51.0459 0 68.3379 0 80.875C0 84.6704 2.97363 87.0513 7.77442 87.0513ZM40.9316 42.2905C51.4717 42.2905 60.2358 32.9761 60.2358 20.875C60.2358 9.13232 51.4111 0 40.9316 0C30.4522 0 21.6123 9.25195 21.6123 20.9424C21.6123 32.9761 30.3579 42.2905 40.9316 42.2905Z" fill="#000000" fill-opacity="0.85"/>
  <path d="M92.0142 44.8838C93.2808 44.8838 94.2813 44.2842 95.0459 43.1978L118.753 6.08888C119.187 5.3882 119.622 4.52247 119.622 3.73585C119.622 2.10206 118.123 0.958499 116.59 0.958499C115.593 0.958499 114.615 1.52442 113.963 2.64112L91.8643 37.5185L80.5952 23.6782C79.7598 22.5244 78.8789 22.1606 77.8482 22.1606C76.2144 22.1606 74.9023 23.4609 74.9023 25.1738C74.9023 25.9722 75.2358 26.8345 75.7983 27.5503L88.8476 43.1978C89.8144 44.3667 90.7661 44.8838 92.0142 44.8838Z" fill="#000000" fill-opacity="0.85"/>
 </g>
</svg>
