<?xml version="1.0" encoding="UTF-8"?>
<!--Generator: Apple Native CoreSVG 232.5-->
<!DOCTYPE svg
PUBLIC "-//W3C//DTD SVG 1.1//EN"
       "http://www.w3.org/Graphics/SVG/1.1/DTD/svg11.dtd">
<svg version="1.1" xmlns="http://www.w3.org/2000/svg" xmlns:xlink="http://www.w3.org/1999/xlink" width="97.9595" height="116.717">
 <g>
  <rect height="116.717" opacity="0" width="97.9595" x="0" y="0"/>
  <path d="M57.9722 2.8564L57.9722 10.2441C80.5967 14.5395 97.9595 34.6132 97.9595 58.3793C97.9595 85.2168 75.8247 107.352 48.9722 107.352C22.1685 107.352 0 85.2168 0 58.3793C0 41.5947 8.73974 26.6518 21.8789 17.8237C23.5278 16.5722 25.5474 17.0185 26.4653 18.5361C27.3833 20.1025 26.8999 21.8676 25.3672 22.9878C13.9072 30.5459 6.36671 43.5586 6.33302 58.3793C6.29933 82.0014 25.3501 101.019 48.9722 101.019C72.5942 101.019 91.5928 82.0014 91.5928 58.3793C91.5928 37.8623 77.2466 20.8051 57.9722 16.727L57.9722 24.6899C57.9722 27.5395 56.0186 28.3613 53.7266 26.7109L38.5625 16.061C36.6309 14.707 36.6645 12.7719 38.5625 11.4365L53.7603 0.820262C56.0186-0.79644 57.9722 0.0253384 57.9722 2.8564Z" fill="#000000" fill-opacity="0.85"/>
  <path d="M45.5268 63.6261C41.5695 67.0602 39.3521 71.4297 39.3521 75.3051C39.3521 76.3544 39.5619 77.4392 40.1036 78.4033L21.2446 78.4033C18.5537 78.4033 17.4273 77.3374 17.4273 75.1738C17.4273 66.8715 25.9199 60.5693 34.9648 60.5693C38.784 60.5693 42.5074 61.6929 45.5268 63.6261ZM43.2773 47.6518C43.2773 52.8579 39.5293 56.8618 34.9648 56.8618C30.4458 56.8618 26.6943 52.8579 26.6943 47.6855C26.6943 42.6865 30.5249 38.6894 34.9648 38.6894C39.4839 38.6894 43.2773 42.6191 43.2773 47.6518Z" fill="#000000" fill-opacity="0.85"/>
  <path d="M47.1436 78.4033L78.2642 78.4033C81.5244 78.4033 82.8428 77.435 82.8428 75.3051C82.8428 69.1865 75.1162 60.6484 62.7358 60.6484C50.2612 60.6484 42.4858 69.1865 42.4858 75.3051C42.4858 77.435 43.8682 78.4033 47.1436 78.4033ZM62.7358 56.3735C67.9839 56.3735 72.2236 51.7197 72.2236 45.7324C72.2236 39.9638 67.9048 35.4702 62.7358 35.4702C57.5483 35.4702 53.2295 40.0498 53.2295 45.7661C53.2295 51.7197 57.5181 56.3735 62.7358 56.3735Z" fill="#000000" fill-opacity="0.85"/>
 </g>
</svg>
