<?xml version="1.0" encoding="UTF-8"?>
<!--Generator: Apple Native CoreSVG 232.5-->
<!DOCTYPE svg
PUBLIC "-//W3C//DTD SVG 1.1//EN"
       "http://www.w3.org/Graphics/SVG/1.1/DTD/svg11.dtd">
<svg version="1.1" xmlns="http://www.w3.org/2000/svg" xmlns:xlink="http://www.w3.org/1999/xlink" width="119.848" height="89.0987">
 <g>
  <rect height="89.0987" opacity="0" width="119.848" x="0" y="0"/>
  <path d="M35.3413 77.3755L90.6612 77.3755C87.2271 68.3433 77.9849 59.2129 63.0088 59.2129C48.0176 59.2129 38.7905 68.3433 35.3413 77.3755ZM63.0088 53.249C70.106 53.2979 75.8814 46.8623 75.8814 39.1372C75.8814 31.5855 70.106 25.4009 63.0088 25.4009C55.8628 25.4009 50.106 31.5855 50.1211 39.1372C50.1851 46.8623 55.8628 53.2002 63.0088 53.249ZM94.5166 82.2295C108.763 82.2295 119.848 72.0742 119.848 59.2066C119.848 49.2554 114.272 40.5352 104.63 36.8945C105 15.6016 89.7954 0 70.3848 0C57.0918 0 47.9102 7.24658 42.4595 15.9883C30.7959 11.9883 17.8008 21.0737 17.7231 34.5034C6.96045 35.8374 0 45.2163 0 56.8731C0 70.835 12.0493 82.1841 28.1431 82.1841ZM94.4863 76.1846L28.1279 76.1543C15.46 76.1543 6.04494 67.4243 6.04494 56.8731C6.04494 47.0166 11.9985 39.2529 22.3198 39.2529C22.9429 39.2529 23.1719 38.9263 23.1719 38.3369C23.1719 23.9487 34.0874 18.5064 44.3242 22.2168C44.8648 22.4121 45.1914 22.2656 45.4693 21.7588C50.2661 13.2661 57.6172 6.04494 70.3848 6.04494C86.3853 6.04494 97.7871 18.6646 98.7837 33.8477C98.915 35.8516 98.7534 38.2158 98.6338 40.3443C98.6001 40.9033 98.8291 41.2451 99.3545 41.3765C108.211 43.5112 113.803 50.3233 113.803 59.2066C113.803 68.7578 105.401 76.1846 94.4863 76.1846Z" fill="#000000" fill-opacity="0.85"/>
 </g>
</svg>
