<?xml version="1.0" encoding="UTF-8"?>
<!--Generator: Apple Native CoreSVG 232.5-->
<!DOCTYPE svg
PUBLIC "-//W3C//DTD SVG 1.1//EN"
       "http://www.w3.org/Graphics/SVG/1.1/DTD/svg11.dtd">
<svg version="1.1" xmlns="http://www.w3.org/2000/svg" xmlns:xlink="http://www.w3.org/1999/xlink" width="97.9595" height="97.9932">
 <g>
  <rect height="97.9932" opacity="0" width="97.9595" x="0" y="0"/>
  <path d="M97.9595 48.9722C97.9595 75.7759 75.8247 97.9443 48.9722 97.9443C22.1685 97.9443 0 75.7759 0 48.9722C0 22.1348 22.1348 0 48.9385 0C75.791 0 97.9595 22.1348 97.9595 48.9722ZM18.065 79.1694C25.4146 87.0679 36.8335 92.2329 48.9385 92.2329C61.0771 92.2329 72.4624 87.0679 79.8306 79.1694C74.478 70.5742 62.3911 65.3804 48.9385 65.3804C35.4185 65.3804 23.3989 70.6416 18.065 79.1694ZM32.2813 38.6411C32.2813 49.0938 39.5635 56.9668 48.9385 57.0191C58.332 57.0864 65.5806 49.0938 65.5806 38.6411C65.5806 28.8233 58.2378 20.6201 48.9385 20.6201C39.6729 20.6201 32.2324 28.8233 32.2813 38.6411Z" fill="#000000" fill-opacity="0.85"/>
 </g>
</svg>
