<?xml version="1.0" encoding="UTF-8"?>
<!--Generator: Apple Native CoreSVG 232.5-->
<!DOCTYPE svg
PUBLIC "-//W3C//DTD SVG 1.1//EN"
       "http://www.w3.org/Graphics/SVG/1.1/DTD/svg11.dtd">
<svg version="1.1" xmlns="http://www.w3.org/2000/svg" xmlns:xlink="http://www.w3.org/1999/xlink" width="114.35" height="88.4395">
 <g>
  <rect height="88.4395" opacity="0" width="114.35" x="0" y="0"/>
  <path d="M14.3936 88.4092L99.9409 88.4092C109.514 88.4092 114.35 83.5615 114.35 74.169L114.35 14.2739C114.35 4.88135 109.514 0 99.9409 0L14.3936 0C4.86963 0 0 4.83594 0 14.2739L0 74.169C0 83.6069 4.86963 88.4092 14.3936 88.4092ZM14.5064 82.3794C9.00294 82.3794 6.04494 79.4736 6.04494 73.8355L6.04494 14.6074C6.04494 8.96925 9.00294 6.04494 14.5064 6.04494L99.8433 6.04494C105.237 6.04494 108.305 8.96925 108.305 14.6074L108.305 73.8355C108.305 79.4736 105.237 82.3794 99.8433 82.3794Z" fill="#000000" fill-opacity="0.85"/>
  <path d="M68.6074 26.6626L96.085 26.6626C97.4609 26.6626 98.522 25.6016 98.522 24.2407C98.522 22.9136 97.4609 21.8525 96.085 21.8525L68.6074 21.8525C67.1978 21.8525 66.1367 22.9136 66.1367 24.2407C66.1367 25.6016 67.1978 26.6626 68.6074 26.6626ZM68.6074 46.6963L96.085 46.6963C97.4609 46.6963 98.522 45.6016 98.522 44.2407C98.522 42.8984 97.4609 41.8711 96.085 41.8711L68.6074 41.8711C67.1978 41.8711 66.1367 42.8984 66.1367 44.2407C66.1367 45.6016 67.1978 46.6963 68.6074 46.6963ZM68.6074 66.6812L96.085 66.6812C97.4609 66.6812 98.522 65.6538 98.522 64.3267C98.522 62.9658 97.4609 61.8711 96.085 61.8711L68.6074 61.8711C67.1978 61.8711 66.1367 62.9658 66.1367 64.3267C66.1367 65.6538 67.1978 66.6812 68.6074 66.6812ZM16.4268 66.6812L56.0903 66.6812C57.4746 66.6812 58.0894 65.7886 58.0894 64.5054C58.0894 59.7793 51.0986 47.3726 36.2417 47.3726C21.3999 47.3726 14.4277 59.7793 14.4277 64.5054C14.4277 65.7886 15.0425 66.6812 16.4268 66.6812ZM36.2417 43.894C42.2896 43.9277 47.1167 38.853 47.1167 32.0425C47.1167 25.6865 42.2896 20.4048 36.2417 20.4048C30.2275 20.4048 25.3667 25.6865 25.3667 32.0425C25.3667 38.853 30.2275 43.894 36.2417 43.894Z" fill="#000000" fill-opacity="0.85"/>
 </g>
</svg>
