<?xml version="1.0" encoding="UTF-8"?>
<!--Generator: Apple Native CoreSVG 232.5-->
<!DOCTYPE svg
PUBLIC "-//W3C//DTD SVG 1.1//EN"
       "http://www.w3.org/Graphics/SVG/1.1/DTD/svg11.dtd">
<svg version="1.1" xmlns="http://www.w3.org/2000/svg" xmlns:xlink="http://www.w3.org/1999/xlink" width="97.9595" height="97.9932">
 <g>
  <rect height="97.9932" opacity="0" width="97.9595" x="0" y="0"/>
  <path d="M97.9595 48.9722C97.9595 75.7759 75.8247 97.9443 48.9722 97.9443C22.1685 97.9443 0 75.7759 0 48.9722C0 22.1348 22.1348 0 48.9385 0C75.791 0 97.9595 22.1348 97.9595 48.9722ZM6.36671 48.9722C6.36671 72.5942 25.3501 91.6113 48.9722 91.6113C72.5942 91.6113 91.6265 72.5942 91.6265 48.9722C91.6265 25.3501 72.5605 6.31789 48.9385 6.31789C25.3164 6.31789 6.36671 25.3501 6.36671 48.9722Z" fill="#000000" fill-opacity="0.85"/>
  <path d="M44.9579 54.2658C41.0034 57.6996 38.7866 62.0685 38.7866 65.9434C38.7866 66.9926 38.9965 68.0775 39.5381 69.0415L20.6641 69.0415C17.9883 69.0415 16.8467 67.9756 16.8467 65.812C16.8467 57.5098 25.3545 51.2075 34.3994 51.2075C38.2196 51.2075 41.9413 52.3317 44.9579 54.2658ZM42.6968 38.29C42.6968 43.4961 38.9639 47.5 34.3994 47.5C29.8652 47.5 26.1138 43.4961 26.1138 38.3237C26.1138 33.3247 29.9443 29.3276 34.3994 29.3276C38.9185 29.3276 42.6968 33.2573 42.6968 38.29Z" fill="#000000" fill-opacity="0.85"/>
  <path d="M46.5781 69.0415L77.6836 69.0415C80.9438 69.0415 82.2622 68.0732 82.2622 65.9434C82.2622 59.8247 74.5356 51.2866 62.1553 51.2866C49.6807 51.2866 41.9204 59.8247 41.9204 65.9434C41.9204 68.0732 43.2876 69.0415 46.5781 69.0415ZM62.1553 47.0117C67.4033 47.0117 71.6582 42.3579 71.6582 36.3706C71.6582 30.6021 67.3242 26.1084 62.1553 26.1084C56.9678 26.1084 52.6489 30.688 52.6489 36.4043C52.6489 42.3579 56.9526 47.0117 62.1553 47.0117Z" fill="#000000" fill-opacity="0.85"/>
 </g>
</svg>
