<?xml version="1.0" encoding="UTF-8"?>
<!--Generator: Apple Native CoreSVG 232.5-->
<!DOCTYPE svg
PUBLIC "-//W3C//DTD SVG 1.1//EN"
       "http://www.w3.org/Graphics/SVG/1.1/DTD/svg11.dtd">
<svg version="1.1" xmlns="http://www.w3.org/2000/svg" xmlns:xlink="http://www.w3.org/1999/xlink" width="97.9595" height="97.9932">
 <g>
  <rect height="97.9932" opacity="0" width="97.9595" x="0" y="0"/>
  <path d="M48.9722 97.9443C75.8247 97.9443 97.9595 75.7759 97.9595 48.9722C97.9595 22.1348 75.791 0 48.9385 0C22.1348 0 0 22.1348 0 48.9722C0 75.7759 22.1685 97.9443 48.9722 97.9443ZM48.9722 91.6113C25.3501 91.6113 6.36671 72.5942 6.36671 48.9722C6.36671 25.3501 25.3164 6.31789 48.9385 6.31789C72.5605 6.31789 91.6265 25.3501 91.6265 48.9722C91.6265 72.5942 72.5942 91.6113 48.9722 91.6113Z" fill="#000000" fill-opacity="0.85"/>
  <path d="M48.9385 37.8477C54.1226 37.8814 58.1567 33.4785 58.1567 27.6445C58.1567 22.2315 54.0923 17.667 48.9385 17.667C43.8032 17.667 39.7051 22.2315 39.7051 27.6445C39.7051 33.4785 43.7881 37.8477 48.9385 37.8477ZM32.5781 58.1729L65.2534 58.1729C67.0195 58.1729 68.0986 57.1138 68.0986 55.5732C68.0986 50.5767 61.3037 41.3916 48.9233 41.3916C36.5278 41.3916 29.7329 50.5767 29.7329 55.5732C29.7329 57.1138 30.812 58.1729 32.5781 58.1729ZM27.9414 76.3677L69.9844 76.3677C71.0234 76.3677 71.8486 75.4937 71.8486 74.4546C71.8486 73.4155 71.0234 72.5903 69.9844 72.5903L69.5566 72.5903L69.5566 65.0689C69.5566 62.7095 68.3477 61.3623 65.8652 61.3623L32.0606 61.3623C29.563 61.3623 28.3692 62.7095 28.3692 65.0689L28.3692 72.5903L27.9414 72.5903C26.9024 72.5903 26.062 73.4155 26.062 74.4546C26.062 75.4937 26.9024 76.3677 27.9414 76.3677ZM42.8223 70.4292C42.0005 70.4292 41.396 69.791 41.396 68.9727C41.396 68.1694 42.0005 67.5313 42.8223 67.5313L55.0732 67.5313C55.895 67.5313 56.5972 68.1694 56.5972 68.9727C56.5972 69.791 55.895 70.4292 55.0732 70.4292Z" fill="#000000" fill-opacity="0.85"/>
 </g>
</svg>
