<?xml version="1.0" encoding="UTF-8"?>
<!--Generator: Apple Native CoreSVG 232.5-->
<!DOCTYPE svg
PUBLIC "-//W3C//DTD SVG 1.1//EN"
       "http://www.w3.org/Graphics/SVG/1.1/DTD/svg11.dtd">
<svg version="1.1" xmlns="http://www.w3.org/2000/svg" xmlns:xlink="http://www.w3.org/1999/xlink" width="114.35" height="88.4395">
 <g>
  <rect height="88.4395" opacity="0" width="114.35" x="0" y="0"/>
  <path d="M14.3936 88.4092L99.9409 88.4092C109.514 88.4092 114.35 83.5615 114.35 74.169L114.35 14.2739C114.35 4.88135 109.514 0 99.9409 0L14.3936 0C4.86963 0 0 4.83594 0 14.2739L0 74.169C0 83.6069 4.86963 88.4092 14.3936 88.4092ZM23.9048 82.7197C26.7832 70.0903 40.6328 59.9473 57.2085 59.9473C73.7656 59.9473 87.6152 70.0903 90.5273 82.7197ZM57.2085 51.835C47.9883 51.7827 40.7095 44.0982 40.6909 33.77C40.6572 24.0464 47.9883 16.0317 57.2085 16.0317C66.4439 16.0317 73.7412 24.0464 73.7412 33.77C73.7412 44.0982 66.4439 51.9024 57.2085 51.835Z" fill="#000000" fill-opacity="0.85"/>
 </g>
</svg>
