<?xml version="1.0" encoding="UTF-8"?>
<!--Generator: Apple Native CoreSVG 232.5-->
<!DOCTYPE svg
PUBLIC "-//W3C//DTD SVG 1.1//EN"
       "http://www.w3.org/Graphics/SVG/1.1/DTD/svg11.dtd">
<svg version="1.1" xmlns="http://www.w3.org/2000/svg" xmlns:xlink="http://www.w3.org/1999/xlink" width="115.637" height="102.543">
 <g>
  <rect height="102.543" opacity="0" width="115.637" x="0" y="0"/>
  <path d="M17.7529 91.1885C17.7529 92.5585 17.9382 93.9169 18.3862 95.1895L2.99805 95.1895C1.34912 95.1895 0 93.8403 0 92.1914C0 90.5425 1.34912 89.1597 2.99805 89.1597L17.8946 89.1597ZM115.637 92.1914C115.637 93.8403 114.288 95.1895 112.639 95.1895L97.2549 95.1895C97.7004 93.9169 97.8838 92.5585 97.8838 91.1885C97.8838 90.5207 97.8468 89.8454 97.7421 89.1597L112.639 89.1597C114.288 89.1597 115.637 90.5425 115.637 92.1914ZM24.6723 74.6533L2.99805 74.6533C1.34912 74.6533 0 73.2705 0 71.6216C0 69.9727 1.34912 68.6235 2.99805 68.6235L31.2272 68.6235C28.6981 70.4377 26.4949 72.4755 24.6723 74.6533ZM115.637 71.6216C115.637 73.2705 114.288 74.6533 112.639 74.6533L90.9645 74.6533C89.1418 72.4755 86.9387 70.4377 84.4095 68.6235L112.639 68.6235C114.288 68.6235 115.637 69.9727 115.637 71.6216ZM38.7792 54.1475L2.99805 54.1475C1.34912 54.1475 0 52.7495 0 51.1006C0 49.4517 1.34912 48.1025 2.99805 48.1025L36.2256 48.1025C36.7966 50.2685 37.663 52.3008 38.7792 54.1475ZM115.637 51.1006C115.637 52.7495 114.288 54.1475 112.639 54.1475L76.8312 54.1475C77.9442 52.3019 78.8095 50.2698 79.3837 48.1025L112.639 48.1025C114.288 48.1025 115.637 49.4517 115.637 51.1006ZM36.5955 33.5777L2.99805 33.5777C1.34912 33.5777 0 32.2285 0 30.5645C0 28.9155 1.34912 27.5327 2.99805 27.5327L39.6057 27.5327C38.3275 29.345 37.3033 31.3753 36.5955 33.5777ZM115.637 30.5645C115.637 32.2285 114.288 33.5777 112.639 33.5777L79.0689 33.5777C78.3683 31.371 77.3533 29.3426 76.0877 27.5327L112.639 27.5327C114.288 27.5327 115.637 28.9155 115.637 30.5645ZM115.637 10.0586C115.637 11.7075 114.288 13.0567 112.639 13.0567L2.99805 13.0567C1.34912 13.0567 0 11.7075 0 10.0586C0 8.40968 1.34912 7.01172 2.99805 7.01172L112.639 7.01172C114.288 7.01172 115.637 8.40968 115.637 10.0586Z" fill="#000000" fill-opacity="0.85"/>
  <path d="M57.8184 59.8897C66.7388 59.8897 74.6641 51.7354 74.6641 41.335C74.6641 30.9346 66.7388 23.3662 57.8184 23.3662C48.9165 23.3662 40.9727 31.1299 40.9727 41.4326C40.9727 51.7354 48.9165 59.8897 57.8184 59.8897ZM32.8184 96.8525L82.8184 96.8525C90.0449 96.8525 92.2422 94.8018 92.2422 91.1885C92.2422 80.6416 79.0586 66.0908 57.8184 66.0908C36.5781 66.0908 23.4282 80.6416 23.4282 91.1885C23.4282 94.8018 25.5918 96.8525 32.8184 96.8525Z" fill="#000000" fill-opacity="0.85"/>
 </g>
</svg>
