<?xml version="1.0" encoding="UTF-8"?>
<!--Generator: Apple Native CoreSVG 232.5-->
<!DOCTYPE svg
PUBLIC "-//W3C//DTD SVG 1.1//EN"
       "http://www.w3.org/Graphics/SVG/1.1/DTD/svg11.dtd">
<svg version="1.1" xmlns="http://www.w3.org/2000/svg" xmlns:xlink="http://www.w3.org/1999/xlink" width="143.965" height="98.3311">
 <g>
  <rect height="98.3311" opacity="0" width="143.965" x="0" y="0"/>
  <path d="M63.2985 63.0957C55.3681 69.9523 50.9126 78.7066 50.9126 86.4981C50.9126 88.7799 51.4045 90.8926 52.5064 92.6743L13.4785 92.6743C8.03761 92.6743 5.64161 90.5054 5.64161 86.1074C5.64161 72.4946 19.3052 56.4771 41.2207 56.4771C50.0432 56.4771 57.5315 59.0765 63.2985 63.0957ZM58.1104 30.374C58.1104 40.9092 50.4727 49.0064 41.2998 49.0064C32.0933 49.0064 24.4707 40.9092 24.4707 30.4414C24.4707 20.2344 32.1875 12.2183 41.2998 12.2183C50.3633 12.2183 58.1104 20.0996 58.1104 30.374Z" fill="#000000" fill-opacity="0.85"/>
  <path d="M97.501 47.9136C108.075 47.9136 116.805 38.5991 116.805 26.4981C116.805 14.7554 107.98 5.62305 97.501 5.62305C87.0215 5.62305 78.1816 14.875 78.1816 26.5654C78.1816 38.5991 86.9273 47.9136 97.501 47.9136ZM65.9102 92.6743L128.967 92.6743C135.604 92.6743 138.308 90.7495 138.308 86.4981C138.308 73.9609 122.627 56.669 97.4219 56.669C72.25 56.669 56.5693 73.9609 56.5693 86.4981C56.5693 90.7495 59.2886 92.6743 65.9102 92.6743Z" fill="#000000" fill-opacity="0.85"/>
 </g>
</svg>
