<?xml version="1.0" encoding="UTF-8"?>
<!--Generator: Apple Native CoreSVG 232.5-->
<!DOCTYPE svg
PUBLIC "-//W3C//DTD SVG 1.1//EN"
       "http://www.w3.org/Graphics/SVG/1.1/DTD/svg11.dtd">
<svg version="1.1" xmlns="http://www.w3.org/2000/svg" xmlns:xlink="http://www.w3.org/1999/xlink" width="111.266" height="109.588">
 <g>
  <rect height="109.588" opacity="0" width="111.266" x="0" y="0"/>
  <path d="M57.5836 67.0552C56.9638 66.9875 56.3065 66.9746 55.6408 66.9746C32.6686 66.9746 19.5851 82.2339 19.5851 91.5166C19.5851 93.0718 20.3644 93.6255 22.5724 93.6255L84.1539 93.6255L89.7439 99.2155C88.9408 99.2953 88.071 99.3335 87.1373 99.3335L24.1291 99.3335C16.9435 99.3335 13.5402 97.0889 13.5402 92.1265C13.5402 80.0114 28.0496 62.9981 51.9404 61.412ZM76.1896 32.1265C76.1896 39.9206 72.6346 46.7365 67.1845 50.7542L63.0081 46.5778C67.2877 43.7169 70.1447 38.3773 70.1447 32.1265C70.1447 23.0215 63.6613 15.9287 55.671 15.9287C49.6975 15.9287 44.5181 20.0112 42.3228 25.8925L37.8372 21.4069C41.3554 14.7346 48.041 10.2207 55.671 10.2207C67.0416 10.2207 76.1896 19.9444 76.1896 32.1265Z" fill="#000000" fill-opacity="0.85"/>
  <path d="M100.04 100.719C101.172 101.851 103.069 101.817 104.167 100.686C105.344 99.4898 105.314 97.6909 104.167 96.5591L14.7672 7.09573C13.6505 5.97902 11.7843 5.93361 10.6071 7.09573C9.46009 8.19387 9.46009 10.1241 10.6071 11.2222Z" fill="#000000" fill-opacity="0.85"/>
 </g>
</svg>
