<?xml version="1.0" encoding="UTF-8"?>
<!--Generator: Apple Native CoreSVG 232.5-->
<!DOCTYPE svg
PUBLIC "-//W3C//DTD SVG 1.1//EN"
       "http://www.w3.org/Graphics/SVG/1.1/DTD/svg11.dtd">
<svg version="1.1" xmlns="http://www.w3.org/2000/svg" xmlns:xlink="http://www.w3.org/1999/xlink" width="170.322" height="113.999">
 <g>
  <rect height="113.999" opacity="0" width="170.322" x="0" y="0"/>
  <path d="M160.244 1.34409C166.542 9.68882 170.322 21.7088 170.322 33.8905C170.322 46.057 166.509 58.0096 160.244 66.4217C159.228 67.8382 157.512 68.1717 156.099 67.2084C154.701 66.2601 154.517 64.5101 155.582 62.9622C161.2 55.0726 164.479 44.7601 164.479 33.8905C164.479 23.0209 161.267 12.641 155.582 4.81871C154.483 3.25572 154.701 1.50571 156.099 0.557468C157.512-0.405913 159.228-0.106107 160.244 1.34409Z" fill="#000000" fill-opacity="0.85"/>
  <path d="M143.03 14.1639C146.774 19.1175 149.172 26.1776 149.172 33.8905C149.172 41.5882 146.774 48.682 143.03 53.5682C142.014 55.0184 140.264 55.2845 138.952 54.3885C137.468 53.3055 137.236 51.5067 138.401 49.9251C141.593 45.4403 143.329 40.0843 143.329 33.8905C143.329 27.6815 141.627 22.2918 138.401 17.8407C137.202 16.2928 137.468 14.4266 138.952 13.3773C140.264 12.4476 142.014 12.7474 143.03 14.1639Z" fill="#000000" fill-opacity="0.85"/>
  <path d="M67.6178 70.9295C59.6875 77.7861 55.2319 86.5404 55.2319 94.3319C55.2319 96.6138 55.7238 98.7264 56.8257 100.508L17.7979 100.508C12.3569 100.508 9.96094 98.3392 9.96094 93.9413C9.96094 80.3285 23.6245 64.3109 45.54 64.3109C54.3625 64.3109 61.8508 66.9103 67.6178 70.9295ZM62.4297 38.2079C62.4297 48.743 54.792 56.8402 45.6191 56.8402C36.4126 56.8402 28.79 48.743 28.79 38.2752C28.79 28.0682 36.5068 20.0521 45.6191 20.0521C54.6826 20.0521 62.4297 27.9334 62.4297 38.2079Z" fill="#000000" fill-opacity="0.85"/>
  <path d="M101.82 55.7474C112.394 55.7474 121.125 46.433 121.125 34.3319C121.125 22.5892 112.3 13.4569 101.82 13.4569C91.3408 13.4569 82.501 22.7088 82.501 34.3993C82.501 46.433 91.2466 55.7474 101.82 55.7474ZM70.2295 100.508L133.287 100.508C139.923 100.508 142.627 98.5834 142.627 94.3319C142.627 81.7948 126.947 64.5028 101.741 64.5028C76.5693 64.5028 60.8887 81.7948 60.8887 94.3319C60.8887 98.5834 63.6079 100.508 70.2295 100.508Z" fill="#000000" fill-opacity="0.85"/>
 </g>
</svg>
