<?xml version="1.0" encoding="UTF-8"?>
<!--Generator: Apple Native CoreSVG 232.5-->
<!DOCTYPE svg
PUBLIC "-//W3C//DTD SVG 1.1//EN"
       "http://www.w3.org/Graphics/SVG/1.1/DTD/svg11.dtd">
<svg version="1.1" xmlns="http://www.w3.org/2000/svg" xmlns:xlink="http://www.w3.org/1999/xlink" width="83.2398" height="101.46">
 <g>
  <rect height="101.46" opacity="0" width="83.2398" x="0" y="0"/>
  <path d="M41.6182 34.7192C50.6382 34.7344 57.7168 27.0059 57.7168 17.144C57.7168 7.6543 50.5288 0 41.6182 0C32.647 0 25.4741 7.68799 25.5532 17.1963C25.5986 27.0244 32.5679 34.7192 41.6182 34.7192ZM41.6182 29.333C35.645 29.333 31.209 24.2285 31.209 17.1963C31.209 10.5142 35.7241 5.38624 41.6182 5.38624C47.4668 5.38624 52.061 10.5142 52.061 17.144C52.061 24.1948 47.561 29.333 41.6182 29.333ZM15.1191 69.7564L68.0264 69.7564C72.1245 69.7564 74.3926 67.7002 74.3926 64.0767C74.3926 54.1274 61.8638 39.8945 41.5728 39.8945C21.2481 39.8945 8.76807 54.1274 8.76807 64.0767C8.76807 67.7002 10.9873 69.7564 15.1191 69.7564ZM16.6607 64.3701C14.9541 64.3701 14.4238 63.9678 14.4912 62.8569C15.1011 56.0357 24.7549 45.2959 41.5728 45.2959C58.3569 45.2959 68.0596 56.0357 68.6694 62.8569C68.7368 63.9678 68.1577 64.3701 66.4849 64.3701ZM2.99805 101.46L80.2417 101.46C81.8906 101.46 83.2398 100.111 83.2398 98.4619C83.2398 96.813 81.8906 95.4302 80.2417 95.4302L77.2446 95.4302L77.2446 82.0552C77.2446 77.8364 75.1094 75.4468 70.6514 75.4468L12.6035 75.4468C8.16407 75.4468 5.99512 77.8364 5.99512 82.0552L5.99512 95.4302L2.99805 95.4302C1.34912 95.4302 0 96.813 0 98.4619C0 100.111 1.34912 101.46 2.99805 101.46ZM31.291 91.2124C29.8428 91.2124 28.792 90.0943 28.792 88.6309C28.792 87.2163 29.8428 86.1319 31.291 86.1319L52.0313 86.1319C53.4609 86.1319 54.5303 87.2163 54.5303 88.6309C54.5303 90.0943 53.4609 91.2124 52.0313 91.2124Z" fill="#000000" fill-opacity="0.85"/>
 </g>
</svg>
