<?xml version="1.0" encoding="UTF-8"?>
<!--Generator: Apple Native CoreSVG 232.5-->
<!DOCTYPE svg
PUBLIC "-//W3C//DTD SVG 1.1//EN"
       "http://www.w3.org/Graphics/SVG/1.1/DTD/svg11.dtd">
<svg version="1.1" xmlns="http://www.w3.org/2000/svg" xmlns:xlink="http://www.w3.org/1999/xlink" width="83.2398" height="101.925">
 <g>
  <rect height="101.925" opacity="0" width="83.2398" x="0" y="0"/>
  <path d="M41.6182 34.9399C50.5708 35.0073 57.604 27.3125 57.604 17.2822C57.604 7.89014 50.5405 0 41.6182 0C32.7329 0 25.5566 7.89014 25.6021 17.2822C25.6021 27.3125 32.669 34.9063 41.6182 34.9399ZM13.3359 69.9888L69.8433 69.9888C72.8975 69.9888 74.7056 68.1113 74.7056 65.4595C74.7056 57.0029 63.085 40.9961 41.5728 40.9961C20.0269 40.9961 8.43995 57.0029 8.43995 65.4595C8.43995 68.1113 10.2817 69.9888 13.3359 69.9888ZM2.99805 101.692L80.2417 101.692C81.8906 101.692 83.2398 100.343 83.2398 98.6944C83.2398 97.0454 81.8906 95.6626 80.2417 95.6626L77.2446 95.6626L77.2446 82.2876C77.2446 78.0689 75.1094 75.6792 70.6514 75.6792L12.6035 75.6792C8.16407 75.6792 5.99512 78.0689 5.99512 82.2876L5.99512 95.6626L2.99805 95.6626C1.34912 95.6626 0 97.0454 0 98.6944C0 100.343 1.34912 101.692 2.99805 101.692ZM31.291 91.4448C29.8428 91.4448 28.792 90.3267 28.792 88.8633C28.792 87.4487 29.8428 86.3643 31.291 86.3643L52.0313 86.3643C53.4609 86.3643 54.5303 87.4487 54.5303 88.8633C54.5303 90.3267 53.4609 91.4448 52.0313 91.4448Z" fill="#000000" fill-opacity="0.85"/>
 </g>
</svg>
