<?xml version="1.0" encoding="UTF-8"?>
<!--Generator: Apple Native CoreSVG 232.5-->
<!DOCTYPE svg
PUBLIC "-//W3C//DTD SVG 1.1//EN"
       "http://www.w3.org/Graphics/SVG/1.1/DTD/svg11.dtd">
<svg version="1.1" xmlns="http://www.w3.org/2000/svg" xmlns:xlink="http://www.w3.org/1999/xlink" width="118.285" height="87.085">
 <g>
  <rect height="87.085" opacity="0" width="118.285" x="0" y="0"/>
  <path d="M7.77442 87.0513L73.9644 87.0513C78.7651 87.0513 81.7388 84.6704 81.7388 80.875C81.7388 68.3379 66.0581 51.0459 40.8525 51.0459C15.6807 51.0459 0 68.3379 0 80.875C0 84.6704 2.97363 87.0513 7.77442 87.0513ZM40.9316 42.2905C51.4717 42.2905 60.2358 32.9761 60.2358 20.875C60.2358 9.13232 51.4111 0 40.9316 0C30.4522 0 21.6123 9.25195 21.6123 20.9424C21.6123 32.9761 30.3579 42.2905 40.9316 42.2905Z" fill="#000000" fill-opacity="0.85"/>
  <path d="M81.1011 40.9375C82.0122 40.9375 82.7315 40.604 83.3731 39.9439L98.1299 25.1533L112.939 39.9439C113.581 40.5703 114.296 40.9375 115.177 40.9375C116.905 40.9375 118.251 39.5547 118.251 37.8755C118.251 36.9946 117.951 36.2974 117.306 35.6523L102.47 20.8315L117.34 5.92823C118.019 5.26466 118.285 4.60108 118.285 3.75391C118.285 2.07471 116.939 0.725585 115.211 0.725585C114.382 0.725585 113.734 1.02539 113.04 1.71924L98.1299 16.5435L83.3057 1.75293C82.6641 1.09277 82.0122 0.792968 81.1011 0.792968C79.4067 0.792968 78.0273 2.1084 78.0273 3.77247C78.0273 4.63477 78.3608 5.3506 78.9722 5.96192L93.8081 20.8315L78.9722 35.686C78.3608 36.2974 78.0273 37.0132 78.0273 37.8755C78.0273 39.5547 79.4067 40.9375 81.1011 40.9375Z" fill="#000000" fill-opacity="0.85"/>
 </g>
</svg>
