<?xml version="1.0" encoding="UTF-8"?>
<!--Generator: Apple Native CoreSVG 232.5-->
<!DOCTYPE svg
PUBLIC "-//W3C//DTD SVG 1.1//EN"
       "http://www.w3.org/Graphics/SVG/1.1/DTD/svg11.dtd">
<svg version="1.1" xmlns="http://www.w3.org/2000/svg" xmlns:xlink="http://www.w3.org/1999/xlink" width="114.35" height="88.4395">
 <g>
  <rect height="88.4395" opacity="0" width="114.35" x="0" y="0"/>
  <path d="M114.35 14.2739L114.35 74.169C114.35 83.5615 109.514 88.4092 99.9409 88.4092L14.3936 88.4092C4.86963 88.4092 0 83.6069 0 74.169L0 14.2739C0 4.83594 4.86963 0 14.3936 0L99.9409 0C109.514 0 114.35 4.88135 114.35 14.2739ZM19.4395 23.0142C14.8174 23.0142 12.5342 25.2974 12.5342 29.8521L12.5342 58.7153C12.5342 63.2363 14.8174 65.5532 19.4395 65.5532L48.1494 65.5532C52.7563 65.5532 55.0732 63.2061 55.0732 58.7153L55.0732 29.8521C55.0732 25.3613 52.7563 23.0142 48.1494 23.0142ZM62.5581 44.2627C62.5581 56.707 70.9766 65.1978 83.2661 65.1978C86.7915 65.1978 89.8408 64.8257 91.5669 64.1353C92.707 63.6704 93.3555 62.9766 93.3555 61.9155C93.3555 60.8579 92.6397 60.0142 91.5029 60.0142C90.9238 60.0142 90.4238 60.1909 89.4981 60.3491C88.1206 60.563 86.6289 61.0127 83.6553 61.0127C73.4473 61.0127 66.9268 54.4873 66.9268 44.2964C66.9268 34.3916 73.6543 27.4468 83.2407 27.4468C92.7783 27.4468 99.2534 33.5464 99.2534 42.5317C99.2534 48.2388 97.5732 51.5117 94.7114 51.5117C92.8042 51.5117 91.8853 50.4683 91.8853 48.3711L91.8853 35.5532C91.8853 34.312 91.0078 33.3672 89.8003 33.3672C88.8438 33.3672 87.9849 34.0762 87.7827 34.9771L87.7827 35.8521C86.5015 34.2881 84.5991 33.3672 82.1309 33.3672C76.7632 33.3672 72.9849 37.9907 72.9849 44.4326C72.9849 51.0396 76.7632 55.5317 82.2168 55.5317C84.9004 55.5317 87.0605 54.3516 88.5405 52.1899C89.5693 54.3364 91.748 55.5469 94.3896 55.5469C99.8872 55.5469 103.386 50.4434 103.386 42.3447C103.386 31.1768 95.0469 23.3628 83.2407 23.3628C71.1162 23.3628 62.5581 31.9883 62.5581 44.2627ZM49.3198 61.5737L18.333 61.5737C19.332 57.2446 24.5386 51.8345 33.8433 51.8345C43.0806 51.8345 48.3208 57.2446 49.3198 61.5737ZM87.8838 44.1733C87.8838 48.606 85.8838 51.3584 82.7407 51.3584C79.5523 51.3584 77.5288 48.6733 77.5288 44.3804C77.5288 40.1514 79.6314 37.4395 82.7744 37.4395C85.9326 37.4395 87.8838 39.9849 87.8838 44.1733ZM41.7803 39.3853C41.7803 44.3286 38.2344 48.1187 33.7944 48.1187C29.3394 48.1187 25.8272 44.3286 25.8272 39.3853C25.8272 34.6709 29.3394 30.8506 33.7944 30.8506C38.2344 30.8506 41.7803 34.6709 41.7803 39.3853Z" fill="#000000" fill-opacity="0.85"/>
 </g>
</svg>
