<?xml version="1.0" encoding="UTF-8"?>
<!--Generator: Apple Native CoreSVG 232.5-->
<!DOCTYPE svg
PUBLIC "-//W3C//DTD SVG 1.1//EN"
       "http://www.w3.org/Graphics/SVG/1.1/DTD/svg11.dtd">
<svg version="1.1" xmlns="http://www.w3.org/2000/svg" xmlns:xlink="http://www.w3.org/1999/xlink" width="97.9595" height="97.9932">
 <g>
  <rect height="97.9932" opacity="0" width="97.9595" x="0" y="0"/>
  <path d="M48.9722 97.9443C75.8247 97.9443 97.9595 75.7759 97.9595 48.9722C97.9595 22.1348 75.791 0 48.9385 0C22.1348 0 0 22.1348 0 48.9722C0 75.7759 22.1685 97.9443 48.9722 97.9443ZM48.9722 91.6113C25.3501 91.6113 6.36671 72.5942 6.36671 48.9722C6.36671 25.3501 25.3164 6.31789 48.9385 6.31789C72.5605 6.31789 91.6265 25.3501 91.6265 48.9722C91.6265 72.5942 72.5942 91.6113 48.9722 91.6113Z" fill="#000000" fill-opacity="0.85"/>
  <path d="M22.9131 48.9722C22.9131 45.8037 23.398 42.8609 24.3945 40.125L19.9483 38.2539C18.7158 41.5337 17.9683 45.2192 17.9683 48.9722C17.9683 52.6914 18.7158 56.3618 19.9483 59.6904L24.3945 57.8345C23.4131 55.0835 22.9131 52.0615 22.9131 48.9722ZM37.9004 25.3023L35.9434 20.8711C29.3535 23.9927 23.9775 29.3872 20.856 35.9619L25.336 37.8516C27.8613 32.3867 32.3716 27.9102 37.9004 25.3023ZM48.9385 22.8154C52.043 22.8154 55.0835 23.3794 57.8496 24.3794L59.6719 19.9483C56.3618 18.7007 52.6914 17.938 48.9385 17.938C45.2529 17.938 41.5 18.7007 38.2202 19.9483L40.1065 24.3794C42.8423 23.3643 45.8037 22.8154 48.9385 22.8154ZM72.6084 37.8516L77.1035 35.9619C73.9331 29.3872 68.5571 23.9775 61.9487 20.8071L60.0928 25.3023C65.5542 27.8765 70.0342 32.3716 72.6084 37.8516ZM75.1289 48.9722C75.1289 52.0615 74.5649 55.0835 73.5649 57.8345L77.9961 59.6904C79.2437 56.3618 80.0064 52.6914 80.0064 48.9722C80.0064 45.2192 79.2437 41.6128 77.9961 38.2691L73.5649 40.125C74.5952 42.8609 75.1289 45.8037 75.1289 48.9722ZM48.9722 79.9424C61.1992 79.9424 72.1348 72.4551 77.1221 61.9673L72.6084 60.0591C71.5259 62.3335 70.2852 64.3789 68.5815 66.1987C65.5859 62.478 58.375 58.6113 48.9722 58.6113C39.5693 58.6113 32.3921 62.478 29.3477 66.1348C27.6743 64.3486 26.4336 62.3032 25.3696 60.0591L20.9048 61.9673C25.8247 72.4551 36.794 79.9424 48.9722 79.9424ZM48.9722 54.436C55.0503 54.4697 59.8809 49.2368 59.8809 42.5054C59.8809 36.1006 55.0049 30.7398 48.9722 30.7398C42.9546 30.7398 38.0147 36.1006 38.1274 42.5054C38.1274 49.2368 42.8755 54.4024 48.9722 54.436Z" fill="#000000" fill-opacity="0.85"/>
 </g>
</svg>
