<?xml version="1.0" encoding="UTF-8"?>
<!--Generator: Apple Native CoreSVG 232.5-->
<!DOCTYPE svg
PUBLIC "-//W3C//DTD SVG 1.1//EN"
       "http://www.w3.org/Graphics/SVG/1.1/DTD/svg11.dtd">
<svg version="1.1" xmlns="http://www.w3.org/2000/svg" xmlns:xlink="http://www.w3.org/1999/xlink" width="84.1524" height="89.1465">
 <g>
  <rect height="89.1465" opacity="0" width="84.1524" x="0" y="0"/>
  <path d="M10.5401 89.1128L73.5972 89.1128C80.749 89.1128 84.1524 86.8682 84.1524 81.9058C84.1524 69.1733 68.1113 51.0308 42.0855 51.0308C16.0259 51.0308 0 69.1733 0 81.9058C0 86.8682 3.38819 89.1128 10.5401 89.1128ZM9.03223 83.4048C6.82423 83.4048 6.04494 82.8511 6.04494 81.2959C6.04494 72.0132 19.1133 56.7539 42.0855 56.7539C65.0239 56.7539 78.1074 72.0132 78.1074 81.2959C78.1074 82.8511 77.3618 83.4048 75.1538 83.4048ZM42.1309 44.3521C53.5249 44.3521 62.6494 34.3823 62.6494 21.9058C62.6494 9.72363 53.4526 0 42.1309 0C30.8462 0 21.6123 9.87354 21.6123 21.9731C21.6123 34.416 30.7368 44.3521 42.1309 44.3521ZM42.1309 38.644C34.1846 38.644 27.6572 31.3574 27.6572 21.9731C27.6572 12.917 34.1777 5.70802 42.1309 5.70802C50.0874 5.70802 56.6045 12.8008 56.6045 21.9058C56.6045 31.3052 50.1108 38.644 42.1309 38.644Z" fill="#000000" fill-opacity="0.85"/>
 </g>
</svg>
