<?xml version="1.0" encoding="UTF-8"?>
<!--Generator: Apple Native CoreSVG 232.5-->
<!DOCTYPE svg
PUBLIC "-//W3C//DTD SVG 1.1//EN"
       "http://www.w3.org/Graphics/SVG/1.1/DTD/svg11.dtd">
<svg version="1.1" xmlns="http://www.w3.org/2000/svg" xmlns:xlink="http://www.w3.org/1999/xlink" width="167.69" height="78.5596">
 <g>
  <rect height="78.5596" opacity="0" width="167.69" x="0" y="0"/>
  <path d="M35.6064 39.104C45.6333 39.104 53.7207 30.3062 53.7207 19.291C53.7207 8.604 45.5947 0 35.6064 0C25.5913 0 17.4956 8.72022 17.4956 19.3247C17.4956 30.355 25.5947 39.104 35.6064 39.104ZM35.6064 33.396C28.8926 33.396 23.4917 27.3149 23.4917 19.3247C23.4917 11.7149 28.8858 5.70802 35.6064 5.70802C42.2666 5.70802 47.7095 11.6323 47.7095 19.291C47.7095 27.2627 42.3389 33.396 35.6064 33.396ZM9.22853 78.3726L61.8447 78.3726C67.9409 78.3726 71.0884 76.1382 71.0884 71.6875C71.0884 60.6084 58.2178 44.6631 35.5273 44.6631C12.8706 44.6631 0 60.6084 0 71.6875C0 76.1382 3.09864 78.3726 9.22853 78.3726ZM7.9751 72.6494C6.60695 72.6494 6.02638 72.084 6.02638 71.044C6.02638 63.4331 15.8906 50.3862 35.5273 50.3862C55.1641 50.3862 65.0283 63.4331 65.0283 71.044C65.0283 72.084 64.4478 72.6494 63.1133 72.6494ZM132.242 39.2725C142.269 39.2725 150.323 30.4595 150.323 19.4595C150.323 8.75733 142.231 0.153321 132.242 0.153321C122.242 0.153321 114.098 8.88867 114.098 19.4932C114.098 30.5234 122.197 39.2725 132.242 39.2725ZM132.242 33.5493C125.51 33.5493 120.109 27.4834 120.109 19.4932C120.109 11.8682 125.537 5.87648 132.242 5.87648C138.884 5.87648 144.327 11.7857 144.327 19.4595C144.327 27.416 138.99 33.5493 132.242 33.5493ZM105.879 78.5259L158.462 78.5259C164.592 78.5259 167.69 76.2915 167.69 71.8408C167.69 60.7617 154.869 44.8315 132.163 44.8315C109.473 44.8315 96.6509 60.7617 96.6509 71.8408C96.6509 76.2915 99.7496 78.5259 105.879 78.5259ZM104.626 72.8179C103.243 72.8179 102.677 72.2373 102.677 71.1973C102.677 63.6016 112.542 50.5396 132.163 50.5396C151.8 50.5396 161.664 63.6016 161.664 71.1973C161.664 72.2373 161.099 72.8179 159.715 72.8179Z" fill="#000000" fill-opacity="0.85"/>
  <path d="M68.9487 39.1196C70.9409 39.1196 72.5728 37.4878 72.5728 35.4956C72.5728 33.5186 70.9409 31.8867 68.9487 31.8867C66.9717 31.8867 65.3399 33.5186 65.3399 35.4956C65.3399 37.4878 66.9717 39.1196 68.9487 39.1196ZM83.9033 39.1196C85.8804 39.1196 87.5122 37.4878 87.5122 35.4956C87.5122 33.5186 85.8804 31.8867 83.9033 31.8867C81.9112 31.8867 80.2793 33.5186 80.2793 35.4956C80.2793 37.4878 81.9112 39.1196 83.9033 39.1196ZM98.7754 39.1196C100.752 39.1196 102.384 37.4878 102.384 35.4956C102.384 33.5186 100.752 31.8867 98.7754 31.8867C96.7832 31.8867 95.1514 33.5186 95.1514 35.4956C95.1514 37.4878 96.7832 39.1196 98.7754 39.1196Z" fill="#000000" fill-opacity="0.85"/>
 </g>
</svg>
