<?xml version="1.0" encoding="UTF-8"?>
<!--Generator: Apple Native CoreSVG 232.5-->
<!DOCTYPE svg
PUBLIC "-//W3C//DTD SVG 1.1//EN"
       "http://www.w3.org/Graphics/SVG/1.1/DTD/svg11.dtd">
<svg version="1.1" xmlns="http://www.w3.org/2000/svg" xmlns:xlink="http://www.w3.org/1999/xlink" width="119.848" height="89.0987">
 <g>
  <rect height="89.0987" opacity="0" width="119.848" x="0" y="0"/>
  <path d="M104.63 36.8945C114.272 40.5352 119.848 49.2554 119.848 59.2066C119.848 72.0742 108.763 82.2295 94.5166 82.2295L28.1431 82.1841C12.0493 82.1841 0 70.835 0 56.8731C0 45.2163 6.96045 35.8374 17.7231 34.5034C17.8008 21.0737 30.7959 11.9883 42.4595 15.9883C47.9102 7.24658 57.0918 0 70.3848 0C89.7954 0 105 15.6016 104.63 36.8945ZM35.7305 75.2066L90.2871 75.2066C86.3477 66.4336 77.2554 58.2349 63.0088 58.2349C48.7622 58.2349 39.6548 66.4336 35.7305 75.2066ZM50.1211 38.144C50.1851 45.8843 55.8628 52.1582 63.0088 52.271C70.106 52.3687 75.8814 45.8843 75.8814 38.144C75.8814 30.6074 70.106 24.4229 63.0088 24.4229C55.8628 24.4229 50.106 30.6074 50.1211 38.144Z" fill="#000000" fill-opacity="0.85"/>
 </g>
</svg>
