<?xml version="1.0" encoding="UTF-8"?>
<!--Generator: Apple Native CoreSVG 232.5-->
<!DOCTYPE svg
PUBLIC "-//W3C//DTD SVG 1.1//EN"
       "http://www.w3.org/Graphics/SVG/1.1/DTD/svg11.dtd">
<svg version="1.1" xmlns="http://www.w3.org/2000/svg" xmlns:xlink="http://www.w3.org/1999/xlink" width="100.217" height="126.214">
 <g>
  <rect height="126.214" opacity="0" width="100.217" x="0" y="0"/>
  <path d="M71.6813 13.437L28.5355 13.437C28.798 10.3145 30.9305 8.45849 34.2715 8.45849L65.9453 8.45849C69.2863 8.45849 71.4188 10.3145 71.6813 13.437Z" fill="#000000" fill-opacity="0.85"/>
  <path d="M81.3246 26.2523C80.0957 26.075 78.7967 25.9971 77.4473 25.9971L22.7695 25.9971C21.4206 25.9971 20.1221 26.0744 18.8936 26.2505C19.3888 22.6194 21.935 20.562 25.9795 20.562L74.271 20.562C78.3162 20.562 80.8358 22.6201 81.3246 26.2523Z" fill="#000000" fill-opacity="0.85"/>
  <path d="M91.856 48.6319L91.856 103.564C91.856 112.972 86.9863 117.838 77.4473 117.838L22.7695 117.838C13.2305 117.838 8.36084 113.002 8.36084 103.564L8.36084 48.6319C8.36084 39.1602 13.2305 34.3579 22.7695 34.3579L77.4473 34.3579C86.9863 34.3579 91.856 39.2393 91.856 48.6319ZM14.4058 98.6861L14.4058 103.365C14.4058 109.003 17.3975 111.928 22.9009 111.928L37.6355 111.928C37.1851 110.791 36.9307 109.508 36.9307 108.092C36.9307 102.635 39.6992 96.5953 44.5995 91.9011C41.4216 90.1838 37.566 89.0801 33.2647 89.0801C24.4756 89.0801 17.5811 93.6885 14.4058 98.6861ZM42.3179 108.092C42.3179 110.232 43.2847 111.536 43.9751 111.928L77.3345 111.928C82.3394 111.928 85.811 109.003 85.811 103.365L85.811 99.8325C81.9336 93.8516 74.5937 89.1929 65.3589 89.1929C51.1992 89.1929 42.3179 100.087 42.3179 108.092ZM23.7349 73.5987C23.7349 79.6128 28.0689 84.2144 33.3286 84.2144C38.5884 84.2144 42.9038 79.6128 42.9038 73.565C42.9038 67.7393 38.5244 63.2456 33.3286 63.2456C28.0991 63.2456 23.7349 67.7915 23.7349 73.5987ZM54.3677 71.4234C54.3677 78.2456 59.355 83.5611 65.4077 83.5611C71.3999 83.5611 76.3501 78.2456 76.3501 71.356C76.3501 64.6817 71.3696 59.4776 65.4414 59.4776C59.4189 59.4776 54.3677 64.7676 54.3677 71.4234Z" fill="#000000" fill-opacity="0.85"/>
 </g>
</svg>
