<?xml version="1.0" encoding="UTF-8"?>
<!--Generator: Apple Native CoreSVG 232.5-->
<!DOCTYPE svg
PUBLIC "-//W3C//DTD SVG 1.1//EN"
       "http://www.w3.org/Graphics/SVG/1.1/DTD/svg11.dtd">
<svg version="1.1" xmlns="http://www.w3.org/2000/svg" xmlns:xlink="http://www.w3.org/1999/xlink" width="88.4092" height="88.5371">
 <g>
  <rect height="88.5371" opacity="0" width="88.4092" x="0" y="0"/>
  <path d="M88.4092 14.4019L88.4092 74.2632C88.4092 83.6558 83.5733 88.5371 74.0005 88.5371L14.3936 88.5371C4.86963 88.5371 0 83.7349 0 74.2632L0 14.4019C0 4.93018 4.86963 0.127929 14.3936 0.127929L74.0005 0.127929C83.5733 0.127929 88.4092 5.00928 88.4092 14.4019ZM10.9404 82.8477L77.5967 82.8477C74.6846 70.2183 60.835 60.0415 44.2778 60.0415C27.687 60.0415 13.8526 70.2183 10.9404 82.8477ZM27.6963 33.8643C27.73 44.1924 34.9937 51.8955 44.229 51.9629C53.4492 52.0303 60.7617 44.1924 60.7617 33.8643C60.7617 24.1406 53.4492 16.126 44.229 16.126C34.9937 16.126 27.6626 24.1406 27.6963 33.8643Z" fill="#000000" fill-opacity="0.85"/>
 </g>
</svg>
