<?xml version="1.0" encoding="UTF-8"?>
<!--Generator: Apple Native CoreSVG 232.5-->
<!DOCTYPE svg
PUBLIC "-//W3C//DTD SVG 1.1//EN"
       "http://www.w3.org/Graphics/SVG/1.1/DTD/svg11.dtd">
<svg version="1.1" xmlns="http://www.w3.org/2000/svg" xmlns:xlink="http://www.w3.org/1999/xlink" width="171.334" height="113.999">
 <g>
  <rect height="113.999" opacity="0" width="171.334" x="0" y="0"/>
  <path d="M161.256 1.34409C167.54 9.68882 171.334 21.7088 171.334 33.8905C171.334 46.057 167.521 58.0096 161.256 66.4217C160.225 67.8382 158.509 68.1717 157.111 67.2084C155.731 66.2601 155.529 64.5101 156.594 62.9622C162.23 55.0726 165.492 44.7601 165.492 33.8905C165.492 23.0209 162.298 12.641 156.594 4.81871C155.496 3.25572 155.731 1.50571 157.111 0.557468C158.509-0.405913 160.225-0.106107 161.256 1.34409Z" fill="#000000" fill-opacity="0.85"/>
  <path d="M144.042 14.1639C147.787 19.1175 150.184 26.1776 150.184 33.8905C150.184 41.5882 147.787 48.682 144.042 53.5682C143.011 55.0184 141.261 55.2845 139.998 54.3885C138.48 53.3055 138.282 51.5067 139.414 49.9251C142.605 45.4403 144.341 40.0843 144.341 33.8905C144.341 27.6815 142.639 22.2918 139.414 17.8407C138.248 16.2928 138.48 14.4266 139.998 13.3773C141.261 12.4476 143.011 12.7474 144.042 14.1639Z" fill="#000000" fill-opacity="0.85"/>
  <path d="M68.4845 69.6973C66.946 70.9603 65.5458 72.3022 64.3069 73.7064C59.251 70.7265 53.0934 68.9359 46.5522 68.9359C29.8589 68.9359 15.6167 80.6239 15.6167 93.6869C15.6167 95.2992 16.3472 95.9471 18.0806 95.9471L55.1695 95.9471C55.3765 98.0353 56.0241 99.9287 57.1492 101.539L18.8774 101.539C12.918 101.539 9.96094 99.0653 9.96094 93.975C9.96094 78.5057 25.5786 63.329 46.5522 63.329C54.9564 63.329 62.4938 65.7615 68.4845 69.6973ZM64.4727 37.7513C64.4727 48.7142 56.5234 57.4295 46.6162 57.4295C36.7241 57.4295 28.79 48.7479 28.79 37.8187C28.79 27.285 36.7998 18.5648 46.6162 18.5648C56.4849 18.5648 64.4727 27.1688 64.4727 37.7513ZM34.4458 37.8187C34.4458 45.6371 39.9175 51.7738 46.6162 51.7738C53.3638 51.7738 58.8506 45.6371 58.8506 37.7513C58.8506 30.246 53.374 24.2054 46.6162 24.2054C39.9443 24.2054 34.4458 30.3285 34.4458 37.8187Z" fill="#000000" fill-opacity="0.85"/>
  <path d="M102.866 56.7782C114.26 56.7782 123.37 46.8084 123.37 34.3319C123.37 22.1498 114.188 12.4261 102.866 12.4261C91.5815 12.4261 82.3477 22.2997 82.3477 34.3993C82.3477 46.8421 91.4907 56.7782 102.866 56.7782ZM102.866 51.0702C94.9199 51.0702 88.3926 43.7835 88.3926 34.3993C88.3926 25.3431 94.9131 18.1341 102.866 18.1341C110.823 18.1341 117.34 25.2269 117.34 34.3319C117.34 43.7313 110.865 51.0702 102.866 51.0702ZM71.3091 101.539L134.333 101.539C141.484 101.539 144.873 99.2943 144.873 94.3319C144.873 81.5995 128.847 63.4569 102.821 63.4569C76.7612 63.4569 60.7354 81.5995 60.7354 94.3319C60.7354 99.2943 64.1235 101.539 71.3091 101.539ZM69.7676 95.8309C67.5444 95.8309 66.7652 95.2772 66.7652 93.722C66.7652 84.4393 79.8486 69.18 102.821 69.18C125.759 69.18 138.843 84.4393 138.843 93.722C138.843 95.2772 138.097 95.8309 135.874 95.8309Z" fill="#000000" fill-opacity="0.85"/>
 </g>
</svg>
