<?xml version="1.0" encoding="UTF-8"?>
<!--Generator: Apple Native CoreSVG 232.5-->
<!DOCTYPE svg
PUBLIC "-//W3C//DTD SVG 1.1//EN"
       "http://www.w3.org/Graphics/SVG/1.1/DTD/svg11.dtd">
<svg version="1.1" xmlns="http://www.w3.org/2000/svg" xmlns:xlink="http://www.w3.org/1999/xlink" width="114.35" height="88.4395">
 <g>
  <rect height="88.4395" opacity="0" width="114.35" x="0" y="0"/>
  <path d="M114.35 14.2739L114.35 74.169C114.35 83.5615 109.514 88.4092 99.9409 88.4092L14.3936 88.4092C4.86963 88.4092 0 83.6069 0 74.169L0 14.2739C0 4.83594 4.86963 0 14.3936 0L99.9409 0C109.514 0 114.35 4.88135 114.35 14.2739ZM14.4277 64.7261C14.4277 66.0093 15.0425 66.917 16.4268 66.917L56.0903 66.917C57.4746 66.917 58.0894 66.0093 58.0894 64.7261C58.0894 60 51.0986 47.6084 36.2417 47.6084C21.3999 47.6084 14.4277 60 14.4277 64.7261ZM68.6074 61.8711C67.1978 61.8711 66.1367 62.9658 66.1367 64.3267C66.1367 65.6538 67.1978 66.6812 68.6074 66.6812L96.085 66.6812C97.4609 66.6812 98.522 65.6538 98.522 64.3267C98.522 62.9658 97.4609 61.8711 96.085 61.8711ZM68.6074 41.8711C67.1978 41.8711 66.1367 42.8984 66.1367 44.2407C66.1367 45.6016 67.1978 46.6963 68.6074 46.6963L96.085 46.6963C97.4609 46.6963 98.522 45.6016 98.522 44.2407C98.522 42.8984 97.4609 41.8711 96.085 41.8711ZM25.3667 32.2632C25.3667 39.0737 30.2275 44.1148 36.2417 44.1148C42.2896 44.1484 47.1167 39.0737 47.1167 32.2632C47.1167 25.9072 42.2896 20.6406 36.2417 20.6406C30.2275 20.6406 25.3667 25.9072 25.3667 32.2632ZM68.6074 21.8525C67.1978 21.8525 66.1367 22.9136 66.1367 24.2407C66.1367 25.6016 67.1978 26.6626 68.6074 26.6626L96.085 26.6626C97.4609 26.6626 98.522 25.6016 98.522 24.2407C98.522 22.9136 97.4609 21.8525 96.085 21.8525Z" fill="#000000" fill-opacity="0.85"/>
 </g>
</svg>
