<?xml version="1.0" encoding="UTF-8"?>
<!--Generator: Apple Native CoreSVG 232.5-->
<!DOCTYPE svg
PUBLIC "-//W3C//DTD SVG 1.1//EN"
       "http://www.w3.org/Graphics/SVG/1.1/DTD/svg11.dtd">
<svg version="1.1" xmlns="http://www.w3.org/2000/svg" xmlns:xlink="http://www.w3.org/1999/xlink" width="107.333" height="97.9932">
 <g>
  <rect height="97.9932" opacity="0" width="107.333" x="0" y="0"/>
  <path d="M58.3575 97.9443C85.1612 97.9443 107.33 75.7759 107.33 48.9722C107.33 22.1348 85.1612 0 58.3575 0C31.5201 0 9.38533 22.1011 9.38533 48.9385L15.7032 48.9385C15.7032 25.3164 34.7354 6.35158 58.3575 6.35158C81.9796 6.35158 101.012 25.3501 101.012 48.9722C101.012 72.5942 81.9796 91.6787 58.3575 91.6113C43.5182 91.5928 30.6148 84.0068 22.9474 72.5923C21.8121 71.0444 20.047 70.561 18.4806 71.479C16.9967 72.397 16.5655 74.4165 17.8018 76.0655C26.943 89.0161 41.5392 97.9443 58.3575 97.9443ZM2.84969 40.0024C7.79875e-05 40.0024-0.788009 41.9561 0.828693 44.2666L11.4786 59.4307C12.8326 61.3438 14.7677 61.3101 16.1031 59.4307L26.753 44.2329C28.336 41.9561 27.5479 40.0024 24.7169 40.0024Z" fill="#000000" fill-opacity="0.85"/>
  <path d="M41.4552 41.3784C41.4552 42.5337 42.2989 43.4111 43.4205 43.4111L46.3082 43.4111L46.3082 69.9551C46.3082 71.5112 47.4063 72.5269 48.8834 72.5269C50.3604 72.5269 51.3727 71.5112 51.3727 69.9551L51.3727 55.6406L60.0235 55.6406C68.151 55.6406 73.6622 50.7861 74.4874 43.4111L76.9 43.4111C78.0553 43.4111 78.8653 42.5337 78.8653 41.3784C78.8653 40.1895 78.0553 39.3794 76.9 39.3794L74.42 39.3794C73.4601 32.2065 68.0348 27.603 60.0235 27.603L48.816 27.603C47.2716 27.603 46.3082 28.6152 46.3082 30.1748L46.3082 39.3794L43.4205 39.3794C42.2989 39.3794 41.4552 40.1895 41.4552 41.3784ZM51.4063 51.0142L51.4063 43.4111L69.3556 43.4111C68.6314 48.1841 65.0504 51.0142 59.3126 51.0142ZM51.4063 39.3794L51.4063 32.2446L59.3126 32.2446C64.8331 32.2446 68.4141 34.8574 69.2545 39.3794Z" fill="#000000" fill-opacity="0.85"/>
 </g>
</svg>
