<?xml version="1.0" encoding="UTF-8"?>
<!--Generator: Apple Native CoreSVG 232.5-->
<!DOCTYPE svg
PUBLIC "-//W3C//DTD SVG 1.1//EN"
       "http://www.w3.org/Graphics/SVG/1.1/DTD/svg11.dtd">
<svg version="1.1" xmlns="http://www.w3.org/2000/svg" xmlns:xlink="http://www.w3.org/1999/xlink" width="97.9595" height="97.9932">
 <g>
  <rect height="97.9932" opacity="0" width="97.9595" x="0" y="0"/>
  <path d="M48.9722 97.9443C75.8247 97.9443 97.9595 75.7759 97.9595 48.9722C97.9595 22.1348 75.791 0 48.9385 0C22.1348 0 0 22.1348 0 48.9722C0 75.7759 22.1685 97.9443 48.9722 97.9443ZM48.9722 91.6113C25.3501 91.6113 6.36671 72.5942 6.36671 48.9722C6.36671 25.3501 25.3164 6.31789 48.9385 6.31789C72.5605 6.31789 91.6265 25.3501 91.6265 48.9722C91.6265 72.5942 72.5942 91.6113 48.9722 91.6113Z" fill="#000000" fill-opacity="0.85"/>
  <path d="M32.0361 41.3784C32.0361 42.5337 32.8799 43.4111 34.0352 43.4111L36.9229 43.4111L36.9229 69.9551C36.9229 71.5112 38.021 72.5269 39.4644 72.5269C40.9414 72.5269 41.9873 71.5112 41.9873 69.9551L41.9873 55.6406L50.6382 55.6406C58.7319 55.6406 64.2769 50.7861 65.0684 43.4111L67.481 43.4111C68.6362 43.4111 69.48 42.5337 69.48 41.3784C69.48 40.1895 68.6362 39.3794 67.481 39.3794L65.001 39.3794C64.041 32.2065 58.6157 27.603 50.6382 27.603L39.397 27.603C37.8862 27.603 36.9229 28.6152 36.9229 30.1748L36.9229 39.3794L34.0352 39.3794C32.8799 39.3794 32.0361 40.1895 32.0361 41.3784ZM42.021 51.0142L42.021 43.4111L59.9365 43.4111C59.2461 48.1841 55.6314 51.0142 49.9273 51.0142ZM42.021 39.3794L42.021 32.2446L49.9273 32.2446C55.4478 32.2446 58.9951 34.8574 59.8355 39.3794Z" fill="#000000" fill-opacity="0.85"/>
 </g>
</svg>
