<?xml version="1.0" encoding="UTF-8"?>
<!--Generator: Apple Native CoreSVG 232.5-->
<!DOCTYPE svg
PUBLIC "-//W3C//DTD SVG 1.1//EN"
       "http://www.w3.org/Graphics/SVG/1.1/DTD/svg11.dtd">
<svg version="1.1" xmlns="http://www.w3.org/2000/svg" xmlns:xlink="http://www.w3.org/1999/xlink" width="70.4932" height="89.2949">
 <g>
  <rect height="89.2949" opacity="0" width="70.4932" x="0" y="0"/>
  <path d="M9.11963 85.8066C9.11963 87.7437 10.7046 89.2949 12.6416 89.2949C14.5938 89.2949 16.1299 87.7437 16.1299 85.8066L16.1299 54.9898L34.8584 54.9898C51.5508 54.9898 62.4619 44.3193 62.4619 28.3218C62.4619 12.3916 52.0596 1.7583 35.1802 1.7583L12.6416 1.7583C10.4873 1.7583 9.11963 3.22364 9.11963 5.41163ZM16.1299 48.7695L16.1299 8.04592L33.6572 8.04592C47.7056 8.04592 55.2983 15.5278 55.2983 28.3218C55.2983 41.1191 47.2676 48.7695 33.4028 48.7695ZM2.44043 30.523L68.0005 30.523C69.4136 30.523 70.4932 29.3609 70.4932 27.9815C70.4932 26.5835 69.4136 25.4888 68.0005 25.4888L2.44043 25.4888C1.06104 25.4888 0 26.5835 0 27.9815C0 29.3609 1.06104 30.523 2.44043 30.523Z" fill="#000000" fill-opacity="0.85"/>
 </g>
</svg>
