<?xml version="1.0" encoding="UTF-8"?>
<!--Generator: Apple Native CoreSVG 232.5-->
<!DOCTYPE svg
PUBLIC "-//W3C//DTD SVG 1.1//EN"
       "http://www.w3.org/Graphics/SVG/1.1/DTD/svg11.dtd">
<svg version="1.1" xmlns="http://www.w3.org/2000/svg" xmlns:xlink="http://www.w3.org/1999/xlink" width="88.4092" height="88.5371">
 <g>
  <rect height="88.5371" opacity="0" width="88.4092" x="0" y="0"/>
  <path d="M14.3936 88.5371L74.0005 88.5371C83.5733 88.5371 88.4092 83.6558 88.4092 74.2632L88.4092 14.4019C88.4092 5.00928 83.5733 0.127929 74.0005 0.127929L14.3936 0.127929C4.86963 0.127929 0 4.93018 0 14.4019L0 74.2632C0 83.7349 4.86963 88.5371 14.3936 88.5371ZM14.5064 82.4922C9.00294 82.4922 6.04494 79.6016 6.04494 73.9634L6.04494 14.7017C6.04494 9.06349 9.00294 6.17287 14.5064 6.17287L73.9028 6.17287C79.2969 6.17287 82.3643 9.06349 82.3643 14.7017L82.3643 73.9634C82.3643 79.6016 79.2969 82.4922 73.9028 82.4922Z" fill="#000000" fill-opacity="0.85"/>
  <path d="M27.3267 36.6504C27.3267 37.8057 28.1704 38.6831 29.3257 38.6831L32.1982 38.6831L32.1982 65.2271C32.1982 66.7832 33.3115 67.7988 34.7549 67.7988C36.2319 67.7988 37.2778 66.7832 37.2778 65.2271L37.2778 50.9126L45.9136 50.9126C54.0073 50.9126 59.5674 46.0581 60.3438 38.6831L62.7564 38.6831C63.9605 38.6831 64.7705 37.8057 64.7705 36.6504C64.7705 35.4614 63.9605 34.6514 62.7564 34.6514L60.2915 34.6514C59.3501 27.4785 53.8911 22.875 45.9136 22.875L34.6875 22.875C33.1768 22.875 32.1982 23.8872 32.1982 25.4468L32.1982 34.6514L29.3257 34.6514C28.1704 34.6514 27.3267 35.4614 27.3267 36.6504ZM37.3115 46.2861L37.3115 38.6831L55.2119 38.6831C54.5215 43.4561 50.9219 46.2861 45.2178 46.2861ZM37.3115 34.6514L37.3115 27.5166L45.2178 27.5166C50.7383 27.5166 54.3193 30.1294 55.1108 34.6514Z" fill="#000000" fill-opacity="0.85"/>
 </g>
</svg>
