<?xml version="1.0" encoding="UTF-8"?>
<!--Generator: Apple Native CoreSVG 232.5-->
<!DOCTYPE svg
PUBLIC "-//W3C//DTD SVG 1.1//EN"
       "http://www.w3.org/Graphics/SVG/1.1/DTD/svg11.dtd">
<svg version="1.1" xmlns="http://www.w3.org/2000/svg" xmlns:xlink="http://www.w3.org/1999/xlink" width="97.9595" height="97.9932">
 <g>
  <rect height="97.9932" opacity="0" width="97.9595" x="0" y="0"/>
  <path d="M97.9595 48.9722C97.9595 75.7759 75.8247 97.9443 48.9722 97.9443C22.1685 97.9443 0 75.7759 0 48.9722C0 22.1348 22.1348 0 48.9385 0C75.791 0 97.9595 22.1348 97.9595 48.9722ZM39.21 27.1768C37.6318 27.1768 36.6348 28.2227 36.6348 29.8496L36.6348 35.9766L33.6797 35.9766C32.4907 35.9766 31.647 36.7866 31.647 38.0093C31.647 39.1982 32.4907 40.1094 33.6797 40.1094L36.6348 40.1094L36.6348 43.7524L33.6797 43.7524C32.4907 43.7524 31.647 44.5962 31.647 45.8525C31.647 47.0078 32.4907 47.8853 33.6797 47.8853L36.6348 47.8853L36.6348 70.5059C36.6348 72.062 37.7666 73.1113 39.2774 73.1113C40.7881 73.1113 41.8526 72.062 41.8526 70.5059L41.8526 56.7559L50.6719 56.7559C57.4204 56.7559 62.4063 53.3325 64.4893 47.8853L67.9038 47.8853C69.0928 47.8853 69.9365 47.0078 69.9365 45.8525C69.9365 44.5962 69.0928 43.7524 67.9038 43.7524L65.3784 43.7524C65.4912 43.1733 65.5064 42.5269 65.5064 41.9326C65.5064 41.3198 65.4912 40.7896 65.4273 40.1094L67.9038 40.1094C69.0928 40.1094 69.9365 39.1982 69.9365 38.0093C69.9365 36.7866 69.0928 35.9766 67.9038 35.9766L64.4707 35.9766C62.3877 30.5664 57.4204 27.1768 50.6719 27.1768ZM49.9946 51.9273L41.8862 51.9273L41.8862 47.8853L58.6567 47.8853C56.978 50.4946 54.0015 51.9273 49.9946 51.9273ZM60.3745 41.9326C60.3745 42.5269 60.3442 43.1733 60.2466 43.7524L41.8862 43.7524L41.8862 40.1094L60.2466 40.1094C60.3442 40.6582 60.3745 41.271 60.3745 41.9326ZM58.6382 35.9766L41.8862 35.9766L41.8862 31.9717L49.9946 31.9717C54.0015 31.9717 56.9932 33.4346 58.6382 35.9766Z" fill="#000000" fill-opacity="0.85"/>
 </g>
</svg>
