<?xml version="1.0" encoding="UTF-8"?>
<!--Generator: Apple Native CoreSVG 232.5-->
<!DOCTYPE svg
PUBLIC "-//W3C//DTD SVG 1.1//EN"
       "http://www.w3.org/Graphics/SVG/1.1/DTD/svg11.dtd">
<svg version="1.1" xmlns="http://www.w3.org/2000/svg" xmlns:xlink="http://www.w3.org/1999/xlink" width="97.9595" height="97.9932">
 <g>
  <rect height="97.9932" opacity="0" width="97.9595" x="0" y="0"/>
  <path d="M97.9595 49.021C97.9595 75.8584 75.8247 97.9932 48.9722 97.9932C22.1685 97.9932 0 75.8584 0 49.021C0 22.2173 22.1348 0.0488281 48.9385 0.0488281C75.791 0.0488281 97.9595 22.2173 97.9595 49.021ZM23.7329 28.7925C23.4736 28.9878 23.2783 29.1982 23.083 29.3936C14.1206 38.3223 21.7764 53.5361 33.2681 65.0615C44.7295 76.5566 60.0073 84.2241 68.9512 75.2651C69.2476 74.9839 69.4009 74.7666 69.6333 74.5005C72.2612 71.6856 72.7412 68.4946 70.1748 66.3428C68.5005 65.0273 66.5098 63.6782 60.876 59.8169C58.2642 57.9746 56.2388 58.2393 53.8413 60.5576L51.7451 62.605C51.208 63.1758 50.2583 63.1724 49.5781 62.7329C47.832 61.7378 44.7813 59.4058 41.8281 56.5015C38.9424 53.582 36.543 50.4116 35.6118 48.7666C35.2363 48.1538 35.1318 47.332 35.7398 46.7275L37.7534 44.5034C40.0903 41.9932 40.3399 40.0503 38.4487 37.4199L32.1265 28.4678C29.936 25.3682 26.7388 26.6807 23.7329 28.7925ZM53.8081 25.1455C52.5972 25.1455 51.5732 26.2031 51.6406 27.3804C51.6743 28.5391 52.6006 29.4468 53.8081 29.4468L59.3799 29.4468L66.52 29.1504L62.9019 32.6001L49.5562 45.9307C49.061 46.4561 48.8623 46.9512 48.8623 47.5845C48.8623 48.7769 49.7734 49.6055 51.0635 49.6055C51.6294 49.6055 52.207 49.4102 52.522 49.0732L65.8828 35.6485L69.3325 31.9629L69.1001 39.1704L69.1001 44.52C69.1001 45.6939 69.9438 46.5899 71.1025 46.6909C72.3438 46.7246 73.3223 45.7461 73.3223 44.52L73.3223 27.4175C73.3223 25.9893 72.4937 25.1455 71.0689 25.1455Z" fill="#000000" fill-opacity="0.85"/>
 </g>
</svg>
