<?xml version="1.0" encoding="UTF-8"?>
<!--Generator: Apple Native CoreSVG 232.5-->
<!DOCTYPE svg
PUBLIC "-//W3C//DTD SVG 1.1//EN"
       "http://www.w3.org/Graphics/SVG/1.1/DTD/svg11.dtd">
<svg version="1.1" xmlns="http://www.w3.org/2000/svg" xmlns:xlink="http://www.w3.org/1999/xlink" width="89.377" height="91.6465">
 <g>
  <rect height="91.6465" opacity="0" width="89.377" x="0" y="0"/>
  <path d="M24.169 67.3731C37.7656 80.9697 54.6773 91.6465 68.6607 91.6465C75.0503 91.6465 80.5376 89.4341 85.0415 84.6421C87.5083 81.9732 89.377 78.5889 89.377 75.2686C89.377 72.9634 88.4644 70.7105 86.124 69.0503L71.1792 58.5117C69.1904 57.1157 67.3584 56.3648 65.6006 56.3648C63.479 56.3648 61.4165 57.5283 59.125 59.7407L55.5825 63.1738C55.0606 63.6958 54.3921 63.94 53.7422 63.94C53.0703 63.94 52.3984 63.6924 51.8799 63.4483C48.9888 61.9277 43.7373 57.7266 38.752 52.7749C33.8003 47.8384 29.5537 42.6172 28.1274 39.6655C27.8833 39.1133 27.6509 38.5054 27.6509 37.8638C27.6509 37.2593 27.8311 36.6397 28.3682 36.1177L31.835 32.4321C33.9985 30.1104 35.1807 28.0816 35.1807 25.9111C35.1807 24.1685 34.4297 22.355 32.9512 20.3023L22.7256 5.81007C21.02 3.40577 18.5938 2.35011 16.0024 2.35011C12.8857 2.35011 9.61084 3.84522 6.72998 6.6587C2.06934 11.1997 0 16.815 0 22.9858C0 36.9541 10.5269 53.7798 24.169 67.3731Z" fill="#000000" fill-opacity="0.85"/>
 </g>
</svg>
