<?xml version="1.0" encoding="UTF-8"?>
<!--Generator: Apple Native CoreSVG 232.5-->
<!DOCTYPE svg
PUBLIC "-//W3C//DTD SVG 1.1//EN"
       "http://www.w3.org/Graphics/SVG/1.1/DTD/svg11.dtd">
<svg version="1.1" xmlns="http://www.w3.org/2000/svg" xmlns:xlink="http://www.w3.org/1999/xlink" width="88.8941" height="105.975">
 <g>
  <rect height="105.975" opacity="0" width="88.8941" x="0" y="0"/>
  <path d="M0 52.9631C0.0151366 71.0046 4.34228 88.9348 13.8892 98.6365C18.4487 103.26 24.2861 106.025 31.7432 105.924C38.8921 105.823 43.7031 101.515 42.4824 94.6946L39.4888 77.6633C38.6182 72.4582 36.2373 70.0071 30.085 70.0071L27.271 70.0071C21.7251 70.0071 20.6445 65.0603 20.6445 52.9631C20.6445 40.866 21.7251 35.9192 27.271 35.9192L30.085 35.9192C36.1699 35.9192 38.5845 33.4866 39.4888 28.2629L42.4824 11.2317C43.7031 4.37719 38.8921 0.103754 31.7432 0.00267942C24.2861-0.0983952 18.4487 2.66625 13.8892 7.2561C4.34228 16.9578 0.0151366 34.8728 0 52.9631Z" fill="#000000" fill-opacity="0.85"/>
  <path d="M41.4121 55.6731L70.1792 55.6731L79.3735 55.3513L68.7139 65.2244L62.3003 71.6379C61.7681 72.1702 61.4868 72.9011 61.4868 73.6843C61.4868 75.2473 62.6152 76.3269 64.1108 76.3269C64.8604 76.3269 65.5762 76.0271 66.1084 75.4949L86.6914 54.9456C87.3247 54.3123 87.6582 53.6116 87.6582 52.9631C87.6582 52.3298 87.3247 51.5803 86.6914 50.947L66.1084 30.4314C65.5762 29.8992 64.8604 29.5994 64.1108 29.5994C62.6152 29.5994 61.4868 30.6638 61.4868 32.2083C61.4868 33.0251 61.7681 33.7073 62.3003 34.2546L68.7139 40.7019L79.3735 50.5413L70.1792 50.2195L41.4121 50.2195C39.7295 50.2195 38.6685 51.5349 38.6685 52.9631C38.6685 54.3914 39.7295 55.6731 41.4121 55.6731Z" fill="#000000" fill-opacity="0.85"/>
 </g>
</svg>
