<?xml version="1.0" encoding="UTF-8"?>
<!--Generator: Apple Native CoreSVG 232.5-->
<!DOCTYPE svg
PUBLIC "-//W3C//DTD SVG 1.1//EN"
       "http://www.w3.org/Graphics/SVG/1.1/DTD/svg11.dtd">
<svg version="1.1" xmlns="http://www.w3.org/2000/svg" xmlns:xlink="http://www.w3.org/1999/xlink" width="106.345" height="106.897">
 <g>
  <rect height="106.897" opacity="0" width="106.345" x="0" y="0"/>
  <path d="M75.529 99.9167C83.3136 99.9167 89.0197 97.7277 93.985 92.3732C94.2848 92.0734 94.5509 91.7399 94.8356 91.4552C97.7653 88.3048 99.1325 85.0973 99.1325 82.0968C99.1325 78.9293 97.3542 75.9757 93.6291 73.4025L79.4806 63.6603C75.4645 60.8903 70.716 60.4425 66.4933 64.6012L62.9303 68.1188C61.8224 69.2116 60.6793 69.3815 59.3444 68.6222C56.9533 67.1891 51.5553 62.7472 47.382 58.6041C42.8166 54.1027 39.6354 50.3878 37.6706 46.9635C36.9264 45.6286 37.1149 44.5041 38.2228 43.4113L41.7067 39.8483C45.8991 35.6105 45.4362 30.8434 42.6813 26.8458L32.8903 12.6974C30.3507 8.98744 27.4123 7.25794 24.2448 7.20911C21.2443 7.16029 18.0065 8.59144 14.8712 11.506C14.5377 11.8058 14.2682 12.0568 13.9347 12.3229C8.65931 17.2428 6.42494 22.9337 6.42494 30.6393C6.42494 44.3468 15.276 60.8092 30.4118 75.9298C45.4347 90.9377 61.8703 99.9167 75.529 99.9167ZM75.5626 94.0016C63.1266 94.1549 47.5534 84.7511 34.7252 71.9567C21.8297 59.0949 12.153 43.1056 12.3063 30.6544C12.3737 25.2077 14.2291 20.4025 18.1925 16.7946C18.4249 16.5622 18.6725 16.3483 18.9386 16.1496C20.7028 14.4865 22.5714 13.6515 24.1203 13.6515C25.6911 13.6515 27.006 14.3249 28.0397 15.9108L37.5123 30.029C38.7194 31.8151 38.9381 33.9025 36.9249 35.8854L32.9157 39.8644C29.9669 42.7794 30.0934 46.5177 32.111 49.4562C34.4401 52.883 38.9865 58.1549 43.3786 62.5924C47.8346 67.0939 53.4249 71.8678 56.8366 74.2306C59.7902 76.2331 63.5622 76.341 66.4621 73.4108L70.4411 69.4166C72.4391 67.4035 74.4928 67.6071 76.2638 68.7804L90.3971 78.2531C91.9679 79.3205 92.6749 80.6168 92.6749 82.1725C92.6749 83.7853 91.8551 85.6051 90.1281 87.4181C89.9293 87.6842 89.7794 87.8678 89.547 88.1339C85.8751 92.0939 81.0548 93.9342 75.5626 94.0016Z" fill="#000000" fill-opacity="0.85"/>
  <path d="M58.4147 47.9118C60.9606 50.4577 65.069 50.4577 67.63 47.8966C70.1422 45.3507 70.1422 41.2726 67.63 38.7789C65.069 36.1842 60.9606 36.1842 58.4147 38.6964C55.8385 41.2726 55.8385 45.3507 58.4147 47.9118ZM63.2335 22.1779C62.0343 23.3434 62.0343 25.277 63.2335 26.4425L79.8537 43.1266C81.0343 44.2921 82.9831 44.2921 84.1335 43.1266C85.299 41.9611 85.299 40.0275 84.1335 38.8619L67.4645 22.1779C66.299 21.0123 64.3502 21.0123 63.2335 22.1779ZM79.7521 26.6417C82.298 29.0866 86.4064 29.1203 88.9337 26.5592C91.446 24.047 91.446 19.9537 88.9337 17.4415C86.4064 14.8805 82.2643 14.8805 79.7521 17.3927C77.1911 19.9537 77.1911 24.0133 79.7521 26.6417ZM84.571 0.874148C83.4054 2.03968 83.4054 3.93958 84.571 5.13881L101.173 21.7892C102.372 22.9884 104.32 22.9884 105.471 21.7892C106.636 20.6237 106.636 18.7238 105.471 17.5582L88.8507 0.874148C87.6364-0.291383 85.6877-0.291383 84.571 0.874148Z" fill="#000000" fill-opacity="0.85"/>
 </g>
</svg>
