<?xml version="1.0" encoding="UTF-8"?>
<!--Generator: Apple Native CoreSVG 232.5-->
<!DOCTYPE svg
PUBLIC "-//W3C//DTD SVG 1.1//EN"
       "http://www.w3.org/Graphics/SVG/1.1/DTD/svg11.dtd">
<svg version="1.1" xmlns="http://www.w3.org/2000/svg" xmlns:xlink="http://www.w3.org/1999/xlink" width="97.9595" height="97.9932">
 <g>
  <rect height="97.9932" opacity="0" width="97.9595" x="0" y="0"/>
  <path d="M97.9595 49.021C97.9595 75.8584 75.8247 97.9932 48.9722 97.9932C22.1685 97.9932 0 75.8584 0 49.021C0 22.2173 22.1348 0.0488281 48.9385 0.0488281C75.791 0.0488281 97.9595 22.2173 97.9595 49.021ZM15.2095 53.2759L15.2095 53.7642C15.2095 56.9185 16.6714 60.2114 20.6616 60.2114C23.4634 60.2114 26.708 60.065 32.2964 58.3711C35.2651 57.4702 36.8174 56.1045 36.8662 52.4946L36.915 49.3662C36.915 48.7534 37.2534 48.3023 38.0615 48.043C39.7554 47.4907 43.6802 46.8071 48.9722 46.8071C54.2642 46.8071 58.189 47.4907 59.898 48.043C60.6909 48.3023 61.0444 48.7534 61.0444 49.3662L61.0933 52.4946C61.1758 56.1045 62.728 57.4702 65.6631 58.3711C71.2363 60.065 74.4961 60.2114 77.2979 60.2114C81.2881 60.2114 82.75 56.9185 82.75 53.7642L82.75 53.2759C82.75 40.0566 65.3281 33.8638 48.9722 33.8638C32.6314 33.8638 15.2095 40.0566 15.2095 53.2759Z" fill="#000000" fill-opacity="0.85"/>
 </g>
</svg>
