<?xml version="1.0" encoding="UTF-8"?>
<!--Generator: Apple Native CoreSVG 232.5-->
<!DOCTYPE svg
PUBLIC "-//W3C//DTD SVG 1.1//EN"
       "http://www.w3.org/Graphics/SVG/1.1/DTD/svg11.dtd">
<svg version="1.1" xmlns="http://www.w3.org/2000/svg" xmlns:xlink="http://www.w3.org/1999/xlink" width="104.049" height="103.544">
 <g>
  <rect height="103.544" opacity="0" width="104.049" x="0" y="0"/>
  <path d="M30.4811 73.3219C44.0778 86.9186 61.008 97.5954 75.0065 97.5954C81.3961 97.5954 86.8683 95.383 91.3722 90.591C93.8541 87.922 95.7077 84.5377 95.7077 81.2174C95.7077 78.9122 94.8102 76.6593 92.4362 74.9992L77.525 64.4606C75.5026 63.0646 73.7042 62.3136 71.9464 62.3136C69.776 62.3136 67.7472 63.4772 65.4708 65.6896L61.9284 69.1227C61.4064 69.6447 60.7379 69.8888 60.088 69.8888C59.3825 69.8888 58.7443 69.6413 58.192 69.3971C55.3346 67.8766 50.0831 63.6754 45.0827 58.7238C40.1461 53.7872 35.8996 48.5661 34.4733 45.6144C34.1955 45.0621 33.9816 44.4542 33.9816 43.8126C33.9816 43.2081 34.1769 42.5885 34.6989 42.0665L38.1471 38.381C40.3444 36.0592 41.4928 34.0304 41.4928 31.86C41.4928 30.1173 40.7418 28.3038 39.297 26.2511L29.0714 11.7589C27.317 9.35462 24.9396 8.29896 22.3483 8.29896C19.2316 8.29896 15.923 9.79408 13.0758 12.6076C8.40004 17.1486 6.34584 22.7638 6.34584 28.9347C6.34584 42.903 16.8727 59.7287 30.4811 73.3219Z" fill="#000000" fill-opacity="0.85"/>
  <path d="M56.1188 47.9118C58.6647 50.4728 62.7731 50.4728 65.3341 47.8966C67.88 45.3507 67.88 41.2726 65.3341 38.7789C62.7731 36.1842 58.6647 36.1842 56.1188 38.6964C53.5914 41.2726 53.5914 45.3507 56.1188 47.9118ZM60.9376 22.1779C59.7384 23.3434 59.7384 25.277 60.9376 26.4425L77.5729 43.1266C78.7384 44.2921 80.6872 44.2921 81.8375 43.1266C83.0031 41.9611 83.0031 40.0275 81.8375 38.8619L65.1837 22.1779C64.0031 21.0123 62.088 21.0123 60.9376 22.1779ZM77.4562 26.6417C80.0021 29.0866 84.1105 29.1203 86.653 26.5592C89.1652 24.047 89.1652 19.9537 86.653 17.4415C84.1105 14.8805 79.9684 14.8805 77.4562 17.3927C74.8952 19.9537 74.8952 24.0133 77.4562 26.6417ZM82.2902 0.874148C81.1095 2.03968 81.1095 3.93958 82.2902 5.13881L98.9103 21.7892C100.076 22.9884 102.025 22.9884 103.175 21.7892C104.34 20.6237 104.34 18.7238 103.175 17.5582L86.5548 0.874148C85.3556-0.291383 83.4069-0.291383 82.2902 0.874148Z" fill="#000000" fill-opacity="0.85"/>
 </g>
</svg>
