<?xml version="1.0" encoding="UTF-8"?>
<!--Generator: Apple Native CoreSVG 232.5-->
<!DOCTYPE svg
PUBLIC "-//W3C//DTD SVG 1.1//EN"
       "http://www.w3.org/Graphics/SVG/1.1/DTD/svg11.dtd">
<svg version="1.1" xmlns="http://www.w3.org/2000/svg" xmlns:xlink="http://www.w3.org/1999/xlink" width="97.9595" height="97.9932">
 <g>
  <rect height="97.9932" opacity="0" width="97.9595" x="0" y="0"/>
  <path d="M97.9595 49.021C97.9595 75.8584 75.8247 97.9932 48.9722 97.9932C22.1685 97.9932 0 75.8584 0 49.021C0 22.2173 22.1348 0.0488281 48.9385 0.0488281C75.791 0.0488281 97.9595 22.2173 97.9595 49.021ZM26.7456 24.6709C26.4526 24.8662 26.2573 25.0767 26.062 25.272C17.1484 34.2344 24.7705 49.4634 36.2808 60.9399C47.7422 72.4688 63.02 80.1362 71.9639 71.1924C72.2603 70.896 72.4136 70.645 72.6611 70.3789C75.2402 67.6128 75.7691 64.4219 73.1875 62.27C71.4795 60.9546 69.4888 59.624 63.9224 55.7441C61.2769 53.9204 59.2178 54.1514 56.8355 56.5034L54.7578 58.5171C54.2207 59.0879 53.271 59.0508 52.5571 58.645C50.8447 57.6162 47.794 55.333 44.8408 52.3799C41.9214 49.4605 39.5557 46.3574 38.606 44.6787C38.2827 44.0474 38.1445 43.2441 38.7339 42.606L40.7324 40.4155C43.1367 37.8867 43.3189 35.9287 41.4614 33.2983L35.1543 24.3613C32.9824 21.2466 29.7666 22.5742 26.7456 24.6709Z" fill="#000000" fill-opacity="0.85"/>
 </g>
</svg>
