<?xml version="1.0" encoding="UTF-8"?>
<!--Generator: Apple Native CoreSVG 232.5-->
<!DOCTYPE svg
PUBLIC "-//W3C//DTD SVG 1.1//EN"
       "http://www.w3.org/Graphics/SVG/1.1/DTD/svg11.dtd">
<svg version="1.1" xmlns="http://www.w3.org/2000/svg" xmlns:xlink="http://www.w3.org/1999/xlink" width="97.9595" height="97.9932">
 <g>
  <rect height="97.9932" opacity="0" width="97.9595" x="0" y="0"/>
  <path d="M48.9722 97.9443C75.8247 97.9443 97.9595 75.7759 97.9595 48.9722C97.9595 22.1348 75.791 0 48.9385 0C22.1348 0 0 22.1348 0 48.9722C0 75.7759 22.1685 97.9443 48.9722 97.9443ZM48.9722 91.6113C25.3501 91.6113 6.36671 72.5942 6.36671 48.9722C6.36671 25.3501 25.3164 6.31789 48.9385 6.31789C72.5605 6.31789 91.6265 25.3501 91.6265 48.9722C91.6265 72.5942 72.5942 91.6113 48.9722 91.6113Z" fill="#000000" fill-opacity="0.85"/>
  <path d="M36.4829 60.6704C47.7085 71.9297 62.6646 79.4439 71.4551 70.687C71.7363 70.3906 71.9048 70.1733 72.1035 69.9072C74.6978 67.1597 75.1777 64.0698 72.6787 61.918C71.0229 60.6699 69.0996 59.3545 63.5332 55.5269C60.9888 53.7368 58.9971 53.9678 56.6333 56.2861L54.6045 58.2661C54.0523 58.8184 53.1362 58.7998 52.4712 58.394C50.7588 57.3989 47.7603 55.1494 44.8745 52.2637C42.0225 49.4116 39.6904 46.3086 38.7593 44.6973C38.4024 44.0845 38.2979 43.2964 38.8872 42.6768L40.8672 40.52C43.1704 38.0586 43.3862 36.1343 41.5625 33.5713L35.375 24.7876C33.2183 21.7402 30.0884 23.0679 27.1348 25.1123C26.8755 25.3076 26.6802 25.5181 26.4849 25.7134C17.6909 34.4736 25.2119 49.3994 36.4829 60.6704Z" fill="#000000" fill-opacity="0.85"/>
 </g>
</svg>
