<?xml version="1.0" encoding="UTF-8"?>
<!--Generator: Apple Native CoreSVG 232.5-->
<!DOCTYPE svg
PUBLIC "-//W3C//DTD SVG 1.1//EN"
       "http://www.w3.org/Graphics/SVG/1.1/DTD/svg11.dtd">
<svg version="1.1" xmlns="http://www.w3.org/2000/svg" xmlns:xlink="http://www.w3.org/1999/xlink" width="92.7075" height="92.9365">
 <g>
  <rect height="92.9365" opacity="0" width="92.7075" x="0" y="0"/>
  <path d="M69.104 92.9365C76.9375 92.9365 82.6284 90.7476 87.5601 85.3931C87.8599 85.0933 88.1597 84.7598 88.4107 84.4751C91.3404 81.3247 92.7075 78.1172 92.7075 75.1167C92.7075 71.9492 90.9292 68.9956 87.2041 66.4224L73.0708 56.6802C69.0733 53.9102 64.3062 53.4624 60.0684 57.6211L56.5054 61.1387C55.3975 62.2315 54.2544 62.4014 52.9531 61.6421C50.5283 60.209 45.1304 55.7671 40.9722 51.624C36.4068 47.1226 33.2442 43.4077 31.2456 39.9834C30.5352 38.6485 30.69 37.5239 31.7979 36.4312L35.2818 32.8682C39.4741 28.6304 39.0112 23.8633 36.2564 19.8657L26.499 5.71729C23.9409 2.00733 20.9873 0.277832 17.8198 0.229004C14.8193 0.180176 11.5815 1.61133 8.44629 4.52588C8.1128 4.82568 7.84326 5.07666 7.54346 5.34278C2.23438 10.2627 0 15.9536 0 23.6592C0 37.3667 8.85107 53.8291 23.9868 68.9497C39.0098 83.9575 55.4605 92.9365 69.104 92.9365ZM69.1377 87.0215C56.7017 87.1748 41.1284 77.771 28.3003 64.9766C15.4048 52.1148 5.72804 36.1255 5.88136 23.6743C5.94874 18.2275 7.8379 13.4224 11.7827 9.81447C12.0488 9.58204 12.2476 9.36818 12.5137 9.16944C14.3115 7.50636 16.1465 6.6714 17.7441 6.6714C19.2661 6.6714 20.5962 7.34474 21.6299 8.93068L31.1025 23.0488C32.3096 24.835 32.5132 26.9224 30.5 28.9053L26.5059 32.8843C23.5757 35.7993 23.6685 39.5376 25.686 42.4761C28.0151 45.9029 32.5615 51.1748 36.9873 55.6123C41.4097 60.1138 47 64.8877 50.4453 67.2505C53.3989 69.2529 57.1372 69.3609 60.0371 66.4307L64.0161 62.4365C66.0142 60.4234 68.0679 60.627 69.8877 61.8003L84.0059 71.273C85.5581 72.3403 86.2651 73.6367 86.2651 75.1924C86.2651 76.8052 85.4302 78.625 83.7368 80.438C83.5044 80.7041 83.3545 80.8877 83.1221 81.1538C79.4839 85.1138 74.6636 86.9541 69.1377 87.0215Z" fill="#000000" fill-opacity="0.85"/>
 </g>
</svg>
