<?xml version="1.0" encoding="UTF-8"?>
<!--Generator: Apple Native CoreSVG 232.5-->
<!DOCTYPE svg
PUBLIC "-//W3C//DTD SVG 1.1//EN"
       "http://www.w3.org/Graphics/SVG/1.1/DTD/svg11.dtd">
<svg version="1.1" xmlns="http://www.w3.org/2000/svg" xmlns:xlink="http://www.w3.org/1999/xlink" width="91.4063" height="91.6465">
 <g>
  <rect height="91.6465" opacity="0" width="91.4063" x="0" y="0"/>
  <path d="M24.169 67.3731C37.7656 80.9697 54.6773 91.6465 68.6607 91.6465C75.0503 91.6465 80.5376 89.4341 85.0415 84.6421C87.5083 81.9732 89.377 78.5889 89.377 75.2686C89.377 72.9634 88.4644 70.7105 86.124 69.0503L71.1792 58.5117C69.1567 57.1157 67.3584 56.3648 65.6006 56.3648C63.479 56.3648 61.4165 57.5283 59.125 59.7407L55.5825 63.1738C55.0606 63.6958 54.3921 63.94 53.7422 63.94C53.0703 63.94 52.3984 63.6924 51.8799 63.4483C48.9888 61.9277 43.7373 57.7266 38.752 52.7749C33.8003 47.8384 29.5537 42.6172 28.1274 39.6655C27.8833 39.1133 27.6509 38.5054 27.6509 37.8638C27.6509 37.2593 27.8311 36.6397 28.3682 36.1177L31.835 32.4321C33.9985 30.1104 35.1807 28.0816 35.1807 25.9111C35.1807 24.1685 34.396 22.355 32.9512 20.3023L22.7256 5.81007C20.9863 3.40577 18.5938 2.35011 16.0024 2.35011C12.8857 2.35011 9.61084 3.84522 6.72998 6.6587C2.06934 11.1997 0 16.815 0 22.9858C0 36.9541 10.5269 53.7798 24.169 67.3731Z" fill="#000000" fill-opacity="0.85"/>
  <path d="M54.438 40.2857C55.1875 40.2857 55.8662 40.0381 56.4321 39.457L79.0059 16.8345L86.5068 8.8804L85.9526 23.4444L85.9526 32.5361C85.9526 34.0166 87.0659 35.1787 88.5615 35.2461C90.0908 35.2984 91.4063 34.084 91.4063 32.5361L91.4063 3.50783C91.4063 1.54054 90.4243 0.524911 88.4116 0.524911L59.1797 0.524911C57.6318 0.524911 56.3535 1.83693 56.4058 3.38478C56.4732 4.88039 57.6841 6.02395 59.1797 6.02395L68.5205 6.02395L83.1182 5.42434L75.0967 12.9253L52.5566 35.5327C51.8779 36.1777 51.5781 36.8599 51.5781 37.6582C51.5781 39.1538 52.8262 40.2857 54.438 40.2857Z" fill="#000000" fill-opacity="0.85"/>
 </g>
</svg>
