<?xml version="1.0" encoding="UTF-8"?>
<!--Generator: Apple Native CoreSVG 232.5-->
<!DOCTYPE svg
PUBLIC "-//W3C//DTD SVG 1.1//EN"
       "http://www.w3.org/Graphics/SVG/1.1/DTD/svg11.dtd">
<svg version="1.1" xmlns="http://www.w3.org/2000/svg" xmlns:xlink="http://www.w3.org/1999/xlink" width="114.35" height="88.4395">
 <g>
  <rect height="88.4395" opacity="0" width="114.35" x="0" y="0"/>
  <path d="M3.31592 0C1.30518 0 0 1.32031 0 3.33106L0 85.127C0 87.1377 1.30518 88.4092 3.31592 88.4092L111.052 88.4092C113.078 88.4092 114.35 87.1377 114.35 85.127L114.35 3.33106C114.35 1.32031 113.078 0 111.052 0ZM7.29445 6.04494L107.055 6.04494C107.948 6.04494 108.305 6.43556 108.305 7.29445L108.305 81.1147C108.305 82.0225 107.948 82.3794 107.055 82.3794L7.29445 82.3794C6.42042 82.3794 6.04494 82.0225 6.04494 81.1147L6.04494 7.29445C6.04494 6.43556 6.42042 6.04494 7.29445 6.04494Z" fill="#000000" fill-opacity="0.85"/>
  <path d="M14.063 11.6514C12.5103 11.6514 11.6362 12.5103 11.6362 14.0444L11.6362 74.4136C11.6362 75.8989 12.5103 76.8066 14.063 76.8066L100.305 76.8066C101.839 76.8066 102.747 75.8989 102.747 74.4136L102.747 14.0444C102.747 12.5103 101.839 11.6514 100.305 11.6514ZM16.6582 15.7505L97.6763 15.7505C98.3179 15.7505 98.6328 16.0654 98.6328 16.7071L98.6328 71.751C98.6328 72.3774 98.3179 72.7075 97.6763 72.7075L16.6582 72.7075C16.0318 72.7075 15.7354 72.3774 15.7354 71.751L15.7354 16.7071C15.7354 16.0654 16.0318 15.7505 16.6582 15.7505ZM99.9443 65.8769L76.2656 43.981C74.4204 42.2485 72.4521 41.4253 70.1743 41.4253C67.8896 41.4253 65.9702 42.1963 64.125 43.8833L46.1924 59.9185L38.7979 53.0981C37.1748 51.5728 35.4136 50.8135 33.4556 50.8135C31.6289 50.8135 30.0479 51.5728 28.3911 53.0645L13.5713 66.7139L13.5713 71.271C13.5713 73.8057 14.9961 74.9727 17.1148 74.9727L96.3672 74.9727C98.5195 74.9727 99.9443 73.8057 99.9443 71.271Z" fill="#000000" fill-opacity="0.85"/>
  <path d="M39.9458 43.5508C45.0137 43.5508 49.2026 39.3618 49.2026 34.2637C49.2026 29.1655 45.0137 24.9614 39.9458 24.9614C34.8477 24.9614 30.6587 29.1655 30.6587 34.2637C30.6587 39.3618 34.8477 43.5508 39.9458 43.5508Z" fill="#000000" fill-opacity="0.85"/>
 </g>
</svg>
