<?xml version="1.0" encoding="UTF-8"?>
<!--Generator: Apple Native CoreSVG 232.5-->
<!DOCTYPE svg
PUBLIC "-//W3C//DTD SVG 1.1//EN"
       "http://www.w3.org/Graphics/SVG/1.1/DTD/svg11.dtd">
<svg version="1.1" xmlns="http://www.w3.org/2000/svg" xmlns:xlink="http://www.w3.org/1999/xlink" width="114.35" height="88.4395">
 <g>
  <rect height="88.4395" opacity="0" width="114.35" x="0" y="0"/>
  <path d="M110.637 72.9551L80.9673 45.4062C78.6978 43.3135 76.1855 42.2427 73.3672 42.2427C70.5757 42.2427 68.2437 43.231 65.9067 45.3086L43.7002 65.1562L34.5156 56.7446C32.4648 54.8589 30.2944 53.8857 27.8936 53.8857C25.5752 53.8857 23.5664 54.8101 21.5796 56.6958L3.14258 73.5986C3.78369 81.8311 6.85206 85.627 13.8399 85.627L98.355 85.627C106.799 85.627 110.622 80.8618 110.637 72.9551ZM14.3936 88.4092L99.9409 88.4092C109.514 88.4092 114.35 83.5615 114.35 74.169L114.35 14.2739C114.35 4.88135 109.514 0 99.9409 0L14.3936 0C4.86963 0 0 4.83594 0 14.2739L0 74.169C0 83.6069 4.86963 88.4092 14.3936 88.4092ZM14.5064 82.3794C9.00294 82.3794 6.04494 79.4736 6.04494 73.8355L6.04494 14.6074C6.04494 8.96925 9.00294 6.04494 14.5064 6.04494L99.8433 6.04494C105.237 6.04494 108.305 8.96925 108.305 14.6074L108.305 73.8355C108.305 79.4736 105.237 82.3794 99.8433 82.3794Z" fill="#000000" fill-opacity="0.85"/>
  <path d="M35.8926 44.9409C42.1914 44.9409 47.3672 39.7651 47.3672 33.4175C47.3672 27.1187 42.1914 21.894 35.8926 21.894C29.5449 21.894 24.3691 27.1187 24.3691 33.4175C24.3691 39.7651 29.5449 44.9409 35.8926 44.9409Z" fill="#000000" fill-opacity="0.85"/>
 </g>
</svg>
