<?xml version="1.0" encoding="UTF-8"?>
<!--Generator: Apple Native CoreSVG 232.5-->
<!DOCTYPE svg
PUBLIC "-//W3C//DTD SVG 1.1//EN"
       "http://www.w3.org/Graphics/SVG/1.1/DTD/svg11.dtd">
<svg version="1.1" xmlns="http://www.w3.org/2000/svg" xmlns:xlink="http://www.w3.org/1999/xlink" width="118.79" height="121.714">
 <g>
  <rect height="121.714" opacity="0" width="118.79" x="0" y="0"/>
  <path d="M90.2484 13.2232L28.5411 13.2232C28.8194 10.1133 30.9472 8.25976 34.2715 8.25976L84.5181 8.25976C87.8424 8.25976 89.9702 10.1133 90.2484 13.2232Z" fill="#000000" fill-opacity="0.85"/>
  <path d="M99.8986 26.0538C98.6693 25.8763 97.3699 25.7984 96.02 25.7984L22.7695 25.7984C21.4202 25.7984 20.1211 25.8758 18.8922 26.0524C19.3835 22.4249 21.9308 20.3633 25.9795 20.3633L92.8437 20.3633C96.8929 20.3633 99.4135 22.4254 99.8986 26.0538Z" fill="#000000" fill-opacity="0.85"/>
  <path d="M110.429 48.4331L110.429 99.064C110.429 108.472 105.559 113.338 96.02 113.338L22.7695 113.338C13.2305 113.338 8.36084 108.502 8.36084 99.064L8.36084 48.4331C8.36084 38.9951 13.2305 34.1592 22.7695 34.1592L96.02 34.1592C105.559 34.1592 110.429 39.0405 110.429 48.4331ZM69.1284 72.6109L48.3481 90.7344L40.2881 83.3833C38.3232 81.5986 36.3633 80.6558 34.0146 80.6558C31.8428 80.6558 30.0513 81.5986 28.083 83.3345L15.0493 94.979L15.0493 98.3228C15.0493 103.826 17.9736 106.698 23.3574 106.698L95.4658 106.698C100.691 106.698 103.74 103.826 103.74 98.3228L103.74 91.5986L83.3906 72.6597C81.2861 70.6983 78.8599 69.7285 76.2217 69.7285C73.5312 69.7285 71.3794 70.6157 69.1284 72.6109ZM34.1221 62.3252C34.1221 68.3394 38.9829 73.3164 45.0342 73.3164C51.0181 73.3164 55.894 68.3394 55.894 62.3252C55.894 56.375 51.0181 51.4351 45.0342 51.4351C38.9829 51.4351 34.1221 56.375 34.1221 62.3252Z" fill="#000000" fill-opacity="0.85"/>
 </g>
</svg>
