<?xml version="1.0" encoding="UTF-8"?>
<!--Generator: Apple Native CoreSVG 232.5-->
<!DOCTYPE svg
PUBLIC "-//W3C//DTD SVG 1.1//EN"
       "http://www.w3.org/Graphics/SVG/1.1/DTD/svg11.dtd">
<svg version="1.1" xmlns="http://www.w3.org/2000/svg" xmlns:xlink="http://www.w3.org/1999/xlink" width="119.729" height="96.2735">
 <g>
  <rect height="96.2735" opacity="0" width="119.729" x="0" y="0"/>
  <path d="M95.4033 14.2857L95.4033 21.2871L89.3584 21.2871L89.3584 14.6191C89.3584 8.98097 86.2422 6.05665 80.8481 6.05665L14.5064 6.05665C9.14601 6.05665 6.04494 8.98097 6.04494 14.6191L6.04494 60.4243C6.04494 66.0625 9.00294 68.9531 14.5064 68.9531L23.1221 68.9531L23.1221 74.9829L14.3936 74.9829C4.83594 74.9829 0 70.1807 0 60.709L0 14.2857C0 4.84766 4.83594 0.0117183 14.3936 0.0117183L80.9946 0.0117183C90.5337 0.0117183 95.4033 4.84766 95.4033 14.2857Z" fill="#000000" fill-opacity="0.85"/>
  <path d="M37.5308 96.2735L105.32 96.2735C114.825 96.2735 119.729 91.3921 119.729 81.9995L119.729 35.5611C119.729 26.1685 114.825 21.2871 105.32 21.2871L37.5308 21.2871C27.958 21.2871 23.1221 26.1231 23.1221 35.5611L23.1221 81.9995C23.1221 91.4712 27.958 96.2735 37.5308 96.2735ZM37.6284 90.2285C32.125 90.2285 29.167 87.3379 29.167 81.6997L29.167 35.8945C29.167 30.2564 32.125 27.3321 37.6284 27.3321L105.188 27.3321C110.583 27.3321 113.684 30.2564 113.684 35.8945L113.684 81.6997C113.684 87.3379 110.583 90.2285 105.188 90.2285ZM37.5108 94.0337L104.617 94.0337C112.629 94.0337 116.822 90.0093 116.822 81.9487L116.822 78.3696L94.3926 57.4219C92.3672 55.5884 90.0537 54.6187 87.5435 54.6187C84.9658 54.6187 82.8779 55.5059 80.7549 57.3731L60.9072 74.7778L53.1519 67.728C51.2661 65.9888 49.355 65.1621 47.1494 65.1621C45.1089 65.1621 43.3628 65.9736 41.4434 67.6455L25.3062 81.9673C25.3062 90.0093 29.499 94.0337 37.5108 94.0337Z" fill="#000000" fill-opacity="0.85"/>
  <path d="M57.7398 58.2993C63.4492 58.2993 68.1182 53.5479 68.1182 47.7896C68.1182 42.1289 63.4492 37.3472 57.7398 37.3472C51.9815 37.3472 47.3276 42.1289 47.3276 47.7896C47.3276 53.5479 51.9815 58.2993 57.7398 58.2993Z" fill="#000000" fill-opacity="0.85"/>
 </g>
</svg>
