<?xml version="1.0" encoding="UTF-8"?>
<!--Generator: Apple Native CoreSVG 232.5-->
<!DOCTYPE svg
PUBLIC "-//W3C//DTD SVG 1.1//EN"
       "http://www.w3.org/Graphics/SVG/1.1/DTD/svg11.dtd">
<svg version="1.1" xmlns="http://www.w3.org/2000/svg" xmlns:xlink="http://www.w3.org/1999/xlink" width="118.79" height="121.714">
 <g>
  <rect height="121.714" opacity="0" width="118.79" x="0" y="0"/>
  <path d="M90.2484 13.2232L28.5411 13.2232C28.8194 10.1133 30.9472 8.25976 34.2715 8.25976L84.5181 8.25976C87.8424 8.25976 89.9702 10.1133 90.2484 13.2232Z" fill="#000000" fill-opacity="0.85"/>
  <path d="M99.8986 26.0538C98.6693 25.8763 97.3699 25.7984 96.02 25.7984L22.7695 25.7984C21.4202 25.7984 20.1211 25.8758 18.8922 26.0524C19.3835 22.4249 21.9308 20.3633 25.9795 20.3633L92.8437 20.3633C96.8929 20.3633 99.4135 22.4254 99.8986 26.0538Z" fill="#000000" fill-opacity="0.85"/>
  <path d="M23.4531 111.895L95.313 111.895C103.917 111.895 108.358 107.541 108.358 98.9058L108.358 95.0825L84.356 72.626C82.2329 70.6309 79.7241 69.6426 77.0337 69.6426C74.2759 69.6426 72.0566 70.5484 69.772 72.5772L48.4829 91.1758L40.187 83.6377C38.1699 81.8008 36.1611 80.8428 33.7603 80.8428C31.5547 80.8428 29.6958 81.8193 27.6938 83.5889L10.4082 98.8755C10.4082 107.541 14.8486 111.895 23.4531 111.895ZM22.7695 113.338L96.02 113.338C105.559 113.338 110.429 108.472 110.429 99.064L110.429 48.4331C110.429 39.0405 105.559 34.1592 96.02 34.1592L22.7695 34.1592C13.2305 34.1592 8.36084 38.9951 8.36084 48.4331L8.36084 99.064C8.36084 108.502 13.2305 113.338 22.7695 113.338ZM22.9009 107.308C17.3975 107.308 14.4058 104.384 14.4058 98.7305L14.4058 48.7666C14.4058 43.1284 17.3975 40.189 22.9009 40.189L95.9072 40.189C101.268 40.189 104.384 43.1284 104.384 48.7666L104.384 98.7305C104.384 104.384 101.268 107.308 95.9072 107.308Z" fill="#000000" fill-opacity="0.85"/>
  <path d="M45.1016 73.5708C51.2388 73.5708 56.2495 68.4741 56.2495 62.3252C56.2495 56.2217 51.2388 51.147 45.1016 51.147C38.9155 51.147 33.9351 56.2217 33.9351 62.3252C33.9351 68.4741 38.9155 73.5708 45.1016 73.5708Z" fill="#000000" fill-opacity="0.85"/>
 </g>
</svg>
