<?xml version="1.0" encoding="UTF-8"?>
<!--Generator: Apple Native CoreSVG 232.5-->
<!DOCTYPE svg
PUBLIC "-//W3C//DTD SVG 1.1//EN"
       "http://www.w3.org/Graphics/SVG/1.1/DTD/svg11.dtd">
<svg version="1.1" xmlns="http://www.w3.org/2000/svg" xmlns:xlink="http://www.w3.org/1999/xlink" width="114.35" height="88.4395">
 <g>
  <rect height="88.4395" opacity="0" width="114.35" x="0" y="0"/>
  <path d="M36.9487 4.18263L20.7378 4.18263L20.7378 47.4409C20.7378 50.6118 22.7114 51.8125 24.7827 51.8125L32.9375 51.8125C35.0088 51.8125 36.9487 50.6118 36.9487 47.4409ZM65.2803 4.18263L49.0693 4.18263L49.0693 47.4409C49.0693 50.6118 51.043 51.8125 53.0806 51.8125L61.269 51.8125C63.3403 51.8125 65.2803 50.6118 65.2803 47.4409ZM93.6118 4.18263L77.4009 4.18263L77.4009 47.4409C77.4009 50.6118 79.3408 51.8125 81.4121 51.8125L89.5854 51.8125C91.6719 51.8125 93.6118 50.6118 93.6118 47.4409ZM26.9453 43.0723L26.9453 84.4658L30.79 84.4658L30.79 43.0723ZM55.2617 43.0723L55.2617 84.4658L59.1065 84.4658L59.1065 43.0723ZM83.5933 43.0723L83.5933 84.4658L87.438 84.4658L87.438 43.0723ZM14.3936 88.4092L99.9409 88.4092C109.514 88.4092 114.35 83.5615 114.35 74.169L114.35 14.2739C114.35 4.88135 109.514 0 99.9409 0L14.3936 0C4.86963 0 0 4.83594 0 14.2739L0 74.169C0 83.6069 4.86963 88.4092 14.3936 88.4092ZM14.5064 82.3794C9.00294 82.3794 6.04494 79.4736 6.04494 73.8355L6.04494 14.6074C6.04494 8.96925 9.00294 6.04494 14.5064 6.04494L99.8433 6.04494C105.237 6.04494 108.305 8.96925 108.305 14.6074L108.305 73.8355C108.305 79.4736 105.237 82.3794 99.8433 82.3794Z" fill="#000000" fill-opacity="0.85"/>
 </g>
</svg>
