<?xml version="1.0" encoding="UTF-8"?>
<!--Generator: Apple Native CoreSVG 232.5-->
<!DOCTYPE svg
PUBLIC "-//W3C//DTD SVG 1.1//EN"
       "http://www.w3.org/Graphics/SVG/1.1/DTD/svg11.dtd">
<svg version="1.1" xmlns="http://www.w3.org/2000/svg" xmlns:xlink="http://www.w3.org/1999/xlink" width="114.35" height="88.5371">
 <g>
  <rect height="88.5371" opacity="0" width="114.35" x="0" y="0"/>
  <path d="M20.7378 47.4897L20.7378 0.127929L36.9487 0.127929L36.9487 47.4897C36.9487 50.6606 35.0088 51.8613 32.9375 51.8613L30.79 51.8613L30.79 88.5371L26.9453 88.5371L26.9453 51.8613L24.7827 51.8613C22.7114 51.8613 20.7378 50.6606 20.7378 47.4897ZM49.0693 47.4897L49.0693 0.127929L65.2803 0.127929L65.2803 47.4897C65.2803 50.6606 63.3403 51.8613 61.269 51.8613L59.1065 51.8613L59.1065 88.5371L55.2617 88.5371L55.2617 51.8613L53.0806 51.8613C51.043 51.8613 49.0693 50.6606 49.0693 47.4897ZM77.4009 47.4897L77.4009 0.127929L93.6118 0.127929L93.6118 47.4897C93.6118 50.6606 91.6719 51.8613 89.5854 51.8613L87.438 51.8613L87.438 88.5371L83.5933 88.5371L83.5933 51.8613L81.4121 51.8613C79.3408 51.8613 77.4009 50.6606 77.4009 47.4897ZM14.3936 88.458L99.9409 88.458C109.514 88.458 114.35 83.6104 114.35 74.2178L114.35 14.3228C114.35 4.93018 109.514 0.0488281 99.9409 0.0488281L14.3936 0.0488281C4.86963 0.0488281 0 4.88477 0 14.3228L0 74.2178C0 83.6558 4.86963 88.458 14.3936 88.458Z" fill="#000000" fill-opacity="0.85"/>
 </g>
</svg>
