<?xml version="1.0" encoding="UTF-8"?>
<!--Generator: Apple Native CoreSVG 232.5-->
<!DOCTYPE svg
PUBLIC "-//W3C//DTD SVG 1.1//EN"
       "http://www.w3.org/Graphics/SVG/1.1/DTD/svg11.dtd">
<svg version="1.1" xmlns="http://www.w3.org/2000/svg" xmlns:xlink="http://www.w3.org/1999/xlink" width="97.9595" height="97.9932">
 <g>
  <rect height="97.9932" opacity="0" width="97.9595" x="0" y="0"/>
  <path d="M97.9595 49.021C97.9595 75.8584 75.8247 97.9932 48.9722 97.9932C22.1685 97.9932 0 75.8584 0 49.021C0 22.2173 22.1348 0.0488281 48.9385 0.0488281C75.791 0.0488281 97.9595 22.2173 97.9595 49.021ZM50.939 63.001C51.7188 69.5288 57.4282 74.8257 64.3921 74.8257C71.4688 74.8257 77.2119 69.5288 77.958 63.001ZM21.7378 45.3501C16.9761 50.1118 16.9204 56.2896 21.5137 60.9014C26.1743 65.4946 32.3184 65.439 37.0649 60.6958L45.6499 52.0991L30.2856 36.7012ZM50.939 59.4595L77.958 59.4595C77.2119 52.9316 71.4351 47.6348 64.3921 47.6348C57.4771 47.6348 51.7188 52.9316 50.939 59.4595ZM41.2905 25.6777L32.8369 34.2139L48.1675 49.5444L56.707 41.042C61.5024 36.314 61.5361 30.0991 56.8604 25.5396C52.1694 20.8638 46.0674 20.916 41.2905 25.6777Z" fill="#000000" fill-opacity="0.85"/>
 </g>
</svg>
