<?xml version="1.0" encoding="UTF-8"?>
<!--Generator: Apple Native CoreSVG 232.5-->
<!DOCTYPE svg
PUBLIC "-//W3C//DTD SVG 1.1//EN"
       "http://www.w3.org/Graphics/SVG/1.1/DTD/svg11.dtd">
<svg version="1.1" xmlns="http://www.w3.org/2000/svg" xmlns:xlink="http://www.w3.org/1999/xlink" width="97.9595" height="97.9932">
 <g>
  <rect height="97.9932" opacity="0" width="97.9595" x="0" y="0"/>
  <path d="M48.9722 97.9443C75.8247 97.9443 97.9595 75.7759 97.9595 48.9722C97.9595 22.1348 75.791 0 48.9385 0C22.1348 0 0 22.1348 0 48.9722C0 75.7759 22.1685 97.9443 48.9722 97.9443ZM48.9722 91.6113C25.3501 91.6113 6.36671 72.5942 6.36671 48.9722C6.36671 25.3501 25.3164 6.31789 48.9385 6.31789C72.5605 6.31789 91.6265 25.3501 91.6265 48.9722C91.6265 72.5942 72.5942 91.6113 48.9722 91.6113Z" fill="#000000" fill-opacity="0.85"/>
  <path d="M70.2861 27.6582C64.5918 22.0464 57.2607 22.0313 51.5479 27.7964L40.8989 38.415L59.4316 57.0117L70.0991 46.3628C75.8828 40.5977 75.9502 33.1387 70.2861 27.6582ZM27.5908 70.3535C33.2515 75.8677 40.6919 75.8457 46.3931 70.0806L57.0117 59.4316L38.4639 40.8989L27.8301 51.5513C22.065 57.3652 22.043 64.772 27.5908 70.3535Z" fill="#000000" fill-opacity="0.85"/>
 </g>
</svg>
