<?xml version="1.0" encoding="UTF-8"?>
<!--Generator: Apple Native CoreSVG 232.5-->
<!DOCTYPE svg
PUBLIC "-//W3C//DTD SVG 1.1//EN"
       "http://www.w3.org/Graphics/SVG/1.1/DTD/svg11.dtd">
<svg version="1.1" xmlns="http://www.w3.org/2000/svg" xmlns:xlink="http://www.w3.org/1999/xlink" width="97.9595" height="97.9932">
 <g>
  <rect height="97.9932" opacity="0" width="97.9595" x="0" y="0"/>
  <path d="M97.9595 49.021C97.9595 75.8584 75.8247 97.9932 48.9722 97.9932C22.1685 97.9932 0 75.8584 0 49.021C0 22.2173 22.1348 0.0488281 48.9385 0.0488281C75.791 0.0488281 97.9595 22.2173 97.9595 49.021ZM27.4072 51.6675C21.5225 57.5825 21.5005 65.1763 27.168 70.8252C32.9297 76.4741 40.5386 76.4522 46.3594 70.5859L57.165 59.7163L38.2432 40.8281ZM51.5815 27.4561L40.7456 38.2769L59.6675 57.2476L70.5068 46.3779C76.4404 40.4932 76.5078 32.8994 70.709 27.2842C64.9287 21.5864 57.4292 21.5376 51.5815 27.4561Z" fill="#000000" fill-opacity="0.85"/>
 </g>
</svg>
