<?xml version="1.0" encoding="UTF-8"?>
<!--Generator: Apple Native CoreSVG 232.5-->
<!DOCTYPE svg
PUBLIC "-//W3C//DTD SVG 1.1//EN"
       "http://www.w3.org/Graphics/SVG/1.1/DTD/svg11.dtd">
<svg version="1.1" xmlns="http://www.w3.org/2000/svg" xmlns:xlink="http://www.w3.org/1999/xlink" width="112.98" height="98.9961">
 <g>
  <rect height="98.9961" opacity="0" width="112.98" x="0" y="0"/>
  <path d="M112.98 71.144C111.65 58.6812 101.002 48.9258 88.1231 48.9258C75.2593 48.9258 64.6602 58.6812 63.3145 71.144ZM112.98 76.729L63.3145 76.729C64.6787 89.2256 75.2442 98.9961 88.1231 98.9961C101.084 98.9961 111.65 89.2407 112.98 76.729Z" fill="#000000" fill-opacity="0.85"/>
  <path d="M54.9585 52.8594L70.9414 36.8765C79.7393 28.0972 79.8252 16.7231 71.3154 8.27734C62.7417-0.247559 51.4468-0.0942379 42.7163 8.63623L26.7183 24.6191ZM50.9517 56.8848L22.6929 28.626L6.67969 44.6729C-2.11816 53.437-2.2041 64.811 6.3208 73.272C14.8794 81.7817 26.1743 81.6773 34.9199 72.9316Z" fill="#000000" fill-opacity="0.85"/>
 </g>
</svg>
