<?xml version="1.0" encoding="UTF-8"?>
<!--Generator: Apple Native CoreSVG 232.5-->
<!DOCTYPE svg
PUBLIC "-//W3C//DTD SVG 1.1//EN"
       "http://www.w3.org/Graphics/SVG/1.1/DTD/svg11.dtd">
<svg version="1.1" xmlns="http://www.w3.org/2000/svg" xmlns:xlink="http://www.w3.org/1999/xlink" width="97.9595" height="97.9932">
 <g>
  <rect height="97.9932" opacity="0" width="97.9595" x="0" y="0"/>
  <path d="M48.9722 97.9443C75.8247 97.9443 97.9595 75.7759 97.9595 48.9722C97.9595 22.1348 75.791 0 48.9385 0C22.1348 0 0 22.1348 0 48.9722C0 75.7759 22.1685 97.9443 48.9722 97.9443ZM48.9722 91.6113C25.3501 91.6113 6.36671 72.5942 6.36671 48.9722C6.36671 25.3501 25.3164 6.31789 48.9385 6.31789C72.5605 6.31789 91.6265 25.3501 91.6265 48.9722C91.6265 72.5942 72.5942 91.6113 48.9722 91.6113Z" fill="#000000" fill-opacity="0.85"/>
  <path d="M48.1338 49.4956L56.5049 41.1616C61.2144 36.5195 61.2481 30.4243 56.6733 25.9658C52.0684 21.3911 46.1011 21.4434 41.459 26.1191L33.125 34.4531ZM45.6836 51.9492L30.6411 36.9067L22.228 45.3535C17.5859 50.063 17.5303 56.106 22.0225 60.6167C26.5972 65.1089 32.6401 65.0532 37.252 60.4111ZM77.3145 59.2422C76.6021 52.8154 70.96 47.6382 64.0366 47.6382C57.2564 47.6382 51.584 52.8154 50.853 59.2422ZM77.3145 62.6978L50.853 62.6978C51.584 69.0908 57.2261 74.2681 64.0366 74.2681C70.9937 74.2681 76.6021 69.0908 77.3145 62.6978Z" fill="#000000" fill-opacity="0.85"/>
 </g>
</svg>
