<?xml version="1.0" encoding="UTF-8"?>
<!--Generator: Apple Native CoreSVG 232.5-->
<!DOCTYPE svg
PUBLIC "-//W3C//DTD SVG 1.1//EN"
       "http://www.w3.org/Graphics/SVG/1.1/DTD/svg11.dtd">
<svg version="1.1" xmlns="http://www.w3.org/2000/svg" xmlns:xlink="http://www.w3.org/1999/xlink" width="72.8482" height="115.483">
 <g>
  <rect height="115.483" opacity="0" width="72.8482" x="0" y="0"/>
  <path d="M36.4409 115.483C37.4312 115.483 39.9204 110.266 39.9204 104.127L39.9204 75.3379L32.9429 75.3379L32.9429 104.127C32.9429 110.266 35.4321 115.483 36.4409 115.483ZM6.34522 78.3579L66.5029 78.3579C70.3828 78.3579 72.8482 76.002 72.8482 72.4419C72.8482 58.2227 57.4986 44.3716 36.4409 44.3716C15.3648 44.3716 0 58.2227 0 72.4419C0 76.002 2.46533 78.3579 6.34522 78.3579ZM7.63234 72.6499C6.47902 72.6499 5.86964 71.9546 6.00441 70.6665C6.71535 60.4546 18.9751 49.9263 36.4409 49.9263C53.8731 49.9263 66.1328 60.4546 66.8438 70.6665C66.9785 71.9546 66.3843 72.6499 65.2158 72.6499ZM6.82177 8.2334C6.82177 9.45264 7.3623 10.916 8.45019 12.3945C10.9404 15.8511 16.894 20.4561 22.4409 24.1001L20.7251 49.4878L26.7212 49.4878L28.4976 21.4858C28.5464 20.8628 28.4639 20.6338 28.0361 20.4048C21.2417 16.8115 14.836 11.5659 14.5816 10.1201C14.3272 9.48536 14.6875 9.06446 15.3457 9.06446L57.5176 9.06446C58.1607 9.06446 58.521 9.48536 58.2666 10.1201C58.0122 11.5659 51.6065 16.8115 44.8272 20.4048C44.418 20.6338 44.3018 20.8628 44.3994 21.4858L46.127 49.4878L52.1382 49.4878L50.4072 24.1001C55.9878 20.4561 61.9077 15.8511 64.398 12.3945C65.5196 10.916 66.0601 9.45264 66.0601 8.2334C66.0601 5.60302 64.0376 3.66308 60.9678 3.66308L11.9141 3.66308C8.81054 3.66308 6.82177 5.60302 6.82177 8.2334Z" fill="#000000" fill-opacity="0.85"/>
 </g>
</svg>
