<?xml version="1.0" encoding="UTF-8"?>
<!--Generator: Apple Native CoreSVG 232.5-->
<!DOCTYPE svg
PUBLIC "-//W3C//DTD SVG 1.1//EN"
       "http://www.w3.org/Graphics/SVG/1.1/DTD/svg11.dtd">
<svg version="1.1" xmlns="http://www.w3.org/2000/svg" xmlns:xlink="http://www.w3.org/1999/xlink" width="72.8482" height="115.483">
 <g>
  <rect height="115.483" opacity="0" width="72.8482" x="0" y="0"/>
  <path d="M0 72.4419C0 76.002 2.46533 78.3579 6.34522 78.3579L32.9429 78.3579L32.9429 104.127C32.9429 110.266 35.4321 115.483 36.4409 115.483C37.4312 115.483 39.9204 110.266 39.9204 104.127L39.9204 78.3579L66.5029 78.3579C70.3828 78.3579 72.8482 76.002 72.8482 72.4419C72.8482 62.0181 64.6265 51.5078 51.3296 46.8149L49.7637 24.1001C55.939 20.4561 61.7984 15.9116 64.3526 12.4888C65.4707 10.9951 66.0601 9.5166 66.0601 8.2334C66.0601 5.60302 64.0376 3.66308 60.9678 3.66308L11.9141 3.66308C8.81054 3.66308 6.82177 5.60302 6.82177 8.2334C6.82177 9.5166 7.37744 10.9951 8.4956 12.4888C11.0649 15.9116 16.9243 20.4712 23.0845 24.1001L21.5186 46.8149C8.22168 51.5078 0 62.0181 0 72.4419Z" fill="#000000" fill-opacity="0.85"/>
 </g>
</svg>
