<?xml version="1.0" encoding="UTF-8"?>
<!--Generator: Apple Native CoreSVG 232.5-->
<!DOCTYPE svg
PUBLIC "-//W3C//DTD SVG 1.1//EN"
       "http://www.w3.org/Graphics/SVG/1.1/DTD/svg11.dtd">
<svg version="1.1" xmlns="http://www.w3.org/2000/svg" xmlns:xlink="http://www.w3.org/1999/xlink" width="88.4092" height="88.5371">
 <g>
  <rect height="88.5371" opacity="0" width="88.4092" x="0" y="0"/>
  <path d="M14.3936 88.5371L74.0005 88.5371C83.5733 88.5371 88.4092 83.6558 88.4092 74.2632L88.4092 14.4019C88.4092 5.00928 83.5733 0.127929 74.0005 0.127929L14.3936 0.127929C4.86963 0.127929 0 4.93018 0 14.4019L0 74.2632C0 83.7349 4.86963 88.5371 14.3936 88.5371ZM14.5064 82.4922C9.00294 82.4922 6.04494 79.6016 6.04494 73.9634L6.04494 14.7017C6.04494 9.06349 9.00294 6.17287 14.5064 6.17287L73.9028 6.17287C79.2969 6.17287 82.3643 9.06349 82.3643 14.7017L82.3643 73.9634C82.3643 79.6016 79.2969 82.4922 73.9028 82.4922Z" fill="#000000" fill-opacity="0.85"/>
  <path d="M25.1001 54.0664C25.1001 55.9727 26.395 57.1397 28.3804 57.1397L41.7803 57.1397L41.7803 67.1665C41.7803 71.6108 43.4898 75.3848 44.2324 75.3848C44.9902 75.3848 46.73 71.6108 46.73 67.1665L46.73 57.1397L60.0996 57.1397C62.1338 57.1397 63.395 55.9727 63.395 54.0664C63.395 48.6182 59.0596 43.0366 52.0957 40.6221L51.2505 28.542C54.376 26.7217 57.3814 24.4268 58.7754 22.6304C59.4102 21.7666 59.752 20.918 59.752 20.1821C59.752 18.8047 58.7163 17.8364 57.0796 17.8364L31.4155 17.8364C29.8091 17.8364 28.7432 18.8047 28.7432 20.1821C28.7432 20.9331 29.1304 21.8457 29.8779 22.7398C31.272 24.521 34.1982 26.7705 37.2598 28.542L36.4482 40.6221C29.4356 43.0366 25.1001 48.6182 25.1001 54.0664Z" fill="#000000" fill-opacity="0.85"/>
 </g>
</svg>
