<?xml version="1.0" encoding="UTF-8"?>
<!--Generator: Apple Native CoreSVG 232.5-->
<!DOCTYPE svg
PUBLIC "-//W3C//DTD SVG 1.1//EN"
       "http://www.w3.org/Graphics/SVG/1.1/DTD/svg11.dtd">
<svg version="1.1" xmlns="http://www.w3.org/2000/svg" xmlns:xlink="http://www.w3.org/1999/xlink" width="130.085" height="110.588">
 <g>
  <rect height="110.588" opacity="0" width="130.085" x="0" y="0"/>
  <path d="M100.069 20.0586L100.069 38.6284L61.2798 38.6284C48.6235 38.6284 41.1807 45.9702 41.1807 58.5777L41.1807 83.6406L14.3936 83.6406C4.83594 83.6406 0 78.8047 0 69.3667L0 20.0586C0 10.6206 4.83594 5.78468 14.3936 5.78468L85.7095 5.78468C95.2334 5.78468 100.069 10.6206 100.069 20.0586Z" fill="#000000" fill-opacity="0.85"/>
  <path d="M61.2798 104.931L110.035 104.931C119.525 104.931 124.395 100.05 124.395 90.6573L124.395 58.5777C124.395 49.1851 119.525 44.3037 110.035 44.3037L61.2798 44.3037C51.7407 44.3037 46.8711 49.106 46.8711 58.5777L46.8711 90.6573C46.8711 100.095 51.7407 104.931 61.2798 104.931Z" fill="#000000" fill-opacity="0.85"/>
 </g>
</svg>
