<?xml version="1.0" encoding="UTF-8"?>
<!--Generator: Apple Native CoreSVG 232.5-->
<!DOCTYPE svg
PUBLIC "-//W3C//DTD SVG 1.1//EN"
       "http://www.w3.org/Graphics/SVG/1.1/DTD/svg11.dtd">
<svg version="1.1" xmlns="http://www.w3.org/2000/svg" xmlns:xlink="http://www.w3.org/1999/xlink" width="124.395" height="99.2744">
 <g>
  <rect height="99.2744" opacity="0" width="124.395" x="0" y="0"/>
  <path d="M100.069 14.4019L100.069 38.647L94.0396 38.647L94.0396 14.7354C94.0396 9.09718 90.957 6.17287 85.563 6.17287L14.5064 6.17287C9.00294 6.17287 6.04494 9.09718 6.04494 14.7354L6.04494 63.3765C6.04494 69.0298 9.14601 71.9541 14.5064 71.9541L46.8711 71.9541L46.8711 77.9839L14.3936 77.9839C4.83594 77.9839 0 73.148 0 63.71L0 14.4019C0 4.96387 4.83594 0.127929 14.3936 0.127929L85.7095 0.127929C95.2334 0.127929 100.069 4.96387 100.069 14.4019Z" fill="#000000" fill-opacity="0.85"/>
  <path d="M18.7896 15.3609L27.5205 24.1406L33.0767 18.6333C34.8027 16.9561 36.3975 18.4009 36.6113 19.7481L39.4365 36.8604C39.583 37.6333 39.3203 38.3389 38.8438 38.8643C38.3032 39.356 37.5977 39.6035 36.8247 39.4722L19.7275 36.647C18.3652 36.418 16.9204 34.8233 18.5977 33.1123L24.0864 27.541L15.3403 18.8101C14.3955 17.8955 14.4107 16.3057 15.3403 15.3609C16.2852 14.4463 17.8599 14.416 18.7896 15.3609Z" fill="#000000" fill-opacity="0.85"/>
  <path d="M124.395 52.9209L124.395 85.0005C124.395 94.3931 119.525 99.2744 110.035 99.2744L61.2798 99.2744C51.7407 99.2744 46.8711 94.4385 46.8711 85.0005L46.8711 52.9209C46.8711 43.4492 51.7407 38.647 61.2798 38.647L110.035 38.647C119.525 38.647 124.395 43.5283 124.395 52.9209ZM61.0806 51.751C60.5889 52.2915 60.375 52.9971 60.4727 53.77L63.2979 70.8672C63.4932 72.2295 65.189 73.708 66.8325 71.9971L72.4038 66.4746L81.1196 75.2544C82.0982 76.1841 83.6392 76.1841 84.584 75.2544C85.4986 74.3247 85.4986 72.75 84.584 71.8052L75.8379 63.0894L81.3115 57.5181C83.0225 55.8257 81.544 54.1787 80.1968 53.9834L63.0845 51.1582C62.3452 51.0117 61.606 51.2744 61.0806 51.751Z" fill="#000000" fill-opacity="0.85"/>
 </g>
</svg>
