<?xml version="1.0" encoding="UTF-8"?>
<!--Generator: Apple Native CoreSVG 232.5-->
<!DOCTYPE svg
PUBLIC "-//W3C//DTD SVG 1.1//EN"
       "http://www.w3.org/Graphics/SVG/1.1/DTD/svg11.dtd">
<svg version="1.1" xmlns="http://www.w3.org/2000/svg" xmlns:xlink="http://www.w3.org/1999/xlink" width="59.4746" height="100.561">
 <g>
  <rect height="100.561" opacity="0" width="59.4746" x="0" y="0"/>
  <path d="M0 88.1763C0 95.8086 4.82276 100.493 12.6909 100.493L46.7837 100.493C54.6367 100.493 59.4746 95.8086 59.4746 88.1763L59.4746 12.3169C59.4746 4.68457 54.6367 0 46.7837 0L12.6909 0C4.82276 0 0 4.68457 0 12.3169ZM6.04494 87.3457L6.04494 13.1626C6.04494 8.42384 8.50636 6.0298 13.4136 6.0298L46.0947 6.0298C50.9683 6.0298 53.4297 8.42384 53.4297 13.1626L53.4297 87.3457C53.4297 92.0845 50.9683 94.4634 46.0947 94.4634L13.4136 94.4634C8.50636 94.4634 6.04494 92.0845 6.04494 87.3457Z" fill="#000000" fill-opacity="0.85"/>
  <path d="M16.6709 26.6104L42.8223 26.6104C45.4859 26.6104 47.2134 24.9165 47.2134 22.1519L47.2134 16.7046C47.2134 13.9736 45.4859 12.2461 42.8223 12.2461L16.6709 12.2461C13.9888 12.2461 12.2798 13.9736 12.2798 16.7046L12.2798 22.1519C12.2798 24.9165 13.9888 26.6104 16.6709 26.6104Z" fill="#000000" fill-opacity="0.85"/>
 </g>
</svg>
