<?xml version="1.0" encoding="UTF-8"?>
<!--Generator: Apple Native CoreSVG 232.5-->
<!DOCTYPE svg
PUBLIC "-//W3C//DTD SVG 1.1//EN"
       "http://www.w3.org/Graphics/SVG/1.1/DTD/svg11.dtd">
<svg version="1.1" xmlns="http://www.w3.org/2000/svg" xmlns:xlink="http://www.w3.org/1999/xlink" width="90.4488" height="90.8653">
 <g>
  <rect height="90.8653" opacity="0" width="90.4488" x="0" y="0"/>
  <path d="M27.249 90.8653L63.1997 90.8653C76.4815 90.8653 84.503 82.7578 84.503 69.3228L84.503 21.6401C84.503 8.20508 76.4815 0.116211 63.1997 0.116211L27.249 0.116211C13.9673 0.116211 5.9458 8.20508 5.9458 21.6401L5.9458 69.3228C5.9458 82.7578 13.9673 90.8653 27.249 90.8653ZM27.0132 84.8355C17.6172 84.8355 11.9907 79.1567 11.9907 69.5435L11.9907 21.5728C11.9907 11.9932 17.6172 6.31447 27.0132 6.31447L63.4356 6.31447C72.8652 6.31447 78.458 11.9932 78.458 21.5728L78.458 69.5435C78.458 79.1567 72.8652 84.8355 63.4356 84.8355ZM83.3516 40.4092L85.7002 40.4092C88.5982 40.4092 90.4488 38.3818 90.4488 35.2398L90.4488 26.7676C90.4488 23.5884 88.5982 21.5762 85.7002 21.5762L83.3516 21.5762Z" fill="#000000" fill-opacity="0.85"/>
  <path d="M18.7725 70.2236C18.7725 74.9595 21.6865 77.9746 26.3179 77.9746L64.1494 77.9746C68.7622 77.9746 71.6763 74.9595 71.6763 70.2236L71.6763 63.2344C71.6763 58.5508 68.6948 55.4497 64.1494 55.4497L26.3179 55.4497C21.7539 55.4497 18.7725 58.5508 18.7725 63.2344Z" fill="#000000" fill-opacity="0.85"/>
 </g>
</svg>
