<?xml version="1.0" encoding="UTF-8"?>
<!--Generator: Apple Native CoreSVG 232.5-->
<!DOCTYPE svg
PUBLIC "-//W3C//DTD SVG 1.1//EN"
       "http://www.w3.org/Graphics/SVG/1.1/DTD/svg11.dtd">
<svg version="1.1" xmlns="http://www.w3.org/2000/svg" xmlns:xlink="http://www.w3.org/1999/xlink" width="79.5332" height="107.581">
 <g>
  <rect height="107.581" opacity="0" width="79.5332" x="0" y="0"/>
  <path d="M13.2075 107.581L66.3257 107.581C74.4766 107.581 79.5332 102.678 79.5332 94.7964L79.5332 12.8267C79.5332 4.93018 74.4766 0.00829995 66.3257 0.00829995L13.2075 0.00829995C5.05664 0.00829995 0 4.93018 0 12.8267L0 94.7964C0 102.678 5.05664 107.581 13.2075 107.581ZM13.8965 101.536C8.83448 101.536 6.04494 98.7988 6.04494 93.8716L6.04494 13.7363C6.04494 8.80909 8.83448 6.0381 13.8965 6.0381L65.6367 6.0381C70.665 6.0381 73.5034 8.80909 73.5034 13.7363L73.5034 93.8716C73.5034 98.7988 70.665 101.536 65.6367 101.536Z" fill="#000000" fill-opacity="0.85"/>
  <path d="M20.3296 43.541L59.2373 43.541C61.9009 43.541 63.6284 41.8472 63.6284 39.0825L63.6284 28.3994C63.6284 25.6348 61.9009 23.9409 59.2373 23.9409L20.3296 23.9409C17.666 23.9409 15.9385 25.6348 15.9385 28.3994L15.9385 39.0825C15.9385 41.8472 17.666 43.541 20.3296 43.541ZM20.3296 83.3237L59.2373 83.3237C61.9009 83.3237 63.6284 81.5962 63.6284 78.8652L63.6284 68.1484C63.6284 65.4175 61.9009 63.69 59.2373 63.69L20.3296 63.69C17.666 63.69 15.9385 65.4175 15.9385 68.1484L15.9385 78.8652C15.9385 81.5962 17.666 83.3237 20.3296 83.3237Z" fill="#000000" fill-opacity="0.85"/>
 </g>
</svg>
