<?xml version="1.0" encoding="UTF-8"?>
<!--Generator: Apple Native CoreSVG 232.5-->
<!DOCTYPE svg
PUBLIC "-//W3C//DTD SVG 1.1//EN"
       "http://www.w3.org/Graphics/SVG/1.1/DTD/svg11.dtd">
<svg version="1.1" xmlns="http://www.w3.org/2000/svg" xmlns:xlink="http://www.w3.org/1999/xlink" width="100.217" height="126.214">
 <g>
  <rect height="126.214" opacity="0" width="100.217" x="0" y="0"/>
  <path d="M71.6813 13.437L28.5355 13.437C28.798 10.3145 30.9305 8.45849 34.2715 8.45849L65.9453 8.45849C69.2863 8.45849 71.4188 10.3145 71.6813 13.437Z" fill="#000000" fill-opacity="0.85"/>
  <path d="M81.3246 26.2523C80.0957 26.075 78.7967 25.9971 77.4473 25.9971L22.7695 25.9971C21.4206 25.9971 20.1221 26.0744 18.8936 26.2505C19.3888 22.6194 21.935 20.562 25.9795 20.562L74.271 20.562C78.3162 20.562 80.8358 22.6201 81.3246 26.2523Z" fill="#000000" fill-opacity="0.85"/>
  <path d="M91.856 48.6319L91.856 103.564C91.856 112.972 86.9863 117.838 77.4473 117.838L22.7695 117.838C13.2305 117.838 8.36084 113.002 8.36084 103.564L8.36084 48.6319C8.36084 39.1602 13.2305 34.3579 22.7695 34.3579L77.4473 34.3579C86.9863 34.3579 91.856 39.2393 91.856 48.6319ZM36.2407 58.7481L36.2407 93.8487C36.2407 96.0176 38.6538 97.0347 40.7251 95.77L69.1904 78.8452C71.1572 77.6665 71.1235 75.0244 69.1904 73.8794L40.7251 56.8267C38.7886 55.6631 36.2407 56.6128 36.2407 58.7481Z" fill="#000000" fill-opacity="0.85"/>
 </g>
</svg>
