<?xml version="1.0" encoding="UTF-8"?>
<!--Generator: Apple Native CoreSVG 232.5-->
<!DOCTYPE svg
PUBLIC "-//W3C//DTD SVG 1.1//EN"
       "http://www.w3.org/Graphics/SVG/1.1/DTD/svg11.dtd">
<svg version="1.1" xmlns="http://www.w3.org/2000/svg" xmlns:xlink="http://www.w3.org/1999/xlink" width="114.35" height="88.4395">
 <g>
  <rect height="88.4395" opacity="0" width="114.35" x="0" y="0"/>
  <path d="M114.35 14.2739L114.35 74.169C114.35 83.5615 109.514 88.4092 99.9409 88.4092L14.3936 88.4092C4.86963 88.4092 0 83.6069 0 74.169L0 14.2739C0 4.83594 4.86963 0 14.3936 0L99.9409 0C109.514 0 114.35 4.88135 114.35 14.2739ZM43.3223 26.7183L43.3223 61.8189C43.3223 63.9727 45.7539 64.9898 47.8066 63.7402L76.2905 46.8003C78.2236 45.6216 78.1899 42.9946 76.2905 41.8496L47.8066 24.7817C45.8887 23.6333 43.3223 24.583 43.3223 26.7183Z" fill="#000000" fill-opacity="0.85"/>
 </g>
</svg>
