<?xml version="1.0" encoding="UTF-8"?>
<!--Generator: Apple Native CoreSVG 232.5-->
<!DOCTYPE svg
PUBLIC "-//W3C//DTD SVG 1.1//EN"
       "http://www.w3.org/Graphics/SVG/1.1/DTD/svg11.dtd">
<svg version="1.1" xmlns="http://www.w3.org/2000/svg" xmlns:xlink="http://www.w3.org/1999/xlink" width="118.922" height="94.1026">
 <g>
  <rect height="94.1026" opacity="0" width="118.922" x="0" y="0"/>
  <path d="M86.5537 90.9732C86.5537 92.6861 85.1709 94.0049 83.4917 94.0049L35.4302 94.0049C33.7661 94.0049 32.3682 92.6861 32.3682 90.9732C32.3682 89.2754 33.7661 87.9414 35.4302 87.9414L83.4917 87.9414C85.1709 87.9414 86.5537 89.2754 86.5537 90.9732ZM118.922 11.4287L118.922 67.7036C118.922 75.3218 115.025 79.1172 107.508 79.1172L11.4136 79.1172C3.93018 79.1172 0 75.3218 0 67.7036L0 11.4287C0 3.81055 3.93018 0 11.4136 0L107.508 0C115.025 0 118.922 3.81055 118.922 11.4287ZM43.0698 18.8892L43.0698 60.3223C43.0698 62.6714 45.5654 63.5537 47.4986 62.439L81.688 42.3018C83.8418 41.0523 83.7896 38.1104 81.6543 36.8608L47.4986 16.7725C45.5654 15.6426 43.0698 16.5249 43.0698 18.8892Z" fill="#000000" fill-opacity="0.85"/>
 </g>
</svg>
