<?xml version="1.0" encoding="UTF-8"?>
<!--Generator: Apple Native CoreSVG 232.5-->
<!DOCTYPE svg
PUBLIC "-//W3C//DTD SVG 1.1//EN"
       "http://www.w3.org/Graphics/SVG/1.1/DTD/svg11.dtd">
<svg version="1.1" xmlns="http://www.w3.org/2000/svg" xmlns:xlink="http://www.w3.org/1999/xlink" width="97.9595" height="97.9932">
 <g>
  <rect height="97.9932" opacity="0" width="97.9595" x="0" y="0"/>
  <path d="M97.9595 48.9722C97.9595 75.7759 75.8247 97.9443 48.9722 97.9443C22.1685 97.9443 0 75.7759 0 48.9722C0 22.1348 22.1348 0 48.9385 0C75.791 0 97.9595 22.1348 97.9595 48.9722ZM37.2168 35.29C32.8506 35.29 30.6768 37.543 30.6768 41.7627L30.6768 65.4644C30.6768 69.7666 32.8506 71.9556 37.2168 71.9556L71.4043 71.9556C75.7402 71.9556 77.8955 69.7666 77.8955 65.4644L77.8955 41.7627C77.8955 37.543 75.7402 35.29 71.4043 35.29ZM49.333 43.9785L64.1123 52.7017C64.9155 53.1748 64.9492 54.2559 64.1646 54.729L49.333 63.4858C48.4321 64.0264 47.3662 63.5684 47.3662 62.5513L47.3662 44.8794C47.3662 43.8286 48.4321 43.4717 49.333 43.9785ZM26.4204 25.2192C22.0693 25.2192 19.9292 27.4385 19.9292 31.6431L19.9292 55.3936C19.9292 59.7295 22.0693 61.8848 26.4204 61.8848L27.9233 61.8848L27.9233 41.7627C27.9233 36.0088 31.3013 32.5366 37.2168 32.5366L67.148 32.5366L67.148 31.6431C67.148 27.4385 64.9439 25.2192 60.6416 25.2192Z" fill="#000000" fill-opacity="0.85"/>
 </g>
</svg>
