<?xml version="1.0" encoding="UTF-8"?>
<!--Generator: Apple Native CoreSVG 232.5-->
<!DOCTYPE svg
PUBLIC "-//W3C//DTD SVG 1.1//EN"
       "http://www.w3.org/Graphics/SVG/1.1/DTD/svg11.dtd">
<svg version="1.1" xmlns="http://www.w3.org/2000/svg" xmlns:xlink="http://www.w3.org/1999/xlink" width="97.9595" height="97.9932">
 <g>
  <rect height="97.9932" opacity="0" width="97.9595" x="0" y="0"/>
  <path d="M48.9722 97.9443C75.8247 97.9443 97.9595 75.7759 97.9595 48.9722C97.9595 22.1348 75.791 0 48.9385 0C22.1348 0 0 22.1348 0 48.9722C0 75.7759 22.1685 97.9443 48.9722 97.9443ZM48.9722 91.6113C25.3501 91.6113 6.36671 72.5942 6.36671 48.9722C6.36671 25.3501 25.3164 6.31789 48.9385 6.31789C72.5605 6.31789 91.6265 25.3501 91.6265 48.9722C91.6265 72.5942 72.5942 91.6113 48.9722 91.6113Z" fill="#000000" fill-opacity="0.85"/>
  <path d="M21.6328 67.6191L47.2393 51.4238C49.0527 50.2114 49.0527 47.8726 47.2393 46.7275L21.6328 30.4043C19.7822 29.2407 17.3692 30.2241 17.3692 32.2583L17.3692 65.7837C17.3692 67.8516 19.6812 68.835 21.6328 67.6191ZM55.7588 67.2827L60.4697 67.2827C62.6772 67.2827 63.6572 66.0889 63.6572 64.3579L63.6572 33.6318C63.6572 31.8823 62.6772 30.7222 60.4697 30.7222L55.7588 30.7222C53.6001 30.7222 52.5376 31.8823 52.5376 33.6318L52.5376 64.3579C52.5376 66.0889 53.6001 67.2827 55.7588 67.2827ZM72.8535 67.2827L77.5645 67.2827C79.6895 67.2827 80.7183 66.0889 80.7183 64.3579L80.7183 33.6318C80.7183 31.8823 79.6895 30.7222 77.5645 30.7222L72.8535 30.7222C70.6948 30.7222 69.6626 31.8823 69.6626 33.6318L69.6626 64.3579C69.6626 66.0889 70.6948 67.2827 72.8535 67.2827Z" fill="#000000" fill-opacity="0.85"/>
 </g>
</svg>
