<?xml version="1.0" encoding="UTF-8"?>
<!--Generator: Apple Native CoreSVG 232.5-->
<!DOCTYPE svg
PUBLIC "-//W3C//DTD SVG 1.1//EN"
       "http://www.w3.org/Graphics/SVG/1.1/DTD/svg11.dtd">
<svg version="1.1" xmlns="http://www.w3.org/2000/svg" xmlns:xlink="http://www.w3.org/1999/xlink" width="163.522" height="108.726">
 <g>
  <rect height="108.726" opacity="0" width="163.522" x="0" y="0"/>
  <path d="M81.2505 42.9722L81.2505 48.647C81.2505 61.2359 88.626 68.5777 101.301 68.5777L136.479 68.5777L136.479 83.7227C136.479 93.1153 131.643 97.9966 123.035 97.9966L41.4517 97.9966C31.9463 97.9966 27.043 93.1944 27.043 83.7227L27.043 42.9722ZM63.832 13.8589L66.6441 16.27C69.2251 18.5513 71.148 19.2417 74.8618 19.2417L81.2769 19.2417C81.2532 19.4667 81.2505 19.707 81.2505 19.9492L81.2505 37.9077L27.043 37.9077L27.043 23.5957C27.043 14.6743 31.5054 10.2456 39.6113 10.2456L53.4971 10.2456C58.4067 10.2456 60.6245 11.0186 63.832 13.8589Z" fill="#000000" fill-opacity="0.85"/>
  <path d="M157.865 19.9492L157.865 48.647C157.865 58.085 152.961 62.9209 143.456 62.9209L101.301 62.9209C91.7769 62.9209 86.9072 58.085 86.9072 48.647L86.9072 19.9492C86.9072 10.4927 91.7769 5.69044 101.301 5.69044L143.456 5.69044C152.961 5.69044 157.865 10.4927 157.865 19.9492ZM119.769 21.4903L119.769 31.666L109.612 31.666C108.078 31.666 106.978 32.6714 106.978 34.2661C106.978 35.8609 108.078 36.8662 109.612 36.8662L119.769 36.8662L119.769 47.0571C119.769 48.6065 120.774 49.6572 122.403 49.6572C123.998 49.6572 125.018 48.6065 125.018 47.0571L125.018 36.8662L135.145 36.8662C136.709 36.8662 137.745 35.8609 137.745 34.2661C137.745 32.6714 136.709 31.666 135.145 31.666L125.018 31.666L125.018 21.4903C125.018 19.9898 123.998 18.8902 122.403 18.8902C120.774 18.8902 119.769 19.9898 119.769 21.4903Z" fill="#000000" fill-opacity="0.85"/>
 </g>
</svg>
