<?xml version="1.0" encoding="UTF-8"?>
<!--Generator: Apple Native CoreSVG 232.5-->
<!DOCTYPE svg
PUBLIC "-//W3C//DTD SVG 1.1//EN"
       "http://www.w3.org/Graphics/SVG/1.1/DTD/svg11.dtd">
<svg version="1.1" xmlns="http://www.w3.org/2000/svg" xmlns:xlink="http://www.w3.org/1999/xlink" width="112.836" height="110.588">
 <g>
  <rect height="110.588" opacity="0" width="112.836" x="0" y="0"/>
  <path d="M83.4976 20.0586L83.4976 21.4185L43.7319 21.4185C31.0757 21.4185 23.6665 28.7266 23.6665 41.3491L23.6665 83.6406L20.0503 83.6406C10.5112 83.6406 5.64161 78.8047 5.64161 69.3667L5.64161 20.0586C5.64161 10.6206 10.5112 5.78468 20.0503 5.78468L69.104 5.78468C78.5943 5.78468 83.4976 10.666 83.4976 20.0586Z" fill="#000000" fill-opacity="0.85"/>
  <path d="M107.179 41.3491L107.179 90.6573C107.179 100.05 102.276 104.931 92.7857 104.931L43.7319 104.931C34.1929 104.931 29.3233 100.095 29.3233 90.6573L29.3233 41.3491C29.3233 31.8775 34.1929 27.0752 43.7319 27.0752L92.7857 27.0752C102.276 27.0752 107.179 31.9414 107.179 41.3491ZM65.0435 46.2827L65.0435 62.7315L48.5947 62.7315C46.6426 62.7315 45.2935 64.0957 45.2935 66.0293C45.2935 67.8838 46.6914 69.1958 48.5947 69.1958L65.0435 69.1958L65.0435 85.6631C65.0435 87.5479 66.3555 88.9458 68.21 88.9458C70.1436 88.9458 71.5078 87.5967 71.5078 85.6631L71.5078 69.1958L87.9902 69.1958C89.8599 69.1958 91.273 67.8838 91.273 66.0293C91.273 64.0957 89.8902 62.7315 87.9902 62.7315L71.5078 62.7315L71.5078 46.2827C71.5078 44.3491 70.1436 42.9663 68.21 42.9663C66.3555 42.9663 65.0435 44.3794 65.0435 46.2827Z" fill="#000000" fill-opacity="0.85"/>
 </g>
</svg>
