<?xml version="1.0" encoding="UTF-8"?>
<!--Generator: Apple Native CoreSVG 232.5-->
<!DOCTYPE svg
PUBLIC "-//W3C//DTD SVG 1.1//EN"
       "http://www.w3.org/Graphics/SVG/1.1/DTD/svg11.dtd">
<svg version="1.1" xmlns="http://www.w3.org/2000/svg" xmlns:xlink="http://www.w3.org/1999/xlink" width="88.0713" height="88.1201">
 <g>
  <rect height="88.1201" opacity="0" width="88.0713" x="0" y="0"/>
  <path d="M82.6309 5.48926C87.1421 9.98536 88.0713 16.2227 88.0713 25.1021L88.0713 62.9356C88.0713 71.8149 87.1421 78.0557 82.6309 82.5669C78.1196 87.0933 71.7998 88.0713 62.9356 88.0713L25.1021 88.0713C16.2715 88.0713 9.98194 87.0933 5.44043 82.5669C0.929198 78.0859 0 71.8149 0 62.9356L0 24.8228C0 16.2866 0.944334 10.0308 5.47071 5.51953C9.98194 0.993162 16.3169 0 24.8228 0L62.9356 0C71.7998 0 78.0894 0.978026 82.6309 5.48926ZM40.7681 24.3228L40.7681 40.7563L24.3193 40.7563C22.3672 40.7563 21.0029 42.1357 21.0029 44.0693C21.0029 45.9238 22.416 47.2359 24.3193 47.2359L40.7681 47.2359L40.7681 63.7031C40.7681 65.5879 42.0801 66.9859 43.9346 66.9859C45.8682 66.9859 47.2324 65.6367 47.2324 63.7031L47.2324 47.2359L63.7148 47.2359C65.5845 47.2359 66.9976 45.9238 66.9976 44.0693C66.9976 42.1357 65.6148 40.7563 63.7148 40.7563L47.2324 40.7563L47.2324 24.3228C47.2324 22.3892 45.8682 21.0063 43.9346 21.0063C42.0801 21.0063 40.7681 22.4043 40.7681 24.3228Z" fill="#000000" fill-opacity="0.85"/>
 </g>
</svg>
