<?xml version="1.0" encoding="UTF-8"?>
<!--Generator: Apple Native CoreSVG 232.5-->
<!DOCTYPE svg
PUBLIC "-//W3C//DTD SVG 1.1//EN"
       "http://www.w3.org/Graphics/SVG/1.1/DTD/svg11.dtd">
<svg version="1.1" xmlns="http://www.w3.org/2000/svg" xmlns:xlink="http://www.w3.org/1999/xlink" width="131.109" height="107.654">
 <g>
  <rect height="107.654" opacity="0" width="131.109" x="0" y="0"/>
  <path d="M102.297 19.9761L102.297 21.3359L43.2212 21.3359C30.5313 21.3359 23.1709 28.6777 23.1709 41.2515L23.1709 80.6734L20.0991 80.6734C10.5601 80.6734 5.69044 75.8711 5.69044 66.3994L5.69044 19.9761C5.69044 10.5381 10.5601 5.70216 20.0991 5.70216L87.8882 5.70216C97.4273 5.70216 102.297 10.5835 102.297 19.9761Z" fill="#000000" fill-opacity="0.85"/>
  <path d="M125.419 41.2515L125.419 87.69C125.419 97.0825 120.549 101.964 111.01 101.964L43.2212 101.964C33.6821 101.964 28.8277 97.1616 28.8277 87.69L28.8277 41.2515C28.8277 31.8135 33.6821 26.9776 43.2212 26.9776L111.01 26.9776C120.549 26.9776 125.419 31.8589 125.419 41.2515ZM73.9155 44.7671L73.9155 61.2007L57.4668 61.2007C55.4995 61.2007 54.1504 62.5464 54.1504 64.5137C54.1504 66.3345 55.5635 67.6802 57.4668 67.6802L73.9155 67.6802L73.9155 84.1475C73.9155 86.0323 75.2124 87.4302 77.0669 87.4302C79.0005 87.4302 80.3799 86.0474 80.3799 84.1475L80.3799 67.6802L96.8472 67.6802C98.732 67.6802 100.13 66.3345 100.13 64.5137C100.13 62.5464 98.7471 61.2007 96.8472 61.2007L80.3799 61.2007L80.3799 44.7671C80.3799 42.7998 79.0005 41.4507 77.0669 41.4507C75.2124 41.4507 73.9155 42.8487 73.9155 44.7671Z" fill="#000000" fill-opacity="0.85"/>
 </g>
</svg>
