<?xml version="1.0" encoding="UTF-8"?>
<!--Generator: Apple Native CoreSVG 232.5-->
<!DOCTYPE svg
PUBLIC "-//W3C//DTD SVG 1.1//EN"
       "http://www.w3.org/Graphics/SVG/1.1/DTD/svg11.dtd">
<svg version="1.1" xmlns="http://www.w3.org/2000/svg" xmlns:xlink="http://www.w3.org/1999/xlink" width="94.1084" height="95.0059">
 <g>
  <rect height="95.0059" opacity="0" width="94.1084" x="0" y="0"/>
  <path d="M0 37.9053C0 58.7842 17.0264 75.8106 37.9053 75.8106C46.4771 75.8106 54.3164 72.94 60.6524 68.1231L86.0684 93.6182C86.9492 94.499 88.1567 94.9907 89.4468 94.9907C92.2524 94.9907 94.1084 92.8789 94.1084 90.228C94.1084 88.9683 93.6284 87.8096 92.7544 86.9507L67.4546 61.5195C72.6807 55.0523 75.8106 46.8374 75.8106 37.9053C75.8106 17.0264 58.7842 0 37.9053 0C17.0264 0 0 17.0264 0 37.9053ZM6.36671 37.9053C6.36671 20.5264 20.5264 6.35158 37.9053 6.35158C55.2842 6.35158 69.4438 20.5264 69.4438 37.9053C69.4438 55.2842 55.2842 69.4438 37.9053 69.4438C20.5264 69.4438 6.36671 55.2842 6.36671 37.9053ZM22.3369 37.9053C22.3369 39.4531 23.5513 40.6826 25.1143 40.6826L35.1279 40.6826L35.1279 50.6812C35.1279 52.2442 36.3423 53.4736 37.9053 53.4585C39.4531 53.4736 40.7163 52.229 40.7163 50.6812L40.7163 40.6826L50.6812 40.6826C52.229 40.6826 53.4585 39.4531 53.4585 37.9053C53.4585 36.3423 52.229 35.0942 50.6812 35.0942L40.7163 35.0942L40.7163 25.0991C40.7163 23.5513 39.4531 22.3218 37.9053 22.3218C36.3423 22.3218 35.1279 23.5513 35.1279 25.0991L35.1279 35.0942L25.1143 35.0942C23.5513 35.0942 22.3369 36.3423 22.3369 37.9053Z" fill="#000000" fill-opacity="0.85"/>
 </g>
</svg>
