<?xml version="1.0" encoding="UTF-8"?>
<!--Generator: Apple Native CoreSVG 232.5-->
<!DOCTYPE svg
PUBLIC "-//W3C//DTD SVG 1.1//EN"
       "http://www.w3.org/Graphics/SVG/1.1/DTD/svg11.dtd">
<svg version="1.1" xmlns="http://www.w3.org/2000/svg" xmlns:xlink="http://www.w3.org/1999/xlink" width="97.9595" height="97.9932">
 <g>
  <rect height="97.9932" opacity="0" width="97.9595" x="0" y="0"/>
  <path d="M48.9722 97.9443C75.8247 97.9443 97.9595 75.7759 97.9595 48.9722C97.9595 22.1348 75.791 0 48.9385 0C22.1348 0 0 22.1348 0 48.9722C0 75.7759 22.1685 97.9443 48.9722 97.9443ZM48.9722 91.6113C25.3501 91.6113 6.36671 72.5942 6.36671 48.9722C6.36671 25.3501 25.3164 6.31789 48.9385 6.31789C72.5605 6.31789 91.6265 25.3501 91.6265 48.9722C91.6265 72.5942 72.5942 91.6113 48.9722 91.6113Z" fill="#000000" fill-opacity="0.85"/>
  <path d="M26.77 48.9722C26.77 50.7593 28.082 52.0376 29.9668 52.0376L45.7905 52.0376L45.7905 67.895C45.7905 69.7461 47.1025 71.0918 48.8897 71.0918C50.7559 71.0918 52.1016 69.7949 52.1016 67.895L52.1016 52.0376L67.959 52.0376C69.8101 52.0376 71.1406 50.7593 71.1406 48.9722C71.1406 47.106 69.8252 45.7603 67.959 45.7603L52.1016 45.7603L52.1016 29.9365C52.1016 28.0366 50.7559 26.7212 48.8897 26.7212C47.1025 26.7212 45.7905 28.0518 45.7905 29.9365L45.7905 45.7603L29.9668 45.7603C28.0669 45.7603 26.77 47.106 26.77 48.9722Z" fill="#000000" fill-opacity="0.85"/>
 </g>
</svg>
