<?xml version="1.0" encoding="UTF-8"?>
<!--Generator: Apple Native CoreSVG 232.5-->
<!DOCTYPE svg
PUBLIC "-//W3C//DTD SVG 1.1//EN"
       "http://www.w3.org/Graphics/SVG/1.1/DTD/svg11.dtd">
<svg version="1.1" xmlns="http://www.w3.org/2000/svg" xmlns:xlink="http://www.w3.org/1999/xlink" width="80.7363" height="104.094">
 <g>
  <rect height="104.094" opacity="0" width="80.7363" x="0" y="0"/>
  <path d="M0 89.7187C0 99.2578 4.80225 104.094 14.2739 104.094L66.4624 104.094C75.9341 104.094 80.7363 99.2578 80.7363 89.7187L80.7363 14.4356C80.7363 4.93018 75.9341 0.0268549 66.4624 0.0268549L14.2739 0.0268549C4.80225 0.0268549 0 4.93018 0 14.4356ZM6.04494 89.5874L6.04494 14.5669C6.04494 9.06349 8.93556 6.07179 14.5737 6.07179L66.1626 6.07179C71.8008 6.07179 74.6914 9.06349 74.6914 14.5669L74.6914 89.5874C74.6914 95.0908 71.8008 98.0488 66.1626 98.0488L14.5737 98.0488C8.93556 98.0488 6.04494 95.0908 6.04494 89.5874Z" fill="#000000" fill-opacity="0.85"/>
  <path d="M18.2148 52.0225C18.2148 53.8096 19.5454 55.0879 21.4302 55.0879L37.2539 55.0879L37.2539 70.9453C37.2539 72.7964 38.5659 74.1421 40.3193 74.1421C42.2192 74.1421 43.5313 72.8452 43.5313 70.9453L43.5313 55.0879L59.3887 55.0879C61.2398 55.0879 62.5855 53.8096 62.5855 52.0225C62.5855 50.1562 61.2886 48.8105 59.3887 48.8105L43.5313 48.8105L43.5313 32.9868C43.5313 31.0869 42.2192 29.7715 40.3193 29.7715C38.5659 29.7715 37.2539 31.1021 37.2539 32.9868L37.2539 48.8105L21.4302 48.8105C19.5303 48.8105 18.2148 50.1562 18.2148 52.0225Z" fill="#000000" fill-opacity="0.85"/>
 </g>
</svg>
