<?xml version="1.0" encoding="UTF-8"?>
<!--Generator: Apple Native CoreSVG 232.5-->
<!DOCTYPE svg
PUBLIC "-//W3C//DTD SVG 1.1//EN"
       "http://www.w3.org/Graphics/SVG/1.1/DTD/svg11.dtd">
<svg version="1.1" xmlns="http://www.w3.org/2000/svg" xmlns:xlink="http://www.w3.org/1999/xlink" width="84.2842" height="103.328">
 <g>
  <rect height="103.328" opacity="0" width="84.2842" x="0" y="0"/>
  <path d="M14.8901 30.0967C15.9173 30.0967 16.92 29.9923 17.8882 29.7936L17.8882 32.2666C17.8882 38.4136 22.1934 42.8887 30.3828 45.271L55.7002 52.6587C66.6704 55.8057 72.3921 62.2481 72.3921 71.3745L72.3921 73.8791C71.424 73.6816 70.4214 73.5781 69.394 73.5781C68.3499 73.5781 67.3304 73.6854 66.3472 73.8919L66.3472 71.3745C66.3472 65.2124 62.1245 60.8047 53.9014 58.4038L28.584 51.001C17.5986 47.8692 11.8584 41.4268 11.8584 32.2666L11.8584 29.7864C12.8366 29.9902 13.8508 30.0967 14.8901 30.0967Z" fill="#000000" fill-opacity="0.85"/>
  <path d="M69.394 73.5781C61.1719 73.5781 54.4854 80.231 54.4854 88.502C54.4854 96.6753 61.1719 103.328 69.394 103.328C77.6314 103.328 84.2842 96.6753 84.2842 88.502C84.2842 80.231 77.6314 73.5781 69.394 73.5781ZM14.8901 30.0967C23.1123 30.0967 29.7651 23.4102 29.7651 15.1729C29.7651 6.98438 23.1123 0.29785 14.8901 0.29785C6.65284 0.29785 0 6.98438 0 15.1729C0 23.4102 6.65284 30.0967 14.8901 30.0967Z" fill="#000000" fill-opacity="0.85"/>
 </g>
</svg>
