<?xml version="1.0" encoding="UTF-8"?>
<!--Generator: Apple Native CoreSVG 232.5-->
<!DOCTYPE svg
PUBLIC "-//W3C//DTD SVG 1.1//EN"
       "http://www.w3.org/Graphics/SVG/1.1/DTD/svg11.dtd">
<svg version="1.1" xmlns="http://www.w3.org/2000/svg" xmlns:xlink="http://www.w3.org/1999/xlink" width="85.332" height="122.078">
 <g>
  <rect height="122.078" opacity="0" width="85.332" x="0" y="0"/>
  <path d="M40.3374 22.1961L44.5698 25.6824L25.4644 25.6824C13.918 25.6824 6.68508 31.2063 6.68508 39.9207C6.68508 48.7058 14.4819 54.8054 28.8916 56.304L57.9648 59.3396C75.6841 61.1228 85.332 69.572 85.332 82.157C85.332 94.5852 75.7344 102.425 60.5078 102.425L29.4738 102.425C29.6858 101.432 29.7954 100.401 29.7954 99.3445C29.7954 98.3352 29.6941 97.3486 29.4991 96.3953L60.5078 96.3953C72.0693 96.3953 79.3022 90.8714 79.3022 82.157C79.3022 73.3719 71.4565 67.2723 57.0806 65.7737L27.8189 62.7381C10.2695 60.9851 0.640139 52.5056 0.640139 39.9207C0.640139 27.4925 10.2529 19.6526 25.4644 19.6526L38.1411 19.6526C38.6699 20.574 39.4194 21.428 40.3374 22.1961Z" fill="#000000" fill-opacity="0.85"/>
  <path d="M14.9204 114.268C23.1275 114.268 29.7954 107.582 29.7954 99.3445C29.7954 91.156 23.1275 84.4695 14.9204 84.4695C6.68311 84.4695 0.0302732 91.156 0.0302732 99.3445C0.0302732 107.582 6.68311 114.268 14.9204 114.268ZM14.9204 108.358C9.89845 108.358 5.94044 104.4 5.94044 99.3445C5.94044 94.304 9.91358 90.3797 14.9204 90.3797C19.9458 90.3797 23.8853 94.304 23.8853 99.3445C23.8853 104.4 20.0098 108.358 14.9204 108.358Z" fill="#000000" fill-opacity="0.85"/>
  <path d="M58.4614 16.3069L68.1421 16.3069C74.9976 16.3069 79.9458 20.2093 79.9458 27.055C79.9458 33.9866 75.0986 38.3118 68.1084 38.3118L61.6636 38.3118C60.1528 38.3118 58.8862 39.2903 58.8862 40.9695C58.8862 42.5999 60.1528 43.5784 61.7647 43.5784L68.1084 43.5784C78.1538 43.5784 85.332 37.2473 85.332 27.242C85.332 17.304 78.1875 11.0403 68.1421 11.0403L58.4614 11.0403L58.4614 2.73464C58.4614 0.424091 56.3496-0.842513 54.5425 0.634541L41.419 11.3352C39.7163 12.7903 39.6826 14.572 41.419 16.0608L54.5274 26.679C56.3345 28.156 58.4614 26.9905 58.4614 24.6126Z" fill="#000000" fill-opacity="0.85"/>
 </g>
</svg>
