<?xml version="1.0" encoding="UTF-8"?>
<!--Generator: Apple Native CoreSVG 232.5-->
<!DOCTYPE svg
PUBLIC "-//W3C//DTD SVG 1.1//EN"
       "http://www.w3.org/Graphics/SVG/1.1/DTD/svg11.dtd">
<svg version="1.1" xmlns="http://www.w3.org/2000/svg" xmlns:xlink="http://www.w3.org/1999/xlink" width="84.6919" height="106.459">
 <g>
  <rect height="106.459" opacity="0" width="84.6919" x="0" y="0"/>
  <path d="M54.9082 14.875C54.9082 15.9018 55.0121 16.9045 55.2103 17.8731L24.8242 17.8731C13.2778 17.8731 6.04494 23.397 6.04494 32.1113C6.04494 40.8965 13.8569 46.9961 28.2515 48.4946L57.3247 51.5303C75.044 53.3135 84.6919 61.7627 84.6919 74.3477C84.6919 86.7759 75.0942 94.6157 59.8677 94.6157L29.4779 94.6157C29.6894 93.6225 29.7988 92.5916 29.7988 91.5352C29.7988 90.5258 29.6978 89.5393 29.5032 88.5859L59.8677 88.5859C71.4292 88.5859 78.6621 83.062 78.6621 74.3477C78.6621 65.5625 70.8164 59.4629 56.4404 57.9644L27.1787 54.9287C9.6294 53.1758 0 44.6963 0 32.1113C0 19.6831 9.6128 11.8433 24.8242 11.8433L55.2223 11.8433C55.0158 12.8221 54.9082 13.8365 54.9082 14.875Z" fill="#000000" fill-opacity="0.85"/>
  <path d="M14.9238 106.459C23.146 106.459 29.7988 99.7725 29.7988 91.5352C29.7988 83.3467 23.146 76.6602 14.9238 76.6602C6.68653 76.6602 0.0336915 83.3467 0.0336915 91.5352C0.0336915 99.7725 6.68653 106.459 14.9238 106.459ZM69.7983 29.7988C78.0391 29.7988 84.6919 23.1123 84.6919 14.875C84.6919 6.68653 78.0391 0 69.7983 0C61.5947 0 54.9082 6.68653 54.9082 14.875C54.9082 23.1123 61.5947 29.7988 69.7983 29.7988ZM69.7983 23.8887C64.7764 23.8887 60.8184 19.9307 60.8184 14.875C60.8184 9.83448 64.8252 5.91017 69.7983 5.91017C74.8574 5.91017 78.7969 9.83448 78.7969 14.875C78.7969 19.9307 74.8877 23.8887 69.7983 23.8887Z" fill="#000000" fill-opacity="0.85"/>
 </g>
</svg>
