<?xml version="1.0" encoding="UTF-8"?>
<!--Generator: Apple Native CoreSVG 232.5-->
<!DOCTYPE svg
PUBLIC "-//W3C//DTD SVG 1.1//EN"
       "http://www.w3.org/Graphics/SVG/1.1/DTD/svg11.dtd">
<svg version="1.1" xmlns="http://www.w3.org/2000/svg" xmlns:xlink="http://www.w3.org/1999/xlink" width="88.9668" height="120.92">
 <g>
  <rect height="120.92" opacity="0" width="88.9668" x="0" y="0"/>
  <path d="M47.7403 7.80908C49.459 7.41016 51.3916 7.47754 52.8848 7.9707C55.0469 5.8374 58.002 4.57471 61.2315 4.57471C66.3721 4.57471 70.2227 7.83935 71.8496 12.5151C79.2652 12.6348 84.6665 18.4067 84.6665 26.23C84.6665 29.9043 83.2435 33.2736 80.9165 35.7706C84.4056 38.7842 86.1835 43.4622 85.0874 49.1777L78.5716 83.6562C77.271 82.1022 75.5496 80.9108 73.5522 80.1848L79.5781 48.9082C80.9082 42.0474 76.251 37.687 70.0205 37.687C65.2661 37.687 61.3535 40.8555 60.8198 46.7144L57.2553 86.3712C56.7172 87.5856 56.4064 88.9314 56.3531 90.3721C54.3665 90.7656 52.5494 91.6361 51.0341 92.8575L55.2466 46.5728C55.8628 39.7256 51.5444 35.1968 44.4834 35.1968C37.4224 35.1968 33.0889 39.7256 33.7051 46.5728L39.3321 108.398L48.0943 108.398C49.8651 111.378 52.921 113.473 56.5396 114.039L25.3208 114.039C18.959 114.039 15.5005 110.75 14.3032 104.415L3.86427 49.1777C2.81912 43.7279 4.38695 39.2215 7.57268 36.2137C5.50743 33.9577 4.27003 30.8832 4.27003 27.4541C4.27003 20.4829 9.98 14.5576 16.9209 14.7261C16.9209 10.6035 20.5908 7.20069 24.6045 7.83008C25.5288 3.76368 29.9487 0 36.2315 0C41.335 0 45.8223 3.07275 47.7403 7.80908ZM9.37356 48.9082L19.9961 104.043C20.5601 107.062 22.395 108.398 25.4741 108.398L33.6763 108.398L28.1133 46.7144C27.6133 40.8555 23.6856 37.687 18.9312 37.687C12.7158 37.687 8.05862 42.0474 9.37356 48.9082ZM29.1861 13.6392C23.9785 11.3794 19.188 15.4536 20.1895 20.3736C14.3106 19.2734 9.72366 22.8643 9.72366 27.4541C9.72366 29.8661 10.7706 31.9338 12.4311 33.1844C14.387 32.4289 16.5867 32.0312 18.9312 32.0312C23.5528 32.0312 27.4707 33.9556 30.1294 37.644C32.4248 32.7886 37.8042 29.541 44.4834 29.541C51.1475 29.541 56.542 32.7886 58.8374 37.644C61.481 33.9556 65.3989 32.0312 70.0205 32.0312C72.0856 32.0312 74.0383 32.3397 75.8046 32.9399C77.8342 31.4904 79.2129 29.1453 79.2129 26.5518C79.2129 20.7212 74.398 17.2905 68.207 18.4639C68.52 13.6719 65.8164 10.0957 61.4522 10.0957C58.4517 10.0957 55.8301 11.7744 54.5152 14.689C52.1475 12.6533 46.9917 12.1987 43.939 14.3438C44.4478 8.74513 40.3985 5.52101 36.2315 5.52101C31.9063 5.52101 28.3535 8.68312 29.1861 13.6392Z" fill="#000000" fill-opacity="0.85"/>
  <path d="M68.7764 120.837C73.4522 120.837 77.7373 117.955 79.398 113.838C85.2237 112.85 88.9668 108.025 88.9668 102.356C88.9668 97.2119 85.7408 92.9434 81.2603 91.2388C81.2735 84.2681 75.7993 79.3535 68.7764 79.3535C62.0176 79.3535 56.5923 83.9063 56.3531 90.3721C50.6905 91.4937 46.4053 96.4912 46.4053 102.262C46.4053 108.859 51.5576 113.964 58.0957 114.202C59.6304 118.038 63.9004 120.837 68.7764 120.837ZM68.7764 115.825C64.6382 115.825 61.2891 113.194 61.7603 108.905C56.3711 110.377 51.3687 107.562 51.3687 102.262C51.3687 97.1968 55.5376 94.0064 61.3687 94.6079C60.0484 89.6885 62.8951 84.3657 68.7764 84.3657C74.6592 84.3657 77.7569 89.7168 76.27 95.2676C80.7959 95.0215 83.8535 97.9966 83.8535 102.509C83.8535 106.89 81.0147 109.532 75.75 109.123C75.7637 112.973 72.3911 115.825 68.7764 115.825Z" fill="#000000" fill-opacity="0.85"/>
 </g>
</svg>
