<?xml version="1.0" encoding="UTF-8"?>
<!--Generator: Apple Native CoreSVG 232.5-->
<!DOCTYPE svg
PUBLIC "-//W3C//DTD SVG 1.1//EN"
       "http://www.w3.org/Graphics/SVG/1.1/DTD/svg11.dtd">
<svg version="1.1" xmlns="http://www.w3.org/2000/svg" xmlns:xlink="http://www.w3.org/1999/xlink" width="91.7124" height="88.5371">
 <g>
  <rect height="88.5371" opacity="0" width="91.7124" x="0" y="0"/>
  <path d="M91.7124 14.4019L91.7124 74.2632C91.7124 83.6558 86.8428 88.5371 77.3037 88.5371L14.3936 88.5371C4.86963 88.5371 0 83.7349 0 74.2632L0 14.4019C0 4.93018 4.86963 0.127929 14.3936 0.127929L77.3037 0.127929C86.8428 0.127929 91.7124 5.00928 91.7124 14.4019ZM21.4795 60.4199C21.4795 64.3618 24.6855 67.5679 28.6274 67.5679C32.5357 67.5679 35.708 64.3618 35.708 60.4199C35.708 56.5454 32.5357 53.3057 28.6274 53.3057C24.6855 53.3057 21.4795 56.5454 21.4795 60.4199ZM55.9893 60.4199C55.9893 64.3618 59.1768 67.5679 63.1035 67.5679C66.978 67.5679 70.2178 64.3618 70.2178 60.4199C70.2178 56.5454 66.978 53.3057 63.1035 53.3057C59.1768 53.3057 55.9893 56.5454 55.9893 60.4199ZM38.7007 27.9707C38.7007 31.9126 41.9219 35.1187 45.8486 35.1187C49.7568 35.1187 52.9629 31.9126 52.9629 27.9707C52.9629 24.0776 49.7568 20.8901 45.8486 20.8901C41.9219 20.8901 38.7007 24.0776 38.7007 27.9707Z" fill="#000000" fill-opacity="0.85"/>
 </g>
</svg>
