<?xml version="1.0" encoding="UTF-8"?>
<!--Generator: Apple Native CoreSVG 232.5-->
<!DOCTYPE svg
PUBLIC "-//W3C//DTD SVG 1.1//EN"
       "http://www.w3.org/Graphics/SVG/1.1/DTD/svg11.dtd">
<svg version="1.1" xmlns="http://www.w3.org/2000/svg" xmlns:xlink="http://www.w3.org/1999/xlink" width="129.809" height="66.7432">
 <g>
  <rect height="66.7432" opacity="0" width="129.809" x="0" y="0"/>
  <path d="M33.6084 0C28.1904 0 24.8897 2.31739 21.1641 6.25343L3.02003 26.2856C-0.995113 30.5415-0.991694 35.8193 2.94093 40.1089L21.1304 60.3584C24.5679 64.0889 28.4785 66.6607 33.6084 66.6607L96.2007 66.6607C101.331 66.6607 105.208 64.0889 108.679 60.3584L126.834 40.1089C130.767 35.8193 130.804 30.5415 126.789 26.2856L108.645 6.25343C104.886 2.31739 101.619 0 96.2007 0ZM33.6084 6.04494L96.2007 6.04494C99.7222 6.04494 101.374 7.26418 103.882 9.89992L122.011 29.8159C124.205 32.1533 124.205 34.354 122.09 36.5972L103.882 56.727C101.628 59.1235 99.4341 60.6157 96.2007 60.6157L33.6084 60.6157C30.3413 60.6157 28.1807 59.1235 25.9424 56.727L7.71926 36.5972C5.57033 34.354 5.57033 32.1533 7.79836 29.8159L25.9424 9.89992C28.4351 7.26418 30.0532 6.04494 33.6084 6.04494Z" fill="#000000" fill-opacity="0.85"/>
  <path d="M31.9419 24.7417C27.2578 24.7417 23.4038 28.6143 23.4038 33.3135C23.4038 38.0127 27.2578 41.8853 31.9419 41.8853C36.6748 41.8853 40.5288 38.0127 40.5288 33.3135C40.5288 28.6143 36.6748 24.7417 31.9419 24.7417ZM64.9307 33.4028C60.2129 33.4028 56.3589 37.2754 56.3589 41.9746C56.3589 46.6587 60.2129 50.5464 64.9307 50.5464C69.6299 50.5464 73.4839 46.6587 73.4839 41.9746C73.4839 37.2754 69.6299 33.4028 64.9307 33.4028ZM97.9009 24.7417C93.2017 24.7417 89.314 28.6143 89.314 33.3135C89.314 38.0127 93.2017 41.8853 97.9009 41.8853C102.585 41.8853 106.473 38.0127 106.473 33.3135C106.473 28.6143 102.585 24.7417 97.9009 24.7417Z" fill="#000000" fill-opacity="0.85"/>
 </g>
</svg>
