<?xml version="1.0" encoding="UTF-8"?>
<!--Generator: Apple Native CoreSVG 232.5-->
<!DOCTYPE svg
PUBLIC "-//W3C//DTD SVG 1.1//EN"
       "http://www.w3.org/Graphics/SVG/1.1/DTD/svg11.dtd">
<svg version="1.1" xmlns="http://www.w3.org/2000/svg" xmlns:xlink="http://www.w3.org/1999/xlink" width="103.625" height="82.8525">
 <g>
  <rect height="82.8525" opacity="0" width="103.625" x="0" y="0"/>
  <path d="M25.0918 82.7549L78.4839 82.7549C81.8516 82.7549 84.9297 81.6099 87.3106 79.3115C97.5781 69.4902 103.625 55.3315 103.625 41.4019C103.625 27.4722 97.5781 13.3135 87.3106 3.47705C84.9448 1.20898 81.8213 0 78.4839 0L25.0918 0C21.6382 0 18.395 1.31006 15.9771 3.74658C5.96387 13.5342 0 27.5918 0 41.4019C0 55.3315 6.03125 69.4902 16.2988 79.3115C18.6948 81.6099 21.7393 82.7549 25.0918 82.7549ZM25.0918 76.8784C23.2349 76.8784 21.7568 76.333 20.5684 75.1597C11.564 66.6587 6.04494 53.9941 6.04494 41.5552C6.04494 29.1314 11.5977 16.3657 20.6358 7.89845C21.8091 6.7588 23.2686 6.19826 25.0918 6.19826L78.4839 6.19826C80.3408 6.19826 81.8525 6.79249 83.0259 7.96583C92.0117 16.4668 97.5796 29.1314 97.5796 41.5552C97.5796 53.9941 92.0117 66.6587 83.0259 75.1597C81.8525 76.333 80.3408 76.8784 78.4839 76.8784Z" fill="#000000" fill-opacity="0.85"/>
  <path d="M31.2524 60.3262C33.1909 60.3262 34.7808 58.8828 34.7808 56.9106L34.7808 26.2637C34.7808 24.2915 33.1607 22.7017 31.2524 22.7017C29.2803 22.7017 27.8369 24.2915 27.8369 26.2637L27.8369 56.9106C27.8369 58.8828 29.2954 60.3262 31.2524 60.3262ZM72.3232 60.3262C74.2954 60.3262 75.7876 58.8491 75.7876 56.8618L75.7876 26.2637C75.7876 24.2612 74.2954 22.7017 72.3232 22.7017C70.3511 22.7017 68.8437 24.2915 68.8437 26.2637L68.8437 56.8618C68.8437 58.8003 70.3511 60.3262 72.3232 60.3262Z" fill="#000000" fill-opacity="0.85"/>
 </g>
</svg>
