<?xml version="1.0" encoding="UTF-8"?>
<!--Generator: Apple Native CoreSVG 232.5-->
<!DOCTYPE svg
PUBLIC "-//W3C//DTD SVG 1.1//EN"
       "http://www.w3.org/Graphics/SVG/1.1/DTD/svg11.dtd">
<svg version="1.1" xmlns="http://www.w3.org/2000/svg" xmlns:xlink="http://www.w3.org/1999/xlink" width="88.4092" height="88.5371">
 <g>
  <rect height="88.5371" opacity="0" width="88.4092" x="0" y="0"/>
  <path d="M14.3936 88.5371L74.0005 88.5371C83.5733 88.5371 88.4092 83.6558 88.4092 74.2632L88.4092 14.4019C88.4092 5.00928 83.5733 0.127929 74.0005 0.127929L14.3936 0.127929C4.86963 0.127929 0 4.93018 0 14.4019L0 74.2632C0 83.7349 4.86963 88.5371 14.3936 88.5371ZM14.5064 82.4922C9.00294 82.4922 6.04494 79.6016 6.04494 73.9634L6.04494 14.7017C6.04494 9.06349 9.00294 6.17287 14.5064 6.17287L73.9028 6.17287C79.2969 6.17287 82.3643 9.06349 82.3643 14.7017L82.3643 73.9634C82.3643 79.6016 79.2969 82.4922 73.9028 82.4922Z" fill="#000000" fill-opacity="0.85"/>
  <path d="M28.9775 66.2744L59.4165 66.2744C60.8174 66.2744 62.1694 65.835 63.1948 64.8399C68.5239 59.8374 72.1592 52.2437 72.1592 44.293C72.1592 36.3574 68.5239 28.7637 63.1948 23.7798C62.1694 22.7847 60.8174 22.3604 59.4165 22.3604L28.9775 22.3604C27.5767 22.3604 26.2432 22.7358 25.2632 23.6484C19.9341 28.6509 16.25 36.2935 16.25 44.293C16.25 52.2437 19.8853 59.8374 25.2144 64.8399C26.2246 65.835 27.5767 66.2744 28.9775 66.2744ZM32.4814 54.9131C31.1343 54.9131 30.0498 53.8438 30.0498 52.4478L30.0498 36.1348C30.0498 34.7388 31.1343 33.6729 32.4814 33.6729C33.8623 33.6729 34.9771 34.7388 34.9771 36.1348L34.9771 52.4478C34.9771 53.8438 33.8623 54.9131 32.4814 54.9131ZM55.9277 54.9131C54.5317 54.9131 53.481 53.8438 53.481 52.4478L53.481 36.1348C53.481 34.7388 54.5317 33.6729 55.9277 33.6729C57.2935 33.6729 58.3745 34.7388 58.3745 36.1348L58.3745 52.4478C58.3745 53.8438 57.2935 54.9131 55.9277 54.9131Z" fill="#000000" fill-opacity="0.85"/>
 </g>
</svg>
