<?xml version="1.0" encoding="UTF-8"?>
<!--Generator: Apple Native CoreSVG 232.5-->
<!DOCTYPE svg
PUBLIC "-//W3C//DTD SVG 1.1//EN"
       "http://www.w3.org/Graphics/SVG/1.1/DTD/svg11.dtd">
<svg version="1.1" xmlns="http://www.w3.org/2000/svg" xmlns:xlink="http://www.w3.org/1999/xlink" width="91.7124" height="88.5371">
 <g>
  <rect height="88.5371" opacity="0" width="91.7124" x="0" y="0"/>
  <path d="M91.7124 14.4019L91.7124 74.2632C91.7124 83.6558 86.8428 88.5371 77.3037 88.5371L14.3936 88.5371C4.86963 88.5371 0 83.7349 0 74.2632L0 14.4019C0 4.93018 4.86963 0.127929 14.3936 0.127929L77.3037 0.127929C86.8428 0.127929 91.7124 5.00928 91.7124 14.4019ZM21.4795 57.8687C21.4795 61.8106 24.6855 65.0166 28.6274 65.0166C32.5357 65.0166 35.708 61.8106 35.708 57.8687C35.708 53.9605 32.5357 50.7544 28.6274 50.7544C24.6855 50.7544 21.4795 53.9605 21.4795 57.8687ZM55.9893 57.8687C55.9893 61.8106 59.1768 65.0166 63.1035 65.0166C66.978 65.0166 70.2178 61.8106 70.2178 57.8687C70.2178 53.9605 66.978 50.7544 63.1035 50.7544C59.1768 50.7544 55.9893 53.9605 55.9893 57.8687ZM38.7007 30.6348C38.7007 34.5767 41.9219 37.7827 45.8486 37.7827C49.7568 37.7827 52.9629 34.5767 52.9629 30.6348C52.9629 26.7266 49.7568 23.5205 45.8486 23.5205C41.9219 23.5205 38.7007 26.7266 38.7007 30.6348Z" fill="#000000" fill-opacity="0.85"/>
 </g>
</svg>
