<?xml version="1.0" encoding="UTF-8"?>
<!--Generator: Apple Native CoreSVG 232.5-->
<!DOCTYPE svg
PUBLIC "-//W3C//DTD SVG 1.1//EN"
       "http://www.w3.org/Graphics/SVG/1.1/DTD/svg11.dtd">
<svg version="1.1" xmlns="http://www.w3.org/2000/svg" xmlns:xlink="http://www.w3.org/1999/xlink" width="88.4092" height="88.5371">
 <g>
  <rect height="88.5371" opacity="0" width="88.4092" x="0" y="0"/>
  <path d="M88.4092 14.4019L88.4092 74.2632C88.4092 83.6558 83.5733 88.5371 74.0005 88.5371L14.3936 88.5371C4.86963 88.5371 0 83.7349 0 74.2632L0 14.4019C0 4.93018 4.86963 0.127929 14.3936 0.127929L74.0005 0.127929C83.5733 0.127929 88.4092 5.00928 88.4092 14.4019ZM35.6787 16.1465C33.1714 16.1465 31.3813 17.9365 31.3813 20.4287L31.3813 68.1353C31.3813 70.6763 33.1714 72.4512 35.6787 72.4512L52.7305 72.4512C55.2378 72.4512 57.0278 70.6763 57.0278 68.1353L57.0278 20.4287C57.0278 17.9365 55.2378 16.1465 52.7305 16.1465ZM49.0498 60.1509C49.0498 62.8467 46.876 65.0205 44.2139 65.0205C41.5181 65.0205 39.3442 62.8467 39.3442 60.1509C39.3442 57.4551 41.5181 55.3149 44.2139 55.3149C46.876 55.3149 49.0498 57.4551 49.0498 60.1509ZM49.0498 44.2441C49.0498 46.9399 46.876 49.0801 44.2139 49.0801C41.5181 49.0801 39.3442 46.9399 39.3442 44.2441C39.3442 41.5483 41.5181 39.4082 44.2139 39.4082C46.876 39.4082 49.0498 41.5483 49.0498 44.2441ZM49.0498 28.3223C49.0498 30.9844 46.876 33.1582 44.2139 33.1582C41.5181 33.1582 39.3442 30.9844 39.3442 28.3223C39.3442 25.6265 41.5181 23.4526 44.2139 23.4526C46.876 23.4526 49.0498 25.6265 49.0498 28.3223Z" fill="#000000" fill-opacity="0.85"/>
 </g>
</svg>
