<?xml version="1.0" encoding="UTF-8"?>
<!--Generator: Apple Native CoreSVG 232.5-->
<!DOCTYPE svg
PUBLIC "-//W3C//DTD SVG 1.1//EN"
       "http://www.w3.org/Graphics/SVG/1.1/DTD/svg11.dtd">
<svg version="1.1" xmlns="http://www.w3.org/2000/svg" xmlns:xlink="http://www.w3.org/1999/xlink" width="88.4092" height="88.5371">
 <g>
  <rect height="88.5371" opacity="0" width="88.4092" x="0" y="0"/>
  <path d="M14.3936 88.5371L74.0005 88.5371C83.5733 88.5371 88.4092 83.6558 88.4092 74.2632L88.4092 14.4019C88.4092 5.00928 83.5733 0.127929 74.0005 0.127929L14.3936 0.127929C4.86963 0.127929 0 4.93018 0 14.4019L0 74.2632C0 83.7349 4.86963 88.5371 14.3936 88.5371ZM14.5064 82.4922C9.00294 82.4922 6.04494 79.6016 6.04494 73.9634L6.04494 14.7017C6.04494 9.06349 9.00294 6.17287 14.5064 6.17287L73.9028 6.17287C79.2969 6.17287 82.3643 9.06349 82.3643 14.7017L82.3643 73.9634C82.3643 79.6016 79.2969 82.4922 73.9028 82.4922Z" fill="#000000" fill-opacity="0.85"/>
  <path d="M26.0156 66.8452L63.0044 66.8452C65.4443 66.8452 67.2007 65.0889 67.2007 62.6489L67.2007 25.8916C67.2007 23.4517 65.4443 21.6953 63.0044 21.6953L26.0156 21.6953C23.5757 21.6953 21.8193 23.4517 21.8193 25.8916L21.8193 62.6489C21.8193 65.0889 23.5757 66.8452 26.0156 66.8452ZM29.394 41.6094C28.6699 40.9004 28.6851 40.0298 29.394 39.3359L36.1797 32.5689C36.8887 31.8262 37.7476 31.8716 38.4229 32.5352L39.9653 34.002C40.7568 34.7109 40.6929 35.6641 39.9351 36.3579L33.1831 43.0762C32.4253 43.8525 31.5815 43.8525 30.9097 43.0762ZM58.1104 43.0762C57.4536 43.8525 56.561 43.8037 55.8369 43.0762L49.0361 36.3579C48.2783 35.6489 48.2935 34.7109 49.0361 34.002L50.5972 32.4712C51.2725 31.7471 52.1953 31.8262 52.8555 32.52L59.6411 39.3359C60.3501 40.0449 60.3652 40.9004 59.6563 41.6094ZM43.439 59.0957C42.4858 59.0957 41.792 58.4541 41.792 57.5161L41.792 48.6279C41.792 47.6865 42.5161 46.9473 43.439 46.9473L45.5474 46.9473C46.4702 46.9473 47.228 47.6865 47.228 48.6279L47.228 57.5161C47.228 58.4878 46.5342 59.0957 45.5474 59.0957Z" fill="#000000" fill-opacity="0.85"/>
 </g>
</svg>
