<?xml version="1.0" encoding="UTF-8"?>
<!--Generator: Apple Native CoreSVG 232.5-->
<!DOCTYPE svg
PUBLIC "-//W3C//DTD SVG 1.1//EN"
       "http://www.w3.org/Graphics/SVG/1.1/DTD/svg11.dtd">
<svg version="1.1" xmlns="http://www.w3.org/2000/svg" xmlns:xlink="http://www.w3.org/1999/xlink" width="88.4092" height="88.5371">
 <g>
  <rect height="88.5371" opacity="0" width="88.4092" x="0" y="0"/>
  <path d="M14.3936 88.5371L74.0005 88.5371C83.5733 88.5371 88.4092 83.6558 88.4092 74.2632L88.4092 14.4019C88.4092 5.00928 83.5733 0.127929 74.0005 0.127929L14.3936 0.127929C4.86963 0.127929 0 4.93018 0 14.4019L0 74.2632C0 83.7349 4.86963 88.5371 14.3936 88.5371ZM14.5064 82.4922C9.00294 82.4922 6.04494 79.6016 6.04494 73.9634L6.04494 14.7017C6.04494 9.06349 9.00294 6.17287 14.5064 6.17287L73.9028 6.17287C79.2969 6.17287 82.3643 9.06349 82.3643 14.7017L82.3643 73.9634C82.3643 79.6016 79.2969 82.4922 73.9028 82.4922Z" fill="#000000" fill-opacity="0.85"/>
  <path d="M44.2139 69.5156C58.2109 69.5156 69.4517 58.2412 69.4517 44.2441C69.4517 30.2471 58.2109 18.9727 44.2139 18.9727C30.1831 18.9727 18.9575 30.2471 18.9575 44.2441C18.9575 58.2412 30.1831 69.5156 44.2139 69.5156ZM44.2139 35.0493C42.2354 35.0493 40.7148 33.48 40.7148 31.5352C40.7148 29.5566 42.2354 28.0024 44.2139 28.0024C46.1587 28.0024 47.728 29.5566 47.728 31.5352C47.728 33.48 46.1587 35.0493 44.2139 35.0493ZM31.7622 49.6611C28.834 49.6611 26.3789 47.2398 26.3789 44.3115C26.3789 41.3682 28.834 38.9468 31.7622 38.9468C34.7056 38.9468 37.127 41.3682 37.127 44.3115C37.127 47.2398 34.7056 49.6611 31.7622 49.6611ZM56.6655 49.6089C53.7373 49.6089 51.2822 47.1724 51.2822 44.2441C51.2822 41.3159 53.7373 38.8794 56.6655 38.8794C59.5601 38.8794 62.0303 41.3159 62.0303 44.2441C62.0303 47.1724 59.5601 49.6089 56.6655 49.6089Z" fill="#000000" fill-opacity="0.85"/>
 </g>
</svg>
