<?xml version="1.0" encoding="UTF-8"?>
<!--Generator: Apple Native CoreSVG 232.5-->
<!DOCTYPE svg
PUBLIC "-//W3C//DTD SVG 1.1//EN"
       "http://www.w3.org/Graphics/SVG/1.1/DTD/svg11.dtd">
<svg version="1.1" xmlns="http://www.w3.org/2000/svg" xmlns:xlink="http://www.w3.org/1999/xlink" width="186.209" height="61.1211">
 <g>
  <rect height="61.1211" opacity="0" width="186.209" x="0" y="0"/>
  <path d="M13.6978 54.8447L134.33 54.8447C142.567 54.8447 148.028 49.3198 148.028 41.147L148.028 13.7163C148.028 5.54346 142.567 0 134.33 0L13.6978 0C5.44581 0 0 5.4795 0 13.7163L0 41.147C0 49.3989 5.44581 54.8447 13.6978 54.8447ZM13.728 49.1216C8.73341 49.1216 5.72316 46.0625 5.72316 41.1016L5.72316 13.7617C5.72316 8.7671 8.73341 5.70802 13.728 5.70802L134.285 5.70802C139.17 5.70802 142.305 8.7671 142.305 13.7617L142.305 41.1016C142.305 46.0625 139.17 49.1216 134.285 49.1216ZM145.444 44.1777L152.112 44.1777C155.724 44.1777 158.153 41.7818 158.153 38.1856L158.153 16.6592C158.153 13.0479 155.724 10.6519 152.112 10.6519L145.444 10.6519L145.444 15.7315L150.338 15.7315C152.013 15.7315 153.074 16.7583 153.074 18.4331L153.074 36.3628C153.074 38.0713 152.013 39.0981 150.338 39.0981L145.444 39.0981ZM156.336 30.8428L186.209 30.8428L186.209 24.7979L156.336 24.7979Z" fill="#000000" fill-opacity="0.85"/>
  <path d="M18.2207 38.3853L21.8286 38.3853C23.0747 38.3853 23.9756 37.4692 23.9756 36.1895L23.9756 18.6065C23.9756 17.1987 23.0747 16.3618 21.8286 16.3618L18.2207 16.3618C16.8618 16.3618 16.0098 17.1987 16.0098 18.6065L16.0098 36.1895C16.0098 37.4692 16.8618 38.3853 18.2207 38.3853ZM47.415 42.2949C55.625 42.2949 62.2876 35.6963 62.2876 27.4224C62.2876 19.2461 55.625 12.5498 47.415 12.5498C39.1899 12.5498 32.5274 19.2461 32.5274 27.4224C32.5274 35.6963 39.1899 42.2949 47.415 42.2949ZM42.1094 35.3477C40.9678 35.3477 40.0518 34.4165 40.0518 33.3237L40.0518 21.5547C40.0518 20.4468 40.9678 19.4971 42.1094 19.4971C43.2022 19.4971 44.0845 20.4131 44.0845 21.5547L44.0845 33.3237C44.0845 34.4502 43.2022 35.3477 42.1094 35.3477ZM52.7207 35.3477C51.5791 35.3477 50.6631 34.4502 50.6631 33.3237L50.6631 21.5547C50.6631 20.4131 51.5454 19.4971 52.7207 19.4971C53.8472 19.4971 54.6958 20.4131 54.6958 21.5547L54.6958 33.3237C54.6958 34.4502 53.8472 35.3477 52.7207 35.3477ZM83.2671 42.2949C91.4771 42.2949 98.1582 35.6963 98.1582 27.4224C98.1582 19.2461 91.4771 12.5498 83.2671 12.5498C75.0269 12.5498 68.4131 19.2461 68.4131 27.4224C68.4131 35.6963 75.0269 42.2949 83.2671 42.2949ZM77.9126 35.3477C76.8198 35.3477 75.8887 34.4502 75.8887 33.3237L75.8887 21.5547C75.8887 20.4468 76.8198 19.4971 77.9126 19.4971C79.0728 19.4971 79.9702 20.4131 79.9702 21.5547L79.9702 33.3237C79.9702 34.4502 79.0728 35.3477 77.9126 35.3477ZM88.5576 35.3477C87.416 35.3477 86.5 34.4502 86.5 33.3237L86.5 21.5547C86.5 20.4131 87.416 19.4971 88.5576 19.4971C89.6841 19.4971 90.5816 20.4131 90.5816 21.5547L90.5816 33.3237C90.5816 34.4502 89.6504 35.3477 88.5576 35.3477ZM119.089 42.2949C127.299 42.2949 133.946 35.6963 133.946 27.4224C133.946 19.2461 127.299 12.5498 119.089 12.5498C110.849 12.5498 104.235 19.2461 104.235 27.4224C104.235 35.6963 110.849 42.2949 119.089 42.2949ZM113.768 35.3477C112.626 35.3477 111.71 34.4502 111.71 33.3237L111.71 21.5547C111.71 20.4468 112.626 19.4971 113.768 19.4971C114.895 19.4971 115.792 20.4131 115.792 21.5547L115.792 33.3237C115.792 34.4502 114.861 35.3477 113.768 35.3477ZM124.379 35.3477C123.238 35.3477 122.322 34.4502 122.322 33.3237L122.322 21.5547C122.322 20.4131 123.204 19.4971 124.379 19.4971C125.506 19.4971 126.37 20.4131 126.37 21.5547L126.37 33.3237C126.37 34.4502 125.506 35.3477 124.379 35.3477Z" fill="#000000" fill-opacity="0.85"/>
 </g>
</svg>
