<?xml version="1.0" encoding="UTF-8"?>
<!--Generator: Apple Native CoreSVG 232.5-->
<!DOCTYPE svg
PUBLIC "-//W3C//DTD SVG 1.1//EN"
       "http://www.w3.org/Graphics/SVG/1.1/DTD/svg11.dtd">
<svg version="1.1" xmlns="http://www.w3.org/2000/svg" xmlns:xlink="http://www.w3.org/1999/xlink" width="120.627" height="82.4873">
 <g>
  <rect height="82.4873" opacity="0" width="120.627" x="0" y="0"/>
  <path d="M0 50.8027C0 56.7559 3.49073 60.1675 9.59034 60.1675L25.7085 60.1675C32.5796 60.1675 36.1758 62.0464 40.646 67.7827C47.9116 77.1885 59.1275 82.3897 70.855 82.3897L85.3545 82.3897C89.168 82.3897 91.7456 79.8609 91.7456 76.1079L91.7456 6.03271C91.7456 2.45312 89.168 0 85.3545 0L70.855 0C59.1275 0 47.9116 5.18604 40.646 14.6221C36.1758 20.3921 32.5796 22.271 25.7085 22.271L9.59034 22.271C3.49073 22.271 0 25.6489 0 31.6358ZM6.04494 50.2485L6.04494 32.19C6.04494 29.6358 7.47755 28.3159 9.94239 28.3159L25.7085 28.3159C34.397 28.3159 39.7769 25.583 45.4243 18.2871C51.5278 10.3467 60.8286 6.04494 70.855 6.04494L83.5318 6.04494C84.8965 6.04494 85.7158 6.80372 85.7158 8.05567L85.7158 74.3491C85.7158 75.6348 84.8965 76.3599 83.5318 76.3599L70.855 76.3599C60.8286 76.3599 51.5278 72.1069 45.4243 64.1665C39.7769 56.8706 34.397 54.1226 25.7085 54.1226L9.94239 54.1226C7.47755 54.1226 6.04494 52.7539 6.04494 50.2485ZM87.9019 30.958L113.923 30.958C117.663 30.958 120.627 27.9942 120.627 24.3027C120.627 20.5962 117.663 17.6138 113.923 17.6138L87.9019 17.6138ZM87.9019 64.8247L113.923 64.8247C117.663 64.8247 120.627 61.8423 120.627 58.1358C120.627 54.4292 117.663 51.4653 113.923 51.4653L87.9019 51.4653Z" fill="#000000" fill-opacity="0.85"/>
 </g>
</svg>
