<?xml version="1.0" encoding="UTF-8"?>
<!--Generator: Apple Native CoreSVG 232.5-->
<!DOCTYPE svg
PUBLIC "-//W3C//DTD SVG 1.1//EN"
       "http://www.w3.org/Graphics/SVG/1.1/DTD/svg11.dtd">
<svg version="1.1" xmlns="http://www.w3.org/2000/svg" xmlns:xlink="http://www.w3.org/1999/xlink" width="114.7" height="80.7598">
 <g>
  <rect height="80.7598" opacity="0" width="114.7" x="0" y="0"/>
  <path d="M81.9361 51.5015L92.1543 51.5015C94.5435 51.5015 96.1177 49.9575 96.1177 47.6323L96.1177 3.75977C96.1177 1.52881 94.5435 0 92.1543 0L81.9361 0C74.5694 0 68.458 2.79541 62.9609 9.1836C60.5015 11.9126 59.4649 12.6968 56.1519 12.6968L45.4951 12.6968C41.5796 12.6968 38.7891 15.2549 38.7891 18.9531L38.7891 32.5484C38.7891 36.228 41.5796 38.835 45.4951 38.835L56.1519 38.835C59.4649 38.835 60.5015 39.6343 62.9609 42.2808C68.5068 48.6724 74.6333 51.5015 81.9361 51.5015ZM81.9361 45.7935C76.0498 45.7935 72.0186 43.8789 67.3452 38.6934C64.0435 34.8862 61.2534 33.1118 56.1519 33.1118L46.4605 33.1118C45.2818 33.1118 44.4971 32.3911 44.4971 31.2612L44.4971 20.0532C44.4971 19.0396 45.1621 18.4199 46.2735 18.4199L56.1519 18.4199C61.2383 18.4199 64.0435 16.6943 67.3755 12.8047C72.0034 7.58888 75.9859 5.70802 81.9361 5.70802L88.667 5.70802C89.7598 5.70802 90.4097 6.26369 90.4097 7.19826L90.4097 44.1602C90.4097 45.1587 89.7598 45.7935 88.667 45.7935ZM94.7285 19.5283L110.712 19.5283C112.952 19.5283 114.7 17.814 114.7 15.5405C114.7 13.3008 112.952 11.5225 110.712 11.5225L94.7285 11.5225ZM94.7285 39.979L110.712 39.979C112.952 39.979 114.7 38.1821 114.7 35.9912C114.7 33.7178 112.952 31.9395 110.712 31.9395L94.7285 31.9395ZM0 80.711L39.1362 80.711C49.669 80.711 56.7241 74.3574 56.7241 64.8237C56.7241 55.2866 49.669 48.6841 39.1362 48.6841L17.3081 48.6841C10.3413 48.6841 6.04494 44.5239 6.04494 38.5742C6.04494 32.6582 10.5298 28.732 17.3081 28.732L41.6792 28.732L41.6792 22.7022L17.5728 22.7022C7.02149 22.7022 0 29.0557 0 38.5742C0 48.1265 7.02149 54.729 17.5728 54.729L39.416 54.729C46.3828 54.729 50.6792 58.874 50.6792 64.8237C50.6792 70.7398 46.1943 74.666 39.416 74.666L0 74.666Z" fill="#000000" fill-opacity="0.85"/>
 </g>
</svg>
