<?xml version="1.0" encoding="UTF-8"?>
<!--Generator: Apple Native CoreSVG 232.5-->
<!DOCTYPE svg
PUBLIC "-//W3C//DTD SVG 1.1//EN"
       "http://www.w3.org/Graphics/SVG/1.1/DTD/svg11.dtd">
<svg version="1.1" xmlns="http://www.w3.org/2000/svg" xmlns:xlink="http://www.w3.org/1999/xlink" width="91.7124" height="88.5371">
 <g>
  <rect height="88.5371" opacity="0" width="91.7124" x="0" y="0"/>
  <path d="M91.7124 14.4019L91.7124 74.2632C91.7124 83.6558 86.8428 88.5371 77.3037 88.5371L14.3936 88.5371C4.86963 88.5371 0 83.7349 0 74.2632L0 14.4019C0 4.93018 4.86963 0.127929 14.3936 0.127929L77.3037 0.127929C86.8428 0.127929 91.7124 5.00928 91.7124 14.4019ZM21.4795 61.3779C21.4795 65.3047 24.6855 68.5259 28.6274 68.5259C32.5357 68.5259 35.708 65.3047 35.708 61.3779C35.708 57.4697 32.5357 54.2822 28.6274 54.2822C24.6855 54.2822 21.4795 57.4697 21.4795 61.3779ZM55.9893 61.3779C55.9893 65.3047 59.1768 68.5259 63.1035 68.5259C66.978 68.5259 70.2178 65.3047 70.2178 61.3779C70.2178 57.4697 66.978 54.2822 63.1035 54.2822C59.1768 54.2822 55.9893 57.4697 55.9893 61.3779ZM36.9126 28.9624C36.9126 33.9297 40.915 37.8984 45.8486 37.8984C50.7974 37.8984 54.7998 33.9297 54.7998 28.9624C54.7998 24.0137 50.7974 20.0112 45.8486 20.0112C40.915 20.0112 36.9126 24.0137 36.9126 28.9624Z" fill="#000000" fill-opacity="0.85"/>
 </g>
</svg>
