<?xml version="1.0" encoding="UTF-8"?>
<!--Generator: Apple Native CoreSVG 232.5-->
<!DOCTYPE svg
PUBLIC "-//W3C//DTD SVG 1.1//EN"
       "http://www.w3.org/Graphics/SVG/1.1/DTD/svg11.dtd">
<svg version="1.1" xmlns="http://www.w3.org/2000/svg" xmlns:xlink="http://www.w3.org/1999/xlink" width="97.9595" height="97.9932">
 <g>
  <rect height="97.9932" opacity="0" width="97.9595" x="0" y="0"/>
  <path d="M48.9722 97.9443C75.8247 97.9443 97.9595 75.7759 97.9595 48.9722C97.9595 22.1348 75.791 0 48.9385 0C22.1348 0 0 22.1348 0 48.9722C0 75.7759 22.1685 97.9443 48.9722 97.9443ZM48.9722 91.6113C25.3501 91.6113 6.36671 72.5942 6.36671 48.9722C6.36671 25.3501 25.3164 6.31789 48.9385 6.31789C72.5605 6.31789 91.6265 25.3501 91.6265 48.9722C91.6265 72.5942 72.5942 91.6113 48.9722 91.6113Z" fill="#000000" fill-opacity="0.85"/>
  <path d="M27.542 56.4775C32.563 56.4775 36.604 52.4028 36.604 47.4155C36.604 42.4434 32.563 38.3687 27.542 38.3687C22.5547 38.3687 18.5137 42.4434 18.5137 47.4155C18.5137 52.4028 22.5547 56.4775 27.542 56.4775ZM70.4175 56.4775C75.3897 56.4775 79.4307 52.4028 79.4307 47.4155C79.4307 42.4434 75.3897 38.3687 70.4175 38.3687C65.3965 38.3687 61.3555 42.4434 61.3555 47.4155C61.3555 52.4028 65.3965 56.4775 70.4175 56.4775ZM48.9722 78.9136C53.9595 78.9136 58.0342 74.8726 58.0342 69.8853C58.0342 64.8794 53.9595 60.8384 48.9722 60.8384C44 60.8384 39.9253 64.8794 39.9253 69.8853C39.9253 74.8726 44 78.9136 48.9722 78.9136Z" fill="#000000" fill-opacity="0.85"/>
 </g>
</svg>
