<?xml version="1.0" encoding="UTF-8"?>
<!--Generator: Apple Native CoreSVG 232.5-->
<!DOCTYPE svg
PUBLIC "-//W3C//DTD SVG 1.1//EN"
       "http://www.w3.org/Graphics/SVG/1.1/DTD/svg11.dtd">
<svg version="1.1" xmlns="http://www.w3.org/2000/svg" xmlns:xlink="http://www.w3.org/1999/xlink" width="91.7124" height="88.5371">
 <g>
  <rect height="88.5371" opacity="0" width="91.7124" x="0" y="0"/>
  <path d="M14.3936 88.5371L77.3037 88.5371C86.8428 88.5371 91.7124 83.6558 91.7124 74.2632L91.7124 14.4019C91.7124 5.00928 86.8428 0.127929 77.3037 0.127929L14.3936 0.127929C4.86963 0.127929 0 4.93018 0 14.4019L0 74.2632C0 83.7349 4.86963 88.5371 14.3936 88.5371ZM14.5064 82.4922C9.00294 82.4922 6.04494 79.6016 6.04494 73.9634L6.04494 14.7017C6.04494 9.06349 9.00294 6.17287 14.5064 6.17287L77.1724 6.17287C82.5513 6.17287 85.6675 9.06349 85.6675 14.7017L85.6675 73.9634C85.6675 79.6016 82.5513 82.4922 77.1724 82.4922Z" fill="#000000" fill-opacity="0.85"/>
  <path d="M28.9829 67.0776C32.79 67.0776 35.9102 63.939 35.9102 60.0982C35.9102 56.291 32.79 53.1372 28.9829 53.1372C25.1084 53.1372 22.0034 56.291 22.0034 60.0982C22.0034 63.939 25.1084 67.0776 28.9829 67.0776ZM62.7481 67.0776C66.5552 67.0776 69.709 63.939 69.709 60.0982C69.709 56.291 66.5552 53.1372 62.7481 53.1372C58.9072 53.1372 55.8022 56.291 55.8022 60.0982C55.8022 63.939 58.9072 67.0776 62.7481 67.0776ZM45.8486 35.2871C49.6558 35.2871 52.8096 32.167 52.8096 28.2925C52.8096 24.4854 49.6558 21.3804 45.8486 21.3804C42.0078 21.3804 38.8691 24.4854 38.8691 28.2925C38.8691 32.167 42.0078 35.2871 45.8486 35.2871Z" fill="#000000" fill-opacity="0.85"/>
 </g>
</svg>
