<?xml version="1.0" encoding="UTF-8"?>
<!--Generator: Apple Native CoreSVG 232.5-->
<!DOCTYPE svg
PUBLIC "-//W3C//DTD SVG 1.1//EN"
       "http://www.w3.org/Graphics/SVG/1.1/DTD/svg11.dtd">
<svg version="1.1" xmlns="http://www.w3.org/2000/svg" xmlns:xlink="http://www.w3.org/1999/xlink" width="97.9595" height="97.9932">
 <g>
  <rect height="97.9932" opacity="0" width="97.9595" x="0" y="0"/>
  <path d="M48.9722 97.9443C75.8247 97.9443 97.9595 75.7759 97.9595 48.9722C97.9595 22.1348 75.791 0 48.9385 0C22.1348 0 0 22.1348 0 48.9722C0 75.7759 22.1685 97.9443 48.9722 97.9443ZM48.9722 91.6113C25.3501 91.6113 6.36671 72.5942 6.36671 48.9722C6.36671 25.3501 25.3164 6.31789 48.9385 6.31789C72.5605 6.31789 91.6265 25.3501 91.6265 48.9722C91.6265 72.5942 72.5942 91.6113 48.9722 91.6113Z" fill="#000000" fill-opacity="0.85"/>
  <path d="M28.354 58.0342C33.3599 58.0342 37.4009 53.9595 37.4009 48.9722C37.4009 43.9849 33.3599 39.9102 28.354 39.9102C23.3667 39.9102 19.3257 43.9849 19.3257 48.9722C19.3257 53.9595 23.3667 58.0342 28.354 58.0342ZM69.6055 58.0342C74.5928 58.0342 78.6338 53.9595 78.6338 48.9722C78.6338 43.9849 74.5928 39.9102 69.6055 39.9102C64.5845 39.9102 60.5435 43.9849 60.5435 48.9722C60.5435 53.9595 64.5845 58.0342 69.6055 58.0342Z" fill="#000000" fill-opacity="0.85"/>
 </g>
</svg>
