<?xml version="1.0" encoding="UTF-8"?>
<!--Generator: Apple Native CoreSVG 232.5-->
<!DOCTYPE svg
PUBLIC "-//W3C//DTD SVG 1.1//EN"
       "http://www.w3.org/Graphics/SVG/1.1/DTD/svg11.dtd">
<svg version="1.1" xmlns="http://www.w3.org/2000/svg" xmlns:xlink="http://www.w3.org/1999/xlink" width="88.4092" height="88.5371">
 <g>
  <rect height="88.5371" opacity="0" width="88.4092" x="0" y="0"/>
  <path d="M88.4092 14.4019L88.4092 74.2632C88.4092 83.6558 83.5733 88.5371 74.0005 88.5371L14.3936 88.5371C4.86963 88.5371 0 83.7349 0 74.2632L0 14.4019C0 4.93018 4.86963 0.127929 14.3936 0.127929L74.0005 0.127929C83.5733 0.127929 88.4092 5.00928 88.4092 14.4019ZM27.0972 29.3374C24.5859 29.3374 23.4863 30.4204 22.144 31.8418L12.8906 41.4653C11.4658 42.9844 11.4019 45.4214 12.8755 46.9253L22.144 56.6465C23.4863 58.0679 24.9077 59.1509 27.0972 59.1509L61.2969 59.1509C63.4863 59.1509 64.9077 58.0679 66.2652 56.6465L75.5337 46.9253C76.9922 45.4214 76.9771 42.9844 75.5034 41.4653L66.2652 31.8418C64.9077 30.4204 63.8081 29.3374 61.2969 29.3374ZM48.752 47.7061C48.752 50.1797 46.6875 52.2627 44.2139 52.2627C41.7065 52.2627 39.6572 50.1797 39.6572 47.7061C39.6572 45.2324 41.7065 43.1494 44.2139 43.1494C46.6875 43.1494 48.752 45.2324 48.752 47.7061ZM31.0606 44.2441C31.0606 46.7178 28.9775 48.7671 26.5039 48.7671C24.0303 48.7671 21.9473 46.7178 21.9473 44.2441C21.9473 41.7705 24.0303 39.6875 26.5039 39.6875C28.9775 39.6875 31.0606 41.7705 31.0606 44.2441ZM66.4619 44.2441C66.4619 46.7178 64.3638 48.7671 61.8901 48.7671C59.4165 48.7671 57.3672 46.7178 57.3672 44.2441C57.3672 41.7705 59.4165 39.6875 61.8901 39.6875C64.3638 39.6875 66.4619 41.7705 66.4619 44.2441Z" fill="#000000" fill-opacity="0.85"/>
 </g>
</svg>
