<?xml version="1.0" encoding="UTF-8"?>
<!--Generator: Apple Native CoreSVG 232.5-->
<!DOCTYPE svg
PUBLIC "-//W3C//DTD SVG 1.1//EN"
       "http://www.w3.org/Graphics/SVG/1.1/DTD/svg11.dtd">
<svg version="1.1" xmlns="http://www.w3.org/2000/svg" xmlns:xlink="http://www.w3.org/1999/xlink" width="91.7124" height="88.5371">
 <g>
  <rect height="88.5371" opacity="0" width="91.7124" x="0" y="0"/>
  <path d="M14.3936 88.5371L77.3037 88.5371C86.8428 88.5371 91.7124 83.6558 91.7124 74.2632L91.7124 14.4019C91.7124 5.00928 86.8428 0.127929 77.3037 0.127929L14.3936 0.127929C4.86963 0.127929 0 4.93018 0 14.4019L0 74.2632C0 83.7349 4.86963 88.5371 14.3936 88.5371ZM14.5064 82.4922C9.00294 82.4922 6.04494 79.6016 6.04494 73.9634L6.04494 14.7017C6.04494 9.06349 9.00294 6.17287 14.5064 6.17287L77.1724 6.17287C82.5513 6.17287 85.6675 9.06349 85.6675 14.7017L85.6675 73.9634C85.6675 79.6016 82.5513 82.4922 77.1724 82.4922Z" fill="#000000" fill-opacity="0.85"/>
  <path d="M44.0586 68.1504L47.605 68.1504C49.1743 68.1504 50.2183 67.1216 50.2183 65.5186L50.2183 50.4282C50.2183 48.8438 49.1743 47.7661 47.605 47.7661L44.0586 47.7661C42.5381 47.7661 41.4605 48.8438 41.4605 50.4282L41.4605 65.5186C41.4605 67.0728 42.4741 68.1504 44.0586 68.1504ZM21.062 39.2173L23.5762 41.6826C24.6875 42.794 26.2046 42.794 27.3159 41.6826L38.8023 30.2266C39.9473 29.0816 39.917 27.5982 38.772 26.4868L36.2764 23.9727C35.165 22.895 33.7759 22.895 32.6157 24.0064L21.0957 35.4624C19.9995 36.5435 19.9844 38.106 21.062 39.2173ZM68.1362 41.6675L70.6655 39.1533C71.728 38.106 71.728 36.6074 70.583 35.4624L59.1118 23.9912C58.0308 22.8799 56.5322 22.8799 55.4209 23.9575L52.9253 26.4868C51.7803 27.5982 51.7803 29.0664 52.9253 30.2114L64.3965 41.6675C65.5078 42.7788 66.9761 42.794 68.1362 41.6675Z" fill="#000000" fill-opacity="0.85"/>
 </g>
</svg>
