<?xml version="1.0" encoding="UTF-8"?>
<!--Generator: Apple Native CoreSVG 232.5-->
<!DOCTYPE svg
PUBLIC "-//W3C//DTD SVG 1.1//EN"
       "http://www.w3.org/Graphics/SVG/1.1/DTD/svg11.dtd">
<svg version="1.1" xmlns="http://www.w3.org/2000/svg" xmlns:xlink="http://www.w3.org/1999/xlink" width="91.7124" height="88.5371">
 <g>
  <rect height="88.5371" opacity="0" width="91.7124" x="0" y="0"/>
  <path d="M14.3936 88.5371L77.3037 88.5371C86.8428 88.5371 91.7124 83.6558 91.7124 74.2632L91.7124 14.4019C91.7124 5.00928 86.8428 0.127929 77.3037 0.127929L14.3936 0.127929C4.86963 0.127929 0 4.93018 0 14.4019L0 74.2632C0 83.7349 4.86963 88.5371 14.3936 88.5371ZM14.5064 82.4922C9.00294 82.4922 6.04494 79.6016 6.04494 73.9634L6.04494 14.7017C6.04494 9.06349 9.00294 6.17287 14.5064 6.17287L77.1724 6.17287C82.5513 6.17287 85.6675 9.06349 85.6675 14.7017L85.6675 73.9634C85.6675 79.6016 82.5513 82.4922 77.1724 82.4922Z" fill="#000000" fill-opacity="0.85"/>
  <path d="M28.9829 64.5449C32.79 64.5449 35.9102 61.4399 35.9102 57.5991C35.9102 53.792 32.79 50.6382 28.9829 50.6382C25.1084 50.6382 22.0034 53.792 22.0034 57.5991C22.0034 61.4399 25.1084 64.5449 28.9829 64.5449ZM62.7481 64.5449C66.5552 64.5449 69.709 61.4399 69.709 57.5991C69.709 53.792 66.5552 50.6382 62.7481 50.6382C58.9072 50.6382 55.8022 53.792 55.8022 57.5991C55.8022 61.4399 58.9072 64.5449 62.7481 64.5449ZM45.8486 37.8198C49.6558 37.8198 52.8096 34.7149 52.8096 30.874C52.8096 27.0332 49.6558 23.9131 45.8486 23.9131C42.0078 23.9131 38.8691 27.0332 38.8691 30.874C38.8691 34.7149 42.0078 37.8198 45.8486 37.8198Z" fill="#000000" fill-opacity="0.85"/>
 </g>
</svg>
