<?xml version="1.0" encoding="UTF-8"?>
<!--Generator: Apple Native CoreSVG 232.5-->
<!DOCTYPE svg
PUBLIC "-//W3C//DTD SVG 1.1//EN"
       "http://www.w3.org/Graphics/SVG/1.1/DTD/svg11.dtd">
<svg version="1.1" xmlns="http://www.w3.org/2000/svg" xmlns:xlink="http://www.w3.org/1999/xlink" width="88.4092" height="88.5371">
 <g>
  <rect height="88.5371" opacity="0" width="88.4092" x="0" y="0"/>
  <path d="M88.4092 14.4019L88.4092 74.2632C88.4092 83.6558 83.5733 88.5371 74.0005 88.5371L14.3936 88.5371C4.86963 88.5371 0 83.7349 0 74.2632L0 14.4019C0 4.93018 4.86963 0.127929 14.3936 0.127929L74.0005 0.127929C83.5733 0.127929 88.4092 5.00928 88.4092 14.4019ZM18.3999 44.2441C18.3999 58.5293 29.895 70.0581 44.2139 70.0581C58.499 70.0581 70.0093 58.5293 70.0093 44.2441C70.0093 29.959 58.499 18.4302 44.2139 18.4302C29.895 18.4302 18.3999 29.959 18.3999 44.2441ZM49.6797 57.3389C49.6797 60.3345 47.2095 62.8384 44.2139 62.8384C41.1846 62.8384 38.7295 60.3345 38.7295 57.3389C38.7295 54.3433 41.1846 51.8545 44.2139 51.8545C47.2095 51.8545 49.6797 54.3433 49.6797 57.3389ZM37.4824 44.2441C37.4824 47.2398 35.0273 49.7285 31.9981 49.7285C29.0024 49.7285 26.4985 47.2398 26.4985 44.2441C26.4985 41.2485 29.0024 38.7598 31.9981 38.7598C35.0273 38.7598 37.4824 41.2485 37.4824 44.2441ZM61.8955 44.2441C61.8955 47.2398 59.4067 49.7285 56.4111 49.7285C53.4155 49.7285 50.9268 47.2398 50.9268 44.2441C50.9268 41.2485 53.4155 38.7598 56.4111 38.7598C59.4067 38.7598 61.8955 41.2485 61.8955 44.2441Z" fill="#000000" fill-opacity="0.85"/>
 </g>
</svg>
