<?xml version="1.0" encoding="UTF-8"?>
<!--Generator: Apple Native CoreSVG 232.5-->
<!DOCTYPE svg
PUBLIC "-//W3C//DTD SVG 1.1//EN"
       "http://www.w3.org/Graphics/SVG/1.1/DTD/svg11.dtd">
<svg version="1.1" xmlns="http://www.w3.org/2000/svg" xmlns:xlink="http://www.w3.org/1999/xlink" width="118.93" height="115.8">
 <g>
  <rect height="115.8" opacity="0" width="118.93" x="0" y="0"/>
  <path d="M94.2095 17.0547L94.2095 18.8301L24.7808 18.8301L24.7808 17.0547C24.7808 9.85841 29.8482 6.6172 37.2803 6.6172L81.7285 6.6172C89.4302 6.6172 94.2095 9.85841 94.2095 17.0547Z" fill="#000000" fill-opacity="0.85"/>
  <path d="M113.239 37.8887L113.239 79.3301C113.239 88.2612 108.619 92.6983 99.7363 92.6983L96.9966 92.6983L96.9966 63.7671C96.9966 57.458 92.3291 52.8057 86.02 52.8057L32.9551 52.8057C26.6797 52.8057 21.9785 57.458 21.9785 63.7671L21.9785 92.6983L19.2085 92.6983C10.3262 92.6983 5.69044 88.2612 5.69044 79.3301L5.69044 37.8887C5.69044 28.9575 10.648 24.4868 19.2085 24.4868L99.7363 24.4868C108.619 24.4868 113.239 28.9575 113.239 37.8887ZM82.669 39.6953C82.669 43.0562 85.395 45.688 88.7256 45.688C91.9282 45.688 94.7031 42.9619 94.7031 39.6953C94.7031 36.459 91.9282 33.669 88.7256 33.669C85.395 33.669 82.669 36.459 82.669 39.6953Z" fill="#000000" fill-opacity="0.85"/>
  <path d="M27.669 103.551C27.669 107.522 30.3208 110.143 34.2573 110.143L84.7178 110.143C88.688 110.143 91.3399 107.522 91.3399 103.551L91.3399 63.7671C91.3399 60.5752 89.2119 58.4961 86.02 58.4961L32.9551 58.4961C29.7969 58.4961 27.669 60.5752 27.669 63.7671ZM44.0069 102.755C41.7202 102.755 39.8242 100.957 39.8242 98.5874C39.8242 96.252 41.7202 94.4536 44.0069 94.4536C46.3272 94.4536 48.2232 96.252 48.2232 98.5874C48.2232 100.957 46.3272 102.755 44.0069 102.755ZM44.0069 88.461C41.7202 88.461 39.8242 86.6475 39.8242 84.3272C39.8242 81.958 41.7202 80.1446 44.0069 80.1446C46.3272 80.1446 48.2232 81.958 48.2232 84.3272C48.2232 86.6475 46.3272 88.461 44.0069 88.461ZM44.0069 74.2007C41.7202 74.2007 39.8242 72.3872 39.8242 70.0181C39.8242 67.6978 41.7202 65.8843 44.0069 65.8843C46.3272 65.8843 48.2232 67.6978 48.2232 70.0181C48.2232 72.3872 46.3272 74.2007 44.0069 74.2007ZM75.0322 102.755C72.7456 102.755 70.8648 100.957 70.8648 98.5874C70.8648 96.252 72.7456 94.4536 75.0322 94.4536C77.3677 94.4536 79.2637 96.252 79.2637 98.5874C79.2637 100.957 77.3677 102.755 75.0322 102.755ZM75.0322 88.461C72.7456 88.461 70.8648 86.6475 70.8648 84.3272C70.8648 81.958 72.7456 80.1446 75.0322 80.1446C77.3677 80.1446 79.2637 81.958 79.2637 84.3272C79.2637 86.6475 77.3677 88.461 75.0322 88.461ZM75.0322 74.2007C72.7456 74.2007 70.8648 72.3872 70.8648 70.0181C70.8648 67.6978 72.7456 65.8843 75.0322 65.8843C77.3677 65.8843 79.2637 67.6978 79.2637 70.0181C79.2637 72.3872 77.3677 74.2007 75.0322 74.2007Z" fill="#000000" fill-opacity="0.85"/>
 </g>
</svg>
