<?xml version="1.0" encoding="UTF-8"?>
<!--Generator: Apple Native CoreSVG 232.5-->
<!DOCTYPE svg
PUBLIC "-//W3C//DTD SVG 1.1//EN"
       "http://www.w3.org/Graphics/SVG/1.1/DTD/svg11.dtd">
<svg version="1.1" xmlns="http://www.w3.org/2000/svg" xmlns:xlink="http://www.w3.org/1999/xlink" width="108.017" height="104.486">
 <g>
  <rect height="104.486" opacity="0" width="108.017" x="0" y="0"/>
  <path d="M88.9082 13.5645L88.9082 17.2573L83.02 17.2573L83.02 13.209C83.02 8.54738 80.9692 6.51515 76.3076 6.51515L31.7095 6.51515C27.0967 6.51515 25.0122 8.54738 25.0122 13.209L25.0122 17.2573L19.124 17.2573L19.124 13.5645C19.124 4.84522 23.6675 0.960454 31.7769 0.960454L76.2402 0.960454C84.6714 0.960454 88.9082 4.84522 88.9082 13.5645Z" fill="#000000" fill-opacity="0.85"/>
  <path d="M108.017 30.6406L108.017 76.4497C108.017 85.3809 103.381 89.833 94.4839 89.833L88.6724 89.833L88.6724 84.1099L94.5513 84.1099C99.5444 84.1099 101.942 81.6973 101.942 76.7041L101.942 30.3862C101.942 25.3931 99.5444 22.9805 94.5513 22.9805L13.4995 22.9805C8.47267 22.9805 6.1089 25.3931 6.1089 30.3862L6.1089 76.7041C6.1089 81.6973 8.47267 84.1099 13.4995 84.1099L19.3447 84.1099L19.3447 89.833L13.5669 89.833C4.63575 89.833 0 85.3809 0 76.4497L0 30.6406C0 21.7432 4.95752 17.2573 13.5669 17.2573L94.4839 17.2573C103.381 17.2573 108.017 21.7432 108.017 30.6406ZM88.957 34.9614C88.957 38.1944 86.2495 40.853 83.1143 40.853C79.8511 40.853 77.1773 38.2549 77.1773 34.9614C77.1773 31.8262 79.8511 29.1035 83.1143 29.1035C86.2495 29.1035 88.957 31.8262 88.957 34.9614Z" fill="#000000" fill-opacity="0.85"/>
  <path d="M29.0342 104.486L78.9829 104.486C85.5171 104.486 88.6724 101.533 88.6724 94.812L88.6724 56.1035C88.6724 49.3823 85.5171 46.4292 78.9829 46.4292L29.0342 46.4292C22.7022 46.4292 19.3447 49.3823 19.3447 56.1035L19.3447 94.812C19.3447 101.533 22.5151 104.486 29.0342 104.486ZM30.6582 98.7783C26.9956 98.7783 25.4199 97.2212 25.4199 93.5249L25.4199 57.357C25.4199 53.6758 26.9956 52.1524 30.6582 52.1524L77.4077 52.1524C81.0889 52.1524 82.5972 53.6758 82.5972 57.357L82.5972 93.5249C82.5972 97.2212 81.0889 98.7783 77.4077 98.7783ZM35.9014 69.2969L72.1831 69.2969C73.6079 69.2969 74.6353 68.2359 74.6353 66.8413C74.6353 65.5142 73.6079 64.4868 72.1831 64.4868L35.9014 64.4868C34.4766 64.4868 33.4155 65.5142 33.4155 66.8413C33.4155 68.2359 34.4766 69.2969 35.9014 69.2969ZM35.9014 86.4287L72.1831 86.4287C73.6079 86.4287 74.6353 85.3677 74.6353 84.0405C74.6353 82.6797 73.6079 81.6187 72.1831 81.6187L35.9014 81.6187C34.4766 81.6187 33.4155 82.6797 33.4155 84.0405C33.4155 85.3677 34.4766 86.4287 35.9014 86.4287Z" fill="#000000" fill-opacity="0.85"/>
 </g>
</svg>
