<?xml version="1.0" encoding="UTF-8"?>
<!--Generator: Apple Native CoreSVG 232.5-->
<!DOCTYPE svg
PUBLIC "-//W3C//DTD SVG 1.1//EN"
       "http://www.w3.org/Graphics/SVG/1.1/DTD/svg11.dtd">
<svg version="1.1" xmlns="http://www.w3.org/2000/svg" xmlns:xlink="http://www.w3.org/1999/xlink" width="118.93" height="104.486">
 <g>
  <rect height="104.486" opacity="0" width="118.93" x="0" y="0"/>
  <path d="M94.2095 11.398L94.2095 13.1733L24.7808 13.1733L24.7808 11.398C24.7808 4.20167 29.8482 0.960454 37.2803 0.960454L81.7285 0.960454C89.4302 0.960454 94.2095 4.20167 94.2095 11.398Z" fill="#000000" fill-opacity="0.85"/>
  <path d="M113.239 32.2319L113.239 73.6733C113.239 82.6045 108.619 87.0415 99.7363 87.0415L95.1411 87.0415L95.1411 56.1035C95.1411 49.3823 91.9707 46.4292 85.4517 46.4292L33.5723 46.4292C27.2251 46.4292 23.834 49.3823 23.834 56.1035L23.834 87.0415L19.2085 87.0415C10.3262 87.0415 5.69044 82.6045 5.69044 73.6733L5.69044 32.2319C5.69044 23.3008 10.648 18.8301 19.2085 18.8301L99.7363 18.8301C108.619 18.8301 113.239 23.3008 113.239 32.2319ZM82.669 34.0386C82.669 37.3994 85.395 40.0313 88.7256 40.0313C91.9282 40.0313 94.7031 37.3052 94.7031 34.0386C94.7031 30.8023 91.9282 28.0122 88.7256 28.0122C85.395 28.0122 82.669 30.8023 82.669 34.0386Z" fill="#000000" fill-opacity="0.85"/>
  <path d="M33.5723 104.486L85.4517 104.486C91.9707 104.486 95.1411 101.533 95.1411 94.812L95.1411 56.1035C95.1411 49.3823 91.9707 46.4292 85.4517 46.4292L33.5723 46.4292C27.2251 46.4292 23.834 49.3823 23.834 56.1035L23.834 94.812C23.834 101.533 27.0381 104.486 33.5723 104.486ZM35.1812 98.7783C31.4849 98.7783 29.958 97.2212 29.958 93.5249L29.958 57.357C29.958 53.6758 31.4849 52.1524 35.1812 52.1524L83.8614 52.1524C87.5239 52.1524 89.0171 53.6758 89.0171 57.357L89.0171 93.5249C89.0171 97.2212 87.5239 98.7783 83.8614 98.7783ZM43.1016 65.3389C45.437 65.3389 47.2993 63.5254 47.2993 61.1563C47.2993 58.836 45.437 57.0225 43.1016 57.0225C40.7964 57.0225 38.9341 58.836 38.9341 61.1563C38.9341 63.5254 40.7964 65.3389 43.1016 65.3389ZM43.1016 79.5991C45.437 79.5991 47.2993 77.7857 47.2993 75.4653C47.2993 73.1299 45.437 71.2827 43.1016 71.2827C40.7964 71.2827 38.9341 73.1299 38.9341 75.4653C38.9341 77.7857 40.7964 79.5991 43.1016 79.5991ZM43.1016 93.8931C45.437 93.8931 47.2993 92.0947 47.2993 89.7256C47.2993 87.3901 45.437 85.5918 43.1016 85.5918C40.7964 85.5918 38.9341 87.3901 38.9341 89.7256C38.9341 92.0947 40.7964 93.8931 43.1016 93.8931ZM75.9224 65.3389C78.2915 65.3389 80.1538 63.5254 80.1538 61.1563C80.1538 58.836 78.2915 57.0225 75.9224 57.0225C73.6509 57.0225 71.7886 58.836 71.7886 61.1563C71.7886 63.5254 73.6509 65.3389 75.9224 65.3389ZM75.9224 79.5991C78.2915 79.5991 80.1538 77.7857 80.1538 75.4653C80.1538 73.1299 78.2915 71.2827 75.9224 71.2827C73.6509 71.2827 71.7886 73.1299 71.7886 75.4653C71.7886 77.7857 73.6509 79.5991 75.9224 79.5991ZM75.9224 93.8931C78.2915 93.8931 80.1538 92.0947 80.1538 89.7256C80.1538 87.3901 78.2915 85.5918 75.9224 85.5918C73.6509 85.5918 71.7886 87.3901 71.7886 89.7256C71.7886 92.0947 73.6509 93.8931 75.9224 93.8931Z" fill="#000000" fill-opacity="0.85"/>
 </g>
</svg>
