<?xml version="1.0" encoding="UTF-8"?>
<!--Generator: Apple Native CoreSVG 232.5-->
<!DOCTYPE svg
PUBLIC "-//W3C//DTD SVG 1.1//EN"
       "http://www.w3.org/Graphics/SVG/1.1/DTD/svg11.dtd">
<svg version="1.1" xmlns="http://www.w3.org/2000/svg" xmlns:xlink="http://www.w3.org/1999/xlink" width="97.9595" height="97.9932">
 <g>
  <rect height="97.9932" opacity="0" width="97.9595" x="0" y="0"/>
  <path d="M48.9722 97.9443C75.8247 97.9443 97.9595 75.7759 97.9595 48.9722C97.9595 22.1348 75.791 0 48.9385 0C22.1348 0 0 22.1348 0 48.9722C0 75.7759 22.1685 97.9443 48.9722 97.9443ZM48.9722 91.6113C25.3501 91.6113 6.36671 72.5942 6.36671 48.9722C6.36671 25.3501 25.3164 6.31789 48.9385 6.31789C72.5605 6.31789 91.6265 25.3501 91.6265 48.9722C91.6265 72.5942 72.5942 91.6113 48.9722 91.6113Z" fill="#000000" fill-opacity="0.85"/>
  <path d="M28.127 62.437C28.127 63.0483 28.457 63.6968 28.9219 64.1953L38.5122 73.752C39.3628 74.5352 40.2588 74.9512 41.1362 74.9512C42.0474 74.9512 42.9131 74.5689 43.73 73.752L53.3843 64.1616C53.9131 63.6143 54.1641 63.0483 54.1641 62.437C54.1641 61.1587 53.1519 60.1314 51.8921 60.1314C51.1426 60.1314 50.5801 60.3638 50.0479 60.9263L47.4888 63.5527L43.3779 67.9517L43.5918 59.4194L43.5918 39.8071C43.5918 31.9497 47.5044 27.3941 54.3955 27.3941C60.8252 27.3941 65.1655 31.8926 65.1318 38.5596C65.0981 44.9893 60.9194 49.3818 54.8198 49.3818C53.1802 49.3818 52.4966 48.8887 51.6025 48.8887C50.3579 48.8887 49.4282 49.7847 49.4282 50.9619C49.4282 51.644 49.7095 52.2857 50.1709 52.7168C51.0566 53.5723 52.8145 54.0454 54.7002 54.0454C63.8096 54.0454 69.8628 47.8608 69.8628 38.5596C69.8628 29.021 63.5806 22.5923 54.3955 22.5923C44.8164 22.5923 38.6958 29.1572 38.6958 39.4551L38.6958 59.438L38.8794 67.9517L34.8325 63.5864L32.2398 60.96C31.7075 60.3638 31.0625 60.1314 30.3804 60.1314C29.1357 60.1314 28.127 61.1587 28.127 62.437Z" fill="#000000" fill-opacity="0.85"/>
 </g>
</svg>
