<?xml version="1.0" encoding="UTF-8"?>
<!--Generator: Apple Native CoreSVG 232.5-->
<!DOCTYPE svg
PUBLIC "-//W3C//DTD SVG 1.1//EN"
       "http://www.w3.org/Graphics/SVG/1.1/DTD/svg11.dtd">
<svg version="1.1" xmlns="http://www.w3.org/2000/svg" xmlns:xlink="http://www.w3.org/1999/xlink" width="97.9595" height="97.9932">
 <g>
  <rect height="97.9932" opacity="0" width="97.9595" x="0" y="0"/>
  <path d="M97.9595 48.9722C97.9595 75.7759 75.8247 97.9443 48.9722 97.9443C22.1685 97.9443 0 75.7759 0 48.9722C0 22.1348 22.1348 0 48.9385 0C75.791 0 97.9595 22.1348 97.9595 48.9722ZM38.5088 39.2344L38.5088 59.6738L38.6924 68.3071L34.563 63.8745L31.9517 61.2144C31.3857 60.5845 30.7407 60.3521 30.0249 60.3521C28.7466 60.3521 27.7192 61.4131 27.7192 62.7251C27.7192 63.3364 28.0342 64.0186 28.5327 64.5508L38.3252 74.2759C39.1943 75.0928 40.0903 75.5425 41.0015 75.5425C41.9463 75.5425 42.8457 75.1265 43.6963 74.2759L53.5527 64.5171C54.0816 63.936 54.3174 63.3364 54.3174 62.7251C54.3174 61.4131 53.2866 60.3521 51.978 60.3521C51.21 60.3521 50.6475 60.5845 50.0815 61.147L47.4888 63.856L43.3106 68.3071L43.5244 59.6401L43.5244 39.605C43.5244 31.5942 47.5381 26.9863 54.5488 26.9863C61.0947 26.9863 65.4873 31.5371 65.4873 38.3389C65.4536 44.8882 61.189 49.3481 54.9883 49.3481C53.315 49.3481 52.6314 48.8701 51.7036 48.8701C50.4253 48.8701 49.4619 49.7847 49.4619 50.9956C49.4619 51.7114 49.7432 52.353 50.2232 52.8179C51.124 53.6733 52.9155 54.1802 54.8535 54.1802C64.165 54.1802 70.353 47.8272 70.353 38.3389C70.353 28.5981 63.936 22.001 54.5488 22.001C44.749 22.001 38.5088 28.7344 38.5088 39.2344Z" fill="#000000" fill-opacity="0.85"/>
 </g>
</svg>
