<?xml version="1.0" encoding="UTF-8"?>
<!--Generator: Apple Native CoreSVG 232.5-->
<!DOCTYPE svg
PUBLIC "-//W3C//DTD SVG 1.1//EN"
       "http://www.w3.org/Graphics/SVG/1.1/DTD/svg11.dtd">
<svg version="1.1" xmlns="http://www.w3.org/2000/svg" xmlns:xlink="http://www.w3.org/1999/xlink" width="121.85" height="92.7637">
 <g>
  <rect height="92.7637" opacity="0" width="121.85" x="0" y="0"/>
  <path d="M3.71094 79.2788C3.71094 87.7964 8.56543 92.5684 17.2446 92.5684L78.5864 92.5684C87.2471 92.5684 92.0864 87.7964 92.0864 79.2788L92.0864 60.6953C92.0864 59.7173 92.8203 59.1602 93.8994 59.9312C96.8848 62.0528 100.283 64.0996 105.232 64.0996C114.37 64.0996 121.85 57.0864 121.85 46.6973C121.85 36.3418 114.37 29.3286 105.232 29.3286C100.283 29.3286 96.8848 31.3755 93.8994 33.4971C92.8203 34.2529 92.0864 33.6958 92.0864 32.7178L92.0864 13.2896C92.0864 4.77197 87.2471 0 78.5864 0L17.2446 0C8.56543 0 3.71094 4.77197 3.71094 13.2896L3.71094 35.3106C3.71094 38.8823 6.00293 40.8999 9.0088 40.8999C10.5918 40.8999 12.1934 40.2398 13.8858 38.7241C16.5054 36.4546 19.2061 34.9849 22.6318 34.9849C28.8491 34.9849 33.6426 39.5137 33.6426 46.3574C33.6426 53.2012 28.8491 57.7148 22.6318 57.7148C19.2061 57.7148 16.5054 56.2266 13.8858 53.957C12.1934 52.4751 10.5918 51.8149 9.0088 51.8149C6.00293 51.8149 3.71094 53.8174 3.71094 57.3706ZM9.75587 78.9941L9.75587 60.6001C9.75587 58.6231 10.9126 59.1236 11.9917 59.8457C14.9097 61.7803 18.1055 63.7261 22.9014 63.7261C32.0054 63.7261 39.5191 56.7466 39.5191 46.3574C39.5191 35.9683 32.0054 28.9888 22.9014 28.9888C18.1055 28.9888 14.9097 30.9346 11.9917 32.8691C10.9126 33.5913 9.75587 34.0918 9.75587 32.1147L9.75587 13.5742C9.75587 8.85988 12.6685 6.04494 17.3911 6.04494L78.4551 6.04494C83.1626 6.04494 86.0415 8.85988 86.0415 13.5742L86.0415 35.3711C86.0415 38.958 88.3335 41.2735 91.3394 41.2735C92.9224 41.2735 94.5239 40.6133 96.2163 39.0825C98.8359 36.8281 101.552 35.3247 104.978 35.3247C111.18 35.3247 115.973 39.8535 115.973 46.6973C115.973 53.5747 111.18 58.0884 104.978 58.0884C101.552 58.0884 98.8359 56.6001 96.2163 54.3306C94.5239 52.8149 92.9224 52.1396 91.3394 52.1396C88.3335 52.1396 86.0415 54.4702 86.0415 58.042L86.0415 78.9941C86.0415 83.7422 83.1626 86.5234 78.4551 86.5234L17.3911 86.5234C12.6685 86.5234 9.75587 83.7422 9.75587 78.9941Z" fill="#000000" fill-opacity="0.85"/>
 </g>
</svg>
