<?xml version="1.0" encoding="UTF-8"?>
<!--Generator: Apple Native CoreSVG 232.5-->
<!DOCTYPE svg
PUBLIC "-//W3C//DTD SVG 1.1//EN"
       "http://www.w3.org/Graphics/SVG/1.1/DTD/svg11.dtd">
<svg version="1.1" xmlns="http://www.w3.org/2000/svg" xmlns:xlink="http://www.w3.org/1999/xlink" width="119.69" height="92.7637">
 <g>
  <rect height="92.7637" opacity="0" width="119.69" x="0" y="0"/>
  <path d="M3.72607 79.457C3.72607 87.8535 8.38867 92.5684 16.8272 92.5684L78.7715 92.5684C87.2622 92.5684 91.9922 87.9209 91.9922 79.5918L91.9922 58.5776C91.9922 57.4648 92.8794 56.874 93.9922 57.731C96.7232 59.7666 99.8516 61.8809 104.868 61.8809C113.396 61.8809 119.69 55.4439 119.69 46.6973C119.69 37.9844 113.396 31.5474 104.868 31.5474C99.8516 31.5474 96.7232 33.6616 93.9922 35.6973C92.8794 36.5391 91.9922 35.9634 91.9922 34.8506L91.9922 12.9766C91.9922 4.64746 87.2622 0 78.7715 0L16.8272 0C8.38867 0 3.72607 4.71485 3.72607 13.1113L3.72607 34.7095C3.72607 37.6714 5.8833 39.6802 8.60108 39.6802C10.0308 39.6802 11.4976 39.0723 12.9356 37.7437C15.4878 35.4893 18.2896 33.0879 23.5601 33.0879C30.9634 33.0879 36.5015 38.7354 36.5015 46.3574C36.5015 53.9795 30.9634 59.627 23.5601 59.627C18.2896 59.627 15.4878 57.1919 12.9356 54.9224C11.4976 53.6274 10.0308 53.0347 8.60108 53.0347C5.8833 53.0347 3.72607 55.0283 3.72607 57.9902Z" fill="#000000" fill-opacity="0.85"/>
 </g>
</svg>
