<?xml version="1.0" encoding="UTF-8"?>
<!--Generator: Apple Native CoreSVG 232.5-->
<!DOCTYPE svg
PUBLIC "-//W3C//DTD SVG 1.1//EN"
       "http://www.w3.org/Graphics/SVG/1.1/DTD/svg11.dtd">
<svg version="1.1" xmlns="http://www.w3.org/2000/svg" xmlns:xlink="http://www.w3.org/1999/xlink" width="97.9595" height="97.9932">
 <g>
  <rect height="97.9932" opacity="0" width="97.9595" x="0" y="0"/>
  <path d="M48.9722 97.9443C75.8247 97.9443 97.9595 75.7759 97.9595 48.9722C97.9595 22.1348 75.791 0 48.9385 0C22.1348 0 0 22.1348 0 48.9722C0 75.7759 22.1685 97.9443 48.9722 97.9443ZM48.9722 91.6113C25.3501 91.6113 6.36671 72.5942 6.36671 48.9722C6.36671 25.3501 25.3164 6.31789 48.9385 6.31789C72.5605 6.31789 91.6265 25.3501 91.6265 48.9722C91.6265 72.5942 72.5942 91.6113 48.9722 91.6113Z" fill="#000000" fill-opacity="0.85"/>
  <path d="M48.9385 71.6304C51.8613 71.6304 54.5586 71.0967 56.9326 70.0781L60.6685 75.1826C61.4146 76.2285 62.1152 76.562 63.0786 76.562C64.4395 76.562 65.3692 75.6172 65.3692 74.2715C65.3692 73.6045 65.1704 73.1094 64.4395 72.1611L61.1162 67.6343C66.3423 63.7026 69.4756 57.0015 69.4756 48.6538C69.4756 35.1416 61.166 25.7344 48.9385 25.7344C36.6958 25.7344 28.3862 35.1416 28.3862 48.6538C28.3862 62.2232 36.6958 71.6304 48.9385 71.6304ZM48.9385 66.7192C40.231 66.7192 34.4429 59.5537 34.4429 48.6538C34.4429 37.8262 40.231 30.6455 48.9385 30.6455C57.646 30.6455 63.4678 37.8262 63.4678 48.6538C63.4678 55.0293 61.4478 60.1977 57.8892 63.2637L54.3491 58.4292C53.7192 57.5855 53.1382 57.3193 52.2271 57.3193C50.9639 57.3193 49.918 58.2676 49.918 59.5273C49.918 60.1607 50.1167 60.7232 50.6792 61.4844L53.874 65.8911C52.4297 66.4482 50.8086 66.7192 48.9385 66.7192Z" fill="#000000" fill-opacity="0.85"/>
 </g>
</svg>
