<?xml version="1.0" encoding="UTF-8"?>
<!--Generator: Apple Native CoreSVG 232.5-->
<!DOCTYPE svg
PUBLIC "-//W3C//DTD SVG 1.1//EN"
       "http://www.w3.org/Graphics/SVG/1.1/DTD/svg11.dtd">
<svg version="1.1" xmlns="http://www.w3.org/2000/svg" xmlns:xlink="http://www.w3.org/1999/xlink" width="97.9595" height="97.9932">
 <g>
  <rect height="97.9932" opacity="0" width="97.9595" x="0" y="0"/>
  <path d="M97.9595 48.9722C97.9595 75.7759 75.8247 97.9443 48.9722 97.9443C22.1685 97.9443 0 75.7759 0 48.9722C0 22.1348 22.1348 0 48.9385 0C75.791 0 97.9595 22.1348 97.9595 48.9722ZM27.9785 48.6201C27.9785 62.4927 36.4751 72.1055 48.9722 72.1055C51.9624 72.1055 54.6934 71.5381 57.1196 70.5347L60.938 75.7066C61.7026 76.771 62.4033 77.1382 63.4004 77.1382C64.8286 77.1382 65.7583 76.1597 65.7583 74.7954C65.7583 74.0947 65.5444 73.5996 64.8286 72.6177L61.438 67.9898C66.7652 64.0059 69.9658 57.1548 69.9658 48.6201C69.9658 34.8198 61.4692 25.2256 48.9722 25.2256C36.4751 25.2256 27.9785 34.8198 27.9785 48.6201ZM63.7559 48.6201C63.7559 55.1152 61.7022 60.3662 58.1099 63.4844L54.5176 58.5825C53.8726 57.7388 53.273 57.439 52.3281 57.439C51.0161 57.439 49.9517 58.436 49.9517 59.7295C49.9517 60.3965 50.1504 60.9775 50.7466 61.7388L53.96 66.2129C52.4971 66.77 50.8608 67.041 48.9722 67.041C40.0962 67.041 34.2222 59.7407 34.2222 48.6201C34.2222 37.5903 40.0962 30.29 48.9722 30.29C57.833 30.29 63.7559 37.5903 63.7559 48.6201Z" fill="#000000" fill-opacity="0.85"/>
 </g>
</svg>
