<?xml version="1.0" encoding="UTF-8"?>
<!--Generator: Apple Native CoreSVG 232.5-->
<!DOCTYPE svg
PUBLIC "-//W3C//DTD SVG 1.1//EN"
       "http://www.w3.org/Graphics/SVG/1.1/DTD/svg11.dtd">
<svg version="1.1" xmlns="http://www.w3.org/2000/svg" xmlns:xlink="http://www.w3.org/1999/xlink" width="109.42" height="88.2344">
 <g>
  <rect height="88.2344" opacity="0" width="109.42" x="0" y="0"/>
  <path d="M14.3936 87.751L95.9922 87.751C104.551 87.751 109.42 82.8696 109.42 73.4771L109.42 23.2549C109.42 13.8623 104.517 8.99609 95.0269 8.99609L47.8189 8.99609C44.0899 8.99609 42.1333 8.30566 39.6011 6.02441L36.7739 3.61328C33.5664 0.77295 31.3638 0 26.4541 0L12.5684 0C4.46241 0 0 4.42871 0 13.3501L0 73.4771C0 82.9487 4.86963 87.751 14.3936 87.751ZM14.5064 81.7061C9.00294 81.7061 6.04494 78.8154 6.04494 73.1773L6.04494 13.7442C6.04494 8.56203 8.65968 5.96583 13.7256 5.96583L24.9971 5.96583C28.5679 5.96583 30.4453 6.70509 33.0869 9.04689L35.8989 11.4917C38.9668 14.1587 41.4033 15.0259 46.3281 15.0259L94.8804 15.0259C100.274 15.0259 103.391 17.9502 103.391 23.5884L103.391 73.2109C103.391 78.8154 100.274 81.7061 94.8804 81.7061Z" fill="#000000" fill-opacity="0.85"/>
  <path d="M53.8784 57.6616C55.6436 57.6616 56.708 56.5147 56.708 55.0747C56.708 54.728 56.708 54.4116 56.708 54.0649C56.708 51.314 58.1123 49.6455 61.5737 47.334C66.2256 44.1924 68.9116 41.4649 68.9116 36.4082C68.9116 29.5093 62.7368 25.3506 55.1279 25.3506C47.4854 25.3506 42.4946 29.3154 41.4673 33.814C41.2837 34.5195 41.1826 35.1123 41.1826 35.8633C41.1826 37.5205 42.4155 38.3828 43.6719 38.3828C44.9468 38.3828 45.7871 37.79 46.3296 36.8032L46.8384 35.8955C47.9048 32.7139 50.9028 30.2315 54.8955 30.2315C59.7271 30.2315 62.8213 32.8931 62.8213 36.7046C62.8213 39.8716 61.0078 41.6426 56.7163 44.6226C53.1606 47.0957 51.0522 49.5337 51.0522 53.75C51.0522 54.1118 51.0522 54.4585 51.0522 54.8203C51.0522 56.668 52.1133 57.6616 53.8784 57.6616ZM53.7808 70.9146C56.1148 70.9146 58.0581 69.0117 58.0581 66.7231C58.0581 64.4194 56.1484 62.5806 53.7808 62.5806C51.4619 62.5806 49.5034 64.4531 49.5034 66.7231C49.5034 68.978 51.4956 70.9146 53.7808 70.9146Z" fill="#000000" fill-opacity="0.85"/>
 </g>
</svg>
