<?xml version="1.0" encoding="UTF-8"?>
<!--Generator: Apple Native CoreSVG 232.5-->
<!DOCTYPE svg
PUBLIC "-//W3C//DTD SVG 1.1//EN"
       "http://www.w3.org/Graphics/SVG/1.1/DTD/svg11.dtd">
<svg version="1.1" xmlns="http://www.w3.org/2000/svg" xmlns:xlink="http://www.w3.org/1999/xlink" width="125.114" height="92.5977">
 <g>
  <rect height="92.5977" opacity="0" width="125.114" x="0" y="0"/>
  <path d="M23.2617 66.7061C25.7715 66.7061 26.9707 64.9678 26.9707 62.6299C26.9707 61.6538 26.9707 60.6289 26.9707 59.668C27.0381 52.8291 29.3633 49.7651 37.5088 44.061C46.3765 37.8975 51.1236 31.6724 51.1236 22.7026C51.1236 8.81104 39.815 0.0795931 25.4404 0.0795931C14.3296 0.0795931 4.93409 5.95508 1.23779 15.4849C0.348634 17.7192 0 19.7231 0 21.3213C0 23.4233 1.21778 24.8618 3.40919 24.8618C5.33937 24.8618 6.56056 23.7451 7.08107 21.8521C9.16262 11.8936 16.1777 6.90969 25.2197 6.90969C35.4829 6.90969 43.5894 13.2041 43.5894 22.6841C43.5894 29.606 39.5161 34.0269 32.3276 39.2388C24.1016 45.1059 19.4853 50.3496 19.4853 58.8223C19.4853 60.1201 19.4853 61.4331 19.4853 62.7158C19.4853 65.0537 20.7856 66.7061 23.2617 66.7061ZM23.3525 92.5977C26.4717 92.5977 28.9727 90.063 28.9727 86.9961C28.9727 83.8955 26.4717 81.4097 23.3525 81.4097C20.2856 81.4097 17.751 83.8955 17.751 86.9961C17.751 90.063 20.2856 92.5977 23.3525 92.5977Z" fill="#000000" fill-opacity="0.85"/>
  <path d="M125.114 46.1953C125.114 35.8765 116.89 27.6372 106.62 27.6372C98.8306 27.6372 92.0025 32.2476 89.2325 39.4478L60.853 39.4478C60.1255 39.4478 59.5142 39.7104 58.9214 40.2881L54.0938 45.0518C53.4824 45.6294 53.4302 46.6787 54.0938 47.3726L63.19 56.5176C63.8384 57.1846 64.8203 57.1509 65.5176 56.5176L70.9932 50.9746L78.6494 58.6123C79.2793 59.2608 80.2124 59.2608 80.9097 58.5635L88.522 51.0523C92.0918 59.835 98.6875 64.7871 106.62 64.7871C116.841 64.7871 125.114 56.4653 125.114 46.1953ZM107.578 46.8389C107.578 43.9478 109.962 41.5298 112.857 41.5298C115.815 41.5298 118.166 43.8652 118.166 46.8389C118.166 49.7637 115.781 52.1328 112.857 52.1328C109.962 52.1328 107.578 49.7637 107.578 46.8389Z" fill="#000000" fill-opacity="0.85"/>
 </g>
</svg>
