<?xml version="1.0" encoding="UTF-8"?>
<!--Generator: Apple Native CoreSVG 232.5-->
<!DOCTYPE svg
PUBLIC "-//W3C//DTD SVG 1.1//EN"
       "http://www.w3.org/Graphics/SVG/1.1/DTD/svg11.dtd">
<svg version="1.1" xmlns="http://www.w3.org/2000/svg" xmlns:xlink="http://www.w3.org/1999/xlink" width="126.493" height="79.6865">
 <g>
  <rect height="79.6865" opacity="0" width="126.493" x="0" y="0"/>
  <path d="M24.75 79.6377L77.0772 79.6377C88.4614 79.6377 95.0757 73.1582 95.0757 61.7891L95.0757 17.8149C95.0757 6.4795 88.4614 0 77.0772 0L24.75 0C13.7212 0 6.76661 6.4795 6.76661 17.8149L6.76661 61.7891C6.76661 73.1582 13.3657 79.6377 24.75 79.6377ZM25.875 73.96C17.3677 73.96 12.7964 69.6128 12.7964 60.8325L12.7964 18.79C12.7964 9.99122 17.3677 5.64406 25.875 5.64406L75.9673 5.64406C84.4409 5.64406 89.0308 9.99122 89.0308 18.79L89.0308 60.8325C89.0308 69.6128 84.4409 73.96 75.9673 73.96ZM94.104 27.146L94.104 34.2437L117.422 15.3115C118.164 14.7427 118.714 14.332 119.335 14.332C120.194 14.332 120.65 14.9868 120.65 16.1245L120.65 63.5132C120.65 64.6357 120.194 65.272 119.335 65.272C118.714 65.272 118.164 64.8613 117.422 64.3262L94.104 45.3789L94.104 52.458L114.456 69.3472C116.334 70.8677 118.27 71.915 120.227 71.915C123.994 71.915 126.493 69.165 126.493 65.0024L126.493 14.6353C126.493 10.4727 123.994 7.72265 120.227 7.72265C118.27 7.72265 116.334 8.75488 114.456 10.2905Z" fill="#000000" fill-opacity="0.85"/>
  <path d="M49.8316 48.9551C51.499 48.9551 52.5635 47.8906 52.5635 46.4473C52.5635 46.1494 52.5635 45.8633 52.5635 45.5166C52.5635 42.8901 53.9038 41.3311 57.1953 39.1289C61.6284 36.1607 64.1714 33.5728 64.1714 28.7046C64.1714 22.0884 58.2642 18.1519 50.9834 18.1519C43.669 18.1519 38.9981 21.8979 37.937 26.1777C37.7534 26.8345 37.6709 27.4912 37.6709 28.1968C37.6709 29.7412 38.8853 30.6035 40.0776 30.6035C41.9776 30.6035 42.4019 29.5391 43.3638 28.1968C44.4654 25.0928 47.0073 22.8711 50.7695 22.8711C55.3521 22.8711 58.2578 25.3745 58.2578 29.001C58.2578 32.0283 56.5386 33.7051 52.4844 36.5117C49.0986 38.8789 47.0845 41.1924 47.0845 45.2168C47.0845 45.5483 47.0845 45.9136 47.0845 46.2114C47.0845 48.0254 48.0816 48.9551 49.8316 48.9551ZM49.7153 61.5786C51.9214 61.5786 53.8345 59.7886 53.8345 57.5791C53.8345 55.3882 51.9551 53.5947 49.7153 53.5947C47.4605 53.5947 45.6148 55.3882 45.6148 57.5791C45.6148 59.77 47.4941 61.5786 49.7153 61.5786Z" fill="#000000" fill-opacity="0.85"/>
 </g>
</svg>
