<?xml version="1.0" encoding="UTF-8"?>
<!--Generator: Apple Native CoreSVG 232.5-->
<!DOCTYPE svg
PUBLIC "-//W3C//DTD SVG 1.1//EN"
       "http://www.w3.org/Graphics/SVG/1.1/DTD/svg11.dtd">
<svg version="1.1" xmlns="http://www.w3.org/2000/svg" xmlns:xlink="http://www.w3.org/1999/xlink" width="97.9595" height="97.9932">
 <g>
  <rect height="97.9932" opacity="0" width="97.9595" x="0" y="0"/>
  <path d="M48.9722 97.9443C75.8247 97.9443 97.9595 75.7759 97.9595 48.9722C97.9595 22.1348 75.791 0 48.9385 0C22.1348 0 0 22.1348 0 48.9722C0 75.7759 22.1685 97.9443 48.9722 97.9443ZM48.9722 91.6113C25.3501 91.6113 6.36671 72.5942 6.36671 48.9722C6.36671 25.3501 25.3164 6.31789 48.9385 6.31789C72.5605 6.31789 91.6265 25.3501 91.6265 48.9722C91.6265 72.5942 72.5942 91.6113 48.9722 91.6113Z" fill="#000000" fill-opacity="0.85"/>
  <path d="M48.0225 58.9282C49.8887 58.9282 51.0542 57.6987 51.0542 56.1729C51.0542 55.8262 51.0542 55.4761 51.0542 55.1631C51.0542 52.2925 52.5259 50.4893 56.1406 48.0767C61.0283 44.8003 63.8677 41.9531 63.8677 36.6084C63.8677 29.3052 57.3374 24.9258 49.3394 24.9258C41.2739 24.9258 36.0137 29.1113 34.9526 33.8306C34.769 34.5513 34.6831 35.2114 34.6831 35.9961C34.6831 37.7393 35.9834 38.6841 37.292 38.6841C38.6494 38.6841 39.542 38.0088 40.1182 36.9883L40.7095 36.0283C41.8281 32.7119 44.9273 30.1284 49.1069 30.1284C54.1255 30.1284 57.3394 32.9399 57.3394 36.9233C57.3394 40.2588 55.4399 42.0972 50.98 45.1968C47.2373 47.8047 44.9941 50.3623 44.9941 54.8145C44.9941 55.1763 44.9941 55.5566 44.9941 55.9185C44.9941 57.8672 46.1226 58.9282 48.0225 58.9282ZM47.9399 72.8584C50.3936 72.8584 52.4717 70.8545 52.4717 68.4463C52.4717 65.9927 50.4273 64.0342 47.9399 64.0342C45.4375 64.0342 43.3931 66.0264 43.3931 68.4463C43.3931 70.8359 45.4712 72.8584 47.9399 72.8584Z" fill="#000000" fill-opacity="0.85"/>
 </g>
</svg>
