<?xml version="1.0" encoding="UTF-8"?>
<!--Generator: Apple Native CoreSVG 232.5-->
<!DOCTYPE svg
PUBLIC "-//W3C//DTD SVG 1.1//EN"
       "http://www.w3.org/Graphics/SVG/1.1/DTD/svg11.dtd">
<svg version="1.1" xmlns="http://www.w3.org/2000/svg" xmlns:xlink="http://www.w3.org/1999/xlink" width="108.715" height="108.771">
 <g>
  <rect height="108.771" opacity="0" width="108.715" x="0" y="0"/>
  <path d="M5.1061 64.5165L44.2326 103.628C50.9899 110.4 57.8161 110.389 64.4943 103.729L103.71 64.4491C110.355 57.7895 110.412 50.9296 103.654 44.1723L64.5919 5.10976C57.8043-1.67784 51.0236-1.69981 44.2848 5.02383L5.00502 44.2396C-1.71861 50.9633-1.65123 57.744 5.1061 64.5165ZM9.43814 60.3832C5.54752 56.474 5.49527 52.3124 9.47183 48.351L48.317 9.49063C52.3239 5.49894 56.4249 5.53263 60.3644 9.45694L99.2619 48.3544C103.107 52.2148 103.235 56.4403 99.2433 60.4169L60.3981 99.247C56.3913 103.239 52.1774 103.141 48.3507 99.3144Z" fill="#000000" fill-opacity="0.85"/>
  <path d="M53.4601 64.3173C55.3263 64.3173 56.4582 63.0878 56.4582 61.5619C56.4582 61.2152 56.4582 60.8651 56.4582 60.5522C56.4582 57.6815 57.9787 55.8783 61.5934 53.4657C66.466 50.1894 69.3053 47.3422 69.3053 41.9975C69.3053 34.6942 62.7751 30.3148 54.777 30.3148C46.7116 30.3148 41.4664 34.5004 40.4054 39.2196C40.1881 39.9403 40.0871 40.6005 40.0871 41.3852C40.0871 43.1283 41.3873 44.0731 42.7448 44.0731C44.0871 44.0731 44.9948 43.3979 45.571 42.3773L46.1471 41.4174C47.2809 38.101 50.38 35.5175 54.5109 35.5175C59.5783 35.5175 62.7921 38.329 62.7921 42.3124C62.7921 45.6479 60.8776 47.4862 56.3991 50.5858C52.6901 53.1937 50.4318 55.7514 50.4318 60.2035C50.4318 60.5653 50.4318 60.9457 50.4318 61.3075C50.4318 63.2563 51.5265 64.3173 53.4601 64.3173ZM53.3439 78.2475C55.8126 78.2475 57.8908 76.2436 57.8908 73.8354C57.8908 71.3817 55.8463 69.4232 53.3439 69.4232C50.8751 69.4232 48.8307 71.4154 48.8307 73.8354C48.8307 76.225 50.9088 78.2475 53.3439 78.2475Z" fill="#000000" fill-opacity="0.85"/>
 </g>
</svg>
