<?xml version="1.0" encoding="UTF-8"?>
<!--Generator: Apple Native CoreSVG 232.5-->
<!DOCTYPE svg
PUBLIC "-//W3C//DTD SVG 1.1//EN"
       "http://www.w3.org/Graphics/SVG/1.1/DTD/svg11.dtd">
<svg version="1.1" xmlns="http://www.w3.org/2000/svg" xmlns:xlink="http://www.w3.org/1999/xlink" width="88.0713" height="88.1201">
 <g>
  <rect height="88.1201" opacity="0" width="88.0713" x="0" y="0"/>
  <path d="M82.6309 5.48926C78.0894 0.978026 71.7998 0 62.9356 0L24.8228 0C16.3169 0 9.98194 0.993162 5.47071 5.51953C0.944334 10.0308 0 16.2866 0 24.8228L0 62.9356C0 71.8149 0.929198 78.0859 5.44043 82.5669C9.98194 87.0933 16.2715 88.0713 25.1021 88.0713L62.9356 88.0713C71.7998 88.0713 78.1196 87.0933 82.6309 82.5669C87.1421 78.0557 88.0713 71.8149 88.0713 62.9356L88.0713 25.1021C88.0713 16.2227 87.1421 9.98536 82.6309 5.48926ZM82.0415 23.7988L82.0415 64.2573C82.0415 70.0435 81.1494 75.147 78.1709 78.1069C75.1958 81.1309 70.0283 82.0415 64.2725 82.0415L23.814 82.0415C18.0581 82.0415 12.8755 81.1157 9.86671 78.1069C6.90675 75.147 6.04494 70.0435 6.04494 64.2573L6.04494 24.1118C6.04494 18.0733 6.90675 12.9092 9.85157 9.9004C12.8604 6.91017 18.1221 6.0298 24.1118 6.0298L64.2725 6.0298C70.0283 6.0298 75.1958 6.95558 78.1709 9.94923C81.1797 12.9243 82.0415 18.0278 82.0415 23.7988Z" fill="#000000" fill-opacity="0.85"/>
  <path d="M43.1533 53.9917C45.0195 53.9917 46.1514 52.7622 46.1514 51.2363C46.1514 50.8897 46.1514 50.5396 46.1514 50.2266C46.1514 47.356 47.6719 45.5527 51.2529 43.1401C56.1255 39.8638 58.9649 37.0166 58.9649 31.6719C58.9649 24.3687 52.4683 19.9893 44.4702 19.9893C36.4048 19.9893 31.1597 24.1748 30.0649 28.894C29.8813 29.6147 29.7803 30.2749 29.7803 31.0596C29.7803 32.8027 31.0806 33.7476 32.438 33.7476C33.7803 33.7476 34.6543 33.0723 35.2305 32.0518L35.8067 31.0918C36.9404 27.7754 40.0733 25.1919 44.2041 25.1919C49.2378 25.1919 52.4854 28.0034 52.4854 31.9868C52.4854 35.3223 50.5371 37.1606 46.0923 40.2603C42.3496 42.8682 40.125 45.4258 40.125 49.8779C40.125 50.2398 40.125 50.6201 40.125 50.9819C40.125 52.9307 41.2197 53.9917 43.1533 53.9917ZM43.0371 67.9219C45.5059 67.9219 47.584 65.918 47.584 63.5098C47.584 61.0562 45.5396 59.0977 43.0371 59.0977C40.5347 59.0977 38.4902 61.0898 38.4902 63.5098C38.4902 65.8994 40.5684 67.9219 43.0371 67.9219Z" fill="#000000" fill-opacity="0.85"/>
 </g>
</svg>
