<?xml version="1.0" encoding="UTF-8"?>
<!--Generator: Apple Native CoreSVG 232.5-->
<!DOCTYPE svg
PUBLIC "-//W3C//DTD SVG 1.1//EN"
       "http://www.w3.org/Graphics/SVG/1.1/DTD/svg11.dtd">
<svg version="1.1" xmlns="http://www.w3.org/2000/svg" xmlns:xlink="http://www.w3.org/1999/xlink" width="88.0713" height="87.9111">
 <g>
  <rect height="87.9111" opacity="0" width="88.0713" x="0" y="0"/>
  <path d="M5.47071 5.64746C1.0791 10.0391 0 16.0742 0 24.4082L0 25.4111L6.04494 25.4111L6.04494 24.2061C6.04494 18.2012 6.90675 13.0034 9.85157 10.0283C12.8604 7.00441 18.1221 6.15773 24.1118 6.15773L25.5811 6.15773L25.5811 0.127929L24.314 0.127929C15.9951 0.127929 9.88086 1.22217 5.47071 5.64746ZM31.2715 6.15773L56.7998 6.15773L56.7998 0.127929L31.2715 0.127929ZM82.6309 5.61719C78.1904 1.20703 72.1216 0.127929 63.4595 0.127929L62.4566 0.127929L62.4566 6.15773L64.2725 6.15773C70.0283 6.15773 75.1958 7.08351 78.1709 10.0586C81.1797 13.0523 82.0415 18.1221 82.0415 23.9082L82.0415 25.4111L88.0713 25.4111L88.0713 24.7061C88.0713 15.9951 87.0225 9.95997 82.6309 5.61719ZM82.0415 56.9526L88.0713 56.9526L88.0713 31.0864L82.0415 31.0864ZM82.6309 82.4219C87.0225 78.0303 88.0713 72.0439 88.0713 63.333L88.0713 62.6279L82.0415 62.6279L82.0415 64.0972C82.0415 69.917 81.1494 74.9868 78.1709 77.9805C75.1958 80.9707 70.0283 81.8813 64.2725 81.8813L62.4566 81.8813L62.4566 87.9111L63.4595 87.9111C72.1216 87.9111 78.2056 86.832 82.6309 82.4219ZM31.2715 87.9111L56.7998 87.9111L56.7998 81.8813L31.2715 81.8813ZM5.44043 82.4219C9.88086 86.832 15.9497 87.9111 24.5933 87.9111L25.5811 87.9111L25.5811 81.8813L23.814 81.8813C18.0581 81.8813 12.8755 80.9556 9.86671 77.9805C6.90675 74.9868 6.04494 69.917 6.04494 64.0972L6.04494 62.6279L0 62.6279L0 63.333C0 72.0439 1.06396 78.0454 5.44043 82.4219ZM0 56.9526L6.04494 56.9526L6.04494 31.0864L0 31.0864Z" fill="#000000" fill-opacity="0.85"/>
  <path d="M43.1533 53.8872C45.0195 53.8872 46.1514 52.6577 46.1514 51.1318C46.1514 50.7852 46.1514 50.4351 46.1514 50.1221C46.1514 47.2515 47.6719 45.4482 51.2529 43.0357C56.1255 39.7593 58.9649 36.9121 58.9649 31.5674C58.9649 24.2642 52.4683 19.8848 44.4702 19.8848C36.4048 19.8848 31.1597 24.0703 30.0649 28.7895C29.8813 29.5103 29.7803 30.1704 29.7803 30.9551C29.7803 32.6982 31.0806 33.6431 32.438 33.6431C33.7803 33.6431 34.6543 32.9678 35.2305 31.9473L35.8067 30.9873C36.9404 27.6709 40.0733 25.0874 44.2041 25.0874C49.2378 25.0874 52.4854 27.8989 52.4854 31.8823C52.4854 35.2178 50.5371 37.0562 46.0923 40.1558C42.3496 42.7637 40.125 45.3213 40.125 49.7734C40.125 50.1353 40.125 50.5156 40.125 50.8774C40.125 52.8262 41.2197 53.8872 43.1533 53.8872ZM43.0371 67.8174C45.5059 67.8174 47.584 65.8135 47.584 63.4053C47.584 60.9517 45.5396 58.9932 43.0371 58.9932C40.5347 58.9932 38.4902 60.9854 38.4902 63.4053C38.4902 65.7949 40.5684 67.8174 43.0371 67.8174Z" fill="#000000" fill-opacity="0.85"/>
 </g>
</svg>
