<?xml version="1.0" encoding="UTF-8"?>
<!--Generator: Apple Native CoreSVG 232.5-->
<!DOCTYPE svg
PUBLIC "-//W3C//DTD SVG 1.1//EN"
       "http://www.w3.org/Graphics/SVG/1.1/DTD/svg11.dtd">
<svg version="1.1" xmlns="http://www.w3.org/2000/svg" xmlns:xlink="http://www.w3.org/1999/xlink" width="109.42" height="88.2344">
 <g>
  <rect height="88.2344" opacity="0" width="109.42" x="0" y="0"/>
  <path d="M36.7739 3.61328L39.6011 6.02441C42.1333 8.30566 44.0899 8.99609 47.8189 8.99609L95.0269 8.99609C104.517 8.99609 109.42 13.8623 109.42 23.2549L109.42 73.4771C109.42 82.8696 104.551 87.751 95.9922 87.751L14.3936 87.751C4.86963 87.751 0 82.9487 0 73.4771L0 13.3501C0 4.42871 4.46241 0 12.5684 0L26.4541 0C31.3638 0 33.5664 0.77295 36.7739 3.61328ZM49.3501 67.1123C49.3501 69.4346 51.3945 71.3897 53.7471 71.3897C56.1484 71.3897 58.1592 69.4683 58.1592 67.1123C58.1592 64.7412 56.1821 62.835 53.7471 62.835C51.3608 62.835 49.3501 64.7749 49.3501 67.1123ZM41.1792 33.4922C40.9956 34.1641 40.8608 34.8242 40.8608 35.6089C40.8608 37.2847 42.1611 38.1958 43.436 38.1958C44.7261 38.1958 45.585 37.5356 46.1611 36.5674L46.7188 35.6411C47.8037 32.3584 50.8355 29.876 54.8955 29.876C59.7944 29.876 62.9409 32.5713 62.9409 36.4839C62.9409 39.7183 61.1089 41.4741 56.7163 44.5215C53.1084 47.062 50.9175 49.5337 50.9175 53.8848C50.9175 54.2466 50.9175 54.5781 50.9175 54.9399C50.9175 56.8701 52.0122 57.8638 53.8447 57.8638C55.6773 57.8638 56.7754 56.7017 56.7754 55.1758C56.7754 54.8628 56.7754 54.5464 56.7754 54.1997C56.7754 51.3814 58.2134 49.6455 61.7271 47.334C66.4951 44.1587 69.252 41.3452 69.252 36.1875C69.252 29.0864 62.9238 24.8604 55.1279 24.8604C47.2832 24.8604 42.1914 28.8926 41.1792 33.4922Z" fill="#000000" fill-opacity="0.85"/>
 </g>
</svg>
