<?xml version="1.0" encoding="UTF-8"?>
<!--Generator: Apple Native CoreSVG 232.5-->
<!DOCTYPE svg
PUBLIC "-//W3C//DTD SVG 1.1//EN"
       "http://www.w3.org/Graphics/SVG/1.1/DTD/svg11.dtd">
<svg version="1.1" xmlns="http://www.w3.org/2000/svg" xmlns:xlink="http://www.w3.org/1999/xlink" width="88.4092" height="88.5371">
 <g>
  <rect height="88.5371" opacity="0" width="88.4092" x="0" y="0"/>
  <path d="M0 25.7241L6.04494 25.7241L6.04494 14.7017C6.04494 9.06349 9.00294 6.17287 14.5064 6.17287L25.4614 6.17287L25.4614 0.127929L14.3936 0.127929C4.86963 0.127929 0 4.93018 0 14.4019ZM31.1519 6.17287L57.2573 6.17287L57.2573 0.127929L31.1519 0.127929ZM82.3643 25.7241L88.4092 25.7241L88.4092 14.4019C88.4092 5.00928 83.5396 0.127929 74.0005 0.127929L62.9478 0.127929L62.9478 6.17287L73.9028 6.17287C79.2969 6.17287 82.3643 9.06349 82.3643 14.7017ZM82.3643 57.2656L88.4092 57.2656L88.4092 31.3994L82.3643 31.3994ZM62.9478 88.5371L74.0005 88.5371C83.5396 88.5371 88.4092 83.6558 88.4092 74.2632L88.4092 62.9409L82.3643 62.9409L82.3643 73.9634C82.3643 79.6016 79.2969 82.4922 73.9028 82.4922L62.9478 82.4922ZM31.1519 88.5371L57.2573 88.5371L57.2573 82.4922L31.1519 82.4922ZM14.3936 88.5371L25.4614 88.5371L25.4614 82.4922L14.5064 82.4922C9.00294 82.4922 6.04494 79.6016 6.04494 73.9634L6.04494 62.9409L0 62.9409L0 74.2632C0 83.7349 4.86963 88.5371 14.3936 88.5371ZM0 57.2656L6.04494 57.2656L6.04494 31.3994L0 31.3994Z" fill="#000000" fill-opacity="0.85"/>
  <path d="M43.2979 54.2002C45.1978 54.2002 46.3447 52.9707 46.3447 51.4448C46.3447 51.0981 46.3447 50.7481 46.3447 50.4351C46.3447 47.5645 47.8501 45.7612 51.4312 43.3486C56.3037 40.0723 59.1431 37.2251 59.1431 31.8804C59.1431 24.5771 52.6128 20.1978 44.6148 20.1978C36.583 20.1978 31.3379 24.3833 30.2432 29.1025C30.0596 29.8232 29.9585 30.4834 29.9585 31.2681C29.9585 33.0112 31.2588 33.9561 32.5825 33.9561C33.9585 33.9561 34.8325 33.2808 35.4087 32.2603L35.9849 31.3003C37.1187 27.9839 40.2515 25.4004 44.3823 25.4004C49.416 25.4004 52.6299 28.2119 52.6299 32.1953C52.6299 35.5308 50.7305 37.3691 46.2705 40.4688C42.5278 43.0767 40.2847 45.6343 40.2847 50.0864C40.2847 50.4482 40.2847 50.8286 40.2847 51.1904C40.2847 53.1392 41.398 54.2002 43.2979 54.2002ZM43.2153 68.1304C45.6841 68.1304 47.7622 66.1265 47.7622 63.7183C47.7622 61.2647 45.7178 59.3062 43.2153 59.3062C40.728 59.3062 38.6685 61.2983 38.6685 63.7183C38.6685 66.1079 40.7466 68.1304 43.2153 68.1304Z" fill="#000000" fill-opacity="0.85"/>
 </g>
</svg>
