<?xml version="1.0" encoding="UTF-8"?>
<!--Generator: Apple Native CoreSVG 232.5-->
<!DOCTYPE svg
PUBLIC "-//W3C//DTD SVG 1.1//EN"
       "http://www.w3.org/Graphics/SVG/1.1/DTD/svg11.dtd">
<svg version="1.1" xmlns="http://www.w3.org/2000/svg" xmlns:xlink="http://www.w3.org/1999/xlink" width="88.0713" height="88.1201">
 <g>
  <rect height="88.1201" opacity="0" width="88.0713" x="0" y="0"/>
  <path d="M82.6309 5.48926C87.1421 9.98536 88.0713 16.2227 88.0713 25.1021L88.0713 62.9356C88.0713 71.8149 87.1421 78.0557 82.6309 82.5669C78.1196 87.0933 71.7998 88.0713 62.9356 88.0713L25.1021 88.0713C16.2715 88.0713 9.98194 87.0933 5.44043 82.5669C0.929198 78.0859 0 71.8149 0 62.9356L0 24.8228C0 16.2866 0.944334 10.0308 5.47071 5.51953C9.98194 0.993162 16.3169 0 24.8228 0L62.9356 0C71.7998 0 78.0894 0.978026 82.6309 5.48926ZM38.2695 63.9175C38.2695 66.3745 40.4487 68.4307 42.936 68.4307C45.4722 68.4307 47.6177 66.4082 47.6177 63.9175C47.6177 61.4116 45.5059 59.3857 42.936 59.3857C40.415 59.3857 38.2695 61.4453 38.2695 63.9175ZM29.6758 28.5537C29.4922 29.2593 29.3574 29.9531 29.3574 30.7563C29.3574 32.5483 30.7251 33.5117 32.1162 33.5117C33.4922 33.5117 34.3848 32.8179 35.0098 31.7974L35.586 30.7886C36.772 27.4199 39.9385 24.8516 44.1367 24.8516C49.2378 24.8516 52.5527 27.6816 52.5527 31.7324C52.5527 35.1353 50.5708 36.9922 46.0249 40.1743C42.2148 42.8345 39.938 45.4258 39.938 50.0127C39.938 50.3745 39.938 50.7398 39.938 51.1016C39.938 53.1177 41.0664 54.2124 43.0523 54.2124C44.9859 54.2124 46.1514 52.9644 46.1514 51.356C46.1514 51.0244 46.1514 50.6743 46.1514 50.3613C46.1514 47.4082 47.7056 45.5864 51.3389 43.1401C56.3276 39.7964 59.2529 36.897 59.2529 31.4175C59.2529 23.9272 52.603 19.499 44.4028 19.499C36.1504 19.499 30.8042 23.7334 29.6758 28.5537Z" fill="#000000" fill-opacity="0.85"/>
 </g>
</svg>
