<?xml version="1.0" encoding="UTF-8"?>
<!--Generator: Apple Native CoreSVG 232.5-->
<!DOCTYPE svg
PUBLIC "-//W3C//DTD SVG 1.1//EN"
       "http://www.w3.org/Graphics/SVG/1.1/DTD/svg11.dtd">
<svg version="1.1" xmlns="http://www.w3.org/2000/svg" xmlns:xlink="http://www.w3.org/1999/xlink" width="105.998" height="105.197">
 <g>
  <rect height="105.197" opacity="0" width="105.998" x="0" y="0"/>
  <path d="M105.998 27.0293L105.998 66.2935C105.998 79.3286 98.5029 86.9883 85.2539 86.9883L49.461 86.9883L31.7886 102.769C30.0537 104.387 28.8799 105.197 27.3389 105.197C25.146 105.197 23.8408 103.604 23.8408 101.152L23.8408 86.9883L20.7437 86.9883C7.47949 86.9883 0 79.4077 0 66.2935L0 27.0293C0 13.8999 7.47949 6.28565 20.7437 6.28565L85.2539 6.28565C98.5029 6.28565 105.998 13.979 105.998 27.0293ZM28.9019 41.5586C28.9019 47.1504 32.5117 51.4121 38.0732 51.4121C40.2788 51.4121 42.3936 50.919 43.7573 49.1831L44.1631 49.1831C42.3379 53.6816 38.0264 56.4883 35.0576 57.3066C33.335 57.7495 32.8281 58.4551 32.8281 59.5547C32.8281 60.7334 33.7964 61.7017 35.0913 61.7017C39.7153 61.7017 50.0112 55.9649 50.0112 43.3989C50.0112 36.4873 45.4351 31.5503 39.2402 31.5503C33.3369 31.5503 28.9019 35.7647 28.9019 41.5586ZM56.0537 41.5586C56.0537 47.1504 59.6484 51.4121 65.1914 51.4121C67.4155 51.4121 69.5454 50.919 70.9092 49.1831L71.3149 49.1831C69.5049 53.6816 65.1934 56.4883 62.1606 57.3066C60.5356 57.7495 59.98 58.4551 59.98 59.5547C59.98 60.7334 60.9331 61.7017 62.228 61.7017C66.8521 61.7017 77.148 55.9649 77.148 43.3989C77.148 36.4873 72.5532 31.5503 66.3584 31.5503C60.4551 31.5503 56.0537 35.7647 56.0537 41.5586Z" fill="#000000" fill-opacity="0.85"/>
 </g>
</svg>
