<?xml version="1.0" encoding="UTF-8"?>
<!--Generator: Apple Native CoreSVG 232.5-->
<!DOCTYPE svg
PUBLIC "-//W3C//DTD SVG 1.1//EN"
       "http://www.w3.org/Graphics/SVG/1.1/DTD/svg11.dtd">
<svg version="1.1" xmlns="http://www.w3.org/2000/svg" xmlns:xlink="http://www.w3.org/1999/xlink" width="105.998" height="104.823">
 <g>
  <rect height="104.823" opacity="0" width="105.998" x="0" y="0"/>
  <path d="M28.0161 104.823C29.8789 104.823 31.2061 103.811 33.4126 101.886L50.5611 86.835L85.2539 86.835C98.5029 86.835 105.998 79.1416 105.998 66.1064L105.998 26.8423C105.998 13.792 98.5029 6.09863 85.2539 6.09863L20.7437 6.09863C7.47949 6.09863 0 13.7129 0 26.8423L0 66.1064C0 79.2207 7.47949 86.835 20.7437 86.835L23.8745 86.835L23.8745 99.9995C23.8745 102.927 25.4004 104.823 28.0161 104.823ZM29.5186 97.9917L29.5186 83.6348C29.5186 81.6035 28.7051 80.8052 26.6738 80.8052L20.7739 80.8052C11.1377 80.8052 6.04494 75.4429 6.04494 66.0273L6.04494 26.8726C6.04494 17.457 11.1377 12.1436 20.7739 12.1436L85.2085 12.1436C94.7354 12.1436 99.9526 17.457 99.9526 26.8726L99.9526 66.0273C99.9526 75.4429 94.7354 80.8052 85.2085 80.8052L50.5557 80.8052C48.336 80.8052 47.211 81.1353 45.6128 82.7368Z" fill="#000000" fill-opacity="0.85"/>
  <path d="M29.3921 41.4238C29.3921 46.9297 32.9346 51.0903 38.3765 51.0903C40.5332 51.0903 42.6294 50.5972 43.9443 48.895L44.3501 48.895C42.5737 53.3262 38.3145 56.0806 35.4131 56.8652C33.7427 57.3081 33.251 58.0137 33.251 59.0796C33.251 60.2246 34.1856 61.1592 35.4468 61.1592C39.9697 61.1592 50.0635 55.5571 50.0635 43.2305C50.0635 36.4536 45.5547 31.6514 39.5098 31.6514C33.7261 31.6514 29.3921 35.7798 29.3921 41.4238ZM55.9863 41.4238C55.9863 46.9297 59.5288 51.0903 64.9707 51.0903C67.1274 51.0903 69.2236 50.5972 70.5537 48.895L70.9595 48.895C69.1831 53.3262 64.9238 56.0806 62.0073 56.8652C60.4009 57.3081 59.8452 58.0137 59.8452 59.0796C59.8452 60.2246 60.7798 61.1592 62.041 61.1592C66.564 61.1592 76.6729 55.5571 76.6729 43.2305C76.6729 36.4536 72.1641 31.6514 66.104 31.6514C60.3355 31.6514 55.9863 35.7798 55.9863 41.4238Z" fill="#000000" fill-opacity="0.85"/>
 </g>
</svg>
