<?xml version="1.0" encoding="UTF-8"?>
<!--Generator: Apple Native CoreSVG 232.5-->
<!DOCTYPE svg
PUBLIC "-//W3C//DTD SVG 1.1//EN"
       "http://www.w3.org/Graphics/SVG/1.1/DTD/svg11.dtd">
<svg version="1.1" xmlns="http://www.w3.org/2000/svg" xmlns:xlink="http://www.w3.org/1999/xlink" width="104.822" height="66.2412">
 <g>
  <rect height="66.2412" opacity="0" width="104.822" x="0" y="0"/>
  <path d="M47.6172 43.3301C47.6172 30.6899 38.21 20.5049 25.9136 20.5049C19.9214 20.5049 14.0103 22.9058 9.62453 28.0942L8.3213 28.0942C10.7446 18.7295 19.4292 9.4253 31.8481 6.28175C33.1196 5.91456 34.1519 5.58106 34.7749 5.17676C35.6318 4.72364 36.2378 4.03321 36.2378 2.9253C36.2378 1.17725 34.8872 0.0336915 32.9253 0.0336915C31.3662 0.0336915 29.9976 0.341797 28.0493 0.949708C21.1748 3.02588 15.0293 6.85303 10.3569 11.8452C3.93164 18.5449 0 27.5093 0 38.0615C0 55.918 11.3335 66.2412 24.6084 66.2412C37.7334 66.2412 47.6172 56.2295 47.6172 43.3301ZM104.822 43.3301C104.822 30.6899 95.3809 20.5049 83.103 20.5049C77.126 20.5049 71.166 22.9058 66.8291 28.0942L65.5259 28.0942C67.9341 18.7295 76.6187 9.4253 88.9888 6.28175C90.2754 5.91456 91.3413 5.58106 91.9644 5.17676C92.8364 4.72364 93.3936 4.03321 93.3936 2.9253C93.3936 1.17725 92.0918 0.0336915 90.1299 0.0336915C88.5068 0.0336915 87.2022 0.341797 85.2051 0.949708C78.3491 3.02588 72.2153 6.85303 67.4976 11.8452C61.106 18.5449 57.2046 27.5093 57.2046 38.0615C57.2046 55.918 68.523 66.2412 81.813 66.2412C94.9077 66.2412 104.822 56.2295 104.822 43.3301Z" fill="#000000" fill-opacity="0.85"/>
 </g>
</svg>
