<?xml version="1.0" encoding="UTF-8"?>
<!--Generator: Apple Native CoreSVG 232.5-->
<!DOCTYPE svg
PUBLIC "-//W3C//DTD SVG 1.1//EN"
       "http://www.w3.org/Graphics/SVG/1.1/DTD/svg11.dtd">
<svg version="1.1" xmlns="http://www.w3.org/2000/svg" xmlns:xlink="http://www.w3.org/1999/xlink" width="104.822" height="66.2412">
 <g>
  <rect height="66.2412" opacity="0" width="104.822" x="0" y="0"/>
  <path d="M0 22.9448C0 35.585 9.42578 45.77 21.7188 45.77C27.6958 45.77 33.6221 43.3692 37.9927 38.1807L39.2808 38.1807C36.8877 47.5454 28.2031 56.8496 15.8179 59.9932C14.5127 60.3604 13.4805 60.6939 12.8574 61.0981C11.9854 61.5513 11.4282 62.2417 11.4282 63.3496C11.4282 65.0977 12.7149 66.2412 14.6431 66.2412C16.2998 66.2412 17.6196 65.9331 19.6167 65.3252C26.4575 63.2339 32.6065 59.4219 37.3091 54.4297C43.7158 47.73 47.6172 38.7656 47.6172 28.2134C47.6172 10.3418 36.2988 0.0336915 23.0088 0.0336915C9.89893 0.0336915 0 10.0454 0 22.9448ZM57.2046 22.9448C57.2046 35.585 66.6118 45.77 78.9082 45.77C84.9004 45.77 90.7778 43.3692 95.1973 38.1807L96.4517 38.1807C94.0772 47.5454 85.3926 56.8496 72.9737 59.9932C71.6685 60.3604 70.6548 60.6939 70.0318 61.0981C69.19 61.5513 68.584 62.2417 68.584 63.3496C68.584 65.0977 69.9346 66.2412 71.8814 66.2412C73.4556 66.2412 74.8242 65.9331 76.7573 65.3252C83.647 63.2339 89.7774 59.4219 94.4312 54.4297C100.89 47.73 104.822 38.7656 104.822 28.2134C104.822 10.3418 93.4883 0.0336915 80.2134 0.0336915C67.0884 0.0336915 57.2046 10.0454 57.2046 22.9448Z" fill="#000000" fill-opacity="0.85"/>
 </g>
</svg>
