<?xml version="1.0" encoding="UTF-8"?>
<!--Generator: Apple Native CoreSVG 232.5-->
<!DOCTYPE svg
PUBLIC "-//W3C//DTD SVG 1.1//EN"
       "http://www.w3.org/Graphics/SVG/1.1/DTD/svg11.dtd">
<svg version="1.1" xmlns="http://www.w3.org/2000/svg" xmlns:xlink="http://www.w3.org/1999/xlink" width="109.998" height="83.086">
 <g>
  <rect height="83.086" opacity="0" width="109.998" x="0" y="0"/>
  <path d="M38.999 83.0371L70.9985 83.0371C98.335 83.0371 109.998 70.3179 109.998 44.8838L109.998 13.8565C109.998 4.76856 105.192 0 96.0064 0L13.9912 0C4.79053 0 0 4.72315 0 13.8565L0 44.8838C0 70.3179 11.6475 83.0371 38.999 83.0371ZM39.0293 76.9922C15.6797 76.9922 6.04494 66.5737 6.04494 45.1602L6.04494 14.1899C6.04494 8.80763 8.81105 6.04494 14.1563 6.04494L95.8413 6.04494C101.028 6.04494 103.953 8.80763 103.953 14.1899L103.953 45.1602C103.953 66.5737 94.3027 76.9922 70.9194 76.9922Z" fill="#000000" fill-opacity="0.85"/>
  <path d="M44.6265 61.1548C46.5938 61.1548 47.8267 59.8394 47.8267 57.8687L47.8267 46.2256L55.978 46.2256L63.6436 59.2246C64.4756 60.5889 65.3599 61.1548 66.7393 61.1548C68.4219 61.1548 69.6397 60.0381 69.6397 58.4717C69.6397 57.707 69.3736 57.0098 68.8784 56.2334L62.1089 45.3042C67.0943 43.6538 70.3472 39.2608 70.3472 33.8931C70.3472 26.3779 64.9116 21.3618 56.6504 21.3618L44.5811 21.3618C42.6777 21.3618 41.5981 22.812 41.5981 24.7793L41.5981 57.8687C41.5981 59.8057 42.708 61.1548 44.6265 61.1548ZM47.8267 41.2588L47.8267 26.4634L56.1348 26.4634C61.0073 26.4634 64.2163 29.2564 64.2163 33.979C64.2163 38.6343 61.0747 41.2588 56.0337 41.2588Z" fill="#000000" fill-opacity="0.85"/>
 </g>
</svg>
