<?xml version="1.0" encoding="UTF-8"?>
<!--Generator: Apple Native CoreSVG 232.5-->
<!DOCTYPE svg
PUBLIC "-//W3C//DTD SVG 1.1//EN"
       "http://www.w3.org/Graphics/SVG/1.1/DTD/svg11.dtd">
<svg version="1.1" xmlns="http://www.w3.org/2000/svg" xmlns:xlink="http://www.w3.org/1999/xlink" width="97.9595" height="97.9932">
 <g>
  <rect height="97.9932" opacity="0" width="97.9595" x="0" y="0"/>
  <path d="M97.9595 48.9722C97.9595 75.7759 75.8247 97.9443 48.9722 97.9443C22.1685 97.9443 0 75.7759 0 48.9722C0 22.1348 22.1348 0 48.9385 0C75.791 0 97.9595 22.1348 97.9595 48.9722ZM36.2261 26.2158C34.2925 26.2158 33.2432 27.6323 33.2432 29.731L33.2432 68.208C33.2432 70.2275 34.3716 71.6441 36.3052 71.6441C38.3213 71.6441 39.4531 70.2949 39.4531 68.208L39.4531 54.1489L49.7969 54.1489L58.9424 69.5337C59.8906 71.0781 60.6738 71.6441 62.1021 71.6441C63.751 71.6441 64.9014 70.561 64.9014 68.9795C64.9014 68.0835 64.669 67.4839 64.125 66.5947L55.9395 53.2949C61.9385 51.6294 65.7774 46.5376 65.7774 40.2422C65.7774 31.7505 59.6768 26.2158 50.3345 26.2158ZM59.6348 40.377C59.6348 45.9971 55.6714 49.4063 49.6016 49.4063L39.4531 49.4063L39.4531 31.1455L49.7212 31.1455C55.604 31.1455 59.6348 34.6406 59.6348 40.377Z" fill="#000000" fill-opacity="0.85"/>
 </g>
</svg>
