<?xml version="1.0" encoding="UTF-8"?>
<!--Generator: Apple Native CoreSVG 232.5-->
<!DOCTYPE svg
PUBLIC "-//W3C//DTD SVG 1.1//EN"
       "http://www.w3.org/Graphics/SVG/1.1/DTD/svg11.dtd">
<svg version="1.1" xmlns="http://www.w3.org/2000/svg" xmlns:xlink="http://www.w3.org/1999/xlink" width="97.9595" height="97.9932">
 <g>
  <rect height="97.9932" opacity="0" width="97.9595" x="0" y="0"/>
  <path d="M48.9722 97.9443C75.8247 97.9443 97.9595 75.7759 97.9595 48.9722C97.9595 22.1348 75.791 0 48.9385 0C22.1348 0 0 22.1348 0 48.9722C0 75.7759 22.1685 97.9443 48.9722 97.9443ZM48.9722 91.6113C25.3501 91.6113 6.36671 72.5942 6.36671 48.9722C6.36671 25.3501 25.3164 6.31789 48.9385 6.31789C72.5605 6.31789 91.6265 25.3501 91.6265 48.9722C91.6265 72.5942 72.5942 91.6113 48.9722 91.6113Z" fill="#000000" fill-opacity="0.85"/>
  <path d="M36.5596 71.169C38.5083 71.169 39.6216 69.8872 39.6216 67.8525L39.6216 54.0293L49.7632 54.0293L58.7402 69.126C59.6699 70.6367 60.4531 71.169 61.814 71.169C63.4292 71.169 64.5459 70.1196 64.5459 68.5903C64.5459 67.7432 64.3135 67.1284 63.7695 66.2729L55.7036 53.1939C61.6167 51.562 65.4033 46.5713 65.4033 40.4107C65.4033 32.106 59.4224 26.6909 50.2671 26.6909L36.4805 26.6909C34.5806 26.6909 33.5649 28.04 33.5649 30.0864L33.5649 67.8525C33.5649 69.8198 34.6597 71.169 36.5596 71.169ZM39.6216 49.4063L39.6216 31.4824L49.7026 31.4824C55.4844 31.4824 59.4141 34.895 59.4141 40.5303C59.4141 46.0645 55.5366 49.4063 49.5679 49.4063Z" fill="#000000" fill-opacity="0.85"/>
 </g>
</svg>
