<?xml version="1.0" encoding="UTF-8"?>
<!--Generator: Apple Native CoreSVG 232.5-->
<!DOCTYPE svg
PUBLIC "-//W3C//DTD SVG 1.1//EN"
       "http://www.w3.org/Graphics/SVG/1.1/DTD/svg11.dtd">
<svg version="1.1" xmlns="http://www.w3.org/2000/svg" xmlns:xlink="http://www.w3.org/1999/xlink" width="107.643" height="140.088">
 <g>
  <rect height="140.088" opacity="0" width="107.643" x="0" y="0"/>
  <path d="M107.643 70.0198C107.643 99.739 83.522 123.841 53.8213 123.841C24.0718 123.841 0 99.6902 0 70.0198C0 46.2717 15.3862 26.0732 36.7775 18.9669C36.4655 21.0926 36.9406 23.1977 38.0392 24.9053C19.3604 31.37 6.04494 49.1059 6.04494 70.0198C6.04494 96.4749 27.3511 117.796 53.8213 117.796C80.2427 117.796 101.613 96.49 101.613 70.0198C101.613 49.0708 88.243 31.3409 69.5562 24.8912C70.6512 23.1832 71.1223 21.078 70.7967 18.9457C92.2009 26.0317 107.643 46.2288 107.643 70.0198Z" fill="#000000" fill-opacity="0.85"/>
  <path d="M45.3164 23.0403L62.2588 23.0403C65.0865 23.0403 66.1104 20.1707 64.4229 17.9392L56.1856 6.90162C54.9209 5.2732 52.688 5.24293 51.4722 6.90162L43.1338 17.9729C41.5474 20.1521 42.4214 23.0403 45.3164 23.0403Z" fill="#000000" fill-opacity="0.85"/>
  <path d="M53.8213 108.337C74.9912 108.337 92.105 91.1746 92.105 70.0198C92.105 48.8162 74.9912 31.7361 53.8213 31.7361C32.6665 31.7361 15.5376 48.8162 15.5376 70.0198C15.5376 91.1746 32.6665 108.337 53.8213 108.337ZM53.8213 102.292C35.9307 102.292 21.5825 87.8767 21.5825 70.0198C21.5825 52.1292 35.9307 37.7659 53.8213 37.7659C71.6782 37.7659 86.0752 52.1292 86.0752 70.0198C86.0752 87.8767 71.6782 102.292 53.8213 102.292ZM43.9746 88.6756C45.8072 88.6756 46.939 87.4461 46.939 85.6101L46.939 74.4422L54.7837 74.4422L62.0938 86.8313C62.8921 88.1433 63.709 88.6756 64.9873 88.6756C66.584 88.6756 67.7193 87.6262 67.7193 86.1946C67.7193 85.4485 67.4531 84.8001 66.9917 84.0422L60.5103 73.5545C65.2749 72.0237 68.3594 67.8328 68.3594 62.7195C68.3594 55.6272 63.2119 50.8469 55.3736 50.8469L43.8955 50.8469C42.1118 50.8469 41.1148 52.1961 41.1148 54.0286L41.1148 85.6101C41.1148 87.4275 42.1909 88.6756 43.9746 88.6756ZM46.939 69.7634L46.939 55.6116L54.9253 55.6116C59.5923 55.6116 62.6328 58.3035 62.6328 62.8206C62.6328 67.24 59.6597 69.7634 54.8394 69.7634Z" fill="#000000" fill-opacity="0.85"/>
 </g>
</svg>
