<?xml version="1.0" encoding="UTF-8"?>
<!--Generator: Apple Native CoreSVG 232.5-->
<!DOCTYPE svg
PUBLIC "-//W3C//DTD SVG 1.1//EN"
       "http://www.w3.org/Graphics/SVG/1.1/DTD/svg11.dtd">
<svg version="1.1" xmlns="http://www.w3.org/2000/svg" xmlns:xlink="http://www.w3.org/1999/xlink" width="107.643" height="140.002">
 <g>
  <rect height="140.002" opacity="0" width="107.643" x="0" y="0"/>
  <path d="M107.643 69.9766C107.643 93.7574 92.1985 113.941 70.7918 121.021C71.1127 118.883 70.6354 116.775 69.5307 115.07C88.2307 108.636 101.613 90.9234 101.613 69.9766C101.613 43.4913 80.2427 22.1514 53.8213 22.1514C27.3511 22.1514 6.04494 43.5216 6.04494 69.9766C6.04494 90.8979 19.3698 108.609 38.0589 115.055C36.9426 116.758 36.4544 118.864 36.7582 120.989C15.3768 113.879 0 93.6906 0 69.9766C0 40.2725 24.0718 16.1216 53.8213 16.1216C83.522 16.1216 107.643 40.2423 107.643 69.9766Z" fill="#000000" fill-opacity="0.85"/>
  <path d="M45.3164 116.922C42.4214 116.922 41.5474 119.844 43.1338 122.024L51.4722 133.095C52.688 134.705 54.9209 134.723 56.1856 133.095L64.4229 122.057C66.1104 119.811 65.0865 116.922 62.2588 116.922Z" fill="#000000" fill-opacity="0.85"/>
  <path d="M53.8213 31.6593C32.6665 31.6593 15.5376 48.8067 15.5376 69.9766C15.5376 91.1651 32.6665 108.26 53.8213 108.26C74.9912 108.26 92.105 91.1651 92.105 69.9766C92.105 48.8067 74.9912 31.6593 53.8213 31.6593ZM43.7539 89.0216C41.9028 89.0216 40.793 87.7398 40.793 85.8551L40.793 53.6974C40.793 51.7974 41.8237 50.4146 43.6748 50.4146L55.3736 50.4146C63.4141 50.4146 68.6812 55.296 68.6812 62.5416C68.6812 67.7559 65.5293 72.0479 60.6636 73.5973L67.2613 84.2535C67.7412 85.0113 68.0225 85.6934 68.0225 86.4732C68.0225 87.9386 66.8384 89.0216 65.1895 89.0216C63.8775 89.0216 63.0269 88.4893 62.1948 87.1436L54.7837 74.5338L46.8194 74.5338L46.8194 85.8551C46.8194 87.7584 45.6387 89.0216 43.7539 89.0216ZM46.8194 69.7203L54.8394 69.7203C59.7456 69.7203 62.7525 67.1632 62.7525 62.6427C62.7525 58.0733 59.6597 55.3141 54.9253 55.3141L46.8194 55.3141Z" fill="#000000" fill-opacity="0.85"/>
 </g>
</svg>
