<?xml version="1.0" encoding="UTF-8"?>
<!--Generator: Apple Native CoreSVG 232.5-->
<!DOCTYPE svg
PUBLIC "-//W3C//DTD SVG 1.1//EN"
       "http://www.w3.org/Graphics/SVG/1.1/DTD/svg11.dtd">
<svg version="1.1" xmlns="http://www.w3.org/2000/svg" xmlns:xlink="http://www.w3.org/1999/xlink" width="109.963" height="120.681">
 <g>
  <rect height="120.681" opacity="0" width="109.963" x="0" y="0"/>
  <path d="M54.9907 91.6831C61.7263 91.6831 67.9589 91.0452 73.5962 89.8362L73.5962 92.4961C73.5962 101.326 66.6709 106.575 54.9907 106.575C43.292 106.575 36.3516 101.326 36.3516 92.4961L36.3516 89.8318C41.9969 91.0437 48.2408 91.6831 54.9907 91.6831Z" fill="#000000" fill-opacity="0.85"/>
  <path d="M104.306 54.9409C104.306 72.1455 85.7984 86.0264 54.9907 86.0264C24.1494 86.0264 5.69044 72.1455 5.69044 54.9409C5.69044 37.77 24.1494 23.8892 54.9082 23.8892C85.7984 23.8892 104.306 37.77 104.306 54.9409ZM46.877 39.3496C45.415 39.3496 44.4854 40.3804 44.4854 42.0747L44.4854 67.2012C44.4854 68.7827 45.4302 69.8286 46.8921 69.8286C48.3877 69.8286 49.3814 68.7827 49.3814 67.2012L49.3814 58.3985L55.4317 58.3985L61.3882 68.3062C62.0366 69.4346 62.7002 69.896 63.7276 69.896C64.9722 69.896 66.0029 69 66.0029 67.7217C66.0029 67.0278 65.7739 66.5293 65.4102 65.9214L60.294 57.6304C64.1074 56.3472 66.4746 52.9932 66.4746 48.9322C66.4746 43.1651 62.2769 39.3496 56.0264 39.3496ZM61.6275 48.9844C61.6275 52.3667 59.3648 54.4458 55.5816 54.4458L49.3814 54.4458L49.3814 43.4219L55.6489 43.4219C59.3311 43.4219 61.6275 45.5869 61.6275 48.9844Z" fill="#000000" fill-opacity="0.85"/>
  <path d="M43.7124 5.07911L52.9146 17.3779C54.1118 19.0181 56.375 19.0029 57.5571 17.3779L66.8115 5.07911C68.4922 2.88477 67.5728 0 64.6626 0L45.8091 0C43.0186 0 41.9795 2.81739 43.7124 5.07911Z" fill="#000000" fill-opacity="0.85"/>
 </g>
</svg>
