<?xml version="1.0" encoding="UTF-8"?>
<!--Generator: Apple Native CoreSVG 232.5-->
<!DOCTYPE svg
PUBLIC "-//W3C//DTD SVG 1.1//EN"
       "http://www.w3.org/Graphics/SVG/1.1/DTD/svg11.dtd">
<svg version="1.1" xmlns="http://www.w3.org/2000/svg" xmlns:xlink="http://www.w3.org/1999/xlink" width="109.185" height="92.4688">
 <g>
  <rect height="92.4688" opacity="0" width="109.185" x="0" y="0"/>
  <path d="M54.6016 77.8989C61.3077 77.8989 67.5496 77.2599 73.207 76.0274L73.207 78.3902C73.207 87.2202 66.2818 92.4688 54.6016 92.4688C42.9028 92.4688 35.9624 87.2202 35.9624 78.3902L35.9624 76.0218C41.6285 77.258 47.8819 77.8989 54.6016 77.8989Z" fill="#000000" fill-opacity="0.85"/>
  <path d="M54.6016 72.8858C84.9341 72.8858 104.171 59.3941 104.171 40.835C104.171 22.3096 84.9004 8.81787 54.5191 8.81787C24.2505 8.81787 5.04688 22.3096 5.04688 40.835C5.04688 59.3941 24.2505 72.8858 54.6016 72.8858ZM54.6016 66.5005C29.0366 66.5005 11.7202 55.9946 11.7202 40.835C11.7202 25.6753 29.0366 15.2031 54.5191 15.2031C80.1143 15.2031 97.4829 25.6753 97.4829 40.835C97.4829 55.9946 80.148 66.5005 54.6016 66.5005Z" fill="#000000" fill-opacity="0.85"/>
  <path d="M46.417 55.4346C47.8638 55.4346 48.8389 54.4224 48.8389 52.8745L48.8389 44.1914L54.7881 44.1914L60.6436 53.9458C61.292 55.0405 61.9219 55.4683 62.9155 55.4683C64.1265 55.4683 65.1387 54.606 65.1387 53.3613C65.1387 52.7012 64.9097 52.1875 64.5308 51.6284L59.5156 43.457C63.2617 42.2075 65.5767 38.9209 65.5767 34.9121C65.5767 29.2949 61.48 25.5654 55.3828 25.5654L46.3867 25.5654C44.9922 25.5654 44.1113 26.5625 44.1113 28.1895L44.1113 52.8745C44.1113 54.4224 45.0225 55.4346 46.417 55.4346ZM48.8389 40.3399L48.8389 29.5029L55.0054 29.5029C58.6201 29.5029 60.8828 31.6494 60.8828 34.9795C60.8828 38.2944 58.6538 40.3399 54.938 40.3399Z" fill="#000000" fill-opacity="0.85"/>
 </g>
</svg>
