<?xml version="1.0" encoding="UTF-8"?>
<!--Generator: Apple Native CoreSVG 232.5-->
<!DOCTYPE svg
PUBLIC "-//W3C//DTD SVG 1.1//EN"
       "http://www.w3.org/Graphics/SVG/1.1/DTD/svg11.dtd">
<svg version="1.1" xmlns="http://www.w3.org/2000/svg" xmlns:xlink="http://www.w3.org/1999/xlink" width="107.643" height="140.088">
 <g>
  <rect height="140.088" opacity="0" width="107.643" x="0" y="0"/>
  <path d="M107.643 70.0198C107.643 99.739 83.522 123.841 53.8213 123.841C24.0718 123.841 0 99.6902 0 70.0198C0 46.2717 15.3862 26.0732 36.7775 18.9669C36.4655 21.0926 36.9406 23.1977 38.0392 24.9053C19.3604 31.37 6.04494 49.1059 6.04494 70.0198C6.04494 96.4749 27.3511 117.796 53.8213 117.796C80.2427 117.796 101.613 96.49 101.613 70.0198C101.613 49.0708 88.243 31.3409 69.5562 24.8912C70.6512 23.1832 71.1223 21.078 70.7967 18.9457C92.2009 26.0317 107.643 46.2288 107.643 70.0198Z" fill="#000000" fill-opacity="0.85"/>
  <path d="M45.3164 23.0403L62.2588 23.0403C65.0865 23.0403 66.1104 20.1707 64.4229 17.9392L56.1856 6.90162C54.9209 5.2732 52.688 5.24293 51.4722 6.90162L43.1338 17.9729C41.5474 20.1521 42.4214 23.0403 45.3164 23.0403Z" fill="#000000" fill-opacity="0.85"/>
  <path d="M53.8213 108.337C74.9912 108.337 92.105 91.1746 92.105 70.0198C92.105 48.8162 74.9912 31.7361 53.8213 31.7361C32.6665 31.7361 15.5376 48.8162 15.5376 70.0198C15.5376 91.1746 32.6665 108.337 53.8213 108.337ZM43.7539 89.0647C41.9028 89.0647 40.793 87.783 40.793 85.8982L40.793 53.7405C40.793 51.8406 41.8237 50.4578 43.6748 50.4578L55.3736 50.4578C63.4141 50.4578 68.6812 55.3391 68.6812 62.5847C68.6812 67.7991 65.5293 72.0911 60.6636 73.6404L67.2613 84.2966C67.7412 85.0545 68.0225 85.7366 68.0225 86.5164C68.0225 87.9817 66.8384 89.0647 65.1895 89.0647C63.8775 89.0647 63.0269 88.5325 62.1948 87.1868L54.7837 74.5769L46.8194 74.5769L46.8194 85.8982C46.8194 87.8015 45.6387 89.0647 43.7539 89.0647ZM46.8194 69.7634L54.8394 69.7634C59.7456 69.7634 62.7525 67.2063 62.7525 62.6858C62.7525 58.1165 59.6597 55.3572 54.9253 55.3572L46.8194 55.3572Z" fill="#000000" fill-opacity="0.85"/>
 </g>
</svg>
