<?xml version="1.0" encoding="UTF-8"?>
<!--Generator: Apple Native CoreSVG 232.5-->
<!DOCTYPE svg
PUBLIC "-//W3C//DTD SVG 1.1//EN"
       "http://www.w3.org/Graphics/SVG/1.1/DTD/svg11.dtd">
<svg version="1.1" xmlns="http://www.w3.org/2000/svg" xmlns:xlink="http://www.w3.org/1999/xlink" width="88.4092" height="88.5371">
 <g>
  <rect height="88.5371" opacity="0" width="88.4092" x="0" y="0"/>
  <path d="M14.3936 88.5371L74.0005 88.5371C83.5733 88.5371 88.4092 83.6558 88.4092 74.2632L88.4092 14.4019C88.4092 5.00928 83.5733 0.127929 74.0005 0.127929L14.3936 0.127929C4.86963 0.127929 0 4.93018 0 14.4019L0 74.2632C0 83.7349 4.86963 88.5371 14.3936 88.5371ZM14.5064 82.4922C9.00294 82.4922 6.04494 79.6016 6.04494 73.9634L6.04494 14.7017C6.04494 9.06349 9.00294 6.17287 14.5064 6.17287L73.9028 6.17287C79.2969 6.17287 82.3643 9.06349 82.3643 14.7017L82.3643 73.9634C82.3643 79.6016 79.2969 82.4922 73.9028 82.4922Z" fill="#000000" fill-opacity="0.85"/>
  <path d="M31.835 66.4409C33.8325 66.4409 34.897 65.1592 34.897 63.1245L34.897 49.3013L45.0386 49.3013L54.0308 64.398C54.9453 65.9087 55.7285 66.4409 57.0894 66.4409C58.7197 66.4409 59.8364 65.3916 59.8364 63.8623C59.8364 63.0151 59.5889 62.4004 59.0786 61.5449L51.0278 48.4658C56.8921 46.834 60.6787 41.8433 60.6787 35.6826C60.6787 27.3779 54.7315 21.9629 45.5762 21.9629L31.771 21.9629C29.8711 21.9629 28.8555 23.312 28.8555 25.3584L28.8555 63.1245C28.8555 65.0918 29.9351 66.4409 31.835 66.4409ZM34.897 44.6782L34.897 26.7544L44.978 26.7544C50.7598 26.7544 54.6895 30.167 54.6895 35.8023C54.6895 41.3364 50.8272 44.6782 44.8433 44.6782Z" fill="#000000" fill-opacity="0.85"/>
 </g>
</svg>
