<?xml version="1.0" encoding="UTF-8"?>
<!--Generator: Apple Native CoreSVG 232.5-->
<!DOCTYPE svg
PUBLIC "-//W3C//DTD SVG 1.1//EN"
       "http://www.w3.org/Graphics/SVG/1.1/DTD/svg11.dtd">
<svg version="1.1" xmlns="http://www.w3.org/2000/svg" xmlns:xlink="http://www.w3.org/1999/xlink" width="88.4092" height="88.5371">
 <g>
  <rect height="88.5371" opacity="0" width="88.4092" x="0" y="0"/>
  <path d="M88.4092 14.4019L88.4092 74.2632C88.4092 83.6558 83.5733 88.5371 74.0005 88.5371L14.3936 88.5371C4.86963 88.5371 0 83.7349 0 74.2632L0 14.4019C0 4.93018 4.86963 0.127929 14.3936 0.127929L74.0005 0.127929C83.5733 0.127929 88.4092 5.00928 88.4092 14.4019ZM31.4678 21.4878C29.5493 21.4878 28.5 22.9043 28.5 25.0029L28.5 63.48C28.5 65.4995 29.6133 66.916 31.5469 66.916C33.5967 66.916 34.71 65.5669 34.71 63.48L34.71 49.4209L45.0386 49.4209L54.1841 64.8057C55.1475 66.3501 55.9307 66.916 57.3589 66.916C59.0078 66.916 60.1582 65.833 60.1582 64.2515C60.1582 63.3555 59.9107 62.7559 59.4004 61.8667L51.1812 48.5669C57.1802 46.9014 61.0342 41.8096 61.0342 35.5142C61.0342 27.0225 54.9522 21.4878 45.6099 21.4878ZM54.8916 35.6489C54.8916 41.269 50.9282 44.6782 44.8433 44.6782L34.71 44.6782L34.71 26.4175L44.978 26.4175C50.8608 26.4175 54.8916 29.9126 54.8916 35.6489Z" fill="#000000" fill-opacity="0.85"/>
 </g>
</svg>
