<?xml version="1.0" encoding="UTF-8"?>
<!--Generator: Apple Native CoreSVG 232.5-->
<!DOCTYPE svg
PUBLIC "-//W3C//DTD SVG 1.1//EN"
       "http://www.w3.org/Graphics/SVG/1.1/DTD/svg11.dtd">
<svg version="1.1" xmlns="http://www.w3.org/2000/svg" xmlns:xlink="http://www.w3.org/1999/xlink" width="109.998" height="83.086">
 <g>
  <rect height="83.086" opacity="0" width="109.998" x="0" y="0"/>
  <path d="M38.999 83.0371L70.9985 83.0371C98.335 83.0371 109.998 70.3179 109.998 44.8838L109.998 13.8565C109.998 4.76856 105.192 0 96.0064 0L13.9912 0C4.79053 0 0 4.72315 0 13.8565L0 44.8838C0 70.3179 11.6475 83.0371 38.999 83.0371ZM39.0293 76.9922C15.6797 76.9922 6.04494 66.5737 6.04494 45.1602L6.04494 14.1899C6.04494 8.80763 8.81105 6.04494 14.1563 6.04494L95.8413 6.04494C101.028 6.04494 103.953 8.80763 103.953 14.1899L103.953 45.1602C103.953 66.5737 94.3027 76.9922 70.9194 76.9922Z" fill="#000000" fill-opacity="0.85"/>
  <path d="M36.1426 61.8262C37.9009 61.8262 38.9956 60.6489 38.9956 58.8232L38.9956 45.4946L44.5996 45.4946L50.4077 59.5288C50.9214 60.9907 51.8174 61.8262 53.3467 61.8262C54.7007 61.8262 56.0498 60.9707 56.0498 59.0708C56.0498 58.5908 55.8325 57.8413 55.4805 57.021L50.0396 44.272C54.0098 42.4785 56.0786 38.5064 56.0786 33.5938C56.0786 26.0737 51.6602 21.75 44.2886 21.75L36.0938 21.75C34.2681 21.75 33.2559 22.8784 33.2559 24.7041L33.2559 58.8232C33.2559 60.6152 34.332 61.8262 36.1426 61.8262ZM38.9956 41.1631L38.9956 26.3848L43.7261 26.3848C47.8794 26.3848 50.3052 29.2134 50.3052 33.71C50.3052 38.0098 48.2749 41.1631 43.7564 41.1631ZM72.4668 61.8159C74.0113 61.8159 75.3047 60.5073 75.3047 58.9141L75.3047 24.4346C75.3047 22.4556 74.0298 21.2481 72.0659 21.2481C70.4087 21.2481 69.0816 22.1441 68.1216 22.8867L62.2393 27.6309C61.5269 28.1597 61.0098 28.8755 61.0098 29.9214C61.0098 31.1475 61.8384 32.0215 63.061 32.0215C63.7061 32.0215 64.0884 31.8413 64.501 31.5264L69.5986 27.3985L69.5986 58.9141C69.5986 60.5073 70.8921 61.8159 72.4668 61.8159Z" fill="#000000" fill-opacity="0.85"/>
 </g>
</svg>
