<?xml version="1.0" encoding="UTF-8"?>
<!--Generator: Apple Native CoreSVG 232.5-->
<!DOCTYPE svg
PUBLIC "-//W3C//DTD SVG 1.1//EN"
       "http://www.w3.org/Graphics/SVG/1.1/DTD/svg11.dtd">
<svg version="1.1" xmlns="http://www.w3.org/2000/svg" xmlns:xlink="http://www.w3.org/1999/xlink" width="97.9595" height="97.9932">
 <g>
  <rect height="97.9932" opacity="0" width="97.9595" x="0" y="0"/>
  <path d="M48.9722 97.9443C75.8247 97.9443 97.9595 75.7759 97.9595 48.9722C97.9595 22.1348 75.791 0 48.9385 0C22.1348 0 0 22.1348 0 48.9722C0 75.7759 22.1685 97.9443 48.9722 97.9443ZM48.9722 91.6113C25.3501 91.6113 6.36671 72.5942 6.36671 48.9722C6.36671 25.3501 25.3164 6.31789 48.9385 6.31789C72.5605 6.31789 91.6265 25.3501 91.6265 48.9722C91.6265 72.5942 72.5942 91.6113 48.9722 91.6113Z" fill="#000000" fill-opacity="0.85"/>
  <path d="M30.0654 69.2158C31.8237 69.2158 32.9185 68.0723 32.9185 66.2617L32.9185 52.9331L38.5562 52.9331L44.3306 66.9673C44.8442 68.4292 45.7402 69.2158 47.2695 69.2158C48.6235 69.2158 49.9727 68.3941 49.9727 66.4605C49.9727 66.0293 49.7554 65.2798 49.4033 64.4443L43.9624 51.7105C47.9326 49.917 50.0015 45.896 50.0015 41.0322C50.0015 33.5122 45.6167 29.1733 38.2114 29.1733L30.0166 29.1733C28.1909 29.1733 27.1787 30.3018 27.1787 32.1426L27.1787 66.2617C27.1787 68.0386 28.2549 69.2158 30.0654 69.2158ZM32.9185 48.6016L32.9185 33.8081L37.6489 33.8081C41.8022 33.8081 44.228 36.6367 44.228 41.1484C44.228 45.4146 42.1978 48.6016 37.6792 48.6016ZM66.3745 69.2056C67.9341 69.2056 69.2276 67.9121 69.2276 66.3525L69.2276 31.8242C69.2276 29.8941 67.9527 28.6865 65.9888 28.6865C64.3316 28.6865 63.0044 29.5825 62.0781 30.3252L56.1621 35.0356C55.4497 35.5981 54.9326 36.314 54.9326 37.3262C54.9326 38.5523 55.7612 39.4448 56.9839 39.4448C57.6289 39.4448 58.0112 39.2461 58.4238 38.9649L63.5215 34.8369L63.5215 66.3525C63.5215 67.9121 64.815 69.2056 66.3745 69.2056Z" fill="#000000" fill-opacity="0.85"/>
 </g>
</svg>
