<?xml version="1.0" encoding="UTF-8"?>
<!--Generator: Apple Native CoreSVG 232.5-->
<!DOCTYPE svg
PUBLIC "-//W3C//DTD SVG 1.1//EN"
       "http://www.w3.org/Graphics/SVG/1.1/DTD/svg11.dtd">
<svg version="1.1" xmlns="http://www.w3.org/2000/svg" xmlns:xlink="http://www.w3.org/1999/xlink" width="97.9595" height="97.9932">
 <g>
  <rect height="97.9932" opacity="0" width="97.9595" x="0" y="0"/>
  <path d="M97.9595 48.9722C97.9595 75.7759 75.8247 97.9443 48.9722 97.9443C22.1685 97.9443 0 75.7759 0 48.9722C0 22.1348 22.1348 0 48.9385 0C75.791 0 97.9595 22.1348 97.9595 48.9722ZM30.6226 29.7759C28.812 29.7759 27.7998 30.8706 27.7998 32.6812L27.7998 65.6895C27.7998 67.4663 28.876 68.6284 30.6714 68.6284C32.3809 68.6284 33.4268 67.4849 33.4268 65.6895L33.4268 52.8203L38.8423 52.8203L44.4619 66.4287C44.9419 67.8418 45.8379 68.6284 47.3369 68.6284C48.6572 68.6284 49.9727 67.7881 49.9727 65.9219C49.9727 65.4907 49.7891 64.7412 49.3882 63.9546L44.1694 51.6465C47.978 49.9019 49.9863 46.0239 49.9863 41.2847C49.9863 33.9717 45.7109 29.7759 38.5127 29.7759ZM61.6489 30.8789L55.94 35.4985C55.2427 35.9785 54.7593 36.728 54.7593 37.6914C54.7593 38.9175 55.5879 39.7764 56.7954 39.7764C57.3916 39.7764 57.7739 39.5962 58.1528 39.2813L63.1108 35.3115L63.1108 65.7803C63.1108 67.3584 64.3706 68.6182 65.9151 68.6182C67.4258 68.6182 68.6704 67.3584 68.6704 65.7803L68.6704 32.3965C68.6704 30.4815 67.4444 29.2891 65.5293 29.2891C63.8872 29.2891 62.6089 30.1699 61.6489 30.8789ZM44.3745 41.4346C44.3745 45.5425 42.3896 48.6016 38.0479 48.6016L33.4268 48.6016L33.4268 34.3316L38.0327 34.3316C42.043 34.3316 44.3745 37.0474 44.3745 41.4346Z" fill="#000000" fill-opacity="0.85"/>
 </g>
</svg>
