<?xml version="1.0" encoding="UTF-8"?>
<!--Generator: Apple Native CoreSVG 232.5-->
<!DOCTYPE svg
PUBLIC "-//W3C//DTD SVG 1.1//EN"
       "http://www.w3.org/Graphics/SVG/1.1/DTD/svg11.dtd">
<svg version="1.1" xmlns="http://www.w3.org/2000/svg" xmlns:xlink="http://www.w3.org/1999/xlink" width="109.998" height="83.086">
 <g>
  <rect height="83.086" opacity="0" width="109.998" x="0" y="0"/>
  <path d="M109.998 38.1533L109.998 69.147C109.998 78.2349 105.192 83.0371 96.0064 83.0371L13.9912 83.0371C4.79053 83.0371 0 78.2988 0 69.147L0 38.1533C0 12.7192 11.6475 0 38.999 0L70.9985 0C98.335 0 109.998 12.7192 109.998 38.1533ZM33.7886 21.9033C31.9815 21.9033 30.9844 22.9981 30.9844 24.8052L30.9844 58.7036C30.9844 60.4805 32.0269 61.6914 33.8374 61.6914C35.5806 61.6914 36.6753 60.5142 36.6753 58.7036L36.6753 45.4946L42.2607 45.4946L48.0015 59.4429C48.5825 60.9048 49.4448 61.6914 50.9253 61.6914C52.2944 61.6914 53.6436 60.8696 53.6436 58.9697C53.6436 58.5049 53.3926 57.7554 53.0591 56.9199L47.6182 44.272C51.5884 42.4785 53.6572 38.5064 53.6572 33.6611C53.6572 26.1748 49.2725 21.9033 41.9497 21.9033ZM59.4033 31.2544C59.4033 32.6372 60.2354 33.7739 61.7393 33.7739C63.0479 33.7739 63.8579 33.0986 64.2285 31.8691C65.0166 28.1318 66.5098 25.5933 69.7134 25.5933C73.2183 25.5933 74.9356 28.832 74.9356 32.4165C74.9356 36.1983 72.7344 39.8657 69.9497 43.5459L60.6734 55.832C59.9761 56.792 59.3545 57.688 59.3545 58.8872C59.3545 60.2598 60.2285 61.208 61.9566 61.208L78.7232 61.208C80.1328 61.208 81.0069 60.2481 81.0069 58.8569C81.0069 57.3799 80.0991 56.5547 78.7232 56.5547L66.2949 56.5547L66.2949 56.1909L74.2529 45.6694C78.7271 39.9209 80.1987 36.3716 80.1987 32.1504C80.1987 25.8042 76.2095 20.9922 69.7168 20.9922C63.7276 20.9922 59.4033 26.1646 59.4033 31.2544ZM47.8989 33.7774C47.8989 38.0098 45.8687 41.1631 41.4024 41.1631L36.6753 41.1631L36.6753 26.5044L41.3872 26.5044C45.5068 26.5044 47.8989 29.2656 47.8989 33.7774Z" fill="#000000" fill-opacity="0.85"/>
 </g>
</svg>
