<?xml version="1.0" encoding="UTF-8"?>
<!--Generator: Apple Native CoreSVG 232.5-->
<!DOCTYPE svg
PUBLIC "-//W3C//DTD SVG 1.1//EN"
       "http://www.w3.org/Graphics/SVG/1.1/DTD/svg11.dtd">
<svg version="1.1" xmlns="http://www.w3.org/2000/svg" xmlns:xlink="http://www.w3.org/1999/xlink" width="84.9883" height="104.145">
 <g>
  <rect height="104.145" opacity="0" width="84.9883" x="0" y="0"/>
  <path d="M56.7949 104.141C73.9712 104.141 84.9883 93.1577 84.9883 75.9814L84.9883 50.8042C84.9883 44.3569 83.0249 39.2432 79.0864 35.6162L48.2608 7.24707C42.4028 1.88086 36.2485 0 28.7979 0L13.7554 0C5.34473 0 0 5.3667 0 13.8565L0 90.3857C0 99.0508 5.11231 104.141 13.8565 104.141ZM56.6484 98.0962L14.0215 98.0962C8.5464 98.0962 6.04494 95.8237 6.04494 90.2393L6.04494 13.9541C6.04494 9.08888 8.96095 6.0298 13.9356 6.0298L28.6328 6.0298C34.8086 6.0298 39.585 7.57033 44.082 11.6919L74.8589 39.9483C77.6807 42.5259 78.9434 45.8677 78.9434 50.917L78.9434 75.835C78.9434 89.8852 70.665 98.0962 56.6484 98.0962Z" fill="#000000" fill-opacity="0.85"/>
  <path d="M20.794 81.2046C22.4024 81.2046 23.396 80.0947 23.396 78.4189L23.396 65.7188L28.8281 65.7188L34.3481 79.0908C34.8618 80.4517 35.6567 81.2046 37.085 81.2046C38.3716 81.2046 39.6011 80.3828 39.6011 78.6177C39.6011 78.2202 39.4175 77.4893 39.084 76.7363L33.8638 64.5635C37.647 62.8711 39.6484 59.0859 39.6484 54.4277C39.6484 47.3306 35.4658 43.2275 28.4834 43.2275L20.7114 43.2275C19.0054 43.2275 18.0606 44.2549 18.0606 45.9946L18.0606 78.4189C18.0606 80.061 19.0508 81.2046 20.794 81.2046ZM23.396 61.6416L23.396 47.5254L27.9546 47.5254C31.9209 47.5254 34.2456 50.2344 34.2456 54.544C34.2456 58.6231 32.3164 61.6416 27.9697 61.6416ZM47.5586 80.7212L63.5469 80.7212C64.8369 80.7212 65.6621 79.8286 65.6621 78.5386C65.6621 77.1626 64.8032 76.3559 63.5469 76.3559L51.6426 76.3559L51.6426 76.041L59.2451 65.8936C63.4834 60.3994 64.9028 57.0371 64.9028 53.0181C64.9028 46.9937 61.1343 42.3838 54.9297 42.3838C49.2285 42.3838 45.1401 47.3203 45.1401 52.2046C45.1401 53.4863 45.9048 54.5068 47.3413 54.5068C48.5825 54.5068 49.3252 53.9141 49.6621 52.7368C50.4317 49.1192 51.8423 46.7153 54.96 46.7153C58.2964 46.7153 59.9614 49.853 59.9614 53.2505C59.9614 56.8638 57.895 60.3442 55.23 63.8711L46.3428 75.7158C45.6641 76.5747 45.0762 77.4707 45.0762 78.5688C45.0762 79.8403 45.9316 80.7212 47.5586 80.7212Z" fill="#000000" fill-opacity="0.85"/>
 </g>
</svg>
