<?xml version="1.0" encoding="UTF-8"?>
<!--Generator: Apple Native CoreSVG 232.5-->
<!DOCTYPE svg
PUBLIC "-//W3C//DTD SVG 1.1//EN"
       "http://www.w3.org/Graphics/SVG/1.1/DTD/svg11.dtd">
<svg version="1.1" xmlns="http://www.w3.org/2000/svg" xmlns:xlink="http://www.w3.org/1999/xlink" width="84.9883" height="104.145">
 <g>
  <rect height="104.145" opacity="0" width="84.9883" x="0" y="0"/>
  <path d="M48.2608 7.24707L79.0864 35.6162C83.0249 39.2432 84.9883 44.3569 84.9883 50.8042L84.9883 75.9814C84.9883 93.1577 73.9712 104.141 56.7949 104.141L13.8565 104.141C5.11231 104.141 0 99.0508 0 90.3857L0 13.8565C0 5.3667 5.34473 0 13.7554 0L28.7979 0C36.2485 0 42.4028 1.88086 48.2608 7.24707ZM19.0352 41.8057C17.1758 41.8057 16.1299 42.9678 16.1299 44.8423L16.1299 79.605C16.1299 81.4155 17.2397 82.6602 19.1177 82.6602C20.8945 82.6602 22.023 81.4492 22.023 79.605L22.023 66.0557L27.7432 66.0557L33.6035 80.3442C34.1846 81.8398 35.0806 82.6602 36.6284 82.6602C38.0313 82.6602 39.4478 81.8047 39.4478 79.8374C39.4478 79.3726 39.1968 78.623 38.8296 77.7539L33.3027 64.7993C37.3589 62.957 39.4614 58.8501 39.4614 53.919C39.4614 46.2119 34.9907 41.8057 27.417 41.8057ZM45.3272 51.4263C45.3272 52.8765 46.208 53.9981 47.7793 53.9981C49.1065 53.9981 49.9502 53.3379 50.3545 52.0259C51.1577 48.1875 52.6695 45.6304 55.9741 45.6304C59.5313 45.6304 61.3159 48.9214 61.3159 52.6069C61.3159 56.5234 59.0288 60.292 56.1768 64.0732L46.6797 76.5986C45.9673 77.5923 45.2783 78.5557 45.2783 79.7886C45.2783 81.1611 46.2349 82.1431 47.9966 82.1431L65.2383 82.1431C66.6817 82.1431 67.5557 81.1831 67.5557 79.7734C67.5557 78.229 66.648 77.355 65.2383 77.355L52.4883 77.355L52.4883 77.0063L60.6485 66.2153C65.2085 60.3135 66.7476 56.648 66.7476 52.3408C66.7476 45.8262 62.6387 40.8945 55.9439 40.8945C49.7861 40.8945 45.3272 46.2017 45.3272 51.4263ZM33.501 54.0352C33.501 58.3687 31.4521 61.6079 26.8511 61.6079L22.023 61.6079L22.023 46.5752L26.8359 46.5752C31.0566 46.5752 33.501 49.4375 33.501 54.0352Z" fill="#000000" fill-opacity="0.85"/>
 </g>
</svg>
