<?xml version="1.0" encoding="UTF-8"?>
<!--Generator: Apple Native CoreSVG 232.5-->
<!DOCTYPE svg
PUBLIC "-//W3C//DTD SVG 1.1//EN"
       "http://www.w3.org/Graphics/SVG/1.1/DTD/svg11.dtd">
<svg version="1.1" xmlns="http://www.w3.org/2000/svg" xmlns:xlink="http://www.w3.org/1999/xlink" width="97.9595" height="97.9932">
 <g>
  <rect height="97.9932" opacity="0" width="97.9595" x="0" y="0"/>
  <path d="M97.9595 48.9722C97.9595 75.7759 75.8247 97.9443 48.9722 97.9443C22.1685 97.9443 0 75.7759 0 48.9722C0 22.1348 22.1348 0 48.9385 0C75.791 0 97.9595 22.1348 97.9595 48.9722ZM28.228 29.8096C26.4697 29.8096 25.4727 30.8892 25.4727 32.6812L25.4727 65.6895C25.4727 67.4663 26.5151 68.6284 28.2769 68.6284C30.0049 68.6284 31.0659 67.4849 31.0659 65.6895L31.0659 52.8203L36.4814 52.8203L42.0674 66.4287C42.6484 67.8418 43.4619 68.6284 44.9424 68.6284C46.2964 68.6284 47.5967 67.8066 47.5967 65.9219C47.5967 65.4907 47.3608 64.7749 47.0273 63.9546L41.7749 51.6465C45.6358 49.9019 47.6592 46.0239 47.6592 41.3184C47.6592 33.9717 43.3687 29.8096 36.1856 29.8096ZM53.2168 38.9605C53.2168 40.3096 54.0488 41.3823 55.5527 41.3823C56.7974 41.3823 57.6074 40.7559 57.978 39.5264C58.7661 35.8648 60.1802 33.4693 63.3081 33.4693C66.7036 33.4693 68.3906 36.5835 68.3906 40.0737C68.3906 43.7612 66.2197 47.3496 63.5142 50.9204L54.4868 62.8818C53.7896 63.793 53.168 64.7227 53.168 65.8731C53.168 67.1968 54.042 68.145 55.7549 68.145L72.1143 68.145C73.4903 68.145 74.3491 67.1851 74.3491 65.8579C74.3491 64.4146 73.4566 63.5557 72.1143 63.5557L60.0293 63.5557L60.0293 63.2407L67.7534 52.98C72.0996 47.3897 73.5562 43.9194 73.5562 39.8076C73.5562 33.6196 69.646 28.9473 63.293 28.9473C57.4468 28.9473 53.2168 33.98 53.2168 38.9605ZM41.98 41.4346C41.98 45.5425 40.0288 48.6016 35.6533 48.6016L31.0659 48.6016L31.0659 34.3316L35.6382 34.3316C39.6333 34.3316 41.98 37.0474 41.98 41.4346Z" fill="#000000" fill-opacity="0.85"/>
 </g>
</svg>
