<?xml version="1.0" encoding="UTF-8"?>
<!--Generator: Apple Native CoreSVG 232.5-->
<!DOCTYPE svg
PUBLIC "-//W3C//DTD SVG 1.1//EN"
       "http://www.w3.org/Graphics/SVG/1.1/DTD/svg11.dtd">
<svg version="1.1" xmlns="http://www.w3.org/2000/svg" xmlns:xlink="http://www.w3.org/1999/xlink" width="97.9595" height="97.9932">
 <g>
  <rect height="97.9932" opacity="0" width="97.9595" x="0" y="0"/>
  <path d="M48.9722 97.9443C75.8247 97.9443 97.9595 75.7759 97.9595 48.9722C97.9595 22.1348 75.791 0 48.9385 0C22.1348 0 0 22.1348 0 48.9722C0 75.7759 22.1685 97.9443 48.9722 97.9443ZM48.9722 91.6113C25.3501 91.6113 6.36671 72.5942 6.36671 48.9722C6.36671 25.3501 25.3164 6.31789 48.9385 6.31789C72.5605 6.31789 91.6265 25.3501 91.6265 48.9722C91.6265 72.5942 72.5942 91.6113 48.9722 91.6113Z" fill="#000000" fill-opacity="0.85"/>
  <path d="M27.6255 69.2158C29.3838 69.2158 30.4785 68.0723 30.4785 66.2617L30.4785 52.9331L36.0825 52.9331L41.8906 66.9673C42.438 68.4292 43.3003 69.2158 44.8296 69.2158C46.1836 69.2158 47.5327 68.3941 47.5327 66.4605C47.5327 66.0293 47.2817 65.2798 46.9634 64.4443L41.5225 51.7105C45.4927 49.917 47.5615 45.896 47.5615 41.0322C47.5615 33.5122 43.1431 29.1733 35.7378 29.1733L27.5767 29.1733C25.751 29.1733 24.7388 30.3018 24.7388 32.1426L24.7388 66.2617C24.7388 68.0386 25.7812 69.2158 27.6255 69.2158ZM30.4785 48.6016L30.4785 33.8081L35.209 33.8081C39.3623 33.8081 41.7881 36.6367 41.7881 41.1484C41.7881 45.4146 39.7578 48.6016 35.2393 48.6016ZM55.9282 68.6987L72.7808 68.6987C74.2056 68.6987 75.0645 67.7725 75.0645 66.3965C75.0645 64.9194 74.1719 64.0454 72.7808 64.0454L60.3003 64.0454L60.3003 63.7305L68.2769 53.1079C72.751 47.3257 74.2715 43.7275 74.2715 39.5215C74.2715 33.1416 70.2334 28.2959 63.7222 28.2959C57.6841 28.2959 53.3262 33.502 53.3262 38.6255C53.3262 40.0083 54.1582 41.1113 55.7109 41.1113C57.0044 41.1113 57.8145 40.4697 58.2002 39.1914C58.9883 35.4356 60.4663 32.9307 63.7036 32.9307C67.2422 32.9307 68.9595 36.1694 68.9595 39.7876C68.9595 43.5879 66.7583 47.2705 63.9736 50.9844L54.6299 63.3227C53.9326 64.2827 53.2773 65.2461 53.2773 66.4116C53.2773 67.7842 54.2002 68.6987 55.9282 68.6987Z" fill="#000000" fill-opacity="0.85"/>
 </g>
</svg>
