<?xml version="1.0" encoding="UTF-8"?>
<!--Generator: Apple Native CoreSVG 232.5-->
<!DOCTYPE svg
PUBLIC "-//W3C//DTD SVG 1.1//EN"
       "http://www.w3.org/Graphics/SVG/1.1/DTD/svg11.dtd">
<svg version="1.1" xmlns="http://www.w3.org/2000/svg" xmlns:xlink="http://www.w3.org/1999/xlink" width="123.779" height="85.5718">
 <g>
  <rect height="85.5718" opacity="0" width="123.779" x="0" y="0"/>
  <path d="M0 48.3884C0 58.4592 1.45166 62.7752 8.94288 66.6277L36.4785 80.7087C46.2983 85.7669 53.0254 87.0247 64.0205 83.7952L106.139 71.4753C118.707 67.7693 123.779 60.5657 123.779 48.3884L123.779 18.1165C123.779 9.68725 118.464 4.21117 110.008 4.21117L13.8228 4.17748C5.3667 4.17748 0 9.60473 0 18.0002ZM6.04494 48.3884L6.04494 18.1467C6.04494 13.1873 9.05519 10.2224 13.9692 10.2224L109.911 10.2561C114.742 10.2561 117.734 13.2698 117.734 18.2629L117.734 48.3884C117.734 57.7898 114.178 62.9304 104.393 65.7976L63.7481 77.8293C53.7129 80.8113 48.2437 79.9021 39.709 75.5784L12.6973 61.8191C7.12453 59.0007 6.04494 56.1145 6.04494 48.3884Z" fill="#000000" fill-opacity="0.85"/>
  <path d="M38.5649 60.2942C40.3081 60.2942 41.3692 59.1169 41.3692 57.3401L41.3692 44.0115L47.022 44.0115L52.8149 58.0456C53.3774 59.4924 54.2246 60.2942 55.7539 60.2942C57.1079 60.2942 58.4385 59.4387 58.4385 57.5388C58.4385 57.0925 58.2212 56.343 57.8877 55.5227L52.4468 42.7888C56.3833 40.9802 58.4859 36.9744 58.4859 32.1106C58.4859 24.5754 54.0674 20.2517 46.6621 20.2517L38.5161 20.2517C36.6753 20.2517 35.6294 21.3801 35.6294 23.2058L35.6294 57.3401C35.6294 59.0832 36.7207 60.2942 38.5649 60.2942ZM41.3692 39.6648L41.3692 24.8865L46.1484 24.8865C50.3018 24.8865 52.7275 27.7151 52.7275 32.2268C52.7275 36.4778 50.6973 39.6648 46.1636 39.6648ZM75.7695 60.5652C82.4038 60.5652 87.4756 56.1404 87.4756 48.9373C87.4756 43.1853 84.1919 39.8132 79.7573 39.3738L79.7573 39.2424C84.2007 38.0857 86.3189 34.0701 86.3189 29.9534C86.3189 23.5178 81.71 19.5393 75.5742 19.5393C70.6206 19.5393 66.7441 22.3865 65.3584 26.717C65.0654 27.6902 64.9678 28.5691 64.9678 29.2932C64.9678 30.6321 65.8301 31.6594 67.3897 31.6594C68.8076 31.6594 69.5117 31.0398 69.8755 29.6033C70.5962 26.45 72.3706 24.1589 75.5742 24.1589C79.1602 24.1589 80.9951 26.9822 80.9951 30.5681C80.9951 34.4504 78.7056 37.3713 74.7559 37.3713L73.2207 37.3713C71.833 37.3713 71.0498 38.2605 71.0498 39.49C71.0498 40.8323 71.9273 41.6238 73.2207 41.6238L74.8198 41.6238C79.3184 41.6238 81.8857 44.1155 81.8857 48.8479C81.8857 52.6257 79.916 55.9455 75.7847 55.9455C71.8418 55.9455 69.9312 53.1291 69.3755 50.4895C69.0083 49.1389 68.2251 48.4148 66.8745 48.4148C65.3301 48.4148 64.3179 49.3562 64.3179 50.9158C64.3179 51.7039 64.4795 52.6736 64.7236 53.4397C66.1094 57.8748 70.5718 60.5652 75.7695 60.5652Z" fill="#000000" fill-opacity="0.85"/>
 </g>
</svg>
