<?xml version="1.0" encoding="UTF-8"?>
<!--Generator: Apple Native CoreSVG 232.5-->
<!DOCTYPE svg
PUBLIC "-//W3C//DTD SVG 1.1//EN"
       "http://www.w3.org/Graphics/SVG/1.1/DTD/svg11.dtd">
<svg version="1.1" xmlns="http://www.w3.org/2000/svg" xmlns:xlink="http://www.w3.org/1999/xlink" width="112.488" height="85.625">
 <g>
  <rect height="85.625" opacity="0" width="112.488" x="0" y="0"/>
  <path d="M36.4937 85.5274L75.979 85.5274C103.315 85.5274 112.488 75.332 112.488 50.2534L112.488 35.3076C112.488 10.229 103.315 0 75.979 0L36.4937 0C9.15723 0 0 10.229 0 35.3076L0 50.2534C0 75.332 9.15723 85.5274 36.4937 85.5274ZM36.4937 79.4976C13.1895 79.4976 6.04494 71.603 6.04494 50.2534L6.04494 35.3076C6.04494 13.9732 13.1895 6.04494 36.4937 6.04494L75.979 6.04494C99.2832 6.04494 106.443 13.9732 106.443 35.3076L106.443 50.2534C106.443 71.603 99.2832 79.4976 75.979 79.4976Z" fill="#000000" fill-opacity="0.85"/>
  <path d="M33.332 63.0317C35.0752 63.0317 36.1362 61.8882 36.1362 60.0776L36.1362 46.749L41.7891 46.749L47.582 60.7832C48.1445 62.2451 49.0068 63.0317 50.521 63.0317C51.8901 63.0317 53.2056 62.21 53.2056 60.2764C53.2056 59.8452 52.9883 59.0957 52.6211 58.2603L47.229 45.5264C51.1504 43.7329 53.2529 39.7119 53.2529 34.8482C53.2529 27.3281 48.8345 22.9893 41.4443 22.9893L33.2832 22.9893C31.4424 22.9893 30.4116 24.1177 30.4116 25.9585L30.4116 60.0776C30.4116 61.8545 31.4878 63.0317 33.332 63.0317ZM36.1362 42.4175L36.1362 27.624L40.9155 27.624C45.0689 27.624 47.4946 30.4527 47.4946 34.9644C47.4946 39.2305 45.4644 42.4175 40.9307 42.4175ZM76.1353 63.0889C77.5786 63.0889 78.7896 62.0869 78.7896 60.2881L78.7896 54.1943L81.0435 54.1943C82.5694 54.1943 83.3272 53.2158 83.3272 51.8433C83.3272 50.5532 82.5576 49.5747 81.0435 49.5747L78.7896 49.5747L78.7896 26.6861C78.7896 23.8467 76.9404 22.4116 74.4746 22.4116C71.7227 22.4116 70.4292 23.8818 69.2891 26.334L59.3379 47.1108C58.6592 48.6367 58.4302 49.6943 58.4302 50.9204C58.4302 52.8555 59.7539 54.1943 61.7832 54.1943L73.3833 54.1943L73.3833 60.2881C73.3833 62.3008 74.7998 63.0889 76.1353 63.0889ZM73.4844 49.6758L63.3311 49.6758L63.3311 49.4097L73.3228 27.6861L73.4844 27.6861Z" fill="#000000" fill-opacity="0.85"/>
 </g>
</svg>
