<?xml version="1.0" encoding="UTF-8"?>
<!--Generator: Apple Native CoreSVG 232.5-->
<!DOCTYPE svg
PUBLIC "-//W3C//DTD SVG 1.1//EN"
       "http://www.w3.org/Graphics/SVG/1.1/DTD/svg11.dtd">
<svg version="1.1" xmlns="http://www.w3.org/2000/svg" xmlns:xlink="http://www.w3.org/1999/xlink" width="141.756" height="73.5078">
 <g>
  <rect height="73.5078" opacity="0" width="141.756" x="0" y="0"/>
  <path d="M70.8535 0C31.5181 0 0 31.582 0 70.9175C0 72.3457 1.14356 73.4741 2.52295 73.4741C3.95118 73.4741 5.06446 72.3457 5.06446 70.9175C5.06446 34.5933 34.5259 5.0796 70.8535 5.0796C107.211 5.0796 136.676 34.5933 136.676 70.9175C136.676 72.3457 137.805 73.4741 139.233 73.4741C140.627 73.4741 141.756 72.3457 141.756 70.9175C141.756 31.582 110.189 0 70.8535 0Z" fill="#000000" fill-opacity="0.85"/>
  <path d="M70.8535 10.7085C37.4565 10.7085 10.7085 37.5205 10.7085 70.9175C10.7085 72.3457 11.8032 73.4741 13.1826 73.4741C14.6108 73.4741 15.773 72.3457 15.773 70.9175C15.773 40.5317 40.4341 15.773 70.8535 15.773C101.288 15.773 126.017 40.5317 126.017 70.9175C126.017 72.3457 127.096 73.4741 128.524 73.4741C129.919 73.4741 131.081 72.3457 131.081 70.9175C131.081 37.5205 104.299 10.7085 70.8535 10.7085Z" fill="#000000" fill-opacity="0.85"/>
  <path d="M70.8535 21.3984C43.3647 21.3984 21.4473 43.4287 21.4473 70.9175C21.4473 72.3457 22.542 73.4741 23.9365 73.4741C25.3648 73.4741 26.5117 72.3457 26.5117 70.9175C26.5117 46.4399 46.3423 26.4629 70.8535 26.4629C95.3984 26.4629 115.263 46.4399 115.263 70.9175C115.263 72.3457 116.357 73.4741 117.786 73.4741C119.18 73.4741 120.342 72.3457 120.342 70.9175C120.342 43.4287 98.3423 21.3984 70.8535 21.3984Z" fill="#000000" fill-opacity="0.85"/>
  <path d="M70.8535 32.1221C49.2544 32.1221 32.1221 49.2881 32.1221 70.9175C32.1221 72.3457 33.2505 73.4741 34.6299 73.4741C36.0581 73.4741 37.1865 72.3457 37.1865 70.9175C37.1865 52.3145 52.2959 37.1865 70.8535 37.1865C89.4111 37.1865 104.569 52.3145 104.569 70.9175C104.569 72.3457 105.649 73.4741 107.111 73.4741C108.505 73.4741 109.634 72.3457 109.634 70.9175C109.634 49.2881 92.4678 32.1221 70.8535 32.1221Z" fill="#000000" fill-opacity="0.85"/>
  <path d="M70.8535 42.8306C55.2114 42.8306 42.8457 55.2603 42.8457 70.9175C42.8457 72.3457 43.9404 73.4741 45.3535 73.4741C46.7817 73.4741 47.9102 72.3457 47.9102 70.9175C47.9102 58.2378 58.1553 47.895 70.8535 47.895C83.5518 47.895 93.8457 58.2378 93.8457 70.9175C93.8457 72.3457 94.959 73.4741 96.3872 73.4741C97.7817 73.4741 98.9102 72.3457 98.9102 70.9175C98.9102 55.2603 86.5293 42.8306 70.8535 42.8306Z" fill="#000000" fill-opacity="0.85"/>
 </g>
</svg>
