<?xml version="1.0" encoding="UTF-8"?>
<!--Generator: Apple Native CoreSVG 232.5-->
<!DOCTYPE svg
PUBLIC "-//W3C//DTD SVG 1.1//EN"
       "http://www.w3.org/Graphics/SVG/1.1/DTD/svg11.dtd">
<svg version="1.1" xmlns="http://www.w3.org/2000/svg" xmlns:xlink="http://www.w3.org/1999/xlink" width="109.998" height="83.086">
 <g>
  <rect height="83.086" opacity="0" width="109.998" x="0" y="0"/>
  <path d="M109.998 13.8565L109.998 44.8838C109.998 70.3179 98.335 83.0371 70.9985 83.0371L38.999 83.0371C11.6475 83.0371 0 70.3179 0 44.8838L0 13.8565C0 4.72315 4.79053 0 13.9912 0L96.0064 0C105.192 0 109.998 4.76856 109.998 13.8565ZM32.4634 21.8848C30.6714 21.8848 29.6592 22.9644 29.6592 24.8052L29.6592 58.7036C29.6592 60.4805 30.7168 61.6914 32.5274 61.6914C34.2705 61.6914 35.3652 60.5142 35.3652 58.7036L35.3652 45.4946L40.9507 45.4946L46.6763 59.4429C47.2725 60.9048 48.1196 61.6914 49.6152 61.6914C50.9692 61.6914 52.3184 60.8359 52.3184 58.936C52.3184 58.5049 52.0825 57.7217 51.749 56.8862L46.3081 44.272C50.2783 42.4785 52.3472 38.5064 52.3472 33.6275C52.3472 26.1748 47.9624 21.8848 40.6245 21.8848ZM61.9868 21.957C60.21 21.957 59.2315 23.2202 59.2315 24.9448L59.2315 58.2876C59.2315 60.0308 60.2285 61.2232 61.9868 61.2232L71.9566 61.2232C78.7505 61.2232 82.6113 56.773 82.6113 50.3242C82.6113 45.5274 79.9004 41.1665 75.2349 40.6665L75.2349 40.4526C78.8364 39.7725 81.3335 35.6406 81.3335 31.6773C81.3335 25.7183 77.4219 21.957 71.6939 21.957ZM76.9204 49.8745C76.9204 54.1895 74.6831 56.8057 70.4019 56.8057L64.791 56.8057L64.791 43.0108L70.146 43.0108C74.252 43.0108 76.9204 45.2935 76.9204 49.8745ZM46.5889 33.7437C46.5889 38.0098 44.5586 41.1294 40.0923 41.1294L35.3652 41.1294L35.3652 26.4707L40.062 26.4707C44.1968 26.4707 46.5889 29.2656 46.5889 33.7437ZM75.8296 32.4942C75.8296 36.4522 73.5483 39.0161 69.5903 39.0161L64.791 39.0161L64.791 26.4082L70.1611 26.4082C74.0957 26.4082 75.8296 28.9302 75.8296 32.4942Z" fill="#000000" fill-opacity="0.85"/>
 </g>
</svg>
