<?xml version="1.0" encoding="UTF-8"?>
<!--Generator: Apple Native CoreSVG 232.5-->
<!DOCTYPE svg
PUBLIC "-//W3C//DTD SVG 1.1//EN"
       "http://www.w3.org/Graphics/SVG/1.1/DTD/svg11.dtd">
<svg version="1.1" xmlns="http://www.w3.org/2000/svg" xmlns:xlink="http://www.w3.org/1999/xlink" width="109.998" height="83.086">
 <g>
  <rect height="83.086" opacity="0" width="109.998" x="0" y="0"/>
  <path d="M38.999 83.0371L70.9985 83.0371C98.335 83.0371 109.998 70.3179 109.998 44.8838L109.998 13.8565C109.998 4.76856 105.192 0 96.0064 0L13.9912 0C4.79053 0 0 4.72315 0 13.8565L0 44.8838C0 70.3179 11.6475 83.0371 38.999 83.0371ZM39.0293 76.9922C15.6797 76.9922 6.04494 66.5737 6.04494 45.1602L6.04494 14.1899C6.04494 8.80763 8.81105 6.04494 14.1563 6.04494L95.8413 6.04494C101.028 6.04494 103.953 8.80763 103.953 14.1899L103.953 45.1602C103.953 66.5737 94.3027 76.9922 70.9194 76.9922Z" fill="#000000" fill-opacity="0.85"/>
  <path d="M32.3926 61.8262C34.1358 61.8262 35.2305 60.6489 35.2305 58.8232L35.2305 45.4946L40.8496 45.4946L46.6426 59.5288C47.2051 60.9907 48.0674 61.8262 49.5815 61.8262C50.9507 61.8262 52.2998 60.9707 52.2998 59.0708C52.2998 58.5908 52.0488 57.8413 51.7153 57.021L46.2896 44.272C50.211 42.4785 52.3135 38.5064 52.3135 33.5938C52.3135 26.0737 47.895 21.75 40.5049 21.75L32.3438 21.75C30.5029 21.75 29.5059 22.8784 29.5059 24.7041L29.5059 58.8232C29.5059 60.6152 30.5483 61.8262 32.3926 61.8262ZM35.2305 41.1631L35.2305 26.3848L39.9761 26.3848C44.1294 26.3848 46.5552 29.2134 46.5552 33.71C46.5552 38.0098 44.5249 41.1631 39.9912 41.1631ZM62.0542 61.3579L72.0576 61.3579C78.8516 61.3579 82.7949 56.874 82.7949 50.3916C82.7949 45.561 80.0352 41.2002 75.3511 40.6665L75.3511 40.4526C78.9863 39.7725 81.4834 35.6069 81.4834 31.6436C81.4834 25.6323 77.5567 21.856 71.8101 21.856L62.0542 21.856C60.2437 21.856 59.2651 23.1343 59.2651 24.8101L59.2651 58.3735C59.2651 60.1655 60.2774 61.3579 62.0542 61.3579ZM64.8247 38.9824L64.8247 26.3223L70.2437 26.3223C74.1968 26.3223 75.9644 28.8628 75.9644 32.4605C75.9644 36.4522 73.6831 38.9824 69.6914 38.9824ZM64.8247 56.8916L64.8247 43.0108L70.2134 43.0108C74.353 43.0108 77.0552 45.3272 77.0552 49.9419C77.0552 54.2905 74.7842 56.8916 70.4693 56.8916Z" fill="#000000" fill-opacity="0.85"/>
 </g>
</svg>
