<?xml version="1.0" encoding="UTF-8"?>
<!--Generator: Apple Native CoreSVG 232.5-->
<!DOCTYPE svg
PUBLIC "-//W3C//DTD SVG 1.1//EN"
       "http://www.w3.org/Graphics/SVG/1.1/DTD/svg11.dtd">
<svg version="1.1" xmlns="http://www.w3.org/2000/svg" xmlns:xlink="http://www.w3.org/1999/xlink" width="97.9595" height="97.9932">
 <g>
  <rect height="97.9932" opacity="0" width="97.9595" x="0" y="0"/>
  <path d="M48.9722 97.9443C75.8247 97.9443 97.9595 75.7759 97.9595 48.9722C97.9595 22.1348 75.791 0 48.9385 0C22.1348 0 0 22.1348 0 48.9722C0 75.7759 22.1685 97.9443 48.9722 97.9443ZM48.9722 91.6113C25.3501 91.6113 6.36671 72.5942 6.36671 48.9722C6.36671 25.3501 25.3164 6.31789 48.9385 6.31789C72.5605 6.31789 91.6265 25.3501 91.6265 48.9722C91.6265 72.5942 72.5942 91.6113 48.9722 91.6113Z" fill="#000000" fill-opacity="0.85"/>
  <path d="M26.3154 69.2158C28.0586 69.2158 29.1533 68.0723 29.1533 66.2617L29.1533 52.9331L34.7725 52.9331L40.5654 66.9673C41.1279 68.4292 41.9902 69.2158 43.5044 69.2158C44.8735 69.2158 46.2227 68.3941 46.2227 66.4605C46.2227 66.0293 45.9717 65.2798 45.6382 64.4443L40.2124 51.7105C44.1675 49.917 46.2363 45.896 46.2363 41.0322C46.2363 33.5122 41.8179 29.1733 34.4277 29.1733L26.2666 29.1733C24.4258 29.1733 23.4287 30.3018 23.4287 32.1426L23.4287 66.2617C23.4287 68.0386 24.5049 69.2158 26.3154 69.2158ZM29.1533 48.6016L29.1533 33.8081L33.8989 33.8081C38.0522 33.8081 40.478 36.6367 40.478 41.1484C40.478 45.4146 38.4478 48.6016 33.9141 48.6016ZM55.9771 68.7964L65.9805 68.7964C72.7744 68.7964 76.7178 64.2974 76.7178 57.7813C76.7178 52.9844 73.958 48.605 69.2739 48.105L69.2739 47.876C72.9092 47.1773 75.3911 43.0454 75.3911 39.0483C75.3911 33.0557 71.4795 29.2944 65.7329 29.2944L55.9771 29.2944C54.1665 29.2944 53.188 30.5239 53.188 32.2485L53.188 65.812C53.188 67.5889 54.2002 68.7964 55.9771 68.7964ZM58.7476 46.4209L58.7476 33.7608L64.1665 33.7608C68.1196 33.7608 69.8872 36.3013 69.8872 39.8989C69.8872 43.8906 67.606 46.4209 63.6143 46.4209ZM58.7476 64.3301L58.7476 50.4492L64.1362 50.4492C68.2759 50.4492 70.978 52.7168 70.978 57.3652C70.978 61.6802 68.7407 64.3301 64.3921 64.3301Z" fill="#000000" fill-opacity="0.85"/>
 </g>
</svg>
