<?xml version="1.0" encoding="UTF-8"?>
<!--Generator: Apple Native CoreSVG 232.5-->
<!DOCTYPE svg
PUBLIC "-//W3C//DTD SVG 1.1//EN"
       "http://www.w3.org/Graphics/SVG/1.1/DTD/svg11.dtd">
<svg version="1.1" xmlns="http://www.w3.org/2000/svg" xmlns:xlink="http://www.w3.org/1999/xlink" width="97.9595" height="97.9932">
 <g>
  <rect height="97.9932" opacity="0" width="97.9595" x="0" y="0"/>
  <path d="M48.9722 97.9443C75.8247 97.9443 97.9595 75.7759 97.9595 48.9722C97.9595 22.1348 75.791 0 48.9385 0C22.1348 0 0 22.1348 0 48.9722C0 75.7759 22.1685 97.9443 48.9722 97.9443ZM48.9722 91.6113C25.3501 91.6113 6.36671 72.5942 6.36671 48.9722C6.36671 25.3501 25.3164 6.31789 48.9385 6.31789C72.5605 6.31789 91.6265 25.3501 91.6265 48.9722C91.6265 72.5942 72.5942 91.6113 48.9722 91.6113Z" fill="#000000" fill-opacity="0.85"/>
  <path d="M18.0249 48.9722C18.0249 56.6973 24.2817 62.9727 32.0068 62.9727L65.919 62.9727C73.6441 62.9727 79.916 56.6973 79.916 48.9722C79.916 41.2319 73.6441 34.9414 65.919 34.9414C58.1787 34.9414 51.9336 41.2319 51.9336 48.9722C51.9336 52.6523 53.3897 56.0952 55.9736 58.5669L41.937 58.5669C44.5361 56.0952 46.0225 52.6523 46.0225 48.9722C46.0225 41.2319 39.7808 34.9414 32.0068 34.9414C24.2817 34.9414 18.0249 41.2319 18.0249 48.9722ZM22.4307 48.9385C22.4307 43.6655 26.7676 39.3623 32.0405 39.3623C37.2832 39.3623 41.5864 43.6655 41.5864 48.9385C41.5864 54.2637 37.3169 58.5518 32.0405 58.5518C26.749 58.5518 22.4307 54.23 22.4307 48.9385ZM56.3545 48.9385C56.3545 43.6655 60.6426 39.3623 65.8853 39.3623C71.1431 39.3623 75.5103 43.6655 75.5103 48.9385C75.5103 54.23 71.1768 58.5518 65.8853 58.5518C60.6089 58.5518 56.3545 54.2637 56.3545 48.9385Z" fill="#000000" fill-opacity="0.85"/>
 </g>
</svg>
