<?xml version="1.0" encoding="UTF-8"?>
<!--Generator: Apple Native CoreSVG 232.5-->
<!DOCTYPE svg
PUBLIC "-//W3C//DTD SVG 1.1//EN"
       "http://www.w3.org/Graphics/SVG/1.1/DTD/svg11.dtd">
<svg version="1.1" xmlns="http://www.w3.org/2000/svg" xmlns:xlink="http://www.w3.org/1999/xlink" width="90.8994" height="119.615">
 <g>
  <rect height="119.615" opacity="0" width="90.8994" x="0" y="0"/>
  <path d="M14.3936 90.176L76.4907 90.176C86.0635 90.176 90.8994 85.2946 90.8994 75.9021L90.8994 43.7731C90.8994 34.3806 86.0635 29.4992 76.4907 29.4992L14.3936 29.4992C4.83594 29.4992 0 34.3015 0 43.7731L0 75.9021C0 85.3737 4.83594 90.176 14.3936 90.176ZM14.5064 84.1311C9.00294 84.1311 6.04494 81.2067 6.04494 75.6023L6.04494 44.0729C6.04494 38.4348 9.00294 35.5441 14.5064 35.5441L76.3931 35.5441C81.7871 35.5441 84.8545 38.4348 84.8545 44.0729L84.8545 75.6023C84.8545 81.2067 81.7871 84.1311 76.3931 84.1311Z" fill="#000000" fill-opacity="0.85"/>
  <path d="M34.5308 22.7023L56.3687 22.7023C58.6235 22.7023 59.5718 20.8298 58.4131 18.9284L47.7232 1.48846C46.5864-0.375797 44.2827-0.439762 43.1309 1.48846L32.52 18.8796C31.3462 20.7658 32.2422 22.7023 34.5308 22.7023ZM34.5308 96.9729C32.2422 96.9729 31.3462 98.8757 32.52 100.777L43.1309 118.187C44.2827 120.115 46.5864 120.066 47.7232 118.187L58.4131 100.747C59.5718 98.8454 58.6235 96.9729 56.3687 96.9729Z" fill="#000000" fill-opacity="0.85"/>
 </g>
</svg>
