<?xml version="1.0" encoding="UTF-8"?>
<!--Generator: Apple Native CoreSVG 232.5-->
<!DOCTYPE svg
PUBLIC "-//W3C//DTD SVG 1.1//EN"
       "http://www.w3.org/Graphics/SVG/1.1/DTD/svg11.dtd">
<svg version="1.1" xmlns="http://www.w3.org/2000/svg" xmlns:xlink="http://www.w3.org/1999/xlink" width="128.427" height="104.094">
 <g>
  <rect height="104.094" opacity="0" width="128.427" x="0" y="0"/>
  <path d="M89.4942 14.4356L89.4942 40.2515L83.4644 40.2515L83.4644 14.5669C83.4644 9.06349 80.5737 6.07179 74.9204 6.07179L23.3652 6.07179C17.7271 6.07179 14.8028 9.06349 14.8028 14.5669L14.8028 89.5874C14.8028 95.0908 17.7271 98.0488 23.3652 98.0488L74.9204 98.0488C80.5737 98.0488 83.4644 95.0908 83.4644 89.5874L83.4644 63.7935L89.4942 63.7935L89.4942 89.7187C89.4942 99.2578 84.6919 104.094 75.2202 104.094L23.0318 104.094C13.5938 104.094 8.75782 99.2578 8.75782 89.7187L8.75782 14.4356C8.75782 4.93018 13.5938 0.0268549 23.0318 0.0268549L75.2202 0.0268549C84.6919 0.0268549 89.4942 4.93018 89.4942 14.4356Z" fill="#000000" fill-opacity="0.85"/>
  <path d="M51.5962 54.9868L104.165 54.9868L111.228 54.7695L106.781 59.1494L98.1441 67.4307C97.5445 67.9629 97.2144 68.7612 97.2144 69.477C97.2144 71.0283 98.3765 72.2241 99.8755 72.2241C100.692 72.2241 101.292 71.9243 101.873 71.3584L118.669 54.1885C119.388 53.4541 119.669 52.772 119.669 52.0225C119.669 51.2393 119.388 50.5757 118.669 49.8564L101.873 32.6714C101.292 32.1055 100.692 31.772 99.8755 31.772C98.3765 31.772 97.2144 32.9038 97.2144 34.4702C97.2144 35.2197 97.5445 36.0181 98.1441 36.5654L106.781 44.8652L111.292 49.2602L104.165 49.0093L51.5962 49.0093C50.0147 49.0093 48.6655 50.4072 48.6655 52.0225C48.6655 53.6377 50.0147 54.9868 51.5962 54.9868Z" fill="#000000" fill-opacity="0.85"/>
 </g>
</svg>
