<?xml version="1.0" encoding="UTF-8"?>
<!--Generator: Apple Native CoreSVG 232.5-->
<!DOCTYPE svg
PUBLIC "-//W3C//DTD SVG 1.1//EN"
       "http://www.w3.org/Graphics/SVG/1.1/DTD/svg11.dtd">
<svg version="1.1" xmlns="http://www.w3.org/2000/svg" xmlns:xlink="http://www.w3.org/1999/xlink" width="88.4092" height="66.7764">
 <g>
  <rect height="66.7764" opacity="0" width="88.4092" x="0" y="0"/>
  <path d="M0 14.4844L0 52.3828C0 61.9067 4.88135 66.7764 14.2739 66.7764L74.1353 66.7764C83.5278 66.7764 88.4092 61.9067 88.4092 52.3828L88.4092 14.4844C88.4092 4.97901 83.6069 0.075683 74.1353 0.075683L14.2739 0.075683C4.80225 0.075683 0 4.97901 0 14.4844ZM6.04494 14.6157C6.04494 9.11232 8.93556 6.12062 14.5737 6.12062L73.8355 6.12062C79.4736 6.12062 82.3643 9.11232 82.3643 14.6157L82.3643 52.2363C82.3643 57.6304 79.4736 60.7466 73.8355 60.7466L14.5737 60.7466C8.93556 60.7466 6.04494 57.6304 6.04494 52.2363Z" fill="#000000" fill-opacity="0.85"/>
 </g>
</svg>
