<?xml version="1.0" encoding="UTF-8"?>
<!--Generator: Apple Native CoreSVG 232.5-->
<!DOCTYPE svg
PUBLIC "-//W3C//DTD SVG 1.1//EN"
       "http://www.w3.org/Graphics/SVG/1.1/DTD/svg11.dtd">
<svg version="1.1" xmlns="http://www.w3.org/2000/svg" xmlns:xlink="http://www.w3.org/1999/xlink" width="114.35" height="88.5371">
 <g>
  <rect height="88.5371" opacity="0" width="114.35" x="0" y="0"/>
  <path d="M0 63.1035L0 57.0586L34.1416 57.0586L34.1416 31.6065L0 31.6065L0 25.5767L34.1416 25.5767L34.1416 0.127929L40.1714 0.127929L40.1714 25.5767L74.1968 25.5767L74.1968 0.127929L80.2417 0.127929L80.2417 25.5767L114.35 25.5767L114.35 31.6065L80.2417 31.6065L80.2417 57.0586L114.35 57.0586L114.35 63.1035L80.2417 63.1035L80.2417 88.5371L74.1968 88.5371L74.1968 63.1035L40.1714 63.1035L40.1714 88.5371L34.1416 88.5371L34.1416 63.1035ZM40.1714 57.0586L74.1968 57.0586L74.1968 31.6065L40.1714 31.6065ZM14.3936 88.458L99.9409 88.458C109.514 88.458 114.35 83.6104 114.35 74.2178L114.35 14.3228C114.35 4.93018 109.514 0.0488281 99.9409 0.0488281L14.3936 0.0488281C4.86963 0.0488281 0 4.88477 0 14.3228L0 74.2178C0 83.6558 4.86963 88.458 14.3936 88.458Z" fill="#000000" fill-opacity="0.85"/>
 </g>
</svg>
