<?xml version="1.0" encoding="UTF-8"?>
<!--Generator: Apple Native CoreSVG 232.5-->
<!DOCTYPE svg
PUBLIC "-//W3C//DTD SVG 1.1//EN"
       "http://www.w3.org/Graphics/SVG/1.1/DTD/svg11.dtd">
<svg version="1.1" xmlns="http://www.w3.org/2000/svg" xmlns:xlink="http://www.w3.org/1999/xlink" width="111.506" height="104.191">
 <g>
  <rect height="104.191" opacity="0" width="111.506" x="0" y="0"/>
  <path d="M14.2739 104.191L66.4624 104.191C75.9341 104.191 80.7363 99.3218 80.7363 89.7978L80.7363 55.6792L43.169 55.6792C41.232 55.6792 39.5947 54.042 39.5947 52.0713C39.5947 50.1006 41.232 48.4145 43.169 48.4145L80.7363 48.4145L80.7363 14.4995C80.7363 5.00928 75.9341 0.139648 66.4624 0.139648L14.2739 0.139648C4.80225 0.139648 0 5.00928 0 14.4995L0 89.7978C0 99.3218 4.80225 104.191 14.2739 104.191Z" fill="#000000" fill-opacity="0.85"/>
  <path d="M77.8057 52.0713C77.8057 53.6865 79.1211 55.0357 80.7026 55.0357L96.0166 55.0357L103.114 54.8184L98.6328 59.1982L90.0298 67.4795C89.4302 68.0117 89.1001 68.8101 89.1001 69.5259C89.1001 71.0772 90.2285 72.273 91.7613 72.273C92.5445 72.273 93.1441 71.9731 93.7437 71.4072L110.54 54.2373C111.274 53.5029 111.506 52.8208 111.506 52.0713C111.506 51.2881 111.274 50.6245 110.54 49.9053L93.7437 32.7202C93.1441 32.1543 92.5445 31.8208 91.7613 31.8208C90.2285 31.8208 89.1001 32.9526 89.1001 34.519C89.1001 35.2686 89.4302 36.0669 90.0298 36.6143L98.6328 44.9141L103.144 49.3091L96.0166 49.0581L80.7026 49.0581C79.1211 49.0581 77.8057 50.4561 77.8057 52.0713Z" fill="#000000" fill-opacity="0.85"/>
 </g>
</svg>
