<?xml version="1.0" encoding="UTF-8"?>
<!--Generator: Apple Native CoreSVG 232.5-->
<!DOCTYPE svg
PUBLIC "-//W3C//DTD SVG 1.1//EN"
       "http://www.w3.org/Graphics/SVG/1.1/DTD/svg11.dtd">
<svg version="1.1" xmlns="http://www.w3.org/2000/svg" xmlns:xlink="http://www.w3.org/1999/xlink" width="117.44" height="93.4502">
 <g>
  <rect height="93.4502" opacity="0" width="117.44" x="0" y="0"/>
  <path d="M42.8242 93.4502L74.6162 93.4502C84.0088 93.4502 88.8902 88.6143 88.8902 79.0415L88.8902 14.4692C88.8902 4.89649 84.0542 0.0605464 74.6162 0.0605464L42.8242 0.0605464C33.3525 0.0605464 28.5503 4.89649 28.5503 14.4692L28.5503 79.0415C28.5503 88.6143 33.4165 93.4502 42.8242 93.4502ZM43.124 87.4053C37.4707 87.4053 34.5801 84.3042 34.5801 78.9439L34.5801 14.5669C34.5801 9.06349 37.4707 6.10548 43.124 6.10548L74.2827 6.10548C79.9209 6.10548 82.8452 9.06349 82.8452 14.5669L82.8452 78.9439C82.8452 84.3042 79.9209 87.4053 74.2827 87.4053Z" fill="#000000" fill-opacity="0.85"/>
  <path d="M0 57.6499C0 59.9536 1.8877 60.8008 3.82276 59.6758L21.2476 49.0835C23.1084 47.8794 23.0781 45.6616 21.2476 44.5064L3.77393 33.8164C1.83887 32.6763 0 33.5908 0 35.8608ZM117.44 57.6499L117.44 35.8608C117.44 33.5908 115.534 32.6426 113.633 33.8164L96.1929 44.5064C94.3135 45.6279 94.2647 47.9131 96.1929 49.0835L113.618 59.6758C115.504 60.8345 117.44 59.9536 117.44 57.6499Z" fill="#000000" fill-opacity="0.85"/>
 </g>
</svg>
