<?xml version="1.0" encoding="UTF-8"?>
<!--Generator: Apple Native CoreSVG 232.5-->
<!DOCTYPE svg
PUBLIC "-//W3C//DTD SVG 1.1//EN"
       "http://www.w3.org/Graphics/SVG/1.1/DTD/svg11.dtd">
<svg version="1.1" xmlns="http://www.w3.org/2000/svg" xmlns:xlink="http://www.w3.org/1999/xlink" width="119.729" height="96.2735">
 <g>
  <rect height="96.2735" opacity="0" width="119.729" x="0" y="0"/>
  <path d="M96.5913 14.2857L96.5913 21.2871L90.5615 21.2871L90.5615 14.6191C90.5615 8.98097 87.4453 6.05665 82.0513 6.05665L14.5064 6.05665C9.00294 6.05665 6.04494 8.98097 6.04494 14.6191L6.04494 60.4243C6.04494 66.0625 9.00294 68.9531 14.5064 68.9531L23.1221 68.9531L23.1221 74.9829L14.3936 74.9829C4.83594 74.9829 0 70.1807 0 60.709L0 14.2857C0 4.84766 4.83594 0.0117183 14.3936 0.0117183L82.1978 0.0117183C91.7031 0.0117183 96.5913 4.89307 96.5913 14.2857Z" fill="#000000" fill-opacity="0.85"/>
  <path d="M37.5308 96.2735L105.32 96.2735C114.825 96.2735 119.729 91.3921 119.729 81.9995L119.729 35.5611C119.729 26.1685 114.825 21.2871 105.32 21.2871L37.5308 21.2871C27.958 21.2871 23.1221 26.1231 23.1221 35.5611L23.1221 81.9995C23.1221 91.4712 27.958 96.2735 37.5308 96.2735ZM37.6284 90.2285C32.125 90.2285 29.167 87.3379 29.167 81.6997L29.167 35.8945C29.167 30.2564 32.125 27.3321 37.6284 27.3321L105.188 27.3321C110.583 27.3321 113.684 30.2564 113.684 35.8945L113.684 81.6997C113.684 87.3379 110.583 90.2285 105.188 90.2285Z" fill="#000000" fill-opacity="0.85"/>
  <path d="M39.896 84.5718L103.003 84.5718C106.473 84.5718 108.042 82.9692 108.042 79.4658L108.042 38.1284C108.042 34.625 106.473 33.0225 103.003 33.0225L39.896 33.0225C36.4263 33.0225 34.8575 34.625 34.8575 38.1284L34.8575 79.4658C34.8575 82.9692 36.4263 84.5718 39.896 84.5718Z" fill="#000000" fill-opacity="0.85"/>
 </g>
</svg>
