<?xml version="1.0" encoding="UTF-8"?>
<!--Generator: Apple Native CoreSVG 232.5-->
<!DOCTYPE svg
PUBLIC "-//W3C//DTD SVG 1.1//EN"
       "http://www.w3.org/Graphics/SVG/1.1/DTD/svg11.dtd">
<svg version="1.1" xmlns="http://www.w3.org/2000/svg" xmlns:xlink="http://www.w3.org/1999/xlink" width="114.35" height="88.4395">
 <g>
  <rect height="88.4395" opacity="0" width="114.35" x="0" y="0"/>
  <path d="M26.4292 25.0806L47.0239 25.0806L47.0239 6.04494L26.4292 6.04494ZM67.3105 25.0806L87.8901 25.0806L87.8901 6.04494L67.3105 6.04494ZM6.04494 44.2441L26.4292 44.2441L26.4292 25.0806L6.04494 25.0806ZM47.0239 44.2441L67.3105 44.2441L67.3105 25.0806L47.0239 25.0806ZM87.8901 44.2441L108.338 44.2441L108.338 25.0806L87.8901 25.0806ZM26.4292 63.2647L47.0239 63.2647L47.0239 44.2441L26.4292 44.2441ZM67.3105 63.2647L87.8901 63.2647L87.8901 44.2441L67.3105 44.2441ZM6.04494 79.8711L8.87306 82.3794L26.4292 82.3794L26.4292 63.2647L6.04494 63.2647ZM47.0239 82.3794L67.3105 82.3794L67.3105 63.2647L47.0239 63.2647ZM87.8901 82.3794L105.19 82.3794L108.338 79.5278L108.338 63.2647L87.8901 63.2647ZM14.3936 88.4092L99.9409 88.4092C109.514 88.4092 114.35 83.5615 114.35 74.169L114.35 14.2739C114.35 4.88135 109.514 0 99.9409 0L14.3936 0C4.86963 0 0 4.83594 0 14.2739L0 74.169C0 83.6069 4.86963 88.4092 14.3936 88.4092ZM14.5064 82.3794C9.00294 82.3794 6.04494 79.4736 6.04494 73.8355L6.04494 14.6074C6.04494 8.96925 9.00294 6.04494 14.5064 6.04494L99.8433 6.04494C105.237 6.04494 108.305 8.96925 108.305 14.6074L108.305 73.8355C108.305 79.4736 105.237 82.3794 99.8433 82.3794Z" fill="#000000" fill-opacity="0.85"/>
 </g>
</svg>
