<?xml version="1.0" encoding="UTF-8"?>
<!--Generator: Apple Native CoreSVG 232.5-->
<!DOCTYPE svg
PUBLIC "-//W3C//DTD SVG 1.1//EN"
       "http://www.w3.org/Graphics/SVG/1.1/DTD/svg11.dtd">
<svg version="1.1" xmlns="http://www.w3.org/2000/svg" xmlns:xlink="http://www.w3.org/1999/xlink" width="127.161" height="109.739">
 <g>
  <rect height="109.739" opacity="0" width="127.161" x="0" y="0"/>
  <path d="M14.3936 46.815L49.1626 46.815C58.6865 46.815 63.5562 41.9336 63.5562 32.541L63.5562 14.2402C63.5562 4.84766 58.6865 0 49.1626 0L14.3936 0C4.86963 0 0 4.80225 0 14.2402L0 32.541C0 41.979 4.86963 46.815 14.3936 46.815ZM14.5064 40.77C9.00294 40.77 6.04494 37.8457 6.04494 32.2075L6.04494 14.5737C6.04494 8.93556 9.00294 6.04494 14.5064 6.04494L49.0498 6.04494C54.4439 6.04494 57.5264 8.93556 57.5264 14.5737L57.5264 32.2075C57.5264 37.8457 54.4439 40.77 49.0498 40.77ZM77.9649 109.675L112.752 109.675C122.258 109.675 127.161 104.809 127.161 95.4014L127.161 77.1494C127.161 67.7568 122.258 62.8755 112.752 62.8755L77.9649 62.8755C68.4595 62.8755 63.5562 67.6777 63.5562 77.1494L63.5562 95.4014C63.5562 104.873 68.4595 109.675 77.9649 109.675ZM78.0962 103.646C72.5928 103.646 69.6011 100.755 69.6011 95.1016L69.6011 77.4492C69.6011 71.8447 72.5928 68.9053 78.0962 68.9053L112.621 68.9053C118.015 68.9053 121.116 71.8447 121.116 77.4492L121.116 95.1016C121.116 100.755 118.015 103.646 112.621 103.646Z" fill="#000000" fill-opacity="0.85"/>
  <path d="M102.43 52.6094C103.838 54.5879 105.426 54.5542 106.834 52.6094L115.613 40.3618C117.282 38.085 116.561 35.6382 113.584 35.6382L106.805 35.6382L106.805 34.7188C106.805 20.2056 97.3057 10.6372 83.3863 10.6372L75.5171 10.6372C74.19 10.6372 73.0952 11.7656 73.0952 13.0928C73.0952 14.4199 74.19 15.5147 75.5171 15.5147L83.3072 15.5147C94.086 15.5147 102.216 22.7036 102.216 34.7524L102.216 35.6382L95.729 35.6382C92.8037 35.6382 92.0493 38.085 93.7334 40.3618ZM43.7261 99.0381L51.5801 99.0381C52.9072 99.0381 54.0357 97.9097 54.0357 96.5825C54.0357 95.2554 52.9072 94.1606 51.5801 94.1606L43.79 94.1606C33.0112 94.1606 24.8814 86.938 24.8814 74.9043L24.8814 74.0371L31.417 74.0371C34.2935 74.0371 35.0479 71.6055 33.3975 69.2798L24.667 57.0811C23.2593 55.1025 21.6714 55.1362 20.2637 57.0811L11.5332 69.2798C9.81544 71.6055 10.5698 74.0371 13.5137 74.0371L20.292 74.0371L20.292 74.938C20.292 89.4697 29.7915 99.0381 43.7261 99.0381Z" fill="#000000" fill-opacity="0.85"/>
 </g>
</svg>
