<?xml version="1.0" encoding="UTF-8"?>
<!--Generator: Apple Native CoreSVG 232.5-->
<!DOCTYPE svg
PUBLIC "-//W3C//DTD SVG 1.1//EN"
       "http://www.w3.org/Graphics/SVG/1.1/DTD/svg11.dtd">
<svg version="1.1" xmlns="http://www.w3.org/2000/svg" xmlns:xlink="http://www.w3.org/1999/xlink" width="103.136" height="88.5371">
 <g>
  <rect height="88.5371" opacity="0" width="103.136" x="0" y="0"/>
  <path d="M82.7022 88.5371L94.8237 88.5371C100.313 88.5371 103.136 85.8696 103.136 80.0903L103.136 56.959C103.136 51.2134 100.313 48.5122 94.8237 48.5122L82.7022 48.5122C77.1787 48.5122 74.3565 51.2134 74.3565 56.959L74.3565 80.0903C74.3565 85.8696 77.1787 88.5371 82.7022 88.5371Z" fill="#000000" fill-opacity="0.85"/>
  <path d="M45.5147 88.5371L57.6699 88.5371C63.1597 88.5371 65.9819 85.8696 65.9819 80.0903L65.9819 56.959C65.9819 51.2134 63.1597 48.5122 57.6699 48.5122L45.5147 48.5122C40.0249 48.5122 37.1875 51.2134 37.1875 56.959L37.1875 80.0903C37.1875 85.8696 40.0249 88.5371 45.5147 88.5371Z" fill="#000000" fill-opacity="0.85"/>
  <path d="M8.31202 88.5371L20.4673 88.5371C25.9722 88.5371 28.7944 85.8696 28.7944 80.0903L28.7944 56.959C28.7944 51.2134 25.9722 48.5122 20.4673 48.5122L8.31202 48.5122C2.82227 48.5122 0 51.2134 0 56.959L0 80.0903C0 85.8696 2.82227 88.5371 8.31202 88.5371Z" fill="#000000" fill-opacity="0.85"/>
  <path d="M82.7022 40.1528L94.8237 40.1528C100.313 40.1528 103.136 37.4517 103.136 31.6724L103.136 8.57472C103.136 2.79541 100.313 0.127929 94.8237 0.127929L82.7022 0.127929C77.1787 0.127929 74.3565 2.79541 74.3565 8.57472L74.3565 31.6724C74.3565 37.4517 77.1787 40.1528 82.7022 40.1528Z" fill="#000000" fill-opacity="0.85"/>
  <path d="M45.5147 40.1528L57.6699 40.1528C63.1597 40.1528 65.9819 37.4517 65.9819 31.6724L65.9819 8.57472C65.9819 2.79541 63.1597 0.127929 57.6699 0.127929L45.5147 0.127929C40.0249 0.127929 37.1875 2.79541 37.1875 8.57472L37.1875 31.6724C37.1875 37.4517 40.0249 40.1528 45.5147 40.1528Z" fill="#000000" fill-opacity="0.85"/>
  <path d="M8.31202 40.1528L20.4673 40.1528C25.9722 40.1528 28.7944 37.4517 28.7944 31.6724L28.7944 8.57472C28.7944 2.79541 25.9722 0.127929 20.4673 0.127929L8.31202 0.127929C2.82227 0.127929 0 2.79541 0 8.57472L0 31.6724C0 37.4517 2.82227 40.1528 8.31202 40.1528Z" fill="#000000" fill-opacity="0.85"/>
 </g>
</svg>
