<?xml version="1.0" encoding="UTF-8"?>
<!--Generator: Apple Native CoreSVG 232.5-->
<!DOCTYPE svg
PUBLIC "-//W3C//DTD SVG 1.1//EN"
       "http://www.w3.org/Graphics/SVG/1.1/DTD/svg11.dtd">
<svg version="1.1" xmlns="http://www.w3.org/2000/svg" xmlns:xlink="http://www.w3.org/1999/xlink" width="156.144" height="108.554">
 <g>
  <rect height="108.554" opacity="0" width="156.144" x="0" y="0"/>
  <path d="M100.742 38.8287L20.4569 38.8287C16.0106 38.8287 13.5189 41.3204 13.5189 45.7667L13.5189 85.6353C13.5189 90.0816 16.0106 92.5733 20.4569 92.5733L115.335 92.5733C119.796 92.5733 122.288 90.0816 122.288 85.6353L122.288 50.3588L128.252 44.3994C128.297 44.9162 128.318 45.4527 128.318 46.0059L128.318 85.3961C128.318 93.6861 123.652 98.2325 115.347 98.2325L20.4789 98.2325C12.1888 98.2325 7.474 93.6861 7.474 85.3961L7.474 46.0059C7.474 37.7159 12.1888 33.1695 20.4789 33.1695L106.402 33.1695Z" fill="#000000" fill-opacity="0.85"/>
  <path d="M89.1601 68.0567L98.4516 63.6319L140.531 21.6319L134.542 15.6319L92.4818 57.6319L87.8397 66.7364C87.4794 67.4908 88.3349 68.4507 89.1601 68.0567ZM143.871 18.2574L147.322 14.7886C149.08 13.0274 149.095 10.983 147.446 9.35307L146.607 8.5142C145.121 7.04252 142.952 7.17387 141.337 8.77348L137.887 12.1748Z" fill="#000000" fill-opacity="0.85"/>
  <path d="M72.8427 72.046C76.3671 72.046 79.2348 69.2086 79.2348 65.6539C79.2348 62.1446 76.3671 59.292 72.8427 59.292C69.3031 59.292 66.4506 62.1446 66.4506 65.6539C66.4506 69.2086 69.3031 72.046 72.8427 72.046Z" fill="#000000" fill-opacity="0.85"/>
  <path d="M52.6 72.046C56.1093 72.046 58.9618 69.2086 58.9618 65.6539C58.9618 62.1446 56.1093 59.292 52.6 59.292C49.0604 59.292 46.2079 62.1446 46.2079 65.6539C46.2079 69.2086 49.0604 72.046 52.6 72.046Z" fill="#000000" fill-opacity="0.85"/>
  <path d="M32.3422 72.046C35.8666 72.046 38.7191 69.2086 38.7191 65.6539C38.7191 62.1446 35.8666 59.292 32.3422 59.292C28.8026 59.292 25.9349 62.1446 25.9349 65.6539C25.9349 69.2086 28.8026 72.046 32.3422 72.046Z" fill="#000000" fill-opacity="0.85"/>
 </g>
</svg>
