<?xml version="1.0" encoding="UTF-8"?>
<!--Generator: Apple Native CoreSVG 232.5-->
<!DOCTYPE svg
PUBLIC "-//W3C//DTD SVG 1.1//EN"
       "http://www.w3.org/Graphics/SVG/1.1/DTD/svg11.dtd">
<svg version="1.1" xmlns="http://www.w3.org/2000/svg" xmlns:xlink="http://www.w3.org/1999/xlink" width="114.35" height="89.5508">
 <g>
  <rect height="89.5508" opacity="0" width="114.35" x="0" y="0"/>
  <path d="M14.3936 89.5508L99.9409 89.5508C109.514 89.5508 114.35 84.6694 114.35 75.2769L114.35 15.4155C114.35 6.02295 109.514 1.1416 99.9409 1.1416L14.3936 1.1416C4.86963 1.1416 0 5.94385 0 15.4155L0 75.2769C0 84.7485 4.86963 89.5508 14.3936 89.5508ZM14.5064 83.5059C9.00294 83.5059 6.04494 80.5815 6.04494 74.9771L6.04494 15.7153C6.04494 10.0772 9.00294 7.18654 14.5064 7.18654L99.8433 7.18654C105.237 7.18654 108.305 10.0772 108.305 15.7153L108.305 74.9771C108.305 80.5815 105.237 83.5059 99.8433 83.5059Z" fill="#000000" fill-opacity="0.85"/>
  <path d="M16.7251 44.751L52.1362 44.751C55.606 44.751 57.1748 43.1484 57.1748 39.645L57.1748 17.397C57.1748 13.8936 55.606 12.291 52.1362 12.291L16.7251 12.291C13.2891 12.291 11.7202 13.8936 11.7202 17.397L11.7202 39.645C11.7202 43.1484 13.2891 44.751 16.7251 44.751Z" fill="#000000" fill-opacity="0.85"/>
 </g>
</svg>
