<?xml version="1.0" encoding="UTF-8"?>
<!--Generator: Apple Native CoreSVG 232.5-->
<!DOCTYPE svg
PUBLIC "-//W3C//DTD SVG 1.1//EN"
       "http://www.w3.org/Graphics/SVG/1.1/DTD/svg11.dtd">
<svg version="1.1" xmlns="http://www.w3.org/2000/svg" xmlns:xlink="http://www.w3.org/1999/xlink" width="121.754" height="108.674">
 <g>
  <rect height="108.674" opacity="0" width="121.754" x="0" y="0"/>
  <path d="M95.4355 13.9522L95.4355 35.9199C93.3137 34.0072 90.3882 33.4417 87.2387 34.5733C85.8378 35.0952 84.5565 35.8731 83.3393 36.8125C81.0609 33.7227 77.37 32.5659 73.5023 33.9854C72.3524 34.3911 71.2211 35.0679 70.1537 35.8423L64.3905 20.0479C62.4272 14.6611 57.581 12.5225 52.7665 14.2637C47.809 16.0689 45.4887 20.8091 47.4369 26.1958L62.0375 66.2178C62.1015 66.4619 62.0375 66.6572 61.8236 66.77C61.6283 66.8525 61.4364 66.77 61.2899 66.5596L53.8061 58.2847C51.016 55.3028 47.8017 54.4844 44.7235 55.5166C40.5678 57.086 37.914 61.1221 39.6146 65.7881C40.0727 67.0225 40.9618 68.5498 41.9149 69.7505L47.6585 76.7212L17.8051 76.7212C8.46816 76.7212 3.71816 72.0386 3.71816 62.7691L3.71816 13.9522C3.71816 4.63379 8.46816 0 17.8051 0L81.3974 0C90.7343 0 95.4355 4.63379 95.4355 13.9522Z" fill="#000000" fill-opacity="0.85"/>
  <path d="M99.8402 102.959C118.09 96.3365 126.614 79.6646 118.926 58.4712L115.506 49.0786C111.615 38.5469 104.812 34.3071 96.5854 37.1797C94.4452 34.292 91.0019 33.2212 87.2387 34.5733C85.8378 35.0952 84.5565 35.8731 83.3393 36.8125C81.0609 33.7227 77.37 32.5659 73.5023 33.9854C72.3524 34.3911 71.2211 35.0679 70.1537 35.8423L64.3905 20.0479C62.4272 14.6611 57.581 12.5225 52.7665 14.2637C47.809 16.0689 45.4887 20.8091 47.4369 26.1958L62.0375 66.2178C62.1015 66.4619 62.0375 66.6572 61.8236 66.77C61.6283 66.8525 61.4364 66.77 61.2899 66.5596L53.8061 58.2847C51.016 55.3028 47.8017 54.4844 44.7235 55.5166C40.5678 57.086 37.914 61.1221 39.6146 65.7881C40.0727 67.0225 40.9618 68.5498 41.9149 69.7505L58.7079 90.1314C70.3266 104.183 84.3256 108.625 99.8402 102.959ZM98.1947 98.0156C85.3261 102.718 73.1327 99.7505 62.5951 86.96L45.7987 66.6162C45.265 65.9849 44.893 65.4024 44.5697 64.5117C43.9081 62.6885 44.7733 60.7222 46.8441 59.9292C48.4638 59.3618 49.9418 60.0083 51.3593 61.5537L62.5663 73.3867C64.1679 75.0825 65.6615 75.3267 67.1518 74.8013C68.8744 74.1143 69.7196 72.3545 68.9989 70.4214L52.183 24.1494C51.3144 21.8027 52.205 19.6748 54.4457 18.8853C56.619 18.0654 58.6225 19.1563 59.4574 21.5366L71.4022 54.2915C71.8671 55.6304 73.2802 56.2989 74.6342 55.834C75.9696 55.3726 76.5458 53.9361 76.017 52.582L71.6645 40.6323C72.4994 39.8916 73.5785 39.1626 74.5971 38.8579C77.161 37.8731 79.3412 38.9859 80.3866 41.836L83.9413 51.6631C84.5155 53.2207 85.9438 53.6704 87.1884 53.2241C88.433 52.8081 89.1791 51.5298 88.6049 49.9873L85.4008 41.2202C86.2021 40.4795 87.3149 39.7842 88.2997 39.4121C90.9462 38.4761 93.0927 39.5737 94.1078 42.4541L96.5141 49.1172C97.1034 50.6411 98.5165 51.1245 99.7763 50.6446C100.972 50.2285 101.733 48.9317 101.193 47.4077L99.1523 41.8013C103.841 40.0606 108.013 43.5205 110.91 51.4653L113.892 59.709C120.721 78.4234 114.016 92.2251 98.1947 98.0156Z" fill="#000000" fill-opacity="0.85"/>
 </g>
</svg>
