<?xml version="1.0" encoding="UTF-8"?>
<!--Generator: Apple Native CoreSVG 232.5-->
<!DOCTYPE svg
PUBLIC "-//W3C//DTD SVG 1.1//EN"
       "http://www.w3.org/Graphics/SVG/1.1/DTD/svg11.dtd">
<svg version="1.1" xmlns="http://www.w3.org/2000/svg" xmlns:xlink="http://www.w3.org/1999/xlink" width="84.9883" height="104.145">
 <g>
  <rect height="104.145" opacity="0" width="84.9883" x="0" y="0"/>
  <path d="M84.9883 13.8565L84.9546 90.3857C84.9546 99.0508 79.8423 104.141 71.0645 104.141L28.1597 104.141C10.9834 104.141 0 93.1577 0 75.9814L0 50.8042C0 44.3569 1.92969 39.2432 5.86817 35.6162L36.7275 7.24707C42.5518 1.88086 48.7061 0 56.1904 0L71.1655 0C79.5762 0 84.9883 5.3667 84.9883 13.8565ZM32.8667 54.0493C29.0596 54.0493 27.1484 56.0059 27.1484 59.7153L27.1484 80.4668C27.1484 84.2588 29.0596 86.1514 32.8667 86.1514L62.9102 86.1514C66.6348 86.1514 68.6133 84.2588 68.6133 80.4668L68.6133 59.7153C68.6133 56.0059 66.6348 54.0493 62.9102 54.0493ZM23.4326 45.1943C19.708 45.1943 17.7481 47.102 17.7481 50.8789L17.7481 71.5781C17.7481 75.2876 19.708 77.2441 23.4326 77.2441L24.168 77.2441L24.168 59.7153C24.168 54.3994 27.3555 51.084 32.8667 51.084L59.1455 51.084L59.1455 50.6919C59.0933 47.0835 57.2007 45.1943 53.4273 45.1943Z" fill="#000000" fill-opacity="0.85"/>
 </g>
</svg>
