<?xml version="1.0" encoding="UTF-8"?>
<!--Generator: Apple Native CoreSVG 232.5-->
<!DOCTYPE svg
PUBLIC "-//W3C//DTD SVG 1.1//EN"
       "http://www.w3.org/Graphics/SVG/1.1/DTD/svg11.dtd">
<svg version="1.1" xmlns="http://www.w3.org/2000/svg" xmlns:xlink="http://www.w3.org/1999/xlink" width="137.149" height="109.016">
 <g>
  <rect height="109.016" opacity="0" width="137.149" x="0" y="0"/>
  <path d="M17.4278 75.5882L17.4278 84.1236C17.4278 89.7617 20.4195 92.6675 25.9229 92.6675L71.2925 92.6675L77.306 98.6973L25.7915 98.6973C16.2861 98.6973 11.3828 93.895 11.3828 84.4571L11.3828 70.7689C13.2128 72.5868 15.2358 74.2082 17.4278 75.5882ZM125.766 24.562L125.766 84.4571C125.766 93.8496 120.896 98.6973 111.357 98.6973L102.302 98.6973C102.307 98.6644 102.307 98.6303 102.307 98.5962C102.307 96.4365 101.639 94.3573 100.44 92.6675L111.226 92.6675C116.62 92.6675 119.721 89.7617 119.721 84.1236L119.721 24.8955C119.721 19.2574 116.62 16.333 111.226 16.333L64.0022 16.333C61.5366 13.94 58.7282 11.9049 55.6655 10.2881L111.357 10.2881C120.896 10.2881 125.766 15.1695 125.766 24.562Z" fill="#000000" fill-opacity="0.85"/>
  <path d="M37.9053 81.6558C58.7842 81.6558 75.8106 64.6294 75.8106 43.7505C75.8106 22.8379 58.7842 5.84523 37.9053 5.84523C17.0264 5.84523 0 22.8379 0 43.7505C0 64.6294 17.0264 81.6558 37.9053 81.6558ZM37.9053 75.3042C20.5264 75.3042 6.36671 61.1294 6.36671 43.7505C6.36671 26.3379 20.5264 12.2119 37.9053 12.2119C55.2842 12.2119 69.4438 26.3379 69.4438 43.7505C69.4438 61.1294 55.2842 75.3042 37.9053 75.3042ZM65.1621 65.0723L58.3599 71.6573L88.625 101.986C89.5396 102.916 90.7134 103.359 91.9697 103.359C94.7754 103.359 96.6499 101.247 96.6499 98.5962C96.6499 97.3365 96.1514 96.1929 95.311 95.3189Z" fill="#000000" fill-opacity="0.85"/>
  <path d="M21.4829 40.2017L54.2939 40.2017C55.8232 40.2017 56.9854 39.021 56.9854 37.5254C56.9854 36.0449 55.8232 34.8491 54.2939 34.8491L21.4829 34.8491C19.9536 34.8491 18.8252 36.0449 18.8252 37.5254C18.8252 39.021 19.9536 40.2017 21.4829 40.2017ZM21.4829 52.6333L45.544 52.6333C47.0396 52.6333 48.2539 51.4712 48.2539 49.9756C48.2539 48.4615 47.0396 47.2656 45.544 47.2656L21.4829 47.2656C19.9536 47.2656 18.8252 48.4615 18.8252 49.9756C18.8252 51.4712 19.9536 52.6333 21.4829 52.6333Z" fill="#000000" fill-opacity="0.85"/>
 </g>
</svg>
