<?xml version="1.0" encoding="UTF-8"?>
<!--Generator: Apple Native CoreSVG 232.5-->
<!DOCTYPE svg
PUBLIC "-//W3C//DTD SVG 1.1//EN"
       "http://www.w3.org/Graphics/SVG/1.1/DTD/svg11.dtd">
<svg version="1.1" xmlns="http://www.w3.org/2000/svg" xmlns:xlink="http://www.w3.org/1999/xlink" width="132.355" height="86.4199">
 <g>
  <rect height="86.4199" opacity="0" width="132.355" x="0" y="0"/>
  <path d="M8.61524 41.0845L56.3125 41.0845C62.0044 41.0845 64.9277 38.2822 64.9277 32.3159L64.9277 8.82911C64.9277 2.8628 62.0044 0.0942379 56.3125 0.0942379L8.61524 0.0942379C2.92334 0.0942379 0 2.8628 0 8.82911L0 32.3159C0 38.2822 2.92334 41.0845 8.61524 41.0845ZM20.6436 86.4199L62.3604 86.4199C68.0859 86.4199 71.0093 83.6328 71.0093 77.6851L71.0093 60.4483C71.0093 54.4819 68.0859 51.6797 62.3604 51.6797L20.6436 51.6797C14.9331 51.6797 12.0098 54.4819 12.0098 60.4483L12.0098 77.6851C12.0098 83.6328 14.9331 86.4199 20.6436 86.4199ZM88.9258 80.5532L123.706 80.5532C129.431 80.5532 132.355 77.751 132.355 71.7847L132.355 15.3423C132.355 9.37598 129.431 6.57373 123.706 6.57373L88.9258 6.57373C83.2153 6.57373 80.292 9.37598 80.292 15.3423L80.292 71.7847C80.292 77.751 83.2153 80.5532 88.9258 80.5532Z" fill="#000000" fill-opacity="0.85"/>
 </g>
</svg>
