<?xml version="1.0" encoding="UTF-8"?>
<!--Generator: Apple Native CoreSVG 232.5-->
<!DOCTYPE svg
PUBLIC "-//W3C//DTD SVG 1.1//EN"
       "http://www.w3.org/Graphics/SVG/1.1/DTD/svg11.dtd">
<svg version="1.1" xmlns="http://www.w3.org/2000/svg" xmlns:xlink="http://www.w3.org/1999/xlink" width="107.11" height="88.5371">
 <g>
  <rect height="88.5371" opacity="0" width="107.11" x="0" y="0"/>
  <path d="M66.0713 88.5371L98.7832 88.5371C104.273 88.5371 107.11 85.8696 107.11 80.0903L107.11 56.959C107.11 51.2134 104.273 48.5122 98.7832 48.5122L66.0713 48.5122C60.5816 48.5122 57.7593 51.2134 57.7593 56.959L57.7593 80.0903C57.7593 85.8696 60.5816 88.5371 66.0713 88.5371Z" fill="#000000" fill-opacity="0.85"/>
  <path d="M8.31202 88.5371L41.0391 88.5371C46.5288 88.5371 49.3511 85.8696 49.3511 80.0903L49.3511 56.959C49.3511 51.2134 46.5288 48.5122 41.0391 48.5122L8.31202 48.5122C2.82227 48.5122 0 51.2134 0 56.959L0 80.0903C0 85.8696 2.82227 88.5371 8.31202 88.5371Z" fill="#000000" fill-opacity="0.85"/>
  <path d="M66.0713 40.1528L98.7832 40.1528C104.273 40.1528 107.11 37.4517 107.11 31.6724L107.11 8.57472C107.11 2.79541 104.273 0.127929 98.7832 0.127929L66.0713 0.127929C60.5816 0.127929 57.7593 2.79541 57.7593 8.57472L57.7593 31.6724C57.7593 37.4517 60.5816 40.1528 66.0713 40.1528Z" fill="#000000" fill-opacity="0.85"/>
  <path d="M8.31202 40.1528L41.0391 40.1528C46.5288 40.1528 49.3511 37.4517 49.3511 31.6724L49.3511 8.57472C49.3511 2.79541 46.5288 0.127929 41.0391 0.127929L8.31202 0.127929C2.82227 0.127929 0 2.79541 0 8.57472L0 31.6724C0 37.4517 2.82227 40.1528 8.31202 40.1528Z" fill="#000000" fill-opacity="0.85"/>
 </g>
</svg>
