<?xml version="1.0" encoding="UTF-8"?>
<!--Generator: Apple Native CoreSVG 232.5-->
<!DOCTYPE svg
PUBLIC "-//W3C//DTD SVG 1.1//EN"
       "http://www.w3.org/Graphics/SVG/1.1/DTD/svg11.dtd">
<svg version="1.1" xmlns="http://www.w3.org/2000/svg" xmlns:xlink="http://www.w3.org/1999/xlink" width="114.35" height="88.4395">
 <g>
  <rect height="88.4395" opacity="0" width="114.35" x="0" y="0"/>
  <path d="M14.3936 88.4092L99.9409 88.4092C109.514 88.4092 114.35 83.5615 114.35 74.169L114.35 14.2739C114.35 4.88135 109.514 0 99.9409 0L14.3936 0C4.86963 0 0 4.83594 0 14.2739L0 74.169C0 83.6069 4.86963 88.4092 14.3936 88.4092ZM14.5064 82.3794C9.00294 82.3794 6.04494 79.4736 6.04494 73.8355L6.04494 14.6074C6.04494 8.96925 9.00294 6.04494 14.5064 6.04494L99.8433 6.04494C105.237 6.04494 108.305 8.96925 108.305 14.6074L108.305 73.8355C108.305 79.4736 105.237 82.3794 99.8433 82.3794Z" fill="#000000" fill-opacity="0.85"/>
  <path d="M16.7251 76.7226L52.2036 76.7226C55.6733 76.7226 57.2422 75.1201 57.2422 71.6167L57.2422 16.8413C57.2422 13.3379 55.6733 11.7354 52.2036 11.7354L16.7251 11.7354C13.2891 11.7354 11.7202 13.3379 11.7202 16.8413L11.7202 71.6167C11.7202 75.1201 13.2891 76.7226 16.7251 76.7226ZM98.5723 44.1499C98.606 42.7554 97.3916 41.5596 96.0308 41.5596L80.8604 41.5596L72.4531 41.7734L78.7612 35.6304L83.626 30.8482C84.1245 30.3833 84.3906 29.7012 84.3906 29.0225C84.3906 27.5825 83.3784 26.5703 82.0361 26.5703C81.1655 26.5703 80.5542 27.0064 79.9648 27.6631L66.0112 42.2568C65.3779 42.9238 65.1304 43.4712 65.1304 44.1499C65.1304 44.8623 65.3291 45.3608 66.0112 46.043L79.9648 60.6519C80.5542 61.3272 81.1655 61.7632 82.0361 61.7632C83.3784 61.7632 84.3906 60.751 84.3906 59.311C84.3906 58.6323 84.1245 57.9502 83.626 57.4853L78.7612 52.6694L72.4531 46.5264L80.8604 46.7739L96.0308 46.7739C97.3916 46.7739 98.5537 45.5444 98.5723 44.1499Z" fill="#000000" fill-opacity="0.85"/>
 </g>
</svg>
