<?xml version="1.0" encoding="UTF-8"?>
<!--Generator: Apple Native CoreSVG 232.5-->
<!DOCTYPE svg
PUBLIC "-//W3C//DTD SVG 1.1//EN"
       "http://www.w3.org/Graphics/SVG/1.1/DTD/svg11.dtd">
<svg version="1.1" xmlns="http://www.w3.org/2000/svg" xmlns:xlink="http://www.w3.org/1999/xlink" width="80.7363" height="104.094">
 <g>
  <rect height="104.094" opacity="0" width="80.7363" x="0" y="0"/>
  <path d="M0 89.7187C0 99.2578 4.80225 104.094 14.2739 104.094L66.4624 104.094C75.9341 104.094 80.7363 99.2578 80.7363 89.7187L80.7363 14.4356C80.7363 4.93018 75.9341 0.0268549 66.4624 0.0268549L14.2739 0.0268549C4.80225 0.0268549 0 4.93018 0 14.4356ZM6.04494 89.5874L6.04494 14.5669C6.04494 9.06349 8.93556 6.07179 14.5737 6.07179L66.1626 6.07179C71.8008 6.07179 74.6914 9.06349 74.6914 14.5669L74.6914 89.5874C74.6914 95.0908 71.8008 98.0488 66.1626 98.0488L14.5737 98.0488C8.93556 98.0488 6.04494 95.0908 6.04494 89.5874Z" fill="#000000" fill-opacity="0.85"/>
  <path d="M20.8442 26.7876L20.8442 77.3667C20.8442 81.0386 22.4268 82.6548 26.1997 82.6548L54.5518 82.6548C58.3096 82.6548 59.8921 81.0386 59.8921 77.3667L59.8921 26.7876C59.8921 23.082 58.3096 21.4995 54.5518 21.4995L26.1997 21.4995C22.4268 21.4995 20.8442 23.082 20.8442 26.7876Z" fill="#000000" fill-opacity="0.85"/>
 </g>
</svg>
