<?xml version="1.0" encoding="UTF-8"?>
<!--Generator: Apple Native CoreSVG 232.5-->
<!DOCTYPE svg
PUBLIC "-//W3C//DTD SVG 1.1//EN"
       "http://www.w3.org/Graphics/SVG/1.1/DTD/svg11.dtd">
<svg version="1.1" xmlns="http://www.w3.org/2000/svg" xmlns:xlink="http://www.w3.org/1999/xlink" width="88.4092" height="88.5371">
 <g>
  <rect height="88.5371" opacity="0" width="88.4092" x="0" y="0"/>
  <path d="M88.4092 14.4019L88.4092 74.2632C88.4092 83.6558 83.5733 88.5371 74.0005 88.5371L14.3936 88.5371C4.86963 88.5371 0 83.7349 0 74.2632L0 14.4019C0 4.93018 4.86963 0.127929 14.3936 0.127929L74.0005 0.127929C83.5733 0.127929 88.4092 5.00928 88.4092 14.4019ZM32.4585 30.562C28.1074 30.562 25.9336 32.8149 25.9336 37.0347L25.9336 60.7363C25.9336 65.0386 28.1074 67.2275 32.4585 67.2275L66.6611 67.2275C70.9971 67.2275 73.186 65.0386 73.186 60.7363L73.186 37.0347C73.186 32.8149 70.9971 30.562 66.6611 30.562ZM21.6773 20.4912C17.311 20.4912 15.1709 22.7105 15.1709 26.915L15.1709 50.6655C15.1709 55.0015 17.311 57.1567 21.6773 57.1567L23.165 57.1567L23.165 37.0347C23.165 31.2808 26.5581 27.8086 32.4585 27.8086L62.3897 27.8086L62.3897 26.915C62.3897 22.7105 60.2007 20.4912 55.8984 20.4912Z" fill="#000000" fill-opacity="0.85"/>
 </g>
</svg>
