<?xml version="1.0" encoding="UTF-8"?>
<!--Generator: Apple Native CoreSVG 232.5-->
<!DOCTYPE svg
PUBLIC "-//W3C//DTD SVG 1.1//EN"
       "http://www.w3.org/Graphics/SVG/1.1/DTD/svg11.dtd">
<svg version="1.1" xmlns="http://www.w3.org/2000/svg" xmlns:xlink="http://www.w3.org/1999/xlink" width="103.953" height="108.195">
 <g>
  <rect height="108.195" opacity="0" width="103.953" x="0" y="0"/>
  <path d="M25.2055 92.6165C25.2055 97.4075 27.7157 99.9212 32.7426 99.9212L71.2777 99.9212C76.3046 99.9212 78.7811 97.4075 78.7811 92.6165L78.7811 90.0602L84.2771 95.559C83.4198 101.679 78.9545 105.476 71.9213 105.476L32.099 105.476C24.2308 105.476 19.5765 100.724 19.5765 93.2937L19.5765 88.7019L25.2055 88.7019ZM19.9179 59.991L19.9179 67.3191L19.6703 74.8821L25.6669 68.6345L33.9012 60.3328C34.4672 59.7517 35.1307 59.553 35.7455 59.553C37.2445 59.553 38.6576 60.8684 38.6576 62.3977C38.6576 63.0462 38.4066 63.6795 37.8104 64.2757L29.5424 72.51L23.2309 78.5554L30.9183 78.2893L37.7787 78.2893C39.473 78.2893 40.3168 79.5491 40.3168 80.8274C40.3168 82.072 39.5219 83.3504 37.8798 83.3504L18.0653 83.3504C16.0072 83.3504 14.8905 82.1883 14.8905 80.1721L14.8905 59.905C14.8905 58.2478 16.1351 57.4192 17.3309 57.4192C18.6093 57.4192 19.9179 58.2966 19.9179 59.991ZM84.4437 73.2725L78.7811 67.6058L78.7811 54.3113L84.4437 54.3113ZM25.2055 36.4569L25.2055 52.492L19.5765 52.492L19.5578 30.8063ZM89.0961 26.6311L89.0961 46.8982C89.0961 48.5555 87.8666 49.3689 86.622 49.3689C85.3773 49.3689 84.0687 48.4915 84.0687 46.7972L84.0687 39.4842L84.3163 31.9061L78.3197 38.2024L70.0853 46.4705C69.5194 47.0364 68.8559 47.2688 68.2411 47.2688C66.7421 47.2688 65.329 45.9197 65.329 44.4056C65.329 43.7757 65.58 43.1424 66.1762 42.5276L74.4442 34.2932L80.7557 28.2478L73.0683 28.514L66.2079 28.514C64.5472 28.514 63.6361 27.2205 63.6361 25.9759C63.6361 24.7312 64.4984 23.4866 66.1068 23.4866L85.9213 23.4866C87.9945 23.4866 89.0961 24.615 89.0961 26.6311ZM84.4252 13.5095L84.4252 18.1013L78.7474 18.1013L78.7474 14.1868C78.7474 9.41434 76.2709 6.90067 71.244 6.90067L32.7089 6.90067C27.7505 6.90067 25.2734 9.3463 25.2118 13.9975L20.2218 9.00387C21.7569 4.20932 25.9359 1.34597 32.0653 1.34597L71.8876 1.34597C79.7557 1.34597 84.4252 6.06424 84.4252 13.5095Z" fill="#000000" fill-opacity="0.85"/>
  <path d="M93.9012 98.0984C94.9994 99.1966 96.8807 99.2303 98.0277 98.0984C99.1561 96.9026 99.1596 95.1038 98.0277 93.9568L10.0551 5.87136C8.93837 4.76979 7.04188 4.72438 5.87977 5.87136C4.78162 7.01833 4.78162 8.89969 5.87977 10.013Z" fill="#000000" fill-opacity="0.85"/>
 </g>
</svg>
