<?xml version="1.0" encoding="UTF-8"?>
<!--Generator: Apple Native CoreSVG 232.5-->
<!DOCTYPE svg
PUBLIC "-//W3C//DTD SVG 1.1//EN"
       "http://www.w3.org/Graphics/SVG/1.1/DTD/svg11.dtd">
<svg version="1.1" xmlns="http://www.w3.org/2000/svg" xmlns:xlink="http://www.w3.org/1999/xlink" width="105.998" height="105.197">
 <g>
  <rect height="105.197" opacity="0" width="105.998" x="0" y="0"/>
  <path d="M105.998 27.0293L105.998 66.2935C105.998 79.3286 98.5029 86.9883 85.2539 86.9883L49.461 86.9883L31.7886 102.769C30.0537 104.387 28.8799 105.197 27.3389 105.197C25.146 105.197 23.8408 103.604 23.8408 101.152L23.8408 86.9883L20.7437 86.9883C7.47949 86.9883 0 79.4077 0 66.2935L0 27.0293C0 13.8999 7.47949 6.28565 20.7437 6.28565L85.2539 6.28565C98.5029 6.28565 105.998 13.979 105.998 27.0293ZM29.0044 51.3745C25.9058 51.3745 24.311 52.8936 24.311 56.0527L24.311 63.8994C24.311 67.1074 25.9058 68.6416 29.0044 68.6416L49.1035 68.6416C52.2173 68.6416 53.7818 67.1074 53.7818 63.8994L53.7818 56.0527C53.7818 52.8936 52.2173 51.3745 49.1035 51.3745ZM65.0811 28.2319C61.9336 28.2319 60.3355 29.7358 60.3355 32.9102L60.3355 60.7695C60.3355 63.9775 61.9336 65.4478 65.0811 65.4478L81.7993 65.4478C84.9165 65.4478 86.5112 63.9775 86.5112 60.7695L86.5112 32.9102C86.5112 29.7358 84.9165 28.2319 81.7993 28.2319ZM22.8286 24.6777C19.6626 24.6777 18.0493 26.1631 18.0493 29.3374L18.0493 40.3916C18.0493 43.5845 19.6626 45.085 22.8286 45.085L46.0342 45.085C49.148 45.085 50.7764 43.5845 50.7764 40.3916L50.7764 29.3374C50.7764 26.1631 49.148 24.6777 46.0342 24.6777Z" fill="#000000" fill-opacity="0.85"/>
 </g>
</svg>
