<?xml version="1.0" encoding="UTF-8"?>
<!--Generator: Apple Native CoreSVG 232.5-->
<!DOCTYPE svg
PUBLIC "-//W3C//DTD SVG 1.1//EN"
       "http://www.w3.org/Graphics/SVG/1.1/DTD/svg11.dtd">
<svg version="1.1" xmlns="http://www.w3.org/2000/svg" xmlns:xlink="http://www.w3.org/1999/xlink" width="114.35" height="88.4395">
 <g>
  <rect height="88.4395" opacity="0" width="114.35" x="0" y="0"/>
  <path d="M14.3936 88.4092L99.9409 88.4092C109.514 88.4092 114.35 83.5615 114.35 74.169L114.35 14.2739C114.35 4.88135 109.514 0 99.9409 0L14.3936 0C4.86963 0 0 4.83594 0 14.2739L0 74.169C0 83.6069 4.86963 88.4092 14.3936 88.4092ZM14.5064 82.3794C9.00294 82.3794 6.04494 79.4736 6.04494 73.8355L6.04494 14.6074C6.04494 8.96925 9.00294 6.04494 14.5064 6.04494L99.8433 6.04494C105.237 6.04494 108.305 8.96925 108.305 14.6074L108.305 73.8355C108.305 79.4736 105.237 82.3794 99.8433 82.3794Z" fill="#000000" fill-opacity="0.85"/>
  <path d="M16.7251 76.7226L52.1362 76.7226C55.606 76.7226 57.1748 75.1201 57.1748 71.6167L57.1748 49.3013C57.1748 45.7979 55.606 44.1953 52.1362 44.1953L16.7251 44.1953C13.2891 44.1953 11.7202 45.7979 11.7202 49.3013L11.7202 71.6167C11.7202 75.1201 13.2891 76.7226 16.7251 76.7226Z" fill="#000000" fill-opacity="0.85"/>
 </g>
</svg>
