<?xml version="1.0" encoding="UTF-8"?>
<!--Generator: Apple Native CoreSVG 232.5-->
<!DOCTYPE svg
PUBLIC "-//W3C//DTD SVG 1.1//EN"
       "http://www.w3.org/Graphics/SVG/1.1/DTD/svg11.dtd">
<svg version="1.1" xmlns="http://www.w3.org/2000/svg" xmlns:xlink="http://www.w3.org/1999/xlink" width="122.339" height="104.274">
 <g>
  <rect height="104.274" opacity="0" width="122.339" x="0" y="0"/>
  <path d="M95.4735 11.925L97.8298 25.2873L91.7068 25.2873L89.5936 13.2741C88.6088 7.74871 85.0565 5.44061 79.7602 6.34295L13.2558 18.048C7.80118 19.0329 5.392 22.4084 6.37686 27.9826L14.3139 73.089C15.2987 78.6144 18.7416 80.9865 24.1474 80.0353L25.7611 79.7511L25.7611 85.8933L25.0839 86.0129C15.6576 87.6496 10.037 83.7448 8.43398 74.4382L0.365619 28.6984C-1.28624 19.3918 2.66738 13.82 12.06 12.1344L78.8573 0.3654C88.2162-1.28646 93.8705 2.67888 95.4735 11.925Z" fill="#000000" fill-opacity="0.85"/>
  <path d="M40.1361 100.274L107.959 100.274C117.464 100.274 122.334 95.3923 122.334 85.9997L122.334 39.5612C122.334 30.1686 117.464 25.2873 107.959 25.2873L40.1361 25.2873C30.5971 25.2873 25.7611 30.1232 25.7611 39.5612L25.7611 85.9997C25.7611 95.4714 30.5971 100.274 40.1361 100.274ZM40.2675 94.2287C34.7641 94.2287 31.8061 91.3381 31.8061 85.6999L31.8061 39.8947C31.8061 34.2565 34.7641 31.3322 40.2675 31.3322L107.828 31.3322C113.222 31.3322 116.289 34.2565 116.289 39.8947L116.289 85.6999C116.289 91.3381 113.222 94.2287 107.828 94.2287Z" fill="#000000" fill-opacity="0.85"/>
 </g>
</svg>
