<?xml version="1.0" encoding="UTF-8"?>
<!--Generator: Apple Native CoreSVG 232.5-->
<!DOCTYPE svg
PUBLIC "-//W3C//DTD SVG 1.1//EN"
       "http://www.w3.org/Graphics/SVG/1.1/DTD/svg11.dtd">
<svg version="1.1" xmlns="http://www.w3.org/2000/svg" xmlns:xlink="http://www.w3.org/1999/xlink" width="105.998" height="104.823">
 <g>
  <rect height="104.823" opacity="0" width="105.998" x="0" y="0"/>
  <path d="M28.0161 104.823C29.8789 104.823 31.2061 103.811 33.4126 101.886L50.5611 86.835L85.2539 86.835C98.5029 86.835 105.998 79.1416 105.998 66.1064L105.998 26.8423C105.998 13.792 98.5029 6.09863 85.2539 6.09863L20.7437 6.09863C7.47949 6.09863 0 13.7129 0 26.8423L0 66.1064C0 79.2207 7.47949 86.835 20.7437 86.835L23.8745 86.835L23.8745 99.9995C23.8745 102.927 25.4004 104.823 28.0161 104.823ZM29.5186 97.9917L29.5186 83.6348C29.5186 81.6035 28.7051 80.8052 26.6738 80.8052L20.7739 80.8052C11.1377 80.8052 6.04494 75.4429 6.04494 66.0273L6.04494 26.8726C6.04494 17.457 11.1377 12.1436 20.7739 12.1436L85.2085 12.1436C94.7354 12.1436 99.9526 17.457 99.9526 26.8726L99.9526 66.0273C99.9526 75.4429 94.7354 80.8052 85.2085 80.8052L50.5557 80.8052C48.336 80.8052 47.211 81.1353 45.6128 82.7368Z" fill="#000000" fill-opacity="0.85"/>
  <path d="M23.3711 44.898L46.169 44.898C49.2153 44.898 50.7764 43.4312 50.7764 40.2905L50.7764 29.4385C50.7764 26.3316 49.2153 24.9136 46.169 24.9136L23.3711 24.9136C20.3062 24.9136 18.7266 26.3316 18.7266 29.4385L18.7266 40.2905C18.7266 43.4312 20.3062 44.898 23.3711 44.898ZM29.461 67.9644L49.1709 67.9644C52.2173 67.9644 53.7481 66.4976 53.7481 63.3569L53.7481 55.645C53.7481 52.5381 52.2173 51.0864 49.1709 51.0864L29.461 51.0864C26.4146 51.0864 24.8535 52.5381 24.8535 55.645L24.8535 63.3569C24.8535 66.4976 26.4146 67.9644 29.461 67.9644ZM64.8115 64.853L81.2417 64.853C84.273 64.853 85.834 63.4014 85.834 60.2944L85.834 32.9439C85.834 29.8521 84.273 28.4004 81.2417 28.4004L64.8115 28.4004C61.7466 28.4004 60.2007 29.8521 60.2007 32.9439L60.2007 60.2944C60.2007 63.4014 61.7466 64.853 64.8115 64.853Z" fill="#000000" fill-opacity="0.85"/>
 </g>
</svg>
