<?xml version="1.0" encoding="UTF-8"?>
<!--Generator: Apple Native CoreSVG 232.5-->
<!DOCTYPE svg
PUBLIC "-//W3C//DTD SVG 1.1//EN"
       "http://www.w3.org/Graphics/SVG/1.1/DTD/svg11.dtd">
<svg version="1.1" xmlns="http://www.w3.org/2000/svg" xmlns:xlink="http://www.w3.org/1999/xlink" width="84.8545" height="102.896">
 <g>
  <rect height="102.896" opacity="0" width="84.8545" x="0" y="0"/>
  <path d="M14.3936 70.1929L70.4458 70.1929C79.9849 70.1929 84.8545 65.3115 84.8545 55.919L84.8545 14.353C84.8545 4.96045 79.9849 0.0791013 70.4458 0.0791013L14.3936 0.0791013C4.83594 0.0791013 0 4.96045 0 14.353L0 55.919C0 65.3115 4.83594 70.1929 14.3936 70.1929ZM14.5064 64.1631C9.14601 64.1631 6.04494 61.2573 6.04494 55.6192L6.04494 14.6528C6.04494 9.04835 9.14601 6.12404 14.5064 6.12404L70.3145 6.12404C75.7085 6.12404 78.8096 9.04835 78.8096 14.6528L78.8096 55.6192C78.8096 61.2573 75.7085 64.1631 70.3145 64.1631ZM39.3955 92.5781L45.4253 92.5781L45.4253 66.4048L39.3955 66.4048ZM2.99805 95.3946L81.8076 95.3946C83.4717 95.3946 84.8545 94.0117 84.8545 92.3628C84.8545 90.7139 83.4717 89.3648 81.8076 89.3648L2.99805 89.3648C1.34912 89.3648 0 90.7139 0 92.3628C0 94.0117 1.34912 95.3946 2.99805 95.3946ZM42.4273 102.896C48.0835 102.896 52.7866 98.1924 52.7866 92.5362C52.7866 86.8311 48.0835 82.1431 42.4273 82.1431C36.7373 82.1431 32.0342 86.8311 32.0342 92.5362C32.0342 98.1924 36.7373 102.896 42.4273 102.896Z" fill="#000000" fill-opacity="0.85"/>
 </g>
</svg>
