<?xml version="1.0" encoding="UTF-8"?>
<!--Generator: Apple Native CoreSVG 232.5-->
<!DOCTYPE svg
PUBLIC "-//W3C//DTD SVG 1.1//EN"
       "http://www.w3.org/Graphics/SVG/1.1/DTD/svg11.dtd">
<svg version="1.1" xmlns="http://www.w3.org/2000/svg" xmlns:xlink="http://www.w3.org/1999/xlink" width="129.872" height="112.42">
 <g>
  <rect height="112.42" opacity="0" width="129.872" x="0" y="0"/>
  <path d="M13.4508 85.9046C13.4508 91.5428 16.4425 94.4334 21.9459 94.4334L32.8673 94.4334L32.8673 100.478L21.8145 100.478C12.3092 100.478 7.40584 95.6761 7.40584 86.2044L7.40584 74.8821L13.4508 74.8821ZM61.7598 100.478L38.5577 100.478L38.5577 94.4334L61.7598 94.4334ZM90.6373 100.478L67.4503 100.478L67.4503 94.4334L90.6373 94.4334ZM121.789 86.2044C121.789 95.6761 116.886 100.478 107.38 100.478L96.294 100.478L96.294 94.4334L107.249 94.4334C112.753 94.4334 115.744 91.5428 115.744 85.9046L115.744 74.8821L121.789 74.8821ZM13.4508 69.2068L7.40584 69.2068L7.40584 43.3406L13.4508 43.3406ZM121.789 69.2068L115.744 69.2068L115.744 55.8183L121.789 49.743ZM32.8673 18.1141L21.9459 18.1141C16.4425 18.1141 13.4508 21.0047 13.4508 26.6429L13.4508 37.6653L7.40584 37.6653L7.40584 26.3431C7.40584 16.8714 12.3092 12.0691 21.8145 12.0691L32.8673 12.0691ZM61.7598 18.1141L38.5577 18.1141L38.5577 12.0691L61.7598 12.0691ZM83.8707 18.1141L67.4503 18.1141L67.4503 12.0691L89.8925 12.0691Z" fill="#000000" fill-opacity="0.85"/>
  <path d="M72.3692 64.3992C79.0596 71.0745 89.3385 71.6634 96.6886 64.3133L119.271 41.701C120.231 40.7073 120.182 39.1663 119.252 38.3191C118.304 37.4231 116.946 37.3777 115.938 38.4016L93.4635 60.8943C88.0718 66.2522 80.6158 65.9798 75.7882 61.0662C70.8257 56.0027 70.5162 48.6326 75.8438 43.3387L104.371 14.8601C108.006 11.2552 112.778 11.5393 115.661 14.3396C118.465 17.1585 118.715 21.9119 115.11 25.5808L87.3223 53.5037C86.0259 54.8001 84.3878 54.6756 83.2833 53.5491C82.0323 52.3924 82.0357 50.7459 83.3321 49.4158L103.32 29.4915C104.359 28.4524 104.235 27.1253 103.403 26.2293C102.541 25.3181 101.247 25.2576 100.174 26.3118L80.1153 46.4012C77.0186 49.513 77.0455 54.1355 79.8712 56.8821C82.7979 59.7786 87.2183 59.9148 90.4161 56.7356L118.339 28.7942C123.977 23.1414 123.455 15.8904 118.725 11.1111C114.043 6.43288 106.593 5.92653 101.042 11.4934L72.5191 40.0462C65.1539 47.4114 65.731 57.825 72.3692 64.3992Z" fill="#000000" fill-opacity="0.85"/>
 </g>
</svg>
