<?xml version="1.0" encoding="UTF-8"?>
<!--Generator: Apple Native CoreSVG 232.5-->
<!DOCTYPE svg
PUBLIC "-//W3C//DTD SVG 1.1//EN"
       "http://www.w3.org/Graphics/SVG/1.1/DTD/svg11.dtd">
<svg version="1.1" xmlns="http://www.w3.org/2000/svg" xmlns:xlink="http://www.w3.org/1999/xlink" width="101.47" height="123.674">
 <g>
  <rect height="123.674" opacity="0" width="101.47" x="0" y="0"/>
  <path d="M74.2126 12.0761L76.5086 25.1005L70.4016 25.1005L68.3176 13.2382C67.3142 7.78361 63.9387 5.37444 58.3982 6.3593L13.2917 14.3114C7.75121 15.2812 5.39428 18.724 6.34545 24.1635L18.0657 90.6679C18.9329 95.5241 21.8109 98.0472 26.4914 97.7196L26.4914 103.83C18.5391 104.482 13.6833 100.419 12.1369 91.8637L0.367897 25.0815C-1.28396 15.6552 2.63596 10.0683 11.9426 8.41641L57.6824 0.348054C66.9739-1.25497 72.5608 2.6835 74.2126 12.0761Z" fill="#000000" fill-opacity="0.85"/>
  <path d="M101.463 39.4941C101.463 29.9701 96.6604 25.1005 87.1887 25.1005L40.7502 25.1005C31.3274 25.1005 26.4914 29.9701 26.4914 39.4941L26.4914 107.298C26.4914 116.822 31.3576 121.692 40.7502 121.692L87.1887 121.692C96.5813 121.692 101.463 116.822 101.463 107.298ZM95.4177 39.6405L95.4177 107.185C95.4177 112.546 92.5271 115.647 86.8889 115.647L41.0837 115.647C35.4455 115.647 32.5212 112.546 32.5212 107.185L32.5212 39.6405C32.5212 34.122 35.4455 31.1303 41.0837 31.1303L86.8889 31.1303C92.5271 31.1303 95.4177 34.122 95.4177 39.6405Z" fill="#000000" fill-opacity="0.85"/>
 </g>
</svg>
