<?xml version="1.0" encoding="UTF-8"?>
<!--Generator: Apple Native CoreSVG 232.5-->
<!DOCTYPE svg
PUBLIC "-//W3C//DTD SVG 1.1//EN"
       "http://www.w3.org/Graphics/SVG/1.1/DTD/svg11.dtd">
<svg version="1.1" xmlns="http://www.w3.org/2000/svg" xmlns:xlink="http://www.w3.org/1999/xlink" width="103.136" height="88.5371">
 <g>
  <rect height="88.5371" opacity="0" width="103.136" x="0" y="0"/>
  <path d="M82.7022 88.5371L94.8237 88.5371C100.313 88.5371 103.136 85.8696 103.136 80.0903L103.136 56.959C103.136 51.2134 100.313 48.5122 94.8237 48.5122L82.7022 48.5122C77.1787 48.5122 74.3565 51.2134 74.3565 56.959L74.3565 80.0903C74.3565 85.8696 77.1787 88.5371 82.7022 88.5371ZM82.7813 83.1357C80.6787 83.1357 79.7427 82.1812 79.7427 80.0449L79.7427 57.0381C79.7427 54.8682 80.6787 53.9136 82.7813 53.9136L94.7261 53.9136C96.8135 53.9136 97.7495 54.8682 97.7495 57.0381L97.7495 80.0449C97.7495 82.1812 96.8135 83.1357 94.7261 83.1357Z" fill="#000000" fill-opacity="0.85"/>
  <path d="M45.5147 88.5371L57.6699 88.5371C63.1597 88.5371 65.9819 85.8696 65.9819 80.0903L65.9819 56.959C65.9819 51.2134 63.1597 48.5122 57.6699 48.5122L45.5147 48.5122C40.0249 48.5122 37.1875 51.2134 37.1875 56.959L37.1875 80.0903C37.1875 85.8696 40.0249 88.5371 45.5147 88.5371ZM45.6123 83.1357C43.5098 83.1357 42.5889 82.1812 42.5889 80.0449L42.5889 57.0381C42.5889 54.8682 43.5098 53.9136 45.6123 53.9136L57.5571 53.9136C59.6597 53.9136 60.5957 54.8682 60.5957 57.0381L60.5957 80.0449C60.5957 82.1812 59.6597 83.1357 57.5571 83.1357Z" fill="#000000" fill-opacity="0.85"/>
  <path d="M8.31202 88.5371L20.4673 88.5371C25.9722 88.5371 28.7944 85.8696 28.7944 80.0903L28.7944 56.959C28.7944 51.2134 25.9722 48.5122 20.4673 48.5122L8.31202 48.5122C2.82227 48.5122 0 51.2134 0 56.959L0 80.0903C0 85.8696 2.82227 88.5371 8.31202 88.5371ZM8.42481 83.1357C6.32228 83.1357 5.38624 82.1812 5.38624 80.0449L5.38624 57.0381C5.38624 54.8682 6.32228 53.9136 8.42481 53.9136L20.3359 53.9136C22.4385 53.9136 23.3931 54.8682 23.3931 57.0381L23.3931 80.0449C23.3931 82.1812 22.4385 83.1357 20.3359 83.1357Z" fill="#000000" fill-opacity="0.85"/>
  <path d="M82.7022 40.1528L94.8237 40.1528C100.313 40.1528 103.136 37.4517 103.136 31.6724L103.136 8.57472C103.136 2.79541 100.313 0.127929 94.8237 0.127929L82.7022 0.127929C77.1787 0.127929 74.3565 2.79541 74.3565 8.57472L74.3565 31.6724C74.3565 37.4517 77.1787 40.1528 82.7022 40.1528ZM82.7813 34.7515C80.6787 34.7515 79.7427 33.7969 79.7427 31.627L79.7427 8.62013C79.7427 6.4839 80.6787 5.52931 82.7813 5.52931L94.7261 5.52931C96.8135 5.52931 97.7495 6.4839 97.7495 8.62013L97.7495 31.627C97.7495 33.7969 96.8135 34.7515 94.7261 34.7515Z" fill="#000000" fill-opacity="0.85"/>
  <path d="M45.5147 40.1528L57.6699 40.1528C63.1597 40.1528 65.9819 37.4517 65.9819 31.6724L65.9819 8.57472C65.9819 2.79541 63.1597 0.127929 57.6699 0.127929L45.5147 0.127929C40.0249 0.127929 37.1875 2.79541 37.1875 8.57472L37.1875 31.6724C37.1875 37.4517 40.0249 40.1528 45.5147 40.1528ZM45.6123 34.7515C43.5098 34.7515 42.5889 33.7969 42.5889 31.627L42.5889 8.62013C42.5889 6.4839 43.5098 5.52931 45.6123 5.52931L57.5571 5.52931C59.6597 5.52931 60.5957 6.4839 60.5957 8.62013L60.5957 31.627C60.5957 33.7969 59.6597 34.7515 57.5571 34.7515Z" fill="#000000" fill-opacity="0.85"/>
  <path d="M8.31202 40.1528L20.4673 40.1528C25.9722 40.1528 28.7944 37.4517 28.7944 31.6724L28.7944 8.57472C28.7944 2.79541 25.9722 0.127929 20.4673 0.127929L8.31202 0.127929C2.82227 0.127929 0 2.79541 0 8.57472L0 31.6724C0 37.4517 2.82227 40.1528 8.31202 40.1528ZM8.42481 34.7515C6.32228 34.7515 5.38624 33.7969 5.38624 31.627L5.38624 8.62013C5.38624 6.4839 6.32228 5.52931 8.42481 5.52931L20.3359 5.52931C22.4385 5.52931 23.3931 6.4839 23.3931 8.62013L23.3931 31.627C23.3931 33.7969 22.4385 34.7515 20.3359 34.7515Z" fill="#000000" fill-opacity="0.85"/>
 </g>
</svg>
