<?xml version="1.0" encoding="UTF-8"?>
<!--Generator: Apple Native CoreSVG 232.5-->
<!DOCTYPE svg
PUBLIC "-//W3C//DTD SVG 1.1//EN"
       "http://www.w3.org/Graphics/SVG/1.1/DTD/svg11.dtd">
<svg version="1.1" xmlns="http://www.w3.org/2000/svg" xmlns:xlink="http://www.w3.org/1999/xlink" width="66.5391" height="107.289">
 <g>
  <rect height="107.289" opacity="0" width="66.5391" x="0" y="0"/>
  <path d="M0 35.6743L66.5391 35.6743L66.5391 9.87207C66.5391 3.93164 62.7808 0 57.1602 0L9.34522 0C3.7583 0 0 3.93164 0 9.87207ZM13.2681 26.8882C12.1094 26.8882 11.2017 26.0142 11.2017 24.8218L11.2017 13.356C11.2017 12.1973 12.0757 11.3232 13.2681 11.3232C14.4419 11.3232 15.3008 12.1636 15.3008 13.356L15.3008 24.8218C15.3008 25.9956 14.4756 26.8882 13.2681 26.8882ZM0 89.2529L66.5391 89.2529L66.5391 40.7212L0 40.7212ZM13.2681 63.1377C12.1094 63.1377 11.2017 62.3125 11.2017 61.105L11.2017 49.6543C11.2017 48.4805 12.0757 47.6216 13.2681 47.6216C14.4419 47.6216 15.3008 48.4468 15.3008 49.6543L15.3008 61.105C15.3008 62.2788 14.4756 63.1377 13.2681 63.1377ZM0 94.2998L0 97.417C0 103.357 3.7583 107.289 9.34522 107.289L57.1602 107.289C62.7808 107.289 66.5391 103.357 66.5391 97.417L66.5391 94.2998Z" fill="#000000" fill-opacity="0.85"/>
 </g>
</svg>
