<?xml version="1.0" encoding="UTF-8"?>
<!--Generator: Apple Native CoreSVG 232.5-->
<!DOCTYPE svg
PUBLIC "-//W3C//DTD SVG 1.1//EN"
       "http://www.w3.org/Graphics/SVG/1.1/DTD/svg11.dtd">
<svg version="1.1" xmlns="http://www.w3.org/2000/svg" xmlns:xlink="http://www.w3.org/1999/xlink" width="97.9595" height="97.9932">
 <g>
  <rect height="97.9932" opacity="0" width="97.9595" x="0" y="0"/>
  <path d="M97.9595 48.9722C97.9595 75.7759 75.8247 97.9443 48.9722 97.9443C22.1685 97.9443 0 75.7759 0 48.9722C0 22.1348 22.1348 0 48.9385 0C75.791 0 97.9595 22.1348 97.9595 48.9722ZM70.5039 51.3384L70.5039 53.4839C70.5039 58.6104 67.145 61.9473 61.9258 61.9473L42.94 61.9473L42.94 55.6099C42.94 54.4024 42.1787 53.6748 40.9224 53.6748C40.3447 53.6748 39.8311 53.8399 39.3696 54.2188L28.6221 62.8501C27.4888 63.7056 27.5225 65.2295 28.6558 66.1338L39.3696 74.7466C39.8311 75.1104 40.3447 75.2905 40.9224 75.2905C42.2124 75.2905 42.94 74.5781 42.94 73.3858L42.94 66.7725L61.2944 66.7725C69.9946 66.7725 75.4385 61.8506 75.4385 53.9385L75.4385 51.3384C75.4385 49.981 74.3135 48.9048 72.9712 48.9048C71.6138 48.9048 70.5039 49.981 70.5039 51.3384ZM44.0703 26.5732L44.0703 33.104L31.7993 33.104C23.1025 33.104 17.689 37.9922 17.689 45.938L17.689 48.5381C17.689 49.8652 18.7803 50.9751 20.1226 50.9751C21.48 50.9751 22.5899 49.8652 22.5899 48.5381L22.5899 46.3926C22.5899 41.2998 25.9487 37.9292 31.168 37.9292L44.0703 37.9292L44.0703 44.3491C44.0703 45.5567 44.8618 46.2842 46.0728 46.2842C46.6201 46.2842 47.1489 46.1006 47.6104 45.7554L58.3545 37.0786C59.5064 36.1558 59.5064 34.6841 58.3545 33.7949L47.6104 25.1484C47.1489 24.7695 46.6201 24.6196 46.0728 24.6196C44.8618 24.6196 44.0703 25.3809 44.0703 26.5732ZM69.044 25.9453L65.1226 28.8296C64.5112 29.3096 64.3125 29.8047 64.3125 30.4531C64.3125 31.4131 65.0435 32.2046 66.1011 32.2046C66.5322 32.2046 66.9785 32.0884 67.4063 31.7583L70.2481 29.5992L70.2481 40.2388C70.2481 41.7984 71.2905 42.856 72.8804 42.856C74.4517 42.856 75.4756 41.8286 75.4756 40.2388L75.4756 27.7944C75.4756 25.8628 74.1738 24.7007 72.355 24.7007C71.1289 24.7007 70.2212 25.0308 69.044 25.9453Z" fill="#000000" fill-opacity="0.85"/>
 </g>
</svg>
