<?xml version="1.0" encoding="UTF-8"?>
<!--Generator: Apple Native CoreSVG 232.5-->
<!DOCTYPE svg
PUBLIC "-//W3C//DTD SVG 1.1//EN"
       "http://www.w3.org/Graphics/SVG/1.1/DTD/svg11.dtd">
<svg version="1.1" xmlns="http://www.w3.org/2000/svg" xmlns:xlink="http://www.w3.org/1999/xlink" width="99.9024" height="87.0869">
 <g>
  <rect height="87.0869" opacity="0" width="99.9024" x="0" y="0"/>
  <path d="M3.42383 44.917C5.38917 44.917 6.83253 43.4736 6.83253 41.5083L6.83253 37.0059C6.83253 27.896 12.5303 22.4273 22.0796 22.4273L48.1421 22.4273L48.1421 34.0381C48.1421 35.6734 49.1021 36.5996 50.8013 36.5996C51.5742 36.5996 52.2564 36.3335 52.9585 35.8081L71.1128 21.1758C72.6182 19.9634 72.6519 18.0405 71.1128 16.8096L52.9585 2.17383C52.2564 1.6333 51.5742 1.40088 50.8013 1.40088C49.1021 1.40088 48.1421 2.29346 48.1421 3.96241L48.1421 15.8203L22.5884 15.8203C8.97803 15.8203 0 23.4902 0 36.6167L0 41.5083C0 43.4736 1.40967 44.917 3.42383 44.917ZM96.3438 42.2676C94.3448 42.2676 92.9351 43.6924 92.9351 45.6914L92.9351 50.1939C92.9351 59.2886 87.2373 64.7388 77.6543 64.7388L41.3091 64.7388L41.3091 53.2139C41.3091 51.5449 40.3828 50.6523 38.6836 50.6523C37.877 50.6523 37.1797 50.8848 36.4927 51.4253L18.3384 66.0425C16.8516 67.2886 16.833 69.2114 18.3384 70.4238L36.4927 85.0596C37.1797 85.585 37.877 85.8662 38.6836 85.8662C40.3828 85.8662 41.3091 84.9248 41.3091 83.3047L41.3091 71.3643L77.1455 71.3643C90.7896 71.3643 99.7676 63.6944 99.7676 50.583L99.7676 45.6914C99.7676 43.6924 98.3243 42.2676 96.3438 42.2676Z" fill="#000000" fill-opacity="0.85"/>
  <path d="M96.3775 31.1001C98.5332 31.1001 99.9024 29.6973 99.9024 27.523L99.9024 4.42091C99.9024 1.70948 98.0718 0 95.5523 0C93.6187 0 92.2832 0.633302 90.7051 1.83252L83.8897 6.81299C83.0459 7.47657 82.7832 8.07276 82.7832 8.89796C82.7832 10.0903 83.6792 11.0469 85.1309 11.0469C85.7237 11.0469 86.2862 10.8818 86.8301 10.4356L92.2666 6.3003L92.8003 6.3003L92.8003 27.523C92.8003 29.6973 94.2032 31.1001 96.3775 31.1001Z" fill="#000000" fill-opacity="0.85"/>
 </g>
</svg>
