<?xml version="1.0" encoding="UTF-8"?>
<!--Generator: Apple Native CoreSVG 232.5-->
<!DOCTYPE svg
PUBLIC "-//W3C//DTD SVG 1.1//EN"
       "http://www.w3.org/Graphics/SVG/1.1/DTD/svg11.dtd">
<svg version="1.1" xmlns="http://www.w3.org/2000/svg" xmlns:xlink="http://www.w3.org/1999/xlink" width="99.7676" height="84.6455">
 <g>
  <rect height="84.6455" opacity="0" width="99.7676" x="0" y="0"/>
  <path d="M96.3438 41.0469C94.3448 41.0469 92.9351 42.4717 92.9351 44.4707L92.9351 48.9732C92.9351 58.0679 87.2373 63.5181 77.6543 63.5181L41.3091 63.5181L41.3091 51.9932C41.3091 50.3242 40.3828 49.4316 38.6836 49.4316C37.877 49.4316 37.1797 49.6641 36.4927 50.2046L18.3384 64.8218C16.8516 66.0679 16.833 67.9907 18.3384 69.2031L36.4927 83.8389C37.1797 84.3643 37.877 84.6455 38.6836 84.6455C40.3828 84.6455 41.3091 83.7041 41.3091 82.084L41.3091 70.1436L77.1455 70.1436C90.7896 70.1436 99.7676 62.4736 99.7676 49.3623L99.7676 44.4707C99.7676 42.4717 98.3243 41.0469 96.3438 41.0469Z" fill="#000000" fill-opacity="0.85"/>
  <path d="M3.42383 43.6963C5.38917 43.6963 6.83253 42.2529 6.83253 40.2876L6.83253 35.7852C6.83253 26.6753 12.5303 21.2066 22.0796 21.2066L58.4248 21.2066L58.4248 32.8174C58.4248 34.4526 59.3848 35.3789 61.0991 35.3789C61.857 35.3789 62.5879 35.1128 63.2412 34.5874L81.3955 19.9551C82.8824 18.7764 82.9497 16.8198 81.3955 15.5889L63.2412 0.953126C62.5879 0.412598 61.857 0.180176 61.0991 0.180176C59.3848 0.180176 58.4248 1.07276 58.4248 2.7417L58.4248 14.5996L22.5884 14.5996C8.97803 14.5996 0 22.2695 0 35.396L0 40.2876C0 42.2529 1.40967 43.6963 3.42383 43.6963Z" fill="#000000" fill-opacity="0.85"/>
 </g>
</svg>
