<?xml version="1.0" encoding="UTF-8"?>
<!--Generator: Apple Native CoreSVG 232.5-->
<!DOCTYPE svg
PUBLIC "-//W3C//DTD SVG 1.1//EN"
       "http://www.w3.org/Graphics/SVG/1.1/DTD/svg11.dtd">
<svg version="1.1" xmlns="http://www.w3.org/2000/svg" xmlns:xlink="http://www.w3.org/1999/xlink" width="97.9595" height="97.9932">
 <g>
  <rect height="97.9932" opacity="0" width="97.9595" x="0" y="0"/>
  <path d="M97.9595 48.9722C97.9595 75.7759 75.8247 97.9443 48.9722 97.9443C22.1685 97.9443 0 75.7759 0 48.9722C0 22.1348 22.1348 0 48.9385 0C75.791 0 97.9595 22.1348 97.9595 48.9722ZM73.856 50.5264L73.856 52.9883C73.856 58.0728 70.3237 61.4063 65.1231 61.4063L45.4385 61.4063L45.4385 54.9629C45.4385 53.5869 44.5796 52.7583 43.249 52.7583C42.6714 52.7583 41.9927 52.9907 41.4858 53.3848L30.3628 62.3242C29.1284 63.3296 29.1284 65.0186 30.3628 66.0088L41.4858 75.0005C42.0264 75.4282 42.6714 75.6758 43.249 75.6758C44.5796 75.6758 45.4385 74.8135 45.4385 73.4224L45.4385 66.7334L64.7676 66.7334C73.5371 66.7334 79.2774 61.3941 79.2774 53.2241L79.2774 50.5264C79.2774 49.0005 78.1338 47.8569 76.6079 47.8569C74.9995 47.8569 73.856 49.0005 73.856 50.5264ZM52.7061 24.7173L52.7061 31.4062L33.377 31.4062C24.6074 31.4062 18.852 36.7607 18.852 44.897L18.852 47.6284C18.852 49.0869 20.063 50.2979 21.5366 50.2979C23.0962 50.2979 24.2734 49.0869 24.2734 47.6284L24.2734 45.1328C24.2734 40.082 27.8057 36.7485 33.0215 36.7485L52.7061 36.7485L52.7061 43.1919C52.7061 44.6016 53.5835 45.4302 54.8955 45.4302C55.4732 45.4302 56.1367 45.2163 56.6773 44.7886L67.7666 35.8306C69.001 34.8252 69.001 33.1699 67.7666 32.1797L56.6773 23.1728C56.1367 22.7451 55.4732 22.5127 54.8955 22.5127C53.5835 22.5127 52.7061 23.375 52.7061 24.7173Z" fill="#000000" fill-opacity="0.85"/>
 </g>
</svg>
