<?xml version="1.0" encoding="UTF-8"?>
<!--Generator: Apple Native CoreSVG 232.5-->
<!DOCTYPE svg
PUBLIC "-//W3C//DTD SVG 1.1//EN"
       "http://www.w3.org/Graphics/SVG/1.1/DTD/svg11.dtd">
<svg version="1.1" xmlns="http://www.w3.org/2000/svg" xmlns:xlink="http://www.w3.org/1999/xlink" width="97.9595" height="97.9932">
 <g>
  <rect height="97.9932" opacity="0" width="97.9595" x="0" y="0"/>
  <path d="M48.9722 97.9443C75.8247 97.9443 97.9595 75.7759 97.9595 48.9722C97.9595 22.1348 75.791 0 48.9385 0C22.1348 0 0 22.1348 0 48.9722C0 75.7759 22.1685 97.9443 48.9722 97.9443ZM48.9722 91.6113C25.3501 91.6113 6.36671 72.5942 6.36671 48.9722C6.36671 25.3501 25.3164 6.31789 48.9385 6.31789C72.5605 6.31789 91.6265 25.3501 91.6265 48.9722C91.6265 72.5942 72.5942 91.6113 48.9722 91.6113Z" fill="#000000" fill-opacity="0.85"/>
  <path d="M27.1689 44.5601C23.6948 46.6499 23.7622 51.3652 27.1016 53.354L55.9746 70.582C59.1641 72.4883 63.5156 71.0874 63.5156 66.7559L63.5156 31.064C63.5156 26.7324 59.1641 25.2979 55.9746 27.2378ZM32.5879 48.3359L56.3311 34.0445C57.0684 33.6118 57.4858 33.9468 57.4858 34.4317L57.4858 63.4033C57.4858 63.873 57.0684 64.1743 56.3311 63.7754L32.6216 49.6118C32.0274 49.2769 32.0947 48.6709 32.5879 48.3359Z" fill="#000000" fill-opacity="0.85"/>
 </g>
</svg>
