<?xml version="1.0" encoding="UTF-8"?>
<!--Generator: Apple Native CoreSVG 232.5-->
<!DOCTYPE svg
PUBLIC "-//W3C//DTD SVG 1.1//EN"
       "http://www.w3.org/Graphics/SVG/1.1/DTD/svg11.dtd">
<svg version="1.1" xmlns="http://www.w3.org/2000/svg" xmlns:xlink="http://www.w3.org/1999/xlink" width="133.725" height="118.115">
 <g>
  <rect height="118.115" opacity="0" width="133.725" x="0" y="0"/>
  <path d="M33.1988 36.5511C28.9221 42.9678 26.439 50.6965 26.439 59.0333C26.439 81.4498 44.4795 99.4903 66.8623 99.4903C75.1953 99.4903 82.9254 97.0002 89.3442 92.715L93.7646 97.1369C86.1421 102.598 76.8365 105.808 66.8623 105.808C41.2456 105.808 20.0723 84.6349 20.0723 59.0333C20.0723 49.036 23.2859 39.7239 28.7543 32.1051ZM18.8178 22.1653C18.7443 22.2941 18.6578 22.4196 18.5615 22.5421C10.9126 32.7169 6.36671 45.3228 6.36671 59.0333C6.36671 72.7101 10.9126 85.3497 18.5615 95.4269C19.6748 96.941 19.4912 98.7398 18.1421 99.8902C16.6431 101.089 14.6909 100.94 13.5254 99.3395C5.05957 88.1456 0 74.2091 0 59.0333C0 43.8575 5.05957 29.9176 13.5254 18.6934C13.7997 18.3235 14.1214 18.0313 14.4733 17.8194ZM120.199 18.6934C128.699 29.9176 133.725 43.8575 133.725 59.0333C133.725 74.2091 128.699 88.1456 120.199 99.3395C119.938 99.6985 119.637 99.9845 119.31 100.195L114.924 95.8072C114.993 95.6785 115.074 95.5517 115.163 95.4269C122.846 85.3497 127.358 72.7101 127.358 59.0333C127.358 45.3228 122.846 32.7169 115.163 22.5421C114.084 21.1256 114.23 19.2931 115.583 18.1427C117.066 16.9586 119.049 17.1422 120.199 18.6934ZM113.686 59.0333C113.686 68.9938 110.476 78.2841 105.016 85.8952L100.595 81.4734C104.882 75.0612 107.366 67.3443 107.353 59.0333C107.319 36.5831 89.2451 18.5426 66.8286 18.5426C58.5297 18.5426 50.8324 21.0226 44.4382 25.2978L40.0084 20.8665C47.61 15.433 56.8838 12.2433 66.8286 12.2433C92.479 12.2433 113.686 33.4166 113.686 59.0333ZM46.1912 49.5478C42.2892 50.6538 39.8213 54.21 39.8213 59.0333C39.8213 64.899 43.4712 68.8116 48.9058 68.8116C52.0186 68.8116 54.5777 67.3302 58.0205 64.1583L59.4652 62.8261L62.75 66.1121L61.2525 67.525C57.124 71.4127 53.4248 73.4684 48.9058 73.4684C40.7344 73.4684 35.1646 67.6324 35.1646 59.0333C35.1646 52.903 37.9953 48.1539 42.591 45.9464ZM98.688 59.0333C98.688 65.1604 95.82 69.8847 91.2055 72.0806L87.574 68.4478C91.5159 67.3578 94.0464 63.8251 94.0464 59.0333C94.0464 53.1676 90.3023 49.1759 84.8677 49.1759C81.9434 49.191 79.4146 50.5025 75.8018 53.878L74.3466 55.2161L71.0599 51.9282L72.521 50.5416C76.9136 46.3409 80.5186 44.5528 84.8677 44.5528C93.0391 44.5528 98.688 50.4342 98.688 59.0333Z" fill="#000000" fill-opacity="0.85"/>
  <path d="M115.973 112.215C117.105 113.347 119.002 113.347 120.1 112.215C121.277 111.038 121.247 109.22 120.1 108.088L18.3677 6.35652C17.251 5.23982 15.4185 5.16072 14.2075 6.35652C13.1094 7.45467 13.1094 9.35115 14.2075 10.483Z" fill="#000000" fill-opacity="0.85"/>
 </g>
</svg>
