<?xml version="1.0" encoding="UTF-8"?>
<!--Generator: Apple Native CoreSVG 232.5-->
<!DOCTYPE svg
PUBLIC "-//W3C//DTD SVG 1.1//EN"
       "http://www.w3.org/Graphics/SVG/1.1/DTD/svg11.dtd">
<svg version="1.1" xmlns="http://www.w3.org/2000/svg" xmlns:xlink="http://www.w3.org/1999/xlink" width="101.332" height="93.1133">
 <g>
  <rect height="93.1133" opacity="0" width="101.332" x="0" y="0"/>
  <path d="M32.5894 88.0288C34.5903 88.0288 35.8906 86.6797 35.8906 84.7915C35.8906 83.8247 35.5571 83.0786 35.0064 82.4941L19.5479 67.3052L7.9717 56.8931L7.31984 58.4732L21.0034 58.9751L86.7173 58.9751C96.7622 58.9751 101.332 54.0835 101.332 44.0474L101.332 14.6148C101.332 4.55469 96.7622 0 86.7173 0L56.8003 0C54.7959 0 53.4619 1.45362 53.4619 3.271C53.4619 5.07326 54.7808 6.54201 56.7852 6.54201L86.7173 6.54201C92.1201 6.54201 94.7563 9.21193 94.7563 14.6148L94.7563 44.0474C94.7563 49.7632 92.105 52.4331 86.7173 52.4331L21.0034 52.4331L7.31984 52.8862L7.9717 54.4815L19.5479 44.103L35.0064 28.8989C35.5571 28.3145 35.8906 27.5498 35.8906 26.583C35.8906 24.7285 34.5903 23.3457 32.5894 23.3457C31.791 23.3457 30.8696 23.7315 30.2363 24.3648L1.10157 53.2349C0.367188 53.9356 0 54.771 0 55.7041C0 56.6035 0.367188 57.4575 1.10157 58.1582L30.2363 87.0283C30.8696 87.6616 31.791 88.0288 32.5894 88.0288Z" fill="#000000" fill-opacity="0.85"/>
 </g>
</svg>
