<?xml version="1.0" encoding="UTF-8"?>
<!--Generator: Apple Native CoreSVG 232.5-->
<!DOCTYPE svg
PUBLIC "-//W3C//DTD SVG 1.1//EN"
       "http://www.w3.org/Graphics/SVG/1.1/DTD/svg11.dtd">
<svg version="1.1" xmlns="http://www.w3.org/2000/svg" xmlns:xlink="http://www.w3.org/1999/xlink" width="91.6602" height="97.8545">
 <g>
  <rect height="97.8545" opacity="0" width="91.6602" x="0" y="0"/>
  <path d="M5.76808 89.1211L81.4038 89.1211C86.8208 89.1211 89.1548 86.7871 89.1548 81.355L89.1548 5.73438C89.1548 2.19776 86.9351 0 83.5601 0C81.4566 0 79.8887 0.959963 78.272 2.57666L2.5918 78.2568C0.993654 79.8887 0 81.4077 0 83.5601C0 86.9199 2.21289 89.1211 5.76808 89.1211ZM8.7715 83.0239C8.19924 83.0239 7.86086 82.7832 7.86086 82.3506C7.86086 82.0982 7.92482 81.8574 8.30861 81.5073L81.5225 8.27492C81.8726 7.92482 82.1133 7.81203 82.3843 7.81203C82.8169 7.81203 83.0239 8.16555 83.0239 8.73781L83.0239 80.6358C83.0239 82.6216 82.6553 83.0239 80.6358 83.0239Z" fill="#000000" fill-opacity="0.85"/>
 </g>
</svg>
