<?xml version="1.0" encoding="UTF-8"?>
<!--Generator: Apple Native CoreSVG 232.5-->
<!DOCTYPE svg
PUBLIC "-//W3C//DTD SVG 1.1//EN"
       "http://www.w3.org/Graphics/SVG/1.1/DTD/svg11.dtd">
<svg version="1.1" xmlns="http://www.w3.org/2000/svg" xmlns:xlink="http://www.w3.org/1999/xlink" width="136.817" height="71.5889">
 <g>
  <rect height="71.5889" opacity="0" width="136.817" x="0" y="0"/>
  <path d="M3.10304 71.5889L8.89064 71.5889C11.1997 71.5889 12.377 70.5059 13.0708 68.7393C22.0064 46.6167 31.0093 24.4453 39.9785 2.30762C40.4956 1.10498 39.8657 0.0673831 38.5957 0.0673831L35.9971 0.0673831C34.6968 0.0673831 33.8799 0.655276 33.3291 1.77198C22.3442 23.5947 11.457 45.4478 0.472175 67.3193C-0.607417 69.3252 0.17237 71.5889 3.10304 71.5889ZM127.941 71.5889L133.748 71.5889C136.66 71.5889 137.424 69.3252 136.36 67.3193C125.442 45.4478 114.473 23.5947 103.522 1.77198C102.952 0.655276 102.135 0.0673831 100.835 0.0673831L98.2212 0.0673831C96.9512 0.0673831 96.355 1.10498 96.8384 2.30762C105.808 24.4453 114.811 46.6167 123.746 68.7393C124.44 70.5059 125.617 71.5889 127.941 71.5889ZM67.5654 12.2925L69.1992 12.2925C70.7471 12.2925 71.9766 11.0967 71.9766 9.51514C71.9766 7.29786 71.9766 5.06202 71.9766 2.84473C71.9766 1.24805 70.7471 0.0673831 69.1992 0.0673831L67.5654 0.0673831C66.0025 0.0673831 64.7881 1.24805 64.7881 2.84473C64.7881 5.06202 64.7881 7.29786 64.7881 9.51514C64.7881 11.0967 66.0025 12.2925 67.5654 12.2925ZM67.5654 39.8975L69.1992 39.8975C70.7471 39.8975 71.9766 38.7354 71.9766 37.1538C71.9766 33.5845 71.9766 29.9326 71.9766 26.3633C71.9766 24.7666 70.7471 23.6196 69.1992 23.6196L67.5654 23.6196C66.0025 23.6196 64.7881 24.7666 64.7881 26.3633C64.7881 29.9326 64.7881 33.5845 64.7881 37.1538C64.7881 38.7354 66.0025 39.8975 67.5654 39.8975ZM67.5654 71.5889L69.1992 71.5889C70.7471 71.5889 71.9766 70.4082 71.9766 68.8115C71.9766 64.1729 71.9766 59.5005 71.9766 54.813C71.9766 53.2314 70.7471 52.0693 69.1992 52.0693L67.5654 52.0693C66.0025 52.0693 64.7881 53.2314 64.7881 54.813C64.7881 59.5005 64.7881 64.1729 64.7881 68.8115C64.7881 70.4082 66.0025 71.5889 67.5654 71.5889Z" fill="#000000" fill-opacity="0.85"/>
 </g>
</svg>
