<?xml version="1.0" encoding="UTF-8"?>
<!--Generator: Apple Native CoreSVG 232.5-->
<!DOCTYPE svg
PUBLIC "-//W3C//DTD SVG 1.1//EN"
       "http://www.w3.org/Graphics/SVG/1.1/DTD/svg11.dtd">
<svg version="1.1" xmlns="http://www.w3.org/2000/svg" xmlns:xlink="http://www.w3.org/1999/xlink" width="100.933" height="99.1807">
 <g>
  <rect height="99.1807" opacity="0" width="100.933" x="0" y="0"/>
  <path d="M15.3506 26.1997L94.7183 26.1997C96.6026 26.1997 97.9009 24.9165 97.9009 23.0777L97.9009 14.8911C97.9009 13.1011 96.6026 11.7842 94.7183 11.7842L15.3506 11.7842C13.4663 11.7842 12.1192 13.1011 12.1192 14.8911L12.1192 23.0777C12.1192 24.9165 13.4663 26.1997 15.3506 26.1997ZM19.7202 45.6436L90.2998 45.6436C92.1841 45.6436 93.5313 44.3116 93.5313 42.5064L93.5313 31.8565L16.5225 31.8565L16.5225 42.5064C16.5225 44.3116 17.836 45.6436 19.7202 45.6436Z" fill="#000000" fill-opacity="0.85"/>
  <path d="M0.328124 3.01319C0.328124 4.66212 1.71094 6.04494 3.35987 6.04494L97.9009 6.04494C99.5498 6.04494 100.933 4.66212 100.933 3.01319C100.933 1.34912 99.5498 0 97.9009 0L3.35987 0C1.71094 0 0.328124 1.34912 0.328124 3.01319ZM3.35987 17.5396C4.92432 17.5396 6.19581 16.2681 6.19581 14.7188C6.19581 13.1357 4.92432 11.898 3.35987 11.898C1.77686 11.898 0.505373 13.1357 0.505373 14.7188C0.505373 16.2681 1.77686 17.5396 3.35987 17.5396ZM3.35987 28.9585C4.92432 28.9585 6.19581 27.6533 6.19581 26.104C6.19581 24.5547 4.92432 23.2681 3.35987 23.2681C1.77686 23.2681 0.505373 24.5547 0.505373 26.104C0.505373 27.6533 1.77686 28.9585 3.35987 28.9585ZM3.35987 40.374C4.92432 40.374 6.19581 39.1025 6.19581 37.5381C6.19581 35.9551 4.92432 34.7173 3.35987 34.7173C1.77686 34.7173 0.505373 35.9551 0.505373 37.5381C0.505373 39.1025 1.77686 40.374 3.35987 40.374ZM3.35987 51.793C4.92432 51.793 6.19581 50.4878 6.19581 48.9233C6.19581 47.374 4.92432 46.1025 3.35987 46.1025C1.77686 46.1025 0.505373 47.374 0.505373 48.9233C0.505373 50.4878 1.77686 51.793 3.35987 51.793ZM3.35987 63.1934C4.92432 63.1934 6.19581 61.9219 6.19581 60.3726C6.19581 58.7744 4.92432 57.5366 3.35987 57.5366C1.77686 57.5366 0.505373 58.7744 0.505373 60.3726C0.505373 61.9219 1.77686 63.1934 3.35987 63.1934ZM3.35987 74.6123C4.92432 74.6123 6.19581 73.3071 6.19581 71.7578C6.19581 70.1934 4.92432 68.9219 3.35987 68.9219C1.77686 68.9219 0.505373 70.1934 0.505373 71.7578C0.505373 73.3071 1.77686 74.6123 3.35987 74.6123ZM3.35987 99.1167C4.95997 99.1167 6.37306 97.7676 6.37306 96.1186L6.37306 83.3691C6.37306 81.7202 5.02394 80.3711 3.35987 80.3711C1.71094 80.3711 0.358397 81.7202 0.358397 83.3691L0.358397 96.1186C0.358397 97.7676 1.74121 99.1167 3.35987 99.1167Z" fill="#000000" fill-opacity="0.85"/>
 </g>
</svg>
