<?xml version="1.0" encoding="UTF-8"?>
<!--Generator: Apple Native CoreSVG 232.5-->
<!DOCTYPE svg
PUBLIC "-//W3C//DTD SVG 1.1//EN"
       "http://www.w3.org/Graphics/SVG/1.1/DTD/svg11.dtd">
<svg version="1.1" xmlns="http://www.w3.org/2000/svg" xmlns:xlink="http://www.w3.org/1999/xlink" width="75.9566" height="109.912">
 <g>
  <rect height="109.912" opacity="0" width="75.9566" x="0" y="0"/>
  <path d="M1.50516e-05 38.1357C1.50516e-05 49.0049 4.66945 58.8906 12.0718 65.8076L12.1055 104.277C12.1055 106.632 13.3618 107.762 15.0611 107.762C16.6187 107.762 17.7066 106.846 18.8282 105.709L35.3028 89.2984C36.5147 88.1538 37.2974 87.7398 38.0347 87.7398C38.7569 87.7398 39.5581 88.1538 40.7363 89.2984L57.1807 105.709C58.3814 106.91 59.5029 107.762 60.9478 107.762C62.7598 107.762 63.9673 106.632 63.9673 104.277L63.9673 65.6914C71.3023 58.793 75.9229 48.9561 75.9566 38.1357C75.9751 17.1509 58.836 0 37.9707 0C17.0869 0 1.50516e-05 17.1509 1.50516e-05 38.1357ZM6.0972 38.1357C6.0972 20.3174 20.1826 5.97755 38.0044 5.97755C55.8076 5.97755 69.8779 20.3174 69.9116 38.1357C69.9453 55.9204 55.8076 70.2754 38.0044 70.2417C20.1826 70.208 6.0972 55.9204 6.0972 38.1357Z" fill="#000000" fill-opacity="0.85"/>
 </g>
</svg>
