<?xml version="1.0" encoding="UTF-8"?>
<!--Generator: Apple Native CoreSVG 232.5-->
<!DOCTYPE svg
PUBLIC "-//W3C//DTD SVG 1.1//EN"
       "http://www.w3.org/Graphics/SVG/1.1/DTD/svg11.dtd">
<svg version="1.1" xmlns="http://www.w3.org/2000/svg" xmlns:xlink="http://www.w3.org/1999/xlink" width="97.9595" height="97.9932">
 <g>
  <rect height="97.9932" opacity="0" width="97.9595" x="0" y="0"/>
  <path d="M97.9595 49.021C97.9595 75.8584 75.8247 97.9932 48.9722 97.9932C22.1685 97.9932 0 75.8584 0 49.021C0 22.2173 22.1348 0.0488281 48.9385 0.0488281C75.791 0.0488281 97.9595 22.2173 97.9595 49.021ZM48.9722 59.6489C46.6978 59.6489 44.5176 59.585 42.4502 59.457C43.398 70.8457 45.9619 77.9326 49.0176 77.9326C63.0732 77.9175 74.8862 67.6318 77.419 54.3003C72.1567 57.5361 61.8272 59.6489 48.9722 59.6489ZM43.6743 77.4678C41.3662 73.7026 39.5732 67.2944 38.7803 59.1943C30.7139 58.3862 24.3242 56.6421 20.5405 54.3003C22.7398 65.9697 32.0234 75.2534 43.6743 77.4678ZM42.0781 49.021C42.0781 51.3779 42.1572 53.6221 42.2515 55.7568C44.3525 55.8511 46.6152 55.915 48.9722 55.915C66.2119 55.915 77.8198 52.8545 77.8838 49.0059C77.8838 33.1904 64.7842 20.1094 48.9688 20.1094C45.1201 20.1885 42.0781 31.7813 42.0781 49.021ZM20.0606 48.9756C20.0606 52.0464 27.1289 54.5767 38.5176 55.543C38.3897 53.4419 38.3106 51.2954 38.3106 49.021C38.3106 36.1812 40.4233 25.8853 43.6743 20.5742C30.3613 23.1221 20.1245 34.9688 20.0606 48.9756Z" fill="#000000" fill-opacity="0.85"/>
 </g>
</svg>
