<?xml version="1.0" encoding="UTF-8"?>
<!--Generator: Apple Native CoreSVG 232.5-->
<!DOCTYPE svg
PUBLIC "-//W3C//DTD SVG 1.1//EN"
       "http://www.w3.org/Graphics/SVG/1.1/DTD/svg11.dtd">
<svg version="1.1" xmlns="http://www.w3.org/2000/svg" xmlns:xlink="http://www.w3.org/1999/xlink" width="97.9595" height="97.9932">
 <g>
  <rect height="97.9932" opacity="0" width="97.9595" x="0" y="0"/>
  <path d="M48.9722 97.9443C75.8247 97.9443 97.9595 75.7759 97.9595 48.9722C97.9595 22.1348 75.791 0 48.9385 0C22.1348 0 0 22.1348 0 48.9722C0 75.7759 22.1685 97.9443 48.9722 97.9443ZM48.9722 91.6113C25.3501 91.6113 6.36671 72.5942 6.36671 48.9722C6.36671 25.3501 25.3164 6.31789 48.9385 6.31789C72.5605 6.31789 91.6265 25.3501 91.6265 48.9722C91.6265 72.5942 72.5942 91.6113 48.9722 91.6113Z" fill="#000000" fill-opacity="0.85"/>
  <path d="M38.7383 55.3931C38.6104 53.3257 38.5464 51.1792 38.5464 48.9722C38.5464 36.3867 40.6255 26.2442 43.7939 21.1016C30.7505 23.5483 20.7007 35.1743 20.6367 48.8931C20.6367 51.8965 27.5703 54.3931 38.7383 55.3931ZM42.3526 55.6069C44.4199 55.6675 46.6489 55.7651 48.9722 55.7651C65.8565 55.7651 77.2285 52.6895 77.3076 48.9419C77.3076 33.4634 64.4624 20.6367 48.9688 20.6367C45.1875 20.7158 42.1792 32.0879 42.1792 48.9722C42.1792 51.2954 42.2432 53.4722 42.3526 55.6069ZM39.001 58.9097C31.0542 58.1504 24.8145 56.3911 21.1167 54.1167C23.2637 65.5654 32.3789 74.6958 43.7939 76.8276C41.5195 73.145 39.7754 66.8564 39.001 58.9097ZM42.5513 59.1724C43.4839 70.3403 46.0142 77.3076 49.0176 77.3076C62.7852 77.2437 74.3623 67.1939 76.8428 54.1167C71.7002 57.2852 61.5728 59.3794 48.9722 59.3794C46.7315 59.3794 44.585 59.3003 42.5513 59.1724Z" fill="#000000" fill-opacity="0.85"/>
 </g>
</svg>
