<?xml version="1.0" encoding="UTF-8"?>
<!--Generator: Apple Native CoreSVG 232.5-->
<!DOCTYPE svg
PUBLIC "-//W3C//DTD SVG 1.1//EN"
       "http://www.w3.org/Graphics/SVG/1.1/DTD/svg11.dtd">
<svg version="1.1" xmlns="http://www.w3.org/2000/svg" xmlns:xlink="http://www.w3.org/1999/xlink" width="97.9595" height="97.9932">
 <g>
  <rect height="97.9932" opacity="0" width="97.9595" x="0" y="0"/>
  <path d="M31.4404 60.144C31.2183 56.5581 31.0903 52.8291 31.0903 48.9722C31.0903 27.0117 34.752 9.45558 40.2656 0.832033C17.5356 4.93262 0 25.1021 0 48.9722C0 54.144 12.1685 58.4976 31.4404 60.144ZM37.4517 60.459C41.0899 60.6475 44.9351 60.7754 48.9722 60.7754C78.1431 60.7754 97.9595 55.5718 97.9595 48.9722C97.9595 22.1348 75.791 0 48.9385 0C42.3389 0 37.1353 19.8164 37.1353 48.9722C37.1353 52.9756 37.2632 56.8359 37.4517 60.459ZM31.853 66.0576C17.9258 64.731 7.04737 61.6485 0.865725 57.6602C4.43067 77.5728 20.353 93.4951 40.2505 97.0786C36.2622 90.897 33.1948 79.9849 31.853 66.0576ZM37.7666 66.4702C39.4131 85.7422 43.7481 97.9107 48.9385 97.9443C72.8574 97.9443 93.0117 80.3902 97.0786 57.645C88.4888 63.1738 70.9326 66.8203 48.9722 66.8203C45.0816 66.8203 41.3677 66.6924 37.7666 66.4702Z" fill="#000000" fill-opacity="0.85"/>
 </g>
</svg>
