<?xml version="1.0" encoding="UTF-8"?>
<!--Generator: Apple Native CoreSVG 232.5-->
<!DOCTYPE svg
PUBLIC "-//W3C//DTD SVG 1.1//EN"
       "http://www.w3.org/Graphics/SVG/1.1/DTD/svg11.dtd">
<svg version="1.1" xmlns="http://www.w3.org/2000/svg" xmlns:xlink="http://www.w3.org/1999/xlink" width="119.311" height="118.766">
 <g>
  <rect height="118.766" opacity="0" width="119.311" x="0" y="0"/>
  <path d="M116.855 42.7969C118.197 42.7969 119.311 41.7021 119.311 40.375L119.311 32.9297C119.311 19.0102 109.757 9.51072 95.2442 9.51072L94.3096 9.51072L94.3096 2.93455C94.3096-0.0581317 91.878-0.812527 89.5674 0.905249L77.3535 9.63572C75.4087 11.0434 75.375 12.665 77.3535 14.0727L89.5674 22.7695C91.878 24.4536 94.3096 23.6992 94.3096 20.789L94.3096 14.1001L95.2105 14.1001C107.244 14.1001 114.433 22.1963 114.433 32.9751L114.433 40.375C114.433 41.7021 115.528 42.7969 116.855 42.7969Z" fill="#000000" fill-opacity="0.85"/>
  <path d="M35.2188 103.572L84.1069 103.572C91.6846 103.572 95.5205 99.9048 95.5205 92.1924L95.5205 43.5381C95.5205 35.8105 91.6846 32.1094 84.1069 32.1094L35.2188 32.1094C27.626 32.1094 23.79 35.8105 23.79 43.5381L23.79 92.1924C23.79 99.9048 27.626 103.572 35.2188 103.572Z" fill="#000000" fill-opacity="0.85"/>
 </g>
</svg>
