<?xml version="1.0" encoding="UTF-8"?>
<!--Generator: Apple Native CoreSVG 232.5-->
<!DOCTYPE svg
PUBLIC "-//W3C//DTD SVG 1.1//EN"
       "http://www.w3.org/Graphics/SVG/1.1/DTD/svg11.dtd">
<svg version="1.1" xmlns="http://www.w3.org/2000/svg" xmlns:xlink="http://www.w3.org/1999/xlink" width="109.998" height="83.086">
 <g>
  <rect height="83.086" opacity="0" width="109.998" x="0" y="0"/>
  <path d="M109.998 38.1533L109.998 69.147C109.998 78.2349 105.192 83.0371 96.0064 83.0371L13.9912 83.0371C4.79053 83.0371 0 78.2988 0 69.147L0 38.1533C0 12.7192 11.6475 0 38.999 0L70.9985 0C98.335 0 109.998 12.7192 109.998 38.1533ZM59.7964 21.9268C58.439 21.9268 57.4116 22.9541 57.4116 24.2778C57.4116 25.6201 58.439 26.6812 59.7964 26.6812L66.6836 26.6812L66.6836 58.9106C66.6836 60.4702 67.9282 61.7485 69.5029 61.7485C71.0625 61.7485 72.3408 60.4702 72.3408 58.9106L72.3408 26.6812L78.7451 26.6812C80.0689 26.6812 81.0962 25.6201 81.0962 24.2778C81.0962 22.9541 80.0689 21.9268 78.7451 21.9268ZM33.27 21.8848C31.4106 21.8848 30.3984 22.9644 30.3984 24.8052L30.3984 58.7036C30.3984 60.4805 31.4746 61.6914 33.3189 61.6914C35.0772 61.6914 36.1231 60.5142 36.1231 58.7036L36.1231 45.4946L41.7085 45.4946L47.4492 59.4429C48.0454 60.9048 48.8589 61.6914 50.4219 61.6914C51.7422 61.6914 53.0576 60.8359 53.0576 58.936C53.0576 58.5049 52.8403 57.7217 52.522 56.8862L47.1148 44.272C51.0513 42.4785 53.1538 38.5064 53.1538 33.6275C53.1538 26.1748 48.7354 21.8848 41.3638 21.8848ZM47.3955 33.7437C47.3955 38.0098 45.3652 41.1294 40.8652 41.1294L36.1231 41.1294L36.1231 26.4707L40.835 26.4707C44.9697 26.4707 47.3955 29.2656 47.3955 33.7437Z" fill="#000000" fill-opacity="0.85"/>
 </g>
</svg>
