<?xml version="1.0" encoding="UTF-8"?>
<!--Generator: Apple Native CoreSVG 232.5-->
<!DOCTYPE svg
PUBLIC "-//W3C//DTD SVG 1.1//EN"
       "http://www.w3.org/Graphics/SVG/1.1/DTD/svg11.dtd">
<svg version="1.1" xmlns="http://www.w3.org/2000/svg" xmlns:xlink="http://www.w3.org/1999/xlink" width="97.9595" height="97.9932">
 <g>
  <rect height="97.9932" opacity="0" width="97.9595" x="0" y="0"/>
  <path d="M48.9722 97.9443C75.8247 97.9443 97.9595 75.7759 97.9595 48.9722C97.9595 22.1348 75.791 0 48.9385 0C22.1348 0 0 22.1348 0 48.9722C0 75.7759 22.1685 97.9443 48.9722 97.9443ZM48.9722 91.6113C25.3501 91.6113 6.36671 72.5942 6.36671 48.9722C6.36671 25.3501 25.3164 6.31789 48.9385 6.31789C72.5605 6.31789 91.6265 25.3501 91.6265 48.9722C91.6265 72.5942 72.5942 91.6113 48.9722 91.6113Z" fill="#000000" fill-opacity="0.85"/>
  <path d="M27.1221 69.2158C28.8652 69.2158 29.9263 68.0723 29.9263 66.2617L29.9263 52.9331L35.5791 52.9331L41.3384 66.9673C41.9346 68.4292 42.7817 69.2158 44.311 69.2158C45.665 69.2158 46.9956 68.3941 46.9956 66.4605C46.9956 66.0293 46.7783 65.2798 46.4111 64.4443L40.9702 51.7105C44.9404 49.917 47.043 45.896 47.043 41.0322C47.043 33.5122 42.6245 29.1733 35.2192 29.1733L27.0732 29.1733C25.1987 29.1733 24.1865 30.3018 24.1865 32.1426L24.1865 66.2617C24.1865 68.0386 25.2778 69.2158 27.1221 69.2158ZM29.9263 48.6016L29.9263 33.8081L34.7056 33.8081C38.8252 33.8081 41.2847 36.6367 41.2847 41.1484C41.2847 45.4146 39.2207 48.6016 34.7207 48.6016ZM63.5269 69.273C65.0864 69.273 66.3648 68.0283 66.3648 66.4351L66.3648 34.0186L72.8027 34.0186C74.1265 34.0186 75.1875 32.9575 75.1875 31.6152C75.1875 30.2915 74.1265 29.2305 72.8027 29.2305L53.7529 29.2305C52.3955 29.2305 51.3345 30.2915 51.3345 31.6152C51.3345 32.9575 52.3955 34.0186 53.7529 34.0186L60.689 34.0186L60.689 66.4351C60.689 68.0283 61.9522 69.273 63.5269 69.273Z" fill="#000000" fill-opacity="0.85"/>
 </g>
</svg>
