<?xml version="1.0" encoding="UTF-8"?>
<!--Generator: Apple Native CoreSVG 232.5-->
<!DOCTYPE svg
PUBLIC "-//W3C//DTD SVG 1.1//EN"
       "http://www.w3.org/Graphics/SVG/1.1/DTD/svg11.dtd">
<svg version="1.1" xmlns="http://www.w3.org/2000/svg" xmlns:xlink="http://www.w3.org/1999/xlink" width="97.9595" height="97.9932">
 <g>
  <rect height="97.9932" opacity="0" width="97.9595" x="0" y="0"/>
  <path d="M48.9722 97.9443C75.8247 97.9443 97.9595 75.7759 97.9595 48.9722C97.9595 22.1348 75.791 0 48.9385 0C22.1348 0 0 22.1348 0 48.9722C0 75.7759 22.1685 97.9443 48.9722 97.9443ZM48.9722 91.6113C25.3501 91.6113 6.36671 72.5942 6.36671 48.9722C6.36671 25.3501 25.3164 6.31789 48.9385 6.31789C72.5605 6.31789 91.6265 25.3501 91.6265 48.9722C91.6265 72.5942 72.5942 91.6113 48.9722 91.6113Z" fill="#000000" fill-opacity="0.85"/>
  <path d="M40.6714 72.4326C42.1484 72.4326 43.1607 71.417 43.1607 69.8608L43.1607 63.8545L54.6167 63.8545C55.8057 63.8545 56.5972 63.0108 56.5972 61.8218C56.5972 60.6665 55.8057 59.8228 54.6167 59.8228L43.1607 59.8228L43.1607 54.7803L51.813 54.7803C60.7017 54.7803 66.1758 49.1494 66.1758 40.9898C66.1758 32.8638 60.7354 27.1655 51.8467 27.1655L40.6377 27.1655C39.127 27.1655 38.1299 28.1963 38.1299 29.771L38.1299 50.7822L33.6631 50.7822C32.4404 50.7822 31.6641 51.6411 31.6641 52.7964C31.6641 53.9517 32.4404 54.8291 33.6631 54.8291L38.1299 54.8291L38.1299 59.8228L33.7119 59.8228C32.5381 59.8228 31.7129 60.6665 31.7129 61.8218C31.7129 63.0108 32.5381 63.8545 33.7119 63.8545L38.1299 63.8545L38.1299 69.8911C38.1299 71.4321 39.2095 72.4326 40.6714 72.4326ZM43.1943 50.1724L43.1943 31.8594L51.1021 31.8594C57.6011 31.8594 61.0962 35.3799 61.0962 41.0234C61.0962 46.6856 57.5674 50.2398 51.1021 50.2398Z" fill="#000000" fill-opacity="0.85"/>
 </g>
</svg>
