<?xml version="1.0" encoding="UTF-8"?>
<!--Generator: Apple Native CoreSVG 232.5-->
<!DOCTYPE svg
PUBLIC "-//W3C//DTD SVG 1.1//EN"
       "http://www.w3.org/Graphics/SVG/1.1/DTD/svg11.dtd">
<svg version="1.1" xmlns="http://www.w3.org/2000/svg" xmlns:xlink="http://www.w3.org/1999/xlink" width="88.4092" height="88.5371">
 <g>
  <rect height="88.5371" opacity="0" width="88.4092" x="0" y="0"/>
  <path d="M88.4092 14.4019L88.4092 74.2632C88.4092 83.6558 83.5733 88.5371 74.0005 88.5371L14.3936 88.5371C4.86963 88.5371 0 83.7349 0 74.2632L0 14.4019C0 4.93018 4.86963 0.127929 14.3936 0.127929L74.0005 0.127929C83.5733 0.127929 88.4092 5.00928 88.4092 14.4019ZM35.7598 21.981C34.1816 21.981 33.1846 23.0605 33.1846 24.6538L33.1846 46.0879L28.6318 46.0879C27.4092 46.0879 26.5654 46.9653 26.5654 48.1543C26.5654 49.3433 27.4092 50.2544 28.6318 50.2544L33.1846 50.2544L33.1846 55.3491L28.6807 55.3491C27.458 55.3491 26.6479 56.2266 26.6479 57.4155C26.6479 58.6382 27.458 59.482 28.6807 59.482L33.1846 59.482L33.1846 65.6045C33.1846 67.1943 34.2793 68.2285 35.7935 68.2285C37.3042 68.2285 38.3838 67.1792 38.3838 65.5894L38.3838 59.482L50.042 59.482C51.2495 59.482 52.0747 58.6382 52.0747 57.4155C52.0747 56.2266 51.2495 55.3491 50.042 55.3491L38.3838 55.3491L38.3838 50.2056L47.1895 50.2056C56.2315 50.2056 61.8403 44.4551 61.8403 36.0933C61.8403 27.7988 56.2651 21.981 47.2232 21.981ZM56.6074 36.127C56.6074 41.939 53.0112 45.5454 46.4448 45.5454L38.4175 45.478L38.4175 26.8096L46.4448 26.8096C53.0449 26.8096 56.6074 30.3823 56.6074 36.127Z" fill="#000000" fill-opacity="0.85"/>
 </g>
</svg>
