<?xml version="1.0" encoding="UTF-8"?>
<!--Generator: Apple Native CoreSVG 232.5-->
<!DOCTYPE svg
PUBLIC "-//W3C//DTD SVG 1.1//EN"
       "http://www.w3.org/Graphics/SVG/1.1/DTD/svg11.dtd">
<svg version="1.1" xmlns="http://www.w3.org/2000/svg" xmlns:xlink="http://www.w3.org/1999/xlink" width="88.4092" height="88.5371">
 <g>
  <rect height="88.5371" opacity="0" width="88.4092" x="0" y="0"/>
  <path d="M14.3936 88.5371L74.0005 88.5371C83.5733 88.5371 88.4092 83.6558 88.4092 74.2632L88.4092 14.4019C88.4092 5.00928 83.5733 0.127929 74.0005 0.127929L14.3936 0.127929C4.86963 0.127929 0 4.93018 0 14.4019L0 74.2632C0 83.7349 4.86963 88.5371 14.3936 88.5371ZM14.5064 82.4922C9.00294 82.4922 6.04494 79.6016 6.04494 73.9634L6.04494 14.7017C6.04494 9.06349 9.00294 6.17287 14.5064 6.17287L73.9028 6.17287C79.2969 6.17287 82.3643 9.06349 82.3643 14.7017L82.3643 73.9634C82.3643 79.6016 79.2969 82.4922 73.9028 82.4922Z" fill="#000000" fill-opacity="0.85"/>
  <path d="M35.9619 67.7046C37.439 67.7046 38.4849 66.689 38.4849 65.1328L38.4849 59.1265L49.9072 59.1265C51.0962 59.1265 51.8726 58.2827 51.8726 57.0938C51.8726 55.9385 51.0962 55.0947 49.9072 55.0947L38.4849 55.0947L38.4849 50.0523L47.1221 50.0523C55.9771 50.0523 61.4512 44.4214 61.4512 36.2617C61.4512 28.1357 56.0108 22.4375 47.1558 22.4375L35.9282 22.4375C34.4175 22.4375 33.439 23.4683 33.439 25.043L33.439 46.0542L28.9536 46.0542C27.7646 46.0542 26.9395 46.9131 26.9395 48.0684C26.9395 49.2236 27.7646 50.1011 28.9536 50.1011L33.439 50.1011L33.439 55.0947L29.0024 55.0947C27.8135 55.0947 27.0371 55.9385 27.0371 57.0938C27.0371 58.2827 27.8135 59.1265 29.0024 59.1265L33.439 59.1265L33.439 65.1631C33.439 66.7041 34.5 67.7046 35.9619 67.7046ZM38.5034 45.4443L38.5034 27.1314L46.4111 27.1314C52.8765 27.1314 56.3867 30.6519 56.3867 36.2954C56.3867 41.9575 52.8428 45.5117 46.4111 45.5117Z" fill="#000000" fill-opacity="0.85"/>
 </g>
</svg>
