<?xml version="1.0" encoding="UTF-8"?>
<!--Generator: Apple Native CoreSVG 232.5-->
<!DOCTYPE svg
PUBLIC "-//W3C//DTD SVG 1.1//EN"
       "http://www.w3.org/Graphics/SVG/1.1/DTD/svg11.dtd">
<svg version="1.1" xmlns="http://www.w3.org/2000/svg" xmlns:xlink="http://www.w3.org/1999/xlink" width="117.178" height="50.4658">
 <g>
  <rect height="50.4658" opacity="0" width="117.178" x="0" y="0"/>
  <path d="M117.178 12.5479C117.178 4.41992 112.777 0.0185549 104.597 0.0185549L12.5967 0.0185549C4.40137 0.0185549 0 4.38623 0 12.5479L0 37.9365C0 46.0493 4.43506 50.4658 12.6152 50.4658L104.597 50.4658C112.811 50.4658 117.178 46.0493 117.178 37.9365ZM14.3355 6.60695L14.3355 28.8765C14.3355 29.8936 13.6602 30.6362 12.6245 30.6362C11.6226 30.6362 10.8799 29.9121 10.8799 28.9102L10.8799 6.60695ZM23.5659 6.60695L23.5659 20.3433C23.5659 21.3941 22.8755 22.103 21.8062 22.103C20.853 22.103 20.0952 21.4126 20.0952 20.3618L20.0952 6.60695ZM32.7813 6.60695L32.7813 20.3433C32.7813 21.3941 32.0571 22.103 31.0366 22.103C30.0684 22.103 29.3257 21.4126 29.3257 20.3618L29.3257 6.60695ZM41.9292 6.60695L41.9292 20.3433C41.9292 21.3941 41.2388 22.103 40.2183 22.103C39.2163 22.103 38.4736 21.4126 38.4736 20.3618L38.4736 6.60695ZM51.1445 6.60695L51.1445 20.3433C51.1445 21.3941 50.4692 22.103 49.3999 22.103C48.4468 22.103 47.689 21.4126 47.689 20.3618L47.689 6.60695ZM60.3565 6.60695L60.3565 28.8765C60.3565 29.8936 59.666 30.6362 58.6118 30.6362C57.6436 30.6362 56.9009 29.9121 56.9009 28.9102L56.9009 6.60695ZM69.5718 6.60695L69.5718 20.3433C69.5718 21.3941 68.8628 22.103 67.8272 22.103C66.874 22.103 66.1162 21.4126 66.1162 20.3618L66.1162 6.60695ZM78.7686 6.60695L78.7686 20.3433C78.7686 21.3941 78.0781 22.103 77.0576 22.103C76.0557 22.103 75.2979 21.4126 75.2979 20.3618L75.2979 6.60695ZM87.9502 6.60695L87.9502 20.3433C87.9502 21.3941 87.2598 22.103 86.2056 22.103C85.2373 22.103 84.4946 21.4126 84.4946 20.3618L84.4946 6.60695ZM97.1655 6.60695L97.1655 20.3433C97.1655 21.3941 96.4566 22.103 95.4209 22.103C94.4678 22.103 93.71 21.4126 93.71 20.3618L93.71 6.60695ZM106.298 6.60695L106.298 28.8765C106.298 29.8936 105.623 30.6362 104.587 30.6362C103.601 30.6362 102.843 29.9121 102.843 28.9102L102.843 6.60695Z" fill="#000000" fill-opacity="0.85"/>
 </g>
</svg>
