<?xml version="1.0" encoding="UTF-8"?>
<!--Generator: Apple Native CoreSVG 232.5-->
<!DOCTYPE svg
PUBLIC "-//W3C//DTD SVG 1.1//EN"
       "http://www.w3.org/Graphics/SVG/1.1/DTD/svg11.dtd">
<svg version="1.1" xmlns="http://www.w3.org/2000/svg" xmlns:xlink="http://www.w3.org/1999/xlink" width="88.4092" height="88.5371">
 <g>
  <rect height="88.5371" opacity="0" width="88.4092" x="0" y="0"/>
  <path d="M88.4092 14.4019L88.4092 74.2632C88.4092 83.6558 83.5733 88.5371 74.0005 88.5371L14.3936 88.5371C4.86963 88.5371 0 83.7349 0 74.2632L0 14.4019C0 4.93018 4.86963 0.127929 14.3936 0.127929L74.0005 0.127929C83.5733 0.127929 88.4092 5.00928 88.4092 14.4019ZM47.856 42.2271C47.856 46.7617 49.6729 49.7573 53.9819 51.9566L56.0596 53.0459C58.7349 54.4097 59.8242 56.1489 59.8242 59.0581C59.8242 62.2149 58.4673 63.9741 55.979 63.9741C53.4351 63.9741 52.0733 61.9033 51.8745 58.4302C51.7735 56.8218 50.9331 55.877 49.606 55.877C48.1963 55.877 47.3525 56.9194 47.3525 58.5127C47.3525 59.1289 47.3677 59.7451 47.4805 60.3428C48.1421 65.2427 51.2017 68.3496 55.9151 68.3496C61.1216 68.3496 64.4507 64.6753 64.4507 58.7734C64.4507 53.9712 62.814 51.1743 58.2373 48.7007L56.2539 47.6416C53.5532 46.2105 52.4756 44.7153 52.4756 42.0923C52.4756 39.1948 53.686 37.417 55.8814 37.417C58.3159 37.417 59.2568 39.2017 59.565 42.9424C59.6509 44.4868 60.4541 45.4653 61.7847 45.4653C63.1641 45.4653 64.023 44.4531 64.023 42.8599C64.023 42.4439 63.9893 42.0649 63.9707 41.6489C63.5093 36.6348 61.0034 32.9438 55.9151 32.9438C51.084 32.9438 47.856 36.6299 47.856 42.2271ZM29.6572 21.8574C28.1382 21.8574 27.1934 22.8545 27.1934 24.5757L27.1934 65.5942C27.1934 67.2549 28.1196 68.3159 29.4805 68.3159C30.8413 68.3159 31.835 67.3374 31.835 65.7105L31.835 48.6392L34.8413 48.6392L41.4243 66.6099C41.8857 67.8545 42.6504 68.3008 43.7114 68.3008C45.084 68.3008 45.9497 67.2734 45.9497 65.9463C45.9497 65.3989 45.8672 65.0469 45.6836 64.4321L39.4121 47.6909C43.5557 45.8823 45.8623 40.9302 45.8623 35.0151C45.8623 26.2085 42.3027 21.8574 35.2627 21.8574ZM41.123 35.165C41.123 40.9653 39.1533 44.0127 34.8433 44.0127L31.835 44.0127L31.835 26.5479L34.9629 26.5479C39.1836 26.5479 41.123 29.459 41.123 35.165Z" fill="#000000" fill-opacity="0.85"/>
 </g>
</svg>
