<?xml version="1.0" encoding="UTF-8"?>
<!--Generator: Apple Native CoreSVG 232.5-->
<!DOCTYPE svg
PUBLIC "-//W3C//DTD SVG 1.1//EN"
       "http://www.w3.org/Graphics/SVG/1.1/DTD/svg11.dtd">
<svg version="1.1" xmlns="http://www.w3.org/2000/svg" xmlns:xlink="http://www.w3.org/1999/xlink" width="88.4092" height="88.5371">
 <g>
  <rect height="88.5371" opacity="0" width="88.4092" x="0" y="0"/>
  <path d="M14.3936 88.5371L74.0005 88.5371C83.5733 88.5371 88.4092 83.6558 88.4092 74.2632L88.4092 14.4019C88.4092 5.00928 83.5733 0.127929 74.0005 0.127929L14.3936 0.127929C4.86963 0.127929 0 4.93018 0 14.4019L0 74.2632C0 83.7349 4.86963 88.5371 14.3936 88.5371ZM14.5064 82.4922C9.00294 82.4922 6.04494 79.6016 6.04494 73.9634L6.04494 14.7017C6.04494 9.06349 9.00294 6.17287 14.5064 6.17287L73.9028 6.17287C79.2969 6.17287 82.3643 9.06349 82.3643 14.7017L82.3643 73.9634C82.3643 79.6016 79.2969 82.4922 73.9028 82.4922Z" fill="#000000" fill-opacity="0.85"/>
  <path d="M29.8022 67.8071C31.1294 67.8071 32.1045 66.8623 32.1045 65.3027L32.1045 48.5381L35.062 48.5381L41.5103 66.1685C41.9717 67.3794 42.7178 67.7769 43.7451 67.7769C45.084 67.7769 45.916 66.7832 45.916 65.4898C45.916 64.9912 45.8335 64.624 45.6499 64.0581L39.5132 47.6235C43.5557 45.8486 45.8286 41.0313 45.8286 35.251C45.8286 26.6162 42.3364 22.3662 35.4497 22.3662L29.9941 22.3662C28.4937 22.3662 27.5825 23.3447 27.5825 24.9985L27.5825 65.1714C27.5825 66.7798 28.4751 67.8071 29.8022 67.8071ZM32.1045 44.0464L32.1045 26.937L35.1499 26.937C39.3032 26.937 41.2241 29.7808 41.2241 35.3672C41.2241 41.0664 39.2881 44.0464 35.0791 44.0464ZM55.6607 67.8408C60.7476 67.8408 64.0093 64.2676 64.0093 58.4854C64.0093 53.7842 62.3911 51.0547 57.9155 48.6484L55.9658 47.6079C53.3174 46.1919 52.2735 44.7153 52.2735 42.1597C52.2735 39.2959 53.4653 37.5366 55.627 37.5366C58.0278 37.5366 58.9351 39.2876 59.2432 42.9761C59.3291 44.4868 60.0986 45.4316 61.3955 45.4316C62.7412 45.4316 63.5816 44.4531 63.5816 42.8936C63.5816 42.5112 63.5479 42.1323 63.5142 41.75C63.0864 36.8218 60.648 33.1982 55.6607 33.1982C50.9307 33.1982 47.7886 36.7832 47.7886 42.2793C47.7886 46.6943 49.5532 49.6226 53.7612 51.8032L55.8052 52.8589C58.4468 54.1738 59.5024 55.8945 59.5024 58.77C59.5024 61.8594 58.1792 63.585 55.7095 63.585C53.2144 63.585 51.8862 61.5479 51.6724 58.1421C51.5864 56.5674 50.7798 55.6563 49.4863 55.6563C48.0952 55.6563 47.2852 56.6499 47.2852 58.2246C47.2852 58.8408 47.3003 59.4233 47.4131 60.021C48.0747 64.835 51.082 67.8408 55.6607 67.8408Z" fill="#000000" fill-opacity="0.85"/>
 </g>
</svg>
