<?xml version="1.0" encoding="UTF-8"?>
<!--Generator: Apple Native CoreSVG 232.5-->
<!DOCTYPE svg
PUBLIC "-//W3C//DTD SVG 1.1//EN"
       "http://www.w3.org/Graphics/SVG/1.1/DTD/svg11.dtd">
<svg version="1.1" xmlns="http://www.w3.org/2000/svg" xmlns:xlink="http://www.w3.org/1999/xlink" width="107.333" height="97.9932">
 <g>
  <rect height="97.9932" opacity="0" width="107.333" x="0" y="0"/>
  <path d="M58.3575 97.9443C85.1612 97.9443 107.33 75.7759 107.33 48.9722C107.33 22.1348 85.1612 0 58.3575 0C31.5201 0 9.38533 22.1011 9.38533 48.9385L15.7032 48.9385C15.7032 25.3164 34.7354 6.35158 58.3575 6.35158C81.9796 6.35158 101.012 25.3501 101.012 48.9722C101.012 72.5942 81.9796 91.6787 58.3575 91.6113C43.5182 91.5928 30.6148 84.0068 22.9474 72.5923C21.8121 71.0444 20.047 70.561 18.4806 71.479C16.9967 72.397 16.5655 74.4165 17.8018 76.0655C26.943 89.0161 41.5392 97.9443 58.3575 97.9443ZM2.84969 40.0024C7.79875e-05 40.0024-0.788009 41.9561 0.828693 44.2666L11.4786 59.4307C12.8326 61.3438 14.7677 61.3101 16.1031 59.4307L26.753 44.2329C28.336 41.9561 27.5479 40.0024 24.7169 40.0024Z" fill="#000000" fill-opacity="0.85"/>
  <path d="M43.9459 72.5352C45.273 72.5352 46.1993 71.5903 46.1993 70.0308L46.1993 53.2661L49.2056 53.2661L55.6539 70.8965C56.0816 72.1074 56.8463 72.5049 57.8551 72.5049C59.1939 72.5049 60.0597 71.5112 60.0597 70.2178C60.0597 69.7192 59.9434 69.3521 59.7598 68.7861L53.608 52.3516C57.6505 50.5767 59.9571 45.7593 59.9571 39.979C59.9571 31.3442 56.4801 27.0942 49.5597 27.0942L44.0889 27.0942C42.6221 27.0942 41.6773 28.0728 41.6773 29.7266L41.6773 69.8994C41.6773 71.5078 42.6036 72.5352 43.9459 72.5352ZM46.1993 48.7744L46.1993 31.665L49.2935 31.665C53.4132 31.665 55.3526 34.5088 55.3526 40.0952C55.3526 45.7944 53.3829 48.7744 49.2076 48.7744ZM69.7892 72.5689C74.8424 72.5689 78.1041 68.9956 78.1041 63.2134C78.1041 58.5122 76.5196 55.7827 72.0255 53.3765L70.0943 52.3359C67.461 50.9199 66.3834 49.4434 66.3834 46.8877C66.3834 44.0239 67.5938 42.2647 69.7555 42.2647C72.1378 42.2647 73.0787 44.0156 73.338 47.7041C73.4391 49.2149 74.2271 50.1597 75.5392 50.1597C76.8512 50.1597 77.7101 49.1812 77.7101 47.6216C77.7101 47.2393 77.6764 46.8604 77.6427 46.478C77.2149 41.5498 74.7428 37.9263 69.7892 37.9263C65.0592 37.9263 61.8985 41.5112 61.8985 47.0073C61.8985 51.4224 63.6817 54.3506 67.8897 56.5313L69.9488 57.5869C72.5753 58.9019 73.6461 60.6226 73.6461 63.4981C73.6461 66.5874 72.2892 68.313 69.8194 68.313C67.3429 68.313 65.9811 66.2759 65.816 62.8701C65.7149 61.2954 64.8746 60.3843 63.5811 60.3843C62.2389 60.3843 61.4137 61.3779 61.4137 62.9526C61.4137 63.5689 61.4439 64.1514 61.5079 64.749C62.2032 69.563 65.2105 72.5689 69.7892 72.5689Z" fill="#000000" fill-opacity="0.85"/>
 </g>
</svg>
