<?xml version="1.0" encoding="UTF-8"?>
<!--Generator: Apple Native CoreSVG 232.5-->
<!DOCTYPE svg
PUBLIC "-//W3C//DTD SVG 1.1//EN"
       "http://www.w3.org/Graphics/SVG/1.1/DTD/svg11.dtd">
<svg version="1.1" xmlns="http://www.w3.org/2000/svg" xmlns:xlink="http://www.w3.org/1999/xlink" width="97.9595" height="97.9932">
 <g>
  <rect height="97.9932" opacity="0" width="97.9595" x="0" y="0"/>
  <path d="M48.9722 97.9443C75.8247 97.9443 97.9595 75.7759 97.9595 48.9722C97.9595 22.1348 75.791 0 48.9385 0C22.1348 0 0 22.1348 0 48.9722C0 75.7759 22.1685 97.9443 48.9722 97.9443ZM48.9722 91.6113C25.3501 91.6113 6.36671 72.5942 6.36671 48.9722C6.36671 25.3501 25.3164 6.31789 48.9385 6.31789C72.5605 6.31789 91.6265 25.3501 91.6265 48.9722C91.6265 72.5942 72.5942 91.6113 48.9722 91.6113Z" fill="#000000" fill-opacity="0.85"/>
  <path d="M34.5269 72.5352C35.854 72.5352 36.814 71.5903 36.814 70.0308L36.814 53.2661L39.7866 53.2661L46.2349 70.8965C46.6963 72.1074 47.4272 72.5049 48.4697 72.5049C49.7749 72.5049 50.6406 71.5112 50.6406 70.2178C50.6406 69.7192 50.5581 69.3521 50.3408 68.7861L44.2227 52.3516C48.2651 50.5767 50.5381 45.7593 50.5381 39.979C50.5381 31.3442 47.061 27.0942 40.1743 27.0942L34.6699 27.0942C33.2031 27.0942 32.292 28.0728 32.292 29.7266L32.292 69.8994C32.292 71.5078 33.1846 72.5352 34.5269 72.5352ZM36.814 48.7744L36.814 31.665L39.8745 31.665C44.0278 31.665 45.9336 34.5088 45.9336 40.0952C45.9336 45.7944 43.9976 48.7744 39.7886 48.7744ZM60.3701 72.5689C65.457 72.5689 68.7188 68.9956 68.7188 63.2134C68.7188 58.5122 67.1006 55.7827 62.6065 53.3765L60.6753 52.3359C58.042 50.9199 56.9981 49.4434 56.9981 46.8877C56.9981 44.0239 58.1748 42.2647 60.3364 42.2647C62.7525 42.2647 63.6597 44.0156 63.9526 47.7041C64.0537 49.2149 64.8081 50.1597 66.1201 50.1597C67.4658 50.1597 68.291 49.1812 68.291 47.6216C68.291 47.2393 68.2573 46.8604 68.2236 46.478C67.7959 41.5498 65.3237 37.9263 60.3701 37.9263C55.6401 37.9263 52.4795 41.5112 52.4795 47.0073C52.4795 51.4224 54.2627 54.3506 58.4707 56.5313L60.5298 57.5869C63.1563 58.9019 64.2271 60.6226 64.2271 63.4981C64.2271 66.5874 62.9038 68.313 60.4004 68.313C57.9238 68.313 56.562 66.2759 56.397 62.8701C56.2959 61.2954 55.4556 60.3843 54.1621 60.3843C52.8198 60.3843 51.9946 61.3779 51.9946 62.9526C51.9946 63.5689 52.0249 64.1514 52.1226 64.749C52.7842 69.563 55.7915 72.5689 60.3701 72.5689Z" fill="#000000" fill-opacity="0.85"/>
 </g>
</svg>
