<?xml version="1.0" encoding="UTF-8"?>
<!--Generator: Apple Native CoreSVG 232.5-->
<!DOCTYPE svg
PUBLIC "-//W3C//DTD SVG 1.1//EN"
       "http://www.w3.org/Graphics/SVG/1.1/DTD/svg11.dtd">
<svg version="1.1" xmlns="http://www.w3.org/2000/svg" xmlns:xlink="http://www.w3.org/1999/xlink" width="97.9595" height="97.9932">
 <g>
  <rect height="97.9932" opacity="0" width="97.9595" x="0" y="0"/>
  <path d="M97.9595 48.9722C97.9595 75.7759 75.8247 97.9443 48.9722 97.9443C22.1685 97.9443 0 75.7759 0 48.9722C0 22.1348 22.1348 0 48.9385 0C75.791 0 97.9595 22.1348 97.9595 48.9722ZM52.5806 46.9551C52.5806 51.4898 54.4312 54.4854 58.7251 56.6846L60.8179 57.7739C63.478 59.1377 64.5825 60.877 64.5825 63.7861C64.5825 66.9429 63.2256 68.7022 60.6885 68.7022C58.1934 68.7022 56.7827 66.6314 56.6177 63.1582C56.5166 61.5498 55.6577 60.605 54.3306 60.605C52.9395 60.605 52.0957 61.6475 52.0957 63.2407C52.0957 63.8569 52.1108 64.4732 52.2236 65.0708C52.8853 69.9707 55.96 73.0777 60.6734 73.0777C65.8799 73.0777 69.209 69.4033 69.209 63.5015C69.209 58.6992 67.5571 55.9023 62.9619 53.4287L60.9971 52.3696C58.2964 50.9385 57.2188 49.4434 57.2188 46.8203C57.2188 43.9229 58.4292 42.145 60.6397 42.145C63.0742 42.145 64.0151 43.9297 64.3081 47.6704C64.4092 49.2149 65.1973 50.1934 66.543 50.1934C67.9072 50.1934 68.7813 49.1812 68.7813 47.5879C68.7813 47.1719 68.7476 46.793 68.7139 46.377C68.2525 41.3628 65.7129 37.6719 60.6734 37.6719C55.8423 37.6719 52.5806 41.3579 52.5806 46.9551ZM34.3818 26.5854C32.8813 26.5854 31.9365 27.5825 31.9365 29.3037L31.9365 70.3223C31.9365 71.9829 32.8628 73.044 34.2236 73.044C35.5996 73.044 36.5933 72.0654 36.5933 70.4385L36.5933 53.3672L39.5845 53.3672L46.1675 71.3379C46.6289 72.5825 47.4087 73.0288 48.4697 73.0288C49.8086 73.0288 50.708 72.0015 50.708 70.6743C50.708 70.127 50.6104 69.7749 50.4082 69.1602L44.1704 52.419C48.2988 50.6104 50.6055 45.6582 50.6055 39.7432C50.6055 30.9365 47.061 26.5854 40.0059 26.5854ZM45.8662 39.8931C45.8662 45.6934 43.9116 48.7407 39.6016 48.7407L36.5933 48.7407L36.5933 31.2759L39.7061 31.2759C43.9268 31.2759 45.8662 34.187 45.8662 39.8931Z" fill="#000000" fill-opacity="0.85"/>
 </g>
</svg>
