<?xml version="1.0" encoding="UTF-8"?>
<!--Generator: Apple Native CoreSVG 232.5-->
<!DOCTYPE svg
PUBLIC "-//W3C//DTD SVG 1.1//EN"
       "http://www.w3.org/Graphics/SVG/1.1/DTD/svg11.dtd">
<svg version="1.1" xmlns="http://www.w3.org/2000/svg" xmlns:xlink="http://www.w3.org/1999/xlink" width="97.9595" height="97.9932">
 <g>
  <rect height="97.9932" opacity="0" width="97.9595" x="0" y="0"/>
  <path d="M97.9595 48.9722C97.9595 75.7759 75.8247 97.9443 48.9722 97.9443C22.1685 97.9443 0 75.7759 0 48.9722C0 22.1348 22.1348 0 48.9385 0C75.791 0 97.9595 22.1348 97.9595 48.9722ZM32.6118 38.3814C32.6118 44.396 36.3652 47.8428 43.9355 49.8701L51.0781 51.8486C57.5044 53.5845 59.8125 55.3706 59.8125 59.1436C59.8125 63.7988 55.0044 66.9062 49.0479 66.9062C43.2749 66.9062 39.0225 64.3257 37.5825 59.9585C36.9121 58.4058 36.0498 57.6782 34.6065 57.6782C32.8447 57.6782 31.7466 58.7764 31.7466 60.5347C31.7466 61.1948 31.8628 61.8887 32.1963 62.7105C33.8062 67.8286 39.9399 72.1055 48.5747 72.1055C59.2637 72.1055 66.292 66.8486 66.292 58.6113C66.292 52.4097 61.9541 48.9561 53.2524 46.6274L46.5293 44.8208C41.2261 43.415 39.0576 41.4536 39.0576 38.1504C39.0576 33.6182 43.2056 30.3574 48.9063 30.3574C54.3628 30.3574 58.0664 32.7983 59.4727 37.2549C60.0234 38.6577 60.8857 39.419 62.3965 39.419C64.0723 39.419 65.2227 38.5044 65.2227 36.645C65.2227 36.0708 65.1065 35.313 64.8067 34.5552C63.1782 29.0933 57.2749 25.293 49.1084 25.293C39.3809 25.293 32.6118 30.7183 32.6118 38.3814Z" fill="#000000" fill-opacity="0.85"/>
 </g>
</svg>
