<?xml version="1.0" encoding="UTF-8"?>
<!--Generator: Apple Native CoreSVG 232.5-->
<!DOCTYPE svg
PUBLIC "-//W3C//DTD SVG 1.1//EN"
       "http://www.w3.org/Graphics/SVG/1.1/DTD/svg11.dtd">
<svg version="1.1" xmlns="http://www.w3.org/2000/svg" xmlns:xlink="http://www.w3.org/1999/xlink" width="97.9595" height="97.9932">
 <g>
  <rect height="97.9932" opacity="0" width="97.9595" x="0" y="0"/>
  <path d="M48.9722 97.9443C75.8247 97.9443 97.9595 75.7759 97.9595 48.9722C97.9595 22.1348 75.791 0 48.9385 0C22.1348 0 0 22.1348 0 48.9722C0 75.7759 22.1685 97.9443 48.9722 97.9443ZM48.9722 91.6113C25.3501 91.6113 6.36671 72.5942 6.36671 48.9722C6.36671 25.3501 25.3164 6.31789 48.9385 6.31789C72.5605 6.31789 91.6265 25.3501 91.6265 48.9722C91.6265 72.5942 72.5942 91.6113 48.9722 91.6113Z" fill="#000000" fill-opacity="0.85"/>
  <path d="M27.6655 73.7481L56.3438 59.4102C57.7549 58.7046 58.7534 57.7212 59.4893 56.3135L73.7783 27.6841C75.1592 24.7876 73.2056 22.5933 70.1812 24.1206L41.5855 38.4097C40.2231 39.0479 39.2886 39.9673 38.4888 41.5215L24.1172 70.1997C22.7212 73.0288 24.8062 75.1592 27.6655 73.7481ZM48.9722 54.9478C45.6519 54.9478 43 52.2622 43 48.9756C43 45.6704 45.6519 42.9849 48.9722 42.9849C52.2774 42.9849 54.9629 45.6704 54.9629 48.9756C54.9629 52.2622 52.2774 54.9478 48.9722 54.9478Z" fill="#000000" fill-opacity="0.85"/>
 </g>
</svg>
