<?xml version="1.0" encoding="UTF-8"?>
<!--Generator: Apple Native CoreSVG 232.5-->
<!DOCTYPE svg
PUBLIC "-//W3C//DTD SVG 1.1//EN"
       "http://www.w3.org/Graphics/SVG/1.1/DTD/svg11.dtd">
<svg version="1.1" xmlns="http://www.w3.org/2000/svg" xmlns:xlink="http://www.w3.org/1999/xlink" width="110.295" height="122.747">
 <g>
  <rect height="122.747" opacity="0" width="110.295" x="0" y="0"/>
  <path d="M1.05299 97.6802L5.22193 110.98C6.07887 113.545 7.10426 115.352 8.56226 116.61L13.5628 113.322C11.8386 112.593 10.761 111.181 10.0203 108.829L6.52175 97.0825C6.15652 95.9834 6.64626 95.2495 7.80934 95.2495L102.733 95.2495C103.971 95.2495 104.261 96.3267 103.493 97.1128L92.78 108.78C90.9231 110.741 89.3928 112.319 86.6145 113.194L91.3909 116.635C93.7937 115.105 95.7166 112.936 98.1194 110.312L108.833 98.5962C111.876 95.1792 110.033 90.0166 104.584 90.0166L6.70924 90.0166C1.79566 90.0166-0.332755 93.2212 1.05299 97.6802ZM45.8875 93.21L51.0867 93.21L51.0867 2.60889C51.0867 1.18067 49.8909 0 48.4627 0C47.0496 0 45.8875 1.18067 45.8875 2.60889ZM48.8299 76.9277L68.5198 76.9277C82.7327 76.9277 90.6751 69.7866 90.6751 57.9463C90.6751 38.4238 70.6892 15.3901 50.1248 4.42627L47.4973 8.89796C64.114 16.4727 85.4759 38.6064 85.4759 57.269C85.4759 65.8408 79.1555 71.6948 68.5686 71.6948L48.8299 71.6948ZM54.1272 12.3828C69.763 35.2466 65.1892 63.9722 49.055 72.084L50.3313 76.6499C70.5823 67.1216 75.1692 36.7202 58.7923 11.6182ZM12.0217 76.9277L47.8816 76.9277L47.8816 71.6948L16.3865 71.6948C15.7703 71.6948 15.5716 71.0786 16.0144 70.7671C35.1052 56.5801 49.0213 27.8184 50.6975 9.3833L45.8875 6.64061C46.1419 22.6719 32.426 52.5933 9.74147 69.0044C5.65601 71.9717 7.79322 76.9277 12.0217 76.9277ZM51.0545 121.157C63.7757 121.157 65.8484 111.245 74.199 111.245C82.7786 111.245 84.0935 121.157 98.6619 121.157L103.261 121.157C104.756 121.157 105.986 119.927 105.986 118.432C105.986 116.951 104.756 115.755 103.261 115.755L98.6619 115.755C93.1463 115.755 90.0198 113.422 86.324 110.834C83.1502 108.539 79.3919 105.843 74.199 105.843C68.8748 105.843 65.0676 108.686 61.8601 111.063C58.5247 113.602 55.6575 115.755 51.0545 115.755C46.4026 115.755 43.5354 113.602 40.2 111.063C36.9925 108.686 33.1853 105.843 27.8611 105.843C22.6682 105.843 18.9099 108.539 15.7361 110.834C12.0403 113.422 8.91384 115.755 3.39821 115.755L3.15407 115.755C1.6736 115.755 0.477797 116.951 0.477797 118.432C0.477797 119.927 1.6736 121.157 3.15407 121.157L3.39821 121.157C17.9666 121.157 19.2815 111.245 27.8611 111.245C36.2117 111.245 38.2844 121.157 51.0545 121.157Z" fill="#000000" fill-opacity="0.85"/>
 </g>
</svg>
