<?xml version="1.0" encoding="UTF-8"?>
<!--Generator: Apple Native CoreSVG 232.5-->
<!DOCTYPE svg
PUBLIC "-//W3C//DTD SVG 1.1//EN"
       "http://www.w3.org/Graphics/SVG/1.1/DTD/svg11.dtd">
<svg version="1.1" xmlns="http://www.w3.org/2000/svg" xmlns:xlink="http://www.w3.org/1999/xlink" width="97.9595" height="97.9932">
 <g>
  <rect height="97.9932" opacity="0" width="97.9595" x="0" y="0"/>
  <path d="M48.9722 97.9443C75.8247 97.9443 97.9595 75.7759 97.9595 48.9722C97.9595 22.1348 75.791 0 48.9385 0C22.1348 0 0 22.1348 0 48.9722C0 75.7759 22.1685 97.9443 48.9722 97.9443ZM48.9722 91.6113C25.3501 91.6113 6.36671 72.5942 6.36671 48.9722C6.36671 25.3501 25.3164 6.31789 48.9385 6.31789C72.5605 6.31789 91.6265 25.3501 91.6265 48.9722C91.6265 72.5942 72.5942 91.6113 48.9722 91.6113Z" fill="#000000" fill-opacity="0.85"/>
  <path d="M29.6055 75.8779L65.0107 75.8779C66.5498 75.8779 67.7554 75.356 68.7842 74.2261L76.6484 65.7788C78.1421 64.1504 77.2241 61.5137 74.6025 61.5137L49.7544 61.5137L49.7544 54.8467L57.8052 54.8467C65.0586 54.8467 69.3438 51.0801 69.3438 44.8789C69.3438 35.7617 60.5845 25.2285 49.7544 19.0737L49.7544 16.8931C49.7544 15.8389 48.9292 15.0137 47.8413 15.0137C46.7871 15.0137 45.9619 15.8389 45.9619 16.8931L45.9619 19.4702C45.9619 27.7456 39.1001 42.5942 27.6348 50.8237C25.6123 52.3359 26.6548 54.8467 28.7681 54.8467L45.9619 54.8467L45.9619 61.5137L25.1319 61.5137C22.9126 61.5137 21.8164 63.083 22.5791 65.4453L24.8604 72.6416C25.5103 74.6841 27.1065 75.8779 29.6055 75.8779ZM49.7207 51.2261L49.7207 22.7437C53.229 25.6397 55.8975 31.9497 55.8975 38.2832C55.8975 43.3286 53.7192 48.5171 49.7207 51.2261Z" fill="#000000" fill-opacity="0.85"/>
 </g>
</svg>
