<?xml version="1.0" encoding="UTF-8"?>
<!--Generator: Apple Native CoreSVG 232.5-->
<!DOCTYPE svg
PUBLIC "-//W3C//DTD SVG 1.1//EN"
       "http://www.w3.org/Graphics/SVG/1.1/DTD/svg11.dtd">
<svg version="1.1" xmlns="http://www.w3.org/2000/svg" xmlns:xlink="http://www.w3.org/1999/xlink" width="97.9595" height="97.9932">
 <g>
  <rect height="97.9932" opacity="0" width="97.9595" x="0" y="0"/>
  <path d="M97.9595 49.021C97.9595 75.8584 75.8247 97.9932 48.9722 97.9932C22.1685 97.9932 0 75.8584 0 49.021C0 22.2173 22.1348 0.0488281 48.9385 0.0488281C75.791 0.0488281 97.9595 22.2173 97.9595 49.021ZM45.9097 16.3657L45.9097 18.9951C45.9097 27.4878 38.8794 42.6245 27.1445 51.0073C25.0884 52.5532 26.1797 55.0977 28.3452 55.0977L45.9097 55.0977L45.9097 61.8657L24.6416 61.8657C22.4038 61.8657 21.2739 63.4873 22.0366 65.917L24.3701 73.2481C25.02 75.3428 26.6499 76.5518 29.1826 76.5518L65.2988 76.5518C66.8716 76.5518 68.1108 76.0147 69.1733 74.8662L77.1572 66.2168C78.6509 64.5547 77.748 61.8657 75.0439 61.8657L49.7881 61.8657L49.7881 55.0977L57.9585 55.0977C65.3804 55.0977 69.7666 51.23 69.7666 44.9092C69.7666 35.6235 60.7866 24.8882 49.7881 18.5986L49.7881 16.3657C49.7881 15.3115 48.8955 14.4526 47.8076 14.4526C46.7197 14.4526 45.9097 15.3115 45.9097 16.3657ZM56.0322 38.2124C56.0322 43.3775 53.8052 48.5996 49.7544 51.376L49.7544 22.4033C53.2964 25.333 56.0322 31.7778 56.0322 38.2124Z" fill="#000000" fill-opacity="0.85"/>
 </g>
</svg>
