<?xml version="1.0" encoding="UTF-8"?>
<!--Generator: Apple Native CoreSVG 232.5-->
<!DOCTYPE svg
PUBLIC "-//W3C//DTD SVG 1.1//EN"
       "http://www.w3.org/Graphics/SVG/1.1/DTD/svg11.dtd">
<svg version="1.1" xmlns="http://www.w3.org/2000/svg" xmlns:xlink="http://www.w3.org/1999/xlink" width="101.619" height="92.3697">
 <g>
  <rect height="92.3697" opacity="0" width="101.619" x="0" y="0"/>
  <path d="M13.3896 74.8138L16.4214 79.9778L50.9028 62.679L85.3843 79.9778L88.4312 74.8138L53.9497 57.5452L53.9497 16.6975L47.9048 16.6975L47.9048 57.5452ZM0.143066 82.1443C0.143066 83.783 0.867188 85.0359 2.30713 85.846L12.436 91.8465C13.418 92.4461 14.1758 92.5623 15.4912 91.8128L25.27 86.159C26.7251 85.3338 27.082 84.6248 27.0332 83.1951L26.9307 71.4886C26.9307 69.9441 26.2485 68.8308 24.9214 68.0359L14.8345 62.0506C13.686 61.4124 12.7783 61.2591 11.3906 62.0506L1.51075 67.7718C0.229004 68.4876 0 69.2976 0 70.3772ZM74.6006 83.2288C74.5366 84.6585 74.8936 85.3675 76.3486 86.1927L86.1274 91.8465C87.4429 92.596 88.2007 92.4798 89.1826 91.8802L99.3115 85.8797C100.751 85.0696 101.476 83.8167 101.476 82.178L101.619 70.4109C101.619 69.3313 101.39 68.5213 100.108 67.8055L90.228 62.0843C88.8403 61.2928 87.9326 61.4461 86.7842 62.0843L76.6973 68.0696C75.3701 68.8645 74.688 69.9778 74.688 71.5223ZM38.6182 23.5335L48.8599 29.2884C50.187 30.0193 51.4653 30.0193 52.7925 29.2884L63.0342 23.5335C64.25 22.8431 64.73 22.1712 64.73 20.5022L64.73 9.19463C64.73 7.68046 64.2349 7.10283 63.2378 6.53691L52.9658 0.75517C51.5259-0.0397535 50.0928-0.0397535 48.6865 0.75517L38.4146 6.53691C37.4512 7.06913 36.8887 7.68046 36.8887 9.19463L36.8887 20.5022C36.8887 22.1712 37.4697 22.8768 38.6182 23.5335Z" fill="#000000" fill-opacity="0.85"/>
 </g>
</svg>
