<?xml version="1.0" encoding="UTF-8"?>
<!--Generator: Apple Native CoreSVG 232.5-->
<!DOCTYPE svg
PUBLIC "-//W3C//DTD SVG 1.1//EN"
       "http://www.w3.org/Graphics/SVG/1.1/DTD/svg11.dtd">
<svg version="1.1" xmlns="http://www.w3.org/2000/svg" xmlns:xlink="http://www.w3.org/1999/xlink" width="112.824" height="86.751">
 <g>
  <rect height="86.751" opacity="0" width="112.824" x="0" y="0"/>
  <path d="M0 72.5108C0 81.9488 4.86963 86.751 14.3936 86.751L98.415 86.751C107.92 86.751 112.824 81.8697 112.824 72.5108L112.824 57.4942C112.824 54.544 112.105 51.748 109.94 49.4189L90.5415 28.833C86.2344 24.2817 83.3008 21.9292 76.8452 21.9292L34.7178 21.9292C29.4893 21.9292 26.5894 24.2817 22.2822 28.833L2.88331 49.4189C0.704104 51.748 0 54.544 0 57.4942ZM8.33059 52.6543L27.4107 31.7993C29.9614 29.0195 31.8892 27.5513 35.273 27.5513L77.5171 27.5513C80.8858 27.5513 82.832 28.9556 85.4131 31.7993L104.508 52.6543C105.524 53.8198 104.958 55.4907 103.137 55.4907L9.70168 55.4907C7.88088 55.4907 7.31496 53.8198 8.33059 52.6543ZM7.86914 5.79005L22.6714 20.981C26.9448 25.4126 29.1001 26.9077 34.209 26.9077L77.7061 26.9077C83.7051 26.9077 85.8941 25.4126 90.1675 20.981L104.97 5.79005C107.036 3.69337 105.921 0.0488281 102.484 0.0488281L10.355 0.0488281C6.91747 0.0488281 5.80273 3.69337 7.86914 5.79005ZM26.9575 47.9903C27.2876 48.9805 28.4243 49.457 29.4483 49.0933L52.4995 40.6782C53.5723 40.3145 54.0523 39.3091 53.6885 38.2363C53.3096 37.2124 52.2705 36.7359 51.2129 37.1333L28.1465 45.5635C27.104 45.9424 26.6089 46.9478 26.9575 47.9903ZM27.8565 39.4634C28.2202 40.5361 29.3233 40.9639 30.332 40.6001L46.3706 34.773C47.4097 34.3941 47.9722 33.355 47.5596 32.3159C47.1958 31.2583 46.1231 30.8491 45.1328 31.228L29.0454 37.0703C27.9878 37.4492 27.4775 38.4883 27.8565 39.4634ZM78.7656 71.0645C78.7656 69.8047 79.7256 68.8784 81.0342 68.8784L94.4199 68.8784C95.6797 68.8784 96.6397 69.8047 96.6397 71.0493C96.6397 72.3394 95.6797 73.232 94.4199 73.232L81.0493 73.232C79.8232 73.232 78.7656 72.3545 78.7656 71.0645Z" fill="#000000" fill-opacity="0.85"/>
 </g>
</svg>
