<?xml version="1.0" encoding="UTF-8"?>
<!--Generator: Apple Native CoreSVG 232.5-->
<!DOCTYPE svg
PUBLIC "-//W3C//DTD SVG 1.1//EN"
       "http://www.w3.org/Graphics/SVG/1.1/DTD/svg11.dtd">
<svg version="1.1" xmlns="http://www.w3.org/2000/svg" xmlns:xlink="http://www.w3.org/1999/xlink" width="97.9595" height="97.9932">
 <g>
  <rect height="97.9932" opacity="0" width="97.9595" x="0" y="0"/>
  <path d="M97.9595 48.9722C97.9595 75.7759 75.8247 97.9443 48.9722 97.9443C22.1685 97.9443 0 75.7759 0 48.9722C0 22.1348 22.1348 0 48.9385 0C75.791 0 97.9595 22.1348 97.9595 48.9722ZM6.36671 48.9722C6.36671 72.5942 25.3501 91.6113 48.9722 91.6113C72.5942 91.6113 91.6265 72.5942 91.6265 48.9722C91.6265 25.3501 72.5605 6.31789 48.9385 6.31789C25.3164 6.31789 6.36671 25.3501 6.36671 48.9722Z" fill="#000000" fill-opacity="0.85"/>
  <path d="M80.1289 60.5151C79.0532 63.4522 75.5239 64.0181 70.2734 62.085L52.2347 55.4683L61.4506 50.5512ZM39.1226 35.5601C39.1226 37.7705 38.9478 38.5635 40.3452 39.2925L45.9961 42.307C44.7896 43.2467 43.933 44.4392 43.3324 45.9565C43.2229 45.894 43.1031 45.8301 42.9751 45.7647L38.1357 43.1455C37.7046 42.9165 37.3965 42.834 36.9873 42.834C35.1284 42.834 34.0967 44.8945 29.7427 44.8945C24.5064 44.8945 20.3594 40.7476 20.3594 35.5601C20.3594 30.3086 24.5064 26.1128 29.7427 26.1128C34.9116 26.1128 39.1226 30.2749 39.1226 35.5601ZM23.7139 35.5601C23.7139 38.9204 26.4126 41.6191 29.7427 41.6191C33.0693 41.6191 35.7529 38.9204 35.7529 35.5601C35.7529 32.166 33.0693 29.4673 29.7427 29.4673C26.3823 29.4673 23.7139 32.166 23.7139 35.5601Z" fill="#000000" fill-opacity="0.85"/>
  <path d="M29.7427 71.8315C34.9116 71.8315 39.1226 67.6694 39.1226 62.3691C39.1226 60.1738 38.9478 59.3657 40.3452 58.6182L80.1289 37.3955C79.0532 34.4771 75.5239 33.9111 70.2734 35.8594L50.0728 43.269C47.4443 44.2305 46.2656 45.5068 45.6123 48.0342L45.1426 49.7398C44.8647 50.8359 44.4941 51.4033 42.9751 52.1797L38.1357 54.7651C37.7046 54.9976 37.3965 55.0767 36.9873 55.0767C35.1284 55.0767 34.0967 53.0347 29.7427 53.0347C24.5064 53.0347 20.3594 57.148 20.3594 62.3691C20.3594 67.6357 24.5064 71.8315 29.7427 71.8315ZM29.7427 68.477C26.3823 68.477 23.7139 65.7783 23.7139 62.3691C23.7139 59.0239 26.4126 56.3252 29.7427 56.3252C33.0693 56.3252 35.7529 59.0239 35.7529 62.3691C35.7529 65.7783 33.0693 68.477 29.7427 68.477ZM50.5645 49.5161C49.709 49.5161 48.9058 48.7617 48.9058 47.8726C48.9058 46.9531 49.6787 46.2139 50.5645 46.2139C51.4839 46.2139 52.208 46.938 52.208 47.8726C52.208 48.7769 51.4688 49.5161 50.5645 49.5161Z" fill="#000000" fill-opacity="0.85"/>
 </g>
</svg>
