<?xml version="1.0" encoding="UTF-8"?>
<!--Generator: Apple Native CoreSVG 232.5-->
<!DOCTYPE svg
PUBLIC "-//W3C//DTD SVG 1.1//EN"
       "http://www.w3.org/Graphics/SVG/1.1/DTD/svg11.dtd">
<svg version="1.1" xmlns="http://www.w3.org/2000/svg" xmlns:xlink="http://www.w3.org/1999/xlink" width="118.231" height="118.922">
 <g>
  <rect height="118.922" opacity="0" width="118.231" x="0" y="0"/>
  <path d="M42.8748 49.1041C40.4402 51.5724 40.4368 54.7848 42.9202 57.2867L61.7713 76.2018C64.2395 78.67 67.4705 78.5538 69.9387 76.1007L75.2913 70.7447C73.5452 67.923 73.8313 64.6715 76.2542 62.2521C78.6619 59.8629 81.8948 59.5733 84.7014 61.3531L113.483 32.5382C119.87 26.1661 119.745 18.9259 113.409 12.5709L106.438 5.64902C100.083-0.705962 92.8059-0.793363 86.4373 5.5416L57.6712 34.3077C59.4695 37.0958 59.1951 40.4112 56.742 42.8038C54.3377 45.1441 51.1013 45.4303 48.2459 43.733ZM70.1008 38.7325L93.032 15.734C93.6887 15.0435 94.8591 15.1749 95.553 15.734C96.2771 16.3907 96.176 17.5274 95.5344 18.1842L72.5359 41.1827C71.8421 41.8429 70.7913 41.8243 70.1682 41.2164C69.4592 40.4586 69.4255 39.4078 70.1008 38.7325ZM77.909 46.4396L100.806 23.5758C101.564 22.8854 102.618 22.8668 103.275 23.5758C103.898 24.2662 103.898 25.3541 103.275 25.9772L80.344 48.9606C79.6687 49.6847 78.596 49.5836 77.909 48.9606C77.1326 48.2145 77.1326 47.2159 77.909 46.4396ZM10.3923 92.6876L0.620855 108.901C-0.0998485 110.153-0.328853 111.283 0.677983 112.256L6.65161 118.264C7.677 119.255 8.78833 118.993 9.99244 118.355L26.2878 108.534C27.7664 107.686 28.6253 106.219 28.7195 104.89L29.1755 99.4923L53.1443 75.5235L43.4519 65.7975L19.4343 89.7359L14.1038 90.256C12.7078 90.3165 11.241 91.2091 10.3923 92.6876Z" fill="#000000" fill-opacity="0.85"/>
 </g>
</svg>
