<?xml version="1.0" encoding="UTF-8"?>
<!--Generator: Apple Native CoreSVG 232.5-->
<!DOCTYPE svg
PUBLIC "-//W3C//DTD SVG 1.1//EN"
       "http://www.w3.org/Graphics/SVG/1.1/DTD/svg11.dtd">
<svg version="1.1" xmlns="http://www.w3.org/2000/svg" xmlns:xlink="http://www.w3.org/1999/xlink" width="102.034" height="94.7579">
 <g>
  <rect height="94.7579" opacity="0" width="102.034" x="0" y="0"/>
  <path d="M1.91311 61.1875C4.28567 63.5298 8.8677 63.8316 12.399 60.7364C13.6719 59.6402 16.4366 56.7105 24.5068 48.5494C47.1421 25.5269 63.4307 9.27347 67.5064 12.523C71.1558 15.3008 62.5435 27.6138 55.3696 37.6402C38.5508 61.4219 27.3848 75.4029 35.6192 83.6372C41.9864 90.0044 52.3306 84.2847 69.959 68.8653C80.2881 59.7837 87.7217 52.7559 90.4302 55.4829C92.3594 57.3633 90.2324 61.4531 86.1011 68.6333C81.3648 76.7842 75.8804 84.9761 81.0601 90.1558C84.7544 93.8164 91.6114 91.7476 100.847 82.98C102.159 81.6831 102.459 80.2212 101.367 79.1602C100.34 78.1968 98.9302 78.3164 97.8389 79.3404C91.3545 85.7388 86.3662 88.3682 84.8799 86.8482C83.274 85.2759 85.5303 80.6275 90.6167 71.9326C97.1275 60.8369 99.5279 54.5845 94.9019 50.0596C88.3936 43.686 80.6426 50.0938 65.0327 63.8145C50.7744 76.3604 45.2212 79.0806 43.063 76.9561C40.2398 74.084 44.1543 68.8199 62.5166 43.1275C76.6109 23.3804 83.9722 10.9365 76.1827 3.81838C65.7593-5.81249 51.9737 1.74709 14.8188 38.3262C6.43898 46.5513 3.52443 49.3496 2.38283 50.604C-0.937972 54.2549-0.459454 58.8301 1.91311 61.1875Z" fill="#000000" fill-opacity="0.85"/>
 </g>
</svg>
