<?xml version="1.0" encoding="UTF-8"?>
<!--Generator: Apple Native CoreSVG 232.5-->
<!DOCTYPE svg
PUBLIC "-//W3C//DTD SVG 1.1//EN"
       "http://www.w3.org/Graphics/SVG/1.1/DTD/svg11.dtd">
<svg version="1.1" xmlns="http://www.w3.org/2000/svg" xmlns:xlink="http://www.w3.org/1999/xlink" width="97.6941" height="88.3358">
 <g>
  <rect height="88.3358" opacity="0" width="97.6941" x="0" y="0"/>
  <path d="M0.853371 57.5507C2.0189 58.7465 3.73521 58.7128 4.89733 57.5507L13.4911 48.9569C47.0892 15.3588 61.557 1.43887 67.6839 7.50186C72.2162 12.0189 62.7611 23.3695 48.5975 40.0853C35.6981 55.3168 21.6131 70.9525 30.9652 80.3686C38.5448 87.997 51.0834 79.4594 64.9159 65.7602C75.6385 55.1337 83.4525 48.1693 86.3583 50.996C88.6766 53.2992 85.9754 57.6752 81.8104 64.8891C77.1078 73.0248 71.5594 81.2167 76.7391 86.3964C80.7367 90.394 87.807 88.0668 96.556 78.8617C97.9725 77.4486 98.0365 75.7323 96.8255 74.5365C95.6449 73.4047 93.9623 73.4384 92.7513 74.6156C86.0648 80.9804 81.9476 83.453 80.4276 81.933C78.788 80.2934 80.8168 76.5766 86.0716 67.9525C92.7543 57.0253 94.6019 51.1703 90.5184 47.0868C84.9867 41.5365 76.5521 46.3192 60.7626 61.6185C46.4012 75.4711 38.7582 79.9945 35.0091 76.3246C30.4706 71.8837 36.472 62.6308 52.8588 43.7655C72.7342 20.8393 78.8964 10.6566 71.6942 3.4579C62.4549-5.7628 52.3802 1.96474 9.48081 44.8978L0.853371 53.4916C-0.30874 54.6537-0.259912 56.37 0.853371 57.5507Z" fill="#000000" fill-opacity="0.85"/>
 </g>
</svg>
