<?xml version="1.0" encoding="UTF-8"?>
<!--Generator: Apple Native CoreSVG 232.5-->
<!DOCTYPE svg
PUBLIC "-//W3C//DTD SVG 1.1//EN"
       "http://www.w3.org/Graphics/SVG/1.1/DTD/svg11.dtd">
<svg version="1.1" xmlns="http://www.w3.org/2000/svg" xmlns:xlink="http://www.w3.org/1999/xlink" width="101.346" height="101.943">
 <g>
  <rect height="101.943" opacity="0" width="101.346" x="0" y="0"/>
  <path d="M0 22.7246C0 25.1397 1.54444 26.6504 4.07227 26.6504L11.686 26.6504L11.686 11.5147C11.686 8.18116 8.90136 5.97706 5.88086 5.97706C2.83008 5.92823 0 8.10206 0 11.5147ZM12.2529 0C15.9858 1.78516 17.3428 4.48438 17.3428 9.37598L17.3428 89.0293C17.3428 95.687 21.5703 99.3545 27.1675 99.3545C32.4312 99.3545 36.46 95.7881 36.46 89.2837L36.46 75.8223C36.46 70.2261 39.3057 67.1563 44.9356 67.1563L91.9873 67.1563L91.9873 14.4087C91.9873 4.86963 87.1514 0 77.7134 0ZM34.6465 24.2622C34.6465 22.9351 35.7075 21.874 37.1172 21.874L73.1782 21.874C74.603 21.874 75.6304 22.9351 75.6304 24.2622C75.6304 25.6231 74.603 26.6841 73.1782 26.6841L37.1172 26.6841C35.7075 26.6841 34.6465 25.6231 34.6465 24.2622ZM34.6465 41.4614C34.6465 40.1006 35.7075 39.0059 37.1172 39.0059L55.585 39.0059C57.0098 39.0059 58.0371 40.1006 58.0371 41.4614C58.0371 42.7886 57.0098 43.8159 55.585 43.8159L37.1172 43.8159C35.7075 43.8159 34.6465 42.7886 34.6465 41.4614ZM35.6465 101.895L86.8735 101.895C95.6514 101.895 101.346 95.9556 101.346 86.8359L101.346 76.7876C101.346 74.3574 99.8018 72.813 97.2739 72.813L46.2227 72.813C43.6948 72.813 42.1167 74.3574 42.1167 76.7876L42.1167 88.6436C42.1167 94.6221 40.4761 99.103 35.6465 101.895Z" fill="#000000" fill-opacity="0.85"/>
 </g>
</svg>
