<?xml version="1.0" encoding="UTF-8"?>
<!--Generator: Apple Native CoreSVG 232.5-->
<!DOCTYPE svg
PUBLIC "-//W3C//DTD SVG 1.1//EN"
       "http://www.w3.org/Graphics/SVG/1.1/DTD/svg11.dtd">
<svg version="1.1" xmlns="http://www.w3.org/2000/svg" xmlns:xlink="http://www.w3.org/1999/xlink" width="109.143" height="109.211">
 <g>
  <rect height="109.211" opacity="0" width="109.143" x="0" y="0"/>
  <path d="M24.5805 95.8856L35.8876 95.8856C36.955 95.8856 37.7329 96.1937 38.541 96.9867L46.5751 104.972C52.0917 110.553 57.0175 110.519 62.5341 104.972L70.5683 96.9867C71.4101 96.1937 72.1543 95.8856 73.2553 95.8856L84.5439 95.8856C92.4062 95.8856 95.8838 92.4418 95.8838 84.5458L95.8838 73.2572C95.8838 72.1561 96.207 71.412 96.9848 70.5853L104.97 62.536C110.551 57.0194 110.517 52.1088 104.97 46.577L96.9848 38.5429C96.207 37.7499 95.8838 36.9721 95.8838 35.9047L95.8838 24.5824C95.8838 16.7538 92.4399 13.2274 84.5439 13.2274L73.2553 13.2274C72.1543 13.2274 71.4101 12.9681 70.5683 12.16L62.5341 4.18983C56.9873-1.40588 52.0917-1.38733 46.56 4.18983L38.541 12.16C37.7631 12.953 36.955 13.2274 35.8876 13.2274L24.5805 13.2274C16.7031 13.2274 13.2255 16.6864 13.2255 24.5824L13.2255 35.9047C13.2255 36.9721 12.936 37.7499 12.1582 38.5429L4.1728 46.577C-1.39263 52.1088-1.35894 57.0194 4.1728 62.536L12.1582 70.5853C12.936 71.412 13.2255 72.1561 13.2255 73.2572L13.2255 84.5458C13.2255 92.4081 16.7031 95.8856 24.5805 95.8856Z" fill="#000000" fill-opacity="0.85"/>
 </g>
</svg>
