<?xml version="1.0" encoding="UTF-8"?>
<!--Generator: Apple Native CoreSVG 232.5-->
<!DOCTYPE svg
PUBLIC "-//W3C//DTD SVG 1.1//EN"
       "http://www.w3.org/Graphics/SVG/1.1/DTD/svg11.dtd">
<svg version="1.1" xmlns="http://www.w3.org/2000/svg" xmlns:xlink="http://www.w3.org/1999/xlink" width="109.064" height="109.199">
 <g>
  <rect height="109.199" opacity="0" width="109.064" x="0" y="0"/>
  <path d="M24.5578 95.88L35.8313 95.88C36.9323 95.88 37.7102 96.1881 38.5183 96.981L46.5524 104.966C52.0993 110.517 56.9646 110.498 62.5114 104.966L70.5456 96.981C71.3537 96.1881 72.1316 95.88 73.2326 95.88L84.5061 95.88C92.3835 95.88 95.861 92.4361 95.861 84.5401L95.861 73.2515C95.861 72.1505 96.1843 71.4063 96.9621 70.5797L104.914 62.5303C110.464 56.9986 110.43 52.1519 104.914 46.5713L96.9621 38.5372C96.1843 37.7442 95.861 36.9664 95.861 35.899L95.861 24.5767C95.861 16.7481 92.4172 13.2217 84.5061 13.2217L73.2326 13.2217C72.1316 13.2217 71.3537 12.9625 70.5456 12.1544L62.5114 4.18415C56.9494-1.39642 52.0993-1.39301 46.5373 4.18415L38.5183 12.1544C37.7404 12.9473 36.9323 13.2217 35.8313 13.2217L24.5578 13.2217C16.6804 13.2217 13.2028 16.6807 13.2028 24.5767L13.2028 35.899C13.2028 36.9664 12.9133 37.7442 12.1354 38.5372L4.1501 46.5713C-1.4002 52.1519-1.36651 56.9986 4.1501 62.5303L12.1354 70.5797C12.9133 71.4063 13.2028 72.1505 13.2028 73.2515L13.2028 84.5401C13.2028 92.4024 16.6804 95.88 24.5578 95.88ZM24.5578 89.9175C20.0759 89.9175 19.1804 89.022 19.1804 84.5401L19.1804 71.1783C19.1804 69.7891 18.7561 68.7418 17.7575 67.7281L8.36251 58.3668C5.18038 55.1661 5.18038 53.9844 8.36251 50.7838L17.7575 41.4224C18.7561 40.4088 19.1804 39.3463 19.1804 37.9234L19.1804 24.5767C19.1804 20.046 20.0271 19.1993 24.5578 19.1993L37.9045 19.1993C39.3274 19.1993 40.3899 18.8238 41.3884 17.7764L50.7497 8.38142C53.9655 5.21443 55.132 5.21443 58.3142 8.38142L67.7092 17.7764C68.674 18.8238 69.7702 19.1993 71.1594 19.1993L84.5061 19.1993C88.988 19.1993 89.8835 20.0948 89.8835 24.5767L89.8835 37.9234C89.8835 39.3463 90.3415 40.4088 91.34 41.4224L100.735 50.7838C103.917 53.9844 103.917 55.1661 100.735 58.3668L91.34 67.7281C90.3415 68.7418 89.8835 69.7891 89.8835 71.1783L89.8835 84.5401C89.8835 89.022 88.988 89.9175 84.5061 89.9175L71.1594 89.9175C69.7702 89.9175 68.674 90.3267 67.7092 91.3741L58.3142 100.769C55.132 103.936 53.9655 103.936 50.7497 100.769L41.3884 91.3741C40.3899 90.3267 39.3274 89.9175 37.9045 89.9175Z" fill="#000000" fill-opacity="0.85"/>
 </g>
</svg>
