<?xml version="1.0" encoding="UTF-8"?>
<!--Generator: Apple Native CoreSVG 232.5-->
<!DOCTYPE svg
PUBLIC "-//W3C//DTD SVG 1.1//EN"
       "http://www.w3.org/Graphics/SVG/1.1/DTD/svg11.dtd">
<svg version="1.1" xmlns="http://www.w3.org/2000/svg" xmlns:xlink="http://www.w3.org/1999/xlink" width="114.55" height="82.9004">
 <g>
  <rect height="82.9004" opacity="0" width="114.55" x="0" y="0"/>
  <path d="M101.431 52.4365C102.446 53.666 104.291 53.6963 105.535 52.3018C111.381 45.7383 114.55 37.3394 114.55 28.0347C114.55 18.73 111.381 10.2974 105.535 3.73389C104.37 2.41846 102.635 2.41846 101.619 3.47462C100.479 4.59474 100.609 6.16603 101.832 7.57228C106.745 13.1992 109.284 20.2979 109.284 28.0347C109.284 35.7529 106.745 42.8853 101.832 48.4634C100.639 49.8394 100.464 51.2862 101.431 52.4365Z" fill="#000000" fill-opacity="0.85"/>
  <path d="M90.4912 42.2832C91.522 43.4185 93.4522 43.5161 94.6446 41.9263C97.6182 38.0366 99.3828 33.2612 99.3828 28.0347C99.3828 22.8233 97.6182 18.0142 94.6446 14.1582C93.4824 12.6138 91.6162 12.6172 90.5855 13.7222C89.457 14.7935 89.7217 16.2671 90.749 17.6768C93.0606 20.9429 94.1162 24.3574 94.1162 28.0347C94.1162 31.6934 93.0606 35.1416 90.749 38.3926C89.7857 39.7534 89.4419 41.1817 90.4912 42.2832Z" fill="#000000" fill-opacity="0.85"/>
  <path d="M14.3936 82.8364L66.292 82.8364C75.8648 82.8364 80.7007 77.9702 80.7007 68.5776L80.7007 14.2739C80.7007 4.88135 75.8648 0 66.292 0L14.3936 0C4.86963 0 0 4.80225 0 14.2739L0 68.5776C0 78.0005 4.86963 82.8364 14.3936 82.8364ZM14.5064 76.8066C9.00294 76.8066 6.04494 73.8823 6.04494 68.2441L6.04494 14.5737C6.04494 8.96925 9.00294 6.04494 14.5064 6.04494L66.1943 6.04494C71.5547 6.04494 74.6558 8.96925 74.6558 14.5737L74.6558 68.2441C74.6558 73.8823 71.5547 76.8066 66.1943 76.8066ZM39.8281 41.9312C41.1553 41.9312 42.2163 40.9038 42.2163 39.5767L42.2163 16.6323C42.2163 15.3052 41.1553 14.2778 39.8281 14.2778C38.4858 14.2778 37.4585 15.3052 37.4585 16.6323L37.4585 39.5767C37.4585 40.9038 38.4858 41.9312 39.8281 41.9312ZM51.398 41.9312C52.7251 41.9312 53.7861 40.9038 53.7861 39.5767L53.7861 16.6323C53.7861 15.3052 52.7251 14.2778 51.398 14.2778C50.0708 14.2778 49.0435 15.3052 49.0435 16.6323L49.0435 39.5767C49.0435 40.9038 50.0708 41.9312 51.398 41.9312ZM63.0166 41.9312C64.3438 41.9312 65.3711 40.9038 65.3711 39.5767L65.3711 16.6323C65.3711 15.3052 64.3438 14.2778 63.0166 14.2778C61.6743 14.2778 60.6133 15.3052 60.6133 16.6323L60.6133 39.5767C60.6133 40.9038 61.6743 41.9312 63.0166 41.9312Z" fill="#000000" fill-opacity="0.85"/>
 </g>
</svg>
