<?xml version="1.0" encoding="UTF-8"?>
<!--Generator: Apple Native CoreSVG 232.5-->
<!DOCTYPE svg
PUBLIC "-//W3C//DTD SVG 1.1//EN"
       "http://www.w3.org/Graphics/SVG/1.1/DTD/svg11.dtd">
<svg version="1.1" xmlns="http://www.w3.org/2000/svg" xmlns:xlink="http://www.w3.org/1999/xlink" width="125.502" height="83.0059">
 <g>
  <rect height="83.0059" opacity="0" width="125.502" x="0" y="0"/>
  <path d="M108.013 73.9536C109.261 75.3364 111.326 75.3062 112.776 73.77C120.806 65.2349 125.502 53.898 125.502 41.4785C125.502 29.0591 120.806 17.6733 112.776 9.18702C111.326 7.65088 109.261 7.58691 108.013 9.00342C106.844 10.3374 107.227 12.1328 108.594 13.6201C115.455 20.9561 119.39 30.6929 119.39 41.4785C119.39 52.2642 115.455 61.9858 108.594 69.3369C107.227 70.8242 106.844 72.6196 108.013 73.9536Z" fill="#000000" fill-opacity="0.85"/>
  <path d="M94.6138 60.2495C95.8467 61.6323 98.0801 61.6358 99.4292 59.9986C103.753 54.9976 106.24 48.5049 106.24 41.4785C106.24 34.4522 103.753 27.9595 99.4292 22.9585C98.0801 21.3062 95.8467 21.291 94.6138 22.7075C93.4297 24.0415 93.9317 25.7695 95.1123 27.3242C98.481 30.9678 100.127 36.0523 100.127 41.4785C100.127 46.9048 98.481 51.9404 95.1123 55.6328C93.9317 57.1875 93.4297 58.9155 94.6138 60.2495Z" fill="#000000" fill-opacity="0.85"/>
  <path d="M41.4634 82.8931C64.0161 82.8931 82.878 64.0464 82.878 41.4785C82.878 18.8618 63.9976 0 41.3657 0C18.7979 0 0 18.8618 0 41.4785C0 64.0464 18.8618 82.8931 41.4634 82.8931ZM41.3657 76.897C21.6714 76.897 6.04494 61.1729 6.04494 41.4785C6.04494 21.7691 21.7051 6.06007 41.3169 6.06007C61.0264 6.06007 76.7842 21.7691 76.7842 41.4785C76.8482 61.1729 61.124 76.897 41.3657 76.897ZM41.5122 28.5156C45.5147 28.5156 48.7359 25.249 48.7359 21.2769C48.7359 17.1919 45.5147 13.9893 41.5122 13.9893C37.4609 13.9893 34.1758 17.2407 34.1758 21.2769C34.1758 25.313 37.4609 28.5156 41.5122 28.5156Z" fill="#000000" fill-opacity="0.85"/>
 </g>
</svg>
