<?xml version="1.0" encoding="UTF-8"?>
<!--Generator: Apple Native CoreSVG 232.5-->
<!DOCTYPE svg
PUBLIC "-//W3C//DTD SVG 1.1//EN"
       "http://www.w3.org/Graphics/SVG/1.1/DTD/svg11.dtd">
<svg version="1.1" xmlns="http://www.w3.org/2000/svg" xmlns:xlink="http://www.w3.org/1999/xlink" width="97.9595" height="97.9932">
 <g>
  <rect height="97.9932" opacity="0" width="97.9595" x="0" y="0"/>
  <path d="M48.9722 97.9443C75.8247 97.9443 97.9595 75.7759 97.9595 48.9722C97.9595 22.1348 75.791 0 48.9385 0C22.1348 0 0 22.1348 0 48.9722C0 75.7759 22.1685 97.9443 48.9722 97.9443ZM48.9722 91.6113C25.3501 91.6113 6.36671 72.5942 6.36671 48.9722C6.36671 25.3501 25.3164 6.31789 48.9385 6.31789C72.5605 6.31789 91.6265 25.3501 91.6265 48.9722C91.6265 72.5942 72.5942 91.6113 48.9722 91.6113Z" fill="#000000" fill-opacity="0.85"/>
  <path d="M27.7437 44.3301L39.3525 44.3301C39.4014 37.9434 44.106 32.6411 50.1929 32.1528L50.1929 28.1982C50.1929 25.8057 48.9233 24.5176 46.5122 24.5176L27.7437 24.5176C25.3359 24.5176 24.0967 25.8057 24.0967 28.1982L24.0967 40.7656C24.0967 43.0942 25.3359 44.3301 27.7437 44.3301ZM69.3018 58.0508L76.9981 58.0508C79.3755 58.0508 80.6148 56.7998 80.6148 54.3735L80.6148 39.3648C80.6148 37.0361 79.3755 35.7852 76.9981 35.7852L69.3018 35.7852C66.8906 35.7852 65.6548 37.0361 65.6548 39.3648L65.6548 54.3735C65.6548 56.7998 66.8906 58.0508 69.3018 58.0508ZM21.1499 62.7705L26.4199 62.7705C28.8462 62.7705 30.0855 61.501 30.0855 59.1235L30.0855 53.7861C30.0855 51.3901 28.8462 50.1543 26.4199 50.1543L21.1499 50.1543C18.7725 50.1543 17.5332 51.3262 17.5332 53.7861L17.5332 59.1235C17.5332 61.501 18.7725 62.7705 21.1499 62.7705ZM51.023 53.769C55.6094 53.769 59.4736 49.7315 59.4736 44.4395C59.4736 39.3208 55.6094 35.29 51.023 35.29C46.418 35.29 42.5537 39.3545 42.5537 44.4395C42.5537 49.7315 46.418 53.769 51.023 53.769ZM36.5195 73.4082L65.4775 73.4082C67.606 73.4082 68.8789 72.3306 68.8789 70.7124C68.8789 65.1611 61.9941 57.6231 51.0078 57.6231C39.9692 57.6231 33.1821 65.1611 33.1821 70.7124C33.1821 72.3306 34.4399 73.4082 36.5195 73.4082Z" fill="#000000" fill-opacity="0.85"/>
 </g>
</svg>
