<?xml version="1.0" encoding="UTF-8"?>
<!--Generator: Apple Native CoreSVG 232.5-->
<!DOCTYPE svg
PUBLIC "-//W3C//DTD SVG 1.1//EN"
       "http://www.w3.org/Graphics/SVG/1.1/DTD/svg11.dtd">
<svg version="1.1" xmlns="http://www.w3.org/2000/svg" xmlns:xlink="http://www.w3.org/1999/xlink" width="116.618" height="90.1446">
 <g>
  <rect height="90.1446" opacity="0" width="116.618" x="0" y="0"/>
  <path d="M23.2227 53.9234L23.2227 63.7735C23.2227 68.1968 20.9395 70.4766 16.4522 70.4766L6.77051 70.4766C2.2832 70.4766 0 68.2271 0 63.7735L0 53.9234C0 49.4697 2.2832 47.2539 6.77051 47.2539L16.4522 47.2539C20.9395 47.2539 23.2227 49.5337 23.2227 53.9234Z" fill="#000000" fill-opacity="0.425"/>
  <path d="M60.3623 6.66943L60.3623 14.2327C49.5576 15.0511 40.7594 24.5942 40.6508 36.4639L18.9717 36.4639C14.4844 36.4639 12.2012 34.2481 12.2012 29.7944L12.2012 6.66943C12.2012 2.24951 14.4844 0 18.9717 0L53.5581 0C58.064 0 60.3623 2.24951 60.3623 6.66943Z" fill="#000000" fill-opacity="0.425"/>
  <path d="M116.618 27.3648L116.618 55.105C116.618 59.4946 114.335 61.7744 109.814 61.7744L95.6968 61.7744C91.2095 61.7744 88.9263 59.5098 88.9263 55.105L88.9263 27.3648C88.9263 22.9448 91.2095 20.6953 95.6968 20.6953L109.814 20.6953C114.335 20.6953 116.618 22.9751 116.618 27.3648Z" fill="#000000" fill-opacity="0.425"/>
  <path d="M61.9097 53.9263C70.4126 53.9263 77.5049 46.4082 77.5049 36.6372C77.5049 27.1641 70.3672 19.8062 61.9097 19.8062C53.4673 19.8062 46.2959 27.2651 46.2959 36.7046C46.2959 46.4082 53.4219 53.9263 61.9097 53.9263ZM35.1802 90.0772L88.5601 90.0772C92.4634 90.0772 94.8697 88.166 94.8697 85.103C94.8697 74.96 82.1992 60.9678 61.8945 60.9678C41.5259 60.9678 28.8706 74.96 28.8706 85.103C28.8706 88.166 31.2769 90.0772 35.1802 90.0772Z" fill="#000000" fill-opacity="0.85"/>
 </g>
</svg>
