<?xml version="1.0" encoding="UTF-8"?>
<!--Generator: Apple Native CoreSVG 232.5-->
<!DOCTYPE svg
PUBLIC "-//W3C//DTD SVG 1.1//EN"
       "http://www.w3.org/Graphics/SVG/1.1/DTD/svg11.dtd">
<svg version="1.1" xmlns="http://www.w3.org/2000/svg" xmlns:xlink="http://www.w3.org/1999/xlink" width="77.0532" height="89.3994">
 <g>
  <rect height="89.3994" opacity="0" width="77.0532" x="0" y="0"/>
  <path d="M0 86.2481C0 87.9829 1.41651 89.3994 3.16651 89.3994C4.95021 89.3994 6.36671 87.9829 6.36671 86.2481L6.36671 8.74172L30.8877 8.74172C42.1724 8.74172 47.1445 12.232 47.1445 25.8169L47.1445 61.4287C47.1445 63.1787 48.5947 64.5952 50.3447 64.5952C52.0947 64.5952 53.5112 63.1787 53.5112 61.4287L53.5112 24.5537C53.5112 8.14894 46.8193 1.81055 32.8569 1.81055L4.31886 1.81055C1.72315 1.81055 0 3.59766 0 6.2422ZM23.542 83.8867C23.542 86.4824 25.2651 88.3184 27.876 88.3184L55.6763 88.3184C70.7207 88.3184 77.0532 81.0899 77.0532 64.1235L77.0532 3.88087C77.0532 2.13087 75.603 0.714359 73.853 0.714359C72.1182 0.714359 70.7017 2.13087 70.7017 3.88087L70.7017 64.1875C70.7017 77.9214 66.1245 81.3872 54.1533 81.3872L29.9087 81.3872L29.9087 28.3687C29.9087 26.6338 28.4585 25.2173 26.7085 25.2173C24.9585 25.2173 23.542 26.6338 23.542 28.3687Z" fill="#000000" fill-opacity="0.85"/>
 </g>
</svg>
