<?xml version="1.0" encoding="UTF-8"?>
<!--Generator: Apple Native CoreSVG 232.5-->
<!DOCTYPE svg
PUBLIC "-//W3C//DTD SVG 1.1//EN"
       "http://www.w3.org/Graphics/SVG/1.1/DTD/svg11.dtd">
<svg version="1.1" xmlns="http://www.w3.org/2000/svg" xmlns:xlink="http://www.w3.org/1999/xlink" width="107.997" height="107.855">
 <g>
  <rect height="107.855" opacity="0" width="107.997" x="0" y="0"/>
  <path d="M78.1738 89.3386C72.9305 93.0459 66.0446 97.0306 57.1984 101.928C56.0954 102.503 54.8932 102.917 53.9909 102.917C53.1037 102.917 51.8678 102.536 50.7834 101.928C23.8366 86.0935 14.8063 80.3596 14.8063 63.7385L14.8063 26.9827C14.8063 26.6554 14.8138 26.3419 14.8294 26.0418ZM57.8283 7.52905C64.7521 9.92113 79.9259 15.6082 86.8346 18.3303C91.2809 20.1453 93.1755 21.8171 93.1755 26.9827L93.1755 63.7385C93.1755 69.5568 92.1213 74.1242 89.5427 78.2433L27.2598 15.9837C34.7973 13.1146 44.8652 9.37154 50.1349 7.52905C51.423 7.12328 52.6842 6.83032 53.9909 6.83032C55.2975 6.83032 56.5587 7.08959 57.8283 7.52905Z" fill="#000000" fill-opacity="0.85"/>
  <path d="M95.5768 99.6282C96.7086 100.76 98.5412 100.745 99.7033 99.6282C100.847 98.5115 100.835 96.6335 99.7033 95.5017L10.0211 5.85326C8.90444 4.77025 7.07192 4.77025 5.86098 5.85326C4.73256 6.93627 4.76283 8.88159 5.86098 9.97974Z" fill="#000000" fill-opacity="0.85"/>
 </g>
</svg>
