<?xml version="1.0" encoding="UTF-8"?>
<!--Generator: Apple Native CoreSVG 232.5-->
<!DOCTYPE svg
PUBLIC "-//W3C//DTD SVG 1.1//EN"
       "http://www.w3.org/Graphics/SVG/1.1/DTD/svg11.dtd">
<svg version="1.1" xmlns="http://www.w3.org/2000/svg" xmlns:xlink="http://www.w3.org/1999/xlink" width="79.1997" height="99.707">
 <g>
  <rect height="99.707" opacity="0" width="79.1997" x="0" y="0"/>
  <path d="M39.6074 99.707C40.4946 99.707 41.7642 99.3081 42.8486 98.6851C70.208 82.8516 79.1997 76.8955 79.1997 60.0874L79.1997 22.9761C79.1997 17.7432 77.3052 16.0713 72.7915 14.2227C65.8491 11.4668 50.4546 5.76123 43.4971 3.33545C42.1939 2.896 40.8989 2.58789 39.6074 2.58789C38.3008 2.58789 37.0059 2.96338 35.7363 3.33545C28.8091 5.61621 13.3506 11.5005 6.4082 14.2227C1.92823 16.0073 0 17.7432 0 22.9761L0 60.0874C0 76.8955 9.11621 82.6968 36.3662 98.6851C37.4692 99.3081 38.7051 99.707 39.6074 99.707ZM39.6074 93.0337C38.7959 93.0337 37.9087 92.6196 36.7617 91.8921C14.1123 77.8115 5.97755 73.7622 5.97755 58.8862L5.97755 24.1265C5.97755 21.6641 6.42189 20.7568 8.27345 20.023C14.7871 17.4566 30.7505 11.7598 37.2456 9.22365C38.1934 8.80617 39.0098 8.63283 39.6074 8.63283C40.1899 8.63283 40.9912 8.85499 41.9541 9.22365C48.4492 11.7598 64.3452 17.6773 70.96 20.023C72.7778 20.7232 73.2222 21.6641 73.2222 24.1265L73.2222 58.8862C73.2222 73.7622 65.0571 77.7173 42.4531 91.8921C41.3247 92.6196 40.419 93.0337 39.6074 93.0337Z" fill="#000000" fill-opacity="0.85"/>
 </g>
</svg>
