<?xml version="1.0" encoding="UTF-8"?>
<!--Generator: Apple Native CoreSVG 232.5-->
<!DOCTYPE svg
PUBLIC "-//W3C//DTD SVG 1.1//EN"
       "http://www.w3.org/Graphics/SVG/1.1/DTD/svg11.dtd">
<svg version="1.1" xmlns="http://www.w3.org/2000/svg" xmlns:xlink="http://www.w3.org/1999/xlink" width="78.3692" height="97.9785">
 <g>
  <rect height="97.9785" opacity="0" width="78.3692" x="0" y="0"/>
  <path d="M39.1846 97.9785C40.0718 97.9785 41.3076 97.5645 42.3921 96.9902C69.7515 81.834 78.3692 75.4214 78.3692 58.8003L78.3692 22.0444C78.3692 16.8789 76.5083 15.207 72.0132 13.3921C65.1045 10.6699 49.9458 4.9829 43.0405 2.59082C41.7524 2.15136 40.4912 1.89209 39.1846 1.89209C37.8779 1.89209 36.6167 2.18506 35.3472 2.59082C28.4536 5.00634 13.2495 10.6885 6.35596 13.3921C1.89453 15.1431 0 16.8789 0 22.0444L0 58.8003C0 75.4214 9.01514 81.1553 35.9771 96.9902C37.0952 97.5982 38.2822 97.9785 39.1846 97.9785Z" fill="#000000" fill-opacity="0.85"/>
 </g>
</svg>
