<?xml version="1.0" encoding="UTF-8"?>
<!--Generator: Apple Native CoreSVG 232.5-->
<!DOCTYPE svg
PUBLIC "-//W3C//DTD SVG 1.1//EN"
       "http://www.w3.org/Graphics/SVG/1.1/DTD/svg11.dtd">
<svg version="1.1" xmlns="http://www.w3.org/2000/svg" xmlns:xlink="http://www.w3.org/1999/xlink" width="151.982" height="104.679">
 <g>
  <rect height="104.679" opacity="0" width="151.982" x="0" y="0"/>
  <path d="M144.613 32.9072L144.613 71.8071C144.613 77.6612 142.641 80.086 138.524 82.4014L99.6255 104.209C99.2686 104.404 98.8999 104.611 98.5279 104.679L98.5279 55.4136L144.268 29.7564C144.531 30.6187 144.613 31.5786 144.613 32.9072ZM92.8374 55.4136L92.8374 104.679C92.4654 104.611 92.1118 104.404 91.7886 104.209L52.8565 82.4014C48.773 80.086 46.7671 77.6612 46.7671 71.8071L46.7671 66.438L61.2656 66.438C66.271 66.438 70.1597 62.4971 70.1597 57.4766C70.1597 52.4561 66.271 48.5151 61.2656 48.5151L46.7671 48.5151L46.7671 32.9072C46.7671 31.5786 46.8496 30.6187 47.1123 29.7564ZM116.92 38.5249L95.7071 50.4019L49.6621 24.5815C50.2769 23.9551 51.0044 23.46 52.0332 22.9043L70.4678 12.4722ZM103.122 2.42774L139.347 22.874C140.425 23.46 141.137 23.9551 141.718 24.5815L122.784 35.2275L76.2876 9.16309L88.2432 2.42774C90.7827 0.976083 93.2617 0.199714 95.7071 0.199714C98.1187 0.199714 100.598 0.976083 103.122 2.42774Z" fill="#000000" fill-opacity="0.85"/>
  <path d="M64.503 57.4766C64.503 55.5581 63.1201 54.2056 61.2656 54.2056L26.7276 54.2056L13.1719 54.5728L13.1719 56.4746L25.5938 44.9102L32.8013 38.2266C33.5728 37.541 33.8389 36.6079 33.8389 35.7085C33.8389 33.8877 32.4375 32.5386 30.5713 32.5386C29.7056 32.5386 28.9527 32.8384 28.2183 33.5391L6.77687 55.0225C6.05763 55.708 5.65675 56.5435 5.65675 57.4766C5.65675 58.4097 6.05763 59.23 6.77687 59.9307L27.9204 81.1465C28.8887 82.1148 29.7056 82.4146 30.5713 82.4146C32.4375 82.4146 33.8389 81.0655 33.8389 79.2447C33.8389 78.3452 33.6216 77.4273 32.8013 76.7266L25.5938 70.043L13.1719 58.4634L13.1719 60.3804L26.7276 60.7476L61.2656 60.7476C63.1201 60.7476 64.503 59.3799 64.503 57.4766Z" fill="#000000" fill-opacity="0.85"/>
 </g>
</svg>
