<?xml version="1.0" encoding="UTF-8"?>
<!--Generator: Apple Native CoreSVG 232.5-->
<!DOCTYPE svg
PUBLIC "-//W3C//DTD SVG 1.1//EN"
       "http://www.w3.org/Graphics/SVG/1.1/DTD/svg11.dtd">
<svg version="1.1" xmlns="http://www.w3.org/2000/svg" xmlns:xlink="http://www.w3.org/1999/xlink" width="152.641" height="104.985">
 <g>
  <rect height="104.985" opacity="0" width="152.641" x="0" y="0"/>
  <path d="M103.07 2.3785L139.547 22.8853C142.832 24.7447 144.46 27.3131 144.46 31.3165L144.46 71.6383C144.46 77.4249 142.555 79.816 138.457 82.0977L99.4419 103.92C96.8706 105.347 94.4947 105.332 91.9722 103.92L52.9239 82.0977C48.8741 79.816 46.9356 77.4249 46.9356 71.6383L46.9356 66.2691L52.7681 66.2691L52.7681 71.379C52.7681 74.1099 53.563 75.649 56.607 77.3175L92.7124 97.4508L92.7124 55.0011L52.7681 32.6217L52.7681 48.3463L46.9356 48.3463L46.9356 31.3165C46.9356 27.3131 48.564 24.7447 51.8667 22.8853L88.3257 2.3785C93.2198-0.385181 98.1758-0.385181 103.07 2.3785ZM98.668 55.0011L98.668 97.4508L134.807 77.3175C137.833 75.649 138.627 74.1099 138.627 71.379L138.627 32.6217ZM55.7413 27.5084L95.7071 49.7393L112.975 40.1348L72.9331 17.8214ZM91.1431 7.58994L78.9073 14.4259L119.065 36.7359L135.673 27.5084L100.286 7.58994C97.1739 5.80136 94.2066 5.83505 91.1431 7.58994Z" fill="#000000" fill-opacity="0.85"/>
  <path d="M64.503 57.3077C64.503 55.3892 63.1201 54.0367 61.2656 54.0367L26.7276 54.0367L13.1719 54.4039L13.1719 56.3057L25.5938 44.7413L32.8013 38.0577C33.5728 37.3722 33.8389 36.439 33.8389 35.5396C33.8389 33.7188 32.4527 32.3697 30.5864 32.3697C29.7056 32.3697 28.9527 32.6695 28.2183 33.3551L6.792 54.8536C6.05763 55.5391 5.65675 56.3746 5.65675 57.3077C5.65675 58.2408 6.05763 59.0611 6.792 59.7618L27.9356 80.9776C28.9038 81.9459 29.7056 82.2457 30.5864 82.2457C32.4527 82.2457 33.8389 80.8966 33.8389 79.0758C33.8389 78.1764 33.6216 77.2584 32.8013 76.5577L25.5938 69.8741L13.1719 58.2945L13.1719 60.2115L26.7276 60.5787L61.2656 60.5787C63.1201 60.5787 64.503 59.211 64.503 57.3077Z" fill="#000000" fill-opacity="0.85"/>
 </g>
</svg>
