<?xml version="1.0" encoding="UTF-8"?>
<!--Generator: Apple Native CoreSVG 232.5-->
<!DOCTYPE svg
PUBLIC "-//W3C//DTD SVG 1.1//EN"
       "http://www.w3.org/Graphics/SVG/1.1/DTD/svg11.dtd">
<svg version="1.1" xmlns="http://www.w3.org/2000/svg" xmlns:xlink="http://www.w3.org/1999/xlink" width="97.5244" height="104.985">
 <g>
  <rect height="104.985" opacity="0" width="97.5244" x="0" y="0"/>
  <path d="M5.98829 82.0977L45.0518 103.92C47.5742 105.332 49.9351 105.347 52.5215 103.92L91.5361 82.0977C95.6196 79.816 97.5244 77.4249 97.5244 71.6383L97.5244 31.3165C97.5244 27.3131 95.896 24.7447 92.627 22.8853L56.1343 2.3785C51.2402-0.385181 46.2842-0.385181 41.3901 2.3785L4.9463 22.8853C1.62842 24.7447 0 27.3131 0 31.3165L0 71.6383C0 77.4249 1.93848 79.816 5.98829 82.0977ZM9.68654 77.3175C6.62746 75.649 5.83253 74.1099 5.83253 71.379L5.83253 32.6217L45.792 55.0011L45.792 97.4508ZM87.8867 77.3175L51.7476 97.4508L51.7476 55.0011L91.6919 32.6217L91.6919 71.379C91.6919 74.1099 90.897 75.649 87.8867 77.3175ZM48.7866 49.7393L8.82082 27.5084L25.9976 17.8214L66.0542 40.1348ZM72.1294 36.7359L31.9868 14.4259L44.2075 7.58994C47.2861 5.83505 50.2534 5.80136 53.3506 7.58994L88.7524 27.5084Z" fill="#000000" fill-opacity="0.85"/>
 </g>
</svg>
