<?xml version="1.0" encoding="UTF-8"?>
<!--Generator: Apple Native CoreSVG 232.5-->
<!DOCTYPE svg
PUBLIC "-//W3C//DTD SVG 1.1//EN"
       "http://www.w3.org/Graphics/SVG/1.1/DTD/svg11.dtd">
<svg version="1.1" xmlns="http://www.w3.org/2000/svg" xmlns:xlink="http://www.w3.org/1999/xlink" width="89.1061" height="112.063">
 <g>
  <rect height="112.063" opacity="0" width="89.1061" x="0" y="0"/>
  <path d="M78.2384 31.5806C68.3531 28.0127 54.2632 39.4624 49.9815 51.1357C47.9644 56.7661 45.8008 68.6362 47.1207 78.9946L71.588 87.9053C79.2808 80.8115 85.2647 70.4214 87.3306 64.7236C91.5635 53.0689 88.1085 35.2124 78.2384 31.5806ZM49.8839 109.572C56.9405 112.13 63.2799 106.508 66.8814 96.6006C67.2686 95.5181 67.7652 93.8716 68.043 92.6392L46.8917 84.8989C46.2755 86.0337 45.5953 87.5977 45.2232 88.6802C41.6216 98.6211 42.8458 106.981 49.8839 109.572Z" fill="#000000" fill-opacity="0.85"/>
  <path d="M19.8658 0C9.37946 0 0.00250135 15.6558 0.00250135 28.0615C0.00250135 34.0488 2.04986 45.9189 6.85846 55.1914L32.8917 55.1914C37.6817 45.9189 39.7476 34.0488 39.7476 28.0615C39.7476 15.6558 30.3707 0 19.8658 0ZM19.8995 82.9942C27.3956 82.9942 31.4215 75.5469 31.4215 64.9712C31.4215 63.8399 31.3541 62.1143 31.1436 60.8818L8.6402 60.8818C8.42975 62.1143 8.36237 63.8399 8.36237 64.9712C8.36237 75.5469 12.3882 82.9942 19.8995 82.9942Z" fill="#000000" fill-opacity="0.85"/>
 </g>
</svg>
