<?xml version="1.0" encoding="UTF-8"?>
<!--Generator: Apple Native CoreSVG 232.5-->
<!DOCTYPE svg
PUBLIC "-//W3C//DTD SVG 1.1//EN"
       "http://www.w3.org/Graphics/SVG/1.1/DTD/svg11.dtd">
<svg version="1.1" xmlns="http://www.w3.org/2000/svg" xmlns:xlink="http://www.w3.org/1999/xlink" width="173.967" height="95.0381">
 <g>
  <rect height="95.0381" opacity="0" width="173.967" x="0" y="0"/>
  <path d="M14.6367 63.1133L20.4878 63.1133L20.4878 69.8399C20.4909 70.672 20.5167 71.4807 20.5884 72.2415C13.0766 72.1305 6.43981 68.9967 4.17432 60.3579C7.52881 62.5811 10.417 63.1133 14.6367 63.1133ZM72.0108 10.7217L86.4054 19.0687C79.2569 18.3226 72.4294 21.2231 66.6719 28.6563C61.7573 34.9834 58.0908 36.9463 53.3887 36.9463C48.6778 36.9463 46.1743 36.1636 42.7364 34.4717C31.8877 29.4014 20.4878 36.0264 20.4878 47.7129L20.4878 58.5239L14.6367 58.5239C9.30176 58.5239 6.28418 57.5825 3.46192 54.9146C3.44678 54.4365 3.38281 53.9097 3.38281 53.3526L3.38281 30.5845C3.38281 22.542 10.9805 19.3848 17.543 22.4595C21.5132 24.3872 25.1987 25.4746 30.5933 25.4746C36.7471 25.4746 42.6904 22.2925 48.3814 15.0239C55.1807 6.26124 63.1353 5.60792 72.0108 10.7217ZM144.261 34.4507C145.211 35.6801 145.474 37.2256 145.003 38.8751C139.68 39.4324 133.903 40.2363 131.684 40.2363C128.51 40.2363 125.824 39.4702 122.49 37.4917L107.583 28.7646C107.795 28.7648 108.016 28.7647 108.245 28.7647C112.752 28.7647 124.548 26.8755 129.734 26.8755C137.567 26.8755 142.432 31.0581 144.261 34.4507Z" fill="#000000" fill-opacity="0.85"/>
  <path d="M37.4321 75.6675L122.593 75.6675C133.832 75.6675 139.095 74.46 145.306 71.2486L160.32 63.6079C167.405 59.9165 169.478 54.7134 167.057 51.5791C165.227 48.1865 160.363 44.0039 152.53 44.0039C147.344 44.0039 135.547 45.8931 131.04 45.8931C127.458 45.8931 125.996 45.75 123.065 44.2368L114.931 55.4219C114.136 56.4829 112.76 56.6631 111.733 55.7823C110.773 55.0362 110.626 53.7276 111.406 52.6328L119.005 42.002L112.281 38.0591L103.827 49.958C102.998 51.0713 101.641 51.1992 100.595 50.2847C99.586 49.5723 99.4209 48.2974 100.219 47.1353L108.355 35.772L101.585 31.8291L92.5152 44.5547C91.7539 45.5484 90.2769 45.6763 89.2681 44.9151C88.3081 44.169 88.1953 42.6919 88.9077 41.732L97.626 29.5117L94.7725 27.8501C85.897 22.7363 77.9424 23.4048 71.1431 32.1524C65.4522 39.4209 59.5425 42.603 53.3887 42.603C47.9942 42.603 44.2749 41.5308 40.3384 39.5879C33.7422 36.5283 26.1782 39.6704 26.1782 47.7129L26.1782 70.481C26.1782 71.0381 26.2085 71.565 26.2236 72.043C29.0459 74.711 32.0635 75.6675 37.4321 75.6675ZM162.424 67.6836L147.492 75.1812C140.222 78.9331 134.111 80.2417 122.593 80.2417L37.4321 80.2417C33.1787 80.2417 30.2905 79.7095 26.9697 77.4864C29.2803 86.2969 36.104 89.3814 43.8306 89.3814L122.137 89.3814C136.448 89.3814 145.076 87.0796 157.026 80.4439C166.425 75.1905 170.584 69.0005 170.584 61.6338C170.584 60.896 170.517 60.1919 170.449 59.5064C169.4 62.7481 167.203 65.2046 162.424 67.6836Z" fill="#000000" fill-opacity="0.85"/>
 </g>
</svg>
