<?xml version="1.0" encoding="UTF-8"?>
<!--Generator: Apple Native CoreSVG 232.5-->
<!DOCTYPE svg
PUBLIC "-//W3C//DTD SVG 1.1//EN"
       "http://www.w3.org/Graphics/SVG/1.1/DTD/svg11.dtd">
<svg version="1.1" xmlns="http://www.w3.org/2000/svg" xmlns:xlink="http://www.w3.org/1999/xlink" width="97.9595" height="97.9932">
 <g>
  <rect height="97.9932" opacity="0" width="97.9595" x="0" y="0"/>
  <path d="M48.9722 97.9443C75.8247 97.9443 97.9595 75.7759 97.9595 48.9722C97.9595 22.1348 75.791 0 48.9385 0C22.1348 0 0 22.1348 0 48.9722C0 75.7759 22.1685 97.9443 48.9722 97.9443ZM48.9722 91.6113C25.3501 91.6113 6.36671 72.5942 6.36671 48.9722C6.36671 25.3501 25.3164 6.31789 48.9385 6.31789C72.5605 6.31789 91.6265 25.3501 91.6265 48.9722C91.6265 72.5942 72.5942 91.6113 48.9722 91.6113Z" fill="#000000" fill-opacity="0.85"/>
  <path d="M18.5772 58.3218L60.9189 58.2881C66.4385 58.2881 68.9927 57.7441 72.0405 56.2168L79.5088 52.5347C82.9961 50.7749 84.146 48.606 82.9971 47.0078C82.1211 45.4033 79.7353 43.2456 75.7441 43.1968C73.1899 43.1968 67.3628 44.1397 65.0596 44.1397C63.3862 44.2036 62.6421 44.1245 61.2803 43.4058L57.2832 48.9097C56.8252 49.5293 55.9766 49.627 55.3569 49.1504C54.7861 48.6773 54.6733 47.9263 55.1314 47.2881L58.896 42.084L55.9312 40.3667L51.7422 46.2241C51.2842 46.9111 50.4692 46.9751 49.8311 46.4985C49.2603 46.0254 49.0649 45.2256 49.5415 44.5874L53.5957 39.0449L50.6831 37.2788L46.186 43.542C45.7617 44.1465 44.8457 44.2256 44.2935 43.7676C43.689 43.3584 43.6099 42.4575 44.0005 41.9053L48.314 35.9082L46.46 34.8574C42.3872 32.5659 38.7739 33.0156 35.8765 36.7583C32.6318 40.9458 29.689 42.5166 26.5811 42.5469C23.8452 42.5166 22.0488 41.7876 20.0874 40.7505C16.4854 38.7769 13.1685 40.6797 13.1685 44.3555L13.2173 56.2065C13.2173 56.3379 13.1533 56.6392 13.1685 56.7671C14.5762 58.0825 15.999 58.3218 18.5772 58.3218ZM21.8115 65.5703L60.7773 65.5703C67.8022 65.5703 72.02 64.4473 77.918 61.1338C82.6172 58.583 84.6563 55.5303 84.6074 51.8833C84.6563 51.5498 84.6074 51.2129 84.5737 50.9468C84.0435 52.4741 82.9727 53.7368 80.6724 54.9072L73.1587 58.6011C69.562 60.4063 66.5884 61.0327 60.9644 61.0327L18.6411 61.0327C16.5532 61.0327 15.1538 60.8003 13.5171 59.7578C14.6841 64.0181 17.9712 65.5703 21.8115 65.5703Z" fill="#000000" fill-opacity="0.85"/>
 </g>
</svg>
