<?xml version="1.0" encoding="UTF-8"?>
<!--Generator: Apple Native CoreSVG 232.5-->
<!DOCTYPE svg
PUBLIC "-//W3C//DTD SVG 1.1//EN"
       "http://www.w3.org/Graphics/SVG/1.1/DTD/svg11.dtd">
<svg version="1.1" xmlns="http://www.w3.org/2000/svg" xmlns:xlink="http://www.w3.org/1999/xlink" width="106.959" height="102.693">
 <g>
  <rect height="102.693" opacity="0" width="106.959" x="0" y="0"/>
  <path d="M103.825 15.9536C105.548 15.9536 106.959 14.5425 106.959 12.8198C106.959 11.0972 105.548 9.68604 103.825 9.68604C102.103 9.68604 100.691 11.0972 100.691 12.8198C100.691 14.5425 102.103 15.9536 103.825 15.9536ZM98.1988 45.3115C99.9214 45.3115 101.333 43.9004 101.333 42.1777C101.333 40.4551 99.9214 39.044 98.1988 39.044C96.4761 39.044 95.065 40.4551 95.065 42.1777C95.065 43.9004 96.4761 45.3115 98.1988 45.3115ZM83.7012 71.4346C85.4239 71.4346 86.8501 70.0235 86.8501 68.3008C86.8501 66.5781 85.4239 65.167 83.7012 65.167C81.9449 65.167 80.5674 66.5781 80.5674 68.3008C80.5674 70.0235 81.9449 71.4346 83.7012 71.4346Z" fill="#000000" fill-opacity="0.85"/>
  <path d="M90.7022 17.9082C92.4248 17.9082 93.836 16.4971 93.836 14.7744C93.836 13.0518 92.4248 11.6255 90.7022 11.6255C88.9795 11.6255 87.5684 13.0518 87.5684 14.7744C87.5684 16.4971 88.9795 17.9082 90.7022 17.9082ZM84.9659 40.4487C86.6885 40.4487 88.0996 39.0376 88.0996 37.315C88.0996 35.5923 86.6885 34.1812 84.9659 34.1812C83.2432 34.1812 81.8169 35.5923 81.8169 37.315C81.8169 39.0376 83.2432 40.4487 84.9659 40.4487ZM74.8648 61.4956C76.5874 61.4956 77.9986 60.0845 77.9986 58.3467C77.9986 56.624 76.5874 55.2129 74.8648 55.2129C73.1421 55.2129 71.731 56.624 71.731 58.3467C71.731 60.0845 73.1421 61.4956 74.8648 61.4956Z" fill="#000000" fill-opacity="0.85"/>
  <path d="M77.4781 19.8325C79.2344 19.8325 80.6455 18.4063 80.6455 16.6836C80.6455 14.9609 79.2344 13.5498 77.4781 13.5498C75.7554 13.5498 74.3291 14.9609 74.3291 16.6836C74.3291 18.4063 75.7554 19.8325 77.4781 19.8325ZM71.6353 35.6685C73.3916 35.6685 74.7691 34.2573 74.7691 32.5347C74.7691 30.812 73.3916 29.4009 71.6353 29.4009C69.9126 29.4009 68.5015 30.812 68.5015 32.5347C68.5015 34.2573 69.9126 35.6685 71.6353 35.6685ZM66.0469 51.5078C67.7696 51.5078 69.1807 50.0967 69.1807 48.374C69.1807 46.6514 67.7696 45.2402 66.0469 45.2402C64.3242 45.2402 62.9131 46.6514 62.9131 48.374C62.9131 50.0967 64.3242 51.5078 66.0469 51.5078Z" fill="#000000" fill-opacity="0.85"/>
  <path d="M66.4917 2.8457L48.2901 52.9517C47.7427 54.4253 48.5039 56.064 49.9961 56.6113C51.4697 57.1738 53.1084 56.3638 53.6407 54.939L71.8911 4.83301C72.42 3.32569 71.6284 1.70215 70.1851 1.13965C68.6778 0.577146 66.9903 1.40234 66.4917 2.8457ZM9.22071 82.271C13.7168 83.8809 18.085 81.8096 19.6763 77.4448L34.8657 35.8521L32.8984 37.0547C35.4766 44.062 41.2149 50.0288 49.2598 52.6553L50.9356 47.958C41.7149 44.624 36.1836 37.6685 35.6519 29.0137L33.7778 28.3301C33.1143 28.064 32.3496 28.4429 32.1172 29.125L15.2183 75.4136C14.4858 77.4155 12.585 78.0586 10.8257 77.397C9.16749 76.7656 8.22462 75.168 8.92335 73.3008L29.4756 16.8672C30.666 13.5064 34.2559 11.7974 37.5982 13.0181L40.4907 14.0737C46.4361 7.07276 55.6729 4.88087 65.3765 8.41847L67.0371 3.73975C56.6968-0.0336915 46.335 1.94091 39.167 8.56299L38.0308 8.11523C32.6001 6.1333 27.1831 9.05664 24.898 15.2705L4.31201 71.812C2.73584 76.1953 4.80713 80.6309 9.22071 82.271ZM12.1748 80.6153L8.0503 79.1079L0 101.205L4.15479 102.693Z" fill="#000000" fill-opacity="0.85"/>
 </g>
</svg>
