<?xml version="1.0" encoding="UTF-8"?>
<!--Generator: Apple Native CoreSVG 232.5-->
<!DOCTYPE svg
PUBLIC "-//W3C//DTD SVG 1.1//EN"
       "http://www.w3.org/Graphics/SVG/1.1/DTD/svg11.dtd">
<svg version="1.1" xmlns="http://www.w3.org/2000/svg" xmlns:xlink="http://www.w3.org/1999/xlink" width="107.939" height="102.347">
 <g>
  <rect height="102.347" opacity="0" width="107.939" x="0" y="0"/>
  <path d="M104.791 15.7617C106.513 15.7617 107.939 14.3355 107.939 12.6128C107.939 10.8901 106.513 9.47901 104.791 9.47901C103.068 9.47901 101.657 10.8901 101.657 12.6128C101.657 14.3355 103.068 15.7617 104.791 15.7617ZM99.1641 45.1045C100.887 45.1045 102.298 43.6934 102.298 41.9707C102.298 40.2481 100.887 38.8369 99.1641 38.8369C97.4414 38.8369 96.0303 40.2481 96.0303 41.9707C96.0303 43.6934 97.4414 45.1045 99.1641 45.1045ZM84.6817 71.2276C86.4043 71.2276 87.8155 69.8164 87.8155 68.0938C87.8155 66.3711 86.4043 64.96 84.6817 64.96C82.9253 64.96 81.5327 66.3711 81.5327 68.0938C81.5327 69.8164 82.9253 71.2276 84.6817 71.2276Z" fill="#000000" fill-opacity="0.85"/>
  <path d="M91.6675 17.7012C93.3902 17.7012 94.8013 16.2901 94.8013 14.5674C94.8013 12.8447 93.3902 11.4185 91.6675 11.4185C89.9449 11.4185 88.5337 12.8447 88.5337 14.5674C88.5337 16.2901 89.9449 17.7012 91.6675 17.7012ZM85.9312 40.2417C87.6538 40.2417 89.065 38.8306 89.065 37.1079C89.065 35.3853 87.6538 33.9741 85.9312 33.9741C84.2085 33.9741 82.7974 35.3853 82.7974 37.1079C82.7974 38.8306 84.2085 40.2417 85.9312 40.2417ZM75.8301 61.2886C77.5528 61.2886 78.9639 59.8775 78.9639 58.1548C78.9639 56.4321 77.5528 55.0059 75.8301 55.0059C74.1075 55.0059 72.6963 56.4321 72.6963 58.1548C72.6963 59.8775 74.1075 61.2886 75.8301 61.2886Z" fill="#000000" fill-opacity="0.85"/>
  <path d="M78.4434 19.6255C80.1997 19.6255 81.6109 18.2144 81.6109 16.4917C81.6109 14.7691 80.1997 13.3428 78.4434 13.3428C76.7207 13.3428 75.3096 14.7691 75.3096 16.4917C75.3096 18.2144 76.7207 19.6255 78.4434 19.6255ZM72.6006 35.4614C74.357 35.4614 75.7344 34.0503 75.7344 32.3276C75.7344 30.605 74.357 29.1939 72.6006 29.1939C70.878 29.1939 69.4668 30.605 69.4668 32.3276C69.4668 34.0503 70.878 35.4614 72.6006 35.4614ZM67.0122 51.3159C68.7349 51.3159 70.1612 49.8897 70.1612 48.167C70.1612 46.4444 68.7349 45.0332 67.0122 45.0332C65.2896 45.0332 63.8784 46.4444 63.8784 48.167C63.8784 49.8897 65.2896 51.3159 67.0122 51.3159Z" fill="#000000" fill-opacity="0.85"/>
  <path d="M46.8994 50.916L64.5 2.36084C55.4243 0.11963 46.5156 2.31152 40.1323 8.21631L38.9624 7.78369C33.2861 5.69238 28.2427 8.44238 25.8633 14.9238L5.19141 71.7534C3.73487 75.7964 5.48438 79.5059 9.50879 81.0601C13.6494 82.4492 17.4414 80.752 18.8643 76.7915L34.5777 33.5073L32.8125 34.5903C34.8247 41.5156 39.7432 47.3599 46.8994 50.916ZM12.1748 80.2686L8.0503 78.7764L0 100.824L4.15479 102.347ZM67.4571 2.63867L49.2705 52.7446C48.708 54.2183 49.4693 55.857 50.9614 56.4043C52.4351 56.9668 54.0738 56.1568 54.606 54.7471L72.8565 4.64112C73.3853 3.11866 72.5938 1.49512 71.1504 0.932616C69.6582 0.385252 67.9556 1.19531 67.4571 2.63867Z" fill="#000000" fill-opacity="0.85"/>
 </g>
</svg>
