<?xml version="1.0" encoding="UTF-8"?>
<!--Generator: Apple Native CoreSVG 232.5-->
<!DOCTYPE svg
PUBLIC "-//W3C//DTD SVG 1.1//EN"
       "http://www.w3.org/Graphics/SVG/1.1/DTD/svg11.dtd">
<svg version="1.1" xmlns="http://www.w3.org/2000/svg" xmlns:xlink="http://www.w3.org/1999/xlink" width="114.35" height="88.5371">
 <g>
  <rect height="88.5371" opacity="0" width="114.35" x="0" y="0"/>
  <path d="M14.3936 88.5371L99.9409 88.5371C109.514 88.5371 114.35 83.6558 114.35 74.2632L114.35 14.4019C114.35 5.00928 109.514 0.127929 99.9409 0.127929L14.3936 0.127929C4.86963 0.127929 0 4.93018 0 14.4019L0 74.2632C0 83.7349 4.86963 88.5371 14.3936 88.5371ZM14.5064 82.4922C9.00294 82.4922 6.04494 79.6016 6.04494 73.9634L6.04494 14.7017C6.04494 9.06349 9.00294 6.17287 14.5064 6.17287L99.8433 6.17287C105.237 6.17287 108.305 9.06349 108.305 14.7017L108.305 73.9634C108.305 79.6016 105.237 82.4922 99.8433 82.4922ZM36.3442 83.688L42.2544 83.688L42.2544 4.79884L36.3442 4.79884ZM16.3643 29.876L26.1074 29.876C27.1919 29.876 28.0322 29.103 28.0322 27.9815L28.0322 18.3208C28.0322 17.1201 27.2256 16.3623 26.1074 16.3623L16.3643 16.3623C15.1636 16.3623 14.3569 17.1201 14.3569 18.3208L14.3569 27.9815C14.3569 29.103 15.1973 29.876 16.3643 29.876ZM16.3643 51.0498L26.1074 51.0498C27.1919 51.0498 28.0322 50.2095 28.0322 49.1401L28.0322 39.4121C28.0322 38.2788 27.2256 37.4688 26.1074 37.4688L16.3643 37.4688C15.1636 37.4688 14.3569 38.2788 14.3569 39.4121L14.3569 49.1401C14.3569 50.2095 15.1973 51.0498 16.3643 51.0498ZM16.3643 72.1411L26.1074 72.1411C27.1919 72.1411 28.0322 71.3682 28.0322 70.2466L28.0322 60.5708C28.0322 59.4038 27.2256 58.6274 26.1074 58.6274L16.3643 58.6274C15.1636 58.6274 14.3569 59.4038 14.3569 60.5708L14.3569 70.2466C14.3569 71.3682 15.1973 72.1411 16.3643 72.1411Z" fill="#000000" fill-opacity="0.85"/>
 </g>
</svg>
