<?xml version="1.0" encoding="UTF-8"?>
<!--Generator: Apple Native CoreSVG 232.5-->
<!DOCTYPE svg
PUBLIC "-//W3C//DTD SVG 1.1//EN"
       "http://www.w3.org/Graphics/SVG/1.1/DTD/svg11.dtd">
<svg version="1.1" xmlns="http://www.w3.org/2000/svg" xmlns:xlink="http://www.w3.org/1999/xlink" width="114.35" height="88.5371">
 <g>
  <rect height="88.5371" opacity="0" width="114.35" x="0" y="0"/>
  <path d="M14.3936 88.5371L99.9409 88.5371C109.514 88.5371 114.35 83.6558 114.35 74.2632L114.35 14.4019C114.35 5.00928 109.514 0.127929 99.9409 0.127929L14.3936 0.127929C4.86963 0.127929 0 4.93018 0 14.4019L0 74.2632C0 83.7349 4.86963 88.5371 14.3936 88.5371ZM14.5064 82.4922C9.00294 82.4922 6.04494 79.6016 6.04494 73.9634L6.04494 14.7017C6.04494 9.06349 9.00294 6.17287 14.5064 6.17287L99.8433 6.17287C105.237 6.17287 108.305 9.06349 108.305 14.7017L108.305 73.9634C108.305 79.6016 105.237 82.4922 99.8433 82.4922ZM36.3442 83.688L42.2544 83.688L42.2544 4.79884L36.3442 4.79884ZM26.9995 24.3486C28.2222 24.3486 29.2832 23.2876 29.2832 22.1289C29.2832 20.9214 28.2222 19.894 26.9995 19.894L15.457 19.894C14.2344 19.894 13.207 20.9214 13.207 22.1289C13.207 23.2876 14.2344 24.3486 15.457 24.3486ZM26.9995 37.2827C28.2222 37.2827 29.2832 36.2217 29.2832 35.0142C29.2832 33.8218 28.2222 32.813 26.9995 32.813L15.457 32.813C14.2344 32.813 13.207 33.8218 13.207 35.0142C13.207 36.2217 14.2344 37.2827 15.457 37.2827ZM26.9995 50.1528C28.2222 50.1528 29.2832 49.1592 29.2832 47.9517C29.2832 46.7441 28.2222 45.7168 26.9995 45.7168L15.457 45.7168C14.2344 45.7168 13.207 46.7441 13.207 47.9517C13.207 49.1592 14.2344 50.1528 15.457 50.1528Z" fill="#000000" fill-opacity="0.85"/>
 </g>
</svg>
