<?xml version="1.0" encoding="UTF-8"?>
<!--Generator: Apple Native CoreSVG 232.5-->
<!DOCTYPE svg
PUBLIC "-//W3C//DTD SVG 1.1//EN"
       "http://www.w3.org/Graphics/SVG/1.1/DTD/svg11.dtd">
<svg version="1.1" xmlns="http://www.w3.org/2000/svg" xmlns:xlink="http://www.w3.org/1999/xlink" width="97.9595" height="97.9932">
 <g>
  <rect height="97.9932" opacity="0" width="97.9595" x="0" y="0"/>
  <path d="M48.9722 97.9443C75.8247 97.9443 97.9595 75.7759 97.9595 48.9722C97.9595 22.1348 75.791 0 48.9385 0C22.1348 0 0 22.1348 0 48.9722C0 75.7759 22.1685 97.9443 48.9722 97.9443ZM48.9722 91.6113C25.3501 91.6113 6.36671 72.5942 6.36671 48.9722C6.36671 25.3501 25.3164 6.31789 48.9385 6.31789C72.5605 6.31789 91.6265 25.3501 91.6265 48.9722C91.6265 72.5942 72.5942 91.6113 48.9722 91.6113Z" fill="#000000" fill-opacity="0.85"/>
  <path d="M40.4829 42.2764L46.7036 42.2764L46.7036 46.7192L33.437 46.7192C32.0361 46.7192 31.105 47.125 30.2075 47.9097L25.3198 52.5752C23.5552 54.2119 23.5249 55.9966 25.3501 57.709L30.2075 62.2803C31.105 63.1289 32.0698 63.5195 33.437 63.5195L46.7036 63.5195L46.7036 73.4614L39.3623 73.4614C38.1699 73.4614 37.21 74.4214 37.21 75.6475C37.21 76.8887 38.1699 77.8823 39.3623 77.8823L58.3984 77.8823C59.6245 77.8823 60.6182 76.8887 60.6182 75.6475C60.6182 74.4214 59.6245 73.4614 58.3984 73.4614L51.1397 73.4614L51.1397 63.5195L57.2813 63.5195C59.4331 63.5195 60.7515 62.2651 60.7515 60.0796L60.7515 50.1406C60.7515 47.9551 59.4331 46.7192 57.2813 46.7192L51.1397 46.7192L51.1397 42.2764L64.3272 42.2764C65.6943 42.2764 66.6743 41.8706 67.5566 41.0371L72.478 36.4356C74.2241 34.8174 74.2393 33.0327 72.4292 31.2866L67.5566 26.6665C66.6743 25.8667 65.728 25.4761 64.3272 25.4761L51.1397 25.4761L51.1397 20.5606C51.1397 19.3682 50.1309 18.3408 48.9048 18.3408C47.6484 18.3408 46.7036 19.3833 46.7036 20.5606L46.7036 25.4761L40.4829 25.4761C38.3311 25.4761 37.0127 26.7119 37.0127 28.9312L37.0127 38.8701C37.0127 40.9917 38.3311 42.2764 40.4829 42.2764Z" fill="#000000" fill-opacity="0.85"/>
 </g>
</svg>
