<?xml version="1.0" encoding="UTF-8"?>
<!--Generator: Apple Native CoreSVG 232.5-->
<!DOCTYPE svg
PUBLIC "-//W3C//DTD SVG 1.1//EN"
       "http://www.w3.org/Graphics/SVG/1.1/DTD/svg11.dtd">
<svg version="1.1" xmlns="http://www.w3.org/2000/svg" xmlns:xlink="http://www.w3.org/1999/xlink" width="89.9006" height="105.277">
 <g>
  <rect height="105.277" opacity="0" width="89.9006" x="0" y="0"/>
  <path d="M41.9842 14.5317L48.0291 14.5317L48.0291 3.03175C48.0291 1.38282 46.6463 0 44.9823 0C43.3333 0 41.9842 1.38282 41.9842 3.03175ZM29.7332 42.0508L72.7367 42.0508C75.2928 42.0508 77.034 41.315 78.6439 39.7842L87.5043 31.4238C90.7054 28.3994 90.7206 25.2827 87.4217 22.0781L78.6439 13.7295C77.0677 12.187 75.3265 11.5151 72.7704 11.5151L29.7332 11.5151C25.7962 11.5151 23.4354 13.7412 23.4354 17.7642L23.4354 35.8169C23.4354 39.7759 25.7962 42.0508 29.7332 42.0508ZM17.1639 80.4224L60.1673 80.4224C64.138 80.4224 66.4652 78.1778 66.4652 74.1885L66.4652 56.1021C66.4652 52.128 64.138 49.8682 60.1673 49.8682L17.1302 49.8682C14.6077 49.8682 12.8665 50.5889 11.2567 52.1011L2.49738 60.4951C-0.771175 63.6055-0.820004 66.7559 2.44514 69.8745L11.2567 78.1558C12.9002 79.7168 14.6414 80.4224 17.1639 80.4224ZM41.9842 52.2818L48.0291 52.2818L48.0291 39.4351L41.9842 39.4351ZM41.9842 101.882L48.0291 101.882L48.0291 76.2066L41.9842 76.2066ZM28.0877 104.727L61.828 104.727C63.4769 104.727 64.826 103.378 64.826 101.729C64.826 100.08 63.4769 98.6973 61.828 98.6973L28.0877 98.6973C26.4388 98.6973 25.0897 100.08 25.0897 101.729C25.0897 103.378 26.4388 104.727 28.0877 104.727Z" fill="#000000" fill-opacity="0.85"/>
 </g>
</svg>
