<?xml version="1.0" encoding="UTF-8"?>
<!--Generator: Apple Native CoreSVG 232.5-->
<!DOCTYPE svg
PUBLIC "-//W3C//DTD SVG 1.1//EN"
       "http://www.w3.org/Graphics/SVG/1.1/DTD/svg11.dtd">
<svg version="1.1" xmlns="http://www.w3.org/2000/svg" xmlns:xlink="http://www.w3.org/1999/xlink" width="97.9595" height="97.9932">
 <g>
  <rect height="97.9932" opacity="0" width="97.9595" x="0" y="0"/>
  <path d="M97.9595 49.021C97.9595 75.8584 75.8247 97.9932 48.9722 97.9932C22.1685 97.9932 0 75.8584 0 49.021C0 22.2173 22.1348 0.0488281 48.9385 0.0488281C75.791 0.0488281 97.9595 22.2173 97.9595 49.021ZM46.6514 20.1006L46.6514 25.0835L40.3296 25.0835C38.1104 25.0835 36.792 26.353 36.792 28.5908L36.792 38.7656C36.792 40.9546 38.1104 42.273 40.3296 42.273L46.6514 42.273L46.6514 46.7495L33.1489 46.7495C31.7144 46.7495 30.7495 47.1553 29.8858 47.9585L24.9121 52.7251C23.065 54.4292 23.0161 56.2139 24.8936 57.96L29.8858 62.6172C30.7495 63.5147 31.7481 63.8901 33.1489 63.8901L46.6514 63.8901L46.6514 73.9517L39.2427 73.9517C38.0015 73.9517 36.9741 74.9941 36.9741 76.2539C36.9741 77.48 38.0015 78.5073 39.2427 78.5073L58.5855 78.5073C59.8452 78.5073 60.854 77.48 60.854 76.2539C60.854 74.9941 59.8452 73.9517 58.5855 73.9517L51.207 73.9517L51.207 63.8901L57.4834 63.8901C59.7026 63.8901 61.0396 62.6357 61.0396 60.3828L61.0396 50.2568C61.0396 48.0376 59.7026 46.7495 57.4834 46.7495L51.207 46.7495L51.207 42.273L64.6489 42.273C66.0498 42.273 67.0635 41.8672 67.9121 40.9663L72.9346 36.2637C74.7666 34.6118 74.7969 32.7935 72.8706 31.0137L67.9121 26.3076C67.0635 25.4741 66.0835 25.0835 64.6489 25.0835L51.207 25.0835L51.207 20.1006C51.207 18.8745 50.1983 17.8472 48.9385 17.8472C47.6484 17.8472 46.6514 18.8897 46.6514 20.1006Z" fill="#000000" fill-opacity="0.85"/>
 </g>
</svg>
