<?xml version="1.0" encoding="UTF-8"?>
<!--Generator: Apple Native CoreSVG 232.5-->
<!DOCTYPE svg
PUBLIC "-//W3C//DTD SVG 1.1//EN"
       "http://www.w3.org/Graphics/SVG/1.1/DTD/svg11.dtd">
<svg version="1.1" xmlns="http://www.w3.org/2000/svg" xmlns:xlink="http://www.w3.org/1999/xlink" width="99.0706" height="100.065">
 <g>
  <rect height="100.065" opacity="0" width="99.0706" x="0" y="0"/>
  <path d="M87.1532 58.6231C93.1732 58.6231 96.5966 55.2334 96.5966 49.3262L96.5966 23.4458C96.5966 17.5386 93.1732 14.1978 87.1532 14.1978L24.5038 14.1978C20.5365 14.1978 18.5463 15.395 16.2679 17.5791L3.64293 29.3877C-1.29604 34.086-1.11586 38.8662 3.5941 43.3203L16.2679 55.2266C18.5463 57.377 20.5365 58.5742 24.5375 58.5742ZM87.0184 52.563L24.7211 52.563C22.6654 52.563 21.849 52.1538 20.6942 51.1118L7.53894 38.7427C5.94812 37.3135 5.94812 35.334 7.45984 33.9654L20.6757 21.6939C21.8304 20.6519 22.6654 20.2427 24.6874 20.2427L87.0184 20.2427C89.1561 20.2427 90.432 21.522 90.432 23.6143L90.432 49.1577C90.432 51.25 89.1561 52.563 87.0184 52.563ZM55.5858 18.6699L55.5858 3.04688C55.5858 1.39795 54.203 0 52.5541 0C50.9052 0 49.556 1.39795 49.556 3.04688L49.556 18.6699ZM55.5858 56.3394L49.556 56.3394L49.556 99.3906L55.5858 99.3906ZM73.685 96.9697C73.685 95.3208 72.3358 93.938 70.6869 93.938L34.3724 93.938C32.7235 93.938 31.3744 95.3208 31.3744 96.9697C31.3744 98.6187 32.7235 99.9678 34.3724 99.9678L70.6869 99.9678C72.3358 99.9678 73.685 98.6187 73.685 96.9697Z" fill="#000000" fill-opacity="0.85"/>
 </g>
</svg>
