<?xml version="1.0" encoding="UTF-8"?>
<!--Generator: Apple Native CoreSVG 232.5-->
<!DOCTYPE svg
PUBLIC "-//W3C//DTD SVG 1.1//EN"
       "http://www.w3.org/Graphics/SVG/1.1/DTD/svg11.dtd">
<svg version="1.1" xmlns="http://www.w3.org/2000/svg" xmlns:xlink="http://www.w3.org/1999/xlink" width="97.9595" height="97.9932">
 <g>
  <rect height="97.9932" opacity="0" width="97.9595" x="0" y="0"/>
  <path d="M48.9722 97.9443C75.8247 97.9443 97.9595 75.7759 97.9595 48.9722C97.9595 22.1348 75.791 0 48.9385 0C22.1348 0 0 22.1348 0 48.9722C0 75.7759 22.1685 97.9443 48.9722 97.9443ZM48.9722 91.6113C25.3501 91.6113 6.36671 72.5942 6.36671 48.9722C6.36671 25.3501 25.3164 6.31789 48.9385 6.31789C72.5605 6.31789 91.6265 25.3501 91.6265 48.9722C91.6265 72.5942 72.5942 91.6113 48.9722 91.6113Z" fill="#000000" fill-opacity="0.85"/>
  <path d="M24.6187 48.4141C24.6187 51.8306 26.5752 53.7871 30.0708 53.7871L46.7524 53.7871L46.7524 74.4585L38.2774 74.4585C37.1001 74.4585 36.0425 75.4858 36.0425 76.6934C36.0425 77.8857 37.1001 78.8945 38.2774 78.8945L59.5996 78.8945C60.8071 78.8945 61.8193 77.8369 61.8193 76.6934C61.8193 75.5161 60.8071 74.4585 59.5996 74.4585L51.1734 74.4585L51.1734 53.7871L67.8213 53.7871C71.3169 53.7871 73.3071 51.8306 73.3071 48.4141L73.3071 32.2666C73.3071 28.8198 71.3169 26.8784 67.8213 26.8784L51.1734 26.8784L51.1734 21.251C51.1734 20.0435 50.146 19.0498 48.9385 19.0498C47.7461 19.0498 46.7524 20.0435 46.7524 21.251L46.7524 26.8784L30.0708 26.8784C26.5752 26.8784 24.6187 28.8198 24.6187 32.2666ZM40.8735 43.7412L47.6065 34.1377C48.3608 33.0381 49.5498 32.9741 50.353 34.1377L57.0674 43.7412C58.0357 45.1524 57.5137 46.2891 55.897 46.2891L42.0962 46.2891C40.3784 46.2891 39.8901 45.1524 40.8735 43.7412Z" fill="#000000" fill-opacity="0.85"/>
 </g>
</svg>
