<?xml version="1.0" encoding="UTF-8"?>
<!--Generator: Apple Native CoreSVG 232.5-->
<!DOCTYPE svg
PUBLIC "-//W3C//DTD SVG 1.1//EN"
       "http://www.w3.org/Graphics/SVG/1.1/DTD/svg11.dtd">
<svg version="1.1" xmlns="http://www.w3.org/2000/svg" xmlns:xlink="http://www.w3.org/1999/xlink" width="142.248" height="124.141">
 <g>
  <rect height="124.141" opacity="0" width="142.248" x="0" y="0"/>
  <path d="M35.7672 105.558L3.01319 105.558C1.34912 105.558 0 104.175 0 102.526C0 100.877 1.34912 99.5283 3.01319 99.5283L37.7249 99.5283C36.8261 101.601 36.1621 103.629 35.7672 105.558ZM65.9477 105.558L41.6374 105.558C42.0648 103.662 42.8005 101.627 43.8279 99.5283L68.9023 99.5283C68.0133 101.706 67.0312 103.734 65.9477 105.558ZM142.233 102.526C142.233 104.175 140.85 105.558 139.201 105.558L72.5329 105.558C73.5175 103.698 74.3941 101.672 75.1807 99.5283L139.201 99.5283C140.85 99.5283 142.233 100.877 142.233 102.526ZM5.33253 67.5405L11.9221 74.0976L18.5117 67.5405C19.5239 66.5283 21.0347 66.4946 22.0318 67.5405C23.0777 68.5527 23.0777 70.0635 22.0318 71.0606L15.4576 77.6155L22.0318 84.1572C23.0777 85.1694 23.0777 86.7139 22.0318 87.7109C21.0347 88.7231 19.5239 88.7231 18.5117 87.7109L11.9221 81.1406L5.33253 87.7109C4.32032 88.6895 2.80958 88.7231 1.81251 87.7109C0.766605 86.7139 0.766605 85.188 1.81251 84.1572L8.3867 77.6155L1.81251 71.0606C0.766605 70.0972 0.766605 68.5527 1.81251 67.5405C2.80958 66.4946 4.32032 66.4946 5.33253 67.5405Z" fill="#000000" fill-opacity="0.85"/>
  <path d="M47.8057 124.141C67.3999 124.141 80.4507 99.1519 80.4507 67.2329C80.4507 39.667 68.272 18.2104 49.2554 18.2104C37.1909 18.2104 27.8071 28.5103 27.8071 41.7095C27.8071 60.1802 42.1836 76.4048 61.9663 85.1343C62.5288 85.3667 63.0088 85.4981 63.4736 85.4981C65.0181 85.4981 66.1499 84.2686 66.1499 82.9229C66.1499 81.978 65.6514 81.0635 64.4775 80.501C51.0103 74.1577 33.6734 60.812 33.6734 41.7095C33.6734 31.7642 40.4668 24.043 49.2554 24.043C64.7754 24.043 74.6182 43.5283 74.6182 67.2329C74.6182 95.0664 63.6455 118.308 48.5181 118.308C43.3311 118.308 40.937 114.975 40.937 110.429C40.937 96.0791 61.3491 69.0474 90.4448 69.0474C92.7744 69.0474 94.0537 69.8706 94.0537 71.4731C94.0537 75.5093 91.5015 79.4502 91.5015 83.6982C91.5015 87.1216 93.9448 88.9287 96.9678 88.9287C106.35 88.9287 118.037 71.6221 122.389 71.6221C126.563 71.6221 121.374 87.1138 132.782 87.1138C134.712 87.1138 136.967 86.6221 138.954 85.3794C139.914 84.7647 140.547 83.8198 140.547 82.6694C140.547 81.2227 139.584 80.0117 138.073 80.0117C136.636 80.0117 135.099 81.4277 133.318 81.4277C127.59 81.4277 133.21 65.2319 123.917 65.2319C115.841 65.2319 103.139 82.2808 98.9336 82.2808C98.4068 82.2808 97.9741 81.9609 97.9741 81.1934C97.9741 78.709 100.425 74.4326 100.425 70.5415C100.425 65.9766 96.8115 63.2148 90.8609 63.2148C58.4102 63.2148 34.9849 93.5576 34.9849 111.421C34.9849 118.858 39.398 124.141 47.8057 124.141Z" fill="#000000" fill-opacity="0.85"/>
 </g>
</svg>
