<?xml version="1.0" encoding="UTF-8"?>
<!--Generator: Apple Native CoreSVG 232.5-->
<!DOCTYPE svg
PUBLIC "-//W3C//DTD SVG 1.1//EN"
       "http://www.w3.org/Graphics/SVG/1.1/DTD/svg11.dtd">
<svg version="1.1" xmlns="http://www.w3.org/2000/svg" xmlns:xlink="http://www.w3.org/1999/xlink" width="80.7363" height="104.161">
 <g>
  <rect height="104.161" opacity="0" width="80.7363" x="0" y="0"/>
  <path d="M55.3721 3.64063L77.4863 25.6606C79.8574 28.0654 80.7363 30.4277 80.7363 34.5654L80.7363 89.7861C80.7363 99.2915 75.9341 104.161 66.4624 104.161L14.2739 104.161C4.80225 104.161 0 99.3252 0 89.7861L0 14.5029C0 4.99756 4.88135 0.0942379 14.2739 0.0942379L46.4522 0.0942379C50.2261 0.0942379 52.9942 1.18359 55.3721 3.64063ZM17.1074 63.1572L17.1074 81.397C17.1074 86.0049 19.771 88.6685 24.3452 88.6685L31.1221 88.6685L31.1221 63.8745C31.1221 63.4014 30.8442 63.1572 30.3711 63.1572ZM24.3452 45.479C19.771 45.479 17.1074 48.1426 17.1074 52.7993L17.1074 58.7212L32.7495 58.7212C34.5444 58.7212 35.543 59.7686 35.543 61.5449L35.543 88.6685L45.2358 88.6685L45.2358 45.479ZM49.6568 45.479L49.6568 88.6685L56.44 88.6685C61.0293 88.6685 63.7266 86.0049 63.7266 81.397L63.7266 52.7993C63.7266 48.1426 61.0293 45.479 56.44 45.479Z" fill="#000000" fill-opacity="0.85"/>
 </g>
</svg>
