<?xml version="1.0" encoding="UTF-8"?>
<!--Generator: Apple Native CoreSVG 232.5-->
<!DOCTYPE svg
PUBLIC "-//W3C//DTD SVG 1.1//EN"
       "http://www.w3.org/Graphics/SVG/1.1/DTD/svg11.dtd">
<svg version="1.1" xmlns="http://www.w3.org/2000/svg" xmlns:xlink="http://www.w3.org/1999/xlink" width="107.746" height="113.81">
 <g>
  <rect height="113.81" opacity="0" width="107.746" x="0" y="0"/>
  <path d="M54.5279 8.33595L57.3605 11.1597L43.8413 11.1597C32.2778 11.1597 25.3569 18.148 25.3569 29.794L25.3569 45.8501L22.605 45.8501C18.5459 45.8501 16.0742 48.2393 16.0742 52.4146L16.0742 57.9844L25.3569 57.9844L25.3569 62.0986L16.0742 62.0986L16.0742 76.5117C16.0742 80.6196 18.5459 83.0425 22.605 83.0425L25.3569 83.0425L25.3569 95.209C25.3569 95.6509 25.367 96.0861 25.4061 96.5015L18.4844 96.5015C10.0718 96.5015 5.69044 92.0376 5.69044 83.5576L5.69044 18.1275C5.69044 9.61378 10.0718 5.14991 18.4844 5.14991L46.4903 5.14991C49.8887 5.14991 52.3823 6.20557 54.5279 8.33595Z" fill="#000000" fill-opacity="0.85"/>
  <path d="M31.0474 95.209C31.0474 103.689 35.4287 108.153 43.8413 108.153L89.2613 108.153C97.689 108.153 102.055 103.689 102.055 95.209L102.055 47.1929C102.055 43.4527 101.24 41.3159 99.0982 39.1738L79.8511 19.9873C77.7056 17.8721 75.2305 16.8013 71.8472 16.8013L43.8413 16.8013C35.4287 16.8013 31.0474 21.2652 31.0474 29.794ZM45.8433 88.1631L45.8433 73.75L57.437 73.75C57.895 73.75 58.1543 73.9942 58.1543 74.4336L58.1543 94.709L52.3252 94.709C48.2661 94.709 45.8433 92.2862 45.8433 88.1631ZM45.8433 69.6509L45.8433 64.0811C45.8433 59.9058 48.2661 57.5015 52.3252 57.5015L70.9746 57.5015L70.9746 94.709L62.2534 94.709L62.2534 72.3062C62.2534 70.6157 61.3072 69.6509 59.5796 69.6509ZM75.0889 94.709L75.0889 57.5015L80.4644 57.5015C84.5572 57.5015 86.9463 59.9058 86.9463 64.0811L86.9463 88.1631C86.9463 92.2862 84.5572 94.709 80.4644 94.709Z" fill="#000000" fill-opacity="0.85"/>
 </g>
</svg>
