<?xml version="1.0" encoding="UTF-8"?>
<!--Generator: Apple Native CoreSVG 232.5-->
<!DOCTYPE svg
PUBLIC "-//W3C//DTD SVG 1.1//EN"
       "http://www.w3.org/Graphics/SVG/1.1/DTD/svg11.dtd">
<svg version="1.1" xmlns="http://www.w3.org/2000/svg" xmlns:xlink="http://www.w3.org/1999/xlink" width="102.409" height="102.453">
 <g>
  <rect height="102.453" opacity="0" width="102.409" x="0" y="0"/>
  <path d="M6.94959 95.4464C16.182 104.679 30.079 104.746 39.2777 95.5812L95.4599 39.3839C104.726 30.1178 104.726 16.1383 95.4599 6.90583C86.2577-2.29632 72.2782-2.29632 63.0609 6.87214L6.94959 63.0323C-2.31653 72.2345-2.31653 86.214 6.94959 95.4464ZM11.2142 91.1515C4.55019 84.4874 4.55019 73.9913 11.2142 67.2633L67.3407 11.1519C74.0048 4.47274 84.5497 4.50643 91.1952 11.1856C97.8896 17.88 97.8896 28.3912 91.1952 35.1192L34.9979 91.2525C28.371 97.9132 17.8749 97.8458 11.2142 91.1515ZM47.371 15.5469L48.8173 16.9595C50.2572 18.4029 52.4281 18.4029 53.9018 16.9595L62.7641 8.1158C64.2562 6.6573 64.2562 4.47126 62.7641 3.0279L61.3178 1.56647C59.9081 0.141667 57.6615 0.141667 56.2181 1.6153L47.371 10.4136C45.8974 11.8721 45.8974 14.0733 47.371 15.5469ZM85.3876 53.5636L86.8002 54.9762C88.3075 56.3858 90.4447 56.3858 91.9184 54.9762L100.781 46.0836C102.239 44.6739 102.239 42.5182 100.781 41.0294L99.3832 39.5831C97.9399 38.1432 95.7235 38.1583 94.3139 39.5831L85.3876 48.4303C83.914 49.8888 83.9442 52.1051 85.3876 53.5636ZM1.90174 60.9859L3.36316 62.4473C4.8368 63.8873 6.95887 63.8873 8.43251 62.4473L17.2948 53.5851C18.7347 52.1114 18.7347 49.9591 17.2948 48.4517L15.8485 47.0728C14.39 45.5958 12.204 45.5958 10.7792 47.0728L1.93201 55.8526C0.458374 57.3262 0.458374 59.5763 1.90174 60.9859ZM39.8847 99.0665L41.331 100.449C42.85 101.922 44.9755 101.938 46.4154 100.498L55.2777 91.6354C56.7514 90.128 56.7514 87.9757 55.2777 86.5021L53.8651 85.0558C52.4218 83.6124 50.2206 83.6124 48.7621 85.0558L39.8847 93.9483C38.475 95.3917 38.4599 97.6417 39.8847 99.0665ZM71.8017 22.5035C73.0175 23.753 75.0854 23.753 76.3012 22.5035C77.581 21.2574 77.581 19.2535 76.3012 18.0074C75.0854 16.7579 73.0326 16.7579 71.8017 18.0225C70.5707 19.2535 70.5707 21.2877 71.8017 22.5035ZM79.8588 30.5606C81.0746 31.8253 83.1088 31.8253 84.3734 30.5606C85.6044 29.3297 85.6044 27.2769 84.3734 26.046C83.1088 24.815 81.0746 24.815 79.8588 26.046C78.6278 27.2769 78.6278 29.3297 79.8588 30.5606ZM63.7782 30.5304C65.058 31.7613 67.0771 31.7613 68.308 30.5304C69.5238 29.2994 69.5238 27.2467 68.308 25.982C67.0922 24.7662 65.058 24.7662 63.8422 25.982C62.5624 27.2618 62.5624 29.2994 63.7782 30.5304ZM71.8168 38.5538C73.0966 39.7999 75.1342 39.7999 76.3803 38.5538C77.5961 37.338 77.5961 35.2701 76.3803 34.0543C75.1342 32.7745 73.0966 32.7745 71.8168 34.0543C70.5707 35.2701 70.5707 37.338 71.8168 38.5538ZM26.3324 67.9762C27.5634 69.256 29.5824 69.256 30.8285 67.9762C32.078 66.7603 32.078 64.6925 30.8285 63.4767C29.5975 62.2608 27.5634 62.2608 26.3475 63.4767C25.1015 64.7227 25.1015 66.7603 26.3324 67.9762ZM34.3559 76.0484C35.6019 77.2945 37.6547 77.2945 38.8856 76.0484C40.1503 74.7686 40.1503 72.7647 38.8856 71.485C37.6547 70.2691 35.6019 70.2691 34.3559 71.485C33.14 72.7647 33.14 74.7686 34.3559 76.0484ZM18.3056 75.9996C19.5214 77.2154 21.5892 77.2154 22.8388 75.9996C24.0849 74.7535 24.0849 72.7345 22.8388 71.4698C21.5892 70.2052 19.5853 70.2052 18.3056 71.485C17.0897 72.7345 17.0897 74.7686 18.3056 75.9996ZM26.3627 84.0567C27.5936 85.2726 29.6615 85.2726 30.8773 84.0567C32.1234 82.8258 32.1234 80.773 30.8773 79.527C29.6615 78.2623 27.5936 78.2623 26.3627 79.527C25.1317 80.773 25.1317 82.8258 26.3627 84.0567Z" fill="#000000" fill-opacity="0.85"/>
 </g>
</svg>
