<?xml version="1.0" encoding="UTF-8"?>
<!--Generator: Apple Native CoreSVG 232.5-->
<!DOCTYPE svg
PUBLIC "-//W3C//DTD SVG 1.1//EN"
       "http://www.w3.org/Graphics/SVG/1.1/DTD/svg11.dtd">
<svg version="1.1" xmlns="http://www.w3.org/2000/svg" xmlns:xlink="http://www.w3.org/1999/xlink" width="127.814" height="127.878">
 <g>
  <rect height="127.878" opacity="0" width="127.814" x="0" y="0"/>
  <path d="M4.49579 75.4714C-1.51739 81.4846-1.46857 90.6789 4.4621 96.7258C10.4602 102.593 19.6882 102.656 25.7014 96.6433L96.6618 25.7165C102.675 19.6696 102.593 10.4602 96.7107 4.4621C90.6975-1.46857 81.4846-1.51739 75.4714 4.49579ZM8.58858 79.5793L79.5642 8.58858C83.2717 4.88106 89.0569 4.86592 92.6179 8.55488C96.2917 12.1311 96.2429 17.9011 92.5691 21.6086L21.6086 92.5354C17.9011 96.2429 12.1311 96.2732 8.55488 92.633C4.86592 89.0232 4.88106 83.2868 8.58858 79.5793ZM49.0432 47.4509L53.7556 52.0808C54.9782 53.2697 56.8274 53.3034 58.0163 52.0808C59.2053 50.9592 59.2053 49.1101 58.0163 47.8874L53.2854 43.175C52.1301 42.0197 50.2321 41.986 49.0432 43.175C47.8542 44.3117 47.8205 46.2282 49.0432 47.4509ZM34.675 61.7517L39.3874 66.5163C40.5427 67.7053 42.4592 67.6379 43.6482 66.5163C44.8034 65.3274 44.8371 63.4445 43.6482 62.2556L38.9509 57.5095C37.7619 56.3542 35.8454 56.3542 34.675 57.5095C33.486 58.7321 33.5197 60.5964 34.675 61.7517ZM31.1862 102.113C25.173 108.126 25.2219 117.369 31.1037 123.367C37.1506 129.283 46.3298 129.347 52.343 123.334L123.319 52.343C129.332 46.3298 129.283 37.1169 123.352 31.1037C117.369 25.2219 108.16 25.1394 102.113 31.1525ZM35.279 106.206L106.206 35.2453C109.913 31.5715 115.683 31.5227 119.26 35.1965C122.964 38.7727 122.933 44.5427 119.226 48.2502L48.2502 119.226C44.5427 122.948 38.7912 122.964 35.1965 119.26C31.5564 115.698 31.5715 109.913 35.279 106.206ZM75.7336 74.0774L80.4123 78.7224C81.635 79.945 83.5178 79.945 84.6731 78.7224C85.8957 77.6008 85.862 75.7029 84.6731 74.5476L79.9758 69.8166C78.7868 68.6613 76.904 68.594 75.7336 69.8166C74.5447 70.9382 74.5261 72.8884 75.7336 74.0774ZM61.3469 88.4118L66.0778 93.1428C67.2331 94.3318 69.1159 94.2795 70.3386 93.1428C71.4939 91.9875 71.5276 90.1047 70.3386 88.8821L65.6076 84.1848C64.4524 82.9958 62.5359 82.9958 61.3469 84.1848C60.1765 85.3738 60.2102 87.2229 61.3469 88.4118Z" fill="#000000" fill-opacity="0.85"/>
 </g>
</svg>
