<?xml version="1.0" encoding="UTF-8"?>
<!--Generator: Apple Native CoreSVG 232.5-->
<!DOCTYPE svg
PUBLIC "-//W3C//DTD SVG 1.1//EN"
       "http://www.w3.org/Graphics/SVG/1.1/DTD/svg11.dtd">
<svg version="1.1" xmlns="http://www.w3.org/2000/svg" xmlns:xlink="http://www.w3.org/1999/xlink" width="126.979" height="126.979">
 <g>
  <rect height="126.979" opacity="0" width="126.979" x="0" y="0"/>
  <path d="M3.96959 98.0534C9.29039 103.344 17.4672 103.325 22.7694 98.0231L97.9804 22.7448C103.35 17.4088 103.335 9.29944 98.0443 4.01233C92.7606-1.29333 84.6815-1.32361 79.3119 4.04603L4.03697 79.3547C-1.33266 84.7428-1.33608 92.7023 3.96959 98.0534ZM48.6669 47.0011C47.4105 45.6774 47.3768 43.6935 48.6669 42.4372C49.8744 41.1622 51.9257 41.1808 53.182 42.4372L59.6229 48.8444C60.913 50.1681 60.913 52.152 59.6229 53.4084C58.3666 54.6647 56.3305 54.6647 55.0741 53.4084ZM33.453 62.1662C32.1966 60.9098 32.163 58.9259 33.453 57.6173C34.6757 56.361 36.7269 56.361 37.9681 57.6173L44.4242 64.0583C45.6991 65.3483 45.6654 67.3507 44.4242 68.6408C43.1679 69.8634 41.1166 69.8971 39.8602 68.6408ZM28.9012 122.97C34.2372 128.324 42.3988 128.306 47.701 122.97L122.961 47.6764C128.297 42.3405 128.315 34.2462 122.961 28.9103C117.707 23.6871 109.598 23.6232 104.228 28.9928L29.0174 104.237C23.6141 109.641 23.6444 117.698 28.9012 122.97ZM73.6473 71.9176C72.3236 70.6427 72.3236 68.5915 73.6473 67.3688C74.87 66.1124 76.8724 66.0788 78.1962 67.3688L84.6034 73.8097C85.8598 75.0661 85.8598 77.0837 84.6034 78.34C83.3471 79.6149 81.3446 79.6149 80.0546 78.34ZM58.3661 87.1315C57.1434 85.8752 57.1434 83.8576 58.3661 82.6012C59.6561 81.2926 61.6737 81.3263 62.9638 82.6012L69.371 88.9899C70.6796 90.2985 70.6796 92.3161 69.371 93.5724C68.1146 94.8288 66.0971 94.8288 64.8407 93.5724Z" fill="#000000" fill-opacity="0.85"/>
 </g>
</svg>
