<?xml version="1.0" encoding="UTF-8"?>
<!--Generator: Apple Native CoreSVG 232.5-->
<!DOCTYPE svg
PUBLIC "-//W3C//DTD SVG 1.1//EN"
       "http://www.w3.org/Graphics/SVG/1.1/DTD/svg11.dtd">
<svg version="1.1" xmlns="http://www.w3.org/2000/svg" xmlns:xlink="http://www.w3.org/1999/xlink" width="97.9595" height="97.9932">
 <g>
  <rect height="97.9932" opacity="0" width="97.9595" x="0" y="0"/>
  <path d="M97.9595 49.021C97.9595 75.8584 75.8247 97.9932 48.9722 97.9932C22.1685 97.9932 0 75.8584 0 49.021C0 22.2173 22.1348 0.0488281 48.9385 0.0488281C75.791 0.0488281 97.9595 22.2173 97.9595 49.021ZM18.644 49.021C18.644 65.6685 32.3921 79.3828 49.0059 79.3828C65.6685 79.3828 79.3677 65.6685 79.3677 49.021C79.3677 32.4072 65.6348 18.6592 48.9722 18.6592C32.3921 18.6592 18.644 32.4072 18.644 49.021ZM49.0059 73.7271C40.7681 73.7271 33.5 69.6934 29.0669 63.5098L69.0122 63.5098C64.5605 69.6934 57.2588 73.7271 49.0059 73.7271ZM73.7271 49.021C73.7271 52.292 73.0874 55.4048 71.9023 58.2432L26.1582 58.2432C24.9732 55.4048 24.3335 52.292 24.3335 49.021C24.3335 35.3008 35.2857 24.315 48.9722 24.315C62.6738 24.315 73.6934 35.3008 73.7271 49.021Z" fill="#000000" fill-opacity="0.85"/>
 </g>
</svg>
