<?xml version="1.0" encoding="UTF-8"?>
<!--Generator: Apple Native CoreSVG 232.5-->
<!DOCTYPE svg
PUBLIC "-//W3C//DTD SVG 1.1//EN"
       "http://www.w3.org/Graphics/SVG/1.1/DTD/svg11.dtd">
<svg version="1.1" xmlns="http://www.w3.org/2000/svg" xmlns:xlink="http://www.w3.org/1999/xlink" width="120.246" height="89.7188">
 <g>
  <rect height="89.7188" opacity="0" width="120.246" x="0" y="0"/>
  <path d="M75.7602 57.311L108.404 57.311C116.066 57.311 120.246 53.1958 120.246 45.6528L120.246 13.3203C120.246 5.74366 116.066 1.62842 108.404 1.62842L75.7602 1.62842C68.1465 1.62842 63.9673 5.74366 63.9673 13.3203L63.9673 45.6528C63.9673 53.1958 68.1465 57.311 75.7602 57.311ZM75.8276 51.4126C71.7661 51.4126 69.896 49.5122 69.896 45.4321L69.896 13.5073C69.896 9.42726 71.7661 7.52687 75.8276 7.52687L108.352 7.52687C112.48 7.52687 114.302 9.42726 114.302 13.5073L114.302 45.4321C114.302 49.5122 112.48 51.4126 108.352 51.4126Z" fill="#000000" fill-opacity="0.85"/>
  <path d="M11.5723 56.8882L43.8081 56.8882C51.3022 56.8882 55.4477 52.8403 55.4477 45.3984L55.4477 13.541C55.4477 6.09913 51.3022 2.05127 43.8081 2.05127L11.5723 2.05127C4.11182 2.05127 0 6.06543 0 13.541L0 45.3984C0 52.874 4.11182 56.8882 11.5723 56.8882ZM2.87842 75.6948C1.31543 75.6948 0 77.0439 0 78.7417C0 80.4243 1.31543 81.7398 2.87842 81.7398L19.5581 81.7398L19.5581 75.6948ZM27.8271 89.7188C33.8638 89.7188 38.8042 84.7632 38.8042 78.7417C38.8042 72.6714 33.8638 67.731 27.8271 67.731C21.7905 67.731 16.8501 72.6714 16.8501 78.7417C16.8501 84.7632 21.7905 89.7188 27.8271 89.7188ZM27.8271 84.7271C24.4531 84.7271 21.8418 82.0518 21.8418 78.6777C21.8418 75.3037 24.4531 72.6924 27.8271 72.6924C31.1826 72.6924 33.8276 75.3037 33.8276 78.6777C33.8276 82.0518 31.1826 84.7271 27.8271 84.7271ZM35.6968 75.6948L35.6968 81.7398L117.214 81.7398C118.896 81.7398 120.246 80.4243 120.246 78.7417C120.246 77.0439 118.896 75.6948 117.214 75.6948Z" fill="#000000" fill-opacity="0.85"/>
 </g>
</svg>
