<?xml version="1.0" encoding="UTF-8"?>
<!--Generator: Apple Native CoreSVG 232.5-->
<!DOCTYPE svg
PUBLIC "-//W3C//DTD SVG 1.1//EN"
       "http://www.w3.org/Graphics/SVG/1.1/DTD/svg11.dtd">
<svg version="1.1" xmlns="http://www.w3.org/2000/svg" xmlns:xlink="http://www.w3.org/1999/xlink" width="101.504" height="99.2744">
 <g>
  <rect height="99.2744" opacity="0" width="101.504" x="0" y="0"/>
  <path d="M77.8223 14.4019L77.8223 21.4185L71.7773 21.4185L71.7773 14.7354C71.7773 9.09718 68.71 6.17287 63.3159 6.17287L14.5064 6.17287C9.00294 6.17287 6.04494 9.09718 6.04494 14.7354L6.04494 63.3765C6.04494 69.0298 9.00294 71.9541 14.5064 71.9541L23.6816 71.9541L23.6816 77.9839L14.3936 77.9839C4.83594 77.9839 0 73.148 0 63.71L0 14.4019C0 4.96387 4.83594 0.127929 14.3936 0.127929L63.4473 0.127929C72.9526 0.127929 77.8223 5.00928 77.8223 14.4019Z" fill="#000000" fill-opacity="0.85"/>
  <path d="M38.0903 99.2744L87.1441 99.2744C96.6343 99.2744 101.504 94.3931 101.504 85.0005L101.504 35.6924C101.504 26.2847 96.6343 21.4185 87.1441 21.4185L38.0903 21.4185C28.5176 21.4185 23.6816 26.2207 23.6816 35.6924L23.6816 85.0005C23.6816 94.4385 28.5176 99.2744 38.0903 99.2744ZM38.188 93.2295C32.7183 93.2295 29.7266 90.3052 29.7266 84.667L29.7266 36.0259C29.7266 30.3726 32.7183 27.4483 38.188 27.4483L86.9976 27.4483C92.3916 27.4483 95.459 30.3726 95.459 36.0259L95.459 84.667C95.459 90.3052 92.3916 93.2295 86.9976 93.2295Z" fill="#000000" fill-opacity="0.85"/>
  <path d="M39.6309 76.355L47.0562 76.355L47.0562 71.2417L39.6309 71.2417C38.3037 71.2417 37.1753 72.3701 37.1753 73.7647C37.1753 75.2266 38.3037 76.355 39.6309 76.355ZM54.0733 83.5103C59.5 83.5103 63.898 79.1123 63.898 73.7193C63.898 68.375 59.5 63.9771 54.0733 63.9771C48.7139 63.9771 44.3311 68.375 44.3311 73.7193C44.3311 79.1123 48.7139 83.5103 54.0733 83.5103ZM54.0733 79.1773C51.0547 79.1773 48.6641 76.7564 48.6641 73.7041C48.6641 70.6182 51.0547 68.2949 54.0733 68.2949C57.1592 68.2949 59.5161 70.6182 59.5161 73.7041C59.5161 76.7564 57.1592 79.1773 54.0733 79.1773ZM61.4692 76.355L85.499 76.355C86.9609 76.355 88.0894 75.2266 88.0894 73.7647C88.0894 72.3701 86.9609 71.2417 85.499 71.2417L61.4692 71.2417Z" fill="#000000" fill-opacity="0.85"/>
  <path d="M39.7505 50.2168L63.7954 50.2168L63.7954 45.1035L39.7505 45.1035C38.3037 45.1035 37.1753 46.2319 37.1753 47.6265C37.1753 49.0547 38.3037 50.2168 39.7505 50.2168ZM71.1914 57.3721C76.5356 57.3721 80.9336 52.9741 80.9336 47.5811C80.9336 42.2217 76.5356 37.8389 71.1914 37.8389C65.7983 37.8389 61.4004 42.2217 61.4004 47.5811C61.4004 52.9741 65.7983 57.3721 71.1914 57.3721ZM71.1914 53.0239C68.1055 53.0239 65.7671 50.6182 65.7671 47.5659C65.7671 44.48 68.1055 42.1416 71.1914 42.1416C74.21 42.1416 76.6006 44.48 76.6006 47.5659C76.6006 50.6182 74.21 53.0239 71.1914 53.0239ZM78.2085 50.2168L85.6338 50.2168C86.9609 50.2168 88.0894 49.0547 88.0894 47.6265C88.0894 46.2319 86.9609 45.1035 85.6338 45.1035L78.2085 45.1035Z" fill="#000000" fill-opacity="0.85"/>
 </g>
</svg>
