<?xml version="1.0" encoding="UTF-8"?>
<!--Generator: Apple Native CoreSVG 232.5-->
<!DOCTYPE svg
PUBLIC "-//W3C//DTD SVG 1.1//EN"
       "http://www.w3.org/Graphics/SVG/1.1/DTD/svg11.dtd">
<svg version="1.1" xmlns="http://www.w3.org/2000/svg" xmlns:xlink="http://www.w3.org/1999/xlink" width="91.832" height="91.5274">
 <g>
  <rect height="91.5274" opacity="0" width="91.832" x="0" y="0"/>
  <path d="M64.0049 90.6231C70.0415 90.6231 74.9819 85.6675 74.9819 79.646C74.9819 73.5757 70.0415 68.6353 64.0049 68.6353C57.9346 68.6353 52.9941 73.5757 52.9941 79.646C52.9941 85.6675 57.9346 90.6231 64.0049 90.6231ZM64.0049 85.6313C60.6309 85.6313 58.0044 82.9561 58.0044 79.582C58.0044 76.208 60.6309 73.5967 64.0049 73.5967C67.3789 73.5967 70.0054 76.208 70.0054 79.582C70.0054 82.9561 67.3789 85.6313 64.0049 85.6313ZM56.1504 76.5991L2.99805 76.5991C1.31543 76.5991 0 77.9482 0 79.646C0 81.3286 1.31543 82.6441 2.99805 82.6441L56.1504 82.6441ZM88.9351 76.5991L72.2402 76.5991L72.2402 82.6441L88.9351 82.6441C90.4829 82.6441 91.832 81.3286 91.832 79.646C91.832 77.9482 90.4829 76.5991 88.9351 76.5991Z" fill="#000000" fill-opacity="0.85"/>
  <path d="M13.5181 60.9365L78.2803 60.9365C87.1963 60.9365 91.832 56.481 91.832 47.5835L91.832 13.3682C91.832 4.47071 87.1963 0 78.2803 0L13.5181 0C4.95752 0 0 4.47071 0 13.3682L0 47.5835C0 56.481 4.63575 60.9365 13.5181 60.9365ZM13.4507 55.2588C8.45753 55.2588 6.04494 52.831 6.04494 47.8379L6.04494 13.1138C6.04494 8.10548 8.45753 5.67775 13.4507 5.67775L78.3477 5.67775C83.3745 5.67775 85.8022 8.10548 85.8022 13.1138L85.8022 47.8379C85.8022 52.831 83.3745 55.2588 78.3477 55.2588Z" fill="#000000" fill-opacity="0.85"/>
 </g>
</svg>
