<?xml version="1.0" encoding="UTF-8"?>
<!--Generator: Apple Native CoreSVG 232.5-->
<!DOCTYPE svg
PUBLIC "-//W3C//DTD SVG 1.1//EN"
       "http://www.w3.org/Graphics/SVG/1.1/DTD/svg11.dtd">
<svg version="1.1" xmlns="http://www.w3.org/2000/svg" xmlns:xlink="http://www.w3.org/1999/xlink" width="178.708" height="122.751">
 <g>
  <rect height="122.751" opacity="0" width="178.708" x="0" y="0"/>
  <path d="M146.512 31.4297L146.512 62.9899C145.533 62.8717 144.537 62.8203 143.529 62.8203C142.496 62.8203 141.473 62.8747 140.467 62.992L140.467 31.7632C140.467 26.125 137.4 23.2007 132.006 23.2007L46.6689 23.2007C41.1655 23.2007 38.2075 26.125 38.2075 31.7632L38.2075 90.9912C38.2075 96.6294 41.1655 99.5352 46.6689 99.5352L108.864 99.5352C109.784 101.922 111.948 103.773 114.94 104.168L115.874 104.201C116.067 104.664 116.272 105.122 116.503 105.565L46.5562 105.565C37.0322 105.565 32.1626 100.763 32.1626 91.3247L32.1626 31.4297C32.1626 21.9917 37.0322 17.1558 46.5562 17.1558L132.104 17.1558C141.676 17.1558 146.512 22.0371 146.512 31.4297ZM83.4861 64.2559L128.923 64.2559C129.869 64.2559 130.708 64.7905 131.148 65.5705C128.973 66.5723 126.943 67.8358 125.106 69.3203L83.5044 69.3203C82.4068 73.3133 78.7133 76.25 74.3516 76.25C69.9898 76.25 66.3514 73.3133 65.2719 69.3203L49.73 69.3203C48.4214 69.3203 47.2744 68.207 47.2744 66.8125C47.2744 65.418 48.4214 64.2559 49.73 64.2559L65.2873 64.2559C66.3842 60.2726 69.9873 57.2925 74.3516 57.2925C78.6879 57.2925 82.3637 60.2726 83.4861 64.2559ZM69.0098 66.8125C69.0098 69.8311 71.333 72.1846 74.3516 72.1846C77.4038 72.1846 79.7422 69.7974 79.7422 66.8125C79.7422 63.7266 77.4038 61.4219 74.3516 61.4219C71.333 61.4219 69.0098 63.7266 69.0098 66.8125ZM113.796 39.4385L128.978 39.4385C130.272 39.4385 131.4 40.5669 131.4 41.9951C131.4 43.3897 130.272 44.503 128.978 44.503L113.764 44.503C112.63 48.4567 108.952 51.3721 104.651 51.3721C100.295 51.3721 96.6738 48.4567 95.5616 44.503L49.8159 44.503C48.4214 44.503 47.2744 43.3897 47.2744 41.9951C47.2744 40.5669 48.4214 39.4385 49.8159 39.4385L95.5351 39.4385C96.6149 35.4168 100.282 32.4146 104.651 32.4146C108.997 32.4146 112.707 35.3989 113.796 39.4385ZM99.2944 41.8858C99.2944 44.9195 101.584 47.2915 104.651 47.2915C107.704 47.2915 110.027 44.9195 110.027 41.8858C110.027 38.8672 107.704 36.544 104.651 36.544C101.584 36.544 99.2944 38.8335 99.2944 41.8858Z" fill="#000000" fill-opacity="0.85"/>
  <path d="M159.219 103.964C155.755 108.9 150.013 112.187 143.529 112.187C132.897 112.187 124.113 103.403 124.113 92.7857L119.254 92.7857C119.254 106.057 130.209 117.061 143.529 117.061C151.468 117.061 158.583 113.133 162.924 107.127C165.154 104.33 161.228 101.357 159.219 103.964ZM120.455 87.1031L114.574 95.2823C113.378 96.8907 114.165 98.5967 116.295 98.5967L128.379 98.5967C130.495 98.5967 131.364 96.8047 130.134 95.2823L123.931 87.1031C122.885 85.7979 121.452 85.7642 120.455 87.1031ZM127.825 81.607C131.288 76.6558 137.046 73.3697 143.529 73.3697C154.146 73.3697 162.93 82.1534 162.93 92.7857L167.804 92.7857C167.804 79.499 156.801 68.5108 143.529 68.5108C135.557 68.5108 128.46 72.4571 124.12 78.4287C121.905 81.2412 125.782 84.2139 127.825 81.607ZM166.604 98.4532L172.451 90.2891C173.681 88.6656 172.879 86.9595 170.764 86.9595L158.645 86.9595C156.515 86.9595 155.661 88.7666 156.909 90.2891L163.094 98.4532C164.125 99.792 165.591 99.8257 166.604 98.4532Z" fill="#000000" fill-opacity="0.85"/>
 </g>
</svg>
