<?xml version="1.0" encoding="UTF-8"?>
<!--Generator: Apple Native CoreSVG 232.5-->
<!DOCTYPE svg
PUBLIC "-//W3C//DTD SVG 1.1//EN"
       "http://www.w3.org/Graphics/SVG/1.1/DTD/svg11.dtd">
<svg version="1.1" xmlns="http://www.w3.org/2000/svg" xmlns:xlink="http://www.w3.org/1999/xlink" width="120.246" height="89.7188">
 <g>
  <rect height="89.7188" opacity="0" width="120.246" x="0" y="0"/>
  <path d="M44.4853 57.311C52.1143 57.311 56.2935 53.1958 56.2935 45.6528L56.2935 13.3203C56.2935 5.74366 52.1143 1.62842 44.4853 1.62842L11.8081 1.62842C4.1792 1.62842 0 5.74366 0 13.3203L0 45.6528C0 53.1958 4.1792 57.311 11.8081 57.311ZM44.418 51.4126L11.8755 51.4126C7.78028 51.4126 5.94386 49.5122 5.94386 45.4321L5.94386 13.5073C5.94386 9.42726 7.78028 7.52687 11.8755 7.52687L44.418 7.52687C48.4795 7.52687 50.3496 9.42726 50.3496 13.5073L50.3496 45.4321C50.3496 49.5122 48.4795 51.4126 44.418 51.4126Z" fill="#000000" fill-opacity="0.85"/>
  <path d="M108.64 56.8882C116.134 56.8882 120.246 52.874 120.246 45.3984L120.246 13.541C120.246 6.06543 116.134 2.05127 108.64 2.05127L76.4375 2.05127C68.9434 2.05127 64.7978 6.09913 64.7978 13.541L64.7978 45.3984C64.7978 52.8403 68.9434 56.8882 76.4375 56.8882ZM2.87842 75.6948C1.31543 75.6948 0 77.0439 0 78.7417C0 80.4243 1.31543 81.7398 2.87842 81.7398L19.5581 81.7398L19.5581 75.6948ZM27.8271 89.7188C33.8638 89.7188 38.8042 84.7632 38.8042 78.7417C38.8042 72.6714 33.8638 67.731 27.8271 67.731C21.7905 67.731 16.8501 72.6714 16.8501 78.7417C16.8501 84.7632 21.7905 89.7188 27.8271 89.7188ZM27.8271 84.7271C24.4531 84.7271 21.8418 82.0518 21.8418 78.6777C21.8418 75.3037 24.4531 72.6924 27.8271 72.6924C31.1826 72.6924 33.8276 75.3037 33.8276 78.6777C33.8276 82.0518 31.1826 84.7271 27.8271 84.7271ZM35.6968 75.6948L35.6968 81.7398L117.214 81.7398C118.896 81.7398 120.246 80.4243 120.246 78.7417C120.246 77.0439 118.896 75.6948 117.214 75.6948Z" fill="#000000" fill-opacity="0.85"/>
 </g>
</svg>
