<?xml version="1.0" encoding="UTF-8"?>
<!--Generator: Apple Native CoreSVG 232.5-->
<!DOCTYPE svg
PUBLIC "-//W3C//DTD SVG 1.1//EN"
       "http://www.w3.org/Graphics/SVG/1.1/DTD/svg11.dtd">
<svg version="1.1" xmlns="http://www.w3.org/2000/svg" xmlns:xlink="http://www.w3.org/1999/xlink" width="108.654" height="108.782">
 <g>
  <rect height="108.782" opacity="0" width="108.654" x="0" y="0"/>
  <path d="M27.1758 7.36133C25.7661 8.15967 25.4292 9.82032 26.1938 11.166L35.1846 26.7651C35.9829 28.1108 37.5796 28.606 38.9404 27.7773C40.2896 26.9976 40.6719 25.3672 39.9409 24.0552L30.9165 8.42237C30.103 7.11035 28.5215 6.64551 27.1758 7.36133Z" fill="#000000" fill-opacity="0.85"/>
  <path d="M7.31592 27.2549C6.51758 28.6494 6.98242 30.231 8.32813 31.0444L23.9272 40.0689C25.273 40.7998 26.8999 40.4326 27.6982 39.0718C28.4443 37.7075 27.9829 36.1108 26.6372 35.3125L11.0381 26.2881C9.69239 25.5571 8.04688 25.9092 7.31592 27.2549Z" fill="#000000" fill-opacity="0.85"/>
  <path d="M0 54.4155C0 56.0088 1.24463 57.1895 2.77393 57.1895L20.7739 57.1895C22.3369 57.1895 23.5479 56.0088 23.5479 54.4155C23.5479 52.9014 22.3369 51.7207 20.7739 51.7207L2.77393 51.7207C1.24463 51.7207 0 52.9014 0 54.4155Z" fill="#000000" fill-opacity="0.85"/>
  <path d="M7.31592 81.6216C8.04688 83.001 9.69239 83.353 11.0381 82.6221L26.6372 73.5977C27.9829 72.7993 28.478 71.2026 27.6982 69.8721C26.8999 68.4775 25.273 68.1104 23.9272 68.8413L8.32813 77.8657C6.98242 78.6792 6.51758 80.2607 7.31592 81.6216Z" fill="#000000" fill-opacity="0.85"/>
  <path d="M27.1758 101.5C28.5215 102.265 30.103 101.8 30.9165 100.454L39.9409 84.855C40.6719 83.5093 40.3047 81.8823 38.9741 81.1328C37.5493 80.3682 35.9829 80.7993 35.1846 82.145L26.1938 97.7441C25.4292 99.0898 25.7812 100.735 27.1758 101.5Z" fill="#000000" fill-opacity="0.85"/>
  <path d="M54.2876 108.782C55.8809 108.782 57.0615 107.538 57.0615 106.008L57.0615 88.0083C57.0615 86.479 55.8809 85.2344 54.2876 85.2344C52.7734 85.2344 51.5928 86.479 51.5928 88.0083L51.5928 106.008C51.5928 107.538 52.7734 108.782 54.2876 108.782Z" fill="#000000" fill-opacity="0.85"/>
  <path d="M81.4937 101.5C82.8731 100.735 83.2251 99.0898 82.4942 97.7441L73.4849 82.145C72.7202 80.7993 71.0747 80.3042 69.7441 81.084C68.3496 81.8823 67.9976 83.5093 68.7471 84.8399L77.7378 100.454C78.5513 101.8 80.1328 102.265 81.4937 101.5Z" fill="#000000" fill-opacity="0.85"/>
  <path d="M101.387 81.6065C102.201 80.2759 101.672 78.6792 100.36 77.8657L84.7271 68.8413C83.415 68.1104 81.7544 68.4775 81.0049 69.8081C80.2402 71.2329 80.6714 72.7993 82.0171 73.5977L97.6162 82.6221C98.9619 83.353 100.592 83.001 101.387 81.6065Z" fill="#000000" fill-opacity="0.85"/>
  <path d="M108.654 54.4155C108.654 52.9014 107.443 51.7207 105.88 51.7207L87.8804 51.7207C86.3511 51.7207 85.1065 52.9014 85.1065 54.4155C85.1065 56.0088 86.3511 57.1895 87.8804 57.1895L105.88 57.1895C107.443 57.1895 108.654 56.0088 108.654 54.4155Z" fill="#000000" fill-opacity="0.85"/>
  <path d="M101.421 27.3037C100.623 25.894 98.9619 25.5571 97.6162 26.2881L82.0171 35.2974C80.6714 36.0957 80.1763 37.7075 81.0386 39.1021C81.7847 40.3838 83.415 40.7998 84.7271 40.0689L100.36 31.0444C101.672 30.231 102.137 28.6494 101.421 27.3037Z" fill="#000000" fill-opacity="0.85"/>
  <path d="M81.5274 7.41016C80.1328 6.64551 78.5513 7.11035 77.7378 8.42237L68.7471 24.0552C67.9824 25.3672 68.3496 27.0278 69.7441 27.8262C71.0747 28.5723 72.6714 28.1108 73.4697 26.7651L82.4942 11.166C83.2251 9.82032 82.8731 8.17481 81.5274 7.41016Z" fill="#000000" fill-opacity="0.85"/>
  <path d="M54.2876 0.127929C52.7734 0.127929 51.5928 1.37256 51.5928 2.90186L51.5928 20.9019C51.5928 22.4312 52.7734 23.6758 54.2876 23.6758C55.8809 23.6758 57.0615 22.4312 57.0615 20.9019L57.0615 2.90186C57.0615 1.37256 55.8809 0.127929 54.2876 0.127929Z" fill="#000000" fill-opacity="0.85"/>
 </g>
</svg>
