<?xml version="1.0" encoding="UTF-8"?>
<!--Generator: Apple Native CoreSVG 232.5-->
<!DOCTYPE svg
PUBLIC "-//W3C//DTD SVG 1.1//EN"
       "http://www.w3.org/Graphics/SVG/1.1/DTD/svg11.dtd">
<svg version="1.1" xmlns="http://www.w3.org/2000/svg" xmlns:xlink="http://www.w3.org/1999/xlink" width="59.4746" height="100.561">
 <g>
  <rect height="100.561" opacity="0" width="59.4746" x="0" y="0"/>
  <path d="M5.84278 100.493L53.6319 100.493C57.0147 100.493 59.4746 98.0484 59.4746 94.6504L59.4746 5.84278C59.4746 2.39941 57.0601 0 53.6319 0L5.84278 0C2.39941 0 0 2.39941 0 5.84278L0 94.6504C0 98.0484 2.47852 100.493 5.84278 100.493ZM8.26368 88.2471C6.99269 88.2471 6.04494 87.2842 6.04494 86.0283L6.04494 8.26368C6.04494 6.92872 6.92872 6.0298 8.26368 6.0298L51.211 6.0298C52.5459 6.0298 53.4297 6.92872 53.4297 8.26368L53.4297 86.0283C53.4297 87.2842 52.5005 88.2471 51.211 88.2471Z" fill="#000000" fill-opacity="0.85"/>
 </g>
</svg>
