<?xml version="1.0" encoding="UTF-8"?>
<!--Generator: Apple Native CoreSVG 232.5-->
<!DOCTYPE svg
PUBLIC "-//W3C//DTD SVG 1.1//EN"
       "http://www.w3.org/Graphics/SVG/1.1/DTD/svg11.dtd">
<svg version="1.1" xmlns="http://www.w3.org/2000/svg" xmlns:xlink="http://www.w3.org/1999/xlink" width="117.804" height="85.2256">
 <g>
  <rect height="85.2256" opacity="0" width="117.804" x="0" y="0"/>
  <path d="M57.7236 9.95215C59.7505 9.37988 61.6431 9.02295 63.729 9.02295C72.9897 9.05594 80.5313 15.4996 82.3689 24.3833C81.3122 24.2014 80.2211 24.1206 79.1094 24.1206C78.2298 24.1206 77.3639 24.1665 76.5161 24.2641C74.8369 18.5683 69.8662 14.731 63.729 14.731C61.8433 14.731 60.584 15.0088 58.582 15.7901C56.2144 16.7129 54.958 16.3154 53.9292 14.3941C51.0874 9.08888 45.3696 5.70802 38.5747 5.70802C28.9917 5.70802 21.6055 13.4829 21.6055 23.0205C21.6055 25.981 20.9502 26.7256 18.0537 27.0371C11.0635 27.8755 5.72316 33.9634 5.72316 41.1152C5.72316 49.582 12.0366 55.355 21.2964 55.355L22.3512 55.355C20.8828 56.9784 19.7303 58.8729 18.9776 60.9643C7.57678 59.9848 0 51.7796 0 41.1152C0 31.5903 6.66064 23.6094 15.9497 21.5312C16.8223 9.53808 26.4839 0 38.5747 0C46.5249 0 53.3677 3.76465 57.7236 9.95215Z" fill="#000000" fill-opacity="0.85"/>
  <path d="M36.5776 85.1987L96.3726 85.1987C109.053 85.1987 117.669 76.5894 117.669 65.2358C117.669 55.7261 111.008 47.73 101.719 45.6519C100.847 33.6738 91.2002 24.1206 79.1094 24.1206C71.144 24.1206 64.3013 27.8852 59.9453 34.0727C57.9336 33.5005 56.0259 33.1436 53.9399 33.1436C44.4824 33.1436 36.8179 39.8784 35.1743 49.0664C25.4692 49.8379 17.8657 57.4502 17.8657 67.1216C17.8657 77.561 25.7324 85.1987 36.5776 85.1987ZM36.5776 79.4756C28.877 79.4756 23.5889 74.4165 23.5889 67.1216C23.5889 60.2139 29.1733 54.7642 36.2612 54.6211C39.1948 54.5386 40.3652 53.7705 40.5942 51.2529C41.2676 44.0186 46.8184 38.8667 53.9399 38.8667C55.8257 38.8667 57.085 39.1445 59.0869 39.9107C61.4546 40.7998 62.7109 40.4512 63.7397 38.5147C66.5815 33.2246 72.3145 29.8775 79.1094 29.8438C88.6772 29.8438 96.0786 37.6035 96.0786 47.1411C96.0786 50.1016 96.7187 50.8125 99.6152 51.1577C106.605 51.9961 111.961 58.0991 111.961 65.2358C111.961 73.7178 105.632 79.4756 96.3726 79.4756Z" fill="#000000" fill-opacity="0.85"/>
 </g>
</svg>
