<?xml version="1.0" encoding="UTF-8"?>
<!--Generator: Apple Native CoreSVG 232.5-->
<!DOCTYPE svg
PUBLIC "-//W3C//DTD SVG 1.1//EN"
       "http://www.w3.org/Graphics/SVG/1.1/DTD/svg11.dtd">
<svg version="1.1" xmlns="http://www.w3.org/2000/svg" xmlns:xlink="http://www.w3.org/1999/xlink" width="97.9595" height="97.9932">
 <g>
  <rect height="97.9932" opacity="0" width="97.9595" x="0" y="0"/>
  <path d="M97.9595 49.021C97.9595 75.8584 75.8247 97.9932 48.9722 97.9932C22.1685 97.9932 0 75.8584 0 49.021C0 22.2173 22.1348 0.0488281 48.9385 0.0488281C75.791 0.0488281 97.9595 22.2173 97.9595 49.021ZM48.5064 42.5723C47.1494 42.1211 46.1089 41.9746 44.8125 41.9746C39.4634 41.9746 35.1665 45.8135 34.3667 51.1069C28.8408 51.2231 24.438 55.7422 24.438 61.0645C24.438 66.7437 28.6489 71.0625 34.7559 71.0625L69.5762 71.0625C76.4609 71.0625 81.2393 66.3042 81.2393 60.0122C81.2393 54.6108 77.3062 50.043 72.043 49.1235C71.7432 42.3467 66.3501 36.7114 59.4082 36.7114C54.7983 36.7114 50.8618 38.9238 48.5064 42.5723ZM23.7129 34.9941C18.3218 36.0195 14.4829 40.5269 14.4829 45.9585C14.4829 50.7891 17.2915 54.7964 22.1777 56.332C23.7637 52.2554 27.3687 49.1738 31.7734 48.2207C33.624 42.6426 38.7056 38.7397 44.8125 38.7397C45.6323 38.7397 46.4556 38.8037 47.2603 38.9619C50.3311 35.3223 54.6494 33.5274 59.5435 33.5894C58.6597 30.4985 55.6123 27.9629 50.9585 27.9629C49.5376 27.9629 48.4785 28.1953 47.2158 28.5859C44.7207 24.8096 40.9087 22.6426 36.5327 22.6426C29.6548 22.6426 23.9639 28.1685 23.7129 34.9941Z" fill="#000000" fill-opacity="0.85"/>
 </g>
</svg>
