<?xml version="1.0" encoding="UTF-8"?>
<!--Generator: Apple Native CoreSVG 232.5-->
<!DOCTYPE svg
PUBLIC "-//W3C//DTD SVG 1.1//EN"
       "http://www.w3.org/Graphics/SVG/1.1/DTD/svg11.dtd">
<svg version="1.1" xmlns="http://www.w3.org/2000/svg" xmlns:xlink="http://www.w3.org/1999/xlink" width="128.363" height="96.1182">
 <g>
  <rect height="96.1182" opacity="0" width="128.363" x="0" y="0"/>
  <path d="M63.0503 15.9307C65.3467 15.1563 67.2358 14.8145 69.4937 14.8145C76.5588 14.8145 82.6231 18.6874 85.7206 24.5856C85.3096 24.5379 84.8871 24.5283 84.4619 24.5283C75.8833 24.5283 68.3233 28.1265 63.1035 34.1675C61.6861 33.8965 60.3511 33.7383 58.8697 33.7383C48.1743 33.7383 39.23 40.5288 36.0928 50.3281C28.2296 52.0195 21.8452 57.5944 19.0596 64.8032C10.8948 62.2532 5.69044 55.1971 5.69044 46.5059C5.69044 36.9775 12.5566 29.0488 21.812 27.3901C22.314 15.4458 31.792 5.62305 43.9502 5.62305C51.9815 5.62305 58.8359 9.53272 63.0503 15.9307Z" fill="#000000" fill-opacity="0.85"/>
  <path d="M41.2866 90.4614L102.283 90.4614C114.357 90.4614 122.673 82.0391 122.673 71.0864C122.673 61.5581 115.807 53.6108 106.585 51.937C106.049 40.0078 96.605 30.2188 84.4619 30.2188C76.3819 30.2188 69.5274 34.1133 65.313 40.5264C63.0166 39.752 61.1275 39.395 58.8697 39.395C49.5249 39.395 41.9649 46.1856 40.6245 55.4526C30.8926 55.6851 23.2114 63.5801 23.2114 72.9385C23.2114 82.8389 30.5239 90.4614 41.2866 90.4614Z" fill="#000000" fill-opacity="0.85"/>
 </g>
</svg>
