<?xml version="1.0" encoding="UTF-8"?>
<!--Generator: Apple Native CoreSVG 232.5-->
<!DOCTYPE svg
PUBLIC "-//W3C//DTD SVG 1.1//EN"
       "http://www.w3.org/Graphics/SVG/1.1/DTD/svg11.dtd">
<svg version="1.1" xmlns="http://www.w3.org/2000/svg" xmlns:xlink="http://www.w3.org/1999/xlink" width="114.468" height="114.65">
 <g>
  <rect height="114.65" opacity="0" width="114.468" x="0" y="0"/>
  <path d="M7.51049 106.94C17.7297 117.174 30.8235 116.935 41.4505 106.342C46.2493 101.524 55.657 87.293 71.4744 71.4907C87.3103 55.6548 101.493 46.2656 106.325 41.4331C116.952 30.855 117.158 17.7461 106.924 7.52683C96.7044-2.70755 83.6292-2.50198 73.0022 8.12498C68.1848 12.9424 58.7957 27.1401 42.9597 42.9761C27.1575 58.8271 12.926 68.2012 8.14233 73C-2.48463 83.627-2.72389 96.7207 7.51049 106.94ZM11.6404 102.81C3.90211 95.124 4.1565 85.1934 12.1897 77.0962C16.8655 72.4507 30.969 63.0801 46.992 46.9746C63.0637 30.9853 72.468 16.8481 77.1136 12.206C85.1619 4.15428 95.1077 3.88475 102.812 11.623C110.566 19.3428 110.296 29.2886 102.278 37.3706C97.6023 42.0161 83.4988 51.3867 67.4607 67.4922C51.3704 83.4814 41.9998 97.585 37.3543 102.261C29.2571 110.313 19.3113 110.582 11.6404 102.81ZM42.9143 65.1431L49.3411 71.521C50.9866 73.2002 53.5769 73.1968 55.2073 71.585C56.8528 69.9058 56.8377 67.4468 55.1922 65.8013L48.6492 59.292C47.0037 57.6128 44.511 57.5976 42.8992 59.2095C41.22 60.8735 41.2839 63.4639 42.9143 65.1431ZM59.2083 48.8003L65.6502 55.2422C67.3631 56.9063 69.8894 56.9365 71.5012 55.2573C73.1131 53.6606 73.1165 51.0703 71.4861 49.4248L65.0257 42.9643C63.3801 41.334 60.7561 41.3374 59.1594 42.9492C57.5139 44.561 57.5628 47.1548 59.2083 48.8003Z" fill="#000000" fill-opacity="0.85"/>
 </g>
</svg>
