<?xml version="1.0" encoding="UTF-8"?>
<!--Generator: Apple Native CoreSVG 232.5-->
<!DOCTYPE svg
PUBLIC "-//W3C//DTD SVG 1.1//EN"
       "http://www.w3.org/Graphics/SVG/1.1/DTD/svg11.dtd">
<svg version="1.1" xmlns="http://www.w3.org/2000/svg" xmlns:xlink="http://www.w3.org/1999/xlink" width="136.817" height="71.5889">
 <g>
  <rect height="71.5889" opacity="0" width="136.817" x="0" y="0"/>
  <path d="M3.10304 71.5889L8.89064 71.5889C11.1997 71.5889 12.377 70.5059 13.0708 68.7393L39.9785 2.30762C40.4956 1.10498 39.8657 0.0673831 38.5957 0.0673831L35.9971 0.0673831C34.6968 0.0673831 33.8799 0.655276 33.3291 1.77198L0.472175 67.3193C-0.607417 69.3252 0.17237 71.5889 3.10304 71.5889ZM127.941 71.5889L133.748 71.5889C136.66 71.5889 137.424 69.3252 136.36 67.3193L103.522 1.77198C102.952 0.655276 102.135 0.0673831 100.835 0.0673831L98.2212 0.0673831C96.9512 0.0673831 96.355 1.10498 96.8384 2.30762L123.746 68.7393C124.44 70.5059 125.617 71.5889 127.941 71.5889Z" fill="#000000" fill-opacity="0.85"/>
  <path d="M68.3823 68.7022C69.6573 68.7022 70.5987 67.7456 70.5987 66.3731L70.5987 59.8213L75.7212 62.7739C76.9439 63.4678 78.148 63.1865 78.7779 62.0952C79.3555 61.0864 78.9917 59.8301 77.8667 59.1514L70.5684 55.0435L70.5684 50.7173L70.1524 41.46L78.2359 46.4356L81.7979 48.5078L81.7793 56.9526C81.7793 58.2275 82.5928 59.1875 83.7818 59.1875C85.0869 59.1875 85.897 58.3101 85.897 56.9526L85.9307 50.8555L91.6323 54.1802C92.7573 54.8589 93.98 54.6079 94.6924 53.4981C95.3374 52.3091 94.9434 51.0679 93.7847 50.4043L88.0982 47.1284L93.251 44.127C94.4248 43.3843 94.8526 42.2744 94.2412 41.2168C93.5811 40.144 92.291 39.9082 91.1509 40.5381L83.9502 44.7471L80.2486 42.5689L71.8584 38.2603L80.2486 33.9517L83.9502 31.7246L91.1509 35.9673C92.291 36.5786 93.6148 36.3765 94.2412 35.3374C94.8526 34.2124 94.4248 33.1362 93.251 32.3447L88.0982 29.3584L93.7847 26.1162C94.9434 25.4375 95.3374 24.2451 94.6924 23.0225C94.0474 21.9126 92.7573 21.6616 91.6323 22.3066L85.9307 25.6313L85.897 19.5679C85.897 18.229 85.0869 17.2842 83.8003 17.2842C82.5928 17.2842 81.7793 18.293 81.7793 19.5679L81.7979 27.9639L78.2207 30.0513L70.1524 35.0605L70.5684 25.8032L70.5684 21.4771L77.8667 17.3692C78.9917 16.6904 79.3555 15.4341 78.7779 14.4102C78.148 13.334 76.9439 13.0376 75.7212 13.7466L70.5987 16.6992L70.5987 10.1475C70.5987 8.74122 69.6573 7.81837 68.3823 7.81837C67.126 7.81837 66.23 8.77491 66.23 10.1475L66.23 16.7783L60.9678 13.7466C59.7569 13.0713 58.6016 13.3189 57.9566 14.4404C57.4092 15.4492 57.8067 16.6602 58.898 17.3052L66.23 21.4771L66.23 25.8032L66.646 35.0605L58.7324 30.1606L54.9668 27.9639L55.0005 19.5679C55.0005 18.293 54.1568 17.2842 52.9678 17.2842C51.6778 17.2842 50.9165 18.2256 50.9165 19.5679L50.8828 25.6162L45.1812 22.3066C43.9771 21.6128 42.7022 21.9463 42.0571 23.0225C41.4273 24.2114 41.8213 25.4375 42.9649 26.1162L48.6665 29.3584L43.4986 32.3447C42.3096 33.0723 41.897 34.1787 42.5083 35.3525C43.1499 36.3916 44.4434 36.6426 45.6138 35.9673L52.7993 31.7583L56.5161 33.9517L64.8911 38.2603L56.5161 42.5689L52.7993 44.7471L45.6138 40.5381C44.4434 39.8779 43.1499 40.0952 42.542 41.1343C41.9307 42.2744 42.2759 43.4331 43.4986 44.127L48.6665 47.1284L42.9649 50.4043C41.8213 51.0679 41.461 52.3091 42.0571 53.4981C42.7359 54.6079 43.9771 54.874 45.1812 54.1802L50.8828 50.9043L50.9165 56.9526C50.9165 58.2949 51.6778 59.1875 52.9678 59.1875C54.1568 59.1875 55.0005 58.2275 55.0005 56.9526L54.9668 48.5078L58.7324 46.3447L66.646 41.46L66.23 50.7173L66.23 55.0435L58.898 59.2153C57.8067 59.8452 57.4092 61.0562 57.9566 62.0801C58.6016 63.2017 59.7569 63.4492 60.9678 62.7739L66.23 59.7422L66.23 66.3731C66.23 67.7119 67.126 68.7022 68.3823 68.7022Z" fill="#000000" fill-opacity="0.85"/>
 </g>
</svg>
