<?xml version="1.0" encoding="UTF-8"?>
<!--Generator: Apple Native CoreSVG 232.5-->
<!DOCTYPE svg
PUBLIC "-//W3C//DTD SVG 1.1//EN"
       "http://www.w3.org/Graphics/SVG/1.1/DTD/svg11.dtd">
<svg version="1.1" xmlns="http://www.w3.org/2000/svg" xmlns:xlink="http://www.w3.org/1999/xlink" width="97.9595" height="97.9932">
 <g>
  <rect height="97.9932" opacity="0" width="97.9595" x="0" y="0"/>
  <path d="M48.9722 97.9443C75.8247 97.9443 97.9595 75.7759 97.9595 48.9722C97.9595 22.1348 75.791 0 48.9385 0C22.1348 0 0 22.1348 0 48.9722C0 75.7759 22.1685 97.9443 48.9722 97.9443ZM48.9722 91.6113C25.3501 91.6113 6.36671 72.5942 6.36671 48.9722C6.36671 25.3501 25.3164 6.31789 48.9385 6.31789C72.5605 6.31789 91.6265 25.3501 91.6265 48.9722C91.6265 72.5942 72.5942 91.6113 48.9722 91.6113Z" fill="#000000" fill-opacity="0.85"/>
  <path d="M48.9048 79.4141C50.2285 79.4141 51.1211 78.4575 51.1211 77.085L51.1211 70.5332L56.2437 73.4858C57.4663 74.146 58.7041 73.8984 59.3003 72.8071C59.9116 71.7983 59.5293 70.542 58.3892 69.8633L51.106 65.7554L51.106 61.4292L50.69 52.1719L58.792 57.1475L62.3203 59.2197L62.3355 67.6494C62.3355 68.9395 63.1152 69.8994 64.3042 69.8994C65.6094 69.8994 66.4194 69.022 66.4194 67.6494L66.4531 61.5337L72.1548 64.8921C73.2949 65.5708 74.5513 65.3198 75.2149 64.21C75.8599 63.021 75.4995 61.7798 74.356 61.1162L68.6543 57.8252L73.7886 54.8389C74.9473 54.0962 75.375 52.9863 74.7974 51.9287C74.1372 50.856 72.8472 50.605 71.7222 51.25L64.5215 55.459L60.8047 53.2471L52.3809 48.9722L60.8047 44.6636L64.5215 42.4365L71.7222 46.6792C72.8472 47.2905 74.1709 47.0733 74.7974 46.0342C75.375 44.9243 74.9473 43.8481 73.7886 43.0566L68.6543 40.0703L74.356 36.8281C75.4995 36.1494 75.8599 34.957 75.2149 33.7344C74.6035 32.6245 73.2949 32.3735 72.1548 33.0186L66.4531 36.3433L66.4194 30.2798C66.4194 28.9409 65.6094 27.9961 64.3379 27.9961C63.1152 27.9961 62.3355 29.0049 62.3355 30.2798L62.3203 38.6758L58.7432 40.7632L50.69 45.7388L51.106 36.5151L51.106 32.189L58.3892 28.0811C59.5293 27.4024 59.9116 26.146 59.3003 25.1221C58.7041 24.0459 57.4663 23.7495 56.2437 24.4585L51.1211 27.4111L51.1211 20.8594C51.1211 19.4531 50.2285 18.5303 48.9048 18.5303C47.6484 18.5303 46.7676 19.4868 46.7676 20.8594L46.7676 27.4751L41.5054 24.4585C40.2944 23.7832 39.1392 24.0308 38.4941 25.1523C37.9316 26.1611 38.3442 27.3721 39.4541 28.0171L46.7676 32.189L46.7676 36.5151L47.1836 45.7388L39.2549 40.8726L35.523 38.6758L35.5567 30.2798C35.5567 29.0049 34.7129 27.9961 33.4902 27.9961C32.2339 27.9961 31.439 28.9375 31.439 30.2798L31.4053 36.3281L25.7036 33.0186C24.4995 32.3247 23.2398 32.6582 22.6284 33.7344C21.9497 34.9233 22.3438 36.1494 23.4873 36.8281L29.189 40.0703L24.0547 43.0566C22.8657 43.7842 22.4683 44.8906 23.0459 46.0645C23.6724 47.1035 24.9658 47.3545 26.1851 46.6792L33.3218 42.4702L37.0386 44.6636L45.4624 48.9722L37.0386 53.2471L33.3218 55.459L26.1851 51.25C24.9658 50.5898 23.6724 50.8071 23.0796 51.8462C22.502 52.9863 22.832 54.1113 24.0547 54.8389L29.189 57.8252L23.4873 61.1162C22.3438 61.7798 21.9834 63.021 22.6284 64.21C23.2734 65.3198 24.4995 65.5859 25.7036 64.8921L31.4053 61.6162L31.439 67.6494C31.439 69.0068 32.2339 69.8994 33.4902 69.8994C34.7129 69.8994 35.5567 68.9395 35.5567 67.6494L35.523 59.2197L39.2549 57.0567L47.1836 52.1719L46.7676 61.4292L46.7676 65.7554L39.4541 69.8936C38.3442 70.5571 37.9316 71.7681 38.4941 72.792C39.1392 73.9136 40.2944 74.1123 41.5054 73.4858L46.7676 70.4541L46.7676 77.085C46.7676 78.4238 47.6484 79.4141 48.9048 79.4141Z" fill="#000000" fill-opacity="0.85"/>
 </g>
</svg>
