<?xml version="1.0" encoding="UTF-8"?>
<!--Generator: Apple Native CoreSVG 232.5-->
<!DOCTYPE svg
PUBLIC "-//W3C//DTD SVG 1.1//EN"
       "http://www.w3.org/Graphics/SVG/1.1/DTD/svg11.dtd">
<svg version="1.1" xmlns="http://www.w3.org/2000/svg" xmlns:xlink="http://www.w3.org/1999/xlink" width="97.9595" height="97.9932">
 <g>
  <rect height="97.9932" opacity="0" width="97.9595" x="0" y="0"/>
  <path d="M48.9722 97.9443C75.8247 97.9443 97.9595 75.7759 97.9595 48.9722C97.9595 22.1348 75.791 0 48.9385 0C22.1348 0 0 22.1348 0 48.9722C0 75.7759 22.1011 97.9443 48.9722 97.9443ZM37.0933 91.0444C26.6294 88.0996 17.7026 81.2539 12.0151 72.2515L29.8965 71.9922L36.3086 63.7817L30.7661 46.624L18.7671 41.7847L5.16554 49.4214C5.19923 38.3482 9.01271 28.6367 15.3584 21.0635L20.4058 37.6787L32.0747 42.4019L46.7188 31.1436L46.7188 19.0889L33.2568 8.16749C38.1445 6.27003 43.4531 5.23292 48.9385 5.23292C54.439 5.23292 59.7324 6.25489 64.6201 8.16749L51.207 19.0435L51.207 31.1436L65.8511 42.4019L77.4863 37.6787L82.5337 21.0635C88.8794 28.6367 92.6929 38.3482 92.7266 49.4214L79.125 41.7847L67.126 46.624L61.5684 63.7817L67.9956 71.9922L85.877 72.2515C80.1895 81.2539 71.2476 88.0996 60.7988 91.0444L64.5684 74.771L58.8027 67.4326L39.0894 67.4326L33.3574 74.771Z" fill="#000000" fill-opacity="0.85"/>
 </g>
</svg>
