<?xml version="1.0" encoding="UTF-8"?>
<!--Generator: Apple Native CoreSVG 232.5-->
<!DOCTYPE svg
PUBLIC "-//W3C//DTD SVG 1.1//EN"
       "http://www.w3.org/Graphics/SVG/1.1/DTD/svg11.dtd">
<svg version="1.1" xmlns="http://www.w3.org/2000/svg" xmlns:xlink="http://www.w3.org/1999/xlink" width="142.451" height="81.2198">
 <g>
  <rect height="81.2198" opacity="0" width="142.451" x="0" y="0"/>
  <path d="M29.0918 42.5938L68.6421 42.5938L68.6421 10.1265C68.6421 4.01758 64.749 0 59.0088 0L22.8042 0C17.0303 0 13.186 4.01758 13.186 10.1265L13.186 18.5205L14.9468 18.5205C23.1846 18.5205 29.0918 24.3858 29.0918 32.6001ZM73.8086 42.5938L113.359 42.5938L113.359 32.6001C113.359 24.3858 119.3 18.5205 127.504 18.5205L129.265 18.5205L129.265 10.1265C129.265 4.01758 125.42 0 119.647 0L83.4419 0C77.7017 0 73.8086 4.01758 73.8086 10.1265ZM0 62.1817C0 67.6192 3.65576 71.2481 9.13184 71.2481L133.319 71.2481C138.795 71.2481 142.451 67.6192 142.451 62.1817L142.451 32.6001C142.451 27.1812 138.795 23.5186 133.319 23.5186L127.504 23.5186C122.062 23.5186 118.406 27.1812 118.406 32.6001L118.406 47.607L24.0786 47.607L24.0786 32.6001C24.0786 27.1812 20.3892 23.5186 14.9468 23.5186L9.13184 23.5186C3.65576 23.5186 0 27.1812 0 32.6001ZM15.7681 81.1524L18.4658 81.1524C20.8755 81.1524 22.3086 79.7193 22.3086 77.3096L22.3086 68.0933L11.9253 68.0933L11.9253 77.3096C11.9253 79.7193 13.3433 81.1524 15.7681 81.1524ZM123.97 81.1524L126.683 81.1524C129.107 81.1524 130.51 79.7193 130.51 77.3096L130.51 68.0933L120.142 68.0933L120.142 77.3096C120.142 79.7193 121.609 81.1524 123.97 81.1524Z" fill="#000000" fill-opacity="0.85"/>
 </g>
</svg>
