<?xml version="1.0" encoding="UTF-8"?>
<!--Generator: Apple Native CoreSVG 232.5-->
<!DOCTYPE svg
PUBLIC "-//W3C//DTD SVG 1.1//EN"
       "http://www.w3.org/Graphics/SVG/1.1/DTD/svg11.dtd">
<svg version="1.1" xmlns="http://www.w3.org/2000/svg" xmlns:xlink="http://www.w3.org/1999/xlink" width="118.922" height="94.1026">
 <g>
  <rect height="94.1026" opacity="0" width="118.922" x="0" y="0"/>
  <path d="M11.4136 79.1509L107.508 79.1509C114.67 79.1509 118.922 74.8652 118.922 67.7373L118.922 11.4287C118.922 4.28565 114.67 0 107.508 0L11.4136 0C4.28565 0 0 4.28565 0 11.4287L0 67.7373C0 74.8652 4.28565 79.1509 11.4136 79.1509ZM11.5752 73.1211C8.07863 73.1211 6.04494 71.1025 6.04494 67.6245L6.04494 11.5264C6.04494 8.06349 8.07863 6.04494 11.5752 6.04494L107.347 6.04494C110.843 6.04494 112.892 8.06349 112.892 11.5264L112.892 67.6245C112.892 71.1025 110.843 73.1211 107.347 73.1211ZM35.4302 94.0386L83.4917 94.0386C85.1709 94.0386 86.5537 92.7198 86.5537 91.0069C86.5537 89.3091 85.1709 87.9751 83.4917 87.9751L35.4302 87.9751C33.7661 87.9751 32.3682 89.3091 32.3682 91.0069C32.3682 92.7198 33.7661 94.0386 35.4302 94.0386Z" fill="#000000" fill-opacity="0.85"/>
  <path d="M61.8535 60.4238C62.6602 60.4238 63.1587 59.8462 63.3086 59.0884C65.9185 43.0191 67.1914 41.0635 83.4043 38.937C84.2144 38.8394 84.728 38.292 84.728 37.5005C84.728 36.7393 84.2144 36.1582 83.4043 36.042C67.2251 33.8853 65.6841 31.8892 63.3086 15.9463C63.1924 15.1514 62.6602 14.6377 61.8535 14.6377C61.0317 14.6377 60.4692 15.1177 60.3193 15.9126C57.5698 32.103 56.4517 33.8853 40.2539 36.042C39.4439 36.1582 38.9151 36.7393 38.9151 37.5005C38.9151 38.292 39.4439 38.8359 40.2539 38.937C56.5459 39.936 58.1289 43.0191 60.3193 59.0547C60.4507 59.8462 60.9644 60.4238 61.8535 60.4238ZM42.3579 68.0347C42.875 68.0347 43.2759 67.7012 43.3618 67.1841C44.5625 60.0889 44.2407 59.2778 52.4131 58.1665C52.9605 58.0991 53.294 57.6646 53.294 57.1323C53.294 56.6338 52.9605 56.1841 52.4131 56.1167C44.271 54.938 44.5625 54.1118 43.3618 47.1816C43.2759 46.582 42.9087 46.2148 42.3579 46.2148C41.8257 46.2148 41.4619 46.5483 41.3423 47.1816C40.1231 54.1118 40.5122 54.938 32.3247 56.1167C31.7739 56.1841 31.4741 56.6338 31.4741 57.1323C31.4741 57.7319 31.7739 58.0991 32.3921 58.1665C40.5122 59.2778 40.1231 60.0889 41.3423 67.083C41.4619 67.6675 41.792 68.0347 42.3579 68.0347Z" fill="#000000" fill-opacity="0.85"/>
 </g>
</svg>
