<?xml version="1.0" encoding="UTF-8"?>
<!--Generator: Apple Native CoreSVG 232.5-->
<!DOCTYPE svg
PUBLIC "-//W3C//DTD SVG 1.1//EN"
       "http://www.w3.org/Graphics/SVG/1.1/DTD/svg11.dtd">
<svg version="1.1" xmlns="http://www.w3.org/2000/svg" xmlns:xlink="http://www.w3.org/1999/xlink" width="94.1084" height="95.0059">
 <g>
  <rect height="95.0059" opacity="0" width="94.1084" x="0" y="0"/>
  <path d="M0 37.9053C0 58.7842 17.0264 75.8106 37.9053 75.8106C46.4771 75.8106 54.3164 72.94 60.6524 68.1231L86.0684 93.6182C86.9492 94.499 88.1567 94.9907 89.4468 94.9907C92.2524 94.9907 94.1084 92.8789 94.1084 90.228C94.1084 88.9683 93.6284 87.8096 92.7544 86.9507L67.4546 61.5195C72.6807 55.0523 75.8106 46.8374 75.8106 37.9053C75.8106 17.0264 58.7842 0 37.9053 0C17.0264 0 0 17.0264 0 37.9053ZM6.36671 37.9053C6.36671 20.5264 20.5264 6.35158 37.9053 6.35158C55.2842 6.35158 69.4438 20.5264 69.4438 37.9053C69.4438 55.2842 55.2842 69.4438 37.9053 69.4438C20.5264 69.4438 6.36671 55.2842 6.36671 37.9053ZM37.9541 59.1851C38.6445 59.1851 39.1431 58.6411 39.293 57.9658C41.689 42.9776 42.8945 41.1719 57.9927 39.1802C58.7505 39.0977 59.2153 38.5991 59.2153 37.875C59.2153 37.1812 58.7505 36.6826 57.9927 36.5327C42.9282 34.5259 41.5034 32.7134 39.293 17.833C39.1768 17.1055 38.6445 16.6104 37.9541 16.6104C37.2149 16.6104 36.686 17.0718 36.5513 17.7993C33.9854 32.9272 32.9346 34.5259 17.8667 36.5327C17.124 36.6826 16.6289 37.1812 16.6289 37.875C16.6289 38.5991 17.124 39.0942 17.8667 39.1802C33.0103 40.0933 34.5259 42.9776 36.5513 57.9321C36.6675 58.6411 37.1812 59.1851 37.9541 59.1851Z" fill="#000000" fill-opacity="0.85"/>
 </g>
</svg>
