<?xml version="1.0" encoding="UTF-8"?>
<!--Generator: Apple Native CoreSVG 232.5-->
<!DOCTYPE svg
PUBLIC "-//W3C//DTD SVG 1.1//EN"
       "http://www.w3.org/Graphics/SVG/1.1/DTD/svg11.dtd">
<svg version="1.1" xmlns="http://www.w3.org/2000/svg" xmlns:xlink="http://www.w3.org/1999/xlink" width="89.2422" height="120.059">
 <g>
  <rect height="120.059" opacity="0" width="89.2422" x="0" y="0"/>
  <path d="M41.9473 23.4009C42.5215 23.4009 42.833 23.0708 42.9155 22.5303C44.1685 14.8018 44.0825 14.0176 52.7603 12.6855C53.3159 12.5693 53.6309 12.2275 53.6309 11.6836C53.6309 11.1733 53.3159 10.813 52.7603 10.7305C44.0825 9.3833 44.1685 8.59912 42.9155 0.870606C42.833 0.345215 42.5215 0 41.9473 0C41.3882 0 41.0767 0.345215 40.979 0.870606C39.7261 8.59912 39.812 9.3833 31.1343 10.7305C30.5449 10.813 30.2637 11.1733 30.2637 11.6836C30.2637 12.2275 30.5449 12.5693 31.1343 12.6855C39.812 14.0176 39.7261 14.8018 40.979 22.5303C41.0767 23.0708 41.3882 23.4009 41.9473 23.4009Z" fill="#000000" fill-opacity="0.85"/>
  <path d="M18.0269 56.6162C18.7427 56.6162 19.2412 56.1328 19.3389 55.4356C21.2329 42.353 21.4605 42.5195 34.8916 39.9014C35.5401 39.7852 36.0537 39.3355 36.0537 38.5894C36.0537 37.8921 35.5401 37.4087 34.8916 37.3262C21.4605 35.1494 21.1992 35.0278 19.3389 21.8257C19.2412 21.0947 18.7427 20.6113 18.0269 20.6113C17.3447 20.6113 16.8311 21.0947 16.7148 21.8594C14.9404 34.9116 14.5864 34.7266 1.16211 37.3262C0.498536 37.4424 0 37.8921 0 38.5894C0 39.3691 0.498536 39.7852 1.28174 39.9014C14.6538 42.2314 14.9404 42.3159 16.7148 55.3682C16.8311 56.1328 17.3447 56.6162 18.0269 56.6162Z" fill="#000000" fill-opacity="0.85"/>
  <path d="M51.1475 111.059C52.2808 111.059 53.0571 110.252 53.2407 109.146C56.4653 81.2109 59.9072 77.8208 87.3106 75.0576C88.4658 74.9414 89.2422 74.1313 89.2422 72.9946C89.2422 71.9067 88.4658 71.0967 87.3106 70.9805C59.9072 68.2173 56.4653 64.8271 53.2407 36.8584C53.0571 35.752 52.2808 34.979 51.1475 34.979C50.0142 34.979 49.2227 35.752 49.0728 36.8584C45.8633 64.8271 42.3877 68.2173 15.0181 70.9805C13.8291 71.0967 13.0527 71.9067 13.0527 72.9946C13.0527 74.1313 13.8291 74.9414 15.0181 75.0576C42.3237 78.5093 45.5772 81.2261 49.0728 109.146C49.2227 110.252 50.0142 111.059 51.1475 111.059Z" fill="#000000" fill-opacity="0.85"/>
 </g>
</svg>
