<?xml version="1.0" encoding="UTF-8"?>
<!--Generator: Apple Native CoreSVG 232.5-->
<!DOCTYPE svg
PUBLIC "-//W3C//DTD SVG 1.1//EN"
       "http://www.w3.org/Graphics/SVG/1.1/DTD/svg11.dtd">
<svg version="1.1" xmlns="http://www.w3.org/2000/svg" xmlns:xlink="http://www.w3.org/1999/xlink" width="118.922" height="94.1026">
 <g>
  <rect height="94.1026" opacity="0" width="118.922" x="0" y="0"/>
  <path d="M86.5537 90.9732C86.5537 92.6861 85.1709 94.0049 83.4917 94.0049L35.4302 94.0049C33.7661 94.0049 32.3682 92.6861 32.3682 90.9732C32.3682 89.2754 33.7661 87.9414 35.4302 87.9414L83.4917 87.9414C85.1709 87.9414 86.5537 89.2754 86.5537 90.9732ZM118.922 11.4287L118.922 67.7036C118.922 75.3218 115.025 79.1172 107.508 79.1172L11.4136 79.1172C3.93018 79.1172 0 75.3218 0 67.7036L0 11.4287C0 3.81055 3.93018 0 11.4136 0L107.508 0C115.025 0 118.922 3.81055 118.922 11.4287ZM40.9868 47.249C39.749 54.3477 40.1567 55.1587 31.8008 56.3711C31.25 56.4385 30.9317 56.8882 30.9317 57.4204C30.9317 58.02 31.25 58.3872 31.8682 58.4883C40.1567 59.5996 39.749 60.4106 40.9868 67.5732C41.1401 68.1426 41.4702 68.5435 42.0698 68.5435C42.5869 68.5435 42.9878 68.1763 43.1074 67.6592C44.3081 60.4106 43.9863 59.5996 52.3272 58.4883C52.8594 58.3872 53.2266 57.9526 53.2266 57.4204C53.2266 56.8882 52.8594 56.4385 52.3272 56.3711C44.0015 55.1587 44.3081 54.3477 43.1074 47.249C42.9878 46.6494 42.6206 46.2485 42.0698 46.2485C41.5039 46.2485 41.1401 46.6157 40.9868 47.249ZM60.353 15.3701C57.5698 31.8335 56.418 33.6831 39.9321 35.8735C39.0884 35.9897 38.5596 36.6196 38.5596 37.3809C38.5596 38.1909 39.0884 38.7686 39.9321 38.8696C56.5122 39.9024 58.1289 43.0527 60.353 59.3579C60.4692 60.168 61.0317 60.7456 61.9546 60.7456C62.7612 60.7456 63.2935 60.168 63.4434 59.3916C66.1055 43.0527 67.4121 41.0298 83.9131 38.8696C84.7383 38.7871 85.2705 38.1909 85.2705 37.3809C85.2705 36.6196 84.7383 35.9897 83.9131 35.8735C67.4458 33.6831 65.8526 31.6348 63.4434 15.4038C63.3272 14.6089 62.7612 14.0464 61.9546 14.0464C61.0991 14.0464 60.5366 14.5752 60.353 15.3701Z" fill="#000000" fill-opacity="0.85"/>
 </g>
</svg>
