<?xml version="1.0" encoding="UTF-8"?>
<!--Generator: Apple Native CoreSVG 232.5-->
<!DOCTYPE svg
PUBLIC "-//W3C//DTD SVG 1.1//EN"
       "http://www.w3.org/Graphics/SVG/1.1/DTD/svg11.dtd">
<svg version="1.1" xmlns="http://www.w3.org/2000/svg" xmlns:xlink="http://www.w3.org/1999/xlink" width="106.32" height="84.335">
 <g>
  <rect height="84.335" opacity="0" width="106.32" x="0" y="0"/>
  <path d="M92.0967 75.4761C93.5098 76.4243 95.2261 76.0908 96.2417 74.6743C102.507 66.2622 106.32 54.3247 106.32 42.1431C106.32 29.9614 102.541 17.9414 96.2417 9.61182C95.2261 8.19532 93.5098 7.86182 92.0967 8.81006C90.6987 9.77345 90.4815 11.5083 91.5947 13.0713C97.2651 20.8936 100.478 31.2734 100.478 42.1431C100.478 53.0127 97.1978 63.3252 91.5947 71.2148C90.5151 72.7627 90.6987 74.5127 92.0967 75.4761Z" fill="#000000" fill-opacity="0.85"/>
  <path d="M74.999 62.6563C76.2774 63.5371 78.0122 63.271 79.043 61.8208C82.7876 56.9346 85.1851 49.8408 85.1851 42.1431C85.1851 34.4302 82.7876 27.3701 79.043 22.4653C78.0122 21.0151 76.2774 20.7153 74.999 21.6299C73.4814 22.6792 73.249 24.5454 74.4146 26.1084C77.6401 30.5444 79.3423 35.9492 79.3423 42.1431C79.3423 48.3369 77.6064 53.708 74.4146 58.1777C73.2827 59.7593 73.4814 61.5732 74.999 62.6563Z" fill="#000000" fill-opacity="0.85"/>
  <path d="M8.58009 61.0171L23.063 61.0171C23.6538 61.0171 24.0898 61.209 24.5073 61.5625L47.1343 81.7734C48.9785 83.4492 50.5581 84.335 52.5537 84.335C55.27 84.335 57.1934 82.3276 57.1934 79.6231L57.1934 4.91749C57.1934 2.21289 55.27 0.00341833 52.4863 0.00341833C50.4907 0.00341833 49.1284 0.986817 47.1343 2.76709L24.5073 23.0552C24.0898 23.4238 23.6538 23.5552 23.063 23.5552L8.58009 23.5552C2.80225 23.5552 0 26.4854 0 32.5361L0 52.1152C0 58.1963 2.85108 61.0171 8.58009 61.0171ZM8.80079 55.4927C6.72169 55.4927 5.87648 54.6172 5.87648 52.5381L5.87648 32.1133C5.87648 29.9854 6.72169 29.1099 8.80079 29.1099L24.335 29.1099C25.6953 29.1099 26.687 28.8809 27.8252 27.8252L49.6099 7.99025C49.9146 7.7007 50.1738 7.47854 50.5913 7.47854C50.9937 7.47854 51.3169 7.73781 51.3169 8.23781L51.3169 76.0215C51.3169 76.5518 50.9937 76.8447 50.6216 76.8447C50.332 76.8447 50.0239 76.7134 49.625 76.3633L27.8252 56.7773C26.7022 55.7856 25.6953 55.4927 24.335 55.4927Z" fill="#000000" fill-opacity="0.85"/>
 </g>
</svg>
