<?xml version="1.0" encoding="UTF-8"?>
<!--Generator: Apple Native CoreSVG 232.5-->
<!DOCTYPE svg
PUBLIC "-//W3C//DTD SVG 1.1//EN"
       "http://www.w3.org/Graphics/SVG/1.1/DTD/svg11.dtd">
<svg version="1.1" xmlns="http://www.w3.org/2000/svg" xmlns:xlink="http://www.w3.org/1999/xlink" width="88.4092" height="88.5371">
 <g>
  <rect height="88.5371" opacity="0" width="88.4092" x="0" y="0"/>
  <path d="M88.4092 14.4019L88.4092 74.2632C88.4092 83.6558 83.5733 88.5371 74.0005 88.5371L14.3936 88.5371C4.86963 88.5371 0 83.7349 0 74.2632L0 14.4019C0 4.93018 4.86963 0.127929 14.3936 0.127929L74.0005 0.127929C83.5733 0.127929 88.4092 5.00928 88.4092 14.4019ZM50.6685 21.9517L38.6724 33.4526C38.4653 33.6597 38.0747 33.7725 37.7549 33.7725L29.5523 33.7725C26.292 33.7725 24.3355 35.729 24.3355 39.124L24.3355 49.5713C24.3355 52.9663 26.292 54.9229 29.5523 54.9229L37.7549 54.9229C38.0747 54.9229 38.4653 55.0508 38.6724 55.2275L50.6685 66.6563C51.6958 67.6685 52.6338 68.0928 53.7402 68.0928C55.2861 68.0928 56.3135 67.0083 56.3135 65.459L56.3135 23.1978C56.3135 21.667 55.2861 20.4292 53.7065 20.4292C52.6152 20.4292 51.8306 20.9058 50.6685 21.9517Z" fill="#000000" fill-opacity="0.85"/>
 </g>
</svg>
