<?xml version="1.0" encoding="UTF-8"?>
<!--Generator: Apple Native CoreSVG 232.5-->
<!DOCTYPE svg
PUBLIC "-//W3C//DTD SVG 1.1//EN"
       "http://www.w3.org/Graphics/SVG/1.1/DTD/svg11.dtd">
<svg version="1.1" xmlns="http://www.w3.org/2000/svg" xmlns:xlink="http://www.w3.org/1999/xlink" width="85.1514" height="84.335">
 <g>
  <rect height="84.335" opacity="0" width="85.1514" x="0" y="0"/>
  <path d="M74.9653 62.6563C76.2437 63.5371 77.9937 63.271 79.0093 61.8208C82.7539 56.9346 85.1514 49.8408 85.1514 42.1431C85.1514 34.4302 82.7539 27.3701 79.0093 22.4653C77.9937 21.0151 76.2437 20.7153 74.9653 21.6299C73.4478 22.6792 73.2153 24.5454 74.3809 26.1084C77.6064 30.5444 79.3086 35.9492 79.3086 42.1431C79.3086 48.3369 77.5728 53.708 74.3809 58.1777C73.249 59.7593 73.4478 61.5732 74.9653 62.6563Z" fill="#000000" fill-opacity="0.85"/>
  <path d="M51.9253 84.335C54.709 84.335 56.5498 82.3276 56.5498 79.6231L56.5498 4.91749C56.5498 2.21289 54.709 0.0185549 51.8579 0.0185549C49.896 0.0185549 48.4849 0.889161 46.5884 2.76709L25.209 23.0552C24.8555 23.4238 24.3403 23.5854 23.731 23.5854L9.19093 23.5854C3.4585 23.5854 0 27.0962 0 33.0982L0 51.5195C0 57.5401 3.4585 61.0171 9.19093 61.0171L23.731 61.0171C24.3403 61.0171 24.8555 61.209 25.209 61.5625L46.5884 81.7734C48.3315 83.4829 49.9634 84.335 51.9253 84.335Z" fill="#000000" fill-opacity="0.85"/>
 </g>
</svg>
