<?xml version="1.0" encoding="UTF-8"?>
<!--Generator: Apple Native CoreSVG 232.5-->
<!DOCTYPE svg
PUBLIC "-//W3C//DTD SVG 1.1//EN"
       "http://www.w3.org/Graphics/SVG/1.1/DTD/svg11.dtd">
<svg version="1.1" xmlns="http://www.w3.org/2000/svg" xmlns:xlink="http://www.w3.org/1999/xlink" width="106.32" height="84.335">
 <g>
  <rect height="84.335" opacity="0" width="106.32" x="0" y="0"/>
  <path d="M92.0967 75.4761C93.5098 76.4243 95.2261 76.0908 96.2417 74.6743C102.507 66.2622 106.32 54.3247 106.32 42.1431C106.32 29.9614 102.541 17.9414 96.2417 9.61182C95.2261 8.19532 93.5098 7.86182 92.0967 8.81006C90.6987 9.77345 90.4815 11.5083 91.5947 13.0713C97.2651 20.8936 100.478 31.2734 100.478 42.1431C100.478 53.0127 97.1978 63.3252 91.5947 71.2148C90.5151 72.7627 90.6987 74.5127 92.0967 75.4761Z" fill="#000000" fill-opacity="0.85"/>
  <path d="M74.999 62.6563C76.2774 63.5371 78.0122 63.271 79.043 61.8208C82.7876 56.9346 85.1851 49.8408 85.1851 42.1431C85.1851 34.4302 82.7876 27.3701 79.043 22.4653C78.0122 21.0151 76.2774 20.7153 74.999 21.6299C73.4814 22.6792 73.249 24.5454 74.4146 26.1084C77.6401 30.5444 79.3423 35.9492 79.3423 42.1431C79.3423 48.3369 77.6064 53.708 74.4146 58.1777C73.2827 59.7593 73.4814 61.5732 74.999 62.6563Z" fill="#000000" fill-opacity="0.85"/>
  <path d="M51.9253 84.335C54.709 84.335 56.5498 82.3276 56.5498 79.6231L56.5498 4.91749C56.5498 2.21289 54.709 0.0185549 51.8579 0.0185549C49.896 0.0185549 48.5186 0.922853 46.5884 2.76709L25.209 23.0552C24.8555 23.4238 24.3403 23.5854 23.731 23.5854L9.19093 23.5854C3.4585 23.5854 0 27.0962 0 33.0982L0 51.5195C0 57.5401 3.4585 61.0171 9.19093 61.0171L23.731 61.0171C24.3403 61.0171 24.8555 61.209 25.209 61.5625L46.5884 81.7734C48.3315 83.4829 49.9634 84.335 51.9253 84.335Z" fill="#000000" fill-opacity="0.85"/>
 </g>
</svg>
