<?xml version="1.0" encoding="UTF-8"?>
<!--Generator: Apple Native CoreSVG 232.5-->
<!DOCTYPE svg
PUBLIC "-//W3C//DTD SVG 1.1//EN"
       "http://www.w3.org/Graphics/SVG/1.1/DTD/svg11.dtd">
<svg version="1.1" xmlns="http://www.w3.org/2000/svg" xmlns:xlink="http://www.w3.org/1999/xlink" width="119.423" height="84.335">
 <g>
  <rect height="84.335" opacity="0" width="119.423" x="0" y="0"/>
  <path d="M74.9292 45.3213L115.92 45.3213C117.958 45.3213 119.423 44.1289 119.423 42.2222C119.423 40.2212 118.074 39.0103 115.92 39.0103L74.9292 39.0103C72.8086 39.0103 71.3921 40.2212 71.3921 42.2222C71.3921 44.1289 72.8911 45.3213 74.9292 45.3213Z" fill="#000000" fill-opacity="0.85"/>
  <path d="M51.9253 84.335C54.709 84.335 56.5498 82.3276 56.5498 79.6231L56.5498 4.91749C56.5498 2.21289 54.709 0.0185549 51.8579 0.0185549C49.896 0.0185549 48.4849 0.889161 46.5884 2.76709L25.209 23.0552C24.8555 23.4238 24.3403 23.5854 23.731 23.5854L9.19093 23.5854C3.4585 23.5854 0 27.0962 0 33.0982L0 51.5195C0 57.5401 3.4585 61.0171 9.19093 61.0171L23.731 61.0171C24.3403 61.0171 24.8555 61.209 25.209 61.5625L46.5884 81.7734C48.3315 83.4829 49.9634 84.335 51.9253 84.335Z" fill="#000000" fill-opacity="0.85"/>
 </g>
</svg>
