<?xml version="1.0" encoding="UTF-8"?>
<!--Generator: Apple Native CoreSVG 232.5-->
<!DOCTYPE svg
PUBLIC "-//W3C//DTD SVG 1.1//EN"
       "http://www.w3.org/Graphics/SVG/1.1/DTD/svg11.dtd">
<svg version="1.1" xmlns="http://www.w3.org/2000/svg" xmlns:xlink="http://www.w3.org/1999/xlink" width="105.998" height="105.197">
 <g>
  <rect height="105.197" opacity="0" width="105.998" x="0" y="0"/>
  <path d="M105.998 27.0293L105.998 66.2935C105.998 79.3286 98.5029 86.9883 85.2539 86.9883L49.461 86.9883L31.7886 102.769C30.0537 104.387 28.8799 105.197 27.3389 105.197C25.146 105.197 23.8408 103.604 23.8408 101.152L23.8408 86.9883L20.7437 86.9883C7.47949 86.9883 0 79.4077 0 66.2935L0 27.0293C0 13.8999 7.47949 6.28565 20.7437 6.28565L85.2539 6.28565C98.5029 6.28565 105.998 13.979 105.998 27.0293ZM48.813 25.5366L37.4365 36.4028C37.1958 36.5947 36.9365 36.6587 36.6318 36.6587L28.835 36.6587C25.8223 36.6587 23.9146 38.5664 23.9146 41.7139L23.9146 51.5752C23.9146 54.7378 25.8223 56.6304 28.835 56.6304L36.6318 56.6304C36.9365 56.6304 37.1958 56.7095 37.4365 56.8862L48.813 67.729C49.7578 68.625 50.583 69.0493 51.686 69.0493C53.1006 69.0493 54.1128 67.98 54.1128 66.5469L54.1128 26.6851C54.1128 25.252 53.1006 24.0664 51.6187 24.0664C50.5493 24.0664 49.8438 24.5732 48.813 25.5366ZM72.4375 28.5654C71.459 29.3418 71.2754 30.5864 72.0063 31.6441C74.9678 35.9253 76.5117 41.0488 76.5117 46.541C76.5117 52.2417 74.9526 57.6514 71.9272 61.4497C71.1812 62.4653 71.3613 63.8076 72.4375 64.4829C73.4648 65.1616 74.6606 64.9595 75.3662 63.9692C78.7993 59.4868 80.813 53.4707 80.813 46.541C80.813 40.3179 78.9273 34.3018 75.4453 29.1768C74.7026 28.104 73.4277 27.8867 72.4375 28.5654ZM63.1538 35.3643C62.1416 36.1592 61.9429 37.4038 62.6738 38.48C64.2227 40.3589 65.0947 43.3389 65.0947 46.541C65.0947 49.6304 64.1587 52.5801 62.6436 54.6963C61.9429 55.7607 62.1265 56.9566 63.1538 57.7666C64.0649 58.4942 65.3701 58.2095 66.1465 57.2681C68.273 54.5371 69.4146 50.6006 69.4146 46.541C69.4146 42.5859 68.2393 38.6611 66.1465 35.8628C65.4038 34.8877 64.0649 34.6367 63.1538 35.3643Z" fill="#000000" fill-opacity="0.85"/>
 </g>
</svg>
