<?xml version="1.0" encoding="UTF-8"?>
<!--Generator: Apple Native CoreSVG 232.5-->
<!DOCTYPE svg
PUBLIC "-//W3C//DTD SVG 1.1//EN"
       "http://www.w3.org/Graphics/SVG/1.1/DTD/svg11.dtd">
<svg version="1.1" xmlns="http://www.w3.org/2000/svg" xmlns:xlink="http://www.w3.org/1999/xlink" width="97.9595" height="97.9932">
 <g>
  <rect height="97.9932" opacity="0" width="97.9595" x="0" y="0"/>
  <path d="M97.9595 49.021C97.9595 75.8584 75.8247 97.9932 48.9722 97.9932C22.1685 97.9932 0 75.8584 0 49.021C0 22.2173 22.1348 0.0488281 48.9385 0.0488281C75.791 0.0488281 97.9595 22.2173 97.9595 49.021ZM44.7451 27.9224L33.3687 38.8037C33.1768 38.9956 32.8687 39.0596 32.564 39.0596L24.7671 39.0596C21.8032 39.0596 19.8955 40.9673 19.8955 44.0996L19.8955 53.9761C19.8955 57.1387 21.8032 59.0313 24.7671 59.0313L32.564 59.0313C32.8687 59.0313 33.1768 59.1104 33.3687 59.2871L44.7451 70.1299C45.6899 71.0259 46.564 71.4839 47.6182 71.4839C49.0664 71.4839 50.0449 70.3809 50.0449 68.9663L50.0449 29.0859C50.0449 27.6528 49.0664 26.4673 47.5508 26.4673C46.5303 26.4673 45.791 26.9741 44.7451 27.9224ZM68.3696 31C67.4062 31.7427 67.2563 32.9873 67.9385 34.0449C70.8999 38.3262 72.459 43.4497 72.459 48.9756C72.459 54.6426 70.8848 60.0522 67.8931 63.8506C67.1621 64.8662 67.2935 66.2085 68.3696 66.8838C69.4307 67.5474 70.5928 67.3604 71.332 66.3701C74.7466 61.8877 76.7451 55.8716 76.7451 48.9756C76.7451 42.7188 74.9082 36.7026 71.3774 31.5776C70.6499 30.5049 69.3936 30.2876 68.3696 31ZM59.1196 37.7651C58.1074 38.5601 57.875 39.8047 58.6548 40.9146C60.1548 42.7598 61.0605 45.7398 61.0605 48.9756C61.0605 52.0313 60.1397 54.981 58.5757 57.082C57.875 58.1616 58.0586 59.3574 59.1196 60.1675C59.9971 60.895 61.3359 60.6441 62.1275 59.669C64.2388 56.938 65.3955 53.0015 65.3955 48.9756C65.3955 44.9868 64.2051 41.062 62.1275 38.2637C61.3696 37.3223 59.9971 37.0376 59.1196 37.7651Z" fill="#000000" fill-opacity="0.85"/>
 </g>
</svg>
