<?xml version="1.0" encoding="UTF-8"?>
<!--Generator: Apple Native CoreSVG 232.5-->
<!DOCTYPE svg
PUBLIC "-//W3C//DTD SVG 1.1//EN"
       "http://www.w3.org/Graphics/SVG/1.1/DTD/svg11.dtd">
<svg version="1.1" xmlns="http://www.w3.org/2000/svg" xmlns:xlink="http://www.w3.org/1999/xlink" width="127.467" height="93.7492">
 <g>
  <rect height="93.7492" opacity="0" width="127.467" x="0" y="0"/>
  <path d="M109.499 93.1681C110.811 94.1163 112.644 93.734 113.644 92.2349C121.932 79.7603 127.467 64.7677 127.467 46.8502C127.467 28.899 121.831 13.9737 113.644 1.46542C112.644-0.0673003 110.811-0.43107 109.499 0.53231C108.083 1.49911 107.884 3.27939 108.899 4.84238C116.453 16.4176 121.692 30.1319 121.692 46.8502C121.692 63.5347 116.453 77.3165 108.899 88.858C107.884 90.4058 108.083 92.2013 109.499 93.1681Z" fill="#000000" fill-opacity="0.85"/>
  <path d="M92.0967 80.1832C93.5098 81.1314 95.2261 80.7979 96.2417 79.3814C102.507 70.9693 106.32 59.0318 106.32 46.8502C106.32 34.6685 102.541 22.6485 96.2417 14.3189C95.2261 12.9024 93.5098 12.5689 92.0967 13.5172C90.6987 14.4806 90.4815 16.2154 91.5947 17.7784C97.2651 25.6007 100.478 35.9806 100.478 46.8502C100.478 57.7198 97.1978 68.0323 91.5947 75.922C90.5151 77.4698 90.6987 79.2198 92.0967 80.1832Z" fill="#000000" fill-opacity="0.85"/>
  <path d="M74.999 67.3634C76.2774 68.2442 78.0122 67.9781 79.043 66.5279C82.7876 61.6417 85.1851 54.5479 85.1851 46.8502C85.1851 39.1373 82.7876 32.0772 79.043 27.1724C78.0122 25.7222 76.2774 25.4224 74.999 26.337C73.4814 27.3863 73.249 29.2525 74.4146 30.8155C77.6401 35.2516 79.3423 40.6563 79.3423 46.8502C79.3423 53.044 77.6064 58.4151 74.4146 62.8848C73.2827 64.4664 73.4814 66.2804 74.999 67.3634Z" fill="#000000" fill-opacity="0.85"/>
  <path d="M8.58009 65.7242L23.063 65.7242C23.6538 65.7242 24.0898 65.9161 24.5073 66.2696L47.1343 86.4806C48.9785 88.1563 50.5581 89.0421 52.5537 89.0421C55.27 89.0421 57.1934 87.0348 57.1934 84.3302L57.1934 9.6246C57.1934 6.92 55.27 4.71053 52.4863 4.71053C50.4907 4.71053 49.1284 5.69393 47.1343 7.4742L24.5073 27.7623C24.0898 28.1309 23.6538 28.2623 23.063 28.2623L8.58009 28.2623C2.80225 28.2623 0 31.1925 0 37.2433L0 56.8223C0 62.9034 2.85108 65.7242 8.58009 65.7242ZM8.80079 60.1998C6.72169 60.1998 5.87648 59.3243 5.87648 57.2452L5.87648 36.8204C5.87648 34.6925 6.72169 33.817 8.80079 33.817L24.335 33.817C25.6953 33.817 26.687 33.588 27.8252 32.5323L49.6099 12.6974C49.9146 12.4078 50.1738 12.1856 50.5913 12.1856C50.9937 12.1856 51.3169 12.4449 51.3169 12.9449L51.3169 80.7286C51.3169 81.2589 50.9937 81.5518 50.6216 81.5518C50.332 81.5518 50.0239 81.4205 49.625 81.0704L27.8252 61.4845C26.7022 60.4928 25.6953 60.1998 24.335 60.1998Z" fill="#000000" fill-opacity="0.85"/>
 </g>
</svg>
