<?xml version="1.0" encoding="UTF-8"?>
<!--Generator: Apple Native CoreSVG 232.5-->
<!DOCTYPE svg
PUBLIC "-//W3C//DTD SVG 1.1//EN"
       "http://www.w3.org/Graphics/SVG/1.1/DTD/svg11.dtd">
<svg version="1.1" xmlns="http://www.w3.org/2000/svg" xmlns:xlink="http://www.w3.org/1999/xlink" width="97.9595" height="97.9932">
 <g>
  <rect height="97.9932" opacity="0" width="97.9595" x="0" y="0"/>
  <path d="M48.9722 97.9443C75.8247 97.9443 97.9595 75.7759 97.9595 48.9722C97.9595 22.1348 75.791 0 48.9385 0C22.1348 0 0 22.1348 0 48.9722C0 75.7759 22.1685 97.9443 48.9722 97.9443ZM48.9722 91.6113C25.3501 91.6113 6.36671 72.5942 6.36671 48.9722C6.36671 25.3501 25.3164 6.31789 48.9385 6.31789C72.5605 6.31789 91.6265 25.3501 91.6265 48.9722C91.6265 72.5942 72.5942 91.6113 48.9722 91.6113Z" fill="#000000" fill-opacity="0.85"/>
  <path d="M67.9956 66.4644C69.023 67.1094 70.1362 66.9561 70.8755 65.9658C74.2227 61.5693 76.1689 55.688 76.1689 48.8931C76.1689 42.7896 74.3506 36.9082 70.9209 31.8691C70.1934 30.8301 68.9707 30.6279 67.9956 31.2578C67.0508 32.0156 66.9009 33.2266 67.583 34.2842C70.4922 38.4644 72.0024 43.502 72.0024 48.8931C72.0024 54.4927 70.4619 59.8013 67.5376 63.5322C66.8066 64.5293 66.938 65.8042 67.9956 66.4644Z" fill="#000000" fill-opacity="0.85"/>
  <path d="M58.8989 59.8828C59.7764 60.5767 61.0815 60.3408 61.8242 59.3843C63.917 56.7207 65.04 52.8179 65.04 48.8931C65.04 44.9902 63.8833 41.1328 61.8242 38.4356C61.1152 37.4605 59.7764 37.2432 58.8989 37.937C57.9204 38.6983 57.7217 39.9092 58.4526 40.9517C59.9341 42.812 60.8398 45.7583 60.8398 48.8931C60.8398 51.8999 59.9038 54.8311 58.3735 56.9136C57.7217 57.9443 57.8716 59.0728 58.8989 59.8828Z" fill="#000000" fill-opacity="0.85"/>
  <path d="M47.6182 70.9448C49.0479 70.9448 49.9775 69.9092 49.9775 68.4946L49.9775 29.4263C49.9775 28.0117 49.0479 26.875 47.5845 26.875C46.564 26.875 45.8433 27.3667 44.8462 28.2964L33.6719 38.9756C33.4648 39.1675 33.1904 39.2314 32.8857 39.2314L25.2236 39.2314C22.312 39.2314 20.4717 41.0718 20.4717 44.1519L20.4717 53.8262C20.4717 56.8877 22.312 58.728 25.2236 58.728L32.8857 58.728C33.1904 58.728 33.4648 58.8257 33.6719 59.0176L44.8462 69.6582C45.7573 70.4868 46.5825 70.9448 47.6182 70.9448Z" fill="#000000" fill-opacity="0.85"/>
 </g>
</svg>
