<?xml version="1.0" encoding="UTF-8"?>
<!--Generator: Apple Native CoreSVG 232.5-->
<!DOCTYPE svg
PUBLIC "-//W3C//DTD SVG 1.1//EN"
       "http://www.w3.org/Graphics/SVG/1.1/DTD/svg11.dtd">
<svg version="1.1" xmlns="http://www.w3.org/2000/svg" xmlns:xlink="http://www.w3.org/1999/xlink" width="119.423" height="84.335">
 <g>
  <rect height="84.335" opacity="0" width="119.423" x="0" y="0"/>
  <path d="M74.9292 45.3213L115.92 45.3213C117.958 45.3213 119.423 44.1289 119.423 42.2222C119.423 40.2212 118.074 39.0103 115.92 39.0103L74.9292 39.0103C72.8086 39.0103 71.3921 40.2212 71.3921 42.2222C71.3921 44.1289 72.8911 45.3213 74.9292 45.3213Z" fill="#000000" fill-opacity="0.85"/>
  <path d="M8.58009 61.0171L23.063 61.0171C23.6538 61.0171 24.0898 61.209 24.5073 61.5625L47.1343 81.7734C48.9785 83.4492 50.5581 84.335 52.5537 84.335C55.27 84.335 57.1934 82.3276 57.1934 79.6231L57.1934 4.91749C57.1934 2.21289 55.27 0.00341833 52.4863 0.00341833C50.4907 0.00341833 49.1284 0.986817 47.1343 2.76709L24.5073 23.0552C24.0898 23.4238 23.6538 23.5552 23.063 23.5552L8.58009 23.5552C2.80225 23.5552 0 26.4854 0 32.5361L0 52.1152C0 58.1963 2.85108 61.0171 8.58009 61.0171ZM8.80079 55.4927C6.72169 55.4927 5.87648 54.6172 5.87648 52.5381L5.87648 32.1133C5.87648 29.9854 6.72169 29.1099 8.80079 29.1099L24.335 29.1099C25.6953 29.1099 26.687 28.8809 27.8252 27.8252L49.6099 7.99025C49.9146 7.7007 50.1738 7.47854 50.5913 7.47854C50.9937 7.47854 51.3169 7.73781 51.3169 8.23781L51.3169 76.0215C51.3169 76.5518 50.9937 76.8447 50.6216 76.8447C50.332 76.8447 50.0239 76.7134 49.625 76.3633L27.8252 56.7773C26.7022 55.7856 25.6953 55.4927 24.335 55.4927Z" fill="#000000" fill-opacity="0.85"/>
 </g>
</svg>
