<?xml version="1.0" encoding="UTF-8"?>
<!--Generator: Apple Native CoreSVG 232.5-->
<!DOCTYPE svg
PUBLIC "-//W3C//DTD SVG 1.1//EN"
       "http://www.w3.org/Graphics/SVG/1.1/DTD/svg11.dtd">
<svg version="1.1" xmlns="http://www.w3.org/2000/svg" xmlns:xlink="http://www.w3.org/1999/xlink" width="66.9092" height="84.335">
 <g>
  <rect height="84.335" opacity="0" width="66.9092" x="0" y="0"/>
  <path d="M8.59864 61.0171L23.0479 61.0171C23.6387 61.0171 24.0898 61.209 24.5073 61.5625L47.1343 81.7734C48.9785 83.4492 50.543 84.335 52.5386 84.335C55.2886 84.335 57.1782 82.3276 57.1782 79.6231L57.1782 4.91749C57.1782 2.21289 55.2886 0.00341833 52.4712 0.00341833C50.4907 0.00341833 49.1621 0.986817 47.1343 2.76709L24.5073 23.0552C24.0898 23.4238 23.6387 23.5552 23.0479 23.5552L8.59864 23.5552C2.8208 23.5552 0 26.4854 0 32.5361L0 52.1152C0 58.1963 2.83594 61.0171 8.59864 61.0171ZM8.83448 55.4927C6.72169 55.4927 5.87648 54.6172 5.87648 52.5381L5.87648 32.1133C5.87648 29.9854 6.72169 29.1099 8.83448 29.1099L24.3535 29.1099C25.729 29.1099 26.6719 28.8809 27.8101 27.8252L49.5947 7.99025C49.8994 7.7007 50.2075 7.47854 50.5913 7.47854C50.9785 7.47854 51.3018 7.73781 51.3018 8.23781L51.3018 76.0215C51.3018 76.5518 50.9785 76.8447 50.6064 76.8447C50.3169 76.8447 50.0239 76.7134 49.6436 76.3633L27.8101 56.7773C26.687 55.7856 25.729 55.4927 24.3535 55.4927Z" fill="#000000" fill-opacity="0.85"/>
 </g>
</svg>
