<?xml version="1.0" encoding="UTF-8"?>
<!--Generator: Apple Native CoreSVG 232.5-->
<!DOCTYPE svg
PUBLIC "-//W3C//DTD SVG 1.1//EN"
       "http://www.w3.org/Graphics/SVG/1.1/DTD/svg11.dtd">
<svg version="1.1" xmlns="http://www.w3.org/2000/svg" xmlns:xlink="http://www.w3.org/1999/xlink" width="128.831" height="88.5371">
 <g>
  <rect height="88.5371" opacity="0" width="128.831" x="0" y="0"/>
  <path d="M0 74.2632C0 83.7349 4.86963 88.5371 14.3936 88.5371L61.4185 88.5371L61.4185 66.7358C49.8696 65.5772 41.5962 56.5054 41.5962 44.3232C41.5962 32.0586 49.8696 22.9868 61.4185 21.8955L61.4185 0.127929L14.3936 0.127929C4.86963 0.127929 0 4.93018 0 14.4019L0 21.1411L17.2681 21.1411C23.4863 21.1411 27.0039 24.6587 27.0039 30.8584L27.0039 57.773C27.0039 63.9727 23.4863 67.4902 17.2681 67.4902L0 67.4902ZM0 62.104L17.1553 62.104C20.0151 62.104 21.6177 60.5015 21.6177 57.6079L21.6177 31.0234C21.6177 28.1299 20.0151 26.5425 17.1553 26.5425L0 26.5425ZM46.7432 44.2896C46.7432 53.3457 52.9131 60.3442 61.4185 61.4692L61.4185 27.1958C52.9131 28.3208 46.7432 35.252 46.7432 44.2896ZM66.8198 88.5371L114.456 88.5371C123.995 88.5371 128.831 83.6558 128.831 74.2632L128.831 67.4902L111.596 67.4902C105.329 67.4902 101.845 63.9727 101.845 57.773L101.845 30.8584C101.845 24.6587 105.329 21.1411 111.596 21.1411L128.831 21.1411L128.831 14.4019C128.831 5.00928 123.995 0.127929 114.456 0.127929L66.8198 0.127929L66.8198 21.9629C78.3653 23.1738 86.5899 32.2793 86.6421 44.3232C86.7432 56.5054 78.4697 65.5586 66.8198 66.7358ZM66.8198 61.4692C75.3252 60.3442 81.4614 53.3457 81.4951 44.2896C81.5288 35.252 75.3589 28.2871 66.8198 27.1958ZM107.247 57.6079C107.247 60.5015 108.849 62.104 111.66 62.104L128.831 62.104L128.831 26.5425L111.66 26.5425C108.849 26.5425 107.247 28.1299 107.247 31.0234Z" fill="#000000" fill-opacity="0.85"/>
 </g>
</svg>
