<?xml version="1.0" encoding="UTF-8"?>
<!--Generator: Apple Native CoreSVG 232.5-->
<!DOCTYPE svg
PUBLIC "-//W3C//DTD SVG 1.1//EN"
       "http://www.w3.org/Graphics/SVG/1.1/DTD/svg11.dtd">
<svg version="1.1" xmlns="http://www.w3.org/2000/svg" xmlns:xlink="http://www.w3.org/1999/xlink" width="82.8985" height="94.253">
 <g>
  <rect height="94.253" opacity="0" width="82.8985" x="0" y="0"/>
  <path d="M3.13379 41.2866C4.85645 41.2866 6.28272 39.8755 6.28272 38.1529C6.28272 36.4302 4.85645 35.0191 3.13379 35.0191C1.41113 35.0191 0 36.4302 0 38.1529C0 39.8755 1.41113 41.2866 3.13379 41.2866ZM13.3994 14.3247C15.1221 14.3247 16.5332 12.9136 16.5332 11.1909C16.5332 9.46827 15.1221 8.05713 13.3994 8.05713C11.6768 8.05713 10.2505 9.46827 10.2505 11.1909C10.2505 12.9136 11.6768 14.3247 13.3994 14.3247ZM41.4492 6.28272C43.1719 6.28272 44.583 4.87159 44.583 3.13379C44.583 1.41113 43.1719 0 41.4492 0C39.7266 0 38.3154 1.41113 38.3154 3.13379C38.3154 4.87159 39.7266 6.28272 41.4492 6.28272ZM69.4991 14.3247C71.2217 14.3247 72.6328 12.9136 72.6328 11.1909C72.6328 9.46827 71.2217 8.05713 69.4991 8.05713C67.7764 8.05713 66.3653 9.46827 66.3653 11.1909C66.3653 12.9136 67.7764 14.3247 69.4991 14.3247ZM79.7495 41.2866C81.4722 41.2866 82.8985 39.8755 82.8985 38.1529C82.8985 36.4302 81.4722 35.0191 79.7495 35.0191C78.0269 35.0191 76.6158 36.4302 76.6158 38.1529C76.6158 39.8755 78.0269 41.2866 79.7495 41.2866Z" fill="#000000" fill-opacity="0.85"/>
  <path d="M17.2153 41.2866C18.938 41.2866 20.3491 39.8755 20.3491 38.1529C20.3491 36.4302 18.938 35.0191 17.2153 35.0191C15.4927 35.0191 14.0815 36.4302 14.0815 38.1529C14.0815 39.8755 15.4927 41.2866 17.2153 41.2866ZM23.354 24.2793C25.0767 24.2793 26.4878 22.8682 26.4878 21.1455C26.4878 19.4229 25.0767 18.0117 23.354 18.0117C21.6314 18.0117 20.2202 19.4229 20.2202 21.1455C20.2202 22.8682 21.6314 24.2793 23.354 24.2793ZM41.4492 20.3828C43.1719 20.3828 44.583 18.9717 44.583 17.249C44.583 15.5264 43.1719 14.1152 41.4492 14.1152C39.7266 14.1152 38.3154 15.5264 38.3154 17.249C38.3154 18.9717 39.7266 20.3828 41.4492 20.3828ZM59.5445 24.2793C61.2671 24.2793 62.6783 22.8682 62.6783 21.1455C62.6783 19.4229 61.2671 18.0117 59.5445 18.0117C57.7881 18.0117 56.4107 19.4229 56.4107 21.1455C56.4107 22.8682 57.7881 24.2793 59.5445 24.2793ZM65.6494 41.2866C67.3721 41.2866 68.7832 39.8755 68.7832 38.1529C68.7832 36.4302 67.3721 35.0191 65.6494 35.0191C63.9268 35.0191 62.5157 36.4302 62.5157 38.1529C62.5157 39.8755 63.9268 41.2866 65.6494 41.2866Z" fill="#000000" fill-opacity="0.85"/>
  <path d="M32.5957 44.6875L50.2539 44.6875C53.0528 44.6875 55.0449 42.7256 55.0449 39.9116L55.0449 36.2515C55.0449 31.4776 51.6265 28.1753 46.5899 28.1753L36.2295 28.1753C31.2568 28.1753 27.8535 31.4776 27.8535 36.2515L27.8535 39.9116C27.8535 42.7256 29.8457 44.6875 32.5957 44.6875ZM34.1201 39.8101C33.3726 39.8101 32.8994 39.3521 32.8994 38.5254L32.8994 36.2515C32.8994 34.1284 34.1099 33.0528 36.3828 33.0528L46.4365 33.0528C48.7549 33.0528 49.999 34.1284 49.999 36.2515L49.999 38.5254C49.999 39.3521 49.5108 39.8101 48.7144 39.8101ZM32.6109 67.395L50.2539 67.395C53.0528 67.395 55.0449 65.4517 55.0449 62.5889L55.0449 55.4195C55.0449 52.5567 53.0528 50.6133 50.2539 50.6133L32.6109 50.6133C29.8457 50.6133 27.8838 52.5567 27.8838 55.4195L27.8838 62.5889C27.8838 65.4517 29.8457 67.395 32.6109 67.395ZM33.982 62.4688C33.2193 62.4688 32.7612 62.0445 32.7612 61.2329L32.7612 56.7754C32.7612 55.9488 33.2193 55.4907 33.982 55.4907L48.8828 55.4907C49.6641 55.4907 50.1675 55.9488 50.1675 56.7754L50.1675 61.2329C50.1675 62.0445 49.6641 62.4688 48.8828 62.4688ZM34.1929 53.7344L39.3584 53.7344L39.3584 42.0332L34.1929 42.0332ZM43.5552 53.7344L48.7207 53.7344L48.7207 42.0332L43.5552 42.0332ZM33.5493 88.4702L38.7149 88.4702L38.7149 65.1739L33.5493 65.1739ZM44.1987 88.4702L49.3794 88.4702L49.3794 65.1739L44.1987 65.1739ZM3.57081 91.6148L79.3125 91.6148C80.9126 91.6148 82.292 90.2354 82.292 88.6504C82.292 86.9712 80.9126 85.6372 79.3125 85.6372L3.57081 85.6372C1.97071 85.6372 0.572756 86.9712 0.572756 88.6504C0.572756 90.2354 1.97071 91.6148 3.57081 91.6148Z" fill="#000000" fill-opacity="0.85"/>
 </g>
</svg>
