<?xml version="1.0" encoding="UTF-8"?>
<!--Generator: Apple Native CoreSVG 232.5-->
<!DOCTYPE svg
PUBLIC "-//W3C//DTD SVG 1.1//EN"
       "http://www.w3.org/Graphics/SVG/1.1/DTD/svg11.dtd">
<svg version="1.1" xmlns="http://www.w3.org/2000/svg" xmlns:xlink="http://www.w3.org/1999/xlink" width="100.825" height="100.907">
 <g>
  <rect height="100.907" opacity="0" width="100.825" x="0" y="0"/>
  <path d="M79.958 90.457C79.958 91.517 80.1157 92.5405 80.4117 93.5039L20.3994 93.5039C20.6944 92.5405 20.8516 91.517 20.8516 90.457C20.8516 89.4149 20.6988 88.4078 20.4102 87.459L80.4009 87.459C80.1113 88.4078 79.958 89.4149 79.958 90.457ZM10.4502 20.9492C11.4934 20.9492 12.5004 20.7946 13.4483 20.5028L13.4483 80.4671C12.5004 80.1761 11.4934 80.022 10.4502 80.022C9.38847 80.022 8.36524 80.179 7.40332 80.474L7.40332 20.4959C8.36524 20.7917 9.38847 20.9492 10.4502 20.9492ZM90.4082 20.9492C91.4509 20.9492 92.458 20.7947 93.4063 20.5031L93.4063 80.4667C92.458 80.176 91.4509 80.022 90.4082 80.022C89.3527 80.022 88.3345 80.178 87.3765 80.4715L87.3765 20.4984C88.3345 20.7927 89.3527 20.9492 90.4082 20.9492ZM79.958 10.499C79.958 11.5528 80.1147 12.5713 80.4093 13.5308L20.4019 13.5308C20.6954 12.5713 20.8516 11.5528 20.8516 10.499C20.8516 9.45738 20.699 8.45021 20.4105 7.50098L80.4006 7.50098C80.1111 8.45021 79.958 9.45738 79.958 10.499Z" fill="#000000" fill-opacity="0.85"/>
  <path d="M100.825 90.457C100.825 96.2227 96.1587 100.907 90.4082 100.907C84.624 100.907 79.958 96.2227 79.958 90.457C79.958 84.7066 84.624 80.022 90.4082 80.022C96.1587 80.022 100.825 84.7066 100.825 90.457ZM20.8516 90.457C20.8516 96.2227 16.2007 100.907 10.4502 100.907C4.65088 100.907 0 96.2227 0 90.457C0 84.7066 4.65088 80.022 10.4502 80.022C16.2007 80.022 20.8516 84.7066 20.8516 90.457ZM20.8516 10.499C20.8516 16.2495 16.2007 20.9492 10.4502 20.9492C4.65088 20.9492 0 16.2495 0 10.499C0 4.74854 4.65088 0.0488281 10.4502 0.0488281C16.2007 0.0488281 20.8516 4.74854 20.8516 10.499ZM100.825 10.499C100.825 16.2495 96.1587 20.9492 90.4082 20.9492C84.624 20.9492 79.958 16.2495 79.958 10.499C79.958 4.74854 84.624 0.0488281 90.4082 0.0488281C96.1587 0.0488281 100.825 4.74854 100.825 10.499Z" fill="#000000" fill-opacity="0.85"/>
  <path d="M65.1406 30.2847L65.1406 36.1338L60.0762 36.1338L60.0762 31.6172C60.0762 30.0469 59.1235 29.1548 57.3159 29.1548L31.4673 29.1548C29.8633 29.1548 29.0049 30.0469 29.0049 31.6172L29.0049 57.3897C29.0049 58.9785 29.8633 59.8369 31.4673 59.8369L35.9165 59.8369L35.9165 64.9014L30.1348 64.9014C26.1563 64.9014 23.9404 62.6856 23.9404 58.7222L23.9404 30.2847C23.9404 26.3213 26.1563 24.0903 30.1348 24.0903L58.6485 24.0903C62.8306 24.0903 65.1406 26.3213 65.1406 30.2847Z" fill="#000000" fill-opacity="0.85"/>
  <path d="M42.0957 76.9111L70.9224 76.9111C74.8858 76.9111 77.1167 74.7139 77.1167 70.7168L77.1167 42.2793C77.1167 38.3159 74.7915 36.1338 70.6245 36.1338L42.0957 36.1338C38.1323 36.1338 35.9165 38.3159 35.9165 42.2793L35.9165 70.7168C35.9165 74.7139 38.1323 76.9111 42.0957 76.9111ZM43.4282 71.8467C41.8394 71.8467 40.981 70.9883 40.981 69.418L40.981 43.6118C40.981 42.0567 41.8394 41.1983 43.4282 41.1983L69.292 41.1983C71.0996 41.1983 72.0522 42.0567 72.0522 43.6118L72.0522 69.418C72.0522 70.9883 71.1939 71.8467 69.5899 71.8467Z" fill="#000000" fill-opacity="0.85"/>
 </g>
</svg>
