<?xml version="1.0" encoding="UTF-8"?>
<!--Generator: Apple Native CoreSVG 232.5-->
<!DOCTYPE svg
PUBLIC "-//W3C//DTD SVG 1.1//EN"
       "http://www.w3.org/Graphics/SVG/1.1/DTD/svg11.dtd">
<svg version="1.1" xmlns="http://www.w3.org/2000/svg" xmlns:xlink="http://www.w3.org/1999/xlink" width="122.689" height="137.767">
 <g>
  <rect height="137.767" opacity="0" width="122.689" x="0" y="0"/>
  <path d="M67.46 18.1371L21.5635 44.6232C20.5347 45.1788 20.0801 45.9752 20.0801 47.046L20.0801 100.006C16.9824 100.458 14.0014 98.974 14.0014 93.6935L14.0014 47.1857C14.0014 42.5309 14.542 41.6114 18.5366 39.3346L58.5586 16.2306C61.5129 14.5359 65.9748 14.1021 67.46 18.1371Z" fill="#000000" fill-opacity="0.85"/>
  <path d="M87.3843 29.6515L41.4814 56.1412C40.4863 56.6969 40.0317 57.4933 40.0317 58.5641L40.0317 111.527C36.9308 111.982 33.9682 110.503 33.9682 105.212L33.9682 58.67C33.9682 54.0489 34.4936 53.1446 38.4546 50.819L78.5102 27.7486C81.4669 26.0526 85.9107 25.6297 87.3843 29.6515Z" fill="#000000" fill-opacity="0.85"/>
  <path d="M54.7383 116.563C54.7383 123.146 59.5093 124.956 64.5869 122.027L103.644 99.6007C107.515 97.361 108.687 95.4171 108.687 90.7506L108.687 44.8863C108.687 38.3507 103.802 37.1261 98.8911 39.9303L59.8496 62.4581C55.9072 64.735 54.7383 66.7731 54.7383 71.3082ZM61.0561 115.636L61.0561 71.2882C61.0561 69.6749 61.5781 68.7438 62.9624 67.9674L101.242 45.6183C101.939 45.2228 102.557 45.3995 102.557 46.379L102.557 90.6847C102.557 92.1446 102.02 93.2291 100.65 94.0543L62.3369 116.254C61.625 116.698 61.0561 116.442 61.0561 115.636Z" fill="#000000" fill-opacity="0.85"/>
 </g>
</svg>
