<?xml version="1.0" encoding="UTF-8"?>
<!--Generator: Apple Native CoreSVG 232.5-->
<!DOCTYPE svg
PUBLIC "-//W3C//DTD SVG 1.1//EN"
       "http://www.w3.org/Graphics/SVG/1.1/DTD/svg11.dtd">
<svg version="1.1" xmlns="http://www.w3.org/2000/svg" xmlns:xlink="http://www.w3.org/1999/xlink" width="108.719" height="138.257">
 <g>
  <rect height="138.257" opacity="0" width="108.719" x="0" y="0"/>
  <path d="M108.719 69.7998L108.719 119.677C108.719 129.149 103.85 133.951 94.3106 133.951L42.001 133.951C32.4619 133.951 27.5923 129.149 27.5923 119.677L27.5923 112.676L33.6372 112.676L33.6372 119.377C33.6372 125.016 36.7383 127.921 42.1323 127.921L94.2129 127.921C99.7163 127.921 102.674 125.016 102.674 119.377L102.674 70.0996C102.674 64.4615 99.5732 61.5557 94.2129 61.5557L85.0049 61.5557L85.0049 55.5259L94.3106 55.5259C103.883 55.5259 108.719 60.3281 108.719 69.7998Z" fill="#000000" fill-opacity="0.85"/>
  <path d="M85.0049 48.5093L85.0049 98.4019C85.0049 107.794 80.1353 112.676 70.6113 112.676L14.3936 112.676C4.86963 112.676 0 107.874 0 98.4019L0 48.5093C0 39.0527 4.86963 34.2505 14.3936 34.2505L30.7559 34.2505L30.7559 40.2803L14.5064 40.2803C9.00294 40.2803 6.04494 43.1709 6.04494 48.8091L6.04494 98.1021C6.04494 103.74 9.00294 106.631 14.5064 106.631L70.4648 106.631C75.8589 106.631 78.9751 103.74 78.9751 98.1021L78.9751 48.8091C78.9751 43.1709 75.8589 40.2803 70.4648 40.2803L54.249 40.2803L54.249 34.2505L70.6113 34.2505C80.1353 34.2505 85.0049 39.1167 85.0049 48.5093Z" fill="#000000" fill-opacity="0.85"/>
  <path d="M42.4932 81.2617C43.2764 81.2617 43.9248 80.9956 44.6592 80.2612L61.814 63.4653C62.3799 62.8994 62.7134 62.2998 62.7134 61.4829C62.7134 59.9839 61.499 58.8218 59.9814 58.8218C59.2319 58.8218 58.4673 59.1519 57.9199 59.7515L49.6201 68.373L45.2739 72.8354L45.4912 65.772L45.4912 11.6548C45.4912 10.0733 44.1084 8.75782 42.4932 8.75782C40.8628 8.75782 39.5137 10.0733 39.5137 11.6548L39.5137 65.772L39.731 72.8843L35.3359 68.373L27.0547 59.7515C26.5225 59.1519 25.6904 58.8218 24.9746 58.8218C23.4082 58.8218 22.2612 59.9839 22.2612 61.4829C22.2612 62.2998 22.561 62.8994 23.127 63.4653L40.312 80.2612C41.0801 80.9956 41.7437 81.2617 42.4932 81.2617Z" fill="#000000" fill-opacity="0.85"/>
 </g>
</svg>
