<?xml version="1.0" encoding="UTF-8"?>
<!--Generator: Apple Native CoreSVG 232.5-->
<!DOCTYPE svg
PUBLIC "-//W3C//DTD SVG 1.1//EN"
       "http://www.w3.org/Graphics/SVG/1.1/DTD/svg11.dtd">
<svg version="1.1" xmlns="http://www.w3.org/2000/svg" xmlns:xlink="http://www.w3.org/1999/xlink" width="114.605" height="111.227">
 <g>
  <rect height="111.227" opacity="0" width="114.605" x="0" y="0"/>
  <path d="M60.0118 2.06901L99.5621 24.9338C103.26 27.0793 104.539 29.2941 104.539 33.5095L104.539 78.7165C104.539 81.9305 103.594 84.0882 102.002 85.1233L93.2168 76.341L97.3155 78.7072C98.0123 79.1027 98.4415 78.8049 98.4415 78.1198L98.4415 33.7116C98.4415 31.8845 97.9464 31.2614 96.5352 30.4094L58.1173 8.19842C57.4659 7.7995 56.8028 8.13446 56.8028 8.94061L56.8028 23.239L50.7056 19.72L50.7056 6.95135C50.7056 1.39518 55.6773-0.392902 60.0118 2.06901Z" fill="#000000" fill-opacity="0.85"/>
  <path d="M77.6515 90.3464C78.3819 90.7419 78.8111 90.4591 78.8111 89.7741L78.8111 84.3999L84.9042 90.4896C84.8642 97.2175 80.5839 99.2417 75.0631 96.0783L63.8653 89.6051L63.8653 82.3928ZM40.3477 13.7419L79.9317 36.5881C83.5963 38.7521 84.9083 40.9821 84.9083 45.1638L84.9083 68.0355L78.8111 61.9405L78.8111 45.3659C78.8111 43.5236 78.2823 42.9006 76.8712 42.0637L38.4869 19.8527C37.8776 19.4979 37.3123 19.7384 37.1959 20.3404L31.957 15.1033C33.5644 12.4265 37.1231 11.8852 40.3477 13.7419Z" fill="#000000" fill-opacity="0.85"/>
  <path d="M19.3385 26.0397L21.8998 27.5204L39.0045 44.6156L17.4439 32.1506C16.8077 31.7702 16.1446 32.1052 16.1446 32.8776L16.1446 77.0671C16.1446 78.8385 16.5538 79.4987 18.0323 80.3693L56.6573 102.678C57.339 103.073 57.7681 102.757 57.7681 102.072L57.7681 63.3687L63.8653 69.4625L63.8653 102.687C63.8653 109.494 59.6031 111.59 54.0201 108.376L15.11 85.8483C11.0782 83.568 10.0323 81.4206 10.0323 77.1681L10.0323 30.8884C10.0323 25.381 15.004 23.5778 19.3385 26.0397Z" fill="#000000" fill-opacity="0.85"/>
  <path d="M104.589 103.062C105.754 104.194 107.587 104.194 108.715 103.062C109.878 101.93 109.896 100.068 108.715 98.9357L15.6441 5.88297C14.5274 4.7814 12.6949 4.73599 11.484 5.88297C10.3858 6.99625 10.3858 8.9113 11.484 10.0246Z" fill="#000000" fill-opacity="0.85"/>
 </g>
</svg>
