<?xml version="1.0" encoding="UTF-8"?>
<!--Generator: Apple Native CoreSVG 232.5-->
<!DOCTYPE svg
PUBLIC "-//W3C//DTD SVG 1.1//EN"
       "http://www.w3.org/Graphics/SVG/1.1/DTD/svg11.dtd">
<svg version="1.1" xmlns="http://www.w3.org/2000/svg" xmlns:xlink="http://www.w3.org/1999/xlink" width="136.827" height="88.5371">
 <g>
  <rect height="88.5371" opacity="0" width="136.827" x="0" y="0"/>
  <path d="M105.129 88.5371L128.5 88.5371C133.99 88.5371 136.827 85.8696 136.827 80.0903L136.827 56.959C136.827 51.2134 133.99 48.5122 128.5 48.5122L105.129 48.5122C99.6245 48.5122 96.8023 51.2134 96.8023 56.959L96.8023 80.0903C96.8023 85.8696 99.6245 88.5371 105.129 88.5371Z" fill="#000000" fill-opacity="0.85"/>
  <path d="M56.73 88.5371L80.082 88.5371C85.5718 88.5371 88.4092 85.8696 88.4092 80.0903L88.4092 56.959C88.4092 51.2134 85.5718 48.5122 80.082 48.5122L56.73 48.5122C51.2066 48.5122 48.3843 51.2134 48.3843 56.959L48.3843 80.0903C48.3843 85.8696 51.2066 88.5371 56.73 88.5371Z" fill="#000000" fill-opacity="0.85"/>
  <path d="M8.31202 88.5371L31.6978 88.5371C37.1875 88.5371 40.0249 85.8696 40.0249 80.0903L40.0249 56.959C40.0249 51.2134 37.1875 48.5122 31.6978 48.5122L8.31202 48.5122C2.82227 48.5122 0 51.2134 0 56.959L0 80.0903C0 85.8696 2.82227 88.5371 8.31202 88.5371Z" fill="#000000" fill-opacity="0.85"/>
  <path d="M105.129 40.1528L128.5 40.1528C133.99 40.1528 136.827 37.4517 136.827 31.6724L136.827 8.57472C136.827 2.79541 133.99 0.127929 128.5 0.127929L105.129 0.127929C99.6245 0.127929 96.8023 2.79541 96.8023 8.57472L96.8023 31.6724C96.8023 37.4517 99.6245 40.1528 105.129 40.1528Z" fill="#000000" fill-opacity="0.85"/>
  <path d="M56.73 40.1528L80.082 40.1528C85.5718 40.1528 88.4092 37.4517 88.4092 31.6724L88.4092 8.57472C88.4092 2.79541 85.5718 0.127929 80.082 0.127929L56.73 0.127929C51.2066 0.127929 48.3843 2.79541 48.3843 8.57472L48.3843 31.6724C48.3843 37.4517 51.2066 40.1528 56.73 40.1528Z" fill="#000000" fill-opacity="0.85"/>
  <path d="M8.31202 40.1528L31.6978 40.1528C37.1875 40.1528 40.0249 37.4517 40.0249 31.6724L40.0249 8.57472C40.0249 2.79541 37.1875 0.127929 31.6978 0.127929L8.31202 0.127929C2.82227 0.127929 0 2.79541 0 8.57472L0 31.6724C0 37.4517 2.82227 40.1528 8.31202 40.1528Z" fill="#000000" fill-opacity="0.85"/>
 </g>
</svg>
