<?xml version="1.0" encoding="UTF-8"?>
<!--Generator: Apple Native CoreSVG 232.5-->
<!DOCTYPE svg
PUBLIC "-//W3C//DTD SVG 1.1//EN"
       "http://www.w3.org/Graphics/SVG/1.1/DTD/svg11.dtd">
<svg version="1.1" xmlns="http://www.w3.org/2000/svg" xmlns:xlink="http://www.w3.org/1999/xlink" width="136.354" height="126.99">
 <g>
  <rect height="126.99" opacity="0" width="136.354" x="0" y="0"/>
  <path d="M45.7749 108.844C45.7749 110.566 44.3638 111.978 42.6411 111.978C40.9184 111.978 39.5073 110.566 39.5073 108.844C39.5073 107.121 40.9184 105.71 42.6411 105.71C44.3638 105.71 45.7749 107.121 45.7749 108.844ZM40.8213 99.7617C40.8213 101.484 39.4102 102.896 37.6875 102.896C35.9648 102.896 34.5537 101.484 34.5537 99.7617C34.5537 98.0391 35.9648 96.6128 37.6875 96.6128C39.4102 96.6128 40.8213 98.0391 40.8213 99.7617ZM35.8491 90.6645C35.8491 92.3872 34.438 93.7983 32.7153 93.7983C30.9927 93.7983 29.5664 92.3872 29.5664 90.6645C29.5664 88.9419 30.9927 87.5308 32.7153 87.5308C34.438 87.5308 35.8491 88.9419 35.8491 90.6645ZM30.8584 81.6499C30.8584 83.3726 29.4321 84.7837 27.7095 84.7837C25.9868 84.7837 24.5757 83.3726 24.5757 81.6499C24.5757 79.8935 25.9868 78.5161 27.7095 78.5161C29.4321 78.5161 30.8584 79.8935 30.8584 81.6499ZM25.9048 72.519C25.9048 74.2417 24.4936 75.6528 22.771 75.6528C21.0146 75.6528 19.6221 74.2417 19.6221 72.519C19.6221 70.7964 21.0146 69.3852 22.771 69.3852C24.4936 69.3852 25.9048 70.7964 25.9048 72.519ZM20.8838 63.4707C20.8838 65.1934 19.4726 66.6045 17.75 66.6045C16.0273 66.6045 14.6162 65.1934 14.6162 63.4707C14.6162 61.748 16.0273 60.3369 17.75 60.3369C19.4726 60.3369 20.8838 61.748 20.8838 63.4707ZM25.9048 54.4072C25.9048 56.1299 24.4936 57.5561 22.771 57.5561C21.0146 57.5561 19.6221 56.1299 19.6221 54.4072C19.6221 52.6509 21.0146 51.2397 22.771 51.2397C24.4936 51.2397 25.9048 52.6509 25.9048 54.4072ZM30.8584 45.2915C30.8584 47.0142 29.4321 48.4253 27.7095 48.4253C25.9868 48.4253 24.5757 47.0142 24.5757 45.2915C24.5757 43.5688 25.9868 42.1577 27.7095 42.1577C29.4321 42.1577 30.8584 43.5688 30.8584 45.2915ZM35.8491 36.2769C35.8491 37.9995 34.438 39.4106 32.7153 39.4106C30.9927 39.4106 29.5664 37.9995 29.5664 36.2769C29.5664 34.5391 30.9927 33.1279 32.7153 33.1279C34.438 33.1279 35.8491 34.5391 35.8491 36.2769ZM40.8213 27.146C40.8213 28.9023 39.4102 30.2798 37.6875 30.2798C35.9648 30.2798 34.5537 28.9023 34.5537 27.146C34.5537 25.4233 35.9648 24.0122 37.6875 24.0122C39.4102 24.0122 40.8213 25.4233 40.8213 27.146ZM45.7749 18.0977C45.7749 19.8203 44.3638 21.2314 42.6411 21.2314C40.9184 21.2314 39.5073 19.8203 39.5073 18.0977C39.5073 16.375 40.9184 14.9639 42.6411 14.9639C44.3638 14.9639 45.7749 16.375 45.7749 18.0977Z" fill="#000000" fill-opacity="0.85"/>
  <path d="M71.0268 16.1777L45 61.7515C44.6362 62.3628 44.456 62.8848 44.456 63.4707C44.456 63.8682 44.6211 64.4692 45.0151 65.1748L71.0305 110.767C70.0536 111.699 69.0282 112.132 67.7432 112.132C65.436 112.132 63.9658 110.736 62.0762 107.571L39.8442 68.582C38.7041 66.6318 38.145 65.0908 38.145 63.4707C38.145 61.8017 38.6553 60.3096 39.7954 58.3594L62.0762 19.3701C63.9658 16.2056 65.436 14.8247 67.7432 14.8247C69.0266 14.8247 70.051 15.252 71.0268 16.1777Z" fill="#000000" fill-opacity="0.85"/>
  <path d="M91.9868 112.132C94.2939 112.132 95.7642 110.736 97.6538 107.571L119.886 68.582C121.011 66.6318 121.585 65.0908 121.585 63.4707C121.585 61.8017 121.011 60.3096 119.886 58.3594L97.6538 19.3701C95.7642 16.2056 94.2939 14.8247 91.9868 14.8247C89.6797 14.8247 88.2095 16.2056 86.3535 19.3701L64.0727 58.3594C62.9326 60.3096 62.3886 61.8017 62.3886 63.4707C62.3886 65.0908 62.9629 66.6318 64.0879 68.582L86.3535 107.571C88.2095 110.736 89.6797 112.132 91.9868 112.132Z" fill="#000000" fill-opacity="0.85"/>
 </g>
</svg>
