<?xml version="1.0" encoding="UTF-8"?>
<!--Generator: Apple Native CoreSVG 232.5-->
<!DOCTYPE svg
PUBLIC "-//W3C//DTD SVG 1.1//EN"
       "http://www.w3.org/Graphics/SVG/1.1/DTD/svg11.dtd">
<svg version="1.1" xmlns="http://www.w3.org/2000/svg" xmlns:xlink="http://www.w3.org/1999/xlink" width="120.066" height="129.646">
 <g>
  <rect height="129.646" opacity="0" width="120.066" x="0" y="0"/>
  <path d="M114.376 66.1377L114.376 115.372C114.376 124.764 109.54 129.646 100.016 129.646L43.7984 129.646C34.2744 129.646 29.4048 124.843 29.4048 115.372L29.4048 114.061L76.2681 114.061C88.9732 114.061 96.3184 106.64 96.3184 94.0962L96.3184 51.8638L100.016 51.8638C109.54 51.8638 114.376 56.7451 114.376 66.1377Z" fill="#000000" fill-opacity="0.85"/>
  <path d="M51.1782 7.34913L51.1782 30.5884L76.2681 30.5884C85.8257 30.5884 90.6616 35.4546 90.6616 44.8623L90.6616 94.0962C90.6616 103.489 85.8257 108.37 76.2681 108.37L20.0654 108.37C10.5601 108.37 5.65675 103.568 5.65675 94.0962L5.65675 44.8623C5.65675 35.3906 10.5601 30.5884 20.0654 30.5884L45.2007 30.5884L45.2007 7.34913C45.2007 5.76758 46.5835 4.45215 48.1987 4.45215C49.814 4.45215 51.1782 5.76758 51.1782 7.34913ZM45.1704 33.231L45.1704 61.874L45.3877 69.0015L43.0254 66.5044L32.7266 55.8535C32.1792 55.2539 31.3472 54.939 30.6314 54.939C29.065 54.939 27.9331 56.1011 27.9331 57.6001C27.9331 58.417 28.2666 59.0166 28.8325 59.5825L46.0176 76.3784C46.7368 77.1128 47.4004 77.3789 48.1836 77.3789C48.9331 77.3789 49.5816 77.1128 50.3159 76.3784L67.4859 59.5825C68.0518 59.0166 68.3853 58.417 68.3853 57.6001C68.3853 56.1011 67.1558 54.939 65.6382 54.939C64.9224 54.939 64.124 55.2539 63.5918 55.8535L53.2779 66.5044L50.9307 68.9526L51.148 61.874L51.148 33.231C51.148 31.5484 49.9336 30.3862 48.1836 30.3862C46.4336 30.3862 45.1704 31.5484 45.1704 33.231Z" fill="#000000" fill-opacity="0.85"/>
 </g>
</svg>
