<?xml version="1.0" encoding="UTF-8"?>
<!--Generator: Apple Native CoreSVG 232.5-->
<!DOCTYPE svg
PUBLIC "-//W3C//DTD SVG 1.1//EN"
       "http://www.w3.org/Graphics/SVG/1.1/DTD/svg11.dtd">
<svg version="1.1" xmlns="http://www.w3.org/2000/svg" xmlns:xlink="http://www.w3.org/1999/xlink" width="97.9595" height="100.532">
 <g>
  <rect height="100.532" opacity="0" width="97.9595" x="0" y="0"/>
  <path d="M97.9595 51.5601C97.9595 78.3638 75.8247 100.532 48.9722 100.532C22.1685 100.532 0 78.3638 0 51.5601C0 24.7075 22.1348 2.57275 48.9385 2.57275C75.791 2.57275 97.9595 24.7075 97.9595 51.5601ZM54.8657 34.8608L54.8657 39.0796L63.2568 39.0796C65.7871 39.0796 67.0464 40.3657 67.0464 42.8692L67.0464 68.0552C67.0464 70.5435 65.7871 71.833 63.2568 71.833L34.6875 71.833C32.1572 71.833 30.9282 70.6226 30.9282 68.0552L30.9282 42.8692C30.9282 40.3203 32.1572 39.0796 34.6875 39.0796L43.1089 39.0796L43.1089 34.8608L34.6235 34.8608C29.5064 34.8608 26.728 37.5869 26.728 42.7192L26.728 68.1714C26.728 73.2886 29.5064 76.0332 34.6235 76.0332L63.3057 76.0332C68.4414 76.0332 71.2466 73.3223 71.2466 68.1714L71.2466 42.7192C71.2466 37.5381 68.4566 34.8608 63.3057 34.8608ZM47.4834 19.5557L38.7217 28.1338C38.2266 28.5952 38.1104 29.0566 38.1104 29.5552C38.1104 30.6465 38.9356 31.3892 39.9629 31.3892C40.544 31.3892 41.0879 31.2056 41.4971 30.7778L44.6816 27.5293L46.9883 25.1333L46.936 27.5293L46.936 54.21C46.936 55.3501 47.8169 56.2427 48.9722 56.2427C50.1274 56.2427 51.0723 55.3501 51.0723 54.21L51.0723 27.5293L50.9561 25.1333L53.1685 27.5293L56.417 30.8418C56.7622 31.2056 57.2759 31.4194 57.9023 31.4194C59.0879 31.4194 59.8677 30.6465 59.8677 29.5552C59.8677 28.9775 59.6572 28.5464 59.2075 28.1489L50.397 19.5557C49.917 19.0606 49.4522 18.8315 48.957 18.8315C48.4282 18.8315 47.918 19.0757 47.4834 19.5557Z" fill="#000000" fill-opacity="0.85"/>
 </g>
</svg>
