<?xml version="1.0" encoding="UTF-8"?>
<!--Generator: Apple Native CoreSVG 232.5-->
<!DOCTYPE svg
PUBLIC "-//W3C//DTD SVG 1.1//EN"
       "http://www.w3.org/Graphics/SVG/1.1/DTD/svg11.dtd">
<svg version="1.1" xmlns="http://www.w3.org/2000/svg" xmlns:xlink="http://www.w3.org/1999/xlink" width="117.182" height="81.5137">
 <g>
  <rect height="81.5137" opacity="0" width="117.182" x="0" y="0"/>
  <path d="M2.23487 18.4409L16.1724 18.4409C17.582 18.4409 18.4258 17.5483 18.4258 16.1875L18.4258 2.30225C18.4258 0.843751 17.582 0 16.1724 0L2.23487 0C0.877443 0 0 0.911134 0 2.30225L0 16.1875C0 17.481 0.877443 18.4409 2.23487 18.4409ZM2.23487 49.8755L16.1724 49.8755C17.582 49.8755 18.4258 49.0015 18.4258 47.6406L18.4258 33.7705C18.4258 32.2783 17.582 31.4194 16.1724 31.4194L2.23487 31.4194C0.877443 31.4194 0 32.3306 0 33.7705L0 47.6406C0 48.9492 0.877443 49.8755 2.23487 49.8755ZM2.25 81.3101L16.2212 81.3101C17.582 81.3101 18.4561 80.4361 18.4561 79.0752L18.4561 65.2051C18.4561 63.6978 17.582 62.854 16.2212 62.854L2.25 62.854C0.89258 62.854 0.0151366 63.7652 0.0151366 65.2051L0.0151366 79.0752C0.0151366 80.3687 0.89258 81.3101 2.25 81.3101ZM45.6035 79.3677L103.912 79.3677C112.719 79.3677 117.182 74.8936 117.182 66.2515L117.182 15.1982C117.182 6.57129 112.719 2.09716 103.912 2.09716L45.6035 2.09716C36.8638 2.09716 32.3677 6.52588 32.3677 15.1982L32.3677 66.2515C32.3677 74.939 36.8638 79.3677 45.6035 79.3677Z" fill="#000000" fill-opacity="0.85"/>
 </g>
</svg>
