<?xml version="1.0" encoding="UTF-8"?>
<!--Generator: Apple Native CoreSVG 232.5-->
<!DOCTYPE svg
PUBLIC "-//W3C//DTD SVG 1.1//EN"
       "http://www.w3.org/Graphics/SVG/1.1/DTD/svg11.dtd">
<svg version="1.1" xmlns="http://www.w3.org/2000/svg" xmlns:xlink="http://www.w3.org/1999/xlink" width="88.4092" height="88.5371">
 <g>
  <rect height="88.5371" opacity="0" width="88.4092" x="0" y="0"/>
  <path d="M0 25.7241L6.04494 25.7241L6.04494 14.7017C6.04494 9.06349 9.00294 6.17287 14.5064 6.17287L25.4614 6.17287L25.4614 0.127929L14.3936 0.127929C4.86963 0.127929 0 4.93018 0 14.4019ZM31.1519 6.17287L57.2573 6.17287L57.2573 0.127929L31.1519 0.127929ZM82.3643 25.7241L88.4092 25.7241L88.4092 14.4019C88.4092 5.00928 83.5396 0.127929 74.0005 0.127929L62.9478 0.127929L62.9478 6.17287L73.9028 6.17287C79.2969 6.17287 82.3643 9.06349 82.3643 14.7017ZM82.3643 57.2656L88.4092 57.2656L88.4092 31.3994L82.3643 31.3994ZM62.9478 88.5371L74.0005 88.5371C83.5396 88.5371 88.4092 83.6558 88.4092 74.2632L88.4092 62.9409L82.3643 62.9409L82.3643 73.9634C82.3643 79.6016 79.2969 82.4922 73.9028 82.4922L62.9478 82.4922ZM31.1519 88.5371L57.2573 88.5371L57.2573 82.4922L31.1519 82.4922ZM14.3936 88.5371L25.4614 88.5371L25.4614 82.4922L14.5064 82.4922C9.00294 82.4922 6.04494 79.6016 6.04494 73.9634L6.04494 62.9409L0 62.9409L0 74.2632C0 83.7349 4.86963 88.5371 14.3936 88.5371ZM0 57.2656L6.04494 57.2656L6.04494 31.3994L0 31.3994Z" fill="#000000" fill-opacity="0.85"/>
 </g>
</svg>
