<?xml version="1.0" encoding="UTF-8"?>
<!--Generator: Apple Native CoreSVG 232.5-->
<!DOCTYPE svg
PUBLIC "-//W3C//DTD SVG 1.1//EN"
       "http://www.w3.org/Graphics/SVG/1.1/DTD/svg11.dtd">
<svg version="1.1" xmlns="http://www.w3.org/2000/svg" xmlns:xlink="http://www.w3.org/1999/xlink" width="114.35" height="88.4395">
 <g>
  <rect height="88.4395" opacity="0" width="114.35" x="0" y="0"/>
  <path d="M14.3936 88.4092L99.9409 88.4092C109.514 88.4092 114.35 83.5615 114.35 74.169L114.35 14.2739C114.35 4.88135 109.514 0 99.9409 0L14.3936 0C4.86963 0 0 4.83594 0 14.2739L0 74.169C0 83.6069 4.86963 88.4092 14.3936 88.4092ZM14.5064 82.3794C9.00294 82.3794 6.04494 79.4736 6.04494 73.8355L6.04494 14.6074C6.04494 8.96925 9.00294 6.04494 14.5064 6.04494L99.8433 6.04494C105.237 6.04494 108.305 8.96925 108.305 14.6074L108.305 73.8355C108.305 79.4736 105.237 82.3794 99.8433 82.3794Z" fill="#000000" fill-opacity="0.85"/>
  <path d="M20.3462 65.1304L48.5137 65.1304C53.0195 65.1304 55.2842 62.8506 55.2842 58.4609L55.2842 30.1065C55.2842 25.7168 53.0195 23.437 48.5137 23.437L20.3462 23.437C15.874 23.437 13.5757 25.6528 13.5757 30.1065L13.5757 58.4609C13.5757 62.8809 15.874 65.1304 20.3462 65.1304ZM21.3115 60.0659C19.46 60.0659 18.6553 59.2798 18.6553 57.4956L18.6553 31.0718C18.6553 29.2539 19.46 28.5015 21.3115 28.5015L47.5483 28.5015C49.3848 28.5015 50.2046 29.3028 50.2046 31.0718L50.2046 57.4956C50.2046 59.2646 49.3848 60.0659 47.5483 60.0659ZM81.3682 64.7749C84.8599 64.7749 87.793 64.4365 89.5005 63.7461C90.6069 63.3149 91.2554 62.6211 91.2554 61.5937C91.2554 60.5698 90.5396 59.7598 89.4551 59.7598C88.8574 59.7598 88.376 59.9365 87.499 60.0796C86.1553 60.2749 84.6299 60.7246 81.7236 60.7246C71.7363 60.7246 65.3169 54.2852 65.3169 44.2964C65.3169 34.5601 71.9097 27.7349 81.3276 27.7349C90.6968 27.7349 97.0522 33.7485 97.0522 42.5654C97.0522 48.1714 95.4209 51.4258 92.5776 51.4258C90.7041 51.4258 89.8189 50.3672 89.8189 48.27L89.8189 35.7217C89.8189 34.499 88.9414 33.5879 87.7676 33.5879C86.8784 33.5879 86.0044 34.2783 85.8174 35.1792L85.8174 36.0391C84.5884 34.4902 82.686 33.5879 80.2852 33.5879C75.0186 33.5879 71.3413 38.1255 71.3413 44.4326C71.3413 50.9048 75.0186 55.2959 80.3862 55.2959C82.9536 55.2959 85.1289 54.1494 86.5415 52.0215C87.5552 54.1343 89.6816 55.3262 92.2895 55.3262C97.6523 55.3262 101.099 50.3237 101.099 42.3784C101.099 31.4312 92.9468 23.7857 81.3276 23.7857C69.439 23.7857 61.0493 32.2427 61.0493 44.2627C61.0493 56.4526 69.2993 64.7749 81.3682 64.7749ZM80.8613 51.2573C77.7402 51.2573 75.7168 48.606 75.7168 44.3804C75.7168 40.2188 77.7856 37.5254 80.895 37.5254C83.9858 37.5254 85.9185 40.0523 85.9185 44.1733C85.9185 48.5386 83.9707 51.2573 80.8613 51.2573Z" fill="#000000" fill-opacity="0.85"/>
 </g>
</svg>
