<?xml version="1.0" encoding="UTF-8"?>
<!--Generator: Apple Native CoreSVG 232.5-->
<!DOCTYPE svg
PUBLIC "-//W3C//DTD SVG 1.1//EN"
       "http://www.w3.org/Graphics/SVG/1.1/DTD/svg11.dtd">
<svg version="1.1" xmlns="http://www.w3.org/2000/svg" xmlns:xlink="http://www.w3.org/1999/xlink" width="97.9595" height="97.9932">
 <g>
  <rect height="97.9932" opacity="0" width="97.9595" x="0" y="0"/>
  <path d="M48.9722 97.9443C75.8247 97.9443 97.9595 75.7759 97.9595 48.9722C97.9595 22.1348 75.791 0 48.9385 0C22.1348 0 0 22.1348 0 48.9722C0 75.7759 22.1685 97.9443 48.9722 97.9443ZM48.9722 91.6113C25.3501 91.6113 6.36671 72.5942 6.36671 48.9722C6.36671 25.3501 25.3164 6.31789 48.9385 6.31789C72.5605 6.31789 91.6265 25.3501 91.6265 48.9722C91.6265 72.5942 72.5942 91.6113 48.9722 91.6113Z" fill="#000000" fill-opacity="0.85"/>
  <path d="M31.0689 73.5327L66.8906 73.5327C71.2432 73.5327 73.5176 70.9888 73.5176 66.3145L73.5176 31.0015C73.5176 26.7012 71.2432 24.4268 66.8906 24.4268L31.0689 24.4268C27.1055 24.4268 24.4419 27.0903 24.4419 31.0015L24.4419 66.3145C24.4419 70.6148 27.1055 73.5327 31.0689 73.5327ZM33.1123 67.978C31.2759 67.978 29.9966 66.6987 29.9966 64.8286L29.9966 33.1309C29.9966 31.2608 31.2759 29.9815 33.1123 29.9815L64.8472 29.9815C66.6836 29.9815 67.9629 31.2608 67.9629 33.1309L67.9629 64.8286C67.9629 66.6987 66.6836 67.978 64.8472 67.978Z" fill="#000000" fill-opacity="0.85"/>
 </g>
</svg>
