<?xml version="1.0" encoding="UTF-8"?>
<!--Generator: Apple Native CoreSVG 232.5-->
<!DOCTYPE svg
PUBLIC "-//W3C//DTD SVG 1.1//EN"
       "http://www.w3.org/Graphics/SVG/1.1/DTD/svg11.dtd">
<svg version="1.1" xmlns="http://www.w3.org/2000/svg" xmlns:xlink="http://www.w3.org/1999/xlink" width="88.5625" height="88.7227">
 <g>
  <rect height="88.7227" opacity="0" width="88.5625" x="0" y="0"/>
  <path d="M17.1191 7.23292C19.1113 7.23292 20.7432 5.60108 20.7432 3.62403C20.7432 1.63184 19.1113 0 17.1191 0C15.1421 0 13.5103 1.63184 13.5103 3.62403C13.5103 5.60108 15.1421 7.23292 17.1191 7.23292ZM30.6665 7.23292C32.6587 7.23292 34.2905 5.60108 34.2905 3.62403C34.2905 1.63184 32.6587 0 30.6665 0C28.6895 0 27.0576 1.63184 27.0576 3.62403C27.0576 5.60108 28.6895 7.23292 30.6665 7.23292ZM44.2476 7.23292C46.2246 7.23292 47.8716 5.60108 47.8716 3.62403C47.8716 1.63184 46.2246 0 44.2476 0C42.2705 0 40.6387 1.63184 40.6387 3.62403C40.6387 5.60108 42.2705 7.23292 44.2476 7.23292ZM57.8252 7.23292C59.8023 7.23292 61.4341 5.60108 61.4341 3.62403C61.4341 1.63184 59.8023 0 57.8252 0C55.833 0 54.2012 1.63184 54.2012 3.62403C54.2012 5.60108 55.833 7.23292 57.8252 7.23292ZM71.3911 7.23292C73.3833 7.23292 75.0151 5.60108 75.0151 3.62403C75.0151 1.63184 73.3833 0 71.3911 0C69.4141 0 67.7822 1.63184 67.7822 3.62403C67.7822 5.60108 69.4141 7.23292 71.3911 7.23292ZM84.9385 7.23292C86.9307 7.23292 88.5625 5.60108 88.5625 3.62403C88.5625 1.63184 86.9307 0 84.9385 0C82.9614 0 81.3296 1.63184 81.3296 3.62403C81.3296 5.60108 82.9614 7.23292 84.9385 7.23292ZM84.9385 20.7803C86.9307 20.7803 88.5625 19.1484 88.5625 17.1714C88.5625 15.1792 86.9307 13.5474 84.9385 13.5474C82.9614 13.5474 81.3296 15.1792 81.3296 17.1714C81.3296 19.1484 82.9614 20.7803 84.9385 20.7803ZM84.9385 34.3613C86.9307 34.3613 88.5625 32.7295 88.5625 30.7373C88.5625 28.7603 86.9307 27.1284 84.9385 27.1284C82.9614 27.1284 81.3296 28.7603 81.3296 30.7373C81.3296 32.7295 82.9614 34.3613 84.9385 34.3613ZM84.9385 47.939C86.9307 47.939 88.5625 46.292 88.5625 44.3149C88.5625 42.3379 86.9307 40.6909 84.9385 40.6909C82.9614 40.6909 81.3296 42.3379 81.3296 44.3149C81.3296 46.292 82.9614 47.939 84.9385 47.939ZM84.9385 61.5049C86.9307 61.5049 88.5625 59.8731 88.5625 57.896C88.5625 55.9038 86.9307 54.272 84.9385 54.272C82.9614 54.272 81.3296 55.9038 81.3296 57.896C81.3296 59.8731 82.9614 61.5049 84.9385 61.5049ZM84.9385 75.0523C86.9307 75.0523 88.5625 73.4204 88.5625 71.4434C88.5625 69.4512 86.9307 67.8193 84.9385 67.8193C82.9614 67.8193 81.3296 69.4512 81.3296 71.4434C81.3296 73.4204 82.9614 75.0523 84.9385 75.0523ZM3.31592 88.6299L85.5645 88.6299C87.2471 88.6299 88.5625 87.3145 88.5625 85.6318C88.5625 83.9341 87.2471 82.6187 85.5645 82.6187L7.26076 82.6187C6.38673 82.6187 6.01124 82.2432 6.01124 81.3691L6.01124 2.96436C6.01124 1.31543 4.68068 0 2.96436 0C1.31543 0 0 1.31543 0 2.96436L0 85.2988C0 87.3247 1.30518 88.6299 3.31592 88.6299Z" fill="#000000" fill-opacity="0.85"/>
  <path d="M17.1973 68.3105C16.7695 70.1528 18.2817 71.5337 20.124 71.1397L35.8467 67.8193C37.8355 67.4253 38.5747 65.5122 37.2427 64.1802L32.4209 59.3433L59.4595 32.6162L64.229 37.4531C65.6099 38.7852 67.6206 38.0459 68.0147 36.0571L71.3838 20.2857C71.8115 18.4619 70.2656 17.0625 68.4082 17.4566L52.7344 20.7769C50.7119 21.1709 50.0063 23.084 51.3384 24.416L56.1602 29.2529L29.0879 55.98L24.3369 51.1431C22.9712 49.811 20.9605 50.584 20.5664 52.5391Z" fill="#000000" fill-opacity="0.85"/>
 </g>
</svg>
