<?xml version="1.0" encoding="UTF-8"?>
<!--Generator: Apple Native CoreSVG 232.5-->
<!DOCTYPE svg
PUBLIC "-//W3C//DTD SVG 1.1//EN"
       "http://www.w3.org/Graphics/SVG/1.1/DTD/svg11.dtd">
<svg version="1.1" xmlns="http://www.w3.org/2000/svg" xmlns:xlink="http://www.w3.org/1999/xlink" width="97.9595" height="97.9932">
 <g>
  <rect height="97.9932" opacity="0" width="97.9595" x="0" y="0"/>
  <path d="M48.9722 97.9443C75.8247 97.9443 97.9595 75.7759 97.9595 48.9722C97.9595 22.1348 75.791 0 48.9385 0C22.1348 0 0 22.1348 0 48.9722C0 75.7759 22.1685 97.9443 48.9722 97.9443ZM48.9722 91.6113C25.3501 91.6113 6.36671 72.5942 6.36671 48.9722C6.36671 25.3501 25.3164 6.31789 48.9385 6.31789C72.5605 6.31789 91.6265 25.3501 91.6265 48.9722C91.6265 72.5942 72.5942 91.6113 48.9722 91.6113Z" fill="#000000" fill-opacity="0.85"/>
  <path d="M33.7432 72.2144L62.9556 72.2144C67.5523 72.2144 70.3843 69.4312 70.3843 64.3477L70.3843 37.6821L66.2178 41.8823L66.2178 64.1943C66.2178 66.6675 64.8374 68.0142 62.9067 68.0142L33.792 68.0142C31.3897 68.0142 30.0093 66.6675 30.0093 64.1943L30.0093 35.6406C30.0093 33.1372 31.3897 31.7568 33.792 31.7568L56.2944 31.7568L60.4946 27.5566L33.7432 27.5566C28.6411 27.5566 25.8091 30.4224 25.8091 35.4907L25.8091 64.3477C25.8091 69.4312 28.6411 72.2144 33.7432 72.2144ZM43.8193 55.4839L48.1909 53.5693L71.0117 30.7334L67.2935 27.1128L44.5366 49.9185L42.457 54.103C42.0327 54.9888 42.9824 55.8257 43.8193 55.4839ZM72.9902 28.7549L74.9048 26.7022C75.9336 25.6397 75.8091 24.3262 75.0479 23.5313L74.5039 23.0547C73.6636 22.1807 72.2827 22.1724 71.2236 23.1826L69.3057 25.0669Z" fill="#000000" fill-opacity="0.85"/>
 </g>
</svg>
