<?xml version="1.0" encoding="UTF-8"?>
<!--Generator: Apple Native CoreSVG 232.5-->
<!DOCTYPE svg
PUBLIC "-//W3C//DTD SVG 1.1//EN"
       "http://www.w3.org/Graphics/SVG/1.1/DTD/svg11.dtd">
<svg version="1.1" xmlns="http://www.w3.org/2000/svg" xmlns:xlink="http://www.w3.org/1999/xlink" width="124.698" height="132.081">
 <g>
  <rect height="132.081" opacity="0" width="124.698" x="0" y="0"/>
  <path d="M60.2388 112.432C60.978 112.826 61.6753 113.074 62.332 113.074C63.0225 113.074 63.7197 112.826 64.459 112.432L109.573 86.3198C110.533 87.3254 110.963 88.3819 110.963 89.6929C110.963 91.9512 109.631 93.4702 106.433 95.3262L67.4771 117.873C65.4932 119.013 64.0195 119.587 62.332 119.587C60.6782 119.587 59.1709 119.013 57.2207 117.873L18.2651 95.3262C15.0669 93.4702 13.7197 91.9512 13.7197 89.6929C13.7197 88.3809 14.1553 87.3238 15.1209 86.3176Z" fill="#000000" fill-opacity="0.85"/>
  <path d="M60.2388 89.3926C60.978 89.7866 61.6753 90.0493 62.332 90.0493C63.0225 90.0493 63.7197 89.7866 64.459 89.3926L109.56 63.2878C110.529 64.2926 110.963 65.3367 110.963 66.6533C110.963 68.9604 109.631 70.4307 106.433 72.2866L67.4771 94.8818C65.4932 96.0068 64.0195 96.581 62.332 96.581C60.6782 96.581 59.1709 96.0068 57.2207 94.8818L18.2651 72.2866C15.0669 70.4307 13.7197 68.9604 13.7197 66.6533C13.7197 65.3357 14.1591 64.2911 15.1339 63.2856Z" fill="#000000" fill-opacity="0.85"/>
  <path d="M18.2651 48.3647L57.2207 70.9263C59.1709 72.0513 60.6782 72.6255 62.332 72.6255C64.0195 72.6255 65.4932 72.0513 67.4771 70.9263L106.433 48.3647C109.631 46.5088 110.963 45.0049 110.963 42.6977C110.963 40.4243 109.631 38.9204 106.433 37.0644L67.4771 14.5029C65.4932 13.3779 64.0195 12.8037 62.332 12.8037C60.6782 12.8037 59.1709 13.3779 57.2207 14.5029L18.2651 37.0644C15.0669 38.9204 13.7197 40.4243 13.7197 42.6977C13.7197 45.0049 15.0669 46.5088 18.2651 48.3647ZM22.0264 43.4585C21.2354 43.0478 21.2354 42.3813 22.0264 41.9556L60.4258 19.9248C61.165 19.5308 61.709 19.3018 62.332 19.3018C62.9888 19.3018 63.5327 19.5308 64.272 19.9248L102.671 41.9556C103.462 42.3813 103.462 43.0478 102.671 43.4585L64.272 65.5044C63.5327 65.8984 63.0225 66.1274 62.332 66.1274C61.6753 66.1274 61.165 65.8984 60.4258 65.5044Z" fill="#000000" fill-opacity="0.85"/>
 </g>
</svg>
