<?xml version="1.0" encoding="UTF-8"?>
<!--Generator: Apple Native CoreSVG 232.5-->
<!DOCTYPE svg
PUBLIC "-//W3C//DTD SVG 1.1//EN"
       "http://www.w3.org/Graphics/SVG/1.1/DTD/svg11.dtd">
<svg version="1.1" xmlns="http://www.w3.org/2000/svg" xmlns:xlink="http://www.w3.org/1999/xlink" width="114.605" height="111.227">
 <g>
  <rect height="111.227" opacity="0" width="114.605" x="0" y="0"/>
  <path d="M22.3309 27.9513L18.0846 30.4094C16.6583 31.2614 16.1446 31.8845 16.1446 33.7116L16.1446 78.1198C16.1446 78.8049 16.5587 79.1027 17.2892 78.7072L29.6964 71.5471L29.6964 78.7341L19.8775 84.4055C14.3282 87.6037 10.0323 85.5422 10.0323 78.7165L10.0323 33.5095C10.0323 29.2941 11.3443 27.0793 15.0577 24.9338L17.7523 23.3753ZM63.8653 6.95135L63.8653 19.7251L57.7681 23.2471L57.7681 8.94061C57.7681 8.13446 57.1388 7.7995 56.4537 8.19842L36.5662 19.7108L31.9931 15.1394L54.5929 2.06901C58.9273-0.392902 63.8653 1.39518 63.8653 6.95135Z" fill="#000000" fill-opacity="0.85"/>
  <path d="M36.9491 42.5613C36.1073 43.2054 35.7935 43.8993 35.7935 45.3659L35.7935 89.7741C35.7935 90.4591 36.2227 90.7419 36.9195 90.3464L50.7056 82.3928L50.7056 89.6246L39.5416 96.0783C33.9923 99.258 29.6964 97.1965 29.6964 90.3893L29.6964 45.1638C29.6964 41.9465 30.473 39.8845 32.5055 38.1202ZM83.5294 18.6056L83.5294 32.825L77.4322 36.3499L77.4322 20.5798C77.4322 19.8073 76.8028 19.4538 76.1178 19.8527L51.1489 34.2882L46.573 29.714L74.2232 13.7419C78.5577 11.2463 83.5294 13.0832 83.5294 18.6056Z" fill="#000000" fill-opacity="0.85"/>
  <path d="M56.8028 62.4039L56.8028 102.072C56.8028 102.757 57.232 103.073 57.9625 102.678L82.7622 88.3487L87.3118 92.8958L60.5509 108.376C55.0015 111.59 50.7056 109.494 50.7056 102.687L50.7056 57.4616C50.7056 57.0724 50.7169 56.7003 50.7445 56.349ZM104.539 30.8884L104.539 77.1681C104.539 80.6235 103.848 82.6891 101.444 84.5654L96.9868 80.1096C98.1261 79.3533 98.4415 78.6588 98.4415 77.0671L98.4415 32.8776C98.4415 32.1052 97.8121 31.7702 97.1607 32.1506L66.654 49.7877L62.0862 45.2217L95.2662 26.0397C99.6007 23.5778 104.539 25.381 104.539 30.8884Z" fill="#000000" fill-opacity="0.85"/>
  <path d="M104.589 103.062C105.754 104.194 107.587 104.194 108.715 103.062C109.878 101.93 109.896 100.068 108.715 98.9357L15.6441 5.88297C14.5274 4.7814 12.6949 4.73599 11.484 5.88297C10.3858 6.99625 10.3858 8.9113 11.484 10.0246Z" fill="#000000" fill-opacity="0.85"/>
 </g>
</svg>
