<?xml version="1.0" encoding="UTF-8"?>
<!--Generator: Apple Native CoreSVG 232.5-->
<!DOCTYPE svg
PUBLIC "-//W3C//DTD SVG 1.1//EN"
       "http://www.w3.org/Graphics/SVG/1.1/DTD/svg11.dtd">
<svg version="1.1" xmlns="http://www.w3.org/2000/svg" xmlns:xlink="http://www.w3.org/1999/xlink" width="95.5703" height="92.6924">
 <g>
  <rect height="92.6924" opacity="0" width="95.5703" x="0" y="0"/>
  <path d="M76.2715 92.6787L87.8345 92.6787C92.748 92.6787 95.5703 89.9775 95.5703 84.8081L95.5703 73.4995C95.5703 68.3301 92.748 65.6289 87.8345 65.6289L76.2715 65.6289C71.3579 65.6289 68.5356 68.3301 68.5356 73.4995L68.5356 84.8081C68.5356 89.9775 71.3579 92.6787 76.2715 92.6787Z" fill="#000000" fill-opacity="0.85"/>
  <path d="M41.9624 92.6787L53.5742 92.6787C58.4878 92.6787 61.2764 89.9775 61.2764 84.8081L61.2764 73.4995C61.2764 68.3301 58.4878 65.6289 53.5742 65.6289L41.9624 65.6289C37.064 65.6289 34.2603 68.3301 34.2603 73.4995L34.2603 84.8081C34.2603 89.9775 37.064 92.6787 41.9624 92.6787Z" fill="#000000" fill-opacity="0.85"/>
  <path d="M7.73585 92.6787L19.314 92.6787C24.2124 92.6787 27.0498 89.9775 27.0498 84.8081L27.0498 73.4995C27.0498 68.3301 24.2124 65.6289 19.314 65.6289L7.73585 65.6289C2.82227 65.6289 0 68.3301 0 73.4995L0 84.8081C0 89.9775 2.82227 92.6787 7.73585 92.6787Z" fill="#000000" fill-opacity="0.85"/>
  <path d="M76.2715 59.8643L87.8345 59.8643C92.748 59.8643 95.5703 57.1968 95.5703 52.0273L95.5703 40.6851C95.5703 35.5156 92.748 32.8145 87.8345 32.8145L76.2715 32.8145C71.3579 32.8145 68.5356 35.5156 68.5356 40.6851L68.5356 52.0273C68.5356 57.1968 71.3579 59.8643 76.2715 59.8643Z" fill="#000000" fill-opacity="0.85"/>
  <path d="M41.9624 59.8643L53.5742 59.8643C58.4878 59.8643 61.2764 57.1968 61.2764 52.0273L61.2764 40.6851C61.2764 35.5156 58.4878 32.8145 53.5742 32.8145L41.9624 32.8145C37.064 32.8145 34.2603 35.5156 34.2603 40.6851L34.2603 52.0273C34.2603 57.1968 37.064 59.8643 41.9624 59.8643Z" fill="#000000" fill-opacity="0.85"/>
  <path d="M7.73585 59.8643L19.314 59.8643C24.2124 59.8643 27.0498 57.1968 27.0498 52.0273L27.0498 40.6851C27.0498 35.5156 24.2124 32.8145 19.314 32.8145L7.73585 32.8145C2.82227 32.8145 0 35.5156 0 40.6851L0 52.0273C0 57.1968 2.82227 59.8643 7.73585 59.8643Z" fill="#000000" fill-opacity="0.85"/>
  <path d="M76.2715 27.0347L87.8345 27.0347C92.748 27.0347 95.5703 24.3486 95.5703 19.1792L95.5703 7.85547C95.5703 2.70118 92.748 0 87.8345 0L76.2715 0C71.3579 0 68.5356 2.70118 68.5356 7.85547L68.5356 19.1792C68.5356 24.3486 71.3579 27.0347 76.2715 27.0347Z" fill="#000000" fill-opacity="0.85"/>
  <path d="M41.9624 27.0347L53.5742 27.0347C58.4878 27.0347 61.2764 24.3486 61.2764 19.1792L61.2764 7.85547C61.2764 2.70118 58.4878 0 53.5742 0L41.9624 0C37.064 0 34.2603 2.70118 34.2603 7.85547L34.2603 19.1792C34.2603 24.3486 37.064 27.0347 41.9624 27.0347Z" fill="#000000" fill-opacity="0.85"/>
  <path d="M7.73585 27.0347L19.314 27.0347C24.2124 27.0347 27.0498 24.3486 27.0498 19.1792L27.0498 7.85547C27.0498 2.70118 24.2124 0 19.314 0L7.73585 0C2.82227 0 0 2.70118 0 7.85547L0 19.1792C0 24.3486 2.82227 27.0347 7.73585 27.0347Z" fill="#000000" fill-opacity="0.85"/>
 </g>
</svg>
