<?xml version="1.0" encoding="UTF-8"?>
<!--Generator: Apple Native CoreSVG 232.5-->
<!DOCTYPE svg
PUBLIC "-//W3C//DTD SVG 1.1//EN"
       "http://www.w3.org/Graphics/SVG/1.1/DTD/svg11.dtd">
<svg version="1.1" xmlns="http://www.w3.org/2000/svg" xmlns:xlink="http://www.w3.org/1999/xlink" width="109.896" height="84.1856">
 <g>
  <rect height="84.1856" opacity="0" width="109.896" x="0" y="0"/>
  <path d="M13.9072 60.1895L95.9883 60.1895C105.293 60.1895 109.896 55.6514 109.896 46.4321L109.896 13.7573C109.896 4.5044 105.293 0 95.9883 0L13.9072 0C4.63575 0 0 4.5044 0 13.7573L0 46.4321C0 55.6514 4.63575 60.1895 13.9072 60.1895ZM13.9595 54.1899C8.64455 54.1899 6.04494 51.6274 6.04494 46.1777L6.04494 14.0117C6.04494 8.56203 8.64455 5.96583 13.9595 5.96583L95.9209 5.96583C101.251 5.96583 103.851 8.56203 103.851 14.0117L103.851 46.1777C103.851 51.6274 101.251 54.1899 95.9209 54.1899Z" fill="#000000" fill-opacity="0.85"/>
  <path d="M4.14112 83.9615L14.5952 83.9615C15.8145 83.9615 16.7407 83.0689 16.7407 81.8799L16.7407 71.4932C16.7407 70.1914 15.8482 69.314 14.5952 69.314L4.14112 69.314C2.80567 69.314 1.94678 70.1914 1.94678 71.4932L1.94678 81.8799C1.94678 83.0689 2.83936 83.9615 4.14112 83.9615ZM26.9478 83.9615L37.417 83.9615C38.6211 83.9615 39.5474 83.0689 39.5474 81.8799L39.5474 71.4932C39.5474 70.1914 38.6548 69.314 37.417 69.314L26.9478 69.314C25.6123 69.314 24.7534 70.1914 24.7534 71.4932L24.7534 81.8799C24.7534 83.0689 25.646 83.9615 26.9478 83.9615ZM49.7544 83.9615L60.2236 83.9615C61.4277 83.9615 62.3692 83.0689 62.3692 81.8799L62.3692 71.4932C62.3692 70.1914 61.4614 69.314 60.2236 69.314L49.7544 69.314C48.4341 69.314 47.5601 70.1914 47.5601 71.4932L47.5601 81.8799C47.5601 83.0689 48.4526 83.9615 49.7544 83.9615ZM72.5611 83.9615L83.0303 83.9615C84.2344 83.9615 85.1758 83.0689 85.1758 81.8799L85.1758 71.4932C85.1758 70.1914 84.2681 69.314 83.0303 69.314L72.5611 69.314C71.2407 69.314 70.3667 70.1914 70.3667 71.4932L70.3667 81.8799C70.3667 83.0689 71.2744 83.9615 72.5611 83.9615ZM95.3828 83.9615L105.837 83.9615C107.056 83.9615 107.982 83.0689 107.982 81.8799L107.982 71.4932C107.982 70.1914 107.09 69.314 105.837 69.314L95.3828 69.314C94.0474 69.314 93.1885 70.1914 93.1885 71.4932L93.1885 81.8799C93.1885 83.0689 94.0811 83.9615 95.3828 83.9615Z" fill="#000000" fill-opacity="0.85"/>
 </g>
</svg>
