<?xml version="1.0" encoding="UTF-8"?>
<!--Generator: Apple Native CoreSVG 232.5-->
<!DOCTYPE svg
PUBLIC "-//W3C//DTD SVG 1.1//EN"
       "http://www.w3.org/Graphics/SVG/1.1/DTD/svg11.dtd">
<svg version="1.1" xmlns="http://www.w3.org/2000/svg" xmlns:xlink="http://www.w3.org/1999/xlink" width="124.698" height="132.081">
 <g>
  <rect height="132.081" opacity="0" width="124.698" x="0" y="0"/>
  <path d="M60.2388 112.432C60.978 112.826 61.6753 113.074 62.332 113.074C63.0225 113.074 63.7197 112.826 64.459 112.432L82.8455 101.79L87.4003 106.342L67.4771 117.873C65.4932 119.013 64.0195 119.587 62.332 119.587C60.6782 119.587 59.1709 119.013 57.2207 117.873L18.2651 95.3262C15.0669 93.4702 13.7197 91.9512 13.7197 89.6929C13.7197 88.3809 14.1553 87.3238 15.1209 86.3176ZM110.963 89.6929C110.963 91.9512 109.631 93.4702 106.433 95.3262L101.643 98.0983L97.0892 93.5455L109.573 86.3198C110.533 87.3254 110.963 88.3819 110.963 89.6929Z" fill="#000000" fill-opacity="0.85"/>
  <path d="M60.2388 89.3926C60.978 89.7866 61.6753 90.0493 62.332 90.0493C63.0225 90.0493 63.7197 89.7866 64.459 89.3926L68.246 87.2006L72.8272 91.7786L67.4771 94.8818C65.4932 96.0068 64.0195 96.581 62.332 96.581C60.6782 96.581 59.1709 96.0068 57.2207 94.8818L18.2651 72.2866C15.0669 70.4307 13.7197 68.9604 13.7197 66.6533C13.7197 65.3357 14.1591 64.2911 15.1339 63.2856ZM110.963 66.6533C110.963 68.9604 109.631 70.4307 106.433 72.2866L87.0632 83.5214L82.4944 78.9535L109.56 63.2878C110.529 64.2926 110.963 65.3367 110.963 66.6533Z" fill="#000000" fill-opacity="0.85"/>
  <path d="M67.4771 14.5029L106.433 37.0644C109.631 38.9204 110.963 40.4243 110.963 42.6977C110.963 45.0049 109.631 46.5088 106.433 48.3647L71.9022 68.3634L67.3025 63.7645L102.671 43.4585C103.462 43.0478 103.462 42.3813 102.671 41.9556L64.272 19.9248C63.5327 19.5308 62.9888 19.3018 62.332 19.3018C61.709 19.3018 61.165 19.5308 60.4258 19.9248L36.9345 33.4024L32.4059 28.8747L57.2207 14.5029C59.1709 13.3779 60.6782 12.8037 62.332 12.8037C64.0195 12.8037 65.4932 13.3779 67.4771 14.5029ZM22.6254 41.6119L22.0264 41.9556C21.2354 42.3813 21.2354 43.0478 22.0264 43.4585L27.7773 46.7602L44.7088 63.6799L18.2651 48.3647C15.0669 46.5088 13.7197 45.0049 13.7197 42.6977C13.7197 40.4536 15.0323 38.9593 18.1458 37.1355Z" fill="#000000" fill-opacity="0.85"/>
  <path d="M106.05 117.893C107.148 118.991 109.078 119.024 110.176 117.893C111.338 116.697 111.308 114.898 110.176 113.751L13.8057 17.414C12.689 16.2973 10.8413 16.2671 9.64549 17.414C8.53221 18.5273 8.53221 20.4424 9.64549 21.5405Z" fill="#000000" fill-opacity="0.85"/>
 </g>
</svg>
