<?xml version="1.0" encoding="UTF-8"?>
<!--Generator: Apple Native CoreSVG 232.5-->
<!DOCTYPE svg
PUBLIC "-//W3C//DTD SVG 1.1//EN"
       "http://www.w3.org/Graphics/SVG/1.1/DTD/svg11.dtd">
<svg version="1.1" xmlns="http://www.w3.org/2000/svg" xmlns:xlink="http://www.w3.org/1999/xlink" width="88.4092" height="91.0645">
 <g>
  <rect height="91.0645" opacity="0" width="88.4092" x="0" y="0"/>
  <path d="M0 74.0005C0 83.5733 4.88135 88.4092 14.2739 88.4092L74.1353 88.4092C83.5278 88.4092 88.4092 83.5733 88.4092 74.0005L88.4092 14.4087C88.4092 4.86963 83.6069 0 74.1353 0L14.2739 0C4.80225 0 0 4.86963 0 14.4087ZM6.04494 73.9028L6.04494 44.2139L82.3643 44.2139L82.3643 73.9028C82.3643 79.2969 79.4736 82.3643 73.8355 82.3643L14.5737 82.3643C8.93556 82.3643 6.04494 79.2969 6.04494 73.9028Z" fill="#000000" fill-opacity="0.85"/>
 </g>
</svg>
