<?xml version="1.0" encoding="UTF-8"?>
<!--Generator: Apple Native CoreSVG 232.5-->
<!DOCTYPE svg
PUBLIC "-//W3C//DTD SVG 1.1//EN"
       "http://www.w3.org/Graphics/SVG/1.1/DTD/svg11.dtd">
<svg version="1.1" xmlns="http://www.w3.org/2000/svg" xmlns:xlink="http://www.w3.org/1999/xlink" width="120.066" height="130.039">
 <g>
  <rect height="130.039" opacity="0" width="120.066" x="0" y="0"/>
  <path d="M114.376 66.3345L114.376 115.568C114.376 124.961 109.54 129.842 100.016 129.842L43.7984 129.842C34.2744 129.842 29.4048 125.04 29.4048 115.568L29.4048 114.257L76.2681 114.257C88.9732 114.257 96.3184 106.836 96.3184 94.293L96.3184 52.0606L100.016 52.0606C109.54 52.0606 114.376 56.9419 114.376 66.3345Z" fill="#000000" fill-opacity="0.85"/>
  <path d="M20.0654 108.567L76.2681 108.567C85.8257 108.567 90.6616 103.686 90.6616 94.293L90.6616 45.0591C90.6616 35.6514 85.8257 30.7852 76.2681 30.7852L51.7915 30.7852L51.7915 68.3525C51.7915 70.2896 50.1543 71.9268 48.1836 71.9268C46.2129 71.9268 44.5269 70.2896 44.5269 68.3525L44.5269 30.7852L20.0654 30.7852C10.5601 30.7852 5.65675 35.5874 5.65675 45.0591L5.65675 94.293C5.65675 103.765 10.5601 108.567 20.0654 108.567Z" fill="#000000" fill-opacity="0.85"/>
  <path d="M48.1987 33.7158C49.814 33.7158 51.1782 32.4004 51.1782 30.8189L51.1782 15.4712L50.961 8.40773L55.3257 12.8887L63.6069 21.4917C64.1392 22.0913 64.9526 22.4063 65.6685 22.4063C67.2046 22.4063 68.4004 21.293 68.4004 19.7603C68.4004 18.9434 68.1006 18.3437 67.5347 17.7627L50.3648 0.966799C49.6455 0.247559 48.9483 0 48.1987 0C47.4155 0 46.7671 0.247559 46.0327 0.966799L28.8477 17.7627C28.2818 18.3437 27.9483 18.9434 27.9483 19.7603C27.9483 21.293 29.0801 22.4063 30.6465 22.4063C31.396 22.4063 32.2095 22.0913 32.7417 21.4917L41.0567 12.8887L45.4517 8.37746L45.2007 15.4712L45.2007 30.8189C45.2007 32.4004 46.5835 33.7158 48.1987 33.7158Z" fill="#000000" fill-opacity="0.85"/>
 </g>
</svg>
