<?xml version="1.0" encoding="UTF-8"?>
<!--Generator: Apple Native CoreSVG 232.5-->
<!DOCTYPE svg
PUBLIC "-//W3C//DTD SVG 1.1//EN"
       "http://www.w3.org/Graphics/SVG/1.1/DTD/svg11.dtd">
<svg version="1.1" xmlns="http://www.w3.org/2000/svg" xmlns:xlink="http://www.w3.org/1999/xlink" width="106.649" height="106.627">
 <g>
  <rect height="106.627" opacity="0" width="106.649" x="0" y="0"/>
  <path d="M15.1815 26.4296L15.1815 83.0084C15.1815 88.6466 18.1395 91.5372 23.643 91.5372L80.3024 91.5372L86.1561 97.3897C85.2146 97.5209 84.2051 97.5821 83.1371 97.5821L23.5116 97.5821C14.0062 97.5821 9.13661 92.7799 9.13661 83.3082L9.13661 23.4469C9.13661 22.4288 9.19286 21.4647 9.31654 20.5658ZM97.5458 23.4469L97.5458 83.3082C97.5458 84.3119 97.4902 85.2642 97.3675 86.1534L91.5009 80.2849L91.5009 23.7467C91.5009 18.1085 88.3998 15.2179 83.0058 15.2179L26.4556 15.2179L20.5929 9.3532C21.504 9.22944 22.4805 9.17293 23.5116 9.17293L83.1371 9.17293C92.6762 9.17293 97.5458 14.0543 97.5458 23.4469Z" fill="#000000" fill-opacity="0.85"/>
  <path d="M96.6439 100.739C97.7758 101.871 99.6571 101.871 100.77 100.739C101.948 99.5772 101.902 97.7447 100.77 96.6129L10.0687 5.92977C8.95204 4.81306 7.08583 4.73396 5.90858 5.92977C4.77674 7.02791 4.77674 8.90927 5.90858 10.0562Z" fill="#000000" fill-opacity="0.85"/>
 </g>
</svg>
