<?xml version="1.0" encoding="UTF-8"?>
<!--Generator: Apple Native CoreSVG 232.5-->
<!DOCTYPE svg
PUBLIC "-//W3C//DTD SVG 1.1//EN"
       "http://www.w3.org/Graphics/SVG/1.1/DTD/svg11.dtd">
<svg version="1.1" xmlns="http://www.w3.org/2000/svg" xmlns:xlink="http://www.w3.org/1999/xlink" width="92.2266" height="92.3125">
 <g>
  <rect height="92.3125" opacity="0" width="92.2266" x="0" y="0"/>
  <path d="M2.98292 92.2603C4.68068 92.2603 6.04494 90.8926 6.04494 89.2437L6.04494 71.8501L24.1792 71.8501C26.3569 71.8501 27.9688 70.2686 27.9688 68.106L27.9688 49.9263L46.1182 49.9263C48.2808 49.9263 49.9263 48.3296 49.9263 46.1821L49.9263 28.0025L68.042 28.0025C70.2534 28.0025 71.8501 26.4058 71.8501 24.2583L71.8501 6.0298L89.1646 6.0298C90.8775 6.0298 92.2266 4.71095 92.2266 3.04688C92.2266 1.38282 90.8775 0 89.1646 0L69.5645 0C67.4019 0 65.8203 1.63037 65.8203 3.80811L65.8203 21.9575L47.6255 21.9575C45.478 21.9575 43.8965 23.5693 43.8965 25.7471L43.8965 43.8813L25.668 43.8813C23.5205 43.8813 21.9238 45.4932 21.9238 47.7046L21.9238 65.8203L3.74415 65.8203C1.58155 65.8203 0 67.4507 0 69.6284L0 89.2437C0 90.8926 1.33399 92.2603 2.98292 92.2603Z" fill="#000000" fill-opacity="0.85"/>
 </g>
</svg>
