<?xml version="1.0" encoding="UTF-8"?>
<!--Generator: Apple Native CoreSVG 232.5-->
<!DOCTYPE svg
PUBLIC "-//W3C//DTD SVG 1.1//EN"
       "http://www.w3.org/Graphics/SVG/1.1/DTD/svg11.dtd">
<svg version="1.1" xmlns="http://www.w3.org/2000/svg" xmlns:xlink="http://www.w3.org/1999/xlink" width="106.404" height="108.325">
 <g>
  <rect height="108.325" opacity="0" width="106.404" x="0" y="0"/>
  <path d="M26.1369 35.744L31.7904 41.384L9.15108 41.0933C8.8127 41.0933 8.66964 41.0933 8.60567 41.2549C8.55685 41.4165 8.65108 41.5444 8.94063 41.7212L34.468 59.6382C35.9348 60.6436 36.2951 61.9756 35.7175 63.5923L25.6525 93.1265C25.5886 93.48 25.5095 93.5742 25.6374 93.6719C25.7653 93.8184 25.927 93.7056 26.1828 93.5288L51.092 74.7915C52.4426 73.7524 53.9616 73.7524 55.3122 74.7915L80.2214 93.5288C80.4772 93.7056 80.6389 93.8184 80.7668 93.6719C80.8947 93.5742 80.8156 93.48 80.7516 93.1265L79.2549 88.7343L87.5225 96.9821C87.6843 98.7381 87.1444 100.005 85.9816 100.873C84.3395 102.117 82.3337 101.762 79.8058 99.9277L53.1852 80.419L26.5983 99.9277C24.0705 101.762 22.0309 102.117 20.4225 100.873C18.799 99.6616 18.3898 97.6709 19.3986 94.6665L29.8005 63.4024L3.01484 44.1074C0.486999 42.3071-0.449527 40.4546 0.198912 38.5127C0.81366 36.623 2.63935 35.6177 5.79365 35.6514ZM57.6701 4.43604L67.7048 35.8013L100.611 35.6514C103.765 35.6177 105.591 36.623 106.205 38.5127C106.82 40.4546 105.917 42.3071 103.389 44.1074L76.6037 63.4024L76.7166 63.7417L72.3273 59.3637L97.4636 41.7212C97.7194 41.5444 97.8473 41.4165 97.7985 41.2549C97.7345 41.0933 97.5915 41.0933 97.2531 41.0933L66.0319 41.4942C64.3327 41.5278 63.2448 40.7886 62.7009 39.0894L53.5236 9.30422C53.4597 8.96584 53.3469 8.80764 53.1852 8.80764C53.0573 8.80764 52.9445 8.96584 52.8806 9.30422L45.6537 32.7594L41.1194 28.237L48.7341 4.43604C49.7243 1.41309 51.1794 0 53.1852 0C55.2248 0 56.6799 1.41309 57.6701 4.43604Z" fill="#000000" fill-opacity="0.85"/>
  <path d="M95.485 97.8311C96.632 98.978 98.5134 98.978 99.6115 97.8311C100.74 96.6504 100.758 94.8364 99.6115 93.7046L21.8151 16.0767C20.7136 14.9599 18.8171 14.8808 17.655 16.0767C16.5568 17.1748 16.5568 19.0562 17.655 20.2031Z" fill="#000000" fill-opacity="0.85"/>
 </g>
</svg>
