<?xml version="1.0" encoding="UTF-8"?>
<!--Generator: Apple Native CoreSVG 232.5-->
<!DOCTYPE svg
PUBLIC "-//W3C//DTD SVG 1.1//EN"
       "http://www.w3.org/Graphics/SVG/1.1/DTD/svg11.dtd">
<svg version="1.1" xmlns="http://www.w3.org/2000/svg" xmlns:xlink="http://www.w3.org/1999/xlink" width="78.3692" height="97.9785">
 <g>
  <rect height="97.9785" opacity="0" width="78.3692" x="0" y="0"/>
  <path d="M43.0405 2.59082C49.9458 4.9829 65.1045 10.6699 72.0132 13.3921C76.5083 15.207 78.3692 16.8789 78.3692 22.0444L78.3692 58.8003C78.3692 75.4214 69.7515 81.834 42.3921 96.9902C41.3076 97.5645 40.0718 97.9785 39.1846 97.9785C38.2822 97.9785 37.0952 97.5982 35.9771 96.9902C9.01514 81.1553 0 75.4214 0 58.8003L0 22.0444C0 16.8789 1.89453 15.1431 6.35596 13.3921C13.2495 10.6885 28.4536 5.00634 35.3472 2.59082C36.6167 2.18506 37.8779 1.89209 39.1846 1.89209C40.4912 1.89209 41.7524 2.15136 43.0405 2.59082ZM39.0566 21.9619C35.8286 21.9619 34.8232 22.9336 34.8232 25.9966L34.8232 40.293L22.4834 33.1675C19.6157 31.4668 18.2803 31.7817 16.8237 34.71L16.6284 35.0854C15.2021 37.9194 15.5474 39.2363 18.2012 40.6289L31.0176 47.5894L18.1523 55.0532C15.4834 56.562 15.1382 57.8452 16.7109 60.6943L16.8237 60.9082C18.3813 63.7876 19.7017 64.1328 22.416 62.4658L34.8232 55.3252L34.8232 69.6367C34.8232 72.7485 35.8286 73.7202 39.0566 73.7202L39.4136 73.7202C42.6079 73.7202 43.6284 72.7485 43.6284 69.6367L43.6284 55.3252L56.002 62.4658C58.8359 64.2002 60.1377 63.8213 61.5943 60.9082L61.7256 60.6943C63.1485 57.8115 62.8369 56.5249 60.2993 55.0532L47.4341 47.5894L60.2017 40.6289C62.8706 39.2061 63.2158 37.8892 61.7744 35.0854L61.5943 34.71C60.1865 31.7935 58.8511 31.4145 55.9346 33.1675L43.6284 40.293L43.6284 25.9966C43.6284 22.9336 42.6079 21.9619 39.4136 21.9619Z" fill="#000000" fill-opacity="0.85"/>
 </g>
</svg>
