<?xml version="1.0" encoding="UTF-8"?>
<!--Generator: Apple Native CoreSVG 232.5-->
<!DOCTYPE svg
PUBLIC "-//W3C//DTD SVG 1.1//EN"
       "http://www.w3.org/Graphics/SVG/1.1/DTD/svg11.dtd">
<svg version="1.1" xmlns="http://www.w3.org/2000/svg" xmlns:xlink="http://www.w3.org/1999/xlink" width="97.9595" height="97.9932">
 <g>
  <rect height="97.9932" opacity="0" width="97.9595" x="0" y="0"/>
  <path d="M97.9595 49.021C97.9595 75.8584 75.8247 97.9932 48.9722 97.9932C22.1685 97.9932 0 75.8584 0 49.021C0 22.2173 22.1348 0.0488281 48.9385 0.0488281C75.791 0.0488281 97.9595 22.2173 97.9595 49.021ZM48.8442 23.104C45.5825 23.104 44.5772 24.0757 44.5772 27.1572L44.5772 41.4351L32.2559 34.3096C29.3882 32.6426 28.0679 32.9238 26.6113 35.8857L26.416 36.2275C24.9746 39.0952 25.3198 40.4121 27.9888 41.8047L40.79 48.7315L27.9399 56.1802C25.271 57.7378 24.9258 59.021 26.4985 61.8213L26.6113 62.0503C28.1538 64.9297 29.4893 65.2749 32.1885 63.6416L44.5772 56.501L44.5772 70.7788C44.5772 73.9243 45.5825 74.896 48.8442 74.896L49.2012 74.896C52.3955 74.896 53.4009 73.9243 53.4009 70.7788L53.4009 56.501L65.7896 63.6416C68.6235 65.3423 69.9102 64.9634 71.3667 62.0503L71.5132 61.8213C72.936 58.9873 72.6245 57.7007 70.0381 56.1802L57.188 48.7315L69.9893 41.8047C72.6582 40.3482 72.9883 39.0313 71.562 36.2275L71.3667 35.8857C69.9741 32.9692 68.6387 32.5903 65.7222 34.3096L53.4009 41.4351L53.4009 27.1572C53.4009 24.0757 52.3955 23.104 49.2012 23.104Z" fill="#000000" fill-opacity="0.85"/>
 </g>
</svg>
