<?xml version="1.0" encoding="UTF-8"?>
<!--Generator: Apple Native CoreSVG 232.5-->
<!DOCTYPE svg
PUBLIC "-//W3C//DTD SVG 1.1//EN"
       "http://www.w3.org/Graphics/SVG/1.1/DTD/svg11.dtd">
<svg version="1.1" xmlns="http://www.w3.org/2000/svg" xmlns:xlink="http://www.w3.org/1999/xlink" width="105.334" height="105.448">
 <g>
  <rect height="105.448" opacity="0" width="105.334" x="0" y="0"/>
  <path d="M66.7175 78.0783C65.3455 81.6575 64.7218 85.5637 64.9987 89.5895C65.0441 91.777 66.6608 93.1041 68.8703 92.0768C71.6013 90.9522 74.1794 89.5639 76.5643 87.9305L81.0545 92.4232C73.0424 98.2459 63.2169 101.672 52.6671 101.672C25.8634 101.672 3.69495 79.5031 3.69495 52.6993C3.69495 42.1359 7.12427 32.301 12.9549 24.2864ZM11.3229 63.2096C14.5724 76.2657 23.9162 86.9313 36.3629 92.0768C38.6212 93.1041 40.2042 91.777 40.2833 89.5895C41.3468 74.2501 29.3566 60.8136 14.0866 59.7472C11.8805 59.5265 10.6593 60.7726 11.3229 63.2096ZM101.654 52.6993C101.654 63.2953 98.1929 73.167 92.3098 81.201L87.8532 76.7419C90.6359 72.6791 92.7204 68.1129 93.9591 63.2096C94.6075 60.7726 93.3527 59.5265 91.1803 59.7472C85.6438 60.1315 80.5616 62.1343 76.3885 65.2709L47.5114 36.378L87.5221 36.378C90.0704 36.378 90.8468 34.0099 89.3932 31.7565C82.3937 18.9015 68.5211 10.0451 52.5997 10.0451C43.8465 10.0451 35.551 12.74 28.624 17.4804L24.183 13.0369C32.2037 7.17488 42.055 3.72717 52.6334 3.72717C79.486 3.72717 101.654 25.8619 101.654 52.6993Z" fill="#000000" fill-opacity="0.85"/>
  <path d="M95.3204 99.5582C96.4523 100.705 98.3336 100.672 99.4469 99.5397C100.624 98.3776 100.579 96.545 99.4469 95.3981L10.0324 5.98352C8.91566 4.86682 7.04945 4.78772 5.8722 5.98352C4.74036 7.08167 4.74036 8.96302 5.8722 10.11Z" fill="#000000" fill-opacity="0.85"/>
 </g>
</svg>
