<?xml version="1.0" encoding="UTF-8"?>
<!--Generator: Apple Native CoreSVG 232.5-->
<!DOCTYPE svg
PUBLIC "-//W3C//DTD SVG 1.1//EN"
       "http://www.w3.org/Graphics/SVG/1.1/DTD/svg11.dtd">
<svg version="1.1" xmlns="http://www.w3.org/2000/svg" xmlns:xlink="http://www.w3.org/1999/xlink" width="123.655" height="127.148">
 <g>
  <rect height="127.148" opacity="0" width="123.655" x="0" y="0"/>
  <path d="M71.8235 15.6319C72.0562 18.2481 72.8499 20.5997 73.772 22.6503C69.975 21.5047 65.9453 20.8951 61.7769 20.8951C45.9043 20.8951 32.0318 29.7515 25.066 42.6401C23.5635 44.8599 24.4224 47.228 26.9034 47.228L71.7758 47.228C72.0356 54.9078 76.4827 61.1558 82.8096 61.1558C85.8858 61.1558 88.5093 59.7666 90.4693 57.2564C91.98 59.75 94.4199 61.1558 97.5581 61.1558C100.604 61.1558 103.492 59.5479 105.078 57.2564C106.379 59.3183 108.266 60.6992 110.704 61.0574C110.81 61.8728 110.832 62.7088 110.832 63.5493C110.832 90.3531 88.6968 112.522 61.8443 112.522C35.0405 112.522 12.8721 90.3531 12.8721 63.5493C12.8721 36.7119 35.0069 14.5772 61.8106 14.5772C65.2378 14.5772 68.5887 14.9377 71.8235 15.6319ZM20.5337 74.0596C23.7832 87.1157 33.127 97.7813 45.5737 102.927C47.832 103.954 49.4151 102.627 49.4942 100.439C50.5239 85.1001 38.5337 71.6636 23.2974 70.5972C21.0913 70.3765 19.8365 71.6226 20.5337 74.0596ZM100.324 70.5972C85.0083 71.6636 73.1275 85.1944 74.1421 100.439C74.2212 102.627 75.8379 103.954 78.0474 102.927C90.543 97.7813 99.8379 87.1157 103.103 74.0596C103.785 71.6226 102.53 70.3765 100.324 70.5972ZM51.2583 66.7744C51.2583 72.6778 55.9375 77.3755 61.7954 77.3755C67.6651 77.3755 72.3779 72.6778 72.3779 66.7744C72.3779 60.9536 67.6651 56.271 61.7954 56.271C55.9375 56.271 51.2583 60.9536 51.2583 66.7744Z" fill="#000000" fill-opacity="0.85"/>
  <path d="M88.1846 30.6738C88.1846 24.5767 82.4531 20.9517 82.4531 16.1636C82.4531 13.707 83.1333 12.2676 84.8086 9.94581C86.7285 7.4297 83.2153 4.84619 81.2315 7.35889C78.9819 10.228 78.0322 12.7622 78.0322 15.9429C78.0322 22.2993 83.6963 26.0703 83.6963 30.6738C83.6963 35.1192 78.0322 38.9995 78.0322 45.2466C78.0322 48.5518 78.9819 51.0859 81.2012 53.8457C83.0723 56.2642 86.6343 53.7295 84.7144 51.2134C83.1333 49.0464 82.4531 47.6069 82.4531 45.0259C82.4531 40.3623 88.1846 36.7979 88.1846 30.6738ZM102.793 30.6738C102.793 24.5767 97.062 20.9517 97.062 16.1636C97.062 13.707 97.7271 12.2676 99.4175 9.94581C101.322 7.4297 97.8242 4.84619 95.8403 7.35889C93.5757 10.228 92.626 12.7622 92.626 15.9429C92.626 22.2993 98.2901 26.0703 98.2901 30.6738C98.2901 35.1192 92.626 38.9995 92.626 45.2466C92.626 48.5518 93.5757 51.0859 95.7949 53.8457C97.666 56.2642 101.228 53.7295 99.3233 51.2134C97.7271 49.0464 97.062 47.6069 97.062 45.0259C97.062 40.3623 102.793 36.7979 102.793 30.6738ZM117.387 30.6738C117.387 24.5767 111.656 20.9517 111.656 16.1636C111.656 13.707 112.336 12.2676 114.026 9.94581C115.931 7.4297 112.418 4.84619 110.434 7.35889C108.185 10.228 107.235 12.7622 107.235 15.9429C107.235 22.2993 112.899 26.0703 112.899 30.6738C112.899 35.1192 107.235 38.9995 107.235 45.2466C107.235 48.5518 108.185 51.0859 110.404 53.8457C112.275 56.2642 115.837 53.7295 113.917 51.2134C112.336 49.0464 111.656 47.6069 111.656 45.0259C111.656 40.3623 117.387 36.7979 117.387 30.6738Z" fill="#000000" fill-opacity="0.85"/>
 </g>
</svg>
