<?xml version="1.0" encoding="UTF-8"?>
<!--Generator: Apple Native CoreSVG 232.5-->
<!DOCTYPE svg
PUBLIC "-//W3C//DTD SVG 1.1//EN"
       "http://www.w3.org/Graphics/SVG/1.1/DTD/svg11.dtd">
<svg version="1.1" xmlns="http://www.w3.org/2000/svg" xmlns:xlink="http://www.w3.org/1999/xlink" width="136.817" height="71.5889">
 <g>
  <rect height="71.5889" opacity="0" width="136.817" x="0" y="0"/>
  <path d="M3.10304 71.5889L8.89064 71.5889C11.1997 71.5889 12.377 70.5059 13.0708 68.7393L39.9785 2.30762C40.4956 1.10498 39.8657 0.0673831 38.5957 0.0673831L35.9971 0.0673831C34.6968 0.0673831 33.8799 0.655276 33.3291 1.77198L0.472175 67.3193C-0.607417 69.3252 0.17237 71.5889 3.10304 71.5889ZM127.941 71.5889L133.748 71.5889C136.66 71.5889 137.424 69.3252 136.36 67.3193L103.522 1.77198C102.952 0.655276 102.135 0.0673831 100.835 0.0673831L98.2212 0.0673831C96.9512 0.0673831 96.355 1.10498 96.8384 2.30762L123.746 68.7393C124.44 70.5059 125.617 71.5889 127.941 71.5889Z" fill="#000000" fill-opacity="0.85"/>
  <path d="M68.416 67.7495C84.5918 67.7495 97.9541 54.4209 97.9541 38.2451C97.9541 22.0205 84.5581 8.70703 68.3823 8.70703C52.2554 8.70703 38.9116 22.0205 38.9116 38.2451C38.9116 54.4209 52.2554 67.7495 68.416 67.7495ZM47.1119 26.1816C51.1748 18.6431 59.1397 13.5659 68.3823 13.5659C77.6402 13.5659 85.6201 18.6431 89.6831 26.1479C90.3872 27.2275 90.1699 28.0361 89.0313 28.0361L47.7334 28.0361C46.6621 28.0361 46.4263 27.2275 47.1119 26.1816ZM68.3823 45.8652C65.1865 45.8652 62.7114 43.4355 62.7114 40.1943C62.7114 36.9346 65.1865 34.5049 68.3823 34.5049C71.627 34.5049 74.1021 36.9346 74.1021 40.1943C74.1021 43.4355 71.627 45.8652 68.3823 45.8652ZM44.5249 44.3135C44.2251 43.1699 44.562 42.8398 45.5708 42.9409C54.3994 43.5171 61.1958 51.1772 60.5547 60.0498C60.5244 61.104 60.0596 61.52 59.0205 61.0215C51.771 58.0464 46.3921 51.898 44.5249 44.3135ZM92.3223 44.3135C90.4214 51.898 85.0762 58.0464 77.8267 61.0215C76.7876 61.52 76.2739 61.104 76.2588 60.0498C75.6177 51.2075 82.3687 43.5171 91.2427 42.9409C92.2178 42.8062 92.6221 43.1699 92.3223 44.3135Z" fill="#000000" fill-opacity="0.85"/>
 </g>
</svg>
