<?xml version="1.0" encoding="UTF-8"?>
<!--Generator: Apple Native CoreSVG 232.5-->
<!DOCTYPE svg
PUBLIC "-//W3C//DTD SVG 1.1//EN"
       "http://www.w3.org/Graphics/SVG/1.1/DTD/svg11.dtd">
<svg version="1.1" xmlns="http://www.w3.org/2000/svg" xmlns:xlink="http://www.w3.org/1999/xlink" width="97.9595" height="97.9932">
 <g>
  <rect height="97.9932" opacity="0" width="97.9595" x="0" y="0"/>
  <path d="M48.9722 97.9443C75.8247 97.9443 97.9595 75.7759 97.9595 48.9722C97.9595 22.1348 75.791 0 48.9385 0C22.1348 0 0 22.1348 0 48.9722C0 75.7759 22.1685 97.9443 48.9722 97.9443ZM48.9722 91.6113C25.3501 91.6113 6.36671 72.5942 6.36671 48.9722C6.36671 25.3501 25.3164 6.31789 48.9385 6.31789C72.5605 6.31789 91.6265 25.3501 91.6265 48.9722C91.6265 72.5942 72.5942 91.6113 48.9722 91.6113Z" fill="#000000" fill-opacity="0.85"/>
  <path d="M48.9722 77.7984C64.7676 77.7984 77.8135 64.7525 77.8135 48.9722C77.8135 33.1919 64.7676 20.146 48.9385 20.146C33.1582 20.146 20.146 33.1919 20.146 48.9722C20.146 64.7525 33.1919 77.7984 48.9722 77.7984ZM28.4019 37.2622C32.3521 30.0772 40.0645 25.1094 48.9385 25.1094C57.8613 25.1094 65.5737 30.0772 69.4902 37.2622C70.292 38.4883 69.8794 39.7886 68.4629 39.7886L29.4629 39.7886C28.0464 39.7886 27.6001 38.4883 28.4019 37.2622ZM48.9233 56.6816C45.6602 56.6816 43.0352 54.0869 43.0352 50.7749C43.0352 47.4814 45.6602 44.8716 48.9233 44.8716C52.2319 44.8716 54.8755 47.4814 54.8755 50.7749C54.8755 54.0869 52.2319 56.6816 48.9233 56.6816ZM25.8789 54.8638C25.4966 53.4878 26.2007 52.7671 27.4014 52.9019C35.9927 53.478 42.6831 60.9985 42.0571 69.6001C42.042 70.8193 41.1006 71.562 39.8814 70.9995C32.9028 68.1187 27.6973 62.1772 25.8789 54.8638ZM72.0469 54.8638C70.2285 62.1772 65.023 68.1187 58.0781 70.9995C56.8101 71.562 55.8838 70.8193 55.8687 69.6001C55.3066 61.0625 61.918 53.478 70.5244 52.9019C71.7251 52.7671 72.4292 53.4878 72.0469 54.8638Z" fill="#000000" fill-opacity="0.85"/>
 </g>
</svg>
