<?xml version="1.0" encoding="UTF-8"?>
<!--Generator: Apple Native CoreSVG 232.5-->
<!DOCTYPE svg
PUBLIC "-//W3C//DTD SVG 1.1//EN"
       "http://www.w3.org/Graphics/SVG/1.1/DTD/svg11.dtd">
<svg version="1.1" xmlns="http://www.w3.org/2000/svg" xmlns:xlink="http://www.w3.org/1999/xlink" width="143.623" height="97.9932">
 <g>
  <rect height="97.9932" opacity="0" width="143.623" x="0" y="0"/>
  <path d="M94.6353 97.9443C121.454 97.9443 143.623 75.7759 143.623 48.9722C143.623 22.1348 121.42 0 94.6016 0C67.7642 0 45.6631 22.1348 45.6631 48.9722C45.6631 75.7759 67.7979 97.9443 94.6353 97.9443ZM57.8233 28.063C64.7891 15.1743 78.6616 6.31789 94.583 6.31789C110.456 6.31789 124.328 15.1743 131.328 28.0293C132.781 30.2827 132.005 32.6509 129.457 32.6509L59.6944 32.6509C57.1797 32.6509 56.3697 30.2827 57.8233 28.063ZM94.5527 62.7983C88.7285 62.7983 84.0156 58.1006 84.0156 52.1973C84.0156 46.3765 88.7285 41.6938 94.5527 41.6938C100.422 41.6938 105.135 46.3765 105.135 52.1973C105.135 58.1006 100.422 62.7983 94.5527 62.7983ZM53.291 59.4824C52.6275 57.0454 53.8487 55.7993 56.0547 56.02C71.3247 57.0864 83.3149 70.5229 82.2515 85.8623C82.2061 88.0498 80.5894 89.377 78.3462 88.3496C65.8843 83.2041 56.5405 72.5386 53.291 59.4824ZM135.894 59.4824C132.644 72.5386 123.3 83.2041 110.838 88.3496C108.595 89.377 106.979 88.0498 106.933 85.8623C105.885 70.6172 117.766 57.0864 133.115 56.02C135.321 55.7993 136.557 57.0454 135.894 59.4824Z" fill="#000000" fill-opacity="0.85"/>
  <path d="M3.84912 46.8252C2.11475 47.854 2.04736 50.1997 3.84912 51.2622L29.1587 66.3145C30.9976 67.4292 33.1782 66.5283 33.1782 64.6255L33.1782 33.3037C33.1782 31.4649 30.9116 30.5977 29.1587 31.6148Z" fill="#000000" fill-opacity="0.85"/>
 </g>
</svg>
