<?xml version="1.0" encoding="UTF-8"?>
<!--Generator: Apple Native CoreSVG 232.5-->
<!DOCTYPE svg
PUBLIC "-//W3C//DTD SVG 1.1//EN"
       "http://www.w3.org/Graphics/SVG/1.1/DTD/svg11.dtd">
<svg version="1.1" xmlns="http://www.w3.org/2000/svg" xmlns:xlink="http://www.w3.org/1999/xlink" width="128.225" height="107.835">
 <g>
  <rect height="107.835" opacity="0" width="128.225" x="0" y="0"/>
  <path d="M112.915 49.9632C110.725 49.041 108.289 48.5488 105.692 48.5488C95.7557 48.5488 88.1793 55.7503 87.5952 66.6426C80.3035 72.1823 75.7854 81.1398 76.4273 90.7832C76.5064 92.9707 78.1231 94.2979 80.3325 93.2705C81.2965 92.8736 82.2414 92.4438 83.1587 91.9715L83.1587 96.9048C83.1587 97.5979 83.2026 98.2634 83.299 98.8919C77.401 101.449 70.9159 102.865 64.1294 102.865C37.3257 102.865 15.1572 80.6968 15.1572 53.8931C15.1572 27.0557 37.292 4.92091 64.0957 4.92091C89.6219 4.92091 110.915 24.9231 112.915 49.9632ZM22.8189 64.4033C26.0684 77.4595 35.4121 88.125 47.8589 93.2705C50.1172 94.2979 51.7002 92.9707 51.7793 90.7832C52.8091 75.4439 40.8189 62.0073 25.5826 60.9409C23.3765 60.7202 22.1216 61.9663 22.8189 64.4033ZM53.5435 57.1182C53.5435 63.0215 58.2227 67.7192 64.0806 67.7192C69.9502 67.7192 74.6631 63.0215 74.6631 57.1182C74.6631 51.2974 69.9502 46.6148 64.0806 46.6148C58.2227 46.6148 53.5435 51.2974 53.5435 57.1182ZM27.3511 32.9839C25.8487 35.2036 26.7076 37.5718 29.1885 37.5718L98.9844 37.5718C101.499 37.5718 102.309 35.2036 100.822 32.9502C93.8223 20.0952 79.9497 11.2388 64.062 11.2388C48.1895 11.2388 34.3169 20.0952 27.3511 32.9839Z" fill="#000000" fill-opacity="0.85"/>
  <path d="M93.2266 74.8169L98.2911 74.7832L98.2911 67.6914C98.2911 62.3862 101.145 59.3037 105.692 59.3037C110.27 59.3037 113.093 62.3862 113.093 67.6914L113.093 74.7832L118.172 74.8169L118.172 68.0469C118.172 59.7691 113.141 54.2393 105.692 54.2393C98.2427 54.2393 93.2266 59.7691 93.2266 68.0469ZM93.7134 102.145L117.637 102.145C120.957 102.145 122.535 100.5 122.535 96.9048L122.535 78.0772C122.535 74.4824 120.957 72.8526 117.637 72.8526L93.7134 72.8526C90.4419 72.8526 88.8491 74.4824 88.8491 78.0772L88.8491 96.9048C88.8491 100.5 90.4419 102.145 93.7134 102.145Z" fill="#000000" fill-opacity="0.85"/>
 </g>
</svg>
