<?xml version="1.0" encoding="UTF-8"?>
<!--Generator: Apple Native CoreSVG 232.5-->
<!DOCTYPE svg
PUBLIC "-//W3C//DTD SVG 1.1//EN"
       "http://www.w3.org/Graphics/SVG/1.1/DTD/svg11.dtd">
<svg version="1.1" xmlns="http://www.w3.org/2000/svg" xmlns:xlink="http://www.w3.org/1999/xlink" width="97.9595" height="97.9629">
 <g>
  <rect height="97.9629" opacity="0" width="97.9595" x="0" y="0"/>
  <path d="M97.9595 48.9722C97.9595 75.8096 75.8247 97.9595 48.9722 97.9595C22.1685 97.9595 0 75.8096 0 48.9722C0 22.1685 22.1348 0 48.9385 0C75.791 0 97.9595 22.1685 97.9595 48.9722ZM37.3169 39.5698C37.3169 41.7988 37.7495 43.9673 38.3286 46.0869L33.5689 46.0869C32.2451 46.0869 31.2817 46.9644 31.2817 48.3066C31.2817 49.6304 32.2451 50.5078 33.5689 50.5078L39.4351 50.5078C39.9048 52.3867 40.2734 54.2285 40.2734 56.0972C40.2734 61.1655 37.1382 65.0142 32.8335 66.043C31.4355 66.4287 30.7114 67.2119 30.7114 68.5845C30.7114 70.0615 31.6563 71.0029 33.0996 71.0029L63.0186 71.0029C64.4619 71.0029 65.4741 70.0918 65.4741 68.6333C65.4741 67.1899 64.4619 66.2451 63.0186 66.2451L40.8291 66.2451C43.4776 64.0933 45.3716 60.0591 45.3716 55.9287C45.3716 53.9439 45.1006 52.1694 44.6831 50.5078L57.6104 50.5078C58.919 50.5078 59.8638 49.6304 59.8638 48.3066C59.8638 46.9644 58.919 46.0869 57.6104 46.0869L43.5767 46.0869C43.0313 43.9707 42.5161 41.7988 42.5161 39.2666C42.5161 33.7407 46.2407 29.8633 53.2109 29.8633C57.9619 29.8633 59.8428 31.2622 61.0772 31.2622C62.6182 31.2622 63.2666 30.3848 63.2666 29.1401C63.2666 28.042 62.8135 27.1797 61.1211 26.5078C59.1558 25.7349 56.4146 25.102 52.9566 25.102C42.9683 25.102 37.3169 30.8203 37.3169 39.5698Z" fill="#000000" fill-opacity="0.85"/>
 </g>
</svg>
