<?xml version="1.0" encoding="UTF-8"?>
<!--Generator: Apple Native CoreSVG 232.5-->
<!DOCTYPE svg
PUBLIC "-//W3C//DTD SVG 1.1//EN"
       "http://www.w3.org/Graphics/SVG/1.1/DTD/svg11.dtd">
<svg version="1.1" xmlns="http://www.w3.org/2000/svg" xmlns:xlink="http://www.w3.org/1999/xlink" width="65.4429" height="87.8496">
 <g>
  <rect height="87.8496" opacity="0" width="65.4429" x="0" y="0"/>
  <path d="M3.21534 87.4878L62.1938 87.4878C64.0601 87.4878 65.4429 86.2549 65.4429 84.3887C65.4429 82.4585 64.0601 81.3232 62.1938 81.3232L12.6328 81.3232L12.6328 81.1396C19.8877 79.2349 25.7832 69.9634 25.7832 59.3525C25.7832 46.7705 20.1231 38.7285 20.1231 26.5112C20.1231 14.6382 27.8482 6.33302 42.7578 6.33302C52.2393 6.33302 55.9233 9.16944 58.3364 9.16944C60.2363 9.16944 61.1206 8.00733 61.1206 6.41895C61.1206 4.82227 60.1572 3.70898 57.7861 2.69189C54.0796 1.17968 49.0049 0 42.2676 0C23.5781 0 12.9141 10.7559 12.9141 26.9526C12.9141 38.4688 18.8286 49.1895 18.8286 59.6069C18.8286 70.3696 12.2148 78.5044 2.96436 80.6714C0.990236 81.2593 0 82.2817 0 84.2725C0 86.1538 1.3794 87.4878 3.21534 87.4878ZM1.43701 44.0332C1.43701 45.5659 2.68506 46.7954 4.21777 46.7954L51.5024 46.7954C53.0352 46.7954 54.2647 45.5659 54.2647 44.0332C54.2647 42.5005 53.0352 41.2861 51.5024 41.2861L4.21777 41.2861C2.68506 41.2861 1.43701 42.5005 1.43701 44.0332Z" fill="#000000" fill-opacity="0.85"/>
 </g>
</svg>
