<?xml version="1.0" encoding="UTF-8"?>
<!--Generator: Apple Native CoreSVG 232.5-->
<!DOCTYPE svg
PUBLIC "-//W3C//DTD SVG 1.1//EN"
       "http://www.w3.org/Graphics/SVG/1.1/DTD/svg11.dtd">
<svg version="1.1" xmlns="http://www.w3.org/2000/svg" xmlns:xlink="http://www.w3.org/1999/xlink" width="107.333" height="97.9932">
 <g>
  <rect height="97.9932" opacity="0" width="107.333" x="0" y="0"/>
  <path d="M58.3575 97.9443C85.1612 97.9443 107.33 75.7759 107.33 48.9722C107.33 22.1348 85.1612 0 58.3575 0C31.5201 0 9.38533 22.1011 9.38533 48.9385L15.7032 48.9385C15.7032 25.3164 34.7354 6.35158 58.3575 6.35158C81.9796 6.35158 101.012 25.3501 101.012 48.9722C101.012 72.5942 81.9796 91.6787 58.3575 91.6113C43.5182 91.5928 30.6148 84.0068 22.9474 72.5923C21.8121 71.0444 20.047 70.561 18.4806 71.479C16.9967 72.397 16.5655 74.4165 17.8018 76.0655C26.943 89.0161 41.5392 97.9443 58.3575 97.9443ZM2.84969 40.0024C7.79875e-05 40.0024-0.788009 41.9561 0.828693 44.2666L11.4786 59.4307C12.8326 61.3438 14.7677 61.3101 16.1031 59.4307L26.753 44.2329C28.336 41.9561 27.5479 40.0024 24.7169 40.0024Z" fill="#000000" fill-opacity="0.85"/>
  <path d="M42.773 70.5464L72.0821 70.5464C73.4581 70.5464 74.4703 69.6353 74.4703 68.2105C74.4703 66.8345 73.4581 65.9233 72.0821 65.9233L50.3492 65.9233C52.9303 63.8052 54.7569 59.8232 54.7569 55.7939C54.7569 53.8428 54.4859 52.1021 54.1021 50.4741L66.7935 50.4741C68.0836 50.4741 68.9947 49.6152 68.9947 48.3066C68.9947 47.0166 68.0836 46.1729 66.7935 46.1729L53.0294 46.1729C52.484 44.1055 52.0025 41.9522 52.0025 39.4873C52.0025 34.0625 55.5924 30.2373 62.4767 30.2373C67.1451 30.2373 69.0074 31.6177 70.2081 31.6177C71.6817 31.6177 72.3302 30.7739 72.3302 29.5293C72.3302 28.4834 71.8434 27.6548 70.2184 27.0166C68.2867 26.2436 65.6466 25.6108 62.2408 25.6108C52.4547 25.6108 46.9229 31.228 46.9229 39.7568C46.9229 41.9522 47.3219 44.0869 47.9347 46.1729L43.276 46.1729C41.9674 46.1729 41.0562 47.0166 41.0562 48.3066C41.0562 49.6152 41.9674 50.4741 43.276 50.4741L49.0074 50.4741C49.4586 52.2857 49.8272 54.1274 49.8272 55.9624C49.8272 60.896 46.7779 64.6772 42.5406 65.6724C41.1427 66.1069 40.4859 66.8228 40.4859 68.1953C40.4859 69.5713 41.3971 70.5464 42.773 70.5464Z" fill="#000000" fill-opacity="0.85"/>
 </g>
</svg>
