<?xml version="1.0" encoding="UTF-8"?>
<!--Generator: Apple Native CoreSVG 232.5-->
<!DOCTYPE svg
PUBLIC "-//W3C//DTD SVG 1.1//EN"
       "http://www.w3.org/Graphics/SVG/1.1/DTD/svg11.dtd">
<svg version="1.1" xmlns="http://www.w3.org/2000/svg" xmlns:xlink="http://www.w3.org/1999/xlink" width="77.7549" height="77.8526">
 <g>
  <rect height="77.8526" opacity="0" width="77.7549" x="0" y="0"/>
  <path d="M0 67.8755C0 74.1177 3.75342 77.7886 10.0142 77.7886L67.7407 77.7886C74.0503 77.7886 77.7549 74.1177 77.7549 67.8755L77.7549 9.92823C77.7549 3.68604 74.0503 0 67.7407 0L10.0142 0C3.75342 0 0 3.68604 0 9.92823ZM6.04494 66.6104L6.04494 11.1934C6.04494 7.97267 7.93898 6.04494 11.126 6.04494L66.6289 6.04494C69.8496 6.04494 71.7251 7.97267 71.7251 11.1934L71.7251 66.6104C71.7251 69.8159 69.8496 71.7588 66.6289 71.7588L11.126 71.7588C7.93898 71.7588 6.04494 69.8159 6.04494 66.6104Z" fill="#000000" fill-opacity="0.85"/>
 </g>
</svg>
