<?xml version="1.0" encoding="UTF-8"?>
<!--Generator: Apple Native CoreSVG 232.5-->
<!DOCTYPE svg
PUBLIC "-//W3C//DTD SVG 1.1//EN"
       "http://www.w3.org/Graphics/SVG/1.1/DTD/svg11.dtd">
<svg version="1.1" xmlns="http://www.w3.org/2000/svg" xmlns:xlink="http://www.w3.org/1999/xlink" width="77.6636" height="72.5635">
 <g>
  <rect height="72.5635" opacity="0" width="77.6636" x="0" y="0"/>
  <path d="M64.8965 51.8901C64.8965 64.1348 54.6626 72.5449 38.8755 72.5449C25.584 72.5449 15.5337 66.3374 13.082 56.6548C12.8833 55.8633 12.7671 55.0566 12.7671 54.2988C12.7671 52.335 13.9697 51.102 16.001 51.102C17.6734 51.102 18.4448 51.9692 19.0967 53.8115C21.2539 61.5019 28.9946 66.5757 38.9209 66.5757C50.1855 66.5757 57.9536 60.6162 57.9536 52.6162C57.9536 46.106 53.3271 42.4375 42.3081 39.7539L33.5659 37.6509C33.4248 37.6173 33.2844 37.5834 33.1568 37.5454L56.112 37.5454C62.1436 40.8279 64.8965 45.3531 64.8965 51.8901ZM62.8843 15.1147C63.0796 15.8472 63.1621 16.7344 63.1621 17.3154C63.1621 19.2119 61.978 20.3438 60.0596 20.3438C58.4849 20.3438 57.5855 19.6011 57.0464 18.1089C55.1079 10.6592 48.1787 6.00294 38.7207 6.00294C28.7285 6.00294 21.1729 11.5635 21.1729 19.3228C21.1729 25.439 25.8262 28.9053 36.48 31.4795L44.5298 33.4141C45.4546 33.6345 46.3455 33.863 47.199 34.1016L23.4628 34.1016C17.1476 30.8299 14.1997 26.2146 14.1997 19.7456C14.1997 8.27734 24.7651 0 38.7207 0C51.2544 0 60.7627 6.28857 62.8843 15.1147Z" fill="#000000" fill-opacity="0.85"/>
  <path d="M1.79004 37.5454L75.9038 37.5454C76.9361 37.5454 77.6636 36.8027 77.6636 35.8311C77.6636 34.8442 76.9361 34.1016 75.9038 34.1016L1.79004 34.1016C0.742677 34.1016 0 34.8442 0 35.8311C0 36.8027 0.742677 37.5454 1.79004 37.5454Z" fill="#000000" fill-opacity="0.85"/>
 </g>
</svg>
