<?xml version="1.0" encoding="UTF-8"?>
<!--Generator: Apple Native CoreSVG 232.5-->
<!DOCTYPE svg
PUBLIC "-//W3C//DTD SVG 1.1//EN"
       "http://www.w3.org/Graphics/SVG/1.1/DTD/svg11.dtd">
<svg version="1.1" xmlns="http://www.w3.org/2000/svg" xmlns:xlink="http://www.w3.org/1999/xlink" width="97.524" height="103.834">
 <g>
  <rect height="103.834" opacity="0" width="97.524" x="0" y="0"/>
  <path d="M21.3189 40.6792L15.8838 40.6792L18.209 52.9014C20.0039 62.585 28.0122 68.3438 40.8736 68.3438L72.2075 68.3438C91.2183 68.3438 96.9903 53.5801 96.9903 38.6802C96.9903 18.063 83.582 1.50293 60.6074 1.50293C57.1387 1.50293 54.8535 3.79492 54.8535 7.30762L54.8535 37.2461L60.2549 37.2461L60.2549 9.20948C60.2549 7.89112 61.1372 7.05763 62.4707 7.05763C76.2778 7.05763 91.5703 16.7837 91.5703 38.6802C91.5703 50.7642 87.2129 62.9575 72.2075 62.9575L40.8736 62.9575C30.9024 62.9575 24.9219 58.8291 23.5767 51.9194ZM92.5401 36.3789L14.4834 36.3789C12.9878 36.3789 11.8071 37.5747 11.8071 39.0703C11.8071 40.5508 12.9878 41.7803 14.4834 41.7803L92.5737 41.7803ZM30.7134 39.4024L38.7793 39.4024L16.1206 16.7739C15.1338 15.772 14.2158 15.3897 12.8047 15.3897L2.84473 15.3897C1.28174 15.3897 0 16.6714 0 18.2344C0 19.7822 1.28174 21.0977 2.84473 21.0977L12.4087 21.0977ZM31.4927 81.2554L35.5601 85.4424L53.5869 67.4155L49.4185 63.3296ZM77.0366 85.8653L81.2237 81.7979L63.3316 63.9395L58.7891 67.6177ZM26.9468 103.834C34.211 103.834 39.9058 98.124 39.9058 90.8262C39.9058 83.562 34.211 77.8521 26.9468 77.8521C19.6489 77.8521 13.9727 83.562 13.9727 90.8262C13.9727 98.124 19.6489 103.834 26.9468 103.834ZM26.9468 98.7207C22.5542 98.7207 19.0523 95.2188 19.0523 90.8262C19.0523 86.3999 22.5542 82.9317 26.9468 82.9317C31.3579 82.9317 34.8413 86.3999 34.8413 90.8262C34.8413 95.2188 31.3579 98.7207 26.9468 98.7207ZM85.2085 103.175C92.0498 103.175 97.524 97.7012 97.524 90.8262C97.524 83.9849 92.0498 78.4956 85.2085 78.4956C78.3184 78.4956 72.8443 83.9849 72.8443 90.8262C72.8443 97.7012 78.3521 103.175 85.2085 103.175ZM85.2085 98.7207C80.8159 98.7207 77.2652 95.2188 77.2652 90.8262C77.2652 86.3999 80.8159 82.9317 85.2085 82.9317C89.6197 82.9317 93.103 86.3999 93.103 90.8262C93.103 95.2188 89.6197 98.7207 85.2085 98.7207ZM37.7632 93.3491L74.7945 93.3491L74.7945 88.2695L37.7632 88.2695Z" fill="#000000" fill-opacity="0.85"/>
 </g>
</svg>
