<?xml version="1.0" encoding="UTF-8"?>
<!--Generator: Apple Native CoreSVG 232.5-->
<!DOCTYPE svg
PUBLIC "-//W3C//DTD SVG 1.1//EN"
       "http://www.w3.org/Graphics/SVG/1.1/DTD/svg11.dtd">
<svg version="1.1" xmlns="http://www.w3.org/2000/svg" xmlns:xlink="http://www.w3.org/1999/xlink" width="73.0518" height="126.369">
 <g>
  <rect height="126.369" opacity="0" width="73.0518" x="0" y="0"/>
  <path d="M12.376 117.909L60.6758 117.909C67.9727 117.909 73.0518 112.724 73.0518 105.261L73.0518 38.229C73.0518 30.7319 67.9727 25.5806 60.6758 25.5806L12.376 25.5806C5.07911 25.5806 0 30.7319 0 38.229L0 105.261C0 112.724 5.07911 117.909 12.376 117.909ZM12.398 111.879C8.59425 111.879 6.04494 109.108 6.04494 105.052L6.04494 38.4043C6.04494 34.3482 8.59425 31.6104 12.398 31.6104L60.6538 31.6104C64.4575 31.6104 67.0069 34.3482 67.0069 38.4043L67.0069 105.052C67.0069 109.108 64.4575 111.879 60.6538 111.879ZM2.89014 99.2134L70.2476 99.2134L70.2476 93.1685L2.89014 93.1685ZM16.2354 29.7124L22.0781 29.7124L22.0781 10.3506C22.0781 7.44679 23.999 5.5547 26.856 5.5547L46.5327 5.5547C49.2027 5.5547 50.9888 7.44679 50.9888 10.3506L50.9888 29.645L56.8316 29.645L56.8316 10.4482C56.8316 4.08496 52.8863 0 46.7232 0L26.6807 0C20.3154 0 16.2354 4.08496 16.2354 10.4482ZM15.4946 124.872L18.1738 124.872C20.5684 124.872 22.0352 123.39 22.0352 121.014L22.0352 114.515L11.6333 114.515L11.6333 121.014C11.6333 123.39 13.085 124.872 15.4946 124.872ZM54.878 124.872L57.542 124.872C59.918 124.872 61.4185 123.39 61.4185 121.014L61.4185 114.515L51.0015 114.515L51.0015 121.014C51.0015 123.39 52.4531 124.872 54.878 124.872Z" fill="#000000" fill-opacity="0.85"/>
 </g>
</svg>
