<?xml version="1.0" encoding="UTF-8"?>
<!--Generator: Apple Native CoreSVG 232.5-->
<!DOCTYPE svg
PUBLIC "-//W3C//DTD SVG 1.1//EN"
       "http://www.w3.org/Graphics/SVG/1.1/DTD/svg11.dtd">
<svg version="1.1" xmlns="http://www.w3.org/2000/svg" xmlns:xlink="http://www.w3.org/1999/xlink" width="90.1519" height="95.5742">
 <g>
  <rect height="95.5742" opacity="0" width="90.1519" x="0" y="0"/>
  <path d="M0 56.167C0 68.3726 8.16455 76.522 20.4189 76.522C27.167 76.522 33.2031 73.3975 36.3486 69.3164L35.6934 68.0396C34.1328 74.9683 29.6201 80.6201 26.2148 84.189C23.2026 87.646 24.5918 92.3086 29.4868 92.3086L60.665 92.3086C65.5752 92.3086 66.9644 87.646 63.9185 84.189C60.5469 80.6201 56.0342 74.9683 54.4585 68.0396L53.8032 69.3164C56.9487 73.3975 62.9849 76.522 69.7481 76.522C81.9873 76.522 90.1519 68.3726 90.1519 56.167C90.1519 35.6978 60.4834 25.8931 48.9815 3.0044C48.1226 1.29004 47.1812 0 45.0591 0C42.937 0 42.0444 1.29004 41.1704 3.0044C29.6685 25.8931 0 35.6978 0 56.167ZM5.58839 56.0996C5.58839 38.918 33.6602 30.6192 45.0591 6.12746C56.4732 30.6192 84.5635 38.918 84.5635 56.0996C84.5635 65.1826 78.5093 71.188 69.4263 71.188C63.5332 71.188 58.8389 68.6035 55.6045 65.3105C53.0044 62.874 49.2593 64.1855 49.7119 68.1143C50.8511 73.9912 54.3447 80.8447 58.2622 85.1465C59.146 86.0825 58.7519 87.0234 57.7168 87.0234L32.4351 87.0234C31.3999 87.0234 31.0059 86.0825 31.8897 85.1465C35.8223 80.8447 39.2671 73.9912 40.4551 68.1143C40.8926 64.1855 37.1475 62.8438 34.5474 65.3105C31.2793 68.6035 26.6338 71.188 20.7407 71.188C11.6426 71.188 5.58839 65.1826 5.58839 56.0996Z" fill="#000000" fill-opacity="0.85"/>
 </g>
</svg>
