<?xml version="1.0" encoding="UTF-8"?>
<!--Generator: Apple Native CoreSVG 232.5-->
<!DOCTYPE svg
PUBLIC "-//W3C//DTD SVG 1.1//EN"
       "http://www.w3.org/Graphics/SVG/1.1/DTD/svg11.dtd">
<svg version="1.1" xmlns="http://www.w3.org/2000/svg" xmlns:xlink="http://www.w3.org/1999/xlink" width="73.5279" height="97.4756">
 <g>
  <rect height="97.4756" opacity="0" width="73.5279" x="0" y="0"/>
  <path d="M36.7471 97.4116C39.0542 97.4116 40.1758 95.8472 42.4141 92.8325L71.7612 53.4019C72.9131 51.8223 73.5279 50.3335 73.5279 48.7134C73.5279 47.0444 72.9131 45.5894 71.7612 44.0249L42.4141 4.54542C40.1758 1.57959 39.0542 0 36.7471 0C34.4399 0 33.3184 1.57959 31.1138 4.54542L1.7666 44.0249C0.596192 45.5894 0 47.0444 0 48.7134C0 50.3335 0.596192 51.8223 1.7666 53.4019L31.1138 92.8325C33.3184 95.8472 34.4399 97.4116 36.7471 97.4116Z" fill="#000000" fill-opacity="0.85"/>
 </g>
</svg>
