<?xml version="1.0" encoding="UTF-8"?>
<!--Generator: Apple Native CoreSVG 232.5-->
<!DOCTYPE svg
PUBLIC "-//W3C//DTD SVG 1.1//EN"
       "http://www.w3.org/Graphics/SVG/1.1/DTD/svg11.dtd">
<svg version="1.1" xmlns="http://www.w3.org/2000/svg" xmlns:xlink="http://www.w3.org/1999/xlink" width="104.752" height="105.037">
 <g>
  <rect height="105.037" opacity="0" width="104.752" x="0" y="0"/>
  <path d="M52.3931 17.7378C54.1582 17.7378 55.5933 16.3027 55.5933 14.5039L55.5933 3.23389C55.5933 1.41993 54.1582 0 52.3931 0C50.5942 0 49.1592 1.41993 49.1592 3.23389L49.1592 14.5039C49.1592 16.3027 50.5942 17.7378 52.3931 17.7378ZM76.894 27.9595C78.1758 29.1773 80.1802 29.2109 81.4771 27.9595L89.4775 19.959C90.6953 18.7109 90.6953 16.6577 89.4775 15.376C88.2295 14.1582 86.21 14.1582 84.9282 15.376L76.894 23.4102C75.6763 24.6919 75.6763 26.7114 76.894 27.9595ZM87.0635 52.4941C87.0635 54.2593 88.5171 55.6943 90.2822 55.6943L101.552 55.6943C103.333 55.6943 104.752 54.2593 104.752 52.4941C104.752 50.729 103.333 49.2602 101.552 49.2602L90.2822 49.2602C88.5171 49.2602 87.0635 50.729 87.0635 52.4941ZM76.894 77.0288C75.6763 78.3105 75.6763 80.3149 76.894 81.5781L84.9282 89.646C86.21 90.815 88.2295 90.7813 89.4775 89.6123C90.6953 88.3154 90.6953 86.311 89.4775 85.063L81.4434 77.0288C80.1802 75.8447 78.1758 75.8447 76.894 77.0288ZM52.3931 87.2505C50.5942 87.2505 49.1592 88.6855 49.1592 90.4507L49.1592 101.754C49.1592 103.52 50.5942 104.955 52.3931 104.955C54.1582 104.955 55.5933 103.52 55.5933 101.754L55.5933 90.4507C55.5933 88.6855 54.1582 87.2505 52.3931 87.2505ZM27.8584 77.0288C26.5767 75.8447 24.5386 75.8447 23.2754 77.0288L15.2749 85.0293C14.0723 86.2773 14.0723 88.2817 15.2412 89.5786C16.5044 90.7476 18.5425 90.7813 19.8242 89.6123L27.8247 81.5781C29.0425 80.3149 29.0425 78.3105 27.8584 77.0288ZM17.7041 52.4941C17.7041 50.729 16.2354 49.2602 14.4702 49.2602L3.2002 49.2602C1.41993 49.2602 0 50.729 0 52.4941C0 54.2593 1.41993 55.6943 3.2002 55.6943L14.4702 55.6943C16.2354 55.6943 17.7041 54.2593 17.7041 52.4941ZM27.8247 27.9595C29.0425 26.7451 29.0425 24.6733 27.8584 23.4102L19.8579 15.376C18.6099 14.1919 16.5718 14.1582 15.3086 15.376C14.106 16.6577 14.106 18.7109 15.2749 19.9253L23.2754 27.9595C24.5386 29.1773 26.543 29.1773 27.8247 27.9595Z" fill="#000000" fill-opacity="0.85"/>
  <path d="M52.314 76.564C65.4492 76.564 76.3501 65.6631 76.3501 52.4941C76.3501 39.2915 65.4492 28.3906 52.314 28.3906C39.1787 28.3906 28.293 39.2915 28.293 52.4941C28.293 65.6631 39.1787 76.564 52.314 76.564Z" fill="#000000" fill-opacity="0.85"/>
 </g>
</svg>
