<?xml version="1.0" encoding="UTF-8"?>
<!--Generator: Apple Native CoreSVG 232.5-->
<!DOCTYPE svg
PUBLIC "-//W3C//DTD SVG 1.1//EN"
       "http://www.w3.org/Graphics/SVG/1.1/DTD/svg11.dtd">
<svg version="1.1" xmlns="http://www.w3.org/2000/svg" xmlns:xlink="http://www.w3.org/1999/xlink" width="112.695" height="117.287">
 <g>
  <rect height="117.287" opacity="0" width="112.695" x="0" y="0"/>
  <path d="M82.313 56.25C82.313 42.0879 70.5737 30.2847 56.3477 30.2847C42.1216 30.2847 30.3823 42.0879 30.3823 56.25C30.3823 60.2954 31.4209 64.1186 33.1294 67.415L79.5322 67.415C81.2593 64.1186 82.313 60.2954 82.313 56.25ZM3.25587 58.0947L17.4624 58.0947C19.3506 58.0947 20.7856 56.7607 20.752 55.0781C20.7183 53.4746 19.3506 52.0615 17.4624 52.0615L3.25587 52.0615C1.38282 52.0615 0 53.4106 0 55.0781C0 56.7456 1.38282 58.0947 3.25587 58.0947ZM31.1523 31.1523C32.3027 29.9683 32.3027 28.0195 30.9805 26.6973L20.9253 16.6421C19.5728 15.3047 17.6729 15.3535 16.5039 16.5039C15.3047 17.6543 15.2895 19.5728 16.6421 20.9253L26.6973 30.9805C28.0195 32.3027 30.002 32.3213 31.1523 31.1523ZM56.3477 20.752C58.0151 20.7183 59.3643 19.3018 59.3643 17.4624L59.3643 3.24073C59.3643 1.35254 58.0151 0 56.3477 0C54.6802 0 53.331 1.35254 53.331 3.24073L53.331 17.4624C53.331 19.3018 54.6802 20.7705 56.3477 20.752ZM81.543 31.1523C82.6782 32.3027 84.6607 32.3027 85.9829 30.9805L96.0381 20.9253C97.4058 19.5728 97.3569 17.688 96.1426 16.5039C95.0561 15.3198 93.1226 15.3047 91.7363 16.6421L81.6812 26.6973C80.3926 28.0195 80.3589 30.002 81.543 31.1523ZM95.2178 58.0947L109.439 58.0947C111.328 58.1436 112.695 56.7607 112.695 55.0781C112.695 53.4746 111.328 52.0767 109.439 52.0615L95.2178 52.0615C93.3599 52.0615 91.9097 53.4106 91.9434 55.0781C91.9771 56.7456 93.3599 58.0947 95.2178 58.0947Z" fill="#000000" fill-opacity="0.85"/>
  <path d="M9.85889 77.3276L110.194 77.3276C111.57 77.3276 112.695 76.2969 112.695 74.9023C112.695 73.5078 111.57 72.4619 110.194 72.4619L9.85889 72.4619C8.44922 72.4619 7.37305 73.5078 7.37305 74.9023C7.37305 76.2969 8.44922 77.3276 9.85889 77.3276ZM2.50098 96.1265L102.821 96.1265C104.212 96.1265 105.322 95.0469 105.322 93.6523C105.322 92.2578 104.212 91.2119 102.821 91.2119L2.50098 91.2119C1.10987 91.2119 0 92.2578 0 93.6523C0 95.0469 1.10987 96.1265 2.50098 96.1265ZM9.85889 114.876L110.194 114.876C111.57 114.876 112.695 113.831 112.695 112.436C112.695 111.008 111.57 109.977 110.194 109.977L9.85889 109.977C8.44922 109.977 7.37305 111.008 7.37305 112.436C7.37305 113.831 8.44922 114.876 9.85889 114.876Z" fill="#000000" fill-opacity="0.85"/>
 </g>
</svg>
