<?xml version="1.0" encoding="UTF-8"?>
<!--Generator: Apple Native CoreSVG 232.5-->
<!DOCTYPE svg
PUBLIC "-//W3C//DTD SVG 1.1//EN"
       "http://www.w3.org/Graphics/SVG/1.1/DTD/svg11.dtd">
<svg version="1.1" xmlns="http://www.w3.org/2000/svg" xmlns:xlink="http://www.w3.org/1999/xlink" width="125.146" height="85.9473">
 <g>
  <rect height="85.9473" opacity="0" width="125.146" x="0" y="0"/>
  <path d="M88.7734 56.3477C88.7734 62.4438 86.62 68.0569 83.0244 72.477L74.4119 72.477C79.4482 68.9177 82.7773 63.0019 82.7773 56.3477C82.7773 45.2393 73.6724 36.1192 62.5977 36.1192C51.4741 36.1192 42.3692 45.2393 42.3692 56.3477C42.3692 63.0019 45.6982 68.9177 50.7346 72.477L42.1221 72.477C38.5264 68.0569 36.373 62.4438 36.373 56.3477C36.373 41.9565 48.2251 30.1045 62.5977 30.1045C76.9214 30.1045 88.7734 41.9565 88.7734 56.3477ZM27.002 55.0933C27.0356 56.7456 25.6309 58.0947 23.7124 58.0947L9.49073 58.0947C7.63282 58.0947 6.25 56.7456 6.25 55.0933C6.25 53.4258 7.63282 52.0767 9.49073 52.0767L23.7124 52.0767C25.5669 52.0767 26.9683 53.4258 27.002 55.0933ZM118.896 55.0933C118.896 56.7456 117.544 58.0947 115.656 58.0947L101.434 58.0947C99.5947 58.0947 98.1782 56.7456 98.1445 55.0933C98.1108 53.4258 99.5947 52.0767 101.434 52.0767L115.656 52.0767C117.544 52.0767 118.896 53.4258 118.896 55.0933ZM27.1753 16.6572L37.2305 26.7124C38.5527 27.9858 38.5527 29.9834 37.4023 31.1523C36.252 32.3364 34.2358 32.3027 32.9473 30.9805L22.8921 20.9253C21.4907 19.5728 21.5547 17.6846 22.7539 16.5039C23.938 15.3686 25.8076 15.2559 27.1753 16.6572ZM102.393 16.5039C103.558 17.7183 103.656 19.5728 102.254 20.9253L92.1992 30.9805C90.9107 32.3027 88.9282 32.3027 87.7441 31.1523C86.5601 30.0171 86.5937 27.9858 87.916 26.7124L97.9712 16.6572C99.3389 15.2559 101.242 15.335 102.393 16.5039ZM65.5991 3.25587L65.5991 17.4775C65.5991 19.3018 64.2163 20.7183 62.5977 20.752C60.9302 20.7856 59.5474 19.3018 59.5474 17.4775L59.5474 3.25587C59.5474 1.36768 60.9302 0 62.5977 0C64.2163 0 65.5991 1.36768 65.5991 3.25587Z" fill="#000000" fill-opacity="0.85"/>
  <path d="M3.26417 78.4429L121.882 78.4429C123.647 78.4429 125.146 77.1089 125.146 75.46C125.146 73.811 123.647 72.477 121.882 72.477L3.26417 72.477C1.49903 72.477 0 73.811 0 75.46C0 77.1089 1.49903 78.4429 3.26417 78.4429Z" fill="#000000" fill-opacity="0.85"/>
 </g>
</svg>
