<?xml version="1.0" encoding="UTF-8"?>
<!--Generator: Apple Native CoreSVG 232.5-->
<!DOCTYPE svg
PUBLIC "-//W3C//DTD SVG 1.1//EN"
       "http://www.w3.org/Graphics/SVG/1.1/DTD/svg11.dtd">
<svg version="1.1" xmlns="http://www.w3.org/2000/svg" xmlns:xlink="http://www.w3.org/1999/xlink" width="146.659" height="48.7178">
 <g>
  <rect height="48.7178" opacity="0" width="146.659" x="0" y="0"/>
  <path d="M73.354 16.4605C75.3926 16.4605 76.9937 17.5884 77.9448 19.6675L83.1577 31.186C88.8203 43.5064 98.9688 48.6538 110.403 48.6538C127.061 48.6538 138.747 38.603 141.242 20.4805L142.14 13.9263C142.965 8.09132 146.659 5.76466 146.659 3.22022C146.659 1.25977 145.261 0 142.482 0C127.329 0 113.803 0.766113 105.653 1.97168C88.6304 4.51416 81.8247 8.92725 73.354 8.92725C64.8345 8.92725 58.0288 4.51416 41.0059 1.97168C32.8565 0.766113 19.3306 0 4.21046 0C1.43164 0 0 1.25977 0 3.22022C0 5.76466 3.72803 8.09132 4.55323 13.9263L5.45069 20.4805C7.9126 38.603 19.5982 48.6538 36.2896 48.6538C47.7241 48.6538 57.8726 43.5064 63.5015 31.186L68.7481 19.6675C69.6655 17.5884 71.2666 16.4605 73.354 16.4605Z" fill="#000000" fill-opacity="0.85"/>
 </g>
</svg>
