<?xml version="1.0" encoding="UTF-8"?>
<!--Generator: Apple Native CoreSVG 232.5-->
<!DOCTYPE svg
PUBLIC "-//W3C//DTD SVG 1.1//EN"
       "http://www.w3.org/Graphics/SVG/1.1/DTD/svg11.dtd">
<svg version="1.1" xmlns="http://www.w3.org/2000/svg" xmlns:xlink="http://www.w3.org/1999/xlink" width="97.9595" height="97.9932">
 <g>
  <rect height="97.9932" opacity="0" width="97.9595" x="0" y="0"/>
  <path d="M48.9722 97.9443C75.8247 97.9443 97.9595 75.7759 97.9595 48.9722C97.9595 22.1348 75.791 0 48.9385 0C22.1348 0 0 22.1348 0 48.9722C0 75.7759 22.1685 97.9443 48.9722 97.9443ZM48.9722 91.6113C25.3501 91.6113 6.36671 72.5942 6.36671 48.9722C6.36671 25.3501 25.3164 6.31789 48.9385 6.31789C72.5605 6.31789 91.6265 25.3501 91.6265 48.9722C91.6265 72.5942 72.5942 91.6113 48.9722 91.6113Z" fill="#000000" fill-opacity="0.85"/>
  <path d="M22.1485 58.6255L29.4224 58.6255C30.6787 58.6255 31.6572 57.7481 31.6572 56.5254C31.6572 55.3667 30.6484 54.459 29.4224 54.459L22.1485 54.459C20.8735 54.459 19.9136 55.4004 19.9136 56.5254C19.9136 57.6655 20.8735 58.6255 22.1485 58.6255ZM33.6802 44.8574C34.5273 45.6895 35.915 45.7568 36.71 44.9282C37.5991 44.0391 37.4072 42.7002 36.6089 41.8682L31.4527 36.6968C30.5415 35.7857 29.2026 35.9136 28.4077 36.69C27.6128 37.5337 27.6128 38.7749 28.5239 39.6861ZM48.9385 38.1836C50.1274 38.1836 51.0689 37.19 51.0689 35.9976L51.0689 26.2866L50.9224 24.0259L51.9961 25.0996L55.4741 28.6753C55.8193 29.0391 56.4307 29.2866 56.9258 29.2866C58.0137 29.2866 58.8203 28.4463 58.8203 27.3921C58.8203 26.833 58.6738 26.3716 58.0693 25.8008L50.375 18.4282C49.9253 18.0122 49.4336 17.8135 48.9385 17.8135C48.4585 17.8135 47.9668 18.0122 47.5171 18.4282L39.8228 25.8008C39.2671 26.3565 39.0718 26.833 39.0718 27.3921C39.0718 28.4463 39.8784 29.2866 40.9663 29.2866C41.5068 29.2866 42.0693 29.0088 42.4668 28.6299L46.1655 24.9649L46.9697 24.1118L46.8232 26.2866L46.8232 35.9976C46.8232 37.19 47.7495 38.1836 48.9385 38.1836ZM61.2495 44.9282C62.0444 45.7232 63.3648 45.7232 64.2305 44.8574L69.3682 39.6861C70.2456 38.7749 70.2642 37.5337 69.4844 36.69C68.6895 35.8462 67.3506 35.8193 66.4394 36.6968L61.3169 41.8682C60.4512 42.7339 60.3267 44.0391 61.2495 44.9282ZM68.5034 58.6255L75.7436 58.6255C77.0674 58.6255 77.9785 57.7144 77.9785 56.5254C77.9785 55.3701 77.0674 54.459 75.7436 54.459L68.5034 54.459C67.2622 54.459 66.2349 55.3667 66.2349 56.5254C66.2349 57.7481 67.3076 58.6255 68.5034 58.6255ZM62.6338 57.1265C62.6338 49.6289 56.4512 43.4126 48.9385 43.4126C41.4746 43.4126 35.2583 49.6289 35.2583 57.1265C35.2583 58.9395 35.6724 60.6582 36.3726 62.3013L61.5195 62.3013C62.2197 60.6582 62.6338 58.9395 62.6338 57.1265ZM22.1148 69.2158L75.7773 69.2158C76.9663 69.2158 77.9785 68.3384 77.9785 67.1797C77.9785 65.9907 77 65.1133 75.7773 65.1133L22.1148 65.1133C20.9409 65.1133 19.9136 66.0059 19.9136 67.1797C19.9136 68.3384 20.9746 69.2158 22.1148 69.2158Z" fill="#000000" fill-opacity="0.85"/>
 </g>
</svg>
