<?xml version="1.0" encoding="UTF-8"?>
<!--Generator: Apple Native CoreSVG 232.5-->
<!DOCTYPE svg
PUBLIC "-//W3C//DTD SVG 1.1//EN"
       "http://www.w3.org/Graphics/SVG/1.1/DTD/svg11.dtd">
<svg version="1.1" xmlns="http://www.w3.org/2000/svg" xmlns:xlink="http://www.w3.org/1999/xlink" width="97.9595" height="97.9932">
 <g>
  <rect height="97.9932" opacity="0" width="97.9595" x="0" y="0"/>
  <path d="M97.9595 49.021C97.9595 75.8584 75.8247 97.9932 48.9722 97.9932C22.1685 97.9932 0 75.8584 0 49.021C0 22.2173 22.1348 0.0488281 48.9385 0.0488281C75.791 0.0488281 97.9595 22.2173 97.9595 49.021ZM21.5908 65.585C20.3984 65.585 19.3374 66.5112 19.3374 67.7188C19.3374 68.9111 20.4321 69.8223 21.5908 69.8223L76.3013 69.8223C77.5239 69.8223 78.5547 68.9111 78.5547 67.7188C78.5547 66.4961 77.5425 65.585 76.3013 65.585ZM34.9702 57.4448C34.9702 59.2915 35.3691 61.0625 36.1182 62.7056L61.7739 62.7056C62.5078 61.0625 62.9219 59.2915 62.9219 57.4448C62.9219 49.7974 56.6045 43.4951 48.9385 43.4951C41.3062 43.4951 34.9702 49.7974 34.9702 57.4448ZM21.6245 54.71C20.3311 54.71 19.3374 55.7036 19.3374 56.8774C19.3374 58.0361 20.3311 59.0112 21.6245 59.0112L28.9995 59.0112C30.3232 59.0112 31.3018 58.1001 31.3018 56.8774C31.3018 55.6699 30.293 54.71 28.9995 54.71ZM68.9263 54.71C67.6177 54.71 66.5903 55.6699 66.5903 56.8774C66.5903 58.1001 67.6631 59.0112 68.9263 59.0112L76.2676 59.0112C77.6099 59.0112 78.5547 58.0664 78.5547 56.8774C78.5547 55.6548 77.6099 54.71 76.2676 54.71ZM28 36.6192C27.2051 37.4966 27.2051 38.7564 28.1499 39.7349L33.3584 44.9736C34.2241 45.8057 35.6607 45.8731 36.4893 45.0108C37.3633 44.1367 37.1865 42.7305 36.3545 41.8496L31.1309 36.6109C30.186 35.666 28.8135 35.794 28 36.6192ZM66.7612 36.6109L61.5713 41.8496C60.6719 42.7642 60.5474 44.1367 61.4702 45.0108C62.2988 45.8394 63.6528 45.8394 64.5674 44.9736L69.7422 39.7349C70.6533 38.7564 70.687 37.4966 69.8921 36.6192C69.0786 35.7417 67.7061 35.6997 66.7612 36.6109ZM47.4834 17.9683L39.6357 25.4941C39.0801 26.0498 38.8848 26.5752 38.8848 27.1191C38.8848 28.2407 39.6914 29.0474 40.813 29.0474C41.3721 29.0474 41.9346 28.7695 42.3472 28.3906L46.0982 24.6582L46.9023 23.854L46.7559 26.0474L46.7559 35.8779C46.7559 37.1192 47.731 38.1465 48.9385 38.1465C50.1611 38.1465 51.1362 37.1192 51.1362 35.8779L51.1362 26.0474L50.9898 23.7529L52.0635 24.793L55.6089 28.436C55.939 28.8486 56.5503 29.0474 57.0791 29.0474C58.2007 29.0474 59.0073 28.2407 59.0073 27.1191C59.0073 26.5752 58.876 26.0801 58.2564 25.4941L50.4087 17.9683C49.959 17.5523 49.4336 17.3384 48.9385 17.3384C48.4585 17.3384 47.9331 17.5523 47.4834 17.9683Z" fill="#000000" fill-opacity="0.85"/>
 </g>
</svg>
