<?xml version="1.0" encoding="UTF-8"?>
<!--Generator: Apple Native CoreSVG 232.5-->
<!DOCTYPE svg
PUBLIC "-//W3C//DTD SVG 1.1//EN"
       "http://www.w3.org/Graphics/SVG/1.1/DTD/svg11.dtd">
<svg version="1.1" xmlns="http://www.w3.org/2000/svg" xmlns:xlink="http://www.w3.org/1999/xlink" width="116.963" height="123.041">
 <g>
  <rect height="123.041" opacity="0" width="116.963" x="0" y="0"/>
  <path d="M5.17217 117.866C10.9241 123.618 18.1985 124.552 28.1229 120.782C44.6053 114.424 63.4569 100.774 81.2205 83.0101C114.295 49.9359 124.583 24.869 111.385 11.6712C98.2025-1.5114 73.1019 8.743 40.0276 41.8172C22.264 59.5809 8.64727 78.4662 2.28936 94.9486C-1.51436 104.839-0.546094 112.114 5.17217 117.866ZM9.42169 113.65C5.04425 109.254 4.72101 103.013 8.29376 95.18C15.8201 78.9217 28.8675 61.3973 44.2132 46.0179C73.805 16.4261 96.4207 5.10825 107.151 15.8871C117.963 26.6507 106.612 49.2328 77.0198 78.8246C61.659 94.2039 44.116 107.218 27.8914 114.744C20.0589 118.335 13.784 118.027 9.42169 113.65ZM6.21173 114.423L8.61505 116.86L109.955 15.5536L107.503 13.1165Z" fill="#000000" fill-opacity="0.85"/>
 </g>
</svg>
