<?xml version="1.0" encoding="UTF-8"?>
<!--Generator: Apple Native CoreSVG 232.5-->
<!DOCTYPE svg
PUBLIC "-//W3C//DTD SVG 1.1//EN"
       "http://www.w3.org/Graphics/SVG/1.1/DTD/svg11.dtd">
<svg version="1.1" xmlns="http://www.w3.org/2000/svg" xmlns:xlink="http://www.w3.org/1999/xlink" width="169.152" height="140.26">
 <g>
  <rect height="140.26" opacity="0" width="169.152" x="0" y="0"/>
  <path d="M50.8145 93.8877C50.8145 101.345 44.9317 107.228 37.4409 107.228C30.0327 107.228 24.1162 101.311 24.1162 93.8877C24.1162 86.4458 30.0327 80.5293 37.4409 80.5293C44.898 80.5293 50.8145 86.4458 50.8145 93.8877ZM147.962 93.8877C147.962 101.311 142.045 107.228 134.588 107.228C127.18 107.228 121.264 101.311 121.264 93.8877C121.264 86.4795 127.214 80.5293 134.588 80.5293C142.045 80.5293 147.962 86.4458 147.962 93.8877ZM161.139 42.6968L163.306 45.874C167.057 51.3345 169.152 57.8023 169.152 63.7847L169.152 84.9824C169.152 93.3487 165.522 97.3799 157.794 97.3799L152.633 97.3799C152.862 96.2383 152.96 95.1118 152.96 93.8877C152.96 83.6841 144.807 75.5161 134.588 75.5161C124.452 75.5161 116.217 83.7178 116.217 93.8877C116.217 95.1118 116.363 96.2383 116.559 97.3799L55.4859 97.3799C55.7149 96.2383 55.8125 95.1118 55.8125 93.8877C55.8125 83.6841 47.6597 75.5161 37.4409 75.5161C27.271 75.5161 19.0693 83.6841 19.0693 93.8877C19.0693 95.1118 19.2158 96.2383 19.4111 97.3799L11.4219 97.3799C4.15772 97.3799 0 93.1245 0 85.6651L0 77.3877C0 64.7202 7.88867 57.4663 23.8125 55.4912L41.98 53.2451L61.5518 40.9673C64.6956 39.0005 67.5517 37.4283 70.4341 36.1919L70.4341 42.6655C70.4341 49.4634 74.6187 53.5806 80.9888 53.5806L104.912 53.5806C111.282 53.5806 115.467 49.4634 115.467 42.6655L115.467 31.8008L138.325 31.8008C149.002 31.8008 155.902 35.0571 161.139 42.6968Z" fill="#000000" fill-opacity="0.85"/>
  <path d="M79.8096 20.5776L84.874 20.544L84.874 13.437C84.874 8.13184 87.7276 5.06446 92.29 5.06446C96.8862 5.06446 99.6909 8.13184 99.6909 13.437L99.6909 20.544L104.755 20.5776L104.755 13.7925C104.755 5.52979 99.7241 0 92.29 0C84.8745 0 79.8096 5.52979 79.8096 13.7925ZM80.3301 47.8901L104.269 47.8901C107.574 47.8901 109.167 46.2451 109.167 42.6655L109.167 23.8379C109.167 20.228 107.574 18.6133 104.269 18.6133L80.3301 18.6133C77.0249 18.6133 75.4473 20.228 75.4473 23.8379L75.4473 42.6655C75.4473 46.2451 77.0249 47.8901 80.3301 47.8901Z" fill="#000000" fill-opacity="0.85"/>
 </g>
</svg>
