<?xml version="1.0" encoding="UTF-8"?>
<!--Generator: Apple Native CoreSVG 232.5-->
<!DOCTYPE svg
PUBLIC "-//W3C//DTD SVG 1.1//EN"
       "http://www.w3.org/Graphics/SVG/1.1/DTD/svg11.dtd">
<svg version="1.1" xmlns="http://www.w3.org/2000/svg" xmlns:xlink="http://www.w3.org/1999/xlink" width="169.152" height="119.404">
 <g>
  <rect height="119.404" opacity="0" width="169.152" x="0" y="0"/>
  <path d="M37.4409 96.7998C44.9317 96.7998 50.8145 90.917 50.8145 83.46C50.8145 76.0181 44.898 70.1016 37.4409 70.1016C30.0327 70.1016 24.1162 76.0181 24.1162 83.46C24.1162 90.8833 30.0327 96.7998 37.4409 96.7998ZM134.588 96.7998C142.045 96.7998 147.962 90.8833 147.962 83.46C147.962 76.0181 142.045 70.1016 134.588 70.1016C127.214 70.1016 121.264 76.0518 121.264 83.46C121.264 90.8833 127.18 96.7998 134.588 96.7998ZM163.306 35.4463L161.139 32.269C155.902 24.6294 149.002 21.373 138.325 21.373L100.689 21.373C80.9356 21.373 73.2271 23.2354 61.5518 30.5396L41.98 42.8174L23.8125 45.0635C7.88867 47.0386 0 54.2925 0 66.96L0 75.2373C0 82.6968 4.15772 86.9522 11.4219 86.9522L19.4111 86.9522C19.2158 85.8106 19.0693 84.6841 19.0693 83.46C19.0693 73.2564 27.271 65.0884 37.4409 65.0884C47.6597 65.0884 55.8125 73.2564 55.8125 83.46C55.8125 84.6841 55.7149 85.8106 55.4859 86.9522L116.559 86.9522C116.363 85.8106 116.217 84.6841 116.217 83.46C116.217 73.2901 124.452 65.0884 134.588 65.0884C144.807 65.0884 152.96 73.2564 152.96 83.46C152.96 84.6841 152.862 85.8106 152.633 86.9522L157.794 86.9522C165.522 86.9522 169.152 82.9209 169.152 74.5547L169.152 53.3569C169.152 47.3745 167.057 40.9067 163.306 35.4463ZM93.0786 64.292C90.0708 64.292 87.543 61.7676 87.543 58.8609C87.543 55.9238 89.9732 53.5122 93.0786 53.5122C96.1353 53.5122 98.6294 55.9238 98.6294 58.8609C98.6294 61.7676 96.1016 64.292 93.0786 64.292ZM93.0786 43.0454C91.209 43.0454 89.8599 41.6963 89.7925 39.7593L89.0547 4.02394C88.9873 1.60352 90.5908 0 93.0786 0C95.5816 0 97.1851 1.60352 97.1177 4.02394L96.3462 39.7593C96.2788 41.6963 94.9634 43.0454 93.0786 43.0454Z" fill="#000000" fill-opacity="0.85"/>
 </g>
</svg>
