<?xml version="1.0" encoding="UTF-8"?>
<!--Generator: Apple Native CoreSVG 232.5-->
<!DOCTYPE svg
PUBLIC "-//W3C//DTD SVG 1.1//EN"
       "http://www.w3.org/Graphics/SVG/1.1/DTD/svg11.dtd">
<svg version="1.1" xmlns="http://www.w3.org/2000/svg" xmlns:xlink="http://www.w3.org/1999/xlink" width="169.152" height="130.785">
 <g>
  <rect height="130.785" opacity="0" width="169.152" x="0" y="0"/>
  <path d="M161.139 37.9595L163.306 41.1367C167.057 46.5972 169.152 53.065 169.152 59.0474L169.152 80.2451C169.152 88.6114 165.522 92.6426 157.794 92.6426L149.932 92.6426C147.896 99.0767 141.952 103.609 134.757 103.609C127.55 103.609 121.613 99.0767 119.581 92.6426L52.6171 92.6426C50.5845 99.0767 44.648 103.609 37.4409 103.609C30.246 103.609 24.3119 99.0767 22.2798 92.6426L11.4219 92.6426C4.15772 92.6426 0 88.3872 0 80.9278L0 72.6504C0 59.9829 7.88867 52.729 23.8125 50.7539L41.98 48.5078L61.5518 36.23C69.5268 31.2407 75.651 28.7906 85.0327 27.741L85.1603 33.8059C77.0622 34.7765 71.8646 36.9659 64.7671 41.3941L44.0449 54.3355L24.5957 56.7652C11.874 58.3731 6.04494 63.4258 6.04494 72.6504L6.04494 80.2842C6.04494 84.3887 8.05177 86.5977 11.71 86.5977L21.5666 86.5977C22.0896 78.1695 28.8709 71.7393 37.4409 71.7393C46.0255 71.7393 52.8073 78.1695 53.3304 86.5977L118.867 86.5977C119.39 78.1695 126.172 71.7393 134.757 71.7393C143.327 71.7393 150.122 78.1695 150.646 86.5977L157.491 86.5977C161.381 86.5977 163.107 84.6245 163.107 80.5669L163.107 59.0474C163.107 54.1665 161.41 49.0899 158.31 44.5659L156.143 41.3921C152.124 35.5581 146.908 33.1084 138.325 33.1084L103.34 33.1084L103.47 27.0635L138.325 27.0635C149.002 27.0635 155.902 30.3198 161.139 37.9595ZM27.5435 87.6817C27.5435 93.2525 31.8701 97.5791 37.4409 97.5791C43.0269 97.5791 47.3384 93.2525 47.3384 87.6817C47.3384 82.0957 43.0269 77.7691 37.4409 77.7691C31.8701 77.7691 27.5435 82.0957 27.5435 87.6817ZM124.859 87.6817C124.859 93.2525 129.186 97.5791 134.757 97.5791C140.328 97.5791 144.654 93.2525 144.654 87.6817C144.654 82.0957 140.328 77.7691 134.757 77.7691C129.186 77.7691 124.859 82.0957 124.859 87.6817Z" fill="#000000" fill-opacity="0.85"/>
  <path d="M94.2481 68.5606C97.2036 68.5606 99.6304 66.1035 99.6304 63.2979C99.6304 60.4131 97.2373 58.0689 94.2481 58.0689C91.2622 58.0689 88.8506 60.4131 88.8506 63.2979C88.8506 66.1035 91.3262 68.5606 94.2481 68.5606ZM94.2481 47.8042C96.0503 47.8042 97.3809 46.4888 97.4483 44.604L98.1861 9.59474C98.2534 7.22657 96.6685 5.69044 94.2481 5.69044C91.8125 5.69044 90.2764 7.22657 90.3438 9.59474L91.0816 44.604C91.1489 46.4888 92.4307 47.8042 94.2481 47.8042Z" fill="#000000" fill-opacity="0.85"/>
 </g>
</svg>
