<?xml version="1.0" encoding="UTF-8"?>
<!--Generator: Apple Native CoreSVG 232.5-->
<!DOCTYPE svg
PUBLIC "-//W3C//DTD SVG 1.1//EN"
       "http://www.w3.org/Graphics/SVG/1.1/DTD/svg11.dtd">
<svg version="1.1" xmlns="http://www.w3.org/2000/svg" xmlns:xlink="http://www.w3.org/1999/xlink" width="152.722" height="113.774">
 <g>
  <rect height="113.774" opacity="0" width="152.722" x="0" y="0"/>
  <path d="M33.1177 34.4124L43.0494 40.1477L46.066 34.95L36.3028 29.3308C34.2491 28.1272 33.899 26.4841 35.3013 24.0632L38.1299 19.0711C41.3878 13.3298 46.6544 12.3787 55.2613 16.0305L69.0567 21.843L87.587 21.1594C96.9874 20.8665 101.562 22.2673 113.715 29.2263L138.267 43.3836C143.698 46.5203 146.013 49.7932 146.422 54.9168L146.618 57.7708C146.896 61.7761 146.178 65.5159 144.409 68.6306L136.315 82.5872C134.921 85.0183 133.611 85.4509 131.389 84.1463L123.463 79.6199L120.431 84.8479L128.541 89.4973C133.952 92.6682 138.283 91.2537 141.666 85.3982L149.591 71.6135C151.927 67.6111 152.993 62.4314 152.632 57.3176L152.403 54.4485C151.844 47.238 148.453 42.2776 141.25 38.1672L116.698 23.9763C103.74 16.5188 97.9171 14.7878 87.3697 15.1448L70.1734 15.7795L57.626 10.4353C46.2095 5.64135 37.8946 7.45825 32.9322 16.0881L29.8003 21.4543C26.7676 26.6677 28.0357 31.511 33.1177 34.4124ZM57.3384 48.384L106.363 76.7127L109.379 71.5486L60.3516 43.1711ZM45.9229 51.3445C52.128 54.9446 59.7711 52.8801 63.3072 46.697C66.9073 40.5071 64.8277 32.8792 58.6749 29.3279C52.4698 25.7766 44.8755 27.7888 41.2906 33.9602C37.7393 40.1467 39.7852 47.8084 45.9229 51.3445ZM49.0035 46.1619C45.6163 44.2595 44.5372 40.3455 46.522 37.0408C48.4244 33.6873 52.3536 32.6082 55.6768 34.5408C59.064 36.4954 60.1094 40.3909 58.1246 43.6804C56.2222 47.1013 52.3419 48.1467 49.0035 46.1619ZM109.378 87.9988C115.565 91.5652 123.208 89.4856 126.796 83.3665C130.314 77.1277 128.249 69.5335 122.111 65.9788C115.925 62.4309 108.282 64.4094 104.727 70.6633C101.21 76.7674 103.222 84.429 109.378 87.9988ZM112.41 82.7825C109.056 80.8801 108.007 76.9661 109.943 73.6277C111.861 70.2742 115.76 69.2288 119.162 71.1614C122.501 73.116 123.516 77.0115 121.595 80.301C119.628 83.7219 115.763 84.7673 112.41 82.7825Z" fill="#000000" fill-opacity="0.85"/>
  <path d="M0.423377 38.6306C-0.442348 40.1296 0.0747435 41.9622 1.4727 42.7942L123.786 113.395C125.135 114.179 126.986 113.71 127.818 112.327C128.65 110.798 128.118 108.917 126.769 108.134L4.45561 37.5476C3.10649 36.7644 1.20658 37.2478 0.423377 38.6306ZM18.4136 20.5999L27.8081 4.40063C29.1841 2.01244 27.3365-0.0944943 24.8389 0.343496L9.97903 2.48266C8.04251 2.76733 7.17532 4.30639 7.8926 6.14868L13.4419 20.0491C14.3311 22.4524 17.0528 22.9544 18.4136 20.5999Z" fill="#000000" fill-opacity="0.85"/>
 </g>
</svg>
