<?xml version="1.0" encoding="UTF-8"?>
<!--Generator: Apple Native CoreSVG 232.5-->
<!DOCTYPE svg
PUBLIC "-//W3C//DTD SVG 1.1//EN"
       "http://www.w3.org/Graphics/SVG/1.1/DTD/svg11.dtd">
<svg version="1.1" xmlns="http://www.w3.org/2000/svg" xmlns:xlink="http://www.w3.org/1999/xlink" width="169.152" height="116.043">
 <g>
  <rect height="116.043" opacity="0" width="169.152" x="0" y="0"/>
  <path d="M50.8145 81.7794C50.8145 89.2365 44.9317 95.1193 37.4409 95.1193C30.0327 95.1193 24.1162 89.2028 24.1162 81.7794C24.1162 74.3375 30.0327 68.421 37.4409 68.421C44.898 68.421 50.8145 74.3375 50.8145 81.7794ZM147.962 81.7794C147.962 89.2028 142.045 95.1193 134.588 95.1193C127.18 95.1193 121.264 89.2028 121.264 81.7794C121.264 74.3712 127.214 68.421 134.588 68.421C142.045 68.421 147.962 74.3375 147.962 81.7794ZM161.139 30.5885L163.306 33.7658C167.057 39.2262 169.152 45.694 169.152 51.6764L169.152 72.8742C169.152 81.2404 165.522 85.2716 157.794 85.2716L152.633 85.2716C152.862 84.13 152.96 83.0036 152.96 81.7794C152.96 71.5758 144.807 63.4079 134.588 63.4079C124.452 63.4079 116.217 71.6095 116.217 81.7794C116.217 83.0036 116.363 84.13 116.559 85.2716L55.4859 85.2716C55.7149 84.13 55.8125 83.0036 55.8125 81.7794C55.8125 71.5758 47.6597 63.4079 37.4409 63.4079C27.271 63.4079 19.0693 71.5758 19.0693 81.7794C19.0693 83.0036 19.2158 84.13 19.4111 85.2716L11.4219 85.2716C4.15772 85.2716 0 81.0163 0 73.5568L0 65.2794C0 52.6119 7.88867 45.358 23.8125 43.3829L41.98 41.1368L61.5518 28.859C73.2271 21.5548 80.9356 19.6925 100.689 19.6925L138.325 19.6925C149.002 19.6925 155.902 22.9489 161.139 30.5885ZM83.7568 51.8107L73.1646 69.2203C72.0059 71.1217 72.8867 73.0431 75.1753 73.0431L96.9795 73.0431C99.2344 73.0431 100.198 71.1705 99.0239 69.2843L88.334 51.8107C87.2124 49.965 84.9273 49.9161 83.7568 51.8107Z" fill="#000000" fill-opacity="0.85"/>
  <path d="M99.0239 97.1935L88.334 114.633C87.2124 116.464 84.9273 116.562 83.7568 114.633L73.1646 97.2086C72.0059 95.3224 72.8867 93.3859 75.1753 93.3859L96.9795 93.3859C99.2344 93.3859 100.198 95.2921 99.0239 97.1935Z" fill="#000000" fill-opacity="0.85"/>
 </g>
</svg>
