<?xml version="1.0" encoding="UTF-8"?>
<!--Generator: Apple Native CoreSVG 232.5-->
<!DOCTYPE svg
PUBLIC "-//W3C//DTD SVG 1.1//EN"
       "http://www.w3.org/Graphics/SVG/1.1/DTD/svg11.dtd">
<svg version="1.1" xmlns="http://www.w3.org/2000/svg" xmlns:xlink="http://www.w3.org/1999/xlink" width="169.152" height="76.6582">
 <g>
  <rect height="76.6582" opacity="0" width="169.152" x="0" y="0"/>
  <path d="M11.4219 65.5791L25.6992 65.5791L25.6992 59.5342L11.71 59.5342C8.05177 59.5342 6.04494 57.3252 6.04494 53.2207L6.04494 45.5869C6.04494 36.3623 11.874 31.3096 24.5957 29.7017L44.0449 27.272L64.7671 14.3306C75.543 7.60744 81.9395 6.04494 100.689 6.04494L138.325 6.04494C146.908 6.04494 152.124 8.49464 156.143 14.3286L158.31 17.5025C161.41 22.0264 163.107 27.103 163.107 31.9839L163.107 53.5034C163.107 57.561 161.381 59.5342 157.491 59.5342L146.372 59.5342L146.372 65.5791L157.794 65.5791C165.522 65.5791 169.152 61.5479 169.152 53.1816L169.152 31.9839C169.152 26.0015 167.057 19.5337 163.306 14.0732L161.139 10.896C155.902 3.25635 149.002 0 138.325 0L100.689 0C80.9356 0 73.2271 1.86231 61.5518 9.16651L41.98 21.4443L23.8125 23.6904C7.88867 25.6655 0 32.9194 0 45.5869L0 53.8643C0 61.3237 4.15772 65.5791 11.4219 65.5791ZM49.523 65.5791L122.836 65.5791L122.836 59.5342L49.523 59.5342ZM37.4409 76.5454C46.3921 76.5454 53.3833 69.5542 53.3833 60.6182C53.3833 51.667 46.3921 44.6758 37.4409 44.6758C28.5049 44.6758 21.5137 51.667 21.5137 60.6182C21.5137 69.5542 28.5049 76.5454 37.4409 76.5454ZM37.4409 70.5156C31.8701 70.5156 27.5435 66.189 27.5435 60.6182C27.5435 55.0322 31.8701 50.7056 37.4409 50.7056C43.0269 50.7056 47.3384 55.0322 47.3384 60.6182C47.3384 66.189 43.0269 70.5156 37.4409 70.5156ZM134.757 76.5454C143.693 76.5454 150.699 69.5542 150.699 60.6182C150.699 51.667 143.693 44.6758 134.757 44.6758C125.806 44.6758 118.814 51.667 118.814 60.6182C118.814 69.5542 125.806 76.5454 134.757 76.5454ZM134.757 70.5156C129.186 70.5156 124.859 66.189 124.859 60.6182C124.859 55.0322 129.186 50.7056 134.757 50.7056C140.328 50.7056 144.654 55.0322 144.654 60.6182C144.654 66.189 140.328 70.5156 134.757 70.5156Z" fill="#000000" fill-opacity="0.85"/>
 </g>
</svg>
