<?xml version="1.0" encoding="UTF-8"?>
<!--Generator: Apple Native CoreSVG 232.5-->
<!DOCTYPE svg
PUBLIC "-//W3C//DTD SVG 1.1//EN"
       "http://www.w3.org/Graphics/SVG/1.1/DTD/svg11.dtd">
<svg version="1.1" xmlns="http://www.w3.org/2000/svg" xmlns:xlink="http://www.w3.org/1999/xlink" width="107.333" height="97.9932">
 <g>
  <rect height="97.9932" opacity="0" width="107.333" x="0" y="0"/>
  <path d="M58.3575 97.9443C85.1612 97.9443 107.33 75.7759 107.33 48.9722C107.33 22.1348 85.1612 0 58.3575 0C31.5201 0 9.38533 22.1011 9.38533 48.9385L15.7032 48.9385C15.7032 25.3164 34.7354 6.35158 58.3575 6.35158C81.9796 6.35158 101.012 25.3501 101.012 48.9722C101.012 72.5942 81.9796 91.6787 58.3575 91.6113C43.5182 91.5928 30.6148 84.0068 22.9474 72.5923C21.8121 71.0444 20.047 70.561 18.4806 71.479C16.9967 72.397 16.5655 74.4165 17.8018 76.0655C26.943 89.0161 41.5392 97.9443 58.3575 97.9443ZM2.84969 40.0024C7.79875e-05 40.0024-0.788009 41.9561 0.828693 44.2666L11.4786 59.4307C12.8326 61.3438 14.7677 61.3101 16.1031 59.4307L26.753 44.2329C28.336 41.9561 27.5479 40.0024 24.7169 40.0024Z" fill="#000000" fill-opacity="0.85"/>
  <path d="M42.67 69.2007C44.0645 69.2007 45.193 68.0723 45.193 66.6777L45.193 58.4942L48.0533 55.75L56.6929 67.8296C57.754 69.374 59.3658 69.4414 60.4117 68.6953C61.3414 67.9829 61.8551 66.5884 60.7149 64.98L51.7686 52.5366L60.5938 43.4151C61.7037 42.2564 61.4225 40.9326 60.6275 40.2202C59.7501 39.3394 58.172 39.0884 57.0284 40.4004L45.3546 53.0527L45.193 53.0527L45.193 30.9653C45.193 29.5708 44.0645 28.4087 42.67 28.4087C41.2906 28.4087 40.1285 29.5708 40.1285 30.9653L40.1285 66.6777C40.1285 68.0723 41.2906 69.2007 42.67 69.2007ZM69.3917 69.2798C70.7491 69.2798 71.8438 68.1851 71.8438 66.8276L71.8438 51.7676C71.8438 47.8853 73.3219 44.5283 77.2379 44.5283C78.2433 44.5283 79.3126 44.375 79.9879 43.9673C80.6192 43.6792 80.9913 43.0679 80.9913 42.2461C80.9913 41.4058 80.7135 40.7944 80.2218 40.3784C79.6207 39.853 78.7755 39.6509 77.8409 39.6509C74.7984 39.6509 72.5357 42.1397 71.859 45.3857L71.6939 45.3857L71.6939 41.8775C71.6939 40.584 70.6329 39.5566 69.3243 39.5566C68.0157 39.5566 66.9547 40.584 66.9547 41.8775L66.9547 66.8276C66.9547 68.1851 68.0494 69.2798 69.3917 69.2798Z" fill="#000000" fill-opacity="0.85"/>
 </g>
</svg>
