<?xml version="1.0" encoding="UTF-8"?>
<!--Generator: Apple Native CoreSVG 232.5-->
<!DOCTYPE svg
PUBLIC "-//W3C//DTD SVG 1.1//EN"
       "http://www.w3.org/Graphics/SVG/1.1/DTD/svg11.dtd">
<svg version="1.1" xmlns="http://www.w3.org/2000/svg" xmlns:xlink="http://www.w3.org/1999/xlink" width="97.9595" height="97.9932">
 <g>
  <rect height="97.9932" opacity="0" width="97.9595" x="0" y="0"/>
  <path d="M48.9722 97.9443C75.8247 97.9443 97.9595 75.7759 97.9595 48.9722C97.9595 22.1348 75.791 0 48.9385 0C22.1348 0 0 22.1348 0 48.9722C0 75.7759 22.1685 97.9443 48.9722 97.9443ZM48.9722 91.6113C25.3501 91.6113 6.36671 72.5942 6.36671 48.9722C6.36671 25.3501 25.3164 6.31789 48.9385 6.31789C72.5605 6.31789 91.6265 25.3501 91.6265 48.9722C91.6265 72.5942 72.5942 91.6113 48.9722 91.6113Z" fill="#000000" fill-opacity="0.85"/>
  <path d="M33.2661 69.2007C34.6455 69.2007 35.8076 68.0723 35.8076 66.6777L35.8076 58.4942L38.668 55.75L47.3076 67.8296C48.335 69.374 49.9468 69.4414 51.0264 68.6953C51.9712 67.9829 52.436 66.5884 51.2959 64.98L42.3496 52.5366L51.1748 43.4151C52.2847 42.2564 52.0034 40.9326 51.2085 40.2202C50.3311 39.3394 48.7866 39.0884 47.6094 40.4004L35.9356 53.0527L35.8076 53.0527L35.8076 30.9653C35.8076 29.5708 34.6455 28.4087 33.2661 28.4087C31.8716 28.4087 30.7432 29.5708 30.7432 30.9653L30.7432 66.6777C30.7432 68.0723 31.8716 69.2007 33.2661 69.2007ZM59.9727 69.2798C61.3638 69.2798 62.4248 68.1851 62.4248 66.8276L62.4248 51.7676C62.4248 47.8853 63.9028 44.5283 67.8189 44.5283C68.8242 44.5283 69.9273 44.375 70.6026 43.9673C71.2002 43.6792 71.606 43.0679 71.606 42.2461C71.606 41.4058 71.3281 40.7944 70.8364 40.3784C70.2017 39.853 69.3565 39.6509 68.4556 39.6509C65.3945 39.6509 63.1167 42.1397 62.4736 45.3857L62.2749 45.3857L62.2749 41.8775C62.2749 40.584 61.2139 39.5566 59.9053 39.5566C58.5967 39.5566 57.5693 40.584 57.5693 41.8775L57.5693 66.8276C57.5693 68.1851 58.6304 69.2798 59.9727 69.2798Z" fill="#000000" fill-opacity="0.85"/>
 </g>
</svg>
