<?xml version="1.0" encoding="UTF-8"?>
<!--Generator: Apple Native CoreSVG 232.5-->
<!DOCTYPE svg
PUBLIC "-//W3C//DTD SVG 1.1//EN"
       "http://www.w3.org/Graphics/SVG/1.1/DTD/svg11.dtd">
<svg version="1.1" xmlns="http://www.w3.org/2000/svg" xmlns:xlink="http://www.w3.org/1999/xlink" width="106.863" height="95.8779">
 <g>
  <rect height="95.8779" opacity="0" width="106.863" x="0" y="0"/>
  <path d="M0 61.2095C8.11231 74.4067 29.2114 94.7549 57.6904 94.7549C75.8076 94.7549 80.8101 86.3159 91.3032 86.3159C100.084 86.3159 103.569 92.1973 104.906 94.4956C105.282 95.2432 105.965 95.7163 106.341 94.3154C106.585 93.29 106.863 91.9531 106.863 90.3233C106.863 85.6812 105.428 76.8667 97.7217 67.1885C99.4155 62.4487 99.6109 57.2022 99.6109 54.1226C99.6109 40.1104 91.6939 15.7212 65.5772 0C71.0191 7.67285 78.3013 19.3867 78.3013 35.5659C78.3013 41.4473 76.7051 47.9146 75.4019 51.1255C61.2095 42.9121 34.0186 20.2656 23.1685 8.68311C31.8853 22.0908 42.2134 34.229 53.6831 46.9531C38.2549 37.1621 23.916 26.2783 10.5571 14.3203C23.3638 32.9258 39.5581 51.2383 60.9653 68.5254C54.8398 71.9468 48.5679 74.6021 37.7817 74.6021C24.7158 74.6021 8.7168 68.2813 0 61.2095Z" fill="#000000" fill-opacity="0.85"/>
 </g>
</svg>
