<?xml version="1.0" encoding="UTF-8"?>
<!--Generator: Apple Native CoreSVG 232.5-->
<!DOCTYPE svg
PUBLIC "-//W3C//DTD SVG 1.1//EN"
       "http://www.w3.org/Graphics/SVG/1.1/DTD/svg11.dtd">
<svg version="1.1" xmlns="http://www.w3.org/2000/svg" xmlns:xlink="http://www.w3.org/1999/xlink" width="91.1323" height="91.002">
 <g>
  <rect height="91.002" opacity="0" width="91.1323" x="0" y="0"/>
  <path d="M20.0659 90.7041L71.0513 90.7041C82.3208 90.7041 91.1323 82.8257 91.1323 71.4531C91.1323 60.0806 82.3208 52.2173 71.0513 52.2173L20.0659 52.2173C8.81153 52.2173 0 60.0806 0 71.4531C0 82.8257 8.81153 90.7041 20.0659 90.7041ZM72.3208 84.8599C64.8775 84.8262 58.9932 78.8442 58.9932 71.4497C58.9932 64.0737 64.9263 58.1221 72.3208 58.1221C79.7305 58.1221 85.731 64.0552 85.6973 71.3857C85.6636 78.8594 79.6665 84.8936 72.3208 84.8599Z" fill="#000000" fill-opacity="0.85"/>
  <path d="M22.083 34.2314C29.0732 34.2651 34.73 28.5679 34.7637 21.5171C34.7822 14.5606 29.1187 8.94923 22.083 8.94923C15.0776 8.94923 9.46632 14.5942 9.46632 21.5659C9.46632 28.5713 15.0625 34.1978 22.083 34.2314Z" fill="#000000" fill-opacity="0.85"/>
  <path d="M22.0679 43.1992L69.0645 43.1992C81.1323 43.1992 91.1323 34.3965 91.1323 21.5996C91.1323 8.80274 81.1323 0 69.0645 0L22.0679 0C10 0 0 8.80274 0 21.5996C0 34.3965 10 43.1992 22.0679 43.1992ZM22.0679 37.4912C13.4107 37.4912 5.72316 30.9858 5.72316 21.5996C5.72316 12.2134 13.4107 5.70802 22.0679 5.70802L69.0645 5.70802C77.7217 5.70802 85.4092 12.2134 85.4092 21.5996C85.4092 30.9858 77.7217 37.4912 69.0645 37.4912Z" fill="#000000" fill-opacity="0.85"/>
 </g>
</svg>
