<?xml version="1.0" encoding="UTF-8"?>
<!--Generator: Apple Native CoreSVG 232.5-->
<!DOCTYPE svg
PUBLIC "-//W3C//DTD SVG 1.1//EN"
       "http://www.w3.org/Graphics/SVG/1.1/DTD/svg11.dtd">
<svg version="1.1" xmlns="http://www.w3.org/2000/svg" xmlns:xlink="http://www.w3.org/1999/xlink" width="68.6909" height="106.294">
 <g>
  <rect height="106.294" opacity="0" width="68.6909" x="0" y="0"/>
  <path d="M68.6909 14.4356L68.6909 91.919C68.6909 101.458 63.855 106.294 54.417 106.294L14.2739 106.294C4.80225 106.294 0 101.458 0 91.919L0 14.4356C0 4.93018 4.80225 0.0419915 14.2739 0.0419915L54.417 0.0419915C63.855 0.0419915 68.6909 4.93018 68.6909 14.4356ZM16.4033 63.2876C12.8814 63.2876 11.2451 64.8901 11.2451 68.3935L11.2451 90.2646C11.2451 93.8018 12.8814 95.3706 16.4033 95.3706L52.1191 95.3706C55.6899 95.3706 57.3262 93.8018 57.3262 90.2646L57.3262 68.3935C57.3262 64.8901 55.6899 63.2876 52.1191 63.2876ZM16.4033 10.9839C12.8814 10.9839 11.2451 12.5528 11.2451 16.0899L11.2451 37.961C11.2451 41.4644 12.8814 43.0669 16.4033 43.0669L52.1191 43.0669C55.6899 43.0669 57.3262 41.4644 57.3262 37.961L57.3262 16.0899C57.3262 12.5528 55.6899 10.9839 52.1191 10.9839Z" fill="#000000" fill-opacity="0.85"/>
 </g>
</svg>
