<?xml version="1.0" encoding="UTF-8"?>
<!--Generator: Apple Native CoreSVG 232.5-->
<!DOCTYPE svg
PUBLIC "-//W3C//DTD SVG 1.1//EN"
       "http://www.w3.org/Graphics/SVG/1.1/DTD/svg11.dtd">
<svg version="1.1" xmlns="http://www.w3.org/2000/svg" xmlns:xlink="http://www.w3.org/1999/xlink" width="109.013" height="108.093">
 <g>
  <rect height="108.093" opacity="0" width="109.013" x="0" y="0"/>
  <path d="M0.798541 107.249C1.82931 108.231 3.48995 108.212 4.52072 107.182L27.594 84.0781L23.9055 80.356L0.798541 103.463C-0.232223 104.509-0.299606 106.203 0.798541 107.249ZM63.9655 19.5571L56.7165 26.8364L68.5398 38.6934C69.2824 39.4512 69.2824 40.7227 68.5398 41.4468C67.7482 42.1895 66.6267 42.1895 65.8503 41.4468L53.9631 29.5596L46.5451 36.9775L58.3986 48.8311C59.175 49.6074 59.175 50.8115 58.4323 51.5391C57.6257 52.3306 56.4855 52.2666 55.7092 51.5391L43.8557 39.6821L36.3552 47.1338L48.2424 59.021C48.9851 59.7637 49.0188 60.9526 48.2761 61.6953C47.4846 62.4868 46.3293 62.4868 45.5529 61.6953L33.6809 49.8233L26.2629 57.29L38.135 69.0796C38.8591 69.8071 38.8625 71.0415 38.1687 71.7993C37.4074 72.6431 36.2067 72.6431 35.3967 71.833L23.5432 59.9795L17.6154 65.8735C12.9494 70.5547 12.9157 76.2139 17.361 80.7266L27.3884 90.7876C31.8674 95.2666 37.594 95.1319 42.2751 90.4507L88.5578 44.1494ZM61.9963 11.2656L96.9167 46.1861C98.0822 47.3516 99.9821 47.3516 101.148 46.1861C102.347 45.0054 102.347 43.0567 101.148 41.8911L95.9988 36.7271L98.5153 34.2105C99.6809 33.0449 99.7146 31.145 98.5305 29.9946L90.6784 22.1577L97.8264 14.9946L103.867 21.0357C105.048 22.2012 106.963 22.1861 108.114 21.0357C109.313 19.8364 109.313 17.9214 108.114 16.7407L92.2722 0.899416C91.0915-0.299805 89.1765-0.299805 87.9773 0.899416C86.8269 2.04981 86.8117 3.97999 87.9773 5.14552L94.0368 11.1714L86.8889 18.3193L78.2028 9.63331C77.0525 8.48291 75.0886 8.46778 73.9231 9.63331L71.4216 12.1348L66.2912 7.03467C65.0583 5.76806 63.1618 5.82031 61.9963 7.03467C60.8308 8.2002 60.7634 10.0327 61.9963 11.2656Z" fill="#000000" fill-opacity="0.85"/>
 </g>
</svg>
