<?xml version="1.0" encoding="UTF-8"?>
<!--Generator: Apple Native CoreSVG 232.5-->
<!DOCTYPE svg
PUBLIC "-//W3C//DTD SVG 1.1//EN"
       "http://www.w3.org/Graphics/SVG/1.1/DTD/svg11.dtd">
<svg version="1.1" xmlns="http://www.w3.org/2000/svg" xmlns:xlink="http://www.w3.org/1999/xlink" width="88.4092" height="88.5371">
 <g>
  <rect height="88.5371" opacity="0" width="88.4092" x="0" y="0"/>
  <path d="M88.4092 14.4019L88.4092 74.2632C88.4092 83.6558 83.5733 88.5371 74.0005 88.5371L14.3936 88.5371C4.86963 88.5371 0 83.7349 0 74.2632L0 14.4019C0 4.93018 4.86963 0.127929 14.3936 0.127929L74.0005 0.127929C83.5733 0.127929 88.4092 5.00928 88.4092 14.4019ZM28.1978 21.6074C26.6685 21.6074 25.5063 22.5859 25.5063 24.2315C25.5063 25.7793 26.6685 26.8403 28.1978 26.8403L40.96 26.8403L40.96 63.5811C40.96 65.6006 42.0547 67.0508 44.0557 67.0508C46.0718 67.0508 47.1699 65.668 47.1699 63.5811L47.1699 26.8403L60.23 26.8403C61.7744 26.8403 62.9214 25.7793 62.9214 24.2315C62.9214 22.5859 61.7744 21.6074 60.23 21.6074Z" fill="#000000" fill-opacity="0.85"/>
 </g>
</svg>
