<?xml version="1.0" encoding="UTF-8"?>
<!--Generator: Apple Native CoreSVG 232.5-->
<!DOCTYPE svg
PUBLIC "-//W3C//DTD SVG 1.1//EN"
       "http://www.w3.org/Graphics/SVG/1.1/DTD/svg11.dtd">
<svg version="1.1" xmlns="http://www.w3.org/2000/svg" xmlns:xlink="http://www.w3.org/1999/xlink" width="114.35" height="88.4766">
 <g>
  <rect height="88.4766" opacity="0" width="114.35" x="0" y="0"/>
  <path d="M0 63.0093L0 56.9795L54.1768 56.9795L54.1768 31.5947L0 31.5947L0 25.5498L54.1768 25.5498L54.1768 0.0825197L60.2066 0.0825197L60.2066 25.5498L114.35 25.5498L114.35 31.5947L60.2066 31.5947L60.2066 56.9795L114.35 56.9795L114.35 63.0093L60.2066 63.0093L60.2066 88.4766L54.1768 88.4766L54.1768 63.0093ZM14.3936 88.4766L99.9409 88.4766C109.514 88.4766 114.35 83.6104 114.35 74.2178L114.35 14.3228C114.35 4.93018 109.514 0.0825197 99.9409 0.0825197L14.3936 0.0825197C4.86963 0.0825197 0 4.88477 0 14.3228L0 74.2178C0 83.6406 4.86963 88.4766 14.3936 88.4766Z" fill="#000000" fill-opacity="0.85"/>
 </g>
</svg>
