<?xml version="1.0" encoding="UTF-8"?>
<!--Generator: Apple Native CoreSVG 232.5-->
<!DOCTYPE svg
PUBLIC "-//W3C//DTD SVG 1.1//EN"
       "http://www.w3.org/Graphics/SVG/1.1/DTD/svg11.dtd">
<svg version="1.1" xmlns="http://www.w3.org/2000/svg" xmlns:xlink="http://www.w3.org/1999/xlink" width="88.4092" height="88.5371">
 <g>
  <rect height="88.5371" opacity="0" width="88.4092" x="0" y="0"/>
  <path d="M88.4092 14.4019L88.4092 74.2632C88.4092 83.6558 83.5733 88.5371 74.0005 88.5371L14.3936 88.5371C4.86963 88.5371 0 83.7349 0 74.2632L0 14.4019C0 4.93018 4.86963 0.127929 14.3936 0.127929L74.0005 0.127929C83.5733 0.127929 88.4092 5.00928 88.4092 14.4019ZM49.4888 18.8564C46.7188 18.8564 45.4424 20.0606 43.6743 21.8623L19.1328 46.606C16.4771 49.292 16.5073 51.8467 19.084 54.4048L34.873 70.2612C37.4648 72.8042 40.0684 72.8833 42.7544 70.2275L67.5435 45.6372C69.3115 43.8994 70.5493 42.6416 70.5493 39.7891L70.5493 30.2441C70.5493 28.1006 69.9937 26.9033 68.5371 25.4468L64.0855 21.0894C62.6289 19.6968 61.4316 18.8564 59.3218 18.8564ZM58.4243 30.8721C59.7495 32.1182 59.7192 34.2129 58.4092 35.5381C57.1597 36.8667 55.0347 36.8364 53.8037 35.5718C52.4785 34.3257 52.4785 32.2427 53.8037 30.8721C55.0195 29.5772 57.1294 29.5772 58.4243 30.8721Z" fill="#000000" fill-opacity="0.85"/>
 </g>
</svg>
