<?xml version="1.0" encoding="UTF-8"?>
<!--Generator: Apple Native CoreSVG 232.5-->
<!DOCTYPE svg
PUBLIC "-//W3C//DTD SVG 1.1//EN"
       "http://www.w3.org/Graphics/SVG/1.1/DTD/svg11.dtd">
<svg version="1.1" xmlns="http://www.w3.org/2000/svg" xmlns:xlink="http://www.w3.org/1999/xlink" width="107.759" height="113.286">
 <g>
  <rect height="113.286" opacity="0" width="107.759" x="0" y="0"/>
  <path d="M73.833 90.6466L56.2107 108.316C49.6521 114.905 42.7923 114.987 36.0686 108.297L5.00905 77.2716C-1.69945 70.5816-1.62865 63.7183 4.97535 57.1143L22.6653 39.4993ZM91.7288 10.211L103.126 21.608C106.837 25.3341 107.755 26.7638 107.755 31.4854L107.755 50.0553C107.755 55.2125 107.465 56.9337 104.106 60.2931L85.0677 79.382L33.949 28.2633L53.0774 9.21591C56.4368 5.87167 58.1243 5.58212 63.2815 5.58212L81.885 5.58212C86.6067 5.58212 88.0364 6.53378 91.7288 10.211ZM67.9158 37.0167C67.9158 40.3341 70.4451 42.9645 73.8635 42.9645C77.2483 42.9645 79.7962 40.3341 79.7962 37.0167C79.7962 33.6656 77.2483 31.0689 73.8635 31.0689C70.4451 31.0689 67.9158 33.6656 67.9158 37.0167Z" fill="#000000" fill-opacity="0.85"/>
  <path d="M94.0764 103.78C95.242 104.912 97.0745 104.912 98.2029 103.78C99.3499 102.664 99.3684 100.786 98.2029 99.6539L13.6341 15.085C12.5174 13.9683 10.6848 13.8741 9.47389 15.085C8.3606 16.1832 8.3606 18.0645 9.47389 19.2115Z" fill="#000000" fill-opacity="0.85"/>
 </g>
</svg>
