<?xml version="1.0" encoding="UTF-8"?>
<!--Generator: Apple Native CoreSVG 232.5-->
<!DOCTYPE svg
PUBLIC "-//W3C//DTD SVG 1.1//EN"
       "http://www.w3.org/Graphics/SVG/1.1/DTD/svg11.dtd">
<svg version="1.1" xmlns="http://www.w3.org/2000/svg" xmlns:xlink="http://www.w3.org/1999/xlink" width="107.759" height="113.286">
 <g>
  <rect height="113.286" opacity="0" width="107.759" x="0" y="0"/>
  <path d="M26.9288 43.7611L9.47243 61.1432C5.58181 65.0338 5.51785 69.1871 9.50613 73.1754L40.116 103.752C44.1194 107.789 48.1936 107.74 52.1482 103.785L69.5508 86.3661L73.833 90.6466L56.2107 108.316C49.6521 114.905 42.7923 114.987 36.0686 108.297L5.00905 77.2716C-1.69945 70.5816-1.62865 63.7183 4.97535 57.1143L22.6653 39.4993ZM91.7288 10.211L103.126 21.608C106.837 25.3341 107.755 26.7638 107.755 31.4854L107.755 50.0553C107.755 55.2125 107.465 56.9337 104.106 60.2931L85.0677 79.382L80.796 75.1102L99.8748 56.0133C101.078 54.8248 101.71 53.5572 101.71 51.7491L101.71 31.1588C101.71 29.4332 101.097 28.1656 99.8748 26.9435L86.3933 13.4957C85.1712 12.2584 83.9036 11.6271 82.178 11.6271L61.6214 11.6271C59.7796 11.6271 58.512 12.2921 57.3235 13.4957L38.2118 32.5261L33.949 28.2633L53.0774 9.21591C56.4368 5.87167 58.1243 5.58212 63.2815 5.58212L81.885 5.58212C86.6067 5.58212 88.0364 6.53378 91.7288 10.211ZM82.2864 37.0167C82.2864 40.3341 79.7385 42.9645 76.3538 42.9645C72.9353 42.9645 70.406 40.3341 70.406 37.0167C70.406 33.6656 72.9353 31.0689 76.3538 31.0689C79.7385 31.0689 82.2864 33.6656 82.2864 37.0167Z" fill="#000000" fill-opacity="0.85"/>
  <path d="M94.0764 103.78C95.242 104.912 97.0745 104.912 98.2029 103.78C99.3499 102.664 99.3684 100.786 98.2029 99.6539L13.6341 15.085C12.5174 13.9683 10.6848 13.8741 9.47389 15.085C8.3606 16.1832 8.3606 18.0645 9.47389 19.2115Z" fill="#000000" fill-opacity="0.85"/>
 </g>
</svg>
