<?xml version="1.0" encoding="UTF-8"?>
<!--Generator: Apple Native CoreSVG 232.5-->
<!DOCTYPE svg
PUBLIC "-//W3C//DTD SVG 1.1//EN"
       "http://www.w3.org/Graphics/SVG/1.1/DTD/svg11.dtd">
<svg version="1.1" xmlns="http://www.w3.org/2000/svg" xmlns:xlink="http://www.w3.org/1999/xlink" width="107.759" height="113.286">
 <g>
  <rect height="113.286" opacity="0" width="107.759" x="0" y="0"/>
  <path d="M56.2107 108.316L104.106 60.2931C107.465 56.9337 107.755 55.2125 107.755 50.0553L107.755 31.4854C107.755 26.7638 106.837 25.3341 103.126 21.608L91.7288 10.211C88.0364 6.53378 86.6067 5.58212 81.885 5.58212L63.2815 5.58212C58.1243 5.58212 56.4368 5.87167 53.0774 9.21591L4.97535 57.1143C-1.62865 63.7183-1.69945 70.5816 5.00905 77.2716L36.0686 108.297C42.7923 114.987 49.6521 114.905 56.2107 108.316ZM52.1482 103.785C48.1936 107.74 44.1194 107.789 40.116 103.752L9.50613 73.1754C5.51785 69.1871 5.58181 65.0338 9.47243 61.1432L57.3235 13.4957C58.512 12.2921 59.7796 11.6271 61.6214 11.6271L82.178 11.6271C83.9036 11.6271 85.1712 12.2584 86.3933 13.4957L99.8748 26.9435C101.097 28.1656 101.71 29.4332 101.71 31.1588L101.71 51.7491C101.71 53.5572 101.078 54.8248 99.8748 56.0133ZM76.3538 42.9645C79.7385 42.9645 82.2864 40.3341 82.2864 37.0167C82.2864 33.6656 79.7385 31.0689 76.3538 31.0689C72.9353 31.0689 70.406 33.6656 70.406 37.0167C70.406 40.3341 72.9353 42.9645 76.3538 42.9645Z" fill="#000000" fill-opacity="0.85"/>
 </g>
</svg>
