<?xml version="1.0" encoding="UTF-8"?>
<!--Generator: Apple Native CoreSVG 232.5-->
<!DOCTYPE svg
PUBLIC "-//W3C//DTD SVG 1.1//EN"
       "http://www.w3.org/Graphics/SVG/1.1/DTD/svg11.dtd">
<svg version="1.1" xmlns="http://www.w3.org/2000/svg" xmlns:xlink="http://www.w3.org/1999/xlink" width="101.626" height="118.666">
 <g>
  <rect height="118.666" opacity="0" width="101.626" x="0" y="0"/>
  <path d="M50.7867 66.8169C68.712 66.8169 83.295 52.249 83.295 34.3086C83.295 33.398 83.2647 32.5059 83.1705 31.5952C91.2491 31.0376 97.6119 24.3193 97.6119 16.0874C97.6119 7.51856 90.6578 0.564456 82.0704 0.564456C76.6841 0.564456 71.9444 3.32227 69.1509 7.54492C63.9263 3.90821 57.6006 1.8003 50.7867 1.8003C43.9576 1.8003 37.6319 3.90821 32.4073 7.54492C29.629 3.32227 24.8741 0.564456 19.4879 0.564456C10.9005 0.564456 3.94635 7.51856 3.94635 16.0874C3.94635 24.3193 10.3091 31.0376 18.3878 31.5952C18.2935 32.5059 18.2784 33.398 18.2784 34.3086C18.2784 52.249 32.8463 66.8169 50.7867 66.8169ZM38.5572 32.0054C36.4322 32.0054 34.6153 30.2222 34.6153 28.0449C34.6153 25.8525 36.4322 24.0693 38.5572 24.0693C40.7344 24.0693 42.5176 25.8525 42.5176 28.0449C42.5176 30.2222 40.7344 32.0054 38.5572 32.0054ZM63.0347 32.0054C60.8575 32.0054 59.0743 30.2222 59.0743 28.0449C59.0743 25.8525 60.8575 24.0693 63.0347 24.0693C65.1597 24.0693 66.9766 25.8525 66.9766 28.0449C66.9766 30.2222 65.1597 32.0054 63.0347 32.0054ZM19.4879 6.45704C23.0284 6.45704 26.1783 8.37452 27.8047 11.356C23.8785 15.2251 20.9219 20.165 19.4571 25.6689C19.1456 25.6689 18.8677 25.6504 18.6085 25.6167C13.6959 25.1938 9.85749 21.1011 9.85749 16.0874C9.85749 10.7705 14.171 6.45704 19.4879 6.45704ZM82.0704 6.45704C87.3873 6.45704 91.7007 10.7705 91.7007 16.0874C91.7007 21.0674 87.8775 25.2275 82.9498 25.6167C82.6719 25.6504 82.3267 25.6689 82.1163 25.6689C80.6363 20.165 77.6798 15.2251 73.7535 11.356C75.3951 8.37452 78.5299 6.45704 82.0704 6.45704ZM50.8389 63.4722C42.501 63.4722 35.8267 56.7642 35.8267 48.4448C35.8267 40.1895 42.5347 33.4478 50.8389 33.4478C59.0943 33.4478 65.8511 40.1709 65.8511 48.4448C65.8511 56.7305 59.0606 63.4722 50.8389 63.4722ZM50.7867 50.4248C53.565 50.4248 58.4947 45.9849 58.4947 44.749C58.4947 42.7319 55.2266 39.9033 50.7867 39.9033C46.3165 39.9033 42.9171 42.7319 42.9171 44.749C42.9171 45.9849 48.0572 50.4248 50.7867 50.4248ZM92.2442 61.4609L74.0367 53.2192L55.0201 65.2271L46.5601 65.2271L27.5889 53.2192L9.38141 61.4609C1.24517 65.1519-2.24702 74.8726 1.50787 82.9565C3.54009 87.2769 7.30962 90.3496 11.8267 91.478C14.2481 82.4478 20.9229 75.9854 29.0054 75.9854C39.2164 75.9854 47.2315 86.3037 47.2315 99.1411C47.2315 104.917 45.5982 110.17 42.921 114.251C48.2676 115.113 53.2637 115.064 58.7046 114.251C56.0274 110.17 54.3941 104.917 54.3941 99.1411C54.3941 86.3037 62.4092 75.9854 72.6202 75.9854C80.7027 75.9854 87.3775 82.4478 89.7989 91.478C94.2857 90.3345 98.0855 87.2769 100.118 82.9565C103.873 74.8726 100.38 65.1519 92.2442 61.4609ZM29.0054 118.666C37.1046 118.666 43.4542 109.87 43.4542 99.1411C43.4542 88.5435 37.1046 79.7778 29.0054 79.7778C20.9063 79.7778 14.5718 88.5435 14.5718 99.1411C14.5718 109.87 20.9063 118.666 29.0054 118.666ZM72.6202 118.666C80.7193 118.666 87.0538 109.87 87.0538 99.1411C87.0538 88.5435 80.7193 79.7778 72.6202 79.7778C64.5211 79.7778 58.1715 88.5435 58.1715 99.1411C58.1715 109.87 64.5211 118.666 72.6202 118.666Z" fill="#000000" fill-opacity="0.85"/>
 </g>
</svg>
