<?xml version="1.0" encoding="UTF-8"?>
<!--Generator: Apple Native CoreSVG 232.5-->
<!DOCTYPE svg
PUBLIC "-//W3C//DTD SVG 1.1//EN"
       "http://www.w3.org/Graphics/SVG/1.1/DTD/svg11.dtd">
<svg version="1.1" xmlns="http://www.w3.org/2000/svg" xmlns:xlink="http://www.w3.org/1999/xlink" width="114.307" height="93.6797">
 <g>
  <rect height="93.6797" opacity="0" width="114.307" x="0" y="0"/>
  <path d="M57.1289 0C23.6895 0 0.0151366 10.5278 0 29.6543L0 29.7183C0 36.6572 3.78174 38.6016 10.8193 37.8726L28.125 35.9834C34.668 35.2695 35.9375 32.0132 35.9375 26.7886L35.9375 25.356C35.9375 21.2998 41.7236 19.4644 57.1289 19.4644C73.3125 19.4644 78.3203 21.0791 78.3203 25.3897L78.3203 26.7886C78.3203 31.9121 79.6387 35.2695 86.1816 35.9834L103.487 37.8726C110.525 38.6016 114.307 36.6572 114.307 29.6846L114.307 29.6846C114.307 10.5581 90.6323 0 57.1289 0ZM14.4492 64.3638L23.0264 64.3638C26.4023 64.3638 28.2461 62.4863 28.2461 59.1104L28.2461 50.4541C28.2461 47.0933 26.4023 45.1856 23.0264 45.1856L14.4492 45.1856C11.0884 45.1856 9.13183 47.0933 9.13183 50.4541L9.13183 59.1104C9.13183 62.4863 11.0884 64.3638 14.4492 64.3638ZM40.0371 64.3638L48.6143 64.3638C51.9565 64.3638 53.8677 62.4863 53.8677 59.1104L53.8677 50.4541C53.8677 47.0933 51.9565 45.1856 48.6143 45.1856L40.0371 45.1856C36.6123 45.1856 34.6406 47.0933 34.6406 50.4541L34.6406 59.1104C34.6406 62.4863 36.6123 64.3638 40.0371 64.3638ZM65.4819 64.3638L74.0405 64.3638C77.3862 64.3638 79.4067 62.4863 79.4067 59.1104L79.4067 50.4541C79.4067 47.0933 77.3862 45.1856 74.0405 45.1856L65.4819 45.1856C62.1362 45.1856 60.2285 47.0933 60.2285 50.4541L60.2285 59.1104C60.2285 62.4863 62.1362 64.3638 65.4819 64.3638ZM90.9722 64.3638L99.5493 64.3638C102.974 64.3638 104.964 62.4863 104.964 59.1104L104.964 50.4541C104.964 47.0933 102.974 45.1856 99.5493 45.1856L90.9722 45.1856C87.645 45.1856 85.7524 47.0933 85.7524 50.4541L85.7524 59.1104C85.7524 62.4863 87.645 64.3638 90.9722 64.3638ZM14.3364 89.9517L22.9136 89.9517C26.3047 89.9517 28.2461 88.044 28.2461 84.6831L28.2461 75.978C28.2461 72.6509 26.3047 70.7246 22.9136 70.7246L14.3364 70.7246C11.0244 70.7246 9.13183 72.6509 9.13183 75.978L9.13183 84.6831C9.13183 88.044 11.0244 89.9517 14.3364 89.9517ZM39.9058 89.9517L74.1904 89.9517C77.5815 89.9517 79.4556 88.044 79.4556 84.6831L79.4556 75.978C79.4556 72.6509 77.5815 70.7246 74.1904 70.7246L39.9058 70.7246C36.5298 70.7246 34.6406 72.6509 34.6406 75.978L34.6406 84.6831C34.6406 88.044 36.5298 89.9517 39.9058 89.9517ZM91.1675 89.9517L99.7446 89.9517C103.121 89.9517 104.964 88.044 104.964 84.6831L104.964 75.978C104.964 72.6509 103.121 70.7246 99.7446 70.7246L91.1675 70.7246C87.7764 70.7246 85.8164 72.6509 85.8164 75.978L85.8164 84.6831C85.8164 88.044 87.7764 89.9517 91.1675 89.9517Z" fill="#000000" fill-opacity="0.85"/>
 </g>
</svg>
