<?xml version="1.0" encoding="UTF-8"?>
<!--Generator: Apple Native CoreSVG 232.5-->
<!DOCTYPE svg
PUBLIC "-//W3C//DTD SVG 1.1//EN"
       "http://www.w3.org/Graphics/SVG/1.1/DTD/svg11.dtd">
<svg version="1.1" xmlns="http://www.w3.org/2000/svg" xmlns:xlink="http://www.w3.org/1999/xlink" width="97.9595" height="97.9932">
 <g>
  <rect height="97.9932" opacity="0" width="97.9595" x="0" y="0"/>
  <path d="M97.9595 49.021C97.9595 75.8584 75.8247 97.9932 48.9722 97.9932C22.1685 97.9932 0 75.8584 0 49.021C0 22.2173 22.1348 0.0488281 48.9385 0.0488281C75.791 0.0488281 97.9595 22.2173 97.9595 49.021ZM15.7285 34.0547C8.95459 40.9263 13.6123 53.0728 25.6084 65.0352C37.5186 76.979 49.7139 81.6367 56.5029 74.7988C59.0488 72.3994 58.3701 70.2915 55.5669 68.1231L48.7427 62.5684C46.1094 60.4688 44.5503 61.3359 42.6797 63.0566L42.1646 63.5532C40.479 64.9692 38.2783 63.8091 32.4966 58.1284C26.9541 52.5708 25.6255 49.981 27.0532 48.4302L27.5195 47.9268C29.3833 46.0039 30.1191 44.3506 28.0718 41.815L22.5508 35.0396C20.2324 32.2549 18.2407 31.5913 15.7285 34.0547ZM37.4976 45.9463C35.8154 45.9463 34.9214 46.8555 34.9214 48.6016L34.9214 52.9507C34.9214 54.648 35.8154 55.6094 37.4976 55.6094L41.813 55.6094C43.6079 55.6094 44.5693 54.648 44.5693 52.9507L44.5693 48.6016C44.5693 46.8555 43.6079 45.9463 41.813 45.9463ZM50.4033 45.9463C48.7246 45.9463 47.6655 46.8555 47.6655 48.6016L47.6655 52.9507C47.6655 54.648 48.7246 55.6094 50.4033 55.6094L67.6953 55.6094C69.374 55.6094 70.3355 54.648 70.3355 52.9507L70.3355 48.6016C70.3355 46.8555 69.374 45.9463 67.6953 45.9463ZM76.1846 45.9463C74.5732 45.9463 73.5444 46.8555 73.5444 48.6016L73.5444 52.9507C73.5444 54.648 74.5732 55.6094 76.1846 55.6094L80.5708 55.6094C82.2983 55.6094 83.2109 54.648 83.2109 52.9507L83.2109 48.6016C83.2109 46.8555 82.2983 45.9463 80.5708 45.9463ZM37.543 33.0859C35.898 33.0859 34.9214 33.98 34.9214 35.7261L34.9214 40.0264C34.9214 41.7051 35.898 42.7339 37.543 42.7339L41.8955 42.7339C43.6079 42.7339 44.5693 41.7051 44.5693 40.0264L44.5693 35.7261C44.5693 33.98 43.6079 33.0859 41.8955 33.0859ZM50.4522 33.0859C48.7734 33.0859 47.6655 33.98 47.6655 35.7261L47.6655 40.0264C47.6655 41.7051 48.7734 42.7339 50.4522 42.7339L54.8198 42.7339C56.4649 42.7339 57.4111 41.7051 57.4111 40.0264L57.4111 35.7261C57.4111 33.98 56.4649 33.0859 54.8198 33.0859ZM63.2451 33.0859C61.6001 33.0859 60.6538 33.98 60.6538 35.7261L60.6538 40.0264C60.6538 41.7051 61.6001 42.7339 63.2451 42.7339L67.6128 42.7339C69.2915 42.7339 70.3203 41.7051 70.3203 40.0264L70.3203 35.7261C70.3203 33.98 69.2915 33.0859 67.6128 33.0859ZM76.1357 33.0859C74.4907 33.0859 73.5293 33.98 73.5293 35.7261L73.5293 40.0264C73.5293 41.7051 74.4907 42.7339 76.1357 42.7339L80.4883 42.7339C82.2495 42.7339 83.2109 41.7051 83.2109 40.0264L83.2109 35.7261C83.2109 33.98 82.2495 33.0859 80.4883 33.0859Z" fill="#000000" fill-opacity="0.85"/>
 </g>
</svg>
