<?xml version="1.0" encoding="UTF-8"?>
<!--Generator: Apple Native CoreSVG 232.5-->
<!DOCTYPE svg
PUBLIC "-//W3C//DTD SVG 1.1//EN"
       "http://www.w3.org/Graphics/SVG/1.1/DTD/svg11.dtd">
<svg version="1.1" xmlns="http://www.w3.org/2000/svg" xmlns:xlink="http://www.w3.org/1999/xlink" width="97.9595" height="97.9932">
 <g>
  <rect height="97.9932" opacity="0" width="97.9595" x="0" y="0"/>
  <path d="M48.9722 97.9443C75.8247 97.9443 97.9595 75.7759 97.9595 48.9722C97.9595 22.1348 75.791 0 48.9385 0C22.1348 0 0 22.1348 0 48.9722C0 75.7759 22.1685 97.9443 48.9722 97.9443ZM48.9722 91.6113C25.3501 91.6113 6.36671 72.5942 6.36671 48.9722C6.36671 25.3501 25.3164 6.31789 48.9385 6.31789C72.5605 6.31789 91.6265 25.3501 91.6265 48.9722C91.6265 72.5942 72.5942 91.6113 48.9722 91.6113Z" fill="#000000" fill-opacity="0.85"/>
  <path d="M48.9385 34.5733C57.6025 34.5733 60.2158 35.3848 60.2158 37.6343L60.2158 38.4541C60.2158 41.1665 60.9146 42.9243 64.3745 43.2964L73.5845 44.3032C77.3389 44.6904 79.2432 43.5996 79.2432 39.9644L79.2432 39.9644C79.2432 29.8701 66.8052 24.2705 48.9385 24.2705C31.1358 24.2705 18.6675 29.855 18.6675 39.9492C18.6675 39.9829 18.6675 39.9644 18.6675 39.9644C18.6675 43.5996 20.6206 44.6904 24.4087 44.3032L33.5513 43.2964C37.0112 42.9243 37.7437 41.1665 37.7437 38.4541L37.7437 37.6006C37.7437 35.5044 40.7798 34.5733 48.9385 34.5733ZM26.3516 58.3003L30.8438 58.3003C32.6167 58.3003 33.6118 57.3726 33.6118 55.5474L33.6118 50.8936C33.6118 49.1997 32.6167 48.1743 30.8438 48.1743L26.3516 48.1743C24.5415 48.1743 23.4673 49.1997 23.4673 50.8936L23.4673 55.5474C23.4673 57.3726 24.5415 58.3003 26.3516 58.3003ZM39.8784 58.3003L44.4531 58.3003C46.2109 58.3003 47.2549 57.3726 47.2549 55.5474L47.2549 50.8936C47.2549 49.1997 46.2109 48.1743 44.4531 48.1743L39.8784 48.1743C38.0684 48.1743 37.0952 49.1997 37.0952 50.8936L37.0952 55.5474C37.0952 57.3726 38.0684 58.3003 39.8784 58.3003ZM53.4087 58.3003L57.9009 58.3003C59.7261 58.3003 60.7666 57.3726 60.7666 55.5474L60.7666 50.8936C60.7666 49.1997 59.7261 48.1743 57.9009 48.1743L53.4087 48.1743C51.6357 48.1743 50.5918 49.1997 50.5918 50.8936L50.5918 55.5474C50.5918 57.3726 51.6357 58.3003 53.4087 58.3003ZM66.9541 58.3003L71.4648 58.3003C73.2529 58.3003 74.312 57.3726 74.312 55.5474L74.312 50.8936C74.312 49.1997 73.2529 48.1743 71.4648 48.1743L66.9541 48.1743C65.1289 48.1743 64.1523 49.1997 64.1523 50.8936L64.1523 55.5474C64.1523 57.3726 65.1289 58.3003 66.9541 58.3003ZM26.2691 71.8794L30.8101 71.8794C32.6016 71.8794 33.6118 70.8691 33.6118 69.0625L33.6118 64.4878C33.6118 62.73 32.6016 61.686 30.8101 61.686L26.2691 61.686C24.5415 61.686 23.4673 62.73 23.4673 64.4878L23.4673 69.0625C23.4673 70.8691 24.5415 71.8794 26.2691 71.8794ZM39.8296 71.8794L58.0171 71.8794C59.7749 71.8794 60.7666 70.8691 60.7666 69.0625L60.7666 64.4878C60.7666 62.73 59.7749 61.686 58.0171 61.686L39.8296 61.686C38.0381 61.686 37.0952 62.73 37.0952 64.4878L37.0952 69.0625C37.0952 70.8691 38.0381 71.8794 39.8296 71.8794ZM67.0029 71.8794L71.5439 71.8794C73.3052 71.8794 74.312 70.8691 74.312 69.0625L74.312 64.4878C74.312 62.73 73.3052 61.686 71.5439 61.686L67.0029 61.686C65.2114 61.686 64.1523 62.73 64.1523 64.4878L64.1523 69.0625C64.1523 70.8691 65.2114 71.8794 67.0029 71.8794Z" fill="#000000" fill-opacity="0.85"/>
 </g>
</svg>
