<?xml version="1.0" encoding="UTF-8"?>
<!--Generator: Apple Native CoreSVG 232.5-->
<!DOCTYPE svg
PUBLIC "-//W3C//DTD SVG 1.1//EN"
       "http://www.w3.org/Graphics/SVG/1.1/DTD/svg11.dtd">
<svg version="1.1" xmlns="http://www.w3.org/2000/svg" xmlns:xlink="http://www.w3.org/1999/xlink" width="88.4092" height="88.5371">
 <g>
  <rect height="88.5371" opacity="0" width="88.4092" x="0" y="0"/>
  <path d="M14.3936 88.5371L74.0005 88.5371C83.5733 88.5371 88.4092 83.6558 88.4092 74.2632L88.4092 14.4019C88.4092 5.00928 83.5733 0.127929 74.0005 0.127929L14.3936 0.127929C4.86963 0.127929 0 4.93018 0 14.4019L0 74.2632C0 83.7349 4.86963 88.5371 14.3936 88.5371ZM14.5064 82.4922C9.00294 82.4922 6.04494 79.6016 6.04494 73.9634L6.04494 14.7017C6.04494 9.06349 9.00294 6.17287 14.5064 6.17287L73.9028 6.17287C79.2969 6.17287 82.3643 9.06349 82.3643 14.7017L82.3643 73.9634C82.3643 79.6016 79.2969 82.4922 73.9028 82.4922Z" fill="#000000" fill-opacity="0.85"/>
  <path d="M27.1909 33.9917C27.1909 35.3828 28.1021 36.294 29.478 36.294L41.7061 36.294L41.7061 65.3887C41.7061 66.9785 42.7705 67.9605 44.2476 67.9605C45.7246 67.9605 46.7368 66.9785 46.7368 65.3887L46.7368 36.294L58.9648 36.294C60.3408 36.294 61.252 35.3828 61.252 33.9917C61.252 32.6494 60.3408 31.7383 58.9648 31.7383L29.478 31.7383C28.1021 31.7383 27.1909 32.6494 27.1909 33.9917ZM27.1235 24.9043C27.1235 26.0596 27.9673 26.937 29.0889 26.937L59.3203 26.937C60.4756 26.937 61.2857 26.0596 61.2857 24.9043C61.2857 23.7153 60.4756 22.9053 59.3203 22.9053L29.0889 22.9053C27.9673 22.9053 27.1235 23.7153 27.1235 24.9043Z" fill="#000000" fill-opacity="0.85"/>
 </g>
</svg>
