<?xml version="1.0" encoding="UTF-8"?>
<!--Generator: Apple Native CoreSVG 232.5-->
<!DOCTYPE svg
PUBLIC "-//W3C//DTD SVG 1.1//EN"
       "http://www.w3.org/Graphics/SVG/1.1/DTD/svg11.dtd">
<svg version="1.1" xmlns="http://www.w3.org/2000/svg" xmlns:xlink="http://www.w3.org/1999/xlink" width="97.9595" height="97.9932">
 <g>
  <rect height="97.9932" opacity="0" width="97.9595" x="0" y="0"/>
  <path d="M97.9595 48.9722C97.9595 75.7759 75.8247 97.9443 48.9722 97.9443C22.1685 97.9443 0 75.7759 0 48.9722C0 22.1348 22.1348 0 48.9385 0C75.791 0 97.9595 22.1348 97.9595 48.9722ZM33.9331 36.1782C32.4897 36.1782 31.5786 37.123 31.5786 38.499C31.5786 39.9424 32.4897 40.8872 33.9331 40.8872L46.3818 40.8872L46.3818 70.5733C46.3818 72.2153 47.4951 73.2124 49.0059 73.2124C50.5166 73.2124 51.5474 72.2153 51.5474 70.5733L51.5474 40.8872L63.9624 40.8872C65.4546 40.8872 66.3657 39.9424 66.3657 38.499C66.3657 37.123 65.4546 36.1782 63.9624 36.1782ZM33.5103 27.1768C32.355 27.1768 31.5112 27.9868 31.5112 29.2095C31.5112 30.3984 32.355 31.3096 33.5103 31.3096L64.3516 31.3096C65.5742 31.3096 66.3843 30.3984 66.3843 29.2095C66.3843 27.9868 65.5742 27.1768 64.3516 27.1768Z" fill="#000000" fill-opacity="0.85"/>
 </g>
</svg>
