<?xml version="1.0" encoding="UTF-8"?>
<!--Generator: Apple Native CoreSVG 232.5-->
<!DOCTYPE svg
PUBLIC "-//W3C//DTD SVG 1.1//EN"
       "http://www.w3.org/Graphics/SVG/1.1/DTD/svg11.dtd">
<svg version="1.1" xmlns="http://www.w3.org/2000/svg" xmlns:xlink="http://www.w3.org/1999/xlink" width="97.9595" height="97.9932">
 <g>
  <rect height="97.9932" opacity="0" width="97.9595" x="0" y="0"/>
  <path d="M97.9595 48.9722C97.9595 75.7759 75.8247 97.9443 48.9722 97.9443C22.1685 97.9443 0 75.7759 0 48.9722C0 22.1348 22.1348 0 48.9385 0C75.791 0 97.9595 22.1348 97.9595 48.9722ZM46.4385 22.5742C46.9976 24.4365 47.2754 26.3848 47.2754 28.4912C47.2754 39.5806 38.4439 48.4761 27.3057 48.4761C25.6084 48.4761 23.9263 48.2808 22.3569 47.8565C22.3418 48.252 22.3115 48.6475 22.3115 49.0732C22.3115 63.6528 34.3252 75.6665 48.9199 75.6665C49.8037 75.6665 50.7549 75.6211 51.6387 75.5083C50.9551 73.582 50.6924 71.5244 50.6924 69.418C50.6924 58.3286 59.4902 49.3994 70.647 49.3994C72.3442 49.3994 73.9287 49.6133 75.5469 50.0225C75.5469 49.7061 75.5469 49.3897 75.5469 49.0732C75.5469 34.4448 63.4995 22.4463 48.9199 22.4463C48.0664 22.4463 47.2769 22.4951 46.4385 22.5742ZM54.0317 69.418C54.0317 71.3628 54.3096 73.252 55.0117 74.9492C65.3399 72.4741 73.459 63.919 75.1714 53.3804C73.7788 52.9981 72.3106 52.7691 70.647 52.7691C61.1826 52.7691 54.0317 59.9385 54.0317 69.418ZM22.7324 44.5171C24.1367 44.8926 25.7026 45.1065 27.3057 45.1065C36.7515 45.1065 43.9209 37.9707 43.9209 28.4912C43.9209 26.5952 43.6431 24.7852 43.0654 23.1333C32.6733 25.4502 24.5913 33.9751 22.7324 44.5171Z" fill="#000000" fill-opacity="0.85"/>
 </g>
</svg>
