<?xml version="1.0" encoding="UTF-8"?>
<!--Generator: Apple Native CoreSVG 232.5-->
<!DOCTYPE svg
PUBLIC "-//W3C//DTD SVG 1.1//EN"
       "http://www.w3.org/Graphics/SVG/1.1/DTD/svg11.dtd">
<svg version="1.1" xmlns="http://www.w3.org/2000/svg" xmlns:xlink="http://www.w3.org/1999/xlink" width="97.9595" height="97.9932">
 <g>
  <rect height="97.9932" opacity="0" width="97.9595" x="0" y="0"/>
  <path d="M48.9722 97.9443C75.8247 97.9443 97.9595 75.7759 97.9595 48.9722C97.9595 22.1348 75.791 0 48.9385 0C22.1348 0 0 22.1348 0 48.9722C0 75.7759 22.1685 97.9443 48.9722 97.9443ZM48.9722 91.6113C25.3501 91.6113 6.36671 72.5942 6.36671 48.9722C6.36671 25.3501 25.3164 6.31789 48.9385 6.31789C72.5605 6.31789 91.6265 25.3501 91.6265 48.9722C91.6265 72.5942 72.5942 91.6113 48.9722 91.6113Z" fill="#000000" fill-opacity="0.85"/>
  <path d="M23.2749 44.6182C24.6455 44.9785 26.1929 45.1738 27.7471 45.1738C37.0059 45.1738 44.022 38.1914 44.022 28.9141C44.022 27.0518 43.7441 25.2603 43.1851 23.6572C32.9951 25.9404 25.0815 34.2632 23.2749 44.6182ZM48.9199 75.1089C49.8037 75.1089 50.7212 75.0635 51.605 74.9658C50.9214 73.0581 50.6587 71.0679 50.6587 68.9951C50.6587 58.1265 59.3032 49.3994 70.2056 49.3994C71.854 49.3994 73.4048 49.6133 74.9893 50.0225C74.9893 49.7061 74.9893 49.3897 74.9893 49.0732C74.9893 34.7329 63.2114 22.9888 48.9199 22.9888C48.0664 22.9888 47.3106 23.0376 46.4722 23.1167C47.0313 24.9453 47.3091 26.8413 47.3091 28.9141C47.3091 39.7827 38.646 48.4761 27.7471 48.4761C26.0986 48.4761 24.4351 48.2808 22.9146 47.8565C22.8843 48.252 22.8691 48.6475 22.8691 49.0732C22.8691 63.3648 34.6133 75.1089 48.9199 75.1089ZM54.877 74.4253C65.0181 71.9839 72.9502 63.6309 74.6289 53.2793C73.2549 52.9307 71.8203 52.7017 70.2056 52.7017C60.9131 52.7017 53.9307 59.7178 53.9307 68.9951C53.9307 70.9063 54.2236 72.7769 54.877 74.4253Z" fill="#000000" fill-opacity="0.85"/>
 </g>
</svg>
