<?xml version="1.0" encoding="UTF-8"?>
<!--Generator: Apple Native CoreSVG 232.5-->
<!DOCTYPE svg
PUBLIC "-//W3C//DTD SVG 1.1//EN"
       "http://www.w3.org/Graphics/SVG/1.1/DTD/svg11.dtd">
<svg version="1.1" xmlns="http://www.w3.org/2000/svg" xmlns:xlink="http://www.w3.org/1999/xlink" width="97.9595" height="97.9932">
 <g>
  <rect height="97.9932" opacity="0" width="97.9595" x="0" y="0"/>
  <path d="M97.9595 49.021C97.9595 75.8584 75.8247 97.9932 48.9722 97.9932C22.1685 97.9932 0 75.8584 0 49.021C0 22.2173 22.1348 0.0488281 48.9385 0.0488281C75.791 0.0488281 97.9595 22.2173 97.9595 49.021ZM45.4844 19.4741L21.3726 67.8711C20.1939 70.2471 21.1099 72.8389 23.9761 72.8389L73.9009 72.8389C76.8345 72.8389 77.7505 70.2471 76.5381 67.8711L52.5239 19.5264C50.8735 16.2407 47.0674 16.293 45.4844 19.4741ZM50.439 43.7637L62.1782 69.1138L53.2759 69.1138L48.9385 49.5845L44.6348 69.1138L35.7324 69.1138L47.4717 43.7637C47.8018 43.1372 48.4131 42.7583 48.9385 42.7583C49.5464 42.7583 50.124 43.1372 50.439 43.7637Z" fill="#000000" fill-opacity="0.85"/>
 </g>
</svg>
