<?xml version="1.0" encoding="UTF-8"?>
<!--Generator: Apple Native CoreSVG 232.5-->
<!DOCTYPE svg
PUBLIC "-//W3C//DTD SVG 1.1//EN"
       "http://www.w3.org/Graphics/SVG/1.1/DTD/svg11.dtd">
<svg version="1.1" xmlns="http://www.w3.org/2000/svg" xmlns:xlink="http://www.w3.org/1999/xlink" width="138.106" height="98.8828">
 <g>
  <rect height="98.8828" opacity="0" width="138.106" x="0" y="0"/>
  <path d="M41.1394 13.0566L60.3203 51.5745L57.0939 58.0498L36.929 17.4649C36.801 17.2578 36.6243 17.0962 36.4324 17.0962C36.2556 17.0962 36.0789 17.2578 35.9509 17.4649L6.79665 76.1421C6.55593 76.5898 6.66872 76.9922 7.27468 76.9922L19.4395 76.9922L34.5681 44.4067C34.9656 43.5142 35.6746 43.1167 36.4324 43.1167C37.239 43.1167 37.9329 43.5142 38.3455 44.4067L50.6543 70.9741L44.7781 82.7676L4.78834 82.7676C0.441656 82.7676-1.04858 78.8535 0.741462 75.3071L31.7405 13.0566C32.7156 11.1436 34.4822 9.91748 36.4324 9.91748C38.3826 9.91748 40.1492 11.1436 41.1394 13.0566ZM30.8359 76.9922L42.0289 76.9922L36.4324 51.8037Z" fill="#000000" fill-opacity="0.85"/>
  <path d="M45.7102 98.8828L132.567 98.8828C137.683 98.8828 139.317 94.4097 137.185 90.1646L94.6658 4.76124C93.5105 2.42042 91.3987 1.09668 89.1555 1.09668C86.8787 1.09668 84.7669 2.42042 83.6453 4.76124L41.0925 90.1646C38.9607 94.4097 40.594 98.8828 45.7102 98.8828ZM48.055 93.1074C46.8479 93.1074 46.5921 92.1597 47.0467 91.1865L88.2298 8.45852C88.6438 7.64553 89.6336 7.64553 90.0476 8.45852L131.231 91.1865C131.764 92.2842 131.524 93.1074 130.535 93.1074ZM64.3474 95.9185L80.802 95.9185L89.1555 58.2612L97.4754 95.9185L113.915 95.9185L91.7625 48.1196C91.2 46.9458 90.2097 46.3682 89.1555 46.3682C88.0676 46.3682 87.0774 46.9458 86.5149 48.1196Z" fill="#000000" fill-opacity="0.85"/>
 </g>
</svg>
