<?xml version="1.0" encoding="UTF-8"?>
<!--Generator: Apple Native CoreSVG 232.5-->
<!DOCTYPE svg
PUBLIC "-//W3C//DTD SVG 1.1//EN"
       "http://www.w3.org/Graphics/SVG/1.1/DTD/svg11.dtd">
<svg version="1.1" xmlns="http://www.w3.org/2000/svg" xmlns:xlink="http://www.w3.org/1999/xlink" width="97.9595" height="97.9932">
 <g>
  <rect height="97.9932" opacity="0" width="97.9595" x="0" y="0"/>
  <path d="M48.9722 97.9443C75.8247 97.9443 97.9595 75.7759 97.9595 48.9722C97.9595 22.1348 75.791 0 48.9385 0C22.1348 0 0 22.1348 0 48.9722C0 75.7759 22.1685 97.9443 48.9722 97.9443ZM48.9722 91.6113C25.3501 91.6113 6.36671 72.5942 6.36671 48.9722C6.36671 25.3501 25.3164 6.31789 48.9385 6.31789C72.5605 6.31789 91.6265 25.3501 91.6265 48.9722C91.6265 72.5942 72.5942 91.6113 48.9722 91.6113Z" fill="#000000" fill-opacity="0.85"/>
  <path d="M36.4238 69.273L77.6855 69.273C80.1055 69.273 80.8716 67.2065 79.8916 65.228L59.6489 24.6182C59.0713 23.5488 58.1333 22.9038 57.0791 22.9038C55.9761 22.9038 55.0044 23.5151 54.5278 24.5996L34.2515 65.228C33.2378 67.2065 34.0679 69.273 36.4238 69.273ZM46.2456 66.0381L55.8447 45.2544C56.355 44.0874 57.687 44.0874 58.2983 45.2544L67.8941 66.0381L60.5679 66.0381L57.0791 50.0615L53.5566 66.0381ZM34.5044 58.4126L32.0562 46.9971L29.4766 58.4126L24.272 58.4126L31.167 43.5117C31.5645 42.5855 32.6001 42.7388 32.9453 43.5117L39.3535 57.4355L43.9971 48.1587L34.1831 28.5527C33.7217 27.6636 32.8814 27.1011 32.0562 27.1011C31.0996 27.1011 30.293 27.6636 29.8315 28.5527L15.1079 58.207C14.3047 59.8472 14.9429 61.6812 16.9536 61.6812L37.2197 61.6812L38.8145 58.4126Z" fill="#000000" fill-opacity="0.85"/>
 </g>
</svg>
