<?xml version="1.0" encoding="UTF-8"?>
<!--Generator: Apple Native CoreSVG 232.5-->
<!DOCTYPE svg
PUBLIC "-//W3C//DTD SVG 1.1//EN"
       "http://www.w3.org/Graphics/SVG/1.1/DTD/svg11.dtd">
<svg version="1.1" xmlns="http://www.w3.org/2000/svg" xmlns:xlink="http://www.w3.org/1999/xlink" width="138.14" height="98.8828">
 <g>
  <rect height="98.8828" opacity="0" width="138.14" x="0" y="0"/>
  <path d="M41.1394 13.0566L60.3203 51.5745L50.6471 70.9885L38.3455 44.4067C37.9329 43.5142 37.239 43.1167 36.4324 43.1167C35.6746 43.1167 34.9656 43.5142 34.5681 44.4067L19.4544 76.9922L30.8489 76.9922L36.4324 51.8037L42.031 76.9922L47.6558 76.9922L44.7781 82.7676L4.78834 82.7676C0.441656 82.7676-1.04858 78.8535 0.741462 75.3071L31.7405 13.0566C32.7156 11.1436 34.4822 9.91748 36.4324 9.91748C38.3826 9.91748 40.1492 11.1436 41.1394 13.0566Z" fill="#000000" fill-opacity="0.85"/>
  <path d="M45.7102 98.8828L132.567 98.8828C137.717 98.8828 139.35 94.4097 137.219 90.1646L94.7332 4.84718C93.5442 2.4878 91.3987 1.09668 89.1555 1.09668C86.8787 1.09668 84.7669 2.42042 83.6453 4.76124L41.0925 90.1646C38.9607 94.4097 40.594 98.8828 45.7102 98.8828ZM65.7268 93.0132L86.5149 48.1196C87.0774 46.9458 88.0676 46.3682 89.1555 46.3682C90.2097 46.3682 91.2 46.9458 91.7625 48.1196L112.551 93.0132L96.7595 93.0132L89.1555 58.2612L81.5178 93.0132Z" fill="#000000" fill-opacity="0.85"/>
 </g>
</svg>
