<?xml version="1.0" encoding="UTF-8"?>
<!--Generator: Apple Native CoreSVG 232.5-->
<!DOCTYPE svg
PUBLIC "-//W3C//DTD SVG 1.1//EN"
       "http://www.w3.org/Graphics/SVG/1.1/DTD/svg11.dtd">
<svg version="1.1" xmlns="http://www.w3.org/2000/svg" xmlns:xlink="http://www.w3.org/1999/xlink" width="105.998" height="105.197">
 <g>
  <rect height="105.197" opacity="0" width="105.998" x="0" y="0"/>
  <path d="M105.998 27.0293L105.998 66.2935C105.998 79.3286 98.5029 86.9883 85.2539 86.9883L49.461 86.9883L31.7886 102.769C30.0537 104.387 28.8799 105.197 27.3389 105.197C25.146 105.197 23.8408 103.604 23.8408 101.152L23.8408 86.9883L20.7437 86.9883C7.47949 86.9883 0 79.4077 0 66.2935L0 27.0293C0 13.8999 7.47949 6.28565 20.7437 6.28565L85.2539 6.28565C98.5029 6.28565 105.998 13.979 105.998 27.0293ZM26.5488 59.9297C25.2554 59.9297 24.1943 60.9907 24.1943 62.3179C24.1943 63.6265 25.2554 64.6538 26.5488 64.6538L60.2769 64.6538C61.5703 64.6538 62.5977 63.6265 62.5977 62.3179C62.5977 60.9907 61.5703 59.9297 60.2769 59.9297ZM26.5488 43.7085C25.2554 43.7085 24.1943 44.7695 24.1943 46.0293C24.1943 47.3716 25.2554 48.4326 26.5488 48.4326L78.0151 48.4326C79.3086 48.4326 80.3511 47.3716 80.3511 46.0293C80.3511 44.7695 79.3086 43.7085 78.0151 43.7085ZM26.5488 27.5176C25.2554 27.5176 24.1943 28.5786 24.1943 29.8384C24.1943 31.1655 25.2554 32.1929 26.5488 32.1929L78.0151 32.1929C79.3086 32.1929 80.3511 31.1655 80.3511 29.8384C80.3511 28.5786 79.3086 27.5176 78.0151 27.5176Z" fill="#000000" fill-opacity="0.85"/>
 </g>
</svg>
