<?xml version="1.0" encoding="UTF-8"?>
<!--Generator: Apple Native CoreSVG 232.5-->
<!DOCTYPE svg
PUBLIC "-//W3C//DTD SVG 1.1//EN"
       "http://www.w3.org/Graphics/SVG/1.1/DTD/svg11.dtd">
<svg version="1.1" xmlns="http://www.w3.org/2000/svg" xmlns:xlink="http://www.w3.org/1999/xlink" width="96.7236" height="82.7285">
 <g>
  <rect height="82.7285" opacity="0" width="96.7236" x="0" y="0"/>
  <path d="M2.84473 5.70802L93.8115 5.70802C95.4233 5.70802 96.7236 4.47511 96.7236 2.8296C96.7236 1.23291 95.4233 0 93.8115 0L2.84473 0C1.23291 0 0 1.23291 0 2.8296C0 4.47511 1.23291 5.70802 2.84473 5.70802ZM2.84473 31.3242L93.8115 31.3242C95.4233 31.3242 96.7236 30.0913 96.7236 28.4458C96.7236 26.8491 95.4233 25.6162 93.8115 25.6162L2.84473 25.6162C1.23291 25.6162 0 26.8491 0 28.4458C0 30.0913 1.23291 31.3242 2.84473 31.3242ZM2.84473 56.9404L93.8115 56.9404C95.4233 56.9404 96.7236 55.6738 96.7236 54.0772C96.7236 52.4653 95.4233 51.2324 93.8115 51.2324L2.84473 51.2324C1.23291 51.2324 0 52.4653 0 54.0772C0 55.6738 1.23291 56.9404 2.84473 56.9404ZM2.84473 82.523L53.4258 82.523C55.0376 82.523 56.3042 81.29 56.3042 79.6934C56.3042 78.0815 55.0376 76.8149 53.4258 76.8149L2.84473 76.8149C1.23291 76.8149 0 78.0815 0 79.6934C0 81.29 1.23291 82.523 2.84473 82.523Z" fill="#000000" fill-opacity="0.85"/>
 </g>
</svg>
