<?xml version="1.0" encoding="UTF-8"?>
<!--Generator: Apple Native CoreSVG 232.5-->
<!DOCTYPE svg
PUBLIC "-//W3C//DTD SVG 1.1//EN"
       "http://www.w3.org/Graphics/SVG/1.1/DTD/svg11.dtd">
<svg version="1.1" xmlns="http://www.w3.org/2000/svg" xmlns:xlink="http://www.w3.org/1999/xlink" width="96.7236" height="82.7285">
 <g>
  <rect height="82.7285" opacity="0" width="96.7236" x="0" y="0"/>
  <path d="M2.84473 5.91359L93.8115 5.91359C95.4233 5.91359 96.7236 4.64698 96.7236 3.03516C96.7236 1.43848 95.4233 0.205567 93.8115 0.205567L2.84473 0.205567C1.23291 0.205567 0 1.43848 0 3.03516C0 4.64698 1.23291 5.91359 2.84473 5.91359ZM2.84473 31.4961L93.8115 31.4961C95.4233 31.4961 96.7236 30.2632 96.7236 28.6514C96.7236 27.0547 95.4233 25.7881 93.8115 25.7881L2.84473 25.7881C1.23291 25.7881 0 27.0547 0 28.6514C0 30.2632 1.23291 31.4961 2.84473 31.4961ZM59.9136 57.1123L93.8115 57.1123C95.4233 57.1123 96.7236 55.8794 96.7236 54.2827C96.7236 52.6372 95.4233 51.4043 93.8115 51.4043L59.9136 51.4043C58.3018 51.4043 57.0689 52.6372 57.0689 54.2827C57.0689 55.8794 58.3018 57.1123 59.9136 57.1123ZM59.9136 82.7285L93.8115 82.7285C95.4233 82.7285 96.7236 81.4956 96.7236 79.8989C96.7236 78.2534 95.4233 77.0205 93.8115 77.0205L59.9136 77.0205C58.3018 77.0205 57.0689 78.2534 57.0689 79.8989C57.0689 81.4956 58.3018 82.7285 59.9136 82.7285Z" fill="#000000" fill-opacity="0.85"/>
  <path d="M0.0488281 48.4673L0.0488281 62.6963C0.0488281 67.8438 3.75099 71.1231 8.84963 71.1231L25.6001 71.1231L25.6001 76.7764C25.6001 80.2622 29.0571 81.6548 31.8154 79.4673L44.2153 69.689C46.1416 68.2022 46.1416 65.4644 44.2153 63.9439L31.8154 54.1992C29.1245 52.0977 25.6001 53.4717 25.6001 56.8901L25.6001 62.2573L10.1812 62.2573C9.33059 62.2573 8.91457 61.7739 8.91457 60.957L8.91457 48.4673C8.91457 45.4356 7.25734 43.4902 4.46485 43.4902C1.65723 43.4902 0.0488281 45.4356 0.0488281 48.4673Z" fill="#000000" fill-opacity="0.85"/>
 </g>
</svg>
