<?xml version="1.0" encoding="UTF-8"?>
<!--Generator: Apple Native CoreSVG 232.5-->
<!DOCTYPE svg
PUBLIC "-//W3C//DTD SVG 1.1//EN"
       "http://www.w3.org/Graphics/SVG/1.1/DTD/svg11.dtd">
<svg version="1.1" xmlns="http://www.w3.org/2000/svg" xmlns:xlink="http://www.w3.org/1999/xlink" width="96.7236" height="82.7285">
 <g>
  <rect height="82.7285" opacity="0" width="96.7236" x="0" y="0"/>
  <path d="M2.84473 5.70802L93.8115 5.70802C95.4233 5.70802 96.7236 4.47511 96.7236 2.8296C96.7236 1.23291 95.4233 0 93.8115 0L2.84473 0C1.23291 0 0 1.23291 0 2.8296C0 4.47511 1.23291 5.70802 2.84473 5.70802ZM55.9824 56.9404L93.8115 56.9404C95.4233 56.9404 96.7236 55.6738 96.7236 54.0772C96.7236 52.4653 95.4233 51.2324 93.8115 51.2324L55.9824 51.2324C54.3706 51.2324 53.1377 52.4653 53.1377 54.0772C53.1377 55.6738 54.3706 56.9404 55.9824 56.9404ZM2.84473 82.523L93.8115 82.523C95.4233 82.523 96.7236 81.29 96.7236 79.6934C96.7236 78.0815 95.4233 76.8149 93.8115 76.8149L2.84473 76.8149C1.23291 76.8149 0 78.0815 0 79.6934C0 81.29 1.23291 82.523 2.84473 82.523Z" fill="#000000" fill-opacity="0.85"/>
  <path d="M5.16846 35.3721L91.5215 35.3721C94.9419 35.3721 96.7236 33.6426 96.7236 30.2373L96.7236 26.6357C96.7236 23.2979 94.9419 21.5347 91.5215 21.5347L5.16846 21.5347C1.76319 21.5347 0 23.2979 0 26.6357L0 30.2373C0 33.6426 1.76319 35.3721 5.16846 35.3721ZM5.16846 60.9883L42.2939 60.9883C45.6992 60.9883 47.4473 59.2588 47.4473 55.8535L47.4473 52.252C47.4473 48.9141 45.6992 47.1509 42.2939 47.1509L5.16846 47.1509C1.76319 47.1509 0 48.9141 0 52.252L0 55.8535C0 59.2588 1.76319 60.9883 5.16846 60.9883Z" fill="#000000" fill-opacity="0.85"/>
 </g>
</svg>
