<?xml version="1.0" encoding="UTF-8"?>
<!--Generator: Apple Native CoreSVG 232.5-->
<!DOCTYPE svg
PUBLIC "-//W3C//DTD SVG 1.1//EN"
       "http://www.w3.org/Graphics/SVG/1.1/DTD/svg11.dtd">
<svg version="1.1" xmlns="http://www.w3.org/2000/svg" xmlns:xlink="http://www.w3.org/1999/xlink" width="100.197" height="123.161">
 <g>
  <rect height="123.161" opacity="0" width="100.197" x="0" y="0"/>
  <path d="M2.84473 100.412L97.3188 100.412C98.9307 100.412 100.197 99.1792 100.197 97.5337C100.197 95.937 98.9307 94.7041 97.3188 94.7041L2.84473 94.7041C1.23291 94.7041 0 95.937 0 97.5337C0 99.1792 1.23291 100.412 2.84473 100.412ZM2.84473 123.161L65.063 123.161C66.6597 123.161 67.9263 121.928 67.9263 120.316C67.9263 118.705 66.6597 117.438 65.063 117.438L2.84473 117.438C1.23291 117.438 0 118.705 0 120.316C0 121.928 1.23291 123.161 2.84473 123.161Z" fill="#000000" fill-opacity="0.85"/>
  <path d="M12.772 77.6445L87.395 77.6445C95.8716 77.6445 100.197 73.3677 100.197 65.0259L100.197 12.7651C100.197 4.4082 95.8716 0.0639647 87.395 0.0639647L12.772 0.0639647C4.34766 0.0639647 0 4.4419 0 12.7651L0 65.0259C0 73.3643 4.3291 77.6445 12.772 77.6445ZM12.8848 71.8877C8.20802 71.8877 5.72316 69.4517 5.72316 64.6924L5.72316 13.0498C5.72316 8.3545 8.17775 5.77199 12.8848 5.77199L87.3311 5.77199C91.9438 5.77199 94.4741 8.33595 94.4741 13.0498L94.4741 64.6924C94.4741 69.3877 91.9438 71.8877 87.3311 71.8877ZM96.7241 63.8779L70.8511 39.7876C68.7954 38.0786 66.6553 37.0635 64.1787 37.0635C61.7778 37.0635 59.7422 37.9541 57.6797 39.7388L38.312 57.0742L30.3179 49.7031C28.5449 48.0615 26.6675 47.2012 24.4922 47.2012C22.5005 47.2012 20.7881 48.0312 19.0117 49.6728L2.97754 64.4204C3.53955 71.5532 6.19532 74.854 12.3159 74.854L86.0669 74.854C93.415 74.854 96.709 70.7422 96.7241 63.8779Z" fill="#000000" fill-opacity="0.85"/>
  <path d="M31.4844 39.4434C36.9834 39.4434 41.5547 34.8721 41.5547 29.3545C41.5547 23.8555 36.9834 19.3179 31.4844 19.3179C25.9365 19.3179 21.4629 23.8555 21.4629 29.3545C21.4629 34.8721 25.9365 39.4434 31.4844 39.4434Z" fill="#000000" fill-opacity="0.85"/>
 </g>
</svg>
