<?xml version="1.0" encoding="UTF-8"?>
<!--Generator: Apple Native CoreSVG 232.5-->
<!DOCTYPE svg
PUBLIC "-//W3C//DTD SVG 1.1//EN"
       "http://www.w3.org/Graphics/SVG/1.1/DTD/svg11.dtd">
<svg version="1.1" xmlns="http://www.w3.org/2000/svg" xmlns:xlink="http://www.w3.org/1999/xlink" width="114.35" height="88.5371">
 <g>
  <rect height="88.5371" opacity="0" width="114.35" x="0" y="0"/>
  <path d="M92.2686 68.7554C96.2339 68.7554 98.8286 66.0967 98.8286 62.1465C98.8286 58.2788 96.2339 55.6992 92.2686 55.6992L89.479 55.6992L89.479 49.5093L92.2686 49.5093C96.2339 49.5093 98.8286 46.9634 98.8286 43.0806C98.8286 39.1304 96.2339 36.4717 92.2686 36.4717C88.3672 36.4717 85.8213 39.1304 85.8213 43.0806L85.8213 45.855L79.9141 45.855L79.9141 43.0806C79.9141 39.1304 77.3682 36.4717 73.4668 36.4717C69.5166 36.4717 66.9067 39.1304 66.9067 43.0806C66.9067 46.9634 69.5166 49.5093 73.4668 49.5093L76.2378 49.5093L76.2378 55.6992L73.4668 55.6992C69.5166 55.6992 66.9067 58.2788 66.9067 62.1465C66.9067 66.0967 69.5166 68.7554 73.4668 68.7554C77.3682 68.7554 79.9141 66.0967 79.9141 62.1465L79.9141 59.4058L85.8213 59.4058L85.8213 62.1465C85.8213 66.0967 88.3672 68.7554 92.2686 68.7554ZM89.479 59.293L92.2686 59.293C94.043 59.293 95.1709 60.4546 95.1709 62.1465C95.1709 63.9209 94.043 65.0977 92.2686 65.0977C90.5918 65.0977 89.479 63.9209 89.479 62.1465ZM76.2378 59.293L76.2378 62.1465C76.2378 63.8535 75.0913 65.0977 73.4668 65.0977C71.6924 65.0977 70.5645 63.9209 70.5645 62.1465C70.5645 60.4546 71.6924 59.293 73.4668 59.293ZM85.8213 55.7817L79.9141 55.7817L79.9141 49.479L85.8213 49.479ZM89.479 45.9004L89.479 43.0806C89.479 41.3062 90.5918 40.1294 92.2686 40.1294C94.043 40.1294 95.1709 41.3062 95.1709 43.0806C95.1709 44.7725 94.043 45.9004 92.2686 45.9004ZM76.2378 45.9004L73.4668 45.9004C71.6924 45.9004 70.5645 44.7725 70.5645 43.0806C70.5645 41.3062 71.6924 40.1294 73.4668 40.1294C75.125 40.1294 76.2378 41.3062 76.2378 43.0806ZM17.6924 40.4185C17.6924 41.7119 18.7534 42.7544 20.0132 42.7544L51.645 42.7544C52.9048 42.7544 53.9321 41.7119 53.9321 40.4185C53.9321 39.125 52.9048 38.064 51.645 38.064L20.0132 38.064C18.7534 38.064 17.6924 39.125 17.6924 40.4185ZM17.6924 52.6152C17.6924 53.9238 18.7534 54.9849 20.0132 54.9849L51.645 54.9849C52.9048 54.9849 53.9321 53.9238 53.9321 52.6152C53.9321 51.3218 52.9048 50.2944 51.645 50.2944L20.0132 50.2944C18.7534 50.2944 17.6924 51.3218 17.6924 52.6152ZM17.6924 64.8457C17.6924 66.1543 18.7534 67.1816 20.0132 67.1816L51.645 67.1816C52.9048 67.1816 53.9321 66.1543 53.9321 64.8457C53.9321 63.5186 52.9048 62.4912 51.645 62.4912L20.0132 62.4912C18.7534 62.4912 17.6924 63.5186 17.6924 64.8457ZM0 74.2632C0 83.7349 4.86963 88.5371 14.3936 88.5371L99.9409 88.5371C109.514 88.5371 114.35 83.6558 114.35 74.2632L114.35 14.4019C114.35 5.00928 109.514 0.127929 99.9409 0.127929L14.3936 0.127929C4.86963 0.127929 0 4.93018 0 14.4019ZM14.313 15.6128C12.1777 15.6128 10.4214 13.7739 10.4214 11.7212C10.4214 9.66846 12.1777 7.84473 14.313 7.84473C16.4331 7.84473 18.2232 9.66846 18.2232 11.7212C18.2232 13.7739 16.4331 15.6128 14.313 15.6128ZM27.1612 15.6128C25.0259 15.6128 23.2695 13.7891 23.2695 11.7212C23.2695 9.66846 25.0259 7.84473 27.1612 7.84473C29.2964 7.84473 31.0713 9.66846 31.0713 11.7212C31.0713 13.7891 29.2964 15.6128 27.1612 15.6128ZM40.0093 15.5977C37.8892 15.5977 36.1328 13.7891 36.1328 11.7212C36.1328 9.66846 37.8892 7.84473 40.0093 7.84473C42.1446 7.84473 43.9009 9.66846 43.9009 11.7212C43.9009 13.7891 42.1446 15.5977 40.0093 15.5977ZM6.04494 73.9634L6.04494 23.3296L108.305 23.3296L108.305 73.9634C108.305 79.6016 105.237 82.4922 99.8433 82.4922L14.5064 82.4922C9.00294 82.4922 6.04494 79.6016 6.04494 73.9634Z" fill="#000000" fill-opacity="0.85"/>
 </g>
</svg>
