<?xml version="1.0" encoding="UTF-8"?>
<!--Generator: Apple Native CoreSVG 232.5-->
<!DOCTYPE svg
PUBLIC "-//W3C//DTD SVG 1.1//EN"
       "http://www.w3.org/Graphics/SVG/1.1/DTD/svg11.dtd">
<svg version="1.1" xmlns="http://www.w3.org/2000/svg" xmlns:xlink="http://www.w3.org/1999/xlink" width="112.737" height="72.1973">
 <g>
  <rect height="72.1973" opacity="0" width="112.737" x="0" y="0"/>
  <path d="M87.7241 72.0728C96.7095 72.0728 103.541 67.4668 106.414 59.5425L106.692 59.5425L106.692 69.0342C106.692 70.9829 107.91 72.1973 109.705 72.1973C111.519 72.1973 112.737 70.9644 112.737 69.0005L112.737 20.3653C112.737 18.4199 111.519 17.0859 109.705 17.0859C107.91 17.0859 106.692 18.4199 106.692 20.3653L106.692 29.9292L106.414 29.9292C103.602 22.0908 96.3862 17.1836 87.7241 17.1836C74.3403 17.1836 65.3057 28.2607 65.3057 44.6148C65.3057 61.1118 74.3403 72.0728 87.7241 72.0728ZM89.0415 66.6089C78.5513 66.6089 71.7095 57.9824 71.7095 44.6148C71.7095 31.2774 78.5664 22.6475 89.0415 22.6475C99.5317 22.6475 106.539 31.6275 106.539 44.8335C106.539 58.0395 99.6597 66.6089 89.0415 66.6089ZM3.13282 72.064C5.06984 72.064 6.0215 71.3145 6.73732 69.2461L14.0957 49.6182L44.4482 49.6182L51.7915 69.2461C52.5073 71.3145 53.459 72.064 55.3623 72.064C57.3296 72.064 58.5962 70.8799 58.5962 69.0137C58.5962 68.3804 58.48 67.7656 58.1802 66.9824L33.9175 3.37745C33.082 1.20118 31.6099 0.0356466 29.272 0.0356466C27.0015 0.0356466 25.4805 1.15235 24.6787 3.34376L0.416017 67.0161C0.116211 67.7842 0 68.4141 0 69.0474C0 70.9136 1.19922 72.064 3.13282 72.064ZM15.9736 43.9219L29.1406 8.53274L29.3696 8.53274L42.5366 43.9219Z" fill="#000000" fill-opacity="0.85"/>
 </g>
</svg>
