<?xml version="1.0" encoding="UTF-8"?>
<!--Generator: Apple Native CoreSVG 232.5-->
<!DOCTYPE svg
PUBLIC "-//W3C//DTD SVG 1.1//EN"
       "http://www.w3.org/Graphics/SVG/1.1/DTD/svg11.dtd">
<svg version="1.1" xmlns="http://www.w3.org/2000/svg" xmlns:xlink="http://www.w3.org/1999/xlink" width="85.2573" height="94.8516">
 <g>
  <rect height="94.8516" opacity="0" width="85.2573" x="0" y="0"/>
  <path d="M3.13282 83.3911C5.06984 83.3911 6.0215 82.6416 6.73732 80.5732L14.0957 60.9453L44.4482 60.9453L51.7915 80.5732C52.5073 82.6416 53.459 83.3911 55.3623 83.3911C57.3296 83.3911 58.5962 82.207 58.5962 80.3408C58.5962 79.7075 58.48 79.0928 58.1802 78.3096L33.9175 14.7046C33.082 12.5283 31.6099 11.3628 29.272 11.3628C27.0015 11.3628 25.4805 12.4795 24.6787 14.6709L0.416017 78.3433C0.116211 79.1113 0 79.7412 0 80.3745C0 82.2407 1.19922 83.3911 3.13282 83.3911ZM15.9736 55.249L29.1406 19.8599L29.3696 19.8599L42.5366 55.249Z" fill="#000000" fill-opacity="0.85"/>
  <path d="M82.4614 94.8516C84.1743 94.8516 85.2573 93.7383 85.2573 92.1567L85.2573 58.2437C85.2573 56.4077 84.0767 55.2456 82.2441 55.2456C80.5952 55.2456 79.7632 55.8301 78.5742 56.6738L70.0503 62.3594C68.9707 63.124 68.5513 63.7725 68.5513 64.6348C68.5513 65.8677 69.4844 66.8311 70.7105 66.8311C71.4448 66.8311 71.9282 66.6289 72.6323 66.127L79.6133 61.5313L79.7295 61.5313L79.7295 92.1567C79.7295 93.7383 80.8159 94.8516 82.4614 94.8516Z" fill="#000000" fill-opacity="0.85"/>
 </g>
</svg>
