<?xml version="1.0" encoding="UTF-8"?>
<!--Generator: Apple Native CoreSVG 232.5-->
<!DOCTYPE svg
PUBLIC "-//W3C//DTD SVG 1.1//EN"
       "http://www.w3.org/Graphics/SVG/1.1/DTD/svg11.dtd">
<svg version="1.1" xmlns="http://www.w3.org/2000/svg" xmlns:xlink="http://www.w3.org/1999/xlink" width="96.7236" height="82.7285">
 <g>
  <rect height="82.7285" opacity="0" width="96.7236" x="0" y="0"/>
  <path d="M2.84473 5.70802L58.5601 5.70802C60.1719 5.70802 61.4385 4.47511 61.4385 2.8296C61.4385 1.23291 60.1719 0 58.5601 0L2.84473 0C1.23291 0 0 1.23291 0 2.8296C0 4.47511 1.23291 5.70802 2.84473 5.70802ZM71.1616 5.70802L93.8115 5.70802C95.4233 5.70802 96.7236 4.47511 96.7236 2.8296C96.7236 1.23291 95.4233 0 93.8115 0L71.1616 0C69.5498 0 68.3169 1.23291 68.3169 2.8296C68.3169 4.47511 69.5498 5.70802 71.1616 5.70802ZM2.87842 31.3242L15.1792 31.3242C16.8247 31.3242 18.0576 30.0913 18.0576 28.4458C18.0576 26.8491 16.8247 25.6162 15.1792 25.6162L2.87842 25.6162C1.2666 25.6162 0 26.8491 0 28.4458C0 30.0913 1.2666 31.3242 2.87842 31.3242ZM27.8145 31.3242L54.5122 31.3242C56.1577 31.3242 57.3906 30.0913 57.3906 28.4458C57.3906 26.8491 56.1577 25.6162 54.5122 25.6162L27.8145 25.6162C26.2026 25.6162 24.9512 26.8491 24.9512 28.4458C24.9512 30.0913 26.2026 31.3242 27.8145 31.3242ZM67.1475 31.3242L93.8452 31.3242C95.457 31.3242 96.7236 30.0913 96.7236 28.4458C96.7236 26.8491 95.457 25.6162 93.8452 25.6162L67.1475 25.6162C65.5508 25.6162 64.2505 26.8491 64.2505 28.4458C64.2505 30.0913 65.5508 31.3242 67.1475 31.3242ZM2.87842 56.9404L25.5283 56.9404C27.1401 56.9404 28.4067 55.6738 28.4067 54.0772C28.4067 52.4653 27.1401 51.2324 25.5283 51.2324L2.87842 51.2324C1.2666 51.2324 0 52.4653 0 54.0772C0 55.6738 1.2666 56.9404 2.87842 56.9404ZM38.1636 56.9404L93.8452 56.9404C95.457 56.9404 96.7236 55.6738 96.7236 54.0772C96.7236 52.4653 95.457 51.2324 93.8452 51.2324L38.1636 51.2324C36.5181 51.2324 35.2515 52.4653 35.2515 54.0772C35.2515 55.6738 36.5181 56.9404 38.1636 56.9404ZM2.84473 82.523L53.4258 82.523C55.0376 82.523 56.3042 81.29 56.3042 79.6934C56.3042 78.0815 55.0376 76.8149 53.4258 76.8149L2.84473 76.8149C1.23291 76.8149 0 78.0815 0 79.6934C0 81.29 1.23291 82.523 2.84473 82.523Z" fill="#000000" fill-opacity="0.85"/>
 </g>
</svg>
