<?xml version="1.0" encoding="UTF-8"?>
<!--Generator: Apple Native CoreSVG 232.5-->
<!DOCTYPE svg
PUBLIC "-//W3C//DTD SVG 1.1//EN"
       "http://www.w3.org/Graphics/SVG/1.1/DTD/svg11.dtd">
<svg version="1.1" xmlns="http://www.w3.org/2000/svg" xmlns:xlink="http://www.w3.org/1999/xlink" width="143.706" height="99.6524">
 <g>
  <rect height="99.6524" opacity="0" width="143.706" x="0" y="0"/>
  <path d="M32.5874 42.5244L123.569 42.5244C125.181 42.5244 126.448 41.2915 126.448 39.6612C126.448 38.0493 125.181 36.8164 123.569 36.8164L32.5874 36.8164C30.9907 36.8164 29.7578 38.0493 29.7578 39.6612C29.7578 41.2915 30.9907 42.5244 32.5874 42.5244ZM32.5874 67.834L123.569 67.834C125.181 67.834 126.448 66.5674 126.448 64.9556C126.448 63.3438 125.181 62.1109 123.569 62.1109L32.5874 62.1109C30.9907 62.1109 29.7578 63.3438 29.7578 64.9556C29.7578 66.5674 30.9907 67.834 32.5874 67.834ZM32.5874 93.0948L123.569 93.0948C125.181 93.0948 126.448 91.8618 126.448 90.25C126.448 88.6382 125.181 87.3716 123.569 87.3716L32.5874 87.3716C30.9907 87.3716 29.7578 88.6382 29.7578 90.25C29.7578 91.8618 30.9907 93.0948 32.5874 93.0948Z" fill="#000000" fill-opacity="0.85"/>
  <path d="M3.78907 26.3496L21.2139 15.7725C23.1421 14.5869 23.0933 12.3169 21.2139 11.1616L3.77393 0.505394C1.87256-0.668436 0 0.279808 0 2.54983L0 24.3389C0 26.6426 1.90283 27.5235 3.78907 26.3496ZM34.9111 20.3125L121.279 20.3125C124.685 20.3125 126.448 18.583 126.448 15.1778L126.448 11.6099C126.448 8.2383 124.685 6.47511 121.279 6.47511L34.9111 6.47511C31.5059 6.47511 29.7578 8.2383 29.7578 11.6099L29.7578 15.1778C29.7578 18.583 31.5059 20.3125 34.9111 20.3125Z" fill="#000000" fill-opacity="0.85"/>
 </g>
</svg>
