<?xml version="1.0" encoding="UTF-8"?>
<!--Generator: Apple Native CoreSVG 232.5-->
<!DOCTYPE svg
PUBLIC "-//W3C//DTD SVG 1.1//EN"
       "http://www.w3.org/Graphics/SVG/1.1/DTD/svg11.dtd">
<svg version="1.1" xmlns="http://www.w3.org/2000/svg" xmlns:xlink="http://www.w3.org/1999/xlink" width="96.7236" height="82.7285">
 <g>
  <rect height="82.7285" opacity="0" width="96.7236" x="0" y="0"/>
  <path d="M2.84473 5.70802L93.8115 5.70802C95.4233 5.70802 96.7236 4.47511 96.7236 2.8296C96.7236 1.23291 95.4233 0 93.8115 0L2.84473 0C1.23291 0 0 1.23291 0 2.8296C0 4.47511 1.23291 5.70802 2.84473 5.70802ZM2.84473 56.9404L93.8115 56.9404C95.4233 56.9404 96.7236 55.6738 96.7236 54.0772C96.7236 52.4653 95.4233 51.2324 93.8115 51.2324L2.84473 51.2324C1.23291 51.2324 0 52.4653 0 54.0772C0 55.6738 1.23291 56.9404 2.84473 56.9404ZM37.2486 31.3242L93.8115 31.3242C95.4233 31.3242 96.7236 30.0913 96.7236 28.4458C96.7236 26.8491 95.4233 25.6162 93.8115 25.6162L37.2486 25.6162C35.6182 25.6162 34.3853 26.8491 34.3853 28.4458C34.3853 30.0913 35.6182 31.3242 37.2486 31.3242ZM37.2486 82.523L93.8115 82.523C95.4233 82.523 96.7236 81.29 96.7236 79.6934C96.7236 78.0815 95.4233 76.8149 93.8115 76.8149L37.2486 76.8149C35.6182 76.8149 34.3853 78.0815 34.3853 79.6934C34.3853 81.29 35.6182 82.523 37.2486 82.523Z" fill="#000000" fill-opacity="0.85"/>
 </g>
</svg>
