<?xml version="1.0" encoding="UTF-8"?>
<!--Generator: Apple Native CoreSVG 232.5-->
<!DOCTYPE svg
PUBLIC "-//W3C//DTD SVG 1.1//EN"
       "http://www.w3.org/Graphics/SVG/1.1/DTD/svg11.dtd">
<svg version="1.1" xmlns="http://www.w3.org/2000/svg" xmlns:xlink="http://www.w3.org/1999/xlink" width="148.42" height="72.1191">
 <g>
  <rect height="72.1191" opacity="0" width="148.42" x="0" y="0"/>
  <path d="M127.769 72.1191C137.264 72.1191 145.364 66.8608 148.042 59.0723C148.24 58.3633 148.42 57.6577 148.42 57.0498C148.42 55.4648 147.285 54.333 145.704 54.333C144.242 54.333 143.556 54.9443 142.751 56.5933C140.288 63.083 134.985 66.6401 127.803 66.6401C117.249 66.6401 110.575 58.5117 110.575 45.4419C110.575 32.4092 117.388 24.1611 127.712 24.1611C134.707 24.1611 140.111 27.6997 142.593 34.2905C143.364 35.8721 144.099 36.4834 145.527 36.4834C147.142 36.4834 148.244 35.4341 148.244 33.8003C148.244 33.2749 148.063 32.5879 147.947 32.0893C145.536 24.3008 137.308 18.6973 127.592 18.6973C113.329 18.6973 104.156 29.2695 104.156 45.521C104.156 61.7944 113.457 72.1191 127.769 72.1191Z" fill="#000000" fill-opacity="0.85"/>
  <path d="M54.8628 72.04C56.6465 72.04 57.9468 70.8374 57.9468 68.8921L57.9468 59.2573L58.063 59.2573C60.9795 67.1411 67.8906 72.1191 76.4619 72.1191C89.5347 72.1191 98.3692 61.4175 98.3692 45.3779C98.3692 29.3838 89.501 18.6973 76.5142 18.6973C67.9683 18.6973 61.0689 23.7544 58.314 31.4951L58.1001 31.4951L58.1001 3.39552C58.1001 1.3794 56.8335 0.0791013 54.9673 0.0791013C53.0674 0.0791013 51.8311 1.3794 51.8311 3.39552L51.8311 68.8921C51.8311 70.856 53.064 72.04 54.8628 72.04ZM75.2002 66.6401C65.1695 66.6401 58.1909 58.1128 58.1909 45.457C58.1909 32.7827 65.2183 24.1948 75.2002 24.1948C85.354 24.1948 91.9014 32.542 91.9014 45.3779C91.9014 58.3115 85.29 66.6401 75.2002 66.6401Z" fill="#000000" fill-opacity="0.85"/>
  <path d="M17.1709 72.04C25.2017 72.04 32.5322 67.6543 35.314 61.0562L35.4302 61.0562L35.4302 68.9932C35.4302 70.8408 36.6968 72.0737 38.4468 72.0737C40.2793 72.0737 41.5122 70.8408 41.5122 68.8584L41.5122 36.1103C41.5122 25.4844 34.1118 18.6973 22.2192 18.6973C12.8428 18.6973 5.68653 22.8677 3.00586 29.5718C2.57471 30.668 2.23291 31.8247 2.23291 32.729C2.23291 34.3779 3.46241 35.4609 5.07765 35.4609C6.30372 35.4609 7.21827 34.9355 7.73878 33.7954C10.0611 27.4873 14.7866 24.1089 22.0356 24.1089C30.3457 24.1089 35.228 28.9741 35.228 36.5635L35.228 40.9409L18.668 41.956C6.54834 42.6851 0 48.1977 0 57.0005C0 66.0088 7.05322 72.04 17.1709 72.04ZM18.5371 66.7969C11.4038 66.7969 6.40382 62.748 6.40382 56.8389C6.40382 51.1821 10.8687 47.4009 19.4815 46.7915L35.228 45.6821L35.228 51.9106C35.228 60.1401 27.7446 66.7969 18.5371 66.7969Z" fill="#000000" fill-opacity="0.85"/>
 </g>
</svg>
