<?xml version="1.0" encoding="UTF-8"?>
<!--Generator: Apple Native CoreSVG 232.5-->
<!DOCTYPE svg
PUBLIC "-//W3C//DTD SVG 1.1//EN"
       "http://www.w3.org/Graphics/SVG/1.1/DTD/svg11.dtd">
<svg version="1.1" xmlns="http://www.w3.org/2000/svg" xmlns:xlink="http://www.w3.org/1999/xlink" width="58.5962" height="72.126">
 <g>
  <rect height="72.126" opacity="0" width="58.5962" x="0" y="0"/>
  <path d="M3.13282 72.0283C5.06984 72.0283 6.0215 71.2788 6.73732 69.2104L14.0957 49.5825L44.4482 49.5825L51.7915 69.2104C52.5073 71.2788 53.459 72.0283 55.3623 72.0283C57.3296 72.0283 58.5962 70.8442 58.5962 68.978C58.5962 68.3447 58.48 67.73 58.1802 66.9468L33.9175 3.34181C33.082 1.16553 31.6099 0 29.272 0C27.0015 0 25.4805 1.1167 24.6787 3.30811L0.416017 66.9805C0.116211 67.7485 0 68.3784 0 69.0117C0 70.8779 1.19922 72.0283 3.13282 72.0283ZM15.9736 43.8862L29.1406 8.49709L29.3696 8.49709L42.5366 43.8862Z" fill="#000000" fill-opacity="0.85"/>
 </g>
</svg>
