<?xml version="1.0" encoding="UTF-8"?>
<!--Generator: Apple Native CoreSVG 232.5-->
<!DOCTYPE svg
PUBLIC "-//W3C//DTD SVG 1.1//EN"
       "http://www.w3.org/Graphics/SVG/1.1/DTD/svg11.dtd">
<svg version="1.1" xmlns="http://www.w3.org/2000/svg" xmlns:xlink="http://www.w3.org/1999/xlink" width="90.5254" height="72.5635">
 <g>
  <rect height="72.5635" opacity="0" width="90.5254" x="0" y="0"/>
  <path d="M45.7754 71.5093L87.4263 71.5093C89.2925 71.5093 90.5254 70.3252 90.5254 68.5264C90.5254 66.7124 89.2925 65.5249 87.4263 65.5249L51.8794 65.5249L51.8794 65.2959L72.4243 44.4604C83.9932 32.7876 87.645 27.0947 87.645 19.6846C87.645 8.54492 78.0357 0 65.1514 0C55.1597 0 46.5908 5.37647 43.582 13.6675C42.9053 15.4605 42.5703 17.1792 42.5703 18.4907C42.5703 20.4326 43.6567 21.6655 45.5347 21.6655C47.2847 21.6655 48.0796 20.8184 48.585 18.9521C48.9151 17.3779 49.3462 15.8408 50.0972 14.4839C52.6699 9.45362 58.0488 5.93214 65.1514 5.93214C73.9058 5.93214 80.874 12.2251 80.874 20.0063C80.874 25.9243 78.167 30.0928 67.9575 40.4956L44.5156 64.4975C42.9492 66.0303 42.4321 66.9971 42.4321 68.3462C42.4321 70.3252 43.7627 71.5093 45.7754 71.5093Z" fill="#000000" fill-opacity="0.85"/>
  <path d="M23.7974 72.1074C25.8169 72.1074 27.1509 70.7734 27.1509 68.7236L27.1509 3.94484C27.1509 1.60352 25.6787 0.254396 23.4082 0.254396C21.7222 0.254396 20.7891 0.75635 19.2681 1.72657L1.94874 12.7124C0.498536 13.6792 0 14.5298 0 15.7627C0 17.3106 1.13184 18.4727 2.78077 18.4727C3.78126 18.4727 4.29493 18.1729 4.97706 17.7232L20.3462 8.24123L20.5112 8.24123L20.5112 68.7236C20.5112 70.7734 21.7627 72.1074 23.7974 72.1074Z" fill="#000000" fill-opacity="0.85"/>
 </g>
</svg>
