<?xml version="1.0" encoding="UTF-8"?>
<!--Generator: Apple Native CoreSVG 232.5-->
<!DOCTYPE svg
PUBLIC "-//W3C//DTD SVG 1.1//EN"
       "http://www.w3.org/Graphics/SVG/1.1/DTD/svg11.dtd">
<svg version="1.1" xmlns="http://www.w3.org/2000/svg" xmlns:xlink="http://www.w3.org/1999/xlink" width="97.9595" height="97.9932">
 <g>
  <rect height="97.9932" opacity="0" width="97.9595" x="0" y="0"/>
  <path d="M48.9722 97.9443C75.8247 97.9443 97.9595 75.7759 97.9595 48.9722C97.9595 22.1348 75.791 0 48.9385 0C22.1348 0 0 22.1348 0 48.9722C0 75.7759 22.1685 97.9443 48.9722 97.9443ZM48.9722 91.6113C25.3501 91.6113 6.36671 72.5942 6.36671 48.9722C6.36671 25.3501 25.3164 6.31789 48.9385 6.31789C72.5605 6.31789 91.6265 25.3501 91.6265 48.9722C91.6265 72.5942 72.5942 91.6113 48.9722 91.6113Z" fill="#000000" fill-opacity="0.85"/>
  <path d="M42.978 66.9053C53.2354 64.0884 57.7275 56.1143 54.7979 45.3687L50.7217 30.3418C49.7232 26.6289 47.3169 25.2886 43.6191 26.2686L22.1675 31.9829C18.4209 32.9966 17.0469 35.354 18.0454 39.0855L22.0425 54.1914C24.8745 64.8882 32.7056 69.5757 42.978 66.9053ZM41.0669 59.6582C36.5547 60.8267 32.1553 59.2979 29.8149 55.5098C29.3755 54.811 29.7695 54.2554 30.5693 54.2856C34.0522 54.6055 37.2749 53.981 39.395 53.4404C41.4663 52.8814 44.6484 51.7817 47.4614 49.7769C48.1299 49.3037 48.8018 49.6606 48.7344 50.4453C48.6333 54.917 45.6616 58.4409 41.0669 59.6582ZM30.293 45.6045C28.7607 46.0591 28.52 47.0356 27.8818 47.1821C27.5249 47.2612 27.1226 46.9194 26.9424 46.3218C26.3901 44.4815 27.5469 42.5469 29.3687 42.1108C31.2056 41.6377 33.0576 42.7573 33.5796 44.4815C33.7749 45.1465 33.5679 45.6348 33.2075 45.7813C32.4717 45.9463 31.7241 45.1802 30.293 45.6045ZM43.3096 42.1108C41.8413 42.4526 41.5215 43.542 40.917 43.606C40.624 43.7524 40.1729 43.3584 39.9287 42.7607C39.4893 40.9727 40.6123 39.0195 42.4004 38.5649C44.3047 38.1104 46.1416 39.1172 46.5811 40.9727C46.8252 41.6377 46.5508 42.1563 46.2578 42.2388C45.5708 42.4526 44.7744 41.668 43.3096 42.1108ZM76.9067 37.603L55.44 31.8516C55.1099 31.769 54.7461 31.7051 54.4346 31.6714L57.9502 44.4981C59.1709 49.0356 59.2046 53.2534 58.1826 56.9004C58.8106 56.9678 59.4385 57.0317 60.0664 57.1934C63.9439 58.1665 66.5098 61.1802 66.6108 64.7881C66.6108 65.603 65.9356 65.9668 65.3311 65.4077C63.3106 63.5186 61.2315 62.4697 58.8491 61.8047C57.999 61.564 57.0664 61.3687 56.186 61.3198C54.4468 64.27 51.773 66.6948 48.2471 68.3989C50.2608 70.1919 52.8721 71.6162 56.0811 72.4429C66.3198 75.1772 74.1358 70.4712 76.9829 59.7593L81.0137 44.7022C82.0425 40.9741 80.6533 38.5679 76.9067 37.603ZM67.9175 53.3091C66.5166 53.001 65.668 51.4688 66.0772 50.019C66.3701 48.6182 67.8838 47.7881 69.3184 48.1787C70.7344 48.5205 71.5982 50.019 71.1924 51.4351C70.7983 52.8359 69.3184 53.7148 67.9175 53.3091Z" fill="#000000" fill-opacity="0.85"/>
 </g>
</svg>
