<?xml version="1.0" encoding="UTF-8"?>
<!--Generator: Apple Native CoreSVG 232.5-->
<!DOCTYPE svg
PUBLIC "-//W3C//DTD SVG 1.1//EN"
       "http://www.w3.org/Graphics/SVG/1.1/DTD/svg11.dtd">
<svg version="1.1" xmlns="http://www.w3.org/2000/svg" xmlns:xlink="http://www.w3.org/1999/xlink" width="173.232" height="122.313">
 <g>
  <rect height="122.313" opacity="0" width="173.232" x="0" y="0"/>
  <path d="M108.436 19.0345L157.336 32.1927C165.856 34.5687 169.152 39.9134 166.873 48.3817L157.678 82.8221C151.14 107.409 133.287 118.153 109.76 111.908C98.0797 108.744 89.7186 102.645 85.077 94.3011C96.977 83.8286 101.09 67.702 95.9459 48.5677L91.278 31.2583L92.048 28.4071C94.3414 19.7737 99.799 16.7073 108.436 19.0345ZM97.4577 84.7274C96.5231 86.2327 97.4796 87.6473 99.2848 87.2532C105.187 86.0223 110.777 86.0862 116.177 87.5779C121.576 88.972 126.162 91.4822 130.875 95.7557C132.234 96.9378 133.817 96.1834 133.75 94.4119C133.547 86.0696 127.658 79.2694 118.935 77.0755C110.573 74.8411 101.823 77.6209 97.4577 84.7274ZM132.566 60.6859C131.638 64.013 133.561 67.3739 136.839 68.2073C140.136 69.1199 143.464 67.1634 144.327 63.9002C145.21 60.5882 143.317 57.2425 139.99 56.4124C136.727 55.4998 133.4 57.4227 132.566 60.6859ZM103.825 53.0838C102.927 56.4295 104.899 59.7415 108.177 60.5716C111.474 61.4691 114.801 59.5765 115.714 56.283C116.548 53.0047 114.636 49.659 111.328 48.7313C108.031 47.8338 104.704 49.8206 103.825 53.0838Z" fill="#000000" fill-opacity="0.85"/>
  <path d="M63.5021 99.1922C87.0143 92.8494 97.0714 74.6058 90.4542 50.0345L81.1989 15.658C78.924 7.18976 73.4142 4.17218 64.8297 6.41681L15.9113 19.4251C7.27454 21.7371 4.06506 27.1121 6.40735 35.7303L15.5499 70.1033C22.088 94.6409 39.9259 105.486 63.5021 99.1922ZM34.545 50.5247C30.9855 51.5198 30.4401 53.9158 28.9347 54.2054C28.2814 54.3367 27.2628 53.5823 26.8268 52.0604C25.67 47.9857 28.2462 43.5877 32.3966 42.5472C36.5841 41.4915 40.9147 43.9969 41.9923 47.9857C42.4469 49.5111 41.9352 50.6341 41.2145 50.8968C39.5743 51.4407 37.82 49.6761 34.545 50.5247ZM64.3302 42.4984C60.8346 43.4818 60.2252 45.8441 58.7199 46.0999C58.0665 46.2615 57.048 45.4769 56.6119 44.0189C55.4703 39.9779 58.0314 35.5311 62.1818 34.4905C66.403 33.3524 70.7335 35.8914 71.7775 39.929C72.2472 41.5032 71.7355 42.6077 70.9996 42.8704C69.3595 43.3992 67.6051 41.6009 64.3302 42.4984ZM59.1544 82.6956C48.798 85.3626 38.7799 81.8319 33.4645 73.1712C32.5148 71.639 33.3029 70.2801 35.1652 70.4417C42.9122 71.1605 50.4606 69.7196 55.3341 68.4178C60.1066 67.1683 67.2926 64.639 73.715 60.1073C75.2355 59.0111 76.6769 59.7957 76.6095 61.6766C76.3888 71.8509 69.5446 79.8333 59.1544 82.6956Z" fill="#000000" fill-opacity="0.85"/>
 </g>
</svg>
