<?xml version="1.0" encoding="UTF-8"?>
<!--Generator: Apple Native CoreSVG 232.5-->
<!DOCTYPE svg
PUBLIC "-//W3C//DTD SVG 1.1//EN"
       "http://www.w3.org/Graphics/SVG/1.1/DTD/svg11.dtd">
<svg version="1.1" xmlns="http://www.w3.org/2000/svg" xmlns:xlink="http://www.w3.org/1999/xlink" width="125.999" height="129.82">
 <g>
  <rect height="129.82" opacity="0" width="125.999" x="0" y="0"/>
  <path d="M74.0718 12.4855L81.8792 41.539C77.0907 47.0387 72.1945 52.8891 67.829 58.4C68.5237 56.5327 68.9127 54.4764 68.9448 52.2531C69.0459 50.2258 67.3721 49.527 65.7319 50.7057C61.6645 53.8454 56.4644 56.0441 49.9077 57.8542C43.3965 59.5666 37.7266 60.2702 32.6777 59.5632C30.6621 59.4167 29.5742 60.8093 30.6738 62.5217C35.6758 70.8971 45.0869 73.0427 53.4131 70.8605C56.3307 70.0708 59.0966 68.7505 61.4548 66.9345C59.2669 70.4522 57.6013 74.7332 57.0869 79.6681C53.7529 80.5202 50.6294 82.2546 48.0952 84.8224C46.688 86.2494 45.6084 87.7055 44.7878 89.1417C30.108 88.1644 19.0165 77.9196 14.5879 61.4064L6.35448 30.6027C4.28661 23.0182 7.44042 17.7057 15.0586 15.653L59.0058 3.87908C66.624 1.86004 72.0342 4.86736 74.0718 12.4855ZM28.9556 35.006C24.8774 36.0988 22.564 39.985 23.6719 43.9098C24.1113 45.6222 25.1787 46.4103 26.0156 46.215C27.3223 45.821 27.8745 43.6691 31.0586 42.8205C34.2427 41.9567 35.79 43.5866 37.1455 43.2263C37.9673 43.0309 38.4941 41.758 38.0698 40.0793C36.9956 36.1208 33.064 33.8981 28.9556 35.006ZM56.6206 27.5724C52.561 28.6652 50.2475 32.5851 51.3218 36.5099C51.7949 38.1887 52.8286 39.0104 53.7143 38.7966C55.0059 38.4211 55.5581 36.2692 58.7422 35.3869C61.9414 34.5383 63.4888 36.153 64.7954 35.8264C65.6509 35.5973 66.1592 34.3581 65.7197 32.6794C64.6455 28.7209 60.729 26.4982 56.6206 27.5724Z" fill="#000000" fill-opacity="0.85"/>
  <path d="M106.702 23.53C103.91 26.0251 84.2525 45.9108 71.2945 63.154C82.4361 64.3195 92.2154 70.9806 97.1626 81.3356C108.836 62.7536 118.25 36.6423 119.614 33.0661C122.973 23.8044 113.653 17.4782 106.702 23.53ZM76.0991 83.8356C80.2344 86.7165 83.4404 90.7341 84.7739 94.5358C88.2798 93.1232 91.0093 90.5758 93.2725 87.3595C93.6665 86.7853 94.0943 86.1925 94.4546 85.5998C90.4707 74.4753 79.5933 67.2379 68.2495 67.1706C67.7276 67.7599 67.1753 68.5075 66.6568 69.3004C64.5181 72.5016 63.1577 76.1335 63.1006 79.488C67.0488 79.3483 71.9824 80.9396 76.0991 83.8356ZM37.5723 116.306C47.3887 126.141 65.3462 126.956 75.0986 117.301C83.4468 109.002 83.7246 98.3522 75.8311 90.4098C68.7222 83.237 58.0386 82.7941 52.1353 88.78C45.353 95.6935 49.8706 102.738 45.646 106.978C42.1387 110.549 38.9346 109.292 37.0688 111.12C35.7437 112.439 35.7217 114.456 37.5723 116.306Z" fill="#000000" fill-opacity="0.85"/>
 </g>
</svg>
