<?xml version="1.0" encoding="UTF-8"?>
<!--Generator: Apple Native CoreSVG 232.5-->
<!DOCTYPE svg
PUBLIC "-//W3C//DTD SVG 1.1//EN"
       "http://www.w3.org/Graphics/SVG/1.1/DTD/svg11.dtd">
<svg version="1.1" xmlns="http://www.w3.org/2000/svg" xmlns:xlink="http://www.w3.org/1999/xlink" width="114.987" height="123.666">
 <g>
  <rect height="123.666" opacity="0" width="114.987" x="0" y="0"/>
  <path d="M68.889 9.2045L77.1224 39.9745C77.5077 41.419 77.8286 42.8391 78.0808 44.2312C76.2384 46.3104 74.3924 48.4378 72.5908 50.5728C72.4813 47.7309 71.9934 44.7191 71.1448 41.5712L62.9451 10.8754C61.8929 7.05705 59.1253 5.44425 55.2918 6.51164L11.0335 18.3246C7.16631 19.3769 5.57549 22.1479 6.59405 25.9814L14.8089 56.6806C19.764 75.1337 33.0447 83.35 50.9187 78.5565C52.7784 78.0572 54.5245 77.4597 56.1274 76.7468C56.0013 77.5877 55.9571 78.4423 55.9725 79.3173C52.1995 79.6693 48.7161 81.3749 46.0457 84.6107C45.6577 85.0572 45.3123 85.5046 45.012 85.9519C27.4913 87.7186 14.1095 77.9364 8.84647 58.2958L0.613075 27.477C-1.4548 19.8402 1.7664 14.5648 9.3997 12.5272L53.7928 0.631739C61.3621-1.421 66.8211 1.55264 68.889 9.2045ZM63.1101 50.6098C62.972 58.9267 57.2425 65.8144 48.139 68.2489C39.0169 70.6986 30.6155 67.5756 26.3357 60.4608C25.1351 58.622 26.1893 57.1654 27.9354 57.4247C33.3162 58.1537 39.389 57.1772 44.7615 55.7309C50.1004 54.3031 55.9021 52.1381 60.1819 48.7675C61.6014 47.7084 63.2112 48.4257 63.1101 50.6098ZM33.3982 38.4579C33.8226 40.0692 33.2771 41.226 32.3728 41.4735C31.1336 41.8305 29.5105 40.3017 26.5369 41.0863C23.5481 41.8861 22.9168 44.016 21.7112 44.3427C20.8069 44.6054 19.7395 43.851 19.3338 42.2245C18.2596 38.2997 20.6067 34.4657 24.5013 33.4555C28.4261 32.3813 32.3392 34.5331 33.3982 38.4579ZM60.0501 31.329C60.4895 32.9555 59.9778 34.1274 59.0735 34.3598C57.8343 34.683 56.2112 33.1205 53.2376 33.954C50.2337 34.7387 49.6175 36.8686 48.4119 37.1952C47.4402 37.4579 46.4065 36.6884 45.9671 35.0771C44.8929 31.1859 47.2737 27.352 51.1683 26.2929C55.0931 25.2338 59.0398 27.4042 60.0501 31.329Z" fill="#000000" fill-opacity="0.85"/>
  <path d="M33.2596 114.162C44.1199 124.024 63.1497 122.828 72.1522 112.389C77.0628 106.791 78.7923 100.095 76.9183 93.9232C81.4559 92.4447 84.763 89.4457 88.4925 84.2025C100.73 66.6439 113.014 33.3632 114.228 29.9892C117.636 20.6635 108.484 13.724 100.721 20.453C97.9295 22.9481 73.4622 47.5004 61.2244 65.1566C57.5774 70.3847 55.8885 74.5473 55.9725 79.3173C52.1995 79.6693 48.7161 81.3749 46.0457 84.6107C40.3353 91.181 43.8733 97.9506 40.5511 101.899C37.8885 104.826 34.0296 104.068 31.9197 106.603C30.3504 108.538 30.3064 111.51 33.2596 114.162ZM62.0931 79.9017C61.7952 76.4975 63.1776 72.8187 66.1561 68.5893C78.557 51.0614 102.283 27.2987 104.453 25.08C106.657 22.7641 109.876 25.058 108.619 28.0287C107.51 30.6581 95.5208 63.5936 83.4817 80.7699C80.1902 85.5228 77.3768 87.5805 74.1004 88.4359C72.8494 86.6312 71.1995 84.8905 69.1087 83.3266C66.9066 81.7372 64.5091 80.5282 62.0931 79.9017ZM83.4949 81.8934L88.1771 79.8436C85.7762 70.8524 74.8323 63.1024 65.6678 63.8417L65.0545 68.9921C71.7786 67.9799 82.012 75.1439 83.4949 81.8934ZM66.7459 88.6137C73.3772 94.0233 73.1834 102.117 67.886 108.466C61.6849 116.144 48.6229 118.321 40.2669 111.871C39.0316 110.907 38.9525 109.815 39.4608 109.126C40.2737 108.046 43.3528 107.911 45.2586 105.197C48.9915 99.9096 46.3177 93.8578 50.4837 88.7694C54.3748 84.0487 61.3162 84.0775 66.7459 88.6137Z" fill="#000000" fill-opacity="0.85"/>
 </g>
</svg>
