<?xml version="1.0" encoding="UTF-8"?>
<!--Generator: Apple Native CoreSVG 232.5-->
<!DOCTYPE svg
PUBLIC "-//W3C//DTD SVG 1.1//EN"
       "http://www.w3.org/Graphics/SVG/1.1/DTD/svg11.dtd">
<svg version="1.1" xmlns="http://www.w3.org/2000/svg" xmlns:xlink="http://www.w3.org/1999/xlink" width="97.9595" height="97.9932">
 <g>
  <rect height="97.9932" opacity="0" width="97.9595" x="0" y="0"/>
  <path d="M97.9595 49.021C97.9595 75.8584 75.8247 97.9932 48.9722 97.9932C22.1685 97.9932 0 75.8584 0 49.021C0 22.2173 22.1348 0.0488281 48.9385 0.0488281C75.791 0.0488281 97.9595 22.2173 97.9595 49.021ZM58.1372 44.4458C59.4404 49.0845 59.459 53.3696 58.4033 57.1177C58.9976 57.1851 59.6929 57.249 60.3023 57.4106C64.2319 58.3838 66.8652 61.4648 66.9663 65.1401C66.9663 66.0073 66.2573 66.3525 65.7017 65.7446C63.6323 63.8555 61.4858 62.7881 59.085 62.1079C58.186 61.8486 57.2534 61.687 56.3394 61.6045C54.5664 64.6221 51.8403 67.0991 48.2808 68.8521C50.2944 70.6973 53.0068 72.1216 56.2158 72.9819C66.709 75.75 74.6597 70.9429 77.5928 59.9951L81.6572 44.665C82.7197 40.8545 81.2969 38.396 77.4829 37.4312L55.6084 31.5786C55.2632 31.4287 54.9146 31.3799 54.603 31.3462ZM43.4995 25.8423L21.6099 31.6914C17.7773 32.6899 16.4033 35.1148 17.4356 38.9473L21.4663 54.3413C24.3843 65.2588 32.3501 70.0811 42.8584 67.3096C53.3027 64.459 57.896 56.2979 54.8989 45.3315L50.7554 30.0166C49.7232 26.2363 47.2495 24.8623 43.4995 25.8423ZM48.7007 50.5615C48.5996 55.1006 45.5606 58.6768 40.9136 59.9092C36.2852 61.1299 31.7998 59.5674 29.4595 55.7271C28.9863 54.9609 29.3804 54.4053 30.1802 54.4692C33.7305 54.7891 37.0542 54.1646 39.1929 53.5718C41.3467 52.9976 44.5474 51.8643 47.394 49.8408C48.1299 49.3677 48.7681 49.7432 48.7007 50.5615ZM69.7412 48.1939C71.2246 48.5845 72.0396 50.0679 71.6338 51.5176C71.2398 52.9522 69.7412 53.8648 68.3066 53.4253C66.8721 53.1323 66.0234 51.5513 66.4326 50.0679C66.7593 48.6333 68.273 47.8032 69.7412 48.1939ZM33.2915 44.4292C33.4531 45.1094 33.2461 45.6314 32.9194 45.7778C32.1499 45.9766 31.3687 45.1431 29.9038 45.5859C28.3379 46.0557 28.1309 47.0996 27.4253 47.1973C27.1021 47.3101 26.7148 46.916 26.5195 46.3032C25.915 44.4292 27.0903 42.4609 28.9609 42.0064C30.8501 41.5332 32.7022 42.6865 33.2915 44.4292ZM46.5474 40.9019C46.8066 41.5332 46.4834 42.0518 46.2393 42.2017C45.4697 42.3667 44.6885 41.5635 43.2085 42.0064C41.7065 42.3667 41.4019 43.4561 40.73 43.5689C40.4219 43.6816 39.9707 43.2725 39.7266 42.6899C39.2534 40.9019 40.4102 38.8477 42.2808 38.3931C44.1699 37.9722 46.1231 38.9639 46.5474 40.9019Z" fill="#000000" fill-opacity="0.85"/>
 </g>
</svg>
