<?xml version="1.0" encoding="UTF-8"?>
<!--Generator: Apple Native CoreSVG 232.5-->
<!DOCTYPE svg
PUBLIC "-//W3C//DTD SVG 1.1//EN"
       "http://www.w3.org/Graphics/SVG/1.1/DTD/svg11.dtd">
<svg version="1.1" xmlns="http://www.w3.org/2000/svg" xmlns:xlink="http://www.w3.org/1999/xlink" width="97.9595" height="97.9932">
 <g>
  <rect height="97.9932" opacity="0" width="97.9595" x="0" y="0"/>
  <path d="M48.9722 97.9443C75.8247 97.9443 97.9595 75.7759 97.9595 48.9722C97.9595 22.1348 75.791 0 48.9385 0C22.1348 0 0 22.1348 0 48.9722C0 75.7759 22.1685 97.9443 48.9722 97.9443ZM48.9722 91.6113C25.3501 91.6113 6.36671 72.5942 6.36671 48.9722C6.36671 25.3501 25.3164 6.31789 48.9385 6.31789C72.5605 6.31789 91.6265 25.3501 91.6265 48.9722C91.6265 72.5942 72.5942 91.6113 48.9722 91.6113Z" fill="#000000" fill-opacity="0.85"/>
  <path d="M39.8565 82.0601C47.2852 82.0601 53.2036 76.1416 53.2036 68.792C53.2036 64.8975 51.5586 61.4121 48.3731 58.6743C47.8394 58.2197 47.7568 57.9419 47.7568 57.1187L47.7905 32.8706C47.7905 27.8359 44.5425 24.3403 39.8565 24.3403C35.1367 24.3403 31.9526 27.8359 31.9526 32.8706L31.9526 57.1187C31.9526 57.957 31.8398 58.2197 31.2539 58.6743C28.0869 61.4121 26.5059 64.8975 26.5059 68.792C26.5059 76.1416 32.4243 82.0601 39.8565 82.0601ZM39.8565 78.6499C34.3491 78.6499 29.9985 74.2808 29.9985 68.792C29.9985 65.5845 31.3877 62.7339 34.1338 60.8667C35.0884 60.2236 35.4419 59.4897 35.4419 58.3062L35.4419 32.9717C35.4419 29.8804 37.1777 27.897 39.8565 27.897C42.4981 27.897 44.2339 29.8804 44.2339 32.9717L44.2339 58.3062C44.2339 59.4897 44.5723 60.2236 45.5269 60.8667C48.2578 62.7339 49.6958 65.5845 49.6958 68.792C49.6958 74.2808 45.2778 78.6499 39.8565 78.6499ZM39.8228 75.7602C43.7202 75.7602 46.8247 72.6221 46.8247 68.7583C46.8247 66.0747 45.2725 63.8423 43.0249 62.6436C42.1982 62.2075 42.0298 61.9263 42.0298 60.7241L42.0298 35.396C42.0298 34.002 41.0786 33.0508 39.8228 33.0508C38.5669 33.0508 37.6646 34.002 37.6646 35.396L37.6646 60.7241C37.6646 61.9263 37.481 62.2075 36.5869 62.6436C34.437 63.8272 32.8848 66.0747 32.8848 68.7583C32.8848 72.6558 35.959 75.7602 39.8228 75.7602ZM52.1426 24.9321C53.3804 24.9321 54.2578 23.8931 54.2578 22.832L54.2578 16.5205C54.2578 15.4258 53.3804 14.4844 52.1426 14.4844C50.9536 14.4844 50.0425 15.4258 50.0425 16.5205L50.0425 22.832C50.0425 23.9722 50.9688 24.9321 52.1426 24.9321ZM63.8125 29.7813C64.5737 30.5762 65.9649 30.5762 66.7598 29.7813L71.2109 25.3115C71.9722 24.5166 72.0059 23.0986 71.1318 22.3037C70.3218 21.5088 69.0317 21.5088 68.2705 22.3037L63.7671 26.8071C62.8931 27.6475 63.0176 28.9863 63.8125 29.7813ZM70.6187 43.4419L76.8965 43.4419C78.0855 43.4419 78.9966 42.4028 78.9966 41.3755C78.9966 40.2622 78.1157 39.272 76.8965 39.272L70.6187 39.272C69.4483 39.272 68.5523 40.2622 68.5523 41.3755C68.5523 42.4028 69.4634 43.4419 70.6187 43.4419ZM68.2705 60.4741C69.0317 61.2354 70.3218 61.2539 71.1318 60.4741C72.0059 59.6792 72.0059 58.2275 71.2109 57.5L66.7261 52.9966C65.9463 52.2017 64.5923 52.2017 63.8125 52.9966C63.0176 53.7915 62.8931 55.1641 63.7671 55.9556ZM50.9766 54.0625C58.6675 54.6548 64.9727 49.0815 64.9727 41.3755C64.9727 34.1943 59.29 28.5117 52.1426 28.5117C51.5283 28.5117 50.9141 28.5874 50.2998 28.7456C50.7847 30.0303 51.0103 31.4092 51.0103 32.8706Z" fill="#000000" fill-opacity="0.85"/>
 </g>
</svg>
