<?xml version="1.0" encoding="UTF-8"?>
<!--Generator: Apple Native CoreSVG 232.5-->
<!DOCTYPE svg
PUBLIC "-//W3C//DTD SVG 1.1//EN"
       "http://www.w3.org/Graphics/SVG/1.1/DTD/svg11.dtd">
<svg version="1.1" xmlns="http://www.w3.org/2000/svg" xmlns:xlink="http://www.w3.org/1999/xlink" width="97.9595" height="97.9932">
 <g>
  <rect height="97.9932" opacity="0" width="97.9595" x="0" y="0"/>
  <path d="M97.9595 49.021C97.9595 75.8584 75.8247 97.9932 48.9722 97.9932C22.1685 97.9932 0 75.8584 0 49.021C0 22.2173 22.1348 0.0488281 48.9385 0.0488281C75.791 0.0488281 97.9595 22.2173 97.9595 49.021ZM31.4961 32.6128L31.4961 57.3696C31.4961 58.1743 31.3984 58.4707 30.7974 58.9253C27.5781 61.7153 25.9482 65.2681 25.9482 69.23C25.9482 76.7817 32.0015 82.835 39.6021 82.835C47.1841 82.835 53.2373 76.7817 53.2373 69.23C53.2373 65.2681 51.5586 61.7153 48.3057 58.9253C47.7383 58.4707 47.6558 58.1592 47.6558 57.3696L47.6895 32.6128C47.6895 27.4771 44.374 23.8804 39.6021 23.8804C34.7476 23.8804 31.4961 27.4771 31.4961 32.6128ZM44.0317 32.7324L44.0317 58.5571C44.0317 59.7744 44.3701 60.5083 45.3735 61.1699C48.1567 63.1045 49.6436 65.9551 49.6436 69.23C49.6436 74.8535 45.1094 79.2749 39.6021 79.2749C33.96 79.2749 29.5571 74.8535 29.5571 69.23C29.5571 65.9551 30.98 63.1045 33.7598 61.1699C34.7329 60.5083 35.0864 59.7744 35.0864 58.5571L35.0864 32.7324C35.0864 29.6226 36.856 27.523 39.6021 27.523C42.2773 27.523 44.0317 29.6226 44.0317 32.7324ZM37.3765 35.1904L37.3765 61.0425C37.3765 62.2969 37.1929 62.5596 36.2651 63.0142C34.0816 64.1978 32.4956 66.479 32.4956 69.1963C32.4956 73.1948 35.6372 76.333 39.5684 76.333C43.5332 76.333 46.6899 73.1611 46.6899 69.1963C46.6899 66.479 45.1191 64.2617 42.8042 63.0142C41.9775 62.5596 41.8091 62.2969 41.8091 61.0425L41.8091 35.1904C41.8091 33.7627 40.8242 32.8115 39.5684 32.8115C38.2788 32.8115 37.3765 33.7627 37.3765 35.1904ZM64.0332 53.2139C63.2046 54.0088 63.0952 55.3999 63.9878 56.2402L68.5586 60.811C69.3535 61.5723 70.6773 61.606 71.521 60.811C72.4136 59.9824 72.4136 58.5122 71.6001 57.751L67.0479 53.2139C66.2344 52.3853 64.8618 52.3853 64.0332 53.2139ZM50.2661 28.4204C50.7847 29.7388 51.0103 31.1514 51.0103 32.6128L50.9766 54.2798C58.8023 54.8232 65.2271 49.1792 65.2271 41.3047C65.2271 34.0225 59.4248 28.1865 52.1426 28.1865C51.5283 28.1865 50.9141 28.2808 50.2661 28.4204ZM71.0078 39.1338C69.8037 39.1338 68.874 40.1763 68.874 41.3047C68.874 42.3994 69.8189 43.4722 71.0078 43.4722L77.3867 43.4722C78.6094 43.4722 79.5542 42.3994 79.5542 41.3047C79.5542 40.1763 78.6245 39.1338 77.3867 39.1338ZM68.5586 21.8438L63.9878 26.4146C63.0952 27.2886 63.2046 28.646 64.0332 29.4746C64.8281 30.2695 66.2681 30.2695 67.0816 29.4746L71.6001 24.9038C72.3799 24.1089 72.4136 22.6724 71.521 21.8438C70.6773 21.0151 69.3535 21.0151 68.5586 21.8438ZM49.9751 15.9595L49.9751 22.3721C49.9751 23.5459 50.9351 24.5396 52.1426 24.5396C53.4141 24.5396 54.3252 23.5005 54.3252 22.3721L54.3252 15.9595C54.3252 14.8799 53.4141 13.856 52.1426 13.856C50.9199 13.856 49.9751 14.8799 49.9751 15.9595Z" fill="#000000" fill-opacity="0.85"/>
 </g>
</svg>
