<?xml version="1.0" encoding="UTF-8"?>
<!--Generator: Apple Native CoreSVG 232.5-->
<!DOCTYPE svg
PUBLIC "-//W3C//DTD SVG 1.1//EN"
       "http://www.w3.org/Graphics/SVG/1.1/DTD/svg11.dtd">
<svg version="1.1" xmlns="http://www.w3.org/2000/svg" xmlns:xlink="http://www.w3.org/1999/xlink" width="71.375" height="108.128">
 <g>
  <rect height="108.128" opacity="0" width="71.375" x="0" y="0"/>
  <path d="M58.7159 17.5718L69.0088 17.5718C70.3999 17.5718 71.375 16.5259 71.375 15.2998C71.375 14.0586 70.3999 13.0278 69.0088 13.0278L58.7159 13.0278C57.3247 13.0278 56.3496 14.0586 56.3496 15.2998C56.3496 16.5259 57.3247 17.5718 58.7159 17.5718ZM58.7159 31.2925L69.0088 31.2925C70.3999 31.2925 71.375 30.2466 71.375 29.0205C71.375 27.7793 70.3999 26.7485 69.0088 26.7485L58.7159 26.7485C57.3247 26.7485 56.3496 27.7793 56.3496 29.0205C56.3496 30.2466 57.3247 31.2925 58.7159 31.2925ZM58.7159 44.998L69.0088 44.998C70.3999 44.998 71.375 43.9673 71.375 42.7261C71.375 41.5 70.3999 40.4204 69.0088 40.4204L58.7159 40.4204C57.3247 40.4204 56.3496 41.5 56.3496 42.7261C56.3496 43.9673 57.3247 44.998 58.7159 44.998ZM58.7159 58.7188L69.0088 58.7188C70.3999 58.7188 71.375 57.688 71.375 56.4468C71.375 55.187 70.3999 54.1411 69.0088 54.1411L58.7159 54.1411C57.3247 54.1411 56.3496 55.187 56.3496 56.4468C56.3496 57.688 57.3247 58.7188 58.7159 58.7188Z" fill="#000000" fill-opacity="0.85"/>
  <path d="M35.7212 107.997C49.375 107.997 60.3736 96.9341 60.3736 83.3257C60.3736 76.1006 57.4219 69.7729 51.5171 64.6811C50.3404 63.6777 50.0659 62.9858 50.0659 61.2939L50.0659 15.5337C50.0659 6.34815 44.2129 0 35.7212 0C27.1621 0 21.2754 6.34815 21.2754 15.5337L21.2754 61.2939C21.2754 62.9858 21.0498 63.6777 19.8242 64.6811C13.9531 69.7729 10.9678 76.1006 10.9678 83.3257C10.9678 96.9341 22.0152 107.997 35.7212 107.997ZM35.7212 102.536C25.1074 102.536 16.5108 93.8721 16.5108 83.3257C16.5108 77.1768 19.2857 71.6138 24.6128 67.9502C26.2173 66.8188 26.8487 65.6641 26.8487 63.5713L26.8487 15.7207C26.8487 9.69484 30.4903 5.55812 35.7212 5.55812C40.8999 5.55812 44.5415 9.69484 44.5415 15.7207L44.5415 63.5713C44.5415 65.6641 45.1577 66.8188 46.7622 67.9502C52.0894 71.6138 54.8643 77.1768 54.8643 83.3257C54.8643 93.8721 46.2339 102.536 35.7212 102.536Z" fill="#000000" fill-opacity="0.85"/>
  <path d="M35.6875 95.9595C42.6846 95.9595 48.291 90.3379 48.291 83.292C48.291 78.3994 45.5518 74.3672 41.5195 72.1953C39.8511 71.3047 39.2837 70.6582 39.2837 68.1294L39.2837 59.5806C39.2837 57.2822 37.7246 55.6626 35.6875 55.6626C33.6319 55.6626 32.0913 57.2822 32.0913 59.5806L32.0913 68.1294C32.0913 70.6582 31.5239 71.3047 29.8555 72.1953C25.8233 74.3672 23.084 78.3994 23.084 83.292C23.084 90.3379 28.7056 95.9595 35.6875 95.9595Z" fill="#000000" fill-opacity="0.85"/>
 </g>
</svg>
