<?xml version="1.0" encoding="UTF-8"?>
<!--Generator: Apple Native CoreSVG 232.5-->
<!DOCTYPE svg
PUBLIC "-//W3C//DTD SVG 1.1//EN"
       "http://www.w3.org/Graphics/SVG/1.1/DTD/svg11.dtd">
<svg version="1.1" xmlns="http://www.w3.org/2000/svg" xmlns:xlink="http://www.w3.org/1999/xlink" width="97.9595" height="97.9932">
 <g>
  <rect height="97.9932" opacity="0" width="97.9595" x="0" y="0"/>
  <path d="M97.9595 49.021C97.9595 75.8584 75.8247 97.9932 48.9722 97.9932C22.1685 97.9932 0 75.8584 0 49.021C0 22.2173 22.1348 0.0488281 48.9385 0.0488281C75.791 0.0488281 97.9595 22.2173 97.9595 49.021ZM31.5298 32.5791L31.5298 57.3359C31.5298 58.1406 31.4321 58.4033 30.8311 58.8916C27.6118 61.6479 25.9819 65.2344 25.9819 69.1963C25.9819 76.748 32.0352 82.8013 39.6357 82.8013C47.1841 82.8013 53.2373 76.748 53.2373 69.1963C53.2373 65.2344 51.5586 61.6479 48.3057 58.8916C47.772 58.4033 47.6895 58.1255 47.6895 57.3359L47.7232 32.5791C47.7232 27.4434 44.4077 23.8467 39.6357 23.8467C34.7813 23.8467 31.5298 27.4434 31.5298 32.5791ZM44.0654 32.6802L44.0654 58.5234C44.0654 59.7407 44.4038 60.4746 45.4072 61.1362C48.1904 63.0371 49.6621 65.9365 49.6621 69.1963C49.6621 74.8198 45.1431 79.2563 39.6357 79.2563C33.9937 79.2563 29.5908 74.8198 29.5908 69.1963C29.5908 65.9365 31.0137 63.0371 33.7935 61.1362C34.7515 60.4746 35.1201 59.7407 35.1201 58.5234L35.1201 32.6802C35.1201 29.5552 36.8897 27.5044 39.6357 27.5044C42.311 27.5044 44.0654 29.5552 44.0654 32.6802ZM37.3765 55.9424L37.3765 61.0088C37.3765 62.2295 37.1929 62.5259 36.2988 62.9805C34.1152 64.1641 32.5293 66.4453 32.5293 69.1626C32.5293 73.1274 35.6372 76.2993 39.6021 76.2993C43.5669 76.2993 46.6899 73.0937 46.6899 69.1626C46.6899 66.4453 45.1191 64.228 42.8379 62.9805C41.9961 62.5259 41.8428 62.2295 41.8428 61.0088L41.8428 55.9424C41.8428 54.5147 40.8579 53.5298 39.6021 53.5298C38.3125 53.5298 37.3765 54.5147 37.3765 55.9424ZM57.2876 17.3091L57.2876 21.3311L54.1714 19.5381C53.3159 18.9673 52.3174 19.166 51.8442 20.0332C51.3525 20.855 51.6978 21.7559 52.5952 22.2964L57.3062 25.0425L57.3735 34.4775L50.4028 30.3887C50.7007 31.7173 50.9043 33.0913 51.0137 34.5293L55.7974 37.2847L51.044 39.9609L51.044 43.7886L57.3735 40.0733L57.3062 49.4932L52.7334 52.1685C52.3233 53.1299 53.5523 54.6533 54.6431 54.7734L57.2876 53.1675L57.2876 57.2603C57.2876 58.2622 57.9629 59.148 58.98 59.148C59.9854 59.148 60.6421 58.2437 60.6421 57.2603L60.6084 53.1861L63.7432 54.9942C64.644 55.5347 65.6577 55.3696 66.0855 54.5513C66.562 53.6621 66.1831 52.7612 65.3159 52.2207L60.6084 49.4932L60.541 40.0733L68.6426 44.8228L68.6426 50.2139C68.6426 51.2647 69.2993 52.0342 70.2827 52.0527C71.187 52.0527 71.8403 51.231 71.8403 50.2813L71.8589 46.6616L75.3691 48.7173C76.292 49.209 77.3428 49.1113 77.8984 48.2407C78.4087 47.3027 77.9961 46.3682 77.0801 45.8276L73.5513 43.7383L76.6523 41.9268C77.4707 41.4351 77.8613 40.4702 77.4033 39.7344C76.8628 38.8638 75.9097 38.7139 75.0576 39.1904L70.3164 41.8994L62.1323 37.2847L70.3501 32.6514L75.0762 35.3115C75.9468 35.8218 76.9605 35.7393 77.437 34.8535C77.9473 34.0503 77.4741 33.1157 76.686 32.624L73.6187 30.7637L77.1138 28.7905C78.0483 28.2163 78.4087 27.2481 77.8984 26.3926C77.3882 25.522 76.3374 25.2896 75.4517 25.7998L71.8926 27.8218L71.8926 24.2359C71.8926 23.2861 71.2544 22.5015 70.3501 22.5015C69.3667 22.5015 68.71 23.2861 68.71 24.3369L68.6763 29.7583L60.541 34.4775L60.6084 25.0425L65.3462 22.2964C66.3145 21.7559 66.5132 20.855 66.1191 20.0332C65.6611 19.1323 64.644 19.0464 63.7432 19.5381L60.6084 21.3311L60.6421 17.3091C60.6421 16.2583 59.9854 15.4365 58.98 15.4365C57.9629 15.4365 57.2876 16.2583 57.2876 17.3091Z" fill="#000000" fill-opacity="0.85"/>
 </g>
</svg>
