<?xml version="1.0" encoding="UTF-8"?>
<!--Generator: Apple Native CoreSVG 232.5-->
<!DOCTYPE svg
PUBLIC "-//W3C//DTD SVG 1.1//EN"
       "http://www.w3.org/Graphics/SVG/1.1/DTD/svg11.dtd">
<svg version="1.1" xmlns="http://www.w3.org/2000/svg" xmlns:xlink="http://www.w3.org/1999/xlink" width="100.809" height="108.128">
 <g>
  <rect height="108.128" opacity="0" width="100.809" x="0" y="0"/>
  <path d="M86.0921 42.7261C86.0921 43.9673 85.117 44.998 83.7259 44.998L73.4329 44.998C72.0418 44.998 71.0667 43.9673 71.0667 42.7261C71.0667 41.5 72.0418 40.4204 73.4329 40.4204L83.7259 40.4204C85.117 40.4204 86.0921 41.5 86.0921 42.7261ZM86.0921 29.0205C86.0921 30.2466 85.117 31.2925 83.7259 31.2925L73.4329 31.2925C72.0418 31.2925 71.0667 30.2466 71.0667 29.0205C71.0667 27.7793 72.0418 26.7485 73.4329 26.7485L83.7259 26.7485C85.117 26.7485 86.0921 27.7793 86.0921 29.0205ZM86.0921 15.2998C86.0921 16.5259 85.117 17.5718 83.7259 17.5718L73.4329 17.5718C72.0418 17.5718 71.0667 16.5259 71.0667 15.2998C71.0667 14.0586 72.0418 13.0278 73.4329 13.0278L83.7259 13.0278C85.117 13.0278 86.0921 14.0586 86.0921 15.2998Z" fill="#000000" fill-opacity="0.85"/>
  <path d="M41.5657 47.6313L41.5657 63.5713C41.5657 65.6641 40.9344 66.8188 39.3299 67.9502C34.0027 71.6138 31.2278 77.1768 31.2278 83.3257C31.2278 93.8721 39.8245 102.536 50.4383 102.536C60.951 102.536 69.5813 93.8721 69.5813 83.3257C69.5813 78.8101 68.0848 74.6105 65.1742 71.2505L74.9841 81.0647C75.0576 81.8065 75.0906 82.5611 75.0906 83.3257C75.0906 96.9341 64.0921 107.997 50.4383 107.997C36.7322 107.997 25.6848 96.9341 25.6848 83.3257C25.6848 76.1006 28.6702 69.7729 34.5413 64.6811C35.7669 63.6777 35.9925 62.9858 35.9925 61.2939L35.9925 42.0555ZM54.0008 60.072L54.0008 68.1294C54.0008 70.6582 54.5681 71.3047 56.2366 72.1953C60.2688 74.3672 63.0081 78.3994 63.0081 83.292C63.0081 90.3379 57.4016 95.9595 50.4046 95.9595C43.4226 95.9595 37.8011 90.3379 37.8011 83.292C37.8011 78.3994 40.5403 74.3672 44.5725 72.1953C46.241 71.3047 46.8084 70.6582 46.8084 68.1294L46.8084 52.8763ZM63.2313 69.3067C62.6845 68.8285 62.0992 68.3765 61.4793 67.9502C60.496 67.2569 59.8839 66.5548 59.5587 65.6324ZM64.783 15.5337L64.783 48.395L59.2586 42.8681L59.2586 15.7207C59.2586 9.69484 55.617 5.55812 50.4383 5.55812C45.2073 5.55812 41.5657 9.69484 41.5657 15.7207L41.5657 25.1672L35.9925 19.5915L35.9925 15.5337C35.9925 6.34815 41.8792 0 50.4383 0C58.93 0 64.783 6.34815 64.783 15.5337Z" fill="#000000" fill-opacity="0.85"/>
  <path d="M90.8172 89.7666C91.949 90.9136 93.8455 90.9136 94.9437 89.7666C96.0721 88.6196 96.0755 86.7871 94.9437 85.6401L20.0511 10.7812C18.9344 9.66454 17.0716 9.60057 15.8909 10.7812C14.7776 11.8945 14.7439 13.8096 15.8909 14.9077Z" fill="#000000" fill-opacity="0.85"/>
 </g>
</svg>
