<?xml version="1.0" encoding="UTF-8"?>
<!--Generator: Apple Native CoreSVG 232.5-->
<!DOCTYPE svg
PUBLIC "-//W3C//DTD SVG 1.1//EN"
       "http://www.w3.org/Graphics/SVG/1.1/DTD/svg11.dtd">
<svg version="1.1" xmlns="http://www.w3.org/2000/svg" xmlns:xlink="http://www.w3.org/1999/xlink" width="133.725" height="93.6289">
 <g>
  <rect height="93.6289" opacity="0" width="133.725" x="0" y="0"/>
  <path d="M0 46.79C0 61.9658 5.05957 75.9024 13.5254 87.0962C14.6909 88.6963 16.6431 88.8462 18.1421 87.647C19.4912 86.4966 19.6748 84.6978 18.5615 83.1836C10.9126 73.1064 6.36671 60.4668 6.36671 46.79C6.36671 33.0796 10.9126 20.4736 18.5615 10.2988C19.6748 8.88233 19.4946 7.0498 18.1421 5.89941C16.6582 4.71533 14.6758 4.89892 13.5254 6.45019C5.05957 17.6743 0 31.6143 0 46.79ZM133.725 46.79C133.725 31.6143 128.699 17.6743 120.199 6.45019C119.049 4.89892 117.066 4.71533 115.583 5.89941C114.23 7.0498 114.084 8.88233 115.163 10.2988C122.846 20.4736 127.358 33.0796 127.358 46.79C127.358 60.4668 122.846 73.1064 115.163 83.1836C114.084 84.6978 114.233 86.4966 115.583 87.647C117.097 88.8462 119.034 88.6963 120.199 87.0962C128.699 75.9024 133.725 61.9658 133.725 46.79Z" fill="#000000" fill-opacity="0.85"/>
  <path d="M66.8623 93.565C92.479 93.565 113.686 72.3916 113.686 46.79C113.686 21.1733 92.479 0 66.8286 0C41.2271 0 20.0723 21.1397 20.0723 46.79C20.0723 72.3916 41.2456 93.565 66.8623 93.565ZM66.8623 87.2471C44.4795 87.2471 26.439 69.2065 26.439 46.79C26.439 24.3399 44.4458 6.29933 66.8286 6.29933C89.2451 6.29933 107.319 24.3399 107.353 46.79C107.387 69.1729 89.3125 87.2471 66.8623 87.2471Z" fill="#000000" fill-opacity="0.85"/>
  <path d="M64.958 72.8882C71.2046 72.8882 76.2642 67.8926 76.2642 61.5483C76.2642 57.1572 73.7739 53.5474 70.1641 51.6094C68.9199 50.9478 68.4654 50.2456 68.4654 48.2876L68.4654 25.7026C68.4654 23.7158 66.9297 22.1314 64.958 22.1314C62.9375 22.1314 61.417 23.7158 61.417 25.7026L61.417 48.2876C61.417 50.2456 60.981 50.9478 59.7031 51.6094C56.0933 53.5474 53.6367 57.1572 53.6367 61.5483C53.6367 67.8926 58.6626 72.8882 64.958 72.8882ZM76.3169 31.0313L84.6773 31.0313C85.7837 31.0313 86.6763 30.1387 86.6763 28.9985C86.6763 27.8921 85.7837 26.9995 84.6773 26.9995L76.3169 26.9995C75.2105 26.9995 74.2842 27.8921 74.2842 28.9985C74.2842 30.1387 75.2105 31.0313 76.3169 31.0313ZM76.3169 39.2349L84.6773 39.2349C85.7837 39.2349 86.6763 38.3086 86.6763 37.2022C86.6763 36.0957 85.7837 35.2031 84.6773 35.2031L76.3169 35.2031C75.2105 35.2031 74.2842 36.0957 74.2842 37.2022C74.2842 38.3086 75.2105 39.2349 76.3169 39.2349ZM76.3169 47.5176L84.6773 47.5176C85.7837 47.5176 86.6763 46.5913 86.6763 45.4512C86.6763 44.3784 85.7837 43.4859 84.6773 43.4859L76.3169 43.4859C75.2105 43.4859 74.2842 44.3784 74.2842 45.4512C74.2842 46.5913 75.2105 47.5176 76.3169 47.5176Z" fill="#000000" fill-opacity="0.85"/>
 </g>
</svg>
