<?xml version="1.0" encoding="UTF-8"?>
<!--Generator: Apple Native CoreSVG 232.5-->
<!DOCTYPE svg
PUBLIC "-//W3C//DTD SVG 1.1//EN"
       "http://www.w3.org/Graphics/SVG/1.1/DTD/svg11.dtd">
<svg version="1.1" xmlns="http://www.w3.org/2000/svg" xmlns:xlink="http://www.w3.org/1999/xlink" width="97.9595" height="97.9932">
 <g>
  <rect height="97.9932" opacity="0" width="97.9595" x="0" y="0"/>
  <path d="M97.9595 49.021C97.9595 75.8584 75.8247 97.9932 48.9722 97.9932C22.1685 97.9932 0 75.8584 0 49.021C0 22.2173 22.1348 0.0488281 48.9385 0.0488281C75.791 0.0488281 97.9595 22.2173 97.9595 49.021ZM27.5112 28.2778L27.5112 54.2041C27.5112 55.0576 27.3984 55.3052 26.7974 55.7749C23.5596 58.5649 21.9297 62.1177 21.9297 66.1133C21.9297 73.6499 27.9829 79.7031 35.5684 79.7031C43.1504 79.7031 49.2036 73.6499 49.2036 66.1133C49.2036 62.1177 47.5249 58.5649 44.2871 55.7749C43.7383 55.3052 43.6558 55.0273 43.6558 54.2041L43.6895 28.2778C43.6895 23.1235 40.3555 19.5606 35.5684 19.5606C30.7627 19.5606 27.5112 23.1235 27.5112 28.2778ZM60.4692 32.8706C54.2881 32.8706 49.8784 36.8408 49.8784 42.7944L49.8784 54.4575C49.8784 55.7759 50.9863 56.8838 52.207 56.8838C53.5254 56.8838 54.5693 55.7759 54.5693 54.4575L54.5693 44.0337C54.5693 43.5908 54.9937 43.2002 55.4028 43.2002C55.9097 43.2002 56.2363 43.5908 56.2363 44.0337L56.2363 75.8355C56.2363 77.3189 57.4234 78.4419 58.8579 78.4419C60.3413 78.4419 61.4307 77.3189 61.4307 75.8355L61.4307 56.4595C61.4307 55.9829 61.8399 55.626 62.313 55.626C62.7861 55.626 63.2105 55.9829 63.2105 56.4595L63.2105 75.8355C63.2105 77.3189 64.3335 78.4419 65.7832 78.4419C67.2178 78.4419 68.3897 77.3189 68.3897 75.8355L68.3897 44.0337C68.3897 43.5908 68.75 43.2002 69.2232 43.2002C69.6475 43.2002 70.0567 43.5908 70.0567 44.0337L70.0567 54.4575C70.0567 55.7759 71.1343 56.8838 72.3853 56.8838C73.6885 56.8838 74.7813 55.7759 74.7813 54.4575L74.7813 42.7944C74.7813 36.8408 70.3867 32.8706 64.2056 32.8706ZM40.0469 28.3789L40.0469 55.4253C40.0469 56.624 40.3853 57.3916 41.3399 58.0532C44.1719 59.9541 45.6099 62.8384 45.6099 66.1133C45.6099 71.688 41.1245 76.1582 35.5684 76.1582C29.96 76.1582 25.5234 71.688 25.5234 66.1133C25.5234 62.8384 26.9463 59.9541 29.7598 58.0532C30.6992 57.3916 31.0679 56.624 31.0679 55.4253L31.0679 28.3789C31.0679 25.2539 32.8223 23.2031 35.5684 23.2031C38.2774 23.2031 40.0469 25.2539 40.0469 28.3789ZM33.3579 51.1401L33.3579 57.877C33.3579 59.1465 33.1743 59.394 32.2466 59.8975C30.0479 61.0474 28.4619 63.3286 28.4619 66.0796C28.4619 70.0444 31.6035 73.2012 35.5347 73.2012C39.4995 73.2012 42.6714 70.0107 42.6714 66.0796C42.6714 63.3286 41.0855 61.0962 38.8042 59.8975C37.9439 59.394 37.7905 59.1465 37.7905 57.877L37.7905 51.1401C37.7905 49.9482 36.8091 48.9482 35.5986 48.9482C34.3242 48.9482 33.3579 49.9482 33.3579 51.1401ZM33.3579 45.4565C33.3579 46.731 34.3242 47.7646 35.5986 47.7646C36.8091 47.7646 37.7905 46.731 37.7905 45.4565C37.7905 44.2983 36.8091 43.2646 35.5986 43.2646C34.3242 43.2646 33.3579 44.2983 33.3579 45.4565ZM33.3579 39.8403C33.3579 41.0811 34.3242 42.0811 35.5986 42.0811C36.8091 42.0811 37.7905 41.0811 37.7905 39.8403C37.7905 38.6299 36.8091 37.6484 35.5986 37.6484C34.3242 37.6484 33.3579 38.6299 33.3579 39.8403ZM33.3579 34.1904C33.3579 35.3975 34.3242 36.4312 35.5986 36.4312C36.8091 36.4312 37.7905 35.3975 37.7905 34.1904C37.7905 32.98 36.8091 31.9649 35.5986 31.9649C34.3242 31.9649 33.3579 32.98 33.3579 34.1904ZM33.3579 28.4732C33.3579 29.7476 34.3242 30.7476 35.5986 30.7476C36.8091 30.7476 37.7905 29.7476 37.7905 28.4732C37.7905 27.2964 36.8091 26.2813 35.5986 26.2813C34.3242 26.2813 33.3579 27.2964 33.3579 28.4732ZM56.4536 23.7988C56.4536 27.0518 59.0903 29.6885 62.313 29.6885C65.5996 29.6885 68.2026 27.0518 68.2026 23.7988C68.2026 20.5425 65.5996 17.9395 62.313 17.9395C59.0903 17.9395 56.4536 20.5425 56.4536 23.7988Z" fill="#000000" fill-opacity="0.85"/>
 </g>
</svg>
