<?xml version="1.0" encoding="UTF-8"?>
<!--Generator: Apple Native CoreSVG 232.5-->
<!DOCTYPE svg
PUBLIC "-//W3C//DTD SVG 1.1//EN"
       "http://www.w3.org/Graphics/SVG/1.1/DTD/svg11.dtd">
<svg version="1.1" xmlns="http://www.w3.org/2000/svg" xmlns:xlink="http://www.w3.org/1999/xlink" width="97.9595" height="97.9932">
 <g>
  <rect height="97.9932" opacity="0" width="97.9595" x="0" y="0"/>
  <path d="M48.9722 97.9443C75.8247 97.9443 97.9595 75.7759 97.9595 48.9722C97.9595 22.1348 75.791 0 48.9385 0C22.1348 0 0 22.1348 0 48.9722C0 75.7759 22.1685 97.9443 48.9722 97.9443ZM48.9722 91.6113C25.3501 91.6113 6.36671 72.5942 6.36671 48.9722C6.36671 25.3501 25.3164 6.31789 48.9385 6.31789C72.5605 6.31789 91.6265 25.3501 91.6265 48.9722C91.6265 72.5942 72.5942 91.6113 48.9722 91.6113Z" fill="#000000" fill-opacity="0.85"/>
  <path d="M35.8042 79.0107C43.2178 79.0107 49.1514 73.0771 49.1514 65.7427C49.1514 61.833 47.4912 58.3477 44.3057 55.625C43.772 55.1553 43.6895 54.8774 43.6895 54.0542L43.7232 28.6182C43.7232 23.5835 40.4902 20.0879 35.8042 20.0879C31.0845 20.0879 27.9004 23.5835 27.9004 28.6182L27.9004 54.0542C27.9004 54.9077 27.7876 55.1553 27.2202 55.625C24.0347 58.3477 22.4385 61.833 22.4385 65.7427C22.4385 73.0771 28.3721 79.0107 35.8042 79.0107ZM35.8042 75.5854C30.2817 75.5854 25.9463 71.2163 25.9463 65.7427C25.9463 62.5352 27.3355 59.6694 30.0816 57.8022C31.021 57.1743 31.3897 56.4404 31.3897 55.2568L31.3897 28.7192C31.3897 25.6279 33.1104 23.6294 35.8042 23.6294C38.4458 23.6294 40.1665 25.6279 40.1665 28.7192L40.1665 55.2568C40.1665 56.4404 40.5049 57.1743 41.4746 57.8022C44.2393 59.6694 45.6436 62.5352 45.6436 65.7427C45.6436 71.2163 41.2441 75.5854 35.8042 75.5854ZM35.8193 31.0205C37.0112 31.0205 37.9775 30.0542 37.9775 28.8135C37.9775 27.6216 37.0112 26.6553 35.8193 26.6553C34.5786 26.6553 33.6123 27.6216 33.6123 28.8135C33.6123 30.0542 34.5786 31.0205 35.8193 31.0205ZM35.8193 36.6367C37.0112 36.6367 37.9775 35.6367 37.9775 34.396C37.9775 33.2378 37.0112 32.2378 35.8193 32.2378C34.5786 32.2378 33.6123 33.2378 33.6123 34.396C33.6123 35.6367 34.5786 36.6367 35.8193 36.6367ZM35.8193 42.1855C37.0112 42.1855 37.9775 41.2192 37.9775 39.9785C37.9775 38.8018 37.0112 37.8203 35.8193 37.8203C34.5786 37.8203 33.6123 38.8018 33.6123 39.9785C33.6123 41.2192 34.5786 42.1855 35.8193 42.1855ZM35.8193 47.7832C37.0112 47.7832 37.9775 46.7681 37.9775 45.5273C37.9775 44.3843 37.0112 43.3843 35.8193 43.3843C34.5786 43.3843 33.6123 44.3843 33.6123 45.5273C33.6123 46.7681 34.5786 47.7832 35.8193 47.7832ZM35.7705 72.6958C39.668 72.6958 42.7573 69.5727 42.7573 65.709C42.7573 63.0103 41.2202 60.793 38.9727 59.5791C38.1309 59.1582 37.9775 58.8618 37.9775 57.6748L37.9775 51.125C37.9775 49.9331 37.0112 48.9331 35.8193 48.9331C34.5786 48.9331 33.6123 49.9331 33.6123 51.125L33.6123 57.6748C33.6123 58.8618 33.4287 59.1582 32.5347 59.5791C30.3696 60.7627 28.8174 63.0103 28.8174 65.709C28.8174 69.6064 31.9068 72.6958 35.7705 72.6958ZM61.9912 30.0137C65.2105 30.0137 67.7798 27.4107 67.7798 24.2066C67.7798 21.0361 65.2105 18.4668 61.9912 18.4668C58.8359 18.4668 56.2666 21.0361 56.2666 24.2066C56.2666 27.4107 58.8359 30.0137 61.9912 30.0137ZM65.3941 77.8018C66.7949 77.8018 67.9668 76.7124 67.9668 75.229L67.9668 44.0859C67.9668 43.6279 68.3086 43.2188 68.7666 43.2188C69.1572 43.2188 69.5816 43.6279 69.5816 44.0859L69.5816 54.3076C69.5816 55.5923 70.6255 56.6328 71.8765 56.6328C73.1309 56.6328 74.2051 55.5923 74.2051 54.3076L74.2051 42.8467C74.2051 37.0127 69.8965 33.1436 63.8501 33.1436L60.1812 33.1436C54.1196 33.1436 49.811 37.0127 49.811 42.8467L49.811 54.3076C49.811 55.5923 50.8853 56.6328 52.1211 56.6328C53.3906 56.6328 54.416 55.5923 54.416 54.3076L54.416 44.0859C54.416 43.6279 54.8252 43.2188 55.2495 43.2188C55.7227 43.2188 56.0493 43.6279 56.0493 44.0859L56.0493 75.229C56.0493 76.7124 57.1875 77.8018 58.5884 77.8018C60.0532 77.8018 61.1426 76.7124 61.1426 75.229L61.1426 56.2422C61.1426 55.7993 61.5181 55.4087 61.9912 55.4087C62.4644 55.4087 62.8887 55.7993 62.8887 56.2422L62.8887 75.229C62.8887 76.7124 63.978 77.8018 65.3941 77.8018Z" fill="#000000" fill-opacity="0.85"/>
 </g>
</svg>
