<?xml version="1.0" encoding="UTF-8"?>
<!--Generator: Apple Native CoreSVG 232.5-->
<!DOCTYPE svg
PUBLIC "-//W3C//DTD SVG 1.1//EN"
       "http://www.w3.org/Graphics/SVG/1.1/DTD/svg11.dtd">
<svg version="1.1" xmlns="http://www.w3.org/2000/svg" xmlns:xlink="http://www.w3.org/1999/xlink" width="88.4092" height="88.5371">
 <g>
  <rect height="88.5371" opacity="0" width="88.4092" x="0" y="0"/>
  <path d="M14.3936 88.5371L74.0005 88.5371C83.5733 88.5371 88.4092 83.6558 88.4092 74.2632L88.4092 14.4019C88.4092 5.00928 83.5733 0.127929 74.0005 0.127929L14.3936 0.127929C4.86963 0.127929 0 4.93018 0 14.4019L0 74.2632C0 83.7349 4.86963 88.5371 14.3936 88.5371ZM14.5064 82.4922C9.00294 82.4922 6.04494 79.6016 6.04494 73.9634L6.04494 14.7017C6.04494 9.06349 9.00294 6.17287 14.5064 6.17287L73.9028 6.17287C79.2969 6.17287 82.3643 9.06349 82.3643 14.7017L82.3643 73.9634C82.3643 79.6016 79.2969 82.4922 73.9028 82.4922Z" fill="#000000" fill-opacity="0.85"/>
  <path d="M15.293 44.2896C15.293 60.187 28.3164 73.2593 44.229 73.2593C60.1416 73.2593 73.2139 60.187 73.2139 44.2896C73.2139 28.4107 60.1416 15.3233 44.2627 15.3233C42.4053 15.3233 41.3291 16.418 41.3291 18.2637L41.3291 28.6074C41.3291 30.1182 42.4273 31.2163 43.9043 31.2163C45.3628 31.2163 46.4273 30.0542 46.4273 28.6074L46.4273 21.0279C58.4053 22.0957 67.6929 32.042 67.6929 44.2896C67.6929 57.2935 57.2144 67.7383 44.229 67.7383C31.2437 67.7383 20.7803 57.2935 20.814 44.2896C20.814 38.4663 22.9199 32.9175 26.8643 28.5908C27.8579 27.3277 27.9033 25.8018 26.8911 24.6885C25.7256 23.4893 23.9605 23.5938 22.7529 24.9883C17.9463 30.312 15.293 37.2554 15.293 44.2896ZM48.4707 48.1392C50.5689 45.898 50.1294 42.7979 47.6035 41.0972L33.7876 31.4873C32.1489 30.396 30.709 31.8174 31.8154 33.4561L41.4439 47.2232C43.2271 49.813 46.2783 50.2525 48.4707 48.1392Z" fill="#000000" fill-opacity="0.85"/>
 </g>
</svg>
