<?xml version="1.0" encoding="UTF-8"?>
<!--Generator: Apple Native CoreSVG 232.5-->
<!DOCTYPE svg
PUBLIC "-//W3C//DTD SVG 1.1//EN"
       "http://www.w3.org/Graphics/SVG/1.1/DTD/svg11.dtd">
<svg version="1.1" xmlns="http://www.w3.org/2000/svg" xmlns:xlink="http://www.w3.org/1999/xlink" width="164.817" height="88.5371">
 <g>
  <rect height="88.5371" opacity="0" width="164.817" x="0" y="0"/>
  <path d="M44.9614 88.5371L119.889 88.5371C129.462 88.5371 134.298 83.6558 134.298 74.2632L134.298 14.4019C134.298 5.00928 129.462 0.127929 119.889 0.127929L44.9614 0.127929C35.4224 0.127929 30.5527 4.93018 30.5527 14.4019L30.5527 74.2632C30.5527 83.7349 35.4224 88.5371 44.9614 88.5371ZM40.0249 60.3267L40.0249 28.3384C40.0249 27.0449 41.0859 25.9839 42.3794 25.9839C43.6729 25.9839 44.7676 27.0449 44.7676 28.3384L44.7676 60.3267C44.7676 61.6201 43.6729 62.6812 42.3794 62.6812C41.0859 62.6812 40.0249 61.6201 40.0249 60.3267ZM54.1758 82.4922L54.1758 6.17287L110.69 6.17287L110.69 82.4922ZM120.147 60.3267L120.147 28.3384C120.147 27.0449 121.208 25.9839 122.501 25.9839C123.795 25.9839 124.89 27.0449 124.89 28.3384L124.89 60.3267C124.89 61.6201 123.795 62.6812 122.501 62.6812C121.208 62.6812 120.147 61.6201 120.147 60.3267Z" fill="#000000" fill-opacity="0.85"/>
  <path d="M0 55.1934C0 57.4971 1.92139 58.3779 3.82276 57.2192L21.2476 46.627C23.127 45.4565 23.0781 43.1714 21.2476 42.0498L3.77393 31.3599C1.87256 30.186 0 31.1343 0 33.4043ZM164.817 55.1934L164.817 33.4043C164.817 31.1343 162.944 30.186 161.058 31.3599L143.618 42.0498C141.739 43.1714 141.69 45.4565 143.618 46.627L161.028 57.2192C162.929 58.3779 164.817 57.4971 164.817 55.1934Z" fill="#000000" fill-opacity="0.85"/>
 </g>
</svg>
