<?xml version="1.0" encoding="UTF-8"?>
<!--Generator: Apple Native CoreSVG 232.5-->
<!DOCTYPE svg
PUBLIC "-//W3C//DTD SVG 1.1//EN"
       "http://www.w3.org/Graphics/SVG/1.1/DTD/svg11.dtd">
<svg version="1.1" xmlns="http://www.w3.org/2000/svg" xmlns:xlink="http://www.w3.org/1999/xlink" width="97.9595" height="97.9932">
 <g>
  <rect height="97.9932" opacity="0" width="97.9595" x="0" y="0"/>
  <path d="M48.9722 97.9443C75.8247 97.9443 97.9595 75.7759 97.9595 48.9722C97.9595 22.1348 75.791 0 48.9385 0C22.1348 0 0 22.1348 0 48.9722C0 75.7759 22.1685 97.9443 48.9722 97.9443ZM48.9722 91.6113C25.3501 91.6113 6.36671 72.5942 6.36671 48.9722C6.36671 25.3501 25.3164 6.31789 48.9385 6.31789C72.5605 6.31789 91.6265 25.3501 91.6265 48.9722C91.6265 72.5942 72.5942 91.6113 48.9722 91.6113Z" fill="#000000" fill-opacity="0.85"/>
  <path d="M48.9722 76.4946C64.0669 76.4946 76.4946 64.0518 76.4946 48.9722C76.4946 33.8774 64.0669 21.4497 49.0059 21.4497C47.1519 21.4497 46.3232 22.5562 46.3232 24.0752L46.3232 32.0776C46.3232 33.4502 47.2681 34.5449 48.6777 34.5449C50.0689 34.5449 51.0322 33.4502 51.0322 32.0776L51.0322 26.6489C62.627 27.6646 71.3965 37.1045 71.3965 48.9722C71.3965 61.5103 61.5439 71.415 48.9722 71.415C36.4492 71.415 26.5293 61.5103 26.5293 48.9722C26.5293 43.1167 28.7212 37.9902 32.2886 33.958C33.1963 32.9273 33.2822 31.4199 32.2852 30.438C31.2393 29.3433 29.5938 29.4443 28.563 30.6587C24.1401 35.4893 21.4497 41.9883 21.4497 48.9722C21.4497 64.0518 33.8926 76.4946 48.9722 76.4946ZM53.2476 52.7173C55.4248 50.4087 54.9854 47.3608 52.3804 45.5137L39.3335 36.4692C37.626 35.3242 35.8208 37.0469 36.9995 38.7695L46.0776 51.8164C47.8608 54.44 50.9727 54.9248 53.2476 52.7173Z" fill="#000000" fill-opacity="0.85"/>
 </g>
</svg>
