<?xml version="1.0" encoding="UTF-8"?>
<!--Generator: Apple Native CoreSVG 232.5-->
<!DOCTYPE svg
PUBLIC "-//W3C//DTD SVG 1.1//EN"
       "http://www.w3.org/Graphics/SVG/1.1/DTD/svg11.dtd">
<svg version="1.1" xmlns="http://www.w3.org/2000/svg" xmlns:xlink="http://www.w3.org/1999/xlink" width="97.9595" height="97.9932">
 <g>
  <rect height="97.9932" opacity="0" width="97.9595" x="0" y="0"/>
  <path d="M48.9722 97.9443C75.8247 97.9443 97.9595 75.7759 97.9595 48.9722C97.9595 22.1348 75.791 0 48.9385 0C22.1348 0 0 22.1348 0 48.9722C0 75.7759 22.1685 97.9443 48.9722 97.9443ZM48.9722 91.6113C25.3501 91.6113 6.36671 72.5942 6.36671 48.9722C6.36671 25.3501 25.3164 6.31789 48.9385 6.31789C72.5605 6.31789 91.6265 25.3501 91.6265 48.9722C91.6265 72.5942 72.5942 91.6113 48.9722 91.6113Z" fill="#000000" fill-opacity="0.85"/>
  <path d="M31.4824 22.5239L66.4771 22.5239C67.4522 22.5239 68.3076 21.729 68.3076 20.7119C68.3076 19.7402 67.4824 18.8999 66.4771 18.8999L31.4824 18.8999C30.4771 18.8999 29.7007 19.7402 29.7007 20.7119C29.7007 21.729 30.4922 22.5239 31.4824 22.5239ZM49.0024 38.21C54.9292 38.21 60.1353 38.9912 63.8394 40.5503L64.9858 25.336L32.9585 25.336L34.1201 40.5503C37.8731 39.0552 43.0757 38.21 49.0024 38.21ZM49.0024 54.5869C59.8149 54.5869 67.3579 51.7651 67.3579 47.7783C67.3579 43.8252 59.6265 41.022 49.0024 41.022C38.3818 41.022 30.5864 43.8252 30.5864 47.7783C30.5864 51.7651 38.3818 54.5869 49.0024 54.5869ZM48.2749 66.2725L49.6846 66.2725C58.3623 66.2725 65.0381 61.4805 66.8765 53.3379C63.2515 55.9004 56.8384 57.3315 49.0024 57.3315C41.2456 57.3315 34.7534 55.9004 31.083 53.2739C32.8726 61.4805 39.5669 66.2725 48.2749 66.2725ZM48.9722 82.3345C53.5649 82.3345 58.9009 81.1509 61.1758 79.0493C61.9165 78.3354 61.8862 77.502 61.5967 76.4194L58.8911 67.207C56.1265 68.4463 52.919 69.0845 49.6846 69.0845L48.2075 69.0845C45.0254 69.0845 41.8179 68.4463 39.0684 67.2559L36.3477 76.4194C36.0581 77.502 36.043 78.3354 36.8174 79.0493C39.0435 81.1509 44.3794 82.3345 48.9722 82.3345Z" fill="#000000" fill-opacity="0.85"/>
 </g>
</svg>
