<?xml version="1.0" encoding="UTF-8"?>
<!--Generator: Apple Native CoreSVG 232.5-->
<!DOCTYPE svg
PUBLIC "-//W3C//DTD SVG 1.1//EN"
       "http://www.w3.org/Graphics/SVG/1.1/DTD/svg11.dtd">
<svg version="1.1" xmlns="http://www.w3.org/2000/svg" xmlns:xlink="http://www.w3.org/1999/xlink" width="90.814" height="105.405">
 <g>
  <rect height="105.405" opacity="0" width="90.814" x="0" y="0"/>
  <path d="M44.4971 42.1042C72.9605 42.1042 90.814 35.005 90.814 25.0504C90.814 16.1681 77.5962 10.5846 58.3828 10.5846C44.355 10.5846 32.9292 13.3712 24.1655 17.4088C22.2759 18.3048 21.7842 20.1188 22.4966 21.446C23.2427 22.9079 25.124 23.2599 26.7593 22.5509C34.5567 19.234 44.6016 16.0602 58.0947 16.0602C74.792 16.0602 84.9492 20.0724 84.9492 25.0168C84.9492 30.7692 68.834 36.4601 44.2764 36.4601C19.4468 36.4601 5.83107 31.3688 5.83107 21.7619C5.83107 15.8273 11.5532 9.72086 25.4863 5.34635C27.2735 4.77701 28.1021 3.32681 27.585 1.76382C27.0527 0.170555 25.5942-0.368509 23.6201 0.249656C8.01611 4.89028 0 13.1627 0 21.8815C0 35.007 15.4165 42.1042 44.4971 42.1042ZM46.0225 57.7785C61.2149 57.7785 75.1714 55.3605 85.0112 51.1867C86.5186 50.5417 87.2495 49.0426 86.5337 47.6818C85.8516 46.3546 84.4268 46.1374 82.6836 46.8161C73.3325 50.5553 60.1069 52.778 46.0225 52.778C35.3008 52.778 22.9107 51.3688 13.9292 48.7555C12.1709 48.257 10.7427 48.7589 10.3115 50.2209C9.86524 51.6642 10.6265 52.9948 12.3882 53.527C22.1626 56.3439 35.021 57.7785 46.0225 57.7785ZM49.4941 73.3029C62.499 73.2507 74.4502 71.1984 85.0278 67.6051C86.9951 66.9382 87.3858 65.3566 86.8721 64.1305C86.3399 62.7697 84.9453 62.3385 83 63.0021C72.6294 66.4723 61.4146 68.299 49.4941 68.299C44.396 68.299 39.1782 67.9875 35.0532 67.4049C33.1904 67.1725 32.0132 67.8883 31.7808 69.2526C31.5147 70.6471 32.2456 71.9591 34.2398 72.2926C38.0903 72.9308 43.5303 73.3366 49.4941 73.3029ZM44.96 87.9904C53.7105 89.0461 64.54 88.8473 73.523 86.236C75.2207 85.756 75.8994 84.2419 75.4531 82.881C74.9883 81.4528 73.6275 80.9508 71.7832 81.4308C63.7822 83.5573 54.2578 84.2863 45.792 83.1364C43.978 82.9377 42.6997 83.7394 42.4858 85.1525C42.2871 86.5807 43.0332 87.758 44.96 87.9904ZM41.6397 103.151C44.4736 103.606 48.5107 103.511 51.5635 103.106C53.3252 102.873 54.1235 101.745 53.9922 100.317C53.812 99.0382 52.7847 98.1237 50.8462 98.3713C48.1455 98.7736 44.9111 98.7887 42.1314 98.4504C40.4033 98.2179 39.2783 99.0871 39.0796 100.332C38.9146 101.659 39.7129 102.922 41.6397 103.151Z" fill="#000000" fill-opacity="0.85"/>
 </g>
</svg>
