<?xml version="1.0" encoding="UTF-8"?>
<!--Generator: Apple Native CoreSVG 232.5-->
<!DOCTYPE svg
PUBLIC "-//W3C//DTD SVG 1.1//EN"
       "http://www.w3.org/Graphics/SVG/1.1/DTD/svg11.dtd">
<svg version="1.1" xmlns="http://www.w3.org/2000/svg" xmlns:xlink="http://www.w3.org/1999/xlink" width="97.9595" height="97.9932">
 <g>
  <rect height="97.9932" opacity="0" width="97.9595" x="0" y="0"/>
  <path d="M97.9595 49.021C97.9595 75.8584 75.8247 97.9932 48.9722 97.9932C22.1685 97.9932 0 75.8584 0 49.021C0 22.2173 22.1348 0.0488281 48.9385 0.0488281C75.791 0.0488281 97.9595 22.2173 97.9595 49.021ZM52.0078 75.1826C50.4639 75.3931 48.7617 75.4722 47.1875 75.2315C45.8789 75.0327 45.0234 75.794 44.877 76.7505C44.7153 77.7559 45.2778 78.7461 46.7446 78.9902C48.4302 79.2007 50.7651 79.1519 52.5752 78.9263C53.8804 78.7461 54.4917 77.8233 54.4277 76.7656C54.2476 75.7905 53.4409 75.0176 52.0078 75.1826ZM63.8677 65.5601C59.3521 66.8076 54.0049 67.1797 49.2568 66.4995C47.9517 66.3682 46.9614 67.0283 46.7964 68.1348C46.6836 69.1773 47.2915 70.1152 48.6792 70.3628C53.6934 70.9453 60.0088 70.8291 65.2183 69.3071C66.4746 68.8945 66.9849 67.7544 66.6245 66.7339C66.2607 65.6426 65.2217 65.1997 63.8677 65.5601ZM70.3296 55.0132C64.4414 57 58.0537 58.0825 51.2905 58.0825C48.4048 58.0825 45.4668 57.8838 43.1484 57.5454C41.8096 57.3989 40.9204 58.0068 40.6729 59.0459C40.4741 60.0547 41.0669 61.0938 42.5034 61.3599C44.7275 61.7505 47.9063 61.9609 51.2905 61.9273C58.8418 61.8936 65.7197 60.7319 71.7998 58.6929C73.1607 58.228 73.5176 56.938 73.169 56C72.8052 54.9761 71.6836 54.5703 70.3296 55.0132ZM70.04 45.8486C64.772 47.9346 57.2998 49.2075 49.314 49.2075C43.2124 49.2075 36.2422 48.3994 31.1538 46.9312C29.9009 46.5371 28.7944 46.9951 28.4155 48.105C28.1343 49.2232 28.7456 50.2993 29.9868 50.6445C35.5567 52.271 43.0591 53.1011 49.314 53.1011C58.0811 53.1011 66.146 51.7153 71.8066 49.2656C72.9619 48.8042 73.457 47.6489 72.9619 46.5762C72.3994 45.5523 71.293 45.3081 70.04 45.8486ZM36.3477 19.2422C27.3091 21.9531 22.5342 26.8579 22.5342 32.1045C22.5342 40.02 31.7593 44.1436 48.4722 44.1436C64.773 44.1436 75.4067 40.0889 75.4067 33.9331C75.4067 28.4473 67.4898 25.1689 56.4058 25.1689C48.3169 25.1689 41.668 26.7466 36.6035 29.1055C35.2192 29.7656 34.9229 31.1533 35.4668 32.1099C35.9805 33.186 37.3228 33.4976 38.584 32.9385C42.9751 31.041 48.5732 29.2681 56.2524 29.2681C65.6372 29.2681 71.0566 31.376 71.0566 33.8994C71.0566 36.8101 62.2163 39.9434 48.3525 39.9434C34.2232 39.9434 26.918 37.1553 26.918 32.0371C26.918 28.8906 29.9751 25.606 37.7539 23.21C38.9985 22.794 39.6587 21.6538 39.3252 20.48C38.9277 19.2759 37.8247 18.8599 36.3477 19.2422Z" fill="#000000" fill-opacity="0.85"/>
 </g>
</svg>
