<?xml version="1.0" encoding="UTF-8"?>
<!--Generator: Apple Native CoreSVG 232.5-->
<!DOCTYPE svg
PUBLIC "-//W3C//DTD SVG 1.1//EN"
       "http://www.w3.org/Graphics/SVG/1.1/DTD/svg11.dtd">
<svg version="1.1" xmlns="http://www.w3.org/2000/svg" xmlns:xlink="http://www.w3.org/1999/xlink" width="97.9595" height="97.9932">
 <g>
  <rect height="97.9932" opacity="0" width="97.9595" x="0" y="0"/>
  <path d="M97.9595 48.9722C97.9595 75.7759 75.8247 97.9443 48.9722 97.9443C22.1685 97.9443 0 75.7759 0 48.9722C0 22.1348 22.1348 0 48.9385 0C75.791 0 97.9595 22.1348 97.9595 48.9722ZM51.3149 63.2925C53.1553 65.9258 56.8345 67.5557 60.438 67.5557C63.4048 67.5557 65.5215 66.2339 65.5215 64.0718C65.5215 62.2803 63.8545 60.918 61.5718 60.5898C60.5933 60.5107 59.832 60.4805 58.8164 60.4165C56.686 60.605 52.8325 62.3711 51.3149 63.2925ZM17.4966 60.7046C15.229 61.3291 13.5283 62.0918 13.5283 63.9321C13.5283 66.1094 15.6787 67.3823 18.6455 67.3823C22.2002 67.3823 25.8945 65.7373 27.7837 63.0889C24.8779 61.5415 22.7861 60.4956 19.7808 60.3862C19.0581 60.5547 18.2529 60.5884 17.4966 60.7046ZM39.8501 48.0225C37.6548 48.0225 35.6177 47.7935 33.69 47.3086C33.148 51.4673 31.1895 55.9819 27.7295 59.8018C30.7769 61.1587 34.2134 63.6797 39.416 63.6797C44.9937 63.6797 48.8643 61.354 52.1978 59.8589C48.5796 56.2427 46.5454 51.8628 46.1162 47.169C44.0942 47.7481 41.9932 48.0225 39.8501 48.0225ZM19.1475 46.9272C17.1353 50.647 14.6167 53.125 12.9414 54.3677C12.48 54.8174 12.1499 55.4253 12.1499 56.1377C12.1499 57.1196 13.0713 57.731 15.0132 57.731C16.0469 57.731 17.2656 57.731 18.2993 57.731C20.9863 57.731 22.9224 58.1602 24.7827 58.7578C28.1484 55.2627 30.4522 50.5781 31.0918 46.4263C28.0376 45.3066 24.7085 43.2456 22.5147 41.1323C21.3984 42.895 20.2149 44.895 19.1475 46.9272ZM48.7564 46.2866C49.2075 50.7261 51.1357 54.8569 54.9575 58.7173C57.1074 58.0322 59.2051 57.5728 61.8501 57.5728C63.6655 57.5728 65.4961 57.3706 66.3364 56.8115C63.7705 53.6528 59.4854 44.7773 57.1079 40.9219C54.8013 43.1294 51.4199 45.2344 48.7564 46.2866ZM67.5601 42.5352C66.4087 46.2676 65.3359 47.6953 64.2046 48.729C65.5464 50.8081 67.2656 53.728 68.7964 55.7373C72.2324 53.958 73.9697 52.5181 78.0781 52.5181C83.5474 52.5181 87.3408 50.294 87.3408 46.898C87.3408 39.5952 83.3638 34.2798 77.3662 34.2798C72.0288 34.2798 68.8413 37.6924 67.5601 42.5352ZM24.1851 38.7295C28.396 42.919 33.5786 45.1094 39.7827 45.0757C46.2378 45.042 51.3682 42.8516 55.6177 38.6167C51.5581 33.5015 47.0273 30.542 40.0654 30.5083C33.1338 30.5083 28.5239 32.6265 24.1851 38.7295ZM79.9287 42.9107C79.9287 43.9697 78.9976 44.7578 78.1152 44.7578C77.0864 44.7578 76.2529 43.9697 76.2529 42.9107C76.2529 41.9155 77.0864 41.0483 78.1152 41.0483C78.9976 41.0483 79.9287 41.9155 79.9287 42.9107Z" fill="#000000" fill-opacity="0.85"/>
 </g>
</svg>
