<?xml version="1.0" encoding="UTF-8"?>
<!--Generator: Apple Native CoreSVG 232.5-->
<!DOCTYPE svg
PUBLIC "-//W3C//DTD SVG 1.1//EN"
       "http://www.w3.org/Graphics/SVG/1.1/DTD/svg11.dtd">
<svg version="1.1" xmlns="http://www.w3.org/2000/svg" xmlns:xlink="http://www.w3.org/1999/xlink" width="97.9595" height="97.9932">
 <g>
  <rect height="97.9932" opacity="0" width="97.9595" x="0" y="0"/>
  <path d="M48.9722 97.9443C75.8247 97.9443 97.9595 75.7759 97.9595 48.9722C97.9595 22.1348 75.791 0 48.9385 0C22.1348 0 0 22.1348 0 48.9722C0 75.7759 22.1685 97.9443 48.9722 97.9443ZM48.9722 91.6113C25.3501 91.6113 6.36671 72.5942 6.36671 48.9722C6.36671 25.3501 25.3164 6.31789 48.9385 6.31789C72.5605 6.31789 91.6265 25.3501 91.6265 48.9722C91.6265 72.5942 72.5942 91.6113 48.9722 91.6113Z" fill="#000000" fill-opacity="0.85"/>
  <path d="M39.9849 45.1768C46.3389 45.1431 51.3345 42.9863 55.5166 38.8374C51.5581 33.8232 47.0947 30.9312 40.2676 30.8975C33.4556 30.8975 28.9468 32.9482 24.6602 38.9502C28.8189 43.0386 33.9004 45.2105 39.9849 45.1768ZM25.273 58.5557C28.5713 55.1431 30.8076 50.5444 31.4473 46.4937C28.4453 45.374 25.1836 43.3804 23.0723 41.3008C21.9409 43.0298 20.791 44.981 19.7236 46.9946C17.7788 50.647 15.294 53.0728 13.6524 54.3003C13.1909 54.7163 12.8794 55.3394 12.8794 56.0181C12.8794 56.9663 13.7822 57.5776 15.6568 57.5776C16.6719 57.5776 17.8755 57.5776 18.8906 57.5776C21.5288 57.5776 23.4312 58.0068 25.273 58.5557ZM39.603 63.3916C45.0947 63.3916 48.898 61.1182 52.1641 59.6567C48.6133 56.0742 46.6465 51.8291 46.2173 47.2026C44.2139 47.7817 42.1465 48.0562 40.0371 48.0562C37.8755 48.0562 35.8721 47.8272 33.978 47.3423C33.4512 51.4336 31.5449 55.8135 28.1524 59.5996C31.1323 60.9229 34.5015 63.3916 39.603 63.3916ZM54.8564 58.5303C56.9727 57.8789 59.0366 57.4043 61.6631 57.4043C63.4111 57.4043 65.208 57.2173 66.0147 56.6431C63.5161 53.5518 59.2983 44.8633 56.9732 41.0903C54.7002 43.2642 51.4199 45.3018 48.79 46.354C49.2412 50.7261 51.1357 54.7373 54.8564 58.5303ZM77.5542 52.4507C82.9038 52.4507 86.6113 50.2603 86.6113 46.9316C86.6113 39.7822 82.7202 34.5679 76.8423 34.5679C71.606 34.5679 68.4858 37.9619 67.2383 42.6548C66.0869 46.3198 65.0479 47.729 63.9502 48.7627C65.2583 50.8081 66.9287 53.6606 68.4409 55.6025C71.8247 53.8569 73.5132 52.4507 77.5542 52.4507ZM77.5728 44.8589C76.5776 44.8589 75.7778 44.0557 75.7778 43.0454C75.7778 42.084 76.5776 41.2168 77.5728 41.2168C78.4551 41.2168 79.3525 42.084 79.3525 43.0454C79.3525 44.0557 78.4551 44.8589 77.5728 44.8589ZM19.2705 66.9932C22.709 66.9932 26.3511 65.3818 28.2066 62.8008C25.3194 61.272 23.3101 60.2749 20.357 60.1504C19.668 60.334 18.8628 60.3677 18.1401 60.4839C15.9063 61.0747 14.2393 61.8374 14.2393 63.644C14.2393 65.7539 16.356 66.9932 19.2705 66.9932ZM60.2358 67.1665C63.1504 67.1665 65.2334 65.8784 65.2334 63.7686C65.2334 62.0259 63.6001 60.6973 61.3359 60.3691C60.3911 60.29 59.6299 60.2446 58.648 60.1958C56.585 60.3843 52.7988 62.1016 51.3149 63.0044C53.1216 65.5703 56.7485 67.1665 60.2358 67.1665Z" fill="#000000" fill-opacity="0.85"/>
 </g>
</svg>
