<?xml version="1.0" encoding="UTF-8"?>
<!--Generator: Apple Native CoreSVG 232.5-->
<!DOCTYPE svg
PUBLIC "-//W3C//DTD SVG 1.1//EN"
       "http://www.w3.org/Graphics/SVG/1.1/DTD/svg11.dtd">
<svg version="1.1" xmlns="http://www.w3.org/2000/svg" xmlns:xlink="http://www.w3.org/1999/xlink" width="111.616" height="109.791">
 <g>
  <rect height="109.791" opacity="0" width="111.616" x="0" y="0"/>
  <path d="M21.626 29.8553C16.8182 37.0127 13.4454 45.5411 13.4454 55.2446C13.4454 69.2661 20.4025 78.934 30.3131 85.0019L76.7296 85.0019L91.0465 99.33L91.0465 99.3857C91.0465 100.918 89.6974 102.298 88.0822 102.298C86.5494 102.298 85.17 100.918 85.17 99.3857L85.17 96.4848L77.7008 96.4848L77.7008 99.3857C77.7008 100.918 76.3702 102.298 74.8038 102.298C73.2071 102.298 71.858 100.918 71.858 99.3857L71.858 96.4848L64.9933 96.4848L64.9933 99.3857C64.9933 100.918 63.629 102.298 62.0626 102.298C60.5299 102.298 59.1168 100.918 59.1168 99.3857L59.1168 96.4848L52.4054 96.4848L52.4054 99.3857C52.4054 100.918 51.0748 102.298 49.4933 102.298C47.9269 102.298 46.5289 100.918 46.5289 99.3857L46.5289 96.4848L39.6642 96.4848L39.6642 99.3857C39.6642 100.918 38.3487 102.298 36.7184 102.298C35.1857 102.298 33.8214 100.918 33.8214 99.3857L33.8214 96.4848L26.3522 96.4848L26.3522 99.3857C26.3522 100.918 25.0065 102.298 23.44 102.298C21.8585 102.298 20.4942 100.918 20.4942 99.3857L20.4942 92.4956C20.4942 89.497 19.233 86.331 16.8824 82.9311C11.9176 75.979 7.41563 67.0922 7.41563 55.2446C7.41563 44.0104 11.385 33.9064 17.3594 25.5854ZM90.4459 10.2924L90.4459 17.7138C90.4459 20.0239 90.6832 20.7851 93.1754 24.0586C99.7335 32.6806 104.235 43.3266 104.235 55.2446C104.235 66.3401 100.178 74.8108 95.6916 81.5082L90.9072 76.7191C95.4394 71.1598 98.2047 64.0633 98.2047 55.2446C98.2047 44.3759 93.9733 34.9814 88.2135 27.3227C85.63 23.9629 84.5694 22.8755 84.5694 18.0693L84.5694 10.2924C84.5694 8.72603 85.9337 7.34663 87.5001 7.34663C89.0968 7.34663 90.4459 8.72603 90.4459 10.2924ZM44.1774 52.4243L44.1774 72.5595C44.1774 74.2353 43.1989 75.4463 41.5382 75.4463C39.8473 75.4463 38.9025 74.2504 38.9025 72.5595L38.9025 47.1453ZM67.0845 75.3493C62.4643 74.275 59.4927 70.74 57.8092 66.0667ZM82.5543 63.8554C82.5543 64.4214 82.4381 65.122 82.1266 66.2973C82.0169 66.7212 81.8893 67.1373 81.7378 67.5407L77.7281 63.527C77.7347 63.4998 77.7395 63.4713 77.7442 63.4428C78.0104 62.1645 78.8053 61.3696 80.1324 61.3696C81.4073 61.3696 82.5543 62.2133 82.5543 63.8554ZM82.3068 43.9414C82.4718 44.6284 82.5846 45.2817 82.5846 45.8476C82.5846 47.1377 81.692 48.2358 80.2149 48.2358C78.8727 48.2358 77.9767 47.456 77.7105 46.0312C76.8419 41.5449 74.2413 38.3193 70.1422 38.3193C65.5946 38.3193 63.0058 42.1204 61.9442 47.7276L57.7318 43.5112C59.7094 37.8537 63.5787 33.6626 70.1085 33.6626C75.9542 33.6626 81.1417 38.0014 82.3068 43.9414ZM30.7963 39.0328C29.9033 38.8293 29.1979 38.1734 29.0154 37.2505ZM54.1119 36.768C54.1119 37.7102 53.6768 38.4025 53.003 38.7777L48.7104 34.4809L51.6749 34.4809C53.0997 34.4809 54.1119 35.3432 54.1119 36.768Z" fill="#000000" fill-opacity="0.85"/>
  <path d="M101.601 102.787C102.748 103.952 104.614 103.952 105.727 102.787C106.889 101.64 106.874 99.8257 105.727 98.6601L13.0685 5.89546C11.9518 4.77876 10.1193 4.71821 8.90832 5.89546C7.79503 7.04244 7.76134 8.8901 8.90832 10.0371Z" fill="#000000" fill-opacity="0.85"/>
 </g>
</svg>
