<?xml version="1.0" encoding="UTF-8"?>
<!--Generator: Apple Native CoreSVG 232.5-->
<!DOCTYPE svg
PUBLIC "-//W3C//DTD SVG 1.1//EN"
       "http://www.w3.org/Graphics/SVG/1.1/DTD/svg11.dtd">
<svg version="1.1" xmlns="http://www.w3.org/2000/svg" xmlns:xlink="http://www.w3.org/1999/xlink" width="126.709" height="95.0977">
 <g>
  <rect height="95.0977" opacity="0" width="126.709" x="0" y="0"/>
  <path d="M117.616 78.9107C120.538 78.9107 122.998 76.5025 122.998 73.6968C122.998 70.812 120.571 68.4678 117.616 68.4678C114.63 68.4678 112.233 70.812 112.233 73.6968C112.233 76.5025 114.694 78.9107 117.616 78.9107ZM117.616 58.1694C119.433 58.1694 120.749 56.8726 120.816 55.0029L121.52 19.9785C121.587 17.6255 120.036 16.0405 117.616 16.0405C115.195 16.0405 113.644 17.6255 113.711 19.9785L114.449 55.0029C114.517 56.8726 115.798 58.1694 117.616 58.1694Z" fill="#000000" fill-opacity="0.85"/>
  <path d="M0 47.898C0 59.7456 4.53564 68.6323 9.48193 75.5845C11.8325 78.9844 13.1274 82.1504 13.1274 85.1489L13.1274 92.0391C13.1274 93.5718 14.4429 94.9512 16.0244 94.9512C17.5908 94.9512 18.9702 93.5718 18.9702 92.0391L18.9702 89.1382L26.4058 89.1382L26.4058 92.0391C26.4058 93.5718 27.7852 94.9512 29.3516 94.9512C30.9331 94.9512 32.2485 93.5718 32.2485 92.0391L32.2485 89.1382L39.1133 89.1382L39.1133 92.0391C39.1133 93.5718 40.5112 94.9512 42.0776 94.9512C43.6743 94.9512 44.9898 93.5718 44.9898 92.0391L44.9898 89.1382L51.75 89.1382L51.75 92.0391C51.75 93.5718 53.1143 94.9512 54.647 94.9512C56.2134 94.9512 57.6265 93.5718 57.6265 92.0391L57.6265 89.1382L64.4761 89.1382L64.4761 92.0391C64.4761 93.5718 65.8067 94.9512 67.3882 94.9512C68.9546 94.9512 70.3189 93.5718 70.3189 92.0391L70.3189 89.1382L77.7695 89.1382L77.7695 92.0391C77.7695 93.5718 79.1338 94.9512 80.7002 94.9512C82.2969 94.9512 83.646 93.5718 83.646 92.0391L83.646 85.1978C83.646 82.3643 85.0723 79.0181 87.6856 75.0371C92.3994 68.2012 96.834 59.4795 96.834 47.898C96.834 35.98 92.3516 25.334 85.7598 16.7119C83.3164 13.4385 83.064 12.6772 83.064 10.3672L83.064 2.94581C83.064 1.3794 81.6812 0 80.0996 0C78.5332 0 77.1875 1.3794 77.1875 2.94581L77.1875 10.7227C77.1875 15.5288 78.2144 16.6162 80.7979 19.9761C86.5576 27.6348 90.7891 37.0293 90.7891 47.898C90.7891 61.9194 83.8135 71.5874 73.8574 77.6553L22.8975 77.6553C13.0205 71.5874 6.04494 61.9194 6.04494 47.898C6.04494 37.0293 10.2612 27.6348 15.9873 19.9761C18.6045 16.6162 19.6465 15.5288 19.6465 10.7227L19.6465 2.94581C19.6465 1.3794 18.2671 0 16.7344 0C15.1528 0 13.77 1.3794 13.77 2.94581L13.77 10.3672C13.77 12.6772 13.5176 13.4385 11.0405 16.7119C4.46729 25.334 0 35.98 0 47.898ZM34.1226 68.0996C35.7832 68.0996 36.7617 66.8887 36.7617 65.2129L36.7617 31.7573L44.2593 31.7573C45.6655 31.7573 46.7114 30.895 46.7114 29.4214C46.7114 27.9966 45.7329 27.1343 44.2593 27.1343L24.0044 27.1343C22.7295 27.1343 21.5523 27.9072 21.5523 29.4214C21.5523 30.8159 22.6621 31.7573 24.0044 31.7573L31.502 31.7573L31.502 65.2129C31.502 66.9038 32.4805 68.0996 34.1226 68.0996ZM62.8276 68.3775C69.1636 68.3775 73.3809 64.2788 74.7261 58.9507C75.0225 57.7754 75.1875 57.0747 75.1875 56.5088C75.1875 54.8667 73.9917 54.023 72.7319 54.023C71.3896 54.023 70.6099 54.8179 70.3623 56.0962C69.6519 60.3906 67.27 63.7241 62.7603 63.7241C56.1748 63.7241 53.9512 55.4981 53.9512 47.2583C53.9512 38.1255 56.5371 30.9727 62.7266 30.9727C66.8257 30.9727 69.4751 34.1983 70.3286 38.6846C70.5762 40.1094 71.457 40.8892 72.8145 40.8892C74.3252 40.8892 75.1689 39.791 75.1689 38.501C75.1689 37.9351 75.0562 37.2817 74.9248 36.5947C73.7412 30.6548 68.5874 26.3159 62.6929 26.3159C52.2876 26.3159 48.6275 36.9893 48.6275 47.2583C48.6275 58.1807 52.5469 68.3775 62.8276 68.3775Z" fill="#000000" fill-opacity="0.85"/>
 </g>
</svg>
