<?xml version="1.0" encoding="UTF-8"?>
<!--Generator: Apple Native CoreSVG 232.5-->
<!DOCTYPE svg
PUBLIC "-//W3C//DTD SVG 1.1//EN"
       "http://www.w3.org/Graphics/SVG/1.1/DTD/svg11.dtd">
<svg version="1.1" xmlns="http://www.w3.org/2000/svg" xmlns:xlink="http://www.w3.org/1999/xlink" width="119.276" height="75.916">
 <g>
  <rect height="75.916" opacity="0" width="119.276" x="0" y="0"/>
  <path d="M0 62.0947C0 71.2534 4.69629 75.916 13.9561 75.916L105.32 75.916C114.58 75.916 119.276 71.2534 119.276 62.0947L119.276 13.8213C119.276 4.6626 114.58 0 105.32 0L25.7725 0C17.6802 0 13.5576 4.50098 11.2944 11.3091L1.62988 40.7051C0.488281 44.0474 0 46.8828 0 51.8452ZM46.0703 37.7695L46.0703 20.6113C46.0703 17.8179 47.6768 16.2451 50.4365 16.2451L95.7725 16.2451C98.5811 16.2451 100.154 17.8179 100.154 20.6113L100.154 37.7695C100.154 40.4316 98.5811 42.0044 95.7725 42.0044L50.4365 42.0044C47.6768 42.0044 46.0703 40.4316 46.0703 37.7695ZM15.1797 42.0044C12.5816 42.0044 11.374 39.9131 12.3003 37.0518L18.0645 19.5337C18.6875 17.582 19.7315 16.2451 23.1377 16.2451L29.688 16.2451C32.4629 16.2451 34.0693 17.8179 34.0693 20.6113L34.0693 37.7695C34.0693 40.4316 32.4629 42.0044 29.688 42.0044Z" fill="#000000" fill-opacity="0.85"/>
 </g>
</svg>
