<?xml version="1.0" encoding="UTF-8"?>
<!--Generator: Apple Native CoreSVG 232.5-->
<!DOCTYPE svg
PUBLIC "-//W3C//DTD SVG 1.1//EN"
       "http://www.w3.org/Graphics/SVG/1.1/DTD/svg11.dtd">
<svg version="1.1" xmlns="http://www.w3.org/2000/svg" xmlns:xlink="http://www.w3.org/1999/xlink" width="119.276" height="75.916">
 <g>
  <rect height="75.916" opacity="0" width="119.276" x="0" y="0"/>
  <path d="M0 62.0947C0 71.2534 4.69629 75.916 13.9561 75.916L105.32 75.916C114.58 75.916 119.276 71.2534 119.276 62.0947L119.276 13.8213C119.276 4.6626 114.58 0 105.32 0L13.9561 0C4.69629 0 0 4.6626 0 13.8213ZM15.4795 37.7695L15.4795 20.6113C15.4795 17.8179 17.086 16.2451 19.8609 16.2451L99.4155 16.2451C102.175 16.2451 103.782 17.8179 103.782 20.6113L103.782 37.7695C103.782 40.4316 102.175 42.0044 99.4155 42.0044L19.8609 42.0044C17.086 42.0044 15.4795 40.4316 15.4795 37.7695Z" fill="#000000" fill-opacity="0.85"/>
 </g>
</svg>
