<?xml version="1.0" encoding="UTF-8"?>
<!--Generator: Apple Native CoreSVG 232.5-->
<!DOCTYPE svg
PUBLIC "-//W3C//DTD SVG 1.1//EN"
       "http://www.w3.org/Graphics/SVG/1.1/DTD/svg11.dtd">
<svg version="1.1" xmlns="http://www.w3.org/2000/svg" xmlns:xlink="http://www.w3.org/1999/xlink" width="115.466" height="83.8392">
 <g>
  <rect height="83.8392" opacity="0" width="115.466" x="0" y="0"/>
  <path d="M30.8023 73.7409L84.6641 83.0671C92.9912 84.5456 98.043 78.9435 98.043 69.8415L98.043 13.5143C98.043 4.05678 93.2608-1.25719 84.6641 0.255021L30.8023 9.61488C22.2056 11.1271 17.4233 15.2277 17.4233 22.8556L17.4233 60.4665C17.4233 68.0607 22.2056 72.2287 30.8023 73.7409ZM30.5933 68.0631C25.7578 67.2516 23.1314 65.029 23.1314 60.5338L23.1314 22.7882C23.1314 18.3083 25.7578 16.0705 30.5933 15.2589L84.8731 5.93277C89.7085 5.12125 92.335 8.10269 92.335 13.4469L92.335 69.9088C92.335 75.0998 89.6226 78.2008 84.8731 77.423ZM3.02833 44.5226L112.438 44.5226C114.334 44.5226 115.466 43.4093 115.466 41.693C115.466 39.8791 114.334 38.7995 112.438 38.7995L3.02833 38.7995C1.13184 38.7995 0 39.8791 0 41.693C0 43.4093 1.13184 44.5226 3.02833 44.5226Z" fill="#000000" fill-opacity="0.85"/>
 </g>
</svg>
