<?xml version="1.0" encoding="UTF-8"?>
<!--Generator: Apple Native CoreSVG 232.5-->
<!DOCTYPE svg
PUBLIC "-//W3C//DTD SVG 1.1//EN"
       "http://www.w3.org/Graphics/SVG/1.1/DTD/svg11.dtd">
<svg version="1.1" xmlns="http://www.w3.org/2000/svg" xmlns:xlink="http://www.w3.org/1999/xlink" width="88.4092" height="89.6113">
 <g>
  <rect height="89.6113" opacity="0" width="88.4092" x="0" y="0"/>
  <path d="M88.4092 15.4912L88.4092 75.3711C88.4092 84.7788 83.5733 89.6113 74.0005 89.6113L14.3936 89.6113C4.86963 89.6113 0 84.8091 0 75.3711L0 15.4912C0 6.05322 4.86963 1.21728 14.3936 1.21728L74.0005 1.21728C83.5733 1.21728 88.4092 6.0835 88.4092 15.4912ZM14.5064 7.24708C9.00294 7.24708 6.04494 10.1714 6.04494 15.8247L6.04494 75.0376C6.04494 80.6909 9.00294 83.5815 14.5064 83.5815L73.9028 83.5815C79.2969 83.5815 82.3643 80.6909 82.3643 75.0376L82.3643 15.8247C82.3643 10.1714 79.2969 7.24708 73.9028 7.24708Z" fill="#000000" fill-opacity="0.85"/>
  <path d="M33.235 42.0512L34.3267 65.0952C34.3755 65.9658 34.9868 66.5737 35.8726 66.5737C36.8897 66.5737 37.4336 65.917 37.3696 65.0161L36.5531 45.369L42.5249 51.3404L42.5249 65.0161C42.5249 65.8867 43.1631 66.5098 44.1162 66.5098C45.0542 66.5098 45.7598 65.8867 45.7598 65.0161L45.7598 54.5751L51.0638 59.8787L50.8477 65.0161C50.7988 65.917 51.3428 66.5737 52.3599 66.5737C53.2305 66.5737 53.8418 65.9658 53.8906 65.0952L53.9987 62.8134L61.8618 70.676C61.1867 72.8376 59.2833 74.1235 56.7847 74.1235L31.8281 74.1235C28.6743 74.1235 26.6338 72.1807 26.4873 69.0571L24.8175 33.6342ZM55.9126 21.481L55.9126 25.6934L68.1426 25.6934C69.148 25.6934 70.022 26.5337 69.9883 27.4902C69.9546 28.4619 69.148 29.272 68.1426 29.272L63.9824 29.272L62.6728 57.3309L54.6392 49.2923L55.2759 35.853C55.3398 34.8848 54.7017 34.2617 53.7183 34.2617C52.75 34.2617 52.0933 34.8394 52.0781 35.7739L51.6358 46.287L45.7598 40.4074L45.7598 35.7891C45.7598 34.8545 45.1333 34.2617 44.1162 34.2617C43.0991 34.2617 42.5249 34.8545 42.5249 35.7891L42.5249 37.1705L31.0549 25.6934L32.648 25.6934L32.648 21.481C32.648 17.8252 35.1636 15.3618 39.188 15.3618L49.3086 15.3618C53.2993 15.3618 55.9126 17.8252 55.9126 21.481ZM39.2959 19.3262C37.7505 19.3262 36.6714 20.2774 36.6714 21.7285L36.6714 25.6934L51.6553 25.6934L51.6553 21.7285C51.6553 20.2774 50.5762 19.3262 49.0005 19.3262Z" fill="#000000" fill-opacity="0.85"/>
  <path d="M66.7002 71.1343C67.4429 71.8433 68.6621 71.8921 69.3711 71.1343C70.1626 70.3613 70.1626 69.2061 69.3711 68.4482L20.4741 19.5025C19.7315 18.7446 18.5122 18.7446 17.7695 19.5025C16.9966 20.2754 17.0454 21.4644 17.7695 22.1734Z" fill="#000000" fill-opacity="0.85"/>
 </g>
</svg>
