<?xml version="1.0" encoding="UTF-8"?>
<!--Generator: Apple Native CoreSVG 232.5-->
<!DOCTYPE svg
PUBLIC "-//W3C//DTD SVG 1.1//EN"
       "http://www.w3.org/Graphics/SVG/1.1/DTD/svg11.dtd">
<svg version="1.1" xmlns="http://www.w3.org/2000/svg" xmlns:xlink="http://www.w3.org/1999/xlink" width="93.3657" height="115.706">
 <g>
  <rect height="115.706" opacity="0" width="93.3657" x="0" y="0"/>
  <path d="M31.8281 93.1245C30.3174 93.1245 29.3691 92.2134 29.3018 90.7666L27.7007 35.7354C27.667 34.292 28.6455 33.3623 30.1748 33.3623C31.5728 33.3623 32.6001 34.2583 32.6338 35.6563L34.3023 90.7515C34.3359 92.1494 33.354 93.1245 31.8281 93.1245ZM46.7056 93.1245C45.21 93.1245 44.1792 92.1797 44.1792 90.7515L44.1792 35.7354C44.1792 34.3071 45.21 33.3623 46.7056 33.3623C48.2012 33.3623 49.2656 34.3071 49.2656 35.7354L49.2656 90.7515C49.2656 92.1797 48.2012 93.1245 46.7056 93.1245ZM61.5864 93.1397C60.0757 93.1397 59.0937 92.1797 59.1274 90.7666L60.7622 35.7051C60.7959 34.2734 61.8232 33.3774 63.2212 33.3774C64.7505 33.3774 65.729 34.3071 65.6953 35.7505L64.0942 90.7969C64.0269 92.2285 63.0635 93.1397 61.5864 93.1397ZM25.8149 21.2095L31.7925 21.2095L31.7925 10.8511C31.7925 7.64405 33.9727 5.64064 37.417 5.64064L55.8965 5.64064C59.356 5.64064 61.5361 7.64405 61.5361 10.8511L61.5361 21.2095L67.5137 21.2095L67.5137 10.5293C67.5137 3.94873 63.2568 0 56.2065 0L37.0918 0C30.0718 0 25.8149 3.94873 25.8149 10.5293ZM2.85987 24.2075L90.5698 24.2075C92.1328 24.2075 93.3657 22.8921 93.3657 21.3442C93.3657 19.7661 92.1177 18.4995 90.5698 18.4995L2.85987 18.4995C1.34571 18.4995 0 19.7813 0 21.3442C0 22.9409 1.34571 24.2075 2.85987 24.2075ZM24.5693 107.666L68.8452 107.666C75.1314 107.666 79.6675 103.306 79.979 97.0654L83.6392 23.1973L9.77197 23.1973L13.4658 97.0991C13.7773 103.34 18.231 107.666 24.5693 107.666Z" fill="#000000" fill-opacity="0.85"/>
 </g>
</svg>
