<?xml version="1.0" encoding="UTF-8"?>
<!--Generator: Apple Native CoreSVG 232.5-->
<!DOCTYPE svg
PUBLIC "-//W3C//DTD SVG 1.1//EN"
       "http://www.w3.org/Graphics/SVG/1.1/DTD/svg11.dtd">
<svg version="1.1" xmlns="http://www.w3.org/2000/svg" xmlns:xlink="http://www.w3.org/1999/xlink" width="88.4092" height="89.6113">
 <g>
  <rect height="89.6113" opacity="0" width="88.4092" x="0" y="0"/>
  <path d="M14.3936 89.6113L74.0005 89.6113C83.5733 89.6113 88.4092 84.7788 88.4092 75.3711L88.4092 15.4912C88.4092 6.0835 83.5733 1.21728 74.0005 1.21728L14.3936 1.21728C4.86963 1.21728 0 6.05322 0 15.4912L0 75.3711C0 84.8091 4.86963 89.6113 14.3936 89.6113ZM14.5064 83.5815C9.00294 83.5815 6.04494 80.6909 6.04494 75.0376L6.04494 15.8247C6.04494 10.1714 9.00294 7.24708 14.5064 7.24708L73.9028 7.24708C79.2969 7.24708 82.3643 10.1714 82.3643 15.8247L82.3643 75.0376C82.3643 80.6909 79.2969 83.5815 73.9028 83.5815Z" fill="#000000" fill-opacity="0.85"/>
  <path d="M31.8433 74.1235L56.7847 74.1235C59.9048 74.1235 62.0278 72.1807 62.1743 69.0571L64.0313 29.272L68.1914 29.272C69.1968 29.272 69.9697 28.4619 69.9883 27.4902C70.022 26.5337 69.1968 25.6934 68.1914 25.6934L55.9463 25.6934L55.9463 21.481C55.9463 17.8252 53.333 15.3618 49.3423 15.3618L39.2368 15.3618C35.2124 15.3618 32.6816 17.8252 32.6816 21.481L32.6816 25.6934L20.2481 25.6934C19.2612 25.6934 18.436 26.5337 18.436 27.4902C18.436 28.4619 19.2612 29.272 20.2481 29.272L24.6606 29.272L26.5361 69.0571C26.6338 72.1807 28.6743 74.1235 31.8433 74.1235ZM35.9063 66.5737C35.0356 66.5737 34.3906 65.9658 34.3604 65.0952L32.9565 35.853C32.9263 34.8848 33.5645 34.2617 34.5816 34.2617C35.4824 34.2617 36.1729 34.8394 36.188 35.7739L37.4185 65.0161C37.4336 65.917 36.9233 66.5737 35.9063 66.5737ZM44.1499 66.5098C43.2119 66.5098 42.54 65.8867 42.54 65.0161L42.54 35.7891C42.54 34.8545 43.1328 34.2617 44.1499 34.2617C45.1333 34.2617 45.7749 34.8545 45.7749 35.7891L45.7749 65.0161C45.7749 65.8867 45.103 66.5098 44.1499 66.5098ZM52.3599 66.5737C51.3765 66.5737 50.8325 65.917 50.8628 65.0161L52.0781 35.7739C52.1421 34.8394 52.7837 34.2617 53.7183 34.2617C54.7354 34.2617 55.3398 34.8848 55.3247 35.853L53.9058 65.0952C53.8906 65.9658 53.2456 66.5737 52.3599 66.5737ZM36.7051 25.6934L36.7051 21.7285C36.7051 20.2774 37.7842 19.3262 39.3296 19.3262L49.0156 19.3262C50.5913 19.3262 51.6704 20.2774 51.6704 21.7285L51.6704 25.6934Z" fill="#000000" fill-opacity="0.85"/>
 </g>
</svg>
