<?xml version="1.0" encoding="UTF-8"?>
<!--Generator: Apple Native CoreSVG 232.5-->
<!DOCTYPE svg
PUBLIC "-//W3C//DTD SVG 1.1//EN"
       "http://www.w3.org/Graphics/SVG/1.1/DTD/svg11.dtd">
<svg version="1.1" xmlns="http://www.w3.org/2000/svg" xmlns:xlink="http://www.w3.org/1999/xlink" width="97.9595" height="97.9932">
 <g>
  <rect height="97.9932" opacity="0" width="97.9595" x="0" y="0"/>
  <path d="M97.9595 49.021C97.9595 75.8584 75.8247 97.9932 48.9722 97.9932C22.1685 97.9932 0 75.8584 0 49.021C0 22.2173 22.1348 0.0488281 48.9385 0.0488281C75.791 0.0488281 97.9595 22.2173 97.9595 49.021ZM43.8604 18.4058C39.7686 18.4058 37.1855 20.9702 37.1855 24.7271L37.1855 29.0068L24.501 29.0068C23.4956 29.0068 22.6704 29.8472 22.6704 30.8711C22.6704 31.8765 23.4956 32.6528 24.501 32.6528L28.9961 32.6528L30.8901 73.2349C31.0029 76.4258 33.1108 78.4209 36.332 78.4209L61.7974 78.4209C64.9849 78.4209 67.1602 76.4258 67.3066 73.2349L69.1973 32.6528L73.4248 32.6528C74.4639 32.6528 75.2217 31.8765 75.2554 30.8711C75.2891 29.8472 74.4639 29.0068 73.4248 29.0068L60.9253 29.0068L60.9253 24.7271C60.9253 20.9702 58.2783 18.4058 54.168 18.4058ZM40.7778 39.3081L42.042 69.1416C42.0571 70.0274 41.4795 70.6841 40.4961 70.6841C39.5918 70.6841 38.9131 70.0576 38.898 69.1719L37.479 39.3535C37.4487 38.3853 38.0684 37.7622 39.1377 37.7622C40.0723 37.7622 40.7627 38.3399 40.7778 39.3081ZM60.3037 39.3535L58.8848 69.1719C58.8545 70.0576 58.1909 70.6841 57.2715 70.6841C56.2881 70.6841 55.7105 70.0274 55.7407 69.1416L56.9898 39.3081C57.0537 38.3399 57.6953 37.7622 58.6636 37.7622C59.7144 37.7622 60.3189 38.3853 60.3037 39.3535ZM50.5518 39.3233L50.5518 69.1416C50.5518 70.0122 49.8799 70.669 48.9082 70.669C47.9365 70.669 47.2495 70.0122 47.2495 69.1416L47.2495 39.3233C47.2495 38.3701 47.8574 37.7622 48.9082 37.7622C49.9253 37.7622 50.5518 38.3701 50.5518 39.3233ZM56.5483 24.9898L56.5483 29.0068L41.3286 29.0068L41.3286 24.9898C41.3286 23.5049 42.4077 22.52 43.9868 22.52L53.8599 22.52C55.4692 22.52 56.5483 23.5049 56.5483 24.9898Z" fill="#000000" fill-opacity="0.85"/>
 </g>
</svg>
