<?xml version="1.0" encoding="UTF-8"?>
<!--Generator: Apple Native CoreSVG 232.5-->
<!DOCTYPE svg
PUBLIC "-//W3C//DTD SVG 1.1//EN"
       "http://www.w3.org/Graphics/SVG/1.1/DTD/svg11.dtd">
<svg version="1.1" xmlns="http://www.w3.org/2000/svg" xmlns:xlink="http://www.w3.org/1999/xlink" width="114.35" height="81.3281">
 <g>
  <rect height="81.3281" opacity="0" width="114.35" x="0" y="0"/>
  <path d="M14.3936 81.3281L99.9409 81.3281C109.514 81.3281 114.35 76.4468 114.35 67.0542L114.35 39.0864C114.35 35.3579 113.839 33.5391 111.975 31.2319L93.6763 8.17237C88.6748 1.94336 86.1812 0.127929 78.3374 0.127929L36.0122 0.127929C28.1685 0.127929 25.6934 1.94336 20.707 8.17237L2.37451 31.2319C0.543946 33.5391 0 35.3579 0 39.0864L0 67.0542C0 76.5259 4.86963 81.3281 14.3936 81.3281ZM14.5064 75.2983C9.00294 75.2983 6.04494 72.3926 6.04494 66.7544L6.04494 41.8477L39.1968 41.8477C39.9902 51.2207 47.5503 57.9136 57.1748 57.9136C66.7842 57.9136 74.3442 51.1568 75.1377 41.8477L108.305 41.8477L108.305 66.7544C108.305 72.3926 105.237 75.2983 99.8433 75.2983ZM57.1748 52.3369C49.9873 52.3369 44.999 46.3462 44.999 39.8496L44.999 39.6274C44.999 37.8491 43.9751 36.3384 41.875 36.3384L8.09279 36.3384C6.81447 36.3384 6.53322 35.21 7.21193 34.3662L26.5986 9.68312C28.9761 6.67091 31.6348 5.45021 35.4263 5.45021L78.9233 5.45021C82.7148 5.45021 85.3584 6.67091 87.751 9.68312L107.187 34.3662C107.832 35.21 107.584 36.3384 106.306 36.3384L72.4746 36.3384C70.3745 36.3384 69.3843 37.8491 69.3843 39.6274L69.3843 39.8496C69.3843 46.3462 64.396 52.3369 57.1748 52.3369Z" fill="#000000" fill-opacity="0.85"/>
 </g>
</svg>
