<?xml version="1.0" encoding="UTF-8"?>
<!--Generator: Apple Native CoreSVG 232.5-->
<!DOCTYPE svg
PUBLIC "-//W3C//DTD SVG 1.1//EN"
       "http://www.w3.org/Graphics/SVG/1.1/DTD/svg11.dtd">
<svg version="1.1" xmlns="http://www.w3.org/2000/svg" xmlns:xlink="http://www.w3.org/1999/xlink" width="114.35" height="110.473">
 <g>
  <rect height="110.473" opacity="0" width="114.35" x="0" y="0"/>
  <path d="M6.04494 96.2578C6.04494 101.911 9.00294 104.835 14.5064 104.835L99.8433 104.835C105.237 104.835 108.305 101.911 108.305 96.2578L108.305 72.3652L75.1377 72.3652C74.3442 81.6592 66.7842 88.4312 57.1748 88.4312C47.5503 88.4312 39.9902 81.7046 39.1968 72.3652L45.1703 72.3652C46.0611 78.0269 50.7353 82.8208 57.1748 82.8208C63.6445 82.8208 68.3219 78.0269 69.213 72.3652L99.9409 72.3652C107.325 72.3652 111.891 69.4806 113.58 64.0262C114.239 65.591 114.35 67.4684 114.35 69.9106L114.35 96.5913C114.35 105.576 109.514 110.424 99.9409 110.424L14.3936 110.424C4.86963 110.424 0 105.622 0 96.5913L0 69.9106C0 67.4695 0.1106 65.5927 0.768782 64.0283C2.46066 69.502 7.03961 72.3652 14.3936 72.3652L6.04494 72.3652Z" fill="#000000" fill-opacity="0.85"/>
  <path d="M14.3936 72.3652L99.9409 72.3652C109.514 72.3652 114.35 67.5176 114.35 58.5327L114.35 31.8521C114.35 28.0898 114.087 25.7017 111.975 23.6572L94.2358 6.3916C89.2314 1.6416 85.5137 0 78.6504 0L35.6992 0C28.8545 0 25.103 1.6416 20.1475 6.3916L2.37451 23.6572C0.262696 25.7017 0 28.0898 0 31.8521L0 58.5327C0 67.563 4.86963 72.3652 14.3936 72.3652ZM57.1748 44.7622C49.9873 44.7622 44.999 38.79 44.999 32.3086L44.999 32.0073C44.999 30.229 43.9751 28.7183 41.875 28.7183L9.05275 28.7183C6.89015 28.7183 6.14406 27.6455 7.92091 25.9395L24.7608 9.60352C28.1328 6.35109 30.5249 5.35597 35.2393 5.35597L79.1104 5.35597C83.8584 5.35597 86.2168 6.35109 89.5737 9.60352L106.429 25.9395C108.273 27.7129 107.426 28.7183 105.315 28.7183L72.4746 28.7183C70.3745 28.7183 69.3843 30.229 69.3843 32.0073L69.3843 32.3086C69.3843 38.79 64.396 44.7622 57.1748 44.7622ZM14.5064 66.7769C9.00294 66.7769 6.04494 63.8525 6.04494 58.1992L6.04494 34.3067L39.1968 34.3067C39.9902 43.646 47.5503 50.3726 57.1748 50.3726C66.7842 50.3726 74.3442 43.6006 75.1377 34.3067L108.305 34.3067L108.305 58.1992C108.305 63.8525 105.237 66.7769 99.8433 66.7769Z" fill="#000000" fill-opacity="0.85"/>
 </g>
</svg>
