<?xml version="1.0" encoding="UTF-8"?>
<!--Generator: Apple Native CoreSVG 232.5-->
<!DOCTYPE svg
PUBLIC "-//W3C//DTD SVG 1.1//EN"
       "http://www.w3.org/Graphics/SVG/1.1/DTD/svg11.dtd">
<svg version="1.1" xmlns="http://www.w3.org/2000/svg" xmlns:xlink="http://www.w3.org/1999/xlink" width="114.35" height="135.908">
 <g>
  <rect height="135.908" opacity="0" width="114.35" x="0" y="0"/>
  <path d="M93.9981 46.7471L111.975 69.9077C113.839 72.2485 114.35 73.9849 114.35 77.7471L114.35 104.443C114.35 113.835 109.514 118.717 99.9409 118.717L14.3936 118.717C4.86963 118.717 0 113.881 0 104.443L0 77.7471C0 73.9849 0.543946 72.2485 2.37451 69.9077L20.3179 46.8482C25.54 40.1626 27.8467 38.77 35.6753 38.77L46.6909 38.77L46.6909 44.1109L35.1045 44.1109C31.313 44.1109 28.9238 44.9575 26.2432 48.3926L7.87551 72.1343C6.44728 73.9751 6.81105 74.9805 9.02248 74.9805L41.2314 74.9805C43.4663 74.9805 44.5425 76.626 44.5425 78.4566L44.5425 78.7124C44.5425 85.4297 49.6841 91.6226 57.1748 91.6226C64.6841 91.6226 69.8408 85.4297 69.8408 78.7124L69.8408 78.4566C69.8408 76.626 70.8833 74.9805 73.1182 74.9805L105.395 74.9805C107.505 74.9805 107.988 74.0947 106.493 72.1343L88.0391 48.2915C85.4258 44.9238 83.0366 44.1109 79.2451 44.1109L67.6436 44.1109L67.6436 38.77L78.6592 38.77C86.5029 38.77 88.877 40.1626 93.9981 46.7471Z" fill="#000000" fill-opacity="0.85"/>
  <path d="M57.1748 78.4746C58.79 78.4746 60.1729 77.1255 60.1729 75.5439L60.1729 22.9756L59.9219 15.897L64.3018 20.3594L72.583 28.9961C73.1152 29.5957 73.9136 29.9107 74.6631 29.9107C76.1807 29.9107 77.3765 28.7485 77.3765 27.2495C77.3765 26.4326 77.0767 25.833 76.5107 25.2671L59.3408 8.47119C58.6065 7.73682 57.958 7.4707 57.1748 7.4707C56.4253 7.4707 55.728 7.73682 55.0088 8.47119L37.8237 25.2671C37.2578 25.833 36.958 26.4326 36.958 27.2495C36.958 28.7485 38.0898 29.9107 39.6226 29.9107C40.3721 29.9107 41.1704 29.5957 41.7515 28.9961L50.0176 20.3594L54.4126 15.8482L54.1953 22.9756L54.1953 75.5439C54.1953 77.1255 55.5596 78.4746 57.1748 78.4746Z" fill="#000000" fill-opacity="0.85"/>
 </g>
</svg>
