<?xml version="1.0" encoding="UTF-8"?>
<!--Generator: Apple Native CoreSVG 232.5-->
<!DOCTYPE svg
PUBLIC "-//W3C//DTD SVG 1.1//EN"
       "http://www.w3.org/Graphics/SVG/1.1/DTD/svg11.dtd">
<svg version="1.1" xmlns="http://www.w3.org/2000/svg" xmlns:xlink="http://www.w3.org/1999/xlink" width="97.9595" height="97.9932">
 <g>
  <rect height="97.9932" opacity="0" width="97.9595" x="0" y="0"/>
  <path d="M97.9595 48.9722C97.9595 75.7759 75.8247 97.9443 48.9722 97.9443C22.1685 97.9443 0 75.7759 0 48.9722C0 22.1348 22.1348 0 48.9385 0C75.791 0 97.9595 22.1348 97.9595 48.9722ZM48.9385 24.1235C46.9854 22.0156 44.2915 20.9971 41.4141 20.9971C35.8242 20.9971 30.1836 24.7954 30.0606 30.0654C24.9185 30.5757 20.7109 35.4351 20.7109 40.8179C20.7109 43.5083 21.5562 45.9648 23.6001 48.1284C21.0376 50.7466 19.8657 53.6426 19.8657 56.4224C19.8657 61.7749 23.4522 65.4102 28.6431 65.4102C30.3184 65.4102 32.1401 64.9893 34.0899 63.9522C35.7935 65.6001 39.7261 67.252 43.4658 67.2168C42.7334 63.686 40.4248 59.0571 38.854 56.2505C39.6909 56.1226 40.4639 55.8818 41.0869 55.5586C43.4966 59.8511 46.1162 65.71 46.1162 69.6797C46.1162 73.6289 45.7105 76.7817 45.7105 78.0732C45.7105 78.9473 47.0508 79.604 48.9385 79.604C50.8413 79.604 52.1816 78.9473 52.1816 78.0732C52.1816 76.7817 51.7759 73.6289 51.7759 69.6797C51.7759 65.8447 54.2607 60.2588 56.7378 55.5586C57.4282 55.8818 58.1675 56.1226 59.0381 56.2505C57.4673 59.0571 55.2227 63.686 54.4263 67.2168C58.166 67.252 62.0986 65.6001 63.7871 63.9522C65.752 64.9893 67.6074 65.4102 69.249 65.4102C74.4399 65.4102 78.0601 61.7749 78.0601 56.4224C78.0601 53.6426 76.8545 50.7466 74.292 48.1284C76.3359 45.9648 77.1812 43.5083 77.1812 40.8179C77.1812 35.4351 72.9736 30.5757 67.8315 30.0654C67.7422 24.7954 62.1016 20.9971 56.478 20.9971C53.6343 20.9971 50.9067 22.0156 48.9385 24.1235ZM47.2461 52.8711L47.2798 60.9307C46.416 58.6729 45.0996 56.04 43.5068 53.3125C43.8521 52.7417 44.1148 52.0732 44.3135 51.4536C45.231 52.1421 46.1367 52.627 47.2461 52.8711ZM54.3516 53.2939C52.7925 56.1597 51.4761 58.7065 50.6123 60.897L50.5449 52.9048C51.7217 52.6606 52.6274 52.1758 53.5786 51.4536C53.7773 52.0732 54.04 52.708 54.3516 53.2939Z" fill="#000000" fill-opacity="0.85"/>
 </g>
</svg>
