<?xml version="1.0" encoding="UTF-8"?>
<!--Generator: Apple Native CoreSVG 232.5-->
<!DOCTYPE svg
PUBLIC "-//W3C//DTD SVG 1.1//EN"
       "http://www.w3.org/Graphics/SVG/1.1/DTD/svg11.dtd">
<svg version="1.1" xmlns="http://www.w3.org/2000/svg" xmlns:xlink="http://www.w3.org/1999/xlink" width="122.356" height="123.384">
 <g>
  <rect height="123.384" opacity="0" width="122.356" x="0" y="0"/>
  <path d="M49.7207 97.4751C53.228 97.4751 57.126 96.9532 61.1704 95.4732C65.23 96.9532 69.1279 97.4751 72.6353 97.4751C82.5493 97.4751 89.857 92.9761 92.4888 90.5835C96.5938 92.6494 100.345 93.5772 103.868 93.5772C114.885 93.5772 122.356 85.8921 122.356 74.5181C122.356 68.6821 119.96 62.6104 114.375 57.1162C118.834 52.5835 120.595 47.293 120.595 41.7822C120.595 30.4151 111.731 20.2446 100.943 19.1382C100.648 8.11622 88.7959 0.150394 77.0264 0.150394C70.9986 0.150394 65.3125 2.19092 61.1704 6.61573C57.0435 2.19092 51.376 0.150394 45.3296 0.150394C33.5601 0.150394 21.7075 8.11622 21.4463 19.1382C10.6245 20.2446 1.72754 30.4151 1.72754 41.7822C1.72754 47.293 3.52246 52.5835 7.98096 57.1162C2.396 62.6104 0 68.6821 0 74.5181C0 85.8921 7.47119 93.5772 18.4883 93.5772C22.0107 93.5772 25.7622 92.6494 29.8672 90.5835C32.4653 92.9761 39.8067 97.4751 49.7207 97.4751ZM49.7207 91.9878C38.48 91.9878 32.8159 86.0322 30.8272 83.6445C26.0366 87.0005 22.8462 88.0562 18.4883 88.0562C10.5064 88.0562 5.52101 82.8418 5.52101 74.5181C5.52101 69.2969 7.48243 64.9112 13.9214 59.0733C15.1323 58.0274 14.9976 56.2539 13.9888 55.2266C8.63917 50.1782 7.21486 46.2031 7.21486 41.1724C7.21486 31.5064 14.7778 24.0376 25.3506 24.543C26.7232 24.6104 27.1997 23.6538 27.0498 22.6821C25.6944 13.1489 34.2017 5.63771 45.6177 5.63771C52.2837 5.63771 57.0552 8.21047 61.1704 13.2544C65.3008 8.21047 70.0723 5.63771 76.7383 5.63771C88.1543 5.63771 96.6616 13.1489 95.3062 22.6821C95.1563 23.6538 95.6328 24.6104 97.0054 24.543C107.544 24.0376 115.092 31.5064 115.092 41.1724C115.092 46.2031 113.717 50.1782 108.367 55.2266C107.358 56.2539 107.224 58.0274 108.435 59.0733C114.874 64.9112 116.835 69.2969 116.835 74.5181C116.835 82.8418 111.816 88.0562 103.868 88.0562C99.5098 88.0562 96.3194 87.0005 91.4951 83.6445C89.5401 86.0322 83.876 91.9878 72.6353 91.9878C69.0152 91.9878 65.6006 91.4321 61.1704 89.6035C56.7554 91.4321 53.3408 91.9878 49.7207 91.9878Z" fill="#000000" fill-opacity="0.85"/>
  <path d="M61.1704 123.384C65.2525 123.384 68.0562 122.101 68.0562 120.166C68.0562 117.377 67.2075 110.559 67.2075 102.43C67.2075 91.8052 77.0152 73.2432 79.4693 69.7251L73.9473 65.3877C71.1997 70.3828 67.8882 76.4063 64.6748 83.833L64.6748 66.6392L57.6812 66.6392L57.6812 83.8667C54.4678 76.4248 51.1226 70.3491 48.4087 65.3877L42.9204 69.7251C45.3071 73.2432 55.1484 91.8052 55.1484 102.43C55.1484 110.559 54.2998 117.377 54.2998 120.166C54.2998 122.101 57.1035 123.384 61.1704 123.384Z" fill="#000000" fill-opacity="0.85"/>
  <path d="M35.8413 75.0464C44.9116 75.0464 49.603 70.8623 51.6372 64.6226C54.3682 66.6411 57.3233 67.6748 61.1704 67.6748C65.0176 67.6748 67.9878 66.6411 70.7188 64.6226C72.7529 70.8623 77.4292 75.0464 86.5147 75.0464C87.8418 75.0464 88.9702 73.9854 88.9702 72.6245C88.9702 71.2974 87.8418 70.169 86.5147 70.169C78.1299 70.0713 75.0347 65.3906 74.503 59.2661C74.3633 57.1577 71.5239 56.2417 70.0591 58.0689C68.1143 60.5967 65.3814 62.4756 61.1704 62.4756C56.9746 62.4756 54.2417 60.5967 52.2969 58.0689C50.832 56.2417 47.9927 57.1577 47.853 59.2661C47.3213 65.3906 44.2261 70.0713 35.8413 70.169C34.5142 70.169 33.3857 71.2974 33.3857 72.6245C33.3857 73.9854 34.5142 75.0464 35.8413 75.0464Z" fill="#000000" fill-opacity="0.85"/>
 </g>
</svg>
