<?xml version="1.0" encoding="UTF-8"?>
<!--Generator: Apple Native CoreSVG 232.5-->
<!DOCTYPE svg
PUBLIC "-//W3C//DTD SVG 1.1//EN"
       "http://www.w3.org/Graphics/SVG/1.1/DTD/svg11.dtd">
<svg version="1.1" xmlns="http://www.w3.org/2000/svg" xmlns:xlink="http://www.w3.org/1999/xlink" width="105.33" height="94.5352">
 <g>
  <rect height="94.5352" opacity="0" width="105.33" x="0" y="0"/>
  <path d="M6.01172 92.2114L99.3027 92.2114C103.449 92.2114 105.33 90.0357 105.33 87.3633C105.33 86.2183 104.973 84.9605 104.289 83.7212L57.4356 2.61524C56.4487 0.85547 54.603 0 52.6816 0C50.7266 0 48.9146 0.85547 47.8789 2.61524L1.07422 83.7212C0.390625 84.9605 0 86.2183 0 87.3633C0 90.0357 1.86572 92.2114 6.01172 92.2114ZM8.9009 86.3164C7.93801 86.3164 7.3926 85.835 7.3926 85.1279C7.3926 84.8232 7.4717 84.4883 7.69728 84.1348L51.5386 8.10988C51.8618 7.59475 52.2305 7.36916 52.6816 7.36916C53.0991 7.36916 53.4526 7.59475 53.7759 8.10988L97.6509 84.1348C97.8579 84.4883 97.9707 84.8232 97.9707 85.1279C97.9707 85.835 97.3916 86.3164 96.4287 86.3164Z" fill="#000000" fill-opacity="0.85"/>
 </g>
</svg>
