<?xml version="1.0" encoding="UTF-8"?>
<!--Generator: Apple Native CoreSVG 232.5-->
<!DOCTYPE svg
PUBLIC "-//W3C//DTD SVG 1.1//EN"
       "http://www.w3.org/Graphics/SVG/1.1/DTD/svg11.dtd">
<svg version="1.1" xmlns="http://www.w3.org/2000/svg" xmlns:xlink="http://www.w3.org/1999/xlink" width="97.9595" height="98.3838">
 <g>
  <rect height="98.3838" opacity="0" width="97.9595" x="0" y="0"/>
  <path d="M97.9595 49.4116C97.9595 76.2153 75.8247 98.3838 48.9722 98.3838C22.1685 98.3838 0 76.2153 0 49.4116C0 22.5742 22.1348 0.439453 48.9385 0.439453C75.791 0.439453 97.9595 22.5742 97.9595 49.4116ZM43.124 27.0557L24.4897 59.4834C21.5967 64.564 23.6968 69.5366 29.6914 69.5366L68.3843 69.5366C74.3452 69.5366 76.479 64.564 73.5523 59.4834L54.7935 26.9009C52.0772 22.1807 46.1533 21.8188 43.124 27.0557ZM50.3774 30.2764L68.4136 61.5635C69.1592 62.814 68.9453 64.0156 67.2388 64.0156L30.8032 64.0156C29.1152 64.0156 28.8828 62.814 29.6621 61.5635L47.5855 30.2915C48.2485 29.0562 49.7446 29.1201 50.3774 30.2764Z" fill="#000000" fill-opacity="0.85"/>
 </g>
</svg>
