<?xml version="1.0" encoding="UTF-8"?>
<!--Generator: Apple Native CoreSVG 232.5-->
<!DOCTYPE svg
PUBLIC "-//W3C//DTD SVG 1.1//EN"
       "http://www.w3.org/Graphics/SVG/1.1/DTD/svg11.dtd">
<svg version="1.1" xmlns="http://www.w3.org/2000/svg" xmlns:xlink="http://www.w3.org/1999/xlink" width="60.5571" height="100.239">
 <g>
  <rect height="100.239" opacity="0" width="60.5571" x="0" y="0"/>
  <path d="M0 97.312C0 98.9238 1.24805 100.19 3.04835 100.19C31.6792 100.19 54.3408 79.648 54.3408 50.0952C54.3408 36.8926 43.44 25.9917 30.271 25.9917C24.4277 25.9917 19.0777 28.3784 15.2642 32.1909C21.8936 16.1333 38.0967 5.70802 57.4937 5.70802C59.294 5.70802 60.5571 4.44142 60.5571 2.8296C60.5571 1.23291 59.294 0 57.4937 0C28.8779 0 6.25 20.5088 6.25 50.0952C6.25 63.2642 17.1509 74.1651 30.271 74.1651C36.1631 74.1651 41.4795 71.7632 45.2627 67.9995C38.6333 84.042 22.4116 94.4824 3.04835 94.4824C1.24805 94.4824 0 95.7153 0 97.312ZM11.9917 50.0952C11.9917 40.0708 20.2803 31.7822 30.271 31.7822C40.2954 31.7822 48.5991 40.0708 48.5991 50.0952C48.5991 60.0859 40.2954 68.3745 30.271 68.3745C20.2803 68.3745 11.9917 60.0859 11.9917 50.0952ZM23.6904 50.0952C23.6904 53.6802 26.686 56.6758 30.271 56.6758C33.9199 56.6758 36.8516 53.6465 36.8516 50.0952C36.8516 46.4614 33.9199 43.5147 30.271 43.5147C26.686 43.5147 23.6904 46.4614 23.6904 50.0952Z" fill="#000000" fill-opacity="0.85"/>
 </g>
</svg>
