<?xml version="1.0" encoding="UTF-8"?>
<!--Generator: Apple Native CoreSVG 232.5-->
<!DOCTYPE svg
PUBLIC "-//W3C//DTD SVG 1.1//EN"
       "http://www.w3.org/Graphics/SVG/1.1/DTD/svg11.dtd">
<svg version="1.1" xmlns="http://www.w3.org/2000/svg" xmlns:xlink="http://www.w3.org/1999/xlink" width="140.356" height="104.83">
 <g>
  <rect height="104.83" opacity="0" width="140.356" x="0" y="0"/>
  <path d="M13.0391 90.9195L22.4307 90.9195L22.4307 84.8897L13.1519 84.8897C8.44532 84.8897 6.04494 82.4741 6.04494 77.7676L6.04494 15.2544C6.04494 10.5479 8.44532 8.11379 13.1519 8.11379L83.2251 8.11379C87.8223 8.11379 90.3809 10.5479 90.3809 15.2544L90.3809 86.707L96.4107 83.2124L96.4107 15.1231C96.4107 6.62843 91.8965 2.06886 83.3716 2.06886L13.0391 2.06886C4.48047 2.06886 0 6.58302 0 15.1231L0 77.9141C0 86.439 4.48047 90.9195 13.0391 90.9195ZM92.9463 35.1577L109.834 35.1577C112.627 35.1577 114.612 35.7637 116.432 37.7642L132.233 55.5C133.612 57.0103 134.326 59.0762 134.326 60.9702L134.326 77.7676C134.326 82.4741 131.877 84.8897 127.17 84.8897L120.338 84.8897L120.338 90.9195L127.317 90.9195C135.842 90.9195 140.356 86.439 140.356 77.9141L140.356 61.1167C140.356 56.9522 139.529 54.6001 137.131 51.9058L120.53 33.1709C117.921 30.2661 114.774 29.1279 110.322 29.1279L92.9463 29.1279ZM105.224 60.981L128.526 60.981C128.526 59.8242 128.071 59.1895 127.354 58.3745L112.788 42.0171C111.744 40.8941 110.475 40.1768 108.79 40.1768L101.554 40.1768L101.554 57.3452C101.554 59.585 102.984 60.981 105.224 60.981ZM35.3071 104.83C44.2598 104.83 51.5337 97.5562 51.5337 88.5698C51.5337 79.6323 44.2598 72.3584 35.3071 72.3584C26.3359 72.3584 19.0283 79.6323 19.0283 88.5698C19.0283 97.5562 26.3359 104.83 35.3071 104.83ZM35.3071 99.5972C29.2261 99.5972 24.2612 94.666 24.2612 88.5698C24.2612 82.5225 29.2261 77.5576 35.3071 77.5576C41.3696 77.5576 46.3008 82.5225 46.3008 88.5698C46.3008 94.666 41.3696 99.5972 35.3071 99.5972ZM106.304 104.83C115.291 104.83 122.531 97.5562 122.531 88.5698C122.531 79.6323 115.291 72.3584 106.304 72.3584C97.333 72.3584 90.0591 79.6323 90.0591 88.5698C90.0591 97.5562 97.333 104.83 106.304 104.83ZM106.304 99.5972C100.257 99.5972 95.292 94.666 95.292 88.5698C95.292 82.5225 100.257 77.5576 106.304 77.5576C112.333 77.5576 117.298 82.5225 117.298 88.5698C117.298 94.666 112.4 99.5972 106.304 99.5972ZM48.689 90.9195L93.4473 90.9195L93.4473 84.8897L48.689 84.8897Z" fill="#000000" fill-opacity="0.85"/>
 </g>
</svg>
