<?xml version="1.0" encoding="UTF-8"?>
<!--Generator: Apple Native CoreSVG 232.5-->
<!DOCTYPE svg
PUBLIC "-//W3C//DTD SVG 1.1//EN"
       "http://www.w3.org/Graphics/SVG/1.1/DTD/svg11.dtd">
<svg version="1.1" xmlns="http://www.w3.org/2000/svg" xmlns:xlink="http://www.w3.org/1999/xlink" width="183.34" height="114.756">
 <g>
  <rect height="114.756" opacity="0" width="183.34" x="0" y="0"/>
  <path d="M11.4219 84.6281L24.311 84.6281L24.311 78.5831L11.71 78.5831C8.05177 78.5831 6.04494 76.3742 6.04494 72.2697L6.04494 63.027C6.04494 54.9547 10.9424 50.714 22.3433 49.1061L41.7925 46.3209L63.1558 32.9874C72.6992 27.0304 80.4317 25.0939 94.9902 25.0939L114.444 25.0939C119.82 25.0939 122.961 27.9577 123.563 33.3268L125.113 47.6525L170.597 47.6525C175.846 47.6525 177.295 49.0983 177.295 53.4235L177.295 72.2697C177.295 76.3742 175.288 78.5831 171.664 78.5831L151.212 78.5831L151.212 84.6281L171.952 84.6281C179.216 84.6281 183.34 80.3727 183.34 72.9132L183.34 53.4235C183.34 45.7433 178.741 41.6075 170.597 41.6075L130.656 41.6075L129.592 32.4493C128.575 23.629 123.473 19.0489 114.732 19.0489L94.9902 19.0489C79.1919 19.0489 70.417 21.2179 59.9404 27.8268L39.7124 40.4933L21.5601 43.0949C6.85596 45.2047 0 51.6129 0 63.027L0 72.9132C0 80.3727 4.15772 84.6281 11.4219 84.6281ZM48.1348 84.6281L126.564 84.6281L126.564 78.5831L48.1348 78.5831ZM36.0527 95.5944C45.0039 95.5944 51.9951 88.6032 51.9951 79.6671C51.9951 70.716 45.0039 63.7247 36.0527 63.7247C27.1167 63.7247 20.1255 70.716 20.1255 79.6671C20.1255 88.6032 27.1167 95.5944 36.0527 95.5944ZM36.0527 89.5646C30.4819 89.5646 26.1553 85.2379 26.1553 79.6671C26.1553 74.0812 30.4819 69.7545 36.0527 69.7545C41.6387 69.7545 45.9653 74.0812 45.9653 79.6671C45.9653 85.2379 41.6387 89.5646 36.0527 89.5646ZM138.417 95.5944C147.369 95.5944 154.36 88.6032 154.36 79.6671C154.36 70.716 147.369 63.7247 138.417 63.7247C129.481 63.7247 122.475 70.716 122.475 79.6671C122.475 88.6032 129.481 95.5944 138.417 95.5944ZM138.417 89.5646C132.847 89.5646 128.52 85.2379 128.52 79.6671C128.52 74.0812 132.847 69.7545 138.417 69.7545C143.988 69.7545 148.315 74.0812 148.315 79.6671C148.315 85.2379 143.988 89.5646 138.417 89.5646Z" fill="#000000" fill-opacity="0.85"/>
  <path d="M76.4024 92.0988C74.0986 92.0988 73.2178 94.0353 74.3765 95.9215L84.9688 113.346C86.1392 115.275 88.4243 115.177 89.5796 113.346L100.27 95.9064C101.443 94.005 100.48 92.0988 98.2251 92.0988Z" fill="#000000" fill-opacity="0.85"/>
  <path d="M76.4024 71.1124L98.2251 71.1124C100.48 71.1124 101.443 69.2399 100.27 67.3536L89.5796 49.88C88.4243 48.0343 86.1392 47.9855 84.9688 49.88L74.3765 67.2897C73.2178 69.191 74.0986 71.1124 76.4024 71.1124Z" fill="#000000" fill-opacity="0.85"/>
 </g>
</svg>
