<?xml version="1.0" encoding="UTF-8"?>
<!--Generator: Apple Native CoreSVG 232.5-->
<!DOCTYPE svg
PUBLIC "-//W3C//DTD SVG 1.1//EN"
       "http://www.w3.org/Graphics/SVG/1.1/DTD/svg11.dtd">
<svg version="1.1" xmlns="http://www.w3.org/2000/svg" xmlns:xlink="http://www.w3.org/1999/xlink" width="183.34" height="76.6582">
 <g>
  <rect height="76.6582" opacity="0" width="183.34" x="0" y="0"/>
  <path d="M11.4219 66.2227L18.1763 66.2227C17.895 64.8604 17.6812 63.5318 17.6812 62.0869C17.6812 51.8833 25.8828 43.7153 36.0527 43.7153C46.2715 43.7153 54.4243 51.8833 54.4243 62.0869C54.4243 63.5318 54.2593 64.8941 53.978 66.2227L120.541 66.2227C120.211 64.8604 120.046 63.5318 120.046 62.0869C120.046 51.917 128.232 43.7153 138.417 43.7153C148.636 43.7153 156.789 51.8833 156.789 62.0869C156.789 63.5318 156.624 64.8604 156.294 66.2227L171.952 66.2227C179.216 66.2227 183.34 61.9673 183.34 54.5078L183.34 33.731C183.34 27.4053 179.437 23.8457 172.528 23.8457L130.81 23.8457L129.592 13.4004C128.575 4.58008 123.473 0 114.732 0L94.9902 0C79.1919 0 70.417 2.16895 59.9404 8.77784L39.7124 21.4443L21.5601 24.0459C6.85596 26.1558 0 32.564 0 43.978L0 54.5078C0 61.9673 4.15772 66.2227 11.4219 66.2227ZM36.0527 75.4268C43.5435 75.4268 49.4263 69.544 49.4263 62.0869C49.4263 54.645 43.5098 48.7285 36.0527 48.7285C28.6445 48.7285 22.728 54.645 22.728 62.0869C22.728 69.5103 28.6445 75.4268 36.0527 75.4268ZM138.417 75.4268C145.875 75.4268 151.776 69.5103 151.776 62.0869C151.776 54.645 145.875 48.7285 138.417 48.7285C130.994 48.7285 125.059 54.6787 125.059 62.0869C125.059 69.5103 130.96 75.4268 138.417 75.4268Z" fill="#000000" fill-opacity="0.85"/>
 </g>
</svg>
