<?xml version="1.0" encoding="UTF-8"?>
<!--Generator: Apple Native CoreSVG 232.5-->
<!DOCTYPE svg
PUBLIC "-//W3C//DTD SVG 1.1//EN"
       "http://www.w3.org/Graphics/SVG/1.1/DTD/svg11.dtd">
<svg version="1.1" xmlns="http://www.w3.org/2000/svg" xmlns:xlink="http://www.w3.org/1999/xlink" width="183.34" height="140.26">
 <g>
  <rect height="140.26" opacity="0" width="183.34" x="0" y="0"/>
  <path d="M129.592 45.2012L130.656 54.3594L170.597 54.3594C178.741 54.3594 183.34 58.4951 183.34 66.1753L183.34 85.6651C183.34 93.1245 179.216 97.3799 171.952 97.3799L153.594 97.3799C151.561 103.814 145.625 108.346 138.417 108.346C131.223 108.346 125.279 103.814 123.243 97.3799L51.2289 97.3799C49.1963 103.814 43.2598 108.346 36.0527 108.346C28.8578 108.346 22.9237 103.814 20.8916 97.3799L11.4219 97.3799C4.15772 97.3799 0 93.1245 0 85.6651L0 75.7788C0 64.3648 6.85596 57.9565 21.5601 55.8467L39.7124 53.2451L59.9404 40.5786C63.0834 38.596 66.0732 37.0129 69.147 35.7752L69.147 42.4438C67.1763 43.3633 65.2079 44.4583 63.1558 45.7393L41.7925 59.0728L22.3433 61.8579C10.9424 63.4658 6.04494 67.7066 6.04494 75.7788L6.04494 85.0215C6.04494 89.126 8.05177 91.335 11.71 91.335L20.1784 91.335C20.7014 82.9068 27.4827 76.4766 36.0527 76.4766C44.6373 76.4766 51.4192 82.9068 51.9422 91.335L122.528 91.335C123.052 82.9068 129.847 76.4766 138.417 76.4766C147.002 76.4766 153.784 82.9068 154.307 91.335L171.664 91.335C175.288 91.335 177.295 89.126 177.295 85.0215L177.295 66.1753C177.295 61.8501 175.846 60.4043 170.597 60.4043L125.113 60.4043L123.563 46.0786C122.961 40.7095 119.82 37.8457 114.444 37.8457L114.165 37.8457L114.165 31.8008L114.732 31.8008C123.473 31.8008 128.575 36.3809 129.592 45.2012ZM26.1553 92.419C26.1553 97.9898 30.4819 102.316 36.0527 102.316C41.6387 102.316 45.9653 97.9898 45.9653 92.419C45.9653 86.833 41.6387 82.5064 36.0527 82.5064C30.4819 82.5064 26.1553 86.833 26.1553 92.419ZM128.52 92.419C128.52 97.9898 132.847 102.316 138.417 102.316C143.988 102.316 148.315 97.9898 148.315 92.419C148.315 86.833 143.988 82.5064 138.417 82.5064C132.847 82.5064 128.52 86.833 128.52 92.419Z" fill="#000000" fill-opacity="0.85"/>
  <path d="M79.166 20.5776L84.2305 20.544L84.2305 13.437C84.2305 8.13184 87.084 5.06446 91.6314 5.06446C96.2427 5.06446 99.0474 8.13184 99.0474 13.437L99.0474 20.544L104.112 20.5776L104.112 13.7925C104.112 5.52979 99.0806 0 91.6314 0C84.231 0 79.166 5.52979 79.166 13.7925ZM79.6865 47.8901L103.625 47.8901C106.93 47.8901 108.508 46.2451 108.508 42.6655L108.508 23.8379C108.508 20.228 106.93 18.6133 103.625 18.6133L79.6865 18.6133C76.3814 18.6133 74.7886 20.228 74.7886 23.8379L74.7886 42.6655C74.7886 46.2451 76.3814 47.8901 79.6865 47.8901Z" fill="#000000" fill-opacity="0.85"/>
 </g>
</svg>
