<?xml version="1.0" encoding="UTF-8"?>
<!--Generator: Apple Native CoreSVG 232.5-->
<!DOCTYPE svg
PUBLIC "-//W3C//DTD SVG 1.1//EN"
       "http://www.w3.org/Graphics/SVG/1.1/DTD/svg11.dtd">
<svg version="1.1" xmlns="http://www.w3.org/2000/svg" xmlns:xlink="http://www.w3.org/1999/xlink" width="183.34" height="116.043">
 <g>
  <rect height="116.043" opacity="0" width="183.34" x="0" y="0"/>
  <path d="M49.4263 81.7794C49.4263 89.2365 43.5435 95.1193 36.0527 95.1193C28.6445 95.1193 22.728 89.2028 22.728 81.7794C22.728 74.3375 28.6445 68.421 36.0527 68.421C43.5098 68.421 49.4263 74.3375 49.4263 81.7794ZM151.776 81.7794C151.776 89.2028 145.875 95.1193 138.417 95.1193C130.96 95.1193 125.059 89.2028 125.059 81.7794C125.059 74.3712 130.994 68.421 138.417 68.421C145.875 68.421 151.776 74.3375 151.776 81.7794ZM129.592 33.0929L130.81 43.5382L172.528 43.5382C179.437 43.5382 183.34 47.0978 183.34 53.4235L183.34 74.2003C183.34 81.6598 179.216 85.9152 171.952 85.9152L156.294 85.9152C156.624 84.5529 156.789 83.2243 156.789 81.7794C156.789 71.5758 148.636 63.4079 138.417 63.4079C128.232 63.4079 120.046 71.6095 120.046 81.7794C120.046 83.2243 120.211 84.5529 120.541 85.9152L53.978 85.9152C54.2593 84.5866 54.4243 83.2243 54.4243 81.7794C54.4243 71.5758 46.2715 63.4079 36.0527 63.4079C25.8828 63.4079 17.6812 71.5758 17.6812 81.7794C17.6812 83.2243 17.895 84.5529 18.1763 85.9152L11.4219 85.9152C4.15772 85.9152 0 81.6598 0 74.2003L0 63.6705C0 52.2565 6.85596 45.8483 21.5601 43.7384L39.7124 41.1368L59.9404 28.4703C70.417 21.8615 79.1919 19.6925 94.9902 19.6925L114.732 19.6925C123.473 19.6925 128.575 24.2726 129.592 33.0929ZM85.0698 51.8107L74.4775 69.2203C73.3037 71.1217 74.1997 73.0431 76.4883 73.0431L98.3262 73.0431C100.581 73.0431 101.544 71.1705 100.371 69.2843L89.6807 51.8107C88.5254 49.965 86.2402 49.9161 85.0698 51.8107Z" fill="#000000" fill-opacity="0.85"/>
  <path d="M100.371 97.1935L89.6807 114.633C88.5254 116.464 86.2402 116.562 85.0698 114.633L74.4775 97.2086C73.3037 95.3224 74.1997 93.3859 76.4883 93.3859L98.3262 93.3859C100.581 93.3859 101.544 95.2921 100.371 97.1935Z" fill="#000000" fill-opacity="0.85"/>
 </g>
</svg>
