<?xml version="1.0" encoding="UTF-8"?>
<!--Generator: Apple Native CoreSVG 232.5-->
<!DOCTYPE svg
PUBLIC "-//W3C//DTD SVG 1.1//EN"
       "http://www.w3.org/Graphics/SVG/1.1/DTD/svg11.dtd">
<svg version="1.1" xmlns="http://www.w3.org/2000/svg" xmlns:xlink="http://www.w3.org/1999/xlink" width="183.34" height="76.6582">
 <g>
  <rect height="76.6582" opacity="0" width="183.34" x="0" y="0"/>
  <path d="M2.81104 5.91798L17.3169 5.91798C19.396 5.91798 20.7212 6.37257 21.9385 7.58985L39.0151 24.6328L44.2481 21.7578L26.4556 3.93506C23.9868 1.45117 20.8965 0.430661 16.7441 0.430661L2.81104 0.430661C1.09473 0.430661 0 1.52539 0 3.14063C0 4.75587 1.09473 5.91798 2.81104 5.91798ZM11.4219 65.5791L24.311 65.5791L24.311 59.5342L11.71 59.5342C8.05177 59.5342 6.04494 57.3252 6.04494 53.2207L6.04494 43.978C6.04494 35.9058 10.9424 31.6651 22.3433 30.0571L41.7925 27.272L63.1558 13.9385C72.6992 7.98146 80.4317 6.04494 94.9902 6.04494L114.444 6.04494C119.82 6.04494 122.961 8.9087 123.563 14.2778L125.113 28.6035L170.597 28.6035C175.846 28.6035 177.295 30.0493 177.295 34.3745L177.295 53.2207C177.295 57.3252 175.288 59.5342 171.664 59.5342L151.212 59.5342L151.212 65.5791L171.952 65.5791C179.216 65.5791 183.34 61.3237 183.34 53.8643L183.34 34.3745C183.34 26.6943 178.741 22.5586 170.597 22.5586L130.656 22.5586L129.592 13.4004C128.575 4.58008 123.473 0 114.732 0L94.9902 0C79.1919 0 70.417 2.16895 59.9404 8.77784L39.7124 21.4443L21.5601 24.0459C6.85596 26.1558 0 32.564 0 43.978L0 53.8643C0 61.3237 4.15772 65.5791 11.4219 65.5791ZM48.1348 65.5791L126.564 65.5791L126.564 59.5342L48.1348 59.5342ZM36.0527 76.5454C45.0039 76.5454 51.9951 69.5542 51.9951 60.6182C51.9951 51.667 45.0039 44.6758 36.0527 44.6758C27.1167 44.6758 20.1255 51.667 20.1255 60.6182C20.1255 69.5542 27.1167 76.5454 36.0527 76.5454ZM36.0527 70.5156C30.4819 70.5156 26.1553 66.189 26.1553 60.6182C26.1553 55.0322 30.4819 50.7056 36.0527 50.7056C41.6387 50.7056 45.9653 55.0322 45.9653 60.6182C45.9653 66.189 41.6387 70.5156 36.0527 70.5156ZM138.417 76.5454C147.369 76.5454 154.36 69.5542 154.36 60.6182C154.36 51.667 147.369 44.6758 138.417 44.6758C129.481 44.6758 122.475 51.667 122.475 60.6182C122.475 69.5542 129.481 76.5454 138.417 76.5454ZM138.417 70.5156C132.847 70.5156 128.52 66.189 128.52 60.6182C128.52 55.0322 132.847 50.7056 138.417 50.7056C143.988 50.7056 148.315 55.0322 148.315 60.6182C148.315 66.189 143.988 70.5156 138.417 70.5156Z" fill="#000000" fill-opacity="0.85"/>
 </g>
</svg>
