<?xml version="1.0" encoding="UTF-8"?>
<!--Generator: Apple Native CoreSVG 232.5-->
<!DOCTYPE svg
PUBLIC "-//W3C//DTD SVG 1.1//EN"
       "http://www.w3.org/Graphics/SVG/1.1/DTD/svg11.dtd">
<svg version="1.1" xmlns="http://www.w3.org/2000/svg" xmlns:xlink="http://www.w3.org/1999/xlink" width="183.34" height="119.404">
 <g>
  <rect height="119.404" opacity="0" width="183.34" x="0" y="0"/>
  <path d="M91.0132 64.292C87.9902 64.292 85.4624 61.7676 85.4624 58.8609C85.4624 55.9238 87.9414 53.5122 91.0132 53.5122C94.1035 53.5122 96.564 55.9238 96.564 58.8609C96.564 61.7676 94.0698 64.292 91.0132 64.292ZM91.0132 43.0454C89.1284 43.0454 87.813 41.6963 87.7456 39.7593L86.9741 4.02394C86.9067 1.60352 88.5254 0 91.0132 0C93.501 0 95.1382 1.60352 95.0708 4.02394L94.2993 39.7593C94.2471 41.6963 92.8828 43.0454 91.0132 43.0454ZM11.4219 87.5957L18.1763 87.5957C17.895 86.2334 17.6812 84.9048 17.6812 83.46C17.6812 73.2564 25.8828 65.0884 36.0527 65.0884C46.2715 65.0884 54.4243 73.2564 54.4243 83.46C54.4243 84.9048 54.2593 86.2671 53.978 87.5957L120.541 87.5957C120.211 86.2334 120.046 84.9048 120.046 83.46C120.046 73.2901 128.232 65.0884 138.417 65.0884C148.636 65.0884 156.789 73.2564 156.789 83.46C156.789 84.9048 156.624 86.2334 156.294 87.5957L171.952 87.5957C179.216 87.5957 183.34 83.3403 183.34 75.8809L183.34 55.104C183.34 48.7783 179.437 45.2188 172.528 45.2188L130.81 45.2188L129.592 34.7734C128.575 25.9531 123.473 21.373 114.732 21.373L94.9902 21.373C79.1919 21.373 70.417 23.542 59.9404 30.1509L39.7124 42.8174L21.5601 45.4189C6.85596 47.5288 0 53.937 0 65.3511L0 75.8809C0 83.3403 4.15772 87.5957 11.4219 87.5957ZM36.0527 96.7998C43.5435 96.7998 49.4263 90.917 49.4263 83.46C49.4263 76.0181 43.5098 70.1016 36.0527 70.1016C28.6445 70.1016 22.728 76.0181 22.728 83.46C22.728 90.8833 28.6445 96.7998 36.0527 96.7998ZM138.417 96.7998C145.875 96.7998 151.776 90.8833 151.776 83.46C151.776 76.0181 145.875 70.1016 138.417 70.1016C130.994 70.1016 125.059 76.0518 125.059 83.46C125.059 90.8833 130.96 96.7998 138.417 96.7998Z" fill="#000000" fill-opacity="0.85"/>
 </g>
</svg>
