<?xml version="1.0" encoding="UTF-8"?>
<!--Generator: Apple Native CoreSVG 232.5-->
<!DOCTYPE svg
PUBLIC "-//W3C//DTD SVG 1.1//EN"
       "http://www.w3.org/Graphics/SVG/1.1/DTD/svg11.dtd">
<svg version="1.1" xmlns="http://www.w3.org/2000/svg" xmlns:xlink="http://www.w3.org/1999/xlink" width="183.34" height="76.6582">
 <g>
  <rect height="76.6582" opacity="0" width="183.34" x="0" y="0"/>
  <path d="M4.19923 5.91798L18.7051 5.91798C20.7842 5.91798 22.1094 6.37257 23.3267 7.58985L40.4033 24.6328L45.6362 21.7578L27.8438 3.93506C25.375 1.45117 22.2847 0.430661 18.1138 0.430661L4.19923 0.430661C2.48292 0.430661 1.38819 1.52539 1.38819 3.14063C1.38819 4.75587 2.48292 5.91798 4.19923 5.91798ZM11.4219 66.2227L18.1763 66.2227C17.895 64.8604 17.6963 63.5318 17.6963 62.0869C17.6963 51.8833 25.8828 43.7153 36.0679 43.7153C46.2715 43.7153 54.4395 51.8833 54.4395 62.0869C54.4395 63.5318 54.2593 64.8941 53.978 66.2227L120.541 66.2227C120.226 64.8604 120.046 63.5318 120.046 62.0869C120.046 51.917 128.248 43.7153 138.417 43.7153C148.636 43.7153 156.789 51.8833 156.789 62.0869C156.789 63.5318 156.624 64.8604 156.309 66.2227L171.952 66.2227C179.216 66.2227 183.34 61.9673 183.34 54.5078L183.34 33.731C183.34 27.4053 179.452 23.8457 172.543 23.8457L130.825 23.8457L129.607 13.4004C128.59 4.58008 123.473 0 114.732 0L95.0054 0C79.1919 0 70.417 2.16895 59.9404 8.77784L39.7275 21.4443L21.5601 24.0459C6.85596 26.1558 0 32.564 0 43.978L0 54.5078C0 61.9673 4.15772 66.2227 11.4219 66.2227ZM36.0679 75.4268C43.5435 75.4268 49.4263 69.544 49.4263 62.0869C49.4263 54.645 43.5098 48.7285 36.0679 48.7285C28.6445 48.7285 22.728 54.645 22.728 62.0869C22.728 69.5103 28.6445 75.4268 36.0679 75.4268ZM138.417 75.4268C145.875 75.4268 151.791 69.5103 151.791 62.0869C151.791 54.645 145.875 48.7285 138.417 48.7285C131.009 48.7285 125.059 54.6787 125.059 62.0869C125.059 69.5103 130.976 75.4268 138.417 75.4268Z" fill="#000000" fill-opacity="0.85"/>
 </g>
</svg>
