<?xml version="1.0" encoding="UTF-8"?>
<!--Generator: Apple Native CoreSVG 232.5-->
<!DOCTYPE svg
PUBLIC "-//W3C//DTD SVG 1.1//EN"
       "http://www.w3.org/Graphics/SVG/1.1/DTD/svg11.dtd">
<svg version="1.1" xmlns="http://www.w3.org/2000/svg" xmlns:xlink="http://www.w3.org/1999/xlink" width="183.34" height="130.785">
 <g>
  <rect height="130.785" opacity="0" width="183.34" x="0" y="0"/>
  <path d="M129.592 40.4639L130.656 49.6221L170.597 49.6221C178.741 49.6221 183.34 53.7578 183.34 61.438L183.34 80.9278C183.34 88.3872 179.216 92.6426 171.952 92.6426L153.594 92.6426C151.561 99.0767 145.625 103.609 138.417 103.609C131.223 103.609 125.279 99.0767 123.243 92.6426L51.2289 92.6426C49.1963 99.0767 43.2598 103.609 36.0527 103.609C28.8578 103.609 22.9237 99.0767 20.8916 92.6426L11.4219 92.6426C4.15772 92.6426 0 88.3872 0 80.9278L0 71.0415C0 59.6275 6.85596 53.2192 21.5601 51.1094L39.7124 48.5078L59.9404 35.8413C67.4621 31.0964 74.1067 28.6402 83.1164 27.6403L83.2385 33.7217C75.4999 34.6815 69.7617 36.8785 63.1558 41.002L41.7925 54.3355L22.3433 57.1206C10.9424 58.7285 6.04494 62.9693 6.04494 71.0415L6.04494 80.2842C6.04494 84.3887 8.05177 86.5977 11.71 86.5977L20.1784 86.5977C20.7014 78.1695 27.4827 71.7393 36.0527 71.7393C44.6373 71.7393 51.4192 78.1695 51.9422 86.5977L122.528 86.5977C123.052 78.1695 129.847 71.7393 138.417 71.7393C147.002 71.7393 153.784 78.1695 154.307 86.5977L171.664 86.5977C175.288 86.5977 177.295 84.3887 177.295 80.2842L177.295 61.438C177.295 57.1128 175.846 55.667 170.597 55.667L125.113 55.667L123.563 41.3413C122.961 35.9722 119.82 33.1084 114.444 33.1084L101.405 33.1084L101.532 27.0635L114.732 27.0635C123.473 27.0635 128.575 31.6436 129.592 40.4639ZM26.1553 87.6817C26.1553 93.2525 30.4819 97.5791 36.0527 97.5791C41.6387 97.5791 45.9653 93.2525 45.9653 87.6817C45.9653 82.0957 41.6387 77.7691 36.0527 77.7691C30.4819 77.7691 26.1553 82.0957 26.1553 87.6817ZM128.52 87.6817C128.52 93.2525 132.847 97.5791 138.417 97.5791C143.988 97.5791 148.315 93.2525 148.315 87.6817C148.315 82.0957 143.988 77.7691 138.417 77.7691C132.847 77.7691 128.52 82.0957 128.52 87.6817Z" fill="#000000" fill-opacity="0.85"/>
  <path d="M92.3023 68.5606C95.273 68.5606 97.7334 66.1035 97.7334 63.2979C97.7334 60.4131 95.2915 58.0689 92.3023 58.0689C89.3316 58.0689 86.9199 60.4131 86.9199 63.2979C86.9199 66.1035 89.3804 68.5606 92.3023 68.5606ZM92.3023 47.8042C94.1196 47.8042 95.4351 46.4888 95.5025 44.604L96.2403 9.59474C96.3076 7.22657 94.7378 5.69044 92.3023 5.69044C89.9155 5.69044 88.3457 7.22657 88.398 9.59474L89.1509 44.604C89.2031 46.4888 90.5 47.8042 92.3023 47.8042Z" fill="#000000" fill-opacity="0.85"/>
 </g>
</svg>
