<?xml version="1.0" encoding="UTF-8"?>
<!--Generator: Apple Native CoreSVG 232.5-->
<!DOCTYPE svg
PUBLIC "-//W3C//DTD SVG 1.1//EN"
       "http://www.w3.org/Graphics/SVG/1.1/DTD/svg11.dtd">
<svg version="1.1" xmlns="http://www.w3.org/2000/svg" xmlns:xlink="http://www.w3.org/1999/xlink" width="183.34" height="85.4698">
 <g>
  <rect height="85.4698" opacity="0" width="183.34" x="0" y="0"/>
  <path d="M129.592 17.8062L130.656 26.9644L170.597 26.9644C178.741 26.9644 183.34 31.1001 183.34 38.7803L183.34 58.27C183.34 65.7295 179.216 69.9849 171.952 69.9849L153.594 69.9849C151.561 76.419 145.625 80.9512 138.417 80.9512C131.223 80.9512 125.279 76.419 123.243 69.9849L51.2289 69.9849C49.1963 76.419 43.2598 80.9512 36.0527 80.9512C28.8578 80.9512 22.9237 76.419 20.8916 69.9849L11.4219 69.9849C4.15772 69.9849 0 65.7295 0 58.27L0 48.3838C0 36.9697 6.85596 30.5615 21.5601 28.4517L36.6612 26.2874L40.8589 31.8115L22.3433 34.4629C10.9424 36.0708 6.04494 40.3115 6.04494 48.3838L6.04494 57.6265C6.04494 61.731 8.05177 63.94 11.71 63.94L20.1784 63.94C20.7014 55.5118 27.4827 49.0816 36.0527 49.0816C44.6373 49.0816 51.4192 55.5118 51.9422 63.94L122.528 63.94C123.052 55.5118 129.847 49.0816 138.417 49.0816C147.002 49.0816 153.784 55.5118 154.307 63.94L171.664 63.94C175.288 63.94 177.295 61.731 177.295 57.6265L177.295 38.7803C177.295 34.4551 175.846 33.0093 170.597 33.0093L125.113 33.0093L123.563 18.6836C122.961 13.3145 119.82 10.4507 114.444 10.4507L94.9902 10.4507C80.4317 10.4507 72.6992 12.3872 63.1558 18.3443L54.7998 23.5595L51.1012 18.7186L59.9404 13.1836C70.417 6.57472 79.1919 4.40577 94.9902 4.40577L114.732 4.40577C123.473 4.40577 128.575 8.98585 129.592 17.8062ZM26.1553 65.0239C26.1553 70.5947 30.4819 74.9214 36.0527 74.9214C41.6387 74.9214 45.9653 70.5947 45.9653 65.0239C45.9653 59.438 41.6387 55.1114 36.0527 55.1114C30.4819 55.1114 26.1553 59.438 26.1553 65.0239ZM128.52 65.0239C128.52 70.5947 132.847 74.9214 138.417 74.9214C143.988 74.9214 148.315 70.5947 148.315 65.0239C148.315 59.438 143.988 55.1114 138.417 55.1114C132.847 55.1114 128.52 59.438 128.52 65.0239Z" fill="#000000" fill-opacity="0.85"/>
  <path d="M12.1694 11.0767L24.6807 11.0767C29.9038 11.0767 32.227 12.1406 34.8857 15.6143L48.4897 33.584C52.3711 38.6626 56.4985 40.813 62.7441 40.813L72.8623 40.813L72.8623 45.8145C72.8623 48.4756 75.2842 49.2739 77.2783 47.9619L89.4468 40.1577C91.3364 38.9468 91.3701 36.6528 89.398 35.3931L77.312 27.6226C75.2842 26.2769 72.8623 27.0752 72.8623 29.77L72.8623 34.7832L62.7441 34.7832C58.3208 34.7832 56.2231 33.6065 53.2715 29.8062L39.5698 11.9492C35.8013 6.99854 31.4819 5.04688 24.6807 5.04688L12.1694 5.04688C10.5205 5.04688 9.17138 6.396 9.17138 8.04493C9.17138 9.69386 10.5205 11.0767 12.1694 11.0767Z" fill="#000000" fill-opacity="0.85"/>
 </g>
</svg>
