<?xml version="1.0" encoding="UTF-8"?>
<!--Generator: Apple Native CoreSVG 232.5-->
<!DOCTYPE svg
PUBLIC "-//W3C//DTD SVG 1.1//EN"
       "http://www.w3.org/Graphics/SVG/1.1/DTD/svg11.dtd">
<svg version="1.1" xmlns="http://www.w3.org/2000/svg" xmlns:xlink="http://www.w3.org/1999/xlink" width="167.072" height="128.425">
 <g>
  <rect height="128.425" opacity="0" width="167.072" x="0" y="0"/>
  <path d="M39.5251 92.7678L48.5925 87.5563L45.6803 82.5944L36.8639 87.6862C34.6232 88.9758 32.8268 88.3747 31.3722 85.8679L27.7653 79.6222C24.799 74.4758 26.321 70.1794 33.0788 64.8845L45.1315 55.3825L53.9885 38.6554C58.2702 30.55 62.6838 26.298 73.2839 20.2067L85.256 13.2541C88.6706 11.2858 91.5563 11.9474 93.8932 15.0656L100.651 24.3303L131.384 6.57488C133.622 5.31902 135.504 5.8073 136.723 8.00407L144.083 20.6999C145.488 23.2067 145.187 25.0671 142.946 26.36L126.096 36.068L129.008 41.0602L146.03 31.2175C151.198 28.2487 152.317 23.5402 149.314 18.3083L141.737 5.15592C138.787-0.0237687 133.708-1.42318 128.604 1.51529L102.315 16.7712L98.424 11.5085C94.2512 5.77115 88.7262 4.70865 82.6134 8.22477L70.4694 15.2751C58.9294 21.9543 53.7394 26.8732 48.9591 35.9084L40.6564 51.6047L29.6007 60.2595C20.3668 67.4797 18.2672 74.6677 22.7882 82.5192L26.6496 89.1725C29.5998 94.4011 34.342 95.7365 39.5251 92.7678ZM63.7087 78.759L112.752 50.4304L109.754 45.2814L60.7257 73.5612ZM60.5353 90.173C66.7858 86.5207 68.798 78.8776 65.2502 72.7248C61.6803 66.5197 54.0339 64.5075 47.881 68.0588C41.6945 71.6926 39.6149 79.2717 43.1999 85.4431C46.7511 91.5959 54.4279 93.6418 60.5353 90.173ZM57.6164 84.8439C54.3117 86.8102 50.3151 85.78 48.4616 82.4601C46.5441 79.1891 47.5593 75.1589 50.9128 73.2717C54.1501 71.3542 58.1652 72.4518 60.0339 75.7077C61.985 79.0275 60.9362 83.009 57.6164 84.8439ZM124.039 53.5036C130.207 49.9338 132.253 42.257 128.687 36.1008C125.102 29.9479 117.44 27.902 111.333 31.4533C105.131 35.0568 103.085 42.6662 106.67 48.8224C110.221 54.9416 117.816 57.0549 124.039 53.5036ZM121.023 48.2233C117.752 50.1559 113.737 49.1257 111.834 45.8547C109.966 42.5197 110.981 38.5534 114.349 36.6022C117.654 34.7184 121.635 35.8498 123.47 39.0871C125.406 42.4069 124.358 46.3884 121.023 48.2233Z" fill="#000000" fill-opacity="0.85"/>
  <path d="M26.7775 123.18C27.6618 124.679 29.4943 125.095 30.9259 124.33L165.543 46.4601C166.926 45.6432 167.473 43.8898 166.69 42.443C165.76 40.9289 163.879 40.4792 162.511 41.2287L27.8942 119.148C26.5114 119.931 25.964 121.763 26.7775 123.18ZM20.174 98.571L10.8283 82.3566C9.45229 79.9684 6.71205 80.5041 5.85658 82.8737L0.258442 96.8415C-0.492535 98.6013 0.442036 100.14 2.42739 100.474L17.2047 102.613C19.7209 103.017 21.55 100.925 20.174 98.571Z" fill="#000000" fill-opacity="0.85"/>
 </g>
</svg>
