<?xml version="1.0" encoding="UTF-8"?>
<!--Generator: Apple Native CoreSVG 232.5-->
<!DOCTYPE svg
PUBLIC "-//W3C//DTD SVG 1.1//EN"
       "http://www.w3.org/Graphics/SVG/1.1/DTD/svg11.dtd">
<svg version="1.1" xmlns="http://www.w3.org/2000/svg" xmlns:xlink="http://www.w3.org/1999/xlink" width="97.9595" height="97.9932">
 <g>
  <rect height="97.9932" opacity="0" width="97.9595" x="0" y="0"/>
  <path d="M48.9722 97.9443C75.8247 97.9443 97.9595 75.7759 97.9595 48.9722C97.9595 22.1348 75.791 0 48.9385 0C22.1348 0 0 22.1348 0 48.9722C0 75.7759 22.1685 97.9443 48.9722 97.9443ZM48.9722 91.6113C25.3501 91.6113 6.36671 72.5942 6.36671 48.9722C6.36671 25.3501 25.3164 6.31789 48.9385 6.31789C72.5605 6.31789 91.6265 25.3501 91.6265 48.9722C91.6265 72.5942 72.5942 91.6113 48.9722 91.6113Z" fill="#000000" fill-opacity="0.85"/>
  <path d="M48.9536 72.3213C50.4155 72.3213 51.4766 71.3242 51.4766 69.731L51.4766 58.1426L59.8833 54.4165C60.855 53.9551 61.271 53.3286 61.271 52.4663C61.271 51.3262 60.4609 50.5161 59.3208 50.5161C58.8814 50.5161 58.4873 50.6626 58.1421 50.794L51.4766 53.8145L51.4766 48.7822L59.8833 45.0225C60.855 44.5947 61.271 43.9683 61.271 43.106C61.271 41.981 60.5098 41.1221 59.2905 41.1221C58.9756 41.1221 58.627 41.2383 58.2817 41.3696L51.4766 44.4541L51.4766 32.105L63.7031 32.105C65.1616 32.105 66.1738 31.1113 66.1738 29.7168C66.1738 28.3223 65.1616 27.3472 63.7031 27.3472L34.1553 27.3472C32.6816 27.3472 31.6846 28.3223 31.6846 29.7168C31.6846 31.1113 32.6816 32.105 34.1553 32.105L46.3818 32.105L46.3818 46.5762L38.0273 50.2686C37.022 50.7637 36.6245 51.3565 36.6245 52.1851C36.6245 53.3101 37.3857 54.169 38.605 54.169C38.9653 54.169 39.3442 54.0225 39.7046 53.8911L46.3818 50.8706L46.3818 55.9365L38.0273 59.6626C37.022 60.1089 36.6245 60.7168 36.6245 61.5791C36.6245 62.7041 37.3857 63.5293 38.605 63.5293C38.9653 63.5293 39.3442 63.4165 39.7046 63.2515L46.3818 60.2647L46.3818 69.731C46.3818 71.3242 47.458 72.3213 48.9536 72.3213Z" fill="#000000" fill-opacity="0.85"/>
 </g>
</svg>
