<?xml version="1.0" encoding="UTF-8"?>
<!--Generator: Apple Native CoreSVG 232.5-->
<!DOCTYPE svg
PUBLIC "-//W3C//DTD SVG 1.1//EN"
       "http://www.w3.org/Graphics/SVG/1.1/DTD/svg11.dtd">
<svg version="1.1" xmlns="http://www.w3.org/2000/svg" xmlns:xlink="http://www.w3.org/1999/xlink" width="88.4092" height="88.5371">
 <g>
  <rect height="88.5371" opacity="0" width="88.4092" x="0" y="0"/>
  <path d="M14.3936 88.5371L74.0005 88.5371C83.5733 88.5371 88.4092 83.6558 88.4092 74.2632L88.4092 14.4019C88.4092 5.00928 83.5733 0.127929 74.0005 0.127929L14.3936 0.127929C4.86963 0.127929 0 4.93018 0 14.4019L0 74.2632C0 83.7349 4.86963 88.5371 14.3936 88.5371ZM14.5064 82.4922C9.00294 82.4922 6.04494 79.6016 6.04494 73.9634L6.04494 14.7017C6.04494 9.06349 9.00294 6.17287 14.5064 6.17287L73.9028 6.17287C79.2969 6.17287 82.3643 9.06349 82.3643 14.7017L82.3643 73.9634C82.3643 79.6016 79.2969 82.4922 73.9028 82.4922Z" fill="#000000" fill-opacity="0.85"/>
  <path d="M44.2441 67.5933C45.6909 67.5933 46.752 66.5962 46.752 65.0029L46.752 53.4146L55.1587 49.6885C56.1304 49.2271 56.5464 48.6006 56.5464 47.7383C56.5464 46.5982 55.77 45.7881 54.6299 45.7881C54.1904 45.7881 53.7627 45.9346 53.4326 46.0659L46.752 49.0864L46.752 44.0542L55.1587 40.2944C56.1304 39.8667 56.5464 39.2402 56.5464 38.3779C56.5464 37.2529 55.7852 36.394 54.5811 36.394C54.2661 36.394 53.936 36.5103 53.5571 36.6416L46.752 39.7261L46.752 27.377L58.9785 27.377C60.4522 27.377 61.4644 26.3833 61.4644 24.9888C61.4644 23.5942 60.4522 22.6191 58.9785 22.6191L29.4458 22.6191C27.9722 22.6191 26.96 23.5942 26.96 24.9888C26.96 26.3833 27.9722 27.377 29.4458 27.377L41.6572 27.377L41.6572 41.8481L33.3027 45.5405C32.2974 46.0357 31.915 46.6284 31.915 47.457C31.915 48.582 32.6763 49.4409 33.8804 49.4409C34.2407 49.4409 34.6196 49.2944 35.0137 49.1631L41.6572 46.1426L41.6572 51.2085L33.3027 54.9346C32.2974 55.3809 31.915 55.9888 31.915 56.8511C31.915 57.9761 32.6763 58.8013 33.8804 58.8013C34.2407 58.8013 34.6196 58.6885 35.0137 58.5235L41.6572 55.5366L41.6572 65.0029C41.6572 66.5962 42.7485 67.5933 44.2441 67.5933Z" fill="#000000" fill-opacity="0.85"/>
 </g>
</svg>
