<?xml version="1.0" encoding="UTF-8"?>
<!--Generator: Apple Native CoreSVG 232.5-->
<!DOCTYPE svg
PUBLIC "-//W3C//DTD SVG 1.1//EN"
       "http://www.w3.org/Graphics/SVG/1.1/DTD/svg11.dtd">
<svg version="1.1" xmlns="http://www.w3.org/2000/svg" xmlns:xlink="http://www.w3.org/1999/xlink" width="66.249" height="89.3994">
 <g>
  <rect height="89.3994" opacity="0" width="66.249" x="0" y="0"/>
  <path d="M0 4.98048C0 6.86867 1.4502 8.15041 3.33839 8.15041L29.6025 8.15041L29.6025 85.9263C29.6025 87.8633 31.1875 89.3994 33.1245 89.3994C35.0767 89.3994 36.6128 87.8633 36.6128 85.9263L36.6128 8.15041L62.9258 8.15041C64.7803 8.15041 66.249 6.86867 66.249 4.98048C66.249 3.09229 64.7803 1.81055 62.9258 1.81055L3.33839 1.81055C1.4502 1.81055 0 3.09229 0 4.98048ZM12.3589 47.1719C9.42334 48.3828 11.2676 52.9859 14.4019 51.7261L53.875 35.1148C56.6387 33.9746 55.251 29.1509 51.6113 30.6953ZM12.3589 65.9224C9.42334 67.1333 11.2676 71.77 14.4019 70.5103L53.875 53.8653C56.6387 52.7251 55.251 47.9199 51.6113 49.4307Z" fill="#000000" fill-opacity="0.85"/>
 </g>
</svg>
