<?xml version="1.0" encoding="UTF-8"?>
<!--Generator: Apple Native CoreSVG 232.5-->
<!DOCTYPE svg
PUBLIC "-//W3C//DTD SVG 1.1//EN"
       "http://www.w3.org/Graphics/SVG/1.1/DTD/svg11.dtd">
<svg version="1.1" xmlns="http://www.w3.org/2000/svg" xmlns:xlink="http://www.w3.org/1999/xlink" width="97.9595" height="97.9932">
 <g>
  <rect height="97.9932" opacity="0" width="97.9595" x="0" y="0"/>
  <path d="M97.9595 48.9722C97.9595 75.7759 75.8247 97.9443 48.9722 97.9443C22.1685 97.9443 0 75.7759 0 48.9722C0 22.1348 22.1348 0 48.9385 0C75.791 0 97.9595 22.1348 97.9595 48.9722ZM33.8672 26.9058C32.3599 26.9058 31.3291 27.8994 31.3291 29.3276C31.3291 30.7559 32.3599 31.7832 33.8672 31.7832L46.3481 31.7832L46.3481 46.5425L37.7915 50.3023C36.7861 50.8159 36.3701 51.4238 36.3701 52.271C36.3701 53.4448 37.165 54.3223 38.4028 54.3223C38.7783 54.3223 39.1758 54.1909 39.5361 54.0108L46.3481 50.9717L46.3481 56.0899L37.7915 59.917C36.7861 60.3784 36.3701 61.0049 36.3701 61.8672C36.3701 63.0259 37.165 63.8696 38.4028 63.8696C38.7783 63.8696 39.1758 63.772 39.5361 63.5918L46.3481 60.5528L46.3481 70.1724C46.3481 71.7993 47.458 72.8452 48.9873 72.8452C50.4829 72.8452 51.5776 71.7993 51.5776 70.1724L51.5776 58.3633L60.1714 54.585C61.1431 54.0899 61.5928 53.4634 61.5928 52.5674C61.5928 51.3936 60.749 50.5498 59.5752 50.5498C59.1358 50.5498 58.7417 50.6963 58.3628 50.8613L51.5776 53.9155L51.5776 48.8159L60.1714 44.9702C61.1431 44.5425 61.5928 43.8672 61.5928 43.02C61.5928 41.8462 60.7979 40.9688 59.5601 40.9688C59.23 40.9688 58.8814 41.085 58.5025 41.2012L51.5776 44.353L51.5776 31.7832L64.0586 31.7832C65.5508 31.7832 66.5967 30.7559 66.5967 29.3276C66.5967 27.8994 65.5508 26.9058 64.0586 26.9058Z" fill="#000000" fill-opacity="0.85"/>
 </g>
</svg>
