<?xml version="1.0" encoding="UTF-8"?>
<!--Generator: Apple Native CoreSVG 232.5-->
<!DOCTYPE svg
PUBLIC "-//W3C//DTD SVG 1.1//EN"
       "http://www.w3.org/Graphics/SVG/1.1/DTD/svg11.dtd">
<svg version="1.1" xmlns="http://www.w3.org/2000/svg" xmlns:xlink="http://www.w3.org/1999/xlink" width="101.035" height="101.378">
 <g>
  <rect height="101.378" opacity="0" width="101.035" x="0" y="0"/>
  <path d="M26.6941 50.9097L26.6336 69.4004L6.84013 89.2124L12.1272 94.4658L31.7 74.9722L50.6658 74.8477C53.9725 74.8325 57.2928 73.7852 59.8602 71.2515L99.9417 31.5591C101.441 30.0601 101.358 27.7222 99.9417 26.2568C98.5218 24.773 96.0745 24.7881 94.6546 26.272L55.7117 65.415C54.0838 67.0093 52.0569 68.021 49.6614 68.021L34.5096 68.021L33.9588 67.3843L33.9588 51.5552C33.9588 49.1445 34.9217 47.0689 36.5159 45.4746L75.2884 6.90578C76.7386 5.43703 76.6746 3.03858 75.2884 1.55469C73.8533 0.11963 71.4212 0.101075 70.0013 1.61866L30.3543 41.7153C27.7044 44.3838 26.743 47.5845 26.6941 50.9097ZM7.96074 101.378C12.3577 101.378 15.9295 97.7573 15.9295 93.4092C15.9295 88.9668 12.3577 85.3613 7.9456 85.4253C3.56718 85.4404 0.0105338 88.9668 0.0105338 93.4092C0.0105338 97.7573 3.56718 101.378 7.96074 101.378Z" fill="#000000" fill-opacity="0.85"/>
 </g>
</svg>
