<?xml version="1.0" encoding="UTF-8"?>
<!--Generator: Apple Native CoreSVG 232.5-->
<!DOCTYPE svg
PUBLIC "-//W3C//DTD SVG 1.1//EN"
       "http://www.w3.org/Graphics/SVG/1.1/DTD/svg11.dtd">
<svg version="1.1" xmlns="http://www.w3.org/2000/svg" xmlns:xlink="http://www.w3.org/1999/xlink" width="97.9595" height="97.9932">
 <g>
  <rect height="97.9932" opacity="0" width="97.9595" x="0" y="0"/>
  <path d="M97.9595 48.9722C97.9595 75.7759 75.8247 97.9443 48.9722 97.9443C22.1685 97.9443 0 75.7759 0 48.9722C0 22.1348 22.1348 0 48.9385 0C75.791 0 97.9595 22.1348 97.9595 48.9722ZM40.1416 28.8765L40.1416 38.5688L34.1089 41.2324C33.1152 41.6299 32.7329 42.2261 32.7329 43.186C32.7329 44.3599 33.543 45.1699 34.7168 45.1699C35.0806 45.1699 35.3804 45.0874 35.7896 44.9072L40.1416 43.0015L40.1416 48.1348L34.1089 50.731C33.1152 51.1621 32.7329 51.7583 32.7329 52.6846C32.7329 53.8584 33.543 54.7022 34.7168 54.7022C35.0806 54.7022 35.3804 54.6196 35.7896 54.4732L40.1416 52.5337L40.1416 68.773C40.1416 70.5835 41.2852 71.8989 43.5303 71.8989C56.8062 71.8989 65.1778 61.4907 65.1778 52.333C65.1778 50.7061 64.2783 49.645 62.7896 49.645C61.4356 49.645 60.5361 50.4517 60.3003 52.2808C59.6904 59.8355 53.4292 66.7671 45.1201 66.7671L45.1201 50.4453L56.0117 45.7481C56.9717 45.3355 57.354 44.7207 57.354 43.813C57.354 42.6392 56.5776 41.7954 55.4038 41.7954C55.0249 41.7954 54.6914 41.8931 54.3311 42.0244L45.1201 46.0464L45.1201 40.9131L56.0117 36.2495C56.9717 35.7695 57.354 35.207 57.354 34.2808C57.354 33.1221 56.5776 32.2295 55.4038 32.2295C55.0249 32.2295 54.6914 32.3608 54.3311 32.5259L45.1201 36.5142L45.1201 28.8765C45.1201 27.2192 44.1416 26.2036 42.6646 26.2036C41.1201 26.2036 40.1416 27.2192 40.1416 28.8765Z" fill="#000000" fill-opacity="0.85"/>
 </g>
</svg>
