<?xml version="1.0" encoding="UTF-8"?>
<!--Generator: Apple Native CoreSVG 232.5-->
<!DOCTYPE svg
PUBLIC "-//W3C//DTD SVG 1.1//EN"
       "http://www.w3.org/Graphics/SVG/1.1/DTD/svg11.dtd">
<svg version="1.1" xmlns="http://www.w3.org/2000/svg" xmlns:xlink="http://www.w3.org/1999/xlink" width="97.9595" height="97.9932">
 <g>
  <rect height="97.9932" opacity="0" width="97.9595" x="0" y="0"/>
  <path d="M48.9722 97.9443C75.8247 97.9443 97.9595 75.7759 97.9595 48.9722C97.9595 22.1348 75.791 0 48.9385 0C22.1348 0 0 22.1348 0 48.9722C0 75.7759 22.1685 97.9443 48.9722 97.9443ZM48.9722 91.6113C25.3501 91.6113 6.36671 72.5942 6.36671 48.9722C6.36671 25.3501 25.3164 6.31789 48.9385 6.31789C72.5605 6.31789 91.6265 25.3501 91.6265 48.9722C91.6265 72.5942 72.5942 91.6113 48.9722 91.6113Z" fill="#000000" fill-opacity="0.85"/>
  <path d="M43.5977 71.4238C56.5855 71.4238 64.7886 61.2363 64.7886 52.2808C64.7886 50.6724 63.8892 49.645 62.4678 49.645C61.1475 49.645 60.2666 50.4517 60.0459 52.2134C59.4697 59.5996 53.3096 66.4116 45.1538 66.4116L45.1538 50.4116L55.8433 45.8003C56.7695 45.4028 57.167 44.8066 57.167 43.9141C57.167 42.7739 56.3755 41.9639 55.2505 41.9639C54.9053 41.9639 54.5718 42.0464 54.2114 42.1777L45.1538 46.1323L45.1538 41.1001L55.8433 36.5039C56.7695 36.0576 57.167 35.5103 57.167 34.6025C57.167 33.4624 56.3755 32.6187 55.2505 32.6187C54.9053 32.6187 54.5718 32.7349 54.2114 32.8813L45.1538 36.8022L45.1538 29.2993C45.1538 27.6758 44.209 26.6938 42.7505 26.6938C41.2734 26.6938 40.3286 27.6758 40.3286 29.2993L40.3286 38.8232L34.397 41.4194C33.437 41.832 33.0547 42.3794 33.0547 43.3208C33.0547 44.4458 33.8647 45.271 35.0049 45.271C35.3501 45.271 35.6499 45.1885 36.0439 45.0083L40.3286 43.1362L40.3286 48.1685L34.397 50.731C33.437 51.1284 33.0547 51.7246 33.0547 52.6172C33.0547 53.7573 33.8647 54.5674 35.0049 54.5674C35.3501 54.5674 35.6499 54.4849 36.0439 54.3535L40.3286 52.4326L40.3286 68.3838C40.3286 70.1607 41.4536 71.4238 43.5977 71.4238Z" fill="#000000" fill-opacity="0.85"/>
 </g>
</svg>
