<?xml version="1.0" encoding="UTF-8"?>
<!--Generator: Apple Native CoreSVG 232.5-->
<!DOCTYPE svg
PUBLIC "-//W3C//DTD SVG 1.1//EN"
       "http://www.w3.org/Graphics/SVG/1.1/DTD/svg11.dtd">
<svg version="1.1" xmlns="http://www.w3.org/2000/svg" xmlns:xlink="http://www.w3.org/1999/xlink" width="88.4092" height="88.5371">
 <g>
  <rect height="88.5371" opacity="0" width="88.4092" x="0" y="0"/>
  <path d="M88.4092 14.4019L88.4092 74.2632C88.4092 83.6558 83.5733 88.5371 74.0005 88.5371L14.3936 88.5371C4.86963 88.5371 0 83.7349 0 74.2632L0 14.4019C0 4.93018 4.86963 0.127929 14.3936 0.127929L74.0005 0.127929C83.5733 0.127929 88.4092 5.00928 88.4092 14.4019ZM35.3984 24.1484L35.3984 33.8408L29.3657 36.5044C28.3721 36.9019 28.0083 37.498 28.0083 38.458C28.0083 39.6318 28.7998 40.4419 29.9585 40.4419C30.3374 40.4419 30.6372 40.3594 31.0313 40.1792L35.3984 38.2734L35.3984 43.4067L29.3657 46.0029C28.3721 46.4341 28.0083 47.0303 28.0083 47.9565C28.0083 49.1304 28.7998 49.9741 29.9585 49.9741C30.3374 49.9741 30.6372 49.8916 31.0313 49.7451L35.3984 47.8057L35.3984 64.0449C35.3984 65.8555 36.542 67.1709 38.772 67.1709C52.063 67.1709 60.4346 56.7627 60.4346 47.605C60.4346 45.978 59.5689 44.917 58.0464 44.917C56.6773 44.917 55.7778 45.7236 55.5571 47.5527C54.9473 55.1074 48.686 62.0391 40.3618 62.0391L40.3618 45.7173L51.2534 41.02C52.2134 40.6074 52.6108 39.9927 52.6108 39.085C52.6108 37.9111 51.8193 37.0674 50.6606 37.0674C50.2817 37.0674 49.9482 37.165 49.5879 37.2964L40.3618 41.3184L40.3618 36.1851L51.2534 31.5215C52.2134 31.0415 52.6108 30.479 52.6108 29.5527C52.6108 28.394 51.8193 27.5015 50.6606 27.5015C50.2817 27.5015 49.9482 27.6328 49.5879 27.7978L40.3618 31.7861L40.3618 24.1484C40.3618 22.4912 39.3833 21.4756 37.9063 21.4756C36.3618 21.4756 35.3984 22.4912 35.3984 24.1484Z" fill="#000000" fill-opacity="0.85"/>
 </g>
</svg>
