<?xml version="1.0" encoding="UTF-8"?>
<!--Generator: Apple Native CoreSVG 232.5-->
<!DOCTYPE svg
PUBLIC "-//W3C//DTD SVG 1.1//EN"
       "http://www.w3.org/Graphics/SVG/1.1/DTD/svg11.dtd">
<svg version="1.1" xmlns="http://www.w3.org/2000/svg" xmlns:xlink="http://www.w3.org/1999/xlink" width="107.333" height="97.9932">
 <g>
  <rect height="97.9932" opacity="0" width="107.333" x="0" y="0"/>
  <path d="M58.3575 97.9443C85.1612 97.9443 107.33 75.7759 107.33 48.9722C107.33 22.1348 85.1612 0 58.3575 0C31.5201 0 9.38533 22.1011 9.38533 48.9385L15.7032 48.9385C15.7032 25.3164 34.7354 6.35158 58.3575 6.35158C81.9796 6.35158 101.012 25.3501 101.012 48.9722C101.012 72.5942 81.9796 91.6787 58.3575 91.6113C43.5182 91.5928 30.6148 84.0068 22.9474 72.5923C21.8121 71.0444 20.047 70.561 18.4806 71.479C16.9967 72.397 16.5655 74.4165 17.8018 76.0655C26.943 89.0161 41.5392 97.9443 58.3575 97.9443ZM2.84969 40.0024C7.79875e-05 40.0024-0.788009 41.9561 0.828693 44.2666L11.4786 59.4307C12.8326 61.3438 14.7677 61.3101 16.1031 59.4307L26.753 44.2329C28.336 41.9561 27.5479 40.0024 24.7169 40.0024Z" fill="#000000" fill-opacity="0.85"/>
  <path d="M53.0167 71.4238C65.9708 71.4238 74.2076 61.2363 74.2076 52.2808C74.2076 50.6724 73.3082 49.645 71.8531 49.645C70.5328 49.645 69.6856 50.4517 69.4649 52.2134C68.8888 59.5996 62.7286 66.4116 54.5728 66.4116L54.5728 50.4116L65.2286 45.8003C66.1886 45.4028 66.586 44.8066 66.586 43.9141C66.586 42.7739 65.7945 41.9639 64.6358 41.9639C64.2906 41.9639 63.9908 42.0464 63.5968 42.1777L54.5728 46.1323L54.5728 41.1001L65.2286 36.5039C66.1886 36.0576 66.586 35.5103 66.586 34.6025C66.586 33.4624 65.7945 32.6187 64.6358 32.6187C64.2906 32.6187 63.9908 32.7349 63.5968 32.8813L54.5728 36.8022L54.5728 29.2993C54.5728 27.6758 53.628 26.6938 52.1358 26.6938C50.6925 26.6938 49.7476 27.6758 49.7476 29.2993L49.7476 38.8232L43.7823 41.4194C42.856 41.832 42.4737 42.3794 42.4737 43.3208C42.4737 44.4458 43.2501 45.271 44.3902 45.271C44.7354 45.271 45.0689 45.1885 45.4293 45.0083L49.7476 43.1362L49.7476 48.1685L43.7823 50.731C42.856 51.1284 42.4737 51.7246 42.4737 52.6172C42.4737 53.7573 43.2501 54.5674 44.3902 54.5674C44.7354 54.5674 45.0689 54.4849 45.4293 54.3535L49.7476 52.4326L49.7476 68.3838C49.7476 70.1607 50.8389 71.4238 53.0167 71.4238Z" fill="#000000" fill-opacity="0.85"/>
 </g>
</svg>
