<?xml version="1.0" encoding="UTF-8"?>
<!--Generator: Apple Native CoreSVG 232.5-->
<!DOCTYPE svg
PUBLIC "-//W3C//DTD SVG 1.1//EN"
       "http://www.w3.org/Graphics/SVG/1.1/DTD/svg11.dtd">
<svg version="1.1" xmlns="http://www.w3.org/2000/svg" xmlns:xlink="http://www.w3.org/1999/xlink" width="145.554" height="116.819">
 <g>
  <rect height="116.819" opacity="0" width="145.554" x="0" y="0"/>
  <path d="M62.958 101.709C62.958 103.013 63.0646 104.233 63.2728 105.363L41.0869 105.363C39.4229 105.363 38.0737 104.044 38.0737 102.332C38.0737 100.634 39.4229 99.2998 41.0869 99.2998L62.958 99.2998ZM124.579 22.7871L124.579 69.1485L77.9673 69.1485C69.0596 69.1485 62.958 74.4238 62.958 83.648L62.958 90.4756L17.0855 90.4756C9.58692 90.4756 5.65675 86.6802 5.65675 79.062L5.65675 22.7871C5.65675 15.169 9.58692 11.3584 17.0855 11.3584L113.199 11.3584C120.697 11.3584 124.579 15.169 124.579 22.7871Z" fill="#000000" fill-opacity="0.425"/>
  <path d="M77.9673 111.129L130.544 111.129C136.714 111.129 139.897 107.965 139.897 101.709L139.897 84.2588C139.897 77.9693 136.714 74.8052 130.544 74.8052L77.9673 74.8052C71.7114 74.8052 68.6148 77.9693 68.6148 83.648L68.6148 101.709C68.6148 107.965 71.7114 111.129 77.9673 111.129ZM124.563 95.1143C121.649 95.1143 119.322 92.7871 119.322 89.8741C119.322 87.0401 121.649 84.7315 124.563 84.7315C127.363 84.7315 129.705 87.0401 129.705 89.8741C129.705 92.7871 127.363 95.1143 124.563 95.1143Z" fill="#000000" fill-opacity="0.85"/>
 </g>
</svg>
