<?xml version="1.0" encoding="UTF-8"?>
<!--Generator: Apple Native CoreSVG 232.5-->
<!DOCTYPE svg
PUBLIC "-//W3C//DTD SVG 1.1//EN"
       "http://www.w3.org/Graphics/SVG/1.1/DTD/svg11.dtd">
<svg version="1.1" xmlns="http://www.w3.org/2000/svg" xmlns:xlink="http://www.w3.org/1999/xlink" width="97.9595" height="97.9932">
 <g>
  <rect height="97.9932" opacity="0" width="97.9595" x="0" y="0"/>
  <path d="M48.9722 97.9443C75.8247 97.9443 97.9595 75.7759 97.9595 48.9722C97.9595 22.1348 75.791 0 48.9385 0C22.1348 0 0 22.1348 0 48.9722C0 75.7759 22.1685 97.9443 48.9722 97.9443ZM48.9722 91.6113C25.3501 91.6113 6.36671 72.5942 6.36671 48.9722C6.36671 25.3501 25.3164 6.31789 48.9385 6.31789C72.5605 6.31789 91.6265 25.3501 91.6265 48.9722C91.6265 72.5942 72.5942 91.6113 48.9722 91.6113Z" fill="#000000" fill-opacity="0.85"/>
  <path d="M26.4732 65.7407L71.3516 65.7407C75.0225 65.7407 77.6763 63.1543 77.6763 59.438L77.6763 33.6104C77.6763 29.9092 75.0225 27.2739 71.3516 27.2739L26.4732 27.2739C22.8023 27.2739 20.1821 29.9092 20.1821 33.6104L20.1821 59.438C20.1821 63.1543 22.8023 65.7407 26.4732 65.7407ZM26.8623 61.6416C25.438 61.6416 24.4497 60.623 24.4497 59.1499L24.4497 33.8984C24.4497 32.3916 25.438 31.3731 26.8623 31.3731L70.9961 31.3731C72.4204 31.3731 73.4087 32.3916 73.4087 33.8984L73.4087 59.1499C73.4087 60.623 72.4204 61.6416 70.9961 61.6416ZM35.7471 75.3804L62.2124 75.3804C63.3374 75.3804 64.2788 74.4878 64.2788 73.3477C64.2788 72.2075 63.3374 71.2813 62.2124 71.2813L35.7471 71.2813C34.6069 71.2813 33.6807 72.2075 33.6807 73.3477C33.6807 74.4878 34.6069 75.3804 35.7471 75.3804Z" fill="#000000" fill-opacity="0.85"/>
 </g>
</svg>
