<?xml version="1.0" encoding="UTF-8"?>
<!--Generator: Apple Native CoreSVG 232.5-->
<!DOCTYPE svg
PUBLIC "-//W3C//DTD SVG 1.1//EN"
       "http://www.w3.org/Graphics/SVG/1.1/DTD/svg11.dtd">
<svg version="1.1" xmlns="http://www.w3.org/2000/svg" xmlns:xlink="http://www.w3.org/1999/xlink" width="118.922" height="94.1026">
 <g>
  <rect height="94.1026" opacity="0" width="118.922" x="0" y="0"/>
  <path d="M11.4136 79.1172L107.508 79.1172C115.025 79.1172 118.922 75.3218 118.922 67.7036L118.922 11.4287C118.922 3.81055 115.025 0 107.508 0L11.4136 0C3.93018 0 0 3.81055 0 11.4287L0 67.7036C0 75.3218 3.93018 79.1172 11.4136 79.1172ZM35.4302 94.0049L83.4917 94.0049C85.1709 94.0049 86.5537 92.6861 86.5537 90.9732C86.5537 89.2754 85.1709 87.9414 83.4917 87.9414L35.4302 87.9414C33.7661 87.9414 32.3682 89.2754 32.3682 90.9732C32.3682 92.6861 33.7661 94.0049 35.4302 94.0049Z" fill="#000000" fill-opacity="0.85"/>
 </g>
</svg>
