<?xml version="1.0" encoding="UTF-8"?>
<!--Generator: Apple Native CoreSVG 232.5-->
<!DOCTYPE svg
PUBLIC "-//W3C//DTD SVG 1.1//EN"
       "http://www.w3.org/Graphics/SVG/1.1/DTD/svg11.dtd">
<svg version="1.1" xmlns="http://www.w3.org/2000/svg" xmlns:xlink="http://www.w3.org/1999/xlink" width="118.922" height="121.39">
 <g>
  <rect height="121.39" opacity="0" width="118.922" x="0" y="0"/>
  <path d="M86.5537 104.617C86.5537 106.33 85.1709 107.648 83.4917 107.648L35.4302 107.648C33.7661 107.648 32.3682 106.33 32.3682 104.617C32.3682 102.919 33.7661 101.585 35.4302 101.585L83.4917 101.585C85.1709 101.585 86.5537 102.919 86.5537 104.617ZM7.22412 14.6689L85.2107 92.7607L11.4136 92.7607C3.93018 92.7607 0 88.9653 0 81.3471L0 25.0722C0 19.1998 2.33529 15.5899 6.84269 14.2537ZM118.922 25.0722L118.922 81.3471C118.922 88.3107 115.666 92.0802 109.356 92.6662L30.4683 13.6435L107.508 13.6435C115.025 13.6435 118.922 17.4541 118.922 25.0722Z" fill="#000000" fill-opacity="0.85"/>
  <path d="M103.562 103.096C104.693 104.228 106.526 104.228 107.688 103.096C108.816 101.949 108.82 100.102 107.688 98.9546L15.3604 6.55122C14.2774 5.43452 12.4111 5.34028 11.2002 6.55122C10.102 7.6645 10.102 9.57955 11.2002 10.6777Z" fill="#000000" fill-opacity="0.85"/>
 </g>
</svg>
