<?xml version="1.0" encoding="UTF-8"?>
<!--Generator: Apple Native CoreSVG 232.5-->
<!DOCTYPE svg
PUBLIC "-//W3C//DTD SVG 1.1//EN"
       "http://www.w3.org/Graphics/SVG/1.1/DTD/svg11.dtd">
<svg version="1.1" xmlns="http://www.w3.org/2000/svg" xmlns:xlink="http://www.w3.org/1999/xlink" width="88.4092" height="88.5371">
 <g>
  <rect height="88.5371" opacity="0" width="88.4092" x="0" y="0"/>
  <path d="M88.4092 14.4019L88.4092 74.2632C88.4092 83.6558 83.5733 88.5371 74.0005 88.5371L14.3936 88.5371C4.86963 88.5371 0 83.7349 0 74.2632L0 14.4019C0 4.93018 4.86963 0.127929 14.3936 0.127929L74.0005 0.127929C83.5733 0.127929 88.4092 5.00928 88.4092 14.4019ZM57.3071 23.6909L44.3604 59.7798L44.0488 59.7798L31.1206 23.6909C30.457 21.813 29.5239 21.0264 27.8076 21.0264C25.9937 21.0264 24.6597 22.2593 24.6597 23.9756C24.6597 24.5415 24.7759 25.0366 24.9897 25.6514L39.5132 63.6064C40.5137 66.1768 41.792 67.2529 44.2476 67.2529C46.5684 67.2529 47.9966 66.0269 48.9483 63.5391L63.4531 25.6514C63.6519 25.0064 63.7344 24.5415 63.7344 23.9756C63.7344 22.1953 62.4341 21.0264 60.6201 21.0264C58.9038 21.0264 57.9707 21.8433 57.3071 23.6909Z" fill="#000000" fill-opacity="0.85"/>
 </g>
</svg>
