<?xml version="1.0" encoding="UTF-8"?>
<!--Generator: Apple Native CoreSVG 232.5-->
<!DOCTYPE svg
PUBLIC "-//W3C//DTD SVG 1.1//EN"
       "http://www.w3.org/Graphics/SVG/1.1/DTD/svg11.dtd">
<svg version="1.1" xmlns="http://www.w3.org/2000/svg" xmlns:xlink="http://www.w3.org/1999/xlink" width="97.9595" height="97.9932">
 <g>
  <rect height="97.9932" opacity="0" width="97.9595" x="0" y="0"/>
  <path d="M97.9595 49.021C97.9595 75.8584 75.8247 97.9932 48.9722 97.9932C22.1685 97.9932 0 75.8584 0 49.021C0 22.2173 22.1348 0.0488281 48.9385 0.0488281C75.791 0.0488281 97.9595 22.2173 97.9595 49.021ZM22.6812 22.6812C21.9082 23.4878 21.9385 24.7105 22.6812 25.4194L72.5771 75.3457C73.3013 76.0547 74.5728 76.085 75.3154 75.3457C76.0732 74.5054 76.0732 73.3501 75.3154 72.6074L25.4194 22.6812C24.6768 21.9385 23.4727 21.9385 22.6812 22.6812ZM20.8462 37.0308L20.8462 61.0332C20.8462 65.9649 23.7188 68.8037 28.7329 68.8037L55.0566 68.8037C57.1193 68.8037 58.8172 68.3175 60.0922 67.3908L23.5016 30.7891C21.7987 32.1062 20.8462 34.2259 20.8462 37.0308ZM74.9844 34.3315L65.6055 42.1397L65.6055 55.8755L74.9844 63.7139C75.833 64.4346 76.7676 64.874 77.6465 64.874C79.3389 64.874 80.5025 63.6582 80.5025 61.6611L80.5025 36.3691C80.5025 34.4209 79.3389 33.1899 77.6465 33.1899C76.7676 33.1899 75.7656 33.6294 74.9844 34.3315ZM36.4828 29.2266L62.8945 55.6285L62.8945 37.0308C62.8945 32.0469 60.2427 29.2266 55.21 29.2266Z" fill="#000000" fill-opacity="0.85"/>
 </g>
</svg>
