<?xml version="1.0" encoding="UTF-8"?>
<!--Generator: Apple Native CoreSVG 232.5-->
<!DOCTYPE svg
PUBLIC "-//W3C//DTD SVG 1.1//EN"
       "http://www.w3.org/Graphics/SVG/1.1/DTD/svg11.dtd">
<svg version="1.1" xmlns="http://www.w3.org/2000/svg" xmlns:xlink="http://www.w3.org/1999/xlink" width="88.4092" height="88.5371">
 <g>
  <rect height="88.5371" opacity="0" width="88.4092" x="0" y="0"/>
  <path d="M88.4092 14.4019L88.4092 74.2632C88.4092 83.6558 83.5733 88.5371 74.0005 88.5371L14.3936 88.5371C4.86963 88.5371 0 83.7349 0 74.2632L0 14.4019C0 4.93018 4.86963 0.127929 14.3936 0.127929L74.0005 0.127929C83.5733 0.127929 88.4092 5.00928 88.4092 14.4019ZM23.9897 24.4497C19.1289 24.4497 16.0879 27.2549 16.0879 32.2539L16.0879 56.2227C16.0879 61.188 19.0093 64.0269 23.9897 64.0269L50.2983 64.0269C55.2974 64.0269 58.1699 61.188 58.1699 56.2227L58.1699 32.2539C58.1699 27.2549 55.4844 24.4497 50.4668 24.4497ZM70.2261 29.5059L60.896 37.3628L60.896 51.0986L70.2261 58.9219C71.0899 59.6577 72.0093 60.0972 72.8882 60.0972C74.5957 60.0972 75.7778 58.8477 75.7778 56.8843L75.7778 31.5586C75.7778 29.6289 74.5957 28.4131 72.8882 28.4131C72.0093 28.4131 71.0225 28.8525 70.2261 29.5059Z" fill="#000000" fill-opacity="0.85"/>
 </g>
</svg>
