<?xml version="1.0" encoding="UTF-8"?>
<!--Generator: Apple Native CoreSVG 232.5-->
<!DOCTYPE svg
PUBLIC "-//W3C//DTD SVG 1.1//EN"
       "http://www.w3.org/Graphics/SVG/1.1/DTD/svg11.dtd">
<svg version="1.1" xmlns="http://www.w3.org/2000/svg" xmlns:xlink="http://www.w3.org/1999/xlink" width="112.842" height="72.0283">
 <g>
  <rect height="72.0283" opacity="0" width="112.842" x="0" y="0"/>
  <path d="M61.2627 71.0078L79.9175 71.0078C100.016 71.0078 112.842 56.9639 112.842 35.8887C112.842 14.9146 100.016 0.971681 79.9175 0.971681L61.2627 0.971681C59.2432 0.971681 57.9429 2.30567 57.9429 4.38917L57.9429 67.5566C57.9429 69.6738 59.2432 71.0078 61.2627 71.0078ZM64.6465 64.9375L64.6465 6.97463L79.5132 6.97463C95.7778 6.97463 106.004 18.5342 106.004 35.9224C106.004 53.3442 95.7778 64.9375 79.5132 64.9375Z" fill="#000000" fill-opacity="0.85"/>
  <path d="M3.37354 71.1963L45.0244 71.1963C46.8906 71.1963 48.0898 70.0122 48.0898 68.1797C48.0898 66.3808 46.8906 65.2119 45.0244 65.2119L9.47756 65.2119L9.47756 64.998L29.9888 44.4604C41.6856 32.8179 45.2432 27.0947 45.2432 19.6509C45.2432 8.54492 35.6001 0 22.7158 0C12.7578 0 4.15527 5.34278 1.18017 13.6338C0.503418 15.4605 0.168458 17.1455 0.168458 18.457C0.168458 20.3989 1.23633 21.6318 3.09913 21.6318C4.84913 21.6318 5.64406 20.7847 6.14943 18.9185C6.47951 17.3442 6.91066 15.8408 7.66164 14.4502C10.2681 9.45362 15.6133 5.89845 22.7158 5.89845C31.519 5.89845 38.4385 12.1914 38.4385 19.9727C38.4385 25.8755 35.8442 30.1382 25.5557 40.4619L2.11377 64.1509C0.547364 65.7173 0.0302732 66.6504 0.0302732 68.0332C0.0302732 70.0122 1.37598 71.1963 3.37354 71.1963Z" fill="#000000" fill-opacity="0.85"/>
 </g>
</svg>
