<?xml version="1.0" encoding="UTF-8"?>
<!--Generator: Apple Native CoreSVG 232.5-->
<!DOCTYPE svg
PUBLIC "-//W3C//DTD SVG 1.1//EN"
       "http://www.w3.org/Graphics/SVG/1.1/DTD/svg11.dtd">
<svg version="1.1" xmlns="http://www.w3.org/2000/svg" xmlns:xlink="http://www.w3.org/1999/xlink" width="97.9595" height="97.9932">
 <g>
  <rect height="97.9932" opacity="0" width="97.9595" x="0" y="0"/>
  <path d="M97.9595 48.9722C97.9595 75.7759 75.8247 97.9443 48.9722 97.9443C22.1685 97.9443 0 75.7759 0 48.9722C0 22.1348 22.1348 0 48.9385 0C75.791 0 97.9595 22.1348 97.9595 48.9722ZM6.36671 48.9722C6.36671 72.5942 25.3501 91.6113 48.9722 91.6113C72.5942 91.6113 91.6265 72.5942 91.6265 48.9722C91.6265 25.3501 72.5605 6.31789 48.9385 6.31789C25.3164 6.31789 6.36671 25.3501 6.36671 48.9722Z" fill="#000000" fill-opacity="0.85"/>
  <path d="M55.3507 62.4406C52.9681 60.8008 50.9574 59.3301 48.9385 59.3301C44.4263 59.3301 39.8735 66.8359 31.0342 66.8359C22.4727 66.8359 16.0679 59.022 16.0679 48.77C16.0679 40.2692 19.8513 35.6005 25.9737 33.0748ZM81.8242 48.77C81.8242 56.5564 78.1297 62.9364 72.597 65.5449L37.6347 30.5717C41.1436 30.242 44.9561 30.1519 48.9385 30.1519C67.166 30.1519 81.8242 32.0376 81.8242 48.77Z" fill="#000000" fill-opacity="0.85"/>
  <path d="M72.0684 74.773C72.7773 75.4971 74.0303 75.5122 74.7393 74.773C75.4971 73.9663 75.4971 72.8447 74.7393 72.102L25.8423 23.1411C25.0996 22.3984 23.8804 22.3984 23.1377 23.1411C22.3648 23.8804 22.4136 25.103 23.1377 25.8272Z" fill="#000000" fill-opacity="0.85"/>
 </g>
</svg>
