<?xml version="1.0" encoding="UTF-8"?>
<!--Generator: Apple Native CoreSVG 232.5-->
<!DOCTYPE svg
PUBLIC "-//W3C//DTD SVG 1.1//EN"
       "http://www.w3.org/Graphics/SVG/1.1/DTD/svg11.dtd">
<svg version="1.1" xmlns="http://www.w3.org/2000/svg" xmlns:xlink="http://www.w3.org/1999/xlink" width="178.023" height="77.7305">
 <g>
  <rect height="77.7305" opacity="0" width="178.023" x="0" y="0"/>
  <path d="M156.657 38.2788C156.657 59.3242 143.461 75.3335 125.822 75.3335C107.661 75.3335 98.2622 59.9287 89.0117 59.9287C79.7124 59.9287 70.3623 75.3335 52.1675 75.3335C37.1995 75.3335 25.3945 63.7616 22.2268 47.3423L28.2549 47.3423C30.9486 60.9213 39.9017 69.2886 52.1675 69.2886C68.9395 69.2886 76.0996 53.8989 89.0117 53.8989C101.894 53.8989 109.084 69.2886 125.822 69.2886C140.666 69.2886 150.612 57.0908 150.612 38.2788C150.612 9.04689 125.805 6.04494 89.0117 6.04494C55.3882 6.04494 31.7845 8.5754 27.9982 31.3047L21.8448 31.3047C25.756 3.28546 54.3078 0 89.0117 0C126.427 0 156.657 3.78516 156.657 38.2788Z" fill="#000000" fill-opacity="0.85"/>
  <path d="M8.13575 42.2954L47.5283 42.2954L54.8257 42.0933L44.6607 51.7261C41.7671 54.3652 45.8111 58.4092 48.4839 55.6504L62.3306 41.4331C63.0313 40.6987 63.2974 40.0654 63.2974 39.3159C63.2974 38.5967 63.0313 37.8994 62.3306 37.1802L48.42 22.9141C45.7959 20.1553 41.6172 24.0645 44.6455 26.8569L54.8257 36.5049L47.5283 36.3179L8.13575 36.3179C6.55421 36.3179 5.22364 37.7007 5.22364 39.3159C5.22364 40.9463 6.55421 42.2954 8.13575 42.2954Z" fill="#000000" fill-opacity="0.85"/>
 </g>
</svg>
