<?xml version="1.0" encoding="UTF-8"?>
<!--Generator: Apple Native CoreSVG 232.5-->
<!DOCTYPE svg
PUBLIC "-//W3C//DTD SVG 1.1//EN"
       "http://www.w3.org/Graphics/SVG/1.1/DTD/svg11.dtd">
<svg version="1.1" xmlns="http://www.w3.org/2000/svg" xmlns:xlink="http://www.w3.org/1999/xlink" width="146.001" height="110.623">
 <g>
  <rect height="110.623" opacity="0" width="146.001" x="0" y="0"/>
  <path d="M122.004 55.2871C122.004 82.0908 99.8696 104.259 73.0171 104.259C65.8545 104.259 59.0228 102.676 52.879 99.8043C54.2356 98.2037 55.4223 96.4568 56.4066 94.5902C61.5047 96.7396 67.1162 97.9263 73.0171 97.9263C96.6392 97.9263 115.671 78.9092 115.671 55.2871C115.671 31.6651 96.6055 12.6328 72.9834 12.6328C50.903 12.6328 32.9049 29.262 30.6586 50.7278C30.4325 50.6951 30.1992 50.6924 29.9653 50.6924C28.0131 50.6924 26.1011 50.884 24.2514 51.2619C26.2966 26.2667 47.5357 6.31495 72.9834 6.31495C99.836 6.31495 122.004 28.4497 122.004 55.2871ZM98.5674 39.27C98.5674 40.6035 97.7525 41.7114 96.4678 42.0835C94.8902 42.5718 83.6362 43.8413 82.2539 44.1006C80.8228 44.4087 80.0112 45.5806 80.0112 47.271C80.0112 49.8403 80.0112 58.0215 80.5786 61.7627C81.1646 65.4702 85.4917 83.294 85.6533 84.0601C86.1904 85.9946 85.0674 87.6851 83.1328 87.6851C81.7505 87.6851 80.7588 86.9224 80.2857 85.0669C79.4102 81.4722 76.2666 69.1138 75.3911 66.1538C74.6924 63.9902 74.1704 63.2427 72.9683 63.2427C71.7324 63.2427 71.2407 64.0205 70.6094 66.1538C69.6177 69.1289 66.5415 81.4873 65.6509 85.0669C65.1289 86.9224 64.1861 87.6851 62.8189 87.6851C60.8843 87.6851 59.7276 85.9946 60.2495 84.0601C60.4448 83.294 64.7232 65.4702 65.3242 61.7627C65.9741 58.0215 66.0381 49.8403 65.9741 47.271C65.9253 45.5806 65.0801 44.3784 63.6826 44.1006C62.2666 43.8565 51.0615 42.5264 49.4351 42.0835C48.1841 41.7569 47.3692 40.6035 47.3692 39.27C47.3692 37.4971 48.6538 36.4566 49.8745 36.4566C50.3628 36.4566 50.7686 36.603 51.208 36.6519C55.9898 37.3692 65.9741 38.5713 72.9683 38.5713C80.0112 38.5713 89.9468 37.3692 94.6948 36.6519C95.1343 36.603 95.5737 36.4566 96.0283 36.4566C97.2339 36.4566 98.5674 37.4971 98.5674 39.27ZM79.3765 28.895C79.3765 32.4224 76.5142 35.3184 72.9683 35.3184C69.4224 35.3184 66.5601 32.4224 66.5601 28.895C66.5601 25.3491 69.4224 22.4868 72.9683 22.4868C76.5142 22.4868 79.3765 25.3491 79.3765 28.895Z" fill="#000000" fill-opacity="0.85"/>
  <path d="M54.2403 80.6577C54.2403 93.9595 43.1509 104.933 29.9653 104.933C16.6787 104.933 5.69044 94.0269 5.69044 80.6577C5.69044 67.3711 16.6787 56.3828 29.9653 56.3828C43.3008 56.3828 54.2403 67.3223 54.2403 80.6577ZM27.9531 70.1831L22.3936 75.5776C22.2656 75.6719 22.1192 75.7544 21.9912 75.7544L18.1777 75.7544C16.6773 75.7544 15.7798 76.6182 15.7798 78.2349L15.7798 83.0654C15.7798 84.6333 16.6773 85.5308 18.1777 85.5308L21.9912 85.5308C22.1192 85.5308 22.2808 85.5947 22.3936 85.6924L27.9531 91.0078C28.4819 91.4541 28.9097 91.668 29.3897 91.668C30.1475 91.668 30.646 91.124 30.646 90.4151L30.646 70.791C30.646 70.0332 30.1475 69.523 29.3897 69.523C28.9097 69.523 28.4819 69.752 27.9531 70.1831ZM39.9351 71.4863C39.2935 71.9595 39.1773 72.7847 39.6235 73.46C41.0816 75.5947 41.7988 78.021 41.7988 80.5786C41.7988 83.3213 41.0327 85.7964 39.6875 87.7344C39.2295 88.3574 39.2935 89.2129 39.9014 89.7197C40.5093 90.1289 41.3462 89.9976 41.8716 89.3745C43.5957 87.0274 44.5386 83.9444 44.5386 80.5786C44.5386 77.228 43.5957 74.1299 41.8379 71.8316C41.3277 71.2085 40.543 71.0957 39.9351 71.4863ZM35.0454 74.8101C34.355 75.2193 34.2725 76.2363 34.813 76.814C35.4746 77.8291 35.8804 79.1963 35.8804 80.5786C35.8804 82.0435 35.478 83.3247 34.7827 84.3921C34.2725 85.0337 34.3853 85.8555 34.9966 86.332C35.5742 86.8237 36.4414 86.7227 36.9331 86.0322C38.0225 84.6162 38.6572 82.6143 38.6572 80.5786C38.6572 78.6524 38.0527 76.6958 37.0576 75.2647C36.5508 74.502 35.7022 74.3706 35.0454 74.8101Z" fill="#000000" fill-opacity="0.85"/>
 </g>
</svg>
