<?xml version="1.0" encoding="UTF-8"?>
<!--Generator: Apple Native CoreSVG 232.5-->
<!DOCTYPE svg
PUBLIC "-//W3C//DTD SVG 1.1//EN"
       "http://www.w3.org/Graphics/SVG/1.1/DTD/svg11.dtd">
<svg version="1.1" xmlns="http://www.w3.org/2000/svg" xmlns:xlink="http://www.w3.org/1999/xlink" width="97.9595" height="97.9932">
 <g>
  <rect height="97.9932" opacity="0" width="97.9595" x="0" y="0"/>
  <path d="M97.9595 48.9722C97.9595 75.7759 75.8247 97.9443 48.9722 97.9443C22.1685 97.9443 0 75.7759 0 48.9722C0 22.1348 22.1348 0 48.9385 0C75.791 0 97.9595 22.1348 97.9595 48.9722ZM48.4922 75.6445C52.3057 75.6445 55.4439 75.0015 58.3936 73.8584C51.5327 70.0884 46.8198 60.0967 46.3501 51.7876C42.2876 49.9155 37.9287 48.6157 34.0059 48.2637C34.9214 62.6138 43.8403 73.4497 48.4922 75.6445ZM22.4126 51.501C23.48 62.5747 31.4302 71.7695 41.938 74.6138C36.8701 69.1362 31.3262 59.5537 30.7188 48.1035C27.2534 48.1724 24.3135 49.1724 22.4126 51.501ZM54.6265 65.9956C56.8237 69.166 59.585 71.3901 62.543 71.9067C70.2749 67.2158 75.5957 58.6387 75.5957 48.9722C75.5957 45.6958 74.9492 42.5322 73.8667 39.6768C72.3897 46.7451 67.2471 56.9302 54.6265 65.9956ZM49.6338 51.1914C49.7954 55.251 51.023 59.5952 52.9492 63.1851C68.7153 51.6289 71.8545 38.9077 71.1187 34.2832C69.1133 31.2793 66.5186 28.7334 63.4995 26.7769C64.5332 34.0713 58.2241 43.4497 49.6338 51.1914ZM25.0376 37.3037C23.4937 40.3882 22.5171 43.8633 22.3184 47.4663C28.6509 42.9644 39.0581 44.9902 47.5137 48.6655C50.9688 45.5034 53.9507 42.2773 56.1328 39.1152C48.9902 33.1416 33.3369 29.5215 25.0376 37.3037ZM29.1953 31.1895C38.6108 27.398 51.437 30.9844 57.8892 36.2861C60.5542 31.7168 61.2983 27.5801 59.5459 24.5239C56.2744 23.1602 52.7134 22.3149 48.9722 22.3149C41.1699 22.3149 34.0816 25.8018 29.1953 31.1895Z" fill="#000000" fill-opacity="0.85"/>
 </g>
</svg>
