<?xml version="1.0" encoding="UTF-8"?>
<!--Generator: Apple Native CoreSVG 232.5-->
<!DOCTYPE svg
PUBLIC "-//W3C//DTD SVG 1.1//EN"
       "http://www.w3.org/Graphics/SVG/1.1/DTD/svg11.dtd">
<svg version="1.1" xmlns="http://www.w3.org/2000/svg" xmlns:xlink="http://www.w3.org/1999/xlink" width="97.9595" height="97.9932">
 <g>
  <rect height="97.9932" opacity="0" width="97.9595" x="0" y="0"/>
  <path d="M69.4761 91.8931L70.648 86.96C59.2983 86.4502 51.2847 68.4644 49.7334 52.7861C68.7647 35.5615 81.6812 14.2988 72.0581 6.15088L68.7705 9.95216C74.8433 15.0786 64.4648 32.6074 46.4458 48.9849C28.9668 41.3125 10.3877 38.605 1.64893 48.5142L5.27003 51.4395C11.9995 44.1831 27.8569 46.2944 44.7363 53.7832C46.4863 69.9736 55.312 90.6055 69.4761 91.8931ZM56.7495 77.1831C89.0537 57.5054 93.6807 32.8228 91.2324 24.7642L86.4004 26.2075C88.3013 32.6206 84.2217 54.9487 53.6016 73.2388ZM43.9932 96.8882L47.6431 92.8242C39.5025 89.9155 22.6123 73.2857 21.586 45.2583L16.5215 45.6895C17.5815 73.6846 34.02 91.874 43.9932 96.8882ZM62.6279 32.7481L65.0781 28.352C52.0503 18.2173 26.6274 10.7583 8.60059 23.3106L8.67676 28.8345C25.001 15.8076 49.543 22.7412 62.6279 32.7481ZM48.9722 0C22.1685 0 0 22.1348 0 48.9722C0 75.7759 22.2022 97.9443 49.0059 97.9443C75.8433 97.9443 97.9595 75.7759 97.9595 48.9722C97.9595 22.1348 75.8247 0 48.9722 0ZM48.9722 5.23292C72.9497 5.23292 92.7266 24.9946 92.7266 48.9722C92.7266 72.9497 72.9834 92.7114 49.0059 92.7114C25.0283 92.7114 5.23292 72.9497 5.23292 48.9722C5.23292 24.9946 24.9946 5.23292 48.9722 5.23292Z" fill="#000000" fill-opacity="0.85"/>
 </g>
</svg>
