<?xml version="1.0" encoding="UTF-8"?>
<!--Generator: Apple Native CoreSVG 232.5-->
<!DOCTYPE svg
PUBLIC "-//W3C//DTD SVG 1.1//EN"
       "http://www.w3.org/Graphics/SVG/1.1/DTD/svg11.dtd">
<svg version="1.1" xmlns="http://www.w3.org/2000/svg" xmlns:xlink="http://www.w3.org/1999/xlink" width="97.9595" height="97.9932">
 <g>
  <rect height="97.9932" opacity="0" width="97.9595" x="0" y="0"/>
  <path d="M97.9595 48.9722C97.9595 75.7759 75.8247 97.9443 48.9722 97.9443C22.1685 97.9443 0 75.7759 0 48.9722C0 22.1348 22.1348 0 48.9385 0C75.791 0 97.9595 22.1348 97.9595 48.9722ZM70.0806 28.7744L61.8648 63.0576L61.5532 63.0576L52.4097 28.5518C51.9448 26.7598 50.8316 25.9277 48.9385 25.9277C47.0605 25.9277 45.8647 26.7598 45.4336 28.5518L36.3237 63.0576L36.0273 63.0576L27.7964 28.7744C27.313 26.6201 26.481 25.7544 24.6636 25.7544C22.8345 25.7544 21.6689 26.9233 21.6689 28.7036C21.6689 29.0523 21.7026 29.4229 21.8188 29.8692L31.8101 68.7188C32.3389 70.8525 33.7031 71.981 35.8369 71.981C38.0718 71.981 39.5034 70.8862 39.9985 68.8013L48.7734 35.1895L49.0698 35.1895L57.8784 68.8013C58.3735 70.8862 59.8052 71.981 61.9727 71.981C64.1738 71.981 65.5532 70.8525 66.0669 68.7188L76.0581 29.8692C76.208 29.4229 76.2417 29.0523 76.2417 28.7036C76.2417 26.9233 75.0425 25.7544 73.2471 25.7544C71.4297 25.7544 70.564 26.6201 70.0806 28.7744Z" fill="#000000" fill-opacity="0.85"/>
 </g>
</svg>
