<?xml version="1.0" encoding="UTF-8"?>
<!--Generator: Apple Native CoreSVG 232.5-->
<!DOCTYPE svg
PUBLIC "-//W3C//DTD SVG 1.1//EN"
       "http://www.w3.org/Graphics/SVG/1.1/DTD/svg11.dtd">
<svg version="1.1" xmlns="http://www.w3.org/2000/svg" xmlns:xlink="http://www.w3.org/1999/xlink" width="80.7363" height="104.094">
 <g>
  <rect height="104.094" opacity="0" width="80.7363" x="0" y="0"/>
  <path d="M14.2739 104.094L66.4624 104.094C75.855 104.094 80.7363 99.2241 80.7363 89.7187L80.7363 14.4356C80.7363 4.89649 75.9341 0.0268549 66.4624 0.0268549L51.9756 0.0268549C50.709 0.0268549 49.8921 0.941408 49.8921 2.26026C49.8921 7.67139 46.0132 11.6294 40.3682 11.6294C34.7232 11.6294 30.8106 7.67139 30.8106 2.26026C30.8106 0.941408 29.9937 0.0268549 28.7271 0.0268549L14.2739 0.0268549C4.80225 0.0268549 0 4.89649 0 14.4356L0 89.7187C0 99.2241 4.88135 104.094 14.2739 104.094ZM14.5737 98.0488C8.93556 98.0488 6.04494 94.9814 6.04494 89.5874L6.04494 14.5669C6.04494 9.06349 8.93556 6.07179 14.5737 6.07179L28.5806 6.07179L25.0537 3.87892C25.751 12.106 31.8413 17.5059 40.3682 17.5059C48.895 17.5059 54.9854 12.106 55.7163 3.87892L52.1558 6.07179L66.1626 6.07179C71.8008 6.07179 74.6914 9.06349 74.6914 14.5669L74.6914 89.5874C74.6914 94.9814 71.8008 98.0488 66.1626 98.0488ZM21.2114 34.8145L59.5889 34.8145C60.9497 34.8145 61.9771 33.7686 61.9771 32.3589C61.9771 30.9863 60.9497 29.9404 59.5889 29.9404L21.2114 29.9404C19.7866 29.9404 18.7593 30.9863 18.7593 32.3589C18.7593 33.7686 19.7866 34.8145 21.2114 34.8145ZM21.2114 52.6025L39.6792 52.6025C41.104 52.6025 42.1314 51.5415 42.1314 50.2144C42.1314 48.8535 41.104 47.7925 39.6792 47.7925L21.2114 47.7925C19.7866 47.7925 18.7593 48.8535 18.7593 50.2144C18.7593 51.5415 19.7866 52.6025 21.2114 52.6025Z" fill="#000000" fill-opacity="0.85"/>
 </g>
</svg>
