<?xml version="1.0" encoding="UTF-8"?>
<!--Generator: Apple Native CoreSVG 232.5-->
<!DOCTYPE svg
PUBLIC "-//W3C//DTD SVG 1.1//EN"
       "http://www.w3.org/Graphics/SVG/1.1/DTD/svg11.dtd">
<svg version="1.1" xmlns="http://www.w3.org/2000/svg" xmlns:xlink="http://www.w3.org/1999/xlink" width="103.856" height="104.262">
 <g>
  <rect height="104.262" opacity="0" width="103.856" x="0" y="0"/>
  <path d="M93.0781 99.8413C94.8262 101.653 97.706 101.623 99.3564 99.8413C101.074 98.0561 101.071 95.3413 99.3564 93.5781L52.6216 46.6328C50.8735 44.8999 47.96 44.9302 46.3096 46.6328C44.5952 48.4331 44.6289 51.2119 46.3096 52.9448ZM94.5332 97.0322L63.8462 66.3267L65.936 64.2705L96.5928 94.9912C97.396 95.7607 97.561 96.5708 96.8555 97.3437C96.1465 98.0005 95.3213 97.854 94.5332 97.0322Z" fill="#000000" fill-opacity="0.85"/>
  <path d="M100.528 55.2056C102.327 55.2056 103.856 53.6763 103.856 51.9111C103.856 50.146 102.327 48.6167 100.528 48.6167L85.4282 48.6167C83.6631 48.6167 82.1338 50.146 82.1338 51.9111C82.1338 53.6763 83.6631 55.2056 85.4282 55.2056Z" fill="#000000" fill-opacity="0.85"/>
  <path d="M73.187 26.0103C71.9053 27.2734 71.9053 29.3721 73.187 30.6538C74.4502 31.917 76.5825 31.917 77.8643 30.6538L88.5356 19.9639C89.8174 18.6821 89.8174 16.5835 88.5356 15.2866C87.2725 14.0386 85.1738 14.0386 83.9106 15.2866Z" fill="#000000" fill-opacity="0.85"/>
  <path d="M55.2393 3.29444C55.2393 1.5293 53.71 0 51.9111 0C50.146 0 48.6167 1.5293 48.6167 3.29444L48.6167 18.3941C48.6167 20.1929 50.146 21.7222 51.9111 21.7222C53.71 21.7222 55.2393 20.1929 55.2393 18.3941Z" fill="#000000" fill-opacity="0.85"/>
  <path d="M25.9614 30.6538C27.1943 31.8867 29.3233 31.917 30.605 30.6538C31.853 29.3872 31.853 27.2734 30.605 26.0103L19.9639 15.3203C18.731 14.0874 16.6021 14.0386 15.3203 15.2866C14.0723 16.5195 14.0723 18.6484 15.3203 19.9302Z" fill="#000000" fill-opacity="0.85"/>
  <path d="M3.29444 48.6167C1.5293 48.6167 0 50.146 0 51.9111C0 53.6763 1.5293 55.2056 3.29444 55.2056L18.4463 55.2056C20.2266 55.2056 21.7407 53.6763 21.7407 51.9111C21.7407 50.146 20.2266 48.6167 18.4463 48.6167Z" fill="#000000" fill-opacity="0.85"/>
  <path d="M15.2715 83.8584C14.0386 85.0913 14.0083 87.2388 15.2378 88.502C16.4707 89.7349 18.6182 89.7837 19.9151 88.5356L30.605 77.8608C31.8379 76.6279 31.853 74.499 30.605 73.251C29.4058 71.9844 27.2095 71.9692 25.9614 73.251Z" fill="#000000" fill-opacity="0.85"/>
  <path d="M55.2393 85.4619C55.2393 83.6631 53.71 82.1338 51.9111 82.1338C50.146 82.1338 48.6167 83.6631 48.6167 85.4619L48.6167 100.562C48.6167 102.327 50.146 103.856 51.9111 103.856C53.71 103.856 55.2393 102.327 55.2393 100.562Z" fill="#000000" fill-opacity="0.85"/>
 </g>
</svg>
