<?xml version="1.0" encoding="UTF-8"?>
<!--Generator: Apple Native CoreSVG 232.5-->
<!DOCTYPE svg
PUBLIC "-//W3C//DTD SVG 1.1//EN"
       "http://www.w3.org/Graphics/SVG/1.1/DTD/svg11.dtd">
<svg version="1.1" xmlns="http://www.w3.org/2000/svg" xmlns:xlink="http://www.w3.org/1999/xlink" width="97.9595" height="97.9932">
 <g>
  <rect height="97.9932" opacity="0" width="97.9595" x="0" y="0"/>
  <path d="M97.9595 49.021C97.9595 75.8584 75.8247 97.9932 48.9722 97.9932C22.1685 97.9932 0 75.8584 0 49.021C0 22.2173 22.1348 0.0488281 48.9385 0.0488281C75.791 0.0488281 97.9595 22.2173 97.9595 49.021ZM26.1592 38.0703L26.1592 70.4697C26.1592 74.0781 28.4155 76.4961 31.8506 76.4961L65.8394 76.4961C69.2744 76.4961 71.5308 74.0781 71.5308 70.4697L71.5308 38.0703ZM62.9102 56.1519C62.9102 63.8701 56.6231 70.2061 48.8525 70.2061C41.0669 70.2061 34.7949 63.8701 34.7949 56.1519C34.7949 48.3814 41.0669 42.0942 48.8525 42.0942C56.6231 42.0942 62.9102 48.3814 62.9102 56.1519ZM38.0147 56.1519C38.0147 62.2114 42.7744 66.9712 48.8525 66.9712C54.9155 66.9712 59.6753 62.2114 59.6753 56.1519C59.6753 50.0889 54.9155 45.2954 48.8525 45.2954C42.7744 45.2954 38.0147 50.0889 38.0147 56.1519ZM31.8506 21.46C28.4155 21.46 26.1592 23.8442 26.1592 27.4526L26.1592 34.7344L71.5308 34.7344L71.5308 27.4526C71.5308 23.8442 69.2744 21.46 65.8394 21.46ZM37.8091 29.1851C37.8091 30.5151 36.7534 31.6045 35.4048 31.6045C34.0713 31.6045 32.9517 30.5151 32.9517 29.1851C32.9517 27.8179 34.0713 26.6797 35.4048 26.6797C36.7534 26.6797 37.8091 27.8179 37.8091 29.1851ZM44.8975 29.1851C44.8975 30.5151 43.8081 31.6045 42.4746 31.6045C41.0923 31.6045 40.0855 30.5151 40.0855 29.1851C40.0855 27.8179 41.0923 26.6797 42.4746 26.6797C43.8081 26.6797 44.8975 27.8179 44.8975 29.1851ZM65.1729 29.1851C65.1729 29.9697 64.5718 30.5557 63.7837 30.5557L56.7598 30.5557C55.9902 30.5557 55.3706 29.9697 55.3706 29.1851C55.3706 28.3633 55.9902 27.7622 56.7598 27.7622L63.7837 27.7622C64.5718 27.7622 65.1729 28.3633 65.1729 29.1851Z" fill="#000000" fill-opacity="0.85"/>
 </g>
</svg>
