<?xml version="1.0" encoding="UTF-8"?>
<!--Generator: Apple Native CoreSVG 232.5-->
<!DOCTYPE svg
PUBLIC "-//W3C//DTD SVG 1.1//EN"
       "http://www.w3.org/Graphics/SVG/1.1/DTD/svg11.dtd">
<svg version="1.1" xmlns="http://www.w3.org/2000/svg" xmlns:xlink="http://www.w3.org/1999/xlink" width="113.505" height="107.302">
 <g>
  <rect height="107.302" opacity="0" width="113.505" x="0" y="0"/>
  <path d="M97.7034 64.3105C96.5889 64.1113 95.4863 64.0039 94.53 64.0039C91.154 64.0039 87.9128 65.0782 82.8186 67.878C82.5475 67.7299 82.2816 67.5867 82.0235 67.4508C82.0933 66.8574 82.115 66.2511 82.115 65.6397C82.115 51.649 70.7678 40.2681 56.7771 40.2681C42.7527 40.2681 31.3904 51.649 31.3904 65.6397C31.3904 79.6304 42.7527 90.9927 56.7771 90.9927C57.5149 90.9927 58.2453 90.9611 58.9625 90.8822L62.2507 99.772C62.586 100.678 63.0062 101.506 63.4976 102.255L26.1462 102.255C19.9494 102.255 15.802 97.9493 15.802 91.4512L15.802 32.2559L97.7034 32.2559ZM77.648 65.3873C75.1882 64.4133 73.1519 64.0039 71.0583 64.0039C69.1238 64.0039 66.6389 64.4434 64.6218 65.1875C62.4797 63.3687 59.5764 62.8701 56.9358 63.8721C53.1701 65.3052 51.0735 69.5323 52.6111 73.7105L57.3454 86.5102C57.1607 86.5356 56.9692 86.5381 56.7771 86.5381C45.0466 86.5381 35.845 77.3365 35.845 65.6397C35.845 53.9092 45.0466 44.7227 56.7771 44.7227C68.3887 44.7227 77.5266 53.776 77.648 65.3873ZM97.7034 13.8228L97.7034 27.023L15.802 27.023L15.802 13.8228C15.802 7.32472 19.9494 2.98536 26.1462 2.98536L87.3928 2.98536C93.5559 2.98536 97.7034 7.32472 97.7034 13.8228ZM28.1413 16.9527C28.1413 19.3452 30.1282 21.3506 32.5393 21.3506C34.9504 21.3506 36.9035 19.3452 36.9035 16.9527C36.9035 14.5078 34.9504 12.5362 32.5393 12.5362C30.1282 12.5362 28.1413 14.5078 28.1413 16.9527ZM40.8957 16.9527C40.8957 19.3452 42.8186 21.3506 45.2297 21.3506C47.6408 21.3506 49.594 19.3452 49.594 16.9527C49.594 14.5078 47.6408 12.5362 45.2297 12.5362C42.8186 12.5362 40.8957 14.5078 40.8957 16.9527ZM71.0715 14.8189C69.8303 14.8189 69.0051 15.6929 69.0051 16.9527C69.0051 18.1939 69.8303 19.0528 71.0715 19.0528L83.6282 19.0528C84.9031 19.0528 85.7283 18.1939 85.7283 16.9527C85.7283 15.6929 84.9031 14.8189 83.6282 14.8189Z" fill="#000000" fill-opacity="0.85"/>
  <path d="M72.8249 102.255L92.7786 102.255C95.2839 102.255 97.5686 100.857 98.636 97.9971L108.26 71.9995C108.86 70.2867 108.043 69.0235 106.881 68.5772C105.67 68.1123 104.144 68.4981 103.481 70.2227L102.782 72.0899C100.159 70.5176 97.8103 69.0508 94.53 69.0508C88.5583 69.0508 86.9031 72.9248 82.8186 72.9248C78.719 72.9248 77.03 69.0508 71.0583 69.0508C67.7781 69.0508 65.4783 70.5176 62.8552 72.0899L62.1077 70.2227C61.4929 68.4981 59.9182 68.1123 58.741 68.5772C57.5603 69.0235 56.7771 70.2867 57.3767 71.9995L66.9861 97.9971C68.0198 100.857 70.3381 102.255 72.8249 102.255ZM73.8913 97.1905C72.762 97.1905 71.9187 96.6973 71.3953 95.2549L64.1418 75.7173C66.7161 74.1148 68.5276 72.9292 71.0583 72.9292C75.616 72.9292 77.0066 76.8033 82.8186 76.8033C88.5818 76.8033 89.9724 72.9292 94.53 72.9292C97.0945 72.9292 98.8723 74.1148 101.447 75.7173L94.1931 95.2549C93.6697 96.6973 92.8415 97.1905 91.7121 97.1905Z" fill="#000000" fill-opacity="0.85"/>
 </g>
</svg>
