<?xml version="1.0" encoding="UTF-8"?>
<!--Generator: Apple Native CoreSVG 232.5-->
<!DOCTYPE svg
PUBLIC "-//W3C//DTD SVG 1.1//EN"
       "http://www.w3.org/Graphics/SVG/1.1/DTD/svg11.dtd">
<svg version="1.1" xmlns="http://www.w3.org/2000/svg" xmlns:xlink="http://www.w3.org/1999/xlink" width="97.9595" height="97.9932">
 <g>
  <rect height="97.9932" opacity="0" width="97.9595" x="0" y="0"/>
  <path d="M97.9595 49.021C97.9595 75.8584 75.8247 97.9932 48.9722 97.9932C22.1685 97.9932 0 75.8584 0 49.021C0 22.2173 22.1348 0.0488281 48.9385 0.0488281C75.791 0.0488281 97.9595 22.2173 97.9595 49.021ZM38.231 17.2173C31.9121 26.3648 28.479 37.437 28.479 48.9756C28.479 60.5293 31.9121 71.669 38.231 80.7153C39.1792 82.0459 40.8096 82.3457 42.0542 81.5137C43.3325 80.5352 43.5313 78.9385 42.6016 77.6416C36.9766 69.8882 33.813 59.7188 33.813 48.9756C33.813 38.1465 36.9429 28.0444 42.6016 20.3096C43.5313 18.9942 43.3325 17.3823 42.0542 16.4526C40.7759 15.5381 39.1606 15.8379 38.231 17.2173ZM51.4414 26.1123C46.8433 32.231 44.353 40.2944 44.353 48.9756C44.353 57.5371 46.8433 65.6006 51.4414 71.854C52.3897 73.1021 53.9375 73.4356 55.2007 72.5361C56.3965 71.7041 56.7266 70.0249 55.7783 68.6606C51.896 63.4565 49.7393 56.4424 49.7393 48.9756C49.7393 41.4751 51.896 34.4761 55.7783 29.272C56.7266 27.9077 56.3965 26.2285 55.2007 25.3965C53.9375 24.5308 52.3897 24.8306 51.4414 26.1123ZM64.5391 34.8945C61.7778 38.6543 60.2002 43.8335 60.2002 48.9756C60.2002 54.2188 61.7778 59.4131 64.5391 63.0044C65.4165 64.2188 67.1108 64.5523 68.3101 63.69C69.6709 62.6626 69.8765 61.0322 68.8306 59.604C66.7969 56.8262 65.6016 52.9404 65.6016 48.9756C65.6016 44.9248 66.7969 41.0391 68.8306 38.3286C69.9102 36.9004 69.7046 35.2026 68.3101 34.209C67.1108 33.3804 65.4502 33.7139 64.5391 34.8945Z" fill="#000000" fill-opacity="0.85"/>
 </g>
</svg>
