<?xml version="1.0" encoding="UTF-8"?>
<!--Generator: Apple Native CoreSVG 232.5-->
<!DOCTYPE svg
PUBLIC "-//W3C//DTD SVG 1.1//EN"
       "http://www.w3.org/Graphics/SVG/1.1/DTD/svg11.dtd">
<svg version="1.1" xmlns="http://www.w3.org/2000/svg" xmlns:xlink="http://www.w3.org/1999/xlink" width="85.6763" height="100.458">
 <g>
  <rect height="100.458" opacity="0" width="85.6763" x="0" y="0"/>
  <path d="M82.6446 66.5679C84.3423 66.5679 85.6763 65.2339 85.6763 63.5547L85.6763 36.9033C85.6763 35.2241 84.3423 33.8565 82.6446 33.8565C80.898 33.8565 79.6314 35.2241 79.6314 36.9033L79.6314 63.5547C79.6314 65.2339 80.898 66.5679 82.6446 66.5679Z" fill="#000000" fill-opacity="0.85"/>
  <path d="M66.7227 88.6343C68.4356 88.6343 69.7207 87.3003 69.7207 85.6362L69.7207 14.8218C69.7207 13.1577 68.4356 11.79 66.7227 11.79C64.9575 11.79 63.6909 13.1577 63.6909 14.8218L63.6909 85.6362C63.6909 87.3003 64.9575 88.6343 66.7227 88.6343Z" fill="#000000" fill-opacity="0.85"/>
  <path d="M50.7822 75.4741C52.5137 75.4741 53.814 74.1738 53.814 72.4761L53.814 27.9819C53.814 26.2842 52.5137 24.9502 50.7822 24.9502C49.0357 24.9502 47.7691 26.2842 47.7691 27.9819L47.7691 72.4761C47.7691 74.1738 49.0357 75.4741 50.7822 75.4741Z" fill="#000000" fill-opacity="0.85"/>
  <path d="M34.8267 100.458C36.5733 100.458 37.9072 99.124 37.9072 97.4111L37.9072 3.04688C37.9072 1.33399 36.5733 0 34.8267 0C33.1289 0 31.8623 1.33399 31.8623 3.04688L31.8623 97.4111C31.8623 99.124 33.1289 100.458 34.8267 100.458Z" fill="#000000" fill-opacity="0.85"/>
  <path d="M18.9199 80.7954C20.6514 80.7954 21.9517 79.4614 21.9517 77.7485L21.9517 22.7095C21.9517 20.9966 20.6514 19.644 18.9199 19.644C17.207 19.644 15.9067 20.9966 15.9067 22.7095L15.9067 77.7485C15.9067 79.4614 17.207 80.7954 18.9199 80.7954Z" fill="#000000" fill-opacity="0.85"/>
  <path d="M2.96436 61.9902C4.74464 61.9902 6.04494 60.6562 6.04494 58.9585L6.04494 41.4995C6.04494 39.8018 4.74464 38.4341 2.96436 38.4341C1.2666 38.4341 0 39.8018 0 41.4995L0 58.9585C0 60.6562 1.2666 61.9902 2.96436 61.9902Z" fill="#000000" fill-opacity="0.85"/>
 </g>
</svg>
