<?xml version="1.0" encoding="UTF-8"?>
<!--Generator: Apple Native CoreSVG 232.5-->
<!DOCTYPE svg
PUBLIC "-//W3C//DTD SVG 1.1//EN"
       "http://www.w3.org/Graphics/SVG/1.1/DTD/svg11.dtd">
<svg version="1.1" xmlns="http://www.w3.org/2000/svg" xmlns:xlink="http://www.w3.org/1999/xlink" width="114.117" height="104.139">
 <g>
  <rect height="104.139" opacity="0" width="114.117" x="0" y="0"/>
  <path d="M99.8889 38.7436L99.8889 65.395C99.8889 67.0742 98.5886 68.4082 96.8572 68.4082C95.1257 68.4082 93.8591 67.0742 93.8591 65.395L93.8591 38.7436C93.8591 37.0644 95.1257 35.6968 96.8572 35.6968C98.5886 35.6968 99.8889 37.0644 99.8889 38.7436Z" fill="#000000" fill-opacity="0.85"/>
  <path d="M83.9822 16.6621L83.9822 62.6747L77.9373 56.632L77.9373 16.6621C77.9373 14.998 79.2039 13.6303 80.9353 13.6303C82.6482 13.6303 83.9822 14.998 83.9822 16.6621Z" fill="#000000" fill-opacity="0.85"/>
  <path d="M68.0266 69.208L68.0266 77.1265C68.0266 78.8242 66.7263 80.1245 65.0286 80.1245C63.2634 80.1245 61.9968 78.8242 61.9968 77.1265L61.9968 63.1795ZM68.0266 29.8223L68.0266 46.7252L61.9968 40.6977L61.9968 29.8223C61.9968 28.1245 63.2634 26.7905 65.0286 26.7905C66.7263 26.7905 68.0266 28.1245 68.0266 29.8223Z" fill="#000000" fill-opacity="0.85"/>
  <path d="M52.1199 53.3046L52.1199 99.2514C52.1199 100.964 50.8196 102.298 49.0544 102.298C47.3416 102.298 46.0749 100.964 46.0749 99.2514L46.0749 47.261ZM52.1199 4.88719L52.1199 30.8245L46.0749 24.7819L46.0749 4.88719C46.0749 3.17429 47.3416 1.84031 49.0544 1.84031C50.8196 1.84031 52.1199 3.17429 52.1199 4.88719Z" fill="#000000" fill-opacity="0.85"/>
  <path d="M36.198 37.3861L36.198 79.5888C36.198 81.3017 34.864 82.6357 33.1326 82.6357C31.4348 82.6357 30.1682 81.3017 30.1682 79.5888L30.1682 31.3576Z" fill="#000000" fill-opacity="0.85"/>
  <path d="M20.2576 43.3398L20.2576 60.7988C20.2576 62.4966 18.9573 63.8305 17.2258 63.8305C15.4792 63.8305 14.2126 62.4966 14.2126 60.7988L14.2126 43.3398C14.2126 41.6421 15.4792 40.2744 17.2258 40.2744C18.9573 40.2744 20.2576 41.6421 20.2576 43.3398Z" fill="#000000" fill-opacity="0.85"/>
  <path d="M104.091 98.1626C105.223 99.2944 107.119 99.2944 108.218 98.1626C109.38 96.9668 109.349 95.1679 108.218 94.0361L20.1087 5.89353C19.0071 4.77683 17.1106 4.73142 15.9485 5.89353C14.8166 6.99168 14.8166 8.92186 15.9485 10.02Z" fill="#000000" fill-opacity="0.85"/>
 </g>
</svg>
