<?xml version="1.0" encoding="UTF-8"?>
<!--Generator: Apple Native CoreSVG 232.5-->
<!DOCTYPE svg
PUBLIC "-//W3C//DTD SVG 1.1//EN"
       "http://www.w3.org/Graphics/SVG/1.1/DTD/svg11.dtd">
<svg version="1.1" xmlns="http://www.w3.org/2000/svg" xmlns:xlink="http://www.w3.org/1999/xlink" width="114.35" height="88.4395">
 <g>
  <rect height="88.4395" opacity="0" width="114.35" x="0" y="0"/>
  <path d="M14.3936 88.4092L99.9409 88.4092C109.514 88.4092 114.35 83.5615 114.35 74.169L114.35 14.2739C114.35 4.88135 109.514 0 99.9409 0L14.3936 0C4.86963 0 0 4.83594 0 14.2739L0 74.169C0 83.6069 4.86963 88.4092 14.3936 88.4092ZM14.5064 82.3794C9.00294 82.3794 6.04494 79.4736 6.04494 73.8355L6.04494 14.6074C6.04494 8.96925 9.00294 6.04494 14.5064 6.04494L99.8433 6.04494C105.237 6.04494 108.305 8.96925 108.305 14.6074L108.305 73.8355C108.305 79.4736 105.237 82.3794 99.8433 82.3794Z" fill="#000000" fill-opacity="0.85"/>
  <path d="M6.07863 47.8413L17.2525 47.8413C18.9063 47.8413 19.6675 47.1406 20.3057 45.5679L27.6421 27.9439L40.3174 67.4844C41.0112 69.7007 44.5396 69.6367 45.2671 67.3833L51.5537 47.8413L64.0762 47.8413C65.7451 47.8413 66.4727 47.1406 67.1445 45.5679L74.6006 27.9439L87.3096 67.4844C88.0034 69.7007 91.5317 69.6367 92.2256 67.3833L98.5459 47.8413L108.354 47.8413L108.354 42.8291L97.3179 42.8291C95.664 42.8291 94.7446 43.6392 94.2646 45.0723L89.6977 58.3501L77.019 20.1607C76.3066 18.0386 73.063 17.9326 72.1216 20.2617L62.833 42.8291L50.3257 42.8291C48.7056 42.8291 47.8013 43.6392 47.2725 45.0723L42.7056 58.3501L30.0269 20.1607C29.3482 18.0386 26.0708 17.9326 25.1445 20.2617L15.8408 42.8291L6.07863 42.8291Z" fill="#000000" fill-opacity="0.85"/>
 </g>
</svg>
