<?xml version="1.0" encoding="UTF-8"?>
<!--Generator: Apple Native CoreSVG 232.5-->
<!DOCTYPE svg
PUBLIC "-//W3C//DTD SVG 1.1//EN"
       "http://www.w3.org/Graphics/SVG/1.1/DTD/svg11.dtd">
<svg version="1.1" xmlns="http://www.w3.org/2000/svg" xmlns:xlink="http://www.w3.org/1999/xlink" width="67.6621" height="113.037">
 <g>
  <rect height="113.037" opacity="0" width="67.6621" x="0" y="0"/>
  <path d="M0 56.5277C0 76.5883 6.24854 95.4935 17.4927 111.37C20.2803 115.206 25.5034 111.725 22.7461 107.933C12.1133 93.0394 6.43068 75.3485 6.43068 56.5277C6.43068 37.6766 12.0982 19.952 22.7461 5.05798C25.6011 1.18736 20.1304-2.04995 17.4927 1.65562C6.21826 17.4979 0 36.4032 0 56.5277Z" fill="#000000" fill-opacity="0.85"/>
  <path d="M26.127 56.5277C26.127 71.4813 30.8398 85.5643 39.4253 97.1283C42.3291 101.1 47.5 97.3119 44.7124 93.6922C36.7569 83.0311 32.5088 70.1962 32.5088 56.5277C32.5088 42.8441 36.7569 29.994 44.7124 19.348C47.5 15.7132 42.3291 11.9251 39.4253 15.8631C30.8398 27.4271 26.127 41.5589 26.127 56.5277Z" fill="#000000" fill-opacity="0.85"/>
  <path d="M52.1714 56.5277C52.1714 66.3895 55.5776 75.5829 61.7149 82.6766C64.7954 86.2929 69.2808 82.1932 66.9683 79.2591C61.1206 72.2005 58.5532 65.288 58.5532 56.5277C58.5532 47.7523 61.1206 40.87 66.9834 33.7963C69.3111 30.7982 64.9199 26.5741 61.7149 30.3299C55.5776 37.4725 52.1714 46.6507 52.1714 56.5277Z" fill="#000000" fill-opacity="0.85"/>
 </g>
</svg>
