<?xml version="1.0" encoding="UTF-8"?>
<!--Generator: Apple Native CoreSVG 232.5-->
<!DOCTYPE svg
PUBLIC "-//W3C//DTD SVG 1.1//EN"
       "http://www.w3.org/Graphics/SVG/1.1/DTD/svg11.dtd">
<svg version="1.1" xmlns="http://www.w3.org/2000/svg" xmlns:xlink="http://www.w3.org/1999/xlink" width="97.9595" height="97.9932">
 <g>
  <rect height="97.9932" opacity="0" width="97.9595" x="0" y="0"/>
  <path d="M48.9722 97.9443C75.8247 97.9443 97.9595 75.7759 97.9595 48.9722C97.9595 22.1348 75.791 0 48.9385 0C22.1348 0 0 22.1348 0 48.9722C0 75.7759 22.1685 97.9443 48.9722 97.9443ZM48.9722 91.6113C25.3501 91.6113 6.36671 72.5942 6.36671 48.9722C6.36671 25.3501 25.3164 6.31789 48.9385 6.31789C72.5605 6.31789 91.6265 25.3501 91.6265 48.9722C91.6265 72.5942 72.5942 91.6113 48.9722 91.6113Z" fill="#000000" fill-opacity="0.85"/>
  <path d="M28.8682 48.8931C28.8682 60.2446 32.2339 71.1299 38.418 80.0415C39.3814 81.2861 40.9292 81.6196 42.1401 80.7876C43.3848 79.8765 43.5986 78.2983 42.669 77.0166C37.1636 69.4502 34.0337 59.4341 34.0337 48.8931C34.0337 38.2847 37.1299 28.3848 42.669 20.7847C43.5986 19.5215 43.3848 17.9097 42.1401 16.9985C40.8955 16.1665 39.3477 16.4663 38.418 17.7783C32.2339 26.7236 28.8682 37.6089 28.8682 48.8931Z" fill="#000000" fill-opacity="0.85"/>
  <path d="M44.439 48.8931C44.439 57.335 46.877 65.2148 51.374 71.3149C52.2886 72.563 53.8179 72.8291 55.0322 71.9971C56.1943 71.1987 56.5059 69.5869 55.5913 68.2412C51.7764 63.1382 49.6719 56.2739 49.6719 48.8931C49.6719 41.561 51.7764 34.6817 55.5913 29.5786C56.5059 28.2329 56.1943 26.6211 55.0322 25.8228C53.8179 24.957 52.2886 25.2568 51.374 26.4712C46.877 32.5039 44.439 40.3652 44.439 48.8931Z" fill="#000000" fill-opacity="0.85"/>
  <path d="M59.9795 48.8931C59.9795 54.0352 61.5234 59.1284 64.2173 62.6523C65.0947 63.8482 66.7217 64.1816 67.8872 63.353C69.2144 62.3594 69.3862 60.7476 68.374 59.353C66.374 56.6577 65.2124 52.7905 65.2124 48.8931C65.2124 44.9282 66.374 41.0762 68.374 38.4668C69.4199 37.0723 69.2481 35.4082 67.8872 34.4331C66.7217 33.6533 65.1133 33.9717 64.2173 35.1338C61.5234 38.7925 59.9795 43.8521 59.9795 48.8931Z" fill="#000000" fill-opacity="0.85"/>
 </g>
</svg>
