<?xml version="1.0" encoding="UTF-8"?>
<!--Generator: Apple Native CoreSVG 232.5-->
<!DOCTYPE svg
PUBLIC "-//W3C//DTD SVG 1.1//EN"
       "http://www.w3.org/Graphics/SVG/1.1/DTD/svg11.dtd">
<svg version="1.1" xmlns="http://www.w3.org/2000/svg" xmlns:xlink="http://www.w3.org/1999/xlink" width="67.6653" height="113.037">
 <g>
  <rect height="113.037" opacity="0" width="67.6653" x="0" y="0"/>
  <path d="M67.6637 56.5277C67.6637 36.4032 61.4303 17.4979 50.1373 1.65562C47.4845-2.04995 42.0475 1.18736 44.9024 5.05798C55.5655 19.952 61.2179 37.6766 61.2179 56.5277C61.2179 75.3485 55.5167 93.0394 44.9024 107.933C42.1603 111.725 47.3683 115.206 50.1373 111.37C61.4152 95.4935 67.6637 76.5883 67.6637 56.5277Z" fill="#000000" fill-opacity="0.85"/>
  <path d="M41.5367 56.5277C41.5367 41.5589 36.8238 27.4271 28.2384 15.8631C25.3009 11.9251 20.1637 15.7132 22.9176 19.348C30.9068 29.994 35.1549 42.8441 35.1549 56.5277C35.1549 70.1962 30.9068 83.0311 22.9176 93.6922C20.1637 97.3119 25.3009 101.1 28.2384 97.1283C36.8238 85.5643 41.5367 71.4813 41.5367 56.5277Z" fill="#000000" fill-opacity="0.85"/>
  <path d="M15.4923 56.5277C15.4923 46.6507 12.0861 37.4725 5.94884 30.3299C2.74376 26.5741-1.69619 30.7982 0.66514 33.7963C6.54307 40.87 9.07676 47.7523 9.07676 56.5277C9.07676 65.288 6.54307 72.2005 0.695413 79.2591C-1.61709 82.1932 2.85313 86.2929 5.94884 82.6766C12.0861 75.5829 15.4923 66.3895 15.4923 56.5277Z" fill="#000000" fill-opacity="0.85"/>
 </g>
</svg>
