<?xml version="1.0" encoding="UTF-8"?>
<!--Generator: Apple Native CoreSVG 232.5-->
<!DOCTYPE svg
PUBLIC "-//W3C//DTD SVG 1.1//EN"
       "http://www.w3.org/Graphics/SVG/1.1/DTD/svg11.dtd">
<svg version="1.1" xmlns="http://www.w3.org/2000/svg" xmlns:xlink="http://www.w3.org/1999/xlink" width="97.9595" height="97.9932">
 <g>
  <rect height="97.9932" opacity="0" width="97.9595" x="0" y="0"/>
  <path d="M48.9722 97.9443C75.8247 97.9443 97.9595 75.7759 97.9595 48.9722C97.9595 22.1348 75.791 0 48.9385 0C22.1348 0 0 22.1348 0 48.9722C0 75.7759 22.1685 97.9443 48.9722 97.9443ZM48.9722 91.6113C25.3501 91.6113 6.36671 72.5942 6.36671 48.9722C6.36671 25.3501 25.3164 6.31789 48.9385 6.31789C72.5605 6.31789 91.6265 25.3501 91.6265 48.9722C91.6265 72.5942 72.5942 91.6113 48.9722 91.6113Z" fill="#000000" fill-opacity="0.85"/>
  <path d="M21.1426 45.2383C21.7168 45.895 22.6734 45.8462 23.2998 45.1558C29.9048 38.1231 38.8618 34.3096 48.9233 34.3096C59 34.3096 68.085 38.0625 74.6479 45.1895C75.2559 45.8125 76.145 45.8613 76.7041 45.2197L80.2754 41.5659C80.8008 41.0254 80.8345 40.3164 80.3916 39.7085C73.6904 31.5728 61.2261 25.9829 48.9233 25.9829C36.6543 25.9829 24.1411 31.5425 17.5039 39.7085C17.0122 40.3164 17.1099 41.0254 17.5864 41.5659Z" fill="#000000" fill-opacity="0.85"/>
  <path d="M32.6538 56.7647C33.2803 57.4248 34.1206 57.376 34.8296 56.6519C38.2373 52.8838 43.7007 50.4341 48.9233 50.4829C54.1611 50.4341 59.6094 52.8838 63.1182 56.6856C63.7749 57.4097 64.6152 57.4248 65.208 56.7647L69.2827 52.7236C69.793 52.2134 69.8906 51.4556 69.3652 50.9116C64.9976 45.5708 57.0825 42.1074 48.9233 42.1074C40.813 42.1074 32.8643 45.5859 28.5151 50.9116C28.0352 51.4893 28.0537 52.1797 28.6465 52.7236Z" fill="#000000" fill-opacity="0.85"/>
  <path d="M48.9233 71.9497C49.5649 71.9497 50.0078 71.6719 51.1528 70.6431L57.8018 64.2383C58.2632 63.7432 58.3457 63.0947 57.918 62.5054C56.1011 60.0352 52.5181 58.2471 48.9233 58.2471C45.3101 58.2471 41.7607 60.0688 39.9102 62.6587C39.501 63.1807 39.6021 63.7432 40.1123 64.2383L46.7427 70.6431C47.854 71.6382 48.2969 71.9497 48.9233 71.9497Z" fill="#000000" fill-opacity="0.85"/>
 </g>
</svg>
