<?xml version="1.0" encoding="UTF-8"?>
<!--Generator: Apple Native CoreSVG 232.5-->
<!DOCTYPE svg
PUBLIC "-//W3C//DTD SVG 1.1//EN"
       "http://www.w3.org/Graphics/SVG/1.1/DTD/svg11.dtd">
<svg version="1.1" xmlns="http://www.w3.org/2000/svg" xmlns:xlink="http://www.w3.org/1999/xlink" width="88.4092" height="88.5371">
 <g>
  <rect height="88.5371" opacity="0" width="88.4092" x="0" y="0"/>
  <path d="M14.3936 88.5371L74.0005 88.5371C83.5733 88.5371 88.4092 83.6558 88.4092 74.2632L88.4092 14.4019C88.4092 5.00928 83.5733 0.127929 74.0005 0.127929L14.3936 0.127929C4.86963 0.127929 0 4.93018 0 14.4019L0 74.2632C0 83.7349 4.86963 88.5371 14.3936 88.5371ZM14.5064 82.4922C9.00294 82.4922 6.04494 79.6016 6.04494 73.9634L6.04494 14.7017C6.04494 9.06349 9.00294 6.17287 14.5064 6.17287L73.9028 6.17287C79.2969 6.17287 82.3643 9.06349 82.3643 14.7017L82.3643 73.9634C82.3643 79.6016 79.2969 82.4922 73.9028 82.4922Z" fill="#000000" fill-opacity="0.85"/>
  <path d="M16.4331 40.5103C16.9922 41.167 17.9487 41.1182 18.5903 40.4277C25.1953 33.395 34.1524 29.5816 44.2139 29.5816C54.3091 29.5816 63.3604 33.3345 69.9385 40.4614C70.5312 41.0845 71.4541 41.1333 72.0283 40.4917L75.5508 36.8379C76.0913 36.2974 76.125 35.5884 75.667 34.9805C69.0147 26.8447 56.5166 21.2549 44.2139 21.2549C31.9448 21.2549 19.4317 26.8145 12.7793 34.9805C12.3027 35.5884 12.3853 36.2974 12.877 36.8379Z" fill="#000000" fill-opacity="0.85"/>
  <path d="M27.9292 52.0366C28.5708 52.6968 29.396 52.648 30.1201 51.9238C33.5278 48.1558 38.9761 45.7061 44.2139 45.7549C49.4517 45.7061 54.8999 48.1558 58.4087 51.9575C59.0654 52.6816 59.8906 52.6968 60.4985 52.0366L64.5732 47.9956C65.0835 47.4854 65.166 46.7275 64.6558 46.1836C60.273 40.8428 52.3579 37.3794 44.2139 37.3794C36.1035 37.3794 28.1733 40.8579 23.8057 46.1836C23.3106 46.7612 23.3442 47.4517 23.9219 47.9956Z" fill="#000000" fill-opacity="0.85"/>
  <path d="M44.2139 67.2217C44.8403 67.2217 45.2983 66.9439 46.4434 65.915L53.0923 59.5103C53.5537 59.0151 53.6362 58.3667 53.2085 57.7773C51.3916 55.3071 47.7935 53.519 44.2139 53.519C40.6006 53.519 37.0698 55.3408 35.1856 57.9307C34.7915 58.4526 34.8926 59.0151 35.4028 59.5103L42.0181 65.915C43.1294 66.9102 43.5874 67.2217 44.2139 67.2217Z" fill="#000000" fill-opacity="0.85"/>
 </g>
</svg>
