<?xml version="1.0" encoding="UTF-8"?>
<!--Generator: Apple Native CoreSVG 232.5-->
<!DOCTYPE svg
PUBLIC "-//W3C//DTD SVG 1.1//EN"
       "http://www.w3.org/Graphics/SVG/1.1/DTD/svg11.dtd">
<svg version="1.1" xmlns="http://www.w3.org/2000/svg" xmlns:xlink="http://www.w3.org/1999/xlink" width="111.366" height="105.737">
 <g>
  <rect height="105.737" opacity="0" width="111.366" x="0" y="0"/>
  <path d="M91.4476 56.6797C92.1195 57.498 92.037 58.4814 91.3163 59.2022L84.0961 66.3735C83.1278 67.2441 82.0282 67.2778 81.1644 66.313C77.3138 62.1283 71.9526 58.6779 66.0314 56.7562L66.1038 42.3174C76.7193 44.505 85.9396 49.8877 91.4476 56.6797ZM45.3887 56.7294C39.4887 58.6244 34.1388 62.0365 30.3212 66.2119C29.4052 67.2105 28.2382 67.3115 27.2699 66.4072L20.0497 59.2022C19.2953 58.4141 19.2465 57.498 19.9183 56.6797C25.4551 49.8921 34.6769 44.4993 45.2995 42.3131Z" fill="#000000" fill-opacity="0.85"/>
  <path d="M45.2074 27.4135C31.6187 29.4853 19.5233 35.8359 9.97498 45.9331C9.1078 46.8491 7.89197 46.8491 6.99109 45.9819L0.616092 39.5396C-0.138303 38.7363-0.168576 37.7227 0.499881 36.9229C10.0205 25.1437 26.8392 16.1131 45.1216 13.5503ZM110.866 36.9229C111.535 37.7227 111.568 38.7363 110.75 39.5396L104.375 45.9146C103.474 46.7817 102.292 46.8154 101.458 45.9668C92.0181 35.8024 79.8446 29.4648 66.1785 27.4057L66.248 13.5508C84.5313 16.116 101.291 25.1557 110.866 36.9229Z" fill="#000000" fill-opacity="0.85"/>
  <path d="M55.683 92.2886C59.3944 92.2886 62.3783 89.2373 62.3783 85.5596C62.3783 81.833 59.3944 78.8491 55.683 78.8491C52.0053 78.8491 48.9877 81.8179 48.9877 85.5596C48.9877 89.2373 52.0053 92.2886 55.683 92.2886ZM55.7167 71.2358C57.6991 71.2358 59.0482 69.9204 59.0819 67.8555C59.183 48.7515 59.2841 29.5498 59.37 10.4121C59.37 8.27979 57.7142 6.85987 55.683 6.85987C53.6517 6.85987 51.996 8.27979 51.996 10.4121C52.1156 29.5498 52.2167 48.7515 52.3514 67.8555C52.3851 69.9204 53.704 71.2358 55.7167 71.2358Z" fill="#000000" fill-opacity="0.85"/>
 </g>
</svg>
