<?xml version="1.0" encoding="UTF-8"?>
<!--Generator: Apple Native CoreSVG 232.5-->
<!DOCTYPE svg
PUBLIC "-//W3C//DTD SVG 1.1//EN"
       "http://www.w3.org/Graphics/SVG/1.1/DTD/svg11.dtd">
<svg version="1.1" xmlns="http://www.w3.org/2000/svg" xmlns:xlink="http://www.w3.org/1999/xlink" width="111.366" height="113.078">
 <g>
  <rect height="113.078" opacity="0" width="111.366" x="0" y="0"/>
  <path d="M71.2177 80.7755C71.871 81.6242 71.6908 82.5319 71.0189 83.1735L59.2714 94.4782C57.473 96.2277 56.621 96.7008 55.683 96.7008C54.745 96.7008 53.8929 96.194 52.0946 94.4782L40.3505 83.1735C39.6449 82.5319 39.495 81.7589 39.9984 80.9625C42.9755 76.9718 48.9813 73.4576 55.683 73.4576C62.265 73.4576 68.2406 76.8707 71.2177 80.7755Z" fill="#000000" fill-opacity="0.85"/>
  <path d="M56.5176 58.7674C56.2398 58.7473 55.9614 58.7448 55.683 58.7462C45.993 58.6974 36.2865 63.358 30.3212 69.8825C29.4052 70.881 28.2382 70.9821 27.2699 70.0778L20.0497 62.8727C19.2953 62.0846 19.2465 61.1686 19.9183 60.3502C25.2311 53.8373 33.9368 48.6085 44.0207 46.2705ZM91.4476 60.3502C92.1195 61.1686 92.037 62.152 91.3163 62.8727L87.1851 66.9759L66.2188 46.0096C76.7854 48.2141 85.9593 53.5826 91.4476 60.3502Z" fill="#000000" fill-opacity="0.85"/>
  <path d="M32.3016 34.5514C23.9144 37.7544 16.3729 42.8379 9.97498 49.6037C9.1078 50.5197 7.89197 50.5197 6.99109 49.6525L0.616092 43.2101C-0.138303 42.4069-0.168576 41.3932 0.499881 40.5934C5.75784 34.0881 13.2417 28.4211 21.9842 24.234ZM110.866 40.5934C111.535 41.3932 111.568 42.4069 110.75 43.2101L104.375 49.5851C103.474 50.4523 102.292 50.486 101.458 49.6373C89.6503 36.9235 73.5658 30.1969 55.683 30.1969C53.981 30.1969 52.2961 30.2587 50.6473 30.4381L38.6204 18.4112C44.1546 17.1302 49.9022 16.4415 55.683 16.4415C77.8851 16.4415 99.4672 26.5846 110.866 40.5934Z" fill="#000000" fill-opacity="0.85"/>
  <path d="M97.7079 92.8546C98.8397 93.9865 100.721 93.9865 101.834 92.8546C102.963 91.6588 102.966 89.86 101.834 88.7282L18.994 5.88782C17.8773 4.77112 16.0297 4.74085 14.8339 5.88782C13.7357 7.00111 13.7357 8.94984 14.8339 10.0143Z" fill="#000000" fill-opacity="0.85"/>
 </g>
</svg>
