<?xml version="1.0" encoding="UTF-8"?>
<!--Generator: Apple Native CoreSVG 232.5-->
<!DOCTYPE svg
PUBLIC "-//W3C//DTD SVG 1.1//EN"
       "http://www.w3.org/Graphics/SVG/1.1/DTD/svg11.dtd">
<svg version="1.1" xmlns="http://www.w3.org/2000/svg" xmlns:xlink="http://www.w3.org/1999/xlink" width="103.396" height="84.3623">
 <g>
  <rect height="84.3623" opacity="0" width="103.396" x="0" y="0"/>
  <path d="M7.24707 28.1953C14.0815 25.7222 21.4326 24.3989 28.5327 24.3989C38.1074 24.3989 44.6084 26.0303 53.5889 26.0303C61.8481 26.0303 67.1807 20.4365 67.1807 12.9756C67.1807 5.54639 61.501 0 54.2842 0C48.521 0 43.6987 3.80322 42.0566 8.68408C41.4873 10.0078 41.8711 11.4092 43.2622 12.0005C44.5068 12.5093 45.8813 12.0361 46.604 10.5371C47.5874 7.47169 50.5874 5.01905 54.2842 5.01905C58.7607 5.01905 62.1465 8.33546 62.1465 12.9756C62.1465 17.7974 58.7676 21.0298 53.5889 21.0298C44.8477 21.0298 38.4458 19.3984 28.5327 19.3984C20.6494 19.3984 12.6382 20.9507 5.61182 23.5029C4.03027 23.998 3.4458 25.3774 3.85839 26.6743C4.25586 28.0049 5.56445 28.7241 7.24707 28.1953ZM84.4922 50.3052C95.7783 50.3052 103.396 43.3662 103.396 33.6372C103.396 24.2363 96.0933 17.1309 86.9351 17.1309C78.2485 17.1309 71.7964 23.4194 70.8061 31.3853C70.5889 32.9971 71.5303 34.2451 72.9248 34.3984C74.3228 34.5669 75.522 33.6709 75.8066 31.936C76.5459 26.3399 81.127 22.1314 86.9351 22.1314C93.3008 22.1314 98.3769 27.0288 98.3769 33.6372C98.3769 40.54 92.9927 45.3047 84.4922 45.3047C69.3271 45.3047 53.1719 36.8086 33.5044 36.8086C23.2642 36.8086 14.1904 38.5713 5.61182 41.7349C4.0791 42.3008 3.4458 43.6919 3.85839 44.9736C4.25586 46.3193 5.59814 47.0723 7.2168 46.4912C15.2061 43.1309 23.6582 41.8428 33.5044 41.8428C52.9717 41.8428 68.0522 50.3052 84.4922 50.3052ZM53.6831 84.3506C60.8091 84.3506 66.3018 79.0112 66.3018 71.5064C66.3018 60.4219 54.7158 54.2188 33.687 54.2188C24.2266 54.2188 14.0186 56.1885 5.64209 59.1113C4.0791 59.6924 3.4458 61.0684 3.85839 62.3501C4.25586 63.6807 5.59814 64.4639 7.2168 63.8828C15.2075 60.9028 24.5649 59.2529 33.687 59.2529C51.5933 59.2529 61.3013 63.9082 61.3013 71.5064C61.3013 76.2373 57.9492 79.3652 53.6831 79.3652C49.5078 79.3652 46.7554 76.6563 46.0718 72.2066C45.8545 70.7935 44.7935 69.5977 43.1782 69.6987C41.4653 69.7847 40.7226 71.2466 40.9551 72.8247C41.8188 79.4907 46.6968 84.3506 53.6831 84.3506Z" fill="#000000" fill-opacity="0.85"/>
 </g>
</svg>
