<?xml version="1.0" encoding="UTF-8"?>
<!--Generator: Apple Native CoreSVG 232.5-->
<!DOCTYPE svg
PUBLIC "-//W3C//DTD SVG 1.1//EN"
       "http://www.w3.org/Graphics/SVG/1.1/DTD/svg11.dtd">
<svg version="1.1" xmlns="http://www.w3.org/2000/svg" xmlns:xlink="http://www.w3.org/1999/xlink" width="103.968" height="93.7012">
 <g>
  <rect height="93.7012" opacity="0" width="103.968" x="0" y="0"/>
  <path d="M8.43138 93.7012L72.8494 93.7012C77.5974 93.7012 80.5896 91.0645 81.8069 86.7036L103.471 10.4439C105.258 4.09717 102.136 0.0371099 95.552 0.0371099L31.1189 0.0371099C26.3708 0.0371099 23.4275 2.67383 22.1765 7.01611L0.511936 83.3096C-1.28982 89.6226 1.83225 93.7012 8.43138 93.7012ZM6.47777 84.0083L16.366 49.4014L48.1413 49.4014L37.2112 87.6377L9.33958 87.6377C6.86498 87.6377 5.80443 86.3399 6.47777 84.0083ZM18.0115 43.439L27.5393 10.1001C28.258 7.5381 29.6638 6.11574 32.1467 6.11574L60.4963 6.11574L49.8205 43.439ZM43.4548 87.6377L54.3513 49.4014L86.1926 49.4014L76.4289 83.6533C75.7102 86.1665 74.3044 87.6377 71.8367 87.6377ZM55.9968 43.439L66.6911 6.11574L94.6286 6.11574C97.1033 6.11574 98.1789 7.39845 97.5056 9.72999L87.8567 43.439Z" fill="#000000" fill-opacity="0.85"/>
 </g>
</svg>
