<?xml version="1.0" encoding="UTF-8"?>
<!--Generator: Apple Native CoreSVG 232.5-->
<!DOCTYPE svg
PUBLIC "-//W3C//DTD SVG 1.1//EN"
       "http://www.w3.org/Graphics/SVG/1.1/DTD/svg11.dtd">
<svg version="1.1" xmlns="http://www.w3.org/2000/svg" xmlns:xlink="http://www.w3.org/1999/xlink" width="80.8657" height="101.755">
 <g>
  <rect height="101.755" opacity="0" width="80.8657" x="0" y="0"/>
  <path d="M0 93.5615C0 98.4136 3.35987 101.706 8.38869 101.706L72.4771 101.706C77.5396 101.706 80.8657 98.4136 80.8657 93.5615L80.8657 8.14455C80.8657 3.27735 77.5396 0 72.4771 0L8.38869 0C3.35987 0 0 3.27735 0 8.14455ZM6.06007 93.0884L6.06007 8.61769C6.06007 7.05519 7.07033 6.04494 8.53517 6.04494L72.3306 6.04494C73.8291 6.04494 74.8057 7.05519 74.8057 8.61769L74.8057 93.0884C74.8057 94.6509 73.8291 95.6611 72.3306 95.6611L8.53517 95.6611C7.07033 95.6611 6.06007 94.6509 6.06007 93.0884Z" fill="#000000" fill-opacity="0.85"/>
  <path d="M12.4038 27.606L68.4956 27.606C69.2266 27.606 69.7925 27.0401 69.7925 26.3277L69.7925 12.355C69.7925 11.624 69.2266 11.043 68.4956 11.043L12.4038 11.043C11.6729 11.043 11.107 11.624 11.107 12.355L11.107 26.3277C11.107 27.0401 11.6729 27.606 12.4038 27.606ZM32.6343 21.4942C31.3394 21.4942 30.4082 20.6118 30.4082 19.3169C30.4082 18.022 31.3394 17.1397 32.6343 17.1397L48.2651 17.1397C49.5752 17.1397 50.4575 18.022 50.4575 19.3169C50.4575 20.6118 49.5752 21.4942 48.2651 21.4942Z" fill="#000000" fill-opacity="0.85"/>
 </g>
</svg>
