<?xml version="1.0" encoding="UTF-8"?>
<!--Generator: Apple Native CoreSVG 232.5-->
<!DOCTYPE svg
PUBLIC "-//W3C//DTD SVG 1.1//EN"
       "http://www.w3.org/Graphics/SVG/1.1/DTD/svg11.dtd">
<svg version="1.1" xmlns="http://www.w3.org/2000/svg" xmlns:xlink="http://www.w3.org/1999/xlink" width="118.206" height="91.2237">
 <g>
  <rect height="91.2237" opacity="0" width="118.206" x="0" y="0"/>
  <path d="M118.206 40.586L118.206 76.9497C118.206 86.3423 113.37 91.2237 103.797 91.2237L14.3936 91.2237C4.86963 91.2237 0 86.3877 0 76.9497L0 40.586C0 31.1143 4.86963 26.312 14.3936 26.312L50.4145 26.312L50.4145 32.357L14.5064 32.357C9.00294 32.357 6.04494 35.2476 6.04494 40.8858L6.04494 76.6162C6.04494 82.2544 9.00294 85.1787 14.5064 85.1787L103.666 85.1787C109.06 85.1787 112.161 82.2544 112.161 76.6162L112.161 40.8858C112.161 35.2476 109.06 32.357 103.666 32.357L67.7915 32.357L67.7915 26.312L103.797 26.312C113.37 26.312 118.206 31.1934 118.206 40.586Z" fill="#000000" fill-opacity="0.85"/>
  <path d="M5.9961 14.5327C7.39747 15.3985 9.05811 15.043 10.1865 13.6821C12.9932 10.2324 16.5288 7.68849 20.5225 6.36671C22.1528 5.7671 23.1382 4.33888 22.8047 2.73536C22.4038 0.88428 20.5864-0.0151366 18.311 0.768068C13.4365 2.30713 8.8667 5.60401 5.40479 9.97168C4.02539 11.6323 4.50879 13.6333 5.9961 14.5327ZM53.0674 14.4653C54.5698 13.5659 54.9522 11.6138 53.6065 9.95313C50.1445 5.57032 45.5747 2.30713 40.7339 0.80176C38.3237-0.0488281 36.5737 1.01905 36.2402 2.80274C35.9741 4.37257 36.8921 5.7671 38.5225 6.36671C42.4824 7.68849 46.0181 10.2324 48.791 13.6636C50.0205 15.1104 51.6475 15.3462 53.0674 14.4653ZM65.1235 14.4653C66.5586 15.3462 68.1519 15.1104 69.3999 13.6636C72.1543 10.2324 75.7236 7.68849 79.6348 6.36671C81.314 5.7671 82.2319 4.37257 81.9321 2.80274C81.6323 1.01905 79.8823-0.0488281 77.4722 0.80176C72.6162 2.30713 68.0278 5.57032 64.5508 9.95313C63.2539 11.6138 63.6025 13.5659 65.1235 14.4653ZM112.195 14.5327C113.697 13.6333 114.181 11.6323 112.801 9.97168C109.339 5.60401 104.77 2.30713 99.8613 0.768068C97.6045-0.0151366 95.7686 0.88428 95.4014 2.73536C95.0342 4.33888 96.0381 5.7671 97.6836 6.36671C101.677 7.68849 105.213 10.2324 108.02 13.6821C109.148 15.043 110.809 15.3985 112.195 14.5327ZM59.103 39.1289C60.752 39.1289 62.1011 37.7461 62.1011 36.0821L62.1011 23.6309C62.1011 21.982 60.752 20.6328 59.103 20.6328C57.4541 20.6328 56.0713 21.982 56.0713 23.6309L56.0713 36.0821C56.0713 37.7461 57.4541 39.1289 59.103 39.1289ZM59.103 65.3184C60.752 65.3184 62.1011 63.9693 62.1011 62.3203L62.1011 49.8692C62.1011 48.2202 60.752 46.8374 59.103 46.8374C57.4541 46.8374 56.0713 48.2202 56.0713 49.8692L56.0713 62.3203C56.0713 63.9693 57.4541 65.3184 59.103 65.3184Z" fill="#000000" fill-opacity="0.85"/>
 </g>
</svg>
