<?xml version="1.0" encoding="UTF-8"?>
<!--Generator: Apple Native CoreSVG 232.5-->
<!DOCTYPE svg
PUBLIC "-//W3C//DTD SVG 1.1//EN"
       "http://www.w3.org/Graphics/SVG/1.1/DTD/svg11.dtd">
<svg version="1.1" xmlns="http://www.w3.org/2000/svg" xmlns:xlink="http://www.w3.org/1999/xlink" width="97.9595" height="97.9932">
 <g>
  <rect height="97.9932" opacity="0" width="97.9595" x="0" y="0"/>
  <path d="M97.9595 49.021C97.9595 75.8584 75.8247 97.9932 48.9722 97.9932C22.1685 97.9932 0 75.8584 0 49.021C0 22.2173 22.1348 0.0488281 48.9385 0.0488281C75.791 0.0488281 97.9595 22.2173 97.9595 49.021ZM18.6626 59.2524C17.44 59.7139 16.7949 60.918 17.2564 61.9756C17.5679 63.1006 18.8023 63.7979 20.1294 63.3179C25.1265 61.4727 30.9448 60.3901 36.7315 60.3901C47.9565 60.3901 53.6606 63.1445 53.6606 67.606C53.6606 70.3569 51.8828 72.0269 49.4165 72.0269C46.9956 72.0269 45.5513 70.6362 45.1455 67.9678C44.9956 66.8799 44.0728 65.8223 42.7642 65.9233C41.2266 65.9907 40.6187 67.3447 40.7686 68.5337C41.2905 73.0259 44.6782 76.3179 49.4165 76.3179C54.2153 76.3179 57.9854 72.7012 57.9854 67.606C57.9854 60.1553 50.2891 56.0806 36.7315 56.0806C30.689 56.0806 24.042 57.3398 18.6626 59.2524ZM59.7188 42.1123C59.4829 43.5034 60.3872 44.561 61.5425 44.6958C62.7163 44.8306 63.7588 44.0239 64.0098 42.6328C64.419 39.3213 67.0352 36.8838 70.4829 36.8838C74.2676 36.8838 77.1953 39.6582 77.1953 43.6299C77.1953 47.7564 74.0874 50.4063 68.9155 50.4063C59.4517 50.4063 49.1997 45.0083 36.562 45.0083C30.0513 45.0083 24.1616 46.1919 18.6509 48.1987C17.3609 48.6939 16.8589 49.9282 17.2564 50.9858C17.5679 52.1748 18.8023 52.7442 20.1294 52.2793C25.1182 50.1817 30.3628 49.3667 36.562 49.3667C48.8008 49.3667 58.3638 54.7647 68.9155 54.7647C76.398 54.7647 81.5049 50.1006 81.5049 43.6299C81.5049 37.3291 76.5967 32.5742 70.4829 32.5742C64.7363 32.5742 60.3267 36.7632 59.7188 42.1123ZM41.4727 27.6772C41.0684 28.728 41.4487 30.0215 42.6528 30.4443C43.707 30.8521 44.8574 30.416 45.4268 29.1714C46.0464 27.3921 47.6255 26 49.8071 26C52.3525 26 54.2129 27.7979 54.2129 30.5034C54.2129 33.2964 52.3745 35.0522 49.3862 35.0522C43.854 35.0522 39.7793 34.0034 33.4053 34.0034C28.3643 34.0034 23.2105 35.0405 18.6846 36.6836C17.312 37.0776 16.8589 38.3154 17.2564 39.4219C17.583 40.562 18.8174 41.1768 20.1109 40.7339C24.3775 39.1328 28.8779 38.3467 33.4053 38.3467C39.4107 38.3467 43.5913 39.313 49.3862 39.313C54.8721 39.313 58.5562 35.5581 58.5562 30.5034C58.5562 25.5024 54.6328 21.709 49.8071 21.709C45.8657 21.709 42.564 24.3252 41.4727 27.6772Z" fill="#000000" fill-opacity="0.85"/>
 </g>
</svg>
