<?xml version="1.0" encoding="UTF-8"?>
<!--Generator: Apple Native CoreSVG 232.5-->
<!DOCTYPE svg
PUBLIC "-//W3C//DTD SVG 1.1//EN"
       "http://www.w3.org/Graphics/SVG/1.1/DTD/svg11.dtd">
<svg version="1.1" xmlns="http://www.w3.org/2000/svg" xmlns:xlink="http://www.w3.org/1999/xlink" width="94.7456" height="101.755">
 <g>
  <rect height="101.755" opacity="0" width="94.7456" x="0" y="0"/>
  <path d="M0 98.395C0 100.199 1.50733 101.706 3.31104 101.706L91.4346 101.706C93.2535 101.706 94.7456 100.199 94.7456 98.395C94.7456 96.5425 93.2535 95.084 91.4346 95.084L88.6314 95.084L88.6314 5.94337C88.6314 2.39991 86.149 0 82.4439 0L11.9888 0C8.2837 0 5.80128 2.39991 5.80128 5.94337L5.80128 95.084L3.31104 95.084C1.50733 95.084 0 96.5425 0 98.395ZM11.895 47.8213L11.895 7.34816C11.895 6.56691 12.3833 6.04494 13.1006 6.04494L44.7085 6.04494L44.7085 47.8213ZM49.773 47.8213L49.773 6.04494L81.3321 6.04494C82.0493 6.04494 82.5528 6.56691 82.5528 7.34816L82.5528 47.8213ZM11.895 95.084L11.895 53.8511L44.7085 53.8511L44.7085 95.084ZM49.773 95.084L49.773 53.8511L82.5528 53.8511L82.5528 95.084Z" fill="#000000" fill-opacity="0.85"/>
 </g>
</svg>
