<?xml version="1.0" encoding="UTF-8"?>
<!--Generator: Apple Native CoreSVG 232.5-->
<!DOCTYPE svg
PUBLIC "-//W3C//DTD SVG 1.1//EN"
       "http://www.w3.org/Graphics/SVG/1.1/DTD/svg11.dtd">
<svg version="1.1" xmlns="http://www.w3.org/2000/svg" xmlns:xlink="http://www.w3.org/1999/xlink" width="97.9595" height="97.9932">
 <g>
  <rect height="97.9932" opacity="0" width="97.9595" x="0" y="0"/>
  <path d="M48.9722 97.9443C75.8247 97.9443 97.9595 75.7759 97.9595 48.9722C97.9595 22.1348 75.791 0 48.9385 0C22.1348 0 0 22.1348 0 48.9722C0 75.7759 22.1685 97.9443 48.9722 97.9443ZM48.9722 91.6113C25.3501 91.6113 6.36671 72.5942 6.36671 48.9722C6.36671 25.3501 25.3164 6.31789 48.9385 6.31789C72.5605 6.31789 91.6265 25.3501 91.6265 48.9722C91.6265 72.5942 72.5942 91.6113 48.9722 91.6113Z" fill="#000000" fill-opacity="0.85"/>
  <path d="M18.5557 42.9937C22.7061 41.46 27.1543 40.6401 31.5806 40.6401C37.4849 40.6401 41.5645 41.6553 47.2583 41.6553C52.6582 41.6553 56.2412 37.919 56.2412 32.999C56.2412 28.084 52.419 24.4067 47.6943 24.4067C43.8203 24.4067 40.5708 26.9404 39.5283 30.2402C39.1426 31.2759 39.523 32.5508 40.6934 32.9736C41.729 33.3477 42.8457 32.8779 43.3662 31.7007C44.001 29.94 45.5464 28.5967 47.6943 28.5967C50.2061 28.5967 52.0327 30.312 52.0327 32.999C52.0327 35.7583 50.228 37.4805 47.2583 37.4805C41.8272 37.4805 37.8535 36.4316 31.5806 36.4316C26.6255 36.4316 21.5728 37.4351 17.148 39.0781C15.8091 39.4722 15.3745 40.6426 15.7534 41.749C16.0801 42.8555 17.2808 43.4854 18.5557 42.9937ZM66.4136 56.77C73.7612 56.77 78.7822 52.207 78.7822 45.8223C78.7822 39.7051 73.9751 35.0361 67.981 35.0361C62.3203 35.0361 58.0117 39.1392 57.4189 44.4209C57.2017 45.6958 58.0723 46.7686 59.209 46.8696C60.334 46.9893 61.3579 46.2651 61.6089 44.874C62.0181 41.6484 64.5669 39.2446 67.981 39.2446C71.7134 39.2446 74.5586 41.9668 74.5586 45.8223C74.5586 49.8814 71.5181 52.5127 66.4136 52.5127C57.1367 52.5127 47.0869 47.2495 34.6851 47.2495C28.294 47.2495 22.5239 48.3994 17.1143 50.3726C15.8579 50.834 15.3745 52.0347 15.7534 53.0923C16.065 54.2139 17.2656 54.7832 18.5591 54.3521C23.4468 52.2881 28.5718 51.4732 34.6851 51.4732C46.688 51.4732 56.0825 56.77 66.4136 56.77ZM47.3037 77.9004C52.0015 77.9004 55.7041 74.3325 55.7041 69.3569C55.7041 62.0747 48.1426 58.0674 34.8731 58.0674C28.9165 58.0674 22.4194 59.2778 17.126 61.1567C15.937 61.6519 15.3257 62.8037 15.7534 63.8125C16.065 64.919 17.2656 65.6162 18.5591 65.1699C23.4702 63.3247 29.1875 62.2271 34.8731 62.2271C45.8774 62.2271 51.4805 64.9629 51.4805 69.3569C51.4805 72.0557 49.7363 73.6768 47.3037 73.6768C44.9014 73.6768 43.5059 72.3198 43.1001 69.7188C42.9502 68.6309 42.061 67.6069 40.771 67.708C39.3008 67.7754 38.6929 69.0957 38.8428 70.2847C39.3648 74.6421 42.6514 77.9004 47.3037 77.9004ZM67.981 31.5894C68.7319 31.5894 69.1934 30.9175 69.1597 30.1665L69.0435 26.9946L71.648 28.7305C72.2373 29.1245 73.0742 28.9746 73.4497 28.3853C73.9077 27.8145 73.6182 26.9253 72.8452 26.5649L70.0908 25.144L72.8452 23.6709C73.5845 23.2769 73.8555 22.5713 73.4834 21.9028C73.1567 21.2647 72.2676 21.1636 71.648 21.5542L69.0435 23.2935L69.1597 20.1856C69.1934 19.3823 68.7319 18.729 67.981 18.729C67.1929 18.729 66.6978 19.3823 66.7314 20.1519L66.8813 23.2935L64.1943 21.5542C63.5596 21.1636 62.7866 21.231 62.46 21.9028C62.0542 22.5039 62.3066 23.2769 63.0459 23.7046L65.8003 25.144L63.0459 26.5649C62.2275 26.9404 62.0693 27.7471 62.3774 28.3364C62.7344 29.0234 63.5596 29.1548 64.1943 28.7305L66.8813 26.9946L66.7651 30.1665C66.7314 30.9175 67.1929 31.5894 67.981 31.5894ZM67.3374 67.5899C67.4473 67.5899 67.5957 67.4649 67.562 67.3701L67.5249 67.7319L67.1914 67.6387C67.2002 67.7046 67.5088 67.6001 67.5073 67.5762C67.6221 67.4883 67.6455 67.1611 67.4834 67.1289L67.7124 67.3486L67.4834 67.501C67.6573 67.4199 67.5396 67.2461 67.5562 67.2036C67.5274 67.0786 67.2642 66.9775 67.1914 67.0098L67.5249 67.0142L67.562 67.312C67.5957 67.165 67.4473 67.0923 67.3374 67.0923C67.1753 67.0923 66.9932 67.165 67.0269 67.2783L67.0977 67.0142L67.3638 67.0098C67.3247 66.9775 67.1289 67.0449 67.0664 67.2036C67.083 67.1938 66.9131 67.4199 67.1391 67.5347L66.9067 67.3486L67.1391 67.1289C66.9131 67.2251 67.0678 67.4361 67.0327 67.4937C66.9975 67.649 67.3096 67.7198 67.3638 67.6387L67.0977 67.7319L67.0605 67.3701C67.0269 67.4649 67.1753 67.5899 67.3374 67.5899Z" fill="#000000" fill-opacity="0.85"/>
 </g>
</svg>
