<?xml version="1.0" encoding="UTF-8"?>
<!--Generator: Apple Native CoreSVG 232.5-->
<!DOCTYPE svg
PUBLIC "-//W3C//DTD SVG 1.1//EN"
       "http://www.w3.org/Graphics/SVG/1.1/DTD/svg11.dtd">
<svg version="1.1" xmlns="http://www.w3.org/2000/svg" xmlns:xlink="http://www.w3.org/1999/xlink" width="97.9595" height="97.9932">
 <g>
  <rect height="97.9932" opacity="0" width="97.9595" x="0" y="0"/>
  <path d="M97.9595 49.021C97.9595 75.8584 75.8247 97.9932 48.9722 97.9932C22.1685 97.9932 0 75.8584 0 49.021C0 22.2173 22.1348 0.0488281 48.9385 0.0488281C75.791 0.0488281 97.9595 22.2173 97.9595 49.021ZM16.5835 61.5088C15.3272 61.9702 14.7158 63.1743 15.1436 64.1982C15.4551 65.3721 16.6895 66.0205 18.0166 65.5742C23.0137 63.6953 28.8657 62.6465 34.6187 62.6465C45.8438 62.6465 51.5479 65.3823 51.5479 69.8623C51.5479 72.6133 49.77 74.2495 47.3374 74.2495C44.8677 74.2495 43.4722 72.8589 43.0664 70.2241C42.8828 69.0689 41.9937 68.0786 40.6514 68.1797C39.0986 68.2471 38.5059 69.5674 38.6895 70.79C39.2114 75.2822 42.5654 78.5742 47.3374 78.5742C52.1025 78.5742 55.8911 74.939 55.8911 69.8623C55.8911 62.4116 48.1763 58.3521 34.6187 58.3521C28.6099 58.3521 21.9629 59.5625 16.5835 61.5088ZM67.3208 67.5742C67.332 67.5827 67.316 67.6208 67.3008 67.6716C67.2809 67.7001 67.2718 67.7324 67.2689 67.7665L67.2285 67.8203L67.2726 67.861C67.2824 67.9374 67.3021 68.0129 67.2871 68.0664C67.2936 68.1245 67.3649 68.1711 67.4471 68.1949L67.4531 68.2373L67.5515 68.2121C67.5174 68.2109 67.4813 68.2049 67.4471 68.1949L67.4266 68.0509C67.4586 68.108 67.5406 68.1671 67.6457 68.188L67.5515 68.2121C67.5959 68.2139 67.6369 68.2076 67.6661 68.1915C67.6762 68.1934 67.6867 68.1945 67.6974 68.195C67.711 68.2001 67.7322 68.2003 67.7574 68.1972L67.7479 68.1947C67.8211 68.1844 67.9152 68.1247 67.9612 68.0639L67.9379 68.1494C67.8831 68.1692 67.8112 68.1906 67.7574 68.1972L67.9141 68.2373L67.9379 68.1494C67.9768 68.1353 68.007 68.1221 68.0161 68.1153C68.0621 68.0571 68.088 67.9555 68.0862 67.8564L68.1353 67.8203L68.0789 67.7437C68.0733 67.6796 68.057 67.6162 68.0801 67.5742C68.0261 67.4662 67.797 67.376 67.7107 67.3962C67.6956 67.3964 67.6806 67.3978 67.666 67.4002C67.5866 67.3606 67.3778 67.4294 67.3208 67.5742ZM67.3015 67.8877L67.2726 67.861C67.2685 67.8292 67.2662 67.7971 67.2689 67.7665L67.283 67.7477C67.2761 67.7941 67.2776 67.8435 67.3015 67.8877ZM68.0789 67.7437C68.0803 67.7587 68.081 67.7737 68.0805 67.7885C68.0843 67.8105 68.0861 67.8334 68.0862 67.8564L68.0514 67.8819C68.0722 67.8539 68.0795 67.8218 68.0805 67.7885C68.0776 67.7668 68.0728 67.7459 68.0662 67.7264ZM67.4305 67.5091L67.4531 67.4522L67.5366 67.4385C67.4941 67.4578 67.4575 67.4825 67.4305 67.5091ZM67.9141 67.4522L67.9319 67.5016C67.9117 67.4799 67.8876 67.4601 67.862 67.4436ZM57.606 44.3687C57.4038 45.6924 58.3081 46.7988 59.4297 46.9185C60.6035 47.0532 61.6797 46.2803 61.897 44.9043C62.3399 41.5776 64.9561 39.1401 68.3701 39.1401C72.1885 39.1401 75.1162 41.9146 75.1162 45.8862C75.1162 50.0127 71.9932 52.6626 66.8364 52.6626C57.3389 52.6626 47.0869 47.2647 34.4492 47.2647C27.9722 47.2647 22.0488 48.4482 16.5381 50.4551C15.2818 50.9165 14.731 52.1509 15.1436 53.2422C15.4551 54.3975 16.6895 55.0005 18.0166 54.5357C22.9903 52.438 28.25 51.6231 34.4492 51.6231C46.7217 51.6231 56.2847 57.021 66.8364 57.021C74.2852 57.021 79.4258 52.3569 79.4258 45.8862C79.4258 39.6006 74.4839 34.8306 68.3701 34.8306C62.6421 34.8306 58.2139 39.0195 57.606 44.3687ZM39.3599 29.9336C38.9556 30.9844 39.3359 32.2778 40.54 32.7007C41.6279 33.1235 42.7783 32.6724 43.2988 31.4277C43.9336 29.6484 45.5127 28.2564 47.6943 28.2564C50.2734 28.2564 52.1001 30.0542 52.1001 32.7598C52.1001 35.5527 50.2617 37.3086 47.2734 37.3086C41.7261 37.3086 37.6514 36.2261 31.2925 36.2261C26.2515 36.2261 21.0977 37.2969 16.5718 38.9399C15.2329 39.334 14.731 40.5718 15.1436 41.6782C15.4702 42.8184 16.7046 43.4331 17.9981 42.9902C22.2984 41.3892 26.7988 40.603 31.2925 40.603C37.3316 40.603 41.5122 41.5693 47.2734 41.5693C52.7593 41.5693 56.4434 37.8145 56.4434 32.7598C56.4434 27.7251 52.5537 23.9653 47.6943 23.9653C43.7529 23.9653 40.4512 26.5815 39.3599 29.9336ZM67.1206 19.6245L67.2705 22.8672L64.5498 21.0942C63.915 20.6362 63.0898 20.7036 62.7481 21.4092C62.3423 22.0103 62.5947 22.8506 63.334 23.2446L66.1558 24.7515L63.334 26.1572C62.5156 26.5815 62.3726 27.3731 62.6992 27.9624C63.0225 28.6982 63.915 28.8145 64.5498 28.4238L67.2705 26.6021L67.1543 29.8599C67.1206 30.6445 67.582 31.2827 68.3701 31.2827C69.1548 31.2827 69.6011 30.6445 69.5825 29.8599L69.4512 26.6021L72.1719 28.4238C72.7275 28.7993 73.6167 28.6494 73.9736 28.0601C74.4165 27.4404 74.127 26.5176 73.354 26.1572L70.5474 24.7515L73.354 23.2109C74.0933 22.8506 74.3794 22.0776 74.0073 21.4092C73.6655 20.771 72.7427 20.6362 72.1719 21.0942L69.4512 22.8672L69.5825 19.6582C69.6011 18.8213 69.1548 18.168 68.3701 18.168C67.582 18.168 67.0869 18.8213 67.1206 19.6245Z" fill="#000000" fill-opacity="0.85"/>
 </g>
</svg>
