<?xml version="1.0" encoding="UTF-8"?>
<!--Generator: Apple Native CoreSVG 232.5-->
<!DOCTYPE svg
PUBLIC "-//W3C//DTD SVG 1.1//EN"
       "http://www.w3.org/Graphics/SVG/1.1/DTD/svg11.dtd">
<svg version="1.1" xmlns="http://www.w3.org/2000/svg" xmlns:xlink="http://www.w3.org/1999/xlink" width="96.023" height="101.755">
 <g>
  <rect height="101.755" opacity="0" width="96.023" x="0" y="0"/>
  <path d="M5.7449 60.4766L90.3792 60.4766C94.2557 60.4766 96.5931 57.4824 95.9026 53.0249L88.9422 6.3169C88.3646 2.53955 86.0071 0 82.0833 0L14.0257 0C10.117 0 7.75954 2.53955 7.18191 6.3169L0.221457 53.0249C-0.468973 57.4824 1.8533 60.4766 5.7449 60.4766ZM6.67411 52.4165L9.58671 32.7217L44.9446 32.7217L44.8621 54.4468L8.46366 54.4468C7.24149 54.4468 6.49735 53.5898 6.67411 52.4165ZM10.3328 27.4736L13.2117 7.74025C13.3733 6.70656 14.013 6.04494 15.0584 6.04494L45.1282 6.04494L44.9783 27.4736ZM50.698 6.04494L81.0506 6.04494C82.096 6.04494 82.7356 6.70656 82.8973 7.74025L85.7913 27.4736L50.8143 27.4736ZM50.8479 32.7217L86.5223 32.7217L89.45 52.4165C89.6267 53.5898 88.8826 54.4468 87.6453 54.4468L50.9642 54.4468ZM6.1824 57.1992L6.1824 98.395L12.2425 98.395L12.2425 57.1992ZM82.9339 57.1992L82.9339 98.395L88.994 98.395L88.994 57.1992ZM0.381123 98.395C0.381123 100.199 1.85476 101.706 3.69216 101.706L91.7972 101.706C93.6346 101.706 95.1419 100.199 95.1419 98.395C95.1419 96.5425 93.6346 95.084 91.7972 95.084L3.69216 95.084C1.85476 95.084 0.381123 96.5425 0.381123 98.395Z" fill="#000000" fill-opacity="0.85"/>
 </g>
</svg>
