<?xml version="1.0" encoding="UTF-8"?>
<!--Generator: Apple Native CoreSVG 232.5-->
<!DOCTYPE svg
PUBLIC "-//W3C//DTD SVG 1.1//EN"
       "http://www.w3.org/Graphics/SVG/1.1/DTD/svg11.dtd">
<svg version="1.1" xmlns="http://www.w3.org/2000/svg" xmlns:xlink="http://www.w3.org/1999/xlink" width="121.51" height="79.3613">
 <g>
  <rect height="79.3613" opacity="0" width="121.51" x="0" y="0"/>
  <path d="M0 75.9678C0 77.8052 1.50733 79.2788 3.31104 79.2788L118.199 79.2788C120.036 79.2788 121.51 77.8052 121.51 75.9678C121.51 74.1152 120.036 72.6567 118.199 72.6567L115.396 72.6567L115.396 5.94337C115.396 2.39991 112.947 0 109.208 0L11.9888 0C8.2837 0 5.80128 2.39991 5.80128 5.94337L5.80128 72.6567L3.31104 72.6567C1.50733 72.6567 0 74.1152 0 75.9678ZM11.895 37.0996L11.895 7.38185C11.895 6.6006 12.3833 6.0298 13.1006 6.0298L58.0586 6.0298L58.0586 37.0996ZM63.1382 37.0996L63.1382 6.0298L108.13 6.0298C108.847 6.0298 109.335 6.6006 109.335 7.38185L109.335 37.0996ZM11.895 72.6567L11.895 42.1792L58.0586 42.1792L58.0586 72.6567ZM63.1382 72.6567L63.1382 42.1792L109.335 42.1792L109.335 72.6567Z" fill="#000000" fill-opacity="0.85"/>
 </g>
</svg>
