<?xml version="1.0" encoding="UTF-8"?>
<!--Generator: Apple Native CoreSVG 232.5-->
<!DOCTYPE svg
PUBLIC "-//W3C//DTD SVG 1.1//EN"
       "http://www.w3.org/Graphics/SVG/1.1/DTD/svg11.dtd">
<svg version="1.1" xmlns="http://www.w3.org/2000/svg" xmlns:xlink="http://www.w3.org/1999/xlink" width="118.206" height="100.879">
 <g>
  <rect height="100.879" opacity="0" width="118.206" x="0" y="0"/>
  <path d="M118.206 14.2739L118.206 51.2148C118.206 60.6074 113.37 65.4888 103.797 65.4888L95.4181 65.4888C96.0258 63.6656 96.4306 61.6786 96.4764 59.4438L103.666 59.4438C109.06 59.4438 112.161 56.5195 112.161 50.915L112.161 14.5737C112.161 8.93556 109.06 6.04494 103.666 6.04494L14.5064 6.04494C9.00294 6.04494 6.04494 8.93556 6.04494 14.5737L6.04494 50.915C6.04494 56.5195 9.00294 59.4438 14.5064 59.4438L36.2308 59.4438C36.169 61.6842 35.6571 63.6481 34.9229 65.4888L14.3936 65.4888C4.86963 65.4888 0 60.6865 0 51.2148L0 14.2739C0 4.80225 4.86963 0 14.3936 0L103.797 0C113.37 0 118.206 4.88135 118.206 14.2739ZM62.4955 65.4888L40.2383 65.4888C40.8472 63.6656 41.2527 61.6786 41.2987 59.4438L63.7954 59.4438C63.734 61.6842 63.2252 63.6481 62.4955 65.4888ZM90.1006 65.4888L67.8224 65.4888C68.4288 63.6656 68.8326 61.6786 68.8784 59.4438L91.4085 59.4438C91.3467 61.6842 90.8348 63.6481 90.1006 65.4888Z" fill="#000000" fill-opacity="0.85"/>
  <path d="M21.4526 32.0073C20.5146 33.4185 21.291 35.3281 23.2427 35.3281L39.7857 35.3281C41.7222 35.3281 42.5137 33.4185 41.5757 32.0073L33.5088 19.9165C33.002 19.0982 32.3755 18.7495 31.5234 18.7495C30.6865 18.7495 30.0449 19.0982 29.5195 19.9165ZM36.542 92.1309C34.1343 88.9873 33.2705 86.94 33.2705 83.4092C33.2705 74.9365 41.3272 69.6319 41.3272 58.8252C41.3272 49.1953 34.0464 46.4746 34.0464 35.0078L34.0464 32.8965L28.9668 32.8965L28.9668 35.0078C28.9668 49.1641 36.2627 51.1455 36.2627 58.8252C36.2627 68.4697 28.2061 73.1445 28.2061 83.731C28.2061 88.3965 29.6978 91.6362 32.4409 95.1187C34.5816 97.8218 38.7349 95.0884 36.542 92.1309ZM49.0171 32.0073C48.0791 33.4185 48.9043 35.3281 50.8408 35.3281L67.3501 35.3281C69.3018 35.3281 70.0781 33.4185 69.1401 32.0073L61.1069 19.9165C60.5816 19.0982 59.9399 18.7495 59.103 18.7495C58.251 18.7495 57.6245 19.0982 57.084 19.9165ZM64.1216 92.1309C61.7139 88.9873 60.8838 86.94 60.8838 83.4092C60.8838 74.9365 68.9068 69.6319 68.9068 58.8252C68.9068 49.1953 61.626 46.4746 61.626 35.0078L61.626 32.8965L56.5464 32.8965L56.5464 35.0078C56.5464 49.1641 63.8272 51.1455 63.8272 58.8252C63.8272 68.4697 55.8193 73.1445 55.8193 83.731C55.8193 88.3965 57.2959 91.6362 60.0205 95.1187C62.146 97.8218 66.3482 95.0884 64.1216 92.1309ZM76.6304 32.0073C75.6924 33.4185 76.4688 35.3281 78.4204 35.3281L94.9634 35.3281C96.915 35.3281 97.6914 33.4185 96.7534 32.0073L88.6865 19.9165C88.146 19.0982 87.5195 18.7495 86.6826 18.7495C85.8306 18.7495 85.2041 19.0982 84.6636 19.9165ZM91.686 92.1309C89.312 88.9873 88.4634 86.94 88.4634 83.4092C88.4634 74.9365 96.5049 69.6319 96.5049 58.8252C96.5049 49.1953 89.2241 46.4746 89.2241 35.0078L89.2241 32.8965L84.1597 32.8965L84.1597 35.0078C84.1597 49.1641 91.4404 51.1455 91.4404 58.8252C91.4404 68.4697 83.3838 73.1445 83.3838 83.731C83.3838 88.3965 84.8755 91.6362 87.6338 95.1187C89.7256 97.8218 93.9126 95.0884 91.686 92.1309Z" fill="#000000" fill-opacity="0.85"/>
 </g>
</svg>
