<?xml version="1.0" encoding="UTF-8"?>
<!--Generator: Apple Native CoreSVG 232.5-->
<!DOCTYPE svg
PUBLIC "-//W3C//DTD SVG 1.1//EN"
       "http://www.w3.org/Graphics/SVG/1.1/DTD/svg11.dtd">
<svg version="1.1" xmlns="http://www.w3.org/2000/svg" xmlns:xlink="http://www.w3.org/1999/xlink" width="139.671" height="103.255">
 <g>
  <rect height="103.255" opacity="0" width="139.671" x="0" y="0"/>
  <path d="M136.642 18.5952C140.142 21.273 140.648 25.0806 137.922 28.6138L106.731 68.6734C107.05 67.2894 107.228 65.8008 107.228 64.1909C107.228 62.2697 106.939 60.6248 106.47 59.1379L131.922 26.436C132.899 25.1817 132.688 23.9224 131.404 22.9946C114.879 12.3687 92.1957 6.04494 69.8447 6.04494C47.475 6.04494 24.8251 12.3687 8.28558 22.9946C6.96722 23.9224 6.79046 25.1817 7.74847 26.436L38.4116 65.8286C39.2348 66.8774 39.8442 66.896 40.8661 66.4448C42.867 65.5635 44.9178 64.7586 46.9963 64.0561C47.004 64.0972 47.0043 64.1439 47.0043 64.1909C47.0043 66.7009 46.4624 68.8744 45.6543 70.8982C44.0865 71.5198 42.6357 72.2023 41.3036 72.9194C39.1484 74.0947 36.7978 73.6216 35.3632 71.7627L1.78264 28.6138C-0.992759 25.0806-0.485922 21.273 3.01359 18.5952C17.0033 8.06348 43.3534 0 69.8447 0C96.3359 0 122.667 8.06348 136.642 18.5952ZM98.6362 66.3774C99.8266 66.896 100.488 66.8437 101.446 65.5928L102.121 64.7258C102.035 68.0682 100.982 70.8083 99.6697 73.427C99.2273 73.3249 98.7847 73.1554 98.352 72.9194C93.2173 70.1427 86.2785 67.8865 79.4784 66.7324C79.5943 65.9267 79.6484 65.0772 79.6484 64.1909C79.6484 62.8822 79.5139 61.7017 79.2729 60.6177C85.6713 61.6393 92.4393 63.6434 98.6362 66.3774ZM73.7369 59.945C74.2598 61.2165 74.5839 62.5776 74.5839 64.1909C74.5839 64.836 74.5481 65.4589 74.4764 66.0598C72.8804 65.8877 71.3316 65.8106 69.8447 65.8106C64.151 65.8106 57.568 66.9369 51.563 68.7715C51.8966 67.3595 52.0839 65.8388 52.0839 64.1909C52.0839 63.5907 52.0556 63.0175 52.0022 62.4676C58.1965 60.7342 64.3869 59.7808 69.8447 59.7808C71.1031 59.7808 72.401 59.8317 73.7369 59.945Z" fill="#000000" fill-opacity="0.85"/>
  <path d="M32.1943 37.4067C31.2563 38.8179 32.0326 40.7427 33.9843 40.7427L50.5273 40.7427C52.4789 40.7427 53.2553 38.8179 52.3173 37.4067L44.2504 25.2822C43.725 24.4639 43.0834 24.1152 42.2465 24.1152C41.3945 24.1152 40.768 24.4639 40.2275 25.2822ZM47.2499 97.4966C44.8759 94.353 44.0273 92.3394 44.0273 88.7749C44.0273 80.336 52.0839 74.9976 52.0839 64.1909C52.0839 54.561 44.788 51.874 44.788 40.4072L44.788 38.2959L39.7236 38.2959L39.7236 40.4072C39.7236 54.5635 47.0043 56.5449 47.0043 64.1909C47.0043 73.8692 38.9477 78.544 38.9477 89.0967C38.9477 93.7622 40.4394 97.0357 43.1977 100.518C45.2895 103.221 49.4916 100.454 47.2499 97.4966ZM59.7738 37.4067C58.8359 38.8179 59.6122 40.7427 61.5639 40.7427L78.1069 40.7427C80.0585 40.7427 80.8349 38.8179 79.8969 37.4067L71.8637 25.2822C71.3232 24.4639 70.6967 24.1152 69.8447 24.1152C69.0077 24.1152 68.3661 24.4639 67.8407 25.2822ZM74.8632 97.4966C72.4555 94.353 71.6069 92.3394 71.6069 88.7749C71.6069 80.336 79.6484 74.9976 79.6484 64.1909C79.6484 54.561 72.3676 51.874 72.3676 40.4072L72.3676 38.2959L67.3031 38.2959L67.3031 40.4072C67.3031 54.5635 74.5839 56.5449 74.5839 64.1909C74.5839 73.8692 66.5273 78.544 66.5273 89.0967C66.5273 93.7622 68.0527 97.0357 70.7621 100.518C72.9028 103.221 77.0561 100.454 74.8632 97.4966ZM87.3871 37.4067C86.434 38.8179 87.2255 40.7427 89.162 40.7427L105.671 40.7427C107.623 40.7427 108.448 38.8179 107.461 37.4067L99.4433 25.2822C98.9028 24.4639 98.2763 24.1152 97.4242 24.1152C96.5722 24.1152 95.9457 24.4639 95.4052 25.2822ZM102.443 97.4966C100.035 94.353 99.205 92.3394 99.205 88.7749C99.205 80.336 107.228 74.9976 107.228 64.1909C107.228 54.561 99.9809 51.874 99.9809 40.4072L99.9809 38.2959L94.9013 38.2959L94.9013 40.4072C94.9013 54.5635 102.148 56.5449 102.148 64.1909C102.148 73.8692 94.1405 78.544 94.1405 89.0967C94.1405 93.7622 95.6171 97.0357 98.3417 100.518C100.482 103.221 104.669 100.454 102.443 97.4966Z" fill="#000000" fill-opacity="0.85"/>
 </g>
</svg>
