<?xml version="1.0" encoding="UTF-8"?>
<!--Generator: Apple Native CoreSVG 232.5-->
<!DOCTYPE svg
PUBLIC "-//W3C//DTD SVG 1.1//EN"
       "http://www.w3.org/Graphics/SVG/1.1/DTD/svg11.dtd">
<svg version="1.1" xmlns="http://www.w3.org/2000/svg" xmlns:xlink="http://www.w3.org/1999/xlink" width="115.396" height="113.071">
 <g>
  <rect height="113.071" opacity="0" width="115.396" x="0" y="0"/>
  <path d="M12.2661 32.0362C8.22628 32.6807 6.11232 35.4087 6.11232 40.1548L6.11232 73.9395C6.11232 79.3755 8.93556 82.1802 14.2857 82.1802L41.7543 82.1802L45.3092 88.2251L14.1729 88.2251C4.86963 88.2251 0.0673831 83.5088 0.0673831 74.2393L0.0673831 39.8213C0.0673831 32.513 3.08641 28.0016 8.9858 26.4581ZM115.396 39.8213L115.396 74.2393C115.396 83.4297 110.627 88.2251 101.291 88.2251L52.371 88.2251L48.8121 82.1802L101.178 82.1802C106.385 82.1802 109.366 79.3755 109.366 73.9395L109.366 40.1548C109.366 34.6699 106.385 31.8804 101.178 31.8804L19.1988 31.8804L15.64 25.8355L101.291 25.8355C110.627 25.8355 115.396 30.6494 115.396 39.8213Z" fill="#000000" fill-opacity="0.85"/>
  <path d="M31.1309 3.04688C31.1309 4.69581 29.748 6.04494 28.0991 6.04494L2.99805 6.04494C1.34912 6.04494 0 4.69581 0 3.04688C0 1.38282 1.34912 0 2.99805 0L28.0991 0C29.748 0 31.1309 1.38282 31.1309 3.04688ZM73.2373 3.04688C73.2373 4.69581 71.8882 6.04494 70.2241 6.04494L45.1382 6.04494C43.4893 6.04494 42.1401 4.69581 42.1401 3.04688C42.1401 1.38282 43.4893 0 45.1382 0L70.2241 0C71.8882 0 73.2373 1.38282 73.2373 3.04688ZM115.396 3.04688C115.396 4.69581 114.013 6.04494 112.364 6.04494L87.312 6.04494C85.6143 6.04494 84.2651 4.69581 84.2651 3.04688C84.2651 1.38282 85.6143 0 87.312 0L112.364 0C114.013 0 115.396 1.38282 115.396 3.04688Z" fill="#000000" fill-opacity="0.85"/>
  <path d="M57.5264 112.974C62.9619 112.974 67.5151 108.469 67.5151 103.034C67.5151 97.5982 62.9956 93.0786 57.5264 93.0786C52.1245 93.0786 47.605 97.5982 47.605 103.034C47.605 108.518 52.0757 112.974 57.5264 112.974ZM57.5264 107.82C54.8833 107.82 52.7251 105.695 52.7251 103.034C52.7251 100.357 54.8833 98.1651 57.5264 98.1651C60.1728 98.1651 62.3799 100.406 62.3799 103.034C62.3799 105.695 60.188 107.82 57.5264 107.82ZM51.3613 98.5166L56.773 95.7022L12.8179 21.042C12.0347 19.6895 10.3521 19.0816 8.62402 19.9102C7.06103 20.7759 6.75781 22.6724 7.5747 24.0586Z" fill="#000000" fill-opacity="0.85"/>
 </g>
</svg>
