<?xml version="1.0" encoding="UTF-8"?>
<!--Generator: Apple Native CoreSVG 232.5-->
<!DOCTYPE svg
PUBLIC "-//W3C//DTD SVG 1.1//EN"
       "http://www.w3.org/Graphics/SVG/1.1/DTD/svg11.dtd">
<svg version="1.1" xmlns="http://www.w3.org/2000/svg" xmlns:xlink="http://www.w3.org/1999/xlink" width="118.206" height="112.851">
 <g>
  <rect height="112.851" opacity="0" width="118.206" x="0" y="0"/>
  <path d="M12.1324 21.2463C8.15438 22.0017 6.04494 24.8276 6.04494 29.5889L6.04494 65.2857C6.04494 70.9238 9.00294 73.8482 14.5064 73.8482L43.0528 73.8482L46.6061 79.8931L14.3936 79.8931C4.86963 79.8931 0 75.042 0 65.6192L0 29.2554C0 21.843 2.98234 17.2904 8.85757 15.6751ZM118.206 29.2554L118.206 65.6192C118.206 75.0117 113.37 79.8931 103.797 79.8931L53.6411 79.8931L50.0862 73.8482L103.666 73.8482C109.06 73.8482 112.161 70.9238 112.161 65.2857L112.161 29.5889C112.161 23.9507 109.06 21.0264 103.666 21.0264L95.8614 21.0264C94.9875 19.1054 93.9275 17.0565 92.775 14.9815L103.797 14.9815C113.37 14.9815 118.206 19.8628 118.206 29.2554ZM62.4351 21.0264L19.0226 21.0264L15.4676 14.9815L65.5406 14.9815C64.3855 17.0565 63.3206 19.1054 62.4351 21.0264Z" fill="#000000" fill-opacity="0.85"/>
  <path d="M81.3604 7.06788C84.6943 12.2676 88.4697 18.4492 90.8237 23.6304C92.418 27.0327 94.1441 31.0703 94.1441 35.1944C94.1441 43.9419 88.1748 49.7647 79.1646 49.7647C70.1543 49.7647 64.1514 43.9419 64.1514 35.1944C64.1514 31.0703 65.8926 27.0327 67.4717 23.6304C69.8745 18.4492 73.6011 12.2676 76.9688 7.06788C77.5918 6.13331 78.2485 5.65675 79.1646 5.65675C80.062 5.65675 80.7373 6.13331 81.3604 7.06788Z" fill="#000000" fill-opacity="0.85"/>
  <path d="M58.9146 104.997C64.436 104.997 69.0567 100.425 69.0567 94.8887C69.0567 89.2847 64.4697 84.7466 58.9146 84.7466C53.3779 84.7466 48.791 89.2847 48.791 94.8887C48.791 100.474 53.3291 104.997 58.9146 104.997ZM58.9146 99.9107C56.1367 99.9107 53.8589 97.6177 53.8589 94.8887C53.8589 92.0923 56.1367 89.7657 58.9146 89.7657C61.6621 89.7657 63.9888 92.1075 63.9888 94.8887C63.9888 97.6177 61.6773 99.9107 58.9146 99.9107ZM52.5962 90.0835L57.959 87.2354L12.4287 9.81397C11.6455 8.44629 9.9292 7.81983 8.20117 8.70069C6.63818 9.48048 6.33495 11.4292 7.18554 12.8306Z" fill="#000000" fill-opacity="0.85"/>
 </g>
</svg>
