<?xml version="1.0" encoding="UTF-8"?>
<!--Generator: Apple Native CoreSVG 232.5-->
<!DOCTYPE svg
PUBLIC "-//W3C//DTD SVG 1.1//EN"
       "http://www.w3.org/Graphics/SVG/1.1/DTD/svg11.dtd">
<svg version="1.1" xmlns="http://www.w3.org/2000/svg" xmlns:xlink="http://www.w3.org/1999/xlink" width="138.309" height="101.755">
 <g>
  <rect height="101.755" opacity="0" width="138.309" x="0" y="0"/>
  <path d="M30.3784 98.395L36.4385 98.395L36.4385 7.34816C36.4385 6.56691 36.9756 6.04494 37.6929 6.04494L100.631 6.04494C101.348 6.04494 101.836 6.56691 101.836 7.34816L101.836 98.395L107.93 98.395L107.93 95.0943L133.044 96.8946C136.562 97.2129 138.309 94.8902 138.309 91.7793L138.309 8.33643C138.309 5.24072 136.562 2.95165 133.044 3.22118L107.186 5.08886L107.118 3.30176C106.422 1.28125 104.348 0 101.743 0L36.5811 0C33.9087 0 31.9014 1.28125 31.1904 3.30176L31.1231 5.08886L5.23146 3.22118C1.76172 2.95165 0 5.24072 0 8.33643L0 91.7793C0 94.8902 1.76172 97.2129 5.23146 96.8946L30.3784 95.0943ZM5.7754 90.3579L5.7754 68.6665C5.7754 68.3179 6.02638 67.9878 6.45412 67.9878L30.3784 67.5381L30.3784 89.5767L6.58888 91.0552C6.1089 91.0889 5.7754 90.8901 5.7754 90.3579ZM5.7754 61.4966L5.7754 38.668C5.7754 38.2705 6.02638 38.0044 6.43898 38.0044L30.3784 38.4541L30.3784 61.6953L6.43898 62.145C6.02638 62.145 5.7754 61.8452 5.7754 61.4966ZM5.7754 31.4829L5.7754 9.77295C5.7754 9.25928 6.1089 9.06055 6.58888 9.09424L30.3784 10.5728L30.3784 32.6113L6.45412 32.1616C6.02638 32.1616 5.7754 31.8467 5.7754 31.4829ZM107.93 89.5767L107.93 67.5381L131.855 67.9878C132.282 67.9878 132.533 68.3179 132.533 68.6665L132.533 90.3579C132.533 90.8901 132.2 91.0889 131.735 91.0552ZM107.93 61.6953L107.93 38.4541L131.851 38.0044C132.282 38.0044 132.533 38.2705 132.533 38.668L132.533 61.4966C132.533 61.8452 132.282 62.145 131.851 62.145ZM107.93 32.6113L107.93 10.5728L131.735 9.09424C132.2 9.06055 132.533 9.25928 132.533 9.77295L132.533 31.4829C132.533 31.8467 132.282 32.1616 131.855 32.1616ZM24.5772 98.395C24.5772 100.199 26.0508 101.706 27.8882 101.706L110.7 101.706C112.537 101.706 114.044 100.199 114.044 98.395C114.044 96.5425 112.537 95.084 110.7 95.084L27.8882 95.084C26.0508 95.084 24.5772 96.5425 24.5772 98.395ZM67.4053 98.395L72.4698 98.395L72.4698 3.23536L67.4053 3.23536Z" fill="#000000" fill-opacity="0.85"/>
 </g>
</svg>
