<?xml version="1.0" encoding="UTF-8"?>
<!--Generator: Apple Native CoreSVG 232.5-->
<!DOCTYPE svg
PUBLIC "-//W3C//DTD SVG 1.1//EN"
       "http://www.w3.org/Graphics/SVG/1.1/DTD/svg11.dtd">
<svg version="1.1" xmlns="http://www.w3.org/2000/svg" xmlns:xlink="http://www.w3.org/1999/xlink" width="109.152" height="93.7012">
 <g>
  <rect height="93.7012" opacity="0" width="109.152" x="0" y="0"/>
  <path d="M1.42803 52.9395C-1.98555 58.9346 0.9749 65.0425 7.60479 65.7534L10.4773 65.7871L5.47685 83.3096C3.69023 89.6226 6.8123 93.7012 13.3963 93.7012L77.8631 93.7012C82.2645 93.7012 85.5208 91.0645 86.7718 86.7036L108.598 11.5967C110.481 5.10108 107.348 0.0371099 100.496 0.0371099L37.6692 0.0371099C31.6932 0.0371099 29.9959 2.20948 27.3841 6.80323ZM7.16486 54.7363L18.0223 35.5069L50.1277 35.5069L36.5408 59.8096L9.99201 59.8096C6.68488 59.8096 5.52814 57.6797 7.16486 54.7363ZM21.3875 29.6304L33.035 8.94044C34.3177 6.65285 35.2757 6.08205 37.7552 6.08205L66.701 6.08205L53.5267 29.6304ZM43.3875 59.8096L56.9896 35.5069L88.3943 35.5069L76.3191 56.9849C75.0701 59.2725 74.0784 59.8096 71.5652 59.8096ZM60.3548 29.6304L73.4652 6.08205L99.3772 6.08205C102.651 6.08205 103.792 8.27931 102.156 11.189L91.7933 29.6304ZM11.4427 84.0083L16.6233 65.8545L71.6663 65.8545C77.6946 65.8545 79.3245 63.6821 81.9363 59.1221L96.094 33.6719L81.4275 83.6533C80.6902 86.1665 79.0052 87.6377 76.8016 87.6377L14.3196 87.6377C11.8787 87.6377 10.7693 86.3399 11.4427 84.0083ZM77.055 91.3418L82.4515 88.625L70.9583 62.0884L65.3128 64.2735Z" fill="#000000" fill-opacity="0.85"/>
 </g>
</svg>
