<?xml version="1.0" encoding="UTF-8"?>
<!--Generator: Apple Native CoreSVG 232.5-->
<!DOCTYPE svg
PUBLIC "-//W3C//DTD SVG 1.1//EN"
       "http://www.w3.org/Graphics/SVG/1.1/DTD/svg11.dtd">
<svg version="1.1" xmlns="http://www.w3.org/2000/svg" xmlns:xlink="http://www.w3.org/1999/xlink" width="68.9497" height="113.027">
 <g>
  <rect height="113.027" opacity="0" width="68.9497" x="0" y="0"/>
  <path d="M34.4336 69.3101C55.1729 69.3101 68.9497 57.0654 68.9497 38.4409C68.9497 28.6851 64.8228 15.8613 58.8369 6.63428C56.1377 2.42969 47.0991 0 34.4976 0C21.7832 0 12.7783 2.42969 10.0454 6.63428C4.05957 15.8613 0 28.6851 0 38.4409C0 57.0654 13.6943 69.3101 34.4336 69.3101ZM34.4336 63.6021C16.8052 63.6021 5.72316 53.8838 5.72316 38.4409C5.72316 30.9082 8.47413 21.0152 12.9609 12.999C16.8154 15.3999 24.7573 16.8999 34.4976 16.8999C44.125 16.8999 52.0518 15.3999 55.9214 12.999C60.4419 21.0152 63.2266 30.9082 63.2266 38.4409C63.2266 53.8838 52.062 63.6021 34.4336 63.6021ZM34.4976 11.5137C24.6226 11.5137 15.334 9.70753 15.334 8.43311C15.334 7.24122 24.7691 5.43507 34.4976 5.43507C44.147 5.43507 53.6157 7.24122 53.6157 8.43311C53.6157 9.70753 44.2598 11.5137 34.4976 11.5137ZM34.4336 102.494C35.9663 102.494 37.3423 101.164 37.3423 99.6494L37.3423 66.4063L31.6528 66.4063L31.6528 99.6494C31.6528 101.212 32.9346 102.494 34.4336 102.494ZM34.4336 112.963C51.1104 112.915 61.3194 108.902 61.3194 102.306C61.3194 95.7432 51.065 91.6968 34.4336 91.6968C17.8511 91.6968 7.66064 95.7432 7.66064 102.306C7.66064 108.917 17.772 112.915 34.4336 112.963ZM34.4336 107.375C21.9824 107.36 13.7056 105.101 13.7056 102.306C13.7056 99.5747 22.0767 97.2515 34.4336 97.2515C46.8394 97.2515 55.2896 99.5747 55.2896 102.306C55.2896 105.07 46.8696 107.36 34.4336 107.375Z" fill="#000000" fill-opacity="0.85"/>
 </g>
</svg>
