<?xml version="1.0" encoding="UTF-8"?>
<!--Generator: Apple Native CoreSVG 232.5-->
<!DOCTYPE svg
PUBLIC "-//W3C//DTD SVG 1.1//EN"
       "http://www.w3.org/Graphics/SVG/1.1/DTD/svg11.dtd">
<svg version="1.1" xmlns="http://www.w3.org/2000/svg" xmlns:xlink="http://www.w3.org/1999/xlink" width="68.9497" height="113.027">
 <g>
  <rect height="113.027" opacity="0" width="68.9497" x="0" y="0"/>
  <path d="M34.4185 112.963C51.0801 112.963 61.2705 108.902 61.2705 102.306C61.2705 96.1777 52.1968 92.2139 37.312 91.7305L37.312 69.2241C56.4697 68.1445 68.9497 56.166 68.9497 38.4409C68.9497 28.6851 64.8228 15.8613 58.8369 6.63428C56.1377 2.42969 47.0991 0 34.4976 0C21.7832 0 12.7783 2.42969 10.0454 6.63428C4.05957 15.8613 0 28.6851 0 38.4409C0 56.1997 12.48 68.1445 31.6377 69.2241L31.6377 91.7305C16.689 92.1802 7.64551 96.1777 7.64551 102.306C7.64551 108.917 17.7568 112.963 34.4185 112.963ZM34.4976 11.6821C23.7583 11.6821 15.334 9.92823 15.334 8.43311C15.334 6.98682 23.8223 5.26661 34.4976 5.26661C45.1123 5.26661 53.6157 6.98682 53.6157 8.43311C53.6157 9.92823 45.1577 11.6821 34.4976 11.6821Z" fill="#000000" fill-opacity="0.85"/>
 </g>
</svg>
