<?xml version="1.0" encoding="UTF-8"?>
<!--Generator: Apple Native CoreSVG 232.5-->
<!DOCTYPE svg
PUBLIC "-//W3C//DTD SVG 1.1//EN"
       "http://www.w3.org/Graphics/SVG/1.1/DTD/svg11.dtd">
<svg version="1.1" xmlns="http://www.w3.org/2000/svg" xmlns:xlink="http://www.w3.org/1999/xlink" width="97.9595" height="97.9932">
 <g>
  <rect height="97.9932" opacity="0" width="97.9595" x="0" y="0"/>
  <path d="M97.9595 48.9722C97.9595 75.7759 75.8247 97.9443 48.9722 97.9443C22.1685 97.9443 0 75.7759 0 48.9722C0 22.1348 22.1348 0 48.9385 0C75.791 0 97.9595 22.1348 97.9595 48.9722ZM62.4805 28.6235L60.1284 46.1831L55.2192 46.1831L51.8994 28.9707C51.6519 27.3706 50.3516 26.4712 48.9536 26.4712C47.4883 26.4712 46.2891 27.3706 46.0229 29.0044L42.7217 46.2168L37.8648 46.2168L35.565 28.627C35.3662 27.2173 34.3018 26.4258 32.9932 26.4258C31.5161 26.4258 30.418 27.3369 30.418 28.7651C30.418 29.2148 30.5342 29.6729 30.6167 30.1157L33.1035 46.2168L30.918 46.2168C29.7324 46.2168 28.8213 47.0757 28.8213 48.2832C28.8213 49.4233 29.7324 50.3833 30.918 50.3833L33.7671 50.3833L36.9023 70.3931C37.1499 71.9561 38.2515 72.8521 39.6797 72.8521C41.1416 72.8521 42.2583 72.0386 42.5244 70.5025L46.3023 50.3496L51.627 50.3496L55.4722 70.4722C55.7383 72.0235 56.855 72.8521 58.332 72.8521C59.6812 72.8521 60.877 71.9712 61.1094 70.4233L64.1924 50.3496L67.0078 50.3496C68.2119 50.3496 69.0894 49.3897 69.0894 48.2495C69.0894 47.0571 68.2119 46.1831 67.0078 46.1831L64.8711 46.1831L67.3916 29.8564C67.4741 29.3833 67.5415 29.0986 67.5415 28.6943C67.5415 27.2998 66.4619 26.4224 65.0186 26.4224C63.7739 26.4224 62.6792 27.1533 62.4805 28.6235ZM58.1367 62.8037L55.8911 50.3159L59.6367 50.3159ZM39.8716 62.6318L38.4424 50.3159L42.0498 50.3159ZM50.9063 46.2168L47.0903 46.2168L48.9722 35.5059Z" fill="#000000" fill-opacity="0.85"/>
 </g>
</svg>
