<?xml version="1.0" encoding="UTF-8"?>
<!--Generator: Apple Native CoreSVG 232.5-->
<!DOCTYPE svg
PUBLIC "-//W3C//DTD SVG 1.1//EN"
       "http://www.w3.org/Graphics/SVG/1.1/DTD/svg11.dtd">
<svg version="1.1" xmlns="http://www.w3.org/2000/svg" xmlns:xlink="http://www.w3.org/1999/xlink" width="88.4092" height="88.5371">
 <g>
  <rect height="88.5371" opacity="0" width="88.4092" x="0" y="0"/>
  <path d="M14.3936 88.5371L74.0005 88.5371C83.5733 88.5371 88.4092 83.6558 88.4092 74.2632L88.4092 14.4019C88.4092 5.00928 83.5733 0.127929 74.0005 0.127929L14.3936 0.127929C4.86963 0.127929 0 4.93018 0 14.4019L0 74.2632C0 83.7349 4.86963 88.5371 14.3936 88.5371ZM14.5064 82.4922C9.00294 82.4922 6.04494 79.6016 6.04494 73.9634L6.04494 14.7017C6.04494 9.06349 9.00294 6.17287 14.5064 6.17287L73.9028 6.17287C79.2969 6.17287 82.3643 9.06349 82.3643 14.7017L82.3643 73.9634C82.3643 79.6016 79.2969 82.4922 73.9028 82.4922Z" fill="#000000" fill-opacity="0.85"/>
  <path d="M24.5684 43.5889C24.5684 44.6953 25.4121 45.6216 26.5488 45.6216L29.3457 45.6216L32.4136 65.2573C32.646 66.7378 33.729 67.6001 35.1235 67.6001C36.5181 67.6001 37.6011 66.8355 37.8823 65.3516L41.5776 45.5879L46.8501 45.5879L50.6279 65.3213C50.894 66.8052 51.9771 67.6001 53.3867 67.6001C54.7022 67.6001 55.8643 66.7681 56.0967 65.2725L59.1275 45.5879L61.8604 45.5879C63.0796 45.5879 63.8897 44.6616 63.8897 43.5552C63.8897 42.3813 63.0796 41.5562 61.8604 41.5562L59.7725 41.5562L62.2256 25.5361C62.3081 25.0781 62.3755 24.7935 62.3755 24.4077C62.3755 23.0469 61.3296 22.2031 59.9536 22.2031C58.7275 22.2031 57.6665 22.9155 57.4678 24.3369L55.1494 41.5562L50.3413 41.5562L47.0401 24.6655C46.8076 23.1328 45.6084 22.2671 44.2105 22.2671C42.7637 22.2671 41.6318 23.1328 41.3657 24.6992L38.1133 41.5898L33.3272 41.5898L31.0762 24.3555C30.8775 22.9644 29.8315 22.2217 28.5718 22.2217C27.1621 22.2217 26.1162 23.0991 26.1162 24.46C26.1162 24.9097 26.1987 25.3525 26.2627 25.7769L28.7007 41.5898L26.5488 41.5898C25.4121 41.5898 24.5684 42.415 24.5684 43.5889ZM33.8862 45.5542L37.46 45.5542L35.3154 57.6494ZM42.3657 41.5898L44.2139 31.0659L46.1294 41.5898ZM50.9795 45.5542L54.7065 45.5542L53.1914 57.8213Z" fill="#000000" fill-opacity="0.85"/>
 </g>
</svg>
