<?xml version="1.0" encoding="UTF-8"?>
<!--Generator: Apple Native CoreSVG 232.5-->
<!DOCTYPE svg
PUBLIC "-//W3C//DTD SVG 1.1//EN"
       "http://www.w3.org/Graphics/SVG/1.1/DTD/svg11.dtd">
<svg version="1.1" xmlns="http://www.w3.org/2000/svg" xmlns:xlink="http://www.w3.org/1999/xlink" width="88.4092" height="88.5371">
 <g>
  <rect height="88.5371" opacity="0" width="88.4092" x="0" y="0"/>
  <path d="M88.4092 14.4019L88.4092 74.2632C88.4092 83.6558 83.5733 88.5371 74.0005 88.5371L14.3936 88.5371C4.86963 88.5371 0 83.7349 0 74.2632L0 14.4019C0 4.93018 4.86963 0.127929 14.3936 0.127929L74.0005 0.127929C83.5733 0.127929 88.4092 5.00928 88.4092 14.4019ZM57.7222 23.8955L55.3701 41.4551L50.4609 41.4551L47.1411 24.2427C46.9087 22.6426 45.6421 21.7432 44.2105 21.7432C42.73 21.7432 41.5308 22.6426 41.2646 24.2764L37.9785 41.4888L33.1065 41.4888L30.8218 23.8989C30.6231 22.4893 29.5435 21.6978 28.25 21.6978C26.7729 21.6978 25.6934 22.6089 25.6934 24.0371C25.6934 24.4868 25.791 24.9448 25.8735 25.3877L28.3452 41.4888L26.1597 41.4888C24.9893 41.4888 24.1118 42.3477 24.1118 43.5552C24.1118 44.6953 24.9893 45.6553 26.1597 45.6553L29.0239 45.6553L32.1592 65.665C32.3916 67.228 33.5083 68.124 34.9365 68.124C36.3984 68.124 37.5151 67.3106 37.7813 65.7744L41.544 45.6216L46.8838 45.6216L50.7139 65.7441C50.9951 67.2954 52.0967 68.124 53.5889 68.124C54.938 68.124 56.1187 67.2432 56.3662 65.6953L59.4492 45.6216L62.2495 45.6216C63.5025 45.6216 64.3462 44.6616 64.3462 43.5215C64.3462 42.3291 63.5025 41.4551 62.2495 41.4551L60.1279 41.4551L62.6333 25.1284C62.731 24.6553 62.7832 24.3706 62.7832 23.9663C62.7832 22.5718 61.7188 21.6943 60.2754 21.6943C59.0308 21.6943 57.936 22.4253 57.7222 23.8955ZM53.3936 58.0757L51.1328 45.5879L54.8936 45.5879ZM35.1133 57.9038L33.6841 45.5879L37.3066 45.5879ZM46.1631 41.4888L42.3472 41.4888L44.2139 30.7778Z" fill="#000000" fill-opacity="0.85"/>
 </g>
</svg>
