<?xml version="1.0" encoding="UTF-8"?>
<!--Generator: Apple Native CoreSVG 232.5-->
<!DOCTYPE svg
PUBLIC "-//W3C//DTD SVG 1.1//EN"
       "http://www.w3.org/Graphics/SVG/1.1/DTD/svg11.dtd">
<svg version="1.1" xmlns="http://www.w3.org/2000/svg" xmlns:xlink="http://www.w3.org/1999/xlink" width="107.333" height="97.9932">
 <g>
  <rect height="97.9932" opacity="0" width="107.333" x="0" y="0"/>
  <path d="M58.3575 97.9443C85.1612 97.9443 107.33 75.7759 107.33 48.9722C107.33 22.1348 85.1612 0 58.3575 0C31.5201 0 9.38533 22.1011 9.38533 48.9385L15.7032 48.9385C15.7032 25.3164 34.7354 6.35158 58.3575 6.35158C81.9796 6.35158 101.012 25.3501 101.012 48.9722C101.012 72.5942 81.9796 91.6787 58.3575 91.6113C43.5182 91.5928 30.6148 84.0068 22.9474 72.5923C21.8121 71.0444 20.047 70.561 18.4806 71.479C16.9967 72.397 16.5655 74.4165 17.8018 76.0655C26.943 89.0161 41.5392 97.9443 58.3575 97.9443ZM2.84969 40.0024C7.79875e-05 40.0024-0.788009 41.9561 0.828693 44.2666L11.4786 59.4307C12.8326 61.3438 14.7677 61.3101 16.1031 59.4307L26.753 44.2329C28.336 41.9561 27.5479 40.0024 24.7169 40.0024Z" fill="#000000" fill-opacity="0.85"/>
  <path d="M38.6632 48.3169C38.6632 49.4233 39.5069 50.3496 40.6925 50.3496L43.4893 50.3496L46.5235 69.9854C46.7896 71.4658 47.8726 72.3281 49.2672 72.3281C50.6617 72.3281 51.7447 71.5635 51.9771 70.0796L55.6876 50.3159L60.96 50.3159L64.7564 70.0493C64.9888 71.5332 66.0719 72.3281 67.4967 72.3281C68.8458 72.3281 69.9742 71.4961 70.2403 70.0005L73.256 50.3159L75.9703 50.3159C77.1744 50.3159 77.9996 49.3897 77.9996 48.2832C77.9996 47.1094 77.1744 46.2842 75.9703 46.2842L73.901 46.2842L76.3541 30.2642C76.4029 29.8062 76.4703 29.5215 76.4703 29.1357C76.4703 27.7749 75.4581 26.9312 74.0821 26.9312C72.8712 26.9312 71.7765 27.6436 71.6114 29.0649L69.2931 46.2842L64.4361 46.2842L61.1837 29.3936C60.9176 27.8608 59.7184 26.9951 58.3053 26.9951C56.9073 26.9951 55.7266 27.8608 55.4942 29.4273L52.2081 46.3179L47.4708 46.3179L45.1861 29.0835C45.0059 27.6924 43.9752 26.9497 42.7003 26.9497C41.2569 26.9497 40.2262 27.8271 40.2262 29.188C40.2262 29.6377 40.3087 30.0806 40.3912 30.5049L42.8443 46.3179L40.6925 46.3179C39.5069 46.3179 38.6632 47.1431 38.6632 48.3169ZM47.981 50.2822L51.6036 50.2822L49.4439 62.3774ZM56.4757 46.3179L58.3575 35.794L60.2579 46.3179ZM65.108 50.2822L68.835 50.2822L67.335 62.5493Z" fill="#000000" fill-opacity="0.85"/>
 </g>
</svg>
