<?xml version="1.0" encoding="UTF-8"?>
<!--Generator: Apple Native CoreSVG 232.5-->
<!DOCTYPE svg
PUBLIC "-//W3C//DTD SVG 1.1//EN"
       "http://www.w3.org/Graphics/SVG/1.1/DTD/svg11.dtd">
<svg version="1.1" xmlns="http://www.w3.org/2000/svg" xmlns:xlink="http://www.w3.org/1999/xlink" width="105.639" height="88.3692">
 <g>
  <rect height="88.3692" opacity="0" width="105.639" x="0" y="0"/>
  <path d="M27.5191 87.6714C29.8906 87.6714 31.5381 86.2026 32.1226 84.0381L52.5508 12.7647L52.918 12.7647L73.3765 84.0381C73.897 86.2026 75.5933 87.6714 77.9463 87.6714C80.3247 87.6714 82.1372 86.169 82.6055 83.9033L99.7158 5.17091C99.832 4.50392 99.9483 3.85548 99.9483 3.20362C99.9483 1.21778 98.3633 0 96.4077 0C94.5752 0 93.2681 1.1167 92.9043 2.9795L77.7627 77.3877L77.4629 77.3877L56.4888 3.49122C56.0054 1.60645 54.855 0.422361 52.7832 0.422361C50.6929 0.422361 49.4785 1.70752 48.9766 3.61085L28.0059 77.3877L27.7363 77.3877L12.5645 2.9795C12.2158 1.15039 10.9087 0 9.02736 0C7.07179 0 5.53565 1.21778 5.53565 3.18848C5.53565 3.77638 5.5879 4.36427 5.70411 5.06154L22.8936 83.9033C23.3467 86.169 25.1255 87.6714 27.5191 87.6714ZM2.53467 45.624L103.07 45.624C104.514 45.624 105.639 44.5259 105.639 43.0825C105.639 41.6055 104.514 40.5596 103.07 40.5596L2.53467 40.5596C1.10987 40.5596 0 41.6055 0 43.0825C0 44.5259 1.10987 45.624 2.53467 45.624Z" fill="#000000" fill-opacity="0.85"/>
 </g>
</svg>
