<?xml version="1.0" encoding="UTF-8"?>
<!--Generator: Apple Native CoreSVG 232.5-->
<!DOCTYPE svg
PUBLIC "-//W3C//DTD SVG 1.1//EN"
       "http://www.w3.org/Graphics/SVG/1.1/DTD/svg11.dtd">
<svg version="1.1" xmlns="http://www.w3.org/2000/svg" xmlns:xlink="http://www.w3.org/1999/xlink" width="112.667" height="116.42">
 <g>
  <rect height="116.42" opacity="0" width="112.667" x="0" y="0"/>
  <path d="M5.80776 110.674C13.6071 118.473 24.8717 118.556 32.8478 109.551C41.5915 99.583 52.1632 80.0942 66.2375 66.0049C77.5197 54.7041 89.1164 66.1963 104.485 51.3867C110.052 46.0522 113.206 38.4546 112.5 32.6489L94.5065 37.5337C90.6212 38.5757 88.3029 36.271 87.2658 32.7202L85.8044 27.6372C84.7824 24.1016 85.8332 20.9668 89.6999 19.9248L107.629 15.0737C107.016 13.5615 105.647 11.6113 103.918 9.86328C92.9562-1.3003 74.529-1.36231 63.8068 8.8042C47.7858 24.0557 60.3058 40.186 48.8859 51.606C36.3048 64.1533 16.8312 74.9053 6.86684 83.6338C-2.17173 91.5308-2.04038 102.826 5.80776 110.674ZM9.50796 106.925C3.96207 101.281 4.02603 92.8682 10.4508 87.2363C20.6339 78.353 41.3957 66.5303 52.6046 55.3062C65.3083 42.6025 52.5685 26.3198 67.529 12.4893C76.7028 4.01417 92.507 4.66504 101.125 14.0176L102.358 11.6025L88.6085 15.1938C81.8278 17.0073 78.945 22.0674 80.9723 29.1563L82.3395 33.9077C84.547 41.6904 89.2599 43.9248 95.5456 42.2124L109.568 38.3921L107.243 37.0112C106.354 40.6328 104.589 44.7119 100.908 48.3481C88.2199 60.7129 74.758 50.0537 62.4884 62.2559C49.8537 74.8906 38.1588 95.7803 29.2453 105.997C23.4855 112.602 15.0387 112.602 9.50796 106.925ZM68.8297 48.5391L79.3043 45.7373C80.1076 45.5234 80.5993 44.6377 80.3703 43.8159C80.175 43.0127 79.3532 42.4873 78.4826 42.75L68.0416 45.5518C67.1896 45.7808 66.7467 46.6177 66.942 47.4058C67.0885 48.3589 67.9777 48.7681 68.8297 48.5391ZM67.5753 43.1377L77.9337 40.3696C78.7858 40.1406 79.296 39.3037 79.0485 38.4145C78.8195 37.5625 77.964 37.1196 77.1457 37.2998L66.7199 40.1353C65.8678 40.3306 65.3913 41.2163 65.6051 42.0044C65.8678 42.9087 66.6559 43.4004 67.5753 43.1377ZM66.2721 37.7212L76.6793 34.9531C77.5314 34.7393 78.008 33.8872 77.7453 32.998C77.5651 32.146 76.6945 31.6694 75.8913 31.8984L65.4166 34.7002C64.5797 34.9292 64.1217 35.7998 64.3507 36.5879C64.5797 37.5073 65.3678 37.9839 66.2721 37.7212ZM88.7155 56.6123L92.4743 55.7871L86.1134 33.2104L82.3395 33.9077ZM19.1418 103.137C22.3258 103.137 24.8903 100.573 24.8903 97.3735C24.8903 94.1894 22.3258 91.5762 19.1418 91.5762C15.9274 91.5762 13.3292 94.1894 13.3292 97.3735C13.3292 100.573 15.9274 103.137 19.1418 103.137Z" fill="#000000" fill-opacity="0.85"/>
 </g>
</svg>
