<?xml version="1.0" encoding="UTF-8"?>
<!--Generator: Apple Native CoreSVG 232.5-->
<!DOCTYPE svg
PUBLIC "-//W3C//DTD SVG 1.1//EN"
       "http://www.w3.org/Graphics/SVG/1.1/DTD/svg11.dtd">
<svg version="1.1" xmlns="http://www.w3.org/2000/svg" xmlns:xlink="http://www.w3.org/1999/xlink" width="112.668" height="116.593">
 <g>
  <rect height="116.593" opacity="0" width="112.668" x="0" y="0"/>
  <path d="M5.80848 110.794C13.6078 118.593 25.0409 118.811 32.8148 109.705C39.5941 101.769 53.0956 79.2678 66.2382 66.1252C74.9242 57.4543 83.7929 62.2912 93.5126 58.4372L85.0604 28.3151C84.0048 24.51 85.2763 21.1882 89.955 19.9255L107.63 15.194C106.998 13.6818 105.614 11.7316 103.885 9.98358C92.9232-1.17999 74.6644-1.46271 63.7738 8.85712C47.7865 24.1086 60.3065 40.239 48.8866 51.6589C35.849 64.6628 16.7645 74.9582 6.86756 83.7541C-2.13732 91.7184-2.07336 102.912 5.80848 110.794ZM19.1425 103.224C15.9281 103.224 13.33 100.659 13.33 97.4601C13.33 94.2761 15.9281 91.6628 19.1425 91.6628C22.3266 91.6628 24.891 94.2761 24.891 97.4601C24.891 100.659 22.3266 103.224 19.1425 103.224ZM65.7977 37.8078C64.8446 38.0705 64.0228 37.5939 63.7416 36.5886C63.4789 35.7853 63.9891 34.8474 64.9086 34.5847L75.9257 31.6296C76.7626 31.4006 77.6854 31.9108 77.9144 32.8303C78.1957 33.7868 77.6517 34.6574 76.7474 34.9201ZM67.1869 43.5124C66.2338 43.7751 65.412 43.2834 65.0971 42.278C64.8344 41.4899 65.3783 40.5519 66.2977 40.3229L77.2811 37.3342C78.1181 37.1389 79.0409 37.6154 79.3036 38.5197C79.5849 39.4763 79.0072 40.362 78.1029 40.6096ZM68.5424 49.217C67.6381 49.4645 66.7152 48.988 66.5199 47.9826C66.2909 47.1271 66.7675 46.2751 67.7206 46.0275L78.6703 43.091C79.6083 42.8098 80.4974 43.3537 80.6928 44.2243C80.9218 45.0798 80.4115 46.0178 79.5595 46.2468ZM97.8695 56.5324C99.9857 55.364 102.196 53.7477 104.486 51.5407C110.154 46.2922 113.206 38.5598 112.467 32.7692L97.0966 36.9431C95.3456 37.4128 93.869 37.4348 92.4462 37.1149Z" fill="#000000" fill-opacity="0.85"/>
 </g>
</svg>
