<?xml version="1.0" encoding="UTF-8"?>
<!--Generator: Apple Native CoreSVG 232.5-->
<!DOCTYPE svg
PUBLIC "-//W3C//DTD SVG 1.1//EN"
       "http://www.w3.org/Graphics/SVG/1.1/DTD/svg11.dtd">
<svg version="1.1" xmlns="http://www.w3.org/2000/svg" xmlns:xlink="http://www.w3.org/1999/xlink" width="97.9595" height="97.9932">
 <g>
  <rect height="97.9932" opacity="0" width="97.9595" x="0" y="0"/>
  <path d="M97.9595 48.9722C97.9595 75.7759 75.8247 97.9443 48.9722 97.9443C22.1685 97.9443 0 75.7759 0 48.9722C0 22.1348 22.1348 0 48.9385 0C75.791 0 97.9595 22.1348 97.9595 48.9722ZM60.6045 27.4858L49.4067 44.0996L49.1626 44.0996L37.9092 27.4522C37.0249 26.2192 36.2754 25.7207 34.9297 25.7207C33.2808 25.7207 31.9131 27.021 31.9131 28.6177C31.9131 29.4683 32.127 30.0005 32.73 30.8511L45.1387 48.5122L32.1792 66.9145C31.7109 67.6304 31.4971 68.1626 31.4971 68.9458C31.4971 70.4785 32.73 71.6441 34.4092 71.6441C35.6572 71.6441 36.3208 71.1792 37.291 69.8452L48.7095 53.2315L48.9351 53.2315L60.2744 69.8452C61.2261 71.1792 61.9419 71.6441 63.1865 71.6441C64.9365 71.6441 66.2368 70.4785 66.2368 68.7808C66.2368 67.9976 65.9893 67.4316 65.4722 66.7344L52.7232 48.6655L65.6152 30.5176C66.1509 29.8018 66.3648 29.1685 66.3648 28.4526C66.3648 26.9199 65.0982 25.7207 63.419 25.7207C62.2046 25.7207 61.4214 26.2192 60.6045 27.4858Z" fill="#000000" fill-opacity="0.85"/>
 </g>
</svg>
