<?xml version="1.0" encoding="UTF-8"?>
<!--Generator: Apple Native CoreSVG 232.5-->
<!DOCTYPE svg
PUBLIC "-//W3C//DTD SVG 1.1//EN"
       "http://www.w3.org/Graphics/SVG/1.1/DTD/svg11.dtd">
<svg version="1.1" xmlns="http://www.w3.org/2000/svg" xmlns:xlink="http://www.w3.org/1999/xlink" width="96.6763" height="83.3301">
 <g>
  <rect height="83.3301" opacity="0" width="96.6763" x="0" y="0"/>
  <path d="M16.4927 83.0298C19.8716 83.0298 21.6436 80.7002 22.5987 77.6514L44.1192 6.55715L93.1544 6.55715C95.2413 6.55715 96.6763 5.27199 96.6763 3.25245C96.6763 1.28516 95.2413 0 93.1544 0L43.9912 0C40.3731 0 38.6568 1.34082 37.6714 4.53273L16.8936 74.1319L16.2603 74.1319L6.80812 41.0322C6.23879 39.0278 5.12208 38.0762 3.41749 38.0762C1.41993 38.0762 0 39.4776 0 41.2798C0 42.0293 0.198731 42.6963 0.378907 43.3379L10.8062 78.0674C11.7241 81.0083 13.3765 83.0298 16.4927 83.0298ZM53.5328 73.9317C54.9156 73.9317 55.6314 73.4331 56.6353 72.0132L68.5103 54.8081L68.7359 54.8081L80.4981 72.0132C81.5357 73.4331 82.2515 73.9317 83.6309 73.9317C85.482 73.9317 86.8345 72.6651 86.8345 70.8999C86.8345 70.083 86.6358 69.416 86.085 68.7002L72.7784 49.9541L86.2129 31.0952C86.7637 30.312 86.9962 29.645 86.9962 28.8955C86.9962 27.2769 85.6622 26.0103 83.8633 26.0103C82.5479 26.0103 81.7647 26.4751 80.813 27.8428L69.2598 45.1001L69.0157 45.1001L57.2872 27.8091C56.3692 26.4751 55.5523 26.0103 54.1543 26.0103C52.3706 26.0103 50.917 27.3628 50.917 29.0757C50.917 29.9785 51.1494 30.5781 51.7862 31.4287L64.7188 49.8008L51.2168 68.9326C50.666 69.6821 50.501 70.2295 50.501 71.065C50.501 72.6651 51.7862 73.9317 53.5328 73.9317Z" fill="#000000" fill-opacity="0.85"/>
 </g>
</svg>
