<?xml version="1.0" encoding="UTF-8"?>
<!--Generator: Apple Native CoreSVG 232.5-->
<!DOCTYPE svg
PUBLIC "-//W3C//DTD SVG 1.1//EN"
       "http://www.w3.org/Graphics/SVG/1.1/DTD/svg11.dtd">
<svg version="1.1" xmlns="http://www.w3.org/2000/svg" xmlns:xlink="http://www.w3.org/1999/xlink" width="88.4092" height="88.5371">
 <g>
  <rect height="88.5371" opacity="0" width="88.4092" x="0" y="0"/>
  <path d="M88.4092 14.4019L88.4092 74.2632C88.4092 83.6558 83.5733 88.5371 74.0005 88.5371L14.3936 88.5371C4.86963 88.5371 0 83.7349 0 74.2632L0 14.4019C0 4.93018 4.86963 0.127929 14.3936 0.127929L74.0005 0.127929C83.5733 0.127929 88.4092 5.00928 88.4092 14.4019ZM55.8462 22.7578L44.6821 39.3716L44.4043 39.3716L33.1509 22.7241C32.2666 21.4912 31.5171 20.9927 30.1865 20.9927C28.5376 20.9927 27.1699 22.293 27.1699 23.8897C27.1699 24.7402 27.4023 25.2725 27.9868 26.1231L40.3955 43.7842L27.4697 62.1865C26.9526 62.9023 26.7539 63.4346 26.7539 64.2178C26.7539 65.7505 27.9868 66.916 29.6509 66.916C30.9141 66.916 31.5962 66.4512 32.5479 65.1172L43.9663 48.5034L44.1768 48.5034L55.5313 65.1172C56.4678 66.4512 57.1987 66.916 58.4619 66.916C60.2119 66.916 61.4785 65.7505 61.4785 64.0527C61.4785 63.2695 61.2461 62.7036 60.729 62.0063L47.9649 43.9375L60.8569 25.7896C61.4077 25.0737 61.6402 24.4404 61.6402 23.7246C61.6402 22.1919 60.3399 20.9927 58.6758 20.9927C57.4463 20.9927 56.6631 21.4912 55.8462 22.7578Z" fill="#000000" fill-opacity="0.85"/>
 </g>
</svg>
