<?xml version="1.0" encoding="UTF-8"?>
<!--Generator: Apple Native CoreSVG 232.5-->
<!DOCTYPE svg
PUBLIC "-//W3C//DTD SVG 1.1//EN"
       "http://www.w3.org/Graphics/SVG/1.1/DTD/svg11.dtd">
<svg version="1.1" xmlns="http://www.w3.org/2000/svg" xmlns:xlink="http://www.w3.org/1999/xlink" width="88.4092" height="88.5371">
 <g>
  <rect height="88.5371" opacity="0" width="88.4092" x="0" y="0"/>
  <path d="M88.4092 14.4019L88.4092 74.2632C88.4092 83.6558 83.5733 88.5371 74.0005 88.5371L14.3936 88.5371C4.86963 88.5371 0 83.7349 0 74.2632L0 14.4019C0 4.93018 4.86963 0.127929 14.3936 0.127929L74.0005 0.127929C83.5733 0.127929 88.4092 5.00928 88.4092 14.4019ZM58.4946 25.6719L44.229 39.8701L30.0308 25.7056C29.3555 25.0791 28.6885 24.7793 27.7925 24.7793C26.0308 24.7793 24.6514 26.0947 24.6514 27.8599C24.6514 28.7222 24.9512 29.4717 25.5962 30.1167L39.7725 44.293L25.5962 58.5029C24.9512 59.1143 24.6514 59.8975 24.6514 60.7598C24.6514 62.4912 26.0308 63.874 27.7925 63.874C28.6885 63.874 29.4566 63.5742 30.1167 62.9141L44.229 48.7495L58.3599 62.9141C59.0015 63.5742 59.8184 63.874 60.6655 63.874C62.4609 63.874 63.874 62.4912 63.874 60.7598C63.874 59.8638 63.5742 59.0806 62.9292 58.4692L48.7041 44.293L62.9629 30.083C63.6265 29.3706 63.9077 28.6885 63.9077 27.7925C63.9077 26.061 62.4946 24.7119 60.7329 24.7119C59.9194 24.7119 59.1885 24.978 58.4946 25.6719Z" fill="#000000" fill-opacity="0.85"/>
 </g>
</svg>
