<?xml version="1.0" encoding="UTF-8"?>
<!--Generator: Apple Native CoreSVG 232.5-->
<!DOCTYPE svg
PUBLIC "-//W3C//DTD SVG 1.1//EN"
       "http://www.w3.org/Graphics/SVG/1.1/DTD/svg11.dtd">
<svg version="1.1" xmlns="http://www.w3.org/2000/svg" xmlns:xlink="http://www.w3.org/1999/xlink" width="114.35" height="88.4395">
 <g>
  <rect height="88.4395" opacity="0" width="114.35" x="0" y="0"/>
  <path d="M14.3936 88.4092L99.9409 88.4092C109.514 88.4092 114.35 83.5615 114.35 74.169L114.35 14.2739C114.35 4.88135 109.514 0 99.9409 0L14.3936 0C4.86963 0 0 4.83594 0 14.2739L0 74.169C0 83.6069 4.86963 88.4092 14.3936 88.4092ZM14.5064 82.3794C9.00294 82.3794 6.04494 79.4736 6.04494 73.8355L6.04494 14.6074C6.04494 8.96925 9.00294 6.04494 14.5064 6.04494L99.8433 6.04494C105.237 6.04494 108.305 8.96925 108.305 14.6074L108.305 73.8355C108.305 79.4736 105.237 82.3794 99.8433 82.3794Z" fill="#000000" fill-opacity="0.85"/>
  <path d="M40.1948 64.3501C41.0723 64.3501 41.7915 64.0166 42.4331 63.3565L57.2085 48.5659L71.999 63.3565C72.6406 63.9829 73.3901 64.3501 74.271 64.3501C75.9653 64.3501 77.3447 63.001 77.3447 61.2881C77.3447 60.4072 77.0112 59.7251 76.3999 59.0801L61.564 44.2441L76.4336 29.356C77.0786 28.6773 77.3784 28.0288 77.3784 27.1665C77.3784 25.4873 75.999 24.1382 74.3047 24.1382C73.4761 24.1382 72.7939 24.438 72.1001 25.1318L57.2085 39.9561L42.3657 25.1655C41.7241 24.5054 41.0723 24.2056 40.1948 24.2056C38.4668 24.2056 37.1211 25.521 37.1211 27.2002C37.1211 28.0474 37.4209 28.7783 38.0659 29.3897L52.9018 44.2441L38.0659 59.1138C37.4209 59.7251 37.1211 60.4409 37.1211 61.2881C37.1211 63.001 38.4668 64.3501 40.1948 64.3501Z" fill="#000000" fill-opacity="0.85"/>
 </g>
</svg>
