<?xml version="1.0" encoding="UTF-8"?>
<!--Generator: Apple Native CoreSVG 232.5-->
<!DOCTYPE svg
PUBLIC "-//W3C//DTD SVG 1.1//EN"
       "http://www.w3.org/Graphics/SVG/1.1/DTD/svg11.dtd">
<svg version="1.1" xmlns="http://www.w3.org/2000/svg" xmlns:xlink="http://www.w3.org/1999/xlink" width="79.6714" height="97.9785">
 <g>
  <rect height="97.9785" opacity="0" width="79.6714" x="0" y="0"/>
  <path d="M43.0405 2.59082C49.9458 4.9829 65.1045 10.6699 72.0132 13.3921C76.5083 15.207 78.3692 16.8789 78.3692 22.0444L78.3692 58.8003C78.3692 75.4214 69.7515 81.834 42.3921 96.9902C41.3076 97.5645 40.0718 97.9785 39.1846 97.9785C38.2822 97.9785 37.0952 97.5982 35.9771 96.9902C9.01514 81.1553 0 75.4214 0 58.8003L0 22.0444C0 16.8789 1.89453 15.1431 6.35596 13.3921C13.2495 10.6885 28.4536 5.00634 35.3472 2.59082C36.6167 2.18506 37.8779 1.89209 39.1846 1.89209C40.4912 1.89209 41.7524 2.15136 43.0405 2.59082ZM53.4653 29.3218L39.1997 43.52L24.9863 29.3403C24.3262 28.7139 23.6592 28.4141 22.7481 28.4141C20.9863 28.4141 19.6221 29.7295 19.6221 31.4761C19.6221 32.3232 19.9219 33.1065 20.5669 33.7178L34.7432 47.9429L20.5669 62.1191C19.9219 62.7642 19.6221 63.5137 19.6221 64.376C19.6221 66.1411 20.9863 67.5239 22.7481 67.5239C23.6592 67.5239 24.4273 67.2241 25.0874 66.564L39.1997 52.3843L53.3306 66.564C53.9722 67.2241 54.7554 67.5239 55.6362 67.5239C57.4317 67.5239 58.8296 66.1411 58.8296 64.376C58.8296 63.48 58.5298 62.7305 57.8848 62.0854L43.6748 47.9429L57.9185 33.6841C58.5972 33.0205 58.8633 32.2896 58.8633 31.4087C58.8633 29.6958 57.4653 28.3467 55.7036 28.3467C54.8413 28.3467 54.1592 28.6128 53.4653 29.3218Z" fill="#000000" fill-opacity="0.85"/>
 </g>
</svg>
