<?xml version="1.0" encoding="UTF-8"?>
<!--Generator: Apple Native CoreSVG 232.5-->
<!DOCTYPE svg
PUBLIC "-//W3C//DTD SVG 1.1//EN"
       "http://www.w3.org/Graphics/SVG/1.1/DTD/svg11.dtd">
<svg version="1.1" xmlns="http://www.w3.org/2000/svg" xmlns:xlink="http://www.w3.org/1999/xlink" width="116.775" height="88.5371">
 <g>
  <rect height="88.5371" opacity="0" width="116.775" x="0" y="0"/>
  <path d="M33.0918 88.5371L83.6348 88.5371C92.7847 88.5371 96.8511 83.9844 98.2554 74.9741L106.192 21.9854L100.147 22.3071L92.2441 74.8613C91.4209 80.3159 88.5605 82.814 83.5371 82.814L33.2383 82.814C28.0566 82.814 25.3208 80.3159 24.5313 74.8613L16.6128 22.3071L10.583 21.9854L18.52 74.9741C19.8755 84.0938 23.9907 88.5371 33.0918 88.5371ZM8.35401 25.0611L108.421 25.0611C113.761 25.0611 116.775 21.6494 116.775 16.3433L116.775 8.86085C116.775 3.53955 113.761 0.127929 108.421 0.127929L8.35401 0.127929C3.20117 0.127929 0 3.53955 0 8.86085L0 16.3433C0 21.6494 3.01416 25.0611 8.35401 25.0611ZM9.67482 19.353C7.188 19.353 6.04494 18.0703 6.04494 15.5986L6.04494 9.59034C6.04494 7.11866 7.188 5.85109 9.67482 5.85109L107.134 5.85109C109.606 5.85109 110.73 7.11866 110.73 9.59034L110.73 15.5986C110.73 18.0703 109.606 19.353 107.134 19.353Z" fill="#000000" fill-opacity="0.85"/>
  <path d="M43.8281 70.9136C44.6079 70.9136 45.2749 70.5464 45.8408 70.0142L58.3784 57.4429L70.9497 70.0142C71.4819 70.5127 72.1792 70.9136 72.9961 70.9136C74.5776 70.9136 75.8931 69.5493 75.8931 67.9829C75.8931 67.1021 75.5259 66.5024 74.9937 65.9365L62.4898 53.3989L75.0273 40.7603C75.5933 40.1607 75.9268 39.5645 75.9268 38.7813C75.9268 37.1509 74.6602 35.8843 72.9961 35.8843C72.2651 35.8843 71.6167 36.1841 71.0171 36.7837L58.3784 49.355L45.8071 36.8174C45.2075 36.2363 44.6079 35.9517 43.8281 35.9517C42.228 35.9517 40.8975 37.1997 40.8975 38.7813C40.8975 39.5982 41.2646 40.2617 41.7969 40.794L54.3008 53.3989L41.7969 65.9702C41.2646 66.5024 40.8975 67.1357 40.8975 67.9829C40.8975 69.5645 42.2129 70.9136 43.8281 70.9136Z" fill="#000000" fill-opacity="0.85"/>
 </g>
</svg>
