<?xml version="1.0" encoding="UTF-8"?>
<!--Generator: Apple Native CoreSVG 232.5-->
<!DOCTYPE svg
PUBLIC "-//W3C//DTD SVG 1.1//EN"
       "http://www.w3.org/Graphics/SVG/1.1/DTD/svg11.dtd">
<svg version="1.1" xmlns="http://www.w3.org/2000/svg" xmlns:xlink="http://www.w3.org/1999/xlink" width="97.9595" height="97.9932">
 <g>
  <rect height="97.9932" opacity="0" width="97.9595" x="0" y="0"/>
  <path d="M97.9595 49.021C97.9595 75.8584 75.8247 97.9932 48.9722 97.9932C22.1685 97.9932 0 75.8584 0 49.021C0 22.2173 22.1348 0.0488281 48.9385 0.0488281C75.791 0.0488281 97.9595 22.2173 97.9595 49.021ZM23.7881 43.4268L27.4282 68.5259C28.1489 73.4966 30.2974 76.0913 35.2158 76.0913L62.7437 76.0913C67.6958 76.0913 69.7954 73.4175 70.5313 68.5259L74.2051 43.4268ZM58.6387 51.169C58.6387 51.6978 58.4888 52.0918 58.0947 52.5195L51.6397 59.0049L58.0947 65.4448C58.4063 65.7901 58.605 66.2481 58.605 66.7617C58.605 67.7485 57.7495 68.6411 56.7441 68.6411C56.2002 68.6411 55.7573 68.375 55.4273 68.1123L48.9385 61.6421L42.5171 68.1123C42.2022 68.4087 41.7256 68.6411 41.2002 68.6411C40.1123 68.6411 39.3057 67.7485 39.3057 66.7617C39.3057 66.2481 39.5195 65.7901 39.8833 65.4448L46.3047 59.0049L39.8833 52.5195C39.5195 52.1406 39.3057 51.7315 39.3057 51.169C39.3057 50.1636 40.1123 49.3569 41.2002 49.3569C41.7256 49.3569 42.1533 49.5371 42.4834 49.916L48.9385 56.3711L55.4609 49.916C55.8062 49.5371 56.2339 49.3384 56.7441 49.3384C57.8472 49.3384 58.6387 50.1148 58.6387 51.169ZM21.6118 27.9878C18.9429 27.9878 17.3701 29.6885 17.3701 32.4282L17.3701 35.4971C17.3701 38.1694 18.8418 39.8701 21.6118 39.8701L76.3477 39.8701C79.1025 39.8701 80.5894 38.1694 80.5894 35.4971L80.5894 32.4282C80.5894 29.6885 79.1025 27.9878 76.3477 27.9878Z" fill="#000000" fill-opacity="0.85"/>
 </g>
</svg>
