<?xml version="1.0" encoding="UTF-8"?>
<!--Generator: Apple Native CoreSVG 232.5-->
<!DOCTYPE svg
PUBLIC "-//W3C//DTD SVG 1.1//EN"
       "http://www.w3.org/Graphics/SVG/1.1/DTD/svg11.dtd">
<svg version="1.1" xmlns="http://www.w3.org/2000/svg" xmlns:xlink="http://www.w3.org/1999/xlink" width="80.7363" height="104.094">
 <g>
  <rect height="104.094" opacity="0" width="80.7363" x="0" y="0"/>
  <path d="M80.7363 14.4356L80.7363 89.7187C80.7363 99.2578 75.9341 104.094 66.4624 104.094L14.2739 104.094C4.80225 104.094 0 99.2578 0 89.7187L0 14.4356C0 4.93018 4.80225 0.0268549 14.2739 0.0268549L66.4624 0.0268549C75.9341 0.0268549 80.7363 4.93018 80.7363 14.4356ZM54.6826 33.5293L40.417 47.7275L26.2036 33.563C25.5435 32.9214 24.8765 32.5879 23.9316 32.5879C22.2036 32.5879 20.8057 33.9521 20.8057 35.6836C20.8057 36.5459 21.1392 37.2954 21.7505 37.9404L35.9604 52.1504L21.7505 66.3267C21.1392 66.9717 20.8057 67.7212 20.8057 68.5835C20.8057 70.3486 22.2036 71.7315 23.9316 71.7315C24.8765 71.7315 25.6445 71.398 26.3047 70.7715L40.417 56.5581L54.5479 70.7715C55.1895 71.398 55.9575 71.7315 56.8535 71.7315C58.6152 71.7315 60.0132 70.3486 60.0132 68.5835C60.0132 67.6875 59.7471 66.938 59.0684 66.293L44.8584 52.1504L59.1021 37.9067C59.8145 37.1943 60.0469 36.5122 60.0469 35.6162C60.0469 33.9185 58.6489 32.5356 56.9209 32.5356C56.0586 32.5356 55.3765 32.8354 54.6826 33.5293Z" fill="#000000" fill-opacity="0.85"/>
 </g>
</svg>
