<?xml version="1.0" encoding="UTF-8"?>
<!--Generator: Apple Native CoreSVG 232.5-->
<!DOCTYPE svg
PUBLIC "-//W3C//DTD SVG 1.1//EN"
       "http://www.w3.org/Graphics/SVG/1.1/DTD/svg11.dtd">
<svg version="1.1" xmlns="http://www.w3.org/2000/svg" xmlns:xlink="http://www.w3.org/1999/xlink" width="114.35" height="67.249">
 <g>
  <rect height="67.249" opacity="0" width="114.35" x="0" y="0"/>
  <path d="M14.3936 67.249L99.9409 67.249C109.48 67.249 114.35 62.4468 114.35 52.9902L114.35 37.2778C114.35 31.7842 113.044 28.2895 109.733 24.8994L92.2207 6.65284C87.6963 1.97022 83.9951 0.0488281 78.0156 0.0488281L36.334 0.0488281C30.373 0.0488281 26.6382 1.97022 22.1475 6.65284L4.61622 24.8994C1.33887 28.2895 0 31.7842 0 37.2778L0 52.9902C0 62.4468 4.86963 67.249 14.3936 67.249ZM14.5064 61.2192C9.00294 61.2192 6.04494 58.3286 6.04494 52.6904L6.04494 41.4434C6.04494 38.961 7.16994 37.7871 9.63381 37.7871L104.716 37.7871C107.165 37.7871 108.305 38.961 108.305 41.4434L108.305 52.6904C108.305 58.3286 105.347 61.2192 99.8433 61.2192ZM9.29836 32.2778C7.75588 32.2778 7.34328 30.8667 8.27785 29.917L27.2422 9.77247C30.2393 6.61378 32.4331 5.55812 36.3916 5.55812L77.958 5.55812C81.9014 5.55812 84.1103 6.61378 87.1074 9.77247L106.105 29.917C107.006 30.8667 106.627 32.2778 105.036 32.2778ZM17.9209 54.3067C20.5845 54.3067 22.812 52.1128 22.812 49.3853C22.812 46.7368 20.5845 44.5278 17.9209 44.5278C15.2085 44.5278 12.9995 46.7368 12.9995 49.3853C12.9995 52.1128 15.2085 54.3067 17.9209 54.3067ZM31.3569 55.938C32.7192 55.938 33.856 54.8872 33.856 53.5586L33.856 45.4815C33.856 44.1192 32.7192 43.0835 31.3569 43.0835C30.0283 43.0835 28.9775 44.1192 28.9775 45.4815L28.9775 53.5586C28.9775 54.8872 30.0283 55.938 31.3569 55.938ZM40.6108 55.938C41.9732 55.938 43.125 54.8872 43.125 53.5586L43.125 45.4815C43.125 44.1192 41.9732 43.0835 40.6108 43.0835C39.2822 43.0835 38.2466 44.1192 38.2466 45.4815L38.2466 53.5586C38.2466 54.8872 39.2822 55.938 40.6108 55.938ZM51.1743 52.5303C52.8765 52.5303 54.2705 51.1211 54.2705 49.3853C54.2705 47.6983 52.8765 46.2891 51.1743 46.2891C49.4722 46.2891 48.0781 47.6983 48.0781 49.3853C48.0781 51.1211 49.4722 52.5303 51.1743 52.5303ZM61.7715 55.938C63.1001 55.938 64.1509 54.8872 64.1509 53.5586L64.1509 45.4815C64.1509 44.1192 63.1001 43.0835 61.7715 43.0835C60.4092 43.0835 59.2725 44.1192 59.2725 45.4815L59.2725 53.5586C59.2725 54.8872 60.4092 55.938 61.7715 55.938ZM71.0254 55.938C72.3877 55.938 73.4048 54.8872 73.4048 53.5586L73.4048 45.4815C73.4048 44.1192 72.3877 43.0835 71.0254 43.0835C69.6782 43.0835 68.5601 44.1192 68.5601 45.4815L68.5601 53.5586C68.5601 54.8872 69.6782 55.938 71.0254 55.938ZM82.2998 51.9668L99.6606 51.9668C101.023 51.9668 102.074 50.815 102.074 49.4526C102.074 48.124 101.023 47.0733 99.6606 47.0733L82.2998 47.0733C80.9712 47.0733 79.9204 48.124 79.9204 49.4526C79.9204 50.815 80.9712 51.9668 82.2998 51.9668Z" fill="#000000" fill-opacity="0.85"/>
 </g>
</svg>
