<?xml version="1.0" encoding="UTF-8"?>
<!--Generator: Apple Native CoreSVG 232.5-->
<!DOCTYPE svg
PUBLIC "-//W3C//DTD SVG 1.1//EN"
       "http://www.w3.org/Graphics/SVG/1.1/DTD/svg11.dtd">
<svg version="1.1" xmlns="http://www.w3.org/2000/svg" xmlns:xlink="http://www.w3.org/1999/xlink" width="97.9595" height="97.9932">
 <g>
  <rect height="97.9932" opacity="0" width="97.9595" x="0" y="0"/>
  <path d="M97.9595 48.9722C97.9595 75.7759 75.8247 97.9443 48.9722 97.9443C22.1685 97.9443 0 75.7759 0 48.9722C0 22.1348 22.1348 0 48.9385 0C75.791 0 97.9595 22.1348 97.9595 48.9722ZM61.5854 27.624L49.1372 47.3989L48.8594 47.3989L36.4937 27.624C35.6616 26.2041 34.8818 25.7207 33.5293 25.7207C31.8838 25.7207 30.6509 26.9536 30.6509 28.4678C30.6509 29.064 30.8159 29.6787 31.2134 30.312L45.8916 53.4605L45.8916 68.1743C45.8916 70.2578 47.0049 71.6441 48.9722 71.6441C50.9732 71.6441 52.1201 70.3589 52.1201 68.1743L52.1201 53.3931L66.731 30.312C67.1284 29.7461 67.2935 29.0977 67.2935 28.5352C67.2935 26.9199 66.1279 25.7207 64.4487 25.7207C63.1147 25.7207 62.3838 26.2378 61.5854 27.624Z" fill="#000000" fill-opacity="0.85"/>
 </g>
</svg>
