<?xml version="1.0" encoding="UTF-8"?>
<!--Generator: Apple Native CoreSVG 232.5-->
<!DOCTYPE svg
PUBLIC "-//W3C//DTD SVG 1.1//EN"
       "http://www.w3.org/Graphics/SVG/1.1/DTD/svg11.dtd">
<svg version="1.1" xmlns="http://www.w3.org/2000/svg" xmlns:xlink="http://www.w3.org/1999/xlink" width="88.4092" height="88.5371">
 <g>
  <rect height="88.5371" opacity="0" width="88.4092" x="0" y="0"/>
  <path d="M14.3936 88.5371L74.0005 88.5371C83.5733 88.5371 88.4092 83.6558 88.4092 74.2632L88.4092 14.4019C88.4092 5.00928 83.5733 0.127929 74.0005 0.127929L14.3936 0.127929C4.86963 0.127929 0 4.93018 0 14.4019L0 74.2632C0 83.7349 4.86963 88.5371 14.3936 88.5371ZM14.5064 82.4922C9.00294 82.4922 6.04494 79.6016 6.04494 73.9634L6.04494 14.7017C6.04494 9.06349 9.00294 6.17287 14.5064 6.17287L73.9028 6.17287C79.2969 6.17287 82.3643 9.06349 82.3643 14.7017L82.3643 73.9634C82.3643 79.6016 79.2969 82.4922 73.9028 82.4922Z" fill="#000000" fill-opacity="0.85"/>
  <path d="M44.229 66.4409C46.1475 66.4409 47.2759 65.1743 47.2759 63.0908L47.2759 48.5454L61.6323 25.9058C61.981 25.3735 62.1611 24.7588 62.1611 24.1963C62.1611 22.6484 61.0142 21.4678 59.4175 21.4678C58.1509 21.4678 57.4048 21.9512 56.6064 23.3189L44.4277 42.7046L44.1162 42.7046L31.9375 23.3189C31.1392 21.9175 30.3931 21.4678 29.0742 21.4678C27.4961 21.4678 26.2969 22.6821 26.2969 24.1289C26.2969 24.7251 26.4619 25.3062 26.8106 25.9058L41.2344 48.5977L41.2344 63.0908C41.2344 65.1069 42.3291 66.4409 44.229 66.4409Z" fill="#000000" fill-opacity="0.85"/>
 </g>
</svg>
