<?xml version="1.0" encoding="UTF-8"?>
<!--Generator: Apple Native CoreSVG 232.5-->
<!DOCTYPE svg
PUBLIC "-//W3C//DTD SVG 1.1//EN"
       "http://www.w3.org/Graphics/SVG/1.1/DTD/svg11.dtd">
<svg version="1.1" xmlns="http://www.w3.org/2000/svg" xmlns:xlink="http://www.w3.org/1999/xlink" width="88.4092" height="88.5371">
 <g>
  <rect height="88.5371" opacity="0" width="88.4092" x="0" y="0"/>
  <path d="M88.4092 14.4019L88.4092 74.2632C88.4092 83.6558 83.5733 88.5371 74.0005 88.5371L14.3936 88.5371C4.86963 88.5371 0 83.7349 0 74.2632L0 14.4019C0 4.93018 4.86963 0.127929 14.3936 0.127929L74.0005 0.127929C83.5733 0.127929 88.4092 5.00928 88.4092 14.4019ZM56.8271 22.896L44.4277 42.6709L44.1162 42.6709L31.7505 22.896C30.9185 21.4761 30.1387 20.9927 28.771 20.9927C27.1406 20.9927 25.9077 22.2256 25.9077 23.7398C25.9077 24.3359 26.0728 24.9507 26.4551 25.584L41.1333 48.7324L41.1333 63.4463C41.1333 65.5298 42.2617 66.916 44.229 66.916C46.2149 66.916 47.377 65.6309 47.377 63.4463L47.377 48.6651L61.9878 25.584C62.3701 25.0181 62.5503 24.3696 62.5503 23.8071C62.5503 22.1919 61.3696 20.9927 59.7056 20.9927C58.4053 20.9927 57.6406 21.5098 56.8271 22.896Z" fill="#000000" fill-opacity="0.85"/>
 </g>
</svg>
