<?xml version="1.0" encoding="UTF-8"?>
<!--Generator: Apple Native CoreSVG 232.5-->
<!DOCTYPE svg
PUBLIC "-//W3C//DTD SVG 1.1//EN"
       "http://www.w3.org/Graphics/SVG/1.1/DTD/svg11.dtd">
<svg version="1.1" xmlns="http://www.w3.org/2000/svg" xmlns:xlink="http://www.w3.org/1999/xlink" width="97.9595" height="97.9932">
 <g>
  <rect height="97.9932" opacity="0" width="97.9595" x="0" y="0"/>
  <path d="M48.9722 97.9443C75.8247 97.9443 97.9595 75.7759 97.9595 48.9722C97.9595 22.1348 75.791 0 48.9385 0C22.1348 0 0 22.1348 0 48.9722C0 75.7759 22.1685 97.9443 48.9722 97.9443ZM48.9722 91.6113C25.3501 91.6113 6.36671 72.5942 6.36671 48.9722C6.36671 25.3501 25.3164 6.31789 48.9385 6.31789C72.5605 6.31789 91.6265 25.3501 91.6265 48.9722C91.6265 72.5942 72.5942 91.6113 48.9722 91.6113Z" fill="#000000" fill-opacity="0.85"/>
  <path d="M48.9688 72.8618C50.4458 72.8618 51.458 71.8799 51.458 70.29L51.458 62.2866L60.7485 62.2866C61.9072 62.2866 62.7324 61.3941 62.7324 60.2539C62.7324 59.1138 61.9072 58.2549 60.7485 58.2549L51.458 58.2549L51.458 54.3589L60.7485 54.3589C61.9072 54.3589 62.7324 53.4849 62.7324 52.3447C62.7324 51.186 61.9072 50.312 60.7485 50.312L53.3862 50.312L65.4483 31.2051C65.812 30.6729 65.9434 30.1777 65.9434 29.5815C65.9434 28.2881 64.8975 27.2607 63.4878 27.2607C62.543 27.2607 61.8272 27.6431 61.2832 28.5845L48.9722 48.6226L36.6763 28.5508C36.0986 27.6245 35.4165 27.227 34.438 27.227C33.0435 27.227 31.9824 28.2393 31.9824 29.5327C31.9824 30.1743 32.1777 30.6543 32.4775 31.1714L44.5732 50.312L37.6567 50.312C36.498 50.312 35.7065 51.186 35.7065 52.3447C35.7065 53.4849 36.5015 54.3589 37.6567 54.3589L46.5166 54.3589L46.5166 58.2549L37.6567 58.2549C36.498 58.2549 35.7065 59.1138 35.7065 60.2539C35.7065 61.3941 36.5015 62.2866 37.6567 62.2866L46.5166 62.2866L46.5166 70.2564C46.5166 71.8462 47.5405 72.8618 48.9688 72.8618Z" fill="#000000" fill-opacity="0.85"/>
 </g>
</svg>
