<?xml version="1.0" encoding="UTF-8"?>
<!--Generator: Apple Native CoreSVG 232.5-->
<!DOCTYPE svg
PUBLIC "-//W3C//DTD SVG 1.1//EN"
       "http://www.w3.org/Graphics/SVG/1.1/DTD/svg11.dtd">
<svg version="1.1" xmlns="http://www.w3.org/2000/svg" xmlns:xlink="http://www.w3.org/1999/xlink" width="88.4092" height="88.5371">
 <g>
  <rect height="88.5371" opacity="0" width="88.4092" x="0" y="0"/>
  <path d="M14.3936 88.5371L74.0005 88.5371C83.5733 88.5371 88.4092 83.6558 88.4092 74.2632L88.4092 14.4019C88.4092 5.00928 83.5733 0.127929 74.0005 0.127929L14.3936 0.127929C4.86963 0.127929 0 4.93018 0 14.4019L0 74.2632C0 83.7349 4.86963 88.5371 14.3936 88.5371ZM14.5064 82.4922C9.00294 82.4922 6.04494 79.6016 6.04494 73.9634L6.04494 14.7017C6.04494 9.06349 9.00294 6.17287 14.5064 6.17287L73.9028 6.17287C79.2969 6.17287 82.3643 9.06349 82.3643 14.7017L82.3643 73.9634C82.3643 79.6016 79.2969 82.4922 73.9028 82.4922Z" fill="#000000" fill-opacity="0.85"/>
  <path d="M44.2778 68.1338C45.7363 68.1338 46.7334 67.1519 46.7334 65.562L46.7334 57.5586L56.0576 57.5586C57.2315 57.5586 58.0078 56.666 58.0078 55.5259C58.0078 54.3858 57.2315 53.5269 56.0576 53.5269L46.7334 53.5269L46.7334 49.6309L56.0576 49.6309C57.2315 49.6309 58.0078 48.7568 58.0078 47.6167C58.0078 46.458 57.2315 45.584 56.0576 45.584L48.6616 45.584L60.7388 26.4771C61.0874 25.9448 61.2525 25.4497 61.2525 24.8535C61.2525 23.5601 60.188 22.5327 58.7783 22.5327C57.8335 22.5327 57.1362 22.915 56.5586 23.8564L44.2627 43.8945L31.9517 23.8228C31.374 22.8965 30.6919 22.499 29.7471 22.499C28.3525 22.499 27.2578 23.5112 27.2578 24.8047C27.2578 25.4463 27.4531 25.9263 27.7529 26.4434L39.8638 45.584L32.9473 45.584C31.7734 45.584 30.9971 46.458 30.9971 47.6167C30.9971 48.7568 31.792 49.6309 32.9473 49.6309L41.8071 49.6309L41.8071 53.5269L32.9473 53.5269C31.7734 53.5269 30.9971 54.3858 30.9971 55.5259C30.9971 56.666 31.792 57.5586 32.9473 57.5586L41.8071 57.5586L41.8071 65.5283C41.8071 67.1182 42.8647 68.1338 44.2778 68.1338Z" fill="#000000" fill-opacity="0.85"/>
 </g>
</svg>
