<?xml version="1.0" encoding="UTF-8"?>
<!--Generator: Apple Native CoreSVG 232.5-->
<!DOCTYPE svg
PUBLIC "-//W3C//DTD SVG 1.1//EN"
       "http://www.w3.org/Graphics/SVG/1.1/DTD/svg11.dtd">
<svg version="1.1" xmlns="http://www.w3.org/2000/svg" xmlns:xlink="http://www.w3.org/1999/xlink" width="97.9595" height="97.9932">
 <g>
  <rect height="97.9932" opacity="0" width="97.9595" x="0" y="0"/>
  <path d="M48.9722 97.9443C75.8247 97.9443 97.9595 75.7759 97.9595 48.9722C97.9595 22.1348 75.791 0 48.9385 0C22.1348 0 0 22.1348 0 48.9722C0 75.7759 22.1685 97.9443 48.9722 97.9443ZM48.9722 91.6113C25.3501 91.6113 6.36671 72.5942 6.36671 48.9722C6.36671 25.3501 25.3164 6.31789 48.9385 6.31789C72.5605 6.31789 91.6265 25.3501 91.6265 48.9722C91.6265 72.5942 72.5942 91.6113 48.9722 91.6113Z" fill="#000000" fill-opacity="0.85"/>
  <path d="M34.9819 70.6738L63.4741 70.6738C64.9663 70.6738 66.0645 69.6802 66.0645 68.1509C66.0645 66.603 64.9663 65.6094 63.4741 65.6094L39.7945 65.6094L39.7945 65.2642L63.6294 32.3442C64.4849 31.1924 64.665 30.6148 64.665 29.6128C64.665 27.9102 63.4121 26.6909 61.5967 26.6909L34.5122 26.6909C33.0352 26.6909 31.9707 27.6846 31.9707 29.2139C31.9707 30.7617 33.0352 31.7705 34.5122 31.7705L57.0317 31.7705L57.0317 32.1157L33.1025 65.0508C32.1797 66.3525 31.981 66.8999 31.981 67.8682C31.981 69.5186 33.1851 70.6738 34.9819 70.6738Z" fill="#000000" fill-opacity="0.85"/>
 </g>
</svg>
