<?xml version="1.0" encoding="UTF-8"?>
<!--Generator: Apple Native CoreSVG 232.5-->
<!DOCTYPE svg
PUBLIC "-//W3C//DTD SVG 1.1//EN"
       "http://www.w3.org/Graphics/SVG/1.1/DTD/svg11.dtd">
<svg version="1.1" xmlns="http://www.w3.org/2000/svg" xmlns:xlink="http://www.w3.org/1999/xlink" width="109.998" height="83.086">
 <g>
  <rect height="83.086" opacity="0" width="109.998" x="0" y="0"/>
  <path d="M38.999 0C11.6475 0 0 12.7192 0 38.1533L0 69.147C0 78.2988 4.79053 83.0371 13.9912 83.0371L96.0064 83.0371C105.192 83.0371 109.998 78.2349 109.998 69.147L109.998 38.1533C109.998 12.7192 98.335 0 70.9985 0ZM39.0293 6.04494L70.9194 6.04494C94.3027 6.04494 103.953 16.4634 103.953 37.8433L103.953 68.8472C103.953 74.2295 101.028 76.9922 95.8413 76.9922L14.1563 76.9922C8.81105 76.9922 6.04494 74.2295 6.04494 68.8472L6.04494 37.8433C6.04494 16.4634 15.6797 6.04494 39.0293 6.04494Z" fill="#000000" fill-opacity="0.85"/>
  <path d="M33.9707 61.4287L51.9204 61.4287C53.229 61.4287 54.3389 60.3189 54.3389 59.0103C54.3389 57.7017 53.229 56.5918 51.9204 56.5918L37.5025 56.5918L37.5025 56.314L53.1011 27.0869C53.4985 26.3106 53.8101 25.605 53.8101 24.6602C53.8101 23.0181 52.6665 21.8442 50.9116 21.8442L33.6118 21.8442C32.2881 21.8442 31.1782 22.9541 31.1782 24.2627C31.1782 25.5713 32.2881 26.6812 33.6118 26.6812L47.4775 26.6812L47.4775 26.959L31.7476 56.2349C31.2524 57.124 31.0874 57.7539 31.0874 58.6802C31.0874 60.4199 32.2647 61.4287 33.9707 61.4287ZM63.7564 61.3428L78.103 61.3428C79.4302 61.3428 80.5215 60.2178 80.5215 58.9092C80.5215 57.6157 79.4302 56.4907 78.103 56.4907L66.6094 56.4907L66.6094 24.0894C66.6094 22.5449 65.3159 21.2363 63.8052 21.2363C62.2793 21.2363 60.9707 22.5449 60.9707 24.0894L60.9707 58.3584C60.9707 60.1992 61.9946 61.3428 63.7564 61.3428Z" fill="#000000" fill-opacity="0.85"/>
 </g>
</svg>
