<?xml version="1.0" encoding="UTF-8"?>
<!--Generator: Apple Native CoreSVG 232.5-->
<!DOCTYPE svg
PUBLIC "-//W3C//DTD SVG 1.1//EN"
       "http://www.w3.org/Graphics/SVG/1.1/DTD/svg11.dtd">
<svg version="1.1" xmlns="http://www.w3.org/2000/svg" xmlns:xlink="http://www.w3.org/1999/xlink" width="109.998" height="83.086">
 <g>
  <rect height="83.086" opacity="0" width="109.998" x="0" y="0"/>
  <path d="M38.999 0C11.6475 0 0 12.7192 0 38.1533L0 69.147C0 78.2988 4.79053 83.0371 13.9912 83.0371L96.0064 83.0371C105.192 83.0371 109.998 78.2349 109.998 69.147L109.998 38.1533C109.998 12.7192 98.335 0 70.9985 0ZM39.0293 6.04494L70.9194 6.04494C94.3027 6.04494 103.953 16.4634 103.953 37.8433L103.953 68.8472C103.953 74.2295 101.028 76.9922 95.8413 76.9922L14.1563 76.9922C8.81105 76.9922 6.04494 74.2295 6.04494 68.8472L6.04494 37.8433C6.04494 16.4634 15.6797 6.04494 39.0293 6.04494Z" fill="#000000" fill-opacity="0.85"/>
  <path d="M30.7969 61.4287L48.7954 61.4287C50.0889 61.4287 51.1651 60.3189 51.1651 59.0103C51.1651 57.7017 50.0889 56.5918 48.7954 56.5918L34.3438 56.5918L34.3438 56.314L49.9273 27.0869C50.3399 26.3106 50.6514 25.605 50.6514 24.6602C50.6514 23.0181 49.4927 21.8442 47.7378 21.8442L30.438 21.8442C29.1143 21.8442 28.0044 22.9541 28.0044 24.2627C28.0044 25.5713 29.1143 26.6812 30.438 26.6812L44.3188 26.6812L44.3188 26.959L28.5889 56.2349C28.0938 57.124 27.9136 57.7539 27.9136 58.6802C27.9136 60.4199 29.1245 61.4287 30.7969 61.4287ZM60.7627 61.8262C62.4722 61.8262 63.5669 60.6489 63.5669 58.8232L63.5669 45.4946L69.2046 45.4946L74.979 59.5288C75.5601 60.9907 76.4224 61.8262 77.9517 61.8262C79.272 61.8262 80.6211 60.9707 80.6211 59.0708C80.6211 58.5908 80.4038 57.8413 80.0518 57.021L74.6109 44.272C78.5811 42.4785 80.6499 38.5064 80.6499 33.5938C80.6499 26.0737 76.2652 21.75 68.8599 21.75L60.6651 21.75C58.8394 21.75 57.8272 22.8784 57.8272 24.7041L57.8272 58.8232C57.8272 60.6152 58.9185 61.8262 60.7627 61.8262ZM63.5669 41.1631L63.5669 26.3848L68.2974 26.3848C72.4507 26.3848 74.9102 29.2134 74.9102 33.71C74.9102 38.0098 72.8462 41.1631 68.3613 41.1631Z" fill="#000000" fill-opacity="0.85"/>
 </g>
</svg>
